%TF.GenerationSoftware,KiCad,Pcbnew,7.0.9-7.0.9~ubuntu23.04.1*%
%TF.CreationDate,2023-12-05T01:09:06+00:00*%
%TF.ProjectId,pedalboard-hw,70656461-6c62-46f6-9172-642d68772e6b,3.1.1*%
%TF.SameCoordinates,Original*%
%TF.FileFunction,OtherDrawing,Comment*%
%FSLAX46Y46*%
G04 Gerber Fmt 4.6, Leading zero omitted, Abs format (unit mm)*
G04 Created by KiCad (PCBNEW 7.0.9-7.0.9~ubuntu23.04.1) date 2023-12-05 01:09:06*
%MOMM*%
%LPD*%
G01*
G04 APERTURE LIST*
%ADD10C,0.050000*%
%ADD11C,0.150000*%
%ADD12C,0.100000*%
G04 APERTURE END LIST*
D10*
X15370000Y-19500000D02*
X194630000Y-19500000D01*
X194630000Y-131760000D01*
X15370000Y-131760000D01*
X15370000Y-19500000D01*
D11*
X62833334Y-140304818D02*
X63500000Y-140304818D01*
X63500000Y-140304818D02*
X63071429Y-141304818D01*
X64357143Y-140304818D02*
X63880953Y-140304818D01*
X63880953Y-140304818D02*
X63833334Y-140781008D01*
X63833334Y-140781008D02*
X63880953Y-140733389D01*
X63880953Y-140733389D02*
X63976191Y-140685770D01*
X63976191Y-140685770D02*
X64214286Y-140685770D01*
X64214286Y-140685770D02*
X64309524Y-140733389D01*
X64309524Y-140733389D02*
X64357143Y-140781008D01*
X64357143Y-140781008D02*
X64404762Y-140876246D01*
X64404762Y-140876246D02*
X64404762Y-141114341D01*
X64404762Y-141114341D02*
X64357143Y-141209579D01*
X64357143Y-141209579D02*
X64309524Y-141257199D01*
X64309524Y-141257199D02*
X64214286Y-141304818D01*
X64214286Y-141304818D02*
X63976191Y-141304818D01*
X63976191Y-141304818D02*
X63880953Y-141257199D01*
X63880953Y-141257199D02*
X63833334Y-141209579D01*
X64833334Y-141209579D02*
X64880953Y-141257199D01*
X64880953Y-141257199D02*
X64833334Y-141304818D01*
X64833334Y-141304818D02*
X64785715Y-141257199D01*
X64785715Y-141257199D02*
X64833334Y-141209579D01*
X64833334Y-141209579D02*
X64833334Y-141304818D01*
X65500000Y-140304818D02*
X65595238Y-140304818D01*
X65595238Y-140304818D02*
X65690476Y-140352437D01*
X65690476Y-140352437D02*
X65738095Y-140400056D01*
X65738095Y-140400056D02*
X65785714Y-140495294D01*
X65785714Y-140495294D02*
X65833333Y-140685770D01*
X65833333Y-140685770D02*
X65833333Y-140923865D01*
X65833333Y-140923865D02*
X65785714Y-141114341D01*
X65785714Y-141114341D02*
X65738095Y-141209579D01*
X65738095Y-141209579D02*
X65690476Y-141257199D01*
X65690476Y-141257199D02*
X65595238Y-141304818D01*
X65595238Y-141304818D02*
X65500000Y-141304818D01*
X65500000Y-141304818D02*
X65404762Y-141257199D01*
X65404762Y-141257199D02*
X65357143Y-141209579D01*
X65357143Y-141209579D02*
X65309524Y-141114341D01*
X65309524Y-141114341D02*
X65261905Y-140923865D01*
X65261905Y-140923865D02*
X65261905Y-140685770D01*
X65261905Y-140685770D02*
X65309524Y-140495294D01*
X65309524Y-140495294D02*
X65357143Y-140400056D01*
X65357143Y-140400056D02*
X65404762Y-140352437D01*
X65404762Y-140352437D02*
X65500000Y-140304818D01*
X66452381Y-140304818D02*
X66547619Y-140304818D01*
X66547619Y-140304818D02*
X66642857Y-140352437D01*
X66642857Y-140352437D02*
X66690476Y-140400056D01*
X66690476Y-140400056D02*
X66738095Y-140495294D01*
X66738095Y-140495294D02*
X66785714Y-140685770D01*
X66785714Y-140685770D02*
X66785714Y-140923865D01*
X66785714Y-140923865D02*
X66738095Y-141114341D01*
X66738095Y-141114341D02*
X66690476Y-141209579D01*
X66690476Y-141209579D02*
X66642857Y-141257199D01*
X66642857Y-141257199D02*
X66547619Y-141304818D01*
X66547619Y-141304818D02*
X66452381Y-141304818D01*
X66452381Y-141304818D02*
X66357143Y-141257199D01*
X66357143Y-141257199D02*
X66309524Y-141209579D01*
X66309524Y-141209579D02*
X66261905Y-141114341D01*
X66261905Y-141114341D02*
X66214286Y-140923865D01*
X66214286Y-140923865D02*
X66214286Y-140685770D01*
X66214286Y-140685770D02*
X66261905Y-140495294D01*
X66261905Y-140495294D02*
X66309524Y-140400056D01*
X66309524Y-140400056D02*
X66357143Y-140352437D01*
X66357143Y-140352437D02*
X66452381Y-140304818D01*
X67404762Y-140304818D02*
X67500000Y-140304818D01*
X67500000Y-140304818D02*
X67595238Y-140352437D01*
X67595238Y-140352437D02*
X67642857Y-140400056D01*
X67642857Y-140400056D02*
X67690476Y-140495294D01*
X67690476Y-140495294D02*
X67738095Y-140685770D01*
X67738095Y-140685770D02*
X67738095Y-140923865D01*
X67738095Y-140923865D02*
X67690476Y-141114341D01*
X67690476Y-141114341D02*
X67642857Y-141209579D01*
X67642857Y-141209579D02*
X67595238Y-141257199D01*
X67595238Y-141257199D02*
X67500000Y-141304818D01*
X67500000Y-141304818D02*
X67404762Y-141304818D01*
X67404762Y-141304818D02*
X67309524Y-141257199D01*
X67309524Y-141257199D02*
X67261905Y-141209579D01*
X67261905Y-141209579D02*
X67214286Y-141114341D01*
X67214286Y-141114341D02*
X67166667Y-140923865D01*
X67166667Y-140923865D02*
X67166667Y-140685770D01*
X67166667Y-140685770D02*
X67214286Y-140495294D01*
X67214286Y-140495294D02*
X67261905Y-140400056D01*
X67261905Y-140400056D02*
X67309524Y-140352437D01*
X67309524Y-140352437D02*
X67404762Y-140304818D01*
X68357143Y-140304818D02*
X68452381Y-140304818D01*
X68452381Y-140304818D02*
X68547619Y-140352437D01*
X68547619Y-140352437D02*
X68595238Y-140400056D01*
X68595238Y-140400056D02*
X68642857Y-140495294D01*
X68642857Y-140495294D02*
X68690476Y-140685770D01*
X68690476Y-140685770D02*
X68690476Y-140923865D01*
X68690476Y-140923865D02*
X68642857Y-141114341D01*
X68642857Y-141114341D02*
X68595238Y-141209579D01*
X68595238Y-141209579D02*
X68547619Y-141257199D01*
X68547619Y-141257199D02*
X68452381Y-141304818D01*
X68452381Y-141304818D02*
X68357143Y-141304818D01*
X68357143Y-141304818D02*
X68261905Y-141257199D01*
X68261905Y-141257199D02*
X68214286Y-141209579D01*
X68214286Y-141209579D02*
X68166667Y-141114341D01*
X68166667Y-141114341D02*
X68119048Y-140923865D01*
X68119048Y-140923865D02*
X68119048Y-140685770D01*
X68119048Y-140685770D02*
X68166667Y-140495294D01*
X68166667Y-140495294D02*
X68214286Y-140400056D01*
X68214286Y-140400056D02*
X68261905Y-140352437D01*
X68261905Y-140352437D02*
X68357143Y-140304818D01*
X69880953Y-141304818D02*
X69880953Y-140638151D01*
X69880953Y-140733389D02*
X69928572Y-140685770D01*
X69928572Y-140685770D02*
X70023810Y-140638151D01*
X70023810Y-140638151D02*
X70166667Y-140638151D01*
X70166667Y-140638151D02*
X70261905Y-140685770D01*
X70261905Y-140685770D02*
X70309524Y-140781008D01*
X70309524Y-140781008D02*
X70309524Y-141304818D01*
X70309524Y-140781008D02*
X70357143Y-140685770D01*
X70357143Y-140685770D02*
X70452381Y-140638151D01*
X70452381Y-140638151D02*
X70595238Y-140638151D01*
X70595238Y-140638151D02*
X70690477Y-140685770D01*
X70690477Y-140685770D02*
X70738096Y-140781008D01*
X70738096Y-140781008D02*
X70738096Y-141304818D01*
X71214286Y-141304818D02*
X71214286Y-140638151D01*
X71214286Y-140733389D02*
X71261905Y-140685770D01*
X71261905Y-140685770D02*
X71357143Y-140638151D01*
X71357143Y-140638151D02*
X71500000Y-140638151D01*
X71500000Y-140638151D02*
X71595238Y-140685770D01*
X71595238Y-140685770D02*
X71642857Y-140781008D01*
X71642857Y-140781008D02*
X71642857Y-141304818D01*
X71642857Y-140781008D02*
X71690476Y-140685770D01*
X71690476Y-140685770D02*
X71785714Y-140638151D01*
X71785714Y-140638151D02*
X71928571Y-140638151D01*
X71928571Y-140638151D02*
X72023810Y-140685770D01*
X72023810Y-140685770D02*
X72071429Y-140781008D01*
X72071429Y-140781008D02*
X72071429Y-141304818D01*
X30000000Y-119500000D02*
X30000000Y-142586419D01*
X105000000Y-119500000D02*
X105000000Y-142586419D01*
X30000000Y-141999999D02*
X105000000Y-141999999D01*
X30000000Y-141999999D02*
X105000000Y-141999999D01*
X30000000Y-141999999D02*
X31126504Y-141413578D01*
X30000000Y-141999999D02*
X31126504Y-142586420D01*
X105000000Y-141999999D02*
X103873496Y-142586420D01*
X105000000Y-141999999D02*
X103873496Y-141413578D01*
X177523810Y-13000057D02*
X177571429Y-12952438D01*
X177571429Y-12952438D02*
X177666667Y-12904819D01*
X177666667Y-12904819D02*
X177904762Y-12904819D01*
X177904762Y-12904819D02*
X178000000Y-12952438D01*
X178000000Y-12952438D02*
X178047619Y-13000057D01*
X178047619Y-13000057D02*
X178095238Y-13095295D01*
X178095238Y-13095295D02*
X178095238Y-13190533D01*
X178095238Y-13190533D02*
X178047619Y-13333390D01*
X178047619Y-13333390D02*
X177476191Y-13904819D01*
X177476191Y-13904819D02*
X178095238Y-13904819D01*
X178952381Y-13238152D02*
X178952381Y-13904819D01*
X178714286Y-12857200D02*
X178476191Y-13571485D01*
X178476191Y-13571485D02*
X179095238Y-13571485D01*
X180238096Y-13904819D02*
X180238096Y-13238152D01*
X180238096Y-13333390D02*
X180285715Y-13285771D01*
X180285715Y-13285771D02*
X180380953Y-13238152D01*
X180380953Y-13238152D02*
X180523810Y-13238152D01*
X180523810Y-13238152D02*
X180619048Y-13285771D01*
X180619048Y-13285771D02*
X180666667Y-13381009D01*
X180666667Y-13381009D02*
X180666667Y-13904819D01*
X180666667Y-13381009D02*
X180714286Y-13285771D01*
X180714286Y-13285771D02*
X180809524Y-13238152D01*
X180809524Y-13238152D02*
X180952381Y-13238152D01*
X180952381Y-13238152D02*
X181047620Y-13285771D01*
X181047620Y-13285771D02*
X181095239Y-13381009D01*
X181095239Y-13381009D02*
X181095239Y-13904819D01*
X181571429Y-13904819D02*
X181571429Y-13238152D01*
X181571429Y-13333390D02*
X181619048Y-13285771D01*
X181619048Y-13285771D02*
X181714286Y-13238152D01*
X181714286Y-13238152D02*
X181857143Y-13238152D01*
X181857143Y-13238152D02*
X181952381Y-13285771D01*
X181952381Y-13285771D02*
X182000000Y-13381009D01*
X182000000Y-13381009D02*
X182000000Y-13904819D01*
X182000000Y-13381009D02*
X182047619Y-13285771D01*
X182047619Y-13285771D02*
X182142857Y-13238152D01*
X182142857Y-13238152D02*
X182285714Y-13238152D01*
X182285714Y-13238152D02*
X182380953Y-13285771D01*
X182380953Y-13285771D02*
X182428572Y-13381009D01*
X182428572Y-13381009D02*
X182428572Y-13904819D01*
X168000000Y-22500000D02*
X168000000Y-14013580D01*
X192000000Y-22500000D02*
X192000000Y-14013580D01*
X168000000Y-14600000D02*
X192000000Y-14600000D01*
X168000000Y-14600000D02*
X192000000Y-14600000D01*
X168000000Y-14600000D02*
X169126504Y-14013579D01*
X168000000Y-14600000D02*
X169126504Y-15186421D01*
X192000000Y-14600000D02*
X190873496Y-15186421D01*
X192000000Y-14600000D02*
X190873496Y-14013579D01*
X198304819Y-59404761D02*
X198304819Y-59976189D01*
X198304819Y-59690475D02*
X197304819Y-59690475D01*
X197304819Y-59690475D02*
X197447676Y-59785713D01*
X197447676Y-59785713D02*
X197542914Y-59880951D01*
X197542914Y-59880951D02*
X197590533Y-59976189D01*
X198304819Y-58928570D02*
X198304819Y-58738094D01*
X198304819Y-58738094D02*
X198257200Y-58642856D01*
X198257200Y-58642856D02*
X198209580Y-58595237D01*
X198209580Y-58595237D02*
X198066723Y-58499999D01*
X198066723Y-58499999D02*
X197876247Y-58452380D01*
X197876247Y-58452380D02*
X197495295Y-58452380D01*
X197495295Y-58452380D02*
X197400057Y-58499999D01*
X197400057Y-58499999D02*
X197352438Y-58547618D01*
X197352438Y-58547618D02*
X197304819Y-58642856D01*
X197304819Y-58642856D02*
X197304819Y-58833332D01*
X197304819Y-58833332D02*
X197352438Y-58928570D01*
X197352438Y-58928570D02*
X197400057Y-58976189D01*
X197400057Y-58976189D02*
X197495295Y-59023808D01*
X197495295Y-59023808D02*
X197733390Y-59023808D01*
X197733390Y-59023808D02*
X197828628Y-58976189D01*
X197828628Y-58976189D02*
X197876247Y-58928570D01*
X197876247Y-58928570D02*
X197923866Y-58833332D01*
X197923866Y-58833332D02*
X197923866Y-58642856D01*
X197923866Y-58642856D02*
X197876247Y-58547618D01*
X197876247Y-58547618D02*
X197828628Y-58499999D01*
X197828628Y-58499999D02*
X197733390Y-58452380D01*
X198304819Y-57261903D02*
X197638152Y-57261903D01*
X197733390Y-57261903D02*
X197685771Y-57214284D01*
X197685771Y-57214284D02*
X197638152Y-57119046D01*
X197638152Y-57119046D02*
X197638152Y-56976189D01*
X197638152Y-56976189D02*
X197685771Y-56880951D01*
X197685771Y-56880951D02*
X197781009Y-56833332D01*
X197781009Y-56833332D02*
X198304819Y-56833332D01*
X197781009Y-56833332D02*
X197685771Y-56785713D01*
X197685771Y-56785713D02*
X197638152Y-56690475D01*
X197638152Y-56690475D02*
X197638152Y-56547618D01*
X197638152Y-56547618D02*
X197685771Y-56452379D01*
X197685771Y-56452379D02*
X197781009Y-56404760D01*
X197781009Y-56404760D02*
X198304819Y-56404760D01*
X198304819Y-55928570D02*
X197638152Y-55928570D01*
X197733390Y-55928570D02*
X197685771Y-55880951D01*
X197685771Y-55880951D02*
X197638152Y-55785713D01*
X197638152Y-55785713D02*
X197638152Y-55642856D01*
X197638152Y-55642856D02*
X197685771Y-55547618D01*
X197685771Y-55547618D02*
X197781009Y-55499999D01*
X197781009Y-55499999D02*
X198304819Y-55499999D01*
X197781009Y-55499999D02*
X197685771Y-55452380D01*
X197685771Y-55452380D02*
X197638152Y-55357142D01*
X197638152Y-55357142D02*
X197638152Y-55214285D01*
X197638152Y-55214285D02*
X197685771Y-55119046D01*
X197685771Y-55119046D02*
X197781009Y-55071427D01*
X197781009Y-55071427D02*
X198304819Y-55071427D01*
X143000000Y-48000000D02*
X199586420Y-48000000D01*
X143000000Y-67000000D02*
X199586420Y-67000000D01*
X199000000Y-48000000D02*
X199000000Y-67000000D01*
X199000000Y-48000000D02*
X199000000Y-67000000D01*
X199000000Y-48000000D02*
X199586421Y-49126504D01*
X199000000Y-48000000D02*
X198413579Y-49126504D01*
X199000000Y-67000000D02*
X198413579Y-65873496D01*
X199000000Y-67000000D02*
X199586421Y-65873496D01*
X198454819Y-126004761D02*
X198454819Y-126576189D01*
X198454819Y-126290475D02*
X197454819Y-126290475D01*
X197454819Y-126290475D02*
X197597676Y-126385713D01*
X197597676Y-126385713D02*
X197692914Y-126480951D01*
X197692914Y-126480951D02*
X197740533Y-126576189D01*
X197550057Y-125623808D02*
X197502438Y-125576189D01*
X197502438Y-125576189D02*
X197454819Y-125480951D01*
X197454819Y-125480951D02*
X197454819Y-125242856D01*
X197454819Y-125242856D02*
X197502438Y-125147618D01*
X197502438Y-125147618D02*
X197550057Y-125099999D01*
X197550057Y-125099999D02*
X197645295Y-125052380D01*
X197645295Y-125052380D02*
X197740533Y-125052380D01*
X197740533Y-125052380D02*
X197883390Y-125099999D01*
X197883390Y-125099999D02*
X198454819Y-125671427D01*
X198454819Y-125671427D02*
X198454819Y-125052380D01*
X198454819Y-123861903D02*
X197788152Y-123861903D01*
X197883390Y-123861903D02*
X197835771Y-123814284D01*
X197835771Y-123814284D02*
X197788152Y-123719046D01*
X197788152Y-123719046D02*
X197788152Y-123576189D01*
X197788152Y-123576189D02*
X197835771Y-123480951D01*
X197835771Y-123480951D02*
X197931009Y-123433332D01*
X197931009Y-123433332D02*
X198454819Y-123433332D01*
X197931009Y-123433332D02*
X197835771Y-123385713D01*
X197835771Y-123385713D02*
X197788152Y-123290475D01*
X197788152Y-123290475D02*
X197788152Y-123147618D01*
X197788152Y-123147618D02*
X197835771Y-123052379D01*
X197835771Y-123052379D02*
X197931009Y-123004760D01*
X197931009Y-123004760D02*
X198454819Y-123004760D01*
X198454819Y-122528570D02*
X197788152Y-122528570D01*
X197883390Y-122528570D02*
X197835771Y-122480951D01*
X197835771Y-122480951D02*
X197788152Y-122385713D01*
X197788152Y-122385713D02*
X197788152Y-122242856D01*
X197788152Y-122242856D02*
X197835771Y-122147618D01*
X197835771Y-122147618D02*
X197931009Y-122099999D01*
X197931009Y-122099999D02*
X198454819Y-122099999D01*
X197931009Y-122099999D02*
X197835771Y-122052380D01*
X197835771Y-122052380D02*
X197788152Y-121957142D01*
X197788152Y-121957142D02*
X197788152Y-121814285D01*
X197788152Y-121814285D02*
X197835771Y-121719046D01*
X197835771Y-121719046D02*
X197931009Y-121671427D01*
X197931009Y-121671427D02*
X198454819Y-121671427D01*
X180160000Y-119000000D02*
X199586420Y-119000000D01*
X180160000Y-131000000D02*
X199586420Y-131000000D01*
X199000000Y-119000000D02*
X199000000Y-131000000D01*
X199000000Y-119000000D02*
X199000000Y-131000000D01*
X199000000Y-119000000D02*
X199586421Y-120126504D01*
X199000000Y-119000000D02*
X198413579Y-120126504D01*
X199000000Y-131000000D02*
X198413579Y-129873496D01*
X199000000Y-131000000D02*
X199586421Y-129873496D01*
X50085433Y-24547618D02*
X50085433Y-23928571D01*
X50085433Y-23928571D02*
X50466385Y-24261904D01*
X50466385Y-24261904D02*
X50466385Y-24119047D01*
X50466385Y-24119047D02*
X50514004Y-24023809D01*
X50514004Y-24023809D02*
X50561623Y-23976190D01*
X50561623Y-23976190D02*
X50656861Y-23928571D01*
X50656861Y-23928571D02*
X50894956Y-23928571D01*
X50894956Y-23928571D02*
X50990194Y-23976190D01*
X50990194Y-23976190D02*
X51037814Y-24023809D01*
X51037814Y-24023809D02*
X51085433Y-24119047D01*
X51085433Y-24119047D02*
X51085433Y-24404761D01*
X51085433Y-24404761D02*
X51037814Y-24499999D01*
X51037814Y-24499999D02*
X50990194Y-24547618D01*
X51085433Y-22738094D02*
X50418766Y-22738094D01*
X50514004Y-22738094D02*
X50466385Y-22690475D01*
X50466385Y-22690475D02*
X50418766Y-22595237D01*
X50418766Y-22595237D02*
X50418766Y-22452380D01*
X50418766Y-22452380D02*
X50466385Y-22357142D01*
X50466385Y-22357142D02*
X50561623Y-22309523D01*
X50561623Y-22309523D02*
X51085433Y-22309523D01*
X50561623Y-22309523D02*
X50466385Y-22261904D01*
X50466385Y-22261904D02*
X50418766Y-22166666D01*
X50418766Y-22166666D02*
X50418766Y-22023809D01*
X50418766Y-22023809D02*
X50466385Y-21928570D01*
X50466385Y-21928570D02*
X50561623Y-21880951D01*
X50561623Y-21880951D02*
X51085433Y-21880951D01*
X51085433Y-21404761D02*
X50418766Y-21404761D01*
X50514004Y-21404761D02*
X50466385Y-21357142D01*
X50466385Y-21357142D02*
X50418766Y-21261904D01*
X50418766Y-21261904D02*
X50418766Y-21119047D01*
X50418766Y-21119047D02*
X50466385Y-21023809D01*
X50466385Y-21023809D02*
X50561623Y-20976190D01*
X50561623Y-20976190D02*
X51085433Y-20976190D01*
X50561623Y-20976190D02*
X50466385Y-20928571D01*
X50466385Y-20928571D02*
X50418766Y-20833333D01*
X50418766Y-20833333D02*
X50418766Y-20690476D01*
X50418766Y-20690476D02*
X50466385Y-20595237D01*
X50466385Y-20595237D02*
X50561623Y-20547618D01*
X50561623Y-20547618D02*
X51085433Y-20547618D01*
D12*
X42000000Y-23000000D02*
X49086420Y-23000000D01*
X42000000Y-20000000D02*
X49086420Y-20000000D01*
X48500000Y-23000000D02*
X48500000Y-20000000D01*
X48500000Y-23000000D02*
X48500000Y-20000000D01*
X48500000Y-23000000D02*
X47913579Y-21873496D01*
X48500000Y-23000000D02*
X49086421Y-21873496D01*
X48500000Y-20000000D02*
X49086421Y-21126504D01*
X48500000Y-20000000D02*
X47913579Y-21126504D01*
D11*
X75380953Y-50400056D02*
X75428572Y-50352437D01*
X75428572Y-50352437D02*
X75523810Y-50304818D01*
X75523810Y-50304818D02*
X75761905Y-50304818D01*
X75761905Y-50304818D02*
X75857143Y-50352437D01*
X75857143Y-50352437D02*
X75904762Y-50400056D01*
X75904762Y-50400056D02*
X75952381Y-50495294D01*
X75952381Y-50495294D02*
X75952381Y-50590532D01*
X75952381Y-50590532D02*
X75904762Y-50733389D01*
X75904762Y-50733389D02*
X75333334Y-51304818D01*
X75333334Y-51304818D02*
X75952381Y-51304818D01*
X76857143Y-50304818D02*
X76380953Y-50304818D01*
X76380953Y-50304818D02*
X76333334Y-50781008D01*
X76333334Y-50781008D02*
X76380953Y-50733389D01*
X76380953Y-50733389D02*
X76476191Y-50685770D01*
X76476191Y-50685770D02*
X76714286Y-50685770D01*
X76714286Y-50685770D02*
X76809524Y-50733389D01*
X76809524Y-50733389D02*
X76857143Y-50781008D01*
X76857143Y-50781008D02*
X76904762Y-50876246D01*
X76904762Y-50876246D02*
X76904762Y-51114341D01*
X76904762Y-51114341D02*
X76857143Y-51209579D01*
X76857143Y-51209579D02*
X76809524Y-51257199D01*
X76809524Y-51257199D02*
X76714286Y-51304818D01*
X76714286Y-51304818D02*
X76476191Y-51304818D01*
X76476191Y-51304818D02*
X76380953Y-51257199D01*
X76380953Y-51257199D02*
X76333334Y-51209579D01*
X77333334Y-51209579D02*
X77380953Y-51257199D01*
X77380953Y-51257199D02*
X77333334Y-51304818D01*
X77333334Y-51304818D02*
X77285715Y-51257199D01*
X77285715Y-51257199D02*
X77333334Y-51209579D01*
X77333334Y-51209579D02*
X77333334Y-51304818D01*
X78000000Y-50304818D02*
X78095238Y-50304818D01*
X78095238Y-50304818D02*
X78190476Y-50352437D01*
X78190476Y-50352437D02*
X78238095Y-50400056D01*
X78238095Y-50400056D02*
X78285714Y-50495294D01*
X78285714Y-50495294D02*
X78333333Y-50685770D01*
X78333333Y-50685770D02*
X78333333Y-50923865D01*
X78333333Y-50923865D02*
X78285714Y-51114341D01*
X78285714Y-51114341D02*
X78238095Y-51209579D01*
X78238095Y-51209579D02*
X78190476Y-51257199D01*
X78190476Y-51257199D02*
X78095238Y-51304818D01*
X78095238Y-51304818D02*
X78000000Y-51304818D01*
X78000000Y-51304818D02*
X77904762Y-51257199D01*
X77904762Y-51257199D02*
X77857143Y-51209579D01*
X77857143Y-51209579D02*
X77809524Y-51114341D01*
X77809524Y-51114341D02*
X77761905Y-50923865D01*
X77761905Y-50923865D02*
X77761905Y-50685770D01*
X77761905Y-50685770D02*
X77809524Y-50495294D01*
X77809524Y-50495294D02*
X77857143Y-50400056D01*
X77857143Y-50400056D02*
X77904762Y-50352437D01*
X77904762Y-50352437D02*
X78000000Y-50304818D01*
X78952381Y-50304818D02*
X79047619Y-50304818D01*
X79047619Y-50304818D02*
X79142857Y-50352437D01*
X79142857Y-50352437D02*
X79190476Y-50400056D01*
X79190476Y-50400056D02*
X79238095Y-50495294D01*
X79238095Y-50495294D02*
X79285714Y-50685770D01*
X79285714Y-50685770D02*
X79285714Y-50923865D01*
X79285714Y-50923865D02*
X79238095Y-51114341D01*
X79238095Y-51114341D02*
X79190476Y-51209579D01*
X79190476Y-51209579D02*
X79142857Y-51257199D01*
X79142857Y-51257199D02*
X79047619Y-51304818D01*
X79047619Y-51304818D02*
X78952381Y-51304818D01*
X78952381Y-51304818D02*
X78857143Y-51257199D01*
X78857143Y-51257199D02*
X78809524Y-51209579D01*
X78809524Y-51209579D02*
X78761905Y-51114341D01*
X78761905Y-51114341D02*
X78714286Y-50923865D01*
X78714286Y-50923865D02*
X78714286Y-50685770D01*
X78714286Y-50685770D02*
X78761905Y-50495294D01*
X78761905Y-50495294D02*
X78809524Y-50400056D01*
X78809524Y-50400056D02*
X78857143Y-50352437D01*
X78857143Y-50352437D02*
X78952381Y-50304818D01*
X79904762Y-50304818D02*
X80000000Y-50304818D01*
X80000000Y-50304818D02*
X80095238Y-50352437D01*
X80095238Y-50352437D02*
X80142857Y-50400056D01*
X80142857Y-50400056D02*
X80190476Y-50495294D01*
X80190476Y-50495294D02*
X80238095Y-50685770D01*
X80238095Y-50685770D02*
X80238095Y-50923865D01*
X80238095Y-50923865D02*
X80190476Y-51114341D01*
X80190476Y-51114341D02*
X80142857Y-51209579D01*
X80142857Y-51209579D02*
X80095238Y-51257199D01*
X80095238Y-51257199D02*
X80000000Y-51304818D01*
X80000000Y-51304818D02*
X79904762Y-51304818D01*
X79904762Y-51304818D02*
X79809524Y-51257199D01*
X79809524Y-51257199D02*
X79761905Y-51209579D01*
X79761905Y-51209579D02*
X79714286Y-51114341D01*
X79714286Y-51114341D02*
X79666667Y-50923865D01*
X79666667Y-50923865D02*
X79666667Y-50685770D01*
X79666667Y-50685770D02*
X79714286Y-50495294D01*
X79714286Y-50495294D02*
X79761905Y-50400056D01*
X79761905Y-50400056D02*
X79809524Y-50352437D01*
X79809524Y-50352437D02*
X79904762Y-50304818D01*
X80857143Y-50304818D02*
X80952381Y-50304818D01*
X80952381Y-50304818D02*
X81047619Y-50352437D01*
X81047619Y-50352437D02*
X81095238Y-50400056D01*
X81095238Y-50400056D02*
X81142857Y-50495294D01*
X81142857Y-50495294D02*
X81190476Y-50685770D01*
X81190476Y-50685770D02*
X81190476Y-50923865D01*
X81190476Y-50923865D02*
X81142857Y-51114341D01*
X81142857Y-51114341D02*
X81095238Y-51209579D01*
X81095238Y-51209579D02*
X81047619Y-51257199D01*
X81047619Y-51257199D02*
X80952381Y-51304818D01*
X80952381Y-51304818D02*
X80857143Y-51304818D01*
X80857143Y-51304818D02*
X80761905Y-51257199D01*
X80761905Y-51257199D02*
X80714286Y-51209579D01*
X80714286Y-51209579D02*
X80666667Y-51114341D01*
X80666667Y-51114341D02*
X80619048Y-50923865D01*
X80619048Y-50923865D02*
X80619048Y-50685770D01*
X80619048Y-50685770D02*
X80666667Y-50495294D01*
X80666667Y-50495294D02*
X80714286Y-50400056D01*
X80714286Y-50400056D02*
X80761905Y-50352437D01*
X80761905Y-50352437D02*
X80857143Y-50304818D01*
X82380953Y-51304818D02*
X82380953Y-50638151D01*
X82380953Y-50733389D02*
X82428572Y-50685770D01*
X82428572Y-50685770D02*
X82523810Y-50638151D01*
X82523810Y-50638151D02*
X82666667Y-50638151D01*
X82666667Y-50638151D02*
X82761905Y-50685770D01*
X82761905Y-50685770D02*
X82809524Y-50781008D01*
X82809524Y-50781008D02*
X82809524Y-51304818D01*
X82809524Y-50781008D02*
X82857143Y-50685770D01*
X82857143Y-50685770D02*
X82952381Y-50638151D01*
X82952381Y-50638151D02*
X83095238Y-50638151D01*
X83095238Y-50638151D02*
X83190477Y-50685770D01*
X83190477Y-50685770D02*
X83238096Y-50781008D01*
X83238096Y-50781008D02*
X83238096Y-51304818D01*
X83714286Y-51304818D02*
X83714286Y-50638151D01*
X83714286Y-50733389D02*
X83761905Y-50685770D01*
X83761905Y-50685770D02*
X83857143Y-50638151D01*
X83857143Y-50638151D02*
X84000000Y-50638151D01*
X84000000Y-50638151D02*
X84095238Y-50685770D01*
X84095238Y-50685770D02*
X84142857Y-50781008D01*
X84142857Y-50781008D02*
X84142857Y-51304818D01*
X84142857Y-50781008D02*
X84190476Y-50685770D01*
X84190476Y-50685770D02*
X84285714Y-50638151D01*
X84285714Y-50638151D02*
X84428571Y-50638151D01*
X84428571Y-50638151D02*
X84523810Y-50685770D01*
X84523810Y-50685770D02*
X84571429Y-50781008D01*
X84571429Y-50781008D02*
X84571429Y-51304818D01*
X67500000Y-48500000D02*
X67500000Y-52586419D01*
X92500000Y-48500000D02*
X92500000Y-52586419D01*
X67500000Y-51999999D02*
X92500000Y-51999999D01*
X67500000Y-51999999D02*
X92500000Y-51999999D01*
X67500000Y-51999999D02*
X68626504Y-51413578D01*
X67500000Y-51999999D02*
X68626504Y-52586420D01*
X92500000Y-51999999D02*
X91373496Y-52586420D01*
X92500000Y-51999999D02*
X91373496Y-51413578D01*
X103047619Y-15804819D02*
X102571429Y-15804819D01*
X102571429Y-15804819D02*
X102523810Y-16281009D01*
X102523810Y-16281009D02*
X102571429Y-16233390D01*
X102571429Y-16233390D02*
X102666667Y-16185771D01*
X102666667Y-16185771D02*
X102904762Y-16185771D01*
X102904762Y-16185771D02*
X103000000Y-16233390D01*
X103000000Y-16233390D02*
X103047619Y-16281009D01*
X103047619Y-16281009D02*
X103095238Y-16376247D01*
X103095238Y-16376247D02*
X103095238Y-16614342D01*
X103095238Y-16614342D02*
X103047619Y-16709580D01*
X103047619Y-16709580D02*
X103000000Y-16757200D01*
X103000000Y-16757200D02*
X102904762Y-16804819D01*
X102904762Y-16804819D02*
X102666667Y-16804819D01*
X102666667Y-16804819D02*
X102571429Y-16757200D01*
X102571429Y-16757200D02*
X102523810Y-16709580D01*
X103714286Y-15804819D02*
X103809524Y-15804819D01*
X103809524Y-15804819D02*
X103904762Y-15852438D01*
X103904762Y-15852438D02*
X103952381Y-15900057D01*
X103952381Y-15900057D02*
X104000000Y-15995295D01*
X104000000Y-15995295D02*
X104047619Y-16185771D01*
X104047619Y-16185771D02*
X104047619Y-16423866D01*
X104047619Y-16423866D02*
X104000000Y-16614342D01*
X104000000Y-16614342D02*
X103952381Y-16709580D01*
X103952381Y-16709580D02*
X103904762Y-16757200D01*
X103904762Y-16757200D02*
X103809524Y-16804819D01*
X103809524Y-16804819D02*
X103714286Y-16804819D01*
X103714286Y-16804819D02*
X103619048Y-16757200D01*
X103619048Y-16757200D02*
X103571429Y-16709580D01*
X103571429Y-16709580D02*
X103523810Y-16614342D01*
X103523810Y-16614342D02*
X103476191Y-16423866D01*
X103476191Y-16423866D02*
X103476191Y-16185771D01*
X103476191Y-16185771D02*
X103523810Y-15995295D01*
X103523810Y-15995295D02*
X103571429Y-15900057D01*
X103571429Y-15900057D02*
X103619048Y-15852438D01*
X103619048Y-15852438D02*
X103714286Y-15804819D01*
X105238096Y-16804819D02*
X105238096Y-16138152D01*
X105238096Y-16233390D02*
X105285715Y-16185771D01*
X105285715Y-16185771D02*
X105380953Y-16138152D01*
X105380953Y-16138152D02*
X105523810Y-16138152D01*
X105523810Y-16138152D02*
X105619048Y-16185771D01*
X105619048Y-16185771D02*
X105666667Y-16281009D01*
X105666667Y-16281009D02*
X105666667Y-16804819D01*
X105666667Y-16281009D02*
X105714286Y-16185771D01*
X105714286Y-16185771D02*
X105809524Y-16138152D01*
X105809524Y-16138152D02*
X105952381Y-16138152D01*
X105952381Y-16138152D02*
X106047620Y-16185771D01*
X106047620Y-16185771D02*
X106095239Y-16281009D01*
X106095239Y-16281009D02*
X106095239Y-16804819D01*
X106571429Y-16804819D02*
X106571429Y-16138152D01*
X106571429Y-16233390D02*
X106619048Y-16185771D01*
X106619048Y-16185771D02*
X106714286Y-16138152D01*
X106714286Y-16138152D02*
X106857143Y-16138152D01*
X106857143Y-16138152D02*
X106952381Y-16185771D01*
X106952381Y-16185771D02*
X107000000Y-16281009D01*
X107000000Y-16281009D02*
X107000000Y-16804819D01*
X107000000Y-16281009D02*
X107047619Y-16185771D01*
X107047619Y-16185771D02*
X107142857Y-16138152D01*
X107142857Y-16138152D02*
X107285714Y-16138152D01*
X107285714Y-16138152D02*
X107380953Y-16185771D01*
X107380953Y-16185771D02*
X107428572Y-16281009D01*
X107428572Y-16281009D02*
X107428572Y-16804819D01*
X80000000Y-19494385D02*
X80000000Y-16913580D01*
X130000000Y-19494385D02*
X130000000Y-16913580D01*
X80000000Y-17500000D02*
X130000000Y-17500000D01*
X80000000Y-17500000D02*
X130000000Y-17500000D01*
X80000000Y-17500000D02*
X81126504Y-16913579D01*
X80000000Y-17500000D02*
X81126504Y-18086421D01*
X130000000Y-17500000D02*
X128873496Y-18086421D01*
X130000000Y-17500000D02*
X128873496Y-16913579D01*
X101428571Y-147104819D02*
X100857143Y-147104819D01*
X101142857Y-147104819D02*
X101142857Y-146104819D01*
X101142857Y-146104819D02*
X101047619Y-146247676D01*
X101047619Y-146247676D02*
X100952381Y-146342914D01*
X100952381Y-146342914D02*
X100857143Y-146390533D01*
X102000000Y-146533390D02*
X101904762Y-146485771D01*
X101904762Y-146485771D02*
X101857143Y-146438152D01*
X101857143Y-146438152D02*
X101809524Y-146342914D01*
X101809524Y-146342914D02*
X101809524Y-146295295D01*
X101809524Y-146295295D02*
X101857143Y-146200057D01*
X101857143Y-146200057D02*
X101904762Y-146152438D01*
X101904762Y-146152438D02*
X102000000Y-146104819D01*
X102000000Y-146104819D02*
X102190476Y-146104819D01*
X102190476Y-146104819D02*
X102285714Y-146152438D01*
X102285714Y-146152438D02*
X102333333Y-146200057D01*
X102333333Y-146200057D02*
X102380952Y-146295295D01*
X102380952Y-146295295D02*
X102380952Y-146342914D01*
X102380952Y-146342914D02*
X102333333Y-146438152D01*
X102333333Y-146438152D02*
X102285714Y-146485771D01*
X102285714Y-146485771D02*
X102190476Y-146533390D01*
X102190476Y-146533390D02*
X102000000Y-146533390D01*
X102000000Y-146533390D02*
X101904762Y-146581009D01*
X101904762Y-146581009D02*
X101857143Y-146628628D01*
X101857143Y-146628628D02*
X101809524Y-146723866D01*
X101809524Y-146723866D02*
X101809524Y-146914342D01*
X101809524Y-146914342D02*
X101857143Y-147009580D01*
X101857143Y-147009580D02*
X101904762Y-147057200D01*
X101904762Y-147057200D02*
X102000000Y-147104819D01*
X102000000Y-147104819D02*
X102190476Y-147104819D01*
X102190476Y-147104819D02*
X102285714Y-147057200D01*
X102285714Y-147057200D02*
X102333333Y-147009580D01*
X102333333Y-147009580D02*
X102380952Y-146914342D01*
X102380952Y-146914342D02*
X102380952Y-146723866D01*
X102380952Y-146723866D02*
X102333333Y-146628628D01*
X102333333Y-146628628D02*
X102285714Y-146581009D01*
X102285714Y-146581009D02*
X102190476Y-146533390D01*
X103000000Y-146104819D02*
X103095238Y-146104819D01*
X103095238Y-146104819D02*
X103190476Y-146152438D01*
X103190476Y-146152438D02*
X103238095Y-146200057D01*
X103238095Y-146200057D02*
X103285714Y-146295295D01*
X103285714Y-146295295D02*
X103333333Y-146485771D01*
X103333333Y-146485771D02*
X103333333Y-146723866D01*
X103333333Y-146723866D02*
X103285714Y-146914342D01*
X103285714Y-146914342D02*
X103238095Y-147009580D01*
X103238095Y-147009580D02*
X103190476Y-147057200D01*
X103190476Y-147057200D02*
X103095238Y-147104819D01*
X103095238Y-147104819D02*
X103000000Y-147104819D01*
X103000000Y-147104819D02*
X102904762Y-147057200D01*
X102904762Y-147057200D02*
X102857143Y-147009580D01*
X102857143Y-147009580D02*
X102809524Y-146914342D01*
X102809524Y-146914342D02*
X102761905Y-146723866D01*
X102761905Y-146723866D02*
X102761905Y-146485771D01*
X102761905Y-146485771D02*
X102809524Y-146295295D01*
X102809524Y-146295295D02*
X102857143Y-146200057D01*
X102857143Y-146200057D02*
X102904762Y-146152438D01*
X102904762Y-146152438D02*
X103000000Y-146104819D01*
X103761905Y-147009580D02*
X103809524Y-147057200D01*
X103809524Y-147057200D02*
X103761905Y-147104819D01*
X103761905Y-147104819D02*
X103714286Y-147057200D01*
X103714286Y-147057200D02*
X103761905Y-147009580D01*
X103761905Y-147009580D02*
X103761905Y-147104819D01*
X104380952Y-146533390D02*
X104285714Y-146485771D01*
X104285714Y-146485771D02*
X104238095Y-146438152D01*
X104238095Y-146438152D02*
X104190476Y-146342914D01*
X104190476Y-146342914D02*
X104190476Y-146295295D01*
X104190476Y-146295295D02*
X104238095Y-146200057D01*
X104238095Y-146200057D02*
X104285714Y-146152438D01*
X104285714Y-146152438D02*
X104380952Y-146104819D01*
X104380952Y-146104819D02*
X104571428Y-146104819D01*
X104571428Y-146104819D02*
X104666666Y-146152438D01*
X104666666Y-146152438D02*
X104714285Y-146200057D01*
X104714285Y-146200057D02*
X104761904Y-146295295D01*
X104761904Y-146295295D02*
X104761904Y-146342914D01*
X104761904Y-146342914D02*
X104714285Y-146438152D01*
X104714285Y-146438152D02*
X104666666Y-146485771D01*
X104666666Y-146485771D02*
X104571428Y-146533390D01*
X104571428Y-146533390D02*
X104380952Y-146533390D01*
X104380952Y-146533390D02*
X104285714Y-146581009D01*
X104285714Y-146581009D02*
X104238095Y-146628628D01*
X104238095Y-146628628D02*
X104190476Y-146723866D01*
X104190476Y-146723866D02*
X104190476Y-146914342D01*
X104190476Y-146914342D02*
X104238095Y-147009580D01*
X104238095Y-147009580D02*
X104285714Y-147057200D01*
X104285714Y-147057200D02*
X104380952Y-147104819D01*
X104380952Y-147104819D02*
X104571428Y-147104819D01*
X104571428Y-147104819D02*
X104666666Y-147057200D01*
X104666666Y-147057200D02*
X104714285Y-147009580D01*
X104714285Y-147009580D02*
X104761904Y-146914342D01*
X104761904Y-146914342D02*
X104761904Y-146723866D01*
X104761904Y-146723866D02*
X104714285Y-146628628D01*
X104714285Y-146628628D02*
X104666666Y-146581009D01*
X104666666Y-146581009D02*
X104571428Y-146533390D01*
X105619047Y-146438152D02*
X105619047Y-147104819D01*
X105380952Y-146057200D02*
X105142857Y-146771485D01*
X105142857Y-146771485D02*
X105761904Y-146771485D01*
X106904762Y-147104819D02*
X106904762Y-146438152D01*
X106904762Y-146533390D02*
X106952381Y-146485771D01*
X106952381Y-146485771D02*
X107047619Y-146438152D01*
X107047619Y-146438152D02*
X107190476Y-146438152D01*
X107190476Y-146438152D02*
X107285714Y-146485771D01*
X107285714Y-146485771D02*
X107333333Y-146581009D01*
X107333333Y-146581009D02*
X107333333Y-147104819D01*
X107333333Y-146581009D02*
X107380952Y-146485771D01*
X107380952Y-146485771D02*
X107476190Y-146438152D01*
X107476190Y-146438152D02*
X107619047Y-146438152D01*
X107619047Y-146438152D02*
X107714286Y-146485771D01*
X107714286Y-146485771D02*
X107761905Y-146581009D01*
X107761905Y-146581009D02*
X107761905Y-147104819D01*
X108238095Y-147104819D02*
X108238095Y-146438152D01*
X108238095Y-146533390D02*
X108285714Y-146485771D01*
X108285714Y-146485771D02*
X108380952Y-146438152D01*
X108380952Y-146438152D02*
X108523809Y-146438152D01*
X108523809Y-146438152D02*
X108619047Y-146485771D01*
X108619047Y-146485771D02*
X108666666Y-146581009D01*
X108666666Y-146581009D02*
X108666666Y-147104819D01*
X108666666Y-146581009D02*
X108714285Y-146485771D01*
X108714285Y-146485771D02*
X108809523Y-146438152D01*
X108809523Y-146438152D02*
X108952380Y-146438152D01*
X108952380Y-146438152D02*
X109047619Y-146485771D01*
X109047619Y-146485771D02*
X109095238Y-146581009D01*
X109095238Y-146581009D02*
X109095238Y-147104819D01*
D12*
X195420000Y-106110000D02*
X195420000Y-148386420D01*
X14580000Y-106110000D02*
X14580000Y-148386420D01*
X195420000Y-147800000D02*
X14580000Y-147800000D01*
X195420000Y-147800000D02*
X14580000Y-147800000D01*
X195420000Y-147800000D02*
X194293496Y-148386421D01*
X195420000Y-147800000D02*
X194293496Y-147213579D01*
X14580000Y-147800000D02*
X15706504Y-147213579D01*
X14580000Y-147800000D02*
X15706504Y-148386421D01*
D11*
X197304819Y-94952380D02*
X197304819Y-95428570D01*
X197304819Y-95428570D02*
X197781009Y-95476189D01*
X197781009Y-95476189D02*
X197733390Y-95428570D01*
X197733390Y-95428570D02*
X197685771Y-95333332D01*
X197685771Y-95333332D02*
X197685771Y-95095237D01*
X197685771Y-95095237D02*
X197733390Y-94999999D01*
X197733390Y-94999999D02*
X197781009Y-94952380D01*
X197781009Y-94952380D02*
X197876247Y-94904761D01*
X197876247Y-94904761D02*
X198114342Y-94904761D01*
X198114342Y-94904761D02*
X198209580Y-94952380D01*
X198209580Y-94952380D02*
X198257200Y-94999999D01*
X198257200Y-94999999D02*
X198304819Y-95095237D01*
X198304819Y-95095237D02*
X198304819Y-95333332D01*
X198304819Y-95333332D02*
X198257200Y-95428570D01*
X198257200Y-95428570D02*
X198209580Y-95476189D01*
X197400057Y-94523808D02*
X197352438Y-94476189D01*
X197352438Y-94476189D02*
X197304819Y-94380951D01*
X197304819Y-94380951D02*
X197304819Y-94142856D01*
X197304819Y-94142856D02*
X197352438Y-94047618D01*
X197352438Y-94047618D02*
X197400057Y-93999999D01*
X197400057Y-93999999D02*
X197495295Y-93952380D01*
X197495295Y-93952380D02*
X197590533Y-93952380D01*
X197590533Y-93952380D02*
X197733390Y-93999999D01*
X197733390Y-93999999D02*
X198304819Y-94571427D01*
X198304819Y-94571427D02*
X198304819Y-93952380D01*
X198304819Y-92761903D02*
X197638152Y-92761903D01*
X197733390Y-92761903D02*
X197685771Y-92714284D01*
X197685771Y-92714284D02*
X197638152Y-92619046D01*
X197638152Y-92619046D02*
X197638152Y-92476189D01*
X197638152Y-92476189D02*
X197685771Y-92380951D01*
X197685771Y-92380951D02*
X197781009Y-92333332D01*
X197781009Y-92333332D02*
X198304819Y-92333332D01*
X197781009Y-92333332D02*
X197685771Y-92285713D01*
X197685771Y-92285713D02*
X197638152Y-92190475D01*
X197638152Y-92190475D02*
X197638152Y-92047618D01*
X197638152Y-92047618D02*
X197685771Y-91952379D01*
X197685771Y-91952379D02*
X197781009Y-91904760D01*
X197781009Y-91904760D02*
X198304819Y-91904760D01*
X198304819Y-91428570D02*
X197638152Y-91428570D01*
X197733390Y-91428570D02*
X197685771Y-91380951D01*
X197685771Y-91380951D02*
X197638152Y-91285713D01*
X197638152Y-91285713D02*
X197638152Y-91142856D01*
X197638152Y-91142856D02*
X197685771Y-91047618D01*
X197685771Y-91047618D02*
X197781009Y-90999999D01*
X197781009Y-90999999D02*
X198304819Y-90999999D01*
X197781009Y-90999999D02*
X197685771Y-90952380D01*
X197685771Y-90952380D02*
X197638152Y-90857142D01*
X197638152Y-90857142D02*
X197638152Y-90714285D01*
X197638152Y-90714285D02*
X197685771Y-90619046D01*
X197685771Y-90619046D02*
X197781009Y-90571427D01*
X197781009Y-90571427D02*
X198304819Y-90571427D01*
X180500000Y-67000000D02*
X199586420Y-67000000D01*
X180500000Y-119000000D02*
X199586420Y-119000000D01*
X199000000Y-67000000D02*
X199000000Y-119000000D01*
X199000000Y-67000000D02*
X199000000Y-119000000D01*
X199000000Y-67000000D02*
X199586421Y-68126504D01*
X199000000Y-67000000D02*
X198413579Y-68126504D01*
X199000000Y-119000000D02*
X198413579Y-117873496D01*
X199000000Y-119000000D02*
X199586421Y-117873496D01*
X200504819Y-77880952D02*
X200504819Y-78452380D01*
X200504819Y-78166666D02*
X199504819Y-78166666D01*
X199504819Y-78166666D02*
X199647676Y-78261904D01*
X199647676Y-78261904D02*
X199742914Y-78357142D01*
X199742914Y-78357142D02*
X199790533Y-78452380D01*
X200504819Y-76928571D02*
X200504819Y-77499999D01*
X200504819Y-77214285D02*
X199504819Y-77214285D01*
X199504819Y-77214285D02*
X199647676Y-77309523D01*
X199647676Y-77309523D02*
X199742914Y-77404761D01*
X199742914Y-77404761D02*
X199790533Y-77499999D01*
X200504819Y-75976190D02*
X200504819Y-76547618D01*
X200504819Y-76261904D02*
X199504819Y-76261904D01*
X199504819Y-76261904D02*
X199647676Y-76357142D01*
X199647676Y-76357142D02*
X199742914Y-76452380D01*
X199742914Y-76452380D02*
X199790533Y-76547618D01*
X200504819Y-74785713D02*
X199838152Y-74785713D01*
X199933390Y-74785713D02*
X199885771Y-74738094D01*
X199885771Y-74738094D02*
X199838152Y-74642856D01*
X199838152Y-74642856D02*
X199838152Y-74499999D01*
X199838152Y-74499999D02*
X199885771Y-74404761D01*
X199885771Y-74404761D02*
X199981009Y-74357142D01*
X199981009Y-74357142D02*
X200504819Y-74357142D01*
X199981009Y-74357142D02*
X199885771Y-74309523D01*
X199885771Y-74309523D02*
X199838152Y-74214285D01*
X199838152Y-74214285D02*
X199838152Y-74071428D01*
X199838152Y-74071428D02*
X199885771Y-73976189D01*
X199885771Y-73976189D02*
X199981009Y-73928570D01*
X199981009Y-73928570D02*
X200504819Y-73928570D01*
X200504819Y-73452380D02*
X199838152Y-73452380D01*
X199933390Y-73452380D02*
X199885771Y-73404761D01*
X199885771Y-73404761D02*
X199838152Y-73309523D01*
X199838152Y-73309523D02*
X199838152Y-73166666D01*
X199838152Y-73166666D02*
X199885771Y-73071428D01*
X199885771Y-73071428D02*
X199981009Y-73023809D01*
X199981009Y-73023809D02*
X200504819Y-73023809D01*
X199981009Y-73023809D02*
X199885771Y-72976190D01*
X199885771Y-72976190D02*
X199838152Y-72880952D01*
X199838152Y-72880952D02*
X199838152Y-72738095D01*
X199838152Y-72738095D02*
X199885771Y-72642856D01*
X199885771Y-72642856D02*
X199981009Y-72595237D01*
X199981009Y-72595237D02*
X200504819Y-72595237D01*
X187500000Y-20000000D02*
X201786420Y-20000000D01*
X187500000Y-131000000D02*
X201786420Y-131000000D01*
X201200000Y-20000000D02*
X201200000Y-131000000D01*
X201200000Y-20000000D02*
X201200000Y-131000000D01*
X201200000Y-20000000D02*
X201786421Y-21126504D01*
X201200000Y-20000000D02*
X200613579Y-21126504D01*
X201200000Y-131000000D02*
X200613579Y-129873496D01*
X201200000Y-131000000D02*
X201786421Y-129873496D01*
X102619047Y-144354819D02*
X102047619Y-144354819D01*
X102333333Y-144354819D02*
X102333333Y-143354819D01*
X102333333Y-143354819D02*
X102238095Y-143497676D01*
X102238095Y-143497676D02*
X102142857Y-143592914D01*
X102142857Y-143592914D02*
X102047619Y-143640533D01*
X102952381Y-143354819D02*
X103619047Y-143354819D01*
X103619047Y-143354819D02*
X103190476Y-144354819D01*
X104428571Y-143688152D02*
X104428571Y-144354819D01*
X104190476Y-143307200D02*
X103952381Y-144021485D01*
X103952381Y-144021485D02*
X104571428Y-144021485D01*
X105714286Y-144354819D02*
X105714286Y-143688152D01*
X105714286Y-143783390D02*
X105761905Y-143735771D01*
X105761905Y-143735771D02*
X105857143Y-143688152D01*
X105857143Y-143688152D02*
X106000000Y-143688152D01*
X106000000Y-143688152D02*
X106095238Y-143735771D01*
X106095238Y-143735771D02*
X106142857Y-143831009D01*
X106142857Y-143831009D02*
X106142857Y-144354819D01*
X106142857Y-143831009D02*
X106190476Y-143735771D01*
X106190476Y-143735771D02*
X106285714Y-143688152D01*
X106285714Y-143688152D02*
X106428571Y-143688152D01*
X106428571Y-143688152D02*
X106523810Y-143735771D01*
X106523810Y-143735771D02*
X106571429Y-143831009D01*
X106571429Y-143831009D02*
X106571429Y-144354819D01*
X107047619Y-144354819D02*
X107047619Y-143688152D01*
X107047619Y-143783390D02*
X107095238Y-143735771D01*
X107095238Y-143735771D02*
X107190476Y-143688152D01*
X107190476Y-143688152D02*
X107333333Y-143688152D01*
X107333333Y-143688152D02*
X107428571Y-143735771D01*
X107428571Y-143735771D02*
X107476190Y-143831009D01*
X107476190Y-143831009D02*
X107476190Y-144354819D01*
X107476190Y-143831009D02*
X107523809Y-143735771D01*
X107523809Y-143735771D02*
X107619047Y-143688152D01*
X107619047Y-143688152D02*
X107761904Y-143688152D01*
X107761904Y-143688152D02*
X107857143Y-143735771D01*
X107857143Y-143735771D02*
X107904762Y-143831009D01*
X107904762Y-143831009D02*
X107904762Y-144354819D01*
X18000000Y-125500000D02*
X18000000Y-145636420D01*
X192000000Y-125500000D02*
X192000000Y-145636420D01*
X18000000Y-145050000D02*
X192000000Y-145050000D01*
X18000000Y-145050000D02*
X192000000Y-145050000D01*
X18000000Y-145050000D02*
X19126504Y-144463579D01*
X18000000Y-145050000D02*
X19126504Y-145636421D01*
X192000000Y-145050000D02*
X190873496Y-145636421D01*
X192000000Y-145050000D02*
X190873496Y-144463579D01*
X102626346Y-13852932D02*
X102054918Y-13852478D01*
X102340632Y-13852705D02*
X102341425Y-12852705D01*
X102341425Y-12852705D02*
X102246074Y-12995487D01*
X102246074Y-12995487D02*
X102150760Y-13090649D01*
X102150760Y-13090649D02*
X102055485Y-13138193D01*
X103008016Y-12948472D02*
X103055673Y-12900891D01*
X103055673Y-12900891D02*
X103150949Y-12853348D01*
X103150949Y-12853348D02*
X103389044Y-12853537D01*
X103389044Y-12853537D02*
X103484245Y-12901231D01*
X103484245Y-12901231D02*
X103531826Y-12948888D01*
X103531826Y-12948888D02*
X103579369Y-13044164D01*
X103579369Y-13044164D02*
X103579294Y-13139402D01*
X103579294Y-13139402D02*
X103531561Y-13282221D01*
X103531561Y-13282221D02*
X102959679Y-13853196D01*
X102959679Y-13853196D02*
X103578727Y-13853688D01*
X104436663Y-12854368D02*
X104246187Y-12854217D01*
X104246187Y-12854217D02*
X104150911Y-12901760D01*
X104150911Y-12901760D02*
X104103254Y-12949342D01*
X104103254Y-12949342D02*
X104007903Y-13092123D01*
X104007903Y-13092123D02*
X103960133Y-13282562D01*
X103960133Y-13282562D02*
X103959830Y-13663514D01*
X103959830Y-13663514D02*
X104007374Y-13758790D01*
X104007374Y-13758790D02*
X104054955Y-13806447D01*
X104054955Y-13806447D02*
X104150155Y-13854141D01*
X104150155Y-13854141D02*
X104340631Y-13854292D01*
X104340631Y-13854292D02*
X104435907Y-13806749D01*
X104435907Y-13806749D02*
X104483564Y-13759168D01*
X104483564Y-13759168D02*
X104531259Y-13663967D01*
X104531259Y-13663967D02*
X104531448Y-13425872D01*
X104531448Y-13425872D02*
X104483904Y-13330596D01*
X104483904Y-13330596D02*
X104436323Y-13282939D01*
X104436323Y-13282939D02*
X104341123Y-13235245D01*
X104341123Y-13235245D02*
X104150646Y-13235094D01*
X104150646Y-13235094D02*
X104055371Y-13282637D01*
X104055371Y-13282637D02*
X104007714Y-13330218D01*
X104007714Y-13330218D02*
X103960019Y-13425419D01*
X105721584Y-13855388D02*
X105722113Y-13188722D01*
X105722037Y-13283960D02*
X105769694Y-13236379D01*
X105769694Y-13236379D02*
X105864970Y-13188835D01*
X105864970Y-13188835D02*
X106007827Y-13188949D01*
X106007827Y-13188949D02*
X106103027Y-13236643D01*
X106103027Y-13236643D02*
X106150571Y-13331919D01*
X106150571Y-13331919D02*
X106150155Y-13855728D01*
X106150571Y-13331919D02*
X106198265Y-13236719D01*
X106198265Y-13236719D02*
X106293541Y-13189175D01*
X106293541Y-13189175D02*
X106436398Y-13189289D01*
X106436398Y-13189289D02*
X106531598Y-13236983D01*
X106531598Y-13236983D02*
X106579142Y-13332259D01*
X106579142Y-13332259D02*
X106578726Y-13856069D01*
X107054916Y-13856446D02*
X107055445Y-13189780D01*
X107055370Y-13285018D02*
X107103026Y-13237437D01*
X107103026Y-13237437D02*
X107198302Y-13189893D01*
X107198302Y-13189893D02*
X107341159Y-13190007D01*
X107341159Y-13190007D02*
X107436360Y-13237701D01*
X107436360Y-13237701D02*
X107483903Y-13332977D01*
X107483903Y-13332977D02*
X107483487Y-13856787D01*
X107483903Y-13332977D02*
X107531598Y-13237777D01*
X107531598Y-13237777D02*
X107626874Y-13190234D01*
X107626874Y-13190234D02*
X107769731Y-13190347D01*
X107769731Y-13190347D02*
X107864931Y-13238042D01*
X107864931Y-13238042D02*
X107912474Y-13333317D01*
X107912474Y-13333317D02*
X107912059Y-13857127D01*
X42000397Y-22500000D02*
X42007212Y-13913583D01*
X168000397Y-22600000D02*
X168007212Y-14013583D01*
X42006746Y-14500003D02*
X168006746Y-14600003D01*
X42006746Y-14500003D02*
X168006746Y-14600003D01*
X42006746Y-14500003D02*
X43133715Y-13914476D01*
X42006746Y-14500003D02*
X43132784Y-15087318D01*
X168006746Y-14600003D02*
X166879777Y-15185530D01*
X168006746Y-14600003D02*
X166880708Y-14012688D01*
X198304819Y-42904761D02*
X198304819Y-43476189D01*
X198304819Y-43190475D02*
X197304819Y-43190475D01*
X197304819Y-43190475D02*
X197447676Y-43285713D01*
X197447676Y-43285713D02*
X197542914Y-43380951D01*
X197542914Y-43380951D02*
X197590533Y-43476189D01*
X197638152Y-42047618D02*
X198304819Y-42047618D01*
X197257200Y-42285713D02*
X197971485Y-42523808D01*
X197971485Y-42523808D02*
X197971485Y-41904761D01*
X198304819Y-40761903D02*
X197638152Y-40761903D01*
X197733390Y-40761903D02*
X197685771Y-40714284D01*
X197685771Y-40714284D02*
X197638152Y-40619046D01*
X197638152Y-40619046D02*
X197638152Y-40476189D01*
X197638152Y-40476189D02*
X197685771Y-40380951D01*
X197685771Y-40380951D02*
X197781009Y-40333332D01*
X197781009Y-40333332D02*
X198304819Y-40333332D01*
X197781009Y-40333332D02*
X197685771Y-40285713D01*
X197685771Y-40285713D02*
X197638152Y-40190475D01*
X197638152Y-40190475D02*
X197638152Y-40047618D01*
X197638152Y-40047618D02*
X197685771Y-39952379D01*
X197685771Y-39952379D02*
X197781009Y-39904760D01*
X197781009Y-39904760D02*
X198304819Y-39904760D01*
X198304819Y-39428570D02*
X197638152Y-39428570D01*
X197733390Y-39428570D02*
X197685771Y-39380951D01*
X197685771Y-39380951D02*
X197638152Y-39285713D01*
X197638152Y-39285713D02*
X197638152Y-39142856D01*
X197638152Y-39142856D02*
X197685771Y-39047618D01*
X197685771Y-39047618D02*
X197781009Y-38999999D01*
X197781009Y-38999999D02*
X198304819Y-38999999D01*
X197781009Y-38999999D02*
X197685771Y-38952380D01*
X197685771Y-38952380D02*
X197638152Y-38857142D01*
X197638152Y-38857142D02*
X197638152Y-38714285D01*
X197638152Y-38714285D02*
X197685771Y-38619046D01*
X197685771Y-38619046D02*
X197781009Y-38571427D01*
X197781009Y-38571427D02*
X198304819Y-38571427D01*
X143000000Y-48000000D02*
X199586420Y-48000000D01*
X143000000Y-34000000D02*
X199586420Y-34000000D01*
X199000000Y-48000000D02*
X199000000Y-34000000D01*
X199000000Y-48000000D02*
X199000000Y-34000000D01*
X199000000Y-48000000D02*
X198413579Y-46873496D01*
X199000000Y-48000000D02*
X199586421Y-46873496D01*
X199000000Y-34000000D02*
X199586421Y-35126504D01*
X199000000Y-34000000D02*
X198413579Y-35126504D01*
X123404761Y-20395180D02*
X123404761Y-21395180D01*
X123404761Y-21395180D02*
X123023809Y-21395180D01*
X123023809Y-21395180D02*
X122928571Y-21347561D01*
X122928571Y-21347561D02*
X122880952Y-21299942D01*
X122880952Y-21299942D02*
X122833333Y-21204704D01*
X122833333Y-21204704D02*
X122833333Y-21061847D01*
X122833333Y-21061847D02*
X122880952Y-20966609D01*
X122880952Y-20966609D02*
X122928571Y-20918990D01*
X122928571Y-20918990D02*
X123023809Y-20871371D01*
X123023809Y-20871371D02*
X123404761Y-20871371D01*
X121833333Y-20490419D02*
X121880952Y-20442800D01*
X121880952Y-20442800D02*
X122023809Y-20395180D01*
X122023809Y-20395180D02*
X122119047Y-20395180D01*
X122119047Y-20395180D02*
X122261904Y-20442800D01*
X122261904Y-20442800D02*
X122357142Y-20538038D01*
X122357142Y-20538038D02*
X122404761Y-20633276D01*
X122404761Y-20633276D02*
X122452380Y-20823752D01*
X122452380Y-20823752D02*
X122452380Y-20966609D01*
X122452380Y-20966609D02*
X122404761Y-21157085D01*
X122404761Y-21157085D02*
X122357142Y-21252323D01*
X122357142Y-21252323D02*
X122261904Y-21347561D01*
X122261904Y-21347561D02*
X122119047Y-21395180D01*
X122119047Y-21395180D02*
X122023809Y-21395180D01*
X122023809Y-21395180D02*
X121880952Y-21347561D01*
X121880952Y-21347561D02*
X121833333Y-21299942D01*
X121071428Y-20918990D02*
X120928571Y-20871371D01*
X120928571Y-20871371D02*
X120880952Y-20823752D01*
X120880952Y-20823752D02*
X120833333Y-20728514D01*
X120833333Y-20728514D02*
X120833333Y-20585657D01*
X120833333Y-20585657D02*
X120880952Y-20490419D01*
X120880952Y-20490419D02*
X120928571Y-20442800D01*
X120928571Y-20442800D02*
X121023809Y-20395180D01*
X121023809Y-20395180D02*
X121404761Y-20395180D01*
X121404761Y-20395180D02*
X121404761Y-21395180D01*
X121404761Y-21395180D02*
X121071428Y-21395180D01*
X121071428Y-21395180D02*
X120976190Y-21347561D01*
X120976190Y-21347561D02*
X120928571Y-21299942D01*
X120928571Y-21299942D02*
X120880952Y-21204704D01*
X120880952Y-21204704D02*
X120880952Y-21109466D01*
X120880952Y-21109466D02*
X120928571Y-21014228D01*
X120928571Y-21014228D02*
X120976190Y-20966609D01*
X120976190Y-20966609D02*
X121071428Y-20918990D01*
X121071428Y-20918990D02*
X121404761Y-20918990D01*
X119261904Y-20442800D02*
X119357142Y-20395180D01*
X119357142Y-20395180D02*
X119547618Y-20395180D01*
X119547618Y-20395180D02*
X119642856Y-20442800D01*
X119642856Y-20442800D02*
X119690475Y-20538038D01*
X119690475Y-20538038D02*
X119690475Y-20918990D01*
X119690475Y-20918990D02*
X119642856Y-21014228D01*
X119642856Y-21014228D02*
X119547618Y-21061847D01*
X119547618Y-21061847D02*
X119357142Y-21061847D01*
X119357142Y-21061847D02*
X119261904Y-21014228D01*
X119261904Y-21014228D02*
X119214285Y-20918990D01*
X119214285Y-20918990D02*
X119214285Y-20823752D01*
X119214285Y-20823752D02*
X119690475Y-20728514D01*
X118357142Y-20395180D02*
X118357142Y-21395180D01*
X118357142Y-20442800D02*
X118452380Y-20395180D01*
X118452380Y-20395180D02*
X118642856Y-20395180D01*
X118642856Y-20395180D02*
X118738094Y-20442800D01*
X118738094Y-20442800D02*
X118785713Y-20490419D01*
X118785713Y-20490419D02*
X118833332Y-20585657D01*
X118833332Y-20585657D02*
X118833332Y-20871371D01*
X118833332Y-20871371D02*
X118785713Y-20966609D01*
X118785713Y-20966609D02*
X118738094Y-21014228D01*
X118738094Y-21014228D02*
X118642856Y-21061847D01*
X118642856Y-21061847D02*
X118452380Y-21061847D01*
X118452380Y-21061847D02*
X118357142Y-21014228D01*
X117452380Y-21061847D02*
X117452380Y-20252323D01*
X117452380Y-20252323D02*
X117499999Y-20157085D01*
X117499999Y-20157085D02*
X117547618Y-20109466D01*
X117547618Y-20109466D02*
X117642856Y-20061847D01*
X117642856Y-20061847D02*
X117785713Y-20061847D01*
X117785713Y-20061847D02*
X117880951Y-20109466D01*
X117452380Y-20442800D02*
X117547618Y-20395180D01*
X117547618Y-20395180D02*
X117738094Y-20395180D01*
X117738094Y-20395180D02*
X117833332Y-20442800D01*
X117833332Y-20442800D02*
X117880951Y-20490419D01*
X117880951Y-20490419D02*
X117928570Y-20585657D01*
X117928570Y-20585657D02*
X117928570Y-20871371D01*
X117928570Y-20871371D02*
X117880951Y-20966609D01*
X117880951Y-20966609D02*
X117833332Y-21014228D01*
X117833332Y-21014228D02*
X117738094Y-21061847D01*
X117738094Y-21061847D02*
X117547618Y-21061847D01*
X117547618Y-21061847D02*
X117452380Y-21014228D01*
X116595237Y-20442800D02*
X116690475Y-20395180D01*
X116690475Y-20395180D02*
X116880951Y-20395180D01*
X116880951Y-20395180D02*
X116976189Y-20442800D01*
X116976189Y-20442800D02*
X117023808Y-20538038D01*
X117023808Y-20538038D02*
X117023808Y-20918990D01*
X117023808Y-20918990D02*
X116976189Y-21014228D01*
X116976189Y-21014228D02*
X116880951Y-21061847D01*
X116880951Y-21061847D02*
X116690475Y-21061847D01*
X116690475Y-21061847D02*
X116595237Y-21014228D01*
X116595237Y-21014228D02*
X116547618Y-20918990D01*
X116547618Y-20918990D02*
X116547618Y-20823752D01*
X116547618Y-20823752D02*
X117023808Y-20728514D01*
X93399261Y-20395180D02*
X93399261Y-21395180D01*
X93399261Y-21395180D02*
X93018309Y-21395180D01*
X93018309Y-21395180D02*
X92923071Y-21347561D01*
X92923071Y-21347561D02*
X92875452Y-21299942D01*
X92875452Y-21299942D02*
X92827833Y-21204704D01*
X92827833Y-21204704D02*
X92827833Y-21061847D01*
X92827833Y-21061847D02*
X92875452Y-20966609D01*
X92875452Y-20966609D02*
X92923071Y-20918990D01*
X92923071Y-20918990D02*
X93018309Y-20871371D01*
X93018309Y-20871371D02*
X93399261Y-20871371D01*
X91827833Y-20490419D02*
X91875452Y-20442800D01*
X91875452Y-20442800D02*
X92018309Y-20395180D01*
X92018309Y-20395180D02*
X92113547Y-20395180D01*
X92113547Y-20395180D02*
X92256404Y-20442800D01*
X92256404Y-20442800D02*
X92351642Y-20538038D01*
X92351642Y-20538038D02*
X92399261Y-20633276D01*
X92399261Y-20633276D02*
X92446880Y-20823752D01*
X92446880Y-20823752D02*
X92446880Y-20966609D01*
X92446880Y-20966609D02*
X92399261Y-21157085D01*
X92399261Y-21157085D02*
X92351642Y-21252323D01*
X92351642Y-21252323D02*
X92256404Y-21347561D01*
X92256404Y-21347561D02*
X92113547Y-21395180D01*
X92113547Y-21395180D02*
X92018309Y-21395180D01*
X92018309Y-21395180D02*
X91875452Y-21347561D01*
X91875452Y-21347561D02*
X91827833Y-21299942D01*
X91065928Y-20918990D02*
X90923071Y-20871371D01*
X90923071Y-20871371D02*
X90875452Y-20823752D01*
X90875452Y-20823752D02*
X90827833Y-20728514D01*
X90827833Y-20728514D02*
X90827833Y-20585657D01*
X90827833Y-20585657D02*
X90875452Y-20490419D01*
X90875452Y-20490419D02*
X90923071Y-20442800D01*
X90923071Y-20442800D02*
X91018309Y-20395180D01*
X91018309Y-20395180D02*
X91399261Y-20395180D01*
X91399261Y-20395180D02*
X91399261Y-21395180D01*
X91399261Y-21395180D02*
X91065928Y-21395180D01*
X91065928Y-21395180D02*
X90970690Y-21347561D01*
X90970690Y-21347561D02*
X90923071Y-21299942D01*
X90923071Y-21299942D02*
X90875452Y-21204704D01*
X90875452Y-21204704D02*
X90875452Y-21109466D01*
X90875452Y-21109466D02*
X90923071Y-21014228D01*
X90923071Y-21014228D02*
X90970690Y-20966609D01*
X90970690Y-20966609D02*
X91065928Y-20918990D01*
X91065928Y-20918990D02*
X91399261Y-20918990D01*
X89256404Y-20442800D02*
X89351642Y-20395180D01*
X89351642Y-20395180D02*
X89542118Y-20395180D01*
X89542118Y-20395180D02*
X89637356Y-20442800D01*
X89637356Y-20442800D02*
X89684975Y-20538038D01*
X89684975Y-20538038D02*
X89684975Y-20918990D01*
X89684975Y-20918990D02*
X89637356Y-21014228D01*
X89637356Y-21014228D02*
X89542118Y-21061847D01*
X89542118Y-21061847D02*
X89351642Y-21061847D01*
X89351642Y-21061847D02*
X89256404Y-21014228D01*
X89256404Y-21014228D02*
X89208785Y-20918990D01*
X89208785Y-20918990D02*
X89208785Y-20823752D01*
X89208785Y-20823752D02*
X89684975Y-20728514D01*
X88351642Y-20395180D02*
X88351642Y-21395180D01*
X88351642Y-20442800D02*
X88446880Y-20395180D01*
X88446880Y-20395180D02*
X88637356Y-20395180D01*
X88637356Y-20395180D02*
X88732594Y-20442800D01*
X88732594Y-20442800D02*
X88780213Y-20490419D01*
X88780213Y-20490419D02*
X88827832Y-20585657D01*
X88827832Y-20585657D02*
X88827832Y-20871371D01*
X88827832Y-20871371D02*
X88780213Y-20966609D01*
X88780213Y-20966609D02*
X88732594Y-21014228D01*
X88732594Y-21014228D02*
X88637356Y-21061847D01*
X88637356Y-21061847D02*
X88446880Y-21061847D01*
X88446880Y-21061847D02*
X88351642Y-21014228D01*
X87446880Y-21061847D02*
X87446880Y-20252323D01*
X87446880Y-20252323D02*
X87494499Y-20157085D01*
X87494499Y-20157085D02*
X87542118Y-20109466D01*
X87542118Y-20109466D02*
X87637356Y-20061847D01*
X87637356Y-20061847D02*
X87780213Y-20061847D01*
X87780213Y-20061847D02*
X87875451Y-20109466D01*
X87446880Y-20442800D02*
X87542118Y-20395180D01*
X87542118Y-20395180D02*
X87732594Y-20395180D01*
X87732594Y-20395180D02*
X87827832Y-20442800D01*
X87827832Y-20442800D02*
X87875451Y-20490419D01*
X87875451Y-20490419D02*
X87923070Y-20585657D01*
X87923070Y-20585657D02*
X87923070Y-20871371D01*
X87923070Y-20871371D02*
X87875451Y-20966609D01*
X87875451Y-20966609D02*
X87827832Y-21014228D01*
X87827832Y-21014228D02*
X87732594Y-21061847D01*
X87732594Y-21061847D02*
X87542118Y-21061847D01*
X87542118Y-21061847D02*
X87446880Y-21014228D01*
X86589737Y-20442800D02*
X86684975Y-20395180D01*
X86684975Y-20395180D02*
X86875451Y-20395180D01*
X86875451Y-20395180D02*
X86970689Y-20442800D01*
X86970689Y-20442800D02*
X87018308Y-20538038D01*
X87018308Y-20538038D02*
X87018308Y-20918990D01*
X87018308Y-20918990D02*
X86970689Y-21014228D01*
X86970689Y-21014228D02*
X86875451Y-21061847D01*
X86875451Y-21061847D02*
X86684975Y-21061847D01*
X86684975Y-21061847D02*
X86589737Y-21014228D01*
X86589737Y-21014228D02*
X86542118Y-20918990D01*
X86542118Y-20918990D02*
X86542118Y-20823752D01*
X86542118Y-20823752D02*
X87018308Y-20728514D01*
D12*
%TO.C,J27*%
X119234000Y-92505600D02*
G75*
G03*
X119234000Y-92505600I-254000J0D01*
G01*
D11*
X168218096Y-53960419D02*
X168837143Y-53960419D01*
X168837143Y-53960419D02*
X168503810Y-54341371D01*
X168503810Y-54341371D02*
X168646667Y-54341371D01*
X168646667Y-54341371D02*
X168741905Y-54388990D01*
X168741905Y-54388990D02*
X168789524Y-54436609D01*
X168789524Y-54436609D02*
X168837143Y-54531847D01*
X168837143Y-54531847D02*
X168837143Y-54769942D01*
X168837143Y-54769942D02*
X168789524Y-54865180D01*
X168789524Y-54865180D02*
X168741905Y-54912800D01*
X168741905Y-54912800D02*
X168646667Y-54960419D01*
X168646667Y-54960419D02*
X168360953Y-54960419D01*
X168360953Y-54960419D02*
X168265715Y-54912800D01*
X168265715Y-54912800D02*
X168218096Y-54865180D01*
X169265715Y-54865180D02*
X169313334Y-54912800D01*
X169313334Y-54912800D02*
X169265715Y-54960419D01*
X169265715Y-54960419D02*
X169218096Y-54912800D01*
X169218096Y-54912800D02*
X169265715Y-54865180D01*
X169265715Y-54865180D02*
X169265715Y-54960419D01*
X170218095Y-53960419D02*
X169741905Y-53960419D01*
X169741905Y-53960419D02*
X169694286Y-54436609D01*
X169694286Y-54436609D02*
X169741905Y-54388990D01*
X169741905Y-54388990D02*
X169837143Y-54341371D01*
X169837143Y-54341371D02*
X170075238Y-54341371D01*
X170075238Y-54341371D02*
X170170476Y-54388990D01*
X170170476Y-54388990D02*
X170218095Y-54436609D01*
X170218095Y-54436609D02*
X170265714Y-54531847D01*
X170265714Y-54531847D02*
X170265714Y-54769942D01*
X170265714Y-54769942D02*
X170218095Y-54865180D01*
X170218095Y-54865180D02*
X170170476Y-54912800D01*
X170170476Y-54912800D02*
X170075238Y-54960419D01*
X170075238Y-54960419D02*
X169837143Y-54960419D01*
X169837143Y-54960419D02*
X169741905Y-54912800D01*
X169741905Y-54912800D02*
X169694286Y-54865180D01*
X171456191Y-54960419D02*
X171456191Y-54293752D01*
X171456191Y-54388990D02*
X171503810Y-54341371D01*
X171503810Y-54341371D02*
X171599048Y-54293752D01*
X171599048Y-54293752D02*
X171741905Y-54293752D01*
X171741905Y-54293752D02*
X171837143Y-54341371D01*
X171837143Y-54341371D02*
X171884762Y-54436609D01*
X171884762Y-54436609D02*
X171884762Y-54960419D01*
X171884762Y-54436609D02*
X171932381Y-54341371D01*
X171932381Y-54341371D02*
X172027619Y-54293752D01*
X172027619Y-54293752D02*
X172170476Y-54293752D01*
X172170476Y-54293752D02*
X172265715Y-54341371D01*
X172265715Y-54341371D02*
X172313334Y-54436609D01*
X172313334Y-54436609D02*
X172313334Y-54960419D01*
X172789524Y-54960419D02*
X172789524Y-54293752D01*
X172789524Y-54388990D02*
X172837143Y-54341371D01*
X172837143Y-54341371D02*
X172932381Y-54293752D01*
X172932381Y-54293752D02*
X173075238Y-54293752D01*
X173075238Y-54293752D02*
X173170476Y-54341371D01*
X173170476Y-54341371D02*
X173218095Y-54436609D01*
X173218095Y-54436609D02*
X173218095Y-54960419D01*
X173218095Y-54436609D02*
X173265714Y-54341371D01*
X173265714Y-54341371D02*
X173360952Y-54293752D01*
X173360952Y-54293752D02*
X173503809Y-54293752D01*
X173503809Y-54293752D02*
X173599048Y-54341371D01*
X173599048Y-54341371D02*
X173646667Y-54436609D01*
X173646667Y-54436609D02*
X173646667Y-54960419D01*
D12*
X167980000Y-63005600D02*
X167980000Y-55919180D01*
X171480000Y-63005600D02*
X171480000Y-55919180D01*
X167980000Y-56505600D02*
X171480000Y-56505600D01*
X167980000Y-56505600D02*
X171480000Y-56505600D01*
X167980000Y-56505600D02*
X169106504Y-55919179D01*
X167980000Y-56505600D02*
X169106504Y-57092021D01*
X171480000Y-56505600D02*
X170353496Y-57092021D01*
X171480000Y-56505600D02*
X170353496Y-55919179D01*
D11*
X141480000Y-55143752D02*
X141480000Y-55810419D01*
X141241905Y-54762800D02*
X141003810Y-55477085D01*
X141003810Y-55477085D02*
X141622857Y-55477085D01*
X142051429Y-55810419D02*
X142241905Y-55810419D01*
X142241905Y-55810419D02*
X142337143Y-55762800D01*
X142337143Y-55762800D02*
X142384762Y-55715180D01*
X142384762Y-55715180D02*
X142480000Y-55572323D01*
X142480000Y-55572323D02*
X142527619Y-55381847D01*
X142527619Y-55381847D02*
X142527619Y-55000895D01*
X142527619Y-55000895D02*
X142480000Y-54905657D01*
X142480000Y-54905657D02*
X142432381Y-54858038D01*
X142432381Y-54858038D02*
X142337143Y-54810419D01*
X142337143Y-54810419D02*
X142146667Y-54810419D01*
X142146667Y-54810419D02*
X142051429Y-54858038D01*
X142051429Y-54858038D02*
X142003810Y-54905657D01*
X142003810Y-54905657D02*
X141956191Y-55000895D01*
X141956191Y-55000895D02*
X141956191Y-55238990D01*
X141956191Y-55238990D02*
X142003810Y-55334228D01*
X142003810Y-55334228D02*
X142051429Y-55381847D01*
X142051429Y-55381847D02*
X142146667Y-55429466D01*
X142146667Y-55429466D02*
X142337143Y-55429466D01*
X142337143Y-55429466D02*
X142432381Y-55381847D01*
X142432381Y-55381847D02*
X142480000Y-55334228D01*
X142480000Y-55334228D02*
X142527619Y-55238990D01*
X143718096Y-55810419D02*
X143718096Y-55143752D01*
X143718096Y-55238990D02*
X143765715Y-55191371D01*
X143765715Y-55191371D02*
X143860953Y-55143752D01*
X143860953Y-55143752D02*
X144003810Y-55143752D01*
X144003810Y-55143752D02*
X144099048Y-55191371D01*
X144099048Y-55191371D02*
X144146667Y-55286609D01*
X144146667Y-55286609D02*
X144146667Y-55810419D01*
X144146667Y-55286609D02*
X144194286Y-55191371D01*
X144194286Y-55191371D02*
X144289524Y-55143752D01*
X144289524Y-55143752D02*
X144432381Y-55143752D01*
X144432381Y-55143752D02*
X144527620Y-55191371D01*
X144527620Y-55191371D02*
X144575239Y-55286609D01*
X144575239Y-55286609D02*
X144575239Y-55810419D01*
X145051429Y-55810419D02*
X145051429Y-55143752D01*
X145051429Y-55238990D02*
X145099048Y-55191371D01*
X145099048Y-55191371D02*
X145194286Y-55143752D01*
X145194286Y-55143752D02*
X145337143Y-55143752D01*
X145337143Y-55143752D02*
X145432381Y-55191371D01*
X145432381Y-55191371D02*
X145480000Y-55286609D01*
X145480000Y-55286609D02*
X145480000Y-55810419D01*
X145480000Y-55286609D02*
X145527619Y-55191371D01*
X145527619Y-55191371D02*
X145622857Y-55143752D01*
X145622857Y-55143752D02*
X145765714Y-55143752D01*
X145765714Y-55143752D02*
X145860953Y-55191371D01*
X145860953Y-55191371D02*
X145908572Y-55286609D01*
X145908572Y-55286609D02*
X145908572Y-55810419D01*
D12*
X118980000Y-63005600D02*
X118980000Y-55919180D01*
X167980000Y-63005600D02*
X167980000Y-55919180D01*
X118980000Y-56505600D02*
X167980000Y-56505600D01*
X118980000Y-56505600D02*
X167980000Y-56505600D01*
X118980000Y-56505600D02*
X120106504Y-55919179D01*
X118980000Y-56505600D02*
X120106504Y-57092021D01*
X167980000Y-56505600D02*
X166853496Y-57092021D01*
X167980000Y-56505600D02*
X166853496Y-55919179D01*
D11*
X105784819Y-94457980D02*
X105784819Y-94934170D01*
X105784819Y-94934170D02*
X106261009Y-94981789D01*
X106261009Y-94981789D02*
X106213390Y-94934170D01*
X106213390Y-94934170D02*
X106165771Y-94838932D01*
X106165771Y-94838932D02*
X106165771Y-94600837D01*
X106165771Y-94600837D02*
X106213390Y-94505599D01*
X106213390Y-94505599D02*
X106261009Y-94457980D01*
X106261009Y-94457980D02*
X106356247Y-94410361D01*
X106356247Y-94410361D02*
X106594342Y-94410361D01*
X106594342Y-94410361D02*
X106689580Y-94457980D01*
X106689580Y-94457980D02*
X106737200Y-94505599D01*
X106737200Y-94505599D02*
X106784819Y-94600837D01*
X106784819Y-94600837D02*
X106784819Y-94838932D01*
X106784819Y-94838932D02*
X106737200Y-94934170D01*
X106737200Y-94934170D02*
X106689580Y-94981789D01*
X106213390Y-93838932D02*
X106165771Y-93934170D01*
X106165771Y-93934170D02*
X106118152Y-93981789D01*
X106118152Y-93981789D02*
X106022914Y-94029408D01*
X106022914Y-94029408D02*
X105975295Y-94029408D01*
X105975295Y-94029408D02*
X105880057Y-93981789D01*
X105880057Y-93981789D02*
X105832438Y-93934170D01*
X105832438Y-93934170D02*
X105784819Y-93838932D01*
X105784819Y-93838932D02*
X105784819Y-93648456D01*
X105784819Y-93648456D02*
X105832438Y-93553218D01*
X105832438Y-93553218D02*
X105880057Y-93505599D01*
X105880057Y-93505599D02*
X105975295Y-93457980D01*
X105975295Y-93457980D02*
X106022914Y-93457980D01*
X106022914Y-93457980D02*
X106118152Y-93505599D01*
X106118152Y-93505599D02*
X106165771Y-93553218D01*
X106165771Y-93553218D02*
X106213390Y-93648456D01*
X106213390Y-93648456D02*
X106213390Y-93838932D01*
X106213390Y-93838932D02*
X106261009Y-93934170D01*
X106261009Y-93934170D02*
X106308628Y-93981789D01*
X106308628Y-93981789D02*
X106403866Y-94029408D01*
X106403866Y-94029408D02*
X106594342Y-94029408D01*
X106594342Y-94029408D02*
X106689580Y-93981789D01*
X106689580Y-93981789D02*
X106737200Y-93934170D01*
X106737200Y-93934170D02*
X106784819Y-93838932D01*
X106784819Y-93838932D02*
X106784819Y-93648456D01*
X106784819Y-93648456D02*
X106737200Y-93553218D01*
X106737200Y-93553218D02*
X106689580Y-93505599D01*
X106689580Y-93505599D02*
X106594342Y-93457980D01*
X106594342Y-93457980D02*
X106403866Y-93457980D01*
X106403866Y-93457980D02*
X106308628Y-93505599D01*
X106308628Y-93505599D02*
X106261009Y-93553218D01*
X106261009Y-93553218D02*
X106213390Y-93648456D01*
X106784819Y-92267503D02*
X106118152Y-92267503D01*
X106213390Y-92267503D02*
X106165771Y-92219884D01*
X106165771Y-92219884D02*
X106118152Y-92124646D01*
X106118152Y-92124646D02*
X106118152Y-91981789D01*
X106118152Y-91981789D02*
X106165771Y-91886551D01*
X106165771Y-91886551D02*
X106261009Y-91838932D01*
X106261009Y-91838932D02*
X106784819Y-91838932D01*
X106261009Y-91838932D02*
X106165771Y-91791313D01*
X106165771Y-91791313D02*
X106118152Y-91696075D01*
X106118152Y-91696075D02*
X106118152Y-91553218D01*
X106118152Y-91553218D02*
X106165771Y-91457979D01*
X106165771Y-91457979D02*
X106261009Y-91410360D01*
X106261009Y-91410360D02*
X106784819Y-91410360D01*
X106784819Y-90934170D02*
X106118152Y-90934170D01*
X106213390Y-90934170D02*
X106165771Y-90886551D01*
X106165771Y-90886551D02*
X106118152Y-90791313D01*
X106118152Y-90791313D02*
X106118152Y-90648456D01*
X106118152Y-90648456D02*
X106165771Y-90553218D01*
X106165771Y-90553218D02*
X106261009Y-90505599D01*
X106261009Y-90505599D02*
X106784819Y-90505599D01*
X106261009Y-90505599D02*
X106165771Y-90457980D01*
X106165771Y-90457980D02*
X106118152Y-90362742D01*
X106118152Y-90362742D02*
X106118152Y-90219885D01*
X106118152Y-90219885D02*
X106165771Y-90124646D01*
X106165771Y-90124646D02*
X106261009Y-90077027D01*
X106261009Y-90077027D02*
X106784819Y-90077027D01*
D12*
X118480000Y-63505600D02*
X106893580Y-63505600D01*
X118480000Y-121505600D02*
X106893580Y-121505600D01*
X107480000Y-63505600D02*
X107480000Y-121505600D01*
X107480000Y-63505600D02*
X107480000Y-121505600D01*
X107480000Y-63505600D02*
X108066421Y-64632104D01*
X107480000Y-63505600D02*
X106893579Y-64632104D01*
X107480000Y-121505600D02*
X106893579Y-120379096D01*
X107480000Y-121505600D02*
X108066421Y-120379096D01*
D11*
X109880057Y-80481789D02*
X109832438Y-80434170D01*
X109832438Y-80434170D02*
X109784819Y-80338932D01*
X109784819Y-80338932D02*
X109784819Y-80100837D01*
X109784819Y-80100837D02*
X109832438Y-80005599D01*
X109832438Y-80005599D02*
X109880057Y-79957980D01*
X109880057Y-79957980D02*
X109975295Y-79910361D01*
X109975295Y-79910361D02*
X110070533Y-79910361D01*
X110070533Y-79910361D02*
X110213390Y-79957980D01*
X110213390Y-79957980D02*
X110784819Y-80529408D01*
X110784819Y-80529408D02*
X110784819Y-79910361D01*
X110784819Y-79434170D02*
X110784819Y-79243694D01*
X110784819Y-79243694D02*
X110737200Y-79148456D01*
X110737200Y-79148456D02*
X110689580Y-79100837D01*
X110689580Y-79100837D02*
X110546723Y-79005599D01*
X110546723Y-79005599D02*
X110356247Y-78957980D01*
X110356247Y-78957980D02*
X109975295Y-78957980D01*
X109975295Y-78957980D02*
X109880057Y-79005599D01*
X109880057Y-79005599D02*
X109832438Y-79053218D01*
X109832438Y-79053218D02*
X109784819Y-79148456D01*
X109784819Y-79148456D02*
X109784819Y-79338932D01*
X109784819Y-79338932D02*
X109832438Y-79434170D01*
X109832438Y-79434170D02*
X109880057Y-79481789D01*
X109880057Y-79481789D02*
X109975295Y-79529408D01*
X109975295Y-79529408D02*
X110213390Y-79529408D01*
X110213390Y-79529408D02*
X110308628Y-79481789D01*
X110308628Y-79481789D02*
X110356247Y-79434170D01*
X110356247Y-79434170D02*
X110403866Y-79338932D01*
X110403866Y-79338932D02*
X110403866Y-79148456D01*
X110403866Y-79148456D02*
X110356247Y-79053218D01*
X110356247Y-79053218D02*
X110308628Y-79005599D01*
X110308628Y-79005599D02*
X110213390Y-78957980D01*
X110784819Y-77767503D02*
X110118152Y-77767503D01*
X110213390Y-77767503D02*
X110165771Y-77719884D01*
X110165771Y-77719884D02*
X110118152Y-77624646D01*
X110118152Y-77624646D02*
X110118152Y-77481789D01*
X110118152Y-77481789D02*
X110165771Y-77386551D01*
X110165771Y-77386551D02*
X110261009Y-77338932D01*
X110261009Y-77338932D02*
X110784819Y-77338932D01*
X110261009Y-77338932D02*
X110165771Y-77291313D01*
X110165771Y-77291313D02*
X110118152Y-77196075D01*
X110118152Y-77196075D02*
X110118152Y-77053218D01*
X110118152Y-77053218D02*
X110165771Y-76957979D01*
X110165771Y-76957979D02*
X110261009Y-76910360D01*
X110261009Y-76910360D02*
X110784819Y-76910360D01*
X110784819Y-76434170D02*
X110118152Y-76434170D01*
X110213390Y-76434170D02*
X110165771Y-76386551D01*
X110165771Y-76386551D02*
X110118152Y-76291313D01*
X110118152Y-76291313D02*
X110118152Y-76148456D01*
X110118152Y-76148456D02*
X110165771Y-76053218D01*
X110165771Y-76053218D02*
X110261009Y-76005599D01*
X110261009Y-76005599D02*
X110784819Y-76005599D01*
X110261009Y-76005599D02*
X110165771Y-75957980D01*
X110165771Y-75957980D02*
X110118152Y-75862742D01*
X110118152Y-75862742D02*
X110118152Y-75719885D01*
X110118152Y-75719885D02*
X110165771Y-75624646D01*
X110165771Y-75624646D02*
X110261009Y-75577027D01*
X110261009Y-75577027D02*
X110784819Y-75577027D01*
D12*
X118480000Y-92505600D02*
X110893580Y-92505600D01*
X118480000Y-63505600D02*
X110893580Y-63505600D01*
X111480000Y-92505600D02*
X111480000Y-63505600D01*
X111480000Y-92505600D02*
X111480000Y-63505600D01*
X111480000Y-92505600D02*
X110893579Y-91379096D01*
X111480000Y-92505600D02*
X112066421Y-91379096D01*
X111480000Y-63505600D02*
X112066421Y-64632104D01*
X111480000Y-63505600D02*
X110893579Y-64632104D01*
D11*
X101284819Y-94505599D02*
X101284819Y-94696075D01*
X101284819Y-94696075D02*
X101332438Y-94791313D01*
X101332438Y-94791313D02*
X101380057Y-94838932D01*
X101380057Y-94838932D02*
X101522914Y-94934170D01*
X101522914Y-94934170D02*
X101713390Y-94981789D01*
X101713390Y-94981789D02*
X102094342Y-94981789D01*
X102094342Y-94981789D02*
X102189580Y-94934170D01*
X102189580Y-94934170D02*
X102237200Y-94886551D01*
X102237200Y-94886551D02*
X102284819Y-94791313D01*
X102284819Y-94791313D02*
X102284819Y-94600837D01*
X102284819Y-94600837D02*
X102237200Y-94505599D01*
X102237200Y-94505599D02*
X102189580Y-94457980D01*
X102189580Y-94457980D02*
X102094342Y-94410361D01*
X102094342Y-94410361D02*
X101856247Y-94410361D01*
X101856247Y-94410361D02*
X101761009Y-94457980D01*
X101761009Y-94457980D02*
X101713390Y-94505599D01*
X101713390Y-94505599D02*
X101665771Y-94600837D01*
X101665771Y-94600837D02*
X101665771Y-94791313D01*
X101665771Y-94791313D02*
X101713390Y-94886551D01*
X101713390Y-94886551D02*
X101761009Y-94934170D01*
X101761009Y-94934170D02*
X101856247Y-94981789D01*
X101284819Y-93505599D02*
X101284819Y-93981789D01*
X101284819Y-93981789D02*
X101761009Y-94029408D01*
X101761009Y-94029408D02*
X101713390Y-93981789D01*
X101713390Y-93981789D02*
X101665771Y-93886551D01*
X101665771Y-93886551D02*
X101665771Y-93648456D01*
X101665771Y-93648456D02*
X101713390Y-93553218D01*
X101713390Y-93553218D02*
X101761009Y-93505599D01*
X101761009Y-93505599D02*
X101856247Y-93457980D01*
X101856247Y-93457980D02*
X102094342Y-93457980D01*
X102094342Y-93457980D02*
X102189580Y-93505599D01*
X102189580Y-93505599D02*
X102237200Y-93553218D01*
X102237200Y-93553218D02*
X102284819Y-93648456D01*
X102284819Y-93648456D02*
X102284819Y-93886551D01*
X102284819Y-93886551D02*
X102237200Y-93981789D01*
X102237200Y-93981789D02*
X102189580Y-94029408D01*
X102284819Y-92267503D02*
X101618152Y-92267503D01*
X101713390Y-92267503D02*
X101665771Y-92219884D01*
X101665771Y-92219884D02*
X101618152Y-92124646D01*
X101618152Y-92124646D02*
X101618152Y-91981789D01*
X101618152Y-91981789D02*
X101665771Y-91886551D01*
X101665771Y-91886551D02*
X101761009Y-91838932D01*
X101761009Y-91838932D02*
X102284819Y-91838932D01*
X101761009Y-91838932D02*
X101665771Y-91791313D01*
X101665771Y-91791313D02*
X101618152Y-91696075D01*
X101618152Y-91696075D02*
X101618152Y-91553218D01*
X101618152Y-91553218D02*
X101665771Y-91457979D01*
X101665771Y-91457979D02*
X101761009Y-91410360D01*
X101761009Y-91410360D02*
X102284819Y-91410360D01*
X102284819Y-90934170D02*
X101618152Y-90934170D01*
X101713390Y-90934170D02*
X101665771Y-90886551D01*
X101665771Y-90886551D02*
X101618152Y-90791313D01*
X101618152Y-90791313D02*
X101618152Y-90648456D01*
X101618152Y-90648456D02*
X101665771Y-90553218D01*
X101665771Y-90553218D02*
X101761009Y-90505599D01*
X101761009Y-90505599D02*
X102284819Y-90505599D01*
X101761009Y-90505599D02*
X101665771Y-90457980D01*
X101665771Y-90457980D02*
X101618152Y-90362742D01*
X101618152Y-90362742D02*
X101618152Y-90219885D01*
X101618152Y-90219885D02*
X101665771Y-90124646D01*
X101665771Y-90124646D02*
X101761009Y-90077027D01*
X101761009Y-90077027D02*
X102284819Y-90077027D01*
D12*
X118480000Y-125005600D02*
X102393580Y-125005600D01*
X118480000Y-60005600D02*
X102393580Y-60005600D01*
X102980000Y-125005600D02*
X102980000Y-60005600D01*
X102980000Y-125005600D02*
X102980000Y-60005600D01*
X102980000Y-125005600D02*
X102393579Y-123879096D01*
X102980000Y-125005600D02*
X103566421Y-123879096D01*
X102980000Y-60005600D02*
X103566421Y-61132104D01*
X102980000Y-60005600D02*
X102393579Y-61132104D01*
%TD*%
M02*
