  0
SECTION
  2
HEADER
  9
$ANGBASE
  50
0.0
  9
$ANGDIR
  70
1
  9
$MEASUREMENT
  70
0
  0
ENDSEC
  0
SECTION
  2
TABLES
  0
TABLE
  2
LTYPE
  70
4
  0
LTYPE
  5
40F
  2
CONTINUOUS
  70
0
  3
Solid line
  72
65
  73
0
  40
0.0
  0
LTYPE
  5
410
  2
DASHDOT
 70
0
  3
Dash Dot ____ _ ____ _
 72
65
 73
4
 40
2.0
 49
1.25
 49
-0.25
 49
0.25
 49
-0.25
  0
LTYPE
  5
411
  2
DASHED
 70
0
  3
Dashed __ __ __ __ __
 72
65
 73
2
 40
0.75
 49
0.5
 49
-0.25
  0
LTYPE
  5
43B
  2
DOTTED
 70
0
  3
Dotted .  .  .  .
 72
65
 73
2
 40
0.2
 49
0.0
 49
-0.2
  0
ENDTAB
  0
TABLE
  2
STYLE
  70
4
  0
STYLE
  2
KICAD
  70
0
  40
0
  41
1
  42
1
  50
0
  71
0
  3
isocp.shx
  0
STYLE
  2
KICADB
  70
0
  40
0
  41
1
  42
1
  50
0
  71
0
  3
isocp.shx
  0
STYLE
  2
KICADI
  70
0
  40
0
  41
1
  42
1
  50
15
  71
0
  3
isocp.shx
  0
STYLE
  2
KICADBI
  70
0
  40
0
  41
1
  42
1
  50
15
  71
0
  3
isocp.shx
  0
ENDTAB
  0
TABLE
  2
LAYER
  70
1
  0
LAYER
  2
BLACK
  70
0
  62
7
  6
CONTINUOUS
  0
ENDTAB
  0
ENDSEC
  0
SECTION
  2
ENTITIES
0
LINE
8
BLACK
6
CONTINUOUS
10
3.61417
20
-0.785433
11
3.61557
21
-0.78601
0
LINE
8
BLACK
6
CONTINUOUS
10
3.61557
20
-0.78601
11
3.61614
21
-0.787402
0
LINE
8
BLACK
6
CONTINUOUS
10
3.61614
20
-0.787402
11
3.61614
21
-0.826772
0
LINE
8
BLACK
6
CONTINUOUS
10
3.61614
20
-0.826772
11
3.61614
21
-0.828586
0
LINE
8
BLACK
6
CONTINUOUS
10
3.61614
20
-0.828586
11
3.61708
21
-0.83209
0
LINE
8
BLACK
6
CONTINUOUS
10
3.61708
20
-0.83209
11
3.61889
21
-0.835232
0
LINE
8
BLACK
6
CONTINUOUS
10
3.61889
20
-0.835232
11
3.62146
21
-0.837798
0
LINE
8
BLACK
6
CONTINUOUS
10
3.62146
20
-0.837798
11
3.6246
21
-0.839612
0
LINE
8
BLACK
6
CONTINUOUS
10
3.6246
20
-0.839612
11
3.62811
21
-0.840551
0
LINE
8
BLACK
6
CONTINUOUS
10
3.62811
20
-0.840551
11
3.62992
21
-0.840551
0
LINE
8
BLACK
6
CONTINUOUS
10
3.62992
20
-0.840551
11
3.77165
21
-0.840551
0
LINE
8
BLACK
6
CONTINUOUS
10
3.77165
20
-0.840551
11
3.77347
21
-0.840551
0
LINE
8
BLACK
6
CONTINUOUS
10
3.77347
20
-0.840551
11
3.77697
21
-0.839612
0
LINE
8
BLACK
6
CONTINUOUS
10
3.77697
20
-0.839612
11
3.78011
21
-0.837798
0
LINE
8
BLACK
6
CONTINUOUS
10
3.78011
20
-0.837798
11
3.78268
21
-0.835232
0
LINE
8
BLACK
6
CONTINUOUS
10
3.78268
20
-0.835232
11
3.78449
21
-0.83209
0
LINE
8
BLACK
6
CONTINUOUS
10
3.78449
20
-0.83209
11
3.78543
21
-0.828586
0
LINE
8
BLACK
6
CONTINUOUS
10
3.78543
20
-0.828586
11
3.78543
21
-0.826772
0
LINE
8
BLACK
6
CONTINUOUS
10
3.78543
20
-0.826772
11
3.78543
21
-0.787402
0
LINE
8
BLACK
6
CONTINUOUS
10
3.78543
20
-0.787402
11
3.78601
21
-0.78601
0
LINE
8
BLACK
6
CONTINUOUS
10
3.78601
20
-0.78601
11
3.7874
21
-0.785433
0
LINE
8
BLACK
6
CONTINUOUS
10
3.7874
20
-0.785433
11
3.97638
21
-0.785433
0
LINE
8
BLACK
6
CONTINUOUS
10
3.97638
20
-0.785433
11
3.97777
21
-0.78601
0
LINE
8
BLACK
6
CONTINUOUS
10
3.97777
20
-0.78601
11
3.97835
21
-0.787402
0
LINE
8
BLACK
6
CONTINUOUS
10
3.97835
20
-0.787402
11
3.97835
21
-0.826772
0
LINE
8
BLACK
6
CONTINUOUS
10
3.97835
20
-0.826772
11
3.97835
21
-0.834411
0
LINE
8
BLACK
6
CONTINUOUS
10
3.97835
20
-0.834411
11
3.97984
21
-0.849617
0
LINE
8
BLACK
6
CONTINUOUS
10
3.97984
20
-0.849617
11
3.98283
21
-0.864604
0
LINE
8
BLACK
6
CONTINUOUS
10
3.98283
20
-0.864604
11
3.98726
21
-0.879225
0
LINE
8
BLACK
6
CONTINUOUS
10
3.98726
20
-0.879225
11
3.99311
21
-0.893342
0
LINE
8
BLACK
6
CONTINUOUS
10
3.99311
20
-0.893342
11
4.00031
21
-0.906817
0
LINE
8
BLACK
6
CONTINUOUS
10
4.00031
20
-0.906817
11
4.0088
21
-0.919522
0
LINE
8
BLACK
6
CONTINUOUS
10
4.0088
20
-0.919522
11
4.01849
21
-0.931333
0
LINE
8
BLACK
6
CONTINUOUS
10
4.01849
20
-0.931333
11
4.0293
21
-0.942137
0
LINE
8
BLACK
6
CONTINUOUS
10
4.0293
20
-0.942137
11
4.04111
21
-0.951831
0
LINE
8
BLACK
6
CONTINUOUS
10
4.04111
20
-0.951831
11
4.05381
21
-0.960319
0
LINE
8
BLACK
6
CONTINUOUS
10
4.05381
20
-0.960319
11
4.06729
21
-0.967522
0
LINE
8
BLACK
6
CONTINUOUS
10
4.06729
20
-0.967522
11
4.0814
21
-0.973369
0
LINE
8
BLACK
6
CONTINUOUS
10
4.0814
20
-0.973369
11
4.09603
21
-0.977805
0
LINE
8
BLACK
6
CONTINUOUS
10
4.09603
20
-0.977805
11
4.11101
21
-0.980786
0
LINE
8
BLACK
6
CONTINUOUS
10
4.11101
20
-0.980786
11
4.12622
21
-0.982283
0
LINE
8
BLACK
6
CONTINUOUS
10
4.12622
20
-0.982283
11
4.1415
21
-0.982283
0
LINE
8
BLACK
6
CONTINUOUS
10
4.1415
20
-0.982283
11
4.1567
21
-0.980786
0
LINE
8
BLACK
6
CONTINUOUS
10
4.1567
20
-0.980786
11
4.17169
21
-0.977805
0
LINE
8
BLACK
6
CONTINUOUS
10
4.17169
20
-0.977805
11
4.18631
21
-0.973369
0
LINE
8
BLACK
6
CONTINUOUS
10
4.18631
20
-0.973369
11
4.20043
21
-0.967522
0
LINE
8
BLACK
6
CONTINUOUS
10
4.20043
20
-0.967522
11
4.2139
21
-0.960319
0
LINE
8
BLACK
6
CONTINUOUS
10
4.2139
20
-0.960319
11
4.22661
21
-0.951831
0
LINE
8
BLACK
6
CONTINUOUS
10
4.22661
20
-0.951831
11
4.23842
21
-0.942137
0
LINE
8
BLACK
6
CONTINUOUS
10
4.23842
20
-0.942137
11
4.24922
21
-0.931333
0
LINE
8
BLACK
6
CONTINUOUS
10
4.24922
20
-0.931333
11
4.25892
21
-0.919522
0
LINE
8
BLACK
6
CONTINUOUS
10
4.25892
20
-0.919522
11
4.26741
21
-0.906817
0
LINE
8
BLACK
6
CONTINUOUS
10
4.26741
20
-0.906817
11
4.27461
21
-0.893342
0
LINE
8
BLACK
6
CONTINUOUS
10
4.27461
20
-0.893342
11
4.28046
21
-0.879225
0
LINE
8
BLACK
6
CONTINUOUS
10
4.28046
20
-0.879225
11
4.28489
21
-0.864604
0
LINE
8
BLACK
6
CONTINUOUS
10
4.28489
20
-0.864604
11
4.28787
21
-0.849617
0
LINE
8
BLACK
6
CONTINUOUS
10
4.28787
20
-0.849617
11
4.28937
21
-0.834411
0
LINE
8
BLACK
6
CONTINUOUS
10
4.28937
20
-0.834411
11
4.28937
21
-0.826772
0
LINE
8
BLACK
6
CONTINUOUS
10
4.28937
20
-0.826772
11
4.28937
21
-0.787402
0
LINE
8
BLACK
6
CONTINUOUS
10
4.28937
20
-0.787402
11
4.28995
21
-0.78601
0
LINE
8
BLACK
6
CONTINUOUS
10
4.28995
20
-0.78601
11
4.29134
21
-0.785433
0
LINE
8
BLACK
6
CONTINUOUS
10
4.29134
20
-0.785433
11
4.48031
21
-0.785433
0
LINE
8
BLACK
6
CONTINUOUS
10
4.48031
20
-0.785433
11
4.48171
21
-0.78601
0
LINE
8
BLACK
6
CONTINUOUS
10
4.48171
20
-0.78601
11
4.48228
21
-0.787402
0
LINE
8
BLACK
6
CONTINUOUS
10
4.48228
20
-0.787402
11
4.48228
21
-0.826772
0
LINE
8
BLACK
6
CONTINUOUS
10
4.48228
20
-0.826772
11
4.48228
21
-0.828586
0
LINE
8
BLACK
6
CONTINUOUS
10
4.48228
20
-0.828586
11
4.48322
21
-0.83209
0
LINE
8
BLACK
6
CONTINUOUS
10
4.48322
20
-0.83209
11
4.48504
21
-0.835232
0
LINE
8
BLACK
6
CONTINUOUS
10
4.48504
20
-0.835232
11
4.4876
21
-0.837798
0
LINE
8
BLACK
6
CONTINUOUS
10
4.4876
20
-0.837798
11
4.49074
21
-0.839612
0
LINE
8
BLACK
6
CONTINUOUS
10
4.49074
20
-0.839612
11
4.49425
21
-0.840551
0
LINE
8
BLACK
6
CONTINUOUS
10
4.49425
20
-0.840551
11
4.49606
21
-0.840551
0
LINE
8
BLACK
6
CONTINUOUS
10
4.49606
20
-0.840551
11
4.6378
21
-0.840551
0
LINE
8
BLACK
6
CONTINUOUS
10
4.6378
20
-0.840551
11
4.6378
21
-0.840551
0
LINE
8
BLACK
6
CONTINUOUS
10
4.6378
20
-0.840551
11
4.63961
21
-0.840551
0
LINE
8
BLACK
6
CONTINUOUS
10
4.63961
20
-0.840551
11
4.64311
21
-0.839612
0
LINE
8
BLACK
6
CONTINUOUS
10
4.64311
20
-0.839612
11
4.64626
21
-0.837798
0
LINE
8
BLACK
6
CONTINUOUS
10
4.64626
20
-0.837798
11
4.64882
21
-0.835233
0
LINE
8
BLACK
6
CONTINUOUS
10
4.64882
20
-0.835233
11
4.65064
21
-0.83209
0
LINE
8
BLACK
6
CONTINUOUS
10
4.65064
20
-0.83209
11
4.65157
21
-0.828586
0
LINE
8
BLACK
6
CONTINUOUS
10
4.65157
20
-0.828586
11
4.65157
21
-0.826772
0
LINE
8
BLACK
6
CONTINUOUS
10
4.65157
20
-0.826772
11
4.65157
21
-0.787402
0
LINE
8
BLACK
6
CONTINUOUS
10
4.65157
20
-0.787402
11
4.65215
21
-0.78601
0
LINE
8
BLACK
6
CONTINUOUS
10
4.65215
20
-0.78601
11
4.65354
21
-0.785433
0
LINE
8
BLACK
6
CONTINUOUS
10
4.65354
20
-0.785433
11
7.32283
21
-0.785433
0
LINE
8
BLACK
6
CONTINUOUS
10
7.32283
20
-0.785433
11
7.33001
21
-0.786061
0
LINE
8
BLACK
6
CONTINUOUS
10
7.33001
20
-0.786061
11
7.33697
21
-0.787926
0
LINE
8
BLACK
6
CONTINUOUS
10
7.33697
20
-0.787926
11
7.3435
21
-0.790971
0
LINE
8
BLACK
6
CONTINUOUS
10
7.3435
20
-0.790971
11
7.34941
21
-0.795104
0
LINE
8
BLACK
6
CONTINUOUS
10
7.34941
20
-0.795104
11
7.3545
21
-0.8002
0
LINE
8
BLACK
6
CONTINUOUS
10
7.3545
20
-0.8002
11
7.35863
21
-0.806102
0
LINE
8
BLACK
6
CONTINUOUS
10
7.35863
20
-0.806102
11
7.36168
21
-0.812633
0
LINE
8
BLACK
6
CONTINUOUS
10
7.36168
20
-0.812633
11
7.36355
21
-0.819593
0
LINE
8
BLACK
6
CONTINUOUS
10
7.36355
20
-0.819593
11
7.36417
21
-0.826772
0
LINE
8
BLACK
6
CONTINUOUS
10
7.36417
20
-0.826772
11
7.36417
21
-0.833961
0
LINE
8
BLACK
6
CONTINUOUS
10
7.36417
20
-0.833961
11
7.3655
21
-0.84828
0
LINE
8
BLACK
6
CONTINUOUS
10
7.3655
20
-0.84828
11
7.36814
21
-0.862414
0
LINE
8
BLACK
6
CONTINUOUS
10
7.36814
20
-0.862414
11
7.37208
21
-0.876245
0
LINE
8
BLACK
6
CONTINUOUS
10
7.37208
20
-0.876245
11
7.37727
21
-0.889653
0
LINE
8
BLACK
6
CONTINUOUS
10
7.37727
20
-0.889653
11
7.38368
21
-0.902525
0
LINE
8
BLACK
6
CONTINUOUS
10
7.38368
20
-0.902525
11
7.39125
21
-0.914751
0
LINE
8
BLACK
6
CONTINUOUS
10
7.39125
20
-0.914751
11
7.39992
21
-0.926226
0
LINE
8
BLACK
6
CONTINUOUS
10
7.39992
20
-0.926226
11
7.4096
21
-0.936853
0
LINE
8
BLACK
6
CONTINUOUS
10
7.4096
20
-0.936853
11
7.42023
21
-0.94654
0
LINE
8
BLACK
6
CONTINUOUS
10
7.42023
20
-0.94654
11
7.43171
21
-0.955206
0
LINE
8
BLACK
6
CONTINUOUS
10
7.43171
20
-0.955206
11
7.44393
21
-0.962775
0
LINE
8
BLACK
6
CONTINUOUS
10
7.44393
20
-0.962775
11
7.4568
21
-0.969185
0
LINE
8
BLACK
6
CONTINUOUS
10
7.4568
20
-0.969185
11
7.47021
21
-0.974379
0
LINE
8
BLACK
6
CONTINUOUS
10
7.47021
20
-0.974379
11
7.48404
21
-0.978314
0
LINE
8
BLACK
6
CONTINUOUS
10
7.48404
20
-0.978314
11
7.49818
21
-0.980957
0
LINE
8
BLACK
6
CONTINUOUS
10
7.49818
20
-0.980957
11
7.5125
21
-0.982283
0
LINE
8
BLACK
6
CONTINUOUS
10
7.5125
20
-0.982283
11
7.51969
21
-0.982283
0
LINE
8
BLACK
6
CONTINUOUS
10
7.51969
20
-0.982283
11
7.52686
21
-0.982911
0
LINE
8
BLACK
6
CONTINUOUS
10
7.52686
20
-0.982911
11
7.53382
21
-0.984776
0
LINE
8
BLACK
6
CONTINUOUS
10
7.53382
20
-0.984776
11
7.54035
21
-0.987822
0
LINE
8
BLACK
6
CONTINUOUS
10
7.54035
20
-0.987822
11
7.54626
21
-0.991955
0
LINE
8
BLACK
6
CONTINUOUS
10
7.54626
20
-0.991955
11
7.55135
21
-0.99705
0
LINE
8
BLACK
6
CONTINUOUS
10
7.55135
20
-0.99705
11
7.55549
21
-1.00295
0
LINE
8
BLACK
6
CONTINUOUS
10
7.55549
20
-1.00295
11
7.55853
21
-1.00948
0
LINE
8
BLACK
6
CONTINUOUS
10
7.55853
20
-1.00948
11
7.5604
21
-1.01644
0
LINE
8
BLACK
6
CONTINUOUS
10
7.5604
20
-1.01644
11
7.56102
21
-1.02362
0
LINE
8
BLACK
6
CONTINUOUS
10
7.56102
20
-1.02362
11
7.56102
21
-4.92126
0
LINE
8
BLACK
6
CONTINUOUS
10
7.56102
20
-4.92126
11
7.5604
21
-4.92844
0
LINE
8
BLACK
6
CONTINUOUS
10
7.5604
20
-4.92844
11
7.55853
21
-4.9354
0
LINE
8
BLACK
6
CONTINUOUS
10
7.55853
20
-4.9354
11
7.55549
21
-4.94193
0
LINE
8
BLACK
6
CONTINUOUS
10
7.55549
20
-4.94193
11
7.55135
21
-4.94783
0
LINE
8
BLACK
6
CONTINUOUS
10
7.55135
20
-4.94783
11
7.54626
21
-4.95293
0
LINE
8
BLACK
6
CONTINUOUS
10
7.54626
20
-4.95293
11
7.54035
21
-4.95706
0
LINE
8
BLACK
6
CONTINUOUS
10
7.54035
20
-4.95706
11
7.53382
21
-4.96011
0
LINE
8
BLACK
6
CONTINUOUS
10
7.53382
20
-4.96011
11
7.52686
21
-4.96197
0
LINE
8
BLACK
6
CONTINUOUS
10
7.52686
20
-4.96197
11
7.51969
21
-4.9626
0
LINE
8
BLACK
6
CONTINUOUS
10
7.51969
20
-4.9626
11
7.5125
21
-4.9626
0
LINE
8
BLACK
6
CONTINUOUS
10
7.5125
20
-4.9626
11
7.49818
21
-4.96393
0
LINE
8
BLACK
6
CONTINUOUS
10
7.49818
20
-4.96393
11
7.48404
21
-4.96657
0
LINE
8
BLACK
6
CONTINUOUS
10
7.48404
20
-4.96657
11
7.47021
21
-4.9705
0
LINE
8
BLACK
6
CONTINUOUS
10
7.47021
20
-4.9705
11
7.4568
21
-4.9757
0
LINE
8
BLACK
6
CONTINUOUS
10
7.4568
20
-4.9757
11
7.44393
21
-4.98211
0
LINE
8
BLACK
6
CONTINUOUS
10
7.44393
20
-4.98211
11
7.43171
21
-4.98968
0
LINE
8
BLACK
6
CONTINUOUS
10
7.43171
20
-4.98968
11
7.42023
21
-4.99834
0
LINE
8
BLACK
6
CONTINUOUS
10
7.42023
20
-4.99834
11
7.4096
21
-5.00803
0
LINE
8
BLACK
6
CONTINUOUS
10
7.4096
20
-5.00803
11
7.39992
21
-5.01866
0
LINE
8
BLACK
6
CONTINUOUS
10
7.39992
20
-5.01866
11
7.39125
21
-5.03013
0
LINE
8
BLACK
6
CONTINUOUS
10
7.39125
20
-5.03013
11
7.38368
21
-5.04236
0
LINE
8
BLACK
6
CONTINUOUS
10
7.38368
20
-5.04236
11
7.37727
21
-5.05523
0
LINE
8
BLACK
6
CONTINUOUS
10
7.37727
20
-5.05523
11
7.37208
21
-5.06864
0
LINE
8
BLACK
6
CONTINUOUS
10
7.37208
20
-5.06864
11
7.36814
21
-5.08247
0
LINE
8
BLACK
6
CONTINUOUS
10
7.36814
20
-5.08247
11
7.3655
21
-5.0966
0
LINE
8
BLACK
6
CONTINUOUS
10
7.3655
20
-5.0966
11
7.36417
21
-5.11092
0
LINE
8
BLACK
6
CONTINUOUS
10
7.36417
20
-5.11092
11
7.36417
21
-5.11811
0
LINE
8
BLACK
6
CONTINUOUS
10
7.36417
20
-5.11811
11
7.36355
21
-5.12529
0
LINE
8
BLACK
6
CONTINUOUS
10
7.36355
20
-5.12529
11
7.36168
21
-5.13225
0
LINE
8
BLACK
6
CONTINUOUS
10
7.36168
20
-5.13225
11
7.35863
21
-5.13878
0
LINE
8
BLACK
6
CONTINUOUS
10
7.35863
20
-5.13878
11
7.3545
21
-5.14468
0
LINE
8
BLACK
6
CONTINUOUS
10
7.3545
20
-5.14468
11
7.34941
21
-5.14978
0
LINE
8
BLACK
6
CONTINUOUS
10
7.34941
20
-5.14978
11
7.3435
21
-5.15391
0
LINE
8
BLACK
6
CONTINUOUS
10
7.3435
20
-5.15391
11
7.33697
21
-5.15696
0
LINE
8
BLACK
6
CONTINUOUS
10
7.33697
20
-5.15696
11
7.33001
21
-5.15882
0
LINE
8
BLACK
6
CONTINUOUS
10
7.33001
20
-5.15882
11
7.32283
21
-5.15945
0
LINE
8
BLACK
6
CONTINUOUS
10
7.32283
20
-5.15945
11
4.33071
21
-5.15945
0
LINE
8
BLACK
6
CONTINUOUS
10
4.33071
20
-5.15945
11
4.32353
21
-5.15882
0
LINE
8
BLACK
6
CONTINUOUS
10
4.32353
20
-5.15882
11
4.31657
21
-5.15696
0
LINE
8
BLACK
6
CONTINUOUS
10
4.31657
20
-5.15696
11
4.31004
21
-5.15391
0
LINE
8
BLACK
6
CONTINUOUS
10
4.31004
20
-5.15391
11
4.30414
21
-5.14978
0
LINE
8
BLACK
6
CONTINUOUS
10
4.30414
20
-5.14978
11
4.29904
21
-5.14468
0
LINE
8
BLACK
6
CONTINUOUS
10
4.29904
20
-5.14468
11
4.29491
21
-5.13878
0
LINE
8
BLACK
6
CONTINUOUS
10
4.29491
20
-5.13878
11
4.29186
21
-5.13225
0
LINE
8
BLACK
6
CONTINUOUS
10
4.29186
20
-5.13225
11
4.29
21
-5.12529
0
LINE
8
BLACK
6
CONTINUOUS
10
4.29
20
-5.12529
11
4.28937
21
-5.11811
0
LINE
8
BLACK
6
CONTINUOUS
10
4.28937
20
-5.11811
11
4.28937
21
-5.11811
0
LINE
8
BLACK
6
CONTINUOUS
10
4.28937
20
-5.11811
11
4.28937
21
-5.11047
0
LINE
8
BLACK
6
CONTINUOUS
10
4.28937
20
-5.11047
11
4.28787
21
-5.09526
0
LINE
8
BLACK
6
CONTINUOUS
10
4.28787
20
-5.09526
11
4.28489
21
-5.08028
0
LINE
8
BLACK
6
CONTINUOUS
10
4.28489
20
-5.08028
11
4.28046
21
-5.06566
0
LINE
8
BLACK
6
CONTINUOUS
10
4.28046
20
-5.06566
11
4.27461
21
-5.05154
0
LINE
8
BLACK
6
CONTINUOUS
10
4.27461
20
-5.05154
11
4.26741
21
-5.03806
0
LINE
8
BLACK
6
CONTINUOUS
10
4.26741
20
-5.03806
11
4.25892
21
-5.02536
0
LINE
8
BLACK
6
CONTINUOUS
10
4.25892
20
-5.02536
11
4.24922
21
-5.01355
0
LINE
8
BLACK
6
CONTINUOUS
10
4.24922
20
-5.01355
11
4.23842
21
-5.00274
0
LINE
8
BLACK
6
CONTINUOUS
10
4.23842
20
-5.00274
11
4.22661
21
-4.99305
0
LINE
8
BLACK
6
CONTINUOUS
10
4.22661
20
-4.99305
11
4.2139
21
-4.98456
0
LINE
8
BLACK
6
CONTINUOUS
10
4.2139
20
-4.98456
11
4.20043
21
-4.97736
0
LINE
8
BLACK
6
CONTINUOUS
10
4.20043
20
-4.97736
11
4.18631
21
-4.97151
0
LINE
8
BLACK
6
CONTINUOUS
10
4.18631
20
-4.97151
11
4.17169
21
-4.96708
0
LINE
8
BLACK
6
CONTINUOUS
10
4.17169
20
-4.96708
11
4.1567
21
-4.9641
0
LINE
8
BLACK
6
CONTINUOUS
10
4.1567
20
-4.9641
11
4.1415
21
-4.9626
0
LINE
8
BLACK
6
CONTINUOUS
10
4.1415
20
-4.9626
11
4.12622
21
-4.9626
0
LINE
8
BLACK
6
CONTINUOUS
10
4.12622
20
-4.9626
11
4.11101
21
-4.9641
0
LINE
8
BLACK
6
CONTINUOUS
10
4.11101
20
-4.9641
11
4.09603
21
-4.96708
0
LINE
8
BLACK
6
CONTINUOUS
10
4.09603
20
-4.96708
11
4.0814
21
-4.97151
0
LINE
8
BLACK
6
CONTINUOUS
10
4.0814
20
-4.97151
11
4.06729
21
-4.97736
0
LINE
8
BLACK
6
CONTINUOUS
10
4.06729
20
-4.97736
11
4.05381
21
-4.98456
0
LINE
8
BLACK
6
CONTINUOUS
10
4.05381
20
-4.98456
11
4.04111
21
-4.99305
0
LINE
8
BLACK
6
CONTINUOUS
10
4.04111
20
-4.99305
11
4.0293
21
-5.00274
0
LINE
8
BLACK
6
CONTINUOUS
10
4.0293
20
-5.00274
11
4.01849
21
-5.01355
0
LINE
8
BLACK
6
CONTINUOUS
10
4.01849
20
-5.01355
11
4.0088
21
-5.02536
0
LINE
8
BLACK
6
CONTINUOUS
10
4.0088
20
-5.02536
11
4.00031
21
-5.03806
0
LINE
8
BLACK
6
CONTINUOUS
10
4.00031
20
-5.03806
11
3.99311
21
-5.05154
0
LINE
8
BLACK
6
CONTINUOUS
10
3.99311
20
-5.05154
11
3.98726
21
-5.06566
0
LINE
8
BLACK
6
CONTINUOUS
10
3.98726
20
-5.06566
11
3.98283
21
-5.08028
0
LINE
8
BLACK
6
CONTINUOUS
10
3.98283
20
-5.08028
11
3.97984
21
-5.09526
0
LINE
8
BLACK
6
CONTINUOUS
10
3.97984
20
-5.09526
11
3.97835
21
-5.11047
0
LINE
8
BLACK
6
CONTINUOUS
10
3.97835
20
-5.11047
11
3.97835
21
-5.11811
0
LINE
8
BLACK
6
CONTINUOUS
10
3.97835
20
-5.11811
11
3.97772
21
-5.12529
0
LINE
8
BLACK
6
CONTINUOUS
10
3.97772
20
-5.12529
11
3.97585
21
-5.13225
0
LINE
8
BLACK
6
CONTINUOUS
10
3.97585
20
-5.13225
11
3.97281
21
-5.13878
0
LINE
8
BLACK
6
CONTINUOUS
10
3.97281
20
-5.13878
11
3.96868
21
-5.14468
0
LINE
8
BLACK
6
CONTINUOUS
10
3.96868
20
-5.14468
11
3.96358
21
-5.14978
0
LINE
8
BLACK
6
CONTINUOUS
10
3.96358
20
-5.14978
11
3.95768
21
-5.15391
0
LINE
8
BLACK
6
CONTINUOUS
10
3.95768
20
-5.15391
11
3.95115
21
-5.15696
0
LINE
8
BLACK
6
CONTINUOUS
10
3.95115
20
-5.15696
11
3.94419
21
-5.15882
0
LINE
8
BLACK
6
CONTINUOUS
10
3.94419
20
-5.15882
11
3.93701
21
-5.15945
0
LINE
8
BLACK
6
CONTINUOUS
10
3.93701
20
-5.15945
11
0.944882
21
-5.15945
0
LINE
8
BLACK
6
CONTINUOUS
10
0.944882
20
-5.15945
11
0.937704
21
-5.15882
0
LINE
8
BLACK
6
CONTINUOUS
10
0.937704
20
-5.15882
11
0.930743
21
-5.15696
0
LINE
8
BLACK
6
CONTINUOUS
10
0.930743
20
-5.15696
11
0.924213
21
-5.15391
0
LINE
8
BLACK
6
CONTINUOUS
10
0.924213
20
-5.15391
11
0.91831
21
-5.14978
0
LINE
8
BLACK
6
CONTINUOUS
10
0.91831
20
-5.14978
11
0.913215
21
-5.14468
0
LINE
8
BLACK
6
CONTINUOUS
10
0.913215
20
-5.14468
11
0.909082
21
-5.13878
0
LINE
8
BLACK
6
CONTINUOUS
10
0.909082
20
-5.13878
11
0.906036
21
-5.13225
0
LINE
8
BLACK
6
CONTINUOUS
10
0.906036
20
-5.13225
11
0.904171
21
-5.12529
0
LINE
8
BLACK
6
CONTINUOUS
10
0.904171
20
-5.12529
11
0.903543
21
-5.11811
0
LINE
8
BLACK
6
CONTINUOUS
10
0.903543
20
-5.11811
11
0.903543
21
-5.11092
0
LINE
8
BLACK
6
CONTINUOUS
10
0.903543
20
-5.11092
11
0.902217
21
-5.0966
0
LINE
8
BLACK
6
CONTINUOUS
10
0.902217
20
-5.0966
11
0.899574
21
-5.08247
0
LINE
8
BLACK
6
CONTINUOUS
10
0.899574
20
-5.08247
11
0.895639
21
-5.06864
0
LINE
8
BLACK
6
CONTINUOUS
10
0.895639
20
-5.06864
11
0.890445
21
-5.05523
0
LINE
8
BLACK
6
CONTINUOUS
10
0.890445
20
-5.05523
11
0.884035
21
-5.04236
0
LINE
8
BLACK
6
CONTINUOUS
10
0.884035
20
-5.04236
11
0.876465
21
-5.03013
0
LINE
8
BLACK
6
CONTINUOUS
10
0.876465
20
-5.03013
11
0.8678
21
-5.01866
0
LINE
8
BLACK
6
CONTINUOUS
10
0.8678
20
-5.01866
11
0.858112
21
-5.00803
0
LINE
8
BLACK
6
CONTINUOUS
10
0.858112
20
-5.00803
11
0.847486
21
-4.99834
0
LINE
8
BLACK
6
CONTINUOUS
10
0.847486
20
-4.99834
11
0.836011
21
-4.98968
0
LINE
8
BLACK
6
CONTINUOUS
10
0.836011
20
-4.98968
11
0.823785
21
-4.98211
0
LINE
8
BLACK
6
CONTINUOUS
10
0.823785
20
-4.98211
11
0.810913
21
-4.9757
0
LINE
8
BLACK
6
CONTINUOUS
10
0.810913
20
-4.9757
11
0.797505
21
-4.9705
0
LINE
8
BLACK
6
CONTINUOUS
10
0.797505
20
-4.9705
11
0.783674
21
-4.96657
0
LINE
8
BLACK
6
CONTINUOUS
10
0.783674
20
-4.96657
11
0.769539
21
-4.96393
0
LINE
8
BLACK
6
CONTINUOUS
10
0.769539
20
-4.96393
11
0.755221
21
-4.9626
0
LINE
8
BLACK
6
CONTINUOUS
10
0.755221
20
-4.9626
11
0.748031
21
-4.9626
0
LINE
8
BLACK
6
CONTINUOUS
10
0.748031
20
-4.9626
11
0.740853
21
-4.96197
0
LINE
8
BLACK
6
CONTINUOUS
10
0.740853
20
-4.96197
11
0.733893
21
-4.96011
0
LINE
8
BLACK
6
CONTINUOUS
10
0.733893
20
-4.96011
11
0.727362
21
-4.95706
0
LINE
8
BLACK
6
CONTINUOUS
10
0.727362
20
-4.95706
11
0.72146
21
-4.95293
0
LINE
8
BLACK
6
CONTINUOUS
10
0.72146
20
-4.95293
11
0.716364
21
-4.94783
0
LINE
8
BLACK
6
CONTINUOUS
10
0.716364
20
-4.94783
11
0.712231
21
-4.94193
0
LINE
8
BLACK
6
CONTINUOUS
10
0.712231
20
-4.94193
11
0.709186
21
-4.9354
0
LINE
8
BLACK
6
CONTINUOUS
10
0.709186
20
-4.9354
11
0.707321
21
-4.92844
0
LINE
8
BLACK
6
CONTINUOUS
10
0.707321
20
-4.92844
11
0.706693
21
-4.92126
0
LINE
8
BLACK
6
CONTINUOUS
10
0.706693
20
-4.92126
11
0.706693
21
-1.02362
0
LINE
8
BLACK
6
CONTINUOUS
10
0.706693
20
-1.02362
11
0.707321
21
-1.01644
0
LINE
8
BLACK
6
CONTINUOUS
10
0.707321
20
-1.01644
11
0.709186
21
-1.00948
0
LINE
8
BLACK
6
CONTINUOUS
10
0.709186
20
-1.00948
11
0.712231
21
-1.00295
0
LINE
8
BLACK
6
CONTINUOUS
10
0.712231
20
-1.00295
11
0.716364
21
-0.99705
0
LINE
8
BLACK
6
CONTINUOUS
10
0.716364
20
-0.99705
11
0.72146
21
-0.991955
0
LINE
8
BLACK
6
CONTINUOUS
10
0.72146
20
-0.991955
11
0.727362
21
-0.987822
0
LINE
8
BLACK
6
CONTINUOUS
10
0.727362
20
-0.987822
11
0.733893
21
-0.984776
0
LINE
8
BLACK
6
CONTINUOUS
10
0.733893
20
-0.984776
11
0.740853
21
-0.982911
0
LINE
8
BLACK
6
CONTINUOUS
10
0.740853
20
-0.982911
11
0.748031
21
-0.982283
0
LINE
8
BLACK
6
CONTINUOUS
10
0.748031
20
-0.982283
11
0.755221
21
-0.982283
0
LINE
8
BLACK
6
CONTINUOUS
10
0.755221
20
-0.982283
11
0.769539
21
-0.980957
0
LINE
8
BLACK
6
CONTINUOUS
10
0.769539
20
-0.980957
11
0.783674
21
-0.978314
0
LINE
8
BLACK
6
CONTINUOUS
10
0.783674
20
-0.978314
11
0.797505
21
-0.974379
0
LINE
8
BLACK
6
CONTINUOUS
10
0.797505
20
-0.974379
11
0.810913
21
-0.969185
0
LINE
8
BLACK
6
CONTINUOUS
10
0.810913
20
-0.969185
11
0.823785
21
-0.962775
0
LINE
8
BLACK
6
CONTINUOUS
10
0.823785
20
-0.962775
11
0.836011
21
-0.955206
0
LINE
8
BLACK
6
CONTINUOUS
10
0.836011
20
-0.955206
11
0.847486
21
-0.94654
0
LINE
8
BLACK
6
CONTINUOUS
10
0.847486
20
-0.94654
11
0.858112
21
-0.936853
0
LINE
8
BLACK
6
CONTINUOUS
10
0.858112
20
-0.936853
11
0.8678
21
-0.926226
0
LINE
8
BLACK
6
CONTINUOUS
10
0.8678
20
-0.926226
11
0.876465
21
-0.914751
0
LINE
8
BLACK
6
CONTINUOUS
10
0.876465
20
-0.914751
11
0.884035
21
-0.902525
0
LINE
8
BLACK
6
CONTINUOUS
10
0.884035
20
-0.902525
11
0.890445
21
-0.889653
0
LINE
8
BLACK
6
CONTINUOUS
10
0.890445
20
-0.889653
11
0.895639
21
-0.876245
0
LINE
8
BLACK
6
CONTINUOUS
10
0.895639
20
-0.876245
11
0.899574
21
-0.862414
0
LINE
8
BLACK
6
CONTINUOUS
10
0.899574
20
-0.862414
11
0.902217
21
-0.84828
0
LINE
8
BLACK
6
CONTINUOUS
10
0.902217
20
-0.84828
11
0.903543
21
-0.833961
0
LINE
8
BLACK
6
CONTINUOUS
10
0.903543
20
-0.833961
11
0.903543
21
-0.826772
0
LINE
8
BLACK
6
CONTINUOUS
10
0.903543
20
-0.826772
11
0.903543
21
-0.826772
0
LINE
8
BLACK
6
CONTINUOUS
10
0.903543
20
-0.826772
11
0.904171
21
-0.819593
0
LINE
8
BLACK
6
CONTINUOUS
10
0.904171
20
-0.819593
11
0.906036
21
-0.812633
0
LINE
8
BLACK
6
CONTINUOUS
10
0.906036
20
-0.812633
11
0.909082
21
-0.806102
0
LINE
8
BLACK
6
CONTINUOUS
10
0.909082
20
-0.806102
11
0.913215
21
-0.8002
0
LINE
8
BLACK
6
CONTINUOUS
10
0.913215
20
-0.8002
11
0.91831
21
-0.795104
0
LINE
8
BLACK
6
CONTINUOUS
10
0.91831
20
-0.795104
11
0.924213
21
-0.790971
0
LINE
8
BLACK
6
CONTINUOUS
10
0.924213
20
-0.790971
11
0.930743
21
-0.787926
0
LINE
8
BLACK
6
CONTINUOUS
10
0.930743
20
-0.787926
11
0.937704
21
-0.786061
0
LINE
8
BLACK
6
CONTINUOUS
10
0.937704
20
-0.786061
11
0.944882
21
-0.785433
0
LINE
8
BLACK
6
CONTINUOUS
10
0.944882
20
-0.785433
11
3.61417
21
-0.785433
0
LINE
8
BLACK
6
CONTINUOUS
10
0.944882
20
-0.78937
11
0.94161
21
-0.78937
0
LINE
8
BLACK
6
CONTINUOUS
10
0.94161
20
-0.78937
11
0.935165
21
-0.790506
0
LINE
8
BLACK
6
CONTINUOUS
10
0.935165
20
-0.790506
11
0.929015
21
-0.792745
0
LINE
8
BLACK
6
CONTINUOUS
10
0.929015
20
-0.792745
11
0.923347
21
-0.796017
0
LINE
8
BLACK
6
CONTINUOUS
10
0.923347
20
-0.796017
11
0.918334
21
-0.800224
0
LINE
8
BLACK
6
CONTINUOUS
10
0.918334
20
-0.800224
11
0.914127
21
-0.805237
0
LINE
8
BLACK
6
CONTINUOUS
10
0.914127
20
-0.805237
11
0.910855
21
-0.810905
0
LINE
8
BLACK
6
CONTINUOUS
10
0.910855
20
-0.810905
11
0.908617
21
-0.817054
0
LINE
8
BLACK
6
CONTINUOUS
10
0.908617
20
-0.817054
11
0.90748
21
-0.823499
0
LINE
8
BLACK
6
CONTINUOUS
10
0.90748
20
-0.823499
11
0.90748
21
-0.826772
0
LINE
8
BLACK
6
CONTINUOUS
10
0.90748
20
-0.826772
11
0.9068
21
-0.841484
0
LINE
8
BLACK
6
CONTINUOUS
10
0.9068
20
-0.841484
11
0.904765
21
-0.85607
0
LINE
8
BLACK
6
CONTINUOUS
10
0.904765
20
-0.85607
11
0.901393
21
-0.870407
0
LINE
8
BLACK
6
CONTINUOUS
10
0.901393
20
-0.870407
11
0.896713
21
-0.884371
0
LINE
8
BLACK
6
CONTINUOUS
10
0.896713
20
-0.884371
11
0.890764
21
-0.897844
0
LINE
8
BLACK
6
CONTINUOUS
10
0.890764
20
-0.897844
11
0.883598
21
-0.910711
0
LINE
8
BLACK
6
CONTINUOUS
10
0.883598
20
-0.910711
11
0.875274
21
-0.922861
0
LINE
8
BLACK
6
CONTINUOUS
10
0.875274
20
-0.922861
11
0.865866
21
-0.934192
0
LINE
8
BLACK
6
CONTINUOUS
10
0.865866
20
-0.934192
11
0.855451
21
-0.944606
0
LINE
8
BLACK
6
CONTINUOUS
10
0.855451
20
-0.944606
11
0.844121
21
-0.954015
0
LINE
8
BLACK
6
CONTINUOUS
10
0.844121
20
-0.954015
11
0.83197
21
-0.962338
0
LINE
8
BLACK
6
CONTINUOUS
10
0.83197
20
-0.962338
11
0.819104
21
-0.969504
0
LINE
8
BLACK
6
CONTINUOUS
10
0.819104
20
-0.969504
11
0.805631
21
-0.975453
0
LINE
8
BLACK
6
CONTINUOUS
10
0.805631
20
-0.975453
11
0.791667
21
-0.980134
0
LINE
8
BLACK
6
CONTINUOUS
10
0.791667
20
-0.980134
11
0.77733
21
-0.983506
0
LINE
8
BLACK
6
CONTINUOUS
10
0.77733
20
-0.983506
11
0.762744
21
-0.98554
0
LINE
8
BLACK
6
CONTINUOUS
10
0.762744
20
-0.98554
11
0.748031
21
-0.98622
0
LINE
8
BLACK
6
CONTINUOUS
10
0.748031
20
-0.98622
11
0.744759
21
-0.98622
0
LINE
8
BLACK
6
CONTINUOUS
10
0.744759
20
-0.98622
11
0.738314
21
-0.987357
0
LINE
8
BLACK
6
CONTINUOUS
10
0.738314
20
-0.987357
11
0.732165
21
-0.989595
0
LINE
8
BLACK
6
CONTINUOUS
10
0.732165
20
-0.989595
11
0.726497
21
-0.992867
0
LINE
8
BLACK
6
CONTINUOUS
10
0.726497
20
-0.992867
11
0.721484
21
-0.997074
0
LINE
8
BLACK
6
CONTINUOUS
10
0.721484
20
-0.997074
11
0.717277
21
-1.00209
0
LINE
8
BLACK
6
CONTINUOUS
10
0.717277
20
-1.00209
11
0.714005
21
-1.00776
0
LINE
8
BLACK
6
CONTINUOUS
10
0.714005
20
-1.00776
11
0.711766
21
-1.0139
0
LINE
8
BLACK
6
CONTINUOUS
10
0.711766
20
-1.0139
11
0.71063
21
-1.02035
0
LINE
8
BLACK
6
CONTINUOUS
10
0.71063
20
-1.02035
11
0.71063
21
-1.02362
0
LINE
8
BLACK
6
CONTINUOUS
10
0.71063
20
-1.02362
11
0.71063
21
-4.92126
0
LINE
8
BLACK
6
CONTINUOUS
10
0.71063
20
-4.92126
11
0.71063
21
-4.92126
0
LINE
8
BLACK
6
CONTINUOUS
10
0.71063
20
-4.92126
11
0.71063
21
-4.92453
0
LINE
8
BLACK
6
CONTINUOUS
10
0.71063
20
-4.92453
11
0.711766
21
-4.93098
0
LINE
8
BLACK
6
CONTINUOUS
10
0.711766
20
-4.93098
11
0.714005
21
-4.93713
0
LINE
8
BLACK
6
CONTINUOUS
10
0.714005
20
-4.93713
11
0.717277
21
-4.94279
0
LINE
8
BLACK
6
CONTINUOUS
10
0.717277
20
-4.94279
11
0.721484
21
-4.94781
0
LINE
8
BLACK
6
CONTINUOUS
10
0.721484
20
-4.94781
11
0.726497
21
-4.95201
0
LINE
8
BLACK
6
CONTINUOUS
10
0.726497
20
-4.95201
11
0.732165
21
-4.95529
0
LINE
8
BLACK
6
CONTINUOUS
10
0.732165
20
-4.95529
11
0.738314
21
-4.95752
0
LINE
8
BLACK
6
CONTINUOUS
10
0.738314
20
-4.95752
11
0.744759
21
-4.95866
0
LINE
8
BLACK
6
CONTINUOUS
10
0.744759
20
-4.95866
11
0.748031
21
-4.95866
0
LINE
8
BLACK
6
CONTINUOUS
10
0.748031
20
-4.95866
11
0.762744
21
-4.95934
0
LINE
8
BLACK
6
CONTINUOUS
10
0.762744
20
-4.95934
11
0.77733
21
-4.96138
0
LINE
8
BLACK
6
CONTINUOUS
10
0.77733
20
-4.96138
11
0.791667
21
-4.96475
0
LINE
8
BLACK
6
CONTINUOUS
10
0.791667
20
-4.96475
11
0.805631
21
-4.96943
0
LINE
8
BLACK
6
CONTINUOUS
10
0.805631
20
-4.96943
11
0.819104
21
-4.97538
0
LINE
8
BLACK
6
CONTINUOUS
10
0.819104
20
-4.97538
11
0.83197
21
-4.98254
0
LINE
8
BLACK
6
CONTINUOUS
10
0.83197
20
-4.98254
11
0.844121
21
-4.99087
0
LINE
8
BLACK
6
CONTINUOUS
10
0.844121
20
-4.99087
11
0.855451
21
-5.00028
0
LINE
8
BLACK
6
CONTINUOUS
10
0.855451
20
-5.00028
11
0.865866
21
-5.01069
0
LINE
8
BLACK
6
CONTINUOUS
10
0.865866
20
-5.01069
11
0.875274
21
-5.02202
0
LINE
8
BLACK
6
CONTINUOUS
10
0.875274
20
-5.02202
11
0.883598
21
-5.03417
0
LINE
8
BLACK
6
CONTINUOUS
10
0.883598
20
-5.03417
11
0.890764
21
-5.04704
0
LINE
8
BLACK
6
CONTINUOUS
10
0.890764
20
-5.04704
11
0.896713
21
-5.06051
0
LINE
8
BLACK
6
CONTINUOUS
10
0.896713
20
-5.06051
11
0.901393
21
-5.07447
0
LINE
8
BLACK
6
CONTINUOUS
10
0.901393
20
-5.07447
11
0.904765
21
-5.08881
0
LINE
8
BLACK
6
CONTINUOUS
10
0.904765
20
-5.08881
11
0.9068
21
-5.1034
0
LINE
8
BLACK
6
CONTINUOUS
10
0.9068
20
-5.1034
11
0.90748
21
-5.11811
0
LINE
8
BLACK
6
CONTINUOUS
10
0.90748
20
-5.11811
11
0.90748
21
-5.12138
0
LINE
8
BLACK
6
CONTINUOUS
10
0.90748
20
-5.12138
11
0.908617
21
-5.12783
0
LINE
8
BLACK
6
CONTINUOUS
10
0.908617
20
-5.12783
11
0.910855
21
-5.13398
0
LINE
8
BLACK
6
CONTINUOUS
10
0.910855
20
-5.13398
11
0.914127
21
-5.13964
0
LINE
8
BLACK
6
CONTINUOUS
10
0.914127
20
-5.13964
11
0.918334
21
-5.14466
0
LINE
8
BLACK
6
CONTINUOUS
10
0.918334
20
-5.14466
11
0.923347
21
-5.14886
0
LINE
8
BLACK
6
CONTINUOUS
10
0.923347
20
-5.14886
11
0.929015
21
-5.15214
0
LINE
8
BLACK
6
CONTINUOUS
10
0.929015
20
-5.15214
11
0.935165
21
-5.15438
0
LINE
8
BLACK
6
CONTINUOUS
10
0.935165
20
-5.15438
11
0.94161
21
-5.15551
0
LINE
8
BLACK
6
CONTINUOUS
10
0.94161
20
-5.15551
11
0.944882
21
-5.15551
0
LINE
8
BLACK
6
CONTINUOUS
10
0.944882
20
-5.15551
11
3.93701
21
-5.15551
0
LINE
8
BLACK
6
CONTINUOUS
10
3.93701
20
-5.15551
11
3.94028
21
-5.15551
0
LINE
8
BLACK
6
CONTINUOUS
10
3.94028
20
-5.15551
11
3.94673
21
-5.15438
0
LINE
8
BLACK
6
CONTINUOUS
10
3.94673
20
-5.15438
11
3.95287
21
-5.15214
0
LINE
8
BLACK
6
CONTINUOUS
10
3.95287
20
-5.15214
11
3.95854
21
-5.14886
0
LINE
8
BLACK
6
CONTINUOUS
10
3.95854
20
-5.14886
11
3.96356
21
-5.14466
0
LINE
8
BLACK
6
CONTINUOUS
10
3.96356
20
-5.14466
11
3.96776
21
-5.13964
0
LINE
8
BLACK
6
CONTINUOUS
10
3.96776
20
-5.13964
11
3.97103
21
-5.13398
0
LINE
8
BLACK
6
CONTINUOUS
10
3.97103
20
-5.13398
11
3.97327
21
-5.12783
0
LINE
8
BLACK
6
CONTINUOUS
10
3.97327
20
-5.12783
11
3.97441
21
-5.12138
0
LINE
8
BLACK
6
CONTINUOUS
10
3.97441
20
-5.12138
11
3.97441
21
-5.11811
0
LINE
8
BLACK
6
CONTINUOUS
10
3.97441
20
-5.11811
11
3.97513
21
-5.10295
0
LINE
8
BLACK
6
CONTINUOUS
10
3.97513
20
-5.10295
11
3.97729
21
-5.08793
0
LINE
8
BLACK
6
CONTINUOUS
10
3.97729
20
-5.08793
11
3.98087
21
-5.07319
0
LINE
8
BLACK
6
CONTINUOUS
10
3.98087
20
-5.07319
11
3.98583
21
-5.05885
0
LINE
8
BLACK
6
CONTINUOUS
10
3.98583
20
-5.05885
11
3.99213
21
-5.04505
0
LINE
8
BLACK
6
CONTINUOUS
10
3.99213
20
-5.04505
11
3.99972
21
-5.03191
0
LINE
8
BLACK
6
CONTINUOUS
10
3.99972
20
-5.03191
11
4.00852
21
-5.01955
0
LINE
8
BLACK
6
CONTINUOUS
10
4.00852
20
-5.01955
11
4.01846
21
-5.00808
0
LINE
8
BLACK
6
CONTINUOUS
10
4.01846
20
-5.00808
11
4.02944
21
-4.99761
0
LINE
8
BLACK
6
CONTINUOUS
10
4.02944
20
-4.99761
11
4.04137
21
-4.98823
0
LINE
8
BLACK
6
CONTINUOUS
10
4.04137
20
-4.98823
11
4.05413
21
-4.98002
0
LINE
8
BLACK
6
CONTINUOUS
10
4.05413
20
-4.98002
11
4.06762
21
-4.97307
0
LINE
8
BLACK
6
CONTINUOUS
10
4.06762
20
-4.97307
11
4.08171
21
-4.96743
0
LINE
8
BLACK
6
CONTINUOUS
10
4.08171
20
-4.96743
11
4.09627
21
-4.96316
0
LINE
8
BLACK
6
CONTINUOUS
10
4.09627
20
-4.96316
11
4.11117
21
-4.96028
0
LINE
8
BLACK
6
CONTINUOUS
10
4.11117
20
-4.96028
11
4.12627
21
-4.95884
0
LINE
8
BLACK
6
CONTINUOUS
10
4.12627
20
-4.95884
11
4.14145
21
-4.95884
0
LINE
8
BLACK
6
CONTINUOUS
10
4.14145
20
-4.95884
11
4.15655
21
-4.96028
0
LINE
8
BLACK
6
CONTINUOUS
10
4.15655
20
-4.96028
11
4.17145
21
-4.96316
0
LINE
8
BLACK
6
CONTINUOUS
10
4.17145
20
-4.96316
11
4.18601
21
-4.96743
0
LINE
8
BLACK
6
CONTINUOUS
10
4.18601
20
-4.96743
11
4.2001
21
-4.97307
0
LINE
8
BLACK
6
CONTINUOUS
10
4.2001
20
-4.97307
11
4.21358
21
-4.98002
0
LINE
8
BLACK
6
CONTINUOUS
10
4.21358
20
-4.98002
11
4.22635
21
-4.98823
0
LINE
8
BLACK
6
CONTINUOUS
10
4.22635
20
-4.98823
11
4.23828
21
-4.99761
0
LINE
8
BLACK
6
CONTINUOUS
10
4.23828
20
-4.99761
11
4.24926
21
-5.00808
0
LINE
8
BLACK
6
CONTINUOUS
10
4.24926
20
-5.00808
11
4.25919
21
-5.01955
0
LINE
8
BLACK
6
CONTINUOUS
10
4.25919
20
-5.01955
11
4.268
21
-5.03191
0
LINE
8
BLACK
6
CONTINUOUS
10
4.268
20
-5.03191
11
4.27558
21
-5.04505
0
LINE
8
BLACK
6
CONTINUOUS
10
4.27558
20
-5.04505
11
4.28189
21
-5.05885
0
LINE
8
BLACK
6
CONTINUOUS
10
4.28189
20
-5.05885
11
4.28685
21
-5.07319
0
LINE
8
BLACK
6
CONTINUOUS
10
4.28685
20
-5.07319
11
4.29043
21
-5.08793
0
LINE
8
BLACK
6
CONTINUOUS
10
4.29043
20
-5.08793
11
4.29259
21
-5.10295
0
LINE
8
BLACK
6
CONTINUOUS
10
4.29259
20
-5.10295
11
4.29331
21
-5.11811
0
LINE
8
BLACK
6
CONTINUOUS
10
4.29331
20
-5.11811
11
4.29331
21
-5.11811
0
LINE
8
BLACK
6
CONTINUOUS
10
4.29331
20
-5.11811
11
4.29331
21
-5.12138
0
LINE
8
BLACK
6
CONTINUOUS
10
4.29331
20
-5.12138
11
4.29444
21
-5.12783
0
LINE
8
BLACK
6
CONTINUOUS
10
4.29444
20
-5.12783
11
4.29668
21
-5.13398
0
LINE
8
BLACK
6
CONTINUOUS
10
4.29668
20
-5.13398
11
4.29995
21
-5.13964
0
LINE
8
BLACK
6
CONTINUOUS
10
4.29995
20
-5.13964
11
4.30416
21
-5.14466
0
LINE
8
BLACK
6
CONTINUOUS
10
4.30416
20
-5.14466
11
4.30917
21
-5.14886
0
LINE
8
BLACK
6
CONTINUOUS
10
4.30917
20
-5.14886
11
4.31484
21
-5.15214
0
LINE
8
BLACK
6
CONTINUOUS
10
4.31484
20
-5.15214
11
4.32099
21
-5.15438
0
LINE
8
BLACK
6
CONTINUOUS
10
4.32099
20
-5.15438
11
4.32744
21
-5.15551
0
LINE
8
BLACK
6
CONTINUOUS
10
4.32744
20
-5.15551
11
4.33071
21
-5.15551
0
LINE
8
BLACK
6
CONTINUOUS
10
4.33071
20
-5.15551
11
7.32283
21
-5.15551
0
LINE
8
BLACK
6
CONTINUOUS
10
7.32283
20
-5.15551
11
7.32611
21
-5.15551
0
LINE
8
BLACK
6
CONTINUOUS
10
7.32611
20
-5.15551
11
7.33255
21
-5.15438
0
LINE
8
BLACK
6
CONTINUOUS
10
7.33255
20
-5.15438
11
7.3387
21
-5.15214
0
LINE
8
BLACK
6
CONTINUOUS
10
7.3387
20
-5.15214
11
7.34437
21
-5.14886
0
LINE
8
BLACK
6
CONTINUOUS
10
7.34437
20
-5.14886
11
7.34938
21
-5.14466
0
LINE
8
BLACK
6
CONTINUOUS
10
7.34938
20
-5.14466
11
7.35359
21
-5.13964
0
LINE
8
BLACK
6
CONTINUOUS
10
7.35359
20
-5.13964
11
7.35686
21
-5.13398
0
LINE
8
BLACK
6
CONTINUOUS
10
7.35686
20
-5.13398
11
7.3591
21
-5.12783
0
LINE
8
BLACK
6
CONTINUOUS
10
7.3591
20
-5.12783
11
7.36024
21
-5.12138
0
LINE
8
BLACK
6
CONTINUOUS
10
7.36024
20
-5.12138
11
7.36024
21
-5.11811
0
LINE
8
BLACK
6
CONTINUOUS
10
7.36024
20
-5.11811
11
7.36092
21
-5.1034
0
LINE
8
BLACK
6
CONTINUOUS
10
7.36092
20
-5.1034
11
7.36295
21
-5.08881
0
LINE
8
BLACK
6
CONTINUOUS
10
7.36295
20
-5.08881
11
7.36632
21
-5.07447
0
LINE
8
BLACK
6
CONTINUOUS
10
7.36632
20
-5.07447
11
7.371
21
-5.06051
0
LINE
8
BLACK
6
CONTINUOUS
10
7.371
20
-5.06051
11
7.37695
21
-5.04704
0
LINE
8
BLACK
6
CONTINUOUS
10
7.37695
20
-5.04704
11
7.38412
21
-5.03417
0
LINE
8
BLACK
6
CONTINUOUS
10
7.38412
20
-5.03417
11
7.39244
21
-5.02202
0
LINE
8
BLACK
6
CONTINUOUS
10
7.39244
20
-5.02202
11
7.40185
21
-5.01069
0
LINE
8
BLACK
6
CONTINUOUS
10
7.40185
20
-5.01069
11
7.41227
21
-5.00028
0
LINE
8
BLACK
6
CONTINUOUS
10
7.41227
20
-5.00028
11
7.4236
21
-4.99087
0
LINE
8
BLACK
6
CONTINUOUS
10
7.4236
20
-4.99087
11
7.43575
21
-4.98254
0
LINE
8
BLACK
6
CONTINUOUS
10
7.43575
20
-4.98254
11
7.44861
21
-4.97538
0
LINE
8
BLACK
6
CONTINUOUS
10
7.44861
20
-4.97538
11
7.46209
21
-4.96943
0
LINE
8
BLACK
6
CONTINUOUS
10
7.46209
20
-4.96943
11
7.47605
21
-4.96475
0
LINE
8
BLACK
6
CONTINUOUS
10
7.47605
20
-4.96475
11
7.49039
21
-4.96138
0
LINE
8
BLACK
6
CONTINUOUS
10
7.49039
20
-4.96138
11
7.50497
21
-4.95934
0
LINE
8
BLACK
6
CONTINUOUS
10
7.50497
20
-4.95934
11
7.51969
21
-4.95866
0
LINE
8
BLACK
6
CONTINUOUS
10
7.51969
20
-4.95866
11
7.52296
21
-4.95866
0
LINE
8
BLACK
6
CONTINUOUS
10
7.52296
20
-4.95866
11
7.5294
21
-4.95752
0
LINE
8
BLACK
6
CONTINUOUS
10
7.5294
20
-4.95752
11
7.53555
21
-4.95529
0
LINE
8
BLACK
6
CONTINUOUS
10
7.53555
20
-4.95529
11
7.54122
21
-4.95201
0
LINE
8
BLACK
6
CONTINUOUS
10
7.54122
20
-4.95201
11
7.54623
21
-4.94781
0
LINE
8
BLACK
6
CONTINUOUS
10
7.54623
20
-4.94781
11
7.55044
21
-4.94279
0
LINE
8
BLACK
6
CONTINUOUS
10
7.55044
20
-4.94279
11
7.55371
21
-4.93713
0
LINE
8
BLACK
6
CONTINUOUS
10
7.55371
20
-4.93713
11
7.55595
21
-4.93098
0
LINE
8
BLACK
6
CONTINUOUS
10
7.55595
20
-4.93098
11
7.55709
21
-4.92453
0
LINE
8
BLACK
6
CONTINUOUS
10
7.55709
20
-4.92453
11
7.55709
21
-4.92126
0
LINE
8
BLACK
6
CONTINUOUS
10
7.55709
20
-4.92126
11
7.55709
21
-4.92126
0
LINE
8
BLACK
6
CONTINUOUS
10
7.55709
20
-4.92126
11
7.55709
21
-1.02362
0
LINE
8
BLACK
6
CONTINUOUS
10
7.55709
20
-1.02362
11
7.55709
21
-1.02035
0
LINE
8
BLACK
6
CONTINUOUS
10
7.55709
20
-1.02035
11
7.55595
21
-1.0139
0
LINE
8
BLACK
6
CONTINUOUS
10
7.55595
20
-1.0139
11
7.55371
21
-1.00776
0
LINE
8
BLACK
6
CONTINUOUS
10
7.55371
20
-1.00776
11
7.55044
21
-1.00209
0
LINE
8
BLACK
6
CONTINUOUS
10
7.55044
20
-1.00209
11
7.54623
21
-0.997074
0
LINE
8
BLACK
6
CONTINUOUS
10
7.54623
20
-0.997074
11
7.54122
21
-0.992867
0
LINE
8
BLACK
6
CONTINUOUS
10
7.54122
20
-0.992867
11
7.53555
21
-0.989595
0
LINE
8
BLACK
6
CONTINUOUS
10
7.53555
20
-0.989595
11
7.5294
21
-0.987357
0
LINE
8
BLACK
6
CONTINUOUS
10
7.5294
20
-0.987357
11
7.52296
21
-0.98622
0
LINE
8
BLACK
6
CONTINUOUS
10
7.52296
20
-0.98622
11
7.51969
21
-0.98622
0
LINE
8
BLACK
6
CONTINUOUS
10
7.51969
20
-0.98622
11
7.50497
21
-0.98554
0
LINE
8
BLACK
6
CONTINUOUS
10
7.50497
20
-0.98554
11
7.49039
21
-0.983506
0
LINE
8
BLACK
6
CONTINUOUS
10
7.49039
20
-0.983506
11
7.47605
21
-0.980134
0
LINE
8
BLACK
6
CONTINUOUS
10
7.47605
20
-0.980134
11
7.46209
21
-0.975453
0
LINE
8
BLACK
6
CONTINUOUS
10
7.46209
20
-0.975453
11
7.44861
21
-0.969504
0
LINE
8
BLACK
6
CONTINUOUS
10
7.44861
20
-0.969504
11
7.43575
21
-0.962338
0
LINE
8
BLACK
6
CONTINUOUS
10
7.43575
20
-0.962338
11
7.4236
21
-0.954015
0
LINE
8
BLACK
6
CONTINUOUS
10
7.4236
20
-0.954015
11
7.41227
21
-0.944606
0
LINE
8
BLACK
6
CONTINUOUS
10
7.41227
20
-0.944606
11
7.40185
21
-0.934192
0
LINE
8
BLACK
6
CONTINUOUS
10
7.40185
20
-0.934192
11
7.39244
21
-0.922861
0
LINE
8
BLACK
6
CONTINUOUS
10
7.39244
20
-0.922861
11
7.38412
21
-0.910711
0
LINE
8
BLACK
6
CONTINUOUS
10
7.38412
20
-0.910711
11
7.37695
21
-0.897844
0
LINE
8
BLACK
6
CONTINUOUS
10
7.37695
20
-0.897844
11
7.371
21
-0.884371
0
LINE
8
BLACK
6
CONTINUOUS
10
7.371
20
-0.884371
11
7.36632
21
-0.870407
0
LINE
8
BLACK
6
CONTINUOUS
10
7.36632
20
-0.870407
11
7.36295
21
-0.85607
0
LINE
8
BLACK
6
CONTINUOUS
10
7.36295
20
-0.85607
11
7.36092
21
-0.841484
0
LINE
8
BLACK
6
CONTINUOUS
10
7.36092
20
-0.841484
11
7.36024
21
-0.826772
0
LINE
8
BLACK
6
CONTINUOUS
10
7.36024
20
-0.826772
11
7.36024
21
-0.823499
0
LINE
8
BLACK
6
CONTINUOUS
10
7.36024
20
-0.823499
11
7.3591
21
-0.817054
0
LINE
8
BLACK
6
CONTINUOUS
10
7.3591
20
-0.817054
11
7.35686
21
-0.810905
0
LINE
8
BLACK
6
CONTINUOUS
10
7.35686
20
-0.810905
11
7.35359
21
-0.805237
0
LINE
8
BLACK
6
CONTINUOUS
10
7.35359
20
-0.805237
11
7.34938
21
-0.800224
0
LINE
8
BLACK
6
CONTINUOUS
10
7.34938
20
-0.800224
11
7.34437
21
-0.796017
0
LINE
8
BLACK
6
CONTINUOUS
10
7.34437
20
-0.796017
11
7.3387
21
-0.792745
0
LINE
8
BLACK
6
CONTINUOUS
10
7.3387
20
-0.792745
11
7.33255
21
-0.790506
0
LINE
8
BLACK
6
CONTINUOUS
10
7.33255
20
-0.790506
11
7.32611
21
-0.78937
0
LINE
8
BLACK
6
CONTINUOUS
10
7.32611
20
-0.78937
11
7.32283
21
-0.78937
0
LINE
8
BLACK
6
CONTINUOUS
10
7.32283
20
-0.78937
11
4.65551
21
-0.78937
0
LINE
8
BLACK
6
CONTINUOUS
10
4.65551
20
-0.78937
11
4.65551
21
-0.826772
0
LINE
8
BLACK
6
CONTINUOUS
10
4.65551
20
-0.826772
11
4.65491
21
-0.831357
0
LINE
8
BLACK
6
CONTINUOUS
10
4.65491
20
-0.831357
11
4.65314
21
-0.83563
0
LINE
8
BLACK
6
CONTINUOUS
10
4.65314
20
-0.83563
11
4.65032
21
-0.839299
0
LINE
8
BLACK
6
CONTINUOUS
10
4.65032
20
-0.839299
11
4.64665
21
-0.842115
0
LINE
8
BLACK
6
CONTINUOUS
10
4.64665
20
-0.842115
11
4.64238
21
-0.843885
0
LINE
8
BLACK
6
CONTINUOUS
10
4.64238
20
-0.843885
11
4.6378
21
-0.844488
0
LINE
8
BLACK
6
CONTINUOUS
10
4.6378
20
-0.844488
11
4.6378
21
-0.844488
0
LINE
8
BLACK
6
CONTINUOUS
10
4.6378
20
-0.844488
11
4.49606
21
-0.844488
0
LINE
8
BLACK
6
CONTINUOUS
10
4.49606
20
-0.844488
11
4.49148
21
-0.843885
0
LINE
8
BLACK
6
CONTINUOUS
10
4.49148
20
-0.843885
11
4.4872
21
-0.842115
0
LINE
8
BLACK
6
CONTINUOUS
10
4.4872
20
-0.842115
11
4.48354
21
-0.839299
0
LINE
8
BLACK
6
CONTINUOUS
10
4.48354
20
-0.839299
11
4.48072
21
-0.83563
0
LINE
8
BLACK
6
CONTINUOUS
10
4.48072
20
-0.83563
11
4.47895
21
-0.831357
0
LINE
8
BLACK
6
CONTINUOUS
10
4.47895
20
-0.831357
11
4.47835
21
-0.826772
0
LINE
8
BLACK
6
CONTINUOUS
10
4.47835
20
-0.826772
11
4.47835
21
-0.78937
0
LINE
8
BLACK
6
CONTINUOUS
10
4.47835
20
-0.78937
11
4.29331
21
-0.78937
0
LINE
8
BLACK
6
CONTINUOUS
10
4.29331
20
-0.78937
11
4.29331
21
-0.826772
0
LINE
8
BLACK
6
CONTINUOUS
10
4.29331
20
-0.826772
11
4.29259
21
-0.841928
0
LINE
8
BLACK
6
CONTINUOUS
10
4.29259
20
-0.841928
11
4.29043
21
-0.856948
0
LINE
8
BLACK
6
CONTINUOUS
10
4.29043
20
-0.856948
11
4.28685
21
-0.871694
0
LINE
8
BLACK
6
CONTINUOUS
10
4.28685
20
-0.871694
11
4.28189
21
-0.886033
0
LINE
8
BLACK
6
CONTINUOUS
10
4.28189
20
-0.886033
11
4.27558
21
-0.899835
0
LINE
8
BLACK
6
CONTINUOUS
10
4.27558
20
-0.899835
11
4.268
21
-0.912976
0
LINE
8
BLACK
6
CONTINUOUS
10
4.268
20
-0.912976
11
4.25919
21
-0.925336
0
LINE
8
BLACK
6
CONTINUOUS
10
4.25919
20
-0.925336
11
4.24926
21
-0.936804
0
LINE
8
BLACK
6
CONTINUOUS
10
4.24926
20
-0.936804
11
4.23828
21
-0.947275
0
LINE
8
BLACK
6
CONTINUOUS
10
4.23828
20
-0.947275
11
4.22635
21
-0.956655
0
LINE
8
BLACK
6
CONTINUOUS
10
4.22635
20
-0.956655
11
4.21358
21
-0.964858
0
LINE
8
BLACK
6
CONTINUOUS
10
4.21358
20
-0.964858
11
4.2001
21
-0.971811
0
LINE
8
BLACK
6
CONTINUOUS
10
4.2001
20
-0.971811
11
4.18601
21
-0.977451
0
LINE
8
BLACK
6
CONTINUOUS
10
4.18601
20
-0.977451
11
4.17145
21
-0.981726
0
LINE
8
BLACK
6
CONTINUOUS
10
4.17145
20
-0.981726
11
4.15655
21
-0.984598
0
LINE
8
BLACK
6
CONTINUOUS
10
4.15655
20
-0.984598
11
4.14145
21
-0.98604
0
LINE
8
BLACK
6
CONTINUOUS
10
4.14145
20
-0.98604
11
4.12627
21
-0.98604
0
LINE
8
BLACK
6
CONTINUOUS
10
4.12627
20
-0.98604
11
4.11117
21
-0.984598
0
LINE
8
BLACK
6
CONTINUOUS
10
4.11117
20
-0.984598
11
4.09627
21
-0.981726
0
LINE
8
BLACK
6
CONTINUOUS
10
4.09627
20
-0.981726
11
4.08171
21
-0.977451
0
LINE
8
BLACK
6
CONTINUOUS
10
4.08171
20
-0.977451
11
4.06762
21
-0.971811
0
LINE
8
BLACK
6
CONTINUOUS
10
4.06762
20
-0.971811
11
4.05413
21
-0.964858
0
LINE
8
BLACK
6
CONTINUOUS
10
4.05413
20
-0.964858
11
4.04137
21
-0.956655
0
LINE
8
BLACK
6
CONTINUOUS
10
4.04137
20
-0.956655
11
4.02944
21
-0.947275
0
LINE
8
BLACK
6
CONTINUOUS
10
4.02944
20
-0.947275
11
4.01846
21
-0.936804
0
LINE
8
BLACK
6
CONTINUOUS
10
4.01846
20
-0.936804
11
4.00852
21
-0.925336
0
LINE
8
BLACK
6
CONTINUOUS
10
4.00852
20
-0.925336
11
3.99972
21
-0.912976
0
LINE
8
BLACK
6
CONTINUOUS
10
3.99972
20
-0.912976
11
3.99213
21
-0.899835
0
LINE
8
BLACK
6
CONTINUOUS
10
3.99213
20
-0.899835
11
3.98583
21
-0.886033
0
LINE
8
BLACK
6
CONTINUOUS
10
3.98583
20
-0.886033
11
3.98087
21
-0.871694
0
LINE
8
BLACK
6
CONTINUOUS
10
3.98087
20
-0.871694
11
3.97729
21
-0.856948
0
LINE
8
BLACK
6
CONTINUOUS
10
3.97729
20
-0.856948
11
3.97513
21
-0.841928
0
LINE
8
BLACK
6
CONTINUOUS
10
3.97513
20
-0.841928
11
3.97441
21
-0.826772
0
LINE
8
BLACK
6
CONTINUOUS
10
3.97441
20
-0.826772
11
3.97441
21
-0.78937
0
LINE
8
BLACK
6
CONTINUOUS
10
3.97441
20
-0.78937
11
3.78937
21
-0.78937
0
LINE
8
BLACK
6
CONTINUOUS
10
3.78937
20
-0.78937
11
3.78937
21
-0.826772
0
LINE
8
BLACK
6
CONTINUOUS
10
3.78937
20
-0.826772
11
3.78877
21
-0.831357
0
LINE
8
BLACK
6
CONTINUOUS
10
3.78877
20
-0.831357
11
3.787
21
-0.83563
0
LINE
8
BLACK
6
CONTINUOUS
10
3.787
20
-0.83563
11
3.78418
21
-0.839299
0
LINE
8
BLACK
6
CONTINUOUS
10
3.78418
20
-0.839299
11
3.78051
21
-0.842115
0
LINE
8
BLACK
6
CONTINUOUS
10
3.78051
20
-0.842115
11
3.77624
21
-0.843885
0
LINE
8
BLACK
6
CONTINUOUS
10
3.77624
20
-0.843885
11
3.77165
21
-0.844488
0
LINE
8
BLACK
6
CONTINUOUS
10
3.77165
20
-0.844488
11
3.62992
21
-0.844488
0
LINE
8
BLACK
6
CONTINUOUS
10
3.62992
20
-0.844488
11
3.62534
21
-0.843885
0
LINE
8
BLACK
6
CONTINUOUS
10
3.62534
20
-0.843885
11
3.62106
21
-0.842115
0
LINE
8
BLACK
6
CONTINUOUS
10
3.62106
20
-0.842115
11
3.61739
21
-0.839299
0
LINE
8
BLACK
6
CONTINUOUS
10
3.61739
20
-0.839299
11
3.61458
21
-0.83563
0
LINE
8
BLACK
6
CONTINUOUS
10
3.61458
20
-0.83563
11
3.61281
21
-0.831357
0
LINE
8
BLACK
6
CONTINUOUS
10
3.61281
20
-0.831357
11
3.6122
21
-0.826772
0
LINE
8
BLACK
6
CONTINUOUS
10
3.6122
20
-0.826772
11
3.6122
21
-0.78937
0
LINE
8
BLACK
6
CONTINUOUS
10
3.6122
20
-0.78937
11
0.944882
21
-0.78937
  0
ENDSEC
  0
EOF
