  0
SECTION
  2
HEADER
  9
$ANGBASE
  50
0.0
  9
$ANGDIR
  70
1
  9
$MEASUREMENT
  70
0
  0
ENDSEC
  0
SECTION
  2
TABLES
  0
TABLE
  2
LTYPE
  70
4
  0
LTYPE
  5
40F
  2
CONTINUOUS
  70
0
  3
Solid line
  72
65
  73
0
  40
0.0
  0
LTYPE
  5
410
  2
DASHDOT
 70
0
  3
Dash Dot ____ _ ____ _
 72
65
 73
4
 40
2.0
 49
1.25
 49
-0.25
 49
0.25
 49
-0.25
  0
LTYPE
  5
411
  2
DASHED
 70
0
  3
Dashed __ __ __ __ __
 72
65
 73
2
 40
0.75
 49
0.5
 49
-0.25
  0
LTYPE
  5
43B
  2
DOTTED
 70
0
  3
Dotted .  .  .  .
 72
65
 73
2
 40
0.2
 49
0.0
 49
-0.2
  0
ENDTAB
  0
TABLE
  2
STYLE
  70
4
  0
STYLE
  2
KICAD
  70
0
  40
0
  41
1
  42
1
  50
0
  71
0
  3
isocp.shx
  0
STYLE
  2
KICADB
  70
0
  40
0
  41
1
  42
1
  50
0
  71
0
  3
isocp.shx
  0
STYLE
  2
KICADI
  70
0
  40
0
  41
1
  42
1
  50
15
  71
0
  3
isocp.shx
  0
STYLE
  2
KICADBI
  70
0
  40
0
  41
1
  42
1
  50
15
  71
0
  3
isocp.shx
  0
ENDTAB
  0
TABLE
  2
LAYER
  70
1
  0
LAYER
  2
BLACK
  70
0
  62
7
  6
CONTINUOUS
  0
ENDTAB
  0
ENDSEC
  0
SECTION
  2
ENTITIES
0
LINE
8
BLACK
6
CONTINUOUS
10
4.70214
20
-4.69047
11
4.71375
21
-4.69345
0
LINE
8
BLACK
6
CONTINUOUS
10
4.71375
20
-4.69345
11
4.7249
21
-4.69787
0
LINE
8
BLACK
6
CONTINUOUS
10
4.7249
20
-4.69787
11
4.73541
21
-4.70364
0
LINE
8
BLACK
6
CONTINUOUS
10
4.73541
20
-4.70364
11
4.74511
21
-4.71069
0
LINE
8
BLACK
6
CONTINUOUS
10
4.74511
20
-4.71069
11
4.75385
21
-4.7189
0
LINE
8
BLACK
6
CONTINUOUS
10
4.75385
20
-4.7189
11
4.76149
21
-4.72813
0
LINE
8
BLACK
6
CONTINUOUS
10
4.76149
20
-4.72813
11
4.76792
21
-4.73826
0
LINE
8
BLACK
6
CONTINUOUS
10
4.76792
20
-4.73826
11
4.77302
21
-4.74911
0
LINE
8
BLACK
6
CONTINUOUS
10
4.77302
20
-4.74911
11
4.77672
21
-4.76051
0
LINE
8
BLACK
6
CONTINUOUS
10
4.77672
20
-4.76051
11
4.77897
21
-4.77229
0
LINE
8
BLACK
6
CONTINUOUS
10
4.77897
20
-4.77229
11
4.77972
21
-4.78425
0
LINE
8
BLACK
6
CONTINUOUS
10
4.77972
20
-4.78425
11
4.77897
21
-4.79622
0
LINE
8
BLACK
6
CONTINUOUS
10
4.77897
20
-4.79622
11
4.77672
21
-4.808
0
LINE
8
BLACK
6
CONTINUOUS
10
4.77672
20
-4.808
11
4.77302
21
-4.8194
0
LINE
8
BLACK
6
CONTINUOUS
10
4.77302
20
-4.8194
11
4.76792
21
-4.83025
0
LINE
8
BLACK
6
CONTINUOUS
10
4.76792
20
-4.83025
11
4.76149
21
-4.84037
0
LINE
8
BLACK
6
CONTINUOUS
10
4.76149
20
-4.84037
11
4.75385
21
-4.84961
0
LINE
8
BLACK
6
CONTINUOUS
10
4.75385
20
-4.84961
11
4.74511
21
-4.85781
0
LINE
8
BLACK
6
CONTINUOUS
10
4.74511
20
-4.85781
11
4.73541
21
-4.86486
0
LINE
8
BLACK
6
CONTINUOUS
10
4.73541
20
-4.86486
11
4.7249
21
-4.87064
0
LINE
8
BLACK
6
CONTINUOUS
10
4.7249
20
-4.87064
11
4.71375
21
-4.87505
0
LINE
8
BLACK
6
CONTINUOUS
10
4.71375
20
-4.87505
11
4.70214
21
-4.87803
0
LINE
8
BLACK
6
CONTINUOUS
10
4.70214
20
-4.87803
11
4.69025
21
-4.87954
0
LINE
8
BLACK
6
CONTINUOUS
10
4.69025
20
-4.87954
11
4.67826
21
-4.87954
0
LINE
8
BLACK
6
CONTINUOUS
10
4.67826
20
-4.87954
11
4.66636
21
-4.87803
0
LINE
8
BLACK
6
CONTINUOUS
10
4.66636
20
-4.87803
11
4.65475
21
-4.87505
0
LINE
8
BLACK
6
CONTINUOUS
10
4.65475
20
-4.87505
11
4.6436
21
-4.87064
0
LINE
8
BLACK
6
CONTINUOUS
10
4.6436
20
-4.87064
11
4.6331
21
-4.86486
0
LINE
8
BLACK
6
CONTINUOUS
10
4.6331
20
-4.86486
11
4.6234
21
-4.85781
0
LINE
8
BLACK
6
CONTINUOUS
10
4.6234
20
-4.85781
11
4.61466
21
-4.84961
0
LINE
8
BLACK
6
CONTINUOUS
10
4.61466
20
-4.84961
11
4.60701
21
-4.84037
0
LINE
8
BLACK
6
CONTINUOUS
10
4.60701
20
-4.84037
11
4.60059
21
-4.83025
0
LINE
8
BLACK
6
CONTINUOUS
10
4.60059
20
-4.83025
11
4.59548
21
-4.8194
0
LINE
8
BLACK
6
CONTINUOUS
10
4.59548
20
-4.8194
11
4.59178
21
-4.808
0
LINE
8
BLACK
6
CONTINUOUS
10
4.59178
20
-4.808
11
4.58953
21
-4.79622
0
LINE
8
BLACK
6
CONTINUOUS
10
4.58953
20
-4.79622
11
4.58878
21
-4.78425
0
LINE
8
BLACK
6
CONTINUOUS
10
4.58878
20
-4.78425
11
4.58953
21
-4.77229
0
LINE
8
BLACK
6
CONTINUOUS
10
4.58953
20
-4.77229
11
4.59178
21
-4.76051
0
LINE
8
BLACK
6
CONTINUOUS
10
4.59178
20
-4.76051
11
4.59548
21
-4.74911
0
LINE
8
BLACK
6
CONTINUOUS
10
4.59548
20
-4.74911
11
4.60059
21
-4.73826
0
LINE
8
BLACK
6
CONTINUOUS
10
4.60059
20
-4.73826
11
4.60701
21
-4.72813
0
LINE
8
BLACK
6
CONTINUOUS
10
4.60701
20
-4.72813
11
4.61466
21
-4.7189
0
LINE
8
BLACK
6
CONTINUOUS
10
4.61466
20
-4.7189
11
4.6234
21
-4.71069
0
LINE
8
BLACK
6
CONTINUOUS
10
4.6234
20
-4.71069
11
4.6331
21
-4.70364
0
LINE
8
BLACK
6
CONTINUOUS
10
4.6331
20
-4.70364
11
4.6436
21
-4.69787
0
LINE
8
BLACK
6
CONTINUOUS
10
4.6436
20
-4.69787
11
4.65475
21
-4.69345
0
LINE
8
BLACK
6
CONTINUOUS
10
4.65475
20
-4.69345
11
4.66636
21
-4.69047
0
LINE
8
BLACK
6
CONTINUOUS
10
4.66636
20
-4.69047
11
4.67826
21
-4.68897
0
LINE
8
BLACK
6
CONTINUOUS
10
4.67826
20
-4.68897
11
4.69025
21
-4.68897
0
LINE
8
BLACK
6
CONTINUOUS
10
4.69025
20
-4.68897
11
4.70214
21
-4.69047
0
LINE
8
BLACK
6
CONTINUOUS
10
4.59526
20
-4.79597
11
4.59755
21
-4.80748
0
LINE
8
BLACK
6
CONTINUOUS
10
4.59755
20
-4.80748
11
4.60133
21
-4.8186
0
LINE
8
BLACK
6
CONTINUOUS
10
4.60133
20
-4.8186
11
4.60652
21
-4.82913
0
LINE
8
BLACK
6
CONTINUOUS
10
4.60652
20
-4.82913
11
4.61304
21
-4.83889
0
LINE
8
BLACK
6
CONTINUOUS
10
4.61304
20
-4.83889
11
4.62078
21
-4.84772
0
LINE
8
BLACK
6
CONTINUOUS
10
4.62078
20
-4.84772
11
4.62961
21
-4.85546
0
LINE
8
BLACK
6
CONTINUOUS
10
4.62961
20
-4.85546
11
4.63937
21
-4.86199
0
LINE
8
BLACK
6
CONTINUOUS
10
4.63937
20
-4.86199
11
4.6499
21
-4.86718
0
LINE
8
BLACK
6
CONTINUOUS
10
4.6499
20
-4.86718
11
4.66102
21
-4.87095
0
LINE
8
BLACK
6
CONTINUOUS
10
4.66102
20
-4.87095
11
4.67254
21
-4.87324
0
LINE
8
BLACK
6
CONTINUOUS
10
4.67254
20
-4.87324
11
4.68425
21
-4.87401
0
LINE
8
BLACK
6
CONTINUOUS
10
4.68425
20
-4.87401
11
4.69597
21
-4.87324
0
LINE
8
BLACK
6
CONTINUOUS
10
4.69597
20
-4.87324
11
4.70748
21
-4.87095
0
LINE
8
BLACK
6
CONTINUOUS
10
4.70748
20
-4.87095
11
4.7186
21
-4.86718
0
LINE
8
BLACK
6
CONTINUOUS
10
4.7186
20
-4.86718
11
4.72913
21
-4.86199
0
LINE
8
BLACK
6
CONTINUOUS
10
4.72913
20
-4.86199
11
4.73889
21
-4.85546
0
LINE
8
BLACK
6
CONTINUOUS
10
4.73889
20
-4.85546
11
4.74772
21
-4.84772
0
LINE
8
BLACK
6
CONTINUOUS
10
4.74772
20
-4.84772
11
4.75546
21
-4.83889
0
LINE
8
BLACK
6
CONTINUOUS
10
4.75546
20
-4.83889
11
4.76199
21
-4.82913
0
LINE
8
BLACK
6
CONTINUOUS
10
4.76199
20
-4.82913
11
4.76718
21
-4.8186
0
LINE
8
BLACK
6
CONTINUOUS
10
4.76718
20
-4.8186
11
4.77095
21
-4.80748
0
LINE
8
BLACK
6
CONTINUOUS
10
4.77095
20
-4.80748
11
4.77324
21
-4.79597
0
LINE
8
BLACK
6
CONTINUOUS
10
4.77324
20
-4.79597
11
4.77401
21
-4.78425
0
LINE
8
BLACK
6
CONTINUOUS
10
4.77401
20
-4.78425
11
4.77324
21
-4.77254
0
LINE
8
BLACK
6
CONTINUOUS
10
4.77324
20
-4.77254
11
4.77095
21
-4.76102
0
LINE
8
BLACK
6
CONTINUOUS
10
4.77095
20
-4.76102
11
4.76718
21
-4.7499
0
LINE
8
BLACK
6
CONTINUOUS
10
4.76718
20
-4.7499
11
4.76199
21
-4.73937
0
LINE
8
BLACK
6
CONTINUOUS
10
4.76199
20
-4.73937
11
4.75546
21
-4.72961
0
LINE
8
BLACK
6
CONTINUOUS
10
4.75546
20
-4.72961
11
4.74772
21
-4.72078
0
LINE
8
BLACK
6
CONTINUOUS
10
4.74772
20
-4.72078
11
4.73889
21
-4.71304
0
LINE
8
BLACK
6
CONTINUOUS
10
4.73889
20
-4.71304
11
4.72913
21
-4.70652
0
LINE
8
BLACK
6
CONTINUOUS
10
4.72913
20
-4.70652
11
4.7186
21
-4.70133
0
LINE
8
BLACK
6
CONTINUOUS
10
4.7186
20
-4.70133
11
4.70748
21
-4.69755
0
LINE
8
BLACK
6
CONTINUOUS
10
4.70748
20
-4.69755
11
4.69597
21
-4.69526
0
LINE
8
BLACK
6
CONTINUOUS
10
4.69597
20
-4.69526
11
4.68425
21
-4.69449
0
LINE
8
BLACK
6
CONTINUOUS
10
4.68425
20
-4.69449
11
4.67254
21
-4.69526
0
LINE
8
BLACK
6
CONTINUOUS
10
4.67254
20
-4.69526
11
4.66102
21
-4.69755
0
LINE
8
BLACK
6
CONTINUOUS
10
4.66102
20
-4.69755
11
4.6499
21
-4.70133
0
LINE
8
BLACK
6
CONTINUOUS
10
4.6499
20
-4.70133
11
4.63937
21
-4.70652
0
LINE
8
BLACK
6
CONTINUOUS
10
4.63937
20
-4.70652
11
4.62961
21
-4.71304
0
LINE
8
BLACK
6
CONTINUOUS
10
4.62961
20
-4.71304
11
4.62078
21
-4.72078
0
LINE
8
BLACK
6
CONTINUOUS
10
4.62078
20
-4.72078
11
4.61304
21
-4.72961
0
LINE
8
BLACK
6
CONTINUOUS
10
4.61304
20
-4.72961
11
4.60652
21
-4.73937
0
LINE
8
BLACK
6
CONTINUOUS
10
4.60652
20
-4.73937
11
4.60133
21
-4.7499
0
LINE
8
BLACK
6
CONTINUOUS
10
4.60133
20
-4.7499
11
4.59755
21
-4.76102
0
LINE
8
BLACK
6
CONTINUOUS
10
4.59755
20
-4.76102
11
4.59526
21
-4.77254
0
LINE
8
BLACK
6
CONTINUOUS
10
4.59526
20
-4.77254
11
4.59449
21
-4.78425
0
LINE
8
BLACK
6
CONTINUOUS
10
4.59449
20
-4.78425
11
4.59526
21
-4.79597
0
LINE
8
BLACK
6
CONTINUOUS
10
6.63206
20
-4.68968
11
6.64368
21
-4.69266
0
LINE
8
BLACK
6
CONTINUOUS
10
6.64368
20
-4.69266
11
6.65482
21
-4.69708
0
LINE
8
BLACK
6
CONTINUOUS
10
6.65482
20
-4.69708
11
6.66533
21
-4.70285
0
LINE
8
BLACK
6
CONTINUOUS
10
6.66533
20
-4.70285
11
6.67503
21
-4.7099
0
LINE
8
BLACK
6
CONTINUOUS
10
6.67503
20
-4.7099
11
6.68377
21
-4.71811
0
LINE
8
BLACK
6
CONTINUOUS
10
6.68377
20
-4.71811
11
6.69141
21
-4.72735
0
LINE
8
BLACK
6
CONTINUOUS
10
6.69141
20
-4.72735
11
6.69784
21
-4.73747
0
LINE
8
BLACK
6
CONTINUOUS
10
6.69784
20
-4.73747
11
6.70294
21
-4.74832
0
LINE
8
BLACK
6
CONTINUOUS
10
6.70294
20
-4.74832
11
6.70665
21
-4.75972
0
LINE
8
BLACK
6
CONTINUOUS
10
6.70665
20
-4.75972
11
6.70889
21
-4.7715
0
LINE
8
BLACK
6
CONTINUOUS
10
6.70889
20
-4.7715
11
6.70965
21
-4.78346
0
LINE
8
BLACK
6
CONTINUOUS
10
6.70965
20
-4.78346
11
6.70889
21
-4.79543
0
LINE
8
BLACK
6
CONTINUOUS
10
6.70889
20
-4.79543
11
6.70665
21
-4.80721
0
LINE
8
BLACK
6
CONTINUOUS
10
6.70665
20
-4.80721
11
6.70294
21
-4.81861
0
LINE
8
BLACK
6
CONTINUOUS
10
6.70294
20
-4.81861
11
6.69784
21
-4.82946
0
LINE
8
BLACK
6
CONTINUOUS
10
6.69784
20
-4.82946
11
6.69141
21
-4.83958
0
LINE
8
BLACK
6
CONTINUOUS
10
6.69141
20
-4.83958
11
6.68377
21
-4.84882
0
LINE
8
BLACK
6
CONTINUOUS
10
6.68377
20
-4.84882
11
6.67503
21
-4.85703
0
LINE
8
BLACK
6
CONTINUOUS
10
6.67503
20
-4.85703
11
6.66533
21
-4.86407
0
LINE
8
BLACK
6
CONTINUOUS
10
6.66533
20
-4.86407
11
6.65482
21
-4.86985
0
LINE
8
BLACK
6
CONTINUOUS
10
6.65482
20
-4.86985
11
6.64368
21
-4.87426
0
LINE
8
BLACK
6
CONTINUOUS
10
6.64368
20
-4.87426
11
6.63206
21
-4.87725
0
LINE
8
BLACK
6
CONTINUOUS
10
6.63206
20
-4.87725
11
6.62017
21
-4.87875
0
LINE
8
BLACK
6
CONTINUOUS
10
6.62017
20
-4.87875
11
6.60818
21
-4.87875
0
LINE
8
BLACK
6
CONTINUOUS
10
6.60818
20
-4.87875
11
6.59628
21
-4.87725
0
LINE
8
BLACK
6
CONTINUOUS
10
6.59628
20
-4.87725
11
6.58467
21
-4.87426
0
LINE
8
BLACK
6
CONTINUOUS
10
6.58467
20
-4.87426
11
6.57352
21
-4.86985
0
LINE
8
BLACK
6
CONTINUOUS
10
6.57352
20
-4.86985
11
6.56302
21
-4.86407
0
LINE
8
BLACK
6
CONTINUOUS
10
6.56302
20
-4.86407
11
6.55332
21
-4.85703
0
LINE
8
BLACK
6
CONTINUOUS
10
6.55332
20
-4.85703
11
6.54458
21
-4.84882
0
LINE
8
BLACK
6
CONTINUOUS
10
6.54458
20
-4.84882
11
6.53693
21
-4.83958
0
LINE
8
BLACK
6
CONTINUOUS
10
6.53693
20
-4.83958
11
6.53051
21
-4.82946
0
LINE
8
BLACK
6
CONTINUOUS
10
6.53051
20
-4.82946
11
6.52541
21
-4.81861
0
LINE
8
BLACK
6
CONTINUOUS
10
6.52541
20
-4.81861
11
6.5217
21
-4.80721
0
LINE
8
BLACK
6
CONTINUOUS
10
6.5217
20
-4.80721
11
6.51945
21
-4.79543
0
LINE
8
BLACK
6
CONTINUOUS
10
6.51945
20
-4.79543
11
6.5187
21
-4.78346
0
LINE
8
BLACK
6
CONTINUOUS
10
6.5187
20
-4.78346
11
6.51945
21
-4.7715
0
LINE
8
BLACK
6
CONTINUOUS
10
6.51945
20
-4.7715
11
6.5217
21
-4.75972
0
LINE
8
BLACK
6
CONTINUOUS
10
6.5217
20
-4.75972
11
6.52541
21
-4.74832
0
LINE
8
BLACK
6
CONTINUOUS
10
6.52541
20
-4.74832
11
6.53051
21
-4.73747
0
LINE
8
BLACK
6
CONTINUOUS
10
6.53051
20
-4.73747
11
6.53693
21
-4.72735
0
LINE
8
BLACK
6
CONTINUOUS
10
6.53693
20
-4.72735
11
6.54458
21
-4.71811
0
LINE
8
BLACK
6
CONTINUOUS
10
6.54458
20
-4.71811
11
6.55332
21
-4.7099
0
LINE
8
BLACK
6
CONTINUOUS
10
6.55332
20
-4.7099
11
6.56302
21
-4.70285
0
LINE
8
BLACK
6
CONTINUOUS
10
6.56302
20
-4.70285
11
6.57352
21
-4.69708
0
LINE
8
BLACK
6
CONTINUOUS
10
6.57352
20
-4.69708
11
6.58467
21
-4.69266
0
LINE
8
BLACK
6
CONTINUOUS
10
6.58467
20
-4.69266
11
6.59628
21
-4.68968
0
LINE
8
BLACK
6
CONTINUOUS
10
6.59628
20
-4.68968
11
6.60818
21
-4.68818
0
LINE
8
BLACK
6
CONTINUOUS
10
6.60818
20
-4.68818
11
6.62017
21
-4.68818
0
LINE
8
BLACK
6
CONTINUOUS
10
6.62017
20
-4.68818
11
6.63206
21
-4.68968
0
LINE
8
BLACK
6
CONTINUOUS
10
6.52518
20
-4.79518
11
6.52747
21
-4.8067
0
LINE
8
BLACK
6
CONTINUOUS
10
6.52747
20
-4.8067
11
6.53125
21
-4.81781
0
LINE
8
BLACK
6
CONTINUOUS
10
6.53125
20
-4.81781
11
6.53644
21
-4.82834
0
LINE
8
BLACK
6
CONTINUOUS
10
6.53644
20
-4.82834
11
6.54296
21
-4.83811
0
LINE
8
BLACK
6
CONTINUOUS
10
6.54296
20
-4.83811
11
6.5507
21
-4.84693
0
LINE
8
BLACK
6
CONTINUOUS
10
6.5507
20
-4.84693
11
6.55953
21
-4.85468
0
LINE
8
BLACK
6
CONTINUOUS
10
6.55953
20
-4.85468
11
6.56929
21
-4.8612
0
LINE
8
BLACK
6
CONTINUOUS
10
6.56929
20
-4.8612
11
6.57982
21
-4.86639
0
LINE
8
BLACK
6
CONTINUOUS
10
6.57982
20
-4.86639
11
6.59094
21
-4.87017
0
LINE
8
BLACK
6
CONTINUOUS
10
6.59094
20
-4.87017
11
6.60246
21
-4.87246
0
LINE
8
BLACK
6
CONTINUOUS
10
6.60246
20
-4.87246
11
6.61417
21
-4.87322
0
LINE
8
BLACK
6
CONTINUOUS
10
6.61417
20
-4.87322
11
6.62589
21
-4.87246
0
LINE
8
BLACK
6
CONTINUOUS
10
6.62589
20
-4.87246
11
6.6374
21
-4.87017
0
LINE
8
BLACK
6
CONTINUOUS
10
6.6374
20
-4.87017
11
6.64852
21
-4.86639
0
LINE
8
BLACK
6
CONTINUOUS
10
6.64852
20
-4.86639
11
6.65905
21
-4.8612
0
LINE
8
BLACK
6
CONTINUOUS
10
6.65905
20
-4.8612
11
6.66882
21
-4.85468
0
LINE
8
BLACK
6
CONTINUOUS
10
6.66882
20
-4.85468
11
6.67764
21
-4.84693
0
LINE
8
BLACK
6
CONTINUOUS
10
6.67764
20
-4.84693
11
6.68538
21
-4.83811
0
LINE
8
BLACK
6
CONTINUOUS
10
6.68538
20
-4.83811
11
6.69191
21
-4.82834
0
LINE
8
BLACK
6
CONTINUOUS
10
6.69191
20
-4.82834
11
6.6971
21
-4.81781
0
LINE
8
BLACK
6
CONTINUOUS
10
6.6971
20
-4.81781
11
6.70087
21
-4.8067
0
LINE
8
BLACK
6
CONTINUOUS
10
6.70087
20
-4.8067
11
6.70316
21
-4.79518
0
LINE
8
BLACK
6
CONTINUOUS
10
6.70316
20
-4.79518
11
6.70393
21
-4.78346
0
LINE
8
BLACK
6
CONTINUOUS
10
6.70393
20
-4.78346
11
6.70316
21
-4.77175
0
LINE
8
BLACK
6
CONTINUOUS
10
6.70316
20
-4.77175
11
6.70087
21
-4.76023
0
LINE
8
BLACK
6
CONTINUOUS
10
6.70087
20
-4.76023
11
6.6971
21
-4.74912
0
LINE
8
BLACK
6
CONTINUOUS
10
6.6971
20
-4.74912
11
6.69191
21
-4.73859
0
LINE
8
BLACK
6
CONTINUOUS
10
6.69191
20
-4.73859
11
6.68538
21
-4.72882
0
LINE
8
BLACK
6
CONTINUOUS
10
6.68538
20
-4.72882
11
6.67764
21
-4.72
0
LINE
8
BLACK
6
CONTINUOUS
10
6.67764
20
-4.72
11
6.66882
21
-4.71225
0
LINE
8
BLACK
6
CONTINUOUS
10
6.66882
20
-4.71225
11
6.65905
21
-4.70573
0
LINE
8
BLACK
6
CONTINUOUS
10
6.65905
20
-4.70573
11
6.64852
21
-4.70054
0
LINE
8
BLACK
6
CONTINUOUS
10
6.64852
20
-4.70054
11
6.6374
21
-4.69676
0
LINE
8
BLACK
6
CONTINUOUS
10
6.6374
20
-4.69676
11
6.62589
21
-4.69447
0
LINE
8
BLACK
6
CONTINUOUS
10
6.62589
20
-4.69447
11
6.61417
21
-4.69371
0
LINE
8
BLACK
6
CONTINUOUS
10
6.61417
20
-4.69371
11
6.60246
21
-4.69447
0
LINE
8
BLACK
6
CONTINUOUS
10
6.60246
20
-4.69447
11
6.59094
21
-4.69676
0
LINE
8
BLACK
6
CONTINUOUS
10
6.59094
20
-4.69676
11
6.57982
21
-4.70054
0
LINE
8
BLACK
6
CONTINUOUS
10
6.57982
20
-4.70054
11
6.56929
21
-4.70573
0
LINE
8
BLACK
6
CONTINUOUS
10
6.56929
20
-4.70573
11
6.55953
21
-4.71225
0
LINE
8
BLACK
6
CONTINUOUS
10
6.55953
20
-4.71225
11
6.5507
21
-4.72
0
LINE
8
BLACK
6
CONTINUOUS
10
6.5507
20
-4.72
11
6.54296
21
-4.72882
0
LINE
8
BLACK
6
CONTINUOUS
10
6.54296
20
-4.72882
11
6.53644
21
-4.73859
0
LINE
8
BLACK
6
CONTINUOUS
10
6.53644
20
-4.73859
11
6.53125
21
-4.74912
0
LINE
8
BLACK
6
CONTINUOUS
10
6.53125
20
-4.74912
11
6.52747
21
-4.76023
0
LINE
8
BLACK
6
CONTINUOUS
10
6.52747
20
-4.76023
11
6.52518
21
-4.77175
0
LINE
8
BLACK
6
CONTINUOUS
10
6.52518
20
-4.77175
11
6.52441
21
-4.78346
0
LINE
8
BLACK
6
CONTINUOUS
10
6.52441
20
-4.78346
11
6.52518
21
-4.79518
0
LINE
8
BLACK
6
CONTINUOUS
10
1.19466
20
-4.56474
11
1.20804
21
-4.56701
0
LINE
8
BLACK
6
CONTINUOUS
10
1.20804
20
-4.56701
11
1.22109
21
-4.57077
0
LINE
8
BLACK
6
CONTINUOUS
10
1.22109
20
-4.57077
11
1.23363
21
-4.57597
0
LINE
8
BLACK
6
CONTINUOUS
10
1.23363
20
-4.57597
11
1.24551
21
-4.58253
0
LINE
8
BLACK
6
CONTINUOUS
10
1.24551
20
-4.58253
11
1.25658
21
-4.59039
0
LINE
8
BLACK
6
CONTINUOUS
10
1.25658
20
-4.59039
11
1.26671
21
-4.59943
0
LINE
8
BLACK
6
CONTINUOUS
10
1.26671
20
-4.59943
11
1.27575
21
-4.60956
0
LINE
8
BLACK
6
CONTINUOUS
10
1.27575
20
-4.60956
11
1.28361
21
-4.62063
0
LINE
8
BLACK
6
CONTINUOUS
10
1.28361
20
-4.62063
11
1.29018
21
-4.63251
0
LINE
8
BLACK
6
CONTINUOUS
10
1.29018
20
-4.63251
11
1.29537
21
-4.64505
0
LINE
8
BLACK
6
CONTINUOUS
10
1.29537
20
-4.64505
11
1.29913
21
-4.6581
0
LINE
8
BLACK
6
CONTINUOUS
10
1.29913
20
-4.6581
11
1.3014
21
-4.67148
0
LINE
8
BLACK
6
CONTINUOUS
10
1.3014
20
-4.67148
11
1.30217
21
-4.68504
0
LINE
8
BLACK
6
CONTINUOUS
10
1.30217
20
-4.68504
11
1.3014
21
-4.69859
0
LINE
8
BLACK
6
CONTINUOUS
10
1.3014
20
-4.69859
11
1.29913
21
-4.71198
0
LINE
8
BLACK
6
CONTINUOUS
10
1.29913
20
-4.71198
11
1.29537
21
-4.72502
0
LINE
8
BLACK
6
CONTINUOUS
10
1.29537
20
-4.72502
11
1.29018
21
-4.73757
0
LINE
8
BLACK
6
CONTINUOUS
10
1.29018
20
-4.73757
11
1.28361
21
-4.74945
0
LINE
8
BLACK
6
CONTINUOUS
10
1.28361
20
-4.74945
11
1.27575
21
-4.76052
0
LINE
8
BLACK
6
CONTINUOUS
10
1.27575
20
-4.76052
11
1.26671
21
-4.77064
0
LINE
8
BLACK
6
CONTINUOUS
10
1.26671
20
-4.77064
11
1.25658
21
-4.77969
0
LINE
8
BLACK
6
CONTINUOUS
10
1.25658
20
-4.77969
11
1.24551
21
-4.78755
0
LINE
8
BLACK
6
CONTINUOUS
10
1.24551
20
-4.78755
11
1.23363
21
-4.79411
0
LINE
8
BLACK
6
CONTINUOUS
10
1.23363
20
-4.79411
11
1.22109
21
-4.79931
0
LINE
8
BLACK
6
CONTINUOUS
10
1.22109
20
-4.79931
11
1.20804
21
-4.80307
0
LINE
8
BLACK
6
CONTINUOUS
10
1.20804
20
-4.80307
11
1.19466
21
-4.80534
0
LINE
8
BLACK
6
CONTINUOUS
10
1.19466
20
-4.80534
11
1.1811
21
-4.8061
0
LINE
8
BLACK
6
CONTINUOUS
10
1.1811
20
-4.8061
11
1.16755
21
-4.80534
0
LINE
8
BLACK
6
CONTINUOUS
10
1.16755
20
-4.80534
11
1.15416
21
-4.80307
0
LINE
8
BLACK
6
CONTINUOUS
10
1.15416
20
-4.80307
11
1.14112
21
-4.79931
0
LINE
8
BLACK
6
CONTINUOUS
10
1.14112
20
-4.79931
11
1.12858
21
-4.79411
0
LINE
8
BLACK
6
CONTINUOUS
10
1.12858
20
-4.79411
11
1.11669
21
-4.78755
0
LINE
8
BLACK
6
CONTINUOUS
10
1.11669
20
-4.78755
11
1.10562
21
-4.77969
0
LINE
8
BLACK
6
CONTINUOUS
10
1.10562
20
-4.77969
11
1.0955
21
-4.77064
0
LINE
8
BLACK
6
CONTINUOUS
10
1.0955
20
-4.77064
11
1.08645
21
-4.76052
0
LINE
8
BLACK
6
CONTINUOUS
10
1.08645
20
-4.76052
11
1.0786
21
-4.74945
0
LINE
8
BLACK
6
CONTINUOUS
10
1.0786
20
-4.74945
11
1.07203
21
-4.73757
0
LINE
8
BLACK
6
CONTINUOUS
10
1.07203
20
-4.73757
11
1.06683
21
-4.72502
0
LINE
8
BLACK
6
CONTINUOUS
10
1.06683
20
-4.72502
11
1.06307
21
-4.71198
0
LINE
8
BLACK
6
CONTINUOUS
10
1.06307
20
-4.71198
11
1.0608
21
-4.69859
0
LINE
8
BLACK
6
CONTINUOUS
10
1.0608
20
-4.69859
11
1.06004
21
-4.68504
0
LINE
8
BLACK
6
CONTINUOUS
10
1.06004
20
-4.68504
11
1.0608
21
-4.67148
0
LINE
8
BLACK
6
CONTINUOUS
10
1.0608
20
-4.67148
11
1.06307
21
-4.6581
0
LINE
8
BLACK
6
CONTINUOUS
10
1.06307
20
-4.6581
11
1.06683
21
-4.64505
0
LINE
8
BLACK
6
CONTINUOUS
10
1.06683
20
-4.64505
11
1.07203
21
-4.63251
0
LINE
8
BLACK
6
CONTINUOUS
10
1.07203
20
-4.63251
11
1.0786
21
-4.62063
0
LINE
8
BLACK
6
CONTINUOUS
10
1.0786
20
-4.62063
11
1.08645
21
-4.60956
0
LINE
8
BLACK
6
CONTINUOUS
10
1.08645
20
-4.60956
11
1.0955
21
-4.59943
0
LINE
8
BLACK
6
CONTINUOUS
10
1.0955
20
-4.59943
11
1.10562
21
-4.59039
0
LINE
8
BLACK
6
CONTINUOUS
10
1.10562
20
-4.59039
11
1.11669
21
-4.58253
0
LINE
8
BLACK
6
CONTINUOUS
10
1.11669
20
-4.58253
11
1.12858
21
-4.57597
0
LINE
8
BLACK
6
CONTINUOUS
10
1.12858
20
-4.57597
11
1.14112
21
-4.57077
0
LINE
8
BLACK
6
CONTINUOUS
10
1.14112
20
-4.57077
11
1.15416
21
-4.56701
0
LINE
8
BLACK
6
CONTINUOUS
10
1.15416
20
-4.56701
11
1.16755
21
-4.56474
0
LINE
8
BLACK
6
CONTINUOUS
10
1.16755
20
-4.56474
11
1.1811
21
-4.56398
0
LINE
8
BLACK
6
CONTINUOUS
10
1.1811
20
-4.56398
11
1.19466
21
-4.56474
0
LINE
8
BLACK
6
CONTINUOUS
10
1.06653
20
-4.69843
11
1.06886
21
-4.71164
0
LINE
8
BLACK
6
CONTINUOUS
10
1.06886
20
-4.71164
11
1.07271
21
-4.72449
0
LINE
8
BLACK
6
CONTINUOUS
10
1.07271
20
-4.72449
11
1.07802
21
-4.73681
0
LINE
8
BLACK
6
CONTINUOUS
10
1.07802
20
-4.73681
11
1.08473
21
-4.74843
0
LINE
8
BLACK
6
CONTINUOUS
10
1.08473
20
-4.74843
11
1.09274
21
-4.75919
0
LINE
8
BLACK
6
CONTINUOUS
10
1.09274
20
-4.75919
11
1.10194
21
-4.76894
0
LINE
8
BLACK
6
CONTINUOUS
10
1.10194
20
-4.76894
11
1.11222
21
-4.77757
0
LINE
8
BLACK
6
CONTINUOUS
10
1.11222
20
-4.77757
11
1.12343
21
-4.78494
0
LINE
8
BLACK
6
CONTINUOUS
10
1.12343
20
-4.78494
11
1.13541
21
-4.79096
0
LINE
8
BLACK
6
CONTINUOUS
10
1.13541
20
-4.79096
11
1.14802
21
-4.79555
0
LINE
8
BLACK
6
CONTINUOUS
10
1.14802
20
-4.79555
11
1.16107
21
-4.79864
0
LINE
8
BLACK
6
CONTINUOUS
10
1.16107
20
-4.79864
11
1.1744
21
-4.8002
0
LINE
8
BLACK
6
CONTINUOUS
10
1.1744
20
-4.8002
11
1.18781
21
-4.8002
0
LINE
8
BLACK
6
CONTINUOUS
10
1.18781
20
-4.8002
11
1.20113
21
-4.79864
0
LINE
8
BLACK
6
CONTINUOUS
10
1.20113
20
-4.79864
11
1.21419
21
-4.79555
0
LINE
8
BLACK
6
CONTINUOUS
10
1.21419
20
-4.79555
11
1.22679
21
-4.79096
0
LINE
8
BLACK
6
CONTINUOUS
10
1.22679
20
-4.79096
11
1.23878
21
-4.78494
0
LINE
8
BLACK
6
CONTINUOUS
10
1.23878
20
-4.78494
11
1.24999
21
-4.77757
0
LINE
8
BLACK
6
CONTINUOUS
10
1.24999
20
-4.77757
11
1.26026
21
-4.76894
0
LINE
8
BLACK
6
CONTINUOUS
10
1.26026
20
-4.76894
11
1.26947
21
-4.75919
0
LINE
8
BLACK
6
CONTINUOUS
10
1.26947
20
-4.75919
11
1.27748
21
-4.74843
0
LINE
8
BLACK
6
CONTINUOUS
10
1.27748
20
-4.74843
11
1.28419
21
-4.73681
0
LINE
8
BLACK
6
CONTINUOUS
10
1.28419
20
-4.73681
11
1.2895
21
-4.72449
0
LINE
8
BLACK
6
CONTINUOUS
10
1.2895
20
-4.72449
11
1.29335
21
-4.71164
0
LINE
8
BLACK
6
CONTINUOUS
10
1.29335
20
-4.71164
11
1.29568
21
-4.69843
0
LINE
8
BLACK
6
CONTINUOUS
10
1.29568
20
-4.69843
11
1.29645
21
-4.68504
0
LINE
8
BLACK
6
CONTINUOUS
10
1.29645
20
-4.68504
11
1.29568
21
-4.67165
0
LINE
8
BLACK
6
CONTINUOUS
10
1.29568
20
-4.67165
11
1.29335
21
-4.65844
0
LINE
8
BLACK
6
CONTINUOUS
10
1.29335
20
-4.65844
11
1.2895
21
-4.64559
0
LINE
8
BLACK
6
CONTINUOUS
10
1.2895
20
-4.64559
11
1.28419
21
-4.63327
0
LINE
8
BLACK
6
CONTINUOUS
10
1.28419
20
-4.63327
11
1.27748
21
-4.62165
0
LINE
8
BLACK
6
CONTINUOUS
10
1.27748
20
-4.62165
11
1.26947
21
-4.61089
0
LINE
8
BLACK
6
CONTINUOUS
10
1.26947
20
-4.61089
11
1.26026
21
-4.60113
0
LINE
8
BLACK
6
CONTINUOUS
10
1.26026
20
-4.60113
11
1.24999
21
-4.59251
0
LINE
8
BLACK
6
CONTINUOUS
10
1.24999
20
-4.59251
11
1.23878
21
-4.58514
0
LINE
8
BLACK
6
CONTINUOUS
10
1.23878
20
-4.58514
11
1.22679
21
-4.57912
0
LINE
8
BLACK
6
CONTINUOUS
10
1.22679
20
-4.57912
11
1.21419
21
-4.57453
0
LINE
8
BLACK
6
CONTINUOUS
10
1.21419
20
-4.57453
11
1.20113
21
-4.57144
0
LINE
8
BLACK
6
CONTINUOUS
10
1.20113
20
-4.57144
11
1.18781
21
-4.56988
0
LINE
8
BLACK
6
CONTINUOUS
10
1.18781
20
-4.56988
11
1.1744
21
-4.56988
0
LINE
8
BLACK
6
CONTINUOUS
10
1.1744
20
-4.56988
11
1.16107
21
-4.57144
0
LINE
8
BLACK
6
CONTINUOUS
10
1.16107
20
-4.57144
11
1.14802
21
-4.57453
0
LINE
8
BLACK
6
CONTINUOUS
10
1.14802
20
-4.57453
11
1.13541
21
-4.57912
0
LINE
8
BLACK
6
CONTINUOUS
10
1.13541
20
-4.57912
11
1.12343
21
-4.58514
0
LINE
8
BLACK
6
CONTINUOUS
10
1.12343
20
-4.58514
11
1.11222
21
-4.59251
0
LINE
8
BLACK
6
CONTINUOUS
10
1.11222
20
-4.59251
11
1.10194
21
-4.60113
0
LINE
8
BLACK
6
CONTINUOUS
10
1.10194
20
-4.60113
11
1.09274
21
-4.61089
0
LINE
8
BLACK
6
CONTINUOUS
10
1.09274
20
-4.61089
11
1.08473
21
-4.62165
0
LINE
8
BLACK
6
CONTINUOUS
10
1.08473
20
-4.62165
11
1.07802
21
-4.63327
0
LINE
8
BLACK
6
CONTINUOUS
10
1.07802
20
-4.63327
11
1.07271
21
-4.64559
0
LINE
8
BLACK
6
CONTINUOUS
10
1.07271
20
-4.64559
11
1.06886
21
-4.65844
0
LINE
8
BLACK
6
CONTINUOUS
10
1.06886
20
-4.65844
11
1.06653
21
-4.67165
0
LINE
8
BLACK
6
CONTINUOUS
10
1.06653
20
-4.67165
11
1.06575
21
-4.68504
0
LINE
8
BLACK
6
CONTINUOUS
10
1.06575
20
-4.68504
11
1.06653
21
-4.69843
0
LINE
8
BLACK
6
CONTINUOUS
10
4.14741
20
-4.56474
11
4.1608
21
-4.56701
0
LINE
8
BLACK
6
CONTINUOUS
10
4.1608
20
-4.56701
11
4.17384
21
-4.57077
0
LINE
8
BLACK
6
CONTINUOUS
10
4.17384
20
-4.57077
11
4.18639
21
-4.57597
0
LINE
8
BLACK
6
CONTINUOUS
10
4.18639
20
-4.57597
11
4.19827
21
-4.58253
0
LINE
8
BLACK
6
CONTINUOUS
10
4.19827
20
-4.58253
11
4.20934
21
-4.59039
0
LINE
8
BLACK
6
CONTINUOUS
10
4.20934
20
-4.59039
11
4.21946
21
-4.59943
0
LINE
8
BLACK
6
CONTINUOUS
10
4.21946
20
-4.59943
11
4.22851
21
-4.60956
0
LINE
8
BLACK
6
CONTINUOUS
10
4.22851
20
-4.60956
11
4.23637
21
-4.62063
0
LINE
8
BLACK
6
CONTINUOUS
10
4.23637
20
-4.62063
11
4.24293
21
-4.63251
0
LINE
8
BLACK
6
CONTINUOUS
10
4.24293
20
-4.63251
11
4.24813
21
-4.64505
0
LINE
8
BLACK
6
CONTINUOUS
10
4.24813
20
-4.64505
11
4.25189
21
-4.6581
0
LINE
8
BLACK
6
CONTINUOUS
10
4.25189
20
-4.6581
11
4.25416
21
-4.67148
0
LINE
8
BLACK
6
CONTINUOUS
10
4.25416
20
-4.67148
11
4.25492
21
-4.68504
0
LINE
8
BLACK
6
CONTINUOUS
10
4.25492
20
-4.68504
11
4.25416
21
-4.69859
0
LINE
8
BLACK
6
CONTINUOUS
10
4.25416
20
-4.69859
11
4.25189
21
-4.71198
0
LINE
8
BLACK
6
CONTINUOUS
10
4.25189
20
-4.71198
11
4.24813
21
-4.72502
0
LINE
8
BLACK
6
CONTINUOUS
10
4.24813
20
-4.72502
11
4.24293
21
-4.73757
0
LINE
8
BLACK
6
CONTINUOUS
10
4.24293
20
-4.73757
11
4.23637
21
-4.74945
0
LINE
8
BLACK
6
CONTINUOUS
10
4.23637
20
-4.74945
11
4.22851
21
-4.76052
0
LINE
8
BLACK
6
CONTINUOUS
10
4.22851
20
-4.76052
11
4.21946
21
-4.77064
0
LINE
8
BLACK
6
CONTINUOUS
10
4.21946
20
-4.77064
11
4.20934
21
-4.77969
0
LINE
8
BLACK
6
CONTINUOUS
10
4.20934
20
-4.77969
11
4.19827
21
-4.78755
0
LINE
8
BLACK
6
CONTINUOUS
10
4.19827
20
-4.78755
11
4.18639
21
-4.79411
0
LINE
8
BLACK
6
CONTINUOUS
10
4.18639
20
-4.79411
11
4.17384
21
-4.79931
0
LINE
8
BLACK
6
CONTINUOUS
10
4.17384
20
-4.79931
11
4.1608
21
-4.80307
0
LINE
8
BLACK
6
CONTINUOUS
10
4.1608
20
-4.80307
11
4.14741
21
-4.80534
0
LINE
8
BLACK
6
CONTINUOUS
10
4.14741
20
-4.80534
11
4.13386
21
-4.8061
0
LINE
8
BLACK
6
CONTINUOUS
10
4.13386
20
-4.8061
11
4.1203
21
-4.80534
0
LINE
8
BLACK
6
CONTINUOUS
10
4.1203
20
-4.80534
11
4.10692
21
-4.80307
0
LINE
8
BLACK
6
CONTINUOUS
10
4.10692
20
-4.80307
11
4.09387
21
-4.79931
0
LINE
8
BLACK
6
CONTINUOUS
10
4.09387
20
-4.79931
11
4.08133
21
-4.79411
0
LINE
8
BLACK
6
CONTINUOUS
10
4.08133
20
-4.79411
11
4.06945
21
-4.78755
0
LINE
8
BLACK
6
CONTINUOUS
10
4.06945
20
-4.78755
11
4.05838
21
-4.77969
0
LINE
8
BLACK
6
CONTINUOUS
10
4.05838
20
-4.77969
11
4.04825
21
-4.77064
0
LINE
8
BLACK
6
CONTINUOUS
10
4.04825
20
-4.77064
11
4.03921
21
-4.76052
0
LINE
8
BLACK
6
CONTINUOUS
10
4.03921
20
-4.76052
11
4.03135
21
-4.74945
0
LINE
8
BLACK
6
CONTINUOUS
10
4.03135
20
-4.74945
11
4.02478
21
-4.73757
0
LINE
8
BLACK
6
CONTINUOUS
10
4.02478
20
-4.73757
11
4.01959
21
-4.72502
0
LINE
8
BLACK
6
CONTINUOUS
10
4.01959
20
-4.72502
11
4.01583
21
-4.71198
0
LINE
8
BLACK
6
CONTINUOUS
10
4.01583
20
-4.71198
11
4.01356
21
-4.69859
0
LINE
8
BLACK
6
CONTINUOUS
10
4.01356
20
-4.69859
11
4.0128
21
-4.68504
0
LINE
8
BLACK
6
CONTINUOUS
10
4.0128
20
-4.68504
11
4.01356
21
-4.67148
0
LINE
8
BLACK
6
CONTINUOUS
10
4.01356
20
-4.67148
11
4.01583
21
-4.6581
0
LINE
8
BLACK
6
CONTINUOUS
10
4.01583
20
-4.6581
11
4.01959
21
-4.64505
0
LINE
8
BLACK
6
CONTINUOUS
10
4.01959
20
-4.64505
11
4.02478
21
-4.63251
0
LINE
8
BLACK
6
CONTINUOUS
10
4.02478
20
-4.63251
11
4.03135
21
-4.62063
0
LINE
8
BLACK
6
CONTINUOUS
10
4.03135
20
-4.62063
11
4.03921
21
-4.60956
0
LINE
8
BLACK
6
CONTINUOUS
10
4.03921
20
-4.60956
11
4.04825
21
-4.59943
0
LINE
8
BLACK
6
CONTINUOUS
10
4.04825
20
-4.59943
11
4.05838
21
-4.59039
0
LINE
8
BLACK
6
CONTINUOUS
10
4.05838
20
-4.59039
11
4.06945
21
-4.58253
0
LINE
8
BLACK
6
CONTINUOUS
10
4.06945
20
-4.58253
11
4.08133
21
-4.57597
0
LINE
8
BLACK
6
CONTINUOUS
10
4.08133
20
-4.57597
11
4.09387
21
-4.57077
0
LINE
8
BLACK
6
CONTINUOUS
10
4.09387
20
-4.57077
11
4.10692
21
-4.56701
0
LINE
8
BLACK
6
CONTINUOUS
10
4.10692
20
-4.56701
11
4.1203
21
-4.56474
0
LINE
8
BLACK
6
CONTINUOUS
10
4.1203
20
-4.56474
11
4.13386
21
-4.56398
0
LINE
8
BLACK
6
CONTINUOUS
10
4.13386
20
-4.56398
11
4.14741
21
-4.56474
0
LINE
8
BLACK
6
CONTINUOUS
10
4.01929
20
-4.69843
11
4.02161
21
-4.71164
0
LINE
8
BLACK
6
CONTINUOUS
10
4.02161
20
-4.71164
11
4.02546
21
-4.72449
0
LINE
8
BLACK
6
CONTINUOUS
10
4.02546
20
-4.72449
11
4.03078
21
-4.73681
0
LINE
8
BLACK
6
CONTINUOUS
10
4.03078
20
-4.73681
11
4.03748
21
-4.74843
0
LINE
8
BLACK
6
CONTINUOUS
10
4.03748
20
-4.74843
11
4.04549
21
-4.75919
0
LINE
8
BLACK
6
CONTINUOUS
10
4.04549
20
-4.75919
11
4.0547
21
-4.76894
0
LINE
8
BLACK
6
CONTINUOUS
10
4.0547
20
-4.76894
11
4.06497
21
-4.77757
0
LINE
8
BLACK
6
CONTINUOUS
10
4.06497
20
-4.77757
11
4.07618
21
-4.78494
0
LINE
8
BLACK
6
CONTINUOUS
10
4.07618
20
-4.78494
11
4.08817
21
-4.79096
0
LINE
8
BLACK
6
CONTINUOUS
10
4.08817
20
-4.79096
11
4.10077
21
-4.79555
0
LINE
8
BLACK
6
CONTINUOUS
10
4.10077
20
-4.79555
11
4.11383
21
-4.79864
0
LINE
8
BLACK
6
CONTINUOUS
10
4.11383
20
-4.79864
11
4.12715
21
-4.8002
0
LINE
8
BLACK
6
CONTINUOUS
10
4.12715
20
-4.8002
11
4.14057
21
-4.8002
0
LINE
8
BLACK
6
CONTINUOUS
10
4.14057
20
-4.8002
11
4.15389
21
-4.79864
0
LINE
8
BLACK
6
CONTINUOUS
10
4.15389
20
-4.79864
11
4.16694
21
-4.79555
0
LINE
8
BLACK
6
CONTINUOUS
10
4.16694
20
-4.79555
11
4.17955
21
-4.79096
0
LINE
8
BLACK
6
CONTINUOUS
10
4.17955
20
-4.79096
11
4.19153
21
-4.78494
0
LINE
8
BLACK
6
CONTINUOUS
10
4.19153
20
-4.78494
11
4.20274
21
-4.77757
0
LINE
8
BLACK
6
CONTINUOUS
10
4.20274
20
-4.77757
11
4.21302
21
-4.76894
0
LINE
8
BLACK
6
CONTINUOUS
10
4.21302
20
-4.76894
11
4.22222
21
-4.75919
0
LINE
8
BLACK
6
CONTINUOUS
10
4.22222
20
-4.75919
11
4.23023
21
-4.74843
0
LINE
8
BLACK
6
CONTINUOUS
10
4.23023
20
-4.74843
11
4.23694
21
-4.73681
0
LINE
8
BLACK
6
CONTINUOUS
10
4.23694
20
-4.73681
11
4.24225
21
-4.72449
0
LINE
8
BLACK
6
CONTINUOUS
10
4.24225
20
-4.72449
11
4.2461
21
-4.71164
0
LINE
8
BLACK
6
CONTINUOUS
10
4.2461
20
-4.71164
11
4.24843
21
-4.69843
0
LINE
8
BLACK
6
CONTINUOUS
10
4.24843
20
-4.69843
11
4.24921
21
-4.68504
0
LINE
8
BLACK
6
CONTINUOUS
10
4.24921
20
-4.68504
11
4.24843
21
-4.67165
0
LINE
8
BLACK
6
CONTINUOUS
10
4.24843
20
-4.67165
11
4.2461
21
-4.65844
0
LINE
8
BLACK
6
CONTINUOUS
10
4.2461
20
-4.65844
11
4.24225
21
-4.64559
0
LINE
8
BLACK
6
CONTINUOUS
10
4.24225
20
-4.64559
11
4.23694
21
-4.63327
0
LINE
8
BLACK
6
CONTINUOUS
10
4.23694
20
-4.63327
11
4.23023
21
-4.62165
0
LINE
8
BLACK
6
CONTINUOUS
10
4.23023
20
-4.62165
11
4.22222
21
-4.61089
0
LINE
8
BLACK
6
CONTINUOUS
10
4.22222
20
-4.61089
11
4.21302
21
-4.60113
0
LINE
8
BLACK
6
CONTINUOUS
10
4.21302
20
-4.60113
11
4.20274
21
-4.59251
0
LINE
8
BLACK
6
CONTINUOUS
10
4.20274
20
-4.59251
11
4.19153
21
-4.58514
0
LINE
8
BLACK
6
CONTINUOUS
10
4.19153
20
-4.58514
11
4.17955
21
-4.57912
0
LINE
8
BLACK
6
CONTINUOUS
10
4.17955
20
-4.57912
11
4.16694
21
-4.57453
0
LINE
8
BLACK
6
CONTINUOUS
10
4.16694
20
-4.57453
11
4.15389
21
-4.57144
0
LINE
8
BLACK
6
CONTINUOUS
10
4.15389
20
-4.57144
11
4.14057
21
-4.56988
0
LINE
8
BLACK
6
CONTINUOUS
10
4.14057
20
-4.56988
11
4.12715
21
-4.56988
0
LINE
8
BLACK
6
CONTINUOUS
10
4.12715
20
-4.56988
11
4.11383
21
-4.57144
0
LINE
8
BLACK
6
CONTINUOUS
10
4.11383
20
-4.57144
11
4.10077
21
-4.57453
0
LINE
8
BLACK
6
CONTINUOUS
10
4.10077
20
-4.57453
11
4.08817
21
-4.57912
0
LINE
8
BLACK
6
CONTINUOUS
10
4.08817
20
-4.57912
11
4.07618
21
-4.58514
0
LINE
8
BLACK
6
CONTINUOUS
10
4.07618
20
-4.58514
11
4.06497
21
-4.59251
0
LINE
8
BLACK
6
CONTINUOUS
10
4.06497
20
-4.59251
11
4.0547
21
-4.60113
0
LINE
8
BLACK
6
CONTINUOUS
10
4.0547
20
-4.60113
11
4.04549
21
-4.61089
0
LINE
8
BLACK
6
CONTINUOUS
10
4.04549
20
-4.61089
11
4.03748
21
-4.62165
0
LINE
8
BLACK
6
CONTINUOUS
10
4.03748
20
-4.62165
11
4.03078
21
-4.63327
0
LINE
8
BLACK
6
CONTINUOUS
10
4.03078
20
-4.63327
11
4.02546
21
-4.64559
0
LINE
8
BLACK
6
CONTINUOUS
10
4.02546
20
-4.64559
11
4.02161
21
-4.65844
0
LINE
8
BLACK
6
CONTINUOUS
10
4.02161
20
-4.65844
11
4.01929
21
-4.67165
0
LINE
8
BLACK
6
CONTINUOUS
10
4.01929
20
-4.67165
11
4.01851
21
-4.68504
0
LINE
8
BLACK
6
CONTINUOUS
10
4.01851
20
-4.68504
11
4.01929
21
-4.69843
0
LINE
8
BLACK
6
CONTINUOUS
10
7.10017
20
-4.56474
11
7.11355
21
-4.56701
0
LINE
8
BLACK
6
CONTINUOUS
10
7.11355
20
-4.56701
11
7.1266
21
-4.57077
0
LINE
8
BLACK
6
CONTINUOUS
10
7.1266
20
-4.57077
11
7.13914
21
-4.57597
0
LINE
8
BLACK
6
CONTINUOUS
10
7.13914
20
-4.57597
11
7.15102
21
-4.58253
0
LINE
8
BLACK
6
CONTINUOUS
10
7.15102
20
-4.58253
11
7.1621
21
-4.59039
0
LINE
8
BLACK
6
CONTINUOUS
10
7.1621
20
-4.59039
11
7.17222
21
-4.59943
0
LINE
8
BLACK
6
CONTINUOUS
10
7.17222
20
-4.59943
11
7.18127
21
-4.60956
0
LINE
8
BLACK
6
CONTINUOUS
10
7.18127
20
-4.60956
11
7.18912
21
-4.62063
0
LINE
8
BLACK
6
CONTINUOUS
10
7.18912
20
-4.62063
11
7.19569
21
-4.63251
0
LINE
8
BLACK
6
CONTINUOUS
10
7.19569
20
-4.63251
11
7.20088
21
-4.64505
0
LINE
8
BLACK
6
CONTINUOUS
10
7.20088
20
-4.64505
11
7.20464
21
-4.6581
0
LINE
8
BLACK
6
CONTINUOUS
10
7.20464
20
-4.6581
11
7.20692
21
-4.67148
0
LINE
8
BLACK
6
CONTINUOUS
10
7.20692
20
-4.67148
11
7.20768
21
-4.68504
0
LINE
8
BLACK
6
CONTINUOUS
10
7.20768
20
-4.68504
11
7.20692
21
-4.69859
0
LINE
8
BLACK
6
CONTINUOUS
10
7.20692
20
-4.69859
11
7.20464
21
-4.71198
0
LINE
8
BLACK
6
CONTINUOUS
10
7.20464
20
-4.71198
11
7.20088
21
-4.72502
0
LINE
8
BLACK
6
CONTINUOUS
10
7.20088
20
-4.72502
11
7.19569
21
-4.73757
0
LINE
8
BLACK
6
CONTINUOUS
10
7.19569
20
-4.73757
11
7.18912
21
-4.74945
0
LINE
8
BLACK
6
CONTINUOUS
10
7.18912
20
-4.74945
11
7.18127
21
-4.76052
0
LINE
8
BLACK
6
CONTINUOUS
10
7.18127
20
-4.76052
11
7.17222
21
-4.77064
0
LINE
8
BLACK
6
CONTINUOUS
10
7.17222
20
-4.77064
11
7.1621
21
-4.77969
0
LINE
8
BLACK
6
CONTINUOUS
10
7.1621
20
-4.77969
11
7.15102
21
-4.78755
0
LINE
8
BLACK
6
CONTINUOUS
10
7.15102
20
-4.78755
11
7.13914
21
-4.79411
0
LINE
8
BLACK
6
CONTINUOUS
10
7.13914
20
-4.79411
11
7.1266
21
-4.79931
0
LINE
8
BLACK
6
CONTINUOUS
10
7.1266
20
-4.79931
11
7.11355
21
-4.80307
0
LINE
8
BLACK
6
CONTINUOUS
10
7.11355
20
-4.80307
11
7.10017
21
-4.80534
0
LINE
8
BLACK
6
CONTINUOUS
10
7.10017
20
-4.80534
11
7.08661
21
-4.8061
0
LINE
8
BLACK
6
CONTINUOUS
10
7.08661
20
-4.8061
11
7.07306
21
-4.80534
0
LINE
8
BLACK
6
CONTINUOUS
10
7.07306
20
-4.80534
11
7.05968
21
-4.80307
0
LINE
8
BLACK
6
CONTINUOUS
10
7.05968
20
-4.80307
11
7.04663
21
-4.79931
0
LINE
8
BLACK
6
CONTINUOUS
10
7.04663
20
-4.79931
11
7.03409
21
-4.79411
0
LINE
8
BLACK
6
CONTINUOUS
10
7.03409
20
-4.79411
11
7.0222
21
-4.78755
0
LINE
8
BLACK
6
CONTINUOUS
10
7.0222
20
-4.78755
11
7.01113
21
-4.77969
0
LINE
8
BLACK
6
CONTINUOUS
10
7.01113
20
-4.77969
11
7.00101
21
-4.77064
0
LINE
8
BLACK
6
CONTINUOUS
10
7.00101
20
-4.77064
11
6.99196
21
-4.76052
0
LINE
8
BLACK
6
CONTINUOUS
10
6.99196
20
-4.76052
11
6.98411
21
-4.74945
0
LINE
8
BLACK
6
CONTINUOUS
10
6.98411
20
-4.74945
11
6.97754
21
-4.73757
0
LINE
8
BLACK
6
CONTINUOUS
10
6.97754
20
-4.73757
11
6.97234
21
-4.72502
0
LINE
8
BLACK
6
CONTINUOUS
10
6.97234
20
-4.72502
11
6.96859
21
-4.71198
0
LINE
8
BLACK
6
CONTINUOUS
10
6.96859
20
-4.71198
11
6.96631
21
-4.69859
0
LINE
8
BLACK
6
CONTINUOUS
10
6.96631
20
-4.69859
11
6.96555
21
-4.68504
0
LINE
8
BLACK
6
CONTINUOUS
10
6.96555
20
-4.68504
11
6.96631
21
-4.67148
0
LINE
8
BLACK
6
CONTINUOUS
10
6.96631
20
-4.67148
11
6.96859
21
-4.6581
0
LINE
8
BLACK
6
CONTINUOUS
10
6.96859
20
-4.6581
11
6.97234
21
-4.64505
0
LINE
8
BLACK
6
CONTINUOUS
10
6.97234
20
-4.64505
11
6.97754
21
-4.63251
0
LINE
8
BLACK
6
CONTINUOUS
10
6.97754
20
-4.63251
11
6.98411
21
-4.62063
0
LINE
8
BLACK
6
CONTINUOUS
10
6.98411
20
-4.62063
11
6.99196
21
-4.60956
0
LINE
8
BLACK
6
CONTINUOUS
10
6.99196
20
-4.60956
11
7.00101
21
-4.59943
0
LINE
8
BLACK
6
CONTINUOUS
10
7.00101
20
-4.59943
11
7.01113
21
-4.59039
0
LINE
8
BLACK
6
CONTINUOUS
10
7.01113
20
-4.59039
11
7.0222
21
-4.58253
0
LINE
8
BLACK
6
CONTINUOUS
10
7.0222
20
-4.58253
11
7.03409
21
-4.57597
0
LINE
8
BLACK
6
CONTINUOUS
10
7.03409
20
-4.57597
11
7.04663
21
-4.57077
0
LINE
8
BLACK
6
CONTINUOUS
10
7.04663
20
-4.57077
11
7.05968
21
-4.56701
0
LINE
8
BLACK
6
CONTINUOUS
10
7.05968
20
-4.56701
11
7.07306
21
-4.56474
0
LINE
8
BLACK
6
CONTINUOUS
10
7.07306
20
-4.56474
11
7.08661
21
-4.56398
0
LINE
8
BLACK
6
CONTINUOUS
10
7.08661
20
-4.56398
11
7.10017
21
-4.56474
0
LINE
8
BLACK
6
CONTINUOUS
10
6.97204
20
-4.69843
11
6.97437
21
-4.71164
0
LINE
8
BLACK
6
CONTINUOUS
10
6.97437
20
-4.71164
11
6.97822
21
-4.72449
0
LINE
8
BLACK
6
CONTINUOUS
10
6.97822
20
-4.72449
11
6.98353
21
-4.73681
0
LINE
8
BLACK
6
CONTINUOUS
10
6.98353
20
-4.73681
11
6.99024
21
-4.74843
0
LINE
8
BLACK
6
CONTINUOUS
10
6.99024
20
-4.74843
11
6.99825
21
-4.75919
0
LINE
8
BLACK
6
CONTINUOUS
10
6.99825
20
-4.75919
11
7.00745
21
-4.76894
0
LINE
8
BLACK
6
CONTINUOUS
10
7.00745
20
-4.76894
11
7.01773
21
-4.77757
0
LINE
8
BLACK
6
CONTINUOUS
10
7.01773
20
-4.77757
11
7.02894
21
-4.78494
0
LINE
8
BLACK
6
CONTINUOUS
10
7.02894
20
-4.78494
11
7.04093
21
-4.79096
0
LINE
8
BLACK
6
CONTINUOUS
10
7.04093
20
-4.79096
11
7.05353
21
-4.79555
0
LINE
8
BLACK
6
CONTINUOUS
10
7.05353
20
-4.79555
11
7.06658
21
-4.79864
0
LINE
8
BLACK
6
CONTINUOUS
10
7.06658
20
-4.79864
11
7.07991
21
-4.8002
0
LINE
8
BLACK
6
CONTINUOUS
10
7.07991
20
-4.8002
11
7.09332
21
-4.8002
0
LINE
8
BLACK
6
CONTINUOUS
10
7.09332
20
-4.8002
11
7.10664
21
-4.79864
0
LINE
8
BLACK
6
CONTINUOUS
10
7.10664
20
-4.79864
11
7.1197
21
-4.79555
0
LINE
8
BLACK
6
CONTINUOUS
10
7.1197
20
-4.79555
11
7.1323
21
-4.79096
0
LINE
8
BLACK
6
CONTINUOUS
10
7.1323
20
-4.79096
11
7.14429
21
-4.78494
0
LINE
8
BLACK
6
CONTINUOUS
10
7.14429
20
-4.78494
11
7.1555
21
-4.77757
0
LINE
8
BLACK
6
CONTINUOUS
10
7.1555
20
-4.77757
11
7.16577
21
-4.76894
0
LINE
8
BLACK
6
CONTINUOUS
10
7.16577
20
-4.76894
11
7.17498
21
-4.75919
0
LINE
8
BLACK
6
CONTINUOUS
10
7.17498
20
-4.75919
11
7.18299
21
-4.74843
0
LINE
8
BLACK
6
CONTINUOUS
10
7.18299
20
-4.74843
11
7.1897
21
-4.73681
0
LINE
8
BLACK
6
CONTINUOUS
10
7.1897
20
-4.73681
11
7.19501
21
-4.72449
0
LINE
8
BLACK
6
CONTINUOUS
10
7.19501
20
-4.72449
11
7.19886
21
-4.71164
0
LINE
8
BLACK
6
CONTINUOUS
10
7.19886
20
-4.71164
11
7.20119
21
-4.69843
0
LINE
8
BLACK
6
CONTINUOUS
10
7.20119
20
-4.69843
11
7.20197
21
-4.68504
0
LINE
8
BLACK
6
CONTINUOUS
10
7.20197
20
-4.68504
11
7.20119
21
-4.67165
0
LINE
8
BLACK
6
CONTINUOUS
10
7.20119
20
-4.67165
11
7.19886
21
-4.65844
0
LINE
8
BLACK
6
CONTINUOUS
10
7.19886
20
-4.65844
11
7.19501
21
-4.64559
0
LINE
8
BLACK
6
CONTINUOUS
10
7.19501
20
-4.64559
11
7.1897
21
-4.63327
0
LINE
8
BLACK
6
CONTINUOUS
10
7.1897
20
-4.63327
11
7.18299
21
-4.62165
0
LINE
8
BLACK
6
CONTINUOUS
10
7.18299
20
-4.62165
11
7.17498
21
-4.61089
0
LINE
8
BLACK
6
CONTINUOUS
10
7.17498
20
-4.61089
11
7.16577
21
-4.60113
0
LINE
8
BLACK
6
CONTINUOUS
10
7.16577
20
-4.60113
11
7.1555
21
-4.59251
0
LINE
8
BLACK
6
CONTINUOUS
10
7.1555
20
-4.59251
11
7.14429
21
-4.58514
0
LINE
8
BLACK
6
CONTINUOUS
10
7.14429
20
-4.58514
11
7.1323
21
-4.57912
0
LINE
8
BLACK
6
CONTINUOUS
10
7.1323
20
-4.57912
11
7.1197
21
-4.57453
0
LINE
8
BLACK
6
CONTINUOUS
10
7.1197
20
-4.57453
11
7.10664
21
-4.57144
0
LINE
8
BLACK
6
CONTINUOUS
10
7.10664
20
-4.57144
11
7.09332
21
-4.56988
0
LINE
8
BLACK
6
CONTINUOUS
10
7.09332
20
-4.56988
11
7.07991
21
-4.56988
0
LINE
8
BLACK
6
CONTINUOUS
10
7.07991
20
-4.56988
11
7.06658
21
-4.57144
0
LINE
8
BLACK
6
CONTINUOUS
10
7.06658
20
-4.57144
11
7.05353
21
-4.57453
0
LINE
8
BLACK
6
CONTINUOUS
10
7.05353
20
-4.57453
11
7.04093
21
-4.57912
0
LINE
8
BLACK
6
CONTINUOUS
10
7.04093
20
-4.57912
11
7.02894
21
-4.58514
0
LINE
8
BLACK
6
CONTINUOUS
10
7.02894
20
-4.58514
11
7.01773
21
-4.59251
0
LINE
8
BLACK
6
CONTINUOUS
10
7.01773
20
-4.59251
11
7.00745
21
-4.60113
0
LINE
8
BLACK
6
CONTINUOUS
10
7.00745
20
-4.60113
11
6.99825
21
-4.61089
0
LINE
8
BLACK
6
CONTINUOUS
10
6.99825
20
-4.61089
11
6.99024
21
-4.62165
0
LINE
8
BLACK
6
CONTINUOUS
10
6.99024
20
-4.62165
11
6.98353
21
-4.63327
0
LINE
8
BLACK
6
CONTINUOUS
10
6.98353
20
-4.63327
11
6.97822
21
-4.64559
0
LINE
8
BLACK
6
CONTINUOUS
10
6.97822
20
-4.64559
11
6.97437
21
-4.65844
0
LINE
8
BLACK
6
CONTINUOUS
10
6.97437
20
-4.65844
11
6.97204
21
-4.67165
0
LINE
8
BLACK
6
CONTINUOUS
10
6.97204
20
-4.67165
11
6.97126
21
-4.68504
0
LINE
8
BLACK
6
CONTINUOUS
10
6.97126
20
-4.68504
11
6.97204
21
-4.69843
0
LINE
8
BLACK
6
CONTINUOUS
10
1.19466
20
-2.51749
11
1.20804
21
-2.51977
0
LINE
8
BLACK
6
CONTINUOUS
10
1.20804
20
-2.51977
11
1.22109
21
-2.52353
0
LINE
8
BLACK
6
CONTINUOUS
10
1.22109
20
-2.52353
11
1.23363
21
-2.52872
0
LINE
8
BLACK
6
CONTINUOUS
10
1.23363
20
-2.52872
11
1.24551
21
-2.53529
0
LINE
8
BLACK
6
CONTINUOUS
10
1.24551
20
-2.53529
11
1.25658
21
-2.54314
0
LINE
8
BLACK
6
CONTINUOUS
10
1.25658
20
-2.54314
11
1.26671
21
-2.55219
0
LINE
8
BLACK
6
CONTINUOUS
10
1.26671
20
-2.55219
11
1.27575
21
-2.56231
0
LINE
8
BLACK
6
CONTINUOUS
10
1.27575
20
-2.56231
11
1.28361
21
-2.57339
0
LINE
8
BLACK
6
CONTINUOUS
10
1.28361
20
-2.57339
11
1.29018
21
-2.58527
0
LINE
8
BLACK
6
CONTINUOUS
10
1.29018
20
-2.58527
11
1.29537
21
-2.59781
0
LINE
8
BLACK
6
CONTINUOUS
10
1.29537
20
-2.59781
11
1.29913
21
-2.61086
0
LINE
8
BLACK
6
CONTINUOUS
10
1.29913
20
-2.61086
11
1.3014
21
-2.62424
0
LINE
8
BLACK
6
CONTINUOUS
10
1.3014
20
-2.62424
11
1.30217
21
-2.6378
0
LINE
8
BLACK
6
CONTINUOUS
10
1.30217
20
-2.6378
11
1.3014
21
-2.65135
0
LINE
8
BLACK
6
CONTINUOUS
10
1.3014
20
-2.65135
11
1.29913
21
-2.66473
0
LINE
8
BLACK
6
CONTINUOUS
10
1.29913
20
-2.66473
11
1.29537
21
-2.67778
0
LINE
8
BLACK
6
CONTINUOUS
10
1.29537
20
-2.67778
11
1.29018
21
-2.69032
0
LINE
8
BLACK
6
CONTINUOUS
10
1.29018
20
-2.69032
11
1.28361
21
-2.7022
0
LINE
8
BLACK
6
CONTINUOUS
10
1.28361
20
-2.7022
11
1.27575
21
-2.71328
0
LINE
8
BLACK
6
CONTINUOUS
10
1.27575
20
-2.71328
11
1.26671
21
-2.7234
0
LINE
8
BLACK
6
CONTINUOUS
10
1.26671
20
-2.7234
11
1.25658
21
-2.73245
0
LINE
8
BLACK
6
CONTINUOUS
10
1.25658
20
-2.73245
11
1.24551
21
-2.7403
0
LINE
8
BLACK
6
CONTINUOUS
10
1.24551
20
-2.7403
11
1.23363
21
-2.74687
0
LINE
8
BLACK
6
CONTINUOUS
10
1.23363
20
-2.74687
11
1.22109
21
-2.75206
0
LINE
8
BLACK
6
CONTINUOUS
10
1.22109
20
-2.75206
11
1.20804
21
-2.75582
0
LINE
8
BLACK
6
CONTINUOUS
10
1.20804
20
-2.75582
11
1.19466
21
-2.7581
0
LINE
8
BLACK
6
CONTINUOUS
10
1.19466
20
-2.7581
11
1.1811
21
-2.75886
0
LINE
8
BLACK
6
CONTINUOUS
10
1.1811
20
-2.75886
11
1.16755
21
-2.7581
0
LINE
8
BLACK
6
CONTINUOUS
10
1.16755
20
-2.7581
11
1.15416
21
-2.75582
0
LINE
8
BLACK
6
CONTINUOUS
10
1.15416
20
-2.75582
11
1.14112
21
-2.75206
0
LINE
8
BLACK
6
CONTINUOUS
10
1.14112
20
-2.75206
11
1.12858
21
-2.74687
0
LINE
8
BLACK
6
CONTINUOUS
10
1.12858
20
-2.74687
11
1.11669
21
-2.7403
0
LINE
8
BLACK
6
CONTINUOUS
10
1.11669
20
-2.7403
11
1.10562
21
-2.73245
0
LINE
8
BLACK
6
CONTINUOUS
10
1.10562
20
-2.73245
11
1.0955
21
-2.7234
0
LINE
8
BLACK
6
CONTINUOUS
10
1.0955
20
-2.7234
11
1.08645
21
-2.71328
0
LINE
8
BLACK
6
CONTINUOUS
10
1.08645
20
-2.71328
11
1.0786
21
-2.7022
0
LINE
8
BLACK
6
CONTINUOUS
10
1.0786
20
-2.7022
11
1.07203
21
-2.69032
0
LINE
8
BLACK
6
CONTINUOUS
10
1.07203
20
-2.69032
11
1.06683
21
-2.67778
0
LINE
8
BLACK
6
CONTINUOUS
10
1.06683
20
-2.67778
11
1.06307
21
-2.66473
0
LINE
8
BLACK
6
CONTINUOUS
10
1.06307
20
-2.66473
11
1.0608
21
-2.65135
0
LINE
8
BLACK
6
CONTINUOUS
10
1.0608
20
-2.65135
11
1.06004
21
-2.6378
0
LINE
8
BLACK
6
CONTINUOUS
10
1.06004
20
-2.6378
11
1.0608
21
-2.62424
0
LINE
8
BLACK
6
CONTINUOUS
10
1.0608
20
-2.62424
11
1.06307
21
-2.61086
0
LINE
8
BLACK
6
CONTINUOUS
10
1.06307
20
-2.61086
11
1.06683
21
-2.59781
0
LINE
8
BLACK
6
CONTINUOUS
10
1.06683
20
-2.59781
11
1.07203
21
-2.58527
0
LINE
8
BLACK
6
CONTINUOUS
10
1.07203
20
-2.58527
11
1.0786
21
-2.57339
0
LINE
8
BLACK
6
CONTINUOUS
10
1.0786
20
-2.57339
11
1.08645
21
-2.56231
0
LINE
8
BLACK
6
CONTINUOUS
10
1.08645
20
-2.56231
11
1.0955
21
-2.55219
0
LINE
8
BLACK
6
CONTINUOUS
10
1.0955
20
-2.55219
11
1.10562
21
-2.54314
0
LINE
8
BLACK
6
CONTINUOUS
10
1.10562
20
-2.54314
11
1.11669
21
-2.53529
0
LINE
8
BLACK
6
CONTINUOUS
10
1.11669
20
-2.53529
11
1.12858
21
-2.52872
0
LINE
8
BLACK
6
CONTINUOUS
10
1.12858
20
-2.52872
11
1.14112
21
-2.52353
0
LINE
8
BLACK
6
CONTINUOUS
10
1.14112
20
-2.52353
11
1.15416
21
-2.51977
0
LINE
8
BLACK
6
CONTINUOUS
10
1.15416
20
-2.51977
11
1.16755
21
-2.51749
0
LINE
8
BLACK
6
CONTINUOUS
10
1.16755
20
-2.51749
11
1.1811
21
-2.51673
0
LINE
8
BLACK
6
CONTINUOUS
10
1.1811
20
-2.51673
11
1.19466
21
-2.51749
0
LINE
8
BLACK
6
CONTINUOUS
10
1.06653
20
-2.65119
11
1.06886
21
-2.6644
0
LINE
8
BLACK
6
CONTINUOUS
10
1.06886
20
-2.6644
11
1.07271
21
-2.67725
0
LINE
8
BLACK
6
CONTINUOUS
10
1.07271
20
-2.67725
11
1.07802
21
-2.68957
0
LINE
8
BLACK
6
CONTINUOUS
10
1.07802
20
-2.68957
11
1.08473
21
-2.70118
0
LINE
8
BLACK
6
CONTINUOUS
10
1.08473
20
-2.70118
11
1.09274
21
-2.71194
0
LINE
8
BLACK
6
CONTINUOUS
10
1.09274
20
-2.71194
11
1.10194
21
-2.7217
0
LINE
8
BLACK
6
CONTINUOUS
10
1.10194
20
-2.7217
11
1.11222
21
-2.73032
0
LINE
8
BLACK
6
CONTINUOUS
10
1.11222
20
-2.73032
11
1.12343
21
-2.73769
0
LINE
8
BLACK
6
CONTINUOUS
10
1.12343
20
-2.73769
11
1.13541
21
-2.74371
0
LINE
8
BLACK
6
CONTINUOUS
10
1.13541
20
-2.74371
11
1.14802
21
-2.7483
0
LINE
8
BLACK
6
CONTINUOUS
10
1.14802
20
-2.7483
11
1.16107
21
-2.7514
0
LINE
8
BLACK
6
CONTINUOUS
10
1.16107
20
-2.7514
11
1.1744
21
-2.75295
0
LINE
8
BLACK
6
CONTINUOUS
10
1.1744
20
-2.75295
11
1.18781
21
-2.75295
0
LINE
8
BLACK
6
CONTINUOUS
10
1.18781
20
-2.75295
11
1.20113
21
-2.7514
0
LINE
8
BLACK
6
CONTINUOUS
10
1.20113
20
-2.7514
11
1.21419
21
-2.7483
0
LINE
8
BLACK
6
CONTINUOUS
10
1.21419
20
-2.7483
11
1.22679
21
-2.74371
0
LINE
8
BLACK
6
CONTINUOUS
10
1.22679
20
-2.74371
11
1.23878
21
-2.73769
0
LINE
8
BLACK
6
CONTINUOUS
10
1.23878
20
-2.73769
11
1.24999
21
-2.73032
0
LINE
8
BLACK
6
CONTINUOUS
10
1.24999
20
-2.73032
11
1.26026
21
-2.7217
0
LINE
8
BLACK
6
CONTINUOUS
10
1.26026
20
-2.7217
11
1.26947
21
-2.71194
0
LINE
8
BLACK
6
CONTINUOUS
10
1.26947
20
-2.71194
11
1.27748
21
-2.70118
0
LINE
8
BLACK
6
CONTINUOUS
10
1.27748
20
-2.70118
11
1.28419
21
-2.68957
0
LINE
8
BLACK
6
CONTINUOUS
10
1.28419
20
-2.68957
11
1.2895
21
-2.67725
0
LINE
8
BLACK
6
CONTINUOUS
10
1.2895
20
-2.67725
11
1.29335
21
-2.6644
0
LINE
8
BLACK
6
CONTINUOUS
10
1.29335
20
-2.6644
11
1.29568
21
-2.65119
0
LINE
8
BLACK
6
CONTINUOUS
10
1.29568
20
-2.65119
11
1.29645
21
-2.6378
0
LINE
8
BLACK
6
CONTINUOUS
10
1.29645
20
-2.6378
11
1.29568
21
-2.6244
0
LINE
8
BLACK
6
CONTINUOUS
10
1.29568
20
-2.6244
11
1.29335
21
-2.61119
0
LINE
8
BLACK
6
CONTINUOUS
10
1.29335
20
-2.61119
11
1.2895
21
-2.59834
0
LINE
8
BLACK
6
CONTINUOUS
10
1.2895
20
-2.59834
11
1.28419
21
-2.58603
0
LINE
8
BLACK
6
CONTINUOUS
10
1.28419
20
-2.58603
11
1.27748
21
-2.57441
0
LINE
8
BLACK
6
CONTINUOUS
10
1.27748
20
-2.57441
11
1.26947
21
-2.56365
0
LINE
8
BLACK
6
CONTINUOUS
10
1.26947
20
-2.56365
11
1.26026
21
-2.55389
0
LINE
8
BLACK
6
CONTINUOUS
10
1.26026
20
-2.55389
11
1.24999
21
-2.54527
0
LINE
8
BLACK
6
CONTINUOUS
10
1.24999
20
-2.54527
11
1.23878
21
-2.5379
0
LINE
8
BLACK
6
CONTINUOUS
10
1.23878
20
-2.5379
11
1.22679
21
-2.53188
0
LINE
8
BLACK
6
CONTINUOUS
10
1.22679
20
-2.53188
11
1.21419
21
-2.52729
0
LINE
8
BLACK
6
CONTINUOUS
10
1.21419
20
-2.52729
11
1.20113
21
-2.5242
0
LINE
8
BLACK
6
CONTINUOUS
10
1.20113
20
-2.5242
11
1.18781
21
-2.52264
0
LINE
8
BLACK
6
CONTINUOUS
10
1.18781
20
-2.52264
11
1.1744
21
-2.52264
0
LINE
8
BLACK
6
CONTINUOUS
10
1.1744
20
-2.52264
11
1.16107
21
-2.5242
0
LINE
8
BLACK
6
CONTINUOUS
10
1.16107
20
-2.5242
11
1.14802
21
-2.52729
0
LINE
8
BLACK
6
CONTINUOUS
10
1.14802
20
-2.52729
11
1.13541
21
-2.53188
0
LINE
8
BLACK
6
CONTINUOUS
10
1.13541
20
-2.53188
11
1.12343
21
-2.5379
0
LINE
8
BLACK
6
CONTINUOUS
10
1.12343
20
-2.5379
11
1.11222
21
-2.54527
0
LINE
8
BLACK
6
CONTINUOUS
10
1.11222
20
-2.54527
11
1.10194
21
-2.55389
0
LINE
8
BLACK
6
CONTINUOUS
10
1.10194
20
-2.55389
11
1.09274
21
-2.56365
0
LINE
8
BLACK
6
CONTINUOUS
10
1.09274
20
-2.56365
11
1.08473
21
-2.57441
0
LINE
8
BLACK
6
CONTINUOUS
10
1.08473
20
-2.57441
11
1.07802
21
-2.58603
0
LINE
8
BLACK
6
CONTINUOUS
10
1.07802
20
-2.58603
11
1.07271
21
-2.59834
0
LINE
8
BLACK
6
CONTINUOUS
10
1.07271
20
-2.59834
11
1.06886
21
-2.61119
0
LINE
8
BLACK
6
CONTINUOUS
10
1.06886
20
-2.61119
11
1.06653
21
-2.6244
0
LINE
8
BLACK
6
CONTINUOUS
10
1.06653
20
-2.6244
11
1.06575
21
-2.6378
0
LINE
8
BLACK
6
CONTINUOUS
10
1.06575
20
-2.6378
11
1.06653
21
-2.65119
0
LINE
8
BLACK
6
CONTINUOUS
10
4.14741
20
-2.51749
11
4.1608
21
-2.51977
0
LINE
8
BLACK
6
CONTINUOUS
10
4.1608
20
-2.51977
11
4.17384
21
-2.52353
0
LINE
8
BLACK
6
CONTINUOUS
10
4.17384
20
-2.52353
11
4.18639
21
-2.52872
0
LINE
8
BLACK
6
CONTINUOUS
10
4.18639
20
-2.52872
11
4.19827
21
-2.53529
0
LINE
8
BLACK
6
CONTINUOUS
10
4.19827
20
-2.53529
11
4.20934
21
-2.54314
0
LINE
8
BLACK
6
CONTINUOUS
10
4.20934
20
-2.54314
11
4.21946
21
-2.55219
0
LINE
8
BLACK
6
CONTINUOUS
10
4.21946
20
-2.55219
11
4.22851
21
-2.56231
0
LINE
8
BLACK
6
CONTINUOUS
10
4.22851
20
-2.56231
11
4.23637
21
-2.57339
0
LINE
8
BLACK
6
CONTINUOUS
10
4.23637
20
-2.57339
11
4.24293
21
-2.58527
0
LINE
8
BLACK
6
CONTINUOUS
10
4.24293
20
-2.58527
11
4.24813
21
-2.59781
0
LINE
8
BLACK
6
CONTINUOUS
10
4.24813
20
-2.59781
11
4.25189
21
-2.61086
0
LINE
8
BLACK
6
CONTINUOUS
10
4.25189
20
-2.61086
11
4.25416
21
-2.62424
0
LINE
8
BLACK
6
CONTINUOUS
10
4.25416
20
-2.62424
11
4.25492
21
-2.6378
0
LINE
8
BLACK
6
CONTINUOUS
10
4.25492
20
-2.6378
11
4.25416
21
-2.65135
0
LINE
8
BLACK
6
CONTINUOUS
10
4.25416
20
-2.65135
11
4.25189
21
-2.66473
0
LINE
8
BLACK
6
CONTINUOUS
10
4.25189
20
-2.66473
11
4.24813
21
-2.67778
0
LINE
8
BLACK
6
CONTINUOUS
10
4.24813
20
-2.67778
11
4.24293
21
-2.69032
0
LINE
8
BLACK
6
CONTINUOUS
10
4.24293
20
-2.69032
11
4.23637
21
-2.7022
0
LINE
8
BLACK
6
CONTINUOUS
10
4.23637
20
-2.7022
11
4.22851
21
-2.71328
0
LINE
8
BLACK
6
CONTINUOUS
10
4.22851
20
-2.71328
11
4.21946
21
-2.7234
0
LINE
8
BLACK
6
CONTINUOUS
10
4.21946
20
-2.7234
11
4.20934
21
-2.73245
0
LINE
8
BLACK
6
CONTINUOUS
10
4.20934
20
-2.73245
11
4.19827
21
-2.7403
0
LINE
8
BLACK
6
CONTINUOUS
10
4.19827
20
-2.7403
11
4.18639
21
-2.74687
0
LINE
8
BLACK
6
CONTINUOUS
10
4.18639
20
-2.74687
11
4.17384
21
-2.75206
0
LINE
8
BLACK
6
CONTINUOUS
10
4.17384
20
-2.75206
11
4.1608
21
-2.75582
0
LINE
8
BLACK
6
CONTINUOUS
10
4.1608
20
-2.75582
11
4.14741
21
-2.7581
0
LINE
8
BLACK
6
CONTINUOUS
10
4.14741
20
-2.7581
11
4.13386
21
-2.75886
0
LINE
8
BLACK
6
CONTINUOUS
10
4.13386
20
-2.75886
11
4.1203
21
-2.7581
0
LINE
8
BLACK
6
CONTINUOUS
10
4.1203
20
-2.7581
11
4.10692
21
-2.75582
0
LINE
8
BLACK
6
CONTINUOUS
10
4.10692
20
-2.75582
11
4.09387
21
-2.75206
0
LINE
8
BLACK
6
CONTINUOUS
10
4.09387
20
-2.75206
11
4.08133
21
-2.74687
0
LINE
8
BLACK
6
CONTINUOUS
10
4.08133
20
-2.74687
11
4.06945
21
-2.7403
0
LINE
8
BLACK
6
CONTINUOUS
10
4.06945
20
-2.7403
11
4.05838
21
-2.73245
0
LINE
8
BLACK
6
CONTINUOUS
10
4.05838
20
-2.73245
11
4.04825
21
-2.7234
0
LINE
8
BLACK
6
CONTINUOUS
10
4.04825
20
-2.7234
11
4.03921
21
-2.71328
0
LINE
8
BLACK
6
CONTINUOUS
10
4.03921
20
-2.71328
11
4.03135
21
-2.7022
0
LINE
8
BLACK
6
CONTINUOUS
10
4.03135
20
-2.7022
11
4.02478
21
-2.69032
0
LINE
8
BLACK
6
CONTINUOUS
10
4.02478
20
-2.69032
11
4.01959
21
-2.67778
0
LINE
8
BLACK
6
CONTINUOUS
10
4.01959
20
-2.67778
11
4.01583
21
-2.66473
0
LINE
8
BLACK
6
CONTINUOUS
10
4.01583
20
-2.66473
11
4.01356
21
-2.65135
0
LINE
8
BLACK
6
CONTINUOUS
10
4.01356
20
-2.65135
11
4.0128
21
-2.6378
0
LINE
8
BLACK
6
CONTINUOUS
10
4.0128
20
-2.6378
11
4.01356
21
-2.62424
0
LINE
8
BLACK
6
CONTINUOUS
10
4.01356
20
-2.62424
11
4.01583
21
-2.61086
0
LINE
8
BLACK
6
CONTINUOUS
10
4.01583
20
-2.61086
11
4.01959
21
-2.59781
0
LINE
8
BLACK
6
CONTINUOUS
10
4.01959
20
-2.59781
11
4.02478
21
-2.58527
0
LINE
8
BLACK
6
CONTINUOUS
10
4.02478
20
-2.58527
11
4.03135
21
-2.57339
0
LINE
8
BLACK
6
CONTINUOUS
10
4.03135
20
-2.57339
11
4.03921
21
-2.56231
0
LINE
8
BLACK
6
CONTINUOUS
10
4.03921
20
-2.56231
11
4.04825
21
-2.55219
0
LINE
8
BLACK
6
CONTINUOUS
10
4.04825
20
-2.55219
11
4.05838
21
-2.54314
0
LINE
8
BLACK
6
CONTINUOUS
10
4.05838
20
-2.54314
11
4.06945
21
-2.53529
0
LINE
8
BLACK
6
CONTINUOUS
10
4.06945
20
-2.53529
11
4.08133
21
-2.52872
0
LINE
8
BLACK
6
CONTINUOUS
10
4.08133
20
-2.52872
11
4.09387
21
-2.52353
0
LINE
8
BLACK
6
CONTINUOUS
10
4.09387
20
-2.52353
11
4.10692
21
-2.51977
0
LINE
8
BLACK
6
CONTINUOUS
10
4.10692
20
-2.51977
11
4.1203
21
-2.51749
0
LINE
8
BLACK
6
CONTINUOUS
10
4.1203
20
-2.51749
11
4.13386
21
-2.51673
0
LINE
8
BLACK
6
CONTINUOUS
10
4.13386
20
-2.51673
11
4.14741
21
-2.51749
0
LINE
8
BLACK
6
CONTINUOUS
10
4.01929
20
-2.65119
11
4.02161
21
-2.6644
0
LINE
8
BLACK
6
CONTINUOUS
10
4.02161
20
-2.6644
11
4.02546
21
-2.67725
0
LINE
8
BLACK
6
CONTINUOUS
10
4.02546
20
-2.67725
11
4.03078
21
-2.68957
0
LINE
8
BLACK
6
CONTINUOUS
10
4.03078
20
-2.68957
11
4.03748
21
-2.70118
0
LINE
8
BLACK
6
CONTINUOUS
10
4.03748
20
-2.70118
11
4.04549
21
-2.71194
0
LINE
8
BLACK
6
CONTINUOUS
10
4.04549
20
-2.71194
11
4.0547
21
-2.7217
0
LINE
8
BLACK
6
CONTINUOUS
10
4.0547
20
-2.7217
11
4.06497
21
-2.73032
0
LINE
8
BLACK
6
CONTINUOUS
10
4.06497
20
-2.73032
11
4.07618
21
-2.73769
0
LINE
8
BLACK
6
CONTINUOUS
10
4.07618
20
-2.73769
11
4.08817
21
-2.74371
0
LINE
8
BLACK
6
CONTINUOUS
10
4.08817
20
-2.74371
11
4.10077
21
-2.7483
0
LINE
8
BLACK
6
CONTINUOUS
10
4.10077
20
-2.7483
11
4.11383
21
-2.7514
0
LINE
8
BLACK
6
CONTINUOUS
10
4.11383
20
-2.7514
11
4.12715
21
-2.75295
0
LINE
8
BLACK
6
CONTINUOUS
10
4.12715
20
-2.75295
11
4.14057
21
-2.75295
0
LINE
8
BLACK
6
CONTINUOUS
10
4.14057
20
-2.75295
11
4.15389
21
-2.7514
0
LINE
8
BLACK
6
CONTINUOUS
10
4.15389
20
-2.7514
11
4.16694
21
-2.7483
0
LINE
8
BLACK
6
CONTINUOUS
10
4.16694
20
-2.7483
11
4.17955
21
-2.74371
0
LINE
8
BLACK
6
CONTINUOUS
10
4.17955
20
-2.74371
11
4.19153
21
-2.73769
0
LINE
8
BLACK
6
CONTINUOUS
10
4.19153
20
-2.73769
11
4.20274
21
-2.73032
0
LINE
8
BLACK
6
CONTINUOUS
10
4.20274
20
-2.73032
11
4.21302
21
-2.7217
0
LINE
8
BLACK
6
CONTINUOUS
10
4.21302
20
-2.7217
11
4.22222
21
-2.71194
0
LINE
8
BLACK
6
CONTINUOUS
10
4.22222
20
-2.71194
11
4.23023
21
-2.70118
0
LINE
8
BLACK
6
CONTINUOUS
10
4.23023
20
-2.70118
11
4.23694
21
-2.68957
0
LINE
8
BLACK
6
CONTINUOUS
10
4.23694
20
-2.68957
11
4.24225
21
-2.67725
0
LINE
8
BLACK
6
CONTINUOUS
10
4.24225
20
-2.67725
11
4.2461
21
-2.6644
0
LINE
8
BLACK
6
CONTINUOUS
10
4.2461
20
-2.6644
11
4.24843
21
-2.65119
0
LINE
8
BLACK
6
CONTINUOUS
10
4.24843
20
-2.65119
11
4.24921
21
-2.6378
0
LINE
8
BLACK
6
CONTINUOUS
10
4.24921
20
-2.6378
11
4.24843
21
-2.6244
0
LINE
8
BLACK
6
CONTINUOUS
10
4.24843
20
-2.6244
11
4.2461
21
-2.61119
0
LINE
8
BLACK
6
CONTINUOUS
10
4.2461
20
-2.61119
11
4.24225
21
-2.59834
0
LINE
8
BLACK
6
CONTINUOUS
10
4.24225
20
-2.59834
11
4.23694
21
-2.58603
0
LINE
8
BLACK
6
CONTINUOUS
10
4.23694
20
-2.58603
11
4.23023
21
-2.57441
0
LINE
8
BLACK
6
CONTINUOUS
10
4.23023
20
-2.57441
11
4.22222
21
-2.56365
0
LINE
8
BLACK
6
CONTINUOUS
10
4.22222
20
-2.56365
11
4.21302
21
-2.55389
0
LINE
8
BLACK
6
CONTINUOUS
10
4.21302
20
-2.55389
11
4.20274
21
-2.54527
0
LINE
8
BLACK
6
CONTINUOUS
10
4.20274
20
-2.54527
11
4.19153
21
-2.5379
0
LINE
8
BLACK
6
CONTINUOUS
10
4.19153
20
-2.5379
11
4.17955
21
-2.53188
0
LINE
8
BLACK
6
CONTINUOUS
10
4.17955
20
-2.53188
11
4.16694
21
-2.52729
0
LINE
8
BLACK
6
CONTINUOUS
10
4.16694
20
-2.52729
11
4.15389
21
-2.5242
0
LINE
8
BLACK
6
CONTINUOUS
10
4.15389
20
-2.5242
11
4.14057
21
-2.52264
0
LINE
8
BLACK
6
CONTINUOUS
10
4.14057
20
-2.52264
11
4.12715
21
-2.52264
0
LINE
8
BLACK
6
CONTINUOUS
10
4.12715
20
-2.52264
11
4.11383
21
-2.5242
0
LINE
8
BLACK
6
CONTINUOUS
10
4.11383
20
-2.5242
11
4.10077
21
-2.52729
0
LINE
8
BLACK
6
CONTINUOUS
10
4.10077
20
-2.52729
11
4.08817
21
-2.53188
0
LINE
8
BLACK
6
CONTINUOUS
10
4.08817
20
-2.53188
11
4.07618
21
-2.5379
0
LINE
8
BLACK
6
CONTINUOUS
10
4.07618
20
-2.5379
11
4.06497
21
-2.54527
0
LINE
8
BLACK
6
CONTINUOUS
10
4.06497
20
-2.54527
11
4.0547
21
-2.55389
0
LINE
8
BLACK
6
CONTINUOUS
10
4.0547
20
-2.55389
11
4.04549
21
-2.56365
0
LINE
8
BLACK
6
CONTINUOUS
10
4.04549
20
-2.56365
11
4.03748
21
-2.57441
0
LINE
8
BLACK
6
CONTINUOUS
10
4.03748
20
-2.57441
11
4.03078
21
-2.58603
0
LINE
8
BLACK
6
CONTINUOUS
10
4.03078
20
-2.58603
11
4.02546
21
-2.59834
0
LINE
8
BLACK
6
CONTINUOUS
10
4.02546
20
-2.59834
11
4.02161
21
-2.61119
0
LINE
8
BLACK
6
CONTINUOUS
10
4.02161
20
-2.61119
11
4.01929
21
-2.6244
0
LINE
8
BLACK
6
CONTINUOUS
10
4.01929
20
-2.6244
11
4.01851
21
-2.6378
0
LINE
8
BLACK
6
CONTINUOUS
10
4.01851
20
-2.6378
11
4.01929
21
-2.65119
0
LINE
8
BLACK
6
CONTINUOUS
10
7.10017
20
-2.51749
11
7.11355
21
-2.51977
0
LINE
8
BLACK
6
CONTINUOUS
10
7.11355
20
-2.51977
11
7.1266
21
-2.52353
0
LINE
8
BLACK
6
CONTINUOUS
10
7.1266
20
-2.52353
11
7.13914
21
-2.52872
0
LINE
8
BLACK
6
CONTINUOUS
10
7.13914
20
-2.52872
11
7.15102
21
-2.53529
0
LINE
8
BLACK
6
CONTINUOUS
10
7.15102
20
-2.53529
11
7.1621
21
-2.54314
0
LINE
8
BLACK
6
CONTINUOUS
10
7.1621
20
-2.54314
11
7.17222
21
-2.55219
0
LINE
8
BLACK
6
CONTINUOUS
10
7.17222
20
-2.55219
11
7.18127
21
-2.56231
0
LINE
8
BLACK
6
CONTINUOUS
10
7.18127
20
-2.56231
11
7.18912
21
-2.57339
0
LINE
8
BLACK
6
CONTINUOUS
10
7.18912
20
-2.57339
11
7.19569
21
-2.58527
0
LINE
8
BLACK
6
CONTINUOUS
10
7.19569
20
-2.58527
11
7.20088
21
-2.59781
0
LINE
8
BLACK
6
CONTINUOUS
10
7.20088
20
-2.59781
11
7.20464
21
-2.61086
0
LINE
8
BLACK
6
CONTINUOUS
10
7.20464
20
-2.61086
11
7.20692
21
-2.62424
0
LINE
8
BLACK
6
CONTINUOUS
10
7.20692
20
-2.62424
11
7.20768
21
-2.6378
0
LINE
8
BLACK
6
CONTINUOUS
10
7.20768
20
-2.6378
11
7.20692
21
-2.65135
0
LINE
8
BLACK
6
CONTINUOUS
10
7.20692
20
-2.65135
11
7.20464
21
-2.66473
0
LINE
8
BLACK
6
CONTINUOUS
10
7.20464
20
-2.66473
11
7.20088
21
-2.67778
0
LINE
8
BLACK
6
CONTINUOUS
10
7.20088
20
-2.67778
11
7.19569
21
-2.69032
0
LINE
8
BLACK
6
CONTINUOUS
10
7.19569
20
-2.69032
11
7.18912
21
-2.7022
0
LINE
8
BLACK
6
CONTINUOUS
10
7.18912
20
-2.7022
11
7.18127
21
-2.71328
0
LINE
8
BLACK
6
CONTINUOUS
10
7.18127
20
-2.71328
11
7.17222
21
-2.7234
0
LINE
8
BLACK
6
CONTINUOUS
10
7.17222
20
-2.7234
11
7.1621
21
-2.73245
0
LINE
8
BLACK
6
CONTINUOUS
10
7.1621
20
-2.73245
11
7.15102
21
-2.7403
0
LINE
8
BLACK
6
CONTINUOUS
10
7.15102
20
-2.7403
11
7.13914
21
-2.74687
0
LINE
8
BLACK
6
CONTINUOUS
10
7.13914
20
-2.74687
11
7.1266
21
-2.75206
0
LINE
8
BLACK
6
CONTINUOUS
10
7.1266
20
-2.75206
11
7.11355
21
-2.75582
0
LINE
8
BLACK
6
CONTINUOUS
10
7.11355
20
-2.75582
11
7.10017
21
-2.7581
0
LINE
8
BLACK
6
CONTINUOUS
10
7.10017
20
-2.7581
11
7.08661
21
-2.75886
0
LINE
8
BLACK
6
CONTINUOUS
10
7.08661
20
-2.75886
11
7.07306
21
-2.7581
0
LINE
8
BLACK
6
CONTINUOUS
10
7.07306
20
-2.7581
11
7.05968
21
-2.75582
0
LINE
8
BLACK
6
CONTINUOUS
10
7.05968
20
-2.75582
11
7.04663
21
-2.75206
0
LINE
8
BLACK
6
CONTINUOUS
10
7.04663
20
-2.75206
11
7.03409
21
-2.74687
0
LINE
8
BLACK
6
CONTINUOUS
10
7.03409
20
-2.74687
11
7.0222
21
-2.7403
0
LINE
8
BLACK
6
CONTINUOUS
10
7.0222
20
-2.7403
11
7.01113
21
-2.73245
0
LINE
8
BLACK
6
CONTINUOUS
10
7.01113
20
-2.73245
11
7.00101
21
-2.7234
0
LINE
8
BLACK
6
CONTINUOUS
10
7.00101
20
-2.7234
11
6.99196
21
-2.71328
0
LINE
8
BLACK
6
CONTINUOUS
10
6.99196
20
-2.71328
11
6.98411
21
-2.7022
0
LINE
8
BLACK
6
CONTINUOUS
10
6.98411
20
-2.7022
11
6.97754
21
-2.69032
0
LINE
8
BLACK
6
CONTINUOUS
10
6.97754
20
-2.69032
11
6.97234
21
-2.67778
0
LINE
8
BLACK
6
CONTINUOUS
10
6.97234
20
-2.67778
11
6.96859
21
-2.66473
0
LINE
8
BLACK
6
CONTINUOUS
10
6.96859
20
-2.66473
11
6.96631
21
-2.65135
0
LINE
8
BLACK
6
CONTINUOUS
10
6.96631
20
-2.65135
11
6.96555
21
-2.6378
0
LINE
8
BLACK
6
CONTINUOUS
10
6.96555
20
-2.6378
11
6.96631
21
-2.62424
0
LINE
8
BLACK
6
CONTINUOUS
10
6.96631
20
-2.62424
11
6.96859
21
-2.61086
0
LINE
8
BLACK
6
CONTINUOUS
10
6.96859
20
-2.61086
11
6.97234
21
-2.59781
0
LINE
8
BLACK
6
CONTINUOUS
10
6.97234
20
-2.59781
11
6.97754
21
-2.58527
0
LINE
8
BLACK
6
CONTINUOUS
10
6.97754
20
-2.58527
11
6.98411
21
-2.57339
0
LINE
8
BLACK
6
CONTINUOUS
10
6.98411
20
-2.57339
11
6.99196
21
-2.56231
0
LINE
8
BLACK
6
CONTINUOUS
10
6.99196
20
-2.56231
11
7.00101
21
-2.55219
0
LINE
8
BLACK
6
CONTINUOUS
10
7.00101
20
-2.55219
11
7.01113
21
-2.54314
0
LINE
8
BLACK
6
CONTINUOUS
10
7.01113
20
-2.54314
11
7.0222
21
-2.53529
0
LINE
8
BLACK
6
CONTINUOUS
10
7.0222
20
-2.53529
11
7.03409
21
-2.52872
0
LINE
8
BLACK
6
CONTINUOUS
10
7.03409
20
-2.52872
11
7.04663
21
-2.52353
0
LINE
8
BLACK
6
CONTINUOUS
10
7.04663
20
-2.52353
11
7.05968
21
-2.51977
0
LINE
8
BLACK
6
CONTINUOUS
10
7.05968
20
-2.51977
11
7.07306
21
-2.51749
0
LINE
8
BLACK
6
CONTINUOUS
10
7.07306
20
-2.51749
11
7.08661
21
-2.51673
0
LINE
8
BLACK
6
CONTINUOUS
10
7.08661
20
-2.51673
11
7.10017
21
-2.51749
0
LINE
8
BLACK
6
CONTINUOUS
10
6.97204
20
-2.65119
11
6.97437
21
-2.6644
0
LINE
8
BLACK
6
CONTINUOUS
10
6.97437
20
-2.6644
11
6.97822
21
-2.67725
0
LINE
8
BLACK
6
CONTINUOUS
10
6.97822
20
-2.67725
11
6.98353
21
-2.68957
0
LINE
8
BLACK
6
CONTINUOUS
10
6.98353
20
-2.68957
11
6.99024
21
-2.70118
0
LINE
8
BLACK
6
CONTINUOUS
10
6.99024
20
-2.70118
11
6.99825
21
-2.71194
0
LINE
8
BLACK
6
CONTINUOUS
10
6.99825
20
-2.71194
11
7.00745
21
-2.7217
0
LINE
8
BLACK
6
CONTINUOUS
10
7.00745
20
-2.7217
11
7.01773
21
-2.73032
0
LINE
8
BLACK
6
CONTINUOUS
10
7.01773
20
-2.73032
11
7.02894
21
-2.73769
0
LINE
8
BLACK
6
CONTINUOUS
10
7.02894
20
-2.73769
11
7.04093
21
-2.74371
0
LINE
8
BLACK
6
CONTINUOUS
10
7.04093
20
-2.74371
11
7.05353
21
-2.7483
0
LINE
8
BLACK
6
CONTINUOUS
10
7.05353
20
-2.7483
11
7.06658
21
-2.7514
0
LINE
8
BLACK
6
CONTINUOUS
10
7.06658
20
-2.7514
11
7.07991
21
-2.75295
0
LINE
8
BLACK
6
CONTINUOUS
10
7.07991
20
-2.75295
11
7.09332
21
-2.75295
0
LINE
8
BLACK
6
CONTINUOUS
10
7.09332
20
-2.75295
11
7.10664
21
-2.7514
0
LINE
8
BLACK
6
CONTINUOUS
10
7.10664
20
-2.7514
11
7.1197
21
-2.7483
0
LINE
8
BLACK
6
CONTINUOUS
10
7.1197
20
-2.7483
11
7.1323
21
-2.74371
0
LINE
8
BLACK
6
CONTINUOUS
10
7.1323
20
-2.74371
11
7.14429
21
-2.73769
0
LINE
8
BLACK
6
CONTINUOUS
10
7.14429
20
-2.73769
11
7.1555
21
-2.73032
0
LINE
8
BLACK
6
CONTINUOUS
10
7.1555
20
-2.73032
11
7.16577
21
-2.7217
0
LINE
8
BLACK
6
CONTINUOUS
10
7.16577
20
-2.7217
11
7.17498
21
-2.71194
0
LINE
8
BLACK
6
CONTINUOUS
10
7.17498
20
-2.71194
11
7.18299
21
-2.70118
0
LINE
8
BLACK
6
CONTINUOUS
10
7.18299
20
-2.70118
11
7.1897
21
-2.68957
0
LINE
8
BLACK
6
CONTINUOUS
10
7.1897
20
-2.68957
11
7.19501
21
-2.67725
0
LINE
8
BLACK
6
CONTINUOUS
10
7.19501
20
-2.67725
11
7.19886
21
-2.6644
0
LINE
8
BLACK
6
CONTINUOUS
10
7.19886
20
-2.6644
11
7.20119
21
-2.65119
0
LINE
8
BLACK
6
CONTINUOUS
10
7.20119
20
-2.65119
11
7.20197
21
-2.6378
0
LINE
8
BLACK
6
CONTINUOUS
10
7.20197
20
-2.6378
11
7.20119
21
-2.6244
0
LINE
8
BLACK
6
CONTINUOUS
10
7.20119
20
-2.6244
11
7.19886
21
-2.61119
0
LINE
8
BLACK
6
CONTINUOUS
10
7.19886
20
-2.61119
11
7.19501
21
-2.59834
0
LINE
8
BLACK
6
CONTINUOUS
10
7.19501
20
-2.59834
11
7.1897
21
-2.58603
0
LINE
8
BLACK
6
CONTINUOUS
10
7.1897
20
-2.58603
11
7.18299
21
-2.57441
0
LINE
8
BLACK
6
CONTINUOUS
10
7.18299
20
-2.57441
11
7.17498
21
-2.56365
0
LINE
8
BLACK
6
CONTINUOUS
10
7.17498
20
-2.56365
11
7.16577
21
-2.55389
0
LINE
8
BLACK
6
CONTINUOUS
10
7.16577
20
-2.55389
11
7.1555
21
-2.54527
0
LINE
8
BLACK
6
CONTINUOUS
10
7.1555
20
-2.54527
11
7.14429
21
-2.5379
0
LINE
8
BLACK
6
CONTINUOUS
10
7.14429
20
-2.5379
11
7.1323
21
-2.53188
0
LINE
8
BLACK
6
CONTINUOUS
10
7.1323
20
-2.53188
11
7.1197
21
-2.52729
0
LINE
8
BLACK
6
CONTINUOUS
10
7.1197
20
-2.52729
11
7.10664
21
-2.5242
0
LINE
8
BLACK
6
CONTINUOUS
10
7.10664
20
-2.5242
11
7.09332
21
-2.52264
0
LINE
8
BLACK
6
CONTINUOUS
10
7.09332
20
-2.52264
11
7.07991
21
-2.52264
0
LINE
8
BLACK
6
CONTINUOUS
10
7.07991
20
-2.52264
11
7.06658
21
-2.5242
0
LINE
8
BLACK
6
CONTINUOUS
10
7.06658
20
-2.5242
11
7.05353
21
-2.52729
0
LINE
8
BLACK
6
CONTINUOUS
10
7.05353
20
-2.52729
11
7.04093
21
-2.53188
0
LINE
8
BLACK
6
CONTINUOUS
10
7.04093
20
-2.53188
11
7.02894
21
-2.5379
0
LINE
8
BLACK
6
CONTINUOUS
10
7.02894
20
-2.5379
11
7.01773
21
-2.54527
0
LINE
8
BLACK
6
CONTINUOUS
10
7.01773
20
-2.54527
11
7.00745
21
-2.55389
0
LINE
8
BLACK
6
CONTINUOUS
10
7.00745
20
-2.55389
11
6.99825
21
-2.56365
0
LINE
8
BLACK
6
CONTINUOUS
10
6.99825
20
-2.56365
11
6.99024
21
-2.57441
0
LINE
8
BLACK
6
CONTINUOUS
10
6.99024
20
-2.57441
11
6.98353
21
-2.58603
0
LINE
8
BLACK
6
CONTINUOUS
10
6.98353
20
-2.58603
11
6.97822
21
-2.59834
0
LINE
8
BLACK
6
CONTINUOUS
10
6.97822
20
-2.59834
11
6.97437
21
-2.61119
0
LINE
8
BLACK
6
CONTINUOUS
10
6.97437
20
-2.61119
11
6.97204
21
-2.6244
0
LINE
8
BLACK
6
CONTINUOUS
10
6.97204
20
-2.6244
11
6.97126
21
-2.6378
0
LINE
8
BLACK
6
CONTINUOUS
10
6.97126
20
-2.6378
11
6.97204
21
-2.65119
0
LINE
8
BLACK
6
CONTINUOUS
10
4.69899
20
-2.4088
11
4.7106
21
-2.41178
0
LINE
8
BLACK
6
CONTINUOUS
10
4.7106
20
-2.41178
11
4.72175
21
-2.4162
0
LINE
8
BLACK
6
CONTINUOUS
10
4.72175
20
-2.4162
11
4.73226
21
-2.42197
0
LINE
8
BLACK
6
CONTINUOUS
10
4.73226
20
-2.42197
11
4.74196
21
-2.42902
0
LINE
8
BLACK
6
CONTINUOUS
10
4.74196
20
-2.42902
11
4.7507
21
-2.43723
0
LINE
8
BLACK
6
CONTINUOUS
10
4.7507
20
-2.43723
11
4.75834
21
-2.44647
0
LINE
8
BLACK
6
CONTINUOUS
10
4.75834
20
-2.44647
11
4.76477
21
-2.45659
0
LINE
8
BLACK
6
CONTINUOUS
10
4.76477
20
-2.45659
11
4.76987
21
-2.46744
0
LINE
8
BLACK
6
CONTINUOUS
10
4.76987
20
-2.46744
11
4.77358
21
-2.47884
0
LINE
8
BLACK
6
CONTINUOUS
10
4.77358
20
-2.47884
11
4.77582
21
-2.49062
0
LINE
8
BLACK
6
CONTINUOUS
10
4.77582
20
-2.49062
11
4.77657
21
-2.50258
0
LINE
8
BLACK
6
CONTINUOUS
10
4.77657
20
-2.50258
11
4.77582
21
-2.51455
0
LINE
8
BLACK
6
CONTINUOUS
10
4.77582
20
-2.51455
11
4.77358
21
-2.52633
0
LINE
8
BLACK
6
CONTINUOUS
10
4.77358
20
-2.52633
11
4.76987
21
-2.53773
0
LINE
8
BLACK
6
CONTINUOUS
10
4.76987
20
-2.53773
11
4.76477
21
-2.54858
0
LINE
8
BLACK
6
CONTINUOUS
10
4.76477
20
-2.54858
11
4.75834
21
-2.5587
0
LINE
8
BLACK
6
CONTINUOUS
10
4.75834
20
-2.5587
11
4.7507
21
-2.56794
0
LINE
8
BLACK
6
CONTINUOUS
10
4.7507
20
-2.56794
11
4.74196
21
-2.57615
0
LINE
8
BLACK
6
CONTINUOUS
10
4.74196
20
-2.57615
11
4.73226
21
-2.58319
0
LINE
8
BLACK
6
CONTINUOUS
10
4.73226
20
-2.58319
11
4.72175
21
-2.58897
0
LINE
8
BLACK
6
CONTINUOUS
10
4.72175
20
-2.58897
11
4.7106
21
-2.59338
0
LINE
8
BLACK
6
CONTINUOUS
10
4.7106
20
-2.59338
11
4.69899
21
-2.59636
0
LINE
8
BLACK
6
CONTINUOUS
10
4.69899
20
-2.59636
11
4.6871
21
-2.59787
0
LINE
8
BLACK
6
CONTINUOUS
10
4.6871
20
-2.59787
11
4.67511
21
-2.59787
0
LINE
8
BLACK
6
CONTINUOUS
10
4.67511
20
-2.59787
11
4.66321
21
-2.59636
0
LINE
8
BLACK
6
CONTINUOUS
10
4.66321
20
-2.59636
11
4.6516
21
-2.59338
0
LINE
8
BLACK
6
CONTINUOUS
10
4.6516
20
-2.59338
11
4.64045
21
-2.58897
0
LINE
8
BLACK
6
CONTINUOUS
10
4.64045
20
-2.58897
11
4.62995
21
-2.58319
0
LINE
8
BLACK
6
CONTINUOUS
10
4.62995
20
-2.58319
11
4.62025
21
-2.57615
0
LINE
8
BLACK
6
CONTINUOUS
10
4.62025
20
-2.57615
11
4.61151
21
-2.56794
0
LINE
8
BLACK
6
CONTINUOUS
10
4.61151
20
-2.56794
11
4.60386
21
-2.5587
0
LINE
8
BLACK
6
CONTINUOUS
10
4.60386
20
-2.5587
11
4.59744
21
-2.54858
0
LINE
8
BLACK
6
CONTINUOUS
10
4.59744
20
-2.54858
11
4.59233
21
-2.53773
0
LINE
8
BLACK
6
CONTINUOUS
10
4.59233
20
-2.53773
11
4.58863
21
-2.52633
0
LINE
8
BLACK
6
CONTINUOUS
10
4.58863
20
-2.52633
11
4.58638
21
-2.51455
0
LINE
8
BLACK
6
CONTINUOUS
10
4.58638
20
-2.51455
11
4.58563
21
-2.50258
0
LINE
8
BLACK
6
CONTINUOUS
10
4.58563
20
-2.50258
11
4.58638
21
-2.49062
0
LINE
8
BLACK
6
CONTINUOUS
10
4.58638
20
-2.49062
11
4.58863
21
-2.47884
0
LINE
8
BLACK
6
CONTINUOUS
10
4.58863
20
-2.47884
11
4.59233
21
-2.46744
0
LINE
8
BLACK
6
CONTINUOUS
10
4.59233
20
-2.46744
11
4.59744
21
-2.45659
0
LINE
8
BLACK
6
CONTINUOUS
10
4.59744
20
-2.45659
11
4.60386
21
-2.44647
0
LINE
8
BLACK
6
CONTINUOUS
10
4.60386
20
-2.44647
11
4.61151
21
-2.43723
0
LINE
8
BLACK
6
CONTINUOUS
10
4.61151
20
-2.43723
11
4.62025
21
-2.42902
0
LINE
8
BLACK
6
CONTINUOUS
10
4.62025
20
-2.42902
11
4.62995
21
-2.42197
0
LINE
8
BLACK
6
CONTINUOUS
10
4.62995
20
-2.42197
11
4.64045
21
-2.4162
0
LINE
8
BLACK
6
CONTINUOUS
10
4.64045
20
-2.4162
11
4.6516
21
-2.41178
0
LINE
8
BLACK
6
CONTINUOUS
10
4.6516
20
-2.41178
11
4.66321
21
-2.4088
0
LINE
8
BLACK
6
CONTINUOUS
10
4.66321
20
-2.4088
11
4.67511
21
-2.4073
0
LINE
8
BLACK
6
CONTINUOUS
10
4.67511
20
-2.4073
11
4.6871
21
-2.4073
0
LINE
8
BLACK
6
CONTINUOUS
10
4.6871
20
-2.4073
11
4.69899
21
-2.4088
0
LINE
8
BLACK
6
CONTINUOUS
10
4.59211
20
-2.5143
11
4.5944
21
-2.52581
0
LINE
8
BLACK
6
CONTINUOUS
10
4.5944
20
-2.52581
11
4.59818
21
-2.53693
0
LINE
8
BLACK
6
CONTINUOUS
10
4.59818
20
-2.53693
11
4.60337
21
-2.54746
0
LINE
8
BLACK
6
CONTINUOUS
10
4.60337
20
-2.54746
11
4.60989
21
-2.55722
0
LINE
8
BLACK
6
CONTINUOUS
10
4.60989
20
-2.55722
11
4.61763
21
-2.56605
0
LINE
8
BLACK
6
CONTINUOUS
10
4.61763
20
-2.56605
11
4.62646
21
-2.57379
0
LINE
8
BLACK
6
CONTINUOUS
10
4.62646
20
-2.57379
11
4.63622
21
-2.58032
0
LINE
8
BLACK
6
CONTINUOUS
10
4.63622
20
-2.58032
11
4.64675
21
-2.58551
0
LINE
8
BLACK
6
CONTINUOUS
10
4.64675
20
-2.58551
11
4.65787
21
-2.58928
0
LINE
8
BLACK
6
CONTINUOUS
10
4.65787
20
-2.58928
11
4.66939
21
-2.59157
0
LINE
8
BLACK
6
CONTINUOUS
10
4.66939
20
-2.59157
11
4.6811
21
-2.59234
0
LINE
8
BLACK
6
CONTINUOUS
10
4.6811
20
-2.59234
11
4.69282
21
-2.59157
0
LINE
8
BLACK
6
CONTINUOUS
10
4.69282
20
-2.59157
11
4.70433
21
-2.58928
0
LINE
8
BLACK
6
CONTINUOUS
10
4.70433
20
-2.58928
11
4.71545
21
-2.58551
0
LINE
8
BLACK
6
CONTINUOUS
10
4.71545
20
-2.58551
11
4.72598
21
-2.58032
0
LINE
8
BLACK
6
CONTINUOUS
10
4.72598
20
-2.58032
11
4.73574
21
-2.57379
0
LINE
8
BLACK
6
CONTINUOUS
10
4.73574
20
-2.57379
11
4.74457
21
-2.56605
0
LINE
8
BLACK
6
CONTINUOUS
10
4.74457
20
-2.56605
11
4.75231
21
-2.55722
0
LINE
8
BLACK
6
CONTINUOUS
10
4.75231
20
-2.55722
11
4.75884
21
-2.54746
0
LINE
8
BLACK
6
CONTINUOUS
10
4.75884
20
-2.54746
11
4.76403
21
-2.53693
0
LINE
8
BLACK
6
CONTINUOUS
10
4.76403
20
-2.53693
11
4.7678
21
-2.52581
0
LINE
8
BLACK
6
CONTINUOUS
10
4.7678
20
-2.52581
11
4.77009
21
-2.5143
0
LINE
8
BLACK
6
CONTINUOUS
10
4.77009
20
-2.5143
11
4.77086
21
-2.50258
0
LINE
8
BLACK
6
CONTINUOUS
10
4.77086
20
-2.50258
11
4.77009
21
-2.49087
0
LINE
8
BLACK
6
CONTINUOUS
10
4.77009
20
-2.49087
11
4.7678
21
-2.47935
0
LINE
8
BLACK
6
CONTINUOUS
10
4.7678
20
-2.47935
11
4.76403
21
-2.46823
0
LINE
8
BLACK
6
CONTINUOUS
10
4.76403
20
-2.46823
11
4.75884
21
-2.4577
0
LINE
8
BLACK
6
CONTINUOUS
10
4.75884
20
-2.4577
11
4.75231
21
-2.44794
0
LINE
8
BLACK
6
CONTINUOUS
10
4.75231
20
-2.44794
11
4.74457
21
-2.43911
0
LINE
8
BLACK
6
CONTINUOUS
10
4.74457
20
-2.43911
11
4.73574
21
-2.43137
0
LINE
8
BLACK
6
CONTINUOUS
10
4.73574
20
-2.43137
11
4.72598
21
-2.42485
0
LINE
8
BLACK
6
CONTINUOUS
10
4.72598
20
-2.42485
11
4.71545
21
-2.41966
0
LINE
8
BLACK
6
CONTINUOUS
10
4.71545
20
-2.41966
11
4.70433
21
-2.41588
0
LINE
8
BLACK
6
CONTINUOUS
10
4.70433
20
-2.41588
11
4.69282
21
-2.41359
0
LINE
8
BLACK
6
CONTINUOUS
10
4.69282
20
-2.41359
11
4.6811
21
-2.41282
0
LINE
8
BLACK
6
CONTINUOUS
10
4.6811
20
-2.41282
11
4.66939
21
-2.41359
0
LINE
8
BLACK
6
CONTINUOUS
10
4.66939
20
-2.41359
11
4.65787
21
-2.41588
0
LINE
8
BLACK
6
CONTINUOUS
10
4.65787
20
-2.41588
11
4.64675
21
-2.41966
0
LINE
8
BLACK
6
CONTINUOUS
10
4.64675
20
-2.41966
11
4.63622
21
-2.42485
0
LINE
8
BLACK
6
CONTINUOUS
10
4.63622
20
-2.42485
11
4.62646
21
-2.43137
0
LINE
8
BLACK
6
CONTINUOUS
10
4.62646
20
-2.43137
11
4.61763
21
-2.43911
0
LINE
8
BLACK
6
CONTINUOUS
10
4.61763
20
-2.43911
11
4.60989
21
-2.44794
0
LINE
8
BLACK
6
CONTINUOUS
10
4.60989
20
-2.44794
11
4.60337
21
-2.4577
0
LINE
8
BLACK
6
CONTINUOUS
10
4.60337
20
-2.4577
11
4.59818
21
-2.46823
0
LINE
8
BLACK
6
CONTINUOUS
10
4.59818
20
-2.46823
11
4.5944
21
-2.47935
0
LINE
8
BLACK
6
CONTINUOUS
10
4.5944
20
-2.47935
11
4.59211
21
-2.49087
0
LINE
8
BLACK
6
CONTINUOUS
10
4.59211
20
-2.49087
11
4.59134
21
-2.50258
0
LINE
8
BLACK
6
CONTINUOUS
10
4.59134
20
-2.50258
11
4.59211
21
-2.5143
0
LINE
8
BLACK
6
CONTINUOUS
10
6.63206
20
-2.40622
11
6.64368
21
-2.4092
0
LINE
8
BLACK
6
CONTINUOUS
10
6.64368
20
-2.4092
11
6.65482
21
-2.41361
0
LINE
8
BLACK
6
CONTINUOUS
10
6.65482
20
-2.41361
11
6.66533
21
-2.41939
0
LINE
8
BLACK
6
CONTINUOUS
10
6.66533
20
-2.41939
11
6.67503
21
-2.42644
0
LINE
8
BLACK
6
CONTINUOUS
10
6.67503
20
-2.42644
11
6.68377
21
-2.43464
0
LINE
8
BLACK
6
CONTINUOUS
10
6.68377
20
-2.43464
11
6.69141
21
-2.44388
0
LINE
8
BLACK
6
CONTINUOUS
10
6.69141
20
-2.44388
11
6.69784
21
-2.45401
0
LINE
8
BLACK
6
CONTINUOUS
10
6.69784
20
-2.45401
11
6.70294
21
-2.46485
0
LINE
8
BLACK
6
CONTINUOUS
10
6.70294
20
-2.46485
11
6.70665
21
-2.47626
0
LINE
8
BLACK
6
CONTINUOUS
10
6.70665
20
-2.47626
11
6.70889
21
-2.48803
0
LINE
8
BLACK
6
CONTINUOUS
10
6.70889
20
-2.48803
11
6.70965
21
-2.5
0
LINE
8
BLACK
6
CONTINUOUS
10
6.70965
20
-2.5
11
6.70889
21
-2.51197
0
LINE
8
BLACK
6
CONTINUOUS
10
6.70889
20
-2.51197
11
6.70665
21
-2.52374
0
LINE
8
BLACK
6
CONTINUOUS
10
6.70665
20
-2.52374
11
6.70294
21
-2.53515
0
LINE
8
BLACK
6
CONTINUOUS
10
6.70294
20
-2.53515
11
6.69784
21
-2.54599
0
LINE
8
BLACK
6
CONTINUOUS
10
6.69784
20
-2.54599
11
6.69141
21
-2.55612
0
LINE
8
BLACK
6
CONTINUOUS
10
6.69141
20
-2.55612
11
6.68377
21
-2.56536
0
LINE
8
BLACK
6
CONTINUOUS
10
6.68377
20
-2.56536
11
6.67503
21
-2.57356
0
LINE
8
BLACK
6
CONTINUOUS
10
6.67503
20
-2.57356
11
6.66533
21
-2.58061
0
LINE
8
BLACK
6
CONTINUOUS
10
6.66533
20
-2.58061
11
6.65482
21
-2.58639
0
LINE
8
BLACK
6
CONTINUOUS
10
6.65482
20
-2.58639
11
6.64368
21
-2.5908
0
LINE
8
BLACK
6
CONTINUOUS
10
6.64368
20
-2.5908
11
6.63206
21
-2.59378
0
LINE
8
BLACK
6
CONTINUOUS
10
6.63206
20
-2.59378
11
6.62017
21
-2.59528
0
LINE
8
BLACK
6
CONTINUOUS
10
6.62017
20
-2.59528
11
6.60818
21
-2.59528
0
LINE
8
BLACK
6
CONTINUOUS
10
6.60818
20
-2.59528
11
6.59628
21
-2.59378
0
LINE
8
BLACK
6
CONTINUOUS
10
6.59628
20
-2.59378
11
6.58467
21
-2.5908
0
LINE
8
BLACK
6
CONTINUOUS
10
6.58467
20
-2.5908
11
6.57352
21
-2.58639
0
LINE
8
BLACK
6
CONTINUOUS
10
6.57352
20
-2.58639
11
6.56302
21
-2.58061
0
LINE
8
BLACK
6
CONTINUOUS
10
6.56302
20
-2.58061
11
6.55332
21
-2.57356
0
LINE
8
BLACK
6
CONTINUOUS
10
6.55332
20
-2.57356
11
6.54458
21
-2.56536
0
LINE
8
BLACK
6
CONTINUOUS
10
6.54458
20
-2.56536
11
6.53693
21
-2.55612
0
LINE
8
BLACK
6
CONTINUOUS
10
6.53693
20
-2.55612
11
6.53051
21
-2.54599
0
LINE
8
BLACK
6
CONTINUOUS
10
6.53051
20
-2.54599
11
6.52541
21
-2.53515
0
LINE
8
BLACK
6
CONTINUOUS
10
6.52541
20
-2.53515
11
6.5217
21
-2.52374
0
LINE
8
BLACK
6
CONTINUOUS
10
6.5217
20
-2.52374
11
6.51945
21
-2.51197
0
LINE
8
BLACK
6
CONTINUOUS
10
6.51945
20
-2.51197
11
6.5187
21
-2.5
0
LINE
8
BLACK
6
CONTINUOUS
10
6.5187
20
-2.5
11
6.51945
21
-2.48803
0
LINE
8
BLACK
6
CONTINUOUS
10
6.51945
20
-2.48803
11
6.5217
21
-2.47626
0
LINE
8
BLACK
6
CONTINUOUS
10
6.5217
20
-2.47626
11
6.52541
21
-2.46485
0
LINE
8
BLACK
6
CONTINUOUS
10
6.52541
20
-2.46485
11
6.53051
21
-2.45401
0
LINE
8
BLACK
6
CONTINUOUS
10
6.53051
20
-2.45401
11
6.53693
21
-2.44388
0
LINE
8
BLACK
6
CONTINUOUS
10
6.53693
20
-2.44388
11
6.54458
21
-2.43464
0
LINE
8
BLACK
6
CONTINUOUS
10
6.54458
20
-2.43464
11
6.55332
21
-2.42644
0
LINE
8
BLACK
6
CONTINUOUS
10
6.55332
20
-2.42644
11
6.56302
21
-2.41939
0
LINE
8
BLACK
6
CONTINUOUS
10
6.56302
20
-2.41939
11
6.57352
21
-2.41361
0
LINE
8
BLACK
6
CONTINUOUS
10
6.57352
20
-2.41361
11
6.58467
21
-2.4092
0
LINE
8
BLACK
6
CONTINUOUS
10
6.58467
20
-2.4092
11
6.59628
21
-2.40622
0
LINE
8
BLACK
6
CONTINUOUS
10
6.59628
20
-2.40622
11
6.60818
21
-2.40472
0
LINE
8
BLACK
6
CONTINUOUS
10
6.60818
20
-2.40472
11
6.62017
21
-2.40472
0
LINE
8
BLACK
6
CONTINUOUS
10
6.62017
20
-2.40472
11
6.63206
21
-2.40622
0
LINE
8
BLACK
6
CONTINUOUS
10
6.52518
20
-2.51172
11
6.52747
21
-2.52323
0
LINE
8
BLACK
6
CONTINUOUS
10
6.52747
20
-2.52323
11
6.53125
21
-2.53435
0
LINE
8
BLACK
6
CONTINUOUS
10
6.53125
20
-2.53435
11
6.53644
21
-2.54488
0
LINE
8
BLACK
6
CONTINUOUS
10
6.53644
20
-2.54488
11
6.54296
21
-2.55464
0
LINE
8
BLACK
6
CONTINUOUS
10
6.54296
20
-2.55464
11
6.5507
21
-2.56347
0
LINE
8
BLACK
6
CONTINUOUS
10
6.5507
20
-2.56347
11
6.55953
21
-2.57121
0
LINE
8
BLACK
6
CONTINUOUS
10
6.55953
20
-2.57121
11
6.56929
21
-2.57773
0
LINE
8
BLACK
6
CONTINUOUS
10
6.56929
20
-2.57773
11
6.57982
21
-2.58293
0
LINE
8
BLACK
6
CONTINUOUS
10
6.57982
20
-2.58293
11
6.59094
21
-2.5867
0
LINE
8
BLACK
6
CONTINUOUS
10
6.59094
20
-2.5867
11
6.60246
21
-2.58899
0
LINE
8
BLACK
6
CONTINUOUS
10
6.60246
20
-2.58899
11
6.61417
21
-2.58976
0
LINE
8
BLACK
6
CONTINUOUS
10
6.61417
20
-2.58976
11
6.62589
21
-2.58899
0
LINE
8
BLACK
6
CONTINUOUS
10
6.62589
20
-2.58899
11
6.6374
21
-2.5867
0
LINE
8
BLACK
6
CONTINUOUS
10
6.6374
20
-2.5867
11
6.64852
21
-2.58293
0
LINE
8
BLACK
6
CONTINUOUS
10
6.64852
20
-2.58293
11
6.65905
21
-2.57773
0
LINE
8
BLACK
6
CONTINUOUS
10
6.65905
20
-2.57773
11
6.66882
21
-2.57121
0
LINE
8
BLACK
6
CONTINUOUS
10
6.66882
20
-2.57121
11
6.67764
21
-2.56347
0
LINE
8
BLACK
6
CONTINUOUS
10
6.67764
20
-2.56347
11
6.68538
21
-2.55464
0
LINE
8
BLACK
6
CONTINUOUS
10
6.68538
20
-2.55464
11
6.69191
21
-2.54488
0
LINE
8
BLACK
6
CONTINUOUS
10
6.69191
20
-2.54488
11
6.6971
21
-2.53435
0
LINE
8
BLACK
6
CONTINUOUS
10
6.6971
20
-2.53435
11
6.70087
21
-2.52323
0
LINE
8
BLACK
6
CONTINUOUS
10
6.70087
20
-2.52323
11
6.70316
21
-2.51172
0
LINE
8
BLACK
6
CONTINUOUS
10
6.70316
20
-2.51172
11
6.70393
21
-2.5
0
LINE
8
BLACK
6
CONTINUOUS
10
6.70393
20
-2.5
11
6.70316
21
-2.48828
0
LINE
8
BLACK
6
CONTINUOUS
10
6.70316
20
-2.48828
11
6.70087
21
-2.47677
0
LINE
8
BLACK
6
CONTINUOUS
10
6.70087
20
-2.47677
11
6.6971
21
-2.46565
0
LINE
8
BLACK
6
CONTINUOUS
10
6.6971
20
-2.46565
11
6.69191
21
-2.45512
0
LINE
8
BLACK
6
CONTINUOUS
10
6.69191
20
-2.45512
11
6.68538
21
-2.44536
0
LINE
8
BLACK
6
CONTINUOUS
10
6.68538
20
-2.44536
11
6.67764
21
-2.43653
0
LINE
8
BLACK
6
CONTINUOUS
10
6.67764
20
-2.43653
11
6.66882
21
-2.42879
0
LINE
8
BLACK
6
CONTINUOUS
10
6.66882
20
-2.42879
11
6.65905
21
-2.42227
0
LINE
8
BLACK
6
CONTINUOUS
10
6.65905
20
-2.42227
11
6.64852
21
-2.41707
0
LINE
8
BLACK
6
CONTINUOUS
10
6.64852
20
-2.41707
11
6.6374
21
-2.4133
0
LINE
8
BLACK
6
CONTINUOUS
10
6.6374
20
-2.4133
11
6.62589
21
-2.41101
0
LINE
8
BLACK
6
CONTINUOUS
10
6.62589
20
-2.41101
11
6.61417
21
-2.41024
0
LINE
8
BLACK
6
CONTINUOUS
10
6.61417
20
-2.41024
11
6.60246
21
-2.41101
0
LINE
8
BLACK
6
CONTINUOUS
10
6.60246
20
-2.41101
11
6.59094
21
-2.4133
0
LINE
8
BLACK
6
CONTINUOUS
10
6.59094
20
-2.4133
11
6.57982
21
-2.41707
0
LINE
8
BLACK
6
CONTINUOUS
10
6.57982
20
-2.41707
11
6.56929
21
-2.42227
0
LINE
8
BLACK
6
CONTINUOUS
10
6.56929
20
-2.42227
11
6.55953
21
-2.42879
0
LINE
8
BLACK
6
CONTINUOUS
10
6.55953
20
-2.42879
11
6.5507
21
-2.43653
0
LINE
8
BLACK
6
CONTINUOUS
10
6.5507
20
-2.43653
11
6.54296
21
-2.44536
0
LINE
8
BLACK
6
CONTINUOUS
10
6.54296
20
-2.44536
11
6.53644
21
-2.45512
0
LINE
8
BLACK
6
CONTINUOUS
10
6.53644
20
-2.45512
11
6.53125
21
-2.46565
0
LINE
8
BLACK
6
CONTINUOUS
10
6.53125
20
-2.46565
11
6.52747
21
-2.47677
0
LINE
8
BLACK
6
CONTINUOUS
10
6.52747
20
-2.47677
11
6.52518
21
-2.48828
0
LINE
8
BLACK
6
CONTINUOUS
10
6.52518
20
-2.48828
11
6.52441
21
-2.5
0
LINE
8
BLACK
6
CONTINUOUS
10
6.52441
20
-2.5
11
6.52518
21
-2.51172
0
LINE
8
BLACK
6
CONTINUOUS
10
1.67143
20
-0.81173
11
1.68305
21
-0.814712
0
LINE
8
BLACK
6
CONTINUOUS
10
1.68305
20
-0.814712
11
1.69419
21
-0.819126
0
LINE
8
BLACK
6
CONTINUOUS
10
1.69419
20
-0.819126
11
1.7047
21
-0.824902
0
LINE
8
BLACK
6
CONTINUOUS
10
1.7047
20
-0.824902
11
1.7144
21
-0.831949
0
LINE
8
BLACK
6
CONTINUOUS
10
1.7144
20
-0.831949
11
1.72314
21
-0.840156
0
LINE
8
BLACK
6
CONTINUOUS
10
1.72314
20
-0.840156
11
1.73078
21
-0.849395
0
LINE
8
BLACK
6
CONTINUOUS
10
1.73078
20
-0.849395
11
1.73721
21
-0.859518
0
LINE
8
BLACK
6
CONTINUOUS
10
1.73721
20
-0.859518
11
1.74231
21
-0.870366
0
LINE
8
BLACK
6
CONTINUOUS
10
1.74231
20
-0.870366
11
1.74602
21
-0.881769
0
LINE
8
BLACK
6
CONTINUOUS
10
1.74602
20
-0.881769
11
1.74826
21
-0.893546
0
LINE
8
BLACK
6
CONTINUOUS
10
1.74826
20
-0.893546
11
1.74902
21
-0.905512
0
LINE
8
BLACK
6
CONTINUOUS
10
1.74902
20
-0.905512
11
1.74826
21
-0.917478
0
LINE
8
BLACK
6
CONTINUOUS
10
1.74826
20
-0.917478
11
1.74602
21
-0.929255
0
LINE
8
BLACK
6
CONTINUOUS
10
1.74602
20
-0.929255
11
1.74231
21
-0.940658
0
LINE
8
BLACK
6
CONTINUOUS
10
1.74231
20
-0.940658
11
1.73721
21
-0.951506
0
LINE
8
BLACK
6
CONTINUOUS
10
1.73721
20
-0.951506
11
1.73078
21
-0.961629
0
LINE
8
BLACK
6
CONTINUOUS
10
1.73078
20
-0.961629
11
1.72314
21
-0.970867
0
LINE
8
BLACK
6
CONTINUOUS
10
1.72314
20
-0.970867
11
1.7144
21
-0.979075
0
LINE
8
BLACK
6
CONTINUOUS
10
1.7144
20
-0.979075
11
1.7047
21
-0.986122
0
LINE
8
BLACK
6
CONTINUOUS
10
1.7047
20
-0.986122
11
1.69419
21
-0.991898
0
LINE
8
BLACK
6
CONTINUOUS
10
1.69419
20
-0.991898
11
1.68305
21
-0.996311
0
LINE
8
BLACK
6
CONTINUOUS
10
1.68305
20
-0.996311
11
1.67143
21
-0.999293
0
LINE
8
BLACK
6
CONTINUOUS
10
1.67143
20
-0.999293
11
1.65954
21
-1.0008
0
LINE
8
BLACK
6
CONTINUOUS
10
1.65954
20
-1.0008
11
1.64755
21
-1.0008
0
LINE
8
BLACK
6
CONTINUOUS
10
1.64755
20
-1.0008
11
1.63565
21
-0.999293
0
LINE
8
BLACK
6
CONTINUOUS
10
1.63565
20
-0.999293
11
1.62404
21
-0.996311
0
LINE
8
BLACK
6
CONTINUOUS
10
1.62404
20
-0.996311
11
1.61289
21
-0.991898
0
LINE
8
BLACK
6
CONTINUOUS
10
1.61289
20
-0.991898
11
1.60239
21
-0.986122
0
LINE
8
BLACK
6
CONTINUOUS
10
1.60239
20
-0.986122
11
1.59269
21
-0.979075
0
LINE
8
BLACK
6
CONTINUOUS
10
1.59269
20
-0.979075
11
1.58395
21
-0.970867
0
LINE
8
BLACK
6
CONTINUOUS
10
1.58395
20
-0.970867
11
1.5763
21
-0.961629
0
LINE
8
BLACK
6
CONTINUOUS
10
1.5763
20
-0.961629
11
1.56988
21
-0.951506
0
LINE
8
BLACK
6
CONTINUOUS
10
1.56988
20
-0.951506
11
1.56478
21
-0.940658
0
LINE
8
BLACK
6
CONTINUOUS
10
1.56478
20
-0.940658
11
1.56107
21
-0.929255
0
LINE
8
BLACK
6
CONTINUOUS
10
1.56107
20
-0.929255
11
1.55882
21
-0.917478
0
LINE
8
BLACK
6
CONTINUOUS
10
1.55882
20
-0.917478
11
1.55807
21
-0.905512
0
LINE
8
BLACK
6
CONTINUOUS
10
1.55807
20
-0.905512
11
1.55882
21
-0.893546
0
LINE
8
BLACK
6
CONTINUOUS
10
1.55882
20
-0.893546
11
1.56107
21
-0.881769
0
LINE
8
BLACK
6
CONTINUOUS
10
1.56107
20
-0.881769
11
1.56478
21
-0.870366
0
LINE
8
BLACK
6
CONTINUOUS
10
1.56478
20
-0.870366
11
1.56988
21
-0.859518
0
LINE
8
BLACK
6
CONTINUOUS
10
1.56988
20
-0.859518
11
1.5763
21
-0.849395
0
LINE
8
BLACK
6
CONTINUOUS
10
1.5763
20
-0.849395
11
1.58395
21
-0.840156
0
LINE
8
BLACK
6
CONTINUOUS
10
1.58395
20
-0.840156
11
1.59269
21
-0.831949
0
LINE
8
BLACK
6
CONTINUOUS
10
1.59269
20
-0.831949
11
1.60239
21
-0.824902
0
LINE
8
BLACK
6
CONTINUOUS
10
1.60239
20
-0.824902
11
1.61289
21
-0.819126
0
LINE
8
BLACK
6
CONTINUOUS
10
1.61289
20
-0.819126
11
1.62404
21
-0.814712
0
LINE
8
BLACK
6
CONTINUOUS
10
1.62404
20
-0.814712
11
1.63565
21
-0.81173
0
LINE
8
BLACK
6
CONTINUOUS
10
1.63565
20
-0.81173
11
1.64755
21
-0.810228
0
LINE
8
BLACK
6
CONTINUOUS
10
1.64755
20
-0.810228
11
1.65954
21
-0.810228
0
LINE
8
BLACK
6
CONTINUOUS
10
1.65954
20
-0.810228
11
1.67143
21
-0.81173
0
LINE
8
BLACK
6
CONTINUOUS
10
1.56455
20
-0.917228
11
1.56684
21
-0.928743
0
LINE
8
BLACK
6
CONTINUOUS
10
1.56684
20
-0.928743
11
1.57062
21
-0.939861
0
LINE
8
BLACK
6
CONTINUOUS
10
1.57062
20
-0.939861
11
1.57581
21
-0.950391
0
LINE
8
BLACK
6
CONTINUOUS
10
1.57581
20
-0.950391
11
1.58233
21
-0.960154
0
LINE
8
BLACK
6
CONTINUOUS
10
1.58233
20
-0.960154
11
1.59007
21
-0.968981
0
LINE
8
BLACK
6
CONTINUOUS
10
1.59007
20
-0.968981
11
1.5989
21
-0.976722
0
LINE
8
BLACK
6
CONTINUOUS
10
1.5989
20
-0.976722
11
1.60866
21
-0.983245
0
LINE
8
BLACK
6
CONTINUOUS
10
1.60866
20
-0.983245
11
1.61919
21
-0.988438
0
LINE
8
BLACK
6
CONTINUOUS
10
1.61919
20
-0.988438
11
1.63031
21
-0.992212
0
LINE
8
BLACK
6
CONTINUOUS
10
1.63031
20
-0.992212
11
1.64183
21
-0.994503
0
LINE
8
BLACK
6
CONTINUOUS
10
1.64183
20
-0.994503
11
1.65354
21
-0.995271
0
LINE
8
BLACK
6
CONTINUOUS
10
1.65354
20
-0.995271
11
1.66526
21
-0.994503
0
LINE
8
BLACK
6
CONTINUOUS
10
1.66526
20
-0.994503
11
1.67677
21
-0.992212
0
LINE
8
BLACK
6
CONTINUOUS
10
1.67677
20
-0.992212
11
1.68789
21
-0.988438
0
LINE
8
BLACK
6
CONTINUOUS
10
1.68789
20
-0.988438
11
1.69842
21
-0.983245
0
LINE
8
BLACK
6
CONTINUOUS
10
1.69842
20
-0.983245
11
1.70819
21
-0.976722
0
LINE
8
BLACK
6
CONTINUOUS
10
1.70819
20
-0.976722
11
1.71701
21
-0.968981
0
LINE
8
BLACK
6
CONTINUOUS
10
1.71701
20
-0.968981
11
1.72475
21
-0.960154
0
LINE
8
BLACK
6
CONTINUOUS
10
1.72475
20
-0.960154
11
1.73128
21
-0.950391
0
LINE
8
BLACK
6
CONTINUOUS
10
1.73128
20
-0.950391
11
1.73647
21
-0.939861
0
LINE
8
BLACK
6
CONTINUOUS
10
1.73647
20
-0.939861
11
1.74024
21
-0.928743
0
LINE
8
BLACK
6
CONTINUOUS
10
1.74024
20
-0.928743
11
1.74253
21
-0.917228
0
LINE
8
BLACK
6
CONTINUOUS
10
1.74253
20
-0.917228
11
1.7433
21
-0.905512
0
LINE
8
BLACK
6
CONTINUOUS
10
1.7433
20
-0.905512
11
1.74253
21
-0.893796
0
LINE
8
BLACK
6
CONTINUOUS
10
1.74253
20
-0.893796
11
1.74024
21
-0.88228
0
LINE
8
BLACK
6
CONTINUOUS
10
1.74024
20
-0.88228
11
1.73647
21
-0.871162
0
LINE
8
BLACK
6
CONTINUOUS
10
1.73647
20
-0.871162
11
1.73128
21
-0.860632
0
LINE
8
BLACK
6
CONTINUOUS
10
1.73128
20
-0.860632
11
1.72475
21
-0.85087
0
LINE
8
BLACK
6
CONTINUOUS
10
1.72475
20
-0.85087
11
1.71701
21
-0.842043
0
LINE
8
BLACK
6
CONTINUOUS
10
1.71701
20
-0.842043
11
1.70819
21
-0.834301
0
LINE
8
BLACK
6
CONTINUOUS
10
1.70819
20
-0.834301
11
1.69842
21
-0.827778
0
LINE
8
BLACK
6
CONTINUOUS
10
1.69842
20
-0.827778
11
1.68789
21
-0.822585
0
LINE
8
BLACK
6
CONTINUOUS
10
1.68789
20
-0.822585
11
1.67677
21
-0.818811
0
LINE
8
BLACK
6
CONTINUOUS
10
1.67677
20
-0.818811
11
1.66526
21
-0.816521
0
LINE
8
BLACK
6
CONTINUOUS
10
1.66526
20
-0.816521
11
1.65354
21
-0.815753
0
LINE
8
BLACK
6
CONTINUOUS
10
1.65354
20
-0.815753
11
1.64183
21
-0.816521
0
LINE
8
BLACK
6
CONTINUOUS
10
1.64183
20
-0.816521
11
1.63031
21
-0.818811
0
LINE
8
BLACK
6
CONTINUOUS
10
1.63031
20
-0.818811
11
1.61919
21
-0.822585
0
LINE
8
BLACK
6
CONTINUOUS
10
1.61919
20
-0.822585
11
1.60866
21
-0.827778
0
LINE
8
BLACK
6
CONTINUOUS
10
1.60866
20
-0.827778
11
1.5989
21
-0.834301
0
LINE
8
BLACK
6
CONTINUOUS
10
1.5989
20
-0.834301
11
1.59007
21
-0.842043
0
LINE
8
BLACK
6
CONTINUOUS
10
1.59007
20
-0.842043
11
1.58233
21
-0.85087
0
LINE
8
BLACK
6
CONTINUOUS
10
1.58233
20
-0.85087
11
1.57581
21
-0.860632
0
LINE
8
BLACK
6
CONTINUOUS
10
1.57581
20
-0.860632
11
1.57062
21
-0.871162
0
LINE
8
BLACK
6
CONTINUOUS
10
1.57062
20
-0.871162
11
1.56684
21
-0.88228
0
LINE
8
BLACK
6
CONTINUOUS
10
1.56684
20
-0.88228
11
1.56455
21
-0.893796
0
LINE
8
BLACK
6
CONTINUOUS
10
1.56455
20
-0.893796
11
1.56378
21
-0.905512
0
LINE
8
BLACK
6
CONTINUOUS
10
1.56378
20
-0.905512
11
1.56455
21
-0.917228
0
LINE
8
BLACK
6
CONTINUOUS
10
6.63206
20
-0.81173
11
6.64368
21
-0.814712
0
LINE
8
BLACK
6
CONTINUOUS
10
6.64368
20
-0.814712
11
6.65482
21
-0.819126
0
LINE
8
BLACK
6
CONTINUOUS
10
6.65482
20
-0.819126
11
6.66533
21
-0.824902
0
LINE
8
BLACK
6
CONTINUOUS
10
6.66533
20
-0.824902
11
6.67503
21
-0.831949
0
LINE
8
BLACK
6
CONTINUOUS
10
6.67503
20
-0.831949
11
6.68377
21
-0.840156
0
LINE
8
BLACK
6
CONTINUOUS
10
6.68377
20
-0.840156
11
6.69141
21
-0.849395
0
LINE
8
BLACK
6
CONTINUOUS
10
6.69141
20
-0.849395
11
6.69784
21
-0.859518
0
LINE
8
BLACK
6
CONTINUOUS
10
6.69784
20
-0.859518
11
6.70294
21
-0.870366
0
LINE
8
BLACK
6
CONTINUOUS
10
6.70294
20
-0.870366
11
6.70665
21
-0.881769
0
LINE
8
BLACK
6
CONTINUOUS
10
6.70665
20
-0.881769
11
6.70889
21
-0.893546
0
LINE
8
BLACK
6
CONTINUOUS
10
6.70889
20
-0.893546
11
6.70965
21
-0.905512
0
LINE
8
BLACK
6
CONTINUOUS
10
6.70965
20
-0.905512
11
6.70889
21
-0.917478
0
LINE
8
BLACK
6
CONTINUOUS
10
6.70889
20
-0.917478
11
6.70665
21
-0.929255
0
LINE
8
BLACK
6
CONTINUOUS
10
6.70665
20
-0.929255
11
6.70294
21
-0.940658
0
LINE
8
BLACK
6
CONTINUOUS
10
6.70294
20
-0.940658
11
6.69784
21
-0.951506
0
LINE
8
BLACK
6
CONTINUOUS
10
6.69784
20
-0.951506
11
6.69141
21
-0.961629
0
LINE
8
BLACK
6
CONTINUOUS
10
6.69141
20
-0.961629
11
6.68377
21
-0.970867
0
LINE
8
BLACK
6
CONTINUOUS
10
6.68377
20
-0.970867
11
6.67503
21
-0.979075
0
LINE
8
BLACK
6
CONTINUOUS
10
6.67503
20
-0.979075
11
6.66533
21
-0.986122
0
LINE
8
BLACK
6
CONTINUOUS
10
6.66533
20
-0.986122
11
6.65482
21
-0.991898
0
LINE
8
BLACK
6
CONTINUOUS
10
6.65482
20
-0.991898
11
6.64368
21
-0.996311
0
LINE
8
BLACK
6
CONTINUOUS
10
6.64368
20
-0.996311
11
6.63206
21
-0.999293
0
LINE
8
BLACK
6
CONTINUOUS
10
6.63206
20
-0.999293
11
6.62017
21
-1.0008
0
LINE
8
BLACK
6
CONTINUOUS
10
6.62017
20
-1.0008
11
6.60818
21
-1.0008
0
LINE
8
BLACK
6
CONTINUOUS
10
6.60818
20
-1.0008
11
6.59628
21
-0.999293
0
LINE
8
BLACK
6
CONTINUOUS
10
6.59628
20
-0.999293
11
6.58467
21
-0.996311
0
LINE
8
BLACK
6
CONTINUOUS
10
6.58467
20
-0.996311
11
6.57352
21
-0.991898
0
LINE
8
BLACK
6
CONTINUOUS
10
6.57352
20
-0.991898
11
6.56302
21
-0.986122
0
LINE
8
BLACK
6
CONTINUOUS
10
6.56302
20
-0.986122
11
6.55332
21
-0.979075
0
LINE
8
BLACK
6
CONTINUOUS
10
6.55332
20
-0.979075
11
6.54458
21
-0.970867
0
LINE
8
BLACK
6
CONTINUOUS
10
6.54458
20
-0.970867
11
6.53693
21
-0.961629
0
LINE
8
BLACK
6
CONTINUOUS
10
6.53693
20
-0.961629
11
6.53051
21
-0.951506
0
LINE
8
BLACK
6
CONTINUOUS
10
6.53051
20
-0.951506
11
6.52541
21
-0.940658
0
LINE
8
BLACK
6
CONTINUOUS
10
6.52541
20
-0.940658
11
6.5217
21
-0.929255
0
LINE
8
BLACK
6
CONTINUOUS
10
6.5217
20
-0.929255
11
6.51945
21
-0.917478
0
LINE
8
BLACK
6
CONTINUOUS
10
6.51945
20
-0.917478
11
6.5187
21
-0.905512
0
LINE
8
BLACK
6
CONTINUOUS
10
6.5187
20
-0.905512
11
6.51945
21
-0.893546
0
LINE
8
BLACK
6
CONTINUOUS
10
6.51945
20
-0.893546
11
6.5217
21
-0.881769
0
LINE
8
BLACK
6
CONTINUOUS
10
6.5217
20
-0.881769
11
6.52541
21
-0.870366
0
LINE
8
BLACK
6
CONTINUOUS
10
6.52541
20
-0.870366
11
6.53051
21
-0.859518
0
LINE
8
BLACK
6
CONTINUOUS
10
6.53051
20
-0.859518
11
6.53693
21
-0.849395
0
LINE
8
BLACK
6
CONTINUOUS
10
6.53693
20
-0.849395
11
6.54458
21
-0.840156
0
LINE
8
BLACK
6
CONTINUOUS
10
6.54458
20
-0.840156
11
6.55332
21
-0.831949
0
LINE
8
BLACK
6
CONTINUOUS
10
6.55332
20
-0.831949
11
6.56302
21
-0.824902
0
LINE
8
BLACK
6
CONTINUOUS
10
6.56302
20
-0.824902
11
6.57352
21
-0.819126
0
LINE
8
BLACK
6
CONTINUOUS
10
6.57352
20
-0.819126
11
6.58467
21
-0.814712
0
LINE
8
BLACK
6
CONTINUOUS
10
6.58467
20
-0.814712
11
6.59628
21
-0.81173
0
LINE
8
BLACK
6
CONTINUOUS
10
6.59628
20
-0.81173
11
6.60818
21
-0.810228
0
LINE
8
BLACK
6
CONTINUOUS
10
6.60818
20
-0.810228
11
6.62017
21
-0.810228
0
LINE
8
BLACK
6
CONTINUOUS
10
6.62017
20
-0.810228
11
6.63206
21
-0.81173
0
LINE
8
BLACK
6
CONTINUOUS
10
6.52518
20
-0.917228
11
6.52747
21
-0.928743
0
LINE
8
BLACK
6
CONTINUOUS
10
6.52747
20
-0.928743
11
6.53125
21
-0.939861
0
LINE
8
BLACK
6
CONTINUOUS
10
6.53125
20
-0.939861
11
6.53644
21
-0.950391
0
LINE
8
BLACK
6
CONTINUOUS
10
6.53644
20
-0.950391
11
6.54296
21
-0.960154
0
LINE
8
BLACK
6
CONTINUOUS
10
6.54296
20
-0.960154
11
6.5507
21
-0.968981
0
LINE
8
BLACK
6
CONTINUOUS
10
6.5507
20
-0.968981
11
6.55953
21
-0.976722
0
LINE
8
BLACK
6
CONTINUOUS
10
6.55953
20
-0.976722
11
6.56929
21
-0.983245
0
LINE
8
BLACK
6
CONTINUOUS
10
6.56929
20
-0.983245
11
6.57982
21
-0.988438
0
LINE
8
BLACK
6
CONTINUOUS
10
6.57982
20
-0.988438
11
6.59094
21
-0.992212
0
LINE
8
BLACK
6
CONTINUOUS
10
6.59094
20
-0.992212
11
6.60246
21
-0.994503
0
LINE
8
BLACK
6
CONTINUOUS
10
6.60246
20
-0.994503
11
6.61417
21
-0.995271
0
LINE
8
BLACK
6
CONTINUOUS
10
6.61417
20
-0.995271
11
6.62589
21
-0.994503
0
LINE
8
BLACK
6
CONTINUOUS
10
6.62589
20
-0.994503
11
6.6374
21
-0.992212
0
LINE
8
BLACK
6
CONTINUOUS
10
6.6374
20
-0.992212
11
6.64852
21
-0.988438
0
LINE
8
BLACK
6
CONTINUOUS
10
6.64852
20
-0.988438
11
6.65905
21
-0.983245
0
LINE
8
BLACK
6
CONTINUOUS
10
6.65905
20
-0.983245
11
6.66882
21
-0.976722
0
LINE
8
BLACK
6
CONTINUOUS
10
6.66882
20
-0.976722
11
6.67764
21
-0.968981
0
LINE
8
BLACK
6
CONTINUOUS
10
6.67764
20
-0.968981
11
6.68538
21
-0.960154
0
LINE
8
BLACK
6
CONTINUOUS
10
6.68538
20
-0.960154
11
6.69191
21
-0.950391
0
LINE
8
BLACK
6
CONTINUOUS
10
6.69191
20
-0.950391
11
6.6971
21
-0.939861
0
LINE
8
BLACK
6
CONTINUOUS
10
6.6971
20
-0.939861
11
6.70087
21
-0.928743
0
LINE
8
BLACK
6
CONTINUOUS
10
6.70087
20
-0.928743
11
6.70316
21
-0.917228
0
LINE
8
BLACK
6
CONTINUOUS
10
6.70316
20
-0.917228
11
6.70393
21
-0.905512
0
LINE
8
BLACK
6
CONTINUOUS
10
6.70393
20
-0.905512
11
6.70316
21
-0.893796
0
LINE
8
BLACK
6
CONTINUOUS
10
6.70316
20
-0.893796
11
6.70087
21
-0.88228
0
LINE
8
BLACK
6
CONTINUOUS
10
6.70087
20
-0.88228
11
6.6971
21
-0.871162
0
LINE
8
BLACK
6
CONTINUOUS
10
6.6971
20
-0.871162
11
6.69191
21
-0.860632
0
LINE
8
BLACK
6
CONTINUOUS
10
6.69191
20
-0.860632
11
6.68538
21
-0.85087
0
LINE
8
BLACK
6
CONTINUOUS
10
6.68538
20
-0.85087
11
6.67764
21
-0.842043
0
LINE
8
BLACK
6
CONTINUOUS
10
6.67764
20
-0.842043
11
6.66882
21
-0.834301
0
LINE
8
BLACK
6
CONTINUOUS
10
6.66882
20
-0.834301
11
6.65905
21
-0.827778
0
LINE
8
BLACK
6
CONTINUOUS
10
6.65905
20
-0.827778
11
6.64852
21
-0.822585
0
LINE
8
BLACK
6
CONTINUOUS
10
6.64852
20
-0.822585
11
6.6374
21
-0.818811
0
LINE
8
BLACK
6
CONTINUOUS
10
6.6374
20
-0.818811
11
6.62589
21
-0.816521
0
LINE
8
BLACK
6
CONTINUOUS
10
6.62589
20
-0.816521
11
6.61417
21
-0.815753
0
LINE
8
BLACK
6
CONTINUOUS
10
6.61417
20
-0.815753
11
6.60246
21
-0.816521
0
LINE
8
BLACK
6
CONTINUOUS
10
6.60246
20
-0.816521
11
6.59094
21
-0.818811
0
LINE
8
BLACK
6
CONTINUOUS
10
6.59094
20
-0.818811
11
6.57982
21
-0.822585
0
LINE
8
BLACK
6
CONTINUOUS
10
6.57982
20
-0.822585
11
6.56929
21
-0.827778
0
LINE
8
BLACK
6
CONTINUOUS
10
6.56929
20
-0.827778
11
6.55953
21
-0.834301
0
LINE
8
BLACK
6
CONTINUOUS
10
6.55953
20
-0.834301
11
6.5507
21
-0.842043
0
LINE
8
BLACK
6
CONTINUOUS
10
6.5507
20
-0.842043
11
6.54296
21
-0.85087
0
LINE
8
BLACK
6
CONTINUOUS
10
6.54296
20
-0.85087
11
6.53644
21
-0.860632
0
LINE
8
BLACK
6
CONTINUOUS
10
6.53644
20
-0.860632
11
6.53125
21
-0.871162
0
LINE
8
BLACK
6
CONTINUOUS
10
6.53125
20
-0.871162
11
6.52747
21
-0.88228
0
LINE
8
BLACK
6
CONTINUOUS
10
6.52747
20
-0.88228
11
6.52518
21
-0.893796
0
LINE
8
BLACK
6
CONTINUOUS
10
6.52518
20
-0.893796
11
6.52441
21
-0.905512
0
LINE
8
BLACK
6
CONTINUOUS
10
6.52441
20
-0.905512
11
6.52518
21
-0.917228
  0
ENDSEC
  0
EOF
