  0
SECTION
  2
HEADER
  9
$ANGBASE
  50
0.0
  9
$ANGDIR
  70
1
  9
$MEASUREMENT
  70
0
  0
ENDSEC
  0
SECTION
  2
TABLES
  0
TABLE
  2
LTYPE
  70
4
  0
LTYPE
  5
40F
  2
CONTINUOUS
  70
0
  3
Solid line
  72
65
  73
0
  40
0.0
  0
LTYPE
  5
410
  2
DASHDOT
 70
0
  3
Dash Dot ____ _ ____ _
 72
65
 73
4
 40
2.0
 49
1.25
 49
-0.25
 49
0.25
 49
-0.25
  0
LTYPE
  5
411
  2
DASHED
 70
0
  3
Dashed __ __ __ __ __
 72
65
 73
2
 40
0.75
 49
0.5
 49
-0.25
  0
LTYPE
  5
43B
  2
DOTTED
 70
0
  3
Dotted .  .  .  .
 72
65
 73
2
 40
0.2
 49
0.0
 49
-0.2
  0
ENDTAB
  0
TABLE
  2
STYLE
  70
4
  0
STYLE
  2
KICAD
  70
0
  40
0
  41
1
  42
1
  50
0
  71
0
  3
isocp.shx
  0
STYLE
  2
KICADB
  70
0
  40
0
  41
1
  42
1
  50
0
  71
0
  3
isocp.shx
  0
STYLE
  2
KICADI
  70
0
  40
0
  41
1
  42
1
  50
15
  71
0
  3
isocp.shx
  0
STYLE
  2
KICADBI
  70
0
  40
0
  41
1
  42
1
  50
15
  71
0
  3
isocp.shx
  0
ENDTAB
  0
TABLE
  2
LAYER
  70
1
  0
LAYER
  2
BLACK
  70
0
  62
7
  6
CONTINUOUS
  0
ENDTAB
  0
ENDSEC
  0
SECTION
  2
ENTITIES
0
LINE
8
BLACK
6
CONTINUOUS
10
1.9374015748031497
20
-4.9450787401574798
11
1.9380975590551182
21
-4.9453670078740153
0
LINE
8
BLACK
6
CONTINUOUS
10
1.9380975590551182
20
-4.9453670078740153
11
1.9383858267716536
21
-4.9460629921259844
0
LINE
8
BLACK
6
CONTINUOUS
10
1.9383858267716536
20
-4.9460629921259844
11
1.9383858267716536
21
-5.1625984251968502
0
LINE
8
BLACK
6
CONTINUOUS
10
1.9383858267716536
20
-5.1625984251968502
11
1.9380975590551182
21
-5.1632944094488185
0
LINE
8
BLACK
6
CONTINUOUS
10
1.9380975590551182
20
-5.1632944094488185
11
1.9374015748031497
21
-5.1635826771653539
0
LINE
8
BLACK
6
CONTINUOUS
10
1.9374015748031497
20
-5.1635826771653539
11
1.5870078740157481
21
-5.1635826771653539
0
LINE
8
BLACK
6
CONTINUOUS
10
1.5870078740157481
20
-5.1635826771653539
11
1.5863118897637796
21
-5.1632944094488185
0
LINE
8
BLACK
6
CONTINUOUS
10
1.5863118897637796
20
-5.1632944094488185
11
1.5860236220472441
21
-5.1625984251968502
0
LINE
8
BLACK
6
CONTINUOUS
10
1.5860236220472441
20
-5.1625984251968502
11
1.5860236220472441
21
-4.9460629921259844
0
LINE
8
BLACK
6
CONTINUOUS
10
1.5860236220472441
20
-4.9460629921259844
11
1.5863118897637796
21
-4.9453670078740153
0
LINE
8
BLACK
6
CONTINUOUS
10
1.5863118897637796
20
-4.9453670078740153
11
1.5870078740157481
21
-4.9450787401574798
0
LINE
8
BLACK
6
CONTINUOUS
10
1.5870078740157481
20
-4.9450787401574798
11
1.9374015748031497
21
-4.9450787401574798
0
LINE
8
BLACK
6
CONTINUOUS
10
1.587992125984252
20
-4.9470472440944881
11
1.587992125984252
21
-5.1616141732283465
0
LINE
8
BLACK
6
CONTINUOUS
10
1.587992125984252
20
-5.1616141732283465
11
1.9364173228346455
21
-5.1616141732283465
0
LINE
8
BLACK
6
CONTINUOUS
10
1.9364173228346455
20
-5.1616141732283465
11
1.9364173228346455
21
-4.9470472440944881
0
LINE
8
BLACK
6
CONTINUOUS
10
1.9364173228346455
20
-4.9470472440944881
11
1.587992125984252
21
-4.9470472440944881
0
LINE
8
BLACK
6
CONTINUOUS
10
6.2688976377952752
20
-4.6206929133858266
11
6.2695936220472444
21
-4.620981181102362
0
LINE
8
BLACK
6
CONTINUOUS
10
6.2695936220472444
20
-4.620981181102362
11
6.2698818897637798
21
-4.6216771653543303
0
LINE
8
BLACK
6
CONTINUOUS
10
6.2698818897637798
20
-4.6216771653543303
11
6.2698818897637798
21
-4.8618346456692914
0
LINE
8
BLACK
6
CONTINUOUS
10
6.2698818897637798
20
-4.8618346456692914
11
6.2695936220472444
21
-4.8625306299212596
0
LINE
8
BLACK
6
CONTINUOUS
10
6.2695936220472444
20
-4.8625306299212596
11
6.2688976377952752
21
-4.8628188976377951
0
LINE
8
BLACK
6
CONTINUOUS
10
6.2688976377952752
20
-4.8628188976377951
11
5.9283464566929132
21
-4.8628188976377951
0
LINE
8
BLACK
6
CONTINUOUS
10
5.9283464566929132
20
-4.8628188976377951
11
5.9276504724409449
21
-4.8625306299212596
0
LINE
8
BLACK
6
CONTINUOUS
10
5.9276504724409449
20
-4.8625306299212596
11
5.9273622047244094
21
-4.8618346456692914
0
LINE
8
BLACK
6
CONTINUOUS
10
5.9273622047244094
20
-4.8618346456692914
11
5.9273622047244094
21
-4.6216771653543303
0
LINE
8
BLACK
6
CONTINUOUS
10
5.9273622047244094
20
-4.6216771653543303
11
5.9276504724409449
21
-4.620981181102362
0
LINE
8
BLACK
6
CONTINUOUS
10
5.9276504724409449
20
-4.620981181102362
11
5.9283464566929132
21
-4.6206929133858266
0
LINE
8
BLACK
6
CONTINUOUS
10
5.9283464566929132
20
-4.6206929133858266
11
6.2688976377952752
21
-4.6206929133858266
0
LINE
8
BLACK
6
CONTINUOUS
10
5.9293307086614169
20
-4.6226614173228349
11
5.9293307086614169
21
-4.8608503937007876
0
LINE
8
BLACK
6
CONTINUOUS
10
5.9293307086614169
20
-4.8608503937007876
11
6.2679133858267715
21
-4.8608503937007876
0
LINE
8
BLACK
6
CONTINUOUS
10
6.2679133858267715
20
-4.8608503937007876
11
6.2679133858267715
21
-4.6226614173228349
0
LINE
8
BLACK
6
CONTINUOUS
10
6.2679133858267715
20
-4.6226614173228349
11
5.9293307086614169
21
-4.6226614173228349
0
LINE
8
BLACK
6
CONTINUOUS
10
1.1953183070866142
20
-4.5588692125984247
11
1.2093555118110235
21
-4.561254212598425
0
LINE
8
BLACK
6
CONTINUOUS
10
1.2093555118110235
20
-4.561254212598425
11
1.2230374015748031
21
-4.5651959055118105
0
LINE
8
BLACK
6
CONTINUOUS
10
1.2230374015748031
20
-4.5651959055118105
11
1.2361919291338583
21
-4.5706446850393698
0
LINE
8
BLACK
6
CONTINUOUS
10
1.2361919291338583
20
-4.5706446850393698
11
1.2486536614173227
21
-4.5775320472440946
0
LINE
8
BLACK
6
CONTINUOUS
10
1.2486536614173227
20
-4.5775320472440946
11
1.2602659448818898
21
-4.5857713779527556
0
LINE
8
BLACK
6
CONTINUOUS
10
1.2602659448818898
20
-4.5857713779527556
11
1.2708826377952755
21
-4.5952590944881893
0
LINE
8
BLACK
6
CONTINUOUS
10
1.2708826377952755
20
-4.5952590944881893
11
1.2803703543307086
21
-4.6058757874015743
0
LINE
8
BLACK
6
CONTINUOUS
10
1.2803703543307086
20
-4.6058757874015743
11
1.28860968503937
21
-4.6174880708661412
0
LINE
8
BLACK
6
CONTINUOUS
10
1.28860968503937
20
-4.6174880708661412
11
1.2954970472440945
21
-4.6299498031496062
0
LINE
8
BLACK
6
CONTINUOUS
10
1.2954970472440945
20
-4.6299498031496062
11
1.3009458267716536
21
-4.6431043307086615
0
LINE
8
BLACK
6
CONTINUOUS
10
1.3009458267716536
20
-4.6431043307086615
11
1.3048875196850394
21
-4.6567862204724406
0
LINE
8
BLACK
6
CONTINUOUS
10
1.3048875196850394
20
-4.6567862204724406
11
1.3072725196850394
21
-4.6708234251968506
0
LINE
8
BLACK
6
CONTINUOUS
10
1.3072725196850394
20
-4.6708234251968506
11
1.3080708661417322
21
-4.6850393700787398
0
LINE
8
BLACK
6
CONTINUOUS
10
1.3080708661417322
20
-4.6850393700787398
11
1.3072725196850394
21
-4.69925531496063
0
LINE
8
BLACK
6
CONTINUOUS
10
1.3072725196850394
20
-4.69925531496063
11
1.3048875196850394
21
-4.713292519685039
0
LINE
8
BLACK
6
CONTINUOUS
10
1.3048875196850394
20
-4.713292519685039
11
1.3009458267716536
21
-4.7269744094488191
0
LINE
8
BLACK
6
CONTINUOUS
10
1.3009458267716536
20
-4.7269744094488191
11
1.2954970472440945
21
-4.7401289370078743
0
LINE
8
BLACK
6
CONTINUOUS
10
1.2954970472440945
20
-4.7401289370078743
11
1.28860968503937
21
-4.7525906692913384
0
LINE
8
BLACK
6
CONTINUOUS
10
1.28860968503937
20
-4.7525906692913384
11
1.2803703543307086
21
-4.7642029527559053
0
LINE
8
BLACK
6
CONTINUOUS
10
1.2803703543307086
20
-4.7642029527559053
11
1.2708826377952755
21
-4.7748196456692913
0
LINE
8
BLACK
6
CONTINUOUS
10
1.2708826377952755
20
-4.7748196456692913
11
1.2602659448818898
21
-4.7843073622047241
0
LINE
8
BLACK
6
CONTINUOUS
10
1.2602659448818898
20
-4.7843073622047241
11
1.2486536614173227
21
-4.792546692913386
0
LINE
8
BLACK
6
CONTINUOUS
10
1.2486536614173227
20
-4.792546692913386
11
1.2361919291338583
21
-4.7994340551181098
0
LINE
8
BLACK
6
CONTINUOUS
10
1.2361919291338583
20
-4.7994340551181098
11
1.2230374015748031
21
-4.8048828346456691
0
LINE
8
BLACK
6
CONTINUOUS
10
1.2230374015748031
20
-4.8048828346456691
11
1.2093555118110235
21
-4.8088245275590547
0
LINE
8
BLACK
6
CONTINUOUS
10
1.2093555118110235
20
-4.8088245275590547
11
1.1953183070866142
21
-4.811209527559055
0
LINE
8
BLACK
6
CONTINUOUS
10
1.1953183070866142
20
-4.811209527559055
11
1.1811023622047243
21
-4.8120078740157481
0
LINE
8
BLACK
6
CONTINUOUS
10
1.1811023622047243
20
-4.8120078740157481
11
1.1668864173228346
21
-4.811209527559055
0
LINE
8
BLACK
6
CONTINUOUS
10
1.1668864173228346
20
-4.811209527559055
11
1.1528492125984251
21
-4.8088245275590547
0
LINE
8
BLACK
6
CONTINUOUS
10
1.1528492125984251
20
-4.8088245275590547
11
1.1391673228346457
21
-4.8048828346456691
0
LINE
8
BLACK
6
CONTINUOUS
10
1.1391673228346457
20
-4.8048828346456691
11
1.1260127952755905
21
-4.7994340551181098
0
LINE
8
BLACK
6
CONTINUOUS
10
1.1260127952755905
20
-4.7994340551181098
11
1.1135510629921259
21
-4.792546692913386
0
LINE
8
BLACK
6
CONTINUOUS
10
1.1135510629921259
20
-4.792546692913386
11
1.101938779527559
21
-4.7843073622047241
0
LINE
8
BLACK
6
CONTINUOUS
10
1.101938779527559
20
-4.7843073622047241
11
1.0913220866141733
21
-4.7748196456692913
0
LINE
8
BLACK
6
CONTINUOUS
10
1.0913220866141733
20
-4.7748196456692913
11
1.0818343700787401
21
-4.7642029527559053
0
LINE
8
BLACK
6
CONTINUOUS
10
1.0818343700787401
20
-4.7642029527559053
11
1.0735950393700786
21
-4.7525906692913384
0
LINE
8
BLACK
6
CONTINUOUS
10
1.0735950393700786
20
-4.7525906692913384
11
1.0667076771653543
21
-4.7401289370078743
0
LINE
8
BLACK
6
CONTINUOUS
10
1.0667076771653543
20
-4.7401289370078743
11
1.0612588976377952
21
-4.7269744094488191
0
LINE
8
BLACK
6
CONTINUOUS
10
1.0612588976377952
20
-4.7269744094488191
11
1.0573172047244095
21
-4.713292519685039
0
LINE
8
BLACK
6
CONTINUOUS
10
1.0573172047244095
20
-4.713292519685039
11
1.0549322047244094
21
-4.69925531496063
0
LINE
8
BLACK
6
CONTINUOUS
10
1.0549322047244094
20
-4.69925531496063
11
1.0541338582677164
21
-4.6850393700787398
0
LINE
8
BLACK
6
CONTINUOUS
10
1.0541338582677164
20
-4.6850393700787398
11
1.0549322047244094
21
-4.6708234251968506
0
LINE
8
BLACK
6
CONTINUOUS
10
1.0549322047244094
20
-4.6708234251968506
11
1.0573172047244095
21
-4.6567862204724406
0
LINE
8
BLACK
6
CONTINUOUS
10
1.0573172047244095
20
-4.6567862204724406
11
1.0612588976377952
21
-4.6431043307086615
0
LINE
8
BLACK
6
CONTINUOUS
10
1.0612588976377952
20
-4.6431043307086615
11
1.0667076771653543
21
-4.6299498031496062
0
LINE
8
BLACK
6
CONTINUOUS
10
1.0667076771653543
20
-4.6299498031496062
11
1.0735950393700786
21
-4.6174880708661412
0
LINE
8
BLACK
6
CONTINUOUS
10
1.0735950393700786
20
-4.6174880708661412
11
1.0818343700787401
21
-4.6058757874015743
0
LINE
8
BLACK
6
CONTINUOUS
10
1.0818343700787401
20
-4.6058757874015743
11
1.0913220866141733
21
-4.5952590944881893
0
LINE
8
BLACK
6
CONTINUOUS
10
1.0913220866141733
20
-4.5952590944881893
11
1.101938779527559
21
-4.5857713779527556
0
LINE
8
BLACK
6
CONTINUOUS
10
1.101938779527559
20
-4.5857713779527556
11
1.1135510629921259
21
-4.5775320472440946
0
LINE
8
BLACK
6
CONTINUOUS
10
1.1135510629921259
20
-4.5775320472440946
11
1.1260127952755905
21
-4.5706446850393698
0
LINE
8
BLACK
6
CONTINUOUS
10
1.1260127952755905
20
-4.5706446850393698
11
1.1391673228346457
21
-4.5651959055118105
0
LINE
8
BLACK
6
CONTINUOUS
10
1.1391673228346457
20
-4.5651959055118105
11
1.1528492125984251
21
-4.561254212598425
0
LINE
8
BLACK
6
CONTINUOUS
10
1.1528492125984251
20
-4.561254212598425
11
1.1668864173228346
21
-4.5588692125984247
0
LINE
8
BLACK
6
CONTINUOUS
10
1.1668864173228346
20
-4.5588692125984247
11
1.1811023622047243
21
-4.5580708661417324
0
LINE
8
BLACK
6
CONTINUOUS
10
1.1811023622047243
20
-4.5580708661417324
11
1.1953183070866142
21
-4.5588692125984247
0
LINE
8
BLACK
6
CONTINUOUS
10
1.0566925984251969
20
-4.6990569685039372
11
1.0590443307086614
21
-4.7128983070866139
0
LINE
8
BLACK
6
CONTINUOUS
10
1.0590443307086614
20
-4.7128983070866139
11
1.0629310236220473
21
-4.7263892913385828
0
LINE
8
BLACK
6
CONTINUOUS
10
1.0629310236220473
20
-4.7263892913385828
11
1.0683037795275589
21
-4.7393603149606296
0
LINE
8
BLACK
6
CONTINUOUS
10
1.0683037795275589
20
-4.7393603149606296
11
1.0750950787401574
21
-4.751648188976378
0
LINE
8
BLACK
6
CONTINUOUS
10
1.0750950787401574
20
-4.751648188976378
11
1.0832194488188975
21
-4.7630983858267717
0
LINE
8
BLACK
6
CONTINUOUS
10
1.0832194488188975
20
-4.7630983858267717
11
1.0925747244094488
21
-4.773567007874016
0
LINE
8
BLACK
6
CONTINUOUS
10
1.0925747244094488
20
-4.773567007874016
11
1.1030433464566929
21
-4.7829222834645666
0
LINE
8
BLACK
6
CONTINUOUS
10
1.1030433464566929
20
-4.7829222834645666
11
1.1144935433070866
21
-4.7910466535433072
0
LINE
8
BLACK
6
CONTINUOUS
10
1.1144935433070866
20
-4.7910466535433072
11
1.1267814173228345
21
-4.7978379527559056
0
LINE
8
BLACK
6
CONTINUOUS
10
1.1267814173228345
20
-4.7978379527559056
11
1.1397524409448818
21
-4.8032107086614175
0
LINE
8
BLACK
6
CONTINUOUS
10
1.1397524409448818
20
-4.8032107086614175
11
1.1532434251968504
21
-4.8070974015748034
0
LINE
8
BLACK
6
CONTINUOUS
10
1.1532434251968504
20
-4.8070974015748034
11
1.1670847637795276
21
-4.8094491338582674
0
LINE
8
BLACK
6
CONTINUOUS
10
1.1670847637795276
20
-4.8094491338582674
11
1.1811023622047243
21
-4.8102363385826772
0
LINE
8
BLACK
6
CONTINUOUS
10
1.1811023622047243
20
-4.8102363385826772
11
1.1951199606299212
21
-4.8094491338582674
0
LINE
8
BLACK
6
CONTINUOUS
10
1.1951199606299212
20
-4.8094491338582674
11
1.2089612992125984
21
-4.8070974015748034
0
LINE
8
BLACK
6
CONTINUOUS
10
1.2089612992125984
20
-4.8070974015748034
11
1.2224522834645668
21
-4.8032107086614175
0
LINE
8
BLACK
6
CONTINUOUS
10
1.2224522834645668
20
-4.8032107086614175
11
1.2354233070866141
21
-4.7978379527559056
0
LINE
8
BLACK
6
CONTINUOUS
10
1.2354233070866141
20
-4.7978379527559056
11
1.2477111811023622
21
-4.7910466535433072
0
LINE
8
BLACK
6
CONTINUOUS
10
1.2477111811023622
20
-4.7910466535433072
11
1.259161377952756
21
-4.7829222834645666
0
LINE
8
BLACK
6
CONTINUOUS
10
1.259161377952756
20
-4.7829222834645666
11
1.26963
21
-4.773567007874016
0
LINE
8
BLACK
6
CONTINUOUS
10
1.26963
20
-4.773567007874016
11
1.2789852755905511
21
-4.7630983858267717
0
LINE
8
BLACK
6
CONTINUOUS
10
1.2789852755905511
20
-4.7630983858267717
11
1.2871096456692912
21
-4.751648188976378
0
LINE
8
BLACK
6
CONTINUOUS
10
1.2871096456692912
20
-4.751648188976378
11
1.2939009448818897
21
-4.7393603149606296
0
LINE
8
BLACK
6
CONTINUOUS
10
1.2939009448818897
20
-4.7393603149606296
11
1.2992737007874016
21
-4.7263892913385828
0
LINE
8
BLACK
6
CONTINUOUS
10
1.2992737007874016
20
-4.7263892913385828
11
1.3031603937007874
21
-4.7128983070866139
0
LINE
8
BLACK
6
CONTINUOUS
10
1.3031603937007874
20
-4.7128983070866139
11
1.3055121259842519
21
-4.6990569685039372
0
LINE
8
BLACK
6
CONTINUOUS
10
1.3055121259842519
20
-4.6990569685039372
11
1.3062993307086614
21
-4.6850393700787398
0
LINE
8
BLACK
6
CONTINUOUS
10
1.3062993307086614
20
-4.6850393700787398
11
1.3055121259842519
21
-4.6710217716535434
0
LINE
8
BLACK
6
CONTINUOUS
10
1.3055121259842519
20
-4.6710217716535434
11
1.3031603937007874
21
-4.6571804330708657
0
LINE
8
BLACK
6
CONTINUOUS
10
1.3031603937007874
20
-4.6571804330708657
11
1.2992737007874016
21
-4.6436894488188978
0
LINE
8
BLACK
6
CONTINUOUS
10
1.2992737007874016
20
-4.6436894488188978
11
1.2939009448818897
21
-4.6307184251968501
0
LINE
8
BLACK
6
CONTINUOUS
10
1.2939009448818897
20
-4.6307184251968501
11
1.2871096456692912
21
-4.6184305511811026
0
LINE
8
BLACK
6
CONTINUOUS
10
1.2871096456692912
20
-4.6184305511811026
11
1.2789852755905511
21
-4.6069803543307088
0
LINE
8
BLACK
6
CONTINUOUS
10
1.2789852755905511
20
-4.6069803543307088
11
1.26963
21
-4.5965117322834645
0
LINE
8
BLACK
6
CONTINUOUS
10
1.26963
20
-4.5965117322834645
11
1.259161377952756
21
-4.5871564566929131
0
LINE
8
BLACK
6
CONTINUOUS
10
1.259161377952756
20
-4.5871564566929131
11
1.2477111811023622
21
-4.5790320866141734
0
LINE
8
BLACK
6
CONTINUOUS
10
1.2477111811023622
20
-4.5790320866141734
11
1.2354233070866141
21
-4.5722407874015749
0
LINE
8
BLACK
6
CONTINUOUS
10
1.2354233070866141
20
-4.5722407874015749
11
1.2224522834645668
21
-4.566868031496063
0
LINE
8
BLACK
6
CONTINUOUS
10
1.2224522834645668
20
-4.566868031496063
11
1.2089612992125984
21
-4.5629813385826772
0
LINE
8
BLACK
6
CONTINUOUS
10
1.2089612992125984
20
-4.5629813385826772
11
1.1951199606299212
21
-4.5606296062992122
0
LINE
8
BLACK
6
CONTINUOUS
10
1.1951199606299212
20
-4.5606296062992122
11
1.1811023622047243
21
-4.5598424015748034
0
LINE
8
BLACK
6
CONTINUOUS
10
1.1811023622047243
20
-4.5598424015748034
11
1.1670847637795276
21
-4.5606296062992122
0
LINE
8
BLACK
6
CONTINUOUS
10
1.1670847637795276
20
-4.5606296062992122
11
1.1532434251968504
21
-4.5629813385826772
0
LINE
8
BLACK
6
CONTINUOUS
10
1.1532434251968504
20
-4.5629813385826772
11
1.1397524409448818
21
-4.566868031496063
0
LINE
8
BLACK
6
CONTINUOUS
10
1.1397524409448818
20
-4.566868031496063
11
1.1267814173228345
21
-4.5722407874015749
0
LINE
8
BLACK
6
CONTINUOUS
10
1.1267814173228345
20
-4.5722407874015749
11
1.1144935433070866
21
-4.5790320866141734
0
LINE
8
BLACK
6
CONTINUOUS
10
1.1144935433070866
20
-4.5790320866141734
11
1.1030433464566929
21
-4.5871564566929131
0
LINE
8
BLACK
6
CONTINUOUS
10
1.1030433464566929
20
-4.5871564566929131
11
1.0925747244094488
21
-4.5965117322834645
0
LINE
8
BLACK
6
CONTINUOUS
10
1.0925747244094488
20
-4.5965117322834645
11
1.0832194488188975
21
-4.6069803543307088
0
LINE
8
BLACK
6
CONTINUOUS
10
1.0832194488188975
20
-4.6069803543307088
11
1.0750950787401574
21
-4.6184305511811026
0
LINE
8
BLACK
6
CONTINUOUS
10
1.0750950787401574
20
-4.6184305511811026
11
1.0683037795275589
21
-4.6307184251968501
0
LINE
8
BLACK
6
CONTINUOUS
10
1.0683037795275589
20
-4.6307184251968501
11
1.0629310236220473
21
-4.6436894488188978
0
LINE
8
BLACK
6
CONTINUOUS
10
1.0629310236220473
20
-4.6436894488188978
11
1.0590443307086614
21
-4.6571804330708657
0
LINE
8
BLACK
6
CONTINUOUS
10
1.0590443307086614
20
-4.6571804330708657
11
1.0566925984251969
21
-4.6710217716535434
0
LINE
8
BLACK
6
CONTINUOUS
10
1.0566925984251969
20
-4.6710217716535434
11
1.0559053937007874
21
-4.6850393700787398
0
LINE
8
BLACK
6
CONTINUOUS
10
1.0559053937007874
20
-4.6850393700787398
11
1.0566925984251969
21
-4.6990569685039372
0
LINE
8
BLACK
6
CONTINUOUS
10
4.1480742125984253
20
-4.5588692125984247
11
4.1621114173228344
21
-4.561254212598425
0
LINE
8
BLACK
6
CONTINUOUS
10
4.1621114173228344
20
-4.561254212598425
11
4.1757933070866144
21
-4.5651959055118105
0
LINE
8
BLACK
6
CONTINUOUS
10
4.1757933070866144
20
-4.5651959055118105
11
4.1889478346456688
21
-4.5706446850393698
0
LINE
8
BLACK
6
CONTINUOUS
10
4.1889478346456688
20
-4.5706446850393698
11
4.2014095669291338
21
-4.5775320472440946
0
LINE
8
BLACK
6
CONTINUOUS
10
4.2014095669291338
20
-4.5775320472440946
11
4.2130218503937007
21
-4.5857713779527556
0
LINE
8
BLACK
6
CONTINUOUS
10
4.2130218503937007
20
-4.5857713779527556
11
4.2236385433070867
21
-4.5952590944881893
0
LINE
8
BLACK
6
CONTINUOUS
10
4.2236385433070867
20
-4.5952590944881893
11
4.2331262598425194
21
-4.6058757874015743
0
LINE
8
BLACK
6
CONTINUOUS
10
4.2331262598425194
20
-4.6058757874015743
11
4.2413655905511813
21
-4.6174880708661412
0
LINE
8
BLACK
6
CONTINUOUS
10
4.2413655905511813
20
-4.6174880708661412
11
4.2482529527559052
21
-4.6299498031496062
0
LINE
8
BLACK
6
CONTINUOUS
10
4.2482529527559052
20
-4.6299498031496062
11
4.2537017322834645
21
-4.6431043307086615
0
LINE
8
BLACK
6
CONTINUOUS
10
4.2537017322834645
20
-4.6431043307086615
11
4.25764342519685
21
-4.6567862204724406
0
LINE
8
BLACK
6
CONTINUOUS
10
4.25764342519685
20
-4.6567862204724406
11
4.2600284251968503
21
-4.6708234251968506
0
LINE
8
BLACK
6
CONTINUOUS
10
4.2600284251968503
20
-4.6708234251968506
11
4.2608267716535435
21
-4.6850393700787398
0
LINE
8
BLACK
6
CONTINUOUS
10
4.2608267716535435
20
-4.6850393700787398
11
4.2600284251968503
21
-4.69925531496063
0
LINE
8
BLACK
6
CONTINUOUS
10
4.2600284251968503
20
-4.69925531496063
11
4.25764342519685
21
-4.713292519685039
0
LINE
8
BLACK
6
CONTINUOUS
10
4.25764342519685
20
-4.713292519685039
11
4.2537017322834645
21
-4.7269744094488191
0
LINE
8
BLACK
6
CONTINUOUS
10
4.2537017322834645
20
-4.7269744094488191
11
4.2482529527559052
21
-4.7401289370078743
0
LINE
8
BLACK
6
CONTINUOUS
10
4.2482529527559052
20
-4.7401289370078743
11
4.2413655905511813
21
-4.7525906692913384
0
LINE
8
BLACK
6
CONTINUOUS
10
4.2413655905511813
20
-4.7525906692913384
11
4.2331262598425194
21
-4.7642029527559053
0
LINE
8
BLACK
6
CONTINUOUS
10
4.2331262598425194
20
-4.7642029527559053
11
4.2236385433070867
21
-4.7748196456692913
0
LINE
8
BLACK
6
CONTINUOUS
10
4.2236385433070867
20
-4.7748196456692913
11
4.2130218503937007
21
-4.7843073622047241
0
LINE
8
BLACK
6
CONTINUOUS
10
4.2130218503937007
20
-4.7843073622047241
11
4.2014095669291338
21
-4.792546692913386
0
LINE
8
BLACK
6
CONTINUOUS
10
4.2014095669291338
20
-4.792546692913386
11
4.1889478346456688
21
-4.7994340551181098
0
LINE
8
BLACK
6
CONTINUOUS
10
4.1889478346456688
20
-4.7994340551181098
11
4.1757933070866144
21
-4.8048828346456691
0
LINE
8
BLACK
6
CONTINUOUS
10
4.1757933070866144
20
-4.8048828346456691
11
4.1621114173228344
21
-4.8088245275590547
0
LINE
8
BLACK
6
CONTINUOUS
10
4.1621114173228344
20
-4.8088245275590547
11
4.1480742125984253
21
-4.811209527559055
0
LINE
8
BLACK
6
CONTINUOUS
10
4.1480742125984253
20
-4.811209527559055
11
4.1338582677165352
21
-4.8120078740157481
0
LINE
8
BLACK
6
CONTINUOUS
10
4.1338582677165352
20
-4.8120078740157481
11
4.1196423228346459
21
-4.811209527559055
0
LINE
8
BLACK
6
CONTINUOUS
10
4.1196423228346459
20
-4.811209527559055
11
4.105605118110236
21
-4.8088245275590547
0
LINE
8
BLACK
6
CONTINUOUS
10
4.105605118110236
20
-4.8088245275590547
11
4.0919232283464568
21
-4.8048828346456691
0
LINE
8
BLACK
6
CONTINUOUS
10
4.0919232283464568
20
-4.8048828346456691
11
4.0787687007874016
21
-4.7994340551181098
0
LINE
8
BLACK
6
CONTINUOUS
10
4.0787687007874016
20
-4.7994340551181098
11
4.0663069685039366
21
-4.792546692913386
0
LINE
8
BLACK
6
CONTINUOUS
10
4.0663069685039366
20
-4.792546692913386
11
4.0546946850393697
21
-4.7843073622047241
0
LINE
8
BLACK
6
CONTINUOUS
10
4.0546946850393697
20
-4.7843073622047241
11
4.0440779921259837
21
-4.7748196456692913
0
LINE
8
BLACK
6
CONTINUOUS
10
4.0440779921259837
20
-4.7748196456692913
11
4.0345902755905509
21
-4.7642029527559053
0
LINE
8
BLACK
6
CONTINUOUS
10
4.0345902755905509
20
-4.7642029527559053
11
4.0263509448818899
21
-4.7525906692913384
0
LINE
8
BLACK
6
CONTINUOUS
10
4.0263509448818899
20
-4.7525906692913384
11
4.0194635826771652
21
-4.7401289370078743
0
LINE
8
BLACK
6
CONTINUOUS
10
4.0194635826771652
20
-4.7401289370078743
11
4.0140148031496059
21
-4.7269744094488191
0
LINE
8
BLACK
6
CONTINUOUS
10
4.0140148031496059
20
-4.7269744094488191
11
4.0100731102362204
21
-4.713292519685039
0
LINE
8
BLACK
6
CONTINUOUS
10
4.0100731102362204
20
-4.713292519685039
11
4.0076881102362201
21
-4.69925531496063
0
LINE
8
BLACK
6
CONTINUOUS
10
4.0076881102362201
20
-4.69925531496063
11
4.0068897637795278
21
-4.6850393700787398
0
LINE
8
BLACK
6
CONTINUOUS
10
4.0068897637795278
20
-4.6850393700787398
11
4.0076881102362201
21
-4.6708234251968506
0
LINE
8
BLACK
6
CONTINUOUS
10
4.0076881102362201
20
-4.6708234251968506
11
4.0100731102362204
21
-4.6567862204724406
0
LINE
8
BLACK
6
CONTINUOUS
10
4.0100731102362204
20
-4.6567862204724406
11
4.0140148031496059
21
-4.6431043307086615
0
LINE
8
BLACK
6
CONTINUOUS
10
4.0140148031496059
20
-4.6431043307086615
11
4.0194635826771652
21
-4.6299498031496062
0
LINE
8
BLACK
6
CONTINUOUS
10
4.0194635826771652
20
-4.6299498031496062
11
4.0263509448818899
21
-4.6174880708661412
0
LINE
8
BLACK
6
CONTINUOUS
10
4.0263509448818899
20
-4.6174880708661412
11
4.0345902755905509
21
-4.6058757874015743
0
LINE
8
BLACK
6
CONTINUOUS
10
4.0345902755905509
20
-4.6058757874015743
11
4.0440779921259837
21
-4.5952590944881893
0
LINE
8
BLACK
6
CONTINUOUS
10
4.0440779921259837
20
-4.5952590944881893
11
4.0546946850393697
21
-4.5857713779527556
0
LINE
8
BLACK
6
CONTINUOUS
10
4.0546946850393697
20
-4.5857713779527556
11
4.0663069685039366
21
-4.5775320472440946
0
LINE
8
BLACK
6
CONTINUOUS
10
4.0663069685039366
20
-4.5775320472440946
11
4.0787687007874016
21
-4.5706446850393698
0
LINE
8
BLACK
6
CONTINUOUS
10
4.0787687007874016
20
-4.5706446850393698
11
4.0919232283464568
21
-4.5651959055118105
0
LINE
8
BLACK
6
CONTINUOUS
10
4.0919232283464568
20
-4.5651959055118105
11
4.105605118110236
21
-4.561254212598425
0
LINE
8
BLACK
6
CONTINUOUS
10
4.105605118110236
20
-4.561254212598425
11
4.1196423228346459
21
-4.5588692125984247
0
LINE
8
BLACK
6
CONTINUOUS
10
4.1196423228346459
20
-4.5588692125984247
11
4.1338582677165352
21
-4.5580708661417324
0
LINE
8
BLACK
6
CONTINUOUS
10
4.1338582677165352
20
-4.5580708661417324
11
4.1480742125984253
21
-4.5588692125984247
0
LINE
8
BLACK
6
CONTINUOUS
10
4.0094485039370076
20
-4.6990569685039372
11
4.0118002362204725
21
-4.7128983070866139
0
LINE
8
BLACK
6
CONTINUOUS
10
4.0118002362204725
20
-4.7128983070866139
11
4.0156869291338584
21
-4.7263892913385828
0
LINE
8
BLACK
6
CONTINUOUS
10
4.0156869291338584
20
-4.7263892913385828
11
4.0210596850393703
21
-4.7393603149606296
0
LINE
8
BLACK
6
CONTINUOUS
10
4.0210596850393703
20
-4.7393603149606296
11
4.0278509842519687
21
-4.751648188976378
0
LINE
8
BLACK
6
CONTINUOUS
10
4.0278509842519687
20
-4.751648188976378
11
4.0359753543307084
21
-4.7630983858267717
0
LINE
8
BLACK
6
CONTINUOUS
10
4.0359753543307084
20
-4.7630983858267717
11
4.0453306299212599
21
-4.773567007874016
0
LINE
8
BLACK
6
CONTINUOUS
10
4.0453306299212599
20
-4.773567007874016
11
4.0557992519685042
21
-4.7829222834645666
0
LINE
8
BLACK
6
CONTINUOUS
10
4.0557992519685042
20
-4.7829222834645666
11
4.0672494488188979
21
-4.7910466535433072
0
LINE
8
BLACK
6
CONTINUOUS
10
4.0672494488188979
20
-4.7910466535433072
11
4.0795373228346454
21
-4.7978379527559056
0
LINE
8
BLACK
6
CONTINUOUS
10
4.0795373228346454
20
-4.7978379527559056
11
4.0925083464566931
21
-4.8032107086614175
0
LINE
8
BLACK
6
CONTINUOUS
10
4.0925083464566931
20
-4.8032107086614175
11
4.1059993307086611
21
-4.8070974015748034
0
LINE
8
BLACK
6
CONTINUOUS
10
4.1059993307086611
20
-4.8070974015748034
11
4.1198406692913387
21
-4.8094491338582674
0
LINE
8
BLACK
6
CONTINUOUS
10
4.1198406692913387
20
-4.8094491338582674
11
4.1338582677165352
21
-4.8102363385826772
0
LINE
8
BLACK
6
CONTINUOUS
10
4.1338582677165352
20
-4.8102363385826772
11
4.1478758661417325
21
-4.8094491338582674
0
LINE
8
BLACK
6
CONTINUOUS
10
4.1478758661417325
20
-4.8094491338582674
11
4.1617172047244093
21
-4.8070974015748034
0
LINE
8
BLACK
6
CONTINUOUS
10
4.1617172047244093
20
-4.8070974015748034
11
4.1752081889763781
21
-4.8032107086614175
0
LINE
8
BLACK
6
CONTINUOUS
10
4.1752081889763781
20
-4.8032107086614175
11
4.188179212598425
21
-4.7978379527559056
0
LINE
8
BLACK
6
CONTINUOUS
10
4.188179212598425
20
-4.7978379527559056
11
4.2004670866141733
21
-4.7910466535433072
0
LINE
8
BLACK
6
CONTINUOUS
10
4.2004670866141733
20
-4.7910466535433072
11
4.2119172834645671
21
-4.7829222834645666
0
LINE
8
BLACK
6
CONTINUOUS
10
4.2119172834645671
20
-4.7829222834645666
11
4.2223859055118114
21
-4.773567007874016
0
LINE
8
BLACK
6
CONTINUOUS
10
4.2223859055118114
20
-4.773567007874016
11
4.231741181102362
21
-4.7630983858267717
0
LINE
8
BLACK
6
CONTINUOUS
10
4.231741181102362
20
-4.7630983858267717
11
4.2398655511811025
21
-4.751648188976378
0
LINE
8
BLACK
6
CONTINUOUS
10
4.2398655511811025
20
-4.751648188976378
11
4.246656850393701
21
-4.7393603149606296
0
LINE
8
BLACK
6
CONTINUOUS
10
4.246656850393701
20
-4.7393603149606296
11
4.2520296062992129
21
-4.7263892913385828
0
LINE
8
BLACK
6
CONTINUOUS
10
4.2520296062992129
20
-4.7263892913385828
11
4.2559162992125987
21
-4.7128983070866139
0
LINE
8
BLACK
6
CONTINUOUS
10
4.2559162992125987
20
-4.7128983070866139
11
4.2582680314960628
21
-4.6990569685039372
0
LINE
8
BLACK
6
CONTINUOUS
10
4.2582680314960628
20
-4.6990569685039372
11
4.2590552362204726
21
-4.6850393700787398
0
LINE
8
BLACK
6
CONTINUOUS
10
4.2590552362204726
20
-4.6850393700787398
11
4.2582680314960628
21
-4.6710217716535434
0
LINE
8
BLACK
6
CONTINUOUS
10
4.2582680314960628
20
-4.6710217716535434
11
4.2559162992125987
21
-4.6571804330708657
0
LINE
8
BLACK
6
CONTINUOUS
10
4.2559162992125987
20
-4.6571804330708657
11
4.2520296062992129
21
-4.6436894488188978
0
LINE
8
BLACK
6
CONTINUOUS
10
4.2520296062992129
20
-4.6436894488188978
11
4.246656850393701
21
-4.6307184251968501
0
LINE
8
BLACK
6
CONTINUOUS
10
4.246656850393701
20
-4.6307184251968501
11
4.2398655511811025
21
-4.6184305511811026
0
LINE
8
BLACK
6
CONTINUOUS
10
4.2398655511811025
20
-4.6184305511811026
11
4.231741181102362
21
-4.6069803543307088
0
LINE
8
BLACK
6
CONTINUOUS
10
4.231741181102362
20
-4.6069803543307088
11
4.2223859055118114
21
-4.5965117322834645
0
LINE
8
BLACK
6
CONTINUOUS
10
4.2223859055118114
20
-4.5965117322834645
11
4.2119172834645671
21
-4.5871564566929131
0
LINE
8
BLACK
6
CONTINUOUS
10
4.2119172834645671
20
-4.5871564566929131
11
4.2004670866141733
21
-4.5790320866141734
0
LINE
8
BLACK
6
CONTINUOUS
10
4.2004670866141733
20
-4.5790320866141734
11
4.188179212598425
21
-4.5722407874015749
0
LINE
8
BLACK
6
CONTINUOUS
10
4.188179212598425
20
-4.5722407874015749
11
4.1752081889763781
21
-4.566868031496063
0
LINE
8
BLACK
6
CONTINUOUS
10
4.1752081889763781
20
-4.566868031496063
11
4.1617172047244093
21
-4.5629813385826772
0
LINE
8
BLACK
6
CONTINUOUS
10
4.1617172047244093
20
-4.5629813385826772
11
4.1478758661417325
21
-4.5606296062992122
0
LINE
8
BLACK
6
CONTINUOUS
10
4.1478758661417325
20
-4.5606296062992122
11
4.1338582677165352
21
-4.5598424015748034
0
LINE
8
BLACK
6
CONTINUOUS
10
4.1338582677165352
20
-4.5598424015748034
11
4.1198406692913387
21
-4.5606296062992122
0
LINE
8
BLACK
6
CONTINUOUS
10
4.1198406692913387
20
-4.5606296062992122
11
4.1059993307086611
21
-4.5629813385826772
0
LINE
8
BLACK
6
CONTINUOUS
10
4.1059993307086611
20
-4.5629813385826772
11
4.0925083464566931
21
-4.566868031496063
0
LINE
8
BLACK
6
CONTINUOUS
10
4.0925083464566931
20
-4.566868031496063
11
4.0795373228346454
21
-4.5722407874015749
0
LINE
8
BLACK
6
CONTINUOUS
10
4.0795373228346454
20
-4.5722407874015749
11
4.0672494488188979
21
-4.5790320866141734
0
LINE
8
BLACK
6
CONTINUOUS
10
4.0672494488188979
20
-4.5790320866141734
11
4.0557992519685042
21
-4.5871564566929131
0
LINE
8
BLACK
6
CONTINUOUS
10
4.0557992519685042
20
-4.5871564566929131
11
4.0453306299212599
21
-4.5965117322834645
0
LINE
8
BLACK
6
CONTINUOUS
10
4.0453306299212599
20
-4.5965117322834645
11
4.0359753543307084
21
-4.6069803543307088
0
LINE
8
BLACK
6
CONTINUOUS
10
4.0359753543307084
20
-4.6069803543307088
11
4.0278509842519687
21
-4.6184305511811026
0
LINE
8
BLACK
6
CONTINUOUS
10
4.0278509842519687
20
-4.6184305511811026
11
4.0210596850393703
21
-4.6307184251968501
0
LINE
8
BLACK
6
CONTINUOUS
10
4.0210596850393703
20
-4.6307184251968501
11
4.0156869291338584
21
-4.6436894488188978
0
LINE
8
BLACK
6
CONTINUOUS
10
4.0156869291338584
20
-4.6436894488188978
11
4.0118002362204725
21
-4.6571804330708657
0
LINE
8
BLACK
6
CONTINUOUS
10
4.0118002362204725
20
-4.6571804330708657
11
4.0094485039370076
21
-4.6710217716535434
0
LINE
8
BLACK
6
CONTINUOUS
10
4.0094485039370076
20
-4.6710217716535434
11
4.0086612992125987
21
-4.6850393700787398
0
LINE
8
BLACK
6
CONTINUOUS
10
4.0086612992125987
20
-4.6850393700787398
11
4.0094485039370076
21
-4.6990569685039372
0
LINE
8
BLACK
6
CONTINUOUS
10
7.1008301181102365
20
-4.5588692125984247
11
7.1148673228346455
21
-4.561254212598425
0
LINE
8
BLACK
6
CONTINUOUS
10
7.1148673228346455
20
-4.561254212598425
11
7.1285492125984247
21
-4.5651959055118105
0
LINE
8
BLACK
6
CONTINUOUS
10
7.1285492125984247
20
-4.5651959055118105
11
7.1417037401574799
21
-4.5706446850393698
0
LINE
8
BLACK
6
CONTINUOUS
10
7.1417037401574799
20
-4.5706446850393698
11
7.1541654724409449
21
-4.5775320472440946
0
LINE
8
BLACK
6
CONTINUOUS
10
7.1541654724409449
20
-4.5775320472440946
11
7.1657777559055118
21
-4.5857713779527556
0
LINE
8
BLACK
6
CONTINUOUS
10
7.1657777559055118
20
-4.5857713779527556
11
7.1763944488188978
21
-4.5952590944881893
0
LINE
8
BLACK
6
CONTINUOUS
10
7.1763944488188978
20
-4.5952590944881893
11
7.1858821653543306
21
-4.6058757874015743
0
LINE
8
BLACK
6
CONTINUOUS
10
7.1858821653543306
20
-4.6058757874015743
11
7.1941214960629916
21
-4.6174880708661412
0
LINE
8
BLACK
6
CONTINUOUS
10
7.1941214960629916
20
-4.6174880708661412
11
7.2010088582677163
21
-4.6299498031496062
0
LINE
8
BLACK
6
CONTINUOUS
10
7.2010088582677163
20
-4.6299498031496062
11
7.2064576377952756
21
-4.6431043307086615
0
LINE
8
BLACK
6
CONTINUOUS
10
7.2064576377952756
20
-4.6431043307086615
11
7.2103993307086611
21
-4.6567862204724406
0
LINE
8
BLACK
6
CONTINUOUS
10
7.2103993307086611
20
-4.6567862204724406
11
7.2127843307086614
21
-4.6708234251968506
0
LINE
8
BLACK
6
CONTINUOUS
10
7.2127843307086614
20
-4.6708234251968506
11
7.2135826771653537
21
-4.6850393700787398
0
LINE
8
BLACK
6
CONTINUOUS
10
7.2135826771653537
20
-4.6850393700787398
11
7.2127843307086614
21
-4.69925531496063
0
LINE
8
BLACK
6
CONTINUOUS
10
7.2127843307086614
20
-4.69925531496063
11
7.2103993307086611
21
-4.713292519685039
0
LINE
8
BLACK
6
CONTINUOUS
10
7.2103993307086611
20
-4.713292519685039
11
7.2064576377952756
21
-4.7269744094488191
0
LINE
8
BLACK
6
CONTINUOUS
10
7.2064576377952756
20
-4.7269744094488191
11
7.2010088582677163
21
-4.7401289370078743
0
LINE
8
BLACK
6
CONTINUOUS
10
7.2010088582677163
20
-4.7401289370078743
11
7.1941214960629916
21
-4.7525906692913384
0
LINE
8
BLACK
6
CONTINUOUS
10
7.1941214960629916
20
-4.7525906692913384
11
7.1858821653543306
21
-4.7642029527559053
0
LINE
8
BLACK
6
CONTINUOUS
10
7.1858821653543306
20
-4.7642029527559053
11
7.1763944488188978
21
-4.7748196456692913
0
LINE
8
BLACK
6
CONTINUOUS
10
7.1763944488188978
20
-4.7748196456692913
11
7.1657777559055118
21
-4.7843073622047241
0
LINE
8
BLACK
6
CONTINUOUS
10
7.1657777559055118
20
-4.7843073622047241
11
7.1541654724409449
21
-4.792546692913386
0
LINE
8
BLACK
6
CONTINUOUS
10
7.1541654724409449
20
-4.792546692913386
11
7.1417037401574799
21
-4.7994340551181098
0
LINE
8
BLACK
6
CONTINUOUS
10
7.1417037401574799
20
-4.7994340551181098
11
7.1285492125984247
21
-4.8048828346456691
0
LINE
8
BLACK
6
CONTINUOUS
10
7.1285492125984247
20
-4.8048828346456691
11
7.1148673228346455
21
-4.8088245275590547
0
LINE
8
BLACK
6
CONTINUOUS
10
7.1148673228346455
20
-4.8088245275590547
11
7.1008301181102365
21
-4.811209527559055
0
LINE
8
BLACK
6
CONTINUOUS
10
7.1008301181102365
20
-4.811209527559055
11
7.0866141732283463
21
-4.8120078740157481
0
LINE
8
BLACK
6
CONTINUOUS
10
7.0866141732283463
20
-4.8120078740157481
11
7.0723982283464562
21
-4.811209527559055
0
LINE
8
BLACK
6
CONTINUOUS
10
7.0723982283464562
20
-4.811209527559055
11
7.0583610236220471
21
-4.8088245275590547
0
LINE
8
BLACK
6
CONTINUOUS
10
7.0583610236220471
20
-4.8088245275590547
11
7.0446791338582679
21
-4.8048828346456691
0
LINE
8
BLACK
6
CONTINUOUS
10
7.0446791338582679
20
-4.8048828346456691
11
7.0315246062992127
21
-4.7994340551181098
0
LINE
8
BLACK
6
CONTINUOUS
10
7.0315246062992127
20
-4.7994340551181098
11
7.0190628740157477
21
-4.792546692913386
0
LINE
8
BLACK
6
CONTINUOUS
10
7.0190628740157477
20
-4.792546692913386
11
7.0074505905511808
21
-4.7843073622047241
0
LINE
8
BLACK
6
CONTINUOUS
10
7.0074505905511808
20
-4.7843073622047241
11
6.9968338976377948
21
-4.7748196456692913
0
LINE
8
BLACK
6
CONTINUOUS
10
6.9968338976377948
20
-4.7748196456692913
11
6.9873461811023621
21
-4.7642029527559053
0
LINE
8
BLACK
6
CONTINUOUS
10
6.9873461811023621
20
-4.7642029527559053
11
6.979106850393701
21
-4.7525906692913384
0
LINE
8
BLACK
6
CONTINUOUS
10
6.979106850393701
20
-4.7525906692913384
11
6.9722194881889763
21
-4.7401289370078743
0
LINE
8
BLACK
6
CONTINUOUS
10
6.9722194881889763
20
-4.7401289370078743
11
6.966770708661417
21
-4.7269744094488191
0
LINE
8
BLACK
6
CONTINUOUS
10
6.966770708661417
20
-4.7269744094488191
11
6.9628290157480315
21
-4.713292519685039
0
LINE
8
BLACK
6
CONTINUOUS
10
6.9628290157480315
20
-4.713292519685039
11
6.9604440157480312
21
-4.69925531496063
0
LINE
8
BLACK
6
CONTINUOUS
10
6.9604440157480312
20
-4.69925531496063
11
6.959645669291338
21
-4.6850393700787398
0
LINE
8
BLACK
6
CONTINUOUS
10
6.959645669291338
20
-4.6850393700787398
11
6.9604440157480312
21
-4.6708234251968506
0
LINE
8
BLACK
6
CONTINUOUS
10
6.9604440157480312
20
-4.6708234251968506
11
6.9628290157480315
21
-4.6567862204724406
0
LINE
8
BLACK
6
CONTINUOUS
10
6.9628290157480315
20
-4.6567862204724406
11
6.966770708661417
21
-4.6431043307086615
0
LINE
8
BLACK
6
CONTINUOUS
10
6.966770708661417
20
-4.6431043307086615
11
6.9722194881889763
21
-4.6299498031496062
0
LINE
8
BLACK
6
CONTINUOUS
10
6.9722194881889763
20
-4.6299498031496062
11
6.979106850393701
21
-4.6174880708661412
0
LINE
8
BLACK
6
CONTINUOUS
10
6.979106850393701
20
-4.6174880708661412
11
6.9873461811023621
21
-4.6058757874015743
0
LINE
8
BLACK
6
CONTINUOUS
10
6.9873461811023621
20
-4.6058757874015743
11
6.9968338976377948
21
-4.5952590944881893
0
LINE
8
BLACK
6
CONTINUOUS
10
6.9968338976377948
20
-4.5952590944881893
11
7.0074505905511808
21
-4.5857713779527556
0
LINE
8
BLACK
6
CONTINUOUS
10
7.0074505905511808
20
-4.5857713779527556
11
7.0190628740157477
21
-4.5775320472440946
0
LINE
8
BLACK
6
CONTINUOUS
10
7.0190628740157477
20
-4.5775320472440946
11
7.0315246062992127
21
-4.5706446850393698
0
LINE
8
BLACK
6
CONTINUOUS
10
7.0315246062992127
20
-4.5706446850393698
11
7.0446791338582679
21
-4.5651959055118105
0
LINE
8
BLACK
6
CONTINUOUS
10
7.0446791338582679
20
-4.5651959055118105
11
7.0583610236220471
21
-4.561254212598425
0
LINE
8
BLACK
6
CONTINUOUS
10
7.0583610236220471
20
-4.561254212598425
11
7.0723982283464562
21
-4.5588692125984247
0
LINE
8
BLACK
6
CONTINUOUS
10
7.0723982283464562
20
-4.5588692125984247
11
7.0866141732283463
21
-4.5580708661417324
0
LINE
8
BLACK
6
CONTINUOUS
10
7.0866141732283463
20
-4.5580708661417324
11
7.1008301181102365
21
-4.5588692125984247
0
LINE
8
BLACK
6
CONTINUOUS
10
6.9622044094488187
20
-4.6990569685039372
11
6.9645561417322837
21
-4.7128983070866139
0
LINE
8
BLACK
6
CONTINUOUS
10
6.9645561417322837
20
-4.7128983070866139
11
6.9684428346456695
21
-4.7263892913385828
0
LINE
8
BLACK
6
CONTINUOUS
10
6.9684428346456695
20
-4.7263892913385828
11
6.9738155905511814
21
-4.7393603149606296
0
LINE
8
BLACK
6
CONTINUOUS
10
6.9738155905511814
20
-4.7393603149606296
11
6.980606889763779
21
-4.751648188976378
0
LINE
8
BLACK
6
CONTINUOUS
10
6.980606889763779
20
-4.751648188976378
11
6.9887312598425195
21
-4.7630983858267717
0
LINE
8
BLACK
6
CONTINUOUS
10
6.9887312598425195
20
-4.7630983858267717
11
6.998086535433071
21
-4.773567007874016
0
LINE
8
BLACK
6
CONTINUOUS
10
6.998086535433071
20
-4.773567007874016
11
7.0085551574803144
21
-4.7829222834645666
0
LINE
8
BLACK
6
CONTINUOUS
10
7.0085551574803144
20
-4.7829222834645666
11
7.0200053543307082
21
-4.7910466535433072
0
LINE
8
BLACK
6
CONTINUOUS
10
7.0200053543307082
20
-4.7910466535433072
11
7.0322932283464565
21
-4.7978379527559056
0
LINE
8
BLACK
6
CONTINUOUS
10
7.0322932283464565
20
-4.7978379527559056
11
7.0452642519685034
21
-4.8032107086614175
0
LINE
8
BLACK
6
CONTINUOUS
10
7.0452642519685034
20
-4.8032107086614175
11
7.0587552362204722
21
-4.8070974015748034
0
LINE
8
BLACK
6
CONTINUOUS
10
7.0587552362204722
20
-4.8070974015748034
11
7.0725965748031498
21
-4.8094491338582674
0
LINE
8
BLACK
6
CONTINUOUS
10
7.0725965748031498
20
-4.8094491338582674
11
7.0866141732283463
21
-4.8102363385826772
0
LINE
8
BLACK
6
CONTINUOUS
10
7.0866141732283463
20
-4.8102363385826772
11
7.1006317716535428
21
-4.8094491338582674
0
LINE
8
BLACK
6
CONTINUOUS
10
7.1006317716535428
20
-4.8094491338582674
11
7.1144731102362204
21
-4.8070974015748034
0
LINE
8
BLACK
6
CONTINUOUS
10
7.1144731102362204
20
-4.8070974015748034
11
7.1279640944881892
21
-4.8032107086614175
0
LINE
8
BLACK
6
CONTINUOUS
10
7.1279640944881892
20
-4.8032107086614175
11
7.1409351181102361
21
-4.7978379527559056
0
LINE
8
BLACK
6
CONTINUOUS
10
7.1409351181102361
20
-4.7978379527559056
11
7.1532229921259844
21
-4.7910466535433072
0
LINE
8
BLACK
6
CONTINUOUS
10
7.1532229921259844
20
-4.7910466535433072
11
7.1646731889763782
21
-4.7829222834645666
0
LINE
8
BLACK
6
CONTINUOUS
10
7.1646731889763782
20
-4.7829222834645666
11
7.1751418110236216
21
-4.773567007874016
0
LINE
8
BLACK
6
CONTINUOUS
10
7.1751418110236216
20
-4.773567007874016
11
7.1844970866141731
21
-4.7630983858267717
0
LINE
8
BLACK
6
CONTINUOUS
10
7.1844970866141731
20
-4.7630983858267717
11
7.1926214566929136
21
-4.751648188976378
0
LINE
8
BLACK
6
CONTINUOUS
10
7.1926214566929136
20
-4.751648188976378
11
7.1994127559055112
21
-4.7393603149606296
0
LINE
8
BLACK
6
CONTINUOUS
10
7.1994127559055112
20
-4.7393603149606296
11
7.2047855118110231
21
-4.7263892913385828
0
LINE
8
BLACK
6
CONTINUOUS
10
7.2047855118110231
20
-4.7263892913385828
11
7.2086722047244089
21
-4.7128983070866139
0
LINE
8
BLACK
6
CONTINUOUS
10
7.2086722047244089
20
-4.7128983070866139
11
7.2110239370078739
21
-4.6990569685039372
0
LINE
8
BLACK
6
CONTINUOUS
10
7.2110239370078739
20
-4.6990569685039372
11
7.2118111417322837
21
-4.6850393700787398
0
LINE
8
BLACK
6
CONTINUOUS
10
7.2118111417322837
20
-4.6850393700787398
11
7.2110239370078739
21
-4.6710217716535434
0
LINE
8
BLACK
6
CONTINUOUS
10
7.2110239370078739
20
-4.6710217716535434
11
7.2086722047244089
21
-4.6571804330708657
0
LINE
8
BLACK
6
CONTINUOUS
10
7.2086722047244089
20
-4.6571804330708657
11
7.2047855118110231
21
-4.6436894488188978
0
LINE
8
BLACK
6
CONTINUOUS
10
7.2047855118110231
20
-4.6436894488188978
11
7.1994127559055112
21
-4.6307184251968501
0
LINE
8
BLACK
6
CONTINUOUS
10
7.1994127559055112
20
-4.6307184251968501
11
7.1926214566929136
21
-4.6184305511811026
0
LINE
8
BLACK
6
CONTINUOUS
10
7.1926214566929136
20
-4.6184305511811026
11
7.1844970866141731
21
-4.6069803543307088
0
LINE
8
BLACK
6
CONTINUOUS
10
7.1844970866141731
20
-4.6069803543307088
11
7.1751418110236216
21
-4.5965117322834645
0
LINE
8
BLACK
6
CONTINUOUS
10
7.1751418110236216
20
-4.5965117322834645
11
7.1646731889763782
21
-4.5871564566929131
0
LINE
8
BLACK
6
CONTINUOUS
10
7.1646731889763782
20
-4.5871564566929131
11
7.1532229921259844
21
-4.5790320866141734
0
LINE
8
BLACK
6
CONTINUOUS
10
7.1532229921259844
20
-4.5790320866141734
11
7.1409351181102361
21
-4.5722407874015749
0
LINE
8
BLACK
6
CONTINUOUS
10
7.1409351181102361
20
-4.5722407874015749
11
7.1279640944881892
21
-4.566868031496063
0
LINE
8
BLACK
6
CONTINUOUS
10
7.1279640944881892
20
-4.566868031496063
11
7.1144731102362204
21
-4.5629813385826772
0
LINE
8
BLACK
6
CONTINUOUS
10
7.1144731102362204
20
-4.5629813385826772
11
7.1006317716535428
21
-4.5606296062992122
0
LINE
8
BLACK
6
CONTINUOUS
10
7.1006317716535428
20
-4.5606296062992122
11
7.0866141732283463
21
-4.5598424015748034
0
LINE
8
BLACK
6
CONTINUOUS
10
7.0866141732283463
20
-4.5598424015748034
11
7.0725965748031498
21
-4.5606296062992122
0
LINE
8
BLACK
6
CONTINUOUS
10
7.0725965748031498
20
-4.5606296062992122
11
7.0587552362204722
21
-4.5629813385826772
0
LINE
8
BLACK
6
CONTINUOUS
10
7.0587552362204722
20
-4.5629813385826772
11
7.0452642519685034
21
-4.566868031496063
0
LINE
8
BLACK
6
CONTINUOUS
10
7.0452642519685034
20
-4.566868031496063
11
7.0322932283464565
21
-4.5722407874015749
0
LINE
8
BLACK
6
CONTINUOUS
10
7.0322932283464565
20
-4.5722407874015749
11
7.0200053543307082
21
-4.5790320866141734
0
LINE
8
BLACK
6
CONTINUOUS
10
7.0200053543307082
20
-4.5790320866141734
11
7.0085551574803144
21
-4.5871564566929131
0
LINE
8
BLACK
6
CONTINUOUS
10
7.0085551574803144
20
-4.5871564566929131
11
6.998086535433071
21
-4.5965117322834645
0
LINE
8
BLACK
6
CONTINUOUS
10
6.998086535433071
20
-4.5965117322834645
11
6.9887312598425195
21
-4.6069803543307088
0
LINE
8
BLACK
6
CONTINUOUS
10
6.9887312598425195
20
-4.6069803543307088
11
6.980606889763779
21
-4.6184305511811026
0
LINE
8
BLACK
6
CONTINUOUS
10
6.980606889763779
20
-4.6184305511811026
11
6.9738155905511814
21
-4.6307184251968501
0
LINE
8
BLACK
6
CONTINUOUS
10
6.9738155905511814
20
-4.6307184251968501
11
6.9684428346456695
21
-4.6436894488188978
0
LINE
8
BLACK
6
CONTINUOUS
10
6.9684428346456695
20
-4.6436894488188978
11
6.9645561417322837
21
-4.6571804330708657
0
LINE
8
BLACK
6
CONTINUOUS
10
6.9645561417322837
20
-4.6571804330708657
11
6.9622044094488187
21
-4.6710217716535434
0
LINE
8
BLACK
6
CONTINUOUS
10
6.9622044094488187
20
-4.6710217716535434
11
6.9614172047244089
21
-4.6850393700787398
0
LINE
8
BLACK
6
CONTINUOUS
10
6.9614172047244089
20
-4.6850393700787398
11
6.9622044094488187
21
-4.6990569685039372
0
LINE
8
BLACK
6
CONTINUOUS
10
4.8035433070866143
20
-2.6201023622047241
11
4.8042392913385825
21
-2.6203906299212596
0
LINE
8
BLACK
6
CONTINUOUS
10
4.8042392913385825
20
-2.6203906299212596
11
4.804527559055118
21
-2.6210866141732283
0
LINE
8
BLACK
6
CONTINUOUS
10
4.804527559055118
20
-2.6210866141732283
11
4.804527559055118
21
-4.6604566929133862
0
LINE
8
BLACK
6
CONTINUOUS
10
4.804527559055118
20
-4.6604566929133862
11
4.8042392913385825
21
-4.6611526771653544
0
LINE
8
BLACK
6
CONTINUOUS
10
4.8042392913385825
20
-4.6611526771653544
11
4.8035433070866143
21
-4.6614409448818899
0
LINE
8
BLACK
6
CONTINUOUS
10
4.8035433070866143
20
-4.6614409448818899
11
4.5633858267716532
21
-4.6614409448818899
0
LINE
8
BLACK
6
CONTINUOUS
10
4.5633858267716532
20
-4.6614409448818899
11
4.5626898425196849
21
-4.6611526771653544
0
LINE
8
BLACK
6
CONTINUOUS
10
4.5626898425196849
20
-4.6611526771653544
11
4.5624015748031495
21
-4.6604566929133862
0
LINE
8
BLACK
6
CONTINUOUS
10
4.5624015748031495
20
-4.6604566929133862
11
4.5624015748031495
21
-2.6210866141732283
0
LINE
8
BLACK
6
CONTINUOUS
10
4.5624015748031495
20
-2.6210866141732283
11
4.5626898425196849
21
-2.6203906299212596
0
LINE
8
BLACK
6
CONTINUOUS
10
4.5626898425196849
20
-2.6203906299212596
11
4.5633858267716532
21
-2.6201023622047241
0
LINE
8
BLACK
6
CONTINUOUS
10
4.5633858267716532
20
-2.6201023622047241
11
4.8035433070866143
21
-2.6201023622047241
0
LINE
8
BLACK
6
CONTINUOUS
10
4.5643700787401578
20
-2.622070866141732
11
4.5643700787401578
21
-4.6594724409448816
0
LINE
8
BLACK
6
CONTINUOUS
10
4.5643700787401578
20
-4.6594724409448816
11
4.8025590551181105
21
-4.6594724409448816
0
LINE
8
BLACK
6
CONTINUOUS
10
4.8025590551181105
20
-4.6594724409448816
11
4.8025590551181105
21
-2.622070866141732
0
LINE
8
BLACK
6
CONTINUOUS
10
4.8025590551181105
20
-2.622070866141732
11
4.5643700787401578
21
-2.622070866141732
0
LINE
8
BLACK
6
CONTINUOUS
10
6.2328740157480311
20
-2.8748267716535434
11
6.2335700000000003
21
-2.8751150393700788
0
LINE
8
BLACK
6
CONTINUOUS
10
6.2335700000000003
20
-2.8751150393700788
11
6.2338582677165357
21
-2.8758110236220471
0
LINE
8
BLACK
6
CONTINUOUS
10
6.2338582677165357
20
-2.8758110236220471
11
6.2338582677165357
21
-3.2163622047244096
0
LINE
8
BLACK
6
CONTINUOUS
10
6.2338582677165357
20
-3.2163622047244096
11
6.2335700000000003
21
-3.2170581889763779
0
LINE
8
BLACK
6
CONTINUOUS
10
6.2335700000000003
20
-3.2170581889763779
11
6.2328740157480311
21
-3.2173464566929133
0
LINE
8
BLACK
6
CONTINUOUS
10
6.2328740157480311
20
-3.2173464566929133
11
5.9927165354330709
21
-3.2173464566929133
0
LINE
8
BLACK
6
CONTINUOUS
10
5.9927165354330709
20
-3.2173464566929133
11
5.9920205511811027
21
-3.2170581889763779
0
LINE
8
BLACK
6
CONTINUOUS
10
5.9920205511811027
20
-3.2170581889763779
11
5.9917322834645672
21
-3.2163622047244096
0
LINE
8
BLACK
6
CONTINUOUS
10
5.9917322834645672
20
-3.2163622047244096
11
5.9917322834645672
21
-2.8758110236220471
0
LINE
8
BLACK
6
CONTINUOUS
10
5.9917322834645672
20
-2.8758110236220471
11
5.9920205511811027
21
-2.8751150393700788
0
LINE
8
BLACK
6
CONTINUOUS
10
5.9920205511811027
20
-2.8751150393700788
11
5.9927165354330709
21
-2.8748267716535434
0
LINE
8
BLACK
6
CONTINUOUS
10
5.9927165354330709
20
-2.8748267716535434
11
6.2328740157480311
21
-2.8748267716535434
0
LINE
8
BLACK
6
CONTINUOUS
10
5.9937007874015746
20
-2.8767952755905513
11
5.9937007874015746
21
-3.2153779527559054
0
LINE
8
BLACK
6
CONTINUOUS
10
5.9937007874015746
20
-3.2153779527559054
11
6.2318897637795274
21
-3.2153779527559054
0
LINE
8
BLACK
6
CONTINUOUS
10
6.2318897637795274
20
-3.2153779527559054
11
6.2318897637795274
21
-2.8767952755905513
0
LINE
8
BLACK
6
CONTINUOUS
10
6.2318897637795274
20
-2.8767952755905513
11
5.9937007874015746
21
-2.8767952755905513
0
LINE
8
BLACK
6
CONTINUOUS
10
1.1953183070866142
20
-2.5116251181102363
11
1.2093555118110235
21
-2.5140101181102361
0
LINE
8
BLACK
6
CONTINUOUS
10
1.2093555118110235
20
-2.5140101181102361
11
1.2230374015748031
21
-2.5179518110236221
0
LINE
8
BLACK
6
CONTINUOUS
10
1.2230374015748031
20
-2.5179518110236221
11
1.2361919291338583
21
-2.5234005905511809
0
LINE
8
BLACK
6
CONTINUOUS
10
1.2361919291338583
20
-2.5234005905511809
11
1.2486536614173227
21
-2.5302879527559052
0
LINE
8
BLACK
6
CONTINUOUS
10
1.2486536614173227
20
-2.5302879527559052
11
1.2602659448818898
21
-2.5385272834645667
0
LINE
8
BLACK
6
CONTINUOUS
10
1.2602659448818898
20
-2.5385272834645667
11
1.2708826377952755
21
-2.5480149999999999
0
LINE
8
BLACK
6
CONTINUOUS
10
1.2708826377952755
20
-2.5480149999999999
11
1.2803703543307086
21
-2.5586316929133859
0
LINE
8
BLACK
6
CONTINUOUS
10
1.2803703543307086
20
-2.5586316929133859
11
1.28860968503937
21
-2.5702439763779528
0
LINE
8
BLACK
6
CONTINUOUS
10
1.28860968503937
20
-2.5702439763779528
11
1.2954970472440945
21
-2.5827057086614174
0
LINE
8
BLACK
6
CONTINUOUS
10
1.2954970472440945
20
-2.5827057086614174
11
1.3009458267716536
21
-2.5958602362204726
0
LINE
8
BLACK
6
CONTINUOUS
10
1.3009458267716536
20
-2.5958602362204726
11
1.3048875196850394
21
-2.6095421259842517
0
LINE
8
BLACK
6
CONTINUOUS
10
1.3048875196850394
20
-2.6095421259842517
11
1.3072725196850394
21
-2.6235793307086612
0
LINE
8
BLACK
6
CONTINUOUS
10
1.3072725196850394
20
-2.6235793307086612
11
1.3080708661417322
21
-2.6377952755905509
0
LINE
8
BLACK
6
CONTINUOUS
10
1.3080708661417322
20
-2.6377952755905509
11
1.3072725196850394
21
-2.6520112204724411
0
LINE
8
BLACK
6
CONTINUOUS
10
1.3072725196850394
20
-2.6520112204724411
11
1.3048875196850394
21
-2.6660484251968501
0
LINE
8
BLACK
6
CONTINUOUS
10
1.3048875196850394
20
-2.6660484251968501
11
1.3009458267716536
21
-2.6797303149606297
0
LINE
8
BLACK
6
CONTINUOUS
10
1.3009458267716536
20
-2.6797303149606297
11
1.2954970472440945
21
-2.692884842519685
0
LINE
8
BLACK
6
CONTINUOUS
10
1.2954970472440945
20
-2.692884842519685
11
1.28860968503937
21
-2.7053465748031496
0
LINE
8
BLACK
6
CONTINUOUS
10
1.28860968503937
20
-2.7053465748031496
11
1.2803703543307086
21
-2.7169588582677164
0
LINE
8
BLACK
6
CONTINUOUS
10
1.2803703543307086
20
-2.7169588582677164
11
1.2708826377952755
21
-2.7275755511811024
0
LINE
8
BLACK
6
CONTINUOUS
10
1.2708826377952755
20
-2.7275755511811024
11
1.2602659448818898
21
-2.7370632677165352
0
LINE
8
BLACK
6
CONTINUOUS
10
1.2602659448818898
20
-2.7370632677165352
11
1.2486536614173227
21
-2.7453025984251966
0
LINE
8
BLACK
6
CONTINUOUS
10
1.2486536614173227
20
-2.7453025984251966
11
1.2361919291338583
21
-2.7521899606299214
0
LINE
8
BLACK
6
CONTINUOUS
10
1.2361919291338583
20
-2.7521899606299214
11
1.2230374015748031
21
-2.7576387401574802
0
LINE
8
BLACK
6
CONTINUOUS
10
1.2230374015748031
20
-2.7576387401574802
11
1.2093555118110235
21
-2.7615804330708662
0
LINE
8
BLACK
6
CONTINUOUS
10
1.2093555118110235
20
-2.7615804330708662
11
1.1953183070866142
21
-2.7639654330708661
0
LINE
8
BLACK
6
CONTINUOUS
10
1.1953183070866142
20
-2.7639654330708661
11
1.1811023622047243
21
-2.7647637795275588
0
LINE
8
BLACK
6
CONTINUOUS
10
1.1811023622047243
20
-2.7647637795275588
11
1.1668864173228346
21
-2.7639654330708661
0
LINE
8
BLACK
6
CONTINUOUS
10
1.1668864173228346
20
-2.7639654330708661
11
1.1528492125984251
21
-2.7615804330708662
0
LINE
8
BLACK
6
CONTINUOUS
10
1.1528492125984251
20
-2.7615804330708662
11
1.1391673228346457
21
-2.7576387401574802
0
LINE
8
BLACK
6
CONTINUOUS
10
1.1391673228346457
20
-2.7576387401574802
11
1.1260127952755905
21
-2.7521899606299214
0
LINE
8
BLACK
6
CONTINUOUS
10
1.1260127952755905
20
-2.7521899606299214
11
1.1135510629921259
21
-2.7453025984251966
0
LINE
8
BLACK
6
CONTINUOUS
10
1.1135510629921259
20
-2.7453025984251966
11
1.101938779527559
21
-2.7370632677165352
0
LINE
8
BLACK
6
CONTINUOUS
10
1.101938779527559
20
-2.7370632677165352
11
1.0913220866141733
21
-2.7275755511811024
0
LINE
8
BLACK
6
CONTINUOUS
10
1.0913220866141733
20
-2.7275755511811024
11
1.0818343700787401
21
-2.7169588582677164
0
LINE
8
BLACK
6
CONTINUOUS
10
1.0818343700787401
20
-2.7169588582677164
11
1.0735950393700786
21
-2.7053465748031496
0
LINE
8
BLACK
6
CONTINUOUS
10
1.0735950393700786
20
-2.7053465748031496
11
1.0667076771653543
21
-2.692884842519685
0
LINE
8
BLACK
6
CONTINUOUS
10
1.0667076771653543
20
-2.692884842519685
11
1.0612588976377952
21
-2.6797303149606297
0
LINE
8
BLACK
6
CONTINUOUS
10
1.0612588976377952
20
-2.6797303149606297
11
1.0573172047244095
21
-2.6660484251968501
0
LINE
8
BLACK
6
CONTINUOUS
10
1.0573172047244095
20
-2.6660484251968501
11
1.0549322047244094
21
-2.6520112204724411
0
LINE
8
BLACK
6
CONTINUOUS
10
1.0549322047244094
20
-2.6520112204724411
11
1.0541338582677164
21
-2.6377952755905509
0
LINE
8
BLACK
6
CONTINUOUS
10
1.0541338582677164
20
-2.6377952755905509
11
1.0549322047244094
21
-2.6235793307086612
0
LINE
8
BLACK
6
CONTINUOUS
10
1.0549322047244094
20
-2.6235793307086612
11
1.0573172047244095
21
-2.6095421259842517
0
LINE
8
BLACK
6
CONTINUOUS
10
1.0573172047244095
20
-2.6095421259842517
11
1.0612588976377952
21
-2.5958602362204726
0
LINE
8
BLACK
6
CONTINUOUS
10
1.0612588976377952
20
-2.5958602362204726
11
1.0667076771653543
21
-2.5827057086614174
0
LINE
8
BLACK
6
CONTINUOUS
10
1.0667076771653543
20
-2.5827057086614174
11
1.0735950393700786
21
-2.5702439763779528
0
LINE
8
BLACK
6
CONTINUOUS
10
1.0735950393700786
20
-2.5702439763779528
11
1.0818343700787401
21
-2.5586316929133859
0
LINE
8
BLACK
6
CONTINUOUS
10
1.0818343700787401
20
-2.5586316929133859
11
1.0913220866141733
21
-2.5480149999999999
0
LINE
8
BLACK
6
CONTINUOUS
10
1.0913220866141733
20
-2.5480149999999999
11
1.101938779527559
21
-2.5385272834645667
0
LINE
8
BLACK
6
CONTINUOUS
10
1.101938779527559
20
-2.5385272834645667
11
1.1135510629921259
21
-2.5302879527559052
0
LINE
8
BLACK
6
CONTINUOUS
10
1.1135510629921259
20
-2.5302879527559052
11
1.1260127952755905
21
-2.5234005905511809
0
LINE
8
BLACK
6
CONTINUOUS
10
1.1260127952755905
20
-2.5234005905511809
11
1.1391673228346457
21
-2.5179518110236221
0
LINE
8
BLACK
6
CONTINUOUS
10
1.1391673228346457
20
-2.5179518110236221
11
1.1528492125984251
21
-2.5140101181102361
0
LINE
8
BLACK
6
CONTINUOUS
10
1.1528492125984251
20
-2.5140101181102361
11
1.1668864173228346
21
-2.5116251181102363
0
LINE
8
BLACK
6
CONTINUOUS
10
1.1668864173228346
20
-2.5116251181102363
11
1.1811023622047243
21
-2.5108267716535431
0
LINE
8
BLACK
6
CONTINUOUS
10
1.1811023622047243
20
-2.5108267716535431
11
1.1953183070866142
21
-2.5116251181102363
0
LINE
8
BLACK
6
CONTINUOUS
10
1.0566925984251969
20
-2.6518128740157478
11
1.0590443307086614
21
-2.6656542125984251
0
LINE
8
BLACK
6
CONTINUOUS
10
1.0590443307086614
20
-2.6656542125984251
11
1.0629310236220473
21
-2.6791451968503934
0
LINE
8
BLACK
6
CONTINUOUS
10
1.0629310236220473
20
-2.6791451968503934
11
1.0683037795275589
21
-2.6921162204724407
0
LINE
8
BLACK
6
CONTINUOUS
10
1.0683037795275589
20
-2.6921162204724407
11
1.0750950787401574
21
-2.7044040944881891
0
LINE
8
BLACK
6
CONTINUOUS
10
1.0750950787401574
20
-2.7044040944881891
11
1.0832194488188975
21
-2.7158542913385828
0
LINE
8
BLACK
6
CONTINUOUS
10
1.0832194488188975
20
-2.7158542913385828
11
1.0925747244094488
21
-2.7263229133858267
0
LINE
8
BLACK
6
CONTINUOUS
10
1.0925747244094488
20
-2.7263229133858267
11
1.1030433464566929
21
-2.7356781889763777
0
LINE
8
BLACK
6
CONTINUOUS
10
1.1030433464566929
20
-2.7356781889763777
11
1.1144935433070866
21
-2.7438025590551178
0
LINE
8
BLACK
6
CONTINUOUS
10
1.1144935433070866
20
-2.7438025590551178
11
1.1267814173228345
21
-2.7505938582677163
0
LINE
8
BLACK
6
CONTINUOUS
10
1.1267814173228345
20
-2.7505938582677163
11
1.1397524409448818
21
-2.7559666141732282
0
LINE
8
BLACK
6
CONTINUOUS
10
1.1397524409448818
20
-2.7559666141732282
11
1.1532434251968504
21
-2.759853307086614
0
LINE
8
BLACK
6
CONTINUOUS
10
1.1532434251968504
20
-2.759853307086614
11
1.1670847637795276
21
-2.7622050393700786
0
LINE
8
BLACK
6
CONTINUOUS
10
1.1670847637795276
20
-2.7622050393700786
11
1.1811023622047243
21
-2.7629922440944883
0
LINE
8
BLACK
6
CONTINUOUS
10
1.1811023622047243
20
-2.7629922440944883
11
1.1951199606299212
21
-2.7622050393700786
0
LINE
8
BLACK
6
CONTINUOUS
10
1.1951199606299212
20
-2.7622050393700786
11
1.2089612992125984
21
-2.759853307086614
0
LINE
8
BLACK
6
CONTINUOUS
10
1.2089612992125984
20
-2.759853307086614
11
1.2224522834645668
21
-2.7559666141732282
0
LINE
8
BLACK
6
CONTINUOUS
10
1.2224522834645668
20
-2.7559666141732282
11
1.2354233070866141
21
-2.7505938582677163
0
LINE
8
BLACK
6
CONTINUOUS
10
1.2354233070866141
20
-2.7505938582677163
11
1.2477111811023622
21
-2.7438025590551178
0
LINE
8
BLACK
6
CONTINUOUS
10
1.2477111811023622
20
-2.7438025590551178
11
1.259161377952756
21
-2.7356781889763777
0
LINE
8
BLACK
6
CONTINUOUS
10
1.259161377952756
20
-2.7356781889763777
11
1.26963
21
-2.7263229133858267
0
LINE
8
BLACK
6
CONTINUOUS
10
1.26963
20
-2.7263229133858267
11
1.2789852755905511
21
-2.7158542913385828
0
LINE
8
BLACK
6
CONTINUOUS
10
1.2789852755905511
20
-2.7158542913385828
11
1.2871096456692912
21
-2.7044040944881891
0
LINE
8
BLACK
6
CONTINUOUS
10
1.2871096456692912
20
-2.7044040944881891
11
1.2939009448818897
21
-2.6921162204724407
0
LINE
8
BLACK
6
CONTINUOUS
10
1.2939009448818897
20
-2.6921162204724407
11
1.2992737007874016
21
-2.6791451968503934
0
LINE
8
BLACK
6
CONTINUOUS
10
1.2992737007874016
20
-2.6791451968503934
11
1.3031603937007874
21
-2.6656542125984251
0
LINE
8
BLACK
6
CONTINUOUS
10
1.3031603937007874
20
-2.6656542125984251
11
1.3055121259842519
21
-2.6518128740157478
0
LINE
8
BLACK
6
CONTINUOUS
10
1.3055121259842519
20
-2.6518128740157478
11
1.3062993307086614
21
-2.6377952755905509
0
LINE
8
BLACK
6
CONTINUOUS
10
1.3062993307086614
20
-2.6377952755905509
11
1.3055121259842519
21
-2.6237776771653545
0
LINE
8
BLACK
6
CONTINUOUS
10
1.3055121259842519
20
-2.6237776771653545
11
1.3031603937007874
21
-2.6099363385826773
0
LINE
8
BLACK
6
CONTINUOUS
10
1.3031603937007874
20
-2.6099363385826773
11
1.2992737007874016
21
-2.5964453543307084
0
LINE
8
BLACK
6
CONTINUOUS
10
1.2992737007874016
20
-2.5964453543307084
11
1.2939009448818897
21
-2.5834743307086612
0
LINE
8
BLACK
6
CONTINUOUS
10
1.2939009448818897
20
-2.5834743307086612
11
1.2871096456692912
21
-2.5711864566929132
0
LINE
8
BLACK
6
CONTINUOUS
10
1.2871096456692912
20
-2.5711864566929132
11
1.2789852755905511
21
-2.5597362598425195
0
LINE
8
BLACK
6
CONTINUOUS
10
1.2789852755905511
20
-2.5597362598425195
11
1.26963
21
-2.5492676377952757
0
LINE
8
BLACK
6
CONTINUOUS
10
1.26963
20
-2.5492676377952757
11
1.259161377952756
21
-2.5399123622047242
0
LINE
8
BLACK
6
CONTINUOUS
10
1.259161377952756
20
-2.5399123622047242
11
1.2477111811023622
21
-2.531787992125984
0
LINE
8
BLACK
6
CONTINUOUS
10
1.2477111811023622
20
-2.531787992125984
11
1.2354233070866141
21
-2.5249966929133856
0
LINE
8
BLACK
6
CONTINUOUS
10
1.2354233070866141
20
-2.5249966929133856
11
1.2224522834645668
21
-2.5196239370078741
0
LINE
8
BLACK
6
CONTINUOUS
10
1.2224522834645668
20
-2.5196239370078741
11
1.2089612992125984
21
-2.5157372440944883
0
LINE
8
BLACK
6
CONTINUOUS
10
1.2089612992125984
20
-2.5157372440944883
11
1.1951199606299212
21
-2.5133855118110238
0
LINE
8
BLACK
6
CONTINUOUS
10
1.1951199606299212
20
-2.5133855118110238
11
1.1811023622047243
21
-2.512598307086614
0
LINE
8
BLACK
6
CONTINUOUS
10
1.1811023622047243
20
-2.512598307086614
11
1.1670847637795276
21
-2.5133855118110238
0
LINE
8
BLACK
6
CONTINUOUS
10
1.1670847637795276
20
-2.5133855118110238
11
1.1532434251968504
21
-2.5157372440944883
0
LINE
8
BLACK
6
CONTINUOUS
10
1.1532434251968504
20
-2.5157372440944883
11
1.1397524409448818
21
-2.5196239370078741
0
LINE
8
BLACK
6
CONTINUOUS
10
1.1397524409448818
20
-2.5196239370078741
11
1.1267814173228345
21
-2.5249966929133856
0
LINE
8
BLACK
6
CONTINUOUS
10
1.1267814173228345
20
-2.5249966929133856
11
1.1144935433070866
21
-2.531787992125984
0
LINE
8
BLACK
6
CONTINUOUS
10
1.1144935433070866
20
-2.531787992125984
11
1.1030433464566929
21
-2.5399123622047242
0
LINE
8
BLACK
6
CONTINUOUS
10
1.1030433464566929
20
-2.5399123622047242
11
1.0925747244094488
21
-2.5492676377952757
0
LINE
8
BLACK
6
CONTINUOUS
10
1.0925747244094488
20
-2.5492676377952757
11
1.0832194488188975
21
-2.5597362598425195
0
LINE
8
BLACK
6
CONTINUOUS
10
1.0832194488188975
20
-2.5597362598425195
11
1.0750950787401574
21
-2.5711864566929132
0
LINE
8
BLACK
6
CONTINUOUS
10
1.0750950787401574
20
-2.5711864566929132
11
1.0683037795275589
21
-2.5834743307086612
0
LINE
8
BLACK
6
CONTINUOUS
10
1.0683037795275589
20
-2.5834743307086612
11
1.0629310236220473
21
-2.5964453543307084
0
LINE
8
BLACK
6
CONTINUOUS
10
1.0629310236220473
20
-2.5964453543307084
11
1.0590443307086614
21
-2.6099363385826773
0
LINE
8
BLACK
6
CONTINUOUS
10
1.0590443307086614
20
-2.6099363385826773
11
1.0566925984251969
21
-2.6237776771653545
0
LINE
8
BLACK
6
CONTINUOUS
10
1.0566925984251969
20
-2.6237776771653545
11
1.0559053937007874
21
-2.6377952755905509
0
LINE
8
BLACK
6
CONTINUOUS
10
1.0559053937007874
20
-2.6377952755905509
11
1.0566925984251969
21
-2.6518128740157478
0
LINE
8
BLACK
6
CONTINUOUS
10
4.1480742125984253
20
-2.5116251181102363
11
4.1621114173228344
21
-2.5140101181102361
0
LINE
8
BLACK
6
CONTINUOUS
10
4.1621114173228344
20
-2.5140101181102361
11
4.1757933070866144
21
-2.5179518110236221
0
LINE
8
BLACK
6
CONTINUOUS
10
4.1757933070866144
20
-2.5179518110236221
11
4.1889478346456688
21
-2.5234005905511809
0
LINE
8
BLACK
6
CONTINUOUS
10
4.1889478346456688
20
-2.5234005905511809
11
4.2014095669291338
21
-2.5302879527559052
0
LINE
8
BLACK
6
CONTINUOUS
10
4.2014095669291338
20
-2.5302879527559052
11
4.2130218503937007
21
-2.5385272834645667
0
LINE
8
BLACK
6
CONTINUOUS
10
4.2130218503937007
20
-2.5385272834645667
11
4.2236385433070867
21
-2.5480149999999999
0
LINE
8
BLACK
6
CONTINUOUS
10
4.2236385433070867
20
-2.5480149999999999
11
4.2331262598425194
21
-2.5586316929133859
0
LINE
8
BLACK
6
CONTINUOUS
10
4.2331262598425194
20
-2.5586316929133859
11
4.2413655905511813
21
-2.5702439763779528
0
LINE
8
BLACK
6
CONTINUOUS
10
4.2413655905511813
20
-2.5702439763779528
11
4.2482529527559052
21
-2.5827057086614174
0
LINE
8
BLACK
6
CONTINUOUS
10
4.2482529527559052
20
-2.5827057086614174
11
4.2537017322834645
21
-2.5958602362204726
0
LINE
8
BLACK
6
CONTINUOUS
10
4.2537017322834645
20
-2.5958602362204726
11
4.25764342519685
21
-2.6095421259842517
0
LINE
8
BLACK
6
CONTINUOUS
10
4.25764342519685
20
-2.6095421259842517
11
4.2600284251968503
21
-2.6235793307086612
0
LINE
8
BLACK
6
CONTINUOUS
10
4.2600284251968503
20
-2.6235793307086612
11
4.2608267716535435
21
-2.6377952755905509
0
LINE
8
BLACK
6
CONTINUOUS
10
4.2608267716535435
20
-2.6377952755905509
11
4.2600284251968503
21
-2.6520112204724411
0
LINE
8
BLACK
6
CONTINUOUS
10
4.2600284251968503
20
-2.6520112204724411
11
4.25764342519685
21
-2.6660484251968501
0
LINE
8
BLACK
6
CONTINUOUS
10
4.25764342519685
20
-2.6660484251968501
11
4.2537017322834645
21
-2.6797303149606297
0
LINE
8
BLACK
6
CONTINUOUS
10
4.2537017322834645
20
-2.6797303149606297
11
4.2482529527559052
21
-2.692884842519685
0
LINE
8
BLACK
6
CONTINUOUS
10
4.2482529527559052
20
-2.692884842519685
11
4.2413655905511813
21
-2.7053465748031496
0
LINE
8
BLACK
6
CONTINUOUS
10
4.2413655905511813
20
-2.7053465748031496
11
4.2331262598425194
21
-2.7169588582677164
0
LINE
8
BLACK
6
CONTINUOUS
10
4.2331262598425194
20
-2.7169588582677164
11
4.2236385433070867
21
-2.7275755511811024
0
LINE
8
BLACK
6
CONTINUOUS
10
4.2236385433070867
20
-2.7275755511811024
11
4.2130218503937007
21
-2.7370632677165352
0
LINE
8
BLACK
6
CONTINUOUS
10
4.2130218503937007
20
-2.7370632677165352
11
4.2014095669291338
21
-2.7453025984251966
0
LINE
8
BLACK
6
CONTINUOUS
10
4.2014095669291338
20
-2.7453025984251966
11
4.1889478346456688
21
-2.7521899606299214
0
LINE
8
BLACK
6
CONTINUOUS
10
4.1889478346456688
20
-2.7521899606299214
11
4.1757933070866144
21
-2.7576387401574802
0
LINE
8
BLACK
6
CONTINUOUS
10
4.1757933070866144
20
-2.7576387401574802
11
4.1621114173228344
21
-2.7615804330708662
0
LINE
8
BLACK
6
CONTINUOUS
10
4.1621114173228344
20
-2.7615804330708662
11
4.1480742125984253
21
-2.7639654330708661
0
LINE
8
BLACK
6
CONTINUOUS
10
4.1480742125984253
20
-2.7639654330708661
11
4.1338582677165352
21
-2.7647637795275588
0
LINE
8
BLACK
6
CONTINUOUS
10
4.1338582677165352
20
-2.7647637795275588
11
4.1196423228346459
21
-2.7639654330708661
0
LINE
8
BLACK
6
CONTINUOUS
10
4.1196423228346459
20
-2.7639654330708661
11
4.105605118110236
21
-2.7615804330708662
0
LINE
8
BLACK
6
CONTINUOUS
10
4.105605118110236
20
-2.7615804330708662
11
4.0919232283464568
21
-2.7576387401574802
0
LINE
8
BLACK
6
CONTINUOUS
10
4.0919232283464568
20
-2.7576387401574802
11
4.0787687007874016
21
-2.7521899606299214
0
LINE
8
BLACK
6
CONTINUOUS
10
4.0787687007874016
20
-2.7521899606299214
11
4.0663069685039366
21
-2.7453025984251966
0
LINE
8
BLACK
6
CONTINUOUS
10
4.0663069685039366
20
-2.7453025984251966
11
4.0546946850393697
21
-2.7370632677165352
0
LINE
8
BLACK
6
CONTINUOUS
10
4.0546946850393697
20
-2.7370632677165352
11
4.0440779921259837
21
-2.7275755511811024
0
LINE
8
BLACK
6
CONTINUOUS
10
4.0440779921259837
20
-2.7275755511811024
11
4.0345902755905509
21
-2.7169588582677164
0
LINE
8
BLACK
6
CONTINUOUS
10
4.0345902755905509
20
-2.7169588582677164
11
4.0263509448818899
21
-2.7053465748031496
0
LINE
8
BLACK
6
CONTINUOUS
10
4.0263509448818899
20
-2.7053465748031496
11
4.0194635826771652
21
-2.692884842519685
0
LINE
8
BLACK
6
CONTINUOUS
10
4.0194635826771652
20
-2.692884842519685
11
4.0140148031496059
21
-2.6797303149606297
0
LINE
8
BLACK
6
CONTINUOUS
10
4.0140148031496059
20
-2.6797303149606297
11
4.0100731102362204
21
-2.6660484251968501
0
LINE
8
BLACK
6
CONTINUOUS
10
4.0100731102362204
20
-2.6660484251968501
11
4.0076881102362201
21
-2.6520112204724411
0
LINE
8
BLACK
6
CONTINUOUS
10
4.0076881102362201
20
-2.6520112204724411
11
4.0068897637795278
21
-2.6377952755905509
0
LINE
8
BLACK
6
CONTINUOUS
10
4.0068897637795278
20
-2.6377952755905509
11
4.0076881102362201
21
-2.6235793307086612
0
LINE
8
BLACK
6
CONTINUOUS
10
4.0076881102362201
20
-2.6235793307086612
11
4.0100731102362204
21
-2.6095421259842517
0
LINE
8
BLACK
6
CONTINUOUS
10
4.0100731102362204
20
-2.6095421259842517
11
4.0140148031496059
21
-2.5958602362204726
0
LINE
8
BLACK
6
CONTINUOUS
10
4.0140148031496059
20
-2.5958602362204726
11
4.0194635826771652
21
-2.5827057086614174
0
LINE
8
BLACK
6
CONTINUOUS
10
4.0194635826771652
20
-2.5827057086614174
11
4.0263509448818899
21
-2.5702439763779528
0
LINE
8
BLACK
6
CONTINUOUS
10
4.0263509448818899
20
-2.5702439763779528
11
4.0345902755905509
21
-2.5586316929133859
0
LINE
8
BLACK
6
CONTINUOUS
10
4.0345902755905509
20
-2.5586316929133859
11
4.0440779921259837
21
-2.5480149999999999
0
LINE
8
BLACK
6
CONTINUOUS
10
4.0440779921259837
20
-2.5480149999999999
11
4.0546946850393697
21
-2.5385272834645667
0
LINE
8
BLACK
6
CONTINUOUS
10
4.0546946850393697
20
-2.5385272834645667
11
4.0663069685039366
21
-2.5302879527559052
0
LINE
8
BLACK
6
CONTINUOUS
10
4.0663069685039366
20
-2.5302879527559052
11
4.0787687007874016
21
-2.5234005905511809
0
LINE
8
BLACK
6
CONTINUOUS
10
4.0787687007874016
20
-2.5234005905511809
11
4.0919232283464568
21
-2.5179518110236221
0
LINE
8
BLACK
6
CONTINUOUS
10
4.0919232283464568
20
-2.5179518110236221
11
4.105605118110236
21
-2.5140101181102361
0
LINE
8
BLACK
6
CONTINUOUS
10
4.105605118110236
20
-2.5140101181102361
11
4.1196423228346459
21
-2.5116251181102363
0
LINE
8
BLACK
6
CONTINUOUS
10
4.1196423228346459
20
-2.5116251181102363
11
4.1338582677165352
21
-2.5108267716535431
0
LINE
8
BLACK
6
CONTINUOUS
10
4.1338582677165352
20
-2.5108267716535431
11
4.1480742125984253
21
-2.5116251181102363
0
LINE
8
BLACK
6
CONTINUOUS
10
4.0094485039370076
20
-2.6518128740157478
11
4.0118002362204725
21
-2.6656542125984251
0
LINE
8
BLACK
6
CONTINUOUS
10
4.0118002362204725
20
-2.6656542125984251
11
4.0156869291338584
21
-2.6791451968503934
0
LINE
8
BLACK
6
CONTINUOUS
10
4.0156869291338584
20
-2.6791451968503934
11
4.0210596850393703
21
-2.6921162204724407
0
LINE
8
BLACK
6
CONTINUOUS
10
4.0210596850393703
20
-2.6921162204724407
11
4.0278509842519687
21
-2.7044040944881891
0
LINE
8
BLACK
6
CONTINUOUS
10
4.0278509842519687
20
-2.7044040944881891
11
4.0359753543307084
21
-2.7158542913385828
0
LINE
8
BLACK
6
CONTINUOUS
10
4.0359753543307084
20
-2.7158542913385828
11
4.0453306299212599
21
-2.7263229133858267
0
LINE
8
BLACK
6
CONTINUOUS
10
4.0453306299212599
20
-2.7263229133858267
11
4.0557992519685042
21
-2.7356781889763777
0
LINE
8
BLACK
6
CONTINUOUS
10
4.0557992519685042
20
-2.7356781889763777
11
4.0672494488188979
21
-2.7438025590551178
0
LINE
8
BLACK
6
CONTINUOUS
10
4.0672494488188979
20
-2.7438025590551178
11
4.0795373228346454
21
-2.7505938582677163
0
LINE
8
BLACK
6
CONTINUOUS
10
4.0795373228346454
20
-2.7505938582677163
11
4.0925083464566931
21
-2.7559666141732282
0
LINE
8
BLACK
6
CONTINUOUS
10
4.0925083464566931
20
-2.7559666141732282
11
4.1059993307086611
21
-2.759853307086614
0
LINE
8
BLACK
6
CONTINUOUS
10
4.1059993307086611
20
-2.759853307086614
11
4.1198406692913387
21
-2.7622050393700786
0
LINE
8
BLACK
6
CONTINUOUS
10
4.1198406692913387
20
-2.7622050393700786
11
4.1338582677165352
21
-2.7629922440944883
0
LINE
8
BLACK
6
CONTINUOUS
10
4.1338582677165352
20
-2.7629922440944883
11
4.1478758661417325
21
-2.7622050393700786
0
LINE
8
BLACK
6
CONTINUOUS
10
4.1478758661417325
20
-2.7622050393700786
11
4.1617172047244093
21
-2.759853307086614
0
LINE
8
BLACK
6
CONTINUOUS
10
4.1617172047244093
20
-2.759853307086614
11
4.1752081889763781
21
-2.7559666141732282
0
LINE
8
BLACK
6
CONTINUOUS
10
4.1752081889763781
20
-2.7559666141732282
11
4.188179212598425
21
-2.7505938582677163
0
LINE
8
BLACK
6
CONTINUOUS
10
4.188179212598425
20
-2.7505938582677163
11
4.2004670866141733
21
-2.7438025590551178
0
LINE
8
BLACK
6
CONTINUOUS
10
4.2004670866141733
20
-2.7438025590551178
11
4.2119172834645671
21
-2.7356781889763777
0
LINE
8
BLACK
6
CONTINUOUS
10
4.2119172834645671
20
-2.7356781889763777
11
4.2223859055118114
21
-2.7263229133858267
0
LINE
8
BLACK
6
CONTINUOUS
10
4.2223859055118114
20
-2.7263229133858267
11
4.231741181102362
21
-2.7158542913385828
0
LINE
8
BLACK
6
CONTINUOUS
10
4.231741181102362
20
-2.7158542913385828
11
4.2398655511811025
21
-2.7044040944881891
0
LINE
8
BLACK
6
CONTINUOUS
10
4.2398655511811025
20
-2.7044040944881891
11
4.246656850393701
21
-2.6921162204724407
0
LINE
8
BLACK
6
CONTINUOUS
10
4.246656850393701
20
-2.6921162204724407
11
4.2520296062992129
21
-2.6791451968503934
0
LINE
8
BLACK
6
CONTINUOUS
10
4.2520296062992129
20
-2.6791451968503934
11
4.2559162992125987
21
-2.6656542125984251
0
LINE
8
BLACK
6
CONTINUOUS
10
4.2559162992125987
20
-2.6656542125984251
11
4.2582680314960628
21
-2.6518128740157478
0
LINE
8
BLACK
6
CONTINUOUS
10
4.2582680314960628
20
-2.6518128740157478
11
4.2590552362204726
21
-2.6377952755905509
0
LINE
8
BLACK
6
CONTINUOUS
10
4.2590552362204726
20
-2.6377952755905509
11
4.2582680314960628
21
-2.6237776771653545
0
LINE
8
BLACK
6
CONTINUOUS
10
4.2582680314960628
20
-2.6237776771653545
11
4.2559162992125987
21
-2.6099363385826773
0
LINE
8
BLACK
6
CONTINUOUS
10
4.2559162992125987
20
-2.6099363385826773
11
4.2520296062992129
21
-2.5964453543307084
0
LINE
8
BLACK
6
CONTINUOUS
10
4.2520296062992129
20
-2.5964453543307084
11
4.246656850393701
21
-2.5834743307086612
0
LINE
8
BLACK
6
CONTINUOUS
10
4.246656850393701
20
-2.5834743307086612
11
4.2398655511811025
21
-2.5711864566929132
0
LINE
8
BLACK
6
CONTINUOUS
10
4.2398655511811025
20
-2.5711864566929132
11
4.231741181102362
21
-2.5597362598425195
0
LINE
8
BLACK
6
CONTINUOUS
10
4.231741181102362
20
-2.5597362598425195
11
4.2223859055118114
21
-2.5492676377952757
0
LINE
8
BLACK
6
CONTINUOUS
10
4.2223859055118114
20
-2.5492676377952757
11
4.2119172834645671
21
-2.5399123622047242
0
LINE
8
BLACK
6
CONTINUOUS
10
4.2119172834645671
20
-2.5399123622047242
11
4.2004670866141733
21
-2.531787992125984
0
LINE
8
BLACK
6
CONTINUOUS
10
4.2004670866141733
20
-2.531787992125984
11
4.188179212598425
21
-2.5249966929133856
0
LINE
8
BLACK
6
CONTINUOUS
10
4.188179212598425
20
-2.5249966929133856
11
4.1752081889763781
21
-2.5196239370078741
0
LINE
8
BLACK
6
CONTINUOUS
10
4.1752081889763781
20
-2.5196239370078741
11
4.1617172047244093
21
-2.5157372440944883
0
LINE
8
BLACK
6
CONTINUOUS
10
4.1617172047244093
20
-2.5157372440944883
11
4.1478758661417325
21
-2.5133855118110238
0
LINE
8
BLACK
6
CONTINUOUS
10
4.1478758661417325
20
-2.5133855118110238
11
4.1338582677165352
21
-2.512598307086614
0
LINE
8
BLACK
6
CONTINUOUS
10
4.1338582677165352
20
-2.512598307086614
11
4.1198406692913387
21
-2.5133855118110238
0
LINE
8
BLACK
6
CONTINUOUS
10
4.1198406692913387
20
-2.5133855118110238
11
4.1059993307086611
21
-2.5157372440944883
0
LINE
8
BLACK
6
CONTINUOUS
10
4.1059993307086611
20
-2.5157372440944883
11
4.0925083464566931
21
-2.5196239370078741
0
LINE
8
BLACK
6
CONTINUOUS
10
4.0925083464566931
20
-2.5196239370078741
11
4.0795373228346454
21
-2.5249966929133856
0
LINE
8
BLACK
6
CONTINUOUS
10
4.0795373228346454
20
-2.5249966929133856
11
4.0672494488188979
21
-2.531787992125984
0
LINE
8
BLACK
6
CONTINUOUS
10
4.0672494488188979
20
-2.531787992125984
11
4.0557992519685042
21
-2.5399123622047242
0
LINE
8
BLACK
6
CONTINUOUS
10
4.0557992519685042
20
-2.5399123622047242
11
4.0453306299212599
21
-2.5492676377952757
0
LINE
8
BLACK
6
CONTINUOUS
10
4.0453306299212599
20
-2.5492676377952757
11
4.0359753543307084
21
-2.5597362598425195
0
LINE
8
BLACK
6
CONTINUOUS
10
4.0359753543307084
20
-2.5597362598425195
11
4.0278509842519687
21
-2.5711864566929132
0
LINE
8
BLACK
6
CONTINUOUS
10
4.0278509842519687
20
-2.5711864566929132
11
4.0210596850393703
21
-2.5834743307086612
0
LINE
8
BLACK
6
CONTINUOUS
10
4.0210596850393703
20
-2.5834743307086612
11
4.0156869291338584
21
-2.5964453543307084
0
LINE
8
BLACK
6
CONTINUOUS
10
4.0156869291338584
20
-2.5964453543307084
11
4.0118002362204725
21
-2.6099363385826773
0
LINE
8
BLACK
6
CONTINUOUS
10
4.0118002362204725
20
-2.6099363385826773
11
4.0094485039370076
21
-2.6237776771653545
0
LINE
8
BLACK
6
CONTINUOUS
10
4.0094485039370076
20
-2.6237776771653545
11
4.0086612992125987
21
-2.6377952755905509
0
LINE
8
BLACK
6
CONTINUOUS
10
4.0086612992125987
20
-2.6377952755905509
11
4.0094485039370076
21
-2.6518128740157478
0
LINE
8
BLACK
6
CONTINUOUS
10
7.1008301181102365
20
-2.5116251181102363
11
7.1148673228346455
21
-2.5140101181102361
0
LINE
8
BLACK
6
CONTINUOUS
10
7.1148673228346455
20
-2.5140101181102361
11
7.1285492125984247
21
-2.5179518110236221
0
LINE
8
BLACK
6
CONTINUOUS
10
7.1285492125984247
20
-2.5179518110236221
11
7.1417037401574799
21
-2.5234005905511809
0
LINE
8
BLACK
6
CONTINUOUS
10
7.1417037401574799
20
-2.5234005905511809
11
7.1541654724409449
21
-2.5302879527559052
0
LINE
8
BLACK
6
CONTINUOUS
10
7.1541654724409449
20
-2.5302879527559052
11
7.1657777559055118
21
-2.5385272834645667
0
LINE
8
BLACK
6
CONTINUOUS
10
7.1657777559055118
20
-2.5385272834645667
11
7.1763944488188978
21
-2.5480149999999999
0
LINE
8
BLACK
6
CONTINUOUS
10
7.1763944488188978
20
-2.5480149999999999
11
7.1858821653543306
21
-2.5586316929133859
0
LINE
8
BLACK
6
CONTINUOUS
10
7.1858821653543306
20
-2.5586316929133859
11
7.1941214960629916
21
-2.5702439763779528
0
LINE
8
BLACK
6
CONTINUOUS
10
7.1941214960629916
20
-2.5702439763779528
11
7.2010088582677163
21
-2.5827057086614174
0
LINE
8
BLACK
6
CONTINUOUS
10
7.2010088582677163
20
-2.5827057086614174
11
7.2064576377952756
21
-2.5958602362204726
0
LINE
8
BLACK
6
CONTINUOUS
10
7.2064576377952756
20
-2.5958602362204726
11
7.2103993307086611
21
-2.6095421259842517
0
LINE
8
BLACK
6
CONTINUOUS
10
7.2103993307086611
20
-2.6095421259842517
11
7.2127843307086614
21
-2.6235793307086612
0
LINE
8
BLACK
6
CONTINUOUS
10
7.2127843307086614
20
-2.6235793307086612
11
7.2135826771653537
21
-2.6377952755905509
0
LINE
8
BLACK
6
CONTINUOUS
10
7.2135826771653537
20
-2.6377952755905509
11
7.2127843307086614
21
-2.6520112204724411
0
LINE
8
BLACK
6
CONTINUOUS
10
7.2127843307086614
20
-2.6520112204724411
11
7.2103993307086611
21
-2.6660484251968501
0
LINE
8
BLACK
6
CONTINUOUS
10
7.2103993307086611
20
-2.6660484251968501
11
7.2064576377952756
21
-2.6797303149606297
0
LINE
8
BLACK
6
CONTINUOUS
10
7.2064576377952756
20
-2.6797303149606297
11
7.2010088582677163
21
-2.692884842519685
0
LINE
8
BLACK
6
CONTINUOUS
10
7.2010088582677163
20
-2.692884842519685
11
7.1941214960629916
21
-2.7053465748031496
0
LINE
8
BLACK
6
CONTINUOUS
10
7.1941214960629916
20
-2.7053465748031496
11
7.1858821653543306
21
-2.7169588582677164
0
LINE
8
BLACK
6
CONTINUOUS
10
7.1858821653543306
20
-2.7169588582677164
11
7.1763944488188978
21
-2.7275755511811024
0
LINE
8
BLACK
6
CONTINUOUS
10
7.1763944488188978
20
-2.7275755511811024
11
7.1657777559055118
21
-2.7370632677165352
0
LINE
8
BLACK
6
CONTINUOUS
10
7.1657777559055118
20
-2.7370632677165352
11
7.1541654724409449
21
-2.7453025984251966
0
LINE
8
BLACK
6
CONTINUOUS
10
7.1541654724409449
20
-2.7453025984251966
11
7.1417037401574799
21
-2.7521899606299214
0
LINE
8
BLACK
6
CONTINUOUS
10
7.1417037401574799
20
-2.7521899606299214
11
7.1285492125984247
21
-2.7576387401574802
0
LINE
8
BLACK
6
CONTINUOUS
10
7.1285492125984247
20
-2.7576387401574802
11
7.1148673228346455
21
-2.7615804330708662
0
LINE
8
BLACK
6
CONTINUOUS
10
7.1148673228346455
20
-2.7615804330708662
11
7.1008301181102365
21
-2.7639654330708661
0
LINE
8
BLACK
6
CONTINUOUS
10
7.1008301181102365
20
-2.7639654330708661
11
7.0866141732283463
21
-2.7647637795275588
0
LINE
8
BLACK
6
CONTINUOUS
10
7.0866141732283463
20
-2.7647637795275588
11
7.0723982283464562
21
-2.7639654330708661
0
LINE
8
BLACK
6
CONTINUOUS
10
7.0723982283464562
20
-2.7639654330708661
11
7.0583610236220471
21
-2.7615804330708662
0
LINE
8
BLACK
6
CONTINUOUS
10
7.0583610236220471
20
-2.7615804330708662
11
7.0446791338582679
21
-2.7576387401574802
0
LINE
8
BLACK
6
CONTINUOUS
10
7.0446791338582679
20
-2.7576387401574802
11
7.0315246062992127
21
-2.7521899606299214
0
LINE
8
BLACK
6
CONTINUOUS
10
7.0315246062992127
20
-2.7521899606299214
11
7.0190628740157477
21
-2.7453025984251966
0
LINE
8
BLACK
6
CONTINUOUS
10
7.0190628740157477
20
-2.7453025984251966
11
7.0074505905511808
21
-2.7370632677165352
0
LINE
8
BLACK
6
CONTINUOUS
10
7.0074505905511808
20
-2.7370632677165352
11
6.9968338976377948
21
-2.7275755511811024
0
LINE
8
BLACK
6
CONTINUOUS
10
6.9968338976377948
20
-2.7275755511811024
11
6.9873461811023621
21
-2.7169588582677164
0
LINE
8
BLACK
6
CONTINUOUS
10
6.9873461811023621
20
-2.7169588582677164
11
6.979106850393701
21
-2.7053465748031496
0
LINE
8
BLACK
6
CONTINUOUS
10
6.979106850393701
20
-2.7053465748031496
11
6.9722194881889763
21
-2.692884842519685
0
LINE
8
BLACK
6
CONTINUOUS
10
6.9722194881889763
20
-2.692884842519685
11
6.966770708661417
21
-2.6797303149606297
0
LINE
8
BLACK
6
CONTINUOUS
10
6.966770708661417
20
-2.6797303149606297
11
6.9628290157480315
21
-2.6660484251968501
0
LINE
8
BLACK
6
CONTINUOUS
10
6.9628290157480315
20
-2.6660484251968501
11
6.9604440157480312
21
-2.6520112204724411
0
LINE
8
BLACK
6
CONTINUOUS
10
6.9604440157480312
20
-2.6520112204724411
11
6.959645669291338
21
-2.6377952755905509
0
LINE
8
BLACK
6
CONTINUOUS
10
6.959645669291338
20
-2.6377952755905509
11
6.9604440157480312
21
-2.6235793307086612
0
LINE
8
BLACK
6
CONTINUOUS
10
6.9604440157480312
20
-2.6235793307086612
11
6.9628290157480315
21
-2.6095421259842517
0
LINE
8
BLACK
6
CONTINUOUS
10
6.9628290157480315
20
-2.6095421259842517
11
6.966770708661417
21
-2.5958602362204726
0
LINE
8
BLACK
6
CONTINUOUS
10
6.966770708661417
20
-2.5958602362204726
11
6.9722194881889763
21
-2.5827057086614174
0
LINE
8
BLACK
6
CONTINUOUS
10
6.9722194881889763
20
-2.5827057086614174
11
6.979106850393701
21
-2.5702439763779528
0
LINE
8
BLACK
6
CONTINUOUS
10
6.979106850393701
20
-2.5702439763779528
11
6.9873461811023621
21
-2.5586316929133859
0
LINE
8
BLACK
6
CONTINUOUS
10
6.9873461811023621
20
-2.5586316929133859
11
6.9968338976377948
21
-2.5480149999999999
0
LINE
8
BLACK
6
CONTINUOUS
10
6.9968338976377948
20
-2.5480149999999999
11
7.0074505905511808
21
-2.5385272834645667
0
LINE
8
BLACK
6
CONTINUOUS
10
7.0074505905511808
20
-2.5385272834645667
11
7.0190628740157477
21
-2.5302879527559052
0
LINE
8
BLACK
6
CONTINUOUS
10
7.0190628740157477
20
-2.5302879527559052
11
7.0315246062992127
21
-2.5234005905511809
0
LINE
8
BLACK
6
CONTINUOUS
10
7.0315246062992127
20
-2.5234005905511809
11
7.0446791338582679
21
-2.5179518110236221
0
LINE
8
BLACK
6
CONTINUOUS
10
7.0446791338582679
20
-2.5179518110236221
11
7.0583610236220471
21
-2.5140101181102361
0
LINE
8
BLACK
6
CONTINUOUS
10
7.0583610236220471
20
-2.5140101181102361
11
7.0723982283464562
21
-2.5116251181102363
0
LINE
8
BLACK
6
CONTINUOUS
10
7.0723982283464562
20
-2.5116251181102363
11
7.0866141732283463
21
-2.5108267716535431
0
LINE
8
BLACK
6
CONTINUOUS
10
7.0866141732283463
20
-2.5108267716535431
11
7.1008301181102365
21
-2.5116251181102363
0
LINE
8
BLACK
6
CONTINUOUS
10
6.9622044094488187
20
-2.6518128740157478
11
6.9645561417322837
21
-2.6656542125984251
0
LINE
8
BLACK
6
CONTINUOUS
10
6.9645561417322837
20
-2.6656542125984251
11
6.9684428346456695
21
-2.6791451968503934
0
LINE
8
BLACK
6
CONTINUOUS
10
6.9684428346456695
20
-2.6791451968503934
11
6.9738155905511814
21
-2.6921162204724407
0
LINE
8
BLACK
6
CONTINUOUS
10
6.9738155905511814
20
-2.6921162204724407
11
6.980606889763779
21
-2.7044040944881891
0
LINE
8
BLACK
6
CONTINUOUS
10
6.980606889763779
20
-2.7044040944881891
11
6.9887312598425195
21
-2.7158542913385828
0
LINE
8
BLACK
6
CONTINUOUS
10
6.9887312598425195
20
-2.7158542913385828
11
6.998086535433071
21
-2.7263229133858267
0
LINE
8
BLACK
6
CONTINUOUS
10
6.998086535433071
20
-2.7263229133858267
11
7.0085551574803144
21
-2.7356781889763777
0
LINE
8
BLACK
6
CONTINUOUS
10
7.0085551574803144
20
-2.7356781889763777
11
7.0200053543307082
21
-2.7438025590551178
0
LINE
8
BLACK
6
CONTINUOUS
10
7.0200053543307082
20
-2.7438025590551178
11
7.0322932283464565
21
-2.7505938582677163
0
LINE
8
BLACK
6
CONTINUOUS
10
7.0322932283464565
20
-2.7505938582677163
11
7.0452642519685034
21
-2.7559666141732282
0
LINE
8
BLACK
6
CONTINUOUS
10
7.0452642519685034
20
-2.7559666141732282
11
7.0587552362204722
21
-2.759853307086614
0
LINE
8
BLACK
6
CONTINUOUS
10
7.0587552362204722
20
-2.759853307086614
11
7.0725965748031498
21
-2.7622050393700786
0
LINE
8
BLACK
6
CONTINUOUS
10
7.0725965748031498
20
-2.7622050393700786
11
7.0866141732283463
21
-2.7629922440944883
0
LINE
8
BLACK
6
CONTINUOUS
10
7.0866141732283463
20
-2.7629922440944883
11
7.1006317716535428
21
-2.7622050393700786
0
LINE
8
BLACK
6
CONTINUOUS
10
7.1006317716535428
20
-2.7622050393700786
11
7.1144731102362204
21
-2.759853307086614
0
LINE
8
BLACK
6
CONTINUOUS
10
7.1144731102362204
20
-2.759853307086614
11
7.1279640944881892
21
-2.7559666141732282
0
LINE
8
BLACK
6
CONTINUOUS
10
7.1279640944881892
20
-2.7559666141732282
11
7.1409351181102361
21
-2.7505938582677163
0
LINE
8
BLACK
6
CONTINUOUS
10
7.1409351181102361
20
-2.7505938582677163
11
7.1532229921259844
21
-2.7438025590551178
0
LINE
8
BLACK
6
CONTINUOUS
10
7.1532229921259844
20
-2.7438025590551178
11
7.1646731889763782
21
-2.7356781889763777
0
LINE
8
BLACK
6
CONTINUOUS
10
7.1646731889763782
20
-2.7356781889763777
11
7.1751418110236216
21
-2.7263229133858267
0
LINE
8
BLACK
6
CONTINUOUS
10
7.1751418110236216
20
-2.7263229133858267
11
7.1844970866141731
21
-2.7158542913385828
0
LINE
8
BLACK
6
CONTINUOUS
10
7.1844970866141731
20
-2.7158542913385828
11
7.1926214566929136
21
-2.7044040944881891
0
LINE
8
BLACK
6
CONTINUOUS
10
7.1926214566929136
20
-2.7044040944881891
11
7.1994127559055112
21
-2.6921162204724407
0
LINE
8
BLACK
6
CONTINUOUS
10
7.1994127559055112
20
-2.6921162204724407
11
7.2047855118110231
21
-2.6791451968503934
0
LINE
8
BLACK
6
CONTINUOUS
10
7.2047855118110231
20
-2.6791451968503934
11
7.2086722047244089
21
-2.6656542125984251
0
LINE
8
BLACK
6
CONTINUOUS
10
7.2086722047244089
20
-2.6656542125984251
11
7.2110239370078739
21
-2.6518128740157478
0
LINE
8
BLACK
6
CONTINUOUS
10
7.2110239370078739
20
-2.6518128740157478
11
7.2118111417322837
21
-2.6377952755905509
0
LINE
8
BLACK
6
CONTINUOUS
10
7.2118111417322837
20
-2.6377952755905509
11
7.2110239370078739
21
-2.6237776771653545
0
LINE
8
BLACK
6
CONTINUOUS
10
7.2110239370078739
20
-2.6237776771653545
11
7.2086722047244089
21
-2.6099363385826773
0
LINE
8
BLACK
6
CONTINUOUS
10
7.2086722047244089
20
-2.6099363385826773
11
7.2047855118110231
21
-2.5964453543307084
0
LINE
8
BLACK
6
CONTINUOUS
10
7.2047855118110231
20
-2.5964453543307084
11
7.1994127559055112
21
-2.5834743307086612
0
LINE
8
BLACK
6
CONTINUOUS
10
7.1994127559055112
20
-2.5834743307086612
11
7.1926214566929136
21
-2.5711864566929132
0
LINE
8
BLACK
6
CONTINUOUS
10
7.1926214566929136
20
-2.5711864566929132
11
7.1844970866141731
21
-2.5597362598425195
0
LINE
8
BLACK
6
CONTINUOUS
10
7.1844970866141731
20
-2.5597362598425195
11
7.1751418110236216
21
-2.5492676377952757
0
LINE
8
BLACK
6
CONTINUOUS
10
7.1751418110236216
20
-2.5492676377952757
11
7.1646731889763782
21
-2.5399123622047242
0
LINE
8
BLACK
6
CONTINUOUS
10
7.1646731889763782
20
-2.5399123622047242
11
7.1532229921259844
21
-2.531787992125984
0
LINE
8
BLACK
6
CONTINUOUS
10
7.1532229921259844
20
-2.531787992125984
11
7.1409351181102361
21
-2.5249966929133856
0
LINE
8
BLACK
6
CONTINUOUS
10
7.1409351181102361
20
-2.5249966929133856
11
7.1279640944881892
21
-2.5196239370078741
0
LINE
8
BLACK
6
CONTINUOUS
10
7.1279640944881892
20
-2.5196239370078741
11
7.1144731102362204
21
-2.5157372440944883
0
LINE
8
BLACK
6
CONTINUOUS
10
7.1144731102362204
20
-2.5157372440944883
11
7.1006317716535428
21
-2.5133855118110238
0
LINE
8
BLACK
6
CONTINUOUS
10
7.1006317716535428
20
-2.5133855118110238
11
7.0866141732283463
21
-2.512598307086614
0
LINE
8
BLACK
6
CONTINUOUS
10
7.0866141732283463
20
-2.512598307086614
11
7.0725965748031498
21
-2.5133855118110238
0
LINE
8
BLACK
6
CONTINUOUS
10
7.0725965748031498
20
-2.5133855118110238
11
7.0587552362204722
21
-2.5157372440944883
0
LINE
8
BLACK
6
CONTINUOUS
10
7.0587552362204722
20
-2.5157372440944883
11
7.0452642519685034
21
-2.5196239370078741
0
LINE
8
BLACK
6
CONTINUOUS
10
7.0452642519685034
20
-2.5196239370078741
11
7.0322932283464565
21
-2.5249966929133856
0
LINE
8
BLACK
6
CONTINUOUS
10
7.0322932283464565
20
-2.5249966929133856
11
7.0200053543307082
21
-2.531787992125984
0
LINE
8
BLACK
6
CONTINUOUS
10
7.0200053543307082
20
-2.531787992125984
11
7.0085551574803144
21
-2.5399123622047242
0
LINE
8
BLACK
6
CONTINUOUS
10
7.0085551574803144
20
-2.5399123622047242
11
6.998086535433071
21
-2.5492676377952757
0
LINE
8
BLACK
6
CONTINUOUS
10
6.998086535433071
20
-2.5492676377952757
11
6.9887312598425195
21
-2.5597362598425195
0
LINE
8
BLACK
6
CONTINUOUS
10
6.9887312598425195
20
-2.5597362598425195
11
6.980606889763779
21
-2.5711864566929132
0
LINE
8
BLACK
6
CONTINUOUS
10
6.980606889763779
20
-2.5711864566929132
11
6.9738155905511814
21
-2.5834743307086612
0
LINE
8
BLACK
6
CONTINUOUS
10
6.9738155905511814
20
-2.5834743307086612
11
6.9684428346456695
21
-2.5964453543307084
0
LINE
8
BLACK
6
CONTINUOUS
10
6.9684428346456695
20
-2.5964453543307084
11
6.9645561417322837
21
-2.6099363385826773
0
LINE
8
BLACK
6
CONTINUOUS
10
6.9645561417322837
20
-2.6099363385826773
11
6.9622044094488187
21
-2.6237776771653545
0
LINE
8
BLACK
6
CONTINUOUS
10
6.9622044094488187
20
-2.6237776771653545
11
6.9614172047244089
21
-2.6377952755905509
0
LINE
8
BLACK
6
CONTINUOUS
10
6.9614172047244089
20
-2.6377952755905509
11
6.9622044094488187
21
-2.6518128740157478
0
LINE
8
BLACK
6
CONTINUOUS
10
3.1263779527559055
20
-0.7938976377952756
11
3.1270739370078737
21
-0.794185905511811
0
LINE
8
BLACK
6
CONTINUOUS
10
3.1270739370078737
20
-0.794185905511811
11
3.1273622047244092
21
-0.7948818897637795
0
LINE
8
BLACK
6
CONTINUOUS
10
3.1273622047244092
20
-0.7948818897637795
11
3.1273622047244092
21
-1.0114173228346457
0
LINE
8
BLACK
6
CONTINUOUS
10
3.1273622047244092
20
-1.0114173228346457
11
3.1270739370078737
21
-1.0121133070866142
0
LINE
8
BLACK
6
CONTINUOUS
10
3.1270739370078737
20
-1.0121133070866142
11
3.1263779527559055
21
-1.0124015748031496
0
LINE
8
BLACK
6
CONTINUOUS
10
3.1263779527559055
20
-1.0124015748031496
11
2.7759842519685041
21
-1.0124015748031496
0
LINE
8
BLACK
6
CONTINUOUS
10
2.7759842519685041
20
-1.0124015748031496
11
2.7756074409448819
21
-1.0122454724409449
0
LINE
8
BLACK
6
CONTINUOUS
10
2.7756074409448819
20
-1.0122454724409449
11
2.7754991338582675
21
-1.0125070078740157
0
LINE
8
BLACK
6
CONTINUOUS
10
2.7754991338582675
20
-1.0125070078740157
11
2.7748031496062993
21
-1.0127952755905512
0
LINE
8
BLACK
6
CONTINUOUS
10
2.7748031496062993
20
-1.0127952755905512
11
2.4244094488188974
21
-1.0127952755905512
0
LINE
8
BLACK
6
CONTINUOUS
10
2.4244094488188974
20
-1.0127952755905512
11
2.4237134645669292
21
-1.0125070078740157
0
LINE
8
BLACK
6
CONTINUOUS
10
2.4237134645669292
20
-1.0125070078740157
11
2.4234251968503937
21
-1.0118110236220472
0
LINE
8
BLACK
6
CONTINUOUS
10
2.4234251968503937
20
-1.0118110236220472
11
2.4234251968503937
21
-0.7952755905511811
0
LINE
8
BLACK
6
CONTINUOUS
10
2.4234251968503937
20
-0.7952755905511811
11
2.4237134645669292
21
-0.7945796062992125
0
LINE
8
BLACK
6
CONTINUOUS
10
2.4237134645669292
20
-0.7945796062992125
11
2.4244094488188974
21
-0.7942913385826772
0
LINE
8
BLACK
6
CONTINUOUS
10
2.4244094488188974
20
-0.7942913385826772
11
2.7748031496062993
21
-0.7942913385826772
0
LINE
8
BLACK
6
CONTINUOUS
10
2.7748031496062993
20
-0.7942913385826772
11
2.7751799212598423
21
-0.7944474015748031
0
LINE
8
BLACK
6
CONTINUOUS
10
2.7751799212598423
20
-0.7944474015748031
11
2.7752882677165354
21
-0.794185905511811
0
LINE
8
BLACK
6
CONTINUOUS
10
2.7752882677165354
20
-0.794185905511811
11
2.7759842519685041
21
-0.7938976377952756
0
LINE
8
BLACK
6
CONTINUOUS
10
2.7759842519685041
20
-0.7938976377952756
11
3.1263779527559055
21
-0.7938976377952756
0
LINE
8
BLACK
6
CONTINUOUS
10
2.4253937007874016
20
-0.7962598425196851
11
2.4253937007874016
21
-1.0108267716535433
0
LINE
8
BLACK
6
CONTINUOUS
10
2.4253937007874016
20
-1.0108267716535433
11
2.7738188976377951
21
-1.0108267716535433
0
LINE
8
BLACK
6
CONTINUOUS
10
2.7738188976377951
20
-1.0108267716535433
11
2.7738188976377951
21
-0.7962598425196851
0
LINE
8
BLACK
6
CONTINUOUS
10
2.7738188976377951
20
-0.7962598425196851
11
2.4253937007874016
21
-0.7962598425196851
0
LINE
8
BLACK
6
CONTINUOUS
10
2.7769685039370078
20
-0.7958661417322834
11
2.7769685039370078
21
-1.0104330708661418
0
LINE
8
BLACK
6
CONTINUOUS
10
2.7769685039370078
20
-1.0104330708661418
11
3.1253937007874013
21
-1.0104330708661418
0
LINE
8
BLACK
6
CONTINUOUS
10
3.1253937007874013
20
-1.0104330708661418
11
3.1253937007874013
21
-0.7958661417322834
0
LINE
8
BLACK
6
CONTINUOUS
10
3.1253937007874013
20
-0.7958661417322834
11
2.7769685039370078
21
-0.7958661417322834
  0
ENDSEC
  0
EOF
