  0
SECTION
  2
HEADER
  9
$ANGBASE
  50
0.0
  9
$ANGDIR
  70
1
  9
$MEASUREMENT
  70
0
  0
ENDSEC
  0
SECTION
  2
TABLES
  0
TABLE
  2
LTYPE
  70
4
  0
LTYPE
  5
40F
  2
CONTINUOUS
  70
0
  3
Solid line
  72
65
  73
0
  40
0.0
  0
LTYPE
  5
410
  2
DASHDOT
 70
0
  3
Dash Dot ____ _ ____ _
 72
65
 73
4
 40
2.0
 49
1.25
 49
-0.25
 49
0.25
 49
-0.25
  0
LTYPE
  5
411
  2
DASHED
 70
0
  3
Dashed __ __ __ __ __
 72
65
 73
2
 40
0.75
 49
0.5
 49
-0.25
  0
LTYPE
  5
43B
  2
DOTTED
 70
0
  3
Dotted .  .  .  .
 72
65
 73
2
 40
0.2
 49
0.0
 49
-0.2
  0
ENDTAB
  0
TABLE
  2
STYLE
  70
4
  0
STYLE
  2
KICAD
  70
0
  40
0
  41
1
  42
1
  50
0
  71
0
  3
isocp.shx
  0
STYLE
  2
KICADB
  70
0
  40
0
  41
1
  42
1
  50
0
  71
0
  3
isocp.shx
  0
STYLE
  2
KICADI
  70
0
  40
0
  41
1
  42
1
  50
15
  71
0
  3
isocp.shx
  0
STYLE
  2
KICADBI
  70
0
  40
0
  41
1
  42
1
  50
15
  71
0
  3
isocp.shx
  0
ENDTAB
  0
TABLE
  2
LAYER
  70
1
  0
LAYER
  2
BLACK
  70
0
  62
7
  6
CONTINUOUS
  0
ENDTAB
  0
ENDSEC
  0
SECTION
  2
ENTITIES
0
LINE
8
BLACK
6
CONTINUOUS
10
3.61417
20
-0.785433
11
3.61557
21
-0.78601
0
LINE
8
BLACK
6
CONTINUOUS
10
3.61557
20
-0.78601
11
3.61614
21
-0.787402
0
LINE
8
BLACK
6
CONTINUOUS
10
3.61614
20
-0.787402
11
3.61614
21
-0.826772
0
LINE
8
BLACK
6
CONTINUOUS
10
3.61614
20
-0.826772
11
3.61614
21
-0.828586
0
LINE
8
BLACK
6
CONTINUOUS
10
3.61614
20
-0.828586
11
3.61708
21
-0.83209
0
LINE
8
BLACK
6
CONTINUOUS
10
3.61708
20
-0.83209
11
3.61889
21
-0.835232
0
LINE
8
BLACK
6
CONTINUOUS
10
3.61889
20
-0.835232
11
3.62146
21
-0.837798
0
LINE
8
BLACK
6
CONTINUOUS
10
3.62146
20
-0.837798
11
3.6246
21
-0.839612
0
LINE
8
BLACK
6
CONTINUOUS
10
3.6246
20
-0.839612
11
3.62811
21
-0.840551
0
LINE
8
BLACK
6
CONTINUOUS
10
3.62811
20
-0.840551
11
3.62992
21
-0.840551
0
LINE
8
BLACK
6
CONTINUOUS
10
3.62992
20
-0.840551
11
3.77165
21
-0.840551
0
LINE
8
BLACK
6
CONTINUOUS
10
3.77165
20
-0.840551
11
3.77347
21
-0.840551
0
LINE
8
BLACK
6
CONTINUOUS
10
3.77347
20
-0.840551
11
3.77697
21
-0.839612
0
LINE
8
BLACK
6
CONTINUOUS
10
3.77697
20
-0.839612
11
3.78011
21
-0.837798
0
LINE
8
BLACK
6
CONTINUOUS
10
3.78011
20
-0.837798
11
3.78268
21
-0.835232
0
LINE
8
BLACK
6
CONTINUOUS
10
3.78268
20
-0.835232
11
3.78449
21
-0.83209
0
LINE
8
BLACK
6
CONTINUOUS
10
3.78449
20
-0.83209
11
3.78543
21
-0.828586
0
LINE
8
BLACK
6
CONTINUOUS
10
3.78543
20
-0.828586
11
3.78543
21
-0.826772
0
LINE
8
BLACK
6
CONTINUOUS
10
3.78543
20
-0.826772
11
3.78543
21
-0.787402
0
LINE
8
BLACK
6
CONTINUOUS
10
3.78543
20
-0.787402
11
3.78601
21
-0.78601
0
LINE
8
BLACK
6
CONTINUOUS
10
3.78601
20
-0.78601
11
3.7874
21
-0.785433
0
LINE
8
BLACK
6
CONTINUOUS
10
3.7874
20
-0.785433
11
4.48031
21
-0.785433
0
LINE
8
BLACK
6
CONTINUOUS
10
4.48031
20
-0.785433
11
4.48171
21
-0.78601
0
LINE
8
BLACK
6
CONTINUOUS
10
4.48171
20
-0.78601
11
4.48228
21
-0.787402
0
LINE
8
BLACK
6
CONTINUOUS
10
4.48228
20
-0.787402
11
4.48228
21
-0.826772
0
LINE
8
BLACK
6
CONTINUOUS
10
4.48228
20
-0.826772
11
4.48228
21
-0.828586
0
LINE
8
BLACK
6
CONTINUOUS
10
4.48228
20
-0.828586
11
4.48322
21
-0.83209
0
LINE
8
BLACK
6
CONTINUOUS
10
4.48322
20
-0.83209
11
4.48504
21
-0.835232
0
LINE
8
BLACK
6
CONTINUOUS
10
4.48504
20
-0.835232
11
4.4876
21
-0.837798
0
LINE
8
BLACK
6
CONTINUOUS
10
4.4876
20
-0.837798
11
4.49074
21
-0.839612
0
LINE
8
BLACK
6
CONTINUOUS
10
4.49074
20
-0.839612
11
4.49425
21
-0.840551
0
LINE
8
BLACK
6
CONTINUOUS
10
4.49425
20
-0.840551
11
4.49606
21
-0.840551
0
LINE
8
BLACK
6
CONTINUOUS
10
4.49606
20
-0.840551
11
4.6378
21
-0.840551
0
LINE
8
BLACK
6
CONTINUOUS
10
4.6378
20
-0.840551
11
4.6378
21
-0.840551
0
LINE
8
BLACK
6
CONTINUOUS
10
4.6378
20
-0.840551
11
4.63961
21
-0.840551
0
LINE
8
BLACK
6
CONTINUOUS
10
4.63961
20
-0.840551
11
4.64311
21
-0.839612
0
LINE
8
BLACK
6
CONTINUOUS
10
4.64311
20
-0.839612
11
4.64626
21
-0.837798
0
LINE
8
BLACK
6
CONTINUOUS
10
4.64626
20
-0.837798
11
4.64882
21
-0.835233
0
LINE
8
BLACK
6
CONTINUOUS
10
4.64882
20
-0.835233
11
4.65064
21
-0.83209
0
LINE
8
BLACK
6
CONTINUOUS
10
4.65064
20
-0.83209
11
4.65157
21
-0.828586
0
LINE
8
BLACK
6
CONTINUOUS
10
4.65157
20
-0.828586
11
4.65157
21
-0.826772
0
LINE
8
BLACK
6
CONTINUOUS
10
4.65157
20
-0.826772
11
4.65157
21
-0.787402
0
LINE
8
BLACK
6
CONTINUOUS
10
4.65157
20
-0.787402
11
4.65215
21
-0.78601
0
LINE
8
BLACK
6
CONTINUOUS
10
4.65215
20
-0.78601
11
4.65354
21
-0.785433
0
LINE
8
BLACK
6
CONTINUOUS
10
4.65354
20
-0.785433
11
7.48031
21
-0.785433
0
LINE
8
BLACK
6
CONTINUOUS
10
7.48031
20
-0.785433
11
7.48749
21
-0.786061
0
LINE
8
BLACK
6
CONTINUOUS
10
7.48749
20
-0.786061
11
7.49445
21
-0.787926
0
LINE
8
BLACK
6
CONTINUOUS
10
7.49445
20
-0.787926
11
7.50098
21
-0.790971
0
LINE
8
BLACK
6
CONTINUOUS
10
7.50098
20
-0.790971
11
7.50689
21
-0.795104
0
LINE
8
BLACK
6
CONTINUOUS
10
7.50689
20
-0.795104
11
7.51198
21
-0.8002
0
LINE
8
BLACK
6
CONTINUOUS
10
7.51198
20
-0.8002
11
7.51612
21
-0.806102
0
LINE
8
BLACK
6
CONTINUOUS
10
7.51612
20
-0.806102
11
7.51916
21
-0.812633
0
LINE
8
BLACK
6
CONTINUOUS
10
7.51916
20
-0.812633
11
7.52103
21
-0.819593
0
LINE
8
BLACK
6
CONTINUOUS
10
7.52103
20
-0.819593
11
7.52165
21
-0.826772
0
LINE
8
BLACK
6
CONTINUOUS
10
7.52165
20
-0.826772
11
7.52165
21
-5.11811
0
LINE
8
BLACK
6
CONTINUOUS
10
7.52165
20
-5.11811
11
7.52165
21
-5.11811
0
LINE
8
BLACK
6
CONTINUOUS
10
7.52165
20
-5.11811
11
7.52103
21
-5.12529
0
LINE
8
BLACK
6
CONTINUOUS
10
7.52103
20
-5.12529
11
7.51916
21
-5.13225
0
LINE
8
BLACK
6
CONTINUOUS
10
7.51916
20
-5.13225
11
7.51612
21
-5.13878
0
LINE
8
BLACK
6
CONTINUOUS
10
7.51612
20
-5.13878
11
7.51198
21
-5.14468
0
LINE
8
BLACK
6
CONTINUOUS
10
7.51198
20
-5.14468
11
7.50689
21
-5.14978
0
LINE
8
BLACK
6
CONTINUOUS
10
7.50689
20
-5.14978
11
7.50098
21
-5.15391
0
LINE
8
BLACK
6
CONTINUOUS
10
7.50098
20
-5.15391
11
7.49445
21
-5.15696
0
LINE
8
BLACK
6
CONTINUOUS
10
7.49445
20
-5.15696
11
7.48749
21
-5.15882
0
LINE
8
BLACK
6
CONTINUOUS
10
7.48749
20
-5.15882
11
7.48031
21
-5.15945
0
LINE
8
BLACK
6
CONTINUOUS
10
7.48031
20
-5.15945
11
0.748031
21
-5.15945
0
LINE
8
BLACK
6
CONTINUOUS
10
0.748031
20
-5.15945
11
0.740853
21
-5.15882
0
LINE
8
BLACK
6
CONTINUOUS
10
0.740853
20
-5.15882
11
0.733893
21
-5.15696
0
LINE
8
BLACK
6
CONTINUOUS
10
0.733893
20
-5.15696
11
0.727362
21
-5.15391
0
LINE
8
BLACK
6
CONTINUOUS
10
0.727362
20
-5.15391
11
0.72146
21
-5.14978
0
LINE
8
BLACK
6
CONTINUOUS
10
0.72146
20
-5.14978
11
0.716364
21
-5.14468
0
LINE
8
BLACK
6
CONTINUOUS
10
0.716364
20
-5.14468
11
0.712231
21
-5.13878
0
LINE
8
BLACK
6
CONTINUOUS
10
0.712231
20
-5.13878
11
0.709186
21
-5.13225
0
LINE
8
BLACK
6
CONTINUOUS
10
0.709186
20
-5.13225
11
0.707321
21
-5.12529
0
LINE
8
BLACK
6
CONTINUOUS
10
0.707321
20
-5.12529
11
0.706693
21
-5.11811
0
LINE
8
BLACK
6
CONTINUOUS
10
0.706693
20
-5.11811
11
0.706693
21
-5.11811
0
LINE
8
BLACK
6
CONTINUOUS
10
0.706693
20
-5.11811
11
0.706693
21
-0.826772
0
LINE
8
BLACK
6
CONTINUOUS
10
0.706693
20
-0.826772
11
0.70671
21
-0.82673
0
LINE
8
BLACK
6
CONTINUOUS
10
0.70671
20
-0.82673
11
0.706695
21
-0.826676
0
LINE
8
BLACK
6
CONTINUOUS
10
0.706695
20
-0.826676
11
0.707617
21
-0.819638
0
LINE
8
BLACK
6
CONTINUOUS
10
0.707617
20
-0.819638
11
0.709675
21
-0.812844
0
LINE
8
BLACK
6
CONTINUOUS
10
0.709675
20
-0.812844
11
0.712813
21
-0.806477
0
LINE
8
BLACK
6
CONTINUOUS
10
0.712813
20
-0.806477
11
0.716946
21
-0.800706
0
LINE
8
BLACK
6
CONTINUOUS
10
0.716946
20
-0.800706
11
0.721966
21
-0.795687
0
LINE
8
BLACK
6
CONTINUOUS
10
0.721966
20
-0.795687
11
0.727737
21
-0.791553
0
LINE
8
BLACK
6
CONTINUOUS
10
0.727737
20
-0.791553
11
0.734104
21
-0.788415
0
LINE
8
BLACK
6
CONTINUOUS
10
0.734104
20
-0.788415
11
0.740898
21
-0.786358
0
LINE
8
BLACK
6
CONTINUOUS
10
0.740898
20
-0.786358
11
0.747936
21
-0.785435
0
LINE
8
BLACK
6
CONTINUOUS
10
0.747936
20
-0.785435
11
0.74799
21
-0.78545
0
LINE
8
BLACK
6
CONTINUOUS
10
0.74799
20
-0.78545
11
0.748031
21
-0.785433
0
LINE
8
BLACK
6
CONTINUOUS
10
0.748031
20
-0.785433
11
3.61417
21
-0.785433
0
LINE
8
BLACK
6
CONTINUOUS
10
0.748079
20
-0.78937
11
0.744486
21
-0.789543
0
LINE
8
BLACK
6
CONTINUOUS
10
0.744486
20
-0.789543
11
0.737392
21
-0.791224
0
LINE
8
BLACK
6
CONTINUOUS
10
0.737392
20
-0.791224
11
0.730726
21
-0.794176
0
LINE
8
BLACK
6
CONTINUOUS
10
0.730726
20
-0.794176
11
0.724714
21
-0.798299
0
LINE
8
BLACK
6
CONTINUOUS
10
0.724714
20
-0.798299
11
0.719559
21
-0.803454
0
LINE
8
BLACK
6
CONTINUOUS
10
0.719559
20
-0.803454
11
0.715436
21
-0.809466
0
LINE
8
BLACK
6
CONTINUOUS
10
0.715436
20
-0.809466
11
0.712484
21
-0.816132
0
LINE
8
BLACK
6
CONTINUOUS
10
0.712484
20
-0.816132
11
0.710803
21
-0.823226
0
LINE
8
BLACK
6
CONTINUOUS
10
0.710803
20
-0.823226
11
0.71063
21
-0.826819
0
LINE
8
BLACK
6
CONTINUOUS
10
0.71063
20
-0.826819
11
0.71063
21
-5.11811
0
LINE
8
BLACK
6
CONTINUOUS
10
0.71063
20
-5.11811
11
0.71063
21
-5.12138
0
LINE
8
BLACK
6
CONTINUOUS
10
0.71063
20
-5.12138
11
0.711766
21
-5.12783
0
LINE
8
BLACK
6
CONTINUOUS
10
0.711766
20
-5.12783
11
0.714005
21
-5.13398
0
LINE
8
BLACK
6
CONTINUOUS
10
0.714005
20
-5.13398
11
0.717277
21
-5.13964
0
LINE
8
BLACK
6
CONTINUOUS
10
0.717277
20
-5.13964
11
0.721484
21
-5.14466
0
LINE
8
BLACK
6
CONTINUOUS
10
0.721484
20
-5.14466
11
0.726497
21
-5.14886
0
LINE
8
BLACK
6
CONTINUOUS
10
0.726497
20
-5.14886
11
0.732165
21
-5.15214
0
LINE
8
BLACK
6
CONTINUOUS
10
0.732165
20
-5.15214
11
0.738314
21
-5.15438
0
LINE
8
BLACK
6
CONTINUOUS
10
0.738314
20
-5.15438
11
0.744759
21
-5.15551
0
LINE
8
BLACK
6
CONTINUOUS
10
0.744759
20
-5.15551
11
0.748031
21
-5.15551
0
LINE
8
BLACK
6
CONTINUOUS
10
0.748031
20
-5.15551
11
7.48031
21
-5.15551
0
LINE
8
BLACK
6
CONTINUOUS
10
7.48031
20
-5.15551
11
7.48359
21
-5.15551
0
LINE
8
BLACK
6
CONTINUOUS
10
7.48359
20
-5.15551
11
7.49003
21
-5.15438
0
LINE
8
BLACK
6
CONTINUOUS
10
7.49003
20
-5.15438
11
7.49618
21
-5.15214
0
LINE
8
BLACK
6
CONTINUOUS
10
7.49618
20
-5.15214
11
7.50185
21
-5.14886
0
LINE
8
BLACK
6
CONTINUOUS
10
7.50185
20
-5.14886
11
7.50686
21
-5.14466
0
LINE
8
BLACK
6
CONTINUOUS
10
7.50686
20
-5.14466
11
7.51107
21
-5.13964
0
LINE
8
BLACK
6
CONTINUOUS
10
7.51107
20
-5.13964
11
7.51434
21
-5.13398
0
LINE
8
BLACK
6
CONTINUOUS
10
7.51434
20
-5.13398
11
7.51658
21
-5.12783
0
LINE
8
BLACK
6
CONTINUOUS
10
7.51658
20
-5.12783
11
7.51772
21
-5.12138
0
LINE
8
BLACK
6
CONTINUOUS
10
7.51772
20
-5.12138
11
7.51772
21
-5.11811
0
LINE
8
BLACK
6
CONTINUOUS
10
7.51772
20
-5.11811
11
7.51772
21
-0.826772
0
LINE
8
BLACK
6
CONTINUOUS
10
7.51772
20
-0.826772
11
7.51772
21
-0.823499
0
LINE
8
BLACK
6
CONTINUOUS
10
7.51772
20
-0.823499
11
7.51658
21
-0.817054
0
LINE
8
BLACK
6
CONTINUOUS
10
7.51658
20
-0.817054
11
7.51434
21
-0.810905
0
LINE
8
BLACK
6
CONTINUOUS
10
7.51434
20
-0.810905
11
7.51107
21
-0.805237
0
LINE
8
BLACK
6
CONTINUOUS
10
7.51107
20
-0.805237
11
7.50686
21
-0.800224
0
LINE
8
BLACK
6
CONTINUOUS
10
7.50686
20
-0.800224
11
7.50185
21
-0.796017
0
LINE
8
BLACK
6
CONTINUOUS
10
7.50185
20
-0.796017
11
7.49618
21
-0.792745
0
LINE
8
BLACK
6
CONTINUOUS
10
7.49618
20
-0.792745
11
7.49003
21
-0.790506
0
LINE
8
BLACK
6
CONTINUOUS
10
7.49003
20
-0.790506
11
7.48359
21
-0.78937
0
LINE
8
BLACK
6
CONTINUOUS
10
7.48359
20
-0.78937
11
7.48031
21
-0.78937
0
LINE
8
BLACK
6
CONTINUOUS
10
7.48031
20
-0.78937
11
4.65551
21
-0.78937
0
LINE
8
BLACK
6
CONTINUOUS
10
4.65551
20
-0.78937
11
4.65551
21
-0.826772
0
LINE
8
BLACK
6
CONTINUOUS
10
4.65551
20
-0.826772
11
4.65491
21
-0.831357
0
LINE
8
BLACK
6
CONTINUOUS
10
4.65491
20
-0.831357
11
4.65314
21
-0.83563
0
LINE
8
BLACK
6
CONTINUOUS
10
4.65314
20
-0.83563
11
4.65032
21
-0.839299
0
LINE
8
BLACK
6
CONTINUOUS
10
4.65032
20
-0.839299
11
4.64665
21
-0.842115
0
LINE
8
BLACK
6
CONTINUOUS
10
4.64665
20
-0.842115
11
4.64238
21
-0.843885
0
LINE
8
BLACK
6
CONTINUOUS
10
4.64238
20
-0.843885
11
4.6378
21
-0.844488
0
LINE
8
BLACK
6
CONTINUOUS
10
4.6378
20
-0.844488
11
4.6378
21
-0.844488
0
LINE
8
BLACK
6
CONTINUOUS
10
4.6378
20
-0.844488
11
4.49606
21
-0.844488
0
LINE
8
BLACK
6
CONTINUOUS
10
4.49606
20
-0.844488
11
4.49148
21
-0.843885
0
LINE
8
BLACK
6
CONTINUOUS
10
4.49148
20
-0.843885
11
4.4872
21
-0.842115
0
LINE
8
BLACK
6
CONTINUOUS
10
4.4872
20
-0.842115
11
4.48354
21
-0.839299
0
LINE
8
BLACK
6
CONTINUOUS
10
4.48354
20
-0.839299
11
4.48072
21
-0.83563
0
LINE
8
BLACK
6
CONTINUOUS
10
4.48072
20
-0.83563
11
4.47895
21
-0.831357
0
LINE
8
BLACK
6
CONTINUOUS
10
4.47895
20
-0.831357
11
4.47835
21
-0.826772
0
LINE
8
BLACK
6
CONTINUOUS
10
4.47835
20
-0.826772
11
4.47835
21
-0.78937
0
LINE
8
BLACK
6
CONTINUOUS
10
4.47835
20
-0.78937
11
3.78937
21
-0.78937
0
LINE
8
BLACK
6
CONTINUOUS
10
3.78937
20
-0.78937
11
3.78937
21
-0.826772
0
LINE
8
BLACK
6
CONTINUOUS
10
3.78937
20
-0.826772
11
3.78877
21
-0.831357
0
LINE
8
BLACK
6
CONTINUOUS
10
3.78877
20
-0.831357
11
3.787
21
-0.83563
0
LINE
8
BLACK
6
CONTINUOUS
10
3.787
20
-0.83563
11
3.78418
21
-0.839299
0
LINE
8
BLACK
6
CONTINUOUS
10
3.78418
20
-0.839299
11
3.78051
21
-0.842115
0
LINE
8
BLACK
6
CONTINUOUS
10
3.78051
20
-0.842115
11
3.77624
21
-0.843885
0
LINE
8
BLACK
6
CONTINUOUS
10
3.77624
20
-0.843885
11
3.77165
21
-0.844488
0
LINE
8
BLACK
6
CONTINUOUS
10
3.77165
20
-0.844488
11
3.62992
21
-0.844488
0
LINE
8
BLACK
6
CONTINUOUS
10
3.62992
20
-0.844488
11
3.62534
21
-0.843885
0
LINE
8
BLACK
6
CONTINUOUS
10
3.62534
20
-0.843885
11
3.62106
21
-0.842115
0
LINE
8
BLACK
6
CONTINUOUS
10
3.62106
20
-0.842115
11
3.61739
21
-0.839299
0
LINE
8
BLACK
6
CONTINUOUS
10
3.61739
20
-0.839299
11
3.61458
21
-0.83563
0
LINE
8
BLACK
6
CONTINUOUS
10
3.61458
20
-0.83563
11
3.61281
21
-0.831357
0
LINE
8
BLACK
6
CONTINUOUS
10
3.61281
20
-0.831357
11
3.6122
21
-0.826772
0
LINE
8
BLACK
6
CONTINUOUS
10
3.6122
20
-0.826772
11
3.6122
21
-0.78937
0
LINE
8
BLACK
6
CONTINUOUS
10
3.6122
20
-0.78937
11
0.748079
21
-0.78937
  0
ENDSEC
  0
EOF
