  0
SECTION
  2
HEADER
  9
$ANGBASE
  50
0.0
  9
$ANGDIR
  70
1
  9
$MEASUREMENT
  70
0
  0
ENDSEC
  0
SECTION
  2
TABLES
  0
TABLE
  2
LTYPE
  70
4
  0
LTYPE
  5
40F
  2
CONTINUOUS
  70
0
  3
Solid line
  72
65
  73
0
  40
0.0
  0
LTYPE
  5
410
  2
DASHDOT
 70
0
  3
Dash Dot ____ _ ____ _
 72
65
 73
4
 40
2.0
 49
1.25
 49
-0.25
 49
0.25
 49
-0.25
  0
LTYPE
  5
411
  2
DASHED
 70
0
  3
Dashed __ __ __ __ __
 72
65
 73
2
 40
0.75
 49
0.5
 49
-0.25
  0
LTYPE
  5
43B
  2
DOTTED
 70
0
  3
Dotted .  .  .  .
 72
65
 73
2
 40
0.2
 49
0.0
 49
-0.2
  0
ENDTAB
  0
TABLE
  2
STYLE
  70
4
  0
STYLE
  2
KICAD
  70
0
  40
0
  41
1
  42
1
  50
0
  71
0
  3
isocp.shx
  0
STYLE
  2
KICADB
  70
0
  40
0
  41
1
  42
1
  50
0
  71
0
  3
isocp.shx
  0
STYLE
  2
KICADI
  70
0
  40
0
  41
1
  42
1
  50
15
  71
0
  3
isocp.shx
  0
STYLE
  2
KICADBI
  70
0
  40
0
  41
1
  42
1
  50
15
  71
0
  3
isocp.shx
  0
ENDTAB
  0
TABLE
  2
LAYER
  70
1
  0
LAYER
  2
BLACK
  70
0
  62
7
  6
CONTINUOUS
  0
ENDTAB
  0
ENDSEC
  0
SECTION
  2
ENTITIES
0
LINE
8
BLACK
6
CONTINUOUS
10
3.61417
20
-0.785433
11
3.61557
21
-0.78601
0
LINE
8
BLACK
6
CONTINUOUS
10
3.61557
20
-0.78601
11
3.61614
21
-0.787402
0
LINE
8
BLACK
6
CONTINUOUS
10
3.61614
20
-0.787402
11
3.61614
21
-0.826772
0
LINE
8
BLACK
6
CONTINUOUS
10
3.61614
20
-0.826772
11
3.61614
21
-0.828586
0
LINE
8
BLACK
6
CONTINUOUS
10
3.61614
20
-0.828586
11
3.61708
21
-0.83209
0
LINE
8
BLACK
6
CONTINUOUS
10
3.61708
20
-0.83209
11
3.61889
21
-0.835232
0
LINE
8
BLACK
6
CONTINUOUS
10
3.61889
20
-0.835232
11
3.62146
21
-0.837798
0
LINE
8
BLACK
6
CONTINUOUS
10
3.62146
20
-0.837798
11
3.6246
21
-0.839612
0
LINE
8
BLACK
6
CONTINUOUS
10
3.6246
20
-0.839612
11
3.62811
21
-0.840551
0
LINE
8
BLACK
6
CONTINUOUS
10
3.62811
20
-0.840551
11
3.62992
21
-0.840551
0
LINE
8
BLACK
6
CONTINUOUS
10
3.62992
20
-0.840551
11
3.77165
21
-0.840551
0
LINE
8
BLACK
6
CONTINUOUS
10
3.77165
20
-0.840551
11
3.77347
21
-0.840551
0
LINE
8
BLACK
6
CONTINUOUS
10
3.77347
20
-0.840551
11
3.77697
21
-0.839612
0
LINE
8
BLACK
6
CONTINUOUS
10
3.77697
20
-0.839612
11
3.78011
21
-0.837798
0
LINE
8
BLACK
6
CONTINUOUS
10
3.78011
20
-0.837798
11
3.78268
21
-0.835232
0
LINE
8
BLACK
6
CONTINUOUS
10
3.78268
20
-0.835232
11
3.78449
21
-0.83209
0
LINE
8
BLACK
6
CONTINUOUS
10
3.78449
20
-0.83209
11
3.78543
21
-0.828586
0
LINE
8
BLACK
6
CONTINUOUS
10
3.78543
20
-0.828586
11
3.78543
21
-0.826772
0
LINE
8
BLACK
6
CONTINUOUS
10
3.78543
20
-0.826772
11
3.78543
21
-0.787402
0
LINE
8
BLACK
6
CONTINUOUS
10
3.78543
20
-0.787402
11
3.78601
21
-0.78601
0
LINE
8
BLACK
6
CONTINUOUS
10
3.78601
20
-0.78601
11
3.7874
21
-0.785433
0
LINE
8
BLACK
6
CONTINUOUS
10
3.7874
20
-0.785433
11
4.48031
21
-0.785433
0
LINE
8
BLACK
6
CONTINUOUS
10
4.48031
20
-0.785433
11
4.48171
21
-0.78601
0
LINE
8
BLACK
6
CONTINUOUS
10
4.48171
20
-0.78601
11
4.48228
21
-0.787402
0
LINE
8
BLACK
6
CONTINUOUS
10
4.48228
20
-0.787402
11
4.48228
21
-0.826772
0
LINE
8
BLACK
6
CONTINUOUS
10
4.48228
20
-0.826772
11
4.48228
21
-0.828586
0
LINE
8
BLACK
6
CONTINUOUS
10
4.48228
20
-0.828586
11
4.48322
21
-0.83209
0
LINE
8
BLACK
6
CONTINUOUS
10
4.48322
20
-0.83209
11
4.48504
21
-0.835232
0
LINE
8
BLACK
6
CONTINUOUS
10
4.48504
20
-0.835232
11
4.4876
21
-0.837798
0
LINE
8
BLACK
6
CONTINUOUS
10
4.4876
20
-0.837798
11
4.49074
21
-0.839612
0
LINE
8
BLACK
6
CONTINUOUS
10
4.49074
20
-0.839612
11
4.49425
21
-0.840551
0
LINE
8
BLACK
6
CONTINUOUS
10
4.49425
20
-0.840551
11
4.49606
21
-0.840551
0
LINE
8
BLACK
6
CONTINUOUS
10
4.49606
20
-0.840551
11
4.6378
21
-0.840551
0
LINE
8
BLACK
6
CONTINUOUS
10
4.6378
20
-0.840551
11
4.63961
21
-0.840551
0
LINE
8
BLACK
6
CONTINUOUS
10
4.63961
20
-0.840551
11
4.64311
21
-0.839612
0
LINE
8
BLACK
6
CONTINUOUS
10
4.64311
20
-0.839612
11
4.64626
21
-0.837798
0
LINE
8
BLACK
6
CONTINUOUS
10
4.64626
20
-0.837798
11
4.64882
21
-0.835233
0
LINE
8
BLACK
6
CONTINUOUS
10
4.64882
20
-0.835233
11
4.65064
21
-0.83209
0
LINE
8
BLACK
6
CONTINUOUS
10
4.65064
20
-0.83209
11
4.65157
21
-0.828586
0
LINE
8
BLACK
6
CONTINUOUS
10
4.65157
20
-0.828586
11
4.65157
21
-0.826772
0
LINE
8
BLACK
6
CONTINUOUS
10
4.65157
20
-0.826772
11
4.65157
21
-0.787402
0
LINE
8
BLACK
6
CONTINUOUS
10
4.65157
20
-0.787402
11
4.65215
21
-0.78601
0
LINE
8
BLACK
6
CONTINUOUS
10
4.65215
20
-0.78601
11
4.65354
21
-0.785433
0
LINE
8
BLACK
6
CONTINUOUS
10
4.65354
20
-0.785433
11
7.44094
21
-0.785433
0
LINE
8
BLACK
6
CONTINUOUS
10
7.44094
20
-0.785433
11
7.44812
21
-0.786061
0
LINE
8
BLACK
6
CONTINUOUS
10
7.44812
20
-0.786061
11
7.45508
21
-0.787926
0
LINE
8
BLACK
6
CONTINUOUS
10
7.45508
20
-0.787926
11
7.46161
21
-0.790971
0
LINE
8
BLACK
6
CONTINUOUS
10
7.46161
20
-0.790971
11
7.46752
21
-0.795104
0
LINE
8
BLACK
6
CONTINUOUS
10
7.46752
20
-0.795104
11
7.47261
21
-0.8002
0
LINE
8
BLACK
6
CONTINUOUS
10
7.47261
20
-0.8002
11
7.47675
21
-0.806102
0
LINE
8
BLACK
6
CONTINUOUS
10
7.47675
20
-0.806102
11
7.47979
21
-0.812633
0
LINE
8
BLACK
6
CONTINUOUS
10
7.47979
20
-0.812633
11
7.48166
21
-0.819593
0
LINE
8
BLACK
6
CONTINUOUS
10
7.48166
20
-0.819593
11
7.48228
21
-0.826772
0
LINE
8
BLACK
6
CONTINUOUS
10
7.48228
20
-0.826772
11
7.48228
21
-0.826772
0
LINE
8
BLACK
6
CONTINUOUS
10
7.48228
20
-0.826772
11
7.48228
21
-4.88189
0
LINE
8
BLACK
6
CONTINUOUS
10
7.48228
20
-4.88189
11
7.48228
21
-4.88189
0
LINE
8
BLACK
6
CONTINUOUS
10
7.48228
20
-4.88189
11
7.48166
21
-4.88907
0
LINE
8
BLACK
6
CONTINUOUS
10
7.48166
20
-4.88907
11
7.47979
21
-4.89603
0
LINE
8
BLACK
6
CONTINUOUS
10
7.47979
20
-4.89603
11
7.47675
21
-4.90256
0
LINE
8
BLACK
6
CONTINUOUS
10
7.47675
20
-4.90256
11
7.47261
21
-4.90846
0
LINE
8
BLACK
6
CONTINUOUS
10
7.47261
20
-4.90846
11
7.46752
21
-4.91356
0
LINE
8
BLACK
6
CONTINUOUS
10
7.46752
20
-4.91356
11
7.46161
21
-4.91769
0
LINE
8
BLACK
6
CONTINUOUS
10
7.46161
20
-4.91769
11
7.45508
21
-4.92074
0
LINE
8
BLACK
6
CONTINUOUS
10
7.45508
20
-4.92074
11
7.44812
21
-4.9226
0
LINE
8
BLACK
6
CONTINUOUS
10
7.44812
20
-4.9226
11
7.44094
21
-4.92323
0
LINE
8
BLACK
6
CONTINUOUS
10
7.44094
20
-4.92323
11
0.826772
21
-4.92323
0
LINE
8
BLACK
6
CONTINUOUS
10
0.826772
20
-4.92323
11
0.819593
21
-4.9226
0
LINE
8
BLACK
6
CONTINUOUS
10
0.819593
20
-4.9226
11
0.812633
21
-4.92074
0
LINE
8
BLACK
6
CONTINUOUS
10
0.812633
20
-4.92074
11
0.806102
21
-4.91769
0
LINE
8
BLACK
6
CONTINUOUS
10
0.806102
20
-4.91769
11
0.8002
21
-4.91356
0
LINE
8
BLACK
6
CONTINUOUS
10
0.8002
20
-4.91356
11
0.795104
21
-4.90846
0
LINE
8
BLACK
6
CONTINUOUS
10
0.795104
20
-4.90846
11
0.790971
21
-4.90256
0
LINE
8
BLACK
6
CONTINUOUS
10
0.790971
20
-4.90256
11
0.787926
21
-4.89603
0
LINE
8
BLACK
6
CONTINUOUS
10
0.787926
20
-4.89603
11
0.786061
21
-4.88907
0
LINE
8
BLACK
6
CONTINUOUS
10
0.786061
20
-4.88907
11
0.785433
21
-4.88189
0
LINE
8
BLACK
6
CONTINUOUS
10
0.785433
20
-4.88189
11
0.785433
21
-4.88189
0
LINE
8
BLACK
6
CONTINUOUS
10
0.785433
20
-4.88189
11
0.783744
21
-0.826772
0
LINE
8
BLACK
6
CONTINUOUS
10
0.783744
20
-0.826772
11
0.783744
21
-0.826772
0
LINE
8
BLACK
6
CONTINUOUS
10
0.783744
20
-0.826772
11
0.783744
21
-0.826772
0
LINE
8
BLACK
6
CONTINUOUS
10
0.783744
20
-0.826772
11
0.784372
21
-0.819593
0
LINE
8
BLACK
6
CONTINUOUS
10
0.784372
20
-0.819593
11
0.786237
21
-0.812633
0
LINE
8
BLACK
6
CONTINUOUS
10
0.786237
20
-0.812633
11
0.789283
21
-0.806102
0
LINE
8
BLACK
6
CONTINUOUS
10
0.789283
20
-0.806102
11
0.793416
21
-0.8002
0
LINE
8
BLACK
6
CONTINUOUS
10
0.793416
20
-0.8002
11
0.798511
21
-0.795105
0
LINE
8
BLACK
6
CONTINUOUS
10
0.798511
20
-0.795105
11
0.804414
21
-0.790972
0
LINE
8
BLACK
6
CONTINUOUS
10
0.804414
20
-0.790972
11
0.810944
21
-0.787926
0
LINE
8
BLACK
6
CONTINUOUS
10
0.810944
20
-0.787926
11
0.817905
21
-0.786061
0
LINE
8
BLACK
6
CONTINUOUS
10
0.817905
20
-0.786061
11
0.825082
21
-0.785433
0
LINE
8
BLACK
6
CONTINUOUS
10
0.825082
20
-0.785433
11
0.825083
21
-0.785433
0
LINE
8
BLACK
6
CONTINUOUS
10
0.825083
20
-0.785433
11
3.61417
21
-0.785433
0
LINE
8
BLACK
6
CONTINUOUS
10
0.825083
20
-0.78937
11
0.825083
21
-0.78937
0
LINE
8
BLACK
6
CONTINUOUS
10
0.825083
20
-0.78937
11
0.821811
21
-0.78937
0
LINE
8
BLACK
6
CONTINUOUS
10
0.821811
20
-0.78937
11
0.815366
21
-0.790507
0
LINE
8
BLACK
6
CONTINUOUS
10
0.815366
20
-0.790507
11
0.809216
21
-0.792745
0
LINE
8
BLACK
6
CONTINUOUS
10
0.809216
20
-0.792745
11
0.803548
21
-0.796017
0
LINE
8
BLACK
6
CONTINUOUS
10
0.803548
20
-0.796017
11
0.798535
21
-0.800224
0
LINE
8
BLACK
6
CONTINUOUS
10
0.798535
20
-0.800224
11
0.794328
21
-0.805237
0
LINE
8
BLACK
6
CONTINUOUS
10
0.794328
20
-0.805237
11
0.791056
21
-0.810905
0
LINE
8
BLACK
6
CONTINUOUS
10
0.791056
20
-0.810905
11
0.788818
21
-0.817054
0
LINE
8
BLACK
6
CONTINUOUS
10
0.788818
20
-0.817054
11
0.787681
21
-0.823499
0
LINE
8
BLACK
6
CONTINUOUS
10
0.787681
20
-0.823499
11
0.787681
21
-0.826771
0
LINE
8
BLACK
6
CONTINUOUS
10
0.787681
20
-0.826771
11
0.78937
21
-4.88189
0
LINE
8
BLACK
6
CONTINUOUS
10
0.78937
20
-4.88189
11
0.78937
21
-4.88189
0
LINE
8
BLACK
6
CONTINUOUS
10
0.78937
20
-4.88189
11
0.78937
21
-4.88189
0
LINE
8
BLACK
6
CONTINUOUS
10
0.78937
20
-4.88189
11
0.78937
21
-4.88516
0
LINE
8
BLACK
6
CONTINUOUS
10
0.78937
20
-4.88516
11
0.790506
21
-4.89161
0
LINE
8
BLACK
6
CONTINUOUS
10
0.790506
20
-4.89161
11
0.792745
21
-4.89776
0
LINE
8
BLACK
6
CONTINUOUS
10
0.792745
20
-4.89776
11
0.796017
21
-4.90342
0
LINE
8
BLACK
6
CONTINUOUS
10
0.796017
20
-4.90342
11
0.800224
21
-4.90844
0
LINE
8
BLACK
6
CONTINUOUS
10
0.800224
20
-4.90844
11
0.805237
21
-4.91264
0
LINE
8
BLACK
6
CONTINUOUS
10
0.805237
20
-4.91264
11
0.810905
21
-4.91592
0
LINE
8
BLACK
6
CONTINUOUS
10
0.810905
20
-4.91592
11
0.817054
21
-4.91815
0
LINE
8
BLACK
6
CONTINUOUS
10
0.817054
20
-4.91815
11
0.823499
21
-4.91929
0
LINE
8
BLACK
6
CONTINUOUS
10
0.823499
20
-4.91929
11
0.826772
21
-4.91929
0
LINE
8
BLACK
6
CONTINUOUS
10
0.826772
20
-4.91929
11
7.44094
21
-4.91929
0
LINE
8
BLACK
6
CONTINUOUS
10
7.44094
20
-4.91929
11
7.44422
21
-4.91929
0
LINE
8
BLACK
6
CONTINUOUS
10
7.44422
20
-4.91929
11
7.45066
21
-4.91815
0
LINE
8
BLACK
6
CONTINUOUS
10
7.45066
20
-4.91815
11
7.45681
21
-4.91592
0
LINE
8
BLACK
6
CONTINUOUS
10
7.45681
20
-4.91592
11
7.46248
21
-4.91264
0
LINE
8
BLACK
6
CONTINUOUS
10
7.46248
20
-4.91264
11
7.46749
21
-4.90844
0
LINE
8
BLACK
6
CONTINUOUS
10
7.46749
20
-4.90844
11
7.4717
21
-4.90342
0
LINE
8
BLACK
6
CONTINUOUS
10
7.4717
20
-4.90342
11
7.47497
21
-4.89776
0
LINE
8
BLACK
6
CONTINUOUS
10
7.47497
20
-4.89776
11
7.47721
21
-4.89161
0
LINE
8
BLACK
6
CONTINUOUS
10
7.47721
20
-4.89161
11
7.47835
21
-4.88516
0
LINE
8
BLACK
6
CONTINUOUS
10
7.47835
20
-4.88516
11
7.47835
21
-4.88189
0
LINE
8
BLACK
6
CONTINUOUS
10
7.47835
20
-4.88189
11
7.47835
21
-0.826772
0
LINE
8
BLACK
6
CONTINUOUS
10
7.47835
20
-0.826772
11
7.47835
21
-0.823499
0
LINE
8
BLACK
6
CONTINUOUS
10
7.47835
20
-0.823499
11
7.47721
21
-0.817054
0
LINE
8
BLACK
6
CONTINUOUS
10
7.47721
20
-0.817054
11
7.47497
21
-0.810905
0
LINE
8
BLACK
6
CONTINUOUS
10
7.47497
20
-0.810905
11
7.4717
21
-0.805237
0
LINE
8
BLACK
6
CONTINUOUS
10
7.4717
20
-0.805237
11
7.46749
21
-0.800224
0
LINE
8
BLACK
6
CONTINUOUS
10
7.46749
20
-0.800224
11
7.46248
21
-0.796017
0
LINE
8
BLACK
6
CONTINUOUS
10
7.46248
20
-0.796017
11
7.45681
21
-0.792745
0
LINE
8
BLACK
6
CONTINUOUS
10
7.45681
20
-0.792745
11
7.45066
21
-0.790506
0
LINE
8
BLACK
6
CONTINUOUS
10
7.45066
20
-0.790506
11
7.44422
21
-0.78937
0
LINE
8
BLACK
6
CONTINUOUS
10
7.44422
20
-0.78937
11
7.44094
21
-0.78937
0
LINE
8
BLACK
6
CONTINUOUS
10
7.44094
20
-0.78937
11
4.65551
21
-0.78937
0
LINE
8
BLACK
6
CONTINUOUS
10
4.65551
20
-0.78937
11
4.65551
21
-0.826772
0
LINE
8
BLACK
6
CONTINUOUS
10
4.65551
20
-0.826772
11
4.65491
21
-0.831357
0
LINE
8
BLACK
6
CONTINUOUS
10
4.65491
20
-0.831357
11
4.65314
21
-0.83563
0
LINE
8
BLACK
6
CONTINUOUS
10
4.65314
20
-0.83563
11
4.65032
21
-0.839299
0
LINE
8
BLACK
6
CONTINUOUS
10
4.65032
20
-0.839299
11
4.64665
21
-0.842115
0
LINE
8
BLACK
6
CONTINUOUS
10
4.64665
20
-0.842115
11
4.64238
21
-0.843885
0
LINE
8
BLACK
6
CONTINUOUS
10
4.64238
20
-0.843885
11
4.6378
21
-0.844488
0
LINE
8
BLACK
6
CONTINUOUS
10
4.6378
20
-0.844488
11
4.6378
21
-0.844488
0
LINE
8
BLACK
6
CONTINUOUS
10
4.6378
20
-0.844488
11
4.6378
21
-0.844488
0
LINE
8
BLACK
6
CONTINUOUS
10
4.6378
20
-0.844488
11
4.6378
21
-0.844488
0
LINE
8
BLACK
6
CONTINUOUS
10
4.6378
20
-0.844488
11
4.63779
21
-0.844488
0
LINE
8
BLACK
6
CONTINUOUS
10
4.63779
20
-0.844488
11
4.49606
21
-0.844488
0
LINE
8
BLACK
6
CONTINUOUS
10
4.49606
20
-0.844488
11
4.49148
21
-0.843885
0
LINE
8
BLACK
6
CONTINUOUS
10
4.49148
20
-0.843885
11
4.4872
21
-0.842115
0
LINE
8
BLACK
6
CONTINUOUS
10
4.4872
20
-0.842115
11
4.48354
21
-0.839299
0
LINE
8
BLACK
6
CONTINUOUS
10
4.48354
20
-0.839299
11
4.48072
21
-0.83563
0
LINE
8
BLACK
6
CONTINUOUS
10
4.48072
20
-0.83563
11
4.47895
21
-0.831357
0
LINE
8
BLACK
6
CONTINUOUS
10
4.47895
20
-0.831357
11
4.47835
21
-0.826772
0
LINE
8
BLACK
6
CONTINUOUS
10
4.47835
20
-0.826772
11
4.47835
21
-0.78937
0
LINE
8
BLACK
6
CONTINUOUS
10
4.47835
20
-0.78937
11
3.78937
21
-0.78937
0
LINE
8
BLACK
6
CONTINUOUS
10
3.78937
20
-0.78937
11
3.78937
21
-0.826772
0
LINE
8
BLACK
6
CONTINUOUS
10
3.78937
20
-0.826772
11
3.78877
21
-0.831357
0
LINE
8
BLACK
6
CONTINUOUS
10
3.78877
20
-0.831357
11
3.787
21
-0.83563
0
LINE
8
BLACK
6
CONTINUOUS
10
3.787
20
-0.83563
11
3.78418
21
-0.839299
0
LINE
8
BLACK
6
CONTINUOUS
10
3.78418
20
-0.839299
11
3.78051
21
-0.842115
0
LINE
8
BLACK
6
CONTINUOUS
10
3.78051
20
-0.842115
11
3.77624
21
-0.843885
0
LINE
8
BLACK
6
CONTINUOUS
10
3.77624
20
-0.843885
11
3.77165
21
-0.844488
0
LINE
8
BLACK
6
CONTINUOUS
10
3.77165
20
-0.844488
11
3.62992
21
-0.844488
0
LINE
8
BLACK
6
CONTINUOUS
10
3.62992
20
-0.844488
11
3.62534
21
-0.843885
0
LINE
8
BLACK
6
CONTINUOUS
10
3.62534
20
-0.843885
11
3.62106
21
-0.842115
0
LINE
8
BLACK
6
CONTINUOUS
10
3.62106
20
-0.842115
11
3.61739
21
-0.839299
0
LINE
8
BLACK
6
CONTINUOUS
10
3.61739
20
-0.839299
11
3.61458
21
-0.83563
0
LINE
8
BLACK
6
CONTINUOUS
10
3.61458
20
-0.83563
11
3.61281
21
-0.831357
0
LINE
8
BLACK
6
CONTINUOUS
10
3.61281
20
-0.831357
11
3.6122
21
-0.826772
0
LINE
8
BLACK
6
CONTINUOUS
10
3.6122
20
-0.826772
11
3.6122
21
-0.78937
0
LINE
8
BLACK
6
CONTINUOUS
10
3.6122
20
-0.78937
11
0.825083
21
-0.78937
  0
ENDSEC
  0
EOF
