  0
SECTION
  2
HEADER
  9
$ANGBASE
  50
0.0
  9
$ANGDIR
  70
1
  9
$MEASUREMENT
  70
0
  0
ENDSEC
  0
SECTION
  2
TABLES
  0
TABLE
  2
LTYPE
  70
4
  0
LTYPE
  5
40F
  2
CONTINUOUS
  70
0
  3
Solid line
  72
65
  73
0
  40
0.0
  0
LTYPE
  5
410
  2
DASHDOT
 70
0
  3
Dash Dot ____ _ ____ _
 72
65
 73
4
 40
2.0
 49
1.25
 49
-0.25
 49
0.25
 49
-0.25
  0
LTYPE
  5
411
  2
DASHED
 70
0
  3
Dashed __ __ __ __ __
 72
65
 73
2
 40
0.75
 49
0.5
 49
-0.25
  0
LTYPE
  5
43B
  2
DOTTED
 70
0
  3
Dotted .  .  .  .
 72
65
 73
2
 40
0.2
 49
0.0
 49
-0.2
  0
ENDTAB
  0
TABLE
  2
STYLE
  70
4
  0
STYLE
  2
KICAD
  70
0
  40
0
  41
1
  42
1
  50
0
  71
0
  3
isocp.shx
  0
STYLE
  2
KICADB
  70
0
  40
0
  41
1
  42
1
  50
0
  71
0
  3
isocp.shx
  0
STYLE
  2
KICADI
  70
0
  40
0
  41
1
  42
1
  50
15
  71
0
  3
isocp.shx
  0
STYLE
  2
KICADBI
  70
0
  40
0
  41
1
  42
1
  50
15
  71
0
  3
isocp.shx
  0
ENDTAB
  0
TABLE
  2
LAYER
  70
1
  0
LAYER
  2
BLACK
  70
0
  62
7
  6
CONTINUOUS
  0
ENDTAB
  0
ENDSEC
  0
SECTION
  2
ENTITIES
0
LINE
8
BLACK
6
CONTINUOUS
10
1.80512
20
-4.89075
11
1.80581
21
-4.89104
0
LINE
8
BLACK
6
CONTINUOUS
10
1.80581
20
-4.89104
11
1.8061
21
-4.89173
0
LINE
8
BLACK
6
CONTINUOUS
10
1.8061
20
-4.89173
11
1.8061
21
-5.15748
0
LINE
8
BLACK
6
CONTINUOUS
10
1.8061
20
-5.15748
11
1.80581
21
-5.15818
0
LINE
8
BLACK
6
CONTINUOUS
10
1.80581
20
-5.15818
11
1.80512
21
-5.15846
0
LINE
8
BLACK
6
CONTINUOUS
10
1.80512
20
-5.15846
11
1.37598
21
-5.15846
0
LINE
8
BLACK
6
CONTINUOUS
10
1.37598
20
-5.15846
11
1.37529
21
-5.15818
0
LINE
8
BLACK
6
CONTINUOUS
10
1.37529
20
-5.15818
11
1.375
21
-5.15748
0
LINE
8
BLACK
6
CONTINUOUS
10
1.375
20
-5.15748
11
1.375
21
-4.89173
0
LINE
8
BLACK
6
CONTINUOUS
10
1.375
20
-4.89173
11
1.37529
21
-4.89104
0
LINE
8
BLACK
6
CONTINUOUS
10
1.37529
20
-4.89104
11
1.37598
21
-4.89075
0
LINE
8
BLACK
6
CONTINUOUS
10
1.37598
20
-4.89075
11
1.80512
21
-4.89075
0
LINE
8
BLACK
6
CONTINUOUS
10
1.37697
20
-4.89272
11
1.37697
21
-5.1565
0
LINE
8
BLACK
6
CONTINUOUS
10
1.37697
20
-5.1565
11
1.80413
21
-5.1565
0
LINE
8
BLACK
6
CONTINUOUS
10
1.80413
20
-5.1565
11
1.80413
21
-4.89272
0
LINE
8
BLACK
6
CONTINUOUS
10
1.80413
20
-4.89272
11
1.37697
21
-4.89272
0
LINE
8
BLACK
6
CONTINUOUS
10
6.2689
20
-4.62069
11
6.26959
21
-4.62098
0
LINE
8
BLACK
6
CONTINUOUS
10
6.26959
20
-4.62098
11
6.26988
21
-4.62168
0
LINE
8
BLACK
6
CONTINUOUS
10
6.26988
20
-4.62168
11
6.26988
21
-4.86183
0
LINE
8
BLACK
6
CONTINUOUS
10
6.26988
20
-4.86183
11
6.26959
21
-4.86253
0
LINE
8
BLACK
6
CONTINUOUS
10
6.26959
20
-4.86253
11
6.2689
21
-4.86282
0
LINE
8
BLACK
6
CONTINUOUS
10
6.2689
20
-4.86282
11
5.92835
21
-4.86282
0
LINE
8
BLACK
6
CONTINUOUS
10
5.92835
20
-4.86282
11
5.92765
21
-4.86253
0
LINE
8
BLACK
6
CONTINUOUS
10
5.92765
20
-4.86253
11
5.92736
21
-4.86183
0
LINE
8
BLACK
6
CONTINUOUS
10
5.92736
20
-4.86183
11
5.92736
21
-4.62168
0
LINE
8
BLACK
6
CONTINUOUS
10
5.92736
20
-4.62168
11
5.92765
21
-4.62098
0
LINE
8
BLACK
6
CONTINUOUS
10
5.92765
20
-4.62098
11
5.92835
21
-4.62069
0
LINE
8
BLACK
6
CONTINUOUS
10
5.92835
20
-4.62069
11
6.2689
21
-4.62069
0
LINE
8
BLACK
6
CONTINUOUS
10
5.92933
20
-4.62266
11
5.92933
21
-4.86085
0
LINE
8
BLACK
6
CONTINUOUS
10
5.92933
20
-4.86085
11
6.26791
21
-4.86085
0
LINE
8
BLACK
6
CONTINUOUS
10
6.26791
20
-4.86085
11
6.26791
21
-4.62266
0
LINE
8
BLACK
6
CONTINUOUS
10
6.26791
20
-4.62266
11
5.92933
21
-4.62266
0
LINE
8
BLACK
6
CONTINUOUS
10
1.19532
20
-4.55887
11
1.20936
21
-4.56125
0
LINE
8
BLACK
6
CONTINUOUS
10
1.20936
20
-4.56125
11
1.22304
21
-4.5652
0
LINE
8
BLACK
6
CONTINUOUS
10
1.22304
20
-4.5652
11
1.23619
21
-4.57064
0
LINE
8
BLACK
6
CONTINUOUS
10
1.23619
20
-4.57064
11
1.24865
21
-4.57753
0
LINE
8
BLACK
6
CONTINUOUS
10
1.24865
20
-4.57753
11
1.26027
21
-4.58577
0
LINE
8
BLACK
6
CONTINUOUS
10
1.26027
20
-4.58577
11
1.27088
21
-4.59526
0
LINE
8
BLACK
6
CONTINUOUS
10
1.27088
20
-4.59526
11
1.28037
21
-4.60588
0
LINE
8
BLACK
6
CONTINUOUS
10
1.28037
20
-4.60588
11
1.28861
21
-4.61749
0
LINE
8
BLACK
6
CONTINUOUS
10
1.28861
20
-4.61749
11
1.2955
21
-4.62995
0
LINE
8
BLACK
6
CONTINUOUS
10
1.2955
20
-4.62995
11
1.30095
21
-4.6431
0
LINE
8
BLACK
6
CONTINUOUS
10
1.30095
20
-4.6431
11
1.30489
21
-4.65679
0
LINE
8
BLACK
6
CONTINUOUS
10
1.30489
20
-4.65679
11
1.30727
21
-4.67082
0
LINE
8
BLACK
6
CONTINUOUS
10
1.30727
20
-4.67082
11
1.30807
21
-4.68504
0
LINE
8
BLACK
6
CONTINUOUS
10
1.30807
20
-4.68504
11
1.30727
21
-4.69926
0
LINE
8
BLACK
6
CONTINUOUS
10
1.30727
20
-4.69926
11
1.30489
21
-4.71329
0
LINE
8
BLACK
6
CONTINUOUS
10
1.30489
20
-4.71329
11
1.30095
21
-4.72697
0
LINE
8
BLACK
6
CONTINUOUS
10
1.30095
20
-4.72697
11
1.2955
21
-4.74013
0
LINE
8
BLACK
6
CONTINUOUS
10
1.2955
20
-4.74013
11
1.28861
21
-4.75259
0
LINE
8
BLACK
6
CONTINUOUS
10
1.28861
20
-4.75259
11
1.28037
21
-4.7642
0
LINE
8
BLACK
6
CONTINUOUS
10
1.28037
20
-4.7642
11
1.27088
21
-4.77482
0
LINE
8
BLACK
6
CONTINUOUS
10
1.27088
20
-4.77482
11
1.26027
21
-4.78431
0
LINE
8
BLACK
6
CONTINUOUS
10
1.26027
20
-4.78431
11
1.24865
21
-4.79255
0
LINE
8
BLACK
6
CONTINUOUS
10
1.24865
20
-4.79255
11
1.23619
21
-4.79943
0
LINE
8
BLACK
6
CONTINUOUS
10
1.23619
20
-4.79943
11
1.22304
21
-4.80488
0
LINE
8
BLACK
6
CONTINUOUS
10
1.22304
20
-4.80488
11
1.20936
21
-4.80882
0
LINE
8
BLACK
6
CONTINUOUS
10
1.20936
20
-4.80882
11
1.19532
21
-4.81121
0
LINE
8
BLACK
6
CONTINUOUS
10
1.19532
20
-4.81121
11
1.1811
21
-4.81201
0
LINE
8
BLACK
6
CONTINUOUS
10
1.1811
20
-4.81201
11
1.16689
21
-4.81121
0
LINE
8
BLACK
6
CONTINUOUS
10
1.16689
20
-4.81121
11
1.15285
21
-4.80882
0
LINE
8
BLACK
6
CONTINUOUS
10
1.15285
20
-4.80882
11
1.13917
21
-4.80488
0
LINE
8
BLACK
6
CONTINUOUS
10
1.13917
20
-4.80488
11
1.12601
21
-4.79943
0
LINE
8
BLACK
6
CONTINUOUS
10
1.12601
20
-4.79943
11
1.11355
21
-4.79255
0
LINE
8
BLACK
6
CONTINUOUS
10
1.11355
20
-4.79255
11
1.10194
21
-4.78431
0
LINE
8
BLACK
6
CONTINUOUS
10
1.10194
20
-4.78431
11
1.09132
21
-4.77482
0
LINE
8
BLACK
6
CONTINUOUS
10
1.09132
20
-4.77482
11
1.08183
21
-4.7642
0
LINE
8
BLACK
6
CONTINUOUS
10
1.08183
20
-4.7642
11
1.0736
21
-4.75259
0
LINE
8
BLACK
6
CONTINUOUS
10
1.0736
20
-4.75259
11
1.06671
21
-4.74013
0
LINE
8
BLACK
6
CONTINUOUS
10
1.06671
20
-4.74013
11
1.06126
21
-4.72697
0
LINE
8
BLACK
6
CONTINUOUS
10
1.06126
20
-4.72697
11
1.05732
21
-4.71329
0
LINE
8
BLACK
6
CONTINUOUS
10
1.05732
20
-4.71329
11
1.05493
21
-4.69926
0
LINE
8
BLACK
6
CONTINUOUS
10
1.05493
20
-4.69926
11
1.05413
21
-4.68504
0
LINE
8
BLACK
6
CONTINUOUS
10
1.05413
20
-4.68504
11
1.05493
21
-4.67082
0
LINE
8
BLACK
6
CONTINUOUS
10
1.05493
20
-4.67082
11
1.05732
21
-4.65679
0
LINE
8
BLACK
6
CONTINUOUS
10
1.05732
20
-4.65679
11
1.06126
21
-4.6431
0
LINE
8
BLACK
6
CONTINUOUS
10
1.06126
20
-4.6431
11
1.06671
21
-4.62995
0
LINE
8
BLACK
6
CONTINUOUS
10
1.06671
20
-4.62995
11
1.0736
21
-4.61749
0
LINE
8
BLACK
6
CONTINUOUS
10
1.0736
20
-4.61749
11
1.08183
21
-4.60588
0
LINE
8
BLACK
6
CONTINUOUS
10
1.08183
20
-4.60588
11
1.09132
21
-4.59526
0
LINE
8
BLACK
6
CONTINUOUS
10
1.09132
20
-4.59526
11
1.10194
21
-4.58577
0
LINE
8
BLACK
6
CONTINUOUS
10
1.10194
20
-4.58577
11
1.11355
21
-4.57753
0
LINE
8
BLACK
6
CONTINUOUS
10
1.11355
20
-4.57753
11
1.12601
21
-4.57064
0
LINE
8
BLACK
6
CONTINUOUS
10
1.12601
20
-4.57064
11
1.13917
21
-4.5652
0
LINE
8
BLACK
6
CONTINUOUS
10
1.13917
20
-4.5652
11
1.15285
21
-4.56125
0
LINE
8
BLACK
6
CONTINUOUS
10
1.15285
20
-4.56125
11
1.16689
21
-4.55887
0
LINE
8
BLACK
6
CONTINUOUS
10
1.16689
20
-4.55887
11
1.1811
21
-4.55807
0
LINE
8
BLACK
6
CONTINUOUS
10
1.1811
20
-4.55807
11
1.19532
21
-4.55887
0
LINE
8
BLACK
6
CONTINUOUS
10
1.05669
20
-4.69906
11
1.05904
21
-4.7129
0
LINE
8
BLACK
6
CONTINUOUS
10
1.05904
20
-4.7129
11
1.06293
21
-4.72639
0
LINE
8
BLACK
6
CONTINUOUS
10
1.06293
20
-4.72639
11
1.0683
21
-4.73936
0
LINE
8
BLACK
6
CONTINUOUS
10
1.0683
20
-4.73936
11
1.0751
21
-4.75165
0
LINE
8
BLACK
6
CONTINUOUS
10
1.0751
20
-4.75165
11
1.08322
21
-4.7631
0
LINE
8
BLACK
6
CONTINUOUS
10
1.08322
20
-4.7631
11
1.09257
21
-4.77357
0
LINE
8
BLACK
6
CONTINUOUS
10
1.09257
20
-4.77357
11
1.10304
21
-4.78292
0
LINE
8
BLACK
6
CONTINUOUS
10
1.10304
20
-4.78292
11
1.11449
21
-4.79105
0
LINE
8
BLACK
6
CONTINUOUS
10
1.11449
20
-4.79105
11
1.12678
21
-4.79784
0
LINE
8
BLACK
6
CONTINUOUS
10
1.12678
20
-4.79784
11
1.13975
21
-4.80321
0
LINE
8
BLACK
6
CONTINUOUS
10
1.13975
20
-4.80321
11
1.15324
21
-4.8071
0
LINE
8
BLACK
6
CONTINUOUS
10
1.15324
20
-4.8071
11
1.16708
21
-4.80945
0
LINE
8
BLACK
6
CONTINUOUS
10
1.16708
20
-4.80945
11
1.1811
21
-4.81024
0
LINE
8
BLACK
6
CONTINUOUS
10
1.1811
20
-4.81024
11
1.19512
21
-4.80945
0
LINE
8
BLACK
6
CONTINUOUS
10
1.19512
20
-4.80945
11
1.20896
21
-4.8071
0
LINE
8
BLACK
6
CONTINUOUS
10
1.20896
20
-4.8071
11
1.22245
21
-4.80321
0
LINE
8
BLACK
6
CONTINUOUS
10
1.22245
20
-4.80321
11
1.23542
21
-4.79784
0
LINE
8
BLACK
6
CONTINUOUS
10
1.23542
20
-4.79784
11
1.24771
21
-4.79105
0
LINE
8
BLACK
6
CONTINUOUS
10
1.24771
20
-4.79105
11
1.25916
21
-4.78292
0
LINE
8
BLACK
6
CONTINUOUS
10
1.25916
20
-4.78292
11
1.26963
21
-4.77357
0
LINE
8
BLACK
6
CONTINUOUS
10
1.26963
20
-4.77357
11
1.27899
21
-4.7631
0
LINE
8
BLACK
6
CONTINUOUS
10
1.27899
20
-4.7631
11
1.28711
21
-4.75165
0
LINE
8
BLACK
6
CONTINUOUS
10
1.28711
20
-4.75165
11
1.2939
21
-4.73936
0
LINE
8
BLACK
6
CONTINUOUS
10
1.2939
20
-4.73936
11
1.29927
21
-4.72639
0
LINE
8
BLACK
6
CONTINUOUS
10
1.29927
20
-4.72639
11
1.30316
21
-4.7129
0
LINE
8
BLACK
6
CONTINUOUS
10
1.30316
20
-4.7129
11
1.30551
21
-4.69906
0
LINE
8
BLACK
6
CONTINUOUS
10
1.30551
20
-4.69906
11
1.3063
21
-4.68504
0
LINE
8
BLACK
6
CONTINUOUS
10
1.3063
20
-4.68504
11
1.30551
21
-4.67102
0
LINE
8
BLACK
6
CONTINUOUS
10
1.30551
20
-4.67102
11
1.30316
21
-4.65718
0
LINE
8
BLACK
6
CONTINUOUS
10
1.30316
20
-4.65718
11
1.29927
21
-4.64369
0
LINE
8
BLACK
6
CONTINUOUS
10
1.29927
20
-4.64369
11
1.2939
21
-4.63072
0
LINE
8
BLACK
6
CONTINUOUS
10
1.2939
20
-4.63072
11
1.28711
21
-4.61843
0
LINE
8
BLACK
6
CONTINUOUS
10
1.28711
20
-4.61843
11
1.27899
21
-4.60698
0
LINE
8
BLACK
6
CONTINUOUS
10
1.27899
20
-4.60698
11
1.26963
21
-4.59651
0
LINE
8
BLACK
6
CONTINUOUS
10
1.26963
20
-4.59651
11
1.25916
21
-4.58716
0
LINE
8
BLACK
6
CONTINUOUS
10
1.25916
20
-4.58716
11
1.24771
21
-4.57903
0
LINE
8
BLACK
6
CONTINUOUS
10
1.24771
20
-4.57903
11
1.23542
21
-4.57224
0
LINE
8
BLACK
6
CONTINUOUS
10
1.23542
20
-4.57224
11
1.22245
21
-4.56687
0
LINE
8
BLACK
6
CONTINUOUS
10
1.22245
20
-4.56687
11
1.20896
21
-4.56298
0
LINE
8
BLACK
6
CONTINUOUS
10
1.20896
20
-4.56298
11
1.19512
21
-4.56063
0
LINE
8
BLACK
6
CONTINUOUS
10
1.19512
20
-4.56063
11
1.1811
21
-4.55984
0
LINE
8
BLACK
6
CONTINUOUS
10
1.1811
20
-4.55984
11
1.16708
21
-4.56063
0
LINE
8
BLACK
6
CONTINUOUS
10
1.16708
20
-4.56063
11
1.15324
21
-4.56298
0
LINE
8
BLACK
6
CONTINUOUS
10
1.15324
20
-4.56298
11
1.13975
21
-4.56687
0
LINE
8
BLACK
6
CONTINUOUS
10
1.13975
20
-4.56687
11
1.12678
21
-4.57224
0
LINE
8
BLACK
6
CONTINUOUS
10
1.12678
20
-4.57224
11
1.11449
21
-4.57903
0
LINE
8
BLACK
6
CONTINUOUS
10
1.11449
20
-4.57903
11
1.10304
21
-4.58716
0
LINE
8
BLACK
6
CONTINUOUS
10
1.10304
20
-4.58716
11
1.09257
21
-4.59651
0
LINE
8
BLACK
6
CONTINUOUS
10
1.09257
20
-4.59651
11
1.08322
21
-4.60698
0
LINE
8
BLACK
6
CONTINUOUS
10
1.08322
20
-4.60698
11
1.0751
21
-4.61843
0
LINE
8
BLACK
6
CONTINUOUS
10
1.0751
20
-4.61843
11
1.0683
21
-4.63072
0
LINE
8
BLACK
6
CONTINUOUS
10
1.0683
20
-4.63072
11
1.06293
21
-4.64369
0
LINE
8
BLACK
6
CONTINUOUS
10
1.06293
20
-4.64369
11
1.05904
21
-4.65718
0
LINE
8
BLACK
6
CONTINUOUS
10
1.05904
20
-4.65718
11
1.05669
21
-4.67102
0
LINE
8
BLACK
6
CONTINUOUS
10
1.05669
20
-4.67102
11
1.05591
21
-4.68504
0
LINE
8
BLACK
6
CONTINUOUS
10
1.05591
20
-4.68504
11
1.05669
21
-4.69906
0
LINE
8
BLACK
6
CONTINUOUS
10
4.14807
20
-4.55887
11
4.16211
21
-4.56125
0
LINE
8
BLACK
6
CONTINUOUS
10
4.16211
20
-4.56125
11
4.17579
21
-4.5652
0
LINE
8
BLACK
6
CONTINUOUS
10
4.17579
20
-4.5652
11
4.18895
21
-4.57064
0
LINE
8
BLACK
6
CONTINUOUS
10
4.18895
20
-4.57064
11
4.20141
21
-4.57753
0
LINE
8
BLACK
6
CONTINUOUS
10
4.20141
20
-4.57753
11
4.21302
21
-4.58577
0
LINE
8
BLACK
6
CONTINUOUS
10
4.21302
20
-4.58577
11
4.22364
21
-4.59526
0
LINE
8
BLACK
6
CONTINUOUS
10
4.22364
20
-4.59526
11
4.23313
21
-4.60588
0
LINE
8
BLACK
6
CONTINUOUS
10
4.23313
20
-4.60588
11
4.24137
21
-4.61749
0
LINE
8
BLACK
6
CONTINUOUS
10
4.24137
20
-4.61749
11
4.24825
21
-4.62995
0
LINE
8
BLACK
6
CONTINUOUS
10
4.24825
20
-4.62995
11
4.2537
21
-4.6431
0
LINE
8
BLACK
6
CONTINUOUS
10
4.2537
20
-4.6431
11
4.25764
21
-4.65679
0
LINE
8
BLACK
6
CONTINUOUS
10
4.25764
20
-4.65679
11
4.26003
21
-4.67082
0
LINE
8
BLACK
6
CONTINUOUS
10
4.26003
20
-4.67082
11
4.26083
21
-4.68504
0
LINE
8
BLACK
6
CONTINUOUS
10
4.26083
20
-4.68504
11
4.26003
21
-4.69926
0
LINE
8
BLACK
6
CONTINUOUS
10
4.26003
20
-4.69926
11
4.25764
21
-4.71329
0
LINE
8
BLACK
6
CONTINUOUS
10
4.25764
20
-4.71329
11
4.2537
21
-4.72697
0
LINE
8
BLACK
6
CONTINUOUS
10
4.2537
20
-4.72697
11
4.24825
21
-4.74013
0
LINE
8
BLACK
6
CONTINUOUS
10
4.24825
20
-4.74013
11
4.24137
21
-4.75259
0
LINE
8
BLACK
6
CONTINUOUS
10
4.24137
20
-4.75259
11
4.23313
21
-4.7642
0
LINE
8
BLACK
6
CONTINUOUS
10
4.23313
20
-4.7642
11
4.22364
21
-4.77482
0
LINE
8
BLACK
6
CONTINUOUS
10
4.22364
20
-4.77482
11
4.21302
21
-4.78431
0
LINE
8
BLACK
6
CONTINUOUS
10
4.21302
20
-4.78431
11
4.20141
21
-4.79255
0
LINE
8
BLACK
6
CONTINUOUS
10
4.20141
20
-4.79255
11
4.18895
21
-4.79943
0
LINE
8
BLACK
6
CONTINUOUS
10
4.18895
20
-4.79943
11
4.17579
21
-4.80488
0
LINE
8
BLACK
6
CONTINUOUS
10
4.17579
20
-4.80488
11
4.16211
21
-4.80882
0
LINE
8
BLACK
6
CONTINUOUS
10
4.16211
20
-4.80882
11
4.14807
21
-4.81121
0
LINE
8
BLACK
6
CONTINUOUS
10
4.14807
20
-4.81121
11
4.13386
21
-4.81201
0
LINE
8
BLACK
6
CONTINUOUS
10
4.13386
20
-4.81201
11
4.11964
21
-4.81121
0
LINE
8
BLACK
6
CONTINUOUS
10
4.11964
20
-4.81121
11
4.10561
21
-4.80882
0
LINE
8
BLACK
6
CONTINUOUS
10
4.10561
20
-4.80882
11
4.09192
21
-4.80488
0
LINE
8
BLACK
6
CONTINUOUS
10
4.09192
20
-4.80488
11
4.07877
21
-4.79943
0
LINE
8
BLACK
6
CONTINUOUS
10
4.07877
20
-4.79943
11
4.06631
21
-4.79255
0
LINE
8
BLACK
6
CONTINUOUS
10
4.06631
20
-4.79255
11
4.05469
21
-4.78431
0
LINE
8
BLACK
6
CONTINUOUS
10
4.05469
20
-4.78431
11
4.04408
21
-4.77482
0
LINE
8
BLACK
6
CONTINUOUS
10
4.04408
20
-4.77482
11
4.03459
21
-4.7642
0
LINE
8
BLACK
6
CONTINUOUS
10
4.03459
20
-4.7642
11
4.02635
21
-4.75259
0
LINE
8
BLACK
6
CONTINUOUS
10
4.02635
20
-4.75259
11
4.01946
21
-4.74013
0
LINE
8
BLACK
6
CONTINUOUS
10
4.01946
20
-4.74013
11
4.01401
21
-4.72697
0
LINE
8
BLACK
6
CONTINUOUS
10
4.01401
20
-4.72697
11
4.01007
21
-4.71329
0
LINE
8
BLACK
6
CONTINUOUS
10
4.01007
20
-4.71329
11
4.00769
21
-4.69926
0
LINE
8
BLACK
6
CONTINUOUS
10
4.00769
20
-4.69926
11
4.00689
21
-4.68504
0
LINE
8
BLACK
6
CONTINUOUS
10
4.00689
20
-4.68504
11
4.00769
21
-4.67082
0
LINE
8
BLACK
6
CONTINUOUS
10
4.00769
20
-4.67082
11
4.01007
21
-4.65679
0
LINE
8
BLACK
6
CONTINUOUS
10
4.01007
20
-4.65679
11
4.01401
21
-4.6431
0
LINE
8
BLACK
6
CONTINUOUS
10
4.01401
20
-4.6431
11
4.01946
21
-4.62995
0
LINE
8
BLACK
6
CONTINUOUS
10
4.01946
20
-4.62995
11
4.02635
21
-4.61749
0
LINE
8
BLACK
6
CONTINUOUS
10
4.02635
20
-4.61749
11
4.03459
21
-4.60588
0
LINE
8
BLACK
6
CONTINUOUS
10
4.03459
20
-4.60588
11
4.04408
21
-4.59526
0
LINE
8
BLACK
6
CONTINUOUS
10
4.04408
20
-4.59526
11
4.05469
21
-4.58577
0
LINE
8
BLACK
6
CONTINUOUS
10
4.05469
20
-4.58577
11
4.06631
21
-4.57753
0
LINE
8
BLACK
6
CONTINUOUS
10
4.06631
20
-4.57753
11
4.07877
21
-4.57064
0
LINE
8
BLACK
6
CONTINUOUS
10
4.07877
20
-4.57064
11
4.09192
21
-4.5652
0
LINE
8
BLACK
6
CONTINUOUS
10
4.09192
20
-4.5652
11
4.10561
21
-4.56125
0
LINE
8
BLACK
6
CONTINUOUS
10
4.10561
20
-4.56125
11
4.11964
21
-4.55887
0
LINE
8
BLACK
6
CONTINUOUS
10
4.11964
20
-4.55887
11
4.13386
21
-4.55807
0
LINE
8
BLACK
6
CONTINUOUS
10
4.13386
20
-4.55807
11
4.14807
21
-4.55887
0
LINE
8
BLACK
6
CONTINUOUS
10
4.00945
20
-4.69906
11
4.0118
21
-4.7129
0
LINE
8
BLACK
6
CONTINUOUS
10
4.0118
20
-4.7129
11
4.01569
21
-4.72639
0
LINE
8
BLACK
6
CONTINUOUS
10
4.01569
20
-4.72639
11
4.02106
21
-4.73936
0
LINE
8
BLACK
6
CONTINUOUS
10
4.02106
20
-4.73936
11
4.02785
21
-4.75165
0
LINE
8
BLACK
6
CONTINUOUS
10
4.02785
20
-4.75165
11
4.03598
21
-4.7631
0
LINE
8
BLACK
6
CONTINUOUS
10
4.03598
20
-4.7631
11
4.04533
21
-4.77357
0
LINE
8
BLACK
6
CONTINUOUS
10
4.04533
20
-4.77357
11
4.0558
21
-4.78292
0
LINE
8
BLACK
6
CONTINUOUS
10
4.0558
20
-4.78292
11
4.06725
21
-4.79105
0
LINE
8
BLACK
6
CONTINUOUS
10
4.06725
20
-4.79105
11
4.07954
21
-4.79784
0
LINE
8
BLACK
6
CONTINUOUS
10
4.07954
20
-4.79784
11
4.09251
21
-4.80321
0
LINE
8
BLACK
6
CONTINUOUS
10
4.09251
20
-4.80321
11
4.106
21
-4.8071
0
LINE
8
BLACK
6
CONTINUOUS
10
4.106
20
-4.8071
11
4.11984
21
-4.80945
0
LINE
8
BLACK
6
CONTINUOUS
10
4.11984
20
-4.80945
11
4.13386
21
-4.81024
0
LINE
8
BLACK
6
CONTINUOUS
10
4.13386
20
-4.81024
11
4.14788
21
-4.80945
0
LINE
8
BLACK
6
CONTINUOUS
10
4.14788
20
-4.80945
11
4.16172
21
-4.8071
0
LINE
8
BLACK
6
CONTINUOUS
10
4.16172
20
-4.8071
11
4.17521
21
-4.80321
0
LINE
8
BLACK
6
CONTINUOUS
10
4.17521
20
-4.80321
11
4.18818
21
-4.79784
0
LINE
8
BLACK
6
CONTINUOUS
10
4.18818
20
-4.79784
11
4.20047
21
-4.79105
0
LINE
8
BLACK
6
CONTINUOUS
10
4.20047
20
-4.79105
11
4.21192
21
-4.78292
0
LINE
8
BLACK
6
CONTINUOUS
10
4.21192
20
-4.78292
11
4.22239
21
-4.77357
0
LINE
8
BLACK
6
CONTINUOUS
10
4.22239
20
-4.77357
11
4.23174
21
-4.7631
0
LINE
8
BLACK
6
CONTINUOUS
10
4.23174
20
-4.7631
11
4.23987
21
-4.75165
0
LINE
8
BLACK
6
CONTINUOUS
10
4.23987
20
-4.75165
11
4.24666
21
-4.73936
0
LINE
8
BLACK
6
CONTINUOUS
10
4.24666
20
-4.73936
11
4.25203
21
-4.72639
0
LINE
8
BLACK
6
CONTINUOUS
10
4.25203
20
-4.72639
11
4.25592
21
-4.7129
0
LINE
8
BLACK
6
CONTINUOUS
10
4.25592
20
-4.7129
11
4.25827
21
-4.69906
0
LINE
8
BLACK
6
CONTINUOUS
10
4.25827
20
-4.69906
11
4.25906
21
-4.68504
0
LINE
8
BLACK
6
CONTINUOUS
10
4.25906
20
-4.68504
11
4.25827
21
-4.67102
0
LINE
8
BLACK
6
CONTINUOUS
10
4.25827
20
-4.67102
11
4.25592
21
-4.65718
0
LINE
8
BLACK
6
CONTINUOUS
10
4.25592
20
-4.65718
11
4.25203
21
-4.64369
0
LINE
8
BLACK
6
CONTINUOUS
10
4.25203
20
-4.64369
11
4.24666
21
-4.63072
0
LINE
8
BLACK
6
CONTINUOUS
10
4.24666
20
-4.63072
11
4.23987
21
-4.61843
0
LINE
8
BLACK
6
CONTINUOUS
10
4.23987
20
-4.61843
11
4.23174
21
-4.60698
0
LINE
8
BLACK
6
CONTINUOUS
10
4.23174
20
-4.60698
11
4.22239
21
-4.59651
0
LINE
8
BLACK
6
CONTINUOUS
10
4.22239
20
-4.59651
11
4.21192
21
-4.58716
0
LINE
8
BLACK
6
CONTINUOUS
10
4.21192
20
-4.58716
11
4.20047
21
-4.57903
0
LINE
8
BLACK
6
CONTINUOUS
10
4.20047
20
-4.57903
11
4.18818
21
-4.57224
0
LINE
8
BLACK
6
CONTINUOUS
10
4.18818
20
-4.57224
11
4.17521
21
-4.56687
0
LINE
8
BLACK
6
CONTINUOUS
10
4.17521
20
-4.56687
11
4.16172
21
-4.56298
0
LINE
8
BLACK
6
CONTINUOUS
10
4.16172
20
-4.56298
11
4.14788
21
-4.56063
0
LINE
8
BLACK
6
CONTINUOUS
10
4.14788
20
-4.56063
11
4.13386
21
-4.55984
0
LINE
8
BLACK
6
CONTINUOUS
10
4.13386
20
-4.55984
11
4.11984
21
-4.56063
0
LINE
8
BLACK
6
CONTINUOUS
10
4.11984
20
-4.56063
11
4.106
21
-4.56298
0
LINE
8
BLACK
6
CONTINUOUS
10
4.106
20
-4.56298
11
4.09251
21
-4.56687
0
LINE
8
BLACK
6
CONTINUOUS
10
4.09251
20
-4.56687
11
4.07954
21
-4.57224
0
LINE
8
BLACK
6
CONTINUOUS
10
4.07954
20
-4.57224
11
4.06725
21
-4.57903
0
LINE
8
BLACK
6
CONTINUOUS
10
4.06725
20
-4.57903
11
4.0558
21
-4.58716
0
LINE
8
BLACK
6
CONTINUOUS
10
4.0558
20
-4.58716
11
4.04533
21
-4.59651
0
LINE
8
BLACK
6
CONTINUOUS
10
4.04533
20
-4.59651
11
4.03598
21
-4.60698
0
LINE
8
BLACK
6
CONTINUOUS
10
4.03598
20
-4.60698
11
4.02785
21
-4.61843
0
LINE
8
BLACK
6
CONTINUOUS
10
4.02785
20
-4.61843
11
4.02106
21
-4.63072
0
LINE
8
BLACK
6
CONTINUOUS
10
4.02106
20
-4.63072
11
4.01569
21
-4.64369
0
LINE
8
BLACK
6
CONTINUOUS
10
4.01569
20
-4.64369
11
4.0118
21
-4.65718
0
LINE
8
BLACK
6
CONTINUOUS
10
4.0118
20
-4.65718
11
4.00945
21
-4.67102
0
LINE
8
BLACK
6
CONTINUOUS
10
4.00945
20
-4.67102
11
4.00866
21
-4.68504
0
LINE
8
BLACK
6
CONTINUOUS
10
4.00866
20
-4.68504
11
4.00945
21
-4.69906
0
LINE
8
BLACK
6
CONTINUOUS
10
7.10083
20
-4.55887
11
7.11487
21
-4.56125
0
LINE
8
BLACK
6
CONTINUOUS
10
7.11487
20
-4.56125
11
7.12855
21
-4.5652
0
LINE
8
BLACK
6
CONTINUOUS
10
7.12855
20
-4.5652
11
7.1417
21
-4.57064
0
LINE
8
BLACK
6
CONTINUOUS
10
7.1417
20
-4.57064
11
7.15417
21
-4.57753
0
LINE
8
BLACK
6
CONTINUOUS
10
7.15417
20
-4.57753
11
7.16578
21
-4.58577
0
LINE
8
BLACK
6
CONTINUOUS
10
7.16578
20
-4.58577
11
7.17639
21
-4.59526
0
LINE
8
BLACK
6
CONTINUOUS
10
7.17639
20
-4.59526
11
7.18588
21
-4.60588
0
LINE
8
BLACK
6
CONTINUOUS
10
7.18588
20
-4.60588
11
7.19412
21
-4.61749
0
LINE
8
BLACK
6
CONTINUOUS
10
7.19412
20
-4.61749
11
7.20101
21
-4.62995
0
LINE
8
BLACK
6
CONTINUOUS
10
7.20101
20
-4.62995
11
7.20646
21
-4.6431
0
LINE
8
BLACK
6
CONTINUOUS
10
7.20646
20
-4.6431
11
7.2104
21
-4.65679
0
LINE
8
BLACK
6
CONTINUOUS
10
7.2104
20
-4.65679
11
7.21278
21
-4.67082
0
LINE
8
BLACK
6
CONTINUOUS
10
7.21278
20
-4.67082
11
7.21358
21
-4.68504
0
LINE
8
BLACK
6
CONTINUOUS
10
7.21358
20
-4.68504
11
7.21278
21
-4.69926
0
LINE
8
BLACK
6
CONTINUOUS
10
7.21278
20
-4.69926
11
7.2104
21
-4.71329
0
LINE
8
BLACK
6
CONTINUOUS
10
7.2104
20
-4.71329
11
7.20646
21
-4.72697
0
LINE
8
BLACK
6
CONTINUOUS
10
7.20646
20
-4.72697
11
7.20101
21
-4.74013
0
LINE
8
BLACK
6
CONTINUOUS
10
7.20101
20
-4.74013
11
7.19412
21
-4.75259
0
LINE
8
BLACK
6
CONTINUOUS
10
7.19412
20
-4.75259
11
7.18588
21
-4.7642
0
LINE
8
BLACK
6
CONTINUOUS
10
7.18588
20
-4.7642
11
7.17639
21
-4.77482
0
LINE
8
BLACK
6
CONTINUOUS
10
7.17639
20
-4.77482
11
7.16578
21
-4.78431
0
LINE
8
BLACK
6
CONTINUOUS
10
7.16578
20
-4.78431
11
7.15417
21
-4.79255
0
LINE
8
BLACK
6
CONTINUOUS
10
7.15417
20
-4.79255
11
7.1417
21
-4.79943
0
LINE
8
BLACK
6
CONTINUOUS
10
7.1417
20
-4.79943
11
7.12855
21
-4.80488
0
LINE
8
BLACK
6
CONTINUOUS
10
7.12855
20
-4.80488
11
7.11487
21
-4.80882
0
LINE
8
BLACK
6
CONTINUOUS
10
7.11487
20
-4.80882
11
7.10083
21
-4.81121
0
LINE
8
BLACK
6
CONTINUOUS
10
7.10083
20
-4.81121
11
7.08661
21
-4.81201
0
LINE
8
BLACK
6
CONTINUOUS
10
7.08661
20
-4.81201
11
7.0724
21
-4.81121
0
LINE
8
BLACK
6
CONTINUOUS
10
7.0724
20
-4.81121
11
7.05836
21
-4.80882
0
LINE
8
BLACK
6
CONTINUOUS
10
7.05836
20
-4.80882
11
7.04468
21
-4.80488
0
LINE
8
BLACK
6
CONTINUOUS
10
7.04468
20
-4.80488
11
7.03152
21
-4.79943
0
LINE
8
BLACK
6
CONTINUOUS
10
7.03152
20
-4.79943
11
7.01906
21
-4.79255
0
LINE
8
BLACK
6
CONTINUOUS
10
7.01906
20
-4.79255
11
7.00745
21
-4.78431
0
LINE
8
BLACK
6
CONTINUOUS
10
7.00745
20
-4.78431
11
6.99683
21
-4.77482
0
LINE
8
BLACK
6
CONTINUOUS
10
6.99683
20
-4.77482
11
6.98735
21
-4.7642
0
LINE
8
BLACK
6
CONTINUOUS
10
6.98735
20
-4.7642
11
6.97911
21
-4.75259
0
LINE
8
BLACK
6
CONTINUOUS
10
6.97911
20
-4.75259
11
6.97222
21
-4.74013
0
LINE
8
BLACK
6
CONTINUOUS
10
6.97222
20
-4.74013
11
6.96677
21
-4.72697
0
LINE
8
BLACK
6
CONTINUOUS
10
6.96677
20
-4.72697
11
6.96283
21
-4.71329
0
LINE
8
BLACK
6
CONTINUOUS
10
6.96283
20
-4.71329
11
6.96044
21
-4.69926
0
LINE
8
BLACK
6
CONTINUOUS
10
6.96044
20
-4.69926
11
6.95965
21
-4.68504
0
LINE
8
BLACK
6
CONTINUOUS
10
6.95965
20
-4.68504
11
6.96044
21
-4.67082
0
LINE
8
BLACK
6
CONTINUOUS
10
6.96044
20
-4.67082
11
6.96283
21
-4.65679
0
LINE
8
BLACK
6
CONTINUOUS
10
6.96283
20
-4.65679
11
6.96677
21
-4.6431
0
LINE
8
BLACK
6
CONTINUOUS
10
6.96677
20
-4.6431
11
6.97222
21
-4.62995
0
LINE
8
BLACK
6
CONTINUOUS
10
6.97222
20
-4.62995
11
6.97911
21
-4.61749
0
LINE
8
BLACK
6
CONTINUOUS
10
6.97911
20
-4.61749
11
6.98735
21
-4.60588
0
LINE
8
BLACK
6
CONTINUOUS
10
6.98735
20
-4.60588
11
6.99683
21
-4.59526
0
LINE
8
BLACK
6
CONTINUOUS
10
6.99683
20
-4.59526
11
7.00745
21
-4.58577
0
LINE
8
BLACK
6
CONTINUOUS
10
7.00745
20
-4.58577
11
7.01906
21
-4.57753
0
LINE
8
BLACK
6
CONTINUOUS
10
7.01906
20
-4.57753
11
7.03152
21
-4.57064
0
LINE
8
BLACK
6
CONTINUOUS
10
7.03152
20
-4.57064
11
7.04468
21
-4.5652
0
LINE
8
BLACK
6
CONTINUOUS
10
7.04468
20
-4.5652
11
7.05836
21
-4.56125
0
LINE
8
BLACK
6
CONTINUOUS
10
7.05836
20
-4.56125
11
7.0724
21
-4.55887
0
LINE
8
BLACK
6
CONTINUOUS
10
7.0724
20
-4.55887
11
7.08661
21
-4.55807
0
LINE
8
BLACK
6
CONTINUOUS
10
7.08661
20
-4.55807
11
7.10083
21
-4.55887
0
LINE
8
BLACK
6
CONTINUOUS
10
6.9622
20
-4.69906
11
6.96456
21
-4.7129
0
LINE
8
BLACK
6
CONTINUOUS
10
6.96456
20
-4.7129
11
6.96844
21
-4.72639
0
LINE
8
BLACK
6
CONTINUOUS
10
6.96844
20
-4.72639
11
6.97382
21
-4.73936
0
LINE
8
BLACK
6
CONTINUOUS
10
6.97382
20
-4.73936
11
6.98061
21
-4.75165
0
LINE
8
BLACK
6
CONTINUOUS
10
6.98061
20
-4.75165
11
6.98873
21
-4.7631
0
LINE
8
BLACK
6
CONTINUOUS
10
6.98873
20
-4.7631
11
6.99809
21
-4.77357
0
LINE
8
BLACK
6
CONTINUOUS
10
6.99809
20
-4.77357
11
7.00856
21
-4.78292
0
LINE
8
BLACK
6
CONTINUOUS
10
7.00856
20
-4.78292
11
7.02001
21
-4.79105
0
LINE
8
BLACK
6
CONTINUOUS
10
7.02001
20
-4.79105
11
7.03229
21
-4.79784
0
LINE
8
BLACK
6
CONTINUOUS
10
7.03229
20
-4.79784
11
7.04526
21
-4.80321
0
LINE
8
BLACK
6
CONTINUOUS
10
7.04526
20
-4.80321
11
7.05876
21
-4.8071
0
LINE
8
BLACK
6
CONTINUOUS
10
7.05876
20
-4.8071
11
7.0726
21
-4.80945
0
LINE
8
BLACK
6
CONTINUOUS
10
7.0726
20
-4.80945
11
7.08661
21
-4.81024
0
LINE
8
BLACK
6
CONTINUOUS
10
7.08661
20
-4.81024
11
7.10063
21
-4.80945
0
LINE
8
BLACK
6
CONTINUOUS
10
7.10063
20
-4.80945
11
7.11447
21
-4.8071
0
LINE
8
BLACK
6
CONTINUOUS
10
7.11447
20
-4.8071
11
7.12796
21
-4.80321
0
LINE
8
BLACK
6
CONTINUOUS
10
7.12796
20
-4.80321
11
7.14094
21
-4.79784
0
LINE
8
BLACK
6
CONTINUOUS
10
7.14094
20
-4.79784
11
7.15322
21
-4.79105
0
LINE
8
BLACK
6
CONTINUOUS
10
7.15322
20
-4.79105
11
7.16467
21
-4.78292
0
LINE
8
BLACK
6
CONTINUOUS
10
7.16467
20
-4.78292
11
7.17514
21
-4.77357
0
LINE
8
BLACK
6
CONTINUOUS
10
7.17514
20
-4.77357
11
7.1845
21
-4.7631
0
LINE
8
BLACK
6
CONTINUOUS
10
7.1845
20
-4.7631
11
7.19262
21
-4.75165
0
LINE
8
BLACK
6
CONTINUOUS
10
7.19262
20
-4.75165
11
7.19941
21
-4.73936
0
LINE
8
BLACK
6
CONTINUOUS
10
7.19941
20
-4.73936
11
7.20479
21
-4.72639
0
LINE
8
BLACK
6
CONTINUOUS
10
7.20479
20
-4.72639
11
7.20867
21
-4.7129
0
LINE
8
BLACK
6
CONTINUOUS
10
7.20867
20
-4.7129
11
7.21102
21
-4.69906
0
LINE
8
BLACK
6
CONTINUOUS
10
7.21102
20
-4.69906
11
7.21181
21
-4.68504
0
LINE
8
BLACK
6
CONTINUOUS
10
7.21181
20
-4.68504
11
7.21102
21
-4.67102
0
LINE
8
BLACK
6
CONTINUOUS
10
7.21102
20
-4.67102
11
7.20867
21
-4.65718
0
LINE
8
BLACK
6
CONTINUOUS
10
7.20867
20
-4.65718
11
7.20479
21
-4.64369
0
LINE
8
BLACK
6
CONTINUOUS
10
7.20479
20
-4.64369
11
7.19941
21
-4.63072
0
LINE
8
BLACK
6
CONTINUOUS
10
7.19941
20
-4.63072
11
7.19262
21
-4.61843
0
LINE
8
BLACK
6
CONTINUOUS
10
7.19262
20
-4.61843
11
7.1845
21
-4.60698
0
LINE
8
BLACK
6
CONTINUOUS
10
7.1845
20
-4.60698
11
7.17514
21
-4.59651
0
LINE
8
BLACK
6
CONTINUOUS
10
7.17514
20
-4.59651
11
7.16467
21
-4.58716
0
LINE
8
BLACK
6
CONTINUOUS
10
7.16467
20
-4.58716
11
7.15322
21
-4.57903
0
LINE
8
BLACK
6
CONTINUOUS
10
7.15322
20
-4.57903
11
7.14094
21
-4.57224
0
LINE
8
BLACK
6
CONTINUOUS
10
7.14094
20
-4.57224
11
7.12796
21
-4.56687
0
LINE
8
BLACK
6
CONTINUOUS
10
7.12796
20
-4.56687
11
7.11447
21
-4.56298
0
LINE
8
BLACK
6
CONTINUOUS
10
7.11447
20
-4.56298
11
7.10063
21
-4.56063
0
LINE
8
BLACK
6
CONTINUOUS
10
7.10063
20
-4.56063
11
7.08661
21
-4.55984
0
LINE
8
BLACK
6
CONTINUOUS
10
7.08661
20
-4.55984
11
7.0726
21
-4.56063
0
LINE
8
BLACK
6
CONTINUOUS
10
7.0726
20
-4.56063
11
7.05876
21
-4.56298
0
LINE
8
BLACK
6
CONTINUOUS
10
7.05876
20
-4.56298
11
7.04526
21
-4.56687
0
LINE
8
BLACK
6
CONTINUOUS
10
7.04526
20
-4.56687
11
7.03229
21
-4.57224
0
LINE
8
BLACK
6
CONTINUOUS
10
7.03229
20
-4.57224
11
7.02001
21
-4.57903
0
LINE
8
BLACK
6
CONTINUOUS
10
7.02001
20
-4.57903
11
7.00856
21
-4.58716
0
LINE
8
BLACK
6
CONTINUOUS
10
7.00856
20
-4.58716
11
6.99809
21
-4.59651
0
LINE
8
BLACK
6
CONTINUOUS
10
6.99809
20
-4.59651
11
6.98873
21
-4.60698
0
LINE
8
BLACK
6
CONTINUOUS
10
6.98873
20
-4.60698
11
6.98061
21
-4.61843
0
LINE
8
BLACK
6
CONTINUOUS
10
6.98061
20
-4.61843
11
6.97382
21
-4.63072
0
LINE
8
BLACK
6
CONTINUOUS
10
6.97382
20
-4.63072
11
6.96844
21
-4.64369
0
LINE
8
BLACK
6
CONTINUOUS
10
6.96844
20
-4.64369
11
6.96456
21
-4.65718
0
LINE
8
BLACK
6
CONTINUOUS
10
6.96456
20
-4.65718
11
6.9622
21
-4.67102
0
LINE
8
BLACK
6
CONTINUOUS
10
6.9622
20
-4.67102
11
6.96142
21
-4.68504
0
LINE
8
BLACK
6
CONTINUOUS
10
6.96142
20
-4.68504
11
6.9622
21
-4.69906
0
LINE
8
BLACK
6
CONTINUOUS
10
4.80354
20
-2.6201
11
4.80424
21
-2.62039
0
LINE
8
BLACK
6
CONTINUOUS
10
4.80424
20
-2.62039
11
4.80453
21
-2.62109
0
LINE
8
BLACK
6
CONTINUOUS
10
4.80453
20
-2.62109
11
4.80453
21
-4.66046
0
LINE
8
BLACK
6
CONTINUOUS
10
4.80453
20
-4.66046
11
4.80424
21
-4.66115
0
LINE
8
BLACK
6
CONTINUOUS
10
4.80424
20
-4.66115
11
4.80354
21
-4.66144
0
LINE
8
BLACK
6
CONTINUOUS
10
4.80354
20
-4.66144
11
4.56339
21
-4.66144
0
LINE
8
BLACK
6
CONTINUOUS
10
4.56339
20
-4.66144
11
4.56269
21
-4.66115
0
LINE
8
BLACK
6
CONTINUOUS
10
4.56269
20
-4.66115
11
4.5624
21
-4.66046
0
LINE
8
BLACK
6
CONTINUOUS
10
4.5624
20
-4.66046
11
4.5624
21
-2.62109
0
LINE
8
BLACK
6
CONTINUOUS
10
4.5624
20
-2.62109
11
4.56269
21
-2.62039
0
LINE
8
BLACK
6
CONTINUOUS
10
4.56269
20
-2.62039
11
4.56339
21
-2.6201
0
LINE
8
BLACK
6
CONTINUOUS
10
4.56339
20
-2.6201
11
4.80354
21
-2.6201
0
LINE
8
BLACK
6
CONTINUOUS
10
4.56437
20
-2.62207
11
4.56437
21
-4.65947
0
LINE
8
BLACK
6
CONTINUOUS
10
4.56437
20
-4.65947
11
4.80256
21
-4.65947
0
LINE
8
BLACK
6
CONTINUOUS
10
4.80256
20
-4.65947
11
4.80256
21
-2.62207
0
LINE
8
BLACK
6
CONTINUOUS
10
4.80256
20
-2.62207
11
4.56437
21
-2.62207
0
LINE
8
BLACK
6
CONTINUOUS
10
6.23287
20
-2.87483
11
6.23357
21
-2.87512
0
LINE
8
BLACK
6
CONTINUOUS
10
6.23357
20
-2.87512
11
6.23386
21
-2.87581
0
LINE
8
BLACK
6
CONTINUOUS
10
6.23386
20
-2.87581
11
6.23386
21
-3.21636
0
LINE
8
BLACK
6
CONTINUOUS
10
6.23386
20
-3.21636
11
6.23357
21
-3.21706
0
LINE
8
BLACK
6
CONTINUOUS
10
6.23357
20
-3.21706
11
6.23287
21
-3.21735
0
LINE
8
BLACK
6
CONTINUOUS
10
6.23287
20
-3.21735
11
5.99272
21
-3.21735
0
LINE
8
BLACK
6
CONTINUOUS
10
5.99272
20
-3.21735
11
5.99202
21
-3.21706
0
LINE
8
BLACK
6
CONTINUOUS
10
5.99202
20
-3.21706
11
5.99173
21
-3.21636
0
LINE
8
BLACK
6
CONTINUOUS
10
5.99173
20
-3.21636
11
5.99173
21
-2.87581
0
LINE
8
BLACK
6
CONTINUOUS
10
5.99173
20
-2.87581
11
5.99202
21
-2.87512
0
LINE
8
BLACK
6
CONTINUOUS
10
5.99202
20
-2.87512
11
5.99272
21
-2.87483
0
LINE
8
BLACK
6
CONTINUOUS
10
5.99272
20
-2.87483
11
6.23287
21
-2.87483
0
LINE
8
BLACK
6
CONTINUOUS
10
5.9937
20
-2.8768
11
5.9937
21
-3.21538
0
LINE
8
BLACK
6
CONTINUOUS
10
5.9937
20
-3.21538
11
6.23189
21
-3.21538
0
LINE
8
BLACK
6
CONTINUOUS
10
6.23189
20
-3.21538
11
6.23189
21
-2.8768
0
LINE
8
BLACK
6
CONTINUOUS
10
6.23189
20
-2.8768
11
5.9937
21
-2.8768
0
LINE
8
BLACK
6
CONTINUOUS
10
1.19532
20
-2.51163
11
1.20936
21
-2.51401
0
LINE
8
BLACK
6
CONTINUOUS
10
1.20936
20
-2.51401
11
1.22304
21
-2.51795
0
LINE
8
BLACK
6
CONTINUOUS
10
1.22304
20
-2.51795
11
1.23619
21
-2.5234
0
LINE
8
BLACK
6
CONTINUOUS
10
1.23619
20
-2.5234
11
1.24865
21
-2.53029
0
LINE
8
BLACK
6
CONTINUOUS
10
1.24865
20
-2.53029
11
1.26027
21
-2.53853
0
LINE
8
BLACK
6
CONTINUOUS
10
1.26027
20
-2.53853
11
1.27088
21
-2.54801
0
LINE
8
BLACK
6
CONTINUOUS
10
1.27088
20
-2.54801
11
1.28037
21
-2.55863
0
LINE
8
BLACK
6
CONTINUOUS
10
1.28037
20
-2.55863
11
1.28861
21
-2.57024
0
LINE
8
BLACK
6
CONTINUOUS
10
1.28861
20
-2.57024
11
1.2955
21
-2.58271
0
LINE
8
BLACK
6
CONTINUOUS
10
1.2955
20
-2.58271
11
1.30095
21
-2.59586
0
LINE
8
BLACK
6
CONTINUOUS
10
1.30095
20
-2.59586
11
1.30489
21
-2.60954
0
LINE
8
BLACK
6
CONTINUOUS
10
1.30489
20
-2.60954
11
1.30727
21
-2.62358
0
LINE
8
BLACK
6
CONTINUOUS
10
1.30727
20
-2.62358
11
1.30807
21
-2.6378
0
LINE
8
BLACK
6
CONTINUOUS
10
1.30807
20
-2.6378
11
1.30727
21
-2.65201
0
LINE
8
BLACK
6
CONTINUOUS
10
1.30727
20
-2.65201
11
1.30489
21
-2.66605
0
LINE
8
BLACK
6
CONTINUOUS
10
1.30489
20
-2.66605
11
1.30095
21
-2.67973
0
LINE
8
BLACK
6
CONTINUOUS
10
1.30095
20
-2.67973
11
1.2955
21
-2.69288
0
LINE
8
BLACK
6
CONTINUOUS
10
1.2955
20
-2.69288
11
1.28861
21
-2.70535
0
LINE
8
BLACK
6
CONTINUOUS
10
1.28861
20
-2.70535
11
1.28037
21
-2.71696
0
LINE
8
BLACK
6
CONTINUOUS
10
1.28037
20
-2.71696
11
1.27088
21
-2.72758
0
LINE
8
BLACK
6
CONTINUOUS
10
1.27088
20
-2.72758
11
1.26027
21
-2.73706
0
LINE
8
BLACK
6
CONTINUOUS
10
1.26027
20
-2.73706
11
1.24865
21
-2.7453
0
LINE
8
BLACK
6
CONTINUOUS
10
1.24865
20
-2.7453
11
1.23619
21
-2.75219
0
LINE
8
BLACK
6
CONTINUOUS
10
1.23619
20
-2.75219
11
1.22304
21
-2.75764
0
LINE
8
BLACK
6
CONTINUOUS
10
1.22304
20
-2.75764
11
1.20936
21
-2.76158
0
LINE
8
BLACK
6
CONTINUOUS
10
1.20936
20
-2.76158
11
1.19532
21
-2.76397
0
LINE
8
BLACK
6
CONTINUOUS
10
1.19532
20
-2.76397
11
1.1811
21
-2.76476
0
LINE
8
BLACK
6
CONTINUOUS
10
1.1811
20
-2.76476
11
1.16689
21
-2.76397
0
LINE
8
BLACK
6
CONTINUOUS
10
1.16689
20
-2.76397
11
1.15285
21
-2.76158
0
LINE
8
BLACK
6
CONTINUOUS
10
1.15285
20
-2.76158
11
1.13917
21
-2.75764
0
LINE
8
BLACK
6
CONTINUOUS
10
1.13917
20
-2.75764
11
1.12601
21
-2.75219
0
LINE
8
BLACK
6
CONTINUOUS
10
1.12601
20
-2.75219
11
1.11355
21
-2.7453
0
LINE
8
BLACK
6
CONTINUOUS
10
1.11355
20
-2.7453
11
1.10194
21
-2.73706
0
LINE
8
BLACK
6
CONTINUOUS
10
1.10194
20
-2.73706
11
1.09132
21
-2.72758
0
LINE
8
BLACK
6
CONTINUOUS
10
1.09132
20
-2.72758
11
1.08183
21
-2.71696
0
LINE
8
BLACK
6
CONTINUOUS
10
1.08183
20
-2.71696
11
1.0736
21
-2.70535
0
LINE
8
BLACK
6
CONTINUOUS
10
1.0736
20
-2.70535
11
1.06671
21
-2.69288
0
LINE
8
BLACK
6
CONTINUOUS
10
1.06671
20
-2.69288
11
1.06126
21
-2.67973
0
LINE
8
BLACK
6
CONTINUOUS
10
1.06126
20
-2.67973
11
1.05732
21
-2.66605
0
LINE
8
BLACK
6
CONTINUOUS
10
1.05732
20
-2.66605
11
1.05493
21
-2.65201
0
LINE
8
BLACK
6
CONTINUOUS
10
1.05493
20
-2.65201
11
1.05413
21
-2.6378
0
LINE
8
BLACK
6
CONTINUOUS
10
1.05413
20
-2.6378
11
1.05493
21
-2.62358
0
LINE
8
BLACK
6
CONTINUOUS
10
1.05493
20
-2.62358
11
1.05732
21
-2.60954
0
LINE
8
BLACK
6
CONTINUOUS
10
1.05732
20
-2.60954
11
1.06126
21
-2.59586
0
LINE
8
BLACK
6
CONTINUOUS
10
1.06126
20
-2.59586
11
1.06671
21
-2.58271
0
LINE
8
BLACK
6
CONTINUOUS
10
1.06671
20
-2.58271
11
1.0736
21
-2.57024
0
LINE
8
BLACK
6
CONTINUOUS
10
1.0736
20
-2.57024
11
1.08183
21
-2.55863
0
LINE
8
BLACK
6
CONTINUOUS
10
1.08183
20
-2.55863
11
1.09132
21
-2.54801
0
LINE
8
BLACK
6
CONTINUOUS
10
1.09132
20
-2.54801
11
1.10194
21
-2.53853
0
LINE
8
BLACK
6
CONTINUOUS
10
1.10194
20
-2.53853
11
1.11355
21
-2.53029
0
LINE
8
BLACK
6
CONTINUOUS
10
1.11355
20
-2.53029
11
1.12601
21
-2.5234
0
LINE
8
BLACK
6
CONTINUOUS
10
1.12601
20
-2.5234
11
1.13917
21
-2.51795
0
LINE
8
BLACK
6
CONTINUOUS
10
1.13917
20
-2.51795
11
1.15285
21
-2.51401
0
LINE
8
BLACK
6
CONTINUOUS
10
1.15285
20
-2.51401
11
1.16689
21
-2.51163
0
LINE
8
BLACK
6
CONTINUOUS
10
1.16689
20
-2.51163
11
1.1811
21
-2.51083
0
LINE
8
BLACK
6
CONTINUOUS
10
1.1811
20
-2.51083
11
1.19532
21
-2.51163
0
LINE
8
BLACK
6
CONTINUOUS
10
1.05669
20
-2.65181
11
1.05904
21
-2.66565
0
LINE
8
BLACK
6
CONTINUOUS
10
1.05904
20
-2.66565
11
1.06293
21
-2.67915
0
LINE
8
BLACK
6
CONTINUOUS
10
1.06293
20
-2.67915
11
1.0683
21
-2.69212
0
LINE
8
BLACK
6
CONTINUOUS
10
1.0683
20
-2.69212
11
1.0751
21
-2.7044
0
LINE
8
BLACK
6
CONTINUOUS
10
1.0751
20
-2.7044
11
1.08322
21
-2.71585
0
LINE
8
BLACK
6
CONTINUOUS
10
1.08322
20
-2.71585
11
1.09257
21
-2.72632
0
LINE
8
BLACK
6
CONTINUOUS
10
1.09257
20
-2.72632
11
1.10304
21
-2.73568
0
LINE
8
BLACK
6
CONTINUOUS
10
1.10304
20
-2.73568
11
1.11449
21
-2.7438
0
LINE
8
BLACK
6
CONTINUOUS
10
1.11449
20
-2.7438
11
1.12678
21
-2.75059
0
LINE
8
BLACK
6
CONTINUOUS
10
1.12678
20
-2.75059
11
1.13975
21
-2.75597
0
LINE
8
BLACK
6
CONTINUOUS
10
1.13975
20
-2.75597
11
1.15324
21
-2.75985
0
LINE
8
BLACK
6
CONTINUOUS
10
1.15324
20
-2.75985
11
1.16708
21
-2.76221
0
LINE
8
BLACK
6
CONTINUOUS
10
1.16708
20
-2.76221
11
1.1811
21
-2.76299
0
LINE
8
BLACK
6
CONTINUOUS
10
1.1811
20
-2.76299
11
1.19512
21
-2.76221
0
LINE
8
BLACK
6
CONTINUOUS
10
1.19512
20
-2.76221
11
1.20896
21
-2.75985
0
LINE
8
BLACK
6
CONTINUOUS
10
1.20896
20
-2.75985
11
1.22245
21
-2.75597
0
LINE
8
BLACK
6
CONTINUOUS
10
1.22245
20
-2.75597
11
1.23542
21
-2.75059
0
LINE
8
BLACK
6
CONTINUOUS
10
1.23542
20
-2.75059
11
1.24771
21
-2.7438
0
LINE
8
BLACK
6
CONTINUOUS
10
1.24771
20
-2.7438
11
1.25916
21
-2.73568
0
LINE
8
BLACK
6
CONTINUOUS
10
1.25916
20
-2.73568
11
1.26963
21
-2.72632
0
LINE
8
BLACK
6
CONTINUOUS
10
1.26963
20
-2.72632
11
1.27899
21
-2.71585
0
LINE
8
BLACK
6
CONTINUOUS
10
1.27899
20
-2.71585
11
1.28711
21
-2.7044
0
LINE
8
BLACK
6
CONTINUOUS
10
1.28711
20
-2.7044
11
1.2939
21
-2.69212
0
LINE
8
BLACK
6
CONTINUOUS
10
1.2939
20
-2.69212
11
1.29927
21
-2.67915
0
LINE
8
BLACK
6
CONTINUOUS
10
1.29927
20
-2.67915
11
1.30316
21
-2.66565
0
LINE
8
BLACK
6
CONTINUOUS
10
1.30316
20
-2.66565
11
1.30551
21
-2.65181
0
LINE
8
BLACK
6
CONTINUOUS
10
1.30551
20
-2.65181
11
1.3063
21
-2.6378
0
LINE
8
BLACK
6
CONTINUOUS
10
1.3063
20
-2.6378
11
1.30551
21
-2.62378
0
LINE
8
BLACK
6
CONTINUOUS
10
1.30551
20
-2.62378
11
1.30316
21
-2.60994
0
LINE
8
BLACK
6
CONTINUOUS
10
1.30316
20
-2.60994
11
1.29927
21
-2.59645
0
LINE
8
BLACK
6
CONTINUOUS
10
1.29927
20
-2.59645
11
1.2939
21
-2.58347
0
LINE
8
BLACK
6
CONTINUOUS
10
1.2939
20
-2.58347
11
1.28711
21
-2.57119
0
LINE
8
BLACK
6
CONTINUOUS
10
1.28711
20
-2.57119
11
1.27899
21
-2.55974
0
LINE
8
BLACK
6
CONTINUOUS
10
1.27899
20
-2.55974
11
1.26963
21
-2.54927
0
LINE
8
BLACK
6
CONTINUOUS
10
1.26963
20
-2.54927
11
1.25916
21
-2.53991
0
LINE
8
BLACK
6
CONTINUOUS
10
1.25916
20
-2.53991
11
1.24771
21
-2.53179
0
LINE
8
BLACK
6
CONTINUOUS
10
1.24771
20
-2.53179
11
1.23542
21
-2.525
0
LINE
8
BLACK
6
CONTINUOUS
10
1.23542
20
-2.525
11
1.22245
21
-2.51962
0
LINE
8
BLACK
6
CONTINUOUS
10
1.22245
20
-2.51962
11
1.20896
21
-2.51574
0
LINE
8
BLACK
6
CONTINUOUS
10
1.20896
20
-2.51574
11
1.19512
21
-2.51339
0
LINE
8
BLACK
6
CONTINUOUS
10
1.19512
20
-2.51339
11
1.1811
21
-2.5126
0
LINE
8
BLACK
6
CONTINUOUS
10
1.1811
20
-2.5126
11
1.16708
21
-2.51339
0
LINE
8
BLACK
6
CONTINUOUS
10
1.16708
20
-2.51339
11
1.15324
21
-2.51574
0
LINE
8
BLACK
6
CONTINUOUS
10
1.15324
20
-2.51574
11
1.13975
21
-2.51962
0
LINE
8
BLACK
6
CONTINUOUS
10
1.13975
20
-2.51962
11
1.12678
21
-2.525
0
LINE
8
BLACK
6
CONTINUOUS
10
1.12678
20
-2.525
11
1.11449
21
-2.53179
0
LINE
8
BLACK
6
CONTINUOUS
10
1.11449
20
-2.53179
11
1.10304
21
-2.53991
0
LINE
8
BLACK
6
CONTINUOUS
10
1.10304
20
-2.53991
11
1.09257
21
-2.54927
0
LINE
8
BLACK
6
CONTINUOUS
10
1.09257
20
-2.54927
11
1.08322
21
-2.55974
0
LINE
8
BLACK
6
CONTINUOUS
10
1.08322
20
-2.55974
11
1.0751
21
-2.57119
0
LINE
8
BLACK
6
CONTINUOUS
10
1.0751
20
-2.57119
11
1.0683
21
-2.58347
0
LINE
8
BLACK
6
CONTINUOUS
10
1.0683
20
-2.58347
11
1.06293
21
-2.59645
0
LINE
8
BLACK
6
CONTINUOUS
10
1.06293
20
-2.59645
11
1.05904
21
-2.60994
0
LINE
8
BLACK
6
CONTINUOUS
10
1.05904
20
-2.60994
11
1.05669
21
-2.62378
0
LINE
8
BLACK
6
CONTINUOUS
10
1.05669
20
-2.62378
11
1.05591
21
-2.6378
0
LINE
8
BLACK
6
CONTINUOUS
10
1.05591
20
-2.6378
11
1.05669
21
-2.65181
0
LINE
8
BLACK
6
CONTINUOUS
10
4.14807
20
-2.51163
11
4.16211
21
-2.51401
0
LINE
8
BLACK
6
CONTINUOUS
10
4.16211
20
-2.51401
11
4.17579
21
-2.51795
0
LINE
8
BLACK
6
CONTINUOUS
10
4.17579
20
-2.51795
11
4.18895
21
-2.5234
0
LINE
8
BLACK
6
CONTINUOUS
10
4.18895
20
-2.5234
11
4.20141
21
-2.53029
0
LINE
8
BLACK
6
CONTINUOUS
10
4.20141
20
-2.53029
11
4.21302
21
-2.53853
0
LINE
8
BLACK
6
CONTINUOUS
10
4.21302
20
-2.53853
11
4.22364
21
-2.54801
0
LINE
8
BLACK
6
CONTINUOUS
10
4.22364
20
-2.54801
11
4.23313
21
-2.55863
0
LINE
8
BLACK
6
CONTINUOUS
10
4.23313
20
-2.55863
11
4.24137
21
-2.57024
0
LINE
8
BLACK
6
CONTINUOUS
10
4.24137
20
-2.57024
11
4.24825
21
-2.58271
0
LINE
8
BLACK
6
CONTINUOUS
10
4.24825
20
-2.58271
11
4.2537
21
-2.59586
0
LINE
8
BLACK
6
CONTINUOUS
10
4.2537
20
-2.59586
11
4.25764
21
-2.60954
0
LINE
8
BLACK
6
CONTINUOUS
10
4.25764
20
-2.60954
11
4.26003
21
-2.62358
0
LINE
8
BLACK
6
CONTINUOUS
10
4.26003
20
-2.62358
11
4.26083
21
-2.6378
0
LINE
8
BLACK
6
CONTINUOUS
10
4.26083
20
-2.6378
11
4.26003
21
-2.65201
0
LINE
8
BLACK
6
CONTINUOUS
10
4.26003
20
-2.65201
11
4.25764
21
-2.66605
0
LINE
8
BLACK
6
CONTINUOUS
10
4.25764
20
-2.66605
11
4.2537
21
-2.67973
0
LINE
8
BLACK
6
CONTINUOUS
10
4.2537
20
-2.67973
11
4.24825
21
-2.69288
0
LINE
8
BLACK
6
CONTINUOUS
10
4.24825
20
-2.69288
11
4.24137
21
-2.70535
0
LINE
8
BLACK
6
CONTINUOUS
10
4.24137
20
-2.70535
11
4.23313
21
-2.71696
0
LINE
8
BLACK
6
CONTINUOUS
10
4.23313
20
-2.71696
11
4.22364
21
-2.72758
0
LINE
8
BLACK
6
CONTINUOUS
10
4.22364
20
-2.72758
11
4.21302
21
-2.73706
0
LINE
8
BLACK
6
CONTINUOUS
10
4.21302
20
-2.73706
11
4.20141
21
-2.7453
0
LINE
8
BLACK
6
CONTINUOUS
10
4.20141
20
-2.7453
11
4.18895
21
-2.75219
0
LINE
8
BLACK
6
CONTINUOUS
10
4.18895
20
-2.75219
11
4.17579
21
-2.75764
0
LINE
8
BLACK
6
CONTINUOUS
10
4.17579
20
-2.75764
11
4.16211
21
-2.76158
0
LINE
8
BLACK
6
CONTINUOUS
10
4.16211
20
-2.76158
11
4.14807
21
-2.76397
0
LINE
8
BLACK
6
CONTINUOUS
10
4.14807
20
-2.76397
11
4.13386
21
-2.76476
0
LINE
8
BLACK
6
CONTINUOUS
10
4.13386
20
-2.76476
11
4.11964
21
-2.76397
0
LINE
8
BLACK
6
CONTINUOUS
10
4.11964
20
-2.76397
11
4.10561
21
-2.76158
0
LINE
8
BLACK
6
CONTINUOUS
10
4.10561
20
-2.76158
11
4.09192
21
-2.75764
0
LINE
8
BLACK
6
CONTINUOUS
10
4.09192
20
-2.75764
11
4.07877
21
-2.75219
0
LINE
8
BLACK
6
CONTINUOUS
10
4.07877
20
-2.75219
11
4.06631
21
-2.7453
0
LINE
8
BLACK
6
CONTINUOUS
10
4.06631
20
-2.7453
11
4.05469
21
-2.73706
0
LINE
8
BLACK
6
CONTINUOUS
10
4.05469
20
-2.73706
11
4.04408
21
-2.72758
0
LINE
8
BLACK
6
CONTINUOUS
10
4.04408
20
-2.72758
11
4.03459
21
-2.71696
0
LINE
8
BLACK
6
CONTINUOUS
10
4.03459
20
-2.71696
11
4.02635
21
-2.70535
0
LINE
8
BLACK
6
CONTINUOUS
10
4.02635
20
-2.70535
11
4.01946
21
-2.69288
0
LINE
8
BLACK
6
CONTINUOUS
10
4.01946
20
-2.69288
11
4.01401
21
-2.67973
0
LINE
8
BLACK
6
CONTINUOUS
10
4.01401
20
-2.67973
11
4.01007
21
-2.66605
0
LINE
8
BLACK
6
CONTINUOUS
10
4.01007
20
-2.66605
11
4.00769
21
-2.65201
0
LINE
8
BLACK
6
CONTINUOUS
10
4.00769
20
-2.65201
11
4.00689
21
-2.6378
0
LINE
8
BLACK
6
CONTINUOUS
10
4.00689
20
-2.6378
11
4.00769
21
-2.62358
0
LINE
8
BLACK
6
CONTINUOUS
10
4.00769
20
-2.62358
11
4.01007
21
-2.60954
0
LINE
8
BLACK
6
CONTINUOUS
10
4.01007
20
-2.60954
11
4.01401
21
-2.59586
0
LINE
8
BLACK
6
CONTINUOUS
10
4.01401
20
-2.59586
11
4.01946
21
-2.58271
0
LINE
8
BLACK
6
CONTINUOUS
10
4.01946
20
-2.58271
11
4.02635
21
-2.57024
0
LINE
8
BLACK
6
CONTINUOUS
10
4.02635
20
-2.57024
11
4.03459
21
-2.55863
0
LINE
8
BLACK
6
CONTINUOUS
10
4.03459
20
-2.55863
11
4.04408
21
-2.54801
0
LINE
8
BLACK
6
CONTINUOUS
10
4.04408
20
-2.54801
11
4.05469
21
-2.53853
0
LINE
8
BLACK
6
CONTINUOUS
10
4.05469
20
-2.53853
11
4.06631
21
-2.53029
0
LINE
8
BLACK
6
CONTINUOUS
10
4.06631
20
-2.53029
11
4.07877
21
-2.5234
0
LINE
8
BLACK
6
CONTINUOUS
10
4.07877
20
-2.5234
11
4.09192
21
-2.51795
0
LINE
8
BLACK
6
CONTINUOUS
10
4.09192
20
-2.51795
11
4.10561
21
-2.51401
0
LINE
8
BLACK
6
CONTINUOUS
10
4.10561
20
-2.51401
11
4.11964
21
-2.51163
0
LINE
8
BLACK
6
CONTINUOUS
10
4.11964
20
-2.51163
11
4.13386
21
-2.51083
0
LINE
8
BLACK
6
CONTINUOUS
10
4.13386
20
-2.51083
11
4.14807
21
-2.51163
0
LINE
8
BLACK
6
CONTINUOUS
10
4.00945
20
-2.65181
11
4.0118
21
-2.66565
0
LINE
8
BLACK
6
CONTINUOUS
10
4.0118
20
-2.66565
11
4.01569
21
-2.67915
0
LINE
8
BLACK
6
CONTINUOUS
10
4.01569
20
-2.67915
11
4.02106
21
-2.69212
0
LINE
8
BLACK
6
CONTINUOUS
10
4.02106
20
-2.69212
11
4.02785
21
-2.7044
0
LINE
8
BLACK
6
CONTINUOUS
10
4.02785
20
-2.7044
11
4.03598
21
-2.71585
0
LINE
8
BLACK
6
CONTINUOUS
10
4.03598
20
-2.71585
11
4.04533
21
-2.72632
0
LINE
8
BLACK
6
CONTINUOUS
10
4.04533
20
-2.72632
11
4.0558
21
-2.73568
0
LINE
8
BLACK
6
CONTINUOUS
10
4.0558
20
-2.73568
11
4.06725
21
-2.7438
0
LINE
8
BLACK
6
CONTINUOUS
10
4.06725
20
-2.7438
11
4.07954
21
-2.75059
0
LINE
8
BLACK
6
CONTINUOUS
10
4.07954
20
-2.75059
11
4.09251
21
-2.75597
0
LINE
8
BLACK
6
CONTINUOUS
10
4.09251
20
-2.75597
11
4.106
21
-2.75985
0
LINE
8
BLACK
6
CONTINUOUS
10
4.106
20
-2.75985
11
4.11984
21
-2.76221
0
LINE
8
BLACK
6
CONTINUOUS
10
4.11984
20
-2.76221
11
4.13386
21
-2.76299
0
LINE
8
BLACK
6
CONTINUOUS
10
4.13386
20
-2.76299
11
4.14788
21
-2.76221
0
LINE
8
BLACK
6
CONTINUOUS
10
4.14788
20
-2.76221
11
4.16172
21
-2.75985
0
LINE
8
BLACK
6
CONTINUOUS
10
4.16172
20
-2.75985
11
4.17521
21
-2.75597
0
LINE
8
BLACK
6
CONTINUOUS
10
4.17521
20
-2.75597
11
4.18818
21
-2.75059
0
LINE
8
BLACK
6
CONTINUOUS
10
4.18818
20
-2.75059
11
4.20047
21
-2.7438
0
LINE
8
BLACK
6
CONTINUOUS
10
4.20047
20
-2.7438
11
4.21192
21
-2.73568
0
LINE
8
BLACK
6
CONTINUOUS
10
4.21192
20
-2.73568
11
4.22239
21
-2.72632
0
LINE
8
BLACK
6
CONTINUOUS
10
4.22239
20
-2.72632
11
4.23174
21
-2.71585
0
LINE
8
BLACK
6
CONTINUOUS
10
4.23174
20
-2.71585
11
4.23987
21
-2.7044
0
LINE
8
BLACK
6
CONTINUOUS
10
4.23987
20
-2.7044
11
4.24666
21
-2.69212
0
LINE
8
BLACK
6
CONTINUOUS
10
4.24666
20
-2.69212
11
4.25203
21
-2.67915
0
LINE
8
BLACK
6
CONTINUOUS
10
4.25203
20
-2.67915
11
4.25592
21
-2.66565
0
LINE
8
BLACK
6
CONTINUOUS
10
4.25592
20
-2.66565
11
4.25827
21
-2.65181
0
LINE
8
BLACK
6
CONTINUOUS
10
4.25827
20
-2.65181
11
4.25906
21
-2.6378
0
LINE
8
BLACK
6
CONTINUOUS
10
4.25906
20
-2.6378
11
4.25827
21
-2.62378
0
LINE
8
BLACK
6
CONTINUOUS
10
4.25827
20
-2.62378
11
4.25592
21
-2.60994
0
LINE
8
BLACK
6
CONTINUOUS
10
4.25592
20
-2.60994
11
4.25203
21
-2.59645
0
LINE
8
BLACK
6
CONTINUOUS
10
4.25203
20
-2.59645
11
4.24666
21
-2.58347
0
LINE
8
BLACK
6
CONTINUOUS
10
4.24666
20
-2.58347
11
4.23987
21
-2.57119
0
LINE
8
BLACK
6
CONTINUOUS
10
4.23987
20
-2.57119
11
4.23174
21
-2.55974
0
LINE
8
BLACK
6
CONTINUOUS
10
4.23174
20
-2.55974
11
4.22239
21
-2.54927
0
LINE
8
BLACK
6
CONTINUOUS
10
4.22239
20
-2.54927
11
4.21192
21
-2.53991
0
LINE
8
BLACK
6
CONTINUOUS
10
4.21192
20
-2.53991
11
4.20047
21
-2.53179
0
LINE
8
BLACK
6
CONTINUOUS
10
4.20047
20
-2.53179
11
4.18818
21
-2.525
0
LINE
8
BLACK
6
CONTINUOUS
10
4.18818
20
-2.525
11
4.17521
21
-2.51962
0
LINE
8
BLACK
6
CONTINUOUS
10
4.17521
20
-2.51962
11
4.16172
21
-2.51574
0
LINE
8
BLACK
6
CONTINUOUS
10
4.16172
20
-2.51574
11
4.14788
21
-2.51339
0
LINE
8
BLACK
6
CONTINUOUS
10
4.14788
20
-2.51339
11
4.13386
21
-2.5126
0
LINE
8
BLACK
6
CONTINUOUS
10
4.13386
20
-2.5126
11
4.11984
21
-2.51339
0
LINE
8
BLACK
6
CONTINUOUS
10
4.11984
20
-2.51339
11
4.106
21
-2.51574
0
LINE
8
BLACK
6
CONTINUOUS
10
4.106
20
-2.51574
11
4.09251
21
-2.51962
0
LINE
8
BLACK
6
CONTINUOUS
10
4.09251
20
-2.51962
11
4.07954
21
-2.525
0
LINE
8
BLACK
6
CONTINUOUS
10
4.07954
20
-2.525
11
4.06725
21
-2.53179
0
LINE
8
BLACK
6
CONTINUOUS
10
4.06725
20
-2.53179
11
4.0558
21
-2.53991
0
LINE
8
BLACK
6
CONTINUOUS
10
4.0558
20
-2.53991
11
4.04533
21
-2.54927
0
LINE
8
BLACK
6
CONTINUOUS
10
4.04533
20
-2.54927
11
4.03598
21
-2.55974
0
LINE
8
BLACK
6
CONTINUOUS
10
4.03598
20
-2.55974
11
4.02785
21
-2.57119
0
LINE
8
BLACK
6
CONTINUOUS
10
4.02785
20
-2.57119
11
4.02106
21
-2.58347
0
LINE
8
BLACK
6
CONTINUOUS
10
4.02106
20
-2.58347
11
4.01569
21
-2.59645
0
LINE
8
BLACK
6
CONTINUOUS
10
4.01569
20
-2.59645
11
4.0118
21
-2.60994
0
LINE
8
BLACK
6
CONTINUOUS
10
4.0118
20
-2.60994
11
4.00945
21
-2.62378
0
LINE
8
BLACK
6
CONTINUOUS
10
4.00945
20
-2.62378
11
4.00866
21
-2.6378
0
LINE
8
BLACK
6
CONTINUOUS
10
4.00866
20
-2.6378
11
4.00945
21
-2.65181
0
LINE
8
BLACK
6
CONTINUOUS
10
7.10083
20
-2.51163
11
7.11487
21
-2.51401
0
LINE
8
BLACK
6
CONTINUOUS
10
7.11487
20
-2.51401
11
7.12855
21
-2.51795
0
LINE
8
BLACK
6
CONTINUOUS
10
7.12855
20
-2.51795
11
7.1417
21
-2.5234
0
LINE
8
BLACK
6
CONTINUOUS
10
7.1417
20
-2.5234
11
7.15417
21
-2.53029
0
LINE
8
BLACK
6
CONTINUOUS
10
7.15417
20
-2.53029
11
7.16578
21
-2.53853
0
LINE
8
BLACK
6
CONTINUOUS
10
7.16578
20
-2.53853
11
7.17639
21
-2.54801
0
LINE
8
BLACK
6
CONTINUOUS
10
7.17639
20
-2.54801
11
7.18588
21
-2.55863
0
LINE
8
BLACK
6
CONTINUOUS
10
7.18588
20
-2.55863
11
7.19412
21
-2.57024
0
LINE
8
BLACK
6
CONTINUOUS
10
7.19412
20
-2.57024
11
7.20101
21
-2.58271
0
LINE
8
BLACK
6
CONTINUOUS
10
7.20101
20
-2.58271
11
7.20646
21
-2.59586
0
LINE
8
BLACK
6
CONTINUOUS
10
7.20646
20
-2.59586
11
7.2104
21
-2.60954
0
LINE
8
BLACK
6
CONTINUOUS
10
7.2104
20
-2.60954
11
7.21278
21
-2.62358
0
LINE
8
BLACK
6
CONTINUOUS
10
7.21278
20
-2.62358
11
7.21358
21
-2.6378
0
LINE
8
BLACK
6
CONTINUOUS
10
7.21358
20
-2.6378
11
7.21278
21
-2.65201
0
LINE
8
BLACK
6
CONTINUOUS
10
7.21278
20
-2.65201
11
7.2104
21
-2.66605
0
LINE
8
BLACK
6
CONTINUOUS
10
7.2104
20
-2.66605
11
7.20646
21
-2.67973
0
LINE
8
BLACK
6
CONTINUOUS
10
7.20646
20
-2.67973
11
7.20101
21
-2.69288
0
LINE
8
BLACK
6
CONTINUOUS
10
7.20101
20
-2.69288
11
7.19412
21
-2.70535
0
LINE
8
BLACK
6
CONTINUOUS
10
7.19412
20
-2.70535
11
7.18588
21
-2.71696
0
LINE
8
BLACK
6
CONTINUOUS
10
7.18588
20
-2.71696
11
7.17639
21
-2.72758
0
LINE
8
BLACK
6
CONTINUOUS
10
7.17639
20
-2.72758
11
7.16578
21
-2.73706
0
LINE
8
BLACK
6
CONTINUOUS
10
7.16578
20
-2.73706
11
7.15417
21
-2.7453
0
LINE
8
BLACK
6
CONTINUOUS
10
7.15417
20
-2.7453
11
7.1417
21
-2.75219
0
LINE
8
BLACK
6
CONTINUOUS
10
7.1417
20
-2.75219
11
7.12855
21
-2.75764
0
LINE
8
BLACK
6
CONTINUOUS
10
7.12855
20
-2.75764
11
7.11487
21
-2.76158
0
LINE
8
BLACK
6
CONTINUOUS
10
7.11487
20
-2.76158
11
7.10083
21
-2.76397
0
LINE
8
BLACK
6
CONTINUOUS
10
7.10083
20
-2.76397
11
7.08661
21
-2.76476
0
LINE
8
BLACK
6
CONTINUOUS
10
7.08661
20
-2.76476
11
7.0724
21
-2.76397
0
LINE
8
BLACK
6
CONTINUOUS
10
7.0724
20
-2.76397
11
7.05836
21
-2.76158
0
LINE
8
BLACK
6
CONTINUOUS
10
7.05836
20
-2.76158
11
7.04468
21
-2.75764
0
LINE
8
BLACK
6
CONTINUOUS
10
7.04468
20
-2.75764
11
7.03152
21
-2.75219
0
LINE
8
BLACK
6
CONTINUOUS
10
7.03152
20
-2.75219
11
7.01906
21
-2.7453
0
LINE
8
BLACK
6
CONTINUOUS
10
7.01906
20
-2.7453
11
7.00745
21
-2.73706
0
LINE
8
BLACK
6
CONTINUOUS
10
7.00745
20
-2.73706
11
6.99683
21
-2.72758
0
LINE
8
BLACK
6
CONTINUOUS
10
6.99683
20
-2.72758
11
6.98735
21
-2.71696
0
LINE
8
BLACK
6
CONTINUOUS
10
6.98735
20
-2.71696
11
6.97911
21
-2.70535
0
LINE
8
BLACK
6
CONTINUOUS
10
6.97911
20
-2.70535
11
6.97222
21
-2.69288
0
LINE
8
BLACK
6
CONTINUOUS
10
6.97222
20
-2.69288
11
6.96677
21
-2.67973
0
LINE
8
BLACK
6
CONTINUOUS
10
6.96677
20
-2.67973
11
6.96283
21
-2.66605
0
LINE
8
BLACK
6
CONTINUOUS
10
6.96283
20
-2.66605
11
6.96044
21
-2.65201
0
LINE
8
BLACK
6
CONTINUOUS
10
6.96044
20
-2.65201
11
6.95965
21
-2.6378
0
LINE
8
BLACK
6
CONTINUOUS
10
6.95965
20
-2.6378
11
6.96044
21
-2.62358
0
LINE
8
BLACK
6
CONTINUOUS
10
6.96044
20
-2.62358
11
6.96283
21
-2.60954
0
LINE
8
BLACK
6
CONTINUOUS
10
6.96283
20
-2.60954
11
6.96677
21
-2.59586
0
LINE
8
BLACK
6
CONTINUOUS
10
6.96677
20
-2.59586
11
6.97222
21
-2.58271
0
LINE
8
BLACK
6
CONTINUOUS
10
6.97222
20
-2.58271
11
6.97911
21
-2.57024
0
LINE
8
BLACK
6
CONTINUOUS
10
6.97911
20
-2.57024
11
6.98735
21
-2.55863
0
LINE
8
BLACK
6
CONTINUOUS
10
6.98735
20
-2.55863
11
6.99683
21
-2.54801
0
LINE
8
BLACK
6
CONTINUOUS
10
6.99683
20
-2.54801
11
7.00745
21
-2.53853
0
LINE
8
BLACK
6
CONTINUOUS
10
7.00745
20
-2.53853
11
7.01906
21
-2.53029
0
LINE
8
BLACK
6
CONTINUOUS
10
7.01906
20
-2.53029
11
7.03152
21
-2.5234
0
LINE
8
BLACK
6
CONTINUOUS
10
7.03152
20
-2.5234
11
7.04468
21
-2.51795
0
LINE
8
BLACK
6
CONTINUOUS
10
7.04468
20
-2.51795
11
7.05836
21
-2.51401
0
LINE
8
BLACK
6
CONTINUOUS
10
7.05836
20
-2.51401
11
7.0724
21
-2.51163
0
LINE
8
BLACK
6
CONTINUOUS
10
7.0724
20
-2.51163
11
7.08661
21
-2.51083
0
LINE
8
BLACK
6
CONTINUOUS
10
7.08661
20
-2.51083
11
7.10083
21
-2.51163
0
LINE
8
BLACK
6
CONTINUOUS
10
6.9622
20
-2.65181
11
6.96456
21
-2.66565
0
LINE
8
BLACK
6
CONTINUOUS
10
6.96456
20
-2.66565
11
6.96844
21
-2.67915
0
LINE
8
BLACK
6
CONTINUOUS
10
6.96844
20
-2.67915
11
6.97382
21
-2.69212
0
LINE
8
BLACK
6
CONTINUOUS
10
6.97382
20
-2.69212
11
6.98061
21
-2.7044
0
LINE
8
BLACK
6
CONTINUOUS
10
6.98061
20
-2.7044
11
6.98873
21
-2.71585
0
LINE
8
BLACK
6
CONTINUOUS
10
6.98873
20
-2.71585
11
6.99809
21
-2.72632
0
LINE
8
BLACK
6
CONTINUOUS
10
6.99809
20
-2.72632
11
7.00856
21
-2.73568
0
LINE
8
BLACK
6
CONTINUOUS
10
7.00856
20
-2.73568
11
7.02001
21
-2.7438
0
LINE
8
BLACK
6
CONTINUOUS
10
7.02001
20
-2.7438
11
7.03229
21
-2.75059
0
LINE
8
BLACK
6
CONTINUOUS
10
7.03229
20
-2.75059
11
7.04526
21
-2.75597
0
LINE
8
BLACK
6
CONTINUOUS
10
7.04526
20
-2.75597
11
7.05876
21
-2.75985
0
LINE
8
BLACK
6
CONTINUOUS
10
7.05876
20
-2.75985
11
7.0726
21
-2.76221
0
LINE
8
BLACK
6
CONTINUOUS
10
7.0726
20
-2.76221
11
7.08661
21
-2.76299
0
LINE
8
BLACK
6
CONTINUOUS
10
7.08661
20
-2.76299
11
7.10063
21
-2.76221
0
LINE
8
BLACK
6
CONTINUOUS
10
7.10063
20
-2.76221
11
7.11447
21
-2.75985
0
LINE
8
BLACK
6
CONTINUOUS
10
7.11447
20
-2.75985
11
7.12796
21
-2.75597
0
LINE
8
BLACK
6
CONTINUOUS
10
7.12796
20
-2.75597
11
7.14094
21
-2.75059
0
LINE
8
BLACK
6
CONTINUOUS
10
7.14094
20
-2.75059
11
7.15322
21
-2.7438
0
LINE
8
BLACK
6
CONTINUOUS
10
7.15322
20
-2.7438
11
7.16467
21
-2.73568
0
LINE
8
BLACK
6
CONTINUOUS
10
7.16467
20
-2.73568
11
7.17514
21
-2.72632
0
LINE
8
BLACK
6
CONTINUOUS
10
7.17514
20
-2.72632
11
7.1845
21
-2.71585
0
LINE
8
BLACK
6
CONTINUOUS
10
7.1845
20
-2.71585
11
7.19262
21
-2.7044
0
LINE
8
BLACK
6
CONTINUOUS
10
7.19262
20
-2.7044
11
7.19941
21
-2.69212
0
LINE
8
BLACK
6
CONTINUOUS
10
7.19941
20
-2.69212
11
7.20479
21
-2.67915
0
LINE
8
BLACK
6
CONTINUOUS
10
7.20479
20
-2.67915
11
7.20867
21
-2.66565
0
LINE
8
BLACK
6
CONTINUOUS
10
7.20867
20
-2.66565
11
7.21102
21
-2.65181
0
LINE
8
BLACK
6
CONTINUOUS
10
7.21102
20
-2.65181
11
7.21181
21
-2.6378
0
LINE
8
BLACK
6
CONTINUOUS
10
7.21181
20
-2.6378
11
7.21102
21
-2.62378
0
LINE
8
BLACK
6
CONTINUOUS
10
7.21102
20
-2.62378
11
7.20867
21
-2.60994
0
LINE
8
BLACK
6
CONTINUOUS
10
7.20867
20
-2.60994
11
7.20479
21
-2.59645
0
LINE
8
BLACK
6
CONTINUOUS
10
7.20479
20
-2.59645
11
7.19941
21
-2.58347
0
LINE
8
BLACK
6
CONTINUOUS
10
7.19941
20
-2.58347
11
7.19262
21
-2.57119
0
LINE
8
BLACK
6
CONTINUOUS
10
7.19262
20
-2.57119
11
7.1845
21
-2.55974
0
LINE
8
BLACK
6
CONTINUOUS
10
7.1845
20
-2.55974
11
7.17514
21
-2.54927
0
LINE
8
BLACK
6
CONTINUOUS
10
7.17514
20
-2.54927
11
7.16467
21
-2.53991
0
LINE
8
BLACK
6
CONTINUOUS
10
7.16467
20
-2.53991
11
7.15322
21
-2.53179
0
LINE
8
BLACK
6
CONTINUOUS
10
7.15322
20
-2.53179
11
7.14094
21
-2.525
0
LINE
8
BLACK
6
CONTINUOUS
10
7.14094
20
-2.525
11
7.12796
21
-2.51962
0
LINE
8
BLACK
6
CONTINUOUS
10
7.12796
20
-2.51962
11
7.11447
21
-2.51574
0
LINE
8
BLACK
6
CONTINUOUS
10
7.11447
20
-2.51574
11
7.10063
21
-2.51339
0
LINE
8
BLACK
6
CONTINUOUS
10
7.10063
20
-2.51339
11
7.08661
21
-2.5126
0
LINE
8
BLACK
6
CONTINUOUS
10
7.08661
20
-2.5126
11
7.0726
21
-2.51339
0
LINE
8
BLACK
6
CONTINUOUS
10
7.0726
20
-2.51339
11
7.05876
21
-2.51574
0
LINE
8
BLACK
6
CONTINUOUS
10
7.05876
20
-2.51574
11
7.04526
21
-2.51962
0
LINE
8
BLACK
6
CONTINUOUS
10
7.04526
20
-2.51962
11
7.03229
21
-2.525
0
LINE
8
BLACK
6
CONTINUOUS
10
7.03229
20
-2.525
11
7.02001
21
-2.53179
0
LINE
8
BLACK
6
CONTINUOUS
10
7.02001
20
-2.53179
11
7.00856
21
-2.53991
0
LINE
8
BLACK
6
CONTINUOUS
10
7.00856
20
-2.53991
11
6.99809
21
-2.54927
0
LINE
8
BLACK
6
CONTINUOUS
10
6.99809
20
-2.54927
11
6.98873
21
-2.55974
0
LINE
8
BLACK
6
CONTINUOUS
10
6.98873
20
-2.55974
11
6.98061
21
-2.57119
0
LINE
8
BLACK
6
CONTINUOUS
10
6.98061
20
-2.57119
11
6.97382
21
-2.58347
0
LINE
8
BLACK
6
CONTINUOUS
10
6.97382
20
-2.58347
11
6.96844
21
-2.59645
0
LINE
8
BLACK
6
CONTINUOUS
10
6.96844
20
-2.59645
11
6.96456
21
-2.60994
0
LINE
8
BLACK
6
CONTINUOUS
10
6.96456
20
-2.60994
11
6.9622
21
-2.62378
0
LINE
8
BLACK
6
CONTINUOUS
10
6.9622
20
-2.62378
11
6.96142
21
-2.6378
0
LINE
8
BLACK
6
CONTINUOUS
10
6.96142
20
-2.6378
11
6.9622
21
-2.65181
0
LINE
8
BLACK
6
CONTINUOUS
10
2.0689
20
-1.31299
11
2.06959
21
-1.31328
0
LINE
8
BLACK
6
CONTINUOUS
10
2.06959
20
-1.31328
11
2.06988
21
-1.31398
0
LINE
8
BLACK
6
CONTINUOUS
10
2.06988
20
-1.31398
11
2.06988
21
-1.57972
0
LINE
8
BLACK
6
CONTINUOUS
10
2.06988
20
-1.57972
11
2.06959
21
-1.58042
0
LINE
8
BLACK
6
CONTINUOUS
10
2.06959
20
-1.58042
11
2.0689
21
-1.58071
0
LINE
8
BLACK
6
CONTINUOUS
10
2.0689
20
-1.58071
11
1.63976
21
-1.58071
0
LINE
8
BLACK
6
CONTINUOUS
10
1.63976
20
-1.58071
11
1.63907
21
-1.58042
0
LINE
8
BLACK
6
CONTINUOUS
10
1.63907
20
-1.58042
11
1.63878
21
-1.57972
0
LINE
8
BLACK
6
CONTINUOUS
10
1.63878
20
-1.57972
11
1.63878
21
-1.31398
0
LINE
8
BLACK
6
CONTINUOUS
10
1.63878
20
-1.31398
11
1.63907
21
-1.31328
0
LINE
8
BLACK
6
CONTINUOUS
10
1.63907
20
-1.31328
11
1.63976
21
-1.31299
0
LINE
8
BLACK
6
CONTINUOUS
10
1.63976
20
-1.31299
11
2.0689
21
-1.31299
0
LINE
8
BLACK
6
CONTINUOUS
10
1.64075
20
-1.31496
11
1.64075
21
-1.57874
0
LINE
8
BLACK
6
CONTINUOUS
10
1.64075
20
-1.57874
11
2.06791
21
-1.57874
0
LINE
8
BLACK
6
CONTINUOUS
10
2.06791
20
-1.57874
11
2.06791
21
-1.31496
0
LINE
8
BLACK
6
CONTINUOUS
10
2.06791
20
-1.31496
11
1.64075
21
-1.31496
0
LINE
8
BLACK
6
CONTINUOUS
10
2.0689
20
-1.00787
11
2.06959
21
-1.00816
0
LINE
8
BLACK
6
CONTINUOUS
10
2.06959
20
-1.00816
11
2.06988
21
-1.00886
0
LINE
8
BLACK
6
CONTINUOUS
10
2.06988
20
-1.00886
11
2.06988
21
-1.27461
0
LINE
8
BLACK
6
CONTINUOUS
10
2.06988
20
-1.27461
11
2.06959
21
-1.2753
0
LINE
8
BLACK
6
CONTINUOUS
10
2.06959
20
-1.2753
11
2.0689
21
-1.27559
0
LINE
8
BLACK
6
CONTINUOUS
10
2.0689
20
-1.27559
11
1.63976
21
-1.27559
0
LINE
8
BLACK
6
CONTINUOUS
10
1.63976
20
-1.27559
11
1.63907
21
-1.2753
0
LINE
8
BLACK
6
CONTINUOUS
10
1.63907
20
-1.2753
11
1.63878
21
-1.27461
0
LINE
8
BLACK
6
CONTINUOUS
10
1.63878
20
-1.27461
11
1.63878
21
-1.00886
0
LINE
8
BLACK
6
CONTINUOUS
10
1.63878
20
-1.00886
11
1.63907
21
-1.00816
0
LINE
8
BLACK
6
CONTINUOUS
10
1.63907
20
-1.00816
11
1.63976
21
-1.00787
0
LINE
8
BLACK
6
CONTINUOUS
10
1.63976
20
-1.00787
11
2.0689
21
-1.00787
0
LINE
8
BLACK
6
CONTINUOUS
10
1.64075
20
-1.00984
11
1.64075
21
-1.27362
0
LINE
8
BLACK
6
CONTINUOUS
10
1.64075
20
-1.27362
11
2.06791
21
-1.27362
0
LINE
8
BLACK
6
CONTINUOUS
10
2.06791
20
-1.27362
11
2.06791
21
-1.00984
0
LINE
8
BLACK
6
CONTINUOUS
10
2.06791
20
-1.00984
11
1.64075
21
-1.00984
  0
ENDSEC
  0
EOF
