  0
SECTION
  2
HEADER
  9
$ANGBASE
  50
0.0
  9
$ANGDIR
  70
1
  9
$MEASUREMENT
  70
0
  0
ENDSEC
  0
SECTION
  2
TABLES
  0
TABLE
  2
LTYPE
  70
4
  0
LTYPE
  5
40F
  2
CONTINUOUS
  70
0
  3
Solid line
  72
65
  73
0
  40
0.0
  0
LTYPE
  5
410
  2
DASHDOT
 70
0
  3
Dash Dot ____ _ ____ _
 72
65
 73
4
 40
2.0
 49
1.25
 49
-0.25
 49
0.25
 49
-0.25
  0
LTYPE
  5
411
  2
DASHED
 70
0
  3
Dashed __ __ __ __ __
 72
65
 73
2
 40
0.75
 49
0.5
 49
-0.25
  0
LTYPE
  5
43B
  2
DOTTED
 70
0
  3
Dotted .  .  .  .
 72
65
 73
2
 40
0.2
 49
0.0
 49
-0.2
  0
ENDTAB
  0
TABLE
  2
STYLE
  70
4
  0
STYLE
  2
KICAD
  70
0
  40
0
  41
1
  42
1
  50
0
  71
0
  3
isocp.shx
  0
STYLE
  2
KICADB
  70
0
  40
0
  41
1
  42
1
  50
0
  71
0
  3
isocp.shx
  0
STYLE
  2
KICADI
  70
0
  40
0
  41
1
  42
1
  50
15
  71
0
  3
isocp.shx
  0
STYLE
  2
KICADBI
  70
0
  40
0
  41
1
  42
1
  50
15
  71
0
  3
isocp.shx
  0
ENDTAB
  0
TABLE
  2
LAYER
  70
1
  0
LAYER
  2
BLACK
  70
0
  62
7
  6
CONTINUOUS
  0
ENDTAB
  0
ENDSEC
  0
SECTION
  2
ENTITIES
0
LINE
8
BLACK
6
CONTINUOUS
10
1.48657
20
-5.1608
11
1.48812
21
-5.1621
0
LINE
8
BLACK
6
CONTINUOUS
10
1.48812
20
-5.1621
11
1.48847
21
-5.16409
0
LINE
8
BLACK
6
CONTINUOUS
10
1.48847
20
-5.16409
11
1.48746
21
-5.16584
0
LINE
8
BLACK
6
CONTINUOUS
10
1.48746
20
-5.16584
11
1.48556
21
-5.16653
0
LINE
8
BLACK
6
CONTINUOUS
10
1.48556
20
-5.16653
11
1.4677
21
-5.16653
0
LINE
8
BLACK
6
CONTINUOUS
10
1.4677
20
-5.16653
11
1.47654
21
-5.17663
0
LINE
8
BLACK
6
CONTINUOUS
10
1.47654
20
-5.17663
11
1.47677
21
-5.17701
0
LINE
8
BLACK
6
CONTINUOUS
10
1.47677
20
-5.17701
11
1.47687
21
-5.1771
0
LINE
8
BLACK
6
CONTINUOUS
10
1.47687
20
-5.1771
11
1.47689
21
-5.17722
0
LINE
8
BLACK
6
CONTINUOUS
10
1.47689
20
-5.17722
11
1.47707
21
-5.17751
0
LINE
8
BLACK
6
CONTINUOUS
10
1.47707
20
-5.17751
11
1.47709
21
-5.1783
0
LINE
8
BLACK
6
CONTINUOUS
10
1.47709
20
-5.1783
11
1.47722
21
-5.17909
0
LINE
8
BLACK
6
CONTINUOUS
10
1.47722
20
-5.17909
11
1.47711
21
-5.17929
0
LINE
8
BLACK
6
CONTINUOUS
10
1.47711
20
-5.17929
11
1.47711
21
-5.17953
0
LINE
8
BLACK
6
CONTINUOUS
10
1.47711
20
-5.17953
11
1.47661
21
-5.18015
0
LINE
8
BLACK
6
CONTINUOUS
10
1.47661
20
-5.18015
11
1.47621
21
-5.18084
0
LINE
8
BLACK
6
CONTINUOUS
10
1.47621
20
-5.18084
11
1.47599
21
-5.18092
0
LINE
8
BLACK
6
CONTINUOUS
10
1.47599
20
-5.18092
11
1.47584
21
-5.1811
0
LINE
8
BLACK
6
CONTINUOUS
10
1.47584
20
-5.1811
11
1.47506
21
-5.18125
0
LINE
8
BLACK
6
CONTINUOUS
10
1.47506
20
-5.18125
11
1.47432
21
-5.18153
0
LINE
8
BLACK
6
CONTINUOUS
10
1.47432
20
-5.18153
11
1.46939
21
-5.18153
0
LINE
8
BLACK
6
CONTINUOUS
10
1.46939
20
-5.18153
11
1.46669
21
-5.18288
0
LINE
8
BLACK
6
CONTINUOUS
10
1.46669
20
-5.18288
11
1.46549
21
-5.18407
0
LINE
8
BLACK
6
CONTINUOUS
10
1.46549
20
-5.18407
11
1.46415
21
-5.18677
0
LINE
8
BLACK
6
CONTINUOUS
10
1.46415
20
-5.18677
11
1.46415
21
-5.19475
0
LINE
8
BLACK
6
CONTINUOUS
10
1.46415
20
-5.19475
11
1.46549
21
-5.19745
0
LINE
8
BLACK
6
CONTINUOUS
10
1.46549
20
-5.19745
11
1.46669
21
-5.19864
0
LINE
8
BLACK
6
CONTINUOUS
10
1.46669
20
-5.19864
11
1.46939
21
-5.19999
0
LINE
8
BLACK
6
CONTINUOUS
10
1.46939
20
-5.19999
11
1.47924
21
-5.19999
0
LINE
8
BLACK
6
CONTINUOUS
10
1.47924
20
-5.19999
11
1.48194
21
-5.19864
0
LINE
8
BLACK
6
CONTINUOUS
10
1.48194
20
-5.19864
11
1.48348
21
-5.19711
0
LINE
8
BLACK
6
CONTINUOUS
10
1.48348
20
-5.19711
11
1.48432
21
-5.19652
0
LINE
8
BLACK
6
CONTINUOUS
10
1.48432
20
-5.19652
11
1.48633
21
-5.19634
0
LINE
8
BLACK
6
CONTINUOUS
10
1.48633
20
-5.19634
11
1.48798
21
-5.1975
0
LINE
8
BLACK
6
CONTINUOUS
10
1.48798
20
-5.1975
11
1.48851
21
-5.19945
0
LINE
8
BLACK
6
CONTINUOUS
10
1.48851
20
-5.19945
11
1.48765
21
-5.20128
0
LINE
8
BLACK
6
CONTINUOUS
10
1.48765
20
-5.20128
11
1.48578
21
-5.20316
0
LINE
8
BLACK
6
CONTINUOUS
10
1.48578
20
-5.20316
11
1.48505
21
-5.20367
0
LINE
8
BLACK
6
CONTINUOUS
10
1.48505
20
-5.20367
11
1.48501
21
-5.20371
0
LINE
8
BLACK
6
CONTINUOUS
10
1.48501
20
-5.20371
11
1.48126
21
-5.20559
0
LINE
8
BLACK
6
CONTINUOUS
10
1.48126
20
-5.20559
11
1.48028
21
-5.20588
0
LINE
8
BLACK
6
CONTINUOUS
10
1.48028
20
-5.20588
11
1.48011
21
-5.20584
0
LINE
8
BLACK
6
CONTINUOUS
10
1.48011
20
-5.20584
11
1.47994
21
-5.2059
0
LINE
8
BLACK
6
CONTINUOUS
10
1.47994
20
-5.2059
11
1.46869
21
-5.2059
0
LINE
8
BLACK
6
CONTINUOUS
10
1.46869
20
-5.2059
11
1.46768
21
-5.20572
0
LINE
8
BLACK
6
CONTINUOUS
10
1.46768
20
-5.20572
11
1.46755
21
-5.20561
0
LINE
8
BLACK
6
CONTINUOUS
10
1.46755
20
-5.20561
11
1.46737
21
-5.20559
0
LINE
8
BLACK
6
CONTINUOUS
10
1.46737
20
-5.20559
11
1.46362
21
-5.20371
0
LINE
8
BLACK
6
CONTINUOUS
10
1.46362
20
-5.20371
11
1.46291
21
-5.20319
0
LINE
8
BLACK
6
CONTINUOUS
10
1.46291
20
-5.20319
11
1.46285
21
-5.20316
0
LINE
8
BLACK
6
CONTINUOUS
10
1.46285
20
-5.20316
11
1.46098
21
-5.20128
0
LINE
8
BLACK
6
CONTINUOUS
10
1.46098
20
-5.20128
11
1.46047
21
-5.20056
0
LINE
8
BLACK
6
CONTINUOUS
10
1.46047
20
-5.20056
11
1.46043
21
-5.20052
0
LINE
8
BLACK
6
CONTINUOUS
10
1.46043
20
-5.20052
11
1.45855
21
-5.19677
0
LINE
8
BLACK
6
CONTINUOUS
10
1.45855
20
-5.19677
11
1.45826
21
-5.19578
0
LINE
8
BLACK
6
CONTINUOUS
10
1.45826
20
-5.19578
11
1.4583
21
-5.19561
0
LINE
8
BLACK
6
CONTINUOUS
10
1.4583
20
-5.19561
11
1.45824
21
-5.19545
0
LINE
8
BLACK
6
CONTINUOUS
10
1.45824
20
-5.19545
11
1.45824
21
-5.18607
0
LINE
8
BLACK
6
CONTINUOUS
10
1.45824
20
-5.18607
11
1.45842
21
-5.18506
0
LINE
8
BLACK
6
CONTINUOUS
10
1.45842
20
-5.18506
11
1.45853
21
-5.18493
0
LINE
8
BLACK
6
CONTINUOUS
10
1.45853
20
-5.18493
11
1.45855
21
-5.18475
0
LINE
8
BLACK
6
CONTINUOUS
10
1.45855
20
-5.18475
11
1.46043
21
-5.181
0
LINE
8
BLACK
6
CONTINUOUS
10
1.46043
20
-5.181
11
1.46095
21
-5.18029
0
LINE
8
BLACK
6
CONTINUOUS
10
1.46095
20
-5.18029
11
1.46098
21
-5.18024
0
LINE
8
BLACK
6
CONTINUOUS
10
1.46098
20
-5.18024
11
1.46285
21
-5.17836
0
LINE
8
BLACK
6
CONTINUOUS
10
1.46285
20
-5.17836
11
1.46358
21
-5.17785
0
LINE
8
BLACK
6
CONTINUOUS
10
1.46358
20
-5.17785
11
1.46362
21
-5.17781
0
LINE
8
BLACK
6
CONTINUOUS
10
1.46362
20
-5.17781
11
1.46737
21
-5.17593
0
LINE
8
BLACK
6
CONTINUOUS
10
1.46737
20
-5.17593
11
1.46793
21
-5.17576
0
LINE
8
BLACK
6
CONTINUOUS
10
1.46793
20
-5.17576
11
1.45897
21
-5.16552
0
LINE
8
BLACK
6
CONTINUOUS
10
1.45897
20
-5.16552
11
1.45874
21
-5.16514
0
LINE
8
BLACK
6
CONTINUOUS
10
1.45874
20
-5.16514
11
1.45864
21
-5.16505
0
LINE
8
BLACK
6
CONTINUOUS
10
1.45864
20
-5.16505
11
1.45861
21
-5.16493
0
LINE
8
BLACK
6
CONTINUOUS
10
1.45861
20
-5.16493
11
1.45844
21
-5.16464
0
LINE
8
BLACK
6
CONTINUOUS
10
1.45844
20
-5.16464
11
1.45842
21
-5.16385
0
LINE
8
BLACK
6
CONTINUOUS
10
1.45842
20
-5.16385
11
1.45828
21
-5.16306
0
LINE
8
BLACK
6
CONTINUOUS
10
1.45828
20
-5.16306
11
1.4584
21
-5.16286
0
LINE
8
BLACK
6
CONTINUOUS
10
1.4584
20
-5.16286
11
1.4584
21
-5.16262
0
LINE
8
BLACK
6
CONTINUOUS
10
1.4584
20
-5.16262
11
1.4589
21
-5.162
0
LINE
8
BLACK
6
CONTINUOUS
10
1.4589
20
-5.162
11
1.45929
21
-5.16131
0
LINE
8
BLACK
6
CONTINUOUS
10
1.45929
20
-5.16131
11
1.45952
21
-5.16123
0
LINE
8
BLACK
6
CONTINUOUS
10
1.45952
20
-5.16123
11
1.45966
21
-5.16105
0
LINE
8
BLACK
6
CONTINUOUS
10
1.45966
20
-5.16105
11
1.46044
21
-5.1609
0
LINE
8
BLACK
6
CONTINUOUS
10
1.46044
20
-5.1609
11
1.46119
21
-5.16062
0
LINE
8
BLACK
6
CONTINUOUS
10
1.46119
20
-5.16062
11
1.48556
21
-5.16062
0
LINE
8
BLACK
6
CONTINUOUS
10
1.48556
20
-5.16062
11
1.48657
21
-5.1608
0
LINE
8
BLACK
6
CONTINUOUS
10
1.68342
20
-5.1608
11
1.68356
21
-5.16091
0
LINE
8
BLACK
6
CONTINUOUS
10
1.68356
20
-5.16091
11
1.68374
21
-5.16093
0
LINE
8
BLACK
6
CONTINUOUS
10
1.68374
20
-5.16093
11
1.68748
21
-5.16281
0
LINE
8
BLACK
6
CONTINUOUS
10
1.68748
20
-5.16281
11
1.68819
21
-5.16334
0
LINE
8
BLACK
6
CONTINUOUS
10
1.68819
20
-5.16334
11
1.68825
21
-5.16336
0
LINE
8
BLACK
6
CONTINUOUS
10
1.68825
20
-5.16336
11
1.69013
21
-5.16524
0
LINE
8
BLACK
6
CONTINUOUS
10
1.69013
20
-5.16524
11
1.69063
21
-5.16596
0
LINE
8
BLACK
6
CONTINUOUS
10
1.69063
20
-5.16596
11
1.69068
21
-5.166
0
LINE
8
BLACK
6
CONTINUOUS
10
1.69068
20
-5.166
11
1.69255
21
-5.16975
0
LINE
8
BLACK
6
CONTINUOUS
10
1.69255
20
-5.16975
11
1.69285
21
-5.17074
0
LINE
8
BLACK
6
CONTINUOUS
10
1.69285
20
-5.17074
11
1.69281
21
-5.17091
0
LINE
8
BLACK
6
CONTINUOUS
10
1.69281
20
-5.17091
11
1.69287
21
-5.17107
0
LINE
8
BLACK
6
CONTINUOUS
10
1.69287
20
-5.17107
11
1.69287
21
-5.17482
0
LINE
8
BLACK
6
CONTINUOUS
10
1.69287
20
-5.17482
11
1.69269
21
-5.17583
0
LINE
8
BLACK
6
CONTINUOUS
10
1.69269
20
-5.17583
11
1.69257
21
-5.17597
0
LINE
8
BLACK
6
CONTINUOUS
10
1.69257
20
-5.17597
11
1.69255
21
-5.17614
0
LINE
8
BLACK
6
CONTINUOUS
10
1.69255
20
-5.17614
11
1.69068
21
-5.17989
0
LINE
8
BLACK
6
CONTINUOUS
10
1.69068
20
-5.17989
11
1.69015
21
-5.1806
0
LINE
8
BLACK
6
CONTINUOUS
10
1.69015
20
-5.1806
11
1.69013
21
-5.18066
0
LINE
8
BLACK
6
CONTINUOUS
10
1.69013
20
-5.18066
11
1.68825
21
-5.18254
0
LINE
8
BLACK
6
CONTINUOUS
10
1.68825
20
-5.18254
11
1.68753
21
-5.18304
0
LINE
8
BLACK
6
CONTINUOUS
10
1.68753
20
-5.18304
11
1.68748
21
-5.18309
0
LINE
8
BLACK
6
CONTINUOUS
10
1.68748
20
-5.18309
11
1.68374
21
-5.18496
0
LINE
8
BLACK
6
CONTINUOUS
10
1.68374
20
-5.18496
11
1.68325
21
-5.18511
0
LINE
8
BLACK
6
CONTINUOUS
10
1.68325
20
-5.18511
11
1.68313
21
-5.18519
0
LINE
8
BLACK
6
CONTINUOUS
10
1.68313
20
-5.18519
11
1.67595
21
-5.18698
0
LINE
8
BLACK
6
CONTINUOUS
10
1.67595
20
-5.18698
11
1.67292
21
-5.1885
0
LINE
8
BLACK
6
CONTINUOUS
10
1.67292
20
-5.1885
11
1.67172
21
-5.1897
0
LINE
8
BLACK
6
CONTINUOUS
10
1.67172
20
-5.1897
11
1.67037
21
-5.19239
0
LINE
8
BLACK
6
CONTINUOUS
10
1.67037
20
-5.19239
11
1.67037
21
-5.19475
0
LINE
8
BLACK
6
CONTINUOUS
10
1.67037
20
-5.19475
11
1.67172
21
-5.19745
0
LINE
8
BLACK
6
CONTINUOUS
10
1.67172
20
-5.19745
11
1.67292
21
-5.19864
0
LINE
8
BLACK
6
CONTINUOUS
10
1.67292
20
-5.19864
11
1.67561
21
-5.19999
0
LINE
8
BLACK
6
CONTINUOUS
10
1.67561
20
-5.19999
11
1.68381
21
-5.19999
0
LINE
8
BLACK
6
CONTINUOUS
10
1.68381
20
-5.19999
11
1.68898
21
-5.19827
0
LINE
8
BLACK
6
CONTINUOUS
10
1.68898
20
-5.19827
11
1.68999
21
-5.19812
0
LINE
8
BLACK
6
CONTINUOUS
10
1.68999
20
-5.19812
11
1.69187
21
-5.19886
0
LINE
8
BLACK
6
CONTINUOUS
10
1.69187
20
-5.19886
11
1.69283
21
-5.20064
0
LINE
8
BLACK
6
CONTINUOUS
10
1.69283
20
-5.20064
11
1.69243
21
-5.20262
0
LINE
8
BLACK
6
CONTINUOUS
10
1.69243
20
-5.20262
11
1.69085
21
-5.20387
0
LINE
8
BLACK
6
CONTINUOUS
10
1.69085
20
-5.20387
11
1.68522
21
-5.20575
0
LINE
8
BLACK
6
CONTINUOUS
10
1.68522
20
-5.20575
11
1.68435
21
-5.20588
0
LINE
8
BLACK
6
CONTINUOUS
10
1.68435
20
-5.20588
11
1.68429
21
-5.2059
0
LINE
8
BLACK
6
CONTINUOUS
10
1.68429
20
-5.2059
11
1.67492
21
-5.2059
0
LINE
8
BLACK
6
CONTINUOUS
10
1.67492
20
-5.2059
11
1.67391
21
-5.20572
0
LINE
8
BLACK
6
CONTINUOUS
10
1.67391
20
-5.20572
11
1.67377
21
-5.20561
0
LINE
8
BLACK
6
CONTINUOUS
10
1.67377
20
-5.20561
11
1.6736
21
-5.20559
0
LINE
8
BLACK
6
CONTINUOUS
10
1.6736
20
-5.20559
11
1.66985
21
-5.20371
0
LINE
8
BLACK
6
CONTINUOUS
10
1.66985
20
-5.20371
11
1.66914
21
-5.20319
0
LINE
8
BLACK
6
CONTINUOUS
10
1.66914
20
-5.20319
11
1.66908
21
-5.20316
0
LINE
8
BLACK
6
CONTINUOUS
10
1.66908
20
-5.20316
11
1.6672
21
-5.20128
0
LINE
8
BLACK
6
CONTINUOUS
10
1.6672
20
-5.20128
11
1.6667
21
-5.20056
0
LINE
8
BLACK
6
CONTINUOUS
10
1.6667
20
-5.20056
11
1.66665
21
-5.20052
0
LINE
8
BLACK
6
CONTINUOUS
10
1.66665
20
-5.20052
11
1.66478
21
-5.19677
0
LINE
8
BLACK
6
CONTINUOUS
10
1.66478
20
-5.19677
11
1.66448
21
-5.19578
0
LINE
8
BLACK
6
CONTINUOUS
10
1.66448
20
-5.19578
11
1.66452
21
-5.19561
0
LINE
8
BLACK
6
CONTINUOUS
10
1.66452
20
-5.19561
11
1.66446
21
-5.19545
0
LINE
8
BLACK
6
CONTINUOUS
10
1.66446
20
-5.19545
11
1.66446
21
-5.1917
0
LINE
8
BLACK
6
CONTINUOUS
10
1.66446
20
-5.1917
11
1.66464
21
-5.19069
0
LINE
8
BLACK
6
CONTINUOUS
10
1.66464
20
-5.19069
11
1.66476
21
-5.19055
0
LINE
8
BLACK
6
CONTINUOUS
10
1.66476
20
-5.19055
11
1.66478
21
-5.19038
0
LINE
8
BLACK
6
CONTINUOUS
10
1.66478
20
-5.19038
11
1.66665
21
-5.18663
0
LINE
8
BLACK
6
CONTINUOUS
10
1.66665
20
-5.18663
11
1.66718
21
-5.18592
0
LINE
8
BLACK
6
CONTINUOUS
10
1.66718
20
-5.18592
11
1.6672
21
-5.18586
0
LINE
8
BLACK
6
CONTINUOUS
10
1.6672
20
-5.18586
11
1.66908
21
-5.18398
0
LINE
8
BLACK
6
CONTINUOUS
10
1.66908
20
-5.18398
11
1.6698
21
-5.18348
0
LINE
8
BLACK
6
CONTINUOUS
10
1.6698
20
-5.18348
11
1.66985
21
-5.18343
0
LINE
8
BLACK
6
CONTINUOUS
10
1.66985
20
-5.18343
11
1.6736
21
-5.18156
0
LINE
8
BLACK
6
CONTINUOUS
10
1.6736
20
-5.18156
11
1.67408
21
-5.18141
0
LINE
8
BLACK
6
CONTINUOUS
10
1.67408
20
-5.18141
11
1.6742
21
-5.18133
0
LINE
8
BLACK
6
CONTINUOUS
10
1.6742
20
-5.18133
11
1.68138
21
-5.17954
0
LINE
8
BLACK
6
CONTINUOUS
10
1.68138
20
-5.17954
11
1.68442
21
-5.17802
0
LINE
8
BLACK
6
CONTINUOUS
10
1.68442
20
-5.17802
11
1.68561
21
-5.17682
0
LINE
8
BLACK
6
CONTINUOUS
10
1.68561
20
-5.17682
11
1.68696
21
-5.17413
0
LINE
8
BLACK
6
CONTINUOUS
10
1.68696
20
-5.17413
11
1.68696
21
-5.17177
0
LINE
8
BLACK
6
CONTINUOUS
10
1.68696
20
-5.17177
11
1.68561
21
-5.16907
0
LINE
8
BLACK
6
CONTINUOUS
10
1.68561
20
-5.16907
11
1.68442
21
-5.16788
0
LINE
8
BLACK
6
CONTINUOUS
10
1.68442
20
-5.16788
11
1.68172
21
-5.16653
0
LINE
8
BLACK
6
CONTINUOUS
10
1.68172
20
-5.16653
11
1.67352
21
-5.16653
0
LINE
8
BLACK
6
CONTINUOUS
10
1.67352
20
-5.16653
11
1.66835
21
-5.16825
0
LINE
8
BLACK
6
CONTINUOUS
10
1.66835
20
-5.16825
11
1.66734
21
-5.1684
0
LINE
8
BLACK
6
CONTINUOUS
10
1.66734
20
-5.1684
11
1.66546
21
-5.16766
0
LINE
8
BLACK
6
CONTINUOUS
10
1.66546
20
-5.16766
11
1.6645
21
-5.16588
0
LINE
8
BLACK
6
CONTINUOUS
10
1.6645
20
-5.16588
11
1.6649
21
-5.1639
0
LINE
8
BLACK
6
CONTINUOUS
10
1.6649
20
-5.1639
11
1.66648
21
-5.16265
0
LINE
8
BLACK
6
CONTINUOUS
10
1.66648
20
-5.16265
11
1.67211
21
-5.16077
0
LINE
8
BLACK
6
CONTINUOUS
10
1.67211
20
-5.16077
11
1.67298
21
-5.16064
0
LINE
8
BLACK
6
CONTINUOUS
10
1.67298
20
-5.16064
11
1.67304
21
-5.16062
0
LINE
8
BLACK
6
CONTINUOUS
10
1.67304
20
-5.16062
11
1.68241
21
-5.16062
0
LINE
8
BLACK
6
CONTINUOUS
10
1.68241
20
-5.16062
11
1.68342
21
-5.1608
0
LINE
8
BLACK
6
CONTINUOUS
10
1.70905
20
-5.16168
11
1.70974
21
-5.16358
0
LINE
8
BLACK
6
CONTINUOUS
10
1.70974
20
-5.16358
11
1.70974
21
-5.19122
0
LINE
8
BLACK
6
CONTINUOUS
10
1.70974
20
-5.19122
11
1.71124
21
-5.19573
0
LINE
8
BLACK
6
CONTINUOUS
10
1.71124
20
-5.19573
11
1.71401
21
-5.19849
0
LINE
8
BLACK
6
CONTINUOUS
10
1.71401
20
-5.19849
11
1.71851
21
-5.19999
0
LINE
8
BLACK
6
CONTINUOUS
10
1.71851
20
-5.19999
11
1.72178
21
-5.19999
0
LINE
8
BLACK
6
CONTINUOUS
10
1.72178
20
-5.19999
11
1.72279
21
-5.20017
0
LINE
8
BLACK
6
CONTINUOUS
10
1.72279
20
-5.20017
11
1.72434
21
-5.20147
0
LINE
8
BLACK
6
CONTINUOUS
10
1.72434
20
-5.20147
11
1.72469
21
-5.20346
0
LINE
8
BLACK
6
CONTINUOUS
10
1.72469
20
-5.20346
11
1.72368
21
-5.20521
0
LINE
8
BLACK
6
CONTINUOUS
10
1.72368
20
-5.20521
11
1.72178
21
-5.2059
0
LINE
8
BLACK
6
CONTINUOUS
10
1.72178
20
-5.2059
11
1.71804
21
-5.2059
0
LINE
8
BLACK
6
CONTINUOUS
10
1.71804
20
-5.2059
11
1.71717
21
-5.20575
0
LINE
8
BLACK
6
CONTINUOUS
10
1.71717
20
-5.20575
11
1.7171
21
-5.20575
0
LINE
8
BLACK
6
CONTINUOUS
10
1.7171
20
-5.20575
11
1.71148
21
-5.20387
0
LINE
8
BLACK
6
CONTINUOUS
10
1.71148
20
-5.20387
11
1.71058
21
-5.20338
0
LINE
8
BLACK
6
CONTINUOUS
10
1.71058
20
-5.20338
11
1.71048
21
-5.20323
0
LINE
8
BLACK
6
CONTINUOUS
10
1.71048
20
-5.20323
11
1.71032
21
-5.20316
0
LINE
8
BLACK
6
CONTINUOUS
10
1.71032
20
-5.20316
11
1.70657
21
-5.19941
0
LINE
8
BLACK
6
CONTINUOUS
10
1.70657
20
-5.19941
11
1.70599
21
-5.19857
0
LINE
8
BLACK
6
CONTINUOUS
10
1.70599
20
-5.19857
11
1.70597
21
-5.19839
0
LINE
8
BLACK
6
CONTINUOUS
10
1.70597
20
-5.19839
11
1.70586
21
-5.19826
0
LINE
8
BLACK
6
CONTINUOUS
10
1.70586
20
-5.19826
11
1.70399
21
-5.19263
0
LINE
8
BLACK
6
CONTINUOUS
10
1.70399
20
-5.19263
11
1.70386
21
-5.19176
0
LINE
8
BLACK
6
CONTINUOUS
10
1.70386
20
-5.19176
11
1.70383
21
-5.1917
0
LINE
8
BLACK
6
CONTINUOUS
10
1.70383
20
-5.1917
11
1.70383
21
-5.16358
0
LINE
8
BLACK
6
CONTINUOUS
10
1.70383
20
-5.16358
11
1.70401
21
-5.16257
0
LINE
8
BLACK
6
CONTINUOUS
10
1.70401
20
-5.16257
11
1.70531
21
-5.16102
0
LINE
8
BLACK
6
CONTINUOUS
10
1.70531
20
-5.16102
11
1.7073
21
-5.16067
0
LINE
8
BLACK
6
CONTINUOUS
10
1.7073
20
-5.16067
11
1.70905
21
-5.16168
0
LINE
8
BLACK
6
CONTINUOUS
10
1.59634
20
-5.16144
11
1.59724
21
-5.16325
0
LINE
8
BLACK
6
CONTINUOUS
10
1.59724
20
-5.16325
11
1.59676
21
-5.16521
0
LINE
8
BLACK
6
CONTINUOUS
10
1.59676
20
-5.16521
11
1.58473
21
-5.18326
0
LINE
8
BLACK
6
CONTINUOUS
10
1.58473
20
-5.18326
11
1.59676
21
-5.20131
0
LINE
8
BLACK
6
CONTINUOUS
10
1.59676
20
-5.20131
11
1.59717
21
-5.20225
0
LINE
8
BLACK
6
CONTINUOUS
10
1.59717
20
-5.20225
11
1.59695
21
-5.20425
0
LINE
8
BLACK
6
CONTINUOUS
10
1.59695
20
-5.20425
11
1.59549
21
-5.20565
0
LINE
8
BLACK
6
CONTINUOUS
10
1.59549
20
-5.20565
11
1.59347
21
-5.20578
0
LINE
8
BLACK
6
CONTINUOUS
10
1.59347
20
-5.20578
11
1.59184
21
-5.20458
0
LINE
8
BLACK
6
CONTINUOUS
10
1.59184
20
-5.20458
11
1.58118
21
-5.18858
0
LINE
8
BLACK
6
CONTINUOUS
10
1.58118
20
-5.18858
11
1.57051
21
-5.20458
0
LINE
8
BLACK
6
CONTINUOUS
10
1.57051
20
-5.20458
11
1.5698
21
-5.20533
0
LINE
8
BLACK
6
CONTINUOUS
10
1.5698
20
-5.20533
11
1.56786
21
-5.20589
0
LINE
8
BLACK
6
CONTINUOUS
10
1.56786
20
-5.20589
11
1.56601
21
-5.20508
0
LINE
8
BLACK
6
CONTINUOUS
10
1.56601
20
-5.20508
11
1.56512
21
-5.20327
0
LINE
8
BLACK
6
CONTINUOUS
10
1.56512
20
-5.20327
11
1.5656
21
-5.20131
0
LINE
8
BLACK
6
CONTINUOUS
10
1.5656
20
-5.20131
11
1.57763
21
-5.18326
0
LINE
8
BLACK
6
CONTINUOUS
10
1.57763
20
-5.18326
11
1.5656
21
-5.16521
0
LINE
8
BLACK
6
CONTINUOUS
10
1.5656
20
-5.16521
11
1.56519
21
-5.16427
0
LINE
8
BLACK
6
CONTINUOUS
10
1.56519
20
-5.16427
11
1.56541
21
-5.16227
0
LINE
8
BLACK
6
CONTINUOUS
10
1.56541
20
-5.16227
11
1.56687
21
-5.16087
0
LINE
8
BLACK
6
CONTINUOUS
10
1.56687
20
-5.16087
11
1.56888
21
-5.16074
0
LINE
8
BLACK
6
CONTINUOUS
10
1.56888
20
-5.16074
11
1.57051
21
-5.16194
0
LINE
8
BLACK
6
CONTINUOUS
10
1.57051
20
-5.16194
11
1.58118
21
-5.17794
0
LINE
8
BLACK
6
CONTINUOUS
10
1.58118
20
-5.17794
11
1.59184
21
-5.16194
0
LINE
8
BLACK
6
CONTINUOUS
10
1.59184
20
-5.16194
11
1.59255
21
-5.1612
0
LINE
8
BLACK
6
CONTINUOUS
10
1.59255
20
-5.1612
11
1.59449
21
-5.16063
0
LINE
8
BLACK
6
CONTINUOUS
10
1.59449
20
-5.16063
11
1.59634
21
-5.16144
0
LINE
8
BLACK
6
CONTINUOUS
10
1.55532
20
-5.16168
11
1.55601
21
-5.16358
0
LINE
8
BLACK
6
CONTINUOUS
10
1.55601
20
-5.16358
11
1.55601
21
-5.20295
0
LINE
8
BLACK
6
CONTINUOUS
10
1.55601
20
-5.20295
11
1.55583
21
-5.20396
0
LINE
8
BLACK
6
CONTINUOUS
10
1.55583
20
-5.20396
11
1.55453
21
-5.2055
0
LINE
8
BLACK
6
CONTINUOUS
10
1.55453
20
-5.2055
11
1.55254
21
-5.20585
0
LINE
8
BLACK
6
CONTINUOUS
10
1.55254
20
-5.20585
11
1.55079
21
-5.20484
0
LINE
8
BLACK
6
CONTINUOUS
10
1.55079
20
-5.20484
11
1.5501
21
-5.20295
0
LINE
8
BLACK
6
CONTINUOUS
10
1.5501
20
-5.20295
11
1.5501
21
-5.18528
0
LINE
8
BLACK
6
CONTINUOUS
10
1.5501
20
-5.18528
11
1.53351
21
-5.18528
0
LINE
8
BLACK
6
CONTINUOUS
10
1.53351
20
-5.18528
11
1.53351
21
-5.20295
0
LINE
8
BLACK
6
CONTINUOUS
10
1.53351
20
-5.20295
11
1.53333
21
-5.20396
0
LINE
8
BLACK
6
CONTINUOUS
10
1.53333
20
-5.20396
11
1.53204
21
-5.2055
0
LINE
8
BLACK
6
CONTINUOUS
10
1.53204
20
-5.2055
11
1.53005
21
-5.20585
0
LINE
8
BLACK
6
CONTINUOUS
10
1.53005
20
-5.20585
11
1.5283
21
-5.20484
0
LINE
8
BLACK
6
CONTINUOUS
10
1.5283
20
-5.20484
11
1.52761
21
-5.20295
0
LINE
8
BLACK
6
CONTINUOUS
10
1.52761
20
-5.20295
11
1.52761
21
-5.16358
0
LINE
8
BLACK
6
CONTINUOUS
10
1.52761
20
-5.16358
11
1.52778
21
-5.16257
0
LINE
8
BLACK
6
CONTINUOUS
10
1.52778
20
-5.16257
11
1.52908
21
-5.16102
0
LINE
8
BLACK
6
CONTINUOUS
10
1.52908
20
-5.16102
11
1.53107
21
-5.16067
0
LINE
8
BLACK
6
CONTINUOUS
10
1.53107
20
-5.16067
11
1.53282
21
-5.16168
0
LINE
8
BLACK
6
CONTINUOUS
10
1.53282
20
-5.16168
11
1.53351
21
-5.16358
0
LINE
8
BLACK
6
CONTINUOUS
10
1.53351
20
-5.16358
11
1.53351
21
-5.17937
0
LINE
8
BLACK
6
CONTINUOUS
10
1.53351
20
-5.17937
11
1.5501
21
-5.17937
0
LINE
8
BLACK
6
CONTINUOUS
10
1.5501
20
-5.17937
11
1.5501
21
-5.16358
0
LINE
8
BLACK
6
CONTINUOUS
10
1.5501
20
-5.16358
11
1.55028
21
-5.16257
0
LINE
8
BLACK
6
CONTINUOUS
10
1.55028
20
-5.16257
11
1.55158
21
-5.16102
0
LINE
8
BLACK
6
CONTINUOUS
10
1.55158
20
-5.16102
11
1.55357
21
-5.16067
0
LINE
8
BLACK
6
CONTINUOUS
10
1.55357
20
-5.16067
11
1.55532
21
-5.16168
0
LINE
8
BLACK
6
CONTINUOUS
10
1.65718
20
-5.1608
11
1.65873
21
-5.1621
0
LINE
8
BLACK
6
CONTINUOUS
10
1.65873
20
-5.1621
11
1.65908
21
-5.16409
0
LINE
8
BLACK
6
CONTINUOUS
10
1.65908
20
-5.16409
11
1.65807
21
-5.16584
0
LINE
8
BLACK
6
CONTINUOUS
10
1.65807
20
-5.16584
11
1.65617
21
-5.16653
0
LINE
8
BLACK
6
CONTINUOUS
10
1.65617
20
-5.16653
11
1.64787
21
-5.16653
0
LINE
8
BLACK
6
CONTINUOUS
10
1.64787
20
-5.16653
11
1.64787
21
-5.20295
0
LINE
8
BLACK
6
CONTINUOUS
10
1.64787
20
-5.20295
11
1.64769
21
-5.20396
0
LINE
8
BLACK
6
CONTINUOUS
10
1.64769
20
-5.20396
11
1.6464
21
-5.2055
0
LINE
8
BLACK
6
CONTINUOUS
10
1.6464
20
-5.2055
11
1.64441
21
-5.20585
0
LINE
8
BLACK
6
CONTINUOUS
10
1.64441
20
-5.20585
11
1.64266
21
-5.20484
0
LINE
8
BLACK
6
CONTINUOUS
10
1.64266
20
-5.20484
11
1.64197
21
-5.20295
0
LINE
8
BLACK
6
CONTINUOUS
10
1.64197
20
-5.20295
11
1.64197
21
-5.16653
0
LINE
8
BLACK
6
CONTINUOUS
10
1.64197
20
-5.16653
11
1.63367
21
-5.16653
0
LINE
8
BLACK
6
CONTINUOUS
10
1.63367
20
-5.16653
11
1.63266
21
-5.16635
0
LINE
8
BLACK
6
CONTINUOUS
10
1.63266
20
-5.16635
11
1.63111
21
-5.16505
0
LINE
8
BLACK
6
CONTINUOUS
10
1.63111
20
-5.16505
11
1.63076
21
-5.16306
0
LINE
8
BLACK
6
CONTINUOUS
10
1.63076
20
-5.16306
11
1.63177
21
-5.16131
0
LINE
8
BLACK
6
CONTINUOUS
10
1.63177
20
-5.16131
11
1.63367
21
-5.16062
0
LINE
8
BLACK
6
CONTINUOUS
10
1.63367
20
-5.16062
11
1.65617
21
-5.16062
0
LINE
8
BLACK
6
CONTINUOUS
10
1.65617
20
-5.16062
11
1.65718
21
-5.1608
0
LINE
8
BLACK
6
CONTINUOUS
10
1.55782
20
-5.086
11
1.55795
21
-5.08611
0
LINE
8
BLACK
6
CONTINUOUS
10
1.55795
20
-5.08611
11
1.55813
21
-5.08613
0
LINE
8
BLACK
6
CONTINUOUS
10
1.55813
20
-5.08613
11
1.56188
21
-5.08801
0
LINE
8
BLACK
6
CONTINUOUS
10
1.56188
20
-5.08801
11
1.56258
21
-5.08853
0
LINE
8
BLACK
6
CONTINUOUS
10
1.56258
20
-5.08853
11
1.56264
21
-5.08856
0
LINE
8
BLACK
6
CONTINUOUS
10
1.56264
20
-5.08856
11
1.56452
21
-5.09043
0
LINE
8
BLACK
6
CONTINUOUS
10
1.56452
20
-5.09043
11
1.56478
21
-5.0908
0
LINE
8
BLACK
6
CONTINUOUS
10
1.56478
20
-5.0908
11
1.56489
21
-5.09088
0
LINE
8
BLACK
6
CONTINUOUS
10
1.56489
20
-5.09088
11
1.56864
21
-5.09651
0
LINE
8
BLACK
6
CONTINUOUS
10
1.56864
20
-5.09651
11
1.56903
21
-5.09742
0
LINE
8
BLACK
6
CONTINUOUS
10
1.56903
20
-5.09742
11
1.56904
21
-5.09743
0
LINE
8
BLACK
6
CONTINUOUS
10
1.56904
20
-5.09743
11
1.57092
21
-5.10493
0
LINE
8
BLACK
6
CONTINUOUS
10
1.57092
20
-5.10493
11
1.57096
21
-5.10552
0
LINE
8
BLACK
6
CONTINUOUS
10
1.57096
20
-5.10552
11
1.57101
21
-5.10565
0
LINE
8
BLACK
6
CONTINUOUS
10
1.57101
20
-5.10565
11
1.57101
21
-5.12064
0
LINE
8
BLACK
6
CONTINUOUS
10
1.57101
20
-5.12064
11
1.57083
21
-5.12165
0
LINE
8
BLACK
6
CONTINUOUS
10
1.57083
20
-5.12165
11
1.57072
21
-5.12179
0
LINE
8
BLACK
6
CONTINUOUS
10
1.57072
20
-5.12179
11
1.57069
21
-5.12196
0
LINE
8
BLACK
6
CONTINUOUS
10
1.57069
20
-5.12196
11
1.56882
21
-5.12571
0
LINE
8
BLACK
6
CONTINUOUS
10
1.56882
20
-5.12571
11
1.56829
21
-5.12642
0
LINE
8
BLACK
6
CONTINUOUS
10
1.56829
20
-5.12642
11
1.56827
21
-5.12648
0
LINE
8
BLACK
6
CONTINUOUS
10
1.56827
20
-5.12648
11
1.56639
21
-5.12836
0
LINE
8
BLACK
6
CONTINUOUS
10
1.56639
20
-5.12836
11
1.56567
21
-5.12886
0
LINE
8
BLACK
6
CONTINUOUS
10
1.56567
20
-5.12886
11
1.56562
21
-5.12891
0
LINE
8
BLACK
6
CONTINUOUS
10
1.56562
20
-5.12891
11
1.56188
21
-5.13078
0
LINE
8
BLACK
6
CONTINUOUS
10
1.56188
20
-5.13078
11
1.56089
21
-5.13108
0
LINE
8
BLACK
6
CONTINUOUS
10
1.56089
20
-5.13108
11
1.56072
21
-5.13103
0
LINE
8
BLACK
6
CONTINUOUS
10
1.56072
20
-5.13103
11
1.56055
21
-5.1311
0
LINE
8
BLACK
6
CONTINUOUS
10
1.56055
20
-5.1311
11
1.55306
21
-5.1311
0
LINE
8
BLACK
6
CONTINUOUS
10
1.55306
20
-5.1311
11
1.55205
21
-5.13092
0
LINE
8
BLACK
6
CONTINUOUS
10
1.55205
20
-5.13092
11
1.55191
21
-5.1308
0
LINE
8
BLACK
6
CONTINUOUS
10
1.55191
20
-5.1308
11
1.55174
21
-5.13078
0
LINE
8
BLACK
6
CONTINUOUS
10
1.55174
20
-5.13078
11
1.54799
21
-5.12891
0
LINE
8
BLACK
6
CONTINUOUS
10
1.54799
20
-5.12891
11
1.54728
21
-5.12838
0
LINE
8
BLACK
6
CONTINUOUS
10
1.54728
20
-5.12838
11
1.54722
21
-5.12836
0
LINE
8
BLACK
6
CONTINUOUS
10
1.54722
20
-5.12836
11
1.54534
21
-5.12648
0
LINE
8
BLACK
6
CONTINUOUS
10
1.54534
20
-5.12648
11
1.54484
21
-5.12576
0
LINE
8
BLACK
6
CONTINUOUS
10
1.54484
20
-5.12576
11
1.54479
21
-5.12571
0
LINE
8
BLACK
6
CONTINUOUS
10
1.54479
20
-5.12571
11
1.54292
21
-5.12196
0
LINE
8
BLACK
6
CONTINUOUS
10
1.54292
20
-5.12196
11
1.54262
21
-5.12098
0
LINE
8
BLACK
6
CONTINUOUS
10
1.54262
20
-5.12098
11
1.54266
21
-5.12081
0
LINE
8
BLACK
6
CONTINUOUS
10
1.54266
20
-5.12081
11
1.5426
21
-5.12064
0
LINE
8
BLACK
6
CONTINUOUS
10
1.5426
20
-5.12064
11
1.5426
21
-5.11127
0
LINE
8
BLACK
6
CONTINUOUS
10
1.5426
20
-5.11127
11
1.54278
21
-5.11026
0
LINE
8
BLACK
6
CONTINUOUS
10
1.54278
20
-5.11026
11
1.5429
21
-5.11012
0
LINE
8
BLACK
6
CONTINUOUS
10
1.5429
20
-5.11012
11
1.54292
21
-5.10995
0
LINE
8
BLACK
6
CONTINUOUS
10
1.54292
20
-5.10995
11
1.54479
21
-5.1062
0
LINE
8
BLACK
6
CONTINUOUS
10
1.54479
20
-5.1062
11
1.54532
21
-5.10549
0
LINE
8
BLACK
6
CONTINUOUS
10
1.54532
20
-5.10549
11
1.54534
21
-5.10543
0
LINE
8
BLACK
6
CONTINUOUS
10
1.54534
20
-5.10543
11
1.54722
21
-5.10356
0
LINE
8
BLACK
6
CONTINUOUS
10
1.54722
20
-5.10356
11
1.54794
21
-5.10305
0
LINE
8
BLACK
6
CONTINUOUS
10
1.54794
20
-5.10305
11
1.54799
21
-5.103
0
LINE
8
BLACK
6
CONTINUOUS
10
1.54799
20
-5.103
11
1.55174
21
-5.10113
0
LINE
8
BLACK
6
CONTINUOUS
10
1.55174
20
-5.10113
11
1.55272
21
-5.10084
0
LINE
8
BLACK
6
CONTINUOUS
10
1.55272
20
-5.10084
11
1.55289
21
-5.10088
0
LINE
8
BLACK
6
CONTINUOUS
10
1.55289
20
-5.10088
11
1.55306
21
-5.10082
0
LINE
8
BLACK
6
CONTINUOUS
10
1.55306
20
-5.10082
11
1.56055
21
-5.10082
0
LINE
8
BLACK
6
CONTINUOUS
10
1.56055
20
-5.10082
11
1.56156
21
-5.101
0
LINE
8
BLACK
6
CONTINUOUS
10
1.56156
20
-5.101
11
1.5617
21
-5.10111
0
LINE
8
BLACK
6
CONTINUOUS
10
1.5617
20
-5.10111
11
1.56188
21
-5.10113
0
LINE
8
BLACK
6
CONTINUOUS
10
1.56188
20
-5.10113
11
1.56417
21
-5.10228
0
LINE
8
BLACK
6
CONTINUOUS
10
1.56417
20
-5.10228
11
1.56344
21
-5.09936
0
LINE
8
BLACK
6
CONTINUOUS
10
1.56344
20
-5.09936
11
1.56013
21
-5.0944
0
LINE
8
BLACK
6
CONTINUOUS
10
1.56013
20
-5.0944
11
1.55881
21
-5.09307
0
LINE
8
BLACK
6
CONTINUOUS
10
1.55881
20
-5.09307
11
1.55611
21
-5.09173
0
LINE
8
BLACK
6
CONTINUOUS
10
1.55611
20
-5.09173
11
1.54931
21
-5.09173
0
LINE
8
BLACK
6
CONTINUOUS
10
1.54931
20
-5.09173
11
1.5483
21
-5.09155
0
LINE
8
BLACK
6
CONTINUOUS
10
1.5483
20
-5.09155
11
1.54675
21
-5.09025
0
LINE
8
BLACK
6
CONTINUOUS
10
1.54675
20
-5.09025
11
1.5464
21
-5.08826
0
LINE
8
BLACK
6
CONTINUOUS
10
1.5464
20
-5.08826
11
1.54741
21
-5.08651
0
LINE
8
BLACK
6
CONTINUOUS
10
1.54741
20
-5.08651
11
1.54931
21
-5.08582
0
LINE
8
BLACK
6
CONTINUOUS
10
1.54931
20
-5.08582
11
1.55681
21
-5.08582
0
LINE
8
BLACK
6
CONTINUOUS
10
1.55681
20
-5.08582
11
1.55782
21
-5.086
0
LINE
8
BLACK
6
CONTINUOUS
10
1.55106
20
-5.10807
11
1.54986
21
-5.10927
0
LINE
8
BLACK
6
CONTINUOUS
10
1.54986
20
-5.10927
11
1.54851
21
-5.11197
0
LINE
8
BLACK
6
CONTINUOUS
10
1.54851
20
-5.11197
11
1.54851
21
-5.11995
0
LINE
8
BLACK
6
CONTINUOUS
10
1.54851
20
-5.11995
11
1.54986
21
-5.12264
0
LINE
8
BLACK
6
CONTINUOUS
10
1.54986
20
-5.12264
11
1.55106
21
-5.12384
0
LINE
8
BLACK
6
CONTINUOUS
10
1.55106
20
-5.12384
11
1.55375
21
-5.12519
0
LINE
8
BLACK
6
CONTINUOUS
10
1.55375
20
-5.12519
11
1.55986
21
-5.12519
0
LINE
8
BLACK
6
CONTINUOUS
10
1.55986
20
-5.12519
11
1.56256
21
-5.12384
0
LINE
8
BLACK
6
CONTINUOUS
10
1.56256
20
-5.12384
11
1.56375
21
-5.12264
0
LINE
8
BLACK
6
CONTINUOUS
10
1.56375
20
-5.12264
11
1.5651
21
-5.11995
0
LINE
8
BLACK
6
CONTINUOUS
10
1.5651
20
-5.11995
11
1.5651
21
-5.11197
0
LINE
8
BLACK
6
CONTINUOUS
10
1.5651
20
-5.11197
11
1.56375
21
-5.10927
0
LINE
8
BLACK
6
CONTINUOUS
10
1.56375
20
-5.10927
11
1.56256
21
-5.10807
0
LINE
8
BLACK
6
CONTINUOUS
10
1.56256
20
-5.10807
11
1.55986
21
-5.10672
0
LINE
8
BLACK
6
CONTINUOUS
10
1.55986
20
-5.10672
11
1.55375
21
-5.10672
0
LINE
8
BLACK
6
CONTINUOUS
10
1.55375
20
-5.10672
11
1.55106
21
-5.10807
0
LINE
8
BLACK
6
CONTINUOUS
10
1.60093
20
-5.086
11
1.60107
21
-5.08611
0
LINE
8
BLACK
6
CONTINUOUS
10
1.60107
20
-5.08611
11
1.60125
21
-5.08613
0
LINE
8
BLACK
6
CONTINUOUS
10
1.60125
20
-5.08613
11
1.60499
21
-5.08801
0
LINE
8
BLACK
6
CONTINUOUS
10
1.60499
20
-5.08801
11
1.6057
21
-5.08853
0
LINE
8
BLACK
6
CONTINUOUS
10
1.6057
20
-5.08853
11
1.60576
21
-5.08856
0
LINE
8
BLACK
6
CONTINUOUS
10
1.60576
20
-5.08856
11
1.60764
21
-5.09043
0
LINE
8
BLACK
6
CONTINUOUS
10
1.60764
20
-5.09043
11
1.60823
21
-5.09127
0
LINE
8
BLACK
6
CONTINUOUS
10
1.60823
20
-5.09127
11
1.6084
21
-5.09329
0
LINE
8
BLACK
6
CONTINUOUS
10
1.6084
20
-5.09329
11
1.60724
21
-5.09494
0
LINE
8
BLACK
6
CONTINUOUS
10
1.60724
20
-5.09494
11
1.60529
21
-5.09546
0
LINE
8
BLACK
6
CONTINUOUS
10
1.60529
20
-5.09546
11
1.60346
21
-5.09461
0
LINE
8
BLACK
6
CONTINUOUS
10
1.60346
20
-5.09461
11
1.60193
21
-5.09307
0
LINE
8
BLACK
6
CONTINUOUS
10
1.60193
20
-5.09307
11
1.59923
21
-5.09173
0
LINE
8
BLACK
6
CONTINUOUS
10
1.59923
20
-5.09173
11
1.59125
21
-5.09173
0
LINE
8
BLACK
6
CONTINUOUS
10
1.59125
20
-5.09173
11
1.58855
21
-5.09307
0
LINE
8
BLACK
6
CONTINUOUS
10
1.58855
20
-5.09307
11
1.58735
21
-5.09427
0
LINE
8
BLACK
6
CONTINUOUS
10
1.58735
20
-5.09427
11
1.586
21
-5.09697
0
LINE
8
BLACK
6
CONTINUOUS
10
1.586
20
-5.09697
11
1.586
21
-5.09954
0
LINE
8
BLACK
6
CONTINUOUS
10
1.586
20
-5.09954
11
1.58751
21
-5.10405
0
LINE
8
BLACK
6
CONTINUOUS
10
1.58751
20
-5.10405
11
1.60951
21
-5.12605
0
LINE
8
BLACK
6
CONTINUOUS
10
1.60951
20
-5.12605
11
1.60988
21
-5.12658
0
LINE
8
BLACK
6
CONTINUOUS
10
1.60988
20
-5.12658
11
1.60998
21
-5.12667
0
LINE
8
BLACK
6
CONTINUOUS
10
1.60998
20
-5.12667
11
1.60999
21
-5.12674
0
LINE
8
BLACK
6
CONTINUOUS
10
1.60999
20
-5.12674
11
1.6101
21
-5.12689
0
LINE
8
BLACK
6
CONTINUOUS
10
1.6101
20
-5.12689
11
1.61018
21
-5.12778
0
LINE
8
BLACK
6
CONTINUOUS
10
1.61018
20
-5.12778
11
1.61033
21
-5.12866
0
LINE
8
BLACK
6
CONTINUOUS
10
1.61033
20
-5.12866
11
1.61026
21
-5.12877
0
LINE
8
BLACK
6
CONTINUOUS
10
1.61026
20
-5.12877
11
1.61028
21
-5.12891
0
LINE
8
BLACK
6
CONTINUOUS
10
1.61028
20
-5.12891
11
1.60977
21
-5.12963
0
LINE
8
BLACK
6
CONTINUOUS
10
1.60977
20
-5.12963
11
1.60932
21
-5.1304
0
LINE
8
BLACK
6
CONTINUOUS
10
1.60932
20
-5.1304
11
1.6092
21
-5.13045
0
LINE
8
BLACK
6
CONTINUOUS
10
1.6092
20
-5.13045
11
1.60912
21
-5.13056
0
LINE
8
BLACK
6
CONTINUOUS
10
1.60912
20
-5.13056
11
1.60826
21
-5.13079
0
LINE
8
BLACK
6
CONTINUOUS
10
1.60826
20
-5.13079
11
1.60742
21
-5.1311
0
LINE
8
BLACK
6
CONTINUOUS
10
1.60742
20
-5.1311
11
1.58305
21
-5.1311
0
LINE
8
BLACK
6
CONTINUOUS
10
1.58305
20
-5.1311
11
1.58204
21
-5.13092
0
LINE
8
BLACK
6
CONTINUOUS
10
1.58204
20
-5.13092
11
1.58049
21
-5.12962
0
LINE
8
BLACK
6
CONTINUOUS
10
1.58049
20
-5.12962
11
1.58014
21
-5.12763
0
LINE
8
BLACK
6
CONTINUOUS
10
1.58014
20
-5.12763
11
1.58115
21
-5.12588
0
LINE
8
BLACK
6
CONTINUOUS
10
1.58115
20
-5.12588
11
1.58305
21
-5.12519
0
LINE
8
BLACK
6
CONTINUOUS
10
1.58305
20
-5.12519
11
1.6003
21
-5.12519
0
LINE
8
BLACK
6
CONTINUOUS
10
1.6003
20
-5.12519
11
1.58284
21
-5.10773
0
LINE
8
BLACK
6
CONTINUOUS
10
1.58284
20
-5.10773
11
1.58225
21
-5.10689
0
LINE
8
BLACK
6
CONTINUOUS
10
1.58225
20
-5.10689
11
1.58224
21
-5.10672
0
LINE
8
BLACK
6
CONTINUOUS
10
1.58224
20
-5.10672
11
1.58213
21
-5.10658
0
LINE
8
BLACK
6
CONTINUOUS
10
1.58213
20
-5.10658
11
1.58025
21
-5.10095
0
LINE
8
BLACK
6
CONTINUOUS
10
1.58025
20
-5.10095
11
1.58012
21
-5.10008
0
LINE
8
BLACK
6
CONTINUOUS
10
1.58012
20
-5.10008
11
1.5801
21
-5.10002
0
LINE
8
BLACK
6
CONTINUOUS
10
1.5801
20
-5.10002
11
1.5801
21
-5.09627
0
LINE
8
BLACK
6
CONTINUOUS
10
1.5801
20
-5.09627
11
1.58028
21
-5.09526
0
LINE
8
BLACK
6
CONTINUOUS
10
1.58028
20
-5.09526
11
1.58039
21
-5.09513
0
LINE
8
BLACK
6
CONTINUOUS
10
1.58039
20
-5.09513
11
1.58041
21
-5.09495
0
LINE
8
BLACK
6
CONTINUOUS
10
1.58041
20
-5.09495
11
1.58229
21
-5.0912
0
LINE
8
BLACK
6
CONTINUOUS
10
1.58229
20
-5.0912
11
1.58281
21
-5.09049
0
LINE
8
BLACK
6
CONTINUOUS
10
1.58281
20
-5.09049
11
1.58284
21
-5.09043
0
LINE
8
BLACK
6
CONTINUOUS
10
1.58284
20
-5.09043
11
1.58471
21
-5.08856
0
LINE
8
BLACK
6
CONTINUOUS
10
1.58471
20
-5.08856
11
1.58544
21
-5.08805
0
LINE
8
BLACK
6
CONTINUOUS
10
1.58544
20
-5.08805
11
1.58548
21
-5.08801
0
LINE
8
BLACK
6
CONTINUOUS
10
1.58548
20
-5.08801
11
1.58923
21
-5.08613
0
LINE
8
BLACK
6
CONTINUOUS
10
1.58923
20
-5.08613
11
1.59021
21
-5.08584
0
LINE
8
BLACK
6
CONTINUOUS
10
1.59021
20
-5.08584
11
1.59039
21
-5.08588
0
LINE
8
BLACK
6
CONTINUOUS
10
1.59039
20
-5.08588
11
1.59055
21
-5.08582
0
LINE
8
BLACK
6
CONTINUOUS
10
1.59055
20
-5.08582
11
1.59992
21
-5.08582
0
LINE
8
BLACK
6
CONTINUOUS
10
1.59992
20
-5.08582
11
1.60093
21
-5.086
0
LINE
8
BLACK
6
CONTINUOUS
10
1.62468
20
-5.08687
11
1.62537
21
-5.08877
0
LINE
8
BLACK
6
CONTINUOUS
10
1.62537
20
-5.08877
11
1.62537
21
-5.11641
0
LINE
8
BLACK
6
CONTINUOUS
10
1.62537
20
-5.11641
11
1.62688
21
-5.12092
0
LINE
8
BLACK
6
CONTINUOUS
10
1.62688
20
-5.12092
11
1.62964
21
-5.12369
0
LINE
8
BLACK
6
CONTINUOUS
10
1.62964
20
-5.12369
11
1.63415
21
-5.12519
0
LINE
8
BLACK
6
CONTINUOUS
10
1.63415
20
-5.12519
11
1.63742
21
-5.12519
0
LINE
8
BLACK
6
CONTINUOUS
10
1.63742
20
-5.12519
11
1.63843
21
-5.12537
0
LINE
8
BLACK
6
CONTINUOUS
10
1.63843
20
-5.12537
11
1.63998
21
-5.12667
0
LINE
8
BLACK
6
CONTINUOUS
10
1.63998
20
-5.12667
11
1.64033
21
-5.12866
0
LINE
8
BLACK
6
CONTINUOUS
10
1.64033
20
-5.12866
11
1.63932
21
-5.1304
0
LINE
8
BLACK
6
CONTINUOUS
10
1.63932
20
-5.1304
11
1.63742
21
-5.1311
0
LINE
8
BLACK
6
CONTINUOUS
10
1.63742
20
-5.1311
11
1.63367
21
-5.1311
0
LINE
8
BLACK
6
CONTINUOUS
10
1.63367
20
-5.1311
11
1.6328
21
-5.13094
0
LINE
8
BLACK
6
CONTINUOUS
10
1.6328
20
-5.13094
11
1.63274
21
-5.13094
0
LINE
8
BLACK
6
CONTINUOUS
10
1.63274
20
-5.13094
11
1.62711
21
-5.12907
0
LINE
8
BLACK
6
CONTINUOUS
10
1.62711
20
-5.12907
11
1.62621
21
-5.12858
0
LINE
8
BLACK
6
CONTINUOUS
10
1.62621
20
-5.12858
11
1.62612
21
-5.12843
0
LINE
8
BLACK
6
CONTINUOUS
10
1.62612
20
-5.12843
11
1.62596
21
-5.12836
0
LINE
8
BLACK
6
CONTINUOUS
10
1.62596
20
-5.12836
11
1.62221
21
-5.12461
0
LINE
8
BLACK
6
CONTINUOUS
10
1.62221
20
-5.12461
11
1.62162
21
-5.12377
0
LINE
8
BLACK
6
CONTINUOUS
10
1.62162
20
-5.12377
11
1.62161
21
-5.12359
0
LINE
8
BLACK
6
CONTINUOUS
10
1.62161
20
-5.12359
11
1.6215
21
-5.12345
0
LINE
8
BLACK
6
CONTINUOUS
10
1.6215
20
-5.12345
11
1.61962
21
-5.11783
0
LINE
8
BLACK
6
CONTINUOUS
10
1.61962
20
-5.11783
11
1.61949
21
-5.11695
0
LINE
8
BLACK
6
CONTINUOUS
10
1.61949
20
-5.11695
11
1.61947
21
-5.11689
0
LINE
8
BLACK
6
CONTINUOUS
10
1.61947
20
-5.11689
11
1.61947
21
-5.08877
0
LINE
8
BLACK
6
CONTINUOUS
10
1.61947
20
-5.08877
11
1.61965
21
-5.08776
0
LINE
8
BLACK
6
CONTINUOUS
10
1.61965
20
-5.08776
11
1.62095
21
-5.08622
0
LINE
8
BLACK
6
CONTINUOUS
10
1.62095
20
-5.08622
11
1.62293
21
-5.08586
0
LINE
8
BLACK
6
CONTINUOUS
10
1.62293
20
-5.08586
11
1.62468
21
-5.08687
0
LINE
8
BLACK
6
CONTINUOUS
10
1.78543
20
-4.90945
11
1.78682
21
-4.91003
0
LINE
8
BLACK
6
CONTINUOUS
10
1.78682
20
-4.91003
11
1.7874
21
-4.91142
0
LINE
8
BLACK
6
CONTINUOUS
10
1.7874
20
-4.91142
11
1.7874
21
-5.1378
0
LINE
8
BLACK
6
CONTINUOUS
10
1.7874
20
-5.1378
11
1.78682
21
-5.13919
0
LINE
8
BLACK
6
CONTINUOUS
10
1.78682
20
-5.13919
11
1.78543
21
-5.13976
0
LINE
8
BLACK
6
CONTINUOUS
10
1.78543
20
-5.13976
11
1.39567
21
-5.13976
0
LINE
8
BLACK
6
CONTINUOUS
10
1.39567
20
-5.13976
11
1.39428
21
-5.13919
0
LINE
8
BLACK
6
CONTINUOUS
10
1.39428
20
-5.13919
11
1.3937
21
-5.1378
0
LINE
8
BLACK
6
CONTINUOUS
10
1.3937
20
-5.1378
11
1.3937
21
-4.91142
0
LINE
8
BLACK
6
CONTINUOUS
10
1.3937
20
-4.91142
11
1.39428
21
-4.91003
0
LINE
8
BLACK
6
CONTINUOUS
10
1.39428
20
-4.91003
11
1.39567
21
-4.90945
0
LINE
8
BLACK
6
CONTINUOUS
10
1.39567
20
-4.90945
11
1.78543
21
-4.90945
0
LINE
8
BLACK
6
CONTINUOUS
10
1.71467
20
-4.91339
11
1.69065
21
-4.95183
0
LINE
8
BLACK
6
CONTINUOUS
10
1.69065
20
-4.95183
11
1.69028
21
-4.95209
0
LINE
8
BLACK
6
CONTINUOUS
10
1.69028
20
-4.95209
11
1.69002
21
-4.95246
0
LINE
8
BLACK
6
CONTINUOUS
10
1.69002
20
-4.95246
11
1.68969
21
-4.95251
0
LINE
8
BLACK
6
CONTINUOUS
10
1.68969
20
-4.95251
11
1.68942
21
-4.95271
0
LINE
8
BLACK
6
CONTINUOUS
10
1.68942
20
-4.95271
11
1.68898
21
-4.95263
0
LINE
8
BLACK
6
CONTINUOUS
10
1.68898
20
-4.95263
11
1.68853
21
-4.95271
0
LINE
8
BLACK
6
CONTINUOUS
10
1.68853
20
-4.95271
11
1.68826
21
-4.95251
0
LINE
8
BLACK
6
CONTINUOUS
10
1.68826
20
-4.95251
11
1.68793
21
-4.95246
0
LINE
8
BLACK
6
CONTINUOUS
10
1.68793
20
-4.95246
11
1.68767
21
-4.95209
0
LINE
8
BLACK
6
CONTINUOUS
10
1.68767
20
-4.95209
11
1.68731
21
-4.95183
0
LINE
8
BLACK
6
CONTINUOUS
10
1.68731
20
-4.95183
11
1.66328
21
-4.91339
0
LINE
8
BLACK
6
CONTINUOUS
10
1.66328
20
-4.91339
11
1.39764
21
-4.91339
0
LINE
8
BLACK
6
CONTINUOUS
10
1.39764
20
-4.91339
11
1.39764
21
-5.13583
0
LINE
8
BLACK
6
CONTINUOUS
10
1.39764
20
-5.13583
11
1.78346
21
-5.13583
0
LINE
8
BLACK
6
CONTINUOUS
10
1.78346
20
-5.13583
11
1.78346
21
-4.91339
0
LINE
8
BLACK
6
CONTINUOUS
10
1.78346
20
-4.91339
11
1.71467
21
-4.91339
0
LINE
8
BLACK
6
CONTINUOUS
10
1.66792
20
-4.91339
11
1.68898
21
-4.94707
0
LINE
8
BLACK
6
CONTINUOUS
10
1.68898
20
-4.94707
11
1.71003
21
-4.91339
0
LINE
8
BLACK
6
CONTINUOUS
10
1.71003
20
-4.91339
11
1.66792
21
-4.91339
0
LINE
8
BLACK
6
CONTINUOUS
10
6.24921
20
-4.639
11
6.2506
21
-4.63958
0
LINE
8
BLACK
6
CONTINUOUS
10
6.2506
20
-4.63958
11
6.25118
21
-4.64097
0
LINE
8
BLACK
6
CONTINUOUS
10
6.25118
20
-4.64097
11
6.25118
21
-4.84097
0
LINE
8
BLACK
6
CONTINUOUS
10
6.25118
20
-4.84097
11
6.2506
21
-4.84236
0
LINE
8
BLACK
6
CONTINUOUS
10
6.2506
20
-4.84236
11
6.24921
21
-4.84294
0
LINE
8
BLACK
6
CONTINUOUS
10
6.24921
20
-4.84294
11
5.94921
21
-4.84294
0
LINE
8
BLACK
6
CONTINUOUS
10
5.94921
20
-4.84294
11
5.94782
21
-4.84236
0
LINE
8
BLACK
6
CONTINUOUS
10
5.94782
20
-4.84236
11
5.94724
21
-4.84097
0
LINE
8
BLACK
6
CONTINUOUS
10
5.94724
20
-4.84097
11
5.94724
21
-4.68034
0
LINE
8
BLACK
6
CONTINUOUS
10
5.94724
20
-4.68034
11
5.94782
21
-4.67895
0
LINE
8
BLACK
6
CONTINUOUS
10
5.94782
20
-4.67895
11
5.98719
21
-4.63958
0
LINE
8
BLACK
6
CONTINUOUS
10
5.98719
20
-4.63958
11
5.98858
21
-4.639
0
LINE
8
BLACK
6
CONTINUOUS
10
5.98858
20
-4.639
11
6.24921
21
-4.639
0
LINE
8
BLACK
6
CONTINUOUS
10
5.9894
20
-4.64294
11
5.95118
21
-4.68115
0
LINE
8
BLACK
6
CONTINUOUS
10
5.95118
20
-4.68115
11
5.95118
21
-4.839
0
LINE
8
BLACK
6
CONTINUOUS
10
5.95118
20
-4.839
11
6.24724
21
-4.839
0
LINE
8
BLACK
6
CONTINUOUS
10
6.24724
20
-4.839
11
6.24724
21
-4.64294
0
LINE
8
BLACK
6
CONTINUOUS
10
6.24724
20
-4.64294
11
5.9894
21
-4.64294
0
LINE
8
BLACK
6
CONTINUOUS
10
4.74488
20
-2.63998
11
4.74627
21
-2.64056
0
LINE
8
BLACK
6
CONTINUOUS
10
4.74627
20
-2.64056
11
4.78564
21
-2.67993
0
LINE
8
BLACK
6
CONTINUOUS
10
4.78564
20
-2.67993
11
4.78622
21
-2.68132
0
LINE
8
BLACK
6
CONTINUOUS
10
4.78622
20
-2.68132
11
4.78622
21
-4.64195
0
LINE
8
BLACK
6
CONTINUOUS
10
4.78622
20
-4.64195
11
4.78564
21
-4.64334
0
LINE
8
BLACK
6
CONTINUOUS
10
4.78564
20
-4.64334
11
4.78425
21
-4.64392
0
LINE
8
BLACK
6
CONTINUOUS
10
4.78425
20
-4.64392
11
4.58425
21
-4.64392
0
LINE
8
BLACK
6
CONTINUOUS
10
4.58425
20
-4.64392
11
4.58286
21
-4.64334
0
LINE
8
BLACK
6
CONTINUOUS
10
4.58286
20
-4.64334
11
4.58228
21
-4.64195
0
LINE
8
BLACK
6
CONTINUOUS
10
4.58228
20
-4.64195
11
4.58228
21
-2.64195
0
LINE
8
BLACK
6
CONTINUOUS
10
4.58228
20
-2.64195
11
4.58286
21
-2.64056
0
LINE
8
BLACK
6
CONTINUOUS
10
4.58286
20
-2.64056
11
4.58425
21
-2.63998
0
LINE
8
BLACK
6
CONTINUOUS
10
4.58425
20
-2.63998
11
4.74488
21
-2.63998
0
LINE
8
BLACK
6
CONTINUOUS
10
4.58622
20
-2.64392
11
4.58622
21
-4.63998
0
LINE
8
BLACK
6
CONTINUOUS
10
4.58622
20
-4.63998
11
4.78228
21
-4.63998
0
LINE
8
BLACK
6
CONTINUOUS
10
4.78228
20
-4.63998
11
4.78228
21
-2.68214
0
LINE
8
BLACK
6
CONTINUOUS
10
4.78228
20
-2.68214
11
4.74407
21
-2.64392
0
LINE
8
BLACK
6
CONTINUOUS
10
4.74407
20
-2.64392
11
4.58622
21
-2.64392
0
LINE
8
BLACK
6
CONTINUOUS
10
4.90287
20
-3.81238
11
4.90398
21
-3.81406
0
LINE
8
BLACK
6
CONTINUOUS
10
4.90398
20
-3.81406
11
4.90375
21
-3.81607
0
LINE
8
BLACK
6
CONTINUOUS
10
4.90375
20
-3.81607
11
4.90187
21
-3.81982
0
LINE
8
BLACK
6
CONTINUOUS
10
4.90187
20
-3.81982
11
4.90135
21
-3.82053
0
LINE
8
BLACK
6
CONTINUOUS
10
4.90135
20
-3.82053
11
4.90132
21
-3.82059
0
LINE
8
BLACK
6
CONTINUOUS
10
4.90132
20
-3.82059
11
4.89945
21
-3.82246
0
LINE
8
BLACK
6
CONTINUOUS
10
4.89945
20
-3.82246
11
4.89861
21
-3.82305
0
LINE
8
BLACK
6
CONTINUOUS
10
4.89861
20
-3.82305
11
4.89852
21
-3.82306
0
LINE
8
BLACK
6
CONTINUOUS
10
4.89852
20
-3.82306
11
4.89846
21
-3.82312
0
LINE
8
BLACK
6
CONTINUOUS
10
4.89846
20
-3.82312
11
4.88908
21
-3.82687
0
LINE
8
BLACK
6
CONTINUOUS
10
4.88908
20
-3.82687
11
4.88903
21
-3.82688
0
LINE
8
BLACK
6
CONTINUOUS
10
4.88903
20
-3.82688
11
4.88901
21
-3.82689
0
LINE
8
BLACK
6
CONTINUOUS
10
4.88901
20
-3.82689
11
4.88899
21
-3.82689
0
LINE
8
BLACK
6
CONTINUOUS
10
4.88899
20
-3.82689
11
4.88898
21
-3.8269
0
LINE
8
BLACK
6
CONTINUOUS
10
4.88898
20
-3.8269
11
4.86273
21
-3.83628
0
LINE
8
BLACK
6
CONTINUOUS
10
4.86273
20
-3.83628
11
4.86172
21
-3.83645
0
LINE
8
BLACK
6
CONTINUOUS
10
4.86172
20
-3.83645
11
4.85983
21
-3.83575
0
LINE
8
BLACK
6
CONTINUOUS
10
4.85983
20
-3.83575
11
4.85883
21
-3.83399
0
LINE
8
BLACK
6
CONTINUOUS
10
4.85883
20
-3.83399
11
4.85919
21
-3.83201
0
LINE
8
BLACK
6
CONTINUOUS
10
4.85919
20
-3.83201
11
4.86075
21
-3.83072
0
LINE
8
BLACK
6
CONTINUOUS
10
4.86075
20
-3.83072
11
4.87921
21
-3.82412
0
LINE
8
BLACK
6
CONTINUOUS
10
4.87921
20
-3.82412
11
4.86075
21
-3.81753
0
LINE
8
BLACK
6
CONTINUOUS
10
4.86075
20
-3.81753
11
4.85985
21
-3.81702
0
LINE
8
BLACK
6
CONTINUOUS
10
4.85985
20
-3.81702
11
4.85883
21
-3.81528
0
LINE
8
BLACK
6
CONTINUOUS
10
4.85883
20
-3.81528
11
4.85917
21
-3.81329
0
LINE
8
BLACK
6
CONTINUOUS
10
4.85917
20
-3.81329
11
4.86071
21
-3.81198
0
LINE
8
BLACK
6
CONTINUOUS
10
4.86071
20
-3.81198
11
4.86273
21
-3.81197
0
LINE
8
BLACK
6
CONTINUOUS
10
4.86273
20
-3.81197
11
4.88793
21
-3.82097
0
LINE
8
BLACK
6
CONTINUOUS
10
4.88793
20
-3.82097
11
4.8957
21
-3.81786
0
LINE
8
BLACK
6
CONTINUOUS
10
4.8957
20
-3.81786
11
4.89681
21
-3.81675
0
LINE
8
BLACK
6
CONTINUOUS
10
4.89681
20
-3.81675
11
4.89847
21
-3.81343
0
LINE
8
BLACK
6
CONTINUOUS
10
4.89847
20
-3.81343
11
4.89908
21
-3.81261
0
LINE
8
BLACK
6
CONTINUOUS
10
4.89908
20
-3.81261
11
4.90093
21
-3.8118
0
LINE
8
BLACK
6
CONTINUOUS
10
4.90093
20
-3.8118
11
4.90287
21
-3.81238
0
LINE
8
BLACK
6
CONTINUOUS
10
4.88899
20
-3.79135
11
4.89054
21
-3.79265
0
LINE
8
BLACK
6
CONTINUOUS
10
4.89054
20
-3.79265
11
4.89089
21
-3.79464
0
LINE
8
BLACK
6
CONTINUOUS
10
4.89089
20
-3.79464
11
4.88988
21
-3.79639
0
LINE
8
BLACK
6
CONTINUOUS
10
4.88988
20
-3.79639
11
4.88798
21
-3.79708
0
LINE
8
BLACK
6
CONTINUOUS
10
4.88798
20
-3.79708
11
4.86993
21
-3.79708
0
LINE
8
BLACK
6
CONTINUOUS
10
4.86993
20
-3.79708
11
4.86724
21
-3.79843
0
LINE
8
BLACK
6
CONTINUOUS
10
4.86724
20
-3.79843
11
4.86604
21
-3.79963
0
LINE
8
BLACK
6
CONTINUOUS
10
4.86604
20
-3.79963
11
4.86469
21
-3.80232
0
LINE
8
BLACK
6
CONTINUOUS
10
4.86469
20
-3.80232
11
4.86469
21
-3.80538
0
LINE
8
BLACK
6
CONTINUOUS
10
4.86469
20
-3.80538
11
4.86451
21
-3.80639
0
LINE
8
BLACK
6
CONTINUOUS
10
4.86451
20
-3.80639
11
4.86321
21
-3.80793
0
LINE
8
BLACK
6
CONTINUOUS
10
4.86321
20
-3.80793
11
4.86123
21
-3.80828
0
LINE
8
BLACK
6
CONTINUOUS
10
4.86123
20
-3.80828
11
4.85948
21
-3.80727
0
LINE
8
BLACK
6
CONTINUOUS
10
4.85948
20
-3.80727
11
4.85879
21
-3.80538
0
LINE
8
BLACK
6
CONTINUOUS
10
4.85879
20
-3.80538
11
4.85879
21
-3.80163
0
LINE
8
BLACK
6
CONTINUOUS
10
4.85879
20
-3.80163
11
4.85896
21
-3.80062
0
LINE
8
BLACK
6
CONTINUOUS
10
4.85896
20
-3.80062
11
4.85908
21
-3.80048
0
LINE
8
BLACK
6
CONTINUOUS
10
4.85908
20
-3.80048
11
4.8591
21
-3.80031
0
LINE
8
BLACK
6
CONTINUOUS
10
4.8591
20
-3.80031
11
4.86079
21
-3.79691
0
LINE
8
BLACK
6
CONTINUOUS
10
4.86079
20
-3.79691
11
4.86073
21
-3.7969
0
LINE
8
BLACK
6
CONTINUOUS
10
4.86073
20
-3.7969
11
4.85918
21
-3.7956
0
LINE
8
BLACK
6
CONTINUOUS
10
4.85918
20
-3.7956
11
4.85883
21
-3.79361
0
LINE
8
BLACK
6
CONTINUOUS
10
4.85883
20
-3.79361
11
4.85984
21
-3.79187
0
LINE
8
BLACK
6
CONTINUOUS
10
4.85984
20
-3.79187
11
4.86174
21
-3.79117
0
LINE
8
BLACK
6
CONTINUOUS
10
4.86174
20
-3.79117
11
4.88798
21
-3.79117
0
LINE
8
BLACK
6
CONTINUOUS
10
4.88798
20
-3.79117
11
4.88899
21
-3.79135
0
LINE
8
BLACK
6
CONTINUOUS
10
4.88899
20
-3.76698
11
4.89054
21
-3.76828
0
LINE
8
BLACK
6
CONTINUOUS
10
4.89054
20
-3.76828
11
4.89089
21
-3.77027
0
LINE
8
BLACK
6
CONTINUOUS
10
4.89089
20
-3.77027
11
4.88988
21
-3.77202
0
LINE
8
BLACK
6
CONTINUOUS
10
4.88988
20
-3.77202
11
4.88798
21
-3.77271
0
LINE
8
BLACK
6
CONTINUOUS
10
4.88798
20
-3.77271
11
4.86993
21
-3.77271
0
LINE
8
BLACK
6
CONTINUOUS
10
4.86993
20
-3.77271
11
4.86724
21
-3.77406
0
LINE
8
BLACK
6
CONTINUOUS
10
4.86724
20
-3.77406
11
4.86604
21
-3.77525
0
LINE
8
BLACK
6
CONTINUOUS
10
4.86604
20
-3.77525
11
4.86469
21
-3.77795
0
LINE
8
BLACK
6
CONTINUOUS
10
4.86469
20
-3.77795
11
4.86469
21
-3.781
0
LINE
8
BLACK
6
CONTINUOUS
10
4.86469
20
-3.781
11
4.86451
21
-3.78201
0
LINE
8
BLACK
6
CONTINUOUS
10
4.86451
20
-3.78201
11
4.86321
21
-3.78356
0
LINE
8
BLACK
6
CONTINUOUS
10
4.86321
20
-3.78356
11
4.86123
21
-3.78391
0
LINE
8
BLACK
6
CONTINUOUS
10
4.86123
20
-3.78391
11
4.85948
21
-3.7829
0
LINE
8
BLACK
6
CONTINUOUS
10
4.85948
20
-3.7829
11
4.85879
21
-3.781
0
LINE
8
BLACK
6
CONTINUOUS
10
4.85879
20
-3.781
11
4.85879
21
-3.77725
0
LINE
8
BLACK
6
CONTINUOUS
10
4.85879
20
-3.77725
11
4.85896
21
-3.77624
0
LINE
8
BLACK
6
CONTINUOUS
10
4.85896
20
-3.77624
11
4.85908
21
-3.77611
0
LINE
8
BLACK
6
CONTINUOUS
10
4.85908
20
-3.77611
11
4.8591
21
-3.77593
0
LINE
8
BLACK
6
CONTINUOUS
10
4.8591
20
-3.77593
11
4.86079
21
-3.77254
0
LINE
8
BLACK
6
CONTINUOUS
10
4.86079
20
-3.77254
11
4.86073
21
-3.77253
0
LINE
8
BLACK
6
CONTINUOUS
10
4.86073
20
-3.77253
11
4.85918
21
-3.77123
0
LINE
8
BLACK
6
CONTINUOUS
10
4.85918
20
-3.77123
11
4.85883
21
-3.76924
0
LINE
8
BLACK
6
CONTINUOUS
10
4.85883
20
-3.76924
11
4.85984
21
-3.76749
0
LINE
8
BLACK
6
CONTINUOUS
10
4.85984
20
-3.76749
11
4.86174
21
-3.7668
0
LINE
8
BLACK
6
CONTINUOUS
10
4.86174
20
-3.7668
11
4.88798
21
-3.7668
0
LINE
8
BLACK
6
CONTINUOUS
10
4.88798
20
-3.7668
11
4.88899
21
-3.76698
0
LINE
8
BLACK
6
CONTINUOUS
10
4.88337
20
-3.73136
11
4.88351
21
-3.73147
0
LINE
8
BLACK
6
CONTINUOUS
10
4.88351
20
-3.73147
11
4.88368
21
-3.73149
0
LINE
8
BLACK
6
CONTINUOUS
10
4.88368
20
-3.73149
11
4.88743
21
-3.73337
0
LINE
8
BLACK
6
CONTINUOUS
10
4.88743
20
-3.73337
11
4.88825
21
-3.73398
0
LINE
8
BLACK
6
CONTINUOUS
10
4.88825
20
-3.73398
11
4.88843
21
-3.73439
0
LINE
8
BLACK
6
CONTINUOUS
10
4.88843
20
-3.73439
11
4.88875
21
-3.73469
0
LINE
8
BLACK
6
CONTINUOUS
10
4.88875
20
-3.73469
11
4.89063
21
-3.73844
0
LINE
8
BLACK
6
CONTINUOUS
10
4.89063
20
-3.73844
11
4.89092
21
-3.73942
0
LINE
8
BLACK
6
CONTINUOUS
10
4.89092
20
-3.73942
11
4.89088
21
-3.73959
0
LINE
8
BLACK
6
CONTINUOUS
10
4.89088
20
-3.73959
11
4.89094
21
-3.73976
0
LINE
8
BLACK
6
CONTINUOUS
10
4.89094
20
-3.73976
11
4.89094
21
-3.74726
0
LINE
8
BLACK
6
CONTINUOUS
10
4.89094
20
-3.74726
11
4.89076
21
-3.74827
0
LINE
8
BLACK
6
CONTINUOUS
10
4.89076
20
-3.74827
11
4.89065
21
-3.7484
0
LINE
8
BLACK
6
CONTINUOUS
10
4.89065
20
-3.7484
11
4.89063
21
-3.74858
0
LINE
8
BLACK
6
CONTINUOUS
10
4.89063
20
-3.74858
11
4.88875
21
-3.75233
0
LINE
8
BLACK
6
CONTINUOUS
10
4.88875
20
-3.75233
11
4.88814
21
-3.75315
0
LINE
8
BLACK
6
CONTINUOUS
10
4.88814
20
-3.75315
11
4.88629
21
-3.75396
0
LINE
8
BLACK
6
CONTINUOUS
10
4.88629
20
-3.75396
11
4.88435
21
-3.75338
0
LINE
8
BLACK
6
CONTINUOUS
10
4.88435
20
-3.75338
11
4.88324
21
-3.75169
0
LINE
8
BLACK
6
CONTINUOUS
10
4.88324
20
-3.75169
11
4.88347
21
-3.74969
0
LINE
8
BLACK
6
CONTINUOUS
10
4.88347
20
-3.74969
11
4.88503
21
-3.74656
0
LINE
8
BLACK
6
CONTINUOUS
10
4.88503
20
-3.74656
11
4.88503
21
-3.74046
0
LINE
8
BLACK
6
CONTINUOUS
10
4.88503
20
-3.74046
11
4.88391
21
-3.73821
0
LINE
8
BLACK
6
CONTINUOUS
10
4.88391
20
-3.73821
11
4.88166
21
-3.73709
0
LINE
8
BLACK
6
CONTINUOUS
10
4.88166
20
-3.73709
11
4.87728
21
-3.73709
0
LINE
8
BLACK
6
CONTINUOUS
10
4.87728
20
-3.73709
11
4.87401
21
-3.75346
0
LINE
8
BLACK
6
CONTINUOUS
10
4.87401
20
-3.75346
11
4.87363
21
-3.75442
0
LINE
8
BLACK
6
CONTINUOUS
10
4.87363
20
-3.75442
11
4.87325
21
-3.75472
0
LINE
8
BLACK
6
CONTINUOUS
10
4.87325
20
-3.75472
11
4.87301
21
-3.75514
0
LINE
8
BLACK
6
CONTINUOUS
10
4.87301
20
-3.75514
11
4.87249
21
-3.75533
0
LINE
8
BLACK
6
CONTINUOUS
10
4.87249
20
-3.75533
11
4.87206
21
-3.75568
0
LINE
8
BLACK
6
CONTINUOUS
10
4.87206
20
-3.75568
11
4.87157
21
-3.75567
0
LINE
8
BLACK
6
CONTINUOUS
10
4.87157
20
-3.75567
11
4.87111
21
-3.75584
0
LINE
8
BLACK
6
CONTINUOUS
10
4.87111
20
-3.75584
11
4.86736
21
-3.75584
0
LINE
8
BLACK
6
CONTINUOUS
10
4.86736
20
-3.75584
11
4.86635
21
-3.75566
0
LINE
8
BLACK
6
CONTINUOUS
10
4.86635
20
-3.75566
11
4.86622
21
-3.75554
0
LINE
8
BLACK
6
CONTINUOUS
10
4.86622
20
-3.75554
11
4.86604
21
-3.75552
0
LINE
8
BLACK
6
CONTINUOUS
10
4.86604
20
-3.75552
11
4.86229
21
-3.75365
0
LINE
8
BLACK
6
CONTINUOUS
10
4.86229
20
-3.75365
11
4.86147
21
-3.75304
0
LINE
8
BLACK
6
CONTINUOUS
10
4.86147
20
-3.75304
11
4.86129
21
-3.75263
0
LINE
8
BLACK
6
CONTINUOUS
10
4.86129
20
-3.75263
11
4.86097
21
-3.75233
0
LINE
8
BLACK
6
CONTINUOUS
10
4.86097
20
-3.75233
11
4.8591
21
-3.74858
0
LINE
8
BLACK
6
CONTINUOUS
10
4.8591
20
-3.74858
11
4.8588
21
-3.7476
0
LINE
8
BLACK
6
CONTINUOUS
10
4.8588
20
-3.7476
11
4.85885
21
-3.74742
0
LINE
8
BLACK
6
CONTINUOUS
10
4.85885
20
-3.74742
11
4.85879
21
-3.74726
0
LINE
8
BLACK
6
CONTINUOUS
10
4.85879
20
-3.74726
11
4.85879
21
-3.73976
0
LINE
8
BLACK
6
CONTINUOUS
10
4.85879
20
-3.73976
11
4.85896
21
-3.73875
0
LINE
8
BLACK
6
CONTINUOUS
10
4.85896
20
-3.73875
11
4.85908
21
-3.73861
0
LINE
8
BLACK
6
CONTINUOUS
10
4.85908
20
-3.73861
11
4.8591
21
-3.73844
0
LINE
8
BLACK
6
CONTINUOUS
10
4.8591
20
-3.73844
11
4.86097
21
-3.73469
0
LINE
8
BLACK
6
CONTINUOUS
10
4.86097
20
-3.73469
11
4.86158
21
-3.73387
0
LINE
8
BLACK
6
CONTINUOUS
10
4.86158
20
-3.73387
11
4.86199
21
-3.73369
0
LINE
8
BLACK
6
CONTINUOUS
10
4.86199
20
-3.73369
11
4.86229
21
-3.73337
0
LINE
8
BLACK
6
CONTINUOUS
10
4.86229
20
-3.73337
11
4.86604
21
-3.73149
0
LINE
8
BLACK
6
CONTINUOUS
10
4.86604
20
-3.73149
11
4.86702
21
-3.7312
0
LINE
8
BLACK
6
CONTINUOUS
10
4.86702
20
-3.7312
11
4.8672
21
-3.73124
0
LINE
8
BLACK
6
CONTINUOUS
10
4.8672
20
-3.73124
11
4.86736
21
-3.73118
0
LINE
8
BLACK
6
CONTINUOUS
10
4.86736
20
-3.73118
11
4.88236
21
-3.73118
0
LINE
8
BLACK
6
CONTINUOUS
10
4.88236
20
-3.73118
11
4.88337
21
-3.73136
0
LINE
8
BLACK
6
CONTINUOUS
10
4.86581
20
-3.73821
11
4.86469
21
-3.74046
0
LINE
8
BLACK
6
CONTINUOUS
10
4.86469
20
-3.74046
11
4.86469
21
-3.74656
0
LINE
8
BLACK
6
CONTINUOUS
10
4.86469
20
-3.74656
11
4.86581
21
-3.74881
0
LINE
8
BLACK
6
CONTINUOUS
10
4.86581
20
-3.74881
11
4.86806
21
-3.74993
0
LINE
8
BLACK
6
CONTINUOUS
10
4.86806
20
-3.74993
11
4.86869
21
-3.74993
0
LINE
8
BLACK
6
CONTINUOUS
10
4.86869
20
-3.74993
11
4.87126
21
-3.73709
0
LINE
8
BLACK
6
CONTINUOUS
10
4.87126
20
-3.73709
11
4.86806
21
-3.73709
0
LINE
8
BLACK
6
CONTINUOUS
10
4.86806
20
-3.73709
11
4.86581
21
-3.73821
0
LINE
8
BLACK
6
CONTINUOUS
10
4.88837
20
-3.69375
11
4.8885
21
-3.69373
0
LINE
8
BLACK
6
CONTINUOUS
10
4.8885
20
-3.69373
11
4.88861
21
-3.6938
0
LINE
8
BLACK
6
CONTINUOUS
10
4.88861
20
-3.6938
11
4.88899
21
-3.69386
0
LINE
8
BLACK
6
CONTINUOUS
10
4.88899
20
-3.69386
11
4.88958
21
-3.69436
0
LINE
8
BLACK
6
CONTINUOUS
10
4.88958
20
-3.69436
11
4.89025
21
-3.69474
0
LINE
8
BLACK
6
CONTINUOUS
10
4.89025
20
-3.69474
11
4.89034
21
-3.69499
0
LINE
8
BLACK
6
CONTINUOUS
10
4.89034
20
-3.69499
11
4.89054
21
-3.69516
0
LINE
8
BLACK
6
CONTINUOUS
10
4.89054
20
-3.69516
11
4.89068
21
-3.69592
0
LINE
8
BLACK
6
CONTINUOUS
10
4.89068
20
-3.69592
11
4.89094
21
-3.69664
0
LINE
8
BLACK
6
CONTINUOUS
10
4.89094
20
-3.69664
11
4.89094
21
-3.71164
0
LINE
8
BLACK
6
CONTINUOUS
10
4.89094
20
-3.71164
11
4.89076
21
-3.71265
0
LINE
8
BLACK
6
CONTINUOUS
10
4.89076
20
-3.71265
11
4.89065
21
-3.71278
0
LINE
8
BLACK
6
CONTINUOUS
10
4.89065
20
-3.71278
11
4.89063
21
-3.71296
0
LINE
8
BLACK
6
CONTINUOUS
10
4.89063
20
-3.71296
11
4.88875
21
-3.71671
0
LINE
8
BLACK
6
CONTINUOUS
10
4.88875
20
-3.71671
11
4.88823
21
-3.71742
0
LINE
8
BLACK
6
CONTINUOUS
10
4.88823
20
-3.71742
11
4.8882
21
-3.71748
0
LINE
8
BLACK
6
CONTINUOUS
10
4.8882
20
-3.71748
11
4.88632
21
-3.71935
0
LINE
8
BLACK
6
CONTINUOUS
10
4.88632
20
-3.71935
11
4.8856
21
-3.71986
0
LINE
8
BLACK
6
CONTINUOUS
10
4.8856
20
-3.71986
11
4.88556
21
-3.7199
0
LINE
8
BLACK
6
CONTINUOUS
10
4.88556
20
-3.7199
11
4.88181
21
-3.72178
0
LINE
8
BLACK
6
CONTINUOUS
10
4.88181
20
-3.72178
11
4.88082
21
-3.72207
0
LINE
8
BLACK
6
CONTINUOUS
10
4.88082
20
-3.72207
11
4.88065
21
-3.72203
0
LINE
8
BLACK
6
CONTINUOUS
10
4.88065
20
-3.72203
11
4.88049
21
-3.72209
0
LINE
8
BLACK
6
CONTINUOUS
10
4.88049
20
-3.72209
11
4.87486
21
-3.72209
0
LINE
8
BLACK
6
CONTINUOUS
10
4.87486
20
-3.72209
11
4.87385
21
-3.72191
0
LINE
8
BLACK
6
CONTINUOUS
10
4.87385
20
-3.72191
11
4.87372
21
-3.7218
0
LINE
8
BLACK
6
CONTINUOUS
10
4.87372
20
-3.7218
11
4.87354
21
-3.72178
0
LINE
8
BLACK
6
CONTINUOUS
10
4.87354
20
-3.72178
11
4.86979
21
-3.7199
0
LINE
8
BLACK
6
CONTINUOUS
10
4.86979
20
-3.7199
11
4.86908
21
-3.71938
0
LINE
8
BLACK
6
CONTINUOUS
10
4.86908
20
-3.71938
11
4.86902
21
-3.71935
0
LINE
8
BLACK
6
CONTINUOUS
10
4.86902
20
-3.71935
11
4.86715
21
-3.71748
0
LINE
8
BLACK
6
CONTINUOUS
10
4.86715
20
-3.71748
11
4.86656
21
-3.71664
0
LINE
8
BLACK
6
CONTINUOUS
10
4.86656
20
-3.71664
11
4.86656
21
-3.71662
0
LINE
8
BLACK
6
CONTINUOUS
10
4.86656
20
-3.71662
11
4.8657
21
-3.71748
0
LINE
8
BLACK
6
CONTINUOUS
10
4.8657
20
-3.71748
11
4.86498
21
-3.71798
0
LINE
8
BLACK
6
CONTINUOUS
10
4.86498
20
-3.71798
11
4.86493
21
-3.71803
0
LINE
8
BLACK
6
CONTINUOUS
10
4.86493
20
-3.71803
11
4.86118
21
-3.7199
0
LINE
8
BLACK
6
CONTINUOUS
10
4.86118
20
-3.7199
11
4.8602
21
-3.7202
0
LINE
8
BLACK
6
CONTINUOUS
10
4.8602
20
-3.7202
11
4.86003
21
-3.72015
0
LINE
8
BLACK
6
CONTINUOUS
10
4.86003
20
-3.72015
11
4.85986
21
-3.72021
0
LINE
8
BLACK
6
CONTINUOUS
10
4.85986
20
-3.72021
11
4.85611
21
-3.72021
0
LINE
8
BLACK
6
CONTINUOUS
10
4.85611
20
-3.72021
11
4.8551
21
-3.72004
0
LINE
8
BLACK
6
CONTINUOUS
10
4.8551
20
-3.72004
11
4.85497
21
-3.71992
0
LINE
8
BLACK
6
CONTINUOUS
10
4.85497
20
-3.71992
11
4.85479
21
-3.7199
0
LINE
8
BLACK
6
CONTINUOUS
10
4.85479
20
-3.7199
11
4.85104
21
-3.71803
0
LINE
8
BLACK
6
CONTINUOUS
10
4.85104
20
-3.71803
11
4.85033
21
-3.7175
0
LINE
8
BLACK
6
CONTINUOUS
10
4.85033
20
-3.7175
11
4.85028
21
-3.71748
0
LINE
8
BLACK
6
CONTINUOUS
10
4.85028
20
-3.71748
11
4.8484
21
-3.7156
0
LINE
8
BLACK
6
CONTINUOUS
10
4.8484
20
-3.7156
11
4.8479
21
-3.71488
0
LINE
8
BLACK
6
CONTINUOUS
10
4.8479
20
-3.71488
11
4.84785
21
-3.71483
0
LINE
8
BLACK
6
CONTINUOUS
10
4.84785
20
-3.71483
11
4.84597
21
-3.71108
0
LINE
8
BLACK
6
CONTINUOUS
10
4.84597
20
-3.71108
11
4.84568
21
-3.7101
0
LINE
8
BLACK
6
CONTINUOUS
10
4.84568
20
-3.7101
11
4.84572
21
-3.70993
0
LINE
8
BLACK
6
CONTINUOUS
10
4.84572
20
-3.70993
11
4.84566
21
-3.70976
0
LINE
8
BLACK
6
CONTINUOUS
10
4.84566
20
-3.70976
11
4.84566
21
-3.69664
0
LINE
8
BLACK
6
CONTINUOUS
10
4.84566
20
-3.69664
11
4.84573
21
-3.69626
0
LINE
8
BLACK
6
CONTINUOUS
10
4.84573
20
-3.69626
11
4.84571
21
-3.69613
0
LINE
8
BLACK
6
CONTINUOUS
10
4.84571
20
-3.69613
11
4.84577
21
-3.69601
0
LINE
8
BLACK
6
CONTINUOUS
10
4.84577
20
-3.69601
11
4.84584
21
-3.69563
0
LINE
8
BLACK
6
CONTINUOUS
10
4.84584
20
-3.69563
11
4.84633
21
-3.69504
0
LINE
8
BLACK
6
CONTINUOUS
10
4.84633
20
-3.69504
11
4.84672
21
-3.69438
0
LINE
8
BLACK
6
CONTINUOUS
10
4.84672
20
-3.69438
11
4.84697
21
-3.69429
0
LINE
8
BLACK
6
CONTINUOUS
10
4.84697
20
-3.69429
11
4.84714
21
-3.69408
0
LINE
8
BLACK
6
CONTINUOUS
10
4.84714
20
-3.69408
11
4.84789
21
-3.69395
0
LINE
8
BLACK
6
CONTINUOUS
10
4.84789
20
-3.69395
11
4.84861
21
-3.69369
0
LINE
8
BLACK
6
CONTINUOUS
10
4.84861
20
-3.69369
11
4.88798
21
-3.69369
0
LINE
8
BLACK
6
CONTINUOUS
10
4.88798
20
-3.69369
11
4.88837
21
-3.69375
0
LINE
8
BLACK
6
CONTINUOUS
10
4.87032
20
-3.70928
11
4.87182
21
-3.71379
0
LINE
8
BLACK
6
CONTINUOUS
10
4.87182
20
-3.71379
11
4.87286
21
-3.71484
0
LINE
8
BLACK
6
CONTINUOUS
10
4.87286
20
-3.71484
11
4.87556
21
-3.71618
0
LINE
8
BLACK
6
CONTINUOUS
10
4.87556
20
-3.71618
11
4.87979
21
-3.71618
0
LINE
8
BLACK
6
CONTINUOUS
10
4.87979
20
-3.71618
11
4.88249
21
-3.71484
0
LINE
8
BLACK
6
CONTINUOUS
10
4.88249
20
-3.71484
11
4.88368
21
-3.71364
0
LINE
8
BLACK
6
CONTINUOUS
10
4.88368
20
-3.71364
11
4.88503
21
-3.71094
0
LINE
8
BLACK
6
CONTINUOUS
10
4.88503
20
-3.71094
11
4.88503
21
-3.69959
0
LINE
8
BLACK
6
CONTINUOUS
10
4.88503
20
-3.69959
11
4.87032
21
-3.69959
0
LINE
8
BLACK
6
CONTINUOUS
10
4.87032
20
-3.69959
11
4.87032
21
-3.70928
0
LINE
8
BLACK
6
CONTINUOUS
10
4.85157
20
-3.70907
11
4.85292
21
-3.71176
0
LINE
8
BLACK
6
CONTINUOUS
10
4.85292
20
-3.71176
11
4.85411
21
-3.71296
0
LINE
8
BLACK
6
CONTINUOUS
10
4.85411
20
-3.71296
11
4.85681
21
-3.71431
0
LINE
8
BLACK
6
CONTINUOUS
10
4.85681
20
-3.71431
11
4.85917
21
-3.71431
0
LINE
8
BLACK
6
CONTINUOUS
10
4.85917
20
-3.71431
11
4.86186
21
-3.71296
0
LINE
8
BLACK
6
CONTINUOUS
10
4.86186
20
-3.71296
11
4.86306
21
-3.71176
0
LINE
8
BLACK
6
CONTINUOUS
10
4.86306
20
-3.71176
11
4.86441
21
-3.70907
0
LINE
8
BLACK
6
CONTINUOUS
10
4.86441
20
-3.70907
11
4.86441
21
-3.69959
0
LINE
8
BLACK
6
CONTINUOUS
10
4.86441
20
-3.69959
11
4.85157
21
-3.69959
0
LINE
8
BLACK
6
CONTINUOUS
10
4.85157
20
-3.69959
11
4.85157
21
-3.70907
0
LINE
8
BLACK
6
CONTINUOUS
10
4.85099
20
-3.64319
11
4.85125
21
-3.64317
0
LINE
8
BLACK
6
CONTINUOUS
10
4.85125
20
-3.64317
11
4.85188
21
-3.64361
0
LINE
8
BLACK
6
CONTINUOUS
10
4.85188
20
-3.64361
11
4.85258
21
-3.64393
0
LINE
8
BLACK
6
CONTINUOUS
10
4.85258
20
-3.64393
11
4.85445
21
-3.64581
0
LINE
8
BLACK
6
CONTINUOUS
10
4.85445
20
-3.64581
11
4.85468
21
-3.64613
0
LINE
8
BLACK
6
CONTINUOUS
10
4.85468
20
-3.64613
11
4.85478
21
-3.6462
0
LINE
8
BLACK
6
CONTINUOUS
10
4.85478
20
-3.6462
11
4.85482
21
-3.64633
0
LINE
8
BLACK
6
CONTINUOUS
10
4.85482
20
-3.64633
11
4.85482
21
-3.64634
0
LINE
8
BLACK
6
CONTINUOUS
10
4.85482
20
-3.64634
11
4.85492
21
-3.64642
0
LINE
8
BLACK
6
CONTINUOUS
10
4.85492
20
-3.64642
11
4.85494
21
-3.6465
0
LINE
8
BLACK
6
CONTINUOUS
10
4.85494
20
-3.6465
11
4.85504
21
-3.64665
0
LINE
8
BLACK
6
CONTINUOUS
10
4.85504
20
-3.64665
11
4.85511
21
-3.64741
0
LINE
8
BLACK
6
CONTINUOUS
10
4.85511
20
-3.64741
11
4.85531
21
-3.64815
0
LINE
8
BLACK
6
CONTINUOUS
10
4.85531
20
-3.64815
11
4.85525
21
-3.64828
0
LINE
8
BLACK
6
CONTINUOUS
10
4.85525
20
-3.64828
11
4.85527
21
-3.64841
0
LINE
8
BLACK
6
CONTINUOUS
10
4.85527
20
-3.64841
11
4.8552
21
-3.64853
0
LINE
8
BLACK
6
CONTINUOUS
10
4.8552
20
-3.64853
11
4.85522
21
-3.64866
0
LINE
8
BLACK
6
CONTINUOUS
10
4.85522
20
-3.64866
11
4.85478
21
-3.64929
0
LINE
8
BLACK
6
CONTINUOUS
10
4.85478
20
-3.64929
11
4.85445
21
-3.64998
0
LINE
8
BLACK
6
CONTINUOUS
10
4.85445
20
-3.64998
11
4.85258
21
-3.65186
0
LINE
8
BLACK
6
CONTINUOUS
10
4.85258
20
-3.65186
11
4.85226
21
-3.65208
0
LINE
8
BLACK
6
CONTINUOUS
10
4.85226
20
-3.65208
11
4.85218
21
-3.65219
0
LINE
8
BLACK
6
CONTINUOUS
10
4.85218
20
-3.65219
11
4.85206
21
-3.65222
0
LINE
8
BLACK
6
CONTINUOUS
10
4.85206
20
-3.65222
11
4.85174
21
-3.65245
0
LINE
8
BLACK
6
CONTINUOUS
10
4.85174
20
-3.65245
11
4.85097
21
-3.65251
0
LINE
8
BLACK
6
CONTINUOUS
10
4.85097
20
-3.65251
11
4.85023
21
-3.65271
0
LINE
8
BLACK
6
CONTINUOUS
10
4.85023
20
-3.65271
11
4.84999
21
-3.6526
0
LINE
8
BLACK
6
CONTINUOUS
10
4.84999
20
-3.6526
11
4.84973
21
-3.65262
0
LINE
8
BLACK
6
CONTINUOUS
10
4.84973
20
-3.65262
11
4.8491
21
-3.65218
0
LINE
8
BLACK
6
CONTINUOUS
10
4.8491
20
-3.65218
11
4.8484
21
-3.65186
0
LINE
8
BLACK
6
CONTINUOUS
10
4.8484
20
-3.65186
11
4.84653
21
-3.64998
0
LINE
8
BLACK
6
CONTINUOUS
10
4.84653
20
-3.64998
11
4.8463
21
-3.64966
0
LINE
8
BLACK
6
CONTINUOUS
10
4.8463
20
-3.64966
11
4.8462
21
-3.64959
0
LINE
8
BLACK
6
CONTINUOUS
10
4.8462
20
-3.64959
11
4.84616
21
-3.64946
0
LINE
8
BLACK
6
CONTINUOUS
10
4.84616
20
-3.64946
11
4.84616
21
-3.64946
0
LINE
8
BLACK
6
CONTINUOUS
10
4.84616
20
-3.64946
11
4.84606
21
-3.64937
0
LINE
8
BLACK
6
CONTINUOUS
10
4.84606
20
-3.64937
11
4.84604
21
-3.64929
0
LINE
8
BLACK
6
CONTINUOUS
10
4.84604
20
-3.64929
11
4.84594
21
-3.64914
0
LINE
8
BLACK
6
CONTINUOUS
10
4.84594
20
-3.64914
11
4.84587
21
-3.64838
0
LINE
8
BLACK
6
CONTINUOUS
10
4.84587
20
-3.64838
11
4.84567
21
-3.64764
0
LINE
8
BLACK
6
CONTINUOUS
10
4.84567
20
-3.64764
11
4.84573
21
-3.64752
0
LINE
8
BLACK
6
CONTINUOUS
10
4.84573
20
-3.64752
11
4.84571
21
-3.64738
0
LINE
8
BLACK
6
CONTINUOUS
10
4.84571
20
-3.64738
11
4.84577
21
-3.64727
0
LINE
8
BLACK
6
CONTINUOUS
10
4.84577
20
-3.64727
11
4.84576
21
-3.64713
0
LINE
8
BLACK
6
CONTINUOUS
10
4.84576
20
-3.64713
11
4.8462
21
-3.6465
0
LINE
8
BLACK
6
CONTINUOUS
10
4.8462
20
-3.6465
11
4.84653
21
-3.64581
0
LINE
8
BLACK
6
CONTINUOUS
10
4.84653
20
-3.64581
11
4.8484
21
-3.64393
0
LINE
8
BLACK
6
CONTINUOUS
10
4.8484
20
-3.64393
11
4.84872
21
-3.64371
0
LINE
8
BLACK
6
CONTINUOUS
10
4.84872
20
-3.64371
11
4.8488
21
-3.6436
0
LINE
8
BLACK
6
CONTINUOUS
10
4.8488
20
-3.6436
11
4.84892
21
-3.64357
0
LINE
8
BLACK
6
CONTINUOUS
10
4.84892
20
-3.64357
11
4.84924
21
-3.64334
0
LINE
8
BLACK
6
CONTINUOUS
10
4.84924
20
-3.64334
11
4.85001
21
-3.64328
0
LINE
8
BLACK
6
CONTINUOUS
10
4.85001
20
-3.64328
11
4.85075
21
-3.64308
0
LINE
8
BLACK
6
CONTINUOUS
10
4.85075
20
-3.64308
11
4.85099
21
-3.64319
0
LINE
8
BLACK
6
CONTINUOUS
10
4.88899
20
-3.64512
11
4.89054
21
-3.64642
0
LINE
8
BLACK
6
CONTINUOUS
10
4.89054
20
-3.64642
11
4.89089
21
-3.64841
0
LINE
8
BLACK
6
CONTINUOUS
10
4.89089
20
-3.64841
11
4.88988
21
-3.65016
0
LINE
8
BLACK
6
CONTINUOUS
10
4.88988
20
-3.65016
11
4.88798
21
-3.65085
0
LINE
8
BLACK
6
CONTINUOUS
10
4.88798
20
-3.65085
11
4.86174
21
-3.65085
0
LINE
8
BLACK
6
CONTINUOUS
10
4.86174
20
-3.65085
11
4.86073
21
-3.65067
0
LINE
8
BLACK
6
CONTINUOUS
10
4.86073
20
-3.65067
11
4.85918
21
-3.64937
0
LINE
8
BLACK
6
CONTINUOUS
10
4.85918
20
-3.64937
11
4.85883
21
-3.64738
0
LINE
8
BLACK
6
CONTINUOUS
10
4.85883
20
-3.64738
11
4.85984
21
-3.64563
0
LINE
8
BLACK
6
CONTINUOUS
10
4.85984
20
-3.64563
11
4.86174
21
-3.64494
0
LINE
8
BLACK
6
CONTINUOUS
10
4.86174
20
-3.64494
11
4.88798
21
-3.64494
0
LINE
8
BLACK
6
CONTINUOUS
10
4.88798
20
-3.64494
11
4.88899
21
-3.64512
0
LINE
8
BLACK
6
CONTINUOUS
10
4.88899
20
-3.61138
11
4.89054
21
-3.61267
0
LINE
8
BLACK
6
CONTINUOUS
10
4.89054
20
-3.61267
11
4.89089
21
-3.61466
0
LINE
8
BLACK
6
CONTINUOUS
10
4.89089
20
-3.61466
11
4.88988
21
-3.61641
0
LINE
8
BLACK
6
CONTINUOUS
10
4.88988
20
-3.61641
11
4.88798
21
-3.6171
0
LINE
8
BLACK
6
CONTINUOUS
10
4.88798
20
-3.6171
11
4.87032
21
-3.6171
0
LINE
8
BLACK
6
CONTINUOUS
10
4.87032
20
-3.6171
11
4.87032
21
-3.62727
0
LINE
8
BLACK
6
CONTINUOUS
10
4.87032
20
-3.62727
11
4.87014
21
-3.62828
0
LINE
8
BLACK
6
CONTINUOUS
10
4.87014
20
-3.62828
11
4.86884
21
-3.62983
0
LINE
8
BLACK
6
CONTINUOUS
10
4.86884
20
-3.62983
11
4.86685
21
-3.63018
0
LINE
8
BLACK
6
CONTINUOUS
10
4.86685
20
-3.63018
11
4.8651
21
-3.62917
0
LINE
8
BLACK
6
CONTINUOUS
10
4.8651
20
-3.62917
11
4.86441
21
-3.62727
0
LINE
8
BLACK
6
CONTINUOUS
10
4.86441
20
-3.62727
11
4.86441
21
-3.6171
0
LINE
8
BLACK
6
CONTINUOUS
10
4.86441
20
-3.6171
11
4.85157
21
-3.6171
0
LINE
8
BLACK
6
CONTINUOUS
10
4.85157
20
-3.6171
11
4.85157
21
-3.6329
0
LINE
8
BLACK
6
CONTINUOUS
10
4.85157
20
-3.6329
11
4.85139
21
-3.63391
0
LINE
8
BLACK
6
CONTINUOUS
10
4.85139
20
-3.63391
11
4.85009
21
-3.63545
0
LINE
8
BLACK
6
CONTINUOUS
10
4.85009
20
-3.63545
11
4.8481
21
-3.63581
0
LINE
8
BLACK
6
CONTINUOUS
10
4.8481
20
-3.63581
11
4.84635
21
-3.6348
0
LINE
8
BLACK
6
CONTINUOUS
10
4.84635
20
-3.6348
11
4.84566
21
-3.6329
0
LINE
8
BLACK
6
CONTINUOUS
10
4.84566
20
-3.6329
11
4.84566
21
-3.61415
0
LINE
8
BLACK
6
CONTINUOUS
10
4.84566
20
-3.61415
11
4.84573
21
-3.61377
0
LINE
8
BLACK
6
CONTINUOUS
10
4.84573
20
-3.61377
11
4.84571
21
-3.61364
0
LINE
8
BLACK
6
CONTINUOUS
10
4.84571
20
-3.61364
11
4.84577
21
-3.61352
0
LINE
8
BLACK
6
CONTINUOUS
10
4.84577
20
-3.61352
11
4.84584
21
-3.61314
0
LINE
8
BLACK
6
CONTINUOUS
10
4.84584
20
-3.61314
11
4.84633
21
-3.61255
0
LINE
8
BLACK
6
CONTINUOUS
10
4.84633
20
-3.61255
11
4.84672
21
-3.61189
0
LINE
8
BLACK
6
CONTINUOUS
10
4.84672
20
-3.61189
11
4.84697
21
-3.6118
0
LINE
8
BLACK
6
CONTINUOUS
10
4.84697
20
-3.6118
11
4.84714
21
-3.61159
0
LINE
8
BLACK
6
CONTINUOUS
10
4.84714
20
-3.61159
11
4.84789
21
-3.61146
0
LINE
8
BLACK
6
CONTINUOUS
10
4.84789
20
-3.61146
11
4.84861
21
-3.6112
0
LINE
8
BLACK
6
CONTINUOUS
10
4.84861
20
-3.6112
11
4.88798
21
-3.6112
0
LINE
8
BLACK
6
CONTINUOUS
10
4.88798
20
-3.6112
11
4.88899
21
-3.61138
0
LINE
8
BLACK
6
CONTINUOUS
10
4.85099
20
-3.5907
11
4.85125
21
-3.59068
0
LINE
8
BLACK
6
CONTINUOUS
10
4.85125
20
-3.59068
11
4.85188
21
-3.59112
0
LINE
8
BLACK
6
CONTINUOUS
10
4.85188
20
-3.59112
11
4.85258
21
-3.59144
0
LINE
8
BLACK
6
CONTINUOUS
10
4.85258
20
-3.59144
11
4.85445
21
-3.59331
0
LINE
8
BLACK
6
CONTINUOUS
10
4.85445
20
-3.59331
11
4.85468
21
-3.59363
0
LINE
8
BLACK
6
CONTINUOUS
10
4.85468
20
-3.59363
11
4.85478
21
-3.59371
0
LINE
8
BLACK
6
CONTINUOUS
10
4.85478
20
-3.59371
11
4.85482
21
-3.59384
0
LINE
8
BLACK
6
CONTINUOUS
10
4.85482
20
-3.59384
11
4.85482
21
-3.59384
0
LINE
8
BLACK
6
CONTINUOUS
10
4.85482
20
-3.59384
11
4.85492
21
-3.59393
0
LINE
8
BLACK
6
CONTINUOUS
10
4.85492
20
-3.59393
11
4.85494
21
-3.594
0
LINE
8
BLACK
6
CONTINUOUS
10
4.85494
20
-3.594
11
4.85504
21
-3.59415
0
LINE
8
BLACK
6
CONTINUOUS
10
4.85504
20
-3.59415
11
4.85511
21
-3.59492
0
LINE
8
BLACK
6
CONTINUOUS
10
4.85511
20
-3.59492
11
4.85531
21
-3.59566
0
LINE
8
BLACK
6
CONTINUOUS
10
4.85531
20
-3.59566
11
4.85525
21
-3.59578
0
LINE
8
BLACK
6
CONTINUOUS
10
4.85525
20
-3.59578
11
4.85527
21
-3.59592
0
LINE
8
BLACK
6
CONTINUOUS
10
4.85527
20
-3.59592
11
4.8552
21
-3.59603
0
LINE
8
BLACK
6
CONTINUOUS
10
4.8552
20
-3.59603
11
4.85522
21
-3.59617
0
LINE
8
BLACK
6
CONTINUOUS
10
4.85522
20
-3.59617
11
4.85478
21
-3.59679
0
LINE
8
BLACK
6
CONTINUOUS
10
4.85478
20
-3.59679
11
4.85445
21
-3.59749
0
LINE
8
BLACK
6
CONTINUOUS
10
4.85445
20
-3.59749
11
4.85258
21
-3.59936
0
LINE
8
BLACK
6
CONTINUOUS
10
4.85258
20
-3.59936
11
4.85226
21
-3.59959
0
LINE
8
BLACK
6
CONTINUOUS
10
4.85226
20
-3.59959
11
4.85218
21
-3.5997
0
LINE
8
BLACK
6
CONTINUOUS
10
4.85218
20
-3.5997
11
4.85206
21
-3.59973
0
LINE
8
BLACK
6
CONTINUOUS
10
4.85206
20
-3.59973
11
4.85174
21
-3.59995
0
LINE
8
BLACK
6
CONTINUOUS
10
4.85174
20
-3.59995
11
4.85097
21
-3.60002
0
LINE
8
BLACK
6
CONTINUOUS
10
4.85097
20
-3.60002
11
4.85023
21
-3.60022
0
LINE
8
BLACK
6
CONTINUOUS
10
4.85023
20
-3.60022
11
4.84999
21
-3.60011
0
LINE
8
BLACK
6
CONTINUOUS
10
4.84999
20
-3.60011
11
4.84973
21
-3.60013
0
LINE
8
BLACK
6
CONTINUOUS
10
4.84973
20
-3.60013
11
4.8491
21
-3.59969
0
LINE
8
BLACK
6
CONTINUOUS
10
4.8491
20
-3.59969
11
4.8484
21
-3.59936
0
LINE
8
BLACK
6
CONTINUOUS
10
4.8484
20
-3.59936
11
4.84653
21
-3.59749
0
LINE
8
BLACK
6
CONTINUOUS
10
4.84653
20
-3.59749
11
4.8463
21
-3.59717
0
LINE
8
BLACK
6
CONTINUOUS
10
4.8463
20
-3.59717
11
4.8462
21
-3.5971
0
LINE
8
BLACK
6
CONTINUOUS
10
4.8462
20
-3.5971
11
4.84616
21
-3.59697
0
LINE
8
BLACK
6
CONTINUOUS
10
4.84616
20
-3.59697
11
4.84616
21
-3.59696
0
LINE
8
BLACK
6
CONTINUOUS
10
4.84616
20
-3.59696
11
4.84606
21
-3.59688
0
LINE
8
BLACK
6
CONTINUOUS
10
4.84606
20
-3.59688
11
4.84604
21
-3.5968
0
LINE
8
BLACK
6
CONTINUOUS
10
4.84604
20
-3.5968
11
4.84594
21
-3.59665
0
LINE
8
BLACK
6
CONTINUOUS
10
4.84594
20
-3.59665
11
4.84587
21
-3.59589
0
LINE
8
BLACK
6
CONTINUOUS
10
4.84587
20
-3.59589
11
4.84567
21
-3.59515
0
LINE
8
BLACK
6
CONTINUOUS
10
4.84567
20
-3.59515
11
4.84573
21
-3.59502
0
LINE
8
BLACK
6
CONTINUOUS
10
4.84573
20
-3.59502
11
4.84571
21
-3.59489
0
LINE
8
BLACK
6
CONTINUOUS
10
4.84571
20
-3.59489
11
4.84577
21
-3.59477
0
LINE
8
BLACK
6
CONTINUOUS
10
4.84577
20
-3.59477
11
4.84576
21
-3.59464
0
LINE
8
BLACK
6
CONTINUOUS
10
4.84576
20
-3.59464
11
4.8462
21
-3.59401
0
LINE
8
BLACK
6
CONTINUOUS
10
4.8462
20
-3.59401
11
4.84653
21
-3.59331
0
LINE
8
BLACK
6
CONTINUOUS
10
4.84653
20
-3.59331
11
4.8484
21
-3.59144
0
LINE
8
BLACK
6
CONTINUOUS
10
4.8484
20
-3.59144
11
4.84872
21
-3.59122
0
LINE
8
BLACK
6
CONTINUOUS
10
4.84872
20
-3.59122
11
4.8488
21
-3.59111
0
LINE
8
BLACK
6
CONTINUOUS
10
4.8488
20
-3.59111
11
4.84892
21
-3.59107
0
LINE
8
BLACK
6
CONTINUOUS
10
4.84892
20
-3.59107
11
4.84924
21
-3.59085
0
LINE
8
BLACK
6
CONTINUOUS
10
4.84924
20
-3.59085
11
4.85001
21
-3.59078
0
LINE
8
BLACK
6
CONTINUOUS
10
4.85001
20
-3.59078
11
4.85075
21
-3.59059
0
LINE
8
BLACK
6
CONTINUOUS
10
4.85075
20
-3.59059
11
4.85099
21
-3.5907
0
LINE
8
BLACK
6
CONTINUOUS
10
4.88899
20
-3.59263
11
4.89054
21
-3.59393
0
LINE
8
BLACK
6
CONTINUOUS
10
4.89054
20
-3.59393
11
4.89089
21
-3.59592
0
LINE
8
BLACK
6
CONTINUOUS
10
4.89089
20
-3.59592
11
4.88988
21
-3.59766
0
LINE
8
BLACK
6
CONTINUOUS
10
4.88988
20
-3.59766
11
4.88798
21
-3.59836
0
LINE
8
BLACK
6
CONTINUOUS
10
4.88798
20
-3.59836
11
4.86174
21
-3.59836
0
LINE
8
BLACK
6
CONTINUOUS
10
4.86174
20
-3.59836
11
4.86073
21
-3.59818
0
LINE
8
BLACK
6
CONTINUOUS
10
4.86073
20
-3.59818
11
4.85918
21
-3.59688
0
LINE
8
BLACK
6
CONTINUOUS
10
4.85918
20
-3.59688
11
4.85883
21
-3.59489
0
LINE
8
BLACK
6
CONTINUOUS
10
4.85883
20
-3.59489
11
4.85984
21
-3.59314
0
LINE
8
BLACK
6
CONTINUOUS
10
4.85984
20
-3.59314
11
4.86174
21
-3.59245
0
LINE
8
BLACK
6
CONTINUOUS
10
4.86174
20
-3.59245
11
4.88798
21
-3.59245
0
LINE
8
BLACK
6
CONTINUOUS
10
4.88798
20
-3.59245
11
4.88899
21
-3.59263
0
LINE
8
BLACK
6
CONTINUOUS
10
4.88899
20
-3.55138
11
4.89054
21
-3.55268
0
LINE
8
BLACK
6
CONTINUOUS
10
4.89054
20
-3.55268
11
4.89089
21
-3.55467
0
LINE
8
BLACK
6
CONTINUOUS
10
4.89089
20
-3.55467
11
4.88988
21
-3.55642
0
LINE
8
BLACK
6
CONTINUOUS
10
4.88988
20
-3.55642
11
4.88798
21
-3.55711
0
LINE
8
BLACK
6
CONTINUOUS
10
4.88798
20
-3.55711
11
4.87032
21
-3.55711
0
LINE
8
BLACK
6
CONTINUOUS
10
4.87032
20
-3.55711
11
4.87032
21
-3.5737
0
LINE
8
BLACK
6
CONTINUOUS
10
4.87032
20
-3.5737
11
4.88798
21
-3.5737
0
LINE
8
BLACK
6
CONTINUOUS
10
4.88798
20
-3.5737
11
4.88899
21
-3.57388
0
LINE
8
BLACK
6
CONTINUOUS
10
4.88899
20
-3.57388
11
4.89054
21
-3.57518
0
LINE
8
BLACK
6
CONTINUOUS
10
4.89054
20
-3.57518
11
4.89089
21
-3.57717
0
LINE
8
BLACK
6
CONTINUOUS
10
4.89089
20
-3.57717
11
4.88988
21
-3.57892
0
LINE
8
BLACK
6
CONTINUOUS
10
4.88988
20
-3.57892
11
4.88798
21
-3.57961
0
LINE
8
BLACK
6
CONTINUOUS
10
4.88798
20
-3.57961
11
4.84861
21
-3.57961
0
LINE
8
BLACK
6
CONTINUOUS
10
4.84861
20
-3.57961
11
4.8476
21
-3.57943
0
LINE
8
BLACK
6
CONTINUOUS
10
4.8476
20
-3.57943
11
4.84606
21
-3.57813
0
LINE
8
BLACK
6
CONTINUOUS
10
4.84606
20
-3.57813
11
4.84571
21
-3.57614
0
LINE
8
BLACK
6
CONTINUOUS
10
4.84571
20
-3.57614
11
4.84672
21
-3.57439
0
LINE
8
BLACK
6
CONTINUOUS
10
4.84672
20
-3.57439
11
4.84861
21
-3.5737
0
LINE
8
BLACK
6
CONTINUOUS
10
4.84861
20
-3.5737
11
4.86441
21
-3.5737
0
LINE
8
BLACK
6
CONTINUOUS
10
4.86441
20
-3.5737
11
4.86441
21
-3.55711
0
LINE
8
BLACK
6
CONTINUOUS
10
4.86441
20
-3.55711
11
4.84861
21
-3.55711
0
LINE
8
BLACK
6
CONTINUOUS
10
4.84861
20
-3.55711
11
4.8476
21
-3.55693
0
LINE
8
BLACK
6
CONTINUOUS
10
4.8476
20
-3.55693
11
4.84606
21
-3.55563
0
LINE
8
BLACK
6
CONTINUOUS
10
4.84606
20
-3.55563
11
4.84571
21
-3.55364
0
LINE
8
BLACK
6
CONTINUOUS
10
4.84571
20
-3.55364
11
4.84672
21
-3.5519
0
LINE
8
BLACK
6
CONTINUOUS
10
4.84672
20
-3.5519
11
4.84861
21
-3.5512
0
LINE
8
BLACK
6
CONTINUOUS
10
4.84861
20
-3.5512
11
4.88798
21
-3.5512
0
LINE
8
BLACK
6
CONTINUOUS
10
4.88798
20
-3.5512
11
4.88899
21
-3.55138
0
LINE
8
BLACK
6
CONTINUOUS
10
6.17421
20
-2.89471
11
6.1756
21
-2.89529
0
LINE
8
BLACK
6
CONTINUOUS
10
6.1756
20
-2.89529
11
6.21497
21
-2.93466
0
LINE
8
BLACK
6
CONTINUOUS
10
6.21497
20
-2.93466
11
6.21555
21
-2.93605
0
LINE
8
BLACK
6
CONTINUOUS
10
6.21555
20
-2.93605
11
6.21555
21
-3.19668
0
LINE
8
BLACK
6
CONTINUOUS
10
6.21555
20
-3.19668
11
6.21497
21
-3.19807
0
LINE
8
BLACK
6
CONTINUOUS
10
6.21497
20
-3.19807
11
6.21358
21
-3.19865
0
LINE
8
BLACK
6
CONTINUOUS
10
6.21358
20
-3.19865
11
6.01358
21
-3.19865
0
LINE
8
BLACK
6
CONTINUOUS
10
6.01358
20
-3.19865
11
6.01219
21
-3.19807
0
LINE
8
BLACK
6
CONTINUOUS
10
6.01219
20
-3.19807
11
6.01161
21
-3.19668
0
LINE
8
BLACK
6
CONTINUOUS
10
6.01161
20
-3.19668
11
6.01161
21
-2.89668
0
LINE
8
BLACK
6
CONTINUOUS
10
6.01161
20
-2.89668
11
6.01219
21
-2.89529
0
LINE
8
BLACK
6
CONTINUOUS
10
6.01219
20
-2.89529
11
6.01358
21
-2.89471
0
LINE
8
BLACK
6
CONTINUOUS
10
6.01358
20
-2.89471
11
6.17421
21
-2.89471
0
LINE
8
BLACK
6
CONTINUOUS
10
6.01555
20
-2.89865
11
6.01555
21
-3.19471
0
LINE
8
BLACK
6
CONTINUOUS
10
6.01555
20
-3.19471
11
6.21161
21
-3.19471
0
LINE
8
BLACK
6
CONTINUOUS
10
6.21161
20
-3.19471
11
6.21161
21
-2.93686
0
LINE
8
BLACK
6
CONTINUOUS
10
6.21161
20
-2.93686
11
6.1734
21
-2.89865
0
LINE
8
BLACK
6
CONTINUOUS
10
6.1734
20
-2.89865
11
6.01555
21
-2.89865
0
LINE
8
BLACK
6
CONTINUOUS
10
1.75035
20
-1.58304
11
1.7519
21
-1.58434
0
LINE
8
BLACK
6
CONTINUOUS
10
1.7519
20
-1.58434
11
1.75225
21
-1.58633
0
LINE
8
BLACK
6
CONTINUOUS
10
1.75225
20
-1.58633
11
1.75124
21
-1.58808
0
LINE
8
BLACK
6
CONTINUOUS
10
1.75124
20
-1.58808
11
1.74934
21
-1.58877
0
LINE
8
BLACK
6
CONTINUOUS
10
1.74934
20
-1.58877
11
1.73148
21
-1.58877
0
LINE
8
BLACK
6
CONTINUOUS
10
1.73148
20
-1.58877
11
1.74032
21
-1.59887
0
LINE
8
BLACK
6
CONTINUOUS
10
1.74032
20
-1.59887
11
1.74055
21
-1.59925
0
LINE
8
BLACK
6
CONTINUOUS
10
1.74055
20
-1.59925
11
1.74065
21
-1.59934
0
LINE
8
BLACK
6
CONTINUOUS
10
1.74065
20
-1.59934
11
1.74067
21
-1.59946
0
LINE
8
BLACK
6
CONTINUOUS
10
1.74067
20
-1.59946
11
1.74085
21
-1.59975
0
LINE
8
BLACK
6
CONTINUOUS
10
1.74085
20
-1.59975
11
1.74086
21
-1.60055
0
LINE
8
BLACK
6
CONTINUOUS
10
1.74086
20
-1.60055
11
1.741
21
-1.60133
0
LINE
8
BLACK
6
CONTINUOUS
10
1.741
20
-1.60133
11
1.74089
21
-1.60153
0
LINE
8
BLACK
6
CONTINUOUS
10
1.74089
20
-1.60153
11
1.74089
21
-1.60177
0
LINE
8
BLACK
6
CONTINUOUS
10
1.74089
20
-1.60177
11
1.74039
21
-1.60239
0
LINE
8
BLACK
6
CONTINUOUS
10
1.74039
20
-1.60239
11
1.73999
21
-1.60308
0
LINE
8
BLACK
6
CONTINUOUS
10
1.73999
20
-1.60308
11
1.73977
21
-1.60316
0
LINE
8
BLACK
6
CONTINUOUS
10
1.73977
20
-1.60316
11
1.73962
21
-1.60334
0
LINE
8
BLACK
6
CONTINUOUS
10
1.73962
20
-1.60334
11
1.73884
21
-1.6035
0
LINE
8
BLACK
6
CONTINUOUS
10
1.73884
20
-1.6035
11
1.7381
21
-1.60377
0
LINE
8
BLACK
6
CONTINUOUS
10
1.7381
20
-1.60377
11
1.73317
21
-1.60377
0
LINE
8
BLACK
6
CONTINUOUS
10
1.73317
20
-1.60377
11
1.73047
21
-1.60512
0
LINE
8
BLACK
6
CONTINUOUS
10
1.73047
20
-1.60512
11
1.72927
21
-1.60632
0
LINE
8
BLACK
6
CONTINUOUS
10
1.72927
20
-1.60632
11
1.72792
21
-1.60901
0
LINE
8
BLACK
6
CONTINUOUS
10
1.72792
20
-1.60901
11
1.72792
21
-1.61699
0
LINE
8
BLACK
6
CONTINUOUS
10
1.72792
20
-1.61699
11
1.72927
21
-1.61969
0
LINE
8
BLACK
6
CONTINUOUS
10
1.72927
20
-1.61969
11
1.73047
21
-1.62089
0
LINE
8
BLACK
6
CONTINUOUS
10
1.73047
20
-1.62089
11
1.73317
21
-1.62224
0
LINE
8
BLACK
6
CONTINUOUS
10
1.73317
20
-1.62224
11
1.74302
21
-1.62224
0
LINE
8
BLACK
6
CONTINUOUS
10
1.74302
20
-1.62224
11
1.74572
21
-1.62089
0
LINE
8
BLACK
6
CONTINUOUS
10
1.74572
20
-1.62089
11
1.74726
21
-1.61935
0
LINE
8
BLACK
6
CONTINUOUS
10
1.74726
20
-1.61935
11
1.7481
21
-1.61876
0
LINE
8
BLACK
6
CONTINUOUS
10
1.7481
20
-1.61876
11
1.75011
21
-1.61859
0
LINE
8
BLACK
6
CONTINUOUS
10
1.75011
20
-1.61859
11
1.75176
21
-1.61975
0
LINE
8
BLACK
6
CONTINUOUS
10
1.75176
20
-1.61975
11
1.75229
21
-1.6217
0
LINE
8
BLACK
6
CONTINUOUS
10
1.75229
20
-1.6217
11
1.75143
21
-1.62353
0
LINE
8
BLACK
6
CONTINUOUS
10
1.75143
20
-1.62353
11
1.74956
21
-1.6254
0
LINE
8
BLACK
6
CONTINUOUS
10
1.74956
20
-1.6254
11
1.74883
21
-1.62591
0
LINE
8
BLACK
6
CONTINUOUS
10
1.74883
20
-1.62591
11
1.74879
21
-1.62596
0
LINE
8
BLACK
6
CONTINUOUS
10
1.74879
20
-1.62596
11
1.74504
21
-1.62783
0
LINE
8
BLACK
6
CONTINUOUS
10
1.74504
20
-1.62783
11
1.74406
21
-1.62812
0
LINE
8
BLACK
6
CONTINUOUS
10
1.74406
20
-1.62812
11
1.74389
21
-1.62808
0
LINE
8
BLACK
6
CONTINUOUS
10
1.74389
20
-1.62808
11
1.74372
21
-1.62814
0
LINE
8
BLACK
6
CONTINUOUS
10
1.74372
20
-1.62814
11
1.73247
21
-1.62814
0
LINE
8
BLACK
6
CONTINUOUS
10
1.73247
20
-1.62814
11
1.73146
21
-1.62796
0
LINE
8
BLACK
6
CONTINUOUS
10
1.73146
20
-1.62796
11
1.73133
21
-1.62785
0
LINE
8
BLACK
6
CONTINUOUS
10
1.73133
20
-1.62785
11
1.73115
21
-1.62783
0
LINE
8
BLACK
6
CONTINUOUS
10
1.73115
20
-1.62783
11
1.7274
21
-1.62596
0
LINE
8
BLACK
6
CONTINUOUS
10
1.7274
20
-1.62596
11
1.72669
21
-1.62543
0
LINE
8
BLACK
6
CONTINUOUS
10
1.72669
20
-1.62543
11
1.72663
21
-1.6254
0
LINE
8
BLACK
6
CONTINUOUS
10
1.72663
20
-1.6254
11
1.72476
21
-1.62353
0
LINE
8
BLACK
6
CONTINUOUS
10
1.72476
20
-1.62353
11
1.72425
21
-1.6228
0
LINE
8
BLACK
6
CONTINUOUS
10
1.72425
20
-1.6228
11
1.72421
21
-1.62276
0
LINE
8
BLACK
6
CONTINUOUS
10
1.72421
20
-1.62276
11
1.72233
21
-1.61901
0
LINE
8
BLACK
6
CONTINUOUS
10
1.72233
20
-1.61901
11
1.72204
21
-1.61803
0
LINE
8
BLACK
6
CONTINUOUS
10
1.72204
20
-1.61803
11
1.72208
21
-1.61786
0
LINE
8
BLACK
6
CONTINUOUS
10
1.72208
20
-1.61786
11
1.72202
21
-1.61769
0
LINE
8
BLACK
6
CONTINUOUS
10
1.72202
20
-1.61769
11
1.72202
21
-1.60832
0
LINE
8
BLACK
6
CONTINUOUS
10
1.72202
20
-1.60832
11
1.7222
21
-1.60731
0
LINE
8
BLACK
6
CONTINUOUS
10
1.7222
20
-1.60731
11
1.72231
21
-1.60717
0
LINE
8
BLACK
6
CONTINUOUS
10
1.72231
20
-1.60717
11
1.72233
21
-1.607
0
LINE
8
BLACK
6
CONTINUOUS
10
1.72233
20
-1.607
11
1.72421
21
-1.60325
0
LINE
8
BLACK
6
CONTINUOUS
10
1.72421
20
-1.60325
11
1.72473
21
-1.60254
0
LINE
8
BLACK
6
CONTINUOUS
10
1.72473
20
-1.60254
11
1.72476
21
-1.60248
0
LINE
8
BLACK
6
CONTINUOUS
10
1.72476
20
-1.60248
11
1.72663
21
-1.6006
0
LINE
8
BLACK
6
CONTINUOUS
10
1.72663
20
-1.6006
11
1.72736
21
-1.6001
0
LINE
8
BLACK
6
CONTINUOUS
10
1.72736
20
-1.6001
11
1.7274
21
-1.60005
0
LINE
8
BLACK
6
CONTINUOUS
10
1.7274
20
-1.60005
11
1.73115
21
-1.59818
0
LINE
8
BLACK
6
CONTINUOUS
10
1.73115
20
-1.59818
11
1.73171
21
-1.59801
0
LINE
8
BLACK
6
CONTINUOUS
10
1.73171
20
-1.59801
11
1.72275
21
-1.58776
0
LINE
8
BLACK
6
CONTINUOUS
10
1.72275
20
-1.58776
11
1.72252
21
-1.58738
0
LINE
8
BLACK
6
CONTINUOUS
10
1.72252
20
-1.58738
11
1.72241
21
-1.5873
0
LINE
8
BLACK
6
CONTINUOUS
10
1.72241
20
-1.5873
11
1.72239
21
-1.58718
0
LINE
8
BLACK
6
CONTINUOUS
10
1.72239
20
-1.58718
11
1.72222
21
-1.58689
0
LINE
8
BLACK
6
CONTINUOUS
10
1.72222
20
-1.58689
11
1.7222
21
-1.58609
0
LINE
8
BLACK
6
CONTINUOUS
10
1.7222
20
-1.58609
11
1.72206
21
-1.58531
0
LINE
8
BLACK
6
CONTINUOUS
10
1.72206
20
-1.58531
11
1.72218
21
-1.5851
0
LINE
8
BLACK
6
CONTINUOUS
10
1.72218
20
-1.5851
11
1.72218
21
-1.58487
0
LINE
8
BLACK
6
CONTINUOUS
10
1.72218
20
-1.58487
11
1.72268
21
-1.58425
0
LINE
8
BLACK
6
CONTINUOUS
10
1.72268
20
-1.58425
11
1.72307
21
-1.58356
0
LINE
8
BLACK
6
CONTINUOUS
10
1.72307
20
-1.58356
11
1.7233
21
-1.58348
0
LINE
8
BLACK
6
CONTINUOUS
10
1.7233
20
-1.58348
11
1.72344
21
-1.58329
0
LINE
8
BLACK
6
CONTINUOUS
10
1.72344
20
-1.58329
11
1.72422
21
-1.58314
0
LINE
8
BLACK
6
CONTINUOUS
10
1.72422
20
-1.58314
11
1.72497
21
-1.58287
0
LINE
8
BLACK
6
CONTINUOUS
10
1.72497
20
-1.58287
11
1.74934
21
-1.58287
0
LINE
8
BLACK
6
CONTINUOUS
10
1.74934
20
-1.58287
11
1.75035
21
-1.58304
0
LINE
8
BLACK
6
CONTINUOUS
10
1.9472
20
-1.58304
11
1.94734
21
-1.58316
0
LINE
8
BLACK
6
CONTINUOUS
10
1.94734
20
-1.58316
11
1.94751
21
-1.58318
0
LINE
8
BLACK
6
CONTINUOUS
10
1.94751
20
-1.58318
11
1.95126
21
-1.58505
0
LINE
8
BLACK
6
CONTINUOUS
10
1.95126
20
-1.58505
11
1.95197
21
-1.58558
0
LINE
8
BLACK
6
CONTINUOUS
10
1.95197
20
-1.58558
11
1.95203
21
-1.58561
0
LINE
8
BLACK
6
CONTINUOUS
10
1.95203
20
-1.58561
11
1.95391
21
-1.58748
0
LINE
8
BLACK
6
CONTINUOUS
10
1.95391
20
-1.58748
11
1.95441
21
-1.5882
0
LINE
8
BLACK
6
CONTINUOUS
10
1.95441
20
-1.5882
11
1.95446
21
-1.58825
0
LINE
8
BLACK
6
CONTINUOUS
10
1.95446
20
-1.58825
11
1.95633
21
-1.592
0
LINE
8
BLACK
6
CONTINUOUS
10
1.95633
20
-1.592
11
1.95663
21
-1.59298
0
LINE
8
BLACK
6
CONTINUOUS
10
1.95663
20
-1.59298
11
1.95659
21
-1.59315
0
LINE
8
BLACK
6
CONTINUOUS
10
1.95659
20
-1.59315
11
1.95665
21
-1.59332
0
LINE
8
BLACK
6
CONTINUOUS
10
1.95665
20
-1.59332
11
1.95665
21
-1.59707
0
LINE
8
BLACK
6
CONTINUOUS
10
1.95665
20
-1.59707
11
1.95647
21
-1.59808
0
LINE
8
BLACK
6
CONTINUOUS
10
1.95647
20
-1.59808
11
1.95635
21
-1.59821
0
LINE
8
BLACK
6
CONTINUOUS
10
1.95635
20
-1.59821
11
1.95633
21
-1.59839
0
LINE
8
BLACK
6
CONTINUOUS
10
1.95633
20
-1.59839
11
1.95446
21
-1.60214
0
LINE
8
BLACK
6
CONTINUOUS
10
1.95446
20
-1.60214
11
1.95393
21
-1.60285
0
LINE
8
BLACK
6
CONTINUOUS
10
1.95393
20
-1.60285
11
1.95391
21
-1.60291
0
LINE
8
BLACK
6
CONTINUOUS
10
1.95391
20
-1.60291
11
1.95203
21
-1.60478
0
LINE
8
BLACK
6
CONTINUOUS
10
1.95203
20
-1.60478
11
1.95131
21
-1.60529
0
LINE
8
BLACK
6
CONTINUOUS
10
1.95131
20
-1.60529
11
1.95126
21
-1.60533
0
LINE
8
BLACK
6
CONTINUOUS
10
1.95126
20
-1.60533
11
1.94751
21
-1.60721
0
LINE
8
BLACK
6
CONTINUOUS
10
1.94751
20
-1.60721
11
1.94703
21
-1.60735
0
LINE
8
BLACK
6
CONTINUOUS
10
1.94703
20
-1.60735
11
1.94691
21
-1.60743
0
LINE
8
BLACK
6
CONTINUOUS
10
1.94691
20
-1.60743
11
1.93973
21
-1.60923
0
LINE
8
BLACK
6
CONTINUOUS
10
1.93973
20
-1.60923
11
1.93669
21
-1.61074
0
LINE
8
BLACK
6
CONTINUOUS
10
1.93669
20
-1.61074
11
1.9355
21
-1.61194
0
LINE
8
BLACK
6
CONTINUOUS
10
1.9355
20
-1.61194
11
1.93415
21
-1.61464
0
LINE
8
BLACK
6
CONTINUOUS
10
1.93415
20
-1.61464
11
1.93415
21
-1.61699
0
LINE
8
BLACK
6
CONTINUOUS
10
1.93415
20
-1.61699
11
1.9355
21
-1.61969
0
LINE
8
BLACK
6
CONTINUOUS
10
1.9355
20
-1.61969
11
1.93669
21
-1.62089
0
LINE
8
BLACK
6
CONTINUOUS
10
1.93669
20
-1.62089
11
1.93939
21
-1.62224
0
LINE
8
BLACK
6
CONTINUOUS
10
1.93939
20
-1.62224
11
1.94759
21
-1.62224
0
LINE
8
BLACK
6
CONTINUOUS
10
1.94759
20
-1.62224
11
1.95276
21
-1.62051
0
LINE
8
BLACK
6
CONTINUOUS
10
1.95276
20
-1.62051
11
1.95377
21
-1.62036
0
LINE
8
BLACK
6
CONTINUOUS
10
1.95377
20
-1.62036
11
1.95565
21
-1.62111
0
LINE
8
BLACK
6
CONTINUOUS
10
1.95565
20
-1.62111
11
1.95661
21
-1.62288
0
LINE
8
BLACK
6
CONTINUOUS
10
1.95661
20
-1.62288
11
1.95621
21
-1.62486
0
LINE
8
BLACK
6
CONTINUOUS
10
1.95621
20
-1.62486
11
1.95463
21
-1.62612
0
LINE
8
BLACK
6
CONTINUOUS
10
1.95463
20
-1.62612
11
1.949
21
-1.62799
0
LINE
8
BLACK
6
CONTINUOUS
10
1.949
20
-1.62799
11
1.94813
21
-1.62812
0
LINE
8
BLACK
6
CONTINUOUS
10
1.94813
20
-1.62812
11
1.94807
21
-1.62814
0
LINE
8
BLACK
6
CONTINUOUS
10
1.94807
20
-1.62814
11
1.9387
21
-1.62814
0
LINE
8
BLACK
6
CONTINUOUS
10
1.9387
20
-1.62814
11
1.93769
21
-1.62796
0
LINE
8
BLACK
6
CONTINUOUS
10
1.93769
20
-1.62796
11
1.93755
21
-1.62785
0
LINE
8
BLACK
6
CONTINUOUS
10
1.93755
20
-1.62785
11
1.93737
21
-1.62783
0
LINE
8
BLACK
6
CONTINUOUS
10
1.93737
20
-1.62783
11
1.93363
21
-1.62596
0
LINE
8
BLACK
6
CONTINUOUS
10
1.93363
20
-1.62596
11
1.93292
21
-1.62543
0
LINE
8
BLACK
6
CONTINUOUS
10
1.93292
20
-1.62543
11
1.93286
21
-1.6254
0
LINE
8
BLACK
6
CONTINUOUS
10
1.93286
20
-1.6254
11
1.93098
21
-1.62353
0
LINE
8
BLACK
6
CONTINUOUS
10
1.93098
20
-1.62353
11
1.93048
21
-1.6228
0
LINE
8
BLACK
6
CONTINUOUS
10
1.93048
20
-1.6228
11
1.93043
21
-1.62276
0
LINE
8
BLACK
6
CONTINUOUS
10
1.93043
20
-1.62276
11
1.92856
21
-1.61901
0
LINE
8
BLACK
6
CONTINUOUS
10
1.92856
20
-1.61901
11
1.92826
21
-1.61803
0
LINE
8
BLACK
6
CONTINUOUS
10
1.92826
20
-1.61803
11
1.9283
21
-1.61786
0
LINE
8
BLACK
6
CONTINUOUS
10
1.9283
20
-1.61786
11
1.92824
21
-1.61769
0
LINE
8
BLACK
6
CONTINUOUS
10
1.92824
20
-1.61769
11
1.92824
21
-1.61394
0
LINE
8
BLACK
6
CONTINUOUS
10
1.92824
20
-1.61394
11
1.92842
21
-1.61293
0
LINE
8
BLACK
6
CONTINUOUS
10
1.92842
20
-1.61293
11
1.92853
21
-1.6128
0
LINE
8
BLACK
6
CONTINUOUS
10
1.92853
20
-1.6128
11
1.92856
21
-1.61262
0
LINE
8
BLACK
6
CONTINUOUS
10
1.92856
20
-1.61262
11
1.93043
21
-1.60887
0
LINE
8
BLACK
6
CONTINUOUS
10
1.93043
20
-1.60887
11
1.93096
21
-1.60816
0
LINE
8
BLACK
6
CONTINUOUS
10
1.93096
20
-1.60816
11
1.93098
21
-1.6081
0
LINE
8
BLACK
6
CONTINUOUS
10
1.93098
20
-1.6081
11
1.93286
21
-1.60623
0
LINE
8
BLACK
6
CONTINUOUS
10
1.93286
20
-1.60623
11
1.93358
21
-1.60572
0
LINE
8
BLACK
6
CONTINUOUS
10
1.93358
20
-1.60572
11
1.93363
21
-1.60568
0
LINE
8
BLACK
6
CONTINUOUS
10
1.93363
20
-1.60568
11
1.93737
21
-1.6038
0
LINE
8
BLACK
6
CONTINUOUS
10
1.93737
20
-1.6038
11
1.93786
21
-1.60366
0
LINE
8
BLACK
6
CONTINUOUS
10
1.93786
20
-1.60366
11
1.93798
21
-1.60358
0
LINE
8
BLACK
6
CONTINUOUS
10
1.93798
20
-1.60358
11
1.94516
21
-1.60178
0
LINE
8
BLACK
6
CONTINUOUS
10
1.94516
20
-1.60178
11
1.94819
21
-1.60027
0
LINE
8
BLACK
6
CONTINUOUS
10
1.94819
20
-1.60027
11
1.94939
21
-1.59907
0
LINE
8
BLACK
6
CONTINUOUS
10
1.94939
20
-1.59907
11
1.95074
21
-1.59637
0
LINE
8
BLACK
6
CONTINUOUS
10
1.95074
20
-1.59637
11
1.95074
21
-1.59402
0
LINE
8
BLACK
6
CONTINUOUS
10
1.95074
20
-1.59402
11
1.94939
21
-1.59132
0
LINE
8
BLACK
6
CONTINUOUS
10
1.94939
20
-1.59132
11
1.94819
21
-1.59012
0
LINE
8
BLACK
6
CONTINUOUS
10
1.94819
20
-1.59012
11
1.9455
21
-1.58877
0
LINE
8
BLACK
6
CONTINUOUS
10
1.9455
20
-1.58877
11
1.9373
21
-1.58877
0
LINE
8
BLACK
6
CONTINUOUS
10
1.9373
20
-1.58877
11
1.93213
21
-1.5905
0
LINE
8
BLACK
6
CONTINUOUS
10
1.93213
20
-1.5905
11
1.93112
21
-1.59065
0
LINE
8
BLACK
6
CONTINUOUS
10
1.93112
20
-1.59065
11
1.92924
21
-1.5899
0
LINE
8
BLACK
6
CONTINUOUS
10
1.92924
20
-1.5899
11
1.92828
21
-1.58813
0
LINE
8
BLACK
6
CONTINUOUS
10
1.92828
20
-1.58813
11
1.92868
21
-1.58615
0
LINE
8
BLACK
6
CONTINUOUS
10
1.92868
20
-1.58615
11
1.93026
21
-1.58489
0
LINE
8
BLACK
6
CONTINUOUS
10
1.93026
20
-1.58489
11
1.93589
21
-1.58302
0
LINE
8
BLACK
6
CONTINUOUS
10
1.93589
20
-1.58302
11
1.93676
21
-1.58289
0
LINE
8
BLACK
6
CONTINUOUS
10
1.93676
20
-1.58289
11
1.93682
21
-1.58287
0
LINE
8
BLACK
6
CONTINUOUS
10
1.93682
20
-1.58287
11
1.94619
21
-1.58287
0
LINE
8
BLACK
6
CONTINUOUS
10
1.94619
20
-1.58287
11
1.9472
21
-1.58304
0
LINE
8
BLACK
6
CONTINUOUS
10
1.97283
20
-1.58392
11
1.97352
21
-1.58582
0
LINE
8
BLACK
6
CONTINUOUS
10
1.97352
20
-1.58582
11
1.97352
21
-1.61346
0
LINE
8
BLACK
6
CONTINUOUS
10
1.97352
20
-1.61346
11
1.97502
21
-1.61797
0
LINE
8
BLACK
6
CONTINUOUS
10
1.97502
20
-1.61797
11
1.97779
21
-1.62073
0
LINE
8
BLACK
6
CONTINUOUS
10
1.97779
20
-1.62073
11
1.98229
21
-1.62224
0
LINE
8
BLACK
6
CONTINUOUS
10
1.98229
20
-1.62224
11
1.98556
21
-1.62224
0
LINE
8
BLACK
6
CONTINUOUS
10
1.98556
20
-1.62224
11
1.98657
21
-1.62242
0
LINE
8
BLACK
6
CONTINUOUS
10
1.98657
20
-1.62242
11
1.98812
21
-1.62371
0
LINE
8
BLACK
6
CONTINUOUS
10
1.98812
20
-1.62371
11
1.98847
21
-1.6257
0
LINE
8
BLACK
6
CONTINUOUS
10
1.98847
20
-1.6257
11
1.98746
21
-1.62745
0
LINE
8
BLACK
6
CONTINUOUS
10
1.98746
20
-1.62745
11
1.98556
21
-1.62814
0
LINE
8
BLACK
6
CONTINUOUS
10
1.98556
20
-1.62814
11
1.98181
21
-1.62814
0
LINE
8
BLACK
6
CONTINUOUS
10
1.98181
20
-1.62814
11
1.98095
21
-1.62799
0
LINE
8
BLACK
6
CONTINUOUS
10
1.98095
20
-1.62799
11
1.98088
21
-1.62799
0
LINE
8
BLACK
6
CONTINUOUS
10
1.98088
20
-1.62799
11
1.97526
21
-1.62612
0
LINE
8
BLACK
6
CONTINUOUS
10
1.97526
20
-1.62612
11
1.97435
21
-1.62563
0
LINE
8
BLACK
6
CONTINUOUS
10
1.97435
20
-1.62563
11
1.97426
21
-1.62548
0
LINE
8
BLACK
6
CONTINUOUS
10
1.97426
20
-1.62548
11
1.9741
21
-1.6254
0
LINE
8
BLACK
6
CONTINUOUS
10
1.9741
20
-1.6254
11
1.97035
21
-1.62165
0
LINE
8
BLACK
6
CONTINUOUS
10
1.97035
20
-1.62165
11
1.96976
21
-1.62081
0
LINE
8
BLACK
6
CONTINUOUS
10
1.96976
20
-1.62081
11
1.96975
21
-1.62064
0
LINE
8
BLACK
6
CONTINUOUS
10
1.96975
20
-1.62064
11
1.96964
21
-1.6205
0
LINE
8
BLACK
6
CONTINUOUS
10
1.96964
20
-1.6205
11
1.96776
21
-1.61487
0
LINE
8
BLACK
6
CONTINUOUS
10
1.96776
20
-1.61487
11
1.96764
21
-1.614
0
LINE
8
BLACK
6
CONTINUOUS
10
1.96764
20
-1.614
11
1.96761
21
-1.61394
0
LINE
8
BLACK
6
CONTINUOUS
10
1.96761
20
-1.61394
11
1.96761
21
-1.58582
0
LINE
8
BLACK
6
CONTINUOUS
10
1.96761
20
-1.58582
11
1.96779
21
-1.58481
0
LINE
8
BLACK
6
CONTINUOUS
10
1.96779
20
-1.58481
11
1.96909
21
-1.58326
0
LINE
8
BLACK
6
CONTINUOUS
10
1.96909
20
-1.58326
11
1.97108
21
-1.58291
0
LINE
8
BLACK
6
CONTINUOUS
10
1.97108
20
-1.58291
11
1.97283
21
-1.58392
0
LINE
8
BLACK
6
CONTINUOUS
10
1.86012
20
-1.58368
11
1.86102
21
-1.5855
0
LINE
8
BLACK
6
CONTINUOUS
10
1.86102
20
-1.5855
11
1.86054
21
-1.58746
0
LINE
8
BLACK
6
CONTINUOUS
10
1.86054
20
-1.58746
11
1.84851
21
-1.6055
0
LINE
8
BLACK
6
CONTINUOUS
10
1.84851
20
-1.6055
11
1.86054
21
-1.62355
0
LINE
8
BLACK
6
CONTINUOUS
10
1.86054
20
-1.62355
11
1.86095
21
-1.62449
0
LINE
8
BLACK
6
CONTINUOUS
10
1.86095
20
-1.62449
11
1.86073
21
-1.6265
0
LINE
8
BLACK
6
CONTINUOUS
10
1.86073
20
-1.6265
11
1.85927
21
-1.62789
0
LINE
8
BLACK
6
CONTINUOUS
10
1.85927
20
-1.62789
11
1.85725
21
-1.62802
0
LINE
8
BLACK
6
CONTINUOUS
10
1.85725
20
-1.62802
11
1.85562
21
-1.62683
0
LINE
8
BLACK
6
CONTINUOUS
10
1.85562
20
-1.62683
11
1.84496
21
-1.61083
0
LINE
8
BLACK
6
CONTINUOUS
10
1.84496
20
-1.61083
11
1.83429
21
-1.62683
0
LINE
8
BLACK
6
CONTINUOUS
10
1.83429
20
-1.62683
11
1.83358
21
-1.62757
0
LINE
8
BLACK
6
CONTINUOUS
10
1.83358
20
-1.62757
11
1.83164
21
-1.62814
0
LINE
8
BLACK
6
CONTINUOUS
10
1.83164
20
-1.62814
11
1.82979
21
-1.62732
0
LINE
8
BLACK
6
CONTINUOUS
10
1.82979
20
-1.62732
11
1.8289
21
-1.62551
0
LINE
8
BLACK
6
CONTINUOUS
10
1.8289
20
-1.62551
11
1.82938
21
-1.62355
0
LINE
8
BLACK
6
CONTINUOUS
10
1.82938
20
-1.62355
11
1.84141
21
-1.6055
0
LINE
8
BLACK
6
CONTINUOUS
10
1.84141
20
-1.6055
11
1.82938
21
-1.58746
0
LINE
8
BLACK
6
CONTINUOUS
10
1.82938
20
-1.58746
11
1.82896
21
-1.58652
0
LINE
8
BLACK
6
CONTINUOUS
10
1.82896
20
-1.58652
11
1.82919
21
-1.58451
0
LINE
8
BLACK
6
CONTINUOUS
10
1.82919
20
-1.58451
11
1.83065
21
-1.58312
0
LINE
8
BLACK
6
CONTINUOUS
10
1.83065
20
-1.58312
11
1.83266
21
-1.58299
0
LINE
8
BLACK
6
CONTINUOUS
10
1.83266
20
-1.58299
11
1.83429
21
-1.58418
0
LINE
8
BLACK
6
CONTINUOUS
10
1.83429
20
-1.58418
11
1.84496
21
-1.60018
0
LINE
8
BLACK
6
CONTINUOUS
10
1.84496
20
-1.60018
11
1.85562
21
-1.58418
0
LINE
8
BLACK
6
CONTINUOUS
10
1.85562
20
-1.58418
11
1.85633
21
-1.58344
0
LINE
8
BLACK
6
CONTINUOUS
10
1.85633
20
-1.58344
11
1.85827
21
-1.58287
0
LINE
8
BLACK
6
CONTINUOUS
10
1.85827
20
-1.58287
11
1.86012
21
-1.58368
0
LINE
8
BLACK
6
CONTINUOUS
10
1.8191
20
-1.58392
11
1.81979
21
-1.58582
0
LINE
8
BLACK
6
CONTINUOUS
10
1.81979
20
-1.58582
11
1.81979
21
-1.62519
0
LINE
8
BLACK
6
CONTINUOUS
10
1.81979
20
-1.62519
11
1.81961
21
-1.6262
0
LINE
8
BLACK
6
CONTINUOUS
10
1.81961
20
-1.6262
11
1.81831
21
-1.62775
0
LINE
8
BLACK
6
CONTINUOUS
10
1.81831
20
-1.62775
11
1.81632
21
-1.6281
0
LINE
8
BLACK
6
CONTINUOUS
10
1.81632
20
-1.6281
11
1.81457
21
-1.62709
0
LINE
8
BLACK
6
CONTINUOUS
10
1.81457
20
-1.62709
11
1.81388
21
-1.62519
0
LINE
8
BLACK
6
CONTINUOUS
10
1.81388
20
-1.62519
11
1.81388
21
-1.60752
0
LINE
8
BLACK
6
CONTINUOUS
10
1.81388
20
-1.60752
11
1.79729
21
-1.60752
0
LINE
8
BLACK
6
CONTINUOUS
10
1.79729
20
-1.60752
11
1.79729
21
-1.62519
0
LINE
8
BLACK
6
CONTINUOUS
10
1.79729
20
-1.62519
11
1.79711
21
-1.6262
0
LINE
8
BLACK
6
CONTINUOUS
10
1.79711
20
-1.6262
11
1.79581
21
-1.62775
0
LINE
8
BLACK
6
CONTINUOUS
10
1.79581
20
-1.62775
11
1.79383
21
-1.6281
0
LINE
8
BLACK
6
CONTINUOUS
10
1.79383
20
-1.6281
11
1.79208
21
-1.62709
0
LINE
8
BLACK
6
CONTINUOUS
10
1.79208
20
-1.62709
11
1.79139
21
-1.62519
0
LINE
8
BLACK
6
CONTINUOUS
10
1.79139
20
-1.62519
11
1.79139
21
-1.58582
0
LINE
8
BLACK
6
CONTINUOUS
10
1.79139
20
-1.58582
11
1.79156
21
-1.58481
0
LINE
8
BLACK
6
CONTINUOUS
10
1.79156
20
-1.58481
11
1.79286
21
-1.58326
0
LINE
8
BLACK
6
CONTINUOUS
10
1.79286
20
-1.58326
11
1.79485
21
-1.58291
0
LINE
8
BLACK
6
CONTINUOUS
10
1.79485
20
-1.58291
11
1.7966
21
-1.58392
0
LINE
8
BLACK
6
CONTINUOUS
10
1.7966
20
-1.58392
11
1.79729
21
-1.58582
0
LINE
8
BLACK
6
CONTINUOUS
10
1.79729
20
-1.58582
11
1.79729
21
-1.60161
0
LINE
8
BLACK
6
CONTINUOUS
10
1.79729
20
-1.60161
11
1.81388
21
-1.60161
0
LINE
8
BLACK
6
CONTINUOUS
10
1.81388
20
-1.60161
11
1.81388
21
-1.58582
0
LINE
8
BLACK
6
CONTINUOUS
10
1.81388
20
-1.58582
11
1.81406
21
-1.58481
0
LINE
8
BLACK
6
CONTINUOUS
10
1.81406
20
-1.58481
11
1.81536
21
-1.58326
0
LINE
8
BLACK
6
CONTINUOUS
10
1.81536
20
-1.58326
11
1.81735
21
-1.58291
0
LINE
8
BLACK
6
CONTINUOUS
10
1.81735
20
-1.58291
11
1.8191
21
-1.58392
0
LINE
8
BLACK
6
CONTINUOUS
10
1.92096
20
-1.58304
11
1.9225
21
-1.58434
0
LINE
8
BLACK
6
CONTINUOUS
10
1.9225
20
-1.58434
11
1.92286
21
-1.58633
0
LINE
8
BLACK
6
CONTINUOUS
10
1.92286
20
-1.58633
11
1.92185
21
-1.58808
0
LINE
8
BLACK
6
CONTINUOUS
10
1.92185
20
-1.58808
11
1.91995
21
-1.58877
0
LINE
8
BLACK
6
CONTINUOUS
10
1.91995
20
-1.58877
11
1.91165
21
-1.58877
0
LINE
8
BLACK
6
CONTINUOUS
10
1.91165
20
-1.58877
11
1.91165
21
-1.62519
0
LINE
8
BLACK
6
CONTINUOUS
10
1.91165
20
-1.62519
11
1.91147
21
-1.6262
0
LINE
8
BLACK
6
CONTINUOUS
10
1.91147
20
-1.6262
11
1.91018
21
-1.62775
0
LINE
8
BLACK
6
CONTINUOUS
10
1.91018
20
-1.62775
11
1.90819
21
-1.6281
0
LINE
8
BLACK
6
CONTINUOUS
10
1.90819
20
-1.6281
11
1.90644
21
-1.62709
0
LINE
8
BLACK
6
CONTINUOUS
10
1.90644
20
-1.62709
11
1.90575
21
-1.62519
0
LINE
8
BLACK
6
CONTINUOUS
10
1.90575
20
-1.62519
11
1.90575
21
-1.58877
0
LINE
8
BLACK
6
CONTINUOUS
10
1.90575
20
-1.58877
11
1.89745
21
-1.58877
0
LINE
8
BLACK
6
CONTINUOUS
10
1.89745
20
-1.58877
11
1.89644
21
-1.58859
0
LINE
8
BLACK
6
CONTINUOUS
10
1.89644
20
-1.58859
11
1.89489
21
-1.5873
0
LINE
8
BLACK
6
CONTINUOUS
10
1.89489
20
-1.5873
11
1.89454
21
-1.58531
0
LINE
8
BLACK
6
CONTINUOUS
10
1.89454
20
-1.58531
11
1.89555
21
-1.58356
0
LINE
8
BLACK
6
CONTINUOUS
10
1.89555
20
-1.58356
11
1.89745
21
-1.58287
0
LINE
8
BLACK
6
CONTINUOUS
10
1.89745
20
-1.58287
11
1.91995
21
-1.58287
0
LINE
8
BLACK
6
CONTINUOUS
10
1.91995
20
-1.58287
11
1.92096
21
-1.58304
0
LINE
8
BLACK
6
CONTINUOUS
10
1.86471
20
-1.50824
11
1.86485
21
-1.50836
0
LINE
8
BLACK
6
CONTINUOUS
10
1.86485
20
-1.50836
11
1.86502
21
-1.50838
0
LINE
8
BLACK
6
CONTINUOUS
10
1.86502
20
-1.50838
11
1.86877
21
-1.51025
0
LINE
8
BLACK
6
CONTINUOUS
10
1.86877
20
-1.51025
11
1.86948
21
-1.51078
0
LINE
8
BLACK
6
CONTINUOUS
10
1.86948
20
-1.51078
11
1.86954
21
-1.5108
0
LINE
8
BLACK
6
CONTINUOUS
10
1.86954
20
-1.5108
11
1.87142
21
-1.51268
0
LINE
8
BLACK
6
CONTINUOUS
10
1.87142
20
-1.51268
11
1.872
21
-1.51352
0
LINE
8
BLACK
6
CONTINUOUS
10
1.872
20
-1.51352
11
1.87218
21
-1.51553
0
LINE
8
BLACK
6
CONTINUOUS
10
1.87218
20
-1.51553
11
1.87102
21
-1.51718
0
LINE
8
BLACK
6
CONTINUOUS
10
1.87102
20
-1.51718
11
1.86907
21
-1.51771
0
LINE
8
BLACK
6
CONTINUOUS
10
1.86907
20
-1.51771
11
1.86724
21
-1.51685
0
LINE
8
BLACK
6
CONTINUOUS
10
1.86724
20
-1.51685
11
1.8657
21
-1.51532
0
LINE
8
BLACK
6
CONTINUOUS
10
1.8657
20
-1.51532
11
1.86301
21
-1.51397
0
LINE
8
BLACK
6
CONTINUOUS
10
1.86301
20
-1.51397
11
1.85503
21
-1.51397
0
LINE
8
BLACK
6
CONTINUOUS
10
1.85503
20
-1.51397
11
1.85233
21
-1.51532
0
LINE
8
BLACK
6
CONTINUOUS
10
1.85233
20
-1.51532
11
1.85113
21
-1.51652
0
LINE
8
BLACK
6
CONTINUOUS
10
1.85113
20
-1.51652
11
1.84978
21
-1.51921
0
LINE
8
BLACK
6
CONTINUOUS
10
1.84978
20
-1.51921
11
1.84978
21
-1.52179
0
LINE
8
BLACK
6
CONTINUOUS
10
1.84978
20
-1.52179
11
1.85129
21
-1.52629
0
LINE
8
BLACK
6
CONTINUOUS
10
1.85129
20
-1.52629
11
1.87329
21
-1.5483
0
LINE
8
BLACK
6
CONTINUOUS
10
1.87329
20
-1.5483
11
1.87366
21
-1.54883
0
LINE
8
BLACK
6
CONTINUOUS
10
1.87366
20
-1.54883
11
1.87376
21
-1.54891
0
LINE
8
BLACK
6
CONTINUOUS
10
1.87376
20
-1.54891
11
1.87377
21
-1.54899
0
LINE
8
BLACK
6
CONTINUOUS
10
1.87377
20
-1.54899
11
1.87388
21
-1.54914
0
LINE
8
BLACK
6
CONTINUOUS
10
1.87388
20
-1.54914
11
1.87396
21
-1.55002
0
LINE
8
BLACK
6
CONTINUOUS
10
1.87396
20
-1.55002
11
1.87411
21
-1.5509
0
LINE
8
BLACK
6
CONTINUOUS
10
1.87411
20
-1.5509
11
1.87404
21
-1.55102
0
LINE
8
BLACK
6
CONTINUOUS
10
1.87404
20
-1.55102
11
1.87406
21
-1.55115
0
LINE
8
BLACK
6
CONTINUOUS
10
1.87406
20
-1.55115
11
1.87355
21
-1.55188
0
LINE
8
BLACK
6
CONTINUOUS
10
1.87355
20
-1.55188
11
1.8731
21
-1.55265
0
LINE
8
BLACK
6
CONTINUOUS
10
1.8731
20
-1.55265
11
1.87297
21
-1.55269
0
LINE
8
BLACK
6
CONTINUOUS
10
1.87297
20
-1.55269
11
1.8729
21
-1.55281
0
LINE
8
BLACK
6
CONTINUOUS
10
1.8729
20
-1.55281
11
1.87204
21
-1.55304
0
LINE
8
BLACK
6
CONTINUOUS
10
1.87204
20
-1.55304
11
1.8712
21
-1.55334
0
LINE
8
BLACK
6
CONTINUOUS
10
1.8712
20
-1.55334
11
1.84683
21
-1.55334
0
LINE
8
BLACK
6
CONTINUOUS
10
1.84683
20
-1.55334
11
1.84582
21
-1.55316
0
LINE
8
BLACK
6
CONTINUOUS
10
1.84582
20
-1.55316
11
1.84427
21
-1.55186
0
LINE
8
BLACK
6
CONTINUOUS
10
1.84427
20
-1.55186
11
1.84392
21
-1.54987
0
LINE
8
BLACK
6
CONTINUOUS
10
1.84392
20
-1.54987
11
1.84493
21
-1.54812
0
LINE
8
BLACK
6
CONTINUOUS
10
1.84493
20
-1.54812
11
1.84683
21
-1.54743
0
LINE
8
BLACK
6
CONTINUOUS
10
1.84683
20
-1.54743
11
1.86407
21
-1.54743
0
LINE
8
BLACK
6
CONTINUOUS
10
1.86407
20
-1.54743
11
1.84662
21
-1.52998
0
LINE
8
BLACK
6
CONTINUOUS
10
1.84662
20
-1.52998
11
1.84603
21
-1.52914
0
LINE
8
BLACK
6
CONTINUOUS
10
1.84603
20
-1.52914
11
1.84601
21
-1.52896
0
LINE
8
BLACK
6
CONTINUOUS
10
1.84601
20
-1.52896
11
1.84591
21
-1.52882
0
LINE
8
BLACK
6
CONTINUOUS
10
1.84591
20
-1.52882
11
1.84403
21
-1.5232
0
LINE
8
BLACK
6
CONTINUOUS
10
1.84403
20
-1.5232
11
1.8439
21
-1.52233
0
LINE
8
BLACK
6
CONTINUOUS
10
1.8439
20
-1.52233
11
1.84388
21
-1.52227
0
LINE
8
BLACK
6
CONTINUOUS
10
1.84388
20
-1.52227
11
1.84388
21
-1.51852
0
LINE
8
BLACK
6
CONTINUOUS
10
1.84388
20
-1.51852
11
1.84406
21
-1.51751
0
LINE
8
BLACK
6
CONTINUOUS
10
1.84406
20
-1.51751
11
1.84417
21
-1.51737
0
LINE
8
BLACK
6
CONTINUOUS
10
1.84417
20
-1.51737
11
1.84419
21
-1.5172
0
LINE
8
BLACK
6
CONTINUOUS
10
1.84419
20
-1.5172
11
1.84607
21
-1.51345
0
LINE
8
BLACK
6
CONTINUOUS
10
1.84607
20
-1.51345
11
1.84659
21
-1.51274
0
LINE
8
BLACK
6
CONTINUOUS
10
1.84659
20
-1.51274
11
1.84662
21
-1.51268
0
LINE
8
BLACK
6
CONTINUOUS
10
1.84662
20
-1.51268
11
1.84849
21
-1.5108
0
LINE
8
BLACK
6
CONTINUOUS
10
1.84849
20
-1.5108
11
1.84922
21
-1.5103
0
LINE
8
BLACK
6
CONTINUOUS
10
1.84922
20
-1.5103
11
1.84926
21
-1.51025
0
LINE
8
BLACK
6
CONTINUOUS
10
1.84926
20
-1.51025
11
1.85301
21
-1.50838
0
LINE
8
BLACK
6
CONTINUOUS
10
1.85301
20
-1.50838
11
1.85399
21
-1.50808
0
LINE
8
BLACK
6
CONTINUOUS
10
1.85399
20
-1.50808
11
1.85416
21
-1.50812
0
LINE
8
BLACK
6
CONTINUOUS
10
1.85416
20
-1.50812
11
1.85433
21
-1.50806
0
LINE
8
BLACK
6
CONTINUOUS
10
1.85433
20
-1.50806
11
1.8637
21
-1.50806
0
LINE
8
BLACK
6
CONTINUOUS
10
1.8637
20
-1.50806
11
1.86471
21
-1.50824
0
LINE
8
BLACK
6
CONTINUOUS
10
1.88846
20
-1.50912
11
1.88915
21
-1.51102
0
LINE
8
BLACK
6
CONTINUOUS
10
1.88915
20
-1.51102
11
1.88915
21
-1.53866
0
LINE
8
BLACK
6
CONTINUOUS
10
1.88915
20
-1.53866
11
1.89066
21
-1.54317
0
LINE
8
BLACK
6
CONTINUOUS
10
1.89066
20
-1.54317
11
1.89342
21
-1.54593
0
LINE
8
BLACK
6
CONTINUOUS
10
1.89342
20
-1.54593
11
1.89793
21
-1.54743
0
LINE
8
BLACK
6
CONTINUOUS
10
1.89793
20
-1.54743
11
1.9012
21
-1.54743
0
LINE
8
BLACK
6
CONTINUOUS
10
1.9012
20
-1.54743
11
1.90221
21
-1.54761
0
LINE
8
BLACK
6
CONTINUOUS
10
1.90221
20
-1.54761
11
1.90376
21
-1.54891
0
LINE
8
BLACK
6
CONTINUOUS
10
1.90376
20
-1.54891
11
1.90411
21
-1.5509
0
LINE
8
BLACK
6
CONTINUOUS
10
1.90411
20
-1.5509
11
1.9031
21
-1.55265
0
LINE
8
BLACK
6
CONTINUOUS
10
1.9031
20
-1.55265
11
1.9012
21
-1.55334
0
LINE
8
BLACK
6
CONTINUOUS
10
1.9012
20
-1.55334
11
1.89745
21
-1.55334
0
LINE
8
BLACK
6
CONTINUOUS
10
1.89745
20
-1.55334
11
1.89658
21
-1.55319
0
LINE
8
BLACK
6
CONTINUOUS
10
1.89658
20
-1.55319
11
1.89652
21
-1.55319
0
LINE
8
BLACK
6
CONTINUOUS
10
1.89652
20
-1.55319
11
1.89089
21
-1.55131
0
LINE
8
BLACK
6
CONTINUOUS
10
1.89089
20
-1.55131
11
1.88999
21
-1.55082
0
LINE
8
BLACK
6
CONTINUOUS
10
1.88999
20
-1.55082
11
1.8899
21
-1.55067
0
LINE
8
BLACK
6
CONTINUOUS
10
1.8899
20
-1.55067
11
1.88974
21
-1.5506
0
LINE
8
BLACK
6
CONTINUOUS
10
1.88974
20
-1.5506
11
1.88599
21
-1.54685
0
LINE
8
BLACK
6
CONTINUOUS
10
1.88599
20
-1.54685
11
1.8854
21
-1.54601
0
LINE
8
BLACK
6
CONTINUOUS
10
1.8854
20
-1.54601
11
1.88538
21
-1.54583
0
LINE
8
BLACK
6
CONTINUOUS
10
1.88538
20
-1.54583
11
1.88528
21
-1.5457
0
LINE
8
BLACK
6
CONTINUOUS
10
1.88528
20
-1.5457
11
1.8834
21
-1.54007
0
LINE
8
BLACK
6
CONTINUOUS
10
1.8834
20
-1.54007
11
1.88327
21
-1.5392
0
LINE
8
BLACK
6
CONTINUOUS
10
1.88327
20
-1.5392
11
1.88325
21
-1.53914
0
LINE
8
BLACK
6
CONTINUOUS
10
1.88325
20
-1.53914
11
1.88325
21
-1.51102
0
LINE
8
BLACK
6
CONTINUOUS
10
1.88325
20
-1.51102
11
1.88343
21
-1.51001
0
LINE
8
BLACK
6
CONTINUOUS
10
1.88343
20
-1.51001
11
1.88473
21
-1.50846
0
LINE
8
BLACK
6
CONTINUOUS
10
1.88473
20
-1.50846
11
1.88671
21
-1.50811
0
LINE
8
BLACK
6
CONTINUOUS
10
1.88671
20
-1.50811
11
1.88846
21
-1.50912
0
LINE
8
BLACK
6
CONTINUOUS
10
1.82401
20
-1.50663
11
1.82526
21
-1.50821
0
LINE
8
BLACK
6
CONTINUOUS
10
1.82526
20
-1.50821
11
1.83463
21
-1.53633
0
LINE
8
BLACK
6
CONTINUOUS
10
1.83463
20
-1.53633
11
1.83479
21
-1.53734
0
LINE
8
BLACK
6
CONTINUOUS
10
1.83479
20
-1.53734
11
1.8347
21
-1.53755
0
LINE
8
BLACK
6
CONTINUOUS
10
1.8347
20
-1.53755
11
1.83474
21
-1.53778
0
LINE
8
BLACK
6
CONTINUOUS
10
1.83474
20
-1.53778
11
1.83434
21
-1.53847
0
LINE
8
BLACK
6
CONTINUOUS
10
1.83434
20
-1.53847
11
1.83404
21
-1.53922
0
LINE
8
BLACK
6
CONTINUOUS
10
1.83404
20
-1.53922
11
1.83384
21
-1.53933
0
LINE
8
BLACK
6
CONTINUOUS
10
1.83384
20
-1.53933
11
1.83373
21
-1.53953
0
LINE
8
BLACK
6
CONTINUOUS
10
1.83373
20
-1.53953
11
1.83297
21
-1.5398
0
LINE
8
BLACK
6
CONTINUOUS
10
1.83297
20
-1.5398
11
1.83227
21
-1.54018
0
LINE
8
BLACK
6
CONTINUOUS
10
1.83227
20
-1.54018
11
1.83205
21
-1.54014
0
LINE
8
BLACK
6
CONTINUOUS
10
1.83205
20
-1.54014
11
1.83183
21
-1.54022
0
LINE
8
BLACK
6
CONTINUOUS
10
1.83183
20
-1.54022
11
1.81604
21
-1.54022
0
LINE
8
BLACK
6
CONTINUOUS
10
1.81604
20
-1.54022
11
1.81604
21
-1.55039
0
LINE
8
BLACK
6
CONTINUOUS
10
1.81604
20
-1.55039
11
1.81586
21
-1.5514
0
LINE
8
BLACK
6
CONTINUOUS
10
1.81586
20
-1.5514
11
1.81456
21
-1.55294
0
LINE
8
BLACK
6
CONTINUOUS
10
1.81456
20
-1.55294
11
1.81257
21
-1.55329
0
LINE
8
BLACK
6
CONTINUOUS
10
1.81257
20
-1.55329
11
1.81082
21
-1.55228
0
LINE
8
BLACK
6
CONTINUOUS
10
1.81082
20
-1.55228
11
1.81013
21
-1.55039
0
LINE
8
BLACK
6
CONTINUOUS
10
1.81013
20
-1.55039
11
1.81013
21
-1.54022
0
LINE
8
BLACK
6
CONTINUOUS
10
1.81013
20
-1.54022
11
1.80746
21
-1.54022
0
LINE
8
BLACK
6
CONTINUOUS
10
1.80746
20
-1.54022
11
1.80645
21
-1.54004
0
LINE
8
BLACK
6
CONTINUOUS
10
1.80645
20
-1.54004
11
1.8049
21
-1.53874
0
LINE
8
BLACK
6
CONTINUOUS
10
1.8049
20
-1.53874
11
1.80455
21
-1.53675
0
LINE
8
BLACK
6
CONTINUOUS
10
1.80455
20
-1.53675
11
1.80556
21
-1.535
0
LINE
8
BLACK
6
CONTINUOUS
10
1.80556
20
-1.535
11
1.80746
21
-1.53431
0
LINE
8
BLACK
6
CONTINUOUS
10
1.80746
20
-1.53431
11
1.81013
21
-1.53431
0
LINE
8
BLACK
6
CONTINUOUS
10
1.81013
20
-1.53431
11
1.81013
21
-1.52414
0
LINE
8
BLACK
6
CONTINUOUS
10
1.81013
20
-1.52414
11
1.81031
21
-1.52313
0
LINE
8
BLACK
6
CONTINUOUS
10
1.81031
20
-1.52313
11
1.81161
21
-1.52158
0
LINE
8
BLACK
6
CONTINUOUS
10
1.81161
20
-1.52158
11
1.8136
21
-1.52123
0
LINE
8
BLACK
6
CONTINUOUS
10
1.8136
20
-1.52123
11
1.81535
21
-1.52224
0
LINE
8
BLACK
6
CONTINUOUS
10
1.81535
20
-1.52224
11
1.81604
21
-1.52414
0
LINE
8
BLACK
6
CONTINUOUS
10
1.81604
20
-1.52414
11
1.81604
21
-1.53431
0
LINE
8
BLACK
6
CONTINUOUS
10
1.81604
20
-1.53431
11
1.82774
21
-1.53431
0
LINE
8
BLACK
6
CONTINUOUS
10
1.82774
20
-1.53431
11
1.81966
21
-1.51008
0
LINE
8
BLACK
6
CONTINUOUS
10
1.81966
20
-1.51008
11
1.81951
21
-1.50906
0
LINE
8
BLACK
6
CONTINUOUS
10
1.81951
20
-1.50906
11
1.82025
21
-1.50718
0
LINE
8
BLACK
6
CONTINUOUS
10
1.82025
20
-1.50718
11
1.82203
21
-1.50622
0
LINE
8
BLACK
6
CONTINUOUS
10
1.82203
20
-1.50622
11
1.82401
21
-1.50663
0
LINE
8
BLACK
6
CONTINUOUS
10
2.04921
20
-1.33169
11
2.0506
21
-1.33227
0
LINE
8
BLACK
6
CONTINUOUS
10
2.0506
20
-1.33227
11
2.05118
21
-1.33366
0
LINE
8
BLACK
6
CONTINUOUS
10
2.05118
20
-1.33366
11
2.05118
21
-1.56004
0
LINE
8
BLACK
6
CONTINUOUS
10
2.05118
20
-1.56004
11
2.0506
21
-1.56143
0
LINE
8
BLACK
6
CONTINUOUS
10
2.0506
20
-1.56143
11
2.04921
21
-1.56201
0
LINE
8
BLACK
6
CONTINUOUS
10
2.04921
20
-1.56201
11
1.65945
21
-1.56201
0
LINE
8
BLACK
6
CONTINUOUS
10
1.65945
20
-1.56201
11
1.65806
21
-1.56143
0
LINE
8
BLACK
6
CONTINUOUS
10
1.65806
20
-1.56143
11
1.65748
21
-1.56004
0
LINE
8
BLACK
6
CONTINUOUS
10
1.65748
20
-1.56004
11
1.65748
21
-1.33366
0
LINE
8
BLACK
6
CONTINUOUS
10
1.65748
20
-1.33366
11
1.65806
21
-1.33227
0
LINE
8
BLACK
6
CONTINUOUS
10
1.65806
20
-1.33227
11
1.65945
21
-1.33169
0
LINE
8
BLACK
6
CONTINUOUS
10
1.65945
20
-1.33169
11
2.04921
21
-1.33169
0
LINE
8
BLACK
6
CONTINUOUS
10
1.97845
20
-1.33563
11
1.95443
21
-1.37407
0
LINE
8
BLACK
6
CONTINUOUS
10
1.95443
20
-1.37407
11
1.95406
21
-1.37434
0
LINE
8
BLACK
6
CONTINUOUS
10
1.95406
20
-1.37434
11
1.9538
21
-1.3747
0
LINE
8
BLACK
6
CONTINUOUS
10
1.9538
20
-1.3747
11
1.95347
21
-1.37476
0
LINE
8
BLACK
6
CONTINUOUS
10
1.95347
20
-1.37476
11
1.9532
21
-1.37495
0
LINE
8
BLACK
6
CONTINUOUS
10
1.9532
20
-1.37495
11
1.95276
21
-1.37488
0
LINE
8
BLACK
6
CONTINUOUS
10
1.95276
20
-1.37488
11
1.95231
21
-1.37495
0
LINE
8
BLACK
6
CONTINUOUS
10
1.95231
20
-1.37495
11
1.95204
21
-1.37476
0
LINE
8
BLACK
6
CONTINUOUS
10
1.95204
20
-1.37476
11
1.95171
21
-1.3747
0
LINE
8
BLACK
6
CONTINUOUS
10
1.95171
20
-1.3747
11
1.95145
21
-1.37434
0
LINE
8
BLACK
6
CONTINUOUS
10
1.95145
20
-1.37434
11
1.95109
21
-1.37407
0
LINE
8
BLACK
6
CONTINUOUS
10
1.95109
20
-1.37407
11
1.92706
21
-1.33563
0
LINE
8
BLACK
6
CONTINUOUS
10
1.92706
20
-1.33563
11
1.66142
21
-1.33563
0
LINE
8
BLACK
6
CONTINUOUS
10
1.66142
20
-1.33563
11
1.66142
21
-1.55807
0
LINE
8
BLACK
6
CONTINUOUS
10
1.66142
20
-1.55807
11
2.04724
21
-1.55807
0
LINE
8
BLACK
6
CONTINUOUS
10
2.04724
20
-1.55807
11
2.04724
21
-1.33563
0
LINE
8
BLACK
6
CONTINUOUS
10
2.04724
20
-1.33563
11
1.97845
21
-1.33563
0
LINE
8
BLACK
6
CONTINUOUS
10
1.9317
20
-1.33563
11
1.95276
21
-1.36932
0
LINE
8
BLACK
6
CONTINUOUS
10
1.95276
20
-1.36932
11
1.97381
21
-1.33563
0
LINE
8
BLACK
6
CONTINUOUS
10
1.97381
20
-1.33563
11
1.9317
21
-1.33563
0
LINE
8
BLACK
6
CONTINUOUS
10
1.75035
20
-1.27793
11
1.7519
21
-1.27923
0
LINE
8
BLACK
6
CONTINUOUS
10
1.7519
20
-1.27923
11
1.75225
21
-1.28121
0
LINE
8
BLACK
6
CONTINUOUS
10
1.75225
20
-1.28121
11
1.75124
21
-1.28296
0
LINE
8
BLACK
6
CONTINUOUS
10
1.75124
20
-1.28296
11
1.74934
21
-1.28365
0
LINE
8
BLACK
6
CONTINUOUS
10
1.74934
20
-1.28365
11
1.73148
21
-1.28365
0
LINE
8
BLACK
6
CONTINUOUS
10
1.73148
20
-1.28365
11
1.74032
21
-1.29376
0
LINE
8
BLACK
6
CONTINUOUS
10
1.74032
20
-1.29376
11
1.74055
21
-1.29414
0
LINE
8
BLACK
6
CONTINUOUS
10
1.74055
20
-1.29414
11
1.74065
21
-1.29422
0
LINE
8
BLACK
6
CONTINUOUS
10
1.74065
20
-1.29422
11
1.74067
21
-1.29434
0
LINE
8
BLACK
6
CONTINUOUS
10
1.74067
20
-1.29434
11
1.74085
21
-1.29463
0
LINE
8
BLACK
6
CONTINUOUS
10
1.74085
20
-1.29463
11
1.74086
21
-1.29543
0
LINE
8
BLACK
6
CONTINUOUS
10
1.74086
20
-1.29543
11
1.741
21
-1.29621
0
LINE
8
BLACK
6
CONTINUOUS
10
1.741
20
-1.29621
11
1.74089
21
-1.29642
0
LINE
8
BLACK
6
CONTINUOUS
10
1.74089
20
-1.29642
11
1.74089
21
-1.29665
0
LINE
8
BLACK
6
CONTINUOUS
10
1.74089
20
-1.29665
11
1.74039
21
-1.29727
0
LINE
8
BLACK
6
CONTINUOUS
10
1.74039
20
-1.29727
11
1.73999
21
-1.29796
0
LINE
8
BLACK
6
CONTINUOUS
10
1.73999
20
-1.29796
11
1.73977
21
-1.29804
0
LINE
8
BLACK
6
CONTINUOUS
10
1.73977
20
-1.29804
11
1.73962
21
-1.29823
0
LINE
8
BLACK
6
CONTINUOUS
10
1.73962
20
-1.29823
11
1.73884
21
-1.29838
0
LINE
8
BLACK
6
CONTINUOUS
10
1.73884
20
-1.29838
11
1.7381
21
-1.29865
0
LINE
8
BLACK
6
CONTINUOUS
10
1.7381
20
-1.29865
11
1.73317
21
-1.29865
0
LINE
8
BLACK
6
CONTINUOUS
10
1.73317
20
-1.29865
11
1.73047
21
-1.3
0
LINE
8
BLACK
6
CONTINUOUS
10
1.73047
20
-1.3
11
1.72927
21
-1.3012
0
LINE
8
BLACK
6
CONTINUOUS
10
1.72927
20
-1.3012
11
1.72792
21
-1.3039
0
LINE
8
BLACK
6
CONTINUOUS
10
1.72792
20
-1.3039
11
1.72792
21
-1.31188
0
LINE
8
BLACK
6
CONTINUOUS
10
1.72792
20
-1.31188
11
1.72927
21
-1.31457
0
LINE
8
BLACK
6
CONTINUOUS
10
1.72927
20
-1.31457
11
1.73047
21
-1.31577
0
LINE
8
BLACK
6
CONTINUOUS
10
1.73047
20
-1.31577
11
1.73317
21
-1.31712
0
LINE
8
BLACK
6
CONTINUOUS
10
1.73317
20
-1.31712
11
1.74302
21
-1.31712
0
LINE
8
BLACK
6
CONTINUOUS
10
1.74302
20
-1.31712
11
1.74572
21
-1.31577
0
LINE
8
BLACK
6
CONTINUOUS
10
1.74572
20
-1.31577
11
1.74726
21
-1.31423
0
LINE
8
BLACK
6
CONTINUOUS
10
1.74726
20
-1.31423
11
1.7481
21
-1.31365
0
LINE
8
BLACK
6
CONTINUOUS
10
1.7481
20
-1.31365
11
1.75011
21
-1.31347
0
LINE
8
BLACK
6
CONTINUOUS
10
1.75011
20
-1.31347
11
1.75176
21
-1.31463
0
LINE
8
BLACK
6
CONTINUOUS
10
1.75176
20
-1.31463
11
1.75229
21
-1.31658
0
LINE
8
BLACK
6
CONTINUOUS
10
1.75229
20
-1.31658
11
1.75143
21
-1.31841
0
LINE
8
BLACK
6
CONTINUOUS
10
1.75143
20
-1.31841
11
1.74956
21
-1.32028
0
LINE
8
BLACK
6
CONTINUOUS
10
1.74956
20
-1.32028
11
1.74883
21
-1.32079
0
LINE
8
BLACK
6
CONTINUOUS
10
1.74883
20
-1.32079
11
1.74879
21
-1.32084
0
LINE
8
BLACK
6
CONTINUOUS
10
1.74879
20
-1.32084
11
1.74504
21
-1.32271
0
LINE
8
BLACK
6
CONTINUOUS
10
1.74504
20
-1.32271
11
1.74406
21
-1.323
0
LINE
8
BLACK
6
CONTINUOUS
10
1.74406
20
-1.323
11
1.74389
21
-1.32296
0
LINE
8
BLACK
6
CONTINUOUS
10
1.74389
20
-1.32296
11
1.74372
21
-1.32302
0
LINE
8
BLACK
6
CONTINUOUS
10
1.74372
20
-1.32302
11
1.73247
21
-1.32302
0
LINE
8
BLACK
6
CONTINUOUS
10
1.73247
20
-1.32302
11
1.73146
21
-1.32285
0
LINE
8
BLACK
6
CONTINUOUS
10
1.73146
20
-1.32285
11
1.73133
21
-1.32273
0
LINE
8
BLACK
6
CONTINUOUS
10
1.73133
20
-1.32273
11
1.73115
21
-1.32271
0
LINE
8
BLACK
6
CONTINUOUS
10
1.73115
20
-1.32271
11
1.7274
21
-1.32084
0
LINE
8
BLACK
6
CONTINUOUS
10
1.7274
20
-1.32084
11
1.72669
21
-1.32031
0
LINE
8
BLACK
6
CONTINUOUS
10
1.72669
20
-1.32031
11
1.72663
21
-1.32028
0
LINE
8
BLACK
6
CONTINUOUS
10
1.72663
20
-1.32028
11
1.72476
21
-1.31841
0
LINE
8
BLACK
6
CONTINUOUS
10
1.72476
20
-1.31841
11
1.72425
21
-1.31769
0
LINE
8
BLACK
6
CONTINUOUS
10
1.72425
20
-1.31769
11
1.72421
21
-1.31764
0
LINE
8
BLACK
6
CONTINUOUS
10
1.72421
20
-1.31764
11
1.72233
21
-1.31389
0
LINE
8
BLACK
6
CONTINUOUS
10
1.72233
20
-1.31389
11
1.72204
21
-1.31291
0
LINE
8
BLACK
6
CONTINUOUS
10
1.72204
20
-1.31291
11
1.72208
21
-1.31274
0
LINE
8
BLACK
6
CONTINUOUS
10
1.72208
20
-1.31274
11
1.72202
21
-1.31257
0
LINE
8
BLACK
6
CONTINUOUS
10
1.72202
20
-1.31257
11
1.72202
21
-1.3032
0
LINE
8
BLACK
6
CONTINUOUS
10
1.72202
20
-1.3032
11
1.7222
21
-1.30219
0
LINE
8
BLACK
6
CONTINUOUS
10
1.7222
20
-1.30219
11
1.72231
21
-1.30205
0
LINE
8
BLACK
6
CONTINUOUS
10
1.72231
20
-1.30205
11
1.72233
21
-1.30188
0
LINE
8
BLACK
6
CONTINUOUS
10
1.72233
20
-1.30188
11
1.72421
21
-1.29813
0
LINE
8
BLACK
6
CONTINUOUS
10
1.72421
20
-1.29813
11
1.72473
21
-1.29742
0
LINE
8
BLACK
6
CONTINUOUS
10
1.72473
20
-1.29742
11
1.72476
21
-1.29736
0
LINE
8
BLACK
6
CONTINUOUS
10
1.72476
20
-1.29736
11
1.72663
21
-1.29549
0
LINE
8
BLACK
6
CONTINUOUS
10
1.72663
20
-1.29549
11
1.72736
21
-1.29498
0
LINE
8
BLACK
6
CONTINUOUS
10
1.72736
20
-1.29498
11
1.7274
21
-1.29493
0
LINE
8
BLACK
6
CONTINUOUS
10
1.7274
20
-1.29493
11
1.73115
21
-1.29306
0
LINE
8
BLACK
6
CONTINUOUS
10
1.73115
20
-1.29306
11
1.73171
21
-1.29289
0
LINE
8
BLACK
6
CONTINUOUS
10
1.73171
20
-1.29289
11
1.72275
21
-1.28265
0
LINE
8
BLACK
6
CONTINUOUS
10
1.72275
20
-1.28265
11
1.72252
21
-1.28227
0
LINE
8
BLACK
6
CONTINUOUS
10
1.72252
20
-1.28227
11
1.72241
21
-1.28218
0
LINE
8
BLACK
6
CONTINUOUS
10
1.72241
20
-1.28218
11
1.72239
21
-1.28206
0
LINE
8
BLACK
6
CONTINUOUS
10
1.72239
20
-1.28206
11
1.72222
21
-1.28177
0
LINE
8
BLACK
6
CONTINUOUS
10
1.72222
20
-1.28177
11
1.7222
21
-1.28097
0
LINE
8
BLACK
6
CONTINUOUS
10
1.7222
20
-1.28097
11
1.72206
21
-1.28019
0
LINE
8
BLACK
6
CONTINUOUS
10
1.72206
20
-1.28019
11
1.72218
21
-1.27998
0
LINE
8
BLACK
6
CONTINUOUS
10
1.72218
20
-1.27998
11
1.72218
21
-1.27975
0
LINE
8
BLACK
6
CONTINUOUS
10
1.72218
20
-1.27975
11
1.72268
21
-1.27913
0
LINE
8
BLACK
6
CONTINUOUS
10
1.72268
20
-1.27913
11
1.72307
21
-1.27844
0
LINE
8
BLACK
6
CONTINUOUS
10
1.72307
20
-1.27844
11
1.7233
21
-1.27836
0
LINE
8
BLACK
6
CONTINUOUS
10
1.7233
20
-1.27836
11
1.72344
21
-1.27818
0
LINE
8
BLACK
6
CONTINUOUS
10
1.72344
20
-1.27818
11
1.72422
21
-1.27802
0
LINE
8
BLACK
6
CONTINUOUS
10
1.72422
20
-1.27802
11
1.72497
21
-1.27775
0
LINE
8
BLACK
6
CONTINUOUS
10
1.72497
20
-1.27775
11
1.74934
21
-1.27775
0
LINE
8
BLACK
6
CONTINUOUS
10
1.74934
20
-1.27775
11
1.75035
21
-1.27793
0
LINE
8
BLACK
6
CONTINUOUS
10
1.9472
20
-1.27793
11
1.94734
21
-1.27804
0
LINE
8
BLACK
6
CONTINUOUS
10
1.94734
20
-1.27804
11
1.94751
21
-1.27806
0
LINE
8
BLACK
6
CONTINUOUS
10
1.94751
20
-1.27806
11
1.95126
21
-1.27994
0
LINE
8
BLACK
6
CONTINUOUS
10
1.95126
20
-1.27994
11
1.95197
21
-1.28046
0
LINE
8
BLACK
6
CONTINUOUS
10
1.95197
20
-1.28046
11
1.95203
21
-1.28049
0
LINE
8
BLACK
6
CONTINUOUS
10
1.95203
20
-1.28049
11
1.95391
21
-1.28236
0
LINE
8
BLACK
6
CONTINUOUS
10
1.95391
20
-1.28236
11
1.95441
21
-1.28309
0
LINE
8
BLACK
6
CONTINUOUS
10
1.95441
20
-1.28309
11
1.95446
21
-1.28313
0
LINE
8
BLACK
6
CONTINUOUS
10
1.95446
20
-1.28313
11
1.95633
21
-1.28688
0
LINE
8
BLACK
6
CONTINUOUS
10
1.95633
20
-1.28688
11
1.95663
21
-1.28786
0
LINE
8
BLACK
6
CONTINUOUS
10
1.95663
20
-1.28786
11
1.95659
21
-1.28803
0
LINE
8
BLACK
6
CONTINUOUS
10
1.95659
20
-1.28803
11
1.95665
21
-1.2882
0
LINE
8
BLACK
6
CONTINUOUS
10
1.95665
20
-1.2882
11
1.95665
21
-1.29195
0
LINE
8
BLACK
6
CONTINUOUS
10
1.95665
20
-1.29195
11
1.95647
21
-1.29296
0
LINE
8
BLACK
6
CONTINUOUS
10
1.95647
20
-1.29296
11
1.95635
21
-1.2931
0
LINE
8
BLACK
6
CONTINUOUS
10
1.95635
20
-1.2931
11
1.95633
21
-1.29327
0
LINE
8
BLACK
6
CONTINUOUS
10
1.95633
20
-1.29327
11
1.95446
21
-1.29702
0
LINE
8
BLACK
6
CONTINUOUS
10
1.95446
20
-1.29702
11
1.95393
21
-1.29773
0
LINE
8
BLACK
6
CONTINUOUS
10
1.95393
20
-1.29773
11
1.95391
21
-1.29779
0
LINE
8
BLACK
6
CONTINUOUS
10
1.95391
20
-1.29779
11
1.95203
21
-1.29966
0
LINE
8
BLACK
6
CONTINUOUS
10
1.95203
20
-1.29966
11
1.95131
21
-1.30017
0
LINE
8
BLACK
6
CONTINUOUS
10
1.95131
20
-1.30017
11
1.95126
21
-1.30022
0
LINE
8
BLACK
6
CONTINUOUS
10
1.95126
20
-1.30022
11
1.94751
21
-1.30209
0
LINE
8
BLACK
6
CONTINUOUS
10
1.94751
20
-1.30209
11
1.94703
21
-1.30224
0
LINE
8
BLACK
6
CONTINUOUS
10
1.94703
20
-1.30224
11
1.94691
21
-1.30231
0
LINE
8
BLACK
6
CONTINUOUS
10
1.94691
20
-1.30231
11
1.93973
21
-1.30411
0
LINE
8
BLACK
6
CONTINUOUS
10
1.93973
20
-1.30411
11
1.93669
21
-1.30563
0
LINE
8
BLACK
6
CONTINUOUS
10
1.93669
20
-1.30563
11
1.9355
21
-1.30682
0
LINE
8
BLACK
6
CONTINUOUS
10
1.9355
20
-1.30682
11
1.93415
21
-1.30952
0
LINE
8
BLACK
6
CONTINUOUS
10
1.93415
20
-1.30952
11
1.93415
21
-1.31188
0
LINE
8
BLACK
6
CONTINUOUS
10
1.93415
20
-1.31188
11
1.9355
21
-1.31457
0
LINE
8
BLACK
6
CONTINUOUS
10
1.9355
20
-1.31457
11
1.93669
21
-1.31577
0
LINE
8
BLACK
6
CONTINUOUS
10
1.93669
20
-1.31577
11
1.93939
21
-1.31712
0
LINE
8
BLACK
6
CONTINUOUS
10
1.93939
20
-1.31712
11
1.94759
21
-1.31712
0
LINE
8
BLACK
6
CONTINUOUS
10
1.94759
20
-1.31712
11
1.95276
21
-1.3154
0
LINE
8
BLACK
6
CONTINUOUS
10
1.95276
20
-1.3154
11
1.95377
21
-1.31525
0
LINE
8
BLACK
6
CONTINUOUS
10
1.95377
20
-1.31525
11
1.95565
21
-1.31599
0
LINE
8
BLACK
6
CONTINUOUS
10
1.95565
20
-1.31599
11
1.95661
21
-1.31776
0
LINE
8
BLACK
6
CONTINUOUS
10
1.95661
20
-1.31776
11
1.95621
21
-1.31974
0
LINE
8
BLACK
6
CONTINUOUS
10
1.95621
20
-1.31974
11
1.95463
21
-1.321
0
LINE
8
BLACK
6
CONTINUOUS
10
1.95463
20
-1.321
11
1.949
21
-1.32287
0
LINE
8
BLACK
6
CONTINUOUS
10
1.949
20
-1.32287
11
1.94813
21
-1.323
0
LINE
8
BLACK
6
CONTINUOUS
10
1.94813
20
-1.323
11
1.94807
21
-1.32302
0
LINE
8
BLACK
6
CONTINUOUS
10
1.94807
20
-1.32302
11
1.9387
21
-1.32302
0
LINE
8
BLACK
6
CONTINUOUS
10
1.9387
20
-1.32302
11
1.93769
21
-1.32285
0
LINE
8
BLACK
6
CONTINUOUS
10
1.93769
20
-1.32285
11
1.93755
21
-1.32273
0
LINE
8
BLACK
6
CONTINUOUS
10
1.93755
20
-1.32273
11
1.93737
21
-1.32271
0
LINE
8
BLACK
6
CONTINUOUS
10
1.93737
20
-1.32271
11
1.93363
21
-1.32084
0
LINE
8
BLACK
6
CONTINUOUS
10
1.93363
20
-1.32084
11
1.93292
21
-1.32031
0
LINE
8
BLACK
6
CONTINUOUS
10
1.93292
20
-1.32031
11
1.93286
21
-1.32028
0
LINE
8
BLACK
6
CONTINUOUS
10
1.93286
20
-1.32028
11
1.93098
21
-1.31841
0
LINE
8
BLACK
6
CONTINUOUS
10
1.93098
20
-1.31841
11
1.93048
21
-1.31769
0
LINE
8
BLACK
6
CONTINUOUS
10
1.93048
20
-1.31769
11
1.93043
21
-1.31764
0
LINE
8
BLACK
6
CONTINUOUS
10
1.93043
20
-1.31764
11
1.92856
21
-1.31389
0
LINE
8
BLACK
6
CONTINUOUS
10
1.92856
20
-1.31389
11
1.92826
21
-1.31291
0
LINE
8
BLACK
6
CONTINUOUS
10
1.92826
20
-1.31291
11
1.9283
21
-1.31274
0
LINE
8
BLACK
6
CONTINUOUS
10
1.9283
20
-1.31274
11
1.92824
21
-1.31257
0
LINE
8
BLACK
6
CONTINUOUS
10
1.92824
20
-1.31257
11
1.92824
21
-1.30882
0
LINE
8
BLACK
6
CONTINUOUS
10
1.92824
20
-1.30882
11
1.92842
21
-1.30781
0
LINE
8
BLACK
6
CONTINUOUS
10
1.92842
20
-1.30781
11
1.92853
21
-1.30768
0
LINE
8
BLACK
6
CONTINUOUS
10
1.92853
20
-1.30768
11
1.92856
21
-1.3075
0
LINE
8
BLACK
6
CONTINUOUS
10
1.92856
20
-1.3075
11
1.93043
21
-1.30375
0
LINE
8
BLACK
6
CONTINUOUS
10
1.93043
20
-1.30375
11
1.93096
21
-1.30304
0
LINE
8
BLACK
6
CONTINUOUS
10
1.93096
20
-1.30304
11
1.93098
21
-1.30299
0
LINE
8
BLACK
6
CONTINUOUS
10
1.93098
20
-1.30299
11
1.93286
21
-1.30111
0
LINE
8
BLACK
6
CONTINUOUS
10
1.93286
20
-1.30111
11
1.93358
21
-1.3006
0
LINE
8
BLACK
6
CONTINUOUS
10
1.93358
20
-1.3006
11
1.93363
21
-1.30056
0
LINE
8
BLACK
6
CONTINUOUS
10
1.93363
20
-1.30056
11
1.93737
21
-1.29868
0
LINE
8
BLACK
6
CONTINUOUS
10
1.93737
20
-1.29868
11
1.93786
21
-1.29854
0
LINE
8
BLACK
6
CONTINUOUS
10
1.93786
20
-1.29854
11
1.93798
21
-1.29846
0
LINE
8
BLACK
6
CONTINUOUS
10
1.93798
20
-1.29846
11
1.94516
21
-1.29666
0
LINE
8
BLACK
6
CONTINUOUS
10
1.94516
20
-1.29666
11
1.94819
21
-1.29515
0
LINE
8
BLACK
6
CONTINUOUS
10
1.94819
20
-1.29515
11
1.94939
21
-1.29395
0
LINE
8
BLACK
6
CONTINUOUS
10
1.94939
20
-1.29395
11
1.95074
21
-1.29125
0
LINE
8
BLACK
6
CONTINUOUS
10
1.95074
20
-1.29125
11
1.95074
21
-1.2889
0
LINE
8
BLACK
6
CONTINUOUS
10
1.95074
20
-1.2889
11
1.94939
21
-1.2862
0
LINE
8
BLACK
6
CONTINUOUS
10
1.94939
20
-1.2862
11
1.94819
21
-1.285
0
LINE
8
BLACK
6
CONTINUOUS
10
1.94819
20
-1.285
11
1.9455
21
-1.28365
0
LINE
8
BLACK
6
CONTINUOUS
10
1.9455
20
-1.28365
11
1.9373
21
-1.28365
0
LINE
8
BLACK
6
CONTINUOUS
10
1.9373
20
-1.28365
11
1.93213
21
-1.28538
0
LINE
8
BLACK
6
CONTINUOUS
10
1.93213
20
-1.28538
11
1.93112
21
-1.28553
0
LINE
8
BLACK
6
CONTINUOUS
10
1.93112
20
-1.28553
11
1.92924
21
-1.28479
0
LINE
8
BLACK
6
CONTINUOUS
10
1.92924
20
-1.28479
11
1.92828
21
-1.28301
0
LINE
8
BLACK
6
CONTINUOUS
10
1.92828
20
-1.28301
11
1.92868
21
-1.28103
0
LINE
8
BLACK
6
CONTINUOUS
10
1.92868
20
-1.28103
11
1.93026
21
-1.27978
0
LINE
8
BLACK
6
CONTINUOUS
10
1.93026
20
-1.27978
11
1.93589
21
-1.2779
0
LINE
8
BLACK
6
CONTINUOUS
10
1.93589
20
-1.2779
11
1.93676
21
-1.27777
0
LINE
8
BLACK
6
CONTINUOUS
10
1.93676
20
-1.27777
11
1.93682
21
-1.27775
0
LINE
8
BLACK
6
CONTINUOUS
10
1.93682
20
-1.27775
11
1.94619
21
-1.27775
0
LINE
8
BLACK
6
CONTINUOUS
10
1.94619
20
-1.27775
11
1.9472
21
-1.27793
0
LINE
8
BLACK
6
CONTINUOUS
10
1.97283
20
-1.2788
11
1.97352
21
-1.2807
0
LINE
8
BLACK
6
CONTINUOUS
10
1.97352
20
-1.2807
11
1.97352
21
-1.30834
0
LINE
8
BLACK
6
CONTINUOUS
10
1.97352
20
-1.30834
11
1.97502
21
-1.31285
0
LINE
8
BLACK
6
CONTINUOUS
10
1.97502
20
-1.31285
11
1.97779
21
-1.31562
0
LINE
8
BLACK
6
CONTINUOUS
10
1.97779
20
-1.31562
11
1.98229
21
-1.31712
0
LINE
8
BLACK
6
CONTINUOUS
10
1.98229
20
-1.31712
11
1.98556
21
-1.31712
0
LINE
8
BLACK
6
CONTINUOUS
10
1.98556
20
-1.31712
11
1.98657
21
-1.3173
0
LINE
8
BLACK
6
CONTINUOUS
10
1.98657
20
-1.3173
11
1.98812
21
-1.3186
0
LINE
8
BLACK
6
CONTINUOUS
10
1.98812
20
-1.3186
11
1.98847
21
-1.32058
0
LINE
8
BLACK
6
CONTINUOUS
10
1.98847
20
-1.32058
11
1.98746
21
-1.32233
0
LINE
8
BLACK
6
CONTINUOUS
10
1.98746
20
-1.32233
11
1.98556
21
-1.32302
0
LINE
8
BLACK
6
CONTINUOUS
10
1.98556
20
-1.32302
11
1.98181
21
-1.32302
0
LINE
8
BLACK
6
CONTINUOUS
10
1.98181
20
-1.32302
11
1.98095
21
-1.32287
0
LINE
8
BLACK
6
CONTINUOUS
10
1.98095
20
-1.32287
11
1.98088
21
-1.32287
0
LINE
8
BLACK
6
CONTINUOUS
10
1.98088
20
-1.32287
11
1.97526
21
-1.321
0
LINE
8
BLACK
6
CONTINUOUS
10
1.97526
20
-1.321
11
1.97435
21
-1.32051
0
LINE
8
BLACK
6
CONTINUOUS
10
1.97435
20
-1.32051
11
1.97426
21
-1.32036
0
LINE
8
BLACK
6
CONTINUOUS
10
1.97426
20
-1.32036
11
1.9741
21
-1.32028
0
LINE
8
BLACK
6
CONTINUOUS
10
1.9741
20
-1.32028
11
1.97035
21
-1.31654
0
LINE
8
BLACK
6
CONTINUOUS
10
1.97035
20
-1.31654
11
1.96976
21
-1.3157
0
LINE
8
BLACK
6
CONTINUOUS
10
1.96976
20
-1.3157
11
1.96975
21
-1.31552
0
LINE
8
BLACK
6
CONTINUOUS
10
1.96975
20
-1.31552
11
1.96964
21
-1.31538
0
LINE
8
BLACK
6
CONTINUOUS
10
1.96964
20
-1.31538
11
1.96776
21
-1.30976
0
LINE
8
BLACK
6
CONTINUOUS
10
1.96776
20
-1.30976
11
1.96764
21
-1.30888
0
LINE
8
BLACK
6
CONTINUOUS
10
1.96764
20
-1.30888
11
1.96761
21
-1.30882
0
LINE
8
BLACK
6
CONTINUOUS
10
1.96761
20
-1.30882
11
1.96761
21
-1.2807
0
LINE
8
BLACK
6
CONTINUOUS
10
1.96761
20
-1.2807
11
1.96779
21
-1.27969
0
LINE
8
BLACK
6
CONTINUOUS
10
1.96779
20
-1.27969
11
1.96909
21
-1.27814
0
LINE
8
BLACK
6
CONTINUOUS
10
1.96909
20
-1.27814
11
1.97108
21
-1.27779
0
LINE
8
BLACK
6
CONTINUOUS
10
1.97108
20
-1.27779
11
1.97283
21
-1.2788
0
LINE
8
BLACK
6
CONTINUOUS
10
1.86012
20
-1.27857
11
1.86102
21
-1.28038
0
LINE
8
BLACK
6
CONTINUOUS
10
1.86102
20
-1.28038
11
1.86054
21
-1.28234
0
LINE
8
BLACK
6
CONTINUOUS
10
1.86054
20
-1.28234
11
1.84851
21
-1.30039
0
LINE
8
BLACK
6
CONTINUOUS
10
1.84851
20
-1.30039
11
1.86054
21
-1.31843
0
LINE
8
BLACK
6
CONTINUOUS
10
1.86054
20
-1.31843
11
1.86095
21
-1.31937
0
LINE
8
BLACK
6
CONTINUOUS
10
1.86095
20
-1.31937
11
1.86073
21
-1.32138
0
LINE
8
BLACK
6
CONTINUOUS
10
1.86073
20
-1.32138
11
1.85927
21
-1.32278
0
LINE
8
BLACK
6
CONTINUOUS
10
1.85927
20
-1.32278
11
1.85725
21
-1.32291
0
LINE
8
BLACK
6
CONTINUOUS
10
1.85725
20
-1.32291
11
1.85562
21
-1.32171
0
LINE
8
BLACK
6
CONTINUOUS
10
1.85562
20
-1.32171
11
1.84496
21
-1.30571
0
LINE
8
BLACK
6
CONTINUOUS
10
1.84496
20
-1.30571
11
1.83429
21
-1.32171
0
LINE
8
BLACK
6
CONTINUOUS
10
1.83429
20
-1.32171
11
1.83358
21
-1.32245
0
LINE
8
BLACK
6
CONTINUOUS
10
1.83358
20
-1.32245
11
1.83164
21
-1.32302
0
LINE
8
BLACK
6
CONTINUOUS
10
1.83164
20
-1.32302
11
1.82979
21
-1.32221
0
LINE
8
BLACK
6
CONTINUOUS
10
1.82979
20
-1.32221
11
1.8289
21
-1.3204
0
LINE
8
BLACK
6
CONTINUOUS
10
1.8289
20
-1.3204
11
1.82938
21
-1.31843
0
LINE
8
BLACK
6
CONTINUOUS
10
1.82938
20
-1.31843
11
1.84141
21
-1.30039
0
LINE
8
BLACK
6
CONTINUOUS
10
1.84141
20
-1.30039
11
1.82938
21
-1.28234
0
LINE
8
BLACK
6
CONTINUOUS
10
1.82938
20
-1.28234
11
1.82896
21
-1.2814
0
LINE
8
BLACK
6
CONTINUOUS
10
1.82896
20
-1.2814
11
1.82919
21
-1.27939
0
LINE
8
BLACK
6
CONTINUOUS
10
1.82919
20
-1.27939
11
1.83065
21
-1.278
0
LINE
8
BLACK
6
CONTINUOUS
10
1.83065
20
-1.278
11
1.83266
21
-1.27787
0
LINE
8
BLACK
6
CONTINUOUS
10
1.83266
20
-1.27787
11
1.83429
21
-1.27906
0
LINE
8
BLACK
6
CONTINUOUS
10
1.83429
20
-1.27906
11
1.84496
21
-1.29506
0
LINE
8
BLACK
6
CONTINUOUS
10
1.84496
20
-1.29506
11
1.85562
21
-1.27906
0
LINE
8
BLACK
6
CONTINUOUS
10
1.85562
20
-1.27906
11
1.85633
21
-1.27832
0
LINE
8
BLACK
6
CONTINUOUS
10
1.85633
20
-1.27832
11
1.85827
21
-1.27775
0
LINE
8
BLACK
6
CONTINUOUS
10
1.85827
20
-1.27775
11
1.86012
21
-1.27857
0
LINE
8
BLACK
6
CONTINUOUS
10
1.8191
20
-1.2788
11
1.81979
21
-1.2807
0
LINE
8
BLACK
6
CONTINUOUS
10
1.81979
20
-1.2807
11
1.81979
21
-1.32007
0
LINE
8
BLACK
6
CONTINUOUS
10
1.81979
20
-1.32007
11
1.81961
21
-1.32108
0
LINE
8
BLACK
6
CONTINUOUS
10
1.81961
20
-1.32108
11
1.81831
21
-1.32263
0
LINE
8
BLACK
6
CONTINUOUS
10
1.81831
20
-1.32263
11
1.81632
21
-1.32298
0
LINE
8
BLACK
6
CONTINUOUS
10
1.81632
20
-1.32298
11
1.81457
21
-1.32197
0
LINE
8
BLACK
6
CONTINUOUS
10
1.81457
20
-1.32197
11
1.81388
21
-1.32007
0
LINE
8
BLACK
6
CONTINUOUS
10
1.81388
20
-1.32007
11
1.81388
21
-1.3024
0
LINE
8
BLACK
6
CONTINUOUS
10
1.81388
20
-1.3024
11
1.79729
21
-1.3024
0
LINE
8
BLACK
6
CONTINUOUS
10
1.79729
20
-1.3024
11
1.79729
21
-1.32007
0
LINE
8
BLACK
6
CONTINUOUS
10
1.79729
20
-1.32007
11
1.79711
21
-1.32108
0
LINE
8
BLACK
6
CONTINUOUS
10
1.79711
20
-1.32108
11
1.79581
21
-1.32263
0
LINE
8
BLACK
6
CONTINUOUS
10
1.79581
20
-1.32263
11
1.79383
21
-1.32298
0
LINE
8
BLACK
6
CONTINUOUS
10
1.79383
20
-1.32298
11
1.79208
21
-1.32197
0
LINE
8
BLACK
6
CONTINUOUS
10
1.79208
20
-1.32197
11
1.79139
21
-1.32007
0
LINE
8
BLACK
6
CONTINUOUS
10
1.79139
20
-1.32007
11
1.79139
21
-1.2807
0
LINE
8
BLACK
6
CONTINUOUS
10
1.79139
20
-1.2807
11
1.79156
21
-1.27969
0
LINE
8
BLACK
6
CONTINUOUS
10
1.79156
20
-1.27969
11
1.79286
21
-1.27814
0
LINE
8
BLACK
6
CONTINUOUS
10
1.79286
20
-1.27814
11
1.79485
21
-1.27779
0
LINE
8
BLACK
6
CONTINUOUS
10
1.79485
20
-1.27779
11
1.7966
21
-1.2788
0
LINE
8
BLACK
6
CONTINUOUS
10
1.7966
20
-1.2788
11
1.79729
21
-1.2807
0
LINE
8
BLACK
6
CONTINUOUS
10
1.79729
20
-1.2807
11
1.79729
21
-1.2965
0
LINE
8
BLACK
6
CONTINUOUS
10
1.79729
20
-1.2965
11
1.81388
21
-1.2965
0
LINE
8
BLACK
6
CONTINUOUS
10
1.81388
20
-1.2965
11
1.81388
21
-1.2807
0
LINE
8
BLACK
6
CONTINUOUS
10
1.81388
20
-1.2807
11
1.81406
21
-1.27969
0
LINE
8
BLACK
6
CONTINUOUS
10
1.81406
20
-1.27969
11
1.81536
21
-1.27814
0
LINE
8
BLACK
6
CONTINUOUS
10
1.81536
20
-1.27814
11
1.81735
21
-1.27779
0
LINE
8
BLACK
6
CONTINUOUS
10
1.81735
20
-1.27779
11
1.8191
21
-1.2788
0
LINE
8
BLACK
6
CONTINUOUS
10
1.92096
20
-1.27793
11
1.9225
21
-1.27923
0
LINE
8
BLACK
6
CONTINUOUS
10
1.9225
20
-1.27923
11
1.92286
21
-1.28121
0
LINE
8
BLACK
6
CONTINUOUS
10
1.92286
20
-1.28121
11
1.92185
21
-1.28296
0
LINE
8
BLACK
6
CONTINUOUS
10
1.92185
20
-1.28296
11
1.91995
21
-1.28365
0
LINE
8
BLACK
6
CONTINUOUS
10
1.91995
20
-1.28365
11
1.91165
21
-1.28365
0
LINE
8
BLACK
6
CONTINUOUS
10
1.91165
20
-1.28365
11
1.91165
21
-1.32007
0
LINE
8
BLACK
6
CONTINUOUS
10
1.91165
20
-1.32007
11
1.91147
21
-1.32108
0
LINE
8
BLACK
6
CONTINUOUS
10
1.91147
20
-1.32108
11
1.91018
21
-1.32263
0
LINE
8
BLACK
6
CONTINUOUS
10
1.91018
20
-1.32263
11
1.90819
21
-1.32298
0
LINE
8
BLACK
6
CONTINUOUS
10
1.90819
20
-1.32298
11
1.90644
21
-1.32197
0
LINE
8
BLACK
6
CONTINUOUS
10
1.90644
20
-1.32197
11
1.90575
21
-1.32007
0
LINE
8
BLACK
6
CONTINUOUS
10
1.90575
20
-1.32007
11
1.90575
21
-1.28365
0
LINE
8
BLACK
6
CONTINUOUS
10
1.90575
20
-1.28365
11
1.89745
21
-1.28365
0
LINE
8
BLACK
6
CONTINUOUS
10
1.89745
20
-1.28365
11
1.89644
21
-1.28348
0
LINE
8
BLACK
6
CONTINUOUS
10
1.89644
20
-1.28348
11
1.89489
21
-1.28218
0
LINE
8
BLACK
6
CONTINUOUS
10
1.89489
20
-1.28218
11
1.89454
21
-1.28019
0
LINE
8
BLACK
6
CONTINUOUS
10
1.89454
20
-1.28019
11
1.89555
21
-1.27844
0
LINE
8
BLACK
6
CONTINUOUS
10
1.89555
20
-1.27844
11
1.89745
21
-1.27775
0
LINE
8
BLACK
6
CONTINUOUS
10
1.89745
20
-1.27775
11
1.91995
21
-1.27775
0
LINE
8
BLACK
6
CONTINUOUS
10
1.91995
20
-1.27775
11
1.92096
21
-1.27793
0
LINE
8
BLACK
6
CONTINUOUS
10
1.83472
20
-1.20312
11
1.83627
21
-1.20442
0
LINE
8
BLACK
6
CONTINUOUS
10
1.83627
20
-1.20442
11
1.83662
21
-1.20641
0
LINE
8
BLACK
6
CONTINUOUS
10
1.83662
20
-1.20641
11
1.83561
21
-1.20816
0
LINE
8
BLACK
6
CONTINUOUS
10
1.83561
20
-1.20816
11
1.83371
21
-1.20885
0
LINE
8
BLACK
6
CONTINUOUS
10
1.83371
20
-1.20885
11
1.81584
21
-1.20885
0
LINE
8
BLACK
6
CONTINUOUS
10
1.81584
20
-1.20885
11
1.82468
21
-1.21895
0
LINE
8
BLACK
6
CONTINUOUS
10
1.82468
20
-1.21895
11
1.82491
21
-1.21933
0
LINE
8
BLACK
6
CONTINUOUS
10
1.82491
20
-1.21933
11
1.82502
21
-1.21942
0
LINE
8
BLACK
6
CONTINUOUS
10
1.82502
20
-1.21942
11
1.82504
21
-1.21954
0
LINE
8
BLACK
6
CONTINUOUS
10
1.82504
20
-1.21954
11
1.82521
21
-1.21983
0
LINE
8
BLACK
6
CONTINUOUS
10
1.82521
20
-1.21983
11
1.82523
21
-1.22063
0
LINE
8
BLACK
6
CONTINUOUS
10
1.82523
20
-1.22063
11
1.82537
21
-1.22141
0
LINE
8
BLACK
6
CONTINUOUS
10
1.82537
20
-1.22141
11
1.82525
21
-1.22161
0
LINE
8
BLACK
6
CONTINUOUS
10
1.82525
20
-1.22161
11
1.82525
21
-1.22185
0
LINE
8
BLACK
6
CONTINUOUS
10
1.82525
20
-1.22185
11
1.82476
21
-1.22247
0
LINE
8
BLACK
6
CONTINUOUS
10
1.82476
20
-1.22247
11
1.82436
21
-1.22316
0
LINE
8
BLACK
6
CONTINUOUS
10
1.82436
20
-1.22316
11
1.82414
21
-1.22324
0
LINE
8
BLACK
6
CONTINUOUS
10
1.82414
20
-1.22324
11
1.82399
21
-1.22342
0
LINE
8
BLACK
6
CONTINUOUS
10
1.82399
20
-1.22342
11
1.82321
21
-1.22358
0
LINE
8
BLACK
6
CONTINUOUS
10
1.82321
20
-1.22358
11
1.82246
21
-1.22385
0
LINE
8
BLACK
6
CONTINUOUS
10
1.82246
20
-1.22385
11
1.81753
21
-1.22385
0
LINE
8
BLACK
6
CONTINUOUS
10
1.81753
20
-1.22385
11
1.81483
21
-1.2252
0
LINE
8
BLACK
6
CONTINUOUS
10
1.81483
20
-1.2252
11
1.81364
21
-1.2264
0
LINE
8
BLACK
6
CONTINUOUS
10
1.81364
20
-1.2264
11
1.81229
21
-1.22909
0
LINE
8
BLACK
6
CONTINUOUS
10
1.81229
20
-1.22909
11
1.81229
21
-1.23707
0
LINE
8
BLACK
6
CONTINUOUS
10
1.81229
20
-1.23707
11
1.81364
21
-1.23977
0
LINE
8
BLACK
6
CONTINUOUS
10
1.81364
20
-1.23977
11
1.81483
21
-1.24097
0
LINE
8
BLACK
6
CONTINUOUS
10
1.81483
20
-1.24097
11
1.81753
21
-1.24232
0
LINE
8
BLACK
6
CONTINUOUS
10
1.81753
20
-1.24232
11
1.82739
21
-1.24232
0
LINE
8
BLACK
6
CONTINUOUS
10
1.82739
20
-1.24232
11
1.83008
21
-1.24097
0
LINE
8
BLACK
6
CONTINUOUS
10
1.83008
20
-1.24097
11
1.83162
21
-1.23943
0
LINE
8
BLACK
6
CONTINUOUS
10
1.83162
20
-1.23943
11
1.83246
21
-1.23884
0
LINE
8
BLACK
6
CONTINUOUS
10
1.83246
20
-1.23884
11
1.83447
21
-1.23867
0
LINE
8
BLACK
6
CONTINUOUS
10
1.83447
20
-1.23867
11
1.83613
21
-1.23983
0
LINE
8
BLACK
6
CONTINUOUS
10
1.83613
20
-1.23983
11
1.83665
21
-1.24178
0
LINE
8
BLACK
6
CONTINUOUS
10
1.83665
20
-1.24178
11
1.8358
21
-1.24361
0
LINE
8
BLACK
6
CONTINUOUS
10
1.8358
20
-1.24361
11
1.83392
21
-1.24548
0
LINE
8
BLACK
6
CONTINUOUS
10
1.83392
20
-1.24548
11
1.8332
21
-1.24599
0
LINE
8
BLACK
6
CONTINUOUS
10
1.8332
20
-1.24599
11
1.83315
21
-1.24603
0
LINE
8
BLACK
6
CONTINUOUS
10
1.83315
20
-1.24603
11
1.8294
21
-1.24791
0
LINE
8
BLACK
6
CONTINUOUS
10
1.8294
20
-1.24791
11
1.82842
21
-1.2482
0
LINE
8
BLACK
6
CONTINUOUS
10
1.82842
20
-1.2482
11
1.82825
21
-1.24816
0
LINE
8
BLACK
6
CONTINUOUS
10
1.82825
20
-1.24816
11
1.82808
21
-1.24822
0
LINE
8
BLACK
6
CONTINUOUS
10
1.82808
20
-1.24822
11
1.81684
21
-1.24822
0
LINE
8
BLACK
6
CONTINUOUS
10
1.81684
20
-1.24822
11
1.81583
21
-1.24804
0
LINE
8
BLACK
6
CONTINUOUS
10
1.81583
20
-1.24804
11
1.81569
21
-1.24793
0
LINE
8
BLACK
6
CONTINUOUS
10
1.81569
20
-1.24793
11
1.81551
21
-1.24791
0
LINE
8
BLACK
6
CONTINUOUS
10
1.81551
20
-1.24791
11
1.81177
21
-1.24603
0
LINE
8
BLACK
6
CONTINUOUS
10
1.81177
20
-1.24603
11
1.81106
21
-1.24551
0
LINE
8
BLACK
6
CONTINUOUS
10
1.81106
20
-1.24551
11
1.811
21
-1.24548
0
LINE
8
BLACK
6
CONTINUOUS
10
1.811
20
-1.24548
11
1.80912
21
-1.24361
0
LINE
8
BLACK
6
CONTINUOUS
10
1.80912
20
-1.24361
11
1.80862
21
-1.24288
0
LINE
8
BLACK
6
CONTINUOUS
10
1.80862
20
-1.24288
11
1.80857
21
-1.24284
0
LINE
8
BLACK
6
CONTINUOUS
10
1.80857
20
-1.24284
11
1.8067
21
-1.23909
0
LINE
8
BLACK
6
CONTINUOUS
10
1.8067
20
-1.23909
11
1.8064
21
-1.23811
0
LINE
8
BLACK
6
CONTINUOUS
10
1.8064
20
-1.23811
11
1.80644
21
-1.23794
0
LINE
8
BLACK
6
CONTINUOUS
10
1.80644
20
-1.23794
11
1.80638
21
-1.23777
0
LINE
8
BLACK
6
CONTINUOUS
10
1.80638
20
-1.23777
11
1.80638
21
-1.2284
0
LINE
8
BLACK
6
CONTINUOUS
10
1.80638
20
-1.2284
11
1.80656
21
-1.22739
0
LINE
8
BLACK
6
CONTINUOUS
10
1.80656
20
-1.22739
11
1.80668
21
-1.22725
0
LINE
8
BLACK
6
CONTINUOUS
10
1.80668
20
-1.22725
11
1.8067
21
-1.22708
0
LINE
8
BLACK
6
CONTINUOUS
10
1.8067
20
-1.22708
11
1.80857
21
-1.22333
0
LINE
8
BLACK
6
CONTINUOUS
10
1.80857
20
-1.22333
11
1.8091
21
-1.22262
0
LINE
8
BLACK
6
CONTINUOUS
10
1.8091
20
-1.22262
11
1.80912
21
-1.22256
0
LINE
8
BLACK
6
CONTINUOUS
10
1.80912
20
-1.22256
11
1.811
21
-1.22068
0
LINE
8
BLACK
6
CONTINUOUS
10
1.811
20
-1.22068
11
1.81172
21
-1.22018
0
LINE
8
BLACK
6
CONTINUOUS
10
1.81172
20
-1.22018
11
1.81177
21
-1.22013
0
LINE
8
BLACK
6
CONTINUOUS
10
1.81177
20
-1.22013
11
1.81551
21
-1.21826
0
LINE
8
BLACK
6
CONTINUOUS
10
1.81551
20
-1.21826
11
1.81608
21
-1.21809
0
LINE
8
BLACK
6
CONTINUOUS
10
1.81608
20
-1.21809
11
1.80711
21
-1.20784
0
LINE
8
BLACK
6
CONTINUOUS
10
1.80711
20
-1.20784
11
1.80688
21
-1.20746
0
LINE
8
BLACK
6
CONTINUOUS
10
1.80688
20
-1.20746
11
1.80678
21
-1.20737
0
LINE
8
BLACK
6
CONTINUOUS
10
1.80678
20
-1.20737
11
1.80676
21
-1.20725
0
LINE
8
BLACK
6
CONTINUOUS
10
1.80676
20
-1.20725
11
1.80658
21
-1.20697
0
LINE
8
BLACK
6
CONTINUOUS
10
1.80658
20
-1.20697
11
1.80657
21
-1.20617
0
LINE
8
BLACK
6
CONTINUOUS
10
1.80657
20
-1.20617
11
1.80643
21
-1.20539
0
LINE
8
BLACK
6
CONTINUOUS
10
1.80643
20
-1.20539
11
1.80655
21
-1.20518
0
LINE
8
BLACK
6
CONTINUOUS
10
1.80655
20
-1.20518
11
1.80654
21
-1.20495
0
LINE
8
BLACK
6
CONTINUOUS
10
1.80654
20
-1.20495
11
1.80704
21
-1.20433
0
LINE
8
BLACK
6
CONTINUOUS
10
1.80704
20
-1.20433
11
1.80744
21
-1.20364
0
LINE
8
BLACK
6
CONTINUOUS
10
1.80744
20
-1.20364
11
1.80766
21
-1.20356
0
LINE
8
BLACK
6
CONTINUOUS
10
1.80766
20
-1.20356
11
1.80781
21
-1.20337
0
LINE
8
BLACK
6
CONTINUOUS
10
1.80781
20
-1.20337
11
1.80859
21
-1.20322
0
LINE
8
BLACK
6
CONTINUOUS
10
1.80859
20
-1.20322
11
1.80934
21
-1.20295
0
LINE
8
BLACK
6
CONTINUOUS
10
1.80934
20
-1.20295
11
1.83371
21
-1.20295
0
LINE
8
BLACK
6
CONTINUOUS
10
1.83371
20
-1.20295
11
1.83472
21
-1.20312
0
LINE
8
BLACK
6
CONTINUOUS
10
1.86471
20
-1.20312
11
1.86485
21
-1.20324
0
LINE
8
BLACK
6
CONTINUOUS
10
1.86485
20
-1.20324
11
1.86502
21
-1.20326
0
LINE
8
BLACK
6
CONTINUOUS
10
1.86502
20
-1.20326
11
1.86877
21
-1.20513
0
LINE
8
BLACK
6
CONTINUOUS
10
1.86877
20
-1.20513
11
1.86948
21
-1.20566
0
LINE
8
BLACK
6
CONTINUOUS
10
1.86948
20
-1.20566
11
1.86954
21
-1.20569
0
LINE
8
BLACK
6
CONTINUOUS
10
1.86954
20
-1.20569
11
1.87142
21
-1.20756
0
LINE
8
BLACK
6
CONTINUOUS
10
1.87142
20
-1.20756
11
1.872
21
-1.2084
0
LINE
8
BLACK
6
CONTINUOUS
10
1.872
20
-1.2084
11
1.87218
21
-1.21041
0
LINE
8
BLACK
6
CONTINUOUS
10
1.87218
20
-1.21041
11
1.87102
21
-1.21207
0
LINE
8
BLACK
6
CONTINUOUS
10
1.87102
20
-1.21207
11
1.86907
21
-1.21259
0
LINE
8
BLACK
6
CONTINUOUS
10
1.86907
20
-1.21259
11
1.86724
21
-1.21174
0
LINE
8
BLACK
6
CONTINUOUS
10
1.86724
20
-1.21174
11
1.8657
21
-1.2102
0
LINE
8
BLACK
6
CONTINUOUS
10
1.8657
20
-1.2102
11
1.86301
21
-1.20885
0
LINE
8
BLACK
6
CONTINUOUS
10
1.86301
20
-1.20885
11
1.85503
21
-1.20885
0
LINE
8
BLACK
6
CONTINUOUS
10
1.85503
20
-1.20885
11
1.85233
21
-1.2102
0
LINE
8
BLACK
6
CONTINUOUS
10
1.85233
20
-1.2102
11
1.85113
21
-1.2114
0
LINE
8
BLACK
6
CONTINUOUS
10
1.85113
20
-1.2114
11
1.84978
21
-1.21409
0
LINE
8
BLACK
6
CONTINUOUS
10
1.84978
20
-1.21409
11
1.84978
21
-1.21667
0
LINE
8
BLACK
6
CONTINUOUS
10
1.84978
20
-1.21667
11
1.85129
21
-1.22118
0
LINE
8
BLACK
6
CONTINUOUS
10
1.85129
20
-1.22118
11
1.87329
21
-1.24318
0
LINE
8
BLACK
6
CONTINUOUS
10
1.87329
20
-1.24318
11
1.87366
21
-1.24371
0
LINE
8
BLACK
6
CONTINUOUS
10
1.87366
20
-1.24371
11
1.87376
21
-1.24379
0
LINE
8
BLACK
6
CONTINUOUS
10
1.87376
20
-1.24379
11
1.87377
21
-1.24387
0
LINE
8
BLACK
6
CONTINUOUS
10
1.87377
20
-1.24387
11
1.87388
21
-1.24402
0
LINE
8
BLACK
6
CONTINUOUS
10
1.87388
20
-1.24402
11
1.87396
21
-1.24491
0
LINE
8
BLACK
6
CONTINUOUS
10
1.87396
20
-1.24491
11
1.87411
21
-1.24578
0
LINE
8
BLACK
6
CONTINUOUS
10
1.87411
20
-1.24578
11
1.87404
21
-1.2459
0
LINE
8
BLACK
6
CONTINUOUS
10
1.87404
20
-1.2459
11
1.87406
21
-1.24603
0
LINE
8
BLACK
6
CONTINUOUS
10
1.87406
20
-1.24603
11
1.87355
21
-1.24676
0
LINE
8
BLACK
6
CONTINUOUS
10
1.87355
20
-1.24676
11
1.8731
21
-1.24753
0
LINE
8
BLACK
6
CONTINUOUS
10
1.8731
20
-1.24753
11
1.87297
21
-1.24758
0
LINE
8
BLACK
6
CONTINUOUS
10
1.87297
20
-1.24758
11
1.8729
21
-1.24769
0
LINE
8
BLACK
6
CONTINUOUS
10
1.8729
20
-1.24769
11
1.87204
21
-1.24792
0
LINE
8
BLACK
6
CONTINUOUS
10
1.87204
20
-1.24792
11
1.8712
21
-1.24822
0
LINE
8
BLACK
6
CONTINUOUS
10
1.8712
20
-1.24822
11
1.84683
21
-1.24822
0
LINE
8
BLACK
6
CONTINUOUS
10
1.84683
20
-1.24822
11
1.84582
21
-1.24804
0
LINE
8
BLACK
6
CONTINUOUS
10
1.84582
20
-1.24804
11
1.84427
21
-1.24674
0
LINE
8
BLACK
6
CONTINUOUS
10
1.84427
20
-1.24674
11
1.84392
21
-1.24476
0
LINE
8
BLACK
6
CONTINUOUS
10
1.84392
20
-1.24476
11
1.84493
21
-1.24301
0
LINE
8
BLACK
6
CONTINUOUS
10
1.84493
20
-1.24301
11
1.84683
21
-1.24232
0
LINE
8
BLACK
6
CONTINUOUS
10
1.84683
20
-1.24232
11
1.86407
21
-1.24232
0
LINE
8
BLACK
6
CONTINUOUS
10
1.86407
20
-1.24232
11
1.84662
21
-1.22486
0
LINE
8
BLACK
6
CONTINUOUS
10
1.84662
20
-1.22486
11
1.84603
21
-1.22402
0
LINE
8
BLACK
6
CONTINUOUS
10
1.84603
20
-1.22402
11
1.84601
21
-1.22384
0
LINE
8
BLACK
6
CONTINUOUS
10
1.84601
20
-1.22384
11
1.84591
21
-1.22371
0
LINE
8
BLACK
6
CONTINUOUS
10
1.84591
20
-1.22371
11
1.84403
21
-1.21808
0
LINE
8
BLACK
6
CONTINUOUS
10
1.84403
20
-1.21808
11
1.8439
21
-1.21721
0
LINE
8
BLACK
6
CONTINUOUS
10
1.8439
20
-1.21721
11
1.84388
21
-1.21715
0
LINE
8
BLACK
6
CONTINUOUS
10
1.84388
20
-1.21715
11
1.84388
21
-1.2134
0
LINE
8
BLACK
6
CONTINUOUS
10
1.84388
20
-1.2134
11
1.84406
21
-1.21239
0
LINE
8
BLACK
6
CONTINUOUS
10
1.84406
20
-1.21239
11
1.84417
21
-1.21225
0
LINE
8
BLACK
6
CONTINUOUS
10
1.84417
20
-1.21225
11
1.84419
21
-1.21208
0
LINE
8
BLACK
6
CONTINUOUS
10
1.84419
20
-1.21208
11
1.84607
21
-1.20833
0
LINE
8
BLACK
6
CONTINUOUS
10
1.84607
20
-1.20833
11
1.84659
21
-1.20762
0
LINE
8
BLACK
6
CONTINUOUS
10
1.84659
20
-1.20762
11
1.84662
21
-1.20756
0
LINE
8
BLACK
6
CONTINUOUS
10
1.84662
20
-1.20756
11
1.84849
21
-1.20569
0
LINE
8
BLACK
6
CONTINUOUS
10
1.84849
20
-1.20569
11
1.84922
21
-1.20518
0
LINE
8
BLACK
6
CONTINUOUS
10
1.84922
20
-1.20518
11
1.84926
21
-1.20513
0
LINE
8
BLACK
6
CONTINUOUS
10
1.84926
20
-1.20513
11
1.85301
21
-1.20326
0
LINE
8
BLACK
6
CONTINUOUS
10
1.85301
20
-1.20326
11
1.85399
21
-1.20297
0
LINE
8
BLACK
6
CONTINUOUS
10
1.85399
20
-1.20297
11
1.85416
21
-1.20301
0
LINE
8
BLACK
6
CONTINUOUS
10
1.85416
20
-1.20301
11
1.85433
21
-1.20295
0
LINE
8
BLACK
6
CONTINUOUS
10
1.85433
20
-1.20295
11
1.8637
21
-1.20295
0
LINE
8
BLACK
6
CONTINUOUS
10
1.8637
20
-1.20295
11
1.86471
21
-1.20312
0
LINE
8
BLACK
6
CONTINUOUS
10
1.88846
20
-1.204
11
1.88915
21
-1.2059
0
LINE
8
BLACK
6
CONTINUOUS
10
1.88915
20
-1.2059
11
1.88915
21
-1.23354
0
LINE
8
BLACK
6
CONTINUOUS
10
1.88915
20
-1.23354
11
1.89066
21
-1.23805
0
LINE
8
BLACK
6
CONTINUOUS
10
1.89066
20
-1.23805
11
1.89342
21
-1.24081
0
LINE
8
BLACK
6
CONTINUOUS
10
1.89342
20
-1.24081
11
1.89793
21
-1.24232
0
LINE
8
BLACK
6
CONTINUOUS
10
1.89793
20
-1.24232
11
1.9012
21
-1.24232
0
LINE
8
BLACK
6
CONTINUOUS
10
1.9012
20
-1.24232
11
1.90221
21
-1.24249
0
LINE
8
BLACK
6
CONTINUOUS
10
1.90221
20
-1.24249
11
1.90376
21
-1.24379
0
LINE
8
BLACK
6
CONTINUOUS
10
1.90376
20
-1.24379
11
1.90411
21
-1.24578
0
LINE
8
BLACK
6
CONTINUOUS
10
1.90411
20
-1.24578
11
1.9031
21
-1.24753
0
LINE
8
BLACK
6
CONTINUOUS
10
1.9031
20
-1.24753
11
1.9012
21
-1.24822
0
LINE
8
BLACK
6
CONTINUOUS
10
1.9012
20
-1.24822
11
1.89745
21
-1.24822
0
LINE
8
BLACK
6
CONTINUOUS
10
1.89745
20
-1.24822
11
1.89658
21
-1.24807
0
LINE
8
BLACK
6
CONTINUOUS
10
1.89658
20
-1.24807
11
1.89652
21
-1.24807
0
LINE
8
BLACK
6
CONTINUOUS
10
1.89652
20
-1.24807
11
1.89089
21
-1.24619
0
LINE
8
BLACK
6
CONTINUOUS
10
1.89089
20
-1.24619
11
1.88999
21
-1.24571
0
LINE
8
BLACK
6
CONTINUOUS
10
1.88999
20
-1.24571
11
1.8899
21
-1.24556
0
LINE
8
BLACK
6
CONTINUOUS
10
1.8899
20
-1.24556
11
1.88974
21
-1.24548
0
LINE
8
BLACK
6
CONTINUOUS
10
1.88974
20
-1.24548
11
1.88599
21
-1.24173
0
LINE
8
BLACK
6
CONTINUOUS
10
1.88599
20
-1.24173
11
1.8854
21
-1.24089
0
LINE
8
BLACK
6
CONTINUOUS
10
1.8854
20
-1.24089
11
1.88538
21
-1.24072
0
LINE
8
BLACK
6
CONTINUOUS
10
1.88538
20
-1.24072
11
1.88528
21
-1.24058
0
LINE
8
BLACK
6
CONTINUOUS
10
1.88528
20
-1.24058
11
1.8834
21
-1.23495
0
LINE
8
BLACK
6
CONTINUOUS
10
1.8834
20
-1.23495
11
1.88327
21
-1.23408
0
LINE
8
BLACK
6
CONTINUOUS
10
1.88327
20
-1.23408
11
1.88325
21
-1.23402
0
LINE
8
BLACK
6
CONTINUOUS
10
1.88325
20
-1.23402
11
1.88325
21
-1.2059
0
LINE
8
BLACK
6
CONTINUOUS
10
1.88325
20
-1.2059
11
1.88343
21
-1.20489
0
LINE
8
BLACK
6
CONTINUOUS
10
1.88343
20
-1.20489
11
1.88473
21
-1.20334
0
LINE
8
BLACK
6
CONTINUOUS
10
1.88473
20
-1.20334
11
1.88671
21
-1.20299
0
LINE
8
BLACK
6
CONTINUOUS
10
1.88671
20
-1.20299
11
1.88846
21
-1.204
0
LINE
8
BLACK
6
CONTINUOUS
10
2.04921
20
-1.02657
11
2.0506
21
-1.02715
0
LINE
8
BLACK
6
CONTINUOUS
10
2.0506
20
-1.02715
11
2.05118
21
-1.02854
0
LINE
8
BLACK
6
CONTINUOUS
10
2.05118
20
-1.02854
11
2.05118
21
-1.25492
0
LINE
8
BLACK
6
CONTINUOUS
10
2.05118
20
-1.25492
11
2.0506
21
-1.25631
0
LINE
8
BLACK
6
CONTINUOUS
10
2.0506
20
-1.25631
11
2.04921
21
-1.25689
0
LINE
8
BLACK
6
CONTINUOUS
10
2.04921
20
-1.25689
11
1.65945
21
-1.25689
0
LINE
8
BLACK
6
CONTINUOUS
10
1.65945
20
-1.25689
11
1.65806
21
-1.25631
0
LINE
8
BLACK
6
CONTINUOUS
10
1.65806
20
-1.25631
11
1.65748
21
-1.25492
0
LINE
8
BLACK
6
CONTINUOUS
10
1.65748
20
-1.25492
11
1.65748
21
-1.02854
0
LINE
8
BLACK
6
CONTINUOUS
10
1.65748
20
-1.02854
11
1.65806
21
-1.02715
0
LINE
8
BLACK
6
CONTINUOUS
10
1.65806
20
-1.02715
11
1.65945
21
-1.02657
0
LINE
8
BLACK
6
CONTINUOUS
10
1.65945
20
-1.02657
11
2.04921
21
-1.02657
0
LINE
8
BLACK
6
CONTINUOUS
10
1.97845
20
-1.03051
11
1.95443
21
-1.06896
0
LINE
8
BLACK
6
CONTINUOUS
10
1.95443
20
-1.06896
11
1.95406
21
-1.06922
0
LINE
8
BLACK
6
CONTINUOUS
10
1.95406
20
-1.06922
11
1.9538
21
-1.06958
0
LINE
8
BLACK
6
CONTINUOUS
10
1.9538
20
-1.06958
11
1.95347
21
-1.06964
0
LINE
8
BLACK
6
CONTINUOUS
10
1.95347
20
-1.06964
11
1.9532
21
-1.06983
0
LINE
8
BLACK
6
CONTINUOUS
10
1.9532
20
-1.06983
11
1.95276
21
-1.06976
0
LINE
8
BLACK
6
CONTINUOUS
10
1.95276
20
-1.06976
11
1.95231
21
-1.06983
0
LINE
8
BLACK
6
CONTINUOUS
10
1.95231
20
-1.06983
11
1.95204
21
-1.06964
0
LINE
8
BLACK
6
CONTINUOUS
10
1.95204
20
-1.06964
11
1.95171
21
-1.06958
0
LINE
8
BLACK
6
CONTINUOUS
10
1.95171
20
-1.06958
11
1.95145
21
-1.06922
0
LINE
8
BLACK
6
CONTINUOUS
10
1.95145
20
-1.06922
11
1.95109
21
-1.06896
0
LINE
8
BLACK
6
CONTINUOUS
10
1.95109
20
-1.06896
11
1.92706
21
-1.03051
0
LINE
8
BLACK
6
CONTINUOUS
10
1.92706
20
-1.03051
11
1.66142
21
-1.03051
0
LINE
8
BLACK
6
CONTINUOUS
10
1.66142
20
-1.03051
11
1.66142
21
-1.25295
0
LINE
8
BLACK
6
CONTINUOUS
10
1.66142
20
-1.25295
11
2.04724
21
-1.25295
0
LINE
8
BLACK
6
CONTINUOUS
10
2.04724
20
-1.25295
11
2.04724
21
-1.03051
0
LINE
8
BLACK
6
CONTINUOUS
10
2.04724
20
-1.03051
11
1.97845
21
-1.03051
0
LINE
8
BLACK
6
CONTINUOUS
10
1.9317
20
-1.03051
11
1.95276
21
-1.0642
0
LINE
8
BLACK
6
CONTINUOUS
10
1.95276
20
-1.0642
11
1.97381
21
-1.03051
0
LINE
8
BLACK
6
CONTINUOUS
10
1.97381
20
-1.03051
11
1.9317
21
-1.03051
  0
ENDSEC
  0
EOF
