  0
SECTION
  2
HEADER
  9
$ANGBASE
  50
0.0
  9
$ANGDIR
  70
1
  9
$MEASUREMENT
  70
0
  0
ENDSEC
  0
SECTION
  2
TABLES
  0
TABLE
  2
LTYPE
  70
4
  0
LTYPE
  5
40F
  2
CONTINUOUS
  70
0
  3
Solid line
  72
65
  73
0
  40
0.0
  0
LTYPE
  5
410
  2
DASHDOT
 70
0
  3
Dash Dot ____ _ ____ _
 72
65
 73
4
 40
2.0
 49
1.25
 49
-0.25
 49
0.25
 49
-0.25
  0
LTYPE
  5
411
  2
DASHED
 70
0
  3
Dashed __ __ __ __ __
 72
65
 73
2
 40
0.75
 49
0.5
 49
-0.25
  0
LTYPE
  5
43B
  2
DOTTED
 70
0
  3
Dotted .  .  .  .
 72
65
 73
2
 40
0.2
 49
0.0
 49
-0.2
  0
ENDTAB
  0
TABLE
  2
STYLE
  70
4
  0
STYLE
  2
KICAD
  70
0
  40
0
  41
1
  42
1
  50
0
  71
0
  3
isocp.shx
  0
STYLE
  2
KICADB
  70
0
  40
0
  41
1
  42
1
  50
0
  71
0
  3
isocp.shx
  0
STYLE
  2
KICADI
  70
0
  40
0
  41
1
  42
1
  50
15
  71
0
  3
isocp.shx
  0
STYLE
  2
KICADBI
  70
0
  40
0
  41
1
  42
1
  50
15
  71
0
  3
isocp.shx
  0
ENDTAB
  0
TABLE
  2
LAYER
  70
1
  0
LAYER
  2
BLACK
  70
0
  62
7
  6
CONTINUOUS
  0
ENDTAB
  0
ENDSEC
  0
SECTION
  2
ENTITIES
0
LINE
8
BLACK
6
CONTINUOUS
10
6.2692742913385828
20
-4.6207678346456689
11
6.2698069685039366
21
-4.6213005118110235
0
LINE
8
BLACK
6
CONTINUOUS
10
6.2698069685039366
20
-4.6213005118110235
11
6.2698818897637798
21
-4.6216771653543303
0
LINE
8
BLACK
6
CONTINUOUS
10
6.2698818897637798
20
-4.6216771653543303
11
6.2698818897637798
21
-4.8618346456692914
0
LINE
8
BLACK
6
CONTINUOUS
10
6.2698818897637798
20
-4.8618346456692914
11
6.2698069685039366
21
-4.8622112992125981
0
LINE
8
BLACK
6
CONTINUOUS
10
6.2698069685039366
20
-4.8622112992125981
11
6.2692742913385828
21
-4.8627439763779527
0
LINE
8
BLACK
6
CONTINUOUS
10
6.2692742913385828
20
-4.8627439763779527
11
6.2688976377952752
21
-4.8628188976377951
0
LINE
8
BLACK
6
CONTINUOUS
10
6.2688976377952752
20
-4.8628188976377951
11
5.9283464566929132
21
-4.8628188976377951
0
LINE
8
BLACK
6
CONTINUOUS
10
5.9283464566929132
20
-4.8628188976377951
11
5.9279698031496064
21
-4.8627439763779527
0
LINE
8
BLACK
6
CONTINUOUS
10
5.9279698031496064
20
-4.8627439763779527
11
5.9274371259842518
21
-4.8622112992125981
0
LINE
8
BLACK
6
CONTINUOUS
10
5.9274371259842518
20
-4.8622112992125981
11
5.9273622047244094
21
-4.8618346456692914
0
LINE
8
BLACK
6
CONTINUOUS
10
5.9273622047244094
20
-4.8618346456692914
11
5.9273622047244094
21
-4.6216771653543303
0
LINE
8
BLACK
6
CONTINUOUS
10
5.9273622047244094
20
-4.6216771653543303
11
5.9274371259842518
21
-4.6213005118110235
0
LINE
8
BLACK
6
CONTINUOUS
10
5.9274371259842518
20
-4.6213005118110235
11
5.9279698031496064
21
-4.6207678346456689
0
LINE
8
BLACK
6
CONTINUOUS
10
5.9279698031496064
20
-4.6207678346456689
11
5.9283464566929132
21
-4.6206929133858266
0
LINE
8
BLACK
6
CONTINUOUS
10
5.9283464566929132
20
-4.6206929133858266
11
6.2688976377952752
21
-4.6206929133858266
0
LINE
8
BLACK
6
CONTINUOUS
10
6.2688976377952752
20
-4.6206929133858266
11
6.2692742913385828
21
-4.6207678346456689
0
LINE
8
BLACK
6
CONTINUOUS
10
5.9293307086614169
20
-4.6226614173228349
11
5.9293307086614169
21
-4.8608503937007876
0
LINE
8
BLACK
6
CONTINUOUS
10
5.9293307086614169
20
-4.8608503937007876
11
6.2679133858267715
21
-4.8608503937007876
0
LINE
8
BLACK
6
CONTINUOUS
10
6.2679133858267715
20
-4.8608503937007876
11
6.2679133858267715
21
-4.6226614173228349
0
LINE
8
BLACK
6
CONTINUOUS
10
6.2679133858267715
20
-4.6226614173228349
11
5.9293307086614169
21
-4.6226614173228349
0
LINE
8
BLACK
6
CONTINUOUS
10
1.1953183070866142
20
-4.5588692125984247
11
1.2093555118110235
21
-4.561254212598425
0
LINE
8
BLACK
6
CONTINUOUS
10
1.2093555118110235
20
-4.561254212598425
11
1.2230374015748031
21
-4.5651959055118105
0
LINE
8
BLACK
6
CONTINUOUS
10
1.2230374015748031
20
-4.5651959055118105
11
1.2361919291338583
21
-4.5706446850393698
0
LINE
8
BLACK
6
CONTINUOUS
10
1.2361919291338583
20
-4.5706446850393698
11
1.2486536614173227
21
-4.5775320472440946
0
LINE
8
BLACK
6
CONTINUOUS
10
1.2486536614173227
20
-4.5775320472440946
11
1.2602659448818898
21
-4.5857713779527556
0
LINE
8
BLACK
6
CONTINUOUS
10
1.2602659448818898
20
-4.5857713779527556
11
1.2708826377952755
21
-4.5952590944881893
0
LINE
8
BLACK
6
CONTINUOUS
10
1.2708826377952755
20
-4.5952590944881893
11
1.2803703543307086
21
-4.6058757874015743
0
LINE
8
BLACK
6
CONTINUOUS
10
1.2803703543307086
20
-4.6058757874015743
11
1.28860968503937
21
-4.6174880708661412
0
LINE
8
BLACK
6
CONTINUOUS
10
1.28860968503937
20
-4.6174880708661412
11
1.2954970472440945
21
-4.6299498031496062
0
LINE
8
BLACK
6
CONTINUOUS
10
1.2954970472440945
20
-4.6299498031496062
11
1.3009458267716536
21
-4.6431043307086615
0
LINE
8
BLACK
6
CONTINUOUS
10
1.3009458267716536
20
-4.6431043307086615
11
1.3048875196850394
21
-4.6567862204724406
0
LINE
8
BLACK
6
CONTINUOUS
10
1.3048875196850394
20
-4.6567862204724406
11
1.3072725196850394
21
-4.6708234251968506
0
LINE
8
BLACK
6
CONTINUOUS
10
1.3072725196850394
20
-4.6708234251968506
11
1.3080708661417322
21
-4.6850393700787398
0
LINE
8
BLACK
6
CONTINUOUS
10
1.3080708661417322
20
-4.6850393700787398
11
1.3072725196850394
21
-4.69925531496063
0
LINE
8
BLACK
6
CONTINUOUS
10
1.3072725196850394
20
-4.69925531496063
11
1.3048875196850394
21
-4.713292519685039
0
LINE
8
BLACK
6
CONTINUOUS
10
1.3048875196850394
20
-4.713292519685039
11
1.3009458267716536
21
-4.7269744094488191
0
LINE
8
BLACK
6
CONTINUOUS
10
1.3009458267716536
20
-4.7269744094488191
11
1.2954970472440945
21
-4.7401289370078743
0
LINE
8
BLACK
6
CONTINUOUS
10
1.2954970472440945
20
-4.7401289370078743
11
1.28860968503937
21
-4.7525906692913384
0
LINE
8
BLACK
6
CONTINUOUS
10
1.28860968503937
20
-4.7525906692913384
11
1.2803703543307086
21
-4.7642029527559053
0
LINE
8
BLACK
6
CONTINUOUS
10
1.2803703543307086
20
-4.7642029527559053
11
1.2708826377952755
21
-4.7748196456692913
0
LINE
8
BLACK
6
CONTINUOUS
10
1.2708826377952755
20
-4.7748196456692913
11
1.2602659448818898
21
-4.7843073622047241
0
LINE
8
BLACK
6
CONTINUOUS
10
1.2602659448818898
20
-4.7843073622047241
11
1.2486536614173227
21
-4.792546692913386
0
LINE
8
BLACK
6
CONTINUOUS
10
1.2486536614173227
20
-4.792546692913386
11
1.2361919291338583
21
-4.7994340551181098
0
LINE
8
BLACK
6
CONTINUOUS
10
1.2361919291338583
20
-4.7994340551181098
11
1.2230374015748031
21
-4.8048828346456691
0
LINE
8
BLACK
6
CONTINUOUS
10
1.2230374015748031
20
-4.8048828346456691
11
1.2093555118110235
21
-4.8088245275590547
0
LINE
8
BLACK
6
CONTINUOUS
10
1.2093555118110235
20
-4.8088245275590547
11
1.1953183070866142
21
-4.811209527559055
0
LINE
8
BLACK
6
CONTINUOUS
10
1.1953183070866142
20
-4.811209527559055
11
1.1811023622047243
21
-4.8120078740157481
0
LINE
8
BLACK
6
CONTINUOUS
10
1.1811023622047243
20
-4.8120078740157481
11
1.1668864173228346
21
-4.811209527559055
0
LINE
8
BLACK
6
CONTINUOUS
10
1.1668864173228346
20
-4.811209527559055
11
1.1528492125984251
21
-4.8088245275590547
0
LINE
8
BLACK
6
CONTINUOUS
10
1.1528492125984251
20
-4.8088245275590547
11
1.1391673228346457
21
-4.8048828346456691
0
LINE
8
BLACK
6
CONTINUOUS
10
1.1391673228346457
20
-4.8048828346456691
11
1.1260127952755905
21
-4.7994340551181098
0
LINE
8
BLACK
6
CONTINUOUS
10
1.1260127952755905
20
-4.7994340551181098
11
1.1135510629921259
21
-4.792546692913386
0
LINE
8
BLACK
6
CONTINUOUS
10
1.1135510629921259
20
-4.792546692913386
11
1.101938779527559
21
-4.7843073622047241
0
LINE
8
BLACK
6
CONTINUOUS
10
1.101938779527559
20
-4.7843073622047241
11
1.0913220866141733
21
-4.7748196456692913
0
LINE
8
BLACK
6
CONTINUOUS
10
1.0913220866141733
20
-4.7748196456692913
11
1.0818343700787401
21
-4.7642029527559053
0
LINE
8
BLACK
6
CONTINUOUS
10
1.0818343700787401
20
-4.7642029527559053
11
1.0735950393700786
21
-4.7525906692913384
0
LINE
8
BLACK
6
CONTINUOUS
10
1.0735950393700786
20
-4.7525906692913384
11
1.0667076771653543
21
-4.7401289370078743
0
LINE
8
BLACK
6
CONTINUOUS
10
1.0667076771653543
20
-4.7401289370078743
11
1.0612588976377952
21
-4.7269744094488191
0
LINE
8
BLACK
6
CONTINUOUS
10
1.0612588976377952
20
-4.7269744094488191
11
1.0573172047244095
21
-4.713292519685039
0
LINE
8
BLACK
6
CONTINUOUS
10
1.0573172047244095
20
-4.713292519685039
11
1.0549322047244094
21
-4.69925531496063
0
LINE
8
BLACK
6
CONTINUOUS
10
1.0549322047244094
20
-4.69925531496063
11
1.0541338582677164
21
-4.6850393700787398
0
LINE
8
BLACK
6
CONTINUOUS
10
1.0541338582677164
20
-4.6850393700787398
11
1.0549322047244094
21
-4.6708234251968506
0
LINE
8
BLACK
6
CONTINUOUS
10
1.0549322047244094
20
-4.6708234251968506
11
1.0573172047244095
21
-4.6567862204724406
0
LINE
8
BLACK
6
CONTINUOUS
10
1.0573172047244095
20
-4.6567862204724406
11
1.0612588976377952
21
-4.6431043307086615
0
LINE
8
BLACK
6
CONTINUOUS
10
1.0612588976377952
20
-4.6431043307086615
11
1.0667076771653543
21
-4.6299498031496062
0
LINE
8
BLACK
6
CONTINUOUS
10
1.0667076771653543
20
-4.6299498031496062
11
1.0735950393700786
21
-4.6174880708661412
0
LINE
8
BLACK
6
CONTINUOUS
10
1.0735950393700786
20
-4.6174880708661412
11
1.0818343700787401
21
-4.6058757874015743
0
LINE
8
BLACK
6
CONTINUOUS
10
1.0818343700787401
20
-4.6058757874015743
11
1.0913220866141733
21
-4.5952590944881893
0
LINE
8
BLACK
6
CONTINUOUS
10
1.0913220866141733
20
-4.5952590944881893
11
1.101938779527559
21
-4.5857713779527556
0
LINE
8
BLACK
6
CONTINUOUS
10
1.101938779527559
20
-4.5857713779527556
11
1.1135510629921259
21
-4.5775320472440946
0
LINE
8
BLACK
6
CONTINUOUS
10
1.1135510629921259
20
-4.5775320472440946
11
1.1260127952755905
21
-4.5706446850393698
0
LINE
8
BLACK
6
CONTINUOUS
10
1.1260127952755905
20
-4.5706446850393698
11
1.1391673228346457
21
-4.5651959055118105
0
LINE
8
BLACK
6
CONTINUOUS
10
1.1391673228346457
20
-4.5651959055118105
11
1.1528492125984251
21
-4.561254212598425
0
LINE
8
BLACK
6
CONTINUOUS
10
1.1528492125984251
20
-4.561254212598425
11
1.1668864173228346
21
-4.5588692125984247
0
LINE
8
BLACK
6
CONTINUOUS
10
1.1668864173228346
20
-4.5588692125984247
11
1.1811023622047243
21
-4.5580708661417324
0
LINE
8
BLACK
6
CONTINUOUS
10
1.1811023622047243
20
-4.5580708661417324
11
1.1953183070866142
21
-4.5588692125984247
0
LINE
8
BLACK
6
CONTINUOUS
10
1.0566925984251969
20
-4.6990569685039372
11
1.0590443307086614
21
-4.7128983070866139
0
LINE
8
BLACK
6
CONTINUOUS
10
1.0590443307086614
20
-4.7128983070866139
11
1.0629310236220473
21
-4.7263892913385828
0
LINE
8
BLACK
6
CONTINUOUS
10
1.0629310236220473
20
-4.7263892913385828
11
1.0683037795275589
21
-4.7393603149606296
0
LINE
8
BLACK
6
CONTINUOUS
10
1.0683037795275589
20
-4.7393603149606296
11
1.0750950787401574
21
-4.751648188976378
0
LINE
8
BLACK
6
CONTINUOUS
10
1.0750950787401574
20
-4.751648188976378
11
1.0832194488188975
21
-4.7630983858267717
0
LINE
8
BLACK
6
CONTINUOUS
10
1.0832194488188975
20
-4.7630983858267717
11
1.0925747244094488
21
-4.773567007874016
0
LINE
8
BLACK
6
CONTINUOUS
10
1.0925747244094488
20
-4.773567007874016
11
1.1030433464566929
21
-4.7829222834645666
0
LINE
8
BLACK
6
CONTINUOUS
10
1.1030433464566929
20
-4.7829222834645666
11
1.1144935433070866
21
-4.7910466535433072
0
LINE
8
BLACK
6
CONTINUOUS
10
1.1144935433070866
20
-4.7910466535433072
11
1.1267814173228345
21
-4.7978379527559056
0
LINE
8
BLACK
6
CONTINUOUS
10
1.1267814173228345
20
-4.7978379527559056
11
1.1397524409448818
21
-4.8032107086614175
0
LINE
8
BLACK
6
CONTINUOUS
10
1.1397524409448818
20
-4.8032107086614175
11
1.1532434251968504
21
-4.8070974015748034
0
LINE
8
BLACK
6
CONTINUOUS
10
1.1532434251968504
20
-4.8070974015748034
11
1.1670847637795276
21
-4.8094491338582674
0
LINE
8
BLACK
6
CONTINUOUS
10
1.1670847637795276
20
-4.8094491338582674
11
1.1811023622047243
21
-4.8102363385826772
0
LINE
8
BLACK
6
CONTINUOUS
10
1.1811023622047243
20
-4.8102363385826772
11
1.1951199606299212
21
-4.8094491338582674
0
LINE
8
BLACK
6
CONTINUOUS
10
1.1951199606299212
20
-4.8094491338582674
11
1.2089612992125984
21
-4.8070974015748034
0
LINE
8
BLACK
6
CONTINUOUS
10
1.2089612992125984
20
-4.8070974015748034
11
1.2224522834645668
21
-4.8032107086614175
0
LINE
8
BLACK
6
CONTINUOUS
10
1.2224522834645668
20
-4.8032107086614175
11
1.2354233070866141
21
-4.7978379527559056
0
LINE
8
BLACK
6
CONTINUOUS
10
1.2354233070866141
20
-4.7978379527559056
11
1.2477111811023622
21
-4.7910466535433072
0
LINE
8
BLACK
6
CONTINUOUS
10
1.2477111811023622
20
-4.7910466535433072
11
1.259161377952756
21
-4.7829222834645666
0
LINE
8
BLACK
6
CONTINUOUS
10
1.259161377952756
20
-4.7829222834645666
11
1.26963
21
-4.773567007874016
0
LINE
8
BLACK
6
CONTINUOUS
10
1.26963
20
-4.773567007874016
11
1.2789852755905511
21
-4.7630983858267717
0
LINE
8
BLACK
6
CONTINUOUS
10
1.2789852755905511
20
-4.7630983858267717
11
1.2871096456692912
21
-4.751648188976378
0
LINE
8
BLACK
6
CONTINUOUS
10
1.2871096456692912
20
-4.751648188976378
11
1.2939009448818897
21
-4.7393603149606296
0
LINE
8
BLACK
6
CONTINUOUS
10
1.2939009448818897
20
-4.7393603149606296
11
1.2992737007874016
21
-4.7263892913385828
0
LINE
8
BLACK
6
CONTINUOUS
10
1.2992737007874016
20
-4.7263892913385828
11
1.3031603937007874
21
-4.7128983070866139
0
LINE
8
BLACK
6
CONTINUOUS
10
1.3031603937007874
20
-4.7128983070866139
11
1.3055121259842519
21
-4.6990569685039372
0
LINE
8
BLACK
6
CONTINUOUS
10
1.3055121259842519
20
-4.6990569685039372
11
1.3062993307086614
21
-4.6850393700787398
0
LINE
8
BLACK
6
CONTINUOUS
10
1.3062993307086614
20
-4.6850393700787398
11
1.3055121259842519
21
-4.6710217716535434
0
LINE
8
BLACK
6
CONTINUOUS
10
1.3055121259842519
20
-4.6710217716535434
11
1.3031603937007874
21
-4.6571804330708657
0
LINE
8
BLACK
6
CONTINUOUS
10
1.3031603937007874
20
-4.6571804330708657
11
1.2992737007874016
21
-4.6436894488188978
0
LINE
8
BLACK
6
CONTINUOUS
10
1.2992737007874016
20
-4.6436894488188978
11
1.2939009448818897
21
-4.6307184251968501
0
LINE
8
BLACK
6
CONTINUOUS
10
1.2939009448818897
20
-4.6307184251968501
11
1.2871096456692912
21
-4.6184305511811026
0
LINE
8
BLACK
6
CONTINUOUS
10
1.2871096456692912
20
-4.6184305511811026
11
1.2789852755905511
21
-4.6069803543307088
0
LINE
8
BLACK
6
CONTINUOUS
10
1.2789852755905511
20
-4.6069803543307088
11
1.26963
21
-4.5965117322834645
0
LINE
8
BLACK
6
CONTINUOUS
10
1.26963
20
-4.5965117322834645
11
1.259161377952756
21
-4.5871564566929131
0
LINE
8
BLACK
6
CONTINUOUS
10
1.259161377952756
20
-4.5871564566929131
11
1.2477111811023622
21
-4.5790320866141734
0
LINE
8
BLACK
6
CONTINUOUS
10
1.2477111811023622
20
-4.5790320866141734
11
1.2354233070866141
21
-4.5722407874015749
0
LINE
8
BLACK
6
CONTINUOUS
10
1.2354233070866141
20
-4.5722407874015749
11
1.2224522834645668
21
-4.566868031496063
0
LINE
8
BLACK
6
CONTINUOUS
10
1.2224522834645668
20
-4.566868031496063
11
1.2089612992125984
21
-4.5629813385826772
0
LINE
8
BLACK
6
CONTINUOUS
10
1.2089612992125984
20
-4.5629813385826772
11
1.1951199606299212
21
-4.5606296062992122
0
LINE
8
BLACK
6
CONTINUOUS
10
1.1951199606299212
20
-4.5606296062992122
11
1.1811023622047243
21
-4.5598424015748034
0
LINE
8
BLACK
6
CONTINUOUS
10
1.1811023622047243
20
-4.5598424015748034
11
1.1670847637795276
21
-4.5606296062992122
0
LINE
8
BLACK
6
CONTINUOUS
10
1.1670847637795276
20
-4.5606296062992122
11
1.1532434251968504
21
-4.5629813385826772
0
LINE
8
BLACK
6
CONTINUOUS
10
1.1532434251968504
20
-4.5629813385826772
11
1.1397524409448818
21
-4.566868031496063
0
LINE
8
BLACK
6
CONTINUOUS
10
1.1397524409448818
20
-4.566868031496063
11
1.1267814173228345
21
-4.5722407874015749
0
LINE
8
BLACK
6
CONTINUOUS
10
1.1267814173228345
20
-4.5722407874015749
11
1.1144935433070866
21
-4.5790320866141734
0
LINE
8
BLACK
6
CONTINUOUS
10
1.1144935433070866
20
-4.5790320866141734
11
1.1030433464566929
21
-4.5871564566929131
0
LINE
8
BLACK
6
CONTINUOUS
10
1.1030433464566929
20
-4.5871564566929131
11
1.0925747244094488
21
-4.5965117322834645
0
LINE
8
BLACK
6
CONTINUOUS
10
1.0925747244094488
20
-4.5965117322834645
11
1.0832194488188975
21
-4.6069803543307088
0
LINE
8
BLACK
6
CONTINUOUS
10
1.0832194488188975
20
-4.6069803543307088
11
1.0750950787401574
21
-4.6184305511811026
0
LINE
8
BLACK
6
CONTINUOUS
10
1.0750950787401574
20
-4.6184305511811026
11
1.0683037795275589
21
-4.6307184251968501
0
LINE
8
BLACK
6
CONTINUOUS
10
1.0683037795275589
20
-4.6307184251968501
11
1.0629310236220473
21
-4.6436894488188978
0
LINE
8
BLACK
6
CONTINUOUS
10
1.0629310236220473
20
-4.6436894488188978
11
1.0590443307086614
21
-4.6571804330708657
0
LINE
8
BLACK
6
CONTINUOUS
10
1.0590443307086614
20
-4.6571804330708657
11
1.0566925984251969
21
-4.6710217716535434
0
LINE
8
BLACK
6
CONTINUOUS
10
1.0566925984251969
20
-4.6710217716535434
11
1.0559053937007874
21
-4.6850393700787398
0
LINE
8
BLACK
6
CONTINUOUS
10
1.0559053937007874
20
-4.6850393700787398
11
1.0566925984251969
21
-4.6990569685039372
0
LINE
8
BLACK
6
CONTINUOUS
10
4.1480742125984253
20
-4.5588692125984247
11
4.1621114173228344
21
-4.561254212598425
0
LINE
8
BLACK
6
CONTINUOUS
10
4.1621114173228344
20
-4.561254212598425
11
4.1757933070866144
21
-4.5651959055118105
0
LINE
8
BLACK
6
CONTINUOUS
10
4.1757933070866144
20
-4.5651959055118105
11
4.1889478346456688
21
-4.5706446850393698
0
LINE
8
BLACK
6
CONTINUOUS
10
4.1889478346456688
20
-4.5706446850393698
11
4.2014095669291338
21
-4.5775320472440946
0
LINE
8
BLACK
6
CONTINUOUS
10
4.2014095669291338
20
-4.5775320472440946
11
4.2130218503937007
21
-4.5857713779527556
0
LINE
8
BLACK
6
CONTINUOUS
10
4.2130218503937007
20
-4.5857713779527556
11
4.2236385433070867
21
-4.5952590944881893
0
LINE
8
BLACK
6
CONTINUOUS
10
4.2236385433070867
20
-4.5952590944881893
11
4.2331262598425194
21
-4.6058757874015743
0
LINE
8
BLACK
6
CONTINUOUS
10
4.2331262598425194
20
-4.6058757874015743
11
4.2413655905511813
21
-4.6174880708661412
0
LINE
8
BLACK
6
CONTINUOUS
10
4.2413655905511813
20
-4.6174880708661412
11
4.2482529527559052
21
-4.6299498031496062
0
LINE
8
BLACK
6
CONTINUOUS
10
4.2482529527559052
20
-4.6299498031496062
11
4.2537017322834645
21
-4.6431043307086615
0
LINE
8
BLACK
6
CONTINUOUS
10
4.2537017322834645
20
-4.6431043307086615
11
4.25764342519685
21
-4.6567862204724406
0
LINE
8
BLACK
6
CONTINUOUS
10
4.25764342519685
20
-4.6567862204724406
11
4.2600284251968503
21
-4.6708234251968506
0
LINE
8
BLACK
6
CONTINUOUS
10
4.2600284251968503
20
-4.6708234251968506
11
4.2608267716535435
21
-4.6850393700787398
0
LINE
8
BLACK
6
CONTINUOUS
10
4.2608267716535435
20
-4.6850393700787398
11
4.2600284251968503
21
-4.69925531496063
0
LINE
8
BLACK
6
CONTINUOUS
10
4.2600284251968503
20
-4.69925531496063
11
4.25764342519685
21
-4.713292519685039
0
LINE
8
BLACK
6
CONTINUOUS
10
4.25764342519685
20
-4.713292519685039
11
4.2537017322834645
21
-4.7269744094488191
0
LINE
8
BLACK
6
CONTINUOUS
10
4.2537017322834645
20
-4.7269744094488191
11
4.2482529527559052
21
-4.7401289370078743
0
LINE
8
BLACK
6
CONTINUOUS
10
4.2482529527559052
20
-4.7401289370078743
11
4.2413655905511813
21
-4.7525906692913384
0
LINE
8
BLACK
6
CONTINUOUS
10
4.2413655905511813
20
-4.7525906692913384
11
4.2331262598425194
21
-4.7642029527559053
0
LINE
8
BLACK
6
CONTINUOUS
10
4.2331262598425194
20
-4.7642029527559053
11
4.2236385433070867
21
-4.7748196456692913
0
LINE
8
BLACK
6
CONTINUOUS
10
4.2236385433070867
20
-4.7748196456692913
11
4.2130218503937007
21
-4.7843073622047241
0
LINE
8
BLACK
6
CONTINUOUS
10
4.2130218503937007
20
-4.7843073622047241
11
4.2014095669291338
21
-4.792546692913386
0
LINE
8
BLACK
6
CONTINUOUS
10
4.2014095669291338
20
-4.792546692913386
11
4.1889478346456688
21
-4.7994340551181098
0
LINE
8
BLACK
6
CONTINUOUS
10
4.1889478346456688
20
-4.7994340551181098
11
4.1757933070866144
21
-4.8048828346456691
0
LINE
8
BLACK
6
CONTINUOUS
10
4.1757933070866144
20
-4.8048828346456691
11
4.1621114173228344
21
-4.8088245275590547
0
LINE
8
BLACK
6
CONTINUOUS
10
4.1621114173228344
20
-4.8088245275590547
11
4.1480742125984253
21
-4.811209527559055
0
LINE
8
BLACK
6
CONTINUOUS
10
4.1480742125984253
20
-4.811209527559055
11
4.1338582677165352
21
-4.8120078740157481
0
LINE
8
BLACK
6
CONTINUOUS
10
4.1338582677165352
20
-4.8120078740157481
11
4.1196423228346459
21
-4.811209527559055
0
LINE
8
BLACK
6
CONTINUOUS
10
4.1196423228346459
20
-4.811209527559055
11
4.105605118110236
21
-4.8088245275590547
0
LINE
8
BLACK
6
CONTINUOUS
10
4.105605118110236
20
-4.8088245275590547
11
4.0919232283464568
21
-4.8048828346456691
0
LINE
8
BLACK
6
CONTINUOUS
10
4.0919232283464568
20
-4.8048828346456691
11
4.0787687007874016
21
-4.7994340551181098
0
LINE
8
BLACK
6
CONTINUOUS
10
4.0787687007874016
20
-4.7994340551181098
11
4.0663069685039366
21
-4.792546692913386
0
LINE
8
BLACK
6
CONTINUOUS
10
4.0663069685039366
20
-4.792546692913386
11
4.0546946850393697
21
-4.7843073622047241
0
LINE
8
BLACK
6
CONTINUOUS
10
4.0546946850393697
20
-4.7843073622047241
11
4.0440779921259837
21
-4.7748196456692913
0
LINE
8
BLACK
6
CONTINUOUS
10
4.0440779921259837
20
-4.7748196456692913
11
4.0345902755905509
21
-4.7642029527559053
0
LINE
8
BLACK
6
CONTINUOUS
10
4.0345902755905509
20
-4.7642029527559053
11
4.0263509448818899
21
-4.7525906692913384
0
LINE
8
BLACK
6
CONTINUOUS
10
4.0263509448818899
20
-4.7525906692913384
11
4.0194635826771652
21
-4.7401289370078743
0
LINE
8
BLACK
6
CONTINUOUS
10
4.0194635826771652
20
-4.7401289370078743
11
4.0140148031496059
21
-4.7269744094488191
0
LINE
8
BLACK
6
CONTINUOUS
10
4.0140148031496059
20
-4.7269744094488191
11
4.0100731102362204
21
-4.713292519685039
0
LINE
8
BLACK
6
CONTINUOUS
10
4.0100731102362204
20
-4.713292519685039
11
4.0076881102362201
21
-4.69925531496063
0
LINE
8
BLACK
6
CONTINUOUS
10
4.0076881102362201
20
-4.69925531496063
11
4.0068897637795278
21
-4.6850393700787398
0
LINE
8
BLACK
6
CONTINUOUS
10
4.0068897637795278
20
-4.6850393700787398
11
4.0076881102362201
21
-4.6708234251968506
0
LINE
8
BLACK
6
CONTINUOUS
10
4.0076881102362201
20
-4.6708234251968506
11
4.0100731102362204
21
-4.6567862204724406
0
LINE
8
BLACK
6
CONTINUOUS
10
4.0100731102362204
20
-4.6567862204724406
11
4.0140148031496059
21
-4.6431043307086615
0
LINE
8
BLACK
6
CONTINUOUS
10
4.0140148031496059
20
-4.6431043307086615
11
4.0194635826771652
21
-4.6299498031496062
0
LINE
8
BLACK
6
CONTINUOUS
10
4.0194635826771652
20
-4.6299498031496062
11
4.0263509448818899
21
-4.6174880708661412
0
LINE
8
BLACK
6
CONTINUOUS
10
4.0263509448818899
20
-4.6174880708661412
11
4.0345902755905509
21
-4.6058757874015743
0
LINE
8
BLACK
6
CONTINUOUS
10
4.0345902755905509
20
-4.6058757874015743
11
4.0440779921259837
21
-4.5952590944881893
0
LINE
8
BLACK
6
CONTINUOUS
10
4.0440779921259837
20
-4.5952590944881893
11
4.0546946850393697
21
-4.5857713779527556
0
LINE
8
BLACK
6
CONTINUOUS
10
4.0546946850393697
20
-4.5857713779527556
11
4.0663069685039366
21
-4.5775320472440946
0
LINE
8
BLACK
6
CONTINUOUS
10
4.0663069685039366
20
-4.5775320472440946
11
4.0787687007874016
21
-4.5706446850393698
0
LINE
8
BLACK
6
CONTINUOUS
10
4.0787687007874016
20
-4.5706446850393698
11
4.0919232283464568
21
-4.5651959055118105
0
LINE
8
BLACK
6
CONTINUOUS
10
4.0919232283464568
20
-4.5651959055118105
11
4.105605118110236
21
-4.561254212598425
0
LINE
8
BLACK
6
CONTINUOUS
10
4.105605118110236
20
-4.561254212598425
11
4.1196423228346459
21
-4.5588692125984247
0
LINE
8
BLACK
6
CONTINUOUS
10
4.1196423228346459
20
-4.5588692125984247
11
4.1338582677165352
21
-4.5580708661417324
0
LINE
8
BLACK
6
CONTINUOUS
10
4.1338582677165352
20
-4.5580708661417324
11
4.1480742125984253
21
-4.5588692125984247
0
LINE
8
BLACK
6
CONTINUOUS
10
4.0094485039370076
20
-4.6990569685039372
11
4.0118002362204725
21
-4.7128983070866139
0
LINE
8
BLACK
6
CONTINUOUS
10
4.0118002362204725
20
-4.7128983070866139
11
4.0156869291338584
21
-4.7263892913385828
0
LINE
8
BLACK
6
CONTINUOUS
10
4.0156869291338584
20
-4.7263892913385828
11
4.0210596850393703
21
-4.7393603149606296
0
LINE
8
BLACK
6
CONTINUOUS
10
4.0210596850393703
20
-4.7393603149606296
11
4.0278509842519687
21
-4.751648188976378
0
LINE
8
BLACK
6
CONTINUOUS
10
4.0278509842519687
20
-4.751648188976378
11
4.0359753543307084
21
-4.7630983858267717
0
LINE
8
BLACK
6
CONTINUOUS
10
4.0359753543307084
20
-4.7630983858267717
11
4.0453306299212599
21
-4.773567007874016
0
LINE
8
BLACK
6
CONTINUOUS
10
4.0453306299212599
20
-4.773567007874016
11
4.0557992519685042
21
-4.7829222834645666
0
LINE
8
BLACK
6
CONTINUOUS
10
4.0557992519685042
20
-4.7829222834645666
11
4.0672494488188979
21
-4.7910466535433072
0
LINE
8
BLACK
6
CONTINUOUS
10
4.0672494488188979
20
-4.7910466535433072
11
4.0795373228346454
21
-4.7978379527559056
0
LINE
8
BLACK
6
CONTINUOUS
10
4.0795373228346454
20
-4.7978379527559056
11
4.0925083464566931
21
-4.8032107086614175
0
LINE
8
BLACK
6
CONTINUOUS
10
4.0925083464566931
20
-4.8032107086614175
11
4.1059993307086611
21
-4.8070974015748034
0
LINE
8
BLACK
6
CONTINUOUS
10
4.1059993307086611
20
-4.8070974015748034
11
4.1198406692913387
21
-4.8094491338582674
0
LINE
8
BLACK
6
CONTINUOUS
10
4.1198406692913387
20
-4.8094491338582674
11
4.1338582677165352
21
-4.8102363385826772
0
LINE
8
BLACK
6
CONTINUOUS
10
4.1338582677165352
20
-4.8102363385826772
11
4.1478758661417325
21
-4.8094491338582674
0
LINE
8
BLACK
6
CONTINUOUS
10
4.1478758661417325
20
-4.8094491338582674
11
4.1617172047244093
21
-4.8070974015748034
0
LINE
8
BLACK
6
CONTINUOUS
10
4.1617172047244093
20
-4.8070974015748034
11
4.1752081889763781
21
-4.8032107086614175
0
LINE
8
BLACK
6
CONTINUOUS
10
4.1752081889763781
20
-4.8032107086614175
11
4.188179212598425
21
-4.7978379527559056
0
LINE
8
BLACK
6
CONTINUOUS
10
4.188179212598425
20
-4.7978379527559056
11
4.2004670866141733
21
-4.7910466535433072
0
LINE
8
BLACK
6
CONTINUOUS
10
4.2004670866141733
20
-4.7910466535433072
11
4.2119172834645671
21
-4.7829222834645666
0
LINE
8
BLACK
6
CONTINUOUS
10
4.2119172834645671
20
-4.7829222834645666
11
4.2223859055118114
21
-4.773567007874016
0
LINE
8
BLACK
6
CONTINUOUS
10
4.2223859055118114
20
-4.773567007874016
11
4.231741181102362
21
-4.7630983858267717
0
LINE
8
BLACK
6
CONTINUOUS
10
4.231741181102362
20
-4.7630983858267717
11
4.2398655511811025
21
-4.751648188976378
0
LINE
8
BLACK
6
CONTINUOUS
10
4.2398655511811025
20
-4.751648188976378
11
4.246656850393701
21
-4.7393603149606296
0
LINE
8
BLACK
6
CONTINUOUS
10
4.246656850393701
20
-4.7393603149606296
11
4.2520296062992129
21
-4.7263892913385828
0
LINE
8
BLACK
6
CONTINUOUS
10
4.2520296062992129
20
-4.7263892913385828
11
4.2559162992125987
21
-4.7128983070866139
0
LINE
8
BLACK
6
CONTINUOUS
10
4.2559162992125987
20
-4.7128983070866139
11
4.2582680314960628
21
-4.6990569685039372
0
LINE
8
BLACK
6
CONTINUOUS
10
4.2582680314960628
20
-4.6990569685039372
11
4.2590552362204726
21
-4.6850393700787398
0
LINE
8
BLACK
6
CONTINUOUS
10
4.2590552362204726
20
-4.6850393700787398
11
4.2582680314960628
21
-4.6710217716535434
0
LINE
8
BLACK
6
CONTINUOUS
10
4.2582680314960628
20
-4.6710217716535434
11
4.2559162992125987
21
-4.6571804330708657
0
LINE
8
BLACK
6
CONTINUOUS
10
4.2559162992125987
20
-4.6571804330708657
11
4.2520296062992129
21
-4.6436894488188978
0
LINE
8
BLACK
6
CONTINUOUS
10
4.2520296062992129
20
-4.6436894488188978
11
4.246656850393701
21
-4.6307184251968501
0
LINE
8
BLACK
6
CONTINUOUS
10
4.246656850393701
20
-4.6307184251968501
11
4.2398655511811025
21
-4.6184305511811026
0
LINE
8
BLACK
6
CONTINUOUS
10
4.2398655511811025
20
-4.6184305511811026
11
4.231741181102362
21
-4.6069803543307088
0
LINE
8
BLACK
6
CONTINUOUS
10
4.231741181102362
20
-4.6069803543307088
11
4.2223859055118114
21
-4.5965117322834645
0
LINE
8
BLACK
6
CONTINUOUS
10
4.2223859055118114
20
-4.5965117322834645
11
4.2119172834645671
21
-4.5871564566929131
0
LINE
8
BLACK
6
CONTINUOUS
10
4.2119172834645671
20
-4.5871564566929131
11
4.2004670866141733
21
-4.5790320866141734
0
LINE
8
BLACK
6
CONTINUOUS
10
4.2004670866141733
20
-4.5790320866141734
11
4.188179212598425
21
-4.5722407874015749
0
LINE
8
BLACK
6
CONTINUOUS
10
4.188179212598425
20
-4.5722407874015749
11
4.1752081889763781
21
-4.566868031496063
0
LINE
8
BLACK
6
CONTINUOUS
10
4.1752081889763781
20
-4.566868031496063
11
4.1617172047244093
21
-4.5629813385826772
0
LINE
8
BLACK
6
CONTINUOUS
10
4.1617172047244093
20
-4.5629813385826772
11
4.1478758661417325
21
-4.5606296062992122
0
LINE
8
BLACK
6
CONTINUOUS
10
4.1478758661417325
20
-4.5606296062992122
11
4.1338582677165352
21
-4.5598424015748034
0
LINE
8
BLACK
6
CONTINUOUS
10
4.1338582677165352
20
-4.5598424015748034
11
4.1198406692913387
21
-4.5606296062992122
0
LINE
8
BLACK
6
CONTINUOUS
10
4.1198406692913387
20
-4.5606296062992122
11
4.1059993307086611
21
-4.5629813385826772
0
LINE
8
BLACK
6
CONTINUOUS
10
4.1059993307086611
20
-4.5629813385826772
11
4.0925083464566931
21
-4.566868031496063
0
LINE
8
BLACK
6
CONTINUOUS
10
4.0925083464566931
20
-4.566868031496063
11
4.0795373228346454
21
-4.5722407874015749
0
LINE
8
BLACK
6
CONTINUOUS
10
4.0795373228346454
20
-4.5722407874015749
11
4.0672494488188979
21
-4.5790320866141734
0
LINE
8
BLACK
6
CONTINUOUS
10
4.0672494488188979
20
-4.5790320866141734
11
4.0557992519685042
21
-4.5871564566929131
0
LINE
8
BLACK
6
CONTINUOUS
10
4.0557992519685042
20
-4.5871564566929131
11
4.0453306299212599
21
-4.5965117322834645
0
LINE
8
BLACK
6
CONTINUOUS
10
4.0453306299212599
20
-4.5965117322834645
11
4.0359753543307084
21
-4.6069803543307088
0
LINE
8
BLACK
6
CONTINUOUS
10
4.0359753543307084
20
-4.6069803543307088
11
4.0278509842519687
21
-4.6184305511811026
0
LINE
8
BLACK
6
CONTINUOUS
10
4.0278509842519687
20
-4.6184305511811026
11
4.0210596850393703
21
-4.6307184251968501
0
LINE
8
BLACK
6
CONTINUOUS
10
4.0210596850393703
20
-4.6307184251968501
11
4.0156869291338584
21
-4.6436894488188978
0
LINE
8
BLACK
6
CONTINUOUS
10
4.0156869291338584
20
-4.6436894488188978
11
4.0118002362204725
21
-4.6571804330708657
0
LINE
8
BLACK
6
CONTINUOUS
10
4.0118002362204725
20
-4.6571804330708657
11
4.0094485039370076
21
-4.6710217716535434
0
LINE
8
BLACK
6
CONTINUOUS
10
4.0094485039370076
20
-4.6710217716535434
11
4.0086612992125987
21
-4.6850393700787398
0
LINE
8
BLACK
6
CONTINUOUS
10
4.0086612992125987
20
-4.6850393700787398
11
4.0094485039370076
21
-4.6990569685039372
0
LINE
8
BLACK
6
CONTINUOUS
10
7.1008301181102365
20
-4.5588692125984247
11
7.1148673228346455
21
-4.561254212598425
0
LINE
8
BLACK
6
CONTINUOUS
10
7.1148673228346455
20
-4.561254212598425
11
7.1285492125984247
21
-4.5651959055118105
0
LINE
8
BLACK
6
CONTINUOUS
10
7.1285492125984247
20
-4.5651959055118105
11
7.1417037401574799
21
-4.5706446850393698
0
LINE
8
BLACK
6
CONTINUOUS
10
7.1417037401574799
20
-4.5706446850393698
11
7.1541654724409449
21
-4.5775320472440946
0
LINE
8
BLACK
6
CONTINUOUS
10
7.1541654724409449
20
-4.5775320472440946
11
7.1657777559055118
21
-4.5857713779527556
0
LINE
8
BLACK
6
CONTINUOUS
10
7.1657777559055118
20
-4.5857713779527556
11
7.1763944488188978
21
-4.5952590944881893
0
LINE
8
BLACK
6
CONTINUOUS
10
7.1763944488188978
20
-4.5952590944881893
11
7.1858821653543306
21
-4.6058757874015743
0
LINE
8
BLACK
6
CONTINUOUS
10
7.1858821653543306
20
-4.6058757874015743
11
7.1941214960629916
21
-4.6174880708661412
0
LINE
8
BLACK
6
CONTINUOUS
10
7.1941214960629916
20
-4.6174880708661412
11
7.2010088582677163
21
-4.6299498031496062
0
LINE
8
BLACK
6
CONTINUOUS
10
7.2010088582677163
20
-4.6299498031496062
11
7.2064576377952756
21
-4.6431043307086615
0
LINE
8
BLACK
6
CONTINUOUS
10
7.2064576377952756
20
-4.6431043307086615
11
7.2103993307086611
21
-4.6567862204724406
0
LINE
8
BLACK
6
CONTINUOUS
10
7.2103993307086611
20
-4.6567862204724406
11
7.2127843307086614
21
-4.6708234251968506
0
LINE
8
BLACK
6
CONTINUOUS
10
7.2127843307086614
20
-4.6708234251968506
11
7.2135826771653537
21
-4.6850393700787398
0
LINE
8
BLACK
6
CONTINUOUS
10
7.2135826771653537
20
-4.6850393700787398
11
7.2127843307086614
21
-4.69925531496063
0
LINE
8
BLACK
6
CONTINUOUS
10
7.2127843307086614
20
-4.69925531496063
11
7.2103993307086611
21
-4.713292519685039
0
LINE
8
BLACK
6
CONTINUOUS
10
7.2103993307086611
20
-4.713292519685039
11
7.2064576377952756
21
-4.7269744094488191
0
LINE
8
BLACK
6
CONTINUOUS
10
7.2064576377952756
20
-4.7269744094488191
11
7.2010088582677163
21
-4.7401289370078743
0
LINE
8
BLACK
6
CONTINUOUS
10
7.2010088582677163
20
-4.7401289370078743
11
7.1941214960629916
21
-4.7525906692913384
0
LINE
8
BLACK
6
CONTINUOUS
10
7.1941214960629916
20
-4.7525906692913384
11
7.1858821653543306
21
-4.7642029527559053
0
LINE
8
BLACK
6
CONTINUOUS
10
7.1858821653543306
20
-4.7642029527559053
11
7.1763944488188978
21
-4.7748196456692913
0
LINE
8
BLACK
6
CONTINUOUS
10
7.1763944488188978
20
-4.7748196456692913
11
7.1657777559055118
21
-4.7843073622047241
0
LINE
8
BLACK
6
CONTINUOUS
10
7.1657777559055118
20
-4.7843073622047241
11
7.1541654724409449
21
-4.792546692913386
0
LINE
8
BLACK
6
CONTINUOUS
10
7.1541654724409449
20
-4.792546692913386
11
7.1417037401574799
21
-4.7994340551181098
0
LINE
8
BLACK
6
CONTINUOUS
10
7.1417037401574799
20
-4.7994340551181098
11
7.1285492125984247
21
-4.8048828346456691
0
LINE
8
BLACK
6
CONTINUOUS
10
7.1285492125984247
20
-4.8048828346456691
11
7.1148673228346455
21
-4.8088245275590547
0
LINE
8
BLACK
6
CONTINUOUS
10
7.1148673228346455
20
-4.8088245275590547
11
7.1008301181102365
21
-4.811209527559055
0
LINE
8
BLACK
6
CONTINUOUS
10
7.1008301181102365
20
-4.811209527559055
11
7.0866141732283463
21
-4.8120078740157481
0
LINE
8
BLACK
6
CONTINUOUS
10
7.0866141732283463
20
-4.8120078740157481
11
7.0723982283464562
21
-4.811209527559055
0
LINE
8
BLACK
6
CONTINUOUS
10
7.0723982283464562
20
-4.811209527559055
11
7.0583610236220471
21
-4.8088245275590547
0
LINE
8
BLACK
6
CONTINUOUS
10
7.0583610236220471
20
-4.8088245275590547
11
7.0446791338582679
21
-4.8048828346456691
0
LINE
8
BLACK
6
CONTINUOUS
10
7.0446791338582679
20
-4.8048828346456691
11
7.0315246062992127
21
-4.7994340551181098
0
LINE
8
BLACK
6
CONTINUOUS
10
7.0315246062992127
20
-4.7994340551181098
11
7.0190628740157477
21
-4.792546692913386
0
LINE
8
BLACK
6
CONTINUOUS
10
7.0190628740157477
20
-4.792546692913386
11
7.0074505905511808
21
-4.7843073622047241
0
LINE
8
BLACK
6
CONTINUOUS
10
7.0074505905511808
20
-4.7843073622047241
11
6.9968338976377948
21
-4.7748196456692913
0
LINE
8
BLACK
6
CONTINUOUS
10
6.9968338976377948
20
-4.7748196456692913
11
6.9873461811023621
21
-4.7642029527559053
0
LINE
8
BLACK
6
CONTINUOUS
10
6.9873461811023621
20
-4.7642029527559053
11
6.979106850393701
21
-4.7525906692913384
0
LINE
8
BLACK
6
CONTINUOUS
10
6.979106850393701
20
-4.7525906692913384
11
6.9722194881889763
21
-4.7401289370078743
0
LINE
8
BLACK
6
CONTINUOUS
10
6.9722194881889763
20
-4.7401289370078743
11
6.966770708661417
21
-4.7269744094488191
0
LINE
8
BLACK
6
CONTINUOUS
10
6.966770708661417
20
-4.7269744094488191
11
6.9628290157480315
21
-4.713292519685039
0
LINE
8
BLACK
6
CONTINUOUS
10
6.9628290157480315
20
-4.713292519685039
11
6.9604440157480312
21
-4.69925531496063
0
LINE
8
BLACK
6
CONTINUOUS
10
6.9604440157480312
20
-4.69925531496063
11
6.959645669291338
21
-4.6850393700787398
0
LINE
8
BLACK
6
CONTINUOUS
10
6.959645669291338
20
-4.6850393700787398
11
6.9604440157480312
21
-4.6708234251968506
0
LINE
8
BLACK
6
CONTINUOUS
10
6.9604440157480312
20
-4.6708234251968506
11
6.9628290157480315
21
-4.6567862204724406
0
LINE
8
BLACK
6
CONTINUOUS
10
6.9628290157480315
20
-4.6567862204724406
11
6.966770708661417
21
-4.6431043307086615
0
LINE
8
BLACK
6
CONTINUOUS
10
6.966770708661417
20
-4.6431043307086615
11
6.9722194881889763
21
-4.6299498031496062
0
LINE
8
BLACK
6
CONTINUOUS
10
6.9722194881889763
20
-4.6299498031496062
11
6.979106850393701
21
-4.6174880708661412
0
LINE
8
BLACK
6
CONTINUOUS
10
6.979106850393701
20
-4.6174880708661412
11
6.9873461811023621
21
-4.6058757874015743
0
LINE
8
BLACK
6
CONTINUOUS
10
6.9873461811023621
20
-4.6058757874015743
11
6.9968338976377948
21
-4.5952590944881893
0
LINE
8
BLACK
6
CONTINUOUS
10
6.9968338976377948
20
-4.5952590944881893
11
7.0074505905511808
21
-4.5857713779527556
0
LINE
8
BLACK
6
CONTINUOUS
10
7.0074505905511808
20
-4.5857713779527556
11
7.0190628740157477
21
-4.5775320472440946
0
LINE
8
BLACK
6
CONTINUOUS
10
7.0190628740157477
20
-4.5775320472440946
11
7.0315246062992127
21
-4.5706446850393698
0
LINE
8
BLACK
6
CONTINUOUS
10
7.0315246062992127
20
-4.5706446850393698
11
7.0446791338582679
21
-4.5651959055118105
0
LINE
8
BLACK
6
CONTINUOUS
10
7.0446791338582679
20
-4.5651959055118105
11
7.0583610236220471
21
-4.561254212598425
0
LINE
8
BLACK
6
CONTINUOUS
10
7.0583610236220471
20
-4.561254212598425
11
7.0723982283464562
21
-4.5588692125984247
0
LINE
8
BLACK
6
CONTINUOUS
10
7.0723982283464562
20
-4.5588692125984247
11
7.0866141732283463
21
-4.5580708661417324
0
LINE
8
BLACK
6
CONTINUOUS
10
7.0866141732283463
20
-4.5580708661417324
11
7.1008301181102365
21
-4.5588692125984247
0
LINE
8
BLACK
6
CONTINUOUS
10
6.9622044094488187
20
-4.6990569685039372
11
6.9645561417322837
21
-4.7128983070866139
0
LINE
8
BLACK
6
CONTINUOUS
10
6.9645561417322837
20
-4.7128983070866139
11
6.9684428346456695
21
-4.7263892913385828
0
LINE
8
BLACK
6
CONTINUOUS
10
6.9684428346456695
20
-4.7263892913385828
11
6.9738155905511814
21
-4.7393603149606296
0
LINE
8
BLACK
6
CONTINUOUS
10
6.9738155905511814
20
-4.7393603149606296
11
6.980606889763779
21
-4.751648188976378
0
LINE
8
BLACK
6
CONTINUOUS
10
6.980606889763779
20
-4.751648188976378
11
6.9887312598425195
21
-4.7630983858267717
0
LINE
8
BLACK
6
CONTINUOUS
10
6.9887312598425195
20
-4.7630983858267717
11
6.998086535433071
21
-4.773567007874016
0
LINE
8
BLACK
6
CONTINUOUS
10
6.998086535433071
20
-4.773567007874016
11
7.0085551574803144
21
-4.7829222834645666
0
LINE
8
BLACK
6
CONTINUOUS
10
7.0085551574803144
20
-4.7829222834645666
11
7.0200053543307082
21
-4.7910466535433072
0
LINE
8
BLACK
6
CONTINUOUS
10
7.0200053543307082
20
-4.7910466535433072
11
7.0322932283464565
21
-4.7978379527559056
0
LINE
8
BLACK
6
CONTINUOUS
10
7.0322932283464565
20
-4.7978379527559056
11
7.0452642519685034
21
-4.8032107086614175
0
LINE
8
BLACK
6
CONTINUOUS
10
7.0452642519685034
20
-4.8032107086614175
11
7.0587552362204722
21
-4.8070974015748034
0
LINE
8
BLACK
6
CONTINUOUS
10
7.0587552362204722
20
-4.8070974015748034
11
7.0725965748031498
21
-4.8094491338582674
0
LINE
8
BLACK
6
CONTINUOUS
10
7.0725965748031498
20
-4.8094491338582674
11
7.0866141732283463
21
-4.8102363385826772
0
LINE
8
BLACK
6
CONTINUOUS
10
7.0866141732283463
20
-4.8102363385826772
11
7.1006317716535428
21
-4.8094491338582674
0
LINE
8
BLACK
6
CONTINUOUS
10
7.1006317716535428
20
-4.8094491338582674
11
7.1144731102362204
21
-4.8070974015748034
0
LINE
8
BLACK
6
CONTINUOUS
10
7.1144731102362204
20
-4.8070974015748034
11
7.1279640944881892
21
-4.8032107086614175
0
LINE
8
BLACK
6
CONTINUOUS
10
7.1279640944881892
20
-4.8032107086614175
11
7.1409351181102361
21
-4.7978379527559056
0
LINE
8
BLACK
6
CONTINUOUS
10
7.1409351181102361
20
-4.7978379527559056
11
7.1532229921259844
21
-4.7910466535433072
0
LINE
8
BLACK
6
CONTINUOUS
10
7.1532229921259844
20
-4.7910466535433072
11
7.1646731889763782
21
-4.7829222834645666
0
LINE
8
BLACK
6
CONTINUOUS
10
7.1646731889763782
20
-4.7829222834645666
11
7.1751418110236216
21
-4.773567007874016
0
LINE
8
BLACK
6
CONTINUOUS
10
7.1751418110236216
20
-4.773567007874016
11
7.1844970866141731
21
-4.7630983858267717
0
LINE
8
BLACK
6
CONTINUOUS
10
7.1844970866141731
20
-4.7630983858267717
11
7.1926214566929136
21
-4.751648188976378
0
LINE
8
BLACK
6
CONTINUOUS
10
7.1926214566929136
20
-4.751648188976378
11
7.1994127559055112
21
-4.7393603149606296
0
LINE
8
BLACK
6
CONTINUOUS
10
7.1994127559055112
20
-4.7393603149606296
11
7.2047855118110231
21
-4.7263892913385828
0
LINE
8
BLACK
6
CONTINUOUS
10
7.2047855118110231
20
-4.7263892913385828
11
7.2086722047244089
21
-4.7128983070866139
0
LINE
8
BLACK
6
CONTINUOUS
10
7.2086722047244089
20
-4.7128983070866139
11
7.2110239370078739
21
-4.6990569685039372
0
LINE
8
BLACK
6
CONTINUOUS
10
7.2110239370078739
20
-4.6990569685039372
11
7.2118111417322837
21
-4.6850393700787398
0
LINE
8
BLACK
6
CONTINUOUS
10
7.2118111417322837
20
-4.6850393700787398
11
7.2110239370078739
21
-4.6710217716535434
0
LINE
8
BLACK
6
CONTINUOUS
10
7.2110239370078739
20
-4.6710217716535434
11
7.2086722047244089
21
-4.6571804330708657
0
LINE
8
BLACK
6
CONTINUOUS
10
7.2086722047244089
20
-4.6571804330708657
11
7.2047855118110231
21
-4.6436894488188978
0
LINE
8
BLACK
6
CONTINUOUS
10
7.2047855118110231
20
-4.6436894488188978
11
7.1994127559055112
21
-4.6307184251968501
0
LINE
8
BLACK
6
CONTINUOUS
10
7.1994127559055112
20
-4.6307184251968501
11
7.1926214566929136
21
-4.6184305511811026
0
LINE
8
BLACK
6
CONTINUOUS
10
7.1926214566929136
20
-4.6184305511811026
11
7.1844970866141731
21
-4.6069803543307088
0
LINE
8
BLACK
6
CONTINUOUS
10
7.1844970866141731
20
-4.6069803543307088
11
7.1751418110236216
21
-4.5965117322834645
0
LINE
8
BLACK
6
CONTINUOUS
10
7.1751418110236216
20
-4.5965117322834645
11
7.1646731889763782
21
-4.5871564566929131
0
LINE
8
BLACK
6
CONTINUOUS
10
7.1646731889763782
20
-4.5871564566929131
11
7.1532229921259844
21
-4.5790320866141734
0
LINE
8
BLACK
6
CONTINUOUS
10
7.1532229921259844
20
-4.5790320866141734
11
7.1409351181102361
21
-4.5722407874015749
0
LINE
8
BLACK
6
CONTINUOUS
10
7.1409351181102361
20
-4.5722407874015749
11
7.1279640944881892
21
-4.566868031496063
0
LINE
8
BLACK
6
CONTINUOUS
10
7.1279640944881892
20
-4.566868031496063
11
7.1144731102362204
21
-4.5629813385826772
0
LINE
8
BLACK
6
CONTINUOUS
10
7.1144731102362204
20
-4.5629813385826772
11
7.1006317716535428
21
-4.5606296062992122
0
LINE
8
BLACK
6
CONTINUOUS
10
7.1006317716535428
20
-4.5606296062992122
11
7.0866141732283463
21
-4.5598424015748034
0
LINE
8
BLACK
6
CONTINUOUS
10
7.0866141732283463
20
-4.5598424015748034
11
7.0725965748031498
21
-4.5606296062992122
0
LINE
8
BLACK
6
CONTINUOUS
10
7.0725965748031498
20
-4.5606296062992122
11
7.0587552362204722
21
-4.5629813385826772
0
LINE
8
BLACK
6
CONTINUOUS
10
7.0587552362204722
20
-4.5629813385826772
11
7.0452642519685034
21
-4.566868031496063
0
LINE
8
BLACK
6
CONTINUOUS
10
7.0452642519685034
20
-4.566868031496063
11
7.0322932283464565
21
-4.5722407874015749
0
LINE
8
BLACK
6
CONTINUOUS
10
7.0322932283464565
20
-4.5722407874015749
11
7.0200053543307082
21
-4.5790320866141734
0
LINE
8
BLACK
6
CONTINUOUS
10
7.0200053543307082
20
-4.5790320866141734
11
7.0085551574803144
21
-4.5871564566929131
0
LINE
8
BLACK
6
CONTINUOUS
10
7.0085551574803144
20
-4.5871564566929131
11
6.998086535433071
21
-4.5965117322834645
0
LINE
8
BLACK
6
CONTINUOUS
10
6.998086535433071
20
-4.5965117322834645
11
6.9887312598425195
21
-4.6069803543307088
0
LINE
8
BLACK
6
CONTINUOUS
10
6.9887312598425195
20
-4.6069803543307088
11
6.980606889763779
21
-4.6184305511811026
0
LINE
8
BLACK
6
CONTINUOUS
10
6.980606889763779
20
-4.6184305511811026
11
6.9738155905511814
21
-4.6307184251968501
0
LINE
8
BLACK
6
CONTINUOUS
10
6.9738155905511814
20
-4.6307184251968501
11
6.9684428346456695
21
-4.6436894488188978
0
LINE
8
BLACK
6
CONTINUOUS
10
6.9684428346456695
20
-4.6436894488188978
11
6.9645561417322837
21
-4.6571804330708657
0
LINE
8
BLACK
6
CONTINUOUS
10
6.9645561417322837
20
-4.6571804330708657
11
6.9622044094488187
21
-4.6710217716535434
0
LINE
8
BLACK
6
CONTINUOUS
10
6.9622044094488187
20
-4.6710217716535434
11
6.9614172047244089
21
-4.6850393700787398
0
LINE
8
BLACK
6
CONTINUOUS
10
6.9614172047244089
20
-4.6850393700787398
11
6.9622044094488187
21
-4.6990569685039372
0
LINE
8
BLACK
6
CONTINUOUS
10
4.803919960629921
20
-2.6201772834645669
11
4.8044526377952756
21
-2.6207099606299211
0
LINE
8
BLACK
6
CONTINUOUS
10
4.8044526377952756
20
-2.6207099606299211
11
4.804527559055118
21
-2.6210866141732283
0
LINE
8
BLACK
6
CONTINUOUS
10
4.804527559055118
20
-2.6210866141732283
11
4.804527559055118
21
-4.6604566929133862
0
LINE
8
BLACK
6
CONTINUOUS
10
4.804527559055118
20
-4.6604566929133862
11
4.8044526377952756
21
-4.6608333464566929
0
LINE
8
BLACK
6
CONTINUOUS
10
4.8044526377952756
20
-4.6608333464566929
11
4.803919960629921
21
-4.6613660236220475
0
LINE
8
BLACK
6
CONTINUOUS
10
4.803919960629921
20
-4.6613660236220475
11
4.8035433070866143
21
-4.6614409448818899
0
LINE
8
BLACK
6
CONTINUOUS
10
4.8035433070866143
20
-4.6614409448818899
11
4.5633858267716532
21
-4.6614409448818899
0
LINE
8
BLACK
6
CONTINUOUS
10
4.5633858267716532
20
-4.6614409448818899
11
4.5630091732283464
21
-4.6613660236220475
0
LINE
8
BLACK
6
CONTINUOUS
10
4.5630091732283464
20
-4.6613660236220475
11
4.5624764960629918
21
-4.6608333464566929
0
LINE
8
BLACK
6
CONTINUOUS
10
4.5624764960629918
20
-4.6608333464566929
11
4.5624015748031495
21
-4.6604566929133862
0
LINE
8
BLACK
6
CONTINUOUS
10
4.5624015748031495
20
-4.6604566929133862
11
4.5624015748031495
21
-2.6210866141732283
0
LINE
8
BLACK
6
CONTINUOUS
10
4.5624015748031495
20
-2.6210866141732283
11
4.5624764960629918
21
-2.6207099606299211
0
LINE
8
BLACK
6
CONTINUOUS
10
4.5624764960629918
20
-2.6207099606299211
11
4.5630091732283464
21
-2.6201772834645669
0
LINE
8
BLACK
6
CONTINUOUS
10
4.5630091732283464
20
-2.6201772834645669
11
4.5633858267716532
21
-2.6201023622047241
0
LINE
8
BLACK
6
CONTINUOUS
10
4.5633858267716532
20
-2.6201023622047241
11
4.8035433070866143
21
-2.6201023622047241
0
LINE
8
BLACK
6
CONTINUOUS
10
4.8035433070866143
20
-2.6201023622047241
11
4.803919960629921
21
-2.6201772834645669
0
LINE
8
BLACK
6
CONTINUOUS
10
4.5643700787401578
20
-2.622070866141732
11
4.5643700787401578
21
-4.6594724409448816
0
LINE
8
BLACK
6
CONTINUOUS
10
4.5643700787401578
20
-4.6594724409448816
11
4.8025590551181105
21
-4.6594724409448816
0
LINE
8
BLACK
6
CONTINUOUS
10
4.8025590551181105
20
-4.6594724409448816
11
4.8025590551181105
21
-2.622070866141732
0
LINE
8
BLACK
6
CONTINUOUS
10
4.8025590551181105
20
-2.622070866141732
11
4.5643700787401578
21
-2.622070866141732
0
LINE
8
BLACK
6
CONTINUOUS
10
6.2332506692913388
20
-2.8749016929133857
11
6.2337833464566925
21
-2.8754343700787399
0
LINE
8
BLACK
6
CONTINUOUS
10
6.2337833464566925
20
-2.8754343700787399
11
6.2338582677165357
21
-2.8758110236220471
0
LINE
8
BLACK
6
CONTINUOUS
10
6.2338582677165357
20
-2.8758110236220471
11
6.2338582677165357
21
-3.2163622047244096
0
LINE
8
BLACK
6
CONTINUOUS
10
6.2338582677165357
20
-3.2163622047244096
11
6.2337833464566925
21
-3.2167388582677163
0
LINE
8
BLACK
6
CONTINUOUS
10
6.2337833464566925
20
-3.2167388582677163
11
6.2332506692913388
21
-3.217271535433071
0
LINE
8
BLACK
6
CONTINUOUS
10
6.2332506692913388
20
-3.217271535433071
11
6.2328740157480311
21
-3.2173464566929133
0
LINE
8
BLACK
6
CONTINUOUS
10
6.2328740157480311
20
-3.2173464566929133
11
5.9927165354330709
21
-3.2173464566929133
0
LINE
8
BLACK
6
CONTINUOUS
10
5.9927165354330709
20
-3.2173464566929133
11
5.9923398818897633
21
-3.217271535433071
0
LINE
8
BLACK
6
CONTINUOUS
10
5.9923398818897633
20
-3.217271535433071
11
5.9918072047244095
21
-3.2167388582677163
0
LINE
8
BLACK
6
CONTINUOUS
10
5.9918072047244095
20
-3.2167388582677163
11
5.9917322834645672
21
-3.2163622047244096
0
LINE
8
BLACK
6
CONTINUOUS
10
5.9917322834645672
20
-3.2163622047244096
11
5.9917322834645672
21
-2.8758110236220471
0
LINE
8
BLACK
6
CONTINUOUS
10
5.9917322834645672
20
-2.8758110236220471
11
5.9918072047244095
21
-2.8754343700787399
0
LINE
8
BLACK
6
CONTINUOUS
10
5.9918072047244095
20
-2.8754343700787399
11
5.9923398818897633
21
-2.8749016929133857
0
LINE
8
BLACK
6
CONTINUOUS
10
5.9923398818897633
20
-2.8749016929133857
11
5.9927165354330709
21
-2.8748267716535434
0
LINE
8
BLACK
6
CONTINUOUS
10
5.9927165354330709
20
-2.8748267716535434
11
6.2328740157480311
21
-2.8748267716535434
0
LINE
8
BLACK
6
CONTINUOUS
10
6.2328740157480311
20
-2.8748267716535434
11
6.2332506692913388
21
-2.8749016929133857
0
LINE
8
BLACK
6
CONTINUOUS
10
5.9937007874015746
20
-2.8767952755905513
11
5.9937007874015746
21
-3.2153779527559054
0
LINE
8
BLACK
6
CONTINUOUS
10
5.9937007874015746
20
-3.2153779527559054
11
6.2318897637795274
21
-3.2153779527559054
0
LINE
8
BLACK
6
CONTINUOUS
10
6.2318897637795274
20
-3.2153779527559054
11
6.2318897637795274
21
-2.8767952755905513
0
LINE
8
BLACK
6
CONTINUOUS
10
6.2318897637795274
20
-2.8767952755905513
11
5.9937007874015746
21
-2.8767952755905513
0
LINE
8
BLACK
6
CONTINUOUS
10
1.1953183070866142
20
-2.5116251181102363
11
1.2093555118110235
21
-2.5140101181102361
0
LINE
8
BLACK
6
CONTINUOUS
10
1.2093555118110235
20
-2.5140101181102361
11
1.2230374015748031
21
-2.5179518110236221
0
LINE
8
BLACK
6
CONTINUOUS
10
1.2230374015748031
20
-2.5179518110236221
11
1.2361919291338583
21
-2.5234005905511809
0
LINE
8
BLACK
6
CONTINUOUS
10
1.2361919291338583
20
-2.5234005905511809
11
1.2486536614173227
21
-2.5302879527559052
0
LINE
8
BLACK
6
CONTINUOUS
10
1.2486536614173227
20
-2.5302879527559052
11
1.2602659448818898
21
-2.5385272834645667
0
LINE
8
BLACK
6
CONTINUOUS
10
1.2602659448818898
20
-2.5385272834645667
11
1.2708826377952755
21
-2.5480149999999999
0
LINE
8
BLACK
6
CONTINUOUS
10
1.2708826377952755
20
-2.5480149999999999
11
1.2803703543307086
21
-2.5586316929133859
0
LINE
8
BLACK
6
CONTINUOUS
10
1.2803703543307086
20
-2.5586316929133859
11
1.28860968503937
21
-2.5702439763779528
0
LINE
8
BLACK
6
CONTINUOUS
10
1.28860968503937
20
-2.5702439763779528
11
1.2954970472440945
21
-2.5827057086614174
0
LINE
8
BLACK
6
CONTINUOUS
10
1.2954970472440945
20
-2.5827057086614174
11
1.3009458267716536
21
-2.5958602362204726
0
LINE
8
BLACK
6
CONTINUOUS
10
1.3009458267716536
20
-2.5958602362204726
11
1.3048875196850394
21
-2.6095421259842517
0
LINE
8
BLACK
6
CONTINUOUS
10
1.3048875196850394
20
-2.6095421259842517
11
1.3072725196850394
21
-2.6235793307086612
0
LINE
8
BLACK
6
CONTINUOUS
10
1.3072725196850394
20
-2.6235793307086612
11
1.3080708661417322
21
-2.6377952755905509
0
LINE
8
BLACK
6
CONTINUOUS
10
1.3080708661417322
20
-2.6377952755905509
11
1.3072725196850394
21
-2.6520112204724411
0
LINE
8
BLACK
6
CONTINUOUS
10
1.3072725196850394
20
-2.6520112204724411
11
1.3048875196850394
21
-2.6660484251968501
0
LINE
8
BLACK
6
CONTINUOUS
10
1.3048875196850394
20
-2.6660484251968501
11
1.3009458267716536
21
-2.6797303149606297
0
LINE
8
BLACK
6
CONTINUOUS
10
1.3009458267716536
20
-2.6797303149606297
11
1.2954970472440945
21
-2.692884842519685
0
LINE
8
BLACK
6
CONTINUOUS
10
1.2954970472440945
20
-2.692884842519685
11
1.28860968503937
21
-2.7053465748031496
0
LINE
8
BLACK
6
CONTINUOUS
10
1.28860968503937
20
-2.7053465748031496
11
1.2803703543307086
21
-2.7169588582677164
0
LINE
8
BLACK
6
CONTINUOUS
10
1.2803703543307086
20
-2.7169588582677164
11
1.2708826377952755
21
-2.7275755511811024
0
LINE
8
BLACK
6
CONTINUOUS
10
1.2708826377952755
20
-2.7275755511811024
11
1.2602659448818898
21
-2.7370632677165352
0
LINE
8
BLACK
6
CONTINUOUS
10
1.2602659448818898
20
-2.7370632677165352
11
1.2486536614173227
21
-2.7453025984251966
0
LINE
8
BLACK
6
CONTINUOUS
10
1.2486536614173227
20
-2.7453025984251966
11
1.2361919291338583
21
-2.7521899606299214
0
LINE
8
BLACK
6
CONTINUOUS
10
1.2361919291338583
20
-2.7521899606299214
11
1.2230374015748031
21
-2.7576387401574802
0
LINE
8
BLACK
6
CONTINUOUS
10
1.2230374015748031
20
-2.7576387401574802
11
1.2093555118110235
21
-2.7615804330708662
0
LINE
8
BLACK
6
CONTINUOUS
10
1.2093555118110235
20
-2.7615804330708662
11
1.1953183070866142
21
-2.7639654330708661
0
LINE
8
BLACK
6
CONTINUOUS
10
1.1953183070866142
20
-2.7639654330708661
11
1.1811023622047243
21
-2.7647637795275588
0
LINE
8
BLACK
6
CONTINUOUS
10
1.1811023622047243
20
-2.7647637795275588
11
1.1668864173228346
21
-2.7639654330708661
0
LINE
8
BLACK
6
CONTINUOUS
10
1.1668864173228346
20
-2.7639654330708661
11
1.1528492125984251
21
-2.7615804330708662
0
LINE
8
BLACK
6
CONTINUOUS
10
1.1528492125984251
20
-2.7615804330708662
11
1.1391673228346457
21
-2.7576387401574802
0
LINE
8
BLACK
6
CONTINUOUS
10
1.1391673228346457
20
-2.7576387401574802
11
1.1260127952755905
21
-2.7521899606299214
0
LINE
8
BLACK
6
CONTINUOUS
10
1.1260127952755905
20
-2.7521899606299214
11
1.1135510629921259
21
-2.7453025984251966
0
LINE
8
BLACK
6
CONTINUOUS
10
1.1135510629921259
20
-2.7453025984251966
11
1.101938779527559
21
-2.7370632677165352
0
LINE
8
BLACK
6
CONTINUOUS
10
1.101938779527559
20
-2.7370632677165352
11
1.0913220866141733
21
-2.7275755511811024
0
LINE
8
BLACK
6
CONTINUOUS
10
1.0913220866141733
20
-2.7275755511811024
11
1.0818343700787401
21
-2.7169588582677164
0
LINE
8
BLACK
6
CONTINUOUS
10
1.0818343700787401
20
-2.7169588582677164
11
1.0735950393700786
21
-2.7053465748031496
0
LINE
8
BLACK
6
CONTINUOUS
10
1.0735950393700786
20
-2.7053465748031496
11
1.0667076771653543
21
-2.692884842519685
0
LINE
8
BLACK
6
CONTINUOUS
10
1.0667076771653543
20
-2.692884842519685
11
1.0612588976377952
21
-2.6797303149606297
0
LINE
8
BLACK
6
CONTINUOUS
10
1.0612588976377952
20
-2.6797303149606297
11
1.0573172047244095
21
-2.6660484251968501
0
LINE
8
BLACK
6
CONTINUOUS
10
1.0573172047244095
20
-2.6660484251968501
11
1.0549322047244094
21
-2.6520112204724411
0
LINE
8
BLACK
6
CONTINUOUS
10
1.0549322047244094
20
-2.6520112204724411
11
1.0541338582677164
21
-2.6377952755905509
0
LINE
8
BLACK
6
CONTINUOUS
10
1.0541338582677164
20
-2.6377952755905509
11
1.0549322047244094
21
-2.6235793307086612
0
LINE
8
BLACK
6
CONTINUOUS
10
1.0549322047244094
20
-2.6235793307086612
11
1.0573172047244095
21
-2.6095421259842517
0
LINE
8
BLACK
6
CONTINUOUS
10
1.0573172047244095
20
-2.6095421259842517
11
1.0612588976377952
21
-2.5958602362204726
0
LINE
8
BLACK
6
CONTINUOUS
10
1.0612588976377952
20
-2.5958602362204726
11
1.0667076771653543
21
-2.5827057086614174
0
LINE
8
BLACK
6
CONTINUOUS
10
1.0667076771653543
20
-2.5827057086614174
11
1.0735950393700786
21
-2.5702439763779528
0
LINE
8
BLACK
6
CONTINUOUS
10
1.0735950393700786
20
-2.5702439763779528
11
1.0818343700787401
21
-2.5586316929133859
0
LINE
8
BLACK
6
CONTINUOUS
10
1.0818343700787401
20
-2.5586316929133859
11
1.0913220866141733
21
-2.5480149999999999
0
LINE
8
BLACK
6
CONTINUOUS
10
1.0913220866141733
20
-2.5480149999999999
11
1.101938779527559
21
-2.5385272834645667
0
LINE
8
BLACK
6
CONTINUOUS
10
1.101938779527559
20
-2.5385272834645667
11
1.1135510629921259
21
-2.5302879527559052
0
LINE
8
BLACK
6
CONTINUOUS
10
1.1135510629921259
20
-2.5302879527559052
11
1.1260127952755905
21
-2.5234005905511809
0
LINE
8
BLACK
6
CONTINUOUS
10
1.1260127952755905
20
-2.5234005905511809
11
1.1391673228346457
21
-2.5179518110236221
0
LINE
8
BLACK
6
CONTINUOUS
10
1.1391673228346457
20
-2.5179518110236221
11
1.1528492125984251
21
-2.5140101181102361
0
LINE
8
BLACK
6
CONTINUOUS
10
1.1528492125984251
20
-2.5140101181102361
11
1.1668864173228346
21
-2.5116251181102363
0
LINE
8
BLACK
6
CONTINUOUS
10
1.1668864173228346
20
-2.5116251181102363
11
1.1811023622047243
21
-2.5108267716535431
0
LINE
8
BLACK
6
CONTINUOUS
10
1.1811023622047243
20
-2.5108267716535431
11
1.1953183070866142
21
-2.5116251181102363
0
LINE
8
BLACK
6
CONTINUOUS
10
1.0566925984251969
20
-2.6518128740157478
11
1.0590443307086614
21
-2.6656542125984251
0
LINE
8
BLACK
6
CONTINUOUS
10
1.0590443307086614
20
-2.6656542125984251
11
1.0629310236220473
21
-2.6791451968503934
0
LINE
8
BLACK
6
CONTINUOUS
10
1.0629310236220473
20
-2.6791451968503934
11
1.0683037795275589
21
-2.6921162204724407
0
LINE
8
BLACK
6
CONTINUOUS
10
1.0683037795275589
20
-2.6921162204724407
11
1.0750950787401574
21
-2.7044040944881891
0
LINE
8
BLACK
6
CONTINUOUS
10
1.0750950787401574
20
-2.7044040944881891
11
1.0832194488188975
21
-2.7158542913385828
0
LINE
8
BLACK
6
CONTINUOUS
10
1.0832194488188975
20
-2.7158542913385828
11
1.0925747244094488
21
-2.7263229133858267
0
LINE
8
BLACK
6
CONTINUOUS
10
1.0925747244094488
20
-2.7263229133858267
11
1.1030433464566929
21
-2.7356781889763777
0
LINE
8
BLACK
6
CONTINUOUS
10
1.1030433464566929
20
-2.7356781889763777
11
1.1144935433070866
21
-2.7438025590551178
0
LINE
8
BLACK
6
CONTINUOUS
10
1.1144935433070866
20
-2.7438025590551178
11
1.1267814173228345
21
-2.7505938582677163
0
LINE
8
BLACK
6
CONTINUOUS
10
1.1267814173228345
20
-2.7505938582677163
11
1.1397524409448818
21
-2.7559666141732282
0
LINE
8
BLACK
6
CONTINUOUS
10
1.1397524409448818
20
-2.7559666141732282
11
1.1532434251968504
21
-2.759853307086614
0
LINE
8
BLACK
6
CONTINUOUS
10
1.1532434251968504
20
-2.759853307086614
11
1.1670847637795276
21
-2.7622050393700786
0
LINE
8
BLACK
6
CONTINUOUS
10
1.1670847637795276
20
-2.7622050393700786
11
1.1811023622047243
21
-2.7629922440944883
0
LINE
8
BLACK
6
CONTINUOUS
10
1.1811023622047243
20
-2.7629922440944883
11
1.1951199606299212
21
-2.7622050393700786
0
LINE
8
BLACK
6
CONTINUOUS
10
1.1951199606299212
20
-2.7622050393700786
11
1.2089612992125984
21
-2.759853307086614
0
LINE
8
BLACK
6
CONTINUOUS
10
1.2089612992125984
20
-2.759853307086614
11
1.2224522834645668
21
-2.7559666141732282
0
LINE
8
BLACK
6
CONTINUOUS
10
1.2224522834645668
20
-2.7559666141732282
11
1.2354233070866141
21
-2.7505938582677163
0
LINE
8
BLACK
6
CONTINUOUS
10
1.2354233070866141
20
-2.7505938582677163
11
1.2477111811023622
21
-2.7438025590551178
0
LINE
8
BLACK
6
CONTINUOUS
10
1.2477111811023622
20
-2.7438025590551178
11
1.259161377952756
21
-2.7356781889763777
0
LINE
8
BLACK
6
CONTINUOUS
10
1.259161377952756
20
-2.7356781889763777
11
1.26963
21
-2.7263229133858267
0
LINE
8
BLACK
6
CONTINUOUS
10
1.26963
20
-2.7263229133858267
11
1.2789852755905511
21
-2.7158542913385828
0
LINE
8
BLACK
6
CONTINUOUS
10
1.2789852755905511
20
-2.7158542913385828
11
1.2871096456692912
21
-2.7044040944881891
0
LINE
8
BLACK
6
CONTINUOUS
10
1.2871096456692912
20
-2.7044040944881891
11
1.2939009448818897
21
-2.6921162204724407
0
LINE
8
BLACK
6
CONTINUOUS
10
1.2939009448818897
20
-2.6921162204724407
11
1.2992737007874016
21
-2.6791451968503934
0
LINE
8
BLACK
6
CONTINUOUS
10
1.2992737007874016
20
-2.6791451968503934
11
1.3031603937007874
21
-2.6656542125984251
0
LINE
8
BLACK
6
CONTINUOUS
10
1.3031603937007874
20
-2.6656542125984251
11
1.3055121259842519
21
-2.6518128740157478
0
LINE
8
BLACK
6
CONTINUOUS
10
1.3055121259842519
20
-2.6518128740157478
11
1.3062993307086614
21
-2.6377952755905509
0
LINE
8
BLACK
6
CONTINUOUS
10
1.3062993307086614
20
-2.6377952755905509
11
1.3055121259842519
21
-2.6237776771653545
0
LINE
8
BLACK
6
CONTINUOUS
10
1.3055121259842519
20
-2.6237776771653545
11
1.3031603937007874
21
-2.6099363385826773
0
LINE
8
BLACK
6
CONTINUOUS
10
1.3031603937007874
20
-2.6099363385826773
11
1.2992737007874016
21
-2.5964453543307084
0
LINE
8
BLACK
6
CONTINUOUS
10
1.2992737007874016
20
-2.5964453543307084
11
1.2939009448818897
21
-2.5834743307086612
0
LINE
8
BLACK
6
CONTINUOUS
10
1.2939009448818897
20
-2.5834743307086612
11
1.2871096456692912
21
-2.5711864566929132
0
LINE
8
BLACK
6
CONTINUOUS
10
1.2871096456692912
20
-2.5711864566929132
11
1.2789852755905511
21
-2.5597362598425195
0
LINE
8
BLACK
6
CONTINUOUS
10
1.2789852755905511
20
-2.5597362598425195
11
1.26963
21
-2.5492676377952757
0
LINE
8
BLACK
6
CONTINUOUS
10
1.26963
20
-2.5492676377952757
11
1.259161377952756
21
-2.5399123622047242
0
LINE
8
BLACK
6
CONTINUOUS
10
1.259161377952756
20
-2.5399123622047242
11
1.2477111811023622
21
-2.531787992125984
0
LINE
8
BLACK
6
CONTINUOUS
10
1.2477111811023622
20
-2.531787992125984
11
1.2354233070866141
21
-2.5249966929133856
0
LINE
8
BLACK
6
CONTINUOUS
10
1.2354233070866141
20
-2.5249966929133856
11
1.2224522834645668
21
-2.5196239370078741
0
LINE
8
BLACK
6
CONTINUOUS
10
1.2224522834645668
20
-2.5196239370078741
11
1.2089612992125984
21
-2.5157372440944883
0
LINE
8
BLACK
6
CONTINUOUS
10
1.2089612992125984
20
-2.5157372440944883
11
1.1951199606299212
21
-2.5133855118110238
0
LINE
8
BLACK
6
CONTINUOUS
10
1.1951199606299212
20
-2.5133855118110238
11
1.1811023622047243
21
-2.512598307086614
0
LINE
8
BLACK
6
CONTINUOUS
10
1.1811023622047243
20
-2.512598307086614
11
1.1670847637795276
21
-2.5133855118110238
0
LINE
8
BLACK
6
CONTINUOUS
10
1.1670847637795276
20
-2.5133855118110238
11
1.1532434251968504
21
-2.5157372440944883
0
LINE
8
BLACK
6
CONTINUOUS
10
1.1532434251968504
20
-2.5157372440944883
11
1.1397524409448818
21
-2.5196239370078741
0
LINE
8
BLACK
6
CONTINUOUS
10
1.1397524409448818
20
-2.5196239370078741
11
1.1267814173228345
21
-2.5249966929133856
0
LINE
8
BLACK
6
CONTINUOUS
10
1.1267814173228345
20
-2.5249966929133856
11
1.1144935433070866
21
-2.531787992125984
0
LINE
8
BLACK
6
CONTINUOUS
10
1.1144935433070866
20
-2.531787992125984
11
1.1030433464566929
21
-2.5399123622047242
0
LINE
8
BLACK
6
CONTINUOUS
10
1.1030433464566929
20
-2.5399123622047242
11
1.0925747244094488
21
-2.5492676377952757
0
LINE
8
BLACK
6
CONTINUOUS
10
1.0925747244094488
20
-2.5492676377952757
11
1.0832194488188975
21
-2.5597362598425195
0
LINE
8
BLACK
6
CONTINUOUS
10
1.0832194488188975
20
-2.5597362598425195
11
1.0750950787401574
21
-2.5711864566929132
0
LINE
8
BLACK
6
CONTINUOUS
10
1.0750950787401574
20
-2.5711864566929132
11
1.0683037795275589
21
-2.5834743307086612
0
LINE
8
BLACK
6
CONTINUOUS
10
1.0683037795275589
20
-2.5834743307086612
11
1.0629310236220473
21
-2.5964453543307084
0
LINE
8
BLACK
6
CONTINUOUS
10
1.0629310236220473
20
-2.5964453543307084
11
1.0590443307086614
21
-2.6099363385826773
0
LINE
8
BLACK
6
CONTINUOUS
10
1.0590443307086614
20
-2.6099363385826773
11
1.0566925984251969
21
-2.6237776771653545
0
LINE
8
BLACK
6
CONTINUOUS
10
1.0566925984251969
20
-2.6237776771653545
11
1.0559053937007874
21
-2.6377952755905509
0
LINE
8
BLACK
6
CONTINUOUS
10
1.0559053937007874
20
-2.6377952755905509
11
1.0566925984251969
21
-2.6518128740157478
0
LINE
8
BLACK
6
CONTINUOUS
10
4.1480742125984253
20
-2.5116251181102363
11
4.1621114173228344
21
-2.5140101181102361
0
LINE
8
BLACK
6
CONTINUOUS
10
4.1621114173228344
20
-2.5140101181102361
11
4.1757933070866144
21
-2.5179518110236221
0
LINE
8
BLACK
6
CONTINUOUS
10
4.1757933070866144
20
-2.5179518110236221
11
4.1889478346456688
21
-2.5234005905511809
0
LINE
8
BLACK
6
CONTINUOUS
10
4.1889478346456688
20
-2.5234005905511809
11
4.2014095669291338
21
-2.5302879527559052
0
LINE
8
BLACK
6
CONTINUOUS
10
4.2014095669291338
20
-2.5302879527559052
11
4.2130218503937007
21
-2.5385272834645667
0
LINE
8
BLACK
6
CONTINUOUS
10
4.2130218503937007
20
-2.5385272834645667
11
4.2236385433070867
21
-2.5480149999999999
0
LINE
8
BLACK
6
CONTINUOUS
10
4.2236385433070867
20
-2.5480149999999999
11
4.2331262598425194
21
-2.5586316929133859
0
LINE
8
BLACK
6
CONTINUOUS
10
4.2331262598425194
20
-2.5586316929133859
11
4.2413655905511813
21
-2.5702439763779528
0
LINE
8
BLACK
6
CONTINUOUS
10
4.2413655905511813
20
-2.5702439763779528
11
4.2482529527559052
21
-2.5827057086614174
0
LINE
8
BLACK
6
CONTINUOUS
10
4.2482529527559052
20
-2.5827057086614174
11
4.2537017322834645
21
-2.5958602362204726
0
LINE
8
BLACK
6
CONTINUOUS
10
4.2537017322834645
20
-2.5958602362204726
11
4.25764342519685
21
-2.6095421259842517
0
LINE
8
BLACK
6
CONTINUOUS
10
4.25764342519685
20
-2.6095421259842517
11
4.2600284251968503
21
-2.6235793307086612
0
LINE
8
BLACK
6
CONTINUOUS
10
4.2600284251968503
20
-2.6235793307086612
11
4.2608267716535435
21
-2.6377952755905509
0
LINE
8
BLACK
6
CONTINUOUS
10
4.2608267716535435
20
-2.6377952755905509
11
4.2600284251968503
21
-2.6520112204724411
0
LINE
8
BLACK
6
CONTINUOUS
10
4.2600284251968503
20
-2.6520112204724411
11
4.25764342519685
21
-2.6660484251968501
0
LINE
8
BLACK
6
CONTINUOUS
10
4.25764342519685
20
-2.6660484251968501
11
4.2537017322834645
21
-2.6797303149606297
0
LINE
8
BLACK
6
CONTINUOUS
10
4.2537017322834645
20
-2.6797303149606297
11
4.2482529527559052
21
-2.692884842519685
0
LINE
8
BLACK
6
CONTINUOUS
10
4.2482529527559052
20
-2.692884842519685
11
4.2413655905511813
21
-2.7053465748031496
0
LINE
8
BLACK
6
CONTINUOUS
10
4.2413655905511813
20
-2.7053465748031496
11
4.2331262598425194
21
-2.7169588582677164
0
LINE
8
BLACK
6
CONTINUOUS
10
4.2331262598425194
20
-2.7169588582677164
11
4.2236385433070867
21
-2.7275755511811024
0
LINE
8
BLACK
6
CONTINUOUS
10
4.2236385433070867
20
-2.7275755511811024
11
4.2130218503937007
21
-2.7370632677165352
0
LINE
8
BLACK
6
CONTINUOUS
10
4.2130218503937007
20
-2.7370632677165352
11
4.2014095669291338
21
-2.7453025984251966
0
LINE
8
BLACK
6
CONTINUOUS
10
4.2014095669291338
20
-2.7453025984251966
11
4.1889478346456688
21
-2.7521899606299214
0
LINE
8
BLACK
6
CONTINUOUS
10
4.1889478346456688
20
-2.7521899606299214
11
4.1757933070866144
21
-2.7576387401574802
0
LINE
8
BLACK
6
CONTINUOUS
10
4.1757933070866144
20
-2.7576387401574802
11
4.1621114173228344
21
-2.7615804330708662
0
LINE
8
BLACK
6
CONTINUOUS
10
4.1621114173228344
20
-2.7615804330708662
11
4.1480742125984253
21
-2.7639654330708661
0
LINE
8
BLACK
6
CONTINUOUS
10
4.1480742125984253
20
-2.7639654330708661
11
4.1338582677165352
21
-2.7647637795275588
0
LINE
8
BLACK
6
CONTINUOUS
10
4.1338582677165352
20
-2.7647637795275588
11
4.1196423228346459
21
-2.7639654330708661
0
LINE
8
BLACK
6
CONTINUOUS
10
4.1196423228346459
20
-2.7639654330708661
11
4.105605118110236
21
-2.7615804330708662
0
LINE
8
BLACK
6
CONTINUOUS
10
4.105605118110236
20
-2.7615804330708662
11
4.0919232283464568
21
-2.7576387401574802
0
LINE
8
BLACK
6
CONTINUOUS
10
4.0919232283464568
20
-2.7576387401574802
11
4.0787687007874016
21
-2.7521899606299214
0
LINE
8
BLACK
6
CONTINUOUS
10
4.0787687007874016
20
-2.7521899606299214
11
4.0663069685039366
21
-2.7453025984251966
0
LINE
8
BLACK
6
CONTINUOUS
10
4.0663069685039366
20
-2.7453025984251966
11
4.0546946850393697
21
-2.7370632677165352
0
LINE
8
BLACK
6
CONTINUOUS
10
4.0546946850393697
20
-2.7370632677165352
11
4.0440779921259837
21
-2.7275755511811024
0
LINE
8
BLACK
6
CONTINUOUS
10
4.0440779921259837
20
-2.7275755511811024
11
4.0345902755905509
21
-2.7169588582677164
0
LINE
8
BLACK
6
CONTINUOUS
10
4.0345902755905509
20
-2.7169588582677164
11
4.0263509448818899
21
-2.7053465748031496
0
LINE
8
BLACK
6
CONTINUOUS
10
4.0263509448818899
20
-2.7053465748031496
11
4.0194635826771652
21
-2.692884842519685
0
LINE
8
BLACK
6
CONTINUOUS
10
4.0194635826771652
20
-2.692884842519685
11
4.0140148031496059
21
-2.6797303149606297
0
LINE
8
BLACK
6
CONTINUOUS
10
4.0140148031496059
20
-2.6797303149606297
11
4.0100731102362204
21
-2.6660484251968501
0
LINE
8
BLACK
6
CONTINUOUS
10
4.0100731102362204
20
-2.6660484251968501
11
4.0076881102362201
21
-2.6520112204724411
0
LINE
8
BLACK
6
CONTINUOUS
10
4.0076881102362201
20
-2.6520112204724411
11
4.0068897637795278
21
-2.6377952755905509
0
LINE
8
BLACK
6
CONTINUOUS
10
4.0068897637795278
20
-2.6377952755905509
11
4.0076881102362201
21
-2.6235793307086612
0
LINE
8
BLACK
6
CONTINUOUS
10
4.0076881102362201
20
-2.6235793307086612
11
4.0100731102362204
21
-2.6095421259842517
0
LINE
8
BLACK
6
CONTINUOUS
10
4.0100731102362204
20
-2.6095421259842517
11
4.0140148031496059
21
-2.5958602362204726
0
LINE
8
BLACK
6
CONTINUOUS
10
4.0140148031496059
20
-2.5958602362204726
11
4.0194635826771652
21
-2.5827057086614174
0
LINE
8
BLACK
6
CONTINUOUS
10
4.0194635826771652
20
-2.5827057086614174
11
4.0263509448818899
21
-2.5702439763779528
0
LINE
8
BLACK
6
CONTINUOUS
10
4.0263509448818899
20
-2.5702439763779528
11
4.0345902755905509
21
-2.5586316929133859
0
LINE
8
BLACK
6
CONTINUOUS
10
4.0345902755905509
20
-2.5586316929133859
11
4.0440779921259837
21
-2.5480149999999999
0
LINE
8
BLACK
6
CONTINUOUS
10
4.0440779921259837
20
-2.5480149999999999
11
4.0546946850393697
21
-2.5385272834645667
0
LINE
8
BLACK
6
CONTINUOUS
10
4.0546946850393697
20
-2.5385272834645667
11
4.0663069685039366
21
-2.5302879527559052
0
LINE
8
BLACK
6
CONTINUOUS
10
4.0663069685039366
20
-2.5302879527559052
11
4.0787687007874016
21
-2.5234005905511809
0
LINE
8
BLACK
6
CONTINUOUS
10
4.0787687007874016
20
-2.5234005905511809
11
4.0919232283464568
21
-2.5179518110236221
0
LINE
8
BLACK
6
CONTINUOUS
10
4.0919232283464568
20
-2.5179518110236221
11
4.105605118110236
21
-2.5140101181102361
0
LINE
8
BLACK
6
CONTINUOUS
10
4.105605118110236
20
-2.5140101181102361
11
4.1196423228346459
21
-2.5116251181102363
0
LINE
8
BLACK
6
CONTINUOUS
10
4.1196423228346459
20
-2.5116251181102363
11
4.1338582677165352
21
-2.5108267716535431
0
LINE
8
BLACK
6
CONTINUOUS
10
4.1338582677165352
20
-2.5108267716535431
11
4.1480742125984253
21
-2.5116251181102363
0
LINE
8
BLACK
6
CONTINUOUS
10
4.0094485039370076
20
-2.6518128740157478
11
4.0118002362204725
21
-2.6656542125984251
0
LINE
8
BLACK
6
CONTINUOUS
10
4.0118002362204725
20
-2.6656542125984251
11
4.0156869291338584
21
-2.6791451968503934
0
LINE
8
BLACK
6
CONTINUOUS
10
4.0156869291338584
20
-2.6791451968503934
11
4.0210596850393703
21
-2.6921162204724407
0
LINE
8
BLACK
6
CONTINUOUS
10
4.0210596850393703
20
-2.6921162204724407
11
4.0278509842519687
21
-2.7044040944881891
0
LINE
8
BLACK
6
CONTINUOUS
10
4.0278509842519687
20
-2.7044040944881891
11
4.0359753543307084
21
-2.7158542913385828
0
LINE
8
BLACK
6
CONTINUOUS
10
4.0359753543307084
20
-2.7158542913385828
11
4.0453306299212599
21
-2.7263229133858267
0
LINE
8
BLACK
6
CONTINUOUS
10
4.0453306299212599
20
-2.7263229133858267
11
4.0557992519685042
21
-2.7356781889763777
0
LINE
8
BLACK
6
CONTINUOUS
10
4.0557992519685042
20
-2.7356781889763777
11
4.0672494488188979
21
-2.7438025590551178
0
LINE
8
BLACK
6
CONTINUOUS
10
4.0672494488188979
20
-2.7438025590551178
11
4.0795373228346454
21
-2.7505938582677163
0
LINE
8
BLACK
6
CONTINUOUS
10
4.0795373228346454
20
-2.7505938582677163
11
4.0925083464566931
21
-2.7559666141732282
0
LINE
8
BLACK
6
CONTINUOUS
10
4.0925083464566931
20
-2.7559666141732282
11
4.1059993307086611
21
-2.759853307086614
0
LINE
8
BLACK
6
CONTINUOUS
10
4.1059993307086611
20
-2.759853307086614
11
4.1198406692913387
21
-2.7622050393700786
0
LINE
8
BLACK
6
CONTINUOUS
10
4.1198406692913387
20
-2.7622050393700786
11
4.1338582677165352
21
-2.7629922440944883
0
LINE
8
BLACK
6
CONTINUOUS
10
4.1338582677165352
20
-2.7629922440944883
11
4.1478758661417325
21
-2.7622050393700786
0
LINE
8
BLACK
6
CONTINUOUS
10
4.1478758661417325
20
-2.7622050393700786
11
4.1617172047244093
21
-2.759853307086614
0
LINE
8
BLACK
6
CONTINUOUS
10
4.1617172047244093
20
-2.759853307086614
11
4.1752081889763781
21
-2.7559666141732282
0
LINE
8
BLACK
6
CONTINUOUS
10
4.1752081889763781
20
-2.7559666141732282
11
4.188179212598425
21
-2.7505938582677163
0
LINE
8
BLACK
6
CONTINUOUS
10
4.188179212598425
20
-2.7505938582677163
11
4.2004670866141733
21
-2.7438025590551178
0
LINE
8
BLACK
6
CONTINUOUS
10
4.2004670866141733
20
-2.7438025590551178
11
4.2119172834645671
21
-2.7356781889763777
0
LINE
8
BLACK
6
CONTINUOUS
10
4.2119172834645671
20
-2.7356781889763777
11
4.2223859055118114
21
-2.7263229133858267
0
LINE
8
BLACK
6
CONTINUOUS
10
4.2223859055118114
20
-2.7263229133858267
11
4.231741181102362
21
-2.7158542913385828
0
LINE
8
BLACK
6
CONTINUOUS
10
4.231741181102362
20
-2.7158542913385828
11
4.2398655511811025
21
-2.7044040944881891
0
LINE
8
BLACK
6
CONTINUOUS
10
4.2398655511811025
20
-2.7044040944881891
11
4.246656850393701
21
-2.6921162204724407
0
LINE
8
BLACK
6
CONTINUOUS
10
4.246656850393701
20
-2.6921162204724407
11
4.2520296062992129
21
-2.6791451968503934
0
LINE
8
BLACK
6
CONTINUOUS
10
4.2520296062992129
20
-2.6791451968503934
11
4.2559162992125987
21
-2.6656542125984251
0
LINE
8
BLACK
6
CONTINUOUS
10
4.2559162992125987
20
-2.6656542125984251
11
4.2582680314960628
21
-2.6518128740157478
0
LINE
8
BLACK
6
CONTINUOUS
10
4.2582680314960628
20
-2.6518128740157478
11
4.2590552362204726
21
-2.6377952755905509
0
LINE
8
BLACK
6
CONTINUOUS
10
4.2590552362204726
20
-2.6377952755905509
11
4.2582680314960628
21
-2.6237776771653545
0
LINE
8
BLACK
6
CONTINUOUS
10
4.2582680314960628
20
-2.6237776771653545
11
4.2559162992125987
21
-2.6099363385826773
0
LINE
8
BLACK
6
CONTINUOUS
10
4.2559162992125987
20
-2.6099363385826773
11
4.2520296062992129
21
-2.5964453543307084
0
LINE
8
BLACK
6
CONTINUOUS
10
4.2520296062992129
20
-2.5964453543307084
11
4.246656850393701
21
-2.5834743307086612
0
LINE
8
BLACK
6
CONTINUOUS
10
4.246656850393701
20
-2.5834743307086612
11
4.2398655511811025
21
-2.5711864566929132
0
LINE
8
BLACK
6
CONTINUOUS
10
4.2398655511811025
20
-2.5711864566929132
11
4.231741181102362
21
-2.5597362598425195
0
LINE
8
BLACK
6
CONTINUOUS
10
4.231741181102362
20
-2.5597362598425195
11
4.2223859055118114
21
-2.5492676377952757
0
LINE
8
BLACK
6
CONTINUOUS
10
4.2223859055118114
20
-2.5492676377952757
11
4.2119172834645671
21
-2.5399123622047242
0
LINE
8
BLACK
6
CONTINUOUS
10
4.2119172834645671
20
-2.5399123622047242
11
4.2004670866141733
21
-2.531787992125984
0
LINE
8
BLACK
6
CONTINUOUS
10
4.2004670866141733
20
-2.531787992125984
11
4.188179212598425
21
-2.5249966929133856
0
LINE
8
BLACK
6
CONTINUOUS
10
4.188179212598425
20
-2.5249966929133856
11
4.1752081889763781
21
-2.5196239370078741
0
LINE
8
BLACK
6
CONTINUOUS
10
4.1752081889763781
20
-2.5196239370078741
11
4.1617172047244093
21
-2.5157372440944883
0
LINE
8
BLACK
6
CONTINUOUS
10
4.1617172047244093
20
-2.5157372440944883
11
4.1478758661417325
21
-2.5133855118110238
0
LINE
8
BLACK
6
CONTINUOUS
10
4.1478758661417325
20
-2.5133855118110238
11
4.1338582677165352
21
-2.512598307086614
0
LINE
8
BLACK
6
CONTINUOUS
10
4.1338582677165352
20
-2.512598307086614
11
4.1198406692913387
21
-2.5133855118110238
0
LINE
8
BLACK
6
CONTINUOUS
10
4.1198406692913387
20
-2.5133855118110238
11
4.1059993307086611
21
-2.5157372440944883
0
LINE
8
BLACK
6
CONTINUOUS
10
4.1059993307086611
20
-2.5157372440944883
11
4.0925083464566931
21
-2.5196239370078741
0
LINE
8
BLACK
6
CONTINUOUS
10
4.0925083464566931
20
-2.5196239370078741
11
4.0795373228346454
21
-2.5249966929133856
0
LINE
8
BLACK
6
CONTINUOUS
10
4.0795373228346454
20
-2.5249966929133856
11
4.0672494488188979
21
-2.531787992125984
0
LINE
8
BLACK
6
CONTINUOUS
10
4.0672494488188979
20
-2.531787992125984
11
4.0557992519685042
21
-2.5399123622047242
0
LINE
8
BLACK
6
CONTINUOUS
10
4.0557992519685042
20
-2.5399123622047242
11
4.0453306299212599
21
-2.5492676377952757
0
LINE
8
BLACK
6
CONTINUOUS
10
4.0453306299212599
20
-2.5492676377952757
11
4.0359753543307084
21
-2.5597362598425195
0
LINE
8
BLACK
6
CONTINUOUS
10
4.0359753543307084
20
-2.5597362598425195
11
4.0278509842519687
21
-2.5711864566929132
0
LINE
8
BLACK
6
CONTINUOUS
10
4.0278509842519687
20
-2.5711864566929132
11
4.0210596850393703
21
-2.5834743307086612
0
LINE
8
BLACK
6
CONTINUOUS
10
4.0210596850393703
20
-2.5834743307086612
11
4.0156869291338584
21
-2.5964453543307084
0
LINE
8
BLACK
6
CONTINUOUS
10
4.0156869291338584
20
-2.5964453543307084
11
4.0118002362204725
21
-2.6099363385826773
0
LINE
8
BLACK
6
CONTINUOUS
10
4.0118002362204725
20
-2.6099363385826773
11
4.0094485039370076
21
-2.6237776771653545
0
LINE
8
BLACK
6
CONTINUOUS
10
4.0094485039370076
20
-2.6237776771653545
11
4.0086612992125987
21
-2.6377952755905509
0
LINE
8
BLACK
6
CONTINUOUS
10
4.0086612992125987
20
-2.6377952755905509
11
4.0094485039370076
21
-2.6518128740157478
0
LINE
8
BLACK
6
CONTINUOUS
10
7.1008301181102365
20
-2.5116251181102363
11
7.1148673228346455
21
-2.5140101181102361
0
LINE
8
BLACK
6
CONTINUOUS
10
7.1148673228346455
20
-2.5140101181102361
11
7.1285492125984247
21
-2.5179518110236221
0
LINE
8
BLACK
6
CONTINUOUS
10
7.1285492125984247
20
-2.5179518110236221
11
7.1417037401574799
21
-2.5234005905511809
0
LINE
8
BLACK
6
CONTINUOUS
10
7.1417037401574799
20
-2.5234005905511809
11
7.1541654724409449
21
-2.5302879527559052
0
LINE
8
BLACK
6
CONTINUOUS
10
7.1541654724409449
20
-2.5302879527559052
11
7.1657777559055118
21
-2.5385272834645667
0
LINE
8
BLACK
6
CONTINUOUS
10
7.1657777559055118
20
-2.5385272834645667
11
7.1763944488188978
21
-2.5480149999999999
0
LINE
8
BLACK
6
CONTINUOUS
10
7.1763944488188978
20
-2.5480149999999999
11
7.1858821653543306
21
-2.5586316929133859
0
LINE
8
BLACK
6
CONTINUOUS
10
7.1858821653543306
20
-2.5586316929133859
11
7.1941214960629916
21
-2.5702439763779528
0
LINE
8
BLACK
6
CONTINUOUS
10
7.1941214960629916
20
-2.5702439763779528
11
7.2010088582677163
21
-2.5827057086614174
0
LINE
8
BLACK
6
CONTINUOUS
10
7.2010088582677163
20
-2.5827057086614174
11
7.2064576377952756
21
-2.5958602362204726
0
LINE
8
BLACK
6
CONTINUOUS
10
7.2064576377952756
20
-2.5958602362204726
11
7.2103993307086611
21
-2.6095421259842517
0
LINE
8
BLACK
6
CONTINUOUS
10
7.2103993307086611
20
-2.6095421259842517
11
7.2127843307086614
21
-2.6235793307086612
0
LINE
8
BLACK
6
CONTINUOUS
10
7.2127843307086614
20
-2.6235793307086612
11
7.2135826771653537
21
-2.6377952755905509
0
LINE
8
BLACK
6
CONTINUOUS
10
7.2135826771653537
20
-2.6377952755905509
11
7.2127843307086614
21
-2.6520112204724411
0
LINE
8
BLACK
6
CONTINUOUS
10
7.2127843307086614
20
-2.6520112204724411
11
7.2103993307086611
21
-2.6660484251968501
0
LINE
8
BLACK
6
CONTINUOUS
10
7.2103993307086611
20
-2.6660484251968501
11
7.2064576377952756
21
-2.6797303149606297
0
LINE
8
BLACK
6
CONTINUOUS
10
7.2064576377952756
20
-2.6797303149606297
11
7.2010088582677163
21
-2.692884842519685
0
LINE
8
BLACK
6
CONTINUOUS
10
7.2010088582677163
20
-2.692884842519685
11
7.1941214960629916
21
-2.7053465748031496
0
LINE
8
BLACK
6
CONTINUOUS
10
7.1941214960629916
20
-2.7053465748031496
11
7.1858821653543306
21
-2.7169588582677164
0
LINE
8
BLACK
6
CONTINUOUS
10
7.1858821653543306
20
-2.7169588582677164
11
7.1763944488188978
21
-2.7275755511811024
0
LINE
8
BLACK
6
CONTINUOUS
10
7.1763944488188978
20
-2.7275755511811024
11
7.1657777559055118
21
-2.7370632677165352
0
LINE
8
BLACK
6
CONTINUOUS
10
7.1657777559055118
20
-2.7370632677165352
11
7.1541654724409449
21
-2.7453025984251966
0
LINE
8
BLACK
6
CONTINUOUS
10
7.1541654724409449
20
-2.7453025984251966
11
7.1417037401574799
21
-2.7521899606299214
0
LINE
8
BLACK
6
CONTINUOUS
10
7.1417037401574799
20
-2.7521899606299214
11
7.1285492125984247
21
-2.7576387401574802
0
LINE
8
BLACK
6
CONTINUOUS
10
7.1285492125984247
20
-2.7576387401574802
11
7.1148673228346455
21
-2.7615804330708662
0
LINE
8
BLACK
6
CONTINUOUS
10
7.1148673228346455
20
-2.7615804330708662
11
7.1008301181102365
21
-2.7639654330708661
0
LINE
8
BLACK
6
CONTINUOUS
10
7.1008301181102365
20
-2.7639654330708661
11
7.0866141732283463
21
-2.7647637795275588
0
LINE
8
BLACK
6
CONTINUOUS
10
7.0866141732283463
20
-2.7647637795275588
11
7.0723982283464562
21
-2.7639654330708661
0
LINE
8
BLACK
6
CONTINUOUS
10
7.0723982283464562
20
-2.7639654330708661
11
7.0583610236220471
21
-2.7615804330708662
0
LINE
8
BLACK
6
CONTINUOUS
10
7.0583610236220471
20
-2.7615804330708662
11
7.0446791338582679
21
-2.7576387401574802
0
LINE
8
BLACK
6
CONTINUOUS
10
7.0446791338582679
20
-2.7576387401574802
11
7.0315246062992127
21
-2.7521899606299214
0
LINE
8
BLACK
6
CONTINUOUS
10
7.0315246062992127
20
-2.7521899606299214
11
7.0190628740157477
21
-2.7453025984251966
0
LINE
8
BLACK
6
CONTINUOUS
10
7.0190628740157477
20
-2.7453025984251966
11
7.0074505905511808
21
-2.7370632677165352
0
LINE
8
BLACK
6
CONTINUOUS
10
7.0074505905511808
20
-2.7370632677165352
11
6.9968338976377948
21
-2.7275755511811024
0
LINE
8
BLACK
6
CONTINUOUS
10
6.9968338976377948
20
-2.7275755511811024
11
6.9873461811023621
21
-2.7169588582677164
0
LINE
8
BLACK
6
CONTINUOUS
10
6.9873461811023621
20
-2.7169588582677164
11
6.979106850393701
21
-2.7053465748031496
0
LINE
8
BLACK
6
CONTINUOUS
10
6.979106850393701
20
-2.7053465748031496
11
6.9722194881889763
21
-2.692884842519685
0
LINE
8
BLACK
6
CONTINUOUS
10
6.9722194881889763
20
-2.692884842519685
11
6.966770708661417
21
-2.6797303149606297
0
LINE
8
BLACK
6
CONTINUOUS
10
6.966770708661417
20
-2.6797303149606297
11
6.9628290157480315
21
-2.6660484251968501
0
LINE
8
BLACK
6
CONTINUOUS
10
6.9628290157480315
20
-2.6660484251968501
11
6.9604440157480312
21
-2.6520112204724411
0
LINE
8
BLACK
6
CONTINUOUS
10
6.9604440157480312
20
-2.6520112204724411
11
6.959645669291338
21
-2.6377952755905509
0
LINE
8
BLACK
6
CONTINUOUS
10
6.959645669291338
20
-2.6377952755905509
11
6.9604440157480312
21
-2.6235793307086612
0
LINE
8
BLACK
6
CONTINUOUS
10
6.9604440157480312
20
-2.6235793307086612
11
6.9628290157480315
21
-2.6095421259842517
0
LINE
8
BLACK
6
CONTINUOUS
10
6.9628290157480315
20
-2.6095421259842517
11
6.966770708661417
21
-2.5958602362204726
0
LINE
8
BLACK
6
CONTINUOUS
10
6.966770708661417
20
-2.5958602362204726
11
6.9722194881889763
21
-2.5827057086614174
0
LINE
8
BLACK
6
CONTINUOUS
10
6.9722194881889763
20
-2.5827057086614174
11
6.979106850393701
21
-2.5702439763779528
0
LINE
8
BLACK
6
CONTINUOUS
10
6.979106850393701
20
-2.5702439763779528
11
6.9873461811023621
21
-2.5586316929133859
0
LINE
8
BLACK
6
CONTINUOUS
10
6.9873461811023621
20
-2.5586316929133859
11
6.9968338976377948
21
-2.5480149999999999
0
LINE
8
BLACK
6
CONTINUOUS
10
6.9968338976377948
20
-2.5480149999999999
11
7.0074505905511808
21
-2.5385272834645667
0
LINE
8
BLACK
6
CONTINUOUS
10
7.0074505905511808
20
-2.5385272834645667
11
7.0190628740157477
21
-2.5302879527559052
0
LINE
8
BLACK
6
CONTINUOUS
10
7.0190628740157477
20
-2.5302879527559052
11
7.0315246062992127
21
-2.5234005905511809
0
LINE
8
BLACK
6
CONTINUOUS
10
7.0315246062992127
20
-2.5234005905511809
11
7.0446791338582679
21
-2.5179518110236221
0
LINE
8
BLACK
6
CONTINUOUS
10
7.0446791338582679
20
-2.5179518110236221
11
7.0583610236220471
21
-2.5140101181102361
0
LINE
8
BLACK
6
CONTINUOUS
10
7.0583610236220471
20
-2.5140101181102361
11
7.0723982283464562
21
-2.5116251181102363
0
LINE
8
BLACK
6
CONTINUOUS
10
7.0723982283464562
20
-2.5116251181102363
11
7.0866141732283463
21
-2.5108267716535431
0
LINE
8
BLACK
6
CONTINUOUS
10
7.0866141732283463
20
-2.5108267716535431
11
7.1008301181102365
21
-2.5116251181102363
0
LINE
8
BLACK
6
CONTINUOUS
10
6.9622044094488187
20
-2.6518128740157478
11
6.9645561417322837
21
-2.6656542125984251
0
LINE
8
BLACK
6
CONTINUOUS
10
6.9645561417322837
20
-2.6656542125984251
11
6.9684428346456695
21
-2.6791451968503934
0
LINE
8
BLACK
6
CONTINUOUS
10
6.9684428346456695
20
-2.6791451968503934
11
6.9738155905511814
21
-2.6921162204724407
0
LINE
8
BLACK
6
CONTINUOUS
10
6.9738155905511814
20
-2.6921162204724407
11
6.980606889763779
21
-2.7044040944881891
0
LINE
8
BLACK
6
CONTINUOUS
10
6.980606889763779
20
-2.7044040944881891
11
6.9887312598425195
21
-2.7158542913385828
0
LINE
8
BLACK
6
CONTINUOUS
10
6.9887312598425195
20
-2.7158542913385828
11
6.998086535433071
21
-2.7263229133858267
0
LINE
8
BLACK
6
CONTINUOUS
10
6.998086535433071
20
-2.7263229133858267
11
7.0085551574803144
21
-2.7356781889763777
0
LINE
8
BLACK
6
CONTINUOUS
10
7.0085551574803144
20
-2.7356781889763777
11
7.0200053543307082
21
-2.7438025590551178
0
LINE
8
BLACK
6
CONTINUOUS
10
7.0200053543307082
20
-2.7438025590551178
11
7.0322932283464565
21
-2.7505938582677163
0
LINE
8
BLACK
6
CONTINUOUS
10
7.0322932283464565
20
-2.7505938582677163
11
7.0452642519685034
21
-2.7559666141732282
0
LINE
8
BLACK
6
CONTINUOUS
10
7.0452642519685034
20
-2.7559666141732282
11
7.0587552362204722
21
-2.759853307086614
0
LINE
8
BLACK
6
CONTINUOUS
10
7.0587552362204722
20
-2.759853307086614
11
7.0725965748031498
21
-2.7622050393700786
0
LINE
8
BLACK
6
CONTINUOUS
10
7.0725965748031498
20
-2.7622050393700786
11
7.0866141732283463
21
-2.7629922440944883
0
LINE
8
BLACK
6
CONTINUOUS
10
7.0866141732283463
20
-2.7629922440944883
11
7.1006317716535428
21
-2.7622050393700786
0
LINE
8
BLACK
6
CONTINUOUS
10
7.1006317716535428
20
-2.7622050393700786
11
7.1144731102362204
21
-2.759853307086614
0
LINE
8
BLACK
6
CONTINUOUS
10
7.1144731102362204
20
-2.759853307086614
11
7.1279640944881892
21
-2.7559666141732282
0
LINE
8
BLACK
6
CONTINUOUS
10
7.1279640944881892
20
-2.7559666141732282
11
7.1409351181102361
21
-2.7505938582677163
0
LINE
8
BLACK
6
CONTINUOUS
10
7.1409351181102361
20
-2.7505938582677163
11
7.1532229921259844
21
-2.7438025590551178
0
LINE
8
BLACK
6
CONTINUOUS
10
7.1532229921259844
20
-2.7438025590551178
11
7.1646731889763782
21
-2.7356781889763777
0
LINE
8
BLACK
6
CONTINUOUS
10
7.1646731889763782
20
-2.7356781889763777
11
7.1751418110236216
21
-2.7263229133858267
0
LINE
8
BLACK
6
CONTINUOUS
10
7.1751418110236216
20
-2.7263229133858267
11
7.1844970866141731
21
-2.7158542913385828
0
LINE
8
BLACK
6
CONTINUOUS
10
7.1844970866141731
20
-2.7158542913385828
11
7.1926214566929136
21
-2.7044040944881891
0
LINE
8
BLACK
6
CONTINUOUS
10
7.1926214566929136
20
-2.7044040944881891
11
7.1994127559055112
21
-2.6921162204724407
0
LINE
8
BLACK
6
CONTINUOUS
10
7.1994127559055112
20
-2.6921162204724407
11
7.2047855118110231
21
-2.6791451968503934
0
LINE
8
BLACK
6
CONTINUOUS
10
7.2047855118110231
20
-2.6791451968503934
11
7.2086722047244089
21
-2.6656542125984251
0
LINE
8
BLACK
6
CONTINUOUS
10
7.2086722047244089
20
-2.6656542125984251
11
7.2110239370078739
21
-2.6518128740157478
0
LINE
8
BLACK
6
CONTINUOUS
10
7.2110239370078739
20
-2.6518128740157478
11
7.2118111417322837
21
-2.6377952755905509
0
LINE
8
BLACK
6
CONTINUOUS
10
7.2118111417322837
20
-2.6377952755905509
11
7.2110239370078739
21
-2.6237776771653545
0
LINE
8
BLACK
6
CONTINUOUS
10
7.2110239370078739
20
-2.6237776771653545
11
7.2086722047244089
21
-2.6099363385826773
0
LINE
8
BLACK
6
CONTINUOUS
10
7.2086722047244089
20
-2.6099363385826773
11
7.2047855118110231
21
-2.5964453543307084
0
LINE
8
BLACK
6
CONTINUOUS
10
7.2047855118110231
20
-2.5964453543307084
11
7.1994127559055112
21
-2.5834743307086612
0
LINE
8
BLACK
6
CONTINUOUS
10
7.1994127559055112
20
-2.5834743307086612
11
7.1926214566929136
21
-2.5711864566929132
0
LINE
8
BLACK
6
CONTINUOUS
10
7.1926214566929136
20
-2.5711864566929132
11
7.1844970866141731
21
-2.5597362598425195
0
LINE
8
BLACK
6
CONTINUOUS
10
7.1844970866141731
20
-2.5597362598425195
11
7.1751418110236216
21
-2.5492676377952757
0
LINE
8
BLACK
6
CONTINUOUS
10
7.1751418110236216
20
-2.5492676377952757
11
7.1646731889763782
21
-2.5399123622047242
0
LINE
8
BLACK
6
CONTINUOUS
10
7.1646731889763782
20
-2.5399123622047242
11
7.1532229921259844
21
-2.531787992125984
0
LINE
8
BLACK
6
CONTINUOUS
10
7.1532229921259844
20
-2.531787992125984
11
7.1409351181102361
21
-2.5249966929133856
0
LINE
8
BLACK
6
CONTINUOUS
10
7.1409351181102361
20
-2.5249966929133856
11
7.1279640944881892
21
-2.5196239370078741
0
LINE
8
BLACK
6
CONTINUOUS
10
7.1279640944881892
20
-2.5196239370078741
11
7.1144731102362204
21
-2.5157372440944883
0
LINE
8
BLACK
6
CONTINUOUS
10
7.1144731102362204
20
-2.5157372440944883
11
7.1006317716535428
21
-2.5133855118110238
0
LINE
8
BLACK
6
CONTINUOUS
10
7.1006317716535428
20
-2.5133855118110238
11
7.0866141732283463
21
-2.512598307086614
0
LINE
8
BLACK
6
CONTINUOUS
10
7.0866141732283463
20
-2.512598307086614
11
7.0725965748031498
21
-2.5133855118110238
0
LINE
8
BLACK
6
CONTINUOUS
10
7.0725965748031498
20
-2.5133855118110238
11
7.0587552362204722
21
-2.5157372440944883
0
LINE
8
BLACK
6
CONTINUOUS
10
7.0587552362204722
20
-2.5157372440944883
11
7.0452642519685034
21
-2.5196239370078741
0
LINE
8
BLACK
6
CONTINUOUS
10
7.0452642519685034
20
-2.5196239370078741
11
7.0322932283464565
21
-2.5249966929133856
0
LINE
8
BLACK
6
CONTINUOUS
10
7.0322932283464565
20
-2.5249966929133856
11
7.0200053543307082
21
-2.531787992125984
0
LINE
8
BLACK
6
CONTINUOUS
10
7.0200053543307082
20
-2.531787992125984
11
7.0085551574803144
21
-2.5399123622047242
0
LINE
8
BLACK
6
CONTINUOUS
10
7.0085551574803144
20
-2.5399123622047242
11
6.998086535433071
21
-2.5492676377952757
0
LINE
8
BLACK
6
CONTINUOUS
10
6.998086535433071
20
-2.5492676377952757
11
6.9887312598425195
21
-2.5597362598425195
0
LINE
8
BLACK
6
CONTINUOUS
10
6.9887312598425195
20
-2.5597362598425195
11
6.980606889763779
21
-2.5711864566929132
0
LINE
8
BLACK
6
CONTINUOUS
10
6.980606889763779
20
-2.5711864566929132
11
6.9738155905511814
21
-2.5834743307086612
0
LINE
8
BLACK
6
CONTINUOUS
10
6.9738155905511814
20
-2.5834743307086612
11
6.9684428346456695
21
-2.5964453543307084
0
LINE
8
BLACK
6
CONTINUOUS
10
6.9684428346456695
20
-2.5964453543307084
11
6.9645561417322837
21
-2.6099363385826773
0
LINE
8
BLACK
6
CONTINUOUS
10
6.9645561417322837
20
-2.6099363385826773
11
6.9622044094488187
21
-2.6237776771653545
0
LINE
8
BLACK
6
CONTINUOUS
10
6.9622044094488187
20
-2.6237776771653545
11
6.9614172047244089
21
-2.6377952755905509
0
LINE
8
BLACK
6
CONTINUOUS
10
6.9614172047244089
20
-2.6377952755905509
11
6.9622044094488187
21
-2.6518128740157478
0
LINE
8
BLACK
6
CONTINUOUS
10
3.1267546062992126
20
-0.7939725590551181
11
3.1272872834645669
21
-0.7945052362204724
0
LINE
8
BLACK
6
CONTINUOUS
10
3.1272872834645669
20
-0.7945052362204724
11
3.1273622047244092
21
-0.7948818897637795
0
LINE
8
BLACK
6
CONTINUOUS
10
3.1273622047244092
20
-0.7948818897637795
11
3.1273622047244092
21
-1.0114173228346457
0
LINE
8
BLACK
6
CONTINUOUS
10
3.1273622047244092
20
-1.0114173228346457
11
3.1272872834645669
21
-1.0117939763779527
0
LINE
8
BLACK
6
CONTINUOUS
10
3.1272872834645669
20
-1.0117939763779527
11
3.1267546062992126
21
-1.0123266535433071
0
LINE
8
BLACK
6
CONTINUOUS
10
3.1267546062992126
20
-1.0123266535433071
11
3.1263779527559055
21
-1.0124015748031496
0
LINE
8
BLACK
6
CONTINUOUS
10
3.1263779527559055
20
-1.0124015748031496
11
2.7759842519685041
21
-1.0124015748031496
0
LINE
8
BLACK
6
CONTINUOUS
10
2.7759842519685041
20
-1.0124015748031496
11
2.7756075984251969
21
-1.0123266535433071
0
LINE
8
BLACK
6
CONTINUOUS
10
2.7756075984251969
20
-1.0123266535433071
11
2.7755905511811023
21
-1.0123096062992125
0
LINE
8
BLACK
6
CONTINUOUS
10
2.7755905511811023
20
-1.0123096062992125
11
2.7751798031496064
21
-1.0127203543307086
0
LINE
8
BLACK
6
CONTINUOUS
10
2.7751798031496064
20
-1.0127203543307086
11
2.7748031496062993
21
-1.0127952755905512
0
LINE
8
BLACK
6
CONTINUOUS
10
2.7748031496062993
20
-1.0127952755905512
11
2.4244094488188974
21
-1.0127952755905512
0
LINE
8
BLACK
6
CONTINUOUS
10
2.4244094488188974
20
-1.0127952755905512
11
2.4240327952755907
21
-1.0127203543307086
0
LINE
8
BLACK
6
CONTINUOUS
10
2.4240327952755907
20
-1.0127203543307086
11
2.423500118110236
21
-1.0121876771653544
0
LINE
8
BLACK
6
CONTINUOUS
10
2.423500118110236
20
-1.0121876771653544
11
2.4234251968503937
21
-1.0118110236220472
0
LINE
8
BLACK
6
CONTINUOUS
10
2.4234251968503937
20
-1.0118110236220472
11
2.4234251968503937
21
-0.7952755905511811
0
LINE
8
BLACK
6
CONTINUOUS
10
2.4234251968503937
20
-0.7952755905511811
11
2.423500118110236
21
-0.794898937007874
0
LINE
8
BLACK
6
CONTINUOUS
10
2.423500118110236
20
-0.794898937007874
11
2.4240327952755907
21
-0.7943662598425196
0
LINE
8
BLACK
6
CONTINUOUS
10
2.4240327952755907
20
-0.7943662598425196
11
2.4244094488188974
21
-0.7942913385826772
0
LINE
8
BLACK
6
CONTINUOUS
10
2.4244094488188974
20
-0.7942913385826772
11
2.7748031496062993
21
-0.7942913385826772
0
LINE
8
BLACK
6
CONTINUOUS
10
2.7748031496062993
20
-0.7942913385826772
11
2.7751798031496064
21
-0.7943662598425196
0
LINE
8
BLACK
6
CONTINUOUS
10
2.7751798031496064
20
-0.7943662598425196
11
2.7751968503937006
21
-0.7943833070866142
0
LINE
8
BLACK
6
CONTINUOUS
10
2.7751968503937006
20
-0.7943833070866142
11
2.7756075984251969
21
-0.7939725590551181
0
LINE
8
BLACK
6
CONTINUOUS
10
2.7756075984251969
20
-0.7939725590551181
11
2.7759842519685041
21
-0.7938976377952756
0
LINE
8
BLACK
6
CONTINUOUS
10
2.7759842519685041
20
-0.7938976377952756
11
3.1263779527559055
21
-0.7938976377952756
0
LINE
8
BLACK
6
CONTINUOUS
10
3.1263779527559055
20
-0.7938976377952756
11
3.1267546062992126
21
-0.7939725590551181
0
LINE
8
BLACK
6
CONTINUOUS
10
2.4253937007874016
20
-0.7962598425196851
11
2.4253937007874016
21
-1.0108267716535433
0
LINE
8
BLACK
6
CONTINUOUS
10
2.4253937007874016
20
-1.0108267716535433
11
2.7738188976377951
21
-1.0108267716535433
0
LINE
8
BLACK
6
CONTINUOUS
10
2.7738188976377951
20
-1.0108267716535433
11
2.7738188976377951
21
-0.7962598425196851
0
LINE
8
BLACK
6
CONTINUOUS
10
2.7738188976377951
20
-0.7962598425196851
11
2.4253937007874016
21
-0.7962598425196851
0
LINE
8
BLACK
6
CONTINUOUS
10
2.7769685039370078
20
-0.7958661417322834
11
2.7769685039370078
21
-1.0104330708661418
0
LINE
8
BLACK
6
CONTINUOUS
10
2.7769685039370078
20
-1.0104330708661418
11
3.1253937007874013
21
-1.0104330708661418
0
LINE
8
BLACK
6
CONTINUOUS
10
3.1253937007874013
20
-1.0104330708661418
11
3.1253937007874013
21
-0.7958661417322834
0
LINE
8
BLACK
6
CONTINUOUS
10
3.1253937007874013
20
-0.7958661417322834
11
2.7769685039370078
21
-0.7958661417322834
0
CIRCLE
8
BLACK
10
6.6141732283464565
20
-4.7834645669291334
40
0.0531496062992126
0
CIRCLE
8
BLACK
10
4.9212598425196852
20
-0.9645669291338582
40
0.0236220472440945
0
CIRCLE
8
BLACK
10
4.7244094488188972
20
-1.1614173228346456
40
0.0236220472440945
0
CIRCLE
8
BLACK
10
4.5275590551181102
20
-0.9645669291338582
40
0.0236220472440945
0
LINE
8
BLACK
6
CONTINUOUS
10
4.9125717716535435
20
-1.1409883858267715
11
4.9138944488188976
21
-1.1377951574803149
0
LINE
8
BLACK
6
CONTINUOUS
10
4.9138944488188976
20
-1.1377951574803149
11
4.9163384645669286
21
-1.1353511417322835
0
LINE
8
BLACK
6
CONTINUOUS
10
4.9163384645669286
20
-1.1353511417322835
11
4.9195316929133854
21
-1.1340284645669292
0
LINE
8
BLACK
6
CONTINUOUS
10
4.9195316929133854
20
-1.1340284645669292
11
4.922987992125984
21
-1.1340284645669292
0
LINE
8
BLACK
6
CONTINUOUS
10
4.922987992125984
20
-1.1340284645669292
11
4.9261812204724409
21
-1.1353511417322835
0
LINE
8
BLACK
6
CONTINUOUS
10
4.9261812204724409
20
-1.1353511417322835
11
4.9286252362204728
21
-1.1377951574803149
0
LINE
8
BLACK
6
CONTINUOUS
10
4.9286252362204728
20
-1.1377951574803149
11
4.9299479133858268
21
-1.1409883858267715
0
LINE
8
BLACK
6
CONTINUOUS
10
4.9299479133858268
20
-1.1409883858267715
11
4.9301181102362204
21
-1.1427165354330708
0
LINE
8
BLACK
6
CONTINUOUS
10
4.9301181102362204
20
-1.1427165354330708
11
4.9301181102362204
21
-1.1801181102362204
0
LINE
8
BLACK
6
CONTINUOUS
10
4.9301181102362204
20
-1.1801181102362204
11
4.9299479133858268
21
-1.1818462598425197
0
LINE
8
BLACK
6
CONTINUOUS
10
4.9299479133858268
20
-1.1818462598425197
11
4.9286252362204728
21
-1.1850394881889763
0
LINE
8
BLACK
6
CONTINUOUS
10
4.9286252362204728
20
-1.1850394881889763
11
4.9261812204724409
21
-1.1874835039370077
0
LINE
8
BLACK
6
CONTINUOUS
10
4.9261812204724409
20
-1.1874835039370077
11
4.922987992125984
21
-1.1888061811023622
0
LINE
8
BLACK
6
CONTINUOUS
10
4.922987992125984
20
-1.1888061811023622
11
4.9195316929133854
21
-1.1888061811023622
0
LINE
8
BLACK
6
CONTINUOUS
10
4.9195316929133854
20
-1.1888061811023622
11
4.9163384645669286
21
-1.1874835039370077
0
LINE
8
BLACK
6
CONTINUOUS
10
4.9163384645669286
20
-1.1874835039370077
11
4.9138944488188976
21
-1.1850394881889763
0
LINE
8
BLACK
6
CONTINUOUS
10
4.9138944488188976
20
-1.1850394881889763
11
4.9125717716535435
21
-1.1818462598425197
0
LINE
8
BLACK
6
CONTINUOUS
10
4.9125717716535435
20
-1.1818462598425197
11
4.9124015748031491
21
-1.1801181102362204
0
LINE
8
BLACK
6
CONTINUOUS
10
4.9124015748031491
20
-1.1801181102362204
11
4.9124015748031491
21
-1.1427165354330708
0
LINE
8
BLACK
6
CONTINUOUS
10
4.9124015748031491
20
-1.1427165354330708
11
4.9125717716535435
21
-1.1409883858267715
0
LINE
8
BLACK
6
CONTINUOUS
10
4.8141465748031491
20
-1.1409883858267715
11
4.8154692519685041
21
-1.1377951574803149
0
LINE
8
BLACK
6
CONTINUOUS
10
4.8154692519685041
20
-1.1377951574803149
11
4.8179132677165351
21
-1.1353511417322835
0
LINE
8
BLACK
6
CONTINUOUS
10
4.8179132677165351
20
-1.1353511417322835
11
4.8211064960629919
21
-1.1340284645669292
0
LINE
8
BLACK
6
CONTINUOUS
10
4.8211064960629919
20
-1.1340284645669292
11
4.8245627952755905
21
-1.1340284645669292
0
LINE
8
BLACK
6
CONTINUOUS
10
4.8245627952755905
20
-1.1340284645669292
11
4.8277560236220474
21
-1.1353511417322835
0
LINE
8
BLACK
6
CONTINUOUS
10
4.8277560236220474
20
-1.1353511417322835
11
4.8302000393700784
21
-1.1377951574803149
0
LINE
8
BLACK
6
CONTINUOUS
10
4.8302000393700784
20
-1.1377951574803149
11
4.8315227165354333
21
-1.1409883858267715
0
LINE
8
BLACK
6
CONTINUOUS
10
4.8315227165354333
20
-1.1409883858267715
11
4.8316929133858268
21
-1.1427165354330708
0
LINE
8
BLACK
6
CONTINUOUS
10
4.8316929133858268
20
-1.1427165354330708
11
4.8316929133858268
21
-1.1801181102362204
0
LINE
8
BLACK
6
CONTINUOUS
10
4.8316929133858268
20
-1.1801181102362204
11
4.8315227165354333
21
-1.1818462598425197
0
LINE
8
BLACK
6
CONTINUOUS
10
4.8315227165354333
20
-1.1818462598425197
11
4.8302000393700784
21
-1.1850394881889763
0
LINE
8
BLACK
6
CONTINUOUS
10
4.8302000393700784
20
-1.1850394881889763
11
4.8277560236220474
21
-1.1874835039370077
0
LINE
8
BLACK
6
CONTINUOUS
10
4.8277560236220474
20
-1.1874835039370077
11
4.8245627952755905
21
-1.1888061811023622
0
LINE
8
BLACK
6
CONTINUOUS
10
4.8245627952755905
20
-1.1888061811023622
11
4.8211064960629919
21
-1.1888061811023622
0
LINE
8
BLACK
6
CONTINUOUS
10
4.8211064960629919
20
-1.1888061811023622
11
4.8179132677165351
21
-1.1874835039370077
0
LINE
8
BLACK
6
CONTINUOUS
10
4.8179132677165351
20
-1.1874835039370077
11
4.8154692519685041
21
-1.1850394881889763
0
LINE
8
BLACK
6
CONTINUOUS
10
4.8154692519685041
20
-1.1850394881889763
11
4.8141465748031491
21
-1.1818462598425197
0
LINE
8
BLACK
6
CONTINUOUS
10
4.8141465748031491
20
-1.1818462598425197
11
4.8139763779527556
21
-1.1801181102362204
0
LINE
8
BLACK
6
CONTINUOUS
10
4.8139763779527556
20
-1.1801181102362204
11
4.8139763779527556
21
-1.1427165354330708
0
LINE
8
BLACK
6
CONTINUOUS
10
4.8139763779527556
20
-1.1427165354330708
11
4.8141465748031491
21
-1.1409883858267715
0
LINE
8
BLACK
6
CONTINUOUS
10
4.744838385826772
20
-0.9558788582677166
11
4.7480316141732279
21
-0.9572015354330708
0
LINE
8
BLACK
6
CONTINUOUS
10
4.7480316141732279
20
-0.9572015354330708
11
4.7504756299212598
21
-0.9596455511811023
0
LINE
8
BLACK
6
CONTINUOUS
10
4.7504756299212598
20
-0.9596455511811023
11
4.7517983070866139
21
-0.962838779527559
0
LINE
8
BLACK
6
CONTINUOUS
10
4.7517983070866139
20
-0.962838779527559
11
4.7517983070866139
21
-0.9662950787401574
0
LINE
8
BLACK
6
CONTINUOUS
10
4.7517983070866139
20
-0.9662950787401574
11
4.7504756299212598
21
-0.9694883070866142
0
LINE
8
BLACK
6
CONTINUOUS
10
4.7504756299212598
20
-0.9694883070866142
11
4.7480316141732279
21
-0.9719323228346457
0
LINE
8
BLACK
6
CONTINUOUS
10
4.7480316141732279
20
-0.9719323228346457
11
4.744838385826772
21
-0.973255
0
LINE
8
BLACK
6
CONTINUOUS
10
4.744838385826772
20
-0.973255
11
4.7431102362204722
21
-0.9734251968503936
0
LINE
8
BLACK
6
CONTINUOUS
10
4.7431102362204722
20
-0.9734251968503936
11
4.7057086614173231
21
-0.9734251968503936
0
LINE
8
BLACK
6
CONTINUOUS
10
4.7057086614173231
20
-0.9734251968503936
11
4.7039805118110234
21
-0.973255
0
LINE
8
BLACK
6
CONTINUOUS
10
4.7039805118110234
20
-0.973255
11
4.7007872834645665
21
-0.9719323228346457
0
LINE
8
BLACK
6
CONTINUOUS
10
4.7007872834645665
20
-0.9719323228346457
11
4.6983432677165355
21
-0.9694883070866142
0
LINE
8
BLACK
6
CONTINUOUS
10
4.6983432677165355
20
-0.9694883070866142
11
4.6970205905511806
21
-0.9662950787401574
0
LINE
8
BLACK
6
CONTINUOUS
10
4.6970205905511806
20
-0.9662950787401574
11
4.6970205905511806
21
-0.962838779527559
0
LINE
8
BLACK
6
CONTINUOUS
10
4.6970205905511806
20
-0.962838779527559
11
4.6983432677165355
21
-0.9596455511811023
0
LINE
8
BLACK
6
CONTINUOUS
10
4.6983432677165355
20
-0.9596455511811023
11
4.7007872834645665
21
-0.9572015354330708
0
LINE
8
BLACK
6
CONTINUOUS
10
4.7007872834645665
20
-0.9572015354330708
11
4.7039805118110234
21
-0.9558788582677166
0
LINE
8
BLACK
6
CONTINUOUS
10
4.7039805118110234
20
-0.9558788582677166
11
4.7057086614173231
21
-0.9557086614173228
0
LINE
8
BLACK
6
CONTINUOUS
10
4.7057086614173231
20
-0.9557086614173228
11
4.7431102362204722
21
-0.9557086614173228
0
LINE
8
BLACK
6
CONTINUOUS
10
4.7431102362204722
20
-0.9557086614173228
11
4.744838385826772
21
-0.9558788582677166
0
LINE
8
BLACK
6
CONTINUOUS
10
4.5362471259842518
20
-1.1818462598425197
11
4.5349244488188978
21
-1.1850394881889763
0
LINE
8
BLACK
6
CONTINUOUS
10
4.5349244488188978
20
-1.1850394881889763
11
4.5324804330708659
21
-1.1874835039370077
0
LINE
8
BLACK
6
CONTINUOUS
10
4.5324804330708659
20
-1.1874835039370077
11
4.529287204724409
21
-1.1888061811023622
0
LINE
8
BLACK
6
CONTINUOUS
10
4.529287204724409
20
-1.1888061811023622
11
4.5258309055118113
21
-1.1888061811023622
0
LINE
8
BLACK
6
CONTINUOUS
10
4.5258309055118113
20
-1.1888061811023622
11
4.5226376771653545
21
-1.1874835039370077
0
LINE
8
BLACK
6
CONTINUOUS
10
4.5226376771653545
20
-1.1874835039370077
11
4.5201936614173226
21
-1.1850394881889763
0
LINE
8
BLACK
6
CONTINUOUS
10
4.5201936614173226
20
-1.1850394881889763
11
4.5188709842519685
21
-1.1818462598425197
0
LINE
8
BLACK
6
CONTINUOUS
10
4.5188709842519685
20
-1.1818462598425197
11
4.518700787401575
21
-1.1801181102362204
0
LINE
8
BLACK
6
CONTINUOUS
10
4.518700787401575
20
-1.1801181102362204
11
4.518700787401575
21
-1.1427165354330708
0
LINE
8
BLACK
6
CONTINUOUS
10
4.518700787401575
20
-1.1427165354330708
11
4.5188709842519685
21
-1.1409883858267715
0
LINE
8
BLACK
6
CONTINUOUS
10
4.5188709842519685
20
-1.1409883858267715
11
4.5201936614173226
21
-1.1377951574803149
0
LINE
8
BLACK
6
CONTINUOUS
10
4.5201936614173226
20
-1.1377951574803149
11
4.5226376771653545
21
-1.1353511417322835
0
LINE
8
BLACK
6
CONTINUOUS
10
4.5226376771653545
20
-1.1353511417322835
11
4.5258309055118113
21
-1.1340284645669292
0
LINE
8
BLACK
6
CONTINUOUS
10
4.5258309055118113
20
-1.1340284645669292
11
4.529287204724409
21
-1.1340284645669292
0
LINE
8
BLACK
6
CONTINUOUS
10
4.529287204724409
20
-1.1340284645669292
11
4.5324804330708659
21
-1.1353511417322835
0
LINE
8
BLACK
6
CONTINUOUS
10
4.5324804330708659
20
-1.1353511417322835
11
4.5349244488188978
21
-1.1377951574803149
0
LINE
8
BLACK
6
CONTINUOUS
10
4.5349244488188978
20
-1.1377951574803149
11
4.5362471259842518
21
-1.1409883858267715
0
LINE
8
BLACK
6
CONTINUOUS
10
4.5362471259842518
20
-1.1409883858267715
11
4.5364173228346454
21
-1.1427165354330708
0
LINE
8
BLACK
6
CONTINUOUS
10
4.5364173228346454
20
-1.1427165354330708
11
4.5364173228346454
21
-1.1801181102362204
0
LINE
8
BLACK
6
CONTINUOUS
10
4.5364173228346454
20
-1.1801181102362204
11
4.5362471259842518
21
-1.1818462598425197
0
LINE
8
BLACK
6
CONTINUOUS
10
4.6346723228346454
20
-1.1818462598425197
11
4.6333496456692913
21
-1.1850394881889763
0
LINE
8
BLACK
6
CONTINUOUS
10
4.6333496456692913
20
-1.1850394881889763
11
4.6309056299212594
21
-1.1874835039370077
0
LINE
8
BLACK
6
CONTINUOUS
10
4.6309056299212594
20
-1.1874835039370077
11
4.6277124015748035
21
-1.1888061811023622
0
LINE
8
BLACK
6
CONTINUOUS
10
4.6277124015748035
20
-1.1888061811023622
11
4.6242561023622049
21
-1.1888061811023622
0
LINE
8
BLACK
6
CONTINUOUS
10
4.6242561023622049
20
-1.1888061811023622
11
4.621062874015748
21
-1.1874835039370077
0
LINE
8
BLACK
6
CONTINUOUS
10
4.621062874015748
20
-1.1874835039370077
11
4.6186188582677161
21
-1.1850394881889763
0
LINE
8
BLACK
6
CONTINUOUS
10
4.6186188582677161
20
-1.1850394881889763
11
4.6172961811023621
21
-1.1818462598425197
0
LINE
8
BLACK
6
CONTINUOUS
10
4.6172961811023621
20
-1.1818462598425197
11
4.6171259842519685
21
-1.1801181102362204
0
LINE
8
BLACK
6
CONTINUOUS
10
4.6171259842519685
20
-1.1801181102362204
11
4.6171259842519685
21
-1.1427165354330708
0
LINE
8
BLACK
6
CONTINUOUS
10
4.6171259842519685
20
-1.1427165354330708
11
4.6172961811023621
21
-1.1409883858267715
0
LINE
8
BLACK
6
CONTINUOUS
10
4.6172961811023621
20
-1.1409883858267715
11
4.6186188582677161
21
-1.1377951574803149
0
LINE
8
BLACK
6
CONTINUOUS
10
4.6186188582677161
20
-1.1377951574803149
11
4.621062874015748
21
-1.1353511417322835
0
LINE
8
BLACK
6
CONTINUOUS
10
4.621062874015748
20
-1.1353511417322835
11
4.6242561023622049
21
-1.1340284645669292
0
LINE
8
BLACK
6
CONTINUOUS
10
4.6242561023622049
20
-1.1340284645669292
11
4.6277124015748035
21
-1.1340284645669292
0
LINE
8
BLACK
6
CONTINUOUS
10
4.6277124015748035
20
-1.1340284645669292
11
4.6309056299212594
21
-1.1353511417322835
0
LINE
8
BLACK
6
CONTINUOUS
10
4.6309056299212594
20
-1.1353511417322835
11
4.6333496456692913
21
-1.1377951574803149
0
LINE
8
BLACK
6
CONTINUOUS
10
4.6333496456692913
20
-1.1377951574803149
11
4.6346723228346454
21
-1.1409883858267715
0
LINE
8
BLACK
6
CONTINUOUS
10
4.6346723228346454
20
-1.1409883858267715
11
4.6348425196850389
21
-1.1427165354330708
0
LINE
8
BLACK
6
CONTINUOUS
10
4.6348425196850389
20
-1.1427165354330708
11
4.6348425196850389
21
-1.1801181102362204
0
LINE
8
BLACK
6
CONTINUOUS
10
4.6348425196850389
20
-1.1801181102362204
11
4.6346723228346454
21
-1.1818462598425197
0
CIRCLE
8
BLACK
10
1.1043307086614174
20
-1.9685039370078741
40
0.0275590551181102
0
CIRCLE
8
BLACK
10
1.1043307086614174
20
-1.3295275590551181
40
0.0275590551181102
0
CIRCLE
8
BLACK
10
0.8543307086614172
20
-1.9685039370078741
40
0.0275590551181102
0
CIRCLE
8
BLACK
10
0.8543307086614172
20
-1.3295275590551181
40
0.0275590551181102
0
CIRCLE
8
BLACK
10
1.3543307086614174
20
-1.9685039370078741
40
0.0275590551181102
0
CIRCLE
8
BLACK
10
1.3543307086614174
20
-1.3295275590551181
40
0.0275590551181102
0
CIRCLE
8
BLACK
10
1.1043307086614174
20
-4.377952755905512
40
0.0275590551181102
0
CIRCLE
8
BLACK
10
1.1043307086614174
20
-3.7389763779527558
40
0.0275590551181102
0
CIRCLE
8
BLACK
10
0.8543307086614172
20
-4.377952755905512
40
0.0275590551181102
0
CIRCLE
8
BLACK
10
0.8543307086614172
20
-3.7389763779527558
40
0.0275590551181102
0
CIRCLE
8
BLACK
10
1.3543307086614174
20
-4.377952755905512
40
0.0275590551181102
0
CIRCLE
8
BLACK
10
1.3543307086614174
20
-3.7389763779527558
40
0.0275590551181102
0
LINE
8
BLACK
6
CONTINUOUS
10
7.1162287401574797
20
-1.1812370866141733
11
7.1201997244094484
21
-1.1823011023622048
0
LINE
8
BLACK
6
CONTINUOUS
10
7.1201997244094484
20
-1.1823011023622048
11
7.1237600393700786
21
-1.184356653543307
0
LINE
8
BLACK
6
CONTINUOUS
10
7.1237600393700786
20
-1.184356653543307
11
7.1266669685039368
21
-1.1872635826771654
0
LINE
8
BLACK
6
CONTINUOUS
10
7.1266669685039368
20
-1.1872635826771654
11
7.1287225196850388
21
-1.1908238976377952
0
LINE
8
BLACK
6
CONTINUOUS
10
7.1287225196850388
20
-1.1908238976377952
11
7.1297865354330705
21
-1.1947948818897638
0
LINE
8
BLACK
6
CONTINUOUS
10
7.1297865354330705
20
-1.1947948818897638
11
7.1297865354330705
21
-1.198905905511811
0
LINE
8
BLACK
6
CONTINUOUS
10
7.1297865354330705
20
-1.198905905511811
11
7.1287225196850388
21
-1.2028768897637796
0
LINE
8
BLACK
6
CONTINUOUS
10
7.1287225196850388
20
-1.2028768897637796
11
7.1266669685039368
21
-1.2064372047244094
0
LINE
8
BLACK
6
CONTINUOUS
10
7.1266669685039368
20
-1.2064372047244094
11
7.1237600393700786
21
-1.2093441338582678
0
LINE
8
BLACK
6
CONTINUOUS
10
7.1237600393700786
20
-1.2093441338582678
11
7.1201997244094484
21
-1.21139968503937
0
LINE
8
BLACK
6
CONTINUOUS
10
7.1201997244094484
20
-1.21139968503937
11
7.1162287401574797
21
-1.2124637007874015
0
LINE
8
BLACK
6
CONTINUOUS
10
7.1162287401574797
20
-1.2124637007874015
11
7.1141732283464565
21
-1.2125984251968505
0
LINE
8
BLACK
6
CONTINUOUS
10
7.1141732283464565
20
-1.2125984251968505
11
7.0118110236220472
21
-1.2125984251968505
0
LINE
8
BLACK
6
CONTINUOUS
10
7.0118110236220472
20
-1.2125984251968505
11
7.0097555118110231
21
-1.2124637007874015
0
LINE
8
BLACK
6
CONTINUOUS
10
7.0097555118110231
20
-1.2124637007874015
11
7.0057845275590553
21
-1.21139968503937
0
LINE
8
BLACK
6
CONTINUOUS
10
7.0057845275590553
20
-1.21139968503937
11
7.0022242125984251
21
-1.2093441338582678
0
LINE
8
BLACK
6
CONTINUOUS
10
7.0022242125984251
20
-1.2093441338582678
11
6.9993172834645669
21
-1.2064372047244094
0
LINE
8
BLACK
6
CONTINUOUS
10
6.9993172834645669
20
-1.2064372047244094
11
6.997261732283464
21
-1.2028768897637796
0
LINE
8
BLACK
6
CONTINUOUS
10
6.997261732283464
20
-1.2028768897637796
11
6.9961977165354332
21
-1.198905905511811
0
LINE
8
BLACK
6
CONTINUOUS
10
6.9961977165354332
20
-1.198905905511811
11
6.9961977165354332
21
-1.1947948818897638
0
LINE
8
BLACK
6
CONTINUOUS
10
6.9961977165354332
20
-1.1947948818897638
11
6.997261732283464
21
-1.1908238976377952
0
LINE
8
BLACK
6
CONTINUOUS
10
6.997261732283464
20
-1.1908238976377952
11
6.9993172834645669
21
-1.1872635826771654
0
LINE
8
BLACK
6
CONTINUOUS
10
6.9993172834645669
20
-1.1872635826771654
11
7.0022242125984251
21
-1.184356653543307
0
LINE
8
BLACK
6
CONTINUOUS
10
7.0022242125984251
20
-1.184356653543307
11
7.0057845275590553
21
-1.1823011023622048
0
LINE
8
BLACK
6
CONTINUOUS
10
7.0057845275590553
20
-1.1823011023622048
11
7.0097555118110231
21
-1.1812370866141733
0
LINE
8
BLACK
6
CONTINUOUS
10
7.0097555118110231
20
-1.1812370866141733
11
7.0118110236220472
21
-1.1811023622047243
0
LINE
8
BLACK
6
CONTINUOUS
10
7.0118110236220472
20
-1.1811023622047243
11
7.1141732283464565
21
-1.1811023622047243
0
LINE
8
BLACK
6
CONTINUOUS
10
7.1141732283464565
20
-1.1811023622047243
11
7.1162287401574797
21
-1.1812370866141733
0
LINE
8
BLACK
6
CONTINUOUS
10
7.1083547244094483
20
-0.9528906299212598
11
7.1123257086614169
21
-0.9539546456692913
0
LINE
8
BLACK
6
CONTINUOUS
10
7.1123257086614169
20
-0.9539546456692913
11
7.1158860236220471
21
-0.9560101968503937
0
LINE
8
BLACK
6
CONTINUOUS
10
7.1158860236220471
20
-0.9560101968503937
11
7.1187929527559053
21
-0.9589171259842519
0
LINE
8
BLACK
6
CONTINUOUS
10
7.1187929527559053
20
-0.9589171259842519
11
7.1208485039370073
21
-0.9624774409448819
0
LINE
8
BLACK
6
CONTINUOUS
10
7.1208485039370073
20
-0.9624774409448819
11
7.121912519685039
21
-0.9664484251968504
0
LINE
8
BLACK
6
CONTINUOUS
10
7.121912519685039
20
-0.9664484251968504
11
7.121912519685039
21
-0.9705594488188977
0
LINE
8
BLACK
6
CONTINUOUS
10
7.121912519685039
20
-0.9705594488188977
11
7.1208485039370073
21
-0.9745304330708661
0
LINE
8
BLACK
6
CONTINUOUS
10
7.1208485039370073
20
-0.9745304330708661
11
7.1187929527559053
21
-0.9780907480314961
0
LINE
8
BLACK
6
CONTINUOUS
10
7.1187929527559053
20
-0.9780907480314961
11
7.1158860236220471
21
-0.9809976771653544
0
LINE
8
BLACK
6
CONTINUOUS
10
7.1158860236220471
20
-0.9809976771653544
11
7.1123257086614169
21
-0.9830532283464567
0
LINE
8
BLACK
6
CONTINUOUS
10
7.1123257086614169
20
-0.9830532283464567
11
7.1083547244094483
21
-0.9841172440944882
0
LINE
8
BLACK
6
CONTINUOUS
10
7.1083547244094483
20
-0.9841172440944882
11
7.106299212598425
21
-0.984251968503937
0
LINE
8
BLACK
6
CONTINUOUS
10
7.106299212598425
20
-0.984251968503937
11
7.0196850393700787
21
-0.984251968503937
0
LINE
8
BLACK
6
CONTINUOUS
10
7.0196850393700787
20
-0.984251968503937
11
7.0176295275590546
21
-0.9841172440944882
0
LINE
8
BLACK
6
CONTINUOUS
10
7.0176295275590546
20
-0.9841172440944882
11
7.0136585433070868
21
-0.9830532283464567
0
LINE
8
BLACK
6
CONTINUOUS
10
7.0136585433070868
20
-0.9830532283464567
11
7.0100982283464566
21
-0.9809976771653544
0
LINE
8
BLACK
6
CONTINUOUS
10
7.0100982283464566
20
-0.9809976771653544
11
7.0071912992125984
21
-0.9780907480314961
0
LINE
8
BLACK
6
CONTINUOUS
10
7.0071912992125984
20
-0.9780907480314961
11
7.0051357480314955
21
-0.9745304330708661
0
LINE
8
BLACK
6
CONTINUOUS
10
7.0051357480314955
20
-0.9745304330708661
11
7.0040717322834647
21
-0.9705594488188977
0
LINE
8
BLACK
6
CONTINUOUS
10
7.0040717322834647
20
-0.9705594488188977
11
7.0040717322834647
21
-0.9664484251968504
0
LINE
8
BLACK
6
CONTINUOUS
10
7.0040717322834647
20
-0.9664484251968504
11
7.0051357480314955
21
-0.9624774409448819
0
LINE
8
BLACK
6
CONTINUOUS
10
7.0051357480314955
20
-0.9624774409448819
11
7.0071912992125984
21
-0.9589171259842519
0
LINE
8
BLACK
6
CONTINUOUS
10
7.0071912992125984
20
-0.9589171259842519
11
7.0100982283464566
21
-0.9560101968503937
0
LINE
8
BLACK
6
CONTINUOUS
10
7.0100982283464566
20
-0.9560101968503937
11
7.0136585433070868
21
-0.9539546456692913
0
LINE
8
BLACK
6
CONTINUOUS
10
7.0136585433070868
20
-0.9539546456692913
11
7.0176295275590546
21
-0.9528906299212598
0
LINE
8
BLACK
6
CONTINUOUS
10
7.0176295275590546
20
-0.9528906299212598
11
7.0196850393700787
21
-0.952755905511811
0
LINE
8
BLACK
6
CONTINUOUS
10
7.0196850393700787
20
-0.952755905511811
11
7.106299212598425
21
-0.952755905511811
0
LINE
8
BLACK
6
CONTINUOUS
10
7.106299212598425
20
-0.952755905511811
11
7.1083547244094483
21
-0.9528906299212598
0
LINE
8
BLACK
6
CONTINUOUS
10
6.8896290551181103
20
-1.1241027559055117
11
6.8885650393700786
21
-1.1280737401574803
0
LINE
8
BLACK
6
CONTINUOUS
10
6.8885650393700786
20
-1.1280737401574803
11
6.8865094881889766
21
-1.1316340551181101
0
LINE
8
BLACK
6
CONTINUOUS
10
6.8865094881889766
20
-1.1316340551181101
11
6.8836025590551175
21
-1.1345409842519685
0
LINE
8
BLACK
6
CONTINUOUS
10
6.8836025590551175
20
-1.1345409842519685
11
6.8800422440944882
21
-1.1365965354330709
0
LINE
8
BLACK
6
CONTINUOUS
10
6.8800422440944882
20
-1.1365965354330709
11
6.8760712598425195
21
-1.1376605511811024
0
LINE
8
BLACK
6
CONTINUOUS
10
6.8760712598425195
20
-1.1376605511811024
11
6.8719602362204721
21
-1.1376605511811024
0
LINE
8
BLACK
6
CONTINUOUS
10
6.8719602362204721
20
-1.1376605511811024
11
6.8679892519685035
21
-1.1365965354330709
0
LINE
8
BLACK
6
CONTINUOUS
10
6.8679892519685035
20
-1.1365965354330709
11
6.8644289370078742
21
-1.1345409842519685
0
LINE
8
BLACK
6
CONTINUOUS
10
6.8644289370078742
20
-1.1345409842519685
11
6.861522007874016
21
-1.1316340551181101
0
LINE
8
BLACK
6
CONTINUOUS
10
6.861522007874016
20
-1.1316340551181101
11
6.8594664566929131
21
-1.1280737401574803
0
LINE
8
BLACK
6
CONTINUOUS
10
6.8594664566929131
20
-1.1280737401574803
11
6.8584024409448814
21
-1.1241027559055117
0
LINE
8
BLACK
6
CONTINUOUS
10
6.8584024409448814
20
-1.1241027559055117
11
6.8582677165354333
21
-1.1220472440944882
0
LINE
8
BLACK
6
CONTINUOUS
10
6.8582677165354333
20
-1.1220472440944882
11
6.8582677165354333
21
-1.0354330708661417
0
LINE
8
BLACK
6
CONTINUOUS
10
6.8582677165354333
20
-1.0354330708661417
11
6.8584024409448814
21
-1.0333775590551182
0
LINE
8
BLACK
6
CONTINUOUS
10
6.8584024409448814
20
-1.0333775590551182
11
6.8594664566929131
21
-1.0294065748031496
0
LINE
8
BLACK
6
CONTINUOUS
10
6.8594664566929131
20
-1.0294065748031496
11
6.861522007874016
21
-1.0258462598425198
0
LINE
8
BLACK
6
CONTINUOUS
10
6.861522007874016
20
-1.0258462598425198
11
6.8644289370078742
21
-1.0229393307086614
0
LINE
8
BLACK
6
CONTINUOUS
10
6.8644289370078742
20
-1.0229393307086614
11
6.8679892519685035
21
-1.0208837795275589
0
LINE
8
BLACK
6
CONTINUOUS
10
6.8679892519685035
20
-1.0208837795275589
11
6.8719602362204721
21
-1.0198197637795274
0
LINE
8
BLACK
6
CONTINUOUS
10
6.8719602362204721
20
-1.0198197637795274
11
6.8760712598425195
21
-1.0198197637795274
0
LINE
8
BLACK
6
CONTINUOUS
10
6.8760712598425195
20
-1.0198197637795274
11
6.8800422440944882
21
-1.0208837795275589
0
LINE
8
BLACK
6
CONTINUOUS
10
6.8800422440944882
20
-1.0208837795275589
11
6.8836025590551175
21
-1.0229393307086614
0
LINE
8
BLACK
6
CONTINUOUS
10
6.8836025590551175
20
-1.0229393307086614
11
6.8865094881889766
21
-1.0258462598425198
0
LINE
8
BLACK
6
CONTINUOUS
10
6.8865094881889766
20
-1.0258462598425198
11
6.8885650393700786
21
-1.0294065748031496
0
LINE
8
BLACK
6
CONTINUOUS
10
6.8885650393700786
20
-1.0294065748031496
11
6.8896290551181103
21
-1.0333775590551182
0
LINE
8
BLACK
6
CONTINUOUS
10
6.8896290551181103
20
-1.0333775590551182
11
6.8897637795275593
21
-1.0354330708661417
0
LINE
8
BLACK
6
CONTINUOUS
10
6.8897637795275593
20
-1.0354330708661417
11
6.8897637795275593
21
-1.1220472440944882
0
LINE
8
BLACK
6
CONTINUOUS
10
6.8897637795275593
20
-1.1220472440944882
11
6.8896290551181103
21
-1.1241027559055117
0
CIRCLE
8
BLACK
10
7.0275590551181102
20
-1.1106299212598425
40
0.0255905511811024
0
CIRCLE
8
BLACK
10
7.0275590551181102
20
-0.9137795275590551
40
0.0255905511811024
0
CIRCLE
8
BLACK
10
1.1043307086614174
20
-3.5826771653543306
40
0.0275590551181102
0
CIRCLE
8
BLACK
10
1.1043307086614174
20
-2.9437007874015748
40
0.0275590551181102
0
CIRCLE
8
BLACK
10
0.8543307086614172
20
-3.5826771653543306
40
0.0275590551181102
0
CIRCLE
8
BLACK
10
0.8543307086614172
20
-2.9437007874015748
40
0.0275590551181102
0
CIRCLE
8
BLACK
10
1.3543307086614174
20
-3.5826771653543306
40
0.0275590551181102
0
CIRCLE
8
BLACK
10
1.3543307086614174
20
-2.9437007874015748
40
0.0275590551181102
0
CIRCLE
8
BLACK
10
7.1633858267716537
20
-3.7399606299212595
40
0.0275590551181102
0
CIRCLE
8
BLACK
10
7.1633858267716537
20
-4.3789370078740157
40
0.0275590551181102
0
CIRCLE
8
BLACK
10
7.4133858267716537
20
-3.7399606299212595
40
0.0275590551181102
0
CIRCLE
8
BLACK
10
7.4133858267716537
20
-4.3789370078740157
40
0.0275590551181102
0
CIRCLE
8
BLACK
10
6.9133858267716537
20
-3.7399606299212595
40
0.0275590551181102
0
CIRCLE
8
BLACK
10
6.9133858267716537
20
-4.3789370078740157
40
0.0275590551181102
0
CIRCLE
8
BLACK
10
5.0911417322834644
20
-1.75
40
0.0196850393700787
0
CIRCLE
8
BLACK
10
5.1911417322834641
20
-1.75
40
0.0196850393700787
0
CIRCLE
8
BLACK
10
5.2911417322834646
20
-1.75
40
0.0196850393700787
0
CIRCLE
8
BLACK
10
4.6842519685039372
20
-4.7842519685039369
40
0.0531496062992126
0
CIRCLE
8
BLACK
10
3.1535433070866139
20
-0.8297244094488189
40
0.0098425196850394
0
CIRCLE
8
BLACK
10
3.1535433070866139
20
-0.8690944881889764
40
0.0098425196850394
0
CIRCLE
8
BLACK
10
3.1535433070866139
20
-0.9084645669291338
40
0.0098425196850394
0
CIRCLE
8
BLACK
10
3.1535433070866139
20
-0.9478346456692913
40
0.0098425196850394
0
CIRCLE
8
BLACK
10
3.1535433070866139
20
-0.9872047244094488
40
0.0098425196850394
0
CIRCLE
8
BLACK
10
3.1535433070866139
20
-1.0265748031496063
40
0.0098425196850394
0
CIRCLE
8
BLACK
10
3.1535433070866139
20
-1.1840551181102361
40
0.0098425196850394
0
CIRCLE
8
BLACK
10
3.1535433070866139
20
-1.2234251968503937
40
0.0098425196850394
0
CIRCLE
8
BLACK
10
3.1535433070866139
20
-1.2627952755905512
40
0.0098425196850394
0
CIRCLE
8
BLACK
10
3.1535433070866139
20
-1.3021653543307086
40
0.0098425196850394
0
CIRCLE
8
BLACK
10
3.1535433070866139
20
-1.3415354330708662
40
0.0098425196850394
0
CIRCLE
8
BLACK
10
3.1535433070866139
20
-1.3809055118110236
40
0.0098425196850394
0
CIRCLE
8
BLACK
10
3.1535433070866139
20
-1.420275590551181
40
0.0098425196850394
0
CIRCLE
8
BLACK
10
3.1929133858267718
20
-1.420275590551181
40
0.0098425196850394
0
CIRCLE
8
BLACK
10
3.2322834645669292
20
-1.420275590551181
40
0.0098425196850394
0
CIRCLE
8
BLACK
10
3.2716535433070866
20
-1.420275590551181
40
0.0098425196850394
0
CIRCLE
8
BLACK
10
3.311023622047244
20
-1.420275590551181
40
0.0098425196850394
0
CIRCLE
8
BLACK
10
3.3503937007874014
20
-1.420275590551181
40
0.0098425196850394
0
CIRCLE
8
BLACK
10
3.3897637795275588
20
-1.420275590551181
40
0.0098425196850394
0
CIRCLE
8
BLACK
10
3.4291338582677167
20
-1.420275590551181
40
0.0098425196850394
0
CIRCLE
8
BLACK
10
3.4685039370078741
20
-1.420275590551181
40
0.0098425196850394
0
CIRCLE
8
BLACK
10
3.5078740157480315
20
-1.420275590551181
40
0.0098425196850394
0
CIRCLE
8
BLACK
10
3.5472440944881889
20
-1.420275590551181
40
0.0098425196850394
0
CIRCLE
8
BLACK
10
3.5866141732283463
20
-1.420275590551181
40
0.0098425196850394
0
CIRCLE
8
BLACK
10
3.6259842519685037
20
-1.420275590551181
40
0.0098425196850394
0
CIRCLE
8
BLACK
10
3.6653543307086611
20
-1.420275590551181
40
0.0098425196850394
0
CIRCLE
8
BLACK
10
3.704724409448819
20
-1.420275590551181
40
0.0098425196850394
0
CIRCLE
8
BLACK
10
3.7440944881889764
20
-1.420275590551181
40
0.0098425196850394
0
CIRCLE
8
BLACK
10
3.7834645669291338
20
-1.420275590551181
40
0.0098425196850394
0
CIRCLE
8
BLACK
10
3.8228346456692912
20
-1.420275590551181
40
0.0098425196850394
0
CIRCLE
8
BLACK
10
3.8622047244094486
20
-1.420275590551181
40
0.0098425196850394
0
CIRCLE
8
BLACK
10
3.901574803149606
20
-1.420275590551181
40
0.0098425196850394
0
CIRCLE
8
BLACK
10
3.9409448818897639
20
-1.420275590551181
40
0.0098425196850394
0
CIRCLE
8
BLACK
10
3.9803149606299213
20
-1.420275590551181
40
0.0098425196850394
0
CIRCLE
8
BLACK
10
4.0196850393700787
20
-1.420275590551181
40
0.0098425196850394
0
CIRCLE
8
BLACK
10
4.0590551181102361
20
-1.420275590551181
40
0.0098425196850394
0
CIRCLE
8
BLACK
10
4.0984251968503935
20
-1.420275590551181
40
0.0098425196850394
0
CIRCLE
8
BLACK
10
4.1377952755905509
20
-1.420275590551181
40
0.0098425196850394
0
CIRCLE
8
BLACK
10
4.1771653543307083
20
-1.420275590551181
40
0.0098425196850394
0
CIRCLE
8
BLACK
10
4.2165354330708658
20
-1.420275590551181
40
0.0098425196850394
0
CIRCLE
8
BLACK
10
4.2559055118110232
20
-1.420275590551181
40
0.0098425196850394
0
CIRCLE
8
BLACK
10
4.2952755905511806
20
-1.420275590551181
40
0.0098425196850394
0
CIRCLE
8
BLACK
10
4.3346456692913389
20
-1.420275590551181
40
0.0098425196850394
0
CIRCLE
8
BLACK
10
4.3740157480314963
20
-1.420275590551181
40
0.0098425196850394
0
CIRCLE
8
BLACK
10
4.4133858267716537
20
-1.420275590551181
40
0.0098425196850394
0
CIRCLE
8
BLACK
10
4.4527559055118111
20
-1.420275590551181
40
0.0098425196850394
0
CIRCLE
8
BLACK
10
4.4921259842519685
20
-1.420275590551181
40
0.0098425196850394
0
CIRCLE
8
BLACK
10
4.5314960629921259
20
-1.420275590551181
40
0.0098425196850394
0
CIRCLE
8
BLACK
10
4.5708661417322833
20
-1.420275590551181
40
0.0098425196850394
0
CIRCLE
8
BLACK
10
4.6102362204724407
20
-1.420275590551181
40
0.0098425196850394
0
CIRCLE
8
BLACK
10
4.6496062992125982
20
-1.420275590551181
40
0.0098425196850394
0
CIRCLE
8
BLACK
10
4.6889763779527556
20
-1.420275590551181
40
0.0098425196850394
0
CIRCLE
8
BLACK
10
4.728346456692913
20
-1.420275590551181
40
0.0098425196850394
0
CIRCLE
8
BLACK
10
4.7677165354330704
20
-1.420275590551181
40
0.0098425196850394
0
CIRCLE
8
BLACK
10
4.8070866141732278
20
-1.420275590551181
40
0.0098425196850394
0
CIRCLE
8
BLACK
10
4.8464566929133861
20
-1.420275590551181
40
0.0098425196850394
0
CIRCLE
8
BLACK
10
4.8858267716535435
20
-1.420275590551181
40
0.0098425196850394
0
CIRCLE
8
BLACK
10
4.9251968503937009
20
-1.420275590551181
40
0.0098425196850394
0
CIRCLE
8
BLACK
10
4.9645669291338583
20
-1.420275590551181
40
0.0098425196850394
0
CIRCLE
8
BLACK
10
5.0039370078740157
20
-1.420275590551181
40
0.0098425196850394
0
CIRCLE
8
BLACK
10
5.0433070866141732
20
-1.420275590551181
40
0.0098425196850394
0
CIRCLE
8
BLACK
10
5.0826771653543306
20
-1.420275590551181
40
0.0098425196850394
0
CIRCLE
8
BLACK
10
5.122047244094488
20
-0.8297244094488189
40
0.0098425196850394
0
CIRCLE
8
BLACK
10
5.122047244094488
20
-0.8690944881889764
40
0.0098425196850394
0
CIRCLE
8
BLACK
10
5.122047244094488
20
-0.9084645669291338
40
0.0098425196850394
0
CIRCLE
8
BLACK
10
5.122047244094488
20
-0.9478346456692913
40
0.0098425196850394
0
CIRCLE
8
BLACK
10
5.122047244094488
20
-0.9872047244094488
40
0.0098425196850394
0
CIRCLE
8
BLACK
10
5.122047244094488
20
-1.0265748031496063
40
0.0098425196850394
0
CIRCLE
8
BLACK
10
5.122047244094488
20
-1.0659448818897637
40
0.0098425196850394
0
CIRCLE
8
BLACK
10
5.122047244094488
20
-1.1053149606299213
40
0.0098425196850394
0
CIRCLE
8
BLACK
10
5.122047244094488
20
-1.1446850393700787
40
0.0098425196850394
0
CIRCLE
8
BLACK
10
5.122047244094488
20
-1.1840551181102361
40
0.0098425196850394
0
CIRCLE
8
BLACK
10
5.122047244094488
20
-1.2234251968503937
40
0.0098425196850394
0
CIRCLE
8
BLACK
10
5.122047244094488
20
-1.2627952755905512
40
0.0098425196850394
0
CIRCLE
8
BLACK
10
5.122047244094488
20
-1.3021653543307086
40
0.0098425196850394
0
CIRCLE
8
BLACK
10
5.122047244094488
20
-1.3415354330708662
40
0.0098425196850394
0
CIRCLE
8
BLACK
10
5.122047244094488
20
-1.3809055118110236
40
0.0098425196850394
0
CIRCLE
8
BLACK
10
5.122047244094488
20
-1.420275590551181
40
0.0098425196850394
0
CIRCLE
8
BLACK
10
0.984251968503937
20
-0.905511811023622
40
0.0531496062992126
0
CIRCLE
8
BLACK
10
7.1639763779527561
20
-1.3307086614173229
40
0.0275590551181102
0
CIRCLE
8
BLACK
10
7.1639763779527561
20
-1.9696850393700787
40
0.0275590551181102
0
CIRCLE
8
BLACK
10
7.4139763779527561
20
-1.3307086614173229
40
0.0275590551181102
0
CIRCLE
8
BLACK
10
7.4139763779527561
20
-1.9696850393700787
40
0.0275590551181102
0
CIRCLE
8
BLACK
10
6.9139763779527561
20
-1.3307086614173229
40
0.0275590551181102
0
CIRCLE
8
BLACK
10
6.9139763779527561
20
-1.9696850393700787
40
0.0275590551181102
0
CIRCLE
8
BLACK
10
6.6141732283464565
20
-2.5
40
0.0531496062992126
0
CIRCLE
8
BLACK
10
4.4291338582677167
20
-1.2598425196850394
40
0.026
0
CIRCLE
8
BLACK
10
4.7244094488188972
20
-1.2598425196850394
40
0.026
0
CIRCLE
8
BLACK
10
5.0196850393700787
20
-1.2598425196850394
40
0.026
0
CIRCLE
8
BLACK
10
4.5275590551181102
20
-1.3582677165354331
40
0.026
0
CIRCLE
8
BLACK
10
4.9212598425196852
20
-1.3582677165354331
40
0.026
0
CIRCLE
8
BLACK
10
4.8228346456692917
20
-0.8661417322834646
40
0.026
0
CIRCLE
8
BLACK
10
4.9212598425196852
20
-0.8661417322834646
40
0.026
0
CIRCLE
8
BLACK
10
4.5275590551181102
20
-0.8661417322834646
40
0.026
0
CIRCLE
8
BLACK
10
4.6259842519685037
20
-0.8661417322834646
40
0.026
0
CIRCLE
8
BLACK
10
4.6850393700787398
20
-2.5
40
0.0531496062992126
0
CIRCLE
8
BLACK
10
2.372047244094488
20
-1.2401574803149606
40
0.0196850393700787
0
CIRCLE
8
BLACK
10
2.372047244094488
20
-1.4370078740157479
40
0.0196850393700787
0
CIRCLE
8
BLACK
10
2.372047244094488
20
-1.3385826771653544
40
0.0196850393700787
0
CIRCLE
8
BLACK
10
2.6673228346456694
20
-1.1181102362204725
40
0.0511811023622047
0
CIRCLE
8
BLACK
10
2.6673228346456694
20
-1.5590551181102361
40
0.0511811023622047
0
CIRCLE
8
BLACK
10
2.9429133858267718
20
-1.4370078740157479
40
0.0196850393700787
0
CIRCLE
8
BLACK
10
2.9429133858267718
20
-1.2401574803149606
40
0.0196850393700787
0
CIRCLE
8
BLACK
10
6.3570866141732285
20
-1.6437007874015748
40
0.0059055118110236
0
CIRCLE
8
BLACK
10
6.3059055118110239
20
-1.6437007874015748
40
0.0059055118110236
0
CIRCLE
8
BLACK
10
6.2547244094488184
20
-1.6437007874015748
40
0.0059055118110236
0
CIRCLE
8
BLACK
10
6.2035433070866137
20
-1.6437007874015748
40
0.0059055118110236
0
CIRCLE
8
BLACK
10
6.3570866141732285
20
-1.6948818897637794
40
0.0059055118110236
0
CIRCLE
8
BLACK
10
6.3059055118110239
20
-1.6948818897637794
40
0.0059055118110236
0
CIRCLE
8
BLACK
10
6.2547244094488184
20
-1.6948818897637794
40
0.0059055118110236
0
CIRCLE
8
BLACK
10
6.2035433070866137
20
-1.6948818897637794
40
0.0059055118110236
0
CIRCLE
8
BLACK
10
6.6141732283464565
20
-5.0393700787401574
40
0.0531496062992126
0
CIRCLE
8
BLACK
10
4.2214566929133861
20
-3.2007874015748032
40
0.0196850393700787
0
CIRCLE
8
BLACK
10
4.1214566929133856
20
-3.2007874015748032
40
0.0196850393700787
0
CIRCLE
8
BLACK
10
4.0214566929133859
20
-3.2007874015748032
40
0.0196850393700787
0
CIRCLE
8
BLACK
10
7.1633858267716537
20
-2.9440944881889761
40
0.0275590551181102
0
CIRCLE
8
BLACK
10
7.1633858267716537
20
-3.5830708661417323
40
0.0275590551181102
0
CIRCLE
8
BLACK
10
7.4133858267716537
20
-2.9440944881889761
40
0.0275590551181102
0
CIRCLE
8
BLACK
10
7.4133858267716537
20
-3.5830708661417323
40
0.0275590551181102
0
CIRCLE
8
BLACK
10
6.9133858267716537
20
-2.9440944881889761
40
0.0275590551181102
0
CIRCLE
8
BLACK
10
6.9133858267716537
20
-3.5830708661417323
40
0.0275590551181102
0
LINE
8
BLACK
6
CONTINUOUS
10
0.7815229921259842
20
-2.1022832283464568
11
0.7849975984251968
21
-2.1032142519685038
0
LINE
8
BLACK
6
CONTINUOUS
10
0.7849975984251968
20
-2.1032142519685038
11
0.788112874015748
21
-2.1050128346456694
0
LINE
8
BLACK
6
CONTINUOUS
10
0.788112874015748
20
-2.1050128346456694
11
0.7906564566929134
21
-2.1075564173228347
0
LINE
8
BLACK
6
CONTINUOUS
10
0.7906564566929134
20
-2.1075564173228347
11
0.7924550393700788
21
-2.1106716929133857
0
LINE
8
BLACK
6
CONTINUOUS
10
0.7924550393700788
20
-2.1106716929133857
11
0.793386062992126
21
-2.1141462992125986
0
LINE
8
BLACK
6
CONTINUOUS
10
0.793386062992126
20
-2.1141462992125986
11
0.793386062992126
21
-2.1177434645669293
0
LINE
8
BLACK
6
CONTINUOUS
10
0.793386062992126
20
-2.1177434645669293
11
0.7924550393700788
21
-2.1212180708661417
0
LINE
8
BLACK
6
CONTINUOUS
10
0.7924550393700788
20
-2.1212180708661417
11
0.7906564566929134
21
-2.1243333464566927
0
LINE
8
BLACK
6
CONTINUOUS
10
0.7906564566929134
20
-2.1243333464566927
11
0.788112874015748
21
-2.1268769291338581
0
LINE
8
BLACK
6
CONTINUOUS
10
0.788112874015748
20
-2.1268769291338581
11
0.7849975984251968
21
-2.1286755118110237
0
LINE
8
BLACK
6
CONTINUOUS
10
0.7849975984251968
20
-2.1286755118110237
11
0.7815229921259842
21
-2.1296065354330707
0
LINE
8
BLACK
6
CONTINUOUS
10
0.7815229921259842
20
-2.1296065354330707
11
0.7797244094488189
21
-2.1297244094488188
0
LINE
8
BLACK
6
CONTINUOUS
10
0.7797244094488189
20
-2.1297244094488188
11
0.7600393700787401
21
-2.1297244094488188
0
LINE
8
BLACK
6
CONTINUOUS
10
0.7600393700787401
20
-2.1297244094488188
11
0.7582407874015747
21
-2.1296065354330707
0
LINE
8
BLACK
6
CONTINUOUS
10
0.7582407874015747
20
-2.1296065354330707
11
0.7547661811023622
21
-2.1286755118110237
0
LINE
8
BLACK
6
CONTINUOUS
10
0.7547661811023622
20
-2.1286755118110237
11
0.751650905511811
21
-2.1268769291338581
0
LINE
8
BLACK
6
CONTINUOUS
10
0.751650905511811
20
-2.1268769291338581
11
0.7491073228346457
21
-2.1243333464566927
0
LINE
8
BLACK
6
CONTINUOUS
10
0.7491073228346457
20
-2.1243333464566927
11
0.7473087401574803
21
-2.1212180708661417
0
LINE
8
BLACK
6
CONTINUOUS
10
0.7473087401574803
20
-2.1212180708661417
11
0.7463777165354331
21
-2.1177434645669293
0
LINE
8
BLACK
6
CONTINUOUS
10
0.7463777165354331
20
-2.1177434645669293
11
0.7463777165354331
21
-2.1141462992125986
0
LINE
8
BLACK
6
CONTINUOUS
10
0.7463777165354331
20
-2.1141462992125986
11
0.7473087401574803
21
-2.1106716929133857
0
LINE
8
BLACK
6
CONTINUOUS
10
0.7473087401574803
20
-2.1106716929133857
11
0.7491073228346457
21
-2.1075564173228347
0
LINE
8
BLACK
6
CONTINUOUS
10
0.7491073228346457
20
-2.1075564173228347
11
0.751650905511811
21
-2.1050128346456694
0
LINE
8
BLACK
6
CONTINUOUS
10
0.751650905511811
20
-2.1050128346456694
11
0.7547661811023622
21
-2.1032142519685038
0
LINE
8
BLACK
6
CONTINUOUS
10
0.7547661811023622
20
-2.1032142519685038
11
0.7582407874015747
21
-2.1022832283464568
0
LINE
8
BLACK
6
CONTINUOUS
10
0.7582407874015747
20
-2.1022832283464568
11
0.7600393700787401
21
-2.1021653543307086
0
LINE
8
BLACK
6
CONTINUOUS
10
0.7600393700787401
20
-2.1021653543307086
11
0.7797244094488189
21
-2.1021653543307086
0
LINE
8
BLACK
6
CONTINUOUS
10
0.7797244094488189
20
-2.1021653543307086
11
0.7815229921259842
21
-2.1022832283464568
0
LINE
8
BLACK
6
CONTINUOUS
10
0.8975362598425196
20
-2.115463779527559
11
0.9007626771653543
21
-2.1163283070866141
0
LINE
8
BLACK
6
CONTINUOUS
10
0.9007626771653543
20
-2.1163283070866141
11
0.9036553937007874
21
-2.1179984251968502
0
LINE
8
BLACK
6
CONTINUOUS
10
0.9036553937007874
20
-2.1179984251968502
11
0.9060173228346456
21
-2.1203603543307086
0
LINE
8
BLACK
6
CONTINUOUS
10
0.9060173228346456
20
-2.1203603543307086
11
0.9076874409448819
21
-2.1232530708661419
0
LINE
8
BLACK
6
CONTINUOUS
10
0.9076874409448819
20
-2.1232530708661419
11
0.9085519685039369
21
-2.1264794881889761
0
LINE
8
BLACK
6
CONTINUOUS
10
0.9085519685039369
20
-2.1264794881889761
11
0.9085519685039369
21
-2.1298197244094488
0
LINE
8
BLACK
6
CONTINUOUS
10
0.9085519685039369
20
-2.1298197244094488
11
0.9076874409448819
21
-2.1330461417322835
0
LINE
8
BLACK
6
CONTINUOUS
10
0.9076874409448819
20
-2.1330461417322835
11
0.9060173228346456
21
-2.1359388582677163
0
LINE
8
BLACK
6
CONTINUOUS
10
0.9060173228346456
20
-2.1359388582677163
11
0.9036553937007874
21
-2.1383007874015747
0
LINE
8
BLACK
6
CONTINUOUS
10
0.9036553937007874
20
-2.1383007874015747
11
0.9007626771653543
21
-2.1399709055118108
0
LINE
8
BLACK
6
CONTINUOUS
10
0.9007626771653543
20
-2.1399709055118108
11
0.8975362598425196
21
-2.1408354330708659
0
LINE
8
BLACK
6
CONTINUOUS
10
0.8975362598425196
20
-2.1408354330708659
11
0.8958661417322834
21
-2.1409448818897636
0
LINE
8
BLACK
6
CONTINUOUS
10
0.8958661417322834
20
-2.1409448818897636
11
0.8801181102362204
21
-2.1409448818897636
0
LINE
8
BLACK
6
CONTINUOUS
10
0.8801181102362204
20
-2.1409448818897636
11
0.8784479921259842
21
-2.1408354330708659
0
LINE
8
BLACK
6
CONTINUOUS
10
0.8784479921259842
20
-2.1408354330708659
11
0.8752215748031495
21
-2.1399709055118108
0
LINE
8
BLACK
6
CONTINUOUS
10
0.8752215748031495
20
-2.1399709055118108
11
0.8723288582677166
21
-2.1383007874015747
0
LINE
8
BLACK
6
CONTINUOUS
10
0.8723288582677166
20
-2.1383007874015747
11
0.8699669291338582
21
-2.1359388582677163
0
LINE
8
BLACK
6
CONTINUOUS
10
0.8699669291338582
20
-2.1359388582677163
11
0.868296811023622
21
-2.1330461417322835
0
LINE
8
BLACK
6
CONTINUOUS
10
0.868296811023622
20
-2.1330461417322835
11
0.8674322834645669
21
-2.1298197244094488
0
LINE
8
BLACK
6
CONTINUOUS
10
0.8674322834645669
20
-2.1298197244094488
11
0.8674322834645669
21
-2.1264794881889761
0
LINE
8
BLACK
6
CONTINUOUS
10
0.8674322834645669
20
-2.1264794881889761
11
0.868296811023622
21
-2.1232530708661419
0
LINE
8
BLACK
6
CONTINUOUS
10
0.868296811023622
20
-2.1232530708661419
11
0.8699669291338582
21
-2.1203603543307086
0
LINE
8
BLACK
6
CONTINUOUS
10
0.8699669291338582
20
-2.1203603543307086
11
0.8723288582677166
21
-2.1179984251968502
0
LINE
8
BLACK
6
CONTINUOUS
10
0.8723288582677166
20
-2.1179984251968502
11
0.8752215748031495
21
-2.1163283070866141
0
LINE
8
BLACK
6
CONTINUOUS
10
0.8752215748031495
20
-2.1163283070866141
11
0.8784479921259842
21
-2.115463779527559
0
LINE
8
BLACK
6
CONTINUOUS
10
0.8784479921259842
20
-2.115463779527559
11
0.8801181102362204
21
-2.1153543307086613
0
LINE
8
BLACK
6
CONTINUOUS
10
0.8801181102362204
20
-2.1153543307086613
11
0.8958661417322834
21
-2.1153543307086613
0
LINE
8
BLACK
6
CONTINUOUS
10
0.8958661417322834
20
-2.1153543307086613
11
0.8975362598425196
21
-2.115463779527559
0
LINE
8
BLACK
6
CONTINUOUS
10
0.8975362598425196
20
-2.3060149606299212
11
0.9007626771653543
21
-2.3068794881889763
0
LINE
8
BLACK
6
CONTINUOUS
10
0.9007626771653543
20
-2.3068794881889763
11
0.9036553937007874
21
-2.3085496062992124
0
LINE
8
BLACK
6
CONTINUOUS
10
0.9036553937007874
20
-2.3085496062992124
11
0.9060173228346456
21
-2.3109115354330707
0
LINE
8
BLACK
6
CONTINUOUS
10
0.9060173228346456
20
-2.3109115354330707
11
0.9076874409448819
21
-2.313804251968504
0
LINE
8
BLACK
6
CONTINUOUS
10
0.9076874409448819
20
-2.313804251968504
11
0.9085519685039369
21
-2.3170306692913387
0
LINE
8
BLACK
6
CONTINUOUS
10
0.9085519685039369
20
-2.3170306692913387
11
0.9085519685039369
21
-2.3203709055118109
0
LINE
8
BLACK
6
CONTINUOUS
10
0.9085519685039369
20
-2.3203709055118109
11
0.9076874409448819
21
-2.3235973228346456
0
LINE
8
BLACK
6
CONTINUOUS
10
0.9076874409448819
20
-2.3235973228346456
11
0.9060173228346456
21
-2.3264900393700785
0
LINE
8
BLACK
6
CONTINUOUS
10
0.9060173228346456
20
-2.3264900393700785
11
0.9036553937007874
21
-2.3288519685039368
0
LINE
8
BLACK
6
CONTINUOUS
10
0.9036553937007874
20
-2.3288519685039368
11
0.9007626771653543
21
-2.3305220866141734
0
LINE
8
BLACK
6
CONTINUOUS
10
0.9007626771653543
20
-2.3305220866141734
11
0.8975362598425196
21
-2.3313866141732285
0
LINE
8
BLACK
6
CONTINUOUS
10
0.8975362598425196
20
-2.3313866141732285
11
0.8958661417322834
21
-2.3314960629921258
0
LINE
8
BLACK
6
CONTINUOUS
10
0.8958661417322834
20
-2.3314960629921258
11
0.8801181102362204
21
-2.3314960629921258
0
LINE
8
BLACK
6
CONTINUOUS
10
0.8801181102362204
20
-2.3314960629921258
11
0.8784479921259842
21
-2.3313866141732285
0
LINE
8
BLACK
6
CONTINUOUS
10
0.8784479921259842
20
-2.3313866141732285
11
0.8752215748031495
21
-2.3305220866141734
0
LINE
8
BLACK
6
CONTINUOUS
10
0.8752215748031495
20
-2.3305220866141734
11
0.8723288582677166
21
-2.3288519685039368
0
LINE
8
BLACK
6
CONTINUOUS
10
0.8723288582677166
20
-2.3288519685039368
11
0.8699669291338582
21
-2.3264900393700785
0
LINE
8
BLACK
6
CONTINUOUS
10
0.8699669291338582
20
-2.3264900393700785
11
0.868296811023622
21
-2.3235973228346456
0
LINE
8
BLACK
6
CONTINUOUS
10
0.868296811023622
20
-2.3235973228346456
11
0.8674322834645669
21
-2.3203709055118109
0
LINE
8
BLACK
6
CONTINUOUS
10
0.8674322834645669
20
-2.3203709055118109
11
0.8674322834645669
21
-2.3170306692913387
0
LINE
8
BLACK
6
CONTINUOUS
10
0.8674322834645669
20
-2.3170306692913387
11
0.868296811023622
21
-2.313804251968504
0
LINE
8
BLACK
6
CONTINUOUS
10
0.868296811023622
20
-2.313804251968504
11
0.8699669291338582
21
-2.3109115354330707
0
LINE
8
BLACK
6
CONTINUOUS
10
0.8699669291338582
20
-2.3109115354330707
11
0.8723288582677166
21
-2.3085496062992124
0
LINE
8
BLACK
6
CONTINUOUS
10
0.8723288582677166
20
-2.3085496062992124
11
0.8752215748031495
21
-2.3068794881889763
0
LINE
8
BLACK
6
CONTINUOUS
10
0.8752215748031495
20
-2.3068794881889763
11
0.8784479921259842
21
-2.3060149606299212
0
LINE
8
BLACK
6
CONTINUOUS
10
0.8784479921259842
20
-2.3060149606299212
11
0.8801181102362204
21
-2.3059055118110234
0
LINE
8
BLACK
6
CONTINUOUS
10
0.8801181102362204
20
-2.3059055118110234
11
0.8958661417322834
21
-2.3059055118110234
0
LINE
8
BLACK
6
CONTINUOUS
10
0.8958661417322834
20
-2.3059055118110234
11
0.8975362598425196
21
-2.3060149606299212
0
LINE
8
BLACK
6
CONTINUOUS
10
0.7815229921259842
20
-2.3172438582677164
11
0.7849975984251968
21
-2.3181748818897638
0
LINE
8
BLACK
6
CONTINUOUS
10
0.7849975984251968
20
-2.3181748818897638
11
0.788112874015748
21
-2.319973464566929
0
LINE
8
BLACK
6
CONTINUOUS
10
0.788112874015748
20
-2.319973464566929
11
0.7906564566929134
21
-2.3225170472440944
0
LINE
8
BLACK
6
CONTINUOUS
10
0.7906564566929134
20
-2.3225170472440944
11
0.7924550393700788
21
-2.3256323228346458
0
LINE
8
BLACK
6
CONTINUOUS
10
0.7924550393700788
20
-2.3256323228346458
11
0.793386062992126
21
-2.3291069291338582
0
LINE
8
BLACK
6
CONTINUOUS
10
0.793386062992126
20
-2.3291069291338582
11
0.793386062992126
21
-2.3327040944881889
0
LINE
8
BLACK
6
CONTINUOUS
10
0.793386062992126
20
-2.3327040944881889
11
0.7924550393700788
21
-2.3361787007874013
0
LINE
8
BLACK
6
CONTINUOUS
10
0.7924550393700788
20
-2.3361787007874013
11
0.7906564566929134
21
-2.3392939763779528
0
LINE
8
BLACK
6
CONTINUOUS
10
0.7906564566929134
20
-2.3392939763779528
11
0.788112874015748
21
-2.3418375590551181
0
LINE
8
BLACK
6
CONTINUOUS
10
0.788112874015748
20
-2.3418375590551181
11
0.7849975984251968
21
-2.3436361417322833
0
LINE
8
BLACK
6
CONTINUOUS
10
0.7849975984251968
20
-2.3436361417322833
11
0.7815229921259842
21
-2.3445671653543307
0
LINE
8
BLACK
6
CONTINUOUS
10
0.7815229921259842
20
-2.3445671653543307
11
0.7797244094488189
21
-2.3446850393700789
0
LINE
8
BLACK
6
CONTINUOUS
10
0.7797244094488189
20
-2.3446850393700789
11
0.7600393700787401
21
-2.3446850393700789
0
LINE
8
BLACK
6
CONTINUOUS
10
0.7600393700787401
20
-2.3446850393700789
11
0.7582407874015747
21
-2.3445671653543307
0
LINE
8
BLACK
6
CONTINUOUS
10
0.7582407874015747
20
-2.3445671653543307
11
0.7547661811023622
21
-2.3436361417322833
0
LINE
8
BLACK
6
CONTINUOUS
10
0.7547661811023622
20
-2.3436361417322833
11
0.751650905511811
21
-2.3418375590551181
0
LINE
8
BLACK
6
CONTINUOUS
10
0.751650905511811
20
-2.3418375590551181
11
0.7491073228346457
21
-2.3392939763779528
0
LINE
8
BLACK
6
CONTINUOUS
10
0.7491073228346457
20
-2.3392939763779528
11
0.7473087401574803
21
-2.3361787007874013
0
LINE
8
BLACK
6
CONTINUOUS
10
0.7473087401574803
20
-2.3361787007874013
11
0.7463777165354331
21
-2.3327040944881889
0
LINE
8
BLACK
6
CONTINUOUS
10
0.7463777165354331
20
-2.3327040944881889
11
0.7463777165354331
21
-2.3291069291338582
0
LINE
8
BLACK
6
CONTINUOUS
10
0.7463777165354331
20
-2.3291069291338582
11
0.7473087401574803
21
-2.3256323228346458
0
LINE
8
BLACK
6
CONTINUOUS
10
0.7473087401574803
20
-2.3256323228346458
11
0.7491073228346457
21
-2.3225170472440944
0
LINE
8
BLACK
6
CONTINUOUS
10
0.7491073228346457
20
-2.3225170472440944
11
0.751650905511811
21
-2.319973464566929
0
LINE
8
BLACK
6
CONTINUOUS
10
0.751650905511811
20
-2.319973464566929
11
0.7547661811023622
21
-2.3181748818897638
0
LINE
8
BLACK
6
CONTINUOUS
10
0.7547661811023622
20
-2.3181748818897638
11
0.7582407874015747
21
-2.3172438582677164
0
LINE
8
BLACK
6
CONTINUOUS
10
0.7582407874015747
20
-2.3172438582677164
11
0.7600393700787401
21
-2.3171259842519683
0
LINE
8
BLACK
6
CONTINUOUS
10
0.7600393700787401
20
-2.3171259842519683
11
0.7797244094488189
21
-2.3171259842519683
0
LINE
8
BLACK
6
CONTINUOUS
10
0.7797244094488189
20
-2.3171259842519683
11
0.7815229921259842
21
-2.3172438582677164
0
CIRCLE
8
BLACK
10
4.1781496062992121
20
-1.8454724409448819
40
0.0068897637795276
0
CIRCLE
8
BLACK
10
4.228346456692913
20
-1.8454724409448819
40
0.0068897637795276
0
CIRCLE
8
BLACK
10
4.2785433070866139
20
-1.8454724409448819
40
0.0068897637795276
0
CIRCLE
8
BLACK
10
4.1781496062992121
20
-1.795275590551181
40
0.0068897637795276
0
CIRCLE
8
BLACK
10
4.228346456692913
20
-1.795275590551181
40
0.0068897637795276
0
CIRCLE
8
BLACK
10
4.2785433070866139
20
-1.795275590551181
40
0.0068897637795276
0
CIRCLE
8
BLACK
10
4.1781496062992121
20
-1.7450787401574803
40
0.0068897637795276
0
CIRCLE
8
BLACK
10
4.228346456692913
20
-1.7450787401574803
40
0.0068897637795276
0
CIRCLE
8
BLACK
10
4.2785433070866139
20
-1.7450787401574803
40
0.0068897637795276
0
CIRCLE
8
BLACK
10
2.089763779527559
20
-1.25
40
0.0187007874015748
0
CIRCLE
8
BLACK
10
1.9913385826771652
20
-1.25
40
0.0187007874015748
0
CIRCLE
8
BLACK
10
1.9125984251968504
20
-1.25
40
0.0187007874015748
0
CIRCLE
8
BLACK
10
1.8141732283464567
20
-1.25
40
0.0187007874015748
0
CIRCLE
8
BLACK
10
2.2106299212598426
20
-1.1433070866141732
40
0.0452755905511811
0
CIRCLE
8
BLACK
10
1.6933070866141733
20
-1.1433070866141732
40
0.0452755905511811
0
CIRCLE
8
BLACK
10
3.5039370078740157
20
-4.3897637795275593
40
0.0531496062992126
0
CIRCLE
8
BLACK
10
3.5039370078740157
20
-2.5
40
0.0531496062992126
0
CIRCLE
8
BLACK
10
2.204724409448819
20
-4.3897637795275593
40
0.0531496062992126
0
CIRCLE
8
BLACK
10
2.204724409448819
20
-2.5
40
0.0531496062992126
0
CIRCLE
8
BLACK
10
1.6535433070866141
20
-5.0393700787401574
40
0.0531496062992126
0
CIRCLE
8
BLACK
10
6.6141732283464565
20
-0.905511811023622
40
0.0531496062992126
0
CIRCLE
8
BLACK
10
5.3248031496062991
20
-1.2401574803149606
40
0.0196850393700787
0
CIRCLE
8
BLACK
10
5.3248031496062991
20
-1.4370078740157479
40
0.0196850393700787
0
CIRCLE
8
BLACK
10
5.3248031496062991
20
-1.3385826771653544
40
0.0196850393700787
0
CIRCLE
8
BLACK
10
5.6200787401574805
20
-1.1181102362204725
40
0.0511811023622047
0
CIRCLE
8
BLACK
10
5.6200787401574805
20
-1.5590551181102361
40
0.0511811023622047
0
CIRCLE
8
BLACK
10
5.8956692913385824
20
-1.4370078740157479
40
0.0196850393700787
0
CIRCLE
8
BLACK
10
5.8956692913385824
20
-1.2401574803149606
40
0.0196850393700787
0
CIRCLE
8
BLACK
10
4.1338582677165352
20
-3.8582677165354329
40
0.0531496062992126
0
CIRCLE
8
BLACK
10
3.2480314960629921
20
-1.2598425196850394
40
0.026
0
CIRCLE
8
BLACK
10
3.5433070866141732
20
-1.2598425196850394
40
0.026
0
CIRCLE
8
BLACK
10
3.8385826771653542
20
-1.2598425196850394
40
0.026
0
CIRCLE
8
BLACK
10
3.3464566929133857
20
-1.3582677165354331
40
0.026
0
CIRCLE
8
BLACK
10
3.7401574803149606
20
-1.3582677165354331
40
0.026
0
CIRCLE
8
BLACK
10
3.6417322834645667
20
-0.8661417322834646
40
0.026
0
CIRCLE
8
BLACK
10
3.7401574803149606
20
-0.8661417322834646
40
0.026
0
CIRCLE
8
BLACK
10
3.3464566929133857
20
-0.8661417322834646
40
0.026
0
CIRCLE
8
BLACK
10
3.4448818897637796
20
-0.8661417322834646
40
0.026
0
CIRCLE
8
BLACK
10
3.7399409448818899
20
-0.9645669291338582
40
0.0236220472440945
0
CIRCLE
8
BLACK
10
3.5430905511811024
20
-1.1614173228346456
40
0.0236220472440945
0
CIRCLE
8
BLACK
10
3.3462401574803149
20
-0.9645669291338582
40
0.0236220472440945
0
LINE
8
BLACK
6
CONTINUOUS
10
3.7312528740157478
20
-1.1409883858267715
11
3.7325755511811023
21
-1.1377951574803149
0
LINE
8
BLACK
6
CONTINUOUS
10
3.7325755511811023
20
-1.1377951574803149
11
3.7350195669291337
21
-1.1353511417322835
0
LINE
8
BLACK
6
CONTINUOUS
10
3.7350195669291337
20
-1.1353511417322835
11
3.7382127952755906
21
-1.1340284645669292
0
LINE
8
BLACK
6
CONTINUOUS
10
3.7382127952755906
20
-1.1340284645669292
11
3.7416690944881887
21
-1.1340284645669292
0
LINE
8
BLACK
6
CONTINUOUS
10
3.7416690944881887
20
-1.1340284645669292
11
3.7448623228346456
21
-1.1353511417322835
0
LINE
8
BLACK
6
CONTINUOUS
10
3.7448623228346456
20
-1.1353511417322835
11
3.747306338582677
21
-1.1377951574803149
0
LINE
8
BLACK
6
CONTINUOUS
10
3.747306338582677
20
-1.1377951574803149
11
3.7486290157480315
21
-1.1409883858267715
0
LINE
8
BLACK
6
CONTINUOUS
10
3.7486290157480315
20
-1.1409883858267715
11
3.7487992125984251
21
-1.1427165354330708
0
LINE
8
BLACK
6
CONTINUOUS
10
3.7487992125984251
20
-1.1427165354330708
11
3.7487992125984251
21
-1.1801181102362204
0
LINE
8
BLACK
6
CONTINUOUS
10
3.7487992125984251
20
-1.1801181102362204
11
3.7486290157480315
21
-1.1818462598425197
0
LINE
8
BLACK
6
CONTINUOUS
10
3.7486290157480315
20
-1.1818462598425197
11
3.747306338582677
21
-1.1850394881889763
0
LINE
8
BLACK
6
CONTINUOUS
10
3.747306338582677
20
-1.1850394881889763
11
3.7448623228346456
21
-1.1874835039370077
0
LINE
8
BLACK
6
CONTINUOUS
10
3.7448623228346456
20
-1.1874835039370077
11
3.7416690944881887
21
-1.1888061811023622
0
LINE
8
BLACK
6
CONTINUOUS
10
3.7416690944881887
20
-1.1888061811023622
11
3.7382127952755906
21
-1.1888061811023622
0
LINE
8
BLACK
6
CONTINUOUS
10
3.7382127952755906
20
-1.1888061811023622
11
3.7350195669291337
21
-1.1874835039370077
0
LINE
8
BLACK
6
CONTINUOUS
10
3.7350195669291337
20
-1.1874835039370077
11
3.7325755511811023
21
-1.1850394881889763
0
LINE
8
BLACK
6
CONTINUOUS
10
3.7325755511811023
20
-1.1850394881889763
11
3.7312528740157478
21
-1.1818462598425197
0
LINE
8
BLACK
6
CONTINUOUS
10
3.7312528740157478
20
-1.1818462598425197
11
3.7310826771653542
21
-1.1801181102362204
0
LINE
8
BLACK
6
CONTINUOUS
10
3.7310826771653542
20
-1.1801181102362204
11
3.7310826771653542
21
-1.1427165354330708
0
LINE
8
BLACK
6
CONTINUOUS
10
3.7310826771653542
20
-1.1427165354330708
11
3.7312528740157478
21
-1.1409883858267715
0
LINE
8
BLACK
6
CONTINUOUS
10
3.6328276771653543
20
-1.1409883858267715
11
3.6341503543307088
21
-1.1377951574803149
0
LINE
8
BLACK
6
CONTINUOUS
10
3.6341503543307088
20
-1.1377951574803149
11
3.6365943700787402
21
-1.1353511417322835
0
LINE
8
BLACK
6
CONTINUOUS
10
3.6365943700787402
20
-1.1353511417322835
11
3.6397875984251966
21
-1.1340284645669292
0
LINE
8
BLACK
6
CONTINUOUS
10
3.6397875984251966
20
-1.1340284645669292
11
3.6432438976377952
21
-1.1340284645669292
0
LINE
8
BLACK
6
CONTINUOUS
10
3.6432438976377952
20
-1.1340284645669292
11
3.6464371259842521
21
-1.1353511417322835
0
LINE
8
BLACK
6
CONTINUOUS
10
3.6464371259842521
20
-1.1353511417322835
11
3.6488811417322835
21
-1.1377951574803149
0
LINE
8
BLACK
6
CONTINUOUS
10
3.6488811417322835
20
-1.1377951574803149
11
3.6502038188976376
21
-1.1409883858267715
0
LINE
8
BLACK
6
CONTINUOUS
10
3.6502038188976376
20
-1.1409883858267715
11
3.6503740157480316
21
-1.1427165354330708
0
LINE
8
BLACK
6
CONTINUOUS
10
3.6503740157480316
20
-1.1427165354330708
11
3.6503740157480316
21
-1.1801181102362204
0
LINE
8
BLACK
6
CONTINUOUS
10
3.6503740157480316
20
-1.1801181102362204
11
3.6502038188976376
21
-1.1818462598425197
0
LINE
8
BLACK
6
CONTINUOUS
10
3.6502038188976376
20
-1.1818462598425197
11
3.6488811417322835
21
-1.1850394881889763
0
LINE
8
BLACK
6
CONTINUOUS
10
3.6488811417322835
20
-1.1850394881889763
11
3.6464371259842521
21
-1.1874835039370077
0
LINE
8
BLACK
6
CONTINUOUS
10
3.6464371259842521
20
-1.1874835039370077
11
3.6432438976377952
21
-1.1888061811023622
0
LINE
8
BLACK
6
CONTINUOUS
10
3.6432438976377952
20
-1.1888061811023622
11
3.6397875984251966
21
-1.1888061811023622
0
LINE
8
BLACK
6
CONTINUOUS
10
3.6397875984251966
20
-1.1888061811023622
11
3.6365943700787402
21
-1.1874835039370077
0
LINE
8
BLACK
6
CONTINUOUS
10
3.6365943700787402
20
-1.1874835039370077
11
3.6341503543307088
21
-1.1850394881889763
0
LINE
8
BLACK
6
CONTINUOUS
10
3.6341503543307088
20
-1.1850394881889763
11
3.6328276771653543
21
-1.1818462598425197
0
LINE
8
BLACK
6
CONTINUOUS
10
3.6328276771653543
20
-1.1818462598425197
11
3.6326574803149607
21
-1.1801181102362204
0
LINE
8
BLACK
6
CONTINUOUS
10
3.6326574803149607
20
-1.1801181102362204
11
3.6326574803149607
21
-1.1427165354330708
0
LINE
8
BLACK
6
CONTINUOUS
10
3.6326574803149607
20
-1.1427165354330708
11
3.6328276771653543
21
-1.1409883858267715
0
LINE
8
BLACK
6
CONTINUOUS
10
3.5635194881889762
20
-0.9558788582677166
11
3.5667127165354331
21
-0.9572015354330708
0
LINE
8
BLACK
6
CONTINUOUS
10
3.5667127165354331
20
-0.9572015354330708
11
3.5691567322834645
21
-0.9596455511811023
0
LINE
8
BLACK
6
CONTINUOUS
10
3.5691567322834645
20
-0.9596455511811023
11
3.570479409448819
21
-0.962838779527559
0
LINE
8
BLACK
6
CONTINUOUS
10
3.570479409448819
20
-0.962838779527559
11
3.570479409448819
21
-0.9662950787401574
0
LINE
8
BLACK
6
CONTINUOUS
10
3.570479409448819
20
-0.9662950787401574
11
3.5691567322834645
21
-0.9694883070866142
0
LINE
8
BLACK
6
CONTINUOUS
10
3.5691567322834645
20
-0.9694883070866142
11
3.5667127165354331
21
-0.9719323228346457
0
LINE
8
BLACK
6
CONTINUOUS
10
3.5667127165354331
20
-0.9719323228346457
11
3.5635194881889762
21
-0.973255
0
LINE
8
BLACK
6
CONTINUOUS
10
3.5635194881889762
20
-0.973255
11
3.5617913385826769
21
-0.9734251968503936
0
LINE
8
BLACK
6
CONTINUOUS
10
3.5617913385826769
20
-0.9734251968503936
11
3.5243897637795274
21
-0.9734251968503936
0
LINE
8
BLACK
6
CONTINUOUS
10
3.5243897637795274
20
-0.9734251968503936
11
3.5226616141732281
21
-0.973255
0
LINE
8
BLACK
6
CONTINUOUS
10
3.5226616141732281
20
-0.973255
11
3.5194683858267717
21
-0.9719323228346457
0
LINE
8
BLACK
6
CONTINUOUS
10
3.5194683858267717
20
-0.9719323228346457
11
3.5170243700787402
21
-0.9694883070866142
0
LINE
8
BLACK
6
CONTINUOUS
10
3.5170243700787402
20
-0.9694883070866142
11
3.5157016929133857
21
-0.9662950787401574
0
LINE
8
BLACK
6
CONTINUOUS
10
3.5157016929133857
20
-0.9662950787401574
11
3.5157016929133857
21
-0.962838779527559
0
LINE
8
BLACK
6
CONTINUOUS
10
3.5157016929133857
20
-0.962838779527559
11
3.5170243700787402
21
-0.9596455511811023
0
LINE
8
BLACK
6
CONTINUOUS
10
3.5170243700787402
20
-0.9596455511811023
11
3.5194683858267717
21
-0.9572015354330708
0
LINE
8
BLACK
6
CONTINUOUS
10
3.5194683858267717
20
-0.9572015354330708
11
3.5226616141732281
21
-0.9558788582677166
0
LINE
8
BLACK
6
CONTINUOUS
10
3.5226616141732281
20
-0.9558788582677166
11
3.5243897637795274
21
-0.9557086614173228
0
LINE
8
BLACK
6
CONTINUOUS
10
3.5243897637795274
20
-0.9557086614173228
11
3.5617913385826769
21
-0.9557086614173228
0
LINE
8
BLACK
6
CONTINUOUS
10
3.5617913385826769
20
-0.9557086614173228
11
3.5635194881889762
21
-0.9558788582677166
0
LINE
8
BLACK
6
CONTINUOUS
10
3.3549282283464565
20
-1.1818462598425197
11
3.3536055511811025
21
-1.1850394881889763
0
LINE
8
BLACK
6
CONTINUOUS
10
3.3536055511811025
20
-1.1850394881889763
11
3.3511615354330706
21
-1.1874835039370077
0
LINE
8
BLACK
6
CONTINUOUS
10
3.3511615354330706
20
-1.1874835039370077
11
3.3479683070866142
21
-1.1888061811023622
0
LINE
8
BLACK
6
CONTINUOUS
10
3.3479683070866142
20
-1.1888061811023622
11
3.3445120078740156
21
-1.1888061811023622
0
LINE
8
BLACK
6
CONTINUOUS
10
3.3445120078740156
20
-1.1888061811023622
11
3.3413187795275592
21
-1.1874835039370077
0
LINE
8
BLACK
6
CONTINUOUS
10
3.3413187795275592
20
-1.1874835039370077
11
3.3388747637795273
21
-1.1850394881889763
0
LINE
8
BLACK
6
CONTINUOUS
10
3.3388747637795273
20
-1.1850394881889763
11
3.3375520866141732
21
-1.1818462598425197
0
LINE
8
BLACK
6
CONTINUOUS
10
3.3375520866141732
20
-1.1818462598425197
11
3.3373818897637793
21
-1.1801181102362204
0
LINE
8
BLACK
6
CONTINUOUS
10
3.3373818897637793
20
-1.1801181102362204
11
3.3373818897637793
21
-1.1427165354330708
0
LINE
8
BLACK
6
CONTINUOUS
10
3.3373818897637793
20
-1.1427165354330708
11
3.3375520866141732
21
-1.1409883858267715
0
LINE
8
BLACK
6
CONTINUOUS
10
3.3375520866141732
20
-1.1409883858267715
11
3.3388747637795273
21
-1.1377951574803149
0
LINE
8
BLACK
6
CONTINUOUS
10
3.3388747637795273
20
-1.1377951574803149
11
3.3413187795275592
21
-1.1353511417322835
0
LINE
8
BLACK
6
CONTINUOUS
10
3.3413187795275592
20
-1.1353511417322835
11
3.3445120078740156
21
-1.1340284645669292
0
LINE
8
BLACK
6
CONTINUOUS
10
3.3445120078740156
20
-1.1340284645669292
11
3.3479683070866142
21
-1.1340284645669292
0
LINE
8
BLACK
6
CONTINUOUS
10
3.3479683070866142
20
-1.1340284645669292
11
3.3511615354330706
21
-1.1353511417322835
0
LINE
8
BLACK
6
CONTINUOUS
10
3.3511615354330706
20
-1.1353511417322835
11
3.3536055511811025
21
-1.1377951574803149
0
LINE
8
BLACK
6
CONTINUOUS
10
3.3536055511811025
20
-1.1377951574803149
11
3.3549282283464565
21
-1.1409883858267715
0
LINE
8
BLACK
6
CONTINUOUS
10
3.3549282283464565
20
-1.1409883858267715
11
3.3550984251968505
21
-1.1427165354330708
0
LINE
8
BLACK
6
CONTINUOUS
10
3.3550984251968505
20
-1.1427165354330708
11
3.3550984251968505
21
-1.1801181102362204
0
LINE
8
BLACK
6
CONTINUOUS
10
3.3550984251968505
20
-1.1801181102362204
11
3.3549282283464565
21
-1.1818462598425197
0
LINE
8
BLACK
6
CONTINUOUS
10
3.4533534251968505
20
-1.1818462598425197
11
3.452030748031496
21
-1.1850394881889763
0
LINE
8
BLACK
6
CONTINUOUS
10
3.452030748031496
20
-1.1850394881889763
11
3.4495867322834646
21
-1.1874835039370077
0
LINE
8
BLACK
6
CONTINUOUS
10
3.4495867322834646
20
-1.1874835039370077
11
3.4463935039370077
21
-1.1888061811023622
0
LINE
8
BLACK
6
CONTINUOUS
10
3.4463935039370077
20
-1.1888061811023622
11
3.4429372047244096
21
-1.1888061811023622
0
LINE
8
BLACK
6
CONTINUOUS
10
3.4429372047244096
20
-1.1888061811023622
11
3.4397439763779527
21
-1.1874835039370077
0
LINE
8
BLACK
6
CONTINUOUS
10
3.4397439763779527
20
-1.1874835039370077
11
3.4372999606299213
21
-1.1850394881889763
0
LINE
8
BLACK
6
CONTINUOUS
10
3.4372999606299213
20
-1.1850394881889763
11
3.4359772834645668
21
-1.1818462598425197
0
LINE
8
BLACK
6
CONTINUOUS
10
3.4359772834645668
20
-1.1818462598425197
11
3.4358070866141732
21
-1.1801181102362204
0
LINE
8
BLACK
6
CONTINUOUS
10
3.4358070866141732
20
-1.1801181102362204
11
3.4358070866141732
21
-1.1427165354330708
0
LINE
8
BLACK
6
CONTINUOUS
10
3.4358070866141732
20
-1.1427165354330708
11
3.4359772834645668
21
-1.1409883858267715
0
LINE
8
BLACK
6
CONTINUOUS
10
3.4359772834645668
20
-1.1409883858267715
11
3.4372999606299213
21
-1.1377951574803149
0
LINE
8
BLACK
6
CONTINUOUS
10
3.4372999606299213
20
-1.1377951574803149
11
3.4397439763779527
21
-1.1353511417322835
0
LINE
8
BLACK
6
CONTINUOUS
10
3.4397439763779527
20
-1.1353511417322835
11
3.4429372047244096
21
-1.1340284645669292
0
LINE
8
BLACK
6
CONTINUOUS
10
3.4429372047244096
20
-1.1340284645669292
11
3.4463935039370077
21
-1.1340284645669292
0
LINE
8
BLACK
6
CONTINUOUS
10
3.4463935039370077
20
-1.1340284645669292
11
3.4495867322834646
21
-1.1353511417322835
0
LINE
8
BLACK
6
CONTINUOUS
10
3.4495867322834646
20
-1.1353511417322835
11
3.452030748031496
21
-1.1377951574803149
0
LINE
8
BLACK
6
CONTINUOUS
10
3.452030748031496
20
-1.1377951574803149
11
3.4533534251968505
21
-1.1409883858267715
0
LINE
8
BLACK
6
CONTINUOUS
10
3.4533534251968505
20
-1.1409883858267715
11
3.4535236220472441
21
-1.1427165354330708
0
LINE
8
BLACK
6
CONTINUOUS
10
3.4535236220472441
20
-1.1427165354330708
11
3.4535236220472441
21
-1.1801181102362204
0
LINE
8
BLACK
6
CONTINUOUS
10
3.4535236220472441
20
-1.1801181102362204
11
3.4533534251968505
21
-1.1818462598425197
0
CIRCLE
8
BLACK
10
1.1811023622047243
20
-4.6850393700787398
40
0.0728346456692913
0
CIRCLE
8
BLACK
10
4.1338582677165352
20
-2.6377952755905509
40
0.0728346456692913
0
CIRCLE
8
BLACK
10
1.1811023622047243
20
-2.6377952755905509
40
0.0728346456692913
0
CIRCLE
8
BLACK
10
7.0866141732283463
20
-2.6377952755905509
40
0.0728346456692913
0
CIRCLE
8
BLACK
10
4.1338582677165352
20
-4.6850393700787398
40
0.0728346456692913
0
CIRCLE
8
BLACK
10
2.8724409448818897
20
-0.9248031496062992
40
0.0147637795275591
0
CIRCLE
8
BLACK
10
2.9511811023622045
20
-0.9248031496062992
40
0.0147637795275591
0
CIRCLE
8
BLACK
10
3.0299212598425198
20
-0.9248031496062992
40
0.0147637795275591
0
CIRCLE
8
BLACK
10
7.0866141732283463
20
-4.6850393700787398
40
0.0728346456692913
0
CIRCLE
8
BLACK
10
4.734251968503937
20
-2.6919527559055116
40
0.0196850393700787
0
CIRCLE
8
BLACK
10
4.6342519685039365
20
-2.6919527559055116
40
0.0196850393700787
0
CIRCLE
8
BLACK
10
4.734251968503937
20
-2.7919527559055117
40
0.0196850393700787
0
CIRCLE
8
BLACK
10
4.6342519685039365
20
-2.7919527559055117
40
0.0196850393700787
0
CIRCLE
8
BLACK
10
4.734251968503937
20
-2.8919527559055118
40
0.0196850393700787
0
CIRCLE
8
BLACK
10
4.6342519685039365
20
-2.8919527559055118
40
0.0196850393700787
0
CIRCLE
8
BLACK
10
4.734251968503937
20
-2.9919527559055119
40
0.0196850393700787
0
CIRCLE
8
BLACK
10
4.6342519685039365
20
-2.9919527559055119
40
0.0196850393700787
0
CIRCLE
8
BLACK
10
4.734251968503937
20
-3.0919527559055116
40
0.0196850393700787
0
CIRCLE
8
BLACK
10
4.6342519685039365
20
-3.0919527559055116
40
0.0196850393700787
0
CIRCLE
8
BLACK
10
4.734251968503937
20
-3.1919527559055116
40
0.0196850393700787
0
CIRCLE
8
BLACK
10
4.6342519685039365
20
-3.1919527559055116
40
0.0196850393700787
0
CIRCLE
8
BLACK
10
4.734251968503937
20
-3.2919527559055117
40
0.0196850393700787
0
CIRCLE
8
BLACK
10
4.6342519685039365
20
-3.2919527559055117
40
0.0196850393700787
0
CIRCLE
8
BLACK
10
4.734251968503937
20
-3.3919527559055118
40
0.0196850393700787
0
CIRCLE
8
BLACK
10
4.6342519685039365
20
-3.3919527559055118
40
0.0196850393700787
0
CIRCLE
8
BLACK
10
4.734251968503937
20
-3.4919527559055119
40
0.0196850393700787
0
CIRCLE
8
BLACK
10
4.6342519685039365
20
-3.4919527559055119
40
0.0196850393700787
0
CIRCLE
8
BLACK
10
4.734251968503937
20
-3.5919527559055116
40
0.0196850393700787
0
CIRCLE
8
BLACK
10
4.6342519685039365
20
-3.5919527559055116
40
0.0196850393700787
0
CIRCLE
8
BLACK
10
4.734251968503937
20
-3.6919527559055116
40
0.0196850393700787
0
CIRCLE
8
BLACK
10
4.6342519685039365
20
-3.6919527559055116
40
0.0196850393700787
0
CIRCLE
8
BLACK
10
4.734251968503937
20
-3.7919527559055117
40
0.0196850393700787
0
CIRCLE
8
BLACK
10
4.6342519685039365
20
-3.7919527559055117
40
0.0196850393700787
0
CIRCLE
8
BLACK
10
4.734251968503937
20
-3.8919527559055118
40
0.0196850393700787
0
CIRCLE
8
BLACK
10
4.6342519685039365
20
-3.8919527559055118
40
0.0196850393700787
0
CIRCLE
8
BLACK
10
4.734251968503937
20
-3.9919527559055119
40
0.0196850393700787
0
CIRCLE
8
BLACK
10
4.6342519685039365
20
-3.9919527559055119
40
0.0196850393700787
0
CIRCLE
8
BLACK
10
4.734251968503937
20
-4.0919527559055116
40
0.0196850393700787
0
CIRCLE
8
BLACK
10
4.6342519685039365
20
-4.0919527559055116
40
0.0196850393700787
0
CIRCLE
8
BLACK
10
4.734251968503937
20
-4.1919527559055121
40
0.0196850393700787
0
CIRCLE
8
BLACK
10
4.6342519685039365
20
-4.1919527559055121
40
0.0196850393700787
0
CIRCLE
8
BLACK
10
4.734251968503937
20
-4.2919527559055117
40
0.0196850393700787
0
CIRCLE
8
BLACK
10
4.6342519685039365
20
-4.2919527559055117
40
0.0196850393700787
0
CIRCLE
8
BLACK
10
4.734251968503937
20
-4.3919527559055114
40
0.0196850393700787
0
CIRCLE
8
BLACK
10
4.6342519685039365
20
-4.3919527559055114
40
0.0196850393700787
0
CIRCLE
8
BLACK
10
4.734251968503937
20
-4.4919527559055119
40
0.0196850393700787
0
CIRCLE
8
BLACK
10
4.6342519685039365
20
-4.4919527559055119
40
0.0196850393700787
0
CIRCLE
8
BLACK
10
4.734251968503937
20
-4.5919527559055116
40
0.0196850393700787
0
CIRCLE
8
BLACK
10
4.6342519685039365
20
-4.5919527559055116
40
0.0196850393700787
0
CIRCLE
8
BLACK
10
6.1635826771653539
20
-2.9466771653543304
40
0.0196850393700787
0
CIRCLE
8
BLACK
10
6.0635826771653543
20
-2.9466771653543304
40
0.0196850393700787
0
CIRCLE
8
BLACK
10
6.1635826771653539
20
-3.0466771653543305
40
0.0196850393700787
0
CIRCLE
8
BLACK
10
6.0635826771653543
20
-3.0466771653543305
40
0.0196850393700787
0
CIRCLE
8
BLACK
10
6.1635826771653539
20
-3.1466771653543306
40
0.0196850393700787
0
CIRCLE
8
BLACK
10
6.0635826771653543
20
-3.1466771653543306
40
0.0196850393700787
0
CIRCLE
8
BLACK
10
5.9992125984251965
20
-4.6909685039370075
40
0.0196850393700787
0
CIRCLE
8
BLACK
10
5.9992125984251965
20
-4.790968503937008
40
0.0196850393700787
0
CIRCLE
8
BLACK
10
6.099212598425197
20
-4.6909685039370075
40
0.0196850393700787
0
CIRCLE
8
BLACK
10
6.099212598425197
20
-4.790968503937008
40
0.0196850393700787
0
CIRCLE
8
BLACK
10
6.1992125984251967
20
-4.6909685039370075
40
0.0196850393700787
0
CIRCLE
8
BLACK
10
6.1992125984251967
20
-4.790968503937008
40
0.0196850393700787
0
CIRCLE
8
BLACK
10
2.5208661417322835
20
-0.9251968503937008
40
0.0147637795275591
0
CIRCLE
8
BLACK
10
2.5996062992125983
20
-0.9251968503937008
40
0.0147637795275591
0
CIRCLE
8
BLACK
10
2.6783464566929132
20
-0.9251968503937008
40
0.0147637795275591
  0
ENDSEC
  0
EOF
