  0
SECTION
  2
HEADER
  9
$ANGBASE
  50
0.0
  9
$ANGDIR
  70
1
  9
$MEASUREMENT
  70
0
  0
ENDSEC
  0
SECTION
  2
TABLES
  0
TABLE
  2
LTYPE
  70
4
  0
LTYPE
  5
40F
  2
CONTINUOUS
  70
0
  3
Solid line
  72
65
  73
0
  40
0.0
  0
LTYPE
  5
410
  2
DASHDOT
 70
0
  3
Dash Dot ____ _ ____ _
 72
65
 73
4
 40
2.0
 49
1.25
 49
-0.25
 49
0.25
 49
-0.25
  0
LTYPE
  5
411
  2
DASHED
 70
0
  3
Dashed __ __ __ __ __
 72
65
 73
2
 40
0.75
 49
0.5
 49
-0.25
  0
LTYPE
  5
43B
  2
DOTTED
 70
0
  3
Dotted .  .  .  .
 72
65
 73
2
 40
0.2
 49
0.0
 49
-0.2
  0
ENDTAB
  0
TABLE
  2
STYLE
  70
4
  0
STYLE
  2
KICAD
  70
0
  40
0
  41
1
  42
1
  50
0
  71
0
  3
isocp.shx
  0
STYLE
  2
KICADB
  70
0
  40
0
  41
1
  42
1
  50
0
  71
0
  3
isocp.shx
  0
STYLE
  2
KICADI
  70
0
  40
0
  41
1
  42
1
  50
15
  71
0
  3
isocp.shx
  0
STYLE
  2
KICADBI
  70
0
  40
0
  41
1
  42
1
  50
15
  71
0
  3
isocp.shx
  0
ENDTAB
  0
TABLE
  2
LAYER
  70
1
  0
LAYER
  2
BLACK
  70
0
  62
7
  6
CONTINUOUS
  0
ENDTAB
  0
ENDSEC
  0
SECTION
  2
ENTITIES
0
LINE
8
BLACK
6
CONTINUOUS
10
1.53063
20
-5.20392
11
1.53218
21
-5.20522
0
LINE
8
BLACK
6
CONTINUOUS
10
1.53218
20
-5.20522
11
1.53253
21
-5.20721
0
LINE
8
BLACK
6
CONTINUOUS
10
1.53253
20
-5.20721
11
1.53152
21
-5.20896
0
LINE
8
BLACK
6
CONTINUOUS
10
1.53152
20
-5.20896
11
1.52962
21
-5.20965
0
LINE
8
BLACK
6
CONTINUOUS
10
1.52962
20
-5.20965
11
1.49963
21
-5.20965
0
LINE
8
BLACK
6
CONTINUOUS
10
1.49963
20
-5.20965
11
1.49862
21
-5.20947
0
LINE
8
BLACK
6
CONTINUOUS
10
1.49862
20
-5.20947
11
1.49707
21
-5.20817
0
LINE
8
BLACK
6
CONTINUOUS
10
1.49707
20
-5.20817
11
1.49672
21
-5.20618
0
LINE
8
BLACK
6
CONTINUOUS
10
1.49672
20
-5.20618
11
1.49773
21
-5.20443
0
LINE
8
BLACK
6
CONTINUOUS
10
1.49773
20
-5.20443
11
1.49963
21
-5.20374
0
LINE
8
BLACK
6
CONTINUOUS
10
1.49963
20
-5.20374
11
1.52962
21
-5.20374
0
LINE
8
BLACK
6
CONTINUOUS
10
1.52962
20
-5.20374
11
1.53063
21
-5.20392
0
LINE
8
BLACK
6
CONTINUOUS
10
1.66749
20
-5.20392
11
1.66904
21
-5.20522
0
LINE
8
BLACK
6
CONTINUOUS
10
1.66904
20
-5.20522
11
1.66939
21
-5.20721
0
LINE
8
BLACK
6
CONTINUOUS
10
1.66939
20
-5.20721
11
1.66838
21
-5.20896
0
LINE
8
BLACK
6
CONTINUOUS
10
1.66838
20
-5.20896
11
1.66648
21
-5.20965
0
LINE
8
BLACK
6
CONTINUOUS
10
1.66648
20
-5.20965
11
1.63648
21
-5.20965
0
LINE
8
BLACK
6
CONTINUOUS
10
1.63648
20
-5.20965
11
1.63547
21
-5.20947
0
LINE
8
BLACK
6
CONTINUOUS
10
1.63547
20
-5.20947
11
1.63393
21
-5.20817
0
LINE
8
BLACK
6
CONTINUOUS
10
1.63393
20
-5.20817
11
1.63358
21
-5.20618
0
LINE
8
BLACK
6
CONTINUOUS
10
1.63358
20
-5.20618
11
1.63458
21
-5.20443
0
LINE
8
BLACK
6
CONTINUOUS
10
1.63458
20
-5.20443
11
1.63648
21
-5.20374
0
LINE
8
BLACK
6
CONTINUOUS
10
1.63648
20
-5.20374
11
1.66648
21
-5.20374
0
LINE
8
BLACK
6
CONTINUOUS
10
1.66648
20
-5.20374
11
1.66749
21
-5.20392
0
LINE
8
BLACK
6
CONTINUOUS
10
1.49063
20
-5.16069
11
1.49076
21
-5.16067
0
LINE
8
BLACK
6
CONTINUOUS
10
1.49076
20
-5.16067
11
1.49088
21
-5.16073
0
LINE
8
BLACK
6
CONTINUOUS
10
1.49088
20
-5.16073
11
1.49126
21
-5.1608
0
LINE
8
BLACK
6
CONTINUOUS
10
1.49126
20
-5.1608
11
1.49185
21
-5.16129
0
LINE
8
BLACK
6
CONTINUOUS
10
1.49185
20
-5.16129
11
1.49251
21
-5.16168
0
LINE
8
BLACK
6
CONTINUOUS
10
1.49251
20
-5.16168
11
1.4926
21
-5.16193
0
LINE
8
BLACK
6
CONTINUOUS
10
1.4926
20
-5.16193
11
1.49281
21
-5.1621
0
LINE
8
BLACK
6
CONTINUOUS
10
1.49281
20
-5.1621
11
1.49294
21
-5.16285
0
LINE
8
BLACK
6
CONTINUOUS
10
1.49294
20
-5.16285
11
1.4932
21
-5.16358
0
LINE
8
BLACK
6
CONTINUOUS
10
1.4932
20
-5.16358
11
1.4932
21
-5.20295
0
LINE
8
BLACK
6
CONTINUOUS
10
1.4932
20
-5.20295
11
1.49314
21
-5.20333
0
LINE
8
BLACK
6
CONTINUOUS
10
1.49314
20
-5.20333
11
1.49316
21
-5.20346
0
LINE
8
BLACK
6
CONTINUOUS
10
1.49316
20
-5.20346
11
1.49309
21
-5.20357
0
LINE
8
BLACK
6
CONTINUOUS
10
1.49309
20
-5.20357
11
1.49303
21
-5.20396
0
LINE
8
BLACK
6
CONTINUOUS
10
1.49303
20
-5.20396
11
1.49253
21
-5.20454
0
LINE
8
BLACK
6
CONTINUOUS
10
1.49253
20
-5.20454
11
1.49215
21
-5.20521
0
LINE
8
BLACK
6
CONTINUOUS
10
1.49215
20
-5.20521
11
1.4919
21
-5.2053
0
LINE
8
BLACK
6
CONTINUOUS
10
1.4919
20
-5.2053
11
1.49173
21
-5.2055
0
LINE
8
BLACK
6
CONTINUOUS
10
1.49173
20
-5.2055
11
1.49097
21
-5.20564
0
LINE
8
BLACK
6
CONTINUOUS
10
1.49097
20
-5.20564
11
1.49025
21
-5.2059
0
LINE
8
BLACK
6
CONTINUOUS
10
1.49025
20
-5.2059
11
1.4715
21
-5.2059
0
LINE
8
BLACK
6
CONTINUOUS
10
1.4715
20
-5.2059
11
1.47049
21
-5.20572
0
LINE
8
BLACK
6
CONTINUOUS
10
1.47049
20
-5.20572
11
1.46895
21
-5.20442
0
LINE
8
BLACK
6
CONTINUOUS
10
1.46895
20
-5.20442
11
1.4686
21
-5.20243
0
LINE
8
BLACK
6
CONTINUOUS
10
1.4686
20
-5.20243
11
1.46961
21
-5.20068
0
LINE
8
BLACK
6
CONTINUOUS
10
1.46961
20
-5.20068
11
1.4715
21
-5.19999
0
LINE
8
BLACK
6
CONTINUOUS
10
1.4715
20
-5.19999
11
1.4873
21
-5.19999
0
LINE
8
BLACK
6
CONTINUOUS
10
1.4873
20
-5.19999
11
1.4873
21
-5.18528
0
LINE
8
BLACK
6
CONTINUOUS
10
1.4873
20
-5.18528
11
1.47713
21
-5.18528
0
LINE
8
BLACK
6
CONTINUOUS
10
1.47713
20
-5.18528
11
1.47612
21
-5.1851
0
LINE
8
BLACK
6
CONTINUOUS
10
1.47612
20
-5.1851
11
1.47457
21
-5.1838
0
LINE
8
BLACK
6
CONTINUOUS
10
1.47457
20
-5.1838
11
1.47422
21
-5.18181
0
LINE
8
BLACK
6
CONTINUOUS
10
1.47422
20
-5.18181
11
1.47523
21
-5.18006
0
LINE
8
BLACK
6
CONTINUOUS
10
1.47523
20
-5.18006
11
1.47713
21
-5.17937
0
LINE
8
BLACK
6
CONTINUOUS
10
1.47713
20
-5.17937
11
1.4873
21
-5.17937
0
LINE
8
BLACK
6
CONTINUOUS
10
1.4873
20
-5.17937
11
1.4873
21
-5.16653
0
LINE
8
BLACK
6
CONTINUOUS
10
1.4873
20
-5.16653
11
1.4715
21
-5.16653
0
LINE
8
BLACK
6
CONTINUOUS
10
1.4715
20
-5.16653
11
1.47049
21
-5.16635
0
LINE
8
BLACK
6
CONTINUOUS
10
1.47049
20
-5.16635
11
1.46895
21
-5.16505
0
LINE
8
BLACK
6
CONTINUOUS
10
1.46895
20
-5.16505
11
1.4686
21
-5.16306
0
LINE
8
BLACK
6
CONTINUOUS
10
1.4686
20
-5.16306
11
1.46961
21
-5.16131
0
LINE
8
BLACK
6
CONTINUOUS
10
1.46961
20
-5.16131
11
1.4715
21
-5.16062
0
LINE
8
BLACK
6
CONTINUOUS
10
1.4715
20
-5.16062
11
1.49025
21
-5.16062
0
LINE
8
BLACK
6
CONTINUOUS
10
1.49025
20
-5.16062
11
1.49063
21
-5.16069
0
LINE
8
BLACK
6
CONTINUOUS
10
1.56
20
-5.16069
11
1.56013
21
-5.16067
0
LINE
8
BLACK
6
CONTINUOUS
10
1.56013
20
-5.16067
11
1.56024
21
-5.16073
0
LINE
8
BLACK
6
CONTINUOUS
10
1.56024
20
-5.16073
11
1.56063
21
-5.1608
0
LINE
8
BLACK
6
CONTINUOUS
10
1.56063
20
-5.1608
11
1.56122
21
-5.16129
0
LINE
8
BLACK
6
CONTINUOUS
10
1.56122
20
-5.16129
11
1.56188
21
-5.16168
0
LINE
8
BLACK
6
CONTINUOUS
10
1.56188
20
-5.16168
11
1.56197
21
-5.16193
0
LINE
8
BLACK
6
CONTINUOUS
10
1.56197
20
-5.16193
11
1.56217
21
-5.1621
0
LINE
8
BLACK
6
CONTINUOUS
10
1.56217
20
-5.1621
11
1.56231
21
-5.16285
0
LINE
8
BLACK
6
CONTINUOUS
10
1.56231
20
-5.16285
11
1.56257
21
-5.16358
0
LINE
8
BLACK
6
CONTINUOUS
10
1.56257
20
-5.16358
11
1.56257
21
-5.20295
0
LINE
8
BLACK
6
CONTINUOUS
10
1.56257
20
-5.20295
11
1.5625
21
-5.20333
0
LINE
8
BLACK
6
CONTINUOUS
10
1.5625
20
-5.20333
11
1.56253
21
-5.20346
0
LINE
8
BLACK
6
CONTINUOUS
10
1.56253
20
-5.20346
11
1.56246
21
-5.20357
0
LINE
8
BLACK
6
CONTINUOUS
10
1.56246
20
-5.20357
11
1.56239
21
-5.20396
0
LINE
8
BLACK
6
CONTINUOUS
10
1.56239
20
-5.20396
11
1.5619
21
-5.20454
0
LINE
8
BLACK
6
CONTINUOUS
10
1.5619
20
-5.20454
11
1.56152
21
-5.20521
0
LINE
8
BLACK
6
CONTINUOUS
10
1.56152
20
-5.20521
11
1.56127
21
-5.2053
0
LINE
8
BLACK
6
CONTINUOUS
10
1.56127
20
-5.2053
11
1.56109
21
-5.2055
0
LINE
8
BLACK
6
CONTINUOUS
10
1.56109
20
-5.2055
11
1.56034
21
-5.20564
0
LINE
8
BLACK
6
CONTINUOUS
10
1.56034
20
-5.20564
11
1.55962
21
-5.2059
0
LINE
8
BLACK
6
CONTINUOUS
10
1.55962
20
-5.2059
11
1.55024
21
-5.2059
0
LINE
8
BLACK
6
CONTINUOUS
10
1.55024
20
-5.2059
11
1.54937
21
-5.20575
0
LINE
8
BLACK
6
CONTINUOUS
10
1.54937
20
-5.20575
11
1.54931
21
-5.20575
0
LINE
8
BLACK
6
CONTINUOUS
10
1.54931
20
-5.20575
11
1.54369
21
-5.20387
0
LINE
8
BLACK
6
CONTINUOUS
10
1.54369
20
-5.20387
11
1.54278
21
-5.20338
0
LINE
8
BLACK
6
CONTINUOUS
10
1.54278
20
-5.20338
11
1.54269
21
-5.20323
0
LINE
8
BLACK
6
CONTINUOUS
10
1.54269
20
-5.20323
11
1.54253
21
-5.20316
0
LINE
8
BLACK
6
CONTINUOUS
10
1.54253
20
-5.20316
11
1.53878
21
-5.19941
0
LINE
8
BLACK
6
CONTINUOUS
10
1.53878
20
-5.19941
11
1.53828
21
-5.19869
0
LINE
8
BLACK
6
CONTINUOUS
10
1.53828
20
-5.19869
11
1.53823
21
-5.19864
0
LINE
8
BLACK
6
CONTINUOUS
10
1.53823
20
-5.19864
11
1.53635
21
-5.19489
0
LINE
8
BLACK
6
CONTINUOUS
10
1.53635
20
-5.19489
11
1.53621
21
-5.1944
0
LINE
8
BLACK
6
CONTINUOUS
10
1.53621
20
-5.1944
11
1.53613
21
-5.19429
0
LINE
8
BLACK
6
CONTINUOUS
10
1.53613
20
-5.19429
11
1.53426
21
-5.18679
0
LINE
8
BLACK
6
CONTINUOUS
10
1.53426
20
-5.18679
11
1.53421
21
-5.1862
0
LINE
8
BLACK
6
CONTINUOUS
10
1.53421
20
-5.1862
11
1.53417
21
-5.18607
0
LINE
8
BLACK
6
CONTINUOUS
10
1.53417
20
-5.18607
11
1.53417
21
-5.18045
0
LINE
8
BLACK
6
CONTINUOUS
10
1.53417
20
-5.18045
11
1.53427
21
-5.17987
0
LINE
8
BLACK
6
CONTINUOUS
10
1.53427
20
-5.17987
11
1.53426
21
-5.17973
0
LINE
8
BLACK
6
CONTINUOUS
10
1.53426
20
-5.17973
11
1.53613
21
-5.17223
0
LINE
8
BLACK
6
CONTINUOUS
10
1.53613
20
-5.17223
11
1.53634
21
-5.17177
0
LINE
8
BLACK
6
CONTINUOUS
10
1.53634
20
-5.17177
11
1.53635
21
-5.17163
0
LINE
8
BLACK
6
CONTINUOUS
10
1.53635
20
-5.17163
11
1.53823
21
-5.16788
0
LINE
8
BLACK
6
CONTINUOUS
10
1.53823
20
-5.16788
11
1.53875
21
-5.16717
0
LINE
8
BLACK
6
CONTINUOUS
10
1.53875
20
-5.16717
11
1.53878
21
-5.16711
0
LINE
8
BLACK
6
CONTINUOUS
10
1.53878
20
-5.16711
11
1.54253
21
-5.16336
0
LINE
8
BLACK
6
CONTINUOUS
10
1.54253
20
-5.16336
11
1.54337
21
-5.16277
0
LINE
8
BLACK
6
CONTINUOUS
10
1.54337
20
-5.16277
11
1.54355
21
-5.16276
0
LINE
8
BLACK
6
CONTINUOUS
10
1.54355
20
-5.16276
11
1.54369
21
-5.16265
0
LINE
8
BLACK
6
CONTINUOUS
10
1.54369
20
-5.16265
11
1.54931
21
-5.16077
0
LINE
8
BLACK
6
CONTINUOUS
10
1.54931
20
-5.16077
11
1.55018
21
-5.16064
0
LINE
8
BLACK
6
CONTINUOUS
10
1.55018
20
-5.16064
11
1.55024
21
-5.16062
0
LINE
8
BLACK
6
CONTINUOUS
10
1.55024
20
-5.16062
11
1.55962
21
-5.16062
0
LINE
8
BLACK
6
CONTINUOUS
10
1.55962
20
-5.16062
11
1.56
21
-5.16069
0
LINE
8
BLACK
6
CONTINUOUS
10
1.54621
20
-5.16803
11
1.5433
21
-5.17095
0
LINE
8
BLACK
6
CONTINUOUS
10
1.5433
20
-5.17095
11
1.54178
21
-5.17398
0
LINE
8
BLACK
6
CONTINUOUS
10
1.54178
20
-5.17398
11
1.54007
21
-5.18081
0
LINE
8
BLACK
6
CONTINUOUS
10
1.54007
20
-5.18081
11
1.54007
21
-5.18571
0
LINE
8
BLACK
6
CONTINUOUS
10
1.54007
20
-5.18571
11
1.54178
21
-5.19254
0
LINE
8
BLACK
6
CONTINUOUS
10
1.54178
20
-5.19254
11
1.5433
21
-5.19557
0
LINE
8
BLACK
6
CONTINUOUS
10
1.5433
20
-5.19557
11
1.54621
21
-5.19849
0
LINE
8
BLACK
6
CONTINUOUS
10
1.54621
20
-5.19849
11
1.55072
21
-5.19999
0
LINE
8
BLACK
6
CONTINUOUS
10
1.55072
20
-5.19999
11
1.55666
21
-5.19999
0
LINE
8
BLACK
6
CONTINUOUS
10
1.55666
20
-5.19999
11
1.55666
21
-5.16653
0
LINE
8
BLACK
6
CONTINUOUS
10
1.55666
20
-5.16653
11
1.55072
21
-5.16653
0
LINE
8
BLACK
6
CONTINUOUS
10
1.55072
20
-5.16653
11
1.54621
21
-5.16803
0
LINE
8
BLACK
6
CONTINUOUS
10
1.59562
20
-5.16069
11
1.59575
21
-5.16067
0
LINE
8
BLACK
6
CONTINUOUS
10
1.59575
20
-5.16067
11
1.59586
21
-5.16073
0
LINE
8
BLACK
6
CONTINUOUS
10
1.59586
20
-5.16073
11
1.59625
21
-5.1608
0
LINE
8
BLACK
6
CONTINUOUS
10
1.59625
20
-5.1608
11
1.59684
21
-5.16129
0
LINE
8
BLACK
6
CONTINUOUS
10
1.59684
20
-5.16129
11
1.5975
21
-5.16168
0
LINE
8
BLACK
6
CONTINUOUS
10
1.5975
20
-5.16168
11
1.59759
21
-5.16193
0
LINE
8
BLACK
6
CONTINUOUS
10
1.59759
20
-5.16193
11
1.5978
21
-5.1621
0
LINE
8
BLACK
6
CONTINUOUS
10
1.5978
20
-5.1621
11
1.59793
21
-5.16285
0
LINE
8
BLACK
6
CONTINUOUS
10
1.59793
20
-5.16285
11
1.59819
21
-5.16358
0
LINE
8
BLACK
6
CONTINUOUS
10
1.59819
20
-5.16358
11
1.59819
21
-5.20295
0
LINE
8
BLACK
6
CONTINUOUS
10
1.59819
20
-5.20295
11
1.59812
21
-5.20333
0
LINE
8
BLACK
6
CONTINUOUS
10
1.59812
20
-5.20333
11
1.59815
21
-5.20346
0
LINE
8
BLACK
6
CONTINUOUS
10
1.59815
20
-5.20346
11
1.59808
21
-5.20357
0
LINE
8
BLACK
6
CONTINUOUS
10
1.59808
20
-5.20357
11
1.59801
21
-5.20396
0
LINE
8
BLACK
6
CONTINUOUS
10
1.59801
20
-5.20396
11
1.59752
21
-5.20454
0
LINE
8
BLACK
6
CONTINUOUS
10
1.59752
20
-5.20454
11
1.59714
21
-5.20521
0
LINE
8
BLACK
6
CONTINUOUS
10
1.59714
20
-5.20521
11
1.59689
21
-5.2053
0
LINE
8
BLACK
6
CONTINUOUS
10
1.59689
20
-5.2053
11
1.59671
21
-5.2055
0
LINE
8
BLACK
6
CONTINUOUS
10
1.59671
20
-5.2055
11
1.59596
21
-5.20564
0
LINE
8
BLACK
6
CONTINUOUS
10
1.59596
20
-5.20564
11
1.59524
21
-5.2059
0
LINE
8
BLACK
6
CONTINUOUS
10
1.59524
20
-5.2059
11
1.57649
21
-5.2059
0
LINE
8
BLACK
6
CONTINUOUS
10
1.57649
20
-5.2059
11
1.57548
21
-5.20572
0
LINE
8
BLACK
6
CONTINUOUS
10
1.57548
20
-5.20572
11
1.57393
21
-5.20442
0
LINE
8
BLACK
6
CONTINUOUS
10
1.57393
20
-5.20442
11
1.57358
21
-5.20243
0
LINE
8
BLACK
6
CONTINUOUS
10
1.57358
20
-5.20243
11
1.57459
21
-5.20068
0
LINE
8
BLACK
6
CONTINUOUS
10
1.57459
20
-5.20068
11
1.57649
21
-5.19999
0
LINE
8
BLACK
6
CONTINUOUS
10
1.57649
20
-5.19999
11
1.59229
21
-5.19999
0
LINE
8
BLACK
6
CONTINUOUS
10
1.59229
20
-5.19999
11
1.59229
21
-5.18528
0
LINE
8
BLACK
6
CONTINUOUS
10
1.59229
20
-5.18528
11
1.58211
21
-5.18528
0
LINE
8
BLACK
6
CONTINUOUS
10
1.58211
20
-5.18528
11
1.5811
21
-5.1851
0
LINE
8
BLACK
6
CONTINUOUS
10
1.5811
20
-5.1851
11
1.57956
21
-5.1838
0
LINE
8
BLACK
6
CONTINUOUS
10
1.57956
20
-5.1838
11
1.57921
21
-5.18181
0
LINE
8
BLACK
6
CONTINUOUS
10
1.57921
20
-5.18181
11
1.58022
21
-5.18006
0
LINE
8
BLACK
6
CONTINUOUS
10
1.58022
20
-5.18006
11
1.58211
21
-5.17937
0
LINE
8
BLACK
6
CONTINUOUS
10
1.58211
20
-5.17937
11
1.59229
21
-5.17937
0
LINE
8
BLACK
6
CONTINUOUS
10
1.59229
20
-5.17937
11
1.59229
21
-5.16653
0
LINE
8
BLACK
6
CONTINUOUS
10
1.59229
20
-5.16653
11
1.57649
21
-5.16653
0
LINE
8
BLACK
6
CONTINUOUS
10
1.57649
20
-5.16653
11
1.57548
21
-5.16635
0
LINE
8
BLACK
6
CONTINUOUS
10
1.57548
20
-5.16635
11
1.57393
21
-5.16505
0
LINE
8
BLACK
6
CONTINUOUS
10
1.57393
20
-5.16505
11
1.57358
21
-5.16306
0
LINE
8
BLACK
6
CONTINUOUS
10
1.57358
20
-5.16306
11
1.57459
21
-5.16131
0
LINE
8
BLACK
6
CONTINUOUS
10
1.57459
20
-5.16131
11
1.57649
21
-5.16062
0
LINE
8
BLACK
6
CONTINUOUS
10
1.57649
20
-5.16062
11
1.59524
21
-5.16062
0
LINE
8
BLACK
6
CONTINUOUS
10
1.59524
20
-5.16062
11
1.59562
21
-5.16069
0
LINE
8
BLACK
6
CONTINUOUS
10
1.62937
20
-5.16168
11
1.63006
21
-5.16358
0
LINE
8
BLACK
6
CONTINUOUS
10
1.63006
20
-5.16358
11
1.63006
21
-5.20295
0
LINE
8
BLACK
6
CONTINUOUS
10
1.63006
20
-5.20295
11
1.62999
21
-5.20333
0
LINE
8
BLACK
6
CONTINUOUS
10
1.62999
20
-5.20333
11
1.63002
21
-5.20346
0
LINE
8
BLACK
6
CONTINUOUS
10
1.63002
20
-5.20346
11
1.62995
21
-5.20357
0
LINE
8
BLACK
6
CONTINUOUS
10
1.62995
20
-5.20357
11
1.62988
21
-5.20396
0
LINE
8
BLACK
6
CONTINUOUS
10
1.62988
20
-5.20396
11
1.62939
21
-5.20454
0
LINE
8
BLACK
6
CONTINUOUS
10
1.62939
20
-5.20454
11
1.62901
21
-5.20521
0
LINE
8
BLACK
6
CONTINUOUS
10
1.62901
20
-5.20521
11
1.62876
21
-5.2053
0
LINE
8
BLACK
6
CONTINUOUS
10
1.62876
20
-5.2053
11
1.62859
21
-5.2055
0
LINE
8
BLACK
6
CONTINUOUS
10
1.62859
20
-5.2055
11
1.62783
21
-5.20564
0
LINE
8
BLACK
6
CONTINUOUS
10
1.62783
20
-5.20564
11
1.62711
21
-5.2059
0
LINE
8
BLACK
6
CONTINUOUS
10
1.62711
20
-5.2059
11
1.60836
21
-5.2059
0
LINE
8
BLACK
6
CONTINUOUS
10
1.60836
20
-5.2059
11
1.60735
21
-5.20572
0
LINE
8
BLACK
6
CONTINUOUS
10
1.60735
20
-5.20572
11
1.6058
21
-5.20442
0
LINE
8
BLACK
6
CONTINUOUS
10
1.6058
20
-5.20442
11
1.60545
21
-5.20243
0
LINE
8
BLACK
6
CONTINUOUS
10
1.60545
20
-5.20243
11
1.60646
21
-5.20068
0
LINE
8
BLACK
6
CONTINUOUS
10
1.60646
20
-5.20068
11
1.60836
21
-5.19999
0
LINE
8
BLACK
6
CONTINUOUS
10
1.60836
20
-5.19999
11
1.62416
21
-5.19999
0
LINE
8
BLACK
6
CONTINUOUS
10
1.62416
20
-5.19999
11
1.62416
21
-5.16358
0
LINE
8
BLACK
6
CONTINUOUS
10
1.62416
20
-5.16358
11
1.62433
21
-5.16257
0
LINE
8
BLACK
6
CONTINUOUS
10
1.62433
20
-5.16257
11
1.62563
21
-5.16102
0
LINE
8
BLACK
6
CONTINUOUS
10
1.62563
20
-5.16102
11
1.62762
21
-5.16067
0
LINE
8
BLACK
6
CONTINUOUS
10
1.62762
20
-5.16067
11
1.62937
21
-5.16168
0
LINE
8
BLACK
6
CONTINUOUS
10
1.69686
20
-5.16069
11
1.69699
21
-5.16067
0
LINE
8
BLACK
6
CONTINUOUS
10
1.69699
20
-5.16067
11
1.6971
21
-5.16073
0
LINE
8
BLACK
6
CONTINUOUS
10
1.6971
20
-5.16073
11
1.69749
21
-5.1608
0
LINE
8
BLACK
6
CONTINUOUS
10
1.69749
20
-5.1608
11
1.69807
21
-5.16129
0
LINE
8
BLACK
6
CONTINUOUS
10
1.69807
20
-5.16129
11
1.69874
21
-5.16168
0
LINE
8
BLACK
6
CONTINUOUS
10
1.69874
20
-5.16168
11
1.69883
21
-5.16193
0
LINE
8
BLACK
6
CONTINUOUS
10
1.69883
20
-5.16193
11
1.69903
21
-5.1621
0
LINE
8
BLACK
6
CONTINUOUS
10
1.69903
20
-5.1621
11
1.69917
21
-5.16285
0
LINE
8
BLACK
6
CONTINUOUS
10
1.69917
20
-5.16285
11
1.69943
21
-5.16358
0
LINE
8
BLACK
6
CONTINUOUS
10
1.69943
20
-5.16358
11
1.69943
21
-5.20295
0
LINE
8
BLACK
6
CONTINUOUS
10
1.69943
20
-5.20295
11
1.69936
21
-5.20333
0
LINE
8
BLACK
6
CONTINUOUS
10
1.69936
20
-5.20333
11
1.69938
21
-5.20346
0
LINE
8
BLACK
6
CONTINUOUS
10
1.69938
20
-5.20346
11
1.69932
21
-5.20357
0
LINE
8
BLACK
6
CONTINUOUS
10
1.69932
20
-5.20357
11
1.69925
21
-5.20396
0
LINE
8
BLACK
6
CONTINUOUS
10
1.69925
20
-5.20396
11
1.69876
21
-5.20454
0
LINE
8
BLACK
6
CONTINUOUS
10
1.69876
20
-5.20454
11
1.69837
21
-5.20521
0
LINE
8
BLACK
6
CONTINUOUS
10
1.69837
20
-5.20521
11
1.69812
21
-5.2053
0
LINE
8
BLACK
6
CONTINUOUS
10
1.69812
20
-5.2053
11
1.69795
21
-5.2055
0
LINE
8
BLACK
6
CONTINUOUS
10
1.69795
20
-5.2055
11
1.6972
21
-5.20564
0
LINE
8
BLACK
6
CONTINUOUS
10
1.6972
20
-5.20564
11
1.69648
21
-5.2059
0
LINE
8
BLACK
6
CONTINUOUS
10
1.69648
20
-5.2059
11
1.68148
21
-5.2059
0
LINE
8
BLACK
6
CONTINUOUS
10
1.68148
20
-5.2059
11
1.68047
21
-5.20572
0
LINE
8
BLACK
6
CONTINUOUS
10
1.68047
20
-5.20572
11
1.68033
21
-5.20561
0
LINE
8
BLACK
6
CONTINUOUS
10
1.68033
20
-5.20561
11
1.68016
21
-5.20559
0
LINE
8
BLACK
6
CONTINUOUS
10
1.68016
20
-5.20559
11
1.67641
21
-5.20371
0
LINE
8
BLACK
6
CONTINUOUS
10
1.67641
20
-5.20371
11
1.6757
21
-5.20319
0
LINE
8
BLACK
6
CONTINUOUS
10
1.6757
20
-5.20319
11
1.67564
21
-5.20316
0
LINE
8
BLACK
6
CONTINUOUS
10
1.67564
20
-5.20316
11
1.67377
21
-5.20128
0
LINE
8
BLACK
6
CONTINUOUS
10
1.67377
20
-5.20128
11
1.67326
21
-5.20056
0
LINE
8
BLACK
6
CONTINUOUS
10
1.67326
20
-5.20056
11
1.67321
21
-5.20052
0
LINE
8
BLACK
6
CONTINUOUS
10
1.67321
20
-5.20052
11
1.67134
21
-5.19677
0
LINE
8
BLACK
6
CONTINUOUS
10
1.67134
20
-5.19677
11
1.67104
21
-5.19578
0
LINE
8
BLACK
6
CONTINUOUS
10
1.67104
20
-5.19578
11
1.67109
21
-5.19561
0
LINE
8
BLACK
6
CONTINUOUS
10
1.67109
20
-5.19561
11
1.67103
21
-5.19545
0
LINE
8
BLACK
6
CONTINUOUS
10
1.67103
20
-5.19545
11
1.67103
21
-5.18982
0
LINE
8
BLACK
6
CONTINUOUS
10
1.67103
20
-5.18982
11
1.6712
21
-5.18881
0
LINE
8
BLACK
6
CONTINUOUS
10
1.6712
20
-5.18881
11
1.67132
21
-5.18868
0
LINE
8
BLACK
6
CONTINUOUS
10
1.67132
20
-5.18868
11
1.67134
21
-5.1885
0
LINE
8
BLACK
6
CONTINUOUS
10
1.67134
20
-5.1885
11
1.67321
21
-5.18475
0
LINE
8
BLACK
6
CONTINUOUS
10
1.67321
20
-5.18475
11
1.67374
21
-5.18404
0
LINE
8
BLACK
6
CONTINUOUS
10
1.67374
20
-5.18404
11
1.67377
21
-5.18398
0
LINE
8
BLACK
6
CONTINUOUS
10
1.67377
20
-5.18398
11
1.67564
21
-5.18211
0
LINE
8
BLACK
6
CONTINUOUS
10
1.67564
20
-5.18211
11
1.67648
21
-5.18152
0
LINE
8
BLACK
6
CONTINUOUS
10
1.67648
20
-5.18152
11
1.6765
21
-5.18152
0
LINE
8
BLACK
6
CONTINUOUS
10
1.6765
20
-5.18152
11
1.67564
21
-5.18066
0
LINE
8
BLACK
6
CONTINUOUS
10
1.67564
20
-5.18066
11
1.67513
21
-5.17994
0
LINE
8
BLACK
6
CONTINUOUS
10
1.67513
20
-5.17994
11
1.67509
21
-5.17989
0
LINE
8
BLACK
6
CONTINUOUS
10
1.67509
20
-5.17989
11
1.67321
21
-5.17614
0
LINE
8
BLACK
6
CONTINUOUS
10
1.67321
20
-5.17614
11
1.67292
21
-5.17516
0
LINE
8
BLACK
6
CONTINUOUS
10
1.67292
20
-5.17516
11
1.67296
21
-5.17499
0
LINE
8
BLACK
6
CONTINUOUS
10
1.67296
20
-5.17499
11
1.6729
21
-5.17482
0
LINE
8
BLACK
6
CONTINUOUS
10
1.6729
20
-5.17482
11
1.6729
21
-5.17107
0
LINE
8
BLACK
6
CONTINUOUS
10
1.6729
20
-5.17107
11
1.67308
21
-5.17006
0
LINE
8
BLACK
6
CONTINUOUS
10
1.67308
20
-5.17006
11
1.67319
21
-5.16993
0
LINE
8
BLACK
6
CONTINUOUS
10
1.67319
20
-5.16993
11
1.67321
21
-5.16975
0
LINE
8
BLACK
6
CONTINUOUS
10
1.67321
20
-5.16975
11
1.67509
21
-5.166
0
LINE
8
BLACK
6
CONTINUOUS
10
1.67509
20
-5.166
11
1.67561
21
-5.1653
0
LINE
8
BLACK
6
CONTINUOUS
10
1.67561
20
-5.1653
11
1.67564
21
-5.16524
0
LINE
8
BLACK
6
CONTINUOUS
10
1.67564
20
-5.16524
11
1.67751
21
-5.16336
0
LINE
8
BLACK
6
CONTINUOUS
10
1.67751
20
-5.16336
11
1.67824
21
-5.16286
0
LINE
8
BLACK
6
CONTINUOUS
10
1.67824
20
-5.16286
11
1.67828
21
-5.16281
0
LINE
8
BLACK
6
CONTINUOUS
10
1.67828
20
-5.16281
11
1.68203
21
-5.16093
0
LINE
8
BLACK
6
CONTINUOUS
10
1.68203
20
-5.16093
11
1.68301
21
-5.16064
0
LINE
8
BLACK
6
CONTINUOUS
10
1.68301
20
-5.16064
11
1.68319
21
-5.16068
0
LINE
8
BLACK
6
CONTINUOUS
10
1.68319
20
-5.16068
11
1.68335
21
-5.16062
0
LINE
8
BLACK
6
CONTINUOUS
10
1.68335
20
-5.16062
11
1.69648
21
-5.16062
0
LINE
8
BLACK
6
CONTINUOUS
10
1.69648
20
-5.16062
11
1.69686
21
-5.16069
0
LINE
8
BLACK
6
CONTINUOUS
10
1.67932
20
-5.18678
11
1.67828
21
-5.18782
0
LINE
8
BLACK
6
CONTINUOUS
10
1.67828
20
-5.18782
11
1.67693
21
-5.19052
0
LINE
8
BLACK
6
CONTINUOUS
10
1.67693
20
-5.19052
11
1.67693
21
-5.19475
0
LINE
8
BLACK
6
CONTINUOUS
10
1.67693
20
-5.19475
11
1.67828
21
-5.19745
0
LINE
8
BLACK
6
CONTINUOUS
10
1.67828
20
-5.19745
11
1.67948
21
-5.19864
0
LINE
8
BLACK
6
CONTINUOUS
10
1.67948
20
-5.19864
11
1.68217
21
-5.19999
0
LINE
8
BLACK
6
CONTINUOUS
10
1.68217
20
-5.19999
11
1.69352
21
-5.19999
0
LINE
8
BLACK
6
CONTINUOUS
10
1.69352
20
-5.19999
11
1.69352
21
-5.18528
0
LINE
8
BLACK
6
CONTINUOUS
10
1.69352
20
-5.18528
11
1.68383
21
-5.18528
0
LINE
8
BLACK
6
CONTINUOUS
10
1.68383
20
-5.18528
11
1.67932
21
-5.18678
0
LINE
8
BLACK
6
CONTINUOUS
10
1.68135
20
-5.16788
11
1.68015
21
-5.16907
0
LINE
8
BLACK
6
CONTINUOUS
10
1.68015
20
-5.16907
11
1.67881
21
-5.17177
0
LINE
8
BLACK
6
CONTINUOUS
10
1.67881
20
-5.17177
11
1.67881
21
-5.17413
0
LINE
8
BLACK
6
CONTINUOUS
10
1.67881
20
-5.17413
11
1.68015
21
-5.17682
0
LINE
8
BLACK
6
CONTINUOUS
10
1.68015
20
-5.17682
11
1.68135
21
-5.17802
0
LINE
8
BLACK
6
CONTINUOUS
10
1.68135
20
-5.17802
11
1.68405
21
-5.17937
0
LINE
8
BLACK
6
CONTINUOUS
10
1.68405
20
-5.17937
11
1.69352
21
-5.17937
0
LINE
8
BLACK
6
CONTINUOUS
10
1.69352
20
-5.17937
11
1.69352
21
-5.16653
0
LINE
8
BLACK
6
CONTINUOUS
10
1.69352
20
-5.16653
11
1.68405
21
-5.16653
0
LINE
8
BLACK
6
CONTINUOUS
10
1.68405
20
-5.16653
11
1.68135
21
-5.16788
0
LINE
8
BLACK
6
CONTINUOUS
10
1.72547
20
-5.16078
11
1.72553
21
-5.16077
0
LINE
8
BLACK
6
CONTINUOUS
10
1.72553
20
-5.16077
11
1.73115
21
-5.16265
0
LINE
8
BLACK
6
CONTINUOUS
10
1.73115
20
-5.16265
11
1.73206
21
-5.16314
0
LINE
8
BLACK
6
CONTINUOUS
10
1.73206
20
-5.16314
11
1.73215
21
-5.16329
0
LINE
8
BLACK
6
CONTINUOUS
10
1.73215
20
-5.16329
11
1.73231
21
-5.16336
0
LINE
8
BLACK
6
CONTINUOUS
10
1.73231
20
-5.16336
11
1.73606
21
-5.16711
0
LINE
8
BLACK
6
CONTINUOUS
10
1.73606
20
-5.16711
11
1.73657
21
-5.16784
0
LINE
8
BLACK
6
CONTINUOUS
10
1.73657
20
-5.16784
11
1.73661
21
-5.16788
0
LINE
8
BLACK
6
CONTINUOUS
10
1.73661
20
-5.16788
11
1.73849
21
-5.17163
0
LINE
8
BLACK
6
CONTINUOUS
10
1.73849
20
-5.17163
11
1.73863
21
-5.17212
0
LINE
8
BLACK
6
CONTINUOUS
10
1.73863
20
-5.17212
11
1.73871
21
-5.17223
0
LINE
8
BLACK
6
CONTINUOUS
10
1.73871
20
-5.17223
11
1.74058
21
-5.17973
0
LINE
8
BLACK
6
CONTINUOUS
10
1.74058
20
-5.17973
11
1.74063
21
-5.18032
0
LINE
8
BLACK
6
CONTINUOUS
10
1.74063
20
-5.18032
11
1.74067
21
-5.18045
0
LINE
8
BLACK
6
CONTINUOUS
10
1.74067
20
-5.18045
11
1.74067
21
-5.18607
0
LINE
8
BLACK
6
CONTINUOUS
10
1.74067
20
-5.18607
11
1.74057
21
-5.18665
0
LINE
8
BLACK
6
CONTINUOUS
10
1.74057
20
-5.18665
11
1.74058
21
-5.18679
0
LINE
8
BLACK
6
CONTINUOUS
10
1.74058
20
-5.18679
11
1.73871
21
-5.19429
0
LINE
8
BLACK
6
CONTINUOUS
10
1.73871
20
-5.19429
11
1.7385
21
-5.19475
0
LINE
8
BLACK
6
CONTINUOUS
10
1.7385
20
-5.19475
11
1.73849
21
-5.19489
0
LINE
8
BLACK
6
CONTINUOUS
10
1.73849
20
-5.19489
11
1.73661
21
-5.19864
0
LINE
8
BLACK
6
CONTINUOUS
10
1.73661
20
-5.19864
11
1.73609
21
-5.19935
0
LINE
8
BLACK
6
CONTINUOUS
10
1.73609
20
-5.19935
11
1.73606
21
-5.19941
0
LINE
8
BLACK
6
CONTINUOUS
10
1.73606
20
-5.19941
11
1.73231
21
-5.20316
0
LINE
8
BLACK
6
CONTINUOUS
10
1.73231
20
-5.20316
11
1.73147
21
-5.20375
0
LINE
8
BLACK
6
CONTINUOUS
10
1.73147
20
-5.20375
11
1.73129
21
-5.20376
0
LINE
8
BLACK
6
CONTINUOUS
10
1.73129
20
-5.20376
11
1.73115
21
-5.20387
0
LINE
8
BLACK
6
CONTINUOUS
10
1.73115
20
-5.20387
11
1.72553
21
-5.20575
0
LINE
8
BLACK
6
CONTINUOUS
10
1.72553
20
-5.20575
11
1.72466
21
-5.20588
0
LINE
8
BLACK
6
CONTINUOUS
10
1.72466
20
-5.20588
11
1.7246
21
-5.2059
0
LINE
8
BLACK
6
CONTINUOUS
10
1.7246
20
-5.2059
11
1.72085
21
-5.2059
0
LINE
8
BLACK
6
CONTINUOUS
10
1.72085
20
-5.2059
11
1.71998
21
-5.20575
0
LINE
8
BLACK
6
CONTINUOUS
10
1.71998
20
-5.20575
11
1.71991
21
-5.20575
0
LINE
8
BLACK
6
CONTINUOUS
10
1.71991
20
-5.20575
11
1.71429
21
-5.20387
0
LINE
8
BLACK
6
CONTINUOUS
10
1.71429
20
-5.20387
11
1.71339
21
-5.20338
0
LINE
8
BLACK
6
CONTINUOUS
10
1.71339
20
-5.20338
11
1.7133
21
-5.20323
0
LINE
8
BLACK
6
CONTINUOUS
10
1.7133
20
-5.20323
11
1.71314
21
-5.20316
0
LINE
8
BLACK
6
CONTINUOUS
10
1.71314
20
-5.20316
11
1.71126
21
-5.20128
0
LINE
8
BLACK
6
CONTINUOUS
10
1.71126
20
-5.20128
11
1.71116
21
-5.20113
0
LINE
8
BLACK
6
CONTINUOUS
10
1.71116
20
-5.20113
11
1.71109
21
-5.20109
0
LINE
8
BLACK
6
CONTINUOUS
10
1.71109
20
-5.20109
11
1.71104
21
-5.20097
0
LINE
8
BLACK
6
CONTINUOUS
10
1.71104
20
-5.20097
11
1.71067
21
-5.20044
0
LINE
8
BLACK
6
CONTINUOUS
10
1.71067
20
-5.20044
11
1.71062
21
-5.1998
0
LINE
8
BLACK
6
CONTINUOUS
10
1.71062
20
-5.1998
11
1.7104
21
-5.1992
0
LINE
8
BLACK
6
CONTINUOUS
10
1.7104
20
-5.1992
11
1.7104
21
-5.18607
0
LINE
8
BLACK
6
CONTINUOUS
10
1.7104
20
-5.18607
11
1.71046
21
-5.18569
0
LINE
8
BLACK
6
CONTINUOUS
10
1.71046
20
-5.18569
11
1.71044
21
-5.18556
0
LINE
8
BLACK
6
CONTINUOUS
10
1.71044
20
-5.18556
11
1.71051
21
-5.18545
0
LINE
8
BLACK
6
CONTINUOUS
10
1.71051
20
-5.18545
11
1.71057
21
-5.18506
0
LINE
8
BLACK
6
CONTINUOUS
10
1.71057
20
-5.18506
11
1.71107
21
-5.18448
0
LINE
8
BLACK
6
CONTINUOUS
10
1.71107
20
-5.18448
11
1.71145
21
-5.18381
0
LINE
8
BLACK
6
CONTINUOUS
10
1.71145
20
-5.18381
11
1.7117
21
-5.18372
0
LINE
8
BLACK
6
CONTINUOUS
10
1.7117
20
-5.18372
11
1.71187
21
-5.18352
0
LINE
8
BLACK
6
CONTINUOUS
10
1.71187
20
-5.18352
11
1.71263
21
-5.18338
0
LINE
8
BLACK
6
CONTINUOUS
10
1.71263
20
-5.18338
11
1.71335
21
-5.18312
0
LINE
8
BLACK
6
CONTINUOUS
10
1.71335
20
-5.18312
11
1.72085
21
-5.18312
0
LINE
8
BLACK
6
CONTINUOUS
10
1.72085
20
-5.18312
11
1.72186
21
-5.1833
0
LINE
8
BLACK
6
CONTINUOUS
10
1.72186
20
-5.1833
11
1.7234
21
-5.1846
0
LINE
8
BLACK
6
CONTINUOUS
10
1.7234
20
-5.1846
11
1.72376
21
-5.18659
0
LINE
8
BLACK
6
CONTINUOUS
10
1.72376
20
-5.18659
11
1.72275
21
-5.18833
0
LINE
8
BLACK
6
CONTINUOUS
10
1.72275
20
-5.18833
11
1.72085
21
-5.18903
0
LINE
8
BLACK
6
CONTINUOUS
10
1.72085
20
-5.18903
11
1.7163
21
-5.18903
0
LINE
8
BLACK
6
CONTINUOUS
10
1.7163
20
-5.18903
11
1.7163
21
-5.19797
0
LINE
8
BLACK
6
CONTINUOUS
10
1.7163
20
-5.19797
11
1.71682
21
-5.19849
0
LINE
8
BLACK
6
CONTINUOUS
10
1.71682
20
-5.19849
11
1.72133
21
-5.19999
0
LINE
8
BLACK
6
CONTINUOUS
10
1.72133
20
-5.19999
11
1.72412
21
-5.19999
0
LINE
8
BLACK
6
CONTINUOUS
10
1.72412
20
-5.19999
11
1.72863
21
-5.19849
0
LINE
8
BLACK
6
CONTINUOUS
10
1.72863
20
-5.19849
11
1.73154
21
-5.19557
0
LINE
8
BLACK
6
CONTINUOUS
10
1.73154
20
-5.19557
11
1.73306
21
-5.19254
0
LINE
8
BLACK
6
CONTINUOUS
10
1.73306
20
-5.19254
11
1.73477
21
-5.18571
0
LINE
8
BLACK
6
CONTINUOUS
10
1.73477
20
-5.18571
11
1.73477
21
-5.18081
0
LINE
8
BLACK
6
CONTINUOUS
10
1.73477
20
-5.18081
11
1.73306
21
-5.17398
0
LINE
8
BLACK
6
CONTINUOUS
10
1.73306
20
-5.17398
11
1.73154
21
-5.17095
0
LINE
8
BLACK
6
CONTINUOUS
10
1.73154
20
-5.17095
11
1.72863
21
-5.16803
0
LINE
8
BLACK
6
CONTINUOUS
10
1.72863
20
-5.16803
11
1.72412
21
-5.16653
0
LINE
8
BLACK
6
CONTINUOUS
10
1.72412
20
-5.16653
11
1.71967
21
-5.16653
0
LINE
8
BLACK
6
CONTINUOUS
10
1.71967
20
-5.16653
11
1.71654
21
-5.16809
0
LINE
8
BLACK
6
CONTINUOUS
10
1.71654
20
-5.16809
11
1.71556
21
-5.16838
0
LINE
8
BLACK
6
CONTINUOUS
10
1.71556
20
-5.16838
11
1.7136
21
-5.16791
0
LINE
8
BLACK
6
CONTINUOUS
10
1.7136
20
-5.16791
11
1.71239
21
-5.16629
0
LINE
8
BLACK
6
CONTINUOUS
10
1.71239
20
-5.16629
11
1.71251
21
-5.16428
0
LINE
8
BLACK
6
CONTINUOUS
10
1.71251
20
-5.16428
11
1.7139
21
-5.16281
0
LINE
8
BLACK
6
CONTINUOUS
10
1.7139
20
-5.16281
11
1.71765
21
-5.16093
0
LINE
8
BLACK
6
CONTINUOUS
10
1.71765
20
-5.16093
11
1.71864
21
-5.16064
0
LINE
8
BLACK
6
CONTINUOUS
10
1.71864
20
-5.16064
11
1.71881
21
-5.16068
0
LINE
8
BLACK
6
CONTINUOUS
10
1.71881
20
-5.16068
11
1.71897
21
-5.16062
0
LINE
8
BLACK
6
CONTINUOUS
10
1.71897
20
-5.16062
11
1.7246
21
-5.16062
0
LINE
8
BLACK
6
CONTINUOUS
10
1.7246
20
-5.16062
11
1.72547
21
-5.16078
0
LINE
8
BLACK
6
CONTINUOUS
10
1.46042
20
-5.16144
11
1.46131
21
-5.16325
0
LINE
8
BLACK
6
CONTINUOUS
10
1.46131
20
-5.16325
11
1.46084
21
-5.16521
0
LINE
8
BLACK
6
CONTINUOUS
10
1.46084
20
-5.16521
11
1.44881
21
-5.18326
0
LINE
8
BLACK
6
CONTINUOUS
10
1.44881
20
-5.18326
11
1.46084
21
-5.20131
0
LINE
8
BLACK
6
CONTINUOUS
10
1.46084
20
-5.20131
11
1.46125
21
-5.20225
0
LINE
8
BLACK
6
CONTINUOUS
10
1.46125
20
-5.20225
11
1.46103
21
-5.20425
0
LINE
8
BLACK
6
CONTINUOUS
10
1.46103
20
-5.20425
11
1.45957
21
-5.20565
0
LINE
8
BLACK
6
CONTINUOUS
10
1.45957
20
-5.20565
11
1.45755
21
-5.20578
0
LINE
8
BLACK
6
CONTINUOUS
10
1.45755
20
-5.20578
11
1.45592
21
-5.20458
0
LINE
8
BLACK
6
CONTINUOUS
10
1.45592
20
-5.20458
11
1.44526
21
-5.18858
0
LINE
8
BLACK
6
CONTINUOUS
10
1.44526
20
-5.18858
11
1.43459
21
-5.20458
0
LINE
8
BLACK
6
CONTINUOUS
10
1.43459
20
-5.20458
11
1.43388
21
-5.20533
0
LINE
8
BLACK
6
CONTINUOUS
10
1.43388
20
-5.20533
11
1.43194
21
-5.20589
0
LINE
8
BLACK
6
CONTINUOUS
10
1.43194
20
-5.20589
11
1.43009
21
-5.20508
0
LINE
8
BLACK
6
CONTINUOUS
10
1.43009
20
-5.20508
11
1.4292
21
-5.20327
0
LINE
8
BLACK
6
CONTINUOUS
10
1.4292
20
-5.20327
11
1.42968
21
-5.20131
0
LINE
8
BLACK
6
CONTINUOUS
10
1.42968
20
-5.20131
11
1.44171
21
-5.18326
0
LINE
8
BLACK
6
CONTINUOUS
10
1.44171
20
-5.18326
11
1.42968
21
-5.16521
0
LINE
8
BLACK
6
CONTINUOUS
10
1.42968
20
-5.16521
11
1.42926
21
-5.16427
0
LINE
8
BLACK
6
CONTINUOUS
10
1.42926
20
-5.16427
11
1.42949
21
-5.16227
0
LINE
8
BLACK
6
CONTINUOUS
10
1.42949
20
-5.16227
11
1.43095
21
-5.16087
0
LINE
8
BLACK
6
CONTINUOUS
10
1.43095
20
-5.16087
11
1.43296
21
-5.16074
0
LINE
8
BLACK
6
CONTINUOUS
10
1.43296
20
-5.16074
11
1.43459
21
-5.16194
0
LINE
8
BLACK
6
CONTINUOUS
10
1.43459
20
-5.16194
11
1.44526
21
-5.17794
0
LINE
8
BLACK
6
CONTINUOUS
10
1.44526
20
-5.17794
11
1.45592
21
-5.16194
0
LINE
8
BLACK
6
CONTINUOUS
10
1.45592
20
-5.16194
11
1.45663
21
-5.1612
0
LINE
8
BLACK
6
CONTINUOUS
10
1.45663
20
-5.1612
11
1.45857
21
-5.16063
0
LINE
8
BLACK
6
CONTINUOUS
10
1.45857
20
-5.16063
11
1.46042
21
-5.16144
0
LINE
8
BLACK
6
CONTINUOUS
10
1.7756
20
-5.16069
11
1.77573
21
-5.16067
0
LINE
8
BLACK
6
CONTINUOUS
10
1.77573
20
-5.16067
11
1.77584
21
-5.16073
0
LINE
8
BLACK
6
CONTINUOUS
10
1.77584
20
-5.16073
11
1.77623
21
-5.1608
0
LINE
8
BLACK
6
CONTINUOUS
10
1.77623
20
-5.1608
11
1.77681
21
-5.16129
0
LINE
8
BLACK
6
CONTINUOUS
10
1.77681
20
-5.16129
11
1.77748
21
-5.16168
0
LINE
8
BLACK
6
CONTINUOUS
10
1.77748
20
-5.16168
11
1.77757
21
-5.16193
0
LINE
8
BLACK
6
CONTINUOUS
10
1.77757
20
-5.16193
11
1.77777
21
-5.1621
0
LINE
8
BLACK
6
CONTINUOUS
10
1.77777
20
-5.1621
11
1.77791
21
-5.16285
0
LINE
8
BLACK
6
CONTINUOUS
10
1.77791
20
-5.16285
11
1.77817
21
-5.16358
0
LINE
8
BLACK
6
CONTINUOUS
10
1.77817
20
-5.16358
11
1.77817
21
-5.20295
0
LINE
8
BLACK
6
CONTINUOUS
10
1.77817
20
-5.20295
11
1.77799
21
-5.20396
0
LINE
8
BLACK
6
CONTINUOUS
10
1.77799
20
-5.20396
11
1.77669
21
-5.2055
0
LINE
8
BLACK
6
CONTINUOUS
10
1.77669
20
-5.2055
11
1.7747
21
-5.20585
0
LINE
8
BLACK
6
CONTINUOUS
10
1.7747
20
-5.20585
11
1.77295
21
-5.20484
0
LINE
8
BLACK
6
CONTINUOUS
10
1.77295
20
-5.20484
11
1.77226
21
-5.20295
0
LINE
8
BLACK
6
CONTINUOUS
10
1.77226
20
-5.20295
11
1.77226
21
-5.18715
0
LINE
8
BLACK
6
CONTINUOUS
10
1.77226
20
-5.18715
11
1.76738
21
-5.18715
0
LINE
8
BLACK
6
CONTINUOUS
10
1.76738
20
-5.18715
11
1.75514
21
-5.20464
0
LINE
8
BLACK
6
CONTINUOUS
10
1.75514
20
-5.20464
11
1.75441
21
-5.20536
0
LINE
8
BLACK
6
CONTINUOUS
10
1.75441
20
-5.20536
11
1.75246
21
-5.20589
0
LINE
8
BLACK
6
CONTINUOUS
10
1.75246
20
-5.20589
11
1.75063
21
-5.20503
0
LINE
8
BLACK
6
CONTINUOUS
10
1.75063
20
-5.20503
11
1.74978
21
-5.2032
0
LINE
8
BLACK
6
CONTINUOUS
10
1.74978
20
-5.2032
11
1.7503
21
-5.20125
0
LINE
8
BLACK
6
CONTINUOUS
10
1.7503
20
-5.20125
11
1.76018
21
-5.18714
0
LINE
8
BLACK
6
CONTINUOUS
10
1.76018
20
-5.18714
11
1.75921
21
-5.18697
0
LINE
8
BLACK
6
CONTINUOUS
10
1.75921
20
-5.18697
11
1.75907
21
-5.18686
0
LINE
8
BLACK
6
CONTINUOUS
10
1.75907
20
-5.18686
11
1.7589
21
-5.18684
0
LINE
8
BLACK
6
CONTINUOUS
10
1.7589
20
-5.18684
11
1.75515
21
-5.18496
0
LINE
8
BLACK
6
CONTINUOUS
10
1.75515
20
-5.18496
11
1.75444
21
-5.18444
0
LINE
8
BLACK
6
CONTINUOUS
10
1.75444
20
-5.18444
11
1.75438
21
-5.18441
0
LINE
8
BLACK
6
CONTINUOUS
10
1.75438
20
-5.18441
11
1.75251
21
-5.18254
0
LINE
8
BLACK
6
CONTINUOUS
10
1.75251
20
-5.18254
11
1.752
21
-5.18181
0
LINE
8
BLACK
6
CONTINUOUS
10
1.752
20
-5.18181
11
1.75195
21
-5.18177
0
LINE
8
BLACK
6
CONTINUOUS
10
1.75195
20
-5.18177
11
1.75008
21
-5.17802
0
LINE
8
BLACK
6
CONTINUOUS
10
1.75008
20
-5.17802
11
1.74979
21
-5.17704
0
LINE
8
BLACK
6
CONTINUOUS
10
1.74979
20
-5.17704
11
1.74983
21
-5.17686
0
LINE
8
BLACK
6
CONTINUOUS
10
1.74983
20
-5.17686
11
1.74977
21
-5.1767
0
LINE
8
BLACK
6
CONTINUOUS
10
1.74977
20
-5.1767
11
1.74977
21
-5.17107
0
LINE
8
BLACK
6
CONTINUOUS
10
1.74977
20
-5.17107
11
1.74994
21
-5.17006
0
LINE
8
BLACK
6
CONTINUOUS
10
1.74994
20
-5.17006
11
1.75006
21
-5.16993
0
LINE
8
BLACK
6
CONTINUOUS
10
1.75006
20
-5.16993
11
1.75008
21
-5.16975
0
LINE
8
BLACK
6
CONTINUOUS
10
1.75008
20
-5.16975
11
1.75195
21
-5.166
0
LINE
8
BLACK
6
CONTINUOUS
10
1.75195
20
-5.166
11
1.75248
21
-5.1653
0
LINE
8
BLACK
6
CONTINUOUS
10
1.75248
20
-5.1653
11
1.75251
21
-5.16524
0
LINE
8
BLACK
6
CONTINUOUS
10
1.75251
20
-5.16524
11
1.75438
21
-5.16336
0
LINE
8
BLACK
6
CONTINUOUS
10
1.75438
20
-5.16336
11
1.7551
21
-5.16286
0
LINE
8
BLACK
6
CONTINUOUS
10
1.7551
20
-5.16286
11
1.75515
21
-5.16281
0
LINE
8
BLACK
6
CONTINUOUS
10
1.75515
20
-5.16281
11
1.7589
21
-5.16093
0
LINE
8
BLACK
6
CONTINUOUS
10
1.7589
20
-5.16093
11
1.75988
21
-5.16064
0
LINE
8
BLACK
6
CONTINUOUS
10
1.75988
20
-5.16064
11
1.76005
21
-5.16068
0
LINE
8
BLACK
6
CONTINUOUS
10
1.76005
20
-5.16068
11
1.76022
21
-5.16062
0
LINE
8
BLACK
6
CONTINUOUS
10
1.76022
20
-5.16062
11
1.77522
21
-5.16062
0
LINE
8
BLACK
6
CONTINUOUS
10
1.77522
20
-5.16062
11
1.7756
21
-5.16069
0
LINE
8
BLACK
6
CONTINUOUS
10
1.75822
20
-5.16788
11
1.75702
21
-5.16907
0
LINE
8
BLACK
6
CONTINUOUS
10
1.75702
20
-5.16907
11
1.75567
21
-5.17177
0
LINE
8
BLACK
6
CONTINUOUS
10
1.75567
20
-5.17177
11
1.75567
21
-5.176
0
LINE
8
BLACK
6
CONTINUOUS
10
1.75567
20
-5.176
11
1.75702
21
-5.1787
0
LINE
8
BLACK
6
CONTINUOUS
10
1.75702
20
-5.1787
11
1.75822
21
-5.1799
0
LINE
8
BLACK
6
CONTINUOUS
10
1.75822
20
-5.1799
11
1.76091
21
-5.18125
0
LINE
8
BLACK
6
CONTINUOUS
10
1.76091
20
-5.18125
11
1.77226
21
-5.18125
0
LINE
8
BLACK
6
CONTINUOUS
10
1.77226
20
-5.18125
11
1.77226
21
-5.16653
0
LINE
8
BLACK
6
CONTINUOUS
10
1.77226
20
-5.16653
11
1.76091
21
-5.16653
0
LINE
8
BLACK
6
CONTINUOUS
10
1.76091
20
-5.16653
11
1.75822
21
-5.16788
0
LINE
8
BLACK
6
CONTINUOUS
10
1.42377
20
-5.1608
11
1.42532
21
-5.1621
0
LINE
8
BLACK
6
CONTINUOUS
10
1.42532
20
-5.1621
11
1.42567
21
-5.16409
0
LINE
8
BLACK
6
CONTINUOUS
10
1.42567
20
-5.16409
11
1.42466
21
-5.16584
0
LINE
8
BLACK
6
CONTINUOUS
10
1.42466
20
-5.16584
11
1.42276
21
-5.16653
0
LINE
8
BLACK
6
CONTINUOUS
10
1.42276
20
-5.16653
11
1.41446
21
-5.16653
0
LINE
8
BLACK
6
CONTINUOUS
10
1.41446
20
-5.16653
11
1.41446
21
-5.20295
0
LINE
8
BLACK
6
CONTINUOUS
10
1.41446
20
-5.20295
11
1.41429
21
-5.20396
0
LINE
8
BLACK
6
CONTINUOUS
10
1.41429
20
-5.20396
11
1.41299
21
-5.2055
0
LINE
8
BLACK
6
CONTINUOUS
10
1.41299
20
-5.2055
11
1.411
21
-5.20585
0
LINE
8
BLACK
6
CONTINUOUS
10
1.411
20
-5.20585
11
1.40925
21
-5.20484
0
LINE
8
BLACK
6
CONTINUOUS
10
1.40925
20
-5.20484
11
1.40856
21
-5.20295
0
LINE
8
BLACK
6
CONTINUOUS
10
1.40856
20
-5.20295
11
1.40856
21
-5.16653
0
LINE
8
BLACK
6
CONTINUOUS
10
1.40856
20
-5.16653
11
1.40026
21
-5.16653
0
LINE
8
BLACK
6
CONTINUOUS
10
1.40026
20
-5.16653
11
1.39925
21
-5.16635
0
LINE
8
BLACK
6
CONTINUOUS
10
1.39925
20
-5.16635
11
1.39771
21
-5.16505
0
LINE
8
BLACK
6
CONTINUOUS
10
1.39771
20
-5.16505
11
1.39735
21
-5.16306
0
LINE
8
BLACK
6
CONTINUOUS
10
1.39735
20
-5.16306
11
1.39836
21
-5.16131
0
LINE
8
BLACK
6
CONTINUOUS
10
1.39836
20
-5.16131
11
1.40026
21
-5.16062
0
LINE
8
BLACK
6
CONTINUOUS
10
1.40026
20
-5.16062
11
1.42276
21
-5.16062
0
LINE
8
BLACK
6
CONTINUOUS
10
1.42276
20
-5.16062
11
1.42377
21
-5.1608
0
LINE
8
BLACK
6
CONTINUOUS
10
1.60594
20
-5.08687
11
1.60663
21
-5.08877
0
LINE
8
BLACK
6
CONTINUOUS
10
1.60663
20
-5.08877
11
1.60663
21
-5.11641
0
LINE
8
BLACK
6
CONTINUOUS
10
1.60663
20
-5.11641
11
1.60813
21
-5.12092
0
LINE
8
BLACK
6
CONTINUOUS
10
1.60813
20
-5.12092
11
1.61089
21
-5.12369
0
LINE
8
BLACK
6
CONTINUOUS
10
1.61089
20
-5.12369
11
1.6154
21
-5.12519
0
LINE
8
BLACK
6
CONTINUOUS
10
1.6154
20
-5.12519
11
1.61867
21
-5.12519
0
LINE
8
BLACK
6
CONTINUOUS
10
1.61867
20
-5.12519
11
1.61968
21
-5.12537
0
LINE
8
BLACK
6
CONTINUOUS
10
1.61968
20
-5.12537
11
1.62123
21
-5.12667
0
LINE
8
BLACK
6
CONTINUOUS
10
1.62123
20
-5.12667
11
1.62158
21
-5.12866
0
LINE
8
BLACK
6
CONTINUOUS
10
1.62158
20
-5.12866
11
1.62057
21
-5.1304
0
LINE
8
BLACK
6
CONTINUOUS
10
1.62057
20
-5.1304
11
1.61867
21
-5.1311
0
LINE
8
BLACK
6
CONTINUOUS
10
1.61867
20
-5.1311
11
1.61492
21
-5.1311
0
LINE
8
BLACK
6
CONTINUOUS
10
1.61492
20
-5.1311
11
1.61405
21
-5.13094
0
LINE
8
BLACK
6
CONTINUOUS
10
1.61405
20
-5.13094
11
1.61399
21
-5.13094
0
LINE
8
BLACK
6
CONTINUOUS
10
1.61399
20
-5.13094
11
1.60837
21
-5.12907
0
LINE
8
BLACK
6
CONTINUOUS
10
1.60837
20
-5.12907
11
1.60746
21
-5.12858
0
LINE
8
BLACK
6
CONTINUOUS
10
1.60746
20
-5.12858
11
1.60737
21
-5.12843
0
LINE
8
BLACK
6
CONTINUOUS
10
1.60737
20
-5.12843
11
1.60721
21
-5.12836
0
LINE
8
BLACK
6
CONTINUOUS
10
1.60721
20
-5.12836
11
1.60346
21
-5.12461
0
LINE
8
BLACK
6
CONTINUOUS
10
1.60346
20
-5.12461
11
1.60287
21
-5.12377
0
LINE
8
BLACK
6
CONTINUOUS
10
1.60287
20
-5.12377
11
1.60286
21
-5.12359
0
LINE
8
BLACK
6
CONTINUOUS
10
1.60286
20
-5.12359
11
1.60275
21
-5.12345
0
LINE
8
BLACK
6
CONTINUOUS
10
1.60275
20
-5.12345
11
1.60087
21
-5.11783
0
LINE
8
BLACK
6
CONTINUOUS
10
1.60087
20
-5.11783
11
1.60074
21
-5.11695
0
LINE
8
BLACK
6
CONTINUOUS
10
1.60074
20
-5.11695
11
1.60072
21
-5.11689
0
LINE
8
BLACK
6
CONTINUOUS
10
1.60072
20
-5.11689
11
1.60072
21
-5.08877
0
LINE
8
BLACK
6
CONTINUOUS
10
1.60072
20
-5.08877
11
1.6009
21
-5.08776
0
LINE
8
BLACK
6
CONTINUOUS
10
1.6009
20
-5.08776
11
1.6022
21
-5.08622
0
LINE
8
BLACK
6
CONTINUOUS
10
1.6022
20
-5.08622
11
1.60419
21
-5.08586
0
LINE
8
BLACK
6
CONTINUOUS
10
1.60419
20
-5.08586
11
1.60594
21
-5.08687
0
LINE
8
BLACK
6
CONTINUOUS
10
1.57897
20
-5.08438
11
1.58023
21
-5.08596
0
LINE
8
BLACK
6
CONTINUOUS
10
1.58023
20
-5.08596
11
1.5896
21
-5.11409
0
LINE
8
BLACK
6
CONTINUOUS
10
1.5896
20
-5.11409
11
1.58975
21
-5.1151
0
LINE
8
BLACK
6
CONTINUOUS
10
1.58975
20
-5.1151
11
1.58967
21
-5.11531
0
LINE
8
BLACK
6
CONTINUOUS
10
1.58967
20
-5.11531
11
1.58971
21
-5.11553
0
LINE
8
BLACK
6
CONTINUOUS
10
1.58971
20
-5.11553
11
1.58931
21
-5.11623
0
LINE
8
BLACK
6
CONTINUOUS
10
1.58931
20
-5.11623
11
1.58901
21
-5.11698
0
LINE
8
BLACK
6
CONTINUOUS
10
1.58901
20
-5.11698
11
1.58881
21
-5.11709
0
LINE
8
BLACK
6
CONTINUOUS
10
1.58881
20
-5.11709
11
1.5887
21
-5.11728
0
LINE
8
BLACK
6
CONTINUOUS
10
1.5887
20
-5.11728
11
1.58794
21
-5.11756
0
LINE
8
BLACK
6
CONTINUOUS
10
1.58794
20
-5.11756
11
1.58723
21
-5.11794
0
LINE
8
BLACK
6
CONTINUOUS
10
1.58723
20
-5.11794
11
1.58701
21
-5.11789
0
LINE
8
BLACK
6
CONTINUOUS
10
1.58701
20
-5.11789
11
1.5868
21
-5.11797
0
LINE
8
BLACK
6
CONTINUOUS
10
1.5868
20
-5.11797
11
1.57101
21
-5.11797
0
LINE
8
BLACK
6
CONTINUOUS
10
1.57101
20
-5.11797
11
1.57101
21
-5.12814
0
LINE
8
BLACK
6
CONTINUOUS
10
1.57101
20
-5.12814
11
1.57083
21
-5.12915
0
LINE
8
BLACK
6
CONTINUOUS
10
1.57083
20
-5.12915
11
1.56953
21
-5.1307
0
LINE
8
BLACK
6
CONTINUOUS
10
1.56953
20
-5.1307
11
1.56754
21
-5.13105
0
LINE
8
BLACK
6
CONTINUOUS
10
1.56754
20
-5.13105
11
1.56579
21
-5.13004
0
LINE
8
BLACK
6
CONTINUOUS
10
1.56579
20
-5.13004
11
1.5651
21
-5.12814
0
LINE
8
BLACK
6
CONTINUOUS
10
1.5651
20
-5.12814
11
1.5651
21
-5.11797
0
LINE
8
BLACK
6
CONTINUOUS
10
1.5651
20
-5.11797
11
1.56243
21
-5.11797
0
LINE
8
BLACK
6
CONTINUOUS
10
1.56243
20
-5.11797
11
1.56142
21
-5.11779
0
LINE
8
BLACK
6
CONTINUOUS
10
1.56142
20
-5.11779
11
1.55987
21
-5.1165
0
LINE
8
BLACK
6
CONTINUOUS
10
1.55987
20
-5.1165
11
1.55952
21
-5.11451
0
LINE
8
BLACK
6
CONTINUOUS
10
1.55952
20
-5.11451
11
1.56053
21
-5.11276
0
LINE
8
BLACK
6
CONTINUOUS
10
1.56053
20
-5.11276
11
1.56243
21
-5.11207
0
LINE
8
BLACK
6
CONTINUOUS
10
1.56243
20
-5.11207
11
1.5651
21
-5.11207
0
LINE
8
BLACK
6
CONTINUOUS
10
1.5651
20
-5.11207
11
1.5651
21
-5.1019
0
LINE
8
BLACK
6
CONTINUOUS
10
1.5651
20
-5.1019
11
1.56528
21
-5.10089
0
LINE
8
BLACK
6
CONTINUOUS
10
1.56528
20
-5.10089
11
1.56658
21
-5.09934
0
LINE
8
BLACK
6
CONTINUOUS
10
1.56658
20
-5.09934
11
1.56857
21
-5.09899
0
LINE
8
BLACK
6
CONTINUOUS
10
1.56857
20
-5.09899
11
1.57032
21
-5.1
0
LINE
8
BLACK
6
CONTINUOUS
10
1.57032
20
-5.1
11
1.57101
21
-5.1019
0
LINE
8
BLACK
6
CONTINUOUS
10
1.57101
20
-5.1019
11
1.57101
21
-5.11207
0
LINE
8
BLACK
6
CONTINUOUS
10
1.57101
20
-5.11207
11
1.5827
21
-5.11207
0
LINE
8
BLACK
6
CONTINUOUS
10
1.5827
20
-5.11207
11
1.57463
21
-5.08783
0
LINE
8
BLACK
6
CONTINUOUS
10
1.57463
20
-5.08783
11
1.57448
21
-5.08682
0
LINE
8
BLACK
6
CONTINUOUS
10
1.57448
20
-5.08682
11
1.57522
21
-5.08494
0
LINE
8
BLACK
6
CONTINUOUS
10
1.57522
20
-5.08494
11
1.57699
21
-5.08398
0
LINE
8
BLACK
6
CONTINUOUS
10
1.57699
20
-5.08398
11
1.57897
21
-5.08438
0
LINE
8
BLACK
6
CONTINUOUS
10
1.78543
20
-4.90945
11
1.78682
21
-4.91003
0
LINE
8
BLACK
6
CONTINUOUS
10
1.78682
20
-4.91003
11
1.7874
21
-4.91142
0
LINE
8
BLACK
6
CONTINUOUS
10
1.7874
20
-4.91142
11
1.7874
21
-5.1378
0
LINE
8
BLACK
6
CONTINUOUS
10
1.7874
20
-5.1378
11
1.78682
21
-5.13919
0
LINE
8
BLACK
6
CONTINUOUS
10
1.78682
20
-5.13919
11
1.78543
21
-5.13976
0
LINE
8
BLACK
6
CONTINUOUS
10
1.78543
20
-5.13976
11
1.39567
21
-5.13976
0
LINE
8
BLACK
6
CONTINUOUS
10
1.39567
20
-5.13976
11
1.39428
21
-5.13919
0
LINE
8
BLACK
6
CONTINUOUS
10
1.39428
20
-5.13919
11
1.3937
21
-5.1378
0
LINE
8
BLACK
6
CONTINUOUS
10
1.3937
20
-5.1378
11
1.3937
21
-4.91142
0
LINE
8
BLACK
6
CONTINUOUS
10
1.3937
20
-4.91142
11
1.39428
21
-4.91003
0
LINE
8
BLACK
6
CONTINUOUS
10
1.39428
20
-4.91003
11
1.39567
21
-4.90945
0
LINE
8
BLACK
6
CONTINUOUS
10
1.39567
20
-4.90945
11
1.78543
21
-4.90945
0
LINE
8
BLACK
6
CONTINUOUS
10
1.71467
20
-4.91339
11
1.69065
21
-4.95183
0
LINE
8
BLACK
6
CONTINUOUS
10
1.69065
20
-4.95183
11
1.69028
21
-4.95209
0
LINE
8
BLACK
6
CONTINUOUS
10
1.69028
20
-4.95209
11
1.69002
21
-4.95246
0
LINE
8
BLACK
6
CONTINUOUS
10
1.69002
20
-4.95246
11
1.68969
21
-4.95251
0
LINE
8
BLACK
6
CONTINUOUS
10
1.68969
20
-4.95251
11
1.68942
21
-4.95271
0
LINE
8
BLACK
6
CONTINUOUS
10
1.68942
20
-4.95271
11
1.68898
21
-4.95263
0
LINE
8
BLACK
6
CONTINUOUS
10
1.68898
20
-4.95263
11
1.68853
21
-4.95271
0
LINE
8
BLACK
6
CONTINUOUS
10
1.68853
20
-4.95271
11
1.68826
21
-4.95251
0
LINE
8
BLACK
6
CONTINUOUS
10
1.68826
20
-4.95251
11
1.68793
21
-4.95246
0
LINE
8
BLACK
6
CONTINUOUS
10
1.68793
20
-4.95246
11
1.68767
21
-4.95209
0
LINE
8
BLACK
6
CONTINUOUS
10
1.68767
20
-4.95209
11
1.68731
21
-4.95183
0
LINE
8
BLACK
6
CONTINUOUS
10
1.68731
20
-4.95183
11
1.66328
21
-4.91339
0
LINE
8
BLACK
6
CONTINUOUS
10
1.66328
20
-4.91339
11
1.39764
21
-4.91339
0
LINE
8
BLACK
6
CONTINUOUS
10
1.39764
20
-4.91339
11
1.39764
21
-5.13583
0
LINE
8
BLACK
6
CONTINUOUS
10
1.39764
20
-5.13583
11
1.78346
21
-5.13583
0
LINE
8
BLACK
6
CONTINUOUS
10
1.78346
20
-5.13583
11
1.78346
21
-4.91339
0
LINE
8
BLACK
6
CONTINUOUS
10
1.78346
20
-4.91339
11
1.71467
21
-4.91339
0
LINE
8
BLACK
6
CONTINUOUS
10
1.66792
20
-4.91339
11
1.68898
21
-4.94707
0
LINE
8
BLACK
6
CONTINUOUS
10
1.68898
20
-4.94707
11
1.71003
21
-4.91339
0
LINE
8
BLACK
6
CONTINUOUS
10
1.71003
20
-4.91339
11
1.66792
21
-4.91339
0
LINE
8
BLACK
6
CONTINUOUS
10
6.24921
20
-4.639
11
6.2506
21
-4.63958
0
LINE
8
BLACK
6
CONTINUOUS
10
6.2506
20
-4.63958
11
6.25118
21
-4.64097
0
LINE
8
BLACK
6
CONTINUOUS
10
6.25118
20
-4.64097
11
6.25118
21
-4.84097
0
LINE
8
BLACK
6
CONTINUOUS
10
6.25118
20
-4.84097
11
6.2506
21
-4.84236
0
LINE
8
BLACK
6
CONTINUOUS
10
6.2506
20
-4.84236
11
6.24921
21
-4.84294
0
LINE
8
BLACK
6
CONTINUOUS
10
6.24921
20
-4.84294
11
5.94921
21
-4.84294
0
LINE
8
BLACK
6
CONTINUOUS
10
5.94921
20
-4.84294
11
5.94782
21
-4.84236
0
LINE
8
BLACK
6
CONTINUOUS
10
5.94782
20
-4.84236
11
5.94724
21
-4.84097
0
LINE
8
BLACK
6
CONTINUOUS
10
5.94724
20
-4.84097
11
5.94724
21
-4.68034
0
LINE
8
BLACK
6
CONTINUOUS
10
5.94724
20
-4.68034
11
5.94782
21
-4.67895
0
LINE
8
BLACK
6
CONTINUOUS
10
5.94782
20
-4.67895
11
5.98719
21
-4.63958
0
LINE
8
BLACK
6
CONTINUOUS
10
5.98719
20
-4.63958
11
5.98858
21
-4.639
0
LINE
8
BLACK
6
CONTINUOUS
10
5.98858
20
-4.639
11
6.24921
21
-4.639
0
LINE
8
BLACK
6
CONTINUOUS
10
5.9894
20
-4.64294
11
5.95118
21
-4.68115
0
LINE
8
BLACK
6
CONTINUOUS
10
5.95118
20
-4.68115
11
5.95118
21
-4.839
0
LINE
8
BLACK
6
CONTINUOUS
10
5.95118
20
-4.839
11
6.24724
21
-4.839
0
LINE
8
BLACK
6
CONTINUOUS
10
6.24724
20
-4.839
11
6.24724
21
-4.64294
0
LINE
8
BLACK
6
CONTINUOUS
10
6.24724
20
-4.64294
11
5.9894
21
-4.64294
0
LINE
8
BLACK
6
CONTINUOUS
10
4.74488
20
-2.63998
11
4.74627
21
-2.64056
0
LINE
8
BLACK
6
CONTINUOUS
10
4.74627
20
-2.64056
11
4.78564
21
-2.67993
0
LINE
8
BLACK
6
CONTINUOUS
10
4.78564
20
-2.67993
11
4.78622
21
-2.68132
0
LINE
8
BLACK
6
CONTINUOUS
10
4.78622
20
-2.68132
11
4.78622
21
-4.64195
0
LINE
8
BLACK
6
CONTINUOUS
10
4.78622
20
-4.64195
11
4.78564
21
-4.64334
0
LINE
8
BLACK
6
CONTINUOUS
10
4.78564
20
-4.64334
11
4.78425
21
-4.64392
0
LINE
8
BLACK
6
CONTINUOUS
10
4.78425
20
-4.64392
11
4.58425
21
-4.64392
0
LINE
8
BLACK
6
CONTINUOUS
10
4.58425
20
-4.64392
11
4.58286
21
-4.64334
0
LINE
8
BLACK
6
CONTINUOUS
10
4.58286
20
-4.64334
11
4.58228
21
-4.64195
0
LINE
8
BLACK
6
CONTINUOUS
10
4.58228
20
-4.64195
11
4.58228
21
-2.64195
0
LINE
8
BLACK
6
CONTINUOUS
10
4.58228
20
-2.64195
11
4.58286
21
-2.64056
0
LINE
8
BLACK
6
CONTINUOUS
10
4.58286
20
-2.64056
11
4.58425
21
-2.63998
0
LINE
8
BLACK
6
CONTINUOUS
10
4.58425
20
-2.63998
11
4.74488
21
-2.63998
0
LINE
8
BLACK
6
CONTINUOUS
10
4.58622
20
-2.64392
11
4.58622
21
-4.63998
0
LINE
8
BLACK
6
CONTINUOUS
10
4.58622
20
-4.63998
11
4.78228
21
-4.63998
0
LINE
8
BLACK
6
CONTINUOUS
10
4.78228
20
-4.63998
11
4.78228
21
-2.68214
0
LINE
8
BLACK
6
CONTINUOUS
10
4.78228
20
-2.68214
11
4.74407
21
-2.64392
0
LINE
8
BLACK
6
CONTINUOUS
10
4.74407
20
-2.64392
11
4.58622
21
-2.64392
0
LINE
8
BLACK
6
CONTINUOUS
10
4.90287
20
-3.81238
11
4.90398
21
-3.81406
0
LINE
8
BLACK
6
CONTINUOUS
10
4.90398
20
-3.81406
11
4.90375
21
-3.81607
0
LINE
8
BLACK
6
CONTINUOUS
10
4.90375
20
-3.81607
11
4.90187
21
-3.81982
0
LINE
8
BLACK
6
CONTINUOUS
10
4.90187
20
-3.81982
11
4.90135
21
-3.82053
0
LINE
8
BLACK
6
CONTINUOUS
10
4.90135
20
-3.82053
11
4.90132
21
-3.82059
0
LINE
8
BLACK
6
CONTINUOUS
10
4.90132
20
-3.82059
11
4.89945
21
-3.82246
0
LINE
8
BLACK
6
CONTINUOUS
10
4.89945
20
-3.82246
11
4.89861
21
-3.82305
0
LINE
8
BLACK
6
CONTINUOUS
10
4.89861
20
-3.82305
11
4.89852
21
-3.82306
0
LINE
8
BLACK
6
CONTINUOUS
10
4.89852
20
-3.82306
11
4.89846
21
-3.82312
0
LINE
8
BLACK
6
CONTINUOUS
10
4.89846
20
-3.82312
11
4.88908
21
-3.82687
0
LINE
8
BLACK
6
CONTINUOUS
10
4.88908
20
-3.82687
11
4.88903
21
-3.82688
0
LINE
8
BLACK
6
CONTINUOUS
10
4.88903
20
-3.82688
11
4.88901
21
-3.82689
0
LINE
8
BLACK
6
CONTINUOUS
10
4.88901
20
-3.82689
11
4.88899
21
-3.82689
0
LINE
8
BLACK
6
CONTINUOUS
10
4.88899
20
-3.82689
11
4.88898
21
-3.8269
0
LINE
8
BLACK
6
CONTINUOUS
10
4.88898
20
-3.8269
11
4.86273
21
-3.83628
0
LINE
8
BLACK
6
CONTINUOUS
10
4.86273
20
-3.83628
11
4.86172
21
-3.83645
0
LINE
8
BLACK
6
CONTINUOUS
10
4.86172
20
-3.83645
11
4.85983
21
-3.83575
0
LINE
8
BLACK
6
CONTINUOUS
10
4.85983
20
-3.83575
11
4.85883
21
-3.83399
0
LINE
8
BLACK
6
CONTINUOUS
10
4.85883
20
-3.83399
11
4.85919
21
-3.83201
0
LINE
8
BLACK
6
CONTINUOUS
10
4.85919
20
-3.83201
11
4.86075
21
-3.83072
0
LINE
8
BLACK
6
CONTINUOUS
10
4.86075
20
-3.83072
11
4.87921
21
-3.82412
0
LINE
8
BLACK
6
CONTINUOUS
10
4.87921
20
-3.82412
11
4.86075
21
-3.81753
0
LINE
8
BLACK
6
CONTINUOUS
10
4.86075
20
-3.81753
11
4.85985
21
-3.81702
0
LINE
8
BLACK
6
CONTINUOUS
10
4.85985
20
-3.81702
11
4.85883
21
-3.81528
0
LINE
8
BLACK
6
CONTINUOUS
10
4.85883
20
-3.81528
11
4.85917
21
-3.81329
0
LINE
8
BLACK
6
CONTINUOUS
10
4.85917
20
-3.81329
11
4.86071
21
-3.81198
0
LINE
8
BLACK
6
CONTINUOUS
10
4.86071
20
-3.81198
11
4.86273
21
-3.81197
0
LINE
8
BLACK
6
CONTINUOUS
10
4.86273
20
-3.81197
11
4.88793
21
-3.82097
0
LINE
8
BLACK
6
CONTINUOUS
10
4.88793
20
-3.82097
11
4.8957
21
-3.81786
0
LINE
8
BLACK
6
CONTINUOUS
10
4.8957
20
-3.81786
11
4.89681
21
-3.81675
0
LINE
8
BLACK
6
CONTINUOUS
10
4.89681
20
-3.81675
11
4.89847
21
-3.81343
0
LINE
8
BLACK
6
CONTINUOUS
10
4.89847
20
-3.81343
11
4.89908
21
-3.81261
0
LINE
8
BLACK
6
CONTINUOUS
10
4.89908
20
-3.81261
11
4.90093
21
-3.8118
0
LINE
8
BLACK
6
CONTINUOUS
10
4.90093
20
-3.8118
11
4.90287
21
-3.81238
0
LINE
8
BLACK
6
CONTINUOUS
10
4.88899
20
-3.79135
11
4.89054
21
-3.79265
0
LINE
8
BLACK
6
CONTINUOUS
10
4.89054
20
-3.79265
11
4.89089
21
-3.79464
0
LINE
8
BLACK
6
CONTINUOUS
10
4.89089
20
-3.79464
11
4.88988
21
-3.79639
0
LINE
8
BLACK
6
CONTINUOUS
10
4.88988
20
-3.79639
11
4.88798
21
-3.79708
0
LINE
8
BLACK
6
CONTINUOUS
10
4.88798
20
-3.79708
11
4.86993
21
-3.79708
0
LINE
8
BLACK
6
CONTINUOUS
10
4.86993
20
-3.79708
11
4.86724
21
-3.79843
0
LINE
8
BLACK
6
CONTINUOUS
10
4.86724
20
-3.79843
11
4.86604
21
-3.79963
0
LINE
8
BLACK
6
CONTINUOUS
10
4.86604
20
-3.79963
11
4.86469
21
-3.80232
0
LINE
8
BLACK
6
CONTINUOUS
10
4.86469
20
-3.80232
11
4.86469
21
-3.80538
0
LINE
8
BLACK
6
CONTINUOUS
10
4.86469
20
-3.80538
11
4.86451
21
-3.80639
0
LINE
8
BLACK
6
CONTINUOUS
10
4.86451
20
-3.80639
11
4.86321
21
-3.80793
0
LINE
8
BLACK
6
CONTINUOUS
10
4.86321
20
-3.80793
11
4.86123
21
-3.80828
0
LINE
8
BLACK
6
CONTINUOUS
10
4.86123
20
-3.80828
11
4.85948
21
-3.80727
0
LINE
8
BLACK
6
CONTINUOUS
10
4.85948
20
-3.80727
11
4.85879
21
-3.80538
0
LINE
8
BLACK
6
CONTINUOUS
10
4.85879
20
-3.80538
11
4.85879
21
-3.80163
0
LINE
8
BLACK
6
CONTINUOUS
10
4.85879
20
-3.80163
11
4.85896
21
-3.80062
0
LINE
8
BLACK
6
CONTINUOUS
10
4.85896
20
-3.80062
11
4.85908
21
-3.80048
0
LINE
8
BLACK
6
CONTINUOUS
10
4.85908
20
-3.80048
11
4.8591
21
-3.80031
0
LINE
8
BLACK
6
CONTINUOUS
10
4.8591
20
-3.80031
11
4.86079
21
-3.79691
0
LINE
8
BLACK
6
CONTINUOUS
10
4.86079
20
-3.79691
11
4.86073
21
-3.7969
0
LINE
8
BLACK
6
CONTINUOUS
10
4.86073
20
-3.7969
11
4.85918
21
-3.7956
0
LINE
8
BLACK
6
CONTINUOUS
10
4.85918
20
-3.7956
11
4.85883
21
-3.79361
0
LINE
8
BLACK
6
CONTINUOUS
10
4.85883
20
-3.79361
11
4.85984
21
-3.79187
0
LINE
8
BLACK
6
CONTINUOUS
10
4.85984
20
-3.79187
11
4.86174
21
-3.79117
0
LINE
8
BLACK
6
CONTINUOUS
10
4.86174
20
-3.79117
11
4.88798
21
-3.79117
0
LINE
8
BLACK
6
CONTINUOUS
10
4.88798
20
-3.79117
11
4.88899
21
-3.79135
0
LINE
8
BLACK
6
CONTINUOUS
10
4.88899
20
-3.76698
11
4.89054
21
-3.76828
0
LINE
8
BLACK
6
CONTINUOUS
10
4.89054
20
-3.76828
11
4.89089
21
-3.77027
0
LINE
8
BLACK
6
CONTINUOUS
10
4.89089
20
-3.77027
11
4.88988
21
-3.77202
0
LINE
8
BLACK
6
CONTINUOUS
10
4.88988
20
-3.77202
11
4.88798
21
-3.77271
0
LINE
8
BLACK
6
CONTINUOUS
10
4.88798
20
-3.77271
11
4.86993
21
-3.77271
0
LINE
8
BLACK
6
CONTINUOUS
10
4.86993
20
-3.77271
11
4.86724
21
-3.77406
0
LINE
8
BLACK
6
CONTINUOUS
10
4.86724
20
-3.77406
11
4.86604
21
-3.77525
0
LINE
8
BLACK
6
CONTINUOUS
10
4.86604
20
-3.77525
11
4.86469
21
-3.77795
0
LINE
8
BLACK
6
CONTINUOUS
10
4.86469
20
-3.77795
11
4.86469
21
-3.781
0
LINE
8
BLACK
6
CONTINUOUS
10
4.86469
20
-3.781
11
4.86451
21
-3.78201
0
LINE
8
BLACK
6
CONTINUOUS
10
4.86451
20
-3.78201
11
4.86321
21
-3.78356
0
LINE
8
BLACK
6
CONTINUOUS
10
4.86321
20
-3.78356
11
4.86123
21
-3.78391
0
LINE
8
BLACK
6
CONTINUOUS
10
4.86123
20
-3.78391
11
4.85948
21
-3.7829
0
LINE
8
BLACK
6
CONTINUOUS
10
4.85948
20
-3.7829
11
4.85879
21
-3.781
0
LINE
8
BLACK
6
CONTINUOUS
10
4.85879
20
-3.781
11
4.85879
21
-3.77725
0
LINE
8
BLACK
6
CONTINUOUS
10
4.85879
20
-3.77725
11
4.85896
21
-3.77624
0
LINE
8
BLACK
6
CONTINUOUS
10
4.85896
20
-3.77624
11
4.85908
21
-3.77611
0
LINE
8
BLACK
6
CONTINUOUS
10
4.85908
20
-3.77611
11
4.8591
21
-3.77593
0
LINE
8
BLACK
6
CONTINUOUS
10
4.8591
20
-3.77593
11
4.86079
21
-3.77254
0
LINE
8
BLACK
6
CONTINUOUS
10
4.86079
20
-3.77254
11
4.86073
21
-3.77253
0
LINE
8
BLACK
6
CONTINUOUS
10
4.86073
20
-3.77253
11
4.85918
21
-3.77123
0
LINE
8
BLACK
6
CONTINUOUS
10
4.85918
20
-3.77123
11
4.85883
21
-3.76924
0
LINE
8
BLACK
6
CONTINUOUS
10
4.85883
20
-3.76924
11
4.85984
21
-3.76749
0
LINE
8
BLACK
6
CONTINUOUS
10
4.85984
20
-3.76749
11
4.86174
21
-3.7668
0
LINE
8
BLACK
6
CONTINUOUS
10
4.86174
20
-3.7668
11
4.88798
21
-3.7668
0
LINE
8
BLACK
6
CONTINUOUS
10
4.88798
20
-3.7668
11
4.88899
21
-3.76698
0
LINE
8
BLACK
6
CONTINUOUS
10
4.88337
20
-3.73136
11
4.88351
21
-3.73147
0
LINE
8
BLACK
6
CONTINUOUS
10
4.88351
20
-3.73147
11
4.88368
21
-3.73149
0
LINE
8
BLACK
6
CONTINUOUS
10
4.88368
20
-3.73149
11
4.88743
21
-3.73337
0
LINE
8
BLACK
6
CONTINUOUS
10
4.88743
20
-3.73337
11
4.88825
21
-3.73398
0
LINE
8
BLACK
6
CONTINUOUS
10
4.88825
20
-3.73398
11
4.88843
21
-3.73439
0
LINE
8
BLACK
6
CONTINUOUS
10
4.88843
20
-3.73439
11
4.88875
21
-3.73469
0
LINE
8
BLACK
6
CONTINUOUS
10
4.88875
20
-3.73469
11
4.89063
21
-3.73844
0
LINE
8
BLACK
6
CONTINUOUS
10
4.89063
20
-3.73844
11
4.89092
21
-3.73942
0
LINE
8
BLACK
6
CONTINUOUS
10
4.89092
20
-3.73942
11
4.89088
21
-3.73959
0
LINE
8
BLACK
6
CONTINUOUS
10
4.89088
20
-3.73959
11
4.89094
21
-3.73976
0
LINE
8
BLACK
6
CONTINUOUS
10
4.89094
20
-3.73976
11
4.89094
21
-3.74726
0
LINE
8
BLACK
6
CONTINUOUS
10
4.89094
20
-3.74726
11
4.89076
21
-3.74827
0
LINE
8
BLACK
6
CONTINUOUS
10
4.89076
20
-3.74827
11
4.89065
21
-3.7484
0
LINE
8
BLACK
6
CONTINUOUS
10
4.89065
20
-3.7484
11
4.89063
21
-3.74858
0
LINE
8
BLACK
6
CONTINUOUS
10
4.89063
20
-3.74858
11
4.88875
21
-3.75233
0
LINE
8
BLACK
6
CONTINUOUS
10
4.88875
20
-3.75233
11
4.88814
21
-3.75315
0
LINE
8
BLACK
6
CONTINUOUS
10
4.88814
20
-3.75315
11
4.88629
21
-3.75396
0
LINE
8
BLACK
6
CONTINUOUS
10
4.88629
20
-3.75396
11
4.88435
21
-3.75338
0
LINE
8
BLACK
6
CONTINUOUS
10
4.88435
20
-3.75338
11
4.88324
21
-3.75169
0
LINE
8
BLACK
6
CONTINUOUS
10
4.88324
20
-3.75169
11
4.88347
21
-3.74969
0
LINE
8
BLACK
6
CONTINUOUS
10
4.88347
20
-3.74969
11
4.88503
21
-3.74656
0
LINE
8
BLACK
6
CONTINUOUS
10
4.88503
20
-3.74656
11
4.88503
21
-3.74046
0
LINE
8
BLACK
6
CONTINUOUS
10
4.88503
20
-3.74046
11
4.88391
21
-3.73821
0
LINE
8
BLACK
6
CONTINUOUS
10
4.88391
20
-3.73821
11
4.88166
21
-3.73709
0
LINE
8
BLACK
6
CONTINUOUS
10
4.88166
20
-3.73709
11
4.87728
21
-3.73709
0
LINE
8
BLACK
6
CONTINUOUS
10
4.87728
20
-3.73709
11
4.87401
21
-3.75346
0
LINE
8
BLACK
6
CONTINUOUS
10
4.87401
20
-3.75346
11
4.87363
21
-3.75442
0
LINE
8
BLACK
6
CONTINUOUS
10
4.87363
20
-3.75442
11
4.87325
21
-3.75472
0
LINE
8
BLACK
6
CONTINUOUS
10
4.87325
20
-3.75472
11
4.87301
21
-3.75514
0
LINE
8
BLACK
6
CONTINUOUS
10
4.87301
20
-3.75514
11
4.87249
21
-3.75533
0
LINE
8
BLACK
6
CONTINUOUS
10
4.87249
20
-3.75533
11
4.87206
21
-3.75568
0
LINE
8
BLACK
6
CONTINUOUS
10
4.87206
20
-3.75568
11
4.87157
21
-3.75567
0
LINE
8
BLACK
6
CONTINUOUS
10
4.87157
20
-3.75567
11
4.87111
21
-3.75584
0
LINE
8
BLACK
6
CONTINUOUS
10
4.87111
20
-3.75584
11
4.86736
21
-3.75584
0
LINE
8
BLACK
6
CONTINUOUS
10
4.86736
20
-3.75584
11
4.86635
21
-3.75566
0
LINE
8
BLACK
6
CONTINUOUS
10
4.86635
20
-3.75566
11
4.86622
21
-3.75554
0
LINE
8
BLACK
6
CONTINUOUS
10
4.86622
20
-3.75554
11
4.86604
21
-3.75552
0
LINE
8
BLACK
6
CONTINUOUS
10
4.86604
20
-3.75552
11
4.86229
21
-3.75365
0
LINE
8
BLACK
6
CONTINUOUS
10
4.86229
20
-3.75365
11
4.86147
21
-3.75304
0
LINE
8
BLACK
6
CONTINUOUS
10
4.86147
20
-3.75304
11
4.86129
21
-3.75263
0
LINE
8
BLACK
6
CONTINUOUS
10
4.86129
20
-3.75263
11
4.86097
21
-3.75233
0
LINE
8
BLACK
6
CONTINUOUS
10
4.86097
20
-3.75233
11
4.8591
21
-3.74858
0
LINE
8
BLACK
6
CONTINUOUS
10
4.8591
20
-3.74858
11
4.8588
21
-3.7476
0
LINE
8
BLACK
6
CONTINUOUS
10
4.8588
20
-3.7476
11
4.85885
21
-3.74742
0
LINE
8
BLACK
6
CONTINUOUS
10
4.85885
20
-3.74742
11
4.85879
21
-3.74726
0
LINE
8
BLACK
6
CONTINUOUS
10
4.85879
20
-3.74726
11
4.85879
21
-3.73976
0
LINE
8
BLACK
6
CONTINUOUS
10
4.85879
20
-3.73976
11
4.85896
21
-3.73875
0
LINE
8
BLACK
6
CONTINUOUS
10
4.85896
20
-3.73875
11
4.85908
21
-3.73861
0
LINE
8
BLACK
6
CONTINUOUS
10
4.85908
20
-3.73861
11
4.8591
21
-3.73844
0
LINE
8
BLACK
6
CONTINUOUS
10
4.8591
20
-3.73844
11
4.86097
21
-3.73469
0
LINE
8
BLACK
6
CONTINUOUS
10
4.86097
20
-3.73469
11
4.86158
21
-3.73387
0
LINE
8
BLACK
6
CONTINUOUS
10
4.86158
20
-3.73387
11
4.86199
21
-3.73369
0
LINE
8
BLACK
6
CONTINUOUS
10
4.86199
20
-3.73369
11
4.86229
21
-3.73337
0
LINE
8
BLACK
6
CONTINUOUS
10
4.86229
20
-3.73337
11
4.86604
21
-3.73149
0
LINE
8
BLACK
6
CONTINUOUS
10
4.86604
20
-3.73149
11
4.86702
21
-3.7312
0
LINE
8
BLACK
6
CONTINUOUS
10
4.86702
20
-3.7312
11
4.8672
21
-3.73124
0
LINE
8
BLACK
6
CONTINUOUS
10
4.8672
20
-3.73124
11
4.86736
21
-3.73118
0
LINE
8
BLACK
6
CONTINUOUS
10
4.86736
20
-3.73118
11
4.88236
21
-3.73118
0
LINE
8
BLACK
6
CONTINUOUS
10
4.88236
20
-3.73118
11
4.88337
21
-3.73136
0
LINE
8
BLACK
6
CONTINUOUS
10
4.86581
20
-3.73821
11
4.86469
21
-3.74046
0
LINE
8
BLACK
6
CONTINUOUS
10
4.86469
20
-3.74046
11
4.86469
21
-3.74656
0
LINE
8
BLACK
6
CONTINUOUS
10
4.86469
20
-3.74656
11
4.86581
21
-3.74881
0
LINE
8
BLACK
6
CONTINUOUS
10
4.86581
20
-3.74881
11
4.86806
21
-3.74993
0
LINE
8
BLACK
6
CONTINUOUS
10
4.86806
20
-3.74993
11
4.86869
21
-3.74993
0
LINE
8
BLACK
6
CONTINUOUS
10
4.86869
20
-3.74993
11
4.87126
21
-3.73709
0
LINE
8
BLACK
6
CONTINUOUS
10
4.87126
20
-3.73709
11
4.86806
21
-3.73709
0
LINE
8
BLACK
6
CONTINUOUS
10
4.86806
20
-3.73709
11
4.86581
21
-3.73821
0
LINE
8
BLACK
6
CONTINUOUS
10
4.88837
20
-3.69375
11
4.8885
21
-3.69373
0
LINE
8
BLACK
6
CONTINUOUS
10
4.8885
20
-3.69373
11
4.88861
21
-3.6938
0
LINE
8
BLACK
6
CONTINUOUS
10
4.88861
20
-3.6938
11
4.88899
21
-3.69386
0
LINE
8
BLACK
6
CONTINUOUS
10
4.88899
20
-3.69386
11
4.88958
21
-3.69436
0
LINE
8
BLACK
6
CONTINUOUS
10
4.88958
20
-3.69436
11
4.89025
21
-3.69474
0
LINE
8
BLACK
6
CONTINUOUS
10
4.89025
20
-3.69474
11
4.89034
21
-3.69499
0
LINE
8
BLACK
6
CONTINUOUS
10
4.89034
20
-3.69499
11
4.89054
21
-3.69516
0
LINE
8
BLACK
6
CONTINUOUS
10
4.89054
20
-3.69516
11
4.89068
21
-3.69592
0
LINE
8
BLACK
6
CONTINUOUS
10
4.89068
20
-3.69592
11
4.89094
21
-3.69664
0
LINE
8
BLACK
6
CONTINUOUS
10
4.89094
20
-3.69664
11
4.89094
21
-3.71164
0
LINE
8
BLACK
6
CONTINUOUS
10
4.89094
20
-3.71164
11
4.89076
21
-3.71265
0
LINE
8
BLACK
6
CONTINUOUS
10
4.89076
20
-3.71265
11
4.89065
21
-3.71278
0
LINE
8
BLACK
6
CONTINUOUS
10
4.89065
20
-3.71278
11
4.89063
21
-3.71296
0
LINE
8
BLACK
6
CONTINUOUS
10
4.89063
20
-3.71296
11
4.88875
21
-3.71671
0
LINE
8
BLACK
6
CONTINUOUS
10
4.88875
20
-3.71671
11
4.88823
21
-3.71742
0
LINE
8
BLACK
6
CONTINUOUS
10
4.88823
20
-3.71742
11
4.8882
21
-3.71748
0
LINE
8
BLACK
6
CONTINUOUS
10
4.8882
20
-3.71748
11
4.88632
21
-3.71935
0
LINE
8
BLACK
6
CONTINUOUS
10
4.88632
20
-3.71935
11
4.8856
21
-3.71986
0
LINE
8
BLACK
6
CONTINUOUS
10
4.8856
20
-3.71986
11
4.88556
21
-3.7199
0
LINE
8
BLACK
6
CONTINUOUS
10
4.88556
20
-3.7199
11
4.88181
21
-3.72178
0
LINE
8
BLACK
6
CONTINUOUS
10
4.88181
20
-3.72178
11
4.88082
21
-3.72207
0
LINE
8
BLACK
6
CONTINUOUS
10
4.88082
20
-3.72207
11
4.88065
21
-3.72203
0
LINE
8
BLACK
6
CONTINUOUS
10
4.88065
20
-3.72203
11
4.88049
21
-3.72209
0
LINE
8
BLACK
6
CONTINUOUS
10
4.88049
20
-3.72209
11
4.87486
21
-3.72209
0
LINE
8
BLACK
6
CONTINUOUS
10
4.87486
20
-3.72209
11
4.87385
21
-3.72191
0
LINE
8
BLACK
6
CONTINUOUS
10
4.87385
20
-3.72191
11
4.87372
21
-3.7218
0
LINE
8
BLACK
6
CONTINUOUS
10
4.87372
20
-3.7218
11
4.87354
21
-3.72178
0
LINE
8
BLACK
6
CONTINUOUS
10
4.87354
20
-3.72178
11
4.86979
21
-3.7199
0
LINE
8
BLACK
6
CONTINUOUS
10
4.86979
20
-3.7199
11
4.86908
21
-3.71938
0
LINE
8
BLACK
6
CONTINUOUS
10
4.86908
20
-3.71938
11
4.86902
21
-3.71935
0
LINE
8
BLACK
6
CONTINUOUS
10
4.86902
20
-3.71935
11
4.86715
21
-3.71748
0
LINE
8
BLACK
6
CONTINUOUS
10
4.86715
20
-3.71748
11
4.86656
21
-3.71664
0
LINE
8
BLACK
6
CONTINUOUS
10
4.86656
20
-3.71664
11
4.86656
21
-3.71662
0
LINE
8
BLACK
6
CONTINUOUS
10
4.86656
20
-3.71662
11
4.8657
21
-3.71748
0
LINE
8
BLACK
6
CONTINUOUS
10
4.8657
20
-3.71748
11
4.86498
21
-3.71798
0
LINE
8
BLACK
6
CONTINUOUS
10
4.86498
20
-3.71798
11
4.86493
21
-3.71803
0
LINE
8
BLACK
6
CONTINUOUS
10
4.86493
20
-3.71803
11
4.86118
21
-3.7199
0
LINE
8
BLACK
6
CONTINUOUS
10
4.86118
20
-3.7199
11
4.8602
21
-3.7202
0
LINE
8
BLACK
6
CONTINUOUS
10
4.8602
20
-3.7202
11
4.86003
21
-3.72015
0
LINE
8
BLACK
6
CONTINUOUS
10
4.86003
20
-3.72015
11
4.85986
21
-3.72021
0
LINE
8
BLACK
6
CONTINUOUS
10
4.85986
20
-3.72021
11
4.85611
21
-3.72021
0
LINE
8
BLACK
6
CONTINUOUS
10
4.85611
20
-3.72021
11
4.8551
21
-3.72004
0
LINE
8
BLACK
6
CONTINUOUS
10
4.8551
20
-3.72004
11
4.85497
21
-3.71992
0
LINE
8
BLACK
6
CONTINUOUS
10
4.85497
20
-3.71992
11
4.85479
21
-3.7199
0
LINE
8
BLACK
6
CONTINUOUS
10
4.85479
20
-3.7199
11
4.85104
21
-3.71803
0
LINE
8
BLACK
6
CONTINUOUS
10
4.85104
20
-3.71803
11
4.85033
21
-3.7175
0
LINE
8
BLACK
6
CONTINUOUS
10
4.85033
20
-3.7175
11
4.85028
21
-3.71748
0
LINE
8
BLACK
6
CONTINUOUS
10
4.85028
20
-3.71748
11
4.8484
21
-3.7156
0
LINE
8
BLACK
6
CONTINUOUS
10
4.8484
20
-3.7156
11
4.8479
21
-3.71488
0
LINE
8
BLACK
6
CONTINUOUS
10
4.8479
20
-3.71488
11
4.84785
21
-3.71483
0
LINE
8
BLACK
6
CONTINUOUS
10
4.84785
20
-3.71483
11
4.84597
21
-3.71108
0
LINE
8
BLACK
6
CONTINUOUS
10
4.84597
20
-3.71108
11
4.84568
21
-3.7101
0
LINE
8
BLACK
6
CONTINUOUS
10
4.84568
20
-3.7101
11
4.84572
21
-3.70993
0
LINE
8
BLACK
6
CONTINUOUS
10
4.84572
20
-3.70993
11
4.84566
21
-3.70976
0
LINE
8
BLACK
6
CONTINUOUS
10
4.84566
20
-3.70976
11
4.84566
21
-3.69664
0
LINE
8
BLACK
6
CONTINUOUS
10
4.84566
20
-3.69664
11
4.84573
21
-3.69626
0
LINE
8
BLACK
6
CONTINUOUS
10
4.84573
20
-3.69626
11
4.84571
21
-3.69613
0
LINE
8
BLACK
6
CONTINUOUS
10
4.84571
20
-3.69613
11
4.84577
21
-3.69601
0
LINE
8
BLACK
6
CONTINUOUS
10
4.84577
20
-3.69601
11
4.84584
21
-3.69563
0
LINE
8
BLACK
6
CONTINUOUS
10
4.84584
20
-3.69563
11
4.84633
21
-3.69504
0
LINE
8
BLACK
6
CONTINUOUS
10
4.84633
20
-3.69504
11
4.84672
21
-3.69438
0
LINE
8
BLACK
6
CONTINUOUS
10
4.84672
20
-3.69438
11
4.84697
21
-3.69429
0
LINE
8
BLACK
6
CONTINUOUS
10
4.84697
20
-3.69429
11
4.84714
21
-3.69408
0
LINE
8
BLACK
6
CONTINUOUS
10
4.84714
20
-3.69408
11
4.84789
21
-3.69395
0
LINE
8
BLACK
6
CONTINUOUS
10
4.84789
20
-3.69395
11
4.84861
21
-3.69369
0
LINE
8
BLACK
6
CONTINUOUS
10
4.84861
20
-3.69369
11
4.88798
21
-3.69369
0
LINE
8
BLACK
6
CONTINUOUS
10
4.88798
20
-3.69369
11
4.88837
21
-3.69375
0
LINE
8
BLACK
6
CONTINUOUS
10
4.87032
20
-3.70928
11
4.87182
21
-3.71379
0
LINE
8
BLACK
6
CONTINUOUS
10
4.87182
20
-3.71379
11
4.87286
21
-3.71484
0
LINE
8
BLACK
6
CONTINUOUS
10
4.87286
20
-3.71484
11
4.87556
21
-3.71618
0
LINE
8
BLACK
6
CONTINUOUS
10
4.87556
20
-3.71618
11
4.87979
21
-3.71618
0
LINE
8
BLACK
6
CONTINUOUS
10
4.87979
20
-3.71618
11
4.88249
21
-3.71484
0
LINE
8
BLACK
6
CONTINUOUS
10
4.88249
20
-3.71484
11
4.88368
21
-3.71364
0
LINE
8
BLACK
6
CONTINUOUS
10
4.88368
20
-3.71364
11
4.88503
21
-3.71094
0
LINE
8
BLACK
6
CONTINUOUS
10
4.88503
20
-3.71094
11
4.88503
21
-3.69959
0
LINE
8
BLACK
6
CONTINUOUS
10
4.88503
20
-3.69959
11
4.87032
21
-3.69959
0
LINE
8
BLACK
6
CONTINUOUS
10
4.87032
20
-3.69959
11
4.87032
21
-3.70928
0
LINE
8
BLACK
6
CONTINUOUS
10
4.85157
20
-3.70907
11
4.85292
21
-3.71176
0
LINE
8
BLACK
6
CONTINUOUS
10
4.85292
20
-3.71176
11
4.85411
21
-3.71296
0
LINE
8
BLACK
6
CONTINUOUS
10
4.85411
20
-3.71296
11
4.85681
21
-3.71431
0
LINE
8
BLACK
6
CONTINUOUS
10
4.85681
20
-3.71431
11
4.85917
21
-3.71431
0
LINE
8
BLACK
6
CONTINUOUS
10
4.85917
20
-3.71431
11
4.86186
21
-3.71296
0
LINE
8
BLACK
6
CONTINUOUS
10
4.86186
20
-3.71296
11
4.86306
21
-3.71176
0
LINE
8
BLACK
6
CONTINUOUS
10
4.86306
20
-3.71176
11
4.86441
21
-3.70907
0
LINE
8
BLACK
6
CONTINUOUS
10
4.86441
20
-3.70907
11
4.86441
21
-3.69959
0
LINE
8
BLACK
6
CONTINUOUS
10
4.86441
20
-3.69959
11
4.85157
21
-3.69959
0
LINE
8
BLACK
6
CONTINUOUS
10
4.85157
20
-3.69959
11
4.85157
21
-3.70907
0
LINE
8
BLACK
6
CONTINUOUS
10
4.85099
20
-3.64319
11
4.85125
21
-3.64317
0
LINE
8
BLACK
6
CONTINUOUS
10
4.85125
20
-3.64317
11
4.85188
21
-3.64361
0
LINE
8
BLACK
6
CONTINUOUS
10
4.85188
20
-3.64361
11
4.85258
21
-3.64393
0
LINE
8
BLACK
6
CONTINUOUS
10
4.85258
20
-3.64393
11
4.85445
21
-3.64581
0
LINE
8
BLACK
6
CONTINUOUS
10
4.85445
20
-3.64581
11
4.85468
21
-3.64613
0
LINE
8
BLACK
6
CONTINUOUS
10
4.85468
20
-3.64613
11
4.85478
21
-3.6462
0
LINE
8
BLACK
6
CONTINUOUS
10
4.85478
20
-3.6462
11
4.85482
21
-3.64633
0
LINE
8
BLACK
6
CONTINUOUS
10
4.85482
20
-3.64633
11
4.85482
21
-3.64634
0
LINE
8
BLACK
6
CONTINUOUS
10
4.85482
20
-3.64634
11
4.85492
21
-3.64642
0
LINE
8
BLACK
6
CONTINUOUS
10
4.85492
20
-3.64642
11
4.85494
21
-3.6465
0
LINE
8
BLACK
6
CONTINUOUS
10
4.85494
20
-3.6465
11
4.85504
21
-3.64665
0
LINE
8
BLACK
6
CONTINUOUS
10
4.85504
20
-3.64665
11
4.85511
21
-3.64741
0
LINE
8
BLACK
6
CONTINUOUS
10
4.85511
20
-3.64741
11
4.85531
21
-3.64815
0
LINE
8
BLACK
6
CONTINUOUS
10
4.85531
20
-3.64815
11
4.85525
21
-3.64828
0
LINE
8
BLACK
6
CONTINUOUS
10
4.85525
20
-3.64828
11
4.85527
21
-3.64841
0
LINE
8
BLACK
6
CONTINUOUS
10
4.85527
20
-3.64841
11
4.8552
21
-3.64853
0
LINE
8
BLACK
6
CONTINUOUS
10
4.8552
20
-3.64853
11
4.85522
21
-3.64866
0
LINE
8
BLACK
6
CONTINUOUS
10
4.85522
20
-3.64866
11
4.85478
21
-3.64929
0
LINE
8
BLACK
6
CONTINUOUS
10
4.85478
20
-3.64929
11
4.85445
21
-3.64998
0
LINE
8
BLACK
6
CONTINUOUS
10
4.85445
20
-3.64998
11
4.85258
21
-3.65186
0
LINE
8
BLACK
6
CONTINUOUS
10
4.85258
20
-3.65186
11
4.85226
21
-3.65208
0
LINE
8
BLACK
6
CONTINUOUS
10
4.85226
20
-3.65208
11
4.85218
21
-3.65219
0
LINE
8
BLACK
6
CONTINUOUS
10
4.85218
20
-3.65219
11
4.85206
21
-3.65222
0
LINE
8
BLACK
6
CONTINUOUS
10
4.85206
20
-3.65222
11
4.85174
21
-3.65245
0
LINE
8
BLACK
6
CONTINUOUS
10
4.85174
20
-3.65245
11
4.85097
21
-3.65251
0
LINE
8
BLACK
6
CONTINUOUS
10
4.85097
20
-3.65251
11
4.85023
21
-3.65271
0
LINE
8
BLACK
6
CONTINUOUS
10
4.85023
20
-3.65271
11
4.84999
21
-3.6526
0
LINE
8
BLACK
6
CONTINUOUS
10
4.84999
20
-3.6526
11
4.84973
21
-3.65262
0
LINE
8
BLACK
6
CONTINUOUS
10
4.84973
20
-3.65262
11
4.8491
21
-3.65218
0
LINE
8
BLACK
6
CONTINUOUS
10
4.8491
20
-3.65218
11
4.8484
21
-3.65186
0
LINE
8
BLACK
6
CONTINUOUS
10
4.8484
20
-3.65186
11
4.84653
21
-3.64998
0
LINE
8
BLACK
6
CONTINUOUS
10
4.84653
20
-3.64998
11
4.8463
21
-3.64966
0
LINE
8
BLACK
6
CONTINUOUS
10
4.8463
20
-3.64966
11
4.8462
21
-3.64959
0
LINE
8
BLACK
6
CONTINUOUS
10
4.8462
20
-3.64959
11
4.84616
21
-3.64946
0
LINE
8
BLACK
6
CONTINUOUS
10
4.84616
20
-3.64946
11
4.84616
21
-3.64946
0
LINE
8
BLACK
6
CONTINUOUS
10
4.84616
20
-3.64946
11
4.84606
21
-3.64937
0
LINE
8
BLACK
6
CONTINUOUS
10
4.84606
20
-3.64937
11
4.84604
21
-3.64929
0
LINE
8
BLACK
6
CONTINUOUS
10
4.84604
20
-3.64929
11
4.84594
21
-3.64914
0
LINE
8
BLACK
6
CONTINUOUS
10
4.84594
20
-3.64914
11
4.84587
21
-3.64838
0
LINE
8
BLACK
6
CONTINUOUS
10
4.84587
20
-3.64838
11
4.84567
21
-3.64764
0
LINE
8
BLACK
6
CONTINUOUS
10
4.84567
20
-3.64764
11
4.84573
21
-3.64752
0
LINE
8
BLACK
6
CONTINUOUS
10
4.84573
20
-3.64752
11
4.84571
21
-3.64738
0
LINE
8
BLACK
6
CONTINUOUS
10
4.84571
20
-3.64738
11
4.84577
21
-3.64727
0
LINE
8
BLACK
6
CONTINUOUS
10
4.84577
20
-3.64727
11
4.84576
21
-3.64713
0
LINE
8
BLACK
6
CONTINUOUS
10
4.84576
20
-3.64713
11
4.8462
21
-3.6465
0
LINE
8
BLACK
6
CONTINUOUS
10
4.8462
20
-3.6465
11
4.84653
21
-3.64581
0
LINE
8
BLACK
6
CONTINUOUS
10
4.84653
20
-3.64581
11
4.8484
21
-3.64393
0
LINE
8
BLACK
6
CONTINUOUS
10
4.8484
20
-3.64393
11
4.84872
21
-3.64371
0
LINE
8
BLACK
6
CONTINUOUS
10
4.84872
20
-3.64371
11
4.8488
21
-3.6436
0
LINE
8
BLACK
6
CONTINUOUS
10
4.8488
20
-3.6436
11
4.84892
21
-3.64357
0
LINE
8
BLACK
6
CONTINUOUS
10
4.84892
20
-3.64357
11
4.84924
21
-3.64334
0
LINE
8
BLACK
6
CONTINUOUS
10
4.84924
20
-3.64334
11
4.85001
21
-3.64328
0
LINE
8
BLACK
6
CONTINUOUS
10
4.85001
20
-3.64328
11
4.85075
21
-3.64308
0
LINE
8
BLACK
6
CONTINUOUS
10
4.85075
20
-3.64308
11
4.85099
21
-3.64319
0
LINE
8
BLACK
6
CONTINUOUS
10
4.88899
20
-3.64512
11
4.89054
21
-3.64642
0
LINE
8
BLACK
6
CONTINUOUS
10
4.89054
20
-3.64642
11
4.89089
21
-3.64841
0
LINE
8
BLACK
6
CONTINUOUS
10
4.89089
20
-3.64841
11
4.88988
21
-3.65016
0
LINE
8
BLACK
6
CONTINUOUS
10
4.88988
20
-3.65016
11
4.88798
21
-3.65085
0
LINE
8
BLACK
6
CONTINUOUS
10
4.88798
20
-3.65085
11
4.86174
21
-3.65085
0
LINE
8
BLACK
6
CONTINUOUS
10
4.86174
20
-3.65085
11
4.86073
21
-3.65067
0
LINE
8
BLACK
6
CONTINUOUS
10
4.86073
20
-3.65067
11
4.85918
21
-3.64937
0
LINE
8
BLACK
6
CONTINUOUS
10
4.85918
20
-3.64937
11
4.85883
21
-3.64738
0
LINE
8
BLACK
6
CONTINUOUS
10
4.85883
20
-3.64738
11
4.85984
21
-3.64563
0
LINE
8
BLACK
6
CONTINUOUS
10
4.85984
20
-3.64563
11
4.86174
21
-3.64494
0
LINE
8
BLACK
6
CONTINUOUS
10
4.86174
20
-3.64494
11
4.88798
21
-3.64494
0
LINE
8
BLACK
6
CONTINUOUS
10
4.88798
20
-3.64494
11
4.88899
21
-3.64512
0
LINE
8
BLACK
6
CONTINUOUS
10
4.88899
20
-3.61138
11
4.89054
21
-3.61267
0
LINE
8
BLACK
6
CONTINUOUS
10
4.89054
20
-3.61267
11
4.89089
21
-3.61466
0
LINE
8
BLACK
6
CONTINUOUS
10
4.89089
20
-3.61466
11
4.88988
21
-3.61641
0
LINE
8
BLACK
6
CONTINUOUS
10
4.88988
20
-3.61641
11
4.88798
21
-3.6171
0
LINE
8
BLACK
6
CONTINUOUS
10
4.88798
20
-3.6171
11
4.87032
21
-3.6171
0
LINE
8
BLACK
6
CONTINUOUS
10
4.87032
20
-3.6171
11
4.87032
21
-3.62727
0
LINE
8
BLACK
6
CONTINUOUS
10
4.87032
20
-3.62727
11
4.87014
21
-3.62828
0
LINE
8
BLACK
6
CONTINUOUS
10
4.87014
20
-3.62828
11
4.86884
21
-3.62983
0
LINE
8
BLACK
6
CONTINUOUS
10
4.86884
20
-3.62983
11
4.86685
21
-3.63018
0
LINE
8
BLACK
6
CONTINUOUS
10
4.86685
20
-3.63018
11
4.8651
21
-3.62917
0
LINE
8
BLACK
6
CONTINUOUS
10
4.8651
20
-3.62917
11
4.86441
21
-3.62727
0
LINE
8
BLACK
6
CONTINUOUS
10
4.86441
20
-3.62727
11
4.86441
21
-3.6171
0
LINE
8
BLACK
6
CONTINUOUS
10
4.86441
20
-3.6171
11
4.85157
21
-3.6171
0
LINE
8
BLACK
6
CONTINUOUS
10
4.85157
20
-3.6171
11
4.85157
21
-3.6329
0
LINE
8
BLACK
6
CONTINUOUS
10
4.85157
20
-3.6329
11
4.85139
21
-3.63391
0
LINE
8
BLACK
6
CONTINUOUS
10
4.85139
20
-3.63391
11
4.85009
21
-3.63545
0
LINE
8
BLACK
6
CONTINUOUS
10
4.85009
20
-3.63545
11
4.8481
21
-3.63581
0
LINE
8
BLACK
6
CONTINUOUS
10
4.8481
20
-3.63581
11
4.84635
21
-3.6348
0
LINE
8
BLACK
6
CONTINUOUS
10
4.84635
20
-3.6348
11
4.84566
21
-3.6329
0
LINE
8
BLACK
6
CONTINUOUS
10
4.84566
20
-3.6329
11
4.84566
21
-3.61415
0
LINE
8
BLACK
6
CONTINUOUS
10
4.84566
20
-3.61415
11
4.84573
21
-3.61377
0
LINE
8
BLACK
6
CONTINUOUS
10
4.84573
20
-3.61377
11
4.84571
21
-3.61364
0
LINE
8
BLACK
6
CONTINUOUS
10
4.84571
20
-3.61364
11
4.84577
21
-3.61352
0
LINE
8
BLACK
6
CONTINUOUS
10
4.84577
20
-3.61352
11
4.84584
21
-3.61314
0
LINE
8
BLACK
6
CONTINUOUS
10
4.84584
20
-3.61314
11
4.84633
21
-3.61255
0
LINE
8
BLACK
6
CONTINUOUS
10
4.84633
20
-3.61255
11
4.84672
21
-3.61189
0
LINE
8
BLACK
6
CONTINUOUS
10
4.84672
20
-3.61189
11
4.84697
21
-3.6118
0
LINE
8
BLACK
6
CONTINUOUS
10
4.84697
20
-3.6118
11
4.84714
21
-3.61159
0
LINE
8
BLACK
6
CONTINUOUS
10
4.84714
20
-3.61159
11
4.84789
21
-3.61146
0
LINE
8
BLACK
6
CONTINUOUS
10
4.84789
20
-3.61146
11
4.84861
21
-3.6112
0
LINE
8
BLACK
6
CONTINUOUS
10
4.84861
20
-3.6112
11
4.88798
21
-3.6112
0
LINE
8
BLACK
6
CONTINUOUS
10
4.88798
20
-3.6112
11
4.88899
21
-3.61138
0
LINE
8
BLACK
6
CONTINUOUS
10
4.85099
20
-3.5907
11
4.85125
21
-3.59068
0
LINE
8
BLACK
6
CONTINUOUS
10
4.85125
20
-3.59068
11
4.85188
21
-3.59112
0
LINE
8
BLACK
6
CONTINUOUS
10
4.85188
20
-3.59112
11
4.85258
21
-3.59144
0
LINE
8
BLACK
6
CONTINUOUS
10
4.85258
20
-3.59144
11
4.85445
21
-3.59331
0
LINE
8
BLACK
6
CONTINUOUS
10
4.85445
20
-3.59331
11
4.85468
21
-3.59363
0
LINE
8
BLACK
6
CONTINUOUS
10
4.85468
20
-3.59363
11
4.85478
21
-3.59371
0
LINE
8
BLACK
6
CONTINUOUS
10
4.85478
20
-3.59371
11
4.85482
21
-3.59384
0
LINE
8
BLACK
6
CONTINUOUS
10
4.85482
20
-3.59384
11
4.85482
21
-3.59384
0
LINE
8
BLACK
6
CONTINUOUS
10
4.85482
20
-3.59384
11
4.85492
21
-3.59393
0
LINE
8
BLACK
6
CONTINUOUS
10
4.85492
20
-3.59393
11
4.85494
21
-3.594
0
LINE
8
BLACK
6
CONTINUOUS
10
4.85494
20
-3.594
11
4.85504
21
-3.59415
0
LINE
8
BLACK
6
CONTINUOUS
10
4.85504
20
-3.59415
11
4.85511
21
-3.59492
0
LINE
8
BLACK
6
CONTINUOUS
10
4.85511
20
-3.59492
11
4.85531
21
-3.59566
0
LINE
8
BLACK
6
CONTINUOUS
10
4.85531
20
-3.59566
11
4.85525
21
-3.59578
0
LINE
8
BLACK
6
CONTINUOUS
10
4.85525
20
-3.59578
11
4.85527
21
-3.59592
0
LINE
8
BLACK
6
CONTINUOUS
10
4.85527
20
-3.59592
11
4.8552
21
-3.59603
0
LINE
8
BLACK
6
CONTINUOUS
10
4.8552
20
-3.59603
11
4.85522
21
-3.59617
0
LINE
8
BLACK
6
CONTINUOUS
10
4.85522
20
-3.59617
11
4.85478
21
-3.59679
0
LINE
8
BLACK
6
CONTINUOUS
10
4.85478
20
-3.59679
11
4.85445
21
-3.59749
0
LINE
8
BLACK
6
CONTINUOUS
10
4.85445
20
-3.59749
11
4.85258
21
-3.59936
0
LINE
8
BLACK
6
CONTINUOUS
10
4.85258
20
-3.59936
11
4.85226
21
-3.59959
0
LINE
8
BLACK
6
CONTINUOUS
10
4.85226
20
-3.59959
11
4.85218
21
-3.5997
0
LINE
8
BLACK
6
CONTINUOUS
10
4.85218
20
-3.5997
11
4.85206
21
-3.59973
0
LINE
8
BLACK
6
CONTINUOUS
10
4.85206
20
-3.59973
11
4.85174
21
-3.59995
0
LINE
8
BLACK
6
CONTINUOUS
10
4.85174
20
-3.59995
11
4.85097
21
-3.60002
0
LINE
8
BLACK
6
CONTINUOUS
10
4.85097
20
-3.60002
11
4.85023
21
-3.60022
0
LINE
8
BLACK
6
CONTINUOUS
10
4.85023
20
-3.60022
11
4.84999
21
-3.60011
0
LINE
8
BLACK
6
CONTINUOUS
10
4.84999
20
-3.60011
11
4.84973
21
-3.60013
0
LINE
8
BLACK
6
CONTINUOUS
10
4.84973
20
-3.60013
11
4.8491
21
-3.59969
0
LINE
8
BLACK
6
CONTINUOUS
10
4.8491
20
-3.59969
11
4.8484
21
-3.59936
0
LINE
8
BLACK
6
CONTINUOUS
10
4.8484
20
-3.59936
11
4.84653
21
-3.59749
0
LINE
8
BLACK
6
CONTINUOUS
10
4.84653
20
-3.59749
11
4.8463
21
-3.59717
0
LINE
8
BLACK
6
CONTINUOUS
10
4.8463
20
-3.59717
11
4.8462
21
-3.5971
0
LINE
8
BLACK
6
CONTINUOUS
10
4.8462
20
-3.5971
11
4.84616
21
-3.59697
0
LINE
8
BLACK
6
CONTINUOUS
10
4.84616
20
-3.59697
11
4.84616
21
-3.59696
0
LINE
8
BLACK
6
CONTINUOUS
10
4.84616
20
-3.59696
11
4.84606
21
-3.59688
0
LINE
8
BLACK
6
CONTINUOUS
10
4.84606
20
-3.59688
11
4.84604
21
-3.5968
0
LINE
8
BLACK
6
CONTINUOUS
10
4.84604
20
-3.5968
11
4.84594
21
-3.59665
0
LINE
8
BLACK
6
CONTINUOUS
10
4.84594
20
-3.59665
11
4.84587
21
-3.59589
0
LINE
8
BLACK
6
CONTINUOUS
10
4.84587
20
-3.59589
11
4.84567
21
-3.59515
0
LINE
8
BLACK
6
CONTINUOUS
10
4.84567
20
-3.59515
11
4.84573
21
-3.59502
0
LINE
8
BLACK
6
CONTINUOUS
10
4.84573
20
-3.59502
11
4.84571
21
-3.59489
0
LINE
8
BLACK
6
CONTINUOUS
10
4.84571
20
-3.59489
11
4.84577
21
-3.59477
0
LINE
8
BLACK
6
CONTINUOUS
10
4.84577
20
-3.59477
11
4.84576
21
-3.59464
0
LINE
8
BLACK
6
CONTINUOUS
10
4.84576
20
-3.59464
11
4.8462
21
-3.59401
0
LINE
8
BLACK
6
CONTINUOUS
10
4.8462
20
-3.59401
11
4.84653
21
-3.59331
0
LINE
8
BLACK
6
CONTINUOUS
10
4.84653
20
-3.59331
11
4.8484
21
-3.59144
0
LINE
8
BLACK
6
CONTINUOUS
10
4.8484
20
-3.59144
11
4.84872
21
-3.59122
0
LINE
8
BLACK
6
CONTINUOUS
10
4.84872
20
-3.59122
11
4.8488
21
-3.59111
0
LINE
8
BLACK
6
CONTINUOUS
10
4.8488
20
-3.59111
11
4.84892
21
-3.59107
0
LINE
8
BLACK
6
CONTINUOUS
10
4.84892
20
-3.59107
11
4.84924
21
-3.59085
0
LINE
8
BLACK
6
CONTINUOUS
10
4.84924
20
-3.59085
11
4.85001
21
-3.59078
0
LINE
8
BLACK
6
CONTINUOUS
10
4.85001
20
-3.59078
11
4.85075
21
-3.59059
0
LINE
8
BLACK
6
CONTINUOUS
10
4.85075
20
-3.59059
11
4.85099
21
-3.5907
0
LINE
8
BLACK
6
CONTINUOUS
10
4.88899
20
-3.59263
11
4.89054
21
-3.59393
0
LINE
8
BLACK
6
CONTINUOUS
10
4.89054
20
-3.59393
11
4.89089
21
-3.59592
0
LINE
8
BLACK
6
CONTINUOUS
10
4.89089
20
-3.59592
11
4.88988
21
-3.59766
0
LINE
8
BLACK
6
CONTINUOUS
10
4.88988
20
-3.59766
11
4.88798
21
-3.59836
0
LINE
8
BLACK
6
CONTINUOUS
10
4.88798
20
-3.59836
11
4.86174
21
-3.59836
0
LINE
8
BLACK
6
CONTINUOUS
10
4.86174
20
-3.59836
11
4.86073
21
-3.59818
0
LINE
8
BLACK
6
CONTINUOUS
10
4.86073
20
-3.59818
11
4.85918
21
-3.59688
0
LINE
8
BLACK
6
CONTINUOUS
10
4.85918
20
-3.59688
11
4.85883
21
-3.59489
0
LINE
8
BLACK
6
CONTINUOUS
10
4.85883
20
-3.59489
11
4.85984
21
-3.59314
0
LINE
8
BLACK
6
CONTINUOUS
10
4.85984
20
-3.59314
11
4.86174
21
-3.59245
0
LINE
8
BLACK
6
CONTINUOUS
10
4.86174
20
-3.59245
11
4.88798
21
-3.59245
0
LINE
8
BLACK
6
CONTINUOUS
10
4.88798
20
-3.59245
11
4.88899
21
-3.59263
0
LINE
8
BLACK
6
CONTINUOUS
10
4.88899
20
-3.55138
11
4.89054
21
-3.55268
0
LINE
8
BLACK
6
CONTINUOUS
10
4.89054
20
-3.55268
11
4.89089
21
-3.55467
0
LINE
8
BLACK
6
CONTINUOUS
10
4.89089
20
-3.55467
11
4.88988
21
-3.55642
0
LINE
8
BLACK
6
CONTINUOUS
10
4.88988
20
-3.55642
11
4.88798
21
-3.55711
0
LINE
8
BLACK
6
CONTINUOUS
10
4.88798
20
-3.55711
11
4.87032
21
-3.55711
0
LINE
8
BLACK
6
CONTINUOUS
10
4.87032
20
-3.55711
11
4.87032
21
-3.5737
0
LINE
8
BLACK
6
CONTINUOUS
10
4.87032
20
-3.5737
11
4.88798
21
-3.5737
0
LINE
8
BLACK
6
CONTINUOUS
10
4.88798
20
-3.5737
11
4.88899
21
-3.57388
0
LINE
8
BLACK
6
CONTINUOUS
10
4.88899
20
-3.57388
11
4.89054
21
-3.57518
0
LINE
8
BLACK
6
CONTINUOUS
10
4.89054
20
-3.57518
11
4.89089
21
-3.57717
0
LINE
8
BLACK
6
CONTINUOUS
10
4.89089
20
-3.57717
11
4.88988
21
-3.57892
0
LINE
8
BLACK
6
CONTINUOUS
10
4.88988
20
-3.57892
11
4.88798
21
-3.57961
0
LINE
8
BLACK
6
CONTINUOUS
10
4.88798
20
-3.57961
11
4.84861
21
-3.57961
0
LINE
8
BLACK
6
CONTINUOUS
10
4.84861
20
-3.57961
11
4.8476
21
-3.57943
0
LINE
8
BLACK
6
CONTINUOUS
10
4.8476
20
-3.57943
11
4.84606
21
-3.57813
0
LINE
8
BLACK
6
CONTINUOUS
10
4.84606
20
-3.57813
11
4.84571
21
-3.57614
0
LINE
8
BLACK
6
CONTINUOUS
10
4.84571
20
-3.57614
11
4.84672
21
-3.57439
0
LINE
8
BLACK
6
CONTINUOUS
10
4.84672
20
-3.57439
11
4.84861
21
-3.5737
0
LINE
8
BLACK
6
CONTINUOUS
10
4.84861
20
-3.5737
11
4.86441
21
-3.5737
0
LINE
8
BLACK
6
CONTINUOUS
10
4.86441
20
-3.5737
11
4.86441
21
-3.55711
0
LINE
8
BLACK
6
CONTINUOUS
10
4.86441
20
-3.55711
11
4.84861
21
-3.55711
0
LINE
8
BLACK
6
CONTINUOUS
10
4.84861
20
-3.55711
11
4.8476
21
-3.55693
0
LINE
8
BLACK
6
CONTINUOUS
10
4.8476
20
-3.55693
11
4.84606
21
-3.55563
0
LINE
8
BLACK
6
CONTINUOUS
10
4.84606
20
-3.55563
11
4.84571
21
-3.55364
0
LINE
8
BLACK
6
CONTINUOUS
10
4.84571
20
-3.55364
11
4.84672
21
-3.5519
0
LINE
8
BLACK
6
CONTINUOUS
10
4.84672
20
-3.5519
11
4.84861
21
-3.5512
0
LINE
8
BLACK
6
CONTINUOUS
10
4.84861
20
-3.5512
11
4.88798
21
-3.5512
0
LINE
8
BLACK
6
CONTINUOUS
10
4.88798
20
-3.5512
11
4.88899
21
-3.55138
0
LINE
8
BLACK
6
CONTINUOUS
10
6.17421
20
-2.89471
11
6.1756
21
-2.89529
0
LINE
8
BLACK
6
CONTINUOUS
10
6.1756
20
-2.89529
11
6.21497
21
-2.93466
0
LINE
8
BLACK
6
CONTINUOUS
10
6.21497
20
-2.93466
11
6.21555
21
-2.93605
0
LINE
8
BLACK
6
CONTINUOUS
10
6.21555
20
-2.93605
11
6.21555
21
-3.19668
0
LINE
8
BLACK
6
CONTINUOUS
10
6.21555
20
-3.19668
11
6.21497
21
-3.19807
0
LINE
8
BLACK
6
CONTINUOUS
10
6.21497
20
-3.19807
11
6.21358
21
-3.19865
0
LINE
8
BLACK
6
CONTINUOUS
10
6.21358
20
-3.19865
11
6.01358
21
-3.19865
0
LINE
8
BLACK
6
CONTINUOUS
10
6.01358
20
-3.19865
11
6.01219
21
-3.19807
0
LINE
8
BLACK
6
CONTINUOUS
10
6.01219
20
-3.19807
11
6.01161
21
-3.19668
0
LINE
8
BLACK
6
CONTINUOUS
10
6.01161
20
-3.19668
11
6.01161
21
-2.89668
0
LINE
8
BLACK
6
CONTINUOUS
10
6.01161
20
-2.89668
11
6.01219
21
-2.89529
0
LINE
8
BLACK
6
CONTINUOUS
10
6.01219
20
-2.89529
11
6.01358
21
-2.89471
0
LINE
8
BLACK
6
CONTINUOUS
10
6.01358
20
-2.89471
11
6.17421
21
-2.89471
0
LINE
8
BLACK
6
CONTINUOUS
10
6.01555
20
-2.89865
11
6.01555
21
-3.19471
0
LINE
8
BLACK
6
CONTINUOUS
10
6.01555
20
-3.19471
11
6.21161
21
-3.19471
0
LINE
8
BLACK
6
CONTINUOUS
10
6.21161
20
-3.19471
11
6.21161
21
-2.93686
0
LINE
8
BLACK
6
CONTINUOUS
10
6.21161
20
-2.93686
11
6.1734
21
-2.89865
0
LINE
8
BLACK
6
CONTINUOUS
10
6.1734
20
-2.89865
11
6.01555
21
-2.89865
0
LINE
8
BLACK
6
CONTINUOUS
10
1.7666
20
-1.58293
11
1.76673
21
-1.58291
0
LINE
8
BLACK
6
CONTINUOUS
10
1.76673
20
-1.58291
11
1.76684
21
-1.58298
0
LINE
8
BLACK
6
CONTINUOUS
10
1.76684
20
-1.58298
11
1.76723
21
-1.58304
0
LINE
8
BLACK
6
CONTINUOUS
10
1.76723
20
-1.58304
11
1.76781
21
-1.58354
0
LINE
8
BLACK
6
CONTINUOUS
10
1.76781
20
-1.58354
11
1.76848
21
-1.58392
0
LINE
8
BLACK
6
CONTINUOUS
10
1.76848
20
-1.58392
11
1.76857
21
-1.58417
0
LINE
8
BLACK
6
CONTINUOUS
10
1.76857
20
-1.58417
11
1.76877
21
-1.58434
0
LINE
8
BLACK
6
CONTINUOUS
10
1.76877
20
-1.58434
11
1.76891
21
-1.5851
0
LINE
8
BLACK
6
CONTINUOUS
10
1.76891
20
-1.5851
11
1.76917
21
-1.58582
0
LINE
8
BLACK
6
CONTINUOUS
10
1.76917
20
-1.58582
11
1.76917
21
-1.62519
0
LINE
8
BLACK
6
CONTINUOUS
10
1.76917
20
-1.62519
11
1.7691
21
-1.62557
0
LINE
8
BLACK
6
CONTINUOUS
10
1.7691
20
-1.62557
11
1.76912
21
-1.6257
0
LINE
8
BLACK
6
CONTINUOUS
10
1.76912
20
-1.6257
11
1.76906
21
-1.62582
0
LINE
8
BLACK
6
CONTINUOUS
10
1.76906
20
-1.62582
11
1.76899
21
-1.6262
0
LINE
8
BLACK
6
CONTINUOUS
10
1.76899
20
-1.6262
11
1.7685
21
-1.62679
0
LINE
8
BLACK
6
CONTINUOUS
10
1.7685
20
-1.62679
11
1.76811
21
-1.62745
0
LINE
8
BLACK
6
CONTINUOUS
10
1.76811
20
-1.62745
11
1.76786
21
-1.62754
0
LINE
8
BLACK
6
CONTINUOUS
10
1.76786
20
-1.62754
11
1.76769
21
-1.62775
0
LINE
8
BLACK
6
CONTINUOUS
10
1.76769
20
-1.62775
11
1.76694
21
-1.62788
0
LINE
8
BLACK
6
CONTINUOUS
10
1.76694
20
-1.62788
11
1.76622
21
-1.62814
0
LINE
8
BLACK
6
CONTINUOUS
10
1.76622
20
-1.62814
11
1.75684
21
-1.62814
0
LINE
8
BLACK
6
CONTINUOUS
10
1.75684
20
-1.62814
11
1.75597
21
-1.62799
0
LINE
8
BLACK
6
CONTINUOUS
10
1.75597
20
-1.62799
11
1.75591
21
-1.62799
0
LINE
8
BLACK
6
CONTINUOUS
10
1.75591
20
-1.62799
11
1.75028
21
-1.62612
0
LINE
8
BLACK
6
CONTINUOUS
10
1.75028
20
-1.62612
11
1.74938
21
-1.62563
0
LINE
8
BLACK
6
CONTINUOUS
10
1.74938
20
-1.62563
11
1.74929
21
-1.62548
0
LINE
8
BLACK
6
CONTINUOUS
10
1.74929
20
-1.62548
11
1.74913
21
-1.6254
0
LINE
8
BLACK
6
CONTINUOUS
10
1.74913
20
-1.6254
11
1.74538
21
-1.62165
0
LINE
8
BLACK
6
CONTINUOUS
10
1.74538
20
-1.62165
11
1.74487
21
-1.62093
0
LINE
8
BLACK
6
CONTINUOUS
10
1.74487
20
-1.62093
11
1.74483
21
-1.62089
0
LINE
8
BLACK
6
CONTINUOUS
10
1.74483
20
-1.62089
11
1.74295
21
-1.61714
0
LINE
8
BLACK
6
CONTINUOUS
10
1.74295
20
-1.61714
11
1.74281
21
-1.61665
0
LINE
8
BLACK
6
CONTINUOUS
10
1.74281
20
-1.61665
11
1.74273
21
-1.61653
0
LINE
8
BLACK
6
CONTINUOUS
10
1.74273
20
-1.61653
11
1.74085
21
-1.60903
0
LINE
8
BLACK
6
CONTINUOUS
10
1.74085
20
-1.60903
11
1.74081
21
-1.60845
0
LINE
8
BLACK
6
CONTINUOUS
10
1.74081
20
-1.60845
11
1.74077
21
-1.60832
0
LINE
8
BLACK
6
CONTINUOUS
10
1.74077
20
-1.60832
11
1.74077
21
-1.60269
0
LINE
8
BLACK
6
CONTINUOUS
10
1.74077
20
-1.60269
11
1.74087
21
-1.60211
0
LINE
8
BLACK
6
CONTINUOUS
10
1.74087
20
-1.60211
11
1.74085
21
-1.60198
0
LINE
8
BLACK
6
CONTINUOUS
10
1.74085
20
-1.60198
11
1.74273
21
-1.59448
0
LINE
8
BLACK
6
CONTINUOUS
10
1.74273
20
-1.59448
11
1.74294
21
-1.59401
0
LINE
8
BLACK
6
CONTINUOUS
10
1.74294
20
-1.59401
11
1.74295
21
-1.59387
0
LINE
8
BLACK
6
CONTINUOUS
10
1.74295
20
-1.59387
11
1.74483
21
-1.59012
0
LINE
8
BLACK
6
CONTINUOUS
10
1.74483
20
-1.59012
11
1.74535
21
-1.58941
0
LINE
8
BLACK
6
CONTINUOUS
10
1.74535
20
-1.58941
11
1.74538
21
-1.58936
0
LINE
8
BLACK
6
CONTINUOUS
10
1.74538
20
-1.58936
11
1.74913
21
-1.58561
0
LINE
8
BLACK
6
CONTINUOUS
10
1.74913
20
-1.58561
11
1.74997
21
-1.58502
0
LINE
8
BLACK
6
CONTINUOUS
10
1.74997
20
-1.58502
11
1.75015
21
-1.585
0
LINE
8
BLACK
6
CONTINUOUS
10
1.75015
20
-1.585
11
1.75028
21
-1.58489
0
LINE
8
BLACK
6
CONTINUOUS
10
1.75028
20
-1.58489
11
1.75591
21
-1.58302
0
LINE
8
BLACK
6
CONTINUOUS
10
1.75591
20
-1.58302
11
1.75678
21
-1.58289
0
LINE
8
BLACK
6
CONTINUOUS
10
1.75678
20
-1.58289
11
1.75684
21
-1.58287
0
LINE
8
BLACK
6
CONTINUOUS
10
1.75684
20
-1.58287
11
1.76622
21
-1.58287
0
LINE
8
BLACK
6
CONTINUOUS
10
1.76622
20
-1.58287
11
1.7666
21
-1.58293
0
LINE
8
BLACK
6
CONTINUOUS
10
1.75281
20
-1.59028
11
1.7499
21
-1.59319
0
LINE
8
BLACK
6
CONTINUOUS
10
1.7499
20
-1.59319
11
1.74838
21
-1.59622
0
LINE
8
BLACK
6
CONTINUOUS
10
1.74838
20
-1.59622
11
1.74667
21
-1.60306
0
LINE
8
BLACK
6
CONTINUOUS
10
1.74667
20
-1.60306
11
1.74667
21
-1.60795
0
LINE
8
BLACK
6
CONTINUOUS
10
1.74667
20
-1.60795
11
1.74838
21
-1.61479
0
LINE
8
BLACK
6
CONTINUOUS
10
1.74838
20
-1.61479
11
1.7499
21
-1.61782
0
LINE
8
BLACK
6
CONTINUOUS
10
1.7499
20
-1.61782
11
1.75281
21
-1.62073
0
LINE
8
BLACK
6
CONTINUOUS
10
1.75281
20
-1.62073
11
1.75732
21
-1.62224
0
LINE
8
BLACK
6
CONTINUOUS
10
1.75732
20
-1.62224
11
1.76326
21
-1.62224
0
LINE
8
BLACK
6
CONTINUOUS
10
1.76326
20
-1.62224
11
1.76326
21
-1.58877
0
LINE
8
BLACK
6
CONTINUOUS
10
1.76326
20
-1.58877
11
1.75732
21
-1.58877
0
LINE
8
BLACK
6
CONTINUOUS
10
1.75732
20
-1.58877
11
1.75281
21
-1.59028
0
LINE
8
BLACK
6
CONTINUOUS
10
1.9822
20
-1.58293
11
1.98233
21
-1.58291
0
LINE
8
BLACK
6
CONTINUOUS
10
1.98233
20
-1.58291
11
1.98244
21
-1.58298
0
LINE
8
BLACK
6
CONTINUOUS
10
1.98244
20
-1.58298
11
1.98282
21
-1.58304
0
LINE
8
BLACK
6
CONTINUOUS
10
1.98282
20
-1.58304
11
1.98341
21
-1.58354
0
LINE
8
BLACK
6
CONTINUOUS
10
1.98341
20
-1.58354
11
1.98408
21
-1.58392
0
LINE
8
BLACK
6
CONTINUOUS
10
1.98408
20
-1.58392
11
1.98417
21
-1.58417
0
LINE
8
BLACK
6
CONTINUOUS
10
1.98417
20
-1.58417
11
1.98437
21
-1.58434
0
LINE
8
BLACK
6
CONTINUOUS
10
1.98437
20
-1.58434
11
1.98451
21
-1.5851
0
LINE
8
BLACK
6
CONTINUOUS
10
1.98451
20
-1.5851
11
1.98477
21
-1.58582
0
LINE
8
BLACK
6
CONTINUOUS
10
1.98477
20
-1.58582
11
1.98477
21
-1.62519
0
LINE
8
BLACK
6
CONTINUOUS
10
1.98477
20
-1.62519
11
1.9847
21
-1.62557
0
LINE
8
BLACK
6
CONTINUOUS
10
1.9847
20
-1.62557
11
1.98472
21
-1.6257
0
LINE
8
BLACK
6
CONTINUOUS
10
1.98472
20
-1.6257
11
1.98466
21
-1.62582
0
LINE
8
BLACK
6
CONTINUOUS
10
1.98466
20
-1.62582
11
1.98459
21
-1.6262
0
LINE
8
BLACK
6
CONTINUOUS
10
1.98459
20
-1.6262
11
1.9841
21
-1.62679
0
LINE
8
BLACK
6
CONTINUOUS
10
1.9841
20
-1.62679
11
1.98371
21
-1.62745
0
LINE
8
BLACK
6
CONTINUOUS
10
1.98371
20
-1.62745
11
1.98346
21
-1.62754
0
LINE
8
BLACK
6
CONTINUOUS
10
1.98346
20
-1.62754
11
1.98329
21
-1.62775
0
LINE
8
BLACK
6
CONTINUOUS
10
1.98329
20
-1.62775
11
1.98254
21
-1.62788
0
LINE
8
BLACK
6
CONTINUOUS
10
1.98254
20
-1.62788
11
1.98181
21
-1.62814
0
LINE
8
BLACK
6
CONTINUOUS
10
1.98181
20
-1.62814
11
1.96307
21
-1.62814
0
LINE
8
BLACK
6
CONTINUOUS
10
1.96307
20
-1.62814
11
1.96206
21
-1.62796
0
LINE
8
BLACK
6
CONTINUOUS
10
1.96206
20
-1.62796
11
1.96051
21
-1.62667
0
LINE
8
BLACK
6
CONTINUOUS
10
1.96051
20
-1.62667
11
1.96016
21
-1.62468
0
LINE
8
BLACK
6
CONTINUOUS
10
1.96016
20
-1.62468
11
1.96117
21
-1.62293
0
LINE
8
BLACK
6
CONTINUOUS
10
1.96117
20
-1.62293
11
1.96307
21
-1.62224
0
LINE
8
BLACK
6
CONTINUOUS
10
1.96307
20
-1.62224
11
1.97886
21
-1.62224
0
LINE
8
BLACK
6
CONTINUOUS
10
1.97886
20
-1.62224
11
1.97886
21
-1.60752
0
LINE
8
BLACK
6
CONTINUOUS
10
1.97886
20
-1.60752
11
1.96869
21
-1.60752
0
LINE
8
BLACK
6
CONTINUOUS
10
1.96869
20
-1.60752
11
1.96768
21
-1.60734
0
LINE
8
BLACK
6
CONTINUOUS
10
1.96768
20
-1.60734
11
1.96613
21
-1.60604
0
LINE
8
BLACK
6
CONTINUOUS
10
1.96613
20
-1.60604
11
1.96578
21
-1.60405
0
LINE
8
BLACK
6
CONTINUOUS
10
1.96578
20
-1.60405
11
1.96679
21
-1.60231
0
LINE
8
BLACK
6
CONTINUOUS
10
1.96679
20
-1.60231
11
1.96869
21
-1.60161
0
LINE
8
BLACK
6
CONTINUOUS
10
1.96869
20
-1.60161
11
1.97886
21
-1.60161
0
LINE
8
BLACK
6
CONTINUOUS
10
1.97886
20
-1.60161
11
1.97886
21
-1.58877
0
LINE
8
BLACK
6
CONTINUOUS
10
1.97886
20
-1.58877
11
1.96307
21
-1.58877
0
LINE
8
BLACK
6
CONTINUOUS
10
1.96307
20
-1.58877
11
1.96206
21
-1.58859
0
LINE
8
BLACK
6
CONTINUOUS
10
1.96206
20
-1.58859
11
1.96051
21
-1.5873
0
LINE
8
BLACK
6
CONTINUOUS
10
1.96051
20
-1.5873
11
1.96016
21
-1.58531
0
LINE
8
BLACK
6
CONTINUOUS
10
1.96016
20
-1.58531
11
1.96117
21
-1.58356
0
LINE
8
BLACK
6
CONTINUOUS
10
1.96117
20
-1.58356
11
1.96307
21
-1.58287
0
LINE
8
BLACK
6
CONTINUOUS
10
1.96307
20
-1.58287
11
1.98181
21
-1.58287
0
LINE
8
BLACK
6
CONTINUOUS
10
1.98181
20
-1.58287
11
1.9822
21
-1.58293
0
LINE
8
BLACK
6
CONTINUOUS
10
1.95198
20
-1.58368
11
1.95288
21
-1.5855
0
LINE
8
BLACK
6
CONTINUOUS
10
1.95288
20
-1.5855
11
1.9524
21
-1.58746
0
LINE
8
BLACK
6
CONTINUOUS
10
1.9524
20
-1.58746
11
1.94037
21
-1.6055
0
LINE
8
BLACK
6
CONTINUOUS
10
1.94037
20
-1.6055
11
1.9524
21
-1.62355
0
LINE
8
BLACK
6
CONTINUOUS
10
1.9524
20
-1.62355
11
1.95281
21
-1.62449
0
LINE
8
BLACK
6
CONTINUOUS
10
1.95281
20
-1.62449
11
1.95259
21
-1.6265
0
LINE
8
BLACK
6
CONTINUOUS
10
1.95259
20
-1.6265
11
1.95113
21
-1.62789
0
LINE
8
BLACK
6
CONTINUOUS
10
1.95113
20
-1.62789
11
1.94911
21
-1.62802
0
LINE
8
BLACK
6
CONTINUOUS
10
1.94911
20
-1.62802
11
1.94749
21
-1.62683
0
LINE
8
BLACK
6
CONTINUOUS
10
1.94749
20
-1.62683
11
1.93682
21
-1.61083
0
LINE
8
BLACK
6
CONTINUOUS
10
1.93682
20
-1.61083
11
1.92615
21
-1.62683
0
LINE
8
BLACK
6
CONTINUOUS
10
1.92615
20
-1.62683
11
1.92545
21
-1.62757
0
LINE
8
BLACK
6
CONTINUOUS
10
1.92545
20
-1.62757
11
1.92351
21
-1.62814
0
LINE
8
BLACK
6
CONTINUOUS
10
1.92351
20
-1.62814
11
1.92166
21
-1.62732
0
LINE
8
BLACK
6
CONTINUOUS
10
1.92166
20
-1.62732
11
1.92076
21
-1.62551
0
LINE
8
BLACK
6
CONTINUOUS
10
1.92076
20
-1.62551
11
1.92124
21
-1.62355
0
LINE
8
BLACK
6
CONTINUOUS
10
1.92124
20
-1.62355
11
1.93327
21
-1.6055
0
LINE
8
BLACK
6
CONTINUOUS
10
1.93327
20
-1.6055
11
1.92124
21
-1.58746
0
LINE
8
BLACK
6
CONTINUOUS
10
1.92124
20
-1.58746
11
1.92083
21
-1.58652
0
LINE
8
BLACK
6
CONTINUOUS
10
1.92083
20
-1.58652
11
1.92105
21
-1.58451
0
LINE
8
BLACK
6
CONTINUOUS
10
1.92105
20
-1.58451
11
1.92251
21
-1.58312
0
LINE
8
BLACK
6
CONTINUOUS
10
1.92251
20
-1.58312
11
1.92453
21
-1.58299
0
LINE
8
BLACK
6
CONTINUOUS
10
1.92453
20
-1.58299
11
1.92615
21
-1.58418
0
LINE
8
BLACK
6
CONTINUOUS
10
1.92615
20
-1.58418
11
1.93682
21
-1.60018
0
LINE
8
BLACK
6
CONTINUOUS
10
1.93682
20
-1.60018
11
1.94749
21
-1.58418
0
LINE
8
BLACK
6
CONTINUOUS
10
1.94749
20
-1.58418
11
1.9482
21
-1.58344
0
LINE
8
BLACK
6
CONTINUOUS
10
1.9482
20
-1.58344
11
1.95013
21
-1.58287
0
LINE
8
BLACK
6
CONTINUOUS
10
1.95013
20
-1.58287
11
1.95198
21
-1.58368
0
LINE
8
BLACK
6
CONTINUOUS
10
1.72911
20
-1.58392
11
1.7298
21
-1.58582
0
LINE
8
BLACK
6
CONTINUOUS
10
1.7298
20
-1.58582
11
1.7298
21
-1.62519
0
LINE
8
BLACK
6
CONTINUOUS
10
1.7298
20
-1.62519
11
1.72962
21
-1.6262
0
LINE
8
BLACK
6
CONTINUOUS
10
1.72962
20
-1.6262
11
1.72832
21
-1.62775
0
LINE
8
BLACK
6
CONTINUOUS
10
1.72832
20
-1.62775
11
1.72633
21
-1.6281
0
LINE
8
BLACK
6
CONTINUOUS
10
1.72633
20
-1.6281
11
1.72458
21
-1.62709
0
LINE
8
BLACK
6
CONTINUOUS
10
1.72458
20
-1.62709
11
1.72389
21
-1.62519
0
LINE
8
BLACK
6
CONTINUOUS
10
1.72389
20
-1.62519
11
1.72389
21
-1.58582
0
LINE
8
BLACK
6
CONTINUOUS
10
1.72389
20
-1.58582
11
1.72407
21
-1.58481
0
LINE
8
BLACK
6
CONTINUOUS
10
1.72407
20
-1.58481
11
1.72537
21
-1.58326
0
LINE
8
BLACK
6
CONTINUOUS
10
1.72537
20
-1.58326
11
1.72736
21
-1.58291
0
LINE
8
BLACK
6
CONTINUOUS
10
1.72736
20
-1.58291
11
1.72911
21
-1.58392
0
LINE
8
BLACK
6
CONTINUOUS
10
1.78723
20
-1.58392
11
1.78792
21
-1.58582
0
LINE
8
BLACK
6
CONTINUOUS
10
1.78792
20
-1.58582
11
1.78792
21
-1.62519
0
LINE
8
BLACK
6
CONTINUOUS
10
1.78792
20
-1.62519
11
1.78774
21
-1.6262
0
LINE
8
BLACK
6
CONTINUOUS
10
1.78774
20
-1.6262
11
1.78644
21
-1.62775
0
LINE
8
BLACK
6
CONTINUOUS
10
1.78644
20
-1.62775
11
1.78445
21
-1.6281
0
LINE
8
BLACK
6
CONTINUOUS
10
1.78445
20
-1.6281
11
1.7827
21
-1.62709
0
LINE
8
BLACK
6
CONTINUOUS
10
1.7827
20
-1.62709
11
1.78201
21
-1.62519
0
LINE
8
BLACK
6
CONTINUOUS
10
1.78201
20
-1.62519
11
1.78201
21
-1.58582
0
LINE
8
BLACK
6
CONTINUOUS
10
1.78201
20
-1.58582
11
1.78219
21
-1.58481
0
LINE
8
BLACK
6
CONTINUOUS
10
1.78219
20
-1.58481
11
1.78349
21
-1.58326
0
LINE
8
BLACK
6
CONTINUOUS
10
1.78349
20
-1.58326
11
1.78548
21
-1.58291
0
LINE
8
BLACK
6
CONTINUOUS
10
1.78548
20
-1.58291
11
1.78723
21
-1.58392
0
LINE
8
BLACK
6
CONTINUOUS
10
1.83008
20
-1.58298
11
1.83047
21
-1.58291
0
LINE
8
BLACK
6
CONTINUOUS
10
1.83047
20
-1.58291
11
1.83103
21
-1.58323
0
LINE
8
BLACK
6
CONTINUOUS
10
1.83103
20
-1.58323
11
1.83165
21
-1.5834
0
LINE
8
BLACK
6
CONTINUOUS
10
1.83165
20
-1.5834
11
1.83188
21
-1.58372
0
LINE
8
BLACK
6
CONTINUOUS
10
1.83188
20
-1.58372
11
1.83222
21
-1.58392
0
LINE
8
BLACK
6
CONTINUOUS
10
1.83222
20
-1.58392
11
1.83244
21
-1.58453
0
LINE
8
BLACK
6
CONTINUOUS
10
1.83244
20
-1.58453
11
1.83281
21
-1.58506
0
LINE
8
BLACK
6
CONTINUOUS
10
1.83281
20
-1.58506
11
1.83278
21
-1.58545
0
LINE
8
BLACK
6
CONTINUOUS
10
1.83278
20
-1.58545
11
1.83291
21
-1.58582
0
LINE
8
BLACK
6
CONTINUOUS
10
1.83291
20
-1.58582
11
1.83291
21
-1.62519
0
LINE
8
BLACK
6
CONTINUOUS
10
1.83291
20
-1.62519
11
1.83273
21
-1.6262
0
LINE
8
BLACK
6
CONTINUOUS
10
1.83273
20
-1.6262
11
1.83144
21
-1.62775
0
LINE
8
BLACK
6
CONTINUOUS
10
1.83144
20
-1.62775
11
1.82945
21
-1.6281
0
LINE
8
BLACK
6
CONTINUOUS
10
1.82945
20
-1.6281
11
1.8277
21
-1.62709
0
LINE
8
BLACK
6
CONTINUOUS
10
1.8277
20
-1.62709
11
1.82701
21
-1.62519
0
LINE
8
BLACK
6
CONTINUOUS
10
1.82701
20
-1.62519
11
1.82701
21
-1.59913
0
LINE
8
BLACK
6
CONTINUOUS
10
1.82701
20
-1.59913
11
1.81951
21
-1.61519
0
LINE
8
BLACK
6
CONTINUOUS
10
1.81951
20
-1.61519
11
1.81929
21
-1.61551
0
LINE
8
BLACK
6
CONTINUOUS
10
1.81929
20
-1.61551
11
1.81925
21
-1.61563
0
LINE
8
BLACK
6
CONTINUOUS
10
1.81925
20
-1.61563
11
1.81915
21
-1.61571
0
LINE
8
BLACK
6
CONTINUOUS
10
1.81915
20
-1.61571
11
1.81892
21
-1.61603
0
LINE
8
BLACK
6
CONTINUOUS
10
1.81892
20
-1.61603
11
1.81823
21
-1.61635
0
LINE
8
BLACK
6
CONTINUOUS
10
1.81823
20
-1.61635
11
1.8176
21
-1.61679
0
LINE
8
BLACK
6
CONTINUOUS
10
1.8176
20
-1.61679
11
1.81733
21
-1.61677
0
LINE
8
BLACK
6
CONTINUOUS
10
1.81733
20
-1.61677
11
1.81709
21
-1.61688
0
LINE
8
BLACK
6
CONTINUOUS
10
1.81709
20
-1.61688
11
1.81635
21
-1.61668
0
LINE
8
BLACK
6
CONTINUOUS
10
1.81635
20
-1.61668
11
1.81559
21
-1.61662
0
LINE
8
BLACK
6
CONTINUOUS
10
1.81559
20
-1.61662
11
1.8154
21
-1.61643
0
LINE
8
BLACK
6
CONTINUOUS
10
1.8154
20
-1.61643
11
1.81514
21
-1.61636
0
LINE
8
BLACK
6
CONTINUOUS
10
1.81514
20
-1.61636
11
1.8147
21
-1.61573
0
LINE
8
BLACK
6
CONTINUOUS
10
1.8147
20
-1.61573
11
1.81416
21
-1.61519
0
LINE
8
BLACK
6
CONTINUOUS
10
1.81416
20
-1.61519
11
1.80666
21
-1.59913
0
LINE
8
BLACK
6
CONTINUOUS
10
1.80666
20
-1.59913
11
1.80666
21
-1.62519
0
LINE
8
BLACK
6
CONTINUOUS
10
1.80666
20
-1.62519
11
1.80649
21
-1.6262
0
LINE
8
BLACK
6
CONTINUOUS
10
1.80649
20
-1.6262
11
1.80519
21
-1.62775
0
LINE
8
BLACK
6
CONTINUOUS
10
1.80519
20
-1.62775
11
1.8032
21
-1.6281
0
LINE
8
BLACK
6
CONTINUOUS
10
1.8032
20
-1.6281
11
1.80145
21
-1.62709
0
LINE
8
BLACK
6
CONTINUOUS
10
1.80145
20
-1.62709
11
1.80076
21
-1.62519
0
LINE
8
BLACK
6
CONTINUOUS
10
1.80076
20
-1.62519
11
1.80076
21
-1.58582
0
LINE
8
BLACK
6
CONTINUOUS
10
1.80076
20
-1.58582
11
1.80094
21
-1.58481
0
LINE
8
BLACK
6
CONTINUOUS
10
1.80094
20
-1.58481
11
1.80119
21
-1.58451
0
LINE
8
BLACK
6
CONTINUOUS
10
1.80119
20
-1.58451
11
1.80129
21
-1.58413
0
LINE
8
BLACK
6
CONTINUOUS
10
1.80129
20
-1.58413
11
1.80182
21
-1.58376
0
LINE
8
BLACK
6
CONTINUOUS
10
1.80182
20
-1.58376
11
1.80224
21
-1.58326
0
LINE
8
BLACK
6
CONTINUOUS
10
1.80224
20
-1.58326
11
1.80262
21
-1.58319
0
LINE
8
BLACK
6
CONTINUOUS
10
1.80262
20
-1.58319
11
1.80295
21
-1.58297
0
LINE
8
BLACK
6
CONTINUOUS
10
1.80295
20
-1.58297
11
1.80359
21
-1.58302
0
LINE
8
BLACK
6
CONTINUOUS
10
1.80359
20
-1.58302
11
1.80422
21
-1.58291
0
LINE
8
BLACK
6
CONTINUOUS
10
1.80422
20
-1.58291
11
1.80457
21
-1.58311
0
LINE
8
BLACK
6
CONTINUOUS
10
1.80457
20
-1.58311
11
1.80496
21
-1.58314
0
LINE
8
BLACK
6
CONTINUOUS
10
1.80496
20
-1.58314
11
1.80542
21
-1.5836
0
LINE
8
BLACK
6
CONTINUOUS
10
1.80542
20
-1.5836
11
1.80597
21
-1.58392
0
LINE
8
BLACK
6
CONTINUOUS
10
1.80597
20
-1.58392
11
1.80611
21
-1.58429
0
LINE
8
BLACK
6
CONTINUOUS
10
1.80611
20
-1.58429
11
1.80639
21
-1.58457
0
LINE
8
BLACK
6
CONTINUOUS
10
1.80639
20
-1.58457
11
1.81684
21
-1.60696
0
LINE
8
BLACK
6
CONTINUOUS
10
1.81684
20
-1.60696
11
1.82728
21
-1.58457
0
LINE
8
BLACK
6
CONTINUOUS
10
1.82728
20
-1.58457
11
1.82787
21
-1.58373
0
LINE
8
BLACK
6
CONTINUOUS
10
1.82787
20
-1.58373
11
1.82823
21
-1.58356
0
LINE
8
BLACK
6
CONTINUOUS
10
1.82823
20
-1.58356
11
1.82848
21
-1.58326
0
LINE
8
BLACK
6
CONTINUOUS
10
1.82848
20
-1.58326
11
1.82912
21
-1.58315
0
LINE
8
BLACK
6
CONTINUOUS
10
1.82912
20
-1.58315
11
1.8297
21
-1.58288
0
LINE
8
BLACK
6
CONTINUOUS
10
1.8297
20
-1.58288
11
1.83008
21
-1.58298
0
LINE
8
BLACK
6
CONTINUOUS
10
1.91533
20
-1.58304
11
1.91688
21
-1.58434
0
LINE
8
BLACK
6
CONTINUOUS
10
1.91688
20
-1.58434
11
1.91723
21
-1.58633
0
LINE
8
BLACK
6
CONTINUOUS
10
1.91723
20
-1.58633
11
1.91622
21
-1.58808
0
LINE
8
BLACK
6
CONTINUOUS
10
1.91622
20
-1.58808
11
1.91432
21
-1.58877
0
LINE
8
BLACK
6
CONTINUOUS
10
1.91432
20
-1.58877
11
1.90603
21
-1.58877
0
LINE
8
BLACK
6
CONTINUOUS
10
1.90603
20
-1.58877
11
1.90603
21
-1.62519
0
LINE
8
BLACK
6
CONTINUOUS
10
1.90603
20
-1.62519
11
1.90585
21
-1.6262
0
LINE
8
BLACK
6
CONTINUOUS
10
1.90585
20
-1.6262
11
1.90455
21
-1.62775
0
LINE
8
BLACK
6
CONTINUOUS
10
1.90455
20
-1.62775
11
1.90256
21
-1.6281
0
LINE
8
BLACK
6
CONTINUOUS
10
1.90256
20
-1.6281
11
1.90081
21
-1.62709
0
LINE
8
BLACK
6
CONTINUOUS
10
1.90081
20
-1.62709
11
1.90012
21
-1.62519
0
LINE
8
BLACK
6
CONTINUOUS
10
1.90012
20
-1.62519
11
1.90012
21
-1.58877
0
LINE
8
BLACK
6
CONTINUOUS
10
1.90012
20
-1.58877
11
1.89183
21
-1.58877
0
LINE
8
BLACK
6
CONTINUOUS
10
1.89183
20
-1.58877
11
1.89082
21
-1.58859
0
LINE
8
BLACK
6
CONTINUOUS
10
1.89082
20
-1.58859
11
1.88927
21
-1.5873
0
LINE
8
BLACK
6
CONTINUOUS
10
1.88927
20
-1.5873
11
1.88892
21
-1.58531
0
LINE
8
BLACK
6
CONTINUOUS
10
1.88892
20
-1.58531
11
1.88993
21
-1.58356
0
LINE
8
BLACK
6
CONTINUOUS
10
1.88993
20
-1.58356
11
1.89183
21
-1.58287
0
LINE
8
BLACK
6
CONTINUOUS
10
1.89183
20
-1.58287
11
1.91432
21
-1.58287
0
LINE
8
BLACK
6
CONTINUOUS
10
1.91432
20
-1.58287
11
1.91533
21
-1.58304
0
LINE
8
BLACK
6
CONTINUOUS
10
1.87971
20
-1.60742
11
1.88126
21
-1.60872
0
LINE
8
BLACK
6
CONTINUOUS
10
1.88126
20
-1.60872
11
1.88161
21
-1.6107
0
LINE
8
BLACK
6
CONTINUOUS
10
1.88161
20
-1.6107
11
1.8806
21
-1.61245
0
LINE
8
BLACK
6
CONTINUOUS
10
1.8806
20
-1.61245
11
1.8787
21
-1.61314
0
LINE
8
BLACK
6
CONTINUOUS
10
1.8787
20
-1.61314
11
1.84871
21
-1.61314
0
LINE
8
BLACK
6
CONTINUOUS
10
1.84871
20
-1.61314
11
1.8477
21
-1.61297
0
LINE
8
BLACK
6
CONTINUOUS
10
1.8477
20
-1.61297
11
1.84615
21
-1.61167
0
LINE
8
BLACK
6
CONTINUOUS
10
1.84615
20
-1.61167
11
1.8458
21
-1.60968
0
LINE
8
BLACK
6
CONTINUOUS
10
1.8458
20
-1.60968
11
1.84681
21
-1.60793
0
LINE
8
BLACK
6
CONTINUOUS
10
1.84681
20
-1.60793
11
1.84871
21
-1.60724
0
LINE
8
BLACK
6
CONTINUOUS
10
1.84871
20
-1.60724
11
1.8787
21
-1.60724
0
LINE
8
BLACK
6
CONTINUOUS
10
1.8787
20
-1.60724
11
1.87971
21
-1.60742
0
LINE
8
BLACK
6
CONTINUOUS
10
1.83011
20
-1.50809
11
1.83018
21
-1.50807
0
LINE
8
BLACK
6
CONTINUOUS
10
1.83018
20
-1.50807
11
1.83029
21
-1.50812
0
LINE
8
BLACK
6
CONTINUOUS
10
1.83029
20
-1.50812
11
1.83097
21
-1.50824
0
LINE
8
BLACK
6
CONTINUOUS
10
1.83097
20
-1.50824
11
1.83145
21
-1.50864
0
LINE
8
BLACK
6
CONTINUOUS
10
1.83145
20
-1.50864
11
1.83202
21
-1.5089
0
LINE
8
BLACK
6
CONTINUOUS
10
1.83202
20
-1.5089
11
1.8322
21
-1.50927
0
LINE
8
BLACK
6
CONTINUOUS
10
1.8322
20
-1.50927
11
1.83252
21
-1.50954
0
LINE
8
BLACK
6
CONTINUOUS
10
1.83252
20
-1.50954
11
1.83262
21
-1.51016
0
LINE
8
BLACK
6
CONTINUOUS
10
1.83262
20
-1.51016
11
1.8329
21
-1.51072
0
LINE
8
BLACK
6
CONTINUOUS
10
1.8329
20
-1.51072
11
1.83477
21
-1.52947
0
LINE
8
BLACK
6
CONTINUOUS
10
1.83477
20
-1.52947
11
1.83469
21
-1.53049
0
LINE
8
BLACK
6
CONTINUOUS
10
1.83469
20
-1.53049
11
1.83468
21
-1.53051
0
LINE
8
BLACK
6
CONTINUOUS
10
1.83468
20
-1.53051
11
1.83469
21
-1.53053
0
LINE
8
BLACK
6
CONTINUOUS
10
1.83469
20
-1.53053
11
1.83412
21
-1.53134
0
LINE
8
BLACK
6
CONTINUOUS
10
1.83412
20
-1.53134
11
1.83356
21
-1.53216
0
LINE
8
BLACK
6
CONTINUOUS
10
1.83356
20
-1.53216
11
1.83354
21
-1.53217
0
LINE
8
BLACK
6
CONTINUOUS
10
1.83354
20
-1.53217
11
1.83353
21
-1.53218
0
LINE
8
BLACK
6
CONTINUOUS
10
1.83353
20
-1.53218
11
1.83257
21
-1.53244
0
LINE
8
BLACK
6
CONTINUOUS
10
1.83257
20
-1.53244
11
1.83161
21
-1.53271
0
LINE
8
BLACK
6
CONTINUOUS
10
1.83161
20
-1.53271
11
1.83159
21
-1.5327
0
LINE
8
BLACK
6
CONTINUOUS
10
1.83159
20
-1.5327
11
1.83158
21
-1.53271
0
LINE
8
BLACK
6
CONTINUOUS
10
1.83158
20
-1.53271
11
1.83068
21
-1.53229
0
LINE
8
BLACK
6
CONTINUOUS
10
1.83068
20
-1.53229
11
1.82977
21
-1.53188
0
LINE
8
BLACK
6
CONTINUOUS
10
1.82977
20
-1.53188
11
1.82976
21
-1.53186
0
LINE
8
BLACK
6
CONTINUOUS
10
1.82976
20
-1.53186
11
1.82975
21
-1.53185
0
LINE
8
BLACK
6
CONTINUOUS
10
1.82975
20
-1.53185
11
1.82821
21
-1.53032
0
LINE
8
BLACK
6
CONTINUOUS
10
1.82821
20
-1.53032
11
1.82551
21
-1.52897
0
LINE
8
BLACK
6
CONTINUOUS
10
1.82551
20
-1.52897
11
1.81753
21
-1.52897
0
LINE
8
BLACK
6
CONTINUOUS
10
1.81753
20
-1.52897
11
1.81483
21
-1.53032
0
LINE
8
BLACK
6
CONTINUOUS
10
1.81483
20
-1.53032
11
1.81364
21
-1.53151
0
LINE
8
BLACK
6
CONTINUOUS
10
1.81364
20
-1.53151
11
1.81229
21
-1.53421
0
LINE
8
BLACK
6
CONTINUOUS
10
1.81229
20
-1.53421
11
1.81229
21
-1.54219
0
LINE
8
BLACK
6
CONTINUOUS
10
1.81229
20
-1.54219
11
1.81364
21
-1.54489
0
LINE
8
BLACK
6
CONTINUOUS
10
1.81364
20
-1.54489
11
1.81483
21
-1.54609
0
LINE
8
BLACK
6
CONTINUOUS
10
1.81483
20
-1.54609
11
1.81753
21
-1.54743
0
LINE
8
BLACK
6
CONTINUOUS
10
1.81753
20
-1.54743
11
1.82551
21
-1.54743
0
LINE
8
BLACK
6
CONTINUOUS
10
1.82551
20
-1.54743
11
1.82821
21
-1.54609
0
LINE
8
BLACK
6
CONTINUOUS
10
1.82821
20
-1.54609
11
1.82975
21
-1.54455
0
LINE
8
BLACK
6
CONTINUOUS
10
1.82975
20
-1.54455
11
1.83059
21
-1.54396
0
LINE
8
BLACK
6
CONTINUOUS
10
1.83059
20
-1.54396
11
1.8326
21
-1.54378
0
LINE
8
BLACK
6
CONTINUOUS
10
1.8326
20
-1.54378
11
1.83425
21
-1.54494
0
LINE
8
BLACK
6
CONTINUOUS
10
1.83425
20
-1.54494
11
1.83477
21
-1.54689
0
LINE
8
BLACK
6
CONTINUOUS
10
1.83477
20
-1.54689
11
1.83392
21
-1.54872
0
LINE
8
BLACK
6
CONTINUOUS
10
1.83392
20
-1.54872
11
1.83205
21
-1.5506
0
LINE
8
BLACK
6
CONTINUOUS
10
1.83205
20
-1.5506
11
1.83132
21
-1.55111
0
LINE
8
BLACK
6
CONTINUOUS
10
1.83132
20
-1.55111
11
1.83128
21
-1.55115
0
LINE
8
BLACK
6
CONTINUOUS
10
1.83128
20
-1.55115
11
1.82753
21
-1.55303
0
LINE
8
BLACK
6
CONTINUOUS
10
1.82753
20
-1.55303
11
1.82655
21
-1.55332
0
LINE
8
BLACK
6
CONTINUOUS
10
1.82655
20
-1.55332
11
1.82638
21
-1.55328
0
LINE
8
BLACK
6
CONTINUOUS
10
1.82638
20
-1.55328
11
1.82621
21
-1.55334
0
LINE
8
BLACK
6
CONTINUOUS
10
1.82621
20
-1.55334
11
1.81684
21
-1.55334
0
LINE
8
BLACK
6
CONTINUOUS
10
1.81684
20
-1.55334
11
1.81583
21
-1.55316
0
LINE
8
BLACK
6
CONTINUOUS
10
1.81583
20
-1.55316
11
1.81569
21
-1.55305
0
LINE
8
BLACK
6
CONTINUOUS
10
1.81569
20
-1.55305
11
1.81551
21
-1.55303
0
LINE
8
BLACK
6
CONTINUOUS
10
1.81551
20
-1.55303
11
1.81177
21
-1.55115
0
LINE
8
BLACK
6
CONTINUOUS
10
1.81177
20
-1.55115
11
1.81106
21
-1.55063
0
LINE
8
BLACK
6
CONTINUOUS
10
1.81106
20
-1.55063
11
1.811
21
-1.5506
0
LINE
8
BLACK
6
CONTINUOUS
10
1.811
20
-1.5506
11
1.80912
21
-1.54872
0
LINE
8
BLACK
6
CONTINUOUS
10
1.80912
20
-1.54872
11
1.80862
21
-1.548
0
LINE
8
BLACK
6
CONTINUOUS
10
1.80862
20
-1.548
11
1.80857
21
-1.54796
0
LINE
8
BLACK
6
CONTINUOUS
10
1.80857
20
-1.54796
11
1.8067
21
-1.54421
0
LINE
8
BLACK
6
CONTINUOUS
10
1.8067
20
-1.54421
11
1.8064
21
-1.54323
0
LINE
8
BLACK
6
CONTINUOUS
10
1.8064
20
-1.54323
11
1.80644
21
-1.54305
0
LINE
8
BLACK
6
CONTINUOUS
10
1.80644
20
-1.54305
11
1.80638
21
-1.54289
0
LINE
8
BLACK
6
CONTINUOUS
10
1.80638
20
-1.54289
11
1.80638
21
-1.53351
0
LINE
8
BLACK
6
CONTINUOUS
10
1.80638
20
-1.53351
11
1.80656
21
-1.5325
0
LINE
8
BLACK
6
CONTINUOUS
10
1.80656
20
-1.5325
11
1.80668
21
-1.53237
0
LINE
8
BLACK
6
CONTINUOUS
10
1.80668
20
-1.53237
11
1.8067
21
-1.53219
0
LINE
8
BLACK
6
CONTINUOUS
10
1.8067
20
-1.53219
11
1.80857
21
-1.52844
0
LINE
8
BLACK
6
CONTINUOUS
10
1.80857
20
-1.52844
11
1.8091
21
-1.52773
0
LINE
8
BLACK
6
CONTINUOUS
10
1.8091
20
-1.52773
11
1.80912
21
-1.52768
0
LINE
8
BLACK
6
CONTINUOUS
10
1.80912
20
-1.52768
11
1.811
21
-1.5258
0
LINE
8
BLACK
6
CONTINUOUS
10
1.811
20
-1.5258
11
1.81172
21
-1.5253
0
LINE
8
BLACK
6
CONTINUOUS
10
1.81172
20
-1.5253
11
1.81177
21
-1.52525
0
LINE
8
BLACK
6
CONTINUOUS
10
1.81177
20
-1.52525
11
1.81551
21
-1.52337
0
LINE
8
BLACK
6
CONTINUOUS
10
1.81551
20
-1.52337
11
1.8165
21
-1.52308
0
LINE
8
BLACK
6
CONTINUOUS
10
1.8165
20
-1.52308
11
1.81667
21
-1.52312
0
LINE
8
BLACK
6
CONTINUOUS
10
1.81667
20
-1.52312
11
1.81684
21
-1.52306
0
LINE
8
BLACK
6
CONTINUOUS
10
1.81684
20
-1.52306
11
1.82621
21
-1.52306
0
LINE
8
BLACK
6
CONTINUOUS
10
1.82621
20
-1.52306
11
1.82722
21
-1.52324
0
LINE
8
BLACK
6
CONTINUOUS
10
1.82722
20
-1.52324
11
1.82735
21
-1.52335
0
LINE
8
BLACK
6
CONTINUOUS
10
1.82735
20
-1.52335
11
1.82753
21
-1.52337
0
LINE
8
BLACK
6
CONTINUOUS
10
1.82753
20
-1.52337
11
1.82826
21
-1.52374
0
LINE
8
BLACK
6
CONTINUOUS
10
1.82826
20
-1.52374
11
1.82729
21
-1.51397
0
LINE
8
BLACK
6
CONTINUOUS
10
1.82729
20
-1.51397
11
1.81121
21
-1.51397
0
LINE
8
BLACK
6
CONTINUOUS
10
1.81121
20
-1.51397
11
1.8102
21
-1.51379
0
LINE
8
BLACK
6
CONTINUOUS
10
1.8102
20
-1.51379
11
1.80865
21
-1.51249
0
LINE
8
BLACK
6
CONTINUOUS
10
1.80865
20
-1.51249
11
1.8083
21
-1.5105
0
LINE
8
BLACK
6
CONTINUOUS
10
1.8083
20
-1.5105
11
1.80931
21
-1.50875
0
LINE
8
BLACK
6
CONTINUOUS
10
1.80931
20
-1.50875
11
1.81121
21
-1.50806
0
LINE
8
BLACK
6
CONTINUOUS
10
1.81121
20
-1.50806
11
1.82996
21
-1.50806
0
LINE
8
BLACK
6
CONTINUOUS
10
1.82996
20
-1.50806
11
1.83011
21
-1.50809
0
LINE
8
BLACK
6
CONTINUOUS
10
1.86471
20
-1.50824
11
1.86485
21
-1.50836
0
LINE
8
BLACK
6
CONTINUOUS
10
1.86485
20
-1.50836
11
1.86502
21
-1.50838
0
LINE
8
BLACK
6
CONTINUOUS
10
1.86502
20
-1.50838
11
1.86877
21
-1.51025
0
LINE
8
BLACK
6
CONTINUOUS
10
1.86877
20
-1.51025
11
1.86948
21
-1.51078
0
LINE
8
BLACK
6
CONTINUOUS
10
1.86948
20
-1.51078
11
1.86954
21
-1.5108
0
LINE
8
BLACK
6
CONTINUOUS
10
1.86954
20
-1.5108
11
1.87142
21
-1.51268
0
LINE
8
BLACK
6
CONTINUOUS
10
1.87142
20
-1.51268
11
1.872
21
-1.51352
0
LINE
8
BLACK
6
CONTINUOUS
10
1.872
20
-1.51352
11
1.87218
21
-1.51553
0
LINE
8
BLACK
6
CONTINUOUS
10
1.87218
20
-1.51553
11
1.87102
21
-1.51718
0
LINE
8
BLACK
6
CONTINUOUS
10
1.87102
20
-1.51718
11
1.86907
21
-1.51771
0
LINE
8
BLACK
6
CONTINUOUS
10
1.86907
20
-1.51771
11
1.86724
21
-1.51685
0
LINE
8
BLACK
6
CONTINUOUS
10
1.86724
20
-1.51685
11
1.8657
21
-1.51532
0
LINE
8
BLACK
6
CONTINUOUS
10
1.8657
20
-1.51532
11
1.86301
21
-1.51397
0
LINE
8
BLACK
6
CONTINUOUS
10
1.86301
20
-1.51397
11
1.85503
21
-1.51397
0
LINE
8
BLACK
6
CONTINUOUS
10
1.85503
20
-1.51397
11
1.85233
21
-1.51532
0
LINE
8
BLACK
6
CONTINUOUS
10
1.85233
20
-1.51532
11
1.85113
21
-1.51652
0
LINE
8
BLACK
6
CONTINUOUS
10
1.85113
20
-1.51652
11
1.84978
21
-1.51921
0
LINE
8
BLACK
6
CONTINUOUS
10
1.84978
20
-1.51921
11
1.84978
21
-1.52179
0
LINE
8
BLACK
6
CONTINUOUS
10
1.84978
20
-1.52179
11
1.85129
21
-1.52629
0
LINE
8
BLACK
6
CONTINUOUS
10
1.85129
20
-1.52629
11
1.87329
21
-1.5483
0
LINE
8
BLACK
6
CONTINUOUS
10
1.87329
20
-1.5483
11
1.87366
21
-1.54883
0
LINE
8
BLACK
6
CONTINUOUS
10
1.87366
20
-1.54883
11
1.87376
21
-1.54891
0
LINE
8
BLACK
6
CONTINUOUS
10
1.87376
20
-1.54891
11
1.87377
21
-1.54899
0
LINE
8
BLACK
6
CONTINUOUS
10
1.87377
20
-1.54899
11
1.87388
21
-1.54914
0
LINE
8
BLACK
6
CONTINUOUS
10
1.87388
20
-1.54914
11
1.87396
21
-1.55002
0
LINE
8
BLACK
6
CONTINUOUS
10
1.87396
20
-1.55002
11
1.87411
21
-1.5509
0
LINE
8
BLACK
6
CONTINUOUS
10
1.87411
20
-1.5509
11
1.87404
21
-1.55102
0
LINE
8
BLACK
6
CONTINUOUS
10
1.87404
20
-1.55102
11
1.87406
21
-1.55115
0
LINE
8
BLACK
6
CONTINUOUS
10
1.87406
20
-1.55115
11
1.87355
21
-1.55188
0
LINE
8
BLACK
6
CONTINUOUS
10
1.87355
20
-1.55188
11
1.8731
21
-1.55265
0
LINE
8
BLACK
6
CONTINUOUS
10
1.8731
20
-1.55265
11
1.87297
21
-1.55269
0
LINE
8
BLACK
6
CONTINUOUS
10
1.87297
20
-1.55269
11
1.8729
21
-1.55281
0
LINE
8
BLACK
6
CONTINUOUS
10
1.8729
20
-1.55281
11
1.87204
21
-1.55304
0
LINE
8
BLACK
6
CONTINUOUS
10
1.87204
20
-1.55304
11
1.8712
21
-1.55334
0
LINE
8
BLACK
6
CONTINUOUS
10
1.8712
20
-1.55334
11
1.84683
21
-1.55334
0
LINE
8
BLACK
6
CONTINUOUS
10
1.84683
20
-1.55334
11
1.84582
21
-1.55316
0
LINE
8
BLACK
6
CONTINUOUS
10
1.84582
20
-1.55316
11
1.84427
21
-1.55186
0
LINE
8
BLACK
6
CONTINUOUS
10
1.84427
20
-1.55186
11
1.84392
21
-1.54987
0
LINE
8
BLACK
6
CONTINUOUS
10
1.84392
20
-1.54987
11
1.84493
21
-1.54812
0
LINE
8
BLACK
6
CONTINUOUS
10
1.84493
20
-1.54812
11
1.84683
21
-1.54743
0
LINE
8
BLACK
6
CONTINUOUS
10
1.84683
20
-1.54743
11
1.86407
21
-1.54743
0
LINE
8
BLACK
6
CONTINUOUS
10
1.86407
20
-1.54743
11
1.84662
21
-1.52998
0
LINE
8
BLACK
6
CONTINUOUS
10
1.84662
20
-1.52998
11
1.84603
21
-1.52914
0
LINE
8
BLACK
6
CONTINUOUS
10
1.84603
20
-1.52914
11
1.84601
21
-1.52896
0
LINE
8
BLACK
6
CONTINUOUS
10
1.84601
20
-1.52896
11
1.84591
21
-1.52882
0
LINE
8
BLACK
6
CONTINUOUS
10
1.84591
20
-1.52882
11
1.84403
21
-1.5232
0
LINE
8
BLACK
6
CONTINUOUS
10
1.84403
20
-1.5232
11
1.8439
21
-1.52233
0
LINE
8
BLACK
6
CONTINUOUS
10
1.8439
20
-1.52233
11
1.84388
21
-1.52227
0
LINE
8
BLACK
6
CONTINUOUS
10
1.84388
20
-1.52227
11
1.84388
21
-1.51852
0
LINE
8
BLACK
6
CONTINUOUS
10
1.84388
20
-1.51852
11
1.84406
21
-1.51751
0
LINE
8
BLACK
6
CONTINUOUS
10
1.84406
20
-1.51751
11
1.84417
21
-1.51737
0
LINE
8
BLACK
6
CONTINUOUS
10
1.84417
20
-1.51737
11
1.84419
21
-1.5172
0
LINE
8
BLACK
6
CONTINUOUS
10
1.84419
20
-1.5172
11
1.84607
21
-1.51345
0
LINE
8
BLACK
6
CONTINUOUS
10
1.84607
20
-1.51345
11
1.84659
21
-1.51274
0
LINE
8
BLACK
6
CONTINUOUS
10
1.84659
20
-1.51274
11
1.84662
21
-1.51268
0
LINE
8
BLACK
6
CONTINUOUS
10
1.84662
20
-1.51268
11
1.84849
21
-1.5108
0
LINE
8
BLACK
6
CONTINUOUS
10
1.84849
20
-1.5108
11
1.84922
21
-1.5103
0
LINE
8
BLACK
6
CONTINUOUS
10
1.84922
20
-1.5103
11
1.84926
21
-1.51025
0
LINE
8
BLACK
6
CONTINUOUS
10
1.84926
20
-1.51025
11
1.85301
21
-1.50838
0
LINE
8
BLACK
6
CONTINUOUS
10
1.85301
20
-1.50838
11
1.85399
21
-1.50808
0
LINE
8
BLACK
6
CONTINUOUS
10
1.85399
20
-1.50808
11
1.85416
21
-1.50812
0
LINE
8
BLACK
6
CONTINUOUS
10
1.85416
20
-1.50812
11
1.85433
21
-1.50806
0
LINE
8
BLACK
6
CONTINUOUS
10
1.85433
20
-1.50806
11
1.8637
21
-1.50806
0
LINE
8
BLACK
6
CONTINUOUS
10
1.8637
20
-1.50806
11
1.86471
21
-1.50824
0
LINE
8
BLACK
6
CONTINUOUS
10
1.88846
20
-1.50912
11
1.88915
21
-1.51102
0
LINE
8
BLACK
6
CONTINUOUS
10
1.88915
20
-1.51102
11
1.88915
21
-1.53866
0
LINE
8
BLACK
6
CONTINUOUS
10
1.88915
20
-1.53866
11
1.89066
21
-1.54317
0
LINE
8
BLACK
6
CONTINUOUS
10
1.89066
20
-1.54317
11
1.89342
21
-1.54593
0
LINE
8
BLACK
6
CONTINUOUS
10
1.89342
20
-1.54593
11
1.89793
21
-1.54743
0
LINE
8
BLACK
6
CONTINUOUS
10
1.89793
20
-1.54743
11
1.9012
21
-1.54743
0
LINE
8
BLACK
6
CONTINUOUS
10
1.9012
20
-1.54743
11
1.90221
21
-1.54761
0
LINE
8
BLACK
6
CONTINUOUS
10
1.90221
20
-1.54761
11
1.90376
21
-1.54891
0
LINE
8
BLACK
6
CONTINUOUS
10
1.90376
20
-1.54891
11
1.90411
21
-1.5509
0
LINE
8
BLACK
6
CONTINUOUS
10
1.90411
20
-1.5509
11
1.9031
21
-1.55265
0
LINE
8
BLACK
6
CONTINUOUS
10
1.9031
20
-1.55265
11
1.9012
21
-1.55334
0
LINE
8
BLACK
6
CONTINUOUS
10
1.9012
20
-1.55334
11
1.89745
21
-1.55334
0
LINE
8
BLACK
6
CONTINUOUS
10
1.89745
20
-1.55334
11
1.89658
21
-1.55319
0
LINE
8
BLACK
6
CONTINUOUS
10
1.89658
20
-1.55319
11
1.89652
21
-1.55319
0
LINE
8
BLACK
6
CONTINUOUS
10
1.89652
20
-1.55319
11
1.89089
21
-1.55131
0
LINE
8
BLACK
6
CONTINUOUS
10
1.89089
20
-1.55131
11
1.88999
21
-1.55082
0
LINE
8
BLACK
6
CONTINUOUS
10
1.88999
20
-1.55082
11
1.8899
21
-1.55067
0
LINE
8
BLACK
6
CONTINUOUS
10
1.8899
20
-1.55067
11
1.88974
21
-1.5506
0
LINE
8
BLACK
6
CONTINUOUS
10
1.88974
20
-1.5506
11
1.88599
21
-1.54685
0
LINE
8
BLACK
6
CONTINUOUS
10
1.88599
20
-1.54685
11
1.8854
21
-1.54601
0
LINE
8
BLACK
6
CONTINUOUS
10
1.8854
20
-1.54601
11
1.88538
21
-1.54583
0
LINE
8
BLACK
6
CONTINUOUS
10
1.88538
20
-1.54583
11
1.88528
21
-1.5457
0
LINE
8
BLACK
6
CONTINUOUS
10
1.88528
20
-1.5457
11
1.8834
21
-1.54007
0
LINE
8
BLACK
6
CONTINUOUS
10
1.8834
20
-1.54007
11
1.88327
21
-1.5392
0
LINE
8
BLACK
6
CONTINUOUS
10
1.88327
20
-1.5392
11
1.88325
21
-1.53914
0
LINE
8
BLACK
6
CONTINUOUS
10
1.88325
20
-1.53914
11
1.88325
21
-1.51102
0
LINE
8
BLACK
6
CONTINUOUS
10
1.88325
20
-1.51102
11
1.88343
21
-1.51001
0
LINE
8
BLACK
6
CONTINUOUS
10
1.88343
20
-1.51001
11
1.88473
21
-1.50846
0
LINE
8
BLACK
6
CONTINUOUS
10
1.88473
20
-1.50846
11
1.88671
21
-1.50811
0
LINE
8
BLACK
6
CONTINUOUS
10
1.88671
20
-1.50811
11
1.88846
21
-1.50912
0
LINE
8
BLACK
6
CONTINUOUS
10
2.04921
20
-1.33169
11
2.0506
21
-1.33227
0
LINE
8
BLACK
6
CONTINUOUS
10
2.0506
20
-1.33227
11
2.05118
21
-1.33366
0
LINE
8
BLACK
6
CONTINUOUS
10
2.05118
20
-1.33366
11
2.05118
21
-1.56004
0
LINE
8
BLACK
6
CONTINUOUS
10
2.05118
20
-1.56004
11
2.0506
21
-1.56143
0
LINE
8
BLACK
6
CONTINUOUS
10
2.0506
20
-1.56143
11
2.04921
21
-1.56201
0
LINE
8
BLACK
6
CONTINUOUS
10
2.04921
20
-1.56201
11
1.65945
21
-1.56201
0
LINE
8
BLACK
6
CONTINUOUS
10
1.65945
20
-1.56201
11
1.65806
21
-1.56143
0
LINE
8
BLACK
6
CONTINUOUS
10
1.65806
20
-1.56143
11
1.65748
21
-1.56004
0
LINE
8
BLACK
6
CONTINUOUS
10
1.65748
20
-1.56004
11
1.65748
21
-1.33366
0
LINE
8
BLACK
6
CONTINUOUS
10
1.65748
20
-1.33366
11
1.65806
21
-1.33227
0
LINE
8
BLACK
6
CONTINUOUS
10
1.65806
20
-1.33227
11
1.65945
21
-1.33169
0
LINE
8
BLACK
6
CONTINUOUS
10
1.65945
20
-1.33169
11
2.04921
21
-1.33169
0
LINE
8
BLACK
6
CONTINUOUS
10
1.97845
20
-1.33563
11
1.95443
21
-1.37407
0
LINE
8
BLACK
6
CONTINUOUS
10
1.95443
20
-1.37407
11
1.95406
21
-1.37434
0
LINE
8
BLACK
6
CONTINUOUS
10
1.95406
20
-1.37434
11
1.9538
21
-1.3747
0
LINE
8
BLACK
6
CONTINUOUS
10
1.9538
20
-1.3747
11
1.95347
21
-1.37476
0
LINE
8
BLACK
6
CONTINUOUS
10
1.95347
20
-1.37476
11
1.9532
21
-1.37495
0
LINE
8
BLACK
6
CONTINUOUS
10
1.9532
20
-1.37495
11
1.95276
21
-1.37488
0
LINE
8
BLACK
6
CONTINUOUS
10
1.95276
20
-1.37488
11
1.95231
21
-1.37495
0
LINE
8
BLACK
6
CONTINUOUS
10
1.95231
20
-1.37495
11
1.95204
21
-1.37476
0
LINE
8
BLACK
6
CONTINUOUS
10
1.95204
20
-1.37476
11
1.95171
21
-1.3747
0
LINE
8
BLACK
6
CONTINUOUS
10
1.95171
20
-1.3747
11
1.95145
21
-1.37434
0
LINE
8
BLACK
6
CONTINUOUS
10
1.95145
20
-1.37434
11
1.95109
21
-1.37407
0
LINE
8
BLACK
6
CONTINUOUS
10
1.95109
20
-1.37407
11
1.92706
21
-1.33563
0
LINE
8
BLACK
6
CONTINUOUS
10
1.92706
20
-1.33563
11
1.66142
21
-1.33563
0
LINE
8
BLACK
6
CONTINUOUS
10
1.66142
20
-1.33563
11
1.66142
21
-1.55807
0
LINE
8
BLACK
6
CONTINUOUS
10
1.66142
20
-1.55807
11
2.04724
21
-1.55807
0
LINE
8
BLACK
6
CONTINUOUS
10
2.04724
20
-1.55807
11
2.04724
21
-1.33563
0
LINE
8
BLACK
6
CONTINUOUS
10
2.04724
20
-1.33563
11
1.97845
21
-1.33563
0
LINE
8
BLACK
6
CONTINUOUS
10
1.9317
20
-1.33563
11
1.95276
21
-1.36932
0
LINE
8
BLACK
6
CONTINUOUS
10
1.95276
20
-1.36932
11
1.97381
21
-1.33563
0
LINE
8
BLACK
6
CONTINUOUS
10
1.97381
20
-1.33563
11
1.9317
21
-1.33563
0
LINE
8
BLACK
6
CONTINUOUS
10
1.7666
20
-1.27782
11
1.76673
21
-1.27779
0
LINE
8
BLACK
6
CONTINUOUS
10
1.76673
20
-1.27779
11
1.76684
21
-1.27786
0
LINE
8
BLACK
6
CONTINUOUS
10
1.76684
20
-1.27786
11
1.76723
21
-1.27793
0
LINE
8
BLACK
6
CONTINUOUS
10
1.76723
20
-1.27793
11
1.76781
21
-1.27842
0
LINE
8
BLACK
6
CONTINUOUS
10
1.76781
20
-1.27842
11
1.76848
21
-1.2788
0
LINE
8
BLACK
6
CONTINUOUS
10
1.76848
20
-1.2788
11
1.76857
21
-1.27905
0
LINE
8
BLACK
6
CONTINUOUS
10
1.76857
20
-1.27905
11
1.76877
21
-1.27923
0
LINE
8
BLACK
6
CONTINUOUS
10
1.76877
20
-1.27923
11
1.76891
21
-1.27998
0
LINE
8
BLACK
6
CONTINUOUS
10
1.76891
20
-1.27998
11
1.76917
21
-1.2807
0
LINE
8
BLACK
6
CONTINUOUS
10
1.76917
20
-1.2807
11
1.76917
21
-1.32007
0
LINE
8
BLACK
6
CONTINUOUS
10
1.76917
20
-1.32007
11
1.7691
21
-1.32046
0
LINE
8
BLACK
6
CONTINUOUS
10
1.7691
20
-1.32046
11
1.76912
21
-1.32058
0
LINE
8
BLACK
6
CONTINUOUS
10
1.76912
20
-1.32058
11
1.76906
21
-1.3207
0
LINE
8
BLACK
6
CONTINUOUS
10
1.76906
20
-1.3207
11
1.76899
21
-1.32108
0
LINE
8
BLACK
6
CONTINUOUS
10
1.76899
20
-1.32108
11
1.7685
21
-1.32167
0
LINE
8
BLACK
6
CONTINUOUS
10
1.7685
20
-1.32167
11
1.76811
21
-1.32233
0
LINE
8
BLACK
6
CONTINUOUS
10
1.76811
20
-1.32233
11
1.76786
21
-1.32242
0
LINE
8
BLACK
6
CONTINUOUS
10
1.76786
20
-1.32242
11
1.76769
21
-1.32263
0
LINE
8
BLACK
6
CONTINUOUS
10
1.76769
20
-1.32263
11
1.76694
21
-1.32276
0
LINE
8
BLACK
6
CONTINUOUS
10
1.76694
20
-1.32276
11
1.76622
21
-1.32302
0
LINE
8
BLACK
6
CONTINUOUS
10
1.76622
20
-1.32302
11
1.75684
21
-1.32302
0
LINE
8
BLACK
6
CONTINUOUS
10
1.75684
20
-1.32302
11
1.75597
21
-1.32287
0
LINE
8
BLACK
6
CONTINUOUS
10
1.75597
20
-1.32287
11
1.75591
21
-1.32287
0
LINE
8
BLACK
6
CONTINUOUS
10
1.75591
20
-1.32287
11
1.75028
21
-1.321
0
LINE
8
BLACK
6
CONTINUOUS
10
1.75028
20
-1.321
11
1.74938
21
-1.32051
0
LINE
8
BLACK
6
CONTINUOUS
10
1.74938
20
-1.32051
11
1.74929
21
-1.32036
0
LINE
8
BLACK
6
CONTINUOUS
10
1.74929
20
-1.32036
11
1.74913
21
-1.32028
0
LINE
8
BLACK
6
CONTINUOUS
10
1.74913
20
-1.32028
11
1.74538
21
-1.31654
0
LINE
8
BLACK
6
CONTINUOUS
10
1.74538
20
-1.31654
11
1.74487
21
-1.31581
0
LINE
8
BLACK
6
CONTINUOUS
10
1.74487
20
-1.31581
11
1.74483
21
-1.31577
0
LINE
8
BLACK
6
CONTINUOUS
10
1.74483
20
-1.31577
11
1.74295
21
-1.31202
0
LINE
8
BLACK
6
CONTINUOUS
10
1.74295
20
-1.31202
11
1.74281
21
-1.31153
0
LINE
8
BLACK
6
CONTINUOUS
10
1.74281
20
-1.31153
11
1.74273
21
-1.31141
0
LINE
8
BLACK
6
CONTINUOUS
10
1.74273
20
-1.31141
11
1.74085
21
-1.30391
0
LINE
8
BLACK
6
CONTINUOUS
10
1.74085
20
-1.30391
11
1.74081
21
-1.30333
0
LINE
8
BLACK
6
CONTINUOUS
10
1.74081
20
-1.30333
11
1.74077
21
-1.3032
0
LINE
8
BLACK
6
CONTINUOUS
10
1.74077
20
-1.3032
11
1.74077
21
-1.29757
0
LINE
8
BLACK
6
CONTINUOUS
10
1.74077
20
-1.29757
11
1.74087
21
-1.29699
0
LINE
8
BLACK
6
CONTINUOUS
10
1.74087
20
-1.29699
11
1.74085
21
-1.29686
0
LINE
8
BLACK
6
CONTINUOUS
10
1.74085
20
-1.29686
11
1.74273
21
-1.28936
0
LINE
8
BLACK
6
CONTINUOUS
10
1.74273
20
-1.28936
11
1.74294
21
-1.28889
0
LINE
8
BLACK
6
CONTINUOUS
10
1.74294
20
-1.28889
11
1.74295
21
-1.28875
0
LINE
8
BLACK
6
CONTINUOUS
10
1.74295
20
-1.28875
11
1.74483
21
-1.28501
0
LINE
8
BLACK
6
CONTINUOUS
10
1.74483
20
-1.28501
11
1.74535
21
-1.2843
0
LINE
8
BLACK
6
CONTINUOUS
10
1.74535
20
-1.2843
11
1.74538
21
-1.28424
0
LINE
8
BLACK
6
CONTINUOUS
10
1.74538
20
-1.28424
11
1.74913
21
-1.28049
0
LINE
8
BLACK
6
CONTINUOUS
10
1.74913
20
-1.28049
11
1.74997
21
-1.2799
0
LINE
8
BLACK
6
CONTINUOUS
10
1.74997
20
-1.2799
11
1.75015
21
-1.27988
0
LINE
8
BLACK
6
CONTINUOUS
10
1.75015
20
-1.27988
11
1.75028
21
-1.27978
0
LINE
8
BLACK
6
CONTINUOUS
10
1.75028
20
-1.27978
11
1.75591
21
-1.2779
0
LINE
8
BLACK
6
CONTINUOUS
10
1.75591
20
-1.2779
11
1.75678
21
-1.27777
0
LINE
8
BLACK
6
CONTINUOUS
10
1.75678
20
-1.27777
11
1.75684
21
-1.27775
0
LINE
8
BLACK
6
CONTINUOUS
10
1.75684
20
-1.27775
11
1.76622
21
-1.27775
0
LINE
8
BLACK
6
CONTINUOUS
10
1.76622
20
-1.27775
11
1.7666
21
-1.27782
0
LINE
8
BLACK
6
CONTINUOUS
10
1.75281
20
-1.28516
11
1.7499
21
-1.28807
0
LINE
8
BLACK
6
CONTINUOUS
10
1.7499
20
-1.28807
11
1.74838
21
-1.29111
0
LINE
8
BLACK
6
CONTINUOUS
10
1.74838
20
-1.29111
11
1.74667
21
-1.29794
0
LINE
8
BLACK
6
CONTINUOUS
10
1.74667
20
-1.29794
11
1.74667
21
-1.30284
0
LINE
8
BLACK
6
CONTINUOUS
10
1.74667
20
-1.30284
11
1.74838
21
-1.30967
0
LINE
8
BLACK
6
CONTINUOUS
10
1.74838
20
-1.30967
11
1.7499
21
-1.3127
0
LINE
8
BLACK
6
CONTINUOUS
10
1.7499
20
-1.3127
11
1.75281
21
-1.31562
0
LINE
8
BLACK
6
CONTINUOUS
10
1.75281
20
-1.31562
11
1.75732
21
-1.31712
0
LINE
8
BLACK
6
CONTINUOUS
10
1.75732
20
-1.31712
11
1.76326
21
-1.31712
0
LINE
8
BLACK
6
CONTINUOUS
10
1.76326
20
-1.31712
11
1.76326
21
-1.28365
0
LINE
8
BLACK
6
CONTINUOUS
10
1.76326
20
-1.28365
11
1.75732
21
-1.28365
0
LINE
8
BLACK
6
CONTINUOUS
10
1.75732
20
-1.28365
11
1.75281
21
-1.28516
0
LINE
8
BLACK
6
CONTINUOUS
10
1.9822
20
-1.27782
11
1.98233
21
-1.27779
0
LINE
8
BLACK
6
CONTINUOUS
10
1.98233
20
-1.27779
11
1.98244
21
-1.27786
0
LINE
8
BLACK
6
CONTINUOUS
10
1.98244
20
-1.27786
11
1.98282
21
-1.27793
0
LINE
8
BLACK
6
CONTINUOUS
10
1.98282
20
-1.27793
11
1.98341
21
-1.27842
0
LINE
8
BLACK
6
CONTINUOUS
10
1.98341
20
-1.27842
11
1.98408
21
-1.2788
0
LINE
8
BLACK
6
CONTINUOUS
10
1.98408
20
-1.2788
11
1.98417
21
-1.27905
0
LINE
8
BLACK
6
CONTINUOUS
10
1.98417
20
-1.27905
11
1.98437
21
-1.27923
0
LINE
8
BLACK
6
CONTINUOUS
10
1.98437
20
-1.27923
11
1.98451
21
-1.27998
0
LINE
8
BLACK
6
CONTINUOUS
10
1.98451
20
-1.27998
11
1.98477
21
-1.2807
0
LINE
8
BLACK
6
CONTINUOUS
10
1.98477
20
-1.2807
11
1.98477
21
-1.32007
0
LINE
8
BLACK
6
CONTINUOUS
10
1.98477
20
-1.32007
11
1.9847
21
-1.32046
0
LINE
8
BLACK
6
CONTINUOUS
10
1.9847
20
-1.32046
11
1.98472
21
-1.32058
0
LINE
8
BLACK
6
CONTINUOUS
10
1.98472
20
-1.32058
11
1.98466
21
-1.3207
0
LINE
8
BLACK
6
CONTINUOUS
10
1.98466
20
-1.3207
11
1.98459
21
-1.32108
0
LINE
8
BLACK
6
CONTINUOUS
10
1.98459
20
-1.32108
11
1.9841
21
-1.32167
0
LINE
8
BLACK
6
CONTINUOUS
10
1.9841
20
-1.32167
11
1.98371
21
-1.32233
0
LINE
8
BLACK
6
CONTINUOUS
10
1.98371
20
-1.32233
11
1.98346
21
-1.32242
0
LINE
8
BLACK
6
CONTINUOUS
10
1.98346
20
-1.32242
11
1.98329
21
-1.32263
0
LINE
8
BLACK
6
CONTINUOUS
10
1.98329
20
-1.32263
11
1.98254
21
-1.32276
0
LINE
8
BLACK
6
CONTINUOUS
10
1.98254
20
-1.32276
11
1.98181
21
-1.32302
0
LINE
8
BLACK
6
CONTINUOUS
10
1.98181
20
-1.32302
11
1.96307
21
-1.32302
0
LINE
8
BLACK
6
CONTINUOUS
10
1.96307
20
-1.32302
11
1.96206
21
-1.32285
0
LINE
8
BLACK
6
CONTINUOUS
10
1.96206
20
-1.32285
11
1.96051
21
-1.32155
0
LINE
8
BLACK
6
CONTINUOUS
10
1.96051
20
-1.32155
11
1.96016
21
-1.31956
0
LINE
8
BLACK
6
CONTINUOUS
10
1.96016
20
-1.31956
11
1.96117
21
-1.31781
0
LINE
8
BLACK
6
CONTINUOUS
10
1.96117
20
-1.31781
11
1.96307
21
-1.31712
0
LINE
8
BLACK
6
CONTINUOUS
10
1.96307
20
-1.31712
11
1.97886
21
-1.31712
0
LINE
8
BLACK
6
CONTINUOUS
10
1.97886
20
-1.31712
11
1.97886
21
-1.3024
0
LINE
8
BLACK
6
CONTINUOUS
10
1.97886
20
-1.3024
11
1.96869
21
-1.3024
0
LINE
8
BLACK
6
CONTINUOUS
10
1.96869
20
-1.3024
11
1.96768
21
-1.30222
0
LINE
8
BLACK
6
CONTINUOUS
10
1.96768
20
-1.30222
11
1.96613
21
-1.30093
0
LINE
8
BLACK
6
CONTINUOUS
10
1.96613
20
-1.30093
11
1.96578
21
-1.29894
0
LINE
8
BLACK
6
CONTINUOUS
10
1.96578
20
-1.29894
11
1.96679
21
-1.29719
0
LINE
8
BLACK
6
CONTINUOUS
10
1.96679
20
-1.29719
11
1.96869
21
-1.2965
0
LINE
8
BLACK
6
CONTINUOUS
10
1.96869
20
-1.2965
11
1.97886
21
-1.2965
0
LINE
8
BLACK
6
CONTINUOUS
10
1.97886
20
-1.2965
11
1.97886
21
-1.28365
0
LINE
8
BLACK
6
CONTINUOUS
10
1.97886
20
-1.28365
11
1.96307
21
-1.28365
0
LINE
8
BLACK
6
CONTINUOUS
10
1.96307
20
-1.28365
11
1.96206
21
-1.28348
0
LINE
8
BLACK
6
CONTINUOUS
10
1.96206
20
-1.28348
11
1.96051
21
-1.28218
0
LINE
8
BLACK
6
CONTINUOUS
10
1.96051
20
-1.28218
11
1.96016
21
-1.28019
0
LINE
8
BLACK
6
CONTINUOUS
10
1.96016
20
-1.28019
11
1.96117
21
-1.27844
0
LINE
8
BLACK
6
CONTINUOUS
10
1.96117
20
-1.27844
11
1.96307
21
-1.27775
0
LINE
8
BLACK
6
CONTINUOUS
10
1.96307
20
-1.27775
11
1.98181
21
-1.27775
0
LINE
8
BLACK
6
CONTINUOUS
10
1.98181
20
-1.27775
11
1.9822
21
-1.27782
0
LINE
8
BLACK
6
CONTINUOUS
10
1.95198
20
-1.27857
11
1.95288
21
-1.28038
0
LINE
8
BLACK
6
CONTINUOUS
10
1.95288
20
-1.28038
11
1.9524
21
-1.28234
0
LINE
8
BLACK
6
CONTINUOUS
10
1.9524
20
-1.28234
11
1.94037
21
-1.30039
0
LINE
8
BLACK
6
CONTINUOUS
10
1.94037
20
-1.30039
11
1.9524
21
-1.31843
0
LINE
8
BLACK
6
CONTINUOUS
10
1.9524
20
-1.31843
11
1.95281
21
-1.31937
0
LINE
8
BLACK
6
CONTINUOUS
10
1.95281
20
-1.31937
11
1.95259
21
-1.32138
0
LINE
8
BLACK
6
CONTINUOUS
10
1.95259
20
-1.32138
11
1.95113
21
-1.32278
0
LINE
8
BLACK
6
CONTINUOUS
10
1.95113
20
-1.32278
11
1.94911
21
-1.32291
0
LINE
8
BLACK
6
CONTINUOUS
10
1.94911
20
-1.32291
11
1.94749
21
-1.32171
0
LINE
8
BLACK
6
CONTINUOUS
10
1.94749
20
-1.32171
11
1.93682
21
-1.30571
0
LINE
8
BLACK
6
CONTINUOUS
10
1.93682
20
-1.30571
11
1.92615
21
-1.32171
0
LINE
8
BLACK
6
CONTINUOUS
10
1.92615
20
-1.32171
11
1.92545
21
-1.32245
0
LINE
8
BLACK
6
CONTINUOUS
10
1.92545
20
-1.32245
11
1.92351
21
-1.32302
0
LINE
8
BLACK
6
CONTINUOUS
10
1.92351
20
-1.32302
11
1.92166
21
-1.32221
0
LINE
8
BLACK
6
CONTINUOUS
10
1.92166
20
-1.32221
11
1.92076
21
-1.3204
0
LINE
8
BLACK
6
CONTINUOUS
10
1.92076
20
-1.3204
11
1.92124
21
-1.31843
0
LINE
8
BLACK
6
CONTINUOUS
10
1.92124
20
-1.31843
11
1.93327
21
-1.30039
0
LINE
8
BLACK
6
CONTINUOUS
10
1.93327
20
-1.30039
11
1.92124
21
-1.28234
0
LINE
8
BLACK
6
CONTINUOUS
10
1.92124
20
-1.28234
11
1.92083
21
-1.2814
0
LINE
8
BLACK
6
CONTINUOUS
10
1.92083
20
-1.2814
11
1.92105
21
-1.27939
0
LINE
8
BLACK
6
CONTINUOUS
10
1.92105
20
-1.27939
11
1.92251
21
-1.278
0
LINE
8
BLACK
6
CONTINUOUS
10
1.92251
20
-1.278
11
1.92453
21
-1.27787
0
LINE
8
BLACK
6
CONTINUOUS
10
1.92453
20
-1.27787
11
1.92615
21
-1.27906
0
LINE
8
BLACK
6
CONTINUOUS
10
1.92615
20
-1.27906
11
1.93682
21
-1.29506
0
LINE
8
BLACK
6
CONTINUOUS
10
1.93682
20
-1.29506
11
1.94749
21
-1.27906
0
LINE
8
BLACK
6
CONTINUOUS
10
1.94749
20
-1.27906
11
1.9482
21
-1.27832
0
LINE
8
BLACK
6
CONTINUOUS
10
1.9482
20
-1.27832
11
1.95013
21
-1.27775
0
LINE
8
BLACK
6
CONTINUOUS
10
1.95013
20
-1.27775
11
1.95198
21
-1.27857
0
LINE
8
BLACK
6
CONTINUOUS
10
1.72911
20
-1.2788
11
1.7298
21
-1.2807
0
LINE
8
BLACK
6
CONTINUOUS
10
1.7298
20
-1.2807
11
1.7298
21
-1.32007
0
LINE
8
BLACK
6
CONTINUOUS
10
1.7298
20
-1.32007
11
1.72962
21
-1.32108
0
LINE
8
BLACK
6
CONTINUOUS
10
1.72962
20
-1.32108
11
1.72832
21
-1.32263
0
LINE
8
BLACK
6
CONTINUOUS
10
1.72832
20
-1.32263
11
1.72633
21
-1.32298
0
LINE
8
BLACK
6
CONTINUOUS
10
1.72633
20
-1.32298
11
1.72458
21
-1.32197
0
LINE
8
BLACK
6
CONTINUOUS
10
1.72458
20
-1.32197
11
1.72389
21
-1.32007
0
LINE
8
BLACK
6
CONTINUOUS
10
1.72389
20
-1.32007
11
1.72389
21
-1.2807
0
LINE
8
BLACK
6
CONTINUOUS
10
1.72389
20
-1.2807
11
1.72407
21
-1.27969
0
LINE
8
BLACK
6
CONTINUOUS
10
1.72407
20
-1.27969
11
1.72537
21
-1.27814
0
LINE
8
BLACK
6
CONTINUOUS
10
1.72537
20
-1.27814
11
1.72736
21
-1.27779
0
LINE
8
BLACK
6
CONTINUOUS
10
1.72736
20
-1.27779
11
1.72911
21
-1.2788
0
LINE
8
BLACK
6
CONTINUOUS
10
1.78723
20
-1.2788
11
1.78792
21
-1.2807
0
LINE
8
BLACK
6
CONTINUOUS
10
1.78792
20
-1.2807
11
1.78792
21
-1.32007
0
LINE
8
BLACK
6
CONTINUOUS
10
1.78792
20
-1.32007
11
1.78774
21
-1.32108
0
LINE
8
BLACK
6
CONTINUOUS
10
1.78774
20
-1.32108
11
1.78644
21
-1.32263
0
LINE
8
BLACK
6
CONTINUOUS
10
1.78644
20
-1.32263
11
1.78445
21
-1.32298
0
LINE
8
BLACK
6
CONTINUOUS
10
1.78445
20
-1.32298
11
1.7827
21
-1.32197
0
LINE
8
BLACK
6
CONTINUOUS
10
1.7827
20
-1.32197
11
1.78201
21
-1.32007
0
LINE
8
BLACK
6
CONTINUOUS
10
1.78201
20
-1.32007
11
1.78201
21
-1.2807
0
LINE
8
BLACK
6
CONTINUOUS
10
1.78201
20
-1.2807
11
1.78219
21
-1.27969
0
LINE
8
BLACK
6
CONTINUOUS
10
1.78219
20
-1.27969
11
1.78349
21
-1.27814
0
LINE
8
BLACK
6
CONTINUOUS
10
1.78349
20
-1.27814
11
1.78548
21
-1.27779
0
LINE
8
BLACK
6
CONTINUOUS
10
1.78548
20
-1.27779
11
1.78723
21
-1.2788
0
LINE
8
BLACK
6
CONTINUOUS
10
1.83008
20
-1.27786
11
1.83047
21
-1.27779
0
LINE
8
BLACK
6
CONTINUOUS
10
1.83047
20
-1.27779
11
1.83103
21
-1.27812
0
LINE
8
BLACK
6
CONTINUOUS
10
1.83103
20
-1.27812
11
1.83165
21
-1.27828
0
LINE
8
BLACK
6
CONTINUOUS
10
1.83165
20
-1.27828
11
1.83188
21
-1.27861
0
LINE
8
BLACK
6
CONTINUOUS
10
1.83188
20
-1.27861
11
1.83222
21
-1.2788
0
LINE
8
BLACK
6
CONTINUOUS
10
1.83222
20
-1.2788
11
1.83244
21
-1.27941
0
LINE
8
BLACK
6
CONTINUOUS
10
1.83244
20
-1.27941
11
1.83281
21
-1.27994
0
LINE
8
BLACK
6
CONTINUOUS
10
1.83281
20
-1.27994
11
1.83278
21
-1.28033
0
LINE
8
BLACK
6
CONTINUOUS
10
1.83278
20
-1.28033
11
1.83291
21
-1.2807
0
LINE
8
BLACK
6
CONTINUOUS
10
1.83291
20
-1.2807
11
1.83291
21
-1.32007
0
LINE
8
BLACK
6
CONTINUOUS
10
1.83291
20
-1.32007
11
1.83273
21
-1.32108
0
LINE
8
BLACK
6
CONTINUOUS
10
1.83273
20
-1.32108
11
1.83144
21
-1.32263
0
LINE
8
BLACK
6
CONTINUOUS
10
1.83144
20
-1.32263
11
1.82945
21
-1.32298
0
LINE
8
BLACK
6
CONTINUOUS
10
1.82945
20
-1.32298
11
1.8277
21
-1.32197
0
LINE
8
BLACK
6
CONTINUOUS
10
1.8277
20
-1.32197
11
1.82701
21
-1.32007
0
LINE
8
BLACK
6
CONTINUOUS
10
1.82701
20
-1.32007
11
1.82701
21
-1.29401
0
LINE
8
BLACK
6
CONTINUOUS
10
1.82701
20
-1.29401
11
1.81951
21
-1.31007
0
LINE
8
BLACK
6
CONTINUOUS
10
1.81951
20
-1.31007
11
1.81929
21
-1.31039
0
LINE
8
BLACK
6
CONTINUOUS
10
1.81929
20
-1.31039
11
1.81925
21
-1.31052
0
LINE
8
BLACK
6
CONTINUOUS
10
1.81925
20
-1.31052
11
1.81915
21
-1.31059
0
LINE
8
BLACK
6
CONTINUOUS
10
1.81915
20
-1.31059
11
1.81892
21
-1.31091
0
LINE
8
BLACK
6
CONTINUOUS
10
1.81892
20
-1.31091
11
1.81823
21
-1.31124
0
LINE
8
BLACK
6
CONTINUOUS
10
1.81823
20
-1.31124
11
1.8176
21
-1.31167
0
LINE
8
BLACK
6
CONTINUOUS
10
1.8176
20
-1.31167
11
1.81733
21
-1.31165
0
LINE
8
BLACK
6
CONTINUOUS
10
1.81733
20
-1.31165
11
1.81709
21
-1.31176
0
LINE
8
BLACK
6
CONTINUOUS
10
1.81709
20
-1.31176
11
1.81635
21
-1.31157
0
LINE
8
BLACK
6
CONTINUOUS
10
1.81635
20
-1.31157
11
1.81559
21
-1.3115
0
LINE
8
BLACK
6
CONTINUOUS
10
1.81559
20
-1.3115
11
1.8154
21
-1.31131
0
LINE
8
BLACK
6
CONTINUOUS
10
1.8154
20
-1.31131
11
1.81514
21
-1.31124
0
LINE
8
BLACK
6
CONTINUOUS
10
1.81514
20
-1.31124
11
1.8147
21
-1.31061
0
LINE
8
BLACK
6
CONTINUOUS
10
1.8147
20
-1.31061
11
1.81416
21
-1.31007
0
LINE
8
BLACK
6
CONTINUOUS
10
1.81416
20
-1.31007
11
1.80666
21
-1.29401
0
LINE
8
BLACK
6
CONTINUOUS
10
1.80666
20
-1.29401
11
1.80666
21
-1.32007
0
LINE
8
BLACK
6
CONTINUOUS
10
1.80666
20
-1.32007
11
1.80649
21
-1.32108
0
LINE
8
BLACK
6
CONTINUOUS
10
1.80649
20
-1.32108
11
1.80519
21
-1.32263
0
LINE
8
BLACK
6
CONTINUOUS
10
1.80519
20
-1.32263
11
1.8032
21
-1.32298
0
LINE
8
BLACK
6
CONTINUOUS
10
1.8032
20
-1.32298
11
1.80145
21
-1.32197
0
LINE
8
BLACK
6
CONTINUOUS
10
1.80145
20
-1.32197
11
1.80076
21
-1.32007
0
LINE
8
BLACK
6
CONTINUOUS
10
1.80076
20
-1.32007
11
1.80076
21
-1.2807
0
LINE
8
BLACK
6
CONTINUOUS
10
1.80076
20
-1.2807
11
1.80094
21
-1.27969
0
LINE
8
BLACK
6
CONTINUOUS
10
1.80094
20
-1.27969
11
1.80119
21
-1.27939
0
LINE
8
BLACK
6
CONTINUOUS
10
1.80119
20
-1.27939
11
1.80129
21
-1.27901
0
LINE
8
BLACK
6
CONTINUOUS
10
1.80129
20
-1.27901
11
1.80182
21
-1.27864
0
LINE
8
BLACK
6
CONTINUOUS
10
1.80182
20
-1.27864
11
1.80224
21
-1.27814
0
LINE
8
BLACK
6
CONTINUOUS
10
1.80224
20
-1.27814
11
1.80262
21
-1.27808
0
LINE
8
BLACK
6
CONTINUOUS
10
1.80262
20
-1.27808
11
1.80295
21
-1.27785
0
LINE
8
BLACK
6
CONTINUOUS
10
1.80295
20
-1.27785
11
1.80359
21
-1.27791
0
LINE
8
BLACK
6
CONTINUOUS
10
1.80359
20
-1.27791
11
1.80422
21
-1.27779
0
LINE
8
BLACK
6
CONTINUOUS
10
1.80422
20
-1.27779
11
1.80457
21
-1.27799
0
LINE
8
BLACK
6
CONTINUOUS
10
1.80457
20
-1.27799
11
1.80496
21
-1.27803
0
LINE
8
BLACK
6
CONTINUOUS
10
1.80496
20
-1.27803
11
1.80542
21
-1.27848
0
LINE
8
BLACK
6
CONTINUOUS
10
1.80542
20
-1.27848
11
1.80597
21
-1.2788
0
LINE
8
BLACK
6
CONTINUOUS
10
1.80597
20
-1.2788
11
1.80611
21
-1.27917
0
LINE
8
BLACK
6
CONTINUOUS
10
1.80611
20
-1.27917
11
1.80639
21
-1.27945
0
LINE
8
BLACK
6
CONTINUOUS
10
1.80639
20
-1.27945
11
1.81684
21
-1.30184
0
LINE
8
BLACK
6
CONTINUOUS
10
1.81684
20
-1.30184
11
1.82728
21
-1.27945
0
LINE
8
BLACK
6
CONTINUOUS
10
1.82728
20
-1.27945
11
1.82787
21
-1.27861
0
LINE
8
BLACK
6
CONTINUOUS
10
1.82787
20
-1.27861
11
1.82823
21
-1.27845
0
LINE
8
BLACK
6
CONTINUOUS
10
1.82823
20
-1.27845
11
1.82848
21
-1.27814
0
LINE
8
BLACK
6
CONTINUOUS
10
1.82848
20
-1.27814
11
1.82912
21
-1.27803
0
LINE
8
BLACK
6
CONTINUOUS
10
1.82912
20
-1.27803
11
1.8297
21
-1.27776
0
LINE
8
BLACK
6
CONTINUOUS
10
1.8297
20
-1.27776
11
1.83008
21
-1.27786
0
LINE
8
BLACK
6
CONTINUOUS
10
1.91533
20
-1.27793
11
1.91688
21
-1.27923
0
LINE
8
BLACK
6
CONTINUOUS
10
1.91688
20
-1.27923
11
1.91723
21
-1.28121
0
LINE
8
BLACK
6
CONTINUOUS
10
1.91723
20
-1.28121
11
1.91622
21
-1.28296
0
LINE
8
BLACK
6
CONTINUOUS
10
1.91622
20
-1.28296
11
1.91432
21
-1.28365
0
LINE
8
BLACK
6
CONTINUOUS
10
1.91432
20
-1.28365
11
1.90603
21
-1.28365
0
LINE
8
BLACK
6
CONTINUOUS
10
1.90603
20
-1.28365
11
1.90603
21
-1.32007
0
LINE
8
BLACK
6
CONTINUOUS
10
1.90603
20
-1.32007
11
1.90585
21
-1.32108
0
LINE
8
BLACK
6
CONTINUOUS
10
1.90585
20
-1.32108
11
1.90455
21
-1.32263
0
LINE
8
BLACK
6
CONTINUOUS
10
1.90455
20
-1.32263
11
1.90256
21
-1.32298
0
LINE
8
BLACK
6
CONTINUOUS
10
1.90256
20
-1.32298
11
1.90081
21
-1.32197
0
LINE
8
BLACK
6
CONTINUOUS
10
1.90081
20
-1.32197
11
1.90012
21
-1.32007
0
LINE
8
BLACK
6
CONTINUOUS
10
1.90012
20
-1.32007
11
1.90012
21
-1.28365
0
LINE
8
BLACK
6
CONTINUOUS
10
1.90012
20
-1.28365
11
1.89183
21
-1.28365
0
LINE
8
BLACK
6
CONTINUOUS
10
1.89183
20
-1.28365
11
1.89082
21
-1.28348
0
LINE
8
BLACK
6
CONTINUOUS
10
1.89082
20
-1.28348
11
1.88927
21
-1.28218
0
LINE
8
BLACK
6
CONTINUOUS
10
1.88927
20
-1.28218
11
1.88892
21
-1.28019
0
LINE
8
BLACK
6
CONTINUOUS
10
1.88892
20
-1.28019
11
1.88993
21
-1.27844
0
LINE
8
BLACK
6
CONTINUOUS
10
1.88993
20
-1.27844
11
1.89183
21
-1.27775
0
LINE
8
BLACK
6
CONTINUOUS
10
1.89183
20
-1.27775
11
1.91432
21
-1.27775
0
LINE
8
BLACK
6
CONTINUOUS
10
1.91432
20
-1.27775
11
1.91533
21
-1.27793
0
LINE
8
BLACK
6
CONTINUOUS
10
1.87971
20
-1.3023
11
1.88126
21
-1.3036
0
LINE
8
BLACK
6
CONTINUOUS
10
1.88126
20
-1.3036
11
1.88161
21
-1.30559
0
LINE
8
BLACK
6
CONTINUOUS
10
1.88161
20
-1.30559
11
1.8806
21
-1.30734
0
LINE
8
BLACK
6
CONTINUOUS
10
1.8806
20
-1.30734
11
1.8787
21
-1.30803
0
LINE
8
BLACK
6
CONTINUOUS
10
1.8787
20
-1.30803
11
1.84871
21
-1.30803
0
LINE
8
BLACK
6
CONTINUOUS
10
1.84871
20
-1.30803
11
1.8477
21
-1.30785
0
LINE
8
BLACK
6
CONTINUOUS
10
1.8477
20
-1.30785
11
1.84615
21
-1.30655
0
LINE
8
BLACK
6
CONTINUOUS
10
1.84615
20
-1.30655
11
1.8458
21
-1.30456
0
LINE
8
BLACK
6
CONTINUOUS
10
1.8458
20
-1.30456
11
1.84681
21
-1.30281
0
LINE
8
BLACK
6
CONTINUOUS
10
1.84681
20
-1.30281
11
1.84871
21
-1.30212
0
LINE
8
BLACK
6
CONTINUOUS
10
1.84871
20
-1.30212
11
1.8787
21
-1.30212
0
LINE
8
BLACK
6
CONTINUOUS
10
1.8787
20
-1.30212
11
1.87971
21
-1.3023
0
LINE
8
BLACK
6
CONTINUOUS
10
1.86471
20
-1.20312
11
1.86485
21
-1.20324
0
LINE
8
BLACK
6
CONTINUOUS
10
1.86485
20
-1.20324
11
1.86502
21
-1.20326
0
LINE
8
BLACK
6
CONTINUOUS
10
1.86502
20
-1.20326
11
1.86877
21
-1.20513
0
LINE
8
BLACK
6
CONTINUOUS
10
1.86877
20
-1.20513
11
1.86948
21
-1.20566
0
LINE
8
BLACK
6
CONTINUOUS
10
1.86948
20
-1.20566
11
1.86954
21
-1.20569
0
LINE
8
BLACK
6
CONTINUOUS
10
1.86954
20
-1.20569
11
1.87142
21
-1.20756
0
LINE
8
BLACK
6
CONTINUOUS
10
1.87142
20
-1.20756
11
1.872
21
-1.2084
0
LINE
8
BLACK
6
CONTINUOUS
10
1.872
20
-1.2084
11
1.87218
21
-1.21041
0
LINE
8
BLACK
6
CONTINUOUS
10
1.87218
20
-1.21041
11
1.87102
21
-1.21207
0
LINE
8
BLACK
6
CONTINUOUS
10
1.87102
20
-1.21207
11
1.86907
21
-1.21259
0
LINE
8
BLACK
6
CONTINUOUS
10
1.86907
20
-1.21259
11
1.86724
21
-1.21174
0
LINE
8
BLACK
6
CONTINUOUS
10
1.86724
20
-1.21174
11
1.8657
21
-1.2102
0
LINE
8
BLACK
6
CONTINUOUS
10
1.8657
20
-1.2102
11
1.86301
21
-1.20885
0
LINE
8
BLACK
6
CONTINUOUS
10
1.86301
20
-1.20885
11
1.85503
21
-1.20885
0
LINE
8
BLACK
6
CONTINUOUS
10
1.85503
20
-1.20885
11
1.85233
21
-1.2102
0
LINE
8
BLACK
6
CONTINUOUS
10
1.85233
20
-1.2102
11
1.85113
21
-1.2114
0
LINE
8
BLACK
6
CONTINUOUS
10
1.85113
20
-1.2114
11
1.84978
21
-1.21409
0
LINE
8
BLACK
6
CONTINUOUS
10
1.84978
20
-1.21409
11
1.84978
21
-1.21667
0
LINE
8
BLACK
6
CONTINUOUS
10
1.84978
20
-1.21667
11
1.85129
21
-1.22118
0
LINE
8
BLACK
6
CONTINUOUS
10
1.85129
20
-1.22118
11
1.87329
21
-1.24318
0
LINE
8
BLACK
6
CONTINUOUS
10
1.87329
20
-1.24318
11
1.87366
21
-1.24371
0
LINE
8
BLACK
6
CONTINUOUS
10
1.87366
20
-1.24371
11
1.87376
21
-1.24379
0
LINE
8
BLACK
6
CONTINUOUS
10
1.87376
20
-1.24379
11
1.87377
21
-1.24387
0
LINE
8
BLACK
6
CONTINUOUS
10
1.87377
20
-1.24387
11
1.87388
21
-1.24402
0
LINE
8
BLACK
6
CONTINUOUS
10
1.87388
20
-1.24402
11
1.87396
21
-1.24491
0
LINE
8
BLACK
6
CONTINUOUS
10
1.87396
20
-1.24491
11
1.87411
21
-1.24578
0
LINE
8
BLACK
6
CONTINUOUS
10
1.87411
20
-1.24578
11
1.87404
21
-1.2459
0
LINE
8
BLACK
6
CONTINUOUS
10
1.87404
20
-1.2459
11
1.87406
21
-1.24603
0
LINE
8
BLACK
6
CONTINUOUS
10
1.87406
20
-1.24603
11
1.87355
21
-1.24676
0
LINE
8
BLACK
6
CONTINUOUS
10
1.87355
20
-1.24676
11
1.8731
21
-1.24753
0
LINE
8
BLACK
6
CONTINUOUS
10
1.8731
20
-1.24753
11
1.87297
21
-1.24758
0
LINE
8
BLACK
6
CONTINUOUS
10
1.87297
20
-1.24758
11
1.8729
21
-1.24769
0
LINE
8
BLACK
6
CONTINUOUS
10
1.8729
20
-1.24769
11
1.87204
21
-1.24792
0
LINE
8
BLACK
6
CONTINUOUS
10
1.87204
20
-1.24792
11
1.8712
21
-1.24822
0
LINE
8
BLACK
6
CONTINUOUS
10
1.8712
20
-1.24822
11
1.84683
21
-1.24822
0
LINE
8
BLACK
6
CONTINUOUS
10
1.84683
20
-1.24822
11
1.84582
21
-1.24804
0
LINE
8
BLACK
6
CONTINUOUS
10
1.84582
20
-1.24804
11
1.84427
21
-1.24674
0
LINE
8
BLACK
6
CONTINUOUS
10
1.84427
20
-1.24674
11
1.84392
21
-1.24476
0
LINE
8
BLACK
6
CONTINUOUS
10
1.84392
20
-1.24476
11
1.84493
21
-1.24301
0
LINE
8
BLACK
6
CONTINUOUS
10
1.84493
20
-1.24301
11
1.84683
21
-1.24232
0
LINE
8
BLACK
6
CONTINUOUS
10
1.84683
20
-1.24232
11
1.86407
21
-1.24232
0
LINE
8
BLACK
6
CONTINUOUS
10
1.86407
20
-1.24232
11
1.84662
21
-1.22486
0
LINE
8
BLACK
6
CONTINUOUS
10
1.84662
20
-1.22486
11
1.84603
21
-1.22402
0
LINE
8
BLACK
6
CONTINUOUS
10
1.84603
20
-1.22402
11
1.84601
21
-1.22384
0
LINE
8
BLACK
6
CONTINUOUS
10
1.84601
20
-1.22384
11
1.84591
21
-1.22371
0
LINE
8
BLACK
6
CONTINUOUS
10
1.84591
20
-1.22371
11
1.84403
21
-1.21808
0
LINE
8
BLACK
6
CONTINUOUS
10
1.84403
20
-1.21808
11
1.8439
21
-1.21721
0
LINE
8
BLACK
6
CONTINUOUS
10
1.8439
20
-1.21721
11
1.84388
21
-1.21715
0
LINE
8
BLACK
6
CONTINUOUS
10
1.84388
20
-1.21715
11
1.84388
21
-1.2134
0
LINE
8
BLACK
6
CONTINUOUS
10
1.84388
20
-1.2134
11
1.84406
21
-1.21239
0
LINE
8
BLACK
6
CONTINUOUS
10
1.84406
20
-1.21239
11
1.84417
21
-1.21225
0
LINE
8
BLACK
6
CONTINUOUS
10
1.84417
20
-1.21225
11
1.84419
21
-1.21208
0
LINE
8
BLACK
6
CONTINUOUS
10
1.84419
20
-1.21208
11
1.84607
21
-1.20833
0
LINE
8
BLACK
6
CONTINUOUS
10
1.84607
20
-1.20833
11
1.84659
21
-1.20762
0
LINE
8
BLACK
6
CONTINUOUS
10
1.84659
20
-1.20762
11
1.84662
21
-1.20756
0
LINE
8
BLACK
6
CONTINUOUS
10
1.84662
20
-1.20756
11
1.84849
21
-1.20569
0
LINE
8
BLACK
6
CONTINUOUS
10
1.84849
20
-1.20569
11
1.84922
21
-1.20518
0
LINE
8
BLACK
6
CONTINUOUS
10
1.84922
20
-1.20518
11
1.84926
21
-1.20513
0
LINE
8
BLACK
6
CONTINUOUS
10
1.84926
20
-1.20513
11
1.85301
21
-1.20326
0
LINE
8
BLACK
6
CONTINUOUS
10
1.85301
20
-1.20326
11
1.85399
21
-1.20297
0
LINE
8
BLACK
6
CONTINUOUS
10
1.85399
20
-1.20297
11
1.85416
21
-1.20301
0
LINE
8
BLACK
6
CONTINUOUS
10
1.85416
20
-1.20301
11
1.85433
21
-1.20295
0
LINE
8
BLACK
6
CONTINUOUS
10
1.85433
20
-1.20295
11
1.8637
21
-1.20295
0
LINE
8
BLACK
6
CONTINUOUS
10
1.8637
20
-1.20295
11
1.86471
21
-1.20312
0
LINE
8
BLACK
6
CONTINUOUS
10
1.88846
20
-1.204
11
1.88915
21
-1.2059
0
LINE
8
BLACK
6
CONTINUOUS
10
1.88915
20
-1.2059
11
1.88915
21
-1.23354
0
LINE
8
BLACK
6
CONTINUOUS
10
1.88915
20
-1.23354
11
1.89066
21
-1.23805
0
LINE
8
BLACK
6
CONTINUOUS
10
1.89066
20
-1.23805
11
1.89342
21
-1.24081
0
LINE
8
BLACK
6
CONTINUOUS
10
1.89342
20
-1.24081
11
1.89793
21
-1.24232
0
LINE
8
BLACK
6
CONTINUOUS
10
1.89793
20
-1.24232
11
1.9012
21
-1.24232
0
LINE
8
BLACK
6
CONTINUOUS
10
1.9012
20
-1.24232
11
1.90221
21
-1.24249
0
LINE
8
BLACK
6
CONTINUOUS
10
1.90221
20
-1.24249
11
1.90376
21
-1.24379
0
LINE
8
BLACK
6
CONTINUOUS
10
1.90376
20
-1.24379
11
1.90411
21
-1.24578
0
LINE
8
BLACK
6
CONTINUOUS
10
1.90411
20
-1.24578
11
1.9031
21
-1.24753
0
LINE
8
BLACK
6
CONTINUOUS
10
1.9031
20
-1.24753
11
1.9012
21
-1.24822
0
LINE
8
BLACK
6
CONTINUOUS
10
1.9012
20
-1.24822
11
1.89745
21
-1.24822
0
LINE
8
BLACK
6
CONTINUOUS
10
1.89745
20
-1.24822
11
1.89658
21
-1.24807
0
LINE
8
BLACK
6
CONTINUOUS
10
1.89658
20
-1.24807
11
1.89652
21
-1.24807
0
LINE
8
BLACK
6
CONTINUOUS
10
1.89652
20
-1.24807
11
1.89089
21
-1.24619
0
LINE
8
BLACK
6
CONTINUOUS
10
1.89089
20
-1.24619
11
1.88999
21
-1.24571
0
LINE
8
BLACK
6
CONTINUOUS
10
1.88999
20
-1.24571
11
1.8899
21
-1.24556
0
LINE
8
BLACK
6
CONTINUOUS
10
1.8899
20
-1.24556
11
1.88974
21
-1.24548
0
LINE
8
BLACK
6
CONTINUOUS
10
1.88974
20
-1.24548
11
1.88599
21
-1.24173
0
LINE
8
BLACK
6
CONTINUOUS
10
1.88599
20
-1.24173
11
1.8854
21
-1.24089
0
LINE
8
BLACK
6
CONTINUOUS
10
1.8854
20
-1.24089
11
1.88538
21
-1.24072
0
LINE
8
BLACK
6
CONTINUOUS
10
1.88538
20
-1.24072
11
1.88528
21
-1.24058
0
LINE
8
BLACK
6
CONTINUOUS
10
1.88528
20
-1.24058
11
1.8834
21
-1.23495
0
LINE
8
BLACK
6
CONTINUOUS
10
1.8834
20
-1.23495
11
1.88327
21
-1.23408
0
LINE
8
BLACK
6
CONTINUOUS
10
1.88327
20
-1.23408
11
1.88325
21
-1.23402
0
LINE
8
BLACK
6
CONTINUOUS
10
1.88325
20
-1.23402
11
1.88325
21
-1.2059
0
LINE
8
BLACK
6
CONTINUOUS
10
1.88325
20
-1.2059
11
1.88343
21
-1.20489
0
LINE
8
BLACK
6
CONTINUOUS
10
1.88343
20
-1.20489
11
1.88473
21
-1.20334
0
LINE
8
BLACK
6
CONTINUOUS
10
1.88473
20
-1.20334
11
1.88671
21
-1.20299
0
LINE
8
BLACK
6
CONTINUOUS
10
1.88671
20
-1.20299
11
1.88846
21
-1.204
0
LINE
8
BLACK
6
CONTINUOUS
10
1.82401
20
-1.20151
11
1.82526
21
-1.20309
0
LINE
8
BLACK
6
CONTINUOUS
10
1.82526
20
-1.20309
11
1.83463
21
-1.23121
0
LINE
8
BLACK
6
CONTINUOUS
10
1.83463
20
-1.23121
11
1.83479
21
-1.23223
0
LINE
8
BLACK
6
CONTINUOUS
10
1.83479
20
-1.23223
11
1.8347
21
-1.23244
0
LINE
8
BLACK
6
CONTINUOUS
10
1.8347
20
-1.23244
11
1.83474
21
-1.23266
0
LINE
8
BLACK
6
CONTINUOUS
10
1.83474
20
-1.23266
11
1.83434
21
-1.23336
0
LINE
8
BLACK
6
CONTINUOUS
10
1.83434
20
-1.23336
11
1.83404
21
-1.2341
0
LINE
8
BLACK
6
CONTINUOUS
10
1.83404
20
-1.2341
11
1.83384
21
-1.23421
0
LINE
8
BLACK
6
CONTINUOUS
10
1.83384
20
-1.23421
11
1.83373
21
-1.23441
0
LINE
8
BLACK
6
CONTINUOUS
10
1.83373
20
-1.23441
11
1.83297
21
-1.23468
0
LINE
8
BLACK
6
CONTINUOUS
10
1.83297
20
-1.23468
11
1.83227
21
-1.23507
0
LINE
8
BLACK
6
CONTINUOUS
10
1.83227
20
-1.23507
11
1.83205
21
-1.23502
0
LINE
8
BLACK
6
CONTINUOUS
10
1.83205
20
-1.23502
11
1.83183
21
-1.2351
0
LINE
8
BLACK
6
CONTINUOUS
10
1.83183
20
-1.2351
11
1.81604
21
-1.2351
0
LINE
8
BLACK
6
CONTINUOUS
10
1.81604
20
-1.2351
11
1.81604
21
-1.24527
0
LINE
8
BLACK
6
CONTINUOUS
10
1.81604
20
-1.24527
11
1.81586
21
-1.24628
0
LINE
8
BLACK
6
CONTINUOUS
10
1.81586
20
-1.24628
11
1.81456
21
-1.24783
0
LINE
8
BLACK
6
CONTINUOUS
10
1.81456
20
-1.24783
11
1.81257
21
-1.24818
0
LINE
8
BLACK
6
CONTINUOUS
10
1.81257
20
-1.24818
11
1.81082
21
-1.24717
0
LINE
8
BLACK
6
CONTINUOUS
10
1.81082
20
-1.24717
11
1.81013
21
-1.24527
0
LINE
8
BLACK
6
CONTINUOUS
10
1.81013
20
-1.24527
11
1.81013
21
-1.2351
0
LINE
8
BLACK
6
CONTINUOUS
10
1.81013
20
-1.2351
11
1.80746
21
-1.2351
0
LINE
8
BLACK
6
CONTINUOUS
10
1.80746
20
-1.2351
11
1.80645
21
-1.23492
0
LINE
8
BLACK
6
CONTINUOUS
10
1.80645
20
-1.23492
11
1.8049
21
-1.23362
0
LINE
8
BLACK
6
CONTINUOUS
10
1.8049
20
-1.23362
11
1.80455
21
-1.23163
0
LINE
8
BLACK
6
CONTINUOUS
10
1.80455
20
-1.23163
11
1.80556
21
-1.22988
0
LINE
8
BLACK
6
CONTINUOUS
10
1.80556
20
-1.22988
11
1.80746
21
-1.22919
0
LINE
8
BLACK
6
CONTINUOUS
10
1.80746
20
-1.22919
11
1.81013
21
-1.22919
0
LINE
8
BLACK
6
CONTINUOUS
10
1.81013
20
-1.22919
11
1.81013
21
-1.21902
0
LINE
8
BLACK
6
CONTINUOUS
10
1.81013
20
-1.21902
11
1.81031
21
-1.21801
0
LINE
8
BLACK
6
CONTINUOUS
10
1.81031
20
-1.21801
11
1.81161
21
-1.21646
0
LINE
8
BLACK
6
CONTINUOUS
10
1.81161
20
-1.21646
11
1.8136
21
-1.21611
0
LINE
8
BLACK
6
CONTINUOUS
10
1.8136
20
-1.21611
11
1.81535
21
-1.21712
0
LINE
8
BLACK
6
CONTINUOUS
10
1.81535
20
-1.21712
11
1.81604
21
-1.21902
0
LINE
8
BLACK
6
CONTINUOUS
10
1.81604
20
-1.21902
11
1.81604
21
-1.22919
0
LINE
8
BLACK
6
CONTINUOUS
10
1.81604
20
-1.22919
11
1.82774
21
-1.22919
0
LINE
8
BLACK
6
CONTINUOUS
10
1.82774
20
-1.22919
11
1.81966
21
-1.20496
0
LINE
8
BLACK
6
CONTINUOUS
10
1.81966
20
-1.20496
11
1.81951
21
-1.20394
0
LINE
8
BLACK
6
CONTINUOUS
10
1.81951
20
-1.20394
11
1.82025
21
-1.20206
0
LINE
8
BLACK
6
CONTINUOUS
10
1.82025
20
-1.20206
11
1.82203
21
-1.2011
0
LINE
8
BLACK
6
CONTINUOUS
10
1.82203
20
-1.2011
11
1.82401
21
-1.20151
0
LINE
8
BLACK
6
CONTINUOUS
10
2.04921
20
-1.02657
11
2.0506
21
-1.02715
0
LINE
8
BLACK
6
CONTINUOUS
10
2.0506
20
-1.02715
11
2.05118
21
-1.02854
0
LINE
8
BLACK
6
CONTINUOUS
10
2.05118
20
-1.02854
11
2.05118
21
-1.25492
0
LINE
8
BLACK
6
CONTINUOUS
10
2.05118
20
-1.25492
11
2.0506
21
-1.25631
0
LINE
8
BLACK
6
CONTINUOUS
10
2.0506
20
-1.25631
11
2.04921
21
-1.25689
0
LINE
8
BLACK
6
CONTINUOUS
10
2.04921
20
-1.25689
11
1.65945
21
-1.25689
0
LINE
8
BLACK
6
CONTINUOUS
10
1.65945
20
-1.25689
11
1.65806
21
-1.25631
0
LINE
8
BLACK
6
CONTINUOUS
10
1.65806
20
-1.25631
11
1.65748
21
-1.25492
0
LINE
8
BLACK
6
CONTINUOUS
10
1.65748
20
-1.25492
11
1.65748
21
-1.02854
0
LINE
8
BLACK
6
CONTINUOUS
10
1.65748
20
-1.02854
11
1.65806
21
-1.02715
0
LINE
8
BLACK
6
CONTINUOUS
10
1.65806
20
-1.02715
11
1.65945
21
-1.02657
0
LINE
8
BLACK
6
CONTINUOUS
10
1.65945
20
-1.02657
11
2.04921
21
-1.02657
0
LINE
8
BLACK
6
CONTINUOUS
10
1.97845
20
-1.03051
11
1.95443
21
-1.06896
0
LINE
8
BLACK
6
CONTINUOUS
10
1.95443
20
-1.06896
11
1.95406
21
-1.06922
0
LINE
8
BLACK
6
CONTINUOUS
10
1.95406
20
-1.06922
11
1.9538
21
-1.06958
0
LINE
8
BLACK
6
CONTINUOUS
10
1.9538
20
-1.06958
11
1.95347
21
-1.06964
0
LINE
8
BLACK
6
CONTINUOUS
10
1.95347
20
-1.06964
11
1.9532
21
-1.06983
0
LINE
8
BLACK
6
CONTINUOUS
10
1.9532
20
-1.06983
11
1.95276
21
-1.06976
0
LINE
8
BLACK
6
CONTINUOUS
10
1.95276
20
-1.06976
11
1.95231
21
-1.06983
0
LINE
8
BLACK
6
CONTINUOUS
10
1.95231
20
-1.06983
11
1.95204
21
-1.06964
0
LINE
8
BLACK
6
CONTINUOUS
10
1.95204
20
-1.06964
11
1.95171
21
-1.06958
0
LINE
8
BLACK
6
CONTINUOUS
10
1.95171
20
-1.06958
11
1.95145
21
-1.06922
0
LINE
8
BLACK
6
CONTINUOUS
10
1.95145
20
-1.06922
11
1.95109
21
-1.06896
0
LINE
8
BLACK
6
CONTINUOUS
10
1.95109
20
-1.06896
11
1.92706
21
-1.03051
0
LINE
8
BLACK
6
CONTINUOUS
10
1.92706
20
-1.03051
11
1.66142
21
-1.03051
0
LINE
8
BLACK
6
CONTINUOUS
10
1.66142
20
-1.03051
11
1.66142
21
-1.25295
0
LINE
8
BLACK
6
CONTINUOUS
10
1.66142
20
-1.25295
11
2.04724
21
-1.25295
0
LINE
8
BLACK
6
CONTINUOUS
10
2.04724
20
-1.25295
11
2.04724
21
-1.03051
0
LINE
8
BLACK
6
CONTINUOUS
10
2.04724
20
-1.03051
11
1.97845
21
-1.03051
0
LINE
8
BLACK
6
CONTINUOUS
10
1.9317
20
-1.03051
11
1.95276
21
-1.0642
0
LINE
8
BLACK
6
CONTINUOUS
10
1.95276
20
-1.0642
11
1.97381
21
-1.03051
0
LINE
8
BLACK
6
CONTINUOUS
10
1.97381
20
-1.03051
11
1.9317
21
-1.03051
  0
ENDSEC
  0
EOF
