  0
SECTION
  2
HEADER
  9
$ANGBASE
  50
0.0
  9
$ANGDIR
  70
1
  9
$MEASUREMENT
  70
0
  0
ENDSEC
  0
SECTION
  2
TABLES
  0
TABLE
  2
LTYPE
  70
4
  0
LTYPE
  5
40F
  2
CONTINUOUS
  70
0
  3
Solid line
  72
65
  73
0
  40
0.0
  0
LTYPE
  5
410
  2
DASHDOT
 70
0
  3
Dash Dot ____ _ ____ _
 72
65
 73
4
 40
2.0
 49
1.25
 49
-0.25
 49
0.25
 49
-0.25
  0
LTYPE
  5
411
  2
DASHED
 70
0
  3
Dashed __ __ __ __ __
 72
65
 73
2
 40
0.75
 49
0.5
 49
-0.25
  0
LTYPE
  5
43B
  2
DOTTED
 70
0
  3
Dotted .  .  .  .
 72
65
 73
2
 40
0.2
 49
0.0
 49
-0.2
  0
ENDTAB
  0
TABLE
  2
STYLE
  70
4
  0
STYLE
  2
KICAD
  70
0
  40
0
  41
1
  42
1
  50
0
  71
0
  3
isocp.shx
  0
STYLE
  2
KICADB
  70
0
  40
0
  41
1
  42
1
  50
0
  71
0
  3
isocp.shx
  0
STYLE
  2
KICADI
  70
0
  40
0
  41
1
  42
1
  50
15
  71
0
  3
isocp.shx
  0
STYLE
  2
KICADBI
  70
0
  40
0
  41
1
  42
1
  50
15
  71
0
  3
isocp.shx
  0
ENDTAB
  0
TABLE
  2
LAYER
  70
1
  0
LAYER
  2
BLACK
  70
0
  62
7
  6
CONTINUOUS
  0
ENDTAB
  0
ENDSEC
  0
SECTION
  2
ENTITIES
0
LINE
8
BLACK
6
CONTINUOUS
10
4.69671
20
-4.68166
11
4.70898
21
-4.68391
0
LINE
8
BLACK
6
CONTINUOUS
10
4.70898
20
-4.68391
11
4.7209
21
-4.68762
0
LINE
8
BLACK
6
CONTINUOUS
10
4.7209
20
-4.68762
11
4.73228
21
-4.69274
0
LINE
8
BLACK
6
CONTINUOUS
10
4.73228
20
-4.69274
11
4.74296
21
-4.6992
0
LINE
8
BLACK
6
CONTINUOUS
10
4.74296
20
-4.6992
11
4.75278
21
-4.7069
0
LINE
8
BLACK
6
CONTINUOUS
10
4.75278
20
-4.7069
11
4.76161
21
-4.71572
0
LINE
8
BLACK
6
CONTINUOUS
10
4.76161
20
-4.71572
11
4.7693
21
-4.72554
0
LINE
8
BLACK
6
CONTINUOUS
10
4.7693
20
-4.72554
11
4.77576
21
-4.73622
0
LINE
8
BLACK
6
CONTINUOUS
10
4.77576
20
-4.73622
11
4.78088
21
-4.7476
0
LINE
8
BLACK
6
CONTINUOUS
10
4.78088
20
-4.7476
11
4.7846
21
-4.75952
0
LINE
8
BLACK
6
CONTINUOUS
10
4.7846
20
-4.75952
11
4.78684
21
-4.77179
0
LINE
8
BLACK
6
CONTINUOUS
10
4.78684
20
-4.77179
11
4.7876
21
-4.78425
0
LINE
8
BLACK
6
CONTINUOUS
10
4.7876
20
-4.78425
11
4.78684
21
-4.79671
0
LINE
8
BLACK
6
CONTINUOUS
10
4.78684
20
-4.79671
11
4.7846
21
-4.80898
0
LINE
8
BLACK
6
CONTINUOUS
10
4.7846
20
-4.80898
11
4.78088
21
-4.8209
0
LINE
8
BLACK
6
CONTINUOUS
10
4.78088
20
-4.8209
11
4.77576
21
-4.83228
0
LINE
8
BLACK
6
CONTINUOUS
10
4.77576
20
-4.83228
11
4.7693
21
-4.84296
0
LINE
8
BLACK
6
CONTINUOUS
10
4.7693
20
-4.84296
11
4.76161
21
-4.85278
0
LINE
8
BLACK
6
CONTINUOUS
10
4.76161
20
-4.85278
11
4.75278
21
-4.86161
0
LINE
8
BLACK
6
CONTINUOUS
10
4.75278
20
-4.86161
11
4.74296
21
-4.8693
0
LINE
8
BLACK
6
CONTINUOUS
10
4.74296
20
-4.8693
11
4.73228
21
-4.87576
0
LINE
8
BLACK
6
CONTINUOUS
10
4.73228
20
-4.87576
11
4.7209
21
-4.88088
0
LINE
8
BLACK
6
CONTINUOUS
10
4.7209
20
-4.88088
11
4.70898
21
-4.8846
0
LINE
8
BLACK
6
CONTINUOUS
10
4.70898
20
-4.8846
11
4.69671
21
-4.88684
0
LINE
8
BLACK
6
CONTINUOUS
10
4.69671
20
-4.88684
11
4.68425
21
-4.8876
0
LINE
8
BLACK
6
CONTINUOUS
10
4.68425
20
-4.8876
11
4.67179
21
-4.88684
0
LINE
8
BLACK
6
CONTINUOUS
10
4.67179
20
-4.88684
11
4.65952
21
-4.8846
0
LINE
8
BLACK
6
CONTINUOUS
10
4.65952
20
-4.8846
11
4.6476
21
-4.88088
0
LINE
8
BLACK
6
CONTINUOUS
10
4.6476
20
-4.88088
11
4.63622
21
-4.87576
0
LINE
8
BLACK
6
CONTINUOUS
10
4.63622
20
-4.87576
11
4.62554
21
-4.8693
0
LINE
8
BLACK
6
CONTINUOUS
10
4.62554
20
-4.8693
11
4.61572
21
-4.86161
0
LINE
8
BLACK
6
CONTINUOUS
10
4.61572
20
-4.86161
11
4.6069
21
-4.85278
0
LINE
8
BLACK
6
CONTINUOUS
10
4.6069
20
-4.85278
11
4.5992
21
-4.84296
0
LINE
8
BLACK
6
CONTINUOUS
10
4.5992
20
-4.84296
11
4.59274
21
-4.83228
0
LINE
8
BLACK
6
CONTINUOUS
10
4.59274
20
-4.83228
11
4.58762
21
-4.8209
0
LINE
8
BLACK
6
CONTINUOUS
10
4.58762
20
-4.8209
11
4.58391
21
-4.80898
0
LINE
8
BLACK
6
CONTINUOUS
10
4.58391
20
-4.80898
11
4.58166
21
-4.79671
0
LINE
8
BLACK
6
CONTINUOUS
10
4.58166
20
-4.79671
11
4.58091
21
-4.78425
0
LINE
8
BLACK
6
CONTINUOUS
10
4.58091
20
-4.78425
11
4.58166
21
-4.77179
0
LINE
8
BLACK
6
CONTINUOUS
10
4.58166
20
-4.77179
11
4.58391
21
-4.75952
0
LINE
8
BLACK
6
CONTINUOUS
10
4.58391
20
-4.75952
11
4.58762
21
-4.7476
0
LINE
8
BLACK
6
CONTINUOUS
10
4.58762
20
-4.7476
11
4.59274
21
-4.73622
0
LINE
8
BLACK
6
CONTINUOUS
10
4.59274
20
-4.73622
11
4.5992
21
-4.72554
0
LINE
8
BLACK
6
CONTINUOUS
10
4.5992
20
-4.72554
11
4.6069
21
-4.71572
0
LINE
8
BLACK
6
CONTINUOUS
10
4.6069
20
-4.71572
11
4.61572
21
-4.7069
0
LINE
8
BLACK
6
CONTINUOUS
10
4.61572
20
-4.7069
11
4.62554
21
-4.6992
0
LINE
8
BLACK
6
CONTINUOUS
10
4.62554
20
-4.6992
11
4.63622
21
-4.69274
0
LINE
8
BLACK
6
CONTINUOUS
10
4.63622
20
-4.69274
11
4.6476
21
-4.68762
0
LINE
8
BLACK
6
CONTINUOUS
10
4.6476
20
-4.68762
11
4.65952
21
-4.68391
0
LINE
8
BLACK
6
CONTINUOUS
10
4.65952
20
-4.68391
11
4.67179
21
-4.68166
0
LINE
8
BLACK
6
CONTINUOUS
10
4.67179
20
-4.68166
11
4.68425
21
-4.68091
0
LINE
8
BLACK
6
CONTINUOUS
10
4.68425
20
-4.68091
11
4.69671
21
-4.68166
0
LINE
8
BLACK
6
CONTINUOUS
10
4.58347
20
-4.79698
11
4.58586
21
-4.80951
0
LINE
8
BLACK
6
CONTINUOUS
10
4.58586
20
-4.80951
11
4.58981
21
-4.82165
0
LINE
8
BLACK
6
CONTINUOUS
10
4.58981
20
-4.82165
11
4.59524
21
-4.83319
0
LINE
8
BLACK
6
CONTINUOUS
10
4.59524
20
-4.83319
11
4.60207
21
-4.84396
0
LINE
8
BLACK
6
CONTINUOUS
10
4.60207
20
-4.84396
11
4.6102
21
-4.85379
0
LINE
8
BLACK
6
CONTINUOUS
10
4.6102
20
-4.85379
11
4.6195
21
-4.86252
0
LINE
8
BLACK
6
CONTINUOUS
10
4.6195
20
-4.86252
11
4.62982
21
-4.87002
0
LINE
8
BLACK
6
CONTINUOUS
10
4.62982
20
-4.87002
11
4.641
21
-4.87616
0
LINE
8
BLACK
6
CONTINUOUS
10
4.641
20
-4.87616
11
4.65286
21
-4.88086
0
LINE
8
BLACK
6
CONTINUOUS
10
4.65286
20
-4.88086
11
4.66522
21
-4.88403
0
LINE
8
BLACK
6
CONTINUOUS
10
4.66522
20
-4.88403
11
4.67787
21
-4.88563
0
LINE
8
BLACK
6
CONTINUOUS
10
4.67787
20
-4.88563
11
4.69063
21
-4.88563
0
LINE
8
BLACK
6
CONTINUOUS
10
4.69063
20
-4.88563
11
4.70329
21
-4.88403
0
LINE
8
BLACK
6
CONTINUOUS
10
4.70329
20
-4.88403
11
4.71564
21
-4.88086
0
LINE
8
BLACK
6
CONTINUOUS
10
4.71564
20
-4.88086
11
4.7275
21
-4.87616
0
LINE
8
BLACK
6
CONTINUOUS
10
4.7275
20
-4.87616
11
4.73868
21
-4.87002
0
LINE
8
BLACK
6
CONTINUOUS
10
4.73868
20
-4.87002
11
4.749
21
-4.86252
0
LINE
8
BLACK
6
CONTINUOUS
10
4.749
20
-4.86252
11
4.7583
21
-4.85379
0
LINE
8
BLACK
6
CONTINUOUS
10
4.7583
20
-4.85379
11
4.76643
21
-4.84396
0
LINE
8
BLACK
6
CONTINUOUS
10
4.76643
20
-4.84396
11
4.77327
21
-4.83319
0
LINE
8
BLACK
6
CONTINUOUS
10
4.77327
20
-4.83319
11
4.7787
21
-4.82165
0
LINE
8
BLACK
6
CONTINUOUS
10
4.7787
20
-4.82165
11
4.78264
21
-4.80951
0
LINE
8
BLACK
6
CONTINUOUS
10
4.78264
20
-4.80951
11
4.78503
21
-4.79698
0
LINE
8
BLACK
6
CONTINUOUS
10
4.78503
20
-4.79698
11
4.78583
21
-4.78425
0
LINE
8
BLACK
6
CONTINUOUS
10
4.78583
20
-4.78425
11
4.78503
21
-4.77152
0
LINE
8
BLACK
6
CONTINUOUS
10
4.78503
20
-4.77152
11
4.78264
21
-4.75899
0
LINE
8
BLACK
6
CONTINUOUS
10
4.78264
20
-4.75899
11
4.7787
21
-4.74686
0
LINE
8
BLACK
6
CONTINUOUS
10
4.7787
20
-4.74686
11
4.77327
21
-4.73532
0
LINE
8
BLACK
6
CONTINUOUS
10
4.77327
20
-4.73532
11
4.76643
21
-4.72455
0
LINE
8
BLACK
6
CONTINUOUS
10
4.76643
20
-4.72455
11
4.7583
21
-4.71472
0
LINE
8
BLACK
6
CONTINUOUS
10
4.7583
20
-4.71472
11
4.749
21
-4.70598
0
LINE
8
BLACK
6
CONTINUOUS
10
4.749
20
-4.70598
11
4.73868
21
-4.69849
0
LINE
8
BLACK
6
CONTINUOUS
10
4.73868
20
-4.69849
11
4.7275
21
-4.69234
0
LINE
8
BLACK
6
CONTINUOUS
10
4.7275
20
-4.69234
11
4.71564
21
-4.68765
0
LINE
8
BLACK
6
CONTINUOUS
10
4.71564
20
-4.68765
11
4.70329
21
-4.68447
0
LINE
8
BLACK
6
CONTINUOUS
10
4.70329
20
-4.68447
11
4.69063
21
-4.68287
0
LINE
8
BLACK
6
CONTINUOUS
10
4.69063
20
-4.68287
11
4.67787
21
-4.68287
0
LINE
8
BLACK
6
CONTINUOUS
10
4.67787
20
-4.68287
11
4.66522
21
-4.68447
0
LINE
8
BLACK
6
CONTINUOUS
10
4.66522
20
-4.68447
11
4.65286
21
-4.68765
0
LINE
8
BLACK
6
CONTINUOUS
10
4.65286
20
-4.68765
11
4.641
21
-4.69234
0
LINE
8
BLACK
6
CONTINUOUS
10
4.641
20
-4.69234
11
4.62982
21
-4.69849
0
LINE
8
BLACK
6
CONTINUOUS
10
4.62982
20
-4.69849
11
4.6195
21
-4.70598
0
LINE
8
BLACK
6
CONTINUOUS
10
4.6195
20
-4.70598
11
4.6102
21
-4.71472
0
LINE
8
BLACK
6
CONTINUOUS
10
4.6102
20
-4.71472
11
4.60207
21
-4.72455
0
LINE
8
BLACK
6
CONTINUOUS
10
4.60207
20
-4.72455
11
4.59524
21
-4.73532
0
LINE
8
BLACK
6
CONTINUOUS
10
4.59524
20
-4.73532
11
4.58981
21
-4.74686
0
LINE
8
BLACK
6
CONTINUOUS
10
4.58981
20
-4.74686
11
4.58586
21
-4.75899
0
LINE
8
BLACK
6
CONTINUOUS
10
4.58586
20
-4.75899
11
4.58347
21
-4.77152
0
LINE
8
BLACK
6
CONTINUOUS
10
4.58347
20
-4.77152
11
4.58267
21
-4.78425
0
LINE
8
BLACK
6
CONTINUOUS
10
4.58267
20
-4.78425
11
4.58347
21
-4.79698
0
LINE
8
BLACK
6
CONTINUOUS
10
1.19532
20
-4.55887
11
1.20936
21
-4.56125
0
LINE
8
BLACK
6
CONTINUOUS
10
1.20936
20
-4.56125
11
1.22304
21
-4.5652
0
LINE
8
BLACK
6
CONTINUOUS
10
1.22304
20
-4.5652
11
1.23619
21
-4.57064
0
LINE
8
BLACK
6
CONTINUOUS
10
1.23619
20
-4.57064
11
1.24865
21
-4.57753
0
LINE
8
BLACK
6
CONTINUOUS
10
1.24865
20
-4.57753
11
1.26027
21
-4.58577
0
LINE
8
BLACK
6
CONTINUOUS
10
1.26027
20
-4.58577
11
1.27088
21
-4.59526
0
LINE
8
BLACK
6
CONTINUOUS
10
1.27088
20
-4.59526
11
1.28037
21
-4.60588
0
LINE
8
BLACK
6
CONTINUOUS
10
1.28037
20
-4.60588
11
1.28861
21
-4.61749
0
LINE
8
BLACK
6
CONTINUOUS
10
1.28861
20
-4.61749
11
1.2955
21
-4.62995
0
LINE
8
BLACK
6
CONTINUOUS
10
1.2955
20
-4.62995
11
1.30095
21
-4.6431
0
LINE
8
BLACK
6
CONTINUOUS
10
1.30095
20
-4.6431
11
1.30489
21
-4.65679
0
LINE
8
BLACK
6
CONTINUOUS
10
1.30489
20
-4.65679
11
1.30727
21
-4.67082
0
LINE
8
BLACK
6
CONTINUOUS
10
1.30727
20
-4.67082
11
1.30807
21
-4.68504
0
LINE
8
BLACK
6
CONTINUOUS
10
1.30807
20
-4.68504
11
1.30727
21
-4.69926
0
LINE
8
BLACK
6
CONTINUOUS
10
1.30727
20
-4.69926
11
1.30489
21
-4.71329
0
LINE
8
BLACK
6
CONTINUOUS
10
1.30489
20
-4.71329
11
1.30095
21
-4.72697
0
LINE
8
BLACK
6
CONTINUOUS
10
1.30095
20
-4.72697
11
1.2955
21
-4.74013
0
LINE
8
BLACK
6
CONTINUOUS
10
1.2955
20
-4.74013
11
1.28861
21
-4.75259
0
LINE
8
BLACK
6
CONTINUOUS
10
1.28861
20
-4.75259
11
1.28037
21
-4.7642
0
LINE
8
BLACK
6
CONTINUOUS
10
1.28037
20
-4.7642
11
1.27088
21
-4.77482
0
LINE
8
BLACK
6
CONTINUOUS
10
1.27088
20
-4.77482
11
1.26027
21
-4.78431
0
LINE
8
BLACK
6
CONTINUOUS
10
1.26027
20
-4.78431
11
1.24865
21
-4.79255
0
LINE
8
BLACK
6
CONTINUOUS
10
1.24865
20
-4.79255
11
1.23619
21
-4.79943
0
LINE
8
BLACK
6
CONTINUOUS
10
1.23619
20
-4.79943
11
1.22304
21
-4.80488
0
LINE
8
BLACK
6
CONTINUOUS
10
1.22304
20
-4.80488
11
1.20936
21
-4.80882
0
LINE
8
BLACK
6
CONTINUOUS
10
1.20936
20
-4.80882
11
1.19532
21
-4.81121
0
LINE
8
BLACK
6
CONTINUOUS
10
1.19532
20
-4.81121
11
1.1811
21
-4.81201
0
LINE
8
BLACK
6
CONTINUOUS
10
1.1811
20
-4.81201
11
1.16689
21
-4.81121
0
LINE
8
BLACK
6
CONTINUOUS
10
1.16689
20
-4.81121
11
1.15285
21
-4.80882
0
LINE
8
BLACK
6
CONTINUOUS
10
1.15285
20
-4.80882
11
1.13917
21
-4.80488
0
LINE
8
BLACK
6
CONTINUOUS
10
1.13917
20
-4.80488
11
1.12601
21
-4.79943
0
LINE
8
BLACK
6
CONTINUOUS
10
1.12601
20
-4.79943
11
1.11355
21
-4.79255
0
LINE
8
BLACK
6
CONTINUOUS
10
1.11355
20
-4.79255
11
1.10194
21
-4.78431
0
LINE
8
BLACK
6
CONTINUOUS
10
1.10194
20
-4.78431
11
1.09132
21
-4.77482
0
LINE
8
BLACK
6
CONTINUOUS
10
1.09132
20
-4.77482
11
1.08183
21
-4.7642
0
LINE
8
BLACK
6
CONTINUOUS
10
1.08183
20
-4.7642
11
1.0736
21
-4.75259
0
LINE
8
BLACK
6
CONTINUOUS
10
1.0736
20
-4.75259
11
1.06671
21
-4.74013
0
LINE
8
BLACK
6
CONTINUOUS
10
1.06671
20
-4.74013
11
1.06126
21
-4.72697
0
LINE
8
BLACK
6
CONTINUOUS
10
1.06126
20
-4.72697
11
1.05732
21
-4.71329
0
LINE
8
BLACK
6
CONTINUOUS
10
1.05732
20
-4.71329
11
1.05493
21
-4.69926
0
LINE
8
BLACK
6
CONTINUOUS
10
1.05493
20
-4.69926
11
1.05413
21
-4.68504
0
LINE
8
BLACK
6
CONTINUOUS
10
1.05413
20
-4.68504
11
1.05493
21
-4.67082
0
LINE
8
BLACK
6
CONTINUOUS
10
1.05493
20
-4.67082
11
1.05732
21
-4.65679
0
LINE
8
BLACK
6
CONTINUOUS
10
1.05732
20
-4.65679
11
1.06126
21
-4.6431
0
LINE
8
BLACK
6
CONTINUOUS
10
1.06126
20
-4.6431
11
1.06671
21
-4.62995
0
LINE
8
BLACK
6
CONTINUOUS
10
1.06671
20
-4.62995
11
1.0736
21
-4.61749
0
LINE
8
BLACK
6
CONTINUOUS
10
1.0736
20
-4.61749
11
1.08183
21
-4.60588
0
LINE
8
BLACK
6
CONTINUOUS
10
1.08183
20
-4.60588
11
1.09132
21
-4.59526
0
LINE
8
BLACK
6
CONTINUOUS
10
1.09132
20
-4.59526
11
1.10194
21
-4.58577
0
LINE
8
BLACK
6
CONTINUOUS
10
1.10194
20
-4.58577
11
1.11355
21
-4.57753
0
LINE
8
BLACK
6
CONTINUOUS
10
1.11355
20
-4.57753
11
1.12601
21
-4.57064
0
LINE
8
BLACK
6
CONTINUOUS
10
1.12601
20
-4.57064
11
1.13917
21
-4.5652
0
LINE
8
BLACK
6
CONTINUOUS
10
1.13917
20
-4.5652
11
1.15285
21
-4.56125
0
LINE
8
BLACK
6
CONTINUOUS
10
1.15285
20
-4.56125
11
1.16689
21
-4.55887
0
LINE
8
BLACK
6
CONTINUOUS
10
1.16689
20
-4.55887
11
1.1811
21
-4.55807
0
LINE
8
BLACK
6
CONTINUOUS
10
1.1811
20
-4.55807
11
1.19532
21
-4.55887
0
LINE
8
BLACK
6
CONTINUOUS
10
1.05669
20
-4.69906
11
1.05904
21
-4.7129
0
LINE
8
BLACK
6
CONTINUOUS
10
1.05904
20
-4.7129
11
1.06293
21
-4.72639
0
LINE
8
BLACK
6
CONTINUOUS
10
1.06293
20
-4.72639
11
1.0683
21
-4.73936
0
LINE
8
BLACK
6
CONTINUOUS
10
1.0683
20
-4.73936
11
1.0751
21
-4.75165
0
LINE
8
BLACK
6
CONTINUOUS
10
1.0751
20
-4.75165
11
1.08322
21
-4.7631
0
LINE
8
BLACK
6
CONTINUOUS
10
1.08322
20
-4.7631
11
1.09257
21
-4.77357
0
LINE
8
BLACK
6
CONTINUOUS
10
1.09257
20
-4.77357
11
1.10304
21
-4.78292
0
LINE
8
BLACK
6
CONTINUOUS
10
1.10304
20
-4.78292
11
1.11449
21
-4.79105
0
LINE
8
BLACK
6
CONTINUOUS
10
1.11449
20
-4.79105
11
1.12678
21
-4.79784
0
LINE
8
BLACK
6
CONTINUOUS
10
1.12678
20
-4.79784
11
1.13975
21
-4.80321
0
LINE
8
BLACK
6
CONTINUOUS
10
1.13975
20
-4.80321
11
1.15324
21
-4.8071
0
LINE
8
BLACK
6
CONTINUOUS
10
1.15324
20
-4.8071
11
1.16708
21
-4.80945
0
LINE
8
BLACK
6
CONTINUOUS
10
1.16708
20
-4.80945
11
1.1811
21
-4.81024
0
LINE
8
BLACK
6
CONTINUOUS
10
1.1811
20
-4.81024
11
1.19512
21
-4.80945
0
LINE
8
BLACK
6
CONTINUOUS
10
1.19512
20
-4.80945
11
1.20896
21
-4.8071
0
LINE
8
BLACK
6
CONTINUOUS
10
1.20896
20
-4.8071
11
1.22245
21
-4.80321
0
LINE
8
BLACK
6
CONTINUOUS
10
1.22245
20
-4.80321
11
1.23542
21
-4.79784
0
LINE
8
BLACK
6
CONTINUOUS
10
1.23542
20
-4.79784
11
1.24771
21
-4.79105
0
LINE
8
BLACK
6
CONTINUOUS
10
1.24771
20
-4.79105
11
1.25916
21
-4.78292
0
LINE
8
BLACK
6
CONTINUOUS
10
1.25916
20
-4.78292
11
1.26963
21
-4.77357
0
LINE
8
BLACK
6
CONTINUOUS
10
1.26963
20
-4.77357
11
1.27899
21
-4.7631
0
LINE
8
BLACK
6
CONTINUOUS
10
1.27899
20
-4.7631
11
1.28711
21
-4.75165
0
LINE
8
BLACK
6
CONTINUOUS
10
1.28711
20
-4.75165
11
1.2939
21
-4.73936
0
LINE
8
BLACK
6
CONTINUOUS
10
1.2939
20
-4.73936
11
1.29927
21
-4.72639
0
LINE
8
BLACK
6
CONTINUOUS
10
1.29927
20
-4.72639
11
1.30316
21
-4.7129
0
LINE
8
BLACK
6
CONTINUOUS
10
1.30316
20
-4.7129
11
1.30551
21
-4.69906
0
LINE
8
BLACK
6
CONTINUOUS
10
1.30551
20
-4.69906
11
1.3063
21
-4.68504
0
LINE
8
BLACK
6
CONTINUOUS
10
1.3063
20
-4.68504
11
1.30551
21
-4.67102
0
LINE
8
BLACK
6
CONTINUOUS
10
1.30551
20
-4.67102
11
1.30316
21
-4.65718
0
LINE
8
BLACK
6
CONTINUOUS
10
1.30316
20
-4.65718
11
1.29927
21
-4.64369
0
LINE
8
BLACK
6
CONTINUOUS
10
1.29927
20
-4.64369
11
1.2939
21
-4.63072
0
LINE
8
BLACK
6
CONTINUOUS
10
1.2939
20
-4.63072
11
1.28711
21
-4.61843
0
LINE
8
BLACK
6
CONTINUOUS
10
1.28711
20
-4.61843
11
1.27899
21
-4.60698
0
LINE
8
BLACK
6
CONTINUOUS
10
1.27899
20
-4.60698
11
1.26963
21
-4.59651
0
LINE
8
BLACK
6
CONTINUOUS
10
1.26963
20
-4.59651
11
1.25916
21
-4.58716
0
LINE
8
BLACK
6
CONTINUOUS
10
1.25916
20
-4.58716
11
1.24771
21
-4.57903
0
LINE
8
BLACK
6
CONTINUOUS
10
1.24771
20
-4.57903
11
1.23542
21
-4.57224
0
LINE
8
BLACK
6
CONTINUOUS
10
1.23542
20
-4.57224
11
1.22245
21
-4.56687
0
LINE
8
BLACK
6
CONTINUOUS
10
1.22245
20
-4.56687
11
1.20896
21
-4.56298
0
LINE
8
BLACK
6
CONTINUOUS
10
1.20896
20
-4.56298
11
1.19512
21
-4.56063
0
LINE
8
BLACK
6
CONTINUOUS
10
1.19512
20
-4.56063
11
1.1811
21
-4.55984
0
LINE
8
BLACK
6
CONTINUOUS
10
1.1811
20
-4.55984
11
1.16708
21
-4.56063
0
LINE
8
BLACK
6
CONTINUOUS
10
1.16708
20
-4.56063
11
1.15324
21
-4.56298
0
LINE
8
BLACK
6
CONTINUOUS
10
1.15324
20
-4.56298
11
1.13975
21
-4.56687
0
LINE
8
BLACK
6
CONTINUOUS
10
1.13975
20
-4.56687
11
1.12678
21
-4.57224
0
LINE
8
BLACK
6
CONTINUOUS
10
1.12678
20
-4.57224
11
1.11449
21
-4.57903
0
LINE
8
BLACK
6
CONTINUOUS
10
1.11449
20
-4.57903
11
1.10304
21
-4.58716
0
LINE
8
BLACK
6
CONTINUOUS
10
1.10304
20
-4.58716
11
1.09257
21
-4.59651
0
LINE
8
BLACK
6
CONTINUOUS
10
1.09257
20
-4.59651
11
1.08322
21
-4.60698
0
LINE
8
BLACK
6
CONTINUOUS
10
1.08322
20
-4.60698
11
1.0751
21
-4.61843
0
LINE
8
BLACK
6
CONTINUOUS
10
1.0751
20
-4.61843
11
1.0683
21
-4.63072
0
LINE
8
BLACK
6
CONTINUOUS
10
1.0683
20
-4.63072
11
1.06293
21
-4.64369
0
LINE
8
BLACK
6
CONTINUOUS
10
1.06293
20
-4.64369
11
1.05904
21
-4.65718
0
LINE
8
BLACK
6
CONTINUOUS
10
1.05904
20
-4.65718
11
1.05669
21
-4.67102
0
LINE
8
BLACK
6
CONTINUOUS
10
1.05669
20
-4.67102
11
1.05591
21
-4.68504
0
LINE
8
BLACK
6
CONTINUOUS
10
1.05591
20
-4.68504
11
1.05669
21
-4.69906
0
LINE
8
BLACK
6
CONTINUOUS
10
1.37795
20
-4.53839
11
1.37865
21
-4.53867
0
LINE
8
BLACK
6
CONTINUOUS
10
1.37865
20
-4.53867
11
1.37894
21
-4.53937
0
LINE
8
BLACK
6
CONTINUOUS
10
1.37894
20
-4.53937
11
1.37894
21
-4.83071
0
LINE
8
BLACK
6
CONTINUOUS
10
1.37894
20
-4.83071
11
1.37865
21
-4.8314
0
LINE
8
BLACK
6
CONTINUOUS
10
1.37865
20
-4.8314
11
1.37795
21
-4.83169
0
LINE
8
BLACK
6
CONTINUOUS
10
1.37795
20
-4.83169
11
0.984252
21
-4.83169
0
LINE
8
BLACK
6
CONTINUOUS
10
0.984252
20
-4.83169
11
0.983556
21
-4.8314
0
LINE
8
BLACK
6
CONTINUOUS
10
0.983556
20
-4.8314
11
0.983268
21
-4.83071
0
LINE
8
BLACK
6
CONTINUOUS
10
0.983268
20
-4.83071
11
0.983268
21
-4.83071
0
LINE
8
BLACK
6
CONTINUOUS
10
0.983268
20
-4.83071
11
0.983268
21
-4.53937
0
LINE
8
BLACK
6
CONTINUOUS
10
0.983268
20
-4.53937
11
0.983556
21
-4.53867
0
LINE
8
BLACK
6
CONTINUOUS
10
0.983556
20
-4.53867
11
0.984252
21
-4.53839
0
LINE
8
BLACK
6
CONTINUOUS
10
0.984252
20
-4.53839
11
1.37795
21
-4.53839
0
LINE
8
BLACK
6
CONTINUOUS
10
0.985236
20
-4.54035
11
0.985236
21
-4.82972
0
LINE
8
BLACK
6
CONTINUOUS
10
0.985236
20
-4.82972
11
1.37697
21
-4.82972
0
LINE
8
BLACK
6
CONTINUOUS
10
1.37697
20
-4.82972
11
1.37697
21
-4.54035
0
LINE
8
BLACK
6
CONTINUOUS
10
1.37697
20
-4.54035
11
0.985236
21
-4.54035
0
LINE
8
BLACK
6
CONTINUOUS
10
4.14807
20
-4.55887
11
4.16211
21
-4.56125
0
LINE
8
BLACK
6
CONTINUOUS
10
4.16211
20
-4.56125
11
4.17579
21
-4.5652
0
LINE
8
BLACK
6
CONTINUOUS
10
4.17579
20
-4.5652
11
4.18895
21
-4.57064
0
LINE
8
BLACK
6
CONTINUOUS
10
4.18895
20
-4.57064
11
4.20141
21
-4.57753
0
LINE
8
BLACK
6
CONTINUOUS
10
4.20141
20
-4.57753
11
4.21302
21
-4.58577
0
LINE
8
BLACK
6
CONTINUOUS
10
4.21302
20
-4.58577
11
4.22364
21
-4.59526
0
LINE
8
BLACK
6
CONTINUOUS
10
4.22364
20
-4.59526
11
4.23313
21
-4.60588
0
LINE
8
BLACK
6
CONTINUOUS
10
4.23313
20
-4.60588
11
4.24137
21
-4.61749
0
LINE
8
BLACK
6
CONTINUOUS
10
4.24137
20
-4.61749
11
4.24825
21
-4.62995
0
LINE
8
BLACK
6
CONTINUOUS
10
4.24825
20
-4.62995
11
4.2537
21
-4.6431
0
LINE
8
BLACK
6
CONTINUOUS
10
4.2537
20
-4.6431
11
4.25764
21
-4.65679
0
LINE
8
BLACK
6
CONTINUOUS
10
4.25764
20
-4.65679
11
4.26003
21
-4.67082
0
LINE
8
BLACK
6
CONTINUOUS
10
4.26003
20
-4.67082
11
4.26083
21
-4.68504
0
LINE
8
BLACK
6
CONTINUOUS
10
4.26083
20
-4.68504
11
4.26003
21
-4.69926
0
LINE
8
BLACK
6
CONTINUOUS
10
4.26003
20
-4.69926
11
4.25764
21
-4.71329
0
LINE
8
BLACK
6
CONTINUOUS
10
4.25764
20
-4.71329
11
4.2537
21
-4.72697
0
LINE
8
BLACK
6
CONTINUOUS
10
4.2537
20
-4.72697
11
4.24825
21
-4.74013
0
LINE
8
BLACK
6
CONTINUOUS
10
4.24825
20
-4.74013
11
4.24137
21
-4.75259
0
LINE
8
BLACK
6
CONTINUOUS
10
4.24137
20
-4.75259
11
4.23313
21
-4.7642
0
LINE
8
BLACK
6
CONTINUOUS
10
4.23313
20
-4.7642
11
4.22364
21
-4.77482
0
LINE
8
BLACK
6
CONTINUOUS
10
4.22364
20
-4.77482
11
4.21302
21
-4.78431
0
LINE
8
BLACK
6
CONTINUOUS
10
4.21302
20
-4.78431
11
4.20141
21
-4.79255
0
LINE
8
BLACK
6
CONTINUOUS
10
4.20141
20
-4.79255
11
4.18895
21
-4.79943
0
LINE
8
BLACK
6
CONTINUOUS
10
4.18895
20
-4.79943
11
4.17579
21
-4.80488
0
LINE
8
BLACK
6
CONTINUOUS
10
4.17579
20
-4.80488
11
4.16211
21
-4.80882
0
LINE
8
BLACK
6
CONTINUOUS
10
4.16211
20
-4.80882
11
4.14807
21
-4.81121
0
LINE
8
BLACK
6
CONTINUOUS
10
4.14807
20
-4.81121
11
4.13386
21
-4.81201
0
LINE
8
BLACK
6
CONTINUOUS
10
4.13386
20
-4.81201
11
4.11964
21
-4.81121
0
LINE
8
BLACK
6
CONTINUOUS
10
4.11964
20
-4.81121
11
4.10561
21
-4.80882
0
LINE
8
BLACK
6
CONTINUOUS
10
4.10561
20
-4.80882
11
4.09192
21
-4.80488
0
LINE
8
BLACK
6
CONTINUOUS
10
4.09192
20
-4.80488
11
4.07877
21
-4.79943
0
LINE
8
BLACK
6
CONTINUOUS
10
4.07877
20
-4.79943
11
4.06631
21
-4.79255
0
LINE
8
BLACK
6
CONTINUOUS
10
4.06631
20
-4.79255
11
4.05469
21
-4.78431
0
LINE
8
BLACK
6
CONTINUOUS
10
4.05469
20
-4.78431
11
4.04408
21
-4.77482
0
LINE
8
BLACK
6
CONTINUOUS
10
4.04408
20
-4.77482
11
4.03459
21
-4.7642
0
LINE
8
BLACK
6
CONTINUOUS
10
4.03459
20
-4.7642
11
4.02635
21
-4.75259
0
LINE
8
BLACK
6
CONTINUOUS
10
4.02635
20
-4.75259
11
4.01946
21
-4.74013
0
LINE
8
BLACK
6
CONTINUOUS
10
4.01946
20
-4.74013
11
4.01401
21
-4.72697
0
LINE
8
BLACK
6
CONTINUOUS
10
4.01401
20
-4.72697
11
4.01007
21
-4.71329
0
LINE
8
BLACK
6
CONTINUOUS
10
4.01007
20
-4.71329
11
4.00769
21
-4.69926
0
LINE
8
BLACK
6
CONTINUOUS
10
4.00769
20
-4.69926
11
4.00689
21
-4.68504
0
LINE
8
BLACK
6
CONTINUOUS
10
4.00689
20
-4.68504
11
4.00769
21
-4.67082
0
LINE
8
BLACK
6
CONTINUOUS
10
4.00769
20
-4.67082
11
4.01007
21
-4.65679
0
LINE
8
BLACK
6
CONTINUOUS
10
4.01007
20
-4.65679
11
4.01401
21
-4.6431
0
LINE
8
BLACK
6
CONTINUOUS
10
4.01401
20
-4.6431
11
4.01946
21
-4.62995
0
LINE
8
BLACK
6
CONTINUOUS
10
4.01946
20
-4.62995
11
4.02635
21
-4.61749
0
LINE
8
BLACK
6
CONTINUOUS
10
4.02635
20
-4.61749
11
4.03459
21
-4.60588
0
LINE
8
BLACK
6
CONTINUOUS
10
4.03459
20
-4.60588
11
4.04408
21
-4.59526
0
LINE
8
BLACK
6
CONTINUOUS
10
4.04408
20
-4.59526
11
4.05469
21
-4.58577
0
LINE
8
BLACK
6
CONTINUOUS
10
4.05469
20
-4.58577
11
4.06631
21
-4.57753
0
LINE
8
BLACK
6
CONTINUOUS
10
4.06631
20
-4.57753
11
4.07877
21
-4.57064
0
LINE
8
BLACK
6
CONTINUOUS
10
4.07877
20
-4.57064
11
4.09192
21
-4.5652
0
LINE
8
BLACK
6
CONTINUOUS
10
4.09192
20
-4.5652
11
4.10561
21
-4.56125
0
LINE
8
BLACK
6
CONTINUOUS
10
4.10561
20
-4.56125
11
4.11964
21
-4.55887
0
LINE
8
BLACK
6
CONTINUOUS
10
4.11964
20
-4.55887
11
4.13386
21
-4.55807
0
LINE
8
BLACK
6
CONTINUOUS
10
4.13386
20
-4.55807
11
4.14807
21
-4.55887
0
LINE
8
BLACK
6
CONTINUOUS
10
4.00945
20
-4.69906
11
4.0118
21
-4.7129
0
LINE
8
BLACK
6
CONTINUOUS
10
4.0118
20
-4.7129
11
4.01569
21
-4.72639
0
LINE
8
BLACK
6
CONTINUOUS
10
4.01569
20
-4.72639
11
4.02106
21
-4.73936
0
LINE
8
BLACK
6
CONTINUOUS
10
4.02106
20
-4.73936
11
4.02785
21
-4.75165
0
LINE
8
BLACK
6
CONTINUOUS
10
4.02785
20
-4.75165
11
4.03598
21
-4.7631
0
LINE
8
BLACK
6
CONTINUOUS
10
4.03598
20
-4.7631
11
4.04533
21
-4.77357
0
LINE
8
BLACK
6
CONTINUOUS
10
4.04533
20
-4.77357
11
4.0558
21
-4.78292
0
LINE
8
BLACK
6
CONTINUOUS
10
4.0558
20
-4.78292
11
4.06725
21
-4.79105
0
LINE
8
BLACK
6
CONTINUOUS
10
4.06725
20
-4.79105
11
4.07954
21
-4.79784
0
LINE
8
BLACK
6
CONTINUOUS
10
4.07954
20
-4.79784
11
4.09251
21
-4.80321
0
LINE
8
BLACK
6
CONTINUOUS
10
4.09251
20
-4.80321
11
4.106
21
-4.8071
0
LINE
8
BLACK
6
CONTINUOUS
10
4.106
20
-4.8071
11
4.11984
21
-4.80945
0
LINE
8
BLACK
6
CONTINUOUS
10
4.11984
20
-4.80945
11
4.13386
21
-4.81024
0
LINE
8
BLACK
6
CONTINUOUS
10
4.13386
20
-4.81024
11
4.14788
21
-4.80945
0
LINE
8
BLACK
6
CONTINUOUS
10
4.14788
20
-4.80945
11
4.16172
21
-4.8071
0
LINE
8
BLACK
6
CONTINUOUS
10
4.16172
20
-4.8071
11
4.17521
21
-4.80321
0
LINE
8
BLACK
6
CONTINUOUS
10
4.17521
20
-4.80321
11
4.18818
21
-4.79784
0
LINE
8
BLACK
6
CONTINUOUS
10
4.18818
20
-4.79784
11
4.20047
21
-4.79105
0
LINE
8
BLACK
6
CONTINUOUS
10
4.20047
20
-4.79105
11
4.21192
21
-4.78292
0
LINE
8
BLACK
6
CONTINUOUS
10
4.21192
20
-4.78292
11
4.22239
21
-4.77357
0
LINE
8
BLACK
6
CONTINUOUS
10
4.22239
20
-4.77357
11
4.23174
21
-4.7631
0
LINE
8
BLACK
6
CONTINUOUS
10
4.23174
20
-4.7631
11
4.23987
21
-4.75165
0
LINE
8
BLACK
6
CONTINUOUS
10
4.23987
20
-4.75165
11
4.24666
21
-4.73936
0
LINE
8
BLACK
6
CONTINUOUS
10
4.24666
20
-4.73936
11
4.25203
21
-4.72639
0
LINE
8
BLACK
6
CONTINUOUS
10
4.25203
20
-4.72639
11
4.25592
21
-4.7129
0
LINE
8
BLACK
6
CONTINUOUS
10
4.25592
20
-4.7129
11
4.25827
21
-4.69906
0
LINE
8
BLACK
6
CONTINUOUS
10
4.25827
20
-4.69906
11
4.25906
21
-4.68504
0
LINE
8
BLACK
6
CONTINUOUS
10
4.25906
20
-4.68504
11
4.25827
21
-4.67102
0
LINE
8
BLACK
6
CONTINUOUS
10
4.25827
20
-4.67102
11
4.25592
21
-4.65718
0
LINE
8
BLACK
6
CONTINUOUS
10
4.25592
20
-4.65718
11
4.25203
21
-4.64369
0
LINE
8
BLACK
6
CONTINUOUS
10
4.25203
20
-4.64369
11
4.24666
21
-4.63072
0
LINE
8
BLACK
6
CONTINUOUS
10
4.24666
20
-4.63072
11
4.23987
21
-4.61843
0
LINE
8
BLACK
6
CONTINUOUS
10
4.23987
20
-4.61843
11
4.23174
21
-4.60698
0
LINE
8
BLACK
6
CONTINUOUS
10
4.23174
20
-4.60698
11
4.22239
21
-4.59651
0
LINE
8
BLACK
6
CONTINUOUS
10
4.22239
20
-4.59651
11
4.21192
21
-4.58716
0
LINE
8
BLACK
6
CONTINUOUS
10
4.21192
20
-4.58716
11
4.20047
21
-4.57903
0
LINE
8
BLACK
6
CONTINUOUS
10
4.20047
20
-4.57903
11
4.18818
21
-4.57224
0
LINE
8
BLACK
6
CONTINUOUS
10
4.18818
20
-4.57224
11
4.17521
21
-4.56687
0
LINE
8
BLACK
6
CONTINUOUS
10
4.17521
20
-4.56687
11
4.16172
21
-4.56298
0
LINE
8
BLACK
6
CONTINUOUS
10
4.16172
20
-4.56298
11
4.14788
21
-4.56063
0
LINE
8
BLACK
6
CONTINUOUS
10
4.14788
20
-4.56063
11
4.13386
21
-4.55984
0
LINE
8
BLACK
6
CONTINUOUS
10
4.13386
20
-4.55984
11
4.11984
21
-4.56063
0
LINE
8
BLACK
6
CONTINUOUS
10
4.11984
20
-4.56063
11
4.106
21
-4.56298
0
LINE
8
BLACK
6
CONTINUOUS
10
4.106
20
-4.56298
11
4.09251
21
-4.56687
0
LINE
8
BLACK
6
CONTINUOUS
10
4.09251
20
-4.56687
11
4.07954
21
-4.57224
0
LINE
8
BLACK
6
CONTINUOUS
10
4.07954
20
-4.57224
11
4.06725
21
-4.57903
0
LINE
8
BLACK
6
CONTINUOUS
10
4.06725
20
-4.57903
11
4.0558
21
-4.58716
0
LINE
8
BLACK
6
CONTINUOUS
10
4.0558
20
-4.58716
11
4.04533
21
-4.59651
0
LINE
8
BLACK
6
CONTINUOUS
10
4.04533
20
-4.59651
11
4.03598
21
-4.60698
0
LINE
8
BLACK
6
CONTINUOUS
10
4.03598
20
-4.60698
11
4.02785
21
-4.61843
0
LINE
8
BLACK
6
CONTINUOUS
10
4.02785
20
-4.61843
11
4.02106
21
-4.63072
0
LINE
8
BLACK
6
CONTINUOUS
10
4.02106
20
-4.63072
11
4.01569
21
-4.64369
0
LINE
8
BLACK
6
CONTINUOUS
10
4.01569
20
-4.64369
11
4.0118
21
-4.65718
0
LINE
8
BLACK
6
CONTINUOUS
10
4.0118
20
-4.65718
11
4.00945
21
-4.67102
0
LINE
8
BLACK
6
CONTINUOUS
10
4.00945
20
-4.67102
11
4.00866
21
-4.68504
0
LINE
8
BLACK
6
CONTINUOUS
10
4.00866
20
-4.68504
11
4.00945
21
-4.69906
0
LINE
8
BLACK
6
CONTINUOUS
10
4.33071
20
-4.53839
11
4.3314
21
-4.53867
0
LINE
8
BLACK
6
CONTINUOUS
10
4.3314
20
-4.53867
11
4.33169
21
-4.53937
0
LINE
8
BLACK
6
CONTINUOUS
10
4.33169
20
-4.53937
11
4.33169
21
-4.83071
0
LINE
8
BLACK
6
CONTINUOUS
10
4.33169
20
-4.83071
11
4.3314
21
-4.8314
0
LINE
8
BLACK
6
CONTINUOUS
10
4.3314
20
-4.8314
11
4.33071
21
-4.83169
0
LINE
8
BLACK
6
CONTINUOUS
10
4.33071
20
-4.83169
11
3.93701
21
-4.83169
0
LINE
8
BLACK
6
CONTINUOUS
10
3.93701
20
-4.83169
11
3.93631
21
-4.8314
0
LINE
8
BLACK
6
CONTINUOUS
10
3.93631
20
-4.8314
11
3.93602
21
-4.83071
0
LINE
8
BLACK
6
CONTINUOUS
10
3.93602
20
-4.83071
11
3.93602
21
-4.53937
0
LINE
8
BLACK
6
CONTINUOUS
10
3.93602
20
-4.53937
11
3.93631
21
-4.53867
0
LINE
8
BLACK
6
CONTINUOUS
10
3.93631
20
-4.53867
11
3.93701
21
-4.53839
0
LINE
8
BLACK
6
CONTINUOUS
10
3.93701
20
-4.53839
11
4.33071
21
-4.53839
0
LINE
8
BLACK
6
CONTINUOUS
10
3.93799
20
-4.54035
11
3.93799
21
-4.82972
0
LINE
8
BLACK
6
CONTINUOUS
10
3.93799
20
-4.82972
11
4.32972
21
-4.82972
0
LINE
8
BLACK
6
CONTINUOUS
10
4.32972
20
-4.82972
11
4.32972
21
-4.54035
0
LINE
8
BLACK
6
CONTINUOUS
10
4.32972
20
-4.54035
11
3.93799
21
-4.54035
0
LINE
8
BLACK
6
CONTINUOUS
10
7.10083
20
-4.55887
11
7.11487
21
-4.56125
0
LINE
8
BLACK
6
CONTINUOUS
10
7.11487
20
-4.56125
11
7.12855
21
-4.5652
0
LINE
8
BLACK
6
CONTINUOUS
10
7.12855
20
-4.5652
11
7.1417
21
-4.57064
0
LINE
8
BLACK
6
CONTINUOUS
10
7.1417
20
-4.57064
11
7.15417
21
-4.57753
0
LINE
8
BLACK
6
CONTINUOUS
10
7.15417
20
-4.57753
11
7.16578
21
-4.58577
0
LINE
8
BLACK
6
CONTINUOUS
10
7.16578
20
-4.58577
11
7.17639
21
-4.59526
0
LINE
8
BLACK
6
CONTINUOUS
10
7.17639
20
-4.59526
11
7.18588
21
-4.60588
0
LINE
8
BLACK
6
CONTINUOUS
10
7.18588
20
-4.60588
11
7.19412
21
-4.61749
0
LINE
8
BLACK
6
CONTINUOUS
10
7.19412
20
-4.61749
11
7.20101
21
-4.62995
0
LINE
8
BLACK
6
CONTINUOUS
10
7.20101
20
-4.62995
11
7.20646
21
-4.6431
0
LINE
8
BLACK
6
CONTINUOUS
10
7.20646
20
-4.6431
11
7.2104
21
-4.65679
0
LINE
8
BLACK
6
CONTINUOUS
10
7.2104
20
-4.65679
11
7.21278
21
-4.67082
0
LINE
8
BLACK
6
CONTINUOUS
10
7.21278
20
-4.67082
11
7.21358
21
-4.68504
0
LINE
8
BLACK
6
CONTINUOUS
10
7.21358
20
-4.68504
11
7.21278
21
-4.69926
0
LINE
8
BLACK
6
CONTINUOUS
10
7.21278
20
-4.69926
11
7.2104
21
-4.71329
0
LINE
8
BLACK
6
CONTINUOUS
10
7.2104
20
-4.71329
11
7.20646
21
-4.72697
0
LINE
8
BLACK
6
CONTINUOUS
10
7.20646
20
-4.72697
11
7.20101
21
-4.74013
0
LINE
8
BLACK
6
CONTINUOUS
10
7.20101
20
-4.74013
11
7.19412
21
-4.75259
0
LINE
8
BLACK
6
CONTINUOUS
10
7.19412
20
-4.75259
11
7.18588
21
-4.7642
0
LINE
8
BLACK
6
CONTINUOUS
10
7.18588
20
-4.7642
11
7.17639
21
-4.77482
0
LINE
8
BLACK
6
CONTINUOUS
10
7.17639
20
-4.77482
11
7.16578
21
-4.78431
0
LINE
8
BLACK
6
CONTINUOUS
10
7.16578
20
-4.78431
11
7.15417
21
-4.79255
0
LINE
8
BLACK
6
CONTINUOUS
10
7.15417
20
-4.79255
11
7.1417
21
-4.79943
0
LINE
8
BLACK
6
CONTINUOUS
10
7.1417
20
-4.79943
11
7.12855
21
-4.80488
0
LINE
8
BLACK
6
CONTINUOUS
10
7.12855
20
-4.80488
11
7.11487
21
-4.80882
0
LINE
8
BLACK
6
CONTINUOUS
10
7.11487
20
-4.80882
11
7.10083
21
-4.81121
0
LINE
8
BLACK
6
CONTINUOUS
10
7.10083
20
-4.81121
11
7.08661
21
-4.81201
0
LINE
8
BLACK
6
CONTINUOUS
10
7.08661
20
-4.81201
11
7.0724
21
-4.81121
0
LINE
8
BLACK
6
CONTINUOUS
10
7.0724
20
-4.81121
11
7.05836
21
-4.80882
0
LINE
8
BLACK
6
CONTINUOUS
10
7.05836
20
-4.80882
11
7.04468
21
-4.80488
0
LINE
8
BLACK
6
CONTINUOUS
10
7.04468
20
-4.80488
11
7.03152
21
-4.79943
0
LINE
8
BLACK
6
CONTINUOUS
10
7.03152
20
-4.79943
11
7.01906
21
-4.79255
0
LINE
8
BLACK
6
CONTINUOUS
10
7.01906
20
-4.79255
11
7.00745
21
-4.78431
0
LINE
8
BLACK
6
CONTINUOUS
10
7.00745
20
-4.78431
11
6.99683
21
-4.77482
0
LINE
8
BLACK
6
CONTINUOUS
10
6.99683
20
-4.77482
11
6.98735
21
-4.7642
0
LINE
8
BLACK
6
CONTINUOUS
10
6.98735
20
-4.7642
11
6.97911
21
-4.75259
0
LINE
8
BLACK
6
CONTINUOUS
10
6.97911
20
-4.75259
11
6.97222
21
-4.74013
0
LINE
8
BLACK
6
CONTINUOUS
10
6.97222
20
-4.74013
11
6.96677
21
-4.72697
0
LINE
8
BLACK
6
CONTINUOUS
10
6.96677
20
-4.72697
11
6.96283
21
-4.71329
0
LINE
8
BLACK
6
CONTINUOUS
10
6.96283
20
-4.71329
11
6.96044
21
-4.69926
0
LINE
8
BLACK
6
CONTINUOUS
10
6.96044
20
-4.69926
11
6.95965
21
-4.68504
0
LINE
8
BLACK
6
CONTINUOUS
10
6.95965
20
-4.68504
11
6.96044
21
-4.67082
0
LINE
8
BLACK
6
CONTINUOUS
10
6.96044
20
-4.67082
11
6.96283
21
-4.65679
0
LINE
8
BLACK
6
CONTINUOUS
10
6.96283
20
-4.65679
11
6.96677
21
-4.6431
0
LINE
8
BLACK
6
CONTINUOUS
10
6.96677
20
-4.6431
11
6.97222
21
-4.62995
0
LINE
8
BLACK
6
CONTINUOUS
10
6.97222
20
-4.62995
11
6.97911
21
-4.61749
0
LINE
8
BLACK
6
CONTINUOUS
10
6.97911
20
-4.61749
11
6.98735
21
-4.60588
0
LINE
8
BLACK
6
CONTINUOUS
10
6.98735
20
-4.60588
11
6.99683
21
-4.59526
0
LINE
8
BLACK
6
CONTINUOUS
10
6.99683
20
-4.59526
11
7.00745
21
-4.58577
0
LINE
8
BLACK
6
CONTINUOUS
10
7.00745
20
-4.58577
11
7.01906
21
-4.57753
0
LINE
8
BLACK
6
CONTINUOUS
10
7.01906
20
-4.57753
11
7.03152
21
-4.57064
0
LINE
8
BLACK
6
CONTINUOUS
10
7.03152
20
-4.57064
11
7.04468
21
-4.5652
0
LINE
8
BLACK
6
CONTINUOUS
10
7.04468
20
-4.5652
11
7.05836
21
-4.56125
0
LINE
8
BLACK
6
CONTINUOUS
10
7.05836
20
-4.56125
11
7.0724
21
-4.55887
0
LINE
8
BLACK
6
CONTINUOUS
10
7.0724
20
-4.55887
11
7.08661
21
-4.55807
0
LINE
8
BLACK
6
CONTINUOUS
10
7.08661
20
-4.55807
11
7.10083
21
-4.55887
0
LINE
8
BLACK
6
CONTINUOUS
10
6.9622
20
-4.69906
11
6.96456
21
-4.7129
0
LINE
8
BLACK
6
CONTINUOUS
10
6.96456
20
-4.7129
11
6.96844
21
-4.72639
0
LINE
8
BLACK
6
CONTINUOUS
10
6.96844
20
-4.72639
11
6.97382
21
-4.73936
0
LINE
8
BLACK
6
CONTINUOUS
10
6.97382
20
-4.73936
11
6.98061
21
-4.75165
0
LINE
8
BLACK
6
CONTINUOUS
10
6.98061
20
-4.75165
11
6.98873
21
-4.7631
0
LINE
8
BLACK
6
CONTINUOUS
10
6.98873
20
-4.7631
11
6.99809
21
-4.77357
0
LINE
8
BLACK
6
CONTINUOUS
10
6.99809
20
-4.77357
11
7.00856
21
-4.78292
0
LINE
8
BLACK
6
CONTINUOUS
10
7.00856
20
-4.78292
11
7.02001
21
-4.79105
0
LINE
8
BLACK
6
CONTINUOUS
10
7.02001
20
-4.79105
11
7.03229
21
-4.79784
0
LINE
8
BLACK
6
CONTINUOUS
10
7.03229
20
-4.79784
11
7.04526
21
-4.80321
0
LINE
8
BLACK
6
CONTINUOUS
10
7.04526
20
-4.80321
11
7.05876
21
-4.8071
0
LINE
8
BLACK
6
CONTINUOUS
10
7.05876
20
-4.8071
11
7.0726
21
-4.80945
0
LINE
8
BLACK
6
CONTINUOUS
10
7.0726
20
-4.80945
11
7.08661
21
-4.81024
0
LINE
8
BLACK
6
CONTINUOUS
10
7.08661
20
-4.81024
11
7.10063
21
-4.80945
0
LINE
8
BLACK
6
CONTINUOUS
10
7.10063
20
-4.80945
11
7.11447
21
-4.8071
0
LINE
8
BLACK
6
CONTINUOUS
10
7.11447
20
-4.8071
11
7.12796
21
-4.80321
0
LINE
8
BLACK
6
CONTINUOUS
10
7.12796
20
-4.80321
11
7.14094
21
-4.79784
0
LINE
8
BLACK
6
CONTINUOUS
10
7.14094
20
-4.79784
11
7.15322
21
-4.79105
0
LINE
8
BLACK
6
CONTINUOUS
10
7.15322
20
-4.79105
11
7.16467
21
-4.78292
0
LINE
8
BLACK
6
CONTINUOUS
10
7.16467
20
-4.78292
11
7.17514
21
-4.77357
0
LINE
8
BLACK
6
CONTINUOUS
10
7.17514
20
-4.77357
11
7.1845
21
-4.7631
0
LINE
8
BLACK
6
CONTINUOUS
10
7.1845
20
-4.7631
11
7.19262
21
-4.75165
0
LINE
8
BLACK
6
CONTINUOUS
10
7.19262
20
-4.75165
11
7.19941
21
-4.73936
0
LINE
8
BLACK
6
CONTINUOUS
10
7.19941
20
-4.73936
11
7.20479
21
-4.72639
0
LINE
8
BLACK
6
CONTINUOUS
10
7.20479
20
-4.72639
11
7.20867
21
-4.7129
0
LINE
8
BLACK
6
CONTINUOUS
10
7.20867
20
-4.7129
11
7.21102
21
-4.69906
0
LINE
8
BLACK
6
CONTINUOUS
10
7.21102
20
-4.69906
11
7.21181
21
-4.68504
0
LINE
8
BLACK
6
CONTINUOUS
10
7.21181
20
-4.68504
11
7.21102
21
-4.67102
0
LINE
8
BLACK
6
CONTINUOUS
10
7.21102
20
-4.67102
11
7.20867
21
-4.65718
0
LINE
8
BLACK
6
CONTINUOUS
10
7.20867
20
-4.65718
11
7.20479
21
-4.64369
0
LINE
8
BLACK
6
CONTINUOUS
10
7.20479
20
-4.64369
11
7.19941
21
-4.63072
0
LINE
8
BLACK
6
CONTINUOUS
10
7.19941
20
-4.63072
11
7.19262
21
-4.61843
0
LINE
8
BLACK
6
CONTINUOUS
10
7.19262
20
-4.61843
11
7.1845
21
-4.60698
0
LINE
8
BLACK
6
CONTINUOUS
10
7.1845
20
-4.60698
11
7.17514
21
-4.59651
0
LINE
8
BLACK
6
CONTINUOUS
10
7.17514
20
-4.59651
11
7.16467
21
-4.58716
0
LINE
8
BLACK
6
CONTINUOUS
10
7.16467
20
-4.58716
11
7.15322
21
-4.57903
0
LINE
8
BLACK
6
CONTINUOUS
10
7.15322
20
-4.57903
11
7.14094
21
-4.57224
0
LINE
8
BLACK
6
CONTINUOUS
10
7.14094
20
-4.57224
11
7.12796
21
-4.56687
0
LINE
8
BLACK
6
CONTINUOUS
10
7.12796
20
-4.56687
11
7.11447
21
-4.56298
0
LINE
8
BLACK
6
CONTINUOUS
10
7.11447
20
-4.56298
11
7.10063
21
-4.56063
0
LINE
8
BLACK
6
CONTINUOUS
10
7.10063
20
-4.56063
11
7.08661
21
-4.55984
0
LINE
8
BLACK
6
CONTINUOUS
10
7.08661
20
-4.55984
11
7.0726
21
-4.56063
0
LINE
8
BLACK
6
CONTINUOUS
10
7.0726
20
-4.56063
11
7.05876
21
-4.56298
0
LINE
8
BLACK
6
CONTINUOUS
10
7.05876
20
-4.56298
11
7.04526
21
-4.56687
0
LINE
8
BLACK
6
CONTINUOUS
10
7.04526
20
-4.56687
11
7.03229
21
-4.57224
0
LINE
8
BLACK
6
CONTINUOUS
10
7.03229
20
-4.57224
11
7.02001
21
-4.57903
0
LINE
8
BLACK
6
CONTINUOUS
10
7.02001
20
-4.57903
11
7.00856
21
-4.58716
0
LINE
8
BLACK
6
CONTINUOUS
10
7.00856
20
-4.58716
11
6.99809
21
-4.59651
0
LINE
8
BLACK
6
CONTINUOUS
10
6.99809
20
-4.59651
11
6.98873
21
-4.60698
0
LINE
8
BLACK
6
CONTINUOUS
10
6.98873
20
-4.60698
11
6.98061
21
-4.61843
0
LINE
8
BLACK
6
CONTINUOUS
10
6.98061
20
-4.61843
11
6.97382
21
-4.63072
0
LINE
8
BLACK
6
CONTINUOUS
10
6.97382
20
-4.63072
11
6.96844
21
-4.64369
0
LINE
8
BLACK
6
CONTINUOUS
10
6.96844
20
-4.64369
11
6.96456
21
-4.65718
0
LINE
8
BLACK
6
CONTINUOUS
10
6.96456
20
-4.65718
11
6.9622
21
-4.67102
0
LINE
8
BLACK
6
CONTINUOUS
10
6.9622
20
-4.67102
11
6.96142
21
-4.68504
0
LINE
8
BLACK
6
CONTINUOUS
10
6.96142
20
-4.68504
11
6.9622
21
-4.69906
0
LINE
8
BLACK
6
CONTINUOUS
10
7.28346
20
-4.53839
11
7.28416
21
-4.53867
0
LINE
8
BLACK
6
CONTINUOUS
10
7.28416
20
-4.53867
11
7.28445
21
-4.53937
0
LINE
8
BLACK
6
CONTINUOUS
10
7.28445
20
-4.53937
11
7.28445
21
-4.83071
0
LINE
8
BLACK
6
CONTINUOUS
10
7.28445
20
-4.83071
11
7.28416
21
-4.8314
0
LINE
8
BLACK
6
CONTINUOUS
10
7.28416
20
-4.8314
11
7.28346
21
-4.83169
0
LINE
8
BLACK
6
CONTINUOUS
10
7.28346
20
-4.83169
11
6.88976
21
-4.83169
0
LINE
8
BLACK
6
CONTINUOUS
10
6.88976
20
-4.83169
11
6.88907
21
-4.8314
0
LINE
8
BLACK
6
CONTINUOUS
10
6.88907
20
-4.8314
11
6.88878
21
-4.83071
0
LINE
8
BLACK
6
CONTINUOUS
10
6.88878
20
-4.83071
11
6.88878
21
-4.53937
0
LINE
8
BLACK
6
CONTINUOUS
10
6.88878
20
-4.53937
11
6.88907
21
-4.53867
0
LINE
8
BLACK
6
CONTINUOUS
10
6.88907
20
-4.53867
11
6.88976
21
-4.53839
0
LINE
8
BLACK
6
CONTINUOUS
10
6.88976
20
-4.53839
11
7.28346
21
-4.53839
0
LINE
8
BLACK
6
CONTINUOUS
10
6.89075
20
-4.54035
11
6.89075
21
-4.82972
0
LINE
8
BLACK
6
CONTINUOUS
10
6.89075
20
-4.82972
11
7.28248
21
-4.82972
0
LINE
8
BLACK
6
CONTINUOUS
10
7.28248
20
-4.82972
11
7.28248
21
-4.54035
0
LINE
8
BLACK
6
CONTINUOUS
10
7.28248
20
-4.54035
11
6.89075
21
-4.54035
0
LINE
8
BLACK
6
CONTINUOUS
10
1.67323
20
-4.58563
11
1.67392
21
-4.58592
0
LINE
8
BLACK
6
CONTINUOUS
10
1.67392
20
-4.58592
11
1.67421
21
-4.58661
0
LINE
8
BLACK
6
CONTINUOUS
10
1.67421
20
-4.58661
11
1.67421
21
-4.78346
0
LINE
8
BLACK
6
CONTINUOUS
10
1.67421
20
-4.78346
11
1.67392
21
-4.78416
0
LINE
8
BLACK
6
CONTINUOUS
10
1.67392
20
-4.78416
11
1.67323
21
-4.78445
0
LINE
8
BLACK
6
CONTINUOUS
10
1.67323
20
-4.78445
11
1.47638
21
-4.78445
0
LINE
8
BLACK
6
CONTINUOUS
10
1.47638
20
-4.78445
11
1.47568
21
-4.78416
0
LINE
8
BLACK
6
CONTINUOUS
10
1.47568
20
-4.78416
11
1.47539
21
-4.78346
0
LINE
8
BLACK
6
CONTINUOUS
10
1.47539
20
-4.78346
11
1.47539
21
-4.58661
0
LINE
8
BLACK
6
CONTINUOUS
10
1.47539
20
-4.58661
11
1.47568
21
-4.58592
0
LINE
8
BLACK
6
CONTINUOUS
10
1.47568
20
-4.58592
11
1.47638
21
-4.58563
0
LINE
8
BLACK
6
CONTINUOUS
10
1.47638
20
-4.58563
11
1.67323
21
-4.58563
0
LINE
8
BLACK
6
CONTINUOUS
10
1.47736
20
-4.5876
11
1.47736
21
-4.78248
0
LINE
8
BLACK
6
CONTINUOUS
10
1.47736
20
-4.78248
11
1.67224
21
-4.78248
0
LINE
8
BLACK
6
CONTINUOUS
10
1.67224
20
-4.78248
11
1.67224
21
-4.5876
0
LINE
8
BLACK
6
CONTINUOUS
10
1.67224
20
-4.5876
11
1.47736
21
-4.5876
0
LINE
8
BLACK
6
CONTINUOUS
10
6.79134
20
-4.58563
11
6.79203
21
-4.58592
0
LINE
8
BLACK
6
CONTINUOUS
10
6.79203
20
-4.58592
11
6.79232
21
-4.58661
0
LINE
8
BLACK
6
CONTINUOUS
10
6.79232
20
-4.58661
11
6.79232
21
-4.78346
0
LINE
8
BLACK
6
CONTINUOUS
10
6.79232
20
-4.78346
11
6.79203
21
-4.78416
0
LINE
8
BLACK
6
CONTINUOUS
10
6.79203
20
-4.78416
11
6.79134
21
-4.78445
0
LINE
8
BLACK
6
CONTINUOUS
10
6.79134
20
-4.78445
11
6.59449
21
-4.78445
0
LINE
8
BLACK
6
CONTINUOUS
10
6.59449
20
-4.78445
11
6.59379
21
-4.78416
0
LINE
8
BLACK
6
CONTINUOUS
10
6.59379
20
-4.78416
11
6.5935
21
-4.78346
0
LINE
8
BLACK
6
CONTINUOUS
10
6.5935
20
-4.78346
11
6.5935
21
-4.58661
0
LINE
8
BLACK
6
CONTINUOUS
10
6.5935
20
-4.58661
11
6.59379
21
-4.58592
0
LINE
8
BLACK
6
CONTINUOUS
10
6.59379
20
-4.58592
11
6.59449
21
-4.58563
0
LINE
8
BLACK
6
CONTINUOUS
10
6.59449
20
-4.58563
11
6.79134
21
-4.58563
0
LINE
8
BLACK
6
CONTINUOUS
10
6.59547
20
-4.5876
11
6.59547
21
-4.78248
0
LINE
8
BLACK
6
CONTINUOUS
10
6.59547
20
-4.78248
11
6.79035
21
-4.78248
0
LINE
8
BLACK
6
CONTINUOUS
10
6.79035
20
-4.78248
11
6.79035
21
-4.5876
0
LINE
8
BLACK
6
CONTINUOUS
10
6.79035
20
-4.5876
11
6.59547
21
-4.5876
0
LINE
8
BLACK
6
CONTINUOUS
10
7.70866
20
-2.86437
11
7.70936
21
-2.86466
0
LINE
8
BLACK
6
CONTINUOUS
10
7.70936
20
-2.86466
11
7.70965
21
-2.86535
0
LINE
8
BLACK
6
CONTINUOUS
10
7.70965
20
-2.86535
11
7.70965
21
-3.66122
0
LINE
8
BLACK
6
CONTINUOUS
10
7.70965
20
-3.66122
11
7.70965
21
-4.45768
0
LINE
8
BLACK
6
CONTINUOUS
10
7.70965
20
-4.45768
11
7.70936
21
-4.45837
0
LINE
8
BLACK
6
CONTINUOUS
10
7.70936
20
-4.45837
11
7.70866
21
-4.45866
0
LINE
8
BLACK
6
CONTINUOUS
10
7.70866
20
-4.45866
11
6.6248
21
-4.45866
0
LINE
8
BLACK
6
CONTINUOUS
10
6.6248
20
-4.45866
11
6.62411
21
-4.45837
0
LINE
8
BLACK
6
CONTINUOUS
10
6.62411
20
-4.45837
11
6.62382
21
-4.45768
0
LINE
8
BLACK
6
CONTINUOUS
10
6.62382
20
-4.45768
11
6.62382
21
-3.66122
0
LINE
8
BLACK
6
CONTINUOUS
10
6.62382
20
-3.66122
11
6.62382
21
-2.86535
0
LINE
8
BLACK
6
CONTINUOUS
10
6.62382
20
-2.86535
11
6.62411
21
-2.86466
0
LINE
8
BLACK
6
CONTINUOUS
10
6.62411
20
-2.86466
11
6.6248
21
-2.86437
0
LINE
8
BLACK
6
CONTINUOUS
10
6.6248
20
-2.86437
11
7.70866
21
-2.86437
0
LINE
8
BLACK
6
CONTINUOUS
10
6.62579
20
-3.6628
11
6.62579
21
-4.45669
0
LINE
8
BLACK
6
CONTINUOUS
10
6.62579
20
-4.45669
11
7.70768
21
-4.45669
0
LINE
8
BLACK
6
CONTINUOUS
10
7.70768
20
-4.45669
11
7.70768
21
-3.6628
0
LINE
8
BLACK
6
CONTINUOUS
10
7.70768
20
-3.6628
11
6.62579
21
-3.6628
0
LINE
8
BLACK
6
CONTINUOUS
10
6.62579
20
-2.86634
11
6.62579
21
-3.66024
0
LINE
8
BLACK
6
CONTINUOUS
10
6.62579
20
-3.66024
11
7.70768
21
-3.66024
0
LINE
8
BLACK
6
CONTINUOUS
10
7.70768
20
-3.66024
11
7.70768
21
-2.86634
0
LINE
8
BLACK
6
CONTINUOUS
10
7.70768
20
-2.86634
11
6.62579
21
-2.86634
0
LINE
8
BLACK
6
CONTINUOUS
10
1.64429
20
-2.86398
11
1.64499
21
-2.86426
0
LINE
8
BLACK
6
CONTINUOUS
10
1.64499
20
-2.86426
11
1.64528
21
-2.86496
0
LINE
8
BLACK
6
CONTINUOUS
10
1.64528
20
-2.86496
11
1.64528
21
-3.66142
0
LINE
8
BLACK
6
CONTINUOUS
10
1.64528
20
-3.66142
11
1.64499
21
-3.66211
0
LINE
8
BLACK
6
CONTINUOUS
10
1.64499
20
-3.66211
11
1.64429
21
-3.6624
0
LINE
8
BLACK
6
CONTINUOUS
10
1.64429
20
-3.6624
11
1.6439
21
-3.6624
0
LINE
8
BLACK
6
CONTINUOUS
10
1.6439
20
-3.6624
11
1.6439
21
-4.45669
0
LINE
8
BLACK
6
CONTINUOUS
10
1.6439
20
-4.45669
11
1.64361
21
-4.45739
0
LINE
8
BLACK
6
CONTINUOUS
10
1.64361
20
-4.45739
11
1.64291
21
-4.45768
0
LINE
8
BLACK
6
CONTINUOUS
10
1.64291
20
-4.45768
11
0.559055
21
-4.45768
0
LINE
8
BLACK
6
CONTINUOUS
10
0.559055
20
-4.45768
11
0.558359
21
-4.45739
0
LINE
8
BLACK
6
CONTINUOUS
10
0.558359
20
-4.45739
11
0.558071
21
-4.45669
0
LINE
8
BLACK
6
CONTINUOUS
10
0.558071
20
-4.45669
11
0.558071
21
-3.66024
0
LINE
8
BLACK
6
CONTINUOUS
10
0.558071
20
-3.66024
11
0.558359
21
-3.65954
0
LINE
8
BLACK
6
CONTINUOUS
10
0.558359
20
-3.65954
11
0.559055
21
-3.65925
0
LINE
8
BLACK
6
CONTINUOUS
10
0.559055
20
-3.65925
11
0.559449
21
-3.65925
0
LINE
8
BLACK
6
CONTINUOUS
10
0.559449
20
-3.65925
11
0.559449
21
-2.86496
0
LINE
8
BLACK
6
CONTINUOUS
10
0.559449
20
-2.86496
11
0.559737
21
-2.86426
0
LINE
8
BLACK
6
CONTINUOUS
10
0.559737
20
-2.86426
11
0.560433
21
-2.86398
0
LINE
8
BLACK
6
CONTINUOUS
10
0.560433
20
-2.86398
11
1.64429
21
-2.86398
0
LINE
8
BLACK
6
CONTINUOUS
10
0.560039
20
-4.45571
11
1.64193
21
-4.45571
0
LINE
8
BLACK
6
CONTINUOUS
10
1.64193
20
-4.45571
11
1.64193
21
-3.6624
0
LINE
8
BLACK
6
CONTINUOUS
10
1.64193
20
-3.6624
11
0.560433
21
-3.6624
0
LINE
8
BLACK
6
CONTINUOUS
10
0.560433
20
-3.6624
11
0.560039
21
-3.66224
0
LINE
8
BLACK
6
CONTINUOUS
10
0.560039
20
-3.66224
11
0.560039
21
-4.45571
0
LINE
8
BLACK
6
CONTINUOUS
10
0.561417
20
-2.86594
11
0.561417
21
-3.65925
0
LINE
8
BLACK
6
CONTINUOUS
10
0.561417
20
-3.65925
11
1.64291
21
-3.65925
0
LINE
8
BLACK
6
CONTINUOUS
10
1.64291
20
-3.65925
11
1.64331
21
-3.65942
0
LINE
8
BLACK
6
CONTINUOUS
10
1.64331
20
-3.65942
11
1.64331
21
-2.86594
0
LINE
8
BLACK
6
CONTINUOUS
10
1.64331
20
-2.86594
11
0.561417
21
-2.86594
0
LINE
8
BLACK
6
CONTINUOUS
10
4.23228
20
-4.19193
11
4.23298
21
-4.19222
0
LINE
8
BLACK
6
CONTINUOUS
10
4.23298
20
-4.19222
11
4.23327
21
-4.19291
0
LINE
8
BLACK
6
CONTINUOUS
10
4.23327
20
-4.19291
11
4.23327
21
-4.38976
0
LINE
8
BLACK
6
CONTINUOUS
10
4.23327
20
-4.38976
11
4.23298
21
-4.39046
0
LINE
8
BLACK
6
CONTINUOUS
10
4.23298
20
-4.39046
11
4.23228
21
-4.39075
0
LINE
8
BLACK
6
CONTINUOUS
10
4.23228
20
-4.39075
11
4.03543
21
-4.39075
0
LINE
8
BLACK
6
CONTINUOUS
10
4.03543
20
-4.39075
11
4.03474
21
-4.39046
0
LINE
8
BLACK
6
CONTINUOUS
10
4.03474
20
-4.39046
11
4.03445
21
-4.38976
0
LINE
8
BLACK
6
CONTINUOUS
10
4.03445
20
-4.38976
11
4.03445
21
-4.38976
0
LINE
8
BLACK
6
CONTINUOUS
10
4.03445
20
-4.38976
11
4.03445
21
-4.19291
0
LINE
8
BLACK
6
CONTINUOUS
10
4.03445
20
-4.19291
11
4.03474
21
-4.19222
0
LINE
8
BLACK
6
CONTINUOUS
10
4.03474
20
-4.19222
11
4.03543
21
-4.19193
0
LINE
8
BLACK
6
CONTINUOUS
10
4.03543
20
-4.19193
11
4.23228
21
-4.19193
0
LINE
8
BLACK
6
CONTINUOUS
10
4.03642
20
-4.1939
11
4.03642
21
-4.38878
0
LINE
8
BLACK
6
CONTINUOUS
10
4.03642
20
-4.38878
11
4.2313
21
-4.38878
0
LINE
8
BLACK
6
CONTINUOUS
10
4.2313
20
-4.38878
11
4.2313
21
-4.1939
0
LINE
8
BLACK
6
CONTINUOUS
10
4.2313
20
-4.1939
11
4.03642
21
-4.1939
0
LINE
8
BLACK
6
CONTINUOUS
10
5.50591
20
-2.28248
11
5.5066
21
-2.28277
0
LINE
8
BLACK
6
CONTINUOUS
10
5.5066
20
-2.28277
11
5.55188
21
-2.32804
0
LINE
8
BLACK
6
CONTINUOUS
10
5.55188
20
-2.32804
11
5.55188
21
-2.32804
0
LINE
8
BLACK
6
CONTINUOUS
10
5.55188
20
-2.32804
11
5.55188
21
-2.32804
0
LINE
8
BLACK
6
CONTINUOUS
10
5.55188
20
-2.32804
11
5.55217
21
-2.32874
0
LINE
8
BLACK
6
CONTINUOUS
10
5.55217
20
-2.32874
11
5.55217
21
-2.32874
0
LINE
8
BLACK
6
CONTINUOUS
10
5.55217
20
-2.32874
11
5.55217
21
-2.43602
0
LINE
8
BLACK
6
CONTINUOUS
10
5.55217
20
-2.43602
11
5.58465
21
-2.43602
0
LINE
8
BLACK
6
CONTINUOUS
10
5.58465
20
-2.43602
11
5.58534
21
-2.43631
0
LINE
8
BLACK
6
CONTINUOUS
10
5.58534
20
-2.43631
11
5.58563
21
-2.43701
0
LINE
8
BLACK
6
CONTINUOUS
10
5.58563
20
-2.43701
11
5.58563
21
-2.55512
0
LINE
8
BLACK
6
CONTINUOUS
10
5.58563
20
-2.55512
11
5.58534
21
-2.55581
0
LINE
8
BLACK
6
CONTINUOUS
10
5.58534
20
-2.55581
11
5.58465
21
-2.5561
0
LINE
8
BLACK
6
CONTINUOUS
10
5.58465
20
-2.5561
11
5.55217
21
-2.5561
0
LINE
8
BLACK
6
CONTINUOUS
10
5.55217
20
-2.5561
11
5.55217
21
-2.66339
0
LINE
8
BLACK
6
CONTINUOUS
10
5.55217
20
-2.66339
11
5.55217
21
-2.66339
0
LINE
8
BLACK
6
CONTINUOUS
10
5.55217
20
-2.66339
11
5.55196
21
-2.66388
0
LINE
8
BLACK
6
CONTINUOUS
10
5.55196
20
-2.66388
11
5.55188
21
-2.66408
0
LINE
8
BLACK
6
CONTINUOUS
10
5.55188
20
-2.66408
11
5.55188
21
-2.66408
0
LINE
8
BLACK
6
CONTINUOUS
10
5.55188
20
-2.66408
11
5.51104
21
-2.70492
0
LINE
8
BLACK
6
CONTINUOUS
10
5.51104
20
-2.70492
11
5.81693
21
-2.70492
0
LINE
8
BLACK
6
CONTINUOUS
10
5.81693
20
-2.70492
11
5.81763
21
-2.70521
0
LINE
8
BLACK
6
CONTINUOUS
10
5.81763
20
-2.70521
11
5.81791
21
-2.70591
0
LINE
8
BLACK
6
CONTINUOUS
10
5.81791
20
-2.70591
11
5.81791
21
-3.72559
0
LINE
8
BLACK
6
CONTINUOUS
10
5.81791
20
-3.72559
11
5.81763
21
-3.72629
0
LINE
8
BLACK
6
CONTINUOUS
10
5.81763
20
-3.72629
11
5.81693
21
-3.72657
0
LINE
8
BLACK
6
CONTINUOUS
10
5.81693
20
-3.72657
11
4.79724
21
-3.72657
0
LINE
8
BLACK
6
CONTINUOUS
10
4.79724
20
-3.72657
11
4.79655
21
-3.72629
0
LINE
8
BLACK
6
CONTINUOUS
10
4.79655
20
-3.72629
11
4.79626
21
-3.72559
0
LINE
8
BLACK
6
CONTINUOUS
10
4.79626
20
-3.72559
11
4.79626
21
-2.70591
0
LINE
8
BLACK
6
CONTINUOUS
10
4.79626
20
-2.70591
11
4.79655
21
-2.70521
0
LINE
8
BLACK
6
CONTINUOUS
10
4.79655
20
-2.70521
11
4.79724
21
-2.70492
0
LINE
8
BLACK
6
CONTINUOUS
10
4.79724
20
-2.70492
11
5.125
21
-2.70492
0
LINE
8
BLACK
6
CONTINUOUS
10
5.125
20
-2.70492
11
5.125
21
-2.5561
0
LINE
8
BLACK
6
CONTINUOUS
10
5.125
20
-2.5561
11
5.09252
21
-2.5561
0
LINE
8
BLACK
6
CONTINUOUS
10
5.09252
20
-2.5561
11
5.09182
21
-2.55581
0
LINE
8
BLACK
6
CONTINUOUS
10
5.09182
20
-2.55581
11
5.09154
21
-2.55512
0
LINE
8
BLACK
6
CONTINUOUS
10
5.09154
20
-2.55512
11
5.09154
21
-2.43701
0
LINE
8
BLACK
6
CONTINUOUS
10
5.09154
20
-2.43701
11
5.09182
21
-2.43631
0
LINE
8
BLACK
6
CONTINUOUS
10
5.09182
20
-2.43631
11
5.09252
21
-2.43602
0
LINE
8
BLACK
6
CONTINUOUS
10
5.09252
20
-2.43602
11
5.125
21
-2.43602
0
LINE
8
BLACK
6
CONTINUOUS
10
5.125
20
-2.43602
11
5.125
21
-2.28346
0
LINE
8
BLACK
6
CONTINUOUS
10
5.125
20
-2.28346
11
5.12529
21
-2.28277
0
LINE
8
BLACK
6
CONTINUOUS
10
5.12529
20
-2.28277
11
5.12598
21
-2.28248
0
LINE
8
BLACK
6
CONTINUOUS
10
5.12598
20
-2.28248
11
5.50591
21
-2.28248
0
LINE
8
BLACK
6
CONTINUOUS
10
5.50907
20
-2.70689
11
5.5066
21
-2.70936
0
LINE
8
BLACK
6
CONTINUOUS
10
5.5066
20
-2.70936
11
5.50591
21
-2.70965
0
LINE
8
BLACK
6
CONTINUOUS
10
5.50591
20
-2.70965
11
5.12598
21
-2.70965
0
LINE
8
BLACK
6
CONTINUOUS
10
5.12598
20
-2.70965
11
5.12529
21
-2.70936
0
LINE
8
BLACK
6
CONTINUOUS
10
5.12529
20
-2.70936
11
5.125
21
-2.70866
0
LINE
8
BLACK
6
CONTINUOUS
10
5.125
20
-2.70866
11
5.125
21
-2.70689
0
LINE
8
BLACK
6
CONTINUOUS
10
5.125
20
-2.70689
11
4.79823
21
-2.70689
0
LINE
8
BLACK
6
CONTINUOUS
10
4.79823
20
-2.70689
11
4.79823
21
-3.72461
0
LINE
8
BLACK
6
CONTINUOUS
10
4.79823
20
-3.72461
11
5.81594
21
-3.72461
0
LINE
8
BLACK
6
CONTINUOUS
10
5.81594
20
-3.72461
11
5.81594
21
-2.70689
0
LINE
8
BLACK
6
CONTINUOUS
10
5.81594
20
-2.70689
11
5.50907
21
-2.70689
0
LINE
8
BLACK
6
CONTINUOUS
10
5.12697
20
-2.70689
11
5.12697
21
-2.70768
0
LINE
8
BLACK
6
CONTINUOUS
10
5.12697
20
-2.70768
11
5.5055
21
-2.70768
0
LINE
8
BLACK
6
CONTINUOUS
10
5.5055
20
-2.70768
11
5.50629
21
-2.70689
0
LINE
8
BLACK
6
CONTINUOUS
10
5.50629
20
-2.70689
11
5.12697
21
-2.70689
0
LINE
8
BLACK
6
CONTINUOUS
10
5.12697
20
-2.28445
11
5.12697
21
-2.43701
0
LINE
8
BLACK
6
CONTINUOUS
10
5.12697
20
-2.43701
11
5.12668
21
-2.4377
0
LINE
8
BLACK
6
CONTINUOUS
10
5.12668
20
-2.4377
11
5.12598
21
-2.43799
0
LINE
8
BLACK
6
CONTINUOUS
10
5.12598
20
-2.43799
11
5.0935
21
-2.43799
0
LINE
8
BLACK
6
CONTINUOUS
10
5.0935
20
-2.43799
11
5.0935
21
-2.55413
0
LINE
8
BLACK
6
CONTINUOUS
10
5.0935
20
-2.55413
11
5.12598
21
-2.55413
0
LINE
8
BLACK
6
CONTINUOUS
10
5.12598
20
-2.55413
11
5.12668
21
-2.55442
0
LINE
8
BLACK
6
CONTINUOUS
10
5.12668
20
-2.55442
11
5.12697
21
-2.55512
0
LINE
8
BLACK
6
CONTINUOUS
10
5.12697
20
-2.55512
11
5.12697
21
-2.70492
0
LINE
8
BLACK
6
CONTINUOUS
10
5.12697
20
-2.70492
11
5.50825
21
-2.70492
0
LINE
8
BLACK
6
CONTINUOUS
10
5.50825
20
-2.70492
11
5.5502
21
-2.66298
0
LINE
8
BLACK
6
CONTINUOUS
10
5.5502
20
-2.66298
11
5.5502
21
-2.55512
0
LINE
8
BLACK
6
CONTINUOUS
10
5.5502
20
-2.55512
11
5.55049
21
-2.55442
0
LINE
8
BLACK
6
CONTINUOUS
10
5.55049
20
-2.55442
11
5.55118
21
-2.55413
0
LINE
8
BLACK
6
CONTINUOUS
10
5.55118
20
-2.55413
11
5.58366
21
-2.55413
0
LINE
8
BLACK
6
CONTINUOUS
10
5.58366
20
-2.55413
11
5.58366
21
-2.43799
0
LINE
8
BLACK
6
CONTINUOUS
10
5.58366
20
-2.43799
11
5.55118
21
-2.43799
0
LINE
8
BLACK
6
CONTINUOUS
10
5.55118
20
-2.43799
11
5.55049
21
-2.4377
0
LINE
8
BLACK
6
CONTINUOUS
10
5.55049
20
-2.4377
11
5.5502
21
-2.43701
0
LINE
8
BLACK
6
CONTINUOUS
10
5.5502
20
-2.43701
11
5.5502
21
-2.32915
0
LINE
8
BLACK
6
CONTINUOUS
10
5.5502
20
-2.32915
11
5.5055
21
-2.28445
0
LINE
8
BLACK
6
CONTINUOUS
10
5.5055
20
-2.28445
11
5.12697
21
-2.28445
0
LINE
8
BLACK
6
CONTINUOUS
10
1.19532
20
-2.51163
11
1.20936
21
-2.51401
0
LINE
8
BLACK
6
CONTINUOUS
10
1.20936
20
-2.51401
11
1.22304
21
-2.51795
0
LINE
8
BLACK
6
CONTINUOUS
10
1.22304
20
-2.51795
11
1.23619
21
-2.5234
0
LINE
8
BLACK
6
CONTINUOUS
10
1.23619
20
-2.5234
11
1.24865
21
-2.53029
0
LINE
8
BLACK
6
CONTINUOUS
10
1.24865
20
-2.53029
11
1.26027
21
-2.53853
0
LINE
8
BLACK
6
CONTINUOUS
10
1.26027
20
-2.53853
11
1.27088
21
-2.54801
0
LINE
8
BLACK
6
CONTINUOUS
10
1.27088
20
-2.54801
11
1.28037
21
-2.55863
0
LINE
8
BLACK
6
CONTINUOUS
10
1.28037
20
-2.55863
11
1.28861
21
-2.57024
0
LINE
8
BLACK
6
CONTINUOUS
10
1.28861
20
-2.57024
11
1.2955
21
-2.58271
0
LINE
8
BLACK
6
CONTINUOUS
10
1.2955
20
-2.58271
11
1.30095
21
-2.59586
0
LINE
8
BLACK
6
CONTINUOUS
10
1.30095
20
-2.59586
11
1.30489
21
-2.60954
0
LINE
8
BLACK
6
CONTINUOUS
10
1.30489
20
-2.60954
11
1.30727
21
-2.62358
0
LINE
8
BLACK
6
CONTINUOUS
10
1.30727
20
-2.62358
11
1.30807
21
-2.6378
0
LINE
8
BLACK
6
CONTINUOUS
10
1.30807
20
-2.6378
11
1.30727
21
-2.65201
0
LINE
8
BLACK
6
CONTINUOUS
10
1.30727
20
-2.65201
11
1.30489
21
-2.66605
0
LINE
8
BLACK
6
CONTINUOUS
10
1.30489
20
-2.66605
11
1.30095
21
-2.67973
0
LINE
8
BLACK
6
CONTINUOUS
10
1.30095
20
-2.67973
11
1.2955
21
-2.69288
0
LINE
8
BLACK
6
CONTINUOUS
10
1.2955
20
-2.69288
11
1.28861
21
-2.70535
0
LINE
8
BLACK
6
CONTINUOUS
10
1.28861
20
-2.70535
11
1.28037
21
-2.71696
0
LINE
8
BLACK
6
CONTINUOUS
10
1.28037
20
-2.71696
11
1.27088
21
-2.72758
0
LINE
8
BLACK
6
CONTINUOUS
10
1.27088
20
-2.72758
11
1.26027
21
-2.73706
0
LINE
8
BLACK
6
CONTINUOUS
10
1.26027
20
-2.73706
11
1.24865
21
-2.7453
0
LINE
8
BLACK
6
CONTINUOUS
10
1.24865
20
-2.7453
11
1.23619
21
-2.75219
0
LINE
8
BLACK
6
CONTINUOUS
10
1.23619
20
-2.75219
11
1.22304
21
-2.75764
0
LINE
8
BLACK
6
CONTINUOUS
10
1.22304
20
-2.75764
11
1.20936
21
-2.76158
0
LINE
8
BLACK
6
CONTINUOUS
10
1.20936
20
-2.76158
11
1.19532
21
-2.76397
0
LINE
8
BLACK
6
CONTINUOUS
10
1.19532
20
-2.76397
11
1.1811
21
-2.76476
0
LINE
8
BLACK
6
CONTINUOUS
10
1.1811
20
-2.76476
11
1.16689
21
-2.76397
0
LINE
8
BLACK
6
CONTINUOUS
10
1.16689
20
-2.76397
11
1.15285
21
-2.76158
0
LINE
8
BLACK
6
CONTINUOUS
10
1.15285
20
-2.76158
11
1.13917
21
-2.75764
0
LINE
8
BLACK
6
CONTINUOUS
10
1.13917
20
-2.75764
11
1.12601
21
-2.75219
0
LINE
8
BLACK
6
CONTINUOUS
10
1.12601
20
-2.75219
11
1.11355
21
-2.7453
0
LINE
8
BLACK
6
CONTINUOUS
10
1.11355
20
-2.7453
11
1.10194
21
-2.73706
0
LINE
8
BLACK
6
CONTINUOUS
10
1.10194
20
-2.73706
11
1.09132
21
-2.72758
0
LINE
8
BLACK
6
CONTINUOUS
10
1.09132
20
-2.72758
11
1.08183
21
-2.71696
0
LINE
8
BLACK
6
CONTINUOUS
10
1.08183
20
-2.71696
11
1.0736
21
-2.70535
0
LINE
8
BLACK
6
CONTINUOUS
10
1.0736
20
-2.70535
11
1.06671
21
-2.69288
0
LINE
8
BLACK
6
CONTINUOUS
10
1.06671
20
-2.69288
11
1.06126
21
-2.67973
0
LINE
8
BLACK
6
CONTINUOUS
10
1.06126
20
-2.67973
11
1.05732
21
-2.66605
0
LINE
8
BLACK
6
CONTINUOUS
10
1.05732
20
-2.66605
11
1.05493
21
-2.65201
0
LINE
8
BLACK
6
CONTINUOUS
10
1.05493
20
-2.65201
11
1.05413
21
-2.6378
0
LINE
8
BLACK
6
CONTINUOUS
10
1.05413
20
-2.6378
11
1.05493
21
-2.62358
0
LINE
8
BLACK
6
CONTINUOUS
10
1.05493
20
-2.62358
11
1.05732
21
-2.60954
0
LINE
8
BLACK
6
CONTINUOUS
10
1.05732
20
-2.60954
11
1.06126
21
-2.59586
0
LINE
8
BLACK
6
CONTINUOUS
10
1.06126
20
-2.59586
11
1.06671
21
-2.58271
0
LINE
8
BLACK
6
CONTINUOUS
10
1.06671
20
-2.58271
11
1.0736
21
-2.57024
0
LINE
8
BLACK
6
CONTINUOUS
10
1.0736
20
-2.57024
11
1.08183
21
-2.55863
0
LINE
8
BLACK
6
CONTINUOUS
10
1.08183
20
-2.55863
11
1.09132
21
-2.54801
0
LINE
8
BLACK
6
CONTINUOUS
10
1.09132
20
-2.54801
11
1.10194
21
-2.53853
0
LINE
8
BLACK
6
CONTINUOUS
10
1.10194
20
-2.53853
11
1.11355
21
-2.53029
0
LINE
8
BLACK
6
CONTINUOUS
10
1.11355
20
-2.53029
11
1.12601
21
-2.5234
0
LINE
8
BLACK
6
CONTINUOUS
10
1.12601
20
-2.5234
11
1.13917
21
-2.51795
0
LINE
8
BLACK
6
CONTINUOUS
10
1.13917
20
-2.51795
11
1.15285
21
-2.51401
0
LINE
8
BLACK
6
CONTINUOUS
10
1.15285
20
-2.51401
11
1.16689
21
-2.51163
0
LINE
8
BLACK
6
CONTINUOUS
10
1.16689
20
-2.51163
11
1.1811
21
-2.51083
0
LINE
8
BLACK
6
CONTINUOUS
10
1.1811
20
-2.51083
11
1.19532
21
-2.51163
0
LINE
8
BLACK
6
CONTINUOUS
10
1.05669
20
-2.65181
11
1.05904
21
-2.66565
0
LINE
8
BLACK
6
CONTINUOUS
10
1.05904
20
-2.66565
11
1.06293
21
-2.67915
0
LINE
8
BLACK
6
CONTINUOUS
10
1.06293
20
-2.67915
11
1.0683
21
-2.69212
0
LINE
8
BLACK
6
CONTINUOUS
10
1.0683
20
-2.69212
11
1.0751
21
-2.7044
0
LINE
8
BLACK
6
CONTINUOUS
10
1.0751
20
-2.7044
11
1.08322
21
-2.71585
0
LINE
8
BLACK
6
CONTINUOUS
10
1.08322
20
-2.71585
11
1.09257
21
-2.72632
0
LINE
8
BLACK
6
CONTINUOUS
10
1.09257
20
-2.72632
11
1.10304
21
-2.73568
0
LINE
8
BLACK
6
CONTINUOUS
10
1.10304
20
-2.73568
11
1.11449
21
-2.7438
0
LINE
8
BLACK
6
CONTINUOUS
10
1.11449
20
-2.7438
11
1.12678
21
-2.75059
0
LINE
8
BLACK
6
CONTINUOUS
10
1.12678
20
-2.75059
11
1.13975
21
-2.75597
0
LINE
8
BLACK
6
CONTINUOUS
10
1.13975
20
-2.75597
11
1.15324
21
-2.75985
0
LINE
8
BLACK
6
CONTINUOUS
10
1.15324
20
-2.75985
11
1.16708
21
-2.76221
0
LINE
8
BLACK
6
CONTINUOUS
10
1.16708
20
-2.76221
11
1.1811
21
-2.76299
0
LINE
8
BLACK
6
CONTINUOUS
10
1.1811
20
-2.76299
11
1.19512
21
-2.76221
0
LINE
8
BLACK
6
CONTINUOUS
10
1.19512
20
-2.76221
11
1.20896
21
-2.75985
0
LINE
8
BLACK
6
CONTINUOUS
10
1.20896
20
-2.75985
11
1.22245
21
-2.75597
0
LINE
8
BLACK
6
CONTINUOUS
10
1.22245
20
-2.75597
11
1.23542
21
-2.75059
0
LINE
8
BLACK
6
CONTINUOUS
10
1.23542
20
-2.75059
11
1.24771
21
-2.7438
0
LINE
8
BLACK
6
CONTINUOUS
10
1.24771
20
-2.7438
11
1.25916
21
-2.73568
0
LINE
8
BLACK
6
CONTINUOUS
10
1.25916
20
-2.73568
11
1.26963
21
-2.72632
0
LINE
8
BLACK
6
CONTINUOUS
10
1.26963
20
-2.72632
11
1.27899
21
-2.71585
0
LINE
8
BLACK
6
CONTINUOUS
10
1.27899
20
-2.71585
11
1.28711
21
-2.7044
0
LINE
8
BLACK
6
CONTINUOUS
10
1.28711
20
-2.7044
11
1.2939
21
-2.69212
0
LINE
8
BLACK
6
CONTINUOUS
10
1.2939
20
-2.69212
11
1.29927
21
-2.67915
0
LINE
8
BLACK
6
CONTINUOUS
10
1.29927
20
-2.67915
11
1.30316
21
-2.66565
0
LINE
8
BLACK
6
CONTINUOUS
10
1.30316
20
-2.66565
11
1.30551
21
-2.65181
0
LINE
8
BLACK
6
CONTINUOUS
10
1.30551
20
-2.65181
11
1.3063
21
-2.6378
0
LINE
8
BLACK
6
CONTINUOUS
10
1.3063
20
-2.6378
11
1.30551
21
-2.62378
0
LINE
8
BLACK
6
CONTINUOUS
10
1.30551
20
-2.62378
11
1.30316
21
-2.60994
0
LINE
8
BLACK
6
CONTINUOUS
10
1.30316
20
-2.60994
11
1.29927
21
-2.59645
0
LINE
8
BLACK
6
CONTINUOUS
10
1.29927
20
-2.59645
11
1.2939
21
-2.58347
0
LINE
8
BLACK
6
CONTINUOUS
10
1.2939
20
-2.58347
11
1.28711
21
-2.57119
0
LINE
8
BLACK
6
CONTINUOUS
10
1.28711
20
-2.57119
11
1.27899
21
-2.55974
0
LINE
8
BLACK
6
CONTINUOUS
10
1.27899
20
-2.55974
11
1.26963
21
-2.54927
0
LINE
8
BLACK
6
CONTINUOUS
10
1.26963
20
-2.54927
11
1.25916
21
-2.53991
0
LINE
8
BLACK
6
CONTINUOUS
10
1.25916
20
-2.53991
11
1.24771
21
-2.53179
0
LINE
8
BLACK
6
CONTINUOUS
10
1.24771
20
-2.53179
11
1.23542
21
-2.525
0
LINE
8
BLACK
6
CONTINUOUS
10
1.23542
20
-2.525
11
1.22245
21
-2.51962
0
LINE
8
BLACK
6
CONTINUOUS
10
1.22245
20
-2.51962
11
1.20896
21
-2.51574
0
LINE
8
BLACK
6
CONTINUOUS
10
1.20896
20
-2.51574
11
1.19512
21
-2.51339
0
LINE
8
BLACK
6
CONTINUOUS
10
1.19512
20
-2.51339
11
1.1811
21
-2.5126
0
LINE
8
BLACK
6
CONTINUOUS
10
1.1811
20
-2.5126
11
1.16708
21
-2.51339
0
LINE
8
BLACK
6
CONTINUOUS
10
1.16708
20
-2.51339
11
1.15324
21
-2.51574
0
LINE
8
BLACK
6
CONTINUOUS
10
1.15324
20
-2.51574
11
1.13975
21
-2.51962
0
LINE
8
BLACK
6
CONTINUOUS
10
1.13975
20
-2.51962
11
1.12678
21
-2.525
0
LINE
8
BLACK
6
CONTINUOUS
10
1.12678
20
-2.525
11
1.11449
21
-2.53179
0
LINE
8
BLACK
6
CONTINUOUS
10
1.11449
20
-2.53179
11
1.10304
21
-2.53991
0
LINE
8
BLACK
6
CONTINUOUS
10
1.10304
20
-2.53991
11
1.09257
21
-2.54927
0
LINE
8
BLACK
6
CONTINUOUS
10
1.09257
20
-2.54927
11
1.08322
21
-2.55974
0
LINE
8
BLACK
6
CONTINUOUS
10
1.08322
20
-2.55974
11
1.0751
21
-2.57119
0
LINE
8
BLACK
6
CONTINUOUS
10
1.0751
20
-2.57119
11
1.0683
21
-2.58347
0
LINE
8
BLACK
6
CONTINUOUS
10
1.0683
20
-2.58347
11
1.06293
21
-2.59645
0
LINE
8
BLACK
6
CONTINUOUS
10
1.06293
20
-2.59645
11
1.05904
21
-2.60994
0
LINE
8
BLACK
6
CONTINUOUS
10
1.05904
20
-2.60994
11
1.05669
21
-2.62378
0
LINE
8
BLACK
6
CONTINUOUS
10
1.05669
20
-2.62378
11
1.05591
21
-2.6378
0
LINE
8
BLACK
6
CONTINUOUS
10
1.05591
20
-2.6378
11
1.05669
21
-2.65181
0
LINE
8
BLACK
6
CONTINUOUS
10
1.37795
20
-2.49114
11
1.37865
21
-2.49143
0
LINE
8
BLACK
6
CONTINUOUS
10
1.37865
20
-2.49143
11
1.37894
21
-2.49213
0
LINE
8
BLACK
6
CONTINUOUS
10
1.37894
20
-2.49213
11
1.37894
21
-2.78346
0
LINE
8
BLACK
6
CONTINUOUS
10
1.37894
20
-2.78346
11
1.37865
21
-2.78416
0
LINE
8
BLACK
6
CONTINUOUS
10
1.37865
20
-2.78416
11
1.37795
21
-2.78445
0
LINE
8
BLACK
6
CONTINUOUS
10
1.37795
20
-2.78445
11
0.984252
21
-2.78445
0
LINE
8
BLACK
6
CONTINUOUS
10
0.984252
20
-2.78445
11
0.983556
21
-2.78416
0
LINE
8
BLACK
6
CONTINUOUS
10
0.983556
20
-2.78416
11
0.983268
21
-2.78346
0
LINE
8
BLACK
6
CONTINUOUS
10
0.983268
20
-2.78346
11
0.983268
21
-2.49213
0
LINE
8
BLACK
6
CONTINUOUS
10
0.983268
20
-2.49213
11
0.983556
21
-2.49143
0
LINE
8
BLACK
6
CONTINUOUS
10
0.983556
20
-2.49143
11
0.984252
21
-2.49114
0
LINE
8
BLACK
6
CONTINUOUS
10
0.984252
20
-2.49114
11
1.37795
21
-2.49114
0
LINE
8
BLACK
6
CONTINUOUS
10
0.985236
20
-2.49311
11
0.985236
21
-2.78248
0
LINE
8
BLACK
6
CONTINUOUS
10
0.985236
20
-2.78248
11
1.37697
21
-2.78248
0
LINE
8
BLACK
6
CONTINUOUS
10
1.37697
20
-2.78248
11
1.37697
21
-2.49311
0
LINE
8
BLACK
6
CONTINUOUS
10
1.37697
20
-2.49311
11
0.985236
21
-2.49311
0
LINE
8
BLACK
6
CONTINUOUS
10
4.14807
20
-2.51163
11
4.16211
21
-2.51401
0
LINE
8
BLACK
6
CONTINUOUS
10
4.16211
20
-2.51401
11
4.17579
21
-2.51795
0
LINE
8
BLACK
6
CONTINUOUS
10
4.17579
20
-2.51795
11
4.18895
21
-2.5234
0
LINE
8
BLACK
6
CONTINUOUS
10
4.18895
20
-2.5234
11
4.20141
21
-2.53029
0
LINE
8
BLACK
6
CONTINUOUS
10
4.20141
20
-2.53029
11
4.21302
21
-2.53853
0
LINE
8
BLACK
6
CONTINUOUS
10
4.21302
20
-2.53853
11
4.22364
21
-2.54801
0
LINE
8
BLACK
6
CONTINUOUS
10
4.22364
20
-2.54801
11
4.23313
21
-2.55863
0
LINE
8
BLACK
6
CONTINUOUS
10
4.23313
20
-2.55863
11
4.24137
21
-2.57024
0
LINE
8
BLACK
6
CONTINUOUS
10
4.24137
20
-2.57024
11
4.24825
21
-2.58271
0
LINE
8
BLACK
6
CONTINUOUS
10
4.24825
20
-2.58271
11
4.2537
21
-2.59586
0
LINE
8
BLACK
6
CONTINUOUS
10
4.2537
20
-2.59586
11
4.25764
21
-2.60954
0
LINE
8
BLACK
6
CONTINUOUS
10
4.25764
20
-2.60954
11
4.26003
21
-2.62358
0
LINE
8
BLACK
6
CONTINUOUS
10
4.26003
20
-2.62358
11
4.26083
21
-2.6378
0
LINE
8
BLACK
6
CONTINUOUS
10
4.26083
20
-2.6378
11
4.26003
21
-2.65201
0
LINE
8
BLACK
6
CONTINUOUS
10
4.26003
20
-2.65201
11
4.25764
21
-2.66605
0
LINE
8
BLACK
6
CONTINUOUS
10
4.25764
20
-2.66605
11
4.2537
21
-2.67973
0
LINE
8
BLACK
6
CONTINUOUS
10
4.2537
20
-2.67973
11
4.24825
21
-2.69288
0
LINE
8
BLACK
6
CONTINUOUS
10
4.24825
20
-2.69288
11
4.24137
21
-2.70535
0
LINE
8
BLACK
6
CONTINUOUS
10
4.24137
20
-2.70535
11
4.23313
21
-2.71696
0
LINE
8
BLACK
6
CONTINUOUS
10
4.23313
20
-2.71696
11
4.22364
21
-2.72758
0
LINE
8
BLACK
6
CONTINUOUS
10
4.22364
20
-2.72758
11
4.21302
21
-2.73706
0
LINE
8
BLACK
6
CONTINUOUS
10
4.21302
20
-2.73706
11
4.20141
21
-2.7453
0
LINE
8
BLACK
6
CONTINUOUS
10
4.20141
20
-2.7453
11
4.18895
21
-2.75219
0
LINE
8
BLACK
6
CONTINUOUS
10
4.18895
20
-2.75219
11
4.17579
21
-2.75764
0
LINE
8
BLACK
6
CONTINUOUS
10
4.17579
20
-2.75764
11
4.16211
21
-2.76158
0
LINE
8
BLACK
6
CONTINUOUS
10
4.16211
20
-2.76158
11
4.14807
21
-2.76397
0
LINE
8
BLACK
6
CONTINUOUS
10
4.14807
20
-2.76397
11
4.13386
21
-2.76476
0
LINE
8
BLACK
6
CONTINUOUS
10
4.13386
20
-2.76476
11
4.11964
21
-2.76397
0
LINE
8
BLACK
6
CONTINUOUS
10
4.11964
20
-2.76397
11
4.10561
21
-2.76158
0
LINE
8
BLACK
6
CONTINUOUS
10
4.10561
20
-2.76158
11
4.09192
21
-2.75764
0
LINE
8
BLACK
6
CONTINUOUS
10
4.09192
20
-2.75764
11
4.07877
21
-2.75219
0
LINE
8
BLACK
6
CONTINUOUS
10
4.07877
20
-2.75219
11
4.06631
21
-2.7453
0
LINE
8
BLACK
6
CONTINUOUS
10
4.06631
20
-2.7453
11
4.05469
21
-2.73706
0
LINE
8
BLACK
6
CONTINUOUS
10
4.05469
20
-2.73706
11
4.04408
21
-2.72758
0
LINE
8
BLACK
6
CONTINUOUS
10
4.04408
20
-2.72758
11
4.03459
21
-2.71696
0
LINE
8
BLACK
6
CONTINUOUS
10
4.03459
20
-2.71696
11
4.02635
21
-2.70535
0
LINE
8
BLACK
6
CONTINUOUS
10
4.02635
20
-2.70535
11
4.01946
21
-2.69288
0
LINE
8
BLACK
6
CONTINUOUS
10
4.01946
20
-2.69288
11
4.01401
21
-2.67973
0
LINE
8
BLACK
6
CONTINUOUS
10
4.01401
20
-2.67973
11
4.01007
21
-2.66605
0
LINE
8
BLACK
6
CONTINUOUS
10
4.01007
20
-2.66605
11
4.00769
21
-2.65201
0
LINE
8
BLACK
6
CONTINUOUS
10
4.00769
20
-2.65201
11
4.00689
21
-2.6378
0
LINE
8
BLACK
6
CONTINUOUS
10
4.00689
20
-2.6378
11
4.00769
21
-2.62358
0
LINE
8
BLACK
6
CONTINUOUS
10
4.00769
20
-2.62358
11
4.01007
21
-2.60954
0
LINE
8
BLACK
6
CONTINUOUS
10
4.01007
20
-2.60954
11
4.01401
21
-2.59586
0
LINE
8
BLACK
6
CONTINUOUS
10
4.01401
20
-2.59586
11
4.01946
21
-2.58271
0
LINE
8
BLACK
6
CONTINUOUS
10
4.01946
20
-2.58271
11
4.02635
21
-2.57024
0
LINE
8
BLACK
6
CONTINUOUS
10
4.02635
20
-2.57024
11
4.03459
21
-2.55863
0
LINE
8
BLACK
6
CONTINUOUS
10
4.03459
20
-2.55863
11
4.04408
21
-2.54801
0
LINE
8
BLACK
6
CONTINUOUS
10
4.04408
20
-2.54801
11
4.05469
21
-2.53853
0
LINE
8
BLACK
6
CONTINUOUS
10
4.05469
20
-2.53853
11
4.06631
21
-2.53029
0
LINE
8
BLACK
6
CONTINUOUS
10
4.06631
20
-2.53029
11
4.07877
21
-2.5234
0
LINE
8
BLACK
6
CONTINUOUS
10
4.07877
20
-2.5234
11
4.09192
21
-2.51795
0
LINE
8
BLACK
6
CONTINUOUS
10
4.09192
20
-2.51795
11
4.10561
21
-2.51401
0
LINE
8
BLACK
6
CONTINUOUS
10
4.10561
20
-2.51401
11
4.11964
21
-2.51163
0
LINE
8
BLACK
6
CONTINUOUS
10
4.11964
20
-2.51163
11
4.13386
21
-2.51083
0
LINE
8
BLACK
6
CONTINUOUS
10
4.13386
20
-2.51083
11
4.14807
21
-2.51163
0
LINE
8
BLACK
6
CONTINUOUS
10
4.00945
20
-2.65181
11
4.0118
21
-2.66565
0
LINE
8
BLACK
6
CONTINUOUS
10
4.0118
20
-2.66565
11
4.01569
21
-2.67915
0
LINE
8
BLACK
6
CONTINUOUS
10
4.01569
20
-2.67915
11
4.02106
21
-2.69212
0
LINE
8
BLACK
6
CONTINUOUS
10
4.02106
20
-2.69212
11
4.02785
21
-2.7044
0
LINE
8
BLACK
6
CONTINUOUS
10
4.02785
20
-2.7044
11
4.03598
21
-2.71585
0
LINE
8
BLACK
6
CONTINUOUS
10
4.03598
20
-2.71585
11
4.04533
21
-2.72632
0
LINE
8
BLACK
6
CONTINUOUS
10
4.04533
20
-2.72632
11
4.0558
21
-2.73568
0
LINE
8
BLACK
6
CONTINUOUS
10
4.0558
20
-2.73568
11
4.06725
21
-2.7438
0
LINE
8
BLACK
6
CONTINUOUS
10
4.06725
20
-2.7438
11
4.07954
21
-2.75059
0
LINE
8
BLACK
6
CONTINUOUS
10
4.07954
20
-2.75059
11
4.09251
21
-2.75597
0
LINE
8
BLACK
6
CONTINUOUS
10
4.09251
20
-2.75597
11
4.106
21
-2.75985
0
LINE
8
BLACK
6
CONTINUOUS
10
4.106
20
-2.75985
11
4.11984
21
-2.76221
0
LINE
8
BLACK
6
CONTINUOUS
10
4.11984
20
-2.76221
11
4.13386
21
-2.76299
0
LINE
8
BLACK
6
CONTINUOUS
10
4.13386
20
-2.76299
11
4.14788
21
-2.76221
0
LINE
8
BLACK
6
CONTINUOUS
10
4.14788
20
-2.76221
11
4.16172
21
-2.75985
0
LINE
8
BLACK
6
CONTINUOUS
10
4.16172
20
-2.75985
11
4.17521
21
-2.75597
0
LINE
8
BLACK
6
CONTINUOUS
10
4.17521
20
-2.75597
11
4.18818
21
-2.75059
0
LINE
8
BLACK
6
CONTINUOUS
10
4.18818
20
-2.75059
11
4.20047
21
-2.7438
0
LINE
8
BLACK
6
CONTINUOUS
10
4.20047
20
-2.7438
11
4.21192
21
-2.73568
0
LINE
8
BLACK
6
CONTINUOUS
10
4.21192
20
-2.73568
11
4.22239
21
-2.72632
0
LINE
8
BLACK
6
CONTINUOUS
10
4.22239
20
-2.72632
11
4.23174
21
-2.71585
0
LINE
8
BLACK
6
CONTINUOUS
10
4.23174
20
-2.71585
11
4.23987
21
-2.7044
0
LINE
8
BLACK
6
CONTINUOUS
10
4.23987
20
-2.7044
11
4.24666
21
-2.69212
0
LINE
8
BLACK
6
CONTINUOUS
10
4.24666
20
-2.69212
11
4.25203
21
-2.67915
0
LINE
8
BLACK
6
CONTINUOUS
10
4.25203
20
-2.67915
11
4.25592
21
-2.66565
0
LINE
8
BLACK
6
CONTINUOUS
10
4.25592
20
-2.66565
11
4.25827
21
-2.65181
0
LINE
8
BLACK
6
CONTINUOUS
10
4.25827
20
-2.65181
11
4.25906
21
-2.6378
0
LINE
8
BLACK
6
CONTINUOUS
10
4.25906
20
-2.6378
11
4.25827
21
-2.62378
0
LINE
8
BLACK
6
CONTINUOUS
10
4.25827
20
-2.62378
11
4.25592
21
-2.60994
0
LINE
8
BLACK
6
CONTINUOUS
10
4.25592
20
-2.60994
11
4.25203
21
-2.59645
0
LINE
8
BLACK
6
CONTINUOUS
10
4.25203
20
-2.59645
11
4.24666
21
-2.58347
0
LINE
8
BLACK
6
CONTINUOUS
10
4.24666
20
-2.58347
11
4.23987
21
-2.57119
0
LINE
8
BLACK
6
CONTINUOUS
10
4.23987
20
-2.57119
11
4.23174
21
-2.55974
0
LINE
8
BLACK
6
CONTINUOUS
10
4.23174
20
-2.55974
11
4.22239
21
-2.54927
0
LINE
8
BLACK
6
CONTINUOUS
10
4.22239
20
-2.54927
11
4.21192
21
-2.53991
0
LINE
8
BLACK
6
CONTINUOUS
10
4.21192
20
-2.53991
11
4.20047
21
-2.53179
0
LINE
8
BLACK
6
CONTINUOUS
10
4.20047
20
-2.53179
11
4.18818
21
-2.525
0
LINE
8
BLACK
6
CONTINUOUS
10
4.18818
20
-2.525
11
4.17521
21
-2.51962
0
LINE
8
BLACK
6
CONTINUOUS
10
4.17521
20
-2.51962
11
4.16172
21
-2.51574
0
LINE
8
BLACK
6
CONTINUOUS
10
4.16172
20
-2.51574
11
4.14788
21
-2.51339
0
LINE
8
BLACK
6
CONTINUOUS
10
4.14788
20
-2.51339
11
4.13386
21
-2.5126
0
LINE
8
BLACK
6
CONTINUOUS
10
4.13386
20
-2.5126
11
4.11984
21
-2.51339
0
LINE
8
BLACK
6
CONTINUOUS
10
4.11984
20
-2.51339
11
4.106
21
-2.51574
0
LINE
8
BLACK
6
CONTINUOUS
10
4.106
20
-2.51574
11
4.09251
21
-2.51962
0
LINE
8
BLACK
6
CONTINUOUS
10
4.09251
20
-2.51962
11
4.07954
21
-2.525
0
LINE
8
BLACK
6
CONTINUOUS
10
4.07954
20
-2.525
11
4.06725
21
-2.53179
0
LINE
8
BLACK
6
CONTINUOUS
10
4.06725
20
-2.53179
11
4.0558
21
-2.53991
0
LINE
8
BLACK
6
CONTINUOUS
10
4.0558
20
-2.53991
11
4.04533
21
-2.54927
0
LINE
8
BLACK
6
CONTINUOUS
10
4.04533
20
-2.54927
11
4.03598
21
-2.55974
0
LINE
8
BLACK
6
CONTINUOUS
10
4.03598
20
-2.55974
11
4.02785
21
-2.57119
0
LINE
8
BLACK
6
CONTINUOUS
10
4.02785
20
-2.57119
11
4.02106
21
-2.58347
0
LINE
8
BLACK
6
CONTINUOUS
10
4.02106
20
-2.58347
11
4.01569
21
-2.59645
0
LINE
8
BLACK
6
CONTINUOUS
10
4.01569
20
-2.59645
11
4.0118
21
-2.60994
0
LINE
8
BLACK
6
CONTINUOUS
10
4.0118
20
-2.60994
11
4.00945
21
-2.62378
0
LINE
8
BLACK
6
CONTINUOUS
10
4.00945
20
-2.62378
11
4.00866
21
-2.6378
0
LINE
8
BLACK
6
CONTINUOUS
10
4.00866
20
-2.6378
11
4.00945
21
-2.65181
0
LINE
8
BLACK
6
CONTINUOUS
10
4.33071
20
-2.49114
11
4.3314
21
-2.49143
0
LINE
8
BLACK
6
CONTINUOUS
10
4.3314
20
-2.49143
11
4.33169
21
-2.49213
0
LINE
8
BLACK
6
CONTINUOUS
10
4.33169
20
-2.49213
11
4.33169
21
-2.78346
0
LINE
8
BLACK
6
CONTINUOUS
10
4.33169
20
-2.78346
11
4.3314
21
-2.78416
0
LINE
8
BLACK
6
CONTINUOUS
10
4.3314
20
-2.78416
11
4.33071
21
-2.78445
0
LINE
8
BLACK
6
CONTINUOUS
10
4.33071
20
-2.78445
11
3.93701
21
-2.78445
0
LINE
8
BLACK
6
CONTINUOUS
10
3.93701
20
-2.78445
11
3.93631
21
-2.78416
0
LINE
8
BLACK
6
CONTINUOUS
10
3.93631
20
-2.78416
11
3.93602
21
-2.78346
0
LINE
8
BLACK
6
CONTINUOUS
10
3.93602
20
-2.78346
11
3.93602
21
-2.49213
0
LINE
8
BLACK
6
CONTINUOUS
10
3.93602
20
-2.49213
11
3.93631
21
-2.49143
0
LINE
8
BLACK
6
CONTINUOUS
10
3.93631
20
-2.49143
11
3.93701
21
-2.49114
0
LINE
8
BLACK
6
CONTINUOUS
10
3.93701
20
-2.49114
11
4.33071
21
-2.49114
0
LINE
8
BLACK
6
CONTINUOUS
10
3.93799
20
-2.49311
11
3.93799
21
-2.78248
0
LINE
8
BLACK
6
CONTINUOUS
10
3.93799
20
-2.78248
11
4.32972
21
-2.78248
0
LINE
8
BLACK
6
CONTINUOUS
10
4.32972
20
-2.78248
11
4.32972
21
-2.49311
0
LINE
8
BLACK
6
CONTINUOUS
10
4.32972
20
-2.49311
11
3.93799
21
-2.49311
0
LINE
8
BLACK
6
CONTINUOUS
10
7.10083
20
-2.51163
11
7.11487
21
-2.51401
0
LINE
8
BLACK
6
CONTINUOUS
10
7.11487
20
-2.51401
11
7.12855
21
-2.51795
0
LINE
8
BLACK
6
CONTINUOUS
10
7.12855
20
-2.51795
11
7.1417
21
-2.5234
0
LINE
8
BLACK
6
CONTINUOUS
10
7.1417
20
-2.5234
11
7.15417
21
-2.53029
0
LINE
8
BLACK
6
CONTINUOUS
10
7.15417
20
-2.53029
11
7.16578
21
-2.53853
0
LINE
8
BLACK
6
CONTINUOUS
10
7.16578
20
-2.53853
11
7.17639
21
-2.54801
0
LINE
8
BLACK
6
CONTINUOUS
10
7.17639
20
-2.54801
11
7.18588
21
-2.55863
0
LINE
8
BLACK
6
CONTINUOUS
10
7.18588
20
-2.55863
11
7.19412
21
-2.57024
0
LINE
8
BLACK
6
CONTINUOUS
10
7.19412
20
-2.57024
11
7.20101
21
-2.58271
0
LINE
8
BLACK
6
CONTINUOUS
10
7.20101
20
-2.58271
11
7.20646
21
-2.59586
0
LINE
8
BLACK
6
CONTINUOUS
10
7.20646
20
-2.59586
11
7.2104
21
-2.60954
0
LINE
8
BLACK
6
CONTINUOUS
10
7.2104
20
-2.60954
11
7.21278
21
-2.62358
0
LINE
8
BLACK
6
CONTINUOUS
10
7.21278
20
-2.62358
11
7.21358
21
-2.6378
0
LINE
8
BLACK
6
CONTINUOUS
10
7.21358
20
-2.6378
11
7.21278
21
-2.65201
0
LINE
8
BLACK
6
CONTINUOUS
10
7.21278
20
-2.65201
11
7.2104
21
-2.66605
0
LINE
8
BLACK
6
CONTINUOUS
10
7.2104
20
-2.66605
11
7.20646
21
-2.67973
0
LINE
8
BLACK
6
CONTINUOUS
10
7.20646
20
-2.67973
11
7.20101
21
-2.69288
0
LINE
8
BLACK
6
CONTINUOUS
10
7.20101
20
-2.69288
11
7.19412
21
-2.70535
0
LINE
8
BLACK
6
CONTINUOUS
10
7.19412
20
-2.70535
11
7.18588
21
-2.71696
0
LINE
8
BLACK
6
CONTINUOUS
10
7.18588
20
-2.71696
11
7.17639
21
-2.72758
0
LINE
8
BLACK
6
CONTINUOUS
10
7.17639
20
-2.72758
11
7.16578
21
-2.73706
0
LINE
8
BLACK
6
CONTINUOUS
10
7.16578
20
-2.73706
11
7.15417
21
-2.7453
0
LINE
8
BLACK
6
CONTINUOUS
10
7.15417
20
-2.7453
11
7.1417
21
-2.75219
0
LINE
8
BLACK
6
CONTINUOUS
10
7.1417
20
-2.75219
11
7.12855
21
-2.75764
0
LINE
8
BLACK
6
CONTINUOUS
10
7.12855
20
-2.75764
11
7.11487
21
-2.76158
0
LINE
8
BLACK
6
CONTINUOUS
10
7.11487
20
-2.76158
11
7.10083
21
-2.76397
0
LINE
8
BLACK
6
CONTINUOUS
10
7.10083
20
-2.76397
11
7.08661
21
-2.76476
0
LINE
8
BLACK
6
CONTINUOUS
10
7.08661
20
-2.76476
11
7.0724
21
-2.76397
0
LINE
8
BLACK
6
CONTINUOUS
10
7.0724
20
-2.76397
11
7.05836
21
-2.76158
0
LINE
8
BLACK
6
CONTINUOUS
10
7.05836
20
-2.76158
11
7.04468
21
-2.75764
0
LINE
8
BLACK
6
CONTINUOUS
10
7.04468
20
-2.75764
11
7.03152
21
-2.75219
0
LINE
8
BLACK
6
CONTINUOUS
10
7.03152
20
-2.75219
11
7.01906
21
-2.7453
0
LINE
8
BLACK
6
CONTINUOUS
10
7.01906
20
-2.7453
11
7.00745
21
-2.73706
0
LINE
8
BLACK
6
CONTINUOUS
10
7.00745
20
-2.73706
11
6.99683
21
-2.72758
0
LINE
8
BLACK
6
CONTINUOUS
10
6.99683
20
-2.72758
11
6.98735
21
-2.71696
0
LINE
8
BLACK
6
CONTINUOUS
10
6.98735
20
-2.71696
11
6.97911
21
-2.70535
0
LINE
8
BLACK
6
CONTINUOUS
10
6.97911
20
-2.70535
11
6.97222
21
-2.69288
0
LINE
8
BLACK
6
CONTINUOUS
10
6.97222
20
-2.69288
11
6.96677
21
-2.67973
0
LINE
8
BLACK
6
CONTINUOUS
10
6.96677
20
-2.67973
11
6.96283
21
-2.66605
0
LINE
8
BLACK
6
CONTINUOUS
10
6.96283
20
-2.66605
11
6.96044
21
-2.65201
0
LINE
8
BLACK
6
CONTINUOUS
10
6.96044
20
-2.65201
11
6.95965
21
-2.6378
0
LINE
8
BLACK
6
CONTINUOUS
10
6.95965
20
-2.6378
11
6.96044
21
-2.62358
0
LINE
8
BLACK
6
CONTINUOUS
10
6.96044
20
-2.62358
11
6.96283
21
-2.60954
0
LINE
8
BLACK
6
CONTINUOUS
10
6.96283
20
-2.60954
11
6.96677
21
-2.59586
0
LINE
8
BLACK
6
CONTINUOUS
10
6.96677
20
-2.59586
11
6.97222
21
-2.58271
0
LINE
8
BLACK
6
CONTINUOUS
10
6.97222
20
-2.58271
11
6.97911
21
-2.57024
0
LINE
8
BLACK
6
CONTINUOUS
10
6.97911
20
-2.57024
11
6.98735
21
-2.55863
0
LINE
8
BLACK
6
CONTINUOUS
10
6.98735
20
-2.55863
11
6.99683
21
-2.54801
0
LINE
8
BLACK
6
CONTINUOUS
10
6.99683
20
-2.54801
11
7.00745
21
-2.53853
0
LINE
8
BLACK
6
CONTINUOUS
10
7.00745
20
-2.53853
11
7.01906
21
-2.53029
0
LINE
8
BLACK
6
CONTINUOUS
10
7.01906
20
-2.53029
11
7.03152
21
-2.5234
0
LINE
8
BLACK
6
CONTINUOUS
10
7.03152
20
-2.5234
11
7.04468
21
-2.51795
0
LINE
8
BLACK
6
CONTINUOUS
10
7.04468
20
-2.51795
11
7.05836
21
-2.51401
0
LINE
8
BLACK
6
CONTINUOUS
10
7.05836
20
-2.51401
11
7.0724
21
-2.51163
0
LINE
8
BLACK
6
CONTINUOUS
10
7.0724
20
-2.51163
11
7.08661
21
-2.51083
0
LINE
8
BLACK
6
CONTINUOUS
10
7.08661
20
-2.51083
11
7.10083
21
-2.51163
0
LINE
8
BLACK
6
CONTINUOUS
10
6.9622
20
-2.65181
11
6.96456
21
-2.66565
0
LINE
8
BLACK
6
CONTINUOUS
10
6.96456
20
-2.66565
11
6.96844
21
-2.67915
0
LINE
8
BLACK
6
CONTINUOUS
10
6.96844
20
-2.67915
11
6.97382
21
-2.69212
0
LINE
8
BLACK
6
CONTINUOUS
10
6.97382
20
-2.69212
11
6.98061
21
-2.7044
0
LINE
8
BLACK
6
CONTINUOUS
10
6.98061
20
-2.7044
11
6.98873
21
-2.71585
0
LINE
8
BLACK
6
CONTINUOUS
10
6.98873
20
-2.71585
11
6.99809
21
-2.72632
0
LINE
8
BLACK
6
CONTINUOUS
10
6.99809
20
-2.72632
11
7.00856
21
-2.73568
0
LINE
8
BLACK
6
CONTINUOUS
10
7.00856
20
-2.73568
11
7.02001
21
-2.7438
0
LINE
8
BLACK
6
CONTINUOUS
10
7.02001
20
-2.7438
11
7.03229
21
-2.75059
0
LINE
8
BLACK
6
CONTINUOUS
10
7.03229
20
-2.75059
11
7.04526
21
-2.75597
0
LINE
8
BLACK
6
CONTINUOUS
10
7.04526
20
-2.75597
11
7.05876
21
-2.75985
0
LINE
8
BLACK
6
CONTINUOUS
10
7.05876
20
-2.75985
11
7.0726
21
-2.76221
0
LINE
8
BLACK
6
CONTINUOUS
10
7.0726
20
-2.76221
11
7.08661
21
-2.76299
0
LINE
8
BLACK
6
CONTINUOUS
10
7.08661
20
-2.76299
11
7.10063
21
-2.76221
0
LINE
8
BLACK
6
CONTINUOUS
10
7.10063
20
-2.76221
11
7.11447
21
-2.75985
0
LINE
8
BLACK
6
CONTINUOUS
10
7.11447
20
-2.75985
11
7.12796
21
-2.75597
0
LINE
8
BLACK
6
CONTINUOUS
10
7.12796
20
-2.75597
11
7.14094
21
-2.75059
0
LINE
8
BLACK
6
CONTINUOUS
10
7.14094
20
-2.75059
11
7.15322
21
-2.7438
0
LINE
8
BLACK
6
CONTINUOUS
10
7.15322
20
-2.7438
11
7.16467
21
-2.73568
0
LINE
8
BLACK
6
CONTINUOUS
10
7.16467
20
-2.73568
11
7.17514
21
-2.72632
0
LINE
8
BLACK
6
CONTINUOUS
10
7.17514
20
-2.72632
11
7.1845
21
-2.71585
0
LINE
8
BLACK
6
CONTINUOUS
10
7.1845
20
-2.71585
11
7.19262
21
-2.7044
0
LINE
8
BLACK
6
CONTINUOUS
10
7.19262
20
-2.7044
11
7.19941
21
-2.69212
0
LINE
8
BLACK
6
CONTINUOUS
10
7.19941
20
-2.69212
11
7.20479
21
-2.67915
0
LINE
8
BLACK
6
CONTINUOUS
10
7.20479
20
-2.67915
11
7.20867
21
-2.66565
0
LINE
8
BLACK
6
CONTINUOUS
10
7.20867
20
-2.66565
11
7.21102
21
-2.65181
0
LINE
8
BLACK
6
CONTINUOUS
10
7.21102
20
-2.65181
11
7.21181
21
-2.6378
0
LINE
8
BLACK
6
CONTINUOUS
10
7.21181
20
-2.6378
11
7.21102
21
-2.62378
0
LINE
8
BLACK
6
CONTINUOUS
10
7.21102
20
-2.62378
11
7.20867
21
-2.60994
0
LINE
8
BLACK
6
CONTINUOUS
10
7.20867
20
-2.60994
11
7.20479
21
-2.59645
0
LINE
8
BLACK
6
CONTINUOUS
10
7.20479
20
-2.59645
11
7.19941
21
-2.58347
0
LINE
8
BLACK
6
CONTINUOUS
10
7.19941
20
-2.58347
11
7.19262
21
-2.57119
0
LINE
8
BLACK
6
CONTINUOUS
10
7.19262
20
-2.57119
11
7.1845
21
-2.55974
0
LINE
8
BLACK
6
CONTINUOUS
10
7.1845
20
-2.55974
11
7.17514
21
-2.54927
0
LINE
8
BLACK
6
CONTINUOUS
10
7.17514
20
-2.54927
11
7.16467
21
-2.53991
0
LINE
8
BLACK
6
CONTINUOUS
10
7.16467
20
-2.53991
11
7.15322
21
-2.53179
0
LINE
8
BLACK
6
CONTINUOUS
10
7.15322
20
-2.53179
11
7.14094
21
-2.525
0
LINE
8
BLACK
6
CONTINUOUS
10
7.14094
20
-2.525
11
7.12796
21
-2.51962
0
LINE
8
BLACK
6
CONTINUOUS
10
7.12796
20
-2.51962
11
7.11447
21
-2.51574
0
LINE
8
BLACK
6
CONTINUOUS
10
7.11447
20
-2.51574
11
7.10063
21
-2.51339
0
LINE
8
BLACK
6
CONTINUOUS
10
7.10063
20
-2.51339
11
7.08661
21
-2.5126
0
LINE
8
BLACK
6
CONTINUOUS
10
7.08661
20
-2.5126
11
7.0726
21
-2.51339
0
LINE
8
BLACK
6
CONTINUOUS
10
7.0726
20
-2.51339
11
7.05876
21
-2.51574
0
LINE
8
BLACK
6
CONTINUOUS
10
7.05876
20
-2.51574
11
7.04526
21
-2.51962
0
LINE
8
BLACK
6
CONTINUOUS
10
7.04526
20
-2.51962
11
7.03229
21
-2.525
0
LINE
8
BLACK
6
CONTINUOUS
10
7.03229
20
-2.525
11
7.02001
21
-2.53179
0
LINE
8
BLACK
6
CONTINUOUS
10
7.02001
20
-2.53179
11
7.00856
21
-2.53991
0
LINE
8
BLACK
6
CONTINUOUS
10
7.00856
20
-2.53991
11
6.99809
21
-2.54927
0
LINE
8
BLACK
6
CONTINUOUS
10
6.99809
20
-2.54927
11
6.98873
21
-2.55974
0
LINE
8
BLACK
6
CONTINUOUS
10
6.98873
20
-2.55974
11
6.98061
21
-2.57119
0
LINE
8
BLACK
6
CONTINUOUS
10
6.98061
20
-2.57119
11
6.97382
21
-2.58347
0
LINE
8
BLACK
6
CONTINUOUS
10
6.97382
20
-2.58347
11
6.96844
21
-2.59645
0
LINE
8
BLACK
6
CONTINUOUS
10
6.96844
20
-2.59645
11
6.96456
21
-2.60994
0
LINE
8
BLACK
6
CONTINUOUS
10
6.96456
20
-2.60994
11
6.9622
21
-2.62378
0
LINE
8
BLACK
6
CONTINUOUS
10
6.9622
20
-2.62378
11
6.96142
21
-2.6378
0
LINE
8
BLACK
6
CONTINUOUS
10
6.96142
20
-2.6378
11
6.9622
21
-2.65181
0
LINE
8
BLACK
6
CONTINUOUS
10
7.28346
20
-2.49114
11
7.28416
21
-2.49143
0
LINE
8
BLACK
6
CONTINUOUS
10
7.28416
20
-2.49143
11
7.28445
21
-2.49213
0
LINE
8
BLACK
6
CONTINUOUS
10
7.28445
20
-2.49213
11
7.28445
21
-2.78346
0
LINE
8
BLACK
6
CONTINUOUS
10
7.28445
20
-2.78346
11
7.28416
21
-2.78416
0
LINE
8
BLACK
6
CONTINUOUS
10
7.28416
20
-2.78416
11
7.28346
21
-2.78445
0
LINE
8
BLACK
6
CONTINUOUS
10
7.28346
20
-2.78445
11
6.88976
21
-2.78445
0
LINE
8
BLACK
6
CONTINUOUS
10
6.88976
20
-2.78445
11
6.88907
21
-2.78416
0
LINE
8
BLACK
6
CONTINUOUS
10
6.88907
20
-2.78416
11
6.88878
21
-2.78346
0
LINE
8
BLACK
6
CONTINUOUS
10
6.88878
20
-2.78346
11
6.88878
21
-2.49213
0
LINE
8
BLACK
6
CONTINUOUS
10
6.88878
20
-2.49213
11
6.88907
21
-2.49143
0
LINE
8
BLACK
6
CONTINUOUS
10
6.88907
20
-2.49143
11
6.88976
21
-2.49114
0
LINE
8
BLACK
6
CONTINUOUS
10
6.88976
20
-2.49114
11
7.28346
21
-2.49114
0
LINE
8
BLACK
6
CONTINUOUS
10
6.89075
20
-2.49311
11
6.89075
21
-2.78248
0
LINE
8
BLACK
6
CONTINUOUS
10
6.89075
20
-2.78248
11
7.28248
21
-2.78248
0
LINE
8
BLACK
6
CONTINUOUS
10
7.28248
20
-2.78248
11
7.28248
21
-2.49311
0
LINE
8
BLACK
6
CONTINUOUS
10
7.28248
20
-2.49311
11
6.89075
21
-2.49311
0
LINE
8
BLACK
6
CONTINUOUS
10
1.67323
20
-2.53839
11
1.67392
21
-2.53867
0
LINE
8
BLACK
6
CONTINUOUS
10
1.67392
20
-2.53867
11
1.67421
21
-2.53937
0
LINE
8
BLACK
6
CONTINUOUS
10
1.67421
20
-2.53937
11
1.67421
21
-2.73622
0
LINE
8
BLACK
6
CONTINUOUS
10
1.67421
20
-2.73622
11
1.67392
21
-2.73692
0
LINE
8
BLACK
6
CONTINUOUS
10
1.67392
20
-2.73692
11
1.67323
21
-2.7372
0
LINE
8
BLACK
6
CONTINUOUS
10
1.67323
20
-2.7372
11
1.47638
21
-2.7372
0
LINE
8
BLACK
6
CONTINUOUS
10
1.47638
20
-2.7372
11
1.47568
21
-2.73692
0
LINE
8
BLACK
6
CONTINUOUS
10
1.47568
20
-2.73692
11
1.47539
21
-2.73622
0
LINE
8
BLACK
6
CONTINUOUS
10
1.47539
20
-2.73622
11
1.47539
21
-2.53937
0
LINE
8
BLACK
6
CONTINUOUS
10
1.47539
20
-2.53937
11
1.47568
21
-2.53867
0
LINE
8
BLACK
6
CONTINUOUS
10
1.47568
20
-2.53867
11
1.47638
21
-2.53839
0
LINE
8
BLACK
6
CONTINUOUS
10
1.47638
20
-2.53839
11
1.67323
21
-2.53839
0
LINE
8
BLACK
6
CONTINUOUS
10
1.47736
20
-2.54035
11
1.47736
21
-2.73524
0
LINE
8
BLACK
6
CONTINUOUS
10
1.47736
20
-2.73524
11
1.67224
21
-2.73524
0
LINE
8
BLACK
6
CONTINUOUS
10
1.67224
20
-2.73524
11
1.67224
21
-2.54035
0
LINE
8
BLACK
6
CONTINUOUS
10
1.67224
20
-2.54035
11
1.47736
21
-2.54035
0
LINE
8
BLACK
6
CONTINUOUS
10
3.83858
20
-2.53839
11
3.83928
21
-2.53867
0
LINE
8
BLACK
6
CONTINUOUS
10
3.83928
20
-2.53867
11
3.83957
21
-2.53937
0
LINE
8
BLACK
6
CONTINUOUS
10
3.83957
20
-2.53937
11
3.83957
21
-2.73622
0
LINE
8
BLACK
6
CONTINUOUS
10
3.83957
20
-2.73622
11
3.83928
21
-2.73692
0
LINE
8
BLACK
6
CONTINUOUS
10
3.83928
20
-2.73692
11
3.83858
21
-2.7372
0
LINE
8
BLACK
6
CONTINUOUS
10
3.83858
20
-2.7372
11
3.64173
21
-2.7372
0
LINE
8
BLACK
6
CONTINUOUS
10
3.64173
20
-2.7372
11
3.64104
21
-2.73692
0
LINE
8
BLACK
6
CONTINUOUS
10
3.64104
20
-2.73692
11
3.64075
21
-2.73622
0
LINE
8
BLACK
6
CONTINUOUS
10
3.64075
20
-2.73622
11
3.64075
21
-2.73622
0
LINE
8
BLACK
6
CONTINUOUS
10
3.64075
20
-2.73622
11
3.64075
21
-2.53937
0
LINE
8
BLACK
6
CONTINUOUS
10
3.64075
20
-2.53937
11
3.64104
21
-2.53867
0
LINE
8
BLACK
6
CONTINUOUS
10
3.64104
20
-2.53867
11
3.64173
21
-2.53839
0
LINE
8
BLACK
6
CONTINUOUS
10
3.64173
20
-2.53839
11
3.83858
21
-2.53839
0
LINE
8
BLACK
6
CONTINUOUS
10
3.64272
20
-2.54035
11
3.64272
21
-2.73524
0
LINE
8
BLACK
6
CONTINUOUS
10
3.64272
20
-2.73524
11
3.8376
21
-2.73524
0
LINE
8
BLACK
6
CONTINUOUS
10
3.8376
20
-2.73524
11
3.8376
21
-2.54035
0
LINE
8
BLACK
6
CONTINUOUS
10
3.8376
20
-2.54035
11
3.64272
21
-2.54035
0
LINE
8
BLACK
6
CONTINUOUS
10
6.79134
20
-2.53839
11
6.79203
21
-2.53867
0
LINE
8
BLACK
6
CONTINUOUS
10
6.79203
20
-2.53867
11
6.79232
21
-2.53937
0
LINE
8
BLACK
6
CONTINUOUS
10
6.79232
20
-2.53937
11
6.79232
21
-2.73622
0
LINE
8
BLACK
6
CONTINUOUS
10
6.79232
20
-2.73622
11
6.79203
21
-2.73692
0
LINE
8
BLACK
6
CONTINUOUS
10
6.79203
20
-2.73692
11
6.79134
21
-2.7372
0
LINE
8
BLACK
6
CONTINUOUS
10
6.79134
20
-2.7372
11
6.59449
21
-2.7372
0
LINE
8
BLACK
6
CONTINUOUS
10
6.59449
20
-2.7372
11
6.59379
21
-2.73692
0
LINE
8
BLACK
6
CONTINUOUS
10
6.59379
20
-2.73692
11
6.5935
21
-2.73622
0
LINE
8
BLACK
6
CONTINUOUS
10
6.5935
20
-2.73622
11
6.5935
21
-2.53937
0
LINE
8
BLACK
6
CONTINUOUS
10
6.5935
20
-2.53937
11
6.59379
21
-2.53867
0
LINE
8
BLACK
6
CONTINUOUS
10
6.59379
20
-2.53867
11
6.59449
21
-2.53839
0
LINE
8
BLACK
6
CONTINUOUS
10
6.59449
20
-2.53839
11
6.79134
21
-2.53839
0
LINE
8
BLACK
6
CONTINUOUS
10
6.59547
20
-2.54035
11
6.59547
21
-2.73524
0
LINE
8
BLACK
6
CONTINUOUS
10
6.59547
20
-2.73524
11
6.79035
21
-2.73524
0
LINE
8
BLACK
6
CONTINUOUS
10
6.79035
20
-2.73524
11
6.79035
21
-2.54035
0
LINE
8
BLACK
6
CONTINUOUS
10
6.79035
20
-2.54035
11
6.59547
21
-2.54035
0
LINE
8
BLACK
6
CONTINUOUS
10
6.01102
20
-2.18406
11
6.01172
21
-2.18434
0
LINE
8
BLACK
6
CONTINUOUS
10
6.01172
20
-2.18434
11
6.01201
21
-2.18504
0
LINE
8
BLACK
6
CONTINUOUS
10
6.01201
20
-2.18504
11
6.01201
21
-2.27636
0
LINE
8
BLACK
6
CONTINUOUS
10
6.01201
20
-2.27636
11
6.01448
21
-2.27883
0
LINE
8
BLACK
6
CONTINUOUS
10
6.01448
20
-2.27883
11
6.01448
21
-2.27883
0
LINE
8
BLACK
6
CONTINUOUS
10
6.01448
20
-2.27883
11
6.01448
21
-2.27883
0
LINE
8
BLACK
6
CONTINUOUS
10
6.01448
20
-2.27883
11
6.01476
21
-2.27953
0
LINE
8
BLACK
6
CONTINUOUS
10
6.01476
20
-2.27953
11
6.01476
21
-2.27953
0
LINE
8
BLACK
6
CONTINUOUS
10
6.01476
20
-2.27953
11
6.01476
21
-2.65945
0
LINE
8
BLACK
6
CONTINUOUS
10
6.01476
20
-2.65945
11
6.01448
21
-2.66014
0
LINE
8
BLACK
6
CONTINUOUS
10
6.01448
20
-2.66014
11
6.01378
21
-2.66043
0
LINE
8
BLACK
6
CONTINUOUS
10
6.01378
20
-2.66043
11
5.86122
21
-2.66043
0
LINE
8
BLACK
6
CONTINUOUS
10
5.86122
20
-2.66043
11
5.86122
21
-2.69291
0
LINE
8
BLACK
6
CONTINUOUS
10
5.86122
20
-2.69291
11
5.86093
21
-2.69361
0
LINE
8
BLACK
6
CONTINUOUS
10
5.86093
20
-2.69361
11
5.86024
21
-2.6939
0
LINE
8
BLACK
6
CONTINUOUS
10
5.86024
20
-2.6939
11
5.74213
21
-2.6939
0
LINE
8
BLACK
6
CONTINUOUS
10
5.74213
20
-2.6939
11
5.74143
21
-2.69361
0
LINE
8
BLACK
6
CONTINUOUS
10
5.74143
20
-2.69361
11
5.74114
21
-2.69291
0
LINE
8
BLACK
6
CONTINUOUS
10
5.74114
20
-2.69291
11
5.74114
21
-2.66043
0
LINE
8
BLACK
6
CONTINUOUS
10
5.74114
20
-2.66043
11
5.58858
21
-2.66043
0
LINE
8
BLACK
6
CONTINUOUS
10
5.58858
20
-2.66043
11
5.58789
21
-2.66014
0
LINE
8
BLACK
6
CONTINUOUS
10
5.58789
20
-2.66014
11
5.5876
21
-2.65945
0
LINE
8
BLACK
6
CONTINUOUS
10
5.5876
20
-2.65945
11
5.5876
21
-2.27953
0
LINE
8
BLACK
6
CONTINUOUS
10
5.5876
20
-2.27953
11
5.58789
21
-2.27883
0
LINE
8
BLACK
6
CONTINUOUS
10
5.58789
20
-2.27883
11
5.58789
21
-2.27883
0
LINE
8
BLACK
6
CONTINUOUS
10
5.58789
20
-2.27883
11
5.63316
21
-2.23356
0
LINE
8
BLACK
6
CONTINUOUS
10
5.63316
20
-2.23356
11
5.63316
21
-2.23356
0
LINE
8
BLACK
6
CONTINUOUS
10
5.63316
20
-2.23356
11
5.63337
21
-2.23347
0
LINE
8
BLACK
6
CONTINUOUS
10
5.63337
20
-2.23347
11
5.63386
21
-2.23327
0
LINE
8
BLACK
6
CONTINUOUS
10
5.63386
20
-2.23327
11
5.63386
21
-2.23327
0
LINE
8
BLACK
6
CONTINUOUS
10
5.63386
20
-2.23327
11
5.74114
21
-2.23327
0
LINE
8
BLACK
6
CONTINUOUS
10
5.74114
20
-2.23327
11
5.74114
21
-2.20079
0
LINE
8
BLACK
6
CONTINUOUS
10
5.74114
20
-2.20079
11
5.74143
21
-2.20009
0
LINE
8
BLACK
6
CONTINUOUS
10
5.74143
20
-2.20009
11
5.74213
21
-2.1998
0
LINE
8
BLACK
6
CONTINUOUS
10
5.74213
20
-2.1998
11
5.86024
21
-2.1998
0
LINE
8
BLACK
6
CONTINUOUS
10
5.86024
20
-2.1998
11
5.86093
21
-2.20009
0
LINE
8
BLACK
6
CONTINUOUS
10
5.86093
20
-2.20009
11
5.86122
21
-2.20079
0
LINE
8
BLACK
6
CONTINUOUS
10
5.86122
20
-2.20079
11
5.86122
21
-2.23327
0
LINE
8
BLACK
6
CONTINUOUS
10
5.86122
20
-2.23327
11
5.93287
21
-2.23327
0
LINE
8
BLACK
6
CONTINUOUS
10
5.93287
20
-2.23327
11
5.93287
21
-2.18504
0
LINE
8
BLACK
6
CONTINUOUS
10
5.93287
20
-2.18504
11
5.93316
21
-2.18434
0
LINE
8
BLACK
6
CONTINUOUS
10
5.93316
20
-2.18434
11
5.93386
21
-2.18406
0
LINE
8
BLACK
6
CONTINUOUS
10
5.93386
20
-2.18406
11
6.01102
21
-2.18406
0
LINE
8
BLACK
6
CONTINUOUS
10
5.74311
20
-2.20177
11
5.74311
21
-2.23425
0
LINE
8
BLACK
6
CONTINUOUS
10
5.74311
20
-2.23425
11
5.74282
21
-2.23495
0
LINE
8
BLACK
6
CONTINUOUS
10
5.74282
20
-2.23495
11
5.74213
21
-2.23524
0
LINE
8
BLACK
6
CONTINUOUS
10
5.74213
20
-2.23524
11
5.63427
21
-2.23524
0
LINE
8
BLACK
6
CONTINUOUS
10
5.63427
20
-2.23524
11
5.58957
21
-2.27994
0
LINE
8
BLACK
6
CONTINUOUS
10
5.58957
20
-2.27994
11
5.58957
21
-2.65846
0
LINE
8
BLACK
6
CONTINUOUS
10
5.58957
20
-2.65846
11
5.74213
21
-2.65846
0
LINE
8
BLACK
6
CONTINUOUS
10
5.74213
20
-2.65846
11
5.74282
21
-2.65875
0
LINE
8
BLACK
6
CONTINUOUS
10
5.74282
20
-2.65875
11
5.74311
21
-2.65945
0
LINE
8
BLACK
6
CONTINUOUS
10
5.74311
20
-2.65945
11
5.74311
21
-2.69193
0
LINE
8
BLACK
6
CONTINUOUS
10
5.74311
20
-2.69193
11
5.85925
21
-2.69193
0
LINE
8
BLACK
6
CONTINUOUS
10
5.85925
20
-2.69193
11
5.85925
21
-2.65945
0
LINE
8
BLACK
6
CONTINUOUS
10
5.85925
20
-2.65945
11
5.85954
21
-2.65875
0
LINE
8
BLACK
6
CONTINUOUS
10
5.85954
20
-2.65875
11
5.86024
21
-2.65846
0
LINE
8
BLACK
6
CONTINUOUS
10
5.86024
20
-2.65846
11
6.0128
21
-2.65846
0
LINE
8
BLACK
6
CONTINUOUS
10
6.0128
20
-2.65846
11
6.0128
21
-2.27994
0
LINE
8
BLACK
6
CONTINUOUS
10
6.0128
20
-2.27994
11
6.01201
21
-2.27915
0
LINE
8
BLACK
6
CONTINUOUS
10
6.01201
20
-2.27915
11
6.01201
21
-2.3189
0
LINE
8
BLACK
6
CONTINUOUS
10
6.01201
20
-2.3189
11
6.01172
21
-2.31959
0
LINE
8
BLACK
6
CONTINUOUS
10
6.01172
20
-2.31959
11
6.01102
21
-2.31988
0
LINE
8
BLACK
6
CONTINUOUS
10
6.01102
20
-2.31988
11
5.93386
21
-2.31988
0
LINE
8
BLACK
6
CONTINUOUS
10
5.93386
20
-2.31988
11
5.93316
21
-2.31959
0
LINE
8
BLACK
6
CONTINUOUS
10
5.93316
20
-2.31959
11
5.93287
21
-2.3189
0
LINE
8
BLACK
6
CONTINUOUS
10
5.93287
20
-2.3189
11
5.93287
21
-2.3189
0
LINE
8
BLACK
6
CONTINUOUS
10
5.93287
20
-2.3189
11
5.93287
21
-2.23524
0
LINE
8
BLACK
6
CONTINUOUS
10
5.93287
20
-2.23524
11
5.86024
21
-2.23524
0
LINE
8
BLACK
6
CONTINUOUS
10
5.86024
20
-2.23524
11
5.85954
21
-2.23495
0
LINE
8
BLACK
6
CONTINUOUS
10
5.85954
20
-2.23495
11
5.85925
21
-2.23425
0
LINE
8
BLACK
6
CONTINUOUS
10
5.85925
20
-2.23425
11
5.85925
21
-2.23425
0
LINE
8
BLACK
6
CONTINUOUS
10
5.85925
20
-2.23425
11
5.85925
21
-2.20177
0
LINE
8
BLACK
6
CONTINUOUS
10
5.85925
20
-2.20177
11
5.74311
21
-2.20177
0
LINE
8
BLACK
6
CONTINUOUS
10
5.93484
20
-2.23524
11
5.93484
21
-2.31791
0
LINE
8
BLACK
6
CONTINUOUS
10
5.93484
20
-2.31791
11
6.01004
21
-2.31791
0
LINE
8
BLACK
6
CONTINUOUS
10
6.01004
20
-2.31791
11
6.01004
21
-2.27718
0
LINE
8
BLACK
6
CONTINUOUS
10
6.01004
20
-2.27718
11
5.9681
21
-2.23524
0
LINE
8
BLACK
6
CONTINUOUS
10
5.9681
20
-2.23524
11
5.93484
21
-2.23524
0
LINE
8
BLACK
6
CONTINUOUS
10
5.93484
20
-2.18602
11
5.93484
21
-2.23327
0
LINE
8
BLACK
6
CONTINUOUS
10
5.93484
20
-2.23327
11
5.9685
21
-2.23327
0
LINE
8
BLACK
6
CONTINUOUS
10
5.9685
20
-2.23327
11
5.9692
21
-2.23356
0
LINE
8
BLACK
6
CONTINUOUS
10
5.9692
20
-2.23356
11
6.01004
21
-2.2744
0
LINE
8
BLACK
6
CONTINUOUS
10
6.01004
20
-2.2744
11
6.01004
21
-2.18602
0
LINE
8
BLACK
6
CONTINUOUS
10
6.01004
20
-2.18602
11
5.93484
21
-2.18602
0
LINE
8
BLACK
6
CONTINUOUS
10
6.19488
20
-2.45571
11
6.19558
21
-2.456
0
LINE
8
BLACK
6
CONTINUOUS
10
6.19558
20
-2.456
11
6.19587
21
-2.45669
0
LINE
8
BLACK
6
CONTINUOUS
10
6.19587
20
-2.45669
11
6.19587
21
-2.6378
0
LINE
8
BLACK
6
CONTINUOUS
10
6.19587
20
-2.6378
11
6.19558
21
-2.63849
0
LINE
8
BLACK
6
CONTINUOUS
10
6.19558
20
-2.63849
11
6.19488
21
-2.63878
0
LINE
8
BLACK
6
CONTINUOUS
10
6.19488
20
-2.63878
11
6.10433
21
-2.63878
0
LINE
8
BLACK
6
CONTINUOUS
10
6.10433
20
-2.63878
11
6.10363
21
-2.63849
0
LINE
8
BLACK
6
CONTINUOUS
10
6.10363
20
-2.63849
11
6.10335
21
-2.6378
0
LINE
8
BLACK
6
CONTINUOUS
10
6.10335
20
-2.6378
11
6.10335
21
-2.45669
0
LINE
8
BLACK
6
CONTINUOUS
10
6.10335
20
-2.45669
11
6.10363
21
-2.456
0
LINE
8
BLACK
6
CONTINUOUS
10
6.10363
20
-2.456
11
6.10433
21
-2.45571
0
LINE
8
BLACK
6
CONTINUOUS
10
6.10433
20
-2.45571
11
6.19488
21
-2.45571
0
LINE
8
BLACK
6
CONTINUOUS
10
6.10531
20
-2.45768
11
6.10531
21
-2.63681
0
LINE
8
BLACK
6
CONTINUOUS
10
6.10531
20
-2.63681
11
6.1939
21
-2.63681
0
LINE
8
BLACK
6
CONTINUOUS
10
6.1939
20
-2.63681
11
6.1939
21
-2.45768
0
LINE
8
BLACK
6
CONTINUOUS
10
6.1939
20
-2.45768
11
6.10531
21
-2.45768
0
LINE
8
BLACK
6
CONTINUOUS
10
4.69356
20
-2.39999
11
4.70583
21
-2.40224
0
LINE
8
BLACK
6
CONTINUOUS
10
4.70583
20
-2.40224
11
4.71775
21
-2.40595
0
LINE
8
BLACK
6
CONTINUOUS
10
4.71775
20
-2.40595
11
4.72913
21
-2.41107
0
LINE
8
BLACK
6
CONTINUOUS
10
4.72913
20
-2.41107
11
4.73981
21
-2.41753
0
LINE
8
BLACK
6
CONTINUOUS
10
4.73981
20
-2.41753
11
4.74963
21
-2.42523
0
LINE
8
BLACK
6
CONTINUOUS
10
4.74963
20
-2.42523
11
4.75846
21
-2.43405
0
LINE
8
BLACK
6
CONTINUOUS
10
4.75846
20
-2.43405
11
4.76615
21
-2.44388
0
LINE
8
BLACK
6
CONTINUOUS
10
4.76615
20
-2.44388
11
4.77261
21
-2.45456
0
LINE
8
BLACK
6
CONTINUOUS
10
4.77261
20
-2.45456
11
4.77773
21
-2.46594
0
LINE
8
BLACK
6
CONTINUOUS
10
4.77773
20
-2.46594
11
4.78145
21
-2.47785
0
LINE
8
BLACK
6
CONTINUOUS
10
4.78145
20
-2.47785
11
4.7837
21
-2.49013
0
LINE
8
BLACK
6
CONTINUOUS
10
4.7837
20
-2.49013
11
4.78445
21
-2.50258
0
LINE
8
BLACK
6
CONTINUOUS
10
4.78445
20
-2.50258
11
4.7837
21
-2.51504
0
LINE
8
BLACK
6
CONTINUOUS
10
4.7837
20
-2.51504
11
4.78145
21
-2.52732
0
LINE
8
BLACK
6
CONTINUOUS
10
4.78145
20
-2.52732
11
4.77773
21
-2.53923
0
LINE
8
BLACK
6
CONTINUOUS
10
4.77773
20
-2.53923
11
4.77261
21
-2.55061
0
LINE
8
BLACK
6
CONTINUOUS
10
4.77261
20
-2.55061
11
4.76615
21
-2.56129
0
LINE
8
BLACK
6
CONTINUOUS
10
4.76615
20
-2.56129
11
4.75846
21
-2.57111
0
LINE
8
BLACK
6
CONTINUOUS
10
4.75846
20
-2.57111
11
4.74963
21
-2.57994
0
LINE
8
BLACK
6
CONTINUOUS
10
4.74963
20
-2.57994
11
4.73981
21
-2.58764
0
LINE
8
BLACK
6
CONTINUOUS
10
4.73981
20
-2.58764
11
4.72913
21
-2.59409
0
LINE
8
BLACK
6
CONTINUOUS
10
4.72913
20
-2.59409
11
4.71775
21
-2.59921
0
LINE
8
BLACK
6
CONTINUOUS
10
4.71775
20
-2.59921
11
4.70583
21
-2.60293
0
LINE
8
BLACK
6
CONTINUOUS
10
4.70583
20
-2.60293
11
4.69356
21
-2.60518
0
LINE
8
BLACK
6
CONTINUOUS
10
4.69356
20
-2.60518
11
4.6811
21
-2.60593
0
LINE
8
BLACK
6
CONTINUOUS
10
4.6811
20
-2.60593
11
4.66865
21
-2.60518
0
LINE
8
BLACK
6
CONTINUOUS
10
4.66865
20
-2.60518
11
4.65637
21
-2.60293
0
LINE
8
BLACK
6
CONTINUOUS
10
4.65637
20
-2.60293
11
4.64446
21
-2.59921
0
LINE
8
BLACK
6
CONTINUOUS
10
4.64446
20
-2.59921
11
4.63307
21
-2.59409
0
LINE
8
BLACK
6
CONTINUOUS
10
4.63307
20
-2.59409
11
4.62239
21
-2.58764
0
LINE
8
BLACK
6
CONTINUOUS
10
4.62239
20
-2.58764
11
4.61257
21
-2.57994
0
LINE
8
BLACK
6
CONTINUOUS
10
4.61257
20
-2.57994
11
4.60375
21
-2.57111
0
LINE
8
BLACK
6
CONTINUOUS
10
4.60375
20
-2.57111
11
4.59605
21
-2.56129
0
LINE
8
BLACK
6
CONTINUOUS
10
4.59605
20
-2.56129
11
4.58959
21
-2.55061
0
LINE
8
BLACK
6
CONTINUOUS
10
4.58959
20
-2.55061
11
4.58447
21
-2.53923
0
LINE
8
BLACK
6
CONTINUOUS
10
4.58447
20
-2.53923
11
4.58076
21
-2.52732
0
LINE
8
BLACK
6
CONTINUOUS
10
4.58076
20
-2.52732
11
4.57851
21
-2.51504
0
LINE
8
BLACK
6
CONTINUOUS
10
4.57851
20
-2.51504
11
4.57776
21
-2.50258
0
LINE
8
BLACK
6
CONTINUOUS
10
4.57776
20
-2.50258
11
4.57851
21
-2.49013
0
LINE
8
BLACK
6
CONTINUOUS
10
4.57851
20
-2.49013
11
4.58076
21
-2.47785
0
LINE
8
BLACK
6
CONTINUOUS
10
4.58076
20
-2.47785
11
4.58447
21
-2.46594
0
LINE
8
BLACK
6
CONTINUOUS
10
4.58447
20
-2.46594
11
4.58959
21
-2.45456
0
LINE
8
BLACK
6
CONTINUOUS
10
4.58959
20
-2.45456
11
4.59605
21
-2.44388
0
LINE
8
BLACK
6
CONTINUOUS
10
4.59605
20
-2.44388
11
4.60375
21
-2.43405
0
LINE
8
BLACK
6
CONTINUOUS
10
4.60375
20
-2.43405
11
4.61257
21
-2.42523
0
LINE
8
BLACK
6
CONTINUOUS
10
4.61257
20
-2.42523
11
4.62239
21
-2.41753
0
LINE
8
BLACK
6
CONTINUOUS
10
4.62239
20
-2.41753
11
4.63307
21
-2.41107
0
LINE
8
BLACK
6
CONTINUOUS
10
4.63307
20
-2.41107
11
4.64446
21
-2.40595
0
LINE
8
BLACK
6
CONTINUOUS
10
4.64446
20
-2.40595
11
4.65637
21
-2.40224
0
LINE
8
BLACK
6
CONTINUOUS
10
4.65637
20
-2.40224
11
4.66865
21
-2.39999
0
LINE
8
BLACK
6
CONTINUOUS
10
4.66865
20
-2.39999
11
4.6811
21
-2.39924
0
LINE
8
BLACK
6
CONTINUOUS
10
4.6811
20
-2.39924
11
4.69356
21
-2.39999
0
LINE
8
BLACK
6
CONTINUOUS
10
4.58032
20
-2.51531
11
4.58272
21
-2.52784
0
LINE
8
BLACK
6
CONTINUOUS
10
4.58272
20
-2.52784
11
4.58666
21
-2.53998
0
LINE
8
BLACK
6
CONTINUOUS
10
4.58666
20
-2.53998
11
4.59209
21
-2.55152
0
LINE
8
BLACK
6
CONTINUOUS
10
4.59209
20
-2.55152
11
4.59892
21
-2.56229
0
LINE
8
BLACK
6
CONTINUOUS
10
4.59892
20
-2.56229
11
4.60705
21
-2.57212
0
LINE
8
BLACK
6
CONTINUOUS
10
4.60705
20
-2.57212
11
4.61635
21
-2.58085
0
LINE
8
BLACK
6
CONTINUOUS
10
4.61635
20
-2.58085
11
4.62667
21
-2.58835
0
LINE
8
BLACK
6
CONTINUOUS
10
4.62667
20
-2.58835
11
4.63785
21
-2.59449
0
LINE
8
BLACK
6
CONTINUOUS
10
4.63785
20
-2.59449
11
4.64971
21
-2.59919
0
LINE
8
BLACK
6
CONTINUOUS
10
4.64971
20
-2.59919
11
4.66207
21
-2.60236
0
LINE
8
BLACK
6
CONTINUOUS
10
4.66207
20
-2.60236
11
4.67472
21
-2.60396
0
LINE
8
BLACK
6
CONTINUOUS
10
4.67472
20
-2.60396
11
4.68748
21
-2.60396
0
LINE
8
BLACK
6
CONTINUOUS
10
4.68748
20
-2.60396
11
4.70014
21
-2.60236
0
LINE
8
BLACK
6
CONTINUOUS
10
4.70014
20
-2.60236
11
4.71249
21
-2.59919
0
LINE
8
BLACK
6
CONTINUOUS
10
4.71249
20
-2.59919
11
4.72435
21
-2.59449
0
LINE
8
BLACK
6
CONTINUOUS
10
4.72435
20
-2.59449
11
4.73553
21
-2.58835
0
LINE
8
BLACK
6
CONTINUOUS
10
4.73553
20
-2.58835
11
4.74585
21
-2.58085
0
LINE
8
BLACK
6
CONTINUOUS
10
4.74585
20
-2.58085
11
4.75515
21
-2.57212
0
LINE
8
BLACK
6
CONTINUOUS
10
4.75515
20
-2.57212
11
4.76328
21
-2.56229
0
LINE
8
BLACK
6
CONTINUOUS
10
4.76328
20
-2.56229
11
4.77012
21
-2.55152
0
LINE
8
BLACK
6
CONTINUOUS
10
4.77012
20
-2.55152
11
4.77555
21
-2.53998
0
LINE
8
BLACK
6
CONTINUOUS
10
4.77555
20
-2.53998
11
4.77949
21
-2.52784
0
LINE
8
BLACK
6
CONTINUOUS
10
4.77949
20
-2.52784
11
4.78188
21
-2.51531
0
LINE
8
BLACK
6
CONTINUOUS
10
4.78188
20
-2.51531
11
4.78268
21
-2.50258
0
LINE
8
BLACK
6
CONTINUOUS
10
4.78268
20
-2.50258
11
4.78188
21
-2.48985
0
LINE
8
BLACK
6
CONTINUOUS
10
4.78188
20
-2.48985
11
4.77949
21
-2.47732
0
LINE
8
BLACK
6
CONTINUOUS
10
4.77949
20
-2.47732
11
4.77555
21
-2.46519
0
LINE
8
BLACK
6
CONTINUOUS
10
4.77555
20
-2.46519
11
4.77012
21
-2.45365
0
LINE
8
BLACK
6
CONTINUOUS
10
4.77012
20
-2.45365
11
4.76328
21
-2.44288
0
LINE
8
BLACK
6
CONTINUOUS
10
4.76328
20
-2.44288
11
4.75515
21
-2.43305
0
LINE
8
BLACK
6
CONTINUOUS
10
4.75515
20
-2.43305
11
4.74585
21
-2.42432
0
LINE
8
BLACK
6
CONTINUOUS
10
4.74585
20
-2.42432
11
4.73553
21
-2.41682
0
LINE
8
BLACK
6
CONTINUOUS
10
4.73553
20
-2.41682
11
4.72435
21
-2.41067
0
LINE
8
BLACK
6
CONTINUOUS
10
4.72435
20
-2.41067
11
4.71249
21
-2.40598
0
LINE
8
BLACK
6
CONTINUOUS
10
4.71249
20
-2.40598
11
4.70014
21
-2.4028
0
LINE
8
BLACK
6
CONTINUOUS
10
4.70014
20
-2.4028
11
4.68748
21
-2.4012
0
LINE
8
BLACK
6
CONTINUOUS
10
4.68748
20
-2.4012
11
4.67472
21
-2.4012
0
LINE
8
BLACK
6
CONTINUOUS
10
4.67472
20
-2.4012
11
4.66207
21
-2.4028
0
LINE
8
BLACK
6
CONTINUOUS
10
4.66207
20
-2.4028
11
4.64971
21
-2.40598
0
LINE
8
BLACK
6
CONTINUOUS
10
4.64971
20
-2.40598
11
4.63785
21
-2.41067
0
LINE
8
BLACK
6
CONTINUOUS
10
4.63785
20
-2.41067
11
4.62667
21
-2.41682
0
LINE
8
BLACK
6
CONTINUOUS
10
4.62667
20
-2.41682
11
4.61635
21
-2.42432
0
LINE
8
BLACK
6
CONTINUOUS
10
4.61635
20
-2.42432
11
4.60705
21
-2.43305
0
LINE
8
BLACK
6
CONTINUOUS
10
4.60705
20
-2.43305
11
4.59892
21
-2.44288
0
LINE
8
BLACK
6
CONTINUOUS
10
4.59892
20
-2.44288
11
4.59209
21
-2.45365
0
LINE
8
BLACK
6
CONTINUOUS
10
4.59209
20
-2.45365
11
4.58666
21
-2.46519
0
LINE
8
BLACK
6
CONTINUOUS
10
4.58666
20
-2.46519
11
4.58272
21
-2.47732
0
LINE
8
BLACK
6
CONTINUOUS
10
4.58272
20
-2.47732
11
4.58032
21
-2.48985
0
LINE
8
BLACK
6
CONTINUOUS
10
4.58032
20
-2.48985
11
4.57952
21
-2.50258
0
LINE
8
BLACK
6
CONTINUOUS
10
4.57952
20
-2.50258
11
4.58032
21
-2.51531
0
LINE
8
BLACK
6
CONTINUOUS
10
7.25984
20
-0.640748
11
7.26054
21
-0.641036
0
LINE
8
BLACK
6
CONTINUOUS
10
7.26054
20
-0.641036
11
7.26083
21
-0.641732
0
LINE
8
BLACK
6
CONTINUOUS
10
7.26083
20
-0.641732
11
7.26083
21
-1.25098
0
LINE
8
BLACK
6
CONTINUOUS
10
7.26083
20
-1.25098
11
7.70925
21
-1.25098
0
LINE
8
BLACK
6
CONTINUOUS
10
7.70925
20
-1.25098
11
7.70995
21
-1.25127
0
LINE
8
BLACK
6
CONTINUOUS
10
7.70995
20
-1.25127
11
7.71024
21
-1.25197
0
LINE
8
BLACK
6
CONTINUOUS
10
7.71024
20
-1.25197
11
7.71024
21
-2.04843
0
LINE
8
BLACK
6
CONTINUOUS
10
7.71024
20
-2.04843
11
7.70995
21
-2.04912
0
LINE
8
BLACK
6
CONTINUOUS
10
7.70995
20
-2.04912
11
7.70925
21
-2.04941
0
LINE
8
BLACK
6
CONTINUOUS
10
7.70925
20
-2.04941
11
6.62539
21
-2.04941
0
LINE
8
BLACK
6
CONTINUOUS
10
6.62539
20
-2.04941
11
6.6247
21
-2.04912
0
LINE
8
BLACK
6
CONTINUOUS
10
6.6247
20
-2.04912
11
6.62441
21
-2.04843
0
LINE
8
BLACK
6
CONTINUOUS
10
6.62441
20
-2.04843
11
6.62441
21
-1.25197
0
LINE
8
BLACK
6
CONTINUOUS
10
6.62441
20
-1.25197
11
6.6247
21
-1.25127
0
LINE
8
BLACK
6
CONTINUOUS
10
6.6247
20
-1.25127
11
6.62539
21
-1.25098
0
LINE
8
BLACK
6
CONTINUOUS
10
6.62539
20
-1.25098
11
6.86516
21
-1.25098
0
LINE
8
BLACK
6
CONTINUOUS
10
6.86516
20
-1.25098
11
6.86516
21
-1.17815
0
LINE
8
BLACK
6
CONTINUOUS
10
6.86516
20
-1.17815
11
6.8189
21
-1.17815
0
LINE
8
BLACK
6
CONTINUOUS
10
6.8189
20
-1.17815
11
6.8182
21
-1.17786
0
LINE
8
BLACK
6
CONTINUOUS
10
6.8182
20
-1.17786
11
6.81791
21
-1.17717
0
LINE
8
BLACK
6
CONTINUOUS
10
6.81791
20
-1.17717
11
6.81791
21
-0.980315
0
LINE
8
BLACK
6
CONTINUOUS
10
6.81791
20
-0.980315
11
6.8182
21
-0.979619
0
LINE
8
BLACK
6
CONTINUOUS
10
6.8182
20
-0.979619
11
6.8189
21
-0.979331
0
LINE
8
BLACK
6
CONTINUOUS
10
6.8189
20
-0.979331
11
6.86516
21
-0.979331
0
LINE
8
BLACK
6
CONTINUOUS
10
6.86516
20
-0.979331
11
6.86516
21
-0.641732
0
LINE
8
BLACK
6
CONTINUOUS
10
6.86516
20
-0.641732
11
6.86545
21
-0.641036
0
LINE
8
BLACK
6
CONTINUOUS
10
6.86545
20
-0.641036
11
6.86614
21
-0.640748
0
LINE
8
BLACK
6
CONTINUOUS
10
6.86614
20
-0.640748
11
7.25984
21
-0.640748
0
LINE
8
BLACK
6
CONTINUOUS
10
7.25984
20
-1.25295
11
6.86614
21
-1.25295
0
LINE
8
BLACK
6
CONTINUOUS
10
6.86614
20
-1.25295
11
6.62638
21
-1.25295
0
LINE
8
BLACK
6
CONTINUOUS
10
6.62638
20
-1.25295
11
6.62638
21
-2.04744
0
LINE
8
BLACK
6
CONTINUOUS
10
6.62638
20
-2.04744
11
7.70827
21
-2.04744
0
LINE
8
BLACK
6
CONTINUOUS
10
7.70827
20
-2.04744
11
7.70827
21
-1.25295
0
LINE
8
BLACK
6
CONTINUOUS
10
7.70827
20
-1.25295
11
7.25984
21
-1.25295
0
LINE
8
BLACK
6
CONTINUOUS
10
6.86713
20
-0.642717
11
6.86713
21
-0.980315
0
LINE
8
BLACK
6
CONTINUOUS
10
6.86713
20
-0.980315
11
6.86684
21
-0.981011
0
LINE
8
BLACK
6
CONTINUOUS
10
6.86684
20
-0.981011
11
6.86614
21
-0.981299
0
LINE
8
BLACK
6
CONTINUOUS
10
6.86614
20
-0.981299
11
6.81988
21
-0.981299
0
LINE
8
BLACK
6
CONTINUOUS
10
6.81988
20
-0.981299
11
6.81988
21
-1.17618
0
LINE
8
BLACK
6
CONTINUOUS
10
6.81988
20
-1.17618
11
6.86614
21
-1.17618
0
LINE
8
BLACK
6
CONTINUOUS
10
6.86614
20
-1.17618
11
6.86684
21
-1.17647
0
LINE
8
BLACK
6
CONTINUOUS
10
6.86684
20
-1.17647
11
6.86713
21
-1.17717
0
LINE
8
BLACK
6
CONTINUOUS
10
6.86713
20
-1.17717
11
6.86713
21
-1.25098
0
LINE
8
BLACK
6
CONTINUOUS
10
6.86713
20
-1.25098
11
7.25886
21
-1.25098
0
LINE
8
BLACK
6
CONTINUOUS
10
7.25886
20
-1.25098
11
7.25886
21
-0.642717
0
LINE
8
BLACK
6
CONTINUOUS
10
7.25886
20
-0.642717
11
6.86713
21
-0.642717
0
LINE
8
BLACK
6
CONTINUOUS
10
5.97441
20
-1.95177
11
5.97511
21
-1.95206
0
LINE
8
BLACK
6
CONTINUOUS
10
5.97511
20
-1.95206
11
5.97539
21
-1.95276
0
LINE
8
BLACK
6
CONTINUOUS
10
5.97539
20
-1.95276
11
5.97539
21
-2.04331
0
LINE
8
BLACK
6
CONTINUOUS
10
5.97539
20
-2.04331
11
5.97511
21
-2.044
0
LINE
8
BLACK
6
CONTINUOUS
10
5.97511
20
-2.044
11
5.97441
21
-2.04429
0
LINE
8
BLACK
6
CONTINUOUS
10
5.97441
20
-2.04429
11
5.79331
21
-2.04429
0
LINE
8
BLACK
6
CONTINUOUS
10
5.79331
20
-2.04429
11
5.79261
21
-2.044
0
LINE
8
BLACK
6
CONTINUOUS
10
5.79261
20
-2.044
11
5.79232
21
-2.04331
0
LINE
8
BLACK
6
CONTINUOUS
10
5.79232
20
-2.04331
11
5.79232
21
-1.95276
0
LINE
8
BLACK
6
CONTINUOUS
10
5.79232
20
-1.95276
11
5.79261
21
-1.95206
0
LINE
8
BLACK
6
CONTINUOUS
10
5.79261
20
-1.95206
11
5.79331
21
-1.95177
0
LINE
8
BLACK
6
CONTINUOUS
10
5.79331
20
-1.95177
11
5.97441
21
-1.95177
0
LINE
8
BLACK
6
CONTINUOUS
10
5.79429
20
-1.95374
11
5.79429
21
-2.04232
0
LINE
8
BLACK
6
CONTINUOUS
10
5.79429
20
-2.04232
11
5.97343
21
-2.04232
0
LINE
8
BLACK
6
CONTINUOUS
10
5.97343
20
-2.04232
11
5.97343
21
-1.95374
0
LINE
8
BLACK
6
CONTINUOUS
10
5.97343
20
-1.95374
11
5.79429
21
-1.95374
0
LINE
8
BLACK
6
CONTINUOUS
10
2.7185
20
-1.78051
11
2.7192
21
-1.7808
0
LINE
8
BLACK
6
CONTINUOUS
10
2.7192
20
-1.7808
11
2.71949
21
-1.7815
0
LINE
8
BLACK
6
CONTINUOUS
10
2.71949
20
-1.7815
11
2.71949
21
-1.99803
0
LINE
8
BLACK
6
CONTINUOUS
10
2.71949
20
-1.99803
11
2.7192
21
-1.99873
0
LINE
8
BLACK
6
CONTINUOUS
10
2.7192
20
-1.99873
11
2.7185
21
-1.99902
0
LINE
8
BLACK
6
CONTINUOUS
10
2.7185
20
-1.99902
11
2.44685
21
-1.99902
0
LINE
8
BLACK
6
CONTINUOUS
10
2.44685
20
-1.99902
11
2.44615
21
-1.99873
0
LINE
8
BLACK
6
CONTINUOUS
10
2.44615
20
-1.99873
11
2.44587
21
-1.99803
0
LINE
8
BLACK
6
CONTINUOUS
10
2.44587
20
-1.99803
11
2.44587
21
-1.7815
0
LINE
8
BLACK
6
CONTINUOUS
10
2.44587
20
-1.7815
11
2.44615
21
-1.7808
0
LINE
8
BLACK
6
CONTINUOUS
10
2.44615
20
-1.7808
11
2.44685
21
-1.78051
0
LINE
8
BLACK
6
CONTINUOUS
10
2.44685
20
-1.78051
11
2.7185
21
-1.78051
0
LINE
8
BLACK
6
CONTINUOUS
10
2.44783
20
-1.78248
11
2.44783
21
-1.99705
0
LINE
8
BLACK
6
CONTINUOUS
10
2.44783
20
-1.99705
11
2.71752
21
-1.99705
0
LINE
8
BLACK
6
CONTINUOUS
10
2.71752
20
-1.99705
11
2.71752
21
-1.78248
0
LINE
8
BLACK
6
CONTINUOUS
10
2.71752
20
-1.78248
11
2.44783
21
-1.78248
0
LINE
8
BLACK
6
CONTINUOUS
10
3.70276
20
-1.78051
11
3.70345
21
-1.7808
0
LINE
8
BLACK
6
CONTINUOUS
10
3.70345
20
-1.7808
11
3.70374
21
-1.7815
0
LINE
8
BLACK
6
CONTINUOUS
10
3.70374
20
-1.7815
11
3.70374
21
-1.99803
0
LINE
8
BLACK
6
CONTINUOUS
10
3.70374
20
-1.99803
11
3.70345
21
-1.99873
0
LINE
8
BLACK
6
CONTINUOUS
10
3.70345
20
-1.99873
11
3.70276
21
-1.99902
0
LINE
8
BLACK
6
CONTINUOUS
10
3.70276
20
-1.99902
11
3.4311
21
-1.99902
0
LINE
8
BLACK
6
CONTINUOUS
10
3.4311
20
-1.99902
11
3.43041
21
-1.99873
0
LINE
8
BLACK
6
CONTINUOUS
10
3.43041
20
-1.99873
11
3.43012
21
-1.99803
0
LINE
8
BLACK
6
CONTINUOUS
10
3.43012
20
-1.99803
11
3.43012
21
-1.7815
0
LINE
8
BLACK
6
CONTINUOUS
10
3.43012
20
-1.7815
11
3.43041
21
-1.7808
0
LINE
8
BLACK
6
CONTINUOUS
10
3.43041
20
-1.7808
11
3.4311
21
-1.78051
0
LINE
8
BLACK
6
CONTINUOUS
10
3.4311
20
-1.78051
11
3.70276
21
-1.78051
0
LINE
8
BLACK
6
CONTINUOUS
10
3.43209
20
-1.78248
11
3.43209
21
-1.99705
0
LINE
8
BLACK
6
CONTINUOUS
10
3.43209
20
-1.99705
11
3.70177
21
-1.99705
0
LINE
8
BLACK
6
CONTINUOUS
10
3.70177
20
-1.99705
11
3.70177
21
-1.78248
0
LINE
8
BLACK
6
CONTINUOUS
10
3.70177
20
-1.78248
11
3.43209
21
-1.78248
0
LINE
8
BLACK
6
CONTINUOUS
10
4.68701
20
-1.78051
11
4.6877
21
-1.7808
0
LINE
8
BLACK
6
CONTINUOUS
10
4.6877
20
-1.7808
11
4.68799
21
-1.7815
0
LINE
8
BLACK
6
CONTINUOUS
10
4.68799
20
-1.7815
11
4.68799
21
-1.99803
0
LINE
8
BLACK
6
CONTINUOUS
10
4.68799
20
-1.99803
11
4.6877
21
-1.99873
0
LINE
8
BLACK
6
CONTINUOUS
10
4.6877
20
-1.99873
11
4.68701
21
-1.99902
0
LINE
8
BLACK
6
CONTINUOUS
10
4.68701
20
-1.99902
11
4.41535
21
-1.99902
0
LINE
8
BLACK
6
CONTINUOUS
10
4.41535
20
-1.99902
11
4.41466
21
-1.99873
0
LINE
8
BLACK
6
CONTINUOUS
10
4.41466
20
-1.99873
11
4.41437
21
-1.99803
0
LINE
8
BLACK
6
CONTINUOUS
10
4.41437
20
-1.99803
11
4.41437
21
-1.7815
0
LINE
8
BLACK
6
CONTINUOUS
10
4.41437
20
-1.7815
11
4.41466
21
-1.7808
0
LINE
8
BLACK
6
CONTINUOUS
10
4.41466
20
-1.7808
11
4.41535
21
-1.78051
0
LINE
8
BLACK
6
CONTINUOUS
10
4.41535
20
-1.78051
11
4.68701
21
-1.78051
0
LINE
8
BLACK
6
CONTINUOUS
10
4.41634
20
-1.78248
11
4.41634
21
-1.99705
0
LINE
8
BLACK
6
CONTINUOUS
10
4.41634
20
-1.99705
11
4.68602
21
-1.99705
0
LINE
8
BLACK
6
CONTINUOUS
10
4.68602
20
-1.99705
11
4.68602
21
-1.78248
0
LINE
8
BLACK
6
CONTINUOUS
10
4.68602
20
-1.78248
11
4.41634
21
-1.78248
0
LINE
8
BLACK
6
CONTINUOUS
10
5.67126
20
-1.78051
11
5.67196
21
-1.7808
0
LINE
8
BLACK
6
CONTINUOUS
10
5.67196
20
-1.7808
11
5.67224
21
-1.7815
0
LINE
8
BLACK
6
CONTINUOUS
10
5.67224
20
-1.7815
11
5.67224
21
-1.99803
0
LINE
8
BLACK
6
CONTINUOUS
10
5.67224
20
-1.99803
11
5.67196
21
-1.99873
0
LINE
8
BLACK
6
CONTINUOUS
10
5.67196
20
-1.99873
11
5.67126
21
-1.99902
0
LINE
8
BLACK
6
CONTINUOUS
10
5.67126
20
-1.99902
11
5.39961
21
-1.99902
0
LINE
8
BLACK
6
CONTINUOUS
10
5.39961
20
-1.99902
11
5.39891
21
-1.99873
0
LINE
8
BLACK
6
CONTINUOUS
10
5.39891
20
-1.99873
11
5.39862
21
-1.99803
0
LINE
8
BLACK
6
CONTINUOUS
10
5.39862
20
-1.99803
11
5.39862
21
-1.7815
0
LINE
8
BLACK
6
CONTINUOUS
10
5.39862
20
-1.7815
11
5.39891
21
-1.7808
0
LINE
8
BLACK
6
CONTINUOUS
10
5.39891
20
-1.7808
11
5.39961
21
-1.78051
0
LINE
8
BLACK
6
CONTINUOUS
10
5.39961
20
-1.78051
11
5.67126
21
-1.78051
0
LINE
8
BLACK
6
CONTINUOUS
10
5.40059
20
-1.78248
11
5.40059
21
-1.99705
0
LINE
8
BLACK
6
CONTINUOUS
10
5.40059
20
-1.99705
11
5.67028
21
-1.99705
0
LINE
8
BLACK
6
CONTINUOUS
10
5.67028
20
-1.99705
11
5.67028
21
-1.78248
0
LINE
8
BLACK
6
CONTINUOUS
10
5.67028
20
-1.78248
11
5.40059
21
-1.78248
0
LINE
8
BLACK
6
CONTINUOUS
10
3.01299
20
-1.8376
11
3.01369
21
-1.83789
0
LINE
8
BLACK
6
CONTINUOUS
10
3.01369
20
-1.83789
11
3.01398
21
-1.83858
0
LINE
8
BLACK
6
CONTINUOUS
10
3.01398
20
-1.83858
11
3.01398
21
-1.91339
0
LINE
8
BLACK
6
CONTINUOUS
10
3.01398
20
-1.91339
11
3.01369
21
-1.91408
0
LINE
8
BLACK
6
CONTINUOUS
10
3.01369
20
-1.91408
11
3.01299
21
-1.91437
0
LINE
8
BLACK
6
CONTINUOUS
10
3.01299
20
-1.91437
11
2.88071
21
-1.91437
0
LINE
8
BLACK
6
CONTINUOUS
10
2.88071
20
-1.91437
11
2.88001
21
-1.91408
0
LINE
8
BLACK
6
CONTINUOUS
10
2.88001
20
-1.91408
11
2.87972
21
-1.91339
0
LINE
8
BLACK
6
CONTINUOUS
10
2.87972
20
-1.91339
11
2.87972
21
-1.83858
0
LINE
8
BLACK
6
CONTINUOUS
10
2.87972
20
-1.83858
11
2.88001
21
-1.83789
0
LINE
8
BLACK
6
CONTINUOUS
10
2.88001
20
-1.83789
11
2.88071
21
-1.8376
0
LINE
8
BLACK
6
CONTINUOUS
10
2.88071
20
-1.8376
11
3.01299
21
-1.8376
0
LINE
8
BLACK
6
CONTINUOUS
10
2.88169
20
-1.83957
11
2.88169
21
-1.9124
0
LINE
8
BLACK
6
CONTINUOUS
10
2.88169
20
-1.9124
11
3.01201
21
-1.9124
0
LINE
8
BLACK
6
CONTINUOUS
10
3.01201
20
-1.9124
11
3.01201
21
-1.83957
0
LINE
8
BLACK
6
CONTINUOUS
10
3.01201
20
-1.83957
11
2.88169
21
-1.83957
0
LINE
8
BLACK
6
CONTINUOUS
10
6.15285
20
-1.2628
11
6.53277
21
-1.2628
0
LINE
8
BLACK
6
CONTINUOUS
10
6.53277
20
-1.2628
11
6.53346
21
-1.26308
0
LINE
8
BLACK
6
CONTINUOUS
10
6.53346
20
-1.26308
11
6.53375
21
-1.26378
0
LINE
8
BLACK
6
CONTINUOUS
10
6.53375
20
-1.26378
11
6.53375
21
-1.41634
0
LINE
8
BLACK
6
CONTINUOUS
10
6.53375
20
-1.41634
11
6.56623
21
-1.41634
0
LINE
8
BLACK
6
CONTINUOUS
10
6.56623
20
-1.41634
11
6.56693
21
-1.41663
0
LINE
8
BLACK
6
CONTINUOUS
10
6.56693
20
-1.41663
11
6.56722
21
-1.41732
0
LINE
8
BLACK
6
CONTINUOUS
10
6.56722
20
-1.41732
11
6.56722
21
-1.53543
0
LINE
8
BLACK
6
CONTINUOUS
10
6.56722
20
-1.53543
11
6.56693
21
-1.53613
0
LINE
8
BLACK
6
CONTINUOUS
10
6.56693
20
-1.53613
11
6.56623
21
-1.53642
0
LINE
8
BLACK
6
CONTINUOUS
10
6.56623
20
-1.53642
11
6.53375
21
-1.53642
0
LINE
8
BLACK
6
CONTINUOUS
10
6.53375
20
-1.53642
11
6.53375
21
-1.68898
0
LINE
8
BLACK
6
CONTINUOUS
10
6.53375
20
-1.68898
11
6.53346
21
-1.68967
0
LINE
8
BLACK
6
CONTINUOUS
10
6.53346
20
-1.68967
11
6.53277
21
-1.68996
0
LINE
8
BLACK
6
CONTINUOUS
10
6.53277
20
-1.68996
11
6.31398
21
-1.68996
0
LINE
8
BLACK
6
CONTINUOUS
10
6.31398
20
-1.68996
11
6.31398
21
-1.76496
0
LINE
8
BLACK
6
CONTINUOUS
10
6.31398
20
-1.76496
11
6.31369
21
-1.76566
0
LINE
8
BLACK
6
CONTINUOUS
10
6.31369
20
-1.76566
11
6.31299
21
-1.76594
0
LINE
8
BLACK
6
CONTINUOUS
10
6.31299
20
-1.76594
11
6.17913
21
-1.76594
0
LINE
8
BLACK
6
CONTINUOUS
10
6.17913
20
-1.76594
11
6.17844
21
-1.76566
0
LINE
8
BLACK
6
CONTINUOUS
10
6.17844
20
-1.76566
11
6.17815
21
-1.76496
0
LINE
8
BLACK
6
CONTINUOUS
10
6.17815
20
-1.76496
11
6.17815
21
-1.68996
0
LINE
8
BLACK
6
CONTINUOUS
10
6.17815
20
-1.68996
11
6.15285
21
-1.68996
0
LINE
8
BLACK
6
CONTINUOUS
10
6.15285
20
-1.68996
11
6.15285
21
-1.68996
0
LINE
8
BLACK
6
CONTINUOUS
10
6.15285
20
-1.68996
11
6.15236
21
-1.68976
0
LINE
8
BLACK
6
CONTINUOUS
10
6.15236
20
-1.68976
11
6.15215
21
-1.68967
0
LINE
8
BLACK
6
CONTINUOUS
10
6.15215
20
-1.68967
11
6.15215
21
-1.68967
0
LINE
8
BLACK
6
CONTINUOUS
10
6.15215
20
-1.68967
11
6.14587
21
-1.68339
0
LINE
8
BLACK
6
CONTINUOUS
10
6.14587
20
-1.68339
11
6.14587
21
-1.86142
0
LINE
8
BLACK
6
CONTINUOUS
10
6.14587
20
-1.86142
11
6.14558
21
-1.86211
0
LINE
8
BLACK
6
CONTINUOUS
10
6.14558
20
-1.86211
11
6.14488
21
-1.8624
0
LINE
8
BLACK
6
CONTINUOUS
10
6.14488
20
-1.8624
11
6.02047
21
-1.8624
0
LINE
8
BLACK
6
CONTINUOUS
10
6.02047
20
-1.8624
11
6.01978
21
-1.86211
0
LINE
8
BLACK
6
CONTINUOUS
10
6.01978
20
-1.86211
11
6.01949
21
-1.86142
0
LINE
8
BLACK
6
CONTINUOUS
10
6.01949
20
-1.86142
11
6.01949
21
-1.68189
0
LINE
8
BLACK
6
CONTINUOUS
10
6.01949
20
-1.68189
11
6.01978
21
-1.68119
0
LINE
8
BLACK
6
CONTINUOUS
10
6.01978
20
-1.68119
11
6.02047
21
-1.68091
0
LINE
8
BLACK
6
CONTINUOUS
10
6.02047
20
-1.68091
11
6.14338
21
-1.68091
0
LINE
8
BLACK
6
CONTINUOUS
10
6.14338
20
-1.68091
11
6.10688
21
-1.6444
0
LINE
8
BLACK
6
CONTINUOUS
10
6.10688
20
-1.6444
11
6.10659
21
-1.6437
0
LINE
8
BLACK
6
CONTINUOUS
10
6.10659
20
-1.6437
11
6.10659
21
-1.6437
0
LINE
8
BLACK
6
CONTINUOUS
10
6.10659
20
-1.6437
11
6.10659
21
-1.53642
0
LINE
8
BLACK
6
CONTINUOUS
10
6.10659
20
-1.53642
11
6.07411
21
-1.53642
0
LINE
8
BLACK
6
CONTINUOUS
10
6.07411
20
-1.53642
11
6.07341
21
-1.53613
0
LINE
8
BLACK
6
CONTINUOUS
10
6.07341
20
-1.53613
11
6.07312
21
-1.53543
0
LINE
8
BLACK
6
CONTINUOUS
10
6.07312
20
-1.53543
11
6.07312
21
-1.41732
0
LINE
8
BLACK
6
CONTINUOUS
10
6.07312
20
-1.41732
11
6.07341
21
-1.41663
0
LINE
8
BLACK
6
CONTINUOUS
10
6.07341
20
-1.41663
11
6.07411
21
-1.41634
0
LINE
8
BLACK
6
CONTINUOUS
10
6.07411
20
-1.41634
11
6.10659
21
-1.41634
0
LINE
8
BLACK
6
CONTINUOUS
10
6.10659
20
-1.41634
11
6.10659
21
-1.30906
0
LINE
8
BLACK
6
CONTINUOUS
10
6.10659
20
-1.30906
11
6.10688
21
-1.30836
0
LINE
8
BLACK
6
CONTINUOUS
10
6.10688
20
-1.30836
11
6.10688
21
-1.30836
0
LINE
8
BLACK
6
CONTINUOUS
10
6.10688
20
-1.30836
11
6.15215
21
-1.26308
0
LINE
8
BLACK
6
CONTINUOUS
10
6.15215
20
-1.26308
11
6.15215
21
-1.26308
0
LINE
8
BLACK
6
CONTINUOUS
10
6.15215
20
-1.26308
11
6.15236
21
-1.263
0
LINE
8
BLACK
6
CONTINUOUS
10
6.15236
20
-1.263
11
6.15285
21
-1.2628
0
LINE
8
BLACK
6
CONTINUOUS
10
6.15285
20
-1.2628
11
6.15285
21
-1.2628
0
LINE
8
BLACK
6
CONTINUOUS
10
6.02146
20
-1.68287
11
6.02146
21
-1.86043
0
LINE
8
BLACK
6
CONTINUOUS
10
6.02146
20
-1.86043
11
6.1439
21
-1.86043
0
LINE
8
BLACK
6
CONTINUOUS
10
6.1439
20
-1.86043
11
6.1439
21
-1.68287
0
LINE
8
BLACK
6
CONTINUOUS
10
6.1439
20
-1.68287
11
6.02146
21
-1.68287
0
LINE
8
BLACK
6
CONTINUOUS
10
6.18012
20
-1.68996
11
6.18012
21
-1.76398
0
LINE
8
BLACK
6
CONTINUOUS
10
6.18012
20
-1.76398
11
6.31201
21
-1.76398
0
LINE
8
BLACK
6
CONTINUOUS
10
6.31201
20
-1.76398
11
6.31201
21
-1.68996
0
LINE
8
BLACK
6
CONTINUOUS
10
6.31201
20
-1.68996
11
6.18012
21
-1.68996
0
LINE
8
BLACK
6
CONTINUOUS
10
6.15326
20
-1.26476
11
6.10856
21
-1.30946
0
LINE
8
BLACK
6
CONTINUOUS
10
6.10856
20
-1.30946
11
6.10856
21
-1.41732
0
LINE
8
BLACK
6
CONTINUOUS
10
6.10856
20
-1.41732
11
6.10827
21
-1.41802
0
LINE
8
BLACK
6
CONTINUOUS
10
6.10827
20
-1.41802
11
6.10757
21
-1.41831
0
LINE
8
BLACK
6
CONTINUOUS
10
6.10757
20
-1.41831
11
6.07509
21
-1.41831
0
LINE
8
BLACK
6
CONTINUOUS
10
6.07509
20
-1.41831
11
6.07509
21
-1.53445
0
LINE
8
BLACK
6
CONTINUOUS
10
6.07509
20
-1.53445
11
6.10757
21
-1.53445
0
LINE
8
BLACK
6
CONTINUOUS
10
6.10757
20
-1.53445
11
6.10827
21
-1.53474
0
LINE
8
BLACK
6
CONTINUOUS
10
6.10827
20
-1.53474
11
6.10856
21
-1.53543
0
LINE
8
BLACK
6
CONTINUOUS
10
6.10856
20
-1.53543
11
6.10856
21
-1.64329
0
LINE
8
BLACK
6
CONTINUOUS
10
6.10856
20
-1.64329
11
6.15326
21
-1.68799
0
LINE
8
BLACK
6
CONTINUOUS
10
6.15326
20
-1.68799
11
6.17815
21
-1.68799
0
LINE
8
BLACK
6
CONTINUOUS
10
6.17815
20
-1.68799
11
6.17815
21
-1.6878
0
LINE
8
BLACK
6
CONTINUOUS
10
6.17815
20
-1.6878
11
6.17844
21
-1.6871
0
LINE
8
BLACK
6
CONTINUOUS
10
6.17844
20
-1.6871
11
6.17913
21
-1.68681
0
LINE
8
BLACK
6
CONTINUOUS
10
6.17913
20
-1.68681
11
6.31299
21
-1.68681
0
LINE
8
BLACK
6
CONTINUOUS
10
6.31299
20
-1.68681
11
6.31369
21
-1.6871
0
LINE
8
BLACK
6
CONTINUOUS
10
6.31369
20
-1.6871
11
6.31398
21
-1.6878
0
LINE
8
BLACK
6
CONTINUOUS
10
6.31398
20
-1.6878
11
6.31398
21
-1.68799
0
LINE
8
BLACK
6
CONTINUOUS
10
6.31398
20
-1.68799
11
6.53178
21
-1.68799
0
LINE
8
BLACK
6
CONTINUOUS
10
6.53178
20
-1.68799
11
6.53178
21
-1.53543
0
LINE
8
BLACK
6
CONTINUOUS
10
6.53178
20
-1.53543
11
6.53207
21
-1.53474
0
LINE
8
BLACK
6
CONTINUOUS
10
6.53207
20
-1.53474
11
6.53277
21
-1.53445
0
LINE
8
BLACK
6
CONTINUOUS
10
6.53277
20
-1.53445
11
6.56525
21
-1.53445
0
LINE
8
BLACK
6
CONTINUOUS
10
6.56525
20
-1.53445
11
6.56525
21
-1.41831
0
LINE
8
BLACK
6
CONTINUOUS
10
6.56525
20
-1.41831
11
6.53277
21
-1.41831
0
LINE
8
BLACK
6
CONTINUOUS
10
6.53277
20
-1.41831
11
6.53207
21
-1.41802
0
LINE
8
BLACK
6
CONTINUOUS
10
6.53207
20
-1.41802
11
6.53178
21
-1.41732
0
LINE
8
BLACK
6
CONTINUOUS
10
6.53178
20
-1.41732
11
6.53178
21
-1.26476
0
LINE
8
BLACK
6
CONTINUOUS
10
6.53178
20
-1.26476
11
6.15326
21
-1.26476
0
LINE
8
BLACK
6
CONTINUOUS
10
5.95472
20
-1.03445
11
5.95542
21
-1.03474
0
LINE
8
BLACK
6
CONTINUOUS
10
5.95542
20
-1.03474
11
5.95571
21
-1.03543
0
LINE
8
BLACK
6
CONTINUOUS
10
5.95571
20
-1.03543
11
5.95571
21
-1.55722
0
LINE
8
BLACK
6
CONTINUOUS
10
5.95571
20
-1.55722
11
5.9589
21
-1.55722
0
LINE
8
BLACK
6
CONTINUOUS
10
5.9589
20
-1.55722
11
5.95959
21
-1.55751
0
LINE
8
BLACK
6
CONTINUOUS
10
5.95959
20
-1.55751
11
5.95988
21
-1.5582
0
LINE
8
BLACK
6
CONTINUOUS
10
5.95988
20
-1.5582
11
5.95988
21
-1.8338
0
LINE
8
BLACK
6
CONTINUOUS
10
5.95988
20
-1.8338
11
5.95959
21
-1.83449
0
LINE
8
BLACK
6
CONTINUOUS
10
5.95959
20
-1.83449
11
5.9589
21
-1.83478
0
LINE
8
BLACK
6
CONTINUOUS
10
5.9589
20
-1.83478
11
5.8211
21
-1.83478
0
LINE
8
BLACK
6
CONTINUOUS
10
5.8211
20
-1.83478
11
5.82041
21
-1.83449
0
LINE
8
BLACK
6
CONTINUOUS
10
5.82041
20
-1.83449
11
5.82012
21
-1.8338
0
LINE
8
BLACK
6
CONTINUOUS
10
5.82012
20
-1.8338
11
5.82012
21
-1.64272
0
LINE
8
BLACK
6
CONTINUOUS
10
5.82012
20
-1.64272
11
5.26575
21
-1.64272
0
LINE
8
BLACK
6
CONTINUOUS
10
5.26575
20
-1.64272
11
5.26505
21
-1.64243
0
LINE
8
BLACK
6
CONTINUOUS
10
5.26505
20
-1.64243
11
5.26476
21
-1.64173
0
LINE
8
BLACK
6
CONTINUOUS
10
5.26476
20
-1.64173
11
5.26476
21
-1.64173
0
LINE
8
BLACK
6
CONTINUOUS
10
5.26476
20
-1.64173
11
5.26476
21
-1.03543
0
LINE
8
BLACK
6
CONTINUOUS
10
5.26476
20
-1.03543
11
5.26505
21
-1.03474
0
LINE
8
BLACK
6
CONTINUOUS
10
5.26505
20
-1.03474
11
5.26575
21
-1.03445
0
LINE
8
BLACK
6
CONTINUOUS
10
5.26575
20
-1.03445
11
5.95472
21
-1.03445
0
LINE
8
BLACK
6
CONTINUOUS
10
5.95571
20
-1.55919
11
5.95571
21
-1.64173
0
LINE
8
BLACK
6
CONTINUOUS
10
5.95571
20
-1.64173
11
5.95542
21
-1.64243
0
LINE
8
BLACK
6
CONTINUOUS
10
5.95542
20
-1.64243
11
5.95472
21
-1.64272
0
LINE
8
BLACK
6
CONTINUOUS
10
5.95472
20
-1.64272
11
5.82209
21
-1.64272
0
LINE
8
BLACK
6
CONTINUOUS
10
5.82209
20
-1.64272
11
5.82209
21
-1.83281
0
LINE
8
BLACK
6
CONTINUOUS
10
5.82209
20
-1.83281
11
5.95791
21
-1.83281
0
LINE
8
BLACK
6
CONTINUOUS
10
5.95791
20
-1.83281
11
5.95791
21
-1.55919
0
LINE
8
BLACK
6
CONTINUOUS
10
5.95791
20
-1.55919
11
5.95571
21
-1.55919
0
LINE
8
BLACK
6
CONTINUOUS
10
5.26673
20
-1.03642
11
5.26673
21
-1.64075
0
LINE
8
BLACK
6
CONTINUOUS
10
5.26673
20
-1.64075
11
5.82012
21
-1.64075
0
LINE
8
BLACK
6
CONTINUOUS
10
5.82012
20
-1.64075
11
5.82012
21
-1.5582
0
LINE
8
BLACK
6
CONTINUOUS
10
5.82012
20
-1.5582
11
5.82041
21
-1.55751
0
LINE
8
BLACK
6
CONTINUOUS
10
5.82041
20
-1.55751
11
5.8211
21
-1.55722
0
LINE
8
BLACK
6
CONTINUOUS
10
5.8211
20
-1.55722
11
5.95374
21
-1.55722
0
LINE
8
BLACK
6
CONTINUOUS
10
5.95374
20
-1.55722
11
5.95374
21
-1.03642
0
LINE
8
BLACK
6
CONTINUOUS
10
5.95374
20
-1.03642
11
5.26673
21
-1.03642
0
LINE
8
BLACK
6
CONTINUOUS
10
5.82209
20
-1.55919
11
5.82209
21
-1.64075
0
LINE
8
BLACK
6
CONTINUOUS
10
5.82209
20
-1.64075
11
5.95374
21
-1.64075
0
LINE
8
BLACK
6
CONTINUOUS
10
5.95374
20
-1.64075
11
5.95374
21
-1.55919
0
LINE
8
BLACK
6
CONTINUOUS
10
5.95374
20
-1.55919
11
5.82209
21
-1.55919
0
LINE
8
BLACK
6
CONTINUOUS
10
5.10748
20
-1.69272
11
5.10818
21
-1.693
0
LINE
8
BLACK
6
CONTINUOUS
10
5.10818
20
-1.693
11
5.10846
21
-1.6937
0
LINE
8
BLACK
6
CONTINUOUS
10
5.10846
20
-1.6937
11
5.10846
21
-1.81024
0
LINE
8
BLACK
6
CONTINUOUS
10
5.10846
20
-1.81024
11
5.10818
21
-1.81093
0
LINE
8
BLACK
6
CONTINUOUS
10
5.10818
20
-1.81093
11
5.10748
21
-1.81122
0
LINE
8
BLACK
6
CONTINUOUS
10
5.10748
20
-1.81122
11
5.05
21
-1.81122
0
LINE
8
BLACK
6
CONTINUOUS
10
5.05
20
-1.81122
11
5.0493
21
-1.81093
0
LINE
8
BLACK
6
CONTINUOUS
10
5.0493
20
-1.81093
11
5.04902
21
-1.81024
0
LINE
8
BLACK
6
CONTINUOUS
10
5.04902
20
-1.81024
11
5.04902
21
-1.6937
0
LINE
8
BLACK
6
CONTINUOUS
10
5.04902
20
-1.6937
11
5.0493
21
-1.693
0
LINE
8
BLACK
6
CONTINUOUS
10
5.0493
20
-1.693
11
5.05
21
-1.69272
0
LINE
8
BLACK
6
CONTINUOUS
10
5.05
20
-1.69272
11
5.10748
21
-1.69272
0
LINE
8
BLACK
6
CONTINUOUS
10
5.05098
20
-1.69469
11
5.05098
21
-1.80925
0
LINE
8
BLACK
6
CONTINUOUS
10
5.05098
20
-1.80925
11
5.1065
21
-1.80925
0
LINE
8
BLACK
6
CONTINUOUS
10
5.1065
20
-1.80925
11
5.1065
21
-1.69469
0
LINE
8
BLACK
6
CONTINUOUS
10
5.1065
20
-1.69469
11
5.05098
21
-1.69469
0
LINE
8
BLACK
6
CONTINUOUS
10
2.64567
20
-1.69272
11
2.64637
21
-1.693
0
LINE
8
BLACK
6
CONTINUOUS
10
2.64637
20
-1.693
11
2.64665
21
-1.6937
0
LINE
8
BLACK
6
CONTINUOUS
10
2.64665
20
-1.6937
11
2.64665
21
-1.77087
0
LINE
8
BLACK
6
CONTINUOUS
10
2.64665
20
-1.77087
11
2.64637
21
-1.77156
0
LINE
8
BLACK
6
CONTINUOUS
10
2.64637
20
-1.77156
11
2.64567
21
-1.77185
0
LINE
8
BLACK
6
CONTINUOUS
10
2.64567
20
-1.77185
11
2.51181
21
-1.77185
0
LINE
8
BLACK
6
CONTINUOUS
10
2.51181
20
-1.77185
11
2.51112
21
-1.77156
0
LINE
8
BLACK
6
CONTINUOUS
10
2.51112
20
-1.77156
11
2.51083
21
-1.77087
0
LINE
8
BLACK
6
CONTINUOUS
10
2.51083
20
-1.77087
11
2.51083
21
-1.6937
0
LINE
8
BLACK
6
CONTINUOUS
10
2.51083
20
-1.6937
11
2.51112
21
-1.693
0
LINE
8
BLACK
6
CONTINUOUS
10
2.51112
20
-1.693
11
2.51181
21
-1.69272
0
LINE
8
BLACK
6
CONTINUOUS
10
2.51181
20
-1.69272
11
2.64567
21
-1.69272
0
LINE
8
BLACK
6
CONTINUOUS
10
2.5128
20
-1.69469
11
2.5128
21
-1.76988
0
LINE
8
BLACK
6
CONTINUOUS
10
2.5128
20
-1.76988
11
2.64469
21
-1.76988
0
LINE
8
BLACK
6
CONTINUOUS
10
2.64469
20
-1.76988
11
2.64469
21
-1.69469
0
LINE
8
BLACK
6
CONTINUOUS
10
2.64469
20
-1.69469
11
2.5128
21
-1.69469
0
LINE
8
BLACK
6
CONTINUOUS
10
3.62992
20
-1.69272
11
3.63062
21
-1.693
0
LINE
8
BLACK
6
CONTINUOUS
10
3.63062
20
-1.693
11
3.63091
21
-1.6937
0
LINE
8
BLACK
6
CONTINUOUS
10
3.63091
20
-1.6937
11
3.63091
21
-1.77087
0
LINE
8
BLACK
6
CONTINUOUS
10
3.63091
20
-1.77087
11
3.63062
21
-1.77156
0
LINE
8
BLACK
6
CONTINUOUS
10
3.63062
20
-1.77156
11
3.62992
21
-1.77185
0
LINE
8
BLACK
6
CONTINUOUS
10
3.62992
20
-1.77185
11
3.49606
21
-1.77185
0
LINE
8
BLACK
6
CONTINUOUS
10
3.49606
20
-1.77185
11
3.49537
21
-1.77156
0
LINE
8
BLACK
6
CONTINUOUS
10
3.49537
20
-1.77156
11
3.49508
21
-1.77087
0
LINE
8
BLACK
6
CONTINUOUS
10
3.49508
20
-1.77087
11
3.49508
21
-1.6937
0
LINE
8
BLACK
6
CONTINUOUS
10
3.49508
20
-1.6937
11
3.49537
21
-1.693
0
LINE
8
BLACK
6
CONTINUOUS
10
3.49537
20
-1.693
11
3.49606
21
-1.69272
0
LINE
8
BLACK
6
CONTINUOUS
10
3.49606
20
-1.69272
11
3.62992
21
-1.69272
0
LINE
8
BLACK
6
CONTINUOUS
10
3.49705
20
-1.69469
11
3.49705
21
-1.76988
0
LINE
8
BLACK
6
CONTINUOUS
10
3.49705
20
-1.76988
11
3.62894
21
-1.76988
0
LINE
8
BLACK
6
CONTINUOUS
10
3.62894
20
-1.76988
11
3.62894
21
-1.69469
0
LINE
8
BLACK
6
CONTINUOUS
10
3.62894
20
-1.69469
11
3.49705
21
-1.69469
0
LINE
8
BLACK
6
CONTINUOUS
10
4.61417
20
-1.69272
11
4.61487
21
-1.693
0
LINE
8
BLACK
6
CONTINUOUS
10
4.61487
20
-1.693
11
4.61516
21
-1.6937
0
LINE
8
BLACK
6
CONTINUOUS
10
4.61516
20
-1.6937
11
4.61516
21
-1.77087
0
LINE
8
BLACK
6
CONTINUOUS
10
4.61516
20
-1.77087
11
4.61487
21
-1.77156
0
LINE
8
BLACK
6
CONTINUOUS
10
4.61487
20
-1.77156
11
4.61417
21
-1.77185
0
LINE
8
BLACK
6
CONTINUOUS
10
4.61417
20
-1.77185
11
4.48031
21
-1.77185
0
LINE
8
BLACK
6
CONTINUOUS
10
4.48031
20
-1.77185
11
4.47962
21
-1.77156
0
LINE
8
BLACK
6
CONTINUOUS
10
4.47962
20
-1.77156
11
4.47933
21
-1.77087
0
LINE
8
BLACK
6
CONTINUOUS
10
4.47933
20
-1.77087
11
4.47933
21
-1.6937
0
LINE
8
BLACK
6
CONTINUOUS
10
4.47933
20
-1.6937
11
4.47962
21
-1.693
0
LINE
8
BLACK
6
CONTINUOUS
10
4.47962
20
-1.693
11
4.48031
21
-1.69272
0
LINE
8
BLACK
6
CONTINUOUS
10
4.48031
20
-1.69272
11
4.61417
21
-1.69272
0
LINE
8
BLACK
6
CONTINUOUS
10
4.4813
20
-1.69469
11
4.4813
21
-1.76988
0
LINE
8
BLACK
6
CONTINUOUS
10
4.4813
20
-1.76988
11
4.61319
21
-1.76988
0
LINE
8
BLACK
6
CONTINUOUS
10
4.61319
20
-1.76988
11
4.61319
21
-1.69469
0
LINE
8
BLACK
6
CONTINUOUS
10
4.61319
20
-1.69469
11
4.4813
21
-1.69469
0
LINE
8
BLACK
6
CONTINUOUS
10
5.59843
20
-1.69272
11
5.59912
21
-1.693
0
LINE
8
BLACK
6
CONTINUOUS
10
5.59912
20
-1.693
11
5.59941
21
-1.6937
0
LINE
8
BLACK
6
CONTINUOUS
10
5.59941
20
-1.6937
11
5.59941
21
-1.77087
0
LINE
8
BLACK
6
CONTINUOUS
10
5.59941
20
-1.77087
11
5.59912
21
-1.77156
0
LINE
8
BLACK
6
CONTINUOUS
10
5.59912
20
-1.77156
11
5.59843
21
-1.77185
0
LINE
8
BLACK
6
CONTINUOUS
10
5.59843
20
-1.77185
11
5.46457
21
-1.77185
0
LINE
8
BLACK
6
CONTINUOUS
10
5.46457
20
-1.77185
11
5.46387
21
-1.77156
0
LINE
8
BLACK
6
CONTINUOUS
10
5.46387
20
-1.77156
11
5.46358
21
-1.77087
0
LINE
8
BLACK
6
CONTINUOUS
10
5.46358
20
-1.77087
11
5.46358
21
-1.6937
0
LINE
8
BLACK
6
CONTINUOUS
10
5.46358
20
-1.6937
11
5.46387
21
-1.693
0
LINE
8
BLACK
6
CONTINUOUS
10
5.46387
20
-1.693
11
5.46457
21
-1.69272
0
LINE
8
BLACK
6
CONTINUOUS
10
5.46457
20
-1.69272
11
5.59843
21
-1.69272
0
LINE
8
BLACK
6
CONTINUOUS
10
5.46555
20
-1.69469
11
5.46555
21
-1.76988
0
LINE
8
BLACK
6
CONTINUOUS
10
5.46555
20
-1.76988
11
5.59744
21
-1.76988
0
LINE
8
BLACK
6
CONTINUOUS
10
5.59744
20
-1.76988
11
5.59744
21
-1.69469
0
LINE
8
BLACK
6
CONTINUOUS
10
5.59744
20
-1.69469
11
5.46555
21
-1.69469
0
LINE
8
BLACK
6
CONTINUOUS
10
5.18504
20
-1.61004
11
5.18574
21
-1.61033
0
LINE
8
BLACK
6
CONTINUOUS
10
5.18574
20
-1.61033
11
5.18602
21
-1.61102
0
LINE
8
BLACK
6
CONTINUOUS
10
5.18602
20
-1.61102
11
5.18602
21
-1.68819
0
LINE
8
BLACK
6
CONTINUOUS
10
5.18602
20
-1.68819
11
5.18574
21
-1.68888
0
LINE
8
BLACK
6
CONTINUOUS
10
5.18574
20
-1.68888
11
5.18504
21
-1.68917
0
LINE
8
BLACK
6
CONTINUOUS
10
5.18504
20
-1.68917
11
5.05118
21
-1.68917
0
LINE
8
BLACK
6
CONTINUOUS
10
5.05118
20
-1.68917
11
5.05049
21
-1.68888
0
LINE
8
BLACK
6
CONTINUOUS
10
5.05049
20
-1.68888
11
5.0502
21
-1.68819
0
LINE
8
BLACK
6
CONTINUOUS
10
5.0502
20
-1.68819
11
5.0502
21
-1.61102
0
LINE
8
BLACK
6
CONTINUOUS
10
5.0502
20
-1.61102
11
5.05049
21
-1.61033
0
LINE
8
BLACK
6
CONTINUOUS
10
5.05049
20
-1.61033
11
5.05118
21
-1.61004
0
LINE
8
BLACK
6
CONTINUOUS
10
5.05118
20
-1.61004
11
5.18504
21
-1.61004
0
LINE
8
BLACK
6
CONTINUOUS
10
5.05217
20
-1.61201
11
5.05217
21
-1.6872
0
LINE
8
BLACK
6
CONTINUOUS
10
5.05217
20
-1.6872
11
5.18406
21
-1.6872
0
LINE
8
BLACK
6
CONTINUOUS
10
5.18406
20
-1.6872
11
5.18406
21
-1.61201
0
LINE
8
BLACK
6
CONTINUOUS
10
5.18406
20
-1.61201
11
5.05217
21
-1.61201
0
LINE
8
BLACK
6
CONTINUOUS
10
3.00197
20
-1.03445
11
3.00266
21
-1.03474
0
LINE
8
BLACK
6
CONTINUOUS
10
3.00266
20
-1.03474
11
3.00295
21
-1.03543
0
LINE
8
BLACK
6
CONTINUOUS
10
3.00295
20
-1.03543
11
3.00295
21
-1.64173
0
LINE
8
BLACK
6
CONTINUOUS
10
3.00295
20
-1.64173
11
3.00266
21
-1.64243
0
LINE
8
BLACK
6
CONTINUOUS
10
3.00266
20
-1.64243
11
3.00197
21
-1.64272
0
LINE
8
BLACK
6
CONTINUOUS
10
3.00197
20
-1.64272
11
2.31299
21
-1.64272
0
LINE
8
BLACK
6
CONTINUOUS
10
2.31299
20
-1.64272
11
2.3123
21
-1.64243
0
LINE
8
BLACK
6
CONTINUOUS
10
2.3123
20
-1.64243
11
2.31201
21
-1.64173
0
LINE
8
BLACK
6
CONTINUOUS
10
2.31201
20
-1.64173
11
2.31201
21
-1.03543
0
LINE
8
BLACK
6
CONTINUOUS
10
2.31201
20
-1.03543
11
2.3123
21
-1.03474
0
LINE
8
BLACK
6
CONTINUOUS
10
2.3123
20
-1.03474
11
2.31299
21
-1.03445
0
LINE
8
BLACK
6
CONTINUOUS
10
2.31299
20
-1.03445
11
3.00197
21
-1.03445
0
LINE
8
BLACK
6
CONTINUOUS
10
2.31398
20
-1.03642
11
2.31398
21
-1.64075
0
LINE
8
BLACK
6
CONTINUOUS
10
2.31398
20
-1.64075
11
3.00098
21
-1.64075
0
LINE
8
BLACK
6
CONTINUOUS
10
3.00098
20
-1.64075
11
3.00098
21
-1.03642
0
LINE
8
BLACK
6
CONTINUOUS
10
3.00098
20
-1.03642
11
2.31398
21
-1.03642
0
LINE
8
BLACK
6
CONTINUOUS
10
1.73819
20
-1.29035
11
1.73888
21
-1.29064
0
LINE
8
BLACK
6
CONTINUOUS
10
1.73888
20
-1.29064
11
1.73917
21
-1.29134
0
LINE
8
BLACK
6
CONTINUOUS
10
1.73917
20
-1.29134
11
1.73917
21
-1.46457
0
LINE
8
BLACK
6
CONTINUOUS
10
1.73917
20
-1.46457
11
1.73888
21
-1.46526
0
LINE
8
BLACK
6
CONTINUOUS
10
1.73888
20
-1.46526
11
1.73819
21
-1.46555
0
LINE
8
BLACK
6
CONTINUOUS
10
1.73819
20
-1.46555
11
1.64764
21
-1.46555
0
LINE
8
BLACK
6
CONTINUOUS
10
1.64764
20
-1.46555
11
1.64694
21
-1.46526
0
LINE
8
BLACK
6
CONTINUOUS
10
1.64694
20
-1.46526
11
1.64665
21
-1.46457
0
LINE
8
BLACK
6
CONTINUOUS
10
1.64665
20
-1.46457
11
1.64665
21
-1.29134
0
LINE
8
BLACK
6
CONTINUOUS
10
1.64665
20
-1.29134
11
1.64694
21
-1.29064
0
LINE
8
BLACK
6
CONTINUOUS
10
1.64694
20
-1.29064
11
1.64764
21
-1.29035
0
LINE
8
BLACK
6
CONTINUOUS
10
1.64764
20
-1.29035
11
1.73819
21
-1.29035
0
LINE
8
BLACK
6
CONTINUOUS
10
1.64862
20
-1.29232
11
1.64862
21
-1.46358
0
LINE
8
BLACK
6
CONTINUOUS
10
1.64862
20
-1.46358
11
1.7372
21
-1.46358
0
LINE
8
BLACK
6
CONTINUOUS
10
1.7372
20
-1.46358
11
1.7372
21
-1.29232
0
LINE
8
BLACK
6
CONTINUOUS
10
1.7372
20
-1.29232
11
1.64862
21
-1.29232
0
LINE
8
BLACK
6
CONTINUOUS
10
1.91654
20
-1.33957
11
1.91723
21
-1.33986
0
LINE
8
BLACK
6
CONTINUOUS
10
1.91723
20
-1.33986
11
1.91752
21
-1.34055
0
LINE
8
BLACK
6
CONTINUOUS
10
1.91752
20
-1.34055
11
1.91752
21
-1.41535
0
LINE
8
BLACK
6
CONTINUOUS
10
1.91752
20
-1.41535
11
1.91723
21
-1.41605
0
LINE
8
BLACK
6
CONTINUOUS
10
1.91723
20
-1.41605
11
1.91654
21
-1.41634
0
LINE
8
BLACK
6
CONTINUOUS
10
1.91654
20
-1.41634
11
1.78425
21
-1.41634
0
LINE
8
BLACK
6
CONTINUOUS
10
1.78425
20
-1.41634
11
1.78356
21
-1.41605
0
LINE
8
BLACK
6
CONTINUOUS
10
1.78356
20
-1.41605
11
1.78327
21
-1.41535
0
LINE
8
BLACK
6
CONTINUOUS
10
1.78327
20
-1.41535
11
1.78327
21
-1.34055
0
LINE
8
BLACK
6
CONTINUOUS
10
1.78327
20
-1.34055
11
1.78356
21
-1.33986
0
LINE
8
BLACK
6
CONTINUOUS
10
1.78356
20
-1.33986
11
1.78425
21
-1.33957
0
LINE
8
BLACK
6
CONTINUOUS
10
1.78425
20
-1.33957
11
1.91654
21
-1.33957
0
LINE
8
BLACK
6
CONTINUOUS
10
1.78524
20
-1.34154
11
1.78524
21
-1.41437
0
LINE
8
BLACK
6
CONTINUOUS
10
1.78524
20
-1.41437
11
1.91555
21
-1.41437
0
LINE
8
BLACK
6
CONTINUOUS
10
1.91555
20
-1.41437
11
1.91555
21
-1.34154
0
LINE
8
BLACK
6
CONTINUOUS
10
1.91555
20
-1.34154
11
1.78524
21
-1.34154
0
LINE
8
BLACK
6
CONTINUOUS
10
2.06614
20
-1.34823
11
2.06684
21
-1.34852
0
LINE
8
BLACK
6
CONTINUOUS
10
2.06684
20
-1.34852
11
2.06713
21
-1.34921
0
LINE
8
BLACK
6
CONTINUOUS
10
2.06713
20
-1.34921
11
2.06713
21
-1.40669
0
LINE
8
BLACK
6
CONTINUOUS
10
2.06713
20
-1.40669
11
2.06684
21
-1.40739
0
LINE
8
BLACK
6
CONTINUOUS
10
2.06684
20
-1.40739
11
2.06614
21
-1.40768
0
LINE
8
BLACK
6
CONTINUOUS
10
2.06614
20
-1.40768
11
1.94961
21
-1.40768
0
LINE
8
BLACK
6
CONTINUOUS
10
1.94961
20
-1.40768
11
1.94891
21
-1.40739
0
LINE
8
BLACK
6
CONTINUOUS
10
1.94891
20
-1.40739
11
1.94862
21
-1.40669
0
LINE
8
BLACK
6
CONTINUOUS
10
1.94862
20
-1.40669
11
1.94862
21
-1.34921
0
LINE
8
BLACK
6
CONTINUOUS
10
1.94862
20
-1.34921
11
1.94891
21
-1.34852
0
LINE
8
BLACK
6
CONTINUOUS
10
1.94891
20
-1.34852
11
1.94961
21
-1.34823
0
LINE
8
BLACK
6
CONTINUOUS
10
1.94961
20
-1.34823
11
2.06614
21
-1.34823
0
LINE
8
BLACK
6
CONTINUOUS
10
1.95059
20
-1.3502
11
1.95059
21
-1.40571
0
LINE
8
BLACK
6
CONTINUOUS
10
1.95059
20
-1.40571
11
2.06516
21
-1.40571
0
LINE
8
BLACK
6
CONTINUOUS
10
2.06516
20
-1.40571
11
2.06516
21
-1.3502
0
LINE
8
BLACK
6
CONTINUOUS
10
2.06516
20
-1.3502
11
1.95059
21
-1.3502
0
LINE
8
BLACK
6
CONTINUOUS
10
2.17441
20
-1.20059
11
2.17511
21
-1.20088
0
LINE
8
BLACK
6
CONTINUOUS
10
2.17511
20
-1.20088
11
2.17539
21
-1.20157
0
LINE
8
BLACK
6
CONTINUOUS
10
2.17539
20
-1.20157
11
2.17539
21
-1.31811
0
LINE
8
BLACK
6
CONTINUOUS
10
2.17539
20
-1.31811
11
2.17511
21
-1.31881
0
LINE
8
BLACK
6
CONTINUOUS
10
2.17511
20
-1.31881
11
2.17441
21
-1.31909
0
LINE
8
BLACK
6
CONTINUOUS
10
2.17441
20
-1.31909
11
2.11693
21
-1.31909
0
LINE
8
BLACK
6
CONTINUOUS
10
2.11693
20
-1.31909
11
2.11623
21
-1.31881
0
LINE
8
BLACK
6
CONTINUOUS
10
2.11623
20
-1.31881
11
2.11594
21
-1.31811
0
LINE
8
BLACK
6
CONTINUOUS
10
2.11594
20
-1.31811
11
2.11594
21
-1.20157
0
LINE
8
BLACK
6
CONTINUOUS
10
2.11594
20
-1.20157
11
2.11623
21
-1.20088
0
LINE
8
BLACK
6
CONTINUOUS
10
2.11623
20
-1.20088
11
2.11693
21
-1.20059
0
LINE
8
BLACK
6
CONTINUOUS
10
2.11693
20
-1.20059
11
2.17441
21
-1.20059
0
LINE
8
BLACK
6
CONTINUOUS
10
2.11791
20
-1.20256
11
2.11791
21
-1.31713
0
LINE
8
BLACK
6
CONTINUOUS
10
2.11791
20
-1.31713
11
2.17343
21
-1.31713
0
LINE
8
BLACK
6
CONTINUOUS
10
2.17343
20
-1.31713
11
2.17343
21
-1.20256
0
LINE
8
BLACK
6
CONTINUOUS
10
2.17343
20
-1.20256
11
2.11791
21
-1.20256
0
LINE
8
BLACK
6
CONTINUOUS
10
2.01496
20
-1.22146
11
2.01566
21
-1.22174
0
LINE
8
BLACK
6
CONTINUOUS
10
2.01566
20
-1.22174
11
2.01594
21
-1.22244
0
LINE
8
BLACK
6
CONTINUOUS
10
2.01594
20
-1.22244
11
2.01594
21
-1.29724
0
LINE
8
BLACK
6
CONTINUOUS
10
2.01594
20
-1.29724
11
2.01566
21
-1.29794
0
LINE
8
BLACK
6
CONTINUOUS
10
2.01566
20
-1.29794
11
2.01496
21
-1.29823
0
LINE
8
BLACK
6
CONTINUOUS
10
2.01496
20
-1.29823
11
1.88268
21
-1.29823
0
LINE
8
BLACK
6
CONTINUOUS
10
1.88268
20
-1.29823
11
1.88198
21
-1.29794
0
LINE
8
BLACK
6
CONTINUOUS
10
1.88198
20
-1.29794
11
1.88169
21
-1.29724
0
LINE
8
BLACK
6
CONTINUOUS
10
1.88169
20
-1.29724
11
1.88169
21
-1.22244
0
LINE
8
BLACK
6
CONTINUOUS
10
1.88169
20
-1.22244
11
1.88198
21
-1.22174
0
LINE
8
BLACK
6
CONTINUOUS
10
1.88198
20
-1.22174
11
1.88268
21
-1.22146
0
LINE
8
BLACK
6
CONTINUOUS
10
1.88268
20
-1.22146
11
2.01496
21
-1.22146
0
LINE
8
BLACK
6
CONTINUOUS
10
1.88366
20
-1.22343
11
1.88366
21
-1.29626
0
LINE
8
BLACK
6
CONTINUOUS
10
1.88366
20
-1.29626
11
2.01398
21
-1.29626
0
LINE
8
BLACK
6
CONTINUOUS
10
2.01398
20
-1.29626
11
2.01398
21
-1.22343
0
LINE
8
BLACK
6
CONTINUOUS
10
2.01398
20
-1.22343
11
1.88366
21
-1.22343
0
LINE
8
BLACK
6
CONTINUOUS
10
3.82874
20
-0.705709
11
3.82944
21
-0.705997
0
LINE
8
BLACK
6
CONTINUOUS
10
3.82944
20
-0.705997
11
3.82972
21
-0.706693
0
LINE
8
BLACK
6
CONTINUOUS
10
3.82972
20
-0.706693
11
3.82972
21
-0.776575
0
LINE
8
BLACK
6
CONTINUOUS
10
3.82972
20
-0.776575
11
3.94685
21
-0.776575
0
LINE
8
BLACK
6
CONTINUOUS
10
3.94685
20
-0.776575
11
3.94755
21
-0.776863
0
LINE
8
BLACK
6
CONTINUOUS
10
3.94755
20
-0.776863
11
3.94783
21
-0.777559
0
LINE
8
BLACK
6
CONTINUOUS
10
3.94783
20
-0.777559
11
3.94783
21
-1.27756
0
LINE
8
BLACK
6
CONTINUOUS
10
3.94783
20
-1.27756
11
3.94755
21
-1.27826
0
LINE
8
BLACK
6
CONTINUOUS
10
3.94755
20
-1.27826
11
3.94685
21
-1.27854
0
LINE
8
BLACK
6
CONTINUOUS
10
3.94685
20
-1.27854
11
3.45472
21
-1.27854
0
LINE
8
BLACK
6
CONTINUOUS
10
3.45472
20
-1.27854
11
3.45403
21
-1.27826
0
LINE
8
BLACK
6
CONTINUOUS
10
3.45403
20
-1.27826
11
3.45374
21
-1.27756
0
LINE
8
BLACK
6
CONTINUOUS
10
3.45374
20
-1.27756
11
3.45374
21
-0.787402
0
LINE
8
BLACK
6
CONTINUOUS
10
3.45374
20
-0.787402
11
3.45374
21
-0.777559
0
LINE
8
BLACK
6
CONTINUOUS
10
3.45374
20
-0.777559
11
3.45403
21
-0.776863
0
LINE
8
BLACK
6
CONTINUOUS
10
3.45403
20
-0.776863
11
3.45472
21
-0.776575
0
LINE
8
BLACK
6
CONTINUOUS
10
3.45472
20
-0.776575
11
3.57185
21
-0.776575
0
LINE
8
BLACK
6
CONTINUOUS
10
3.57185
20
-0.776575
11
3.57185
21
-0.706693
0
LINE
8
BLACK
6
CONTINUOUS
10
3.57185
20
-0.706693
11
3.57214
21
-0.705997
0
LINE
8
BLACK
6
CONTINUOUS
10
3.57214
20
-0.705997
11
3.57283
21
-0.705709
0
LINE
8
BLACK
6
CONTINUOUS
10
3.57283
20
-0.705709
11
3.82874
21
-0.705709
0
LINE
8
BLACK
6
CONTINUOUS
10
3.57382
20
-0.707677
11
3.57382
21
-0.777559
0
LINE
8
BLACK
6
CONTINUOUS
10
3.57382
20
-0.777559
11
3.57353
21
-0.778255
0
LINE
8
BLACK
6
CONTINUOUS
10
3.57353
20
-0.778255
11
3.57283
21
-0.778543
0
LINE
8
BLACK
6
CONTINUOUS
10
3.57283
20
-0.778543
11
3.45571
21
-0.778543
0
LINE
8
BLACK
6
CONTINUOUS
10
3.45571
20
-0.778543
11
3.45571
21
-0.787402
0
LINE
8
BLACK
6
CONTINUOUS
10
3.45571
20
-0.787402
11
3.45571
21
-1.27657
0
LINE
8
BLACK
6
CONTINUOUS
10
3.45571
20
-1.27657
11
3.94587
21
-1.27657
0
LINE
8
BLACK
6
CONTINUOUS
10
3.94587
20
-1.27657
11
3.94587
21
-0.778543
0
LINE
8
BLACK
6
CONTINUOUS
10
3.94587
20
-0.778543
11
3.82874
21
-0.778543
0
LINE
8
BLACK
6
CONTINUOUS
10
3.82874
20
-0.778543
11
3.82804
21
-0.778255
0
LINE
8
BLACK
6
CONTINUOUS
10
3.82804
20
-0.778255
11
3.82776
21
-0.777559
0
LINE
8
BLACK
6
CONTINUOUS
10
3.82776
20
-0.777559
11
3.82776
21
-0.707677
0
LINE
8
BLACK
6
CONTINUOUS
10
3.82776
20
-0.707677
11
3.57382
21
-0.707677
0
LINE
8
BLACK
6
CONTINUOUS
10
4.69488
20
-0.705709
11
4.69558
21
-0.705997
0
LINE
8
BLACK
6
CONTINUOUS
10
4.69558
20
-0.705997
11
4.69587
21
-0.706693
0
LINE
8
BLACK
6
CONTINUOUS
10
4.69587
20
-0.706693
11
4.69587
21
-0.776575
0
LINE
8
BLACK
6
CONTINUOUS
10
4.69587
20
-0.776575
11
4.81299
21
-0.776575
0
LINE
8
BLACK
6
CONTINUOUS
10
4.81299
20
-0.776575
11
4.81369
21
-0.776863
0
LINE
8
BLACK
6
CONTINUOUS
10
4.81369
20
-0.776863
11
4.81398
21
-0.777559
0
LINE
8
BLACK
6
CONTINUOUS
10
4.81398
20
-0.777559
11
4.81398
21
-1.27756
0
LINE
8
BLACK
6
CONTINUOUS
10
4.81398
20
-1.27756
11
4.81369
21
-1.27826
0
LINE
8
BLACK
6
CONTINUOUS
10
4.81369
20
-1.27826
11
4.81299
21
-1.27854
0
LINE
8
BLACK
6
CONTINUOUS
10
4.81299
20
-1.27854
11
4.32087
21
-1.27854
0
LINE
8
BLACK
6
CONTINUOUS
10
4.32087
20
-1.27854
11
4.32017
21
-1.27826
0
LINE
8
BLACK
6
CONTINUOUS
10
4.32017
20
-1.27826
11
4.31988
21
-1.27756
0
LINE
8
BLACK
6
CONTINUOUS
10
4.31988
20
-1.27756
11
4.31988
21
-0.787402
0
LINE
8
BLACK
6
CONTINUOUS
10
4.31988
20
-0.787402
11
4.31988
21
-0.777559
0
LINE
8
BLACK
6
CONTINUOUS
10
4.31988
20
-0.777559
11
4.32017
21
-0.776863
0
LINE
8
BLACK
6
CONTINUOUS
10
4.32017
20
-0.776863
11
4.32087
21
-0.776575
0
LINE
8
BLACK
6
CONTINUOUS
10
4.32087
20
-0.776575
11
4.43799
21
-0.776575
0
LINE
8
BLACK
6
CONTINUOUS
10
4.43799
20
-0.776575
11
4.43799
21
-0.706693
0
LINE
8
BLACK
6
CONTINUOUS
10
4.43799
20
-0.706693
11
4.43828
21
-0.705997
0
LINE
8
BLACK
6
CONTINUOUS
10
4.43828
20
-0.705997
11
4.43898
21
-0.705709
0
LINE
8
BLACK
6
CONTINUOUS
10
4.43898
20
-0.705709
11
4.69488
21
-0.705709
0
LINE
8
BLACK
6
CONTINUOUS
10
4.43996
20
-0.707677
11
4.43996
21
-0.777559
0
LINE
8
BLACK
6
CONTINUOUS
10
4.43996
20
-0.777559
11
4.43967
21
-0.778255
0
LINE
8
BLACK
6
CONTINUOUS
10
4.43967
20
-0.778255
11
4.43898
21
-0.778543
0
LINE
8
BLACK
6
CONTINUOUS
10
4.43898
20
-0.778543
11
4.32185
21
-0.778543
0
LINE
8
BLACK
6
CONTINUOUS
10
4.32185
20
-0.778543
11
4.32185
21
-0.787402
0
LINE
8
BLACK
6
CONTINUOUS
10
4.32185
20
-0.787402
11
4.32185
21
-1.27657
0
LINE
8
BLACK
6
CONTINUOUS
10
4.32185
20
-1.27657
11
4.81201
21
-1.27657
0
LINE
8
BLACK
6
CONTINUOUS
10
4.81201
20
-1.27657
11
4.81201
21
-0.778543
0
LINE
8
BLACK
6
CONTINUOUS
10
4.81201
20
-0.778543
11
4.69488
21
-0.778543
0
LINE
8
BLACK
6
CONTINUOUS
10
4.69488
20
-0.778543
11
4.69419
21
-0.778255
0
LINE
8
BLACK
6
CONTINUOUS
10
4.69419
20
-0.778255
11
4.6939
21
-0.777559
0
LINE
8
BLACK
6
CONTINUOUS
10
4.6939
20
-0.777559
11
4.6939
21
-0.707677
0
LINE
8
BLACK
6
CONTINUOUS
10
4.6939
20
-0.707677
11
4.43996
21
-0.707677
0
LINE
8
BLACK
6
CONTINUOUS
10
6.79724
20
-1.05413
11
6.79794
21
-1.05442
0
LINE
8
BLACK
6
CONTINUOUS
10
6.79794
20
-1.05442
11
6.79823
21
-1.05512
0
LINE
8
BLACK
6
CONTINUOUS
10
6.79823
20
-1.05512
11
6.79823
21
-1.20866
0
LINE
8
BLACK
6
CONTINUOUS
10
6.79823
20
-1.20866
11
6.79794
21
-1.20936
0
LINE
8
BLACK
6
CONTINUOUS
10
6.79794
20
-1.20936
11
6.79724
21
-1.20965
0
LINE
8
BLACK
6
CONTINUOUS
10
6.79724
20
-1.20965
11
6.56496
21
-1.20965
0
LINE
8
BLACK
6
CONTINUOUS
10
6.56496
20
-1.20965
11
6.56426
21
-1.20936
0
LINE
8
BLACK
6
CONTINUOUS
10
6.56426
20
-1.20936
11
6.56398
21
-1.20866
0
LINE
8
BLACK
6
CONTINUOUS
10
6.56398
20
-1.20866
11
6.56398
21
-1.05512
0
LINE
8
BLACK
6
CONTINUOUS
10
6.56398
20
-1.05512
11
6.56426
21
-1.05442
0
LINE
8
BLACK
6
CONTINUOUS
10
6.56426
20
-1.05442
11
6.56496
21
-1.05413
0
LINE
8
BLACK
6
CONTINUOUS
10
6.56496
20
-1.05413
11
6.79724
21
-1.05413
0
LINE
8
BLACK
6
CONTINUOUS
10
6.56594
20
-1.0561
11
6.56594
21
-1.20768
0
LINE
8
BLACK
6
CONTINUOUS
10
6.56594
20
-1.20768
11
6.79626
21
-1.20768
0
LINE
8
BLACK
6
CONTINUOUS
10
6.79626
20
-1.20768
11
6.79626
21
-1.0561
0
LINE
8
BLACK
6
CONTINUOUS
10
6.79626
20
-1.0561
11
6.56594
21
-1.0561
0
LINE
8
BLACK
6
CONTINUOUS
10
1.88898
20
-1.11201
11
1.88967
21
-1.1123
0
LINE
8
BLACK
6
CONTINUOUS
10
1.88967
20
-1.1123
11
1.88996
21
-1.11299
0
LINE
8
BLACK
6
CONTINUOUS
10
1.88996
20
-1.11299
11
1.88996
21
-1.17047
0
LINE
8
BLACK
6
CONTINUOUS
10
1.88996
20
-1.17047
11
1.88967
21
-1.17117
0
LINE
8
BLACK
6
CONTINUOUS
10
1.88967
20
-1.17117
11
1.88898
21
-1.17146
0
LINE
8
BLACK
6
CONTINUOUS
10
1.88898
20
-1.17146
11
1.77244
21
-1.17146
0
LINE
8
BLACK
6
CONTINUOUS
10
1.77244
20
-1.17146
11
1.77174
21
-1.17117
0
LINE
8
BLACK
6
CONTINUOUS
10
1.77174
20
-1.17117
11
1.77146
21
-1.17047
0
LINE
8
BLACK
6
CONTINUOUS
10
1.77146
20
-1.17047
11
1.77146
21
-1.11299
0
LINE
8
BLACK
6
CONTINUOUS
10
1.77146
20
-1.11299
11
1.77174
21
-1.1123
0
LINE
8
BLACK
6
CONTINUOUS
10
1.77174
20
-1.1123
11
1.77244
21
-1.11201
0
LINE
8
BLACK
6
CONTINUOUS
10
1.77244
20
-1.11201
11
1.88898
21
-1.11201
0
LINE
8
BLACK
6
CONTINUOUS
10
1.77343
20
-1.11398
11
1.77343
21
-1.16949
0
LINE
8
BLACK
6
CONTINUOUS
10
1.77343
20
-1.16949
11
1.88799
21
-1.16949
0
LINE
8
BLACK
6
CONTINUOUS
10
1.88799
20
-1.16949
11
1.88799
21
-1.11398
0
LINE
8
BLACK
6
CONTINUOUS
10
1.88799
20
-1.11398
11
1.77343
21
-1.11398
0
LINE
8
BLACK
6
CONTINUOUS
10
6.5248
20
-1.00295
11
6.5255
21
-1.00324
0
LINE
8
BLACK
6
CONTINUOUS
10
6.5255
20
-1.00324
11
6.52579
21
-1.00394
0
LINE
8
BLACK
6
CONTINUOUS
10
6.52579
20
-1.00394
11
6.52579
21
-1.1378
0
LINE
8
BLACK
6
CONTINUOUS
10
6.52579
20
-1.1378
11
6.5255
21
-1.13849
0
LINE
8
BLACK
6
CONTINUOUS
10
6.5255
20
-1.13849
11
6.5248
21
-1.13878
0
LINE
8
BLACK
6
CONTINUOUS
10
6.5248
20
-1.13878
11
6.44764
21
-1.13878
0
LINE
8
BLACK
6
CONTINUOUS
10
6.44764
20
-1.13878
11
6.44694
21
-1.13849
0
LINE
8
BLACK
6
CONTINUOUS
10
6.44694
20
-1.13849
11
6.44665
21
-1.1378
0
LINE
8
BLACK
6
CONTINUOUS
10
6.44665
20
-1.1378
11
6.44665
21
-1.00394
0
LINE
8
BLACK
6
CONTINUOUS
10
6.44665
20
-1.00394
11
6.44694
21
-1.00324
0
LINE
8
BLACK
6
CONTINUOUS
10
6.44694
20
-1.00324
11
6.44764
21
-1.00295
0
LINE
8
BLACK
6
CONTINUOUS
10
6.44764
20
-1.00295
11
6.5248
21
-1.00295
0
LINE
8
BLACK
6
CONTINUOUS
10
6.44862
20
-1.00492
11
6.44862
21
-1.13681
0
LINE
8
BLACK
6
CONTINUOUS
10
6.44862
20
-1.13681
11
6.52382
21
-1.13681
0
LINE
8
BLACK
6
CONTINUOUS
10
6.52382
20
-1.13681
11
6.52382
21
-1.00492
0
LINE
8
BLACK
6
CONTINUOUS
10
6.52382
20
-1.00492
11
6.44862
21
-1.00492
0
LINE
8
BLACK
6
CONTINUOUS
10
2.15157
20
-0.897835
11
2.15227
21
-0.898123
0
LINE
8
BLACK
6
CONTINUOUS
10
2.15227
20
-0.898123
11
2.15256
21
-0.898819
0
LINE
8
BLACK
6
CONTINUOUS
10
2.15256
20
-0.898819
11
2.15256
21
-1.06969
0
LINE
8
BLACK
6
CONTINUOUS
10
2.15256
20
-1.06969
11
2.15227
21
-1.07038
0
LINE
8
BLACK
6
CONTINUOUS
10
2.15227
20
-1.07038
11
2.15157
21
-1.07067
0
LINE
8
BLACK
6
CONTINUOUS
10
2.15157
20
-1.07067
11
1.70669
21
-1.07067
0
LINE
8
BLACK
6
CONTINUOUS
10
1.70669
20
-1.07067
11
1.706
21
-1.07038
0
LINE
8
BLACK
6
CONTINUOUS
10
1.706
20
-1.07038
11
1.70571
21
-1.06969
0
LINE
8
BLACK
6
CONTINUOUS
10
1.70571
20
-1.06969
11
1.70571
21
-0.898819
0
LINE
8
BLACK
6
CONTINUOUS
10
1.70571
20
-0.898819
11
1.706
21
-0.898123
0
LINE
8
BLACK
6
CONTINUOUS
10
1.706
20
-0.898123
11
1.70669
21
-0.897835
0
LINE
8
BLACK
6
CONTINUOUS
10
1.70669
20
-0.897835
11
2.15157
21
-0.897835
0
LINE
8
BLACK
6
CONTINUOUS
10
1.70768
20
-0.899803
11
1.70768
21
-1.0687
0
LINE
8
BLACK
6
CONTINUOUS
10
1.70768
20
-1.0687
11
2.15059
21
-1.0687
0
LINE
8
BLACK
6
CONTINUOUS
10
2.15059
20
-1.0687
11
2.15059
21
-0.899803
0
LINE
8
BLACK
6
CONTINUOUS
10
2.15059
20
-0.899803
11
1.70768
21
-0.899803
0
LINE
8
BLACK
6
CONTINUOUS
10
3.04395
20
-0.802919
11
3.05623
21
-0.805168
0
LINE
8
BLACK
6
CONTINUOUS
10
3.05623
20
-0.805168
11
3.06814
21
-0.808881
0
LINE
8
BLACK
6
CONTINUOUS
10
3.06814
20
-0.808881
11
3.07952
21
-0.814003
0
LINE
8
BLACK
6
CONTINUOUS
10
3.07952
20
-0.814003
11
3.0902
21
-0.820459
0
LINE
8
BLACK
6
CONTINUOUS
10
3.0902
20
-0.820459
11
3.10003
21
-0.828156
0
LINE
8
BLACK
6
CONTINUOUS
10
3.10003
20
-0.828156
11
3.10885
21
-0.83698
0
LINE
8
BLACK
6
CONTINUOUS
10
3.10885
20
-0.83698
11
3.11655
21
-0.846804
0
LINE
8
BLACK
6
CONTINUOUS
10
3.11655
20
-0.846804
11
3.123
21
-0.857484
0
LINE
8
BLACK
6
CONTINUOUS
10
3.123
20
-0.857484
11
3.12813
21
-0.868865
0
LINE
8
BLACK
6
CONTINUOUS
10
3.12813
20
-0.868865
11
3.13184
21
-0.880779
0
LINE
8
BLACK
6
CONTINUOUS
10
3.13184
20
-0.880779
11
3.13409
21
-0.893055
0
LINE
8
BLACK
6
CONTINUOUS
10
3.13409
20
-0.893055
11
3.13484
21
-0.905512
0
LINE
8
BLACK
6
CONTINUOUS
10
3.13484
20
-0.905512
11
3.13409
21
-0.917969
0
LINE
8
BLACK
6
CONTINUOUS
10
3.13409
20
-0.917969
11
3.13184
21
-0.930244
0
LINE
8
BLACK
6
CONTINUOUS
10
3.13184
20
-0.930244
11
3.12813
21
-0.942159
0
LINE
8
BLACK
6
CONTINUOUS
10
3.12813
20
-0.942159
11
3.123
21
-0.953539
0
LINE
8
BLACK
6
CONTINUOUS
10
3.123
20
-0.953539
11
3.11655
21
-0.964219
0
LINE
8
BLACK
6
CONTINUOUS
10
3.11655
20
-0.964219
11
3.10885
21
-0.974043
0
LINE
8
BLACK
6
CONTINUOUS
10
3.10885
20
-0.974043
11
3.10003
21
-0.982868
0
LINE
8
BLACK
6
CONTINUOUS
10
3.10003
20
-0.982868
11
3.0902
21
-0.990564
0
LINE
8
BLACK
6
CONTINUOUS
10
3.0902
20
-0.990564
11
3.07952
21
-0.997021
0
LINE
8
BLACK
6
CONTINUOUS
10
3.07952
20
-0.997021
11
3.06814
21
-1.00214
0
LINE
8
BLACK
6
CONTINUOUS
10
3.06814
20
-1.00214
11
3.05623
21
-1.00586
0
LINE
8
BLACK
6
CONTINUOUS
10
3.05623
20
-1.00586
11
3.04395
21
-1.0081
0
LINE
8
BLACK
6
CONTINUOUS
10
3.04395
20
-1.0081
11
3.0315
21
-1.00886
0
LINE
8
BLACK
6
CONTINUOUS
10
3.0315
20
-1.00886
11
3.01904
21
-1.0081
0
LINE
8
BLACK
6
CONTINUOUS
10
3.01904
20
-1.0081
11
3.00676
21
-1.00586
0
LINE
8
BLACK
6
CONTINUOUS
10
3.00676
20
-1.00586
11
2.99485
21
-1.00214
0
LINE
8
BLACK
6
CONTINUOUS
10
2.99485
20
-1.00214
11
2.98347
21
-0.997021
0
LINE
8
BLACK
6
CONTINUOUS
10
2.98347
20
-0.997021
11
2.97279
21
-0.990564
0
LINE
8
BLACK
6
CONTINUOUS
10
2.97279
20
-0.990564
11
2.96296
21
-0.982868
0
LINE
8
BLACK
6
CONTINUOUS
10
2.96296
20
-0.982868
11
2.95414
21
-0.974043
0
LINE
8
BLACK
6
CONTINUOUS
10
2.95414
20
-0.974043
11
2.94644
21
-0.964219
0
LINE
8
BLACK
6
CONTINUOUS
10
2.94644
20
-0.964219
11
2.93999
21
-0.953539
0
LINE
8
BLACK
6
CONTINUOUS
10
2.93999
20
-0.953539
11
2.93487
21
-0.942159
0
LINE
8
BLACK
6
CONTINUOUS
10
2.93487
20
-0.942159
11
2.93115
21
-0.930244
0
LINE
8
BLACK
6
CONTINUOUS
10
2.93115
20
-0.930244
11
2.9289
21
-0.917969
0
LINE
8
BLACK
6
CONTINUOUS
10
2.9289
20
-0.917969
11
2.92815
21
-0.905512
0
LINE
8
BLACK
6
CONTINUOUS
10
2.92815
20
-0.905512
11
2.9289
21
-0.893055
0
LINE
8
BLACK
6
CONTINUOUS
10
2.9289
20
-0.893055
11
2.93115
21
-0.880779
0
LINE
8
BLACK
6
CONTINUOUS
10
2.93115
20
-0.880779
11
2.93487
21
-0.868865
0
LINE
8
BLACK
6
CONTINUOUS
10
2.93487
20
-0.868865
11
2.93999
21
-0.857484
0
LINE
8
BLACK
6
CONTINUOUS
10
2.93999
20
-0.857484
11
2.94644
21
-0.846804
0
LINE
8
BLACK
6
CONTINUOUS
10
2.94644
20
-0.846804
11
2.95414
21
-0.83698
0
LINE
8
BLACK
6
CONTINUOUS
10
2.95414
20
-0.83698
11
2.96296
21
-0.828156
0
LINE
8
BLACK
6
CONTINUOUS
10
2.96296
20
-0.828156
11
2.97279
21
-0.820459
0
LINE
8
BLACK
6
CONTINUOUS
10
2.97279
20
-0.820459
11
2.98347
21
-0.814003
0
LINE
8
BLACK
6
CONTINUOUS
10
2.98347
20
-0.814003
11
2.99485
21
-0.808881
0
LINE
8
BLACK
6
CONTINUOUS
10
2.99485
20
-0.808881
11
3.00676
21
-0.805168
0
LINE
8
BLACK
6
CONTINUOUS
10
3.00676
20
-0.805168
11
3.01904
21
-0.802919
0
LINE
8
BLACK
6
CONTINUOUS
10
3.01904
20
-0.802919
11
3.0315
21
-0.802165
0
LINE
8
BLACK
6
CONTINUOUS
10
3.0315
20
-0.802165
11
3.04395
21
-0.802919
0
LINE
8
BLACK
6
CONTINUOUS
10
2.93072
20
-0.918243
11
2.93311
21
-0.930773
0
LINE
8
BLACK
6
CONTINUOUS
10
2.93311
20
-0.930773
11
2.93705
21
-0.942905
0
LINE
8
BLACK
6
CONTINUOUS
10
2.93705
20
-0.942905
11
2.94248
21
-0.954448
0
LINE
8
BLACK
6
CONTINUOUS
10
2.94248
20
-0.954448
11
2.94932
21
-0.965218
0
LINE
8
BLACK
6
CONTINUOUS
10
2.94932
20
-0.965218
11
2.95745
21
-0.975047
0
LINE
8
BLACK
6
CONTINUOUS
10
2.95745
20
-0.975047
11
2.96675
21
-0.983779
0
LINE
8
BLACK
6
CONTINUOUS
10
2.96675
20
-0.983779
11
2.97707
21
-0.991277
0
LINE
8
BLACK
6
CONTINUOUS
10
2.97707
20
-0.991277
11
2.98825
21
-0.997423
0
LINE
8
BLACK
6
CONTINUOUS
10
2.98825
20
-0.997423
11
3.00011
21
-1.00212
0
LINE
8
BLACK
6
CONTINUOUS
10
3.00011
20
-1.00212
11
3.01246
21
-1.00529
0
LINE
8
BLACK
6
CONTINUOUS
10
3.01246
20
-1.00529
11
3.02512
21
-1.00689
0
LINE
8
BLACK
6
CONTINUOUS
10
3.02512
20
-1.00689
11
3.03787
21
-1.00689
0
LINE
8
BLACK
6
CONTINUOUS
10
3.03787
20
-1.00689
11
3.05053
21
-1.00529
0
LINE
8
BLACK
6
CONTINUOUS
10
3.05053
20
-1.00529
11
3.06289
21
-1.00212
0
LINE
8
BLACK
6
CONTINUOUS
10
3.06289
20
-1.00212
11
3.07475
21
-0.997423
0
LINE
8
BLACK
6
CONTINUOUS
10
3.07475
20
-0.997423
11
3.08592
21
-0.991277
0
LINE
8
BLACK
6
CONTINUOUS
10
3.08592
20
-0.991277
11
3.09624
21
-0.983779
0
LINE
8
BLACK
6
CONTINUOUS
10
3.09624
20
-0.983779
11
3.10554
21
-0.975047
0
LINE
8
BLACK
6
CONTINUOUS
10
3.10554
20
-0.975047
11
3.11367
21
-0.965218
0
LINE
8
BLACK
6
CONTINUOUS
10
3.11367
20
-0.965218
11
3.12051
21
-0.954448
0
LINE
8
BLACK
6
CONTINUOUS
10
3.12051
20
-0.954448
11
3.12594
21
-0.942905
0
LINE
8
BLACK
6
CONTINUOUS
10
3.12594
20
-0.942905
11
3.12988
21
-0.930773
0
LINE
8
BLACK
6
CONTINUOUS
10
3.12988
20
-0.930773
11
3.13227
21
-0.918243
0
LINE
8
BLACK
6
CONTINUOUS
10
3.13227
20
-0.918243
11
3.13307
21
-0.905512
0
LINE
8
BLACK
6
CONTINUOUS
10
3.13307
20
-0.905512
11
3.13227
21
-0.892781
0
LINE
8
BLACK
6
CONTINUOUS
10
3.13227
20
-0.892781
11
3.12988
21
-0.88025
0
LINE
8
BLACK
6
CONTINUOUS
10
3.12988
20
-0.88025
11
3.12594
21
-0.868118
0
LINE
8
BLACK
6
CONTINUOUS
10
3.12594
20
-0.868118
11
3.12051
21
-0.856576
0
LINE
8
BLACK
6
CONTINUOUS
10
3.12051
20
-0.856576
11
3.11367
21
-0.845806
0
LINE
8
BLACK
6
CONTINUOUS
10
3.11367
20
-0.845806
11
3.10554
21
-0.835977
0
LINE
8
BLACK
6
CONTINUOUS
10
3.10554
20
-0.835977
11
3.09624
21
-0.827244
0
LINE
8
BLACK
6
CONTINUOUS
10
3.09624
20
-0.827244
11
3.08592
21
-0.819746
0
LINE
8
BLACK
6
CONTINUOUS
10
3.08592
20
-0.819746
11
3.07475
21
-0.813601
0
LINE
8
BLACK
6
CONTINUOUS
10
3.07475
20
-0.813601
11
3.06289
21
-0.808905
0
LINE
8
BLACK
6
CONTINUOUS
10
3.06289
20
-0.808905
11
3.05053
21
-0.805733
0
LINE
8
BLACK
6
CONTINUOUS
10
3.05053
20
-0.805733
11
3.03787
21
-0.804134
0
LINE
8
BLACK
6
CONTINUOUS
10
3.03787
20
-0.804134
11
3.02512
21
-0.804134
0
LINE
8
BLACK
6
CONTINUOUS
10
3.02512
20
-0.804134
11
3.01246
21
-0.805733
0
LINE
8
BLACK
6
CONTINUOUS
10
3.01246
20
-0.805733
11
3.00011
21
-0.808905
0
LINE
8
BLACK
6
CONTINUOUS
10
3.00011
20
-0.808905
11
2.98825
21
-0.813601
0
LINE
8
BLACK
6
CONTINUOUS
10
2.98825
20
-0.813601
11
2.97707
21
-0.819746
0
LINE
8
BLACK
6
CONTINUOUS
10
2.97707
20
-0.819746
11
2.96675
21
-0.827244
0
LINE
8
BLACK
6
CONTINUOUS
10
2.96675
20
-0.827244
11
2.95745
21
-0.835977
0
LINE
8
BLACK
6
CONTINUOUS
10
2.95745
20
-0.835977
11
2.94932
21
-0.845806
0
LINE
8
BLACK
6
CONTINUOUS
10
2.94932
20
-0.845806
11
2.94248
21
-0.856576
0
LINE
8
BLACK
6
CONTINUOUS
10
2.94248
20
-0.856576
11
2.93705
21
-0.868118
0
LINE
8
BLACK
6
CONTINUOUS
10
2.93705
20
-0.868118
11
2.93311
21
-0.88025
0
LINE
8
BLACK
6
CONTINUOUS
10
2.93311
20
-0.88025
11
2.93072
21
-0.892781
0
LINE
8
BLACK
6
CONTINUOUS
10
2.93072
20
-0.892781
11
2.92992
21
-0.905512
0
LINE
8
BLACK
6
CONTINUOUS
10
2.92992
20
-0.905512
11
2.93072
21
-0.918243
0
LINE
8
BLACK
6
CONTINUOUS
10
5.24868
20
-0.802919
11
5.26095
21
-0.805168
0
LINE
8
BLACK
6
CONTINUOUS
10
5.26095
20
-0.805168
11
5.27287
21
-0.808881
0
LINE
8
BLACK
6
CONTINUOUS
10
5.27287
20
-0.808881
11
5.28425
21
-0.814003
0
LINE
8
BLACK
6
CONTINUOUS
10
5.28425
20
-0.814003
11
5.29493
21
-0.820459
0
LINE
8
BLACK
6
CONTINUOUS
10
5.29493
20
-0.820459
11
5.30475
21
-0.828156
0
LINE
8
BLACK
6
CONTINUOUS
10
5.30475
20
-0.828156
11
5.31358
21
-0.83698
0
LINE
8
BLACK
6
CONTINUOUS
10
5.31358
20
-0.83698
11
5.32127
21
-0.846804
0
LINE
8
BLACK
6
CONTINUOUS
10
5.32127
20
-0.846804
11
5.32773
21
-0.857484
0
LINE
8
BLACK
6
CONTINUOUS
10
5.32773
20
-0.857484
11
5.33285
21
-0.868865
0
LINE
8
BLACK
6
CONTINUOUS
10
5.33285
20
-0.868865
11
5.33656
21
-0.880779
0
LINE
8
BLACK
6
CONTINUOUS
10
5.33656
20
-0.880779
11
5.33881
21
-0.893055
0
LINE
8
BLACK
6
CONTINUOUS
10
5.33881
20
-0.893055
11
5.33957
21
-0.905512
0
LINE
8
BLACK
6
CONTINUOUS
10
5.33957
20
-0.905512
11
5.33881
21
-0.917969
0
LINE
8
BLACK
6
CONTINUOUS
10
5.33881
20
-0.917969
11
5.33656
21
-0.930244
0
LINE
8
BLACK
6
CONTINUOUS
10
5.33656
20
-0.930244
11
5.33285
21
-0.942159
0
LINE
8
BLACK
6
CONTINUOUS
10
5.33285
20
-0.942159
11
5.32773
21
-0.953539
0
LINE
8
BLACK
6
CONTINUOUS
10
5.32773
20
-0.953539
11
5.32127
21
-0.964219
0
LINE
8
BLACK
6
CONTINUOUS
10
5.32127
20
-0.964219
11
5.31358
21
-0.974043
0
LINE
8
BLACK
6
CONTINUOUS
10
5.31358
20
-0.974043
11
5.30475
21
-0.982868
0
LINE
8
BLACK
6
CONTINUOUS
10
5.30475
20
-0.982868
11
5.29493
21
-0.990564
0
LINE
8
BLACK
6
CONTINUOUS
10
5.29493
20
-0.990564
11
5.28425
21
-0.997021
0
LINE
8
BLACK
6
CONTINUOUS
10
5.28425
20
-0.997021
11
5.27287
21
-1.00214
0
LINE
8
BLACK
6
CONTINUOUS
10
5.27287
20
-1.00214
11
5.26095
21
-1.00586
0
LINE
8
BLACK
6
CONTINUOUS
10
5.26095
20
-1.00586
11
5.24868
21
-1.0081
0
LINE
8
BLACK
6
CONTINUOUS
10
5.24868
20
-1.0081
11
5.23622
21
-1.00886
0
LINE
8
BLACK
6
CONTINUOUS
10
5.23622
20
-1.00886
11
5.22376
21
-1.0081
0
LINE
8
BLACK
6
CONTINUOUS
10
5.22376
20
-1.0081
11
5.21149
21
-1.00586
0
LINE
8
BLACK
6
CONTINUOUS
10
5.21149
20
-1.00586
11
5.19957
21
-1.00214
0
LINE
8
BLACK
6
CONTINUOUS
10
5.19957
20
-1.00214
11
5.18819
21
-0.997021
0
LINE
8
BLACK
6
CONTINUOUS
10
5.18819
20
-0.997021
11
5.17751
21
-0.990564
0
LINE
8
BLACK
6
CONTINUOUS
10
5.17751
20
-0.990564
11
5.16769
21
-0.982868
0
LINE
8
BLACK
6
CONTINUOUS
10
5.16769
20
-0.982868
11
5.15886
21
-0.974043
0
LINE
8
BLACK
6
CONTINUOUS
10
5.15886
20
-0.974043
11
5.15117
21
-0.964219
0
LINE
8
BLACK
6
CONTINUOUS
10
5.15117
20
-0.964219
11
5.14471
21
-0.953539
0
LINE
8
BLACK
6
CONTINUOUS
10
5.14471
20
-0.953539
11
5.13959
21
-0.942159
0
LINE
8
BLACK
6
CONTINUOUS
10
5.13959
20
-0.942159
11
5.13588
21
-0.930244
0
LINE
8
BLACK
6
CONTINUOUS
10
5.13588
20
-0.930244
11
5.13363
21
-0.917969
0
LINE
8
BLACK
6
CONTINUOUS
10
5.13363
20
-0.917969
11
5.13287
21
-0.905512
0
LINE
8
BLACK
6
CONTINUOUS
10
5.13287
20
-0.905512
11
5.13363
21
-0.893055
0
LINE
8
BLACK
6
CONTINUOUS
10
5.13363
20
-0.893055
11
5.13588
21
-0.880779
0
LINE
8
BLACK
6
CONTINUOUS
10
5.13588
20
-0.880779
11
5.13959
21
-0.868865
0
LINE
8
BLACK
6
CONTINUOUS
10
5.13959
20
-0.868865
11
5.14471
21
-0.857484
0
LINE
8
BLACK
6
CONTINUOUS
10
5.14471
20
-0.857484
11
5.15117
21
-0.846804
0
LINE
8
BLACK
6
CONTINUOUS
10
5.15117
20
-0.846804
11
5.15886
21
-0.83698
0
LINE
8
BLACK
6
CONTINUOUS
10
5.15886
20
-0.83698
11
5.16769
21
-0.828156
0
LINE
8
BLACK
6
CONTINUOUS
10
5.16769
20
-0.828156
11
5.17751
21
-0.820459
0
LINE
8
BLACK
6
CONTINUOUS
10
5.17751
20
-0.820459
11
5.18819
21
-0.814003
0
LINE
8
BLACK
6
CONTINUOUS
10
5.18819
20
-0.814003
11
5.19957
21
-0.808881
0
LINE
8
BLACK
6
CONTINUOUS
10
5.19957
20
-0.808881
11
5.21149
21
-0.805168
0
LINE
8
BLACK
6
CONTINUOUS
10
5.21149
20
-0.805168
11
5.22376
21
-0.802919
0
LINE
8
BLACK
6
CONTINUOUS
10
5.22376
20
-0.802919
11
5.23622
21
-0.802165
0
LINE
8
BLACK
6
CONTINUOUS
10
5.23622
20
-0.802165
11
5.24868
21
-0.802919
0
LINE
8
BLACK
6
CONTINUOUS
10
5.13544
20
-0.918243
11
5.13783
21
-0.930773
0
LINE
8
BLACK
6
CONTINUOUS
10
5.13783
20
-0.930773
11
5.14178
21
-0.942905
0
LINE
8
BLACK
6
CONTINUOUS
10
5.14178
20
-0.942905
11
5.14721
21
-0.954448
0
LINE
8
BLACK
6
CONTINUOUS
10
5.14721
20
-0.954448
11
5.15404
21
-0.965218
0
LINE
8
BLACK
6
CONTINUOUS
10
5.15404
20
-0.965218
11
5.16217
21
-0.975047
0
LINE
8
BLACK
6
CONTINUOUS
10
5.16217
20
-0.975047
11
5.17147
21
-0.983779
0
LINE
8
BLACK
6
CONTINUOUS
10
5.17147
20
-0.983779
11
5.18179
21
-0.991277
0
LINE
8
BLACK
6
CONTINUOUS
10
5.18179
20
-0.991277
11
5.19297
21
-0.997423
0
LINE
8
BLACK
6
CONTINUOUS
10
5.19297
20
-0.997423
11
5.20483
21
-1.00212
0
LINE
8
BLACK
6
CONTINUOUS
10
5.20483
20
-1.00212
11
5.21719
21
-1.00529
0
LINE
8
BLACK
6
CONTINUOUS
10
5.21719
20
-1.00529
11
5.22984
21
-1.00689
0
LINE
8
BLACK
6
CONTINUOUS
10
5.22984
20
-1.00689
11
5.2426
21
-1.00689
0
LINE
8
BLACK
6
CONTINUOUS
10
5.2426
20
-1.00689
11
5.25525
21
-1.00529
0
LINE
8
BLACK
6
CONTINUOUS
10
5.25525
20
-1.00529
11
5.26761
21
-1.00212
0
LINE
8
BLACK
6
CONTINUOUS
10
5.26761
20
-1.00212
11
5.27947
21
-0.997423
0
LINE
8
BLACK
6
CONTINUOUS
10
5.27947
20
-0.997423
11
5.29065
21
-0.991277
0
LINE
8
BLACK
6
CONTINUOUS
10
5.29065
20
-0.991277
11
5.30097
21
-0.983779
0
LINE
8
BLACK
6
CONTINUOUS
10
5.30097
20
-0.983779
11
5.31027
21
-0.975047
0
LINE
8
BLACK
6
CONTINUOUS
10
5.31027
20
-0.975047
11
5.3184
21
-0.965218
0
LINE
8
BLACK
6
CONTINUOUS
10
5.3184
20
-0.965218
11
5.32523
21
-0.954448
0
LINE
8
BLACK
6
CONTINUOUS
10
5.32523
20
-0.954448
11
5.33067
21
-0.942905
0
LINE
8
BLACK
6
CONTINUOUS
10
5.33067
20
-0.942905
11
5.33461
21
-0.930773
0
LINE
8
BLACK
6
CONTINUOUS
10
5.33461
20
-0.930773
11
5.337
21
-0.918243
0
LINE
8
BLACK
6
CONTINUOUS
10
5.337
20
-0.918243
11
5.3378
21
-0.905512
0
LINE
8
BLACK
6
CONTINUOUS
10
5.3378
20
-0.905512
11
5.337
21
-0.892781
0
LINE
8
BLACK
6
CONTINUOUS
10
5.337
20
-0.892781
11
5.33461
21
-0.88025
0
LINE
8
BLACK
6
CONTINUOUS
10
5.33461
20
-0.88025
11
5.33067
21
-0.868118
0
LINE
8
BLACK
6
CONTINUOUS
10
5.33067
20
-0.868118
11
5.32523
21
-0.856576
0
LINE
8
BLACK
6
CONTINUOUS
10
5.32523
20
-0.856576
11
5.3184
21
-0.845806
0
LINE
8
BLACK
6
CONTINUOUS
10
5.3184
20
-0.845806
11
5.31027
21
-0.835977
0
LINE
8
BLACK
6
CONTINUOUS
10
5.31027
20
-0.835977
11
5.30097
21
-0.827244
0
LINE
8
BLACK
6
CONTINUOUS
10
5.30097
20
-0.827244
11
5.29065
21
-0.819746
0
LINE
8
BLACK
6
CONTINUOUS
10
5.29065
20
-0.819746
11
5.27947
21
-0.813601
0
LINE
8
BLACK
6
CONTINUOUS
10
5.27947
20
-0.813601
11
5.26761
21
-0.808905
0
LINE
8
BLACK
6
CONTINUOUS
10
5.26761
20
-0.808905
11
5.25525
21
-0.805733
0
LINE
8
BLACK
6
CONTINUOUS
10
5.25525
20
-0.805733
11
5.2426
21
-0.804134
0
LINE
8
BLACK
6
CONTINUOUS
10
5.2426
20
-0.804134
11
5.22984
21
-0.804134
0
LINE
8
BLACK
6
CONTINUOUS
10
5.22984
20
-0.804134
11
5.21719
21
-0.805733
0
LINE
8
BLACK
6
CONTINUOUS
10
5.21719
20
-0.805733
11
5.20483
21
-0.808905
0
LINE
8
BLACK
6
CONTINUOUS
10
5.20483
20
-0.808905
11
5.19297
21
-0.813601
0
LINE
8
BLACK
6
CONTINUOUS
10
5.19297
20
-0.813601
11
5.18179
21
-0.819746
0
LINE
8
BLACK
6
CONTINUOUS
10
5.18179
20
-0.819746
11
5.17147
21
-0.827244
0
LINE
8
BLACK
6
CONTINUOUS
10
5.17147
20
-0.827244
11
5.16217
21
-0.835977
0
LINE
8
BLACK
6
CONTINUOUS
10
5.16217
20
-0.835977
11
5.15404
21
-0.845806
0
LINE
8
BLACK
6
CONTINUOUS
10
5.15404
20
-0.845806
11
5.14721
21
-0.856576
0
LINE
8
BLACK
6
CONTINUOUS
10
5.14721
20
-0.856576
11
5.14178
21
-0.868118
0
LINE
8
BLACK
6
CONTINUOUS
10
5.14178
20
-0.868118
11
5.13783
21
-0.88025
0
LINE
8
BLACK
6
CONTINUOUS
10
5.13783
20
-0.88025
11
5.13544
21
-0.892781
0
LINE
8
BLACK
6
CONTINUOUS
10
5.13544
20
-0.892781
11
5.13464
21
-0.905512
0
LINE
8
BLACK
6
CONTINUOUS
10
5.13464
20
-0.905512
11
5.13544
21
-0.918243
0
LINE
8
BLACK
6
CONTINUOUS
10
6.62663
20
-0.802919
11
6.63891
21
-0.805168
0
LINE
8
BLACK
6
CONTINUOUS
10
6.63891
20
-0.805168
11
6.65082
21
-0.808881
0
LINE
8
BLACK
6
CONTINUOUS
10
6.65082
20
-0.808881
11
6.6622
21
-0.814003
0
LINE
8
BLACK
6
CONTINUOUS
10
6.6622
20
-0.814003
11
6.67288
21
-0.820459
0
LINE
8
BLACK
6
CONTINUOUS
10
6.67288
20
-0.820459
11
6.6827
21
-0.828156
0
LINE
8
BLACK
6
CONTINUOUS
10
6.6827
20
-0.828156
11
6.69153
21
-0.83698
0
LINE
8
BLACK
6
CONTINUOUS
10
6.69153
20
-0.83698
11
6.69923
21
-0.846804
0
LINE
8
BLACK
6
CONTINUOUS
10
6.69923
20
-0.846804
11
6.70568
21
-0.857484
0
LINE
8
BLACK
6
CONTINUOUS
10
6.70568
20
-0.857484
11
6.7108
21
-0.868865
0
LINE
8
BLACK
6
CONTINUOUS
10
6.7108
20
-0.868865
11
6.71452
21
-0.880779
0
LINE
8
BLACK
6
CONTINUOUS
10
6.71452
20
-0.880779
11
6.71677
21
-0.893055
0
LINE
8
BLACK
6
CONTINUOUS
10
6.71677
20
-0.893055
11
6.71752
21
-0.905512
0
LINE
8
BLACK
6
CONTINUOUS
10
6.71752
20
-0.905512
11
6.71677
21
-0.917969
0
LINE
8
BLACK
6
CONTINUOUS
10
6.71677
20
-0.917969
11
6.71452
21
-0.930244
0
LINE
8
BLACK
6
CONTINUOUS
10
6.71452
20
-0.930244
11
6.7108
21
-0.942159
0
LINE
8
BLACK
6
CONTINUOUS
10
6.7108
20
-0.942159
11
6.70568
21
-0.953539
0
LINE
8
BLACK
6
CONTINUOUS
10
6.70568
20
-0.953539
11
6.69923
21
-0.964219
0
LINE
8
BLACK
6
CONTINUOUS
10
6.69923
20
-0.964219
11
6.69153
21
-0.974043
0
LINE
8
BLACK
6
CONTINUOUS
10
6.69153
20
-0.974043
11
6.6827
21
-0.982868
0
LINE
8
BLACK
6
CONTINUOUS
10
6.6827
20
-0.982868
11
6.67288
21
-0.990564
0
LINE
8
BLACK
6
CONTINUOUS
10
6.67288
20
-0.990564
11
6.6622
21
-0.997021
0
LINE
8
BLACK
6
CONTINUOUS
10
6.6622
20
-0.997021
11
6.65082
21
-1.00214
0
LINE
8
BLACK
6
CONTINUOUS
10
6.65082
20
-1.00214
11
6.63891
21
-1.00586
0
LINE
8
BLACK
6
CONTINUOUS
10
6.63891
20
-1.00586
11
6.62663
21
-1.0081
0
LINE
8
BLACK
6
CONTINUOUS
10
6.62663
20
-1.0081
11
6.61417
21
-1.00886
0
LINE
8
BLACK
6
CONTINUOUS
10
6.61417
20
-1.00886
11
6.60172
21
-1.0081
0
LINE
8
BLACK
6
CONTINUOUS
10
6.60172
20
-1.0081
11
6.58944
21
-1.00586
0
LINE
8
BLACK
6
CONTINUOUS
10
6.58944
20
-1.00586
11
6.57753
21
-1.00214
0
LINE
8
BLACK
6
CONTINUOUS
10
6.57753
20
-1.00214
11
6.56615
21
-0.997021
0
LINE
8
BLACK
6
CONTINUOUS
10
6.56615
20
-0.997021
11
6.55547
21
-0.990564
0
LINE
8
BLACK
6
CONTINUOUS
10
6.55547
20
-0.990564
11
6.54564
21
-0.982868
0
LINE
8
BLACK
6
CONTINUOUS
10
6.54564
20
-0.982868
11
6.53682
21
-0.974043
0
LINE
8
BLACK
6
CONTINUOUS
10
6.53682
20
-0.974043
11
6.52912
21
-0.964219
0
LINE
8
BLACK
6
CONTINUOUS
10
6.52912
20
-0.964219
11
6.52266
21
-0.953539
0
LINE
8
BLACK
6
CONTINUOUS
10
6.52266
20
-0.953539
11
6.51754
21
-0.942159
0
LINE
8
BLACK
6
CONTINUOUS
10
6.51754
20
-0.942159
11
6.51383
21
-0.930244
0
LINE
8
BLACK
6
CONTINUOUS
10
6.51383
20
-0.930244
11
6.51158
21
-0.917969
0
LINE
8
BLACK
6
CONTINUOUS
10
6.51158
20
-0.917969
11
6.51083
21
-0.905512
0
LINE
8
BLACK
6
CONTINUOUS
10
6.51083
20
-0.905512
11
6.51158
21
-0.893055
0
LINE
8
BLACK
6
CONTINUOUS
10
6.51158
20
-0.893055
11
6.51383
21
-0.880779
0
LINE
8
BLACK
6
CONTINUOUS
10
6.51383
20
-0.880779
11
6.51754
21
-0.868865
0
LINE
8
BLACK
6
CONTINUOUS
10
6.51754
20
-0.868865
11
6.52266
21
-0.857484
0
LINE
8
BLACK
6
CONTINUOUS
10
6.52266
20
-0.857484
11
6.52912
21
-0.846804
0
LINE
8
BLACK
6
CONTINUOUS
10
6.52912
20
-0.846804
11
6.53682
21
-0.83698
0
LINE
8
BLACK
6
CONTINUOUS
10
6.53682
20
-0.83698
11
6.54564
21
-0.828156
0
LINE
8
BLACK
6
CONTINUOUS
10
6.54564
20
-0.828156
11
6.55547
21
-0.820459
0
LINE
8
BLACK
6
CONTINUOUS
10
6.55547
20
-0.820459
11
6.56615
21
-0.814003
0
LINE
8
BLACK
6
CONTINUOUS
10
6.56615
20
-0.814003
11
6.57753
21
-0.808881
0
LINE
8
BLACK
6
CONTINUOUS
10
6.57753
20
-0.808881
11
6.58944
21
-0.805168
0
LINE
8
BLACK
6
CONTINUOUS
10
6.58944
20
-0.805168
11
6.60172
21
-0.802919
0
LINE
8
BLACK
6
CONTINUOUS
10
6.60172
20
-0.802919
11
6.61417
21
-0.802165
0
LINE
8
BLACK
6
CONTINUOUS
10
6.61417
20
-0.802165
11
6.62663
21
-0.802919
0
LINE
8
BLACK
6
CONTINUOUS
10
6.5134
20
-0.918243
11
6.51579
21
-0.930773
0
LINE
8
BLACK
6
CONTINUOUS
10
6.51579
20
-0.930773
11
6.51973
21
-0.942905
0
LINE
8
BLACK
6
CONTINUOUS
10
6.51973
20
-0.942905
11
6.52516
21
-0.954448
0
LINE
8
BLACK
6
CONTINUOUS
10
6.52516
20
-0.954448
11
6.53199
21
-0.965218
0
LINE
8
BLACK
6
CONTINUOUS
10
6.53199
20
-0.965218
11
6.54013
21
-0.975047
0
LINE
8
BLACK
6
CONTINUOUS
10
6.54013
20
-0.975047
11
6.54942
21
-0.983779
0
LINE
8
BLACK
6
CONTINUOUS
10
6.54942
20
-0.983779
11
6.55974
21
-0.991277
0
LINE
8
BLACK
6
CONTINUOUS
10
6.55974
20
-0.991277
11
6.57092
21
-0.997423
0
LINE
8
BLACK
6
CONTINUOUS
10
6.57092
20
-0.997423
11
6.58278
21
-1.00212
0
LINE
8
BLACK
6
CONTINUOUS
10
6.58278
20
-1.00212
11
6.59514
21
-1.00529
0
LINE
8
BLACK
6
CONTINUOUS
10
6.59514
20
-1.00529
11
6.6078
21
-1.00689
0
LINE
8
BLACK
6
CONTINUOUS
10
6.6078
20
-1.00689
11
6.62055
21
-1.00689
0
LINE
8
BLACK
6
CONTINUOUS
10
6.62055
20
-1.00689
11
6.63321
21
-1.00529
0
LINE
8
BLACK
6
CONTINUOUS
10
6.63321
20
-1.00529
11
6.64556
21
-1.00212
0
LINE
8
BLACK
6
CONTINUOUS
10
6.64556
20
-1.00212
11
6.65742
21
-0.997423
0
LINE
8
BLACK
6
CONTINUOUS
10
6.65742
20
-0.997423
11
6.6686
21
-0.991277
0
LINE
8
BLACK
6
CONTINUOUS
10
6.6686
20
-0.991277
11
6.67892
21
-0.983779
0
LINE
8
BLACK
6
CONTINUOUS
10
6.67892
20
-0.983779
11
6.68822
21
-0.975047
0
LINE
8
BLACK
6
CONTINUOUS
10
6.68822
20
-0.975047
11
6.69635
21
-0.965218
0
LINE
8
BLACK
6
CONTINUOUS
10
6.69635
20
-0.965218
11
6.70319
21
-0.954448
0
LINE
8
BLACK
6
CONTINUOUS
10
6.70319
20
-0.954448
11
6.70862
21
-0.942905
0
LINE
8
BLACK
6
CONTINUOUS
10
6.70862
20
-0.942905
11
6.71256
21
-0.930773
0
LINE
8
BLACK
6
CONTINUOUS
10
6.71256
20
-0.930773
11
6.71495
21
-0.918243
0
LINE
8
BLACK
6
CONTINUOUS
10
6.71495
20
-0.918243
11
6.71575
21
-0.905512
0
LINE
8
BLACK
6
CONTINUOUS
10
6.71575
20
-0.905512
11
6.71495
21
-0.892781
0
LINE
8
BLACK
6
CONTINUOUS
10
6.71495
20
-0.892781
11
6.71256
21
-0.88025
0
LINE
8
BLACK
6
CONTINUOUS
10
6.71256
20
-0.88025
11
6.70862
21
-0.868118
0
LINE
8
BLACK
6
CONTINUOUS
10
6.70862
20
-0.868118
11
6.70319
21
-0.856576
0
LINE
8
BLACK
6
CONTINUOUS
10
6.70319
20
-0.856576
11
6.69635
21
-0.845806
0
LINE
8
BLACK
6
CONTINUOUS
10
6.69635
20
-0.845806
11
6.68822
21
-0.835977
0
LINE
8
BLACK
6
CONTINUOUS
10
6.68822
20
-0.835977
11
6.67892
21
-0.827244
0
LINE
8
BLACK
6
CONTINUOUS
10
6.67892
20
-0.827244
11
6.6686
21
-0.819746
0
LINE
8
BLACK
6
CONTINUOUS
10
6.6686
20
-0.819746
11
6.65742
21
-0.813601
0
LINE
8
BLACK
6
CONTINUOUS
10
6.65742
20
-0.813601
11
6.64556
21
-0.808905
0
LINE
8
BLACK
6
CONTINUOUS
10
6.64556
20
-0.808905
11
6.63321
21
-0.805733
0
LINE
8
BLACK
6
CONTINUOUS
10
6.63321
20
-0.805733
11
6.62055
21
-0.804134
0
LINE
8
BLACK
6
CONTINUOUS
10
6.62055
20
-0.804134
11
6.6078
21
-0.804134
0
LINE
8
BLACK
6
CONTINUOUS
10
6.6078
20
-0.804134
11
6.59514
21
-0.805733
0
LINE
8
BLACK
6
CONTINUOUS
10
6.59514
20
-0.805733
11
6.58278
21
-0.808905
0
LINE
8
BLACK
6
CONTINUOUS
10
6.58278
20
-0.808905
11
6.57092
21
-0.813601
0
LINE
8
BLACK
6
CONTINUOUS
10
6.57092
20
-0.813601
11
6.55974
21
-0.819746
0
LINE
8
BLACK
6
CONTINUOUS
10
6.55974
20
-0.819746
11
6.54942
21
-0.827244
0
LINE
8
BLACK
6
CONTINUOUS
10
6.54942
20
-0.827244
11
6.54013
21
-0.835977
0
LINE
8
BLACK
6
CONTINUOUS
10
6.54013
20
-0.835977
11
6.53199
21
-0.845806
0
LINE
8
BLACK
6
CONTINUOUS
10
6.53199
20
-0.845806
11
6.52516
21
-0.856576
0
LINE
8
BLACK
6
CONTINUOUS
10
6.52516
20
-0.856576
11
6.51973
21
-0.868118
0
LINE
8
BLACK
6
CONTINUOUS
10
6.51973
20
-0.868118
11
6.51579
21
-0.88025
0
LINE
8
BLACK
6
CONTINUOUS
10
6.51579
20
-0.88025
11
6.5134
21
-0.892781
0
LINE
8
BLACK
6
CONTINUOUS
10
6.5134
20
-0.892781
11
6.51259
21
-0.905512
0
LINE
8
BLACK
6
CONTINUOUS
10
6.51259
20
-0.905512
11
6.5134
21
-0.918243
0
LINE
8
BLACK
6
CONTINUOUS
10
2.46969
20
-0.84626
11
2.47038
21
-0.846548
0
LINE
8
BLACK
6
CONTINUOUS
10
2.47038
20
-0.846548
11
2.47067
21
-0.847244
0
LINE
8
BLACK
6
CONTINUOUS
10
2.47067
20
-0.847244
11
2.47067
21
-0.96378
0
LINE
8
BLACK
6
CONTINUOUS
10
2.47067
20
-0.96378
11
2.47038
21
-0.964476
0
LINE
8
BLACK
6
CONTINUOUS
10
2.47038
20
-0.964476
11
2.46969
21
-0.964764
0
LINE
8
BLACK
6
CONTINUOUS
10
2.46969
20
-0.964764
11
2.4122
21
-0.964764
0
LINE
8
BLACK
6
CONTINUOUS
10
2.4122
20
-0.964764
11
2.41151
21
-0.964476
0
LINE
8
BLACK
6
CONTINUOUS
10
2.41151
20
-0.964476
11
2.41122
21
-0.96378
0
LINE
8
BLACK
6
CONTINUOUS
10
2.41122
20
-0.96378
11
2.41122
21
-0.847244
0
LINE
8
BLACK
6
CONTINUOUS
10
2.41122
20
-0.847244
11
2.41151
21
-0.846548
0
LINE
8
BLACK
6
CONTINUOUS
10
2.41151
20
-0.846548
11
2.4122
21
-0.84626
0
LINE
8
BLACK
6
CONTINUOUS
10
2.4122
20
-0.84626
11
2.46969
21
-0.84626
0
LINE
8
BLACK
6
CONTINUOUS
10
2.41319
20
-0.848228
11
2.41319
21
-0.962795
0
LINE
8
BLACK
6
CONTINUOUS
10
2.41319
20
-0.962795
11
2.4687
21
-0.962795
0
LINE
8
BLACK
6
CONTINUOUS
10
2.4687
20
-0.962795
11
2.4687
21
-0.848228
0
LINE
8
BLACK
6
CONTINUOUS
10
2.4687
20
-0.848228
11
2.41319
21
-0.848228
0
LINE
8
BLACK
6
CONTINUOUS
10
2.72441
20
-0.88563
11
2.72511
21
-0.885918
0
LINE
8
BLACK
6
CONTINUOUS
10
2.72511
20
-0.885918
11
2.72539
21
-0.886614
0
LINE
8
BLACK
6
CONTINUOUS
10
2.72539
20
-0.886614
11
2.72539
21
-0.96378
0
LINE
8
BLACK
6
CONTINUOUS
10
2.72539
20
-0.96378
11
2.72511
21
-0.964476
0
LINE
8
BLACK
6
CONTINUOUS
10
2.72511
20
-0.964476
11
2.72441
21
-0.964764
0
LINE
8
BLACK
6
CONTINUOUS
10
2.72441
20
-0.964764
11
2.59055
21
-0.964764
0
LINE
8
BLACK
6
CONTINUOUS
10
2.59055
20
-0.964764
11
2.58986
21
-0.964476
0
LINE
8
BLACK
6
CONTINUOUS
10
2.58986
20
-0.964476
11
2.58957
21
-0.96378
0
LINE
8
BLACK
6
CONTINUOUS
10
2.58957
20
-0.96378
11
2.58957
21
-0.886614
0
LINE
8
BLACK
6
CONTINUOUS
10
2.58957
20
-0.886614
11
2.58986
21
-0.885918
0
LINE
8
BLACK
6
CONTINUOUS
10
2.58986
20
-0.885918
11
2.59055
21
-0.88563
0
LINE
8
BLACK
6
CONTINUOUS
10
2.59055
20
-0.88563
11
2.72441
21
-0.88563
0
LINE
8
BLACK
6
CONTINUOUS
10
2.59154
20
-0.887598
11
2.59154
21
-0.962795
0
LINE
8
BLACK
6
CONTINUOUS
10
2.59154
20
-0.962795
11
2.72343
21
-0.962795
0
LINE
8
BLACK
6
CONTINUOUS
10
2.72343
20
-0.962795
11
2.72343
21
-0.887598
0
LINE
8
BLACK
6
CONTINUOUS
10
2.72343
20
-0.887598
11
2.59154
21
-0.887598
0
LINE
8
BLACK
6
CONTINUOUS
10
2.31024
20
-0.867126
11
2.31093
21
-0.867414
0
LINE
8
BLACK
6
CONTINUOUS
10
2.31093
20
-0.867414
11
2.31122
21
-0.86811
0
LINE
8
BLACK
6
CONTINUOUS
10
2.31122
20
-0.86811
11
2.31122
21
-0.942913
0
LINE
8
BLACK
6
CONTINUOUS
10
2.31122
20
-0.942913
11
2.31093
21
-0.943609
0
LINE
8
BLACK
6
CONTINUOUS
10
2.31093
20
-0.943609
11
2.31024
21
-0.943898
0
LINE
8
BLACK
6
CONTINUOUS
10
2.31024
20
-0.943898
11
2.17795
21
-0.943898
0
LINE
8
BLACK
6
CONTINUOUS
10
2.17795
20
-0.943898
11
2.17726
21
-0.943609
0
LINE
8
BLACK
6
CONTINUOUS
10
2.17726
20
-0.943609
11
2.17697
21
-0.942913
0
LINE
8
BLACK
6
CONTINUOUS
10
2.17697
20
-0.942913
11
2.17697
21
-0.86811
0
LINE
8
BLACK
6
CONTINUOUS
10
2.17697
20
-0.86811
11
2.17726
21
-0.867414
0
LINE
8
BLACK
6
CONTINUOUS
10
2.17726
20
-0.867414
11
2.17795
21
-0.867126
0
LINE
8
BLACK
6
CONTINUOUS
10
2.17795
20
-0.867126
11
2.31024
21
-0.867126
0
LINE
8
BLACK
6
CONTINUOUS
10
2.17894
20
-0.869094
11
2.17894
21
-0.941929
0
LINE
8
BLACK
6
CONTINUOUS
10
2.17894
20
-0.941929
11
2.30925
21
-0.941929
0
LINE
8
BLACK
6
CONTINUOUS
10
2.30925
20
-0.941929
11
2.30925
21
-0.869094
0
LINE
8
BLACK
6
CONTINUOUS
10
2.30925
20
-0.869094
11
2.17894
21
-0.869094
  0
ENDSEC
  0
EOF
