  0
SECTION
  2
HEADER
  9
$ANGBASE
  50
0.0
  9
$ANGDIR
  70
1
  9
$MEASUREMENT
  70
0
  0
ENDSEC
  0
SECTION
  2
TABLES
  0
TABLE
  2
LTYPE
  70
4
  0
LTYPE
  5
40F
  2
CONTINUOUS
  70
0
  3
Solid line
  72
65
  73
0
  40
0.0
  0
LTYPE
  5
410
  2
DASHDOT
 70
0
  3
Dash Dot ____ _ ____ _
 72
65
 73
4
 40
2.0
 49
1.25
 49
-0.25
 49
0.25
 49
-0.25
  0
LTYPE
  5
411
  2
DASHED
 70
0
  3
Dashed __ __ __ __ __
 72
65
 73
2
 40
0.75
 49
0.5
 49
-0.25
  0
LTYPE
  5
43B
  2
DOTTED
 70
0
  3
Dotted .  .  .  .
 72
65
 73
2
 40
0.2
 49
0.0
 49
-0.2
  0
ENDTAB
  0
TABLE
  2
STYLE
  70
4
  0
STYLE
  2
KICAD
  70
0
  40
0
  41
1
  42
1
  50
0
  71
0
  3
isocp.shx
  0
STYLE
  2
KICADB
  70
0
  40
0
  41
1
  42
1
  50
0
  71
0
  3
isocp.shx
  0
STYLE
  2
KICADI
  70
0
  40
0
  41
1
  42
1
  50
15
  71
0
  3
isocp.shx
  0
STYLE
  2
KICADBI
  70
0
  40
0
  41
1
  42
1
  50
15
  71
0
  3
isocp.shx
  0
ENDTAB
  0
TABLE
  2
LAYER
  70
1
  0
LAYER
  2
BLACK
  70
0
  62
7
  6
CONTINUOUS
  0
ENDTAB
  0
ENDSEC
  0
SECTION
  2
ENTITIES
0
LINE
8
BLACK
6
CONTINUOUS
10
4.69024
20
-3.63159
11
4.69342
21
-3.63426
0
LINE
8
BLACK
6
CONTINUOUS
10
4.69342
20
-3.63426
11
4.6955
21
-3.63786
0
LINE
8
BLACK
6
CONTINUOUS
10
4.6955
20
-3.63786
11
4.69622
21
-3.64195
0
LINE
8
BLACK
6
CONTINUOUS
10
4.69622
20
-3.64195
11
4.6955
21
-3.64605
0
LINE
8
BLACK
6
CONTINUOUS
10
4.6955
20
-3.64605
11
4.69342
21
-3.64965
0
LINE
8
BLACK
6
CONTINUOUS
10
4.69342
20
-3.64965
11
4.69024
21
-3.65232
0
LINE
8
BLACK
6
CONTINUOUS
10
4.69024
20
-3.65232
11
4.68633
21
-3.65374
0
LINE
8
BLACK
6
CONTINUOUS
10
4.68633
20
-3.65374
11
4.68217
21
-3.65374
0
LINE
8
BLACK
6
CONTINUOUS
10
4.68217
20
-3.65374
11
4.67827
21
-3.65232
0
LINE
8
BLACK
6
CONTINUOUS
10
4.67827
20
-3.65232
11
4.67508
21
-3.64965
0
LINE
8
BLACK
6
CONTINUOUS
10
4.67508
20
-3.64965
11
4.67301
21
-3.64605
0
LINE
8
BLACK
6
CONTINUOUS
10
4.67301
20
-3.64605
11
4.67228
21
-3.64195
0
LINE
8
BLACK
6
CONTINUOUS
10
4.67228
20
-3.64195
11
4.67301
21
-3.63786
0
LINE
8
BLACK
6
CONTINUOUS
10
4.67301
20
-3.63786
11
4.67508
21
-3.63426
0
LINE
8
BLACK
6
CONTINUOUS
10
4.67508
20
-3.63426
11
4.67827
21
-3.63159
0
LINE
8
BLACK
6
CONTINUOUS
10
4.67827
20
-3.63159
11
4.68217
21
-3.63017
0
LINE
8
BLACK
6
CONTINUOUS
10
4.68217
20
-3.63017
11
4.68633
21
-3.63017
0
LINE
8
BLACK
6
CONTINUOUS
10
4.68633
20
-3.63017
11
4.69024
21
-3.63159
0
LINE
8
BLACK
6
CONTINUOUS
10
4.67683
20
-3.64553
11
4.67912
21
-3.64839
0
LINE
8
BLACK
6
CONTINUOUS
10
4.67912
20
-3.64839
11
4.68242
21
-3.64998
0
LINE
8
BLACK
6
CONTINUOUS
10
4.68242
20
-3.64998
11
4.68609
21
-3.64998
0
LINE
8
BLACK
6
CONTINUOUS
10
4.68609
20
-3.64998
11
4.68939
21
-3.64839
0
LINE
8
BLACK
6
CONTINUOUS
10
4.68939
20
-3.64839
11
4.69167
21
-3.64553
0
LINE
8
BLACK
6
CONTINUOUS
10
4.69167
20
-3.64553
11
4.69249
21
-3.64195
0
LINE
8
BLACK
6
CONTINUOUS
10
4.69249
20
-3.64195
11
4.69167
21
-3.63838
0
LINE
8
BLACK
6
CONTINUOUS
10
4.69167
20
-3.63838
11
4.68939
21
-3.63551
0
LINE
8
BLACK
6
CONTINUOUS
10
4.68939
20
-3.63551
11
4.68609
21
-3.63392
0
LINE
8
BLACK
6
CONTINUOUS
10
4.68609
20
-3.63392
11
4.68242
21
-3.63392
0
LINE
8
BLACK
6
CONTINUOUS
10
4.68242
20
-3.63392
11
4.67912
21
-3.63551
0
LINE
8
BLACK
6
CONTINUOUS
10
4.67912
20
-3.63551
11
4.67683
21
-3.63838
0
LINE
8
BLACK
6
CONTINUOUS
10
4.67683
20
-3.63838
11
4.67601
21
-3.64195
0
LINE
8
BLACK
6
CONTINUOUS
10
4.67601
20
-3.64195
11
4.67683
21
-3.64553
0
LINE
8
BLACK
6
CONTINUOUS
10
3.59878
20
-0.800075
11
3.59891
21
-0.800052
0
LINE
8
BLACK
6
CONTINUOUS
10
3.59891
20
-0.800052
11
3.59902
21
-0.800118
0
LINE
8
BLACK
6
CONTINUOUS
10
3.59902
20
-0.800118
11
3.59941
21
-0.800185
0
LINE
8
BLACK
6
CONTINUOUS
10
3.59941
20
-0.800185
11
3.59999
21
-0.800678
0
LINE
8
BLACK
6
CONTINUOUS
10
3.59999
20
-0.800678
11
3.60066
21
-0.801062
0
LINE
8
BLACK
6
CONTINUOUS
10
3.60066
20
-0.801062
11
3.60075
21
-0.801312
0
LINE
8
BLACK
6
CONTINUOUS
10
3.60075
20
-0.801312
11
3.60095
21
-0.801483
0
LINE
8
BLACK
6
CONTINUOUS
10
3.60095
20
-0.801483
11
3.60109
21
-0.802239
0
LINE
8
BLACK
6
CONTINUOUS
10
3.60109
20
-0.802239
11
3.60135
21
-0.80296
0
LINE
8
BLACK
6
CONTINUOUS
10
3.60135
20
-0.80296
11
3.60135
21
-0.84233
0
LINE
8
BLACK
6
CONTINUOUS
10
3.60135
20
-0.84233
11
3.60128
21
-0.842713
0
LINE
8
BLACK
6
CONTINUOUS
10
3.60128
20
-0.842713
11
3.6013
21
-0.842843
0
LINE
8
BLACK
6
CONTINUOUS
10
3.6013
20
-0.842843
11
3.60124
21
-0.842956
0
LINE
8
BLACK
6
CONTINUOUS
10
3.60124
20
-0.842956
11
3.60117
21
-0.84334
0
LINE
8
BLACK
6
CONTINUOUS
10
3.60117
20
-0.84334
11
3.60068
21
-0.843928
0
LINE
8
BLACK
6
CONTINUOUS
10
3.60068
20
-0.843928
11
3.60029
21
-0.844592
0
LINE
8
BLACK
6
CONTINUOUS
10
3.60029
20
-0.844592
11
3.60004
21
-0.844683
0
LINE
8
BLACK
6
CONTINUOUS
10
3.60004
20
-0.844683
11
3.59987
21
-0.844887
0
LINE
8
BLACK
6
CONTINUOUS
10
3.59987
20
-0.844887
11
3.59912
21
-0.84502
0
LINE
8
BLACK
6
CONTINUOUS
10
3.59912
20
-0.84502
11
3.5984
21
-0.845283
0
LINE
8
BLACK
6
CONTINUOUS
10
3.5984
20
-0.845283
11
3.58527
21
-0.845283
0
LINE
8
BLACK
6
CONTINUOUS
10
3.58527
20
-0.845283
11
3.58426
21
-0.845105
0
LINE
8
BLACK
6
CONTINUOUS
10
3.58426
20
-0.845105
11
3.58413
21
-0.844991
0
LINE
8
BLACK
6
CONTINUOUS
10
3.58413
20
-0.844991
11
3.58395
21
-0.844971
0
LINE
8
BLACK
6
CONTINUOUS
10
3.58395
20
-0.844971
11
3.5802
21
-0.843096
0
LINE
8
BLACK
6
CONTINUOUS
10
3.5802
20
-0.843096
11
3.57949
21
-0.84257
0
LINE
8
BLACK
6
CONTINUOUS
10
3.57949
20
-0.84257
11
3.57944
21
-0.842543
0
LINE
8
BLACK
6
CONTINUOUS
10
3.57944
20
-0.842543
11
3.57756
21
-0.840668
0
LINE
8
BLACK
6
CONTINUOUS
10
3.57756
20
-0.840668
11
3.57705
21
-0.839945
0
LINE
8
BLACK
6
CONTINUOUS
10
3.57705
20
-0.839945
11
3.57701
21
-0.839901
0
LINE
8
BLACK
6
CONTINUOUS
10
3.57701
20
-0.839901
11
3.57513
21
-0.836151
0
LINE
8
BLACK
6
CONTINUOUS
10
3.57513
20
-0.836151
11
3.57484
21
-0.835168
0
LINE
8
BLACK
6
CONTINUOUS
10
3.57484
20
-0.835168
11
3.57488
21
-0.834997
0
LINE
8
BLACK
6
CONTINUOUS
10
3.57488
20
-0.834997
11
3.57482
21
-0.834831
0
LINE
8
BLACK
6
CONTINUOUS
10
3.57482
20
-0.834831
11
3.57482
21
-0.831081
0
LINE
8
BLACK
6
CONTINUOUS
10
3.57482
20
-0.831081
11
3.575
21
-0.830071
0
LINE
8
BLACK
6
CONTINUOUS
10
3.575
20
-0.830071
11
3.57511
21
-0.829936
0
LINE
8
BLACK
6
CONTINUOUS
10
3.57511
20
-0.829936
11
3.57513
21
-0.829761
0
LINE
8
BLACK
6
CONTINUOUS
10
3.57513
20
-0.829761
11
3.57701
21
-0.826011
0
LINE
8
BLACK
6
CONTINUOUS
10
3.57701
20
-0.826011
11
3.57753
21
-0.825302
0
LINE
8
BLACK
6
CONTINUOUS
10
3.57753
20
-0.825302
11
3.57756
21
-0.825244
0
LINE
8
BLACK
6
CONTINUOUS
10
3.57756
20
-0.825244
11
3.57844
21
-0.824362
0
LINE
8
BLACK
6
CONTINUOUS
10
3.57844
20
-0.824362
11
3.57781
21
-0.82402
0
LINE
8
BLACK
6
CONTINUOUS
10
3.57781
20
-0.82402
11
3.57772
21
-0.82387
0
LINE
8
BLACK
6
CONTINUOUS
10
3.57772
20
-0.82387
11
3.57756
21
-0.823795
0
LINE
8
BLACK
6
CONTINUOUS
10
3.57756
20
-0.823795
11
3.57569
21
-0.821921
0
LINE
8
BLACK
6
CONTINUOUS
10
3.57569
20
-0.821921
11
3.57518
21
-0.821198
0
LINE
8
BLACK
6
CONTINUOUS
10
3.57518
20
-0.821198
11
3.57513
21
-0.821153
0
LINE
8
BLACK
6
CONTINUOUS
10
3.57513
20
-0.821153
11
3.57326
21
-0.817404
0
LINE
8
BLACK
6
CONTINUOUS
10
3.57326
20
-0.817404
11
3.57297
21
-0.816421
0
LINE
8
BLACK
6
CONTINUOUS
10
3.57297
20
-0.816421
11
3.57301
21
-0.816249
0
LINE
8
BLACK
6
CONTINUOUS
10
3.57301
20
-0.816249
11
3.57295
21
-0.816083
0
LINE
8
BLACK
6
CONTINUOUS
10
3.57295
20
-0.816083
11
3.57295
21
-0.810459
0
LINE
8
BLACK
6
CONTINUOUS
10
3.57295
20
-0.810459
11
3.57312
21
-0.809449
0
LINE
8
BLACK
6
CONTINUOUS
10
3.57312
20
-0.809449
11
3.57324
21
-0.809314
0
LINE
8
BLACK
6
CONTINUOUS
10
3.57324
20
-0.809314
11
3.57326
21
-0.809138
0
LINE
8
BLACK
6
CONTINUOUS
10
3.57326
20
-0.809138
11
3.57513
21
-0.805389
0
LINE
8
BLACK
6
CONTINUOUS
10
3.57513
20
-0.805389
11
3.57566
21
-0.80468
0
LINE
8
BLACK
6
CONTINUOUS
10
3.57566
20
-0.80468
11
3.57569
21
-0.804621
0
LINE
8
BLACK
6
CONTINUOUS
10
3.57569
20
-0.804621
11
3.57756
21
-0.802747
0
LINE
8
BLACK
6
CONTINUOUS
10
3.57756
20
-0.802747
11
3.57828
21
-0.802241
0
LINE
8
BLACK
6
CONTINUOUS
10
3.57828
20
-0.802241
11
3.57833
21
-0.802194
0
LINE
8
BLACK
6
CONTINUOUS
10
3.57833
20
-0.802194
11
3.58208
21
-0.800319
0
LINE
8
BLACK
6
CONTINUOUS
10
3.58208
20
-0.800319
11
3.58306
21
-0.800026
0
LINE
8
BLACK
6
CONTINUOUS
10
3.58306
20
-0.800026
11
3.58323
21
-0.800067
0
LINE
8
BLACK
6
CONTINUOUS
10
3.58323
20
-0.800067
11
3.5834
21
-0.800007
0
LINE
8
BLACK
6
CONTINUOUS
10
3.5834
20
-0.800007
11
3.5984
21
-0.800007
0
LINE
8
BLACK
6
CONTINUOUS
10
3.5984
20
-0.800007
11
3.59878
21
-0.800075
0
LINE
8
BLACK
6
CONTINUOUS
10
3.58327
20
-0.827884
11
3.58208
21
-0.829081
0
LINE
8
BLACK
6
CONTINUOUS
10
3.58208
20
-0.829081
11
3.58073
21
-0.831778
0
LINE
8
BLACK
6
CONTINUOUS
10
3.58073
20
-0.831778
11
3.58073
21
-0.834134
0
LINE
8
BLACK
6
CONTINUOUS
10
3.58073
20
-0.834134
11
3.58208
21
-0.836831
0
LINE
8
BLACK
6
CONTINUOUS
10
3.58208
20
-0.836831
11
3.58327
21
-0.838028
0
LINE
8
BLACK
6
CONTINUOUS
10
3.58327
20
-0.838028
11
3.58597
21
-0.839377
0
LINE
8
BLACK
6
CONTINUOUS
10
3.58597
20
-0.839377
11
3.59544
21
-0.839377
0
LINE
8
BLACK
6
CONTINUOUS
10
3.59544
20
-0.839377
11
3.59544
21
-0.826535
0
LINE
8
BLACK
6
CONTINUOUS
10
3.59544
20
-0.826535
11
3.58597
21
-0.826535
0
LINE
8
BLACK
6
CONTINUOUS
10
3.58597
20
-0.826535
11
3.58327
21
-0.827884
0
LINE
8
BLACK
6
CONTINUOUS
10
3.5814
20
-0.807261
11
3.5802
21
-0.808458
0
LINE
8
BLACK
6
CONTINUOUS
10
3.5802
20
-0.808458
11
3.57885
21
-0.811156
0
LINE
8
BLACK
6
CONTINUOUS
10
3.57885
20
-0.811156
11
3.57885
21
-0.815386
0
LINE
8
BLACK
6
CONTINUOUS
10
3.57885
20
-0.815386
11
3.5802
21
-0.818084
0
LINE
8
BLACK
6
CONTINUOUS
10
3.5802
20
-0.818084
11
3.58124
21
-0.819127
0
LINE
8
BLACK
6
CONTINUOUS
10
3.58124
20
-0.819127
11
3.58575
21
-0.82063
0
LINE
8
BLACK
6
CONTINUOUS
10
3.58575
20
-0.82063
11
3.59544
21
-0.82063
0
LINE
8
BLACK
6
CONTINUOUS
10
3.59544
20
-0.82063
11
3.59544
21
-0.805913
0
LINE
8
BLACK
6
CONTINUOUS
10
3.59544
20
-0.805913
11
3.5841
21
-0.805913
0
LINE
8
BLACK
6
CONTINUOUS
10
3.5841
20
-0.805913
11
3.5814
21
-0.807261
0
LINE
8
BLACK
6
CONTINUOUS
10
3.62739
20
-0.80016
11
3.62745
21
-0.800159
0
LINE
8
BLACK
6
CONTINUOUS
10
3.62745
20
-0.800159
11
3.63308
21
-0.802033
0
LINE
8
BLACK
6
CONTINUOUS
10
3.63308
20
-0.802033
11
3.63398
21
-0.802522
0
LINE
8
BLACK
6
CONTINUOUS
10
3.63398
20
-0.802522
11
3.63407
21
-0.802672
0
LINE
8
BLACK
6
CONTINUOUS
10
3.63407
20
-0.802672
11
3.63423
21
-0.802747
0
LINE
8
BLACK
6
CONTINUOUS
10
3.63423
20
-0.802747
11
3.63798
21
-0.806496
0
LINE
8
BLACK
6
CONTINUOUS
10
3.63798
20
-0.806496
11
3.63849
21
-0.807219
0
LINE
8
BLACK
6
CONTINUOUS
10
3.63849
20
-0.807219
11
3.63853
21
-0.807264
0
LINE
8
BLACK
6
CONTINUOUS
10
3.63853
20
-0.807264
11
3.64041
21
-0.811013
0
LINE
8
BLACK
6
CONTINUOUS
10
3.64041
20
-0.811013
11
3.64055
21
-0.811502
0
LINE
8
BLACK
6
CONTINUOUS
10
3.64055
20
-0.811502
11
3.64063
21
-0.811618
0
LINE
8
BLACK
6
CONTINUOUS
10
3.64063
20
-0.811618
11
3.64251
21
-0.819117
0
LINE
8
BLACK
6
CONTINUOUS
10
3.64251
20
-0.819117
11
3.64255
21
-0.819704
0
LINE
8
BLACK
6
CONTINUOUS
10
3.64255
20
-0.819704
11
3.64259
21
-0.819833
0
LINE
8
BLACK
6
CONTINUOUS
10
3.64259
20
-0.819833
11
3.64259
21
-0.825457
0
LINE
8
BLACK
6
CONTINUOUS
10
3.64259
20
-0.825457
11
3.64249
21
-0.826037
0
LINE
8
BLACK
6
CONTINUOUS
10
3.64249
20
-0.826037
11
3.64251
21
-0.826173
0
LINE
8
BLACK
6
CONTINUOUS
10
3.64251
20
-0.826173
11
3.64063
21
-0.833672
0
LINE
8
BLACK
6
CONTINUOUS
10
3.64063
20
-0.833672
11
3.64042
21
-0.834138
0
LINE
8
BLACK
6
CONTINUOUS
10
3.64042
20
-0.834138
11
3.64041
21
-0.834277
0
LINE
8
BLACK
6
CONTINUOUS
10
3.64041
20
-0.834277
11
3.63853
21
-0.838026
0
LINE
8
BLACK
6
CONTINUOUS
10
3.63853
20
-0.838026
11
3.63801
21
-0.838735
0
LINE
8
BLACK
6
CONTINUOUS
10
3.63801
20
-0.838735
11
3.63798
21
-0.838794
0
LINE
8
BLACK
6
CONTINUOUS
10
3.63798
20
-0.838794
11
3.63423
21
-0.842543
0
LINE
8
BLACK
6
CONTINUOUS
10
3.63423
20
-0.842543
11
3.63339
21
-0.843131
0
LINE
8
BLACK
6
CONTINUOUS
10
3.63339
20
-0.843131
11
3.63321
21
-0.843147
0
LINE
8
BLACK
6
CONTINUOUS
10
3.63321
20
-0.843147
11
3.63308
21
-0.843256
0
LINE
8
BLACK
6
CONTINUOUS
10
3.63308
20
-0.843256
11
3.62745
21
-0.845131
0
LINE
8
BLACK
6
CONTINUOUS
10
3.62745
20
-0.845131
11
3.62658
21
-0.845261
0
LINE
8
BLACK
6
CONTINUOUS
10
3.62658
20
-0.845261
11
3.62652
21
-0.845283
0
LINE
8
BLACK
6
CONTINUOUS
10
3.62652
20
-0.845283
11
3.62277
21
-0.845283
0
LINE
8
BLACK
6
CONTINUOUS
10
3.62277
20
-0.845283
11
3.6219
21
-0.845129
0
LINE
8
BLACK
6
CONTINUOUS
10
3.6219
20
-0.845129
11
3.62183
21
-0.845131
0
LINE
8
BLACK
6
CONTINUOUS
10
3.62183
20
-0.845131
11
3.61621
21
-0.843256
0
LINE
8
BLACK
6
CONTINUOUS
10
3.61621
20
-0.843256
11
3.61531
21
-0.842768
0
LINE
8
BLACK
6
CONTINUOUS
10
3.61531
20
-0.842768
11
3.61522
21
-0.842618
0
LINE
8
BLACK
6
CONTINUOUS
10
3.61522
20
-0.842618
11
3.61506
21
-0.842543
0
LINE
8
BLACK
6
CONTINUOUS
10
3.61506
20
-0.842543
11
3.61318
21
-0.840668
0
LINE
8
BLACK
6
CONTINUOUS
10
3.61318
20
-0.840668
11
3.61259
21
-0.839828
0
LINE
8
BLACK
6
CONTINUOUS
10
3.61259
20
-0.839828
11
3.61242
21
-0.837816
0
LINE
8
BLACK
6
CONTINUOUS
10
3.61242
20
-0.837816
11
3.61358
21
-0.836162
0
LINE
8
BLACK
6
CONTINUOUS
10
3.61358
20
-0.836162
11
3.61553
21
-0.835639
0
LINE
8
BLACK
6
CONTINUOUS
10
3.61553
20
-0.835639
11
3.61736
21
-0.836492
0
LINE
8
BLACK
6
CONTINUOUS
10
3.61736
20
-0.836492
11
3.61874
21
-0.837874
0
LINE
8
BLACK
6
CONTINUOUS
10
3.61874
20
-0.837874
11
3.62325
21
-0.839377
0
LINE
8
BLACK
6
CONTINUOUS
10
3.62325
20
-0.839377
11
3.62604
21
-0.839377
0
LINE
8
BLACK
6
CONTINUOUS
10
3.62604
20
-0.839377
11
3.63055
21
-0.837874
0
LINE
8
BLACK
6
CONTINUOUS
10
3.63055
20
-0.837874
11
3.63346
21
-0.834956
0
LINE
8
BLACK
6
CONTINUOUS
10
3.63346
20
-0.834956
11
3.63498
21
-0.831926
0
LINE
8
BLACK
6
CONTINUOUS
10
3.63498
20
-0.831926
11
3.63669
21
-0.825094
0
LINE
8
BLACK
6
CONTINUOUS
10
3.63669
20
-0.825094
11
3.63669
21
-0.820196
0
LINE
8
BLACK
6
CONTINUOUS
10
3.63669
20
-0.820196
11
3.63498
21
-0.813364
0
LINE
8
BLACK
6
CONTINUOUS
10
3.63498
20
-0.813364
11
3.63346
21
-0.810333
0
LINE
8
BLACK
6
CONTINUOUS
10
3.63346
20
-0.810333
11
3.63055
21
-0.807415
0
LINE
8
BLACK
6
CONTINUOUS
10
3.63055
20
-0.807415
11
3.62604
21
-0.805913
0
LINE
8
BLACK
6
CONTINUOUS
10
3.62604
20
-0.805913
11
3.62325
21
-0.805913
0
LINE
8
BLACK
6
CONTINUOUS
10
3.62325
20
-0.805913
11
3.61874
21
-0.807415
0
LINE
8
BLACK
6
CONTINUOUS
10
3.61874
20
-0.807415
11
3.61736
21
-0.808797
0
LINE
8
BLACK
6
CONTINUOUS
10
3.61736
20
-0.808797
11
3.61652
21
-0.809386
0
LINE
8
BLACK
6
CONTINUOUS
10
3.61652
20
-0.809386
11
3.6145
21
-0.809562
0
LINE
8
BLACK
6
CONTINUOUS
10
3.6145
20
-0.809562
11
3.61285
21
-0.808403
0
LINE
8
BLACK
6
CONTINUOUS
10
3.61285
20
-0.808403
11
3.61233
21
-0.806452
0
LINE
8
BLACK
6
CONTINUOUS
10
3.61233
20
-0.806452
11
3.61318
21
-0.804621
0
LINE
8
BLACK
6
CONTINUOUS
10
3.61318
20
-0.804621
11
3.61506
21
-0.802747
0
LINE
8
BLACK
6
CONTINUOUS
10
3.61506
20
-0.802747
11
3.6159
21
-0.802159
0
LINE
8
BLACK
6
CONTINUOUS
10
3.6159
20
-0.802159
11
3.61607
21
-0.802143
0
LINE
8
BLACK
6
CONTINUOUS
10
3.61607
20
-0.802143
11
3.61621
21
-0.802033
0
LINE
8
BLACK
6
CONTINUOUS
10
3.61621
20
-0.802033
11
3.62183
21
-0.800159
0
LINE
8
BLACK
6
CONTINUOUS
10
3.62183
20
-0.800159
11
3.62271
21
-0.800029
0
LINE
8
BLACK
6
CONTINUOUS
10
3.62271
20
-0.800029
11
3.62277
21
-0.800007
0
LINE
8
BLACK
6
CONTINUOUS
10
3.62277
20
-0.800007
11
3.62652
21
-0.800007
0
LINE
8
BLACK
6
CONTINUOUS
10
3.62652
20
-0.800007
11
3.62739
21
-0.80016
0
LINE
8
BLACK
6
CONTINUOUS
10
3.6794
20
-0.801062
11
3.68009
21
-0.80296
0
LINE
8
BLACK
6
CONTINUOUS
10
3.68009
20
-0.80296
11
3.68009
21
-0.84233
0
LINE
8
BLACK
6
CONTINUOUS
10
3.68009
20
-0.84233
11
3.68002
21
-0.842713
0
LINE
8
BLACK
6
CONTINUOUS
10
3.68002
20
-0.842713
11
3.68004
21
-0.842843
0
LINE
8
BLACK
6
CONTINUOUS
10
3.68004
20
-0.842843
11
3.67998
21
-0.842956
0
LINE
8
BLACK
6
CONTINUOUS
10
3.67998
20
-0.842956
11
3.67991
21
-0.84334
0
LINE
8
BLACK
6
CONTINUOUS
10
3.67991
20
-0.84334
11
3.67942
21
-0.843928
0
LINE
8
BLACK
6
CONTINUOUS
10
3.67942
20
-0.843928
11
3.67903
21
-0.844592
0
LINE
8
BLACK
6
CONTINUOUS
10
3.67903
20
-0.844592
11
3.67878
21
-0.844683
0
LINE
8
BLACK
6
CONTINUOUS
10
3.67878
20
-0.844683
11
3.67861
21
-0.844887
0
LINE
8
BLACK
6
CONTINUOUS
10
3.67861
20
-0.844887
11
3.67786
21
-0.84502
0
LINE
8
BLACK
6
CONTINUOUS
10
3.67786
20
-0.84502
11
3.67714
21
-0.845283
0
LINE
8
BLACK
6
CONTINUOUS
10
3.67714
20
-0.845283
11
3.66214
21
-0.845283
0
LINE
8
BLACK
6
CONTINUOUS
10
3.66214
20
-0.845283
11
3.66113
21
-0.845105
0
LINE
8
BLACK
6
CONTINUOUS
10
3.66113
20
-0.845105
11
3.66099
21
-0.844991
0
LINE
8
BLACK
6
CONTINUOUS
10
3.66099
20
-0.844991
11
3.66082
21
-0.844971
0
LINE
8
BLACK
6
CONTINUOUS
10
3.66082
20
-0.844971
11
3.65707
21
-0.843096
0
LINE
8
BLACK
6
CONTINUOUS
10
3.65707
20
-0.843096
11
3.65636
21
-0.84257
0
LINE
8
BLACK
6
CONTINUOUS
10
3.65636
20
-0.84257
11
3.6563
21
-0.842543
0
LINE
8
BLACK
6
CONTINUOUS
10
3.6563
20
-0.842543
11
3.65443
21
-0.840668
0
LINE
8
BLACK
6
CONTINUOUS
10
3.65443
20
-0.840668
11
3.65392
21
-0.839945
0
LINE
8
BLACK
6
CONTINUOUS
10
3.65392
20
-0.839945
11
3.65387
21
-0.839901
0
LINE
8
BLACK
6
CONTINUOUS
10
3.65387
20
-0.839901
11
3.652
21
-0.836151
0
LINE
8
BLACK
6
CONTINUOUS
10
3.652
20
-0.836151
11
3.65171
21
-0.835168
0
LINE
8
BLACK
6
CONTINUOUS
10
3.65171
20
-0.835168
11
3.65175
21
-0.834997
0
LINE
8
BLACK
6
CONTINUOUS
10
3.65175
20
-0.834997
11
3.65169
21
-0.834831
0
LINE
8
BLACK
6
CONTINUOUS
10
3.65169
20
-0.834831
11
3.65169
21
-0.829207
0
LINE
8
BLACK
6
CONTINUOUS
10
3.65169
20
-0.829207
11
3.65186
21
-0.828197
0
LINE
8
BLACK
6
CONTINUOUS
10
3.65186
20
-0.828197
11
3.65198
21
-0.828061
0
LINE
8
BLACK
6
CONTINUOUS
10
3.65198
20
-0.828061
11
3.652
21
-0.827886
0
LINE
8
BLACK
6
CONTINUOUS
10
3.652
20
-0.827886
11
3.65387
21
-0.824137
0
LINE
8
BLACK
6
CONTINUOUS
10
3.65387
20
-0.824137
11
3.6544
21
-0.823427
0
LINE
8
BLACK
6
CONTINUOUS
10
3.6544
20
-0.823427
11
3.65443
21
-0.823369
0
LINE
8
BLACK
6
CONTINUOUS
10
3.65443
20
-0.823369
11
3.6563
21
-0.821494
0
LINE
8
BLACK
6
CONTINUOUS
10
3.6563
20
-0.821494
11
3.65702
21
-0.820988
0
LINE
8
BLACK
6
CONTINUOUS
10
3.65702
20
-0.820988
11
3.65707
21
-0.820941
0
LINE
8
BLACK
6
CONTINUOUS
10
3.65707
20
-0.820941
11
3.66082
21
-0.819066
0
LINE
8
BLACK
6
CONTINUOUS
10
3.66082
20
-0.819066
11
3.6618
21
-0.818774
0
LINE
8
BLACK
6
CONTINUOUS
10
3.6618
20
-0.818774
11
3.66197
21
-0.818815
0
LINE
8
BLACK
6
CONTINUOUS
10
3.66197
20
-0.818815
11
3.66214
21
-0.818755
0
LINE
8
BLACK
6
CONTINUOUS
10
3.66214
20
-0.818755
11
3.67418
21
-0.818755
0
LINE
8
BLACK
6
CONTINUOUS
10
3.67418
20
-0.818755
11
3.67418
21
-0.80296
0
LINE
8
BLACK
6
CONTINUOUS
10
3.67418
20
-0.80296
11
3.67436
21
-0.80195
0
LINE
8
BLACK
6
CONTINUOUS
10
3.67436
20
-0.80195
11
3.67566
21
-0.800403
0
LINE
8
BLACK
6
CONTINUOUS
10
3.67566
20
-0.800403
11
3.67765
21
-0.800052
0
LINE
8
BLACK
6
CONTINUOUS
10
3.67765
20
-0.800052
11
3.6794
21
-0.801062
0
LINE
8
BLACK
6
CONTINUOUS
10
3.66014
20
-0.826009
11
3.65894
21
-0.827206
0
LINE
8
BLACK
6
CONTINUOUS
10
3.65894
20
-0.827206
11
3.65759
21
-0.829904
0
LINE
8
BLACK
6
CONTINUOUS
10
3.65759
20
-0.829904
11
3.65759
21
-0.834134
0
LINE
8
BLACK
6
CONTINUOUS
10
3.65759
20
-0.834134
11
3.65894
21
-0.836831
0
LINE
8
BLACK
6
CONTINUOUS
10
3.65894
20
-0.836831
11
3.66014
21
-0.838028
0
LINE
8
BLACK
6
CONTINUOUS
10
3.66014
20
-0.838028
11
3.66284
21
-0.839377
0
LINE
8
BLACK
6
CONTINUOUS
10
3.66284
20
-0.839377
11
3.67418
21
-0.839377
0
LINE
8
BLACK
6
CONTINUOUS
10
3.67418
20
-0.839377
11
3.67418
21
-0.82466
0
LINE
8
BLACK
6
CONTINUOUS
10
3.67418
20
-0.82466
11
3.66284
21
-0.82466
0
LINE
8
BLACK
6
CONTINUOUS
10
3.66284
20
-0.82466
11
3.66014
21
-0.826009
0
LINE
8
BLACK
6
CONTINUOUS
10
4.7801
20
-0.800075
11
4.78023
21
-0.800052
0
LINE
8
BLACK
6
CONTINUOUS
10
4.78023
20
-0.800052
11
4.78034
21
-0.800118
0
LINE
8
BLACK
6
CONTINUOUS
10
4.78034
20
-0.800118
11
4.78072
21
-0.800185
0
LINE
8
BLACK
6
CONTINUOUS
10
4.78072
20
-0.800185
11
4.78131
21
-0.800678
0
LINE
8
BLACK
6
CONTINUOUS
10
4.78131
20
-0.800678
11
4.78198
21
-0.801062
0
LINE
8
BLACK
6
CONTINUOUS
10
4.78198
20
-0.801062
11
4.78207
21
-0.801312
0
LINE
8
BLACK
6
CONTINUOUS
10
4.78207
20
-0.801312
11
4.78227
21
-0.801483
0
LINE
8
BLACK
6
CONTINUOUS
10
4.78227
20
-0.801483
11
4.78241
21
-0.802239
0
LINE
8
BLACK
6
CONTINUOUS
10
4.78241
20
-0.802239
11
4.78267
21
-0.80296
0
LINE
8
BLACK
6
CONTINUOUS
10
4.78267
20
-0.80296
11
4.78267
21
-0.84233
0
LINE
8
BLACK
6
CONTINUOUS
10
4.78267
20
-0.84233
11
4.7826
21
-0.842713
0
LINE
8
BLACK
6
CONTINUOUS
10
4.7826
20
-0.842713
11
4.78262
21
-0.842843
0
LINE
8
BLACK
6
CONTINUOUS
10
4.78262
20
-0.842843
11
4.78256
21
-0.842956
0
LINE
8
BLACK
6
CONTINUOUS
10
4.78256
20
-0.842956
11
4.78249
21
-0.84334
0
LINE
8
BLACK
6
CONTINUOUS
10
4.78249
20
-0.84334
11
4.782
21
-0.843928
0
LINE
8
BLACK
6
CONTINUOUS
10
4.782
20
-0.843928
11
4.78161
21
-0.844592
0
LINE
8
BLACK
6
CONTINUOUS
10
4.78161
20
-0.844592
11
4.78136
21
-0.844683
0
LINE
8
BLACK
6
CONTINUOUS
10
4.78136
20
-0.844683
11
4.78119
21
-0.844887
0
LINE
8
BLACK
6
CONTINUOUS
10
4.78119
20
-0.844887
11
4.78044
21
-0.84502
0
LINE
8
BLACK
6
CONTINUOUS
10
4.78044
20
-0.84502
11
4.77971
21
-0.845283
0
LINE
8
BLACK
6
CONTINUOUS
10
4.77971
20
-0.845283
11
4.76659
21
-0.845283
0
LINE
8
BLACK
6
CONTINUOUS
10
4.76659
20
-0.845283
11
4.76558
21
-0.845105
0
LINE
8
BLACK
6
CONTINUOUS
10
4.76558
20
-0.845105
11
4.76545
21
-0.844991
0
LINE
8
BLACK
6
CONTINUOUS
10
4.76545
20
-0.844991
11
4.76527
21
-0.844971
0
LINE
8
BLACK
6
CONTINUOUS
10
4.76527
20
-0.844971
11
4.76152
21
-0.843096
0
LINE
8
BLACK
6
CONTINUOUS
10
4.76152
20
-0.843096
11
4.76081
21
-0.84257
0
LINE
8
BLACK
6
CONTINUOUS
10
4.76081
20
-0.84257
11
4.76075
21
-0.842543
0
LINE
8
BLACK
6
CONTINUOUS
10
4.76075
20
-0.842543
11
4.75888
21
-0.840668
0
LINE
8
BLACK
6
CONTINUOUS
10
4.75888
20
-0.840668
11
4.75837
21
-0.839945
0
LINE
8
BLACK
6
CONTINUOUS
10
4.75837
20
-0.839945
11
4.75833
21
-0.839901
0
LINE
8
BLACK
6
CONTINUOUS
10
4.75833
20
-0.839901
11
4.75645
21
-0.836151
0
LINE
8
BLACK
6
CONTINUOUS
10
4.75645
20
-0.836151
11
4.75616
21
-0.835168
0
LINE
8
BLACK
6
CONTINUOUS
10
4.75616
20
-0.835168
11
4.7562
21
-0.834997
0
LINE
8
BLACK
6
CONTINUOUS
10
4.7562
20
-0.834997
11
4.75614
21
-0.834831
0
LINE
8
BLACK
6
CONTINUOUS
10
4.75614
20
-0.834831
11
4.75614
21
-0.831081
0
LINE
8
BLACK
6
CONTINUOUS
10
4.75614
20
-0.831081
11
4.75632
21
-0.830071
0
LINE
8
BLACK
6
CONTINUOUS
10
4.75632
20
-0.830071
11
4.75643
21
-0.829936
0
LINE
8
BLACK
6
CONTINUOUS
10
4.75643
20
-0.829936
11
4.75645
21
-0.829761
0
LINE
8
BLACK
6
CONTINUOUS
10
4.75645
20
-0.829761
11
4.75833
21
-0.826011
0
LINE
8
BLACK
6
CONTINUOUS
10
4.75833
20
-0.826011
11
4.75885
21
-0.825302
0
LINE
8
BLACK
6
CONTINUOUS
10
4.75885
20
-0.825302
11
4.75888
21
-0.825244
0
LINE
8
BLACK
6
CONTINUOUS
10
4.75888
20
-0.825244
11
4.75976
21
-0.824362
0
LINE
8
BLACK
6
CONTINUOUS
10
4.75976
20
-0.824362
11
4.75913
21
-0.82402
0
LINE
8
BLACK
6
CONTINUOUS
10
4.75913
20
-0.82402
11
4.75904
21
-0.82387
0
LINE
8
BLACK
6
CONTINUOUS
10
4.75904
20
-0.82387
11
4.75888
21
-0.823795
0
LINE
8
BLACK
6
CONTINUOUS
10
4.75888
20
-0.823795
11
4.757
21
-0.821921
0
LINE
8
BLACK
6
CONTINUOUS
10
4.757
20
-0.821921
11
4.7565
21
-0.821198
0
LINE
8
BLACK
6
CONTINUOUS
10
4.7565
20
-0.821198
11
4.75645
21
-0.821153
0
LINE
8
BLACK
6
CONTINUOUS
10
4.75645
20
-0.821153
11
4.75458
21
-0.817404
0
LINE
8
BLACK
6
CONTINUOUS
10
4.75458
20
-0.817404
11
4.75428
21
-0.816421
0
LINE
8
BLACK
6
CONTINUOUS
10
4.75428
20
-0.816421
11
4.75433
21
-0.816249
0
LINE
8
BLACK
6
CONTINUOUS
10
4.75433
20
-0.816249
11
4.75427
21
-0.816083
0
LINE
8
BLACK
6
CONTINUOUS
10
4.75427
20
-0.816083
11
4.75427
21
-0.810459
0
LINE
8
BLACK
6
CONTINUOUS
10
4.75427
20
-0.810459
11
4.75444
21
-0.809449
0
LINE
8
BLACK
6
CONTINUOUS
10
4.75444
20
-0.809449
11
4.75456
21
-0.809314
0
LINE
8
BLACK
6
CONTINUOUS
10
4.75456
20
-0.809314
11
4.75458
21
-0.809138
0
LINE
8
BLACK
6
CONTINUOUS
10
4.75458
20
-0.809138
11
4.75645
21
-0.805389
0
LINE
8
BLACK
6
CONTINUOUS
10
4.75645
20
-0.805389
11
4.75698
21
-0.80468
0
LINE
8
BLACK
6
CONTINUOUS
10
4.75698
20
-0.80468
11
4.757
21
-0.804621
0
LINE
8
BLACK
6
CONTINUOUS
10
4.757
20
-0.804621
11
4.75888
21
-0.802747
0
LINE
8
BLACK
6
CONTINUOUS
10
4.75888
20
-0.802747
11
4.7596
21
-0.802241
0
LINE
8
BLACK
6
CONTINUOUS
10
4.7596
20
-0.802241
11
4.75965
21
-0.802194
0
LINE
8
BLACK
6
CONTINUOUS
10
4.75965
20
-0.802194
11
4.7634
21
-0.800319
0
LINE
8
BLACK
6
CONTINUOUS
10
4.7634
20
-0.800319
11
4.76438
21
-0.800026
0
LINE
8
BLACK
6
CONTINUOUS
10
4.76438
20
-0.800026
11
4.76455
21
-0.800067
0
LINE
8
BLACK
6
CONTINUOUS
10
4.76455
20
-0.800067
11
4.76472
21
-0.800007
0
LINE
8
BLACK
6
CONTINUOUS
10
4.76472
20
-0.800007
11
4.77971
21
-0.800007
0
LINE
8
BLACK
6
CONTINUOUS
10
4.77971
20
-0.800007
11
4.7801
21
-0.800075
0
LINE
8
BLACK
6
CONTINUOUS
10
4.76459
20
-0.827884
11
4.76339
21
-0.829081
0
LINE
8
BLACK
6
CONTINUOUS
10
4.76339
20
-0.829081
11
4.76205
21
-0.831778
0
LINE
8
BLACK
6
CONTINUOUS
10
4.76205
20
-0.831778
11
4.76205
21
-0.834134
0
LINE
8
BLACK
6
CONTINUOUS
10
4.76205
20
-0.834134
11
4.76339
21
-0.836831
0
LINE
8
BLACK
6
CONTINUOUS
10
4.76339
20
-0.836831
11
4.76459
21
-0.838028
0
LINE
8
BLACK
6
CONTINUOUS
10
4.76459
20
-0.838028
11
4.76729
21
-0.839377
0
LINE
8
BLACK
6
CONTINUOUS
10
4.76729
20
-0.839377
11
4.77676
21
-0.839377
0
LINE
8
BLACK
6
CONTINUOUS
10
4.77676
20
-0.839377
11
4.77676
21
-0.826535
0
LINE
8
BLACK
6
CONTINUOUS
10
4.77676
20
-0.826535
11
4.76729
21
-0.826535
0
LINE
8
BLACK
6
CONTINUOUS
10
4.76729
20
-0.826535
11
4.76459
21
-0.827884
0
LINE
8
BLACK
6
CONTINUOUS
10
4.76272
20
-0.807261
11
4.76152
21
-0.808459
0
LINE
8
BLACK
6
CONTINUOUS
10
4.76152
20
-0.808459
11
4.76017
21
-0.811156
0
LINE
8
BLACK
6
CONTINUOUS
10
4.76017
20
-0.811156
11
4.76017
21
-0.815386
0
LINE
8
BLACK
6
CONTINUOUS
10
4.76017
20
-0.815386
11
4.76152
21
-0.818084
0
LINE
8
BLACK
6
CONTINUOUS
10
4.76152
20
-0.818084
11
4.76256
21
-0.819127
0
LINE
8
BLACK
6
CONTINUOUS
10
4.76256
20
-0.819127
11
4.76707
21
-0.82063
0
LINE
8
BLACK
6
CONTINUOUS
10
4.76707
20
-0.82063
11
4.77676
21
-0.82063
0
LINE
8
BLACK
6
CONTINUOUS
10
4.77676
20
-0.82063
11
4.77676
21
-0.805913
0
LINE
8
BLACK
6
CONTINUOUS
10
4.77676
20
-0.805913
11
4.76541
21
-0.805913
0
LINE
8
BLACK
6
CONTINUOUS
10
4.76541
20
-0.805913
11
4.76272
21
-0.807261
0
LINE
8
BLACK
6
CONTINUOUS
10
4.80871
20
-0.80016
11
4.80877
21
-0.800159
0
LINE
8
BLACK
6
CONTINUOUS
10
4.80877
20
-0.800159
11
4.81439
21
-0.802033
0
LINE
8
BLACK
6
CONTINUOUS
10
4.81439
20
-0.802033
11
4.8153
21
-0.802522
0
LINE
8
BLACK
6
CONTINUOUS
10
4.8153
20
-0.802522
11
4.81539
21
-0.802672
0
LINE
8
BLACK
6
CONTINUOUS
10
4.81539
20
-0.802672
11
4.81555
21
-0.802747
0
LINE
8
BLACK
6
CONTINUOUS
10
4.81555
20
-0.802747
11
4.8193
21
-0.806496
0
LINE
8
BLACK
6
CONTINUOUS
10
4.8193
20
-0.806496
11
4.8198
21
-0.807219
0
LINE
8
BLACK
6
CONTINUOUS
10
4.8198
20
-0.807219
11
4.81985
21
-0.807264
0
LINE
8
BLACK
6
CONTINUOUS
10
4.81985
20
-0.807264
11
4.82173
21
-0.811013
0
LINE
8
BLACK
6
CONTINUOUS
10
4.82173
20
-0.811013
11
4.82187
21
-0.811502
0
LINE
8
BLACK
6
CONTINUOUS
10
4.82187
20
-0.811502
11
4.82195
21
-0.811618
0
LINE
8
BLACK
6
CONTINUOUS
10
4.82195
20
-0.811618
11
4.82382
21
-0.819117
0
LINE
8
BLACK
6
CONTINUOUS
10
4.82382
20
-0.819117
11
4.82387
21
-0.819704
0
LINE
8
BLACK
6
CONTINUOUS
10
4.82387
20
-0.819704
11
4.82391
21
-0.819833
0
LINE
8
BLACK
6
CONTINUOUS
10
4.82391
20
-0.819833
11
4.82391
21
-0.825457
0
LINE
8
BLACK
6
CONTINUOUS
10
4.82391
20
-0.825457
11
4.82381
21
-0.826037
0
LINE
8
BLACK
6
CONTINUOUS
10
4.82381
20
-0.826037
11
4.82382
21
-0.826173
0
LINE
8
BLACK
6
CONTINUOUS
10
4.82382
20
-0.826173
11
4.82195
21
-0.833672
0
LINE
8
BLACK
6
CONTINUOUS
10
4.82195
20
-0.833672
11
4.82174
21
-0.834138
0
LINE
8
BLACK
6
CONTINUOUS
10
4.82174
20
-0.834138
11
4.82173
21
-0.834277
0
LINE
8
BLACK
6
CONTINUOUS
10
4.82173
20
-0.834277
11
4.81985
21
-0.838026
0
LINE
8
BLACK
6
CONTINUOUS
10
4.81985
20
-0.838026
11
4.81933
21
-0.838735
0
LINE
8
BLACK
6
CONTINUOUS
10
4.81933
20
-0.838735
11
4.8193
21
-0.838794
0
LINE
8
BLACK
6
CONTINUOUS
10
4.8193
20
-0.838794
11
4.81555
21
-0.842543
0
LINE
8
BLACK
6
CONTINUOUS
10
4.81555
20
-0.842543
11
4.81471
21
-0.843131
0
LINE
8
BLACK
6
CONTINUOUS
10
4.81471
20
-0.843131
11
4.81453
21
-0.843147
0
LINE
8
BLACK
6
CONTINUOUS
10
4.81453
20
-0.843147
11
4.81439
21
-0.843256
0
LINE
8
BLACK
6
CONTINUOUS
10
4.81439
20
-0.843256
11
4.80877
21
-0.845131
0
LINE
8
BLACK
6
CONTINUOUS
10
4.80877
20
-0.845131
11
4.8079
21
-0.845261
0
LINE
8
BLACK
6
CONTINUOUS
10
4.8079
20
-0.845261
11
4.80784
21
-0.845283
0
LINE
8
BLACK
6
CONTINUOUS
10
4.80784
20
-0.845283
11
4.80409
21
-0.845283
0
LINE
8
BLACK
6
CONTINUOUS
10
4.80409
20
-0.845283
11
4.80322
21
-0.845129
0
LINE
8
BLACK
6
CONTINUOUS
10
4.80322
20
-0.845129
11
4.80315
21
-0.845131
0
LINE
8
BLACK
6
CONTINUOUS
10
4.80315
20
-0.845131
11
4.79753
21
-0.843256
0
LINE
8
BLACK
6
CONTINUOUS
10
4.79753
20
-0.843256
11
4.79663
21
-0.842768
0
LINE
8
BLACK
6
CONTINUOUS
10
4.79663
20
-0.842768
11
4.79653
21
-0.842618
0
LINE
8
BLACK
6
CONTINUOUS
10
4.79653
20
-0.842618
11
4.79637
21
-0.842543
0
LINE
8
BLACK
6
CONTINUOUS
10
4.79637
20
-0.842543
11
4.7945
21
-0.840668
0
LINE
8
BLACK
6
CONTINUOUS
10
4.7945
20
-0.840668
11
4.79391
21
-0.839828
0
LINE
8
BLACK
6
CONTINUOUS
10
4.79391
20
-0.839828
11
4.79374
21
-0.837816
0
LINE
8
BLACK
6
CONTINUOUS
10
4.79374
20
-0.837816
11
4.79489
21
-0.836162
0
LINE
8
BLACK
6
CONTINUOUS
10
4.79489
20
-0.836162
11
4.79685
21
-0.835639
0
LINE
8
BLACK
6
CONTINUOUS
10
4.79685
20
-0.835639
11
4.79868
21
-0.836492
0
LINE
8
BLACK
6
CONTINUOUS
10
4.79868
20
-0.836492
11
4.80006
21
-0.837874
0
LINE
8
BLACK
6
CONTINUOUS
10
4.80006
20
-0.837874
11
4.80457
21
-0.839377
0
LINE
8
BLACK
6
CONTINUOUS
10
4.80457
20
-0.839377
11
4.80736
21
-0.839377
0
LINE
8
BLACK
6
CONTINUOUS
10
4.80736
20
-0.839377
11
4.81187
21
-0.837874
0
LINE
8
BLACK
6
CONTINUOUS
10
4.81187
20
-0.837874
11
4.81478
21
-0.834956
0
LINE
8
BLACK
6
CONTINUOUS
10
4.81478
20
-0.834956
11
4.8163
21
-0.831926
0
LINE
8
BLACK
6
CONTINUOUS
10
4.8163
20
-0.831926
11
4.81801
21
-0.825093
0
LINE
8
BLACK
6
CONTINUOUS
10
4.81801
20
-0.825093
11
4.81801
21
-0.820196
0
LINE
8
BLACK
6
CONTINUOUS
10
4.81801
20
-0.820196
11
4.8163
21
-0.813364
0
LINE
8
BLACK
6
CONTINUOUS
10
4.8163
20
-0.813364
11
4.81478
21
-0.810333
0
LINE
8
BLACK
6
CONTINUOUS
10
4.81478
20
-0.810333
11
4.81187
21
-0.807415
0
LINE
8
BLACK
6
CONTINUOUS
10
4.81187
20
-0.807415
11
4.80736
21
-0.805913
0
LINE
8
BLACK
6
CONTINUOUS
10
4.80736
20
-0.805913
11
4.80457
21
-0.805913
0
LINE
8
BLACK
6
CONTINUOUS
10
4.80457
20
-0.805913
11
4.80006
21
-0.807415
0
LINE
8
BLACK
6
CONTINUOUS
10
4.80006
20
-0.807415
11
4.79868
21
-0.808797
0
LINE
8
BLACK
6
CONTINUOUS
10
4.79868
20
-0.808797
11
4.79784
21
-0.809386
0
LINE
8
BLACK
6
CONTINUOUS
10
4.79784
20
-0.809386
11
4.79582
21
-0.809562
0
LINE
8
BLACK
6
CONTINUOUS
10
4.79582
20
-0.809562
11
4.79417
21
-0.808403
0
LINE
8
BLACK
6
CONTINUOUS
10
4.79417
20
-0.808403
11
4.79365
21
-0.806452
0
LINE
8
BLACK
6
CONTINUOUS
10
4.79365
20
-0.806452
11
4.7945
21
-0.804621
0
LINE
8
BLACK
6
CONTINUOUS
10
4.7945
20
-0.804621
11
4.79637
21
-0.802747
0
LINE
8
BLACK
6
CONTINUOUS
10
4.79637
20
-0.802747
11
4.79721
21
-0.802159
0
LINE
8
BLACK
6
CONTINUOUS
10
4.79721
20
-0.802159
11
4.79739
21
-0.802143
0
LINE
8
BLACK
6
CONTINUOUS
10
4.79739
20
-0.802143
11
4.79753
21
-0.802033
0
LINE
8
BLACK
6
CONTINUOUS
10
4.79753
20
-0.802033
11
4.80315
21
-0.800159
0
LINE
8
BLACK
6
CONTINUOUS
10
4.80315
20
-0.800159
11
4.80403
21
-0.800029
0
LINE
8
BLACK
6
CONTINUOUS
10
4.80403
20
-0.800029
11
4.80409
21
-0.800007
0
LINE
8
BLACK
6
CONTINUOUS
10
4.80409
20
-0.800007
11
4.80784
21
-0.800007
0
LINE
8
BLACK
6
CONTINUOUS
10
4.80784
20
-0.800007
11
4.80871
21
-0.80016
0
LINE
8
BLACK
6
CONTINUOUS
10
4.86072
20
-0.801062
11
4.86141
21
-0.80296
0
LINE
8
BLACK
6
CONTINUOUS
10
4.86141
20
-0.80296
11
4.86141
21
-0.84233
0
LINE
8
BLACK
6
CONTINUOUS
10
4.86141
20
-0.84233
11
4.86134
21
-0.842713
0
LINE
8
BLACK
6
CONTINUOUS
10
4.86134
20
-0.842713
11
4.86136
21
-0.842843
0
LINE
8
BLACK
6
CONTINUOUS
10
4.86136
20
-0.842843
11
4.8613
21
-0.842956
0
LINE
8
BLACK
6
CONTINUOUS
10
4.8613
20
-0.842956
11
4.86123
21
-0.84334
0
LINE
8
BLACK
6
CONTINUOUS
10
4.86123
20
-0.84334
11
4.86074
21
-0.843928
0
LINE
8
BLACK
6
CONTINUOUS
10
4.86074
20
-0.843928
11
4.86035
21
-0.844592
0
LINE
8
BLACK
6
CONTINUOUS
10
4.86035
20
-0.844592
11
4.8601
21
-0.844683
0
LINE
8
BLACK
6
CONTINUOUS
10
4.8601
20
-0.844683
11
4.85993
21
-0.844887
0
LINE
8
BLACK
6
CONTINUOUS
10
4.85993
20
-0.844887
11
4.85918
21
-0.84502
0
LINE
8
BLACK
6
CONTINUOUS
10
4.85918
20
-0.84502
11
4.85846
21
-0.845283
0
LINE
8
BLACK
6
CONTINUOUS
10
4.85846
20
-0.845283
11
4.84346
21
-0.845283
0
LINE
8
BLACK
6
CONTINUOUS
10
4.84346
20
-0.845283
11
4.84245
21
-0.845105
0
LINE
8
BLACK
6
CONTINUOUS
10
4.84245
20
-0.845105
11
4.84231
21
-0.844991
0
LINE
8
BLACK
6
CONTINUOUS
10
4.84231
20
-0.844991
11
4.84214
21
-0.844971
0
LINE
8
BLACK
6
CONTINUOUS
10
4.84214
20
-0.844971
11
4.83839
21
-0.843096
0
LINE
8
BLACK
6
CONTINUOUS
10
4.83839
20
-0.843096
11
4.83768
21
-0.84257
0
LINE
8
BLACK
6
CONTINUOUS
10
4.83768
20
-0.84257
11
4.83762
21
-0.842543
0
LINE
8
BLACK
6
CONTINUOUS
10
4.83762
20
-0.842543
11
4.83574
21
-0.840668
0
LINE
8
BLACK
6
CONTINUOUS
10
4.83574
20
-0.840668
11
4.83524
21
-0.839945
0
LINE
8
BLACK
6
CONTINUOUS
10
4.83524
20
-0.839945
11
4.83519
21
-0.839901
0
LINE
8
BLACK
6
CONTINUOUS
10
4.83519
20
-0.839901
11
4.83332
21
-0.836151
0
LINE
8
BLACK
6
CONTINUOUS
10
4.83332
20
-0.836151
11
4.83302
21
-0.835168
0
LINE
8
BLACK
6
CONTINUOUS
10
4.83302
20
-0.835168
11
4.83307
21
-0.834997
0
LINE
8
BLACK
6
CONTINUOUS
10
4.83307
20
-0.834997
11
4.83301
21
-0.834831
0
LINE
8
BLACK
6
CONTINUOUS
10
4.83301
20
-0.834831
11
4.83301
21
-0.829207
0
LINE
8
BLACK
6
CONTINUOUS
10
4.83301
20
-0.829207
11
4.83318
21
-0.828197
0
LINE
8
BLACK
6
CONTINUOUS
10
4.83318
20
-0.828197
11
4.8333
21
-0.828061
0
LINE
8
BLACK
6
CONTINUOUS
10
4.8333
20
-0.828061
11
4.83332
21
-0.827886
0
LINE
8
BLACK
6
CONTINUOUS
10
4.83332
20
-0.827886
11
4.83519
21
-0.824137
0
LINE
8
BLACK
6
CONTINUOUS
10
4.83519
20
-0.824137
11
4.83572
21
-0.823427
0
LINE
8
BLACK
6
CONTINUOUS
10
4.83572
20
-0.823427
11
4.83574
21
-0.823369
0
LINE
8
BLACK
6
CONTINUOUS
10
4.83574
20
-0.823369
11
4.83762
21
-0.821494
0
LINE
8
BLACK
6
CONTINUOUS
10
4.83762
20
-0.821494
11
4.83834
21
-0.820988
0
LINE
8
BLACK
6
CONTINUOUS
10
4.83834
20
-0.820988
11
4.83839
21
-0.820941
0
LINE
8
BLACK
6
CONTINUOUS
10
4.83839
20
-0.820941
11
4.84214
21
-0.819066
0
LINE
8
BLACK
6
CONTINUOUS
10
4.84214
20
-0.819066
11
4.84312
21
-0.818774
0
LINE
8
BLACK
6
CONTINUOUS
10
4.84312
20
-0.818774
11
4.84329
21
-0.818815
0
LINE
8
BLACK
6
CONTINUOUS
10
4.84329
20
-0.818815
11
4.84346
21
-0.818755
0
LINE
8
BLACK
6
CONTINUOUS
10
4.84346
20
-0.818755
11
4.8555
21
-0.818755
0
LINE
8
BLACK
6
CONTINUOUS
10
4.8555
20
-0.818755
11
4.8555
21
-0.80296
0
LINE
8
BLACK
6
CONTINUOUS
10
4.8555
20
-0.80296
11
4.85568
21
-0.80195
0
LINE
8
BLACK
6
CONTINUOUS
10
4.85568
20
-0.80195
11
4.85698
21
-0.800403
0
LINE
8
BLACK
6
CONTINUOUS
10
4.85698
20
-0.800403
11
4.85897
21
-0.800052
0
LINE
8
BLACK
6
CONTINUOUS
10
4.85897
20
-0.800052
11
4.86072
21
-0.801062
0
LINE
8
BLACK
6
CONTINUOUS
10
4.84146
20
-0.826009
11
4.84026
21
-0.827206
0
LINE
8
BLACK
6
CONTINUOUS
10
4.84026
20
-0.827206
11
4.83891
21
-0.829904
0
LINE
8
BLACK
6
CONTINUOUS
10
4.83891
20
-0.829904
11
4.83891
21
-0.834134
0
LINE
8
BLACK
6
CONTINUOUS
10
4.83891
20
-0.834134
11
4.84026
21
-0.836831
0
LINE
8
BLACK
6
CONTINUOUS
10
4.84026
20
-0.836831
11
4.84146
21
-0.838028
0
LINE
8
BLACK
6
CONTINUOUS
10
4.84146
20
-0.838028
11
4.84415
21
-0.839377
0
LINE
8
BLACK
6
CONTINUOUS
10
4.84415
20
-0.839377
11
4.8555
21
-0.839377
0
LINE
8
BLACK
6
CONTINUOUS
10
4.8555
20
-0.839377
11
4.8555
21
-0.82466
0
LINE
8
BLACK
6
CONTINUOUS
10
4.8555
20
-0.82466
11
4.84415
21
-0.82466
0
LINE
8
BLACK
6
CONTINUOUS
10
4.84415
20
-0.82466
11
4.84146
21
-0.826009
0
LINE
8
BLACK
6
CONTINUOUS
10
3.49067
20
-0.800185
11
3.4908
21
-0.800299
0
LINE
8
BLACK
6
CONTINUOUS
10
3.4908
20
-0.800299
11
3.49098
21
-0.800319
0
LINE
8
BLACK
6
CONTINUOUS
10
3.49098
20
-0.800319
11
3.49473
21
-0.802194
0
LINE
8
BLACK
6
CONTINUOUS
10
3.49473
20
-0.802194
11
3.49544
21
-0.802719
0
LINE
8
BLACK
6
CONTINUOUS
10
3.49544
20
-0.802719
11
3.4955
21
-0.802747
0
LINE
8
BLACK
6
CONTINUOUS
10
3.4955
20
-0.802747
11
3.49737
21
-0.804621
0
LINE
8
BLACK
6
CONTINUOUS
10
3.49737
20
-0.804621
11
3.49788
21
-0.805345
0
LINE
8
BLACK
6
CONTINUOUS
10
3.49788
20
-0.805345
11
3.49792
21
-0.805389
0
LINE
8
BLACK
6
CONTINUOUS
10
3.49792
20
-0.805389
11
3.4998
21
-0.809138
0
LINE
8
BLACK
6
CONTINUOUS
10
3.4998
20
-0.809138
11
3.50009
21
-0.810121
0
LINE
8
BLACK
6
CONTINUOUS
10
3.50009
20
-0.810121
11
3.50005
21
-0.810293
0
LINE
8
BLACK
6
CONTINUOUS
10
3.50005
20
-0.810293
11
3.50011
21
-0.810459
0
LINE
8
BLACK
6
CONTINUOUS
10
3.50011
20
-0.810459
11
3.50011
21
-0.821708
0
LINE
8
BLACK
6
CONTINUOUS
10
3.50011
20
-0.821708
11
3.49993
21
-0.822717
0
LINE
8
BLACK
6
CONTINUOUS
10
3.49993
20
-0.822717
11
3.49982
21
-0.822853
0
LINE
8
BLACK
6
CONTINUOUS
10
3.49982
20
-0.822853
11
3.4998
21
-0.823028
0
LINE
8
BLACK
6
CONTINUOUS
10
3.4998
20
-0.823028
11
3.49792
21
-0.826778
0
LINE
8
BLACK
6
CONTINUOUS
10
3.49792
20
-0.826778
11
3.4974
21
-0.827487
0
LINE
8
BLACK
6
CONTINUOUS
10
3.4974
20
-0.827487
11
3.49737
21
-0.827545
0
LINE
8
BLACK
6
CONTINUOUS
10
3.49737
20
-0.827545
11
3.4955
21
-0.82942
0
LINE
8
BLACK
6
CONTINUOUS
10
3.4955
20
-0.82942
11
3.49477
21
-0.829926
0
LINE
8
BLACK
6
CONTINUOUS
10
3.49477
20
-0.829926
11
3.49473
21
-0.829973
0
LINE
8
BLACK
6
CONTINUOUS
10
3.49473
20
-0.829973
11
3.49098
21
-0.831848
0
LINE
8
BLACK
6
CONTINUOUS
10
3.49098
20
-0.831848
11
3.49
21
-0.83214
0
LINE
8
BLACK
6
CONTINUOUS
10
3.49
20
-0.83214
11
3.48983
21
-0.832099
0
LINE
8
BLACK
6
CONTINUOUS
10
3.48983
20
-0.832099
11
3.48966
21
-0.832159
0
LINE
8
BLACK
6
CONTINUOUS
10
3.48966
20
-0.832159
11
3.48216
21
-0.832159
0
LINE
8
BLACK
6
CONTINUOUS
10
3.48216
20
-0.832159
11
3.48136
21
-0.832019
0
LINE
8
BLACK
6
CONTINUOUS
10
3.48136
20
-0.832019
11
3.48136
21
-0.84233
0
LINE
8
BLACK
6
CONTINUOUS
10
3.48136
20
-0.84233
11
3.48119
21
-0.84334
0
LINE
8
BLACK
6
CONTINUOUS
10
3.48119
20
-0.84334
11
3.47989
21
-0.844887
0
LINE
8
BLACK
6
CONTINUOUS
10
3.47989
20
-0.844887
11
3.4779
21
-0.845238
0
LINE
8
BLACK
6
CONTINUOUS
10
3.4779
20
-0.845238
11
3.47615
21
-0.844228
0
LINE
8
BLACK
6
CONTINUOUS
10
3.47615
20
-0.844228
11
3.47546
21
-0.84233
0
LINE
8
BLACK
6
CONTINUOUS
10
3.47546
20
-0.84233
11
3.47546
21
-0.80296
0
LINE
8
BLACK
6
CONTINUOUS
10
3.47546
20
-0.80296
11
3.47564
21
-0.80195
0
LINE
8
BLACK
6
CONTINUOUS
10
3.47564
20
-0.80195
11
3.47693
21
-0.800403
0
LINE
8
BLACK
6
CONTINUOUS
10
3.47693
20
-0.800403
11
3.47892
21
-0.800052
0
LINE
8
BLACK
6
CONTINUOUS
10
3.47892
20
-0.800052
11
3.48006
21
-0.800708
0
LINE
8
BLACK
6
CONTINUOUS
10
3.48006
20
-0.800708
11
3.48084
21
-0.800319
0
LINE
8
BLACK
6
CONTINUOUS
10
3.48084
20
-0.800319
11
3.48182
21
-0.800026
0
LINE
8
BLACK
6
CONTINUOUS
10
3.48182
20
-0.800026
11
3.48199
21
-0.800067
0
LINE
8
BLACK
6
CONTINUOUS
10
3.48199
20
-0.800067
11
3.48216
21
-0.800007
0
LINE
8
BLACK
6
CONTINUOUS
10
3.48216
20
-0.800007
11
3.48966
21
-0.800007
0
LINE
8
BLACK
6
CONTINUOUS
10
3.48966
20
-0.800007
11
3.49067
21
-0.800185
0
LINE
8
BLACK
6
CONTINUOUS
10
3.48136
20
-0.80666
11
3.48136
21
-0.825507
0
LINE
8
BLACK
6
CONTINUOUS
10
3.48136
20
-0.825507
11
3.48286
21
-0.826254
0
LINE
8
BLACK
6
CONTINUOUS
10
3.48286
20
-0.826254
11
3.48896
21
-0.826254
0
LINE
8
BLACK
6
CONTINUOUS
10
3.48896
20
-0.826254
11
3.49166
21
-0.824905
0
LINE
8
BLACK
6
CONTINUOUS
10
3.49166
20
-0.824905
11
3.49286
21
-0.823708
0
LINE
8
BLACK
6
CONTINUOUS
10
3.49286
20
-0.823708
11
3.49421
21
-0.82101
0
LINE
8
BLACK
6
CONTINUOUS
10
3.49421
20
-0.82101
11
3.49421
21
-0.811156
0
LINE
8
BLACK
6
CONTINUOUS
10
3.49421
20
-0.811156
11
3.49286
21
-0.808458
0
LINE
8
BLACK
6
CONTINUOUS
10
3.49286
20
-0.808458
11
3.49166
21
-0.807261
0
LINE
8
BLACK
6
CONTINUOUS
10
3.49166
20
-0.807261
11
3.48896
21
-0.805913
0
LINE
8
BLACK
6
CONTINUOUS
10
3.48896
20
-0.805913
11
3.48286
21
-0.805913
0
LINE
8
BLACK
6
CONTINUOUS
10
3.48286
20
-0.805913
11
3.48136
21
-0.80666
0
LINE
8
BLACK
6
CONTINUOUS
10
4.67199
20
-0.800185
11
4.67212
21
-0.800299
0
LINE
8
BLACK
6
CONTINUOUS
10
4.67212
20
-0.800299
11
4.6723
21
-0.800319
0
LINE
8
BLACK
6
CONTINUOUS
10
4.6723
20
-0.800319
11
4.67605
21
-0.802194
0
LINE
8
BLACK
6
CONTINUOUS
10
4.67605
20
-0.802194
11
4.67676
21
-0.802719
0
LINE
8
BLACK
6
CONTINUOUS
10
4.67676
20
-0.802719
11
4.67682
21
-0.802747
0
LINE
8
BLACK
6
CONTINUOUS
10
4.67682
20
-0.802747
11
4.67869
21
-0.804621
0
LINE
8
BLACK
6
CONTINUOUS
10
4.67869
20
-0.804621
11
4.6792
21
-0.805345
0
LINE
8
BLACK
6
CONTINUOUS
10
4.6792
20
-0.805345
11
4.67924
21
-0.805389
0
LINE
8
BLACK
6
CONTINUOUS
10
4.67924
20
-0.805389
11
4.68112
21
-0.809138
0
LINE
8
BLACK
6
CONTINUOUS
10
4.68112
20
-0.809138
11
4.68141
21
-0.810121
0
LINE
8
BLACK
6
CONTINUOUS
10
4.68141
20
-0.810121
11
4.68137
21
-0.810293
0
LINE
8
BLACK
6
CONTINUOUS
10
4.68137
20
-0.810293
11
4.68143
21
-0.810459
0
LINE
8
BLACK
6
CONTINUOUS
10
4.68143
20
-0.810459
11
4.68143
21
-0.821708
0
LINE
8
BLACK
6
CONTINUOUS
10
4.68143
20
-0.821708
11
4.68125
21
-0.822717
0
LINE
8
BLACK
6
CONTINUOUS
10
4.68125
20
-0.822717
11
4.68114
21
-0.822853
0
LINE
8
BLACK
6
CONTINUOUS
10
4.68114
20
-0.822853
11
4.68112
21
-0.823028
0
LINE
8
BLACK
6
CONTINUOUS
10
4.68112
20
-0.823028
11
4.67924
21
-0.826778
0
LINE
8
BLACK
6
CONTINUOUS
10
4.67924
20
-0.826778
11
4.67872
21
-0.827487
0
LINE
8
BLACK
6
CONTINUOUS
10
4.67872
20
-0.827487
11
4.67869
21
-0.827545
0
LINE
8
BLACK
6
CONTINUOUS
10
4.67869
20
-0.827545
11
4.67682
21
-0.82942
0
LINE
8
BLACK
6
CONTINUOUS
10
4.67682
20
-0.82942
11
4.67609
21
-0.829926
0
LINE
8
BLACK
6
CONTINUOUS
10
4.67609
20
-0.829926
11
4.67605
21
-0.829973
0
LINE
8
BLACK
6
CONTINUOUS
10
4.67605
20
-0.829973
11
4.6723
21
-0.831848
0
LINE
8
BLACK
6
CONTINUOUS
10
4.6723
20
-0.831848
11
4.67132
21
-0.83214
0
LINE
8
BLACK
6
CONTINUOUS
10
4.67132
20
-0.83214
11
4.67114
21
-0.832099
0
LINE
8
BLACK
6
CONTINUOUS
10
4.67114
20
-0.832099
11
4.67098
21
-0.832159
0
LINE
8
BLACK
6
CONTINUOUS
10
4.67098
20
-0.832159
11
4.66348
21
-0.832159
0
LINE
8
BLACK
6
CONTINUOUS
10
4.66348
20
-0.832159
11
4.66268
21
-0.832019
0
LINE
8
BLACK
6
CONTINUOUS
10
4.66268
20
-0.832019
11
4.66268
21
-0.84233
0
LINE
8
BLACK
6
CONTINUOUS
10
4.66268
20
-0.84233
11
4.6625
21
-0.84334
0
LINE
8
BLACK
6
CONTINUOUS
10
4.6625
20
-0.84334
11
4.66121
21
-0.844887
0
LINE
8
BLACK
6
CONTINUOUS
10
4.66121
20
-0.844887
11
4.65922
21
-0.845238
0
LINE
8
BLACK
6
CONTINUOUS
10
4.65922
20
-0.845238
11
4.65747
21
-0.844228
0
LINE
8
BLACK
6
CONTINUOUS
10
4.65747
20
-0.844228
11
4.65678
21
-0.84233
0
LINE
8
BLACK
6
CONTINUOUS
10
4.65678
20
-0.84233
11
4.65678
21
-0.80296
0
LINE
8
BLACK
6
CONTINUOUS
10
4.65678
20
-0.80296
11
4.65696
21
-0.80195
0
LINE
8
BLACK
6
CONTINUOUS
10
4.65696
20
-0.80195
11
4.65825
21
-0.800403
0
LINE
8
BLACK
6
CONTINUOUS
10
4.65825
20
-0.800403
11
4.66024
21
-0.800052
0
LINE
8
BLACK
6
CONTINUOUS
10
4.66024
20
-0.800052
11
4.66138
21
-0.800708
0
LINE
8
BLACK
6
CONTINUOUS
10
4.66138
20
-0.800708
11
4.66216
21
-0.800319
0
LINE
8
BLACK
6
CONTINUOUS
10
4.66216
20
-0.800319
11
4.66314
21
-0.800026
0
LINE
8
BLACK
6
CONTINUOUS
10
4.66314
20
-0.800026
11
4.66331
21
-0.800067
0
LINE
8
BLACK
6
CONTINUOUS
10
4.66331
20
-0.800067
11
4.66348
21
-0.800007
0
LINE
8
BLACK
6
CONTINUOUS
10
4.66348
20
-0.800007
11
4.67098
21
-0.800007
0
LINE
8
BLACK
6
CONTINUOUS
10
4.67098
20
-0.800007
11
4.67199
21
-0.800185
0
LINE
8
BLACK
6
CONTINUOUS
10
4.66268
20
-0.80666
11
4.66268
21
-0.825507
0
LINE
8
BLACK
6
CONTINUOUS
10
4.66268
20
-0.825507
11
4.66418
21
-0.826254
0
LINE
8
BLACK
6
CONTINUOUS
10
4.66418
20
-0.826254
11
4.67028
21
-0.826254
0
LINE
8
BLACK
6
CONTINUOUS
10
4.67028
20
-0.826254
11
4.67298
21
-0.824905
0
LINE
8
BLACK
6
CONTINUOUS
10
4.67298
20
-0.824905
11
4.67418
21
-0.823708
0
LINE
8
BLACK
6
CONTINUOUS
10
4.67418
20
-0.823708
11
4.67552
21
-0.82101
0
LINE
8
BLACK
6
CONTINUOUS
10
4.67552
20
-0.82101
11
4.67552
21
-0.811156
0
LINE
8
BLACK
6
CONTINUOUS
10
4.67552
20
-0.811156
11
4.67418
21
-0.808459
0
LINE
8
BLACK
6
CONTINUOUS
10
4.67418
20
-0.808459
11
4.67298
21
-0.807261
0
LINE
8
BLACK
6
CONTINUOUS
10
4.67298
20
-0.807261
11
4.67028
21
-0.805913
0
LINE
8
BLACK
6
CONTINUOUS
10
4.67028
20
-0.805913
11
4.66418
21
-0.805913
0
LINE
8
BLACK
6
CONTINUOUS
10
4.66418
20
-0.805913
11
4.66268
21
-0.80666
0
LINE
8
BLACK
6
CONTINUOUS
10
3.4213
20
-0.800185
11
3.42144
21
-0.800299
0
LINE
8
BLACK
6
CONTINUOUS
10
3.42144
20
-0.800299
11
3.42161
21
-0.800319
0
LINE
8
BLACK
6
CONTINUOUS
10
3.42161
20
-0.800319
11
3.42536
21
-0.802194
0
LINE
8
BLACK
6
CONTINUOUS
10
3.42536
20
-0.802194
11
3.42619
21
-0.802805
0
LINE
8
BLACK
6
CONTINUOUS
10
3.42619
20
-0.802805
11
3.42636
21
-0.80321
0
LINE
8
BLACK
6
CONTINUOUS
10
3.42636
20
-0.80321
11
3.42668
21
-0.803514
0
LINE
8
BLACK
6
CONTINUOUS
10
3.42668
20
-0.803514
11
3.42856
21
-0.807264
0
LINE
8
BLACK
6
CONTINUOUS
10
3.42856
20
-0.807264
11
3.42885
21
-0.808247
0
LINE
8
BLACK
6
CONTINUOUS
10
3.42885
20
-0.808247
11
3.42881
21
-0.808418
0
LINE
8
BLACK
6
CONTINUOUS
10
3.42881
20
-0.808418
11
3.42887
21
-0.808584
0
LINE
8
BLACK
6
CONTINUOUS
10
3.42887
20
-0.808584
11
3.42887
21
-0.823582
0
LINE
8
BLACK
6
CONTINUOUS
10
3.42887
20
-0.823582
11
3.42869
21
-0.824592
0
LINE
8
BLACK
6
CONTINUOUS
10
3.42869
20
-0.824592
11
3.42858
21
-0.824727
0
LINE
8
BLACK
6
CONTINUOUS
10
3.42858
20
-0.824727
11
3.42856
21
-0.824903
0
LINE
8
BLACK
6
CONTINUOUS
10
3.42856
20
-0.824903
11
3.42668
21
-0.828652
0
LINE
8
BLACK
6
CONTINUOUS
10
3.42668
20
-0.828652
11
3.42607
21
-0.829476
0
LINE
8
BLACK
6
CONTINUOUS
10
3.42607
20
-0.829476
11
3.42567
21
-0.829652
0
LINE
8
BLACK
6
CONTINUOUS
10
3.42567
20
-0.829652
11
3.42536
21
-0.829973
0
LINE
8
BLACK
6
CONTINUOUS
10
3.42536
20
-0.829973
11
3.42161
21
-0.831848
0
LINE
8
BLACK
6
CONTINUOUS
10
3.42161
20
-0.831848
11
3.42063
21
-0.83214
0
LINE
8
BLACK
6
CONTINUOUS
10
3.42063
20
-0.83214
11
3.42046
21
-0.832099
0
LINE
8
BLACK
6
CONTINUOUS
10
3.42046
20
-0.832099
11
3.42029
21
-0.832159
0
LINE
8
BLACK
6
CONTINUOUS
10
3.42029
20
-0.832159
11
3.41279
21
-0.832159
0
LINE
8
BLACK
6
CONTINUOUS
10
3.41279
20
-0.832159
11
3.41178
21
-0.831981
0
LINE
8
BLACK
6
CONTINUOUS
10
3.41178
20
-0.831981
11
3.41165
21
-0.831868
0
LINE
8
BLACK
6
CONTINUOUS
10
3.41165
20
-0.831868
11
3.41147
21
-0.831848
0
LINE
8
BLACK
6
CONTINUOUS
10
3.41147
20
-0.831848
11
3.40772
21
-0.829973
0
LINE
8
BLACK
6
CONTINUOUS
10
3.40772
20
-0.829973
11
3.4069
21
-0.829362
0
LINE
8
BLACK
6
CONTINUOUS
10
3.4069
20
-0.829362
11
3.40672
21
-0.828956
0
LINE
8
BLACK
6
CONTINUOUS
10
3.40672
20
-0.828956
11
3.4064
21
-0.828652
0
LINE
8
BLACK
6
CONTINUOUS
10
3.4064
20
-0.828652
11
3.40453
21
-0.824903
0
LINE
8
BLACK
6
CONTINUOUS
10
3.40453
20
-0.824903
11
3.40424
21
-0.82392
0
LINE
8
BLACK
6
CONTINUOUS
10
3.40424
20
-0.82392
11
3.40428
21
-0.823748
0
LINE
8
BLACK
6
CONTINUOUS
10
3.40428
20
-0.823748
11
3.40422
21
-0.823582
0
LINE
8
BLACK
6
CONTINUOUS
10
3.40422
20
-0.823582
11
3.40422
21
-0.819833
0
LINE
8
BLACK
6
CONTINUOUS
10
3.40422
20
-0.819833
11
3.4044
21
-0.818823
0
LINE
8
BLACK
6
CONTINUOUS
10
3.4044
20
-0.818823
11
3.40471
21
-0.818449
0
LINE
8
BLACK
6
CONTINUOUS
10
3.40471
20
-0.818449
11
3.40487
21
-0.817987
0
LINE
8
BLACK
6
CONTINUOUS
10
3.40487
20
-0.817987
11
3.40534
21
-0.817699
0
LINE
8
BLACK
6
CONTINUOUS
10
3.40534
20
-0.817699
11
3.40569
21
-0.817276
0
LINE
8
BLACK
6
CONTINUOUS
10
3.40569
20
-0.817276
11
3.40617
21
-0.817191
0
LINE
8
BLACK
6
CONTINUOUS
10
3.40617
20
-0.817191
11
3.40659
21
-0.816937
0
LINE
8
BLACK
6
CONTINUOUS
10
3.40659
20
-0.816937
11
3.42296
21
-0.813663
0
LINE
8
BLACK
6
CONTINUOUS
10
3.42296
20
-0.813663
11
3.42296
21
-0.809281
0
LINE
8
BLACK
6
CONTINUOUS
10
3.42296
20
-0.809281
11
3.42184
21
-0.807035
0
LINE
8
BLACK
6
CONTINUOUS
10
3.42184
20
-0.807035
11
3.4196
21
-0.805913
0
LINE
8
BLACK
6
CONTINUOUS
10
3.4196
20
-0.805913
11
3.41349
21
-0.805913
0
LINE
8
BLACK
6
CONTINUOUS
10
3.41349
20
-0.805913
11
3.41037
21
-0.807476
0
LINE
8
BLACK
6
CONTINUOUS
10
3.41037
20
-0.807476
11
3.40938
21
-0.807768
0
LINE
8
BLACK
6
CONTINUOUS
10
3.40938
20
-0.807768
11
3.40742
21
-0.807299
0
LINE
8
BLACK
6
CONTINUOUS
10
3.40742
20
-0.807299
11
3.40621
21
-0.805676
0
LINE
8
BLACK
6
CONTINUOUS
10
3.40621
20
-0.805676
11
3.40634
21
-0.80366
0
LINE
8
BLACK
6
CONTINUOUS
10
3.40634
20
-0.80366
11
3.40772
21
-0.802194
0
LINE
8
BLACK
6
CONTINUOUS
10
3.40772
20
-0.802194
11
3.41147
21
-0.800319
0
LINE
8
BLACK
6
CONTINUOUS
10
3.41147
20
-0.800319
11
3.41246
21
-0.800026
0
LINE
8
BLACK
6
CONTINUOUS
10
3.41246
20
-0.800026
11
3.41263
21
-0.800067
0
LINE
8
BLACK
6
CONTINUOUS
10
3.41263
20
-0.800067
11
3.41279
21
-0.800007
0
LINE
8
BLACK
6
CONTINUOUS
10
3.41279
20
-0.800007
11
3.42029
21
-0.800007
0
LINE
8
BLACK
6
CONTINUOUS
10
3.42029
20
-0.800007
11
3.4213
21
-0.800185
0
LINE
8
BLACK
6
CONTINUOUS
10
3.41012
20
-0.822253
11
3.41012
21
-0.822885
0
LINE
8
BLACK
6
CONTINUOUS
10
3.41012
20
-0.822885
11
3.41125
21
-0.825131
0
LINE
8
BLACK
6
CONTINUOUS
10
3.41125
20
-0.825131
11
3.41349
21
-0.826254
0
LINE
8
BLACK
6
CONTINUOUS
10
3.41349
20
-0.826254
11
3.4196
21
-0.826254
0
LINE
8
BLACK
6
CONTINUOUS
10
3.4196
20
-0.826254
11
3.42184
21
-0.825131
0
LINE
8
BLACK
6
CONTINUOUS
10
3.42184
20
-0.825131
11
3.42296
21
-0.822885
0
LINE
8
BLACK
6
CONTINUOUS
10
3.42296
20
-0.822885
11
3.42296
21
-0.819685
0
LINE
8
BLACK
6
CONTINUOUS
10
3.42296
20
-0.819685
11
3.41012
21
-0.822253
0
LINE
8
BLACK
6
CONTINUOUS
10
3.45692
20
-0.787062
11
3.45706
21
-0.787175
0
LINE
8
BLACK
6
CONTINUOUS
10
3.45706
20
-0.787175
11
3.45723
21
-0.787195
0
LINE
8
BLACK
6
CONTINUOUS
10
3.45723
20
-0.787195
11
3.46098
21
-0.78907
0
LINE
8
BLACK
6
CONTINUOUS
10
3.46098
20
-0.78907
11
3.46181
21
-0.789681
0
LINE
8
BLACK
6
CONTINUOUS
10
3.46181
20
-0.789681
11
3.46261
21
-0.791534
0
LINE
8
BLACK
6
CONTINUOUS
10
3.46261
20
-0.791534
11
3.46203
21
-0.79347
0
LINE
8
BLACK
6
CONTINUOUS
10
3.46203
20
-0.79347
11
3.46035
21
-0.794583
0
LINE
8
BLACK
6
CONTINUOUS
10
3.46035
20
-0.794583
11
3.45834
21
-0.794352
0
LINE
8
BLACK
6
CONTINUOUS
10
3.45834
20
-0.794352
11
3.45522
21
-0.792789
0
LINE
8
BLACK
6
CONTINUOUS
10
3.45522
20
-0.792789
11
3.45099
21
-0.792789
0
LINE
8
BLACK
6
CONTINUOUS
10
3.45099
20
-0.792789
11
3.44829
21
-0.794138
0
LINE
8
BLACK
6
CONTINUOUS
10
3.44829
20
-0.794138
11
3.44709
21
-0.795335
0
LINE
8
BLACK
6
CONTINUOUS
10
3.44709
20
-0.795335
11
3.44574
21
-0.798033
0
LINE
8
BLACK
6
CONTINUOUS
10
3.44574
20
-0.798033
11
3.44574
21
-0.800163
0
LINE
8
BLACK
6
CONTINUOUS
10
3.44574
20
-0.800163
11
3.4462
21
-0.800026
0
LINE
8
BLACK
6
CONTINUOUS
10
3.4462
20
-0.800026
11
3.44637
21
-0.800067
0
LINE
8
BLACK
6
CONTINUOUS
10
3.44637
20
-0.800067
11
3.44654
21
-0.800007
0
LINE
8
BLACK
6
CONTINUOUS
10
3.44654
20
-0.800007
11
3.45404
21
-0.800007
0
LINE
8
BLACK
6
CONTINUOUS
10
3.45404
20
-0.800007
11
3.45505
21
-0.800185
0
LINE
8
BLACK
6
CONTINUOUS
10
3.45505
20
-0.800185
11
3.45518
21
-0.800299
0
LINE
8
BLACK
6
CONTINUOUS
10
3.45518
20
-0.800299
11
3.45536
21
-0.800319
0
LINE
8
BLACK
6
CONTINUOUS
10
3.45536
20
-0.800319
11
3.45911
21
-0.802194
0
LINE
8
BLACK
6
CONTINUOUS
10
3.45911
20
-0.802194
11
3.45982
21
-0.802719
0
LINE
8
BLACK
6
CONTINUOUS
10
3.45982
20
-0.802719
11
3.45988
21
-0.802747
0
LINE
8
BLACK
6
CONTINUOUS
10
3.45988
20
-0.802747
11
3.46175
21
-0.804621
0
LINE
8
BLACK
6
CONTINUOUS
10
3.46175
20
-0.804621
11
3.46226
21
-0.805345
0
LINE
8
BLACK
6
CONTINUOUS
10
3.46226
20
-0.805345
11
3.4623
21
-0.805389
0
LINE
8
BLACK
6
CONTINUOUS
10
3.4623
20
-0.805389
11
3.46418
21
-0.809138
0
LINE
8
BLACK
6
CONTINUOUS
10
3.46418
20
-0.809138
11
3.46447
21
-0.810121
0
LINE
8
BLACK
6
CONTINUOUS
10
3.46447
20
-0.810121
11
3.46443
21
-0.810293
0
LINE
8
BLACK
6
CONTINUOUS
10
3.46443
20
-0.810293
11
3.46449
21
-0.810459
0
LINE
8
BLACK
6
CONTINUOUS
10
3.46449
20
-0.810459
11
3.46449
21
-0.821708
0
LINE
8
BLACK
6
CONTINUOUS
10
3.46449
20
-0.821708
11
3.46431
21
-0.822717
0
LINE
8
BLACK
6
CONTINUOUS
10
3.46431
20
-0.822717
11
3.4642
21
-0.822853
0
LINE
8
BLACK
6
CONTINUOUS
10
3.4642
20
-0.822853
11
3.46418
21
-0.823028
0
LINE
8
BLACK
6
CONTINUOUS
10
3.46418
20
-0.823028
11
3.4623
21
-0.826778
0
LINE
8
BLACK
6
CONTINUOUS
10
3.4623
20
-0.826778
11
3.46178
21
-0.827487
0
LINE
8
BLACK
6
CONTINUOUS
10
3.46178
20
-0.827487
11
3.46175
21
-0.827545
0
LINE
8
BLACK
6
CONTINUOUS
10
3.46175
20
-0.827545
11
3.45988
21
-0.82942
0
LINE
8
BLACK
6
CONTINUOUS
10
3.45988
20
-0.82942
11
3.45915
21
-0.829926
0
LINE
8
BLACK
6
CONTINUOUS
10
3.45915
20
-0.829926
11
3.45911
21
-0.829973
0
LINE
8
BLACK
6
CONTINUOUS
10
3.45911
20
-0.829973
11
3.45536
21
-0.831848
0
LINE
8
BLACK
6
CONTINUOUS
10
3.45536
20
-0.831848
11
3.45438
21
-0.83214
0
LINE
8
BLACK
6
CONTINUOUS
10
3.45438
20
-0.83214
11
3.4542
21
-0.832099
0
LINE
8
BLACK
6
CONTINUOUS
10
3.4542
20
-0.832099
11
3.45404
21
-0.832159
0
LINE
8
BLACK
6
CONTINUOUS
10
3.45404
20
-0.832159
11
3.44654
21
-0.832159
0
LINE
8
BLACK
6
CONTINUOUS
10
3.44654
20
-0.832159
11
3.44553
21
-0.831981
0
LINE
8
BLACK
6
CONTINUOUS
10
3.44553
20
-0.831981
11
3.44539
21
-0.831868
0
LINE
8
BLACK
6
CONTINUOUS
10
3.44539
20
-0.831868
11
3.44522
21
-0.831848
0
LINE
8
BLACK
6
CONTINUOUS
10
3.44522
20
-0.831848
11
3.4445
21
-0.831487
0
LINE
8
BLACK
6
CONTINUOUS
10
3.4445
20
-0.831487
11
3.44427
21
-0.831764
0
LINE
8
BLACK
6
CONTINUOUS
10
3.44427
20
-0.831764
11
3.44228
21
-0.832114
0
LINE
8
BLACK
6
CONTINUOUS
10
3.44228
20
-0.832114
11
3.44053
21
-0.831105
0
LINE
8
BLACK
6
CONTINUOUS
10
3.44053
20
-0.831105
11
3.43984
21
-0.829207
0
LINE
8
BLACK
6
CONTINUOUS
10
3.43984
20
-0.829207
11
3.43984
21
-0.797336
0
LINE
8
BLACK
6
CONTINUOUS
10
3.43984
20
-0.797336
11
3.44002
21
-0.796326
0
LINE
8
BLACK
6
CONTINUOUS
10
3.44002
20
-0.796326
11
3.44013
21
-0.79619
0
LINE
8
BLACK
6
CONTINUOUS
10
3.44013
20
-0.79619
11
3.44015
21
-0.796015
0
LINE
8
BLACK
6
CONTINUOUS
10
3.44015
20
-0.796015
11
3.44202
21
-0.792266
0
LINE
8
BLACK
6
CONTINUOUS
10
3.44202
20
-0.792266
11
3.44255
21
-0.791556
0
LINE
8
BLACK
6
CONTINUOUS
10
3.44255
20
-0.791556
11
3.44258
21
-0.791498
0
LINE
8
BLACK
6
CONTINUOUS
10
3.44258
20
-0.791498
11
3.44445
21
-0.789623
0
LINE
8
BLACK
6
CONTINUOUS
10
3.44445
20
-0.789623
11
3.44518
21
-0.789117
0
LINE
8
BLACK
6
CONTINUOUS
10
3.44518
20
-0.789117
11
3.44522
21
-0.78907
0
LINE
8
BLACK
6
CONTINUOUS
10
3.44522
20
-0.78907
11
3.44897
21
-0.787195
0
LINE
8
BLACK
6
CONTINUOUS
10
3.44897
20
-0.787195
11
3.44995
21
-0.786903
0
LINE
8
BLACK
6
CONTINUOUS
10
3.44995
20
-0.786903
11
3.45012
21
-0.786944
0
LINE
8
BLACK
6
CONTINUOUS
10
3.45012
20
-0.786944
11
3.45029
21
-0.786884
0
LINE
8
BLACK
6
CONTINUOUS
10
3.45029
20
-0.786884
11
3.45591
21
-0.786884
0
LINE
8
BLACK
6
CONTINUOUS
10
3.45591
20
-0.786884
11
3.45692
21
-0.787062
0
LINE
8
BLACK
6
CONTINUOUS
10
3.44574
20
-0.80666
11
3.44574
21
-0.825507
0
LINE
8
BLACK
6
CONTINUOUS
10
3.44574
20
-0.825507
11
3.44724
21
-0.826254
0
LINE
8
BLACK
6
CONTINUOUS
10
3.44724
20
-0.826254
11
3.45334
21
-0.826254
0
LINE
8
BLACK
6
CONTINUOUS
10
3.45334
20
-0.826254
11
3.45604
21
-0.824905
0
LINE
8
BLACK
6
CONTINUOUS
10
3.45604
20
-0.824905
11
3.45724
21
-0.823708
0
LINE
8
BLACK
6
CONTINUOUS
10
3.45724
20
-0.823708
11
3.45859
21
-0.82101
0
LINE
8
BLACK
6
CONTINUOUS
10
3.45859
20
-0.82101
11
3.45859
21
-0.811156
0
LINE
8
BLACK
6
CONTINUOUS
10
3.45859
20
-0.811156
11
3.45724
21
-0.808459
0
LINE
8
BLACK
6
CONTINUOUS
10
3.45724
20
-0.808459
11
3.45604
21
-0.807261
0
LINE
8
BLACK
6
CONTINUOUS
10
3.45604
20
-0.807261
11
3.45334
21
-0.805913
0
LINE
8
BLACK
6
CONTINUOUS
10
3.45334
20
-0.805913
11
3.44724
21
-0.805913
0
LINE
8
BLACK
6
CONTINUOUS
10
3.44724
20
-0.805913
11
3.44574
21
-0.80666
0
LINE
8
BLACK
6
CONTINUOUS
10
3.52629
20
-0.800185
11
3.52643
21
-0.800299
0
LINE
8
BLACK
6
CONTINUOUS
10
3.52643
20
-0.800299
11
3.5266
21
-0.800319
0
LINE
8
BLACK
6
CONTINUOUS
10
3.5266
20
-0.800319
11
3.53035
21
-0.802194
0
LINE
8
BLACK
6
CONTINUOUS
10
3.53035
20
-0.802194
11
3.53117
21
-0.802805
0
LINE
8
BLACK
6
CONTINUOUS
10
3.53117
20
-0.802805
11
3.53135
21
-0.80321
0
LINE
8
BLACK
6
CONTINUOUS
10
3.53135
20
-0.80321
11
3.53167
21
-0.803514
0
LINE
8
BLACK
6
CONTINUOUS
10
3.53167
20
-0.803514
11
3.53355
21
-0.807264
0
LINE
8
BLACK
6
CONTINUOUS
10
3.53355
20
-0.807264
11
3.53384
21
-0.808247
0
LINE
8
BLACK
6
CONTINUOUS
10
3.53384
20
-0.808247
11
3.5338
21
-0.808418
0
LINE
8
BLACK
6
CONTINUOUS
10
3.5338
20
-0.808418
11
3.53386
21
-0.808584
0
LINE
8
BLACK
6
CONTINUOUS
10
3.53386
20
-0.808584
11
3.53386
21
-0.823582
0
LINE
8
BLACK
6
CONTINUOUS
10
3.53386
20
-0.823582
11
3.53368
21
-0.824592
0
LINE
8
BLACK
6
CONTINUOUS
10
3.53368
20
-0.824592
11
3.53357
21
-0.824727
0
LINE
8
BLACK
6
CONTINUOUS
10
3.53357
20
-0.824727
11
3.53355
21
-0.824903
0
LINE
8
BLACK
6
CONTINUOUS
10
3.53355
20
-0.824903
11
3.53167
21
-0.828652
0
LINE
8
BLACK
6
CONTINUOUS
10
3.53167
20
-0.828652
11
3.53106
21
-0.829476
0
LINE
8
BLACK
6
CONTINUOUS
10
3.53106
20
-0.829476
11
3.53065
21
-0.829652
0
LINE
8
BLACK
6
CONTINUOUS
10
3.53065
20
-0.829652
11
3.53035
21
-0.829973
0
LINE
8
BLACK
6
CONTINUOUS
10
3.53035
20
-0.829973
11
3.5266
21
-0.831848
0
LINE
8
BLACK
6
CONTINUOUS
10
3.5266
20
-0.831848
11
3.52562
21
-0.83214
0
LINE
8
BLACK
6
CONTINUOUS
10
3.52562
20
-0.83214
11
3.52545
21
-0.832099
0
LINE
8
BLACK
6
CONTINUOUS
10
3.52545
20
-0.832099
11
3.52528
21
-0.832159
0
LINE
8
BLACK
6
CONTINUOUS
10
3.52528
20
-0.832159
11
3.51778
21
-0.832159
0
LINE
8
BLACK
6
CONTINUOUS
10
3.51778
20
-0.832159
11
3.51677
21
-0.831981
0
LINE
8
BLACK
6
CONTINUOUS
10
3.51677
20
-0.831981
11
3.51664
21
-0.831868
0
LINE
8
BLACK
6
CONTINUOUS
10
3.51664
20
-0.831868
11
3.51646
21
-0.831848
0
LINE
8
BLACK
6
CONTINUOUS
10
3.51646
20
-0.831848
11
3.51271
21
-0.829973
0
LINE
8
BLACK
6
CONTINUOUS
10
3.51271
20
-0.829973
11
3.51189
21
-0.829362
0
LINE
8
BLACK
6
CONTINUOUS
10
3.51189
20
-0.829362
11
3.51171
21
-0.828956
0
LINE
8
BLACK
6
CONTINUOUS
10
3.51171
20
-0.828956
11
3.51139
21
-0.828652
0
LINE
8
BLACK
6
CONTINUOUS
10
3.51139
20
-0.828652
11
3.50952
21
-0.824903
0
LINE
8
BLACK
6
CONTINUOUS
10
3.50952
20
-0.824903
11
3.50922
21
-0.82392
0
LINE
8
BLACK
6
CONTINUOUS
10
3.50922
20
-0.82392
11
3.50926
21
-0.823748
0
LINE
8
BLACK
6
CONTINUOUS
10
3.50926
20
-0.823748
11
3.5092
21
-0.823582
0
LINE
8
BLACK
6
CONTINUOUS
10
3.5092
20
-0.823582
11
3.5092
21
-0.819833
0
LINE
8
BLACK
6
CONTINUOUS
10
3.5092
20
-0.819833
11
3.50938
21
-0.818823
0
LINE
8
BLACK
6
CONTINUOUS
10
3.50938
20
-0.818823
11
3.5097
21
-0.818449
0
LINE
8
BLACK
6
CONTINUOUS
10
3.5097
20
-0.818449
11
3.50985
21
-0.817987
0
LINE
8
BLACK
6
CONTINUOUS
10
3.50985
20
-0.817987
11
3.51032
21
-0.817699
0
LINE
8
BLACK
6
CONTINUOUS
10
3.51032
20
-0.817699
11
3.51068
21
-0.817276
0
LINE
8
BLACK
6
CONTINUOUS
10
3.51068
20
-0.817276
11
3.51116
21
-0.817191
0
LINE
8
BLACK
6
CONTINUOUS
10
3.51116
20
-0.817191
11
3.51158
21
-0.816937
0
LINE
8
BLACK
6
CONTINUOUS
10
3.51158
20
-0.816937
11
3.52795
21
-0.813663
0
LINE
8
BLACK
6
CONTINUOUS
10
3.52795
20
-0.813663
11
3.52795
21
-0.809281
0
LINE
8
BLACK
6
CONTINUOUS
10
3.52795
20
-0.809281
11
3.52683
21
-0.807035
0
LINE
8
BLACK
6
CONTINUOUS
10
3.52683
20
-0.807035
11
3.52458
21
-0.805913
0
LINE
8
BLACK
6
CONTINUOUS
10
3.52458
20
-0.805913
11
3.51848
21
-0.805913
0
LINE
8
BLACK
6
CONTINUOUS
10
3.51848
20
-0.805913
11
3.51535
21
-0.807476
0
LINE
8
BLACK
6
CONTINUOUS
10
3.51535
20
-0.807476
11
3.51437
21
-0.807768
0
LINE
8
BLACK
6
CONTINUOUS
10
3.51437
20
-0.807768
11
3.5124
21
-0.807299
0
LINE
8
BLACK
6
CONTINUOUS
10
3.5124
20
-0.807299
11
3.5112
21
-0.805676
0
LINE
8
BLACK
6
CONTINUOUS
10
3.5112
20
-0.805676
11
3.51132
21
-0.80366
0
LINE
8
BLACK
6
CONTINUOUS
10
3.51132
20
-0.80366
11
3.51271
21
-0.802194
0
LINE
8
BLACK
6
CONTINUOUS
10
3.51271
20
-0.802194
11
3.51646
21
-0.800319
0
LINE
8
BLACK
6
CONTINUOUS
10
3.51646
20
-0.800319
11
3.51744
21
-0.800026
0
LINE
8
BLACK
6
CONTINUOUS
10
3.51744
20
-0.800026
11
3.51762
21
-0.800067
0
LINE
8
BLACK
6
CONTINUOUS
10
3.51762
20
-0.800067
11
3.51778
21
-0.800007
0
LINE
8
BLACK
6
CONTINUOUS
10
3.51778
20
-0.800007
11
3.52528
21
-0.800007
0
LINE
8
BLACK
6
CONTINUOUS
10
3.52528
20
-0.800007
11
3.52629
21
-0.800185
0
LINE
8
BLACK
6
CONTINUOUS
10
3.51511
20
-0.822253
11
3.51511
21
-0.822885
0
LINE
8
BLACK
6
CONTINUOUS
10
3.51511
20
-0.822885
11
3.51623
21
-0.825131
0
LINE
8
BLACK
6
CONTINUOUS
10
3.51623
20
-0.825131
11
3.51848
21
-0.826254
0
LINE
8
BLACK
6
CONTINUOUS
10
3.51848
20
-0.826254
11
3.52458
21
-0.826254
0
LINE
8
BLACK
6
CONTINUOUS
10
3.52458
20
-0.826254
11
3.52683
21
-0.825131
0
LINE
8
BLACK
6
CONTINUOUS
10
3.52683
20
-0.825131
11
3.52795
21
-0.822885
0
LINE
8
BLACK
6
CONTINUOUS
10
3.52795
20
-0.822885
11
3.52795
21
-0.819685
0
LINE
8
BLACK
6
CONTINUOUS
10
3.52795
20
-0.819685
11
3.51511
21
-0.822253
0
LINE
8
BLACK
6
CONTINUOUS
10
4.60262
20
-0.800185
11
4.60276
21
-0.800299
0
LINE
8
BLACK
6
CONTINUOUS
10
4.60276
20
-0.800299
11
4.60293
21
-0.800319
0
LINE
8
BLACK
6
CONTINUOUS
10
4.60293
20
-0.800319
11
4.60668
21
-0.802194
0
LINE
8
BLACK
6
CONTINUOUS
10
4.60668
20
-0.802194
11
4.60751
21
-0.802805
0
LINE
8
BLACK
6
CONTINUOUS
10
4.60751
20
-0.802805
11
4.60768
21
-0.80321
0
LINE
8
BLACK
6
CONTINUOUS
10
4.60768
20
-0.80321
11
4.608
21
-0.803514
0
LINE
8
BLACK
6
CONTINUOUS
10
4.608
20
-0.803514
11
4.60988
21
-0.807264
0
LINE
8
BLACK
6
CONTINUOUS
10
4.60988
20
-0.807264
11
4.61017
21
-0.808247
0
LINE
8
BLACK
6
CONTINUOUS
10
4.61017
20
-0.808247
11
4.61013
21
-0.808418
0
LINE
8
BLACK
6
CONTINUOUS
10
4.61013
20
-0.808418
11
4.61019
21
-0.808584
0
LINE
8
BLACK
6
CONTINUOUS
10
4.61019
20
-0.808584
11
4.61019
21
-0.823582
0
LINE
8
BLACK
6
CONTINUOUS
10
4.61019
20
-0.823582
11
4.61001
21
-0.824592
0
LINE
8
BLACK
6
CONTINUOUS
10
4.61001
20
-0.824592
11
4.6099
21
-0.824727
0
LINE
8
BLACK
6
CONTINUOUS
10
4.6099
20
-0.824727
11
4.60988
21
-0.824903
0
LINE
8
BLACK
6
CONTINUOUS
10
4.60988
20
-0.824903
11
4.608
21
-0.828652
0
LINE
8
BLACK
6
CONTINUOUS
10
4.608
20
-0.828652
11
4.60739
21
-0.829476
0
LINE
8
BLACK
6
CONTINUOUS
10
4.60739
20
-0.829476
11
4.60699
21
-0.829652
0
LINE
8
BLACK
6
CONTINUOUS
10
4.60699
20
-0.829652
11
4.60668
21
-0.829973
0
LINE
8
BLACK
6
CONTINUOUS
10
4.60668
20
-0.829973
11
4.60293
21
-0.831848
0
LINE
8
BLACK
6
CONTINUOUS
10
4.60293
20
-0.831848
11
4.60195
21
-0.83214
0
LINE
8
BLACK
6
CONTINUOUS
10
4.60195
20
-0.83214
11
4.60178
21
-0.832099
0
LINE
8
BLACK
6
CONTINUOUS
10
4.60178
20
-0.832099
11
4.60161
21
-0.832159
0
LINE
8
BLACK
6
CONTINUOUS
10
4.60161
20
-0.832159
11
4.59411
21
-0.832159
0
LINE
8
BLACK
6
CONTINUOUS
10
4.59411
20
-0.832159
11
4.5931
21
-0.831981
0
LINE
8
BLACK
6
CONTINUOUS
10
4.5931
20
-0.831981
11
4.59297
21
-0.831868
0
LINE
8
BLACK
6
CONTINUOUS
10
4.59297
20
-0.831868
11
4.59279
21
-0.831848
0
LINE
8
BLACK
6
CONTINUOUS
10
4.59279
20
-0.831848
11
4.58904
21
-0.829973
0
LINE
8
BLACK
6
CONTINUOUS
10
4.58904
20
-0.829973
11
4.58822
21
-0.829362
0
LINE
8
BLACK
6
CONTINUOUS
10
4.58822
20
-0.829362
11
4.58804
21
-0.828956
0
LINE
8
BLACK
6
CONTINUOUS
10
4.58804
20
-0.828956
11
4.58772
21
-0.828652
0
LINE
8
BLACK
6
CONTINUOUS
10
4.58772
20
-0.828652
11
4.58585
21
-0.824903
0
LINE
8
BLACK
6
CONTINUOUS
10
4.58585
20
-0.824903
11
4.58556
21
-0.82392
0
LINE
8
BLACK
6
CONTINUOUS
10
4.58556
20
-0.82392
11
4.5856
21
-0.823748
0
LINE
8
BLACK
6
CONTINUOUS
10
4.5856
20
-0.823748
11
4.58554
21
-0.823582
0
LINE
8
BLACK
6
CONTINUOUS
10
4.58554
20
-0.823582
11
4.58554
21
-0.819833
0
LINE
8
BLACK
6
CONTINUOUS
10
4.58554
20
-0.819833
11
4.58571
21
-0.818823
0
LINE
8
BLACK
6
CONTINUOUS
10
4.58571
20
-0.818823
11
4.58603
21
-0.818449
0
LINE
8
BLACK
6
CONTINUOUS
10
4.58603
20
-0.818449
11
4.58618
21
-0.817987
0
LINE
8
BLACK
6
CONTINUOUS
10
4.58618
20
-0.817987
11
4.58666
21
-0.817699
0
LINE
8
BLACK
6
CONTINUOUS
10
4.58666
20
-0.817699
11
4.58701
21
-0.817276
0
LINE
8
BLACK
6
CONTINUOUS
10
4.58701
20
-0.817276
11
4.58749
21
-0.817191
0
LINE
8
BLACK
6
CONTINUOUS
10
4.58749
20
-0.817191
11
4.58791
21
-0.816937
0
LINE
8
BLACK
6
CONTINUOUS
10
4.58791
20
-0.816937
11
4.60428
21
-0.813663
0
LINE
8
BLACK
6
CONTINUOUS
10
4.60428
20
-0.813663
11
4.60428
21
-0.809281
0
LINE
8
BLACK
6
CONTINUOUS
10
4.60428
20
-0.809281
11
4.60316
21
-0.807035
0
LINE
8
BLACK
6
CONTINUOUS
10
4.60316
20
-0.807035
11
4.60092
21
-0.805913
0
LINE
8
BLACK
6
CONTINUOUS
10
4.60092
20
-0.805913
11
4.59481
21
-0.805913
0
LINE
8
BLACK
6
CONTINUOUS
10
4.59481
20
-0.805913
11
4.59168
21
-0.807476
0
LINE
8
BLACK
6
CONTINUOUS
10
4.59168
20
-0.807476
11
4.5907
21
-0.807768
0
LINE
8
BLACK
6
CONTINUOUS
10
4.5907
20
-0.807768
11
4.58874
21
-0.807299
0
LINE
8
BLACK
6
CONTINUOUS
10
4.58874
20
-0.807299
11
4.58753
21
-0.805676
0
LINE
8
BLACK
6
CONTINUOUS
10
4.58753
20
-0.805676
11
4.58765
21
-0.80366
0
LINE
8
BLACK
6
CONTINUOUS
10
4.58765
20
-0.80366
11
4.58904
21
-0.802194
0
LINE
8
BLACK
6
CONTINUOUS
10
4.58904
20
-0.802194
11
4.59279
21
-0.800319
0
LINE
8
BLACK
6
CONTINUOUS
10
4.59279
20
-0.800319
11
4.59378
21
-0.800026
0
LINE
8
BLACK
6
CONTINUOUS
10
4.59378
20
-0.800026
11
4.59395
21
-0.800067
0
LINE
8
BLACK
6
CONTINUOUS
10
4.59395
20
-0.800067
11
4.59411
21
-0.800007
0
LINE
8
BLACK
6
CONTINUOUS
10
4.59411
20
-0.800007
11
4.60161
21
-0.800007
0
LINE
8
BLACK
6
CONTINUOUS
10
4.60161
20
-0.800007
11
4.60262
21
-0.800185
0
LINE
8
BLACK
6
CONTINUOUS
10
4.59144
20
-0.822253
11
4.59144
21
-0.822885
0
LINE
8
BLACK
6
CONTINUOUS
10
4.59144
20
-0.822885
11
4.59256
21
-0.825131
0
LINE
8
BLACK
6
CONTINUOUS
10
4.59256
20
-0.825131
11
4.59481
21
-0.826254
0
LINE
8
BLACK
6
CONTINUOUS
10
4.59481
20
-0.826254
11
4.60092
21
-0.826254
0
LINE
8
BLACK
6
CONTINUOUS
10
4.60092
20
-0.826254
11
4.60316
21
-0.825131
0
LINE
8
BLACK
6
CONTINUOUS
10
4.60316
20
-0.825131
11
4.60428
21
-0.822885
0
LINE
8
BLACK
6
CONTINUOUS
10
4.60428
20
-0.822885
11
4.60428
21
-0.819685
0
LINE
8
BLACK
6
CONTINUOUS
10
4.60428
20
-0.819685
11
4.59144
21
-0.822253
0
LINE
8
BLACK
6
CONTINUOUS
10
4.63824
20
-0.787062
11
4.63838
21
-0.787175
0
LINE
8
BLACK
6
CONTINUOUS
10
4.63838
20
-0.787175
11
4.63855
21
-0.787195
0
LINE
8
BLACK
6
CONTINUOUS
10
4.63855
20
-0.787195
11
4.6423
21
-0.78907
0
LINE
8
BLACK
6
CONTINUOUS
10
4.6423
20
-0.78907
11
4.64313
21
-0.789681
0
LINE
8
BLACK
6
CONTINUOUS
10
4.64313
20
-0.789681
11
4.64393
21
-0.791534
0
LINE
8
BLACK
6
CONTINUOUS
10
4.64393
20
-0.791534
11
4.64335
21
-0.79347
0
LINE
8
BLACK
6
CONTINUOUS
10
4.64335
20
-0.79347
11
4.64167
21
-0.794583
0
LINE
8
BLACK
6
CONTINUOUS
10
4.64167
20
-0.794583
11
4.63966
21
-0.794352
0
LINE
8
BLACK
6
CONTINUOUS
10
4.63966
20
-0.794352
11
4.63654
21
-0.792789
0
LINE
8
BLACK
6
CONTINUOUS
10
4.63654
20
-0.792789
11
4.63231
21
-0.792789
0
LINE
8
BLACK
6
CONTINUOUS
10
4.63231
20
-0.792789
11
4.62961
21
-0.794138
0
LINE
8
BLACK
6
CONTINUOUS
10
4.62961
20
-0.794138
11
4.62841
21
-0.795335
0
LINE
8
BLACK
6
CONTINUOUS
10
4.62841
20
-0.795335
11
4.62706
21
-0.798033
0
LINE
8
BLACK
6
CONTINUOUS
10
4.62706
20
-0.798033
11
4.62706
21
-0.800163
0
LINE
8
BLACK
6
CONTINUOUS
10
4.62706
20
-0.800163
11
4.62752
21
-0.800026
0
LINE
8
BLACK
6
CONTINUOUS
10
4.62752
20
-0.800026
11
4.62769
21
-0.800067
0
LINE
8
BLACK
6
CONTINUOUS
10
4.62769
20
-0.800067
11
4.62786
21
-0.800007
0
LINE
8
BLACK
6
CONTINUOUS
10
4.62786
20
-0.800007
11
4.63536
21
-0.800007
0
LINE
8
BLACK
6
CONTINUOUS
10
4.63536
20
-0.800007
11
4.63637
21
-0.800185
0
LINE
8
BLACK
6
CONTINUOUS
10
4.63637
20
-0.800185
11
4.6365
21
-0.800299
0
LINE
8
BLACK
6
CONTINUOUS
10
4.6365
20
-0.800299
11
4.63668
21
-0.800319
0
LINE
8
BLACK
6
CONTINUOUS
10
4.63668
20
-0.800319
11
4.64043
21
-0.802194
0
LINE
8
BLACK
6
CONTINUOUS
10
4.64043
20
-0.802194
11
4.64114
21
-0.802719
0
LINE
8
BLACK
6
CONTINUOUS
10
4.64114
20
-0.802719
11
4.6412
21
-0.802747
0
LINE
8
BLACK
6
CONTINUOUS
10
4.6412
20
-0.802747
11
4.64307
21
-0.804621
0
LINE
8
BLACK
6
CONTINUOUS
10
4.64307
20
-0.804621
11
4.64358
21
-0.805345
0
LINE
8
BLACK
6
CONTINUOUS
10
4.64358
20
-0.805345
11
4.64362
21
-0.805389
0
LINE
8
BLACK
6
CONTINUOUS
10
4.64362
20
-0.805389
11
4.6455
21
-0.809138
0
LINE
8
BLACK
6
CONTINUOUS
10
4.6455
20
-0.809138
11
4.64579
21
-0.810121
0
LINE
8
BLACK
6
CONTINUOUS
10
4.64579
20
-0.810121
11
4.64575
21
-0.810293
0
LINE
8
BLACK
6
CONTINUOUS
10
4.64575
20
-0.810293
11
4.64581
21
-0.810459
0
LINE
8
BLACK
6
CONTINUOUS
10
4.64581
20
-0.810459
11
4.64581
21
-0.821708
0
LINE
8
BLACK
6
CONTINUOUS
10
4.64581
20
-0.821708
11
4.64563
21
-0.822717
0
LINE
8
BLACK
6
CONTINUOUS
10
4.64563
20
-0.822717
11
4.64552
21
-0.822853
0
LINE
8
BLACK
6
CONTINUOUS
10
4.64552
20
-0.822853
11
4.6455
21
-0.823028
0
LINE
8
BLACK
6
CONTINUOUS
10
4.6455
20
-0.823028
11
4.64362
21
-0.826778
0
LINE
8
BLACK
6
CONTINUOUS
10
4.64362
20
-0.826778
11
4.6431
21
-0.827487
0
LINE
8
BLACK
6
CONTINUOUS
10
4.6431
20
-0.827487
11
4.64307
21
-0.827545
0
LINE
8
BLACK
6
CONTINUOUS
10
4.64307
20
-0.827545
11
4.6412
21
-0.82942
0
LINE
8
BLACK
6
CONTINUOUS
10
4.6412
20
-0.82942
11
4.64047
21
-0.829926
0
LINE
8
BLACK
6
CONTINUOUS
10
4.64047
20
-0.829926
11
4.64043
21
-0.829973
0
LINE
8
BLACK
6
CONTINUOUS
10
4.64043
20
-0.829973
11
4.63668
21
-0.831848
0
LINE
8
BLACK
6
CONTINUOUS
10
4.63668
20
-0.831848
11
4.6357
21
-0.83214
0
LINE
8
BLACK
6
CONTINUOUS
10
4.6357
20
-0.83214
11
4.63552
21
-0.832099
0
LINE
8
BLACK
6
CONTINUOUS
10
4.63552
20
-0.832099
11
4.63536
21
-0.832159
0
LINE
8
BLACK
6
CONTINUOUS
10
4.63536
20
-0.832159
11
4.62786
21
-0.832159
0
LINE
8
BLACK
6
CONTINUOUS
10
4.62786
20
-0.832159
11
4.62685
21
-0.831981
0
LINE
8
BLACK
6
CONTINUOUS
10
4.62685
20
-0.831981
11
4.62671
21
-0.831868
0
LINE
8
BLACK
6
CONTINUOUS
10
4.62671
20
-0.831868
11
4.62654
21
-0.831848
0
LINE
8
BLACK
6
CONTINUOUS
10
4.62654
20
-0.831848
11
4.62582
21
-0.831487
0
LINE
8
BLACK
6
CONTINUOUS
10
4.62582
20
-0.831487
11
4.62559
21
-0.831764
0
LINE
8
BLACK
6
CONTINUOUS
10
4.62559
20
-0.831764
11
4.6236
21
-0.832114
0
LINE
8
BLACK
6
CONTINUOUS
10
4.6236
20
-0.832114
11
4.62185
21
-0.831105
0
LINE
8
BLACK
6
CONTINUOUS
10
4.62185
20
-0.831105
11
4.62116
21
-0.829207
0
LINE
8
BLACK
6
CONTINUOUS
10
4.62116
20
-0.829207
11
4.62116
21
-0.797336
0
LINE
8
BLACK
6
CONTINUOUS
10
4.62116
20
-0.797336
11
4.62133
21
-0.796326
0
LINE
8
BLACK
6
CONTINUOUS
10
4.62133
20
-0.796326
11
4.62145
21
-0.79619
0
LINE
8
BLACK
6
CONTINUOUS
10
4.62145
20
-0.79619
11
4.62147
21
-0.796015
0
LINE
8
BLACK
6
CONTINUOUS
10
4.62147
20
-0.796015
11
4.62334
21
-0.792266
0
LINE
8
BLACK
6
CONTINUOUS
10
4.62334
20
-0.792266
11
4.62387
21
-0.791556
0
LINE
8
BLACK
6
CONTINUOUS
10
4.62387
20
-0.791556
11
4.6239
21
-0.791498
0
LINE
8
BLACK
6
CONTINUOUS
10
4.6239
20
-0.791498
11
4.62577
21
-0.789623
0
LINE
8
BLACK
6
CONTINUOUS
10
4.62577
20
-0.789623
11
4.62649
21
-0.789117
0
LINE
8
BLACK
6
CONTINUOUS
10
4.62649
20
-0.789117
11
4.62654
21
-0.78907
0
LINE
8
BLACK
6
CONTINUOUS
10
4.62654
20
-0.78907
11
4.63029
21
-0.787195
0
LINE
8
BLACK
6
CONTINUOUS
10
4.63029
20
-0.787195
11
4.63127
21
-0.786903
0
LINE
8
BLACK
6
CONTINUOUS
10
4.63127
20
-0.786903
11
4.63144
21
-0.786944
0
LINE
8
BLACK
6
CONTINUOUS
10
4.63144
20
-0.786944
11
4.63161
21
-0.786884
0
LINE
8
BLACK
6
CONTINUOUS
10
4.63161
20
-0.786884
11
4.63723
21
-0.786884
0
LINE
8
BLACK
6
CONTINUOUS
10
4.63723
20
-0.786884
11
4.63824
21
-0.787062
0
LINE
8
BLACK
6
CONTINUOUS
10
4.62706
20
-0.80666
11
4.62706
21
-0.825507
0
LINE
8
BLACK
6
CONTINUOUS
10
4.62706
20
-0.825507
11
4.62856
21
-0.826254
0
LINE
8
BLACK
6
CONTINUOUS
10
4.62856
20
-0.826254
11
4.63466
21
-0.826254
0
LINE
8
BLACK
6
CONTINUOUS
10
4.63466
20
-0.826254
11
4.63736
21
-0.824905
0
LINE
8
BLACK
6
CONTINUOUS
10
4.63736
20
-0.824905
11
4.63856
21
-0.823708
0
LINE
8
BLACK
6
CONTINUOUS
10
4.63856
20
-0.823708
11
4.6399
21
-0.82101
0
LINE
8
BLACK
6
CONTINUOUS
10
4.6399
20
-0.82101
11
4.6399
21
-0.811156
0
LINE
8
BLACK
6
CONTINUOUS
10
4.6399
20
-0.811156
11
4.63856
21
-0.808459
0
LINE
8
BLACK
6
CONTINUOUS
10
4.63856
20
-0.808459
11
4.63736
21
-0.807261
0
LINE
8
BLACK
6
CONTINUOUS
10
4.63736
20
-0.807261
11
4.63466
21
-0.805913
0
LINE
8
BLACK
6
CONTINUOUS
10
4.63466
20
-0.805913
11
4.62856
21
-0.805913
0
LINE
8
BLACK
6
CONTINUOUS
10
4.62856
20
-0.805913
11
4.62706
21
-0.80666
0
LINE
8
BLACK
6
CONTINUOUS
10
4.70761
20
-0.800185
11
4.70774
21
-0.800299
0
LINE
8
BLACK
6
CONTINUOUS
10
4.70774
20
-0.800299
11
4.70792
21
-0.800319
0
LINE
8
BLACK
6
CONTINUOUS
10
4.70792
20
-0.800319
11
4.71167
21
-0.802194
0
LINE
8
BLACK
6
CONTINUOUS
10
4.71167
20
-0.802194
11
4.71249
21
-0.802805
0
LINE
8
BLACK
6
CONTINUOUS
10
4.71249
20
-0.802805
11
4.71267
21
-0.80321
0
LINE
8
BLACK
6
CONTINUOUS
10
4.71267
20
-0.80321
11
4.71299
21
-0.803514
0
LINE
8
BLACK
6
CONTINUOUS
10
4.71299
20
-0.803514
11
4.71486
21
-0.807264
0
LINE
8
BLACK
6
CONTINUOUS
10
4.71486
20
-0.807264
11
4.71516
21
-0.808247
0
LINE
8
BLACK
6
CONTINUOUS
10
4.71516
20
-0.808247
11
4.71512
21
-0.808418
0
LINE
8
BLACK
6
CONTINUOUS
10
4.71512
20
-0.808418
11
4.71518
21
-0.808584
0
LINE
8
BLACK
6
CONTINUOUS
10
4.71518
20
-0.808584
11
4.71518
21
-0.823582
0
LINE
8
BLACK
6
CONTINUOUS
10
4.71518
20
-0.823582
11
4.715
21
-0.824592
0
LINE
8
BLACK
6
CONTINUOUS
10
4.715
20
-0.824592
11
4.71488
21
-0.824727
0
LINE
8
BLACK
6
CONTINUOUS
10
4.71488
20
-0.824727
11
4.71486
21
-0.824903
0
LINE
8
BLACK
6
CONTINUOUS
10
4.71486
20
-0.824903
11
4.71299
21
-0.828652
0
LINE
8
BLACK
6
CONTINUOUS
10
4.71299
20
-0.828652
11
4.71238
21
-0.829476
0
LINE
8
BLACK
6
CONTINUOUS
10
4.71238
20
-0.829476
11
4.71197
21
-0.829652
0
LINE
8
BLACK
6
CONTINUOUS
10
4.71197
20
-0.829652
11
4.71167
21
-0.829973
0
LINE
8
BLACK
6
CONTINUOUS
10
4.71167
20
-0.829973
11
4.70792
21
-0.831848
0
LINE
8
BLACK
6
CONTINUOUS
10
4.70792
20
-0.831848
11
4.70694
21
-0.83214
0
LINE
8
BLACK
6
CONTINUOUS
10
4.70694
20
-0.83214
11
4.70676
21
-0.832099
0
LINE
8
BLACK
6
CONTINUOUS
10
4.70676
20
-0.832099
11
4.7066
21
-0.832159
0
LINE
8
BLACK
6
CONTINUOUS
10
4.7066
20
-0.832159
11
4.6991
21
-0.832159
0
LINE
8
BLACK
6
CONTINUOUS
10
4.6991
20
-0.832159
11
4.69809
21
-0.831981
0
LINE
8
BLACK
6
CONTINUOUS
10
4.69809
20
-0.831981
11
4.69795
21
-0.831868
0
LINE
8
BLACK
6
CONTINUOUS
10
4.69795
20
-0.831868
11
4.69778
21
-0.831848
0
LINE
8
BLACK
6
CONTINUOUS
10
4.69778
20
-0.831848
11
4.69403
21
-0.829973
0
LINE
8
BLACK
6
CONTINUOUS
10
4.69403
20
-0.829973
11
4.69321
21
-0.829362
0
LINE
8
BLACK
6
CONTINUOUS
10
4.69321
20
-0.829362
11
4.69303
21
-0.828956
0
LINE
8
BLACK
6
CONTINUOUS
10
4.69303
20
-0.828956
11
4.69271
21
-0.828652
0
LINE
8
BLACK
6
CONTINUOUS
10
4.69271
20
-0.828652
11
4.69083
21
-0.824903
0
LINE
8
BLACK
6
CONTINUOUS
10
4.69083
20
-0.824903
11
4.69054
21
-0.82392
0
LINE
8
BLACK
6
CONTINUOUS
10
4.69054
20
-0.82392
11
4.69058
21
-0.823748
0
LINE
8
BLACK
6
CONTINUOUS
10
4.69058
20
-0.823748
11
4.69052
21
-0.823582
0
LINE
8
BLACK
6
CONTINUOUS
10
4.69052
20
-0.823582
11
4.69052
21
-0.819833
0
LINE
8
BLACK
6
CONTINUOUS
10
4.69052
20
-0.819833
11
4.6907
21
-0.818823
0
LINE
8
BLACK
6
CONTINUOUS
10
4.6907
20
-0.818823
11
4.69101
21
-0.818449
0
LINE
8
BLACK
6
CONTINUOUS
10
4.69101
20
-0.818449
11
4.69117
21
-0.817987
0
LINE
8
BLACK
6
CONTINUOUS
10
4.69117
20
-0.817987
11
4.69164
21
-0.817699
0
LINE
8
BLACK
6
CONTINUOUS
10
4.69164
20
-0.817699
11
4.692
21
-0.817276
0
LINE
8
BLACK
6
CONTINUOUS
10
4.692
20
-0.817276
11
4.69248
21
-0.817191
0
LINE
8
BLACK
6
CONTINUOUS
10
4.69248
20
-0.817191
11
4.6929
21
-0.816937
0
LINE
8
BLACK
6
CONTINUOUS
10
4.6929
20
-0.816937
11
4.70927
21
-0.813663
0
LINE
8
BLACK
6
CONTINUOUS
10
4.70927
20
-0.813663
11
4.70927
21
-0.809281
0
LINE
8
BLACK
6
CONTINUOUS
10
4.70927
20
-0.809281
11
4.70815
21
-0.807035
0
LINE
8
BLACK
6
CONTINUOUS
10
4.70815
20
-0.807035
11
4.7059
21
-0.805913
0
LINE
8
BLACK
6
CONTINUOUS
10
4.7059
20
-0.805913
11
4.6998
21
-0.805913
0
LINE
8
BLACK
6
CONTINUOUS
10
4.6998
20
-0.805913
11
4.69667
21
-0.807476
0
LINE
8
BLACK
6
CONTINUOUS
10
4.69667
20
-0.807476
11
4.69569
21
-0.807768
0
LINE
8
BLACK
6
CONTINUOUS
10
4.69569
20
-0.807768
11
4.69372
21
-0.807299
0
LINE
8
BLACK
6
CONTINUOUS
10
4.69372
20
-0.807299
11
4.69252
21
-0.805676
0
LINE
8
BLACK
6
CONTINUOUS
10
4.69252
20
-0.805676
11
4.69264
21
-0.80366
0
LINE
8
BLACK
6
CONTINUOUS
10
4.69264
20
-0.80366
11
4.69403
21
-0.802194
0
LINE
8
BLACK
6
CONTINUOUS
10
4.69403
20
-0.802194
11
4.69778
21
-0.800319
0
LINE
8
BLACK
6
CONTINUOUS
10
4.69778
20
-0.800319
11
4.69876
21
-0.800026
0
LINE
8
BLACK
6
CONTINUOUS
10
4.69876
20
-0.800026
11
4.69893
21
-0.800067
0
LINE
8
BLACK
6
CONTINUOUS
10
4.69893
20
-0.800067
11
4.6991
21
-0.800007
0
LINE
8
BLACK
6
CONTINUOUS
10
4.6991
20
-0.800007
11
4.7066
21
-0.800007
0
LINE
8
BLACK
6
CONTINUOUS
10
4.7066
20
-0.800007
11
4.70761
21
-0.800185
0
LINE
8
BLACK
6
CONTINUOUS
10
4.69643
20
-0.822253
11
4.69643
21
-0.822885
0
LINE
8
BLACK
6
CONTINUOUS
10
4.69643
20
-0.822885
11
4.69755
21
-0.825131
0
LINE
8
BLACK
6
CONTINUOUS
10
4.69755
20
-0.825131
11
4.6998
21
-0.826254
0
LINE
8
BLACK
6
CONTINUOUS
10
4.6998
20
-0.826254
11
4.7059
21
-0.826254
0
LINE
8
BLACK
6
CONTINUOUS
10
4.7059
20
-0.826254
11
4.70815
21
-0.825131
0
LINE
8
BLACK
6
CONTINUOUS
10
4.70815
20
-0.825131
11
4.70927
21
-0.822885
0
LINE
8
BLACK
6
CONTINUOUS
10
4.70927
20
-0.822885
11
4.70927
21
-0.819685
0
LINE
8
BLACK
6
CONTINUOUS
10
4.70927
20
-0.819685
11
4.69643
21
-0.822253
0
LINE
8
BLACK
6
CONTINUOUS
10
7.6626
20
-0.766732
11
7.66329
21
-0.767021
0
LINE
8
BLACK
6
CONTINUOUS
10
7.66329
20
-0.767021
11
7.66358
21
-0.767717
0
LINE
8
BLACK
6
CONTINUOUS
10
7.66358
20
-0.767717
11
7.66358
21
-5.1874
0
LINE
8
BLACK
6
CONTINUOUS
10
7.66358
20
-5.1874
11
7.66329
21
-5.1881
0
LINE
8
BLACK
6
CONTINUOUS
10
7.66329
20
-5.1881
11
7.6626
21
-5.18839
0
LINE
8
BLACK
6
CONTINUOUS
10
7.6626
20
-5.18839
11
0.605118
21
-5.18839
0
LINE
8
BLACK
6
CONTINUOUS
10
0.605118
20
-5.18839
11
0.604422
21
-5.1881
0
LINE
8
BLACK
6
CONTINUOUS
10
0.604422
20
-5.1881
11
0.604134
21
-5.1874
0
LINE
8
BLACK
6
CONTINUOUS
10
0.604134
20
-5.1874
11
0.604134
21
-0.767717
0
LINE
8
BLACK
6
CONTINUOUS
10
0.604134
20
-0.767717
11
0.604422
21
-0.767021
0
LINE
8
BLACK
6
CONTINUOUS
10
0.604422
20
-0.767021
11
0.605118
21
-0.766732
0
LINE
8
BLACK
6
CONTINUOUS
10
0.605118
20
-0.766732
11
7.6626
21
-0.766732
0
LINE
8
BLACK
6
CONTINUOUS
10
0.606102
20
-0.768701
11
0.606102
21
-5.18642
0
LINE
8
BLACK
6
CONTINUOUS
10
0.606102
20
-5.18642
11
7.66161
21
-5.18642
0
LINE
8
BLACK
6
CONTINUOUS
10
7.66161
20
-5.18642
11
7.66161
21
-0.768701
0
LINE
8
BLACK
6
CONTINUOUS
10
7.66161
20
-0.768701
11
0.606102
21
-0.768701
  0
ENDSEC
  0
EOF
