  0
SECTION
  2
HEADER
  9
$ANGBASE
  50
0.0
  9
$ANGDIR
  70
1
  9
$MEASUREMENT
  70
0
  0
ENDSEC
  0
SECTION
  2
TABLES
  0
TABLE
  2
LTYPE
  70
4
  0
LTYPE
  5
40F
  2
CONTINUOUS
  70
0
  3
Solid line
  72
65
  73
0
  40
0.0
  0
LTYPE
  5
410
  2
DASHDOT
 70
0
  3
Dash Dot ____ _ ____ _
 72
65
 73
4
 40
2.0
 49
1.25
 49
-0.25
 49
0.25
 49
-0.25
  0
LTYPE
  5
411
  2
DASHED
 70
0
  3
Dashed __ __ __ __ __
 72
65
 73
2
 40
0.75
 49
0.5
 49
-0.25
  0
LTYPE
  5
43B
  2
DOTTED
 70
0
  3
Dotted .  .  .  .
 72
65
 73
2
 40
0.2
 49
0.0
 49
-0.2
  0
ENDTAB
  0
TABLE
  2
STYLE
  70
4
  0
STYLE
  2
KICAD
  70
0
  40
0
  41
1
  42
1
  50
0
  71
0
  3
isocp.shx
  0
STYLE
  2
KICADB
  70
0
  40
0
  41
1
  42
1
  50
0
  71
0
  3
isocp.shx
  0
STYLE
  2
KICADI
  70
0
  40
0
  41
1
  42
1
  50
15
  71
0
  3
isocp.shx
  0
STYLE
  2
KICADBI
  70
0
  40
0
  41
1
  42
1
  50
15
  71
0
  3
isocp.shx
  0
ENDTAB
  0
TABLE
  2
LAYER
  70
1
  0
LAYER
  2
BLACK
  70
0
  62
7
  6
CONTINUOUS
  0
ENDTAB
  0
ENDSEC
  0
SECTION
  2
ENTITIES
0
LINE
8
BLACK
6
CONTINUOUS
10
4.69024
20
-3.63159
11
4.69342
21
-3.63426
0
LINE
8
BLACK
6
CONTINUOUS
10
4.69342
20
-3.63426
11
4.6955
21
-3.63786
0
LINE
8
BLACK
6
CONTINUOUS
10
4.6955
20
-3.63786
11
4.69622
21
-3.64195
0
LINE
8
BLACK
6
CONTINUOUS
10
4.69622
20
-3.64195
11
4.6955
21
-3.64605
0
LINE
8
BLACK
6
CONTINUOUS
10
4.6955
20
-3.64605
11
4.69342
21
-3.64965
0
LINE
8
BLACK
6
CONTINUOUS
10
4.69342
20
-3.64965
11
4.69024
21
-3.65232
0
LINE
8
BLACK
6
CONTINUOUS
10
4.69024
20
-3.65232
11
4.68633
21
-3.65374
0
LINE
8
BLACK
6
CONTINUOUS
10
4.68633
20
-3.65374
11
4.68217
21
-3.65374
0
LINE
8
BLACK
6
CONTINUOUS
10
4.68217
20
-3.65374
11
4.67827
21
-3.65232
0
LINE
8
BLACK
6
CONTINUOUS
10
4.67827
20
-3.65232
11
4.67508
21
-3.64965
0
LINE
8
BLACK
6
CONTINUOUS
10
4.67508
20
-3.64965
11
4.67301
21
-3.64605
0
LINE
8
BLACK
6
CONTINUOUS
10
4.67301
20
-3.64605
11
4.67228
21
-3.64195
0
LINE
8
BLACK
6
CONTINUOUS
10
4.67228
20
-3.64195
11
4.67301
21
-3.63786
0
LINE
8
BLACK
6
CONTINUOUS
10
4.67301
20
-3.63786
11
4.67508
21
-3.63426
0
LINE
8
BLACK
6
CONTINUOUS
10
4.67508
20
-3.63426
11
4.67827
21
-3.63159
0
LINE
8
BLACK
6
CONTINUOUS
10
4.67827
20
-3.63159
11
4.68217
21
-3.63017
0
LINE
8
BLACK
6
CONTINUOUS
10
4.68217
20
-3.63017
11
4.68633
21
-3.63017
0
LINE
8
BLACK
6
CONTINUOUS
10
4.68633
20
-3.63017
11
4.69024
21
-3.63159
0
LINE
8
BLACK
6
CONTINUOUS
10
4.67683
20
-3.64553
11
4.67912
21
-3.64839
0
LINE
8
BLACK
6
CONTINUOUS
10
4.67912
20
-3.64839
11
4.68242
21
-3.64998
0
LINE
8
BLACK
6
CONTINUOUS
10
4.68242
20
-3.64998
11
4.68609
21
-3.64998
0
LINE
8
BLACK
6
CONTINUOUS
10
4.68609
20
-3.64998
11
4.68939
21
-3.64839
0
LINE
8
BLACK
6
CONTINUOUS
10
4.68939
20
-3.64839
11
4.69167
21
-3.64553
0
LINE
8
BLACK
6
CONTINUOUS
10
4.69167
20
-3.64553
11
4.69249
21
-3.64195
0
LINE
8
BLACK
6
CONTINUOUS
10
4.69249
20
-3.64195
11
4.69167
21
-3.63838
0
LINE
8
BLACK
6
CONTINUOUS
10
4.69167
20
-3.63838
11
4.68939
21
-3.63551
0
LINE
8
BLACK
6
CONTINUOUS
10
4.68939
20
-3.63551
11
4.68609
21
-3.63392
0
LINE
8
BLACK
6
CONTINUOUS
10
4.68609
20
-3.63392
11
4.68242
21
-3.63392
0
LINE
8
BLACK
6
CONTINUOUS
10
4.68242
20
-3.63392
11
4.67912
21
-3.63551
0
LINE
8
BLACK
6
CONTINUOUS
10
4.67912
20
-3.63551
11
4.67683
21
-3.63838
0
LINE
8
BLACK
6
CONTINUOUS
10
4.67683
20
-3.63838
11
4.67601
21
-3.64195
0
LINE
8
BLACK
6
CONTINUOUS
10
4.67601
20
-3.64195
11
4.67683
21
-3.64553
0
LINE
8
BLACK
6
CONTINUOUS
10
3.75648
20
-0.800075
11
3.75661
21
-0.800052
0
LINE
8
BLACK
6
CONTINUOUS
10
3.75661
20
-0.800052
11
3.75672
21
-0.800118
0
LINE
8
BLACK
6
CONTINUOUS
10
3.75672
20
-0.800118
11
3.7571
21
-0.800185
0
LINE
8
BLACK
6
CONTINUOUS
10
3.7571
20
-0.800185
11
3.75769
21
-0.800678
0
LINE
8
BLACK
6
CONTINUOUS
10
3.75769
20
-0.800678
11
3.75835
21
-0.801062
0
LINE
8
BLACK
6
CONTINUOUS
10
3.75835
20
-0.801062
11
3.75845
21
-0.801312
0
LINE
8
BLACK
6
CONTINUOUS
10
3.75845
20
-0.801312
11
3.75865
21
-0.801483
0
LINE
8
BLACK
6
CONTINUOUS
10
3.75865
20
-0.801483
11
3.75878
21
-0.802239
0
LINE
8
BLACK
6
CONTINUOUS
10
3.75878
20
-0.802239
11
3.75905
21
-0.80296
0
LINE
8
BLACK
6
CONTINUOUS
10
3.75905
20
-0.80296
11
3.75905
21
-0.84233
0
LINE
8
BLACK
6
CONTINUOUS
10
3.75905
20
-0.84233
11
3.75898
21
-0.842713
0
LINE
8
BLACK
6
CONTINUOUS
10
3.75898
20
-0.842713
11
3.759
21
-0.842843
0
LINE
8
BLACK
6
CONTINUOUS
10
3.759
20
-0.842843
11
3.75894
21
-0.842956
0
LINE
8
BLACK
6
CONTINUOUS
10
3.75894
20
-0.842956
11
3.75887
21
-0.84334
0
LINE
8
BLACK
6
CONTINUOUS
10
3.75887
20
-0.84334
11
3.75837
21
-0.843928
0
LINE
8
BLACK
6
CONTINUOUS
10
3.75837
20
-0.843928
11
3.75799
21
-0.844592
0
LINE
8
BLACK
6
CONTINUOUS
10
3.75799
20
-0.844592
11
3.75774
21
-0.844683
0
LINE
8
BLACK
6
CONTINUOUS
10
3.75774
20
-0.844683
11
3.75757
21
-0.844887
0
LINE
8
BLACK
6
CONTINUOUS
10
3.75757
20
-0.844887
11
3.75681
21
-0.84502
0
LINE
8
BLACK
6
CONTINUOUS
10
3.75681
20
-0.84502
11
3.75609
21
-0.845283
0
LINE
8
BLACK
6
CONTINUOUS
10
3.75609
20
-0.845283
11
3.74297
21
-0.845283
0
LINE
8
BLACK
6
CONTINUOUS
10
3.74297
20
-0.845283
11
3.74196
21
-0.845105
0
LINE
8
BLACK
6
CONTINUOUS
10
3.74196
20
-0.845105
11
3.74182
21
-0.844991
0
LINE
8
BLACK
6
CONTINUOUS
10
3.74182
20
-0.844991
11
3.74165
21
-0.844971
0
LINE
8
BLACK
6
CONTINUOUS
10
3.74165
20
-0.844971
11
3.7379
21
-0.843096
0
LINE
8
BLACK
6
CONTINUOUS
10
3.7379
20
-0.843096
11
3.73719
21
-0.84257
0
LINE
8
BLACK
6
CONTINUOUS
10
3.73719
20
-0.84257
11
3.73713
21
-0.842543
0
LINE
8
BLACK
6
CONTINUOUS
10
3.73713
20
-0.842543
11
3.73526
21
-0.840668
0
LINE
8
BLACK
6
CONTINUOUS
10
3.73526
20
-0.840668
11
3.73475
21
-0.839945
0
LINE
8
BLACK
6
CONTINUOUS
10
3.73475
20
-0.839945
11
3.7347
21
-0.839901
0
LINE
8
BLACK
6
CONTINUOUS
10
3.7347
20
-0.839901
11
3.73283
21
-0.836151
0
LINE
8
BLACK
6
CONTINUOUS
10
3.73283
20
-0.836151
11
3.73254
21
-0.835168
0
LINE
8
BLACK
6
CONTINUOUS
10
3.73254
20
-0.835168
11
3.73258
21
-0.834997
0
LINE
8
BLACK
6
CONTINUOUS
10
3.73258
20
-0.834997
11
3.73252
21
-0.834831
0
LINE
8
BLACK
6
CONTINUOUS
10
3.73252
20
-0.834831
11
3.73252
21
-0.831081
0
LINE
8
BLACK
6
CONTINUOUS
10
3.73252
20
-0.831081
11
3.7327
21
-0.830071
0
LINE
8
BLACK
6
CONTINUOUS
10
3.7327
20
-0.830071
11
3.73281
21
-0.829936
0
LINE
8
BLACK
6
CONTINUOUS
10
3.73281
20
-0.829936
11
3.73283
21
-0.829761
0
LINE
8
BLACK
6
CONTINUOUS
10
3.73283
20
-0.829761
11
3.7347
21
-0.826011
0
LINE
8
BLACK
6
CONTINUOUS
10
3.7347
20
-0.826011
11
3.73523
21
-0.825302
0
LINE
8
BLACK
6
CONTINUOUS
10
3.73523
20
-0.825302
11
3.73526
21
-0.825244
0
LINE
8
BLACK
6
CONTINUOUS
10
3.73526
20
-0.825244
11
3.73614
21
-0.824362
0
LINE
8
BLACK
6
CONTINUOUS
10
3.73614
20
-0.824362
11
3.73551
21
-0.82402
0
LINE
8
BLACK
6
CONTINUOUS
10
3.73551
20
-0.82402
11
3.73542
21
-0.82387
0
LINE
8
BLACK
6
CONTINUOUS
10
3.73542
20
-0.82387
11
3.73526
21
-0.823795
0
LINE
8
BLACK
6
CONTINUOUS
10
3.73526
20
-0.823795
11
3.73338
21
-0.821921
0
LINE
8
BLACK
6
CONTINUOUS
10
3.73338
20
-0.821921
11
3.73288
21
-0.821198
0
LINE
8
BLACK
6
CONTINUOUS
10
3.73288
20
-0.821198
11
3.73283
21
-0.821153
0
LINE
8
BLACK
6
CONTINUOUS
10
3.73283
20
-0.821153
11
3.73095
21
-0.817404
0
LINE
8
BLACK
6
CONTINUOUS
10
3.73095
20
-0.817404
11
3.73066
21
-0.816421
0
LINE
8
BLACK
6
CONTINUOUS
10
3.73066
20
-0.816421
11
3.7307
21
-0.816249
0
LINE
8
BLACK
6
CONTINUOUS
10
3.7307
20
-0.816249
11
3.73064
21
-0.816083
0
LINE
8
BLACK
6
CONTINUOUS
10
3.73064
20
-0.816083
11
3.73064
21
-0.810459
0
LINE
8
BLACK
6
CONTINUOUS
10
3.73064
20
-0.810459
11
3.73082
21
-0.809449
0
LINE
8
BLACK
6
CONTINUOUS
10
3.73082
20
-0.809449
11
3.73093
21
-0.809314
0
LINE
8
BLACK
6
CONTINUOUS
10
3.73093
20
-0.809314
11
3.73095
21
-0.809138
0
LINE
8
BLACK
6
CONTINUOUS
10
3.73095
20
-0.809138
11
3.73283
21
-0.805389
0
LINE
8
BLACK
6
CONTINUOUS
10
3.73283
20
-0.805389
11
3.73336
21
-0.80468
0
LINE
8
BLACK
6
CONTINUOUS
10
3.73336
20
-0.80468
11
3.73338
21
-0.804621
0
LINE
8
BLACK
6
CONTINUOUS
10
3.73338
20
-0.804621
11
3.73526
21
-0.802747
0
LINE
8
BLACK
6
CONTINUOUS
10
3.73526
20
-0.802747
11
3.73598
21
-0.802241
0
LINE
8
BLACK
6
CONTINUOUS
10
3.73598
20
-0.802241
11
3.73602
21
-0.802194
0
LINE
8
BLACK
6
CONTINUOUS
10
3.73602
20
-0.802194
11
3.73977
21
-0.800319
0
LINE
8
BLACK
6
CONTINUOUS
10
3.73977
20
-0.800319
11
3.74076
21
-0.800026
0
LINE
8
BLACK
6
CONTINUOUS
10
3.74076
20
-0.800026
11
3.74093
21
-0.800067
0
LINE
8
BLACK
6
CONTINUOUS
10
3.74093
20
-0.800067
11
3.74109
21
-0.800007
0
LINE
8
BLACK
6
CONTINUOUS
10
3.74109
20
-0.800007
11
3.75609
21
-0.800007
0
LINE
8
BLACK
6
CONTINUOUS
10
3.75609
20
-0.800007
11
3.75648
21
-0.800075
0
LINE
8
BLACK
6
CONTINUOUS
10
3.74097
20
-0.827884
11
3.73977
21
-0.829081
0
LINE
8
BLACK
6
CONTINUOUS
10
3.73977
20
-0.829081
11
3.73842
21
-0.831778
0
LINE
8
BLACK
6
CONTINUOUS
10
3.73842
20
-0.831778
11
3.73842
21
-0.834134
0
LINE
8
BLACK
6
CONTINUOUS
10
3.73842
20
-0.834134
11
3.73977
21
-0.836831
0
LINE
8
BLACK
6
CONTINUOUS
10
3.73977
20
-0.836831
11
3.74097
21
-0.838028
0
LINE
8
BLACK
6
CONTINUOUS
10
3.74097
20
-0.838028
11
3.74367
21
-0.839377
0
LINE
8
BLACK
6
CONTINUOUS
10
3.74367
20
-0.839377
11
3.75314
21
-0.839377
0
LINE
8
BLACK
6
CONTINUOUS
10
3.75314
20
-0.839377
11
3.75314
21
-0.826535
0
LINE
8
BLACK
6
CONTINUOUS
10
3.75314
20
-0.826535
11
3.74367
21
-0.826535
0
LINE
8
BLACK
6
CONTINUOUS
10
3.74367
20
-0.826535
11
3.74097
21
-0.827884
0
LINE
8
BLACK
6
CONTINUOUS
10
3.73909
20
-0.807261
11
3.7379
21
-0.808459
0
LINE
8
BLACK
6
CONTINUOUS
10
3.7379
20
-0.808459
11
3.73655
21
-0.811156
0
LINE
8
BLACK
6
CONTINUOUS
10
3.73655
20
-0.811156
11
3.73655
21
-0.815386
0
LINE
8
BLACK
6
CONTINUOUS
10
3.73655
20
-0.815386
11
3.7379
21
-0.818084
0
LINE
8
BLACK
6
CONTINUOUS
10
3.7379
20
-0.818084
11
3.73894
21
-0.819127
0
LINE
8
BLACK
6
CONTINUOUS
10
3.73894
20
-0.819127
11
3.74345
21
-0.82063
0
LINE
8
BLACK
6
CONTINUOUS
10
3.74345
20
-0.82063
11
3.75314
21
-0.82063
0
LINE
8
BLACK
6
CONTINUOUS
10
3.75314
20
-0.82063
11
3.75314
21
-0.805913
0
LINE
8
BLACK
6
CONTINUOUS
10
3.75314
20
-0.805913
11
3.74179
21
-0.805913
0
LINE
8
BLACK
6
CONTINUOUS
10
3.74179
20
-0.805913
11
3.73909
21
-0.807261
0
LINE
8
BLACK
6
CONTINUOUS
10
3.78508
20
-0.80016
11
3.78515
21
-0.800159
0
LINE
8
BLACK
6
CONTINUOUS
10
3.78515
20
-0.800159
11
3.79077
21
-0.802033
0
LINE
8
BLACK
6
CONTINUOUS
10
3.79077
20
-0.802033
11
3.79167
21
-0.802522
0
LINE
8
BLACK
6
CONTINUOUS
10
3.79167
20
-0.802522
11
3.79177
21
-0.802672
0
LINE
8
BLACK
6
CONTINUOUS
10
3.79177
20
-0.802672
11
3.79193
21
-0.802747
0
LINE
8
BLACK
6
CONTINUOUS
10
3.79193
20
-0.802747
11
3.79568
21
-0.806496
0
LINE
8
BLACK
6
CONTINUOUS
10
3.79568
20
-0.806496
11
3.79618
21
-0.807219
0
LINE
8
BLACK
6
CONTINUOUS
10
3.79618
20
-0.807219
11
3.79623
21
-0.807264
0
LINE
8
BLACK
6
CONTINUOUS
10
3.79623
20
-0.807264
11
3.7981
21
-0.811013
0
LINE
8
BLACK
6
CONTINUOUS
10
3.7981
20
-0.811013
11
3.79825
21
-0.811502
0
LINE
8
BLACK
6
CONTINUOUS
10
3.79825
20
-0.811502
11
3.79833
21
-0.811618
0
LINE
8
BLACK
6
CONTINUOUS
10
3.79833
20
-0.811618
11
3.8002
21
-0.819117
0
LINE
8
BLACK
6
CONTINUOUS
10
3.8002
20
-0.819117
11
3.80024
21
-0.819704
0
LINE
8
BLACK
6
CONTINUOUS
10
3.80024
20
-0.819704
11
3.80029
21
-0.819833
0
LINE
8
BLACK
6
CONTINUOUS
10
3.80029
20
-0.819833
11
3.80029
21
-0.825457
0
LINE
8
BLACK
6
CONTINUOUS
10
3.80029
20
-0.825457
11
3.80019
21
-0.826037
0
LINE
8
BLACK
6
CONTINUOUS
10
3.80019
20
-0.826037
11
3.8002
21
-0.826173
0
LINE
8
BLACK
6
CONTINUOUS
10
3.8002
20
-0.826173
11
3.79833
21
-0.833672
0
LINE
8
BLACK
6
CONTINUOUS
10
3.79833
20
-0.833672
11
3.79812
21
-0.834138
0
LINE
8
BLACK
6
CONTINUOUS
10
3.79812
20
-0.834138
11
3.7981
21
-0.834277
0
LINE
8
BLACK
6
CONTINUOUS
10
3.7981
20
-0.834277
11
3.79623
21
-0.838026
0
LINE
8
BLACK
6
CONTINUOUS
10
3.79623
20
-0.838026
11
3.7957
21
-0.838735
0
LINE
8
BLACK
6
CONTINUOUS
10
3.7957
20
-0.838735
11
3.79568
21
-0.838794
0
LINE
8
BLACK
6
CONTINUOUS
10
3.79568
20
-0.838794
11
3.79193
21
-0.842543
0
LINE
8
BLACK
6
CONTINUOUS
10
3.79193
20
-0.842543
11
3.79109
21
-0.843131
0
LINE
8
BLACK
6
CONTINUOUS
10
3.79109
20
-0.843131
11
3.79091
21
-0.843147
0
LINE
8
BLACK
6
CONTINUOUS
10
3.79091
20
-0.843147
11
3.79077
21
-0.843256
0
LINE
8
BLACK
6
CONTINUOUS
10
3.79077
20
-0.843256
11
3.78515
21
-0.845131
0
LINE
8
BLACK
6
CONTINUOUS
10
3.78515
20
-0.845131
11
3.78428
21
-0.845261
0
LINE
8
BLACK
6
CONTINUOUS
10
3.78428
20
-0.845261
11
3.78421
21
-0.845283
0
LINE
8
BLACK
6
CONTINUOUS
10
3.78421
20
-0.845283
11
3.78046
21
-0.845283
0
LINE
8
BLACK
6
CONTINUOUS
10
3.78046
20
-0.845283
11
3.7796
21
-0.845129
0
LINE
8
BLACK
6
CONTINUOUS
10
3.7796
20
-0.845129
11
3.77953
21
-0.845131
0
LINE
8
BLACK
6
CONTINUOUS
10
3.77953
20
-0.845131
11
3.77391
21
-0.843256
0
LINE
8
BLACK
6
CONTINUOUS
10
3.77391
20
-0.843256
11
3.77301
21
-0.842768
0
LINE
8
BLACK
6
CONTINUOUS
10
3.77301
20
-0.842768
11
3.77291
21
-0.842618
0
LINE
8
BLACK
6
CONTINUOUS
10
3.77291
20
-0.842618
11
3.77275
21
-0.842543
0
LINE
8
BLACK
6
CONTINUOUS
10
3.77275
20
-0.842543
11
3.77088
21
-0.840668
0
LINE
8
BLACK
6
CONTINUOUS
10
3.77088
20
-0.840668
11
3.77029
21
-0.839828
0
LINE
8
BLACK
6
CONTINUOUS
10
3.77029
20
-0.839828
11
3.77011
21
-0.837816
0
LINE
8
BLACK
6
CONTINUOUS
10
3.77011
20
-0.837816
11
3.77127
21
-0.836162
0
LINE
8
BLACK
6
CONTINUOUS
10
3.77127
20
-0.836162
11
3.77322
21
-0.835639
0
LINE
8
BLACK
6
CONTINUOUS
10
3.77322
20
-0.835639
11
3.77505
21
-0.836492
0
LINE
8
BLACK
6
CONTINUOUS
10
3.77505
20
-0.836492
11
3.77644
21
-0.837874
0
LINE
8
BLACK
6
CONTINUOUS
10
3.77644
20
-0.837874
11
3.78094
21
-0.839377
0
LINE
8
BLACK
6
CONTINUOUS
10
3.78094
20
-0.839377
11
3.78374
21
-0.839377
0
LINE
8
BLACK
6
CONTINUOUS
10
3.78374
20
-0.839377
11
3.78824
21
-0.837874
0
LINE
8
BLACK
6
CONTINUOUS
10
3.78824
20
-0.837874
11
3.79116
21
-0.834956
0
LINE
8
BLACK
6
CONTINUOUS
10
3.79116
20
-0.834956
11
3.79268
21
-0.831926
0
LINE
8
BLACK
6
CONTINUOUS
10
3.79268
20
-0.831926
11
3.79439
21
-0.825093
0
LINE
8
BLACK
6
CONTINUOUS
10
3.79439
20
-0.825093
11
3.79439
21
-0.820196
0
LINE
8
BLACK
6
CONTINUOUS
10
3.79439
20
-0.820196
11
3.79268
21
-0.813364
0
LINE
8
BLACK
6
CONTINUOUS
10
3.79268
20
-0.813364
11
3.79116
21
-0.810333
0
LINE
8
BLACK
6
CONTINUOUS
10
3.79116
20
-0.810333
11
3.78824
21
-0.807415
0
LINE
8
BLACK
6
CONTINUOUS
10
3.78824
20
-0.807415
11
3.78374
21
-0.805913
0
LINE
8
BLACK
6
CONTINUOUS
10
3.78374
20
-0.805913
11
3.78094
21
-0.805913
0
LINE
8
BLACK
6
CONTINUOUS
10
3.78094
20
-0.805913
11
3.77644
21
-0.807415
0
LINE
8
BLACK
6
CONTINUOUS
10
3.77644
20
-0.807415
11
3.77505
21
-0.808797
0
LINE
8
BLACK
6
CONTINUOUS
10
3.77505
20
-0.808797
11
3.77421
21
-0.809386
0
LINE
8
BLACK
6
CONTINUOUS
10
3.77421
20
-0.809386
11
3.7722
21
-0.809562
0
LINE
8
BLACK
6
CONTINUOUS
10
3.7722
20
-0.809562
11
3.77055
21
-0.808403
0
LINE
8
BLACK
6
CONTINUOUS
10
3.77055
20
-0.808403
11
3.77002
21
-0.806452
0
LINE
8
BLACK
6
CONTINUOUS
10
3.77002
20
-0.806452
11
3.77088
21
-0.804621
0
LINE
8
BLACK
6
CONTINUOUS
10
3.77088
20
-0.804621
11
3.77275
21
-0.802747
0
LINE
8
BLACK
6
CONTINUOUS
10
3.77275
20
-0.802747
11
3.77359
21
-0.802159
0
LINE
8
BLACK
6
CONTINUOUS
10
3.77359
20
-0.802159
11
3.77377
21
-0.802143
0
LINE
8
BLACK
6
CONTINUOUS
10
3.77377
20
-0.802143
11
3.77391
21
-0.802033
0
LINE
8
BLACK
6
CONTINUOUS
10
3.77391
20
-0.802033
11
3.77953
21
-0.800159
0
LINE
8
BLACK
6
CONTINUOUS
10
3.77953
20
-0.800159
11
3.7804
21
-0.800029
0
LINE
8
BLACK
6
CONTINUOUS
10
3.7804
20
-0.800029
11
3.78046
21
-0.800007
0
LINE
8
BLACK
6
CONTINUOUS
10
3.78046
20
-0.800007
11
3.78421
21
-0.800007
0
LINE
8
BLACK
6
CONTINUOUS
10
3.78421
20
-0.800007
11
3.78508
21
-0.80016
0
LINE
8
BLACK
6
CONTINUOUS
10
3.8371
20
-0.801062
11
3.83779
21
-0.80296
0
LINE
8
BLACK
6
CONTINUOUS
10
3.83779
20
-0.80296
11
3.83779
21
-0.84233
0
LINE
8
BLACK
6
CONTINUOUS
10
3.83779
20
-0.84233
11
3.83772
21
-0.842713
0
LINE
8
BLACK
6
CONTINUOUS
10
3.83772
20
-0.842713
11
3.83774
21
-0.842843
0
LINE
8
BLACK
6
CONTINUOUS
10
3.83774
20
-0.842843
11
3.83768
21
-0.842956
0
LINE
8
BLACK
6
CONTINUOUS
10
3.83768
20
-0.842956
11
3.83761
21
-0.84334
0
LINE
8
BLACK
6
CONTINUOUS
10
3.83761
20
-0.84334
11
3.83711
21
-0.843928
0
LINE
8
BLACK
6
CONTINUOUS
10
3.83711
20
-0.843928
11
3.83673
21
-0.844592
0
LINE
8
BLACK
6
CONTINUOUS
10
3.83673
20
-0.844592
11
3.83648
21
-0.844683
0
LINE
8
BLACK
6
CONTINUOUS
10
3.83648
20
-0.844683
11
3.83631
21
-0.844887
0
LINE
8
BLACK
6
CONTINUOUS
10
3.83631
20
-0.844887
11
3.83555
21
-0.84502
0
LINE
8
BLACK
6
CONTINUOUS
10
3.83555
20
-0.84502
11
3.83483
21
-0.845283
0
LINE
8
BLACK
6
CONTINUOUS
10
3.83483
20
-0.845283
11
3.81983
21
-0.845283
0
LINE
8
BLACK
6
CONTINUOUS
10
3.81983
20
-0.845283
11
3.81883
21
-0.845105
0
LINE
8
BLACK
6
CONTINUOUS
10
3.81883
20
-0.845105
11
3.81869
21
-0.844991
0
LINE
8
BLACK
6
CONTINUOUS
10
3.81869
20
-0.844991
11
3.81851
21
-0.844971
0
LINE
8
BLACK
6
CONTINUOUS
10
3.81851
20
-0.844971
11
3.81476
21
-0.843096
0
LINE
8
BLACK
6
CONTINUOUS
10
3.81476
20
-0.843096
11
3.81406
21
-0.84257
0
LINE
8
BLACK
6
CONTINUOUS
10
3.81406
20
-0.84257
11
3.814
21
-0.842543
0
LINE
8
BLACK
6
CONTINUOUS
10
3.814
20
-0.842543
11
3.81212
21
-0.840668
0
LINE
8
BLACK
6
CONTINUOUS
10
3.81212
20
-0.840668
11
3.81162
21
-0.839945
0
LINE
8
BLACK
6
CONTINUOUS
10
3.81162
20
-0.839945
11
3.81157
21
-0.839901
0
LINE
8
BLACK
6
CONTINUOUS
10
3.81157
20
-0.839901
11
3.80969
21
-0.836151
0
LINE
8
BLACK
6
CONTINUOUS
10
3.80969
20
-0.836151
11
3.8094
21
-0.835168
0
LINE
8
BLACK
6
CONTINUOUS
10
3.8094
20
-0.835168
11
3.80944
21
-0.834997
0
LINE
8
BLACK
6
CONTINUOUS
10
3.80944
20
-0.834997
11
3.80938
21
-0.834831
0
LINE
8
BLACK
6
CONTINUOUS
10
3.80938
20
-0.834831
11
3.80938
21
-0.829207
0
LINE
8
BLACK
6
CONTINUOUS
10
3.80938
20
-0.829207
11
3.80956
21
-0.828197
0
LINE
8
BLACK
6
CONTINUOUS
10
3.80956
20
-0.828197
11
3.80967
21
-0.828061
0
LINE
8
BLACK
6
CONTINUOUS
10
3.80967
20
-0.828061
11
3.80969
21
-0.827886
0
LINE
8
BLACK
6
CONTINUOUS
10
3.80969
20
-0.827886
11
3.81157
21
-0.824137
0
LINE
8
BLACK
6
CONTINUOUS
10
3.81157
20
-0.824137
11
3.8121
21
-0.823427
0
LINE
8
BLACK
6
CONTINUOUS
10
3.8121
20
-0.823427
11
3.81212
21
-0.823369
0
LINE
8
BLACK
6
CONTINUOUS
10
3.81212
20
-0.823369
11
3.814
21
-0.821494
0
LINE
8
BLACK
6
CONTINUOUS
10
3.814
20
-0.821494
11
3.81472
21
-0.820988
0
LINE
8
BLACK
6
CONTINUOUS
10
3.81472
20
-0.820988
11
3.81476
21
-0.820941
0
LINE
8
BLACK
6
CONTINUOUS
10
3.81476
20
-0.820941
11
3.81851
21
-0.819066
0
LINE
8
BLACK
6
CONTINUOUS
10
3.81851
20
-0.819066
11
3.8195
21
-0.818774
0
LINE
8
BLACK
6
CONTINUOUS
10
3.8195
20
-0.818774
11
3.81967
21
-0.818815
0
LINE
8
BLACK
6
CONTINUOUS
10
3.81967
20
-0.818815
11
3.81983
21
-0.818755
0
LINE
8
BLACK
6
CONTINUOUS
10
3.81983
20
-0.818755
11
3.83188
21
-0.818755
0
LINE
8
BLACK
6
CONTINUOUS
10
3.83188
20
-0.818755
11
3.83188
21
-0.80296
0
LINE
8
BLACK
6
CONTINUOUS
10
3.83188
20
-0.80296
11
3.83206
21
-0.80195
0
LINE
8
BLACK
6
CONTINUOUS
10
3.83206
20
-0.80195
11
3.83336
21
-0.800403
0
LINE
8
BLACK
6
CONTINUOUS
10
3.83336
20
-0.800403
11
3.83535
21
-0.800052
0
LINE
8
BLACK
6
CONTINUOUS
10
3.83535
20
-0.800052
11
3.8371
21
-0.801062
0
LINE
8
BLACK
6
CONTINUOUS
10
3.81783
20
-0.826009
11
3.81664
21
-0.827206
0
LINE
8
BLACK
6
CONTINUOUS
10
3.81664
20
-0.827206
11
3.81529
21
-0.829904
0
LINE
8
BLACK
6
CONTINUOUS
10
3.81529
20
-0.829904
11
3.81529
21
-0.834134
0
LINE
8
BLACK
6
CONTINUOUS
10
3.81529
20
-0.834134
11
3.81664
21
-0.836831
0
LINE
8
BLACK
6
CONTINUOUS
10
3.81664
20
-0.836831
11
3.81783
21
-0.838028
0
LINE
8
BLACK
6
CONTINUOUS
10
3.81783
20
-0.838028
11
3.82053
21
-0.839377
0
LINE
8
BLACK
6
CONTINUOUS
10
3.82053
20
-0.839377
11
3.83188
21
-0.839377
0
LINE
8
BLACK
6
CONTINUOUS
10
3.83188
20
-0.839377
11
3.83188
21
-0.82466
0
LINE
8
BLACK
6
CONTINUOUS
10
3.83188
20
-0.82466
11
3.82053
21
-0.82466
0
LINE
8
BLACK
6
CONTINUOUS
10
3.82053
20
-0.82466
11
3.81783
21
-0.826009
0
LINE
8
BLACK
6
CONTINUOUS
10
4.62262
20
-0.800075
11
4.62275
21
-0.800052
0
LINE
8
BLACK
6
CONTINUOUS
10
4.62275
20
-0.800052
11
4.62286
21
-0.800118
0
LINE
8
BLACK
6
CONTINUOUS
10
4.62286
20
-0.800118
11
4.62324
21
-0.800185
0
LINE
8
BLACK
6
CONTINUOUS
10
4.62324
20
-0.800185
11
4.62383
21
-0.800678
0
LINE
8
BLACK
6
CONTINUOUS
10
4.62383
20
-0.800678
11
4.6245
21
-0.801062
0
LINE
8
BLACK
6
CONTINUOUS
10
4.6245
20
-0.801062
11
4.62459
21
-0.801312
0
LINE
8
BLACK
6
CONTINUOUS
10
4.62459
20
-0.801312
11
4.62479
21
-0.801483
0
LINE
8
BLACK
6
CONTINUOUS
10
4.62479
20
-0.801483
11
4.62493
21
-0.802239
0
LINE
8
BLACK
6
CONTINUOUS
10
4.62493
20
-0.802239
11
4.62519
21
-0.80296
0
LINE
8
BLACK
6
CONTINUOUS
10
4.62519
20
-0.80296
11
4.62519
21
-0.84233
0
LINE
8
BLACK
6
CONTINUOUS
10
4.62519
20
-0.84233
11
4.62512
21
-0.842713
0
LINE
8
BLACK
6
CONTINUOUS
10
4.62512
20
-0.842713
11
4.62514
21
-0.842843
0
LINE
8
BLACK
6
CONTINUOUS
10
4.62514
20
-0.842843
11
4.62508
21
-0.842956
0
LINE
8
BLACK
6
CONTINUOUS
10
4.62508
20
-0.842956
11
4.62501
21
-0.84334
0
LINE
8
BLACK
6
CONTINUOUS
10
4.62501
20
-0.84334
11
4.62452
21
-0.843928
0
LINE
8
BLACK
6
CONTINUOUS
10
4.62452
20
-0.843928
11
4.62413
21
-0.844592
0
LINE
8
BLACK
6
CONTINUOUS
10
4.62413
20
-0.844592
11
4.62388
21
-0.844683
0
LINE
8
BLACK
6
CONTINUOUS
10
4.62388
20
-0.844683
11
4.62371
21
-0.844887
0
LINE
8
BLACK
6
CONTINUOUS
10
4.62371
20
-0.844887
11
4.62296
21
-0.84502
0
LINE
8
BLACK
6
CONTINUOUS
10
4.62296
20
-0.84502
11
4.62223
21
-0.845283
0
LINE
8
BLACK
6
CONTINUOUS
10
4.62223
20
-0.845283
11
4.60911
21
-0.845283
0
LINE
8
BLACK
6
CONTINUOUS
10
4.60911
20
-0.845283
11
4.6081
21
-0.845105
0
LINE
8
BLACK
6
CONTINUOUS
10
4.6081
20
-0.845105
11
4.60797
21
-0.844991
0
LINE
8
BLACK
6
CONTINUOUS
10
4.60797
20
-0.844991
11
4.60779
21
-0.844971
0
LINE
8
BLACK
6
CONTINUOUS
10
4.60779
20
-0.844971
11
4.60404
21
-0.843096
0
LINE
8
BLACK
6
CONTINUOUS
10
4.60404
20
-0.843096
11
4.60333
21
-0.84257
0
LINE
8
BLACK
6
CONTINUOUS
10
4.60333
20
-0.84257
11
4.60327
21
-0.842543
0
LINE
8
BLACK
6
CONTINUOUS
10
4.60327
20
-0.842543
11
4.6014
21
-0.840668
0
LINE
8
BLACK
6
CONTINUOUS
10
4.6014
20
-0.840668
11
4.60089
21
-0.839945
0
LINE
8
BLACK
6
CONTINUOUS
10
4.60089
20
-0.839945
11
4.60085
21
-0.839901
0
LINE
8
BLACK
6
CONTINUOUS
10
4.60085
20
-0.839901
11
4.59897
21
-0.836151
0
LINE
8
BLACK
6
CONTINUOUS
10
4.59897
20
-0.836151
11
4.59868
21
-0.835168
0
LINE
8
BLACK
6
CONTINUOUS
10
4.59868
20
-0.835168
11
4.59872
21
-0.834997
0
LINE
8
BLACK
6
CONTINUOUS
10
4.59872
20
-0.834997
11
4.59866
21
-0.834831
0
LINE
8
BLACK
6
CONTINUOUS
10
4.59866
20
-0.834831
11
4.59866
21
-0.831081
0
LINE
8
BLACK
6
CONTINUOUS
10
4.59866
20
-0.831081
11
4.59884
21
-0.830071
0
LINE
8
BLACK
6
CONTINUOUS
10
4.59884
20
-0.830071
11
4.59895
21
-0.829936
0
LINE
8
BLACK
6
CONTINUOUS
10
4.59895
20
-0.829936
11
4.59897
21
-0.829761
0
LINE
8
BLACK
6
CONTINUOUS
10
4.59897
20
-0.829761
11
4.60085
21
-0.826011
0
LINE
8
BLACK
6
CONTINUOUS
10
4.60085
20
-0.826011
11
4.60137
21
-0.825302
0
LINE
8
BLACK
6
CONTINUOUS
10
4.60137
20
-0.825302
11
4.6014
21
-0.825244
0
LINE
8
BLACK
6
CONTINUOUS
10
4.6014
20
-0.825244
11
4.60228
21
-0.824362
0
LINE
8
BLACK
6
CONTINUOUS
10
4.60228
20
-0.824362
11
4.60165
21
-0.82402
0
LINE
8
BLACK
6
CONTINUOUS
10
4.60165
20
-0.82402
11
4.60156
21
-0.82387
0
LINE
8
BLACK
6
CONTINUOUS
10
4.60156
20
-0.82387
11
4.6014
21
-0.823795
0
LINE
8
BLACK
6
CONTINUOUS
10
4.6014
20
-0.823795
11
4.59952
21
-0.821921
0
LINE
8
BLACK
6
CONTINUOUS
10
4.59952
20
-0.821921
11
4.59902
21
-0.821198
0
LINE
8
BLACK
6
CONTINUOUS
10
4.59902
20
-0.821198
11
4.59897
21
-0.821153
0
LINE
8
BLACK
6
CONTINUOUS
10
4.59897
20
-0.821153
11
4.5971
21
-0.817404
0
LINE
8
BLACK
6
CONTINUOUS
10
4.5971
20
-0.817404
11
4.5968
21
-0.816421
0
LINE
8
BLACK
6
CONTINUOUS
10
4.5968
20
-0.816421
11
4.59685
21
-0.816249
0
LINE
8
BLACK
6
CONTINUOUS
10
4.59685
20
-0.816249
11
4.59678
21
-0.816083
0
LINE
8
BLACK
6
CONTINUOUS
10
4.59678
20
-0.816083
11
4.59678
21
-0.810459
0
LINE
8
BLACK
6
CONTINUOUS
10
4.59678
20
-0.810459
11
4.59696
21
-0.809449
0
LINE
8
BLACK
6
CONTINUOUS
10
4.59696
20
-0.809449
11
4.59708
21
-0.809314
0
LINE
8
BLACK
6
CONTINUOUS
10
4.59708
20
-0.809314
11
4.5971
21
-0.809138
0
LINE
8
BLACK
6
CONTINUOUS
10
4.5971
20
-0.809138
11
4.59897
21
-0.805389
0
LINE
8
BLACK
6
CONTINUOUS
10
4.59897
20
-0.805389
11
4.5995
21
-0.80468
0
LINE
8
BLACK
6
CONTINUOUS
10
4.5995
20
-0.80468
11
4.59952
21
-0.804621
0
LINE
8
BLACK
6
CONTINUOUS
10
4.59952
20
-0.804621
11
4.6014
21
-0.802747
0
LINE
8
BLACK
6
CONTINUOUS
10
4.6014
20
-0.802747
11
4.60212
21
-0.802241
0
LINE
8
BLACK
6
CONTINUOUS
10
4.60212
20
-0.802241
11
4.60217
21
-0.802194
0
LINE
8
BLACK
6
CONTINUOUS
10
4.60217
20
-0.802194
11
4.60592
21
-0.800319
0
LINE
8
BLACK
6
CONTINUOUS
10
4.60592
20
-0.800319
11
4.6069
21
-0.800026
0
LINE
8
BLACK
6
CONTINUOUS
10
4.6069
20
-0.800026
11
4.60707
21
-0.800067
0
LINE
8
BLACK
6
CONTINUOUS
10
4.60707
20
-0.800067
11
4.60724
21
-0.800007
0
LINE
8
BLACK
6
CONTINUOUS
10
4.60724
20
-0.800007
11
4.62223
21
-0.800007
0
LINE
8
BLACK
6
CONTINUOUS
10
4.62223
20
-0.800007
11
4.62262
21
-0.800075
0
LINE
8
BLACK
6
CONTINUOUS
10
4.60711
20
-0.827884
11
4.60591
21
-0.829081
0
LINE
8
BLACK
6
CONTINUOUS
10
4.60591
20
-0.829081
11
4.60457
21
-0.831778
0
LINE
8
BLACK
6
CONTINUOUS
10
4.60457
20
-0.831778
11
4.60457
21
-0.834134
0
LINE
8
BLACK
6
CONTINUOUS
10
4.60457
20
-0.834134
11
4.60591
21
-0.836831
0
LINE
8
BLACK
6
CONTINUOUS
10
4.60591
20
-0.836831
11
4.60711
21
-0.838028
0
LINE
8
BLACK
6
CONTINUOUS
10
4.60711
20
-0.838028
11
4.60981
21
-0.839377
0
LINE
8
BLACK
6
CONTINUOUS
10
4.60981
20
-0.839377
11
4.61928
21
-0.839377
0
LINE
8
BLACK
6
CONTINUOUS
10
4.61928
20
-0.839377
11
4.61928
21
-0.826535
0
LINE
8
BLACK
6
CONTINUOUS
10
4.61928
20
-0.826535
11
4.60981
21
-0.826535
0
LINE
8
BLACK
6
CONTINUOUS
10
4.60981
20
-0.826535
11
4.60711
21
-0.827884
0
LINE
8
BLACK
6
CONTINUOUS
10
4.60524
20
-0.807261
11
4.60404
21
-0.808459
0
LINE
8
BLACK
6
CONTINUOUS
10
4.60404
20
-0.808459
11
4.60269
21
-0.811156
0
LINE
8
BLACK
6
CONTINUOUS
10
4.60269
20
-0.811156
11
4.60269
21
-0.815386
0
LINE
8
BLACK
6
CONTINUOUS
10
4.60269
20
-0.815386
11
4.60404
21
-0.818084
0
LINE
8
BLACK
6
CONTINUOUS
10
4.60404
20
-0.818084
11
4.60508
21
-0.819127
0
LINE
8
BLACK
6
CONTINUOUS
10
4.60508
20
-0.819127
11
4.60959
21
-0.82063
0
LINE
8
BLACK
6
CONTINUOUS
10
4.60959
20
-0.82063
11
4.61928
21
-0.82063
0
LINE
8
BLACK
6
CONTINUOUS
10
4.61928
20
-0.82063
11
4.61928
21
-0.805913
0
LINE
8
BLACK
6
CONTINUOUS
10
4.61928
20
-0.805913
11
4.60793
21
-0.805913
0
LINE
8
BLACK
6
CONTINUOUS
10
4.60793
20
-0.805913
11
4.60524
21
-0.807261
0
LINE
8
BLACK
6
CONTINUOUS
10
4.65123
20
-0.80016
11
4.65129
21
-0.800159
0
LINE
8
BLACK
6
CONTINUOUS
10
4.65129
20
-0.800159
11
4.65691
21
-0.802033
0
LINE
8
BLACK
6
CONTINUOUS
10
4.65691
20
-0.802033
11
4.65782
21
-0.802522
0
LINE
8
BLACK
6
CONTINUOUS
10
4.65782
20
-0.802522
11
4.65791
21
-0.802672
0
LINE
8
BLACK
6
CONTINUOUS
10
4.65791
20
-0.802672
11
4.65807
21
-0.802747
0
LINE
8
BLACK
6
CONTINUOUS
10
4.65807
20
-0.802747
11
4.66182
21
-0.806496
0
LINE
8
BLACK
6
CONTINUOUS
10
4.66182
20
-0.806496
11
4.66232
21
-0.807219
0
LINE
8
BLACK
6
CONTINUOUS
10
4.66232
20
-0.807219
11
4.66237
21
-0.807264
0
LINE
8
BLACK
6
CONTINUOUS
10
4.66237
20
-0.807264
11
4.66425
21
-0.811013
0
LINE
8
BLACK
6
CONTINUOUS
10
4.66425
20
-0.811013
11
4.66439
21
-0.811502
0
LINE
8
BLACK
6
CONTINUOUS
10
4.66439
20
-0.811502
11
4.66447
21
-0.811618
0
LINE
8
BLACK
6
CONTINUOUS
10
4.66447
20
-0.811618
11
4.66634
21
-0.819117
0
LINE
8
BLACK
6
CONTINUOUS
10
4.66634
20
-0.819117
11
4.66639
21
-0.819704
0
LINE
8
BLACK
6
CONTINUOUS
10
4.66639
20
-0.819704
11
4.66643
21
-0.819833
0
LINE
8
BLACK
6
CONTINUOUS
10
4.66643
20
-0.819833
11
4.66643
21
-0.825457
0
LINE
8
BLACK
6
CONTINUOUS
10
4.66643
20
-0.825457
11
4.66633
21
-0.826037
0
LINE
8
BLACK
6
CONTINUOUS
10
4.66633
20
-0.826037
11
4.66634
21
-0.826173
0
LINE
8
BLACK
6
CONTINUOUS
10
4.66634
20
-0.826173
11
4.66447
21
-0.833672
0
LINE
8
BLACK
6
CONTINUOUS
10
4.66447
20
-0.833672
11
4.66426
21
-0.834138
0
LINE
8
BLACK
6
CONTINUOUS
10
4.66426
20
-0.834138
11
4.66425
21
-0.834277
0
LINE
8
BLACK
6
CONTINUOUS
10
4.66425
20
-0.834277
11
4.66237
21
-0.838026
0
LINE
8
BLACK
6
CONTINUOUS
10
4.66237
20
-0.838026
11
4.66185
21
-0.838735
0
LINE
8
BLACK
6
CONTINUOUS
10
4.66185
20
-0.838735
11
4.66182
21
-0.838794
0
LINE
8
BLACK
6
CONTINUOUS
10
4.66182
20
-0.838794
11
4.65807
21
-0.842543
0
LINE
8
BLACK
6
CONTINUOUS
10
4.65807
20
-0.842543
11
4.65723
21
-0.843131
0
LINE
8
BLACK
6
CONTINUOUS
10
4.65723
20
-0.843131
11
4.65705
21
-0.843147
0
LINE
8
BLACK
6
CONTINUOUS
10
4.65705
20
-0.843147
11
4.65691
21
-0.843256
0
LINE
8
BLACK
6
CONTINUOUS
10
4.65691
20
-0.843256
11
4.65129
21
-0.845131
0
LINE
8
BLACK
6
CONTINUOUS
10
4.65129
20
-0.845131
11
4.65042
21
-0.845261
0
LINE
8
BLACK
6
CONTINUOUS
10
4.65042
20
-0.845261
11
4.65036
21
-0.845283
0
LINE
8
BLACK
6
CONTINUOUS
10
4.65036
20
-0.845283
11
4.64661
21
-0.845283
0
LINE
8
BLACK
6
CONTINUOUS
10
4.64661
20
-0.845283
11
4.64574
21
-0.845129
0
LINE
8
BLACK
6
CONTINUOUS
10
4.64574
20
-0.845129
11
4.64567
21
-0.845131
0
LINE
8
BLACK
6
CONTINUOUS
10
4.64567
20
-0.845131
11
4.64005
21
-0.843256
0
LINE
8
BLACK
6
CONTINUOUS
10
4.64005
20
-0.843256
11
4.63915
21
-0.842768
0
LINE
8
BLACK
6
CONTINUOUS
10
4.63915
20
-0.842768
11
4.63905
21
-0.842618
0
LINE
8
BLACK
6
CONTINUOUS
10
4.63905
20
-0.842618
11
4.63889
21
-0.842543
0
LINE
8
BLACK
6
CONTINUOUS
10
4.63889
20
-0.842543
11
4.63702
21
-0.840668
0
LINE
8
BLACK
6
CONTINUOUS
10
4.63702
20
-0.840668
11
4.63643
21
-0.839828
0
LINE
8
BLACK
6
CONTINUOUS
10
4.63643
20
-0.839828
11
4.63626
21
-0.837816
0
LINE
8
BLACK
6
CONTINUOUS
10
4.63626
20
-0.837816
11
4.63741
21
-0.836162
0
LINE
8
BLACK
6
CONTINUOUS
10
4.63741
20
-0.836162
11
4.63936
21
-0.835639
0
LINE
8
BLACK
6
CONTINUOUS
10
4.63936
20
-0.835639
11
4.6412
21
-0.836492
0
LINE
8
BLACK
6
CONTINUOUS
10
4.6412
20
-0.836492
11
4.64258
21
-0.837874
0
LINE
8
BLACK
6
CONTINUOUS
10
4.64258
20
-0.837874
11
4.64709
21
-0.839377
0
LINE
8
BLACK
6
CONTINUOUS
10
4.64709
20
-0.839377
11
4.64988
21
-0.839377
0
LINE
8
BLACK
6
CONTINUOUS
10
4.64988
20
-0.839377
11
4.65439
21
-0.837874
0
LINE
8
BLACK
6
CONTINUOUS
10
4.65439
20
-0.837874
11
4.6573
21
-0.834956
0
LINE
8
BLACK
6
CONTINUOUS
10
4.6573
20
-0.834956
11
4.65882
21
-0.831926
0
LINE
8
BLACK
6
CONTINUOUS
10
4.65882
20
-0.831926
11
4.66053
21
-0.825093
0
LINE
8
BLACK
6
CONTINUOUS
10
4.66053
20
-0.825093
11
4.66053
21
-0.820196
0
LINE
8
BLACK
6
CONTINUOUS
10
4.66053
20
-0.820196
11
4.65882
21
-0.813364
0
LINE
8
BLACK
6
CONTINUOUS
10
4.65882
20
-0.813364
11
4.6573
21
-0.810333
0
LINE
8
BLACK
6
CONTINUOUS
10
4.6573
20
-0.810333
11
4.65439
21
-0.807415
0
LINE
8
BLACK
6
CONTINUOUS
10
4.65439
20
-0.807415
11
4.64988
21
-0.805913
0
LINE
8
BLACK
6
CONTINUOUS
10
4.64988
20
-0.805913
11
4.64709
21
-0.805913
0
LINE
8
BLACK
6
CONTINUOUS
10
4.64709
20
-0.805913
11
4.64258
21
-0.807415
0
LINE
8
BLACK
6
CONTINUOUS
10
4.64258
20
-0.807415
11
4.6412
21
-0.808797
0
LINE
8
BLACK
6
CONTINUOUS
10
4.6412
20
-0.808797
11
4.64036
21
-0.809386
0
LINE
8
BLACK
6
CONTINUOUS
10
4.64036
20
-0.809386
11
4.63834
21
-0.809562
0
LINE
8
BLACK
6
CONTINUOUS
10
4.63834
20
-0.809562
11
4.63669
21
-0.808403
0
LINE
8
BLACK
6
CONTINUOUS
10
4.63669
20
-0.808403
11
4.63617
21
-0.806452
0
LINE
8
BLACK
6
CONTINUOUS
10
4.63617
20
-0.806452
11
4.63702
21
-0.804621
0
LINE
8
BLACK
6
CONTINUOUS
10
4.63702
20
-0.804621
11
4.63889
21
-0.802747
0
LINE
8
BLACK
6
CONTINUOUS
10
4.63889
20
-0.802747
11
4.63973
21
-0.802159
0
LINE
8
BLACK
6
CONTINUOUS
10
4.63973
20
-0.802159
11
4.63991
21
-0.802143
0
LINE
8
BLACK
6
CONTINUOUS
10
4.63991
20
-0.802143
11
4.64005
21
-0.802033
0
LINE
8
BLACK
6
CONTINUOUS
10
4.64005
20
-0.802033
11
4.64567
21
-0.800159
0
LINE
8
BLACK
6
CONTINUOUS
10
4.64567
20
-0.800159
11
4.64655
21
-0.800029
0
LINE
8
BLACK
6
CONTINUOUS
10
4.64655
20
-0.800029
11
4.64661
21
-0.800007
0
LINE
8
BLACK
6
CONTINUOUS
10
4.64661
20
-0.800007
11
4.65036
21
-0.800007
0
LINE
8
BLACK
6
CONTINUOUS
10
4.65036
20
-0.800007
11
4.65123
21
-0.80016
0
LINE
8
BLACK
6
CONTINUOUS
10
4.70324
20
-0.801062
11
4.70393
21
-0.80296
0
LINE
8
BLACK
6
CONTINUOUS
10
4.70393
20
-0.80296
11
4.70393
21
-0.84233
0
LINE
8
BLACK
6
CONTINUOUS
10
4.70393
20
-0.84233
11
4.70386
21
-0.842713
0
LINE
8
BLACK
6
CONTINUOUS
10
4.70386
20
-0.842713
11
4.70388
21
-0.842843
0
LINE
8
BLACK
6
CONTINUOUS
10
4.70388
20
-0.842843
11
4.70382
21
-0.842956
0
LINE
8
BLACK
6
CONTINUOUS
10
4.70382
20
-0.842956
11
4.70375
21
-0.84334
0
LINE
8
BLACK
6
CONTINUOUS
10
4.70375
20
-0.84334
11
4.70326
21
-0.843928
0
LINE
8
BLACK
6
CONTINUOUS
10
4.70326
20
-0.843928
11
4.70287
21
-0.844592
0
LINE
8
BLACK
6
CONTINUOUS
10
4.70287
20
-0.844592
11
4.70262
21
-0.844683
0
LINE
8
BLACK
6
CONTINUOUS
10
4.70262
20
-0.844683
11
4.70245
21
-0.844887
0
LINE
8
BLACK
6
CONTINUOUS
10
4.70245
20
-0.844887
11
4.7017
21
-0.84502
0
LINE
8
BLACK
6
CONTINUOUS
10
4.7017
20
-0.84502
11
4.70097
21
-0.845283
0
LINE
8
BLACK
6
CONTINUOUS
10
4.70097
20
-0.845283
11
4.68598
21
-0.845283
0
LINE
8
BLACK
6
CONTINUOUS
10
4.68598
20
-0.845283
11
4.68497
21
-0.845105
0
LINE
8
BLACK
6
CONTINUOUS
10
4.68497
20
-0.845105
11
4.68483
21
-0.844991
0
LINE
8
BLACK
6
CONTINUOUS
10
4.68483
20
-0.844991
11
4.68466
21
-0.844971
0
LINE
8
BLACK
6
CONTINUOUS
10
4.68466
20
-0.844971
11
4.68091
21
-0.843096
0
LINE
8
BLACK
6
CONTINUOUS
10
4.68091
20
-0.843096
11
4.6802
21
-0.84257
0
LINE
8
BLACK
6
CONTINUOUS
10
4.6802
20
-0.84257
11
4.68014
21
-0.842543
0
LINE
8
BLACK
6
CONTINUOUS
10
4.68014
20
-0.842543
11
4.67826
21
-0.840668
0
LINE
8
BLACK
6
CONTINUOUS
10
4.67826
20
-0.840668
11
4.67776
21
-0.839945
0
LINE
8
BLACK
6
CONTINUOUS
10
4.67776
20
-0.839945
11
4.67771
21
-0.839901
0
LINE
8
BLACK
6
CONTINUOUS
10
4.67771
20
-0.839901
11
4.67584
21
-0.836151
0
LINE
8
BLACK
6
CONTINUOUS
10
4.67584
20
-0.836151
11
4.67554
21
-0.835168
0
LINE
8
BLACK
6
CONTINUOUS
10
4.67554
20
-0.835168
11
4.67559
21
-0.834997
0
LINE
8
BLACK
6
CONTINUOUS
10
4.67559
20
-0.834997
11
4.67552
21
-0.834831
0
LINE
8
BLACK
6
CONTINUOUS
10
4.67552
20
-0.834831
11
4.67552
21
-0.829207
0
LINE
8
BLACK
6
CONTINUOUS
10
4.67552
20
-0.829207
11
4.6757
21
-0.828197
0
LINE
8
BLACK
6
CONTINUOUS
10
4.6757
20
-0.828197
11
4.67582
21
-0.828061
0
LINE
8
BLACK
6
CONTINUOUS
10
4.67582
20
-0.828061
11
4.67584
21
-0.827886
0
LINE
8
BLACK
6
CONTINUOUS
10
4.67584
20
-0.827886
11
4.67771
21
-0.824137
0
LINE
8
BLACK
6
CONTINUOUS
10
4.67771
20
-0.824137
11
4.67824
21
-0.823427
0
LINE
8
BLACK
6
CONTINUOUS
10
4.67824
20
-0.823427
11
4.67826
21
-0.823369
0
LINE
8
BLACK
6
CONTINUOUS
10
4.67826
20
-0.823369
11
4.68014
21
-0.821494
0
LINE
8
BLACK
6
CONTINUOUS
10
4.68014
20
-0.821494
11
4.68086
21
-0.820988
0
LINE
8
BLACK
6
CONTINUOUS
10
4.68086
20
-0.820988
11
4.68091
21
-0.820941
0
LINE
8
BLACK
6
CONTINUOUS
10
4.68091
20
-0.820941
11
4.68466
21
-0.819066
0
LINE
8
BLACK
6
CONTINUOUS
10
4.68466
20
-0.819066
11
4.68564
21
-0.818774
0
LINE
8
BLACK
6
CONTINUOUS
10
4.68564
20
-0.818774
11
4.68581
21
-0.818815
0
LINE
8
BLACK
6
CONTINUOUS
10
4.68581
20
-0.818815
11
4.68598
21
-0.818755
0
LINE
8
BLACK
6
CONTINUOUS
10
4.68598
20
-0.818755
11
4.69802
21
-0.818755
0
LINE
8
BLACK
6
CONTINUOUS
10
4.69802
20
-0.818755
11
4.69802
21
-0.80296
0
LINE
8
BLACK
6
CONTINUOUS
10
4.69802
20
-0.80296
11
4.6982
21
-0.80195
0
LINE
8
BLACK
6
CONTINUOUS
10
4.6982
20
-0.80195
11
4.6995
21
-0.800403
0
LINE
8
BLACK
6
CONTINUOUS
10
4.6995
20
-0.800403
11
4.70149
21
-0.800052
0
LINE
8
BLACK
6
CONTINUOUS
10
4.70149
20
-0.800052
11
4.70324
21
-0.801062
0
LINE
8
BLACK
6
CONTINUOUS
10
4.68398
20
-0.826009
11
4.68278
21
-0.827206
0
LINE
8
BLACK
6
CONTINUOUS
10
4.68278
20
-0.827206
11
4.68143
21
-0.829904
0
LINE
8
BLACK
6
CONTINUOUS
10
4.68143
20
-0.829904
11
4.68143
21
-0.834134
0
LINE
8
BLACK
6
CONTINUOUS
10
4.68143
20
-0.834134
11
4.68278
21
-0.836831
0
LINE
8
BLACK
6
CONTINUOUS
10
4.68278
20
-0.836831
11
4.68398
21
-0.838028
0
LINE
8
BLACK
6
CONTINUOUS
10
4.68398
20
-0.838028
11
4.68667
21
-0.839377
0
LINE
8
BLACK
6
CONTINUOUS
10
4.68667
20
-0.839377
11
4.69802
21
-0.839377
0
LINE
8
BLACK
6
CONTINUOUS
10
4.69802
20
-0.839377
11
4.69802
21
-0.82466
0
LINE
8
BLACK
6
CONTINUOUS
10
4.69802
20
-0.82466
11
4.68667
21
-0.82466
0
LINE
8
BLACK
6
CONTINUOUS
10
4.68667
20
-0.82466
11
4.68398
21
-0.826009
0
LINE
8
BLACK
6
CONTINUOUS
10
3.64837
20
-0.800185
11
3.6485
21
-0.800299
0
LINE
8
BLACK
6
CONTINUOUS
10
3.6485
20
-0.800299
11
3.64868
21
-0.800319
0
LINE
8
BLACK
6
CONTINUOUS
10
3.64868
20
-0.800319
11
3.65243
21
-0.802194
0
LINE
8
BLACK
6
CONTINUOUS
10
3.65243
20
-0.802194
11
3.65314
21
-0.802719
0
LINE
8
BLACK
6
CONTINUOUS
10
3.65314
20
-0.802719
11
3.65319
21
-0.802747
0
LINE
8
BLACK
6
CONTINUOUS
10
3.65319
20
-0.802747
11
3.65507
21
-0.804621
0
LINE
8
BLACK
6
CONTINUOUS
10
3.65507
20
-0.804621
11
3.65557
21
-0.805345
0
LINE
8
BLACK
6
CONTINUOUS
10
3.65557
20
-0.805345
11
3.65562
21
-0.805389
0
LINE
8
BLACK
6
CONTINUOUS
10
3.65562
20
-0.805389
11
3.6575
21
-0.809138
0
LINE
8
BLACK
6
CONTINUOUS
10
3.6575
20
-0.809138
11
3.65779
21
-0.810121
0
LINE
8
BLACK
6
CONTINUOUS
10
3.65779
20
-0.810121
11
3.65775
21
-0.810293
0
LINE
8
BLACK
6
CONTINUOUS
10
3.65775
20
-0.810293
11
3.65781
21
-0.810459
0
LINE
8
BLACK
6
CONTINUOUS
10
3.65781
20
-0.810459
11
3.65781
21
-0.821708
0
LINE
8
BLACK
6
CONTINUOUS
10
3.65781
20
-0.821708
11
3.65763
21
-0.822717
0
LINE
8
BLACK
6
CONTINUOUS
10
3.65763
20
-0.822717
11
3.65752
21
-0.822853
0
LINE
8
BLACK
6
CONTINUOUS
10
3.65752
20
-0.822853
11
3.6575
21
-0.823028
0
LINE
8
BLACK
6
CONTINUOUS
10
3.6575
20
-0.823028
11
3.65562
21
-0.826778
0
LINE
8
BLACK
6
CONTINUOUS
10
3.65562
20
-0.826778
11
3.6551
21
-0.827487
0
LINE
8
BLACK
6
CONTINUOUS
10
3.6551
20
-0.827487
11
3.65507
21
-0.827545
0
LINE
8
BLACK
6
CONTINUOUS
10
3.65507
20
-0.827545
11
3.65319
21
-0.82942
0
LINE
8
BLACK
6
CONTINUOUS
10
3.65319
20
-0.82942
11
3.65247
21
-0.829926
0
LINE
8
BLACK
6
CONTINUOUS
10
3.65247
20
-0.829926
11
3.65243
21
-0.829973
0
LINE
8
BLACK
6
CONTINUOUS
10
3.65243
20
-0.829973
11
3.64868
21
-0.831848
0
LINE
8
BLACK
6
CONTINUOUS
10
3.64868
20
-0.831848
11
3.64769
21
-0.83214
0
LINE
8
BLACK
6
CONTINUOUS
10
3.64769
20
-0.83214
11
3.64752
21
-0.832099
0
LINE
8
BLACK
6
CONTINUOUS
10
3.64752
20
-0.832099
11
3.64736
21
-0.832159
0
LINE
8
BLACK
6
CONTINUOUS
10
3.64736
20
-0.832159
11
3.63986
21
-0.832159
0
LINE
8
BLACK
6
CONTINUOUS
10
3.63986
20
-0.832159
11
3.63906
21
-0.832019
0
LINE
8
BLACK
6
CONTINUOUS
10
3.63906
20
-0.832019
11
3.63906
21
-0.84233
0
LINE
8
BLACK
6
CONTINUOUS
10
3.63906
20
-0.84233
11
3.63888
21
-0.84334
0
LINE
8
BLACK
6
CONTINUOUS
10
3.63888
20
-0.84334
11
3.63758
21
-0.844887
0
LINE
8
BLACK
6
CONTINUOUS
10
3.63758
20
-0.844887
11
3.6356
21
-0.845238
0
LINE
8
BLACK
6
CONTINUOUS
10
3.6356
20
-0.845238
11
3.63385
21
-0.844228
0
LINE
8
BLACK
6
CONTINUOUS
10
3.63385
20
-0.844228
11
3.63316
21
-0.84233
0
LINE
8
BLACK
6
CONTINUOUS
10
3.63316
20
-0.84233
11
3.63316
21
-0.80296
0
LINE
8
BLACK
6
CONTINUOUS
10
3.63316
20
-0.80296
11
3.63333
21
-0.80195
0
LINE
8
BLACK
6
CONTINUOUS
10
3.63333
20
-0.80195
11
3.63463
21
-0.800403
0
LINE
8
BLACK
6
CONTINUOUS
10
3.63463
20
-0.800403
11
3.63662
21
-0.800052
0
LINE
8
BLACK
6
CONTINUOUS
10
3.63662
20
-0.800052
11
3.63776
21
-0.800708
0
LINE
8
BLACK
6
CONTINUOUS
10
3.63776
20
-0.800708
11
3.63854
21
-0.800319
0
LINE
8
BLACK
6
CONTINUOUS
10
3.63854
20
-0.800319
11
3.63952
21
-0.800026
0
LINE
8
BLACK
6
CONTINUOUS
10
3.63952
20
-0.800026
11
3.63969
21
-0.800067
0
LINE
8
BLACK
6
CONTINUOUS
10
3.63969
20
-0.800067
11
3.63986
21
-0.800007
0
LINE
8
BLACK
6
CONTINUOUS
10
3.63986
20
-0.800007
11
3.64736
21
-0.800007
0
LINE
8
BLACK
6
CONTINUOUS
10
3.64736
20
-0.800007
11
3.64837
21
-0.800185
0
LINE
8
BLACK
6
CONTINUOUS
10
3.63906
20
-0.80666
11
3.63906
21
-0.825507
0
LINE
8
BLACK
6
CONTINUOUS
10
3.63906
20
-0.825507
11
3.64055
21
-0.826254
0
LINE
8
BLACK
6
CONTINUOUS
10
3.64055
20
-0.826254
11
3.64666
21
-0.826254
0
LINE
8
BLACK
6
CONTINUOUS
10
3.64666
20
-0.826254
11
3.64936
21
-0.824905
0
LINE
8
BLACK
6
CONTINUOUS
10
3.64936
20
-0.824905
11
3.65055
21
-0.823708
0
LINE
8
BLACK
6
CONTINUOUS
10
3.65055
20
-0.823708
11
3.6519
21
-0.82101
0
LINE
8
BLACK
6
CONTINUOUS
10
3.6519
20
-0.82101
11
3.6519
21
-0.811156
0
LINE
8
BLACK
6
CONTINUOUS
10
3.6519
20
-0.811156
11
3.65055
21
-0.808459
0
LINE
8
BLACK
6
CONTINUOUS
10
3.65055
20
-0.808459
11
3.64936
21
-0.807261
0
LINE
8
BLACK
6
CONTINUOUS
10
3.64936
20
-0.807261
11
3.64666
21
-0.805913
0
LINE
8
BLACK
6
CONTINUOUS
10
3.64666
20
-0.805913
11
3.64055
21
-0.805913
0
LINE
8
BLACK
6
CONTINUOUS
10
3.64055
20
-0.805913
11
3.63906
21
-0.80666
0
LINE
8
BLACK
6
CONTINUOUS
10
4.51451
20
-0.800185
11
4.51464
21
-0.800299
0
LINE
8
BLACK
6
CONTINUOUS
10
4.51464
20
-0.800299
11
4.51482
21
-0.800319
0
LINE
8
BLACK
6
CONTINUOUS
10
4.51482
20
-0.800319
11
4.51857
21
-0.802194
0
LINE
8
BLACK
6
CONTINUOUS
10
4.51857
20
-0.802194
11
4.51928
21
-0.802719
0
LINE
8
BLACK
6
CONTINUOUS
10
4.51928
20
-0.802719
11
4.51934
21
-0.802747
0
LINE
8
BLACK
6
CONTINUOUS
10
4.51934
20
-0.802747
11
4.52121
21
-0.804621
0
LINE
8
BLACK
6
CONTINUOUS
10
4.52121
20
-0.804621
11
4.52172
21
-0.805345
0
LINE
8
BLACK
6
CONTINUOUS
10
4.52172
20
-0.805345
11
4.52176
21
-0.805389
0
LINE
8
BLACK
6
CONTINUOUS
10
4.52176
20
-0.805389
11
4.52364
21
-0.809138
0
LINE
8
BLACK
6
CONTINUOUS
10
4.52364
20
-0.809138
11
4.52393
21
-0.810121
0
LINE
8
BLACK
6
CONTINUOUS
10
4.52393
20
-0.810121
11
4.52389
21
-0.810293
0
LINE
8
BLACK
6
CONTINUOUS
10
4.52389
20
-0.810293
11
4.52395
21
-0.810459
0
LINE
8
BLACK
6
CONTINUOUS
10
4.52395
20
-0.810459
11
4.52395
21
-0.821708
0
LINE
8
BLACK
6
CONTINUOUS
10
4.52395
20
-0.821708
11
4.52377
21
-0.822717
0
LINE
8
BLACK
6
CONTINUOUS
10
4.52377
20
-0.822717
11
4.52366
21
-0.822853
0
LINE
8
BLACK
6
CONTINUOUS
10
4.52366
20
-0.822853
11
4.52364
21
-0.823028
0
LINE
8
BLACK
6
CONTINUOUS
10
4.52364
20
-0.823028
11
4.52176
21
-0.826778
0
LINE
8
BLACK
6
CONTINUOUS
10
4.52176
20
-0.826778
11
4.52124
21
-0.827487
0
LINE
8
BLACK
6
CONTINUOUS
10
4.52124
20
-0.827487
11
4.52121
21
-0.827545
0
LINE
8
BLACK
6
CONTINUOUS
10
4.52121
20
-0.827545
11
4.51934
21
-0.82942
0
LINE
8
BLACK
6
CONTINUOUS
10
4.51934
20
-0.82942
11
4.51861
21
-0.829926
0
LINE
8
BLACK
6
CONTINUOUS
10
4.51861
20
-0.829926
11
4.51857
21
-0.829973
0
LINE
8
BLACK
6
CONTINUOUS
10
4.51857
20
-0.829973
11
4.51482
21
-0.831848
0
LINE
8
BLACK
6
CONTINUOUS
10
4.51482
20
-0.831848
11
4.51384
21
-0.83214
0
LINE
8
BLACK
6
CONTINUOUS
10
4.51384
20
-0.83214
11
4.51366
21
-0.832099
0
LINE
8
BLACK
6
CONTINUOUS
10
4.51366
20
-0.832099
11
4.5135
21
-0.832159
0
LINE
8
BLACK
6
CONTINUOUS
10
4.5135
20
-0.832159
11
4.506
21
-0.832159
0
LINE
8
BLACK
6
CONTINUOUS
10
4.506
20
-0.832159
11
4.5052
21
-0.832019
0
LINE
8
BLACK
6
CONTINUOUS
10
4.5052
20
-0.832019
11
4.5052
21
-0.84233
0
LINE
8
BLACK
6
CONTINUOUS
10
4.5052
20
-0.84233
11
4.50502
21
-0.84334
0
LINE
8
BLACK
6
CONTINUOUS
10
4.50502
20
-0.84334
11
4.50373
21
-0.844887
0
LINE
8
BLACK
6
CONTINUOUS
10
4.50373
20
-0.844887
11
4.50174
21
-0.845238
0
LINE
8
BLACK
6
CONTINUOUS
10
4.50174
20
-0.845238
11
4.49999
21
-0.844228
0
LINE
8
BLACK
6
CONTINUOUS
10
4.49999
20
-0.844228
11
4.4993
21
-0.84233
0
LINE
8
BLACK
6
CONTINUOUS
10
4.4993
20
-0.84233
11
4.4993
21
-0.80296
0
LINE
8
BLACK
6
CONTINUOUS
10
4.4993
20
-0.80296
11
4.49948
21
-0.80195
0
LINE
8
BLACK
6
CONTINUOUS
10
4.49948
20
-0.80195
11
4.50077
21
-0.800403
0
LINE
8
BLACK
6
CONTINUOUS
10
4.50077
20
-0.800403
11
4.50276
21
-0.800052
0
LINE
8
BLACK
6
CONTINUOUS
10
4.50276
20
-0.800052
11
4.5039
21
-0.800708
0
LINE
8
BLACK
6
CONTINUOUS
10
4.5039
20
-0.800708
11
4.50468
21
-0.800319
0
LINE
8
BLACK
6
CONTINUOUS
10
4.50468
20
-0.800319
11
4.50566
21
-0.800026
0
LINE
8
BLACK
6
CONTINUOUS
10
4.50566
20
-0.800026
11
4.50583
21
-0.800067
0
LINE
8
BLACK
6
CONTINUOUS
10
4.50583
20
-0.800067
11
4.506
21
-0.800007
0
LINE
8
BLACK
6
CONTINUOUS
10
4.506
20
-0.800007
11
4.5135
21
-0.800007
0
LINE
8
BLACK
6
CONTINUOUS
10
4.5135
20
-0.800007
11
4.51451
21
-0.800185
0
LINE
8
BLACK
6
CONTINUOUS
10
4.5052
20
-0.80666
11
4.5052
21
-0.825507
0
LINE
8
BLACK
6
CONTINUOUS
10
4.5052
20
-0.825507
11
4.5067
21
-0.826254
0
LINE
8
BLACK
6
CONTINUOUS
10
4.5067
20
-0.826254
11
4.5128
21
-0.826254
0
LINE
8
BLACK
6
CONTINUOUS
10
4.5128
20
-0.826254
11
4.5155
21
-0.824905
0
LINE
8
BLACK
6
CONTINUOUS
10
4.5155
20
-0.824905
11
4.5167
21
-0.823708
0
LINE
8
BLACK
6
CONTINUOUS
10
4.5167
20
-0.823708
11
4.51804
21
-0.82101
0
LINE
8
BLACK
6
CONTINUOUS
10
4.51804
20
-0.82101
11
4.51804
21
-0.811156
0
LINE
8
BLACK
6
CONTINUOUS
10
4.51804
20
-0.811156
11
4.5167
21
-0.808459
0
LINE
8
BLACK
6
CONTINUOUS
10
4.5167
20
-0.808459
11
4.5155
21
-0.807261
0
LINE
8
BLACK
6
CONTINUOUS
10
4.5155
20
-0.807261
11
4.5128
21
-0.805913
0
LINE
8
BLACK
6
CONTINUOUS
10
4.5128
20
-0.805913
11
4.5067
21
-0.805913
0
LINE
8
BLACK
6
CONTINUOUS
10
4.5067
20
-0.805913
11
4.5052
21
-0.80666
0
LINE
8
BLACK
6
CONTINUOUS
10
3.579
20
-0.800185
11
3.57914
21
-0.800299
0
LINE
8
BLACK
6
CONTINUOUS
10
3.57914
20
-0.800299
11
3.57931
21
-0.800319
0
LINE
8
BLACK
6
CONTINUOUS
10
3.57931
20
-0.800319
11
3.58306
21
-0.802194
0
LINE
8
BLACK
6
CONTINUOUS
10
3.58306
20
-0.802194
11
3.58388
21
-0.802805
0
LINE
8
BLACK
6
CONTINUOUS
10
3.58388
20
-0.802805
11
3.58406
21
-0.80321
0
LINE
8
BLACK
6
CONTINUOUS
10
3.58406
20
-0.80321
11
3.58438
21
-0.803514
0
LINE
8
BLACK
6
CONTINUOUS
10
3.58438
20
-0.803514
11
3.58626
21
-0.807264
0
LINE
8
BLACK
6
CONTINUOUS
10
3.58626
20
-0.807264
11
3.58655
21
-0.808247
0
LINE
8
BLACK
6
CONTINUOUS
10
3.58655
20
-0.808247
11
3.58651
21
-0.808418
0
LINE
8
BLACK
6
CONTINUOUS
10
3.58651
20
-0.808418
11
3.58657
21
-0.808584
0
LINE
8
BLACK
6
CONTINUOUS
10
3.58657
20
-0.808584
11
3.58657
21
-0.823582
0
LINE
8
BLACK
6
CONTINUOUS
10
3.58657
20
-0.823582
11
3.58639
21
-0.824592
0
LINE
8
BLACK
6
CONTINUOUS
10
3.58639
20
-0.824592
11
3.58628
21
-0.824727
0
LINE
8
BLACK
6
CONTINUOUS
10
3.58628
20
-0.824727
11
3.58626
21
-0.824903
0
LINE
8
BLACK
6
CONTINUOUS
10
3.58626
20
-0.824903
11
3.58438
21
-0.828652
0
LINE
8
BLACK
6
CONTINUOUS
10
3.58438
20
-0.828652
11
3.58377
21
-0.829476
0
LINE
8
BLACK
6
CONTINUOUS
10
3.58377
20
-0.829476
11
3.58336
21
-0.829652
0
LINE
8
BLACK
6
CONTINUOUS
10
3.58336
20
-0.829652
11
3.58306
21
-0.829973
0
LINE
8
BLACK
6
CONTINUOUS
10
3.58306
20
-0.829973
11
3.57931
21
-0.831848
0
LINE
8
BLACK
6
CONTINUOUS
10
3.57931
20
-0.831848
11
3.57833
21
-0.83214
0
LINE
8
BLACK
6
CONTINUOUS
10
3.57833
20
-0.83214
11
3.57816
21
-0.832099
0
LINE
8
BLACK
6
CONTINUOUS
10
3.57816
20
-0.832099
11
3.57799
21
-0.832159
0
LINE
8
BLACK
6
CONTINUOUS
10
3.57799
20
-0.832159
11
3.57049
21
-0.832159
0
LINE
8
BLACK
6
CONTINUOUS
10
3.57049
20
-0.832159
11
3.56948
21
-0.831981
0
LINE
8
BLACK
6
CONTINUOUS
10
3.56948
20
-0.831981
11
3.56935
21
-0.831868
0
LINE
8
BLACK
6
CONTINUOUS
10
3.56935
20
-0.831868
11
3.56917
21
-0.831848
0
LINE
8
BLACK
6
CONTINUOUS
10
3.56917
20
-0.831848
11
3.56542
21
-0.829973
0
LINE
8
BLACK
6
CONTINUOUS
10
3.56542
20
-0.829973
11
3.5646
21
-0.829362
0
LINE
8
BLACK
6
CONTINUOUS
10
3.5646
20
-0.829362
11
3.56442
21
-0.828956
0
LINE
8
BLACK
6
CONTINUOUS
10
3.56442
20
-0.828956
11
3.5641
21
-0.828652
0
LINE
8
BLACK
6
CONTINUOUS
10
3.5641
20
-0.828652
11
3.56223
21
-0.824903
0
LINE
8
BLACK
6
CONTINUOUS
10
3.56223
20
-0.824903
11
3.56193
21
-0.82392
0
LINE
8
BLACK
6
CONTINUOUS
10
3.56193
20
-0.82392
11
3.56197
21
-0.823748
0
LINE
8
BLACK
6
CONTINUOUS
10
3.56197
20
-0.823748
11
3.56191
21
-0.823582
0
LINE
8
BLACK
6
CONTINUOUS
10
3.56191
20
-0.823582
11
3.56191
21
-0.819833
0
LINE
8
BLACK
6
CONTINUOUS
10
3.56191
20
-0.819833
11
3.56209
21
-0.818823
0
LINE
8
BLACK
6
CONTINUOUS
10
3.56209
20
-0.818823
11
3.56241
21
-0.818449
0
LINE
8
BLACK
6
CONTINUOUS
10
3.56241
20
-0.818449
11
3.56256
21
-0.817987
0
LINE
8
BLACK
6
CONTINUOUS
10
3.56256
20
-0.817987
11
3.56303
21
-0.817699
0
LINE
8
BLACK
6
CONTINUOUS
10
3.56303
20
-0.817699
11
3.56339
21
-0.817276
0
LINE
8
BLACK
6
CONTINUOUS
10
3.56339
20
-0.817276
11
3.56387
21
-0.817191
0
LINE
8
BLACK
6
CONTINUOUS
10
3.56387
20
-0.817191
11
3.56429
21
-0.816937
0
LINE
8
BLACK
6
CONTINUOUS
10
3.56429
20
-0.816937
11
3.58066
21
-0.813663
0
LINE
8
BLACK
6
CONTINUOUS
10
3.58066
20
-0.813663
11
3.58066
21
-0.809281
0
LINE
8
BLACK
6
CONTINUOUS
10
3.58066
20
-0.809281
11
3.57954
21
-0.807035
0
LINE
8
BLACK
6
CONTINUOUS
10
3.57954
20
-0.807035
11
3.57729
21
-0.805913
0
LINE
8
BLACK
6
CONTINUOUS
10
3.57729
20
-0.805913
11
3.57119
21
-0.805913
0
LINE
8
BLACK
6
CONTINUOUS
10
3.57119
20
-0.805913
11
3.56806
21
-0.807476
0
LINE
8
BLACK
6
CONTINUOUS
10
3.56806
20
-0.807476
11
3.56708
21
-0.807768
0
LINE
8
BLACK
6
CONTINUOUS
10
3.56708
20
-0.807768
11
3.56511
21
-0.807299
0
LINE
8
BLACK
6
CONTINUOUS
10
3.56511
20
-0.807299
11
3.56391
21
-0.805676
0
LINE
8
BLACK
6
CONTINUOUS
10
3.56391
20
-0.805676
11
3.56403
21
-0.80366
0
LINE
8
BLACK
6
CONTINUOUS
10
3.56403
20
-0.80366
11
3.56542
21
-0.802194
0
LINE
8
BLACK
6
CONTINUOUS
10
3.56542
20
-0.802194
11
3.56917
21
-0.800319
0
LINE
8
BLACK
6
CONTINUOUS
10
3.56917
20
-0.800319
11
3.57015
21
-0.800026
0
LINE
8
BLACK
6
CONTINUOUS
10
3.57015
20
-0.800026
11
3.57033
21
-0.800067
0
LINE
8
BLACK
6
CONTINUOUS
10
3.57033
20
-0.800067
11
3.57049
21
-0.800007
0
LINE
8
BLACK
6
CONTINUOUS
10
3.57049
20
-0.800007
11
3.57799
21
-0.800007
0
LINE
8
BLACK
6
CONTINUOUS
10
3.57799
20
-0.800007
11
3.579
21
-0.800185
0
LINE
8
BLACK
6
CONTINUOUS
10
3.56782
20
-0.822253
11
3.56782
21
-0.822885
0
LINE
8
BLACK
6
CONTINUOUS
10
3.56782
20
-0.822885
11
3.56894
21
-0.825131
0
LINE
8
BLACK
6
CONTINUOUS
10
3.56894
20
-0.825131
11
3.57119
21
-0.826254
0
LINE
8
BLACK
6
CONTINUOUS
10
3.57119
20
-0.826254
11
3.57729
21
-0.826254
0
LINE
8
BLACK
6
CONTINUOUS
10
3.57729
20
-0.826254
11
3.57954
21
-0.825131
0
LINE
8
BLACK
6
CONTINUOUS
10
3.57954
20
-0.825131
11
3.58066
21
-0.822885
0
LINE
8
BLACK
6
CONTINUOUS
10
3.58066
20
-0.822885
11
3.58066
21
-0.819685
0
LINE
8
BLACK
6
CONTINUOUS
10
3.58066
20
-0.819685
11
3.56782
21
-0.822253
0
LINE
8
BLACK
6
CONTINUOUS
10
3.61462
20
-0.787062
11
3.61476
21
-0.787175
0
LINE
8
BLACK
6
CONTINUOUS
10
3.61476
20
-0.787175
11
3.61493
21
-0.787195
0
LINE
8
BLACK
6
CONTINUOUS
10
3.61493
20
-0.787195
11
3.61868
21
-0.78907
0
LINE
8
BLACK
6
CONTINUOUS
10
3.61868
20
-0.78907
11
3.6195
21
-0.789681
0
LINE
8
BLACK
6
CONTINUOUS
10
3.6195
20
-0.789681
11
3.62031
21
-0.791534
0
LINE
8
BLACK
6
CONTINUOUS
10
3.62031
20
-0.791534
11
3.61973
21
-0.79347
0
LINE
8
BLACK
6
CONTINUOUS
10
3.61973
20
-0.79347
11
3.61805
21
-0.794583
0
LINE
8
BLACK
6
CONTINUOUS
10
3.61805
20
-0.794583
11
3.61604
21
-0.794352
0
LINE
8
BLACK
6
CONTINUOUS
10
3.61604
20
-0.794352
11
3.61291
21
-0.792789
0
LINE
8
BLACK
6
CONTINUOUS
10
3.61291
20
-0.792789
11
3.60868
21
-0.792789
0
LINE
8
BLACK
6
CONTINUOUS
10
3.60868
20
-0.792789
11
3.60599
21
-0.794138
0
LINE
8
BLACK
6
CONTINUOUS
10
3.60599
20
-0.794138
11
3.60479
21
-0.795335
0
LINE
8
BLACK
6
CONTINUOUS
10
3.60479
20
-0.795335
11
3.60344
21
-0.798033
0
LINE
8
BLACK
6
CONTINUOUS
10
3.60344
20
-0.798033
11
3.60344
21
-0.800163
0
LINE
8
BLACK
6
CONTINUOUS
10
3.60344
20
-0.800163
11
3.6039
21
-0.800026
0
LINE
8
BLACK
6
CONTINUOUS
10
3.6039
20
-0.800026
11
3.60407
21
-0.800067
0
LINE
8
BLACK
6
CONTINUOUS
10
3.60407
20
-0.800067
11
3.60424
21
-0.800007
0
LINE
8
BLACK
6
CONTINUOUS
10
3.60424
20
-0.800007
11
3.61174
21
-0.800007
0
LINE
8
BLACK
6
CONTINUOUS
10
3.61174
20
-0.800007
11
3.61275
21
-0.800185
0
LINE
8
BLACK
6
CONTINUOUS
10
3.61275
20
-0.800185
11
3.61288
21
-0.800299
0
LINE
8
BLACK
6
CONTINUOUS
10
3.61288
20
-0.800299
11
3.61306
21
-0.800319
0
LINE
8
BLACK
6
CONTINUOUS
10
3.61306
20
-0.800319
11
3.61681
21
-0.802194
0
LINE
8
BLACK
6
CONTINUOUS
10
3.61681
20
-0.802194
11
3.61752
21
-0.802719
0
LINE
8
BLACK
6
CONTINUOUS
10
3.61752
20
-0.802719
11
3.61757
21
-0.802747
0
LINE
8
BLACK
6
CONTINUOUS
10
3.61757
20
-0.802747
11
3.61945
21
-0.804621
0
LINE
8
BLACK
6
CONTINUOUS
10
3.61945
20
-0.804621
11
3.61995
21
-0.805345
0
LINE
8
BLACK
6
CONTINUOUS
10
3.61995
20
-0.805345
11
3.62
21
-0.805389
0
LINE
8
BLACK
6
CONTINUOUS
10
3.62
20
-0.805389
11
3.62188
21
-0.809138
0
LINE
8
BLACK
6
CONTINUOUS
10
3.62188
20
-0.809138
11
3.62217
21
-0.810121
0
LINE
8
BLACK
6
CONTINUOUS
10
3.62217
20
-0.810121
11
3.62213
21
-0.810293
0
LINE
8
BLACK
6
CONTINUOUS
10
3.62213
20
-0.810293
11
3.62219
21
-0.810459
0
LINE
8
BLACK
6
CONTINUOUS
10
3.62219
20
-0.810459
11
3.62219
21
-0.821708
0
LINE
8
BLACK
6
CONTINUOUS
10
3.62219
20
-0.821708
11
3.62201
21
-0.822717
0
LINE
8
BLACK
6
CONTINUOUS
10
3.62201
20
-0.822717
11
3.6219
21
-0.822853
0
LINE
8
BLACK
6
CONTINUOUS
10
3.6219
20
-0.822853
11
3.62188
21
-0.823028
0
LINE
8
BLACK
6
CONTINUOUS
10
3.62188
20
-0.823028
11
3.62
21
-0.826778
0
LINE
8
BLACK
6
CONTINUOUS
10
3.62
20
-0.826778
11
3.61948
21
-0.827487
0
LINE
8
BLACK
6
CONTINUOUS
10
3.61948
20
-0.827487
11
3.61945
21
-0.827545
0
LINE
8
BLACK
6
CONTINUOUS
10
3.61945
20
-0.827545
11
3.61757
21
-0.82942
0
LINE
8
BLACK
6
CONTINUOUS
10
3.61757
20
-0.82942
11
3.61685
21
-0.829926
0
LINE
8
BLACK
6
CONTINUOUS
10
3.61685
20
-0.829926
11
3.61681
21
-0.829973
0
LINE
8
BLACK
6
CONTINUOUS
10
3.61681
20
-0.829973
11
3.61306
21
-0.831848
0
LINE
8
BLACK
6
CONTINUOUS
10
3.61306
20
-0.831848
11
3.61207
21
-0.83214
0
LINE
8
BLACK
6
CONTINUOUS
10
3.61207
20
-0.83214
11
3.6119
21
-0.832099
0
LINE
8
BLACK
6
CONTINUOUS
10
3.6119
20
-0.832099
11
3.61174
21
-0.832159
0
LINE
8
BLACK
6
CONTINUOUS
10
3.61174
20
-0.832159
11
3.60424
21
-0.832159
0
LINE
8
BLACK
6
CONTINUOUS
10
3.60424
20
-0.832159
11
3.60323
21
-0.831981
0
LINE
8
BLACK
6
CONTINUOUS
10
3.60323
20
-0.831981
11
3.60309
21
-0.831868
0
LINE
8
BLACK
6
CONTINUOUS
10
3.60309
20
-0.831868
11
3.60292
21
-0.831848
0
LINE
8
BLACK
6
CONTINUOUS
10
3.60292
20
-0.831848
11
3.6022
21
-0.831487
0
LINE
8
BLACK
6
CONTINUOUS
10
3.6022
20
-0.831487
11
3.60196
21
-0.831764
0
LINE
8
BLACK
6
CONTINUOUS
10
3.60196
20
-0.831764
11
3.59997
21
-0.832114
0
LINE
8
BLACK
6
CONTINUOUS
10
3.59997
20
-0.832114
11
3.59823
21
-0.831105
0
LINE
8
BLACK
6
CONTINUOUS
10
3.59823
20
-0.831105
11
3.59753
21
-0.829207
0
LINE
8
BLACK
6
CONTINUOUS
10
3.59753
20
-0.829207
11
3.59753
21
-0.797336
0
LINE
8
BLACK
6
CONTINUOUS
10
3.59753
20
-0.797336
11
3.59771
21
-0.796326
0
LINE
8
BLACK
6
CONTINUOUS
10
3.59771
20
-0.796326
11
3.59783
21
-0.79619
0
LINE
8
BLACK
6
CONTINUOUS
10
3.59783
20
-0.79619
11
3.59785
21
-0.796015
0
LINE
8
BLACK
6
CONTINUOUS
10
3.59785
20
-0.796015
11
3.59972
21
-0.792266
0
LINE
8
BLACK
6
CONTINUOUS
10
3.59972
20
-0.792266
11
3.60025
21
-0.791556
0
LINE
8
BLACK
6
CONTINUOUS
10
3.60025
20
-0.791556
11
3.60027
21
-0.791498
0
LINE
8
BLACK
6
CONTINUOUS
10
3.60027
20
-0.791498
11
3.60215
21
-0.789623
0
LINE
8
BLACK
6
CONTINUOUS
10
3.60215
20
-0.789623
11
3.60287
21
-0.789117
0
LINE
8
BLACK
6
CONTINUOUS
10
3.60287
20
-0.789117
11
3.60292
21
-0.78907
0
LINE
8
BLACK
6
CONTINUOUS
10
3.60292
20
-0.78907
11
3.60667
21
-0.787195
0
LINE
8
BLACK
6
CONTINUOUS
10
3.60667
20
-0.787195
11
3.60765
21
-0.786903
0
LINE
8
BLACK
6
CONTINUOUS
10
3.60765
20
-0.786903
11
3.60782
21
-0.786944
0
LINE
8
BLACK
6
CONTINUOUS
10
3.60782
20
-0.786944
11
3.60799
21
-0.786884
0
LINE
8
BLACK
6
CONTINUOUS
10
3.60799
20
-0.786884
11
3.61361
21
-0.786884
0
LINE
8
BLACK
6
CONTINUOUS
10
3.61361
20
-0.786884
11
3.61462
21
-0.787062
0
LINE
8
BLACK
6
CONTINUOUS
10
3.60344
20
-0.80666
11
3.60344
21
-0.825507
0
LINE
8
BLACK
6
CONTINUOUS
10
3.60344
20
-0.825507
11
3.60493
21
-0.826254
0
LINE
8
BLACK
6
CONTINUOUS
10
3.60493
20
-0.826254
11
3.61104
21
-0.826254
0
LINE
8
BLACK
6
CONTINUOUS
10
3.61104
20
-0.826254
11
3.61374
21
-0.824905
0
LINE
8
BLACK
6
CONTINUOUS
10
3.61374
20
-0.824905
11
3.61493
21
-0.823708
0
LINE
8
BLACK
6
CONTINUOUS
10
3.61493
20
-0.823708
11
3.61628
21
-0.82101
0
LINE
8
BLACK
6
CONTINUOUS
10
3.61628
20
-0.82101
11
3.61628
21
-0.811156
0
LINE
8
BLACK
6
CONTINUOUS
10
3.61628
20
-0.811156
11
3.61493
21
-0.808459
0
LINE
8
BLACK
6
CONTINUOUS
10
3.61493
20
-0.808459
11
3.61374
21
-0.807261
0
LINE
8
BLACK
6
CONTINUOUS
10
3.61374
20
-0.807261
11
3.61104
21
-0.805913
0
LINE
8
BLACK
6
CONTINUOUS
10
3.61104
20
-0.805913
11
3.60493
21
-0.805913
0
LINE
8
BLACK
6
CONTINUOUS
10
3.60493
20
-0.805913
11
3.60344
21
-0.80666
0
LINE
8
BLACK
6
CONTINUOUS
10
3.68399
20
-0.800185
11
3.68412
21
-0.800299
0
LINE
8
BLACK
6
CONTINUOUS
10
3.68412
20
-0.800299
11
3.6843
21
-0.800319
0
LINE
8
BLACK
6
CONTINUOUS
10
3.6843
20
-0.800319
11
3.68805
21
-0.802194
0
LINE
8
BLACK
6
CONTINUOUS
10
3.68805
20
-0.802194
11
3.68887
21
-0.802805
0
LINE
8
BLACK
6
CONTINUOUS
10
3.68887
20
-0.802805
11
3.68905
21
-0.80321
0
LINE
8
BLACK
6
CONTINUOUS
10
3.68905
20
-0.80321
11
3.68937
21
-0.803514
0
LINE
8
BLACK
6
CONTINUOUS
10
3.68937
20
-0.803514
11
3.69124
21
-0.807264
0
LINE
8
BLACK
6
CONTINUOUS
10
3.69124
20
-0.807264
11
3.69153
21
-0.808247
0
LINE
8
BLACK
6
CONTINUOUS
10
3.69153
20
-0.808247
11
3.69149
21
-0.808418
0
LINE
8
BLACK
6
CONTINUOUS
10
3.69149
20
-0.808418
11
3.69155
21
-0.808584
0
LINE
8
BLACK
6
CONTINUOUS
10
3.69155
20
-0.808584
11
3.69155
21
-0.823582
0
LINE
8
BLACK
6
CONTINUOUS
10
3.69155
20
-0.823582
11
3.69138
21
-0.824592
0
LINE
8
BLACK
6
CONTINUOUS
10
3.69138
20
-0.824592
11
3.69126
21
-0.824727
0
LINE
8
BLACK
6
CONTINUOUS
10
3.69126
20
-0.824727
11
3.69124
21
-0.824903
0
LINE
8
BLACK
6
CONTINUOUS
10
3.69124
20
-0.824903
11
3.68937
21
-0.828652
0
LINE
8
BLACK
6
CONTINUOUS
10
3.68937
20
-0.828652
11
3.68876
21
-0.829476
0
LINE
8
BLACK
6
CONTINUOUS
10
3.68876
20
-0.829476
11
3.68835
21
-0.829652
0
LINE
8
BLACK
6
CONTINUOUS
10
3.68835
20
-0.829652
11
3.68805
21
-0.829973
0
LINE
8
BLACK
6
CONTINUOUS
10
3.68805
20
-0.829973
11
3.6843
21
-0.831848
0
LINE
8
BLACK
6
CONTINUOUS
10
3.6843
20
-0.831848
11
3.68331
21
-0.83214
0
LINE
8
BLACK
6
CONTINUOUS
10
3.68331
20
-0.83214
11
3.68314
21
-0.832099
0
LINE
8
BLACK
6
CONTINUOUS
10
3.68314
20
-0.832099
11
3.68298
21
-0.832159
0
LINE
8
BLACK
6
CONTINUOUS
10
3.68298
20
-0.832159
11
3.67548
21
-0.832159
0
LINE
8
BLACK
6
CONTINUOUS
10
3.67548
20
-0.832159
11
3.67447
21
-0.831981
0
LINE
8
BLACK
6
CONTINUOUS
10
3.67447
20
-0.831981
11
3.67433
21
-0.831868
0
LINE
8
BLACK
6
CONTINUOUS
10
3.67433
20
-0.831868
11
3.67416
21
-0.831848
0
LINE
8
BLACK
6
CONTINUOUS
10
3.67416
20
-0.831848
11
3.67041
21
-0.829973
0
LINE
8
BLACK
6
CONTINUOUS
10
3.67041
20
-0.829973
11
3.66958
21
-0.829362
0
LINE
8
BLACK
6
CONTINUOUS
10
3.66958
20
-0.829362
11
3.66941
21
-0.828956
0
LINE
8
BLACK
6
CONTINUOUS
10
3.66941
20
-0.828956
11
3.66909
21
-0.828652
0
LINE
8
BLACK
6
CONTINUOUS
10
3.66909
20
-0.828652
11
3.66721
21
-0.824903
0
LINE
8
BLACK
6
CONTINUOUS
10
3.66721
20
-0.824903
11
3.66692
21
-0.82392
0
LINE
8
BLACK
6
CONTINUOUS
10
3.66692
20
-0.82392
11
3.66696
21
-0.823748
0
LINE
8
BLACK
6
CONTINUOUS
10
3.66696
20
-0.823748
11
3.6669
21
-0.823582
0
LINE
8
BLACK
6
CONTINUOUS
10
3.6669
20
-0.823582
11
3.6669
21
-0.819833
0
LINE
8
BLACK
6
CONTINUOUS
10
3.6669
20
-0.819833
11
3.66708
21
-0.818823
0
LINE
8
BLACK
6
CONTINUOUS
10
3.66708
20
-0.818823
11
3.66739
21
-0.818449
0
LINE
8
BLACK
6
CONTINUOUS
10
3.66739
20
-0.818449
11
3.66755
21
-0.817987
0
LINE
8
BLACK
6
CONTINUOUS
10
3.66755
20
-0.817987
11
3.66802
21
-0.817699
0
LINE
8
BLACK
6
CONTINUOUS
10
3.66802
20
-0.817699
11
3.66838
21
-0.817276
0
LINE
8
BLACK
6
CONTINUOUS
10
3.66838
20
-0.817276
11
3.66886
21
-0.817191
0
LINE
8
BLACK
6
CONTINUOUS
10
3.66886
20
-0.817191
11
3.66927
21
-0.816937
0
LINE
8
BLACK
6
CONTINUOUS
10
3.66927
20
-0.816937
11
3.68565
21
-0.813663
0
LINE
8
BLACK
6
CONTINUOUS
10
3.68565
20
-0.813663
11
3.68565
21
-0.809281
0
LINE
8
BLACK
6
CONTINUOUS
10
3.68565
20
-0.809281
11
3.68453
21
-0.807035
0
LINE
8
BLACK
6
CONTINUOUS
10
3.68453
20
-0.807035
11
3.68228
21
-0.805913
0
LINE
8
BLACK
6
CONTINUOUS
10
3.68228
20
-0.805913
11
3.67618
21
-0.805913
0
LINE
8
BLACK
6
CONTINUOUS
10
3.67618
20
-0.805913
11
3.67305
21
-0.807476
0
LINE
8
BLACK
6
CONTINUOUS
10
3.67305
20
-0.807476
11
3.67207
21
-0.807768
0
LINE
8
BLACK
6
CONTINUOUS
10
3.67207
20
-0.807768
11
3.6701
21
-0.807299
0
LINE
8
BLACK
6
CONTINUOUS
10
3.6701
20
-0.807299
11
3.6689
21
-0.805676
0
LINE
8
BLACK
6
CONTINUOUS
10
3.6689
20
-0.805676
11
3.66902
21
-0.80366
0
LINE
8
BLACK
6
CONTINUOUS
10
3.66902
20
-0.80366
11
3.67041
21
-0.802194
0
LINE
8
BLACK
6
CONTINUOUS
10
3.67041
20
-0.802194
11
3.67416
21
-0.800319
0
LINE
8
BLACK
6
CONTINUOUS
10
3.67416
20
-0.800319
11
3.67514
21
-0.800026
0
LINE
8
BLACK
6
CONTINUOUS
10
3.67514
20
-0.800026
11
3.67531
21
-0.800067
0
LINE
8
BLACK
6
CONTINUOUS
10
3.67531
20
-0.800067
11
3.67548
21
-0.800007
0
LINE
8
BLACK
6
CONTINUOUS
10
3.67548
20
-0.800007
11
3.68298
21
-0.800007
0
LINE
8
BLACK
6
CONTINUOUS
10
3.68298
20
-0.800007
11
3.68399
21
-0.800185
0
LINE
8
BLACK
6
CONTINUOUS
10
3.67281
20
-0.822253
11
3.67281
21
-0.822885
0
LINE
8
BLACK
6
CONTINUOUS
10
3.67281
20
-0.822885
11
3.67393
21
-0.825131
0
LINE
8
BLACK
6
CONTINUOUS
10
3.67393
20
-0.825131
11
3.67618
21
-0.826254
0
LINE
8
BLACK
6
CONTINUOUS
10
3.67618
20
-0.826254
11
3.68228
21
-0.826254
0
LINE
8
BLACK
6
CONTINUOUS
10
3.68228
20
-0.826254
11
3.68453
21
-0.825131
0
LINE
8
BLACK
6
CONTINUOUS
10
3.68453
20
-0.825131
11
3.68565
21
-0.822885
0
LINE
8
BLACK
6
CONTINUOUS
10
3.68565
20
-0.822885
11
3.68565
21
-0.819685
0
LINE
8
BLACK
6
CONTINUOUS
10
3.68565
20
-0.819685
11
3.67281
21
-0.822253
0
LINE
8
BLACK
6
CONTINUOUS
10
4.44514
20
-0.800185
11
4.44528
21
-0.800299
0
LINE
8
BLACK
6
CONTINUOUS
10
4.44528
20
-0.800299
11
4.44545
21
-0.800319
0
LINE
8
BLACK
6
CONTINUOUS
10
4.44545
20
-0.800319
11
4.4492
21
-0.802194
0
LINE
8
BLACK
6
CONTINUOUS
10
4.4492
20
-0.802194
11
4.45003
21
-0.802805
0
LINE
8
BLACK
6
CONTINUOUS
10
4.45003
20
-0.802805
11
4.4502
21
-0.80321
0
LINE
8
BLACK
6
CONTINUOUS
10
4.4502
20
-0.80321
11
4.45052
21
-0.803514
0
LINE
8
BLACK
6
CONTINUOUS
10
4.45052
20
-0.803514
11
4.4524
21
-0.807264
0
LINE
8
BLACK
6
CONTINUOUS
10
4.4524
20
-0.807264
11
4.45269
21
-0.808247
0
LINE
8
BLACK
6
CONTINUOUS
10
4.45269
20
-0.808247
11
4.45265
21
-0.808418
0
LINE
8
BLACK
6
CONTINUOUS
10
4.45265
20
-0.808418
11
4.45271
21
-0.808584
0
LINE
8
BLACK
6
CONTINUOUS
10
4.45271
20
-0.808584
11
4.45271
21
-0.823582
0
LINE
8
BLACK
6
CONTINUOUS
10
4.45271
20
-0.823582
11
4.45253
21
-0.824592
0
LINE
8
BLACK
6
CONTINUOUS
10
4.45253
20
-0.824592
11
4.45242
21
-0.824727
0
LINE
8
BLACK
6
CONTINUOUS
10
4.45242
20
-0.824727
11
4.4524
21
-0.824903
0
LINE
8
BLACK
6
CONTINUOUS
10
4.4524
20
-0.824903
11
4.45052
21
-0.828652
0
LINE
8
BLACK
6
CONTINUOUS
10
4.45052
20
-0.828652
11
4.44991
21
-0.829476
0
LINE
8
BLACK
6
CONTINUOUS
10
4.44991
20
-0.829476
11
4.44951
21
-0.829652
0
LINE
8
BLACK
6
CONTINUOUS
10
4.44951
20
-0.829652
11
4.4492
21
-0.829973
0
LINE
8
BLACK
6
CONTINUOUS
10
4.4492
20
-0.829973
11
4.44545
21
-0.831848
0
LINE
8
BLACK
6
CONTINUOUS
10
4.44545
20
-0.831848
11
4.44447
21
-0.83214
0
LINE
8
BLACK
6
CONTINUOUS
10
4.44447
20
-0.83214
11
4.4443
21
-0.832099
0
LINE
8
BLACK
6
CONTINUOUS
10
4.4443
20
-0.832099
11
4.44413
21
-0.832159
0
LINE
8
BLACK
6
CONTINUOUS
10
4.44413
20
-0.832159
11
4.43663
21
-0.832159
0
LINE
8
BLACK
6
CONTINUOUS
10
4.43663
20
-0.832159
11
4.43562
21
-0.831981
0
LINE
8
BLACK
6
CONTINUOUS
10
4.43562
20
-0.831981
11
4.43549
21
-0.831868
0
LINE
8
BLACK
6
CONTINUOUS
10
4.43549
20
-0.831868
11
4.43531
21
-0.831848
0
LINE
8
BLACK
6
CONTINUOUS
10
4.43531
20
-0.831848
11
4.43156
21
-0.829973
0
LINE
8
BLACK
6
CONTINUOUS
10
4.43156
20
-0.829973
11
4.43074
21
-0.829362
0
LINE
8
BLACK
6
CONTINUOUS
10
4.43074
20
-0.829362
11
4.43056
21
-0.828956
0
LINE
8
BLACK
6
CONTINUOUS
10
4.43056
20
-0.828956
11
4.43024
21
-0.828652
0
LINE
8
BLACK
6
CONTINUOUS
10
4.43024
20
-0.828652
11
4.42837
21
-0.824903
0
LINE
8
BLACK
6
CONTINUOUS
10
4.42837
20
-0.824903
11
4.42808
21
-0.82392
0
LINE
8
BLACK
6
CONTINUOUS
10
4.42808
20
-0.82392
11
4.42812
21
-0.823748
0
LINE
8
BLACK
6
CONTINUOUS
10
4.42812
20
-0.823748
11
4.42806
21
-0.823582
0
LINE
8
BLACK
6
CONTINUOUS
10
4.42806
20
-0.823582
11
4.42806
21
-0.819833
0
LINE
8
BLACK
6
CONTINUOUS
10
4.42806
20
-0.819833
11
4.42823
21
-0.818823
0
LINE
8
BLACK
6
CONTINUOUS
10
4.42823
20
-0.818823
11
4.42855
21
-0.818449
0
LINE
8
BLACK
6
CONTINUOUS
10
4.42855
20
-0.818449
11
4.4287
21
-0.817987
0
LINE
8
BLACK
6
CONTINUOUS
10
4.4287
20
-0.817987
11
4.42918
21
-0.817699
0
LINE
8
BLACK
6
CONTINUOUS
10
4.42918
20
-0.817699
11
4.42953
21
-0.817276
0
LINE
8
BLACK
6
CONTINUOUS
10
4.42953
20
-0.817276
11
4.43001
21
-0.817191
0
LINE
8
BLACK
6
CONTINUOUS
10
4.43001
20
-0.817191
11
4.43043
21
-0.816937
0
LINE
8
BLACK
6
CONTINUOUS
10
4.43043
20
-0.816937
11
4.4468
21
-0.813663
0
LINE
8
BLACK
6
CONTINUOUS
10
4.4468
20
-0.813663
11
4.4468
21
-0.809281
0
LINE
8
BLACK
6
CONTINUOUS
10
4.4468
20
-0.809281
11
4.44568
21
-0.807035
0
LINE
8
BLACK
6
CONTINUOUS
10
4.44568
20
-0.807035
11
4.44343
21
-0.805913
0
LINE
8
BLACK
6
CONTINUOUS
10
4.44343
20
-0.805913
11
4.43733
21
-0.805913
0
LINE
8
BLACK
6
CONTINUOUS
10
4.43733
20
-0.805913
11
4.4342
21
-0.807476
0
LINE
8
BLACK
6
CONTINUOUS
10
4.4342
20
-0.807476
11
4.43322
21
-0.807768
0
LINE
8
BLACK
6
CONTINUOUS
10
4.43322
20
-0.807768
11
4.43126
21
-0.807299
0
LINE
8
BLACK
6
CONTINUOUS
10
4.43126
20
-0.807299
11
4.43005
21
-0.805676
0
LINE
8
BLACK
6
CONTINUOUS
10
4.43005
20
-0.805676
11
4.43017
21
-0.80366
0
LINE
8
BLACK
6
CONTINUOUS
10
4.43017
20
-0.80366
11
4.43156
21
-0.802194
0
LINE
8
BLACK
6
CONTINUOUS
10
4.43156
20
-0.802194
11
4.43531
21
-0.800319
0
LINE
8
BLACK
6
CONTINUOUS
10
4.43531
20
-0.800319
11
4.4363
21
-0.800026
0
LINE
8
BLACK
6
CONTINUOUS
10
4.4363
20
-0.800026
11
4.43647
21
-0.800067
0
LINE
8
BLACK
6
CONTINUOUS
10
4.43647
20
-0.800067
11
4.43663
21
-0.800007
0
LINE
8
BLACK
6
CONTINUOUS
10
4.43663
20
-0.800007
11
4.44413
21
-0.800007
0
LINE
8
BLACK
6
CONTINUOUS
10
4.44413
20
-0.800007
11
4.44514
21
-0.800185
0
LINE
8
BLACK
6
CONTINUOUS
10
4.43396
20
-0.822253
11
4.43396
21
-0.822885
0
LINE
8
BLACK
6
CONTINUOUS
10
4.43396
20
-0.822885
11
4.43508
21
-0.825131
0
LINE
8
BLACK
6
CONTINUOUS
10
4.43508
20
-0.825131
11
4.43733
21
-0.826254
0
LINE
8
BLACK
6
CONTINUOUS
10
4.43733
20
-0.826254
11
4.44343
21
-0.826254
0
LINE
8
BLACK
6
CONTINUOUS
10
4.44343
20
-0.826254
11
4.44568
21
-0.825131
0
LINE
8
BLACK
6
CONTINUOUS
10
4.44568
20
-0.825131
11
4.4468
21
-0.822885
0
LINE
8
BLACK
6
CONTINUOUS
10
4.4468
20
-0.822885
11
4.4468
21
-0.819685
0
LINE
8
BLACK
6
CONTINUOUS
10
4.4468
20
-0.819685
11
4.43396
21
-0.822253
0
LINE
8
BLACK
6
CONTINUOUS
10
4.48076
20
-0.787062
11
4.4809
21
-0.787175
0
LINE
8
BLACK
6
CONTINUOUS
10
4.4809
20
-0.787175
11
4.48107
21
-0.787195
0
LINE
8
BLACK
6
CONTINUOUS
10
4.48107
20
-0.787195
11
4.48482
21
-0.78907
0
LINE
8
BLACK
6
CONTINUOUS
10
4.48482
20
-0.78907
11
4.48565
21
-0.789681
0
LINE
8
BLACK
6
CONTINUOUS
10
4.48565
20
-0.789681
11
4.48645
21
-0.791534
0
LINE
8
BLACK
6
CONTINUOUS
10
4.48645
20
-0.791534
11
4.48587
21
-0.79347
0
LINE
8
BLACK
6
CONTINUOUS
10
4.48587
20
-0.79347
11
4.48419
21
-0.794583
0
LINE
8
BLACK
6
CONTINUOUS
10
4.48419
20
-0.794583
11
4.48218
21
-0.794352
0
LINE
8
BLACK
6
CONTINUOUS
10
4.48218
20
-0.794352
11
4.47906
21
-0.792789
0
LINE
8
BLACK
6
CONTINUOUS
10
4.47906
20
-0.792789
11
4.47483
21
-0.792789
0
LINE
8
BLACK
6
CONTINUOUS
10
4.47483
20
-0.792789
11
4.47213
21
-0.794138
0
LINE
8
BLACK
6
CONTINUOUS
10
4.47213
20
-0.794138
11
4.47093
21
-0.795335
0
LINE
8
BLACK
6
CONTINUOUS
10
4.47093
20
-0.795335
11
4.46958
21
-0.798033
0
LINE
8
BLACK
6
CONTINUOUS
10
4.46958
20
-0.798033
11
4.46958
21
-0.800163
0
LINE
8
BLACK
6
CONTINUOUS
10
4.46958
20
-0.800163
11
4.47004
21
-0.800026
0
LINE
8
BLACK
6
CONTINUOUS
10
4.47004
20
-0.800026
11
4.47021
21
-0.800067
0
LINE
8
BLACK
6
CONTINUOUS
10
4.47021
20
-0.800067
11
4.47038
21
-0.800007
0
LINE
8
BLACK
6
CONTINUOUS
10
4.47038
20
-0.800007
11
4.47788
21
-0.800007
0
LINE
8
BLACK
6
CONTINUOUS
10
4.47788
20
-0.800007
11
4.47889
21
-0.800185
0
LINE
8
BLACK
6
CONTINUOUS
10
4.47889
20
-0.800185
11
4.47902
21
-0.800299
0
LINE
8
BLACK
6
CONTINUOUS
10
4.47902
20
-0.800299
11
4.4792
21
-0.800319
0
LINE
8
BLACK
6
CONTINUOUS
10
4.4792
20
-0.800319
11
4.48295
21
-0.802194
0
LINE
8
BLACK
6
CONTINUOUS
10
4.48295
20
-0.802194
11
4.48366
21
-0.802719
0
LINE
8
BLACK
6
CONTINUOUS
10
4.48366
20
-0.802719
11
4.48372
21
-0.802747
0
LINE
8
BLACK
6
CONTINUOUS
10
4.48372
20
-0.802747
11
4.48559
21
-0.804621
0
LINE
8
BLACK
6
CONTINUOUS
10
4.48559
20
-0.804621
11
4.4861
21
-0.805345
0
LINE
8
BLACK
6
CONTINUOUS
10
4.4861
20
-0.805345
11
4.48614
21
-0.805389
0
LINE
8
BLACK
6
CONTINUOUS
10
4.48614
20
-0.805389
11
4.48802
21
-0.809138
0
LINE
8
BLACK
6
CONTINUOUS
10
4.48802
20
-0.809138
11
4.48831
21
-0.810121
0
LINE
8
BLACK
6
CONTINUOUS
10
4.48831
20
-0.810121
11
4.48827
21
-0.810293
0
LINE
8
BLACK
6
CONTINUOUS
10
4.48827
20
-0.810293
11
4.48833
21
-0.810459
0
LINE
8
BLACK
6
CONTINUOUS
10
4.48833
20
-0.810459
11
4.48833
21
-0.821708
0
LINE
8
BLACK
6
CONTINUOUS
10
4.48833
20
-0.821708
11
4.48815
21
-0.822717
0
LINE
8
BLACK
6
CONTINUOUS
10
4.48815
20
-0.822717
11
4.48804
21
-0.822853
0
LINE
8
BLACK
6
CONTINUOUS
10
4.48804
20
-0.822853
11
4.48802
21
-0.823028
0
LINE
8
BLACK
6
CONTINUOUS
10
4.48802
20
-0.823028
11
4.48614
21
-0.826778
0
LINE
8
BLACK
6
CONTINUOUS
10
4.48614
20
-0.826778
11
4.48562
21
-0.827487
0
LINE
8
BLACK
6
CONTINUOUS
10
4.48562
20
-0.827487
11
4.48559
21
-0.827545
0
LINE
8
BLACK
6
CONTINUOUS
10
4.48559
20
-0.827545
11
4.48372
21
-0.82942
0
LINE
8
BLACK
6
CONTINUOUS
10
4.48372
20
-0.82942
11
4.48299
21
-0.829926
0
LINE
8
BLACK
6
CONTINUOUS
10
4.48299
20
-0.829926
11
4.48295
21
-0.829973
0
LINE
8
BLACK
6
CONTINUOUS
10
4.48295
20
-0.829973
11
4.4792
21
-0.831848
0
LINE
8
BLACK
6
CONTINUOUS
10
4.4792
20
-0.831848
11
4.47822
21
-0.83214
0
LINE
8
BLACK
6
CONTINUOUS
10
4.47822
20
-0.83214
11
4.47804
21
-0.832099
0
LINE
8
BLACK
6
CONTINUOUS
10
4.47804
20
-0.832099
11
4.47788
21
-0.832159
0
LINE
8
BLACK
6
CONTINUOUS
10
4.47788
20
-0.832159
11
4.47038
21
-0.832159
0
LINE
8
BLACK
6
CONTINUOUS
10
4.47038
20
-0.832159
11
4.46937
21
-0.831981
0
LINE
8
BLACK
6
CONTINUOUS
10
4.46937
20
-0.831981
11
4.46923
21
-0.831868
0
LINE
8
BLACK
6
CONTINUOUS
10
4.46923
20
-0.831868
11
4.46906
21
-0.831848
0
LINE
8
BLACK
6
CONTINUOUS
10
4.46906
20
-0.831848
11
4.46834
21
-0.831487
0
LINE
8
BLACK
6
CONTINUOUS
10
4.46834
20
-0.831487
11
4.46811
21
-0.831764
0
LINE
8
BLACK
6
CONTINUOUS
10
4.46811
20
-0.831764
11
4.46612
21
-0.832114
0
LINE
8
BLACK
6
CONTINUOUS
10
4.46612
20
-0.832114
11
4.46437
21
-0.831105
0
LINE
8
BLACK
6
CONTINUOUS
10
4.46437
20
-0.831105
11
4.46368
21
-0.829207
0
LINE
8
BLACK
6
CONTINUOUS
10
4.46368
20
-0.829207
11
4.46368
21
-0.797336
0
LINE
8
BLACK
6
CONTINUOUS
10
4.46368
20
-0.797336
11
4.46385
21
-0.796326
0
LINE
8
BLACK
6
CONTINUOUS
10
4.46385
20
-0.796326
11
4.46397
21
-0.79619
0
LINE
8
BLACK
6
CONTINUOUS
10
4.46397
20
-0.79619
11
4.46399
21
-0.796015
0
LINE
8
BLACK
6
CONTINUOUS
10
4.46399
20
-0.796015
11
4.46586
21
-0.792266
0
LINE
8
BLACK
6
CONTINUOUS
10
4.46586
20
-0.792266
11
4.46639
21
-0.791556
0
LINE
8
BLACK
6
CONTINUOUS
10
4.46639
20
-0.791556
11
4.46642
21
-0.791498
0
LINE
8
BLACK
6
CONTINUOUS
10
4.46642
20
-0.791498
11
4.46829
21
-0.789623
0
LINE
8
BLACK
6
CONTINUOUS
10
4.46829
20
-0.789623
11
4.46901
21
-0.789117
0
LINE
8
BLACK
6
CONTINUOUS
10
4.46901
20
-0.789117
11
4.46906
21
-0.78907
0
LINE
8
BLACK
6
CONTINUOUS
10
4.46906
20
-0.78907
11
4.47281
21
-0.787195
0
LINE
8
BLACK
6
CONTINUOUS
10
4.47281
20
-0.787195
11
4.47379
21
-0.786903
0
LINE
8
BLACK
6
CONTINUOUS
10
4.47379
20
-0.786903
11
4.47396
21
-0.786944
0
LINE
8
BLACK
6
CONTINUOUS
10
4.47396
20
-0.786944
11
4.47413
21
-0.786884
0
LINE
8
BLACK
6
CONTINUOUS
10
4.47413
20
-0.786884
11
4.47975
21
-0.786884
0
LINE
8
BLACK
6
CONTINUOUS
10
4.47975
20
-0.786884
11
4.48076
21
-0.787062
0
LINE
8
BLACK
6
CONTINUOUS
10
4.46958
20
-0.80666
11
4.46958
21
-0.825507
0
LINE
8
BLACK
6
CONTINUOUS
10
4.46958
20
-0.825507
11
4.47108
21
-0.826254
0
LINE
8
BLACK
6
CONTINUOUS
10
4.47108
20
-0.826254
11
4.47718
21
-0.826254
0
LINE
8
BLACK
6
CONTINUOUS
10
4.47718
20
-0.826254
11
4.47988
21
-0.824905
0
LINE
8
BLACK
6
CONTINUOUS
10
4.47988
20
-0.824905
11
4.48108
21
-0.823708
0
LINE
8
BLACK
6
CONTINUOUS
10
4.48108
20
-0.823708
11
4.48242
21
-0.82101
0
LINE
8
BLACK
6
CONTINUOUS
10
4.48242
20
-0.82101
11
4.48242
21
-0.811156
0
LINE
8
BLACK
6
CONTINUOUS
10
4.48242
20
-0.811156
11
4.48108
21
-0.808459
0
LINE
8
BLACK
6
CONTINUOUS
10
4.48108
20
-0.808459
11
4.47988
21
-0.807261
0
LINE
8
BLACK
6
CONTINUOUS
10
4.47988
20
-0.807261
11
4.47718
21
-0.805913
0
LINE
8
BLACK
6
CONTINUOUS
10
4.47718
20
-0.805913
11
4.47108
21
-0.805913
0
LINE
8
BLACK
6
CONTINUOUS
10
4.47108
20
-0.805913
11
4.46958
21
-0.80666
0
LINE
8
BLACK
6
CONTINUOUS
10
4.55013
20
-0.800185
11
4.55026
21
-0.800299
0
LINE
8
BLACK
6
CONTINUOUS
10
4.55026
20
-0.800299
11
4.55044
21
-0.800319
0
LINE
8
BLACK
6
CONTINUOUS
10
4.55044
20
-0.800319
11
4.55419
21
-0.802194
0
LINE
8
BLACK
6
CONTINUOUS
10
4.55419
20
-0.802194
11
4.55501
21
-0.802805
0
LINE
8
BLACK
6
CONTINUOUS
10
4.55501
20
-0.802805
11
4.55519
21
-0.80321
0
LINE
8
BLACK
6
CONTINUOUS
10
4.55519
20
-0.80321
11
4.55551
21
-0.803514
0
LINE
8
BLACK
6
CONTINUOUS
10
4.55551
20
-0.803514
11
4.55738
21
-0.807264
0
LINE
8
BLACK
6
CONTINUOUS
10
4.55738
20
-0.807264
11
4.55768
21
-0.808247
0
LINE
8
BLACK
6
CONTINUOUS
10
4.55768
20
-0.808247
11
4.55764
21
-0.808418
0
LINE
8
BLACK
6
CONTINUOUS
10
4.55764
20
-0.808418
11
4.5577
21
-0.808584
0
LINE
8
BLACK
6
CONTINUOUS
10
4.5577
20
-0.808584
11
4.5577
21
-0.823582
0
LINE
8
BLACK
6
CONTINUOUS
10
4.5577
20
-0.823582
11
4.55752
21
-0.824592
0
LINE
8
BLACK
6
CONTINUOUS
10
4.55752
20
-0.824592
11
4.5574
21
-0.824727
0
LINE
8
BLACK
6
CONTINUOUS
10
4.5574
20
-0.824727
11
4.55738
21
-0.824903
0
LINE
8
BLACK
6
CONTINUOUS
10
4.55738
20
-0.824903
11
4.55551
21
-0.828652
0
LINE
8
BLACK
6
CONTINUOUS
10
4.55551
20
-0.828652
11
4.5549
21
-0.829476
0
LINE
8
BLACK
6
CONTINUOUS
10
4.5549
20
-0.829476
11
4.55449
21
-0.829652
0
LINE
8
BLACK
6
CONTINUOUS
10
4.55449
20
-0.829652
11
4.55419
21
-0.829973
0
LINE
8
BLACK
6
CONTINUOUS
10
4.55419
20
-0.829973
11
4.55044
21
-0.831848
0
LINE
8
BLACK
6
CONTINUOUS
10
4.55044
20
-0.831848
11
4.54946
21
-0.83214
0
LINE
8
BLACK
6
CONTINUOUS
10
4.54946
20
-0.83214
11
4.54928
21
-0.832099
0
LINE
8
BLACK
6
CONTINUOUS
10
4.54928
20
-0.832099
11
4.54912
21
-0.832159
0
LINE
8
BLACK
6
CONTINUOUS
10
4.54912
20
-0.832159
11
4.54162
21
-0.832159
0
LINE
8
BLACK
6
CONTINUOUS
10
4.54162
20
-0.832159
11
4.54061
21
-0.831981
0
LINE
8
BLACK
6
CONTINUOUS
10
4.54061
20
-0.831981
11
4.54047
21
-0.831868
0
LINE
8
BLACK
6
CONTINUOUS
10
4.54047
20
-0.831868
11
4.5403
21
-0.831848
0
LINE
8
BLACK
6
CONTINUOUS
10
4.5403
20
-0.831848
11
4.53655
21
-0.829973
0
LINE
8
BLACK
6
CONTINUOUS
10
4.53655
20
-0.829973
11
4.53573
21
-0.829362
0
LINE
8
BLACK
6
CONTINUOUS
10
4.53573
20
-0.829362
11
4.53555
21
-0.828956
0
LINE
8
BLACK
6
CONTINUOUS
10
4.53555
20
-0.828956
11
4.53523
21
-0.828652
0
LINE
8
BLACK
6
CONTINUOUS
10
4.53523
20
-0.828652
11
4.53335
21
-0.824903
0
LINE
8
BLACK
6
CONTINUOUS
10
4.53335
20
-0.824903
11
4.53306
21
-0.82392
0
LINE
8
BLACK
6
CONTINUOUS
10
4.53306
20
-0.82392
11
4.5331
21
-0.823748
0
LINE
8
BLACK
6
CONTINUOUS
10
4.5331
20
-0.823748
11
4.53304
21
-0.823582
0
LINE
8
BLACK
6
CONTINUOUS
10
4.53304
20
-0.823582
11
4.53304
21
-0.819833
0
LINE
8
BLACK
6
CONTINUOUS
10
4.53304
20
-0.819833
11
4.53322
21
-0.818823
0
LINE
8
BLACK
6
CONTINUOUS
10
4.53322
20
-0.818823
11
4.53353
21
-0.818449
0
LINE
8
BLACK
6
CONTINUOUS
10
4.53353
20
-0.818449
11
4.53369
21
-0.817987
0
LINE
8
BLACK
6
CONTINUOUS
10
4.53369
20
-0.817987
11
4.53416
21
-0.817699
0
LINE
8
BLACK
6
CONTINUOUS
10
4.53416
20
-0.817699
11
4.53452
21
-0.817276
0
LINE
8
BLACK
6
CONTINUOUS
10
4.53452
20
-0.817276
11
4.535
21
-0.817191
0
LINE
8
BLACK
6
CONTINUOUS
10
4.535
20
-0.817191
11
4.53542
21
-0.816937
0
LINE
8
BLACK
6
CONTINUOUS
10
4.53542
20
-0.816937
11
4.55179
21
-0.813663
0
LINE
8
BLACK
6
CONTINUOUS
10
4.55179
20
-0.813663
11
4.55179
21
-0.809281
0
LINE
8
BLACK
6
CONTINUOUS
10
4.55179
20
-0.809281
11
4.55067
21
-0.807035
0
LINE
8
BLACK
6
CONTINUOUS
10
4.55067
20
-0.807035
11
4.54842
21
-0.805913
0
LINE
8
BLACK
6
CONTINUOUS
10
4.54842
20
-0.805913
11
4.54232
21
-0.805913
0
LINE
8
BLACK
6
CONTINUOUS
10
4.54232
20
-0.805913
11
4.53919
21
-0.807476
0
LINE
8
BLACK
6
CONTINUOUS
10
4.53919
20
-0.807476
11
4.53821
21
-0.807768
0
LINE
8
BLACK
6
CONTINUOUS
10
4.53821
20
-0.807768
11
4.53624
21
-0.807299
0
LINE
8
BLACK
6
CONTINUOUS
10
4.53624
20
-0.807299
11
4.53504
21
-0.805676
0
LINE
8
BLACK
6
CONTINUOUS
10
4.53504
20
-0.805676
11
4.53516
21
-0.80366
0
LINE
8
BLACK
6
CONTINUOUS
10
4.53516
20
-0.80366
11
4.53655
21
-0.802194
0
LINE
8
BLACK
6
CONTINUOUS
10
4.53655
20
-0.802194
11
4.5403
21
-0.800319
0
LINE
8
BLACK
6
CONTINUOUS
10
4.5403
20
-0.800319
11
4.54128
21
-0.800026
0
LINE
8
BLACK
6
CONTINUOUS
10
4.54128
20
-0.800026
11
4.54145
21
-0.800067
0
LINE
8
BLACK
6
CONTINUOUS
10
4.54145
20
-0.800067
11
4.54162
21
-0.800007
0
LINE
8
BLACK
6
CONTINUOUS
10
4.54162
20
-0.800007
11
4.54912
21
-0.800007
0
LINE
8
BLACK
6
CONTINUOUS
10
4.54912
20
-0.800007
11
4.55013
21
-0.800185
0
LINE
8
BLACK
6
CONTINUOUS
10
4.53895
20
-0.822253
11
4.53895
21
-0.822885
0
LINE
8
BLACK
6
CONTINUOUS
10
4.53895
20
-0.822885
11
4.54007
21
-0.825131
0
LINE
8
BLACK
6
CONTINUOUS
10
4.54007
20
-0.825131
11
4.54232
21
-0.826254
0
LINE
8
BLACK
6
CONTINUOUS
10
4.54232
20
-0.826254
11
4.54842
21
-0.826254
0
LINE
8
BLACK
6
CONTINUOUS
10
4.54842
20
-0.826254
11
4.55067
21
-0.825131
0
LINE
8
BLACK
6
CONTINUOUS
10
4.55067
20
-0.825131
11
4.55179
21
-0.822885
0
LINE
8
BLACK
6
CONTINUOUS
10
4.55179
20
-0.822885
11
4.55179
21
-0.819685
0
LINE
8
BLACK
6
CONTINUOUS
10
4.55179
20
-0.819685
11
4.53895
21
-0.822253
0
LINE
8
BLACK
6
CONTINUOUS
10
7.6626
20
-0.766732
11
7.66329
21
-0.767021
0
LINE
8
BLACK
6
CONTINUOUS
10
7.66329
20
-0.767021
11
7.66358
21
-0.767717
0
LINE
8
BLACK
6
CONTINUOUS
10
7.66358
20
-0.767717
11
7.66358
21
-5.1874
0
LINE
8
BLACK
6
CONTINUOUS
10
7.66358
20
-5.1874
11
7.66329
21
-5.1881
0
LINE
8
BLACK
6
CONTINUOUS
10
7.66329
20
-5.1881
11
7.6626
21
-5.18839
0
LINE
8
BLACK
6
CONTINUOUS
10
7.6626
20
-5.18839
11
0.605118
21
-5.18839
0
LINE
8
BLACK
6
CONTINUOUS
10
0.605118
20
-5.18839
11
0.604422
21
-5.1881
0
LINE
8
BLACK
6
CONTINUOUS
10
0.604422
20
-5.1881
11
0.604134
21
-5.1874
0
LINE
8
BLACK
6
CONTINUOUS
10
0.604134
20
-5.1874
11
0.604134
21
-0.767717
0
LINE
8
BLACK
6
CONTINUOUS
10
0.604134
20
-0.767717
11
0.604422
21
-0.767021
0
LINE
8
BLACK
6
CONTINUOUS
10
0.604422
20
-0.767021
11
0.605118
21
-0.766732
0
LINE
8
BLACK
6
CONTINUOUS
10
0.605118
20
-0.766732
11
7.6626
21
-0.766732
0
LINE
8
BLACK
6
CONTINUOUS
10
0.606102
20
-0.768701
11
0.606102
21
-5.18642
0
LINE
8
BLACK
6
CONTINUOUS
10
0.606102
20
-5.18642
11
7.66161
21
-5.18642
0
LINE
8
BLACK
6
CONTINUOUS
10
7.66161
20
-5.18642
11
7.66161
21
-0.768701
0
LINE
8
BLACK
6
CONTINUOUS
10
7.66161
20
-0.768701
11
0.606102
21
-0.768701
  0
ENDSEC
  0
EOF
