  0
SECTION
  2
HEADER
  9
$ANGBASE
  50
0.0
  9
$ANGDIR
  70
1
  9
$MEASUREMENT
  70
0
  0
ENDSEC
  0
SECTION
  2
TABLES
  0
TABLE
  2
LTYPE
  70
4
  0
LTYPE
  5
40F
  2
CONTINUOUS
  70
0
  3
Solid line
  72
65
  73
0
  40
0.0
  0
LTYPE
  5
410
  2
DASHDOT
 70
0
  3
Dash Dot ____ _ ____ _
 72
65
 73
4
 40
2.0
 49
1.25
 49
-0.25
 49
0.25
 49
-0.25
  0
LTYPE
  5
411
  2
DASHED
 70
0
  3
Dashed __ __ __ __ __
 72
65
 73
2
 40
0.75
 49
0.5
 49
-0.25
  0
LTYPE
  5
43B
  2
DOTTED
 70
0
  3
Dotted .  .  .  .
 72
65
 73
2
 40
0.2
 49
0.0
 49
-0.2
  0
ENDTAB
  0
TABLE
  2
STYLE
  70
4
  0
STYLE
  2
KICAD
  70
0
  40
0
  41
1
  42
1
  50
0
  71
0
  3
isocp.shx
  0
STYLE
  2
KICADB
  70
0
  40
0
  41
1
  42
1
  50
0
  71
0
  3
isocp.shx
  0
STYLE
  2
KICADI
  70
0
  40
0
  41
1
  42
1
  50
15
  71
0
  3
isocp.shx
  0
STYLE
  2
KICADBI
  70
0
  40
0
  41
1
  42
1
  50
15
  71
0
  3
isocp.shx
  0
ENDTAB
  0
TABLE
  2
LAYER
  70
1
  0
LAYER
  2
BLACK
  70
0
  62
7
  6
CONTINUOUS
  0
ENDTAB
  0
ENDSEC
  0
SECTION
  2
ENTITIES
0
LINE
8
BLACK
6
CONTINUOUS
10
1.27953
20
-4.97933
11
1.28022
21
-4.97962
0
LINE
8
BLACK
6
CONTINUOUS
10
1.28022
20
-4.97962
11
1.28051
21
-4.98031
0
LINE
8
BLACK
6
CONTINUOUS
10
1.28051
20
-4.98031
11
1.28051
21
-5.17717
0
LINE
8
BLACK
6
CONTINUOUS
10
1.28051
20
-5.17717
11
1.28022
21
-5.17786
0
LINE
8
BLACK
6
CONTINUOUS
10
1.28022
20
-5.17786
11
1.27953
21
-5.17815
0
LINE
8
BLACK
6
CONTINUOUS
10
1.27953
20
-5.17815
11
1.08268
21
-5.17815
0
LINE
8
BLACK
6
CONTINUOUS
10
1.08268
20
-5.17815
11
1.08198
21
-5.17786
0
LINE
8
BLACK
6
CONTINUOUS
10
1.08198
20
-5.17786
11
1.08169
21
-5.17717
0
LINE
8
BLACK
6
CONTINUOUS
10
1.08169
20
-5.17717
11
1.08169
21
-4.98031
0
LINE
8
BLACK
6
CONTINUOUS
10
1.08169
20
-4.98031
11
1.08198
21
-4.97962
0
LINE
8
BLACK
6
CONTINUOUS
10
1.08198
20
-4.97962
11
1.08268
21
-4.97933
0
LINE
8
BLACK
6
CONTINUOUS
10
1.08268
20
-4.97933
11
1.27953
21
-4.97933
0
LINE
8
BLACK
6
CONTINUOUS
10
1.08366
20
-4.9813
11
1.08366
21
-5.17618
0
LINE
8
BLACK
6
CONTINUOUS
10
1.08366
20
-5.17618
11
1.27854
21
-5.17618
0
LINE
8
BLACK
6
CONTINUOUS
10
1.27854
20
-5.17618
11
1.27854
21
-4.9813
0
LINE
8
BLACK
6
CONTINUOUS
10
1.27854
20
-4.9813
11
1.08366
21
-4.9813
0
LINE
8
BLACK
6
CONTINUOUS
10
7.18504
20
-4.97933
11
7.18574
21
-4.97962
0
LINE
8
BLACK
6
CONTINUOUS
10
7.18574
20
-4.97962
11
7.18602
21
-4.98031
0
LINE
8
BLACK
6
CONTINUOUS
10
7.18602
20
-4.98031
11
7.18602
21
-5.17717
0
LINE
8
BLACK
6
CONTINUOUS
10
7.18602
20
-5.17717
11
7.18574
21
-5.17786
0
LINE
8
BLACK
6
CONTINUOUS
10
7.18574
20
-5.17786
11
7.18504
21
-5.17815
0
LINE
8
BLACK
6
CONTINUOUS
10
7.18504
20
-5.17815
11
6.98819
21
-5.17815
0
LINE
8
BLACK
6
CONTINUOUS
10
6.98819
20
-5.17815
11
6.98749
21
-5.17786
0
LINE
8
BLACK
6
CONTINUOUS
10
6.98749
20
-5.17786
11
6.9872
21
-5.17717
0
LINE
8
BLACK
6
CONTINUOUS
10
6.9872
20
-5.17717
11
6.9872
21
-4.98031
0
LINE
8
BLACK
6
CONTINUOUS
10
6.9872
20
-4.98031
11
6.98749
21
-4.97962
0
LINE
8
BLACK
6
CONTINUOUS
10
6.98749
20
-4.97962
11
6.98819
21
-4.97933
0
LINE
8
BLACK
6
CONTINUOUS
10
6.98819
20
-4.97933
11
7.18504
21
-4.97933
0
LINE
8
BLACK
6
CONTINUOUS
10
6.98917
20
-4.9813
11
6.98917
21
-5.17618
0
LINE
8
BLACK
6
CONTINUOUS
10
6.98917
20
-5.17618
11
7.18406
21
-5.17618
0
LINE
8
BLACK
6
CONTINUOUS
10
7.18406
20
-5.17618
11
7.18406
21
-4.9813
0
LINE
8
BLACK
6
CONTINUOUS
10
7.18406
20
-4.9813
11
6.98917
21
-4.9813
0
LINE
8
BLACK
6
CONTINUOUS
10
1.19532
20
-4.55887
11
1.20936
21
-4.56125
0
LINE
8
BLACK
6
CONTINUOUS
10
1.20936
20
-4.56125
11
1.22304
21
-4.5652
0
LINE
8
BLACK
6
CONTINUOUS
10
1.22304
20
-4.5652
11
1.23619
21
-4.57064
0
LINE
8
BLACK
6
CONTINUOUS
10
1.23619
20
-4.57064
11
1.24865
21
-4.57753
0
LINE
8
BLACK
6
CONTINUOUS
10
1.24865
20
-4.57753
11
1.26027
21
-4.58577
0
LINE
8
BLACK
6
CONTINUOUS
10
1.26027
20
-4.58577
11
1.27088
21
-4.59526
0
LINE
8
BLACK
6
CONTINUOUS
10
1.27088
20
-4.59526
11
1.28037
21
-4.60588
0
LINE
8
BLACK
6
CONTINUOUS
10
1.28037
20
-4.60588
11
1.28861
21
-4.61749
0
LINE
8
BLACK
6
CONTINUOUS
10
1.28861
20
-4.61749
11
1.2955
21
-4.62995
0
LINE
8
BLACK
6
CONTINUOUS
10
1.2955
20
-4.62995
11
1.30095
21
-4.6431
0
LINE
8
BLACK
6
CONTINUOUS
10
1.30095
20
-4.6431
11
1.30489
21
-4.65679
0
LINE
8
BLACK
6
CONTINUOUS
10
1.30489
20
-4.65679
11
1.30727
21
-4.67082
0
LINE
8
BLACK
6
CONTINUOUS
10
1.30727
20
-4.67082
11
1.30807
21
-4.68504
0
LINE
8
BLACK
6
CONTINUOUS
10
1.30807
20
-4.68504
11
1.30727
21
-4.69926
0
LINE
8
BLACK
6
CONTINUOUS
10
1.30727
20
-4.69926
11
1.30489
21
-4.71329
0
LINE
8
BLACK
6
CONTINUOUS
10
1.30489
20
-4.71329
11
1.30095
21
-4.72697
0
LINE
8
BLACK
6
CONTINUOUS
10
1.30095
20
-4.72697
11
1.2955
21
-4.74013
0
LINE
8
BLACK
6
CONTINUOUS
10
1.2955
20
-4.74013
11
1.28861
21
-4.75259
0
LINE
8
BLACK
6
CONTINUOUS
10
1.28861
20
-4.75259
11
1.28037
21
-4.7642
0
LINE
8
BLACK
6
CONTINUOUS
10
1.28037
20
-4.7642
11
1.27088
21
-4.77482
0
LINE
8
BLACK
6
CONTINUOUS
10
1.27088
20
-4.77482
11
1.26027
21
-4.78431
0
LINE
8
BLACK
6
CONTINUOUS
10
1.26027
20
-4.78431
11
1.24865
21
-4.79255
0
LINE
8
BLACK
6
CONTINUOUS
10
1.24865
20
-4.79255
11
1.23619
21
-4.79943
0
LINE
8
BLACK
6
CONTINUOUS
10
1.23619
20
-4.79943
11
1.22304
21
-4.80488
0
LINE
8
BLACK
6
CONTINUOUS
10
1.22304
20
-4.80488
11
1.20936
21
-4.80882
0
LINE
8
BLACK
6
CONTINUOUS
10
1.20936
20
-4.80882
11
1.19532
21
-4.81121
0
LINE
8
BLACK
6
CONTINUOUS
10
1.19532
20
-4.81121
11
1.1811
21
-4.81201
0
LINE
8
BLACK
6
CONTINUOUS
10
1.1811
20
-4.81201
11
1.16689
21
-4.81121
0
LINE
8
BLACK
6
CONTINUOUS
10
1.16689
20
-4.81121
11
1.15285
21
-4.80882
0
LINE
8
BLACK
6
CONTINUOUS
10
1.15285
20
-4.80882
11
1.13917
21
-4.80488
0
LINE
8
BLACK
6
CONTINUOUS
10
1.13917
20
-4.80488
11
1.12601
21
-4.79943
0
LINE
8
BLACK
6
CONTINUOUS
10
1.12601
20
-4.79943
11
1.11355
21
-4.79255
0
LINE
8
BLACK
6
CONTINUOUS
10
1.11355
20
-4.79255
11
1.10194
21
-4.78431
0
LINE
8
BLACK
6
CONTINUOUS
10
1.10194
20
-4.78431
11
1.09132
21
-4.77482
0
LINE
8
BLACK
6
CONTINUOUS
10
1.09132
20
-4.77482
11
1.08183
21
-4.7642
0
LINE
8
BLACK
6
CONTINUOUS
10
1.08183
20
-4.7642
11
1.0736
21
-4.75259
0
LINE
8
BLACK
6
CONTINUOUS
10
1.0736
20
-4.75259
11
1.06671
21
-4.74013
0
LINE
8
BLACK
6
CONTINUOUS
10
1.06671
20
-4.74013
11
1.06126
21
-4.72697
0
LINE
8
BLACK
6
CONTINUOUS
10
1.06126
20
-4.72697
11
1.05732
21
-4.71329
0
LINE
8
BLACK
6
CONTINUOUS
10
1.05732
20
-4.71329
11
1.05493
21
-4.69926
0
LINE
8
BLACK
6
CONTINUOUS
10
1.05493
20
-4.69926
11
1.05413
21
-4.68504
0
LINE
8
BLACK
6
CONTINUOUS
10
1.05413
20
-4.68504
11
1.05493
21
-4.67082
0
LINE
8
BLACK
6
CONTINUOUS
10
1.05493
20
-4.67082
11
1.05732
21
-4.65679
0
LINE
8
BLACK
6
CONTINUOUS
10
1.05732
20
-4.65679
11
1.06126
21
-4.6431
0
LINE
8
BLACK
6
CONTINUOUS
10
1.06126
20
-4.6431
11
1.06671
21
-4.62995
0
LINE
8
BLACK
6
CONTINUOUS
10
1.06671
20
-4.62995
11
1.0736
21
-4.61749
0
LINE
8
BLACK
6
CONTINUOUS
10
1.0736
20
-4.61749
11
1.08183
21
-4.60588
0
LINE
8
BLACK
6
CONTINUOUS
10
1.08183
20
-4.60588
11
1.09132
21
-4.59526
0
LINE
8
BLACK
6
CONTINUOUS
10
1.09132
20
-4.59526
11
1.10194
21
-4.58577
0
LINE
8
BLACK
6
CONTINUOUS
10
1.10194
20
-4.58577
11
1.11355
21
-4.57753
0
LINE
8
BLACK
6
CONTINUOUS
10
1.11355
20
-4.57753
11
1.12601
21
-4.57064
0
LINE
8
BLACK
6
CONTINUOUS
10
1.12601
20
-4.57064
11
1.13917
21
-4.5652
0
LINE
8
BLACK
6
CONTINUOUS
10
1.13917
20
-4.5652
11
1.15285
21
-4.56125
0
LINE
8
BLACK
6
CONTINUOUS
10
1.15285
20
-4.56125
11
1.16689
21
-4.55887
0
LINE
8
BLACK
6
CONTINUOUS
10
1.16689
20
-4.55887
11
1.1811
21
-4.55807
0
LINE
8
BLACK
6
CONTINUOUS
10
1.1811
20
-4.55807
11
1.19532
21
-4.55887
0
LINE
8
BLACK
6
CONTINUOUS
10
1.05669
20
-4.69906
11
1.05904
21
-4.7129
0
LINE
8
BLACK
6
CONTINUOUS
10
1.05904
20
-4.7129
11
1.06293
21
-4.72639
0
LINE
8
BLACK
6
CONTINUOUS
10
1.06293
20
-4.72639
11
1.0683
21
-4.73936
0
LINE
8
BLACK
6
CONTINUOUS
10
1.0683
20
-4.73936
11
1.0751
21
-4.75165
0
LINE
8
BLACK
6
CONTINUOUS
10
1.0751
20
-4.75165
11
1.08322
21
-4.7631
0
LINE
8
BLACK
6
CONTINUOUS
10
1.08322
20
-4.7631
11
1.09257
21
-4.77357
0
LINE
8
BLACK
6
CONTINUOUS
10
1.09257
20
-4.77357
11
1.10304
21
-4.78292
0
LINE
8
BLACK
6
CONTINUOUS
10
1.10304
20
-4.78292
11
1.11449
21
-4.79105
0
LINE
8
BLACK
6
CONTINUOUS
10
1.11449
20
-4.79105
11
1.12678
21
-4.79784
0
LINE
8
BLACK
6
CONTINUOUS
10
1.12678
20
-4.79784
11
1.13975
21
-4.80321
0
LINE
8
BLACK
6
CONTINUOUS
10
1.13975
20
-4.80321
11
1.15324
21
-4.8071
0
LINE
8
BLACK
6
CONTINUOUS
10
1.15324
20
-4.8071
11
1.16708
21
-4.80945
0
LINE
8
BLACK
6
CONTINUOUS
10
1.16708
20
-4.80945
11
1.1811
21
-4.81024
0
LINE
8
BLACK
6
CONTINUOUS
10
1.1811
20
-4.81024
11
1.19512
21
-4.80945
0
LINE
8
BLACK
6
CONTINUOUS
10
1.19512
20
-4.80945
11
1.20896
21
-4.8071
0
LINE
8
BLACK
6
CONTINUOUS
10
1.20896
20
-4.8071
11
1.22245
21
-4.80321
0
LINE
8
BLACK
6
CONTINUOUS
10
1.22245
20
-4.80321
11
1.23542
21
-4.79784
0
LINE
8
BLACK
6
CONTINUOUS
10
1.23542
20
-4.79784
11
1.24771
21
-4.79105
0
LINE
8
BLACK
6
CONTINUOUS
10
1.24771
20
-4.79105
11
1.25916
21
-4.78292
0
LINE
8
BLACK
6
CONTINUOUS
10
1.25916
20
-4.78292
11
1.26963
21
-4.77357
0
LINE
8
BLACK
6
CONTINUOUS
10
1.26963
20
-4.77357
11
1.27899
21
-4.7631
0
LINE
8
BLACK
6
CONTINUOUS
10
1.27899
20
-4.7631
11
1.28711
21
-4.75165
0
LINE
8
BLACK
6
CONTINUOUS
10
1.28711
20
-4.75165
11
1.2939
21
-4.73936
0
LINE
8
BLACK
6
CONTINUOUS
10
1.2939
20
-4.73936
11
1.29927
21
-4.72639
0
LINE
8
BLACK
6
CONTINUOUS
10
1.29927
20
-4.72639
11
1.30316
21
-4.7129
0
LINE
8
BLACK
6
CONTINUOUS
10
1.30316
20
-4.7129
11
1.30551
21
-4.69906
0
LINE
8
BLACK
6
CONTINUOUS
10
1.30551
20
-4.69906
11
1.3063
21
-4.68504
0
LINE
8
BLACK
6
CONTINUOUS
10
1.3063
20
-4.68504
11
1.30551
21
-4.67102
0
LINE
8
BLACK
6
CONTINUOUS
10
1.30551
20
-4.67102
11
1.30316
21
-4.65718
0
LINE
8
BLACK
6
CONTINUOUS
10
1.30316
20
-4.65718
11
1.29927
21
-4.64369
0
LINE
8
BLACK
6
CONTINUOUS
10
1.29927
20
-4.64369
11
1.2939
21
-4.63072
0
LINE
8
BLACK
6
CONTINUOUS
10
1.2939
20
-4.63072
11
1.28711
21
-4.61843
0
LINE
8
BLACK
6
CONTINUOUS
10
1.28711
20
-4.61843
11
1.27899
21
-4.60698
0
LINE
8
BLACK
6
CONTINUOUS
10
1.27899
20
-4.60698
11
1.26963
21
-4.59651
0
LINE
8
BLACK
6
CONTINUOUS
10
1.26963
20
-4.59651
11
1.25916
21
-4.58716
0
LINE
8
BLACK
6
CONTINUOUS
10
1.25916
20
-4.58716
11
1.24771
21
-4.57903
0
LINE
8
BLACK
6
CONTINUOUS
10
1.24771
20
-4.57903
11
1.23542
21
-4.57224
0
LINE
8
BLACK
6
CONTINUOUS
10
1.23542
20
-4.57224
11
1.22245
21
-4.56687
0
LINE
8
BLACK
6
CONTINUOUS
10
1.22245
20
-4.56687
11
1.20896
21
-4.56298
0
LINE
8
BLACK
6
CONTINUOUS
10
1.20896
20
-4.56298
11
1.19512
21
-4.56063
0
LINE
8
BLACK
6
CONTINUOUS
10
1.19512
20
-4.56063
11
1.1811
21
-4.55984
0
LINE
8
BLACK
6
CONTINUOUS
10
1.1811
20
-4.55984
11
1.16708
21
-4.56063
0
LINE
8
BLACK
6
CONTINUOUS
10
1.16708
20
-4.56063
11
1.15324
21
-4.56298
0
LINE
8
BLACK
6
CONTINUOUS
10
1.15324
20
-4.56298
11
1.13975
21
-4.56687
0
LINE
8
BLACK
6
CONTINUOUS
10
1.13975
20
-4.56687
11
1.12678
21
-4.57224
0
LINE
8
BLACK
6
CONTINUOUS
10
1.12678
20
-4.57224
11
1.11449
21
-4.57903
0
LINE
8
BLACK
6
CONTINUOUS
10
1.11449
20
-4.57903
11
1.10304
21
-4.58716
0
LINE
8
BLACK
6
CONTINUOUS
10
1.10304
20
-4.58716
11
1.09257
21
-4.59651
0
LINE
8
BLACK
6
CONTINUOUS
10
1.09257
20
-4.59651
11
1.08322
21
-4.60698
0
LINE
8
BLACK
6
CONTINUOUS
10
1.08322
20
-4.60698
11
1.0751
21
-4.61843
0
LINE
8
BLACK
6
CONTINUOUS
10
1.0751
20
-4.61843
11
1.0683
21
-4.63072
0
LINE
8
BLACK
6
CONTINUOUS
10
1.0683
20
-4.63072
11
1.06293
21
-4.64369
0
LINE
8
BLACK
6
CONTINUOUS
10
1.06293
20
-4.64369
11
1.05904
21
-4.65718
0
LINE
8
BLACK
6
CONTINUOUS
10
1.05904
20
-4.65718
11
1.05669
21
-4.67102
0
LINE
8
BLACK
6
CONTINUOUS
10
1.05669
20
-4.67102
11
1.05591
21
-4.68504
0
LINE
8
BLACK
6
CONTINUOUS
10
1.05591
20
-4.68504
11
1.05669
21
-4.69906
0
LINE
8
BLACK
6
CONTINUOUS
10
1.19532
20
-2.51163
11
1.20936
21
-2.51401
0
LINE
8
BLACK
6
CONTINUOUS
10
1.20936
20
-2.51401
11
1.22304
21
-2.51795
0
LINE
8
BLACK
6
CONTINUOUS
10
1.22304
20
-2.51795
11
1.23619
21
-2.5234
0
LINE
8
BLACK
6
CONTINUOUS
10
1.23619
20
-2.5234
11
1.24865
21
-2.53029
0
LINE
8
BLACK
6
CONTINUOUS
10
1.24865
20
-2.53029
11
1.26027
21
-2.53853
0
LINE
8
BLACK
6
CONTINUOUS
10
1.26027
20
-2.53853
11
1.27088
21
-2.54801
0
LINE
8
BLACK
6
CONTINUOUS
10
1.27088
20
-2.54801
11
1.28037
21
-2.55863
0
LINE
8
BLACK
6
CONTINUOUS
10
1.28037
20
-2.55863
11
1.28861
21
-2.57024
0
LINE
8
BLACK
6
CONTINUOUS
10
1.28861
20
-2.57024
11
1.2955
21
-2.58271
0
LINE
8
BLACK
6
CONTINUOUS
10
1.2955
20
-2.58271
11
1.30095
21
-2.59586
0
LINE
8
BLACK
6
CONTINUOUS
10
1.30095
20
-2.59586
11
1.30489
21
-2.60954
0
LINE
8
BLACK
6
CONTINUOUS
10
1.30489
20
-2.60954
11
1.30727
21
-2.62358
0
LINE
8
BLACK
6
CONTINUOUS
10
1.30727
20
-2.62358
11
1.30807
21
-2.6378
0
LINE
8
BLACK
6
CONTINUOUS
10
1.30807
20
-2.6378
11
1.30727
21
-2.65201
0
LINE
8
BLACK
6
CONTINUOUS
10
1.30727
20
-2.65201
11
1.30489
21
-2.66605
0
LINE
8
BLACK
6
CONTINUOUS
10
1.30489
20
-2.66605
11
1.30095
21
-2.67973
0
LINE
8
BLACK
6
CONTINUOUS
10
1.30095
20
-2.67973
11
1.2955
21
-2.69288
0
LINE
8
BLACK
6
CONTINUOUS
10
1.2955
20
-2.69288
11
1.28861
21
-2.70535
0
LINE
8
BLACK
6
CONTINUOUS
10
1.28861
20
-2.70535
11
1.28037
21
-2.71696
0
LINE
8
BLACK
6
CONTINUOUS
10
1.28037
20
-2.71696
11
1.27088
21
-2.72758
0
LINE
8
BLACK
6
CONTINUOUS
10
1.27088
20
-2.72758
11
1.26027
21
-2.73706
0
LINE
8
BLACK
6
CONTINUOUS
10
1.26027
20
-2.73706
11
1.24865
21
-2.7453
0
LINE
8
BLACK
6
CONTINUOUS
10
1.24865
20
-2.7453
11
1.23619
21
-2.75219
0
LINE
8
BLACK
6
CONTINUOUS
10
1.23619
20
-2.75219
11
1.22304
21
-2.75764
0
LINE
8
BLACK
6
CONTINUOUS
10
1.22304
20
-2.75764
11
1.20936
21
-2.76158
0
LINE
8
BLACK
6
CONTINUOUS
10
1.20936
20
-2.76158
11
1.19532
21
-2.76397
0
LINE
8
BLACK
6
CONTINUOUS
10
1.19532
20
-2.76397
11
1.1811
21
-2.76476
0
LINE
8
BLACK
6
CONTINUOUS
10
1.1811
20
-2.76476
11
1.16689
21
-2.76397
0
LINE
8
BLACK
6
CONTINUOUS
10
1.16689
20
-2.76397
11
1.15285
21
-2.76158
0
LINE
8
BLACK
6
CONTINUOUS
10
1.15285
20
-2.76158
11
1.13917
21
-2.75764
0
LINE
8
BLACK
6
CONTINUOUS
10
1.13917
20
-2.75764
11
1.12601
21
-2.75219
0
LINE
8
BLACK
6
CONTINUOUS
10
1.12601
20
-2.75219
11
1.11355
21
-2.7453
0
LINE
8
BLACK
6
CONTINUOUS
10
1.11355
20
-2.7453
11
1.10194
21
-2.73706
0
LINE
8
BLACK
6
CONTINUOUS
10
1.10194
20
-2.73706
11
1.09132
21
-2.72758
0
LINE
8
BLACK
6
CONTINUOUS
10
1.09132
20
-2.72758
11
1.08183
21
-2.71696
0
LINE
8
BLACK
6
CONTINUOUS
10
1.08183
20
-2.71696
11
1.0736
21
-2.70535
0
LINE
8
BLACK
6
CONTINUOUS
10
1.0736
20
-2.70535
11
1.06671
21
-2.69288
0
LINE
8
BLACK
6
CONTINUOUS
10
1.06671
20
-2.69288
11
1.06126
21
-2.67973
0
LINE
8
BLACK
6
CONTINUOUS
10
1.06126
20
-2.67973
11
1.05732
21
-2.66605
0
LINE
8
BLACK
6
CONTINUOUS
10
1.05732
20
-2.66605
11
1.05493
21
-2.65201
0
LINE
8
BLACK
6
CONTINUOUS
10
1.05493
20
-2.65201
11
1.05413
21
-2.6378
0
LINE
8
BLACK
6
CONTINUOUS
10
1.05413
20
-2.6378
11
1.05493
21
-2.62358
0
LINE
8
BLACK
6
CONTINUOUS
10
1.05493
20
-2.62358
11
1.05732
21
-2.60954
0
LINE
8
BLACK
6
CONTINUOUS
10
1.05732
20
-2.60954
11
1.06126
21
-2.59586
0
LINE
8
BLACK
6
CONTINUOUS
10
1.06126
20
-2.59586
11
1.06671
21
-2.58271
0
LINE
8
BLACK
6
CONTINUOUS
10
1.06671
20
-2.58271
11
1.0736
21
-2.57024
0
LINE
8
BLACK
6
CONTINUOUS
10
1.0736
20
-2.57024
11
1.08183
21
-2.55863
0
LINE
8
BLACK
6
CONTINUOUS
10
1.08183
20
-2.55863
11
1.09132
21
-2.54801
0
LINE
8
BLACK
6
CONTINUOUS
10
1.09132
20
-2.54801
11
1.10194
21
-2.53853
0
LINE
8
BLACK
6
CONTINUOUS
10
1.10194
20
-2.53853
11
1.11355
21
-2.53029
0
LINE
8
BLACK
6
CONTINUOUS
10
1.11355
20
-2.53029
11
1.12601
21
-2.5234
0
LINE
8
BLACK
6
CONTINUOUS
10
1.12601
20
-2.5234
11
1.13917
21
-2.51795
0
LINE
8
BLACK
6
CONTINUOUS
10
1.13917
20
-2.51795
11
1.15285
21
-2.51401
0
LINE
8
BLACK
6
CONTINUOUS
10
1.15285
20
-2.51401
11
1.16689
21
-2.51163
0
LINE
8
BLACK
6
CONTINUOUS
10
1.16689
20
-2.51163
11
1.1811
21
-2.51083
0
LINE
8
BLACK
6
CONTINUOUS
10
1.1811
20
-2.51083
11
1.19532
21
-2.51163
0
LINE
8
BLACK
6
CONTINUOUS
10
1.05669
20
-2.65181
11
1.05904
21
-2.66565
0
LINE
8
BLACK
6
CONTINUOUS
10
1.05904
20
-2.66565
11
1.06293
21
-2.67915
0
LINE
8
BLACK
6
CONTINUOUS
10
1.06293
20
-2.67915
11
1.0683
21
-2.69212
0
LINE
8
BLACK
6
CONTINUOUS
10
1.0683
20
-2.69212
11
1.0751
21
-2.7044
0
LINE
8
BLACK
6
CONTINUOUS
10
1.0751
20
-2.7044
11
1.08322
21
-2.71585
0
LINE
8
BLACK
6
CONTINUOUS
10
1.08322
20
-2.71585
11
1.09257
21
-2.72632
0
LINE
8
BLACK
6
CONTINUOUS
10
1.09257
20
-2.72632
11
1.10304
21
-2.73568
0
LINE
8
BLACK
6
CONTINUOUS
10
1.10304
20
-2.73568
11
1.11449
21
-2.7438
0
LINE
8
BLACK
6
CONTINUOUS
10
1.11449
20
-2.7438
11
1.12678
21
-2.75059
0
LINE
8
BLACK
6
CONTINUOUS
10
1.12678
20
-2.75059
11
1.13975
21
-2.75597
0
LINE
8
BLACK
6
CONTINUOUS
10
1.13975
20
-2.75597
11
1.15324
21
-2.75985
0
LINE
8
BLACK
6
CONTINUOUS
10
1.15324
20
-2.75985
11
1.16708
21
-2.76221
0
LINE
8
BLACK
6
CONTINUOUS
10
1.16708
20
-2.76221
11
1.1811
21
-2.76299
0
LINE
8
BLACK
6
CONTINUOUS
10
1.1811
20
-2.76299
11
1.19512
21
-2.76221
0
LINE
8
BLACK
6
CONTINUOUS
10
1.19512
20
-2.76221
11
1.20896
21
-2.75985
0
LINE
8
BLACK
6
CONTINUOUS
10
1.20896
20
-2.75985
11
1.22245
21
-2.75597
0
LINE
8
BLACK
6
CONTINUOUS
10
1.22245
20
-2.75597
11
1.23542
21
-2.75059
0
LINE
8
BLACK
6
CONTINUOUS
10
1.23542
20
-2.75059
11
1.24771
21
-2.7438
0
LINE
8
BLACK
6
CONTINUOUS
10
1.24771
20
-2.7438
11
1.25916
21
-2.73568
0
LINE
8
BLACK
6
CONTINUOUS
10
1.25916
20
-2.73568
11
1.26963
21
-2.72632
0
LINE
8
BLACK
6
CONTINUOUS
10
1.26963
20
-2.72632
11
1.27899
21
-2.71585
0
LINE
8
BLACK
6
CONTINUOUS
10
1.27899
20
-2.71585
11
1.28711
21
-2.7044
0
LINE
8
BLACK
6
CONTINUOUS
10
1.28711
20
-2.7044
11
1.2939
21
-2.69212
0
LINE
8
BLACK
6
CONTINUOUS
10
1.2939
20
-2.69212
11
1.29927
21
-2.67915
0
LINE
8
BLACK
6
CONTINUOUS
10
1.29927
20
-2.67915
11
1.30316
21
-2.66565
0
LINE
8
BLACK
6
CONTINUOUS
10
1.30316
20
-2.66565
11
1.30551
21
-2.65181
0
LINE
8
BLACK
6
CONTINUOUS
10
1.30551
20
-2.65181
11
1.3063
21
-2.6378
0
LINE
8
BLACK
6
CONTINUOUS
10
1.3063
20
-2.6378
11
1.30551
21
-2.62378
0
LINE
8
BLACK
6
CONTINUOUS
10
1.30551
20
-2.62378
11
1.30316
21
-2.60994
0
LINE
8
BLACK
6
CONTINUOUS
10
1.30316
20
-2.60994
11
1.29927
21
-2.59645
0
LINE
8
BLACK
6
CONTINUOUS
10
1.29927
20
-2.59645
11
1.2939
21
-2.58347
0
LINE
8
BLACK
6
CONTINUOUS
10
1.2939
20
-2.58347
11
1.28711
21
-2.57119
0
LINE
8
BLACK
6
CONTINUOUS
10
1.28711
20
-2.57119
11
1.27899
21
-2.55974
0
LINE
8
BLACK
6
CONTINUOUS
10
1.27899
20
-2.55974
11
1.26963
21
-2.54927
0
LINE
8
BLACK
6
CONTINUOUS
10
1.26963
20
-2.54927
11
1.25916
21
-2.53991
0
LINE
8
BLACK
6
CONTINUOUS
10
1.25916
20
-2.53991
11
1.24771
21
-2.53179
0
LINE
8
BLACK
6
CONTINUOUS
10
1.24771
20
-2.53179
11
1.23542
21
-2.525
0
LINE
8
BLACK
6
CONTINUOUS
10
1.23542
20
-2.525
11
1.22245
21
-2.51962
0
LINE
8
BLACK
6
CONTINUOUS
10
1.22245
20
-2.51962
11
1.20896
21
-2.51574
0
LINE
8
BLACK
6
CONTINUOUS
10
1.20896
20
-2.51574
11
1.19512
21
-2.51339
0
LINE
8
BLACK
6
CONTINUOUS
10
1.19512
20
-2.51339
11
1.1811
21
-2.5126
0
LINE
8
BLACK
6
CONTINUOUS
10
1.1811
20
-2.5126
11
1.16708
21
-2.51339
0
LINE
8
BLACK
6
CONTINUOUS
10
1.16708
20
-2.51339
11
1.15324
21
-2.51574
0
LINE
8
BLACK
6
CONTINUOUS
10
1.15324
20
-2.51574
11
1.13975
21
-2.51962
0
LINE
8
BLACK
6
CONTINUOUS
10
1.13975
20
-2.51962
11
1.12678
21
-2.525
0
LINE
8
BLACK
6
CONTINUOUS
10
1.12678
20
-2.525
11
1.11449
21
-2.53179
0
LINE
8
BLACK
6
CONTINUOUS
10
1.11449
20
-2.53179
11
1.10304
21
-2.53991
0
LINE
8
BLACK
6
CONTINUOUS
10
1.10304
20
-2.53991
11
1.09257
21
-2.54927
0
LINE
8
BLACK
6
CONTINUOUS
10
1.09257
20
-2.54927
11
1.08322
21
-2.55974
0
LINE
8
BLACK
6
CONTINUOUS
10
1.08322
20
-2.55974
11
1.0751
21
-2.57119
0
LINE
8
BLACK
6
CONTINUOUS
10
1.0751
20
-2.57119
11
1.0683
21
-2.58347
0
LINE
8
BLACK
6
CONTINUOUS
10
1.0683
20
-2.58347
11
1.06293
21
-2.59645
0
LINE
8
BLACK
6
CONTINUOUS
10
1.06293
20
-2.59645
11
1.05904
21
-2.60994
0
LINE
8
BLACK
6
CONTINUOUS
10
1.05904
20
-2.60994
11
1.05669
21
-2.62378
0
LINE
8
BLACK
6
CONTINUOUS
10
1.05669
20
-2.62378
11
1.05591
21
-2.6378
0
LINE
8
BLACK
6
CONTINUOUS
10
1.05591
20
-2.6378
11
1.05669
21
-2.65181
0
LINE
8
BLACK
6
CONTINUOUS
10
1.49606
20
-2.39075
11
1.49676
21
-2.39104
0
LINE
8
BLACK
6
CONTINUOUS
10
1.49676
20
-2.39104
11
1.49705
21
-2.39173
0
LINE
8
BLACK
6
CONTINUOUS
10
1.49705
20
-2.39173
11
1.49705
21
-2.86398
0
LINE
8
BLACK
6
CONTINUOUS
10
1.49705
20
-2.86398
11
1.64291
21
-2.86398
0
LINE
8
BLACK
6
CONTINUOUS
10
1.64291
20
-2.86398
11
1.64361
21
-2.86426
0
LINE
8
BLACK
6
CONTINUOUS
10
1.64361
20
-2.86426
11
1.6439
21
-2.86496
0
LINE
8
BLACK
6
CONTINUOUS
10
1.6439
20
-2.86496
11
1.6439
21
-3.66024
0
LINE
8
BLACK
6
CONTINUOUS
10
1.6439
20
-3.66024
11
1.6439
21
-4.45669
0
LINE
8
BLACK
6
CONTINUOUS
10
1.6439
20
-4.45669
11
1.64361
21
-4.45739
0
LINE
8
BLACK
6
CONTINUOUS
10
1.64361
20
-4.45739
11
1.64291
21
-4.45768
0
LINE
8
BLACK
6
CONTINUOUS
10
1.64291
20
-4.45768
11
1.49705
21
-4.45768
0
LINE
8
BLACK
6
CONTINUOUS
10
1.49705
20
-4.45768
11
1.49705
21
-4.9311
0
LINE
8
BLACK
6
CONTINUOUS
10
1.49705
20
-4.9311
11
1.49676
21
-4.9318
0
LINE
8
BLACK
6
CONTINUOUS
10
1.49676
20
-4.9318
11
1.49606
21
-4.93209
0
LINE
8
BLACK
6
CONTINUOUS
10
1.49606
20
-4.93209
11
0.866142
21
-4.93209
0
LINE
8
BLACK
6
CONTINUOUS
10
0.866142
20
-4.93209
11
0.865446
21
-4.9318
0
LINE
8
BLACK
6
CONTINUOUS
10
0.865446
20
-4.9318
11
0.865157
21
-4.9311
0
LINE
8
BLACK
6
CONTINUOUS
10
0.865157
20
-4.9311
11
0.865157
21
-4.45768
0
LINE
8
BLACK
6
CONTINUOUS
10
0.865157
20
-4.45768
11
0.559055
21
-4.45768
0
LINE
8
BLACK
6
CONTINUOUS
10
0.559055
20
-4.45768
11
0.558359
21
-4.45739
0
LINE
8
BLACK
6
CONTINUOUS
10
0.558359
20
-4.45739
11
0.558071
21
-4.45669
0
LINE
8
BLACK
6
CONTINUOUS
10
0.558071
20
-4.45669
11
0.558071
21
-3.66024
0
LINE
8
BLACK
6
CONTINUOUS
10
0.558071
20
-3.66024
11
0.558071
21
-2.86496
0
LINE
8
BLACK
6
CONTINUOUS
10
0.558071
20
-2.86496
11
0.558359
21
-2.86426
0
LINE
8
BLACK
6
CONTINUOUS
10
0.558359
20
-2.86426
11
0.559055
21
-2.86398
0
LINE
8
BLACK
6
CONTINUOUS
10
0.559055
20
-2.86398
11
0.865157
21
-2.86398
0
LINE
8
BLACK
6
CONTINUOUS
10
0.865157
20
-2.86398
11
0.865157
21
-2.39173
0
LINE
8
BLACK
6
CONTINUOUS
10
0.865157
20
-2.39173
11
0.865446
21
-2.39104
0
LINE
8
BLACK
6
CONTINUOUS
10
0.865446
20
-2.39104
11
0.866142
21
-2.39075
0
LINE
8
BLACK
6
CONTINUOUS
10
0.866142
20
-2.39075
11
1.49606
21
-2.39075
0
LINE
8
BLACK
6
CONTINUOUS
10
0.867126
20
-4.45768
11
0.867126
21
-4.93012
0
LINE
8
BLACK
6
CONTINUOUS
10
0.867126
20
-4.93012
11
1.49508
21
-4.93012
0
LINE
8
BLACK
6
CONTINUOUS
10
1.49508
20
-4.93012
11
1.49508
21
-4.45768
0
LINE
8
BLACK
6
CONTINUOUS
10
1.49508
20
-4.45768
11
0.867126
21
-4.45768
0
LINE
8
BLACK
6
CONTINUOUS
10
0.560039
20
-3.6624
11
0.560039
21
-4.45571
0
LINE
8
BLACK
6
CONTINUOUS
10
0.560039
20
-4.45571
11
0.865157
21
-4.45571
0
LINE
8
BLACK
6
CONTINUOUS
10
0.865157
20
-4.45571
11
0.865157
21
-4.43898
0
LINE
8
BLACK
6
CONTINUOUS
10
0.865157
20
-4.43898
11
0.865446
21
-4.43828
0
LINE
8
BLACK
6
CONTINUOUS
10
0.865446
20
-4.43828
11
0.866142
21
-4.43799
0
LINE
8
BLACK
6
CONTINUOUS
10
0.866142
20
-4.43799
11
1.49606
21
-4.43799
0
LINE
8
BLACK
6
CONTINUOUS
10
1.49606
20
-4.43799
11
1.49676
21
-4.43828
0
LINE
8
BLACK
6
CONTINUOUS
10
1.49676
20
-4.43828
11
1.49705
21
-4.43898
0
LINE
8
BLACK
6
CONTINUOUS
10
1.49705
20
-4.43898
11
1.49705
21
-4.45571
0
LINE
8
BLACK
6
CONTINUOUS
10
1.49705
20
-4.45571
11
1.64193
21
-4.45571
0
LINE
8
BLACK
6
CONTINUOUS
10
1.64193
20
-4.45571
11
1.64193
21
-3.6624
0
LINE
8
BLACK
6
CONTINUOUS
10
1.64193
20
-3.6624
11
0.560039
21
-3.6624
0
LINE
8
BLACK
6
CONTINUOUS
10
0.867126
20
-4.43996
11
0.867126
21
-4.45571
0
LINE
8
BLACK
6
CONTINUOUS
10
0.867126
20
-4.45571
11
1.49508
21
-4.45571
0
LINE
8
BLACK
6
CONTINUOUS
10
1.49508
20
-4.45571
11
1.49508
21
-4.43996
0
LINE
8
BLACK
6
CONTINUOUS
10
1.49508
20
-4.43996
11
0.867126
21
-4.43996
0
LINE
8
BLACK
6
CONTINUOUS
10
1.49705
20
-2.86594
11
1.49705
21
-2.88386
0
LINE
8
BLACK
6
CONTINUOUS
10
1.49705
20
-2.88386
11
1.49676
21
-2.88455
0
LINE
8
BLACK
6
CONTINUOUS
10
1.49676
20
-2.88455
11
1.49606
21
-2.88484
0
LINE
8
BLACK
6
CONTINUOUS
10
1.49606
20
-2.88484
11
0.866142
21
-2.88484
0
LINE
8
BLACK
6
CONTINUOUS
10
0.866142
20
-2.88484
11
0.865446
21
-2.88455
0
LINE
8
BLACK
6
CONTINUOUS
10
0.865446
20
-2.88455
11
0.865157
21
-2.88386
0
LINE
8
BLACK
6
CONTINUOUS
10
0.865157
20
-2.88386
11
0.865157
21
-2.86594
0
LINE
8
BLACK
6
CONTINUOUS
10
0.865157
20
-2.86594
11
0.560039
21
-2.86594
0
LINE
8
BLACK
6
CONTINUOUS
10
0.560039
20
-2.86594
11
0.560039
21
-3.65925
0
LINE
8
BLACK
6
CONTINUOUS
10
0.560039
20
-3.65925
11
1.64193
21
-3.65925
0
LINE
8
BLACK
6
CONTINUOUS
10
1.64193
20
-3.65925
11
1.64193
21
-2.86594
0
LINE
8
BLACK
6
CONTINUOUS
10
1.64193
20
-2.86594
11
1.49705
21
-2.86594
0
LINE
8
BLACK
6
CONTINUOUS
10
0.867126
20
-2.86594
11
0.867126
21
-2.88287
0
LINE
8
BLACK
6
CONTINUOUS
10
0.867126
20
-2.88287
11
1.49508
21
-2.88287
0
LINE
8
BLACK
6
CONTINUOUS
10
1.49508
20
-2.88287
11
1.49508
21
-2.86594
0
LINE
8
BLACK
6
CONTINUOUS
10
1.49508
20
-2.86594
11
0.867126
21
-2.86594
0
LINE
8
BLACK
6
CONTINUOUS
10
0.867126
20
-2.39272
11
0.867126
21
-2.86398
0
LINE
8
BLACK
6
CONTINUOUS
10
0.867126
20
-2.86398
11
1.49508
21
-2.86398
0
LINE
8
BLACK
6
CONTINUOUS
10
1.49508
20
-2.86398
11
1.49508
21
-2.39272
0
LINE
8
BLACK
6
CONTINUOUS
10
1.49508
20
-2.39272
11
0.867126
21
-2.39272
0
LINE
8
BLACK
6
CONTINUOUS
10
4.14807
20
-4.55887
11
4.16211
21
-4.56125
0
LINE
8
BLACK
6
CONTINUOUS
10
4.16211
20
-4.56125
11
4.17579
21
-4.5652
0
LINE
8
BLACK
6
CONTINUOUS
10
4.17579
20
-4.5652
11
4.18895
21
-4.57064
0
LINE
8
BLACK
6
CONTINUOUS
10
4.18895
20
-4.57064
11
4.20141
21
-4.57753
0
LINE
8
BLACK
6
CONTINUOUS
10
4.20141
20
-4.57753
11
4.21302
21
-4.58577
0
LINE
8
BLACK
6
CONTINUOUS
10
4.21302
20
-4.58577
11
4.22364
21
-4.59526
0
LINE
8
BLACK
6
CONTINUOUS
10
4.22364
20
-4.59526
11
4.23313
21
-4.60588
0
LINE
8
BLACK
6
CONTINUOUS
10
4.23313
20
-4.60588
11
4.24137
21
-4.61749
0
LINE
8
BLACK
6
CONTINUOUS
10
4.24137
20
-4.61749
11
4.24825
21
-4.62995
0
LINE
8
BLACK
6
CONTINUOUS
10
4.24825
20
-4.62995
11
4.2537
21
-4.6431
0
LINE
8
BLACK
6
CONTINUOUS
10
4.2537
20
-4.6431
11
4.25764
21
-4.65679
0
LINE
8
BLACK
6
CONTINUOUS
10
4.25764
20
-4.65679
11
4.26003
21
-4.67082
0
LINE
8
BLACK
6
CONTINUOUS
10
4.26003
20
-4.67082
11
4.26083
21
-4.68504
0
LINE
8
BLACK
6
CONTINUOUS
10
4.26083
20
-4.68504
11
4.26003
21
-4.69926
0
LINE
8
BLACK
6
CONTINUOUS
10
4.26003
20
-4.69926
11
4.25764
21
-4.71329
0
LINE
8
BLACK
6
CONTINUOUS
10
4.25764
20
-4.71329
11
4.2537
21
-4.72697
0
LINE
8
BLACK
6
CONTINUOUS
10
4.2537
20
-4.72697
11
4.24825
21
-4.74013
0
LINE
8
BLACK
6
CONTINUOUS
10
4.24825
20
-4.74013
11
4.24137
21
-4.75259
0
LINE
8
BLACK
6
CONTINUOUS
10
4.24137
20
-4.75259
11
4.23313
21
-4.7642
0
LINE
8
BLACK
6
CONTINUOUS
10
4.23313
20
-4.7642
11
4.22364
21
-4.77482
0
LINE
8
BLACK
6
CONTINUOUS
10
4.22364
20
-4.77482
11
4.21302
21
-4.78431
0
LINE
8
BLACK
6
CONTINUOUS
10
4.21302
20
-4.78431
11
4.20141
21
-4.79255
0
LINE
8
BLACK
6
CONTINUOUS
10
4.20141
20
-4.79255
11
4.18895
21
-4.79943
0
LINE
8
BLACK
6
CONTINUOUS
10
4.18895
20
-4.79943
11
4.17579
21
-4.80488
0
LINE
8
BLACK
6
CONTINUOUS
10
4.17579
20
-4.80488
11
4.16211
21
-4.80882
0
LINE
8
BLACK
6
CONTINUOUS
10
4.16211
20
-4.80882
11
4.14807
21
-4.81121
0
LINE
8
BLACK
6
CONTINUOUS
10
4.14807
20
-4.81121
11
4.13386
21
-4.81201
0
LINE
8
BLACK
6
CONTINUOUS
10
4.13386
20
-4.81201
11
4.11964
21
-4.81121
0
LINE
8
BLACK
6
CONTINUOUS
10
4.11964
20
-4.81121
11
4.10561
21
-4.80882
0
LINE
8
BLACK
6
CONTINUOUS
10
4.10561
20
-4.80882
11
4.09192
21
-4.80488
0
LINE
8
BLACK
6
CONTINUOUS
10
4.09192
20
-4.80488
11
4.07877
21
-4.79943
0
LINE
8
BLACK
6
CONTINUOUS
10
4.07877
20
-4.79943
11
4.06631
21
-4.79255
0
LINE
8
BLACK
6
CONTINUOUS
10
4.06631
20
-4.79255
11
4.05469
21
-4.78431
0
LINE
8
BLACK
6
CONTINUOUS
10
4.05469
20
-4.78431
11
4.04408
21
-4.77482
0
LINE
8
BLACK
6
CONTINUOUS
10
4.04408
20
-4.77482
11
4.03459
21
-4.7642
0
LINE
8
BLACK
6
CONTINUOUS
10
4.03459
20
-4.7642
11
4.02635
21
-4.75259
0
LINE
8
BLACK
6
CONTINUOUS
10
4.02635
20
-4.75259
11
4.01946
21
-4.74013
0
LINE
8
BLACK
6
CONTINUOUS
10
4.01946
20
-4.74013
11
4.01401
21
-4.72697
0
LINE
8
BLACK
6
CONTINUOUS
10
4.01401
20
-4.72697
11
4.01007
21
-4.71329
0
LINE
8
BLACK
6
CONTINUOUS
10
4.01007
20
-4.71329
11
4.00769
21
-4.69926
0
LINE
8
BLACK
6
CONTINUOUS
10
4.00769
20
-4.69926
11
4.00689
21
-4.68504
0
LINE
8
BLACK
6
CONTINUOUS
10
4.00689
20
-4.68504
11
4.00769
21
-4.67082
0
LINE
8
BLACK
6
CONTINUOUS
10
4.00769
20
-4.67082
11
4.01007
21
-4.65679
0
LINE
8
BLACK
6
CONTINUOUS
10
4.01007
20
-4.65679
11
4.01401
21
-4.6431
0
LINE
8
BLACK
6
CONTINUOUS
10
4.01401
20
-4.6431
11
4.01946
21
-4.62995
0
LINE
8
BLACK
6
CONTINUOUS
10
4.01946
20
-4.62995
11
4.02635
21
-4.61749
0
LINE
8
BLACK
6
CONTINUOUS
10
4.02635
20
-4.61749
11
4.03459
21
-4.60588
0
LINE
8
BLACK
6
CONTINUOUS
10
4.03459
20
-4.60588
11
4.04408
21
-4.59526
0
LINE
8
BLACK
6
CONTINUOUS
10
4.04408
20
-4.59526
11
4.05469
21
-4.58577
0
LINE
8
BLACK
6
CONTINUOUS
10
4.05469
20
-4.58577
11
4.06631
21
-4.57753
0
LINE
8
BLACK
6
CONTINUOUS
10
4.06631
20
-4.57753
11
4.07877
21
-4.57064
0
LINE
8
BLACK
6
CONTINUOUS
10
4.07877
20
-4.57064
11
4.09192
21
-4.5652
0
LINE
8
BLACK
6
CONTINUOUS
10
4.09192
20
-4.5652
11
4.10561
21
-4.56125
0
LINE
8
BLACK
6
CONTINUOUS
10
4.10561
20
-4.56125
11
4.11964
21
-4.55887
0
LINE
8
BLACK
6
CONTINUOUS
10
4.11964
20
-4.55887
11
4.13386
21
-4.55807
0
LINE
8
BLACK
6
CONTINUOUS
10
4.13386
20
-4.55807
11
4.14807
21
-4.55887
0
LINE
8
BLACK
6
CONTINUOUS
10
4.00945
20
-4.69906
11
4.0118
21
-4.7129
0
LINE
8
BLACK
6
CONTINUOUS
10
4.0118
20
-4.7129
11
4.01569
21
-4.72639
0
LINE
8
BLACK
6
CONTINUOUS
10
4.01569
20
-4.72639
11
4.02106
21
-4.73936
0
LINE
8
BLACK
6
CONTINUOUS
10
4.02106
20
-4.73936
11
4.02785
21
-4.75165
0
LINE
8
BLACK
6
CONTINUOUS
10
4.02785
20
-4.75165
11
4.03598
21
-4.7631
0
LINE
8
BLACK
6
CONTINUOUS
10
4.03598
20
-4.7631
11
4.04533
21
-4.77357
0
LINE
8
BLACK
6
CONTINUOUS
10
4.04533
20
-4.77357
11
4.0558
21
-4.78292
0
LINE
8
BLACK
6
CONTINUOUS
10
4.0558
20
-4.78292
11
4.06725
21
-4.79105
0
LINE
8
BLACK
6
CONTINUOUS
10
4.06725
20
-4.79105
11
4.07954
21
-4.79784
0
LINE
8
BLACK
6
CONTINUOUS
10
4.07954
20
-4.79784
11
4.09251
21
-4.80321
0
LINE
8
BLACK
6
CONTINUOUS
10
4.09251
20
-4.80321
11
4.106
21
-4.8071
0
LINE
8
BLACK
6
CONTINUOUS
10
4.106
20
-4.8071
11
4.11984
21
-4.80945
0
LINE
8
BLACK
6
CONTINUOUS
10
4.11984
20
-4.80945
11
4.13386
21
-4.81024
0
LINE
8
BLACK
6
CONTINUOUS
10
4.13386
20
-4.81024
11
4.14788
21
-4.80945
0
LINE
8
BLACK
6
CONTINUOUS
10
4.14788
20
-4.80945
11
4.16172
21
-4.8071
0
LINE
8
BLACK
6
CONTINUOUS
10
4.16172
20
-4.8071
11
4.17521
21
-4.80321
0
LINE
8
BLACK
6
CONTINUOUS
10
4.17521
20
-4.80321
11
4.18818
21
-4.79784
0
LINE
8
BLACK
6
CONTINUOUS
10
4.18818
20
-4.79784
11
4.20047
21
-4.79105
0
LINE
8
BLACK
6
CONTINUOUS
10
4.20047
20
-4.79105
11
4.21192
21
-4.78292
0
LINE
8
BLACK
6
CONTINUOUS
10
4.21192
20
-4.78292
11
4.22239
21
-4.77357
0
LINE
8
BLACK
6
CONTINUOUS
10
4.22239
20
-4.77357
11
4.23174
21
-4.7631
0
LINE
8
BLACK
6
CONTINUOUS
10
4.23174
20
-4.7631
11
4.23987
21
-4.75165
0
LINE
8
BLACK
6
CONTINUOUS
10
4.23987
20
-4.75165
11
4.24666
21
-4.73936
0
LINE
8
BLACK
6
CONTINUOUS
10
4.24666
20
-4.73936
11
4.25203
21
-4.72639
0
LINE
8
BLACK
6
CONTINUOUS
10
4.25203
20
-4.72639
11
4.25592
21
-4.7129
0
LINE
8
BLACK
6
CONTINUOUS
10
4.25592
20
-4.7129
11
4.25827
21
-4.69906
0
LINE
8
BLACK
6
CONTINUOUS
10
4.25827
20
-4.69906
11
4.25906
21
-4.68504
0
LINE
8
BLACK
6
CONTINUOUS
10
4.25906
20
-4.68504
11
4.25827
21
-4.67102
0
LINE
8
BLACK
6
CONTINUOUS
10
4.25827
20
-4.67102
11
4.25592
21
-4.65718
0
LINE
8
BLACK
6
CONTINUOUS
10
4.25592
20
-4.65718
11
4.25203
21
-4.64369
0
LINE
8
BLACK
6
CONTINUOUS
10
4.25203
20
-4.64369
11
4.24666
21
-4.63072
0
LINE
8
BLACK
6
CONTINUOUS
10
4.24666
20
-4.63072
11
4.23987
21
-4.61843
0
LINE
8
BLACK
6
CONTINUOUS
10
4.23987
20
-4.61843
11
4.23174
21
-4.60698
0
LINE
8
BLACK
6
CONTINUOUS
10
4.23174
20
-4.60698
11
4.22239
21
-4.59651
0
LINE
8
BLACK
6
CONTINUOUS
10
4.22239
20
-4.59651
11
4.21192
21
-4.58716
0
LINE
8
BLACK
6
CONTINUOUS
10
4.21192
20
-4.58716
11
4.20047
21
-4.57903
0
LINE
8
BLACK
6
CONTINUOUS
10
4.20047
20
-4.57903
11
4.18818
21
-4.57224
0
LINE
8
BLACK
6
CONTINUOUS
10
4.18818
20
-4.57224
11
4.17521
21
-4.56687
0
LINE
8
BLACK
6
CONTINUOUS
10
4.17521
20
-4.56687
11
4.16172
21
-4.56298
0
LINE
8
BLACK
6
CONTINUOUS
10
4.16172
20
-4.56298
11
4.14788
21
-4.56063
0
LINE
8
BLACK
6
CONTINUOUS
10
4.14788
20
-4.56063
11
4.13386
21
-4.55984
0
LINE
8
BLACK
6
CONTINUOUS
10
4.13386
20
-4.55984
11
4.11984
21
-4.56063
0
LINE
8
BLACK
6
CONTINUOUS
10
4.11984
20
-4.56063
11
4.106
21
-4.56298
0
LINE
8
BLACK
6
CONTINUOUS
10
4.106
20
-4.56298
11
4.09251
21
-4.56687
0
LINE
8
BLACK
6
CONTINUOUS
10
4.09251
20
-4.56687
11
4.07954
21
-4.57224
0
LINE
8
BLACK
6
CONTINUOUS
10
4.07954
20
-4.57224
11
4.06725
21
-4.57903
0
LINE
8
BLACK
6
CONTINUOUS
10
4.06725
20
-4.57903
11
4.0558
21
-4.58716
0
LINE
8
BLACK
6
CONTINUOUS
10
4.0558
20
-4.58716
11
4.04533
21
-4.59651
0
LINE
8
BLACK
6
CONTINUOUS
10
4.04533
20
-4.59651
11
4.03598
21
-4.60698
0
LINE
8
BLACK
6
CONTINUOUS
10
4.03598
20
-4.60698
11
4.02785
21
-4.61843
0
LINE
8
BLACK
6
CONTINUOUS
10
4.02785
20
-4.61843
11
4.02106
21
-4.63072
0
LINE
8
BLACK
6
CONTINUOUS
10
4.02106
20
-4.63072
11
4.01569
21
-4.64369
0
LINE
8
BLACK
6
CONTINUOUS
10
4.01569
20
-4.64369
11
4.0118
21
-4.65718
0
LINE
8
BLACK
6
CONTINUOUS
10
4.0118
20
-4.65718
11
4.00945
21
-4.67102
0
LINE
8
BLACK
6
CONTINUOUS
10
4.00945
20
-4.67102
11
4.00866
21
-4.68504
0
LINE
8
BLACK
6
CONTINUOUS
10
4.00866
20
-4.68504
11
4.00945
21
-4.69906
0
LINE
8
BLACK
6
CONTINUOUS
10
4.44882
20
-4.43799
11
4.44951
21
-4.43828
0
LINE
8
BLACK
6
CONTINUOUS
10
4.44951
20
-4.43828
11
4.4498
21
-4.43898
0
LINE
8
BLACK
6
CONTINUOUS
10
4.4498
20
-4.43898
11
4.4498
21
-4.9311
0
LINE
8
BLACK
6
CONTINUOUS
10
4.4498
20
-4.9311
11
4.44951
21
-4.9318
0
LINE
8
BLACK
6
CONTINUOUS
10
4.44951
20
-4.9318
11
4.44882
21
-4.93209
0
LINE
8
BLACK
6
CONTINUOUS
10
4.44882
20
-4.93209
11
3.8189
21
-4.93209
0
LINE
8
BLACK
6
CONTINUOUS
10
3.8189
20
-4.93209
11
3.8182
21
-4.9318
0
LINE
8
BLACK
6
CONTINUOUS
10
3.8182
20
-4.9318
11
3.81791
21
-4.9311
0
LINE
8
BLACK
6
CONTINUOUS
10
3.81791
20
-4.9311
11
3.81791
21
-4.9311
0
LINE
8
BLACK
6
CONTINUOUS
10
3.81791
20
-4.9311
11
3.81791
21
-4.43898
0
LINE
8
BLACK
6
CONTINUOUS
10
3.81791
20
-4.43898
11
3.8182
21
-4.43828
0
LINE
8
BLACK
6
CONTINUOUS
10
3.8182
20
-4.43828
11
3.8189
21
-4.43799
0
LINE
8
BLACK
6
CONTINUOUS
10
3.8189
20
-4.43799
11
4.44882
21
-4.43799
0
LINE
8
BLACK
6
CONTINUOUS
10
3.81988
20
-4.43996
11
3.81988
21
-4.93012
0
LINE
8
BLACK
6
CONTINUOUS
10
3.81988
20
-4.93012
11
4.44783
21
-4.93012
0
LINE
8
BLACK
6
CONTINUOUS
10
4.44783
20
-4.93012
11
4.44783
21
-4.43996
0
LINE
8
BLACK
6
CONTINUOUS
10
4.44783
20
-4.43996
11
3.81988
21
-4.43996
0
LINE
8
BLACK
6
CONTINUOUS
10
7.10083
20
-4.55887
11
7.11487
21
-4.56125
0
LINE
8
BLACK
6
CONTINUOUS
10
7.11487
20
-4.56125
11
7.12855
21
-4.5652
0
LINE
8
BLACK
6
CONTINUOUS
10
7.12855
20
-4.5652
11
7.1417
21
-4.57064
0
LINE
8
BLACK
6
CONTINUOUS
10
7.1417
20
-4.57064
11
7.15417
21
-4.57753
0
LINE
8
BLACK
6
CONTINUOUS
10
7.15417
20
-4.57753
11
7.16578
21
-4.58577
0
LINE
8
BLACK
6
CONTINUOUS
10
7.16578
20
-4.58577
11
7.17639
21
-4.59526
0
LINE
8
BLACK
6
CONTINUOUS
10
7.17639
20
-4.59526
11
7.18588
21
-4.60588
0
LINE
8
BLACK
6
CONTINUOUS
10
7.18588
20
-4.60588
11
7.19412
21
-4.61749
0
LINE
8
BLACK
6
CONTINUOUS
10
7.19412
20
-4.61749
11
7.20101
21
-4.62995
0
LINE
8
BLACK
6
CONTINUOUS
10
7.20101
20
-4.62995
11
7.20646
21
-4.6431
0
LINE
8
BLACK
6
CONTINUOUS
10
7.20646
20
-4.6431
11
7.2104
21
-4.65679
0
LINE
8
BLACK
6
CONTINUOUS
10
7.2104
20
-4.65679
11
7.21278
21
-4.67082
0
LINE
8
BLACK
6
CONTINUOUS
10
7.21278
20
-4.67082
11
7.21358
21
-4.68504
0
LINE
8
BLACK
6
CONTINUOUS
10
7.21358
20
-4.68504
11
7.21278
21
-4.69926
0
LINE
8
BLACK
6
CONTINUOUS
10
7.21278
20
-4.69926
11
7.2104
21
-4.71329
0
LINE
8
BLACK
6
CONTINUOUS
10
7.2104
20
-4.71329
11
7.20646
21
-4.72697
0
LINE
8
BLACK
6
CONTINUOUS
10
7.20646
20
-4.72697
11
7.20101
21
-4.74013
0
LINE
8
BLACK
6
CONTINUOUS
10
7.20101
20
-4.74013
11
7.19412
21
-4.75259
0
LINE
8
BLACK
6
CONTINUOUS
10
7.19412
20
-4.75259
11
7.18588
21
-4.7642
0
LINE
8
BLACK
6
CONTINUOUS
10
7.18588
20
-4.7642
11
7.17639
21
-4.77482
0
LINE
8
BLACK
6
CONTINUOUS
10
7.17639
20
-4.77482
11
7.16578
21
-4.78431
0
LINE
8
BLACK
6
CONTINUOUS
10
7.16578
20
-4.78431
11
7.15417
21
-4.79255
0
LINE
8
BLACK
6
CONTINUOUS
10
7.15417
20
-4.79255
11
7.1417
21
-4.79943
0
LINE
8
BLACK
6
CONTINUOUS
10
7.1417
20
-4.79943
11
7.12855
21
-4.80488
0
LINE
8
BLACK
6
CONTINUOUS
10
7.12855
20
-4.80488
11
7.11487
21
-4.80882
0
LINE
8
BLACK
6
CONTINUOUS
10
7.11487
20
-4.80882
11
7.10083
21
-4.81121
0
LINE
8
BLACK
6
CONTINUOUS
10
7.10083
20
-4.81121
11
7.08661
21
-4.81201
0
LINE
8
BLACK
6
CONTINUOUS
10
7.08661
20
-4.81201
11
7.0724
21
-4.81121
0
LINE
8
BLACK
6
CONTINUOUS
10
7.0724
20
-4.81121
11
7.05836
21
-4.80882
0
LINE
8
BLACK
6
CONTINUOUS
10
7.05836
20
-4.80882
11
7.04468
21
-4.80488
0
LINE
8
BLACK
6
CONTINUOUS
10
7.04468
20
-4.80488
11
7.03152
21
-4.79943
0
LINE
8
BLACK
6
CONTINUOUS
10
7.03152
20
-4.79943
11
7.01906
21
-4.79255
0
LINE
8
BLACK
6
CONTINUOUS
10
7.01906
20
-4.79255
11
7.00745
21
-4.78431
0
LINE
8
BLACK
6
CONTINUOUS
10
7.00745
20
-4.78431
11
6.99683
21
-4.77482
0
LINE
8
BLACK
6
CONTINUOUS
10
6.99683
20
-4.77482
11
6.98735
21
-4.7642
0
LINE
8
BLACK
6
CONTINUOUS
10
6.98735
20
-4.7642
11
6.97911
21
-4.75259
0
LINE
8
BLACK
6
CONTINUOUS
10
6.97911
20
-4.75259
11
6.97222
21
-4.74013
0
LINE
8
BLACK
6
CONTINUOUS
10
6.97222
20
-4.74013
11
6.96677
21
-4.72697
0
LINE
8
BLACK
6
CONTINUOUS
10
6.96677
20
-4.72697
11
6.96283
21
-4.71329
0
LINE
8
BLACK
6
CONTINUOUS
10
6.96283
20
-4.71329
11
6.96044
21
-4.69926
0
LINE
8
BLACK
6
CONTINUOUS
10
6.96044
20
-4.69926
11
6.95965
21
-4.68504
0
LINE
8
BLACK
6
CONTINUOUS
10
6.95965
20
-4.68504
11
6.96044
21
-4.67082
0
LINE
8
BLACK
6
CONTINUOUS
10
6.96044
20
-4.67082
11
6.96283
21
-4.65679
0
LINE
8
BLACK
6
CONTINUOUS
10
6.96283
20
-4.65679
11
6.96677
21
-4.6431
0
LINE
8
BLACK
6
CONTINUOUS
10
6.96677
20
-4.6431
11
6.97222
21
-4.62995
0
LINE
8
BLACK
6
CONTINUOUS
10
6.97222
20
-4.62995
11
6.97911
21
-4.61749
0
LINE
8
BLACK
6
CONTINUOUS
10
6.97911
20
-4.61749
11
6.98735
21
-4.60588
0
LINE
8
BLACK
6
CONTINUOUS
10
6.98735
20
-4.60588
11
6.99683
21
-4.59526
0
LINE
8
BLACK
6
CONTINUOUS
10
6.99683
20
-4.59526
11
7.00745
21
-4.58577
0
LINE
8
BLACK
6
CONTINUOUS
10
7.00745
20
-4.58577
11
7.01906
21
-4.57753
0
LINE
8
BLACK
6
CONTINUOUS
10
7.01906
20
-4.57753
11
7.03152
21
-4.57064
0
LINE
8
BLACK
6
CONTINUOUS
10
7.03152
20
-4.57064
11
7.04468
21
-4.5652
0
LINE
8
BLACK
6
CONTINUOUS
10
7.04468
20
-4.5652
11
7.05836
21
-4.56125
0
LINE
8
BLACK
6
CONTINUOUS
10
7.05836
20
-4.56125
11
7.0724
21
-4.55887
0
LINE
8
BLACK
6
CONTINUOUS
10
7.0724
20
-4.55887
11
7.08661
21
-4.55807
0
LINE
8
BLACK
6
CONTINUOUS
10
7.08661
20
-4.55807
11
7.10083
21
-4.55887
0
LINE
8
BLACK
6
CONTINUOUS
10
6.9622
20
-4.69906
11
6.96456
21
-4.7129
0
LINE
8
BLACK
6
CONTINUOUS
10
6.96456
20
-4.7129
11
6.96844
21
-4.72639
0
LINE
8
BLACK
6
CONTINUOUS
10
6.96844
20
-4.72639
11
6.97382
21
-4.73936
0
LINE
8
BLACK
6
CONTINUOUS
10
6.97382
20
-4.73936
11
6.98061
21
-4.75165
0
LINE
8
BLACK
6
CONTINUOUS
10
6.98061
20
-4.75165
11
6.98873
21
-4.7631
0
LINE
8
BLACK
6
CONTINUOUS
10
6.98873
20
-4.7631
11
6.99809
21
-4.77357
0
LINE
8
BLACK
6
CONTINUOUS
10
6.99809
20
-4.77357
11
7.00856
21
-4.78292
0
LINE
8
BLACK
6
CONTINUOUS
10
7.00856
20
-4.78292
11
7.02001
21
-4.79105
0
LINE
8
BLACK
6
CONTINUOUS
10
7.02001
20
-4.79105
11
7.03229
21
-4.79784
0
LINE
8
BLACK
6
CONTINUOUS
10
7.03229
20
-4.79784
11
7.04526
21
-4.80321
0
LINE
8
BLACK
6
CONTINUOUS
10
7.04526
20
-4.80321
11
7.05876
21
-4.8071
0
LINE
8
BLACK
6
CONTINUOUS
10
7.05876
20
-4.8071
11
7.0726
21
-4.80945
0
LINE
8
BLACK
6
CONTINUOUS
10
7.0726
20
-4.80945
11
7.08661
21
-4.81024
0
LINE
8
BLACK
6
CONTINUOUS
10
7.08661
20
-4.81024
11
7.10063
21
-4.80945
0
LINE
8
BLACK
6
CONTINUOUS
10
7.10063
20
-4.80945
11
7.11447
21
-4.8071
0
LINE
8
BLACK
6
CONTINUOUS
10
7.11447
20
-4.8071
11
7.12796
21
-4.80321
0
LINE
8
BLACK
6
CONTINUOUS
10
7.12796
20
-4.80321
11
7.14094
21
-4.79784
0
LINE
8
BLACK
6
CONTINUOUS
10
7.14094
20
-4.79784
11
7.15322
21
-4.79105
0
LINE
8
BLACK
6
CONTINUOUS
10
7.15322
20
-4.79105
11
7.16467
21
-4.78292
0
LINE
8
BLACK
6
CONTINUOUS
10
7.16467
20
-4.78292
11
7.17514
21
-4.77357
0
LINE
8
BLACK
6
CONTINUOUS
10
7.17514
20
-4.77357
11
7.1845
21
-4.7631
0
LINE
8
BLACK
6
CONTINUOUS
10
7.1845
20
-4.7631
11
7.19262
21
-4.75165
0
LINE
8
BLACK
6
CONTINUOUS
10
7.19262
20
-4.75165
11
7.19941
21
-4.73936
0
LINE
8
BLACK
6
CONTINUOUS
10
7.19941
20
-4.73936
11
7.20479
21
-4.72639
0
LINE
8
BLACK
6
CONTINUOUS
10
7.20479
20
-4.72639
11
7.20867
21
-4.7129
0
LINE
8
BLACK
6
CONTINUOUS
10
7.20867
20
-4.7129
11
7.21102
21
-4.69906
0
LINE
8
BLACK
6
CONTINUOUS
10
7.21102
20
-4.69906
11
7.21181
21
-4.68504
0
LINE
8
BLACK
6
CONTINUOUS
10
7.21181
20
-4.68504
11
7.21102
21
-4.67102
0
LINE
8
BLACK
6
CONTINUOUS
10
7.21102
20
-4.67102
11
7.20867
21
-4.65718
0
LINE
8
BLACK
6
CONTINUOUS
10
7.20867
20
-4.65718
11
7.20479
21
-4.64369
0
LINE
8
BLACK
6
CONTINUOUS
10
7.20479
20
-4.64369
11
7.19941
21
-4.63072
0
LINE
8
BLACK
6
CONTINUOUS
10
7.19941
20
-4.63072
11
7.19262
21
-4.61843
0
LINE
8
BLACK
6
CONTINUOUS
10
7.19262
20
-4.61843
11
7.1845
21
-4.60698
0
LINE
8
BLACK
6
CONTINUOUS
10
7.1845
20
-4.60698
11
7.17514
21
-4.59651
0
LINE
8
BLACK
6
CONTINUOUS
10
7.17514
20
-4.59651
11
7.16467
21
-4.58716
0
LINE
8
BLACK
6
CONTINUOUS
10
7.16467
20
-4.58716
11
7.15322
21
-4.57903
0
LINE
8
BLACK
6
CONTINUOUS
10
7.15322
20
-4.57903
11
7.14094
21
-4.57224
0
LINE
8
BLACK
6
CONTINUOUS
10
7.14094
20
-4.57224
11
7.12796
21
-4.56687
0
LINE
8
BLACK
6
CONTINUOUS
10
7.12796
20
-4.56687
11
7.11447
21
-4.56298
0
LINE
8
BLACK
6
CONTINUOUS
10
7.11447
20
-4.56298
11
7.10063
21
-4.56063
0
LINE
8
BLACK
6
CONTINUOUS
10
7.10063
20
-4.56063
11
7.08661
21
-4.55984
0
LINE
8
BLACK
6
CONTINUOUS
10
7.08661
20
-4.55984
11
7.0726
21
-4.56063
0
LINE
8
BLACK
6
CONTINUOUS
10
7.0726
20
-4.56063
11
7.05876
21
-4.56298
0
LINE
8
BLACK
6
CONTINUOUS
10
7.05876
20
-4.56298
11
7.04526
21
-4.56687
0
LINE
8
BLACK
6
CONTINUOUS
10
7.04526
20
-4.56687
11
7.03229
21
-4.57224
0
LINE
8
BLACK
6
CONTINUOUS
10
7.03229
20
-4.57224
11
7.02001
21
-4.57903
0
LINE
8
BLACK
6
CONTINUOUS
10
7.02001
20
-4.57903
11
7.00856
21
-4.58716
0
LINE
8
BLACK
6
CONTINUOUS
10
7.00856
20
-4.58716
11
6.99809
21
-4.59651
0
LINE
8
BLACK
6
CONTINUOUS
10
6.99809
20
-4.59651
11
6.98873
21
-4.60698
0
LINE
8
BLACK
6
CONTINUOUS
10
6.98873
20
-4.60698
11
6.98061
21
-4.61843
0
LINE
8
BLACK
6
CONTINUOUS
10
6.98061
20
-4.61843
11
6.97382
21
-4.63072
0
LINE
8
BLACK
6
CONTINUOUS
10
6.97382
20
-4.63072
11
6.96844
21
-4.64369
0
LINE
8
BLACK
6
CONTINUOUS
10
6.96844
20
-4.64369
11
6.96456
21
-4.65718
0
LINE
8
BLACK
6
CONTINUOUS
10
6.96456
20
-4.65718
11
6.9622
21
-4.67102
0
LINE
8
BLACK
6
CONTINUOUS
10
6.9622
20
-4.67102
11
6.96142
21
-4.68504
0
LINE
8
BLACK
6
CONTINUOUS
10
6.96142
20
-4.68504
11
6.9622
21
-4.69906
0
LINE
8
BLACK
6
CONTINUOUS
10
7.10083
20
-2.51163
11
7.11487
21
-2.51401
0
LINE
8
BLACK
6
CONTINUOUS
10
7.11487
20
-2.51401
11
7.12855
21
-2.51795
0
LINE
8
BLACK
6
CONTINUOUS
10
7.12855
20
-2.51795
11
7.1417
21
-2.5234
0
LINE
8
BLACK
6
CONTINUOUS
10
7.1417
20
-2.5234
11
7.15417
21
-2.53029
0
LINE
8
BLACK
6
CONTINUOUS
10
7.15417
20
-2.53029
11
7.16578
21
-2.53853
0
LINE
8
BLACK
6
CONTINUOUS
10
7.16578
20
-2.53853
11
7.17639
21
-2.54801
0
LINE
8
BLACK
6
CONTINUOUS
10
7.17639
20
-2.54801
11
7.18588
21
-2.55863
0
LINE
8
BLACK
6
CONTINUOUS
10
7.18588
20
-2.55863
11
7.19412
21
-2.57024
0
LINE
8
BLACK
6
CONTINUOUS
10
7.19412
20
-2.57024
11
7.20101
21
-2.58271
0
LINE
8
BLACK
6
CONTINUOUS
10
7.20101
20
-2.58271
11
7.20646
21
-2.59586
0
LINE
8
BLACK
6
CONTINUOUS
10
7.20646
20
-2.59586
11
7.2104
21
-2.60954
0
LINE
8
BLACK
6
CONTINUOUS
10
7.2104
20
-2.60954
11
7.21278
21
-2.62358
0
LINE
8
BLACK
6
CONTINUOUS
10
7.21278
20
-2.62358
11
7.21358
21
-2.6378
0
LINE
8
BLACK
6
CONTINUOUS
10
7.21358
20
-2.6378
11
7.21278
21
-2.65201
0
LINE
8
BLACK
6
CONTINUOUS
10
7.21278
20
-2.65201
11
7.2104
21
-2.66605
0
LINE
8
BLACK
6
CONTINUOUS
10
7.2104
20
-2.66605
11
7.20646
21
-2.67973
0
LINE
8
BLACK
6
CONTINUOUS
10
7.20646
20
-2.67973
11
7.20101
21
-2.69288
0
LINE
8
BLACK
6
CONTINUOUS
10
7.20101
20
-2.69288
11
7.19412
21
-2.70535
0
LINE
8
BLACK
6
CONTINUOUS
10
7.19412
20
-2.70535
11
7.18588
21
-2.71696
0
LINE
8
BLACK
6
CONTINUOUS
10
7.18588
20
-2.71696
11
7.17639
21
-2.72758
0
LINE
8
BLACK
6
CONTINUOUS
10
7.17639
20
-2.72758
11
7.16578
21
-2.73706
0
LINE
8
BLACK
6
CONTINUOUS
10
7.16578
20
-2.73706
11
7.15417
21
-2.7453
0
LINE
8
BLACK
6
CONTINUOUS
10
7.15417
20
-2.7453
11
7.1417
21
-2.75219
0
LINE
8
BLACK
6
CONTINUOUS
10
7.1417
20
-2.75219
11
7.12855
21
-2.75764
0
LINE
8
BLACK
6
CONTINUOUS
10
7.12855
20
-2.75764
11
7.11487
21
-2.76158
0
LINE
8
BLACK
6
CONTINUOUS
10
7.11487
20
-2.76158
11
7.10083
21
-2.76397
0
LINE
8
BLACK
6
CONTINUOUS
10
7.10083
20
-2.76397
11
7.08661
21
-2.76476
0
LINE
8
BLACK
6
CONTINUOUS
10
7.08661
20
-2.76476
11
7.0724
21
-2.76397
0
LINE
8
BLACK
6
CONTINUOUS
10
7.0724
20
-2.76397
11
7.05836
21
-2.76158
0
LINE
8
BLACK
6
CONTINUOUS
10
7.05836
20
-2.76158
11
7.04468
21
-2.75764
0
LINE
8
BLACK
6
CONTINUOUS
10
7.04468
20
-2.75764
11
7.03152
21
-2.75219
0
LINE
8
BLACK
6
CONTINUOUS
10
7.03152
20
-2.75219
11
7.01906
21
-2.7453
0
LINE
8
BLACK
6
CONTINUOUS
10
7.01906
20
-2.7453
11
7.00745
21
-2.73706
0
LINE
8
BLACK
6
CONTINUOUS
10
7.00745
20
-2.73706
11
6.99683
21
-2.72758
0
LINE
8
BLACK
6
CONTINUOUS
10
6.99683
20
-2.72758
11
6.98735
21
-2.71696
0
LINE
8
BLACK
6
CONTINUOUS
10
6.98735
20
-2.71696
11
6.97911
21
-2.70535
0
LINE
8
BLACK
6
CONTINUOUS
10
6.97911
20
-2.70535
11
6.97222
21
-2.69288
0
LINE
8
BLACK
6
CONTINUOUS
10
6.97222
20
-2.69288
11
6.96677
21
-2.67973
0
LINE
8
BLACK
6
CONTINUOUS
10
6.96677
20
-2.67973
11
6.96283
21
-2.66605
0
LINE
8
BLACK
6
CONTINUOUS
10
6.96283
20
-2.66605
11
6.96044
21
-2.65201
0
LINE
8
BLACK
6
CONTINUOUS
10
6.96044
20
-2.65201
11
6.95965
21
-2.6378
0
LINE
8
BLACK
6
CONTINUOUS
10
6.95965
20
-2.6378
11
6.96044
21
-2.62358
0
LINE
8
BLACK
6
CONTINUOUS
10
6.96044
20
-2.62358
11
6.96283
21
-2.60954
0
LINE
8
BLACK
6
CONTINUOUS
10
6.96283
20
-2.60954
11
6.96677
21
-2.59586
0
LINE
8
BLACK
6
CONTINUOUS
10
6.96677
20
-2.59586
11
6.97222
21
-2.58271
0
LINE
8
BLACK
6
CONTINUOUS
10
6.97222
20
-2.58271
11
6.97911
21
-2.57024
0
LINE
8
BLACK
6
CONTINUOUS
10
6.97911
20
-2.57024
11
6.98735
21
-2.55863
0
LINE
8
BLACK
6
CONTINUOUS
10
6.98735
20
-2.55863
11
6.99683
21
-2.54801
0
LINE
8
BLACK
6
CONTINUOUS
10
6.99683
20
-2.54801
11
7.00745
21
-2.53853
0
LINE
8
BLACK
6
CONTINUOUS
10
7.00745
20
-2.53853
11
7.01906
21
-2.53029
0
LINE
8
BLACK
6
CONTINUOUS
10
7.01906
20
-2.53029
11
7.03152
21
-2.5234
0
LINE
8
BLACK
6
CONTINUOUS
10
7.03152
20
-2.5234
11
7.04468
21
-2.51795
0
LINE
8
BLACK
6
CONTINUOUS
10
7.04468
20
-2.51795
11
7.05836
21
-2.51401
0
LINE
8
BLACK
6
CONTINUOUS
10
7.05836
20
-2.51401
11
7.0724
21
-2.51163
0
LINE
8
BLACK
6
CONTINUOUS
10
7.0724
20
-2.51163
11
7.08661
21
-2.51083
0
LINE
8
BLACK
6
CONTINUOUS
10
7.08661
20
-2.51083
11
7.10083
21
-2.51163
0
LINE
8
BLACK
6
CONTINUOUS
10
6.9622
20
-2.65181
11
6.96456
21
-2.66565
0
LINE
8
BLACK
6
CONTINUOUS
10
6.96456
20
-2.66565
11
6.96844
21
-2.67915
0
LINE
8
BLACK
6
CONTINUOUS
10
6.96844
20
-2.67915
11
6.97382
21
-2.69212
0
LINE
8
BLACK
6
CONTINUOUS
10
6.97382
20
-2.69212
11
6.98061
21
-2.7044
0
LINE
8
BLACK
6
CONTINUOUS
10
6.98061
20
-2.7044
11
6.98873
21
-2.71585
0
LINE
8
BLACK
6
CONTINUOUS
10
6.98873
20
-2.71585
11
6.99809
21
-2.72632
0
LINE
8
BLACK
6
CONTINUOUS
10
6.99809
20
-2.72632
11
7.00856
21
-2.73568
0
LINE
8
BLACK
6
CONTINUOUS
10
7.00856
20
-2.73568
11
7.02001
21
-2.7438
0
LINE
8
BLACK
6
CONTINUOUS
10
7.02001
20
-2.7438
11
7.03229
21
-2.75059
0
LINE
8
BLACK
6
CONTINUOUS
10
7.03229
20
-2.75059
11
7.04526
21
-2.75597
0
LINE
8
BLACK
6
CONTINUOUS
10
7.04526
20
-2.75597
11
7.05876
21
-2.75985
0
LINE
8
BLACK
6
CONTINUOUS
10
7.05876
20
-2.75985
11
7.0726
21
-2.76221
0
LINE
8
BLACK
6
CONTINUOUS
10
7.0726
20
-2.76221
11
7.08661
21
-2.76299
0
LINE
8
BLACK
6
CONTINUOUS
10
7.08661
20
-2.76299
11
7.10063
21
-2.76221
0
LINE
8
BLACK
6
CONTINUOUS
10
7.10063
20
-2.76221
11
7.11447
21
-2.75985
0
LINE
8
BLACK
6
CONTINUOUS
10
7.11447
20
-2.75985
11
7.12796
21
-2.75597
0
LINE
8
BLACK
6
CONTINUOUS
10
7.12796
20
-2.75597
11
7.14094
21
-2.75059
0
LINE
8
BLACK
6
CONTINUOUS
10
7.14094
20
-2.75059
11
7.15322
21
-2.7438
0
LINE
8
BLACK
6
CONTINUOUS
10
7.15322
20
-2.7438
11
7.16467
21
-2.73568
0
LINE
8
BLACK
6
CONTINUOUS
10
7.16467
20
-2.73568
11
7.17514
21
-2.72632
0
LINE
8
BLACK
6
CONTINUOUS
10
7.17514
20
-2.72632
11
7.1845
21
-2.71585
0
LINE
8
BLACK
6
CONTINUOUS
10
7.1845
20
-2.71585
11
7.19262
21
-2.7044
0
LINE
8
BLACK
6
CONTINUOUS
10
7.19262
20
-2.7044
11
7.19941
21
-2.69212
0
LINE
8
BLACK
6
CONTINUOUS
10
7.19941
20
-2.69212
11
7.20479
21
-2.67915
0
LINE
8
BLACK
6
CONTINUOUS
10
7.20479
20
-2.67915
11
7.20867
21
-2.66565
0
LINE
8
BLACK
6
CONTINUOUS
10
7.20867
20
-2.66565
11
7.21102
21
-2.65181
0
LINE
8
BLACK
6
CONTINUOUS
10
7.21102
20
-2.65181
11
7.21181
21
-2.6378
0
LINE
8
BLACK
6
CONTINUOUS
10
7.21181
20
-2.6378
11
7.21102
21
-2.62378
0
LINE
8
BLACK
6
CONTINUOUS
10
7.21102
20
-2.62378
11
7.20867
21
-2.60994
0
LINE
8
BLACK
6
CONTINUOUS
10
7.20867
20
-2.60994
11
7.20479
21
-2.59645
0
LINE
8
BLACK
6
CONTINUOUS
10
7.20479
20
-2.59645
11
7.19941
21
-2.58347
0
LINE
8
BLACK
6
CONTINUOUS
10
7.19941
20
-2.58347
11
7.19262
21
-2.57119
0
LINE
8
BLACK
6
CONTINUOUS
10
7.19262
20
-2.57119
11
7.1845
21
-2.55974
0
LINE
8
BLACK
6
CONTINUOUS
10
7.1845
20
-2.55974
11
7.17514
21
-2.54927
0
LINE
8
BLACK
6
CONTINUOUS
10
7.17514
20
-2.54927
11
7.16467
21
-2.53991
0
LINE
8
BLACK
6
CONTINUOUS
10
7.16467
20
-2.53991
11
7.15322
21
-2.53179
0
LINE
8
BLACK
6
CONTINUOUS
10
7.15322
20
-2.53179
11
7.14094
21
-2.525
0
LINE
8
BLACK
6
CONTINUOUS
10
7.14094
20
-2.525
11
7.12796
21
-2.51962
0
LINE
8
BLACK
6
CONTINUOUS
10
7.12796
20
-2.51962
11
7.11447
21
-2.51574
0
LINE
8
BLACK
6
CONTINUOUS
10
7.11447
20
-2.51574
11
7.10063
21
-2.51339
0
LINE
8
BLACK
6
CONTINUOUS
10
7.10063
20
-2.51339
11
7.08661
21
-2.5126
0
LINE
8
BLACK
6
CONTINUOUS
10
7.08661
20
-2.5126
11
7.0726
21
-2.51339
0
LINE
8
BLACK
6
CONTINUOUS
10
7.0726
20
-2.51339
11
7.05876
21
-2.51574
0
LINE
8
BLACK
6
CONTINUOUS
10
7.05876
20
-2.51574
11
7.04526
21
-2.51962
0
LINE
8
BLACK
6
CONTINUOUS
10
7.04526
20
-2.51962
11
7.03229
21
-2.525
0
LINE
8
BLACK
6
CONTINUOUS
10
7.03229
20
-2.525
11
7.02001
21
-2.53179
0
LINE
8
BLACK
6
CONTINUOUS
10
7.02001
20
-2.53179
11
7.00856
21
-2.53991
0
LINE
8
BLACK
6
CONTINUOUS
10
7.00856
20
-2.53991
11
6.99809
21
-2.54927
0
LINE
8
BLACK
6
CONTINUOUS
10
6.99809
20
-2.54927
11
6.98873
21
-2.55974
0
LINE
8
BLACK
6
CONTINUOUS
10
6.98873
20
-2.55974
11
6.98061
21
-2.57119
0
LINE
8
BLACK
6
CONTINUOUS
10
6.98061
20
-2.57119
11
6.97382
21
-2.58347
0
LINE
8
BLACK
6
CONTINUOUS
10
6.97382
20
-2.58347
11
6.96844
21
-2.59645
0
LINE
8
BLACK
6
CONTINUOUS
10
6.96844
20
-2.59645
11
6.96456
21
-2.60994
0
LINE
8
BLACK
6
CONTINUOUS
10
6.96456
20
-2.60994
11
6.9622
21
-2.62378
0
LINE
8
BLACK
6
CONTINUOUS
10
6.9622
20
-2.62378
11
6.96142
21
-2.6378
0
LINE
8
BLACK
6
CONTINUOUS
10
6.96142
20
-2.6378
11
6.9622
21
-2.65181
0
LINE
8
BLACK
6
CONTINUOUS
10
7.40157
20
-2.39075
11
7.40227
21
-2.39104
0
LINE
8
BLACK
6
CONTINUOUS
10
7.40227
20
-2.39104
11
7.40256
21
-2.39173
0
LINE
8
BLACK
6
CONTINUOUS
10
7.40256
20
-2.39173
11
7.40256
21
-2.86437
0
LINE
8
BLACK
6
CONTINUOUS
10
7.40256
20
-2.86437
11
7.70866
21
-2.86437
0
LINE
8
BLACK
6
CONTINUOUS
10
7.70866
20
-2.86437
11
7.70936
21
-2.86466
0
LINE
8
BLACK
6
CONTINUOUS
10
7.70936
20
-2.86466
11
7.70965
21
-2.86535
0
LINE
8
BLACK
6
CONTINUOUS
10
7.70965
20
-2.86535
11
7.70965
21
-3.66122
0
LINE
8
BLACK
6
CONTINUOUS
10
7.70965
20
-3.66122
11
7.70965
21
-4.45768
0
LINE
8
BLACK
6
CONTINUOUS
10
7.70965
20
-4.45768
11
7.70936
21
-4.45837
0
LINE
8
BLACK
6
CONTINUOUS
10
7.70936
20
-4.45837
11
7.70866
21
-4.45866
0
LINE
8
BLACK
6
CONTINUOUS
10
7.70866
20
-4.45866
11
7.40256
21
-4.45866
0
LINE
8
BLACK
6
CONTINUOUS
10
7.40256
20
-4.45866
11
7.40256
21
-4.9311
0
LINE
8
BLACK
6
CONTINUOUS
10
7.40256
20
-4.9311
11
7.40227
21
-4.9318
0
LINE
8
BLACK
6
CONTINUOUS
10
7.40227
20
-4.9318
11
7.40157
21
-4.93209
0
LINE
8
BLACK
6
CONTINUOUS
10
7.40157
20
-4.93209
11
6.77165
21
-4.93209
0
LINE
8
BLACK
6
CONTINUOUS
10
6.77165
20
-4.93209
11
6.77096
21
-4.9318
0
LINE
8
BLACK
6
CONTINUOUS
10
6.77096
20
-4.9318
11
6.77067
21
-4.9311
0
LINE
8
BLACK
6
CONTINUOUS
10
6.77067
20
-4.9311
11
6.77067
21
-4.9311
0
LINE
8
BLACK
6
CONTINUOUS
10
6.77067
20
-4.9311
11
6.77067
21
-4.45866
0
LINE
8
BLACK
6
CONTINUOUS
10
6.77067
20
-4.45866
11
6.6248
21
-4.45866
0
LINE
8
BLACK
6
CONTINUOUS
10
6.6248
20
-4.45866
11
6.62411
21
-4.45837
0
LINE
8
BLACK
6
CONTINUOUS
10
6.62411
20
-4.45837
11
6.62382
21
-4.45768
0
LINE
8
BLACK
6
CONTINUOUS
10
6.62382
20
-4.45768
11
6.62382
21
-3.66122
0
LINE
8
BLACK
6
CONTINUOUS
10
6.62382
20
-3.66122
11
6.62382
21
-2.86535
0
LINE
8
BLACK
6
CONTINUOUS
10
6.62382
20
-2.86535
11
6.62411
21
-2.86466
0
LINE
8
BLACK
6
CONTINUOUS
10
6.62411
20
-2.86466
11
6.6248
21
-2.86437
0
LINE
8
BLACK
6
CONTINUOUS
10
6.6248
20
-2.86437
11
6.77067
21
-2.86437
0
LINE
8
BLACK
6
CONTINUOUS
10
6.77067
20
-2.86437
11
6.77067
21
-2.39173
0
LINE
8
BLACK
6
CONTINUOUS
10
6.77067
20
-2.39173
11
6.77096
21
-2.39104
0
LINE
8
BLACK
6
CONTINUOUS
10
6.77096
20
-2.39104
11
6.77165
21
-2.39075
0
LINE
8
BLACK
6
CONTINUOUS
10
6.77165
20
-2.39075
11
7.40157
21
-2.39075
0
LINE
8
BLACK
6
CONTINUOUS
10
6.77264
20
-4.45866
11
6.77264
21
-4.93012
0
LINE
8
BLACK
6
CONTINUOUS
10
6.77264
20
-4.93012
11
7.40059
21
-4.93012
0
LINE
8
BLACK
6
CONTINUOUS
10
7.40059
20
-4.93012
11
7.40059
21
-4.45866
0
LINE
8
BLACK
6
CONTINUOUS
10
7.40059
20
-4.45866
11
6.77264
21
-4.45866
0
LINE
8
BLACK
6
CONTINUOUS
10
6.62579
20
-3.6628
11
6.62579
21
-4.45669
0
LINE
8
BLACK
6
CONTINUOUS
10
6.62579
20
-4.45669
11
6.77067
21
-4.45669
0
LINE
8
BLACK
6
CONTINUOUS
10
6.77067
20
-4.45669
11
6.77067
21
-4.43898
0
LINE
8
BLACK
6
CONTINUOUS
10
6.77067
20
-4.43898
11
6.77096
21
-4.43828
0
LINE
8
BLACK
6
CONTINUOUS
10
6.77096
20
-4.43828
11
6.77165
21
-4.43799
0
LINE
8
BLACK
6
CONTINUOUS
10
6.77165
20
-4.43799
11
7.40157
21
-4.43799
0
LINE
8
BLACK
6
CONTINUOUS
10
7.40157
20
-4.43799
11
7.40227
21
-4.43828
0
LINE
8
BLACK
6
CONTINUOUS
10
7.40227
20
-4.43828
11
7.40256
21
-4.43898
0
LINE
8
BLACK
6
CONTINUOUS
10
7.40256
20
-4.43898
11
7.40256
21
-4.45669
0
LINE
8
BLACK
6
CONTINUOUS
10
7.40256
20
-4.45669
11
7.70768
21
-4.45669
0
LINE
8
BLACK
6
CONTINUOUS
10
7.70768
20
-4.45669
11
7.70768
21
-3.6628
0
LINE
8
BLACK
6
CONTINUOUS
10
7.70768
20
-3.6628
11
6.62579
21
-3.6628
0
LINE
8
BLACK
6
CONTINUOUS
10
6.77264
20
-4.43996
11
6.77264
21
-4.45669
0
LINE
8
BLACK
6
CONTINUOUS
10
6.77264
20
-4.45669
11
7.40059
21
-4.45669
0
LINE
8
BLACK
6
CONTINUOUS
10
7.40059
20
-4.45669
11
7.40059
21
-4.43996
0
LINE
8
BLACK
6
CONTINUOUS
10
7.40059
20
-4.43996
11
6.77264
21
-4.43996
0
LINE
8
BLACK
6
CONTINUOUS
10
7.40256
20
-2.86634
11
7.40256
21
-2.88386
0
LINE
8
BLACK
6
CONTINUOUS
10
7.40256
20
-2.88386
11
7.40227
21
-2.88455
0
LINE
8
BLACK
6
CONTINUOUS
10
7.40227
20
-2.88455
11
7.40157
21
-2.88484
0
LINE
8
BLACK
6
CONTINUOUS
10
7.40157
20
-2.88484
11
6.77165
21
-2.88484
0
LINE
8
BLACK
6
CONTINUOUS
10
6.77165
20
-2.88484
11
6.77096
21
-2.88455
0
LINE
8
BLACK
6
CONTINUOUS
10
6.77096
20
-2.88455
11
6.77067
21
-2.88386
0
LINE
8
BLACK
6
CONTINUOUS
10
6.77067
20
-2.88386
11
6.77067
21
-2.88386
0
LINE
8
BLACK
6
CONTINUOUS
10
6.77067
20
-2.88386
11
6.77067
21
-2.86634
0
LINE
8
BLACK
6
CONTINUOUS
10
6.77067
20
-2.86634
11
6.62579
21
-2.86634
0
LINE
8
BLACK
6
CONTINUOUS
10
6.62579
20
-2.86634
11
6.62579
21
-3.66024
0
LINE
8
BLACK
6
CONTINUOUS
10
6.62579
20
-3.66024
11
7.70768
21
-3.66024
0
LINE
8
BLACK
6
CONTINUOUS
10
7.70768
20
-3.66024
11
7.70768
21
-2.86634
0
LINE
8
BLACK
6
CONTINUOUS
10
7.70768
20
-2.86634
11
7.40256
21
-2.86634
0
LINE
8
BLACK
6
CONTINUOUS
10
6.77264
20
-2.86634
11
6.77264
21
-2.88287
0
LINE
8
BLACK
6
CONTINUOUS
10
6.77264
20
-2.88287
11
7.40059
21
-2.88287
0
LINE
8
BLACK
6
CONTINUOUS
10
7.40059
20
-2.88287
11
7.40059
21
-2.86634
0
LINE
8
BLACK
6
CONTINUOUS
10
7.40059
20
-2.86634
11
6.77264
21
-2.86634
0
LINE
8
BLACK
6
CONTINUOUS
10
6.77264
20
-2.39272
11
6.77264
21
-2.86437
0
LINE
8
BLACK
6
CONTINUOUS
10
6.77264
20
-2.86437
11
7.40059
21
-2.86437
0
LINE
8
BLACK
6
CONTINUOUS
10
7.40059
20
-2.86437
11
7.40059
21
-2.39272
0
LINE
8
BLACK
6
CONTINUOUS
10
7.40059
20
-2.39272
11
6.77264
21
-2.39272
0
LINE
8
BLACK
6
CONTINUOUS
10
4.69671
20
-4.68166
11
4.70898
21
-4.68391
0
LINE
8
BLACK
6
CONTINUOUS
10
4.70898
20
-4.68391
11
4.7209
21
-4.68762
0
LINE
8
BLACK
6
CONTINUOUS
10
4.7209
20
-4.68762
11
4.73228
21
-4.69274
0
LINE
8
BLACK
6
CONTINUOUS
10
4.73228
20
-4.69274
11
4.74296
21
-4.6992
0
LINE
8
BLACK
6
CONTINUOUS
10
4.74296
20
-4.6992
11
4.75278
21
-4.7069
0
LINE
8
BLACK
6
CONTINUOUS
10
4.75278
20
-4.7069
11
4.76161
21
-4.71572
0
LINE
8
BLACK
6
CONTINUOUS
10
4.76161
20
-4.71572
11
4.7693
21
-4.72554
0
LINE
8
BLACK
6
CONTINUOUS
10
4.7693
20
-4.72554
11
4.77576
21
-4.73622
0
LINE
8
BLACK
6
CONTINUOUS
10
4.77576
20
-4.73622
11
4.78088
21
-4.7476
0
LINE
8
BLACK
6
CONTINUOUS
10
4.78088
20
-4.7476
11
4.7846
21
-4.75952
0
LINE
8
BLACK
6
CONTINUOUS
10
4.7846
20
-4.75952
11
4.78684
21
-4.77179
0
LINE
8
BLACK
6
CONTINUOUS
10
4.78684
20
-4.77179
11
4.7876
21
-4.78425
0
LINE
8
BLACK
6
CONTINUOUS
10
4.7876
20
-4.78425
11
4.78684
21
-4.79671
0
LINE
8
BLACK
6
CONTINUOUS
10
4.78684
20
-4.79671
11
4.7846
21
-4.80898
0
LINE
8
BLACK
6
CONTINUOUS
10
4.7846
20
-4.80898
11
4.78088
21
-4.8209
0
LINE
8
BLACK
6
CONTINUOUS
10
4.78088
20
-4.8209
11
4.77576
21
-4.83228
0
LINE
8
BLACK
6
CONTINUOUS
10
4.77576
20
-4.83228
11
4.7693
21
-4.84296
0
LINE
8
BLACK
6
CONTINUOUS
10
4.7693
20
-4.84296
11
4.76161
21
-4.85278
0
LINE
8
BLACK
6
CONTINUOUS
10
4.76161
20
-4.85278
11
4.75278
21
-4.86161
0
LINE
8
BLACK
6
CONTINUOUS
10
4.75278
20
-4.86161
11
4.74296
21
-4.8693
0
LINE
8
BLACK
6
CONTINUOUS
10
4.74296
20
-4.8693
11
4.73228
21
-4.87576
0
LINE
8
BLACK
6
CONTINUOUS
10
4.73228
20
-4.87576
11
4.7209
21
-4.88088
0
LINE
8
BLACK
6
CONTINUOUS
10
4.7209
20
-4.88088
11
4.70898
21
-4.8846
0
LINE
8
BLACK
6
CONTINUOUS
10
4.70898
20
-4.8846
11
4.69671
21
-4.88684
0
LINE
8
BLACK
6
CONTINUOUS
10
4.69671
20
-4.88684
11
4.68425
21
-4.8876
0
LINE
8
BLACK
6
CONTINUOUS
10
4.68425
20
-4.8876
11
4.67179
21
-4.88684
0
LINE
8
BLACK
6
CONTINUOUS
10
4.67179
20
-4.88684
11
4.65952
21
-4.8846
0
LINE
8
BLACK
6
CONTINUOUS
10
4.65952
20
-4.8846
11
4.6476
21
-4.88088
0
LINE
8
BLACK
6
CONTINUOUS
10
4.6476
20
-4.88088
11
4.63622
21
-4.87576
0
LINE
8
BLACK
6
CONTINUOUS
10
4.63622
20
-4.87576
11
4.62554
21
-4.8693
0
LINE
8
BLACK
6
CONTINUOUS
10
4.62554
20
-4.8693
11
4.61572
21
-4.86161
0
LINE
8
BLACK
6
CONTINUOUS
10
4.61572
20
-4.86161
11
4.6069
21
-4.85278
0
LINE
8
BLACK
6
CONTINUOUS
10
4.6069
20
-4.85278
11
4.5992
21
-4.84296
0
LINE
8
BLACK
6
CONTINUOUS
10
4.5992
20
-4.84296
11
4.59274
21
-4.83228
0
LINE
8
BLACK
6
CONTINUOUS
10
4.59274
20
-4.83228
11
4.58762
21
-4.8209
0
LINE
8
BLACK
6
CONTINUOUS
10
4.58762
20
-4.8209
11
4.58391
21
-4.80898
0
LINE
8
BLACK
6
CONTINUOUS
10
4.58391
20
-4.80898
11
4.58166
21
-4.79671
0
LINE
8
BLACK
6
CONTINUOUS
10
4.58166
20
-4.79671
11
4.58091
21
-4.78425
0
LINE
8
BLACK
6
CONTINUOUS
10
4.58091
20
-4.78425
11
4.58166
21
-4.77179
0
LINE
8
BLACK
6
CONTINUOUS
10
4.58166
20
-4.77179
11
4.58391
21
-4.75952
0
LINE
8
BLACK
6
CONTINUOUS
10
4.58391
20
-4.75952
11
4.58762
21
-4.7476
0
LINE
8
BLACK
6
CONTINUOUS
10
4.58762
20
-4.7476
11
4.59274
21
-4.73622
0
LINE
8
BLACK
6
CONTINUOUS
10
4.59274
20
-4.73622
11
4.5992
21
-4.72554
0
LINE
8
BLACK
6
CONTINUOUS
10
4.5992
20
-4.72554
11
4.6069
21
-4.71572
0
LINE
8
BLACK
6
CONTINUOUS
10
4.6069
20
-4.71572
11
4.61572
21
-4.7069
0
LINE
8
BLACK
6
CONTINUOUS
10
4.61572
20
-4.7069
11
4.62554
21
-4.6992
0
LINE
8
BLACK
6
CONTINUOUS
10
4.62554
20
-4.6992
11
4.63622
21
-4.69274
0
LINE
8
BLACK
6
CONTINUOUS
10
4.63622
20
-4.69274
11
4.6476
21
-4.68762
0
LINE
8
BLACK
6
CONTINUOUS
10
4.6476
20
-4.68762
11
4.65952
21
-4.68391
0
LINE
8
BLACK
6
CONTINUOUS
10
4.65952
20
-4.68391
11
4.67179
21
-4.68166
0
LINE
8
BLACK
6
CONTINUOUS
10
4.67179
20
-4.68166
11
4.68425
21
-4.68091
0
LINE
8
BLACK
6
CONTINUOUS
10
4.68425
20
-4.68091
11
4.69671
21
-4.68166
0
LINE
8
BLACK
6
CONTINUOUS
10
4.58347
20
-4.79698
11
4.58586
21
-4.80951
0
LINE
8
BLACK
6
CONTINUOUS
10
4.58586
20
-4.80951
11
4.58981
21
-4.82165
0
LINE
8
BLACK
6
CONTINUOUS
10
4.58981
20
-4.82165
11
4.59524
21
-4.83319
0
LINE
8
BLACK
6
CONTINUOUS
10
4.59524
20
-4.83319
11
4.60207
21
-4.84396
0
LINE
8
BLACK
6
CONTINUOUS
10
4.60207
20
-4.84396
11
4.6102
21
-4.85379
0
LINE
8
BLACK
6
CONTINUOUS
10
4.6102
20
-4.85379
11
4.6195
21
-4.86252
0
LINE
8
BLACK
6
CONTINUOUS
10
4.6195
20
-4.86252
11
4.62982
21
-4.87002
0
LINE
8
BLACK
6
CONTINUOUS
10
4.62982
20
-4.87002
11
4.641
21
-4.87616
0
LINE
8
BLACK
6
CONTINUOUS
10
4.641
20
-4.87616
11
4.65286
21
-4.88086
0
LINE
8
BLACK
6
CONTINUOUS
10
4.65286
20
-4.88086
11
4.66522
21
-4.88403
0
LINE
8
BLACK
6
CONTINUOUS
10
4.66522
20
-4.88403
11
4.67787
21
-4.88563
0
LINE
8
BLACK
6
CONTINUOUS
10
4.67787
20
-4.88563
11
4.69063
21
-4.88563
0
LINE
8
BLACK
6
CONTINUOUS
10
4.69063
20
-4.88563
11
4.70329
21
-4.88403
0
LINE
8
BLACK
6
CONTINUOUS
10
4.70329
20
-4.88403
11
4.71564
21
-4.88086
0
LINE
8
BLACK
6
CONTINUOUS
10
4.71564
20
-4.88086
11
4.7275
21
-4.87616
0
LINE
8
BLACK
6
CONTINUOUS
10
4.7275
20
-4.87616
11
4.73868
21
-4.87002
0
LINE
8
BLACK
6
CONTINUOUS
10
4.73868
20
-4.87002
11
4.749
21
-4.86252
0
LINE
8
BLACK
6
CONTINUOUS
10
4.749
20
-4.86252
11
4.7583
21
-4.85379
0
LINE
8
BLACK
6
CONTINUOUS
10
4.7583
20
-4.85379
11
4.76643
21
-4.84396
0
LINE
8
BLACK
6
CONTINUOUS
10
4.76643
20
-4.84396
11
4.77327
21
-4.83319
0
LINE
8
BLACK
6
CONTINUOUS
10
4.77327
20
-4.83319
11
4.7787
21
-4.82165
0
LINE
8
BLACK
6
CONTINUOUS
10
4.7787
20
-4.82165
11
4.78264
21
-4.80951
0
LINE
8
BLACK
6
CONTINUOUS
10
4.78264
20
-4.80951
11
4.78503
21
-4.79698
0
LINE
8
BLACK
6
CONTINUOUS
10
4.78503
20
-4.79698
11
4.78583
21
-4.78425
0
LINE
8
BLACK
6
CONTINUOUS
10
4.78583
20
-4.78425
11
4.78503
21
-4.77152
0
LINE
8
BLACK
6
CONTINUOUS
10
4.78503
20
-4.77152
11
4.78264
21
-4.75899
0
LINE
8
BLACK
6
CONTINUOUS
10
4.78264
20
-4.75899
11
4.7787
21
-4.74686
0
LINE
8
BLACK
6
CONTINUOUS
10
4.7787
20
-4.74686
11
4.77327
21
-4.73532
0
LINE
8
BLACK
6
CONTINUOUS
10
4.77327
20
-4.73532
11
4.76643
21
-4.72455
0
LINE
8
BLACK
6
CONTINUOUS
10
4.76643
20
-4.72455
11
4.7583
21
-4.71472
0
LINE
8
BLACK
6
CONTINUOUS
10
4.7583
20
-4.71472
11
4.749
21
-4.70598
0
LINE
8
BLACK
6
CONTINUOUS
10
4.749
20
-4.70598
11
4.73868
21
-4.69849
0
LINE
8
BLACK
6
CONTINUOUS
10
4.73868
20
-4.69849
11
4.7275
21
-4.69234
0
LINE
8
BLACK
6
CONTINUOUS
10
4.7275
20
-4.69234
11
4.71564
21
-4.68765
0
LINE
8
BLACK
6
CONTINUOUS
10
4.71564
20
-4.68765
11
4.70329
21
-4.68447
0
LINE
8
BLACK
6
CONTINUOUS
10
4.70329
20
-4.68447
11
4.69063
21
-4.68287
0
LINE
8
BLACK
6
CONTINUOUS
10
4.69063
20
-4.68287
11
4.67787
21
-4.68287
0
LINE
8
BLACK
6
CONTINUOUS
10
4.67787
20
-4.68287
11
4.66522
21
-4.68447
0
LINE
8
BLACK
6
CONTINUOUS
10
4.66522
20
-4.68447
11
4.65286
21
-4.68765
0
LINE
8
BLACK
6
CONTINUOUS
10
4.65286
20
-4.68765
11
4.641
21
-4.69234
0
LINE
8
BLACK
6
CONTINUOUS
10
4.641
20
-4.69234
11
4.62982
21
-4.69849
0
LINE
8
BLACK
6
CONTINUOUS
10
4.62982
20
-4.69849
11
4.6195
21
-4.70598
0
LINE
8
BLACK
6
CONTINUOUS
10
4.6195
20
-4.70598
11
4.6102
21
-4.71472
0
LINE
8
BLACK
6
CONTINUOUS
10
4.6102
20
-4.71472
11
4.60207
21
-4.72455
0
LINE
8
BLACK
6
CONTINUOUS
10
4.60207
20
-4.72455
11
4.59524
21
-4.73532
0
LINE
8
BLACK
6
CONTINUOUS
10
4.59524
20
-4.73532
11
4.58981
21
-4.74686
0
LINE
8
BLACK
6
CONTINUOUS
10
4.58981
20
-4.74686
11
4.58586
21
-4.75899
0
LINE
8
BLACK
6
CONTINUOUS
10
4.58586
20
-4.75899
11
4.58347
21
-4.77152
0
LINE
8
BLACK
6
CONTINUOUS
10
4.58347
20
-4.77152
11
4.58267
21
-4.78425
0
LINE
8
BLACK
6
CONTINUOUS
10
4.58267
20
-4.78425
11
4.58347
21
-4.79698
0
LINE
8
BLACK
6
CONTINUOUS
10
6.69882
20
-4.46161
11
6.69951
21
-4.4619
0
LINE
8
BLACK
6
CONTINUOUS
10
6.69951
20
-4.4619
11
6.6998
21
-4.4626
0
LINE
8
BLACK
6
CONTINUOUS
10
6.6998
20
-4.4626
11
6.6998
21
-4.59252
0
LINE
8
BLACK
6
CONTINUOUS
10
6.6998
20
-4.59252
11
6.69951
21
-4.59322
0
LINE
8
BLACK
6
CONTINUOUS
10
6.69951
20
-4.59322
11
6.69882
21
-4.5935
0
LINE
8
BLACK
6
CONTINUOUS
10
6.69882
20
-4.5935
11
6.60039
21
-4.5935
0
LINE
8
BLACK
6
CONTINUOUS
10
6.60039
20
-4.5935
11
6.5997
21
-4.59322
0
LINE
8
BLACK
6
CONTINUOUS
10
6.5997
20
-4.59322
11
6.59941
21
-4.59252
0
LINE
8
BLACK
6
CONTINUOUS
10
6.59941
20
-4.59252
11
6.59941
21
-4.59252
0
LINE
8
BLACK
6
CONTINUOUS
10
6.59941
20
-4.59252
11
6.59941
21
-4.4626
0
LINE
8
BLACK
6
CONTINUOUS
10
6.59941
20
-4.4626
11
6.5997
21
-4.4619
0
LINE
8
BLACK
6
CONTINUOUS
10
6.5997
20
-4.4619
11
6.60039
21
-4.46161
0
LINE
8
BLACK
6
CONTINUOUS
10
6.60039
20
-4.46161
11
6.69882
21
-4.46161
0
LINE
8
BLACK
6
CONTINUOUS
10
6.60138
20
-4.46358
11
6.60138
21
-4.59154
0
LINE
8
BLACK
6
CONTINUOUS
10
6.60138
20
-4.59154
11
6.69783
21
-4.59154
0
LINE
8
BLACK
6
CONTINUOUS
10
6.69783
20
-4.59154
11
6.69783
21
-4.46358
0
LINE
8
BLACK
6
CONTINUOUS
10
6.69783
20
-4.46358
11
6.60138
21
-4.46358
0
LINE
8
BLACK
6
CONTINUOUS
10
3.64764
20
-4.4813
11
3.64833
21
-4.48159
0
LINE
8
BLACK
6
CONTINUOUS
10
3.64833
20
-4.48159
11
3.64862
21
-4.48228
0
LINE
8
BLACK
6
CONTINUOUS
10
3.64862
20
-4.48228
11
3.64862
21
-4.58071
0
LINE
8
BLACK
6
CONTINUOUS
10
3.64862
20
-4.58071
11
3.64833
21
-4.5814
0
LINE
8
BLACK
6
CONTINUOUS
10
3.64833
20
-4.5814
11
3.64764
21
-4.58169
0
LINE
8
BLACK
6
CONTINUOUS
10
3.64764
20
-4.58169
11
3.51772
21
-4.58169
0
LINE
8
BLACK
6
CONTINUOUS
10
3.51772
20
-4.58169
11
3.51702
21
-4.5814
0
LINE
8
BLACK
6
CONTINUOUS
10
3.51702
20
-4.5814
11
3.51673
21
-4.58071
0
LINE
8
BLACK
6
CONTINUOUS
10
3.51673
20
-4.58071
11
3.51673
21
-4.58071
0
LINE
8
BLACK
6
CONTINUOUS
10
3.51673
20
-4.58071
11
3.51673
21
-4.48228
0
LINE
8
BLACK
6
CONTINUOUS
10
3.51673
20
-4.48228
11
3.51702
21
-4.48159
0
LINE
8
BLACK
6
CONTINUOUS
10
3.51702
20
-4.48159
11
3.51772
21
-4.4813
0
LINE
8
BLACK
6
CONTINUOUS
10
3.51772
20
-4.4813
11
3.64764
21
-4.4813
0
LINE
8
BLACK
6
CONTINUOUS
10
3.5187
20
-4.48327
11
3.5187
21
-4.57972
0
LINE
8
BLACK
6
CONTINUOUS
10
3.5187
20
-4.57972
11
3.64665
21
-4.57972
0
LINE
8
BLACK
6
CONTINUOUS
10
3.64665
20
-4.57972
11
3.64665
21
-4.48327
0
LINE
8
BLACK
6
CONTINUOUS
10
3.64665
20
-4.48327
11
3.5187
21
-4.48327
0
LINE
8
BLACK
6
CONTINUOUS
10
4.23228
20
-4.19193
11
4.23298
21
-4.19222
0
LINE
8
BLACK
6
CONTINUOUS
10
4.23298
20
-4.19222
11
4.23327
21
-4.19291
0
LINE
8
BLACK
6
CONTINUOUS
10
4.23327
20
-4.19291
11
4.23327
21
-4.38976
0
LINE
8
BLACK
6
CONTINUOUS
10
4.23327
20
-4.38976
11
4.23298
21
-4.39046
0
LINE
8
BLACK
6
CONTINUOUS
10
4.23298
20
-4.39046
11
4.23228
21
-4.39075
0
LINE
8
BLACK
6
CONTINUOUS
10
4.23228
20
-4.39075
11
4.03543
21
-4.39075
0
LINE
8
BLACK
6
CONTINUOUS
10
4.03543
20
-4.39075
11
4.03474
21
-4.39046
0
LINE
8
BLACK
6
CONTINUOUS
10
4.03474
20
-4.39046
11
4.03445
21
-4.38976
0
LINE
8
BLACK
6
CONTINUOUS
10
4.03445
20
-4.38976
11
4.03445
21
-4.38976
0
LINE
8
BLACK
6
CONTINUOUS
10
4.03445
20
-4.38976
11
4.03445
21
-4.19291
0
LINE
8
BLACK
6
CONTINUOUS
10
4.03445
20
-4.19291
11
4.03474
21
-4.19222
0
LINE
8
BLACK
6
CONTINUOUS
10
4.03474
20
-4.19222
11
4.03543
21
-4.19193
0
LINE
8
BLACK
6
CONTINUOUS
10
4.03543
20
-4.19193
11
4.23228
21
-4.19193
0
LINE
8
BLACK
6
CONTINUOUS
10
4.03642
20
-4.1939
11
4.03642
21
-4.38878
0
LINE
8
BLACK
6
CONTINUOUS
10
4.03642
20
-4.38878
11
4.2313
21
-4.38878
0
LINE
8
BLACK
6
CONTINUOUS
10
4.2313
20
-4.38878
11
4.2313
21
-4.1939
0
LINE
8
BLACK
6
CONTINUOUS
10
4.2313
20
-4.1939
11
4.03642
21
-4.1939
0
LINE
8
BLACK
6
CONTINUOUS
10
5.83937
20
-2.48113
11
5.84007
21
-2.48142
0
LINE
8
BLACK
6
CONTINUOUS
10
5.84007
20
-2.48142
11
5.84035
21
-2.48212
0
LINE
8
BLACK
6
CONTINUOUS
10
5.84035
20
-2.48212
11
5.84035
21
-3.5018
0
LINE
8
BLACK
6
CONTINUOUS
10
5.84035
20
-3.5018
11
5.84007
21
-3.5025
0
LINE
8
BLACK
6
CONTINUOUS
10
5.84007
20
-3.5025
11
5.83937
21
-3.50279
0
LINE
8
BLACK
6
CONTINUOUS
10
5.83937
20
-3.50279
11
4.81969
21
-3.50279
0
LINE
8
BLACK
6
CONTINUOUS
10
4.81969
20
-3.50279
11
4.81899
21
-3.5025
0
LINE
8
BLACK
6
CONTINUOUS
10
4.81899
20
-3.5025
11
4.8187
21
-3.5018
0
LINE
8
BLACK
6
CONTINUOUS
10
4.8187
20
-3.5018
11
4.8187
21
-2.48212
0
LINE
8
BLACK
6
CONTINUOUS
10
4.8187
20
-2.48212
11
4.81899
21
-2.48142
0
LINE
8
BLACK
6
CONTINUOUS
10
4.81899
20
-2.48142
11
4.81969
21
-2.48113
0
LINE
8
BLACK
6
CONTINUOUS
10
4.81969
20
-2.48113
11
5.83937
21
-2.48113
0
LINE
8
BLACK
6
CONTINUOUS
10
4.82067
20
-2.4831
11
4.82067
21
-3.50082
0
LINE
8
BLACK
6
CONTINUOUS
10
4.82067
20
-3.50082
11
5.83839
21
-3.50082
0
LINE
8
BLACK
6
CONTINUOUS
10
5.83839
20
-3.50082
11
5.83839
21
-2.4831
0
LINE
8
BLACK
6
CONTINUOUS
10
5.83839
20
-2.4831
11
4.82067
21
-2.4831
0
LINE
8
BLACK
6
CONTINUOUS
10
4.23228
20
-2.93209
11
4.23298
21
-2.93237
0
LINE
8
BLACK
6
CONTINUOUS
10
4.23298
20
-2.93237
11
4.23327
21
-2.93307
0
LINE
8
BLACK
6
CONTINUOUS
10
4.23327
20
-2.93307
11
4.23327
21
-3.12992
0
LINE
8
BLACK
6
CONTINUOUS
10
4.23327
20
-3.12992
11
4.23298
21
-3.13062
0
LINE
8
BLACK
6
CONTINUOUS
10
4.23298
20
-3.13062
11
4.23228
21
-3.13091
0
LINE
8
BLACK
6
CONTINUOUS
10
4.23228
20
-3.13091
11
4.03543
21
-3.13091
0
LINE
8
BLACK
6
CONTINUOUS
10
4.03543
20
-3.13091
11
4.03474
21
-3.13062
0
LINE
8
BLACK
6
CONTINUOUS
10
4.03474
20
-3.13062
11
4.03445
21
-3.12992
0
LINE
8
BLACK
6
CONTINUOUS
10
4.03445
20
-3.12992
11
4.03445
21
-3.12992
0
LINE
8
BLACK
6
CONTINUOUS
10
4.03445
20
-3.12992
11
4.03445
21
-2.93307
0
LINE
8
BLACK
6
CONTINUOUS
10
4.03445
20
-2.93307
11
4.03474
21
-2.93237
0
LINE
8
BLACK
6
CONTINUOUS
10
4.03474
20
-2.93237
11
4.03543
21
-2.93209
0
LINE
8
BLACK
6
CONTINUOUS
10
4.03543
20
-2.93209
11
4.23228
21
-2.93209
0
LINE
8
BLACK
6
CONTINUOUS
10
4.03642
20
-2.93406
11
4.03642
21
-3.12894
0
LINE
8
BLACK
6
CONTINUOUS
10
4.03642
20
-3.12894
11
4.2313
21
-3.12894
0
LINE
8
BLACK
6
CONTINUOUS
10
4.2313
20
-3.12894
11
4.2313
21
-2.93406
0
LINE
8
BLACK
6
CONTINUOUS
10
4.2313
20
-2.93406
11
4.03642
21
-2.93406
0
LINE
8
BLACK
6
CONTINUOUS
10
4.14807
20
-2.51163
11
4.16211
21
-2.51401
0
LINE
8
BLACK
6
CONTINUOUS
10
4.16211
20
-2.51401
11
4.17579
21
-2.51795
0
LINE
8
BLACK
6
CONTINUOUS
10
4.17579
20
-2.51795
11
4.18895
21
-2.5234
0
LINE
8
BLACK
6
CONTINUOUS
10
4.18895
20
-2.5234
11
4.20141
21
-2.53029
0
LINE
8
BLACK
6
CONTINUOUS
10
4.20141
20
-2.53029
11
4.21302
21
-2.53853
0
LINE
8
BLACK
6
CONTINUOUS
10
4.21302
20
-2.53853
11
4.22364
21
-2.54801
0
LINE
8
BLACK
6
CONTINUOUS
10
4.22364
20
-2.54801
11
4.23313
21
-2.55863
0
LINE
8
BLACK
6
CONTINUOUS
10
4.23313
20
-2.55863
11
4.24137
21
-2.57024
0
LINE
8
BLACK
6
CONTINUOUS
10
4.24137
20
-2.57024
11
4.24825
21
-2.58271
0
LINE
8
BLACK
6
CONTINUOUS
10
4.24825
20
-2.58271
11
4.2537
21
-2.59586
0
LINE
8
BLACK
6
CONTINUOUS
10
4.2537
20
-2.59586
11
4.25764
21
-2.60954
0
LINE
8
BLACK
6
CONTINUOUS
10
4.25764
20
-2.60954
11
4.26003
21
-2.62358
0
LINE
8
BLACK
6
CONTINUOUS
10
4.26003
20
-2.62358
11
4.26083
21
-2.6378
0
LINE
8
BLACK
6
CONTINUOUS
10
4.26083
20
-2.6378
11
4.26003
21
-2.65201
0
LINE
8
BLACK
6
CONTINUOUS
10
4.26003
20
-2.65201
11
4.25764
21
-2.66605
0
LINE
8
BLACK
6
CONTINUOUS
10
4.25764
20
-2.66605
11
4.2537
21
-2.67973
0
LINE
8
BLACK
6
CONTINUOUS
10
4.2537
20
-2.67973
11
4.24825
21
-2.69288
0
LINE
8
BLACK
6
CONTINUOUS
10
4.24825
20
-2.69288
11
4.24137
21
-2.70535
0
LINE
8
BLACK
6
CONTINUOUS
10
4.24137
20
-2.70535
11
4.23313
21
-2.71696
0
LINE
8
BLACK
6
CONTINUOUS
10
4.23313
20
-2.71696
11
4.22364
21
-2.72758
0
LINE
8
BLACK
6
CONTINUOUS
10
4.22364
20
-2.72758
11
4.21302
21
-2.73706
0
LINE
8
BLACK
6
CONTINUOUS
10
4.21302
20
-2.73706
11
4.20141
21
-2.7453
0
LINE
8
BLACK
6
CONTINUOUS
10
4.20141
20
-2.7453
11
4.18895
21
-2.75219
0
LINE
8
BLACK
6
CONTINUOUS
10
4.18895
20
-2.75219
11
4.17579
21
-2.75764
0
LINE
8
BLACK
6
CONTINUOUS
10
4.17579
20
-2.75764
11
4.16211
21
-2.76158
0
LINE
8
BLACK
6
CONTINUOUS
10
4.16211
20
-2.76158
11
4.14807
21
-2.76397
0
LINE
8
BLACK
6
CONTINUOUS
10
4.14807
20
-2.76397
11
4.13386
21
-2.76476
0
LINE
8
BLACK
6
CONTINUOUS
10
4.13386
20
-2.76476
11
4.11964
21
-2.76397
0
LINE
8
BLACK
6
CONTINUOUS
10
4.11964
20
-2.76397
11
4.10561
21
-2.76158
0
LINE
8
BLACK
6
CONTINUOUS
10
4.10561
20
-2.76158
11
4.09192
21
-2.75764
0
LINE
8
BLACK
6
CONTINUOUS
10
4.09192
20
-2.75764
11
4.07877
21
-2.75219
0
LINE
8
BLACK
6
CONTINUOUS
10
4.07877
20
-2.75219
11
4.06631
21
-2.7453
0
LINE
8
BLACK
6
CONTINUOUS
10
4.06631
20
-2.7453
11
4.05469
21
-2.73706
0
LINE
8
BLACK
6
CONTINUOUS
10
4.05469
20
-2.73706
11
4.04408
21
-2.72758
0
LINE
8
BLACK
6
CONTINUOUS
10
4.04408
20
-2.72758
11
4.03459
21
-2.71696
0
LINE
8
BLACK
6
CONTINUOUS
10
4.03459
20
-2.71696
11
4.02635
21
-2.70535
0
LINE
8
BLACK
6
CONTINUOUS
10
4.02635
20
-2.70535
11
4.01946
21
-2.69288
0
LINE
8
BLACK
6
CONTINUOUS
10
4.01946
20
-2.69288
11
4.01401
21
-2.67973
0
LINE
8
BLACK
6
CONTINUOUS
10
4.01401
20
-2.67973
11
4.01007
21
-2.66605
0
LINE
8
BLACK
6
CONTINUOUS
10
4.01007
20
-2.66605
11
4.00769
21
-2.65201
0
LINE
8
BLACK
6
CONTINUOUS
10
4.00769
20
-2.65201
11
4.00689
21
-2.6378
0
LINE
8
BLACK
6
CONTINUOUS
10
4.00689
20
-2.6378
11
4.00769
21
-2.62358
0
LINE
8
BLACK
6
CONTINUOUS
10
4.00769
20
-2.62358
11
4.01007
21
-2.60954
0
LINE
8
BLACK
6
CONTINUOUS
10
4.01007
20
-2.60954
11
4.01401
21
-2.59586
0
LINE
8
BLACK
6
CONTINUOUS
10
4.01401
20
-2.59586
11
4.01946
21
-2.58271
0
LINE
8
BLACK
6
CONTINUOUS
10
4.01946
20
-2.58271
11
4.02635
21
-2.57024
0
LINE
8
BLACK
6
CONTINUOUS
10
4.02635
20
-2.57024
11
4.03459
21
-2.55863
0
LINE
8
BLACK
6
CONTINUOUS
10
4.03459
20
-2.55863
11
4.04408
21
-2.54801
0
LINE
8
BLACK
6
CONTINUOUS
10
4.04408
20
-2.54801
11
4.05469
21
-2.53853
0
LINE
8
BLACK
6
CONTINUOUS
10
4.05469
20
-2.53853
11
4.06631
21
-2.53029
0
LINE
8
BLACK
6
CONTINUOUS
10
4.06631
20
-2.53029
11
4.07877
21
-2.5234
0
LINE
8
BLACK
6
CONTINUOUS
10
4.07877
20
-2.5234
11
4.09192
21
-2.51795
0
LINE
8
BLACK
6
CONTINUOUS
10
4.09192
20
-2.51795
11
4.10561
21
-2.51401
0
LINE
8
BLACK
6
CONTINUOUS
10
4.10561
20
-2.51401
11
4.11964
21
-2.51163
0
LINE
8
BLACK
6
CONTINUOUS
10
4.11964
20
-2.51163
11
4.13386
21
-2.51083
0
LINE
8
BLACK
6
CONTINUOUS
10
4.13386
20
-2.51083
11
4.14807
21
-2.51163
0
LINE
8
BLACK
6
CONTINUOUS
10
4.00945
20
-2.65181
11
4.0118
21
-2.66565
0
LINE
8
BLACK
6
CONTINUOUS
10
4.0118
20
-2.66565
11
4.01569
21
-2.67915
0
LINE
8
BLACK
6
CONTINUOUS
10
4.01569
20
-2.67915
11
4.02106
21
-2.69212
0
LINE
8
BLACK
6
CONTINUOUS
10
4.02106
20
-2.69212
11
4.02785
21
-2.7044
0
LINE
8
BLACK
6
CONTINUOUS
10
4.02785
20
-2.7044
11
4.03598
21
-2.71585
0
LINE
8
BLACK
6
CONTINUOUS
10
4.03598
20
-2.71585
11
4.04533
21
-2.72632
0
LINE
8
BLACK
6
CONTINUOUS
10
4.04533
20
-2.72632
11
4.0558
21
-2.73568
0
LINE
8
BLACK
6
CONTINUOUS
10
4.0558
20
-2.73568
11
4.06725
21
-2.7438
0
LINE
8
BLACK
6
CONTINUOUS
10
4.06725
20
-2.7438
11
4.07954
21
-2.75059
0
LINE
8
BLACK
6
CONTINUOUS
10
4.07954
20
-2.75059
11
4.09251
21
-2.75597
0
LINE
8
BLACK
6
CONTINUOUS
10
4.09251
20
-2.75597
11
4.106
21
-2.75985
0
LINE
8
BLACK
6
CONTINUOUS
10
4.106
20
-2.75985
11
4.11984
21
-2.76221
0
LINE
8
BLACK
6
CONTINUOUS
10
4.11984
20
-2.76221
11
4.13386
21
-2.76299
0
LINE
8
BLACK
6
CONTINUOUS
10
4.13386
20
-2.76299
11
4.14788
21
-2.76221
0
LINE
8
BLACK
6
CONTINUOUS
10
4.14788
20
-2.76221
11
4.16172
21
-2.75985
0
LINE
8
BLACK
6
CONTINUOUS
10
4.16172
20
-2.75985
11
4.17521
21
-2.75597
0
LINE
8
BLACK
6
CONTINUOUS
10
4.17521
20
-2.75597
11
4.18818
21
-2.75059
0
LINE
8
BLACK
6
CONTINUOUS
10
4.18818
20
-2.75059
11
4.20047
21
-2.7438
0
LINE
8
BLACK
6
CONTINUOUS
10
4.20047
20
-2.7438
11
4.21192
21
-2.73568
0
LINE
8
BLACK
6
CONTINUOUS
10
4.21192
20
-2.73568
11
4.22239
21
-2.72632
0
LINE
8
BLACK
6
CONTINUOUS
10
4.22239
20
-2.72632
11
4.23174
21
-2.71585
0
LINE
8
BLACK
6
CONTINUOUS
10
4.23174
20
-2.71585
11
4.23987
21
-2.7044
0
LINE
8
BLACK
6
CONTINUOUS
10
4.23987
20
-2.7044
11
4.24666
21
-2.69212
0
LINE
8
BLACK
6
CONTINUOUS
10
4.24666
20
-2.69212
11
4.25203
21
-2.67915
0
LINE
8
BLACK
6
CONTINUOUS
10
4.25203
20
-2.67915
11
4.25592
21
-2.66565
0
LINE
8
BLACK
6
CONTINUOUS
10
4.25592
20
-2.66565
11
4.25827
21
-2.65181
0
LINE
8
BLACK
6
CONTINUOUS
10
4.25827
20
-2.65181
11
4.25906
21
-2.6378
0
LINE
8
BLACK
6
CONTINUOUS
10
4.25906
20
-2.6378
11
4.25827
21
-2.62378
0
LINE
8
BLACK
6
CONTINUOUS
10
4.25827
20
-2.62378
11
4.25592
21
-2.60994
0
LINE
8
BLACK
6
CONTINUOUS
10
4.25592
20
-2.60994
11
4.25203
21
-2.59645
0
LINE
8
BLACK
6
CONTINUOUS
10
4.25203
20
-2.59645
11
4.24666
21
-2.58347
0
LINE
8
BLACK
6
CONTINUOUS
10
4.24666
20
-2.58347
11
4.23987
21
-2.57119
0
LINE
8
BLACK
6
CONTINUOUS
10
4.23987
20
-2.57119
11
4.23174
21
-2.55974
0
LINE
8
BLACK
6
CONTINUOUS
10
4.23174
20
-2.55974
11
4.22239
21
-2.54927
0
LINE
8
BLACK
6
CONTINUOUS
10
4.22239
20
-2.54927
11
4.21192
21
-2.53991
0
LINE
8
BLACK
6
CONTINUOUS
10
4.21192
20
-2.53991
11
4.20047
21
-2.53179
0
LINE
8
BLACK
6
CONTINUOUS
10
4.20047
20
-2.53179
11
4.18818
21
-2.525
0
LINE
8
BLACK
6
CONTINUOUS
10
4.18818
20
-2.525
11
4.17521
21
-2.51962
0
LINE
8
BLACK
6
CONTINUOUS
10
4.17521
20
-2.51962
11
4.16172
21
-2.51574
0
LINE
8
BLACK
6
CONTINUOUS
10
4.16172
20
-2.51574
11
4.14788
21
-2.51339
0
LINE
8
BLACK
6
CONTINUOUS
10
4.14788
20
-2.51339
11
4.13386
21
-2.5126
0
LINE
8
BLACK
6
CONTINUOUS
10
4.13386
20
-2.5126
11
4.11984
21
-2.51339
0
LINE
8
BLACK
6
CONTINUOUS
10
4.11984
20
-2.51339
11
4.106
21
-2.51574
0
LINE
8
BLACK
6
CONTINUOUS
10
4.106
20
-2.51574
11
4.09251
21
-2.51962
0
LINE
8
BLACK
6
CONTINUOUS
10
4.09251
20
-2.51962
11
4.07954
21
-2.525
0
LINE
8
BLACK
6
CONTINUOUS
10
4.07954
20
-2.525
11
4.06725
21
-2.53179
0
LINE
8
BLACK
6
CONTINUOUS
10
4.06725
20
-2.53179
11
4.0558
21
-2.53991
0
LINE
8
BLACK
6
CONTINUOUS
10
4.0558
20
-2.53991
11
4.04533
21
-2.54927
0
LINE
8
BLACK
6
CONTINUOUS
10
4.04533
20
-2.54927
11
4.03598
21
-2.55974
0
LINE
8
BLACK
6
CONTINUOUS
10
4.03598
20
-2.55974
11
4.02785
21
-2.57119
0
LINE
8
BLACK
6
CONTINUOUS
10
4.02785
20
-2.57119
11
4.02106
21
-2.58347
0
LINE
8
BLACK
6
CONTINUOUS
10
4.02106
20
-2.58347
11
4.01569
21
-2.59645
0
LINE
8
BLACK
6
CONTINUOUS
10
4.01569
20
-2.59645
11
4.0118
21
-2.60994
0
LINE
8
BLACK
6
CONTINUOUS
10
4.0118
20
-2.60994
11
4.00945
21
-2.62378
0
LINE
8
BLACK
6
CONTINUOUS
10
4.00945
20
-2.62378
11
4.00866
21
-2.6378
0
LINE
8
BLACK
6
CONTINUOUS
10
4.00866
20
-2.6378
11
4.00945
21
-2.65181
0
LINE
8
BLACK
6
CONTINUOUS
10
4.44882
20
-2.39075
11
4.44951
21
-2.39104
0
LINE
8
BLACK
6
CONTINUOUS
10
4.44951
20
-2.39104
11
4.4498
21
-2.39173
0
LINE
8
BLACK
6
CONTINUOUS
10
4.4498
20
-2.39173
11
4.4498
21
-2.88386
0
LINE
8
BLACK
6
CONTINUOUS
10
4.4498
20
-2.88386
11
4.44951
21
-2.88455
0
LINE
8
BLACK
6
CONTINUOUS
10
4.44951
20
-2.88455
11
4.44882
21
-2.88484
0
LINE
8
BLACK
6
CONTINUOUS
10
4.44882
20
-2.88484
11
3.8189
21
-2.88484
0
LINE
8
BLACK
6
CONTINUOUS
10
3.8189
20
-2.88484
11
3.8182
21
-2.88455
0
LINE
8
BLACK
6
CONTINUOUS
10
3.8182
20
-2.88455
11
3.81791
21
-2.88386
0
LINE
8
BLACK
6
CONTINUOUS
10
3.81791
20
-2.88386
11
3.81791
21
-2.88386
0
LINE
8
BLACK
6
CONTINUOUS
10
3.81791
20
-2.88386
11
3.81791
21
-2.39173
0
LINE
8
BLACK
6
CONTINUOUS
10
3.81791
20
-2.39173
11
3.8182
21
-2.39104
0
LINE
8
BLACK
6
CONTINUOUS
10
3.8182
20
-2.39104
11
3.8189
21
-2.39075
0
LINE
8
BLACK
6
CONTINUOUS
10
3.8189
20
-2.39075
11
4.44882
21
-2.39075
0
LINE
8
BLACK
6
CONTINUOUS
10
3.81988
20
-2.39272
11
3.81988
21
-2.88287
0
LINE
8
BLACK
6
CONTINUOUS
10
3.81988
20
-2.88287
11
4.44783
21
-2.88287
0
LINE
8
BLACK
6
CONTINUOUS
10
4.44783
20
-2.88287
11
4.44783
21
-2.39272
0
LINE
8
BLACK
6
CONTINUOUS
10
4.44783
20
-2.39272
11
3.81988
21
-2.39272
0
LINE
8
BLACK
6
CONTINUOUS
10
4.69356
20
-2.39999
11
4.70583
21
-2.40224
0
LINE
8
BLACK
6
CONTINUOUS
10
4.70583
20
-2.40224
11
4.71775
21
-2.40595
0
LINE
8
BLACK
6
CONTINUOUS
10
4.71775
20
-2.40595
11
4.72913
21
-2.41107
0
LINE
8
BLACK
6
CONTINUOUS
10
4.72913
20
-2.41107
11
4.73981
21
-2.41753
0
LINE
8
BLACK
6
CONTINUOUS
10
4.73981
20
-2.41753
11
4.74963
21
-2.42523
0
LINE
8
BLACK
6
CONTINUOUS
10
4.74963
20
-2.42523
11
4.75846
21
-2.43405
0
LINE
8
BLACK
6
CONTINUOUS
10
4.75846
20
-2.43405
11
4.76615
21
-2.44388
0
LINE
8
BLACK
6
CONTINUOUS
10
4.76615
20
-2.44388
11
4.77261
21
-2.45456
0
LINE
8
BLACK
6
CONTINUOUS
10
4.77261
20
-2.45456
11
4.77773
21
-2.46594
0
LINE
8
BLACK
6
CONTINUOUS
10
4.77773
20
-2.46594
11
4.78145
21
-2.47785
0
LINE
8
BLACK
6
CONTINUOUS
10
4.78145
20
-2.47785
11
4.7837
21
-2.49013
0
LINE
8
BLACK
6
CONTINUOUS
10
4.7837
20
-2.49013
11
4.78445
21
-2.50258
0
LINE
8
BLACK
6
CONTINUOUS
10
4.78445
20
-2.50258
11
4.7837
21
-2.51504
0
LINE
8
BLACK
6
CONTINUOUS
10
4.7837
20
-2.51504
11
4.78145
21
-2.52732
0
LINE
8
BLACK
6
CONTINUOUS
10
4.78145
20
-2.52732
11
4.77773
21
-2.53923
0
LINE
8
BLACK
6
CONTINUOUS
10
4.77773
20
-2.53923
11
4.77261
21
-2.55061
0
LINE
8
BLACK
6
CONTINUOUS
10
4.77261
20
-2.55061
11
4.76615
21
-2.56129
0
LINE
8
BLACK
6
CONTINUOUS
10
4.76615
20
-2.56129
11
4.75846
21
-2.57111
0
LINE
8
BLACK
6
CONTINUOUS
10
4.75846
20
-2.57111
11
4.74963
21
-2.57994
0
LINE
8
BLACK
6
CONTINUOUS
10
4.74963
20
-2.57994
11
4.73981
21
-2.58764
0
LINE
8
BLACK
6
CONTINUOUS
10
4.73981
20
-2.58764
11
4.72913
21
-2.59409
0
LINE
8
BLACK
6
CONTINUOUS
10
4.72913
20
-2.59409
11
4.71775
21
-2.59921
0
LINE
8
BLACK
6
CONTINUOUS
10
4.71775
20
-2.59921
11
4.70583
21
-2.60293
0
LINE
8
BLACK
6
CONTINUOUS
10
4.70583
20
-2.60293
11
4.69356
21
-2.60518
0
LINE
8
BLACK
6
CONTINUOUS
10
4.69356
20
-2.60518
11
4.6811
21
-2.60593
0
LINE
8
BLACK
6
CONTINUOUS
10
4.6811
20
-2.60593
11
4.66865
21
-2.60518
0
LINE
8
BLACK
6
CONTINUOUS
10
4.66865
20
-2.60518
11
4.65637
21
-2.60293
0
LINE
8
BLACK
6
CONTINUOUS
10
4.65637
20
-2.60293
11
4.64446
21
-2.59921
0
LINE
8
BLACK
6
CONTINUOUS
10
4.64446
20
-2.59921
11
4.63307
21
-2.59409
0
LINE
8
BLACK
6
CONTINUOUS
10
4.63307
20
-2.59409
11
4.62239
21
-2.58764
0
LINE
8
BLACK
6
CONTINUOUS
10
4.62239
20
-2.58764
11
4.61257
21
-2.57994
0
LINE
8
BLACK
6
CONTINUOUS
10
4.61257
20
-2.57994
11
4.60375
21
-2.57111
0
LINE
8
BLACK
6
CONTINUOUS
10
4.60375
20
-2.57111
11
4.59605
21
-2.56129
0
LINE
8
BLACK
6
CONTINUOUS
10
4.59605
20
-2.56129
11
4.58959
21
-2.55061
0
LINE
8
BLACK
6
CONTINUOUS
10
4.58959
20
-2.55061
11
4.58447
21
-2.53923
0
LINE
8
BLACK
6
CONTINUOUS
10
4.58447
20
-2.53923
11
4.58076
21
-2.52732
0
LINE
8
BLACK
6
CONTINUOUS
10
4.58076
20
-2.52732
11
4.57851
21
-2.51504
0
LINE
8
BLACK
6
CONTINUOUS
10
4.57851
20
-2.51504
11
4.57776
21
-2.50258
0
LINE
8
BLACK
6
CONTINUOUS
10
4.57776
20
-2.50258
11
4.57851
21
-2.49013
0
LINE
8
BLACK
6
CONTINUOUS
10
4.57851
20
-2.49013
11
4.58076
21
-2.47785
0
LINE
8
BLACK
6
CONTINUOUS
10
4.58076
20
-2.47785
11
4.58447
21
-2.46594
0
LINE
8
BLACK
6
CONTINUOUS
10
4.58447
20
-2.46594
11
4.58959
21
-2.45456
0
LINE
8
BLACK
6
CONTINUOUS
10
4.58959
20
-2.45456
11
4.59605
21
-2.44388
0
LINE
8
BLACK
6
CONTINUOUS
10
4.59605
20
-2.44388
11
4.60375
21
-2.43405
0
LINE
8
BLACK
6
CONTINUOUS
10
4.60375
20
-2.43405
11
4.61257
21
-2.42523
0
LINE
8
BLACK
6
CONTINUOUS
10
4.61257
20
-2.42523
11
4.62239
21
-2.41753
0
LINE
8
BLACK
6
CONTINUOUS
10
4.62239
20
-2.41753
11
4.63307
21
-2.41107
0
LINE
8
BLACK
6
CONTINUOUS
10
4.63307
20
-2.41107
11
4.64446
21
-2.40595
0
LINE
8
BLACK
6
CONTINUOUS
10
4.64446
20
-2.40595
11
4.65637
21
-2.40224
0
LINE
8
BLACK
6
CONTINUOUS
10
4.65637
20
-2.40224
11
4.66865
21
-2.39999
0
LINE
8
BLACK
6
CONTINUOUS
10
4.66865
20
-2.39999
11
4.6811
21
-2.39924
0
LINE
8
BLACK
6
CONTINUOUS
10
4.6811
20
-2.39924
11
4.69356
21
-2.39999
0
LINE
8
BLACK
6
CONTINUOUS
10
4.58032
20
-2.51531
11
4.58272
21
-2.52784
0
LINE
8
BLACK
6
CONTINUOUS
10
4.58272
20
-2.52784
11
4.58666
21
-2.53998
0
LINE
8
BLACK
6
CONTINUOUS
10
4.58666
20
-2.53998
11
4.59209
21
-2.55152
0
LINE
8
BLACK
6
CONTINUOUS
10
4.59209
20
-2.55152
11
4.59892
21
-2.56229
0
LINE
8
BLACK
6
CONTINUOUS
10
4.59892
20
-2.56229
11
4.60705
21
-2.57212
0
LINE
8
BLACK
6
CONTINUOUS
10
4.60705
20
-2.57212
11
4.61635
21
-2.58085
0
LINE
8
BLACK
6
CONTINUOUS
10
4.61635
20
-2.58085
11
4.62667
21
-2.58835
0
LINE
8
BLACK
6
CONTINUOUS
10
4.62667
20
-2.58835
11
4.63785
21
-2.59449
0
LINE
8
BLACK
6
CONTINUOUS
10
4.63785
20
-2.59449
11
4.64971
21
-2.59919
0
LINE
8
BLACK
6
CONTINUOUS
10
4.64971
20
-2.59919
11
4.66207
21
-2.60236
0
LINE
8
BLACK
6
CONTINUOUS
10
4.66207
20
-2.60236
11
4.67472
21
-2.60396
0
LINE
8
BLACK
6
CONTINUOUS
10
4.67472
20
-2.60396
11
4.68748
21
-2.60396
0
LINE
8
BLACK
6
CONTINUOUS
10
4.68748
20
-2.60396
11
4.70014
21
-2.60236
0
LINE
8
BLACK
6
CONTINUOUS
10
4.70014
20
-2.60236
11
4.71249
21
-2.59919
0
LINE
8
BLACK
6
CONTINUOUS
10
4.71249
20
-2.59919
11
4.72435
21
-2.59449
0
LINE
8
BLACK
6
CONTINUOUS
10
4.72435
20
-2.59449
11
4.73553
21
-2.58835
0
LINE
8
BLACK
6
CONTINUOUS
10
4.73553
20
-2.58835
11
4.74585
21
-2.58085
0
LINE
8
BLACK
6
CONTINUOUS
10
4.74585
20
-2.58085
11
4.75515
21
-2.57212
0
LINE
8
BLACK
6
CONTINUOUS
10
4.75515
20
-2.57212
11
4.76328
21
-2.56229
0
LINE
8
BLACK
6
CONTINUOUS
10
4.76328
20
-2.56229
11
4.77012
21
-2.55152
0
LINE
8
BLACK
6
CONTINUOUS
10
4.77012
20
-2.55152
11
4.77555
21
-2.53998
0
LINE
8
BLACK
6
CONTINUOUS
10
4.77555
20
-2.53998
11
4.77949
21
-2.52784
0
LINE
8
BLACK
6
CONTINUOUS
10
4.77949
20
-2.52784
11
4.78188
21
-2.51531
0
LINE
8
BLACK
6
CONTINUOUS
10
4.78188
20
-2.51531
11
4.78268
21
-2.50258
0
LINE
8
BLACK
6
CONTINUOUS
10
4.78268
20
-2.50258
11
4.78188
21
-2.48985
0
LINE
8
BLACK
6
CONTINUOUS
10
4.78188
20
-2.48985
11
4.77949
21
-2.47732
0
LINE
8
BLACK
6
CONTINUOUS
10
4.77949
20
-2.47732
11
4.77555
21
-2.46519
0
LINE
8
BLACK
6
CONTINUOUS
10
4.77555
20
-2.46519
11
4.77012
21
-2.45365
0
LINE
8
BLACK
6
CONTINUOUS
10
4.77012
20
-2.45365
11
4.76328
21
-2.44288
0
LINE
8
BLACK
6
CONTINUOUS
10
4.76328
20
-2.44288
11
4.75515
21
-2.43305
0
LINE
8
BLACK
6
CONTINUOUS
10
4.75515
20
-2.43305
11
4.74585
21
-2.42432
0
LINE
8
BLACK
6
CONTINUOUS
10
4.74585
20
-2.42432
11
4.73553
21
-2.41682
0
LINE
8
BLACK
6
CONTINUOUS
10
4.73553
20
-2.41682
11
4.72435
21
-2.41067
0
LINE
8
BLACK
6
CONTINUOUS
10
4.72435
20
-2.41067
11
4.71249
21
-2.40598
0
LINE
8
BLACK
6
CONTINUOUS
10
4.71249
20
-2.40598
11
4.70014
21
-2.4028
0
LINE
8
BLACK
6
CONTINUOUS
10
4.70014
20
-2.4028
11
4.68748
21
-2.4012
0
LINE
8
BLACK
6
CONTINUOUS
10
4.68748
20
-2.4012
11
4.67472
21
-2.4012
0
LINE
8
BLACK
6
CONTINUOUS
10
4.67472
20
-2.4012
11
4.66207
21
-2.4028
0
LINE
8
BLACK
6
CONTINUOUS
10
4.66207
20
-2.4028
11
4.64971
21
-2.40598
0
LINE
8
BLACK
6
CONTINUOUS
10
4.64971
20
-2.40598
11
4.63785
21
-2.41067
0
LINE
8
BLACK
6
CONTINUOUS
10
4.63785
20
-2.41067
11
4.62667
21
-2.41682
0
LINE
8
BLACK
6
CONTINUOUS
10
4.62667
20
-2.41682
11
4.61635
21
-2.42432
0
LINE
8
BLACK
6
CONTINUOUS
10
4.61635
20
-2.42432
11
4.60705
21
-2.43305
0
LINE
8
BLACK
6
CONTINUOUS
10
4.60705
20
-2.43305
11
4.59892
21
-2.44288
0
LINE
8
BLACK
6
CONTINUOUS
10
4.59892
20
-2.44288
11
4.59209
21
-2.45365
0
LINE
8
BLACK
6
CONTINUOUS
10
4.59209
20
-2.45365
11
4.58666
21
-2.46519
0
LINE
8
BLACK
6
CONTINUOUS
10
4.58666
20
-2.46519
11
4.58272
21
-2.47732
0
LINE
8
BLACK
6
CONTINUOUS
10
4.58272
20
-2.47732
11
4.58032
21
-2.48985
0
LINE
8
BLACK
6
CONTINUOUS
10
4.58032
20
-2.48985
11
4.57952
21
-2.50258
0
LINE
8
BLACK
6
CONTINUOUS
10
4.57952
20
-2.50258
11
4.58032
21
-2.51531
0
LINE
8
BLACK
6
CONTINUOUS
10
5.44783
20
-2.00984
11
5.82776
21
-2.00984
0
LINE
8
BLACK
6
CONTINUOUS
10
5.82776
20
-2.00984
11
5.82845
21
-2.01013
0
LINE
8
BLACK
6
CONTINUOUS
10
5.82845
20
-2.01013
11
5.82874
21
-2.01083
0
LINE
8
BLACK
6
CONTINUOUS
10
5.82874
20
-2.01083
11
5.82874
21
-2.16339
0
LINE
8
BLACK
6
CONTINUOUS
10
5.82874
20
-2.16339
11
5.86122
21
-2.16339
0
LINE
8
BLACK
6
CONTINUOUS
10
5.86122
20
-2.16339
11
5.86192
21
-2.16367
0
LINE
8
BLACK
6
CONTINUOUS
10
5.86192
20
-2.16367
11
5.8622
21
-2.16437
0
LINE
8
BLACK
6
CONTINUOUS
10
5.8622
20
-2.16437
11
5.8622
21
-2.28248
0
LINE
8
BLACK
6
CONTINUOUS
10
5.8622
20
-2.28248
11
5.86192
21
-2.28318
0
LINE
8
BLACK
6
CONTINUOUS
10
5.86192
20
-2.28318
11
5.86122
21
-2.28346
0
LINE
8
BLACK
6
CONTINUOUS
10
5.86122
20
-2.28346
11
5.82874
21
-2.28346
0
LINE
8
BLACK
6
CONTINUOUS
10
5.82874
20
-2.28346
11
5.82874
21
-2.43602
0
LINE
8
BLACK
6
CONTINUOUS
10
5.82874
20
-2.43602
11
5.82845
21
-2.43672
0
LINE
8
BLACK
6
CONTINUOUS
10
5.82845
20
-2.43672
11
5.82776
21
-2.43701
0
LINE
8
BLACK
6
CONTINUOUS
10
5.82776
20
-2.43701
11
5.44783
21
-2.43701
0
LINE
8
BLACK
6
CONTINUOUS
10
5.44783
20
-2.43701
11
5.44783
21
-2.43701
0
LINE
8
BLACK
6
CONTINUOUS
10
5.44783
20
-2.43701
11
5.44734
21
-2.4368
0
LINE
8
BLACK
6
CONTINUOUS
10
5.44734
20
-2.4368
11
5.44714
21
-2.43672
0
LINE
8
BLACK
6
CONTINUOUS
10
5.44714
20
-2.43672
11
5.44714
21
-2.43672
0
LINE
8
BLACK
6
CONTINUOUS
10
5.44714
20
-2.43672
11
5.40186
21
-2.39144
0
LINE
8
BLACK
6
CONTINUOUS
10
5.40186
20
-2.39144
11
5.40157
21
-2.39075
0
LINE
8
BLACK
6
CONTINUOUS
10
5.40157
20
-2.39075
11
5.40157
21
-2.28346
0
LINE
8
BLACK
6
CONTINUOUS
10
5.40157
20
-2.28346
11
5.36909
21
-2.28346
0
LINE
8
BLACK
6
CONTINUOUS
10
5.36909
20
-2.28346
11
5.3684
21
-2.28318
0
LINE
8
BLACK
6
CONTINUOUS
10
5.3684
20
-2.28318
11
5.36811
21
-2.28248
0
LINE
8
BLACK
6
CONTINUOUS
10
5.36811
20
-2.28248
11
5.36811
21
-2.16437
0
LINE
8
BLACK
6
CONTINUOUS
10
5.36811
20
-2.16437
11
5.3684
21
-2.16367
0
LINE
8
BLACK
6
CONTINUOUS
10
5.3684
20
-2.16367
11
5.36909
21
-2.16339
0
LINE
8
BLACK
6
CONTINUOUS
10
5.36909
20
-2.16339
11
5.40157
21
-2.16339
0
LINE
8
BLACK
6
CONTINUOUS
10
5.40157
20
-2.16339
11
5.40157
21
-2.0561
0
LINE
8
BLACK
6
CONTINUOUS
10
5.40157
20
-2.0561
11
5.40186
21
-2.05541
0
LINE
8
BLACK
6
CONTINUOUS
10
5.40186
20
-2.05541
11
5.40186
21
-2.05541
0
LINE
8
BLACK
6
CONTINUOUS
10
5.40186
20
-2.05541
11
5.44714
21
-2.01013
0
LINE
8
BLACK
6
CONTINUOUS
10
5.44714
20
-2.01013
11
5.44714
21
-2.01013
0
LINE
8
BLACK
6
CONTINUOUS
10
5.44714
20
-2.01013
11
5.44734
21
-2.01005
0
LINE
8
BLACK
6
CONTINUOUS
10
5.44734
20
-2.01005
11
5.44783
21
-2.00984
0
LINE
8
BLACK
6
CONTINUOUS
10
5.44783
20
-2.00984
11
5.44783
21
-2.00984
0
LINE
8
BLACK
6
CONTINUOUS
10
5.44824
20
-2.01181
11
5.40354
21
-2.05651
0
LINE
8
BLACK
6
CONTINUOUS
10
5.40354
20
-2.05651
11
5.40354
21
-2.16437
0
LINE
8
BLACK
6
CONTINUOUS
10
5.40354
20
-2.16437
11
5.40326
21
-2.16507
0
LINE
8
BLACK
6
CONTINUOUS
10
5.40326
20
-2.16507
11
5.40256
21
-2.16535
0
LINE
8
BLACK
6
CONTINUOUS
10
5.40256
20
-2.16535
11
5.37008
21
-2.16535
0
LINE
8
BLACK
6
CONTINUOUS
10
5.37008
20
-2.16535
11
5.37008
21
-2.2815
0
LINE
8
BLACK
6
CONTINUOUS
10
5.37008
20
-2.2815
11
5.40256
21
-2.2815
0
LINE
8
BLACK
6
CONTINUOUS
10
5.40256
20
-2.2815
11
5.40326
21
-2.28178
0
LINE
8
BLACK
6
CONTINUOUS
10
5.40326
20
-2.28178
11
5.40354
21
-2.28248
0
LINE
8
BLACK
6
CONTINUOUS
10
5.40354
20
-2.28248
11
5.40354
21
-2.39034
0
LINE
8
BLACK
6
CONTINUOUS
10
5.40354
20
-2.39034
11
5.44824
21
-2.43504
0
LINE
8
BLACK
6
CONTINUOUS
10
5.44824
20
-2.43504
11
5.82677
21
-2.43504
0
LINE
8
BLACK
6
CONTINUOUS
10
5.82677
20
-2.43504
11
5.82677
21
-2.28248
0
LINE
8
BLACK
6
CONTINUOUS
10
5.82677
20
-2.28248
11
5.82706
21
-2.28178
0
LINE
8
BLACK
6
CONTINUOUS
10
5.82706
20
-2.28178
11
5.82776
21
-2.2815
0
LINE
8
BLACK
6
CONTINUOUS
10
5.82776
20
-2.2815
11
5.86024
21
-2.2815
0
LINE
8
BLACK
6
CONTINUOUS
10
5.86024
20
-2.2815
11
5.86024
21
-2.16535
0
LINE
8
BLACK
6
CONTINUOUS
10
5.86024
20
-2.16535
11
5.82776
21
-2.16535
0
LINE
8
BLACK
6
CONTINUOUS
10
5.82776
20
-2.16535
11
5.82706
21
-2.16507
0
LINE
8
BLACK
6
CONTINUOUS
10
5.82706
20
-2.16507
11
5.82677
21
-2.16437
0
LINE
8
BLACK
6
CONTINUOUS
10
5.82677
20
-2.16437
11
5.82677
21
-2.16437
0
LINE
8
BLACK
6
CONTINUOUS
10
5.82677
20
-2.16437
11
5.82677
21
-2.01181
0
LINE
8
BLACK
6
CONTINUOUS
10
5.82677
20
-2.01181
11
5.44824
21
-2.01181
0
LINE
8
BLACK
6
CONTINUOUS
10
1.27953
20
-2.14469
11
1.28022
21
-2.14497
0
LINE
8
BLACK
6
CONTINUOUS
10
1.28022
20
-2.14497
11
1.28051
21
-2.14567
0
LINE
8
BLACK
6
CONTINUOUS
10
1.28051
20
-2.14567
11
1.28051
21
-2.34252
0
LINE
8
BLACK
6
CONTINUOUS
10
1.28051
20
-2.34252
11
1.28022
21
-2.34322
0
LINE
8
BLACK
6
CONTINUOUS
10
1.28022
20
-2.34322
11
1.27953
21
-2.3435
0
LINE
8
BLACK
6
CONTINUOUS
10
1.27953
20
-2.3435
11
1.08268
21
-2.3435
0
LINE
8
BLACK
6
CONTINUOUS
10
1.08268
20
-2.3435
11
1.08198
21
-2.34322
0
LINE
8
BLACK
6
CONTINUOUS
10
1.08198
20
-2.34322
11
1.08169
21
-2.34252
0
LINE
8
BLACK
6
CONTINUOUS
10
1.08169
20
-2.34252
11
1.08169
21
-2.14567
0
LINE
8
BLACK
6
CONTINUOUS
10
1.08169
20
-2.14567
11
1.08198
21
-2.14497
0
LINE
8
BLACK
6
CONTINUOUS
10
1.08198
20
-2.14497
11
1.08268
21
-2.14469
0
LINE
8
BLACK
6
CONTINUOUS
10
1.08268
20
-2.14469
11
1.27953
21
-2.14469
0
LINE
8
BLACK
6
CONTINUOUS
10
1.08366
20
-2.14665
11
1.08366
21
-2.34154
0
LINE
8
BLACK
6
CONTINUOUS
10
1.08366
20
-2.34154
11
1.27854
21
-2.34154
0
LINE
8
BLACK
6
CONTINUOUS
10
1.27854
20
-2.34154
11
1.27854
21
-2.14665
0
LINE
8
BLACK
6
CONTINUOUS
10
1.27854
20
-2.14665
11
1.08366
21
-2.14665
0
LINE
8
BLACK
6
CONTINUOUS
10
7.18504
20
-2.14469
11
7.18574
21
-2.14497
0
LINE
8
BLACK
6
CONTINUOUS
10
7.18574
20
-2.14497
11
7.18602
21
-2.14567
0
LINE
8
BLACK
6
CONTINUOUS
10
7.18602
20
-2.14567
11
7.18602
21
-2.34252
0
LINE
8
BLACK
6
CONTINUOUS
10
7.18602
20
-2.34252
11
7.18574
21
-2.34322
0
LINE
8
BLACK
6
CONTINUOUS
10
7.18574
20
-2.34322
11
7.18504
21
-2.3435
0
LINE
8
BLACK
6
CONTINUOUS
10
7.18504
20
-2.3435
11
6.98819
21
-2.3435
0
LINE
8
BLACK
6
CONTINUOUS
10
6.98819
20
-2.3435
11
6.98749
21
-2.34322
0
LINE
8
BLACK
6
CONTINUOUS
10
6.98749
20
-2.34322
11
6.9872
21
-2.34252
0
LINE
8
BLACK
6
CONTINUOUS
10
6.9872
20
-2.34252
11
6.9872
21
-2.14567
0
LINE
8
BLACK
6
CONTINUOUS
10
6.9872
20
-2.14567
11
6.98749
21
-2.14497
0
LINE
8
BLACK
6
CONTINUOUS
10
6.98749
20
-2.14497
11
6.98819
21
-2.14469
0
LINE
8
BLACK
6
CONTINUOUS
10
6.98819
20
-2.14469
11
7.18504
21
-2.14469
0
LINE
8
BLACK
6
CONTINUOUS
10
6.98917
20
-2.14665
11
6.98917
21
-2.34154
0
LINE
8
BLACK
6
CONTINUOUS
10
6.98917
20
-2.34154
11
7.18406
21
-2.34154
0
LINE
8
BLACK
6
CONTINUOUS
10
7.18406
20
-2.34154
11
7.18406
21
-2.14665
0
LINE
8
BLACK
6
CONTINUOUS
10
7.18406
20
-2.14665
11
6.98917
21
-2.14665
0
LINE
8
BLACK
6
CONTINUOUS
10
6.4685
20
-1.22805
11
6.4692
21
-1.22834
0
LINE
8
BLACK
6
CONTINUOUS
10
6.4692
20
-1.22834
11
6.46949
21
-1.22904
0
LINE
8
BLACK
6
CONTINUOUS
10
6.46949
20
-1.22904
11
6.46949
21
-1.26152
0
LINE
8
BLACK
6
CONTINUOUS
10
6.46949
20
-1.26152
11
6.57677
21
-1.26152
0
LINE
8
BLACK
6
CONTINUOUS
10
6.57677
20
-1.26152
11
6.57747
21
-1.2618
0
LINE
8
BLACK
6
CONTINUOUS
10
6.57747
20
-1.2618
11
6.62274
21
-1.30708
0
LINE
8
BLACK
6
CONTINUOUS
10
6.62274
20
-1.30708
11
6.62274
21
-1.30708
0
LINE
8
BLACK
6
CONTINUOUS
10
6.62274
20
-1.30708
11
6.62274
21
-1.30708
0
LINE
8
BLACK
6
CONTINUOUS
10
6.62274
20
-1.30708
11
6.62303
21
-1.30778
0
LINE
8
BLACK
6
CONTINUOUS
10
6.62303
20
-1.30778
11
6.62303
21
-1.30778
0
LINE
8
BLACK
6
CONTINUOUS
10
6.62303
20
-1.30778
11
6.62303
21
-1.6877
0
LINE
8
BLACK
6
CONTINUOUS
10
6.62303
20
-1.6877
11
6.62274
21
-1.68839
0
LINE
8
BLACK
6
CONTINUOUS
10
6.62274
20
-1.68839
11
6.62205
21
-1.68868
0
LINE
8
BLACK
6
CONTINUOUS
10
6.62205
20
-1.68868
11
6.46949
21
-1.68868
0
LINE
8
BLACK
6
CONTINUOUS
10
6.46949
20
-1.68868
11
6.46949
21
-1.72116
0
LINE
8
BLACK
6
CONTINUOUS
10
6.46949
20
-1.72116
11
6.4692
21
-1.72186
0
LINE
8
BLACK
6
CONTINUOUS
10
6.4692
20
-1.72186
11
6.4685
21
-1.72215
0
LINE
8
BLACK
6
CONTINUOUS
10
6.4685
20
-1.72215
11
6.35039
21
-1.72215
0
LINE
8
BLACK
6
CONTINUOUS
10
6.35039
20
-1.72215
11
6.3497
21
-1.72186
0
LINE
8
BLACK
6
CONTINUOUS
10
6.3497
20
-1.72186
11
6.34941
21
-1.72116
0
LINE
8
BLACK
6
CONTINUOUS
10
6.34941
20
-1.72116
11
6.34941
21
-1.68868
0
LINE
8
BLACK
6
CONTINUOUS
10
6.34941
20
-1.68868
11
6.31398
21
-1.68868
0
LINE
8
BLACK
6
CONTINUOUS
10
6.31398
20
-1.68868
11
6.31398
21
-1.76496
0
LINE
8
BLACK
6
CONTINUOUS
10
6.31398
20
-1.76496
11
6.31377
21
-1.76545
0
LINE
8
BLACK
6
CONTINUOUS
10
6.31377
20
-1.76545
11
6.34941
21
-1.76545
0
LINE
8
BLACK
6
CONTINUOUS
10
6.34941
20
-1.76545
11
6.34941
21
-1.73297
0
LINE
8
BLACK
6
CONTINUOUS
10
6.34941
20
-1.73297
11
6.3497
21
-1.73228
0
LINE
8
BLACK
6
CONTINUOUS
10
6.3497
20
-1.73228
11
6.35039
21
-1.73199
0
LINE
8
BLACK
6
CONTINUOUS
10
6.35039
20
-1.73199
11
6.4685
21
-1.73199
0
LINE
8
BLACK
6
CONTINUOUS
10
6.4685
20
-1.73199
11
6.4692
21
-1.73228
0
LINE
8
BLACK
6
CONTINUOUS
10
6.4692
20
-1.73228
11
6.46949
21
-1.73297
0
LINE
8
BLACK
6
CONTINUOUS
10
6.46949
20
-1.73297
11
6.46949
21
-1.76545
0
LINE
8
BLACK
6
CONTINUOUS
10
6.46949
20
-1.76545
11
6.57677
21
-1.76545
0
LINE
8
BLACK
6
CONTINUOUS
10
6.57677
20
-1.76545
11
6.57747
21
-1.76574
0
LINE
8
BLACK
6
CONTINUOUS
10
6.57747
20
-1.76574
11
6.62274
21
-1.81102
0
LINE
8
BLACK
6
CONTINUOUS
10
6.62274
20
-1.81102
11
6.62274
21
-1.81102
0
LINE
8
BLACK
6
CONTINUOUS
10
6.62274
20
-1.81102
11
6.62274
21
-1.81102
0
LINE
8
BLACK
6
CONTINUOUS
10
6.62274
20
-1.81102
11
6.62303
21
-1.81171
0
LINE
8
BLACK
6
CONTINUOUS
10
6.62303
20
-1.81171
11
6.62303
21
-1.81171
0
LINE
8
BLACK
6
CONTINUOUS
10
6.62303
20
-1.81171
11
6.62303
21
-2.19163
0
LINE
8
BLACK
6
CONTINUOUS
10
6.62303
20
-2.19163
11
6.62274
21
-2.19233
0
LINE
8
BLACK
6
CONTINUOUS
10
6.62274
20
-2.19233
11
6.62205
21
-2.19262
0
LINE
8
BLACK
6
CONTINUOUS
10
6.62205
20
-2.19262
11
6.46949
21
-2.19262
0
LINE
8
BLACK
6
CONTINUOUS
10
6.46949
20
-2.19262
11
6.46949
21
-2.2251
0
LINE
8
BLACK
6
CONTINUOUS
10
6.46949
20
-2.2251
11
6.4692
21
-2.22579
0
LINE
8
BLACK
6
CONTINUOUS
10
6.4692
20
-2.22579
11
6.4685
21
-2.22608
0
LINE
8
BLACK
6
CONTINUOUS
10
6.4685
20
-2.22608
11
6.35039
21
-2.22608
0
LINE
8
BLACK
6
CONTINUOUS
10
6.35039
20
-2.22608
11
6.3497
21
-2.22579
0
LINE
8
BLACK
6
CONTINUOUS
10
6.3497
20
-2.22579
11
6.34941
21
-2.2251
0
LINE
8
BLACK
6
CONTINUOUS
10
6.34941
20
-2.2251
11
6.34941
21
-2.19262
0
LINE
8
BLACK
6
CONTINUOUS
10
6.34941
20
-2.19262
11
6.19685
21
-2.19262
0
LINE
8
BLACK
6
CONTINUOUS
10
6.19685
20
-2.19262
11
6.19615
21
-2.19233
0
LINE
8
BLACK
6
CONTINUOUS
10
6.19615
20
-2.19233
11
6.19587
21
-2.19163
0
LINE
8
BLACK
6
CONTINUOUS
10
6.19587
20
-2.19163
11
6.19587
21
-2.19163
0
LINE
8
BLACK
6
CONTINUOUS
10
6.19587
20
-2.19163
11
6.19587
21
-1.97343
0
LINE
8
BLACK
6
CONTINUOUS
10
6.19587
20
-1.97343
11
6.01575
21
-1.97343
0
LINE
8
BLACK
6
CONTINUOUS
10
6.01575
20
-1.97343
11
6.01505
21
-1.97314
0
LINE
8
BLACK
6
CONTINUOUS
10
6.01505
20
-1.97314
11
6.01476
21
-1.97244
0
LINE
8
BLACK
6
CONTINUOUS
10
6.01476
20
-1.97244
11
6.01476
21
-1.88189
0
LINE
8
BLACK
6
CONTINUOUS
10
6.01476
20
-1.88189
11
6.01505
21
-1.88119
0
LINE
8
BLACK
6
CONTINUOUS
10
6.01505
20
-1.88119
11
6.01575
21
-1.88091
0
LINE
8
BLACK
6
CONTINUOUS
10
6.01575
20
-1.88091
11
6.05807
21
-1.88091
0
LINE
8
BLACK
6
CONTINUOUS
10
6.05807
20
-1.88091
11
6.05807
21
-1.80394
0
LINE
8
BLACK
6
CONTINUOUS
10
6.05807
20
-1.80394
11
6.05836
21
-1.80324
0
LINE
8
BLACK
6
CONTINUOUS
10
6.05836
20
-1.80324
11
6.05906
21
-1.80295
0
LINE
8
BLACK
6
CONTINUOUS
10
6.05906
20
-1.80295
11
6.19291
21
-1.80295
0
LINE
8
BLACK
6
CONTINUOUS
10
6.19291
20
-1.80295
11
6.19361
21
-1.80324
0
LINE
8
BLACK
6
CONTINUOUS
10
6.19361
20
-1.80324
11
6.1939
21
-1.80394
0
LINE
8
BLACK
6
CONTINUOUS
10
6.1939
20
-1.80394
11
6.1939
21
-1.88091
0
LINE
8
BLACK
6
CONTINUOUS
10
6.1939
20
-1.88091
11
6.19587
21
-1.88091
0
LINE
8
BLACK
6
CONTINUOUS
10
6.19587
20
-1.88091
11
6.19587
21
-1.81171
0
LINE
8
BLACK
6
CONTINUOUS
10
6.19587
20
-1.81171
11
6.19615
21
-1.81102
0
LINE
8
BLACK
6
CONTINUOUS
10
6.19615
20
-1.81102
11
6.19615
21
-1.81102
0
LINE
8
BLACK
6
CONTINUOUS
10
6.19615
20
-1.81102
11
6.24123
21
-1.76594
0
LINE
8
BLACK
6
CONTINUOUS
10
6.24123
20
-1.76594
11
6.17913
21
-1.76594
0
LINE
8
BLACK
6
CONTINUOUS
10
6.17913
20
-1.76594
11
6.17844
21
-1.76566
0
LINE
8
BLACK
6
CONTINUOUS
10
6.17844
20
-1.76566
11
6.17815
21
-1.76496
0
LINE
8
BLACK
6
CONTINUOUS
10
6.17815
20
-1.76496
11
6.17815
21
-1.6878
0
LINE
8
BLACK
6
CONTINUOUS
10
6.17815
20
-1.6878
11
6.17844
21
-1.6871
0
LINE
8
BLACK
6
CONTINUOUS
10
6.17844
20
-1.6871
11
6.17913
21
-1.68681
0
LINE
8
BLACK
6
CONTINUOUS
10
6.17913
20
-1.68681
11
6.19587
21
-1.68681
0
LINE
8
BLACK
6
CONTINUOUS
10
6.19587
20
-1.68681
11
6.19587
21
-1.30778
0
LINE
8
BLACK
6
CONTINUOUS
10
6.19587
20
-1.30778
11
6.19615
21
-1.30708
0
LINE
8
BLACK
6
CONTINUOUS
10
6.19615
20
-1.30708
11
6.19615
21
-1.30708
0
LINE
8
BLACK
6
CONTINUOUS
10
6.19615
20
-1.30708
11
6.24143
21
-1.2618
0
LINE
8
BLACK
6
CONTINUOUS
10
6.24143
20
-1.2618
11
6.24143
21
-1.2618
0
LINE
8
BLACK
6
CONTINUOUS
10
6.24143
20
-1.2618
11
6.24163
21
-1.26172
0
LINE
8
BLACK
6
CONTINUOUS
10
6.24163
20
-1.26172
11
6.24213
21
-1.26152
0
LINE
8
BLACK
6
CONTINUOUS
10
6.24213
20
-1.26152
11
6.24213
21
-1.26152
0
LINE
8
BLACK
6
CONTINUOUS
10
6.24213
20
-1.26152
11
6.34941
21
-1.26152
0
LINE
8
BLACK
6
CONTINUOUS
10
6.34941
20
-1.26152
11
6.34941
21
-1.22904
0
LINE
8
BLACK
6
CONTINUOUS
10
6.34941
20
-1.22904
11
6.3497
21
-1.22834
0
LINE
8
BLACK
6
CONTINUOUS
10
6.3497
20
-1.22834
11
6.35039
21
-1.22805
0
LINE
8
BLACK
6
CONTINUOUS
10
6.35039
20
-1.22805
11
6.4685
21
-1.22805
0
LINE
8
BLACK
6
CONTINUOUS
10
6.35138
20
-1.73396
11
6.35138
21
-1.76644
0
LINE
8
BLACK
6
CONTINUOUS
10
6.35138
20
-1.76644
11
6.35109
21
-1.76713
0
LINE
8
BLACK
6
CONTINUOUS
10
6.35109
20
-1.76713
11
6.35039
21
-1.76742
0
LINE
8
BLACK
6
CONTINUOUS
10
6.35039
20
-1.76742
11
6.24253
21
-1.76742
0
LINE
8
BLACK
6
CONTINUOUS
10
6.24253
20
-1.76742
11
6.19783
21
-1.81212
0
LINE
8
BLACK
6
CONTINUOUS
10
6.19783
20
-1.81212
11
6.19783
21
-2.19065
0
LINE
8
BLACK
6
CONTINUOUS
10
6.19783
20
-2.19065
11
6.35039
21
-2.19065
0
LINE
8
BLACK
6
CONTINUOUS
10
6.35039
20
-2.19065
11
6.35109
21
-2.19094
0
LINE
8
BLACK
6
CONTINUOUS
10
6.35109
20
-2.19094
11
6.35138
21
-2.19163
0
LINE
8
BLACK
6
CONTINUOUS
10
6.35138
20
-2.19163
11
6.35138
21
-2.22411
0
LINE
8
BLACK
6
CONTINUOUS
10
6.35138
20
-2.22411
11
6.46752
21
-2.22411
0
LINE
8
BLACK
6
CONTINUOUS
10
6.46752
20
-2.22411
11
6.46752
21
-2.19163
0
LINE
8
BLACK
6
CONTINUOUS
10
6.46752
20
-2.19163
11
6.46781
21
-2.19094
0
LINE
8
BLACK
6
CONTINUOUS
10
6.46781
20
-2.19094
11
6.4685
21
-2.19065
0
LINE
8
BLACK
6
CONTINUOUS
10
6.4685
20
-2.19065
11
6.62106
21
-2.19065
0
LINE
8
BLACK
6
CONTINUOUS
10
6.62106
20
-2.19065
11
6.62106
21
-1.81212
0
LINE
8
BLACK
6
CONTINUOUS
10
6.62106
20
-1.81212
11
6.57636
21
-1.76742
0
LINE
8
BLACK
6
CONTINUOUS
10
6.57636
20
-1.76742
11
6.4685
21
-1.76742
0
LINE
8
BLACK
6
CONTINUOUS
10
6.4685
20
-1.76742
11
6.46781
21
-1.76713
0
LINE
8
BLACK
6
CONTINUOUS
10
6.46781
20
-1.76713
11
6.46752
21
-1.76644
0
LINE
8
BLACK
6
CONTINUOUS
10
6.46752
20
-1.76644
11
6.46752
21
-1.73396
0
LINE
8
BLACK
6
CONTINUOUS
10
6.46752
20
-1.73396
11
6.35138
21
-1.73396
0
LINE
8
BLACK
6
CONTINUOUS
10
6.01673
20
-1.88287
11
6.01673
21
-1.97146
0
LINE
8
BLACK
6
CONTINUOUS
10
6.01673
20
-1.97146
11
6.19587
21
-1.97146
0
LINE
8
BLACK
6
CONTINUOUS
10
6.19587
20
-1.97146
11
6.19587
21
-1.88287
0
LINE
8
BLACK
6
CONTINUOUS
10
6.19587
20
-1.88287
11
6.01673
21
-1.88287
0
LINE
8
BLACK
6
CONTINUOUS
10
6.06004
20
-1.80492
11
6.06004
21
-1.88012
0
LINE
8
BLACK
6
CONTINUOUS
10
6.06004
20
-1.88012
11
6.19193
21
-1.88012
0
LINE
8
BLACK
6
CONTINUOUS
10
6.19193
20
-1.88012
11
6.19193
21
-1.80492
0
LINE
8
BLACK
6
CONTINUOUS
10
6.19193
20
-1.80492
11
6.06004
21
-1.80492
0
LINE
8
BLACK
6
CONTINUOUS
10
6.18012
20
-1.68878
11
6.18012
21
-1.76398
0
LINE
8
BLACK
6
CONTINUOUS
10
6.18012
20
-1.76398
11
6.31201
21
-1.76398
0
LINE
8
BLACK
6
CONTINUOUS
10
6.31201
20
-1.76398
11
6.31201
21
-1.68878
0
LINE
8
BLACK
6
CONTINUOUS
10
6.31201
20
-1.68878
11
6.18012
21
-1.68878
0
LINE
8
BLACK
6
CONTINUOUS
10
6.35138
20
-1.23002
11
6.35138
21
-1.2625
0
LINE
8
BLACK
6
CONTINUOUS
10
6.35138
20
-1.2625
11
6.35109
21
-1.2632
0
LINE
8
BLACK
6
CONTINUOUS
10
6.35109
20
-1.2632
11
6.35039
21
-1.26348
0
LINE
8
BLACK
6
CONTINUOUS
10
6.35039
20
-1.26348
11
6.24253
21
-1.26348
0
LINE
8
BLACK
6
CONTINUOUS
10
6.24253
20
-1.26348
11
6.19783
21
-1.30818
0
LINE
8
BLACK
6
CONTINUOUS
10
6.19783
20
-1.30818
11
6.19783
21
-1.68671
0
LINE
8
BLACK
6
CONTINUOUS
10
6.19783
20
-1.68671
11
6.35039
21
-1.68671
0
LINE
8
BLACK
6
CONTINUOUS
10
6.35039
20
-1.68671
11
6.35109
21
-1.687
0
LINE
8
BLACK
6
CONTINUOUS
10
6.35109
20
-1.687
11
6.35138
21
-1.6877
0
LINE
8
BLACK
6
CONTINUOUS
10
6.35138
20
-1.6877
11
6.35138
21
-1.72018
0
LINE
8
BLACK
6
CONTINUOUS
10
6.35138
20
-1.72018
11
6.46752
21
-1.72018
0
LINE
8
BLACK
6
CONTINUOUS
10
6.46752
20
-1.72018
11
6.46752
21
-1.6877
0
LINE
8
BLACK
6
CONTINUOUS
10
6.46752
20
-1.6877
11
6.46781
21
-1.687
0
LINE
8
BLACK
6
CONTINUOUS
10
6.46781
20
-1.687
11
6.4685
21
-1.68671
0
LINE
8
BLACK
6
CONTINUOUS
10
6.4685
20
-1.68671
11
6.62106
21
-1.68671
0
LINE
8
BLACK
6
CONTINUOUS
10
6.62106
20
-1.68671
11
6.62106
21
-1.30818
0
LINE
8
BLACK
6
CONTINUOUS
10
6.62106
20
-1.30818
11
6.57636
21
-1.26348
0
LINE
8
BLACK
6
CONTINUOUS
10
6.57636
20
-1.26348
11
6.4685
21
-1.26348
0
LINE
8
BLACK
6
CONTINUOUS
10
6.4685
20
-1.26348
11
6.46781
21
-1.2632
0
LINE
8
BLACK
6
CONTINUOUS
10
6.46781
20
-1.2632
11
6.46752
21
-1.2625
0
LINE
8
BLACK
6
CONTINUOUS
10
6.46752
20
-1.2625
11
6.46752
21
-1.23002
0
LINE
8
BLACK
6
CONTINUOUS
10
6.46752
20
-1.23002
11
6.35138
21
-1.23002
0
LINE
8
BLACK
6
CONTINUOUS
10
5.33071
20
-1.80217
11
5.3314
21
-1.80245
0
LINE
8
BLACK
6
CONTINUOUS
10
5.3314
20
-1.80245
11
5.33169
21
-1.80315
0
LINE
8
BLACK
6
CONTINUOUS
10
5.33169
20
-1.80315
11
5.33169
21
-2.07874
0
LINE
8
BLACK
6
CONTINUOUS
10
5.33169
20
-2.07874
11
5.3314
21
-2.07944
0
LINE
8
BLACK
6
CONTINUOUS
10
5.3314
20
-2.07944
11
5.33071
21
-2.07972
0
LINE
8
BLACK
6
CONTINUOUS
10
5.33071
20
-2.07972
11
5.19291
21
-2.07972
0
LINE
8
BLACK
6
CONTINUOUS
10
5.19291
20
-2.07972
11
5.19222
21
-2.07944
0
LINE
8
BLACK
6
CONTINUOUS
10
5.19222
20
-2.07944
11
5.19193
21
-2.07874
0
LINE
8
BLACK
6
CONTINUOUS
10
5.19193
20
-2.07874
11
5.19193
21
-1.80315
0
LINE
8
BLACK
6
CONTINUOUS
10
5.19193
20
-1.80315
11
5.19222
21
-1.80245
0
LINE
8
BLACK
6
CONTINUOUS
10
5.19222
20
-1.80245
11
5.19291
21
-1.80217
0
LINE
8
BLACK
6
CONTINUOUS
10
5.19291
20
-1.80217
11
5.33071
21
-1.80217
0
LINE
8
BLACK
6
CONTINUOUS
10
5.1939
20
-1.80413
11
5.1939
21
-2.07776
0
LINE
8
BLACK
6
CONTINUOUS
10
5.1939
20
-2.07776
11
5.32972
21
-2.07776
0
LINE
8
BLACK
6
CONTINUOUS
10
5.32972
20
-2.07776
11
5.32972
21
-1.80413
0
LINE
8
BLACK
6
CONTINUOUS
10
5.32972
20
-1.80413
11
5.1939
21
-1.80413
0
LINE
8
BLACK
6
CONTINUOUS
10
7.25984
20
-0.640748
11
7.26054
21
-0.641036
0
LINE
8
BLACK
6
CONTINUOUS
10
7.26054
20
-0.641036
11
7.26083
21
-0.641732
0
LINE
8
BLACK
6
CONTINUOUS
10
7.26083
20
-0.641732
11
7.26083
21
-1.25098
0
LINE
8
BLACK
6
CONTINUOUS
10
7.26083
20
-1.25098
11
7.70925
21
-1.25098
0
LINE
8
BLACK
6
CONTINUOUS
10
7.70925
20
-1.25098
11
7.70995
21
-1.25127
0
LINE
8
BLACK
6
CONTINUOUS
10
7.70995
20
-1.25127
11
7.71024
21
-1.25197
0
LINE
8
BLACK
6
CONTINUOUS
10
7.71024
20
-1.25197
11
7.71024
21
-2.04843
0
LINE
8
BLACK
6
CONTINUOUS
10
7.71024
20
-2.04843
11
7.70995
21
-2.04912
0
LINE
8
BLACK
6
CONTINUOUS
10
7.70995
20
-2.04912
11
7.70925
21
-2.04941
0
LINE
8
BLACK
6
CONTINUOUS
10
7.70925
20
-2.04941
11
6.62539
21
-2.04941
0
LINE
8
BLACK
6
CONTINUOUS
10
6.62539
20
-2.04941
11
6.6247
21
-2.04912
0
LINE
8
BLACK
6
CONTINUOUS
10
6.6247
20
-2.04912
11
6.62441
21
-2.04843
0
LINE
8
BLACK
6
CONTINUOUS
10
6.62441
20
-2.04843
11
6.62441
21
-1.25197
0
LINE
8
BLACK
6
CONTINUOUS
10
6.62441
20
-1.25197
11
6.6247
21
-1.25127
0
LINE
8
BLACK
6
CONTINUOUS
10
6.6247
20
-1.25127
11
6.62539
21
-1.25098
0
LINE
8
BLACK
6
CONTINUOUS
10
6.62539
20
-1.25098
11
6.86516
21
-1.25098
0
LINE
8
BLACK
6
CONTINUOUS
10
6.86516
20
-1.25098
11
6.86516
21
-1.17815
0
LINE
8
BLACK
6
CONTINUOUS
10
6.86516
20
-1.17815
11
6.8189
21
-1.17815
0
LINE
8
BLACK
6
CONTINUOUS
10
6.8189
20
-1.17815
11
6.8182
21
-1.17786
0
LINE
8
BLACK
6
CONTINUOUS
10
6.8182
20
-1.17786
11
6.81791
21
-1.17717
0
LINE
8
BLACK
6
CONTINUOUS
10
6.81791
20
-1.17717
11
6.81791
21
-0.980315
0
LINE
8
BLACK
6
CONTINUOUS
10
6.81791
20
-0.980315
11
6.8182
21
-0.979619
0
LINE
8
BLACK
6
CONTINUOUS
10
6.8182
20
-0.979619
11
6.8189
21
-0.979331
0
LINE
8
BLACK
6
CONTINUOUS
10
6.8189
20
-0.979331
11
6.86516
21
-0.979331
0
LINE
8
BLACK
6
CONTINUOUS
10
6.86516
20
-0.979331
11
6.86516
21
-0.641732
0
LINE
8
BLACK
6
CONTINUOUS
10
6.86516
20
-0.641732
11
6.86545
21
-0.641036
0
LINE
8
BLACK
6
CONTINUOUS
10
6.86545
20
-0.641036
11
6.86614
21
-0.640748
0
LINE
8
BLACK
6
CONTINUOUS
10
6.86614
20
-0.640748
11
7.25984
21
-0.640748
0
LINE
8
BLACK
6
CONTINUOUS
10
7.25984
20
-1.25295
11
6.86614
21
-1.25295
0
LINE
8
BLACK
6
CONTINUOUS
10
6.86614
20
-1.25295
11
6.62638
21
-1.25295
0
LINE
8
BLACK
6
CONTINUOUS
10
6.62638
20
-1.25295
11
6.62638
21
-2.04744
0
LINE
8
BLACK
6
CONTINUOUS
10
6.62638
20
-2.04744
11
7.70827
21
-2.04744
0
LINE
8
BLACK
6
CONTINUOUS
10
7.70827
20
-2.04744
11
7.70827
21
-1.25295
0
LINE
8
BLACK
6
CONTINUOUS
10
7.70827
20
-1.25295
11
7.25984
21
-1.25295
0
LINE
8
BLACK
6
CONTINUOUS
10
6.86713
20
-0.642717
11
6.86713
21
-0.980315
0
LINE
8
BLACK
6
CONTINUOUS
10
6.86713
20
-0.980315
11
6.86684
21
-0.981011
0
LINE
8
BLACK
6
CONTINUOUS
10
6.86684
20
-0.981011
11
6.86614
21
-0.981299
0
LINE
8
BLACK
6
CONTINUOUS
10
6.86614
20
-0.981299
11
6.81988
21
-0.981299
0
LINE
8
BLACK
6
CONTINUOUS
10
6.81988
20
-0.981299
11
6.81988
21
-1.17618
0
LINE
8
BLACK
6
CONTINUOUS
10
6.81988
20
-1.17618
11
6.86614
21
-1.17618
0
LINE
8
BLACK
6
CONTINUOUS
10
6.86614
20
-1.17618
11
6.86684
21
-1.17647
0
LINE
8
BLACK
6
CONTINUOUS
10
6.86684
20
-1.17647
11
6.86713
21
-1.17717
0
LINE
8
BLACK
6
CONTINUOUS
10
6.86713
20
-1.17717
11
6.86713
21
-1.25098
0
LINE
8
BLACK
6
CONTINUOUS
10
6.86713
20
-1.25098
11
7.25886
21
-1.25098
0
LINE
8
BLACK
6
CONTINUOUS
10
7.25886
20
-1.25098
11
7.25886
21
-0.642717
0
LINE
8
BLACK
6
CONTINUOUS
10
7.25886
20
-0.642717
11
6.86713
21
-0.642717
0
LINE
8
BLACK
6
CONTINUOUS
10
1.64291
20
-1.2498
11
1.64361
21
-1.25009
0
LINE
8
BLACK
6
CONTINUOUS
10
1.64361
20
-1.25009
11
1.6439
21
-1.25079
0
LINE
8
BLACK
6
CONTINUOUS
10
1.6439
20
-1.25079
11
1.6439
21
-2.04724
0
LINE
8
BLACK
6
CONTINUOUS
10
1.6439
20
-2.04724
11
1.64361
21
-2.04794
0
LINE
8
BLACK
6
CONTINUOUS
10
1.64361
20
-2.04794
11
1.64291
21
-2.04823
0
LINE
8
BLACK
6
CONTINUOUS
10
1.64291
20
-2.04823
11
0.559055
21
-2.04823
0
LINE
8
BLACK
6
CONTINUOUS
10
0.559055
20
-2.04823
11
0.558359
21
-2.04794
0
LINE
8
BLACK
6
CONTINUOUS
10
0.558359
20
-2.04794
11
0.558071
21
-2.04724
0
LINE
8
BLACK
6
CONTINUOUS
10
0.558071
20
-2.04724
11
0.558071
21
-2.04724
0
LINE
8
BLACK
6
CONTINUOUS
10
0.558071
20
-2.04724
11
0.558071
21
-1.25079
0
LINE
8
BLACK
6
CONTINUOUS
10
0.558071
20
-1.25079
11
0.558359
21
-1.25009
0
LINE
8
BLACK
6
CONTINUOUS
10
0.558359
20
-1.25009
11
0.559055
21
-1.2498
0
LINE
8
BLACK
6
CONTINUOUS
10
0.559055
20
-1.2498
11
1.64291
21
-1.2498
0
LINE
8
BLACK
6
CONTINUOUS
10
0.560039
20
-1.25177
11
0.560039
21
-2.04626
0
LINE
8
BLACK
6
CONTINUOUS
10
0.560039
20
-2.04626
11
1.64193
21
-2.04626
0
LINE
8
BLACK
6
CONTINUOUS
10
1.64193
20
-2.04626
11
1.64193
21
-1.25177
0
LINE
8
BLACK
6
CONTINUOUS
10
1.64193
20
-1.25177
11
0.560039
21
-1.25177
0
LINE
8
BLACK
6
CONTINUOUS
10
2.7185
20
-1.78051
11
2.7192
21
-1.7808
0
LINE
8
BLACK
6
CONTINUOUS
10
2.7192
20
-1.7808
11
2.71949
21
-1.7815
0
LINE
8
BLACK
6
CONTINUOUS
10
2.71949
20
-1.7815
11
2.71949
21
-1.99803
0
LINE
8
BLACK
6
CONTINUOUS
10
2.71949
20
-1.99803
11
2.7192
21
-1.99873
0
LINE
8
BLACK
6
CONTINUOUS
10
2.7192
20
-1.99873
11
2.7185
21
-1.99902
0
LINE
8
BLACK
6
CONTINUOUS
10
2.7185
20
-1.99902
11
2.44685
21
-1.99902
0
LINE
8
BLACK
6
CONTINUOUS
10
2.44685
20
-1.99902
11
2.44615
21
-1.99873
0
LINE
8
BLACK
6
CONTINUOUS
10
2.44615
20
-1.99873
11
2.44587
21
-1.99803
0
LINE
8
BLACK
6
CONTINUOUS
10
2.44587
20
-1.99803
11
2.44587
21
-1.7815
0
LINE
8
BLACK
6
CONTINUOUS
10
2.44587
20
-1.7815
11
2.44615
21
-1.7808
0
LINE
8
BLACK
6
CONTINUOUS
10
2.44615
20
-1.7808
11
2.44685
21
-1.78051
0
LINE
8
BLACK
6
CONTINUOUS
10
2.44685
20
-1.78051
11
2.7185
21
-1.78051
0
LINE
8
BLACK
6
CONTINUOUS
10
2.44783
20
-1.78248
11
2.44783
21
-1.99705
0
LINE
8
BLACK
6
CONTINUOUS
10
2.44783
20
-1.99705
11
2.71752
21
-1.99705
0
LINE
8
BLACK
6
CONTINUOUS
10
2.71752
20
-1.99705
11
2.71752
21
-1.78248
0
LINE
8
BLACK
6
CONTINUOUS
10
2.71752
20
-1.78248
11
2.44783
21
-1.78248
0
LINE
8
BLACK
6
CONTINUOUS
10
3.70276
20
-1.78051
11
3.70345
21
-1.7808
0
LINE
8
BLACK
6
CONTINUOUS
10
3.70345
20
-1.7808
11
3.70374
21
-1.7815
0
LINE
8
BLACK
6
CONTINUOUS
10
3.70374
20
-1.7815
11
3.70374
21
-1.99803
0
LINE
8
BLACK
6
CONTINUOUS
10
3.70374
20
-1.99803
11
3.70345
21
-1.99873
0
LINE
8
BLACK
6
CONTINUOUS
10
3.70345
20
-1.99873
11
3.70276
21
-1.99902
0
LINE
8
BLACK
6
CONTINUOUS
10
3.70276
20
-1.99902
11
3.4311
21
-1.99902
0
LINE
8
BLACK
6
CONTINUOUS
10
3.4311
20
-1.99902
11
3.43041
21
-1.99873
0
LINE
8
BLACK
6
CONTINUOUS
10
3.43041
20
-1.99873
11
3.43012
21
-1.99803
0
LINE
8
BLACK
6
CONTINUOUS
10
3.43012
20
-1.99803
11
3.43012
21
-1.7815
0
LINE
8
BLACK
6
CONTINUOUS
10
3.43012
20
-1.7815
11
3.43041
21
-1.7808
0
LINE
8
BLACK
6
CONTINUOUS
10
3.43041
20
-1.7808
11
3.4311
21
-1.78051
0
LINE
8
BLACK
6
CONTINUOUS
10
3.4311
20
-1.78051
11
3.70276
21
-1.78051
0
LINE
8
BLACK
6
CONTINUOUS
10
3.43209
20
-1.78248
11
3.43209
21
-1.99705
0
LINE
8
BLACK
6
CONTINUOUS
10
3.43209
20
-1.99705
11
3.70177
21
-1.99705
0
LINE
8
BLACK
6
CONTINUOUS
10
3.70177
20
-1.99705
11
3.70177
21
-1.78248
0
LINE
8
BLACK
6
CONTINUOUS
10
3.70177
20
-1.78248
11
3.43209
21
-1.78248
0
LINE
8
BLACK
6
CONTINUOUS
10
4.68701
20
-1.78051
11
4.6877
21
-1.7808
0
LINE
8
BLACK
6
CONTINUOUS
10
4.6877
20
-1.7808
11
4.68799
21
-1.7815
0
LINE
8
BLACK
6
CONTINUOUS
10
4.68799
20
-1.7815
11
4.68799
21
-1.99803
0
LINE
8
BLACK
6
CONTINUOUS
10
4.68799
20
-1.99803
11
4.6877
21
-1.99873
0
LINE
8
BLACK
6
CONTINUOUS
10
4.6877
20
-1.99873
11
4.68701
21
-1.99902
0
LINE
8
BLACK
6
CONTINUOUS
10
4.68701
20
-1.99902
11
4.41535
21
-1.99902
0
LINE
8
BLACK
6
CONTINUOUS
10
4.41535
20
-1.99902
11
4.41466
21
-1.99873
0
LINE
8
BLACK
6
CONTINUOUS
10
4.41466
20
-1.99873
11
4.41437
21
-1.99803
0
LINE
8
BLACK
6
CONTINUOUS
10
4.41437
20
-1.99803
11
4.41437
21
-1.7815
0
LINE
8
BLACK
6
CONTINUOUS
10
4.41437
20
-1.7815
11
4.41466
21
-1.7808
0
LINE
8
BLACK
6
CONTINUOUS
10
4.41466
20
-1.7808
11
4.41535
21
-1.78051
0
LINE
8
BLACK
6
CONTINUOUS
10
4.41535
20
-1.78051
11
4.68701
21
-1.78051
0
LINE
8
BLACK
6
CONTINUOUS
10
4.41634
20
-1.78248
11
4.41634
21
-1.99705
0
LINE
8
BLACK
6
CONTINUOUS
10
4.41634
20
-1.99705
11
4.68602
21
-1.99705
0
LINE
8
BLACK
6
CONTINUOUS
10
4.68602
20
-1.99705
11
4.68602
21
-1.78248
0
LINE
8
BLACK
6
CONTINUOUS
10
4.68602
20
-1.78248
11
4.41634
21
-1.78248
0
LINE
8
BLACK
6
CONTINUOUS
10
5.67126
20
-1.78051
11
5.67196
21
-1.7808
0
LINE
8
BLACK
6
CONTINUOUS
10
5.67196
20
-1.7808
11
5.67224
21
-1.7815
0
LINE
8
BLACK
6
CONTINUOUS
10
5.67224
20
-1.7815
11
5.67224
21
-1.99803
0
LINE
8
BLACK
6
CONTINUOUS
10
5.67224
20
-1.99803
11
5.67196
21
-1.99873
0
LINE
8
BLACK
6
CONTINUOUS
10
5.67196
20
-1.99873
11
5.67126
21
-1.99902
0
LINE
8
BLACK
6
CONTINUOUS
10
5.67126
20
-1.99902
11
5.39961
21
-1.99902
0
LINE
8
BLACK
6
CONTINUOUS
10
5.39961
20
-1.99902
11
5.39891
21
-1.99873
0
LINE
8
BLACK
6
CONTINUOUS
10
5.39891
20
-1.99873
11
5.39862
21
-1.99803
0
LINE
8
BLACK
6
CONTINUOUS
10
5.39862
20
-1.99803
11
5.39862
21
-1.7815
0
LINE
8
BLACK
6
CONTINUOUS
10
5.39862
20
-1.7815
11
5.39891
21
-1.7808
0
LINE
8
BLACK
6
CONTINUOUS
10
5.39891
20
-1.7808
11
5.39961
21
-1.78051
0
LINE
8
BLACK
6
CONTINUOUS
10
5.39961
20
-1.78051
11
5.67126
21
-1.78051
0
LINE
8
BLACK
6
CONTINUOUS
10
5.40059
20
-1.78248
11
5.40059
21
-1.99705
0
LINE
8
BLACK
6
CONTINUOUS
10
5.40059
20
-1.99705
11
5.67028
21
-1.99705
0
LINE
8
BLACK
6
CONTINUOUS
10
5.67028
20
-1.99705
11
5.67028
21
-1.78248
0
LINE
8
BLACK
6
CONTINUOUS
10
5.67028
20
-1.78248
11
5.40059
21
-1.78248
0
LINE
8
BLACK
6
CONTINUOUS
10
3.01594
20
-1.8376
11
3.01664
21
-1.83789
0
LINE
8
BLACK
6
CONTINUOUS
10
3.01664
20
-1.83789
11
3.01693
21
-1.83858
0
LINE
8
BLACK
6
CONTINUOUS
10
3.01693
20
-1.83858
11
3.01693
21
-1.91339
0
LINE
8
BLACK
6
CONTINUOUS
10
3.01693
20
-1.91339
11
3.01664
21
-1.91408
0
LINE
8
BLACK
6
CONTINUOUS
10
3.01664
20
-1.91408
11
3.01594
21
-1.91437
0
LINE
8
BLACK
6
CONTINUOUS
10
3.01594
20
-1.91437
11
2.88366
21
-1.91437
0
LINE
8
BLACK
6
CONTINUOUS
10
2.88366
20
-1.91437
11
2.88297
21
-1.91408
0
LINE
8
BLACK
6
CONTINUOUS
10
2.88297
20
-1.91408
11
2.88268
21
-1.91339
0
LINE
8
BLACK
6
CONTINUOUS
10
2.88268
20
-1.91339
11
2.88268
21
-1.83858
0
LINE
8
BLACK
6
CONTINUOUS
10
2.88268
20
-1.83858
11
2.88297
21
-1.83789
0
LINE
8
BLACK
6
CONTINUOUS
10
2.88297
20
-1.83789
11
2.88366
21
-1.8376
0
LINE
8
BLACK
6
CONTINUOUS
10
2.88366
20
-1.8376
11
3.01594
21
-1.8376
0
LINE
8
BLACK
6
CONTINUOUS
10
2.88465
20
-1.83957
11
2.88465
21
-1.9124
0
LINE
8
BLACK
6
CONTINUOUS
10
2.88465
20
-1.9124
11
3.01496
21
-1.9124
0
LINE
8
BLACK
6
CONTINUOUS
10
3.01496
20
-1.9124
11
3.01496
21
-1.83957
0
LINE
8
BLACK
6
CONTINUOUS
10
3.01496
20
-1.83957
11
2.88465
21
-1.83957
0
LINE
8
BLACK
6
CONTINUOUS
10
6.04429
20
-1.77362
11
6.04499
21
-1.77391
0
LINE
8
BLACK
6
CONTINUOUS
10
6.04499
20
-1.77391
11
6.04528
21
-1.77461
0
LINE
8
BLACK
6
CONTINUOUS
10
6.04528
20
-1.77461
11
6.04528
21
-1.86516
0
LINE
8
BLACK
6
CONTINUOUS
10
6.04528
20
-1.86516
11
6.04499
21
-1.86585
0
LINE
8
BLACK
6
CONTINUOUS
10
6.04499
20
-1.86585
11
6.04429
21
-1.86614
0
LINE
8
BLACK
6
CONTINUOUS
10
6.04429
20
-1.86614
11
5.86319
21
-1.86614
0
LINE
8
BLACK
6
CONTINUOUS
10
5.86319
20
-1.86614
11
5.86249
21
-1.86585
0
LINE
8
BLACK
6
CONTINUOUS
10
5.86249
20
-1.86585
11
5.8622
21
-1.86516
0
LINE
8
BLACK
6
CONTINUOUS
10
5.8622
20
-1.86516
11
5.8622
21
-1.86516
0
LINE
8
BLACK
6
CONTINUOUS
10
5.8622
20
-1.86516
11
5.8622
21
-1.77461
0
LINE
8
BLACK
6
CONTINUOUS
10
5.8622
20
-1.77461
11
5.86249
21
-1.77391
0
LINE
8
BLACK
6
CONTINUOUS
10
5.86249
20
-1.77391
11
5.86319
21
-1.77362
0
LINE
8
BLACK
6
CONTINUOUS
10
5.86319
20
-1.77362
11
6.04429
21
-1.77362
0
LINE
8
BLACK
6
CONTINUOUS
10
5.86417
20
-1.77559
11
5.86417
21
-1.86417
0
LINE
8
BLACK
6
CONTINUOUS
10
5.86417
20
-1.86417
11
6.04331
21
-1.86417
0
LINE
8
BLACK
6
CONTINUOUS
10
6.04331
20
-1.86417
11
6.04331
21
-1.77559
0
LINE
8
BLACK
6
CONTINUOUS
10
6.04331
20
-1.77559
11
5.86417
21
-1.77559
0
LINE
8
BLACK
6
CONTINUOUS
10
2.64567
20
-1.69272
11
2.64637
21
-1.693
0
LINE
8
BLACK
6
CONTINUOUS
10
2.64637
20
-1.693
11
2.64665
21
-1.6937
0
LINE
8
BLACK
6
CONTINUOUS
10
2.64665
20
-1.6937
11
2.64665
21
-1.77087
0
LINE
8
BLACK
6
CONTINUOUS
10
2.64665
20
-1.77087
11
2.64637
21
-1.77156
0
LINE
8
BLACK
6
CONTINUOUS
10
2.64637
20
-1.77156
11
2.64567
21
-1.77185
0
LINE
8
BLACK
6
CONTINUOUS
10
2.64567
20
-1.77185
11
2.51181
21
-1.77185
0
LINE
8
BLACK
6
CONTINUOUS
10
2.51181
20
-1.77185
11
2.51112
21
-1.77156
0
LINE
8
BLACK
6
CONTINUOUS
10
2.51112
20
-1.77156
11
2.51083
21
-1.77087
0
LINE
8
BLACK
6
CONTINUOUS
10
2.51083
20
-1.77087
11
2.51083
21
-1.6937
0
LINE
8
BLACK
6
CONTINUOUS
10
2.51083
20
-1.6937
11
2.51112
21
-1.693
0
LINE
8
BLACK
6
CONTINUOUS
10
2.51112
20
-1.693
11
2.51181
21
-1.69272
0
LINE
8
BLACK
6
CONTINUOUS
10
2.51181
20
-1.69272
11
2.64567
21
-1.69272
0
LINE
8
BLACK
6
CONTINUOUS
10
2.5128
20
-1.69469
11
2.5128
21
-1.76988
0
LINE
8
BLACK
6
CONTINUOUS
10
2.5128
20
-1.76988
11
2.64469
21
-1.76988
0
LINE
8
BLACK
6
CONTINUOUS
10
2.64469
20
-1.76988
11
2.64469
21
-1.69469
0
LINE
8
BLACK
6
CONTINUOUS
10
2.64469
20
-1.69469
11
2.5128
21
-1.69469
0
LINE
8
BLACK
6
CONTINUOUS
10
3.62992
20
-1.69272
11
3.63062
21
-1.693
0
LINE
8
BLACK
6
CONTINUOUS
10
3.63062
20
-1.693
11
3.63091
21
-1.6937
0
LINE
8
BLACK
6
CONTINUOUS
10
3.63091
20
-1.6937
11
3.63091
21
-1.77087
0
LINE
8
BLACK
6
CONTINUOUS
10
3.63091
20
-1.77087
11
3.63062
21
-1.77156
0
LINE
8
BLACK
6
CONTINUOUS
10
3.63062
20
-1.77156
11
3.62992
21
-1.77185
0
LINE
8
BLACK
6
CONTINUOUS
10
3.62992
20
-1.77185
11
3.49606
21
-1.77185
0
LINE
8
BLACK
6
CONTINUOUS
10
3.49606
20
-1.77185
11
3.49537
21
-1.77156
0
LINE
8
BLACK
6
CONTINUOUS
10
3.49537
20
-1.77156
11
3.49508
21
-1.77087
0
LINE
8
BLACK
6
CONTINUOUS
10
3.49508
20
-1.77087
11
3.49508
21
-1.6937
0
LINE
8
BLACK
6
CONTINUOUS
10
3.49508
20
-1.6937
11
3.49537
21
-1.693
0
LINE
8
BLACK
6
CONTINUOUS
10
3.49537
20
-1.693
11
3.49606
21
-1.69272
0
LINE
8
BLACK
6
CONTINUOUS
10
3.49606
20
-1.69272
11
3.62992
21
-1.69272
0
LINE
8
BLACK
6
CONTINUOUS
10
3.49705
20
-1.69469
11
3.49705
21
-1.76988
0
LINE
8
BLACK
6
CONTINUOUS
10
3.49705
20
-1.76988
11
3.62894
21
-1.76988
0
LINE
8
BLACK
6
CONTINUOUS
10
3.62894
20
-1.76988
11
3.62894
21
-1.69469
0
LINE
8
BLACK
6
CONTINUOUS
10
3.62894
20
-1.69469
11
3.49705
21
-1.69469
0
LINE
8
BLACK
6
CONTINUOUS
10
4.61417
20
-1.69272
11
4.61487
21
-1.693
0
LINE
8
BLACK
6
CONTINUOUS
10
4.61487
20
-1.693
11
4.61516
21
-1.6937
0
LINE
8
BLACK
6
CONTINUOUS
10
4.61516
20
-1.6937
11
4.61516
21
-1.77087
0
LINE
8
BLACK
6
CONTINUOUS
10
4.61516
20
-1.77087
11
4.61487
21
-1.77156
0
LINE
8
BLACK
6
CONTINUOUS
10
4.61487
20
-1.77156
11
4.61417
21
-1.77185
0
LINE
8
BLACK
6
CONTINUOUS
10
4.61417
20
-1.77185
11
4.48031
21
-1.77185
0
LINE
8
BLACK
6
CONTINUOUS
10
4.48031
20
-1.77185
11
4.47962
21
-1.77156
0
LINE
8
BLACK
6
CONTINUOUS
10
4.47962
20
-1.77156
11
4.47933
21
-1.77087
0
LINE
8
BLACK
6
CONTINUOUS
10
4.47933
20
-1.77087
11
4.47933
21
-1.6937
0
LINE
8
BLACK
6
CONTINUOUS
10
4.47933
20
-1.6937
11
4.47962
21
-1.693
0
LINE
8
BLACK
6
CONTINUOUS
10
4.47962
20
-1.693
11
4.48031
21
-1.69272
0
LINE
8
BLACK
6
CONTINUOUS
10
4.48031
20
-1.69272
11
4.61417
21
-1.69272
0
LINE
8
BLACK
6
CONTINUOUS
10
4.4813
20
-1.69469
11
4.4813
21
-1.76988
0
LINE
8
BLACK
6
CONTINUOUS
10
4.4813
20
-1.76988
11
4.61319
21
-1.76988
0
LINE
8
BLACK
6
CONTINUOUS
10
4.61319
20
-1.76988
11
4.61319
21
-1.69469
0
LINE
8
BLACK
6
CONTINUOUS
10
4.61319
20
-1.69469
11
4.4813
21
-1.69469
0
LINE
8
BLACK
6
CONTINUOUS
10
5.59843
20
-1.69272
11
5.59912
21
-1.693
0
LINE
8
BLACK
6
CONTINUOUS
10
5.59912
20
-1.693
11
5.59941
21
-1.6937
0
LINE
8
BLACK
6
CONTINUOUS
10
5.59941
20
-1.6937
11
5.59941
21
-1.77087
0
LINE
8
BLACK
6
CONTINUOUS
10
5.59941
20
-1.77087
11
5.59912
21
-1.77156
0
LINE
8
BLACK
6
CONTINUOUS
10
5.59912
20
-1.77156
11
5.59843
21
-1.77185
0
LINE
8
BLACK
6
CONTINUOUS
10
5.59843
20
-1.77185
11
5.46457
21
-1.77185
0
LINE
8
BLACK
6
CONTINUOUS
10
5.46457
20
-1.77185
11
5.46387
21
-1.77156
0
LINE
8
BLACK
6
CONTINUOUS
10
5.46387
20
-1.77156
11
5.46358
21
-1.77087
0
LINE
8
BLACK
6
CONTINUOUS
10
5.46358
20
-1.77087
11
5.46358
21
-1.6937
0
LINE
8
BLACK
6
CONTINUOUS
10
5.46358
20
-1.6937
11
5.46387
21
-1.693
0
LINE
8
BLACK
6
CONTINUOUS
10
5.46387
20
-1.693
11
5.46457
21
-1.69272
0
LINE
8
BLACK
6
CONTINUOUS
10
5.46457
20
-1.69272
11
5.59843
21
-1.69272
0
LINE
8
BLACK
6
CONTINUOUS
10
5.46555
20
-1.69469
11
5.46555
21
-1.76988
0
LINE
8
BLACK
6
CONTINUOUS
10
5.46555
20
-1.76988
11
5.59744
21
-1.76988
0
LINE
8
BLACK
6
CONTINUOUS
10
5.59744
20
-1.76988
11
5.59744
21
-1.69469
0
LINE
8
BLACK
6
CONTINUOUS
10
5.59744
20
-1.69469
11
5.46555
21
-1.69469
0
LINE
8
BLACK
6
CONTINUOUS
10
6.17638
20
-1.58642
11
6.17707
21
-1.58671
0
LINE
8
BLACK
6
CONTINUOUS
10
6.17707
20
-1.58671
11
6.17736
21
-1.5874
0
LINE
8
BLACK
6
CONTINUOUS
10
6.17736
20
-1.5874
11
6.17736
21
-1.76693
0
LINE
8
BLACK
6
CONTINUOUS
10
6.17736
20
-1.76693
11
6.17707
21
-1.76763
0
LINE
8
BLACK
6
CONTINUOUS
10
6.17707
20
-1.76763
11
6.17638
21
-1.76791
0
LINE
8
BLACK
6
CONTINUOUS
10
6.17638
20
-1.76791
11
6.05197
21
-1.76791
0
LINE
8
BLACK
6
CONTINUOUS
10
6.05197
20
-1.76791
11
6.05127
21
-1.76763
0
LINE
8
BLACK
6
CONTINUOUS
10
6.05127
20
-1.76763
11
6.05098
21
-1.76693
0
LINE
8
BLACK
6
CONTINUOUS
10
6.05098
20
-1.76693
11
6.05098
21
-1.5874
0
LINE
8
BLACK
6
CONTINUOUS
10
6.05098
20
-1.5874
11
6.05127
21
-1.58671
0
LINE
8
BLACK
6
CONTINUOUS
10
6.05127
20
-1.58671
11
6.05197
21
-1.58642
0
LINE
8
BLACK
6
CONTINUOUS
10
6.05197
20
-1.58642
11
6.17638
21
-1.58642
0
LINE
8
BLACK
6
CONTINUOUS
10
6.05295
20
-1.58839
11
6.05295
21
-1.76594
0
LINE
8
BLACK
6
CONTINUOUS
10
6.05295
20
-1.76594
11
6.17539
21
-1.76594
0
LINE
8
BLACK
6
CONTINUOUS
10
6.17539
20
-1.76594
11
6.17539
21
-1.58839
0
LINE
8
BLACK
6
CONTINUOUS
10
6.17539
20
-1.58839
11
6.05295
21
-1.58839
0
LINE
8
BLACK
6
CONTINUOUS
10
5.18504
20
-1.61004
11
5.18574
21
-1.61033
0
LINE
8
BLACK
6
CONTINUOUS
10
5.18574
20
-1.61033
11
5.18602
21
-1.61102
0
LINE
8
BLACK
6
CONTINUOUS
10
5.18602
20
-1.61102
11
5.18602
21
-1.68819
0
LINE
8
BLACK
6
CONTINUOUS
10
5.18602
20
-1.68819
11
5.18574
21
-1.68888
0
LINE
8
BLACK
6
CONTINUOUS
10
5.18574
20
-1.68888
11
5.18504
21
-1.68917
0
LINE
8
BLACK
6
CONTINUOUS
10
5.18504
20
-1.68917
11
5.16924
21
-1.68917
0
LINE
8
BLACK
6
CONTINUOUS
10
5.16924
20
-1.68917
11
5.16949
21
-1.68976
0
LINE
8
BLACK
6
CONTINUOUS
10
5.16949
20
-1.68976
11
5.16949
21
-1.74724
0
LINE
8
BLACK
6
CONTINUOUS
10
5.16949
20
-1.74724
11
5.1692
21
-1.74794
0
LINE
8
BLACK
6
CONTINUOUS
10
5.1692
20
-1.74794
11
5.1685
21
-1.74823
0
LINE
8
BLACK
6
CONTINUOUS
10
5.1685
20
-1.74823
11
5.05197
21
-1.74823
0
LINE
8
BLACK
6
CONTINUOUS
10
5.05197
20
-1.74823
11
5.05127
21
-1.74794
0
LINE
8
BLACK
6
CONTINUOUS
10
5.05127
20
-1.74794
11
5.05098
21
-1.74724
0
LINE
8
BLACK
6
CONTINUOUS
10
5.05098
20
-1.74724
11
5.05098
21
-1.68976
0
LINE
8
BLACK
6
CONTINUOUS
10
5.05098
20
-1.68976
11
5.05123
21
-1.68917
0
LINE
8
BLACK
6
CONTINUOUS
10
5.05123
20
-1.68917
11
5.05118
21
-1.68917
0
LINE
8
BLACK
6
CONTINUOUS
10
5.05118
20
-1.68917
11
5.05049
21
-1.68888
0
LINE
8
BLACK
6
CONTINUOUS
10
5.05049
20
-1.68888
11
5.0502
21
-1.68819
0
LINE
8
BLACK
6
CONTINUOUS
10
5.0502
20
-1.68819
11
5.0502
21
-1.61102
0
LINE
8
BLACK
6
CONTINUOUS
10
5.0502
20
-1.61102
11
5.05049
21
-1.61033
0
LINE
8
BLACK
6
CONTINUOUS
10
5.05049
20
-1.61033
11
5.05118
21
-1.61004
0
LINE
8
BLACK
6
CONTINUOUS
10
5.05118
20
-1.61004
11
5.18504
21
-1.61004
0
LINE
8
BLACK
6
CONTINUOUS
10
5.05295
20
-1.69075
11
5.05295
21
-1.74626
0
LINE
8
BLACK
6
CONTINUOUS
10
5.05295
20
-1.74626
11
5.16752
21
-1.74626
0
LINE
8
BLACK
6
CONTINUOUS
10
5.16752
20
-1.74626
11
5.16752
21
-1.69075
0
LINE
8
BLACK
6
CONTINUOUS
10
5.16752
20
-1.69075
11
5.05295
21
-1.69075
0
LINE
8
BLACK
6
CONTINUOUS
10
5.05217
20
-1.61201
11
5.05217
21
-1.6872
0
LINE
8
BLACK
6
CONTINUOUS
10
5.05217
20
-1.6872
11
5.18406
21
-1.6872
0
LINE
8
BLACK
6
CONTINUOUS
10
5.18406
20
-1.6872
11
5.18406
21
-1.61201
0
LINE
8
BLACK
6
CONTINUOUS
10
5.18406
20
-1.61201
11
5.05217
21
-1.61201
0
LINE
8
BLACK
6
CONTINUOUS
10
2.26693
20
-1.65059
11
2.26763
21
-1.65088
0
LINE
8
BLACK
6
CONTINUOUS
10
2.26763
20
-1.65088
11
2.26791
21
-1.65157
0
LINE
8
BLACK
6
CONTINUOUS
10
2.26791
20
-1.65157
11
2.26791
21
-1.72638
0
LINE
8
BLACK
6
CONTINUOUS
10
2.26791
20
-1.72638
11
2.26763
21
-1.72707
0
LINE
8
BLACK
6
CONTINUOUS
10
2.26763
20
-1.72707
11
2.26693
21
-1.72736
0
LINE
8
BLACK
6
CONTINUOUS
10
2.26693
20
-1.72736
11
2.13465
21
-1.72736
0
LINE
8
BLACK
6
CONTINUOUS
10
2.13465
20
-1.72736
11
2.13395
21
-1.72707
0
LINE
8
BLACK
6
CONTINUOUS
10
2.13395
20
-1.72707
11
2.13366
21
-1.72638
0
LINE
8
BLACK
6
CONTINUOUS
10
2.13366
20
-1.72638
11
2.13366
21
-1.71846
0
LINE
8
BLACK
6
CONTINUOUS
10
2.13366
20
-1.71846
11
2.13307
21
-1.7187
0
LINE
8
BLACK
6
CONTINUOUS
10
2.13307
20
-1.7187
11
2.01654
21
-1.7187
0
LINE
8
BLACK
6
CONTINUOUS
10
2.01654
20
-1.7187
11
2.01584
21
-1.71841
0
LINE
8
BLACK
6
CONTINUOUS
10
2.01584
20
-1.71841
11
2.01555
21
-1.71772
0
LINE
8
BLACK
6
CONTINUOUS
10
2.01555
20
-1.71772
11
2.01555
21
-1.66024
0
LINE
8
BLACK
6
CONTINUOUS
10
2.01555
20
-1.66024
11
2.01584
21
-1.65954
0
LINE
8
BLACK
6
CONTINUOUS
10
2.01584
20
-1.65954
11
2.01654
21
-1.65925
0
LINE
8
BLACK
6
CONTINUOUS
10
2.01654
20
-1.65925
11
2.13307
21
-1.65925
0
LINE
8
BLACK
6
CONTINUOUS
10
2.13307
20
-1.65925
11
2.13366
21
-1.6595
0
LINE
8
BLACK
6
CONTINUOUS
10
2.13366
20
-1.6595
11
2.13366
21
-1.65157
0
LINE
8
BLACK
6
CONTINUOUS
10
2.13366
20
-1.65157
11
2.13395
21
-1.65088
0
LINE
8
BLACK
6
CONTINUOUS
10
2.13395
20
-1.65088
11
2.13465
21
-1.65059
0
LINE
8
BLACK
6
CONTINUOUS
10
2.13465
20
-1.65059
11
2.26693
21
-1.65059
0
LINE
8
BLACK
6
CONTINUOUS
10
2.13563
20
-1.65256
11
2.13563
21
-1.72539
0
LINE
8
BLACK
6
CONTINUOUS
10
2.13563
20
-1.72539
11
2.26594
21
-1.72539
0
LINE
8
BLACK
6
CONTINUOUS
10
2.26594
20
-1.72539
11
2.26594
21
-1.65256
0
LINE
8
BLACK
6
CONTINUOUS
10
2.26594
20
-1.65256
11
2.13563
21
-1.65256
0
LINE
8
BLACK
6
CONTINUOUS
10
2.01752
20
-1.66122
11
2.01752
21
-1.71673
0
LINE
8
BLACK
6
CONTINUOUS
10
2.01752
20
-1.71673
11
2.13209
21
-1.71673
0
LINE
8
BLACK
6
CONTINUOUS
10
2.13209
20
-1.71673
11
2.13209
21
-1.66122
0
LINE
8
BLACK
6
CONTINUOUS
10
2.13209
20
-1.66122
11
2.01752
21
-1.66122
0
LINE
8
BLACK
6
CONTINUOUS
10
3.00197
20
-1.03445
11
3.00266
21
-1.03474
0
LINE
8
BLACK
6
CONTINUOUS
10
3.00266
20
-1.03474
11
3.00295
21
-1.03543
0
LINE
8
BLACK
6
CONTINUOUS
10
3.00295
20
-1.03543
11
3.00295
21
-1.64173
0
LINE
8
BLACK
6
CONTINUOUS
10
3.00295
20
-1.64173
11
3.00266
21
-1.64243
0
LINE
8
BLACK
6
CONTINUOUS
10
3.00266
20
-1.64243
11
3.00197
21
-1.64272
0
LINE
8
BLACK
6
CONTINUOUS
10
3.00197
20
-1.64272
11
2.31299
21
-1.64272
0
LINE
8
BLACK
6
CONTINUOUS
10
2.31299
20
-1.64272
11
2.3123
21
-1.64243
0
LINE
8
BLACK
6
CONTINUOUS
10
2.3123
20
-1.64243
11
2.31201
21
-1.64173
0
LINE
8
BLACK
6
CONTINUOUS
10
2.31201
20
-1.64173
11
2.31201
21
-1.03543
0
LINE
8
BLACK
6
CONTINUOUS
10
2.31201
20
-1.03543
11
2.3123
21
-1.03474
0
LINE
8
BLACK
6
CONTINUOUS
10
2.3123
20
-1.03474
11
2.31299
21
-1.03445
0
LINE
8
BLACK
6
CONTINUOUS
10
2.31299
20
-1.03445
11
3.00197
21
-1.03445
0
LINE
8
BLACK
6
CONTINUOUS
10
2.31398
20
-1.03642
11
2.31398
21
-1.64075
0
LINE
8
BLACK
6
CONTINUOUS
10
2.31398
20
-1.64075
11
3.00098
21
-1.64075
0
LINE
8
BLACK
6
CONTINUOUS
10
3.00098
20
-1.64075
11
3.00098
21
-1.03642
0
LINE
8
BLACK
6
CONTINUOUS
10
3.00098
20
-1.03642
11
2.31398
21
-1.03642
0
LINE
8
BLACK
6
CONTINUOUS
10
5.95472
20
-1.03445
11
5.95542
21
-1.03474
0
LINE
8
BLACK
6
CONTINUOUS
10
5.95542
20
-1.03474
11
5.95571
21
-1.03543
0
LINE
8
BLACK
6
CONTINUOUS
10
5.95571
20
-1.03543
11
5.95571
21
-1.64173
0
LINE
8
BLACK
6
CONTINUOUS
10
5.95571
20
-1.64173
11
5.95542
21
-1.64243
0
LINE
8
BLACK
6
CONTINUOUS
10
5.95542
20
-1.64243
11
5.95472
21
-1.64272
0
LINE
8
BLACK
6
CONTINUOUS
10
5.95472
20
-1.64272
11
5.26575
21
-1.64272
0
LINE
8
BLACK
6
CONTINUOUS
10
5.26575
20
-1.64272
11
5.26505
21
-1.64243
0
LINE
8
BLACK
6
CONTINUOUS
10
5.26505
20
-1.64243
11
5.26476
21
-1.64173
0
LINE
8
BLACK
6
CONTINUOUS
10
5.26476
20
-1.64173
11
5.26476
21
-1.64173
0
LINE
8
BLACK
6
CONTINUOUS
10
5.26476
20
-1.64173
11
5.26476
21
-1.03543
0
LINE
8
BLACK
6
CONTINUOUS
10
5.26476
20
-1.03543
11
5.26505
21
-1.03474
0
LINE
8
BLACK
6
CONTINUOUS
10
5.26505
20
-1.03474
11
5.26575
21
-1.03445
0
LINE
8
BLACK
6
CONTINUOUS
10
5.26575
20
-1.03445
11
5.95472
21
-1.03445
0
LINE
8
BLACK
6
CONTINUOUS
10
5.26673
20
-1.03642
11
5.26673
21
-1.64075
0
LINE
8
BLACK
6
CONTINUOUS
10
5.26673
20
-1.64075
11
5.95374
21
-1.64075
0
LINE
8
BLACK
6
CONTINUOUS
10
5.95374
20
-1.64075
11
5.95374
21
-1.03642
0
LINE
8
BLACK
6
CONTINUOUS
10
5.95374
20
-1.03642
11
5.26673
21
-1.03642
0
LINE
8
BLACK
6
CONTINUOUS
10
2.26693
20
-1.56496
11
2.26763
21
-1.56525
0
LINE
8
BLACK
6
CONTINUOUS
10
2.26763
20
-1.56525
11
2.26791
21
-1.56594
0
LINE
8
BLACK
6
CONTINUOUS
10
2.26791
20
-1.56594
11
2.26791
21
-1.64075
0
LINE
8
BLACK
6
CONTINUOUS
10
2.26791
20
-1.64075
11
2.26763
21
-1.64144
0
LINE
8
BLACK
6
CONTINUOUS
10
2.26763
20
-1.64144
11
2.26693
21
-1.64173
0
LINE
8
BLACK
6
CONTINUOUS
10
2.26693
20
-1.64173
11
2.13465
21
-1.64173
0
LINE
8
BLACK
6
CONTINUOUS
10
2.13465
20
-1.64173
11
2.13395
21
-1.64144
0
LINE
8
BLACK
6
CONTINUOUS
10
2.13395
20
-1.64144
11
2.13366
21
-1.64075
0
LINE
8
BLACK
6
CONTINUOUS
10
2.13366
20
-1.64075
11
2.13366
21
-1.63479
0
LINE
8
BLACK
6
CONTINUOUS
10
2.13366
20
-1.63479
11
2.13307
21
-1.63504
0
LINE
8
BLACK
6
CONTINUOUS
10
2.13307
20
-1.63504
11
2.01654
21
-1.63504
0
LINE
8
BLACK
6
CONTINUOUS
10
2.01654
20
-1.63504
11
2.01584
21
-1.63475
0
LINE
8
BLACK
6
CONTINUOUS
10
2.01584
20
-1.63475
11
2.01555
21
-1.63406
0
LINE
8
BLACK
6
CONTINUOUS
10
2.01555
20
-1.63406
11
2.01555
21
-1.57657
0
LINE
8
BLACK
6
CONTINUOUS
10
2.01555
20
-1.57657
11
2.01584
21
-1.57588
0
LINE
8
BLACK
6
CONTINUOUS
10
2.01584
20
-1.57588
11
2.01654
21
-1.57559
0
LINE
8
BLACK
6
CONTINUOUS
10
2.01654
20
-1.57559
11
2.13307
21
-1.57559
0
LINE
8
BLACK
6
CONTINUOUS
10
2.13307
20
-1.57559
11
2.13366
21
-1.57584
0
LINE
8
BLACK
6
CONTINUOUS
10
2.13366
20
-1.57584
11
2.13366
21
-1.56594
0
LINE
8
BLACK
6
CONTINUOUS
10
2.13366
20
-1.56594
11
2.13395
21
-1.56525
0
LINE
8
BLACK
6
CONTINUOUS
10
2.13395
20
-1.56525
11
2.13465
21
-1.56496
0
LINE
8
BLACK
6
CONTINUOUS
10
2.13465
20
-1.56496
11
2.26693
21
-1.56496
0
LINE
8
BLACK
6
CONTINUOUS
10
2.13563
20
-1.56693
11
2.13563
21
-1.63976
0
LINE
8
BLACK
6
CONTINUOUS
10
2.13563
20
-1.63976
11
2.26594
21
-1.63976
0
LINE
8
BLACK
6
CONTINUOUS
10
2.26594
20
-1.63976
11
2.26594
21
-1.56693
0
LINE
8
BLACK
6
CONTINUOUS
10
2.26594
20
-1.56693
11
2.13563
21
-1.56693
0
LINE
8
BLACK
6
CONTINUOUS
10
2.01752
20
-1.57756
11
2.01752
21
-1.63307
0
LINE
8
BLACK
6
CONTINUOUS
10
2.01752
20
-1.63307
11
2.13209
21
-1.63307
0
LINE
8
BLACK
6
CONTINUOUS
10
2.13209
20
-1.63307
11
2.13209
21
-1.57756
0
LINE
8
BLACK
6
CONTINUOUS
10
2.13209
20
-1.57756
11
2.01752
21
-1.57756
0
LINE
8
BLACK
6
CONTINUOUS
10
1.65157
20
-1.05886
11
1.65227
21
-1.05915
0
LINE
8
BLACK
6
CONTINUOUS
10
1.65227
20
-1.05915
11
1.65256
21
-1.05984
0
LINE
8
BLACK
6
CONTINUOUS
10
1.65256
20
-1.05984
11
1.65256
21
-1.0628
0
LINE
8
BLACK
6
CONTINUOUS
10
1.65256
20
-1.0628
11
1.70984
21
-1.0628
0
LINE
8
BLACK
6
CONTINUOUS
10
1.70984
20
-1.0628
11
1.71054
21
-1.06308
0
LINE
8
BLACK
6
CONTINUOUS
10
1.71054
20
-1.06308
11
1.71083
21
-1.06378
0
LINE
8
BLACK
6
CONTINUOUS
10
1.71083
20
-1.06378
11
1.71083
21
-1.18031
0
LINE
8
BLACK
6
CONTINUOUS
10
1.71083
20
-1.18031
11
1.71054
21
-1.18101
0
LINE
8
BLACK
6
CONTINUOUS
10
1.71054
20
-1.18101
11
1.70984
21
-1.1813
0
LINE
8
BLACK
6
CONTINUOUS
10
1.70984
20
-1.1813
11
1.65256
21
-1.1813
0
LINE
8
BLACK
6
CONTINUOUS
10
1.65256
20
-1.1813
11
1.65256
21
-1.19075
0
LINE
8
BLACK
6
CONTINUOUS
10
1.65256
20
-1.19075
11
1.70965
21
-1.19075
0
LINE
8
BLACK
6
CONTINUOUS
10
1.70965
20
-1.19075
11
1.70965
21
-1.18898
0
LINE
8
BLACK
6
CONTINUOUS
10
1.70965
20
-1.18898
11
1.70993
21
-1.18828
0
LINE
8
BLACK
6
CONTINUOUS
10
1.70993
20
-1.18828
11
1.71063
21
-1.18799
0
LINE
8
BLACK
6
CONTINUOUS
10
1.71063
20
-1.18799
11
1.80118
21
-1.18799
0
LINE
8
BLACK
6
CONTINUOUS
10
1.80118
20
-1.18799
11
1.80188
21
-1.18828
0
LINE
8
BLACK
6
CONTINUOUS
10
1.80188
20
-1.18828
11
1.80217
21
-1.18898
0
LINE
8
BLACK
6
CONTINUOUS
10
1.80217
20
-1.18898
11
1.80217
21
-1.18917
0
LINE
8
BLACK
6
CONTINUOUS
10
1.80217
20
-1.18917
11
2.24606
21
-1.18917
0
LINE
8
BLACK
6
CONTINUOUS
10
2.24606
20
-1.18917
11
2.24676
21
-1.18946
0
LINE
8
BLACK
6
CONTINUOUS
10
2.24676
20
-1.18946
11
2.24705
21
-1.19016
0
LINE
8
BLACK
6
CONTINUOUS
10
2.24705
20
-1.19016
11
2.24705
21
-1.36102
0
LINE
8
BLACK
6
CONTINUOUS
10
2.24705
20
-1.36102
11
2.24676
21
-1.36172
0
LINE
8
BLACK
6
CONTINUOUS
10
2.24676
20
-1.36172
11
2.24606
21
-1.36201
0
LINE
8
BLACK
6
CONTINUOUS
10
2.24606
20
-1.36201
11
1.80217
21
-1.36201
0
LINE
8
BLACK
6
CONTINUOUS
10
1.80217
20
-1.36201
11
1.80217
21
-1.3622
0
LINE
8
BLACK
6
CONTINUOUS
10
1.80217
20
-1.3622
11
1.80188
21
-1.3629
0
LINE
8
BLACK
6
CONTINUOUS
10
1.80188
20
-1.3629
11
1.80118
21
-1.36319
0
LINE
8
BLACK
6
CONTINUOUS
10
1.80118
20
-1.36319
11
1.71063
21
-1.36319
0
LINE
8
BLACK
6
CONTINUOUS
10
1.71063
20
-1.36319
11
1.70993
21
-1.3629
0
LINE
8
BLACK
6
CONTINUOUS
10
1.70993
20
-1.3629
11
1.70965
21
-1.3622
0
LINE
8
BLACK
6
CONTINUOUS
10
1.70965
20
-1.3622
11
1.70965
21
-1.30925
0
LINE
8
BLACK
6
CONTINUOUS
10
1.70965
20
-1.30925
11
1.65236
21
-1.30925
0
LINE
8
BLACK
6
CONTINUOUS
10
1.65236
20
-1.30925
11
1.65167
21
-1.30896
0
LINE
8
BLACK
6
CONTINUOUS
10
1.65167
20
-1.30896
11
1.65138
21
-1.30827
0
LINE
8
BLACK
6
CONTINUOUS
10
1.65138
20
-1.30827
11
1.65138
21
-1.19311
0
LINE
8
BLACK
6
CONTINUOUS
10
1.65138
20
-1.19311
11
1.57677
21
-1.19311
0
LINE
8
BLACK
6
CONTINUOUS
10
1.57677
20
-1.19311
11
1.57608
21
-1.19282
0
LINE
8
BLACK
6
CONTINUOUS
10
1.57608
20
-1.19282
11
1.57579
21
-1.19213
0
LINE
8
BLACK
6
CONTINUOUS
10
1.57579
20
-1.19213
11
1.57579
21
-1.05984
0
LINE
8
BLACK
6
CONTINUOUS
10
1.57579
20
-1.05984
11
1.57608
21
-1.05915
0
LINE
8
BLACK
6
CONTINUOUS
10
1.57608
20
-1.05915
11
1.57677
21
-1.05886
0
LINE
8
BLACK
6
CONTINUOUS
10
1.57677
20
-1.05886
11
1.65157
21
-1.05886
0
LINE
8
BLACK
6
CONTINUOUS
10
1.71161
20
-1.18996
11
1.71161
21
-1.36122
0
LINE
8
BLACK
6
CONTINUOUS
10
1.71161
20
-1.36122
11
1.8002
21
-1.36122
0
LINE
8
BLACK
6
CONTINUOUS
10
1.8002
20
-1.36122
11
1.8002
21
-1.18996
0
LINE
8
BLACK
6
CONTINUOUS
10
1.8002
20
-1.18996
11
1.71161
21
-1.18996
0
LINE
8
BLACK
6
CONTINUOUS
10
1.80217
20
-1.19114
11
1.80217
21
-1.36004
0
LINE
8
BLACK
6
CONTINUOUS
10
1.80217
20
-1.36004
11
2.24508
21
-1.36004
0
LINE
8
BLACK
6
CONTINUOUS
10
2.24508
20
-1.36004
11
2.24508
21
-1.19114
0
LINE
8
BLACK
6
CONTINUOUS
10
2.24508
20
-1.19114
11
1.80217
21
-1.19114
0
LINE
8
BLACK
6
CONTINUOUS
10
1.65335
20
-1.19272
11
1.65335
21
-1.30728
0
LINE
8
BLACK
6
CONTINUOUS
10
1.65335
20
-1.30728
11
1.70886
21
-1.30728
0
LINE
8
BLACK
6
CONTINUOUS
10
1.70886
20
-1.30728
11
1.70886
21
-1.19272
0
LINE
8
BLACK
6
CONTINUOUS
10
1.70886
20
-1.19272
11
1.65335
21
-1.19272
0
LINE
8
BLACK
6
CONTINUOUS
10
1.57776
20
-1.06083
11
1.57776
21
-1.19114
0
LINE
8
BLACK
6
CONTINUOUS
10
1.57776
20
-1.19114
11
1.65059
21
-1.19114
0
LINE
8
BLACK
6
CONTINUOUS
10
1.65059
20
-1.19114
11
1.65059
21
-1.06083
0
LINE
8
BLACK
6
CONTINUOUS
10
1.65059
20
-1.06083
11
1.57776
21
-1.06083
0
LINE
8
BLACK
6
CONTINUOUS
10
1.65335
20
-1.06476
11
1.65335
21
-1.17933
0
LINE
8
BLACK
6
CONTINUOUS
10
1.65335
20
-1.17933
11
1.70886
21
-1.17933
0
LINE
8
BLACK
6
CONTINUOUS
10
1.70886
20
-1.17933
11
1.70886
21
-1.06476
0
LINE
8
BLACK
6
CONTINUOUS
10
1.70886
20
-1.06476
11
1.65335
21
-1.06476
0
LINE
8
BLACK
6
CONTINUOUS
10
3.67104
20
-0.705709
11
3.67174
21
-0.705997
0
LINE
8
BLACK
6
CONTINUOUS
10
3.67174
20
-0.705997
11
3.67203
21
-0.706693
0
LINE
8
BLACK
6
CONTINUOUS
10
3.67203
20
-0.706693
11
3.67203
21
-0.776575
0
LINE
8
BLACK
6
CONTINUOUS
10
3.67203
20
-0.776575
11
3.78915
21
-0.776575
0
LINE
8
BLACK
6
CONTINUOUS
10
3.78915
20
-0.776575
11
3.78985
21
-0.776863
0
LINE
8
BLACK
6
CONTINUOUS
10
3.78985
20
-0.776863
11
3.79014
21
-0.777559
0
LINE
8
BLACK
6
CONTINUOUS
10
3.79014
20
-0.777559
11
3.79014
21
-1.27756
0
LINE
8
BLACK
6
CONTINUOUS
10
3.79014
20
-1.27756
11
3.78985
21
-1.27826
0
LINE
8
BLACK
6
CONTINUOUS
10
3.78985
20
-1.27826
11
3.78915
21
-1.27854
0
LINE
8
BLACK
6
CONTINUOUS
10
3.78915
20
-1.27854
11
3.29703
21
-1.27854
0
LINE
8
BLACK
6
CONTINUOUS
10
3.29703
20
-1.27854
11
3.29633
21
-1.27826
0
LINE
8
BLACK
6
CONTINUOUS
10
3.29633
20
-1.27826
11
3.29604
21
-1.27756
0
LINE
8
BLACK
6
CONTINUOUS
10
3.29604
20
-1.27756
11
3.29604
21
-0.787402
0
LINE
8
BLACK
6
CONTINUOUS
10
3.29604
20
-0.787402
11
3.29604
21
-0.777559
0
LINE
8
BLACK
6
CONTINUOUS
10
3.29604
20
-0.777559
11
3.29633
21
-0.776863
0
LINE
8
BLACK
6
CONTINUOUS
10
3.29633
20
-0.776863
11
3.29703
21
-0.776575
0
LINE
8
BLACK
6
CONTINUOUS
10
3.29703
20
-0.776575
11
3.41415
21
-0.776575
0
LINE
8
BLACK
6
CONTINUOUS
10
3.41415
20
-0.776575
11
3.41415
21
-0.706693
0
LINE
8
BLACK
6
CONTINUOUS
10
3.41415
20
-0.706693
11
3.41444
21
-0.705997
0
LINE
8
BLACK
6
CONTINUOUS
10
3.41444
20
-0.705997
11
3.41514
21
-0.705709
0
LINE
8
BLACK
6
CONTINUOUS
10
3.41514
20
-0.705709
11
3.67104
21
-0.705709
0
LINE
8
BLACK
6
CONTINUOUS
10
3.41612
20
-0.707677
11
3.41612
21
-0.777559
0
LINE
8
BLACK
6
CONTINUOUS
10
3.41612
20
-0.777559
11
3.41583
21
-0.778255
0
LINE
8
BLACK
6
CONTINUOUS
10
3.41583
20
-0.778255
11
3.41514
21
-0.778543
0
LINE
8
BLACK
6
CONTINUOUS
10
3.41514
20
-0.778543
11
3.29801
21
-0.778543
0
LINE
8
BLACK
6
CONTINUOUS
10
3.29801
20
-0.778543
11
3.29801
21
-0.787402
0
LINE
8
BLACK
6
CONTINUOUS
10
3.29801
20
-0.787402
11
3.29801
21
-1.27657
0
LINE
8
BLACK
6
CONTINUOUS
10
3.29801
20
-1.27657
11
3.78817
21
-1.27657
0
LINE
8
BLACK
6
CONTINUOUS
10
3.78817
20
-1.27657
11
3.78817
21
-0.778543
0
LINE
8
BLACK
6
CONTINUOUS
10
3.78817
20
-0.778543
11
3.67104
21
-0.778543
0
LINE
8
BLACK
6
CONTINUOUS
10
3.67104
20
-0.778543
11
3.67035
21
-0.778255
0
LINE
8
BLACK
6
CONTINUOUS
10
3.67035
20
-0.778255
11
3.67006
21
-0.777559
0
LINE
8
BLACK
6
CONTINUOUS
10
3.67006
20
-0.777559
11
3.67006
21
-0.707677
0
LINE
8
BLACK
6
CONTINUOUS
10
3.67006
20
-0.707677
11
3.41612
21
-0.707677
0
LINE
8
BLACK
6
CONTINUOUS
10
4.85236
20
-0.705709
11
4.85306
21
-0.705997
0
LINE
8
BLACK
6
CONTINUOUS
10
4.85306
20
-0.705997
11
4.85335
21
-0.706693
0
LINE
8
BLACK
6
CONTINUOUS
10
4.85335
20
-0.706693
11
4.85335
21
-0.776575
0
LINE
8
BLACK
6
CONTINUOUS
10
4.85335
20
-0.776575
11
4.97047
21
-0.776575
0
LINE
8
BLACK
6
CONTINUOUS
10
4.97047
20
-0.776575
11
4.97117
21
-0.776863
0
LINE
8
BLACK
6
CONTINUOUS
10
4.97117
20
-0.776863
11
4.97146
21
-0.777559
0
LINE
8
BLACK
6
CONTINUOUS
10
4.97146
20
-0.777559
11
4.97146
21
-1.27756
0
LINE
8
BLACK
6
CONTINUOUS
10
4.97146
20
-1.27756
11
4.97117
21
-1.27826
0
LINE
8
BLACK
6
CONTINUOUS
10
4.97117
20
-1.27826
11
4.97047
21
-1.27854
0
LINE
8
BLACK
6
CONTINUOUS
10
4.97047
20
-1.27854
11
4.47835
21
-1.27854
0
LINE
8
BLACK
6
CONTINUOUS
10
4.47835
20
-1.27854
11
4.47765
21
-1.27826
0
LINE
8
BLACK
6
CONTINUOUS
10
4.47765
20
-1.27826
11
4.47736
21
-1.27756
0
LINE
8
BLACK
6
CONTINUOUS
10
4.47736
20
-1.27756
11
4.47736
21
-0.787402
0
LINE
8
BLACK
6
CONTINUOUS
10
4.47736
20
-0.787402
11
4.47736
21
-0.777559
0
LINE
8
BLACK
6
CONTINUOUS
10
4.47736
20
-0.777559
11
4.47765
21
-0.776863
0
LINE
8
BLACK
6
CONTINUOUS
10
4.47765
20
-0.776863
11
4.47835
21
-0.776575
0
LINE
8
BLACK
6
CONTINUOUS
10
4.47835
20
-0.776575
11
4.59547
21
-0.776575
0
LINE
8
BLACK
6
CONTINUOUS
10
4.59547
20
-0.776575
11
4.59547
21
-0.706693
0
LINE
8
BLACK
6
CONTINUOUS
10
4.59547
20
-0.706693
11
4.59576
21
-0.705997
0
LINE
8
BLACK
6
CONTINUOUS
10
4.59576
20
-0.705997
11
4.59646
21
-0.705709
0
LINE
8
BLACK
6
CONTINUOUS
10
4.59646
20
-0.705709
11
4.85236
21
-0.705709
0
LINE
8
BLACK
6
CONTINUOUS
10
4.59744
20
-0.707677
11
4.59744
21
-0.777559
0
LINE
8
BLACK
6
CONTINUOUS
10
4.59744
20
-0.777559
11
4.59715
21
-0.778255
0
LINE
8
BLACK
6
CONTINUOUS
10
4.59715
20
-0.778255
11
4.59646
21
-0.778543
0
LINE
8
BLACK
6
CONTINUOUS
10
4.59646
20
-0.778543
11
4.47933
21
-0.778543
0
LINE
8
BLACK
6
CONTINUOUS
10
4.47933
20
-0.778543
11
4.47933
21
-0.787402
0
LINE
8
BLACK
6
CONTINUOUS
10
4.47933
20
-0.787402
11
4.47933
21
-1.27657
0
LINE
8
BLACK
6
CONTINUOUS
10
4.47933
20
-1.27657
11
4.96949
21
-1.27657
0
LINE
8
BLACK
6
CONTINUOUS
10
4.96949
20
-1.27657
11
4.96949
21
-0.778543
0
LINE
8
BLACK
6
CONTINUOUS
10
4.96949
20
-0.778543
11
4.85236
21
-0.778543
0
LINE
8
BLACK
6
CONTINUOUS
10
4.85236
20
-0.778543
11
4.85167
21
-0.778255
0
LINE
8
BLACK
6
CONTINUOUS
10
4.85167
20
-0.778255
11
4.85138
21
-0.777559
0
LINE
8
BLACK
6
CONTINUOUS
10
4.85138
20
-0.777559
11
4.85138
21
-0.707677
0
LINE
8
BLACK
6
CONTINUOUS
10
4.85138
20
-0.707677
11
4.59744
21
-0.707677
0
LINE
8
BLACK
6
CONTINUOUS
10
6.79724
20
-1.05413
11
6.79794
21
-1.05442
0
LINE
8
BLACK
6
CONTINUOUS
10
6.79794
20
-1.05442
11
6.79823
21
-1.05512
0
LINE
8
BLACK
6
CONTINUOUS
10
6.79823
20
-1.05512
11
6.79823
21
-1.20866
0
LINE
8
BLACK
6
CONTINUOUS
10
6.79823
20
-1.20866
11
6.79794
21
-1.20936
0
LINE
8
BLACK
6
CONTINUOUS
10
6.79794
20
-1.20936
11
6.79724
21
-1.20965
0
LINE
8
BLACK
6
CONTINUOUS
10
6.79724
20
-1.20965
11
6.56496
21
-1.20965
0
LINE
8
BLACK
6
CONTINUOUS
10
6.56496
20
-1.20965
11
6.56426
21
-1.20936
0
LINE
8
BLACK
6
CONTINUOUS
10
6.56426
20
-1.20936
11
6.56398
21
-1.20866
0
LINE
8
BLACK
6
CONTINUOUS
10
6.56398
20
-1.20866
11
6.56398
21
-1.05512
0
LINE
8
BLACK
6
CONTINUOUS
10
6.56398
20
-1.05512
11
6.56426
21
-1.05442
0
LINE
8
BLACK
6
CONTINUOUS
10
6.56426
20
-1.05442
11
6.56496
21
-1.05413
0
LINE
8
BLACK
6
CONTINUOUS
10
6.56496
20
-1.05413
11
6.79724
21
-1.05413
0
LINE
8
BLACK
6
CONTINUOUS
10
6.56594
20
-1.0561
11
6.56594
21
-1.20768
0
LINE
8
BLACK
6
CONTINUOUS
10
6.56594
20
-1.20768
11
6.79626
21
-1.20768
0
LINE
8
BLACK
6
CONTINUOUS
10
6.79626
20
-1.20768
11
6.79626
21
-1.0561
0
LINE
8
BLACK
6
CONTINUOUS
10
6.79626
20
-1.0561
11
6.56594
21
-1.0561
0
LINE
8
BLACK
6
CONTINUOUS
10
1.96063
20
-0.987992
11
1.96133
21
-0.98828
0
LINE
8
BLACK
6
CONTINUOUS
10
1.96133
20
-0.98828
11
1.96161
21
-0.988976
0
LINE
8
BLACK
6
CONTINUOUS
10
1.96161
20
-0.988976
11
1.96161
21
-1.06614
0
LINE
8
BLACK
6
CONTINUOUS
10
1.96161
20
-1.06614
11
1.96133
21
-1.06684
0
LINE
8
BLACK
6
CONTINUOUS
10
1.96133
20
-1.06684
11
1.96063
21
-1.06713
0
LINE
8
BLACK
6
CONTINUOUS
10
1.96063
20
-1.06713
11
1.82677
21
-1.06713
0
LINE
8
BLACK
6
CONTINUOUS
10
1.82677
20
-1.06713
11
1.82608
21
-1.06684
0
LINE
8
BLACK
6
CONTINUOUS
10
1.82608
20
-1.06684
11
1.82579
21
-1.06614
0
LINE
8
BLACK
6
CONTINUOUS
10
1.82579
20
-1.06614
11
1.82579
21
-0.988976
0
LINE
8
BLACK
6
CONTINUOUS
10
1.82579
20
-0.988976
11
1.82608
21
-0.98828
0
LINE
8
BLACK
6
CONTINUOUS
10
1.82608
20
-0.98828
11
1.82677
21
-0.987992
0
LINE
8
BLACK
6
CONTINUOUS
10
1.82677
20
-0.987992
11
1.96063
21
-0.987992
0
LINE
8
BLACK
6
CONTINUOUS
10
1.82776
20
-0.989961
11
1.82776
21
-1.06516
0
LINE
8
BLACK
6
CONTINUOUS
10
1.82776
20
-1.06516
11
1.95965
21
-1.06516
0
LINE
8
BLACK
6
CONTINUOUS
10
1.95965
20
-1.06516
11
1.95965
21
-0.989961
0
LINE
8
BLACK
6
CONTINUOUS
10
1.95965
20
-0.989961
11
1.82776
21
-0.989961
0
LINE
8
BLACK
6
CONTINUOUS
10
1.666
20
-0.802919
11
1.67828
21
-0.805168
0
LINE
8
BLACK
6
CONTINUOUS
10
1.67828
20
-0.805168
11
1.69019
21
-0.808881
0
LINE
8
BLACK
6
CONTINUOUS
10
1.69019
20
-0.808881
11
1.70157
21
-0.814003
0
LINE
8
BLACK
6
CONTINUOUS
10
1.70157
20
-0.814003
11
1.71225
21
-0.820459
0
LINE
8
BLACK
6
CONTINUOUS
10
1.71225
20
-0.820459
11
1.72207
21
-0.828156
0
LINE
8
BLACK
6
CONTINUOUS
10
1.72207
20
-0.828156
11
1.7309
21
-0.83698
0
LINE
8
BLACK
6
CONTINUOUS
10
1.7309
20
-0.83698
11
1.7386
21
-0.846804
0
LINE
8
BLACK
6
CONTINUOUS
10
1.7386
20
-0.846804
11
1.74505
21
-0.857484
0
LINE
8
BLACK
6
CONTINUOUS
10
1.74505
20
-0.857484
11
1.75017
21
-0.868865
0
LINE
8
BLACK
6
CONTINUOUS
10
1.75017
20
-0.868865
11
1.75389
21
-0.880779
0
LINE
8
BLACK
6
CONTINUOUS
10
1.75389
20
-0.880779
11
1.75614
21
-0.893055
0
LINE
8
BLACK
6
CONTINUOUS
10
1.75614
20
-0.893055
11
1.75689
21
-0.905512
0
LINE
8
BLACK
6
CONTINUOUS
10
1.75689
20
-0.905512
11
1.75614
21
-0.917969
0
LINE
8
BLACK
6
CONTINUOUS
10
1.75614
20
-0.917969
11
1.75389
21
-0.930244
0
LINE
8
BLACK
6
CONTINUOUS
10
1.75389
20
-0.930244
11
1.75017
21
-0.942159
0
LINE
8
BLACK
6
CONTINUOUS
10
1.75017
20
-0.942159
11
1.74505
21
-0.953539
0
LINE
8
BLACK
6
CONTINUOUS
10
1.74505
20
-0.953539
11
1.7386
21
-0.964219
0
LINE
8
BLACK
6
CONTINUOUS
10
1.7386
20
-0.964219
11
1.7309
21
-0.974043
0
LINE
8
BLACK
6
CONTINUOUS
10
1.7309
20
-0.974043
11
1.72207
21
-0.982868
0
LINE
8
BLACK
6
CONTINUOUS
10
1.72207
20
-0.982868
11
1.71225
21
-0.990564
0
LINE
8
BLACK
6
CONTINUOUS
10
1.71225
20
-0.990564
11
1.70157
21
-0.997021
0
LINE
8
BLACK
6
CONTINUOUS
10
1.70157
20
-0.997021
11
1.69019
21
-1.00214
0
LINE
8
BLACK
6
CONTINUOUS
10
1.69019
20
-1.00214
11
1.67828
21
-1.00586
0
LINE
8
BLACK
6
CONTINUOUS
10
1.67828
20
-1.00586
11
1.666
21
-1.0081
0
LINE
8
BLACK
6
CONTINUOUS
10
1.666
20
-1.0081
11
1.65354
21
-1.00886
0
LINE
8
BLACK
6
CONTINUOUS
10
1.65354
20
-1.00886
11
1.64109
21
-1.0081
0
LINE
8
BLACK
6
CONTINUOUS
10
1.64109
20
-1.0081
11
1.62881
21
-1.00586
0
LINE
8
BLACK
6
CONTINUOUS
10
1.62881
20
-1.00586
11
1.6169
21
-1.00214
0
LINE
8
BLACK
6
CONTINUOUS
10
1.6169
20
-1.00214
11
1.60552
21
-0.997021
0
LINE
8
BLACK
6
CONTINUOUS
10
1.60552
20
-0.997021
11
1.59484
21
-0.990564
0
LINE
8
BLACK
6
CONTINUOUS
10
1.59484
20
-0.990564
11
1.58501
21
-0.982868
0
LINE
8
BLACK
6
CONTINUOUS
10
1.58501
20
-0.982868
11
1.57619
21
-0.974043
0
LINE
8
BLACK
6
CONTINUOUS
10
1.57619
20
-0.974043
11
1.56849
21
-0.964219
0
LINE
8
BLACK
6
CONTINUOUS
10
1.56849
20
-0.964219
11
1.56203
21
-0.953539
0
LINE
8
BLACK
6
CONTINUOUS
10
1.56203
20
-0.953539
11
1.55691
21
-0.942159
0
LINE
8
BLACK
6
CONTINUOUS
10
1.55691
20
-0.942159
11
1.5532
21
-0.930244
0
LINE
8
BLACK
6
CONTINUOUS
10
1.5532
20
-0.930244
11
1.55095
21
-0.917969
0
LINE
8
BLACK
6
CONTINUOUS
10
1.55095
20
-0.917969
11
1.5502
21
-0.905512
0
LINE
8
BLACK
6
CONTINUOUS
10
1.5502
20
-0.905512
11
1.55095
21
-0.893055
0
LINE
8
BLACK
6
CONTINUOUS
10
1.55095
20
-0.893055
11
1.5532
21
-0.880779
0
LINE
8
BLACK
6
CONTINUOUS
10
1.5532
20
-0.880779
11
1.55691
21
-0.868865
0
LINE
8
BLACK
6
CONTINUOUS
10
1.55691
20
-0.868865
11
1.56203
21
-0.857484
0
LINE
8
BLACK
6
CONTINUOUS
10
1.56203
20
-0.857484
11
1.56849
21
-0.846804
0
LINE
8
BLACK
6
CONTINUOUS
10
1.56849
20
-0.846804
11
1.57619
21
-0.83698
0
LINE
8
BLACK
6
CONTINUOUS
10
1.57619
20
-0.83698
11
1.58501
21
-0.828156
0
LINE
8
BLACK
6
CONTINUOUS
10
1.58501
20
-0.828156
11
1.59484
21
-0.820459
0
LINE
8
BLACK
6
CONTINUOUS
10
1.59484
20
-0.820459
11
1.60552
21
-0.814003
0
LINE
8
BLACK
6
CONTINUOUS
10
1.60552
20
-0.814003
11
1.6169
21
-0.808881
0
LINE
8
BLACK
6
CONTINUOUS
10
1.6169
20
-0.808881
11
1.62881
21
-0.805168
0
LINE
8
BLACK
6
CONTINUOUS
10
1.62881
20
-0.805168
11
1.64109
21
-0.802919
0
LINE
8
BLACK
6
CONTINUOUS
10
1.64109
20
-0.802919
11
1.65354
21
-0.802165
0
LINE
8
BLACK
6
CONTINUOUS
10
1.65354
20
-0.802165
11
1.666
21
-0.802919
0
LINE
8
BLACK
6
CONTINUOUS
10
1.55277
20
-0.918243
11
1.55516
21
-0.930773
0
LINE
8
BLACK
6
CONTINUOUS
10
1.55516
20
-0.930773
11
1.5591
21
-0.942905
0
LINE
8
BLACK
6
CONTINUOUS
10
1.5591
20
-0.942905
11
1.56453
21
-0.954448
0
LINE
8
BLACK
6
CONTINUOUS
10
1.56453
20
-0.954448
11
1.57136
21
-0.965218
0
LINE
8
BLACK
6
CONTINUOUS
10
1.57136
20
-0.965218
11
1.5795
21
-0.975047
0
LINE
8
BLACK
6
CONTINUOUS
10
1.5795
20
-0.975047
11
1.58879
21
-0.983779
0
LINE
8
BLACK
6
CONTINUOUS
10
1.58879
20
-0.983779
11
1.59911
21
-0.991277
0
LINE
8
BLACK
6
CONTINUOUS
10
1.59911
20
-0.991277
11
1.61029
21
-0.997423
0
LINE
8
BLACK
6
CONTINUOUS
10
1.61029
20
-0.997423
11
1.62215
21
-1.00212
0
LINE
8
BLACK
6
CONTINUOUS
10
1.62215
20
-1.00212
11
1.63451
21
-1.00529
0
LINE
8
BLACK
6
CONTINUOUS
10
1.63451
20
-1.00529
11
1.64717
21
-1.00689
0
LINE
8
BLACK
6
CONTINUOUS
10
1.64717
20
-1.00689
11
1.65992
21
-1.00689
0
LINE
8
BLACK
6
CONTINUOUS
10
1.65992
20
-1.00689
11
1.67258
21
-1.00529
0
LINE
8
BLACK
6
CONTINUOUS
10
1.67258
20
-1.00529
11
1.68493
21
-1.00212
0
LINE
8
BLACK
6
CONTINUOUS
10
1.68493
20
-1.00212
11
1.69679
21
-0.997423
0
LINE
8
BLACK
6
CONTINUOUS
10
1.69679
20
-0.997423
11
1.70797
21
-0.991277
0
LINE
8
BLACK
6
CONTINUOUS
10
1.70797
20
-0.991277
11
1.71829
21
-0.983779
0
LINE
8
BLACK
6
CONTINUOUS
10
1.71829
20
-0.983779
11
1.72759
21
-0.975047
0
LINE
8
BLACK
6
CONTINUOUS
10
1.72759
20
-0.975047
11
1.73572
21
-0.965218
0
LINE
8
BLACK
6
CONTINUOUS
10
1.73572
20
-0.965218
11
1.74256
21
-0.954448
0
LINE
8
BLACK
6
CONTINUOUS
10
1.74256
20
-0.954448
11
1.74799
21
-0.942905
0
LINE
8
BLACK
6
CONTINUOUS
10
1.74799
20
-0.942905
11
1.75193
21
-0.930773
0
LINE
8
BLACK
6
CONTINUOUS
10
1.75193
20
-0.930773
11
1.75432
21
-0.918243
0
LINE
8
BLACK
6
CONTINUOUS
10
1.75432
20
-0.918243
11
1.75512
21
-0.905512
0
LINE
8
BLACK
6
CONTINUOUS
10
1.75512
20
-0.905512
11
1.75432
21
-0.892781
0
LINE
8
BLACK
6
CONTINUOUS
10
1.75432
20
-0.892781
11
1.75193
21
-0.88025
0
LINE
8
BLACK
6
CONTINUOUS
10
1.75193
20
-0.88025
11
1.74799
21
-0.868118
0
LINE
8
BLACK
6
CONTINUOUS
10
1.74799
20
-0.868118
11
1.74256
21
-0.856576
0
LINE
8
BLACK
6
CONTINUOUS
10
1.74256
20
-0.856576
11
1.73572
21
-0.845806
0
LINE
8
BLACK
6
CONTINUOUS
10
1.73572
20
-0.845806
11
1.72759
21
-0.835977
0
LINE
8
BLACK
6
CONTINUOUS
10
1.72759
20
-0.835977
11
1.71829
21
-0.827244
0
LINE
8
BLACK
6
CONTINUOUS
10
1.71829
20
-0.827244
11
1.70797
21
-0.819746
0
LINE
8
BLACK
6
CONTINUOUS
10
1.70797
20
-0.819746
11
1.69679
21
-0.813601
0
LINE
8
BLACK
6
CONTINUOUS
10
1.69679
20
-0.813601
11
1.68493
21
-0.808905
0
LINE
8
BLACK
6
CONTINUOUS
10
1.68493
20
-0.808905
11
1.67258
21
-0.805733
0
LINE
8
BLACK
6
CONTINUOUS
10
1.67258
20
-0.805733
11
1.65992
21
-0.804134
0
LINE
8
BLACK
6
CONTINUOUS
10
1.65992
20
-0.804134
11
1.64717
21
-0.804134
0
LINE
8
BLACK
6
CONTINUOUS
10
1.64717
20
-0.804134
11
1.63451
21
-0.805733
0
LINE
8
BLACK
6
CONTINUOUS
10
1.63451
20
-0.805733
11
1.62215
21
-0.808905
0
LINE
8
BLACK
6
CONTINUOUS
10
1.62215
20
-0.808905
11
1.61029
21
-0.813601
0
LINE
8
BLACK
6
CONTINUOUS
10
1.61029
20
-0.813601
11
1.59911
21
-0.819746
0
LINE
8
BLACK
6
CONTINUOUS
10
1.59911
20
-0.819746
11
1.58879
21
-0.827244
0
LINE
8
BLACK
6
CONTINUOUS
10
1.58879
20
-0.827244
11
1.5795
21
-0.835977
0
LINE
8
BLACK
6
CONTINUOUS
10
1.5795
20
-0.835977
11
1.57136
21
-0.845806
0
LINE
8
BLACK
6
CONTINUOUS
10
1.57136
20
-0.845806
11
1.56453
21
-0.856576
0
LINE
8
BLACK
6
CONTINUOUS
10
1.56453
20
-0.856576
11
1.5591
21
-0.868118
0
LINE
8
BLACK
6
CONTINUOUS
10
1.5591
20
-0.868118
11
1.55516
21
-0.88025
0
LINE
8
BLACK
6
CONTINUOUS
10
1.55516
20
-0.88025
11
1.55277
21
-0.892781
0
LINE
8
BLACK
6
CONTINUOUS
10
1.55277
20
-0.892781
11
1.55196
21
-0.905512
0
LINE
8
BLACK
6
CONTINUOUS
10
1.55196
20
-0.905512
11
1.55277
21
-0.918243
0
LINE
8
BLACK
6
CONTINUOUS
10
6.62663
20
-0.802919
11
6.63891
21
-0.805168
0
LINE
8
BLACK
6
CONTINUOUS
10
6.63891
20
-0.805168
11
6.65082
21
-0.808881
0
LINE
8
BLACK
6
CONTINUOUS
10
6.65082
20
-0.808881
11
6.6622
21
-0.814003
0
LINE
8
BLACK
6
CONTINUOUS
10
6.6622
20
-0.814003
11
6.67288
21
-0.820459
0
LINE
8
BLACK
6
CONTINUOUS
10
6.67288
20
-0.820459
11
6.6827
21
-0.828156
0
LINE
8
BLACK
6
CONTINUOUS
10
6.6827
20
-0.828156
11
6.69153
21
-0.83698
0
LINE
8
BLACK
6
CONTINUOUS
10
6.69153
20
-0.83698
11
6.69923
21
-0.846804
0
LINE
8
BLACK
6
CONTINUOUS
10
6.69923
20
-0.846804
11
6.70568
21
-0.857484
0
LINE
8
BLACK
6
CONTINUOUS
10
6.70568
20
-0.857484
11
6.7108
21
-0.868865
0
LINE
8
BLACK
6
CONTINUOUS
10
6.7108
20
-0.868865
11
6.71452
21
-0.880779
0
LINE
8
BLACK
6
CONTINUOUS
10
6.71452
20
-0.880779
11
6.71677
21
-0.893055
0
LINE
8
BLACK
6
CONTINUOUS
10
6.71677
20
-0.893055
11
6.71752
21
-0.905512
0
LINE
8
BLACK
6
CONTINUOUS
10
6.71752
20
-0.905512
11
6.71677
21
-0.917969
0
LINE
8
BLACK
6
CONTINUOUS
10
6.71677
20
-0.917969
11
6.71452
21
-0.930244
0
LINE
8
BLACK
6
CONTINUOUS
10
6.71452
20
-0.930244
11
6.7108
21
-0.942159
0
LINE
8
BLACK
6
CONTINUOUS
10
6.7108
20
-0.942159
11
6.70568
21
-0.953539
0
LINE
8
BLACK
6
CONTINUOUS
10
6.70568
20
-0.953539
11
6.69923
21
-0.964219
0
LINE
8
BLACK
6
CONTINUOUS
10
6.69923
20
-0.964219
11
6.69153
21
-0.974043
0
LINE
8
BLACK
6
CONTINUOUS
10
6.69153
20
-0.974043
11
6.6827
21
-0.982868
0
LINE
8
BLACK
6
CONTINUOUS
10
6.6827
20
-0.982868
11
6.67288
21
-0.990564
0
LINE
8
BLACK
6
CONTINUOUS
10
6.67288
20
-0.990564
11
6.6622
21
-0.997021
0
LINE
8
BLACK
6
CONTINUOUS
10
6.6622
20
-0.997021
11
6.65082
21
-1.00214
0
LINE
8
BLACK
6
CONTINUOUS
10
6.65082
20
-1.00214
11
6.63891
21
-1.00586
0
LINE
8
BLACK
6
CONTINUOUS
10
6.63891
20
-1.00586
11
6.62663
21
-1.0081
0
LINE
8
BLACK
6
CONTINUOUS
10
6.62663
20
-1.0081
11
6.61417
21
-1.00886
0
LINE
8
BLACK
6
CONTINUOUS
10
6.61417
20
-1.00886
11
6.60172
21
-1.0081
0
LINE
8
BLACK
6
CONTINUOUS
10
6.60172
20
-1.0081
11
6.58944
21
-1.00586
0
LINE
8
BLACK
6
CONTINUOUS
10
6.58944
20
-1.00586
11
6.57753
21
-1.00214
0
LINE
8
BLACK
6
CONTINUOUS
10
6.57753
20
-1.00214
11
6.56615
21
-0.997021
0
LINE
8
BLACK
6
CONTINUOUS
10
6.56615
20
-0.997021
11
6.55547
21
-0.990564
0
LINE
8
BLACK
6
CONTINUOUS
10
6.55547
20
-0.990564
11
6.54564
21
-0.982868
0
LINE
8
BLACK
6
CONTINUOUS
10
6.54564
20
-0.982868
11
6.53682
21
-0.974043
0
LINE
8
BLACK
6
CONTINUOUS
10
6.53682
20
-0.974043
11
6.52912
21
-0.964219
0
LINE
8
BLACK
6
CONTINUOUS
10
6.52912
20
-0.964219
11
6.52266
21
-0.953539
0
LINE
8
BLACK
6
CONTINUOUS
10
6.52266
20
-0.953539
11
6.51754
21
-0.942159
0
LINE
8
BLACK
6
CONTINUOUS
10
6.51754
20
-0.942159
11
6.51383
21
-0.930244
0
LINE
8
BLACK
6
CONTINUOUS
10
6.51383
20
-0.930244
11
6.51158
21
-0.917969
0
LINE
8
BLACK
6
CONTINUOUS
10
6.51158
20
-0.917969
11
6.51083
21
-0.905512
0
LINE
8
BLACK
6
CONTINUOUS
10
6.51083
20
-0.905512
11
6.51158
21
-0.893055
0
LINE
8
BLACK
6
CONTINUOUS
10
6.51158
20
-0.893055
11
6.51383
21
-0.880779
0
LINE
8
BLACK
6
CONTINUOUS
10
6.51383
20
-0.880779
11
6.51754
21
-0.868865
0
LINE
8
BLACK
6
CONTINUOUS
10
6.51754
20
-0.868865
11
6.52266
21
-0.857484
0
LINE
8
BLACK
6
CONTINUOUS
10
6.52266
20
-0.857484
11
6.52912
21
-0.846804
0
LINE
8
BLACK
6
CONTINUOUS
10
6.52912
20
-0.846804
11
6.53682
21
-0.83698
0
LINE
8
BLACK
6
CONTINUOUS
10
6.53682
20
-0.83698
11
6.54564
21
-0.828156
0
LINE
8
BLACK
6
CONTINUOUS
10
6.54564
20
-0.828156
11
6.55547
21
-0.820459
0
LINE
8
BLACK
6
CONTINUOUS
10
6.55547
20
-0.820459
11
6.56615
21
-0.814003
0
LINE
8
BLACK
6
CONTINUOUS
10
6.56615
20
-0.814003
11
6.57753
21
-0.808881
0
LINE
8
BLACK
6
CONTINUOUS
10
6.57753
20
-0.808881
11
6.58944
21
-0.805168
0
LINE
8
BLACK
6
CONTINUOUS
10
6.58944
20
-0.805168
11
6.60172
21
-0.802919
0
LINE
8
BLACK
6
CONTINUOUS
10
6.60172
20
-0.802919
11
6.61417
21
-0.802165
0
LINE
8
BLACK
6
CONTINUOUS
10
6.61417
20
-0.802165
11
6.62663
21
-0.802919
0
LINE
8
BLACK
6
CONTINUOUS
10
6.5134
20
-0.918243
11
6.51579
21
-0.930773
0
LINE
8
BLACK
6
CONTINUOUS
10
6.51579
20
-0.930773
11
6.51973
21
-0.942905
0
LINE
8
BLACK
6
CONTINUOUS
10
6.51973
20
-0.942905
11
6.52516
21
-0.954448
0
LINE
8
BLACK
6
CONTINUOUS
10
6.52516
20
-0.954448
11
6.53199
21
-0.965218
0
LINE
8
BLACK
6
CONTINUOUS
10
6.53199
20
-0.965218
11
6.54013
21
-0.975047
0
LINE
8
BLACK
6
CONTINUOUS
10
6.54013
20
-0.975047
11
6.54942
21
-0.983779
0
LINE
8
BLACK
6
CONTINUOUS
10
6.54942
20
-0.983779
11
6.55974
21
-0.991277
0
LINE
8
BLACK
6
CONTINUOUS
10
6.55974
20
-0.991277
11
6.57092
21
-0.997423
0
LINE
8
BLACK
6
CONTINUOUS
10
6.57092
20
-0.997423
11
6.58278
21
-1.00212
0
LINE
8
BLACK
6
CONTINUOUS
10
6.58278
20
-1.00212
11
6.59514
21
-1.00529
0
LINE
8
BLACK
6
CONTINUOUS
10
6.59514
20
-1.00529
11
6.6078
21
-1.00689
0
LINE
8
BLACK
6
CONTINUOUS
10
6.6078
20
-1.00689
11
6.62055
21
-1.00689
0
LINE
8
BLACK
6
CONTINUOUS
10
6.62055
20
-1.00689
11
6.63321
21
-1.00529
0
LINE
8
BLACK
6
CONTINUOUS
10
6.63321
20
-1.00529
11
6.64556
21
-1.00212
0
LINE
8
BLACK
6
CONTINUOUS
10
6.64556
20
-1.00212
11
6.65742
21
-0.997423
0
LINE
8
BLACK
6
CONTINUOUS
10
6.65742
20
-0.997423
11
6.6686
21
-0.991277
0
LINE
8
BLACK
6
CONTINUOUS
10
6.6686
20
-0.991277
11
6.67892
21
-0.983779
0
LINE
8
BLACK
6
CONTINUOUS
10
6.67892
20
-0.983779
11
6.68822
21
-0.975047
0
LINE
8
BLACK
6
CONTINUOUS
10
6.68822
20
-0.975047
11
6.69635
21
-0.965218
0
LINE
8
BLACK
6
CONTINUOUS
10
6.69635
20
-0.965218
11
6.70319
21
-0.954448
0
LINE
8
BLACK
6
CONTINUOUS
10
6.70319
20
-0.954448
11
6.70862
21
-0.942905
0
LINE
8
BLACK
6
CONTINUOUS
10
6.70862
20
-0.942905
11
6.71256
21
-0.930773
0
LINE
8
BLACK
6
CONTINUOUS
10
6.71256
20
-0.930773
11
6.71495
21
-0.918243
0
LINE
8
BLACK
6
CONTINUOUS
10
6.71495
20
-0.918243
11
6.71575
21
-0.905512
0
LINE
8
BLACK
6
CONTINUOUS
10
6.71575
20
-0.905512
11
6.71495
21
-0.892781
0
LINE
8
BLACK
6
CONTINUOUS
10
6.71495
20
-0.892781
11
6.71256
21
-0.88025
0
LINE
8
BLACK
6
CONTINUOUS
10
6.71256
20
-0.88025
11
6.70862
21
-0.868118
0
LINE
8
BLACK
6
CONTINUOUS
10
6.70862
20
-0.868118
11
6.70319
21
-0.856576
0
LINE
8
BLACK
6
CONTINUOUS
10
6.70319
20
-0.856576
11
6.69635
21
-0.845806
0
LINE
8
BLACK
6
CONTINUOUS
10
6.69635
20
-0.845806
11
6.68822
21
-0.835977
0
LINE
8
BLACK
6
CONTINUOUS
10
6.68822
20
-0.835977
11
6.67892
21
-0.827244
0
LINE
8
BLACK
6
CONTINUOUS
10
6.67892
20
-0.827244
11
6.6686
21
-0.819746
0
LINE
8
BLACK
6
CONTINUOUS
10
6.6686
20
-0.819746
11
6.65742
21
-0.813601
0
LINE
8
BLACK
6
CONTINUOUS
10
6.65742
20
-0.813601
11
6.64556
21
-0.808905
0
LINE
8
BLACK
6
CONTINUOUS
10
6.64556
20
-0.808905
11
6.63321
21
-0.805733
0
LINE
8
BLACK
6
CONTINUOUS
10
6.63321
20
-0.805733
11
6.62055
21
-0.804134
0
LINE
8
BLACK
6
CONTINUOUS
10
6.62055
20
-0.804134
11
6.6078
21
-0.804134
0
LINE
8
BLACK
6
CONTINUOUS
10
6.6078
20
-0.804134
11
6.59514
21
-0.805733
0
LINE
8
BLACK
6
CONTINUOUS
10
6.59514
20
-0.805733
11
6.58278
21
-0.808905
0
LINE
8
BLACK
6
CONTINUOUS
10
6.58278
20
-0.808905
11
6.57092
21
-0.813601
0
LINE
8
BLACK
6
CONTINUOUS
10
6.57092
20
-0.813601
11
6.55974
21
-0.819746
0
LINE
8
BLACK
6
CONTINUOUS
10
6.55974
20
-0.819746
11
6.54942
21
-0.827244
0
LINE
8
BLACK
6
CONTINUOUS
10
6.54942
20
-0.827244
11
6.54013
21
-0.835977
0
LINE
8
BLACK
6
CONTINUOUS
10
6.54013
20
-0.835977
11
6.53199
21
-0.845806
0
LINE
8
BLACK
6
CONTINUOUS
10
6.53199
20
-0.845806
11
6.52516
21
-0.856576
0
LINE
8
BLACK
6
CONTINUOUS
10
6.52516
20
-0.856576
11
6.51973
21
-0.868118
0
LINE
8
BLACK
6
CONTINUOUS
10
6.51973
20
-0.868118
11
6.51579
21
-0.88025
0
LINE
8
BLACK
6
CONTINUOUS
10
6.51579
20
-0.88025
11
6.5134
21
-0.892781
0
LINE
8
BLACK
6
CONTINUOUS
10
6.5134
20
-0.892781
11
6.51259
21
-0.905512
0
LINE
8
BLACK
6
CONTINUOUS
10
6.51259
20
-0.905512
11
6.5134
21
-0.918243
0
LINE
8
BLACK
6
CONTINUOUS
10
6.30709
20
-0.925
11
6.30778
21
-0.925288
0
LINE
8
BLACK
6
CONTINUOUS
10
6.30778
20
-0.925288
11
6.30807
21
-0.925984
0
LINE
8
BLACK
6
CONTINUOUS
10
6.30807
20
-0.925984
11
6.30807
21
-1.00315
0
LINE
8
BLACK
6
CONTINUOUS
10
6.30807
20
-1.00315
11
6.30778
21
-1.00385
0
LINE
8
BLACK
6
CONTINUOUS
10
6.30778
20
-1.00385
11
6.30709
21
-1.00413
0
LINE
8
BLACK
6
CONTINUOUS
10
6.30709
20
-1.00413
11
6.17323
21
-1.00413
0
LINE
8
BLACK
6
CONTINUOUS
10
6.17323
20
-1.00413
11
6.17253
21
-1.00385
0
LINE
8
BLACK
6
CONTINUOUS
10
6.17253
20
-1.00385
11
6.17224
21
-1.00315
0
LINE
8
BLACK
6
CONTINUOUS
10
6.17224
20
-1.00315
11
6.17224
21
-0.925984
0
LINE
8
BLACK
6
CONTINUOUS
10
6.17224
20
-0.925984
11
6.17253
21
-0.925288
0
LINE
8
BLACK
6
CONTINUOUS
10
6.17253
20
-0.925288
11
6.17323
21
-0.925
0
LINE
8
BLACK
6
CONTINUOUS
10
6.17323
20
-0.925
11
6.30709
21
-0.925
0
LINE
8
BLACK
6
CONTINUOUS
10
6.17421
20
-0.926969
11
6.17421
21
-1.00217
0
LINE
8
BLACK
6
CONTINUOUS
10
6.17421
20
-1.00217
11
6.3061
21
-1.00217
0
LINE
8
BLACK
6
CONTINUOUS
10
6.3061
20
-1.00217
11
6.3061
21
-0.926969
0
LINE
8
BLACK
6
CONTINUOUS
10
6.3061
20
-0.926969
11
6.17421
21
-0.926969
  0
ENDSEC
  0
EOF
