  0
SECTION
  2
HEADER
  9
$ANGBASE
  50
0.0
  9
$ANGDIR
  70
1
  9
$MEASUREMENT
  70
0
  0
ENDSEC
  0
SECTION
  2
TABLES
  0
TABLE
  2
LTYPE
  70
4
  0
LTYPE
  5
40F
  2
CONTINUOUS
  70
0
  3
Solid line
  72
65
  73
0
  40
0.0
  0
LTYPE
  5
410
  2
DASHDOT
 70
0
  3
Dash Dot ____ _ ____ _
 72
65
 73
4
 40
2.0
 49
1.25
 49
-0.25
 49
0.25
 49
-0.25
  0
LTYPE
  5
411
  2
DASHED
 70
0
  3
Dashed __ __ __ __ __
 72
65
 73
2
 40
0.75
 49
0.5
 49
-0.25
  0
LTYPE
  5
43B
  2
DOTTED
 70
0
  3
Dotted .  .  .  .
 72
65
 73
2
 40
0.2
 49
0.0
 49
-0.2
  0
ENDTAB
  0
TABLE
  2
STYLE
  70
4
  0
STYLE
  2
KICAD
  70
0
  40
0
  41
1
  42
1
  50
0
  71
0
  3
isocp.shx
  0
STYLE
  2
KICADB
  70
0
  40
0
  41
1
  42
1
  50
0
  71
0
  3
isocp.shx
  0
STYLE
  2
KICADI
  70
0
  40
0
  41
1
  42
1
  50
15
  71
0
  3
isocp.shx
  0
STYLE
  2
KICADBI
  70
0
  40
0
  41
1
  42
1
  50
15
  71
0
  3
isocp.shx
  0
ENDTAB
  0
TABLE
  2
LAYER
  70
1
  0
LAYER
  2
BLACK
  70
0
  62
7
  6
CONTINUOUS
  0
ENDTAB
  0
ENDSEC
  0
SECTION
  2
ENTITIES
0
LINE
8
BLACK
6
CONTINUOUS
10
7.40157
20
-2.39075
11
7.40227
21
-2.39104
0
LINE
8
BLACK
6
CONTINUOUS
10
7.40227
20
-2.39104
11
7.40256
21
-2.39173
0
LINE
8
BLACK
6
CONTINUOUS
10
7.40256
20
-2.39173
11
7.40256
21
-2.86437
0
LINE
8
BLACK
6
CONTINUOUS
10
7.40256
20
-2.86437
11
7.70866
21
-2.86437
0
LINE
8
BLACK
6
CONTINUOUS
10
7.70866
20
-2.86437
11
7.70936
21
-2.86466
0
LINE
8
BLACK
6
CONTINUOUS
10
7.70936
20
-2.86466
11
7.70965
21
-2.86535
0
LINE
8
BLACK
6
CONTINUOUS
10
7.70965
20
-2.86535
11
7.70965
21
-3.66122
0
LINE
8
BLACK
6
CONTINUOUS
10
7.70965
20
-3.66122
11
7.70965
21
-4.45768
0
LINE
8
BLACK
6
CONTINUOUS
10
7.70965
20
-4.45768
11
7.70936
21
-4.45837
0
LINE
8
BLACK
6
CONTINUOUS
10
7.70936
20
-4.45837
11
7.70866
21
-4.45866
0
LINE
8
BLACK
6
CONTINUOUS
10
7.70866
20
-4.45866
11
7.40256
21
-4.45866
0
LINE
8
BLACK
6
CONTINUOUS
10
7.40256
20
-4.45866
11
7.40256
21
-4.9311
0
LINE
8
BLACK
6
CONTINUOUS
10
7.40256
20
-4.9311
11
7.40227
21
-4.9318
0
LINE
8
BLACK
6
CONTINUOUS
10
7.40227
20
-4.9318
11
7.40157
21
-4.93209
0
LINE
8
BLACK
6
CONTINUOUS
10
7.40157
20
-4.93209
11
6.77165
21
-4.93209
0
LINE
8
BLACK
6
CONTINUOUS
10
6.77165
20
-4.93209
11
6.77096
21
-4.9318
0
LINE
8
BLACK
6
CONTINUOUS
10
6.77096
20
-4.9318
11
6.77067
21
-4.9311
0
LINE
8
BLACK
6
CONTINUOUS
10
6.77067
20
-4.9311
11
6.77067
21
-4.45866
0
LINE
8
BLACK
6
CONTINUOUS
10
6.77067
20
-4.45866
11
6.6248
21
-4.45866
0
LINE
8
BLACK
6
CONTINUOUS
10
6.6248
20
-4.45866
11
6.62411
21
-4.45837
0
LINE
8
BLACK
6
CONTINUOUS
10
6.62411
20
-4.45837
11
6.62382
21
-4.45768
0
LINE
8
BLACK
6
CONTINUOUS
10
6.62382
20
-4.45768
11
6.62382
21
-4.30217
0
LINE
8
BLACK
6
CONTINUOUS
10
6.62382
20
-4.30217
11
6.40748
21
-4.30217
0
LINE
8
BLACK
6
CONTINUOUS
10
6.40748
20
-4.30217
11
6.40678
21
-4.30188
0
LINE
8
BLACK
6
CONTINUOUS
10
6.40678
20
-4.30188
11
6.4065
21
-4.30118
0
LINE
8
BLACK
6
CONTINUOUS
10
6.4065
20
-4.30118
11
6.4065
21
-4.04528
0
LINE
8
BLACK
6
CONTINUOUS
10
6.4065
20
-4.04528
11
6.40678
21
-4.04458
0
LINE
8
BLACK
6
CONTINUOUS
10
6.40678
20
-4.04458
11
6.40748
21
-4.04429
0
LINE
8
BLACK
6
CONTINUOUS
10
6.40748
20
-4.04429
11
6.62382
21
-4.04429
0
LINE
8
BLACK
6
CONTINUOUS
10
6.62382
20
-4.04429
11
6.62382
21
-3.66122
0
LINE
8
BLACK
6
CONTINUOUS
10
6.62382
20
-3.66122
11
6.62382
21
-3.23917
0
LINE
8
BLACK
6
CONTINUOUS
10
6.62382
20
-3.23917
11
6.61988
21
-3.23917
0
LINE
8
BLACK
6
CONTINUOUS
10
6.61988
20
-3.23917
11
6.61988
21
-3.32087
0
LINE
8
BLACK
6
CONTINUOUS
10
6.61988
20
-3.32087
11
6.61959
21
-3.32156
0
LINE
8
BLACK
6
CONTINUOUS
10
6.61959
20
-3.32156
11
6.6189
21
-3.32185
0
LINE
8
BLACK
6
CONTINUOUS
10
6.6189
20
-3.32185
11
6.4378
21
-3.32185
0
LINE
8
BLACK
6
CONTINUOUS
10
6.4378
20
-3.32185
11
6.4371
21
-3.32156
0
LINE
8
BLACK
6
CONTINUOUS
10
6.4371
20
-3.32156
11
6.43681
21
-3.32087
0
LINE
8
BLACK
6
CONTINUOUS
10
6.43681
20
-3.32087
11
6.43681
21
-3.23917
0
LINE
8
BLACK
6
CONTINUOUS
10
6.43681
20
-3.23917
11
6.40748
21
-3.23917
0
LINE
8
BLACK
6
CONTINUOUS
10
6.40748
20
-3.23917
11
6.40678
21
-3.23888
0
LINE
8
BLACK
6
CONTINUOUS
10
6.40678
20
-3.23888
11
6.4065
21
-3.23819
0
LINE
8
BLACK
6
CONTINUOUS
10
6.4065
20
-3.23819
11
6.4065
21
-2.98228
0
LINE
8
BLACK
6
CONTINUOUS
10
6.4065
20
-2.98228
11
6.40678
21
-2.98159
0
LINE
8
BLACK
6
CONTINUOUS
10
6.40678
20
-2.98159
11
6.40748
21
-2.9813
0
LINE
8
BLACK
6
CONTINUOUS
10
6.40748
20
-2.9813
11
6.62382
21
-2.9813
0
LINE
8
BLACK
6
CONTINUOUS
10
6.62382
20
-2.9813
11
6.62382
21
-2.86535
0
LINE
8
BLACK
6
CONTINUOUS
10
6.62382
20
-2.86535
11
6.62411
21
-2.86466
0
LINE
8
BLACK
6
CONTINUOUS
10
6.62411
20
-2.86466
11
6.6248
21
-2.86437
0
LINE
8
BLACK
6
CONTINUOUS
10
6.6248
20
-2.86437
11
6.77067
21
-2.86437
0
LINE
8
BLACK
6
CONTINUOUS
10
6.77067
20
-2.86437
11
6.77067
21
-2.39173
0
LINE
8
BLACK
6
CONTINUOUS
10
6.77067
20
-2.39173
11
6.77096
21
-2.39104
0
LINE
8
BLACK
6
CONTINUOUS
10
6.77096
20
-2.39104
11
6.77165
21
-2.39075
0
LINE
8
BLACK
6
CONTINUOUS
10
6.77165
20
-2.39075
11
7.40157
21
-2.39075
0
LINE
8
BLACK
6
CONTINUOUS
10
6.77264
20
-4.45866
11
6.77264
21
-4.93012
0
LINE
8
BLACK
6
CONTINUOUS
10
6.77264
20
-4.93012
11
7.40059
21
-4.93012
0
LINE
8
BLACK
6
CONTINUOUS
10
7.40059
20
-4.93012
11
7.40059
21
-4.45866
0
LINE
8
BLACK
6
CONTINUOUS
10
7.40059
20
-4.45866
11
6.77264
21
-4.45866
0
LINE
8
BLACK
6
CONTINUOUS
10
6.62579
20
-3.6628
11
6.62579
21
-4.04429
0
LINE
8
BLACK
6
CONTINUOUS
10
6.62579
20
-4.04429
11
6.66339
21
-4.04429
0
LINE
8
BLACK
6
CONTINUOUS
10
6.66339
20
-4.04429
11
6.66408
21
-4.04458
0
LINE
8
BLACK
6
CONTINUOUS
10
6.66408
20
-4.04458
11
6.66437
21
-4.04528
0
LINE
8
BLACK
6
CONTINUOUS
10
6.66437
20
-4.04528
11
6.66437
21
-4.30118
0
LINE
8
BLACK
6
CONTINUOUS
10
6.66437
20
-4.30118
11
6.66408
21
-4.30188
0
LINE
8
BLACK
6
CONTINUOUS
10
6.66408
20
-4.30188
11
6.66339
21
-4.30217
0
LINE
8
BLACK
6
CONTINUOUS
10
6.66339
20
-4.30217
11
6.62579
21
-4.30217
0
LINE
8
BLACK
6
CONTINUOUS
10
6.62579
20
-4.30217
11
6.62579
21
-4.45669
0
LINE
8
BLACK
6
CONTINUOUS
10
6.62579
20
-4.45669
11
6.77067
21
-4.45669
0
LINE
8
BLACK
6
CONTINUOUS
10
6.77067
20
-4.45669
11
6.77067
21
-4.43898
0
LINE
8
BLACK
6
CONTINUOUS
10
6.77067
20
-4.43898
11
6.77096
21
-4.43828
0
LINE
8
BLACK
6
CONTINUOUS
10
6.77096
20
-4.43828
11
6.77165
21
-4.43799
0
LINE
8
BLACK
6
CONTINUOUS
10
6.77165
20
-4.43799
11
7.40157
21
-4.43799
0
LINE
8
BLACK
6
CONTINUOUS
10
7.40157
20
-4.43799
11
7.40227
21
-4.43828
0
LINE
8
BLACK
6
CONTINUOUS
10
7.40227
20
-4.43828
11
7.40256
21
-4.43898
0
LINE
8
BLACK
6
CONTINUOUS
10
7.40256
20
-4.43898
11
7.40256
21
-4.45669
0
LINE
8
BLACK
6
CONTINUOUS
10
7.40256
20
-4.45669
11
7.70768
21
-4.45669
0
LINE
8
BLACK
6
CONTINUOUS
10
7.70768
20
-4.45669
11
7.70768
21
-3.6628
0
LINE
8
BLACK
6
CONTINUOUS
10
7.70768
20
-3.6628
11
6.62579
21
-3.6628
0
LINE
8
BLACK
6
CONTINUOUS
10
6.77264
20
-4.43996
11
6.77264
21
-4.45669
0
LINE
8
BLACK
6
CONTINUOUS
10
6.77264
20
-4.45669
11
7.40059
21
-4.45669
0
LINE
8
BLACK
6
CONTINUOUS
10
7.40059
20
-4.45669
11
7.40059
21
-4.43996
0
LINE
8
BLACK
6
CONTINUOUS
10
7.40059
20
-4.43996
11
6.77264
21
-4.43996
0
LINE
8
BLACK
6
CONTINUOUS
10
6.40846
20
-4.04626
11
6.40846
21
-4.3002
0
LINE
8
BLACK
6
CONTINUOUS
10
6.40846
20
-4.3002
11
6.62382
21
-4.3002
0
LINE
8
BLACK
6
CONTINUOUS
10
6.62382
20
-4.3002
11
6.62382
21
-4.04626
0
LINE
8
BLACK
6
CONTINUOUS
10
6.62382
20
-4.04626
11
6.40846
21
-4.04626
0
LINE
8
BLACK
6
CONTINUOUS
10
6.62579
20
-4.04626
11
6.62579
21
-4.3002
0
LINE
8
BLACK
6
CONTINUOUS
10
6.62579
20
-4.3002
11
6.6624
21
-4.3002
0
LINE
8
BLACK
6
CONTINUOUS
10
6.6624
20
-4.3002
11
6.6624
21
-4.04626
0
LINE
8
BLACK
6
CONTINUOUS
10
6.6624
20
-4.04626
11
6.62579
21
-4.04626
0
LINE
8
BLACK
6
CONTINUOUS
10
7.40256
20
-2.86634
11
7.40256
21
-2.88386
0
LINE
8
BLACK
6
CONTINUOUS
10
7.40256
20
-2.88386
11
7.40227
21
-2.88455
0
LINE
8
BLACK
6
CONTINUOUS
10
7.40227
20
-2.88455
11
7.40157
21
-2.88484
0
LINE
8
BLACK
6
CONTINUOUS
10
7.40157
20
-2.88484
11
6.77165
21
-2.88484
0
LINE
8
BLACK
6
CONTINUOUS
10
6.77165
20
-2.88484
11
6.77096
21
-2.88455
0
LINE
8
BLACK
6
CONTINUOUS
10
6.77096
20
-2.88455
11
6.77067
21
-2.88386
0
LINE
8
BLACK
6
CONTINUOUS
10
6.77067
20
-2.88386
11
6.77067
21
-2.86634
0
LINE
8
BLACK
6
CONTINUOUS
10
6.77067
20
-2.86634
11
6.62579
21
-2.86634
0
LINE
8
BLACK
6
CONTINUOUS
10
6.62579
20
-2.86634
11
6.62579
21
-2.9813
0
LINE
8
BLACK
6
CONTINUOUS
10
6.62579
20
-2.9813
11
6.66339
21
-2.9813
0
LINE
8
BLACK
6
CONTINUOUS
10
6.66339
20
-2.9813
11
6.66408
21
-2.98159
0
LINE
8
BLACK
6
CONTINUOUS
10
6.66408
20
-2.98159
11
6.66437
21
-2.98228
0
LINE
8
BLACK
6
CONTINUOUS
10
6.66437
20
-2.98228
11
6.66437
21
-3.23819
0
LINE
8
BLACK
6
CONTINUOUS
10
6.66437
20
-3.23819
11
6.66408
21
-3.23888
0
LINE
8
BLACK
6
CONTINUOUS
10
6.66408
20
-3.23888
11
6.66339
21
-3.23917
0
LINE
8
BLACK
6
CONTINUOUS
10
6.66339
20
-3.23917
11
6.62579
21
-3.23917
0
LINE
8
BLACK
6
CONTINUOUS
10
6.62579
20
-3.23917
11
6.62579
21
-3.66024
0
LINE
8
BLACK
6
CONTINUOUS
10
6.62579
20
-3.66024
11
7.70768
21
-3.66024
0
LINE
8
BLACK
6
CONTINUOUS
10
7.70768
20
-3.66024
11
7.70768
21
-2.86634
0
LINE
8
BLACK
6
CONTINUOUS
10
7.70768
20
-2.86634
11
7.40256
21
-2.86634
0
LINE
8
BLACK
6
CONTINUOUS
10
6.43878
20
-3.23917
11
6.43878
21
-3.31988
0
LINE
8
BLACK
6
CONTINUOUS
10
6.43878
20
-3.31988
11
6.61791
21
-3.31988
0
LINE
8
BLACK
6
CONTINUOUS
10
6.61791
20
-3.31988
11
6.61791
21
-3.23917
0
LINE
8
BLACK
6
CONTINUOUS
10
6.61791
20
-3.23917
11
6.43878
21
-3.23917
0
LINE
8
BLACK
6
CONTINUOUS
10
6.40846
20
-2.98327
11
6.40846
21
-3.2372
0
LINE
8
BLACK
6
CONTINUOUS
10
6.40846
20
-3.2372
11
6.62382
21
-3.2372
0
LINE
8
BLACK
6
CONTINUOUS
10
6.62382
20
-3.2372
11
6.62382
21
-2.98327
0
LINE
8
BLACK
6
CONTINUOUS
10
6.62382
20
-2.98327
11
6.40846
21
-2.98327
0
LINE
8
BLACK
6
CONTINUOUS
10
6.62579
20
-2.98327
11
6.62579
21
-3.2372
0
LINE
8
BLACK
6
CONTINUOUS
10
6.62579
20
-3.2372
11
6.6624
21
-3.2372
0
LINE
8
BLACK
6
CONTINUOUS
10
6.6624
20
-3.2372
11
6.6624
21
-2.98327
0
LINE
8
BLACK
6
CONTINUOUS
10
6.6624
20
-2.98327
11
6.62579
21
-2.98327
0
LINE
8
BLACK
6
CONTINUOUS
10
6.77264
20
-2.86634
11
6.77264
21
-2.88287
0
LINE
8
BLACK
6
CONTINUOUS
10
6.77264
20
-2.88287
11
7.40059
21
-2.88287
0
LINE
8
BLACK
6
CONTINUOUS
10
7.40059
20
-2.88287
11
7.40059
21
-2.86634
0
LINE
8
BLACK
6
CONTINUOUS
10
7.40059
20
-2.86634
11
6.77264
21
-2.86634
0
LINE
8
BLACK
6
CONTINUOUS
10
6.77264
20
-2.39272
11
6.77264
21
-2.86437
0
LINE
8
BLACK
6
CONTINUOUS
10
6.77264
20
-2.86437
11
7.40059
21
-2.86437
0
LINE
8
BLACK
6
CONTINUOUS
10
7.40059
20
-2.86437
11
7.40059
21
-2.39272
0
LINE
8
BLACK
6
CONTINUOUS
10
7.40059
20
-2.39272
11
6.77264
21
-2.39272
0
LINE
8
BLACK
6
CONTINUOUS
10
4.44882
20
-4.43799
11
4.44951
21
-4.43828
0
LINE
8
BLACK
6
CONTINUOUS
10
4.44951
20
-4.43828
11
4.4498
21
-4.43898
0
LINE
8
BLACK
6
CONTINUOUS
10
4.4498
20
-4.43898
11
4.4498
21
-4.9311
0
LINE
8
BLACK
6
CONTINUOUS
10
4.4498
20
-4.9311
11
4.44951
21
-4.9318
0
LINE
8
BLACK
6
CONTINUOUS
10
4.44951
20
-4.9318
11
4.44882
21
-4.93209
0
LINE
8
BLACK
6
CONTINUOUS
10
4.44882
20
-4.93209
11
3.8189
21
-4.93209
0
LINE
8
BLACK
6
CONTINUOUS
10
3.8189
20
-4.93209
11
3.8182
21
-4.9318
0
LINE
8
BLACK
6
CONTINUOUS
10
3.8182
20
-4.9318
11
3.81791
21
-4.9311
0
LINE
8
BLACK
6
CONTINUOUS
10
3.81791
20
-4.9311
11
3.81791
21
-4.43898
0
LINE
8
BLACK
6
CONTINUOUS
10
3.81791
20
-4.43898
11
3.8182
21
-4.43828
0
LINE
8
BLACK
6
CONTINUOUS
10
3.8182
20
-4.43828
11
3.8189
21
-4.43799
0
LINE
8
BLACK
6
CONTINUOUS
10
3.8189
20
-4.43799
11
4.44882
21
-4.43799
0
LINE
8
BLACK
6
CONTINUOUS
10
3.81988
20
-4.43996
11
3.81988
21
-4.93012
0
LINE
8
BLACK
6
CONTINUOUS
10
3.81988
20
-4.93012
11
4.44783
21
-4.93012
0
LINE
8
BLACK
6
CONTINUOUS
10
4.44783
20
-4.93012
11
4.44783
21
-4.43996
0
LINE
8
BLACK
6
CONTINUOUS
10
4.44783
20
-4.43996
11
3.81988
21
-4.43996
0
LINE
8
BLACK
6
CONTINUOUS
10
1.49606
20
-2.39075
11
1.49676
21
-2.39104
0
LINE
8
BLACK
6
CONTINUOUS
10
1.49676
20
-2.39104
11
1.49705
21
-2.39173
0
LINE
8
BLACK
6
CONTINUOUS
10
1.49705
20
-2.39173
11
1.49705
21
-2.86398
0
LINE
8
BLACK
6
CONTINUOUS
10
1.49705
20
-2.86398
11
1.64429
21
-2.86398
0
LINE
8
BLACK
6
CONTINUOUS
10
1.64429
20
-2.86398
11
1.64499
21
-2.86426
0
LINE
8
BLACK
6
CONTINUOUS
10
1.64499
20
-2.86426
11
1.64528
21
-2.86496
0
LINE
8
BLACK
6
CONTINUOUS
10
1.64528
20
-2.86496
11
1.64528
21
-2.9813
0
LINE
8
BLACK
6
CONTINUOUS
10
1.64528
20
-2.9813
11
1.70394
21
-2.9813
0
LINE
8
BLACK
6
CONTINUOUS
10
1.70394
20
-2.9813
11
1.70394
21
-2.80118
0
LINE
8
BLACK
6
CONTINUOUS
10
1.70394
20
-2.80118
11
1.70423
21
-2.80049
0
LINE
8
BLACK
6
CONTINUOUS
10
1.70423
20
-2.80049
11
1.70492
21
-2.8002
0
LINE
8
BLACK
6
CONTINUOUS
10
1.70492
20
-2.8002
11
1.7876
21
-2.8002
0
LINE
8
BLACK
6
CONTINUOUS
10
1.7876
20
-2.8002
11
1.78829
21
-2.80049
0
LINE
8
BLACK
6
CONTINUOUS
10
1.78829
20
-2.80049
11
1.78858
21
-2.80118
0
LINE
8
BLACK
6
CONTINUOUS
10
1.78858
20
-2.80118
11
1.78858
21
-2.9813
0
LINE
8
BLACK
6
CONTINUOUS
10
1.78858
20
-2.9813
11
1.86024
21
-2.9813
0
LINE
8
BLACK
6
CONTINUOUS
10
1.86024
20
-2.9813
11
1.86093
21
-2.98159
0
LINE
8
BLACK
6
CONTINUOUS
10
1.86093
20
-2.98159
11
1.86122
21
-2.98228
0
LINE
8
BLACK
6
CONTINUOUS
10
1.86122
20
-2.98228
11
1.86122
21
-3.23819
0
LINE
8
BLACK
6
CONTINUOUS
10
1.86122
20
-3.23819
11
1.86093
21
-3.23888
0
LINE
8
BLACK
6
CONTINUOUS
10
1.86093
20
-3.23888
11
1.86024
21
-3.23917
0
LINE
8
BLACK
6
CONTINUOUS
10
1.86024
20
-3.23917
11
1.64528
21
-3.23917
0
LINE
8
BLACK
6
CONTINUOUS
10
1.64528
20
-3.23917
11
1.64528
21
-3.66142
0
LINE
8
BLACK
6
CONTINUOUS
10
1.64528
20
-3.66142
11
1.64499
21
-3.66211
0
LINE
8
BLACK
6
CONTINUOUS
10
1.64499
20
-3.66211
11
1.64429
21
-3.6624
0
LINE
8
BLACK
6
CONTINUOUS
10
1.64429
20
-3.6624
11
1.6439
21
-3.6624
0
LINE
8
BLACK
6
CONTINUOUS
10
1.6439
20
-3.6624
11
1.6439
21
-4.04429
0
LINE
8
BLACK
6
CONTINUOUS
10
1.6439
20
-4.04429
11
1.69606
21
-4.04429
0
LINE
8
BLACK
6
CONTINUOUS
10
1.69606
20
-4.04429
11
1.69606
21
-3.86417
0
LINE
8
BLACK
6
CONTINUOUS
10
1.69606
20
-3.86417
11
1.69635
21
-3.86348
0
LINE
8
BLACK
6
CONTINUOUS
10
1.69635
20
-3.86348
11
1.69705
21
-3.86319
0
LINE
8
BLACK
6
CONTINUOUS
10
1.69705
20
-3.86319
11
1.77972
21
-3.86319
0
LINE
8
BLACK
6
CONTINUOUS
10
1.77972
20
-3.86319
11
1.78042
21
-3.86348
0
LINE
8
BLACK
6
CONTINUOUS
10
1.78042
20
-3.86348
11
1.78071
21
-3.86417
0
LINE
8
BLACK
6
CONTINUOUS
10
1.78071
20
-3.86417
11
1.78071
21
-4.04429
0
LINE
8
BLACK
6
CONTINUOUS
10
1.78071
20
-4.04429
11
1.86024
21
-4.04429
0
LINE
8
BLACK
6
CONTINUOUS
10
1.86024
20
-4.04429
11
1.86093
21
-4.04458
0
LINE
8
BLACK
6
CONTINUOUS
10
1.86093
20
-4.04458
11
1.86122
21
-4.04528
0
LINE
8
BLACK
6
CONTINUOUS
10
1.86122
20
-4.04528
11
1.86122
21
-4.30118
0
LINE
8
BLACK
6
CONTINUOUS
10
1.86122
20
-4.30118
11
1.86093
21
-4.30188
0
LINE
8
BLACK
6
CONTINUOUS
10
1.86093
20
-4.30188
11
1.86024
21
-4.30217
0
LINE
8
BLACK
6
CONTINUOUS
10
1.86024
20
-4.30217
11
1.6439
21
-4.30217
0
LINE
8
BLACK
6
CONTINUOUS
10
1.6439
20
-4.30217
11
1.6439
21
-4.45669
0
LINE
8
BLACK
6
CONTINUOUS
10
1.6439
20
-4.45669
11
1.64361
21
-4.45739
0
LINE
8
BLACK
6
CONTINUOUS
10
1.64361
20
-4.45739
11
1.64291
21
-4.45768
0
LINE
8
BLACK
6
CONTINUOUS
10
1.64291
20
-4.45768
11
1.49705
21
-4.45768
0
LINE
8
BLACK
6
CONTINUOUS
10
1.49705
20
-4.45768
11
1.49705
21
-4.9311
0
LINE
8
BLACK
6
CONTINUOUS
10
1.49705
20
-4.9311
11
1.49676
21
-4.9318
0
LINE
8
BLACK
6
CONTINUOUS
10
1.49676
20
-4.9318
11
1.49606
21
-4.93209
0
LINE
8
BLACK
6
CONTINUOUS
10
1.49606
20
-4.93209
11
0.866142
21
-4.93209
0
LINE
8
BLACK
6
CONTINUOUS
10
0.866142
20
-4.93209
11
0.865446
21
-4.9318
0
LINE
8
BLACK
6
CONTINUOUS
10
0.865446
20
-4.9318
11
0.865157
21
-4.9311
0
LINE
8
BLACK
6
CONTINUOUS
10
0.865157
20
-4.9311
11
0.865157
21
-4.45768
0
LINE
8
BLACK
6
CONTINUOUS
10
0.865157
20
-4.45768
11
0.559055
21
-4.45768
0
LINE
8
BLACK
6
CONTINUOUS
10
0.559055
20
-4.45768
11
0.558359
21
-4.45739
0
LINE
8
BLACK
6
CONTINUOUS
10
0.558359
20
-4.45739
11
0.558071
21
-4.45669
0
LINE
8
BLACK
6
CONTINUOUS
10
0.558071
20
-4.45669
11
0.558071
21
-3.66024
0
LINE
8
BLACK
6
CONTINUOUS
10
0.558071
20
-3.66024
11
0.558359
21
-3.65954
0
LINE
8
BLACK
6
CONTINUOUS
10
0.558359
20
-3.65954
11
0.559055
21
-3.65925
0
LINE
8
BLACK
6
CONTINUOUS
10
0.559055
20
-3.65925
11
0.559449
21
-3.65925
0
LINE
8
BLACK
6
CONTINUOUS
10
0.559449
20
-3.65925
11
0.559449
21
-2.86496
0
LINE
8
BLACK
6
CONTINUOUS
10
0.559449
20
-2.86496
11
0.559737
21
-2.86426
0
LINE
8
BLACK
6
CONTINUOUS
10
0.559737
20
-2.86426
11
0.560433
21
-2.86398
0
LINE
8
BLACK
6
CONTINUOUS
10
0.560433
20
-2.86398
11
0.865157
21
-2.86398
0
LINE
8
BLACK
6
CONTINUOUS
10
0.865157
20
-2.86398
11
0.865157
21
-2.39173
0
LINE
8
BLACK
6
CONTINUOUS
10
0.865157
20
-2.39173
11
0.865446
21
-2.39104
0
LINE
8
BLACK
6
CONTINUOUS
10
0.865446
20
-2.39104
11
0.866142
21
-2.39075
0
LINE
8
BLACK
6
CONTINUOUS
10
0.866142
20
-2.39075
11
1.49606
21
-2.39075
0
LINE
8
BLACK
6
CONTINUOUS
10
0.867126
20
-4.45768
11
0.867126
21
-4.93012
0
LINE
8
BLACK
6
CONTINUOUS
10
0.867126
20
-4.93012
11
1.49508
21
-4.93012
0
LINE
8
BLACK
6
CONTINUOUS
10
1.49508
20
-4.93012
11
1.49508
21
-4.45768
0
LINE
8
BLACK
6
CONTINUOUS
10
1.49508
20
-4.45768
11
0.867126
21
-4.45768
0
LINE
8
BLACK
6
CONTINUOUS
10
0.560039
20
-4.45571
11
0.865157
21
-4.45571
0
LINE
8
BLACK
6
CONTINUOUS
10
0.865157
20
-4.45571
11
0.865157
21
-4.43898
0
LINE
8
BLACK
6
CONTINUOUS
10
0.865157
20
-4.43898
11
0.865446
21
-4.43828
0
LINE
8
BLACK
6
CONTINUOUS
10
0.865446
20
-4.43828
11
0.866142
21
-4.43799
0
LINE
8
BLACK
6
CONTINUOUS
10
0.866142
20
-4.43799
11
1.49606
21
-4.43799
0
LINE
8
BLACK
6
CONTINUOUS
10
1.49606
20
-4.43799
11
1.49676
21
-4.43828
0
LINE
8
BLACK
6
CONTINUOUS
10
1.49676
20
-4.43828
11
1.49705
21
-4.43898
0
LINE
8
BLACK
6
CONTINUOUS
10
1.49705
20
-4.43898
11
1.49705
21
-4.45571
0
LINE
8
BLACK
6
CONTINUOUS
10
1.49705
20
-4.45571
11
1.64193
21
-4.45571
0
LINE
8
BLACK
6
CONTINUOUS
10
1.64193
20
-4.45571
11
1.64193
21
-4.30217
0
LINE
8
BLACK
6
CONTINUOUS
10
1.64193
20
-4.30217
11
1.60433
21
-4.30217
0
LINE
8
BLACK
6
CONTINUOUS
10
1.60433
20
-4.30217
11
1.60363
21
-4.30188
0
LINE
8
BLACK
6
CONTINUOUS
10
1.60363
20
-4.30188
11
1.60335
21
-4.30118
0
LINE
8
BLACK
6
CONTINUOUS
10
1.60335
20
-4.30118
11
1.60335
21
-4.04528
0
LINE
8
BLACK
6
CONTINUOUS
10
1.60335
20
-4.04528
11
1.60363
21
-4.04458
0
LINE
8
BLACK
6
CONTINUOUS
10
1.60363
20
-4.04458
11
1.60433
21
-4.04429
0
LINE
8
BLACK
6
CONTINUOUS
10
1.60433
20
-4.04429
11
1.64193
21
-4.04429
0
LINE
8
BLACK
6
CONTINUOUS
10
1.64193
20
-4.04429
11
1.64193
21
-3.6624
0
LINE
8
BLACK
6
CONTINUOUS
10
1.64193
20
-3.6624
11
0.560433
21
-3.6624
0
LINE
8
BLACK
6
CONTINUOUS
10
0.560433
20
-3.6624
11
0.560039
21
-3.66224
0
LINE
8
BLACK
6
CONTINUOUS
10
0.560039
20
-3.66224
11
0.560039
21
-4.45571
0
LINE
8
BLACK
6
CONTINUOUS
10
0.867126
20
-4.43996
11
0.867126
21
-4.45571
0
LINE
8
BLACK
6
CONTINUOUS
10
0.867126
20
-4.45571
11
1.49508
21
-4.45571
0
LINE
8
BLACK
6
CONTINUOUS
10
1.49508
20
-4.45571
11
1.49508
21
-4.43996
0
LINE
8
BLACK
6
CONTINUOUS
10
1.49508
20
-4.43996
11
0.867126
21
-4.43996
0
LINE
8
BLACK
6
CONTINUOUS
10
1.60531
20
-4.04626
11
1.60531
21
-4.3002
0
LINE
8
BLACK
6
CONTINUOUS
10
1.60531
20
-4.3002
11
1.64193
21
-4.3002
0
LINE
8
BLACK
6
CONTINUOUS
10
1.64193
20
-4.3002
11
1.64193
21
-4.04626
0
LINE
8
BLACK
6
CONTINUOUS
10
1.64193
20
-4.04626
11
1.60531
21
-4.04626
0
LINE
8
BLACK
6
CONTINUOUS
10
1.77972
20
-4.04626
11
1.69705
21
-4.04626
0
LINE
8
BLACK
6
CONTINUOUS
10
1.69705
20
-4.04626
11
1.6439
21
-4.04626
0
LINE
8
BLACK
6
CONTINUOUS
10
1.6439
20
-4.04626
11
1.6439
21
-4.3002
0
LINE
8
BLACK
6
CONTINUOUS
10
1.6439
20
-4.3002
11
1.85925
21
-4.3002
0
LINE
8
BLACK
6
CONTINUOUS
10
1.85925
20
-4.3002
11
1.85925
21
-4.04626
0
LINE
8
BLACK
6
CONTINUOUS
10
1.85925
20
-4.04626
11
1.77972
21
-4.04626
0
LINE
8
BLACK
6
CONTINUOUS
10
1.69803
20
-3.86516
11
1.69803
21
-4.04429
0
LINE
8
BLACK
6
CONTINUOUS
10
1.69803
20
-4.04429
11
1.77874
21
-4.04429
0
LINE
8
BLACK
6
CONTINUOUS
10
1.77874
20
-4.04429
11
1.77874
21
-3.86516
0
LINE
8
BLACK
6
CONTINUOUS
10
1.77874
20
-3.86516
11
1.69803
21
-3.86516
0
LINE
8
BLACK
6
CONTINUOUS
10
1.49705
20
-2.86594
11
1.49705
21
-2.88386
0
LINE
8
BLACK
6
CONTINUOUS
10
1.49705
20
-2.88386
11
1.49676
21
-2.88455
0
LINE
8
BLACK
6
CONTINUOUS
10
1.49676
20
-2.88455
11
1.49606
21
-2.88484
0
LINE
8
BLACK
6
CONTINUOUS
10
1.49606
20
-2.88484
11
0.866142
21
-2.88484
0
LINE
8
BLACK
6
CONTINUOUS
10
0.866142
20
-2.88484
11
0.865446
21
-2.88455
0
LINE
8
BLACK
6
CONTINUOUS
10
0.865446
20
-2.88455
11
0.865157
21
-2.88386
0
LINE
8
BLACK
6
CONTINUOUS
10
0.865157
20
-2.88386
11
0.865157
21
-2.86594
0
LINE
8
BLACK
6
CONTINUOUS
10
0.865157
20
-2.86594
11
0.561417
21
-2.86594
0
LINE
8
BLACK
6
CONTINUOUS
10
0.561417
20
-2.86594
11
0.561417
21
-3.65925
0
LINE
8
BLACK
6
CONTINUOUS
10
0.561417
20
-3.65925
11
1.64291
21
-3.65925
0
LINE
8
BLACK
6
CONTINUOUS
10
1.64291
20
-3.65925
11
1.64331
21
-3.65942
0
LINE
8
BLACK
6
CONTINUOUS
10
1.64331
20
-3.65942
11
1.64331
21
-3.23917
0
LINE
8
BLACK
6
CONTINUOUS
10
1.64331
20
-3.23917
11
1.60433
21
-3.23917
0
LINE
8
BLACK
6
CONTINUOUS
10
1.60433
20
-3.23917
11
1.60363
21
-3.23888
0
LINE
8
BLACK
6
CONTINUOUS
10
1.60363
20
-3.23888
11
1.60335
21
-3.23819
0
LINE
8
BLACK
6
CONTINUOUS
10
1.60335
20
-3.23819
11
1.60335
21
-2.98228
0
LINE
8
BLACK
6
CONTINUOUS
10
1.60335
20
-2.98228
11
1.60363
21
-2.98159
0
LINE
8
BLACK
6
CONTINUOUS
10
1.60363
20
-2.98159
11
1.60433
21
-2.9813
0
LINE
8
BLACK
6
CONTINUOUS
10
1.60433
20
-2.9813
11
1.64331
21
-2.9813
0
LINE
8
BLACK
6
CONTINUOUS
10
1.64331
20
-2.9813
11
1.64331
21
-2.86594
0
LINE
8
BLACK
6
CONTINUOUS
10
1.64331
20
-2.86594
11
1.49705
21
-2.86594
0
LINE
8
BLACK
6
CONTINUOUS
10
1.60531
20
-2.98327
11
1.60531
21
-3.2372
0
LINE
8
BLACK
6
CONTINUOUS
10
1.60531
20
-3.2372
11
1.64331
21
-3.2372
0
LINE
8
BLACK
6
CONTINUOUS
10
1.64331
20
-3.2372
11
1.64331
21
-2.98327
0
LINE
8
BLACK
6
CONTINUOUS
10
1.64331
20
-2.98327
11
1.60531
21
-2.98327
0
LINE
8
BLACK
6
CONTINUOUS
10
1.7876
20
-2.98327
11
1.70492
21
-2.98327
0
LINE
8
BLACK
6
CONTINUOUS
10
1.70492
20
-2.98327
11
1.64528
21
-2.98327
0
LINE
8
BLACK
6
CONTINUOUS
10
1.64528
20
-2.98327
11
1.64528
21
-3.2372
0
LINE
8
BLACK
6
CONTINUOUS
10
1.64528
20
-3.2372
11
1.85925
21
-3.2372
0
LINE
8
BLACK
6
CONTINUOUS
10
1.85925
20
-3.2372
11
1.85925
21
-2.98327
0
LINE
8
BLACK
6
CONTINUOUS
10
1.85925
20
-2.98327
11
1.7876
21
-2.98327
0
LINE
8
BLACK
6
CONTINUOUS
10
1.70591
20
-2.80217
11
1.70591
21
-2.9813
0
LINE
8
BLACK
6
CONTINUOUS
10
1.70591
20
-2.9813
11
1.78661
21
-2.9813
0
LINE
8
BLACK
6
CONTINUOUS
10
1.78661
20
-2.9813
11
1.78661
21
-2.80217
0
LINE
8
BLACK
6
CONTINUOUS
10
1.78661
20
-2.80217
11
1.70591
21
-2.80217
0
LINE
8
BLACK
6
CONTINUOUS
10
0.867126
20
-2.86594
11
0.867126
21
-2.88287
0
LINE
8
BLACK
6
CONTINUOUS
10
0.867126
20
-2.88287
11
1.49508
21
-2.88287
0
LINE
8
BLACK
6
CONTINUOUS
10
1.49508
20
-2.88287
11
1.49508
21
-2.86594
0
LINE
8
BLACK
6
CONTINUOUS
10
1.49508
20
-2.86594
11
0.867126
21
-2.86594
0
LINE
8
BLACK
6
CONTINUOUS
10
0.867126
20
-2.39272
11
0.867126
21
-2.86398
0
LINE
8
BLACK
6
CONTINUOUS
10
0.867126
20
-2.86398
11
1.49508
21
-2.86398
0
LINE
8
BLACK
6
CONTINUOUS
10
1.49508
20
-2.86398
11
1.49508
21
-2.39272
0
LINE
8
BLACK
6
CONTINUOUS
10
1.49508
20
-2.39272
11
0.867126
21
-2.39272
0
LINE
8
BLACK
6
CONTINUOUS
10
4.58091
20
-4.78425
11
4.58166
21
-4.77179
0
LINE
8
BLACK
6
CONTINUOUS
10
4.58166
20
-4.77179
11
4.58391
21
-4.75952
0
LINE
8
BLACK
6
CONTINUOUS
10
4.58391
20
-4.75952
11
4.58762
21
-4.7476
0
LINE
8
BLACK
6
CONTINUOUS
10
4.58762
20
-4.7476
11
4.59274
21
-4.73622
0
LINE
8
BLACK
6
CONTINUOUS
10
4.59274
20
-4.73622
11
4.5992
21
-4.72554
0
LINE
8
BLACK
6
CONTINUOUS
10
4.5992
20
-4.72554
11
4.6069
21
-4.71572
0
LINE
8
BLACK
6
CONTINUOUS
10
4.6069
20
-4.71572
11
4.61572
21
-4.7069
0
LINE
8
BLACK
6
CONTINUOUS
10
4.61572
20
-4.7069
11
4.62554
21
-4.6992
0
LINE
8
BLACK
6
CONTINUOUS
10
4.62554
20
-4.6992
11
4.63622
21
-4.69274
0
LINE
8
BLACK
6
CONTINUOUS
10
4.63622
20
-4.69274
11
4.6476
21
-4.68762
0
LINE
8
BLACK
6
CONTINUOUS
10
4.6476
20
-4.68762
11
4.65952
21
-4.68391
0
LINE
8
BLACK
6
CONTINUOUS
10
4.65952
20
-4.68391
11
4.67179
21
-4.68166
0
LINE
8
BLACK
6
CONTINUOUS
10
4.67179
20
-4.68166
11
4.68425
21
-4.68091
0
LINE
8
BLACK
6
CONTINUOUS
10
4.68425
20
-4.68091
11
4.69671
21
-4.68166
0
LINE
8
BLACK
6
CONTINUOUS
10
4.69671
20
-4.68166
11
4.70898
21
-4.68391
0
LINE
8
BLACK
6
CONTINUOUS
10
4.70898
20
-4.68391
11
4.7209
21
-4.68762
0
LINE
8
BLACK
6
CONTINUOUS
10
4.7209
20
-4.68762
11
4.73228
21
-4.69274
0
LINE
8
BLACK
6
CONTINUOUS
10
4.73228
20
-4.69274
11
4.74296
21
-4.6992
0
LINE
8
BLACK
6
CONTINUOUS
10
4.74296
20
-4.6992
11
4.75278
21
-4.7069
0
LINE
8
BLACK
6
CONTINUOUS
10
4.75278
20
-4.7069
11
4.76161
21
-4.71572
0
LINE
8
BLACK
6
CONTINUOUS
10
4.76161
20
-4.71572
11
4.7693
21
-4.72554
0
LINE
8
BLACK
6
CONTINUOUS
10
4.7693
20
-4.72554
11
4.77576
21
-4.73622
0
LINE
8
BLACK
6
CONTINUOUS
10
4.77576
20
-4.73622
11
4.78088
21
-4.7476
0
LINE
8
BLACK
6
CONTINUOUS
10
4.78088
20
-4.7476
11
4.7846
21
-4.75952
0
LINE
8
BLACK
6
CONTINUOUS
10
4.7846
20
-4.75952
11
4.78684
21
-4.77179
0
LINE
8
BLACK
6
CONTINUOUS
10
4.78684
20
-4.77179
11
4.7876
21
-4.78425
0
LINE
8
BLACK
6
CONTINUOUS
10
4.7876
20
-4.78425
11
4.78684
21
-4.79671
0
LINE
8
BLACK
6
CONTINUOUS
10
4.78684
20
-4.79671
11
4.7846
21
-4.80898
0
LINE
8
BLACK
6
CONTINUOUS
10
4.7846
20
-4.80898
11
4.78088
21
-4.8209
0
LINE
8
BLACK
6
CONTINUOUS
10
4.78088
20
-4.8209
11
4.77576
21
-4.83228
0
LINE
8
BLACK
6
CONTINUOUS
10
4.77576
20
-4.83228
11
4.7693
21
-4.84296
0
LINE
8
BLACK
6
CONTINUOUS
10
4.7693
20
-4.84296
11
4.76161
21
-4.85278
0
LINE
8
BLACK
6
CONTINUOUS
10
4.76161
20
-4.85278
11
4.75278
21
-4.86161
0
LINE
8
BLACK
6
CONTINUOUS
10
4.75278
20
-4.86161
11
4.74296
21
-4.8693
0
LINE
8
BLACK
6
CONTINUOUS
10
4.74296
20
-4.8693
11
4.73228
21
-4.87576
0
LINE
8
BLACK
6
CONTINUOUS
10
4.73228
20
-4.87576
11
4.7209
21
-4.88088
0
LINE
8
BLACK
6
CONTINUOUS
10
4.7209
20
-4.88088
11
4.70898
21
-4.8846
0
LINE
8
BLACK
6
CONTINUOUS
10
4.70898
20
-4.8846
11
4.69671
21
-4.88684
0
LINE
8
BLACK
6
CONTINUOUS
10
4.69671
20
-4.88684
11
4.68425
21
-4.8876
0
LINE
8
BLACK
6
CONTINUOUS
10
4.68425
20
-4.8876
11
4.67179
21
-4.88684
0
LINE
8
BLACK
6
CONTINUOUS
10
4.67179
20
-4.88684
11
4.65952
21
-4.8846
0
LINE
8
BLACK
6
CONTINUOUS
10
4.65952
20
-4.8846
11
4.6476
21
-4.88088
0
LINE
8
BLACK
6
CONTINUOUS
10
4.6476
20
-4.88088
11
4.63622
21
-4.87576
0
LINE
8
BLACK
6
CONTINUOUS
10
4.63622
20
-4.87576
11
4.62554
21
-4.8693
0
LINE
8
BLACK
6
CONTINUOUS
10
4.62554
20
-4.8693
11
4.61572
21
-4.86161
0
LINE
8
BLACK
6
CONTINUOUS
10
4.61572
20
-4.86161
11
4.6069
21
-4.85278
0
LINE
8
BLACK
6
CONTINUOUS
10
4.6069
20
-4.85278
11
4.5992
21
-4.84296
0
LINE
8
BLACK
6
CONTINUOUS
10
4.5992
20
-4.84296
11
4.59274
21
-4.83228
0
LINE
8
BLACK
6
CONTINUOUS
10
4.59274
20
-4.83228
11
4.58762
21
-4.8209
0
LINE
8
BLACK
6
CONTINUOUS
10
4.58762
20
-4.8209
11
4.58391
21
-4.80898
0
LINE
8
BLACK
6
CONTINUOUS
10
4.58391
20
-4.80898
11
4.58166
21
-4.79671
0
LINE
8
BLACK
6
CONTINUOUS
10
4.58166
20
-4.79671
11
4.58091
21
-4.78425
0
LINE
8
BLACK
6
CONTINUOUS
10
4.58267
20
-4.78425
11
4.58347
21
-4.79698
0
LINE
8
BLACK
6
CONTINUOUS
10
4.58347
20
-4.79698
11
4.58586
21
-4.80951
0
LINE
8
BLACK
6
CONTINUOUS
10
4.58586
20
-4.80951
11
4.58981
21
-4.82165
0
LINE
8
BLACK
6
CONTINUOUS
10
4.58981
20
-4.82165
11
4.59524
21
-4.83319
0
LINE
8
BLACK
6
CONTINUOUS
10
4.59524
20
-4.83319
11
4.60207
21
-4.84396
0
LINE
8
BLACK
6
CONTINUOUS
10
4.60207
20
-4.84396
11
4.6102
21
-4.85379
0
LINE
8
BLACK
6
CONTINUOUS
10
4.6102
20
-4.85379
11
4.6195
21
-4.86252
0
LINE
8
BLACK
6
CONTINUOUS
10
4.6195
20
-4.86252
11
4.62982
21
-4.87002
0
LINE
8
BLACK
6
CONTINUOUS
10
4.62982
20
-4.87002
11
4.641
21
-4.87616
0
LINE
8
BLACK
6
CONTINUOUS
10
4.641
20
-4.87616
11
4.65286
21
-4.88086
0
LINE
8
BLACK
6
CONTINUOUS
10
4.65286
20
-4.88086
11
4.66522
21
-4.88403
0
LINE
8
BLACK
6
CONTINUOUS
10
4.66522
20
-4.88403
11
4.67787
21
-4.88563
0
LINE
8
BLACK
6
CONTINUOUS
10
4.67787
20
-4.88563
11
4.69063
21
-4.88563
0
LINE
8
BLACK
6
CONTINUOUS
10
4.69063
20
-4.88563
11
4.70329
21
-4.88403
0
LINE
8
BLACK
6
CONTINUOUS
10
4.70329
20
-4.88403
11
4.71564
21
-4.88086
0
LINE
8
BLACK
6
CONTINUOUS
10
4.71564
20
-4.88086
11
4.7275
21
-4.87616
0
LINE
8
BLACK
6
CONTINUOUS
10
4.7275
20
-4.87616
11
4.73868
21
-4.87002
0
LINE
8
BLACK
6
CONTINUOUS
10
4.73868
20
-4.87002
11
4.749
21
-4.86252
0
LINE
8
BLACK
6
CONTINUOUS
10
4.749
20
-4.86252
11
4.7583
21
-4.85379
0
LINE
8
BLACK
6
CONTINUOUS
10
4.7583
20
-4.85379
11
4.76643
21
-4.84396
0
LINE
8
BLACK
6
CONTINUOUS
10
4.76643
20
-4.84396
11
4.77327
21
-4.83319
0
LINE
8
BLACK
6
CONTINUOUS
10
4.77327
20
-4.83319
11
4.7787
21
-4.82165
0
LINE
8
BLACK
6
CONTINUOUS
10
4.7787
20
-4.82165
11
4.78264
21
-4.80951
0
LINE
8
BLACK
6
CONTINUOUS
10
4.78264
20
-4.80951
11
4.78503
21
-4.79698
0
LINE
8
BLACK
6
CONTINUOUS
10
4.78503
20
-4.79698
11
4.78583
21
-4.78425
0
LINE
8
BLACK
6
CONTINUOUS
10
4.78583
20
-4.78425
11
4.78503
21
-4.77152
0
LINE
8
BLACK
6
CONTINUOUS
10
4.78503
20
-4.77152
11
4.78264
21
-4.75899
0
LINE
8
BLACK
6
CONTINUOUS
10
4.78264
20
-4.75899
11
4.7787
21
-4.74686
0
LINE
8
BLACK
6
CONTINUOUS
10
4.7787
20
-4.74686
11
4.77327
21
-4.73532
0
LINE
8
BLACK
6
CONTINUOUS
10
4.77327
20
-4.73532
11
4.76643
21
-4.72455
0
LINE
8
BLACK
6
CONTINUOUS
10
4.76643
20
-4.72455
11
4.7583
21
-4.71472
0
LINE
8
BLACK
6
CONTINUOUS
10
4.7583
20
-4.71472
11
4.749
21
-4.70598
0
LINE
8
BLACK
6
CONTINUOUS
10
4.749
20
-4.70598
11
4.73868
21
-4.69849
0
LINE
8
BLACK
6
CONTINUOUS
10
4.73868
20
-4.69849
11
4.7275
21
-4.69234
0
LINE
8
BLACK
6
CONTINUOUS
10
4.7275
20
-4.69234
11
4.71564
21
-4.68765
0
LINE
8
BLACK
6
CONTINUOUS
10
4.71564
20
-4.68765
11
4.70329
21
-4.68447
0
LINE
8
BLACK
6
CONTINUOUS
10
4.70329
20
-4.68447
11
4.69063
21
-4.68287
0
LINE
8
BLACK
6
CONTINUOUS
10
4.69063
20
-4.68287
11
4.67787
21
-4.68287
0
LINE
8
BLACK
6
CONTINUOUS
10
4.67787
20
-4.68287
11
4.66522
21
-4.68447
0
LINE
8
BLACK
6
CONTINUOUS
10
4.66522
20
-4.68447
11
4.65286
21
-4.68765
0
LINE
8
BLACK
6
CONTINUOUS
10
4.65286
20
-4.68765
11
4.641
21
-4.69234
0
LINE
8
BLACK
6
CONTINUOUS
10
4.641
20
-4.69234
11
4.62982
21
-4.69849
0
LINE
8
BLACK
6
CONTINUOUS
10
4.62982
20
-4.69849
11
4.6195
21
-4.70598
0
LINE
8
BLACK
6
CONTINUOUS
10
4.6195
20
-4.70598
11
4.6102
21
-4.71472
0
LINE
8
BLACK
6
CONTINUOUS
10
4.6102
20
-4.71472
11
4.60207
21
-4.72455
0
LINE
8
BLACK
6
CONTINUOUS
10
4.60207
20
-4.72455
11
4.59524
21
-4.73532
0
LINE
8
BLACK
6
CONTINUOUS
10
4.59524
20
-4.73532
11
4.58981
21
-4.74686
0
LINE
8
BLACK
6
CONTINUOUS
10
4.58981
20
-4.74686
11
4.58586
21
-4.75899
0
LINE
8
BLACK
6
CONTINUOUS
10
4.58586
20
-4.75899
11
4.58347
21
-4.77152
0
LINE
8
BLACK
6
CONTINUOUS
10
4.58347
20
-4.77152
11
4.58267
21
-4.78425
0
LINE
8
BLACK
6
CONTINUOUS
10
6.51161
20
-4.78346
11
6.51237
21
-4.77101
0
LINE
8
BLACK
6
CONTINUOUS
10
6.51237
20
-4.77101
11
6.51462
21
-4.75873
0
LINE
8
BLACK
6
CONTINUOUS
10
6.51462
20
-4.75873
11
6.51833
21
-4.74682
0
LINE
8
BLACK
6
CONTINUOUS
10
6.51833
20
-4.74682
11
6.52345
21
-4.73544
0
LINE
8
BLACK
6
CONTINUOUS
10
6.52345
20
-4.73544
11
6.52991
21
-4.72476
0
LINE
8
BLACK
6
CONTINUOUS
10
6.52991
20
-4.72476
11
6.5376
21
-4.71493
0
LINE
8
BLACK
6
CONTINUOUS
10
6.5376
20
-4.71493
11
6.54643
21
-4.70611
0
LINE
8
BLACK
6
CONTINUOUS
10
6.54643
20
-4.70611
11
6.55625
21
-4.69841
0
LINE
8
BLACK
6
CONTINUOUS
10
6.55625
20
-4.69841
11
6.56693
21
-4.69196
0
LINE
8
BLACK
6
CONTINUOUS
10
6.56693
20
-4.69196
11
6.57831
21
-4.68683
0
LINE
8
BLACK
6
CONTINUOUS
10
6.57831
20
-4.68683
11
6.59023
21
-4.68312
0
LINE
8
BLACK
6
CONTINUOUS
10
6.59023
20
-4.68312
11
6.6025
21
-4.68087
0
LINE
8
BLACK
6
CONTINUOUS
10
6.6025
20
-4.68087
11
6.61496
21
-4.68012
0
LINE
8
BLACK
6
CONTINUOUS
10
6.61496
20
-4.68012
11
6.62742
21
-4.68087
0
LINE
8
BLACK
6
CONTINUOUS
10
6.62742
20
-4.68087
11
6.63969
21
-4.68312
0
LINE
8
BLACK
6
CONTINUOUS
10
6.63969
20
-4.68312
11
6.65161
21
-4.68683
0
LINE
8
BLACK
6
CONTINUOUS
10
6.65161
20
-4.68683
11
6.66299
21
-4.69196
0
LINE
8
BLACK
6
CONTINUOUS
10
6.66299
20
-4.69196
11
6.67367
21
-4.69841
0
LINE
8
BLACK
6
CONTINUOUS
10
6.67367
20
-4.69841
11
6.68349
21
-4.70611
0
LINE
8
BLACK
6
CONTINUOUS
10
6.68349
20
-4.70611
11
6.69232
21
-4.71493
0
LINE
8
BLACK
6
CONTINUOUS
10
6.69232
20
-4.71493
11
6.70001
21
-4.72476
0
LINE
8
BLACK
6
CONTINUOUS
10
6.70001
20
-4.72476
11
6.70647
21
-4.73544
0
LINE
8
BLACK
6
CONTINUOUS
10
6.70647
20
-4.73544
11
6.71159
21
-4.74682
0
LINE
8
BLACK
6
CONTINUOUS
10
6.71159
20
-4.74682
11
6.7153
21
-4.75873
0
LINE
8
BLACK
6
CONTINUOUS
10
6.7153
20
-4.75873
11
6.71755
21
-4.77101
0
LINE
8
BLACK
6
CONTINUOUS
10
6.71755
20
-4.77101
11
6.71831
21
-4.78346
0
LINE
8
BLACK
6
CONTINUOUS
10
6.71831
20
-4.78346
11
6.71755
21
-4.79592
0
LINE
8
BLACK
6
CONTINUOUS
10
6.71755
20
-4.79592
11
6.7153
21
-4.8082
0
LINE
8
BLACK
6
CONTINUOUS
10
6.7153
20
-4.8082
11
6.71159
21
-4.82011
0
LINE
8
BLACK
6
CONTINUOUS
10
6.71159
20
-4.82011
11
6.70647
21
-4.83149
0
LINE
8
BLACK
6
CONTINUOUS
10
6.70647
20
-4.83149
11
6.70001
21
-4.84217
0
LINE
8
BLACK
6
CONTINUOUS
10
6.70001
20
-4.84217
11
6.69232
21
-4.852
0
LINE
8
BLACK
6
CONTINUOUS
10
6.69232
20
-4.852
11
6.68349
21
-4.86082
0
LINE
8
BLACK
6
CONTINUOUS
10
6.68349
20
-4.86082
11
6.67367
21
-4.86852
0
LINE
8
BLACK
6
CONTINUOUS
10
6.67367
20
-4.86852
11
6.66299
21
-4.87497
0
LINE
8
BLACK
6
CONTINUOUS
10
6.66299
20
-4.87497
11
6.65161
21
-4.8801
0
LINE
8
BLACK
6
CONTINUOUS
10
6.65161
20
-4.8801
11
6.63969
21
-4.88381
0
LINE
8
BLACK
6
CONTINUOUS
10
6.63969
20
-4.88381
11
6.62742
21
-4.88606
0
LINE
8
BLACK
6
CONTINUOUS
10
6.62742
20
-4.88606
11
6.61496
21
-4.88681
0
LINE
8
BLACK
6
CONTINUOUS
10
6.61496
20
-4.88681
11
6.6025
21
-4.88606
0
LINE
8
BLACK
6
CONTINUOUS
10
6.6025
20
-4.88606
11
6.59023
21
-4.88381
0
LINE
8
BLACK
6
CONTINUOUS
10
6.59023
20
-4.88381
11
6.57831
21
-4.8801
0
LINE
8
BLACK
6
CONTINUOUS
10
6.57831
20
-4.8801
11
6.56693
21
-4.87497
0
LINE
8
BLACK
6
CONTINUOUS
10
6.56693
20
-4.87497
11
6.55625
21
-4.86852
0
LINE
8
BLACK
6
CONTINUOUS
10
6.55625
20
-4.86852
11
6.54643
21
-4.86082
0
LINE
8
BLACK
6
CONTINUOUS
10
6.54643
20
-4.86082
11
6.5376
21
-4.852
0
LINE
8
BLACK
6
CONTINUOUS
10
6.5376
20
-4.852
11
6.52991
21
-4.84217
0
LINE
8
BLACK
6
CONTINUOUS
10
6.52991
20
-4.84217
11
6.52345
21
-4.83149
0
LINE
8
BLACK
6
CONTINUOUS
10
6.52345
20
-4.83149
11
6.51833
21
-4.82011
0
LINE
8
BLACK
6
CONTINUOUS
10
6.51833
20
-4.82011
11
6.51462
21
-4.8082
0
LINE
8
BLACK
6
CONTINUOUS
10
6.51462
20
-4.8082
11
6.51237
21
-4.79592
0
LINE
8
BLACK
6
CONTINUOUS
10
6.51237
20
-4.79592
11
6.51161
21
-4.78346
0
LINE
8
BLACK
6
CONTINUOUS
10
6.51338
20
-4.78346
11
6.51418
21
-4.7962
0
LINE
8
BLACK
6
CONTINUOUS
10
6.51418
20
-4.7962
11
6.51657
21
-4.80873
0
LINE
8
BLACK
6
CONTINUOUS
10
6.51657
20
-4.80873
11
6.52052
21
-4.82086
0
LINE
8
BLACK
6
CONTINUOUS
10
6.52052
20
-4.82086
11
6.52595
21
-4.8324
0
LINE
8
BLACK
6
CONTINUOUS
10
6.52595
20
-4.8324
11
6.53278
21
-4.84317
0
LINE
8
BLACK
6
CONTINUOUS
10
6.53278
20
-4.84317
11
6.54091
21
-4.853
0
LINE
8
BLACK
6
CONTINUOUS
10
6.54091
20
-4.853
11
6.55021
21
-4.86173
0
LINE
8
BLACK
6
CONTINUOUS
10
6.55021
20
-4.86173
11
6.56053
21
-4.86923
0
LINE
8
BLACK
6
CONTINUOUS
10
6.56053
20
-4.86923
11
6.57171
21
-4.87538
0
LINE
8
BLACK
6
CONTINUOUS
10
6.57171
20
-4.87538
11
6.58357
21
-4.88007
0
LINE
8
BLACK
6
CONTINUOUS
10
6.58357
20
-4.88007
11
6.59593
21
-4.88324
0
LINE
8
BLACK
6
CONTINUOUS
10
6.59593
20
-4.88324
11
6.60858
21
-4.88484
0
LINE
8
BLACK
6
CONTINUOUS
10
6.60858
20
-4.88484
11
6.62134
21
-4.88484
0
LINE
8
BLACK
6
CONTINUOUS
10
6.62134
20
-4.88484
11
6.63399
21
-4.88324
0
LINE
8
BLACK
6
CONTINUOUS
10
6.63399
20
-4.88324
11
6.64635
21
-4.88007
0
LINE
8
BLACK
6
CONTINUOUS
10
6.64635
20
-4.88007
11
6.65821
21
-4.87538
0
LINE
8
BLACK
6
CONTINUOUS
10
6.65821
20
-4.87538
11
6.66939
21
-4.86923
0
LINE
8
BLACK
6
CONTINUOUS
10
6.66939
20
-4.86923
11
6.67971
21
-4.86173
0
LINE
8
BLACK
6
CONTINUOUS
10
6.67971
20
-4.86173
11
6.68901
21
-4.853
0
LINE
8
BLACK
6
CONTINUOUS
10
6.68901
20
-4.853
11
6.69714
21
-4.84317
0
LINE
8
BLACK
6
CONTINUOUS
10
6.69714
20
-4.84317
11
6.70397
21
-4.8324
0
LINE
8
BLACK
6
CONTINUOUS
10
6.70397
20
-4.8324
11
6.70941
21
-4.82086
0
LINE
8
BLACK
6
CONTINUOUS
10
6.70941
20
-4.82086
11
6.71335
21
-4.80873
0
LINE
8
BLACK
6
CONTINUOUS
10
6.71335
20
-4.80873
11
6.71574
21
-4.7962
0
LINE
8
BLACK
6
CONTINUOUS
10
6.71574
20
-4.7962
11
6.71654
21
-4.78346
0
LINE
8
BLACK
6
CONTINUOUS
10
6.71654
20
-4.78346
11
6.71574
21
-4.77073
0
LINE
8
BLACK
6
CONTINUOUS
10
6.71574
20
-4.77073
11
6.71335
21
-4.7582
0
LINE
8
BLACK
6
CONTINUOUS
10
6.71335
20
-4.7582
11
6.70941
21
-4.74607
0
LINE
8
BLACK
6
CONTINUOUS
10
6.70941
20
-4.74607
11
6.70397
21
-4.73453
0
LINE
8
BLACK
6
CONTINUOUS
10
6.70397
20
-4.73453
11
6.69714
21
-4.72376
0
LINE
8
BLACK
6
CONTINUOUS
10
6.69714
20
-4.72376
11
6.68901
21
-4.71393
0
LINE
8
BLACK
6
CONTINUOUS
10
6.68901
20
-4.71393
11
6.67971
21
-4.7052
0
LINE
8
BLACK
6
CONTINUOUS
10
6.67971
20
-4.7052
11
6.66939
21
-4.6977
0
LINE
8
BLACK
6
CONTINUOUS
10
6.66939
20
-4.6977
11
6.65821
21
-4.69155
0
LINE
8
BLACK
6
CONTINUOUS
10
6.65821
20
-4.69155
11
6.64635
21
-4.68686
0
LINE
8
BLACK
6
CONTINUOUS
10
6.64635
20
-4.68686
11
6.63399
21
-4.68369
0
LINE
8
BLACK
6
CONTINUOUS
10
6.63399
20
-4.68369
11
6.62134
21
-4.68209
0
LINE
8
BLACK
6
CONTINUOUS
10
6.62134
20
-4.68209
11
6.60858
21
-4.68209
0
LINE
8
BLACK
6
CONTINUOUS
10
6.60858
20
-4.68209
11
6.59593
21
-4.68369
0
LINE
8
BLACK
6
CONTINUOUS
10
6.59593
20
-4.68369
11
6.58357
21
-4.68686
0
LINE
8
BLACK
6
CONTINUOUS
10
6.58357
20
-4.68686
11
6.57171
21
-4.69155
0
LINE
8
BLACK
6
CONTINUOUS
10
6.57171
20
-4.69155
11
6.56053
21
-4.6977
0
LINE
8
BLACK
6
CONTINUOUS
10
6.56053
20
-4.6977
11
6.55021
21
-4.7052
0
LINE
8
BLACK
6
CONTINUOUS
10
6.55021
20
-4.7052
11
6.54091
21
-4.71393
0
LINE
8
BLACK
6
CONTINUOUS
10
6.54091
20
-4.71393
11
6.53278
21
-4.72376
0
LINE
8
BLACK
6
CONTINUOUS
10
6.53278
20
-4.72376
11
6.52595
21
-4.73453
0
LINE
8
BLACK
6
CONTINUOUS
10
6.52595
20
-4.73453
11
6.52052
21
-4.74607
0
LINE
8
BLACK
6
CONTINUOUS
10
6.52052
20
-4.74607
11
6.51657
21
-4.7582
0
LINE
8
BLACK
6
CONTINUOUS
10
6.51657
20
-4.7582
11
6.51418
21
-4.77073
0
LINE
8
BLACK
6
CONTINUOUS
10
6.51418
20
-4.77073
11
6.51338
21
-4.78346
0
LINE
8
BLACK
6
CONTINUOUS
10
1.5502
20
-4.78346
11
1.55095
21
-4.77101
0
LINE
8
BLACK
6
CONTINUOUS
10
1.55095
20
-4.77101
11
1.5532
21
-4.75873
0
LINE
8
BLACK
6
CONTINUOUS
10
1.5532
20
-4.75873
11
1.55691
21
-4.74682
0
LINE
8
BLACK
6
CONTINUOUS
10
1.55691
20
-4.74682
11
1.56203
21
-4.73544
0
LINE
8
BLACK
6
CONTINUOUS
10
1.56203
20
-4.73544
11
1.56849
21
-4.72476
0
LINE
8
BLACK
6
CONTINUOUS
10
1.56849
20
-4.72476
11
1.57619
21
-4.71493
0
LINE
8
BLACK
6
CONTINUOUS
10
1.57619
20
-4.71493
11
1.58501
21
-4.70611
0
LINE
8
BLACK
6
CONTINUOUS
10
1.58501
20
-4.70611
11
1.59484
21
-4.69841
0
LINE
8
BLACK
6
CONTINUOUS
10
1.59484
20
-4.69841
11
1.60552
21
-4.69196
0
LINE
8
BLACK
6
CONTINUOUS
10
1.60552
20
-4.69196
11
1.6169
21
-4.68683
0
LINE
8
BLACK
6
CONTINUOUS
10
1.6169
20
-4.68683
11
1.62881
21
-4.68312
0
LINE
8
BLACK
6
CONTINUOUS
10
1.62881
20
-4.68312
11
1.64109
21
-4.68087
0
LINE
8
BLACK
6
CONTINUOUS
10
1.64109
20
-4.68087
11
1.65354
21
-4.68012
0
LINE
8
BLACK
6
CONTINUOUS
10
1.65354
20
-4.68012
11
1.666
21
-4.68087
0
LINE
8
BLACK
6
CONTINUOUS
10
1.666
20
-4.68087
11
1.67828
21
-4.68312
0
LINE
8
BLACK
6
CONTINUOUS
10
1.67828
20
-4.68312
11
1.69019
21
-4.68683
0
LINE
8
BLACK
6
CONTINUOUS
10
1.69019
20
-4.68683
11
1.70157
21
-4.69196
0
LINE
8
BLACK
6
CONTINUOUS
10
1.70157
20
-4.69196
11
1.71225
21
-4.69841
0
LINE
8
BLACK
6
CONTINUOUS
10
1.71225
20
-4.69841
11
1.72207
21
-4.70611
0
LINE
8
BLACK
6
CONTINUOUS
10
1.72207
20
-4.70611
11
1.7309
21
-4.71493
0
LINE
8
BLACK
6
CONTINUOUS
10
1.7309
20
-4.71493
11
1.7386
21
-4.72476
0
LINE
8
BLACK
6
CONTINUOUS
10
1.7386
20
-4.72476
11
1.74505
21
-4.73544
0
LINE
8
BLACK
6
CONTINUOUS
10
1.74505
20
-4.73544
11
1.75017
21
-4.74682
0
LINE
8
BLACK
6
CONTINUOUS
10
1.75017
20
-4.74682
11
1.75389
21
-4.75873
0
LINE
8
BLACK
6
CONTINUOUS
10
1.75389
20
-4.75873
11
1.75614
21
-4.77101
0
LINE
8
BLACK
6
CONTINUOUS
10
1.75614
20
-4.77101
11
1.75689
21
-4.78346
0
LINE
8
BLACK
6
CONTINUOUS
10
1.75689
20
-4.78346
11
1.75614
21
-4.79592
0
LINE
8
BLACK
6
CONTINUOUS
10
1.75614
20
-4.79592
11
1.75389
21
-4.8082
0
LINE
8
BLACK
6
CONTINUOUS
10
1.75389
20
-4.8082
11
1.75017
21
-4.82011
0
LINE
8
BLACK
6
CONTINUOUS
10
1.75017
20
-4.82011
11
1.74505
21
-4.83149
0
LINE
8
BLACK
6
CONTINUOUS
10
1.74505
20
-4.83149
11
1.7386
21
-4.84217
0
LINE
8
BLACK
6
CONTINUOUS
10
1.7386
20
-4.84217
11
1.7309
21
-4.852
0
LINE
8
BLACK
6
CONTINUOUS
10
1.7309
20
-4.852
11
1.72207
21
-4.86082
0
LINE
8
BLACK
6
CONTINUOUS
10
1.72207
20
-4.86082
11
1.71225
21
-4.86852
0
LINE
8
BLACK
6
CONTINUOUS
10
1.71225
20
-4.86852
11
1.70157
21
-4.87497
0
LINE
8
BLACK
6
CONTINUOUS
10
1.70157
20
-4.87497
11
1.69019
21
-4.8801
0
LINE
8
BLACK
6
CONTINUOUS
10
1.69019
20
-4.8801
11
1.67828
21
-4.88381
0
LINE
8
BLACK
6
CONTINUOUS
10
1.67828
20
-4.88381
11
1.666
21
-4.88606
0
LINE
8
BLACK
6
CONTINUOUS
10
1.666
20
-4.88606
11
1.65354
21
-4.88681
0
LINE
8
BLACK
6
CONTINUOUS
10
1.65354
20
-4.88681
11
1.64109
21
-4.88606
0
LINE
8
BLACK
6
CONTINUOUS
10
1.64109
20
-4.88606
11
1.62881
21
-4.88381
0
LINE
8
BLACK
6
CONTINUOUS
10
1.62881
20
-4.88381
11
1.6169
21
-4.8801
0
LINE
8
BLACK
6
CONTINUOUS
10
1.6169
20
-4.8801
11
1.60552
21
-4.87497
0
LINE
8
BLACK
6
CONTINUOUS
10
1.60552
20
-4.87497
11
1.59484
21
-4.86852
0
LINE
8
BLACK
6
CONTINUOUS
10
1.59484
20
-4.86852
11
1.58501
21
-4.86082
0
LINE
8
BLACK
6
CONTINUOUS
10
1.58501
20
-4.86082
11
1.57619
21
-4.852
0
LINE
8
BLACK
6
CONTINUOUS
10
1.57619
20
-4.852
11
1.56849
21
-4.84217
0
LINE
8
BLACK
6
CONTINUOUS
10
1.56849
20
-4.84217
11
1.56203
21
-4.83149
0
LINE
8
BLACK
6
CONTINUOUS
10
1.56203
20
-4.83149
11
1.55691
21
-4.82011
0
LINE
8
BLACK
6
CONTINUOUS
10
1.55691
20
-4.82011
11
1.5532
21
-4.8082
0
LINE
8
BLACK
6
CONTINUOUS
10
1.5532
20
-4.8082
11
1.55095
21
-4.79592
0
LINE
8
BLACK
6
CONTINUOUS
10
1.55095
20
-4.79592
11
1.5502
21
-4.78346
0
LINE
8
BLACK
6
CONTINUOUS
10
1.55196
20
-4.78346
11
1.55277
21
-4.7962
0
LINE
8
BLACK
6
CONTINUOUS
10
1.55277
20
-4.7962
11
1.55516
21
-4.80873
0
LINE
8
BLACK
6
CONTINUOUS
10
1.55516
20
-4.80873
11
1.5591
21
-4.82086
0
LINE
8
BLACK
6
CONTINUOUS
10
1.5591
20
-4.82086
11
1.56453
21
-4.8324
0
LINE
8
BLACK
6
CONTINUOUS
10
1.56453
20
-4.8324
11
1.57136
21
-4.84317
0
LINE
8
BLACK
6
CONTINUOUS
10
1.57136
20
-4.84317
11
1.5795
21
-4.853
0
LINE
8
BLACK
6
CONTINUOUS
10
1.5795
20
-4.853
11
1.58879
21
-4.86173
0
LINE
8
BLACK
6
CONTINUOUS
10
1.58879
20
-4.86173
11
1.59911
21
-4.86923
0
LINE
8
BLACK
6
CONTINUOUS
10
1.59911
20
-4.86923
11
1.61029
21
-4.87538
0
LINE
8
BLACK
6
CONTINUOUS
10
1.61029
20
-4.87538
11
1.62215
21
-4.88007
0
LINE
8
BLACK
6
CONTINUOUS
10
1.62215
20
-4.88007
11
1.63451
21
-4.88324
0
LINE
8
BLACK
6
CONTINUOUS
10
1.63451
20
-4.88324
11
1.64717
21
-4.88484
0
LINE
8
BLACK
6
CONTINUOUS
10
1.64717
20
-4.88484
11
1.65992
21
-4.88484
0
LINE
8
BLACK
6
CONTINUOUS
10
1.65992
20
-4.88484
11
1.67258
21
-4.88324
0
LINE
8
BLACK
6
CONTINUOUS
10
1.67258
20
-4.88324
11
1.68493
21
-4.88007
0
LINE
8
BLACK
6
CONTINUOUS
10
1.68493
20
-4.88007
11
1.69679
21
-4.87538
0
LINE
8
BLACK
6
CONTINUOUS
10
1.69679
20
-4.87538
11
1.70797
21
-4.86923
0
LINE
8
BLACK
6
CONTINUOUS
10
1.70797
20
-4.86923
11
1.71829
21
-4.86173
0
LINE
8
BLACK
6
CONTINUOUS
10
1.71829
20
-4.86173
11
1.72759
21
-4.853
0
LINE
8
BLACK
6
CONTINUOUS
10
1.72759
20
-4.853
11
1.73572
21
-4.84317
0
LINE
8
BLACK
6
CONTINUOUS
10
1.73572
20
-4.84317
11
1.74256
21
-4.8324
0
LINE
8
BLACK
6
CONTINUOUS
10
1.74256
20
-4.8324
11
1.74799
21
-4.82086
0
LINE
8
BLACK
6
CONTINUOUS
10
1.74799
20
-4.82086
11
1.75193
21
-4.80873
0
LINE
8
BLACK
6
CONTINUOUS
10
1.75193
20
-4.80873
11
1.75432
21
-4.7962
0
LINE
8
BLACK
6
CONTINUOUS
10
1.75432
20
-4.7962
11
1.75512
21
-4.78346
0
LINE
8
BLACK
6
CONTINUOUS
10
1.75512
20
-4.78346
11
1.75432
21
-4.77073
0
LINE
8
BLACK
6
CONTINUOUS
10
1.75432
20
-4.77073
11
1.75193
21
-4.7582
0
LINE
8
BLACK
6
CONTINUOUS
10
1.75193
20
-4.7582
11
1.74799
21
-4.74607
0
LINE
8
BLACK
6
CONTINUOUS
10
1.74799
20
-4.74607
11
1.74256
21
-4.73453
0
LINE
8
BLACK
6
CONTINUOUS
10
1.74256
20
-4.73453
11
1.73572
21
-4.72376
0
LINE
8
BLACK
6
CONTINUOUS
10
1.73572
20
-4.72376
11
1.72759
21
-4.71393
0
LINE
8
BLACK
6
CONTINUOUS
10
1.72759
20
-4.71393
11
1.71829
21
-4.7052
0
LINE
8
BLACK
6
CONTINUOUS
10
1.71829
20
-4.7052
11
1.70797
21
-4.6977
0
LINE
8
BLACK
6
CONTINUOUS
10
1.70797
20
-4.6977
11
1.69679
21
-4.69155
0
LINE
8
BLACK
6
CONTINUOUS
10
1.69679
20
-4.69155
11
1.68493
21
-4.68686
0
LINE
8
BLACK
6
CONTINUOUS
10
1.68493
20
-4.68686
11
1.67258
21
-4.68369
0
LINE
8
BLACK
6
CONTINUOUS
10
1.67258
20
-4.68369
11
1.65992
21
-4.68209
0
LINE
8
BLACK
6
CONTINUOUS
10
1.65992
20
-4.68209
11
1.64717
21
-4.68209
0
LINE
8
BLACK
6
CONTINUOUS
10
1.64717
20
-4.68209
11
1.63451
21
-4.68369
0
LINE
8
BLACK
6
CONTINUOUS
10
1.63451
20
-4.68369
11
1.62215
21
-4.68686
0
LINE
8
BLACK
6
CONTINUOUS
10
1.62215
20
-4.68686
11
1.61029
21
-4.69155
0
LINE
8
BLACK
6
CONTINUOUS
10
1.61029
20
-4.69155
11
1.59911
21
-4.6977
0
LINE
8
BLACK
6
CONTINUOUS
10
1.59911
20
-4.6977
11
1.58879
21
-4.7052
0
LINE
8
BLACK
6
CONTINUOUS
10
1.58879
20
-4.7052
11
1.5795
21
-4.71393
0
LINE
8
BLACK
6
CONTINUOUS
10
1.5795
20
-4.71393
11
1.57136
21
-4.72376
0
LINE
8
BLACK
6
CONTINUOUS
10
1.57136
20
-4.72376
11
1.56453
21
-4.73453
0
LINE
8
BLACK
6
CONTINUOUS
10
1.56453
20
-4.73453
11
1.5591
21
-4.74607
0
LINE
8
BLACK
6
CONTINUOUS
10
1.5591
20
-4.74607
11
1.55516
21
-4.7582
0
LINE
8
BLACK
6
CONTINUOUS
10
1.55516
20
-4.7582
11
1.55277
21
-4.77073
0
LINE
8
BLACK
6
CONTINUOUS
10
1.55277
20
-4.77073
11
1.55196
21
-4.78346
0
LINE
8
BLACK
6
CONTINUOUS
10
4.26181
20
-4.04429
11
4.26251
21
-4.04458
0
LINE
8
BLACK
6
CONTINUOUS
10
4.26251
20
-4.04458
11
4.2628
21
-4.04528
0
LINE
8
BLACK
6
CONTINUOUS
10
4.2628
20
-4.04528
11
4.2628
21
-4.08878
0
LINE
8
BLACK
6
CONTINUOUS
10
4.2628
20
-4.08878
11
4.34488
21
-4.08878
0
LINE
8
BLACK
6
CONTINUOUS
10
4.34488
20
-4.08878
11
4.34558
21
-4.08907
0
LINE
8
BLACK
6
CONTINUOUS
10
4.34558
20
-4.08907
11
4.34587
21
-4.08976
0
LINE
8
BLACK
6
CONTINUOUS
10
4.34587
20
-4.08976
11
4.34587
21
-4.27087
0
LINE
8
BLACK
6
CONTINUOUS
10
4.34587
20
-4.27087
11
4.34558
21
-4.27156
0
LINE
8
BLACK
6
CONTINUOUS
10
4.34558
20
-4.27156
11
4.34488
21
-4.27185
0
LINE
8
BLACK
6
CONTINUOUS
10
4.34488
20
-4.27185
11
4.2628
21
-4.27185
0
LINE
8
BLACK
6
CONTINUOUS
10
4.2628
20
-4.27185
11
4.2628
21
-4.30118
0
LINE
8
BLACK
6
CONTINUOUS
10
4.2628
20
-4.30118
11
4.26251
21
-4.30188
0
LINE
8
BLACK
6
CONTINUOUS
10
4.26251
20
-4.30188
11
4.26181
21
-4.30217
0
LINE
8
BLACK
6
CONTINUOUS
10
4.26181
20
-4.30217
11
4.00591
21
-4.30217
0
LINE
8
BLACK
6
CONTINUOUS
10
4.00591
20
-4.30217
11
4.00521
21
-4.30188
0
LINE
8
BLACK
6
CONTINUOUS
10
4.00521
20
-4.30188
11
4.00492
21
-4.30118
0
LINE
8
BLACK
6
CONTINUOUS
10
4.00492
20
-4.30118
11
4.00492
21
-4.04528
0
LINE
8
BLACK
6
CONTINUOUS
10
4.00492
20
-4.04528
11
4.00521
21
-4.04458
0
LINE
8
BLACK
6
CONTINUOUS
10
4.00521
20
-4.04458
11
4.00591
21
-4.04429
0
LINE
8
BLACK
6
CONTINUOUS
10
4.00591
20
-4.04429
11
4.26181
21
-4.04429
0
LINE
8
BLACK
6
CONTINUOUS
10
4.00689
20
-4.04626
11
4.00689
21
-4.3002
0
LINE
8
BLACK
6
CONTINUOUS
10
4.00689
20
-4.3002
11
4.26083
21
-4.3002
0
LINE
8
BLACK
6
CONTINUOUS
10
4.26083
20
-4.3002
11
4.26083
21
-4.04626
0
LINE
8
BLACK
6
CONTINUOUS
10
4.26083
20
-4.04626
11
4.00689
21
-4.04626
0
LINE
8
BLACK
6
CONTINUOUS
10
4.26319
20
-4.09075
11
4.26319
21
-4.26988
0
LINE
8
BLACK
6
CONTINUOUS
10
4.26319
20
-4.26988
11
4.3439
21
-4.26988
0
LINE
8
BLACK
6
CONTINUOUS
10
4.3439
20
-4.26988
11
4.3439
21
-4.09075
0
LINE
8
BLACK
6
CONTINUOUS
10
4.3439
20
-4.09075
11
4.26319
21
-4.09075
0
LINE
8
BLACK
6
CONTINUOUS
10
6.40433
20
-4.08366
11
6.40503
21
-4.08395
0
LINE
8
BLACK
6
CONTINUOUS
10
6.40503
20
-4.08395
11
6.40531
21
-4.08465
0
LINE
8
BLACK
6
CONTINUOUS
10
6.40531
20
-4.08465
11
6.40531
21
-4.26575
0
LINE
8
BLACK
6
CONTINUOUS
10
6.40531
20
-4.26575
11
6.40503
21
-4.26644
0
LINE
8
BLACK
6
CONTINUOUS
10
6.40503
20
-4.26644
11
6.40433
21
-4.26673
0
LINE
8
BLACK
6
CONTINUOUS
10
6.40433
20
-4.26673
11
6.32165
21
-4.26673
0
LINE
8
BLACK
6
CONTINUOUS
10
6.32165
20
-4.26673
11
6.32096
21
-4.26644
0
LINE
8
BLACK
6
CONTINUOUS
10
6.32096
20
-4.26644
11
6.32067
21
-4.26575
0
LINE
8
BLACK
6
CONTINUOUS
10
6.32067
20
-4.26575
11
6.32067
21
-4.08465
0
LINE
8
BLACK
6
CONTINUOUS
10
6.32067
20
-4.08465
11
6.32096
21
-4.08395
0
LINE
8
BLACK
6
CONTINUOUS
10
6.32096
20
-4.08395
11
6.32165
21
-4.08366
0
LINE
8
BLACK
6
CONTINUOUS
10
6.32165
20
-4.08366
11
6.40433
21
-4.08366
0
LINE
8
BLACK
6
CONTINUOUS
10
6.32264
20
-4.08563
11
6.32264
21
-4.26476
0
LINE
8
BLACK
6
CONTINUOUS
10
6.32264
20
-4.26476
11
6.40335
21
-4.26476
0
LINE
8
BLACK
6
CONTINUOUS
10
6.40335
20
-4.26476
11
6.40335
21
-4.08563
0
LINE
8
BLACK
6
CONTINUOUS
10
6.40335
20
-4.08563
11
6.32264
21
-4.08563
0
LINE
8
BLACK
6
CONTINUOUS
10
3.92283
20
-4.01358
11
3.92353
21
-4.01387
0
LINE
8
BLACK
6
CONTINUOUS
10
3.92353
20
-4.01387
11
3.92382
21
-4.01457
0
LINE
8
BLACK
6
CONTINUOUS
10
3.92382
20
-4.01457
11
3.92382
21
-4.25669
0
LINE
8
BLACK
6
CONTINUOUS
10
3.92382
20
-4.25669
11
3.92353
21
-4.25739
0
LINE
8
BLACK
6
CONTINUOUS
10
3.92353
20
-4.25739
11
3.92283
21
-4.25768
0
LINE
8
BLACK
6
CONTINUOUS
10
3.92283
20
-4.25768
11
1.8815
21
-4.25768
0
LINE
8
BLACK
6
CONTINUOUS
10
1.8815
20
-4.25768
11
1.8808
21
-4.25739
0
LINE
8
BLACK
6
CONTINUOUS
10
1.8808
20
-4.25739
11
1.88051
21
-4.25669
0
LINE
8
BLACK
6
CONTINUOUS
10
1.88051
20
-4.25669
11
1.88051
21
-4.01457
0
LINE
8
BLACK
6
CONTINUOUS
10
1.88051
20
-4.01457
11
1.8808
21
-4.01387
0
LINE
8
BLACK
6
CONTINUOUS
10
1.8808
20
-4.01387
11
1.8815
21
-4.01358
0
LINE
8
BLACK
6
CONTINUOUS
10
1.8815
20
-4.01358
11
3.92283
21
-4.01358
0
LINE
8
BLACK
6
CONTINUOUS
10
1.88248
20
-4.01555
11
1.88248
21
-4.25571
0
LINE
8
BLACK
6
CONTINUOUS
10
1.88248
20
-4.25571
11
3.92185
21
-4.25571
0
LINE
8
BLACK
6
CONTINUOUS
10
3.92185
20
-4.25571
11
3.92185
21
-4.01555
0
LINE
8
BLACK
6
CONTINUOUS
10
3.92185
20
-4.01555
11
1.88248
21
-4.01555
0
LINE
8
BLACK
6
CONTINUOUS
10
5.46555
20
-2.49734
11
5.46634
21
-2.47924
0
LINE
8
BLACK
6
CONTINUOUS
10
5.46634
20
-2.47924
11
5.46871
21
-2.46127
0
LINE
8
BLACK
6
CONTINUOUS
10
5.46871
20
-2.46127
11
5.47263
21
-2.44358
0
LINE
8
BLACK
6
CONTINUOUS
10
5.47263
20
-2.44358
11
5.47808
21
-2.42631
0
LINE
8
BLACK
6
CONTINUOUS
10
5.47808
20
-2.42631
11
5.48501
21
-2.40957
0
LINE
8
BLACK
6
CONTINUOUS
10
5.48501
20
-2.40957
11
5.49337
21
-2.3935
0
LINE
8
BLACK
6
CONTINUOUS
10
5.49337
20
-2.3935
11
5.50311
21
-2.37822
0
LINE
8
BLACK
6
CONTINUOUS
10
5.50311
20
-2.37822
11
5.51414
21
-2.36384
0
LINE
8
BLACK
6
CONTINUOUS
10
5.51414
20
-2.36384
11
5.52638
21
-2.35049
0
LINE
8
BLACK
6
CONTINUOUS
10
5.52638
20
-2.35049
11
5.53974
21
-2.33825
0
LINE
8
BLACK
6
CONTINUOUS
10
5.53974
20
-2.33825
11
5.55411
21
-2.32722
0
LINE
8
BLACK
6
CONTINUOUS
10
5.55411
20
-2.32722
11
5.56939
21
-2.31748
0
LINE
8
BLACK
6
CONTINUOUS
10
5.56939
20
-2.31748
11
5.58546
21
-2.30912
0
LINE
8
BLACK
6
CONTINUOUS
10
5.58546
20
-2.30912
11
5.6022
21
-2.30218
0
LINE
8
BLACK
6
CONTINUOUS
10
5.6022
20
-2.30218
11
5.61948
21
-2.29673
0
LINE
8
BLACK
6
CONTINUOUS
10
5.61948
20
-2.29673
11
5.63717
21
-2.29281
0
LINE
8
BLACK
6
CONTINUOUS
10
5.63717
20
-2.29281
11
5.65513
21
-2.29045
0
LINE
8
BLACK
6
CONTINUOUS
10
5.65513
20
-2.29045
11
5.65729
21
-2.29035
0
LINE
8
BLACK
6
CONTINUOUS
10
5.65729
20
-2.29035
11
5.51181
21
-2.29035
0
LINE
8
BLACK
6
CONTINUOUS
10
5.51181
20
-2.29035
11
5.51112
21
-2.29007
0
LINE
8
BLACK
6
CONTINUOUS
10
5.51112
20
-2.29007
11
5.51083
21
-2.28937
0
LINE
8
BLACK
6
CONTINUOUS
10
5.51083
20
-2.28937
11
5.51083
21
-2.09646
0
LINE
8
BLACK
6
CONTINUOUS
10
5.51083
20
-2.09646
11
5.51112
21
-2.09576
0
LINE
8
BLACK
6
CONTINUOUS
10
5.51112
20
-2.09576
11
5.51181
21
-2.09547
0
LINE
8
BLACK
6
CONTINUOUS
10
5.51181
20
-2.09547
11
5.82677
21
-2.09547
0
LINE
8
BLACK
6
CONTINUOUS
10
5.82677
20
-2.09547
11
5.82747
21
-2.09576
0
LINE
8
BLACK
6
CONTINUOUS
10
5.82747
20
-2.09576
11
5.82776
21
-2.09646
0
LINE
8
BLACK
6
CONTINUOUS
10
5.82776
20
-2.09646
11
5.82776
21
-2.28937
0
LINE
8
BLACK
6
CONTINUOUS
10
5.82776
20
-2.28937
11
5.82747
21
-2.29007
0
LINE
8
BLACK
6
CONTINUOUS
10
5.82747
20
-2.29007
11
5.82677
21
-2.29035
0
LINE
8
BLACK
6
CONTINUOUS
10
5.82677
20
-2.29035
11
5.68917
21
-2.29035
0
LINE
8
BLACK
6
CONTINUOUS
10
5.68917
20
-2.29035
11
5.69133
21
-2.29045
0
LINE
8
BLACK
6
CONTINUOUS
10
5.69133
20
-2.29045
11
5.70929
21
-2.29281
0
LINE
8
BLACK
6
CONTINUOUS
10
5.70929
20
-2.29281
11
5.72698
21
-2.29673
0
LINE
8
BLACK
6
CONTINUOUS
10
5.72698
20
-2.29673
11
5.74426
21
-2.30218
0
LINE
8
BLACK
6
CONTINUOUS
10
5.74426
20
-2.30218
11
5.761
21
-2.30912
0
LINE
8
BLACK
6
CONTINUOUS
10
5.761
20
-2.30912
11
5.77707
21
-2.31748
0
LINE
8
BLACK
6
CONTINUOUS
10
5.77707
20
-2.31748
11
5.79235
21
-2.32722
0
LINE
8
BLACK
6
CONTINUOUS
10
5.79235
20
-2.32722
11
5.80672
21
-2.33825
0
LINE
8
BLACK
6
CONTINUOUS
10
5.80672
20
-2.33825
11
5.82008
21
-2.35049
0
LINE
8
BLACK
6
CONTINUOUS
10
5.82008
20
-2.35049
11
5.83232
21
-2.36384
0
LINE
8
BLACK
6
CONTINUOUS
10
5.83232
20
-2.36384
11
5.84335
21
-2.37822
0
LINE
8
BLACK
6
CONTINUOUS
10
5.84335
20
-2.37822
11
5.85308
21
-2.3935
0
LINE
8
BLACK
6
CONTINUOUS
10
5.85308
20
-2.3935
11
5.86145
21
-2.40957
0
LINE
8
BLACK
6
CONTINUOUS
10
5.86145
20
-2.40957
11
5.86838
21
-2.42631
0
LINE
8
BLACK
6
CONTINUOUS
10
5.86838
20
-2.42631
11
5.87383
21
-2.44358
0
LINE
8
BLACK
6
CONTINUOUS
10
5.87383
20
-2.44358
11
5.87775
21
-2.46127
0
LINE
8
BLACK
6
CONTINUOUS
10
5.87775
20
-2.46127
11
5.88012
21
-2.47924
0
LINE
8
BLACK
6
CONTINUOUS
10
5.88012
20
-2.47924
11
5.88091
21
-2.49734
0
LINE
8
BLACK
6
CONTINUOUS
10
5.88091
20
-2.49734
11
5.88012
21
-2.51544
0
LINE
8
BLACK
6
CONTINUOUS
10
5.88012
20
-2.51544
11
5.87775
21
-2.5334
0
LINE
8
BLACK
6
CONTINUOUS
10
5.87775
20
-2.5334
11
5.87383
21
-2.55109
0
LINE
8
BLACK
6
CONTINUOUS
10
5.87383
20
-2.55109
11
5.86838
21
-2.56837
0
LINE
8
BLACK
6
CONTINUOUS
10
5.86838
20
-2.56837
11
5.86145
21
-2.5851
0
LINE
8
BLACK
6
CONTINUOUS
10
5.86145
20
-2.5851
11
5.85308
21
-2.60117
0
LINE
8
BLACK
6
CONTINUOUS
10
5.85308
20
-2.60117
11
5.84335
21
-2.61645
0
LINE
8
BLACK
6
CONTINUOUS
10
5.84335
20
-2.61645
11
5.83232
21
-2.63083
0
LINE
8
BLACK
6
CONTINUOUS
10
5.83232
20
-2.63083
11
5.82008
21
-2.64419
0
LINE
8
BLACK
6
CONTINUOUS
10
5.82008
20
-2.64419
11
5.80672
21
-2.65643
0
LINE
8
BLACK
6
CONTINUOUS
10
5.80672
20
-2.65643
11
5.79235
21
-2.66745
0
LINE
8
BLACK
6
CONTINUOUS
10
5.79235
20
-2.66745
11
5.77707
21
-2.67719
0
LINE
8
BLACK
6
CONTINUOUS
10
5.77707
20
-2.67719
11
5.761
21
-2.68555
0
LINE
8
BLACK
6
CONTINUOUS
10
5.761
20
-2.68555
11
5.74426
21
-2.69249
0
LINE
8
BLACK
6
CONTINUOUS
10
5.74426
20
-2.69249
11
5.72698
21
-2.69794
0
LINE
8
BLACK
6
CONTINUOUS
10
5.72698
20
-2.69794
11
5.70929
21
-2.70186
0
LINE
8
BLACK
6
CONTINUOUS
10
5.70929
20
-2.70186
11
5.69133
21
-2.70422
0
LINE
8
BLACK
6
CONTINUOUS
10
5.69133
20
-2.70422
11
5.67532
21
-2.70492
0
LINE
8
BLACK
6
CONTINUOUS
10
5.67532
20
-2.70492
11
5.81693
21
-2.70492
0
LINE
8
BLACK
6
CONTINUOUS
10
5.81693
20
-2.70492
11
5.81763
21
-2.70521
0
LINE
8
BLACK
6
CONTINUOUS
10
5.81763
20
-2.70521
11
5.81791
21
-2.70591
0
LINE
8
BLACK
6
CONTINUOUS
10
5.81791
20
-2.70591
11
5.81791
21
-3.72559
0
LINE
8
BLACK
6
CONTINUOUS
10
5.81791
20
-3.72559
11
5.81763
21
-3.72629
0
LINE
8
BLACK
6
CONTINUOUS
10
5.81763
20
-3.72629
11
5.81693
21
-3.72657
0
LINE
8
BLACK
6
CONTINUOUS
10
5.81693
20
-3.72657
11
4.79724
21
-3.72657
0
LINE
8
BLACK
6
CONTINUOUS
10
4.79724
20
-3.72657
11
4.79655
21
-3.72629
0
LINE
8
BLACK
6
CONTINUOUS
10
4.79655
20
-3.72629
11
4.79626
21
-3.72559
0
LINE
8
BLACK
6
CONTINUOUS
10
4.79626
20
-3.72559
11
4.79626
21
-2.70591
0
LINE
8
BLACK
6
CONTINUOUS
10
4.79626
20
-2.70591
11
4.79655
21
-2.70521
0
LINE
8
BLACK
6
CONTINUOUS
10
4.79655
20
-2.70521
11
4.79724
21
-2.70492
0
LINE
8
BLACK
6
CONTINUOUS
10
4.79724
20
-2.70492
11
5.67113
21
-2.70492
0
LINE
8
BLACK
6
CONTINUOUS
10
5.67113
20
-2.70492
11
5.65513
21
-2.70422
0
LINE
8
BLACK
6
CONTINUOUS
10
5.65513
20
-2.70422
11
5.63717
21
-2.70186
0
LINE
8
BLACK
6
CONTINUOUS
10
5.63717
20
-2.70186
11
5.61948
21
-2.69794
0
LINE
8
BLACK
6
CONTINUOUS
10
5.61948
20
-2.69794
11
5.6022
21
-2.69249
0
LINE
8
BLACK
6
CONTINUOUS
10
5.6022
20
-2.69249
11
5.58546
21
-2.68555
0
LINE
8
BLACK
6
CONTINUOUS
10
5.58546
20
-2.68555
11
5.56939
21
-2.67719
0
LINE
8
BLACK
6
CONTINUOUS
10
5.56939
20
-2.67719
11
5.55411
21
-2.66745
0
LINE
8
BLACK
6
CONTINUOUS
10
5.55411
20
-2.66745
11
5.53974
21
-2.65643
0
LINE
8
BLACK
6
CONTINUOUS
10
5.53974
20
-2.65643
11
5.52638
21
-2.64419
0
LINE
8
BLACK
6
CONTINUOUS
10
5.52638
20
-2.64419
11
5.51414
21
-2.63083
0
LINE
8
BLACK
6
CONTINUOUS
10
5.51414
20
-2.63083
11
5.50311
21
-2.61645
0
LINE
8
BLACK
6
CONTINUOUS
10
5.50311
20
-2.61645
11
5.49337
21
-2.60117
0
LINE
8
BLACK
6
CONTINUOUS
10
5.49337
20
-2.60117
11
5.48501
21
-2.5851
0
LINE
8
BLACK
6
CONTINUOUS
10
5.48501
20
-2.5851
11
5.47808
21
-2.56837
0
LINE
8
BLACK
6
CONTINUOUS
10
5.47808
20
-2.56837
11
5.47263
21
-2.55109
0
LINE
8
BLACK
6
CONTINUOUS
10
5.47263
20
-2.55109
11
5.46871
21
-2.5334
0
LINE
8
BLACK
6
CONTINUOUS
10
5.46871
20
-2.5334
11
5.46634
21
-2.51544
0
LINE
8
BLACK
6
CONTINUOUS
10
5.46634
20
-2.51544
11
5.46555
21
-2.49734
0
LINE
8
BLACK
6
CONTINUOUS
10
4.79823
20
-2.70689
11
4.79823
21
-3.72461
0
LINE
8
BLACK
6
CONTINUOUS
10
4.79823
20
-3.72461
11
5.81594
21
-3.72461
0
LINE
8
BLACK
6
CONTINUOUS
10
5.81594
20
-3.72461
11
5.81594
21
-2.70689
0
LINE
8
BLACK
6
CONTINUOUS
10
5.81594
20
-2.70689
11
4.79823
21
-2.70689
0
LINE
8
BLACK
6
CONTINUOUS
10
5.5128
20
-2.09744
11
5.5128
21
-2.28839
0
LINE
8
BLACK
6
CONTINUOUS
10
5.5128
20
-2.28839
11
5.82579
21
-2.28839
0
LINE
8
BLACK
6
CONTINUOUS
10
5.82579
20
-2.28839
11
5.82579
21
-2.09744
0
LINE
8
BLACK
6
CONTINUOUS
10
5.82579
20
-2.09744
11
5.5128
21
-2.09744
0
LINE
8
BLACK
6
CONTINUOUS
10
5.46732
20
-2.49734
11
5.46811
21
-2.51528
0
LINE
8
BLACK
6
CONTINUOUS
10
5.46811
20
-2.51528
11
5.47045
21
-2.53309
0
LINE
8
BLACK
6
CONTINUOUS
10
5.47045
20
-2.53309
11
5.47434
21
-2.55063
0
LINE
8
BLACK
6
CONTINUOUS
10
5.47434
20
-2.55063
11
5.47974
21
-2.56776
0
LINE
8
BLACK
6
CONTINUOUS
10
5.47974
20
-2.56776
11
5.48662
21
-2.58435
0
LINE
8
BLACK
6
CONTINUOUS
10
5.48662
20
-2.58435
11
5.49491
21
-2.60029
0
LINE
8
BLACK
6
CONTINUOUS
10
5.49491
20
-2.60029
11
5.50456
21
-2.61544
0
LINE
8
BLACK
6
CONTINUOUS
10
5.50456
20
-2.61544
11
5.5155
21
-2.62969
0
LINE
8
BLACK
6
CONTINUOUS
10
5.5155
20
-2.62969
11
5.52763
21
-2.64293
0
LINE
8
BLACK
6
CONTINUOUS
10
5.52763
20
-2.64293
11
5.54088
21
-2.65507
0
LINE
8
BLACK
6
CONTINUOUS
10
5.54088
20
-2.65507
11
5.55513
21
-2.666
0
LINE
8
BLACK
6
CONTINUOUS
10
5.55513
20
-2.666
11
5.57028
21
-2.67565
0
LINE
8
BLACK
6
CONTINUOUS
10
5.57028
20
-2.67565
11
5.58621
21
-2.68395
0
LINE
8
BLACK
6
CONTINUOUS
10
5.58621
20
-2.68395
11
5.6028
21
-2.69082
0
LINE
8
BLACK
6
CONTINUOUS
10
5.6028
20
-2.69082
11
5.61994
21
-2.69622
0
LINE
8
BLACK
6
CONTINUOUS
10
5.61994
20
-2.69622
11
5.63747
21
-2.70011
0
LINE
8
BLACK
6
CONTINUOUS
10
5.63747
20
-2.70011
11
5.65528
21
-2.70246
0
LINE
8
BLACK
6
CONTINUOUS
10
5.65528
20
-2.70246
11
5.67323
21
-2.70324
0
LINE
8
BLACK
6
CONTINUOUS
10
5.67323
20
-2.70324
11
5.69117
21
-2.70246
0
LINE
8
BLACK
6
CONTINUOUS
10
5.69117
20
-2.70246
11
5.70898
21
-2.70011
0
LINE
8
BLACK
6
CONTINUOUS
10
5.70898
20
-2.70011
11
5.72652
21
-2.69622
0
LINE
8
BLACK
6
CONTINUOUS
10
5.72652
20
-2.69622
11
5.74365
21
-2.69082
0
LINE
8
BLACK
6
CONTINUOUS
10
5.74365
20
-2.69082
11
5.76025
21
-2.68395
0
LINE
8
BLACK
6
CONTINUOUS
10
5.76025
20
-2.68395
11
5.77618
21
-2.67565
0
LINE
8
BLACK
6
CONTINUOUS
10
5.77618
20
-2.67565
11
5.79133
21
-2.666
0
LINE
8
BLACK
6
CONTINUOUS
10
5.79133
20
-2.666
11
5.80558
21
-2.65507
0
LINE
8
BLACK
6
CONTINUOUS
10
5.80558
20
-2.65507
11
5.81882
21
-2.64293
0
LINE
8
BLACK
6
CONTINUOUS
10
5.81882
20
-2.64293
11
5.83096
21
-2.62969
0
LINE
8
BLACK
6
CONTINUOUS
10
5.83096
20
-2.62969
11
5.8419
21
-2.61544
0
LINE
8
BLACK
6
CONTINUOUS
10
5.8419
20
-2.61544
11
5.85155
21
-2.60029
0
LINE
8
BLACK
6
CONTINUOUS
10
5.85155
20
-2.60029
11
5.85984
21
-2.58435
0
LINE
8
BLACK
6
CONTINUOUS
10
5.85984
20
-2.58435
11
5.86672
21
-2.56776
0
LINE
8
BLACK
6
CONTINUOUS
10
5.86672
20
-2.56776
11
5.87212
21
-2.55063
0
LINE
8
BLACK
6
CONTINUOUS
10
5.87212
20
-2.55063
11
5.876
21
-2.53309
0
LINE
8
BLACK
6
CONTINUOUS
10
5.876
20
-2.53309
11
5.87835
21
-2.51528
0
LINE
8
BLACK
6
CONTINUOUS
10
5.87835
20
-2.51528
11
5.87913
21
-2.49734
0
LINE
8
BLACK
6
CONTINUOUS
10
5.87913
20
-2.49734
11
5.87835
21
-2.47939
0
LINE
8
BLACK
6
CONTINUOUS
10
5.87835
20
-2.47939
11
5.876
21
-2.46158
0
LINE
8
BLACK
6
CONTINUOUS
10
5.876
20
-2.46158
11
5.87212
21
-2.44404
0
LINE
8
BLACK
6
CONTINUOUS
10
5.87212
20
-2.44404
11
5.86672
21
-2.42691
0
LINE
8
BLACK
6
CONTINUOUS
10
5.86672
20
-2.42691
11
5.85984
21
-2.41032
0
LINE
8
BLACK
6
CONTINUOUS
10
5.85984
20
-2.41032
11
5.85155
21
-2.39438
0
LINE
8
BLACK
6
CONTINUOUS
10
5.85155
20
-2.39438
11
5.8419
21
-2.37923
0
LINE
8
BLACK
6
CONTINUOUS
10
5.8419
20
-2.37923
11
5.83096
21
-2.36498
0
LINE
8
BLACK
6
CONTINUOUS
10
5.83096
20
-2.36498
11
5.81882
21
-2.35174
0
LINE
8
BLACK
6
CONTINUOUS
10
5.81882
20
-2.35174
11
5.80558
21
-2.3396
0
LINE
8
BLACK
6
CONTINUOUS
10
5.80558
20
-2.3396
11
5.79133
21
-2.32867
0
LINE
8
BLACK
6
CONTINUOUS
10
5.79133
20
-2.32867
11
5.77618
21
-2.31902
0
LINE
8
BLACK
6
CONTINUOUS
10
5.77618
20
-2.31902
11
5.76025
21
-2.31072
0
LINE
8
BLACK
6
CONTINUOUS
10
5.76025
20
-2.31072
11
5.74365
21
-2.30385
0
LINE
8
BLACK
6
CONTINUOUS
10
5.74365
20
-2.30385
11
5.72652
21
-2.29845
0
LINE
8
BLACK
6
CONTINUOUS
10
5.72652
20
-2.29845
11
5.70898
21
-2.29456
0
LINE
8
BLACK
6
CONTINUOUS
10
5.70898
20
-2.29456
11
5.69117
21
-2.29221
0
LINE
8
BLACK
6
CONTINUOUS
10
5.69117
20
-2.29221
11
5.67323
21
-2.29143
0
LINE
8
BLACK
6
CONTINUOUS
10
5.67323
20
-2.29143
11
5.65528
21
-2.29221
0
LINE
8
BLACK
6
CONTINUOUS
10
5.65528
20
-2.29221
11
5.63747
21
-2.29456
0
LINE
8
BLACK
6
CONTINUOUS
10
5.63747
20
-2.29456
11
5.61994
21
-2.29845
0
LINE
8
BLACK
6
CONTINUOUS
10
5.61994
20
-2.29845
11
5.6028
21
-2.30385
0
LINE
8
BLACK
6
CONTINUOUS
10
5.6028
20
-2.30385
11
5.58621
21
-2.31072
0
LINE
8
BLACK
6
CONTINUOUS
10
5.58621
20
-2.31072
11
5.57028
21
-2.31902
0
LINE
8
BLACK
6
CONTINUOUS
10
5.57028
20
-2.31902
11
5.55513
21
-2.32867
0
LINE
8
BLACK
6
CONTINUOUS
10
5.55513
20
-2.32867
11
5.54088
21
-2.3396
0
LINE
8
BLACK
6
CONTINUOUS
10
5.54088
20
-2.3396
11
5.52763
21
-2.35174
0
LINE
8
BLACK
6
CONTINUOUS
10
5.52763
20
-2.35174
11
5.5155
21
-2.36498
0
LINE
8
BLACK
6
CONTINUOUS
10
5.5155
20
-2.36498
11
5.50456
21
-2.37923
0
LINE
8
BLACK
6
CONTINUOUS
10
5.50456
20
-2.37923
11
5.49491
21
-2.39438
0
LINE
8
BLACK
6
CONTINUOUS
10
5.49491
20
-2.39438
11
5.48662
21
-2.41032
0
LINE
8
BLACK
6
CONTINUOUS
10
5.48662
20
-2.41032
11
5.47974
21
-2.42691
0
LINE
8
BLACK
6
CONTINUOUS
10
5.47974
20
-2.42691
11
5.47434
21
-2.44404
0
LINE
8
BLACK
6
CONTINUOUS
10
5.47434
20
-2.44404
11
5.47045
21
-2.46158
0
LINE
8
BLACK
6
CONTINUOUS
10
5.47045
20
-2.46158
11
5.46811
21
-2.47939
0
LINE
8
BLACK
6
CONTINUOUS
10
5.46811
20
-2.47939
11
5.46732
21
-2.49734
0
LINE
8
BLACK
6
CONTINUOUS
10
4.26181
20
-2.9813
11
4.26251
21
-2.98159
0
LINE
8
BLACK
6
CONTINUOUS
10
4.26251
20
-2.98159
11
4.2628
21
-2.98228
0
LINE
8
BLACK
6
CONTINUOUS
10
4.2628
20
-2.98228
11
4.2628
21
-3.23819
0
LINE
8
BLACK
6
CONTINUOUS
10
4.2628
20
-3.23819
11
4.26251
21
-3.23888
0
LINE
8
BLACK
6
CONTINUOUS
10
4.26251
20
-3.23888
11
4.26181
21
-3.23917
0
LINE
8
BLACK
6
CONTINUOUS
10
4.26181
20
-3.23917
11
4.00591
21
-3.23917
0
LINE
8
BLACK
6
CONTINUOUS
10
4.00591
20
-3.23917
11
4.00521
21
-3.23888
0
LINE
8
BLACK
6
CONTINUOUS
10
4.00521
20
-3.23888
11
4.00492
21
-3.23819
0
LINE
8
BLACK
6
CONTINUOUS
10
4.00492
20
-3.23819
11
4.00492
21
-3.15445
0
LINE
8
BLACK
6
CONTINUOUS
10
4.00492
20
-3.15445
11
4.00472
21
-3.15453
0
LINE
8
BLACK
6
CONTINUOUS
10
4.00472
20
-3.15453
11
3.82362
21
-3.15453
0
LINE
8
BLACK
6
CONTINUOUS
10
3.82362
20
-3.15453
11
3.82293
21
-3.15424
0
LINE
8
BLACK
6
CONTINUOUS
10
3.82293
20
-3.15424
11
3.82264
21
-3.15354
0
LINE
8
BLACK
6
CONTINUOUS
10
3.82264
20
-3.15354
11
3.82264
21
-3.07087
0
LINE
8
BLACK
6
CONTINUOUS
10
3.82264
20
-3.07087
11
3.82293
21
-3.07017
0
LINE
8
BLACK
6
CONTINUOUS
10
3.82293
20
-3.07017
11
3.82362
21
-3.06988
0
LINE
8
BLACK
6
CONTINUOUS
10
3.82362
20
-3.06988
11
4.00472
21
-3.06988
0
LINE
8
BLACK
6
CONTINUOUS
10
4.00472
20
-3.06988
11
4.00492
21
-3.06996
0
LINE
8
BLACK
6
CONTINUOUS
10
4.00492
20
-3.06996
11
4.00492
21
-2.98228
0
LINE
8
BLACK
6
CONTINUOUS
10
4.00492
20
-2.98228
11
4.00521
21
-2.98159
0
LINE
8
BLACK
6
CONTINUOUS
10
4.00521
20
-2.98159
11
4.00591
21
-2.9813
0
LINE
8
BLACK
6
CONTINUOUS
10
4.00591
20
-2.9813
11
4.26181
21
-2.9813
0
LINE
8
BLACK
6
CONTINUOUS
10
4.00689
20
-2.98327
11
4.00689
21
-3.2372
0
LINE
8
BLACK
6
CONTINUOUS
10
4.00689
20
-3.2372
11
4.26083
21
-3.2372
0
LINE
8
BLACK
6
CONTINUOUS
10
4.26083
20
-3.2372
11
4.26083
21
-2.98327
0
LINE
8
BLACK
6
CONTINUOUS
10
4.26083
20
-2.98327
11
4.00689
21
-2.98327
0
LINE
8
BLACK
6
CONTINUOUS
10
3.82461
20
-3.07185
11
3.82461
21
-3.15256
0
LINE
8
BLACK
6
CONTINUOUS
10
3.82461
20
-3.15256
11
4.00374
21
-3.15256
0
LINE
8
BLACK
6
CONTINUOUS
10
4.00374
20
-3.15256
11
4.00374
21
-3.07185
0
LINE
8
BLACK
6
CONTINUOUS
10
4.00374
20
-3.07185
11
3.82461
21
-3.07185
0
LINE
8
BLACK
6
CONTINUOUS
10
4.44882
20
-2.39075
11
4.44951
21
-2.39104
0
LINE
8
BLACK
6
CONTINUOUS
10
4.44951
20
-2.39104
11
4.4498
21
-2.39173
0
LINE
8
BLACK
6
CONTINUOUS
10
4.4498
20
-2.39173
11
4.4498
21
-2.88386
0
LINE
8
BLACK
6
CONTINUOUS
10
4.4498
20
-2.88386
11
4.44951
21
-2.88455
0
LINE
8
BLACK
6
CONTINUOUS
10
4.44951
20
-2.88455
11
4.44882
21
-2.88484
0
LINE
8
BLACK
6
CONTINUOUS
10
4.44882
20
-2.88484
11
3.8189
21
-2.88484
0
LINE
8
BLACK
6
CONTINUOUS
10
3.8189
20
-2.88484
11
3.8182
21
-2.88455
0
LINE
8
BLACK
6
CONTINUOUS
10
3.8182
20
-2.88455
11
3.81791
21
-2.88386
0
LINE
8
BLACK
6
CONTINUOUS
10
3.81791
20
-2.88386
11
3.81791
21
-2.39173
0
LINE
8
BLACK
6
CONTINUOUS
10
3.81791
20
-2.39173
11
3.8182
21
-2.39104
0
LINE
8
BLACK
6
CONTINUOUS
10
3.8182
20
-2.39104
11
3.8189
21
-2.39075
0
LINE
8
BLACK
6
CONTINUOUS
10
3.8189
20
-2.39075
11
4.44882
21
-2.39075
0
LINE
8
BLACK
6
CONTINUOUS
10
3.81988
20
-2.39272
11
3.81988
21
-2.88287
0
LINE
8
BLACK
6
CONTINUOUS
10
3.81988
20
-2.88287
11
4.44783
21
-2.88287
0
LINE
8
BLACK
6
CONTINUOUS
10
4.44783
20
-2.88287
11
4.44783
21
-2.39272
0
LINE
8
BLACK
6
CONTINUOUS
10
4.44783
20
-2.39272
11
3.81988
21
-2.39272
0
LINE
8
BLACK
6
CONTINUOUS
10
3.6378
20
-2.66988
11
3.63849
21
-2.67017
0
LINE
8
BLACK
6
CONTINUOUS
10
3.63849
20
-2.67017
11
3.63878
21
-2.67087
0
LINE
8
BLACK
6
CONTINUOUS
10
3.63878
20
-2.67087
11
3.63878
21
-2.78898
0
LINE
8
BLACK
6
CONTINUOUS
10
3.63878
20
-2.78898
11
3.63849
21
-2.78967
0
LINE
8
BLACK
6
CONTINUOUS
10
3.63849
20
-2.78967
11
3.6378
21
-2.78996
0
LINE
8
BLACK
6
CONTINUOUS
10
3.6378
20
-2.78996
11
3.15512
21
-2.78996
0
LINE
8
BLACK
6
CONTINUOUS
10
3.15512
20
-2.78996
11
3.15442
21
-2.78967
0
LINE
8
BLACK
6
CONTINUOUS
10
3.15442
20
-2.78967
11
3.15413
21
-2.78898
0
LINE
8
BLACK
6
CONTINUOUS
10
3.15413
20
-2.78898
11
3.15413
21
-2.67087
0
LINE
8
BLACK
6
CONTINUOUS
10
3.15413
20
-2.67087
11
3.15442
21
-2.67017
0
LINE
8
BLACK
6
CONTINUOUS
10
3.15442
20
-2.67017
11
3.15512
21
-2.66988
0
LINE
8
BLACK
6
CONTINUOUS
10
3.15512
20
-2.66988
11
3.6378
21
-2.66988
0
LINE
8
BLACK
6
CONTINUOUS
10
3.1561
20
-2.67185
11
3.1561
21
-2.78799
0
LINE
8
BLACK
6
CONTINUOUS
10
3.1561
20
-2.78799
11
3.63681
21
-2.78799
0
LINE
8
BLACK
6
CONTINUOUS
10
3.63681
20
-2.78799
11
3.63681
21
-2.67185
0
LINE
8
BLACK
6
CONTINUOUS
10
3.63681
20
-2.67185
11
3.1561
21
-2.67185
0
LINE
8
BLACK
6
CONTINUOUS
10
3.12323
20
-2.65571
11
3.12392
21
-2.656
0
LINE
8
BLACK
6
CONTINUOUS
10
3.12392
20
-2.656
11
3.12421
21
-2.65669
0
LINE
8
BLACK
6
CONTINUOUS
10
3.12421
20
-2.65669
11
3.12421
21
-2.7748
0
LINE
8
BLACK
6
CONTINUOUS
10
3.12421
20
-2.7748
11
3.12392
21
-2.7755
0
LINE
8
BLACK
6
CONTINUOUS
10
3.12392
20
-2.7755
11
3.12323
21
-2.77579
0
LINE
8
BLACK
6
CONTINUOUS
10
3.12323
20
-2.77579
11
2.64055
21
-2.77579
0
LINE
8
BLACK
6
CONTINUOUS
10
2.64055
20
-2.77579
11
2.63986
21
-2.7755
0
LINE
8
BLACK
6
CONTINUOUS
10
2.63986
20
-2.7755
11
2.63957
21
-2.7748
0
LINE
8
BLACK
6
CONTINUOUS
10
2.63957
20
-2.7748
11
2.63957
21
-2.65669
0
LINE
8
BLACK
6
CONTINUOUS
10
2.63957
20
-2.65669
11
2.63986
21
-2.656
0
LINE
8
BLACK
6
CONTINUOUS
10
2.63986
20
-2.656
11
2.64055
21
-2.65571
0
LINE
8
BLACK
6
CONTINUOUS
10
2.64055
20
-2.65571
11
3.12323
21
-2.65571
0
LINE
8
BLACK
6
CONTINUOUS
10
2.64154
20
-2.65768
11
2.64154
21
-2.77382
0
LINE
8
BLACK
6
CONTINUOUS
10
2.64154
20
-2.77382
11
3.12224
21
-2.77382
0
LINE
8
BLACK
6
CONTINUOUS
10
3.12224
20
-2.77382
11
3.12224
21
-2.65768
0
LINE
8
BLACK
6
CONTINUOUS
10
3.12224
20
-2.65768
11
2.64154
21
-2.65768
0
LINE
8
BLACK
6
CONTINUOUS
10
5.03248
20
-2.49606
11
5.03327
21
-2.47796
0
LINE
8
BLACK
6
CONTINUOUS
10
5.03327
20
-2.47796
11
5.03564
21
-2.46
0
LINE
8
BLACK
6
CONTINUOUS
10
5.03564
20
-2.46
11
5.03956
21
-2.44231
0
LINE
8
BLACK
6
CONTINUOUS
10
5.03956
20
-2.44231
11
5.045
21
-2.42503
0
LINE
8
BLACK
6
CONTINUOUS
10
5.045
20
-2.42503
11
5.05194
21
-2.40829
0
LINE
8
BLACK
6
CONTINUOUS
10
5.05194
20
-2.40829
11
5.0603
21
-2.39222
0
LINE
8
BLACK
6
CONTINUOUS
10
5.0603
20
-2.39222
11
5.07004
21
-2.37694
0
LINE
8
BLACK
6
CONTINUOUS
10
5.07004
20
-2.37694
11
5.08107
21
-2.36257
0
LINE
8
BLACK
6
CONTINUOUS
10
5.08107
20
-2.36257
11
5.09331
21
-2.34921
0
LINE
8
BLACK
6
CONTINUOUS
10
5.09331
20
-2.34921
11
5.10667
21
-2.33697
0
LINE
8
BLACK
6
CONTINUOUS
10
5.10667
20
-2.33697
11
5.12104
21
-2.32594
0
LINE
8
BLACK
6
CONTINUOUS
10
5.12104
20
-2.32594
11
5.13632
21
-2.31621
0
LINE
8
BLACK
6
CONTINUOUS
10
5.13632
20
-2.31621
11
5.15239
21
-2.30784
0
LINE
8
BLACK
6
CONTINUOUS
10
5.15239
20
-2.30784
11
5.16913
21
-2.30091
0
LINE
8
BLACK
6
CONTINUOUS
10
5.16913
20
-2.30091
11
5.18641
21
-2.29546
0
LINE
8
BLACK
6
CONTINUOUS
10
5.18641
20
-2.29546
11
5.20409
21
-2.29154
0
LINE
8
BLACK
6
CONTINUOUS
10
5.20409
20
-2.29154
11
5.22206
21
-2.28918
0
LINE
8
BLACK
6
CONTINUOUS
10
5.22206
20
-2.28918
11
5.24016
21
-2.28839
0
LINE
8
BLACK
6
CONTINUOUS
10
5.24016
20
-2.28839
11
5.25826
21
-2.28918
0
LINE
8
BLACK
6
CONTINUOUS
10
5.25826
20
-2.28918
11
5.27622
21
-2.29154
0
LINE
8
BLACK
6
CONTINUOUS
10
5.27622
20
-2.29154
11
5.29391
21
-2.29546
0
LINE
8
BLACK
6
CONTINUOUS
10
5.29391
20
-2.29546
11
5.31119
21
-2.30091
0
LINE
8
BLACK
6
CONTINUOUS
10
5.31119
20
-2.30091
11
5.32793
21
-2.30784
0
LINE
8
BLACK
6
CONTINUOUS
10
5.32793
20
-2.30784
11
5.344
21
-2.31621
0
LINE
8
BLACK
6
CONTINUOUS
10
5.344
20
-2.31621
11
5.35928
21
-2.32594
0
LINE
8
BLACK
6
CONTINUOUS
10
5.35928
20
-2.32594
11
5.37365
21
-2.33697
0
LINE
8
BLACK
6
CONTINUOUS
10
5.37365
20
-2.33697
11
5.38701
21
-2.34921
0
LINE
8
BLACK
6
CONTINUOUS
10
5.38701
20
-2.34921
11
5.39925
21
-2.36257
0
LINE
8
BLACK
6
CONTINUOUS
10
5.39925
20
-2.36257
11
5.41028
21
-2.37694
0
LINE
8
BLACK
6
CONTINUOUS
10
5.41028
20
-2.37694
11
5.42001
21
-2.39222
0
LINE
8
BLACK
6
CONTINUOUS
10
5.42001
20
-2.39222
11
5.42838
21
-2.40829
0
LINE
8
BLACK
6
CONTINUOUS
10
5.42838
20
-2.40829
11
5.43531
21
-2.42503
0
LINE
8
BLACK
6
CONTINUOUS
10
5.43531
20
-2.42503
11
5.44076
21
-2.44231
0
LINE
8
BLACK
6
CONTINUOUS
10
5.44076
20
-2.44231
11
5.44468
21
-2.46
0
LINE
8
BLACK
6
CONTINUOUS
10
5.44468
20
-2.46
11
5.44704
21
-2.47796
0
LINE
8
BLACK
6
CONTINUOUS
10
5.44704
20
-2.47796
11
5.44783
21
-2.49606
0
LINE
8
BLACK
6
CONTINUOUS
10
5.44783
20
-2.49606
11
5.44704
21
-2.51416
0
LINE
8
BLACK
6
CONTINUOUS
10
5.44704
20
-2.51416
11
5.44468
21
-2.53213
0
LINE
8
BLACK
6
CONTINUOUS
10
5.44468
20
-2.53213
11
5.44076
21
-2.54981
0
LINE
8
BLACK
6
CONTINUOUS
10
5.44076
20
-2.54981
11
5.43531
21
-2.56709
0
LINE
8
BLACK
6
CONTINUOUS
10
5.43531
20
-2.56709
11
5.42838
21
-2.58383
0
LINE
8
BLACK
6
CONTINUOUS
10
5.42838
20
-2.58383
11
5.42001
21
-2.5999
0
LINE
8
BLACK
6
CONTINUOUS
10
5.42001
20
-2.5999
11
5.41028
21
-2.61518
0
LINE
8
BLACK
6
CONTINUOUS
10
5.41028
20
-2.61518
11
5.39925
21
-2.62956
0
LINE
8
BLACK
6
CONTINUOUS
10
5.39925
20
-2.62956
11
5.38701
21
-2.64291
0
LINE
8
BLACK
6
CONTINUOUS
10
5.38701
20
-2.64291
11
5.37365
21
-2.65515
0
LINE
8
BLACK
6
CONTINUOUS
10
5.37365
20
-2.65515
11
5.35928
21
-2.66618
0
LINE
8
BLACK
6
CONTINUOUS
10
5.35928
20
-2.66618
11
5.344
21
-2.67592
0
LINE
8
BLACK
6
CONTINUOUS
10
5.344
20
-2.67592
11
5.32793
21
-2.68428
0
LINE
8
BLACK
6
CONTINUOUS
10
5.32793
20
-2.68428
11
5.31119
21
-2.69122
0
LINE
8
BLACK
6
CONTINUOUS
10
5.31119
20
-2.69122
11
5.29391
21
-2.69666
0
LINE
8
BLACK
6
CONTINUOUS
10
5.29391
20
-2.69666
11
5.27622
21
-2.70059
0
LINE
8
BLACK
6
CONTINUOUS
10
5.27622
20
-2.70059
11
5.25826
21
-2.70295
0
LINE
8
BLACK
6
CONTINUOUS
10
5.25826
20
-2.70295
11
5.24016
21
-2.70374
0
LINE
8
BLACK
6
CONTINUOUS
10
5.24016
20
-2.70374
11
5.22206
21
-2.70295
0
LINE
8
BLACK
6
CONTINUOUS
10
5.22206
20
-2.70295
11
5.20409
21
-2.70059
0
LINE
8
BLACK
6
CONTINUOUS
10
5.20409
20
-2.70059
11
5.18641
21
-2.69666
0
LINE
8
BLACK
6
CONTINUOUS
10
5.18641
20
-2.69666
11
5.16913
21
-2.69122
0
LINE
8
BLACK
6
CONTINUOUS
10
5.16913
20
-2.69122
11
5.15239
21
-2.68428
0
LINE
8
BLACK
6
CONTINUOUS
10
5.15239
20
-2.68428
11
5.13632
21
-2.67592
0
LINE
8
BLACK
6
CONTINUOUS
10
5.13632
20
-2.67592
11
5.12104
21
-2.66618
0
LINE
8
BLACK
6
CONTINUOUS
10
5.12104
20
-2.66618
11
5.10667
21
-2.65515
0
LINE
8
BLACK
6
CONTINUOUS
10
5.10667
20
-2.65515
11
5.09331
21
-2.64291
0
LINE
8
BLACK
6
CONTINUOUS
10
5.09331
20
-2.64291
11
5.08107
21
-2.62956
0
LINE
8
BLACK
6
CONTINUOUS
10
5.08107
20
-2.62956
11
5.07004
21
-2.61518
0
LINE
8
BLACK
6
CONTINUOUS
10
5.07004
20
-2.61518
11
5.0603
21
-2.5999
0
LINE
8
BLACK
6
CONTINUOUS
10
5.0603
20
-2.5999
11
5.05194
21
-2.58383
0
LINE
8
BLACK
6
CONTINUOUS
10
5.05194
20
-2.58383
11
5.045
21
-2.56709
0
LINE
8
BLACK
6
CONTINUOUS
10
5.045
20
-2.56709
11
5.03956
21
-2.54981
0
LINE
8
BLACK
6
CONTINUOUS
10
5.03956
20
-2.54981
11
5.03564
21
-2.53213
0
LINE
8
BLACK
6
CONTINUOUS
10
5.03564
20
-2.53213
11
5.03327
21
-2.51416
0
LINE
8
BLACK
6
CONTINUOUS
10
5.03327
20
-2.51416
11
5.03248
21
-2.49606
0
LINE
8
BLACK
6
CONTINUOUS
10
5.03425
20
-2.49606
11
5.03504
21
-2.51401
0
LINE
8
BLACK
6
CONTINUOUS
10
5.03504
20
-2.51401
11
5.03738
21
-2.53182
0
LINE
8
BLACK
6
CONTINUOUS
10
5.03738
20
-2.53182
11
5.04127
21
-2.54936
0
LINE
8
BLACK
6
CONTINUOUS
10
5.04127
20
-2.54936
11
5.04667
21
-2.56649
0
LINE
8
BLACK
6
CONTINUOUS
10
5.04667
20
-2.56649
11
5.05354
21
-2.58308
0
LINE
8
BLACK
6
CONTINUOUS
10
5.05354
20
-2.58308
11
5.06184
21
-2.59902
0
LINE
8
BLACK
6
CONTINUOUS
10
5.06184
20
-2.59902
11
5.07149
21
-2.61417
0
LINE
8
BLACK
6
CONTINUOUS
10
5.07149
20
-2.61417
11
5.08243
21
-2.62842
0
LINE
8
BLACK
6
CONTINUOUS
10
5.08243
20
-2.62842
11
5.09456
21
-2.64166
0
LINE
8
BLACK
6
CONTINUOUS
10
5.09456
20
-2.64166
11
5.1078
21
-2.6538
0
LINE
8
BLACK
6
CONTINUOUS
10
5.1078
20
-2.6538
11
5.12206
21
-2.66473
0
LINE
8
BLACK
6
CONTINUOUS
10
5.12206
20
-2.66473
11
5.13721
21
-2.67438
0
LINE
8
BLACK
6
CONTINUOUS
10
5.13721
20
-2.67438
11
5.15314
21
-2.68268
0
LINE
8
BLACK
6
CONTINUOUS
10
5.15314
20
-2.68268
11
5.16973
21
-2.68955
0
LINE
8
BLACK
6
CONTINUOUS
10
5.16973
20
-2.68955
11
5.18687
21
-2.69495
0
LINE
8
BLACK
6
CONTINUOUS
10
5.18687
20
-2.69495
11
5.2044
21
-2.69884
0
LINE
8
BLACK
6
CONTINUOUS
10
5.2044
20
-2.69884
11
5.22221
21
-2.70118
0
LINE
8
BLACK
6
CONTINUOUS
10
5.22221
20
-2.70118
11
5.24016
21
-2.70197
0
LINE
8
BLACK
6
CONTINUOUS
10
5.24016
20
-2.70197
11
5.2581
21
-2.70118
0
LINE
8
BLACK
6
CONTINUOUS
10
5.2581
20
-2.70118
11
5.27591
21
-2.69884
0
LINE
8
BLACK
6
CONTINUOUS
10
5.27591
20
-2.69884
11
5.29345
21
-2.69495
0
LINE
8
BLACK
6
CONTINUOUS
10
5.29345
20
-2.69495
11
5.31058
21
-2.68955
0
LINE
8
BLACK
6
CONTINUOUS
10
5.31058
20
-2.68955
11
5.32718
21
-2.68268
0
LINE
8
BLACK
6
CONTINUOUS
10
5.32718
20
-2.68268
11
5.34311
21
-2.67438
0
LINE
8
BLACK
6
CONTINUOUS
10
5.34311
20
-2.67438
11
5.35826
21
-2.66473
0
LINE
8
BLACK
6
CONTINUOUS
10
5.35826
20
-2.66473
11
5.37251
21
-2.6538
0
LINE
8
BLACK
6
CONTINUOUS
10
5.37251
20
-2.6538
11
5.38575
21
-2.64166
0
LINE
8
BLACK
6
CONTINUOUS
10
5.38575
20
-2.64166
11
5.39789
21
-2.62842
0
LINE
8
BLACK
6
CONTINUOUS
10
5.39789
20
-2.62842
11
5.40882
21
-2.61417
0
LINE
8
BLACK
6
CONTINUOUS
10
5.40882
20
-2.61417
11
5.41848
21
-2.59902
0
LINE
8
BLACK
6
CONTINUOUS
10
5.41848
20
-2.59902
11
5.42677
21
-2.58308
0
LINE
8
BLACK
6
CONTINUOUS
10
5.42677
20
-2.58308
11
5.43364
21
-2.56649
0
LINE
8
BLACK
6
CONTINUOUS
10
5.43364
20
-2.56649
11
5.43905
21
-2.54936
0
LINE
8
BLACK
6
CONTINUOUS
10
5.43905
20
-2.54936
11
5.44293
21
-2.53182
0
LINE
8
BLACK
6
CONTINUOUS
10
5.44293
20
-2.53182
11
5.44528
21
-2.51401
0
LINE
8
BLACK
6
CONTINUOUS
10
5.44528
20
-2.51401
11
5.44606
21
-2.49606
0
LINE
8
BLACK
6
CONTINUOUS
10
5.44606
20
-2.49606
11
5.44528
21
-2.47812
0
LINE
8
BLACK
6
CONTINUOUS
10
5.44528
20
-2.47812
11
5.44293
21
-2.46031
0
LINE
8
BLACK
6
CONTINUOUS
10
5.44293
20
-2.46031
11
5.43905
21
-2.44277
0
LINE
8
BLACK
6
CONTINUOUS
10
5.43905
20
-2.44277
11
5.43364
21
-2.42564
0
LINE
8
BLACK
6
CONTINUOUS
10
5.43364
20
-2.42564
11
5.42677
21
-2.40904
0
LINE
8
BLACK
6
CONTINUOUS
10
5.42677
20
-2.40904
11
5.41848
21
-2.39311
0
LINE
8
BLACK
6
CONTINUOUS
10
5.41848
20
-2.39311
11
5.40882
21
-2.37796
0
LINE
8
BLACK
6
CONTINUOUS
10
5.40882
20
-2.37796
11
5.39789
21
-2.36371
0
LINE
8
BLACK
6
CONTINUOUS
10
5.39789
20
-2.36371
11
5.38575
21
-2.35047
0
LINE
8
BLACK
6
CONTINUOUS
10
5.38575
20
-2.35047
11
5.37251
21
-2.33833
0
LINE
8
BLACK
6
CONTINUOUS
10
5.37251
20
-2.33833
11
5.35826
21
-2.3274
0
LINE
8
BLACK
6
CONTINUOUS
10
5.35826
20
-2.3274
11
5.34311
21
-2.31774
0
LINE
8
BLACK
6
CONTINUOUS
10
5.34311
20
-2.31774
11
5.32718
21
-2.30945
0
LINE
8
BLACK
6
CONTINUOUS
10
5.32718
20
-2.30945
11
5.31058
21
-2.30258
0
LINE
8
BLACK
6
CONTINUOUS
10
5.31058
20
-2.30258
11
5.29345
21
-2.29717
0
LINE
8
BLACK
6
CONTINUOUS
10
5.29345
20
-2.29717
11
5.27591
21
-2.29329
0
LINE
8
BLACK
6
CONTINUOUS
10
5.27591
20
-2.29329
11
5.2581
21
-2.29094
0
LINE
8
BLACK
6
CONTINUOUS
10
5.2581
20
-2.29094
11
5.24016
21
-2.29016
0
LINE
8
BLACK
6
CONTINUOUS
10
5.24016
20
-2.29016
11
5.22221
21
-2.29094
0
LINE
8
BLACK
6
CONTINUOUS
10
5.22221
20
-2.29094
11
5.2044
21
-2.29329
0
LINE
8
BLACK
6
CONTINUOUS
10
5.2044
20
-2.29329
11
5.18687
21
-2.29717
0
LINE
8
BLACK
6
CONTINUOUS
10
5.18687
20
-2.29717
11
5.16973
21
-2.30258
0
LINE
8
BLACK
6
CONTINUOUS
10
5.16973
20
-2.30258
11
5.15314
21
-2.30945
0
LINE
8
BLACK
6
CONTINUOUS
10
5.15314
20
-2.30945
11
5.13721
21
-2.31774
0
LINE
8
BLACK
6
CONTINUOUS
10
5.13721
20
-2.31774
11
5.12206
21
-2.3274
0
LINE
8
BLACK
6
CONTINUOUS
10
5.12206
20
-2.3274
11
5.1078
21
-2.33833
0
LINE
8
BLACK
6
CONTINUOUS
10
5.1078
20
-2.33833
11
5.09456
21
-2.35047
0
LINE
8
BLACK
6
CONTINUOUS
10
5.09456
20
-2.35047
11
5.08243
21
-2.36371
0
LINE
8
BLACK
6
CONTINUOUS
10
5.08243
20
-2.36371
11
5.07149
21
-2.37796
0
LINE
8
BLACK
6
CONTINUOUS
10
5.07149
20
-2.37796
11
5.06184
21
-2.39311
0
LINE
8
BLACK
6
CONTINUOUS
10
5.06184
20
-2.39311
11
5.05354
21
-2.40904
0
LINE
8
BLACK
6
CONTINUOUS
10
5.05354
20
-2.40904
11
5.04667
21
-2.42564
0
LINE
8
BLACK
6
CONTINUOUS
10
5.04667
20
-2.42564
11
5.04127
21
-2.44277
0
LINE
8
BLACK
6
CONTINUOUS
10
5.04127
20
-2.44277
11
5.03738
21
-2.46031
0
LINE
8
BLACK
6
CONTINUOUS
10
5.03738
20
-2.46031
11
5.03504
21
-2.47812
0
LINE
8
BLACK
6
CONTINUOUS
10
5.03504
20
-2.47812
11
5.03425
21
-2.49606
0
LINE
8
BLACK
6
CONTINUOUS
10
3.6378
20
-2.53366
11
3.63849
21
-2.53395
0
LINE
8
BLACK
6
CONTINUOUS
10
3.63849
20
-2.53395
11
3.63878
21
-2.53465
0
LINE
8
BLACK
6
CONTINUOUS
10
3.63878
20
-2.53465
11
3.63878
21
-2.66063
0
LINE
8
BLACK
6
CONTINUOUS
10
3.63878
20
-2.66063
11
3.63849
21
-2.66133
0
LINE
8
BLACK
6
CONTINUOUS
10
3.63849
20
-2.66133
11
3.6378
21
-2.66161
0
LINE
8
BLACK
6
CONTINUOUS
10
3.6378
20
-2.66161
11
3.15512
21
-2.66161
0
LINE
8
BLACK
6
CONTINUOUS
10
3.15512
20
-2.66161
11
3.15442
21
-2.66133
0
LINE
8
BLACK
6
CONTINUOUS
10
3.15442
20
-2.66133
11
3.15413
21
-2.66063
0
LINE
8
BLACK
6
CONTINUOUS
10
3.15413
20
-2.66063
11
3.15413
21
-2.53465
0
LINE
8
BLACK
6
CONTINUOUS
10
3.15413
20
-2.53465
11
3.15442
21
-2.53395
0
LINE
8
BLACK
6
CONTINUOUS
10
3.15442
20
-2.53395
11
3.15512
21
-2.53366
0
LINE
8
BLACK
6
CONTINUOUS
10
3.15512
20
-2.53366
11
3.6378
21
-2.53366
0
LINE
8
BLACK
6
CONTINUOUS
10
3.1561
20
-2.53563
11
3.1561
21
-2.65965
0
LINE
8
BLACK
6
CONTINUOUS
10
3.1561
20
-2.65965
11
3.63681
21
-2.65965
0
LINE
8
BLACK
6
CONTINUOUS
10
3.63681
20
-2.65965
11
3.63681
21
-2.53563
0
LINE
8
BLACK
6
CONTINUOUS
10
3.63681
20
-2.53563
11
3.1561
21
-2.53563
0
LINE
8
BLACK
6
CONTINUOUS
10
2.31909
20
-2.42224
11
2.31979
21
-2.42253
0
LINE
8
BLACK
6
CONTINUOUS
10
2.31979
20
-2.42253
11
2.32008
21
-2.42323
0
LINE
8
BLACK
6
CONTINUOUS
10
2.32008
20
-2.42323
11
2.32008
21
-2.54134
0
LINE
8
BLACK
6
CONTINUOUS
10
2.32008
20
-2.54134
11
2.32008
21
-2.65945
0
LINE
8
BLACK
6
CONTINUOUS
10
2.32008
20
-2.65945
11
2.31979
21
-2.66014
0
LINE
8
BLACK
6
CONTINUOUS
10
2.31979
20
-2.66014
11
2.31909
21
-2.66043
0
LINE
8
BLACK
6
CONTINUOUS
10
2.31909
20
-2.66043
11
1.83642
21
-2.66043
0
LINE
8
BLACK
6
CONTINUOUS
10
1.83642
20
-2.66043
11
1.83572
21
-2.66014
0
LINE
8
BLACK
6
CONTINUOUS
10
1.83572
20
-2.66014
11
1.83543
21
-2.65945
0
LINE
8
BLACK
6
CONTINUOUS
10
1.83543
20
-2.65945
11
1.83543
21
-2.54134
0
LINE
8
BLACK
6
CONTINUOUS
10
1.83543
20
-2.54134
11
1.83543
21
-2.42323
0
LINE
8
BLACK
6
CONTINUOUS
10
1.83543
20
-2.42323
11
1.83572
21
-2.42253
0
LINE
8
BLACK
6
CONTINUOUS
10
1.83572
20
-2.42253
11
1.83642
21
-2.42224
0
LINE
8
BLACK
6
CONTINUOUS
10
1.83642
20
-2.42224
11
2.31909
21
-2.42224
0
LINE
8
BLACK
6
CONTINUOUS
10
1.8374
20
-2.54232
11
1.8374
21
-2.65846
0
LINE
8
BLACK
6
CONTINUOUS
10
1.8374
20
-2.65846
11
2.31811
21
-2.65846
0
LINE
8
BLACK
6
CONTINUOUS
10
2.31811
20
-2.65846
11
2.31811
21
-2.54232
0
LINE
8
BLACK
6
CONTINUOUS
10
2.31811
20
-2.54232
11
1.8374
21
-2.54232
0
LINE
8
BLACK
6
CONTINUOUS
10
1.8374
20
-2.42421
11
1.8374
21
-2.54035
0
LINE
8
BLACK
6
CONTINUOUS
10
1.8374
20
-2.54035
11
2.31811
21
-2.54035
0
LINE
8
BLACK
6
CONTINUOUS
10
2.31811
20
-2.54035
11
2.31811
21
-2.42421
0
LINE
8
BLACK
6
CONTINUOUS
10
2.31811
20
-2.42421
11
1.8374
21
-2.42421
0
LINE
8
BLACK
6
CONTINUOUS
10
2.79232
20
-2.32972
11
2.79302
21
-2.33001
0
LINE
8
BLACK
6
CONTINUOUS
10
2.79302
20
-2.33001
11
2.79331
21
-2.33071
0
LINE
8
BLACK
6
CONTINUOUS
10
2.79331
20
-2.33071
11
2.79331
21
-2.65157
0
LINE
8
BLACK
6
CONTINUOUS
10
2.79331
20
-2.65157
11
2.79302
21
-2.65227
0
LINE
8
BLACK
6
CONTINUOUS
10
2.79302
20
-2.65227
11
2.79232
21
-2.65256
0
LINE
8
BLACK
6
CONTINUOUS
10
2.79232
20
-2.65256
11
2.37697
21
-2.65256
0
LINE
8
BLACK
6
CONTINUOUS
10
2.37697
20
-2.65256
11
2.37627
21
-2.65227
0
LINE
8
BLACK
6
CONTINUOUS
10
2.37627
20
-2.65227
11
2.37598
21
-2.65157
0
LINE
8
BLACK
6
CONTINUOUS
10
2.37598
20
-2.65157
11
2.37598
21
-2.33071
0
LINE
8
BLACK
6
CONTINUOUS
10
2.37598
20
-2.33071
11
2.37627
21
-2.33001
0
LINE
8
BLACK
6
CONTINUOUS
10
2.37627
20
-2.33001
11
2.37697
21
-2.32972
0
LINE
8
BLACK
6
CONTINUOUS
10
2.37697
20
-2.32972
11
2.79232
21
-2.32972
0
LINE
8
BLACK
6
CONTINUOUS
10
2.37795
20
-2.33169
11
2.37795
21
-2.65059
0
LINE
8
BLACK
6
CONTINUOUS
10
2.37795
20
-2.65059
11
2.79134
21
-2.65059
0
LINE
8
BLACK
6
CONTINUOUS
10
2.79134
20
-2.65059
11
2.79134
21
-2.33169
0
LINE
8
BLACK
6
CONTINUOUS
10
2.79134
20
-2.33169
11
2.37795
21
-2.33169
0
LINE
8
BLACK
6
CONTINUOUS
10
2.95177
20
-2.63091
11
2.95148
21
-2.6316
0
LINE
8
BLACK
6
CONTINUOUS
10
2.95148
20
-2.6316
11
2.95079
21
-2.63189
0
LINE
8
BLACK
6
CONTINUOUS
10
2.95079
20
-2.63189
11
2.85236
21
-2.63189
0
LINE
8
BLACK
6
CONTINUOUS
10
2.85236
20
-2.63189
11
2.85167
21
-2.6316
0
LINE
8
BLACK
6
CONTINUOUS
10
2.85167
20
-2.6316
11
2.85138
21
-2.63091
0
LINE
8
BLACK
6
CONTINUOUS
10
2.85138
20
-2.63091
11
2.85138
21
-2.24823
0
LINE
8
BLACK
6
CONTINUOUS
10
2.85138
20
-2.24823
11
2.85167
21
-2.24753
0
LINE
8
BLACK
6
CONTINUOUS
10
2.85167
20
-2.24753
11
2.85236
21
-2.24724
0
LINE
8
BLACK
6
CONTINUOUS
10
2.85236
20
-2.24724
11
2.95079
21
-2.24724
0
LINE
8
BLACK
6
CONTINUOUS
10
2.95079
20
-2.24724
11
2.95148
21
-2.24753
0
LINE
8
BLACK
6
CONTINUOUS
10
2.95148
20
-2.24753
11
2.95177
21
-2.24823
0
LINE
8
BLACK
6
CONTINUOUS
10
2.95177
20
-2.24823
11
2.95177
21
-2.13465
0
LINE
8
BLACK
6
CONTINUOUS
10
2.95177
20
-2.13465
11
2.95206
21
-2.13395
0
LINE
8
BLACK
6
CONTINUOUS
10
2.95206
20
-2.13395
11
2.95276
21
-2.13366
0
LINE
8
BLACK
6
CONTINUOUS
10
2.95276
20
-2.13366
11
3.07874
21
-2.13366
0
LINE
8
BLACK
6
CONTINUOUS
10
3.07874
20
-2.13366
11
3.07944
21
-2.13395
0
LINE
8
BLACK
6
CONTINUOUS
10
3.07944
20
-2.13395
11
3.07972
21
-2.13465
0
LINE
8
BLACK
6
CONTINUOUS
10
3.07972
20
-2.13465
11
3.07972
21
-2.61732
0
LINE
8
BLACK
6
CONTINUOUS
10
3.07972
20
-2.61732
11
3.07944
21
-2.61802
0
LINE
8
BLACK
6
CONTINUOUS
10
3.07944
20
-2.61802
11
3.07874
21
-2.61831
0
LINE
8
BLACK
6
CONTINUOUS
10
3.07874
20
-2.61831
11
2.95276
21
-2.61831
0
LINE
8
BLACK
6
CONTINUOUS
10
2.95276
20
-2.61831
11
2.95206
21
-2.61802
0
LINE
8
BLACK
6
CONTINUOUS
10
2.95206
20
-2.61802
11
2.95177
21
-2.61732
0
LINE
8
BLACK
6
CONTINUOUS
10
2.95177
20
-2.61732
11
2.95177
21
-2.63091
0
LINE
8
BLACK
6
CONTINUOUS
10
2.85335
20
-2.24921
11
2.85335
21
-2.62992
0
LINE
8
BLACK
6
CONTINUOUS
10
2.85335
20
-2.62992
11
2.9498
21
-2.62992
0
LINE
8
BLACK
6
CONTINUOUS
10
2.9498
20
-2.62992
11
2.9498
21
-2.24921
0
LINE
8
BLACK
6
CONTINUOUS
10
2.9498
20
-2.24921
11
2.85335
21
-2.24921
0
LINE
8
BLACK
6
CONTINUOUS
10
2.95374
20
-2.13563
11
2.95374
21
-2.61634
0
LINE
8
BLACK
6
CONTINUOUS
10
2.95374
20
-2.61634
11
3.07776
21
-2.61634
0
LINE
8
BLACK
6
CONTINUOUS
10
3.07776
20
-2.61634
11
3.07776
21
-2.13563
0
LINE
8
BLACK
6
CONTINUOUS
10
3.07776
20
-2.13563
11
2.95374
21
-2.13563
0
LINE
8
BLACK
6
CONTINUOUS
10
6.24606
20
-2.29035
11
6.24676
21
-2.29064
0
LINE
8
BLACK
6
CONTINUOUS
10
6.24676
20
-2.29064
11
6.24705
21
-2.29134
0
LINE
8
BLACK
6
CONTINUOUS
10
6.24705
20
-2.29134
11
6.24705
21
-2.6063
0
LINE
8
BLACK
6
CONTINUOUS
10
6.24705
20
-2.6063
11
6.24676
21
-2.607
0
LINE
8
BLACK
6
CONTINUOUS
10
6.24676
20
-2.607
11
6.24606
21
-2.60728
0
LINE
8
BLACK
6
CONTINUOUS
10
6.24606
20
-2.60728
11
6.05315
21
-2.60728
0
LINE
8
BLACK
6
CONTINUOUS
10
6.05315
20
-2.60728
11
6.05245
21
-2.607
0
LINE
8
BLACK
6
CONTINUOUS
10
6.05245
20
-2.607
11
6.05217
21
-2.6063
0
LINE
8
BLACK
6
CONTINUOUS
10
6.05217
20
-2.6063
11
6.05217
21
-2.29134
0
LINE
8
BLACK
6
CONTINUOUS
10
6.05217
20
-2.29134
11
6.05245
21
-2.29064
0
LINE
8
BLACK
6
CONTINUOUS
10
6.05245
20
-2.29064
11
6.05315
21
-2.29035
0
LINE
8
BLACK
6
CONTINUOUS
10
6.05315
20
-2.29035
11
6.24606
21
-2.29035
0
LINE
8
BLACK
6
CONTINUOUS
10
6.05413
20
-2.29232
11
6.05413
21
-2.60531
0
LINE
8
BLACK
6
CONTINUOUS
10
6.05413
20
-2.60531
11
6.24508
21
-2.60531
0
LINE
8
BLACK
6
CONTINUOUS
10
6.24508
20
-2.60531
11
6.24508
21
-2.29232
0
LINE
8
BLACK
6
CONTINUOUS
10
6.24508
20
-2.29232
11
6.05413
21
-2.29232
0
LINE
8
BLACK
6
CONTINUOUS
10
4.57776
20
-2.50258
11
4.57851
21
-2.49013
0
LINE
8
BLACK
6
CONTINUOUS
10
4.57851
20
-2.49013
11
4.58076
21
-2.47785
0
LINE
8
BLACK
6
CONTINUOUS
10
4.58076
20
-2.47785
11
4.58447
21
-2.46594
0
LINE
8
BLACK
6
CONTINUOUS
10
4.58447
20
-2.46594
11
4.58959
21
-2.45456
0
LINE
8
BLACK
6
CONTINUOUS
10
4.58959
20
-2.45456
11
4.59605
21
-2.44388
0
LINE
8
BLACK
6
CONTINUOUS
10
4.59605
20
-2.44388
11
4.60375
21
-2.43405
0
LINE
8
BLACK
6
CONTINUOUS
10
4.60375
20
-2.43405
11
4.61257
21
-2.42523
0
LINE
8
BLACK
6
CONTINUOUS
10
4.61257
20
-2.42523
11
4.62239
21
-2.41753
0
LINE
8
BLACK
6
CONTINUOUS
10
4.62239
20
-2.41753
11
4.63307
21
-2.41107
0
LINE
8
BLACK
6
CONTINUOUS
10
4.63307
20
-2.41107
11
4.64446
21
-2.40595
0
LINE
8
BLACK
6
CONTINUOUS
10
4.64446
20
-2.40595
11
4.65637
21
-2.40224
0
LINE
8
BLACK
6
CONTINUOUS
10
4.65637
20
-2.40224
11
4.66865
21
-2.39999
0
LINE
8
BLACK
6
CONTINUOUS
10
4.66865
20
-2.39999
11
4.6811
21
-2.39924
0
LINE
8
BLACK
6
CONTINUOUS
10
4.6811
20
-2.39924
11
4.69356
21
-2.39999
0
LINE
8
BLACK
6
CONTINUOUS
10
4.69356
20
-2.39999
11
4.70583
21
-2.40224
0
LINE
8
BLACK
6
CONTINUOUS
10
4.70583
20
-2.40224
11
4.71775
21
-2.40595
0
LINE
8
BLACK
6
CONTINUOUS
10
4.71775
20
-2.40595
11
4.72913
21
-2.41107
0
LINE
8
BLACK
6
CONTINUOUS
10
4.72913
20
-2.41107
11
4.73981
21
-2.41753
0
LINE
8
BLACK
6
CONTINUOUS
10
4.73981
20
-2.41753
11
4.74963
21
-2.42523
0
LINE
8
BLACK
6
CONTINUOUS
10
4.74963
20
-2.42523
11
4.75846
21
-2.43405
0
LINE
8
BLACK
6
CONTINUOUS
10
4.75846
20
-2.43405
11
4.76615
21
-2.44388
0
LINE
8
BLACK
6
CONTINUOUS
10
4.76615
20
-2.44388
11
4.77261
21
-2.45456
0
LINE
8
BLACK
6
CONTINUOUS
10
4.77261
20
-2.45456
11
4.77773
21
-2.46594
0
LINE
8
BLACK
6
CONTINUOUS
10
4.77773
20
-2.46594
11
4.78145
21
-2.47785
0
LINE
8
BLACK
6
CONTINUOUS
10
4.78145
20
-2.47785
11
4.7837
21
-2.49013
0
LINE
8
BLACK
6
CONTINUOUS
10
4.7837
20
-2.49013
11
4.78445
21
-2.50258
0
LINE
8
BLACK
6
CONTINUOUS
10
4.78445
20
-2.50258
11
4.7837
21
-2.51504
0
LINE
8
BLACK
6
CONTINUOUS
10
4.7837
20
-2.51504
11
4.78145
21
-2.52732
0
LINE
8
BLACK
6
CONTINUOUS
10
4.78145
20
-2.52732
11
4.77773
21
-2.53923
0
LINE
8
BLACK
6
CONTINUOUS
10
4.77773
20
-2.53923
11
4.77261
21
-2.55061
0
LINE
8
BLACK
6
CONTINUOUS
10
4.77261
20
-2.55061
11
4.76615
21
-2.56129
0
LINE
8
BLACK
6
CONTINUOUS
10
4.76615
20
-2.56129
11
4.75846
21
-2.57111
0
LINE
8
BLACK
6
CONTINUOUS
10
4.75846
20
-2.57111
11
4.74963
21
-2.57994
0
LINE
8
BLACK
6
CONTINUOUS
10
4.74963
20
-2.57994
11
4.73981
21
-2.58764
0
LINE
8
BLACK
6
CONTINUOUS
10
4.73981
20
-2.58764
11
4.72913
21
-2.59409
0
LINE
8
BLACK
6
CONTINUOUS
10
4.72913
20
-2.59409
11
4.71775
21
-2.59921
0
LINE
8
BLACK
6
CONTINUOUS
10
4.71775
20
-2.59921
11
4.70583
21
-2.60293
0
LINE
8
BLACK
6
CONTINUOUS
10
4.70583
20
-2.60293
11
4.69356
21
-2.60518
0
LINE
8
BLACK
6
CONTINUOUS
10
4.69356
20
-2.60518
11
4.6811
21
-2.60593
0
LINE
8
BLACK
6
CONTINUOUS
10
4.6811
20
-2.60593
11
4.66865
21
-2.60518
0
LINE
8
BLACK
6
CONTINUOUS
10
4.66865
20
-2.60518
11
4.65637
21
-2.60293
0
LINE
8
BLACK
6
CONTINUOUS
10
4.65637
20
-2.60293
11
4.64446
21
-2.59921
0
LINE
8
BLACK
6
CONTINUOUS
10
4.64446
20
-2.59921
11
4.63307
21
-2.59409
0
LINE
8
BLACK
6
CONTINUOUS
10
4.63307
20
-2.59409
11
4.62239
21
-2.58764
0
LINE
8
BLACK
6
CONTINUOUS
10
4.62239
20
-2.58764
11
4.61257
21
-2.57994
0
LINE
8
BLACK
6
CONTINUOUS
10
4.61257
20
-2.57994
11
4.60375
21
-2.57111
0
LINE
8
BLACK
6
CONTINUOUS
10
4.60375
20
-2.57111
11
4.59605
21
-2.56129
0
LINE
8
BLACK
6
CONTINUOUS
10
4.59605
20
-2.56129
11
4.58959
21
-2.55061
0
LINE
8
BLACK
6
CONTINUOUS
10
4.58959
20
-2.55061
11
4.58447
21
-2.53923
0
LINE
8
BLACK
6
CONTINUOUS
10
4.58447
20
-2.53923
11
4.58076
21
-2.52732
0
LINE
8
BLACK
6
CONTINUOUS
10
4.58076
20
-2.52732
11
4.57851
21
-2.51504
0
LINE
8
BLACK
6
CONTINUOUS
10
4.57851
20
-2.51504
11
4.57776
21
-2.50258
0
LINE
8
BLACK
6
CONTINUOUS
10
4.57952
20
-2.50258
11
4.58032
21
-2.51531
0
LINE
8
BLACK
6
CONTINUOUS
10
4.58032
20
-2.51531
11
4.58272
21
-2.52784
0
LINE
8
BLACK
6
CONTINUOUS
10
4.58272
20
-2.52784
11
4.58666
21
-2.53998
0
LINE
8
BLACK
6
CONTINUOUS
10
4.58666
20
-2.53998
11
4.59209
21
-2.55152
0
LINE
8
BLACK
6
CONTINUOUS
10
4.59209
20
-2.55152
11
4.59892
21
-2.56229
0
LINE
8
BLACK
6
CONTINUOUS
10
4.59892
20
-2.56229
11
4.60705
21
-2.57212
0
LINE
8
BLACK
6
CONTINUOUS
10
4.60705
20
-2.57212
11
4.61635
21
-2.58085
0
LINE
8
BLACK
6
CONTINUOUS
10
4.61635
20
-2.58085
11
4.62667
21
-2.58835
0
LINE
8
BLACK
6
CONTINUOUS
10
4.62667
20
-2.58835
11
4.63785
21
-2.59449
0
LINE
8
BLACK
6
CONTINUOUS
10
4.63785
20
-2.59449
11
4.64971
21
-2.59919
0
LINE
8
BLACK
6
CONTINUOUS
10
4.64971
20
-2.59919
11
4.66207
21
-2.60236
0
LINE
8
BLACK
6
CONTINUOUS
10
4.66207
20
-2.60236
11
4.67472
21
-2.60396
0
LINE
8
BLACK
6
CONTINUOUS
10
4.67472
20
-2.60396
11
4.68748
21
-2.60396
0
LINE
8
BLACK
6
CONTINUOUS
10
4.68748
20
-2.60396
11
4.70014
21
-2.60236
0
LINE
8
BLACK
6
CONTINUOUS
10
4.70014
20
-2.60236
11
4.71249
21
-2.59919
0
LINE
8
BLACK
6
CONTINUOUS
10
4.71249
20
-2.59919
11
4.72435
21
-2.59449
0
LINE
8
BLACK
6
CONTINUOUS
10
4.72435
20
-2.59449
11
4.73553
21
-2.58835
0
LINE
8
BLACK
6
CONTINUOUS
10
4.73553
20
-2.58835
11
4.74585
21
-2.58085
0
LINE
8
BLACK
6
CONTINUOUS
10
4.74585
20
-2.58085
11
4.75515
21
-2.57212
0
LINE
8
BLACK
6
CONTINUOUS
10
4.75515
20
-2.57212
11
4.76328
21
-2.56229
0
LINE
8
BLACK
6
CONTINUOUS
10
4.76328
20
-2.56229
11
4.77012
21
-2.55152
0
LINE
8
BLACK
6
CONTINUOUS
10
4.77012
20
-2.55152
11
4.77555
21
-2.53998
0
LINE
8
BLACK
6
CONTINUOUS
10
4.77555
20
-2.53998
11
4.77949
21
-2.52784
0
LINE
8
BLACK
6
CONTINUOUS
10
4.77949
20
-2.52784
11
4.78188
21
-2.51531
0
LINE
8
BLACK
6
CONTINUOUS
10
4.78188
20
-2.51531
11
4.78268
21
-2.50258
0
LINE
8
BLACK
6
CONTINUOUS
10
4.78268
20
-2.50258
11
4.78188
21
-2.48985
0
LINE
8
BLACK
6
CONTINUOUS
10
4.78188
20
-2.48985
11
4.77949
21
-2.47732
0
LINE
8
BLACK
6
CONTINUOUS
10
4.77949
20
-2.47732
11
4.77555
21
-2.46519
0
LINE
8
BLACK
6
CONTINUOUS
10
4.77555
20
-2.46519
11
4.77012
21
-2.45365
0
LINE
8
BLACK
6
CONTINUOUS
10
4.77012
20
-2.45365
11
4.76328
21
-2.44288
0
LINE
8
BLACK
6
CONTINUOUS
10
4.76328
20
-2.44288
11
4.75515
21
-2.43305
0
LINE
8
BLACK
6
CONTINUOUS
10
4.75515
20
-2.43305
11
4.74585
21
-2.42432
0
LINE
8
BLACK
6
CONTINUOUS
10
4.74585
20
-2.42432
11
4.73553
21
-2.41682
0
LINE
8
BLACK
6
CONTINUOUS
10
4.73553
20
-2.41682
11
4.72435
21
-2.41067
0
LINE
8
BLACK
6
CONTINUOUS
10
4.72435
20
-2.41067
11
4.71249
21
-2.40598
0
LINE
8
BLACK
6
CONTINUOUS
10
4.71249
20
-2.40598
11
4.70014
21
-2.4028
0
LINE
8
BLACK
6
CONTINUOUS
10
4.70014
20
-2.4028
11
4.68748
21
-2.4012
0
LINE
8
BLACK
6
CONTINUOUS
10
4.68748
20
-2.4012
11
4.67472
21
-2.4012
0
LINE
8
BLACK
6
CONTINUOUS
10
4.67472
20
-2.4012
11
4.66207
21
-2.4028
0
LINE
8
BLACK
6
CONTINUOUS
10
4.66207
20
-2.4028
11
4.64971
21
-2.40598
0
LINE
8
BLACK
6
CONTINUOUS
10
4.64971
20
-2.40598
11
4.63785
21
-2.41067
0
LINE
8
BLACK
6
CONTINUOUS
10
4.63785
20
-2.41067
11
4.62667
21
-2.41682
0
LINE
8
BLACK
6
CONTINUOUS
10
4.62667
20
-2.41682
11
4.61635
21
-2.42432
0
LINE
8
BLACK
6
CONTINUOUS
10
4.61635
20
-2.42432
11
4.60705
21
-2.43305
0
LINE
8
BLACK
6
CONTINUOUS
10
4.60705
20
-2.43305
11
4.59892
21
-2.44288
0
LINE
8
BLACK
6
CONTINUOUS
10
4.59892
20
-2.44288
11
4.59209
21
-2.45365
0
LINE
8
BLACK
6
CONTINUOUS
10
4.59209
20
-2.45365
11
4.58666
21
-2.46519
0
LINE
8
BLACK
6
CONTINUOUS
10
4.58666
20
-2.46519
11
4.58272
21
-2.47732
0
LINE
8
BLACK
6
CONTINUOUS
10
4.58272
20
-2.47732
11
4.58032
21
-2.48985
0
LINE
8
BLACK
6
CONTINUOUS
10
4.58032
20
-2.48985
11
4.57952
21
-2.50258
0
LINE
8
BLACK
6
CONTINUOUS
10
1.5502
20
-2.5
11
1.55095
21
-2.48754
0
LINE
8
BLACK
6
CONTINUOUS
10
1.55095
20
-2.48754
11
1.5532
21
-2.47527
0
LINE
8
BLACK
6
CONTINUOUS
10
1.5532
20
-2.47527
11
1.55691
21
-2.46335
0
LINE
8
BLACK
6
CONTINUOUS
10
1.55691
20
-2.46335
11
1.56203
21
-2.45197
0
LINE
8
BLACK
6
CONTINUOUS
10
1.56203
20
-2.45197
11
1.56849
21
-2.44129
0
LINE
8
BLACK
6
CONTINUOUS
10
1.56849
20
-2.44129
11
1.57619
21
-2.43147
0
LINE
8
BLACK
6
CONTINUOUS
10
1.57619
20
-2.43147
11
1.58501
21
-2.42264
0
LINE
8
BLACK
6
CONTINUOUS
10
1.58501
20
-2.42264
11
1.59484
21
-2.41495
0
LINE
8
BLACK
6
CONTINUOUS
10
1.59484
20
-2.41495
11
1.60552
21
-2.40849
0
LINE
8
BLACK
6
CONTINUOUS
10
1.60552
20
-2.40849
11
1.6169
21
-2.40337
0
LINE
8
BLACK
6
CONTINUOUS
10
1.6169
20
-2.40337
11
1.62881
21
-2.39966
0
LINE
8
BLACK
6
CONTINUOUS
10
1.62881
20
-2.39966
11
1.64109
21
-2.39741
0
LINE
8
BLACK
6
CONTINUOUS
10
1.64109
20
-2.39741
11
1.65354
21
-2.39665
0
LINE
8
BLACK
6
CONTINUOUS
10
1.65354
20
-2.39665
11
1.666
21
-2.39741
0
LINE
8
BLACK
6
CONTINUOUS
10
1.666
20
-2.39741
11
1.67828
21
-2.39966
0
LINE
8
BLACK
6
CONTINUOUS
10
1.67828
20
-2.39966
11
1.69019
21
-2.40337
0
LINE
8
BLACK
6
CONTINUOUS
10
1.69019
20
-2.40337
11
1.70157
21
-2.40849
0
LINE
8
BLACK
6
CONTINUOUS
10
1.70157
20
-2.40849
11
1.71225
21
-2.41495
0
LINE
8
BLACK
6
CONTINUOUS
10
1.71225
20
-2.41495
11
1.72207
21
-2.42264
0
LINE
8
BLACK
6
CONTINUOUS
10
1.72207
20
-2.42264
11
1.7309
21
-2.43147
0
LINE
8
BLACK
6
CONTINUOUS
10
1.7309
20
-2.43147
11
1.7386
21
-2.44129
0
LINE
8
BLACK
6
CONTINUOUS
10
1.7386
20
-2.44129
11
1.74505
21
-2.45197
0
LINE
8
BLACK
6
CONTINUOUS
10
1.74505
20
-2.45197
11
1.75017
21
-2.46335
0
LINE
8
BLACK
6
CONTINUOUS
10
1.75017
20
-2.46335
11
1.75389
21
-2.47527
0
LINE
8
BLACK
6
CONTINUOUS
10
1.75389
20
-2.47527
11
1.75614
21
-2.48754
0
LINE
8
BLACK
6
CONTINUOUS
10
1.75614
20
-2.48754
11
1.75689
21
-2.5
0
LINE
8
BLACK
6
CONTINUOUS
10
1.75689
20
-2.5
11
1.75614
21
-2.51246
0
LINE
8
BLACK
6
CONTINUOUS
10
1.75614
20
-2.51246
11
1.75389
21
-2.52473
0
LINE
8
BLACK
6
CONTINUOUS
10
1.75389
20
-2.52473
11
1.75017
21
-2.53665
0
LINE
8
BLACK
6
CONTINUOUS
10
1.75017
20
-2.53665
11
1.74505
21
-2.54803
0
LINE
8
BLACK
6
CONTINUOUS
10
1.74505
20
-2.54803
11
1.7386
21
-2.55871
0
LINE
8
BLACK
6
CONTINUOUS
10
1.7386
20
-2.55871
11
1.7309
21
-2.56853
0
LINE
8
BLACK
6
CONTINUOUS
10
1.7309
20
-2.56853
11
1.72207
21
-2.57736
0
LINE
8
BLACK
6
CONTINUOUS
10
1.72207
20
-2.57736
11
1.71225
21
-2.58505
0
LINE
8
BLACK
6
CONTINUOUS
10
1.71225
20
-2.58505
11
1.70157
21
-2.59151
0
LINE
8
BLACK
6
CONTINUOUS
10
1.70157
20
-2.59151
11
1.69019
21
-2.59663
0
LINE
8
BLACK
6
CONTINUOUS
10
1.69019
20
-2.59663
11
1.67828
21
-2.60034
0
LINE
8
BLACK
6
CONTINUOUS
10
1.67828
20
-2.60034
11
1.666
21
-2.60259
0
LINE
8
BLACK
6
CONTINUOUS
10
1.666
20
-2.60259
11
1.65354
21
-2.60335
0
LINE
8
BLACK
6
CONTINUOUS
10
1.65354
20
-2.60335
11
1.64109
21
-2.60259
0
LINE
8
BLACK
6
CONTINUOUS
10
1.64109
20
-2.60259
11
1.62881
21
-2.60034
0
LINE
8
BLACK
6
CONTINUOUS
10
1.62881
20
-2.60034
11
1.6169
21
-2.59663
0
LINE
8
BLACK
6
CONTINUOUS
10
1.6169
20
-2.59663
11
1.60552
21
-2.59151
0
LINE
8
BLACK
6
CONTINUOUS
10
1.60552
20
-2.59151
11
1.59484
21
-2.58505
0
LINE
8
BLACK
6
CONTINUOUS
10
1.59484
20
-2.58505
11
1.58501
21
-2.57736
0
LINE
8
BLACK
6
CONTINUOUS
10
1.58501
20
-2.57736
11
1.57619
21
-2.56853
0
LINE
8
BLACK
6
CONTINUOUS
10
1.57619
20
-2.56853
11
1.56849
21
-2.55871
0
LINE
8
BLACK
6
CONTINUOUS
10
1.56849
20
-2.55871
11
1.56203
21
-2.54803
0
LINE
8
BLACK
6
CONTINUOUS
10
1.56203
20
-2.54803
11
1.55691
21
-2.53665
0
LINE
8
BLACK
6
CONTINUOUS
10
1.55691
20
-2.53665
11
1.5532
21
-2.52473
0
LINE
8
BLACK
6
CONTINUOUS
10
1.5532
20
-2.52473
11
1.55095
21
-2.51246
0
LINE
8
BLACK
6
CONTINUOUS
10
1.55095
20
-2.51246
11
1.5502
21
-2.5
0
LINE
8
BLACK
6
CONTINUOUS
10
1.55196
20
-2.5
11
1.55277
21
-2.51273
0
LINE
8
BLACK
6
CONTINUOUS
10
1.55277
20
-2.51273
11
1.55516
21
-2.52526
0
LINE
8
BLACK
6
CONTINUOUS
10
1.55516
20
-2.52526
11
1.5591
21
-2.53739
0
LINE
8
BLACK
6
CONTINUOUS
10
1.5591
20
-2.53739
11
1.56453
21
-2.54894
0
LINE
8
BLACK
6
CONTINUOUS
10
1.56453
20
-2.54894
11
1.57136
21
-2.55971
0
LINE
8
BLACK
6
CONTINUOUS
10
1.57136
20
-2.55971
11
1.5795
21
-2.56954
0
LINE
8
BLACK
6
CONTINUOUS
10
1.5795
20
-2.56954
11
1.58879
21
-2.57827
0
LINE
8
BLACK
6
CONTINUOUS
10
1.58879
20
-2.57827
11
1.59911
21
-2.58577
0
LINE
8
BLACK
6
CONTINUOUS
10
1.59911
20
-2.58577
11
1.61029
21
-2.59191
0
LINE
8
BLACK
6
CONTINUOUS
10
1.61029
20
-2.59191
11
1.62215
21
-2.59661
0
LINE
8
BLACK
6
CONTINUOUS
10
1.62215
20
-2.59661
11
1.63451
21
-2.59978
0
LINE
8
BLACK
6
CONTINUOUS
10
1.63451
20
-2.59978
11
1.64717
21
-2.60138
0
LINE
8
BLACK
6
CONTINUOUS
10
1.64717
20
-2.60138
11
1.65992
21
-2.60138
0
LINE
8
BLACK
6
CONTINUOUS
10
1.65992
20
-2.60138
11
1.67258
21
-2.59978
0
LINE
8
BLACK
6
CONTINUOUS
10
1.67258
20
-2.59978
11
1.68493
21
-2.59661
0
LINE
8
BLACK
6
CONTINUOUS
10
1.68493
20
-2.59661
11
1.69679
21
-2.59191
0
LINE
8
BLACK
6
CONTINUOUS
10
1.69679
20
-2.59191
11
1.70797
21
-2.58577
0
LINE
8
BLACK
6
CONTINUOUS
10
1.70797
20
-2.58577
11
1.71829
21
-2.57827
0
LINE
8
BLACK
6
CONTINUOUS
10
1.71829
20
-2.57827
11
1.72759
21
-2.56954
0
LINE
8
BLACK
6
CONTINUOUS
10
1.72759
20
-2.56954
11
1.73572
21
-2.55971
0
LINE
8
BLACK
6
CONTINUOUS
10
1.73572
20
-2.55971
11
1.74256
21
-2.54894
0
LINE
8
BLACK
6
CONTINUOUS
10
1.74256
20
-2.54894
11
1.74799
21
-2.53739
0
LINE
8
BLACK
6
CONTINUOUS
10
1.74799
20
-2.53739
11
1.75193
21
-2.52526
0
LINE
8
BLACK
6
CONTINUOUS
10
1.75193
20
-2.52526
11
1.75432
21
-2.51273
0
LINE
8
BLACK
6
CONTINUOUS
10
1.75432
20
-2.51273
11
1.75512
21
-2.5
0
LINE
8
BLACK
6
CONTINUOUS
10
1.75512
20
-2.5
11
1.75432
21
-2.48727
0
LINE
8
BLACK
6
CONTINUOUS
10
1.75432
20
-2.48727
11
1.75193
21
-2.47474
0
LINE
8
BLACK
6
CONTINUOUS
10
1.75193
20
-2.47474
11
1.74799
21
-2.46261
0
LINE
8
BLACK
6
CONTINUOUS
10
1.74799
20
-2.46261
11
1.74256
21
-2.45106
0
LINE
8
BLACK
6
CONTINUOUS
10
1.74256
20
-2.45106
11
1.73572
21
-2.44029
0
LINE
8
BLACK
6
CONTINUOUS
10
1.73572
20
-2.44029
11
1.72759
21
-2.43046
0
LINE
8
BLACK
6
CONTINUOUS
10
1.72759
20
-2.43046
11
1.71829
21
-2.42173
0
LINE
8
BLACK
6
CONTINUOUS
10
1.71829
20
-2.42173
11
1.70797
21
-2.41423
0
LINE
8
BLACK
6
CONTINUOUS
10
1.70797
20
-2.41423
11
1.69679
21
-2.40809
0
LINE
8
BLACK
6
CONTINUOUS
10
1.69679
20
-2.40809
11
1.68493
21
-2.40339
0
LINE
8
BLACK
6
CONTINUOUS
10
1.68493
20
-2.40339
11
1.67258
21
-2.40022
0
LINE
8
BLACK
6
CONTINUOUS
10
1.67258
20
-2.40022
11
1.65992
21
-2.39862
0
LINE
8
BLACK
6
CONTINUOUS
10
1.65992
20
-2.39862
11
1.64717
21
-2.39862
0
LINE
8
BLACK
6
CONTINUOUS
10
1.64717
20
-2.39862
11
1.63451
21
-2.40022
0
LINE
8
BLACK
6
CONTINUOUS
10
1.63451
20
-2.40022
11
1.62215
21
-2.40339
0
LINE
8
BLACK
6
CONTINUOUS
10
1.62215
20
-2.40339
11
1.61029
21
-2.40809
0
LINE
8
BLACK
6
CONTINUOUS
10
1.61029
20
-2.40809
11
1.59911
21
-2.41423
0
LINE
8
BLACK
6
CONTINUOUS
10
1.59911
20
-2.41423
11
1.58879
21
-2.42173
0
LINE
8
BLACK
6
CONTINUOUS
10
1.58879
20
-2.42173
11
1.5795
21
-2.43046
0
LINE
8
BLACK
6
CONTINUOUS
10
1.5795
20
-2.43046
11
1.57136
21
-2.44029
0
LINE
8
BLACK
6
CONTINUOUS
10
1.57136
20
-2.44029
11
1.56453
21
-2.45106
0
LINE
8
BLACK
6
CONTINUOUS
10
1.56453
20
-2.45106
11
1.5591
21
-2.46261
0
LINE
8
BLACK
6
CONTINUOUS
10
1.5591
20
-2.46261
11
1.55516
21
-2.47474
0
LINE
8
BLACK
6
CONTINUOUS
10
1.55516
20
-2.47474
11
1.55277
21
-2.48727
0
LINE
8
BLACK
6
CONTINUOUS
10
1.55277
20
-2.48727
11
1.55196
21
-2.5
0
LINE
8
BLACK
6
CONTINUOUS
10
6.50689
20
-2.49803
11
6.50764
21
-2.48557
0
LINE
8
BLACK
6
CONTINUOUS
10
6.50764
20
-2.48557
11
6.50989
21
-2.4733
0
LINE
8
BLACK
6
CONTINUOUS
10
6.50989
20
-2.4733
11
6.51361
21
-2.46138
0
LINE
8
BLACK
6
CONTINUOUS
10
6.51361
20
-2.46138
11
6.51873
21
-2.45
0
LINE
8
BLACK
6
CONTINUOUS
10
6.51873
20
-2.45
11
6.52518
21
-2.43932
0
LINE
8
BLACK
6
CONTINUOUS
10
6.52518
20
-2.43932
11
6.53288
21
-2.4295
0
LINE
8
BLACK
6
CONTINUOUS
10
6.53288
20
-2.4295
11
6.5417
21
-2.42068
0
LINE
8
BLACK
6
CONTINUOUS
10
6.5417
20
-2.42068
11
6.55153
21
-2.41298
0
LINE
8
BLACK
6
CONTINUOUS
10
6.55153
20
-2.41298
11
6.56221
21
-2.40652
0
LINE
8
BLACK
6
CONTINUOUS
10
6.56221
20
-2.40652
11
6.57359
21
-2.4014
0
LINE
8
BLACK
6
CONTINUOUS
10
6.57359
20
-2.4014
11
6.5855
21
-2.39769
0
LINE
8
BLACK
6
CONTINUOUS
10
6.5855
20
-2.39769
11
6.59778
21
-2.39544
0
LINE
8
BLACK
6
CONTINUOUS
10
6.59778
20
-2.39544
11
6.61024
21
-2.39469
0
LINE
8
BLACK
6
CONTINUOUS
10
6.61024
20
-2.39469
11
6.62269
21
-2.39544
0
LINE
8
BLACK
6
CONTINUOUS
10
6.62269
20
-2.39544
11
6.63497
21
-2.39769
0
LINE
8
BLACK
6
CONTINUOUS
10
6.63497
20
-2.39769
11
6.64688
21
-2.4014
0
LINE
8
BLACK
6
CONTINUOUS
10
6.64688
20
-2.4014
11
6.65826
21
-2.40652
0
LINE
8
BLACK
6
CONTINUOUS
10
6.65826
20
-2.40652
11
6.66894
21
-2.41298
0
LINE
8
BLACK
6
CONTINUOUS
10
6.66894
20
-2.41298
11
6.67877
21
-2.42068
0
LINE
8
BLACK
6
CONTINUOUS
10
6.67877
20
-2.42068
11
6.68759
21
-2.4295
0
LINE
8
BLACK
6
CONTINUOUS
10
6.68759
20
-2.4295
11
6.69529
21
-2.43932
0
LINE
8
BLACK
6
CONTINUOUS
10
6.69529
20
-2.43932
11
6.70174
21
-2.45
0
LINE
8
BLACK
6
CONTINUOUS
10
6.70174
20
-2.45
11
6.70687
21
-2.46138
0
LINE
8
BLACK
6
CONTINUOUS
10
6.70687
20
-2.46138
11
6.71058
21
-2.4733
0
LINE
8
BLACK
6
CONTINUOUS
10
6.71058
20
-2.4733
11
6.71283
21
-2.48557
0
LINE
8
BLACK
6
CONTINUOUS
10
6.71283
20
-2.48557
11
6.71358
21
-2.49803
0
LINE
8
BLACK
6
CONTINUOUS
10
6.71358
20
-2.49803
11
6.71283
21
-2.51049
0
LINE
8
BLACK
6
CONTINUOUS
10
6.71283
20
-2.51049
11
6.71058
21
-2.52276
0
LINE
8
BLACK
6
CONTINUOUS
10
6.71058
20
-2.52276
11
6.70687
21
-2.53468
0
LINE
8
BLACK
6
CONTINUOUS
10
6.70687
20
-2.53468
11
6.70174
21
-2.54606
0
LINE
8
BLACK
6
CONTINUOUS
10
6.70174
20
-2.54606
11
6.69529
21
-2.55674
0
LINE
8
BLACK
6
CONTINUOUS
10
6.69529
20
-2.55674
11
6.68759
21
-2.56656
0
LINE
8
BLACK
6
CONTINUOUS
10
6.68759
20
-2.56656
11
6.67877
21
-2.57539
0
LINE
8
BLACK
6
CONTINUOUS
10
6.67877
20
-2.57539
11
6.66894
21
-2.58308
0
LINE
8
BLACK
6
CONTINUOUS
10
6.66894
20
-2.58308
11
6.65826
21
-2.58954
0
LINE
8
BLACK
6
CONTINUOUS
10
6.65826
20
-2.58954
11
6.64688
21
-2.59466
0
LINE
8
BLACK
6
CONTINUOUS
10
6.64688
20
-2.59466
11
6.63497
21
-2.59837
0
LINE
8
BLACK
6
CONTINUOUS
10
6.63497
20
-2.59837
11
6.62269
21
-2.60062
0
LINE
8
BLACK
6
CONTINUOUS
10
6.62269
20
-2.60062
11
6.61024
21
-2.60138
0
LINE
8
BLACK
6
CONTINUOUS
10
6.61024
20
-2.60138
11
6.59778
21
-2.60062
0
LINE
8
BLACK
6
CONTINUOUS
10
6.59778
20
-2.60062
11
6.5855
21
-2.59837
0
LINE
8
BLACK
6
CONTINUOUS
10
6.5855
20
-2.59837
11
6.57359
21
-2.59466
0
LINE
8
BLACK
6
CONTINUOUS
10
6.57359
20
-2.59466
11
6.56221
21
-2.58954
0
LINE
8
BLACK
6
CONTINUOUS
10
6.56221
20
-2.58954
11
6.55153
21
-2.58308
0
LINE
8
BLACK
6
CONTINUOUS
10
6.55153
20
-2.58308
11
6.5417
21
-2.57539
0
LINE
8
BLACK
6
CONTINUOUS
10
6.5417
20
-2.57539
11
6.53288
21
-2.56656
0
LINE
8
BLACK
6
CONTINUOUS
10
6.53288
20
-2.56656
11
6.52518
21
-2.55674
0
LINE
8
BLACK
6
CONTINUOUS
10
6.52518
20
-2.55674
11
6.51873
21
-2.54606
0
LINE
8
BLACK
6
CONTINUOUS
10
6.51873
20
-2.54606
11
6.51361
21
-2.53468
0
LINE
8
BLACK
6
CONTINUOUS
10
6.51361
20
-2.53468
11
6.50989
21
-2.52276
0
LINE
8
BLACK
6
CONTINUOUS
10
6.50989
20
-2.52276
11
6.50764
21
-2.51049
0
LINE
8
BLACK
6
CONTINUOUS
10
6.50764
20
-2.51049
11
6.50689
21
-2.49803
0
LINE
8
BLACK
6
CONTINUOUS
10
6.50866
20
-2.49803
11
6.50946
21
-2.51076
0
LINE
8
BLACK
6
CONTINUOUS
10
6.50946
20
-2.51076
11
6.51185
21
-2.52329
0
LINE
8
BLACK
6
CONTINUOUS
10
6.51185
20
-2.52329
11
6.51579
21
-2.53543
0
LINE
8
BLACK
6
CONTINUOUS
10
6.51579
20
-2.53543
11
6.52122
21
-2.54697
0
LINE
8
BLACK
6
CONTINUOUS
10
6.52122
20
-2.54697
11
6.52806
21
-2.55774
0
LINE
8
BLACK
6
CONTINUOUS
10
6.52806
20
-2.55774
11
6.53619
21
-2.56757
0
LINE
8
BLACK
6
CONTINUOUS
10
6.53619
20
-2.56757
11
6.54549
21
-2.5763
0
LINE
8
BLACK
6
CONTINUOUS
10
6.54549
20
-2.5763
11
6.55581
21
-2.5838
0
LINE
8
BLACK
6
CONTINUOUS
10
6.55581
20
-2.5838
11
6.56699
21
-2.58994
0
LINE
8
BLACK
6
CONTINUOUS
10
6.56699
20
-2.58994
11
6.57885
21
-2.59464
0
LINE
8
BLACK
6
CONTINUOUS
10
6.57885
20
-2.59464
11
6.5912
21
-2.59781
0
LINE
8
BLACK
6
CONTINUOUS
10
6.5912
20
-2.59781
11
6.60386
21
-2.59941
0
LINE
8
BLACK
6
CONTINUOUS
10
6.60386
20
-2.59941
11
6.61661
21
-2.59941
0
LINE
8
BLACK
6
CONTINUOUS
10
6.61661
20
-2.59941
11
6.62927
21
-2.59781
0
LINE
8
BLACK
6
CONTINUOUS
10
6.62927
20
-2.59781
11
6.64163
21
-2.59464
0
LINE
8
BLACK
6
CONTINUOUS
10
6.64163
20
-2.59464
11
6.65349
21
-2.58994
0
LINE
8
BLACK
6
CONTINUOUS
10
6.65349
20
-2.58994
11
6.66466
21
-2.5838
0
LINE
8
BLACK
6
CONTINUOUS
10
6.66466
20
-2.5838
11
6.67498
21
-2.5763
0
LINE
8
BLACK
6
CONTINUOUS
10
6.67498
20
-2.5763
11
6.68428
21
-2.56757
0
LINE
8
BLACK
6
CONTINUOUS
10
6.68428
20
-2.56757
11
6.69241
21
-2.55774
0
LINE
8
BLACK
6
CONTINUOUS
10
6.69241
20
-2.55774
11
6.69925
21
-2.54697
0
LINE
8
BLACK
6
CONTINUOUS
10
6.69925
20
-2.54697
11
6.70468
21
-2.53543
0
LINE
8
BLACK
6
CONTINUOUS
10
6.70468
20
-2.53543
11
6.70862
21
-2.52329
0
LINE
8
BLACK
6
CONTINUOUS
10
6.70862
20
-2.52329
11
6.71101
21
-2.51076
0
LINE
8
BLACK
6
CONTINUOUS
10
6.71101
20
-2.51076
11
6.71181
21
-2.49803
0
LINE
8
BLACK
6
CONTINUOUS
10
6.71181
20
-2.49803
11
6.71101
21
-2.4853
0
LINE
8
BLACK
6
CONTINUOUS
10
6.71101
20
-2.4853
11
6.70862
21
-2.47277
0
LINE
8
BLACK
6
CONTINUOUS
10
6.70862
20
-2.47277
11
6.70468
21
-2.46064
0
LINE
8
BLACK
6
CONTINUOUS
10
6.70468
20
-2.46064
11
6.69925
21
-2.4491
0
LINE
8
BLACK
6
CONTINUOUS
10
6.69925
20
-2.4491
11
6.69241
21
-2.43833
0
LINE
8
BLACK
6
CONTINUOUS
10
6.69241
20
-2.43833
11
6.68428
21
-2.4285
0
LINE
8
BLACK
6
CONTINUOUS
10
6.68428
20
-2.4285
11
6.67498
21
-2.41976
0
LINE
8
BLACK
6
CONTINUOUS
10
6.67498
20
-2.41976
11
6.66466
21
-2.41227
0
LINE
8
BLACK
6
CONTINUOUS
10
6.66466
20
-2.41227
11
6.65349
21
-2.40612
0
LINE
8
BLACK
6
CONTINUOUS
10
6.65349
20
-2.40612
11
6.64163
21
-2.40142
0
LINE
8
BLACK
6
CONTINUOUS
10
6.64163
20
-2.40142
11
6.62927
21
-2.39825
0
LINE
8
BLACK
6
CONTINUOUS
10
6.62927
20
-2.39825
11
6.61661
21
-2.39665
0
LINE
8
BLACK
6
CONTINUOUS
10
6.61661
20
-2.39665
11
6.60386
21
-2.39665
0
LINE
8
BLACK
6
CONTINUOUS
10
6.60386
20
-2.39665
11
6.5912
21
-2.39825
0
LINE
8
BLACK
6
CONTINUOUS
10
6.5912
20
-2.39825
11
6.57885
21
-2.40142
0
LINE
8
BLACK
6
CONTINUOUS
10
6.57885
20
-2.40142
11
6.56699
21
-2.40612
0
LINE
8
BLACK
6
CONTINUOUS
10
6.56699
20
-2.40612
11
6.55581
21
-2.41227
0
LINE
8
BLACK
6
CONTINUOUS
10
6.55581
20
-2.41227
11
6.54549
21
-2.41976
0
LINE
8
BLACK
6
CONTINUOUS
10
6.54549
20
-2.41976
11
6.53619
21
-2.4285
0
LINE
8
BLACK
6
CONTINUOUS
10
6.53619
20
-2.4285
11
6.52806
21
-2.43833
0
LINE
8
BLACK
6
CONTINUOUS
10
6.52806
20
-2.43833
11
6.52122
21
-2.4491
0
LINE
8
BLACK
6
CONTINUOUS
10
6.52122
20
-2.4491
11
6.51579
21
-2.46064
0
LINE
8
BLACK
6
CONTINUOUS
10
6.51579
20
-2.46064
11
6.51185
21
-2.47277
0
LINE
8
BLACK
6
CONTINUOUS
10
6.51185
20
-2.47277
11
6.50946
21
-2.4853
0
LINE
8
BLACK
6
CONTINUOUS
10
6.50946
20
-2.4853
11
6.50866
21
-2.49803
0
LINE
8
BLACK
6
CONTINUOUS
10
3.63504
20
-2.39961
11
3.63574
21
-2.39989
0
LINE
8
BLACK
6
CONTINUOUS
10
3.63574
20
-2.39989
11
3.63602
21
-2.40059
0
LINE
8
BLACK
6
CONTINUOUS
10
3.63602
20
-2.40059
11
3.63602
21
-2.52657
0
LINE
8
BLACK
6
CONTINUOUS
10
3.63602
20
-2.52657
11
3.63574
21
-2.52727
0
LINE
8
BLACK
6
CONTINUOUS
10
3.63574
20
-2.52727
11
3.63504
21
-2.52756
0
LINE
8
BLACK
6
CONTINUOUS
10
3.63504
20
-2.52756
11
3.15236
21
-2.52756
0
LINE
8
BLACK
6
CONTINUOUS
10
3.15236
20
-2.52756
11
3.15167
21
-2.52727
0
LINE
8
BLACK
6
CONTINUOUS
10
3.15167
20
-2.52727
11
3.15138
21
-2.52657
0
LINE
8
BLACK
6
CONTINUOUS
10
3.15138
20
-2.52657
11
3.15138
21
-2.40059
0
LINE
8
BLACK
6
CONTINUOUS
10
3.15138
20
-2.40059
11
3.15167
21
-2.39989
0
LINE
8
BLACK
6
CONTINUOUS
10
3.15167
20
-2.39989
11
3.15236
21
-2.39961
0
LINE
8
BLACK
6
CONTINUOUS
10
3.15236
20
-2.39961
11
3.63504
21
-2.39961
0
LINE
8
BLACK
6
CONTINUOUS
10
3.15335
20
-2.40157
11
3.15335
21
-2.52559
0
LINE
8
BLACK
6
CONTINUOUS
10
3.15335
20
-2.52559
11
3.63406
21
-2.52559
0
LINE
8
BLACK
6
CONTINUOUS
10
3.63406
20
-2.52559
11
3.63406
21
-2.40157
0
LINE
8
BLACK
6
CONTINUOUS
10
3.63406
20
-2.40157
11
3.15335
21
-2.40157
0
LINE
8
BLACK
6
CONTINUOUS
10
6.04528
20
-2.20965
11
6.04597
21
-2.20993
0
LINE
8
BLACK
6
CONTINUOUS
10
6.04597
20
-2.20993
11
6.04626
21
-2.21063
0
LINE
8
BLACK
6
CONTINUOUS
10
6.04626
20
-2.21063
11
6.04626
21
-2.49016
0
LINE
8
BLACK
6
CONTINUOUS
10
6.04626
20
-2.49016
11
6.04597
21
-2.49085
0
LINE
8
BLACK
6
CONTINUOUS
10
6.04597
20
-2.49085
11
6.04528
21
-2.49114
0
LINE
8
BLACK
6
CONTINUOUS
10
6.04528
20
-2.49114
11
5.89961
21
-2.49114
0
LINE
8
BLACK
6
CONTINUOUS
10
5.89961
20
-2.49114
11
5.89891
21
-2.49085
0
LINE
8
BLACK
6
CONTINUOUS
10
5.89891
20
-2.49085
11
5.89862
21
-2.49016
0
LINE
8
BLACK
6
CONTINUOUS
10
5.89862
20
-2.49016
11
5.89862
21
-2.21063
0
LINE
8
BLACK
6
CONTINUOUS
10
5.89862
20
-2.21063
11
5.89891
21
-2.20993
0
LINE
8
BLACK
6
CONTINUOUS
10
5.89891
20
-2.20993
11
5.89961
21
-2.20965
0
LINE
8
BLACK
6
CONTINUOUS
10
5.89961
20
-2.20965
11
6.04528
21
-2.20965
0
LINE
8
BLACK
6
CONTINUOUS
10
5.90059
20
-2.21161
11
5.90059
21
-2.48917
0
LINE
8
BLACK
6
CONTINUOUS
10
5.90059
20
-2.48917
11
6.04429
21
-2.48917
0
LINE
8
BLACK
6
CONTINUOUS
10
6.04429
20
-2.48917
11
6.04429
21
-2.21161
0
LINE
8
BLACK
6
CONTINUOUS
10
6.04429
20
-2.21161
11
5.90059
21
-2.21161
0
LINE
8
BLACK
6
CONTINUOUS
10
6.12697
20
-2.07874
11
6.12773
21
-2.05936
0
LINE
8
BLACK
6
CONTINUOUS
10
6.12773
20
-2.05936
11
6.13001
21
-2.04009
0
LINE
8
BLACK
6
CONTINUOUS
10
6.13001
20
-2.04009
11
6.13379
21
-2.02107
0
LINE
8
BLACK
6
CONTINUOUS
10
6.13379
20
-2.02107
11
6.13906
21
-2.0024
0
LINE
8
BLACK
6
CONTINUOUS
10
6.13906
20
-2.0024
11
6.14577
21
-1.9842
0
LINE
8
BLACK
6
CONTINUOUS
10
6.14577
20
-1.9842
11
6.1539
21
-1.96658
0
LINE
8
BLACK
6
CONTINUOUS
10
6.1539
20
-1.96658
11
6.16337
21
-1.94966
0
LINE
8
BLACK
6
CONTINUOUS
10
6.16337
20
-1.94966
11
6.17415
21
-1.93353
0
LINE
8
BLACK
6
CONTINUOUS
10
6.17415
20
-1.93353
11
6.18616
21
-1.9183
0
LINE
8
BLACK
6
CONTINUOUS
10
6.18616
20
-1.9183
11
6.19933
21
-1.90405
0
LINE
8
BLACK
6
CONTINUOUS
10
6.19933
20
-1.90405
11
6.21357
21
-1.89088
0
LINE
8
BLACK
6
CONTINUOUS
10
6.21357
20
-1.89088
11
6.22881
21
-1.87887
0
LINE
8
BLACK
6
CONTINUOUS
10
6.22881
20
-1.87887
11
6.24493
21
-1.8681
0
LINE
8
BLACK
6
CONTINUOUS
10
6.24493
20
-1.8681
11
6.26186
21
-1.85862
0
LINE
8
BLACK
6
CONTINUOUS
10
6.26186
20
-1.85862
11
6.27947
21
-1.8505
0
LINE
8
BLACK
6
CONTINUOUS
10
6.27947
20
-1.8505
11
6.29767
21
-1.84378
0
LINE
8
BLACK
6
CONTINUOUS
10
6.29767
20
-1.84378
11
6.31634
21
-1.83852
0
LINE
8
BLACK
6
CONTINUOUS
10
6.31634
20
-1.83852
11
6.33537
21
-1.83473
0
LINE
8
BLACK
6
CONTINUOUS
10
6.33537
20
-1.83473
11
6.35463
21
-1.83245
0
LINE
8
BLACK
6
CONTINUOUS
10
6.35463
20
-1.83245
11
6.37402
21
-1.83169
0
LINE
8
BLACK
6
CONTINUOUS
10
6.37402
20
-1.83169
11
6.3934
21
-1.83245
0
LINE
8
BLACK
6
CONTINUOUS
10
6.3934
20
-1.83245
11
6.41266
21
-1.83473
0
LINE
8
BLACK
6
CONTINUOUS
10
6.41266
20
-1.83473
11
6.43169
21
-1.83852
0
LINE
8
BLACK
6
CONTINUOUS
10
6.43169
20
-1.83852
11
6.45036
21
-1.84378
0
LINE
8
BLACK
6
CONTINUOUS
10
6.45036
20
-1.84378
11
6.46856
21
-1.8505
0
LINE
8
BLACK
6
CONTINUOUS
10
6.46856
20
-1.8505
11
6.48617
21
-1.85862
0
LINE
8
BLACK
6
CONTINUOUS
10
6.48617
20
-1.85862
11
6.5031
21
-1.8681
0
LINE
8
BLACK
6
CONTINUOUS
10
6.5031
20
-1.8681
11
6.51923
21
-1.87887
0
LINE
8
BLACK
6
CONTINUOUS
10
6.51923
20
-1.87887
11
6.53446
21
-1.89088
0
LINE
8
BLACK
6
CONTINUOUS
10
6.53446
20
-1.89088
11
6.5487
21
-1.90405
0
LINE
8
BLACK
6
CONTINUOUS
10
6.5487
20
-1.90405
11
6.56187
21
-1.9183
0
LINE
8
BLACK
6
CONTINUOUS
10
6.56187
20
-1.9183
11
6.57388
21
-1.93353
0
LINE
8
BLACK
6
CONTINUOUS
10
6.57388
20
-1.93353
11
6.58466
21
-1.94966
0
LINE
8
BLACK
6
CONTINUOUS
10
6.58466
20
-1.94966
11
6.59414
21
-1.96658
0
LINE
8
BLACK
6
CONTINUOUS
10
6.59414
20
-1.96658
11
6.60226
21
-1.9842
0
LINE
8
BLACK
6
CONTINUOUS
10
6.60226
20
-1.9842
11
6.60897
21
-2.0024
0
LINE
8
BLACK
6
CONTINUOUS
10
6.60897
20
-2.0024
11
6.61424
21
-2.02107
0
LINE
8
BLACK
6
CONTINUOUS
10
6.61424
20
-2.02107
11
6.61802
21
-2.04009
0
LINE
8
BLACK
6
CONTINUOUS
10
6.61802
20
-2.04009
11
6.6203
21
-2.05936
0
LINE
8
BLACK
6
CONTINUOUS
10
6.6203
20
-2.05936
11
6.62106
21
-2.07874
0
LINE
8
BLACK
6
CONTINUOUS
10
6.62106
20
-2.07874
11
6.6203
21
-2.09812
0
LINE
8
BLACK
6
CONTINUOUS
10
6.6203
20
-2.09812
11
6.61802
21
-2.11739
0
LINE
8
BLACK
6
CONTINUOUS
10
6.61802
20
-2.11739
11
6.61424
21
-2.13641
0
LINE
8
BLACK
6
CONTINUOUS
10
6.61424
20
-2.13641
11
6.60897
21
-2.15508
0
LINE
8
BLACK
6
CONTINUOUS
10
6.60897
20
-2.15508
11
6.60226
21
-2.17328
0
LINE
8
BLACK
6
CONTINUOUS
10
6.60226
20
-2.17328
11
6.59414
21
-2.1909
0
LINE
8
BLACK
6
CONTINUOUS
10
6.59414
20
-2.1909
11
6.58466
21
-2.20782
0
LINE
8
BLACK
6
CONTINUOUS
10
6.58466
20
-2.20782
11
6.57388
21
-2.22395
0
LINE
8
BLACK
6
CONTINUOUS
10
6.57388
20
-2.22395
11
6.56187
21
-2.23918
0
LINE
8
BLACK
6
CONTINUOUS
10
6.56187
20
-2.23918
11
6.5487
21
-2.25343
0
LINE
8
BLACK
6
CONTINUOUS
10
6.5487
20
-2.25343
11
6.53446
21
-2.2666
0
LINE
8
BLACK
6
CONTINUOUS
10
6.53446
20
-2.2666
11
6.51923
21
-2.27861
0
LINE
8
BLACK
6
CONTINUOUS
10
6.51923
20
-2.27861
11
6.5031
21
-2.28938
0
LINE
8
BLACK
6
CONTINUOUS
10
6.5031
20
-2.28938
11
6.48617
21
-2.29886
0
LINE
8
BLACK
6
CONTINUOUS
10
6.48617
20
-2.29886
11
6.46856
21
-2.30698
0
LINE
8
BLACK
6
CONTINUOUS
10
6.46856
20
-2.30698
11
6.45036
21
-2.3137
0
LINE
8
BLACK
6
CONTINUOUS
10
6.45036
20
-2.3137
11
6.43169
21
-2.31896
0
LINE
8
BLACK
6
CONTINUOUS
10
6.43169
20
-2.31896
11
6.41266
21
-2.32275
0
LINE
8
BLACK
6
CONTINUOUS
10
6.41266
20
-2.32275
11
6.3934
21
-2.32503
0
LINE
8
BLACK
6
CONTINUOUS
10
6.3934
20
-2.32503
11
6.37402
21
-2.32579
0
LINE
8
BLACK
6
CONTINUOUS
10
6.37402
20
-2.32579
11
6.35463
21
-2.32503
0
LINE
8
BLACK
6
CONTINUOUS
10
6.35463
20
-2.32503
11
6.33537
21
-2.32275
0
LINE
8
BLACK
6
CONTINUOUS
10
6.33537
20
-2.32275
11
6.31634
21
-2.31896
0
LINE
8
BLACK
6
CONTINUOUS
10
6.31634
20
-2.31896
11
6.29767
21
-2.3137
0
LINE
8
BLACK
6
CONTINUOUS
10
6.29767
20
-2.3137
11
6.27947
21
-2.30698
0
LINE
8
BLACK
6
CONTINUOUS
10
6.27947
20
-2.30698
11
6.26186
21
-2.29886
0
LINE
8
BLACK
6
CONTINUOUS
10
6.26186
20
-2.29886
11
6.24493
21
-2.28938
0
LINE
8
BLACK
6
CONTINUOUS
10
6.24493
20
-2.28938
11
6.22881
21
-2.27861
0
LINE
8
BLACK
6
CONTINUOUS
10
6.22881
20
-2.27861
11
6.21357
21
-2.2666
0
LINE
8
BLACK
6
CONTINUOUS
10
6.21357
20
-2.2666
11
6.19933
21
-2.25343
0
LINE
8
BLACK
6
CONTINUOUS
10
6.19933
20
-2.25343
11
6.18616
21
-2.23918
0
LINE
8
BLACK
6
CONTINUOUS
10
6.18616
20
-2.23918
11
6.17415
21
-2.22395
0
LINE
8
BLACK
6
CONTINUOUS
10
6.17415
20
-2.22395
11
6.16337
21
-2.20782
0
LINE
8
BLACK
6
CONTINUOUS
10
6.16337
20
-2.20782
11
6.1539
21
-2.1909
0
LINE
8
BLACK
6
CONTINUOUS
10
6.1539
20
-2.1909
11
6.14577
21
-2.17328
0
LINE
8
BLACK
6
CONTINUOUS
10
6.14577
20
-2.17328
11
6.13906
21
-2.15508
0
LINE
8
BLACK
6
CONTINUOUS
10
6.13906
20
-2.15508
11
6.13379
21
-2.13641
0
LINE
8
BLACK
6
CONTINUOUS
10
6.13379
20
-2.13641
11
6.13001
21
-2.11739
0
LINE
8
BLACK
6
CONTINUOUS
10
6.13001
20
-2.11739
11
6.12773
21
-2.09812
0
LINE
8
BLACK
6
CONTINUOUS
10
6.12773
20
-2.09812
11
6.12697
21
-2.07874
0
LINE
8
BLACK
6
CONTINUOUS
10
6.12874
20
-2.07874
11
6.12953
21
-2.09848
0
LINE
8
BLACK
6
CONTINUOUS
10
6.12953
20
-2.09848
11
6.13191
21
-2.11809
0
LINE
8
BLACK
6
CONTINUOUS
10
6.13191
20
-2.11809
11
6.13587
21
-2.13744
0
LINE
8
BLACK
6
CONTINUOUS
10
6.13587
20
-2.13744
11
6.14136
21
-2.15641
0
LINE
8
BLACK
6
CONTINUOUS
10
6.14136
20
-2.15641
11
6.14837
21
-2.17488
0
LINE
8
BLACK
6
CONTINUOUS
10
6.14837
20
-2.17488
11
6.15683
21
-2.19273
0
LINE
8
BLACK
6
CONTINUOUS
10
6.15683
20
-2.19273
11
6.16671
21
-2.20983
0
LINE
8
BLACK
6
CONTINUOUS
10
6.16671
20
-2.20983
11
6.17793
21
-2.22609
0
LINE
8
BLACK
6
CONTINUOUS
10
6.17793
20
-2.22609
11
6.19042
21
-2.24139
0
LINE
8
BLACK
6
CONTINUOUS
10
6.19042
20
-2.24139
11
6.20411
21
-2.25563
0
LINE
8
BLACK
6
CONTINUOUS
10
6.20411
20
-2.25563
11
6.21889
21
-2.26873
0
LINE
8
BLACK
6
CONTINUOUS
10
6.21889
20
-2.26873
11
6.23468
21
-2.2806
0
LINE
8
BLACK
6
CONTINUOUS
10
6.23468
20
-2.2806
11
6.25138
21
-2.29116
0
LINE
8
BLACK
6
CONTINUOUS
10
6.25138
20
-2.29116
11
6.26887
21
-2.30034
0
LINE
8
BLACK
6
CONTINUOUS
10
6.26887
20
-2.30034
11
6.28704
21
-2.30808
0
LINE
8
BLACK
6
CONTINUOUS
10
6.28704
20
-2.30808
11
6.30578
21
-2.31433
0
LINE
8
BLACK
6
CONTINUOUS
10
6.30578
20
-2.31433
11
6.32495
21
-2.31906
0
LINE
8
BLACK
6
CONTINUOUS
10
6.32495
20
-2.31906
11
6.34445
21
-2.32223
0
LINE
8
BLACK
6
CONTINUOUS
10
6.34445
20
-2.32223
11
6.36414
21
-2.32382
0
LINE
8
BLACK
6
CONTINUOUS
10
6.36414
20
-2.32382
11
6.38389
21
-2.32382
0
LINE
8
BLACK
6
CONTINUOUS
10
6.38389
20
-2.32382
11
6.40358
21
-2.32223
0
LINE
8
BLACK
6
CONTINUOUS
10
6.40358
20
-2.32223
11
6.42308
21
-2.31906
0
LINE
8
BLACK
6
CONTINUOUS
10
6.42308
20
-2.31906
11
6.44226
21
-2.31433
0
LINE
8
BLACK
6
CONTINUOUS
10
6.44226
20
-2.31433
11
6.46099
21
-2.30808
0
LINE
8
BLACK
6
CONTINUOUS
10
6.46099
20
-2.30808
11
6.47916
21
-2.30034
0
LINE
8
BLACK
6
CONTINUOUS
10
6.47916
20
-2.30034
11
6.49665
21
-2.29116
0
LINE
8
BLACK
6
CONTINUOUS
10
6.49665
20
-2.29116
11
6.51335
21
-2.2806
0
LINE
8
BLACK
6
CONTINUOUS
10
6.51335
20
-2.2806
11
6.52914
21
-2.26873
0
LINE
8
BLACK
6
CONTINUOUS
10
6.52914
20
-2.26873
11
6.54393
21
-2.25563
0
LINE
8
BLACK
6
CONTINUOUS
10
6.54393
20
-2.25563
11
6.55761
21
-2.24139
0
LINE
8
BLACK
6
CONTINUOUS
10
6.55761
20
-2.24139
11
6.5701
21
-2.22609
0
LINE
8
BLACK
6
CONTINUOUS
10
6.5701
20
-2.22609
11
6.58132
21
-2.20983
0
LINE
8
BLACK
6
CONTINUOUS
10
6.58132
20
-2.20983
11
6.5912
21
-2.19273
0
LINE
8
BLACK
6
CONTINUOUS
10
6.5912
20
-2.19273
11
6.59967
21
-2.17488
0
LINE
8
BLACK
6
CONTINUOUS
10
6.59967
20
-2.17488
11
6.60667
21
-2.15641
0
LINE
8
BLACK
6
CONTINUOUS
10
6.60667
20
-2.15641
11
6.61217
21
-2.13744
0
LINE
8
BLACK
6
CONTINUOUS
10
6.61217
20
-2.13744
11
6.61612
21
-2.11809
0
LINE
8
BLACK
6
CONTINUOUS
10
6.61612
20
-2.11809
11
6.6185
21
-2.09848
0
LINE
8
BLACK
6
CONTINUOUS
10
6.6185
20
-2.09848
11
6.61929
21
-2.07874
0
LINE
8
BLACK
6
CONTINUOUS
10
6.61929
20
-2.07874
11
6.6185
21
-2.059
0
LINE
8
BLACK
6
CONTINUOUS
10
6.6185
20
-2.059
11
6.61612
21
-2.03939
0
LINE
8
BLACK
6
CONTINUOUS
10
6.61612
20
-2.03939
11
6.61217
21
-2.02004
0
LINE
8
BLACK
6
CONTINUOUS
10
6.61217
20
-2.02004
11
6.60667
21
-2.00107
0
LINE
8
BLACK
6
CONTINUOUS
10
6.60667
20
-2.00107
11
6.59967
21
-1.9826
0
LINE
8
BLACK
6
CONTINUOUS
10
6.59967
20
-1.9826
11
6.5912
21
-1.96475
0
LINE
8
BLACK
6
CONTINUOUS
10
6.5912
20
-1.96475
11
6.58132
21
-1.94765
0
LINE
8
BLACK
6
CONTINUOUS
10
6.58132
20
-1.94765
11
6.5701
21
-1.93139
0
LINE
8
BLACK
6
CONTINUOUS
10
6.5701
20
-1.93139
11
6.55761
21
-1.91609
0
LINE
8
BLACK
6
CONTINUOUS
10
6.55761
20
-1.91609
11
6.54393
21
-1.90185
0
LINE
8
BLACK
6
CONTINUOUS
10
6.54393
20
-1.90185
11
6.52914
21
-1.88875
0
LINE
8
BLACK
6
CONTINUOUS
10
6.52914
20
-1.88875
11
6.51335
21
-1.87688
0
LINE
8
BLACK
6
CONTINUOUS
10
6.51335
20
-1.87688
11
6.49665
21
-1.86632
0
LINE
8
BLACK
6
CONTINUOUS
10
6.49665
20
-1.86632
11
6.47916
21
-1.85714
0
LINE
8
BLACK
6
CONTINUOUS
10
6.47916
20
-1.85714
11
6.46099
21
-1.8494
0
LINE
8
BLACK
6
CONTINUOUS
10
6.46099
20
-1.8494
11
6.44226
21
-1.84315
0
LINE
8
BLACK
6
CONTINUOUS
10
6.44226
20
-1.84315
11
6.42308
21
-1.83842
0
LINE
8
BLACK
6
CONTINUOUS
10
6.42308
20
-1.83842
11
6.40358
21
-1.83525
0
LINE
8
BLACK
6
CONTINUOUS
10
6.40358
20
-1.83525
11
6.38389
21
-1.83366
0
LINE
8
BLACK
6
CONTINUOUS
10
6.38389
20
-1.83366
11
6.36414
21
-1.83366
0
LINE
8
BLACK
6
CONTINUOUS
10
6.36414
20
-1.83366
11
6.34445
21
-1.83525
0
LINE
8
BLACK
6
CONTINUOUS
10
6.34445
20
-1.83525
11
6.32495
21
-1.83842
0
LINE
8
BLACK
6
CONTINUOUS
10
6.32495
20
-1.83842
11
6.30578
21
-1.84315
0
LINE
8
BLACK
6
CONTINUOUS
10
6.30578
20
-1.84315
11
6.28704
21
-1.8494
0
LINE
8
BLACK
6
CONTINUOUS
10
6.28704
20
-1.8494
11
6.26887
21
-1.85714
0
LINE
8
BLACK
6
CONTINUOUS
10
6.26887
20
-1.85714
11
6.25138
21
-1.86632
0
LINE
8
BLACK
6
CONTINUOUS
10
6.25138
20
-1.86632
11
6.23468
21
-1.87688
0
LINE
8
BLACK
6
CONTINUOUS
10
6.23468
20
-1.87688
11
6.21889
21
-1.88875
0
LINE
8
BLACK
6
CONTINUOUS
10
6.21889
20
-1.88875
11
6.20411
21
-1.90185
0
LINE
8
BLACK
6
CONTINUOUS
10
6.20411
20
-1.90185
11
6.19042
21
-1.91609
0
LINE
8
BLACK
6
CONTINUOUS
10
6.19042
20
-1.91609
11
6.17793
21
-1.93139
0
LINE
8
BLACK
6
CONTINUOUS
10
6.17793
20
-1.93139
11
6.16671
21
-1.94765
0
LINE
8
BLACK
6
CONTINUOUS
10
6.16671
20
-1.94765
11
6.15683
21
-1.96475
0
LINE
8
BLACK
6
CONTINUOUS
10
6.15683
20
-1.96475
11
6.14837
21
-1.9826
0
LINE
8
BLACK
6
CONTINUOUS
10
6.14837
20
-1.9826
11
6.14136
21
-2.00107
0
LINE
8
BLACK
6
CONTINUOUS
10
6.14136
20
-2.00107
11
6.13587
21
-2.02004
0
LINE
8
BLACK
6
CONTINUOUS
10
6.13587
20
-2.02004
11
6.13191
21
-2.03939
0
LINE
8
BLACK
6
CONTINUOUS
10
6.13191
20
-2.03939
11
6.12953
21
-2.059
0
LINE
8
BLACK
6
CONTINUOUS
10
6.12953
20
-2.059
11
6.12874
21
-2.07874
0
LINE
8
BLACK
6
CONTINUOUS
10
5.20866
20
-1.80098
11
5.20936
21
-1.80127
0
LINE
8
BLACK
6
CONTINUOUS
10
5.20936
20
-1.80127
11
5.20965
21
-1.80197
0
LINE
8
BLACK
6
CONTINUOUS
10
5.20965
20
-1.80197
11
5.20965
21
-2.28465
0
LINE
8
BLACK
6
CONTINUOUS
10
5.20965
20
-2.28465
11
5.20936
21
-2.28534
0
LINE
8
BLACK
6
CONTINUOUS
10
5.20936
20
-2.28534
11
5.20866
21
-2.28563
0
LINE
8
BLACK
6
CONTINUOUS
10
5.20866
20
-2.28563
11
5.08268
21
-2.28563
0
LINE
8
BLACK
6
CONTINUOUS
10
5.08268
20
-2.28563
11
5.08198
21
-2.28534
0
LINE
8
BLACK
6
CONTINUOUS
10
5.08198
20
-2.28534
11
5.08169
21
-2.28465
0
LINE
8
BLACK
6
CONTINUOUS
10
5.08169
20
-2.28465
11
5.08169
21
-1.80197
0
LINE
8
BLACK
6
CONTINUOUS
10
5.08169
20
-1.80197
11
5.08198
21
-1.80127
0
LINE
8
BLACK
6
CONTINUOUS
10
5.08198
20
-1.80127
11
5.08268
21
-1.80098
0
LINE
8
BLACK
6
CONTINUOUS
10
5.08268
20
-1.80098
11
5.20866
21
-1.80098
0
LINE
8
BLACK
6
CONTINUOUS
10
5.08366
20
-1.80295
11
5.08366
21
-2.28366
0
LINE
8
BLACK
6
CONTINUOUS
10
5.08366
20
-2.28366
11
5.20768
21
-2.28366
0
LINE
8
BLACK
6
CONTINUOUS
10
5.20768
20
-2.28366
11
5.20768
21
-1.80295
0
LINE
8
BLACK
6
CONTINUOUS
10
5.20768
20
-1.80295
11
5.08366
21
-1.80295
0
LINE
8
BLACK
6
CONTINUOUS
10
2.99508
20
-1.64843
11
2.99577
21
-1.64871
0
LINE
8
BLACK
6
CONTINUOUS
10
2.99577
20
-1.64871
11
2.99606
21
-1.64941
0
LINE
8
BLACK
6
CONTINUOUS
10
2.99606
20
-1.64941
11
2.99606
21
-2.13209
0
LINE
8
BLACK
6
CONTINUOUS
10
2.99606
20
-2.13209
11
2.99577
21
-2.13278
0
LINE
8
BLACK
6
CONTINUOUS
10
2.99577
20
-2.13278
11
2.99508
21
-2.13307
0
LINE
8
BLACK
6
CONTINUOUS
10
2.99508
20
-2.13307
11
2.87697
21
-2.13307
0
LINE
8
BLACK
6
CONTINUOUS
10
2.87697
20
-2.13307
11
2.87627
21
-2.13278
0
LINE
8
BLACK
6
CONTINUOUS
10
2.87627
20
-2.13278
11
2.87598
21
-2.13209
0
LINE
8
BLACK
6
CONTINUOUS
10
2.87598
20
-2.13209
11
2.87598
21
-1.64941
0
LINE
8
BLACK
6
CONTINUOUS
10
2.87598
20
-1.64941
11
2.87627
21
-1.64871
0
LINE
8
BLACK
6
CONTINUOUS
10
2.87627
20
-1.64871
11
2.87697
21
-1.64843
0
LINE
8
BLACK
6
CONTINUOUS
10
2.87697
20
-1.64843
11
2.99508
21
-1.64843
0
LINE
8
BLACK
6
CONTINUOUS
10
2.87795
20
-1.65039
11
2.87795
21
-2.1311
0
LINE
8
BLACK
6
CONTINUOUS
10
2.87795
20
-2.1311
11
2.99409
21
-2.1311
0
LINE
8
BLACK
6
CONTINUOUS
10
2.99409
20
-2.1311
11
2.99409
21
-1.65039
0
LINE
8
BLACK
6
CONTINUOUS
10
2.99409
20
-1.65039
11
2.87795
21
-1.65039
0
LINE
8
BLACK
6
CONTINUOUS
10
3.73228
20
-2.02067
11
3.73298
21
-2.02096
0
LINE
8
BLACK
6
CONTINUOUS
10
3.73298
20
-2.02096
11
3.73327
21
-2.02165
0
LINE
8
BLACK
6
CONTINUOUS
10
3.73327
20
-2.02165
11
3.73327
21
-2.10433
0
LINE
8
BLACK
6
CONTINUOUS
10
3.73327
20
-2.10433
11
3.73298
21
-2.10503
0
LINE
8
BLACK
6
CONTINUOUS
10
3.73298
20
-2.10503
11
3.73228
21
-2.10531
0
LINE
8
BLACK
6
CONTINUOUS
10
3.73228
20
-2.10531
11
3.55118
21
-2.10531
0
LINE
8
BLACK
6
CONTINUOUS
10
3.55118
20
-2.10531
11
3.55049
21
-2.10503
0
LINE
8
BLACK
6
CONTINUOUS
10
3.55049
20
-2.10503
11
3.5502
21
-2.10433
0
LINE
8
BLACK
6
CONTINUOUS
10
3.5502
20
-2.10433
11
3.5502
21
-2.02165
0
LINE
8
BLACK
6
CONTINUOUS
10
3.5502
20
-2.02165
11
3.55049
21
-2.02096
0
LINE
8
BLACK
6
CONTINUOUS
10
3.55049
20
-2.02096
11
3.55118
21
-2.02067
0
LINE
8
BLACK
6
CONTINUOUS
10
3.55118
20
-2.02067
11
3.73228
21
-2.02067
0
LINE
8
BLACK
6
CONTINUOUS
10
3.55217
20
-2.02264
11
3.55217
21
-2.10335
0
LINE
8
BLACK
6
CONTINUOUS
10
3.55217
20
-2.10335
11
3.7313
21
-2.10335
0
LINE
8
BLACK
6
CONTINUOUS
10
3.7313
20
-2.10335
11
3.7313
21
-2.02264
0
LINE
8
BLACK
6
CONTINUOUS
10
3.7313
20
-2.02264
11
3.55217
21
-2.02264
0
LINE
8
BLACK
6
CONTINUOUS
10
4.75394
20
-1.76083
11
4.75463
21
-1.76112
0
LINE
8
BLACK
6
CONTINUOUS
10
4.75463
20
-1.76112
11
4.75492
21
-1.76181
0
LINE
8
BLACK
6
CONTINUOUS
10
4.75492
20
-1.76181
11
4.75492
21
-2.01772
0
LINE
8
BLACK
6
CONTINUOUS
10
4.75492
20
-2.01772
11
4.75463
21
-2.01841
0
LINE
8
BLACK
6
CONTINUOUS
10
4.75463
20
-2.01841
11
4.75394
21
-2.0187
0
LINE
8
BLACK
6
CONTINUOUS
10
4.75394
20
-2.0187
11
4.71358
21
-2.0187
0
LINE
8
BLACK
6
CONTINUOUS
10
4.71358
20
-2.0187
11
4.71358
21
-2.10039
0
LINE
8
BLACK
6
CONTINUOUS
10
4.71358
20
-2.10039
11
4.71329
21
-2.10109
0
LINE
8
BLACK
6
CONTINUOUS
10
4.71329
20
-2.10109
11
4.7126
21
-2.10138
0
LINE
8
BLACK
6
CONTINUOUS
10
4.7126
20
-2.10138
11
4.5315
21
-2.10138
0
LINE
8
BLACK
6
CONTINUOUS
10
4.5315
20
-2.10138
11
4.5308
21
-2.10109
0
LINE
8
BLACK
6
CONTINUOUS
10
4.5308
20
-2.10109
11
4.53051
21
-2.10039
0
LINE
8
BLACK
6
CONTINUOUS
10
4.53051
20
-2.10039
11
4.53051
21
-2.0187
0
LINE
8
BLACK
6
CONTINUOUS
10
4.53051
20
-2.0187
11
4.49803
21
-2.0187
0
LINE
8
BLACK
6
CONTINUOUS
10
4.49803
20
-2.0187
11
4.49734
21
-2.01841
0
LINE
8
BLACK
6
CONTINUOUS
10
4.49734
20
-2.01841
11
4.49705
21
-2.01772
0
LINE
8
BLACK
6
CONTINUOUS
10
4.49705
20
-2.01772
11
4.49705
21
-1.76181
0
LINE
8
BLACK
6
CONTINUOUS
10
4.49705
20
-1.76181
11
4.49734
21
-1.76112
0
LINE
8
BLACK
6
CONTINUOUS
10
4.49734
20
-1.76112
11
4.49803
21
-1.76083
0
LINE
8
BLACK
6
CONTINUOUS
10
4.49803
20
-1.76083
11
4.75394
21
-1.76083
0
LINE
8
BLACK
6
CONTINUOUS
10
4.53248
20
-2.0187
11
4.53248
21
-2.09941
0
LINE
8
BLACK
6
CONTINUOUS
10
4.53248
20
-2.09941
11
4.71161
21
-2.09941
0
LINE
8
BLACK
6
CONTINUOUS
10
4.71161
20
-2.09941
11
4.71161
21
-2.0187
0
LINE
8
BLACK
6
CONTINUOUS
10
4.71161
20
-2.0187
11
4.53248
21
-2.0187
0
LINE
8
BLACK
6
CONTINUOUS
10
4.49902
20
-1.7628
11
4.49902
21
-2.01673
0
LINE
8
BLACK
6
CONTINUOUS
10
4.49902
20
-2.01673
11
4.75295
21
-2.01673
0
LINE
8
BLACK
6
CONTINUOUS
10
4.75295
20
-2.01673
11
4.75295
21
-1.7628
0
LINE
8
BLACK
6
CONTINUOUS
10
4.75295
20
-1.7628
11
4.49902
21
-1.7628
0
LINE
8
BLACK
6
CONTINUOUS
10
7.25984
20
-0.640748
11
7.26054
21
-0.641036
0
LINE
8
BLACK
6
CONTINUOUS
10
7.26054
20
-0.641036
11
7.26083
21
-0.641732
0
LINE
8
BLACK
6
CONTINUOUS
10
7.26083
20
-0.641732
11
7.26083
21
-1.25098
0
LINE
8
BLACK
6
CONTINUOUS
10
7.26083
20
-1.25098
11
7.70925
21
-1.25098
0
LINE
8
BLACK
6
CONTINUOUS
10
7.70925
20
-1.25098
11
7.70995
21
-1.25127
0
LINE
8
BLACK
6
CONTINUOUS
10
7.70995
20
-1.25127
11
7.71024
21
-1.25197
0
LINE
8
BLACK
6
CONTINUOUS
10
7.71024
20
-1.25197
11
7.71024
21
-2.04843
0
LINE
8
BLACK
6
CONTINUOUS
10
7.71024
20
-2.04843
11
7.70995
21
-2.04912
0
LINE
8
BLACK
6
CONTINUOUS
10
7.70995
20
-2.04912
11
7.70925
21
-2.04941
0
LINE
8
BLACK
6
CONTINUOUS
10
7.70925
20
-2.04941
11
6.62539
21
-2.04941
0
LINE
8
BLACK
6
CONTINUOUS
10
6.62539
20
-2.04941
11
6.6247
21
-2.04912
0
LINE
8
BLACK
6
CONTINUOUS
10
6.6247
20
-2.04912
11
6.62441
21
-2.04843
0
LINE
8
BLACK
6
CONTINUOUS
10
6.62441
20
-2.04843
11
6.62441
21
-1.25197
0
LINE
8
BLACK
6
CONTINUOUS
10
6.62441
20
-1.25197
11
6.6247
21
-1.25127
0
LINE
8
BLACK
6
CONTINUOUS
10
6.6247
20
-1.25127
11
6.62539
21
-1.25098
0
LINE
8
BLACK
6
CONTINUOUS
10
6.62539
20
-1.25098
11
6.86516
21
-1.25098
0
LINE
8
BLACK
6
CONTINUOUS
10
6.86516
20
-1.25098
11
6.86516
21
-1.17815
0
LINE
8
BLACK
6
CONTINUOUS
10
6.86516
20
-1.17815
11
6.8189
21
-1.17815
0
LINE
8
BLACK
6
CONTINUOUS
10
6.8189
20
-1.17815
11
6.8182
21
-1.17786
0
LINE
8
BLACK
6
CONTINUOUS
10
6.8182
20
-1.17786
11
6.81791
21
-1.17717
0
LINE
8
BLACK
6
CONTINUOUS
10
6.81791
20
-1.17717
11
6.81791
21
-0.980315
0
LINE
8
BLACK
6
CONTINUOUS
10
6.81791
20
-0.980315
11
6.8182
21
-0.979619
0
LINE
8
BLACK
6
CONTINUOUS
10
6.8182
20
-0.979619
11
6.8189
21
-0.979331
0
LINE
8
BLACK
6
CONTINUOUS
10
6.8189
20
-0.979331
11
6.86516
21
-0.979331
0
LINE
8
BLACK
6
CONTINUOUS
10
6.86516
20
-0.979331
11
6.86516
21
-0.641732
0
LINE
8
BLACK
6
CONTINUOUS
10
6.86516
20
-0.641732
11
6.86545
21
-0.641036
0
LINE
8
BLACK
6
CONTINUOUS
10
6.86545
20
-0.641036
11
6.86614
21
-0.640748
0
LINE
8
BLACK
6
CONTINUOUS
10
6.86614
20
-0.640748
11
7.25984
21
-0.640748
0
LINE
8
BLACK
6
CONTINUOUS
10
7.25984
20
-1.25295
11
6.86614
21
-1.25295
0
LINE
8
BLACK
6
CONTINUOUS
10
6.86614
20
-1.25295
11
6.62638
21
-1.25295
0
LINE
8
BLACK
6
CONTINUOUS
10
6.62638
20
-1.25295
11
6.62638
21
-2.04744
0
LINE
8
BLACK
6
CONTINUOUS
10
6.62638
20
-2.04744
11
7.70827
21
-2.04744
0
LINE
8
BLACK
6
CONTINUOUS
10
7.70827
20
-2.04744
11
7.70827
21
-1.25295
0
LINE
8
BLACK
6
CONTINUOUS
10
7.70827
20
-1.25295
11
7.25984
21
-1.25295
0
LINE
8
BLACK
6
CONTINUOUS
10
6.86713
20
-0.642717
11
6.86713
21
-0.980315
0
LINE
8
BLACK
6
CONTINUOUS
10
6.86713
20
-0.980315
11
6.86684
21
-0.981011
0
LINE
8
BLACK
6
CONTINUOUS
10
6.86684
20
-0.981011
11
6.86614
21
-0.981299
0
LINE
8
BLACK
6
CONTINUOUS
10
6.86614
20
-0.981299
11
6.81988
21
-0.981299
0
LINE
8
BLACK
6
CONTINUOUS
10
6.81988
20
-0.981299
11
6.81988
21
-1.17618
0
LINE
8
BLACK
6
CONTINUOUS
10
6.81988
20
-1.17618
11
6.86614
21
-1.17618
0
LINE
8
BLACK
6
CONTINUOUS
10
6.86614
20
-1.17618
11
6.86684
21
-1.17647
0
LINE
8
BLACK
6
CONTINUOUS
10
6.86684
20
-1.17647
11
6.86713
21
-1.17717
0
LINE
8
BLACK
6
CONTINUOUS
10
6.86713
20
-1.17717
11
6.86713
21
-1.25098
0
LINE
8
BLACK
6
CONTINUOUS
10
6.86713
20
-1.25098
11
7.25886
21
-1.25098
0
LINE
8
BLACK
6
CONTINUOUS
10
7.25886
20
-1.25098
11
7.25886
21
-0.642717
0
LINE
8
BLACK
6
CONTINUOUS
10
7.25886
20
-0.642717
11
6.86713
21
-0.642717
0
LINE
8
BLACK
6
CONTINUOUS
10
3.00197
20
-1.03445
11
3.00266
21
-1.03474
0
LINE
8
BLACK
6
CONTINUOUS
10
3.00266
20
-1.03474
11
3.00295
21
-1.03543
0
LINE
8
BLACK
6
CONTINUOUS
10
3.00295
20
-1.03543
11
3.00295
21
-1.64173
0
LINE
8
BLACK
6
CONTINUOUS
10
3.00295
20
-1.64173
11
3.00266
21
-1.64243
0
LINE
8
BLACK
6
CONTINUOUS
10
3.00266
20
-1.64243
11
3.00197
21
-1.64272
0
LINE
8
BLACK
6
CONTINUOUS
10
3.00197
20
-1.64272
11
2.4065
21
-1.64272
0
LINE
8
BLACK
6
CONTINUOUS
10
2.4065
20
-1.64272
11
2.4065
21
-2.03366
0
LINE
8
BLACK
6
CONTINUOUS
10
2.4065
20
-2.03366
11
2.40621
21
-2.03436
0
LINE
8
BLACK
6
CONTINUOUS
10
2.40621
20
-2.03436
11
2.40551
21
-2.03465
0
LINE
8
BLACK
6
CONTINUOUS
10
2.40551
20
-2.03465
11
2.27953
21
-2.03465
0
LINE
8
BLACK
6
CONTINUOUS
10
2.27953
20
-2.03465
11
2.27883
21
-2.03436
0
LINE
8
BLACK
6
CONTINUOUS
10
2.27883
20
-2.03436
11
2.27854
21
-2.03366
0
LINE
8
BLACK
6
CONTINUOUS
10
2.27854
20
-2.03366
11
2.27854
21
-1.55098
0
LINE
8
BLACK
6
CONTINUOUS
10
2.27854
20
-1.55098
11
2.27883
21
-1.55029
0
LINE
8
BLACK
6
CONTINUOUS
10
2.27883
20
-1.55029
11
2.27953
21
-1.55
0
LINE
8
BLACK
6
CONTINUOUS
10
2.27953
20
-1.55
11
2.31201
21
-1.55
0
LINE
8
BLACK
6
CONTINUOUS
10
2.31201
20
-1.55
11
2.31201
21
-1.03543
0
LINE
8
BLACK
6
CONTINUOUS
10
2.31201
20
-1.03543
11
2.3123
21
-1.03474
0
LINE
8
BLACK
6
CONTINUOUS
10
2.3123
20
-1.03474
11
2.31299
21
-1.03445
0
LINE
8
BLACK
6
CONTINUOUS
10
2.31299
20
-1.03445
11
3.00197
21
-1.03445
0
LINE
8
BLACK
6
CONTINUOUS
10
2.28051
20
-1.55197
11
2.28051
21
-2.03268
0
LINE
8
BLACK
6
CONTINUOUS
10
2.28051
20
-2.03268
11
2.40453
21
-2.03268
0
LINE
8
BLACK
6
CONTINUOUS
10
2.40453
20
-2.03268
11
2.40453
21
-1.64272
0
LINE
8
BLACK
6
CONTINUOUS
10
2.40453
20
-1.64272
11
2.31299
21
-1.64272
0
LINE
8
BLACK
6
CONTINUOUS
10
2.31299
20
-1.64272
11
2.3123
21
-1.64243
0
LINE
8
BLACK
6
CONTINUOUS
10
2.3123
20
-1.64243
11
2.31201
21
-1.64173
0
LINE
8
BLACK
6
CONTINUOUS
10
2.31201
20
-1.64173
11
2.31201
21
-1.55197
0
LINE
8
BLACK
6
CONTINUOUS
10
2.31201
20
-1.55197
11
2.28051
21
-1.55197
0
LINE
8
BLACK
6
CONTINUOUS
10
2.31398
20
-1.55197
11
2.31398
21
-1.64075
0
LINE
8
BLACK
6
CONTINUOUS
10
2.31398
20
-1.64075
11
2.40453
21
-1.64075
0
LINE
8
BLACK
6
CONTINUOUS
10
2.40453
20
-1.64075
11
2.40453
21
-1.55197
0
LINE
8
BLACK
6
CONTINUOUS
10
2.40453
20
-1.55197
11
2.31398
21
-1.55197
0
LINE
8
BLACK
6
CONTINUOUS
10
2.31398
20
-1.03642
11
2.31398
21
-1.55
0
LINE
8
BLACK
6
CONTINUOUS
10
2.31398
20
-1.55
11
2.40551
21
-1.55
0
LINE
8
BLACK
6
CONTINUOUS
10
2.40551
20
-1.55
11
2.40621
21
-1.55029
0
LINE
8
BLACK
6
CONTINUOUS
10
2.40621
20
-1.55029
11
2.4065
21
-1.55098
0
LINE
8
BLACK
6
CONTINUOUS
10
2.4065
20
-1.55098
11
2.4065
21
-1.64075
0
LINE
8
BLACK
6
CONTINUOUS
10
2.4065
20
-1.64075
11
3.00098
21
-1.64075
0
LINE
8
BLACK
6
CONTINUOUS
10
3.00098
20
-1.64075
11
3.00098
21
-1.03642
0
LINE
8
BLACK
6
CONTINUOUS
10
3.00098
20
-1.03642
11
2.31398
21
-1.03642
0
LINE
8
BLACK
6
CONTINUOUS
10
5.73819
20
-1.76083
11
5.73888
21
-1.76112
0
LINE
8
BLACK
6
CONTINUOUS
10
5.73888
20
-1.76112
11
5.73917
21
-1.76181
0
LINE
8
BLACK
6
CONTINUOUS
10
5.73917
20
-1.76181
11
5.73917
21
-1.79626
0
LINE
8
BLACK
6
CONTINUOUS
10
5.73917
20
-1.79626
11
5.82087
21
-1.79626
0
LINE
8
BLACK
6
CONTINUOUS
10
5.82087
20
-1.79626
11
5.82156
21
-1.79655
0
LINE
8
BLACK
6
CONTINUOUS
10
5.82156
20
-1.79655
11
5.82185
21
-1.79724
0
LINE
8
BLACK
6
CONTINUOUS
10
5.82185
20
-1.79724
11
5.82185
21
-1.97835
0
LINE
8
BLACK
6
CONTINUOUS
10
5.82185
20
-1.97835
11
5.82156
21
-1.97904
0
LINE
8
BLACK
6
CONTINUOUS
10
5.82156
20
-1.97904
11
5.82087
21
-1.97933
0
LINE
8
BLACK
6
CONTINUOUS
10
5.82087
20
-1.97933
11
5.73917
21
-1.97933
0
LINE
8
BLACK
6
CONTINUOUS
10
5.73917
20
-1.97933
11
5.73917
21
-2.01772
0
LINE
8
BLACK
6
CONTINUOUS
10
5.73917
20
-2.01772
11
5.73888
21
-2.01841
0
LINE
8
BLACK
6
CONTINUOUS
10
5.73888
20
-2.01841
11
5.73819
21
-2.0187
0
LINE
8
BLACK
6
CONTINUOUS
10
5.73819
20
-2.0187
11
5.48228
21
-2.0187
0
LINE
8
BLACK
6
CONTINUOUS
10
5.48228
20
-2.0187
11
5.48159
21
-2.01841
0
LINE
8
BLACK
6
CONTINUOUS
10
5.48159
20
-2.01841
11
5.4813
21
-2.01772
0
LINE
8
BLACK
6
CONTINUOUS
10
5.4813
20
-2.01772
11
5.4813
21
-1.76181
0
LINE
8
BLACK
6
CONTINUOUS
10
5.4813
20
-1.76181
11
5.48159
21
-1.76112
0
LINE
8
BLACK
6
CONTINUOUS
10
5.48159
20
-1.76112
11
5.48228
21
-1.76083
0
LINE
8
BLACK
6
CONTINUOUS
10
5.48228
20
-1.76083
11
5.73819
21
-1.76083
0
LINE
8
BLACK
6
CONTINUOUS
10
5.48327
20
-1.7628
11
5.48327
21
-2.01673
0
LINE
8
BLACK
6
CONTINUOUS
10
5.48327
20
-2.01673
11
5.7372
21
-2.01673
0
LINE
8
BLACK
6
CONTINUOUS
10
5.7372
20
-2.01673
11
5.7372
21
-1.7628
0
LINE
8
BLACK
6
CONTINUOUS
10
5.7372
20
-1.7628
11
5.48327
21
-1.7628
0
LINE
8
BLACK
6
CONTINUOUS
10
5.73917
20
-1.79823
11
5.73917
21
-1.97736
0
LINE
8
BLACK
6
CONTINUOUS
10
5.73917
20
-1.97736
11
5.81988
21
-1.97736
0
LINE
8
BLACK
6
CONTINUOUS
10
5.81988
20
-1.97736
11
5.81988
21
-1.79823
0
LINE
8
BLACK
6
CONTINUOUS
10
5.81988
20
-1.79823
11
5.73917
21
-1.79823
0
LINE
8
BLACK
6
CONTINUOUS
10
3.76969
20
-1.76083
11
3.77038
21
-1.76112
0
LINE
8
BLACK
6
CONTINUOUS
10
3.77038
20
-1.76112
11
3.77067
21
-1.76181
0
LINE
8
BLACK
6
CONTINUOUS
10
3.77067
20
-1.76181
11
3.77067
21
-2.01772
0
LINE
8
BLACK
6
CONTINUOUS
10
3.77067
20
-2.01772
11
3.77038
21
-2.01841
0
LINE
8
BLACK
6
CONTINUOUS
10
3.77038
20
-2.01841
11
3.76969
21
-2.0187
0
LINE
8
BLACK
6
CONTINUOUS
10
3.76969
20
-2.0187
11
3.51378
21
-2.0187
0
LINE
8
BLACK
6
CONTINUOUS
10
3.51378
20
-2.0187
11
3.51308
21
-2.01841
0
LINE
8
BLACK
6
CONTINUOUS
10
3.51308
20
-2.01841
11
3.5128
21
-2.01772
0
LINE
8
BLACK
6
CONTINUOUS
10
3.5128
20
-2.01772
11
3.5128
21
-1.76181
0
LINE
8
BLACK
6
CONTINUOUS
10
3.5128
20
-1.76181
11
3.51308
21
-1.76112
0
LINE
8
BLACK
6
CONTINUOUS
10
3.51308
20
-1.76112
11
3.51378
21
-1.76083
0
LINE
8
BLACK
6
CONTINUOUS
10
3.51378
20
-1.76083
11
3.76969
21
-1.76083
0
LINE
8
BLACK
6
CONTINUOUS
10
3.51476
20
-1.7628
11
3.51476
21
-2.01673
0
LINE
8
BLACK
6
CONTINUOUS
10
3.51476
20
-2.01673
11
3.7687
21
-2.01673
0
LINE
8
BLACK
6
CONTINUOUS
10
3.7687
20
-2.01673
11
3.7687
21
-1.7628
0
LINE
8
BLACK
6
CONTINUOUS
10
3.7687
20
-1.7628
11
3.51476
21
-1.7628
0
LINE
8
BLACK
6
CONTINUOUS
10
2.84646
20
-1.67717
11
2.84715
21
-1.67745
0
LINE
8
BLACK
6
CONTINUOUS
10
2.84715
20
-1.67745
11
2.84744
21
-1.67815
0
LINE
8
BLACK
6
CONTINUOUS
10
2.84744
20
-1.67815
11
2.84744
21
-1.76083
0
LINE
8
BLACK
6
CONTINUOUS
10
2.84744
20
-1.76083
11
2.84715
21
-1.76152
0
LINE
8
BLACK
6
CONTINUOUS
10
2.84715
20
-1.76152
11
2.84646
21
-1.76181
0
LINE
8
BLACK
6
CONTINUOUS
10
2.84646
20
-1.76181
11
2.78642
21
-1.76181
0
LINE
8
BLACK
6
CONTINUOUS
10
2.78642
20
-1.76181
11
2.78642
21
-2.01772
0
LINE
8
BLACK
6
CONTINUOUS
10
2.78642
20
-2.01772
11
2.78613
21
-2.01841
0
LINE
8
BLACK
6
CONTINUOUS
10
2.78613
20
-2.01841
11
2.78543
21
-2.0187
0
LINE
8
BLACK
6
CONTINUOUS
10
2.78543
20
-2.0187
11
2.52953
21
-2.0187
0
LINE
8
BLACK
6
CONTINUOUS
10
2.52953
20
-2.0187
11
2.52883
21
-2.01841
0
LINE
8
BLACK
6
CONTINUOUS
10
2.52883
20
-2.01841
11
2.52854
21
-2.01772
0
LINE
8
BLACK
6
CONTINUOUS
10
2.52854
20
-2.01772
11
2.52854
21
-1.7628
0
LINE
8
BLACK
6
CONTINUOUS
10
2.52854
20
-1.7628
11
2.45768
21
-1.7628
0
LINE
8
BLACK
6
CONTINUOUS
10
2.45768
20
-1.7628
11
2.45698
21
-1.76251
0
LINE
8
BLACK
6
CONTINUOUS
10
2.45698
20
-1.76251
11
2.45669
21
-1.76181
0
LINE
8
BLACK
6
CONTINUOUS
10
2.45669
20
-1.76181
11
2.45669
21
-1.67913
0
LINE
8
BLACK
6
CONTINUOUS
10
2.45669
20
-1.67913
11
2.45698
21
-1.67844
0
LINE
8
BLACK
6
CONTINUOUS
10
2.45698
20
-1.67844
11
2.45768
21
-1.67815
0
LINE
8
BLACK
6
CONTINUOUS
10
2.45768
20
-1.67815
11
2.63878
21
-1.67815
0
LINE
8
BLACK
6
CONTINUOUS
10
2.63878
20
-1.67815
11
2.63948
21
-1.67844
0
LINE
8
BLACK
6
CONTINUOUS
10
2.63948
20
-1.67844
11
2.63976
21
-1.67913
0
LINE
8
BLACK
6
CONTINUOUS
10
2.63976
20
-1.67913
11
2.63976
21
-1.76083
0
LINE
8
BLACK
6
CONTINUOUS
10
2.63976
20
-1.76083
11
2.66437
21
-1.76083
0
LINE
8
BLACK
6
CONTINUOUS
10
2.66437
20
-1.76083
11
2.66437
21
-1.67815
0
LINE
8
BLACK
6
CONTINUOUS
10
2.66437
20
-1.67815
11
2.66466
21
-1.67745
0
LINE
8
BLACK
6
CONTINUOUS
10
2.66466
20
-1.67745
11
2.66535
21
-1.67717
0
LINE
8
BLACK
6
CONTINUOUS
10
2.66535
20
-1.67717
11
2.84646
21
-1.67717
0
LINE
8
BLACK
6
CONTINUOUS
10
2.63878
20
-1.7628
11
2.53051
21
-1.7628
0
LINE
8
BLACK
6
CONTINUOUS
10
2.53051
20
-1.7628
11
2.53051
21
-2.01673
0
LINE
8
BLACK
6
CONTINUOUS
10
2.53051
20
-2.01673
11
2.78445
21
-2.01673
0
LINE
8
BLACK
6
CONTINUOUS
10
2.78445
20
-2.01673
11
2.78445
21
-1.7628
0
LINE
8
BLACK
6
CONTINUOUS
10
2.78445
20
-1.7628
11
2.63878
21
-1.7628
0
LINE
8
BLACK
6
CONTINUOUS
10
2.45866
20
-1.68012
11
2.45866
21
-1.76083
0
LINE
8
BLACK
6
CONTINUOUS
10
2.45866
20
-1.76083
11
2.6378
21
-1.76083
0
LINE
8
BLACK
6
CONTINUOUS
10
2.6378
20
-1.76083
11
2.6378
21
-1.68012
0
LINE
8
BLACK
6
CONTINUOUS
10
2.6378
20
-1.68012
11
2.45866
21
-1.68012
0
LINE
8
BLACK
6
CONTINUOUS
10
2.66634
20
-1.67913
11
2.66634
21
-1.75984
0
LINE
8
BLACK
6
CONTINUOUS
10
2.66634
20
-1.75984
11
2.84547
21
-1.75984
0
LINE
8
BLACK
6
CONTINUOUS
10
2.84547
20
-1.75984
11
2.84547
21
-1.67913
0
LINE
8
BLACK
6
CONTINUOUS
10
2.84547
20
-1.67913
11
2.66634
21
-1.67913
0
LINE
8
BLACK
6
CONTINUOUS
10
6.18336
20
-1.47638
11
6.18415
21
-1.45828
0
LINE
8
BLACK
6
CONTINUOUS
10
6.18415
20
-1.45828
11
6.18651
21
-1.44032
0
LINE
8
BLACK
6
CONTINUOUS
10
6.18651
20
-1.44032
11
6.19044
21
-1.42263
0
LINE
8
BLACK
6
CONTINUOUS
10
6.19044
20
-1.42263
11
6.19588
21
-1.40535
0
LINE
8
BLACK
6
CONTINUOUS
10
6.19588
20
-1.40535
11
6.20282
21
-1.38861
0
LINE
8
BLACK
6
CONTINUOUS
10
6.20282
20
-1.38861
11
6.21118
21
-1.37254
0
LINE
8
BLACK
6
CONTINUOUS
10
6.21118
20
-1.37254
11
6.22092
21
-1.35726
0
LINE
8
BLACK
6
CONTINUOUS
10
6.22092
20
-1.35726
11
6.23195
21
-1.34289
0
LINE
8
BLACK
6
CONTINUOUS
10
6.23195
20
-1.34289
11
6.24419
21
-1.32953
0
LINE
8
BLACK
6
CONTINUOUS
10
6.24419
20
-1.32953
11
6.25754
21
-1.31729
0
LINE
8
BLACK
6
CONTINUOUS
10
6.25754
20
-1.31729
11
6.27192
21
-1.30626
0
LINE
8
BLACK
6
CONTINUOUS
10
6.27192
20
-1.30626
11
6.2872
21
-1.29652
0
LINE
8
BLACK
6
CONTINUOUS
10
6.2872
20
-1.29652
11
6.30327
21
-1.28816
0
LINE
8
BLACK
6
CONTINUOUS
10
6.30327
20
-1.28816
11
6.32001
21
-1.28123
0
LINE
8
BLACK
6
CONTINUOUS
10
6.32001
20
-1.28123
11
6.33729
21
-1.27578
0
LINE
8
BLACK
6
CONTINUOUS
10
6.33729
20
-1.27578
11
6.35497
21
-1.27186
0
LINE
8
BLACK
6
CONTINUOUS
10
6.35497
20
-1.27186
11
6.37294
21
-1.26949
0
LINE
8
BLACK
6
CONTINUOUS
10
6.37294
20
-1.26949
11
6.39104
21
-1.2687
0
LINE
8
BLACK
6
CONTINUOUS
10
6.39104
20
-1.2687
11
6.40914
21
-1.26949
0
LINE
8
BLACK
6
CONTINUOUS
10
6.40914
20
-1.26949
11
6.4271
21
-1.27186
0
LINE
8
BLACK
6
CONTINUOUS
10
6.4271
20
-1.27186
11
6.44479
21
-1.27578
0
LINE
8
BLACK
6
CONTINUOUS
10
6.44479
20
-1.27578
11
6.46207
21
-1.28123
0
LINE
8
BLACK
6
CONTINUOUS
10
6.46207
20
-1.28123
11
6.4788
21
-1.28816
0
LINE
8
BLACK
6
CONTINUOUS
10
6.4788
20
-1.28816
11
6.49487
21
-1.29652
0
LINE
8
BLACK
6
CONTINUOUS
10
6.49487
20
-1.29652
11
6.51016
21
-1.30626
0
LINE
8
BLACK
6
CONTINUOUS
10
6.51016
20
-1.30626
11
6.52453
21
-1.31729
0
LINE
8
BLACK
6
CONTINUOUS
10
6.52453
20
-1.31729
11
6.53789
21
-1.32953
0
LINE
8
BLACK
6
CONTINUOUS
10
6.53789
20
-1.32953
11
6.55013
21
-1.34289
0
LINE
8
BLACK
6
CONTINUOUS
10
6.55013
20
-1.34289
11
6.56116
21
-1.35726
0
LINE
8
BLACK
6
CONTINUOUS
10
6.56116
20
-1.35726
11
6.57089
21
-1.37254
0
LINE
8
BLACK
6
CONTINUOUS
10
6.57089
20
-1.37254
11
6.57926
21
-1.38861
0
LINE
8
BLACK
6
CONTINUOUS
10
6.57926
20
-1.38861
11
6.58619
21
-1.40535
0
LINE
8
BLACK
6
CONTINUOUS
10
6.58619
20
-1.40535
11
6.59164
21
-1.42263
0
LINE
8
BLACK
6
CONTINUOUS
10
6.59164
20
-1.42263
11
6.59556
21
-1.44032
0
LINE
8
BLACK
6
CONTINUOUS
10
6.59556
20
-1.44032
11
6.59792
21
-1.45828
0
LINE
8
BLACK
6
CONTINUOUS
10
6.59792
20
-1.45828
11
6.59871
21
-1.47638
0
LINE
8
BLACK
6
CONTINUOUS
10
6.59871
20
-1.47638
11
6.59792
21
-1.49448
0
LINE
8
BLACK
6
CONTINUOUS
10
6.59792
20
-1.49448
11
6.59556
21
-1.51244
0
LINE
8
BLACK
6
CONTINUOUS
10
6.59556
20
-1.51244
11
6.59164
21
-1.53013
0
LINE
8
BLACK
6
CONTINUOUS
10
6.59164
20
-1.53013
11
6.58619
21
-1.54741
0
LINE
8
BLACK
6
CONTINUOUS
10
6.58619
20
-1.54741
11
6.57926
21
-1.56415
0
LINE
8
BLACK
6
CONTINUOUS
10
6.57926
20
-1.56415
11
6.57089
21
-1.58022
0
LINE
8
BLACK
6
CONTINUOUS
10
6.57089
20
-1.58022
11
6.56116
21
-1.5955
0
LINE
8
BLACK
6
CONTINUOUS
10
6.56116
20
-1.5955
11
6.55013
21
-1.60987
0
LINE
8
BLACK
6
CONTINUOUS
10
6.55013
20
-1.60987
11
6.53789
21
-1.62323
0
LINE
8
BLACK
6
CONTINUOUS
10
6.53789
20
-1.62323
11
6.52453
21
-1.63547
0
LINE
8
BLACK
6
CONTINUOUS
10
6.52453
20
-1.63547
11
6.51016
21
-1.6465
0
LINE
8
BLACK
6
CONTINUOUS
10
6.51016
20
-1.6465
11
6.49487
21
-1.65623
0
LINE
8
BLACK
6
CONTINUOUS
10
6.49487
20
-1.65623
11
6.4788
21
-1.6646
0
LINE
8
BLACK
6
CONTINUOUS
10
6.4788
20
-1.6646
11
6.46207
21
-1.67153
0
LINE
8
BLACK
6
CONTINUOUS
10
6.46207
20
-1.67153
11
6.44479
21
-1.67698
0
LINE
8
BLACK
6
CONTINUOUS
10
6.44479
20
-1.67698
11
6.4271
21
-1.6809
0
LINE
8
BLACK
6
CONTINUOUS
10
6.4271
20
-1.6809
11
6.41809
21
-1.68209
0
LINE
8
BLACK
6
CONTINUOUS
10
6.41809
20
-1.68209
11
6.53346
21
-1.68209
0
LINE
8
BLACK
6
CONTINUOUS
10
6.53346
20
-1.68209
11
6.53416
21
-1.68237
0
LINE
8
BLACK
6
CONTINUOUS
10
6.53416
20
-1.68237
11
6.53445
21
-1.68307
0
LINE
8
BLACK
6
CONTINUOUS
10
6.53445
20
-1.68307
11
6.53445
21
-1.82874
0
LINE
8
BLACK
6
CONTINUOUS
10
6.53445
20
-1.82874
11
6.53416
21
-1.82944
0
LINE
8
BLACK
6
CONTINUOUS
10
6.53416
20
-1.82944
11
6.53346
21
-1.82972
0
LINE
8
BLACK
6
CONTINUOUS
10
6.53346
20
-1.82972
11
6.25394
21
-1.82972
0
LINE
8
BLACK
6
CONTINUOUS
10
6.25394
20
-1.82972
11
6.25324
21
-1.82944
0
LINE
8
BLACK
6
CONTINUOUS
10
6.25324
20
-1.82944
11
6.25295
21
-1.82874
0
LINE
8
BLACK
6
CONTINUOUS
10
6.25295
20
-1.82874
11
6.25295
21
-1.68307
0
LINE
8
BLACK
6
CONTINUOUS
10
6.25295
20
-1.68307
11
6.25324
21
-1.68237
0
LINE
8
BLACK
6
CONTINUOUS
10
6.25324
20
-1.68237
11
6.25394
21
-1.68209
0
LINE
8
BLACK
6
CONTINUOUS
10
6.25394
20
-1.68209
11
6.36399
21
-1.68209
0
LINE
8
BLACK
6
CONTINUOUS
10
6.36399
20
-1.68209
11
6.35497
21
-1.6809
0
LINE
8
BLACK
6
CONTINUOUS
10
6.35497
20
-1.6809
11
6.33729
21
-1.67698
0
LINE
8
BLACK
6
CONTINUOUS
10
6.33729
20
-1.67698
11
6.32001
21
-1.67153
0
LINE
8
BLACK
6
CONTINUOUS
10
6.32001
20
-1.67153
11
6.30327
21
-1.6646
0
LINE
8
BLACK
6
CONTINUOUS
10
6.30327
20
-1.6646
11
6.2872
21
-1.65623
0
LINE
8
BLACK
6
CONTINUOUS
10
6.2872
20
-1.65623
11
6.27192
21
-1.6465
0
LINE
8
BLACK
6
CONTINUOUS
10
6.27192
20
-1.6465
11
6.25754
21
-1.63547
0
LINE
8
BLACK
6
CONTINUOUS
10
6.25754
20
-1.63547
11
6.24419
21
-1.62323
0
LINE
8
BLACK
6
CONTINUOUS
10
6.24419
20
-1.62323
11
6.23195
21
-1.60987
0
LINE
8
BLACK
6
CONTINUOUS
10
6.23195
20
-1.60987
11
6.22092
21
-1.5955
0
LINE
8
BLACK
6
CONTINUOUS
10
6.22092
20
-1.5955
11
6.21118
21
-1.58022
0
LINE
8
BLACK
6
CONTINUOUS
10
6.21118
20
-1.58022
11
6.20282
21
-1.56415
0
LINE
8
BLACK
6
CONTINUOUS
10
6.20282
20
-1.56415
11
6.19588
21
-1.54741
0
LINE
8
BLACK
6
CONTINUOUS
10
6.19588
20
-1.54741
11
6.19044
21
-1.53013
0
LINE
8
BLACK
6
CONTINUOUS
10
6.19044
20
-1.53013
11
6.18651
21
-1.51244
0
LINE
8
BLACK
6
CONTINUOUS
10
6.18651
20
-1.51244
11
6.18415
21
-1.49448
0
LINE
8
BLACK
6
CONTINUOUS
10
6.18415
20
-1.49448
11
6.18336
21
-1.47638
0
LINE
8
BLACK
6
CONTINUOUS
10
6.39104
20
-1.68406
11
6.25492
21
-1.68406
0
LINE
8
BLACK
6
CONTINUOUS
10
6.25492
20
-1.68406
11
6.25492
21
-1.82776
0
LINE
8
BLACK
6
CONTINUOUS
10
6.25492
20
-1.82776
11
6.53248
21
-1.82776
0
LINE
8
BLACK
6
CONTINUOUS
10
6.53248
20
-1.82776
11
6.53248
21
-1.68406
0
LINE
8
BLACK
6
CONTINUOUS
10
6.53248
20
-1.68406
11
6.39104
21
-1.68406
0
LINE
8
BLACK
6
CONTINUOUS
10
6.18513
20
-1.47638
11
6.18592
21
-1.49432
0
LINE
8
BLACK
6
CONTINUOUS
10
6.18592
20
-1.49432
11
6.18826
21
-1.51213
0
LINE
8
BLACK
6
CONTINUOUS
10
6.18826
20
-1.51213
11
6.19215
21
-1.52967
0
LINE
8
BLACK
6
CONTINUOUS
10
6.19215
20
-1.52967
11
6.19755
21
-1.5468
0
LINE
8
BLACK
6
CONTINUOUS
10
6.19755
20
-1.5468
11
6.20442
21
-1.5634
0
LINE
8
BLACK
6
CONTINUOUS
10
6.20442
20
-1.5634
11
6.21272
21
-1.57933
0
LINE
8
BLACK
6
CONTINUOUS
10
6.21272
20
-1.57933
11
6.22237
21
-1.59448
0
LINE
8
BLACK
6
CONTINUOUS
10
6.22237
20
-1.59448
11
6.2333
21
-1.60873
0
LINE
8
BLACK
6
CONTINUOUS
10
6.2333
20
-1.60873
11
6.24544
21
-1.62197
0
LINE
8
BLACK
6
CONTINUOUS
10
6.24544
20
-1.62197
11
6.25868
21
-1.63411
0
LINE
8
BLACK
6
CONTINUOUS
10
6.25868
20
-1.63411
11
6.27293
21
-1.64505
0
LINE
8
BLACK
6
CONTINUOUS
10
6.27293
20
-1.64505
11
6.28808
21
-1.6547
0
LINE
8
BLACK
6
CONTINUOUS
10
6.28808
20
-1.6547
11
6.30402
21
-1.66299
0
LINE
8
BLACK
6
CONTINUOUS
10
6.30402
20
-1.66299
11
6.32061
21
-1.66987
0
LINE
8
BLACK
6
CONTINUOUS
10
6.32061
20
-1.66987
11
6.33774
21
-1.67527
0
LINE
8
BLACK
6
CONTINUOUS
10
6.33774
20
-1.67527
11
6.35528
21
-1.67915
0
LINE
8
BLACK
6
CONTINUOUS
10
6.35528
20
-1.67915
11
6.37309
21
-1.6815
0
LINE
8
BLACK
6
CONTINUOUS
10
6.37309
20
-1.6815
11
6.38655
21
-1.68209
0
LINE
8
BLACK
6
CONTINUOUS
10
6.38655
20
-1.68209
11
6.39553
21
-1.68209
0
LINE
8
BLACK
6
CONTINUOUS
10
6.39553
20
-1.68209
11
6.40898
21
-1.6815
0
LINE
8
BLACK
6
CONTINUOUS
10
6.40898
20
-1.6815
11
6.42679
21
-1.67915
0
LINE
8
BLACK
6
CONTINUOUS
10
6.42679
20
-1.67915
11
6.44433
21
-1.67527
0
LINE
8
BLACK
6
CONTINUOUS
10
6.44433
20
-1.67527
11
6.46146
21
-1.66987
0
LINE
8
BLACK
6
CONTINUOUS
10
6.46146
20
-1.66987
11
6.47806
21
-1.66299
0
LINE
8
BLACK
6
CONTINUOUS
10
6.47806
20
-1.66299
11
6.49399
21
-1.6547
0
LINE
8
BLACK
6
CONTINUOUS
10
6.49399
20
-1.6547
11
6.50914
21
-1.64505
0
LINE
8
BLACK
6
CONTINUOUS
10
6.50914
20
-1.64505
11
6.52339
21
-1.63411
0
LINE
8
BLACK
6
CONTINUOUS
10
6.52339
20
-1.63411
11
6.53663
21
-1.62197
0
LINE
8
BLACK
6
CONTINUOUS
10
6.53663
20
-1.62197
11
6.54877
21
-1.60873
0
LINE
8
BLACK
6
CONTINUOUS
10
6.54877
20
-1.60873
11
6.5597
21
-1.59448
0
LINE
8
BLACK
6
CONTINUOUS
10
6.5597
20
-1.59448
11
6.56935
21
-1.57933
0
LINE
8
BLACK
6
CONTINUOUS
10
6.56935
20
-1.57933
11
6.57765
21
-1.5634
0
LINE
8
BLACK
6
CONTINUOUS
10
6.57765
20
-1.5634
11
6.58452
21
-1.5468
0
LINE
8
BLACK
6
CONTINUOUS
10
6.58452
20
-1.5468
11
6.58992
21
-1.52967
0
LINE
8
BLACK
6
CONTINUOUS
10
6.58992
20
-1.52967
11
6.59381
21
-1.51213
0
LINE
8
BLACK
6
CONTINUOUS
10
6.59381
20
-1.51213
11
6.59616
21
-1.49432
0
LINE
8
BLACK
6
CONTINUOUS
10
6.59616
20
-1.49432
11
6.59694
21
-1.47638
0
LINE
8
BLACK
6
CONTINUOUS
10
6.59694
20
-1.47638
11
6.59616
21
-1.45843
0
LINE
8
BLACK
6
CONTINUOUS
10
6.59616
20
-1.45843
11
6.59381
21
-1.44062
0
LINE
8
BLACK
6
CONTINUOUS
10
6.59381
20
-1.44062
11
6.58992
21
-1.42309
0
LINE
8
BLACK
6
CONTINUOUS
10
6.58992
20
-1.42309
11
6.58452
21
-1.40595
0
LINE
8
BLACK
6
CONTINUOUS
10
6.58452
20
-1.40595
11
6.57765
21
-1.38936
0
LINE
8
BLACK
6
CONTINUOUS
10
6.57765
20
-1.38936
11
6.56935
21
-1.37343
0
LINE
8
BLACK
6
CONTINUOUS
10
6.56935
20
-1.37343
11
6.5597
21
-1.35828
0
LINE
8
BLACK
6
CONTINUOUS
10
6.5597
20
-1.35828
11
6.54877
21
-1.34403
0
LINE
8
BLACK
6
CONTINUOUS
10
6.54877
20
-1.34403
11
6.53663
21
-1.33078
0
LINE
8
BLACK
6
CONTINUOUS
10
6.53663
20
-1.33078
11
6.52339
21
-1.31865
0
LINE
8
BLACK
6
CONTINUOUS
10
6.52339
20
-1.31865
11
6.50914
21
-1.30771
0
LINE
8
BLACK
6
CONTINUOUS
10
6.50914
20
-1.30771
11
6.49399
21
-1.29806
0
LINE
8
BLACK
6
CONTINUOUS
10
6.49399
20
-1.29806
11
6.47806
21
-1.28976
0
LINE
8
BLACK
6
CONTINUOUS
10
6.47806
20
-1.28976
11
6.46146
21
-1.28289
0
LINE
8
BLACK
6
CONTINUOUS
10
6.46146
20
-1.28289
11
6.44433
21
-1.27749
0
LINE
8
BLACK
6
CONTINUOUS
10
6.44433
20
-1.27749
11
6.42679
21
-1.2736
0
LINE
8
BLACK
6
CONTINUOUS
10
6.42679
20
-1.2736
11
6.40898
21
-1.27126
0
LINE
8
BLACK
6
CONTINUOUS
10
6.40898
20
-1.27126
11
6.39104
21
-1.27047
0
LINE
8
BLACK
6
CONTINUOUS
10
6.39104
20
-1.27047
11
6.37309
21
-1.27126
0
LINE
8
BLACK
6
CONTINUOUS
10
6.37309
20
-1.27126
11
6.35528
21
-1.2736
0
LINE
8
BLACK
6
CONTINUOUS
10
6.35528
20
-1.2736
11
6.33774
21
-1.27749
0
LINE
8
BLACK
6
CONTINUOUS
10
6.33774
20
-1.27749
11
6.32061
21
-1.28289
0
LINE
8
BLACK
6
CONTINUOUS
10
6.32061
20
-1.28289
11
6.30402
21
-1.28976
0
LINE
8
BLACK
6
CONTINUOUS
10
6.30402
20
-1.28976
11
6.28808
21
-1.29806
0
LINE
8
BLACK
6
CONTINUOUS
10
6.28808
20
-1.29806
11
6.27293
21
-1.30771
0
LINE
8
BLACK
6
CONTINUOUS
10
6.27293
20
-1.30771
11
6.25868
21
-1.31865
0
LINE
8
BLACK
6
CONTINUOUS
10
6.25868
20
-1.31865
11
6.24544
21
-1.33078
0
LINE
8
BLACK
6
CONTINUOUS
10
6.24544
20
-1.33078
11
6.2333
21
-1.34403
0
LINE
8
BLACK
6
CONTINUOUS
10
6.2333
20
-1.34403
11
6.22237
21
-1.35828
0
LINE
8
BLACK
6
CONTINUOUS
10
6.22237
20
-1.35828
11
6.21272
21
-1.37343
0
LINE
8
BLACK
6
CONTINUOUS
10
6.21272
20
-1.37343
11
6.20442
21
-1.38936
0
LINE
8
BLACK
6
CONTINUOUS
10
6.20442
20
-1.38936
11
6.19755
21
-1.40595
0
LINE
8
BLACK
6
CONTINUOUS
10
6.19755
20
-1.40595
11
6.19215
21
-1.42309
0
LINE
8
BLACK
6
CONTINUOUS
10
6.19215
20
-1.42309
11
6.18826
21
-1.44062
0
LINE
8
BLACK
6
CONTINUOUS
10
6.18826
20
-1.44062
11
6.18592
21
-1.45843
0
LINE
8
BLACK
6
CONTINUOUS
10
6.18592
20
-1.45843
11
6.18513
21
-1.47638
0
LINE
8
BLACK
6
CONTINUOUS
10
5.24409
20
-1.66909
11
5.24479
21
-1.66938
0
LINE
8
BLACK
6
CONTINUOUS
10
5.24479
20
-1.66938
11
5.24508
21
-1.67008
0
LINE
8
BLACK
6
CONTINUOUS
10
5.24508
20
-1.67008
11
5.24508
21
-1.75276
0
LINE
8
BLACK
6
CONTINUOUS
10
5.24508
20
-1.75276
11
5.24479
21
-1.75345
0
LINE
8
BLACK
6
CONTINUOUS
10
5.24479
20
-1.75345
11
5.24409
21
-1.75374
0
LINE
8
BLACK
6
CONTINUOUS
10
5.24409
20
-1.75374
11
5.06299
21
-1.75374
0
LINE
8
BLACK
6
CONTINUOUS
10
5.06299
20
-1.75374
11
5.0623
21
-1.75345
0
LINE
8
BLACK
6
CONTINUOUS
10
5.0623
20
-1.75345
11
5.06201
21
-1.75276
0
LINE
8
BLACK
6
CONTINUOUS
10
5.06201
20
-1.75276
11
5.06201
21
-1.67008
0
LINE
8
BLACK
6
CONTINUOUS
10
5.06201
20
-1.67008
11
5.0623
21
-1.66938
0
LINE
8
BLACK
6
CONTINUOUS
10
5.0623
20
-1.66938
11
5.06299
21
-1.66909
0
LINE
8
BLACK
6
CONTINUOUS
10
5.06299
20
-1.66909
11
5.24409
21
-1.66909
0
LINE
8
BLACK
6
CONTINUOUS
10
5.06398
20
-1.67106
11
5.06398
21
-1.75177
0
LINE
8
BLACK
6
CONTINUOUS
10
5.06398
20
-1.75177
11
5.24311
21
-1.75177
0
LINE
8
BLACK
6
CONTINUOUS
10
5.24311
20
-1.75177
11
5.24311
21
-1.67106
0
LINE
8
BLACK
6
CONTINUOUS
10
5.24311
20
-1.67106
11
5.06398
21
-1.67106
0
LINE
8
BLACK
6
CONTINUOUS
10
5.95472
20
-1.03445
11
5.95542
21
-1.03474
0
LINE
8
BLACK
6
CONTINUOUS
10
5.95542
20
-1.03474
11
5.95571
21
-1.03543
0
LINE
8
BLACK
6
CONTINUOUS
10
5.95571
20
-1.03543
11
5.95571
21
-1.64173
0
LINE
8
BLACK
6
CONTINUOUS
10
5.95571
20
-1.64173
11
5.95542
21
-1.64243
0
LINE
8
BLACK
6
CONTINUOUS
10
5.95542
20
-1.64243
11
5.95472
21
-1.64272
0
LINE
8
BLACK
6
CONTINUOUS
10
5.95472
20
-1.64272
11
5.26575
21
-1.64272
0
LINE
8
BLACK
6
CONTINUOUS
10
5.26575
20
-1.64272
11
5.26505
21
-1.64243
0
LINE
8
BLACK
6
CONTINUOUS
10
5.26505
20
-1.64243
11
5.26476
21
-1.64173
0
LINE
8
BLACK
6
CONTINUOUS
10
5.26476
20
-1.64173
11
5.26476
21
-1.03543
0
LINE
8
BLACK
6
CONTINUOUS
10
5.26476
20
-1.03543
11
5.26505
21
-1.03474
0
LINE
8
BLACK
6
CONTINUOUS
10
5.26505
20
-1.03474
11
5.26575
21
-1.03445
0
LINE
8
BLACK
6
CONTINUOUS
10
5.26575
20
-1.03445
11
5.95472
21
-1.03445
0
LINE
8
BLACK
6
CONTINUOUS
10
5.26673
20
-1.03642
11
5.26673
21
-1.64075
0
LINE
8
BLACK
6
CONTINUOUS
10
5.26673
20
-1.64075
11
5.95374
21
-1.64075
0
LINE
8
BLACK
6
CONTINUOUS
10
5.95374
20
-1.64075
11
5.95374
21
-1.03642
0
LINE
8
BLACK
6
CONTINUOUS
10
5.95374
20
-1.03642
11
5.26673
21
-1.03642
0
LINE
8
BLACK
6
CONTINUOUS
10
4.69488
20
-0.705709
11
4.69558
21
-0.705997
0
LINE
8
BLACK
6
CONTINUOUS
10
4.69558
20
-0.705997
11
4.69587
21
-0.706693
0
LINE
8
BLACK
6
CONTINUOUS
10
4.69587
20
-0.706693
11
4.69587
21
-0.776575
0
LINE
8
BLACK
6
CONTINUOUS
10
4.69587
20
-0.776575
11
4.81299
21
-0.776575
0
LINE
8
BLACK
6
CONTINUOUS
10
4.81299
20
-0.776575
11
4.81369
21
-0.776863
0
LINE
8
BLACK
6
CONTINUOUS
10
4.81369
20
-0.776863
11
4.81398
21
-0.777559
0
LINE
8
BLACK
6
CONTINUOUS
10
4.81398
20
-0.777559
11
4.81398
21
-1.27756
0
LINE
8
BLACK
6
CONTINUOUS
10
4.81398
20
-1.27756
11
4.81369
21
-1.27826
0
LINE
8
BLACK
6
CONTINUOUS
10
4.81369
20
-1.27826
11
4.81299
21
-1.27854
0
LINE
8
BLACK
6
CONTINUOUS
10
4.81299
20
-1.27854
11
4.32087
21
-1.27854
0
LINE
8
BLACK
6
CONTINUOUS
10
4.32087
20
-1.27854
11
4.32017
21
-1.27826
0
LINE
8
BLACK
6
CONTINUOUS
10
4.32017
20
-1.27826
11
4.31988
21
-1.27756
0
LINE
8
BLACK
6
CONTINUOUS
10
4.31988
20
-1.27756
11
4.31988
21
-0.787402
0
LINE
8
BLACK
6
CONTINUOUS
10
4.31988
20
-0.787402
11
4.31988
21
-0.777559
0
LINE
8
BLACK
6
CONTINUOUS
10
4.31988
20
-0.777559
11
4.32017
21
-0.776863
0
LINE
8
BLACK
6
CONTINUOUS
10
4.32017
20
-0.776863
11
4.32087
21
-0.776575
0
LINE
8
BLACK
6
CONTINUOUS
10
4.32087
20
-0.776575
11
4.43799
21
-0.776575
0
LINE
8
BLACK
6
CONTINUOUS
10
4.43799
20
-0.776575
11
4.43799
21
-0.706693
0
LINE
8
BLACK
6
CONTINUOUS
10
4.43799
20
-0.706693
11
4.43828
21
-0.705997
0
LINE
8
BLACK
6
CONTINUOUS
10
4.43828
20
-0.705997
11
4.43898
21
-0.705709
0
LINE
8
BLACK
6
CONTINUOUS
10
4.43898
20
-0.705709
11
4.69488
21
-0.705709
0
LINE
8
BLACK
6
CONTINUOUS
10
4.43996
20
-0.707677
11
4.43996
21
-0.777559
0
LINE
8
BLACK
6
CONTINUOUS
10
4.43996
20
-0.777559
11
4.43967
21
-0.778255
0
LINE
8
BLACK
6
CONTINUOUS
10
4.43967
20
-0.778255
11
4.43898
21
-0.778543
0
LINE
8
BLACK
6
CONTINUOUS
10
4.43898
20
-0.778543
11
4.32185
21
-0.778543
0
LINE
8
BLACK
6
CONTINUOUS
10
4.32185
20
-0.778543
11
4.32185
21
-0.787402
0
LINE
8
BLACK
6
CONTINUOUS
10
4.32185
20
-0.787402
11
4.32185
21
-1.27657
0
LINE
8
BLACK
6
CONTINUOUS
10
4.32185
20
-1.27657
11
4.81201
21
-1.27657
0
LINE
8
BLACK
6
CONTINUOUS
10
4.81201
20
-1.27657
11
4.81201
21
-0.778543
0
LINE
8
BLACK
6
CONTINUOUS
10
4.81201
20
-0.778543
11
4.69488
21
-0.778543
0
LINE
8
BLACK
6
CONTINUOUS
10
4.69488
20
-0.778543
11
4.69419
21
-0.778255
0
LINE
8
BLACK
6
CONTINUOUS
10
4.69419
20
-0.778255
11
4.6939
21
-0.777559
0
LINE
8
BLACK
6
CONTINUOUS
10
4.6939
20
-0.777559
11
4.6939
21
-0.707677
0
LINE
8
BLACK
6
CONTINUOUS
10
4.6939
20
-0.707677
11
4.43996
21
-0.707677
0
LINE
8
BLACK
6
CONTINUOUS
10
3.82874
20
-0.705709
11
3.82944
21
-0.705997
0
LINE
8
BLACK
6
CONTINUOUS
10
3.82944
20
-0.705997
11
3.82972
21
-0.706693
0
LINE
8
BLACK
6
CONTINUOUS
10
3.82972
20
-0.706693
11
3.82972
21
-0.776575
0
LINE
8
BLACK
6
CONTINUOUS
10
3.82972
20
-0.776575
11
3.94685
21
-0.776575
0
LINE
8
BLACK
6
CONTINUOUS
10
3.94685
20
-0.776575
11
3.94755
21
-0.776863
0
LINE
8
BLACK
6
CONTINUOUS
10
3.94755
20
-0.776863
11
3.94783
21
-0.777559
0
LINE
8
BLACK
6
CONTINUOUS
10
3.94783
20
-0.777559
11
3.94783
21
-1.27756
0
LINE
8
BLACK
6
CONTINUOUS
10
3.94783
20
-1.27756
11
3.94755
21
-1.27826
0
LINE
8
BLACK
6
CONTINUOUS
10
3.94755
20
-1.27826
11
3.94685
21
-1.27854
0
LINE
8
BLACK
6
CONTINUOUS
10
3.94685
20
-1.27854
11
3.45472
21
-1.27854
0
LINE
8
BLACK
6
CONTINUOUS
10
3.45472
20
-1.27854
11
3.45403
21
-1.27826
0
LINE
8
BLACK
6
CONTINUOUS
10
3.45403
20
-1.27826
11
3.45374
21
-1.27756
0
LINE
8
BLACK
6
CONTINUOUS
10
3.45374
20
-1.27756
11
3.45374
21
-0.787402
0
LINE
8
BLACK
6
CONTINUOUS
10
3.45374
20
-0.787402
11
3.45374
21
-0.777559
0
LINE
8
BLACK
6
CONTINUOUS
10
3.45374
20
-0.777559
11
3.45403
21
-0.776863
0
LINE
8
BLACK
6
CONTINUOUS
10
3.45403
20
-0.776863
11
3.45472
21
-0.776575
0
LINE
8
BLACK
6
CONTINUOUS
10
3.45472
20
-0.776575
11
3.57185
21
-0.776575
0
LINE
8
BLACK
6
CONTINUOUS
10
3.57185
20
-0.776575
11
3.57185
21
-0.706693
0
LINE
8
BLACK
6
CONTINUOUS
10
3.57185
20
-0.706693
11
3.57214
21
-0.705997
0
LINE
8
BLACK
6
CONTINUOUS
10
3.57214
20
-0.705997
11
3.57283
21
-0.705709
0
LINE
8
BLACK
6
CONTINUOUS
10
3.57283
20
-0.705709
11
3.82874
21
-0.705709
0
LINE
8
BLACK
6
CONTINUOUS
10
3.57382
20
-0.707677
11
3.57382
21
-0.777559
0
LINE
8
BLACK
6
CONTINUOUS
10
3.57382
20
-0.777559
11
3.57353
21
-0.778255
0
LINE
8
BLACK
6
CONTINUOUS
10
3.57353
20
-0.778255
11
3.57283
21
-0.778543
0
LINE
8
BLACK
6
CONTINUOUS
10
3.57283
20
-0.778543
11
3.45571
21
-0.778543
0
LINE
8
BLACK
6
CONTINUOUS
10
3.45571
20
-0.778543
11
3.45571
21
-0.787402
0
LINE
8
BLACK
6
CONTINUOUS
10
3.45571
20
-0.787402
11
3.45571
21
-1.27657
0
LINE
8
BLACK
6
CONTINUOUS
10
3.45571
20
-1.27657
11
3.94587
21
-1.27657
0
LINE
8
BLACK
6
CONTINUOUS
10
3.94587
20
-1.27657
11
3.94587
21
-0.778543
0
LINE
8
BLACK
6
CONTINUOUS
10
3.94587
20
-0.778543
11
3.82874
21
-0.778543
0
LINE
8
BLACK
6
CONTINUOUS
10
3.82874
20
-0.778543
11
3.82804
21
-0.778255
0
LINE
8
BLACK
6
CONTINUOUS
10
3.82804
20
-0.778255
11
3.82776
21
-0.777559
0
LINE
8
BLACK
6
CONTINUOUS
10
3.82776
20
-0.777559
11
3.82776
21
-0.707677
0
LINE
8
BLACK
6
CONTINUOUS
10
3.82776
20
-0.707677
11
3.57382
21
-0.707677
0
LINE
8
BLACK
6
CONTINUOUS
10
6.5374
20
-1.01083
11
6.5381
21
-1.01112
0
LINE
8
BLACK
6
CONTINUOUS
10
6.5381
20
-1.01112
11
6.53839
21
-1.01181
0
LINE
8
BLACK
6
CONTINUOUS
10
6.53839
20
-1.01181
11
6.53839
21
-1.16929
0
LINE
8
BLACK
6
CONTINUOUS
10
6.53839
20
-1.16929
11
6.5381
21
-1.16999
0
LINE
8
BLACK
6
CONTINUOUS
10
6.5381
20
-1.16999
11
6.5374
21
-1.17028
0
LINE
8
BLACK
6
CONTINUOUS
10
6.5374
20
-1.17028
11
6.24213
21
-1.17028
0
LINE
8
BLACK
6
CONTINUOUS
10
6.24213
20
-1.17028
11
6.24143
21
-1.16999
0
LINE
8
BLACK
6
CONTINUOUS
10
6.24143
20
-1.16999
11
6.24114
21
-1.16929
0
LINE
8
BLACK
6
CONTINUOUS
10
6.24114
20
-1.16929
11
6.24114
21
-1.01181
0
LINE
8
BLACK
6
CONTINUOUS
10
6.24114
20
-1.01181
11
6.24143
21
-1.01112
0
LINE
8
BLACK
6
CONTINUOUS
10
6.24143
20
-1.01112
11
6.24213
21
-1.01083
0
LINE
8
BLACK
6
CONTINUOUS
10
6.24213
20
-1.01083
11
6.5374
21
-1.01083
0
LINE
8
BLACK
6
CONTINUOUS
10
6.24311
20
-1.0128
11
6.24311
21
-1.16831
0
LINE
8
BLACK
6
CONTINUOUS
10
6.24311
20
-1.16831
11
6.53642
21
-1.16831
0
LINE
8
BLACK
6
CONTINUOUS
10
6.53642
20
-1.16831
11
6.53642
21
-1.0128
0
LINE
8
BLACK
6
CONTINUOUS
10
6.53642
20
-1.0128
11
6.24311
21
-1.0128
0
LINE
8
BLACK
6
CONTINUOUS
10
6.51083
20
-0.905512
11
6.51158
21
-0.893055
0
LINE
8
BLACK
6
CONTINUOUS
10
6.51158
20
-0.893055
11
6.51383
21
-0.880779
0
LINE
8
BLACK
6
CONTINUOUS
10
6.51383
20
-0.880779
11
6.51754
21
-0.868865
0
LINE
8
BLACK
6
CONTINUOUS
10
6.51754
20
-0.868865
11
6.52266
21
-0.857484
0
LINE
8
BLACK
6
CONTINUOUS
10
6.52266
20
-0.857484
11
6.52912
21
-0.846804
0
LINE
8
BLACK
6
CONTINUOUS
10
6.52912
20
-0.846804
11
6.53682
21
-0.83698
0
LINE
8
BLACK
6
CONTINUOUS
10
6.53682
20
-0.83698
11
6.54564
21
-0.828156
0
LINE
8
BLACK
6
CONTINUOUS
10
6.54564
20
-0.828156
11
6.55547
21
-0.820459
0
LINE
8
BLACK
6
CONTINUOUS
10
6.55547
20
-0.820459
11
6.56615
21
-0.814003
0
LINE
8
BLACK
6
CONTINUOUS
10
6.56615
20
-0.814003
11
6.57753
21
-0.808881
0
LINE
8
BLACK
6
CONTINUOUS
10
6.57753
20
-0.808881
11
6.58944
21
-0.805168
0
LINE
8
BLACK
6
CONTINUOUS
10
6.58944
20
-0.805168
11
6.60172
21
-0.802919
0
LINE
8
BLACK
6
CONTINUOUS
10
6.60172
20
-0.802919
11
6.61417
21
-0.802165
0
LINE
8
BLACK
6
CONTINUOUS
10
6.61417
20
-0.802165
11
6.62663
21
-0.802919
0
LINE
8
BLACK
6
CONTINUOUS
10
6.62663
20
-0.802919
11
6.63891
21
-0.805168
0
LINE
8
BLACK
6
CONTINUOUS
10
6.63891
20
-0.805168
11
6.65082
21
-0.808881
0
LINE
8
BLACK
6
CONTINUOUS
10
6.65082
20
-0.808881
11
6.6622
21
-0.814003
0
LINE
8
BLACK
6
CONTINUOUS
10
6.6622
20
-0.814003
11
6.67288
21
-0.820459
0
LINE
8
BLACK
6
CONTINUOUS
10
6.67288
20
-0.820459
11
6.6827
21
-0.828156
0
LINE
8
BLACK
6
CONTINUOUS
10
6.6827
20
-0.828156
11
6.69153
21
-0.83698
0
LINE
8
BLACK
6
CONTINUOUS
10
6.69153
20
-0.83698
11
6.69923
21
-0.846804
0
LINE
8
BLACK
6
CONTINUOUS
10
6.69923
20
-0.846804
11
6.70568
21
-0.857484
0
LINE
8
BLACK
6
CONTINUOUS
10
6.70568
20
-0.857484
11
6.7108
21
-0.868865
0
LINE
8
BLACK
6
CONTINUOUS
10
6.7108
20
-0.868865
11
6.71452
21
-0.880779
0
LINE
8
BLACK
6
CONTINUOUS
10
6.71452
20
-0.880779
11
6.71677
21
-0.893055
0
LINE
8
BLACK
6
CONTINUOUS
10
6.71677
20
-0.893055
11
6.71752
21
-0.905512
0
LINE
8
BLACK
6
CONTINUOUS
10
6.71752
20
-0.905512
11
6.71677
21
-0.917969
0
LINE
8
BLACK
6
CONTINUOUS
10
6.71677
20
-0.917969
11
6.71452
21
-0.930244
0
LINE
8
BLACK
6
CONTINUOUS
10
6.71452
20
-0.930244
11
6.7108
21
-0.942159
0
LINE
8
BLACK
6
CONTINUOUS
10
6.7108
20
-0.942159
11
6.70568
21
-0.953539
0
LINE
8
BLACK
6
CONTINUOUS
10
6.70568
20
-0.953539
11
6.69923
21
-0.964219
0
LINE
8
BLACK
6
CONTINUOUS
10
6.69923
20
-0.964219
11
6.69153
21
-0.974043
0
LINE
8
BLACK
6
CONTINUOUS
10
6.69153
20
-0.974043
11
6.6827
21
-0.982868
0
LINE
8
BLACK
6
CONTINUOUS
10
6.6827
20
-0.982868
11
6.67288
21
-0.990564
0
LINE
8
BLACK
6
CONTINUOUS
10
6.67288
20
-0.990564
11
6.6622
21
-0.997021
0
LINE
8
BLACK
6
CONTINUOUS
10
6.6622
20
-0.997021
11
6.65082
21
-1.00214
0
LINE
8
BLACK
6
CONTINUOUS
10
6.65082
20
-1.00214
11
6.63891
21
-1.00586
0
LINE
8
BLACK
6
CONTINUOUS
10
6.63891
20
-1.00586
11
6.62663
21
-1.0081
0
LINE
8
BLACK
6
CONTINUOUS
10
6.62663
20
-1.0081
11
6.61417
21
-1.00886
0
LINE
8
BLACK
6
CONTINUOUS
10
6.61417
20
-1.00886
11
6.60172
21
-1.0081
0
LINE
8
BLACK
6
CONTINUOUS
10
6.60172
20
-1.0081
11
6.58944
21
-1.00586
0
LINE
8
BLACK
6
CONTINUOUS
10
6.58944
20
-1.00586
11
6.57753
21
-1.00214
0
LINE
8
BLACK
6
CONTINUOUS
10
6.57753
20
-1.00214
11
6.56615
21
-0.997021
0
LINE
8
BLACK
6
CONTINUOUS
10
6.56615
20
-0.997021
11
6.55547
21
-0.990564
0
LINE
8
BLACK
6
CONTINUOUS
10
6.55547
20
-0.990564
11
6.54564
21
-0.982868
0
LINE
8
BLACK
6
CONTINUOUS
10
6.54564
20
-0.982868
11
6.53682
21
-0.974043
0
LINE
8
BLACK
6
CONTINUOUS
10
6.53682
20
-0.974043
11
6.52912
21
-0.964219
0
LINE
8
BLACK
6
CONTINUOUS
10
6.52912
20
-0.964219
11
6.52266
21
-0.953539
0
LINE
8
BLACK
6
CONTINUOUS
10
6.52266
20
-0.953539
11
6.51754
21
-0.942159
0
LINE
8
BLACK
6
CONTINUOUS
10
6.51754
20
-0.942159
11
6.51383
21
-0.930244
0
LINE
8
BLACK
6
CONTINUOUS
10
6.51383
20
-0.930244
11
6.51158
21
-0.917969
0
LINE
8
BLACK
6
CONTINUOUS
10
6.51158
20
-0.917969
11
6.51083
21
-0.905512
0
LINE
8
BLACK
6
CONTINUOUS
10
6.51259
20
-0.905512
11
6.5134
21
-0.918243
0
LINE
8
BLACK
6
CONTINUOUS
10
6.5134
20
-0.918243
11
6.51579
21
-0.930773
0
LINE
8
BLACK
6
CONTINUOUS
10
6.51579
20
-0.930773
11
6.51973
21
-0.942905
0
LINE
8
BLACK
6
CONTINUOUS
10
6.51973
20
-0.942905
11
6.52516
21
-0.954448
0
LINE
8
BLACK
6
CONTINUOUS
10
6.52516
20
-0.954448
11
6.53199
21
-0.965218
0
LINE
8
BLACK
6
CONTINUOUS
10
6.53199
20
-0.965218
11
6.54013
21
-0.975047
0
LINE
8
BLACK
6
CONTINUOUS
10
6.54013
20
-0.975047
11
6.54942
21
-0.983779
0
LINE
8
BLACK
6
CONTINUOUS
10
6.54942
20
-0.983779
11
6.55974
21
-0.991277
0
LINE
8
BLACK
6
CONTINUOUS
10
6.55974
20
-0.991277
11
6.57092
21
-0.997423
0
LINE
8
BLACK
6
CONTINUOUS
10
6.57092
20
-0.997423
11
6.58278
21
-1.00212
0
LINE
8
BLACK
6
CONTINUOUS
10
6.58278
20
-1.00212
11
6.59514
21
-1.00529
0
LINE
8
BLACK
6
CONTINUOUS
10
6.59514
20
-1.00529
11
6.6078
21
-1.00689
0
LINE
8
BLACK
6
CONTINUOUS
10
6.6078
20
-1.00689
11
6.62055
21
-1.00689
0
LINE
8
BLACK
6
CONTINUOUS
10
6.62055
20
-1.00689
11
6.63321
21
-1.00529
0
LINE
8
BLACK
6
CONTINUOUS
10
6.63321
20
-1.00529
11
6.64556
21
-1.00212
0
LINE
8
BLACK
6
CONTINUOUS
10
6.64556
20
-1.00212
11
6.65742
21
-0.997423
0
LINE
8
BLACK
6
CONTINUOUS
10
6.65742
20
-0.997423
11
6.6686
21
-0.991277
0
LINE
8
BLACK
6
CONTINUOUS
10
6.6686
20
-0.991277
11
6.67892
21
-0.983779
0
LINE
8
BLACK
6
CONTINUOUS
10
6.67892
20
-0.983779
11
6.68822
21
-0.975047
0
LINE
8
BLACK
6
CONTINUOUS
10
6.68822
20
-0.975047
11
6.69635
21
-0.965218
0
LINE
8
BLACK
6
CONTINUOUS
10
6.69635
20
-0.965218
11
6.70319
21
-0.954448
0
LINE
8
BLACK
6
CONTINUOUS
10
6.70319
20
-0.954448
11
6.70862
21
-0.942905
0
LINE
8
BLACK
6
CONTINUOUS
10
6.70862
20
-0.942905
11
6.71256
21
-0.930773
0
LINE
8
BLACK
6
CONTINUOUS
10
6.71256
20
-0.930773
11
6.71495
21
-0.918243
0
LINE
8
BLACK
6
CONTINUOUS
10
6.71495
20
-0.918243
11
6.71575
21
-0.905512
0
LINE
8
BLACK
6
CONTINUOUS
10
6.71575
20
-0.905512
11
6.71495
21
-0.892781
0
LINE
8
BLACK
6
CONTINUOUS
10
6.71495
20
-0.892781
11
6.71256
21
-0.88025
0
LINE
8
BLACK
6
CONTINUOUS
10
6.71256
20
-0.88025
11
6.70862
21
-0.868118
0
LINE
8
BLACK
6
CONTINUOUS
10
6.70862
20
-0.868118
11
6.70319
21
-0.856576
0
LINE
8
BLACK
6
CONTINUOUS
10
6.70319
20
-0.856576
11
6.69635
21
-0.845806
0
LINE
8
BLACK
6
CONTINUOUS
10
6.69635
20
-0.845806
11
6.68822
21
-0.835977
0
LINE
8
BLACK
6
CONTINUOUS
10
6.68822
20
-0.835977
11
6.67892
21
-0.827244
0
LINE
8
BLACK
6
CONTINUOUS
10
6.67892
20
-0.827244
11
6.6686
21
-0.819746
0
LINE
8
BLACK
6
CONTINUOUS
10
6.6686
20
-0.819746
11
6.65742
21
-0.813601
0
LINE
8
BLACK
6
CONTINUOUS
10
6.65742
20
-0.813601
11
6.64556
21
-0.808905
0
LINE
8
BLACK
6
CONTINUOUS
10
6.64556
20
-0.808905
11
6.63321
21
-0.805733
0
LINE
8
BLACK
6
CONTINUOUS
10
6.63321
20
-0.805733
11
6.62055
21
-0.804134
0
LINE
8
BLACK
6
CONTINUOUS
10
6.62055
20
-0.804134
11
6.6078
21
-0.804134
0
LINE
8
BLACK
6
CONTINUOUS
10
6.6078
20
-0.804134
11
6.59514
21
-0.805733
0
LINE
8
BLACK
6
CONTINUOUS
10
6.59514
20
-0.805733
11
6.58278
21
-0.808905
0
LINE
8
BLACK
6
CONTINUOUS
10
6.58278
20
-0.808905
11
6.57092
21
-0.813601
0
LINE
8
BLACK
6
CONTINUOUS
10
6.57092
20
-0.813601
11
6.55974
21
-0.819746
0
LINE
8
BLACK
6
CONTINUOUS
10
6.55974
20
-0.819746
11
6.54942
21
-0.827244
0
LINE
8
BLACK
6
CONTINUOUS
10
6.54942
20
-0.827244
11
6.54013
21
-0.835977
0
LINE
8
BLACK
6
CONTINUOUS
10
6.54013
20
-0.835977
11
6.53199
21
-0.845806
0
LINE
8
BLACK
6
CONTINUOUS
10
6.53199
20
-0.845806
11
6.52516
21
-0.856576
0
LINE
8
BLACK
6
CONTINUOUS
10
6.52516
20
-0.856576
11
6.51973
21
-0.868118
0
LINE
8
BLACK
6
CONTINUOUS
10
6.51973
20
-0.868118
11
6.51579
21
-0.88025
0
LINE
8
BLACK
6
CONTINUOUS
10
6.51579
20
-0.88025
11
6.5134
21
-0.892781
0
LINE
8
BLACK
6
CONTINUOUS
10
6.5134
20
-0.892781
11
6.51259
21
-0.905512
0
LINE
8
BLACK
6
CONTINUOUS
10
5.13287
20
-0.905512
11
5.13363
21
-0.893055
0
LINE
8
BLACK
6
CONTINUOUS
10
5.13363
20
-0.893055
11
5.13588
21
-0.880779
0
LINE
8
BLACK
6
CONTINUOUS
10
5.13588
20
-0.880779
11
5.13959
21
-0.868865
0
LINE
8
BLACK
6
CONTINUOUS
10
5.13959
20
-0.868865
11
5.14471
21
-0.857484
0
LINE
8
BLACK
6
CONTINUOUS
10
5.14471
20
-0.857484
11
5.15117
21
-0.846804
0
LINE
8
BLACK
6
CONTINUOUS
10
5.15117
20
-0.846804
11
5.15886
21
-0.83698
0
LINE
8
BLACK
6
CONTINUOUS
10
5.15886
20
-0.83698
11
5.16769
21
-0.828156
0
LINE
8
BLACK
6
CONTINUOUS
10
5.16769
20
-0.828156
11
5.17751
21
-0.820459
0
LINE
8
BLACK
6
CONTINUOUS
10
5.17751
20
-0.820459
11
5.18819
21
-0.814003
0
LINE
8
BLACK
6
CONTINUOUS
10
5.18819
20
-0.814003
11
5.19957
21
-0.808881
0
LINE
8
BLACK
6
CONTINUOUS
10
5.19957
20
-0.808881
11
5.21149
21
-0.805168
0
LINE
8
BLACK
6
CONTINUOUS
10
5.21149
20
-0.805168
11
5.22376
21
-0.802919
0
LINE
8
BLACK
6
CONTINUOUS
10
5.22376
20
-0.802919
11
5.23622
21
-0.802165
0
LINE
8
BLACK
6
CONTINUOUS
10
5.23622
20
-0.802165
11
5.24868
21
-0.802919
0
LINE
8
BLACK
6
CONTINUOUS
10
5.24868
20
-0.802919
11
5.26095
21
-0.805168
0
LINE
8
BLACK
6
CONTINUOUS
10
5.26095
20
-0.805168
11
5.27287
21
-0.808881
0
LINE
8
BLACK
6
CONTINUOUS
10
5.27287
20
-0.808881
11
5.28425
21
-0.814003
0
LINE
8
BLACK
6
CONTINUOUS
10
5.28425
20
-0.814003
11
5.29493
21
-0.820459
0
LINE
8
BLACK
6
CONTINUOUS
10
5.29493
20
-0.820459
11
5.30475
21
-0.828156
0
LINE
8
BLACK
6
CONTINUOUS
10
5.30475
20
-0.828156
11
5.31358
21
-0.83698
0
LINE
8
BLACK
6
CONTINUOUS
10
5.31358
20
-0.83698
11
5.32127
21
-0.846804
0
LINE
8
BLACK
6
CONTINUOUS
10
5.32127
20
-0.846804
11
5.32773
21
-0.857484
0
LINE
8
BLACK
6
CONTINUOUS
10
5.32773
20
-0.857484
11
5.33285
21
-0.868865
0
LINE
8
BLACK
6
CONTINUOUS
10
5.33285
20
-0.868865
11
5.33656
21
-0.880779
0
LINE
8
BLACK
6
CONTINUOUS
10
5.33656
20
-0.880779
11
5.33881
21
-0.893055
0
LINE
8
BLACK
6
CONTINUOUS
10
5.33881
20
-0.893055
11
5.33957
21
-0.905512
0
LINE
8
BLACK
6
CONTINUOUS
10
5.33957
20
-0.905512
11
5.33881
21
-0.917969
0
LINE
8
BLACK
6
CONTINUOUS
10
5.33881
20
-0.917969
11
5.33656
21
-0.930244
0
LINE
8
BLACK
6
CONTINUOUS
10
5.33656
20
-0.930244
11
5.33285
21
-0.942159
0
LINE
8
BLACK
6
CONTINUOUS
10
5.33285
20
-0.942159
11
5.32773
21
-0.953539
0
LINE
8
BLACK
6
CONTINUOUS
10
5.32773
20
-0.953539
11
5.32127
21
-0.964219
0
LINE
8
BLACK
6
CONTINUOUS
10
5.32127
20
-0.964219
11
5.31358
21
-0.974043
0
LINE
8
BLACK
6
CONTINUOUS
10
5.31358
20
-0.974043
11
5.30475
21
-0.982868
0
LINE
8
BLACK
6
CONTINUOUS
10
5.30475
20
-0.982868
11
5.29493
21
-0.990564
0
LINE
8
BLACK
6
CONTINUOUS
10
5.29493
20
-0.990564
11
5.28425
21
-0.997021
0
LINE
8
BLACK
6
CONTINUOUS
10
5.28425
20
-0.997021
11
5.27287
21
-1.00214
0
LINE
8
BLACK
6
CONTINUOUS
10
5.27287
20
-1.00214
11
5.26095
21
-1.00586
0
LINE
8
BLACK
6
CONTINUOUS
10
5.26095
20
-1.00586
11
5.24868
21
-1.0081
0
LINE
8
BLACK
6
CONTINUOUS
10
5.24868
20
-1.0081
11
5.23622
21
-1.00886
0
LINE
8
BLACK
6
CONTINUOUS
10
5.23622
20
-1.00886
11
5.22376
21
-1.0081
0
LINE
8
BLACK
6
CONTINUOUS
10
5.22376
20
-1.0081
11
5.21149
21
-1.00586
0
LINE
8
BLACK
6
CONTINUOUS
10
5.21149
20
-1.00586
11
5.19957
21
-1.00214
0
LINE
8
BLACK
6
CONTINUOUS
10
5.19957
20
-1.00214
11
5.18819
21
-0.997021
0
LINE
8
BLACK
6
CONTINUOUS
10
5.18819
20
-0.997021
11
5.17751
21
-0.990564
0
LINE
8
BLACK
6
CONTINUOUS
10
5.17751
20
-0.990564
11
5.16769
21
-0.982868
0
LINE
8
BLACK
6
CONTINUOUS
10
5.16769
20
-0.982868
11
5.15886
21
-0.974043
0
LINE
8
BLACK
6
CONTINUOUS
10
5.15886
20
-0.974043
11
5.15117
21
-0.964219
0
LINE
8
BLACK
6
CONTINUOUS
10
5.15117
20
-0.964219
11
5.14471
21
-0.953539
0
LINE
8
BLACK
6
CONTINUOUS
10
5.14471
20
-0.953539
11
5.13959
21
-0.942159
0
LINE
8
BLACK
6
CONTINUOUS
10
5.13959
20
-0.942159
11
5.13588
21
-0.930244
0
LINE
8
BLACK
6
CONTINUOUS
10
5.13588
20
-0.930244
11
5.13363
21
-0.917969
0
LINE
8
BLACK
6
CONTINUOUS
10
5.13363
20
-0.917969
11
5.13287
21
-0.905512
0
LINE
8
BLACK
6
CONTINUOUS
10
5.13464
20
-0.905512
11
5.13544
21
-0.918243
0
LINE
8
BLACK
6
CONTINUOUS
10
5.13544
20
-0.918243
11
5.13783
21
-0.930773
0
LINE
8
BLACK
6
CONTINUOUS
10
5.13783
20
-0.930773
11
5.14178
21
-0.942905
0
LINE
8
BLACK
6
CONTINUOUS
10
5.14178
20
-0.942905
11
5.14721
21
-0.954448
0
LINE
8
BLACK
6
CONTINUOUS
10
5.14721
20
-0.954448
11
5.15404
21
-0.965218
0
LINE
8
BLACK
6
CONTINUOUS
10
5.15404
20
-0.965218
11
5.16217
21
-0.975047
0
LINE
8
BLACK
6
CONTINUOUS
10
5.16217
20
-0.975047
11
5.17147
21
-0.983779
0
LINE
8
BLACK
6
CONTINUOUS
10
5.17147
20
-0.983779
11
5.18179
21
-0.991277
0
LINE
8
BLACK
6
CONTINUOUS
10
5.18179
20
-0.991277
11
5.19297
21
-0.997423
0
LINE
8
BLACK
6
CONTINUOUS
10
5.19297
20
-0.997423
11
5.20483
21
-1.00212
0
LINE
8
BLACK
6
CONTINUOUS
10
5.20483
20
-1.00212
11
5.21719
21
-1.00529
0
LINE
8
BLACK
6
CONTINUOUS
10
5.21719
20
-1.00529
11
5.22984
21
-1.00689
0
LINE
8
BLACK
6
CONTINUOUS
10
5.22984
20
-1.00689
11
5.2426
21
-1.00689
0
LINE
8
BLACK
6
CONTINUOUS
10
5.2426
20
-1.00689
11
5.25525
21
-1.00529
0
LINE
8
BLACK
6
CONTINUOUS
10
5.25525
20
-1.00529
11
5.26761
21
-1.00212
0
LINE
8
BLACK
6
CONTINUOUS
10
5.26761
20
-1.00212
11
5.27947
21
-0.997423
0
LINE
8
BLACK
6
CONTINUOUS
10
5.27947
20
-0.997423
11
5.29065
21
-0.991277
0
LINE
8
BLACK
6
CONTINUOUS
10
5.29065
20
-0.991277
11
5.30097
21
-0.983779
0
LINE
8
BLACK
6
CONTINUOUS
10
5.30097
20
-0.983779
11
5.31027
21
-0.975047
0
LINE
8
BLACK
6
CONTINUOUS
10
5.31027
20
-0.975047
11
5.3184
21
-0.965218
0
LINE
8
BLACK
6
CONTINUOUS
10
5.3184
20
-0.965218
11
5.32523
21
-0.954448
0
LINE
8
BLACK
6
CONTINUOUS
10
5.32523
20
-0.954448
11
5.33067
21
-0.942905
0
LINE
8
BLACK
6
CONTINUOUS
10
5.33067
20
-0.942905
11
5.33461
21
-0.930773
0
LINE
8
BLACK
6
CONTINUOUS
10
5.33461
20
-0.930773
11
5.337
21
-0.918243
0
LINE
8
BLACK
6
CONTINUOUS
10
5.337
20
-0.918243
11
5.3378
21
-0.905512
0
LINE
8
BLACK
6
CONTINUOUS
10
5.3378
20
-0.905512
11
5.337
21
-0.892781
0
LINE
8
BLACK
6
CONTINUOUS
10
5.337
20
-0.892781
11
5.33461
21
-0.88025
0
LINE
8
BLACK
6
CONTINUOUS
10
5.33461
20
-0.88025
11
5.33067
21
-0.868118
0
LINE
8
BLACK
6
CONTINUOUS
10
5.33067
20
-0.868118
11
5.32523
21
-0.856576
0
LINE
8
BLACK
6
CONTINUOUS
10
5.32523
20
-0.856576
11
5.3184
21
-0.845806
0
LINE
8
BLACK
6
CONTINUOUS
10
5.3184
20
-0.845806
11
5.31027
21
-0.835977
0
LINE
8
BLACK
6
CONTINUOUS
10
5.31027
20
-0.835977
11
5.30097
21
-0.827244
0
LINE
8
BLACK
6
CONTINUOUS
10
5.30097
20
-0.827244
11
5.29065
21
-0.819746
0
LINE
8
BLACK
6
CONTINUOUS
10
5.29065
20
-0.819746
11
5.27947
21
-0.813601
0
LINE
8
BLACK
6
CONTINUOUS
10
5.27947
20
-0.813601
11
5.26761
21
-0.808905
0
LINE
8
BLACK
6
CONTINUOUS
10
5.26761
20
-0.808905
11
5.25525
21
-0.805733
0
LINE
8
BLACK
6
CONTINUOUS
10
5.25525
20
-0.805733
11
5.2426
21
-0.804134
0
LINE
8
BLACK
6
CONTINUOUS
10
5.2426
20
-0.804134
11
5.22984
21
-0.804134
0
LINE
8
BLACK
6
CONTINUOUS
10
5.22984
20
-0.804134
11
5.21719
21
-0.805733
0
LINE
8
BLACK
6
CONTINUOUS
10
5.21719
20
-0.805733
11
5.20483
21
-0.808905
0
LINE
8
BLACK
6
CONTINUOUS
10
5.20483
20
-0.808905
11
5.19297
21
-0.813601
0
LINE
8
BLACK
6
CONTINUOUS
10
5.19297
20
-0.813601
11
5.18179
21
-0.819746
0
LINE
8
BLACK
6
CONTINUOUS
10
5.18179
20
-0.819746
11
5.17147
21
-0.827244
0
LINE
8
BLACK
6
CONTINUOUS
10
5.17147
20
-0.827244
11
5.16217
21
-0.835977
0
LINE
8
BLACK
6
CONTINUOUS
10
5.16217
20
-0.835977
11
5.15404
21
-0.845806
0
LINE
8
BLACK
6
CONTINUOUS
10
5.15404
20
-0.845806
11
5.14721
21
-0.856576
0
LINE
8
BLACK
6
CONTINUOUS
10
5.14721
20
-0.856576
11
5.14178
21
-0.868118
0
LINE
8
BLACK
6
CONTINUOUS
10
5.14178
20
-0.868118
11
5.13783
21
-0.88025
0
LINE
8
BLACK
6
CONTINUOUS
10
5.13783
20
-0.88025
11
5.13544
21
-0.892781
0
LINE
8
BLACK
6
CONTINUOUS
10
5.13544
20
-0.892781
11
5.13464
21
-0.905512
0
LINE
8
BLACK
6
CONTINUOUS
10
2.92815
20
-0.905512
11
2.9289
21
-0.893055
0
LINE
8
BLACK
6
CONTINUOUS
10
2.9289
20
-0.893055
11
2.93115
21
-0.880779
0
LINE
8
BLACK
6
CONTINUOUS
10
2.93115
20
-0.880779
11
2.93487
21
-0.868865
0
LINE
8
BLACK
6
CONTINUOUS
10
2.93487
20
-0.868865
11
2.93999
21
-0.857484
0
LINE
8
BLACK
6
CONTINUOUS
10
2.93999
20
-0.857484
11
2.94644
21
-0.846804
0
LINE
8
BLACK
6
CONTINUOUS
10
2.94644
20
-0.846804
11
2.95414
21
-0.83698
0
LINE
8
BLACK
6
CONTINUOUS
10
2.95414
20
-0.83698
11
2.96296
21
-0.828156
0
LINE
8
BLACK
6
CONTINUOUS
10
2.96296
20
-0.828156
11
2.97279
21
-0.820459
0
LINE
8
BLACK
6
CONTINUOUS
10
2.97279
20
-0.820459
11
2.98347
21
-0.814003
0
LINE
8
BLACK
6
CONTINUOUS
10
2.98347
20
-0.814003
11
2.99485
21
-0.808881
0
LINE
8
BLACK
6
CONTINUOUS
10
2.99485
20
-0.808881
11
3.00676
21
-0.805168
0
LINE
8
BLACK
6
CONTINUOUS
10
3.00676
20
-0.805168
11
3.01904
21
-0.802919
0
LINE
8
BLACK
6
CONTINUOUS
10
3.01904
20
-0.802919
11
3.0315
21
-0.802165
0
LINE
8
BLACK
6
CONTINUOUS
10
3.0315
20
-0.802165
11
3.04395
21
-0.802919
0
LINE
8
BLACK
6
CONTINUOUS
10
3.04395
20
-0.802919
11
3.05623
21
-0.805168
0
LINE
8
BLACK
6
CONTINUOUS
10
3.05623
20
-0.805168
11
3.06814
21
-0.808881
0
LINE
8
BLACK
6
CONTINUOUS
10
3.06814
20
-0.808881
11
3.07952
21
-0.814003
0
LINE
8
BLACK
6
CONTINUOUS
10
3.07952
20
-0.814003
11
3.0902
21
-0.820459
0
LINE
8
BLACK
6
CONTINUOUS
10
3.0902
20
-0.820459
11
3.10003
21
-0.828156
0
LINE
8
BLACK
6
CONTINUOUS
10
3.10003
20
-0.828156
11
3.10885
21
-0.83698
0
LINE
8
BLACK
6
CONTINUOUS
10
3.10885
20
-0.83698
11
3.11655
21
-0.846804
0
LINE
8
BLACK
6
CONTINUOUS
10
3.11655
20
-0.846804
11
3.123
21
-0.857484
0
LINE
8
BLACK
6
CONTINUOUS
10
3.123
20
-0.857484
11
3.12813
21
-0.868865
0
LINE
8
BLACK
6
CONTINUOUS
10
3.12813
20
-0.868865
11
3.13184
21
-0.880779
0
LINE
8
BLACK
6
CONTINUOUS
10
3.13184
20
-0.880779
11
3.13409
21
-0.893055
0
LINE
8
BLACK
6
CONTINUOUS
10
3.13409
20
-0.893055
11
3.13484
21
-0.905512
0
LINE
8
BLACK
6
CONTINUOUS
10
3.13484
20
-0.905512
11
3.13409
21
-0.917969
0
LINE
8
BLACK
6
CONTINUOUS
10
3.13409
20
-0.917969
11
3.13184
21
-0.930244
0
LINE
8
BLACK
6
CONTINUOUS
10
3.13184
20
-0.930244
11
3.12813
21
-0.942159
0
LINE
8
BLACK
6
CONTINUOUS
10
3.12813
20
-0.942159
11
3.123
21
-0.953539
0
LINE
8
BLACK
6
CONTINUOUS
10
3.123
20
-0.953539
11
3.11655
21
-0.964219
0
LINE
8
BLACK
6
CONTINUOUS
10
3.11655
20
-0.964219
11
3.10885
21
-0.974043
0
LINE
8
BLACK
6
CONTINUOUS
10
3.10885
20
-0.974043
11
3.10003
21
-0.982868
0
LINE
8
BLACK
6
CONTINUOUS
10
3.10003
20
-0.982868
11
3.0902
21
-0.990564
0
LINE
8
BLACK
6
CONTINUOUS
10
3.0902
20
-0.990564
11
3.07952
21
-0.997021
0
LINE
8
BLACK
6
CONTINUOUS
10
3.07952
20
-0.997021
11
3.06814
21
-1.00214
0
LINE
8
BLACK
6
CONTINUOUS
10
3.06814
20
-1.00214
11
3.05623
21
-1.00586
0
LINE
8
BLACK
6
CONTINUOUS
10
3.05623
20
-1.00586
11
3.04395
21
-1.0081
0
LINE
8
BLACK
6
CONTINUOUS
10
3.04395
20
-1.0081
11
3.0315
21
-1.00886
0
LINE
8
BLACK
6
CONTINUOUS
10
3.0315
20
-1.00886
11
3.01904
21
-1.0081
0
LINE
8
BLACK
6
CONTINUOUS
10
3.01904
20
-1.0081
11
3.00676
21
-1.00586
0
LINE
8
BLACK
6
CONTINUOUS
10
3.00676
20
-1.00586
11
2.99485
21
-1.00214
0
LINE
8
BLACK
6
CONTINUOUS
10
2.99485
20
-1.00214
11
2.98347
21
-0.997021
0
LINE
8
BLACK
6
CONTINUOUS
10
2.98347
20
-0.997021
11
2.97279
21
-0.990564
0
LINE
8
BLACK
6
CONTINUOUS
10
2.97279
20
-0.990564
11
2.96296
21
-0.982868
0
LINE
8
BLACK
6
CONTINUOUS
10
2.96296
20
-0.982868
11
2.95414
21
-0.974043
0
LINE
8
BLACK
6
CONTINUOUS
10
2.95414
20
-0.974043
11
2.94644
21
-0.964219
0
LINE
8
BLACK
6
CONTINUOUS
10
2.94644
20
-0.964219
11
2.93999
21
-0.953539
0
LINE
8
BLACK
6
CONTINUOUS
10
2.93999
20
-0.953539
11
2.93487
21
-0.942159
0
LINE
8
BLACK
6
CONTINUOUS
10
2.93487
20
-0.942159
11
2.93115
21
-0.930244
0
LINE
8
BLACK
6
CONTINUOUS
10
2.93115
20
-0.930244
11
2.9289
21
-0.917969
0
LINE
8
BLACK
6
CONTINUOUS
10
2.9289
20
-0.917969
11
2.92815
21
-0.905512
0
LINE
8
BLACK
6
CONTINUOUS
10
2.92992
20
-0.905512
11
2.93072
21
-0.918243
0
LINE
8
BLACK
6
CONTINUOUS
10
2.93072
20
-0.918243
11
2.93311
21
-0.930773
0
LINE
8
BLACK
6
CONTINUOUS
10
2.93311
20
-0.930773
11
2.93705
21
-0.942905
0
LINE
8
BLACK
6
CONTINUOUS
10
2.93705
20
-0.942905
11
2.94248
21
-0.954448
0
LINE
8
BLACK
6
CONTINUOUS
10
2.94248
20
-0.954448
11
2.94932
21
-0.965218
0
LINE
8
BLACK
6
CONTINUOUS
10
2.94932
20
-0.965218
11
2.95745
21
-0.975047
0
LINE
8
BLACK
6
CONTINUOUS
10
2.95745
20
-0.975047
11
2.96675
21
-0.983779
0
LINE
8
BLACK
6
CONTINUOUS
10
2.96675
20
-0.983779
11
2.97707
21
-0.991277
0
LINE
8
BLACK
6
CONTINUOUS
10
2.97707
20
-0.991277
11
2.98825
21
-0.997423
0
LINE
8
BLACK
6
CONTINUOUS
10
2.98825
20
-0.997423
11
3.00011
21
-1.00212
0
LINE
8
BLACK
6
CONTINUOUS
10
3.00011
20
-1.00212
11
3.01246
21
-1.00529
0
LINE
8
BLACK
6
CONTINUOUS
10
3.01246
20
-1.00529
11
3.02512
21
-1.00689
0
LINE
8
BLACK
6
CONTINUOUS
10
3.02512
20
-1.00689
11
3.03787
21
-1.00689
0
LINE
8
BLACK
6
CONTINUOUS
10
3.03787
20
-1.00689
11
3.05053
21
-1.00529
0
LINE
8
BLACK
6
CONTINUOUS
10
3.05053
20
-1.00529
11
3.06289
21
-1.00212
0
LINE
8
BLACK
6
CONTINUOUS
10
3.06289
20
-1.00212
11
3.07475
21
-0.997423
0
LINE
8
BLACK
6
CONTINUOUS
10
3.07475
20
-0.997423
11
3.08592
21
-0.991277
0
LINE
8
BLACK
6
CONTINUOUS
10
3.08592
20
-0.991277
11
3.09624
21
-0.983779
0
LINE
8
BLACK
6
CONTINUOUS
10
3.09624
20
-0.983779
11
3.10554
21
-0.975047
0
LINE
8
BLACK
6
CONTINUOUS
10
3.10554
20
-0.975047
11
3.11367
21
-0.965218
0
LINE
8
BLACK
6
CONTINUOUS
10
3.11367
20
-0.965218
11
3.12051
21
-0.954448
0
LINE
8
BLACK
6
CONTINUOUS
10
3.12051
20
-0.954448
11
3.12594
21
-0.942905
0
LINE
8
BLACK
6
CONTINUOUS
10
3.12594
20
-0.942905
11
3.12988
21
-0.930773
0
LINE
8
BLACK
6
CONTINUOUS
10
3.12988
20
-0.930773
11
3.13227
21
-0.918243
0
LINE
8
BLACK
6
CONTINUOUS
10
3.13227
20
-0.918243
11
3.13307
21
-0.905512
0
LINE
8
BLACK
6
CONTINUOUS
10
3.13307
20
-0.905512
11
3.13227
21
-0.892781
0
LINE
8
BLACK
6
CONTINUOUS
10
3.13227
20
-0.892781
11
3.12988
21
-0.88025
0
LINE
8
BLACK
6
CONTINUOUS
10
3.12988
20
-0.88025
11
3.12594
21
-0.868118
0
LINE
8
BLACK
6
CONTINUOUS
10
3.12594
20
-0.868118
11
3.12051
21
-0.856576
0
LINE
8
BLACK
6
CONTINUOUS
10
3.12051
20
-0.856576
11
3.11367
21
-0.845806
0
LINE
8
BLACK
6
CONTINUOUS
10
3.11367
20
-0.845806
11
3.10554
21
-0.835977
0
LINE
8
BLACK
6
CONTINUOUS
10
3.10554
20
-0.835977
11
3.09624
21
-0.827244
0
LINE
8
BLACK
6
CONTINUOUS
10
3.09624
20
-0.827244
11
3.08592
21
-0.819746
0
LINE
8
BLACK
6
CONTINUOUS
10
3.08592
20
-0.819746
11
3.07475
21
-0.813601
0
LINE
8
BLACK
6
CONTINUOUS
10
3.07475
20
-0.813601
11
3.06289
21
-0.808905
0
LINE
8
BLACK
6
CONTINUOUS
10
3.06289
20
-0.808905
11
3.05053
21
-0.805733
0
LINE
8
BLACK
6
CONTINUOUS
10
3.05053
20
-0.805733
11
3.03787
21
-0.804134
0
LINE
8
BLACK
6
CONTINUOUS
10
3.03787
20
-0.804134
11
3.02512
21
-0.804134
0
LINE
8
BLACK
6
CONTINUOUS
10
3.02512
20
-0.804134
11
3.01246
21
-0.805733
0
LINE
8
BLACK
6
CONTINUOUS
10
3.01246
20
-0.805733
11
3.00011
21
-0.808905
0
LINE
8
BLACK
6
CONTINUOUS
10
3.00011
20
-0.808905
11
2.98825
21
-0.813601
0
LINE
8
BLACK
6
CONTINUOUS
10
2.98825
20
-0.813601
11
2.97707
21
-0.819746
0
LINE
8
BLACK
6
CONTINUOUS
10
2.97707
20
-0.819746
11
2.96675
21
-0.827244
0
LINE
8
BLACK
6
CONTINUOUS
10
2.96675
20
-0.827244
11
2.95745
21
-0.835977
0
LINE
8
BLACK
6
CONTINUOUS
10
2.95745
20
-0.835977
11
2.94932
21
-0.845806
0
LINE
8
BLACK
6
CONTINUOUS
10
2.94932
20
-0.845806
11
2.94248
21
-0.856576
0
LINE
8
BLACK
6
CONTINUOUS
10
2.94248
20
-0.856576
11
2.93705
21
-0.868118
0
LINE
8
BLACK
6
CONTINUOUS
10
2.93705
20
-0.868118
11
2.93311
21
-0.88025
0
LINE
8
BLACK
6
CONTINUOUS
10
2.93311
20
-0.88025
11
2.93072
21
-0.892781
0
LINE
8
BLACK
6
CONTINUOUS
10
2.93072
20
-0.892781
11
2.92992
21
-0.905512
  0
ENDSEC
  0
EOF
