  0
SECTION
  2
HEADER
  9
$ANGBASE
  50
0.0
  9
$ANGDIR
  70
1
  9
$MEASUREMENT
  70
0
  0
ENDSEC
  0
SECTION
  2
TABLES
  0
TABLE
  2
LTYPE
  70
4
  0
LTYPE
  5
40F
  2
CONTINUOUS
  70
0
  3
Solid line
  72
65
  73
0
  40
0.0
  0
LTYPE
  5
410
  2
DASHDOT
 70
0
  3
Dash Dot ____ _ ____ _
 72
65
 73
4
 40
2.0
 49
1.25
 49
-0.25
 49
0.25
 49
-0.25
  0
LTYPE
  5
411
  2
DASHED
 70
0
  3
Dashed __ __ __ __ __
 72
65
 73
2
 40
0.75
 49
0.5
 49
-0.25
  0
LTYPE
  5
43B
  2
DOTTED
 70
0
  3
Dotted .  .  .  .
 72
65
 73
2
 40
0.2
 49
0.0
 49
-0.2
  0
ENDTAB
  0
TABLE
  2
STYLE
  70
4
  0
STYLE
  2
KICAD
  70
0
  40
0
  41
1
  42
1
  50
0
  71
0
  3
isocp.shx
  0
STYLE
  2
KICADB
  70
0
  40
0
  41
1
  42
1
  50
0
  71
0
  3
isocp.shx
  0
STYLE
  2
KICADI
  70
0
  40
0
  41
1
  42
1
  50
15
  71
0
  3
isocp.shx
  0
STYLE
  2
KICADBI
  70
0
  40
0
  41
1
  42
1
  50
15
  71
0
  3
isocp.shx
  0
ENDTAB
  0
TABLE
  2
LAYER
  70
1
  0
LAYER
  2
BLACK
  70
0
  62
7
  6
CONTINUOUS
  0
ENDTAB
  0
ENDSEC
  0
SECTION
  2
ENTITIES
0
LINE
8
BLACK
6
CONTINUOUS
10
6.2689
20
-4.62069
11
6.26959
21
-4.62098
0
LINE
8
BLACK
6
CONTINUOUS
10
6.26959
20
-4.62098
11
6.26988
21
-4.62168
0
LINE
8
BLACK
6
CONTINUOUS
10
6.26988
20
-4.62168
11
6.26988
21
-4.86183
0
LINE
8
BLACK
6
CONTINUOUS
10
6.26988
20
-4.86183
11
6.26959
21
-4.86253
0
LINE
8
BLACK
6
CONTINUOUS
10
6.26959
20
-4.86253
11
6.2689
21
-4.86282
0
LINE
8
BLACK
6
CONTINUOUS
10
6.2689
20
-4.86282
11
5.92835
21
-4.86282
0
LINE
8
BLACK
6
CONTINUOUS
10
5.92835
20
-4.86282
11
5.92765
21
-4.86253
0
LINE
8
BLACK
6
CONTINUOUS
10
5.92765
20
-4.86253
11
5.92736
21
-4.86183
0
LINE
8
BLACK
6
CONTINUOUS
10
5.92736
20
-4.86183
11
5.92736
21
-4.62168
0
LINE
8
BLACK
6
CONTINUOUS
10
5.92736
20
-4.62168
11
5.92765
21
-4.62098
0
LINE
8
BLACK
6
CONTINUOUS
10
5.92765
20
-4.62098
11
5.92835
21
-4.62069
0
LINE
8
BLACK
6
CONTINUOUS
10
5.92835
20
-4.62069
11
6.2689
21
-4.62069
0
LINE
8
BLACK
6
CONTINUOUS
10
5.92933
20
-4.62266
11
5.92933
21
-4.86085
0
LINE
8
BLACK
6
CONTINUOUS
10
5.92933
20
-4.86085
11
6.26791
21
-4.86085
0
LINE
8
BLACK
6
CONTINUOUS
10
6.26791
20
-4.86085
11
6.26791
21
-4.62266
0
LINE
8
BLACK
6
CONTINUOUS
10
6.26791
20
-4.62266
11
5.92933
21
-4.62266
0
LINE
8
BLACK
6
CONTINUOUS
10
4.80354
20
-2.6201
11
4.80424
21
-2.62039
0
LINE
8
BLACK
6
CONTINUOUS
10
4.80424
20
-2.62039
11
4.80453
21
-2.62109
0
LINE
8
BLACK
6
CONTINUOUS
10
4.80453
20
-2.62109
11
4.80453
21
-4.66046
0
LINE
8
BLACK
6
CONTINUOUS
10
4.80453
20
-4.66046
11
4.80424
21
-4.66115
0
LINE
8
BLACK
6
CONTINUOUS
10
4.80424
20
-4.66115
11
4.80354
21
-4.66144
0
LINE
8
BLACK
6
CONTINUOUS
10
4.80354
20
-4.66144
11
4.56339
21
-4.66144
0
LINE
8
BLACK
6
CONTINUOUS
10
4.56339
20
-4.66144
11
4.56269
21
-4.66115
0
LINE
8
BLACK
6
CONTINUOUS
10
4.56269
20
-4.66115
11
4.5624
21
-4.66046
0
LINE
8
BLACK
6
CONTINUOUS
10
4.5624
20
-4.66046
11
4.5624
21
-2.62109
0
LINE
8
BLACK
6
CONTINUOUS
10
4.5624
20
-2.62109
11
4.56269
21
-2.62039
0
LINE
8
BLACK
6
CONTINUOUS
10
4.56269
20
-2.62039
11
4.56339
21
-2.6201
0
LINE
8
BLACK
6
CONTINUOUS
10
4.56339
20
-2.6201
11
4.80354
21
-2.6201
0
LINE
8
BLACK
6
CONTINUOUS
10
4.56437
20
-2.62207
11
4.56437
21
-4.65947
0
LINE
8
BLACK
6
CONTINUOUS
10
4.56437
20
-4.65947
11
4.80256
21
-4.65947
0
LINE
8
BLACK
6
CONTINUOUS
10
4.80256
20
-4.65947
11
4.80256
21
-2.62207
0
LINE
8
BLACK
6
CONTINUOUS
10
4.80256
20
-2.62207
11
4.56437
21
-2.62207
0
LINE
8
BLACK
6
CONTINUOUS
10
3.92283
20
-4.01358
11
3.92353
21
-4.01387
0
LINE
8
BLACK
6
CONTINUOUS
10
3.92353
20
-4.01387
11
3.92382
21
-4.01457
0
LINE
8
BLACK
6
CONTINUOUS
10
3.92382
20
-4.01457
11
3.92382
21
-4.25669
0
LINE
8
BLACK
6
CONTINUOUS
10
3.92382
20
-4.25669
11
3.92353
21
-4.25739
0
LINE
8
BLACK
6
CONTINUOUS
10
3.92353
20
-4.25739
11
3.92283
21
-4.25768
0
LINE
8
BLACK
6
CONTINUOUS
10
3.92283
20
-4.25768
11
1.8815
21
-4.25768
0
LINE
8
BLACK
6
CONTINUOUS
10
1.8815
20
-4.25768
11
1.8808
21
-4.25739
0
LINE
8
BLACK
6
CONTINUOUS
10
1.8808
20
-4.25739
11
1.88051
21
-4.25669
0
LINE
8
BLACK
6
CONTINUOUS
10
1.88051
20
-4.25669
11
1.88051
21
-4.01457
0
LINE
8
BLACK
6
CONTINUOUS
10
1.88051
20
-4.01457
11
1.8808
21
-4.01387
0
LINE
8
BLACK
6
CONTINUOUS
10
1.8808
20
-4.01387
11
1.8815
21
-4.01358
0
LINE
8
BLACK
6
CONTINUOUS
10
1.8815
20
-4.01358
11
3.92283
21
-4.01358
0
LINE
8
BLACK
6
CONTINUOUS
10
1.88248
20
-4.01555
11
1.88248
21
-4.25571
0
LINE
8
BLACK
6
CONTINUOUS
10
1.88248
20
-4.25571
11
3.92185
21
-4.25571
0
LINE
8
BLACK
6
CONTINUOUS
10
3.92185
20
-4.25571
11
3.92185
21
-4.01555
0
LINE
8
BLACK
6
CONTINUOUS
10
3.92185
20
-4.01555
11
1.88248
21
-4.01555
0
LINE
8
BLACK
6
CONTINUOUS
10
4.54429
20
-3.47087
11
4.54499
21
-3.47115
0
LINE
8
BLACK
6
CONTINUOUS
10
4.54499
20
-3.47115
11
4.54528
21
-3.47185
0
LINE
8
BLACK
6
CONTINUOUS
10
4.54528
20
-3.47185
11
4.54528
21
-3.9128
0
LINE
8
BLACK
6
CONTINUOUS
10
4.54528
20
-3.9128
11
4.54499
21
-3.91349
0
LINE
8
BLACK
6
CONTINUOUS
10
4.54499
20
-3.91349
11
4.54429
21
-3.91378
0
LINE
8
BLACK
6
CONTINUOUS
10
4.54429
20
-3.91378
11
4.40256
21
-3.91378
0
LINE
8
BLACK
6
CONTINUOUS
10
4.40256
20
-3.91378
11
4.40186
21
-3.91349
0
LINE
8
BLACK
6
CONTINUOUS
10
4.40186
20
-3.91349
11
4.40157
21
-3.9128
0
LINE
8
BLACK
6
CONTINUOUS
10
4.40157
20
-3.9128
11
4.40157
21
-3.47185
0
LINE
8
BLACK
6
CONTINUOUS
10
4.40157
20
-3.47185
11
4.40186
21
-3.47115
0
LINE
8
BLACK
6
CONTINUOUS
10
4.40186
20
-3.47115
11
4.40256
21
-3.47087
0
LINE
8
BLACK
6
CONTINUOUS
10
4.40256
20
-3.47087
11
4.54429
21
-3.47087
0
LINE
8
BLACK
6
CONTINUOUS
10
4.40354
20
-3.47283
11
4.40354
21
-3.91181
0
LINE
8
BLACK
6
CONTINUOUS
10
4.40354
20
-3.91181
11
4.54331
21
-3.91181
0
LINE
8
BLACK
6
CONTINUOUS
10
4.54331
20
-3.91181
11
4.54331
21
-3.47283
0
LINE
8
BLACK
6
CONTINUOUS
10
4.54331
20
-3.47283
11
4.40354
21
-3.47283
0
LINE
8
BLACK
6
CONTINUOUS
10
1.78799
20
-3.1876
11
1.78869
21
-3.18789
0
LINE
8
BLACK
6
CONTINUOUS
10
1.78869
20
-3.18789
11
1.78898
21
-3.18858
0
LINE
8
BLACK
6
CONTINUOUS
10
1.78898
20
-3.18858
11
1.78898
21
-3.52913
0
LINE
8
BLACK
6
CONTINUOUS
10
1.78898
20
-3.52913
11
1.78869
21
-3.52983
0
LINE
8
BLACK
6
CONTINUOUS
10
1.78869
20
-3.52983
11
1.78799
21
-3.53012
0
LINE
8
BLACK
6
CONTINUOUS
10
1.78799
20
-3.53012
11
1.30177
21
-3.53012
0
LINE
8
BLACK
6
CONTINUOUS
10
1.30177
20
-3.53012
11
1.30108
21
-3.52983
0
LINE
8
BLACK
6
CONTINUOUS
10
1.30108
20
-3.52983
11
1.30079
21
-3.52913
0
LINE
8
BLACK
6
CONTINUOUS
10
1.30079
20
-3.52913
11
1.30079
21
-3.18858
0
LINE
8
BLACK
6
CONTINUOUS
10
1.30079
20
-3.18858
11
1.30108
21
-3.18789
0
LINE
8
BLACK
6
CONTINUOUS
10
1.30108
20
-3.18789
11
1.30177
21
-3.1876
0
LINE
8
BLACK
6
CONTINUOUS
10
1.30177
20
-3.1876
11
1.78799
21
-3.1876
0
LINE
8
BLACK
6
CONTINUOUS
10
1.30276
20
-3.18957
11
1.30276
21
-3.52815
0
LINE
8
BLACK
6
CONTINUOUS
10
1.30276
20
-3.52815
11
1.78701
21
-3.52815
0
LINE
8
BLACK
6
CONTINUOUS
10
1.78701
20
-3.52815
11
1.78701
21
-3.18957
0
LINE
8
BLACK
6
CONTINUOUS
10
1.78701
20
-3.18957
11
1.30276
21
-3.18957
0
LINE
8
BLACK
6
CONTINUOUS
10
6.23287
20
-2.87483
11
6.23357
21
-2.87512
0
LINE
8
BLACK
6
CONTINUOUS
10
6.23357
20
-2.87512
11
6.23386
21
-2.87581
0
LINE
8
BLACK
6
CONTINUOUS
10
6.23386
20
-2.87581
11
6.23386
21
-3.21636
0
LINE
8
BLACK
6
CONTINUOUS
10
6.23386
20
-3.21636
11
6.23357
21
-3.21706
0
LINE
8
BLACK
6
CONTINUOUS
10
6.23357
20
-3.21706
11
6.23287
21
-3.21735
0
LINE
8
BLACK
6
CONTINUOUS
10
6.23287
20
-3.21735
11
5.99272
21
-3.21735
0
LINE
8
BLACK
6
CONTINUOUS
10
5.99272
20
-3.21735
11
5.99202
21
-3.21706
0
LINE
8
BLACK
6
CONTINUOUS
10
5.99202
20
-3.21706
11
5.99173
21
-3.21636
0
LINE
8
BLACK
6
CONTINUOUS
10
5.99173
20
-3.21636
11
5.99173
21
-2.87581
0
LINE
8
BLACK
6
CONTINUOUS
10
5.99173
20
-2.87581
11
5.99202
21
-2.87512
0
LINE
8
BLACK
6
CONTINUOUS
10
5.99202
20
-2.87512
11
5.99272
21
-2.87483
0
LINE
8
BLACK
6
CONTINUOUS
10
5.99272
20
-2.87483
11
6.23287
21
-2.87483
0
LINE
8
BLACK
6
CONTINUOUS
10
5.9937
20
-2.8768
11
5.9937
21
-3.21538
0
LINE
8
BLACK
6
CONTINUOUS
10
5.9937
20
-3.21538
11
6.23189
21
-3.21538
0
LINE
8
BLACK
6
CONTINUOUS
10
6.23189
20
-3.21538
11
6.23189
21
-2.8768
0
LINE
8
BLACK
6
CONTINUOUS
10
6.23189
20
-2.8768
11
5.9937
21
-2.8768
0
LINE
8
BLACK
6
CONTINUOUS
10
4.96109
20
-1.96876
11
4.96184
21
-1.96116
0
LINE
8
BLACK
6
CONTINUOUS
10
4.96184
20
-1.96116
11
4.96406
21
-1.95385
0
LINE
8
BLACK
6
CONTINUOUS
10
4.96406
20
-1.95385
11
4.96766
21
-1.94711
0
LINE
8
BLACK
6
CONTINUOUS
10
4.96766
20
-1.94711
11
4.97251
21
-1.9412
0
LINE
8
BLACK
6
CONTINUOUS
10
4.97251
20
-1.9412
11
4.97842
21
-1.93635
0
LINE
8
BLACK
6
CONTINUOUS
10
4.97842
20
-1.93635
11
4.98516
21
-1.93275
0
LINE
8
BLACK
6
CONTINUOUS
10
4.98516
20
-1.93275
11
4.99247
21
-1.93053
0
LINE
8
BLACK
6
CONTINUOUS
10
4.99247
20
-1.93053
11
5.00007
21
-1.92978
0
LINE
8
BLACK
6
CONTINUOUS
10
5.00007
20
-1.92978
11
5.00768
21
-1.93053
0
LINE
8
BLACK
6
CONTINUOUS
10
5.00768
20
-1.93053
11
5.01499
21
-1.93275
0
LINE
8
BLACK
6
CONTINUOUS
10
5.01499
20
-1.93275
11
5.02173
21
-1.93635
0
LINE
8
BLACK
6
CONTINUOUS
10
5.02173
20
-1.93635
11
5.02764
21
-1.9412
0
LINE
8
BLACK
6
CONTINUOUS
10
5.02764
20
-1.9412
11
5.03249
21
-1.94711
0
LINE
8
BLACK
6
CONTINUOUS
10
5.03249
20
-1.94711
11
5.03609
21
-1.95385
0
LINE
8
BLACK
6
CONTINUOUS
10
5.03609
20
-1.95385
11
5.03831
21
-1.96116
0
LINE
8
BLACK
6
CONTINUOUS
10
5.03831
20
-1.96116
11
5.03906
21
-1.96876
0
LINE
8
BLACK
6
CONTINUOUS
10
5.03906
20
-1.96876
11
5.03831
21
-1.97637
0
LINE
8
BLACK
6
CONTINUOUS
10
5.03831
20
-1.97637
11
5.03609
21
-1.98368
0
LINE
8
BLACK
6
CONTINUOUS
10
5.03609
20
-1.98368
11
5.03249
21
-1.99042
0
LINE
8
BLACK
6
CONTINUOUS
10
5.03249
20
-1.99042
11
5.02764
21
-1.99633
0
LINE
8
BLACK
6
CONTINUOUS
10
5.02764
20
-1.99633
11
5.02173
21
-2.00118
0
LINE
8
BLACK
6
CONTINUOUS
10
5.02173
20
-2.00118
11
5.01499
21
-2.00478
0
LINE
8
BLACK
6
CONTINUOUS
10
5.01499
20
-2.00478
11
5.00768
21
-2.007
0
LINE
8
BLACK
6
CONTINUOUS
10
5.00768
20
-2.007
11
5.00007
21
-2.00775
0
LINE
8
BLACK
6
CONTINUOUS
10
5.00007
20
-2.00775
11
4.99247
21
-2.007
0
LINE
8
BLACK
6
CONTINUOUS
10
4.99247
20
-2.007
11
4.98516
21
-2.00478
0
LINE
8
BLACK
6
CONTINUOUS
10
4.98516
20
-2.00478
11
4.97842
21
-2.00118
0
LINE
8
BLACK
6
CONTINUOUS
10
4.97842
20
-2.00118
11
4.97251
21
-1.99633
0
LINE
8
BLACK
6
CONTINUOUS
10
4.97251
20
-1.99633
11
4.96766
21
-1.99042
0
LINE
8
BLACK
6
CONTINUOUS
10
4.96766
20
-1.99042
11
4.96406
21
-1.98368
0
LINE
8
BLACK
6
CONTINUOUS
10
4.96406
20
-1.98368
11
4.96184
21
-1.97637
0
LINE
8
BLACK
6
CONTINUOUS
10
4.96184
20
-1.97637
11
4.96109
21
-1.96876
0
LINE
8
BLACK
6
CONTINUOUS
10
4.96285
20
-1.96876
11
4.96367
21
-1.9765
0
LINE
8
BLACK
6
CONTINUOUS
10
4.96367
20
-1.9765
11
4.96607
21
-1.9839
0
LINE
8
BLACK
6
CONTINUOUS
10
4.96607
20
-1.9839
11
4.96996
21
-1.99064
0
LINE
8
BLACK
6
CONTINUOUS
10
4.96996
20
-1.99064
11
4.97517
21
-1.99642
0
LINE
8
BLACK
6
CONTINUOUS
10
4.97517
20
-1.99642
11
4.98146
21
-2.001
0
LINE
8
BLACK
6
CONTINUOUS
10
4.98146
20
-2.001
11
4.98857
21
-2.00416
0
LINE
8
BLACK
6
CONTINUOUS
10
4.98857
20
-2.00416
11
4.99618
21
-2.00578
0
LINE
8
BLACK
6
CONTINUOUS
10
4.99618
20
-2.00578
11
5.00396
21
-2.00578
0
LINE
8
BLACK
6
CONTINUOUS
10
5.00396
20
-2.00578
11
5.01158
21
-2.00416
0
LINE
8
BLACK
6
CONTINUOUS
10
5.01158
20
-2.00416
11
5.01868
21
-2.001
0
LINE
8
BLACK
6
CONTINUOUS
10
5.01868
20
-2.001
11
5.02498
21
-1.99642
0
LINE
8
BLACK
6
CONTINUOUS
10
5.02498
20
-1.99642
11
5.03019
21
-1.99064
0
LINE
8
BLACK
6
CONTINUOUS
10
5.03019
20
-1.99064
11
5.03408
21
-1.9839
0
LINE
8
BLACK
6
CONTINUOUS
10
5.03408
20
-1.9839
11
5.03648
21
-1.9765
0
LINE
8
BLACK
6
CONTINUOUS
10
5.03648
20
-1.9765
11
5.03729
21
-1.96876
0
LINE
8
BLACK
6
CONTINUOUS
10
5.03729
20
-1.96876
11
5.03648
21
-1.96103
0
LINE
8
BLACK
6
CONTINUOUS
10
5.03648
20
-1.96103
11
5.03408
21
-1.95363
0
LINE
8
BLACK
6
CONTINUOUS
10
5.03408
20
-1.95363
11
5.03019
21
-1.94689
0
LINE
8
BLACK
6
CONTINUOUS
10
5.03019
20
-1.94689
11
5.02498
21
-1.9411
0
LINE
8
BLACK
6
CONTINUOUS
10
5.02498
20
-1.9411
11
5.01868
21
-1.93653
0
LINE
8
BLACK
6
CONTINUOUS
10
5.01868
20
-1.93653
11
5.01158
21
-1.93337
0
LINE
8
BLACK
6
CONTINUOUS
10
5.01158
20
-1.93337
11
5.00396
21
-1.93175
0
LINE
8
BLACK
6
CONTINUOUS
10
5.00396
20
-1.93175
11
4.99618
21
-1.93175
0
LINE
8
BLACK
6
CONTINUOUS
10
4.99618
20
-1.93175
11
4.98857
21
-1.93337
0
LINE
8
BLACK
6
CONTINUOUS
10
4.98857
20
-1.93337
11
4.98146
21
-1.93653
0
LINE
8
BLACK
6
CONTINUOUS
10
4.98146
20
-1.93653
11
4.97517
21
-1.9411
0
LINE
8
BLACK
6
CONTINUOUS
10
4.97517
20
-1.9411
11
4.96996
21
-1.94689
0
LINE
8
BLACK
6
CONTINUOUS
10
4.96996
20
-1.94689
11
4.96607
21
-1.95363
0
LINE
8
BLACK
6
CONTINUOUS
10
4.96607
20
-1.95363
11
4.96367
21
-1.96103
0
LINE
8
BLACK
6
CONTINUOUS
10
4.96367
20
-1.96103
11
4.96285
21
-1.96876
0
LINE
8
BLACK
6
CONTINUOUS
10
4.961
20
-1.88976
11
4.96175
21
-1.88216
0
LINE
8
BLACK
6
CONTINUOUS
10
4.96175
20
-1.88216
11
4.96397
21
-1.87484
0
LINE
8
BLACK
6
CONTINUOUS
10
4.96397
20
-1.87484
11
4.96757
21
-1.8681
0
LINE
8
BLACK
6
CONTINUOUS
10
4.96757
20
-1.8681
11
4.97242
21
-1.86219
0
LINE
8
BLACK
6
CONTINUOUS
10
4.97242
20
-1.86219
11
4.97833
21
-1.85734
0
LINE
8
BLACK
6
CONTINUOUS
10
4.97833
20
-1.85734
11
4.98508
21
-1.85373
0
LINE
8
BLACK
6
CONTINUOUS
10
4.98508
20
-1.85373
11
4.99239
21
-1.85152
0
LINE
8
BLACK
6
CONTINUOUS
10
4.99239
20
-1.85152
11
5
21
-1.85077
0
LINE
8
BLACK
6
CONTINUOUS
10
5
20
-1.85077
11
5.00761
21
-1.85152
0
LINE
8
BLACK
6
CONTINUOUS
10
5.00761
20
-1.85152
11
5.01492
21
-1.85373
0
LINE
8
BLACK
6
CONTINUOUS
10
5.01492
20
-1.85373
11
5.02167
21
-1.85734
0
LINE
8
BLACK
6
CONTINUOUS
10
5.02167
20
-1.85734
11
5.02758
21
-1.86219
0
LINE
8
BLACK
6
CONTINUOUS
10
5.02758
20
-1.86219
11
5.03243
21
-1.8681
0
LINE
8
BLACK
6
CONTINUOUS
10
5.03243
20
-1.8681
11
5.03603
21
-1.87484
0
LINE
8
BLACK
6
CONTINUOUS
10
5.03603
20
-1.87484
11
5.03825
21
-1.88216
0
LINE
8
BLACK
6
CONTINUOUS
10
5.03825
20
-1.88216
11
5.039
21
-1.88976
0
LINE
8
BLACK
6
CONTINUOUS
10
5.039
20
-1.88976
11
5.03825
21
-1.89737
0
LINE
8
BLACK
6
CONTINUOUS
10
5.03825
20
-1.89737
11
5.03603
21
-1.90469
0
LINE
8
BLACK
6
CONTINUOUS
10
5.03603
20
-1.90469
11
5.03243
21
-1.91143
0
LINE
8
BLACK
6
CONTINUOUS
10
5.03243
20
-1.91143
11
5.02758
21
-1.91734
0
LINE
8
BLACK
6
CONTINUOUS
10
5.02758
20
-1.91734
11
5.02167
21
-1.92219
0
LINE
8
BLACK
6
CONTINUOUS
10
5.02167
20
-1.92219
11
5.01492
21
-1.92579
0
LINE
8
BLACK
6
CONTINUOUS
10
5.01492
20
-1.92579
11
5.00761
21
-1.92801
0
LINE
8
BLACK
6
CONTINUOUS
10
5.00761
20
-1.92801
11
5
21
-1.92876
0
LINE
8
BLACK
6
CONTINUOUS
10
5
20
-1.92876
11
4.99239
21
-1.92801
0
LINE
8
BLACK
6
CONTINUOUS
10
4.99239
20
-1.92801
11
4.98508
21
-1.92579
0
LINE
8
BLACK
6
CONTINUOUS
10
4.98508
20
-1.92579
11
4.97833
21
-1.92219
0
LINE
8
BLACK
6
CONTINUOUS
10
4.97833
20
-1.92219
11
4.97242
21
-1.91734
0
LINE
8
BLACK
6
CONTINUOUS
10
4.97242
20
-1.91734
11
4.96757
21
-1.91143
0
LINE
8
BLACK
6
CONTINUOUS
10
4.96757
20
-1.91143
11
4.96397
21
-1.90469
0
LINE
8
BLACK
6
CONTINUOUS
10
4.96397
20
-1.90469
11
4.96175
21
-1.89737
0
LINE
8
BLACK
6
CONTINUOUS
10
4.96175
20
-1.89737
11
4.961
21
-1.88976
0
LINE
8
BLACK
6
CONTINUOUS
10
4.96277
20
-1.88976
11
4.96358
21
-1.8975
0
LINE
8
BLACK
6
CONTINUOUS
10
4.96358
20
-1.8975
11
4.96599
21
-1.90491
0
LINE
8
BLACK
6
CONTINUOUS
10
4.96599
20
-1.90491
11
4.96988
21
-1.91165
0
LINE
8
BLACK
6
CONTINUOUS
10
4.96988
20
-1.91165
11
4.97509
21
-1.91743
0
LINE
8
BLACK
6
CONTINUOUS
10
4.97509
20
-1.91743
11
4.98138
21
-1.92201
0
LINE
8
BLACK
6
CONTINUOUS
10
4.98138
20
-1.92201
11
4.98849
21
-1.92517
0
LINE
8
BLACK
6
CONTINUOUS
10
4.98849
20
-1.92517
11
4.99611
21
-1.92679
0
LINE
8
BLACK
6
CONTINUOUS
10
4.99611
20
-1.92679
11
5.00389
21
-1.92679
0
LINE
8
BLACK
6
CONTINUOUS
10
5.00389
20
-1.92679
11
5.01151
21
-1.92517
0
LINE
8
BLACK
6
CONTINUOUS
10
5.01151
20
-1.92517
11
5.01862
21
-1.92201
0
LINE
8
BLACK
6
CONTINUOUS
10
5.01862
20
-1.92201
11
5.02491
21
-1.91743
0
LINE
8
BLACK
6
CONTINUOUS
10
5.02491
20
-1.91743
11
5.03012
21
-1.91165
0
LINE
8
BLACK
6
CONTINUOUS
10
5.03012
20
-1.91165
11
5.03401
21
-1.90491
0
LINE
8
BLACK
6
CONTINUOUS
10
5.03401
20
-1.90491
11
5.03642
21
-1.8975
0
LINE
8
BLACK
6
CONTINUOUS
10
5.03642
20
-1.8975
11
5.03723
21
-1.88976
0
LINE
8
BLACK
6
CONTINUOUS
10
5.03723
20
-1.88976
11
5.03642
21
-1.88202
0
LINE
8
BLACK
6
CONTINUOUS
10
5.03642
20
-1.88202
11
5.03401
21
-1.87462
0
LINE
8
BLACK
6
CONTINUOUS
10
5.03401
20
-1.87462
11
5.03012
21
-1.86788
0
LINE
8
BLACK
6
CONTINUOUS
10
5.03012
20
-1.86788
11
5.02491
21
-1.86209
0
LINE
8
BLACK
6
CONTINUOUS
10
5.02491
20
-1.86209
11
5.01862
21
-1.85752
0
LINE
8
BLACK
6
CONTINUOUS
10
5.01862
20
-1.85752
11
5.01151
21
-1.85435
0
LINE
8
BLACK
6
CONTINUOUS
10
5.01151
20
-1.85435
11
5.00389
21
-1.85273
0
LINE
8
BLACK
6
CONTINUOUS
10
5.00389
20
-1.85273
11
4.99611
21
-1.85273
0
LINE
8
BLACK
6
CONTINUOUS
10
4.99611
20
-1.85273
11
4.98849
21
-1.85435
0
LINE
8
BLACK
6
CONTINUOUS
10
4.98849
20
-1.85435
11
4.98138
21
-1.85752
0
LINE
8
BLACK
6
CONTINUOUS
10
4.98138
20
-1.85752
11
4.97509
21
-1.86209
0
LINE
8
BLACK
6
CONTINUOUS
10
4.97509
20
-1.86209
11
4.96988
21
-1.86788
0
LINE
8
BLACK
6
CONTINUOUS
10
4.96988
20
-1.86788
11
4.96599
21
-1.87462
0
LINE
8
BLACK
6
CONTINUOUS
10
4.96599
20
-1.87462
11
4.96358
21
-1.88202
0
LINE
8
BLACK
6
CONTINUOUS
10
4.96358
20
-1.88202
11
4.96277
21
-1.88976
0
LINE
8
BLACK
6
CONTINUOUS
10
5.07874
20
-1.4937
11
5.08041
21
-1.49439
0
LINE
8
BLACK
6
CONTINUOUS
10
5.08041
20
-1.49439
11
5.0811
21
-1.49606
0
LINE
8
BLACK
6
CONTINUOUS
10
5.0811
20
-1.49606
11
5.0811
21
-2.3622
0
LINE
8
BLACK
6
CONTINUOUS
10
5.0811
20
-2.3622
11
5.08041
21
-2.36388
0
LINE
8
BLACK
6
CONTINUOUS
10
5.08041
20
-2.36388
11
5.07874
21
-2.36457
0
LINE
8
BLACK
6
CONTINUOUS
10
5.07874
20
-2.36457
11
3.0315
21
-2.36457
0
LINE
8
BLACK
6
CONTINUOUS
10
3.0315
20
-2.36457
11
3.02983
21
-2.36388
0
LINE
8
BLACK
6
CONTINUOUS
10
3.02983
20
-2.36388
11
3.02913
21
-2.3622
0
LINE
8
BLACK
6
CONTINUOUS
10
3.02913
20
-2.3622
11
3.02913
21
-1.49606
0
LINE
8
BLACK
6
CONTINUOUS
10
3.02913
20
-1.49606
11
3.02983
21
-1.49439
0
LINE
8
BLACK
6
CONTINUOUS
10
3.02983
20
-1.49439
11
3.0315
21
-1.4937
0
LINE
8
BLACK
6
CONTINUOUS
10
3.0315
20
-1.4937
11
5.07874
21
-1.4937
0
LINE
8
BLACK
6
CONTINUOUS
10
3.03386
20
-1.49843
11
3.03386
21
-2.35984
0
LINE
8
BLACK
6
CONTINUOUS
10
3.03386
20
-2.35984
11
5.07638
21
-2.35984
0
LINE
8
BLACK
6
CONTINUOUS
10
5.07638
20
-2.35984
11
5.07638
21
-1.49843
0
LINE
8
BLACK
6
CONTINUOUS
10
5.07638
20
-1.49843
11
3.03386
21
-1.49843
0
LINE
8
BLACK
6
CONTINUOUS
10
2.86614
20
-2.00886
11
2.86684
21
-2.00915
0
LINE
8
BLACK
6
CONTINUOUS
10
2.86684
20
-2.00915
11
2.86713
21
-2.00984
0
LINE
8
BLACK
6
CONTINUOUS
10
2.86713
20
-2.00984
11
2.86713
21
-2.35039
0
LINE
8
BLACK
6
CONTINUOUS
10
2.86713
20
-2.35039
11
2.86684
21
-2.35109
0
LINE
8
BLACK
6
CONTINUOUS
10
2.86684
20
-2.35109
11
2.86614
21
-2.35138
0
LINE
8
BLACK
6
CONTINUOUS
10
2.86614
20
-2.35138
11
2.27953
21
-2.35138
0
LINE
8
BLACK
6
CONTINUOUS
10
2.27953
20
-2.35138
11
2.27883
21
-2.35109
0
LINE
8
BLACK
6
CONTINUOUS
10
2.27883
20
-2.35109
11
2.27854
21
-2.35039
0
LINE
8
BLACK
6
CONTINUOUS
10
2.27854
20
-2.35039
11
2.27854
21
-2.00984
0
LINE
8
BLACK
6
CONTINUOUS
10
2.27854
20
-2.00984
11
2.27883
21
-2.00915
0
LINE
8
BLACK
6
CONTINUOUS
10
2.27883
20
-2.00915
11
2.27953
21
-2.00886
0
LINE
8
BLACK
6
CONTINUOUS
10
2.27953
20
-2.00886
11
2.86614
21
-2.00886
0
LINE
8
BLACK
6
CONTINUOUS
10
2.28051
20
-2.01083
11
2.28051
21
-2.34941
0
LINE
8
BLACK
6
CONTINUOUS
10
2.28051
20
-2.34941
11
2.86516
21
-2.34941
0
LINE
8
BLACK
6
CONTINUOUS
10
2.86516
20
-2.34941
11
2.86516
21
-2.01083
0
LINE
8
BLACK
6
CONTINUOUS
10
2.86516
20
-2.01083
11
2.28051
21
-2.01083
0
LINE
8
BLACK
6
CONTINUOUS
10
5.50394
20
-1.83465
11
5.50463
21
-1.83493
0
LINE
8
BLACK
6
CONTINUOUS
10
5.50463
20
-1.83493
11
5.50492
21
-1.83563
0
LINE
8
BLACK
6
CONTINUOUS
10
5.50492
20
-1.83563
11
5.50492
21
-2.32185
0
LINE
8
BLACK
6
CONTINUOUS
10
5.50492
20
-2.32185
11
5.50463
21
-2.32255
0
LINE
8
BLACK
6
CONTINUOUS
10
5.50463
20
-2.32255
11
5.50394
21
-2.32283
0
LINE
8
BLACK
6
CONTINUOUS
10
5.50394
20
-2.32283
11
5.26181
21
-2.32283
0
LINE
8
BLACK
6
CONTINUOUS
10
5.26181
20
-2.32283
11
5.26112
21
-2.32255
0
LINE
8
BLACK
6
CONTINUOUS
10
5.26112
20
-2.32255
11
5.26083
21
-2.32185
0
LINE
8
BLACK
6
CONTINUOUS
10
5.26083
20
-2.32185
11
5.26083
21
-1.83563
0
LINE
8
BLACK
6
CONTINUOUS
10
5.26083
20
-1.83563
11
5.26112
21
-1.83493
0
LINE
8
BLACK
6
CONTINUOUS
10
5.26112
20
-1.83493
11
5.26181
21
-1.83465
0
LINE
8
BLACK
6
CONTINUOUS
10
5.26181
20
-1.83465
11
5.50394
21
-1.83465
0
LINE
8
BLACK
6
CONTINUOUS
10
5.2628
20
-1.83661
11
5.2628
21
-2.32087
0
LINE
8
BLACK
6
CONTINUOUS
10
5.2628
20
-2.32087
11
5.50295
21
-2.32087
0
LINE
8
BLACK
6
CONTINUOUS
10
5.50295
20
-2.32087
11
5.50295
21
-1.83661
0
LINE
8
BLACK
6
CONTINUOUS
10
5.50295
20
-1.83661
11
5.2628
21
-1.83661
  0
ENDSEC
  0
EOF
