%TF.GenerationSoftware,KiCad,Pcbnew,7.0.7-7.0.7~ubuntu23.04.1*%
%TF.CreationDate,2023-09-10T23:30:34+00:00*%
%TF.ProjectId,pedalboard-hw,70656461-6c62-46f6-9172-642d68772e6b,3.0.0-RC1*%
%TF.SameCoordinates,Original*%
%TF.FileFunction,Drillmap*%
%TF.FilePolarity,Positive*%
%FSLAX45Y45*%
G04 Gerber Fmt 4.5, Leading zero omitted, Abs format (unit mm)*
G04 Created by KiCad (PCBNEW 7.0.7-7.0.7~ubuntu23.04.1) date 2023-09-10 23:30:34*
%MOMM*%
%LPD*%
G01*
G04 APERTURE LIST*
%ADD10C,0.100000*%
%ADD11C,0.200000*%
%ADD12C,0.040000*%
%ADD13C,0.050800*%
%ADD14C,0.080000*%
%ADD15C,0.102000*%
%ADD16C,0.132080*%
%ADD17C,0.140000*%
%ADD18C,0.150000*%
%ADD19C,0.260000*%
G04 APERTURE END LIST*
D10*
X11820000Y-2000000D02*
X18900000Y-2000000D01*
X2000000Y-12400000D02*
X1995711Y-2100000D01*
X2100000Y-12500000D02*
X18900000Y-12500000D01*
X2095711Y-2000001D02*
G75*
G03*
X1995711Y-2100000I-1J-99999D01*
G01*
X11380000Y-2100000D02*
G75*
G03*
X11420000Y-2140000I40000J0D01*
G01*
X2000000Y-12400000D02*
G75*
G03*
X2100000Y-12500000I100000J0D01*
G01*
X9180000Y-2100000D02*
G75*
G03*
X9220000Y-2140000I40000J0D01*
G01*
X11420000Y-2140000D02*
X11780000Y-2140000D01*
X19000000Y-2100000D02*
X19000000Y-12400000D01*
X11380000Y-2000000D02*
X11380000Y-2100000D01*
X9620000Y-2100000D02*
X9620000Y-2000000D01*
X9620000Y-2000000D02*
X11380000Y-2000000D01*
X19000000Y-2100000D02*
G75*
G03*
X18900000Y-2000000I-100000J0D01*
G01*
X9580000Y-2140000D02*
G75*
G03*
X9620000Y-2100000I0J40000D01*
G01*
X9180000Y-2000000D02*
X9180000Y-2100000D01*
X9220000Y-2140000D02*
X9580000Y-2140000D01*
X9180000Y-2000000D02*
X2095711Y-2000000D01*
X18900000Y-12500000D02*
G75*
G03*
X19000000Y-12400000I0J100000D01*
G01*
X11780000Y-2140000D02*
G75*
G03*
X11820000Y-2100000I0J40000D01*
G01*
X11820000Y-2100000D02*
X11820000Y-2000000D01*
D11*
D12*
X3980000Y-10570000D02*
X4020000Y-10610000D01*
X4020000Y-10570000D02*
X3980000Y-10610000D01*
X4610000Y-10880000D02*
X4650000Y-10920000D01*
X4650000Y-10880000D02*
X4610000Y-10920000D01*
X4690000Y-11610000D02*
X4730000Y-11650000D01*
X4730000Y-11610000D02*
X4690000Y-11650000D01*
X17860000Y-9360000D02*
X17900000Y-9400000D01*
X17900000Y-9360000D02*
X17860000Y-9400000D01*
X8920000Y-2950000D02*
G75*
G03*
X8920000Y-2950000I-20000J0D01*
G01*
D11*
X8880000Y-2900000D02*
X8880000Y-3000000D01*
X8880000Y-3000000D02*
G75*
G03*
X8920000Y-3000000I20000J0D01*
G01*
X8920000Y-3000000D02*
X8920000Y-2900000D01*
X8920000Y-2900000D02*
G75*
G03*
X8880000Y-2900000I-20000J0D01*
G01*
D12*
X9170000Y-2950000D02*
G75*
G03*
X9170000Y-2950000I-20000J0D01*
G01*
D11*
X9130000Y-2900000D02*
X9130000Y-3000000D01*
X9130000Y-3000000D02*
G75*
G03*
X9170000Y-3000000I20000J0D01*
G01*
X9170000Y-3000000D02*
X9170000Y-2900000D01*
X9170000Y-2900000D02*
G75*
G03*
X9130000Y-2900000I-20000J0D01*
G01*
D12*
X9420000Y-2450000D02*
G75*
G03*
X9420000Y-2450000I-20000J0D01*
G01*
D11*
X9450000Y-2430000D02*
X9350000Y-2430000D01*
X9350000Y-2430000D02*
G75*
G03*
X9350000Y-2470000I0J-20000D01*
G01*
X9350000Y-2470000D02*
X9450000Y-2470000D01*
X9450000Y-2470000D02*
G75*
G03*
X9450000Y-2430000I0J20000D01*
G01*
D12*
X9670000Y-2950000D02*
G75*
G03*
X9670000Y-2950000I-20000J0D01*
G01*
D11*
X9670000Y-3000000D02*
X9670000Y-2900000D01*
X9670000Y-2900000D02*
G75*
G03*
X9630000Y-2900000I-20000J0D01*
G01*
X9630000Y-2900000D02*
X9630000Y-3000000D01*
X9630000Y-3000000D02*
G75*
G03*
X9670000Y-3000000I20000J0D01*
G01*
D12*
X9920000Y-2950000D02*
G75*
G03*
X9920000Y-2950000I-20000J0D01*
G01*
D11*
X9920000Y-3000000D02*
X9920000Y-2900000D01*
X9920000Y-2900000D02*
G75*
G03*
X9880000Y-2900000I-20000J0D01*
G01*
X9880000Y-2900000D02*
X9880000Y-3000000D01*
X9880000Y-3000000D02*
G75*
G03*
X9920000Y-3000000I20000J0D01*
G01*
D12*
X11120000Y-2950000D02*
G75*
G03*
X11120000Y-2950000I-20000J0D01*
G01*
D11*
X11080000Y-2900000D02*
X11080000Y-3000000D01*
X11080000Y-3000000D02*
G75*
G03*
X11120000Y-3000000I20000J0D01*
G01*
X11120000Y-3000000D02*
X11120000Y-2900000D01*
X11120000Y-2900000D02*
G75*
G03*
X11080000Y-2900000I-20000J0D01*
G01*
D12*
X11370000Y-2950000D02*
G75*
G03*
X11370000Y-2950000I-20000J0D01*
G01*
D11*
X11330000Y-2900000D02*
X11330000Y-3000000D01*
X11330000Y-3000000D02*
G75*
G03*
X11370000Y-3000000I20000J0D01*
G01*
X11370000Y-3000000D02*
X11370000Y-2900000D01*
X11370000Y-2900000D02*
G75*
G03*
X11330000Y-2900000I-20000J0D01*
G01*
D12*
X11620000Y-2450000D02*
G75*
G03*
X11620000Y-2450000I-20000J0D01*
G01*
D11*
X11650000Y-2430000D02*
X11550000Y-2430000D01*
X11550000Y-2430000D02*
G75*
G03*
X11550000Y-2470000I0J-20000D01*
G01*
X11550000Y-2470000D02*
X11650000Y-2470000D01*
X11650000Y-2470000D02*
G75*
G03*
X11650000Y-2430000I0J20000D01*
G01*
D12*
X11870000Y-2950000D02*
G75*
G03*
X11870000Y-2950000I-20000J0D01*
G01*
D11*
X11870000Y-3000000D02*
X11870000Y-2900000D01*
X11870000Y-2900000D02*
G75*
G03*
X11830000Y-2900000I-20000J0D01*
G01*
X11830000Y-2900000D02*
X11830000Y-3000000D01*
X11830000Y-3000000D02*
G75*
G03*
X11870000Y-3000000I20000J0D01*
G01*
D12*
X12120000Y-2950000D02*
G75*
G03*
X12120000Y-2950000I-20000J0D01*
G01*
D11*
X12120000Y-3000000D02*
X12120000Y-2900000D01*
X12120000Y-2900000D02*
G75*
G03*
X12080000Y-2900000I-20000J0D01*
G01*
X12080000Y-2900000D02*
X12080000Y-3000000D01*
X12080000Y-3000000D02*
G75*
G03*
X12120000Y-3000000I20000J0D01*
G01*
D13*
X12700000Y-4774600D02*
X12700000Y-4825400D01*
X12674600Y-4800000D02*
X12725400Y-4800000D01*
X12700000Y-4974600D02*
X12700000Y-5025400D01*
X12674600Y-5000000D02*
X12725400Y-5000000D01*
D14*
X3928284Y-6628284D02*
X3928284Y-6571715D01*
X3871715Y-6571715D01*
X3871715Y-6628284D01*
X3928284Y-6628284D01*
X3928284Y-6828284D02*
X3928284Y-6771715D01*
X3871715Y-6771715D01*
X3871715Y-6828284D01*
X3928284Y-6828284D01*
X3928284Y-11828284D02*
X3928284Y-11771715D01*
X3871715Y-11771715D01*
X3871715Y-11828284D01*
X3928284Y-11828284D01*
X3928284Y-12028284D02*
X3928284Y-11971715D01*
X3871715Y-11971715D01*
X3871715Y-12028284D01*
X3928284Y-12028284D01*
X4128284Y-6628284D02*
X4128284Y-6571715D01*
X4071715Y-6571715D01*
X4071715Y-6628284D01*
X4128284Y-6628284D01*
X4128284Y-6828284D02*
X4128284Y-6771715D01*
X4071715Y-6771715D01*
X4071715Y-6828284D01*
X4128284Y-6828284D01*
X4128284Y-11828284D02*
X4128284Y-11771715D01*
X4071715Y-11771715D01*
X4071715Y-11828284D01*
X4128284Y-11828284D01*
X4128284Y-12028284D02*
X4128284Y-11971715D01*
X4071715Y-11971715D01*
X4071715Y-12028284D01*
X4128284Y-12028284D01*
X9428285Y-6628284D02*
X9428285Y-6571715D01*
X9371716Y-6571715D01*
X9371716Y-6628284D01*
X9428285Y-6628284D01*
X9428285Y-6828284D02*
X9428285Y-6771715D01*
X9371716Y-6771715D01*
X9371716Y-6828284D01*
X9428285Y-6828284D01*
X9628285Y-6628284D02*
X9628285Y-6571715D01*
X9571716Y-6571715D01*
X9571716Y-6628284D01*
X9628285Y-6628284D01*
X9628285Y-6828284D02*
X9628285Y-6771715D01*
X9571716Y-6771715D01*
X9571716Y-6828284D01*
X9628285Y-6828284D01*
X10428285Y-10828285D02*
X10428285Y-10771716D01*
X10371716Y-10771716D01*
X10371716Y-10828285D01*
X10428285Y-10828285D01*
X10428285Y-11028285D02*
X10428285Y-10971716D01*
X10371716Y-10971716D01*
X10371716Y-11028285D01*
X10428285Y-11028285D01*
X10628285Y-10828285D02*
X10628285Y-10771716D01*
X10571716Y-10771716D01*
X10571716Y-10828285D01*
X10628285Y-10828285D01*
X10628285Y-11028285D02*
X10628285Y-10971716D01*
X10571716Y-10971716D01*
X10571716Y-11028285D01*
X10628285Y-11028285D01*
X16928285Y-6628284D02*
X16928285Y-6571715D01*
X16871716Y-6571715D01*
X16871716Y-6628284D01*
X16928285Y-6628284D01*
X16928285Y-6828284D02*
X16928285Y-6771715D01*
X16871716Y-6771715D01*
X16871716Y-6828284D01*
X16928285Y-6828284D01*
X16928285Y-11828284D02*
X16928285Y-11771715D01*
X16871716Y-11771715D01*
X16871716Y-11828284D01*
X16928285Y-11828284D01*
X16928285Y-12028284D02*
X16928285Y-11971715D01*
X16871716Y-11971715D01*
X16871716Y-12028284D01*
X16928285Y-12028284D01*
X17128285Y-6628284D02*
X17128285Y-6571715D01*
X17071716Y-6571715D01*
X17071716Y-6628284D01*
X17128285Y-6628284D01*
X17128285Y-6828284D02*
X17128285Y-6771715D01*
X17071716Y-6771715D01*
X17071716Y-6828284D01*
X17128285Y-6828284D01*
X17128285Y-11828284D02*
X17128285Y-11771715D01*
X17071716Y-11771715D01*
X17071716Y-11828284D01*
X17128285Y-11828284D01*
X17128285Y-12028284D02*
X17128285Y-11971715D01*
X17071716Y-11971715D01*
X17071716Y-12028284D01*
X17128285Y-12028284D01*
X17488285Y-2768285D02*
X17488285Y-2711716D01*
X17431716Y-2711716D01*
X17431716Y-2768285D01*
X17488285Y-2768285D01*
D11*
X17420000Y-2630000D02*
X17420000Y-2850000D01*
X17420000Y-2850000D02*
G75*
G03*
X17500000Y-2850000I40000J0D01*
G01*
X17500000Y-2850000D02*
X17500000Y-2630000D01*
X17500000Y-2630000D02*
G75*
G03*
X17420000Y-2630000I-40000J0D01*
G01*
D14*
X17968285Y-2488285D02*
X17968285Y-2431716D01*
X17911716Y-2431716D01*
X17911716Y-2488285D01*
X17968285Y-2488285D01*
D11*
X18050000Y-2420000D02*
X17830000Y-2420000D01*
X17830000Y-2420000D02*
G75*
G03*
X17830000Y-2500000I0J-40000D01*
G01*
X17830000Y-2500000D02*
X18050000Y-2500000D01*
X18050000Y-2500000D02*
G75*
G03*
X18050000Y-2420000I0J40000D01*
G01*
D14*
X17968285Y-3068284D02*
X17968285Y-3011715D01*
X17911716Y-3011715D01*
X17911716Y-3068284D01*
X17968285Y-3068284D01*
D11*
X18070000Y-3000000D02*
X17810000Y-3000000D01*
X17810000Y-3000000D02*
G75*
G03*
X17810000Y-3080000I0J-40000D01*
G01*
X17810000Y-3080000D02*
X18070000Y-3080000D01*
X18070000Y-3080000D02*
G75*
G03*
X18070000Y-3000000I0J40000D01*
G01*
D10*
X3311000Y-3147500D02*
X3361000Y-3097500D01*
X3311000Y-3047500D01*
X3261000Y-3097500D01*
X3311000Y-3147500D01*
X3311000Y-3401500D02*
X3361000Y-3351500D01*
X3311000Y-3301500D01*
X3261000Y-3351500D01*
X3311000Y-3401500D01*
X3311000Y-3655500D02*
X3361000Y-3605500D01*
X3311000Y-3555500D01*
X3261000Y-3605500D01*
X3311000Y-3655500D01*
X3565000Y-3147500D02*
X3615000Y-3097500D01*
X3565000Y-3047500D01*
X3515000Y-3097500D01*
X3565000Y-3147500D01*
X3565000Y-3401500D02*
X3615000Y-3351500D01*
X3565000Y-3301500D01*
X3515000Y-3351500D01*
X3565000Y-3401500D01*
X3565000Y-3655500D02*
X3615000Y-3605500D01*
X3565000Y-3555500D01*
X3515000Y-3605500D01*
X3565000Y-3655500D01*
X4959000Y-10428000D02*
X5009000Y-10378000D01*
X4959000Y-10328000D01*
X4909000Y-10378000D01*
X4959000Y-10428000D01*
X4959000Y-10682000D02*
X5009000Y-10632000D01*
X4959000Y-10582000D01*
X4909000Y-10632000D01*
X4959000Y-10682000D01*
X5078500Y-8346260D02*
X5128500Y-8296260D01*
X5078500Y-8246260D01*
X5028500Y-8296260D01*
X5078500Y-8346260D01*
X5213000Y-10428000D02*
X5263000Y-10378000D01*
X5213000Y-10328000D01*
X5163000Y-10378000D01*
X5213000Y-10428000D01*
X5213000Y-10682000D02*
X5263000Y-10632000D01*
X5213000Y-10582000D01*
X5163000Y-10632000D01*
X5213000Y-10682000D01*
X5332500Y-8346260D02*
X5382500Y-8296260D01*
X5332500Y-8246260D01*
X5282500Y-8296260D01*
X5332500Y-8346260D01*
X5467000Y-10428000D02*
X5517000Y-10378000D01*
X5467000Y-10328000D01*
X5417000Y-10378000D01*
X5467000Y-10428000D01*
X5467000Y-10682000D02*
X5517000Y-10632000D01*
X5467000Y-10582000D01*
X5417000Y-10632000D01*
X5467000Y-10682000D01*
X5586500Y-8346260D02*
X5636500Y-8296260D01*
X5586500Y-8246260D01*
X5536500Y-8296260D01*
X5586500Y-8346260D01*
X5721000Y-10428000D02*
X5771000Y-10378000D01*
X5721000Y-10328000D01*
X5671000Y-10378000D01*
X5721000Y-10428000D01*
X5721000Y-10682000D02*
X5771000Y-10632000D01*
X5721000Y-10582000D01*
X5671000Y-10632000D01*
X5721000Y-10682000D01*
X5975000Y-10428000D02*
X6025000Y-10378000D01*
X5975000Y-10328000D01*
X5925000Y-10378000D01*
X5975000Y-10428000D01*
X5975000Y-10682000D02*
X6025000Y-10632000D01*
X5975000Y-10582000D01*
X5925000Y-10632000D01*
X5975000Y-10682000D01*
X6025000Y-3200000D02*
X6075000Y-3150000D01*
X6025000Y-3100000D01*
X5975000Y-3150000D01*
X6025000Y-3200000D01*
X6025000Y-3450000D02*
X6075000Y-3400000D01*
X6025000Y-3350000D01*
X5975000Y-3400000D01*
X6025000Y-3450000D01*
X6025000Y-3700000D02*
X6075000Y-3650000D01*
X6025000Y-3600000D01*
X5975000Y-3650000D01*
X6025000Y-3700000D01*
X6229000Y-10428000D02*
X6279000Y-10378000D01*
X6229000Y-10328000D01*
X6179000Y-10378000D01*
X6229000Y-10428000D01*
X6229000Y-10682000D02*
X6279000Y-10632000D01*
X6229000Y-10582000D01*
X6179000Y-10632000D01*
X6229000Y-10682000D01*
X6483000Y-10428000D02*
X6533000Y-10378000D01*
X6483000Y-10328000D01*
X6433000Y-10378000D01*
X6483000Y-10428000D01*
X6483000Y-10682000D02*
X6533000Y-10632000D01*
X6483000Y-10582000D01*
X6433000Y-10632000D01*
X6483000Y-10682000D01*
X6737000Y-10428000D02*
X6787000Y-10378000D01*
X6737000Y-10328000D01*
X6687000Y-10378000D01*
X6737000Y-10428000D01*
X6737000Y-10682000D02*
X6787000Y-10632000D01*
X6737000Y-10582000D01*
X6687000Y-10632000D01*
X6737000Y-10682000D01*
X6991000Y-10428000D02*
X7041000Y-10378000D01*
X6991000Y-10328000D01*
X6941000Y-10378000D01*
X6991000Y-10428000D01*
X6991000Y-10682000D02*
X7041000Y-10632000D01*
X6991000Y-10582000D01*
X6941000Y-10632000D01*
X6991000Y-10682000D01*
X7245000Y-10428000D02*
X7295000Y-10378000D01*
X7245000Y-10328000D01*
X7195000Y-10378000D01*
X7245000Y-10428000D01*
X7245000Y-10682000D02*
X7295000Y-10632000D01*
X7245000Y-10582000D01*
X7195000Y-10632000D01*
X7245000Y-10682000D01*
X7475000Y-3200000D02*
X7525000Y-3150000D01*
X7475000Y-3100000D01*
X7425000Y-3150000D01*
X7475000Y-3200000D01*
X7475000Y-3700000D02*
X7525000Y-3650000D01*
X7475000Y-3600000D01*
X7425000Y-3650000D01*
X7475000Y-3700000D01*
X7499000Y-10428000D02*
X7549000Y-10378000D01*
X7499000Y-10328000D01*
X7449000Y-10378000D01*
X7499000Y-10428000D01*
X7499000Y-10682000D02*
X7549000Y-10632000D01*
X7499000Y-10582000D01*
X7449000Y-10632000D01*
X7499000Y-10682000D01*
X7753000Y-10428000D02*
X7803000Y-10378000D01*
X7753000Y-10328000D01*
X7703000Y-10378000D01*
X7753000Y-10428000D01*
X7753000Y-10682000D02*
X7803000Y-10632000D01*
X7753000Y-10582000D01*
X7703000Y-10632000D01*
X7753000Y-10682000D01*
X8007000Y-10428000D02*
X8057000Y-10378000D01*
X8007000Y-10328000D01*
X7957000Y-10378000D01*
X8007000Y-10428000D01*
X8007000Y-10682000D02*
X8057000Y-10632000D01*
X8007000Y-10582000D01*
X7957000Y-10632000D01*
X8007000Y-10682000D01*
X8261000Y-10428000D02*
X8311000Y-10378000D01*
X8261000Y-10328000D01*
X8211000Y-10378000D01*
X8261000Y-10428000D01*
X8261000Y-10682000D02*
X8311000Y-10632000D01*
X8261000Y-10582000D01*
X8211000Y-10632000D01*
X8261000Y-10682000D01*
X8515000Y-10428000D02*
X8565000Y-10378000D01*
X8515000Y-10328000D01*
X8465000Y-10378000D01*
X8515000Y-10428000D01*
X8515000Y-10682000D02*
X8565000Y-10632000D01*
X8515000Y-10582000D01*
X8465000Y-10632000D01*
X8515000Y-10682000D01*
X8769000Y-10428000D02*
X8819000Y-10378000D01*
X8769000Y-10328000D01*
X8719000Y-10378000D01*
X8769000Y-10428000D01*
X8769000Y-10682000D02*
X8819000Y-10632000D01*
X8769000Y-10582000D01*
X8719000Y-10632000D01*
X8769000Y-10682000D01*
X9023000Y-10428000D02*
X9073000Y-10378000D01*
X9023000Y-10328000D01*
X8973000Y-10378000D01*
X9023000Y-10428000D01*
X9023000Y-10682000D02*
X9073000Y-10632000D01*
X9023000Y-10582000D01*
X8973000Y-10632000D01*
X9023000Y-10682000D01*
X9277000Y-10428000D02*
X9327000Y-10378000D01*
X9277000Y-10328000D01*
X9227000Y-10378000D01*
X9277000Y-10428000D01*
X9277000Y-10682000D02*
X9327000Y-10632000D01*
X9277000Y-10582000D01*
X9227000Y-10632000D01*
X9277000Y-10682000D01*
X9531000Y-10428000D02*
X9581000Y-10378000D01*
X9531000Y-10328000D01*
X9481000Y-10378000D01*
X9531000Y-10428000D01*
X9531000Y-10682000D02*
X9581000Y-10632000D01*
X9531000Y-10582000D01*
X9481000Y-10632000D01*
X9531000Y-10682000D01*
X9785000Y-10428000D02*
X9835000Y-10378000D01*
X9785000Y-10328000D01*
X9735000Y-10378000D01*
X9785000Y-10428000D01*
X9785000Y-10682000D02*
X9835000Y-10632000D01*
X9785000Y-10582000D01*
X9735000Y-10632000D01*
X9785000Y-10682000D01*
X11362500Y-9066000D02*
X11412500Y-9016000D01*
X11362500Y-8966000D01*
X11312500Y-9016000D01*
X11362500Y-9066000D01*
X11362500Y-9320000D02*
X11412500Y-9270000D01*
X11362500Y-9220000D01*
X11312500Y-9270000D01*
X11362500Y-9320000D01*
X11362500Y-9574000D02*
X11412500Y-9524000D01*
X11362500Y-9474000D01*
X11312500Y-9524000D01*
X11362500Y-9574000D01*
X11362500Y-9828000D02*
X11412500Y-9778000D01*
X11362500Y-9728000D01*
X11312500Y-9778000D01*
X11362500Y-9828000D01*
X11771000Y-6887560D02*
X11821000Y-6837560D01*
X11771000Y-6787560D01*
X11721000Y-6837560D01*
X11771000Y-6887560D01*
X11771000Y-7141560D02*
X11821000Y-7091560D01*
X11771000Y-7041560D01*
X11721000Y-7091560D01*
X11771000Y-7141560D01*
X11771000Y-7395560D02*
X11821000Y-7345560D01*
X11771000Y-7295560D01*
X11721000Y-7345560D01*
X11771000Y-7395560D01*
X11771000Y-7649560D02*
X11821000Y-7599560D01*
X11771000Y-7549560D01*
X11721000Y-7599560D01*
X11771000Y-7649560D01*
X11771000Y-7903560D02*
X11821000Y-7853560D01*
X11771000Y-7803560D01*
X11721000Y-7853560D01*
X11771000Y-7903560D01*
X11771000Y-8157560D02*
X11821000Y-8107560D01*
X11771000Y-8057560D01*
X11721000Y-8107560D01*
X11771000Y-8157560D01*
X11771000Y-8411560D02*
X11821000Y-8361560D01*
X11771000Y-8311560D01*
X11721000Y-8361560D01*
X11771000Y-8411560D01*
X11771000Y-8665560D02*
X11821000Y-8615560D01*
X11771000Y-8565560D01*
X11721000Y-8615560D01*
X11771000Y-8665560D01*
X11771000Y-8919560D02*
X11821000Y-8869560D01*
X11771000Y-8819560D01*
X11721000Y-8869560D01*
X11771000Y-8919560D01*
X11771000Y-9173560D02*
X11821000Y-9123560D01*
X11771000Y-9073560D01*
X11721000Y-9123560D01*
X11771000Y-9173560D01*
X11771000Y-9427560D02*
X11821000Y-9377560D01*
X11771000Y-9327560D01*
X11721000Y-9377560D01*
X11771000Y-9427560D01*
X11771000Y-9681560D02*
X11821000Y-9631560D01*
X11771000Y-9581560D01*
X11721000Y-9631560D01*
X11771000Y-9681560D01*
X11771000Y-9935560D02*
X11821000Y-9885560D01*
X11771000Y-9835560D01*
X11721000Y-9885560D01*
X11771000Y-9935560D01*
X11771000Y-10189560D02*
X11821000Y-10139560D01*
X11771000Y-10089560D01*
X11721000Y-10139560D01*
X11771000Y-10189560D01*
X11771000Y-10443560D02*
X11821000Y-10393560D01*
X11771000Y-10343560D01*
X11721000Y-10393560D01*
X11771000Y-10443560D01*
X11771000Y-10697560D02*
X11821000Y-10647560D01*
X11771000Y-10597560D01*
X11721000Y-10647560D01*
X11771000Y-10697560D01*
X11771000Y-10951560D02*
X11821000Y-10901560D01*
X11771000Y-10851560D01*
X11721000Y-10901560D01*
X11771000Y-10951560D01*
X11771000Y-11205560D02*
X11821000Y-11155560D01*
X11771000Y-11105560D01*
X11721000Y-11155560D01*
X11771000Y-11205560D01*
X11771000Y-11459560D02*
X11821000Y-11409560D01*
X11771000Y-11359560D01*
X11721000Y-11409560D01*
X11771000Y-11459560D01*
X11771000Y-11713560D02*
X11821000Y-11663560D01*
X11771000Y-11613560D01*
X11721000Y-11663560D01*
X11771000Y-11713560D01*
X12025000Y-6887560D02*
X12075000Y-6837560D01*
X12025000Y-6787560D01*
X11975000Y-6837560D01*
X12025000Y-6887560D01*
X12025000Y-7141560D02*
X12075000Y-7091560D01*
X12025000Y-7041560D01*
X11975000Y-7091560D01*
X12025000Y-7141560D01*
X12025000Y-7395560D02*
X12075000Y-7345560D01*
X12025000Y-7295560D01*
X11975000Y-7345560D01*
X12025000Y-7395560D01*
X12025000Y-7649560D02*
X12075000Y-7599560D01*
X12025000Y-7549560D01*
X11975000Y-7599560D01*
X12025000Y-7649560D01*
X12025000Y-7903560D02*
X12075000Y-7853560D01*
X12025000Y-7803560D01*
X11975000Y-7853560D01*
X12025000Y-7903560D01*
X12025000Y-8157560D02*
X12075000Y-8107560D01*
X12025000Y-8057560D01*
X11975000Y-8107560D01*
X12025000Y-8157560D01*
X12025000Y-8411560D02*
X12075000Y-8361560D01*
X12025000Y-8311560D01*
X11975000Y-8361560D01*
X12025000Y-8411560D01*
X12025000Y-8665560D02*
X12075000Y-8615560D01*
X12025000Y-8565560D01*
X11975000Y-8615560D01*
X12025000Y-8665560D01*
X12025000Y-8919560D02*
X12075000Y-8869560D01*
X12025000Y-8819560D01*
X11975000Y-8869560D01*
X12025000Y-8919560D01*
X12025000Y-9173560D02*
X12075000Y-9123560D01*
X12025000Y-9073560D01*
X11975000Y-9123560D01*
X12025000Y-9173560D01*
X12025000Y-9427560D02*
X12075000Y-9377560D01*
X12025000Y-9327560D01*
X11975000Y-9377560D01*
X12025000Y-9427560D01*
X12025000Y-9681560D02*
X12075000Y-9631560D01*
X12025000Y-9581560D01*
X11975000Y-9631560D01*
X12025000Y-9681560D01*
X12025000Y-9935560D02*
X12075000Y-9885560D01*
X12025000Y-9835560D01*
X11975000Y-9885560D01*
X12025000Y-9935560D01*
X12025000Y-10189560D02*
X12075000Y-10139560D01*
X12025000Y-10089560D01*
X11975000Y-10139560D01*
X12025000Y-10189560D01*
X12025000Y-10443560D02*
X12075000Y-10393560D01*
X12025000Y-10343560D01*
X11975000Y-10393560D01*
X12025000Y-10443560D01*
X12025000Y-10697560D02*
X12075000Y-10647560D01*
X12025000Y-10597560D01*
X11975000Y-10647560D01*
X12025000Y-10697560D01*
X12025000Y-10951560D02*
X12075000Y-10901560D01*
X12025000Y-10851560D01*
X11975000Y-10901560D01*
X12025000Y-10951560D01*
X12025000Y-11205560D02*
X12075000Y-11155560D01*
X12025000Y-11105560D01*
X11975000Y-11155560D01*
X12025000Y-11205560D01*
X12025000Y-11459560D02*
X12075000Y-11409560D01*
X12025000Y-11359560D01*
X11975000Y-11409560D01*
X12025000Y-11459560D01*
X12025000Y-11713560D02*
X12075000Y-11663560D01*
X12025000Y-11613560D01*
X11975000Y-11663560D01*
X12025000Y-11713560D01*
X13525000Y-3200000D02*
X13575000Y-3150000D01*
X13525000Y-3100000D01*
X13475000Y-3150000D01*
X13525000Y-3200000D01*
X13525000Y-3450000D02*
X13575000Y-3400000D01*
X13525000Y-3350000D01*
X13475000Y-3400000D01*
X13525000Y-3450000D01*
X13525000Y-3700000D02*
X13575000Y-3650000D01*
X13525000Y-3600000D01*
X13475000Y-3650000D01*
X13525000Y-3700000D01*
X13546000Y-5767500D02*
X13596000Y-5717500D01*
X13546000Y-5667500D01*
X13496000Y-5717500D01*
X13546000Y-5767500D01*
X13800000Y-5767500D02*
X13850000Y-5717500D01*
X13800000Y-5667500D01*
X13750000Y-5717500D01*
X13800000Y-5767500D01*
X14975000Y-3200000D02*
X15025000Y-3150000D01*
X14975000Y-3100000D01*
X14925000Y-3150000D01*
X14975000Y-3200000D01*
X14975000Y-3700000D02*
X15025000Y-3650000D01*
X14975000Y-3600000D01*
X14925000Y-3650000D01*
X14975000Y-3700000D01*
X15238000Y-11965060D02*
X15288000Y-11915060D01*
X15238000Y-11865060D01*
X15188000Y-11915060D01*
X15238000Y-11965060D01*
X15238000Y-12219060D02*
X15288000Y-12169060D01*
X15238000Y-12119060D01*
X15188000Y-12169060D01*
X15238000Y-12219060D01*
X15401500Y-7534560D02*
X15451500Y-7484560D01*
X15401500Y-7434560D01*
X15351500Y-7484560D01*
X15401500Y-7534560D01*
X15401500Y-7788560D02*
X15451500Y-7738560D01*
X15401500Y-7688560D01*
X15351500Y-7738560D01*
X15401500Y-7788560D01*
X15401500Y-8042560D02*
X15451500Y-7992560D01*
X15401500Y-7942560D01*
X15351500Y-7992560D01*
X15401500Y-8042560D01*
X15492000Y-11965060D02*
X15542000Y-11915060D01*
X15492000Y-11865060D01*
X15442000Y-11915060D01*
X15492000Y-11965060D01*
X15492000Y-12219060D02*
X15542000Y-12169060D01*
X15492000Y-12119060D01*
X15442000Y-12169060D01*
X15492000Y-12219060D01*
X15655500Y-7534560D02*
X15705500Y-7484560D01*
X15655500Y-7434560D01*
X15605500Y-7484560D01*
X15655500Y-7534560D01*
X15655500Y-7788560D02*
X15705500Y-7738560D01*
X15655500Y-7688560D01*
X15605500Y-7738560D01*
X15655500Y-7788560D01*
X15655500Y-8042560D02*
X15705500Y-7992560D01*
X15655500Y-7942560D01*
X15605500Y-7992560D01*
X15655500Y-8042560D01*
X15746000Y-11965060D02*
X15796000Y-11915060D01*
X15746000Y-11865060D01*
X15696000Y-11915060D01*
X15746000Y-11965060D01*
X15746000Y-12219060D02*
X15796000Y-12169060D01*
X15746000Y-12119060D01*
X15696000Y-12169060D01*
X15746000Y-12219060D01*
D15*
X7836000Y-3960000D02*
X7938000Y-4062000D01*
X7938000Y-3960000D02*
X7836000Y-4062000D01*
X7938000Y-4011000D02*
G75*
G03*
X7938000Y-4011000I-51000J0D01*
G01*
X7836000Y-5738000D02*
X7938000Y-5840000D01*
X7938000Y-5738000D02*
X7836000Y-5840000D01*
X7938000Y-5789000D02*
G75*
G03*
X7938000Y-5789000I-51000J0D01*
G01*
X8090000Y-3960000D02*
X8192000Y-4062000D01*
X8192000Y-3960000D02*
X8090000Y-4062000D01*
X8192000Y-4011000D02*
G75*
G03*
X8192000Y-4011000I-51000J0D01*
G01*
X8090000Y-5738000D02*
X8192000Y-5840000D01*
X8192000Y-5738000D02*
X8090000Y-5840000D01*
X8192000Y-5789000D02*
G75*
G03*
X8192000Y-5789000I-51000J0D01*
G01*
X8344000Y-3960000D02*
X8446000Y-4062000D01*
X8446000Y-3960000D02*
X8344000Y-4062000D01*
X8446000Y-4011000D02*
G75*
G03*
X8446000Y-4011000I-51000J0D01*
G01*
X8344000Y-5738000D02*
X8446000Y-5840000D01*
X8446000Y-5738000D02*
X8344000Y-5840000D01*
X8446000Y-5789000D02*
G75*
G03*
X8446000Y-5789000I-51000J0D01*
G01*
X8598000Y-3960000D02*
X8700000Y-4062000D01*
X8700000Y-3960000D02*
X8598000Y-4062000D01*
X8700000Y-4011000D02*
G75*
G03*
X8700000Y-4011000I-51000J0D01*
G01*
X8598000Y-5738000D02*
X8700000Y-5840000D01*
X8700000Y-5738000D02*
X8598000Y-5840000D01*
X8700000Y-5789000D02*
G75*
G03*
X8700000Y-5789000I-51000J0D01*
G01*
X8852000Y-3960000D02*
X8954000Y-4062000D01*
X8954000Y-3960000D02*
X8852000Y-4062000D01*
X8954000Y-4011000D02*
G75*
G03*
X8954000Y-4011000I-51000J0D01*
G01*
X8852000Y-5738000D02*
X8954000Y-5840000D01*
X8954000Y-5738000D02*
X8852000Y-5840000D01*
X8954000Y-5789000D02*
G75*
G03*
X8954000Y-5789000I-51000J0D01*
G01*
X9106000Y-3960000D02*
X9208000Y-4062000D01*
X9208000Y-3960000D02*
X9106000Y-4062000D01*
X9208000Y-4011000D02*
G75*
G03*
X9208000Y-4011000I-51000J0D01*
G01*
X9106000Y-5738000D02*
X9208000Y-5840000D01*
X9208000Y-5738000D02*
X9106000Y-5840000D01*
X9208000Y-5789000D02*
G75*
G03*
X9208000Y-5789000I-51000J0D01*
G01*
X9360000Y-3960000D02*
X9462000Y-4062000D01*
X9462000Y-3960000D02*
X9360000Y-4062000D01*
X9462000Y-4011000D02*
G75*
G03*
X9462000Y-4011000I-51000J0D01*
G01*
X9360000Y-5738000D02*
X9462000Y-5840000D01*
X9462000Y-5738000D02*
X9360000Y-5840000D01*
X9462000Y-5789000D02*
G75*
G03*
X9462000Y-5789000I-51000J0D01*
G01*
X9614000Y-3960000D02*
X9716000Y-4062000D01*
X9716000Y-3960000D02*
X9614000Y-4062000D01*
X9716000Y-4011000D02*
G75*
G03*
X9716000Y-4011000I-51000J0D01*
G01*
X9614000Y-5738000D02*
X9716000Y-5840000D01*
X9716000Y-5738000D02*
X9614000Y-5840000D01*
X9716000Y-5789000D02*
G75*
G03*
X9716000Y-5789000I-51000J0D01*
G01*
X9868000Y-3960000D02*
X9970000Y-4062000D01*
X9970000Y-3960000D02*
X9868000Y-4062000D01*
X9970000Y-4011000D02*
G75*
G03*
X9970000Y-4011000I-51000J0D01*
G01*
X9868000Y-5738000D02*
X9970000Y-5840000D01*
X9970000Y-5738000D02*
X9868000Y-5840000D01*
X9970000Y-5789000D02*
G75*
G03*
X9970000Y-5789000I-51000J0D01*
G01*
X10122000Y-3960000D02*
X10224000Y-4062000D01*
X10224000Y-3960000D02*
X10122000Y-4062000D01*
X10224000Y-4011000D02*
G75*
G03*
X10224000Y-4011000I-51000J0D01*
G01*
X10122000Y-5738000D02*
X10224000Y-5840000D01*
X10224000Y-5738000D02*
X10122000Y-5840000D01*
X10224000Y-5789000D02*
G75*
G03*
X10224000Y-5789000I-51000J0D01*
G01*
X10376000Y-3960000D02*
X10478000Y-4062000D01*
X10478000Y-3960000D02*
X10376000Y-4062000D01*
X10478000Y-4011000D02*
G75*
G03*
X10478000Y-4011000I-51000J0D01*
G01*
X10376000Y-5738000D02*
X10478000Y-5840000D01*
X10478000Y-5738000D02*
X10376000Y-5840000D01*
X10478000Y-5789000D02*
G75*
G03*
X10478000Y-5789000I-51000J0D01*
G01*
X10630000Y-3960000D02*
X10732000Y-4062000D01*
X10732000Y-3960000D02*
X10630000Y-4062000D01*
X10732000Y-4011000D02*
G75*
G03*
X10732000Y-4011000I-51000J0D01*
G01*
X10630000Y-5738000D02*
X10732000Y-5840000D01*
X10732000Y-5738000D02*
X10630000Y-5840000D01*
X10732000Y-5789000D02*
G75*
G03*
X10732000Y-5789000I-51000J0D01*
G01*
X10884000Y-3960000D02*
X10986000Y-4062000D01*
X10986000Y-3960000D02*
X10884000Y-4062000D01*
X10986000Y-4011000D02*
G75*
G03*
X10986000Y-4011000I-51000J0D01*
G01*
X10884000Y-5738000D02*
X10986000Y-5840000D01*
X10986000Y-5738000D02*
X10884000Y-5840000D01*
X10986000Y-5789000D02*
G75*
G03*
X10986000Y-5789000I-51000J0D01*
G01*
X11138000Y-3960000D02*
X11240000Y-4062000D01*
X11240000Y-3960000D02*
X11138000Y-4062000D01*
X11240000Y-4011000D02*
G75*
G03*
X11240000Y-4011000I-51000J0D01*
G01*
X11138000Y-5738000D02*
X11240000Y-5840000D01*
X11240000Y-5738000D02*
X11138000Y-5840000D01*
X11240000Y-5789000D02*
G75*
G03*
X11240000Y-5789000I-51000J0D01*
G01*
X11392000Y-3960000D02*
X11494000Y-4062000D01*
X11494000Y-3960000D02*
X11392000Y-4062000D01*
X11494000Y-4011000D02*
G75*
G03*
X11494000Y-4011000I-51000J0D01*
G01*
X11392000Y-5738000D02*
X11494000Y-5840000D01*
X11494000Y-5738000D02*
X11392000Y-5840000D01*
X11494000Y-5789000D02*
G75*
G03*
X11494000Y-5789000I-51000J0D01*
G01*
X11646000Y-3960000D02*
X11748000Y-4062000D01*
X11748000Y-3960000D02*
X11646000Y-4062000D01*
X11748000Y-4011000D02*
G75*
G03*
X11748000Y-4011000I-51000J0D01*
G01*
X11646000Y-5738000D02*
X11748000Y-5840000D01*
X11748000Y-5738000D02*
X11646000Y-5840000D01*
X11748000Y-5789000D02*
G75*
G03*
X11748000Y-5789000I-51000J0D01*
G01*
X11900000Y-3960000D02*
X12002000Y-4062000D01*
X12002000Y-3960000D02*
X11900000Y-4062000D01*
X12002000Y-4011000D02*
G75*
G03*
X12002000Y-4011000I-51000J0D01*
G01*
X11900000Y-5738000D02*
X12002000Y-5840000D01*
X12002000Y-5738000D02*
X11900000Y-5840000D01*
X12002000Y-5789000D02*
G75*
G03*
X12002000Y-5789000I-51000J0D01*
G01*
X12154000Y-3960000D02*
X12256000Y-4062000D01*
X12256000Y-3960000D02*
X12154000Y-4062000D01*
X12256000Y-4011000D02*
G75*
G03*
X12256000Y-4011000I-51000J0D01*
G01*
X12154000Y-5738000D02*
X12256000Y-5840000D01*
X12256000Y-5738000D02*
X12154000Y-5840000D01*
X12256000Y-5789000D02*
G75*
G03*
X12256000Y-5789000I-51000J0D01*
G01*
X12408000Y-3960000D02*
X12510000Y-4062000D01*
X12510000Y-3960000D02*
X12408000Y-4062000D01*
X12510000Y-4011000D02*
G75*
G03*
X12510000Y-4011000I-51000J0D01*
G01*
X12408000Y-5738000D02*
X12510000Y-5840000D01*
X12510000Y-5738000D02*
X12408000Y-5840000D01*
X12510000Y-5789000D02*
G75*
G03*
X12510000Y-5789000I-51000J0D01*
G01*
X12662000Y-3960000D02*
X12764000Y-4062000D01*
X12764000Y-3960000D02*
X12662000Y-4062000D01*
X12764000Y-4011000D02*
G75*
G03*
X12764000Y-4011000I-51000J0D01*
G01*
X12662000Y-5738000D02*
X12764000Y-5840000D01*
X12764000Y-5738000D02*
X12662000Y-5840000D01*
X12764000Y-5789000D02*
G75*
G03*
X12764000Y-5789000I-51000J0D01*
G01*
D16*
X8584510Y-3133960D02*
X8716590Y-3266040D01*
X8716590Y-3133960D02*
X8584510Y-3266040D01*
X8650550Y-3133960D02*
X8650550Y-3266040D01*
X8584510Y-3200000D02*
X8716590Y-3200000D01*
X8834510Y-2133960D02*
X8966590Y-2266040D01*
X8966590Y-2133960D02*
X8834510Y-2266040D01*
X8900550Y-2133960D02*
X8900550Y-2266040D01*
X8834510Y-2200000D02*
X8966590Y-2200000D01*
X8834510Y-3383960D02*
X8966590Y-3516040D01*
X8966590Y-3383960D02*
X8834510Y-3516040D01*
X8900550Y-3383960D02*
X8900550Y-3516040D01*
X8834510Y-3450000D02*
X8966590Y-3450000D01*
X9084510Y-2133960D02*
X9216590Y-2266040D01*
X9216590Y-2133960D02*
X9084510Y-2266040D01*
X9150550Y-2133960D02*
X9150550Y-2266040D01*
X9084510Y-2200000D02*
X9216590Y-2200000D01*
X9334510Y-3133960D02*
X9466590Y-3266040D01*
X9466590Y-3133960D02*
X9334510Y-3266040D01*
X9400550Y-3133960D02*
X9400550Y-3266040D01*
X9334510Y-3200000D02*
X9466590Y-3200000D01*
X9584510Y-2133960D02*
X9716590Y-2266040D01*
X9716590Y-2133960D02*
X9584510Y-2266040D01*
X9650550Y-2133960D02*
X9650550Y-2266040D01*
X9584510Y-2200000D02*
X9716590Y-2200000D01*
X9834510Y-2133960D02*
X9966590Y-2266040D01*
X9966590Y-2133960D02*
X9834510Y-2266040D01*
X9900550Y-2133960D02*
X9900550Y-2266040D01*
X9834510Y-2200000D02*
X9966590Y-2200000D01*
X9834510Y-3383960D02*
X9966590Y-3516040D01*
X9966590Y-3383960D02*
X9834510Y-3516040D01*
X9900550Y-3383960D02*
X9900550Y-3516040D01*
X9834510Y-3450000D02*
X9966590Y-3450000D01*
X10084510Y-3133960D02*
X10216590Y-3266040D01*
X10216590Y-3133960D02*
X10084510Y-3266040D01*
X10150550Y-3133960D02*
X10150550Y-3266040D01*
X10084510Y-3200000D02*
X10216590Y-3200000D01*
X10783960Y-3133960D02*
X10916040Y-3266040D01*
X10916040Y-3133960D02*
X10783960Y-3266040D01*
X10850000Y-3133960D02*
X10850000Y-3266040D01*
X10783960Y-3200000D02*
X10916040Y-3200000D01*
X11033960Y-2133960D02*
X11166040Y-2266040D01*
X11166040Y-2133960D02*
X11033960Y-2266040D01*
X11100000Y-2133960D02*
X11100000Y-2266040D01*
X11033960Y-2200000D02*
X11166040Y-2200000D01*
X11033960Y-3383960D02*
X11166040Y-3516040D01*
X11166040Y-3383960D02*
X11033960Y-3516040D01*
X11100000Y-3383960D02*
X11100000Y-3516040D01*
X11033960Y-3450000D02*
X11166040Y-3450000D01*
X11283960Y-2133960D02*
X11416040Y-2266040D01*
X11416040Y-2133960D02*
X11283960Y-2266040D01*
X11350000Y-2133960D02*
X11350000Y-2266040D01*
X11283960Y-2200000D02*
X11416040Y-2200000D01*
X11533960Y-3133960D02*
X11666040Y-3266040D01*
X11666040Y-3133960D02*
X11533960Y-3266040D01*
X11600000Y-3133960D02*
X11600000Y-3266040D01*
X11533960Y-3200000D02*
X11666040Y-3200000D01*
X11783960Y-2133960D02*
X11916040Y-2266040D01*
X11916040Y-2133960D02*
X11783960Y-2266040D01*
X11850000Y-2133960D02*
X11850000Y-2266040D01*
X11783960Y-2200000D02*
X11916040Y-2200000D01*
X12033960Y-2133960D02*
X12166040Y-2266040D01*
X12166040Y-2133960D02*
X12033960Y-2266040D01*
X12100000Y-2133960D02*
X12100000Y-2266040D01*
X12033960Y-2200000D02*
X12166040Y-2200000D01*
X12033960Y-3383960D02*
X12166040Y-3516040D01*
X12166040Y-3383960D02*
X12033960Y-3516040D01*
X12100000Y-3383960D02*
X12100000Y-3516040D01*
X12033960Y-3450000D02*
X12166040Y-3450000D01*
X12283960Y-3133960D02*
X12416040Y-3266040D01*
X12416040Y-3133960D02*
X12283960Y-3266040D01*
X12350000Y-3133960D02*
X12350000Y-3266040D01*
X12283960Y-3200000D02*
X12416040Y-3200000D01*
D17*
X2100000Y-9427000D02*
X2240000Y-9567000D01*
X2240000Y-9427000D02*
X2100000Y-9567000D01*
X2219498Y-9546498D02*
X2219498Y-9447502D01*
X2120502Y-9447502D01*
X2120502Y-9546498D01*
X2219498Y-9546498D01*
X2100000Y-11050000D02*
X2240000Y-11190000D01*
X2240000Y-11050000D02*
X2100000Y-11190000D01*
X2219498Y-11169498D02*
X2219498Y-11070502D01*
X2120502Y-11070502D01*
X2120502Y-11169498D01*
X2219498Y-11169498D01*
X2103500Y-7407000D02*
X2243500Y-7547000D01*
X2243500Y-7407000D02*
X2103500Y-7547000D01*
X2222998Y-7526498D02*
X2222998Y-7427502D01*
X2124002Y-7427502D01*
X2124002Y-7526498D01*
X2222998Y-7526498D01*
X2103500Y-9030000D02*
X2243500Y-9170000D01*
X2243500Y-9030000D02*
X2103500Y-9170000D01*
X2222998Y-9149498D02*
X2222998Y-9050502D01*
X2124002Y-9050502D01*
X2124002Y-9149498D01*
X2222998Y-9149498D01*
X2735000Y-9427000D02*
X2875000Y-9567000D01*
X2875000Y-9427000D02*
X2735000Y-9567000D01*
X2854498Y-9546498D02*
X2854498Y-9447502D01*
X2755502Y-9447502D01*
X2755502Y-9546498D01*
X2854498Y-9546498D01*
X2735000Y-11050000D02*
X2875000Y-11190000D01*
X2875000Y-11050000D02*
X2735000Y-11190000D01*
X2854498Y-11169498D02*
X2854498Y-11070502D01*
X2755502Y-11070502D01*
X2755502Y-11169498D01*
X2854498Y-11169498D01*
X2738500Y-7407000D02*
X2878500Y-7547000D01*
X2878500Y-7407000D02*
X2738500Y-7547000D01*
X2857998Y-7526498D02*
X2857998Y-7427502D01*
X2759002Y-7427502D01*
X2759002Y-7526498D01*
X2857998Y-7526498D01*
X2738500Y-9030000D02*
X2878500Y-9170000D01*
X2878500Y-9030000D02*
X2738500Y-9170000D01*
X2857998Y-9149498D02*
X2857998Y-9050502D01*
X2759002Y-9050502D01*
X2759002Y-9149498D01*
X2857998Y-9149498D01*
X3370000Y-9427000D02*
X3510000Y-9567000D01*
X3510000Y-9427000D02*
X3370000Y-9567000D01*
X3489498Y-9546498D02*
X3489498Y-9447502D01*
X3390502Y-9447502D01*
X3390502Y-9546498D01*
X3489498Y-9546498D01*
X3370000Y-11050000D02*
X3510000Y-11190000D01*
X3510000Y-11050000D02*
X3370000Y-11190000D01*
X3489498Y-11169498D02*
X3489498Y-11070502D01*
X3390502Y-11070502D01*
X3390502Y-11169498D01*
X3489498Y-11169498D01*
X3373500Y-7407000D02*
X3513500Y-7547000D01*
X3513500Y-7407000D02*
X3373500Y-7547000D01*
X3492998Y-7526498D02*
X3492998Y-7427502D01*
X3394002Y-7427502D01*
X3394002Y-7526498D01*
X3492998Y-7526498D01*
X3373500Y-9030000D02*
X3513500Y-9170000D01*
X3513500Y-9030000D02*
X3373500Y-9170000D01*
X3492998Y-9149498D02*
X3492998Y-9050502D01*
X3394002Y-9050502D01*
X3394002Y-9149498D01*
X3492998Y-9149498D01*
X17490000Y-7408000D02*
X17630000Y-7548000D01*
X17630000Y-7408000D02*
X17490000Y-7548000D01*
X17609498Y-7527498D02*
X17609498Y-7428502D01*
X17510502Y-7428502D01*
X17510502Y-7527498D01*
X17609498Y-7527498D01*
X17490000Y-9031000D02*
X17630000Y-9171000D01*
X17630000Y-9031000D02*
X17490000Y-9171000D01*
X17609498Y-9150498D02*
X17609498Y-9051502D01*
X17510502Y-9051502D01*
X17510502Y-9150498D01*
X17609498Y-9150498D01*
X17490000Y-9429500D02*
X17630000Y-9569500D01*
X17630000Y-9429500D02*
X17490000Y-9569500D01*
X17609498Y-9548998D02*
X17609498Y-9450002D01*
X17510502Y-9450002D01*
X17510502Y-9548998D01*
X17609498Y-9548998D01*
X17490000Y-11052500D02*
X17630000Y-11192500D01*
X17630000Y-11052500D02*
X17490000Y-11192500D01*
X17609498Y-11171998D02*
X17609498Y-11073002D01*
X17510502Y-11073002D01*
X17510502Y-11171998D01*
X17609498Y-11171998D01*
X17491500Y-3310000D02*
X17631500Y-3450000D01*
X17631500Y-3310000D02*
X17491500Y-3450000D01*
X17610998Y-3429498D02*
X17610998Y-3330502D01*
X17512002Y-3330502D01*
X17512002Y-3429498D01*
X17610998Y-3429498D01*
X17491500Y-4933000D02*
X17631500Y-5073000D01*
X17631500Y-4933000D02*
X17491500Y-5073000D01*
X17610998Y-5052498D02*
X17610998Y-4953502D01*
X17512002Y-4953502D01*
X17512002Y-5052498D01*
X17610998Y-5052498D01*
X18125000Y-7408000D02*
X18265000Y-7548000D01*
X18265000Y-7408000D02*
X18125000Y-7548000D01*
X18244498Y-7527498D02*
X18244498Y-7428502D01*
X18145502Y-7428502D01*
X18145502Y-7527498D01*
X18244498Y-7527498D01*
X18125000Y-9031000D02*
X18265000Y-9171000D01*
X18265000Y-9031000D02*
X18125000Y-9171000D01*
X18244498Y-9150498D02*
X18244498Y-9051502D01*
X18145502Y-9051502D01*
X18145502Y-9150498D01*
X18244498Y-9150498D01*
X18125000Y-9429500D02*
X18265000Y-9569500D01*
X18265000Y-9429500D02*
X18125000Y-9569500D01*
X18244498Y-9548998D02*
X18244498Y-9450002D01*
X18145502Y-9450002D01*
X18145502Y-9548998D01*
X18244498Y-9548998D01*
X18125000Y-11052500D02*
X18265000Y-11192500D01*
X18265000Y-11052500D02*
X18125000Y-11192500D01*
X18244498Y-11171998D02*
X18244498Y-11073002D01*
X18145502Y-11073002D01*
X18145502Y-11171998D01*
X18244498Y-11171998D01*
X18126500Y-3310000D02*
X18266500Y-3450000D01*
X18266500Y-3310000D02*
X18126500Y-3450000D01*
X18245998Y-3429498D02*
X18245998Y-3330502D01*
X18147002Y-3330502D01*
X18147002Y-3429498D01*
X18245998Y-3429498D01*
X18126500Y-4933000D02*
X18266500Y-5073000D01*
X18266500Y-4933000D02*
X18126500Y-5073000D01*
X18245998Y-5052498D02*
X18245998Y-4953502D01*
X18147002Y-4953502D01*
X18147002Y-5052498D01*
X18245998Y-5052498D01*
X18760000Y-7408000D02*
X18900000Y-7548000D01*
X18900000Y-7408000D02*
X18760000Y-7548000D01*
X18879498Y-7527498D02*
X18879498Y-7428502D01*
X18780502Y-7428502D01*
X18780502Y-7527498D01*
X18879498Y-7527498D01*
X18760000Y-9031000D02*
X18900000Y-9171000D01*
X18900000Y-9031000D02*
X18760000Y-9171000D01*
X18879498Y-9150498D02*
X18879498Y-9051502D01*
X18780502Y-9051502D01*
X18780502Y-9150498D01*
X18879498Y-9150498D01*
X18760000Y-9429500D02*
X18900000Y-9569500D01*
X18900000Y-9429500D02*
X18760000Y-9569500D01*
X18879498Y-9548998D02*
X18879498Y-9450002D01*
X18780502Y-9450002D01*
X18780502Y-9548998D01*
X18879498Y-9548998D01*
X18760000Y-11052500D02*
X18900000Y-11192500D01*
X18900000Y-11052500D02*
X18760000Y-11192500D01*
X18879498Y-11171998D02*
X18879498Y-11073002D01*
X18780502Y-11073002D01*
X18780502Y-11171998D01*
X18879498Y-11171998D01*
X18761500Y-3310000D02*
X18901500Y-3450000D01*
X18901500Y-3310000D02*
X18761500Y-3450000D01*
X18880998Y-3429498D02*
X18880998Y-3330502D01*
X18782002Y-3330502D01*
X18782002Y-3429498D01*
X18880998Y-3429498D01*
X18761500Y-4933000D02*
X18901500Y-5073000D01*
X18901500Y-4933000D02*
X18761500Y-5073000D01*
X18880998Y-5052498D02*
X18880998Y-4953502D01*
X18782002Y-4953502D01*
X18782002Y-5052498D01*
X18880998Y-5052498D01*
D18*
X12389000Y-9109000D02*
X12539000Y-9259000D01*
X12539000Y-9109000D02*
X12389000Y-9259000D01*
X12464000Y-9259000D02*
X12539000Y-9184000D01*
X12464000Y-9109000D01*
X12389000Y-9184000D01*
X12464000Y-9259000D01*
X13151000Y-7077000D02*
X13301000Y-7227000D01*
X13301000Y-7077000D02*
X13151000Y-7227000D01*
X13226000Y-7227000D02*
X13301000Y-7152000D01*
X13226000Y-7077000D01*
X13151000Y-7152000D01*
X13226000Y-7227000D01*
X13405000Y-9109000D02*
X13555000Y-9259000D01*
X13555000Y-9109000D02*
X13405000Y-9259000D01*
X13480000Y-9259000D02*
X13555000Y-9184000D01*
X13480000Y-9109000D01*
X13405000Y-9184000D01*
X13480000Y-9259000D01*
X13659000Y-7077000D02*
X13809000Y-7227000D01*
X13809000Y-7077000D02*
X13659000Y-7227000D01*
X13734000Y-7227000D02*
X13809000Y-7152000D01*
X13734000Y-7077000D01*
X13659000Y-7152000D01*
X13734000Y-7227000D01*
X14421000Y-7077000D02*
X14571000Y-7227000D01*
X14571000Y-7077000D02*
X14421000Y-7227000D01*
X14496000Y-7227000D02*
X14571000Y-7152000D01*
X14496000Y-7077000D01*
X14421000Y-7152000D01*
X14496000Y-7227000D01*
X14421000Y-9109000D02*
X14571000Y-9259000D01*
X14571000Y-9109000D02*
X14421000Y-9259000D01*
X14496000Y-9259000D02*
X14571000Y-9184000D01*
X14496000Y-9109000D01*
X14421000Y-9184000D01*
X14496000Y-9259000D01*
D19*
X6775000Y-2710000D02*
X6775000Y-2970000D01*
X6645000Y-2840000D02*
X6905000Y-2840000D01*
X6905000Y-2840000D02*
G75*
G03*
X6905000Y-2840000I-130000J0D01*
G01*
X6775000Y-3830000D02*
X6775000Y-4090000D01*
X6645000Y-3960000D02*
X6905000Y-3960000D01*
X6905000Y-3960000D02*
G75*
G03*
X6905000Y-3960000I-130000J0D01*
G01*
X14275000Y-2710000D02*
X14275000Y-2970000D01*
X14145000Y-2840000D02*
X14405000Y-2840000D01*
X14405000Y-2840000D02*
G75*
G03*
X14405000Y-2840000I-130000J0D01*
G01*
X14275000Y-3830000D02*
X14275000Y-4090000D01*
X14145000Y-3960000D02*
X14405000Y-3960000D01*
X14405000Y-3960000D02*
G75*
G03*
X14405000Y-3960000I-130000J0D01*
G01*
D11*
X2251488Y-12816484D02*
X2251488Y-12616484D01*
X2251488Y-12616484D02*
X2299107Y-12616484D01*
X2299107Y-12616484D02*
X2327678Y-12626008D01*
X2327678Y-12626008D02*
X2346726Y-12645055D01*
X2346726Y-12645055D02*
X2356249Y-12664103D01*
X2356249Y-12664103D02*
X2365773Y-12702198D01*
X2365773Y-12702198D02*
X2365773Y-12730769D01*
X2365773Y-12730769D02*
X2356249Y-12768865D01*
X2356249Y-12768865D02*
X2346726Y-12787912D01*
X2346726Y-12787912D02*
X2327678Y-12806960D01*
X2327678Y-12806960D02*
X2299107Y-12816484D01*
X2299107Y-12816484D02*
X2251488Y-12816484D01*
X2451488Y-12816484D02*
X2451488Y-12683150D01*
X2451488Y-12721246D02*
X2461011Y-12702198D01*
X2461011Y-12702198D02*
X2470535Y-12692674D01*
X2470535Y-12692674D02*
X2489583Y-12683150D01*
X2489583Y-12683150D02*
X2508630Y-12683150D01*
X2575297Y-12816484D02*
X2575297Y-12683150D01*
X2575297Y-12616484D02*
X2565773Y-12626008D01*
X2565773Y-12626008D02*
X2575297Y-12635531D01*
X2575297Y-12635531D02*
X2584821Y-12626008D01*
X2584821Y-12626008D02*
X2575297Y-12616484D01*
X2575297Y-12616484D02*
X2575297Y-12635531D01*
X2699107Y-12816484D02*
X2680059Y-12806960D01*
X2680059Y-12806960D02*
X2670535Y-12787912D01*
X2670535Y-12787912D02*
X2670535Y-12616484D01*
X2803868Y-12816484D02*
X2784821Y-12806960D01*
X2784821Y-12806960D02*
X2775297Y-12787912D01*
X2775297Y-12787912D02*
X2775297Y-12616484D01*
X3032440Y-12816484D02*
X3032440Y-12616484D01*
X3032440Y-12616484D02*
X3099107Y-12759341D01*
X3099107Y-12759341D02*
X3165773Y-12616484D01*
X3165773Y-12616484D02*
X3165773Y-12816484D01*
X3346726Y-12816484D02*
X3346726Y-12711722D01*
X3346726Y-12711722D02*
X3337202Y-12692674D01*
X3337202Y-12692674D02*
X3318154Y-12683150D01*
X3318154Y-12683150D02*
X3280059Y-12683150D01*
X3280059Y-12683150D02*
X3261011Y-12692674D01*
X3346726Y-12806960D02*
X3327678Y-12816484D01*
X3327678Y-12816484D02*
X3280059Y-12816484D01*
X3280059Y-12816484D02*
X3261011Y-12806960D01*
X3261011Y-12806960D02*
X3251487Y-12787912D01*
X3251487Y-12787912D02*
X3251487Y-12768865D01*
X3251487Y-12768865D02*
X3261011Y-12749817D01*
X3261011Y-12749817D02*
X3280059Y-12740293D01*
X3280059Y-12740293D02*
X3327678Y-12740293D01*
X3327678Y-12740293D02*
X3346726Y-12730769D01*
X3441964Y-12683150D02*
X3441964Y-12883150D01*
X3441964Y-12692674D02*
X3461011Y-12683150D01*
X3461011Y-12683150D02*
X3499107Y-12683150D01*
X3499107Y-12683150D02*
X3518154Y-12692674D01*
X3518154Y-12692674D02*
X3527678Y-12702198D01*
X3527678Y-12702198D02*
X3537202Y-12721246D01*
X3537202Y-12721246D02*
X3537202Y-12778388D01*
X3537202Y-12778388D02*
X3527678Y-12797436D01*
X3527678Y-12797436D02*
X3518154Y-12806960D01*
X3518154Y-12806960D02*
X3499107Y-12816484D01*
X3499107Y-12816484D02*
X3461011Y-12816484D01*
X3461011Y-12816484D02*
X3441964Y-12806960D01*
X3622916Y-12797436D02*
X3632440Y-12806960D01*
X3632440Y-12806960D02*
X3622916Y-12816484D01*
X3622916Y-12816484D02*
X3613392Y-12806960D01*
X3613392Y-12806960D02*
X3622916Y-12797436D01*
X3622916Y-12797436D02*
X3622916Y-12816484D01*
X3622916Y-12692674D02*
X3632440Y-12702198D01*
X3632440Y-12702198D02*
X3622916Y-12711722D01*
X3622916Y-12711722D02*
X3613392Y-12702198D01*
X3613392Y-12702198D02*
X3622916Y-12692674D01*
X3622916Y-12692674D02*
X3622916Y-12711722D01*
D12*
X1950711Y-13125000D02*
X1990711Y-13165000D01*
X1990711Y-13125000D02*
X1950711Y-13165000D01*
D11*
X2289583Y-13036484D02*
X2308630Y-13036484D01*
X2308630Y-13036484D02*
X2327678Y-13046008D01*
X2327678Y-13046008D02*
X2337202Y-13055531D01*
X2337202Y-13055531D02*
X2346726Y-13074579D01*
X2346726Y-13074579D02*
X2356249Y-13112674D01*
X2356249Y-13112674D02*
X2356249Y-13160293D01*
X2356249Y-13160293D02*
X2346726Y-13198388D01*
X2346726Y-13198388D02*
X2337202Y-13217436D01*
X2337202Y-13217436D02*
X2327678Y-13226960D01*
X2327678Y-13226960D02*
X2308630Y-13236484D01*
X2308630Y-13236484D02*
X2289583Y-13236484D01*
X2289583Y-13236484D02*
X2270535Y-13226960D01*
X2270535Y-13226960D02*
X2261011Y-13217436D01*
X2261011Y-13217436D02*
X2251488Y-13198388D01*
X2251488Y-13198388D02*
X2241964Y-13160293D01*
X2241964Y-13160293D02*
X2241964Y-13112674D01*
X2241964Y-13112674D02*
X2251488Y-13074579D01*
X2251488Y-13074579D02*
X2261011Y-13055531D01*
X2261011Y-13055531D02*
X2270535Y-13046008D01*
X2270535Y-13046008D02*
X2289583Y-13036484D01*
X2441964Y-13217436D02*
X2451488Y-13226960D01*
X2451488Y-13226960D02*
X2441964Y-13236484D01*
X2441964Y-13236484D02*
X2432440Y-13226960D01*
X2432440Y-13226960D02*
X2441964Y-13217436D01*
X2441964Y-13217436D02*
X2441964Y-13236484D01*
X2622916Y-13103150D02*
X2622916Y-13236484D01*
X2575297Y-13026960D02*
X2527678Y-13169817D01*
X2527678Y-13169817D02*
X2651488Y-13169817D01*
X2765773Y-13036484D02*
X2784821Y-13036484D01*
X2784821Y-13036484D02*
X2803868Y-13046008D01*
X2803868Y-13046008D02*
X2813392Y-13055531D01*
X2813392Y-13055531D02*
X2822916Y-13074579D01*
X2822916Y-13074579D02*
X2832440Y-13112674D01*
X2832440Y-13112674D02*
X2832440Y-13160293D01*
X2832440Y-13160293D02*
X2822916Y-13198388D01*
X2822916Y-13198388D02*
X2813392Y-13217436D01*
X2813392Y-13217436D02*
X2803868Y-13226960D01*
X2803868Y-13226960D02*
X2784821Y-13236484D01*
X2784821Y-13236484D02*
X2765773Y-13236484D01*
X2765773Y-13236484D02*
X2746726Y-13226960D01*
X2746726Y-13226960D02*
X2737202Y-13217436D01*
X2737202Y-13217436D02*
X2727678Y-13198388D01*
X2727678Y-13198388D02*
X2718154Y-13160293D01*
X2718154Y-13160293D02*
X2718154Y-13112674D01*
X2718154Y-13112674D02*
X2727678Y-13074579D01*
X2727678Y-13074579D02*
X2737202Y-13055531D01*
X2737202Y-13055531D02*
X2746726Y-13046008D01*
X2746726Y-13046008D02*
X2765773Y-13036484D01*
X2956249Y-13036484D02*
X2975297Y-13036484D01*
X2975297Y-13036484D02*
X2994345Y-13046008D01*
X2994345Y-13046008D02*
X3003868Y-13055531D01*
X3003868Y-13055531D02*
X3013392Y-13074579D01*
X3013392Y-13074579D02*
X3022916Y-13112674D01*
X3022916Y-13112674D02*
X3022916Y-13160293D01*
X3022916Y-13160293D02*
X3013392Y-13198388D01*
X3013392Y-13198388D02*
X3003868Y-13217436D01*
X3003868Y-13217436D02*
X2994345Y-13226960D01*
X2994345Y-13226960D02*
X2975297Y-13236484D01*
X2975297Y-13236484D02*
X2956249Y-13236484D01*
X2956249Y-13236484D02*
X2937202Y-13226960D01*
X2937202Y-13226960D02*
X2927678Y-13217436D01*
X2927678Y-13217436D02*
X2918154Y-13198388D01*
X2918154Y-13198388D02*
X2908630Y-13160293D01*
X2908630Y-13160293D02*
X2908630Y-13112674D01*
X2908630Y-13112674D02*
X2918154Y-13074579D01*
X2918154Y-13074579D02*
X2927678Y-13055531D01*
X2927678Y-13055531D02*
X2937202Y-13046008D01*
X2937202Y-13046008D02*
X2956249Y-13036484D01*
X3108630Y-13236484D02*
X3108630Y-13103150D01*
X3108630Y-13122198D02*
X3118154Y-13112674D01*
X3118154Y-13112674D02*
X3137202Y-13103150D01*
X3137202Y-13103150D02*
X3165773Y-13103150D01*
X3165773Y-13103150D02*
X3184821Y-13112674D01*
X3184821Y-13112674D02*
X3194345Y-13131722D01*
X3194345Y-13131722D02*
X3194345Y-13236484D01*
X3194345Y-13131722D02*
X3203868Y-13112674D01*
X3203868Y-13112674D02*
X3222916Y-13103150D01*
X3222916Y-13103150D02*
X3251487Y-13103150D01*
X3251487Y-13103150D02*
X3270535Y-13112674D01*
X3270535Y-13112674D02*
X3280059Y-13131722D01*
X3280059Y-13131722D02*
X3280059Y-13236484D01*
X3375297Y-13236484D02*
X3375297Y-13103150D01*
X3375297Y-13122198D02*
X3384821Y-13112674D01*
X3384821Y-13112674D02*
X3403868Y-13103150D01*
X3403868Y-13103150D02*
X3432440Y-13103150D01*
X3432440Y-13103150D02*
X3451488Y-13112674D01*
X3451488Y-13112674D02*
X3461011Y-13131722D01*
X3461011Y-13131722D02*
X3461011Y-13236484D01*
X3461011Y-13131722D02*
X3470535Y-13112674D01*
X3470535Y-13112674D02*
X3489583Y-13103150D01*
X3489583Y-13103150D02*
X3518154Y-13103150D01*
X3518154Y-13103150D02*
X3537202Y-13112674D01*
X3537202Y-13112674D02*
X3546726Y-13131722D01*
X3546726Y-13131722D02*
X3546726Y-13236484D01*
X3937202Y-13026960D02*
X3765773Y-13284103D01*
X4194345Y-13036484D02*
X4213393Y-13036484D01*
X4213393Y-13036484D02*
X4232440Y-13046008D01*
X4232440Y-13046008D02*
X4241964Y-13055531D01*
X4241964Y-13055531D02*
X4251488Y-13074579D01*
X4251488Y-13074579D02*
X4261012Y-13112674D01*
X4261012Y-13112674D02*
X4261012Y-13160293D01*
X4261012Y-13160293D02*
X4251488Y-13198388D01*
X4251488Y-13198388D02*
X4241964Y-13217436D01*
X4241964Y-13217436D02*
X4232440Y-13226960D01*
X4232440Y-13226960D02*
X4213393Y-13236484D01*
X4213393Y-13236484D02*
X4194345Y-13236484D01*
X4194345Y-13236484D02*
X4175297Y-13226960D01*
X4175297Y-13226960D02*
X4165773Y-13217436D01*
X4165773Y-13217436D02*
X4156250Y-13198388D01*
X4156250Y-13198388D02*
X4146726Y-13160293D01*
X4146726Y-13160293D02*
X4146726Y-13112674D01*
X4146726Y-13112674D02*
X4156250Y-13074579D01*
X4156250Y-13074579D02*
X4165773Y-13055531D01*
X4165773Y-13055531D02*
X4175297Y-13046008D01*
X4175297Y-13046008D02*
X4194345Y-13036484D01*
X4346726Y-13217436D02*
X4356250Y-13226960D01*
X4356250Y-13226960D02*
X4346726Y-13236484D01*
X4346726Y-13236484D02*
X4337202Y-13226960D01*
X4337202Y-13226960D02*
X4346726Y-13217436D01*
X4346726Y-13217436D02*
X4346726Y-13236484D01*
X4480059Y-13036484D02*
X4499107Y-13036484D01*
X4499107Y-13036484D02*
X4518154Y-13046008D01*
X4518154Y-13046008D02*
X4527678Y-13055531D01*
X4527678Y-13055531D02*
X4537202Y-13074579D01*
X4537202Y-13074579D02*
X4546726Y-13112674D01*
X4546726Y-13112674D02*
X4546726Y-13160293D01*
X4546726Y-13160293D02*
X4537202Y-13198388D01*
X4537202Y-13198388D02*
X4527678Y-13217436D01*
X4527678Y-13217436D02*
X4518154Y-13226960D01*
X4518154Y-13226960D02*
X4499107Y-13236484D01*
X4499107Y-13236484D02*
X4480059Y-13236484D01*
X4480059Y-13236484D02*
X4461012Y-13226960D01*
X4461012Y-13226960D02*
X4451488Y-13217436D01*
X4451488Y-13217436D02*
X4441964Y-13198388D01*
X4441964Y-13198388D02*
X4432440Y-13160293D01*
X4432440Y-13160293D02*
X4432440Y-13112674D01*
X4432440Y-13112674D02*
X4441964Y-13074579D01*
X4441964Y-13074579D02*
X4451488Y-13055531D01*
X4451488Y-13055531D02*
X4461012Y-13046008D01*
X4461012Y-13046008D02*
X4480059Y-13036484D01*
X4737202Y-13236484D02*
X4622916Y-13236484D01*
X4680059Y-13236484D02*
X4680059Y-13036484D01*
X4680059Y-13036484D02*
X4661012Y-13065055D01*
X4661012Y-13065055D02*
X4641964Y-13084103D01*
X4641964Y-13084103D02*
X4622916Y-13093627D01*
X4918154Y-13036484D02*
X4822916Y-13036484D01*
X4822916Y-13036484D02*
X4813393Y-13131722D01*
X4813393Y-13131722D02*
X4822916Y-13122198D01*
X4822916Y-13122198D02*
X4841964Y-13112674D01*
X4841964Y-13112674D02*
X4889583Y-13112674D01*
X4889583Y-13112674D02*
X4908631Y-13122198D01*
X4908631Y-13122198D02*
X4918154Y-13131722D01*
X4918154Y-13131722D02*
X4927678Y-13150769D01*
X4927678Y-13150769D02*
X4927678Y-13198388D01*
X4927678Y-13198388D02*
X4918154Y-13217436D01*
X4918154Y-13217436D02*
X4908631Y-13226960D01*
X4908631Y-13226960D02*
X4889583Y-13236484D01*
X4889583Y-13236484D02*
X4841964Y-13236484D01*
X4841964Y-13236484D02*
X4822916Y-13226960D01*
X4822916Y-13226960D02*
X4813393Y-13217436D01*
X4994345Y-13036484D02*
X5127678Y-13036484D01*
X5127678Y-13036484D02*
X5041964Y-13236484D01*
X5194345Y-13036484D02*
X5194345Y-13074579D01*
X5270535Y-13036484D02*
X5270535Y-13074579D01*
X5565774Y-13312674D02*
X5556250Y-13303150D01*
X5556250Y-13303150D02*
X5537202Y-13274579D01*
X5537202Y-13274579D02*
X5527678Y-13255531D01*
X5527678Y-13255531D02*
X5518155Y-13226960D01*
X5518155Y-13226960D02*
X5508631Y-13179341D01*
X5508631Y-13179341D02*
X5508631Y-13141246D01*
X5508631Y-13141246D02*
X5518155Y-13093627D01*
X5518155Y-13093627D02*
X5527678Y-13065055D01*
X5527678Y-13065055D02*
X5537202Y-13046008D01*
X5537202Y-13046008D02*
X5556250Y-13017436D01*
X5556250Y-13017436D02*
X5565774Y-13007912D01*
X5727678Y-13103150D02*
X5727678Y-13236484D01*
X5680059Y-13026960D02*
X5632440Y-13169817D01*
X5632440Y-13169817D02*
X5756250Y-13169817D01*
X5984821Y-13236484D02*
X5984821Y-13036484D01*
X6070535Y-13236484D02*
X6070535Y-13131722D01*
X6070535Y-13131722D02*
X6061012Y-13112674D01*
X6061012Y-13112674D02*
X6041964Y-13103150D01*
X6041964Y-13103150D02*
X6013393Y-13103150D01*
X6013393Y-13103150D02*
X5994345Y-13112674D01*
X5994345Y-13112674D02*
X5984821Y-13122198D01*
X6194345Y-13236484D02*
X6175297Y-13226960D01*
X6175297Y-13226960D02*
X6165774Y-13217436D01*
X6165774Y-13217436D02*
X6156250Y-13198388D01*
X6156250Y-13198388D02*
X6156250Y-13141246D01*
X6156250Y-13141246D02*
X6165774Y-13122198D01*
X6165774Y-13122198D02*
X6175297Y-13112674D01*
X6175297Y-13112674D02*
X6194345Y-13103150D01*
X6194345Y-13103150D02*
X6222916Y-13103150D01*
X6222916Y-13103150D02*
X6241964Y-13112674D01*
X6241964Y-13112674D02*
X6251488Y-13122198D01*
X6251488Y-13122198D02*
X6261012Y-13141246D01*
X6261012Y-13141246D02*
X6261012Y-13198388D01*
X6261012Y-13198388D02*
X6251488Y-13217436D01*
X6251488Y-13217436D02*
X6241964Y-13226960D01*
X6241964Y-13226960D02*
X6222916Y-13236484D01*
X6222916Y-13236484D02*
X6194345Y-13236484D01*
X6375297Y-13236484D02*
X6356250Y-13226960D01*
X6356250Y-13226960D02*
X6346726Y-13207912D01*
X6346726Y-13207912D02*
X6346726Y-13036484D01*
X6527678Y-13226960D02*
X6508631Y-13236484D01*
X6508631Y-13236484D02*
X6470535Y-13236484D01*
X6470535Y-13236484D02*
X6451488Y-13226960D01*
X6451488Y-13226960D02*
X6441964Y-13207912D01*
X6441964Y-13207912D02*
X6441964Y-13131722D01*
X6441964Y-13131722D02*
X6451488Y-13112674D01*
X6451488Y-13112674D02*
X6470535Y-13103150D01*
X6470535Y-13103150D02*
X6508631Y-13103150D01*
X6508631Y-13103150D02*
X6527678Y-13112674D01*
X6527678Y-13112674D02*
X6537202Y-13131722D01*
X6537202Y-13131722D02*
X6537202Y-13150769D01*
X6537202Y-13150769D02*
X6441964Y-13169817D01*
X6613393Y-13226960D02*
X6632440Y-13236484D01*
X6632440Y-13236484D02*
X6670535Y-13236484D01*
X6670535Y-13236484D02*
X6689583Y-13226960D01*
X6689583Y-13226960D02*
X6699107Y-13207912D01*
X6699107Y-13207912D02*
X6699107Y-13198388D01*
X6699107Y-13198388D02*
X6689583Y-13179341D01*
X6689583Y-13179341D02*
X6670535Y-13169817D01*
X6670535Y-13169817D02*
X6641964Y-13169817D01*
X6641964Y-13169817D02*
X6622916Y-13160293D01*
X6622916Y-13160293D02*
X6613393Y-13141246D01*
X6613393Y-13141246D02*
X6613393Y-13131722D01*
X6613393Y-13131722D02*
X6622916Y-13112674D01*
X6622916Y-13112674D02*
X6641964Y-13103150D01*
X6641964Y-13103150D02*
X6670535Y-13103150D01*
X6670535Y-13103150D02*
X6689583Y-13112674D01*
X6765774Y-13312674D02*
X6775297Y-13303150D01*
X6775297Y-13303150D02*
X6794345Y-13274579D01*
X6794345Y-13274579D02*
X6803869Y-13255531D01*
X6803869Y-13255531D02*
X6813393Y-13226960D01*
X6813393Y-13226960D02*
X6822916Y-13179341D01*
X6822916Y-13179341D02*
X6822916Y-13141246D01*
X6822916Y-13141246D02*
X6813393Y-13093627D01*
X6813393Y-13093627D02*
X6803869Y-13065055D01*
X6803869Y-13065055D02*
X6794345Y-13046008D01*
X6794345Y-13046008D02*
X6775297Y-13017436D01*
X6775297Y-13017436D02*
X6765774Y-13007912D01*
D12*
X1990711Y-13409000D02*
G75*
G03*
X1990711Y-13409000I-20000J0D01*
G01*
D11*
X2289583Y-13300484D02*
X2308630Y-13300484D01*
X2308630Y-13300484D02*
X2327678Y-13310008D01*
X2327678Y-13310008D02*
X2337202Y-13319531D01*
X2337202Y-13319531D02*
X2346726Y-13338579D01*
X2346726Y-13338579D02*
X2356249Y-13376674D01*
X2356249Y-13376674D02*
X2356249Y-13424293D01*
X2356249Y-13424293D02*
X2346726Y-13462388D01*
X2346726Y-13462388D02*
X2337202Y-13481436D01*
X2337202Y-13481436D02*
X2327678Y-13490960D01*
X2327678Y-13490960D02*
X2308630Y-13500484D01*
X2308630Y-13500484D02*
X2289583Y-13500484D01*
X2289583Y-13500484D02*
X2270535Y-13490960D01*
X2270535Y-13490960D02*
X2261011Y-13481436D01*
X2261011Y-13481436D02*
X2251488Y-13462388D01*
X2251488Y-13462388D02*
X2241964Y-13424293D01*
X2241964Y-13424293D02*
X2241964Y-13376674D01*
X2241964Y-13376674D02*
X2251488Y-13338579D01*
X2251488Y-13338579D02*
X2261011Y-13319531D01*
X2261011Y-13319531D02*
X2270535Y-13310008D01*
X2270535Y-13310008D02*
X2289583Y-13300484D01*
X2441964Y-13481436D02*
X2451488Y-13490960D01*
X2451488Y-13490960D02*
X2441964Y-13500484D01*
X2441964Y-13500484D02*
X2432440Y-13490960D01*
X2432440Y-13490960D02*
X2441964Y-13481436D01*
X2441964Y-13481436D02*
X2441964Y-13500484D01*
X2622916Y-13367150D02*
X2622916Y-13500484D01*
X2575297Y-13290960D02*
X2527678Y-13433817D01*
X2527678Y-13433817D02*
X2651488Y-13433817D01*
X2765773Y-13300484D02*
X2784821Y-13300484D01*
X2784821Y-13300484D02*
X2803868Y-13310008D01*
X2803868Y-13310008D02*
X2813392Y-13319531D01*
X2813392Y-13319531D02*
X2822916Y-13338579D01*
X2822916Y-13338579D02*
X2832440Y-13376674D01*
X2832440Y-13376674D02*
X2832440Y-13424293D01*
X2832440Y-13424293D02*
X2822916Y-13462388D01*
X2822916Y-13462388D02*
X2813392Y-13481436D01*
X2813392Y-13481436D02*
X2803868Y-13490960D01*
X2803868Y-13490960D02*
X2784821Y-13500484D01*
X2784821Y-13500484D02*
X2765773Y-13500484D01*
X2765773Y-13500484D02*
X2746726Y-13490960D01*
X2746726Y-13490960D02*
X2737202Y-13481436D01*
X2737202Y-13481436D02*
X2727678Y-13462388D01*
X2727678Y-13462388D02*
X2718154Y-13424293D01*
X2718154Y-13424293D02*
X2718154Y-13376674D01*
X2718154Y-13376674D02*
X2727678Y-13338579D01*
X2727678Y-13338579D02*
X2737202Y-13319531D01*
X2737202Y-13319531D02*
X2746726Y-13310008D01*
X2746726Y-13310008D02*
X2765773Y-13300484D01*
X2956249Y-13300484D02*
X2975297Y-13300484D01*
X2975297Y-13300484D02*
X2994345Y-13310008D01*
X2994345Y-13310008D02*
X3003868Y-13319531D01*
X3003868Y-13319531D02*
X3013392Y-13338579D01*
X3013392Y-13338579D02*
X3022916Y-13376674D01*
X3022916Y-13376674D02*
X3022916Y-13424293D01*
X3022916Y-13424293D02*
X3013392Y-13462388D01*
X3013392Y-13462388D02*
X3003868Y-13481436D01*
X3003868Y-13481436D02*
X2994345Y-13490960D01*
X2994345Y-13490960D02*
X2975297Y-13500484D01*
X2975297Y-13500484D02*
X2956249Y-13500484D01*
X2956249Y-13500484D02*
X2937202Y-13490960D01*
X2937202Y-13490960D02*
X2927678Y-13481436D01*
X2927678Y-13481436D02*
X2918154Y-13462388D01*
X2918154Y-13462388D02*
X2908630Y-13424293D01*
X2908630Y-13424293D02*
X2908630Y-13376674D01*
X2908630Y-13376674D02*
X2918154Y-13338579D01*
X2918154Y-13338579D02*
X2927678Y-13319531D01*
X2927678Y-13319531D02*
X2937202Y-13310008D01*
X2937202Y-13310008D02*
X2956249Y-13300484D01*
X3108630Y-13500484D02*
X3108630Y-13367150D01*
X3108630Y-13386198D02*
X3118154Y-13376674D01*
X3118154Y-13376674D02*
X3137202Y-13367150D01*
X3137202Y-13367150D02*
X3165773Y-13367150D01*
X3165773Y-13367150D02*
X3184821Y-13376674D01*
X3184821Y-13376674D02*
X3194345Y-13395722D01*
X3194345Y-13395722D02*
X3194345Y-13500484D01*
X3194345Y-13395722D02*
X3203868Y-13376674D01*
X3203868Y-13376674D02*
X3222916Y-13367150D01*
X3222916Y-13367150D02*
X3251487Y-13367150D01*
X3251487Y-13367150D02*
X3270535Y-13376674D01*
X3270535Y-13376674D02*
X3280059Y-13395722D01*
X3280059Y-13395722D02*
X3280059Y-13500484D01*
X3375297Y-13500484D02*
X3375297Y-13367150D01*
X3375297Y-13386198D02*
X3384821Y-13376674D01*
X3384821Y-13376674D02*
X3403868Y-13367150D01*
X3403868Y-13367150D02*
X3432440Y-13367150D01*
X3432440Y-13367150D02*
X3451488Y-13376674D01*
X3451488Y-13376674D02*
X3461011Y-13395722D01*
X3461011Y-13395722D02*
X3461011Y-13500484D01*
X3461011Y-13395722D02*
X3470535Y-13376674D01*
X3470535Y-13376674D02*
X3489583Y-13367150D01*
X3489583Y-13367150D02*
X3518154Y-13367150D01*
X3518154Y-13367150D02*
X3537202Y-13376674D01*
X3537202Y-13376674D02*
X3546726Y-13395722D01*
X3546726Y-13395722D02*
X3546726Y-13500484D01*
X3937202Y-13290960D02*
X3765773Y-13548103D01*
X4194345Y-13300484D02*
X4213393Y-13300484D01*
X4213393Y-13300484D02*
X4232440Y-13310008D01*
X4232440Y-13310008D02*
X4241964Y-13319531D01*
X4241964Y-13319531D02*
X4251488Y-13338579D01*
X4251488Y-13338579D02*
X4261012Y-13376674D01*
X4261012Y-13376674D02*
X4261012Y-13424293D01*
X4261012Y-13424293D02*
X4251488Y-13462388D01*
X4251488Y-13462388D02*
X4241964Y-13481436D01*
X4241964Y-13481436D02*
X4232440Y-13490960D01*
X4232440Y-13490960D02*
X4213393Y-13500484D01*
X4213393Y-13500484D02*
X4194345Y-13500484D01*
X4194345Y-13500484D02*
X4175297Y-13490960D01*
X4175297Y-13490960D02*
X4165773Y-13481436D01*
X4165773Y-13481436D02*
X4156250Y-13462388D01*
X4156250Y-13462388D02*
X4146726Y-13424293D01*
X4146726Y-13424293D02*
X4146726Y-13376674D01*
X4146726Y-13376674D02*
X4156250Y-13338579D01*
X4156250Y-13338579D02*
X4165773Y-13319531D01*
X4165773Y-13319531D02*
X4175297Y-13310008D01*
X4175297Y-13310008D02*
X4194345Y-13300484D01*
X4346726Y-13481436D02*
X4356250Y-13490960D01*
X4356250Y-13490960D02*
X4346726Y-13500484D01*
X4346726Y-13500484D02*
X4337202Y-13490960D01*
X4337202Y-13490960D02*
X4346726Y-13481436D01*
X4346726Y-13481436D02*
X4346726Y-13500484D01*
X4480059Y-13300484D02*
X4499107Y-13300484D01*
X4499107Y-13300484D02*
X4518154Y-13310008D01*
X4518154Y-13310008D02*
X4527678Y-13319531D01*
X4527678Y-13319531D02*
X4537202Y-13338579D01*
X4537202Y-13338579D02*
X4546726Y-13376674D01*
X4546726Y-13376674D02*
X4546726Y-13424293D01*
X4546726Y-13424293D02*
X4537202Y-13462388D01*
X4537202Y-13462388D02*
X4527678Y-13481436D01*
X4527678Y-13481436D02*
X4518154Y-13490960D01*
X4518154Y-13490960D02*
X4499107Y-13500484D01*
X4499107Y-13500484D02*
X4480059Y-13500484D01*
X4480059Y-13500484D02*
X4461012Y-13490960D01*
X4461012Y-13490960D02*
X4451488Y-13481436D01*
X4451488Y-13481436D02*
X4441964Y-13462388D01*
X4441964Y-13462388D02*
X4432440Y-13424293D01*
X4432440Y-13424293D02*
X4432440Y-13376674D01*
X4432440Y-13376674D02*
X4441964Y-13338579D01*
X4441964Y-13338579D02*
X4451488Y-13319531D01*
X4451488Y-13319531D02*
X4461012Y-13310008D01*
X4461012Y-13310008D02*
X4480059Y-13300484D01*
X4737202Y-13500484D02*
X4622916Y-13500484D01*
X4680059Y-13500484D02*
X4680059Y-13300484D01*
X4680059Y-13300484D02*
X4661012Y-13329055D01*
X4661012Y-13329055D02*
X4641964Y-13348103D01*
X4641964Y-13348103D02*
X4622916Y-13357627D01*
X4918154Y-13300484D02*
X4822916Y-13300484D01*
X4822916Y-13300484D02*
X4813393Y-13395722D01*
X4813393Y-13395722D02*
X4822916Y-13386198D01*
X4822916Y-13386198D02*
X4841964Y-13376674D01*
X4841964Y-13376674D02*
X4889583Y-13376674D01*
X4889583Y-13376674D02*
X4908631Y-13386198D01*
X4908631Y-13386198D02*
X4918154Y-13395722D01*
X4918154Y-13395722D02*
X4927678Y-13414769D01*
X4927678Y-13414769D02*
X4927678Y-13462388D01*
X4927678Y-13462388D02*
X4918154Y-13481436D01*
X4918154Y-13481436D02*
X4908631Y-13490960D01*
X4908631Y-13490960D02*
X4889583Y-13500484D01*
X4889583Y-13500484D02*
X4841964Y-13500484D01*
X4841964Y-13500484D02*
X4822916Y-13490960D01*
X4822916Y-13490960D02*
X4813393Y-13481436D01*
X4994345Y-13300484D02*
X5127678Y-13300484D01*
X5127678Y-13300484D02*
X5041964Y-13500484D01*
X5194345Y-13300484D02*
X5194345Y-13338579D01*
X5270535Y-13300484D02*
X5270535Y-13338579D01*
X5565774Y-13576674D02*
X5556250Y-13567150D01*
X5556250Y-13567150D02*
X5537202Y-13538579D01*
X5537202Y-13538579D02*
X5527678Y-13519531D01*
X5527678Y-13519531D02*
X5518155Y-13490960D01*
X5518155Y-13490960D02*
X5508631Y-13443341D01*
X5508631Y-13443341D02*
X5508631Y-13405246D01*
X5508631Y-13405246D02*
X5518155Y-13357627D01*
X5518155Y-13357627D02*
X5527678Y-13329055D01*
X5527678Y-13329055D02*
X5537202Y-13310008D01*
X5537202Y-13310008D02*
X5556250Y-13281436D01*
X5556250Y-13281436D02*
X5565774Y-13271912D01*
X5680059Y-13300484D02*
X5699107Y-13300484D01*
X5699107Y-13300484D02*
X5718154Y-13310008D01*
X5718154Y-13310008D02*
X5727678Y-13319531D01*
X5727678Y-13319531D02*
X5737202Y-13338579D01*
X5737202Y-13338579D02*
X5746726Y-13376674D01*
X5746726Y-13376674D02*
X5746726Y-13424293D01*
X5746726Y-13424293D02*
X5737202Y-13462388D01*
X5737202Y-13462388D02*
X5727678Y-13481436D01*
X5727678Y-13481436D02*
X5718154Y-13490960D01*
X5718154Y-13490960D02*
X5699107Y-13500484D01*
X5699107Y-13500484D02*
X5680059Y-13500484D01*
X5680059Y-13500484D02*
X5661012Y-13490960D01*
X5661012Y-13490960D02*
X5651488Y-13481436D01*
X5651488Y-13481436D02*
X5641964Y-13462388D01*
X5641964Y-13462388D02*
X5632440Y-13424293D01*
X5632440Y-13424293D02*
X5632440Y-13376674D01*
X5632440Y-13376674D02*
X5641964Y-13338579D01*
X5641964Y-13338579D02*
X5651488Y-13319531D01*
X5651488Y-13319531D02*
X5661012Y-13310008D01*
X5661012Y-13310008D02*
X5680059Y-13300484D01*
X5984821Y-13500484D02*
X5984821Y-13300484D01*
X6070535Y-13500484D02*
X6070535Y-13395722D01*
X6070535Y-13395722D02*
X6061012Y-13376674D01*
X6061012Y-13376674D02*
X6041964Y-13367150D01*
X6041964Y-13367150D02*
X6013393Y-13367150D01*
X6013393Y-13367150D02*
X5994345Y-13376674D01*
X5994345Y-13376674D02*
X5984821Y-13386198D01*
X6194345Y-13500484D02*
X6175297Y-13490960D01*
X6175297Y-13490960D02*
X6165774Y-13481436D01*
X6165774Y-13481436D02*
X6156250Y-13462388D01*
X6156250Y-13462388D02*
X6156250Y-13405246D01*
X6156250Y-13405246D02*
X6165774Y-13386198D01*
X6165774Y-13386198D02*
X6175297Y-13376674D01*
X6175297Y-13376674D02*
X6194345Y-13367150D01*
X6194345Y-13367150D02*
X6222916Y-13367150D01*
X6222916Y-13367150D02*
X6241964Y-13376674D01*
X6241964Y-13376674D02*
X6251488Y-13386198D01*
X6251488Y-13386198D02*
X6261012Y-13405246D01*
X6261012Y-13405246D02*
X6261012Y-13462388D01*
X6261012Y-13462388D02*
X6251488Y-13481436D01*
X6251488Y-13481436D02*
X6241964Y-13490960D01*
X6241964Y-13490960D02*
X6222916Y-13500484D01*
X6222916Y-13500484D02*
X6194345Y-13500484D01*
X6375297Y-13500484D02*
X6356250Y-13490960D01*
X6356250Y-13490960D02*
X6346726Y-13471912D01*
X6346726Y-13471912D02*
X6346726Y-13300484D01*
X6527678Y-13490960D02*
X6508631Y-13500484D01*
X6508631Y-13500484D02*
X6470535Y-13500484D01*
X6470535Y-13500484D02*
X6451488Y-13490960D01*
X6451488Y-13490960D02*
X6441964Y-13471912D01*
X6441964Y-13471912D02*
X6441964Y-13395722D01*
X6441964Y-13395722D02*
X6451488Y-13376674D01*
X6451488Y-13376674D02*
X6470535Y-13367150D01*
X6470535Y-13367150D02*
X6508631Y-13367150D01*
X6508631Y-13367150D02*
X6527678Y-13376674D01*
X6527678Y-13376674D02*
X6537202Y-13395722D01*
X6537202Y-13395722D02*
X6537202Y-13414769D01*
X6537202Y-13414769D02*
X6441964Y-13433817D01*
X6613393Y-13490960D02*
X6632440Y-13500484D01*
X6632440Y-13500484D02*
X6670535Y-13500484D01*
X6670535Y-13500484D02*
X6689583Y-13490960D01*
X6689583Y-13490960D02*
X6699107Y-13471912D01*
X6699107Y-13471912D02*
X6699107Y-13462388D01*
X6699107Y-13462388D02*
X6689583Y-13443341D01*
X6689583Y-13443341D02*
X6670535Y-13433817D01*
X6670535Y-13433817D02*
X6641964Y-13433817D01*
X6641964Y-13433817D02*
X6622916Y-13424293D01*
X6622916Y-13424293D02*
X6613393Y-13405246D01*
X6613393Y-13405246D02*
X6613393Y-13395722D01*
X6613393Y-13395722D02*
X6622916Y-13376674D01*
X6622916Y-13376674D02*
X6641964Y-13367150D01*
X6641964Y-13367150D02*
X6670535Y-13367150D01*
X6670535Y-13367150D02*
X6689583Y-13376674D01*
X6937202Y-13424293D02*
X7089583Y-13424293D01*
X7013393Y-13500484D02*
X7013393Y-13348103D01*
X7441964Y-13500484D02*
X7327678Y-13500484D01*
X7384821Y-13500484D02*
X7384821Y-13300484D01*
X7384821Y-13300484D02*
X7365774Y-13329055D01*
X7365774Y-13329055D02*
X7346726Y-13348103D01*
X7346726Y-13348103D02*
X7327678Y-13357627D01*
X7565774Y-13300484D02*
X7584821Y-13300484D01*
X7584821Y-13300484D02*
X7603869Y-13310008D01*
X7603869Y-13310008D02*
X7613393Y-13319531D01*
X7613393Y-13319531D02*
X7622917Y-13338579D01*
X7622917Y-13338579D02*
X7632440Y-13376674D01*
X7632440Y-13376674D02*
X7632440Y-13424293D01*
X7632440Y-13424293D02*
X7622917Y-13462388D01*
X7622917Y-13462388D02*
X7613393Y-13481436D01*
X7613393Y-13481436D02*
X7603869Y-13490960D01*
X7603869Y-13490960D02*
X7584821Y-13500484D01*
X7584821Y-13500484D02*
X7565774Y-13500484D01*
X7565774Y-13500484D02*
X7546726Y-13490960D01*
X7546726Y-13490960D02*
X7537202Y-13481436D01*
X7537202Y-13481436D02*
X7527678Y-13462388D01*
X7527678Y-13462388D02*
X7518155Y-13424293D01*
X7518155Y-13424293D02*
X7518155Y-13376674D01*
X7518155Y-13376674D02*
X7527678Y-13338579D01*
X7527678Y-13338579D02*
X7537202Y-13319531D01*
X7537202Y-13319531D02*
X7546726Y-13310008D01*
X7546726Y-13310008D02*
X7565774Y-13300484D01*
X7861012Y-13490960D02*
X7880059Y-13500484D01*
X7880059Y-13500484D02*
X7918155Y-13500484D01*
X7918155Y-13500484D02*
X7937202Y-13490960D01*
X7937202Y-13490960D02*
X7946726Y-13471912D01*
X7946726Y-13471912D02*
X7946726Y-13462388D01*
X7946726Y-13462388D02*
X7937202Y-13443341D01*
X7937202Y-13443341D02*
X7918155Y-13433817D01*
X7918155Y-13433817D02*
X7889583Y-13433817D01*
X7889583Y-13433817D02*
X7870536Y-13424293D01*
X7870536Y-13424293D02*
X7861012Y-13405246D01*
X7861012Y-13405246D02*
X7861012Y-13395722D01*
X7861012Y-13395722D02*
X7870536Y-13376674D01*
X7870536Y-13376674D02*
X7889583Y-13367150D01*
X7889583Y-13367150D02*
X7918155Y-13367150D01*
X7918155Y-13367150D02*
X7937202Y-13376674D01*
X8061012Y-13500484D02*
X8041964Y-13490960D01*
X8041964Y-13490960D02*
X8032440Y-13471912D01*
X8032440Y-13471912D02*
X8032440Y-13300484D01*
X8165774Y-13500484D02*
X8146726Y-13490960D01*
X8146726Y-13490960D02*
X8137202Y-13481436D01*
X8137202Y-13481436D02*
X8127679Y-13462388D01*
X8127679Y-13462388D02*
X8127679Y-13405246D01*
X8127679Y-13405246D02*
X8137202Y-13386198D01*
X8137202Y-13386198D02*
X8146726Y-13376674D01*
X8146726Y-13376674D02*
X8165774Y-13367150D01*
X8165774Y-13367150D02*
X8194345Y-13367150D01*
X8194345Y-13367150D02*
X8213393Y-13376674D01*
X8213393Y-13376674D02*
X8222917Y-13386198D01*
X8222917Y-13386198D02*
X8232440Y-13405246D01*
X8232440Y-13405246D02*
X8232440Y-13462388D01*
X8232440Y-13462388D02*
X8222917Y-13481436D01*
X8222917Y-13481436D02*
X8213393Y-13490960D01*
X8213393Y-13490960D02*
X8194345Y-13500484D01*
X8194345Y-13500484D02*
X8165774Y-13500484D01*
X8289583Y-13367150D02*
X8365774Y-13367150D01*
X8318155Y-13300484D02*
X8318155Y-13471912D01*
X8318155Y-13471912D02*
X8327679Y-13490960D01*
X8327679Y-13490960D02*
X8346726Y-13500484D01*
X8346726Y-13500484D02*
X8365774Y-13500484D01*
X8422917Y-13490960D02*
X8441964Y-13500484D01*
X8441964Y-13500484D02*
X8480060Y-13500484D01*
X8480060Y-13500484D02*
X8499107Y-13490960D01*
X8499107Y-13490960D02*
X8508631Y-13471912D01*
X8508631Y-13471912D02*
X8508631Y-13462388D01*
X8508631Y-13462388D02*
X8499107Y-13443341D01*
X8499107Y-13443341D02*
X8480060Y-13433817D01*
X8480060Y-13433817D02*
X8451488Y-13433817D01*
X8451488Y-13433817D02*
X8432441Y-13424293D01*
X8432441Y-13424293D02*
X8422917Y-13405246D01*
X8422917Y-13405246D02*
X8422917Y-13395722D01*
X8422917Y-13395722D02*
X8432441Y-13376674D01*
X8432441Y-13376674D02*
X8451488Y-13367150D01*
X8451488Y-13367150D02*
X8480060Y-13367150D01*
X8480060Y-13367150D02*
X8499107Y-13376674D01*
X8575298Y-13576674D02*
X8584822Y-13567150D01*
X8584822Y-13567150D02*
X8603869Y-13538579D01*
X8603869Y-13538579D02*
X8613393Y-13519531D01*
X8613393Y-13519531D02*
X8622917Y-13490960D01*
X8622917Y-13490960D02*
X8632441Y-13443341D01*
X8632441Y-13443341D02*
X8632441Y-13405246D01*
X8632441Y-13405246D02*
X8622917Y-13357627D01*
X8622917Y-13357627D02*
X8613393Y-13329055D01*
X8613393Y-13329055D02*
X8603869Y-13310008D01*
X8603869Y-13310008D02*
X8584822Y-13281436D01*
X8584822Y-13281436D02*
X8575298Y-13271912D01*
D13*
X1965311Y-13647600D02*
X1965311Y-13698400D01*
X1939911Y-13673000D02*
X1990711Y-13673000D01*
D11*
X2289583Y-13564484D02*
X2308630Y-13564484D01*
X2308630Y-13564484D02*
X2327678Y-13574008D01*
X2327678Y-13574008D02*
X2337202Y-13583531D01*
X2337202Y-13583531D02*
X2346726Y-13602579D01*
X2346726Y-13602579D02*
X2356249Y-13640674D01*
X2356249Y-13640674D02*
X2356249Y-13688293D01*
X2356249Y-13688293D02*
X2346726Y-13726388D01*
X2346726Y-13726388D02*
X2337202Y-13745436D01*
X2337202Y-13745436D02*
X2327678Y-13754960D01*
X2327678Y-13754960D02*
X2308630Y-13764484D01*
X2308630Y-13764484D02*
X2289583Y-13764484D01*
X2289583Y-13764484D02*
X2270535Y-13754960D01*
X2270535Y-13754960D02*
X2261011Y-13745436D01*
X2261011Y-13745436D02*
X2251488Y-13726388D01*
X2251488Y-13726388D02*
X2241964Y-13688293D01*
X2241964Y-13688293D02*
X2241964Y-13640674D01*
X2241964Y-13640674D02*
X2251488Y-13602579D01*
X2251488Y-13602579D02*
X2261011Y-13583531D01*
X2261011Y-13583531D02*
X2270535Y-13574008D01*
X2270535Y-13574008D02*
X2289583Y-13564484D01*
X2441964Y-13745436D02*
X2451488Y-13754960D01*
X2451488Y-13754960D02*
X2441964Y-13764484D01*
X2441964Y-13764484D02*
X2432440Y-13754960D01*
X2432440Y-13754960D02*
X2441964Y-13745436D01*
X2441964Y-13745436D02*
X2441964Y-13764484D01*
X2632440Y-13564484D02*
X2537202Y-13564484D01*
X2537202Y-13564484D02*
X2527678Y-13659722D01*
X2527678Y-13659722D02*
X2537202Y-13650198D01*
X2537202Y-13650198D02*
X2556249Y-13640674D01*
X2556249Y-13640674D02*
X2603869Y-13640674D01*
X2603869Y-13640674D02*
X2622916Y-13650198D01*
X2622916Y-13650198D02*
X2632440Y-13659722D01*
X2632440Y-13659722D02*
X2641964Y-13678769D01*
X2641964Y-13678769D02*
X2641964Y-13726388D01*
X2641964Y-13726388D02*
X2632440Y-13745436D01*
X2632440Y-13745436D02*
X2622916Y-13754960D01*
X2622916Y-13754960D02*
X2603869Y-13764484D01*
X2603869Y-13764484D02*
X2556249Y-13764484D01*
X2556249Y-13764484D02*
X2537202Y-13754960D01*
X2537202Y-13754960D02*
X2527678Y-13745436D01*
X2765773Y-13564484D02*
X2784821Y-13564484D01*
X2784821Y-13564484D02*
X2803868Y-13574008D01*
X2803868Y-13574008D02*
X2813392Y-13583531D01*
X2813392Y-13583531D02*
X2822916Y-13602579D01*
X2822916Y-13602579D02*
X2832440Y-13640674D01*
X2832440Y-13640674D02*
X2832440Y-13688293D01*
X2832440Y-13688293D02*
X2822916Y-13726388D01*
X2822916Y-13726388D02*
X2813392Y-13745436D01*
X2813392Y-13745436D02*
X2803868Y-13754960D01*
X2803868Y-13754960D02*
X2784821Y-13764484D01*
X2784821Y-13764484D02*
X2765773Y-13764484D01*
X2765773Y-13764484D02*
X2746726Y-13754960D01*
X2746726Y-13754960D02*
X2737202Y-13745436D01*
X2737202Y-13745436D02*
X2727678Y-13726388D01*
X2727678Y-13726388D02*
X2718154Y-13688293D01*
X2718154Y-13688293D02*
X2718154Y-13640674D01*
X2718154Y-13640674D02*
X2727678Y-13602579D01*
X2727678Y-13602579D02*
X2737202Y-13583531D01*
X2737202Y-13583531D02*
X2746726Y-13574008D01*
X2746726Y-13574008D02*
X2765773Y-13564484D01*
X2946726Y-13650198D02*
X2927678Y-13640674D01*
X2927678Y-13640674D02*
X2918154Y-13631150D01*
X2918154Y-13631150D02*
X2908630Y-13612103D01*
X2908630Y-13612103D02*
X2908630Y-13602579D01*
X2908630Y-13602579D02*
X2918154Y-13583531D01*
X2918154Y-13583531D02*
X2927678Y-13574008D01*
X2927678Y-13574008D02*
X2946726Y-13564484D01*
X2946726Y-13564484D02*
X2984821Y-13564484D01*
X2984821Y-13564484D02*
X3003868Y-13574008D01*
X3003868Y-13574008D02*
X3013392Y-13583531D01*
X3013392Y-13583531D02*
X3022916Y-13602579D01*
X3022916Y-13602579D02*
X3022916Y-13612103D01*
X3022916Y-13612103D02*
X3013392Y-13631150D01*
X3013392Y-13631150D02*
X3003868Y-13640674D01*
X3003868Y-13640674D02*
X2984821Y-13650198D01*
X2984821Y-13650198D02*
X2946726Y-13650198D01*
X2946726Y-13650198D02*
X2927678Y-13659722D01*
X2927678Y-13659722D02*
X2918154Y-13669246D01*
X2918154Y-13669246D02*
X2908630Y-13688293D01*
X2908630Y-13688293D02*
X2908630Y-13726388D01*
X2908630Y-13726388D02*
X2918154Y-13745436D01*
X2918154Y-13745436D02*
X2927678Y-13754960D01*
X2927678Y-13754960D02*
X2946726Y-13764484D01*
X2946726Y-13764484D02*
X2984821Y-13764484D01*
X2984821Y-13764484D02*
X3003868Y-13754960D01*
X3003868Y-13754960D02*
X3013392Y-13745436D01*
X3013392Y-13745436D02*
X3022916Y-13726388D01*
X3022916Y-13726388D02*
X3022916Y-13688293D01*
X3022916Y-13688293D02*
X3013392Y-13669246D01*
X3013392Y-13669246D02*
X3003868Y-13659722D01*
X3003868Y-13659722D02*
X2984821Y-13650198D01*
X3108630Y-13764484D02*
X3108630Y-13631150D01*
X3108630Y-13650198D02*
X3118154Y-13640674D01*
X3118154Y-13640674D02*
X3137202Y-13631150D01*
X3137202Y-13631150D02*
X3165773Y-13631150D01*
X3165773Y-13631150D02*
X3184821Y-13640674D01*
X3184821Y-13640674D02*
X3194345Y-13659722D01*
X3194345Y-13659722D02*
X3194345Y-13764484D01*
X3194345Y-13659722D02*
X3203868Y-13640674D01*
X3203868Y-13640674D02*
X3222916Y-13631150D01*
X3222916Y-13631150D02*
X3251487Y-13631150D01*
X3251487Y-13631150D02*
X3270535Y-13640674D01*
X3270535Y-13640674D02*
X3280059Y-13659722D01*
X3280059Y-13659722D02*
X3280059Y-13764484D01*
X3375297Y-13764484D02*
X3375297Y-13631150D01*
X3375297Y-13650198D02*
X3384821Y-13640674D01*
X3384821Y-13640674D02*
X3403868Y-13631150D01*
X3403868Y-13631150D02*
X3432440Y-13631150D01*
X3432440Y-13631150D02*
X3451488Y-13640674D01*
X3451488Y-13640674D02*
X3461011Y-13659722D01*
X3461011Y-13659722D02*
X3461011Y-13764484D01*
X3461011Y-13659722D02*
X3470535Y-13640674D01*
X3470535Y-13640674D02*
X3489583Y-13631150D01*
X3489583Y-13631150D02*
X3518154Y-13631150D01*
X3518154Y-13631150D02*
X3537202Y-13640674D01*
X3537202Y-13640674D02*
X3546726Y-13659722D01*
X3546726Y-13659722D02*
X3546726Y-13764484D01*
X3937202Y-13554960D02*
X3765773Y-13812103D01*
X4194345Y-13564484D02*
X4213393Y-13564484D01*
X4213393Y-13564484D02*
X4232440Y-13574008D01*
X4232440Y-13574008D02*
X4241964Y-13583531D01*
X4241964Y-13583531D02*
X4251488Y-13602579D01*
X4251488Y-13602579D02*
X4261012Y-13640674D01*
X4261012Y-13640674D02*
X4261012Y-13688293D01*
X4261012Y-13688293D02*
X4251488Y-13726388D01*
X4251488Y-13726388D02*
X4241964Y-13745436D01*
X4241964Y-13745436D02*
X4232440Y-13754960D01*
X4232440Y-13754960D02*
X4213393Y-13764484D01*
X4213393Y-13764484D02*
X4194345Y-13764484D01*
X4194345Y-13764484D02*
X4175297Y-13754960D01*
X4175297Y-13754960D02*
X4165773Y-13745436D01*
X4165773Y-13745436D02*
X4156250Y-13726388D01*
X4156250Y-13726388D02*
X4146726Y-13688293D01*
X4146726Y-13688293D02*
X4146726Y-13640674D01*
X4146726Y-13640674D02*
X4156250Y-13602579D01*
X4156250Y-13602579D02*
X4165773Y-13583531D01*
X4165773Y-13583531D02*
X4175297Y-13574008D01*
X4175297Y-13574008D02*
X4194345Y-13564484D01*
X4346726Y-13745436D02*
X4356250Y-13754960D01*
X4356250Y-13754960D02*
X4346726Y-13764484D01*
X4346726Y-13764484D02*
X4337202Y-13754960D01*
X4337202Y-13754960D02*
X4346726Y-13745436D01*
X4346726Y-13745436D02*
X4346726Y-13764484D01*
X4480059Y-13564484D02*
X4499107Y-13564484D01*
X4499107Y-13564484D02*
X4518154Y-13574008D01*
X4518154Y-13574008D02*
X4527678Y-13583531D01*
X4527678Y-13583531D02*
X4537202Y-13602579D01*
X4537202Y-13602579D02*
X4546726Y-13640674D01*
X4546726Y-13640674D02*
X4546726Y-13688293D01*
X4546726Y-13688293D02*
X4537202Y-13726388D01*
X4537202Y-13726388D02*
X4527678Y-13745436D01*
X4527678Y-13745436D02*
X4518154Y-13754960D01*
X4518154Y-13754960D02*
X4499107Y-13764484D01*
X4499107Y-13764484D02*
X4480059Y-13764484D01*
X4480059Y-13764484D02*
X4461012Y-13754960D01*
X4461012Y-13754960D02*
X4451488Y-13745436D01*
X4451488Y-13745436D02*
X4441964Y-13726388D01*
X4441964Y-13726388D02*
X4432440Y-13688293D01*
X4432440Y-13688293D02*
X4432440Y-13640674D01*
X4432440Y-13640674D02*
X4441964Y-13602579D01*
X4441964Y-13602579D02*
X4451488Y-13583531D01*
X4451488Y-13583531D02*
X4461012Y-13574008D01*
X4461012Y-13574008D02*
X4480059Y-13564484D01*
X4622916Y-13583531D02*
X4632440Y-13574008D01*
X4632440Y-13574008D02*
X4651488Y-13564484D01*
X4651488Y-13564484D02*
X4699107Y-13564484D01*
X4699107Y-13564484D02*
X4718154Y-13574008D01*
X4718154Y-13574008D02*
X4727678Y-13583531D01*
X4727678Y-13583531D02*
X4737202Y-13602579D01*
X4737202Y-13602579D02*
X4737202Y-13621627D01*
X4737202Y-13621627D02*
X4727678Y-13650198D01*
X4727678Y-13650198D02*
X4613393Y-13764484D01*
X4613393Y-13764484D02*
X4737202Y-13764484D01*
X4861012Y-13564484D02*
X4880059Y-13564484D01*
X4880059Y-13564484D02*
X4899107Y-13574008D01*
X4899107Y-13574008D02*
X4908631Y-13583531D01*
X4908631Y-13583531D02*
X4918154Y-13602579D01*
X4918154Y-13602579D02*
X4927678Y-13640674D01*
X4927678Y-13640674D02*
X4927678Y-13688293D01*
X4927678Y-13688293D02*
X4918154Y-13726388D01*
X4918154Y-13726388D02*
X4908631Y-13745436D01*
X4908631Y-13745436D02*
X4899107Y-13754960D01*
X4899107Y-13754960D02*
X4880059Y-13764484D01*
X4880059Y-13764484D02*
X4861012Y-13764484D01*
X4861012Y-13764484D02*
X4841964Y-13754960D01*
X4841964Y-13754960D02*
X4832440Y-13745436D01*
X4832440Y-13745436D02*
X4822916Y-13726388D01*
X4822916Y-13726388D02*
X4813393Y-13688293D01*
X4813393Y-13688293D02*
X4813393Y-13640674D01*
X4813393Y-13640674D02*
X4822916Y-13602579D01*
X4822916Y-13602579D02*
X4832440Y-13583531D01*
X4832440Y-13583531D02*
X4841964Y-13574008D01*
X4841964Y-13574008D02*
X4861012Y-13564484D01*
X5051488Y-13564484D02*
X5070535Y-13564484D01*
X5070535Y-13564484D02*
X5089583Y-13574008D01*
X5089583Y-13574008D02*
X5099107Y-13583531D01*
X5099107Y-13583531D02*
X5108631Y-13602579D01*
X5108631Y-13602579D02*
X5118154Y-13640674D01*
X5118154Y-13640674D02*
X5118154Y-13688293D01*
X5118154Y-13688293D02*
X5108631Y-13726388D01*
X5108631Y-13726388D02*
X5099107Y-13745436D01*
X5099107Y-13745436D02*
X5089583Y-13754960D01*
X5089583Y-13754960D02*
X5070535Y-13764484D01*
X5070535Y-13764484D02*
X5051488Y-13764484D01*
X5051488Y-13764484D02*
X5032440Y-13754960D01*
X5032440Y-13754960D02*
X5022916Y-13745436D01*
X5022916Y-13745436D02*
X5013393Y-13726388D01*
X5013393Y-13726388D02*
X5003869Y-13688293D01*
X5003869Y-13688293D02*
X5003869Y-13640674D01*
X5003869Y-13640674D02*
X5013393Y-13602579D01*
X5013393Y-13602579D02*
X5022916Y-13583531D01*
X5022916Y-13583531D02*
X5032440Y-13574008D01*
X5032440Y-13574008D02*
X5051488Y-13564484D01*
X5194345Y-13564484D02*
X5194345Y-13602579D01*
X5270535Y-13564484D02*
X5270535Y-13602579D01*
X5565774Y-13840674D02*
X5556250Y-13831150D01*
X5556250Y-13831150D02*
X5537202Y-13802579D01*
X5537202Y-13802579D02*
X5527678Y-13783531D01*
X5527678Y-13783531D02*
X5518155Y-13754960D01*
X5518155Y-13754960D02*
X5508631Y-13707341D01*
X5508631Y-13707341D02*
X5508631Y-13669246D01*
X5508631Y-13669246D02*
X5518155Y-13621627D01*
X5518155Y-13621627D02*
X5527678Y-13593055D01*
X5527678Y-13593055D02*
X5537202Y-13574008D01*
X5537202Y-13574008D02*
X5556250Y-13545436D01*
X5556250Y-13545436D02*
X5565774Y-13535912D01*
X5632440Y-13583531D02*
X5641964Y-13574008D01*
X5641964Y-13574008D02*
X5661012Y-13564484D01*
X5661012Y-13564484D02*
X5708631Y-13564484D01*
X5708631Y-13564484D02*
X5727678Y-13574008D01*
X5727678Y-13574008D02*
X5737202Y-13583531D01*
X5737202Y-13583531D02*
X5746726Y-13602579D01*
X5746726Y-13602579D02*
X5746726Y-13621627D01*
X5746726Y-13621627D02*
X5737202Y-13650198D01*
X5737202Y-13650198D02*
X5622916Y-13764484D01*
X5622916Y-13764484D02*
X5746726Y-13764484D01*
X5984821Y-13764484D02*
X5984821Y-13564484D01*
X6070535Y-13764484D02*
X6070535Y-13659722D01*
X6070535Y-13659722D02*
X6061012Y-13640674D01*
X6061012Y-13640674D02*
X6041964Y-13631150D01*
X6041964Y-13631150D02*
X6013393Y-13631150D01*
X6013393Y-13631150D02*
X5994345Y-13640674D01*
X5994345Y-13640674D02*
X5984821Y-13650198D01*
X6194345Y-13764484D02*
X6175297Y-13754960D01*
X6175297Y-13754960D02*
X6165774Y-13745436D01*
X6165774Y-13745436D02*
X6156250Y-13726388D01*
X6156250Y-13726388D02*
X6156250Y-13669246D01*
X6156250Y-13669246D02*
X6165774Y-13650198D01*
X6165774Y-13650198D02*
X6175297Y-13640674D01*
X6175297Y-13640674D02*
X6194345Y-13631150D01*
X6194345Y-13631150D02*
X6222916Y-13631150D01*
X6222916Y-13631150D02*
X6241964Y-13640674D01*
X6241964Y-13640674D02*
X6251488Y-13650198D01*
X6251488Y-13650198D02*
X6261012Y-13669246D01*
X6261012Y-13669246D02*
X6261012Y-13726388D01*
X6261012Y-13726388D02*
X6251488Y-13745436D01*
X6251488Y-13745436D02*
X6241964Y-13754960D01*
X6241964Y-13754960D02*
X6222916Y-13764484D01*
X6222916Y-13764484D02*
X6194345Y-13764484D01*
X6375297Y-13764484D02*
X6356250Y-13754960D01*
X6356250Y-13754960D02*
X6346726Y-13735912D01*
X6346726Y-13735912D02*
X6346726Y-13564484D01*
X6527678Y-13754960D02*
X6508631Y-13764484D01*
X6508631Y-13764484D02*
X6470535Y-13764484D01*
X6470535Y-13764484D02*
X6451488Y-13754960D01*
X6451488Y-13754960D02*
X6441964Y-13735912D01*
X6441964Y-13735912D02*
X6441964Y-13659722D01*
X6441964Y-13659722D02*
X6451488Y-13640674D01*
X6451488Y-13640674D02*
X6470535Y-13631150D01*
X6470535Y-13631150D02*
X6508631Y-13631150D01*
X6508631Y-13631150D02*
X6527678Y-13640674D01*
X6527678Y-13640674D02*
X6537202Y-13659722D01*
X6537202Y-13659722D02*
X6537202Y-13678769D01*
X6537202Y-13678769D02*
X6441964Y-13697817D01*
X6613393Y-13754960D02*
X6632440Y-13764484D01*
X6632440Y-13764484D02*
X6670535Y-13764484D01*
X6670535Y-13764484D02*
X6689583Y-13754960D01*
X6689583Y-13754960D02*
X6699107Y-13735912D01*
X6699107Y-13735912D02*
X6699107Y-13726388D01*
X6699107Y-13726388D02*
X6689583Y-13707341D01*
X6689583Y-13707341D02*
X6670535Y-13697817D01*
X6670535Y-13697817D02*
X6641964Y-13697817D01*
X6641964Y-13697817D02*
X6622916Y-13688293D01*
X6622916Y-13688293D02*
X6613393Y-13669246D01*
X6613393Y-13669246D02*
X6613393Y-13659722D01*
X6613393Y-13659722D02*
X6622916Y-13640674D01*
X6622916Y-13640674D02*
X6641964Y-13631150D01*
X6641964Y-13631150D02*
X6670535Y-13631150D01*
X6670535Y-13631150D02*
X6689583Y-13640674D01*
X6765774Y-13840674D02*
X6775297Y-13831150D01*
X6775297Y-13831150D02*
X6794345Y-13802579D01*
X6794345Y-13802579D02*
X6803869Y-13783531D01*
X6803869Y-13783531D02*
X6813393Y-13754960D01*
X6813393Y-13754960D02*
X6822916Y-13707341D01*
X6822916Y-13707341D02*
X6822916Y-13669246D01*
X6822916Y-13669246D02*
X6813393Y-13621627D01*
X6813393Y-13621627D02*
X6803869Y-13593055D01*
X6803869Y-13593055D02*
X6794345Y-13574008D01*
X6794345Y-13574008D02*
X6775297Y-13545436D01*
X6775297Y-13545436D02*
X6765774Y-13535912D01*
D14*
X1978995Y-13965284D02*
X1978995Y-13908715D01*
X1922426Y-13908715D01*
X1922426Y-13965284D01*
X1978995Y-13965284D01*
D11*
X2289583Y-13828484D02*
X2308630Y-13828484D01*
X2308630Y-13828484D02*
X2327678Y-13838008D01*
X2327678Y-13838008D02*
X2337202Y-13847531D01*
X2337202Y-13847531D02*
X2346726Y-13866579D01*
X2346726Y-13866579D02*
X2356249Y-13904674D01*
X2356249Y-13904674D02*
X2356249Y-13952293D01*
X2356249Y-13952293D02*
X2346726Y-13990388D01*
X2346726Y-13990388D02*
X2337202Y-14009436D01*
X2337202Y-14009436D02*
X2327678Y-14018960D01*
X2327678Y-14018960D02*
X2308630Y-14028484D01*
X2308630Y-14028484D02*
X2289583Y-14028484D01*
X2289583Y-14028484D02*
X2270535Y-14018960D01*
X2270535Y-14018960D02*
X2261011Y-14009436D01*
X2261011Y-14009436D02*
X2251488Y-13990388D01*
X2251488Y-13990388D02*
X2241964Y-13952293D01*
X2241964Y-13952293D02*
X2241964Y-13904674D01*
X2241964Y-13904674D02*
X2251488Y-13866579D01*
X2251488Y-13866579D02*
X2261011Y-13847531D01*
X2261011Y-13847531D02*
X2270535Y-13838008D01*
X2270535Y-13838008D02*
X2289583Y-13828484D01*
X2441964Y-14009436D02*
X2451488Y-14018960D01*
X2451488Y-14018960D02*
X2441964Y-14028484D01*
X2441964Y-14028484D02*
X2432440Y-14018960D01*
X2432440Y-14018960D02*
X2441964Y-14009436D01*
X2441964Y-14009436D02*
X2441964Y-14028484D01*
X2565773Y-13914198D02*
X2546726Y-13904674D01*
X2546726Y-13904674D02*
X2537202Y-13895150D01*
X2537202Y-13895150D02*
X2527678Y-13876103D01*
X2527678Y-13876103D02*
X2527678Y-13866579D01*
X2527678Y-13866579D02*
X2537202Y-13847531D01*
X2537202Y-13847531D02*
X2546726Y-13838008D01*
X2546726Y-13838008D02*
X2565773Y-13828484D01*
X2565773Y-13828484D02*
X2603869Y-13828484D01*
X2603869Y-13828484D02*
X2622916Y-13838008D01*
X2622916Y-13838008D02*
X2632440Y-13847531D01*
X2632440Y-13847531D02*
X2641964Y-13866579D01*
X2641964Y-13866579D02*
X2641964Y-13876103D01*
X2641964Y-13876103D02*
X2632440Y-13895150D01*
X2632440Y-13895150D02*
X2622916Y-13904674D01*
X2622916Y-13904674D02*
X2603869Y-13914198D01*
X2603869Y-13914198D02*
X2565773Y-13914198D01*
X2565773Y-13914198D02*
X2546726Y-13923722D01*
X2546726Y-13923722D02*
X2537202Y-13933246D01*
X2537202Y-13933246D02*
X2527678Y-13952293D01*
X2527678Y-13952293D02*
X2527678Y-13990388D01*
X2527678Y-13990388D02*
X2537202Y-14009436D01*
X2537202Y-14009436D02*
X2546726Y-14018960D01*
X2546726Y-14018960D02*
X2565773Y-14028484D01*
X2565773Y-14028484D02*
X2603869Y-14028484D01*
X2603869Y-14028484D02*
X2622916Y-14018960D01*
X2622916Y-14018960D02*
X2632440Y-14009436D01*
X2632440Y-14009436D02*
X2641964Y-13990388D01*
X2641964Y-13990388D02*
X2641964Y-13952293D01*
X2641964Y-13952293D02*
X2632440Y-13933246D01*
X2632440Y-13933246D02*
X2622916Y-13923722D01*
X2622916Y-13923722D02*
X2603869Y-13914198D01*
X2765773Y-13828484D02*
X2784821Y-13828484D01*
X2784821Y-13828484D02*
X2803868Y-13838008D01*
X2803868Y-13838008D02*
X2813392Y-13847531D01*
X2813392Y-13847531D02*
X2822916Y-13866579D01*
X2822916Y-13866579D02*
X2832440Y-13904674D01*
X2832440Y-13904674D02*
X2832440Y-13952293D01*
X2832440Y-13952293D02*
X2822916Y-13990388D01*
X2822916Y-13990388D02*
X2813392Y-14009436D01*
X2813392Y-14009436D02*
X2803868Y-14018960D01*
X2803868Y-14018960D02*
X2784821Y-14028484D01*
X2784821Y-14028484D02*
X2765773Y-14028484D01*
X2765773Y-14028484D02*
X2746726Y-14018960D01*
X2746726Y-14018960D02*
X2737202Y-14009436D01*
X2737202Y-14009436D02*
X2727678Y-13990388D01*
X2727678Y-13990388D02*
X2718154Y-13952293D01*
X2718154Y-13952293D02*
X2718154Y-13904674D01*
X2718154Y-13904674D02*
X2727678Y-13866579D01*
X2727678Y-13866579D02*
X2737202Y-13847531D01*
X2737202Y-13847531D02*
X2746726Y-13838008D01*
X2746726Y-13838008D02*
X2765773Y-13828484D01*
X2956249Y-13828484D02*
X2975297Y-13828484D01*
X2975297Y-13828484D02*
X2994345Y-13838008D01*
X2994345Y-13838008D02*
X3003868Y-13847531D01*
X3003868Y-13847531D02*
X3013392Y-13866579D01*
X3013392Y-13866579D02*
X3022916Y-13904674D01*
X3022916Y-13904674D02*
X3022916Y-13952293D01*
X3022916Y-13952293D02*
X3013392Y-13990388D01*
X3013392Y-13990388D02*
X3003868Y-14009436D01*
X3003868Y-14009436D02*
X2994345Y-14018960D01*
X2994345Y-14018960D02*
X2975297Y-14028484D01*
X2975297Y-14028484D02*
X2956249Y-14028484D01*
X2956249Y-14028484D02*
X2937202Y-14018960D01*
X2937202Y-14018960D02*
X2927678Y-14009436D01*
X2927678Y-14009436D02*
X2918154Y-13990388D01*
X2918154Y-13990388D02*
X2908630Y-13952293D01*
X2908630Y-13952293D02*
X2908630Y-13904674D01*
X2908630Y-13904674D02*
X2918154Y-13866579D01*
X2918154Y-13866579D02*
X2927678Y-13847531D01*
X2927678Y-13847531D02*
X2937202Y-13838008D01*
X2937202Y-13838008D02*
X2956249Y-13828484D01*
X3108630Y-14028484D02*
X3108630Y-13895150D01*
X3108630Y-13914198D02*
X3118154Y-13904674D01*
X3118154Y-13904674D02*
X3137202Y-13895150D01*
X3137202Y-13895150D02*
X3165773Y-13895150D01*
X3165773Y-13895150D02*
X3184821Y-13904674D01*
X3184821Y-13904674D02*
X3194345Y-13923722D01*
X3194345Y-13923722D02*
X3194345Y-14028484D01*
X3194345Y-13923722D02*
X3203868Y-13904674D01*
X3203868Y-13904674D02*
X3222916Y-13895150D01*
X3222916Y-13895150D02*
X3251487Y-13895150D01*
X3251487Y-13895150D02*
X3270535Y-13904674D01*
X3270535Y-13904674D02*
X3280059Y-13923722D01*
X3280059Y-13923722D02*
X3280059Y-14028484D01*
X3375297Y-14028484D02*
X3375297Y-13895150D01*
X3375297Y-13914198D02*
X3384821Y-13904674D01*
X3384821Y-13904674D02*
X3403868Y-13895150D01*
X3403868Y-13895150D02*
X3432440Y-13895150D01*
X3432440Y-13895150D02*
X3451488Y-13904674D01*
X3451488Y-13904674D02*
X3461011Y-13923722D01*
X3461011Y-13923722D02*
X3461011Y-14028484D01*
X3461011Y-13923722D02*
X3470535Y-13904674D01*
X3470535Y-13904674D02*
X3489583Y-13895150D01*
X3489583Y-13895150D02*
X3518154Y-13895150D01*
X3518154Y-13895150D02*
X3537202Y-13904674D01*
X3537202Y-13904674D02*
X3546726Y-13923722D01*
X3546726Y-13923722D02*
X3546726Y-14028484D01*
X3937202Y-13818960D02*
X3765773Y-14076103D01*
X4194345Y-13828484D02*
X4213393Y-13828484D01*
X4213393Y-13828484D02*
X4232440Y-13838008D01*
X4232440Y-13838008D02*
X4241964Y-13847531D01*
X4241964Y-13847531D02*
X4251488Y-13866579D01*
X4251488Y-13866579D02*
X4261012Y-13904674D01*
X4261012Y-13904674D02*
X4261012Y-13952293D01*
X4261012Y-13952293D02*
X4251488Y-13990388D01*
X4251488Y-13990388D02*
X4241964Y-14009436D01*
X4241964Y-14009436D02*
X4232440Y-14018960D01*
X4232440Y-14018960D02*
X4213393Y-14028484D01*
X4213393Y-14028484D02*
X4194345Y-14028484D01*
X4194345Y-14028484D02*
X4175297Y-14018960D01*
X4175297Y-14018960D02*
X4165773Y-14009436D01*
X4165773Y-14009436D02*
X4156250Y-13990388D01*
X4156250Y-13990388D02*
X4146726Y-13952293D01*
X4146726Y-13952293D02*
X4146726Y-13904674D01*
X4146726Y-13904674D02*
X4156250Y-13866579D01*
X4156250Y-13866579D02*
X4165773Y-13847531D01*
X4165773Y-13847531D02*
X4175297Y-13838008D01*
X4175297Y-13838008D02*
X4194345Y-13828484D01*
X4346726Y-14009436D02*
X4356250Y-14018960D01*
X4356250Y-14018960D02*
X4346726Y-14028484D01*
X4346726Y-14028484D02*
X4337202Y-14018960D01*
X4337202Y-14018960D02*
X4346726Y-14009436D01*
X4346726Y-14009436D02*
X4346726Y-14028484D01*
X4480059Y-13828484D02*
X4499107Y-13828484D01*
X4499107Y-13828484D02*
X4518154Y-13838008D01*
X4518154Y-13838008D02*
X4527678Y-13847531D01*
X4527678Y-13847531D02*
X4537202Y-13866579D01*
X4537202Y-13866579D02*
X4546726Y-13904674D01*
X4546726Y-13904674D02*
X4546726Y-13952293D01*
X4546726Y-13952293D02*
X4537202Y-13990388D01*
X4537202Y-13990388D02*
X4527678Y-14009436D01*
X4527678Y-14009436D02*
X4518154Y-14018960D01*
X4518154Y-14018960D02*
X4499107Y-14028484D01*
X4499107Y-14028484D02*
X4480059Y-14028484D01*
X4480059Y-14028484D02*
X4461012Y-14018960D01*
X4461012Y-14018960D02*
X4451488Y-14009436D01*
X4451488Y-14009436D02*
X4441964Y-13990388D01*
X4441964Y-13990388D02*
X4432440Y-13952293D01*
X4432440Y-13952293D02*
X4432440Y-13904674D01*
X4432440Y-13904674D02*
X4441964Y-13866579D01*
X4441964Y-13866579D02*
X4451488Y-13847531D01*
X4451488Y-13847531D02*
X4461012Y-13838008D01*
X4461012Y-13838008D02*
X4480059Y-13828484D01*
X4613393Y-13828484D02*
X4737202Y-13828484D01*
X4737202Y-13828484D02*
X4670535Y-13904674D01*
X4670535Y-13904674D02*
X4699107Y-13904674D01*
X4699107Y-13904674D02*
X4718154Y-13914198D01*
X4718154Y-13914198D02*
X4727678Y-13923722D01*
X4727678Y-13923722D02*
X4737202Y-13942769D01*
X4737202Y-13942769D02*
X4737202Y-13990388D01*
X4737202Y-13990388D02*
X4727678Y-14009436D01*
X4727678Y-14009436D02*
X4718154Y-14018960D01*
X4718154Y-14018960D02*
X4699107Y-14028484D01*
X4699107Y-14028484D02*
X4641964Y-14028484D01*
X4641964Y-14028484D02*
X4622916Y-14018960D01*
X4622916Y-14018960D02*
X4613393Y-14009436D01*
X4927678Y-14028484D02*
X4813393Y-14028484D01*
X4870535Y-14028484D02*
X4870535Y-13828484D01*
X4870535Y-13828484D02*
X4851488Y-13857055D01*
X4851488Y-13857055D02*
X4832440Y-13876103D01*
X4832440Y-13876103D02*
X4813393Y-13885627D01*
X5108631Y-13828484D02*
X5013393Y-13828484D01*
X5013393Y-13828484D02*
X5003869Y-13923722D01*
X5003869Y-13923722D02*
X5013393Y-13914198D01*
X5013393Y-13914198D02*
X5032440Y-13904674D01*
X5032440Y-13904674D02*
X5080059Y-13904674D01*
X5080059Y-13904674D02*
X5099107Y-13914198D01*
X5099107Y-13914198D02*
X5108631Y-13923722D01*
X5108631Y-13923722D02*
X5118154Y-13942769D01*
X5118154Y-13942769D02*
X5118154Y-13990388D01*
X5118154Y-13990388D02*
X5108631Y-14009436D01*
X5108631Y-14009436D02*
X5099107Y-14018960D01*
X5099107Y-14018960D02*
X5080059Y-14028484D01*
X5080059Y-14028484D02*
X5032440Y-14028484D01*
X5032440Y-14028484D02*
X5013393Y-14018960D01*
X5013393Y-14018960D02*
X5003869Y-14009436D01*
X5194345Y-13828484D02*
X5194345Y-13866579D01*
X5270535Y-13828484D02*
X5270535Y-13866579D01*
X5565774Y-14104674D02*
X5556250Y-14095150D01*
X5556250Y-14095150D02*
X5537202Y-14066579D01*
X5537202Y-14066579D02*
X5527678Y-14047531D01*
X5527678Y-14047531D02*
X5518155Y-14018960D01*
X5518155Y-14018960D02*
X5508631Y-13971341D01*
X5508631Y-13971341D02*
X5508631Y-13933246D01*
X5508631Y-13933246D02*
X5518155Y-13885627D01*
X5518155Y-13885627D02*
X5527678Y-13857055D01*
X5527678Y-13857055D02*
X5537202Y-13838008D01*
X5537202Y-13838008D02*
X5556250Y-13809436D01*
X5556250Y-13809436D02*
X5565774Y-13799912D01*
X5632440Y-13847531D02*
X5641964Y-13838008D01*
X5641964Y-13838008D02*
X5661012Y-13828484D01*
X5661012Y-13828484D02*
X5708631Y-13828484D01*
X5708631Y-13828484D02*
X5727678Y-13838008D01*
X5727678Y-13838008D02*
X5737202Y-13847531D01*
X5737202Y-13847531D02*
X5746726Y-13866579D01*
X5746726Y-13866579D02*
X5746726Y-13885627D01*
X5746726Y-13885627D02*
X5737202Y-13914198D01*
X5737202Y-13914198D02*
X5622916Y-14028484D01*
X5622916Y-14028484D02*
X5746726Y-14028484D01*
X5918154Y-13895150D02*
X5918154Y-14028484D01*
X5870535Y-13818960D02*
X5822916Y-13961817D01*
X5822916Y-13961817D02*
X5946726Y-13961817D01*
X6175297Y-14028484D02*
X6175297Y-13828484D01*
X6261012Y-14028484D02*
X6261012Y-13923722D01*
X6261012Y-13923722D02*
X6251488Y-13904674D01*
X6251488Y-13904674D02*
X6232440Y-13895150D01*
X6232440Y-13895150D02*
X6203869Y-13895150D01*
X6203869Y-13895150D02*
X6184821Y-13904674D01*
X6184821Y-13904674D02*
X6175297Y-13914198D01*
X6384821Y-14028484D02*
X6365774Y-14018960D01*
X6365774Y-14018960D02*
X6356250Y-14009436D01*
X6356250Y-14009436D02*
X6346726Y-13990388D01*
X6346726Y-13990388D02*
X6346726Y-13933246D01*
X6346726Y-13933246D02*
X6356250Y-13914198D01*
X6356250Y-13914198D02*
X6365774Y-13904674D01*
X6365774Y-13904674D02*
X6384821Y-13895150D01*
X6384821Y-13895150D02*
X6413393Y-13895150D01*
X6413393Y-13895150D02*
X6432440Y-13904674D01*
X6432440Y-13904674D02*
X6441964Y-13914198D01*
X6441964Y-13914198D02*
X6451488Y-13933246D01*
X6451488Y-13933246D02*
X6451488Y-13990388D01*
X6451488Y-13990388D02*
X6441964Y-14009436D01*
X6441964Y-14009436D02*
X6432440Y-14018960D01*
X6432440Y-14018960D02*
X6413393Y-14028484D01*
X6413393Y-14028484D02*
X6384821Y-14028484D01*
X6565774Y-14028484D02*
X6546726Y-14018960D01*
X6546726Y-14018960D02*
X6537202Y-13999912D01*
X6537202Y-13999912D02*
X6537202Y-13828484D01*
X6718155Y-14018960D02*
X6699107Y-14028484D01*
X6699107Y-14028484D02*
X6661012Y-14028484D01*
X6661012Y-14028484D02*
X6641964Y-14018960D01*
X6641964Y-14018960D02*
X6632440Y-13999912D01*
X6632440Y-13999912D02*
X6632440Y-13923722D01*
X6632440Y-13923722D02*
X6641964Y-13904674D01*
X6641964Y-13904674D02*
X6661012Y-13895150D01*
X6661012Y-13895150D02*
X6699107Y-13895150D01*
X6699107Y-13895150D02*
X6718155Y-13904674D01*
X6718155Y-13904674D02*
X6727678Y-13923722D01*
X6727678Y-13923722D02*
X6727678Y-13942769D01*
X6727678Y-13942769D02*
X6632440Y-13961817D01*
X6803869Y-14018960D02*
X6822916Y-14028484D01*
X6822916Y-14028484D02*
X6861012Y-14028484D01*
X6861012Y-14028484D02*
X6880059Y-14018960D01*
X6880059Y-14018960D02*
X6889583Y-13999912D01*
X6889583Y-13999912D02*
X6889583Y-13990388D01*
X6889583Y-13990388D02*
X6880059Y-13971341D01*
X6880059Y-13971341D02*
X6861012Y-13961817D01*
X6861012Y-13961817D02*
X6832440Y-13961817D01*
X6832440Y-13961817D02*
X6813393Y-13952293D01*
X6813393Y-13952293D02*
X6803869Y-13933246D01*
X6803869Y-13933246D02*
X6803869Y-13923722D01*
X6803869Y-13923722D02*
X6813393Y-13904674D01*
X6813393Y-13904674D02*
X6832440Y-13895150D01*
X6832440Y-13895150D02*
X6861012Y-13895150D01*
X6861012Y-13895150D02*
X6880059Y-13904674D01*
X7127678Y-13952293D02*
X7280059Y-13952293D01*
X7203869Y-14028484D02*
X7203869Y-13876103D01*
X7508631Y-13828484D02*
X7632440Y-13828484D01*
X7632440Y-13828484D02*
X7565774Y-13904674D01*
X7565774Y-13904674D02*
X7594345Y-13904674D01*
X7594345Y-13904674D02*
X7613393Y-13914198D01*
X7613393Y-13914198D02*
X7622917Y-13923722D01*
X7622917Y-13923722D02*
X7632440Y-13942769D01*
X7632440Y-13942769D02*
X7632440Y-13990388D01*
X7632440Y-13990388D02*
X7622917Y-14009436D01*
X7622917Y-14009436D02*
X7613393Y-14018960D01*
X7613393Y-14018960D02*
X7594345Y-14028484D01*
X7594345Y-14028484D02*
X7537202Y-14028484D01*
X7537202Y-14028484D02*
X7518155Y-14018960D01*
X7518155Y-14018960D02*
X7508631Y-14009436D01*
X7861012Y-14018960D02*
X7880059Y-14028484D01*
X7880059Y-14028484D02*
X7918155Y-14028484D01*
X7918155Y-14028484D02*
X7937202Y-14018960D01*
X7937202Y-14018960D02*
X7946726Y-13999912D01*
X7946726Y-13999912D02*
X7946726Y-13990388D01*
X7946726Y-13990388D02*
X7937202Y-13971341D01*
X7937202Y-13971341D02*
X7918155Y-13961817D01*
X7918155Y-13961817D02*
X7889583Y-13961817D01*
X7889583Y-13961817D02*
X7870536Y-13952293D01*
X7870536Y-13952293D02*
X7861012Y-13933246D01*
X7861012Y-13933246D02*
X7861012Y-13923722D01*
X7861012Y-13923722D02*
X7870536Y-13904674D01*
X7870536Y-13904674D02*
X7889583Y-13895150D01*
X7889583Y-13895150D02*
X7918155Y-13895150D01*
X7918155Y-13895150D02*
X7937202Y-13904674D01*
X8061012Y-14028484D02*
X8041964Y-14018960D01*
X8041964Y-14018960D02*
X8032440Y-13999912D01*
X8032440Y-13999912D02*
X8032440Y-13828484D01*
X8165774Y-14028484D02*
X8146726Y-14018960D01*
X8146726Y-14018960D02*
X8137202Y-14009436D01*
X8137202Y-14009436D02*
X8127679Y-13990388D01*
X8127679Y-13990388D02*
X8127679Y-13933246D01*
X8127679Y-13933246D02*
X8137202Y-13914198D01*
X8137202Y-13914198D02*
X8146726Y-13904674D01*
X8146726Y-13904674D02*
X8165774Y-13895150D01*
X8165774Y-13895150D02*
X8194345Y-13895150D01*
X8194345Y-13895150D02*
X8213393Y-13904674D01*
X8213393Y-13904674D02*
X8222917Y-13914198D01*
X8222917Y-13914198D02*
X8232440Y-13933246D01*
X8232440Y-13933246D02*
X8232440Y-13990388D01*
X8232440Y-13990388D02*
X8222917Y-14009436D01*
X8222917Y-14009436D02*
X8213393Y-14018960D01*
X8213393Y-14018960D02*
X8194345Y-14028484D01*
X8194345Y-14028484D02*
X8165774Y-14028484D01*
X8289583Y-13895150D02*
X8365774Y-13895150D01*
X8318155Y-13828484D02*
X8318155Y-13999912D01*
X8318155Y-13999912D02*
X8327679Y-14018960D01*
X8327679Y-14018960D02*
X8346726Y-14028484D01*
X8346726Y-14028484D02*
X8365774Y-14028484D01*
X8422917Y-14018960D02*
X8441964Y-14028484D01*
X8441964Y-14028484D02*
X8480060Y-14028484D01*
X8480060Y-14028484D02*
X8499107Y-14018960D01*
X8499107Y-14018960D02*
X8508631Y-13999912D01*
X8508631Y-13999912D02*
X8508631Y-13990388D01*
X8508631Y-13990388D02*
X8499107Y-13971341D01*
X8499107Y-13971341D02*
X8480060Y-13961817D01*
X8480060Y-13961817D02*
X8451488Y-13961817D01*
X8451488Y-13961817D02*
X8432441Y-13952293D01*
X8432441Y-13952293D02*
X8422917Y-13933246D01*
X8422917Y-13933246D02*
X8422917Y-13923722D01*
X8422917Y-13923722D02*
X8432441Y-13904674D01*
X8432441Y-13904674D02*
X8451488Y-13895150D01*
X8451488Y-13895150D02*
X8480060Y-13895150D01*
X8480060Y-13895150D02*
X8499107Y-13904674D01*
X8575298Y-14104674D02*
X8584822Y-14095150D01*
X8584822Y-14095150D02*
X8603869Y-14066579D01*
X8603869Y-14066579D02*
X8613393Y-14047531D01*
X8613393Y-14047531D02*
X8622917Y-14018960D01*
X8622917Y-14018960D02*
X8632441Y-13971341D01*
X8632441Y-13971341D02*
X8632441Y-13933246D01*
X8632441Y-13933246D02*
X8622917Y-13885627D01*
X8622917Y-13885627D02*
X8613393Y-13857055D01*
X8613393Y-13857055D02*
X8603869Y-13838008D01*
X8603869Y-13838008D02*
X8584822Y-13809436D01*
X8584822Y-13809436D02*
X8575298Y-13799912D01*
D10*
X1940711Y-14251000D02*
X1990711Y-14201000D01*
X1940711Y-14151000D01*
X1890711Y-14201000D01*
X1940711Y-14251000D01*
D11*
X2356249Y-14292484D02*
X2241964Y-14292484D01*
X2299107Y-14292484D02*
X2299107Y-14092484D01*
X2299107Y-14092484D02*
X2280059Y-14121055D01*
X2280059Y-14121055D02*
X2261011Y-14140103D01*
X2261011Y-14140103D02*
X2241964Y-14149627D01*
X2441964Y-14273436D02*
X2451488Y-14282960D01*
X2451488Y-14282960D02*
X2441964Y-14292484D01*
X2441964Y-14292484D02*
X2432440Y-14282960D01*
X2432440Y-14282960D02*
X2441964Y-14273436D01*
X2441964Y-14273436D02*
X2441964Y-14292484D01*
X2575297Y-14092484D02*
X2594345Y-14092484D01*
X2594345Y-14092484D02*
X2613392Y-14102008D01*
X2613392Y-14102008D02*
X2622916Y-14111531D01*
X2622916Y-14111531D02*
X2632440Y-14130579D01*
X2632440Y-14130579D02*
X2641964Y-14168674D01*
X2641964Y-14168674D02*
X2641964Y-14216293D01*
X2641964Y-14216293D02*
X2632440Y-14254388D01*
X2632440Y-14254388D02*
X2622916Y-14273436D01*
X2622916Y-14273436D02*
X2613392Y-14282960D01*
X2613392Y-14282960D02*
X2594345Y-14292484D01*
X2594345Y-14292484D02*
X2575297Y-14292484D01*
X2575297Y-14292484D02*
X2556249Y-14282960D01*
X2556249Y-14282960D02*
X2546726Y-14273436D01*
X2546726Y-14273436D02*
X2537202Y-14254388D01*
X2537202Y-14254388D02*
X2527678Y-14216293D01*
X2527678Y-14216293D02*
X2527678Y-14168674D01*
X2527678Y-14168674D02*
X2537202Y-14130579D01*
X2537202Y-14130579D02*
X2546726Y-14111531D01*
X2546726Y-14111531D02*
X2556249Y-14102008D01*
X2556249Y-14102008D02*
X2575297Y-14092484D01*
X2765773Y-14092484D02*
X2784821Y-14092484D01*
X2784821Y-14092484D02*
X2803868Y-14102008D01*
X2803868Y-14102008D02*
X2813392Y-14111531D01*
X2813392Y-14111531D02*
X2822916Y-14130579D01*
X2822916Y-14130579D02*
X2832440Y-14168674D01*
X2832440Y-14168674D02*
X2832440Y-14216293D01*
X2832440Y-14216293D02*
X2822916Y-14254388D01*
X2822916Y-14254388D02*
X2813392Y-14273436D01*
X2813392Y-14273436D02*
X2803868Y-14282960D01*
X2803868Y-14282960D02*
X2784821Y-14292484D01*
X2784821Y-14292484D02*
X2765773Y-14292484D01*
X2765773Y-14292484D02*
X2746726Y-14282960D01*
X2746726Y-14282960D02*
X2737202Y-14273436D01*
X2737202Y-14273436D02*
X2727678Y-14254388D01*
X2727678Y-14254388D02*
X2718154Y-14216293D01*
X2718154Y-14216293D02*
X2718154Y-14168674D01*
X2718154Y-14168674D02*
X2727678Y-14130579D01*
X2727678Y-14130579D02*
X2737202Y-14111531D01*
X2737202Y-14111531D02*
X2746726Y-14102008D01*
X2746726Y-14102008D02*
X2765773Y-14092484D01*
X2956249Y-14092484D02*
X2975297Y-14092484D01*
X2975297Y-14092484D02*
X2994345Y-14102008D01*
X2994345Y-14102008D02*
X3003868Y-14111531D01*
X3003868Y-14111531D02*
X3013392Y-14130579D01*
X3013392Y-14130579D02*
X3022916Y-14168674D01*
X3022916Y-14168674D02*
X3022916Y-14216293D01*
X3022916Y-14216293D02*
X3013392Y-14254388D01*
X3013392Y-14254388D02*
X3003868Y-14273436D01*
X3003868Y-14273436D02*
X2994345Y-14282960D01*
X2994345Y-14282960D02*
X2975297Y-14292484D01*
X2975297Y-14292484D02*
X2956249Y-14292484D01*
X2956249Y-14292484D02*
X2937202Y-14282960D01*
X2937202Y-14282960D02*
X2927678Y-14273436D01*
X2927678Y-14273436D02*
X2918154Y-14254388D01*
X2918154Y-14254388D02*
X2908630Y-14216293D01*
X2908630Y-14216293D02*
X2908630Y-14168674D01*
X2908630Y-14168674D02*
X2918154Y-14130579D01*
X2918154Y-14130579D02*
X2927678Y-14111531D01*
X2927678Y-14111531D02*
X2937202Y-14102008D01*
X2937202Y-14102008D02*
X2956249Y-14092484D01*
X3108630Y-14292484D02*
X3108630Y-14159150D01*
X3108630Y-14178198D02*
X3118154Y-14168674D01*
X3118154Y-14168674D02*
X3137202Y-14159150D01*
X3137202Y-14159150D02*
X3165773Y-14159150D01*
X3165773Y-14159150D02*
X3184821Y-14168674D01*
X3184821Y-14168674D02*
X3194345Y-14187722D01*
X3194345Y-14187722D02*
X3194345Y-14292484D01*
X3194345Y-14187722D02*
X3203868Y-14168674D01*
X3203868Y-14168674D02*
X3222916Y-14159150D01*
X3222916Y-14159150D02*
X3251487Y-14159150D01*
X3251487Y-14159150D02*
X3270535Y-14168674D01*
X3270535Y-14168674D02*
X3280059Y-14187722D01*
X3280059Y-14187722D02*
X3280059Y-14292484D01*
X3375297Y-14292484D02*
X3375297Y-14159150D01*
X3375297Y-14178198D02*
X3384821Y-14168674D01*
X3384821Y-14168674D02*
X3403868Y-14159150D01*
X3403868Y-14159150D02*
X3432440Y-14159150D01*
X3432440Y-14159150D02*
X3451488Y-14168674D01*
X3451488Y-14168674D02*
X3461011Y-14187722D01*
X3461011Y-14187722D02*
X3461011Y-14292484D01*
X3461011Y-14187722D02*
X3470535Y-14168674D01*
X3470535Y-14168674D02*
X3489583Y-14159150D01*
X3489583Y-14159150D02*
X3518154Y-14159150D01*
X3518154Y-14159150D02*
X3537202Y-14168674D01*
X3537202Y-14168674D02*
X3546726Y-14187722D01*
X3546726Y-14187722D02*
X3546726Y-14292484D01*
X3937202Y-14082960D02*
X3765773Y-14340103D01*
X4194345Y-14092484D02*
X4213393Y-14092484D01*
X4213393Y-14092484D02*
X4232440Y-14102008D01*
X4232440Y-14102008D02*
X4241964Y-14111531D01*
X4241964Y-14111531D02*
X4251488Y-14130579D01*
X4251488Y-14130579D02*
X4261012Y-14168674D01*
X4261012Y-14168674D02*
X4261012Y-14216293D01*
X4261012Y-14216293D02*
X4251488Y-14254388D01*
X4251488Y-14254388D02*
X4241964Y-14273436D01*
X4241964Y-14273436D02*
X4232440Y-14282960D01*
X4232440Y-14282960D02*
X4213393Y-14292484D01*
X4213393Y-14292484D02*
X4194345Y-14292484D01*
X4194345Y-14292484D02*
X4175297Y-14282960D01*
X4175297Y-14282960D02*
X4165773Y-14273436D01*
X4165773Y-14273436D02*
X4156250Y-14254388D01*
X4156250Y-14254388D02*
X4146726Y-14216293D01*
X4146726Y-14216293D02*
X4146726Y-14168674D01*
X4146726Y-14168674D02*
X4156250Y-14130579D01*
X4156250Y-14130579D02*
X4165773Y-14111531D01*
X4165773Y-14111531D02*
X4175297Y-14102008D01*
X4175297Y-14102008D02*
X4194345Y-14092484D01*
X4346726Y-14273436D02*
X4356250Y-14282960D01*
X4356250Y-14282960D02*
X4346726Y-14292484D01*
X4346726Y-14292484D02*
X4337202Y-14282960D01*
X4337202Y-14282960D02*
X4346726Y-14273436D01*
X4346726Y-14273436D02*
X4346726Y-14292484D01*
X4480059Y-14092484D02*
X4499107Y-14092484D01*
X4499107Y-14092484D02*
X4518154Y-14102008D01*
X4518154Y-14102008D02*
X4527678Y-14111531D01*
X4527678Y-14111531D02*
X4537202Y-14130579D01*
X4537202Y-14130579D02*
X4546726Y-14168674D01*
X4546726Y-14168674D02*
X4546726Y-14216293D01*
X4546726Y-14216293D02*
X4537202Y-14254388D01*
X4537202Y-14254388D02*
X4527678Y-14273436D01*
X4527678Y-14273436D02*
X4518154Y-14282960D01*
X4518154Y-14282960D02*
X4499107Y-14292484D01*
X4499107Y-14292484D02*
X4480059Y-14292484D01*
X4480059Y-14292484D02*
X4461012Y-14282960D01*
X4461012Y-14282960D02*
X4451488Y-14273436D01*
X4451488Y-14273436D02*
X4441964Y-14254388D01*
X4441964Y-14254388D02*
X4432440Y-14216293D01*
X4432440Y-14216293D02*
X4432440Y-14168674D01*
X4432440Y-14168674D02*
X4441964Y-14130579D01*
X4441964Y-14130579D02*
X4451488Y-14111531D01*
X4451488Y-14111531D02*
X4461012Y-14102008D01*
X4461012Y-14102008D02*
X4480059Y-14092484D01*
X4613393Y-14092484D02*
X4737202Y-14092484D01*
X4737202Y-14092484D02*
X4670535Y-14168674D01*
X4670535Y-14168674D02*
X4699107Y-14168674D01*
X4699107Y-14168674D02*
X4718154Y-14178198D01*
X4718154Y-14178198D02*
X4727678Y-14187722D01*
X4727678Y-14187722D02*
X4737202Y-14206769D01*
X4737202Y-14206769D02*
X4737202Y-14254388D01*
X4737202Y-14254388D02*
X4727678Y-14273436D01*
X4727678Y-14273436D02*
X4718154Y-14282960D01*
X4718154Y-14282960D02*
X4699107Y-14292484D01*
X4699107Y-14292484D02*
X4641964Y-14292484D01*
X4641964Y-14292484D02*
X4622916Y-14282960D01*
X4622916Y-14282960D02*
X4613393Y-14273436D01*
X4832440Y-14292484D02*
X4870535Y-14292484D01*
X4870535Y-14292484D02*
X4889583Y-14282960D01*
X4889583Y-14282960D02*
X4899107Y-14273436D01*
X4899107Y-14273436D02*
X4918154Y-14244865D01*
X4918154Y-14244865D02*
X4927678Y-14206769D01*
X4927678Y-14206769D02*
X4927678Y-14130579D01*
X4927678Y-14130579D02*
X4918154Y-14111531D01*
X4918154Y-14111531D02*
X4908631Y-14102008D01*
X4908631Y-14102008D02*
X4889583Y-14092484D01*
X4889583Y-14092484D02*
X4851488Y-14092484D01*
X4851488Y-14092484D02*
X4832440Y-14102008D01*
X4832440Y-14102008D02*
X4822916Y-14111531D01*
X4822916Y-14111531D02*
X4813393Y-14130579D01*
X4813393Y-14130579D02*
X4813393Y-14178198D01*
X4813393Y-14178198D02*
X4822916Y-14197246D01*
X4822916Y-14197246D02*
X4832440Y-14206769D01*
X4832440Y-14206769D02*
X4851488Y-14216293D01*
X4851488Y-14216293D02*
X4889583Y-14216293D01*
X4889583Y-14216293D02*
X4908631Y-14206769D01*
X4908631Y-14206769D02*
X4918154Y-14197246D01*
X4918154Y-14197246D02*
X4927678Y-14178198D01*
X5099107Y-14159150D02*
X5099107Y-14292484D01*
X5051488Y-14082960D02*
X5003869Y-14225817D01*
X5003869Y-14225817D02*
X5127678Y-14225817D01*
X5194345Y-14092484D02*
X5194345Y-14130579D01*
X5270535Y-14092484D02*
X5270535Y-14130579D01*
X5565774Y-14368674D02*
X5556250Y-14359150D01*
X5556250Y-14359150D02*
X5537202Y-14330579D01*
X5537202Y-14330579D02*
X5527678Y-14311531D01*
X5527678Y-14311531D02*
X5518155Y-14282960D01*
X5518155Y-14282960D02*
X5508631Y-14235341D01*
X5508631Y-14235341D02*
X5508631Y-14197246D01*
X5508631Y-14197246D02*
X5518155Y-14149627D01*
X5518155Y-14149627D02*
X5527678Y-14121055D01*
X5527678Y-14121055D02*
X5537202Y-14102008D01*
X5537202Y-14102008D02*
X5556250Y-14073436D01*
X5556250Y-14073436D02*
X5565774Y-14063912D01*
X5746726Y-14292484D02*
X5632440Y-14292484D01*
X5689583Y-14292484D02*
X5689583Y-14092484D01*
X5689583Y-14092484D02*
X5670535Y-14121055D01*
X5670535Y-14121055D02*
X5651488Y-14140103D01*
X5651488Y-14140103D02*
X5632440Y-14149627D01*
X5937202Y-14292484D02*
X5822916Y-14292484D01*
X5880059Y-14292484D02*
X5880059Y-14092484D01*
X5880059Y-14092484D02*
X5861012Y-14121055D01*
X5861012Y-14121055D02*
X5841964Y-14140103D01*
X5841964Y-14140103D02*
X5822916Y-14149627D01*
X6003869Y-14092484D02*
X6137202Y-14092484D01*
X6137202Y-14092484D02*
X6051488Y-14292484D01*
X6365774Y-14292484D02*
X6365774Y-14092484D01*
X6451488Y-14292484D02*
X6451488Y-14187722D01*
X6451488Y-14187722D02*
X6441964Y-14168674D01*
X6441964Y-14168674D02*
X6422916Y-14159150D01*
X6422916Y-14159150D02*
X6394345Y-14159150D01*
X6394345Y-14159150D02*
X6375297Y-14168674D01*
X6375297Y-14168674D02*
X6365774Y-14178198D01*
X6575297Y-14292484D02*
X6556250Y-14282960D01*
X6556250Y-14282960D02*
X6546726Y-14273436D01*
X6546726Y-14273436D02*
X6537202Y-14254388D01*
X6537202Y-14254388D02*
X6537202Y-14197246D01*
X6537202Y-14197246D02*
X6546726Y-14178198D01*
X6546726Y-14178198D02*
X6556250Y-14168674D01*
X6556250Y-14168674D02*
X6575297Y-14159150D01*
X6575297Y-14159150D02*
X6603869Y-14159150D01*
X6603869Y-14159150D02*
X6622916Y-14168674D01*
X6622916Y-14168674D02*
X6632440Y-14178198D01*
X6632440Y-14178198D02*
X6641964Y-14197246D01*
X6641964Y-14197246D02*
X6641964Y-14254388D01*
X6641964Y-14254388D02*
X6632440Y-14273436D01*
X6632440Y-14273436D02*
X6622916Y-14282960D01*
X6622916Y-14282960D02*
X6603869Y-14292484D01*
X6603869Y-14292484D02*
X6575297Y-14292484D01*
X6756250Y-14292484D02*
X6737202Y-14282960D01*
X6737202Y-14282960D02*
X6727678Y-14263912D01*
X6727678Y-14263912D02*
X6727678Y-14092484D01*
X6908631Y-14282960D02*
X6889583Y-14292484D01*
X6889583Y-14292484D02*
X6851488Y-14292484D01*
X6851488Y-14292484D02*
X6832440Y-14282960D01*
X6832440Y-14282960D02*
X6822916Y-14263912D01*
X6822916Y-14263912D02*
X6822916Y-14187722D01*
X6822916Y-14187722D02*
X6832440Y-14168674D01*
X6832440Y-14168674D02*
X6851488Y-14159150D01*
X6851488Y-14159150D02*
X6889583Y-14159150D01*
X6889583Y-14159150D02*
X6908631Y-14168674D01*
X6908631Y-14168674D02*
X6918155Y-14187722D01*
X6918155Y-14187722D02*
X6918155Y-14206769D01*
X6918155Y-14206769D02*
X6822916Y-14225817D01*
X6994345Y-14282960D02*
X7013393Y-14292484D01*
X7013393Y-14292484D02*
X7051488Y-14292484D01*
X7051488Y-14292484D02*
X7070536Y-14282960D01*
X7070536Y-14282960D02*
X7080059Y-14263912D01*
X7080059Y-14263912D02*
X7080059Y-14254388D01*
X7080059Y-14254388D02*
X7070536Y-14235341D01*
X7070536Y-14235341D02*
X7051488Y-14225817D01*
X7051488Y-14225817D02*
X7022916Y-14225817D01*
X7022916Y-14225817D02*
X7003869Y-14216293D01*
X7003869Y-14216293D02*
X6994345Y-14197246D01*
X6994345Y-14197246D02*
X6994345Y-14187722D01*
X6994345Y-14187722D02*
X7003869Y-14168674D01*
X7003869Y-14168674D02*
X7022916Y-14159150D01*
X7022916Y-14159150D02*
X7051488Y-14159150D01*
X7051488Y-14159150D02*
X7070536Y-14168674D01*
X7146726Y-14368674D02*
X7156250Y-14359150D01*
X7156250Y-14359150D02*
X7175297Y-14330579D01*
X7175297Y-14330579D02*
X7184821Y-14311531D01*
X7184821Y-14311531D02*
X7194345Y-14282960D01*
X7194345Y-14282960D02*
X7203869Y-14235341D01*
X7203869Y-14235341D02*
X7203869Y-14197246D01*
X7203869Y-14197246D02*
X7194345Y-14149627D01*
X7194345Y-14149627D02*
X7184821Y-14121055D01*
X7184821Y-14121055D02*
X7175297Y-14102008D01*
X7175297Y-14102008D02*
X7156250Y-14073436D01*
X7156250Y-14073436D02*
X7146726Y-14063912D01*
D15*
X1888711Y-14414000D02*
X1990711Y-14516000D01*
X1990711Y-14414000D02*
X1888711Y-14516000D01*
X1990711Y-14465000D02*
G75*
G03*
X1990711Y-14465000I-51000J0D01*
G01*
D11*
X2356249Y-14556484D02*
X2241964Y-14556484D01*
X2299107Y-14556484D02*
X2299107Y-14356484D01*
X2299107Y-14356484D02*
X2280059Y-14385055D01*
X2280059Y-14385055D02*
X2261011Y-14404103D01*
X2261011Y-14404103D02*
X2241964Y-14413627D01*
X2441964Y-14537436D02*
X2451488Y-14546960D01*
X2451488Y-14546960D02*
X2441964Y-14556484D01*
X2441964Y-14556484D02*
X2432440Y-14546960D01*
X2432440Y-14546960D02*
X2441964Y-14537436D01*
X2441964Y-14537436D02*
X2441964Y-14556484D01*
X2575297Y-14356484D02*
X2594345Y-14356484D01*
X2594345Y-14356484D02*
X2613392Y-14366008D01*
X2613392Y-14366008D02*
X2622916Y-14375531D01*
X2622916Y-14375531D02*
X2632440Y-14394579D01*
X2632440Y-14394579D02*
X2641964Y-14432674D01*
X2641964Y-14432674D02*
X2641964Y-14480293D01*
X2641964Y-14480293D02*
X2632440Y-14518388D01*
X2632440Y-14518388D02*
X2622916Y-14537436D01*
X2622916Y-14537436D02*
X2613392Y-14546960D01*
X2613392Y-14546960D02*
X2594345Y-14556484D01*
X2594345Y-14556484D02*
X2575297Y-14556484D01*
X2575297Y-14556484D02*
X2556249Y-14546960D01*
X2556249Y-14546960D02*
X2546726Y-14537436D01*
X2546726Y-14537436D02*
X2537202Y-14518388D01*
X2537202Y-14518388D02*
X2527678Y-14480293D01*
X2527678Y-14480293D02*
X2527678Y-14432674D01*
X2527678Y-14432674D02*
X2537202Y-14394579D01*
X2537202Y-14394579D02*
X2546726Y-14375531D01*
X2546726Y-14375531D02*
X2556249Y-14366008D01*
X2556249Y-14366008D02*
X2575297Y-14356484D01*
X2718154Y-14375531D02*
X2727678Y-14366008D01*
X2727678Y-14366008D02*
X2746726Y-14356484D01*
X2746726Y-14356484D02*
X2794345Y-14356484D01*
X2794345Y-14356484D02*
X2813392Y-14366008D01*
X2813392Y-14366008D02*
X2822916Y-14375531D01*
X2822916Y-14375531D02*
X2832440Y-14394579D01*
X2832440Y-14394579D02*
X2832440Y-14413627D01*
X2832440Y-14413627D02*
X2822916Y-14442198D01*
X2822916Y-14442198D02*
X2708630Y-14556484D01*
X2708630Y-14556484D02*
X2832440Y-14556484D01*
X2956249Y-14356484D02*
X2975297Y-14356484D01*
X2975297Y-14356484D02*
X2994345Y-14366008D01*
X2994345Y-14366008D02*
X3003868Y-14375531D01*
X3003868Y-14375531D02*
X3013392Y-14394579D01*
X3013392Y-14394579D02*
X3022916Y-14432674D01*
X3022916Y-14432674D02*
X3022916Y-14480293D01*
X3022916Y-14480293D02*
X3013392Y-14518388D01*
X3013392Y-14518388D02*
X3003868Y-14537436D01*
X3003868Y-14537436D02*
X2994345Y-14546960D01*
X2994345Y-14546960D02*
X2975297Y-14556484D01*
X2975297Y-14556484D02*
X2956249Y-14556484D01*
X2956249Y-14556484D02*
X2937202Y-14546960D01*
X2937202Y-14546960D02*
X2927678Y-14537436D01*
X2927678Y-14537436D02*
X2918154Y-14518388D01*
X2918154Y-14518388D02*
X2908630Y-14480293D01*
X2908630Y-14480293D02*
X2908630Y-14432674D01*
X2908630Y-14432674D02*
X2918154Y-14394579D01*
X2918154Y-14394579D02*
X2927678Y-14375531D01*
X2927678Y-14375531D02*
X2937202Y-14366008D01*
X2937202Y-14366008D02*
X2956249Y-14356484D01*
X3108630Y-14556484D02*
X3108630Y-14423150D01*
X3108630Y-14442198D02*
X3118154Y-14432674D01*
X3118154Y-14432674D02*
X3137202Y-14423150D01*
X3137202Y-14423150D02*
X3165773Y-14423150D01*
X3165773Y-14423150D02*
X3184821Y-14432674D01*
X3184821Y-14432674D02*
X3194345Y-14451722D01*
X3194345Y-14451722D02*
X3194345Y-14556484D01*
X3194345Y-14451722D02*
X3203868Y-14432674D01*
X3203868Y-14432674D02*
X3222916Y-14423150D01*
X3222916Y-14423150D02*
X3251487Y-14423150D01*
X3251487Y-14423150D02*
X3270535Y-14432674D01*
X3270535Y-14432674D02*
X3280059Y-14451722D01*
X3280059Y-14451722D02*
X3280059Y-14556484D01*
X3375297Y-14556484D02*
X3375297Y-14423150D01*
X3375297Y-14442198D02*
X3384821Y-14432674D01*
X3384821Y-14432674D02*
X3403868Y-14423150D01*
X3403868Y-14423150D02*
X3432440Y-14423150D01*
X3432440Y-14423150D02*
X3451488Y-14432674D01*
X3451488Y-14432674D02*
X3461011Y-14451722D01*
X3461011Y-14451722D02*
X3461011Y-14556484D01*
X3461011Y-14451722D02*
X3470535Y-14432674D01*
X3470535Y-14432674D02*
X3489583Y-14423150D01*
X3489583Y-14423150D02*
X3518154Y-14423150D01*
X3518154Y-14423150D02*
X3537202Y-14432674D01*
X3537202Y-14432674D02*
X3546726Y-14451722D01*
X3546726Y-14451722D02*
X3546726Y-14556484D01*
X3937202Y-14346960D02*
X3765773Y-14604103D01*
X4194345Y-14356484D02*
X4213393Y-14356484D01*
X4213393Y-14356484D02*
X4232440Y-14366008D01*
X4232440Y-14366008D02*
X4241964Y-14375531D01*
X4241964Y-14375531D02*
X4251488Y-14394579D01*
X4251488Y-14394579D02*
X4261012Y-14432674D01*
X4261012Y-14432674D02*
X4261012Y-14480293D01*
X4261012Y-14480293D02*
X4251488Y-14518388D01*
X4251488Y-14518388D02*
X4241964Y-14537436D01*
X4241964Y-14537436D02*
X4232440Y-14546960D01*
X4232440Y-14546960D02*
X4213393Y-14556484D01*
X4213393Y-14556484D02*
X4194345Y-14556484D01*
X4194345Y-14556484D02*
X4175297Y-14546960D01*
X4175297Y-14546960D02*
X4165773Y-14537436D01*
X4165773Y-14537436D02*
X4156250Y-14518388D01*
X4156250Y-14518388D02*
X4146726Y-14480293D01*
X4146726Y-14480293D02*
X4146726Y-14432674D01*
X4146726Y-14432674D02*
X4156250Y-14394579D01*
X4156250Y-14394579D02*
X4165773Y-14375531D01*
X4165773Y-14375531D02*
X4175297Y-14366008D01*
X4175297Y-14366008D02*
X4194345Y-14356484D01*
X4346726Y-14537436D02*
X4356250Y-14546960D01*
X4356250Y-14546960D02*
X4346726Y-14556484D01*
X4346726Y-14556484D02*
X4337202Y-14546960D01*
X4337202Y-14546960D02*
X4346726Y-14537436D01*
X4346726Y-14537436D02*
X4346726Y-14556484D01*
X4480059Y-14356484D02*
X4499107Y-14356484D01*
X4499107Y-14356484D02*
X4518154Y-14366008D01*
X4518154Y-14366008D02*
X4527678Y-14375531D01*
X4527678Y-14375531D02*
X4537202Y-14394579D01*
X4537202Y-14394579D02*
X4546726Y-14432674D01*
X4546726Y-14432674D02*
X4546726Y-14480293D01*
X4546726Y-14480293D02*
X4537202Y-14518388D01*
X4537202Y-14518388D02*
X4527678Y-14537436D01*
X4527678Y-14537436D02*
X4518154Y-14546960D01*
X4518154Y-14546960D02*
X4499107Y-14556484D01*
X4499107Y-14556484D02*
X4480059Y-14556484D01*
X4480059Y-14556484D02*
X4461012Y-14546960D01*
X4461012Y-14546960D02*
X4451488Y-14537436D01*
X4451488Y-14537436D02*
X4441964Y-14518388D01*
X4441964Y-14518388D02*
X4432440Y-14480293D01*
X4432440Y-14480293D02*
X4432440Y-14432674D01*
X4432440Y-14432674D02*
X4441964Y-14394579D01*
X4441964Y-14394579D02*
X4451488Y-14375531D01*
X4451488Y-14375531D02*
X4461012Y-14366008D01*
X4461012Y-14366008D02*
X4480059Y-14356484D01*
X4718154Y-14423150D02*
X4718154Y-14556484D01*
X4670535Y-14346960D02*
X4622916Y-14489817D01*
X4622916Y-14489817D02*
X4746726Y-14489817D01*
X4861012Y-14356484D02*
X4880059Y-14356484D01*
X4880059Y-14356484D02*
X4899107Y-14366008D01*
X4899107Y-14366008D02*
X4908631Y-14375531D01*
X4908631Y-14375531D02*
X4918154Y-14394579D01*
X4918154Y-14394579D02*
X4927678Y-14432674D01*
X4927678Y-14432674D02*
X4927678Y-14480293D01*
X4927678Y-14480293D02*
X4918154Y-14518388D01*
X4918154Y-14518388D02*
X4908631Y-14537436D01*
X4908631Y-14537436D02*
X4899107Y-14546960D01*
X4899107Y-14546960D02*
X4880059Y-14556484D01*
X4880059Y-14556484D02*
X4861012Y-14556484D01*
X4861012Y-14556484D02*
X4841964Y-14546960D01*
X4841964Y-14546960D02*
X4832440Y-14537436D01*
X4832440Y-14537436D02*
X4822916Y-14518388D01*
X4822916Y-14518388D02*
X4813393Y-14480293D01*
X4813393Y-14480293D02*
X4813393Y-14432674D01*
X4813393Y-14432674D02*
X4822916Y-14394579D01*
X4822916Y-14394579D02*
X4832440Y-14375531D01*
X4832440Y-14375531D02*
X4841964Y-14366008D01*
X4841964Y-14366008D02*
X4861012Y-14356484D01*
X5003869Y-14375531D02*
X5013393Y-14366008D01*
X5013393Y-14366008D02*
X5032440Y-14356484D01*
X5032440Y-14356484D02*
X5080059Y-14356484D01*
X5080059Y-14356484D02*
X5099107Y-14366008D01*
X5099107Y-14366008D02*
X5108631Y-14375531D01*
X5108631Y-14375531D02*
X5118154Y-14394579D01*
X5118154Y-14394579D02*
X5118154Y-14413627D01*
X5118154Y-14413627D02*
X5108631Y-14442198D01*
X5108631Y-14442198D02*
X4994345Y-14556484D01*
X4994345Y-14556484D02*
X5118154Y-14556484D01*
X5194345Y-14356484D02*
X5194345Y-14394579D01*
X5270535Y-14356484D02*
X5270535Y-14394579D01*
X5565774Y-14632674D02*
X5556250Y-14623150D01*
X5556250Y-14623150D02*
X5537202Y-14594579D01*
X5537202Y-14594579D02*
X5527678Y-14575531D01*
X5527678Y-14575531D02*
X5518155Y-14546960D01*
X5518155Y-14546960D02*
X5508631Y-14499341D01*
X5508631Y-14499341D02*
X5508631Y-14461246D01*
X5508631Y-14461246D02*
X5518155Y-14413627D01*
X5518155Y-14413627D02*
X5527678Y-14385055D01*
X5527678Y-14385055D02*
X5537202Y-14366008D01*
X5537202Y-14366008D02*
X5556250Y-14337436D01*
X5556250Y-14337436D02*
X5565774Y-14327912D01*
X5727678Y-14423150D02*
X5727678Y-14556484D01*
X5680059Y-14346960D02*
X5632440Y-14489817D01*
X5632440Y-14489817D02*
X5756250Y-14489817D01*
X5870535Y-14356484D02*
X5889583Y-14356484D01*
X5889583Y-14356484D02*
X5908631Y-14366008D01*
X5908631Y-14366008D02*
X5918154Y-14375531D01*
X5918154Y-14375531D02*
X5927678Y-14394579D01*
X5927678Y-14394579D02*
X5937202Y-14432674D01*
X5937202Y-14432674D02*
X5937202Y-14480293D01*
X5937202Y-14480293D02*
X5927678Y-14518388D01*
X5927678Y-14518388D02*
X5918154Y-14537436D01*
X5918154Y-14537436D02*
X5908631Y-14546960D01*
X5908631Y-14546960D02*
X5889583Y-14556484D01*
X5889583Y-14556484D02*
X5870535Y-14556484D01*
X5870535Y-14556484D02*
X5851488Y-14546960D01*
X5851488Y-14546960D02*
X5841964Y-14537436D01*
X5841964Y-14537436D02*
X5832440Y-14518388D01*
X5832440Y-14518388D02*
X5822916Y-14480293D01*
X5822916Y-14480293D02*
X5822916Y-14432674D01*
X5822916Y-14432674D02*
X5832440Y-14394579D01*
X5832440Y-14394579D02*
X5841964Y-14375531D01*
X5841964Y-14375531D02*
X5851488Y-14366008D01*
X5851488Y-14366008D02*
X5870535Y-14356484D01*
X6175297Y-14556484D02*
X6175297Y-14356484D01*
X6261012Y-14556484D02*
X6261012Y-14451722D01*
X6261012Y-14451722D02*
X6251488Y-14432674D01*
X6251488Y-14432674D02*
X6232440Y-14423150D01*
X6232440Y-14423150D02*
X6203869Y-14423150D01*
X6203869Y-14423150D02*
X6184821Y-14432674D01*
X6184821Y-14432674D02*
X6175297Y-14442198D01*
X6384821Y-14556484D02*
X6365774Y-14546960D01*
X6365774Y-14546960D02*
X6356250Y-14537436D01*
X6356250Y-14537436D02*
X6346726Y-14518388D01*
X6346726Y-14518388D02*
X6346726Y-14461246D01*
X6346726Y-14461246D02*
X6356250Y-14442198D01*
X6356250Y-14442198D02*
X6365774Y-14432674D01*
X6365774Y-14432674D02*
X6384821Y-14423150D01*
X6384821Y-14423150D02*
X6413393Y-14423150D01*
X6413393Y-14423150D02*
X6432440Y-14432674D01*
X6432440Y-14432674D02*
X6441964Y-14442198D01*
X6441964Y-14442198D02*
X6451488Y-14461246D01*
X6451488Y-14461246D02*
X6451488Y-14518388D01*
X6451488Y-14518388D02*
X6441964Y-14537436D01*
X6441964Y-14537436D02*
X6432440Y-14546960D01*
X6432440Y-14546960D02*
X6413393Y-14556484D01*
X6413393Y-14556484D02*
X6384821Y-14556484D01*
X6565774Y-14556484D02*
X6546726Y-14546960D01*
X6546726Y-14546960D02*
X6537202Y-14527912D01*
X6537202Y-14527912D02*
X6537202Y-14356484D01*
X6718155Y-14546960D02*
X6699107Y-14556484D01*
X6699107Y-14556484D02*
X6661012Y-14556484D01*
X6661012Y-14556484D02*
X6641964Y-14546960D01*
X6641964Y-14546960D02*
X6632440Y-14527912D01*
X6632440Y-14527912D02*
X6632440Y-14451722D01*
X6632440Y-14451722D02*
X6641964Y-14432674D01*
X6641964Y-14432674D02*
X6661012Y-14423150D01*
X6661012Y-14423150D02*
X6699107Y-14423150D01*
X6699107Y-14423150D02*
X6718155Y-14432674D01*
X6718155Y-14432674D02*
X6727678Y-14451722D01*
X6727678Y-14451722D02*
X6727678Y-14470769D01*
X6727678Y-14470769D02*
X6632440Y-14489817D01*
X6803869Y-14546960D02*
X6822916Y-14556484D01*
X6822916Y-14556484D02*
X6861012Y-14556484D01*
X6861012Y-14556484D02*
X6880059Y-14546960D01*
X6880059Y-14546960D02*
X6889583Y-14527912D01*
X6889583Y-14527912D02*
X6889583Y-14518388D01*
X6889583Y-14518388D02*
X6880059Y-14499341D01*
X6880059Y-14499341D02*
X6861012Y-14489817D01*
X6861012Y-14489817D02*
X6832440Y-14489817D01*
X6832440Y-14489817D02*
X6813393Y-14480293D01*
X6813393Y-14480293D02*
X6803869Y-14461246D01*
X6803869Y-14461246D02*
X6803869Y-14451722D01*
X6803869Y-14451722D02*
X6813393Y-14432674D01*
X6813393Y-14432674D02*
X6832440Y-14423150D01*
X6832440Y-14423150D02*
X6861012Y-14423150D01*
X6861012Y-14423150D02*
X6880059Y-14432674D01*
X6956250Y-14632674D02*
X6965774Y-14623150D01*
X6965774Y-14623150D02*
X6984821Y-14594579D01*
X6984821Y-14594579D02*
X6994345Y-14575531D01*
X6994345Y-14575531D02*
X7003869Y-14546960D01*
X7003869Y-14546960D02*
X7013393Y-14499341D01*
X7013393Y-14499341D02*
X7013393Y-14461246D01*
X7013393Y-14461246D02*
X7003869Y-14413627D01*
X7003869Y-14413627D02*
X6994345Y-14385055D01*
X6994345Y-14385055D02*
X6984821Y-14366008D01*
X6984821Y-14366008D02*
X6965774Y-14337436D01*
X6965774Y-14337436D02*
X6956250Y-14327912D01*
D16*
X1858631Y-14662960D02*
X1990711Y-14795040D01*
X1990711Y-14662960D02*
X1858631Y-14795040D01*
X1924671Y-14662960D02*
X1924671Y-14795040D01*
X1858631Y-14729000D02*
X1990711Y-14729000D01*
D11*
X2356249Y-14820484D02*
X2241964Y-14820484D01*
X2299107Y-14820484D02*
X2299107Y-14620484D01*
X2299107Y-14620484D02*
X2280059Y-14649055D01*
X2280059Y-14649055D02*
X2261011Y-14668103D01*
X2261011Y-14668103D02*
X2241964Y-14677627D01*
X2441964Y-14801436D02*
X2451488Y-14810960D01*
X2451488Y-14810960D02*
X2441964Y-14820484D01*
X2441964Y-14820484D02*
X2432440Y-14810960D01*
X2432440Y-14810960D02*
X2441964Y-14801436D01*
X2441964Y-14801436D02*
X2441964Y-14820484D01*
X2518154Y-14620484D02*
X2641964Y-14620484D01*
X2641964Y-14620484D02*
X2575297Y-14696674D01*
X2575297Y-14696674D02*
X2603869Y-14696674D01*
X2603869Y-14696674D02*
X2622916Y-14706198D01*
X2622916Y-14706198D02*
X2632440Y-14715722D01*
X2632440Y-14715722D02*
X2641964Y-14734769D01*
X2641964Y-14734769D02*
X2641964Y-14782388D01*
X2641964Y-14782388D02*
X2632440Y-14801436D01*
X2632440Y-14801436D02*
X2622916Y-14810960D01*
X2622916Y-14810960D02*
X2603869Y-14820484D01*
X2603869Y-14820484D02*
X2546726Y-14820484D01*
X2546726Y-14820484D02*
X2527678Y-14810960D01*
X2527678Y-14810960D02*
X2518154Y-14801436D01*
X2718154Y-14639531D02*
X2727678Y-14630008D01*
X2727678Y-14630008D02*
X2746726Y-14620484D01*
X2746726Y-14620484D02*
X2794345Y-14620484D01*
X2794345Y-14620484D02*
X2813392Y-14630008D01*
X2813392Y-14630008D02*
X2822916Y-14639531D01*
X2822916Y-14639531D02*
X2832440Y-14658579D01*
X2832440Y-14658579D02*
X2832440Y-14677627D01*
X2832440Y-14677627D02*
X2822916Y-14706198D01*
X2822916Y-14706198D02*
X2708630Y-14820484D01*
X2708630Y-14820484D02*
X2832440Y-14820484D01*
X3022916Y-14820484D02*
X2908630Y-14820484D01*
X2965773Y-14820484D02*
X2965773Y-14620484D01*
X2965773Y-14620484D02*
X2946726Y-14649055D01*
X2946726Y-14649055D02*
X2927678Y-14668103D01*
X2927678Y-14668103D02*
X2908630Y-14677627D01*
X3108630Y-14820484D02*
X3108630Y-14687150D01*
X3108630Y-14706198D02*
X3118154Y-14696674D01*
X3118154Y-14696674D02*
X3137202Y-14687150D01*
X3137202Y-14687150D02*
X3165773Y-14687150D01*
X3165773Y-14687150D02*
X3184821Y-14696674D01*
X3184821Y-14696674D02*
X3194345Y-14715722D01*
X3194345Y-14715722D02*
X3194345Y-14820484D01*
X3194345Y-14715722D02*
X3203868Y-14696674D01*
X3203868Y-14696674D02*
X3222916Y-14687150D01*
X3222916Y-14687150D02*
X3251487Y-14687150D01*
X3251487Y-14687150D02*
X3270535Y-14696674D01*
X3270535Y-14696674D02*
X3280059Y-14715722D01*
X3280059Y-14715722D02*
X3280059Y-14820484D01*
X3375297Y-14820484D02*
X3375297Y-14687150D01*
X3375297Y-14706198D02*
X3384821Y-14696674D01*
X3384821Y-14696674D02*
X3403868Y-14687150D01*
X3403868Y-14687150D02*
X3432440Y-14687150D01*
X3432440Y-14687150D02*
X3451488Y-14696674D01*
X3451488Y-14696674D02*
X3461011Y-14715722D01*
X3461011Y-14715722D02*
X3461011Y-14820484D01*
X3461011Y-14715722D02*
X3470535Y-14696674D01*
X3470535Y-14696674D02*
X3489583Y-14687150D01*
X3489583Y-14687150D02*
X3518154Y-14687150D01*
X3518154Y-14687150D02*
X3537202Y-14696674D01*
X3537202Y-14696674D02*
X3546726Y-14715722D01*
X3546726Y-14715722D02*
X3546726Y-14820484D01*
X3937202Y-14610960D02*
X3765773Y-14868103D01*
X4194345Y-14620484D02*
X4213393Y-14620484D01*
X4213393Y-14620484D02*
X4232440Y-14630008D01*
X4232440Y-14630008D02*
X4241964Y-14639531D01*
X4241964Y-14639531D02*
X4251488Y-14658579D01*
X4251488Y-14658579D02*
X4261012Y-14696674D01*
X4261012Y-14696674D02*
X4261012Y-14744293D01*
X4261012Y-14744293D02*
X4251488Y-14782388D01*
X4251488Y-14782388D02*
X4241964Y-14801436D01*
X4241964Y-14801436D02*
X4232440Y-14810960D01*
X4232440Y-14810960D02*
X4213393Y-14820484D01*
X4213393Y-14820484D02*
X4194345Y-14820484D01*
X4194345Y-14820484D02*
X4175297Y-14810960D01*
X4175297Y-14810960D02*
X4165773Y-14801436D01*
X4165773Y-14801436D02*
X4156250Y-14782388D01*
X4156250Y-14782388D02*
X4146726Y-14744293D01*
X4146726Y-14744293D02*
X4146726Y-14696674D01*
X4146726Y-14696674D02*
X4156250Y-14658579D01*
X4156250Y-14658579D02*
X4165773Y-14639531D01*
X4165773Y-14639531D02*
X4175297Y-14630008D01*
X4175297Y-14630008D02*
X4194345Y-14620484D01*
X4346726Y-14801436D02*
X4356250Y-14810960D01*
X4356250Y-14810960D02*
X4346726Y-14820484D01*
X4346726Y-14820484D02*
X4337202Y-14810960D01*
X4337202Y-14810960D02*
X4346726Y-14801436D01*
X4346726Y-14801436D02*
X4346726Y-14820484D01*
X4480059Y-14620484D02*
X4499107Y-14620484D01*
X4499107Y-14620484D02*
X4518154Y-14630008D01*
X4518154Y-14630008D02*
X4527678Y-14639531D01*
X4527678Y-14639531D02*
X4537202Y-14658579D01*
X4537202Y-14658579D02*
X4546726Y-14696674D01*
X4546726Y-14696674D02*
X4546726Y-14744293D01*
X4546726Y-14744293D02*
X4537202Y-14782388D01*
X4537202Y-14782388D02*
X4527678Y-14801436D01*
X4527678Y-14801436D02*
X4518154Y-14810960D01*
X4518154Y-14810960D02*
X4499107Y-14820484D01*
X4499107Y-14820484D02*
X4480059Y-14820484D01*
X4480059Y-14820484D02*
X4461012Y-14810960D01*
X4461012Y-14810960D02*
X4451488Y-14801436D01*
X4451488Y-14801436D02*
X4441964Y-14782388D01*
X4441964Y-14782388D02*
X4432440Y-14744293D01*
X4432440Y-14744293D02*
X4432440Y-14696674D01*
X4432440Y-14696674D02*
X4441964Y-14658579D01*
X4441964Y-14658579D02*
X4451488Y-14639531D01*
X4451488Y-14639531D02*
X4461012Y-14630008D01*
X4461012Y-14630008D02*
X4480059Y-14620484D01*
X4727678Y-14620484D02*
X4632440Y-14620484D01*
X4632440Y-14620484D02*
X4622916Y-14715722D01*
X4622916Y-14715722D02*
X4632440Y-14706198D01*
X4632440Y-14706198D02*
X4651488Y-14696674D01*
X4651488Y-14696674D02*
X4699107Y-14696674D01*
X4699107Y-14696674D02*
X4718154Y-14706198D01*
X4718154Y-14706198D02*
X4727678Y-14715722D01*
X4727678Y-14715722D02*
X4737202Y-14734769D01*
X4737202Y-14734769D02*
X4737202Y-14782388D01*
X4737202Y-14782388D02*
X4727678Y-14801436D01*
X4727678Y-14801436D02*
X4718154Y-14810960D01*
X4718154Y-14810960D02*
X4699107Y-14820484D01*
X4699107Y-14820484D02*
X4651488Y-14820484D01*
X4651488Y-14820484D02*
X4632440Y-14810960D01*
X4632440Y-14810960D02*
X4622916Y-14801436D01*
X4813393Y-14639531D02*
X4822916Y-14630008D01*
X4822916Y-14630008D02*
X4841964Y-14620484D01*
X4841964Y-14620484D02*
X4889583Y-14620484D01*
X4889583Y-14620484D02*
X4908631Y-14630008D01*
X4908631Y-14630008D02*
X4918154Y-14639531D01*
X4918154Y-14639531D02*
X4927678Y-14658579D01*
X4927678Y-14658579D02*
X4927678Y-14677627D01*
X4927678Y-14677627D02*
X4918154Y-14706198D01*
X4918154Y-14706198D02*
X4803869Y-14820484D01*
X4803869Y-14820484D02*
X4927678Y-14820484D01*
X5051488Y-14620484D02*
X5070535Y-14620484D01*
X5070535Y-14620484D02*
X5089583Y-14630008D01*
X5089583Y-14630008D02*
X5099107Y-14639531D01*
X5099107Y-14639531D02*
X5108631Y-14658579D01*
X5108631Y-14658579D02*
X5118154Y-14696674D01*
X5118154Y-14696674D02*
X5118154Y-14744293D01*
X5118154Y-14744293D02*
X5108631Y-14782388D01*
X5108631Y-14782388D02*
X5099107Y-14801436D01*
X5099107Y-14801436D02*
X5089583Y-14810960D01*
X5089583Y-14810960D02*
X5070535Y-14820484D01*
X5070535Y-14820484D02*
X5051488Y-14820484D01*
X5051488Y-14820484D02*
X5032440Y-14810960D01*
X5032440Y-14810960D02*
X5022916Y-14801436D01*
X5022916Y-14801436D02*
X5013393Y-14782388D01*
X5013393Y-14782388D02*
X5003869Y-14744293D01*
X5003869Y-14744293D02*
X5003869Y-14696674D01*
X5003869Y-14696674D02*
X5013393Y-14658579D01*
X5013393Y-14658579D02*
X5022916Y-14639531D01*
X5022916Y-14639531D02*
X5032440Y-14630008D01*
X5032440Y-14630008D02*
X5051488Y-14620484D01*
X5194345Y-14620484D02*
X5194345Y-14658579D01*
X5270535Y-14620484D02*
X5270535Y-14658579D01*
X5565774Y-14896674D02*
X5556250Y-14887150D01*
X5556250Y-14887150D02*
X5537202Y-14858579D01*
X5537202Y-14858579D02*
X5527678Y-14839531D01*
X5527678Y-14839531D02*
X5518155Y-14810960D01*
X5518155Y-14810960D02*
X5508631Y-14763341D01*
X5508631Y-14763341D02*
X5508631Y-14725246D01*
X5508631Y-14725246D02*
X5518155Y-14677627D01*
X5518155Y-14677627D02*
X5527678Y-14649055D01*
X5527678Y-14649055D02*
X5537202Y-14630008D01*
X5537202Y-14630008D02*
X5556250Y-14601436D01*
X5556250Y-14601436D02*
X5565774Y-14591912D01*
X5746726Y-14820484D02*
X5632440Y-14820484D01*
X5689583Y-14820484D02*
X5689583Y-14620484D01*
X5689583Y-14620484D02*
X5670535Y-14649055D01*
X5670535Y-14649055D02*
X5651488Y-14668103D01*
X5651488Y-14668103D02*
X5632440Y-14677627D01*
X5861012Y-14706198D02*
X5841964Y-14696674D01*
X5841964Y-14696674D02*
X5832440Y-14687150D01*
X5832440Y-14687150D02*
X5822916Y-14668103D01*
X5822916Y-14668103D02*
X5822916Y-14658579D01*
X5822916Y-14658579D02*
X5832440Y-14639531D01*
X5832440Y-14639531D02*
X5841964Y-14630008D01*
X5841964Y-14630008D02*
X5861012Y-14620484D01*
X5861012Y-14620484D02*
X5899107Y-14620484D01*
X5899107Y-14620484D02*
X5918154Y-14630008D01*
X5918154Y-14630008D02*
X5927678Y-14639531D01*
X5927678Y-14639531D02*
X5937202Y-14658579D01*
X5937202Y-14658579D02*
X5937202Y-14668103D01*
X5937202Y-14668103D02*
X5927678Y-14687150D01*
X5927678Y-14687150D02*
X5918154Y-14696674D01*
X5918154Y-14696674D02*
X5899107Y-14706198D01*
X5899107Y-14706198D02*
X5861012Y-14706198D01*
X5861012Y-14706198D02*
X5841964Y-14715722D01*
X5841964Y-14715722D02*
X5832440Y-14725246D01*
X5832440Y-14725246D02*
X5822916Y-14744293D01*
X5822916Y-14744293D02*
X5822916Y-14782388D01*
X5822916Y-14782388D02*
X5832440Y-14801436D01*
X5832440Y-14801436D02*
X5841964Y-14810960D01*
X5841964Y-14810960D02*
X5861012Y-14820484D01*
X5861012Y-14820484D02*
X5899107Y-14820484D01*
X5899107Y-14820484D02*
X5918154Y-14810960D01*
X5918154Y-14810960D02*
X5927678Y-14801436D01*
X5927678Y-14801436D02*
X5937202Y-14782388D01*
X5937202Y-14782388D02*
X5937202Y-14744293D01*
X5937202Y-14744293D02*
X5927678Y-14725246D01*
X5927678Y-14725246D02*
X5918154Y-14715722D01*
X5918154Y-14715722D02*
X5899107Y-14706198D01*
X6175297Y-14820484D02*
X6175297Y-14620484D01*
X6261012Y-14820484D02*
X6261012Y-14715722D01*
X6261012Y-14715722D02*
X6251488Y-14696674D01*
X6251488Y-14696674D02*
X6232440Y-14687150D01*
X6232440Y-14687150D02*
X6203869Y-14687150D01*
X6203869Y-14687150D02*
X6184821Y-14696674D01*
X6184821Y-14696674D02*
X6175297Y-14706198D01*
X6384821Y-14820484D02*
X6365774Y-14810960D01*
X6365774Y-14810960D02*
X6356250Y-14801436D01*
X6356250Y-14801436D02*
X6346726Y-14782388D01*
X6346726Y-14782388D02*
X6346726Y-14725246D01*
X6346726Y-14725246D02*
X6356250Y-14706198D01*
X6356250Y-14706198D02*
X6365774Y-14696674D01*
X6365774Y-14696674D02*
X6384821Y-14687150D01*
X6384821Y-14687150D02*
X6413393Y-14687150D01*
X6413393Y-14687150D02*
X6432440Y-14696674D01*
X6432440Y-14696674D02*
X6441964Y-14706198D01*
X6441964Y-14706198D02*
X6451488Y-14725246D01*
X6451488Y-14725246D02*
X6451488Y-14782388D01*
X6451488Y-14782388D02*
X6441964Y-14801436D01*
X6441964Y-14801436D02*
X6432440Y-14810960D01*
X6432440Y-14810960D02*
X6413393Y-14820484D01*
X6413393Y-14820484D02*
X6384821Y-14820484D01*
X6565774Y-14820484D02*
X6546726Y-14810960D01*
X6546726Y-14810960D02*
X6537202Y-14791912D01*
X6537202Y-14791912D02*
X6537202Y-14620484D01*
X6718155Y-14810960D02*
X6699107Y-14820484D01*
X6699107Y-14820484D02*
X6661012Y-14820484D01*
X6661012Y-14820484D02*
X6641964Y-14810960D01*
X6641964Y-14810960D02*
X6632440Y-14791912D01*
X6632440Y-14791912D02*
X6632440Y-14715722D01*
X6632440Y-14715722D02*
X6641964Y-14696674D01*
X6641964Y-14696674D02*
X6661012Y-14687150D01*
X6661012Y-14687150D02*
X6699107Y-14687150D01*
X6699107Y-14687150D02*
X6718155Y-14696674D01*
X6718155Y-14696674D02*
X6727678Y-14715722D01*
X6727678Y-14715722D02*
X6727678Y-14734769D01*
X6727678Y-14734769D02*
X6632440Y-14753817D01*
X6803869Y-14810960D02*
X6822916Y-14820484D01*
X6822916Y-14820484D02*
X6861012Y-14820484D01*
X6861012Y-14820484D02*
X6880059Y-14810960D01*
X6880059Y-14810960D02*
X6889583Y-14791912D01*
X6889583Y-14791912D02*
X6889583Y-14782388D01*
X6889583Y-14782388D02*
X6880059Y-14763341D01*
X6880059Y-14763341D02*
X6861012Y-14753817D01*
X6861012Y-14753817D02*
X6832440Y-14753817D01*
X6832440Y-14753817D02*
X6813393Y-14744293D01*
X6813393Y-14744293D02*
X6803869Y-14725246D01*
X6803869Y-14725246D02*
X6803869Y-14715722D01*
X6803869Y-14715722D02*
X6813393Y-14696674D01*
X6813393Y-14696674D02*
X6832440Y-14687150D01*
X6832440Y-14687150D02*
X6861012Y-14687150D01*
X6861012Y-14687150D02*
X6880059Y-14696674D01*
X6956250Y-14896674D02*
X6965774Y-14887150D01*
X6965774Y-14887150D02*
X6984821Y-14858579D01*
X6984821Y-14858579D02*
X6994345Y-14839531D01*
X6994345Y-14839531D02*
X7003869Y-14810960D01*
X7003869Y-14810960D02*
X7013393Y-14763341D01*
X7013393Y-14763341D02*
X7013393Y-14725246D01*
X7013393Y-14725246D02*
X7003869Y-14677627D01*
X7003869Y-14677627D02*
X6994345Y-14649055D01*
X6994345Y-14649055D02*
X6984821Y-14630008D01*
X6984821Y-14630008D02*
X6965774Y-14601436D01*
X6965774Y-14601436D02*
X6956250Y-14591912D01*
D17*
X1850711Y-14923000D02*
X1990711Y-15063000D01*
X1990711Y-14923000D02*
X1850711Y-15063000D01*
X1970209Y-15042498D02*
X1970209Y-14943502D01*
X1871213Y-14943502D01*
X1871213Y-15042498D01*
X1970209Y-15042498D01*
D11*
X2356249Y-15084484D02*
X2241964Y-15084484D01*
X2299107Y-15084484D02*
X2299107Y-14884484D01*
X2299107Y-14884484D02*
X2280059Y-14913055D01*
X2280059Y-14913055D02*
X2261011Y-14932103D01*
X2261011Y-14932103D02*
X2241964Y-14941627D01*
X2441964Y-15065436D02*
X2451488Y-15074960D01*
X2451488Y-15074960D02*
X2441964Y-15084484D01*
X2441964Y-15084484D02*
X2432440Y-15074960D01*
X2432440Y-15074960D02*
X2441964Y-15065436D01*
X2441964Y-15065436D02*
X2441964Y-15084484D01*
X2622916Y-14951150D02*
X2622916Y-15084484D01*
X2575297Y-14874960D02*
X2527678Y-15017817D01*
X2527678Y-15017817D02*
X2651488Y-15017817D01*
X2765773Y-14884484D02*
X2784821Y-14884484D01*
X2784821Y-14884484D02*
X2803868Y-14894008D01*
X2803868Y-14894008D02*
X2813392Y-14903531D01*
X2813392Y-14903531D02*
X2822916Y-14922579D01*
X2822916Y-14922579D02*
X2832440Y-14960674D01*
X2832440Y-14960674D02*
X2832440Y-15008293D01*
X2832440Y-15008293D02*
X2822916Y-15046388D01*
X2822916Y-15046388D02*
X2813392Y-15065436D01*
X2813392Y-15065436D02*
X2803868Y-15074960D01*
X2803868Y-15074960D02*
X2784821Y-15084484D01*
X2784821Y-15084484D02*
X2765773Y-15084484D01*
X2765773Y-15084484D02*
X2746726Y-15074960D01*
X2746726Y-15074960D02*
X2737202Y-15065436D01*
X2737202Y-15065436D02*
X2727678Y-15046388D01*
X2727678Y-15046388D02*
X2718154Y-15008293D01*
X2718154Y-15008293D02*
X2718154Y-14960674D01*
X2718154Y-14960674D02*
X2727678Y-14922579D01*
X2727678Y-14922579D02*
X2737202Y-14903531D01*
X2737202Y-14903531D02*
X2746726Y-14894008D01*
X2746726Y-14894008D02*
X2765773Y-14884484D01*
X2956249Y-14884484D02*
X2975297Y-14884484D01*
X2975297Y-14884484D02*
X2994345Y-14894008D01*
X2994345Y-14894008D02*
X3003868Y-14903531D01*
X3003868Y-14903531D02*
X3013392Y-14922579D01*
X3013392Y-14922579D02*
X3022916Y-14960674D01*
X3022916Y-14960674D02*
X3022916Y-15008293D01*
X3022916Y-15008293D02*
X3013392Y-15046388D01*
X3013392Y-15046388D02*
X3003868Y-15065436D01*
X3003868Y-15065436D02*
X2994345Y-15074960D01*
X2994345Y-15074960D02*
X2975297Y-15084484D01*
X2975297Y-15084484D02*
X2956249Y-15084484D01*
X2956249Y-15084484D02*
X2937202Y-15074960D01*
X2937202Y-15074960D02*
X2927678Y-15065436D01*
X2927678Y-15065436D02*
X2918154Y-15046388D01*
X2918154Y-15046388D02*
X2908630Y-15008293D01*
X2908630Y-15008293D02*
X2908630Y-14960674D01*
X2908630Y-14960674D02*
X2918154Y-14922579D01*
X2918154Y-14922579D02*
X2927678Y-14903531D01*
X2927678Y-14903531D02*
X2937202Y-14894008D01*
X2937202Y-14894008D02*
X2956249Y-14884484D01*
X3108630Y-15084484D02*
X3108630Y-14951150D01*
X3108630Y-14970198D02*
X3118154Y-14960674D01*
X3118154Y-14960674D02*
X3137202Y-14951150D01*
X3137202Y-14951150D02*
X3165773Y-14951150D01*
X3165773Y-14951150D02*
X3184821Y-14960674D01*
X3184821Y-14960674D02*
X3194345Y-14979722D01*
X3194345Y-14979722D02*
X3194345Y-15084484D01*
X3194345Y-14979722D02*
X3203868Y-14960674D01*
X3203868Y-14960674D02*
X3222916Y-14951150D01*
X3222916Y-14951150D02*
X3251487Y-14951150D01*
X3251487Y-14951150D02*
X3270535Y-14960674D01*
X3270535Y-14960674D02*
X3280059Y-14979722D01*
X3280059Y-14979722D02*
X3280059Y-15084484D01*
X3375297Y-15084484D02*
X3375297Y-14951150D01*
X3375297Y-14970198D02*
X3384821Y-14960674D01*
X3384821Y-14960674D02*
X3403868Y-14951150D01*
X3403868Y-14951150D02*
X3432440Y-14951150D01*
X3432440Y-14951150D02*
X3451488Y-14960674D01*
X3451488Y-14960674D02*
X3461011Y-14979722D01*
X3461011Y-14979722D02*
X3461011Y-15084484D01*
X3461011Y-14979722D02*
X3470535Y-14960674D01*
X3470535Y-14960674D02*
X3489583Y-14951150D01*
X3489583Y-14951150D02*
X3518154Y-14951150D01*
X3518154Y-14951150D02*
X3537202Y-14960674D01*
X3537202Y-14960674D02*
X3546726Y-14979722D01*
X3546726Y-14979722D02*
X3546726Y-15084484D01*
X3937202Y-14874960D02*
X3765773Y-15132103D01*
X4194345Y-14884484D02*
X4213393Y-14884484D01*
X4213393Y-14884484D02*
X4232440Y-14894008D01*
X4232440Y-14894008D02*
X4241964Y-14903531D01*
X4241964Y-14903531D02*
X4251488Y-14922579D01*
X4251488Y-14922579D02*
X4261012Y-14960674D01*
X4261012Y-14960674D02*
X4261012Y-15008293D01*
X4261012Y-15008293D02*
X4251488Y-15046388D01*
X4251488Y-15046388D02*
X4241964Y-15065436D01*
X4241964Y-15065436D02*
X4232440Y-15074960D01*
X4232440Y-15074960D02*
X4213393Y-15084484D01*
X4213393Y-15084484D02*
X4194345Y-15084484D01*
X4194345Y-15084484D02*
X4175297Y-15074960D01*
X4175297Y-15074960D02*
X4165773Y-15065436D01*
X4165773Y-15065436D02*
X4156250Y-15046388D01*
X4156250Y-15046388D02*
X4146726Y-15008293D01*
X4146726Y-15008293D02*
X4146726Y-14960674D01*
X4146726Y-14960674D02*
X4156250Y-14922579D01*
X4156250Y-14922579D02*
X4165773Y-14903531D01*
X4165773Y-14903531D02*
X4175297Y-14894008D01*
X4175297Y-14894008D02*
X4194345Y-14884484D01*
X4346726Y-15065436D02*
X4356250Y-15074960D01*
X4356250Y-15074960D02*
X4346726Y-15084484D01*
X4346726Y-15084484D02*
X4337202Y-15074960D01*
X4337202Y-15074960D02*
X4346726Y-15065436D01*
X4346726Y-15065436D02*
X4346726Y-15084484D01*
X4480059Y-14884484D02*
X4499107Y-14884484D01*
X4499107Y-14884484D02*
X4518154Y-14894008D01*
X4518154Y-14894008D02*
X4527678Y-14903531D01*
X4527678Y-14903531D02*
X4537202Y-14922579D01*
X4537202Y-14922579D02*
X4546726Y-14960674D01*
X4546726Y-14960674D02*
X4546726Y-15008293D01*
X4546726Y-15008293D02*
X4537202Y-15046388D01*
X4537202Y-15046388D02*
X4527678Y-15065436D01*
X4527678Y-15065436D02*
X4518154Y-15074960D01*
X4518154Y-15074960D02*
X4499107Y-15084484D01*
X4499107Y-15084484D02*
X4480059Y-15084484D01*
X4480059Y-15084484D02*
X4461012Y-15074960D01*
X4461012Y-15074960D02*
X4451488Y-15065436D01*
X4451488Y-15065436D02*
X4441964Y-15046388D01*
X4441964Y-15046388D02*
X4432440Y-15008293D01*
X4432440Y-15008293D02*
X4432440Y-14960674D01*
X4432440Y-14960674D02*
X4441964Y-14922579D01*
X4441964Y-14922579D02*
X4451488Y-14903531D01*
X4451488Y-14903531D02*
X4461012Y-14894008D01*
X4461012Y-14894008D02*
X4480059Y-14884484D01*
X4727678Y-14884484D02*
X4632440Y-14884484D01*
X4632440Y-14884484D02*
X4622916Y-14979722D01*
X4622916Y-14979722D02*
X4632440Y-14970198D01*
X4632440Y-14970198D02*
X4651488Y-14960674D01*
X4651488Y-14960674D02*
X4699107Y-14960674D01*
X4699107Y-14960674D02*
X4718154Y-14970198D01*
X4718154Y-14970198D02*
X4727678Y-14979722D01*
X4727678Y-14979722D02*
X4737202Y-14998769D01*
X4737202Y-14998769D02*
X4737202Y-15046388D01*
X4737202Y-15046388D02*
X4727678Y-15065436D01*
X4727678Y-15065436D02*
X4718154Y-15074960D01*
X4718154Y-15074960D02*
X4699107Y-15084484D01*
X4699107Y-15084484D02*
X4651488Y-15084484D01*
X4651488Y-15084484D02*
X4632440Y-15074960D01*
X4632440Y-15074960D02*
X4622916Y-15065436D01*
X4918154Y-14884484D02*
X4822916Y-14884484D01*
X4822916Y-14884484D02*
X4813393Y-14979722D01*
X4813393Y-14979722D02*
X4822916Y-14970198D01*
X4822916Y-14970198D02*
X4841964Y-14960674D01*
X4841964Y-14960674D02*
X4889583Y-14960674D01*
X4889583Y-14960674D02*
X4908631Y-14970198D01*
X4908631Y-14970198D02*
X4918154Y-14979722D01*
X4918154Y-14979722D02*
X4927678Y-14998769D01*
X4927678Y-14998769D02*
X4927678Y-15046388D01*
X4927678Y-15046388D02*
X4918154Y-15065436D01*
X4918154Y-15065436D02*
X4908631Y-15074960D01*
X4908631Y-15074960D02*
X4889583Y-15084484D01*
X4889583Y-15084484D02*
X4841964Y-15084484D01*
X4841964Y-15084484D02*
X4822916Y-15074960D01*
X4822916Y-15074960D02*
X4813393Y-15065436D01*
X5118154Y-15084484D02*
X5003869Y-15084484D01*
X5061012Y-15084484D02*
X5061012Y-14884484D01*
X5061012Y-14884484D02*
X5041964Y-14913055D01*
X5041964Y-14913055D02*
X5022916Y-14932103D01*
X5022916Y-14932103D02*
X5003869Y-14941627D01*
X5194345Y-14884484D02*
X5194345Y-14922579D01*
X5270535Y-14884484D02*
X5270535Y-14922579D01*
X5565774Y-15160674D02*
X5556250Y-15151150D01*
X5556250Y-15151150D02*
X5537202Y-15122579D01*
X5537202Y-15122579D02*
X5527678Y-15103531D01*
X5527678Y-15103531D02*
X5518155Y-15074960D01*
X5518155Y-15074960D02*
X5508631Y-15027341D01*
X5508631Y-15027341D02*
X5508631Y-14989246D01*
X5508631Y-14989246D02*
X5518155Y-14941627D01*
X5518155Y-14941627D02*
X5527678Y-14913055D01*
X5527678Y-14913055D02*
X5537202Y-14894008D01*
X5537202Y-14894008D02*
X5556250Y-14865436D01*
X5556250Y-14865436D02*
X5565774Y-14855912D01*
X5622916Y-14884484D02*
X5746726Y-14884484D01*
X5746726Y-14884484D02*
X5680059Y-14960674D01*
X5680059Y-14960674D02*
X5708631Y-14960674D01*
X5708631Y-14960674D02*
X5727678Y-14970198D01*
X5727678Y-14970198D02*
X5737202Y-14979722D01*
X5737202Y-14979722D02*
X5746726Y-14998769D01*
X5746726Y-14998769D02*
X5746726Y-15046388D01*
X5746726Y-15046388D02*
X5737202Y-15065436D01*
X5737202Y-15065436D02*
X5727678Y-15074960D01*
X5727678Y-15074960D02*
X5708631Y-15084484D01*
X5708631Y-15084484D02*
X5651488Y-15084484D01*
X5651488Y-15084484D02*
X5632440Y-15074960D01*
X5632440Y-15074960D02*
X5622916Y-15065436D01*
X5870535Y-14884484D02*
X5889583Y-14884484D01*
X5889583Y-14884484D02*
X5908631Y-14894008D01*
X5908631Y-14894008D02*
X5918154Y-14903531D01*
X5918154Y-14903531D02*
X5927678Y-14922579D01*
X5927678Y-14922579D02*
X5937202Y-14960674D01*
X5937202Y-14960674D02*
X5937202Y-15008293D01*
X5937202Y-15008293D02*
X5927678Y-15046388D01*
X5927678Y-15046388D02*
X5918154Y-15065436D01*
X5918154Y-15065436D02*
X5908631Y-15074960D01*
X5908631Y-15074960D02*
X5889583Y-15084484D01*
X5889583Y-15084484D02*
X5870535Y-15084484D01*
X5870535Y-15084484D02*
X5851488Y-15074960D01*
X5851488Y-15074960D02*
X5841964Y-15065436D01*
X5841964Y-15065436D02*
X5832440Y-15046388D01*
X5832440Y-15046388D02*
X5822916Y-15008293D01*
X5822916Y-15008293D02*
X5822916Y-14960674D01*
X5822916Y-14960674D02*
X5832440Y-14922579D01*
X5832440Y-14922579D02*
X5841964Y-14903531D01*
X5841964Y-14903531D02*
X5851488Y-14894008D01*
X5851488Y-14894008D02*
X5870535Y-14884484D01*
X6175297Y-15084484D02*
X6175297Y-14884484D01*
X6261012Y-15084484D02*
X6261012Y-14979722D01*
X6261012Y-14979722D02*
X6251488Y-14960674D01*
X6251488Y-14960674D02*
X6232440Y-14951150D01*
X6232440Y-14951150D02*
X6203869Y-14951150D01*
X6203869Y-14951150D02*
X6184821Y-14960674D01*
X6184821Y-14960674D02*
X6175297Y-14970198D01*
X6384821Y-15084484D02*
X6365774Y-15074960D01*
X6365774Y-15074960D02*
X6356250Y-15065436D01*
X6356250Y-15065436D02*
X6346726Y-15046388D01*
X6346726Y-15046388D02*
X6346726Y-14989246D01*
X6346726Y-14989246D02*
X6356250Y-14970198D01*
X6356250Y-14970198D02*
X6365774Y-14960674D01*
X6365774Y-14960674D02*
X6384821Y-14951150D01*
X6384821Y-14951150D02*
X6413393Y-14951150D01*
X6413393Y-14951150D02*
X6432440Y-14960674D01*
X6432440Y-14960674D02*
X6441964Y-14970198D01*
X6441964Y-14970198D02*
X6451488Y-14989246D01*
X6451488Y-14989246D02*
X6451488Y-15046388D01*
X6451488Y-15046388D02*
X6441964Y-15065436D01*
X6441964Y-15065436D02*
X6432440Y-15074960D01*
X6432440Y-15074960D02*
X6413393Y-15084484D01*
X6413393Y-15084484D02*
X6384821Y-15084484D01*
X6565774Y-15084484D02*
X6546726Y-15074960D01*
X6546726Y-15074960D02*
X6537202Y-15055912D01*
X6537202Y-15055912D02*
X6537202Y-14884484D01*
X6718155Y-15074960D02*
X6699107Y-15084484D01*
X6699107Y-15084484D02*
X6661012Y-15084484D01*
X6661012Y-15084484D02*
X6641964Y-15074960D01*
X6641964Y-15074960D02*
X6632440Y-15055912D01*
X6632440Y-15055912D02*
X6632440Y-14979722D01*
X6632440Y-14979722D02*
X6641964Y-14960674D01*
X6641964Y-14960674D02*
X6661012Y-14951150D01*
X6661012Y-14951150D02*
X6699107Y-14951150D01*
X6699107Y-14951150D02*
X6718155Y-14960674D01*
X6718155Y-14960674D02*
X6727678Y-14979722D01*
X6727678Y-14979722D02*
X6727678Y-14998769D01*
X6727678Y-14998769D02*
X6632440Y-15017817D01*
X6803869Y-15074960D02*
X6822916Y-15084484D01*
X6822916Y-15084484D02*
X6861012Y-15084484D01*
X6861012Y-15084484D02*
X6880059Y-15074960D01*
X6880059Y-15074960D02*
X6889583Y-15055912D01*
X6889583Y-15055912D02*
X6889583Y-15046388D01*
X6889583Y-15046388D02*
X6880059Y-15027341D01*
X6880059Y-15027341D02*
X6861012Y-15017817D01*
X6861012Y-15017817D02*
X6832440Y-15017817D01*
X6832440Y-15017817D02*
X6813393Y-15008293D01*
X6813393Y-15008293D02*
X6803869Y-14989246D01*
X6803869Y-14989246D02*
X6803869Y-14979722D01*
X6803869Y-14979722D02*
X6813393Y-14960674D01*
X6813393Y-14960674D02*
X6832440Y-14951150D01*
X6832440Y-14951150D02*
X6861012Y-14951150D01*
X6861012Y-14951150D02*
X6880059Y-14960674D01*
X6956250Y-15160674D02*
X6965774Y-15151150D01*
X6965774Y-15151150D02*
X6984821Y-15122579D01*
X6984821Y-15122579D02*
X6994345Y-15103531D01*
X6994345Y-15103531D02*
X7003869Y-15074960D01*
X7003869Y-15074960D02*
X7013393Y-15027341D01*
X7013393Y-15027341D02*
X7013393Y-14989246D01*
X7013393Y-14989246D02*
X7003869Y-14941627D01*
X7003869Y-14941627D02*
X6994345Y-14913055D01*
X6994345Y-14913055D02*
X6984821Y-14894008D01*
X6984821Y-14894008D02*
X6965774Y-14865436D01*
X6965774Y-14865436D02*
X6956250Y-14855912D01*
D18*
X1840711Y-15182000D02*
X1990711Y-15332000D01*
X1990711Y-15182000D02*
X1840711Y-15332000D01*
X1915711Y-15332000D02*
X1990711Y-15257000D01*
X1915711Y-15182000D01*
X1840711Y-15257000D01*
X1915711Y-15332000D01*
D11*
X2356249Y-15348484D02*
X2241964Y-15348484D01*
X2299107Y-15348484D02*
X2299107Y-15148484D01*
X2299107Y-15148484D02*
X2280059Y-15177055D01*
X2280059Y-15177055D02*
X2261011Y-15196103D01*
X2261011Y-15196103D02*
X2241964Y-15205627D01*
X2441964Y-15329436D02*
X2451488Y-15338960D01*
X2451488Y-15338960D02*
X2441964Y-15348484D01*
X2441964Y-15348484D02*
X2432440Y-15338960D01*
X2432440Y-15338960D02*
X2441964Y-15329436D01*
X2441964Y-15329436D02*
X2441964Y-15348484D01*
X2632440Y-15148484D02*
X2537202Y-15148484D01*
X2537202Y-15148484D02*
X2527678Y-15243722D01*
X2527678Y-15243722D02*
X2537202Y-15234198D01*
X2537202Y-15234198D02*
X2556249Y-15224674D01*
X2556249Y-15224674D02*
X2603869Y-15224674D01*
X2603869Y-15224674D02*
X2622916Y-15234198D01*
X2622916Y-15234198D02*
X2632440Y-15243722D01*
X2632440Y-15243722D02*
X2641964Y-15262769D01*
X2641964Y-15262769D02*
X2641964Y-15310388D01*
X2641964Y-15310388D02*
X2632440Y-15329436D01*
X2632440Y-15329436D02*
X2622916Y-15338960D01*
X2622916Y-15338960D02*
X2603869Y-15348484D01*
X2603869Y-15348484D02*
X2556249Y-15348484D01*
X2556249Y-15348484D02*
X2537202Y-15338960D01*
X2537202Y-15338960D02*
X2527678Y-15329436D01*
X2765773Y-15148484D02*
X2784821Y-15148484D01*
X2784821Y-15148484D02*
X2803868Y-15158008D01*
X2803868Y-15158008D02*
X2813392Y-15167531D01*
X2813392Y-15167531D02*
X2822916Y-15186579D01*
X2822916Y-15186579D02*
X2832440Y-15224674D01*
X2832440Y-15224674D02*
X2832440Y-15272293D01*
X2832440Y-15272293D02*
X2822916Y-15310388D01*
X2822916Y-15310388D02*
X2813392Y-15329436D01*
X2813392Y-15329436D02*
X2803868Y-15338960D01*
X2803868Y-15338960D02*
X2784821Y-15348484D01*
X2784821Y-15348484D02*
X2765773Y-15348484D01*
X2765773Y-15348484D02*
X2746726Y-15338960D01*
X2746726Y-15338960D02*
X2737202Y-15329436D01*
X2737202Y-15329436D02*
X2727678Y-15310388D01*
X2727678Y-15310388D02*
X2718154Y-15272293D01*
X2718154Y-15272293D02*
X2718154Y-15224674D01*
X2718154Y-15224674D02*
X2727678Y-15186579D01*
X2727678Y-15186579D02*
X2737202Y-15167531D01*
X2737202Y-15167531D02*
X2746726Y-15158008D01*
X2746726Y-15158008D02*
X2765773Y-15148484D01*
X2956249Y-15148484D02*
X2975297Y-15148484D01*
X2975297Y-15148484D02*
X2994345Y-15158008D01*
X2994345Y-15158008D02*
X3003868Y-15167531D01*
X3003868Y-15167531D02*
X3013392Y-15186579D01*
X3013392Y-15186579D02*
X3022916Y-15224674D01*
X3022916Y-15224674D02*
X3022916Y-15272293D01*
X3022916Y-15272293D02*
X3013392Y-15310388D01*
X3013392Y-15310388D02*
X3003868Y-15329436D01*
X3003868Y-15329436D02*
X2994345Y-15338960D01*
X2994345Y-15338960D02*
X2975297Y-15348484D01*
X2975297Y-15348484D02*
X2956249Y-15348484D01*
X2956249Y-15348484D02*
X2937202Y-15338960D01*
X2937202Y-15338960D02*
X2927678Y-15329436D01*
X2927678Y-15329436D02*
X2918154Y-15310388D01*
X2918154Y-15310388D02*
X2908630Y-15272293D01*
X2908630Y-15272293D02*
X2908630Y-15224674D01*
X2908630Y-15224674D02*
X2918154Y-15186579D01*
X2918154Y-15186579D02*
X2927678Y-15167531D01*
X2927678Y-15167531D02*
X2937202Y-15158008D01*
X2937202Y-15158008D02*
X2956249Y-15148484D01*
X3108630Y-15348484D02*
X3108630Y-15215150D01*
X3108630Y-15234198D02*
X3118154Y-15224674D01*
X3118154Y-15224674D02*
X3137202Y-15215150D01*
X3137202Y-15215150D02*
X3165773Y-15215150D01*
X3165773Y-15215150D02*
X3184821Y-15224674D01*
X3184821Y-15224674D02*
X3194345Y-15243722D01*
X3194345Y-15243722D02*
X3194345Y-15348484D01*
X3194345Y-15243722D02*
X3203868Y-15224674D01*
X3203868Y-15224674D02*
X3222916Y-15215150D01*
X3222916Y-15215150D02*
X3251487Y-15215150D01*
X3251487Y-15215150D02*
X3270535Y-15224674D01*
X3270535Y-15224674D02*
X3280059Y-15243722D01*
X3280059Y-15243722D02*
X3280059Y-15348484D01*
X3375297Y-15348484D02*
X3375297Y-15215150D01*
X3375297Y-15234198D02*
X3384821Y-15224674D01*
X3384821Y-15224674D02*
X3403868Y-15215150D01*
X3403868Y-15215150D02*
X3432440Y-15215150D01*
X3432440Y-15215150D02*
X3451488Y-15224674D01*
X3451488Y-15224674D02*
X3461011Y-15243722D01*
X3461011Y-15243722D02*
X3461011Y-15348484D01*
X3461011Y-15243722D02*
X3470535Y-15224674D01*
X3470535Y-15224674D02*
X3489583Y-15215150D01*
X3489583Y-15215150D02*
X3518154Y-15215150D01*
X3518154Y-15215150D02*
X3537202Y-15224674D01*
X3537202Y-15224674D02*
X3546726Y-15243722D01*
X3546726Y-15243722D02*
X3546726Y-15348484D01*
X3937202Y-15138960D02*
X3765773Y-15396103D01*
X4194345Y-15148484D02*
X4213393Y-15148484D01*
X4213393Y-15148484D02*
X4232440Y-15158008D01*
X4232440Y-15158008D02*
X4241964Y-15167531D01*
X4241964Y-15167531D02*
X4251488Y-15186579D01*
X4251488Y-15186579D02*
X4261012Y-15224674D01*
X4261012Y-15224674D02*
X4261012Y-15272293D01*
X4261012Y-15272293D02*
X4251488Y-15310388D01*
X4251488Y-15310388D02*
X4241964Y-15329436D01*
X4241964Y-15329436D02*
X4232440Y-15338960D01*
X4232440Y-15338960D02*
X4213393Y-15348484D01*
X4213393Y-15348484D02*
X4194345Y-15348484D01*
X4194345Y-15348484D02*
X4175297Y-15338960D01*
X4175297Y-15338960D02*
X4165773Y-15329436D01*
X4165773Y-15329436D02*
X4156250Y-15310388D01*
X4156250Y-15310388D02*
X4146726Y-15272293D01*
X4146726Y-15272293D02*
X4146726Y-15224674D01*
X4146726Y-15224674D02*
X4156250Y-15186579D01*
X4156250Y-15186579D02*
X4165773Y-15167531D01*
X4165773Y-15167531D02*
X4175297Y-15158008D01*
X4175297Y-15158008D02*
X4194345Y-15148484D01*
X4346726Y-15329436D02*
X4356250Y-15338960D01*
X4356250Y-15338960D02*
X4346726Y-15348484D01*
X4346726Y-15348484D02*
X4337202Y-15338960D01*
X4337202Y-15338960D02*
X4346726Y-15329436D01*
X4346726Y-15329436D02*
X4346726Y-15348484D01*
X4480059Y-15148484D02*
X4499107Y-15148484D01*
X4499107Y-15148484D02*
X4518154Y-15158008D01*
X4518154Y-15158008D02*
X4527678Y-15167531D01*
X4527678Y-15167531D02*
X4537202Y-15186579D01*
X4537202Y-15186579D02*
X4546726Y-15224674D01*
X4546726Y-15224674D02*
X4546726Y-15272293D01*
X4546726Y-15272293D02*
X4537202Y-15310388D01*
X4537202Y-15310388D02*
X4527678Y-15329436D01*
X4527678Y-15329436D02*
X4518154Y-15338960D01*
X4518154Y-15338960D02*
X4499107Y-15348484D01*
X4499107Y-15348484D02*
X4480059Y-15348484D01*
X4480059Y-15348484D02*
X4461012Y-15338960D01*
X4461012Y-15338960D02*
X4451488Y-15329436D01*
X4451488Y-15329436D02*
X4441964Y-15310388D01*
X4441964Y-15310388D02*
X4432440Y-15272293D01*
X4432440Y-15272293D02*
X4432440Y-15224674D01*
X4432440Y-15224674D02*
X4441964Y-15186579D01*
X4441964Y-15186579D02*
X4451488Y-15167531D01*
X4451488Y-15167531D02*
X4461012Y-15158008D01*
X4461012Y-15158008D02*
X4480059Y-15148484D01*
X4727678Y-15148484D02*
X4632440Y-15148484D01*
X4632440Y-15148484D02*
X4622916Y-15243722D01*
X4622916Y-15243722D02*
X4632440Y-15234198D01*
X4632440Y-15234198D02*
X4651488Y-15224674D01*
X4651488Y-15224674D02*
X4699107Y-15224674D01*
X4699107Y-15224674D02*
X4718154Y-15234198D01*
X4718154Y-15234198D02*
X4727678Y-15243722D01*
X4727678Y-15243722D02*
X4737202Y-15262769D01*
X4737202Y-15262769D02*
X4737202Y-15310388D01*
X4737202Y-15310388D02*
X4727678Y-15329436D01*
X4727678Y-15329436D02*
X4718154Y-15338960D01*
X4718154Y-15338960D02*
X4699107Y-15348484D01*
X4699107Y-15348484D02*
X4651488Y-15348484D01*
X4651488Y-15348484D02*
X4632440Y-15338960D01*
X4632440Y-15338960D02*
X4622916Y-15329436D01*
X4832440Y-15348484D02*
X4870535Y-15348484D01*
X4870535Y-15348484D02*
X4889583Y-15338960D01*
X4889583Y-15338960D02*
X4899107Y-15329436D01*
X4899107Y-15329436D02*
X4918154Y-15300865D01*
X4918154Y-15300865D02*
X4927678Y-15262769D01*
X4927678Y-15262769D02*
X4927678Y-15186579D01*
X4927678Y-15186579D02*
X4918154Y-15167531D01*
X4918154Y-15167531D02*
X4908631Y-15158008D01*
X4908631Y-15158008D02*
X4889583Y-15148484D01*
X4889583Y-15148484D02*
X4851488Y-15148484D01*
X4851488Y-15148484D02*
X4832440Y-15158008D01*
X4832440Y-15158008D02*
X4822916Y-15167531D01*
X4822916Y-15167531D02*
X4813393Y-15186579D01*
X4813393Y-15186579D02*
X4813393Y-15234198D01*
X4813393Y-15234198D02*
X4822916Y-15253246D01*
X4822916Y-15253246D02*
X4832440Y-15262769D01*
X4832440Y-15262769D02*
X4851488Y-15272293D01*
X4851488Y-15272293D02*
X4889583Y-15272293D01*
X4889583Y-15272293D02*
X4908631Y-15262769D01*
X4908631Y-15262769D02*
X4918154Y-15253246D01*
X4918154Y-15253246D02*
X4927678Y-15234198D01*
X5118154Y-15348484D02*
X5003869Y-15348484D01*
X5061012Y-15348484D02*
X5061012Y-15148484D01*
X5061012Y-15148484D02*
X5041964Y-15177055D01*
X5041964Y-15177055D02*
X5022916Y-15196103D01*
X5022916Y-15196103D02*
X5003869Y-15205627D01*
X5194345Y-15148484D02*
X5194345Y-15186579D01*
X5270535Y-15148484D02*
X5270535Y-15186579D01*
X5565774Y-15424674D02*
X5556250Y-15415150D01*
X5556250Y-15415150D02*
X5537202Y-15386579D01*
X5537202Y-15386579D02*
X5527678Y-15367531D01*
X5527678Y-15367531D02*
X5518155Y-15338960D01*
X5518155Y-15338960D02*
X5508631Y-15291341D01*
X5508631Y-15291341D02*
X5508631Y-15253246D01*
X5508631Y-15253246D02*
X5518155Y-15205627D01*
X5518155Y-15205627D02*
X5527678Y-15177055D01*
X5527678Y-15177055D02*
X5537202Y-15158008D01*
X5537202Y-15158008D02*
X5556250Y-15129436D01*
X5556250Y-15129436D02*
X5565774Y-15119912D01*
X5727678Y-15148484D02*
X5689583Y-15148484D01*
X5689583Y-15148484D02*
X5670535Y-15158008D01*
X5670535Y-15158008D02*
X5661012Y-15167531D01*
X5661012Y-15167531D02*
X5641964Y-15196103D01*
X5641964Y-15196103D02*
X5632440Y-15234198D01*
X5632440Y-15234198D02*
X5632440Y-15310388D01*
X5632440Y-15310388D02*
X5641964Y-15329436D01*
X5641964Y-15329436D02*
X5651488Y-15338960D01*
X5651488Y-15338960D02*
X5670535Y-15348484D01*
X5670535Y-15348484D02*
X5708631Y-15348484D01*
X5708631Y-15348484D02*
X5727678Y-15338960D01*
X5727678Y-15338960D02*
X5737202Y-15329436D01*
X5737202Y-15329436D02*
X5746726Y-15310388D01*
X5746726Y-15310388D02*
X5746726Y-15262769D01*
X5746726Y-15262769D02*
X5737202Y-15243722D01*
X5737202Y-15243722D02*
X5727678Y-15234198D01*
X5727678Y-15234198D02*
X5708631Y-15224674D01*
X5708631Y-15224674D02*
X5670535Y-15224674D01*
X5670535Y-15224674D02*
X5651488Y-15234198D01*
X5651488Y-15234198D02*
X5641964Y-15243722D01*
X5641964Y-15243722D02*
X5632440Y-15262769D01*
X5984821Y-15348484D02*
X5984821Y-15148484D01*
X6070535Y-15348484D02*
X6070535Y-15243722D01*
X6070535Y-15243722D02*
X6061012Y-15224674D01*
X6061012Y-15224674D02*
X6041964Y-15215150D01*
X6041964Y-15215150D02*
X6013393Y-15215150D01*
X6013393Y-15215150D02*
X5994345Y-15224674D01*
X5994345Y-15224674D02*
X5984821Y-15234198D01*
X6194345Y-15348484D02*
X6175297Y-15338960D01*
X6175297Y-15338960D02*
X6165774Y-15329436D01*
X6165774Y-15329436D02*
X6156250Y-15310388D01*
X6156250Y-15310388D02*
X6156250Y-15253246D01*
X6156250Y-15253246D02*
X6165774Y-15234198D01*
X6165774Y-15234198D02*
X6175297Y-15224674D01*
X6175297Y-15224674D02*
X6194345Y-15215150D01*
X6194345Y-15215150D02*
X6222916Y-15215150D01*
X6222916Y-15215150D02*
X6241964Y-15224674D01*
X6241964Y-15224674D02*
X6251488Y-15234198D01*
X6251488Y-15234198D02*
X6261012Y-15253246D01*
X6261012Y-15253246D02*
X6261012Y-15310388D01*
X6261012Y-15310388D02*
X6251488Y-15329436D01*
X6251488Y-15329436D02*
X6241964Y-15338960D01*
X6241964Y-15338960D02*
X6222916Y-15348484D01*
X6222916Y-15348484D02*
X6194345Y-15348484D01*
X6375297Y-15348484D02*
X6356250Y-15338960D01*
X6356250Y-15338960D02*
X6346726Y-15319912D01*
X6346726Y-15319912D02*
X6346726Y-15148484D01*
X6527678Y-15338960D02*
X6508631Y-15348484D01*
X6508631Y-15348484D02*
X6470535Y-15348484D01*
X6470535Y-15348484D02*
X6451488Y-15338960D01*
X6451488Y-15338960D02*
X6441964Y-15319912D01*
X6441964Y-15319912D02*
X6441964Y-15243722D01*
X6441964Y-15243722D02*
X6451488Y-15224674D01*
X6451488Y-15224674D02*
X6470535Y-15215150D01*
X6470535Y-15215150D02*
X6508631Y-15215150D01*
X6508631Y-15215150D02*
X6527678Y-15224674D01*
X6527678Y-15224674D02*
X6537202Y-15243722D01*
X6537202Y-15243722D02*
X6537202Y-15262769D01*
X6537202Y-15262769D02*
X6441964Y-15281817D01*
X6613393Y-15338960D02*
X6632440Y-15348484D01*
X6632440Y-15348484D02*
X6670535Y-15348484D01*
X6670535Y-15348484D02*
X6689583Y-15338960D01*
X6689583Y-15338960D02*
X6699107Y-15319912D01*
X6699107Y-15319912D02*
X6699107Y-15310388D01*
X6699107Y-15310388D02*
X6689583Y-15291341D01*
X6689583Y-15291341D02*
X6670535Y-15281817D01*
X6670535Y-15281817D02*
X6641964Y-15281817D01*
X6641964Y-15281817D02*
X6622916Y-15272293D01*
X6622916Y-15272293D02*
X6613393Y-15253246D01*
X6613393Y-15253246D02*
X6613393Y-15243722D01*
X6613393Y-15243722D02*
X6622916Y-15224674D01*
X6622916Y-15224674D02*
X6641964Y-15215150D01*
X6641964Y-15215150D02*
X6670535Y-15215150D01*
X6670535Y-15215150D02*
X6689583Y-15224674D01*
X6765774Y-15424674D02*
X6775297Y-15415150D01*
X6775297Y-15415150D02*
X6794345Y-15386579D01*
X6794345Y-15386579D02*
X6803869Y-15367531D01*
X6803869Y-15367531D02*
X6813393Y-15338960D01*
X6813393Y-15338960D02*
X6822916Y-15291341D01*
X6822916Y-15291341D02*
X6822916Y-15253246D01*
X6822916Y-15253246D02*
X6813393Y-15205627D01*
X6813393Y-15205627D02*
X6803869Y-15177055D01*
X6803869Y-15177055D02*
X6794345Y-15158008D01*
X6794345Y-15158008D02*
X6775297Y-15129436D01*
X6775297Y-15129436D02*
X6765774Y-15119912D01*
X1890711Y-15427000D02*
X1890711Y-15627000D01*
X1790711Y-15527000D02*
X1990711Y-15527000D01*
X1990711Y-15527000D02*
G75*
G03*
X1990711Y-15527000I-100000J0D01*
G01*
X2241964Y-15437531D02*
X2251488Y-15428008D01*
X2251488Y-15428008D02*
X2270535Y-15418484D01*
X2270535Y-15418484D02*
X2318154Y-15418484D01*
X2318154Y-15418484D02*
X2337202Y-15428008D01*
X2337202Y-15428008D02*
X2346726Y-15437531D01*
X2346726Y-15437531D02*
X2356249Y-15456579D01*
X2356249Y-15456579D02*
X2356249Y-15475627D01*
X2356249Y-15475627D02*
X2346726Y-15504198D01*
X2346726Y-15504198D02*
X2232440Y-15618484D01*
X2232440Y-15618484D02*
X2356249Y-15618484D01*
X2441964Y-15599436D02*
X2451488Y-15608960D01*
X2451488Y-15608960D02*
X2441964Y-15618484D01*
X2441964Y-15618484D02*
X2432440Y-15608960D01*
X2432440Y-15608960D02*
X2441964Y-15599436D01*
X2441964Y-15599436D02*
X2441964Y-15618484D01*
X2622916Y-15418484D02*
X2584821Y-15418484D01*
X2584821Y-15418484D02*
X2565773Y-15428008D01*
X2565773Y-15428008D02*
X2556249Y-15437531D01*
X2556249Y-15437531D02*
X2537202Y-15466103D01*
X2537202Y-15466103D02*
X2527678Y-15504198D01*
X2527678Y-15504198D02*
X2527678Y-15580388D01*
X2527678Y-15580388D02*
X2537202Y-15599436D01*
X2537202Y-15599436D02*
X2546726Y-15608960D01*
X2546726Y-15608960D02*
X2565773Y-15618484D01*
X2565773Y-15618484D02*
X2603869Y-15618484D01*
X2603869Y-15618484D02*
X2622916Y-15608960D01*
X2622916Y-15608960D02*
X2632440Y-15599436D01*
X2632440Y-15599436D02*
X2641964Y-15580388D01*
X2641964Y-15580388D02*
X2641964Y-15532769D01*
X2641964Y-15532769D02*
X2632440Y-15513722D01*
X2632440Y-15513722D02*
X2622916Y-15504198D01*
X2622916Y-15504198D02*
X2603869Y-15494674D01*
X2603869Y-15494674D02*
X2565773Y-15494674D01*
X2565773Y-15494674D02*
X2546726Y-15504198D01*
X2546726Y-15504198D02*
X2537202Y-15513722D01*
X2537202Y-15513722D02*
X2527678Y-15532769D01*
X2765773Y-15418484D02*
X2784821Y-15418484D01*
X2784821Y-15418484D02*
X2803868Y-15428008D01*
X2803868Y-15428008D02*
X2813392Y-15437531D01*
X2813392Y-15437531D02*
X2822916Y-15456579D01*
X2822916Y-15456579D02*
X2832440Y-15494674D01*
X2832440Y-15494674D02*
X2832440Y-15542293D01*
X2832440Y-15542293D02*
X2822916Y-15580388D01*
X2822916Y-15580388D02*
X2813392Y-15599436D01*
X2813392Y-15599436D02*
X2803868Y-15608960D01*
X2803868Y-15608960D02*
X2784821Y-15618484D01*
X2784821Y-15618484D02*
X2765773Y-15618484D01*
X2765773Y-15618484D02*
X2746726Y-15608960D01*
X2746726Y-15608960D02*
X2737202Y-15599436D01*
X2737202Y-15599436D02*
X2727678Y-15580388D01*
X2727678Y-15580388D02*
X2718154Y-15542293D01*
X2718154Y-15542293D02*
X2718154Y-15494674D01*
X2718154Y-15494674D02*
X2727678Y-15456579D01*
X2727678Y-15456579D02*
X2737202Y-15437531D01*
X2737202Y-15437531D02*
X2746726Y-15428008D01*
X2746726Y-15428008D02*
X2765773Y-15418484D01*
X2956249Y-15418484D02*
X2975297Y-15418484D01*
X2975297Y-15418484D02*
X2994345Y-15428008D01*
X2994345Y-15428008D02*
X3003868Y-15437531D01*
X3003868Y-15437531D02*
X3013392Y-15456579D01*
X3013392Y-15456579D02*
X3022916Y-15494674D01*
X3022916Y-15494674D02*
X3022916Y-15542293D01*
X3022916Y-15542293D02*
X3013392Y-15580388D01*
X3013392Y-15580388D02*
X3003868Y-15599436D01*
X3003868Y-15599436D02*
X2994345Y-15608960D01*
X2994345Y-15608960D02*
X2975297Y-15618484D01*
X2975297Y-15618484D02*
X2956249Y-15618484D01*
X2956249Y-15618484D02*
X2937202Y-15608960D01*
X2937202Y-15608960D02*
X2927678Y-15599436D01*
X2927678Y-15599436D02*
X2918154Y-15580388D01*
X2918154Y-15580388D02*
X2908630Y-15542293D01*
X2908630Y-15542293D02*
X2908630Y-15494674D01*
X2908630Y-15494674D02*
X2918154Y-15456579D01*
X2918154Y-15456579D02*
X2927678Y-15437531D01*
X2927678Y-15437531D02*
X2937202Y-15428008D01*
X2937202Y-15428008D02*
X2956249Y-15418484D01*
X3108630Y-15618484D02*
X3108630Y-15485150D01*
X3108630Y-15504198D02*
X3118154Y-15494674D01*
X3118154Y-15494674D02*
X3137202Y-15485150D01*
X3137202Y-15485150D02*
X3165773Y-15485150D01*
X3165773Y-15485150D02*
X3184821Y-15494674D01*
X3184821Y-15494674D02*
X3194345Y-15513722D01*
X3194345Y-15513722D02*
X3194345Y-15618484D01*
X3194345Y-15513722D02*
X3203868Y-15494674D01*
X3203868Y-15494674D02*
X3222916Y-15485150D01*
X3222916Y-15485150D02*
X3251487Y-15485150D01*
X3251487Y-15485150D02*
X3270535Y-15494674D01*
X3270535Y-15494674D02*
X3280059Y-15513722D01*
X3280059Y-15513722D02*
X3280059Y-15618484D01*
X3375297Y-15618484D02*
X3375297Y-15485150D01*
X3375297Y-15504198D02*
X3384821Y-15494674D01*
X3384821Y-15494674D02*
X3403868Y-15485150D01*
X3403868Y-15485150D02*
X3432440Y-15485150D01*
X3432440Y-15485150D02*
X3451488Y-15494674D01*
X3451488Y-15494674D02*
X3461011Y-15513722D01*
X3461011Y-15513722D02*
X3461011Y-15618484D01*
X3461011Y-15513722D02*
X3470535Y-15494674D01*
X3470535Y-15494674D02*
X3489583Y-15485150D01*
X3489583Y-15485150D02*
X3518154Y-15485150D01*
X3518154Y-15485150D02*
X3537202Y-15494674D01*
X3537202Y-15494674D02*
X3546726Y-15513722D01*
X3546726Y-15513722D02*
X3546726Y-15618484D01*
X3937202Y-15408960D02*
X3765773Y-15666103D01*
X4194345Y-15418484D02*
X4213393Y-15418484D01*
X4213393Y-15418484D02*
X4232440Y-15428008D01*
X4232440Y-15428008D02*
X4241964Y-15437531D01*
X4241964Y-15437531D02*
X4251488Y-15456579D01*
X4251488Y-15456579D02*
X4261012Y-15494674D01*
X4261012Y-15494674D02*
X4261012Y-15542293D01*
X4261012Y-15542293D02*
X4251488Y-15580388D01*
X4251488Y-15580388D02*
X4241964Y-15599436D01*
X4241964Y-15599436D02*
X4232440Y-15608960D01*
X4232440Y-15608960D02*
X4213393Y-15618484D01*
X4213393Y-15618484D02*
X4194345Y-15618484D01*
X4194345Y-15618484D02*
X4175297Y-15608960D01*
X4175297Y-15608960D02*
X4165773Y-15599436D01*
X4165773Y-15599436D02*
X4156250Y-15580388D01*
X4156250Y-15580388D02*
X4146726Y-15542293D01*
X4146726Y-15542293D02*
X4146726Y-15494674D01*
X4146726Y-15494674D02*
X4156250Y-15456579D01*
X4156250Y-15456579D02*
X4165773Y-15437531D01*
X4165773Y-15437531D02*
X4175297Y-15428008D01*
X4175297Y-15428008D02*
X4194345Y-15418484D01*
X4346726Y-15599436D02*
X4356250Y-15608960D01*
X4356250Y-15608960D02*
X4346726Y-15618484D01*
X4346726Y-15618484D02*
X4337202Y-15608960D01*
X4337202Y-15608960D02*
X4346726Y-15599436D01*
X4346726Y-15599436D02*
X4346726Y-15618484D01*
X4546726Y-15618484D02*
X4432440Y-15618484D01*
X4489583Y-15618484D02*
X4489583Y-15418484D01*
X4489583Y-15418484D02*
X4470535Y-15447055D01*
X4470535Y-15447055D02*
X4451488Y-15466103D01*
X4451488Y-15466103D02*
X4432440Y-15475627D01*
X4670535Y-15418484D02*
X4689583Y-15418484D01*
X4689583Y-15418484D02*
X4708631Y-15428008D01*
X4708631Y-15428008D02*
X4718154Y-15437531D01*
X4718154Y-15437531D02*
X4727678Y-15456579D01*
X4727678Y-15456579D02*
X4737202Y-15494674D01*
X4737202Y-15494674D02*
X4737202Y-15542293D01*
X4737202Y-15542293D02*
X4727678Y-15580388D01*
X4727678Y-15580388D02*
X4718154Y-15599436D01*
X4718154Y-15599436D02*
X4708631Y-15608960D01*
X4708631Y-15608960D02*
X4689583Y-15618484D01*
X4689583Y-15618484D02*
X4670535Y-15618484D01*
X4670535Y-15618484D02*
X4651488Y-15608960D01*
X4651488Y-15608960D02*
X4641964Y-15599436D01*
X4641964Y-15599436D02*
X4632440Y-15580388D01*
X4632440Y-15580388D02*
X4622916Y-15542293D01*
X4622916Y-15542293D02*
X4622916Y-15494674D01*
X4622916Y-15494674D02*
X4632440Y-15456579D01*
X4632440Y-15456579D02*
X4641964Y-15437531D01*
X4641964Y-15437531D02*
X4651488Y-15428008D01*
X4651488Y-15428008D02*
X4670535Y-15418484D01*
X4813393Y-15437531D02*
X4822916Y-15428008D01*
X4822916Y-15428008D02*
X4841964Y-15418484D01*
X4841964Y-15418484D02*
X4889583Y-15418484D01*
X4889583Y-15418484D02*
X4908631Y-15428008D01*
X4908631Y-15428008D02*
X4918154Y-15437531D01*
X4918154Y-15437531D02*
X4927678Y-15456579D01*
X4927678Y-15456579D02*
X4927678Y-15475627D01*
X4927678Y-15475627D02*
X4918154Y-15504198D01*
X4918154Y-15504198D02*
X4803869Y-15618484D01*
X4803869Y-15618484D02*
X4927678Y-15618484D01*
X5099107Y-15485150D02*
X5099107Y-15618484D01*
X5051488Y-15408960D02*
X5003869Y-15551817D01*
X5003869Y-15551817D02*
X5127678Y-15551817D01*
X5194345Y-15418484D02*
X5194345Y-15456579D01*
X5270535Y-15418484D02*
X5270535Y-15456579D01*
X5565774Y-15694674D02*
X5556250Y-15685150D01*
X5556250Y-15685150D02*
X5537202Y-15656579D01*
X5537202Y-15656579D02*
X5527678Y-15637531D01*
X5527678Y-15637531D02*
X5518155Y-15608960D01*
X5518155Y-15608960D02*
X5508631Y-15561341D01*
X5508631Y-15561341D02*
X5508631Y-15523246D01*
X5508631Y-15523246D02*
X5518155Y-15475627D01*
X5518155Y-15475627D02*
X5527678Y-15447055D01*
X5527678Y-15447055D02*
X5537202Y-15428008D01*
X5537202Y-15428008D02*
X5556250Y-15399436D01*
X5556250Y-15399436D02*
X5565774Y-15389912D01*
X5727678Y-15485150D02*
X5727678Y-15618484D01*
X5680059Y-15408960D02*
X5632440Y-15551817D01*
X5632440Y-15551817D02*
X5756250Y-15551817D01*
X5984821Y-15618484D02*
X5984821Y-15418484D01*
X6070535Y-15618484D02*
X6070535Y-15513722D01*
X6070535Y-15513722D02*
X6061012Y-15494674D01*
X6061012Y-15494674D02*
X6041964Y-15485150D01*
X6041964Y-15485150D02*
X6013393Y-15485150D01*
X6013393Y-15485150D02*
X5994345Y-15494674D01*
X5994345Y-15494674D02*
X5984821Y-15504198D01*
X6194345Y-15618484D02*
X6175297Y-15608960D01*
X6175297Y-15608960D02*
X6165774Y-15599436D01*
X6165774Y-15599436D02*
X6156250Y-15580388D01*
X6156250Y-15580388D02*
X6156250Y-15523246D01*
X6156250Y-15523246D02*
X6165774Y-15504198D01*
X6165774Y-15504198D02*
X6175297Y-15494674D01*
X6175297Y-15494674D02*
X6194345Y-15485150D01*
X6194345Y-15485150D02*
X6222916Y-15485150D01*
X6222916Y-15485150D02*
X6241964Y-15494674D01*
X6241964Y-15494674D02*
X6251488Y-15504198D01*
X6251488Y-15504198D02*
X6261012Y-15523246D01*
X6261012Y-15523246D02*
X6261012Y-15580388D01*
X6261012Y-15580388D02*
X6251488Y-15599436D01*
X6251488Y-15599436D02*
X6241964Y-15608960D01*
X6241964Y-15608960D02*
X6222916Y-15618484D01*
X6222916Y-15618484D02*
X6194345Y-15618484D01*
X6375297Y-15618484D02*
X6356250Y-15608960D01*
X6356250Y-15608960D02*
X6346726Y-15589912D01*
X6346726Y-15589912D02*
X6346726Y-15418484D01*
X6527678Y-15608960D02*
X6508631Y-15618484D01*
X6508631Y-15618484D02*
X6470535Y-15618484D01*
X6470535Y-15618484D02*
X6451488Y-15608960D01*
X6451488Y-15608960D02*
X6441964Y-15589912D01*
X6441964Y-15589912D02*
X6441964Y-15513722D01*
X6441964Y-15513722D02*
X6451488Y-15494674D01*
X6451488Y-15494674D02*
X6470535Y-15485150D01*
X6470535Y-15485150D02*
X6508631Y-15485150D01*
X6508631Y-15485150D02*
X6527678Y-15494674D01*
X6527678Y-15494674D02*
X6537202Y-15513722D01*
X6537202Y-15513722D02*
X6537202Y-15532769D01*
X6537202Y-15532769D02*
X6441964Y-15551817D01*
X6613393Y-15608960D02*
X6632440Y-15618484D01*
X6632440Y-15618484D02*
X6670535Y-15618484D01*
X6670535Y-15618484D02*
X6689583Y-15608960D01*
X6689583Y-15608960D02*
X6699107Y-15589912D01*
X6699107Y-15589912D02*
X6699107Y-15580388D01*
X6699107Y-15580388D02*
X6689583Y-15561341D01*
X6689583Y-15561341D02*
X6670535Y-15551817D01*
X6670535Y-15551817D02*
X6641964Y-15551817D01*
X6641964Y-15551817D02*
X6622916Y-15542293D01*
X6622916Y-15542293D02*
X6613393Y-15523246D01*
X6613393Y-15523246D02*
X6613393Y-15513722D01*
X6613393Y-15513722D02*
X6622916Y-15494674D01*
X6622916Y-15494674D02*
X6641964Y-15485150D01*
X6641964Y-15485150D02*
X6670535Y-15485150D01*
X6670535Y-15485150D02*
X6689583Y-15494674D01*
X6765774Y-15694674D02*
X6775297Y-15685150D01*
X6775297Y-15685150D02*
X6794345Y-15656579D01*
X6794345Y-15656579D02*
X6803869Y-15637531D01*
X6803869Y-15637531D02*
X6813393Y-15608960D01*
X6813393Y-15608960D02*
X6822916Y-15561341D01*
X6822916Y-15561341D02*
X6822916Y-15523246D01*
X6822916Y-15523246D02*
X6813393Y-15475627D01*
X6813393Y-15475627D02*
X6803869Y-15447055D01*
X6803869Y-15447055D02*
X6794345Y-15428008D01*
X6794345Y-15428008D02*
X6775297Y-15399436D01*
X6775297Y-15399436D02*
X6765774Y-15389912D01*
M02*
