%TF.GenerationSoftware,KiCad,Pcbnew,7.0.7-7.0.7~ubuntu23.04.1*%
%TF.CreationDate,2023-09-10T23:30:34+00:00*%
%TF.ProjectId,pedalboard-hw,70656461-6c62-46f6-9172-642d68772e6b,3.0.0-RC1*%
%TF.SameCoordinates,Original*%
%TF.FileFunction,Drillmap*%
%TF.FilePolarity,Positive*%
%FSLAX45Y45*%
G04 Gerber Fmt 4.5, Leading zero omitted, Abs format (unit mm)*
G04 Created by KiCad (PCBNEW 7.0.7-7.0.7~ubuntu23.04.1) date 2023-09-10 23:30:34*
%MOMM*%
%LPD*%
G01*
G04 APERTURE LIST*
%ADD10C,0.100000*%
%ADD11C,0.200000*%
%ADD12C,0.050000*%
%ADD13C,0.120000*%
%ADD14C,0.270000*%
%ADD15C,0.370000*%
G04 APERTURE END LIST*
D10*
X11820000Y-2000000D02*
X18900000Y-2000000D01*
X2000000Y-12400000D02*
X1995711Y-2100000D01*
X2100000Y-12500000D02*
X18900000Y-12500000D01*
X2095711Y-2000001D02*
G75*
G03*
X1995711Y-2100000I-1J-99999D01*
G01*
X11380000Y-2100000D02*
G75*
G03*
X11420000Y-2140000I40000J0D01*
G01*
X2000000Y-12400000D02*
G75*
G03*
X2100000Y-12500000I100000J0D01*
G01*
X9180000Y-2100000D02*
G75*
G03*
X9220000Y-2140000I40000J0D01*
G01*
X11420000Y-2140000D02*
X11780000Y-2140000D01*
X19000000Y-2100000D02*
X19000000Y-12400000D01*
X11380000Y-2000000D02*
X11380000Y-2100000D01*
X9620000Y-2100000D02*
X9620000Y-2000000D01*
X9620000Y-2000000D02*
X11380000Y-2000000D01*
X19000000Y-2100000D02*
G75*
G03*
X18900000Y-2000000I-100000J0D01*
G01*
X9580000Y-2140000D02*
G75*
G03*
X9620000Y-2100000I0J40000D01*
G01*
X9180000Y-2000000D02*
X9180000Y-2100000D01*
X9220000Y-2140000D02*
X9580000Y-2140000D01*
X9180000Y-2000000D02*
X2095711Y-2000000D01*
X18900000Y-12500000D02*
G75*
G03*
X19000000Y-12400000I0J100000D01*
G01*
X11780000Y-2140000D02*
G75*
G03*
X11820000Y-2100000I0J40000D01*
G01*
X11820000Y-2100000D02*
X11820000Y-2000000D01*
D11*
D12*
X7985000Y-2082500D02*
X8035000Y-2132500D01*
X8035000Y-2082500D02*
X7985000Y-2132500D01*
X7985000Y-2182500D02*
X8035000Y-2232500D01*
X8035000Y-2182500D02*
X7985000Y-2232500D01*
X7985000Y-2282500D02*
X8035000Y-2332500D01*
X8035000Y-2282500D02*
X7985000Y-2332500D01*
X7985000Y-2382500D02*
X8035000Y-2432500D01*
X8035000Y-2382500D02*
X7985000Y-2432500D01*
X7985000Y-2482500D02*
X8035000Y-2532500D01*
X8035000Y-2482500D02*
X7985000Y-2532500D01*
X7985000Y-2582500D02*
X8035000Y-2632500D01*
X8035000Y-2582500D02*
X7985000Y-2632500D01*
X7985000Y-2982500D02*
X8035000Y-3032500D01*
X8035000Y-2982500D02*
X7985000Y-3032500D01*
X7985000Y-3082500D02*
X8035000Y-3132500D01*
X8035000Y-3082500D02*
X7985000Y-3132500D01*
X7985000Y-3182500D02*
X8035000Y-3232500D01*
X8035000Y-3182500D02*
X7985000Y-3232500D01*
X7985000Y-3282500D02*
X8035000Y-3332500D01*
X8035000Y-3282500D02*
X7985000Y-3332500D01*
X7985000Y-3382500D02*
X8035000Y-3432500D01*
X8035000Y-3382500D02*
X7985000Y-3432500D01*
X7985000Y-3482500D02*
X8035000Y-3532500D01*
X8035000Y-3482500D02*
X7985000Y-3532500D01*
X7985000Y-3582500D02*
X8035000Y-3632500D01*
X8035000Y-3582500D02*
X7985000Y-3632500D01*
X8085000Y-3582500D02*
X8135000Y-3632500D01*
X8135000Y-3582500D02*
X8085000Y-3632500D01*
X8185000Y-3582500D02*
X8235000Y-3632500D01*
X8235000Y-3582500D02*
X8185000Y-3632500D01*
X8285000Y-3582500D02*
X8335000Y-3632500D01*
X8335000Y-3582500D02*
X8285000Y-3632500D01*
X8385000Y-3582500D02*
X8435000Y-3632500D01*
X8435000Y-3582500D02*
X8385000Y-3632500D01*
X8485000Y-3582500D02*
X8535000Y-3632500D01*
X8535000Y-3582500D02*
X8485000Y-3632500D01*
X8585000Y-3582500D02*
X8635000Y-3632500D01*
X8635000Y-3582500D02*
X8585000Y-3632500D01*
X8685000Y-3582500D02*
X8735000Y-3632500D01*
X8735000Y-3582500D02*
X8685000Y-3632500D01*
X8785000Y-3582500D02*
X8835000Y-3632500D01*
X8835000Y-3582500D02*
X8785000Y-3632500D01*
X8985000Y-3582500D02*
X9035000Y-3632500D01*
X9035000Y-3582500D02*
X8985000Y-3632500D01*
X9085000Y-3582500D02*
X9135000Y-3632500D01*
X9135000Y-3582500D02*
X9085000Y-3632500D01*
X9185000Y-3582500D02*
X9235000Y-3632500D01*
X9235000Y-3582500D02*
X9185000Y-3632500D01*
X9285000Y-3582500D02*
X9335000Y-3632500D01*
X9335000Y-3582500D02*
X9285000Y-3632500D01*
X9385000Y-3582500D02*
X9435000Y-3632500D01*
X9435000Y-3582500D02*
X9385000Y-3632500D01*
X9485000Y-3582500D02*
X9535000Y-3632500D01*
X9535000Y-3582500D02*
X9485000Y-3632500D01*
X9585000Y-3582500D02*
X9635000Y-3632500D01*
X9635000Y-3582500D02*
X9585000Y-3632500D01*
X9685000Y-3582500D02*
X9735000Y-3632500D01*
X9735000Y-3582500D02*
X9685000Y-3632500D01*
X9785000Y-3582500D02*
X9835000Y-3632500D01*
X9835000Y-3582500D02*
X9785000Y-3632500D01*
X9985000Y-3582500D02*
X10035000Y-3632500D01*
X10035000Y-3582500D02*
X9985000Y-3632500D01*
X10085000Y-3582500D02*
X10135000Y-3632500D01*
X10135000Y-3582500D02*
X10085000Y-3632500D01*
X10185000Y-3582500D02*
X10235000Y-3632500D01*
X10235000Y-3582500D02*
X10185000Y-3632500D01*
X10285000Y-3582500D02*
X10335000Y-3632500D01*
X10335000Y-3582500D02*
X10285000Y-3632500D01*
X10385000Y-3582500D02*
X10435000Y-3632500D01*
X10435000Y-3582500D02*
X10385000Y-3632500D01*
X10485000Y-3582500D02*
X10535000Y-3632500D01*
X10535000Y-3582500D02*
X10485000Y-3632500D01*
X10585000Y-3582500D02*
X10635000Y-3632500D01*
X10635000Y-3582500D02*
X10585000Y-3632500D01*
X10685000Y-3582500D02*
X10735000Y-3632500D01*
X10735000Y-3582500D02*
X10685000Y-3632500D01*
X10785000Y-3582500D02*
X10835000Y-3632500D01*
X10835000Y-3582500D02*
X10785000Y-3632500D01*
X10885000Y-3582500D02*
X10935000Y-3632500D01*
X10935000Y-3582500D02*
X10885000Y-3632500D01*
X10985000Y-3582500D02*
X11035000Y-3632500D01*
X11035000Y-3582500D02*
X10985000Y-3632500D01*
X11185000Y-3582500D02*
X11235000Y-3632500D01*
X11235000Y-3582500D02*
X11185000Y-3632500D01*
X11285000Y-3582500D02*
X11335000Y-3632500D01*
X11335000Y-3582500D02*
X11285000Y-3632500D01*
X11385000Y-3582500D02*
X11435000Y-3632500D01*
X11435000Y-3582500D02*
X11385000Y-3632500D01*
X11485000Y-3582500D02*
X11535000Y-3632500D01*
X11535000Y-3582500D02*
X11485000Y-3632500D01*
X11585000Y-3582500D02*
X11635000Y-3632500D01*
X11635000Y-3582500D02*
X11585000Y-3632500D01*
X11685000Y-3582500D02*
X11735000Y-3632500D01*
X11735000Y-3582500D02*
X11685000Y-3632500D01*
X11785000Y-3582500D02*
X11835000Y-3632500D01*
X11835000Y-3582500D02*
X11785000Y-3632500D01*
X11885000Y-3582500D02*
X11935000Y-3632500D01*
X11935000Y-3582500D02*
X11885000Y-3632500D01*
X11985000Y-3582500D02*
X12035000Y-3632500D01*
X12035000Y-3582500D02*
X11985000Y-3632500D01*
X12185000Y-3582500D02*
X12235000Y-3632500D01*
X12235000Y-3582500D02*
X12185000Y-3632500D01*
X12285000Y-3582500D02*
X12335000Y-3632500D01*
X12335000Y-3582500D02*
X12285000Y-3632500D01*
X12385000Y-3582500D02*
X12435000Y-3632500D01*
X12435000Y-3582500D02*
X12385000Y-3632500D01*
X12485000Y-3582500D02*
X12535000Y-3632500D01*
X12535000Y-3582500D02*
X12485000Y-3632500D01*
X12585000Y-3582500D02*
X12635000Y-3632500D01*
X12635000Y-3582500D02*
X12585000Y-3632500D01*
X12685000Y-3582500D02*
X12735000Y-3632500D01*
X12735000Y-3582500D02*
X12685000Y-3632500D01*
X12785000Y-3582500D02*
X12835000Y-3632500D01*
X12835000Y-3582500D02*
X12785000Y-3632500D01*
X12885000Y-3582500D02*
X12935000Y-3632500D01*
X12935000Y-3582500D02*
X12885000Y-3632500D01*
X12985000Y-2082500D02*
X13035000Y-2132500D01*
X13035000Y-2082500D02*
X12985000Y-2132500D01*
X12985000Y-2182500D02*
X13035000Y-2232500D01*
X13035000Y-2182500D02*
X12985000Y-2232500D01*
X12985000Y-2282500D02*
X13035000Y-2332500D01*
X13035000Y-2282500D02*
X12985000Y-2332500D01*
X12985000Y-2382500D02*
X13035000Y-2432500D01*
X13035000Y-2382500D02*
X12985000Y-2432500D01*
X12985000Y-2482500D02*
X13035000Y-2532500D01*
X13035000Y-2482500D02*
X12985000Y-2532500D01*
X12985000Y-2582500D02*
X13035000Y-2632500D01*
X13035000Y-2582500D02*
X12985000Y-2632500D01*
X12985000Y-2682500D02*
X13035000Y-2732500D01*
X13035000Y-2682500D02*
X12985000Y-2732500D01*
X12985000Y-2782500D02*
X13035000Y-2832500D01*
X13035000Y-2782500D02*
X12985000Y-2832500D01*
X12985000Y-2882500D02*
X13035000Y-2932500D01*
X13035000Y-2882500D02*
X12985000Y-2932500D01*
X12985000Y-2982500D02*
X13035000Y-3032500D01*
X13035000Y-2982500D02*
X12985000Y-3032500D01*
X12985000Y-3082500D02*
X13035000Y-3132500D01*
X13035000Y-3082500D02*
X12985000Y-3132500D01*
X12985000Y-3182500D02*
X13035000Y-3232500D01*
X13035000Y-3182500D02*
X12985000Y-3232500D01*
X12985000Y-3282500D02*
X13035000Y-3332500D01*
X13035000Y-3282500D02*
X12985000Y-3332500D01*
X12985000Y-3382500D02*
X13035000Y-3432500D01*
X13035000Y-3382500D02*
X12985000Y-3432500D01*
X12985000Y-3482500D02*
X13035000Y-3532500D01*
X13035000Y-3482500D02*
X12985000Y-3532500D01*
X12985000Y-3582500D02*
X13035000Y-3632500D01*
X13035000Y-3582500D02*
X12985000Y-3632500D01*
D13*
X8960000Y-2450000D02*
G75*
G03*
X8960000Y-2450000I-60000J0D01*
G01*
X9460000Y-2950000D02*
G75*
G03*
X9460000Y-2950000I-60000J0D01*
G01*
X9960000Y-2450000D02*
G75*
G03*
X9960000Y-2450000I-60000J0D01*
G01*
X11160000Y-2450000D02*
G75*
G03*
X11160000Y-2450000I-60000J0D01*
G01*
X11660000Y-2950000D02*
G75*
G03*
X11660000Y-2950000I-60000J0D01*
G01*
X12160000Y-2450000D02*
G75*
G03*
X12160000Y-2450000I-60000J0D01*
G01*
D14*
X7700000Y-2165000D02*
X7700000Y-2435000D01*
X7565000Y-2300000D02*
X7835000Y-2300000D01*
X11890000Y-6221560D02*
X11890000Y-6491560D01*
X11755000Y-6356560D02*
X12025000Y-6356560D01*
X11898000Y-12017000D02*
X11898000Y-12287000D01*
X11763000Y-12152000D02*
X12033000Y-12152000D01*
X13300000Y-2165000D02*
X13300000Y-2435000D01*
X13165000Y-2300000D02*
X13435000Y-2300000D01*
X16800000Y-2165000D02*
X16800000Y-2435000D01*
X16665000Y-2300000D02*
X16935000Y-2300000D01*
D15*
X3130816Y-6830816D02*
X3130816Y-6569184D01*
X2869184Y-6569184D01*
X2869184Y-6830816D01*
X3130816Y-6830816D01*
X3130816Y-12030816D02*
X3130816Y-11769184D01*
X2869184Y-11769184D01*
X2869184Y-12030816D01*
X3130816Y-12030816D01*
X10630816Y-6830816D02*
X10630816Y-6569184D01*
X10369184Y-6569184D01*
X10369184Y-6830816D01*
X10630816Y-6830816D01*
X10630816Y-12030816D02*
X10630816Y-11769184D01*
X10369184Y-11769184D01*
X10369184Y-12030816D01*
X10630816Y-12030816D01*
X18130816Y-6830816D02*
X18130816Y-6569184D01*
X17869184Y-6569184D01*
X17869184Y-6830816D01*
X18130816Y-6830816D01*
X18130816Y-12030816D02*
X18130816Y-11769184D01*
X17869184Y-11769184D01*
X17869184Y-12030816D01*
X18130816Y-12030816D01*
D11*
X2251488Y-12816484D02*
X2251488Y-12616484D01*
X2251488Y-12616484D02*
X2299107Y-12616484D01*
X2299107Y-12616484D02*
X2327678Y-12626008D01*
X2327678Y-12626008D02*
X2346726Y-12645055D01*
X2346726Y-12645055D02*
X2356249Y-12664103D01*
X2356249Y-12664103D02*
X2365773Y-12702198D01*
X2365773Y-12702198D02*
X2365773Y-12730769D01*
X2365773Y-12730769D02*
X2356249Y-12768865D01*
X2356249Y-12768865D02*
X2346726Y-12787912D01*
X2346726Y-12787912D02*
X2327678Y-12806960D01*
X2327678Y-12806960D02*
X2299107Y-12816484D01*
X2299107Y-12816484D02*
X2251488Y-12816484D01*
X2451488Y-12816484D02*
X2451488Y-12683150D01*
X2451488Y-12721246D02*
X2461011Y-12702198D01*
X2461011Y-12702198D02*
X2470535Y-12692674D01*
X2470535Y-12692674D02*
X2489583Y-12683150D01*
X2489583Y-12683150D02*
X2508630Y-12683150D01*
X2575297Y-12816484D02*
X2575297Y-12683150D01*
X2575297Y-12616484D02*
X2565773Y-12626008D01*
X2565773Y-12626008D02*
X2575297Y-12635531D01*
X2575297Y-12635531D02*
X2584821Y-12626008D01*
X2584821Y-12626008D02*
X2575297Y-12616484D01*
X2575297Y-12616484D02*
X2575297Y-12635531D01*
X2699107Y-12816484D02*
X2680059Y-12806960D01*
X2680059Y-12806960D02*
X2670535Y-12787912D01*
X2670535Y-12787912D02*
X2670535Y-12616484D01*
X2803868Y-12816484D02*
X2784821Y-12806960D01*
X2784821Y-12806960D02*
X2775297Y-12787912D01*
X2775297Y-12787912D02*
X2775297Y-12616484D01*
X3032440Y-12816484D02*
X3032440Y-12616484D01*
X3032440Y-12616484D02*
X3099107Y-12759341D01*
X3099107Y-12759341D02*
X3165773Y-12616484D01*
X3165773Y-12616484D02*
X3165773Y-12816484D01*
X3346726Y-12816484D02*
X3346726Y-12711722D01*
X3346726Y-12711722D02*
X3337202Y-12692674D01*
X3337202Y-12692674D02*
X3318154Y-12683150D01*
X3318154Y-12683150D02*
X3280059Y-12683150D01*
X3280059Y-12683150D02*
X3261011Y-12692674D01*
X3346726Y-12806960D02*
X3327678Y-12816484D01*
X3327678Y-12816484D02*
X3280059Y-12816484D01*
X3280059Y-12816484D02*
X3261011Y-12806960D01*
X3261011Y-12806960D02*
X3251487Y-12787912D01*
X3251487Y-12787912D02*
X3251487Y-12768865D01*
X3251487Y-12768865D02*
X3261011Y-12749817D01*
X3261011Y-12749817D02*
X3280059Y-12740293D01*
X3280059Y-12740293D02*
X3327678Y-12740293D01*
X3327678Y-12740293D02*
X3346726Y-12730769D01*
X3441964Y-12683150D02*
X3441964Y-12883150D01*
X3441964Y-12692674D02*
X3461011Y-12683150D01*
X3461011Y-12683150D02*
X3499107Y-12683150D01*
X3499107Y-12683150D02*
X3518154Y-12692674D01*
X3518154Y-12692674D02*
X3527678Y-12702198D01*
X3527678Y-12702198D02*
X3537202Y-12721246D01*
X3537202Y-12721246D02*
X3537202Y-12778388D01*
X3537202Y-12778388D02*
X3527678Y-12797436D01*
X3527678Y-12797436D02*
X3518154Y-12806960D01*
X3518154Y-12806960D02*
X3499107Y-12816484D01*
X3499107Y-12816484D02*
X3461011Y-12816484D01*
X3461011Y-12816484D02*
X3441964Y-12806960D01*
X3622916Y-12797436D02*
X3632440Y-12806960D01*
X3632440Y-12806960D02*
X3622916Y-12816484D01*
X3622916Y-12816484D02*
X3613392Y-12806960D01*
X3613392Y-12806960D02*
X3622916Y-12797436D01*
X3622916Y-12797436D02*
X3622916Y-12816484D01*
X3622916Y-12692674D02*
X3632440Y-12702198D01*
X3632440Y-12702198D02*
X3622916Y-12711722D01*
X3622916Y-12711722D02*
X3613392Y-12702198D01*
X3613392Y-12702198D02*
X3622916Y-12692674D01*
X3622916Y-12692674D02*
X3622916Y-12711722D01*
D12*
X1940711Y-13120000D02*
X1990711Y-13170000D01*
X1990711Y-13120000D02*
X1940711Y-13170000D01*
D11*
X2289583Y-13036484D02*
X2308630Y-13036484D01*
X2308630Y-13036484D02*
X2327678Y-13046008D01*
X2327678Y-13046008D02*
X2337202Y-13055531D01*
X2337202Y-13055531D02*
X2346726Y-13074579D01*
X2346726Y-13074579D02*
X2356249Y-13112674D01*
X2356249Y-13112674D02*
X2356249Y-13160293D01*
X2356249Y-13160293D02*
X2346726Y-13198388D01*
X2346726Y-13198388D02*
X2337202Y-13217436D01*
X2337202Y-13217436D02*
X2327678Y-13226960D01*
X2327678Y-13226960D02*
X2308630Y-13236484D01*
X2308630Y-13236484D02*
X2289583Y-13236484D01*
X2289583Y-13236484D02*
X2270535Y-13226960D01*
X2270535Y-13226960D02*
X2261011Y-13217436D01*
X2261011Y-13217436D02*
X2251488Y-13198388D01*
X2251488Y-13198388D02*
X2241964Y-13160293D01*
X2241964Y-13160293D02*
X2241964Y-13112674D01*
X2241964Y-13112674D02*
X2251488Y-13074579D01*
X2251488Y-13074579D02*
X2261011Y-13055531D01*
X2261011Y-13055531D02*
X2270535Y-13046008D01*
X2270535Y-13046008D02*
X2289583Y-13036484D01*
X2441964Y-13217436D02*
X2451488Y-13226960D01*
X2451488Y-13226960D02*
X2441964Y-13236484D01*
X2441964Y-13236484D02*
X2432440Y-13226960D01*
X2432440Y-13226960D02*
X2441964Y-13217436D01*
X2441964Y-13217436D02*
X2441964Y-13236484D01*
X2632440Y-13036484D02*
X2537202Y-13036484D01*
X2537202Y-13036484D02*
X2527678Y-13131722D01*
X2527678Y-13131722D02*
X2537202Y-13122198D01*
X2537202Y-13122198D02*
X2556249Y-13112674D01*
X2556249Y-13112674D02*
X2603869Y-13112674D01*
X2603869Y-13112674D02*
X2622916Y-13122198D01*
X2622916Y-13122198D02*
X2632440Y-13131722D01*
X2632440Y-13131722D02*
X2641964Y-13150769D01*
X2641964Y-13150769D02*
X2641964Y-13198388D01*
X2641964Y-13198388D02*
X2632440Y-13217436D01*
X2632440Y-13217436D02*
X2622916Y-13226960D01*
X2622916Y-13226960D02*
X2603869Y-13236484D01*
X2603869Y-13236484D02*
X2556249Y-13236484D01*
X2556249Y-13236484D02*
X2537202Y-13226960D01*
X2537202Y-13226960D02*
X2527678Y-13217436D01*
X2765773Y-13036484D02*
X2784821Y-13036484D01*
X2784821Y-13036484D02*
X2803868Y-13046008D01*
X2803868Y-13046008D02*
X2813392Y-13055531D01*
X2813392Y-13055531D02*
X2822916Y-13074579D01*
X2822916Y-13074579D02*
X2832440Y-13112674D01*
X2832440Y-13112674D02*
X2832440Y-13160293D01*
X2832440Y-13160293D02*
X2822916Y-13198388D01*
X2822916Y-13198388D02*
X2813392Y-13217436D01*
X2813392Y-13217436D02*
X2803868Y-13226960D01*
X2803868Y-13226960D02*
X2784821Y-13236484D01*
X2784821Y-13236484D02*
X2765773Y-13236484D01*
X2765773Y-13236484D02*
X2746726Y-13226960D01*
X2746726Y-13226960D02*
X2737202Y-13217436D01*
X2737202Y-13217436D02*
X2727678Y-13198388D01*
X2727678Y-13198388D02*
X2718154Y-13160293D01*
X2718154Y-13160293D02*
X2718154Y-13112674D01*
X2718154Y-13112674D02*
X2727678Y-13074579D01*
X2727678Y-13074579D02*
X2737202Y-13055531D01*
X2737202Y-13055531D02*
X2746726Y-13046008D01*
X2746726Y-13046008D02*
X2765773Y-13036484D01*
X2956249Y-13036484D02*
X2975297Y-13036484D01*
X2975297Y-13036484D02*
X2994345Y-13046008D01*
X2994345Y-13046008D02*
X3003868Y-13055531D01*
X3003868Y-13055531D02*
X3013392Y-13074579D01*
X3013392Y-13074579D02*
X3022916Y-13112674D01*
X3022916Y-13112674D02*
X3022916Y-13160293D01*
X3022916Y-13160293D02*
X3013392Y-13198388D01*
X3013392Y-13198388D02*
X3003868Y-13217436D01*
X3003868Y-13217436D02*
X2994345Y-13226960D01*
X2994345Y-13226960D02*
X2975297Y-13236484D01*
X2975297Y-13236484D02*
X2956249Y-13236484D01*
X2956249Y-13236484D02*
X2937202Y-13226960D01*
X2937202Y-13226960D02*
X2927678Y-13217436D01*
X2927678Y-13217436D02*
X2918154Y-13198388D01*
X2918154Y-13198388D02*
X2908630Y-13160293D01*
X2908630Y-13160293D02*
X2908630Y-13112674D01*
X2908630Y-13112674D02*
X2918154Y-13074579D01*
X2918154Y-13074579D02*
X2927678Y-13055531D01*
X2927678Y-13055531D02*
X2937202Y-13046008D01*
X2937202Y-13046008D02*
X2956249Y-13036484D01*
X3108630Y-13236484D02*
X3108630Y-13103150D01*
X3108630Y-13122198D02*
X3118154Y-13112674D01*
X3118154Y-13112674D02*
X3137202Y-13103150D01*
X3137202Y-13103150D02*
X3165773Y-13103150D01*
X3165773Y-13103150D02*
X3184821Y-13112674D01*
X3184821Y-13112674D02*
X3194345Y-13131722D01*
X3194345Y-13131722D02*
X3194345Y-13236484D01*
X3194345Y-13131722D02*
X3203868Y-13112674D01*
X3203868Y-13112674D02*
X3222916Y-13103150D01*
X3222916Y-13103150D02*
X3251487Y-13103150D01*
X3251487Y-13103150D02*
X3270535Y-13112674D01*
X3270535Y-13112674D02*
X3280059Y-13131722D01*
X3280059Y-13131722D02*
X3280059Y-13236484D01*
X3375297Y-13236484D02*
X3375297Y-13103150D01*
X3375297Y-13122198D02*
X3384821Y-13112674D01*
X3384821Y-13112674D02*
X3403868Y-13103150D01*
X3403868Y-13103150D02*
X3432440Y-13103150D01*
X3432440Y-13103150D02*
X3451488Y-13112674D01*
X3451488Y-13112674D02*
X3461011Y-13131722D01*
X3461011Y-13131722D02*
X3461011Y-13236484D01*
X3461011Y-13131722D02*
X3470535Y-13112674D01*
X3470535Y-13112674D02*
X3489583Y-13103150D01*
X3489583Y-13103150D02*
X3518154Y-13103150D01*
X3518154Y-13103150D02*
X3537202Y-13112674D01*
X3537202Y-13112674D02*
X3546726Y-13131722D01*
X3546726Y-13131722D02*
X3546726Y-13236484D01*
X3937202Y-13026960D02*
X3765773Y-13284103D01*
X4194345Y-13036484D02*
X4213393Y-13036484D01*
X4213393Y-13036484D02*
X4232440Y-13046008D01*
X4232440Y-13046008D02*
X4241964Y-13055531D01*
X4241964Y-13055531D02*
X4251488Y-13074579D01*
X4251488Y-13074579D02*
X4261012Y-13112674D01*
X4261012Y-13112674D02*
X4261012Y-13160293D01*
X4261012Y-13160293D02*
X4251488Y-13198388D01*
X4251488Y-13198388D02*
X4241964Y-13217436D01*
X4241964Y-13217436D02*
X4232440Y-13226960D01*
X4232440Y-13226960D02*
X4213393Y-13236484D01*
X4213393Y-13236484D02*
X4194345Y-13236484D01*
X4194345Y-13236484D02*
X4175297Y-13226960D01*
X4175297Y-13226960D02*
X4165773Y-13217436D01*
X4165773Y-13217436D02*
X4156250Y-13198388D01*
X4156250Y-13198388D02*
X4146726Y-13160293D01*
X4146726Y-13160293D02*
X4146726Y-13112674D01*
X4146726Y-13112674D02*
X4156250Y-13074579D01*
X4156250Y-13074579D02*
X4165773Y-13055531D01*
X4165773Y-13055531D02*
X4175297Y-13046008D01*
X4175297Y-13046008D02*
X4194345Y-13036484D01*
X4346726Y-13217436D02*
X4356250Y-13226960D01*
X4356250Y-13226960D02*
X4346726Y-13236484D01*
X4346726Y-13236484D02*
X4337202Y-13226960D01*
X4337202Y-13226960D02*
X4346726Y-13217436D01*
X4346726Y-13217436D02*
X4346726Y-13236484D01*
X4480059Y-13036484D02*
X4499107Y-13036484D01*
X4499107Y-13036484D02*
X4518154Y-13046008D01*
X4518154Y-13046008D02*
X4527678Y-13055531D01*
X4527678Y-13055531D02*
X4537202Y-13074579D01*
X4537202Y-13074579D02*
X4546726Y-13112674D01*
X4546726Y-13112674D02*
X4546726Y-13160293D01*
X4546726Y-13160293D02*
X4537202Y-13198388D01*
X4537202Y-13198388D02*
X4527678Y-13217436D01*
X4527678Y-13217436D02*
X4518154Y-13226960D01*
X4518154Y-13226960D02*
X4499107Y-13236484D01*
X4499107Y-13236484D02*
X4480059Y-13236484D01*
X4480059Y-13236484D02*
X4461012Y-13226960D01*
X4461012Y-13226960D02*
X4451488Y-13217436D01*
X4451488Y-13217436D02*
X4441964Y-13198388D01*
X4441964Y-13198388D02*
X4432440Y-13160293D01*
X4432440Y-13160293D02*
X4432440Y-13112674D01*
X4432440Y-13112674D02*
X4441964Y-13074579D01*
X4441964Y-13074579D02*
X4451488Y-13055531D01*
X4451488Y-13055531D02*
X4461012Y-13046008D01*
X4461012Y-13046008D02*
X4480059Y-13036484D01*
X4737202Y-13236484D02*
X4622916Y-13236484D01*
X4680059Y-13236484D02*
X4680059Y-13036484D01*
X4680059Y-13036484D02*
X4661012Y-13065055D01*
X4661012Y-13065055D02*
X4641964Y-13084103D01*
X4641964Y-13084103D02*
X4622916Y-13093627D01*
X4832440Y-13236484D02*
X4870535Y-13236484D01*
X4870535Y-13236484D02*
X4889583Y-13226960D01*
X4889583Y-13226960D02*
X4899107Y-13217436D01*
X4899107Y-13217436D02*
X4918154Y-13188865D01*
X4918154Y-13188865D02*
X4927678Y-13150769D01*
X4927678Y-13150769D02*
X4927678Y-13074579D01*
X4927678Y-13074579D02*
X4918154Y-13055531D01*
X4918154Y-13055531D02*
X4908631Y-13046008D01*
X4908631Y-13046008D02*
X4889583Y-13036484D01*
X4889583Y-13036484D02*
X4851488Y-13036484D01*
X4851488Y-13036484D02*
X4832440Y-13046008D01*
X4832440Y-13046008D02*
X4822916Y-13055531D01*
X4822916Y-13055531D02*
X4813393Y-13074579D01*
X4813393Y-13074579D02*
X4813393Y-13122198D01*
X4813393Y-13122198D02*
X4822916Y-13141246D01*
X4822916Y-13141246D02*
X4832440Y-13150769D01*
X4832440Y-13150769D02*
X4851488Y-13160293D01*
X4851488Y-13160293D02*
X4889583Y-13160293D01*
X4889583Y-13160293D02*
X4908631Y-13150769D01*
X4908631Y-13150769D02*
X4918154Y-13141246D01*
X4918154Y-13141246D02*
X4927678Y-13122198D01*
X4994345Y-13036484D02*
X5127678Y-13036484D01*
X5127678Y-13036484D02*
X5041964Y-13236484D01*
X5194345Y-13036484D02*
X5194345Y-13074579D01*
X5270535Y-13036484D02*
X5270535Y-13074579D01*
X5565774Y-13312674D02*
X5556250Y-13303150D01*
X5556250Y-13303150D02*
X5537202Y-13274579D01*
X5537202Y-13274579D02*
X5527678Y-13255531D01*
X5527678Y-13255531D02*
X5518155Y-13226960D01*
X5518155Y-13226960D02*
X5508631Y-13179341D01*
X5508631Y-13179341D02*
X5508631Y-13141246D01*
X5508631Y-13141246D02*
X5518155Y-13093627D01*
X5518155Y-13093627D02*
X5527678Y-13065055D01*
X5527678Y-13065055D02*
X5537202Y-13046008D01*
X5537202Y-13046008D02*
X5556250Y-13017436D01*
X5556250Y-13017436D02*
X5565774Y-13007912D01*
X5622916Y-13036484D02*
X5756250Y-13036484D01*
X5756250Y-13036484D02*
X5670535Y-13236484D01*
X5918154Y-13103150D02*
X5918154Y-13236484D01*
X5870535Y-13026960D02*
X5822916Y-13169817D01*
X5822916Y-13169817D02*
X5946726Y-13169817D01*
X6175297Y-13236484D02*
X6175297Y-13036484D01*
X6261012Y-13236484D02*
X6261012Y-13131722D01*
X6261012Y-13131722D02*
X6251488Y-13112674D01*
X6251488Y-13112674D02*
X6232440Y-13103150D01*
X6232440Y-13103150D02*
X6203869Y-13103150D01*
X6203869Y-13103150D02*
X6184821Y-13112674D01*
X6184821Y-13112674D02*
X6175297Y-13122198D01*
X6384821Y-13236484D02*
X6365774Y-13226960D01*
X6365774Y-13226960D02*
X6356250Y-13217436D01*
X6356250Y-13217436D02*
X6346726Y-13198388D01*
X6346726Y-13198388D02*
X6346726Y-13141246D01*
X6346726Y-13141246D02*
X6356250Y-13122198D01*
X6356250Y-13122198D02*
X6365774Y-13112674D01*
X6365774Y-13112674D02*
X6384821Y-13103150D01*
X6384821Y-13103150D02*
X6413393Y-13103150D01*
X6413393Y-13103150D02*
X6432440Y-13112674D01*
X6432440Y-13112674D02*
X6441964Y-13122198D01*
X6441964Y-13122198D02*
X6451488Y-13141246D01*
X6451488Y-13141246D02*
X6451488Y-13198388D01*
X6451488Y-13198388D02*
X6441964Y-13217436D01*
X6441964Y-13217436D02*
X6432440Y-13226960D01*
X6432440Y-13226960D02*
X6413393Y-13236484D01*
X6413393Y-13236484D02*
X6384821Y-13236484D01*
X6565774Y-13236484D02*
X6546726Y-13226960D01*
X6546726Y-13226960D02*
X6537202Y-13207912D01*
X6537202Y-13207912D02*
X6537202Y-13036484D01*
X6718155Y-13226960D02*
X6699107Y-13236484D01*
X6699107Y-13236484D02*
X6661012Y-13236484D01*
X6661012Y-13236484D02*
X6641964Y-13226960D01*
X6641964Y-13226960D02*
X6632440Y-13207912D01*
X6632440Y-13207912D02*
X6632440Y-13131722D01*
X6632440Y-13131722D02*
X6641964Y-13112674D01*
X6641964Y-13112674D02*
X6661012Y-13103150D01*
X6661012Y-13103150D02*
X6699107Y-13103150D01*
X6699107Y-13103150D02*
X6718155Y-13112674D01*
X6718155Y-13112674D02*
X6727678Y-13131722D01*
X6727678Y-13131722D02*
X6727678Y-13150769D01*
X6727678Y-13150769D02*
X6632440Y-13169817D01*
X6803869Y-13226960D02*
X6822916Y-13236484D01*
X6822916Y-13236484D02*
X6861012Y-13236484D01*
X6861012Y-13236484D02*
X6880059Y-13226960D01*
X6880059Y-13226960D02*
X6889583Y-13207912D01*
X6889583Y-13207912D02*
X6889583Y-13198388D01*
X6889583Y-13198388D02*
X6880059Y-13179341D01*
X6880059Y-13179341D02*
X6861012Y-13169817D01*
X6861012Y-13169817D02*
X6832440Y-13169817D01*
X6832440Y-13169817D02*
X6813393Y-13160293D01*
X6813393Y-13160293D02*
X6803869Y-13141246D01*
X6803869Y-13141246D02*
X6803869Y-13131722D01*
X6803869Y-13131722D02*
X6813393Y-13112674D01*
X6813393Y-13112674D02*
X6832440Y-13103150D01*
X6832440Y-13103150D02*
X6861012Y-13103150D01*
X6861012Y-13103150D02*
X6880059Y-13112674D01*
X6956250Y-13312674D02*
X6965774Y-13303150D01*
X6965774Y-13303150D02*
X6984821Y-13274579D01*
X6984821Y-13274579D02*
X6994345Y-13255531D01*
X6994345Y-13255531D02*
X7003869Y-13226960D01*
X7003869Y-13226960D02*
X7013393Y-13179341D01*
X7013393Y-13179341D02*
X7013393Y-13141246D01*
X7013393Y-13141246D02*
X7003869Y-13093627D01*
X7003869Y-13093627D02*
X6994345Y-13065055D01*
X6994345Y-13065055D02*
X6984821Y-13046008D01*
X6984821Y-13046008D02*
X6965774Y-13017436D01*
X6965774Y-13017436D02*
X6956250Y-13007912D01*
X7318155Y-13312674D02*
X7308631Y-13303150D01*
X7308631Y-13303150D02*
X7289583Y-13274579D01*
X7289583Y-13274579D02*
X7280059Y-13255531D01*
X7280059Y-13255531D02*
X7270536Y-13226960D01*
X7270536Y-13226960D02*
X7261012Y-13179341D01*
X7261012Y-13179341D02*
X7261012Y-13141246D01*
X7261012Y-13141246D02*
X7270536Y-13093627D01*
X7270536Y-13093627D02*
X7280059Y-13065055D01*
X7280059Y-13065055D02*
X7289583Y-13046008D01*
X7289583Y-13046008D02*
X7308631Y-13017436D01*
X7308631Y-13017436D02*
X7318155Y-13007912D01*
X7394345Y-13103150D02*
X7394345Y-13236484D01*
X7394345Y-13122198D02*
X7403869Y-13112674D01*
X7403869Y-13112674D02*
X7422916Y-13103150D01*
X7422916Y-13103150D02*
X7451488Y-13103150D01*
X7451488Y-13103150D02*
X7470536Y-13112674D01*
X7470536Y-13112674D02*
X7480059Y-13131722D01*
X7480059Y-13131722D02*
X7480059Y-13236484D01*
X7603869Y-13236484D02*
X7584821Y-13226960D01*
X7584821Y-13226960D02*
X7575297Y-13217436D01*
X7575297Y-13217436D02*
X7565774Y-13198388D01*
X7565774Y-13198388D02*
X7565774Y-13141246D01*
X7565774Y-13141246D02*
X7575297Y-13122198D01*
X7575297Y-13122198D02*
X7584821Y-13112674D01*
X7584821Y-13112674D02*
X7603869Y-13103150D01*
X7603869Y-13103150D02*
X7632440Y-13103150D01*
X7632440Y-13103150D02*
X7651488Y-13112674D01*
X7651488Y-13112674D02*
X7661012Y-13122198D01*
X7661012Y-13122198D02*
X7670536Y-13141246D01*
X7670536Y-13141246D02*
X7670536Y-13198388D01*
X7670536Y-13198388D02*
X7661012Y-13217436D01*
X7661012Y-13217436D02*
X7651488Y-13226960D01*
X7651488Y-13226960D02*
X7632440Y-13236484D01*
X7632440Y-13236484D02*
X7603869Y-13236484D01*
X7727678Y-13103150D02*
X7803869Y-13103150D01*
X7756250Y-13036484D02*
X7756250Y-13207912D01*
X7756250Y-13207912D02*
X7765774Y-13226960D01*
X7765774Y-13226960D02*
X7784821Y-13236484D01*
X7784821Y-13236484D02*
X7803869Y-13236484D01*
X8022917Y-13103150D02*
X8022917Y-13303150D01*
X8022917Y-13112674D02*
X8041964Y-13103150D01*
X8041964Y-13103150D02*
X8080059Y-13103150D01*
X8080059Y-13103150D02*
X8099107Y-13112674D01*
X8099107Y-13112674D02*
X8108631Y-13122198D01*
X8108631Y-13122198D02*
X8118155Y-13141246D01*
X8118155Y-13141246D02*
X8118155Y-13198388D01*
X8118155Y-13198388D02*
X8108631Y-13217436D01*
X8108631Y-13217436D02*
X8099107Y-13226960D01*
X8099107Y-13226960D02*
X8080059Y-13236484D01*
X8080059Y-13236484D02*
X8041964Y-13236484D01*
X8041964Y-13236484D02*
X8022917Y-13226960D01*
X8232440Y-13236484D02*
X8213393Y-13226960D01*
X8213393Y-13226960D02*
X8203869Y-13207912D01*
X8203869Y-13207912D02*
X8203869Y-13036484D01*
X8394345Y-13236484D02*
X8394345Y-13131722D01*
X8394345Y-13131722D02*
X8384821Y-13112674D01*
X8384821Y-13112674D02*
X8365774Y-13103150D01*
X8365774Y-13103150D02*
X8327678Y-13103150D01*
X8327678Y-13103150D02*
X8308631Y-13112674D01*
X8394345Y-13226960D02*
X8375298Y-13236484D01*
X8375298Y-13236484D02*
X8327678Y-13236484D01*
X8327678Y-13236484D02*
X8308631Y-13226960D01*
X8308631Y-13226960D02*
X8299107Y-13207912D01*
X8299107Y-13207912D02*
X8299107Y-13188865D01*
X8299107Y-13188865D02*
X8308631Y-13169817D01*
X8308631Y-13169817D02*
X8327678Y-13160293D01*
X8327678Y-13160293D02*
X8375298Y-13160293D01*
X8375298Y-13160293D02*
X8394345Y-13150769D01*
X8461012Y-13103150D02*
X8537202Y-13103150D01*
X8489583Y-13036484D02*
X8489583Y-13207912D01*
X8489583Y-13207912D02*
X8499107Y-13226960D01*
X8499107Y-13226960D02*
X8518155Y-13236484D01*
X8518155Y-13236484D02*
X8537202Y-13236484D01*
X8680060Y-13226960D02*
X8661012Y-13236484D01*
X8661012Y-13236484D02*
X8622917Y-13236484D01*
X8622917Y-13236484D02*
X8603869Y-13226960D01*
X8603869Y-13226960D02*
X8594345Y-13207912D01*
X8594345Y-13207912D02*
X8594345Y-13131722D01*
X8594345Y-13131722D02*
X8603869Y-13112674D01*
X8603869Y-13112674D02*
X8622917Y-13103150D01*
X8622917Y-13103150D02*
X8661012Y-13103150D01*
X8661012Y-13103150D02*
X8680060Y-13112674D01*
X8680060Y-13112674D02*
X8689583Y-13131722D01*
X8689583Y-13131722D02*
X8689583Y-13150769D01*
X8689583Y-13150769D02*
X8594345Y-13169817D01*
X8861012Y-13236484D02*
X8861012Y-13036484D01*
X8861012Y-13226960D02*
X8841964Y-13236484D01*
X8841964Y-13236484D02*
X8803869Y-13236484D01*
X8803869Y-13236484D02*
X8784821Y-13226960D01*
X8784821Y-13226960D02*
X8775298Y-13217436D01*
X8775298Y-13217436D02*
X8765774Y-13198388D01*
X8765774Y-13198388D02*
X8765774Y-13141246D01*
X8765774Y-13141246D02*
X8775298Y-13122198D01*
X8775298Y-13122198D02*
X8784821Y-13112674D01*
X8784821Y-13112674D02*
X8803869Y-13103150D01*
X8803869Y-13103150D02*
X8841964Y-13103150D01*
X8841964Y-13103150D02*
X8861012Y-13112674D01*
X8937202Y-13312674D02*
X8946726Y-13303150D01*
X8946726Y-13303150D02*
X8965774Y-13274579D01*
X8965774Y-13274579D02*
X8975298Y-13255531D01*
X8975298Y-13255531D02*
X8984821Y-13226960D01*
X8984821Y-13226960D02*
X8994345Y-13179341D01*
X8994345Y-13179341D02*
X8994345Y-13141246D01*
X8994345Y-13141246D02*
X8984821Y-13093627D01*
X8984821Y-13093627D02*
X8975298Y-13065055D01*
X8975298Y-13065055D02*
X8965774Y-13046008D01*
X8965774Y-13046008D02*
X8946726Y-13017436D01*
X8946726Y-13017436D02*
X8937202Y-13007912D01*
D13*
X1990711Y-13409000D02*
G75*
G03*
X1990711Y-13409000I-60000J0D01*
G01*
D11*
X2356249Y-13500484D02*
X2241964Y-13500484D01*
X2299107Y-13500484D02*
X2299107Y-13300484D01*
X2299107Y-13300484D02*
X2280059Y-13329055D01*
X2280059Y-13329055D02*
X2261011Y-13348103D01*
X2261011Y-13348103D02*
X2241964Y-13357627D01*
X2441964Y-13481436D02*
X2451488Y-13490960D01*
X2451488Y-13490960D02*
X2441964Y-13500484D01*
X2441964Y-13500484D02*
X2432440Y-13490960D01*
X2432440Y-13490960D02*
X2441964Y-13481436D01*
X2441964Y-13481436D02*
X2441964Y-13500484D01*
X2527678Y-13319531D02*
X2537202Y-13310008D01*
X2537202Y-13310008D02*
X2556249Y-13300484D01*
X2556249Y-13300484D02*
X2603869Y-13300484D01*
X2603869Y-13300484D02*
X2622916Y-13310008D01*
X2622916Y-13310008D02*
X2632440Y-13319531D01*
X2632440Y-13319531D02*
X2641964Y-13338579D01*
X2641964Y-13338579D02*
X2641964Y-13357627D01*
X2641964Y-13357627D02*
X2632440Y-13386198D01*
X2632440Y-13386198D02*
X2518154Y-13500484D01*
X2518154Y-13500484D02*
X2641964Y-13500484D01*
X2765773Y-13300484D02*
X2784821Y-13300484D01*
X2784821Y-13300484D02*
X2803868Y-13310008D01*
X2803868Y-13310008D02*
X2813392Y-13319531D01*
X2813392Y-13319531D02*
X2822916Y-13338579D01*
X2822916Y-13338579D02*
X2832440Y-13376674D01*
X2832440Y-13376674D02*
X2832440Y-13424293D01*
X2832440Y-13424293D02*
X2822916Y-13462388D01*
X2822916Y-13462388D02*
X2813392Y-13481436D01*
X2813392Y-13481436D02*
X2803868Y-13490960D01*
X2803868Y-13490960D02*
X2784821Y-13500484D01*
X2784821Y-13500484D02*
X2765773Y-13500484D01*
X2765773Y-13500484D02*
X2746726Y-13490960D01*
X2746726Y-13490960D02*
X2737202Y-13481436D01*
X2737202Y-13481436D02*
X2727678Y-13462388D01*
X2727678Y-13462388D02*
X2718154Y-13424293D01*
X2718154Y-13424293D02*
X2718154Y-13376674D01*
X2718154Y-13376674D02*
X2727678Y-13338579D01*
X2727678Y-13338579D02*
X2737202Y-13319531D01*
X2737202Y-13319531D02*
X2746726Y-13310008D01*
X2746726Y-13310008D02*
X2765773Y-13300484D01*
X2956249Y-13300484D02*
X2975297Y-13300484D01*
X2975297Y-13300484D02*
X2994345Y-13310008D01*
X2994345Y-13310008D02*
X3003868Y-13319531D01*
X3003868Y-13319531D02*
X3013392Y-13338579D01*
X3013392Y-13338579D02*
X3022916Y-13376674D01*
X3022916Y-13376674D02*
X3022916Y-13424293D01*
X3022916Y-13424293D02*
X3013392Y-13462388D01*
X3013392Y-13462388D02*
X3003868Y-13481436D01*
X3003868Y-13481436D02*
X2994345Y-13490960D01*
X2994345Y-13490960D02*
X2975297Y-13500484D01*
X2975297Y-13500484D02*
X2956249Y-13500484D01*
X2956249Y-13500484D02*
X2937202Y-13490960D01*
X2937202Y-13490960D02*
X2927678Y-13481436D01*
X2927678Y-13481436D02*
X2918154Y-13462388D01*
X2918154Y-13462388D02*
X2908630Y-13424293D01*
X2908630Y-13424293D02*
X2908630Y-13376674D01*
X2908630Y-13376674D02*
X2918154Y-13338579D01*
X2918154Y-13338579D02*
X2927678Y-13319531D01*
X2927678Y-13319531D02*
X2937202Y-13310008D01*
X2937202Y-13310008D02*
X2956249Y-13300484D01*
X3108630Y-13500484D02*
X3108630Y-13367150D01*
X3108630Y-13386198D02*
X3118154Y-13376674D01*
X3118154Y-13376674D02*
X3137202Y-13367150D01*
X3137202Y-13367150D02*
X3165773Y-13367150D01*
X3165773Y-13367150D02*
X3184821Y-13376674D01*
X3184821Y-13376674D02*
X3194345Y-13395722D01*
X3194345Y-13395722D02*
X3194345Y-13500484D01*
X3194345Y-13395722D02*
X3203868Y-13376674D01*
X3203868Y-13376674D02*
X3222916Y-13367150D01*
X3222916Y-13367150D02*
X3251487Y-13367150D01*
X3251487Y-13367150D02*
X3270535Y-13376674D01*
X3270535Y-13376674D02*
X3280059Y-13395722D01*
X3280059Y-13395722D02*
X3280059Y-13500484D01*
X3375297Y-13500484D02*
X3375297Y-13367150D01*
X3375297Y-13386198D02*
X3384821Y-13376674D01*
X3384821Y-13376674D02*
X3403868Y-13367150D01*
X3403868Y-13367150D02*
X3432440Y-13367150D01*
X3432440Y-13367150D02*
X3451488Y-13376674D01*
X3451488Y-13376674D02*
X3461011Y-13395722D01*
X3461011Y-13395722D02*
X3461011Y-13500484D01*
X3461011Y-13395722D02*
X3470535Y-13376674D01*
X3470535Y-13376674D02*
X3489583Y-13367150D01*
X3489583Y-13367150D02*
X3518154Y-13367150D01*
X3518154Y-13367150D02*
X3537202Y-13376674D01*
X3537202Y-13376674D02*
X3546726Y-13395722D01*
X3546726Y-13395722D02*
X3546726Y-13500484D01*
X3937202Y-13290960D02*
X3765773Y-13548103D01*
X4194345Y-13300484D02*
X4213393Y-13300484D01*
X4213393Y-13300484D02*
X4232440Y-13310008D01*
X4232440Y-13310008D02*
X4241964Y-13319531D01*
X4241964Y-13319531D02*
X4251488Y-13338579D01*
X4251488Y-13338579D02*
X4261012Y-13376674D01*
X4261012Y-13376674D02*
X4261012Y-13424293D01*
X4261012Y-13424293D02*
X4251488Y-13462388D01*
X4251488Y-13462388D02*
X4241964Y-13481436D01*
X4241964Y-13481436D02*
X4232440Y-13490960D01*
X4232440Y-13490960D02*
X4213393Y-13500484D01*
X4213393Y-13500484D02*
X4194345Y-13500484D01*
X4194345Y-13500484D02*
X4175297Y-13490960D01*
X4175297Y-13490960D02*
X4165773Y-13481436D01*
X4165773Y-13481436D02*
X4156250Y-13462388D01*
X4156250Y-13462388D02*
X4146726Y-13424293D01*
X4146726Y-13424293D02*
X4146726Y-13376674D01*
X4146726Y-13376674D02*
X4156250Y-13338579D01*
X4156250Y-13338579D02*
X4165773Y-13319531D01*
X4165773Y-13319531D02*
X4175297Y-13310008D01*
X4175297Y-13310008D02*
X4194345Y-13300484D01*
X4346726Y-13481436D02*
X4356250Y-13490960D01*
X4356250Y-13490960D02*
X4346726Y-13500484D01*
X4346726Y-13500484D02*
X4337202Y-13490960D01*
X4337202Y-13490960D02*
X4346726Y-13481436D01*
X4346726Y-13481436D02*
X4346726Y-13500484D01*
X4480059Y-13300484D02*
X4499107Y-13300484D01*
X4499107Y-13300484D02*
X4518154Y-13310008D01*
X4518154Y-13310008D02*
X4527678Y-13319531D01*
X4527678Y-13319531D02*
X4537202Y-13338579D01*
X4537202Y-13338579D02*
X4546726Y-13376674D01*
X4546726Y-13376674D02*
X4546726Y-13424293D01*
X4546726Y-13424293D02*
X4537202Y-13462388D01*
X4537202Y-13462388D02*
X4527678Y-13481436D01*
X4527678Y-13481436D02*
X4518154Y-13490960D01*
X4518154Y-13490960D02*
X4499107Y-13500484D01*
X4499107Y-13500484D02*
X4480059Y-13500484D01*
X4480059Y-13500484D02*
X4461012Y-13490960D01*
X4461012Y-13490960D02*
X4451488Y-13481436D01*
X4451488Y-13481436D02*
X4441964Y-13462388D01*
X4441964Y-13462388D02*
X4432440Y-13424293D01*
X4432440Y-13424293D02*
X4432440Y-13376674D01*
X4432440Y-13376674D02*
X4441964Y-13338579D01*
X4441964Y-13338579D02*
X4451488Y-13319531D01*
X4451488Y-13319531D02*
X4461012Y-13310008D01*
X4461012Y-13310008D02*
X4480059Y-13300484D01*
X4718154Y-13367150D02*
X4718154Y-13500484D01*
X4670535Y-13290960D02*
X4622916Y-13433817D01*
X4622916Y-13433817D02*
X4746726Y-13433817D01*
X4803869Y-13300484D02*
X4937202Y-13300484D01*
X4937202Y-13300484D02*
X4851488Y-13500484D01*
X5003869Y-13319531D02*
X5013393Y-13310008D01*
X5013393Y-13310008D02*
X5032440Y-13300484D01*
X5032440Y-13300484D02*
X5080059Y-13300484D01*
X5080059Y-13300484D02*
X5099107Y-13310008D01*
X5099107Y-13310008D02*
X5108631Y-13319531D01*
X5108631Y-13319531D02*
X5118154Y-13338579D01*
X5118154Y-13338579D02*
X5118154Y-13357627D01*
X5118154Y-13357627D02*
X5108631Y-13386198D01*
X5108631Y-13386198D02*
X4994345Y-13500484D01*
X4994345Y-13500484D02*
X5118154Y-13500484D01*
X5194345Y-13300484D02*
X5194345Y-13338579D01*
X5270535Y-13300484D02*
X5270535Y-13338579D01*
X5565774Y-13576674D02*
X5556250Y-13567150D01*
X5556250Y-13567150D02*
X5537202Y-13538579D01*
X5537202Y-13538579D02*
X5527678Y-13519531D01*
X5527678Y-13519531D02*
X5518155Y-13490960D01*
X5518155Y-13490960D02*
X5508631Y-13443341D01*
X5508631Y-13443341D02*
X5508631Y-13405246D01*
X5508631Y-13405246D02*
X5518155Y-13357627D01*
X5518155Y-13357627D02*
X5527678Y-13329055D01*
X5527678Y-13329055D02*
X5537202Y-13310008D01*
X5537202Y-13310008D02*
X5556250Y-13281436D01*
X5556250Y-13281436D02*
X5565774Y-13271912D01*
X5727678Y-13300484D02*
X5689583Y-13300484D01*
X5689583Y-13300484D02*
X5670535Y-13310008D01*
X5670535Y-13310008D02*
X5661012Y-13319531D01*
X5661012Y-13319531D02*
X5641964Y-13348103D01*
X5641964Y-13348103D02*
X5632440Y-13386198D01*
X5632440Y-13386198D02*
X5632440Y-13462388D01*
X5632440Y-13462388D02*
X5641964Y-13481436D01*
X5641964Y-13481436D02*
X5651488Y-13490960D01*
X5651488Y-13490960D02*
X5670535Y-13500484D01*
X5670535Y-13500484D02*
X5708631Y-13500484D01*
X5708631Y-13500484D02*
X5727678Y-13490960D01*
X5727678Y-13490960D02*
X5737202Y-13481436D01*
X5737202Y-13481436D02*
X5746726Y-13462388D01*
X5746726Y-13462388D02*
X5746726Y-13414769D01*
X5746726Y-13414769D02*
X5737202Y-13395722D01*
X5737202Y-13395722D02*
X5727678Y-13386198D01*
X5727678Y-13386198D02*
X5708631Y-13376674D01*
X5708631Y-13376674D02*
X5670535Y-13376674D01*
X5670535Y-13376674D02*
X5651488Y-13386198D01*
X5651488Y-13386198D02*
X5641964Y-13395722D01*
X5641964Y-13395722D02*
X5632440Y-13414769D01*
X5984821Y-13500484D02*
X5984821Y-13300484D01*
X6070535Y-13500484D02*
X6070535Y-13395722D01*
X6070535Y-13395722D02*
X6061012Y-13376674D01*
X6061012Y-13376674D02*
X6041964Y-13367150D01*
X6041964Y-13367150D02*
X6013393Y-13367150D01*
X6013393Y-13367150D02*
X5994345Y-13376674D01*
X5994345Y-13376674D02*
X5984821Y-13386198D01*
X6194345Y-13500484D02*
X6175297Y-13490960D01*
X6175297Y-13490960D02*
X6165774Y-13481436D01*
X6165774Y-13481436D02*
X6156250Y-13462388D01*
X6156250Y-13462388D02*
X6156250Y-13405246D01*
X6156250Y-13405246D02*
X6165774Y-13386198D01*
X6165774Y-13386198D02*
X6175297Y-13376674D01*
X6175297Y-13376674D02*
X6194345Y-13367150D01*
X6194345Y-13367150D02*
X6222916Y-13367150D01*
X6222916Y-13367150D02*
X6241964Y-13376674D01*
X6241964Y-13376674D02*
X6251488Y-13386198D01*
X6251488Y-13386198D02*
X6261012Y-13405246D01*
X6261012Y-13405246D02*
X6261012Y-13462388D01*
X6261012Y-13462388D02*
X6251488Y-13481436D01*
X6251488Y-13481436D02*
X6241964Y-13490960D01*
X6241964Y-13490960D02*
X6222916Y-13500484D01*
X6222916Y-13500484D02*
X6194345Y-13500484D01*
X6375297Y-13500484D02*
X6356250Y-13490960D01*
X6356250Y-13490960D02*
X6346726Y-13471912D01*
X6346726Y-13471912D02*
X6346726Y-13300484D01*
X6527678Y-13490960D02*
X6508631Y-13500484D01*
X6508631Y-13500484D02*
X6470535Y-13500484D01*
X6470535Y-13500484D02*
X6451488Y-13490960D01*
X6451488Y-13490960D02*
X6441964Y-13471912D01*
X6441964Y-13471912D02*
X6441964Y-13395722D01*
X6441964Y-13395722D02*
X6451488Y-13376674D01*
X6451488Y-13376674D02*
X6470535Y-13367150D01*
X6470535Y-13367150D02*
X6508631Y-13367150D01*
X6508631Y-13367150D02*
X6527678Y-13376674D01*
X6527678Y-13376674D02*
X6537202Y-13395722D01*
X6537202Y-13395722D02*
X6537202Y-13414769D01*
X6537202Y-13414769D02*
X6441964Y-13433817D01*
X6613393Y-13490960D02*
X6632440Y-13500484D01*
X6632440Y-13500484D02*
X6670535Y-13500484D01*
X6670535Y-13500484D02*
X6689583Y-13490960D01*
X6689583Y-13490960D02*
X6699107Y-13471912D01*
X6699107Y-13471912D02*
X6699107Y-13462388D01*
X6699107Y-13462388D02*
X6689583Y-13443341D01*
X6689583Y-13443341D02*
X6670535Y-13433817D01*
X6670535Y-13433817D02*
X6641964Y-13433817D01*
X6641964Y-13433817D02*
X6622916Y-13424293D01*
X6622916Y-13424293D02*
X6613393Y-13405246D01*
X6613393Y-13405246D02*
X6613393Y-13395722D01*
X6613393Y-13395722D02*
X6622916Y-13376674D01*
X6622916Y-13376674D02*
X6641964Y-13367150D01*
X6641964Y-13367150D02*
X6670535Y-13367150D01*
X6670535Y-13367150D02*
X6689583Y-13376674D01*
X6765774Y-13576674D02*
X6775297Y-13567150D01*
X6775297Y-13567150D02*
X6794345Y-13538579D01*
X6794345Y-13538579D02*
X6803869Y-13519531D01*
X6803869Y-13519531D02*
X6813393Y-13490960D01*
X6813393Y-13490960D02*
X6822916Y-13443341D01*
X6822916Y-13443341D02*
X6822916Y-13405246D01*
X6822916Y-13405246D02*
X6813393Y-13357627D01*
X6813393Y-13357627D02*
X6803869Y-13329055D01*
X6803869Y-13329055D02*
X6794345Y-13310008D01*
X6794345Y-13310008D02*
X6775297Y-13281436D01*
X6775297Y-13281436D02*
X6765774Y-13271912D01*
X7127678Y-13576674D02*
X7118155Y-13567150D01*
X7118155Y-13567150D02*
X7099107Y-13538579D01*
X7099107Y-13538579D02*
X7089583Y-13519531D01*
X7089583Y-13519531D02*
X7080059Y-13490960D01*
X7080059Y-13490960D02*
X7070536Y-13443341D01*
X7070536Y-13443341D02*
X7070536Y-13405246D01*
X7070536Y-13405246D02*
X7080059Y-13357627D01*
X7080059Y-13357627D02*
X7089583Y-13329055D01*
X7089583Y-13329055D02*
X7099107Y-13310008D01*
X7099107Y-13310008D02*
X7118155Y-13281436D01*
X7118155Y-13281436D02*
X7127678Y-13271912D01*
X7203869Y-13367150D02*
X7203869Y-13500484D01*
X7203869Y-13386198D02*
X7213393Y-13376674D01*
X7213393Y-13376674D02*
X7232440Y-13367150D01*
X7232440Y-13367150D02*
X7261012Y-13367150D01*
X7261012Y-13367150D02*
X7280059Y-13376674D01*
X7280059Y-13376674D02*
X7289583Y-13395722D01*
X7289583Y-13395722D02*
X7289583Y-13500484D01*
X7413393Y-13500484D02*
X7394345Y-13490960D01*
X7394345Y-13490960D02*
X7384821Y-13481436D01*
X7384821Y-13481436D02*
X7375297Y-13462388D01*
X7375297Y-13462388D02*
X7375297Y-13405246D01*
X7375297Y-13405246D02*
X7384821Y-13386198D01*
X7384821Y-13386198D02*
X7394345Y-13376674D01*
X7394345Y-13376674D02*
X7413393Y-13367150D01*
X7413393Y-13367150D02*
X7441964Y-13367150D01*
X7441964Y-13367150D02*
X7461012Y-13376674D01*
X7461012Y-13376674D02*
X7470536Y-13386198D01*
X7470536Y-13386198D02*
X7480059Y-13405246D01*
X7480059Y-13405246D02*
X7480059Y-13462388D01*
X7480059Y-13462388D02*
X7470536Y-13481436D01*
X7470536Y-13481436D02*
X7461012Y-13490960D01*
X7461012Y-13490960D02*
X7441964Y-13500484D01*
X7441964Y-13500484D02*
X7413393Y-13500484D01*
X7537202Y-13367150D02*
X7613393Y-13367150D01*
X7565774Y-13300484D02*
X7565774Y-13471912D01*
X7565774Y-13471912D02*
X7575297Y-13490960D01*
X7575297Y-13490960D02*
X7594345Y-13500484D01*
X7594345Y-13500484D02*
X7613393Y-13500484D01*
X7832440Y-13367150D02*
X7832440Y-13567150D01*
X7832440Y-13376674D02*
X7851488Y-13367150D01*
X7851488Y-13367150D02*
X7889583Y-13367150D01*
X7889583Y-13367150D02*
X7908631Y-13376674D01*
X7908631Y-13376674D02*
X7918155Y-13386198D01*
X7918155Y-13386198D02*
X7927678Y-13405246D01*
X7927678Y-13405246D02*
X7927678Y-13462388D01*
X7927678Y-13462388D02*
X7918155Y-13481436D01*
X7918155Y-13481436D02*
X7908631Y-13490960D01*
X7908631Y-13490960D02*
X7889583Y-13500484D01*
X7889583Y-13500484D02*
X7851488Y-13500484D01*
X7851488Y-13500484D02*
X7832440Y-13490960D01*
X8041964Y-13500484D02*
X8022917Y-13490960D01*
X8022917Y-13490960D02*
X8013393Y-13471912D01*
X8013393Y-13471912D02*
X8013393Y-13300484D01*
X8203869Y-13500484D02*
X8203869Y-13395722D01*
X8203869Y-13395722D02*
X8194345Y-13376674D01*
X8194345Y-13376674D02*
X8175298Y-13367150D01*
X8175298Y-13367150D02*
X8137202Y-13367150D01*
X8137202Y-13367150D02*
X8118155Y-13376674D01*
X8203869Y-13490960D02*
X8184821Y-13500484D01*
X8184821Y-13500484D02*
X8137202Y-13500484D01*
X8137202Y-13500484D02*
X8118155Y-13490960D01*
X8118155Y-13490960D02*
X8108631Y-13471912D01*
X8108631Y-13471912D02*
X8108631Y-13452865D01*
X8108631Y-13452865D02*
X8118155Y-13433817D01*
X8118155Y-13433817D02*
X8137202Y-13424293D01*
X8137202Y-13424293D02*
X8184821Y-13424293D01*
X8184821Y-13424293D02*
X8203869Y-13414769D01*
X8270536Y-13367150D02*
X8346726Y-13367150D01*
X8299107Y-13300484D02*
X8299107Y-13471912D01*
X8299107Y-13471912D02*
X8308631Y-13490960D01*
X8308631Y-13490960D02*
X8327678Y-13500484D01*
X8327678Y-13500484D02*
X8346726Y-13500484D01*
X8489583Y-13490960D02*
X8470536Y-13500484D01*
X8470536Y-13500484D02*
X8432440Y-13500484D01*
X8432440Y-13500484D02*
X8413393Y-13490960D01*
X8413393Y-13490960D02*
X8403869Y-13471912D01*
X8403869Y-13471912D02*
X8403869Y-13395722D01*
X8403869Y-13395722D02*
X8413393Y-13376674D01*
X8413393Y-13376674D02*
X8432440Y-13367150D01*
X8432440Y-13367150D02*
X8470536Y-13367150D01*
X8470536Y-13367150D02*
X8489583Y-13376674D01*
X8489583Y-13376674D02*
X8499107Y-13395722D01*
X8499107Y-13395722D02*
X8499107Y-13414769D01*
X8499107Y-13414769D02*
X8403869Y-13433817D01*
X8670536Y-13500484D02*
X8670536Y-13300484D01*
X8670536Y-13490960D02*
X8651488Y-13500484D01*
X8651488Y-13500484D02*
X8613393Y-13500484D01*
X8613393Y-13500484D02*
X8594345Y-13490960D01*
X8594345Y-13490960D02*
X8584821Y-13481436D01*
X8584821Y-13481436D02*
X8575298Y-13462388D01*
X8575298Y-13462388D02*
X8575298Y-13405246D01*
X8575298Y-13405246D02*
X8584821Y-13386198D01*
X8584821Y-13386198D02*
X8594345Y-13376674D01*
X8594345Y-13376674D02*
X8613393Y-13367150D01*
X8613393Y-13367150D02*
X8651488Y-13367150D01*
X8651488Y-13367150D02*
X8670536Y-13376674D01*
X8746726Y-13576674D02*
X8756250Y-13567150D01*
X8756250Y-13567150D02*
X8775298Y-13538579D01*
X8775298Y-13538579D02*
X8784821Y-13519531D01*
X8784821Y-13519531D02*
X8794345Y-13490960D01*
X8794345Y-13490960D02*
X8803869Y-13443341D01*
X8803869Y-13443341D02*
X8803869Y-13405246D01*
X8803869Y-13405246D02*
X8794345Y-13357627D01*
X8794345Y-13357627D02*
X8784821Y-13329055D01*
X8784821Y-13329055D02*
X8775298Y-13310008D01*
X8775298Y-13310008D02*
X8756250Y-13281436D01*
X8756250Y-13281436D02*
X8746726Y-13271912D01*
X1890711Y-13573000D02*
X1890711Y-13773000D01*
X1790711Y-13673000D02*
X1990711Y-13673000D01*
X2241964Y-13583531D02*
X2251488Y-13574008D01*
X2251488Y-13574008D02*
X2270535Y-13564484D01*
X2270535Y-13564484D02*
X2318154Y-13564484D01*
X2318154Y-13564484D02*
X2337202Y-13574008D01*
X2337202Y-13574008D02*
X2346726Y-13583531D01*
X2346726Y-13583531D02*
X2356249Y-13602579D01*
X2356249Y-13602579D02*
X2356249Y-13621627D01*
X2356249Y-13621627D02*
X2346726Y-13650198D01*
X2346726Y-13650198D02*
X2232440Y-13764484D01*
X2232440Y-13764484D02*
X2356249Y-13764484D01*
X2441964Y-13745436D02*
X2451488Y-13754960D01*
X2451488Y-13754960D02*
X2441964Y-13764484D01*
X2441964Y-13764484D02*
X2432440Y-13754960D01*
X2432440Y-13754960D02*
X2441964Y-13745436D01*
X2441964Y-13745436D02*
X2441964Y-13764484D01*
X2518154Y-13564484D02*
X2651488Y-13564484D01*
X2651488Y-13564484D02*
X2565773Y-13764484D01*
X2765773Y-13564484D02*
X2784821Y-13564484D01*
X2784821Y-13564484D02*
X2803868Y-13574008D01*
X2803868Y-13574008D02*
X2813392Y-13583531D01*
X2813392Y-13583531D02*
X2822916Y-13602579D01*
X2822916Y-13602579D02*
X2832440Y-13640674D01*
X2832440Y-13640674D02*
X2832440Y-13688293D01*
X2832440Y-13688293D02*
X2822916Y-13726388D01*
X2822916Y-13726388D02*
X2813392Y-13745436D01*
X2813392Y-13745436D02*
X2803868Y-13754960D01*
X2803868Y-13754960D02*
X2784821Y-13764484D01*
X2784821Y-13764484D02*
X2765773Y-13764484D01*
X2765773Y-13764484D02*
X2746726Y-13754960D01*
X2746726Y-13754960D02*
X2737202Y-13745436D01*
X2737202Y-13745436D02*
X2727678Y-13726388D01*
X2727678Y-13726388D02*
X2718154Y-13688293D01*
X2718154Y-13688293D02*
X2718154Y-13640674D01*
X2718154Y-13640674D02*
X2727678Y-13602579D01*
X2727678Y-13602579D02*
X2737202Y-13583531D01*
X2737202Y-13583531D02*
X2746726Y-13574008D01*
X2746726Y-13574008D02*
X2765773Y-13564484D01*
X2956249Y-13564484D02*
X2975297Y-13564484D01*
X2975297Y-13564484D02*
X2994345Y-13574008D01*
X2994345Y-13574008D02*
X3003868Y-13583531D01*
X3003868Y-13583531D02*
X3013392Y-13602579D01*
X3013392Y-13602579D02*
X3022916Y-13640674D01*
X3022916Y-13640674D02*
X3022916Y-13688293D01*
X3022916Y-13688293D02*
X3013392Y-13726388D01*
X3013392Y-13726388D02*
X3003868Y-13745436D01*
X3003868Y-13745436D02*
X2994345Y-13754960D01*
X2994345Y-13754960D02*
X2975297Y-13764484D01*
X2975297Y-13764484D02*
X2956249Y-13764484D01*
X2956249Y-13764484D02*
X2937202Y-13754960D01*
X2937202Y-13754960D02*
X2927678Y-13745436D01*
X2927678Y-13745436D02*
X2918154Y-13726388D01*
X2918154Y-13726388D02*
X2908630Y-13688293D01*
X2908630Y-13688293D02*
X2908630Y-13640674D01*
X2908630Y-13640674D02*
X2918154Y-13602579D01*
X2918154Y-13602579D02*
X2927678Y-13583531D01*
X2927678Y-13583531D02*
X2937202Y-13574008D01*
X2937202Y-13574008D02*
X2956249Y-13564484D01*
X3108630Y-13764484D02*
X3108630Y-13631150D01*
X3108630Y-13650198D02*
X3118154Y-13640674D01*
X3118154Y-13640674D02*
X3137202Y-13631150D01*
X3137202Y-13631150D02*
X3165773Y-13631150D01*
X3165773Y-13631150D02*
X3184821Y-13640674D01*
X3184821Y-13640674D02*
X3194345Y-13659722D01*
X3194345Y-13659722D02*
X3194345Y-13764484D01*
X3194345Y-13659722D02*
X3203868Y-13640674D01*
X3203868Y-13640674D02*
X3222916Y-13631150D01*
X3222916Y-13631150D02*
X3251487Y-13631150D01*
X3251487Y-13631150D02*
X3270535Y-13640674D01*
X3270535Y-13640674D02*
X3280059Y-13659722D01*
X3280059Y-13659722D02*
X3280059Y-13764484D01*
X3375297Y-13764484D02*
X3375297Y-13631150D01*
X3375297Y-13650198D02*
X3384821Y-13640674D01*
X3384821Y-13640674D02*
X3403868Y-13631150D01*
X3403868Y-13631150D02*
X3432440Y-13631150D01*
X3432440Y-13631150D02*
X3451488Y-13640674D01*
X3451488Y-13640674D02*
X3461011Y-13659722D01*
X3461011Y-13659722D02*
X3461011Y-13764484D01*
X3461011Y-13659722D02*
X3470535Y-13640674D01*
X3470535Y-13640674D02*
X3489583Y-13631150D01*
X3489583Y-13631150D02*
X3518154Y-13631150D01*
X3518154Y-13631150D02*
X3537202Y-13640674D01*
X3537202Y-13640674D02*
X3546726Y-13659722D01*
X3546726Y-13659722D02*
X3546726Y-13764484D01*
X3937202Y-13554960D02*
X3765773Y-13812103D01*
X4194345Y-13564484D02*
X4213393Y-13564484D01*
X4213393Y-13564484D02*
X4232440Y-13574008D01*
X4232440Y-13574008D02*
X4241964Y-13583531D01*
X4241964Y-13583531D02*
X4251488Y-13602579D01*
X4251488Y-13602579D02*
X4261012Y-13640674D01*
X4261012Y-13640674D02*
X4261012Y-13688293D01*
X4261012Y-13688293D02*
X4251488Y-13726388D01*
X4251488Y-13726388D02*
X4241964Y-13745436D01*
X4241964Y-13745436D02*
X4232440Y-13754960D01*
X4232440Y-13754960D02*
X4213393Y-13764484D01*
X4213393Y-13764484D02*
X4194345Y-13764484D01*
X4194345Y-13764484D02*
X4175297Y-13754960D01*
X4175297Y-13754960D02*
X4165773Y-13745436D01*
X4165773Y-13745436D02*
X4156250Y-13726388D01*
X4156250Y-13726388D02*
X4146726Y-13688293D01*
X4146726Y-13688293D02*
X4146726Y-13640674D01*
X4146726Y-13640674D02*
X4156250Y-13602579D01*
X4156250Y-13602579D02*
X4165773Y-13583531D01*
X4165773Y-13583531D02*
X4175297Y-13574008D01*
X4175297Y-13574008D02*
X4194345Y-13564484D01*
X4346726Y-13745436D02*
X4356250Y-13754960D01*
X4356250Y-13754960D02*
X4346726Y-13764484D01*
X4346726Y-13764484D02*
X4337202Y-13754960D01*
X4337202Y-13754960D02*
X4346726Y-13745436D01*
X4346726Y-13745436D02*
X4346726Y-13764484D01*
X4546726Y-13764484D02*
X4432440Y-13764484D01*
X4489583Y-13764484D02*
X4489583Y-13564484D01*
X4489583Y-13564484D02*
X4470535Y-13593055D01*
X4470535Y-13593055D02*
X4451488Y-13612103D01*
X4451488Y-13612103D02*
X4432440Y-13621627D01*
X4670535Y-13564484D02*
X4689583Y-13564484D01*
X4689583Y-13564484D02*
X4708631Y-13574008D01*
X4708631Y-13574008D02*
X4718154Y-13583531D01*
X4718154Y-13583531D02*
X4727678Y-13602579D01*
X4727678Y-13602579D02*
X4737202Y-13640674D01*
X4737202Y-13640674D02*
X4737202Y-13688293D01*
X4737202Y-13688293D02*
X4727678Y-13726388D01*
X4727678Y-13726388D02*
X4718154Y-13745436D01*
X4718154Y-13745436D02*
X4708631Y-13754960D01*
X4708631Y-13754960D02*
X4689583Y-13764484D01*
X4689583Y-13764484D02*
X4670535Y-13764484D01*
X4670535Y-13764484D02*
X4651488Y-13754960D01*
X4651488Y-13754960D02*
X4641964Y-13745436D01*
X4641964Y-13745436D02*
X4632440Y-13726388D01*
X4632440Y-13726388D02*
X4622916Y-13688293D01*
X4622916Y-13688293D02*
X4622916Y-13640674D01*
X4622916Y-13640674D02*
X4632440Y-13602579D01*
X4632440Y-13602579D02*
X4641964Y-13583531D01*
X4641964Y-13583531D02*
X4651488Y-13574008D01*
X4651488Y-13574008D02*
X4670535Y-13564484D01*
X4908631Y-13564484D02*
X4870535Y-13564484D01*
X4870535Y-13564484D02*
X4851488Y-13574008D01*
X4851488Y-13574008D02*
X4841964Y-13583531D01*
X4841964Y-13583531D02*
X4822916Y-13612103D01*
X4822916Y-13612103D02*
X4813393Y-13650198D01*
X4813393Y-13650198D02*
X4813393Y-13726388D01*
X4813393Y-13726388D02*
X4822916Y-13745436D01*
X4822916Y-13745436D02*
X4832440Y-13754960D01*
X4832440Y-13754960D02*
X4851488Y-13764484D01*
X4851488Y-13764484D02*
X4889583Y-13764484D01*
X4889583Y-13764484D02*
X4908631Y-13754960D01*
X4908631Y-13754960D02*
X4918154Y-13745436D01*
X4918154Y-13745436D02*
X4927678Y-13726388D01*
X4927678Y-13726388D02*
X4927678Y-13678769D01*
X4927678Y-13678769D02*
X4918154Y-13659722D01*
X4918154Y-13659722D02*
X4908631Y-13650198D01*
X4908631Y-13650198D02*
X4889583Y-13640674D01*
X4889583Y-13640674D02*
X4851488Y-13640674D01*
X4851488Y-13640674D02*
X4832440Y-13650198D01*
X4832440Y-13650198D02*
X4822916Y-13659722D01*
X4822916Y-13659722D02*
X4813393Y-13678769D01*
X4994345Y-13564484D02*
X5118154Y-13564484D01*
X5118154Y-13564484D02*
X5051488Y-13640674D01*
X5051488Y-13640674D02*
X5080059Y-13640674D01*
X5080059Y-13640674D02*
X5099107Y-13650198D01*
X5099107Y-13650198D02*
X5108631Y-13659722D01*
X5108631Y-13659722D02*
X5118154Y-13678769D01*
X5118154Y-13678769D02*
X5118154Y-13726388D01*
X5118154Y-13726388D02*
X5108631Y-13745436D01*
X5108631Y-13745436D02*
X5099107Y-13754960D01*
X5099107Y-13754960D02*
X5080059Y-13764484D01*
X5080059Y-13764484D02*
X5022916Y-13764484D01*
X5022916Y-13764484D02*
X5003869Y-13754960D01*
X5003869Y-13754960D02*
X4994345Y-13745436D01*
X5194345Y-13564484D02*
X5194345Y-13602579D01*
X5270535Y-13564484D02*
X5270535Y-13602579D01*
X5565774Y-13840674D02*
X5556250Y-13831150D01*
X5556250Y-13831150D02*
X5537202Y-13802579D01*
X5537202Y-13802579D02*
X5527678Y-13783531D01*
X5527678Y-13783531D02*
X5518155Y-13754960D01*
X5518155Y-13754960D02*
X5508631Y-13707341D01*
X5508631Y-13707341D02*
X5508631Y-13669246D01*
X5508631Y-13669246D02*
X5518155Y-13621627D01*
X5518155Y-13621627D02*
X5527678Y-13593055D01*
X5527678Y-13593055D02*
X5537202Y-13574008D01*
X5537202Y-13574008D02*
X5556250Y-13545436D01*
X5556250Y-13545436D02*
X5565774Y-13535912D01*
X5737202Y-13564484D02*
X5641964Y-13564484D01*
X5641964Y-13564484D02*
X5632440Y-13659722D01*
X5632440Y-13659722D02*
X5641964Y-13650198D01*
X5641964Y-13650198D02*
X5661012Y-13640674D01*
X5661012Y-13640674D02*
X5708631Y-13640674D01*
X5708631Y-13640674D02*
X5727678Y-13650198D01*
X5727678Y-13650198D02*
X5737202Y-13659722D01*
X5737202Y-13659722D02*
X5746726Y-13678769D01*
X5746726Y-13678769D02*
X5746726Y-13726388D01*
X5746726Y-13726388D02*
X5737202Y-13745436D01*
X5737202Y-13745436D02*
X5727678Y-13754960D01*
X5727678Y-13754960D02*
X5708631Y-13764484D01*
X5708631Y-13764484D02*
X5661012Y-13764484D01*
X5661012Y-13764484D02*
X5641964Y-13754960D01*
X5641964Y-13754960D02*
X5632440Y-13745436D01*
X5984821Y-13764484D02*
X5984821Y-13564484D01*
X6070535Y-13764484D02*
X6070535Y-13659722D01*
X6070535Y-13659722D02*
X6061012Y-13640674D01*
X6061012Y-13640674D02*
X6041964Y-13631150D01*
X6041964Y-13631150D02*
X6013393Y-13631150D01*
X6013393Y-13631150D02*
X5994345Y-13640674D01*
X5994345Y-13640674D02*
X5984821Y-13650198D01*
X6194345Y-13764484D02*
X6175297Y-13754960D01*
X6175297Y-13754960D02*
X6165774Y-13745436D01*
X6165774Y-13745436D02*
X6156250Y-13726388D01*
X6156250Y-13726388D02*
X6156250Y-13669246D01*
X6156250Y-13669246D02*
X6165774Y-13650198D01*
X6165774Y-13650198D02*
X6175297Y-13640674D01*
X6175297Y-13640674D02*
X6194345Y-13631150D01*
X6194345Y-13631150D02*
X6222916Y-13631150D01*
X6222916Y-13631150D02*
X6241964Y-13640674D01*
X6241964Y-13640674D02*
X6251488Y-13650198D01*
X6251488Y-13650198D02*
X6261012Y-13669246D01*
X6261012Y-13669246D02*
X6261012Y-13726388D01*
X6261012Y-13726388D02*
X6251488Y-13745436D01*
X6251488Y-13745436D02*
X6241964Y-13754960D01*
X6241964Y-13754960D02*
X6222916Y-13764484D01*
X6222916Y-13764484D02*
X6194345Y-13764484D01*
X6375297Y-13764484D02*
X6356250Y-13754960D01*
X6356250Y-13754960D02*
X6346726Y-13735912D01*
X6346726Y-13735912D02*
X6346726Y-13564484D01*
X6527678Y-13754960D02*
X6508631Y-13764484D01*
X6508631Y-13764484D02*
X6470535Y-13764484D01*
X6470535Y-13764484D02*
X6451488Y-13754960D01*
X6451488Y-13754960D02*
X6441964Y-13735912D01*
X6441964Y-13735912D02*
X6441964Y-13659722D01*
X6441964Y-13659722D02*
X6451488Y-13640674D01*
X6451488Y-13640674D02*
X6470535Y-13631150D01*
X6470535Y-13631150D02*
X6508631Y-13631150D01*
X6508631Y-13631150D02*
X6527678Y-13640674D01*
X6527678Y-13640674D02*
X6537202Y-13659722D01*
X6537202Y-13659722D02*
X6537202Y-13678769D01*
X6537202Y-13678769D02*
X6441964Y-13697817D01*
X6613393Y-13754960D02*
X6632440Y-13764484D01*
X6632440Y-13764484D02*
X6670535Y-13764484D01*
X6670535Y-13764484D02*
X6689583Y-13754960D01*
X6689583Y-13754960D02*
X6699107Y-13735912D01*
X6699107Y-13735912D02*
X6699107Y-13726388D01*
X6699107Y-13726388D02*
X6689583Y-13707341D01*
X6689583Y-13707341D02*
X6670535Y-13697817D01*
X6670535Y-13697817D02*
X6641964Y-13697817D01*
X6641964Y-13697817D02*
X6622916Y-13688293D01*
X6622916Y-13688293D02*
X6613393Y-13669246D01*
X6613393Y-13669246D02*
X6613393Y-13659722D01*
X6613393Y-13659722D02*
X6622916Y-13640674D01*
X6622916Y-13640674D02*
X6641964Y-13631150D01*
X6641964Y-13631150D02*
X6670535Y-13631150D01*
X6670535Y-13631150D02*
X6689583Y-13640674D01*
X6765774Y-13840674D02*
X6775297Y-13831150D01*
X6775297Y-13831150D02*
X6794345Y-13802579D01*
X6794345Y-13802579D02*
X6803869Y-13783531D01*
X6803869Y-13783531D02*
X6813393Y-13754960D01*
X6813393Y-13754960D02*
X6822916Y-13707341D01*
X6822916Y-13707341D02*
X6822916Y-13669246D01*
X6822916Y-13669246D02*
X6813393Y-13621627D01*
X6813393Y-13621627D02*
X6803869Y-13593055D01*
X6803869Y-13593055D02*
X6794345Y-13574008D01*
X6794345Y-13574008D02*
X6775297Y-13545436D01*
X6775297Y-13545436D02*
X6765774Y-13535912D01*
X7127678Y-13840674D02*
X7118155Y-13831150D01*
X7118155Y-13831150D02*
X7099107Y-13802579D01*
X7099107Y-13802579D02*
X7089583Y-13783531D01*
X7089583Y-13783531D02*
X7080059Y-13754960D01*
X7080059Y-13754960D02*
X7070536Y-13707341D01*
X7070536Y-13707341D02*
X7070536Y-13669246D01*
X7070536Y-13669246D02*
X7080059Y-13621627D01*
X7080059Y-13621627D02*
X7089583Y-13593055D01*
X7089583Y-13593055D02*
X7099107Y-13574008D01*
X7099107Y-13574008D02*
X7118155Y-13545436D01*
X7118155Y-13545436D02*
X7127678Y-13535912D01*
X7203869Y-13631150D02*
X7203869Y-13764484D01*
X7203869Y-13650198D02*
X7213393Y-13640674D01*
X7213393Y-13640674D02*
X7232440Y-13631150D01*
X7232440Y-13631150D02*
X7261012Y-13631150D01*
X7261012Y-13631150D02*
X7280059Y-13640674D01*
X7280059Y-13640674D02*
X7289583Y-13659722D01*
X7289583Y-13659722D02*
X7289583Y-13764484D01*
X7413393Y-13764484D02*
X7394345Y-13754960D01*
X7394345Y-13754960D02*
X7384821Y-13745436D01*
X7384821Y-13745436D02*
X7375297Y-13726388D01*
X7375297Y-13726388D02*
X7375297Y-13669246D01*
X7375297Y-13669246D02*
X7384821Y-13650198D01*
X7384821Y-13650198D02*
X7394345Y-13640674D01*
X7394345Y-13640674D02*
X7413393Y-13631150D01*
X7413393Y-13631150D02*
X7441964Y-13631150D01*
X7441964Y-13631150D02*
X7461012Y-13640674D01*
X7461012Y-13640674D02*
X7470536Y-13650198D01*
X7470536Y-13650198D02*
X7480059Y-13669246D01*
X7480059Y-13669246D02*
X7480059Y-13726388D01*
X7480059Y-13726388D02*
X7470536Y-13745436D01*
X7470536Y-13745436D02*
X7461012Y-13754960D01*
X7461012Y-13754960D02*
X7441964Y-13764484D01*
X7441964Y-13764484D02*
X7413393Y-13764484D01*
X7537202Y-13631150D02*
X7613393Y-13631150D01*
X7565774Y-13564484D02*
X7565774Y-13735912D01*
X7565774Y-13735912D02*
X7575297Y-13754960D01*
X7575297Y-13754960D02*
X7594345Y-13764484D01*
X7594345Y-13764484D02*
X7613393Y-13764484D01*
X7832440Y-13631150D02*
X7832440Y-13831150D01*
X7832440Y-13640674D02*
X7851488Y-13631150D01*
X7851488Y-13631150D02*
X7889583Y-13631150D01*
X7889583Y-13631150D02*
X7908631Y-13640674D01*
X7908631Y-13640674D02*
X7918155Y-13650198D01*
X7918155Y-13650198D02*
X7927678Y-13669246D01*
X7927678Y-13669246D02*
X7927678Y-13726388D01*
X7927678Y-13726388D02*
X7918155Y-13745436D01*
X7918155Y-13745436D02*
X7908631Y-13754960D01*
X7908631Y-13754960D02*
X7889583Y-13764484D01*
X7889583Y-13764484D02*
X7851488Y-13764484D01*
X7851488Y-13764484D02*
X7832440Y-13754960D01*
X8041964Y-13764484D02*
X8022917Y-13754960D01*
X8022917Y-13754960D02*
X8013393Y-13735912D01*
X8013393Y-13735912D02*
X8013393Y-13564484D01*
X8203869Y-13764484D02*
X8203869Y-13659722D01*
X8203869Y-13659722D02*
X8194345Y-13640674D01*
X8194345Y-13640674D02*
X8175298Y-13631150D01*
X8175298Y-13631150D02*
X8137202Y-13631150D01*
X8137202Y-13631150D02*
X8118155Y-13640674D01*
X8203869Y-13754960D02*
X8184821Y-13764484D01*
X8184821Y-13764484D02*
X8137202Y-13764484D01*
X8137202Y-13764484D02*
X8118155Y-13754960D01*
X8118155Y-13754960D02*
X8108631Y-13735912D01*
X8108631Y-13735912D02*
X8108631Y-13716865D01*
X8108631Y-13716865D02*
X8118155Y-13697817D01*
X8118155Y-13697817D02*
X8137202Y-13688293D01*
X8137202Y-13688293D02*
X8184821Y-13688293D01*
X8184821Y-13688293D02*
X8203869Y-13678769D01*
X8270536Y-13631150D02*
X8346726Y-13631150D01*
X8299107Y-13564484D02*
X8299107Y-13735912D01*
X8299107Y-13735912D02*
X8308631Y-13754960D01*
X8308631Y-13754960D02*
X8327678Y-13764484D01*
X8327678Y-13764484D02*
X8346726Y-13764484D01*
X8489583Y-13754960D02*
X8470536Y-13764484D01*
X8470536Y-13764484D02*
X8432440Y-13764484D01*
X8432440Y-13764484D02*
X8413393Y-13754960D01*
X8413393Y-13754960D02*
X8403869Y-13735912D01*
X8403869Y-13735912D02*
X8403869Y-13659722D01*
X8403869Y-13659722D02*
X8413393Y-13640674D01*
X8413393Y-13640674D02*
X8432440Y-13631150D01*
X8432440Y-13631150D02*
X8470536Y-13631150D01*
X8470536Y-13631150D02*
X8489583Y-13640674D01*
X8489583Y-13640674D02*
X8499107Y-13659722D01*
X8499107Y-13659722D02*
X8499107Y-13678769D01*
X8499107Y-13678769D02*
X8403869Y-13697817D01*
X8670536Y-13764484D02*
X8670536Y-13564484D01*
X8670536Y-13754960D02*
X8651488Y-13764484D01*
X8651488Y-13764484D02*
X8613393Y-13764484D01*
X8613393Y-13764484D02*
X8594345Y-13754960D01*
X8594345Y-13754960D02*
X8584821Y-13745436D01*
X8584821Y-13745436D02*
X8575298Y-13726388D01*
X8575298Y-13726388D02*
X8575298Y-13669246D01*
X8575298Y-13669246D02*
X8584821Y-13650198D01*
X8584821Y-13650198D02*
X8594345Y-13640674D01*
X8594345Y-13640674D02*
X8613393Y-13631150D01*
X8613393Y-13631150D02*
X8651488Y-13631150D01*
X8651488Y-13631150D02*
X8670536Y-13640674D01*
X8746726Y-13840674D02*
X8756250Y-13831150D01*
X8756250Y-13831150D02*
X8775298Y-13802579D01*
X8775298Y-13802579D02*
X8784821Y-13783531D01*
X8784821Y-13783531D02*
X8794345Y-13754960D01*
X8794345Y-13754960D02*
X8803869Y-13707341D01*
X8803869Y-13707341D02*
X8803869Y-13669246D01*
X8803869Y-13669246D02*
X8794345Y-13621627D01*
X8794345Y-13621627D02*
X8784821Y-13593055D01*
X8784821Y-13593055D02*
X8775298Y-13574008D01*
X8775298Y-13574008D02*
X8756250Y-13545436D01*
X8756250Y-13545436D02*
X8746726Y-13535912D01*
X1961422Y-14063711D02*
X1961422Y-13922289D01*
X1819999Y-13922289D01*
X1819999Y-14063711D01*
X1961422Y-14063711D01*
X2232440Y-13884484D02*
X2356249Y-13884484D01*
X2356249Y-13884484D02*
X2289583Y-13960674D01*
X2289583Y-13960674D02*
X2318154Y-13960674D01*
X2318154Y-13960674D02*
X2337202Y-13970198D01*
X2337202Y-13970198D02*
X2346726Y-13979722D01*
X2346726Y-13979722D02*
X2356249Y-13998769D01*
X2356249Y-13998769D02*
X2356249Y-14046388D01*
X2356249Y-14046388D02*
X2346726Y-14065436D01*
X2346726Y-14065436D02*
X2337202Y-14074960D01*
X2337202Y-14074960D02*
X2318154Y-14084484D01*
X2318154Y-14084484D02*
X2261011Y-14084484D01*
X2261011Y-14084484D02*
X2241964Y-14074960D01*
X2241964Y-14074960D02*
X2232440Y-14065436D01*
X2441964Y-14065436D02*
X2451488Y-14074960D01*
X2451488Y-14074960D02*
X2441964Y-14084484D01*
X2441964Y-14084484D02*
X2432440Y-14074960D01*
X2432440Y-14074960D02*
X2441964Y-14065436D01*
X2441964Y-14065436D02*
X2441964Y-14084484D01*
X2518154Y-13884484D02*
X2651488Y-13884484D01*
X2651488Y-13884484D02*
X2565773Y-14084484D01*
X2765773Y-13884484D02*
X2784821Y-13884484D01*
X2784821Y-13884484D02*
X2803868Y-13894008D01*
X2803868Y-13894008D02*
X2813392Y-13903531D01*
X2813392Y-13903531D02*
X2822916Y-13922579D01*
X2822916Y-13922579D02*
X2832440Y-13960674D01*
X2832440Y-13960674D02*
X2832440Y-14008293D01*
X2832440Y-14008293D02*
X2822916Y-14046388D01*
X2822916Y-14046388D02*
X2813392Y-14065436D01*
X2813392Y-14065436D02*
X2803868Y-14074960D01*
X2803868Y-14074960D02*
X2784821Y-14084484D01*
X2784821Y-14084484D02*
X2765773Y-14084484D01*
X2765773Y-14084484D02*
X2746726Y-14074960D01*
X2746726Y-14074960D02*
X2737202Y-14065436D01*
X2737202Y-14065436D02*
X2727678Y-14046388D01*
X2727678Y-14046388D02*
X2718154Y-14008293D01*
X2718154Y-14008293D02*
X2718154Y-13960674D01*
X2718154Y-13960674D02*
X2727678Y-13922579D01*
X2727678Y-13922579D02*
X2737202Y-13903531D01*
X2737202Y-13903531D02*
X2746726Y-13894008D01*
X2746726Y-13894008D02*
X2765773Y-13884484D01*
X2956249Y-13884484D02*
X2975297Y-13884484D01*
X2975297Y-13884484D02*
X2994345Y-13894008D01*
X2994345Y-13894008D02*
X3003868Y-13903531D01*
X3003868Y-13903531D02*
X3013392Y-13922579D01*
X3013392Y-13922579D02*
X3022916Y-13960674D01*
X3022916Y-13960674D02*
X3022916Y-14008293D01*
X3022916Y-14008293D02*
X3013392Y-14046388D01*
X3013392Y-14046388D02*
X3003868Y-14065436D01*
X3003868Y-14065436D02*
X2994345Y-14074960D01*
X2994345Y-14074960D02*
X2975297Y-14084484D01*
X2975297Y-14084484D02*
X2956249Y-14084484D01*
X2956249Y-14084484D02*
X2937202Y-14074960D01*
X2937202Y-14074960D02*
X2927678Y-14065436D01*
X2927678Y-14065436D02*
X2918154Y-14046388D01*
X2918154Y-14046388D02*
X2908630Y-14008293D01*
X2908630Y-14008293D02*
X2908630Y-13960674D01*
X2908630Y-13960674D02*
X2918154Y-13922579D01*
X2918154Y-13922579D02*
X2927678Y-13903531D01*
X2927678Y-13903531D02*
X2937202Y-13894008D01*
X2937202Y-13894008D02*
X2956249Y-13884484D01*
X3108630Y-14084484D02*
X3108630Y-13951150D01*
X3108630Y-13970198D02*
X3118154Y-13960674D01*
X3118154Y-13960674D02*
X3137202Y-13951150D01*
X3137202Y-13951150D02*
X3165773Y-13951150D01*
X3165773Y-13951150D02*
X3184821Y-13960674D01*
X3184821Y-13960674D02*
X3194345Y-13979722D01*
X3194345Y-13979722D02*
X3194345Y-14084484D01*
X3194345Y-13979722D02*
X3203868Y-13960674D01*
X3203868Y-13960674D02*
X3222916Y-13951150D01*
X3222916Y-13951150D02*
X3251487Y-13951150D01*
X3251487Y-13951150D02*
X3270535Y-13960674D01*
X3270535Y-13960674D02*
X3280059Y-13979722D01*
X3280059Y-13979722D02*
X3280059Y-14084484D01*
X3375297Y-14084484D02*
X3375297Y-13951150D01*
X3375297Y-13970198D02*
X3384821Y-13960674D01*
X3384821Y-13960674D02*
X3403868Y-13951150D01*
X3403868Y-13951150D02*
X3432440Y-13951150D01*
X3432440Y-13951150D02*
X3451488Y-13960674D01*
X3451488Y-13960674D02*
X3461011Y-13979722D01*
X3461011Y-13979722D02*
X3461011Y-14084484D01*
X3461011Y-13979722D02*
X3470535Y-13960674D01*
X3470535Y-13960674D02*
X3489583Y-13951150D01*
X3489583Y-13951150D02*
X3518154Y-13951150D01*
X3518154Y-13951150D02*
X3537202Y-13960674D01*
X3537202Y-13960674D02*
X3546726Y-13979722D01*
X3546726Y-13979722D02*
X3546726Y-14084484D01*
X3937202Y-13874960D02*
X3765773Y-14132103D01*
X4194345Y-13884484D02*
X4213393Y-13884484D01*
X4213393Y-13884484D02*
X4232440Y-13894008D01*
X4232440Y-13894008D02*
X4241964Y-13903531D01*
X4241964Y-13903531D02*
X4251488Y-13922579D01*
X4251488Y-13922579D02*
X4261012Y-13960674D01*
X4261012Y-13960674D02*
X4261012Y-14008293D01*
X4261012Y-14008293D02*
X4251488Y-14046388D01*
X4251488Y-14046388D02*
X4241964Y-14065436D01*
X4241964Y-14065436D02*
X4232440Y-14074960D01*
X4232440Y-14074960D02*
X4213393Y-14084484D01*
X4213393Y-14084484D02*
X4194345Y-14084484D01*
X4194345Y-14084484D02*
X4175297Y-14074960D01*
X4175297Y-14074960D02*
X4165773Y-14065436D01*
X4165773Y-14065436D02*
X4156250Y-14046388D01*
X4156250Y-14046388D02*
X4146726Y-14008293D01*
X4146726Y-14008293D02*
X4146726Y-13960674D01*
X4146726Y-13960674D02*
X4156250Y-13922579D01*
X4156250Y-13922579D02*
X4165773Y-13903531D01*
X4165773Y-13903531D02*
X4175297Y-13894008D01*
X4175297Y-13894008D02*
X4194345Y-13884484D01*
X4346726Y-14065436D02*
X4356250Y-14074960D01*
X4356250Y-14074960D02*
X4346726Y-14084484D01*
X4346726Y-14084484D02*
X4337202Y-14074960D01*
X4337202Y-14074960D02*
X4346726Y-14065436D01*
X4346726Y-14065436D02*
X4346726Y-14084484D01*
X4546726Y-14084484D02*
X4432440Y-14084484D01*
X4489583Y-14084484D02*
X4489583Y-13884484D01*
X4489583Y-13884484D02*
X4470535Y-13913055D01*
X4470535Y-13913055D02*
X4451488Y-13932103D01*
X4451488Y-13932103D02*
X4432440Y-13941627D01*
X4718154Y-13951150D02*
X4718154Y-14084484D01*
X4670535Y-13874960D02*
X4622916Y-14017817D01*
X4622916Y-14017817D02*
X4746726Y-14017817D01*
X4918154Y-13884484D02*
X4822916Y-13884484D01*
X4822916Y-13884484D02*
X4813393Y-13979722D01*
X4813393Y-13979722D02*
X4822916Y-13970198D01*
X4822916Y-13970198D02*
X4841964Y-13960674D01*
X4841964Y-13960674D02*
X4889583Y-13960674D01*
X4889583Y-13960674D02*
X4908631Y-13970198D01*
X4908631Y-13970198D02*
X4918154Y-13979722D01*
X4918154Y-13979722D02*
X4927678Y-13998769D01*
X4927678Y-13998769D02*
X4927678Y-14046388D01*
X4927678Y-14046388D02*
X4918154Y-14065436D01*
X4918154Y-14065436D02*
X4908631Y-14074960D01*
X4908631Y-14074960D02*
X4889583Y-14084484D01*
X4889583Y-14084484D02*
X4841964Y-14084484D01*
X4841964Y-14084484D02*
X4822916Y-14074960D01*
X4822916Y-14074960D02*
X4813393Y-14065436D01*
X4994345Y-13884484D02*
X5127678Y-13884484D01*
X5127678Y-13884484D02*
X5041964Y-14084484D01*
X5194345Y-13884484D02*
X5194345Y-13922579D01*
X5270535Y-13884484D02*
X5270535Y-13922579D01*
X5565774Y-14160674D02*
X5556250Y-14151150D01*
X5556250Y-14151150D02*
X5537202Y-14122579D01*
X5537202Y-14122579D02*
X5527678Y-14103531D01*
X5527678Y-14103531D02*
X5518155Y-14074960D01*
X5518155Y-14074960D02*
X5508631Y-14027341D01*
X5508631Y-14027341D02*
X5508631Y-13989246D01*
X5508631Y-13989246D02*
X5518155Y-13941627D01*
X5518155Y-13941627D02*
X5527678Y-13913055D01*
X5527678Y-13913055D02*
X5537202Y-13894008D01*
X5537202Y-13894008D02*
X5556250Y-13865436D01*
X5556250Y-13865436D02*
X5565774Y-13855912D01*
X5727678Y-13884484D02*
X5689583Y-13884484D01*
X5689583Y-13884484D02*
X5670535Y-13894008D01*
X5670535Y-13894008D02*
X5661012Y-13903531D01*
X5661012Y-13903531D02*
X5641964Y-13932103D01*
X5641964Y-13932103D02*
X5632440Y-13970198D01*
X5632440Y-13970198D02*
X5632440Y-14046388D01*
X5632440Y-14046388D02*
X5641964Y-14065436D01*
X5641964Y-14065436D02*
X5651488Y-14074960D01*
X5651488Y-14074960D02*
X5670535Y-14084484D01*
X5670535Y-14084484D02*
X5708631Y-14084484D01*
X5708631Y-14084484D02*
X5727678Y-14074960D01*
X5727678Y-14074960D02*
X5737202Y-14065436D01*
X5737202Y-14065436D02*
X5746726Y-14046388D01*
X5746726Y-14046388D02*
X5746726Y-13998769D01*
X5746726Y-13998769D02*
X5737202Y-13979722D01*
X5737202Y-13979722D02*
X5727678Y-13970198D01*
X5727678Y-13970198D02*
X5708631Y-13960674D01*
X5708631Y-13960674D02*
X5670535Y-13960674D01*
X5670535Y-13960674D02*
X5651488Y-13970198D01*
X5651488Y-13970198D02*
X5641964Y-13979722D01*
X5641964Y-13979722D02*
X5632440Y-13998769D01*
X5984821Y-14084484D02*
X5984821Y-13884484D01*
X6070535Y-14084484D02*
X6070535Y-13979722D01*
X6070535Y-13979722D02*
X6061012Y-13960674D01*
X6061012Y-13960674D02*
X6041964Y-13951150D01*
X6041964Y-13951150D02*
X6013393Y-13951150D01*
X6013393Y-13951150D02*
X5994345Y-13960674D01*
X5994345Y-13960674D02*
X5984821Y-13970198D01*
X6194345Y-14084484D02*
X6175297Y-14074960D01*
X6175297Y-14074960D02*
X6165774Y-14065436D01*
X6165774Y-14065436D02*
X6156250Y-14046388D01*
X6156250Y-14046388D02*
X6156250Y-13989246D01*
X6156250Y-13989246D02*
X6165774Y-13970198D01*
X6165774Y-13970198D02*
X6175297Y-13960674D01*
X6175297Y-13960674D02*
X6194345Y-13951150D01*
X6194345Y-13951150D02*
X6222916Y-13951150D01*
X6222916Y-13951150D02*
X6241964Y-13960674D01*
X6241964Y-13960674D02*
X6251488Y-13970198D01*
X6251488Y-13970198D02*
X6261012Y-13989246D01*
X6261012Y-13989246D02*
X6261012Y-14046388D01*
X6261012Y-14046388D02*
X6251488Y-14065436D01*
X6251488Y-14065436D02*
X6241964Y-14074960D01*
X6241964Y-14074960D02*
X6222916Y-14084484D01*
X6222916Y-14084484D02*
X6194345Y-14084484D01*
X6375297Y-14084484D02*
X6356250Y-14074960D01*
X6356250Y-14074960D02*
X6346726Y-14055912D01*
X6346726Y-14055912D02*
X6346726Y-13884484D01*
X6527678Y-14074960D02*
X6508631Y-14084484D01*
X6508631Y-14084484D02*
X6470535Y-14084484D01*
X6470535Y-14084484D02*
X6451488Y-14074960D01*
X6451488Y-14074960D02*
X6441964Y-14055912D01*
X6441964Y-14055912D02*
X6441964Y-13979722D01*
X6441964Y-13979722D02*
X6451488Y-13960674D01*
X6451488Y-13960674D02*
X6470535Y-13951150D01*
X6470535Y-13951150D02*
X6508631Y-13951150D01*
X6508631Y-13951150D02*
X6527678Y-13960674D01*
X6527678Y-13960674D02*
X6537202Y-13979722D01*
X6537202Y-13979722D02*
X6537202Y-13998769D01*
X6537202Y-13998769D02*
X6441964Y-14017817D01*
X6613393Y-14074960D02*
X6632440Y-14084484D01*
X6632440Y-14084484D02*
X6670535Y-14084484D01*
X6670535Y-14084484D02*
X6689583Y-14074960D01*
X6689583Y-14074960D02*
X6699107Y-14055912D01*
X6699107Y-14055912D02*
X6699107Y-14046388D01*
X6699107Y-14046388D02*
X6689583Y-14027341D01*
X6689583Y-14027341D02*
X6670535Y-14017817D01*
X6670535Y-14017817D02*
X6641964Y-14017817D01*
X6641964Y-14017817D02*
X6622916Y-14008293D01*
X6622916Y-14008293D02*
X6613393Y-13989246D01*
X6613393Y-13989246D02*
X6613393Y-13979722D01*
X6613393Y-13979722D02*
X6622916Y-13960674D01*
X6622916Y-13960674D02*
X6641964Y-13951150D01*
X6641964Y-13951150D02*
X6670535Y-13951150D01*
X6670535Y-13951150D02*
X6689583Y-13960674D01*
X6765774Y-14160674D02*
X6775297Y-14151150D01*
X6775297Y-14151150D02*
X6794345Y-14122579D01*
X6794345Y-14122579D02*
X6803869Y-14103531D01*
X6803869Y-14103531D02*
X6813393Y-14074960D01*
X6813393Y-14074960D02*
X6822916Y-14027341D01*
X6822916Y-14027341D02*
X6822916Y-13989246D01*
X6822916Y-13989246D02*
X6813393Y-13941627D01*
X6813393Y-13941627D02*
X6803869Y-13913055D01*
X6803869Y-13913055D02*
X6794345Y-13894008D01*
X6794345Y-13894008D02*
X6775297Y-13865436D01*
X6775297Y-13865436D02*
X6765774Y-13855912D01*
X7127678Y-14160674D02*
X7118155Y-14151150D01*
X7118155Y-14151150D02*
X7099107Y-14122579D01*
X7099107Y-14122579D02*
X7089583Y-14103531D01*
X7089583Y-14103531D02*
X7080059Y-14074960D01*
X7080059Y-14074960D02*
X7070536Y-14027341D01*
X7070536Y-14027341D02*
X7070536Y-13989246D01*
X7070536Y-13989246D02*
X7080059Y-13941627D01*
X7080059Y-13941627D02*
X7089583Y-13913055D01*
X7089583Y-13913055D02*
X7099107Y-13894008D01*
X7099107Y-13894008D02*
X7118155Y-13865436D01*
X7118155Y-13865436D02*
X7127678Y-13855912D01*
X7203869Y-13951150D02*
X7203869Y-14084484D01*
X7203869Y-13970198D02*
X7213393Y-13960674D01*
X7213393Y-13960674D02*
X7232440Y-13951150D01*
X7232440Y-13951150D02*
X7261012Y-13951150D01*
X7261012Y-13951150D02*
X7280059Y-13960674D01*
X7280059Y-13960674D02*
X7289583Y-13979722D01*
X7289583Y-13979722D02*
X7289583Y-14084484D01*
X7413393Y-14084484D02*
X7394345Y-14074960D01*
X7394345Y-14074960D02*
X7384821Y-14065436D01*
X7384821Y-14065436D02*
X7375297Y-14046388D01*
X7375297Y-14046388D02*
X7375297Y-13989246D01*
X7375297Y-13989246D02*
X7384821Y-13970198D01*
X7384821Y-13970198D02*
X7394345Y-13960674D01*
X7394345Y-13960674D02*
X7413393Y-13951150D01*
X7413393Y-13951150D02*
X7441964Y-13951150D01*
X7441964Y-13951150D02*
X7461012Y-13960674D01*
X7461012Y-13960674D02*
X7470536Y-13970198D01*
X7470536Y-13970198D02*
X7480059Y-13989246D01*
X7480059Y-13989246D02*
X7480059Y-14046388D01*
X7480059Y-14046388D02*
X7470536Y-14065436D01*
X7470536Y-14065436D02*
X7461012Y-14074960D01*
X7461012Y-14074960D02*
X7441964Y-14084484D01*
X7441964Y-14084484D02*
X7413393Y-14084484D01*
X7537202Y-13951150D02*
X7613393Y-13951150D01*
X7565774Y-13884484D02*
X7565774Y-14055912D01*
X7565774Y-14055912D02*
X7575297Y-14074960D01*
X7575297Y-14074960D02*
X7594345Y-14084484D01*
X7594345Y-14084484D02*
X7613393Y-14084484D01*
X7832440Y-13951150D02*
X7832440Y-14151150D01*
X7832440Y-13960674D02*
X7851488Y-13951150D01*
X7851488Y-13951150D02*
X7889583Y-13951150D01*
X7889583Y-13951150D02*
X7908631Y-13960674D01*
X7908631Y-13960674D02*
X7918155Y-13970198D01*
X7918155Y-13970198D02*
X7927678Y-13989246D01*
X7927678Y-13989246D02*
X7927678Y-14046388D01*
X7927678Y-14046388D02*
X7918155Y-14065436D01*
X7918155Y-14065436D02*
X7908631Y-14074960D01*
X7908631Y-14074960D02*
X7889583Y-14084484D01*
X7889583Y-14084484D02*
X7851488Y-14084484D01*
X7851488Y-14084484D02*
X7832440Y-14074960D01*
X8041964Y-14084484D02*
X8022917Y-14074960D01*
X8022917Y-14074960D02*
X8013393Y-14055912D01*
X8013393Y-14055912D02*
X8013393Y-13884484D01*
X8203869Y-14084484D02*
X8203869Y-13979722D01*
X8203869Y-13979722D02*
X8194345Y-13960674D01*
X8194345Y-13960674D02*
X8175298Y-13951150D01*
X8175298Y-13951150D02*
X8137202Y-13951150D01*
X8137202Y-13951150D02*
X8118155Y-13960674D01*
X8203869Y-14074960D02*
X8184821Y-14084484D01*
X8184821Y-14084484D02*
X8137202Y-14084484D01*
X8137202Y-14084484D02*
X8118155Y-14074960D01*
X8118155Y-14074960D02*
X8108631Y-14055912D01*
X8108631Y-14055912D02*
X8108631Y-14036865D01*
X8108631Y-14036865D02*
X8118155Y-14017817D01*
X8118155Y-14017817D02*
X8137202Y-14008293D01*
X8137202Y-14008293D02*
X8184821Y-14008293D01*
X8184821Y-14008293D02*
X8203869Y-13998769D01*
X8270536Y-13951150D02*
X8346726Y-13951150D01*
X8299107Y-13884484D02*
X8299107Y-14055912D01*
X8299107Y-14055912D02*
X8308631Y-14074960D01*
X8308631Y-14074960D02*
X8327678Y-14084484D01*
X8327678Y-14084484D02*
X8346726Y-14084484D01*
X8489583Y-14074960D02*
X8470536Y-14084484D01*
X8470536Y-14084484D02*
X8432440Y-14084484D01*
X8432440Y-14084484D02*
X8413393Y-14074960D01*
X8413393Y-14074960D02*
X8403869Y-14055912D01*
X8403869Y-14055912D02*
X8403869Y-13979722D01*
X8403869Y-13979722D02*
X8413393Y-13960674D01*
X8413393Y-13960674D02*
X8432440Y-13951150D01*
X8432440Y-13951150D02*
X8470536Y-13951150D01*
X8470536Y-13951150D02*
X8489583Y-13960674D01*
X8489583Y-13960674D02*
X8499107Y-13979722D01*
X8499107Y-13979722D02*
X8499107Y-13998769D01*
X8499107Y-13998769D02*
X8403869Y-14017817D01*
X8670536Y-14084484D02*
X8670536Y-13884484D01*
X8670536Y-14074960D02*
X8651488Y-14084484D01*
X8651488Y-14084484D02*
X8613393Y-14084484D01*
X8613393Y-14084484D02*
X8594345Y-14074960D01*
X8594345Y-14074960D02*
X8584821Y-14065436D01*
X8584821Y-14065436D02*
X8575298Y-14046388D01*
X8575298Y-14046388D02*
X8575298Y-13989246D01*
X8575298Y-13989246D02*
X8584821Y-13970198D01*
X8584821Y-13970198D02*
X8594345Y-13960674D01*
X8594345Y-13960674D02*
X8613393Y-13951150D01*
X8613393Y-13951150D02*
X8651488Y-13951150D01*
X8651488Y-13951150D02*
X8670536Y-13960674D01*
X8746726Y-14160674D02*
X8756250Y-14151150D01*
X8756250Y-14151150D02*
X8775298Y-14122579D01*
X8775298Y-14122579D02*
X8784821Y-14103531D01*
X8784821Y-14103531D02*
X8794345Y-14074960D01*
X8794345Y-14074960D02*
X8803869Y-14027341D01*
X8803869Y-14027341D02*
X8803869Y-13989246D01*
X8803869Y-13989246D02*
X8794345Y-13941627D01*
X8794345Y-13941627D02*
X8784821Y-13913055D01*
X8784821Y-13913055D02*
X8775298Y-13894008D01*
X8775298Y-13894008D02*
X8756250Y-13865436D01*
X8756250Y-13865436D02*
X8746726Y-13855912D01*
M02*
