G04 #@! TF.GenerationSoftware,KiCad,Pcbnew,7.0.8-7.0.8~ubuntu23.04.1*
G04 #@! TF.CreationDate,2023-10-23T16:44:58+00:00*
G04 #@! TF.ProjectId,pedalboard-hw,70656461-6c62-46f6-9172-642d68772e6b,3.0.2-RC*
G04 #@! TF.SameCoordinates,Original*
G04 #@! TF.FileFunction,Soldermask,Top*
G04 #@! TF.FilePolarity,Negative*
%FSLAX46Y46*%
G04 Gerber Fmt 4.6, Leading zero omitted, Abs format (unit mm)*
G04 Created by KiCad (PCBNEW 7.0.8-7.0.8~ubuntu23.04.1) date 2023-10-23 16:44:58*
%MOMM*%
%LPD*%
G01*
G04 APERTURE LIST*
%ADD10C,0.010000*%
%ADD11C,2.700000*%
%ADD12C,3.000000*%
%ADD13O,1.200000X2.200000*%
%ADD14O,2.200000X1.200000*%
%ADD15R,4.400000X1.800000*%
%ADD16O,4.000000X1.800000*%
%ADD17O,1.800000X4.000000*%
%ADD18R,2.000000X1.500000*%
%ADD19R,2.000000X3.800000*%
%ADD20R,2.600000X2.600000*%
%ADD21C,2.600000*%
%ADD22R,1.350000X1.350000*%
%ADD23O,1.350000X1.350000*%
%ADD24R,1.500000X1.000000*%
%ADD25R,1.700000X1.700000*%
%ADD26O,1.700000X1.700000*%
%ADD27C,0.600000*%
%ADD28R,2.000000X1.800000*%
%ADD29R,0.840000X0.840000*%
%ADD30C,0.840000*%
%ADD31O,0.850000X1.850000*%
%ADD32R,2.000000X2.000000*%
%ADD33C,2.000000*%
%ADD34C,3.200000*%
%ADD35R,5.500000X1.430000*%
%ADD36R,1.300000X0.800000*%
%ADD37R,5.600000X2.100000*%
%ADD38C,6.100000*%
%ADD39R,0.700000X0.200000*%
%ADD40R,0.650000X0.400000*%
%ADD41R,0.400000X0.650000*%
%ADD42C,6.000000*%
%ADD43O,1.700000X1.950000*%
G04 APERTURE END LIST*
D10*
X158360000Y-26758370D02*
X157557320Y-26758370D01*
X157557320Y-24360000D01*
X158360000Y-24360000D01*
X158360000Y-26758370D01*
G36*
X158360000Y-26758370D02*
G01*
X157557320Y-26758370D01*
X157557320Y-24360000D01*
X158360000Y-24360000D01*
X158360000Y-26758370D01*
G37*
X158360000Y-31961440D02*
X157559130Y-31961440D01*
X157559130Y-29560000D01*
X158360000Y-29560000D01*
X158360000Y-31961440D01*
G36*
X158360000Y-31961440D02*
G01*
X157559130Y-31961440D01*
X157559130Y-29560000D01*
X158360000Y-29560000D01*
X158360000Y-31961440D01*
G37*
X159610000Y-26757440D02*
X158808080Y-26757440D01*
X158808080Y-24360000D01*
X159610000Y-24360000D01*
X159610000Y-26757440D01*
G36*
X159610000Y-26757440D02*
G01*
X158808080Y-26757440D01*
X158808080Y-24360000D01*
X159610000Y-24360000D01*
X159610000Y-26757440D01*
G37*
X159610000Y-31962790D02*
X158809230Y-31962790D01*
X158809230Y-29560000D01*
X159610000Y-29560000D01*
X159610000Y-31962790D01*
G36*
X159610000Y-31962790D02*
G01*
X158809230Y-31962790D01*
X158809230Y-29560000D01*
X159610000Y-29560000D01*
X159610000Y-31962790D01*
G37*
X160910000Y-26758000D02*
X160110357Y-26758000D01*
X160110357Y-24360000D01*
X160910000Y-24360000D01*
X160910000Y-26758000D01*
G36*
X160910000Y-26758000D02*
G01*
X160110357Y-26758000D01*
X160110357Y-24360000D01*
X160910000Y-24360000D01*
X160910000Y-26758000D01*
G37*
X160910000Y-31967460D02*
X160110490Y-31967460D01*
X160110490Y-29560000D01*
X160910000Y-29560000D01*
X160910000Y-31967460D01*
G36*
X160910000Y-31967460D02*
G01*
X160110490Y-31967460D01*
X160110490Y-29560000D01*
X160910000Y-29560000D01*
X160910000Y-31967460D01*
G37*
X162160000Y-26758280D02*
X161361840Y-26758280D01*
X161361840Y-24360000D01*
X162160000Y-24360000D01*
X162160000Y-26758280D01*
G36*
X162160000Y-26758280D02*
G01*
X161361840Y-26758280D01*
X161361840Y-24360000D01*
X162160000Y-24360000D01*
X162160000Y-26758280D01*
G37*
G36*
G01*
X140950000Y-44725000D02*
X140950000Y-43775000D01*
G75*
G02*
X141200000Y-43525000I250000J0D01*
G01*
X141700000Y-43525000D01*
G75*
G02*
X141950000Y-43775000I0J-250000D01*
G01*
X141950000Y-44725000D01*
G75*
G02*
X141700000Y-44975000I-250000J0D01*
G01*
X141200000Y-44975000D01*
G75*
G02*
X140950000Y-44725000I0J250000D01*
G01*
G37*
G36*
G01*
X142850000Y-44725000D02*
X142850000Y-43775000D01*
G75*
G02*
X143100000Y-43525000I250000J0D01*
G01*
X143600000Y-43525000D01*
G75*
G02*
X143850000Y-43775000I0J-250000D01*
G01*
X143850000Y-44725000D01*
G75*
G02*
X143600000Y-44975000I-250000J0D01*
G01*
X143100000Y-44975000D01*
G75*
G02*
X142850000Y-44725000I0J250000D01*
G01*
G37*
G36*
G01*
X114300000Y-44725000D02*
X114300000Y-43775000D01*
G75*
G02*
X114550000Y-43525000I250000J0D01*
G01*
X115050000Y-43525000D01*
G75*
G02*
X115300000Y-43775000I0J-250000D01*
G01*
X115300000Y-44725000D01*
G75*
G02*
X115050000Y-44975000I-250000J0D01*
G01*
X114550000Y-44975000D01*
G75*
G02*
X114300000Y-44725000I0J250000D01*
G01*
G37*
G36*
G01*
X116200000Y-44725000D02*
X116200000Y-43775000D01*
G75*
G02*
X116450000Y-43525000I250000J0D01*
G01*
X116950000Y-43525000D01*
G75*
G02*
X117200000Y-43775000I0J-250000D01*
G01*
X117200000Y-44725000D01*
G75*
G02*
X116950000Y-44975000I-250000J0D01*
G01*
X116450000Y-44975000D01*
G75*
G02*
X116200000Y-44725000I0J250000D01*
G01*
G37*
D11*
X168000000Y-121500000D03*
D12*
X25000000Y-23000000D03*
G36*
G01*
X96715000Y-44910000D02*
X96715000Y-44010000D01*
G75*
G02*
X96965000Y-43760000I250000J0D01*
G01*
X97490000Y-43760000D01*
G75*
G02*
X97740000Y-44010000I0J-250000D01*
G01*
X97740000Y-44910000D01*
G75*
G02*
X97490000Y-45160000I-250000J0D01*
G01*
X96965000Y-45160000D01*
G75*
G02*
X96715000Y-44910000I0J250000D01*
G01*
G37*
G36*
G01*
X98540000Y-44910000D02*
X98540000Y-44010000D01*
G75*
G02*
X98790000Y-43760000I250000J0D01*
G01*
X99315000Y-43760000D01*
G75*
G02*
X99565000Y-44010000I0J-250000D01*
G01*
X99565000Y-44910000D01*
G75*
G02*
X99315000Y-45160000I-250000J0D01*
G01*
X98790000Y-45160000D01*
G75*
G02*
X98540000Y-44910000I0J250000D01*
G01*
G37*
D13*
X125000000Y-29500000D03*
X122500000Y-29500000D03*
D14*
X120000000Y-24500000D03*
D13*
X115000000Y-29500000D03*
X117500000Y-29500000D03*
G36*
G01*
X99915000Y-41300000D02*
X98965000Y-41300000D01*
G75*
G02*
X98715000Y-41050000I0J250000D01*
G01*
X98715000Y-40550000D01*
G75*
G02*
X98965000Y-40300000I250000J0D01*
G01*
X99915000Y-40300000D01*
G75*
G02*
X100165000Y-40550000I0J-250000D01*
G01*
X100165000Y-41050000D01*
G75*
G02*
X99915000Y-41300000I-250000J0D01*
G01*
G37*
G36*
G01*
X99915000Y-39400000D02*
X98965000Y-39400000D01*
G75*
G02*
X98715000Y-39150000I0J250000D01*
G01*
X98715000Y-38650000D01*
G75*
G02*
X98965000Y-38400000I250000J0D01*
G01*
X99915000Y-38400000D01*
G75*
G02*
X100165000Y-38650000I0J-250000D01*
G01*
X100165000Y-39150000D01*
G75*
G02*
X99915000Y-39400000I-250000J0D01*
G01*
G37*
G36*
G01*
X157625000Y-56950000D02*
X157625000Y-57850000D01*
G75*
G02*
X157375000Y-58100000I-250000J0D01*
G01*
X156850000Y-58100000D01*
G75*
G02*
X156600000Y-57850000I0J250000D01*
G01*
X156600000Y-56950000D01*
G75*
G02*
X156850000Y-56700000I250000J0D01*
G01*
X157375000Y-56700000D01*
G75*
G02*
X157625000Y-56950000I0J-250000D01*
G01*
G37*
G36*
G01*
X155800000Y-56950000D02*
X155800000Y-57850000D01*
G75*
G02*
X155550000Y-58100000I-250000J0D01*
G01*
X155025000Y-58100000D01*
G75*
G02*
X154775000Y-57850000I0J250000D01*
G01*
X154775000Y-56950000D01*
G75*
G02*
X155025000Y-56700000I250000J0D01*
G01*
X155550000Y-56700000D01*
G75*
G02*
X155800000Y-56950000I0J-250000D01*
G01*
G37*
D12*
X190000000Y-29000000D03*
G36*
G01*
X139250000Y-53700000D02*
X140550000Y-53700000D01*
G75*
G02*
X140800000Y-53950000I0J-250000D01*
G01*
X140800000Y-55950000D01*
G75*
G02*
X140550000Y-56200000I-250000J0D01*
G01*
X139250000Y-56200000D01*
G75*
G02*
X139000000Y-55950000I0J250000D01*
G01*
X139000000Y-53950000D01*
G75*
G02*
X139250000Y-53700000I250000J0D01*
G01*
G37*
G36*
G01*
X139250000Y-57700000D02*
X140550000Y-57700000D01*
G75*
G02*
X140800000Y-57950000I0J-250000D01*
G01*
X140800000Y-59950000D01*
G75*
G02*
X140550000Y-60200000I-250000J0D01*
G01*
X139250000Y-60200000D01*
G75*
G02*
X139000000Y-59950000I0J250000D01*
G01*
X139000000Y-57950000D01*
G75*
G02*
X139250000Y-57700000I250000J0D01*
G01*
G37*
G36*
G01*
X93512500Y-56300000D02*
X93512500Y-55400000D01*
G75*
G02*
X93762500Y-55150000I250000J0D01*
G01*
X94287500Y-55150000D01*
G75*
G02*
X94537500Y-55400000I0J-250000D01*
G01*
X94537500Y-56300000D01*
G75*
G02*
X94287500Y-56550000I-250000J0D01*
G01*
X93762500Y-56550000D01*
G75*
G02*
X93512500Y-56300000I0J250000D01*
G01*
G37*
G36*
G01*
X95337500Y-56300000D02*
X95337500Y-55400000D01*
G75*
G02*
X95587500Y-55150000I250000J0D01*
G01*
X96112500Y-55150000D01*
G75*
G02*
X96362500Y-55400000I0J-250000D01*
G01*
X96362500Y-56300000D01*
G75*
G02*
X96112500Y-56550000I-250000J0D01*
G01*
X95587500Y-56550000D01*
G75*
G02*
X95337500Y-56300000I0J250000D01*
G01*
G37*
X28050000Y-50000000D03*
X28050000Y-33770000D03*
X21700000Y-50000000D03*
X21700000Y-33770000D03*
X34400000Y-50000000D03*
X34400000Y-33770000D03*
X28050000Y-111200000D03*
X28050000Y-94970000D03*
X21700000Y-111200000D03*
X21700000Y-94970000D03*
X34400000Y-111200000D03*
X34400000Y-94970000D03*
G36*
G01*
X158455000Y-45850000D02*
X158755000Y-45850000D01*
G75*
G02*
X158905000Y-46000000I0J-150000D01*
G01*
X158905000Y-47650000D01*
G75*
G02*
X158755000Y-47800000I-150000J0D01*
G01*
X158455000Y-47800000D01*
G75*
G02*
X158305000Y-47650000I0J150000D01*
G01*
X158305000Y-46000000D01*
G75*
G02*
X158455000Y-45850000I150000J0D01*
G01*
G37*
G36*
G01*
X157185000Y-45850000D02*
X157485000Y-45850000D01*
G75*
G02*
X157635000Y-46000000I0J-150000D01*
G01*
X157635000Y-47650000D01*
G75*
G02*
X157485000Y-47800000I-150000J0D01*
G01*
X157185000Y-47800000D01*
G75*
G02*
X157035000Y-47650000I0J150000D01*
G01*
X157035000Y-46000000D01*
G75*
G02*
X157185000Y-45850000I150000J0D01*
G01*
G37*
G36*
G01*
X155915000Y-45850000D02*
X156215000Y-45850000D01*
G75*
G02*
X156365000Y-46000000I0J-150000D01*
G01*
X156365000Y-47650000D01*
G75*
G02*
X156215000Y-47800000I-150000J0D01*
G01*
X155915000Y-47800000D01*
G75*
G02*
X155765000Y-47650000I0J150000D01*
G01*
X155765000Y-46000000D01*
G75*
G02*
X155915000Y-45850000I150000J0D01*
G01*
G37*
G36*
G01*
X154645000Y-45850000D02*
X154945000Y-45850000D01*
G75*
G02*
X155095000Y-46000000I0J-150000D01*
G01*
X155095000Y-47650000D01*
G75*
G02*
X154945000Y-47800000I-150000J0D01*
G01*
X154645000Y-47800000D01*
G75*
G02*
X154495000Y-47650000I0J150000D01*
G01*
X154495000Y-46000000D01*
G75*
G02*
X154645000Y-45850000I150000J0D01*
G01*
G37*
G36*
G01*
X154645000Y-50800000D02*
X154945000Y-50800000D01*
G75*
G02*
X155095000Y-50950000I0J-150000D01*
G01*
X155095000Y-52600000D01*
G75*
G02*
X154945000Y-52750000I-150000J0D01*
G01*
X154645000Y-52750000D01*
G75*
G02*
X154495000Y-52600000I0J150000D01*
G01*
X154495000Y-50950000D01*
G75*
G02*
X154645000Y-50800000I150000J0D01*
G01*
G37*
G36*
G01*
X155915000Y-50800000D02*
X156215000Y-50800000D01*
G75*
G02*
X156365000Y-50950000I0J-150000D01*
G01*
X156365000Y-52600000D01*
G75*
G02*
X156215000Y-52750000I-150000J0D01*
G01*
X155915000Y-52750000D01*
G75*
G02*
X155765000Y-52600000I0J150000D01*
G01*
X155765000Y-50950000D01*
G75*
G02*
X155915000Y-50800000I150000J0D01*
G01*
G37*
G36*
G01*
X157185000Y-50800000D02*
X157485000Y-50800000D01*
G75*
G02*
X157635000Y-50950000I0J-150000D01*
G01*
X157635000Y-52600000D01*
G75*
G02*
X157485000Y-52750000I-150000J0D01*
G01*
X157185000Y-52750000D01*
G75*
G02*
X157035000Y-52600000I0J150000D01*
G01*
X157035000Y-50950000D01*
G75*
G02*
X157185000Y-50800000I150000J0D01*
G01*
G37*
G36*
G01*
X158455000Y-50800000D02*
X158755000Y-50800000D01*
G75*
G02*
X158905000Y-50950000I0J-150000D01*
G01*
X158905000Y-52600000D01*
G75*
G02*
X158755000Y-52750000I-150000J0D01*
G01*
X158455000Y-52750000D01*
G75*
G02*
X158305000Y-52600000I0J150000D01*
G01*
X158305000Y-50950000D01*
G75*
G02*
X158455000Y-50800000I150000J0D01*
G01*
G37*
D15*
X179400000Y-30400000D03*
D16*
X179400000Y-24600000D03*
D17*
X174600000Y-27400000D03*
G36*
G01*
X160025000Y-48950000D02*
X160975000Y-48950000D01*
G75*
G02*
X161225000Y-49200000I0J-250000D01*
G01*
X161225000Y-49700000D01*
G75*
G02*
X160975000Y-49950000I-250000J0D01*
G01*
X160025000Y-49950000D01*
G75*
G02*
X159775000Y-49700000I0J250000D01*
G01*
X159775000Y-49200000D01*
G75*
G02*
X160025000Y-48950000I250000J0D01*
G01*
G37*
G36*
G01*
X160025000Y-50850000D02*
X160975000Y-50850000D01*
G75*
G02*
X161225000Y-51100000I0J-250000D01*
G01*
X161225000Y-51600000D01*
G75*
G02*
X160975000Y-51850000I-250000J0D01*
G01*
X160025000Y-51850000D01*
G75*
G02*
X159775000Y-51600000I0J250000D01*
G01*
X159775000Y-51100000D01*
G75*
G02*
X160025000Y-50850000I250000J0D01*
G01*
G37*
D18*
X136800000Y-59150000D03*
X136800000Y-56850000D03*
D19*
X130500000Y-56850000D03*
D18*
X136800000Y-54550000D03*
D20*
X178500000Y-28210000D03*
D21*
X178500000Y-23210000D03*
G36*
G01*
X133540000Y-51745000D02*
X133540000Y-52695000D01*
G75*
G02*
X133290000Y-52945000I-250000J0D01*
G01*
X132790000Y-52945000D01*
G75*
G02*
X132540000Y-52695000I0J250000D01*
G01*
X132540000Y-51745000D01*
G75*
G02*
X132790000Y-51495000I250000J0D01*
G01*
X133290000Y-51495000D01*
G75*
G02*
X133540000Y-51745000I0J-250000D01*
G01*
G37*
G36*
G01*
X131640000Y-51745000D02*
X131640000Y-52695000D01*
G75*
G02*
X131390000Y-52945000I-250000J0D01*
G01*
X130890000Y-52945000D01*
G75*
G02*
X130640000Y-52695000I0J250000D01*
G01*
X130640000Y-51745000D01*
G75*
G02*
X130890000Y-51495000I250000J0D01*
G01*
X131390000Y-51495000D01*
G75*
G02*
X131640000Y-51745000I0J-250000D01*
G01*
G37*
D22*
X29000000Y-56000000D03*
D23*
X31000000Y-56000000D03*
X29000000Y-58000000D03*
X31000000Y-58000000D03*
G36*
G01*
X96715000Y-46810000D02*
X96715000Y-45910000D01*
G75*
G02*
X96965000Y-45660000I250000J0D01*
G01*
X97490000Y-45660000D01*
G75*
G02*
X97740000Y-45910000I0J-250000D01*
G01*
X97740000Y-46810000D01*
G75*
G02*
X97490000Y-47060000I-250000J0D01*
G01*
X96965000Y-47060000D01*
G75*
G02*
X96715000Y-46810000I0J250000D01*
G01*
G37*
G36*
G01*
X98540000Y-46810000D02*
X98540000Y-45910000D01*
G75*
G02*
X98790000Y-45660000I250000J0D01*
G01*
X99315000Y-45660000D01*
G75*
G02*
X99565000Y-45910000I0J-250000D01*
G01*
X99565000Y-46810000D01*
G75*
G02*
X99315000Y-47060000I-250000J0D01*
G01*
X98790000Y-47060000D01*
G75*
G02*
X98540000Y-46810000I0J250000D01*
G01*
G37*
G36*
G01*
X96337500Y-53375000D02*
X96337500Y-54325000D01*
G75*
G02*
X96087500Y-54575000I-250000J0D01*
G01*
X95587500Y-54575000D01*
G75*
G02*
X95337500Y-54325000I0J250000D01*
G01*
X95337500Y-53375000D01*
G75*
G02*
X95587500Y-53125000I250000J0D01*
G01*
X96087500Y-53125000D01*
G75*
G02*
X96337500Y-53375000I0J-250000D01*
G01*
G37*
G36*
G01*
X94437500Y-53375000D02*
X94437500Y-54325000D01*
G75*
G02*
X94187500Y-54575000I-250000J0D01*
G01*
X93687500Y-54575000D01*
G75*
G02*
X93437500Y-54325000I0J250000D01*
G01*
X93437500Y-53375000D01*
G75*
G02*
X93687500Y-53125000I250000J0D01*
G01*
X94187500Y-53125000D01*
G75*
G02*
X94437500Y-53375000I0J-250000D01*
G01*
G37*
G36*
X49400000Y-103400000D02*
G01*
X48900000Y-103400000D01*
X48900000Y-103394911D01*
X48828843Y-103394911D01*
X48692292Y-103354816D01*
X48572570Y-103277875D01*
X48479373Y-103170320D01*
X48420254Y-103040866D01*
X48400000Y-102900000D01*
X48400000Y-102400000D01*
X48420254Y-102259134D01*
X48479373Y-102129680D01*
X48572570Y-102022125D01*
X48692292Y-101945184D01*
X48828843Y-101905089D01*
X48900000Y-101905089D01*
X48900000Y-101900000D01*
X49400000Y-101900000D01*
X49400000Y-103400000D01*
G37*
G36*
X50200000Y-101905089D02*
G01*
X50271157Y-101905089D01*
X50407708Y-101945184D01*
X50527430Y-102022125D01*
X50620627Y-102129680D01*
X50679746Y-102259134D01*
X50700000Y-102400000D01*
X50700000Y-102900000D01*
X50679746Y-103040866D01*
X50620627Y-103170320D01*
X50527430Y-103277875D01*
X50407708Y-103354816D01*
X50271157Y-103394911D01*
X50200000Y-103394911D01*
X50200000Y-103400000D01*
X49700000Y-103400000D01*
X49700000Y-101900000D01*
X50200000Y-101900000D01*
X50200000Y-101905089D01*
G37*
G36*
G01*
X156737500Y-24025000D02*
X156737500Y-24975000D01*
G75*
G02*
X156487500Y-25225000I-250000J0D01*
G01*
X155987500Y-25225000D01*
G75*
G02*
X155737500Y-24975000I0J250000D01*
G01*
X155737500Y-24025000D01*
G75*
G02*
X155987500Y-23775000I250000J0D01*
G01*
X156487500Y-23775000D01*
G75*
G02*
X156737500Y-24025000I0J-250000D01*
G01*
G37*
G36*
G01*
X154837500Y-24025000D02*
X154837500Y-24975000D01*
G75*
G02*
X154587500Y-25225000I-250000J0D01*
G01*
X154087500Y-25225000D01*
G75*
G02*
X153837500Y-24975000I0J250000D01*
G01*
X153837500Y-24025000D01*
G75*
G02*
X154087500Y-23775000I250000J0D01*
G01*
X154587500Y-23775000D01*
G75*
G02*
X154837500Y-24025000I0J-250000D01*
G01*
G37*
D24*
X119950000Y-49600000D03*
X119950000Y-46400000D03*
X115050000Y-46400000D03*
X115050000Y-49600000D03*
G36*
G01*
X157125000Y-58750000D02*
X158075000Y-58750000D01*
G75*
G02*
X158325000Y-59000000I0J-250000D01*
G01*
X158325000Y-59500000D01*
G75*
G02*
X158075000Y-59750000I-250000J0D01*
G01*
X157125000Y-59750000D01*
G75*
G02*
X156875000Y-59500000I0J250000D01*
G01*
X156875000Y-59000000D01*
G75*
G02*
X157125000Y-58750000I250000J0D01*
G01*
G37*
G36*
G01*
X157125000Y-60650000D02*
X158075000Y-60650000D01*
G75*
G02*
X158325000Y-60900000I0J-250000D01*
G01*
X158325000Y-61400000D01*
G75*
G02*
X158075000Y-61650000I-250000J0D01*
G01*
X157125000Y-61650000D01*
G75*
G02*
X156875000Y-61400000I0J250000D01*
G01*
X156875000Y-60900000D01*
G75*
G02*
X157125000Y-60650000I250000J0D01*
G01*
G37*
G36*
G01*
X153050000Y-59825000D02*
X152150000Y-59825000D01*
G75*
G02*
X151900000Y-59575000I0J250000D01*
G01*
X151900000Y-59050000D01*
G75*
G02*
X152150000Y-58800000I250000J0D01*
G01*
X153050000Y-58800000D01*
G75*
G02*
X153300000Y-59050000I0J-250000D01*
G01*
X153300000Y-59575000D01*
G75*
G02*
X153050000Y-59825000I-250000J0D01*
G01*
G37*
G36*
G01*
X153050000Y-58000000D02*
X152150000Y-58000000D01*
G75*
G02*
X151900000Y-57750000I0J250000D01*
G01*
X151900000Y-57225000D01*
G75*
G02*
X152150000Y-56975000I250000J0D01*
G01*
X153050000Y-56975000D01*
G75*
G02*
X153300000Y-57225000I0J-250000D01*
G01*
X153300000Y-57750000D01*
G75*
G02*
X153050000Y-58000000I-250000J0D01*
G01*
G37*
G36*
G01*
X93512500Y-52300000D02*
X93512500Y-51400000D01*
G75*
G02*
X93762500Y-51150000I250000J0D01*
G01*
X94287500Y-51150000D01*
G75*
G02*
X94537500Y-51400000I0J-250000D01*
G01*
X94537500Y-52300000D01*
G75*
G02*
X94287500Y-52550000I-250000J0D01*
G01*
X93762500Y-52550000D01*
G75*
G02*
X93512500Y-52300000I0J250000D01*
G01*
G37*
G36*
G01*
X95337500Y-52300000D02*
X95337500Y-51400000D01*
G75*
G02*
X95587500Y-51150000I250000J0D01*
G01*
X96112500Y-51150000D01*
G75*
G02*
X96362500Y-51400000I0J-250000D01*
G01*
X96362500Y-52300000D01*
G75*
G02*
X96112500Y-52550000I-250000J0D01*
G01*
X95587500Y-52550000D01*
G75*
G02*
X95337500Y-52300000I0J250000D01*
G01*
G37*
D12*
X28050000Y-91000000D03*
X28050000Y-74770000D03*
X21700000Y-91000000D03*
X21700000Y-74770000D03*
X34400000Y-91000000D03*
X34400000Y-74770000D03*
X181950000Y-94995000D03*
X181950000Y-111225000D03*
X188300000Y-94995000D03*
X188300000Y-111225000D03*
X175600000Y-94995000D03*
X175600000Y-111225000D03*
D25*
X125860000Y-44300000D03*
D26*
X128400000Y-44300000D03*
X130940000Y-44300000D03*
D24*
X144950000Y-49600000D03*
X144950000Y-46400000D03*
X140050000Y-46400000D03*
X140050000Y-49600000D03*
D11*
X118980000Y-121520000D03*
G36*
G01*
X152950000Y-44875000D02*
X152950000Y-43925000D01*
G75*
G02*
X153200000Y-43675000I250000J0D01*
G01*
X153700000Y-43675000D01*
G75*
G02*
X153950000Y-43925000I0J-250000D01*
G01*
X153950000Y-44875000D01*
G75*
G02*
X153700000Y-45125000I-250000J0D01*
G01*
X153200000Y-45125000D01*
G75*
G02*
X152950000Y-44875000I0J250000D01*
G01*
G37*
G36*
G01*
X154850000Y-44875000D02*
X154850000Y-43925000D01*
G75*
G02*
X155100000Y-43675000I250000J0D01*
G01*
X155600000Y-43675000D01*
G75*
G02*
X155850000Y-43925000I0J-250000D01*
G01*
X155850000Y-44875000D01*
G75*
G02*
X155600000Y-45125000I-250000J0D01*
G01*
X155100000Y-45125000D01*
G75*
G02*
X154850000Y-44875000I0J250000D01*
G01*
G37*
D22*
X181000000Y-130000000D03*
D23*
X179000000Y-130000000D03*
X181000000Y-128000000D03*
X179000000Y-128000000D03*
G36*
G01*
X167425000Y-54750000D02*
X168375000Y-54750000D01*
G75*
G02*
X168625000Y-55000000I0J-250000D01*
G01*
X168625000Y-55500000D01*
G75*
G02*
X168375000Y-55750000I-250000J0D01*
G01*
X167425000Y-55750000D01*
G75*
G02*
X167175000Y-55500000I0J250000D01*
G01*
X167175000Y-55000000D01*
G75*
G02*
X167425000Y-54750000I250000J0D01*
G01*
G37*
G36*
G01*
X167425000Y-56650000D02*
X168375000Y-56650000D01*
G75*
G02*
X168625000Y-56900000I0J-250000D01*
G01*
X168625000Y-57400000D01*
G75*
G02*
X168375000Y-57650000I-250000J0D01*
G01*
X167425000Y-57650000D01*
G75*
G02*
X167175000Y-57400000I0J250000D01*
G01*
X167175000Y-56900000D01*
G75*
G02*
X167425000Y-56650000I250000J0D01*
G01*
G37*
D27*
X80100000Y-21075000D03*
X80100000Y-22075000D03*
X80100000Y-23075000D03*
X80100000Y-24075000D03*
X80100000Y-25075000D03*
X80100000Y-26075000D03*
X80100000Y-30075000D03*
X80100000Y-31075000D03*
X80100000Y-32075000D03*
X80100000Y-33075000D03*
X80100000Y-34075000D03*
X80100000Y-35075000D03*
X80100000Y-36075000D03*
X81100000Y-36075000D03*
X82100000Y-36075000D03*
X83100000Y-36075000D03*
X84100000Y-36075000D03*
X85100000Y-36075000D03*
X86100000Y-36075000D03*
X87100000Y-36075000D03*
X88100000Y-36075000D03*
X89100000Y-36075000D03*
X90100000Y-36075000D03*
X91100000Y-36075000D03*
X92100000Y-36075000D03*
X93100000Y-36075000D03*
X94100000Y-36075000D03*
X95100000Y-36075000D03*
X96100000Y-36075000D03*
X97100000Y-36075000D03*
X98100000Y-36075000D03*
X99100000Y-36075000D03*
X100100000Y-36075000D03*
X101100000Y-36075000D03*
X102100000Y-36075000D03*
X103100000Y-36075000D03*
X104100000Y-36075000D03*
X105100000Y-36075000D03*
X106100000Y-36075000D03*
X107100000Y-36075000D03*
X108100000Y-36075000D03*
X109100000Y-36075000D03*
X110100000Y-36075000D03*
X111100000Y-36075000D03*
X112100000Y-36075000D03*
X113100000Y-36075000D03*
X114100000Y-36075000D03*
X115100000Y-36075000D03*
X116100000Y-36075000D03*
X117100000Y-36075000D03*
X118100000Y-36075000D03*
X119100000Y-36075000D03*
X120100000Y-36075000D03*
X121100000Y-36075000D03*
X122100000Y-36075000D03*
X123100000Y-36075000D03*
X124100000Y-36075000D03*
X125100000Y-36075000D03*
X126100000Y-36075000D03*
X127100000Y-36075000D03*
X128100000Y-36075000D03*
X129100000Y-36075000D03*
X130100000Y-21075000D03*
X130100000Y-22075000D03*
X130100000Y-23075000D03*
X130100000Y-24075000D03*
X130100000Y-25075000D03*
X130100000Y-26075000D03*
X130100000Y-27075000D03*
X130100000Y-28075000D03*
X130100000Y-29075000D03*
X130100000Y-30075000D03*
X130100000Y-31075000D03*
X130100000Y-32075000D03*
X130100000Y-33075000D03*
X130100000Y-34075000D03*
X130100000Y-35075000D03*
X130100000Y-36075000D03*
D22*
X31000000Y-130000000D03*
D23*
X29000000Y-130000000D03*
X31000000Y-128000000D03*
X29000000Y-128000000D03*
D28*
X98000000Y-64500000D03*
X112000000Y-64500000D03*
X98000000Y-69500000D03*
X112000000Y-69500000D03*
D12*
X185000000Y-128000000D03*
D22*
X106000000Y-78000000D03*
D23*
X104000000Y-78000000D03*
X106000000Y-76000000D03*
X104000000Y-76000000D03*
G36*
G01*
X78250000Y-47200000D02*
X78250000Y-48100000D01*
G75*
G02*
X78000000Y-48350000I-250000J0D01*
G01*
X77475000Y-48350000D01*
G75*
G02*
X77225000Y-48100000I0J250000D01*
G01*
X77225000Y-47200000D01*
G75*
G02*
X77475000Y-46950000I250000J0D01*
G01*
X78000000Y-46950000D01*
G75*
G02*
X78250000Y-47200000I0J-250000D01*
G01*
G37*
G36*
G01*
X76425000Y-47200000D02*
X76425000Y-48100000D01*
G75*
G02*
X76175000Y-48350000I-250000J0D01*
G01*
X75650000Y-48350000D01*
G75*
G02*
X75400000Y-48100000I0J250000D01*
G01*
X75400000Y-47200000D01*
G75*
G02*
X75650000Y-46950000I250000J0D01*
G01*
X76175000Y-46950000D01*
G75*
G02*
X76425000Y-47200000I0J-250000D01*
G01*
G37*
D29*
X81540000Y-56290000D03*
D30*
X80890000Y-55290000D03*
X80240000Y-56290000D03*
X79590000Y-55290000D03*
X78940000Y-56290000D03*
D31*
X83815000Y-56070000D03*
X76665000Y-56070000D03*
D11*
X42000000Y-23000000D03*
D12*
X181965000Y-33800000D03*
X181965000Y-50030000D03*
X188315000Y-33800000D03*
X188315000Y-50030000D03*
X175615000Y-33800000D03*
X175615000Y-50030000D03*
G36*
G01*
X49550000Y-25625000D02*
X49550000Y-26575000D01*
G75*
G02*
X49300000Y-26825000I-250000J0D01*
G01*
X48800000Y-26825000D01*
G75*
G02*
X48550000Y-26575000I0J250000D01*
G01*
X48550000Y-25625000D01*
G75*
G02*
X48800000Y-25375000I250000J0D01*
G01*
X49300000Y-25375000D01*
G75*
G02*
X49550000Y-25625000I0J-250000D01*
G01*
G37*
G36*
G01*
X47650000Y-25625000D02*
X47650000Y-26575000D01*
G75*
G02*
X47400000Y-26825000I-250000J0D01*
G01*
X46900000Y-26825000D01*
G75*
G02*
X46650000Y-26575000I0J250000D01*
G01*
X46650000Y-25625000D01*
G75*
G02*
X46900000Y-25375000I250000J0D01*
G01*
X47400000Y-25375000D01*
G75*
G02*
X47650000Y-25625000I0J-250000D01*
G01*
G37*
D11*
X168000000Y-63500000D03*
G36*
X111946312Y-33285921D02*
G01*
X111214079Y-32553688D01*
X111199200Y-32517767D01*
X111199200Y-31482233D01*
X111214079Y-31446312D01*
X111946312Y-30714079D01*
X111982233Y-30699200D01*
X113017767Y-30699200D01*
X113053688Y-30714079D01*
X113785921Y-31446312D01*
X113800800Y-31482233D01*
X113800800Y-32517767D01*
X113785921Y-32553688D01*
X113053688Y-33285921D01*
X113017767Y-33300800D01*
X111982233Y-33300800D01*
X111946312Y-33285921D01*
G37*
G36*
X121285921Y-32553688D02*
G01*
X120553688Y-33285921D01*
X120517767Y-33300800D01*
X119482233Y-33300800D01*
X119446312Y-33285921D01*
X118714079Y-32553688D01*
X118699200Y-32517767D01*
X118699200Y-31482233D01*
X118714079Y-31446312D01*
X119446312Y-30714079D01*
X119482233Y-30699200D01*
X120517767Y-30699200D01*
X120553688Y-30714079D01*
X121285921Y-31446312D01*
X121300800Y-31482233D01*
X121300800Y-32517767D01*
X121285921Y-32553688D01*
G37*
G36*
X126946312Y-33285921D02*
G01*
X126214079Y-32553688D01*
X126199200Y-32517767D01*
X126199200Y-31482233D01*
X126214079Y-31446312D01*
X126946312Y-30714079D01*
X126982233Y-30699200D01*
X128017767Y-30699200D01*
X128053688Y-30714079D01*
X128785921Y-31446312D01*
X128800800Y-31482233D01*
X128800800Y-32517767D01*
X128785921Y-32553688D01*
X128053688Y-33285921D01*
X128017767Y-33300800D01*
X126982233Y-33300800D01*
X126946312Y-33285921D01*
G37*
G36*
X114446312Y-35785921D02*
G01*
X113714079Y-35053688D01*
X113699200Y-35017767D01*
X113699200Y-33982233D01*
X113714079Y-33946312D01*
X114446312Y-33214079D01*
X114482233Y-33199200D01*
X115517767Y-33199200D01*
X115553688Y-33214079D01*
X116285921Y-33946312D01*
X116300800Y-33982233D01*
X116300800Y-35017767D01*
X116285921Y-35053688D01*
X115553688Y-35785921D01*
X115517767Y-35800800D01*
X114482233Y-35800800D01*
X114446312Y-35785921D01*
G37*
G36*
X124446312Y-35785921D02*
G01*
X123714079Y-35053688D01*
X123699200Y-35017767D01*
X123699200Y-33982233D01*
X123714079Y-33946312D01*
X124446312Y-33214079D01*
X124482233Y-33199200D01*
X125517767Y-33199200D01*
X125553688Y-33214079D01*
X126285921Y-33946312D01*
X126300800Y-33982233D01*
X126300800Y-35017767D01*
X126285921Y-35053688D01*
X125553688Y-35785921D01*
X125517767Y-35800800D01*
X124482233Y-35800800D01*
X124446312Y-35785921D01*
G37*
G36*
X121564079Y-23035921D02*
G01*
X121549200Y-23000000D01*
X121549200Y-21900000D01*
X121564079Y-21864079D01*
X122464079Y-20964079D01*
X122500000Y-20949200D01*
X123400000Y-20949200D01*
X123435921Y-20964079D01*
X123450800Y-21000000D01*
X123450800Y-23000000D01*
X123435921Y-23035921D01*
X123400000Y-23050800D01*
X121600000Y-23050800D01*
X121564079Y-23035921D01*
G37*
G36*
G01*
X125950800Y-21000000D02*
X125950800Y-23000000D01*
G75*
G02*
X125900000Y-23050800I-50800J0D01*
G01*
X124100000Y-23050800D01*
G75*
G02*
X124049200Y-23000000I0J50800D01*
G01*
X124049200Y-21000000D01*
G75*
G02*
X124100000Y-20949200I50800J0D01*
G01*
X125900000Y-20949200D01*
G75*
G02*
X125950800Y-21000000I0J-50800D01*
G01*
G37*
G36*
G01*
X115950800Y-21000000D02*
X115950800Y-23000000D01*
G75*
G02*
X115900000Y-23050800I-50800J0D01*
G01*
X114100000Y-23050800D01*
G75*
G02*
X114049200Y-23000000I0J50800D01*
G01*
X114049200Y-21000000D01*
G75*
G02*
X114100000Y-20949200I50800J0D01*
G01*
X115900000Y-20949200D01*
G75*
G02*
X115950800Y-21000000I0J-50800D01*
G01*
G37*
G36*
X116564079Y-23035921D02*
G01*
X116549200Y-23000000D01*
X116549200Y-21000000D01*
X116564079Y-20964079D01*
X116600000Y-20949200D01*
X117500000Y-20949200D01*
X117535921Y-20964079D01*
X118435921Y-21864079D01*
X118450800Y-21900000D01*
X118450800Y-23000000D01*
X118435921Y-23035921D01*
X118400000Y-23050800D01*
X116600000Y-23050800D01*
X116564079Y-23035921D01*
G37*
D32*
X60250000Y-31500000D03*
D33*
X60250000Y-36500000D03*
X60250000Y-34000000D03*
D34*
X67750000Y-28400000D03*
X67750000Y-39600000D03*
D33*
X74750000Y-36500000D03*
X74750000Y-31500000D03*
G36*
G01*
X62575000Y-45500000D02*
X63525000Y-45500000D01*
G75*
G02*
X63775000Y-45750000I0J-250000D01*
G01*
X63775000Y-46250000D01*
G75*
G02*
X63525000Y-46500000I-250000J0D01*
G01*
X62575000Y-46500000D01*
G75*
G02*
X62325000Y-46250000I0J250000D01*
G01*
X62325000Y-45750000D01*
G75*
G02*
X62575000Y-45500000I250000J0D01*
G01*
G37*
G36*
G01*
X62575000Y-47400000D02*
X63525000Y-47400000D01*
G75*
G02*
X63775000Y-47650000I0J-250000D01*
G01*
X63775000Y-48150000D01*
G75*
G02*
X63525000Y-48400000I-250000J0D01*
G01*
X62575000Y-48400000D01*
G75*
G02*
X62325000Y-48150000I0J250000D01*
G01*
X62325000Y-47650000D01*
G75*
G02*
X62575000Y-47400000I250000J0D01*
G01*
G37*
G36*
G01*
X159950000Y-43925000D02*
X159950000Y-44875000D01*
G75*
G02*
X159700000Y-45125000I-250000J0D01*
G01*
X159200000Y-45125000D01*
G75*
G02*
X158950000Y-44875000I0J250000D01*
G01*
X158950000Y-43925000D01*
G75*
G02*
X159200000Y-43675000I250000J0D01*
G01*
X159700000Y-43675000D01*
G75*
G02*
X159950000Y-43925000I0J-250000D01*
G01*
G37*
G36*
G01*
X158050000Y-43925000D02*
X158050000Y-44875000D01*
G75*
G02*
X157800000Y-45125000I-250000J0D01*
G01*
X157300000Y-45125000D01*
G75*
G02*
X157050000Y-44875000I0J250000D01*
G01*
X157050000Y-43925000D01*
G75*
G02*
X157300000Y-43675000I250000J0D01*
G01*
X157800000Y-43675000D01*
G75*
G02*
X158050000Y-43925000I0J-250000D01*
G01*
G37*
D35*
X163200000Y-53980000D03*
X163200000Y-58020000D03*
D24*
X94950000Y-49600000D03*
X94950000Y-46400000D03*
X90050000Y-46400000D03*
X90050000Y-49600000D03*
D22*
X179000000Y-56000000D03*
D23*
X181000000Y-56000000D03*
X179000000Y-58000000D03*
X181000000Y-58000000D03*
G36*
G01*
X95615000Y-44700000D02*
X94665000Y-44700000D01*
G75*
G02*
X94415000Y-44450000I0J250000D01*
G01*
X94415000Y-43950000D01*
G75*
G02*
X94665000Y-43700000I250000J0D01*
G01*
X95615000Y-43700000D01*
G75*
G02*
X95865000Y-43950000I0J-250000D01*
G01*
X95865000Y-44450000D01*
G75*
G02*
X95615000Y-44700000I-250000J0D01*
G01*
G37*
G36*
G01*
X95615000Y-42800000D02*
X94665000Y-42800000D01*
G75*
G02*
X94415000Y-42550000I0J250000D01*
G01*
X94415000Y-42050000D01*
G75*
G02*
X94665000Y-41800000I250000J0D01*
G01*
X95615000Y-41800000D01*
G75*
G02*
X95865000Y-42050000I0J-250000D01*
G01*
X95865000Y-42550000D01*
G75*
G02*
X95615000Y-42800000I-250000J0D01*
G01*
G37*
G36*
G01*
X40550000Y-27175000D02*
X41450000Y-27175000D01*
G75*
G02*
X41700000Y-27425000I0J-250000D01*
G01*
X41700000Y-27950000D01*
G75*
G02*
X41450000Y-28200000I-250000J0D01*
G01*
X40550000Y-28200000D01*
G75*
G02*
X40300000Y-27950000I0J250000D01*
G01*
X40300000Y-27425000D01*
G75*
G02*
X40550000Y-27175000I250000J0D01*
G01*
G37*
G36*
G01*
X40550000Y-29000000D02*
X41450000Y-29000000D01*
G75*
G02*
X41700000Y-29250000I0J-250000D01*
G01*
X41700000Y-29775000D01*
G75*
G02*
X41450000Y-30025000I-250000J0D01*
G01*
X40550000Y-30025000D01*
G75*
G02*
X40300000Y-29775000I0J250000D01*
G01*
X40300000Y-29250000D01*
G75*
G02*
X40550000Y-29000000I250000J0D01*
G01*
G37*
D24*
X69950000Y-49600000D03*
X69950000Y-46400000D03*
X65050000Y-46400000D03*
X65050000Y-49600000D03*
G36*
G01*
X87525000Y-45500000D02*
X88475000Y-45500000D01*
G75*
G02*
X88725000Y-45750000I0J-250000D01*
G01*
X88725000Y-46250000D01*
G75*
G02*
X88475000Y-46500000I-250000J0D01*
G01*
X87525000Y-46500000D01*
G75*
G02*
X87275000Y-46250000I0J250000D01*
G01*
X87275000Y-45750000D01*
G75*
G02*
X87525000Y-45500000I250000J0D01*
G01*
G37*
G36*
G01*
X87525000Y-47400000D02*
X88475000Y-47400000D01*
G75*
G02*
X88725000Y-47650000I0J-250000D01*
G01*
X88725000Y-48150000D01*
G75*
G02*
X88475000Y-48400000I-250000J0D01*
G01*
X87525000Y-48400000D01*
G75*
G02*
X87275000Y-48150000I0J250000D01*
G01*
X87275000Y-47650000D01*
G75*
G02*
X87525000Y-47400000I250000J0D01*
G01*
G37*
G36*
G01*
X102975000Y-51250000D02*
X103925000Y-51250000D01*
G75*
G02*
X104175000Y-51500000I0J-250000D01*
G01*
X104175000Y-52000000D01*
G75*
G02*
X103925000Y-52250000I-250000J0D01*
G01*
X102975000Y-52250000D01*
G75*
G02*
X102725000Y-52000000I0J250000D01*
G01*
X102725000Y-51500000D01*
G75*
G02*
X102975000Y-51250000I250000J0D01*
G01*
G37*
G36*
G01*
X102975000Y-53150000D02*
X103925000Y-53150000D01*
G75*
G02*
X104175000Y-53400000I0J-250000D01*
G01*
X104175000Y-53900000D01*
G75*
G02*
X103925000Y-54150000I-250000J0D01*
G01*
X102975000Y-54150000D01*
G75*
G02*
X102725000Y-53900000I0J250000D01*
G01*
X102725000Y-53400000D01*
G75*
G02*
X102975000Y-53150000I250000J0D01*
G01*
G37*
G36*
G01*
X161363000Y-31860000D02*
X161363000Y-29660000D01*
G75*
G02*
X161465000Y-29558000I102000J0D01*
G01*
X162065000Y-29558000D01*
G75*
G02*
X162167000Y-29660000I0J-102000D01*
G01*
X162167000Y-31860000D01*
G75*
G02*
X162065000Y-31962000I-102000J0D01*
G01*
X161465000Y-31962000D01*
G75*
G02*
X161363000Y-31860000I0J102000D01*
G01*
G37*
G36*
G01*
X115275000Y-52950000D02*
X115275000Y-52050000D01*
G75*
G02*
X115525000Y-51800000I250000J0D01*
G01*
X116050000Y-51800000D01*
G75*
G02*
X116300000Y-52050000I0J-250000D01*
G01*
X116300000Y-52950000D01*
G75*
G02*
X116050000Y-53200000I-250000J0D01*
G01*
X115525000Y-53200000D01*
G75*
G02*
X115275000Y-52950000I0J250000D01*
G01*
G37*
G36*
G01*
X117100000Y-52950000D02*
X117100000Y-52050000D01*
G75*
G02*
X117350000Y-51800000I250000J0D01*
G01*
X117875000Y-51800000D01*
G75*
G02*
X118125000Y-52050000I0J-250000D01*
G01*
X118125000Y-52950000D01*
G75*
G02*
X117875000Y-53200000I-250000J0D01*
G01*
X117350000Y-53200000D01*
G75*
G02*
X117100000Y-52950000I0J250000D01*
G01*
G37*
D25*
X107225000Y-81300000D03*
D26*
X104685000Y-81300000D03*
X102145000Y-81300000D03*
D12*
X181950000Y-74780000D03*
X181950000Y-91010000D03*
X188300000Y-74780000D03*
X188300000Y-91010000D03*
X175600000Y-74780000D03*
X175600000Y-91010000D03*
G36*
X169650000Y-115150000D02*
G01*
X169650000Y-115650000D01*
X169644911Y-115650000D01*
X169644911Y-115721157D01*
X169604816Y-115857708D01*
X169527875Y-115977430D01*
X169420320Y-116070627D01*
X169290866Y-116129746D01*
X169150000Y-116150000D01*
X168650000Y-116150000D01*
X168509134Y-116129746D01*
X168379680Y-116070627D01*
X168272125Y-115977430D01*
X168195184Y-115857708D01*
X168155089Y-115721157D01*
X168155089Y-115650000D01*
X168150000Y-115650000D01*
X168150000Y-115150000D01*
X169650000Y-115150000D01*
G37*
G36*
X168155089Y-114350000D02*
G01*
X168155089Y-114278843D01*
X168195184Y-114142292D01*
X168272125Y-114022570D01*
X168379680Y-113929373D01*
X168509134Y-113870254D01*
X168650000Y-113850000D01*
X169150000Y-113850000D01*
X169290866Y-113870254D01*
X169420320Y-113929373D01*
X169527875Y-114022570D01*
X169604816Y-114142292D01*
X169644911Y-114278843D01*
X169644911Y-114350000D01*
X169650000Y-114350000D01*
X169650000Y-114850000D01*
X168150000Y-114850000D01*
X168150000Y-114350000D01*
X168155089Y-114350000D01*
G37*
D28*
X23000000Y-64500000D03*
X37000000Y-64500000D03*
X23000000Y-69500000D03*
X37000000Y-69500000D03*
G36*
G01*
X156737500Y-26125000D02*
X156737500Y-27075000D01*
G75*
G02*
X156487500Y-27325000I-250000J0D01*
G01*
X155987500Y-27325000D01*
G75*
G02*
X155737500Y-27075000I0J250000D01*
G01*
X155737500Y-26125000D01*
G75*
G02*
X155987500Y-25875000I250000J0D01*
G01*
X156487500Y-25875000D01*
G75*
G02*
X156737500Y-26125000I0J-250000D01*
G01*
G37*
G36*
G01*
X154837500Y-26125000D02*
X154837500Y-27075000D01*
G75*
G02*
X154587500Y-27325000I-250000J0D01*
G01*
X154087500Y-27325000D01*
G75*
G02*
X153837500Y-27075000I0J250000D01*
G01*
X153837500Y-26125000D01*
G75*
G02*
X154087500Y-25875000I250000J0D01*
G01*
X154587500Y-25875000D01*
G75*
G02*
X154837500Y-26125000I0J-250000D01*
G01*
G37*
D25*
X88600000Y-54000000D03*
D26*
X91140000Y-54000000D03*
D36*
X46650000Y-31130000D03*
X46650000Y-32400000D03*
X46650000Y-33670000D03*
X56150000Y-33670000D03*
X56150000Y-32400000D03*
X56150000Y-31130000D03*
G36*
G01*
X57325000Y-35162500D02*
X57325000Y-36062500D01*
G75*
G02*
X57075000Y-36312500I-250000J0D01*
G01*
X56550000Y-36312500D01*
G75*
G02*
X56300000Y-36062500I0J250000D01*
G01*
X56300000Y-35162500D01*
G75*
G02*
X56550000Y-34912500I250000J0D01*
G01*
X57075000Y-34912500D01*
G75*
G02*
X57325000Y-35162500I0J-250000D01*
G01*
G37*
G36*
G01*
X55500000Y-35162500D02*
X55500000Y-36062500D01*
G75*
G02*
X55250000Y-36312500I-250000J0D01*
G01*
X54725000Y-36312500D01*
G75*
G02*
X54475000Y-36062500I0J250000D01*
G01*
X54475000Y-35162500D01*
G75*
G02*
X54725000Y-34912500I250000J0D01*
G01*
X55250000Y-34912500D01*
G75*
G02*
X55500000Y-35162500I0J-250000D01*
G01*
G37*
G36*
G01*
X48125000Y-72400000D02*
X48125000Y-71500000D01*
G75*
G02*
X48375000Y-71250000I250000J0D01*
G01*
X48900000Y-71250000D01*
G75*
G02*
X49150000Y-71500000I0J-250000D01*
G01*
X49150000Y-72400000D01*
G75*
G02*
X48900000Y-72650000I-250000J0D01*
G01*
X48375000Y-72650000D01*
G75*
G02*
X48125000Y-72400000I0J250000D01*
G01*
G37*
G36*
G01*
X49950000Y-72400000D02*
X49950000Y-71500000D01*
G75*
G02*
X50200000Y-71250000I250000J0D01*
G01*
X50725000Y-71250000D01*
G75*
G02*
X50975000Y-71500000I0J-250000D01*
G01*
X50975000Y-72400000D01*
G75*
G02*
X50725000Y-72650000I-250000J0D01*
G01*
X50200000Y-72650000D01*
G75*
G02*
X49950000Y-72400000I0J250000D01*
G01*
G37*
G36*
G01*
X155567500Y-39000000D02*
X155567500Y-37000000D01*
G75*
G02*
X155817500Y-36750000I250000J0D01*
G01*
X159317500Y-36750000D01*
G75*
G02*
X159567500Y-37000000I0J-250000D01*
G01*
X159567500Y-39000000D01*
G75*
G02*
X159317500Y-39250000I-250000J0D01*
G01*
X155817500Y-39250000D01*
G75*
G02*
X155567500Y-39000000I0J250000D01*
G01*
G37*
G36*
G01*
X163567500Y-39000000D02*
X163567500Y-37000000D01*
G75*
G02*
X163817500Y-36750000I250000J0D01*
G01*
X167317500Y-36750000D01*
G75*
G02*
X167567500Y-37000000I0J-250000D01*
G01*
X167567500Y-39000000D01*
G75*
G02*
X167317500Y-39250000I-250000J0D01*
G01*
X163817500Y-39250000D01*
G75*
G02*
X163567500Y-39000000I0J250000D01*
G01*
G37*
G36*
X97550000Y-75650000D02*
G01*
X97550000Y-76150000D01*
X97544911Y-76150000D01*
X97544911Y-76221157D01*
X97504816Y-76357708D01*
X97427875Y-76477430D01*
X97320320Y-76570627D01*
X97190866Y-76629746D01*
X97050000Y-76650000D01*
X96550000Y-76650000D01*
X96409134Y-76629746D01*
X96279680Y-76570627D01*
X96172125Y-76477430D01*
X96095184Y-76357708D01*
X96055089Y-76221157D01*
X96055089Y-76150000D01*
X96050000Y-76150000D01*
X96050000Y-75650000D01*
X97550000Y-75650000D01*
G37*
G36*
X96055089Y-74850000D02*
G01*
X96055089Y-74778843D01*
X96095184Y-74642292D01*
X96172125Y-74522570D01*
X96279680Y-74429373D01*
X96409134Y-74370254D01*
X96550000Y-74350000D01*
X97050000Y-74350000D01*
X97190866Y-74370254D01*
X97320320Y-74429373D01*
X97427875Y-74522570D01*
X97504816Y-74642292D01*
X97544911Y-74778843D01*
X97544911Y-74850000D01*
X97550000Y-74850000D01*
X97550000Y-75350000D01*
X96050000Y-75350000D01*
X96050000Y-74850000D01*
X96055089Y-74850000D01*
G37*
G36*
X95050000Y-75650000D02*
G01*
X95050000Y-76150000D01*
X95044911Y-76150000D01*
X95044911Y-76221157D01*
X95004816Y-76357708D01*
X94927875Y-76477430D01*
X94820320Y-76570627D01*
X94690866Y-76629746D01*
X94550000Y-76650000D01*
X94050000Y-76650000D01*
X93909134Y-76629746D01*
X93779680Y-76570627D01*
X93672125Y-76477430D01*
X93595184Y-76357708D01*
X93555089Y-76221157D01*
X93555089Y-76150000D01*
X93550000Y-76150000D01*
X93550000Y-75650000D01*
X95050000Y-75650000D01*
G37*
G36*
X93555089Y-74850000D02*
G01*
X93555089Y-74778843D01*
X93595184Y-74642292D01*
X93672125Y-74522570D01*
X93779680Y-74429373D01*
X93909134Y-74370254D01*
X94050000Y-74350000D01*
X94550000Y-74350000D01*
X94690866Y-74370254D01*
X94820320Y-74429373D01*
X94927875Y-74522570D01*
X95004816Y-74642292D01*
X95044911Y-74778843D01*
X95044911Y-74850000D01*
X95050000Y-74850000D01*
X95050000Y-75350000D01*
X93550000Y-75350000D01*
X93550000Y-74850000D01*
X93555089Y-74850000D01*
G37*
G36*
G01*
X104850000Y-49475000D02*
X104750000Y-49475000D01*
G75*
G02*
X104700000Y-49425000I0J50000D01*
G01*
X104700000Y-48650000D01*
G75*
G02*
X104750000Y-48600000I50000J0D01*
G01*
X104850000Y-48600000D01*
G75*
G02*
X104900000Y-48650000I0J-50000D01*
G01*
X104900000Y-49425000D01*
G75*
G02*
X104850000Y-49475000I-50000J0D01*
G01*
G37*
G36*
G01*
X105250000Y-49475000D02*
X105150000Y-49475000D01*
G75*
G02*
X105100000Y-49425000I0J50000D01*
G01*
X105100000Y-48650000D01*
G75*
G02*
X105150000Y-48600000I50000J0D01*
G01*
X105250000Y-48600000D01*
G75*
G02*
X105300000Y-48650000I0J-50000D01*
G01*
X105300000Y-49425000D01*
G75*
G02*
X105250000Y-49475000I-50000J0D01*
G01*
G37*
G36*
G01*
X105650000Y-49475000D02*
X105550000Y-49475000D01*
G75*
G02*
X105500000Y-49425000I0J50000D01*
G01*
X105500000Y-48650000D01*
G75*
G02*
X105550000Y-48600000I50000J0D01*
G01*
X105650000Y-48600000D01*
G75*
G02*
X105700000Y-48650000I0J-50000D01*
G01*
X105700000Y-49425000D01*
G75*
G02*
X105650000Y-49475000I-50000J0D01*
G01*
G37*
G36*
G01*
X106050000Y-49475000D02*
X105950000Y-49475000D01*
G75*
G02*
X105900000Y-49425000I0J50000D01*
G01*
X105900000Y-48650000D01*
G75*
G02*
X105950000Y-48600000I50000J0D01*
G01*
X106050000Y-48600000D01*
G75*
G02*
X106100000Y-48650000I0J-50000D01*
G01*
X106100000Y-49425000D01*
G75*
G02*
X106050000Y-49475000I-50000J0D01*
G01*
G37*
G36*
G01*
X106450000Y-49475000D02*
X106350000Y-49475000D01*
G75*
G02*
X106300000Y-49425000I0J50000D01*
G01*
X106300000Y-48650000D01*
G75*
G02*
X106350000Y-48600000I50000J0D01*
G01*
X106450000Y-48600000D01*
G75*
G02*
X106500000Y-48650000I0J-50000D01*
G01*
X106500000Y-49425000D01*
G75*
G02*
X106450000Y-49475000I-50000J0D01*
G01*
G37*
G36*
G01*
X106850000Y-49475000D02*
X106750000Y-49475000D01*
G75*
G02*
X106700000Y-49425000I0J50000D01*
G01*
X106700000Y-48650000D01*
G75*
G02*
X106750000Y-48600000I50000J0D01*
G01*
X106850000Y-48600000D01*
G75*
G02*
X106900000Y-48650000I0J-50000D01*
G01*
X106900000Y-49425000D01*
G75*
G02*
X106850000Y-49475000I-50000J0D01*
G01*
G37*
G36*
G01*
X107250000Y-49475000D02*
X107150000Y-49475000D01*
G75*
G02*
X107100000Y-49425000I0J50000D01*
G01*
X107100000Y-48650000D01*
G75*
G02*
X107150000Y-48600000I50000J0D01*
G01*
X107250000Y-48600000D01*
G75*
G02*
X107300000Y-48650000I0J-50000D01*
G01*
X107300000Y-49425000D01*
G75*
G02*
X107250000Y-49475000I-50000J0D01*
G01*
G37*
G36*
G01*
X107650000Y-49475000D02*
X107550000Y-49475000D01*
G75*
G02*
X107500000Y-49425000I0J50000D01*
G01*
X107500000Y-48650000D01*
G75*
G02*
X107550000Y-48600000I50000J0D01*
G01*
X107650000Y-48600000D01*
G75*
G02*
X107700000Y-48650000I0J-50000D01*
G01*
X107700000Y-49425000D01*
G75*
G02*
X107650000Y-49475000I-50000J0D01*
G01*
G37*
G36*
G01*
X108050000Y-49475000D02*
X107950000Y-49475000D01*
G75*
G02*
X107900000Y-49425000I0J50000D01*
G01*
X107900000Y-48650000D01*
G75*
G02*
X107950000Y-48600000I50000J0D01*
G01*
X108050000Y-48600000D01*
G75*
G02*
X108100000Y-48650000I0J-50000D01*
G01*
X108100000Y-49425000D01*
G75*
G02*
X108050000Y-49475000I-50000J0D01*
G01*
G37*
G36*
G01*
X108450000Y-49475000D02*
X108350000Y-49475000D01*
G75*
G02*
X108300000Y-49425000I0J50000D01*
G01*
X108300000Y-48650000D01*
G75*
G02*
X108350000Y-48600000I50000J0D01*
G01*
X108450000Y-48600000D01*
G75*
G02*
X108500000Y-48650000I0J-50000D01*
G01*
X108500000Y-49425000D01*
G75*
G02*
X108450000Y-49475000I-50000J0D01*
G01*
G37*
G36*
G01*
X108850000Y-49475000D02*
X108750000Y-49475000D01*
G75*
G02*
X108700000Y-49425000I0J50000D01*
G01*
X108700000Y-48650000D01*
G75*
G02*
X108750000Y-48600000I50000J0D01*
G01*
X108850000Y-48600000D01*
G75*
G02*
X108900000Y-48650000I0J-50000D01*
G01*
X108900000Y-49425000D01*
G75*
G02*
X108850000Y-49475000I-50000J0D01*
G01*
G37*
G36*
G01*
X109250000Y-49475000D02*
X109150000Y-49475000D01*
G75*
G02*
X109100000Y-49425000I0J50000D01*
G01*
X109100000Y-48650000D01*
G75*
G02*
X109150000Y-48600000I50000J0D01*
G01*
X109250000Y-48600000D01*
G75*
G02*
X109300000Y-48650000I0J-50000D01*
G01*
X109300000Y-49425000D01*
G75*
G02*
X109250000Y-49475000I-50000J0D01*
G01*
G37*
G36*
G01*
X109650000Y-49475000D02*
X109550000Y-49475000D01*
G75*
G02*
X109500000Y-49425000I0J50000D01*
G01*
X109500000Y-48650000D01*
G75*
G02*
X109550000Y-48600000I50000J0D01*
G01*
X109650000Y-48600000D01*
G75*
G02*
X109700000Y-48650000I0J-50000D01*
G01*
X109700000Y-49425000D01*
G75*
G02*
X109650000Y-49475000I-50000J0D01*
G01*
G37*
G36*
G01*
X110050000Y-49475000D02*
X109950000Y-49475000D01*
G75*
G02*
X109900000Y-49425000I0J50000D01*
G01*
X109900000Y-48650000D01*
G75*
G02*
X109950000Y-48600000I50000J0D01*
G01*
X110050000Y-48600000D01*
G75*
G02*
X110100000Y-48650000I0J-50000D01*
G01*
X110100000Y-49425000D01*
G75*
G02*
X110050000Y-49475000I-50000J0D01*
G01*
G37*
G36*
G01*
X111225000Y-48300000D02*
X110450000Y-48300000D01*
G75*
G02*
X110400000Y-48250000I0J50000D01*
G01*
X110400000Y-48150000D01*
G75*
G02*
X110450000Y-48100000I50000J0D01*
G01*
X111225000Y-48100000D01*
G75*
G02*
X111275000Y-48150000I0J-50000D01*
G01*
X111275000Y-48250000D01*
G75*
G02*
X111225000Y-48300000I-50000J0D01*
G01*
G37*
G36*
G01*
X111225000Y-47900000D02*
X110450000Y-47900000D01*
G75*
G02*
X110400000Y-47850000I0J50000D01*
G01*
X110400000Y-47750000D01*
G75*
G02*
X110450000Y-47700000I50000J0D01*
G01*
X111225000Y-47700000D01*
G75*
G02*
X111275000Y-47750000I0J-50000D01*
G01*
X111275000Y-47850000D01*
G75*
G02*
X111225000Y-47900000I-50000J0D01*
G01*
G37*
G36*
G01*
X111225000Y-47500000D02*
X110450000Y-47500000D01*
G75*
G02*
X110400000Y-47450000I0J50000D01*
G01*
X110400000Y-47350000D01*
G75*
G02*
X110450000Y-47300000I50000J0D01*
G01*
X111225000Y-47300000D01*
G75*
G02*
X111275000Y-47350000I0J-50000D01*
G01*
X111275000Y-47450000D01*
G75*
G02*
X111225000Y-47500000I-50000J0D01*
G01*
G37*
G36*
G01*
X111225000Y-47100000D02*
X110450000Y-47100000D01*
G75*
G02*
X110400000Y-47050000I0J50000D01*
G01*
X110400000Y-46950000D01*
G75*
G02*
X110450000Y-46900000I50000J0D01*
G01*
X111225000Y-46900000D01*
G75*
G02*
X111275000Y-46950000I0J-50000D01*
G01*
X111275000Y-47050000D01*
G75*
G02*
X111225000Y-47100000I-50000J0D01*
G01*
G37*
G36*
G01*
X111225000Y-46700000D02*
X110450000Y-46700000D01*
G75*
G02*
X110400000Y-46650000I0J50000D01*
G01*
X110400000Y-46550000D01*
G75*
G02*
X110450000Y-46500000I50000J0D01*
G01*
X111225000Y-46500000D01*
G75*
G02*
X111275000Y-46550000I0J-50000D01*
G01*
X111275000Y-46650000D01*
G75*
G02*
X111225000Y-46700000I-50000J0D01*
G01*
G37*
G36*
G01*
X111225000Y-46300000D02*
X110450000Y-46300000D01*
G75*
G02*
X110400000Y-46250000I0J50000D01*
G01*
X110400000Y-46150000D01*
G75*
G02*
X110450000Y-46100000I50000J0D01*
G01*
X111225000Y-46100000D01*
G75*
G02*
X111275000Y-46150000I0J-50000D01*
G01*
X111275000Y-46250000D01*
G75*
G02*
X111225000Y-46300000I-50000J0D01*
G01*
G37*
G36*
G01*
X111225000Y-45900000D02*
X110450000Y-45900000D01*
G75*
G02*
X110400000Y-45850000I0J50000D01*
G01*
X110400000Y-45750000D01*
G75*
G02*
X110450000Y-45700000I50000J0D01*
G01*
X111225000Y-45700000D01*
G75*
G02*
X111275000Y-45750000I0J-50000D01*
G01*
X111275000Y-45850000D01*
G75*
G02*
X111225000Y-45900000I-50000J0D01*
G01*
G37*
G36*
G01*
X111225000Y-45500000D02*
X110450000Y-45500000D01*
G75*
G02*
X110400000Y-45450000I0J50000D01*
G01*
X110400000Y-45350000D01*
G75*
G02*
X110450000Y-45300000I50000J0D01*
G01*
X111225000Y-45300000D01*
G75*
G02*
X111275000Y-45350000I0J-50000D01*
G01*
X111275000Y-45450000D01*
G75*
G02*
X111225000Y-45500000I-50000J0D01*
G01*
G37*
G36*
G01*
X111225000Y-45100000D02*
X110450000Y-45100000D01*
G75*
G02*
X110400000Y-45050000I0J50000D01*
G01*
X110400000Y-44950000D01*
G75*
G02*
X110450000Y-44900000I50000J0D01*
G01*
X111225000Y-44900000D01*
G75*
G02*
X111275000Y-44950000I0J-50000D01*
G01*
X111275000Y-45050000D01*
G75*
G02*
X111225000Y-45100000I-50000J0D01*
G01*
G37*
G36*
G01*
X111225000Y-44700000D02*
X110450000Y-44700000D01*
G75*
G02*
X110400000Y-44650000I0J50000D01*
G01*
X110400000Y-44550000D01*
G75*
G02*
X110450000Y-44500000I50000J0D01*
G01*
X111225000Y-44500000D01*
G75*
G02*
X111275000Y-44550000I0J-50000D01*
G01*
X111275000Y-44650000D01*
G75*
G02*
X111225000Y-44700000I-50000J0D01*
G01*
G37*
G36*
G01*
X111225000Y-44300000D02*
X110450000Y-44300000D01*
G75*
G02*
X110400000Y-44250000I0J50000D01*
G01*
X110400000Y-44150000D01*
G75*
G02*
X110450000Y-44100000I50000J0D01*
G01*
X111225000Y-44100000D01*
G75*
G02*
X111275000Y-44150000I0J-50000D01*
G01*
X111275000Y-44250000D01*
G75*
G02*
X111225000Y-44300000I-50000J0D01*
G01*
G37*
G36*
G01*
X111225000Y-43900000D02*
X110450000Y-43900000D01*
G75*
G02*
X110400000Y-43850000I0J50000D01*
G01*
X110400000Y-43750000D01*
G75*
G02*
X110450000Y-43700000I50000J0D01*
G01*
X111225000Y-43700000D01*
G75*
G02*
X111275000Y-43750000I0J-50000D01*
G01*
X111275000Y-43850000D01*
G75*
G02*
X111225000Y-43900000I-50000J0D01*
G01*
G37*
G36*
G01*
X111225000Y-43500000D02*
X110450000Y-43500000D01*
G75*
G02*
X110400000Y-43450000I0J50000D01*
G01*
X110400000Y-43350000D01*
G75*
G02*
X110450000Y-43300000I50000J0D01*
G01*
X111225000Y-43300000D01*
G75*
G02*
X111275000Y-43350000I0J-50000D01*
G01*
X111275000Y-43450000D01*
G75*
G02*
X111225000Y-43500000I-50000J0D01*
G01*
G37*
G36*
G01*
X111225000Y-43100000D02*
X110450000Y-43100000D01*
G75*
G02*
X110400000Y-43050000I0J50000D01*
G01*
X110400000Y-42950000D01*
G75*
G02*
X110450000Y-42900000I50000J0D01*
G01*
X111225000Y-42900000D01*
G75*
G02*
X111275000Y-42950000I0J-50000D01*
G01*
X111275000Y-43050000D01*
G75*
G02*
X111225000Y-43100000I-50000J0D01*
G01*
G37*
G36*
G01*
X110050000Y-42600000D02*
X109950000Y-42600000D01*
G75*
G02*
X109900000Y-42550000I0J50000D01*
G01*
X109900000Y-41775000D01*
G75*
G02*
X109950000Y-41725000I50000J0D01*
G01*
X110050000Y-41725000D01*
G75*
G02*
X110100000Y-41775000I0J-50000D01*
G01*
X110100000Y-42550000D01*
G75*
G02*
X110050000Y-42600000I-50000J0D01*
G01*
G37*
G36*
G01*
X109650000Y-42600000D02*
X109550000Y-42600000D01*
G75*
G02*
X109500000Y-42550000I0J50000D01*
G01*
X109500000Y-41775000D01*
G75*
G02*
X109550000Y-41725000I50000J0D01*
G01*
X109650000Y-41725000D01*
G75*
G02*
X109700000Y-41775000I0J-50000D01*
G01*
X109700000Y-42550000D01*
G75*
G02*
X109650000Y-42600000I-50000J0D01*
G01*
G37*
G36*
G01*
X109250000Y-42600000D02*
X109150000Y-42600000D01*
G75*
G02*
X109100000Y-42550000I0J50000D01*
G01*
X109100000Y-41775000D01*
G75*
G02*
X109150000Y-41725000I50000J0D01*
G01*
X109250000Y-41725000D01*
G75*
G02*
X109300000Y-41775000I0J-50000D01*
G01*
X109300000Y-42550000D01*
G75*
G02*
X109250000Y-42600000I-50000J0D01*
G01*
G37*
G36*
G01*
X108850000Y-42600000D02*
X108750000Y-42600000D01*
G75*
G02*
X108700000Y-42550000I0J50000D01*
G01*
X108700000Y-41775000D01*
G75*
G02*
X108750000Y-41725000I50000J0D01*
G01*
X108850000Y-41725000D01*
G75*
G02*
X108900000Y-41775000I0J-50000D01*
G01*
X108900000Y-42550000D01*
G75*
G02*
X108850000Y-42600000I-50000J0D01*
G01*
G37*
G36*
G01*
X108450000Y-42600000D02*
X108350000Y-42600000D01*
G75*
G02*
X108300000Y-42550000I0J50000D01*
G01*
X108300000Y-41775000D01*
G75*
G02*
X108350000Y-41725000I50000J0D01*
G01*
X108450000Y-41725000D01*
G75*
G02*
X108500000Y-41775000I0J-50000D01*
G01*
X108500000Y-42550000D01*
G75*
G02*
X108450000Y-42600000I-50000J0D01*
G01*
G37*
G36*
G01*
X108050000Y-42600000D02*
X107950000Y-42600000D01*
G75*
G02*
X107900000Y-42550000I0J50000D01*
G01*
X107900000Y-41775000D01*
G75*
G02*
X107950000Y-41725000I50000J0D01*
G01*
X108050000Y-41725000D01*
G75*
G02*
X108100000Y-41775000I0J-50000D01*
G01*
X108100000Y-42550000D01*
G75*
G02*
X108050000Y-42600000I-50000J0D01*
G01*
G37*
G36*
G01*
X107650000Y-42600000D02*
X107550000Y-42600000D01*
G75*
G02*
X107500000Y-42550000I0J50000D01*
G01*
X107500000Y-41775000D01*
G75*
G02*
X107550000Y-41725000I50000J0D01*
G01*
X107650000Y-41725000D01*
G75*
G02*
X107700000Y-41775000I0J-50000D01*
G01*
X107700000Y-42550000D01*
G75*
G02*
X107650000Y-42600000I-50000J0D01*
G01*
G37*
G36*
G01*
X107250000Y-42600000D02*
X107150000Y-42600000D01*
G75*
G02*
X107100000Y-42550000I0J50000D01*
G01*
X107100000Y-41775000D01*
G75*
G02*
X107150000Y-41725000I50000J0D01*
G01*
X107250000Y-41725000D01*
G75*
G02*
X107300000Y-41775000I0J-50000D01*
G01*
X107300000Y-42550000D01*
G75*
G02*
X107250000Y-42600000I-50000J0D01*
G01*
G37*
G36*
G01*
X106850000Y-42600000D02*
X106750000Y-42600000D01*
G75*
G02*
X106700000Y-42550000I0J50000D01*
G01*
X106700000Y-41775000D01*
G75*
G02*
X106750000Y-41725000I50000J0D01*
G01*
X106850000Y-41725000D01*
G75*
G02*
X106900000Y-41775000I0J-50000D01*
G01*
X106900000Y-42550000D01*
G75*
G02*
X106850000Y-42600000I-50000J0D01*
G01*
G37*
G36*
G01*
X106450000Y-42600000D02*
X106350000Y-42600000D01*
G75*
G02*
X106300000Y-42550000I0J50000D01*
G01*
X106300000Y-41775000D01*
G75*
G02*
X106350000Y-41725000I50000J0D01*
G01*
X106450000Y-41725000D01*
G75*
G02*
X106500000Y-41775000I0J-50000D01*
G01*
X106500000Y-42550000D01*
G75*
G02*
X106450000Y-42600000I-50000J0D01*
G01*
G37*
G36*
G01*
X106050000Y-42600000D02*
X105950000Y-42600000D01*
G75*
G02*
X105900000Y-42550000I0J50000D01*
G01*
X105900000Y-41775000D01*
G75*
G02*
X105950000Y-41725000I50000J0D01*
G01*
X106050000Y-41725000D01*
G75*
G02*
X106100000Y-41775000I0J-50000D01*
G01*
X106100000Y-42550000D01*
G75*
G02*
X106050000Y-42600000I-50000J0D01*
G01*
G37*
G36*
G01*
X105650000Y-42600000D02*
X105550000Y-42600000D01*
G75*
G02*
X105500000Y-42550000I0J50000D01*
G01*
X105500000Y-41775000D01*
G75*
G02*
X105550000Y-41725000I50000J0D01*
G01*
X105650000Y-41725000D01*
G75*
G02*
X105700000Y-41775000I0J-50000D01*
G01*
X105700000Y-42550000D01*
G75*
G02*
X105650000Y-42600000I-50000J0D01*
G01*
G37*
G36*
G01*
X105250000Y-42600000D02*
X105150000Y-42600000D01*
G75*
G02*
X105100000Y-42550000I0J50000D01*
G01*
X105100000Y-41775000D01*
G75*
G02*
X105150000Y-41725000I50000J0D01*
G01*
X105250000Y-41725000D01*
G75*
G02*
X105300000Y-41775000I0J-50000D01*
G01*
X105300000Y-42550000D01*
G75*
G02*
X105250000Y-42600000I-50000J0D01*
G01*
G37*
G36*
G01*
X104850000Y-42600000D02*
X104750000Y-42600000D01*
G75*
G02*
X104700000Y-42550000I0J50000D01*
G01*
X104700000Y-41775000D01*
G75*
G02*
X104750000Y-41725000I50000J0D01*
G01*
X104850000Y-41725000D01*
G75*
G02*
X104900000Y-41775000I0J-50000D01*
G01*
X104900000Y-42550000D01*
G75*
G02*
X104850000Y-42600000I-50000J0D01*
G01*
G37*
G36*
G01*
X104350000Y-43100000D02*
X103575000Y-43100000D01*
G75*
G02*
X103525000Y-43050000I0J50000D01*
G01*
X103525000Y-42950000D01*
G75*
G02*
X103575000Y-42900000I50000J0D01*
G01*
X104350000Y-42900000D01*
G75*
G02*
X104400000Y-42950000I0J-50000D01*
G01*
X104400000Y-43050000D01*
G75*
G02*
X104350000Y-43100000I-50000J0D01*
G01*
G37*
G36*
G01*
X104350000Y-43500000D02*
X103575000Y-43500000D01*
G75*
G02*
X103525000Y-43450000I0J50000D01*
G01*
X103525000Y-43350000D01*
G75*
G02*
X103575000Y-43300000I50000J0D01*
G01*
X104350000Y-43300000D01*
G75*
G02*
X104400000Y-43350000I0J-50000D01*
G01*
X104400000Y-43450000D01*
G75*
G02*
X104350000Y-43500000I-50000J0D01*
G01*
G37*
G36*
G01*
X104350000Y-43900000D02*
X103575000Y-43900000D01*
G75*
G02*
X103525000Y-43850000I0J50000D01*
G01*
X103525000Y-43750000D01*
G75*
G02*
X103575000Y-43700000I50000J0D01*
G01*
X104350000Y-43700000D01*
G75*
G02*
X104400000Y-43750000I0J-50000D01*
G01*
X104400000Y-43850000D01*
G75*
G02*
X104350000Y-43900000I-50000J0D01*
G01*
G37*
G36*
G01*
X104350000Y-44300000D02*
X103575000Y-44300000D01*
G75*
G02*
X103525000Y-44250000I0J50000D01*
G01*
X103525000Y-44150000D01*
G75*
G02*
X103575000Y-44100000I50000J0D01*
G01*
X104350000Y-44100000D01*
G75*
G02*
X104400000Y-44150000I0J-50000D01*
G01*
X104400000Y-44250000D01*
G75*
G02*
X104350000Y-44300000I-50000J0D01*
G01*
G37*
G36*
G01*
X104350000Y-44700000D02*
X103575000Y-44700000D01*
G75*
G02*
X103525000Y-44650000I0J50000D01*
G01*
X103525000Y-44550000D01*
G75*
G02*
X103575000Y-44500000I50000J0D01*
G01*
X104350000Y-44500000D01*
G75*
G02*
X104400000Y-44550000I0J-50000D01*
G01*
X104400000Y-44650000D01*
G75*
G02*
X104350000Y-44700000I-50000J0D01*
G01*
G37*
G36*
G01*
X104350000Y-45100000D02*
X103575000Y-45100000D01*
G75*
G02*
X103525000Y-45050000I0J50000D01*
G01*
X103525000Y-44950000D01*
G75*
G02*
X103575000Y-44900000I50000J0D01*
G01*
X104350000Y-44900000D01*
G75*
G02*
X104400000Y-44950000I0J-50000D01*
G01*
X104400000Y-45050000D01*
G75*
G02*
X104350000Y-45100000I-50000J0D01*
G01*
G37*
G36*
G01*
X104350000Y-45500000D02*
X103575000Y-45500000D01*
G75*
G02*
X103525000Y-45450000I0J50000D01*
G01*
X103525000Y-45350000D01*
G75*
G02*
X103575000Y-45300000I50000J0D01*
G01*
X104350000Y-45300000D01*
G75*
G02*
X104400000Y-45350000I0J-50000D01*
G01*
X104400000Y-45450000D01*
G75*
G02*
X104350000Y-45500000I-50000J0D01*
G01*
G37*
G36*
G01*
X104350000Y-45900000D02*
X103575000Y-45900000D01*
G75*
G02*
X103525000Y-45850000I0J50000D01*
G01*
X103525000Y-45750000D01*
G75*
G02*
X103575000Y-45700000I50000J0D01*
G01*
X104350000Y-45700000D01*
G75*
G02*
X104400000Y-45750000I0J-50000D01*
G01*
X104400000Y-45850000D01*
G75*
G02*
X104350000Y-45900000I-50000J0D01*
G01*
G37*
G36*
G01*
X104350000Y-46300000D02*
X103575000Y-46300000D01*
G75*
G02*
X103525000Y-46250000I0J50000D01*
G01*
X103525000Y-46150000D01*
G75*
G02*
X103575000Y-46100000I50000J0D01*
G01*
X104350000Y-46100000D01*
G75*
G02*
X104400000Y-46150000I0J-50000D01*
G01*
X104400000Y-46250000D01*
G75*
G02*
X104350000Y-46300000I-50000J0D01*
G01*
G37*
G36*
G01*
X104350000Y-46700000D02*
X103575000Y-46700000D01*
G75*
G02*
X103525000Y-46650000I0J50000D01*
G01*
X103525000Y-46550000D01*
G75*
G02*
X103575000Y-46500000I50000J0D01*
G01*
X104350000Y-46500000D01*
G75*
G02*
X104400000Y-46550000I0J-50000D01*
G01*
X104400000Y-46650000D01*
G75*
G02*
X104350000Y-46700000I-50000J0D01*
G01*
G37*
G36*
G01*
X104350000Y-47100000D02*
X103575000Y-47100000D01*
G75*
G02*
X103525000Y-47050000I0J50000D01*
G01*
X103525000Y-46950000D01*
G75*
G02*
X103575000Y-46900000I50000J0D01*
G01*
X104350000Y-46900000D01*
G75*
G02*
X104400000Y-46950000I0J-50000D01*
G01*
X104400000Y-47050000D01*
G75*
G02*
X104350000Y-47100000I-50000J0D01*
G01*
G37*
G36*
G01*
X104350000Y-47500000D02*
X103575000Y-47500000D01*
G75*
G02*
X103525000Y-47450000I0J50000D01*
G01*
X103525000Y-47350000D01*
G75*
G02*
X103575000Y-47300000I50000J0D01*
G01*
X104350000Y-47300000D01*
G75*
G02*
X104400000Y-47350000I0J-50000D01*
G01*
X104400000Y-47450000D01*
G75*
G02*
X104350000Y-47500000I-50000J0D01*
G01*
G37*
G36*
G01*
X104350000Y-47900000D02*
X103575000Y-47900000D01*
G75*
G02*
X103525000Y-47850000I0J50000D01*
G01*
X103525000Y-47750000D01*
G75*
G02*
X103575000Y-47700000I50000J0D01*
G01*
X104350000Y-47700000D01*
G75*
G02*
X104400000Y-47750000I0J-50000D01*
G01*
X104400000Y-47850000D01*
G75*
G02*
X104350000Y-47900000I-50000J0D01*
G01*
G37*
G36*
G01*
X104350000Y-48300000D02*
X103575000Y-48300000D01*
G75*
G02*
X103525000Y-48250000I0J50000D01*
G01*
X103525000Y-48150000D01*
G75*
G02*
X103575000Y-48100000I50000J0D01*
G01*
X104350000Y-48100000D01*
G75*
G02*
X104400000Y-48150000I0J-50000D01*
G01*
X104400000Y-48250000D01*
G75*
G02*
X104350000Y-48300000I-50000J0D01*
G01*
G37*
G36*
G01*
X108856000Y-47200000D02*
X105944000Y-47200000D01*
G75*
G02*
X105800000Y-47056000I0J144000D01*
G01*
X105800000Y-44144000D01*
G75*
G02*
X105944000Y-44000000I144000J0D01*
G01*
X108856000Y-44000000D01*
G75*
G02*
X109000000Y-44144000I0J-144000D01*
G01*
X109000000Y-47056000D01*
G75*
G02*
X108856000Y-47200000I-144000J0D01*
G01*
G37*
G36*
G01*
X50925000Y-67543750D02*
X50925000Y-68456250D01*
G75*
G02*
X50681250Y-68700000I-243750J0D01*
G01*
X50193750Y-68700000D01*
G75*
G02*
X49950000Y-68456250I0J243750D01*
G01*
X49950000Y-67543750D01*
G75*
G02*
X50193750Y-67300000I243750J0D01*
G01*
X50681250Y-67300000D01*
G75*
G02*
X50925000Y-67543750I0J-243750D01*
G01*
G37*
G36*
G01*
X49050000Y-67543750D02*
X49050000Y-68456250D01*
G75*
G02*
X48806250Y-68700000I-243750J0D01*
G01*
X48318750Y-68700000D01*
G75*
G02*
X48075000Y-68456250I0J243750D01*
G01*
X48075000Y-67543750D01*
G75*
G02*
X48318750Y-67300000I243750J0D01*
G01*
X48806250Y-67300000D01*
G75*
G02*
X49050000Y-67543750I0J-243750D01*
G01*
G37*
G36*
G01*
X139550000Y-52925000D02*
X139550000Y-51975000D01*
G75*
G02*
X139800000Y-51725000I250000J0D01*
G01*
X140300000Y-51725000D01*
G75*
G02*
X140550000Y-51975000I0J-250000D01*
G01*
X140550000Y-52925000D01*
G75*
G02*
X140300000Y-53175000I-250000J0D01*
G01*
X139800000Y-53175000D01*
G75*
G02*
X139550000Y-52925000I0J250000D01*
G01*
G37*
G36*
G01*
X141450000Y-52925000D02*
X141450000Y-51975000D01*
G75*
G02*
X141700000Y-51725000I250000J0D01*
G01*
X142200000Y-51725000D01*
G75*
G02*
X142450000Y-51975000I0J-250000D01*
G01*
X142450000Y-52925000D01*
G75*
G02*
X142200000Y-53175000I-250000J0D01*
G01*
X141700000Y-53175000D01*
G75*
G02*
X141450000Y-52925000I0J250000D01*
G01*
G37*
D22*
X104000000Y-108000000D03*
D23*
X106000000Y-108000000D03*
X104000000Y-110000000D03*
X106000000Y-110000000D03*
G36*
G01*
X142780000Y-53700000D02*
X144080000Y-53700000D01*
G75*
G02*
X144330000Y-53950000I0J-250000D01*
G01*
X144330000Y-55950000D01*
G75*
G02*
X144080000Y-56200000I-250000J0D01*
G01*
X142780000Y-56200000D01*
G75*
G02*
X142530000Y-55950000I0J250000D01*
G01*
X142530000Y-53950000D01*
G75*
G02*
X142780000Y-53700000I250000J0D01*
G01*
G37*
G36*
G01*
X142780000Y-57700000D02*
X144080000Y-57700000D01*
G75*
G02*
X144330000Y-57950000I0J-250000D01*
G01*
X144330000Y-59950000D01*
G75*
G02*
X144080000Y-60200000I-250000J0D01*
G01*
X142780000Y-60200000D01*
G75*
G02*
X142530000Y-59950000I0J250000D01*
G01*
X142530000Y-57950000D01*
G75*
G02*
X142780000Y-57700000I250000J0D01*
G01*
G37*
G36*
G01*
X107000000Y-39425000D02*
X107000000Y-38475000D01*
G75*
G02*
X107250000Y-38225000I250000J0D01*
G01*
X107750000Y-38225000D01*
G75*
G02*
X108000000Y-38475000I0J-250000D01*
G01*
X108000000Y-39425000D01*
G75*
G02*
X107750000Y-39675000I-250000J0D01*
G01*
X107250000Y-39675000D01*
G75*
G02*
X107000000Y-39425000I0J250000D01*
G01*
G37*
G36*
G01*
X108900000Y-39425000D02*
X108900000Y-38475000D01*
G75*
G02*
X109150000Y-38225000I250000J0D01*
G01*
X109650000Y-38225000D01*
G75*
G02*
X109900000Y-38475000I0J-250000D01*
G01*
X109900000Y-39425000D01*
G75*
G02*
X109650000Y-39675000I-250000J0D01*
G01*
X109150000Y-39675000D01*
G75*
G02*
X108900000Y-39425000I0J250000D01*
G01*
G37*
G36*
G01*
X54475000Y-38000000D02*
X54475000Y-37100000D01*
G75*
G02*
X54725000Y-36850000I250000J0D01*
G01*
X55250000Y-36850000D01*
G75*
G02*
X55500000Y-37100000I0J-250000D01*
G01*
X55500000Y-38000000D01*
G75*
G02*
X55250000Y-38250000I-250000J0D01*
G01*
X54725000Y-38250000D01*
G75*
G02*
X54475000Y-38000000I0J250000D01*
G01*
G37*
G36*
G01*
X56300000Y-38000000D02*
X56300000Y-37100000D01*
G75*
G02*
X56550000Y-36850000I250000J0D01*
G01*
X57075000Y-36850000D01*
G75*
G02*
X57325000Y-37100000I0J-250000D01*
G01*
X57325000Y-38000000D01*
G75*
G02*
X57075000Y-38250000I-250000J0D01*
G01*
X56550000Y-38250000D01*
G75*
G02*
X56300000Y-38000000I0J250000D01*
G01*
G37*
G36*
G01*
X42956250Y-29725000D02*
X42443750Y-29725000D01*
G75*
G02*
X42225000Y-29506250I0J218750D01*
G01*
X42225000Y-29068750D01*
G75*
G02*
X42443750Y-28850000I218750J0D01*
G01*
X42956250Y-28850000D01*
G75*
G02*
X43175000Y-29068750I0J-218750D01*
G01*
X43175000Y-29506250D01*
G75*
G02*
X42956250Y-29725000I-218750J0D01*
G01*
G37*
G36*
G01*
X42956250Y-28150000D02*
X42443750Y-28150000D01*
G75*
G02*
X42225000Y-27931250I0J218750D01*
G01*
X42225000Y-27493750D01*
G75*
G02*
X42443750Y-27275000I218750J0D01*
G01*
X42956250Y-27275000D01*
G75*
G02*
X43175000Y-27493750I0J-218750D01*
G01*
X43175000Y-27931250D01*
G75*
G02*
X42956250Y-28150000I-218750J0D01*
G01*
G37*
G36*
G01*
X44300000Y-30450000D02*
X44900000Y-30450000D01*
G75*
G02*
X45150000Y-30700000I0J-250000D01*
G01*
X45150000Y-31300000D01*
G75*
G02*
X44900000Y-31550000I-250000J0D01*
G01*
X44300000Y-31550000D01*
G75*
G02*
X44050000Y-31300000I0J250000D01*
G01*
X44050000Y-30700000D01*
G75*
G02*
X44300000Y-30450000I250000J0D01*
G01*
G37*
G36*
G01*
X44300000Y-33250000D02*
X44900000Y-33250000D01*
G75*
G02*
X45150000Y-33500000I0J-250000D01*
G01*
X45150000Y-34100000D01*
G75*
G02*
X44900000Y-34350000I-250000J0D01*
G01*
X44300000Y-34350000D01*
G75*
G02*
X44050000Y-34100000I0J250000D01*
G01*
X44050000Y-33500000D01*
G75*
G02*
X44300000Y-33250000I250000J0D01*
G01*
G37*
G36*
G01*
X164050000Y-51850000D02*
X162750000Y-51850000D01*
G75*
G02*
X162500000Y-51600000I0J250000D01*
G01*
X162500000Y-49600000D01*
G75*
G02*
X162750000Y-49350000I250000J0D01*
G01*
X164050000Y-49350000D01*
G75*
G02*
X164300000Y-49600000I0J-250000D01*
G01*
X164300000Y-51600000D01*
G75*
G02*
X164050000Y-51850000I-250000J0D01*
G01*
G37*
G36*
G01*
X164050000Y-47850000D02*
X162750000Y-47850000D01*
G75*
G02*
X162500000Y-47600000I0J250000D01*
G01*
X162500000Y-45600000D01*
G75*
G02*
X162750000Y-45350000I250000J0D01*
G01*
X164050000Y-45350000D01*
G75*
G02*
X164300000Y-45600000I0J-250000D01*
G01*
X164300000Y-47600000D01*
G75*
G02*
X164050000Y-47850000I-250000J0D01*
G01*
G37*
G36*
G01*
X117700000Y-44675000D02*
X117700000Y-43725000D01*
G75*
G02*
X117950000Y-43475000I250000J0D01*
G01*
X118450000Y-43475000D01*
G75*
G02*
X118700000Y-43725000I0J-250000D01*
G01*
X118700000Y-44675000D01*
G75*
G02*
X118450000Y-44925000I-250000J0D01*
G01*
X117950000Y-44925000D01*
G75*
G02*
X117700000Y-44675000I0J250000D01*
G01*
G37*
G36*
G01*
X119600000Y-44675000D02*
X119600000Y-43725000D01*
G75*
G02*
X119850000Y-43475000I250000J0D01*
G01*
X120350000Y-43475000D01*
G75*
G02*
X120600000Y-43725000I0J-250000D01*
G01*
X120600000Y-44675000D01*
G75*
G02*
X120350000Y-44925000I-250000J0D01*
G01*
X119850000Y-44925000D01*
G75*
G02*
X119600000Y-44675000I0J250000D01*
G01*
G37*
G36*
G01*
X103640000Y-38065000D02*
X103640000Y-39015000D01*
G75*
G02*
X103390000Y-39265000I-250000J0D01*
G01*
X102890000Y-39265000D01*
G75*
G02*
X102640000Y-39015000I0J250000D01*
G01*
X102640000Y-38065000D01*
G75*
G02*
X102890000Y-37815000I250000J0D01*
G01*
X103390000Y-37815000D01*
G75*
G02*
X103640000Y-38065000I0J-250000D01*
G01*
G37*
G36*
G01*
X101740000Y-38065000D02*
X101740000Y-39015000D01*
G75*
G02*
X101490000Y-39265000I-250000J0D01*
G01*
X100990000Y-39265000D01*
G75*
G02*
X100740000Y-39015000I0J250000D01*
G01*
X100740000Y-38065000D01*
G75*
G02*
X100990000Y-37815000I250000J0D01*
G01*
X101490000Y-37815000D01*
G75*
G02*
X101740000Y-38065000I0J-250000D01*
G01*
G37*
G36*
G01*
X155125000Y-58750000D02*
X156075000Y-58750000D01*
G75*
G02*
X156325000Y-59000000I0J-250000D01*
G01*
X156325000Y-59500000D01*
G75*
G02*
X156075000Y-59750000I-250000J0D01*
G01*
X155125000Y-59750000D01*
G75*
G02*
X154875000Y-59500000I0J250000D01*
G01*
X154875000Y-59000000D01*
G75*
G02*
X155125000Y-58750000I250000J0D01*
G01*
G37*
G36*
G01*
X155125000Y-60650000D02*
X156075000Y-60650000D01*
G75*
G02*
X156325000Y-60900000I0J-250000D01*
G01*
X156325000Y-61400000D01*
G75*
G02*
X156075000Y-61650000I-250000J0D01*
G01*
X155125000Y-61650000D01*
G75*
G02*
X154875000Y-61400000I0J250000D01*
G01*
X154875000Y-60900000D01*
G75*
G02*
X155125000Y-60650000I250000J0D01*
G01*
G37*
G36*
G01*
X169675000Y-31280000D02*
X169675000Y-30380000D01*
G75*
G02*
X169925000Y-30130000I250000J0D01*
G01*
X170450000Y-30130000D01*
G75*
G02*
X170700000Y-30380000I0J-250000D01*
G01*
X170700000Y-31280000D01*
G75*
G02*
X170450000Y-31530000I-250000J0D01*
G01*
X169925000Y-31530000D01*
G75*
G02*
X169675000Y-31280000I0J250000D01*
G01*
G37*
G36*
G01*
X171500000Y-31280000D02*
X171500000Y-30380000D01*
G75*
G02*
X171750000Y-30130000I250000J0D01*
G01*
X172275000Y-30130000D01*
G75*
G02*
X172525000Y-30380000I0J-250000D01*
G01*
X172525000Y-31280000D01*
G75*
G02*
X172275000Y-31530000I-250000J0D01*
G01*
X171750000Y-31530000D01*
G75*
G02*
X171500000Y-31280000I0J250000D01*
G01*
G37*
G36*
G01*
X42443750Y-30525000D02*
X42956250Y-30525000D01*
G75*
G02*
X43175000Y-30743750I0J-218750D01*
G01*
X43175000Y-31181250D01*
G75*
G02*
X42956250Y-31400000I-218750J0D01*
G01*
X42443750Y-31400000D01*
G75*
G02*
X42225000Y-31181250I0J218750D01*
G01*
X42225000Y-30743750D01*
G75*
G02*
X42443750Y-30525000I218750J0D01*
G01*
G37*
G36*
G01*
X42443750Y-32100000D02*
X42956250Y-32100000D01*
G75*
G02*
X43175000Y-32318750I0J-218750D01*
G01*
X43175000Y-32756250D01*
G75*
G02*
X42956250Y-32975000I-218750J0D01*
G01*
X42443750Y-32975000D01*
G75*
G02*
X42225000Y-32756250I0J218750D01*
G01*
X42225000Y-32318750D01*
G75*
G02*
X42443750Y-32100000I218750J0D01*
G01*
G37*
G36*
G01*
X114650000Y-52025000D02*
X114650000Y-52975000D01*
G75*
G02*
X114400000Y-53225000I-250000J0D01*
G01*
X113900000Y-53225000D01*
G75*
G02*
X113650000Y-52975000I0J250000D01*
G01*
X113650000Y-52025000D01*
G75*
G02*
X113900000Y-51775000I250000J0D01*
G01*
X114400000Y-51775000D01*
G75*
G02*
X114650000Y-52025000I0J-250000D01*
G01*
G37*
G36*
G01*
X112750000Y-52025000D02*
X112750000Y-52975000D01*
G75*
G02*
X112500000Y-53225000I-250000J0D01*
G01*
X112000000Y-53225000D01*
G75*
G02*
X111750000Y-52975000I0J250000D01*
G01*
X111750000Y-52025000D01*
G75*
G02*
X112000000Y-51775000I250000J0D01*
G01*
X112500000Y-51775000D01*
G75*
G02*
X112750000Y-52025000I0J-250000D01*
G01*
G37*
G36*
G01*
X168770000Y-26260000D02*
X168770000Y-29160000D01*
G75*
G02*
X168520000Y-29410000I-250000J0D01*
G01*
X167895000Y-29410000D01*
G75*
G02*
X167645000Y-29160000I0J250000D01*
G01*
X167645000Y-26260000D01*
G75*
G02*
X167895000Y-26010000I250000J0D01*
G01*
X168520000Y-26010000D01*
G75*
G02*
X168770000Y-26260000I0J-250000D01*
G01*
G37*
G36*
G01*
X164495000Y-26260000D02*
X164495000Y-29160000D01*
G75*
G02*
X164245000Y-29410000I-250000J0D01*
G01*
X163620000Y-29410000D01*
G75*
G02*
X163370000Y-29160000I0J250000D01*
G01*
X163370000Y-26260000D01*
G75*
G02*
X163620000Y-26010000I250000J0D01*
G01*
X164245000Y-26010000D01*
G75*
G02*
X164495000Y-26260000I0J-250000D01*
G01*
G37*
G36*
G01*
X153350000Y-54925000D02*
X152450000Y-54925000D01*
G75*
G02*
X152200000Y-54675000I0J250000D01*
G01*
X152200000Y-54150000D01*
G75*
G02*
X152450000Y-53900000I250000J0D01*
G01*
X153350000Y-53900000D01*
G75*
G02*
X153600000Y-54150000I0J-250000D01*
G01*
X153600000Y-54675000D01*
G75*
G02*
X153350000Y-54925000I-250000J0D01*
G01*
G37*
G36*
G01*
X153350000Y-53100000D02*
X152450000Y-53100000D01*
G75*
G02*
X152200000Y-52850000I0J250000D01*
G01*
X152200000Y-52325000D01*
G75*
G02*
X152450000Y-52075000I250000J0D01*
G01*
X153350000Y-52075000D01*
G75*
G02*
X153600000Y-52325000I0J-250000D01*
G01*
X153600000Y-52850000D01*
G75*
G02*
X153350000Y-53100000I-250000J0D01*
G01*
G37*
D11*
X118900000Y-63565600D03*
D37*
X113500000Y-56100000D03*
X122500000Y-56100000D03*
D28*
X173000000Y-116500000D03*
X187000000Y-116500000D03*
X173000000Y-121500000D03*
X187000000Y-121500000D03*
G36*
G01*
X97745000Y-56850000D02*
X97445000Y-56850000D01*
G75*
G02*
X97295000Y-56700000I0J150000D01*
G01*
X97295000Y-55400000D01*
G75*
G02*
X97445000Y-55250000I150000J0D01*
G01*
X97745000Y-55250000D01*
G75*
G02*
X97895000Y-55400000I0J-150000D01*
G01*
X97895000Y-56700000D01*
G75*
G02*
X97745000Y-56850000I-150000J0D01*
G01*
G37*
G36*
G01*
X99015000Y-56850000D02*
X98715000Y-56850000D01*
G75*
G02*
X98565000Y-56700000I0J150000D01*
G01*
X98565000Y-55400000D01*
G75*
G02*
X98715000Y-55250000I150000J0D01*
G01*
X99015000Y-55250000D01*
G75*
G02*
X99165000Y-55400000I0J-150000D01*
G01*
X99165000Y-56700000D01*
G75*
G02*
X99015000Y-56850000I-150000J0D01*
G01*
G37*
G36*
G01*
X100285000Y-56850000D02*
X99985000Y-56850000D01*
G75*
G02*
X99835000Y-56700000I0J150000D01*
G01*
X99835000Y-55400000D01*
G75*
G02*
X99985000Y-55250000I150000J0D01*
G01*
X100285000Y-55250000D01*
G75*
G02*
X100435000Y-55400000I0J-150000D01*
G01*
X100435000Y-56700000D01*
G75*
G02*
X100285000Y-56850000I-150000J0D01*
G01*
G37*
G36*
G01*
X101555000Y-56850000D02*
X101255000Y-56850000D01*
G75*
G02*
X101105000Y-56700000I0J150000D01*
G01*
X101105000Y-55400000D01*
G75*
G02*
X101255000Y-55250000I150000J0D01*
G01*
X101555000Y-55250000D01*
G75*
G02*
X101705000Y-55400000I0J-150000D01*
G01*
X101705000Y-56700000D01*
G75*
G02*
X101555000Y-56850000I-150000J0D01*
G01*
G37*
G36*
G01*
X101555000Y-49650000D02*
X101255000Y-49650000D01*
G75*
G02*
X101105000Y-49500000I0J150000D01*
G01*
X101105000Y-48200000D01*
G75*
G02*
X101255000Y-48050000I150000J0D01*
G01*
X101555000Y-48050000D01*
G75*
G02*
X101705000Y-48200000I0J-150000D01*
G01*
X101705000Y-49500000D01*
G75*
G02*
X101555000Y-49650000I-150000J0D01*
G01*
G37*
G36*
G01*
X100285000Y-49650000D02*
X99985000Y-49650000D01*
G75*
G02*
X99835000Y-49500000I0J150000D01*
G01*
X99835000Y-48200000D01*
G75*
G02*
X99985000Y-48050000I150000J0D01*
G01*
X100285000Y-48050000D01*
G75*
G02*
X100435000Y-48200000I0J-150000D01*
G01*
X100435000Y-49500000D01*
G75*
G02*
X100285000Y-49650000I-150000J0D01*
G01*
G37*
G36*
G01*
X99015000Y-49650000D02*
X98715000Y-49650000D01*
G75*
G02*
X98565000Y-49500000I0J150000D01*
G01*
X98565000Y-48200000D01*
G75*
G02*
X98715000Y-48050000I150000J0D01*
G01*
X99015000Y-48050000D01*
G75*
G02*
X99165000Y-48200000I0J-150000D01*
G01*
X99165000Y-49500000D01*
G75*
G02*
X99015000Y-49650000I-150000J0D01*
G01*
G37*
G36*
G01*
X97745000Y-49650000D02*
X97445000Y-49650000D01*
G75*
G02*
X97295000Y-49500000I0J150000D01*
G01*
X97295000Y-48200000D01*
G75*
G02*
X97445000Y-48050000I150000J0D01*
G01*
X97745000Y-48050000D01*
G75*
G02*
X97895000Y-48200000I0J-150000D01*
G01*
X97895000Y-49500000D01*
G75*
G02*
X97745000Y-49650000I-150000J0D01*
G01*
G37*
D38*
X89000000Y-111500000D03*
X89000000Y-63500000D03*
X56000000Y-111500000D03*
X56000000Y-63500000D03*
D39*
X91000000Y-94800000D03*
X87920000Y-94800000D03*
X91000000Y-94400000D03*
X87920000Y-94400000D03*
X91000000Y-94000000D03*
X87920000Y-94000000D03*
X91000000Y-93600000D03*
X87920000Y-93600000D03*
X91000000Y-93200000D03*
X87920000Y-93200000D03*
X91000000Y-92800000D03*
X87920000Y-92800000D03*
X91000000Y-92400000D03*
X87920000Y-92400000D03*
X91000000Y-92000000D03*
X87920000Y-92000000D03*
X91000000Y-91600000D03*
X87920000Y-91600000D03*
X91000000Y-91200000D03*
X87920000Y-91200000D03*
X91000000Y-90800000D03*
X87920000Y-90800000D03*
X91000000Y-90400000D03*
X87920000Y-90400000D03*
X91000000Y-90000000D03*
X87920000Y-90000000D03*
X91000000Y-89600000D03*
X87920000Y-89600000D03*
X91000000Y-89200000D03*
X87920000Y-89200000D03*
X91000000Y-88800000D03*
X87920000Y-88800000D03*
X91000000Y-88400000D03*
X87920000Y-88400000D03*
X91000000Y-88000000D03*
X87920000Y-88000000D03*
X91000000Y-87600000D03*
X87920000Y-87600000D03*
X91000000Y-87200000D03*
X87920000Y-87200000D03*
X91000000Y-86800000D03*
X87920000Y-86800000D03*
X91000000Y-86400000D03*
X87920000Y-86400000D03*
X91000000Y-86000000D03*
X87920000Y-86000000D03*
X91000000Y-85600000D03*
X87920000Y-85600000D03*
X91000000Y-85200000D03*
X87920000Y-85200000D03*
X91000000Y-84800000D03*
X87920000Y-84800000D03*
X91000000Y-84400000D03*
X87920000Y-84400000D03*
X91000000Y-84000000D03*
X87920000Y-84000000D03*
X91000000Y-83600000D03*
X87920000Y-83600000D03*
X91000000Y-83200000D03*
X87920000Y-83200000D03*
X91000000Y-82800000D03*
X87920000Y-82800000D03*
X91000000Y-82400000D03*
X87920000Y-82400000D03*
X91000000Y-82000000D03*
X87920000Y-82000000D03*
X91000000Y-81600000D03*
X87920000Y-81600000D03*
X91000000Y-81200000D03*
X87920000Y-81200000D03*
X91000000Y-80800000D03*
X87920000Y-80800000D03*
X91000000Y-80400000D03*
X87920000Y-80400000D03*
X91000000Y-80000000D03*
X87920000Y-80000000D03*
X91000000Y-79600000D03*
X87920000Y-79600000D03*
X91000000Y-79200000D03*
X87920000Y-79200000D03*
X91000000Y-78800000D03*
X87920000Y-78800000D03*
X91000000Y-78400000D03*
X87920000Y-78400000D03*
X91000000Y-78000000D03*
X87920000Y-78000000D03*
X91000000Y-77600000D03*
X87920000Y-77600000D03*
X91000000Y-77200000D03*
X87920000Y-77200000D03*
X91000000Y-76800000D03*
X87920000Y-76800000D03*
X91000000Y-76400000D03*
X87920000Y-76400000D03*
X91000000Y-76000000D03*
X87920000Y-76000000D03*
X91000000Y-75600000D03*
X87920000Y-75600000D03*
X91000000Y-75200000D03*
X87920000Y-75200000D03*
X57080000Y-94800000D03*
X54000000Y-94800000D03*
X57080000Y-94400000D03*
X54000000Y-94400000D03*
X57080000Y-94000000D03*
X54000000Y-94000000D03*
X57080000Y-93600000D03*
X54000000Y-93600000D03*
X57080000Y-93200000D03*
X54000000Y-93200000D03*
X57080000Y-92800000D03*
X54000000Y-92800000D03*
X57080000Y-92400000D03*
X54000000Y-92400000D03*
X57080000Y-92000000D03*
X54000000Y-92000000D03*
X57080000Y-91600000D03*
X54000000Y-91600000D03*
X57080000Y-91200000D03*
X54000000Y-91200000D03*
X57080000Y-90800000D03*
X54000000Y-90800000D03*
X57080000Y-90400000D03*
X54000000Y-90400000D03*
X57080000Y-90000000D03*
X54000000Y-90000000D03*
X57080000Y-89600000D03*
X54000000Y-89600000D03*
X57080000Y-89200000D03*
X54000000Y-89200000D03*
X57080000Y-88800000D03*
X54000000Y-88800000D03*
X57080000Y-88400000D03*
X54000000Y-88400000D03*
X57080000Y-88000000D03*
X54000000Y-88000000D03*
X57080000Y-87600000D03*
X54000000Y-87600000D03*
X57080000Y-87200000D03*
X54000000Y-87200000D03*
X57080000Y-86800000D03*
X54000000Y-86800000D03*
X57080000Y-86400000D03*
X54000000Y-86400000D03*
X57080000Y-86000000D03*
X54000000Y-86000000D03*
X57080000Y-85600000D03*
X54000000Y-85600000D03*
X57080000Y-85200000D03*
X54000000Y-85200000D03*
X57080000Y-84800000D03*
X54000000Y-84800000D03*
X57080000Y-84400000D03*
X54000000Y-84400000D03*
X57080000Y-84000000D03*
X54000000Y-84000000D03*
X57080000Y-83600000D03*
X54000000Y-83600000D03*
X57080000Y-83200000D03*
X54000000Y-83200000D03*
X57080000Y-82800000D03*
X54000000Y-82800000D03*
X57080000Y-82400000D03*
X54000000Y-82400000D03*
X57080000Y-82000000D03*
X54000000Y-82000000D03*
X57080000Y-81600000D03*
X54000000Y-81600000D03*
X57080000Y-81200000D03*
X54000000Y-81200000D03*
X57080000Y-80800000D03*
X54000000Y-80800000D03*
X57080000Y-80400000D03*
X54000000Y-80400000D03*
X57080000Y-80000000D03*
X54000000Y-80000000D03*
X57080000Y-79600000D03*
X54000000Y-79600000D03*
X57080000Y-79200000D03*
X54000000Y-79200000D03*
X57080000Y-78800000D03*
X54000000Y-78800000D03*
X57080000Y-78400000D03*
X54000000Y-78400000D03*
X57080000Y-78000000D03*
X54000000Y-78000000D03*
X57080000Y-77600000D03*
X54000000Y-77600000D03*
X57080000Y-77200000D03*
X54000000Y-77200000D03*
X57080000Y-76800000D03*
X54000000Y-76800000D03*
X57080000Y-76400000D03*
X54000000Y-76400000D03*
X57080000Y-76000000D03*
X54000000Y-76000000D03*
X57080000Y-75600000D03*
X54000000Y-75600000D03*
X57080000Y-75200000D03*
X54000000Y-75200000D03*
D12*
X24500000Y-128500000D03*
D28*
X173000000Y-64500000D03*
X187000000Y-64500000D03*
X173000000Y-69500000D03*
X187000000Y-69500000D03*
X23000000Y-116500000D03*
X37000000Y-116500000D03*
X23000000Y-121500000D03*
X37000000Y-121500000D03*
G36*
G01*
X169425000Y-54750000D02*
X170375000Y-54750000D01*
G75*
G02*
X170625000Y-55000000I0J-250000D01*
G01*
X170625000Y-55500000D01*
G75*
G02*
X170375000Y-55750000I-250000J0D01*
G01*
X169425000Y-55750000D01*
G75*
G02*
X169175000Y-55500000I0J250000D01*
G01*
X169175000Y-55000000D01*
G75*
G02*
X169425000Y-54750000I250000J0D01*
G01*
G37*
G36*
G01*
X169425000Y-56650000D02*
X170375000Y-56650000D01*
G75*
G02*
X170625000Y-56900000I0J-250000D01*
G01*
X170625000Y-57400000D01*
G75*
G02*
X170375000Y-57650000I-250000J0D01*
G01*
X169425000Y-57650000D01*
G75*
G02*
X169175000Y-57400000I0J250000D01*
G01*
X169175000Y-56900000D01*
G75*
G02*
X169425000Y-56650000I250000J0D01*
G01*
G37*
G36*
G01*
X48075000Y-66550000D02*
X48075000Y-65650000D01*
G75*
G02*
X48325000Y-65400000I250000J0D01*
G01*
X48850000Y-65400000D01*
G75*
G02*
X49100000Y-65650000I0J-250000D01*
G01*
X49100000Y-66550000D01*
G75*
G02*
X48850000Y-66800000I-250000J0D01*
G01*
X48325000Y-66800000D01*
G75*
G02*
X48075000Y-66550000I0J250000D01*
G01*
G37*
G36*
G01*
X49900000Y-66550000D02*
X49900000Y-65650000D01*
G75*
G02*
X50150000Y-65400000I250000J0D01*
G01*
X50675000Y-65400000D01*
G75*
G02*
X50925000Y-65650000I0J-250000D01*
G01*
X50925000Y-66550000D01*
G75*
G02*
X50675000Y-66800000I-250000J0D01*
G01*
X50150000Y-66800000D01*
G75*
G02*
X49900000Y-66550000I0J250000D01*
G01*
G37*
G36*
G01*
X112575000Y-46250000D02*
X113525000Y-46250000D01*
G75*
G02*
X113775000Y-46500000I0J-250000D01*
G01*
X113775000Y-47000000D01*
G75*
G02*
X113525000Y-47250000I-250000J0D01*
G01*
X112575000Y-47250000D01*
G75*
G02*
X112325000Y-47000000I0J250000D01*
G01*
X112325000Y-46500000D01*
G75*
G02*
X112575000Y-46250000I250000J0D01*
G01*
G37*
G36*
G01*
X112575000Y-48150000D02*
X113525000Y-48150000D01*
G75*
G02*
X113775000Y-48400000I0J-250000D01*
G01*
X113775000Y-48900000D01*
G75*
G02*
X113525000Y-49150000I-250000J0D01*
G01*
X112575000Y-49150000D01*
G75*
G02*
X112325000Y-48900000I0J250000D01*
G01*
X112325000Y-48400000D01*
G75*
G02*
X112575000Y-48150000I250000J0D01*
G01*
G37*
D11*
X168000000Y-23000000D03*
G36*
G01*
X50925000Y-69543750D02*
X50925000Y-70456250D01*
G75*
G02*
X50681250Y-70700000I-243750J0D01*
G01*
X50193750Y-70700000D01*
G75*
G02*
X49950000Y-70456250I0J243750D01*
G01*
X49950000Y-69543750D01*
G75*
G02*
X50193750Y-69300000I243750J0D01*
G01*
X50681250Y-69300000D01*
G75*
G02*
X50925000Y-69543750I0J-243750D01*
G01*
G37*
G36*
G01*
X49050000Y-69543750D02*
X49050000Y-70456250D01*
G75*
G02*
X48806250Y-70700000I-243750J0D01*
G01*
X48318750Y-70700000D01*
G75*
G02*
X48075000Y-70456250I0J243750D01*
G01*
X48075000Y-69543750D01*
G75*
G02*
X48318750Y-69300000I243750J0D01*
G01*
X48806250Y-69300000D01*
G75*
G02*
X49050000Y-69543750I0J-243750D01*
G01*
G37*
G36*
G01*
X103650000Y-40025000D02*
X103650000Y-40975000D01*
G75*
G02*
X103400000Y-41225000I-250000J0D01*
G01*
X102900000Y-41225000D01*
G75*
G02*
X102650000Y-40975000I0J250000D01*
G01*
X102650000Y-40025000D01*
G75*
G02*
X102900000Y-39775000I250000J0D01*
G01*
X103400000Y-39775000D01*
G75*
G02*
X103650000Y-40025000I0J-250000D01*
G01*
G37*
G36*
G01*
X101750000Y-40025000D02*
X101750000Y-40975000D01*
G75*
G02*
X101500000Y-41225000I-250000J0D01*
G01*
X101000000Y-41225000D01*
G75*
G02*
X100750000Y-40975000I0J250000D01*
G01*
X100750000Y-40025000D01*
G75*
G02*
X101000000Y-39775000I250000J0D01*
G01*
X101500000Y-39775000D01*
G75*
G02*
X101750000Y-40025000I0J-250000D01*
G01*
G37*
G36*
G01*
X51475000Y-37806250D02*
X51475000Y-37293750D01*
G75*
G02*
X51693750Y-37075000I218750J0D01*
G01*
X52131250Y-37075000D01*
G75*
G02*
X52350000Y-37293750I0J-218750D01*
G01*
X52350000Y-37806250D01*
G75*
G02*
X52131250Y-38025000I-218750J0D01*
G01*
X51693750Y-38025000D01*
G75*
G02*
X51475000Y-37806250I0J218750D01*
G01*
G37*
G36*
G01*
X53050000Y-37806250D02*
X53050000Y-37293750D01*
G75*
G02*
X53268750Y-37075000I218750J0D01*
G01*
X53706250Y-37075000D01*
G75*
G02*
X53925000Y-37293750I0J-218750D01*
G01*
X53925000Y-37806250D01*
G75*
G02*
X53706250Y-38025000I-218750J0D01*
G01*
X53268750Y-38025000D01*
G75*
G02*
X53050000Y-37806250I0J218750D01*
G01*
G37*
G36*
G01*
X54485000Y-39410000D02*
X54485000Y-40310000D01*
G75*
G02*
X54235000Y-40560000I-250000J0D01*
G01*
X53710000Y-40560000D01*
G75*
G02*
X53460000Y-40310000I0J250000D01*
G01*
X53460000Y-39410000D01*
G75*
G02*
X53710000Y-39160000I250000J0D01*
G01*
X54235000Y-39160000D01*
G75*
G02*
X54485000Y-39410000I0J-250000D01*
G01*
G37*
G36*
G01*
X52660000Y-39410000D02*
X52660000Y-40310000D01*
G75*
G02*
X52410000Y-40560000I-250000J0D01*
G01*
X51885000Y-40560000D01*
G75*
G02*
X51635000Y-40310000I0J250000D01*
G01*
X51635000Y-39410000D01*
G75*
G02*
X51885000Y-39160000I250000J0D01*
G01*
X52410000Y-39160000D01*
G75*
G02*
X52660000Y-39410000I0J-250000D01*
G01*
G37*
D40*
X74150000Y-47600000D03*
X74150000Y-46950000D03*
X74150000Y-46300000D03*
X72250000Y-46300000D03*
X72250000Y-47600000D03*
D32*
X135250000Y-31500000D03*
D33*
X135250000Y-36500000D03*
X135250000Y-34000000D03*
D34*
X142750000Y-28400000D03*
X142750000Y-39600000D03*
D33*
X149750000Y-36500000D03*
X149750000Y-31500000D03*
D28*
X98000000Y-116500000D03*
X112000000Y-116500000D03*
X98000000Y-121500000D03*
X112000000Y-121500000D03*
D41*
X50050000Y-62550600D03*
X49400000Y-62550600D03*
X48750000Y-62550600D03*
X48750000Y-64450600D03*
X50050000Y-64450600D03*
G36*
G01*
X108165000Y-51350000D02*
X109115000Y-51350000D01*
G75*
G02*
X109365000Y-51600000I0J-250000D01*
G01*
X109365000Y-52100000D01*
G75*
G02*
X109115000Y-52350000I-250000J0D01*
G01*
X108165000Y-52350000D01*
G75*
G02*
X107915000Y-52100000I0J250000D01*
G01*
X107915000Y-51600000D01*
G75*
G02*
X108165000Y-51350000I250000J0D01*
G01*
G37*
G36*
G01*
X108165000Y-53250000D02*
X109115000Y-53250000D01*
G75*
G02*
X109365000Y-53500000I0J-250000D01*
G01*
X109365000Y-54000000D01*
G75*
G02*
X109115000Y-54250000I-250000J0D01*
G01*
X108165000Y-54250000D01*
G75*
G02*
X107915000Y-54000000I0J250000D01*
G01*
X107915000Y-53500000D01*
G75*
G02*
X108165000Y-53250000I250000J0D01*
G01*
G37*
G36*
G01*
X118650000Y-52975000D02*
X118650000Y-52025000D01*
G75*
G02*
X118900000Y-51775000I250000J0D01*
G01*
X119400000Y-51775000D01*
G75*
G02*
X119650000Y-52025000I0J-250000D01*
G01*
X119650000Y-52975000D01*
G75*
G02*
X119400000Y-53225000I-250000J0D01*
G01*
X118900000Y-53225000D01*
G75*
G02*
X118650000Y-52975000I0J250000D01*
G01*
G37*
G36*
G01*
X120550000Y-52975000D02*
X120550000Y-52025000D01*
G75*
G02*
X120800000Y-51775000I250000J0D01*
G01*
X121300000Y-51775000D01*
G75*
G02*
X121550000Y-52025000I0J-250000D01*
G01*
X121550000Y-52975000D01*
G75*
G02*
X121300000Y-53225000I-250000J0D01*
G01*
X120800000Y-53225000D01*
G75*
G02*
X120550000Y-52975000I0J250000D01*
G01*
G37*
G36*
X81946312Y-33285921D02*
G01*
X81214079Y-32553688D01*
X81199200Y-32517767D01*
X81199200Y-31482233D01*
X81214079Y-31446312D01*
X81946312Y-30714079D01*
X81982233Y-30699200D01*
X83017767Y-30699200D01*
X83053688Y-30714079D01*
X83785921Y-31446312D01*
X83800800Y-31482233D01*
X83800800Y-32517767D01*
X83785921Y-32553688D01*
X83053688Y-33285921D01*
X83017767Y-33300800D01*
X81982233Y-33300800D01*
X81946312Y-33285921D01*
G37*
G36*
X91285921Y-32553688D02*
G01*
X90553688Y-33285921D01*
X90517767Y-33300800D01*
X89482233Y-33300800D01*
X89446312Y-33285921D01*
X88714079Y-32553688D01*
X88699200Y-32517767D01*
X88699200Y-31482233D01*
X88714079Y-31446312D01*
X89446312Y-30714079D01*
X89482233Y-30699200D01*
X90517767Y-30699200D01*
X90553688Y-30714079D01*
X91285921Y-31446312D01*
X91300800Y-31482233D01*
X91300800Y-32517767D01*
X91285921Y-32553688D01*
G37*
G36*
X96946312Y-33285921D02*
G01*
X96214079Y-32553688D01*
X96199200Y-32517767D01*
X96199200Y-31482233D01*
X96214079Y-31446312D01*
X96946312Y-30714079D01*
X96982233Y-30699200D01*
X98017767Y-30699200D01*
X98053688Y-30714079D01*
X98785921Y-31446312D01*
X98800800Y-31482233D01*
X98800800Y-32517767D01*
X98785921Y-32553688D01*
X98053688Y-33285921D01*
X98017767Y-33300800D01*
X96982233Y-33300800D01*
X96946312Y-33285921D01*
G37*
G36*
X84446312Y-35785921D02*
G01*
X83714079Y-35053688D01*
X83699200Y-35017767D01*
X83699200Y-33982233D01*
X83714079Y-33946312D01*
X84446312Y-33214079D01*
X84482233Y-33199200D01*
X85517767Y-33199200D01*
X85553688Y-33214079D01*
X86285921Y-33946312D01*
X86300800Y-33982233D01*
X86300800Y-35017767D01*
X86285921Y-35053688D01*
X85553688Y-35785921D01*
X85517767Y-35800800D01*
X84482233Y-35800800D01*
X84446312Y-35785921D01*
G37*
G36*
X94446312Y-35785921D02*
G01*
X93714079Y-35053688D01*
X93699200Y-35017767D01*
X93699200Y-33982233D01*
X93714079Y-33946312D01*
X94446312Y-33214079D01*
X94482233Y-33199200D01*
X95517767Y-33199200D01*
X95553688Y-33214079D01*
X96285921Y-33946312D01*
X96300800Y-33982233D01*
X96300800Y-35017767D01*
X96285921Y-35053688D01*
X95553688Y-35785921D01*
X95517767Y-35800800D01*
X94482233Y-35800800D01*
X94446312Y-35785921D01*
G37*
G36*
X91564079Y-23035921D02*
G01*
X91549200Y-23000000D01*
X91549200Y-21900000D01*
X91564079Y-21864079D01*
X92464079Y-20964079D01*
X92500000Y-20949200D01*
X93400000Y-20949200D01*
X93435921Y-20964079D01*
X93450800Y-21000000D01*
X93450800Y-23000000D01*
X93435921Y-23035921D01*
X93400000Y-23050800D01*
X91600000Y-23050800D01*
X91564079Y-23035921D01*
G37*
G36*
G01*
X95950800Y-21000000D02*
X95950800Y-23000000D01*
G75*
G02*
X95900000Y-23050800I-50800J0D01*
G01*
X94100000Y-23050800D01*
G75*
G02*
X94049200Y-23000000I0J50800D01*
G01*
X94049200Y-21000000D01*
G75*
G02*
X94100000Y-20949200I50800J0D01*
G01*
X95900000Y-20949200D01*
G75*
G02*
X95950800Y-21000000I0J-50800D01*
G01*
G37*
G36*
G01*
X85950800Y-21000000D02*
X85950800Y-23000000D01*
G75*
G02*
X85900000Y-23050800I-50800J0D01*
G01*
X84100000Y-23050800D01*
G75*
G02*
X84049200Y-23000000I0J50800D01*
G01*
X84049200Y-21000000D01*
G75*
G02*
X84100000Y-20949200I50800J0D01*
G01*
X85900000Y-20949200D01*
G75*
G02*
X85950800Y-21000000I0J-50800D01*
G01*
G37*
G36*
X86564079Y-23035921D02*
G01*
X86549200Y-23000000D01*
X86549200Y-21000000D01*
X86564079Y-20964079D01*
X86600000Y-20949200D01*
X87500000Y-20949200D01*
X87535921Y-20964079D01*
X88435921Y-21864079D01*
X88450800Y-21900000D01*
X88450800Y-23000000D01*
X88435921Y-23035921D01*
X88400000Y-23050800D01*
X86600000Y-23050800D01*
X86564079Y-23035921D01*
G37*
G36*
G01*
X157818750Y-56193750D02*
X156868750Y-56193750D01*
G75*
G02*
X156618750Y-55943750I0J250000D01*
G01*
X156618750Y-55443750D01*
G75*
G02*
X156868750Y-55193750I250000J0D01*
G01*
X157818750Y-55193750D01*
G75*
G02*
X158068750Y-55443750I0J-250000D01*
G01*
X158068750Y-55943750D01*
G75*
G02*
X157818750Y-56193750I-250000J0D01*
G01*
G37*
G36*
G01*
X157818750Y-54293750D02*
X156868750Y-54293750D01*
G75*
G02*
X156618750Y-54043750I0J250000D01*
G01*
X156618750Y-53543750D01*
G75*
G02*
X156868750Y-53293750I250000J0D01*
G01*
X157818750Y-53293750D01*
G75*
G02*
X158068750Y-53543750I0J-250000D01*
G01*
X158068750Y-54043750D01*
G75*
G02*
X157818750Y-54293750I-250000J0D01*
G01*
G37*
G36*
G01*
X102180000Y-42055000D02*
X102180000Y-43005000D01*
G75*
G02*
X101930000Y-43255000I-250000J0D01*
G01*
X101430000Y-43255000D01*
G75*
G02*
X101180000Y-43005000I0J250000D01*
G01*
X101180000Y-42055000D01*
G75*
G02*
X101430000Y-41805000I250000J0D01*
G01*
X101930000Y-41805000D01*
G75*
G02*
X102180000Y-42055000I0J-250000D01*
G01*
G37*
G36*
G01*
X100280000Y-42055000D02*
X100280000Y-43005000D01*
G75*
G02*
X100030000Y-43255000I-250000J0D01*
G01*
X99530000Y-43255000D01*
G75*
G02*
X99280000Y-43005000I0J250000D01*
G01*
X99280000Y-42055000D01*
G75*
G02*
X99530000Y-41805000I250000J0D01*
G01*
X100030000Y-41805000D01*
G75*
G02*
X100280000Y-42055000I0J-250000D01*
G01*
G37*
G36*
G01*
X51475000Y-35918750D02*
X51475000Y-35406250D01*
G75*
G02*
X51693750Y-35187500I218750J0D01*
G01*
X52131250Y-35187500D01*
G75*
G02*
X52350000Y-35406250I0J-218750D01*
G01*
X52350000Y-35918750D01*
G75*
G02*
X52131250Y-36137500I-218750J0D01*
G01*
X51693750Y-36137500D01*
G75*
G02*
X51475000Y-35918750I0J218750D01*
G01*
G37*
G36*
G01*
X53050000Y-35918750D02*
X53050000Y-35406250D01*
G75*
G02*
X53268750Y-35187500I218750J0D01*
G01*
X53706250Y-35187500D01*
G75*
G02*
X53925000Y-35406250I0J-218750D01*
G01*
X53925000Y-35918750D01*
G75*
G02*
X53706250Y-36137500I-218750J0D01*
G01*
X53268750Y-36137500D01*
G75*
G02*
X53050000Y-35918750I0J218750D01*
G01*
G37*
D13*
X94994500Y-29500000D03*
X92494500Y-29500000D03*
D14*
X89994500Y-24500000D03*
D13*
X84994500Y-29500000D03*
X87494500Y-29500000D03*
G36*
G01*
X155718750Y-56193750D02*
X154768750Y-56193750D01*
G75*
G02*
X154518750Y-55943750I0J250000D01*
G01*
X154518750Y-55443750D01*
G75*
G02*
X154768750Y-55193750I250000J0D01*
G01*
X155718750Y-55193750D01*
G75*
G02*
X155968750Y-55443750I0J-250000D01*
G01*
X155968750Y-55943750D01*
G75*
G02*
X155718750Y-56193750I-250000J0D01*
G01*
G37*
G36*
G01*
X155718750Y-54293750D02*
X154768750Y-54293750D01*
G75*
G02*
X154518750Y-54043750I0J250000D01*
G01*
X154518750Y-53543750D01*
G75*
G02*
X154768750Y-53293750I250000J0D01*
G01*
X155718750Y-53293750D01*
G75*
G02*
X155968750Y-53543750I0J-250000D01*
G01*
X155968750Y-54043750D01*
G75*
G02*
X155718750Y-54293750I-250000J0D01*
G01*
G37*
D42*
X30000000Y-119000000D03*
X105000000Y-67000000D03*
X30000000Y-67000000D03*
X180000000Y-67000000D03*
X105000000Y-119000000D03*
G36*
G01*
X50450000Y-27750000D02*
X50450000Y-29200000D01*
G75*
G02*
X50200000Y-29450000I-250000J0D01*
G01*
X49000000Y-29450000D01*
G75*
G02*
X48750000Y-29200000I0J250000D01*
G01*
X48750000Y-27750000D01*
G75*
G02*
X49000000Y-27500000I250000J0D01*
G01*
X50200000Y-27500000D01*
G75*
G02*
X50450000Y-27750000I0J-250000D01*
G01*
G37*
D43*
X47100000Y-28475000D03*
X44600000Y-28475000D03*
G36*
G01*
X43750000Y-126375000D02*
X43750000Y-127825000D01*
G75*
G02*
X43500000Y-128075000I-250000J0D01*
G01*
X42300000Y-128075000D01*
G75*
G02*
X42050000Y-127825000I0J250000D01*
G01*
X42050000Y-126375000D01*
G75*
G02*
X42300000Y-126125000I250000J0D01*
G01*
X43500000Y-126125000D01*
G75*
G02*
X43750000Y-126375000I0J-250000D01*
G01*
G37*
X40400000Y-127100000D03*
X37900000Y-127100000D03*
D42*
X180000000Y-119000000D03*
D25*
X120250000Y-68375600D03*
D26*
X117710000Y-68375600D03*
X120250000Y-70915600D03*
X117710000Y-70915600D03*
X120250000Y-73455600D03*
X117710000Y-73455600D03*
X120250000Y-75995600D03*
X117710000Y-75995600D03*
X120250000Y-78535600D03*
X117710000Y-78535600D03*
X120250000Y-81075600D03*
X117710000Y-81075600D03*
X120250000Y-83615600D03*
X117710000Y-83615600D03*
X120250000Y-86155600D03*
X117710000Y-86155600D03*
X120250000Y-88695600D03*
X117710000Y-88695600D03*
X120250000Y-91235600D03*
X117710000Y-91235600D03*
X120250000Y-93775600D03*
X117710000Y-93775600D03*
X120250000Y-96315600D03*
X117710000Y-96315600D03*
X120250000Y-98855600D03*
X117710000Y-98855600D03*
X120250000Y-101395600D03*
X117710000Y-101395600D03*
X120250000Y-103935600D03*
X117710000Y-103935600D03*
X120250000Y-106475600D03*
X117710000Y-106475600D03*
X120250000Y-109015600D03*
X117710000Y-109015600D03*
X120250000Y-111555600D03*
X117710000Y-111555600D03*
X120250000Y-114095600D03*
X117710000Y-114095600D03*
X120250000Y-116635600D03*
X117710000Y-116635600D03*
D25*
X156555000Y-74845600D03*
D26*
X154015000Y-74845600D03*
X156555000Y-77385600D03*
X154015000Y-77385600D03*
X156555000Y-79925600D03*
X154015000Y-79925600D03*
D25*
X152380000Y-119150600D03*
D26*
X152380000Y-121690600D03*
X154920000Y-119150600D03*
X154920000Y-121690600D03*
X157460000Y-119150600D03*
X157460000Y-121690600D03*
G36*
G01*
X50450000Y-35500000D02*
X50450000Y-36950000D01*
G75*
G02*
X50200000Y-37200000I-250000J0D01*
G01*
X49000000Y-37200000D01*
G75*
G02*
X48750000Y-36950000I0J250000D01*
G01*
X48750000Y-35500000D01*
G75*
G02*
X49000000Y-35250000I250000J0D01*
G01*
X50200000Y-35250000D01*
G75*
G02*
X50450000Y-35500000I0J-250000D01*
G01*
G37*
D43*
X47100000Y-36225000D03*
X44600000Y-36225000D03*
M02*
