G04 #@! TF.GenerationSoftware,KiCad,Pcbnew,7.0.7-7.0.7~ubuntu23.04.1*
G04 #@! TF.CreationDate,2023-10-12T22:00:08+00:00*
G04 #@! TF.ProjectId,pedalboard-hw,70656461-6c62-46f6-9172-642d68772e6b,3.0.0-RC1*
G04 #@! TF.SameCoordinates,Original*
G04 #@! TF.FileFunction,Soldermask,Top*
G04 #@! TF.FilePolarity,Negative*
%FSLAX46Y46*%
G04 Gerber Fmt 4.6, Leading zero omitted, Abs format (unit mm)*
G04 Created by KiCad (PCBNEW 7.0.7-7.0.7~ubuntu23.04.1) date 2023-10-12 22:00:08*
%MOMM*%
%LPD*%
G01*
G04 APERTURE LIST*
%ADD10C,0.010000*%
%ADD11O,1.200000X2.200000*%
%ADD12O,2.200000X1.200000*%
%ADD13C,3.000000*%
%ADD14R,4.400000X1.800000*%
%ADD15O,4.000000X1.800000*%
%ADD16O,1.800000X4.000000*%
%ADD17C,6.000000*%
%ADD18R,1.350000X1.350000*%
%ADD19O,1.350000X1.350000*%
%ADD20R,1.500000X1.000000*%
%ADD21R,2.250000X2.250000*%
%ADD22C,2.250000*%
%ADD23C,2.700000*%
%ADD24R,1.700000X1.700000*%
%ADD25O,1.700000X1.700000*%
%ADD26C,0.600000*%
%ADD27R,2.000000X1.800000*%
%ADD28R,2.000000X2.000000*%
%ADD29C,2.000000*%
%ADD30C,3.200000*%
%ADD31R,1.300000X0.800000*%
%ADD32C,1.350000*%
%ADD33O,1.700000X1.950000*%
G04 APERTURE END LIST*
D10*
X161300000Y-25898370D02*
X160497320Y-25898370D01*
X160497320Y-23500000D01*
X161300000Y-23500000D01*
X161300000Y-25898370D01*
G36*
X161300000Y-25898370D02*
G01*
X160497320Y-25898370D01*
X160497320Y-23500000D01*
X161300000Y-23500000D01*
X161300000Y-25898370D01*
G37*
X161300000Y-31101440D02*
X160499130Y-31101440D01*
X160499130Y-28700000D01*
X161300000Y-28700000D01*
X161300000Y-31101440D01*
G36*
X161300000Y-31101440D02*
G01*
X160499130Y-31101440D01*
X160499130Y-28700000D01*
X161300000Y-28700000D01*
X161300000Y-31101440D01*
G37*
X162550000Y-25897440D02*
X161748080Y-25897440D01*
X161748080Y-23500000D01*
X162550000Y-23500000D01*
X162550000Y-25897440D01*
G36*
X162550000Y-25897440D02*
G01*
X161748080Y-25897440D01*
X161748080Y-23500000D01*
X162550000Y-23500000D01*
X162550000Y-25897440D01*
G37*
X162550000Y-31102790D02*
X161749230Y-31102790D01*
X161749230Y-28700000D01*
X162550000Y-28700000D01*
X162550000Y-31102790D01*
G36*
X162550000Y-31102790D02*
G01*
X161749230Y-31102790D01*
X161749230Y-28700000D01*
X162550000Y-28700000D01*
X162550000Y-31102790D01*
G37*
X163850000Y-25898000D02*
X163050357Y-25898000D01*
X163050357Y-23500000D01*
X163850000Y-23500000D01*
X163850000Y-25898000D01*
G36*
X163850000Y-25898000D02*
G01*
X163050357Y-25898000D01*
X163050357Y-23500000D01*
X163850000Y-23500000D01*
X163850000Y-25898000D01*
G37*
X163850000Y-31107460D02*
X163050490Y-31107460D01*
X163050490Y-28700000D01*
X163850000Y-28700000D01*
X163850000Y-31107460D01*
G36*
X163850000Y-31107460D02*
G01*
X163050490Y-31107460D01*
X163050490Y-28700000D01*
X163850000Y-28700000D01*
X163850000Y-31107460D01*
G37*
X165100000Y-25898280D02*
X164301840Y-25898280D01*
X164301840Y-23500000D01*
X165100000Y-23500000D01*
X165100000Y-25898280D01*
G36*
X165100000Y-25898280D02*
G01*
X164301840Y-25898280D01*
X164301840Y-23500000D01*
X165100000Y-23500000D01*
X165100000Y-25898280D01*
G37*
G36*
G01*
X139050000Y-44475000D02*
X139050000Y-43525000D01*
G75*
G02*
X139300000Y-43275000I250000J0D01*
G01*
X139800000Y-43275000D01*
G75*
G02*
X140050000Y-43525000I0J-250000D01*
G01*
X140050000Y-44475000D01*
G75*
G02*
X139800000Y-44725000I-250000J0D01*
G01*
X139300000Y-44725000D01*
G75*
G02*
X139050000Y-44475000I0J250000D01*
G01*
G37*
G36*
G01*
X140950000Y-44475000D02*
X140950000Y-43525000D01*
G75*
G02*
X141200000Y-43275000I250000J0D01*
G01*
X141700000Y-43275000D01*
G75*
G02*
X141950000Y-43525000I0J-250000D01*
G01*
X141950000Y-44475000D01*
G75*
G02*
X141700000Y-44725000I-250000J0D01*
G01*
X141200000Y-44725000D01*
G75*
G02*
X140950000Y-44475000I0J250000D01*
G01*
G37*
D11*
X121000000Y-29500000D03*
X118500000Y-29500000D03*
D12*
X116000000Y-24500000D03*
D11*
X111000000Y-29500000D03*
X113500000Y-29500000D03*
D13*
X28050000Y-111200000D03*
X28050000Y-94970000D03*
X21700000Y-111200000D03*
X21700000Y-94970000D03*
X34400000Y-111200000D03*
X34400000Y-94970000D03*
G36*
G01*
X157200000Y-44325000D02*
X157200000Y-43375000D01*
G75*
G02*
X157450000Y-43125000I250000J0D01*
G01*
X157950000Y-43125000D01*
G75*
G02*
X158200000Y-43375000I0J-250000D01*
G01*
X158200000Y-44325000D01*
G75*
G02*
X157950000Y-44575000I-250000J0D01*
G01*
X157450000Y-44575000D01*
G75*
G02*
X157200000Y-44325000I0J250000D01*
G01*
G37*
G36*
G01*
X159100000Y-44325000D02*
X159100000Y-43375000D01*
G75*
G02*
X159350000Y-43125000I250000J0D01*
G01*
X159850000Y-43125000D01*
G75*
G02*
X160100000Y-43375000I0J-250000D01*
G01*
X160100000Y-44325000D01*
G75*
G02*
X159850000Y-44575000I-250000J0D01*
G01*
X159350000Y-44575000D01*
G75*
G02*
X159100000Y-44325000I0J250000D01*
G01*
G37*
D14*
X179400000Y-30400000D03*
D15*
X179400000Y-24600000D03*
D16*
X174600000Y-27400000D03*
D17*
X30000000Y-119000000D03*
D18*
X29000000Y-56000000D03*
D19*
X31000000Y-56000000D03*
X29000000Y-58000000D03*
X31000000Y-58000000D03*
G36*
G01*
X128575000Y-43906250D02*
X128575000Y-43393750D01*
G75*
G02*
X128793750Y-43175000I218750J0D01*
G01*
X129231250Y-43175000D01*
G75*
G02*
X129450000Y-43393750I0J-218750D01*
G01*
X129450000Y-43906250D01*
G75*
G02*
X129231250Y-44125000I-218750J0D01*
G01*
X128793750Y-44125000D01*
G75*
G02*
X128575000Y-43906250I0J218750D01*
G01*
G37*
G36*
G01*
X130150000Y-43906250D02*
X130150000Y-43393750D01*
G75*
G02*
X130368750Y-43175000I218750J0D01*
G01*
X130806250Y-43175000D01*
G75*
G02*
X131025000Y-43393750I0J-218750D01*
G01*
X131025000Y-43906250D01*
G75*
G02*
X130806250Y-44125000I-218750J0D01*
G01*
X130368750Y-44125000D01*
G75*
G02*
X130150000Y-43906250I0J218750D01*
G01*
G37*
G36*
X90850000Y-115850000D02*
G01*
X90350000Y-115850000D01*
X90350000Y-115844911D01*
X90278843Y-115844911D01*
X90142292Y-115804816D01*
X90022570Y-115727875D01*
X89929373Y-115620320D01*
X89870254Y-115490866D01*
X89850000Y-115350000D01*
X89850000Y-114850000D01*
X89870254Y-114709134D01*
X89929373Y-114579680D01*
X90022570Y-114472125D01*
X90142292Y-114395184D01*
X90278843Y-114355089D01*
X90350000Y-114355089D01*
X90350000Y-114350000D01*
X90850000Y-114350000D01*
X90850000Y-115850000D01*
G37*
G36*
X91650000Y-114355089D02*
G01*
X91721157Y-114355089D01*
X91857708Y-114395184D01*
X91977430Y-114472125D01*
X92070627Y-114579680D01*
X92129746Y-114709134D01*
X92150000Y-114850000D01*
X92150000Y-115350000D01*
X92129746Y-115490866D01*
X92070627Y-115620320D01*
X91977430Y-115727875D01*
X91857708Y-115804816D01*
X91721157Y-115844911D01*
X91650000Y-115844911D01*
X91650000Y-115850000D01*
X91150000Y-115850000D01*
X91150000Y-114350000D01*
X91650000Y-114350000D01*
X91650000Y-114355089D01*
G37*
G36*
G01*
X159950000Y-24025000D02*
X159950000Y-24975000D01*
G75*
G02*
X159700000Y-25225000I-250000J0D01*
G01*
X159200000Y-25225000D01*
G75*
G02*
X158950000Y-24975000I0J250000D01*
G01*
X158950000Y-24025000D01*
G75*
G02*
X159200000Y-23775000I250000J0D01*
G01*
X159700000Y-23775000D01*
G75*
G02*
X159950000Y-24025000I0J-250000D01*
G01*
G37*
G36*
G01*
X158050000Y-24025000D02*
X158050000Y-24975000D01*
G75*
G02*
X157800000Y-25225000I-250000J0D01*
G01*
X157300000Y-25225000D01*
G75*
G02*
X157050000Y-24975000I0J250000D01*
G01*
X157050000Y-24025000D01*
G75*
G02*
X157300000Y-23775000I250000J0D01*
G01*
X157800000Y-23775000D01*
G75*
G02*
X158050000Y-24025000I0J-250000D01*
G01*
G37*
D20*
X118050000Y-49600000D03*
X118050000Y-46400000D03*
X113150000Y-46400000D03*
X113150000Y-49600000D03*
D17*
X105000000Y-67000000D03*
X30000000Y-67000000D03*
D13*
X28085000Y-91000000D03*
X28085000Y-74770000D03*
X21735000Y-91000000D03*
X21735000Y-74770000D03*
X34435000Y-91000000D03*
X34435000Y-74770000D03*
D21*
X145530000Y-86155749D03*
D22*
X145530000Y-78535749D03*
X145530000Y-73455749D03*
X125210000Y-65835749D03*
X125210000Y-75995749D03*
X125210000Y-86155749D03*
D13*
X181950000Y-94995000D03*
X181950000Y-111225000D03*
X188300000Y-94995000D03*
X188300000Y-111225000D03*
X175600000Y-94995000D03*
X175600000Y-111225000D03*
D20*
X143050000Y-49600000D03*
X143050000Y-46400000D03*
X138150000Y-46400000D03*
X138150000Y-49600000D03*
D23*
X118980000Y-121520000D03*
D18*
X181000000Y-130000000D03*
D19*
X179000000Y-130000000D03*
X181000000Y-128000000D03*
X179000000Y-128000000D03*
D24*
X49590000Y-106320000D03*
D25*
X49590000Y-103780000D03*
X52130000Y-106320000D03*
X52130000Y-103780000D03*
X54670000Y-106320000D03*
X54670000Y-103780000D03*
X57210000Y-106320000D03*
X57210000Y-103780000D03*
X59750000Y-106320000D03*
X59750000Y-103780000D03*
X62290000Y-106320000D03*
X62290000Y-103780000D03*
X64830000Y-106320000D03*
X64830000Y-103780000D03*
X67370000Y-106320000D03*
X67370000Y-103780000D03*
X69910000Y-106320000D03*
X69910000Y-103780000D03*
X72450000Y-106320000D03*
X72450000Y-103780000D03*
X74990000Y-106320000D03*
X74990000Y-103780000D03*
X77530000Y-106320000D03*
X77530000Y-103780000D03*
X80070000Y-106320000D03*
X80070000Y-103780000D03*
X82610000Y-106320000D03*
X82610000Y-103780000D03*
X85150000Y-106320000D03*
X85150000Y-103780000D03*
X87690000Y-106320000D03*
X87690000Y-103780000D03*
X90230000Y-106320000D03*
X90230000Y-103780000D03*
X92770000Y-106320000D03*
X92770000Y-103780000D03*
X95310000Y-106320000D03*
X95310000Y-103780000D03*
X97850000Y-106320000D03*
X97850000Y-103780000D03*
D26*
X80100000Y-21075000D03*
X80100000Y-22075000D03*
X80100000Y-23075000D03*
X80100000Y-24075000D03*
X80100000Y-25075000D03*
X80100000Y-26075000D03*
X80100000Y-30075000D03*
X80100000Y-31075000D03*
X80100000Y-32075000D03*
X80100000Y-33075000D03*
X80100000Y-34075000D03*
X80100000Y-35075000D03*
X80100000Y-36075000D03*
X81100000Y-36075000D03*
X82100000Y-36075000D03*
X83100000Y-36075000D03*
X84100000Y-36075000D03*
X85100000Y-36075000D03*
X86100000Y-36075000D03*
X87100000Y-36075000D03*
X88100000Y-36075000D03*
X90100000Y-36075000D03*
X91100000Y-36075000D03*
X92100000Y-36075000D03*
X93100000Y-36075000D03*
X94100000Y-36075000D03*
X95100000Y-36075000D03*
X96100000Y-36075000D03*
X97100000Y-36075000D03*
X98100000Y-36075000D03*
X100100000Y-36075000D03*
X101100000Y-36075000D03*
X102100000Y-36075000D03*
X103100000Y-36075000D03*
X104100000Y-36075000D03*
X105100000Y-36075000D03*
X106100000Y-36075000D03*
X107100000Y-36075000D03*
X108100000Y-36075000D03*
X109100000Y-36075000D03*
X110100000Y-36075000D03*
X112100000Y-36075000D03*
X113100000Y-36075000D03*
X114100000Y-36075000D03*
X115100000Y-36075000D03*
X116100000Y-36075000D03*
X117100000Y-36075000D03*
X118100000Y-36075000D03*
X119100000Y-36075000D03*
X120100000Y-36075000D03*
X122100000Y-36075000D03*
X123100000Y-36075000D03*
X124100000Y-36075000D03*
X125100000Y-36075000D03*
X126100000Y-36075000D03*
X127100000Y-36075000D03*
X128100000Y-36075000D03*
X129100000Y-36075000D03*
X130100000Y-21075000D03*
X130100000Y-22075000D03*
X130100000Y-23075000D03*
X130100000Y-24075000D03*
X130100000Y-25075000D03*
X130100000Y-26075000D03*
X130100000Y-27075000D03*
X130100000Y-28075000D03*
X130100000Y-29075000D03*
X130100000Y-30075000D03*
X130100000Y-31075000D03*
X130100000Y-32075000D03*
X130100000Y-33075000D03*
X130100000Y-34075000D03*
X130100000Y-35075000D03*
X130100000Y-36075000D03*
D18*
X31000000Y-130000000D03*
D19*
X29000000Y-130000000D03*
X31000000Y-128000000D03*
X29000000Y-128000000D03*
D27*
X98000000Y-64500000D03*
X112000000Y-64500000D03*
X98000000Y-69500000D03*
X112000000Y-69500000D03*
D18*
X106000000Y-78000000D03*
D19*
X104000000Y-78000000D03*
X106000000Y-76000000D03*
X104000000Y-76000000D03*
G36*
G01*
X76350000Y-47200000D02*
X76350000Y-48100000D01*
G75*
G02*
X76100000Y-48350000I-250000J0D01*
G01*
X75575000Y-48350000D01*
G75*
G02*
X75325000Y-48100000I0J250000D01*
G01*
X75325000Y-47200000D01*
G75*
G02*
X75575000Y-46950000I250000J0D01*
G01*
X76100000Y-46950000D01*
G75*
G02*
X76350000Y-47200000I0J-250000D01*
G01*
G37*
G36*
G01*
X74525000Y-47200000D02*
X74525000Y-48100000D01*
G75*
G02*
X74275000Y-48350000I-250000J0D01*
G01*
X73750000Y-48350000D01*
G75*
G02*
X73500000Y-48100000I0J250000D01*
G01*
X73500000Y-47200000D01*
G75*
G02*
X73750000Y-46950000I250000J0D01*
G01*
X74275000Y-46950000D01*
G75*
G02*
X74525000Y-47200000I0J-250000D01*
G01*
G37*
D23*
X21150000Y-23000000D03*
G36*
G01*
X154225000Y-40575000D02*
X156375000Y-40575000D01*
G75*
G02*
X156625000Y-40825000I0J-250000D01*
G01*
X156625000Y-41575000D01*
G75*
G02*
X156375000Y-41825000I-250000J0D01*
G01*
X154225000Y-41825000D01*
G75*
G02*
X153975000Y-41575000I0J250000D01*
G01*
X153975000Y-40825000D01*
G75*
G02*
X154225000Y-40575000I250000J0D01*
G01*
G37*
G36*
G01*
X154225000Y-43375000D02*
X156375000Y-43375000D01*
G75*
G02*
X156625000Y-43625000I0J-250000D01*
G01*
X156625000Y-44375000D01*
G75*
G02*
X156375000Y-44625000I-250000J0D01*
G01*
X154225000Y-44625000D01*
G75*
G02*
X153975000Y-44375000I0J250000D01*
G01*
X153975000Y-43625000D01*
G75*
G02*
X154225000Y-43375000I250000J0D01*
G01*
G37*
D13*
X181965000Y-33800000D03*
X181965000Y-50030000D03*
X188315000Y-33800000D03*
X188315000Y-50030000D03*
X175615000Y-33800000D03*
X175615000Y-50030000D03*
G36*
G01*
X49550000Y-25625000D02*
X49550000Y-26575000D01*
G75*
G02*
X49300000Y-26825000I-250000J0D01*
G01*
X48800000Y-26825000D01*
G75*
G02*
X48550000Y-26575000I0J250000D01*
G01*
X48550000Y-25625000D01*
G75*
G02*
X48800000Y-25375000I250000J0D01*
G01*
X49300000Y-25375000D01*
G75*
G02*
X49550000Y-25625000I0J-250000D01*
G01*
G37*
G36*
G01*
X47650000Y-25625000D02*
X47650000Y-26575000D01*
G75*
G02*
X47400000Y-26825000I-250000J0D01*
G01*
X46900000Y-26825000D01*
G75*
G02*
X46650000Y-26575000I0J250000D01*
G01*
X46650000Y-25625000D01*
G75*
G02*
X46900000Y-25375000I250000J0D01*
G01*
X47400000Y-25375000D01*
G75*
G02*
X47650000Y-25625000I0J-250000D01*
G01*
G37*
G36*
X107946312Y-33285921D02*
G01*
X107214079Y-32553688D01*
X107199200Y-32517767D01*
X107199200Y-31482233D01*
X107214079Y-31446312D01*
X107946312Y-30714079D01*
X107982233Y-30699200D01*
X109017767Y-30699200D01*
X109053688Y-30714079D01*
X109785921Y-31446312D01*
X109800800Y-31482233D01*
X109800800Y-32517767D01*
X109785921Y-32553688D01*
X109053688Y-33285921D01*
X109017767Y-33300800D01*
X107982233Y-33300800D01*
X107946312Y-33285921D01*
G37*
G36*
X117285921Y-32553688D02*
G01*
X116553688Y-33285921D01*
X116517767Y-33300800D01*
X115482233Y-33300800D01*
X115446312Y-33285921D01*
X114714079Y-32553688D01*
X114699200Y-32517767D01*
X114699200Y-31482233D01*
X114714079Y-31446312D01*
X115446312Y-30714079D01*
X115482233Y-30699200D01*
X116517767Y-30699200D01*
X116553688Y-30714079D01*
X117285921Y-31446312D01*
X117300800Y-31482233D01*
X117300800Y-32517767D01*
X117285921Y-32553688D01*
G37*
G36*
X122946312Y-33285921D02*
G01*
X122214079Y-32553688D01*
X122199200Y-32517767D01*
X122199200Y-31482233D01*
X122214079Y-31446312D01*
X122946312Y-30714079D01*
X122982233Y-30699200D01*
X124017767Y-30699200D01*
X124053688Y-30714079D01*
X124785921Y-31446312D01*
X124800800Y-31482233D01*
X124800800Y-32517767D01*
X124785921Y-32553688D01*
X124053688Y-33285921D01*
X124017767Y-33300800D01*
X122982233Y-33300800D01*
X122946312Y-33285921D01*
G37*
G36*
X110446312Y-35785921D02*
G01*
X109714079Y-35053688D01*
X109699200Y-35017767D01*
X109699200Y-33982233D01*
X109714079Y-33946312D01*
X110446312Y-33214079D01*
X110482233Y-33199200D01*
X111517767Y-33199200D01*
X111553688Y-33214079D01*
X112285921Y-33946312D01*
X112300800Y-33982233D01*
X112300800Y-35017767D01*
X112285921Y-35053688D01*
X111553688Y-35785921D01*
X111517767Y-35800800D01*
X110482233Y-35800800D01*
X110446312Y-35785921D01*
G37*
G36*
X120446312Y-35785921D02*
G01*
X119714079Y-35053688D01*
X119699200Y-35017767D01*
X119699200Y-33982233D01*
X119714079Y-33946312D01*
X120446312Y-33214079D01*
X120482233Y-33199200D01*
X121517767Y-33199200D01*
X121553688Y-33214079D01*
X122285921Y-33946312D01*
X122300800Y-33982233D01*
X122300800Y-35017767D01*
X122285921Y-35053688D01*
X121553688Y-35785921D01*
X121517767Y-35800800D01*
X120482233Y-35800800D01*
X120446312Y-35785921D01*
G37*
G36*
X117564079Y-23035921D02*
G01*
X117549200Y-23000000D01*
X117549200Y-21900000D01*
X117564079Y-21864079D01*
X118464079Y-20964079D01*
X118500000Y-20949200D01*
X119400000Y-20949200D01*
X119435921Y-20964079D01*
X119450800Y-21000000D01*
X119450800Y-23000000D01*
X119435921Y-23035921D01*
X119400000Y-23050800D01*
X117600000Y-23050800D01*
X117564079Y-23035921D01*
G37*
G36*
G01*
X121950800Y-21000000D02*
X121950800Y-23000000D01*
G75*
G02*
X121900000Y-23050800I-50800J0D01*
G01*
X120100000Y-23050800D01*
G75*
G02*
X120049200Y-23000000I0J50800D01*
G01*
X120049200Y-21000000D01*
G75*
G02*
X120100000Y-20949200I50800J0D01*
G01*
X121900000Y-20949200D01*
G75*
G02*
X121950800Y-21000000I0J-50800D01*
G01*
G37*
G36*
G01*
X111950800Y-21000000D02*
X111950800Y-23000000D01*
G75*
G02*
X111900000Y-23050800I-50800J0D01*
G01*
X110100000Y-23050800D01*
G75*
G02*
X110049200Y-23000000I0J50800D01*
G01*
X110049200Y-21000000D01*
G75*
G02*
X110100000Y-20949200I50800J0D01*
G01*
X111900000Y-20949200D01*
G75*
G02*
X111950800Y-21000000I0J-50800D01*
G01*
G37*
G36*
X112564079Y-23035921D02*
G01*
X112549200Y-23000000D01*
X112549200Y-21000000D01*
X112564079Y-20964079D01*
X112600000Y-20949200D01*
X113500000Y-20949200D01*
X113535921Y-20964079D01*
X114435921Y-21864079D01*
X114450800Y-21900000D01*
X114450800Y-23000000D01*
X114435921Y-23035921D01*
X114400000Y-23050800D01*
X112600000Y-23050800D01*
X112564079Y-23035921D01*
G37*
D20*
X93050000Y-49600000D03*
X93050000Y-46400000D03*
X88150000Y-46400000D03*
X88150000Y-49600000D03*
D28*
X60250000Y-31500000D03*
D29*
X60250000Y-36500000D03*
X60250000Y-34000000D03*
D30*
X67750000Y-28400000D03*
X67750000Y-39600000D03*
D29*
X74750000Y-36500000D03*
X74750000Y-31500000D03*
G36*
G01*
X64050000Y-44475000D02*
X64050000Y-43525000D01*
G75*
G02*
X64300000Y-43275000I250000J0D01*
G01*
X64800000Y-43275000D01*
G75*
G02*
X65050000Y-43525000I0J-250000D01*
G01*
X65050000Y-44475000D01*
G75*
G02*
X64800000Y-44725000I-250000J0D01*
G01*
X64300000Y-44725000D01*
G75*
G02*
X64050000Y-44475000I0J250000D01*
G01*
G37*
G36*
G01*
X65950000Y-44475000D02*
X65950000Y-43525000D01*
G75*
G02*
X66200000Y-43275000I250000J0D01*
G01*
X66700000Y-43275000D01*
G75*
G02*
X66950000Y-43525000I0J-250000D01*
G01*
X66950000Y-44475000D01*
G75*
G02*
X66700000Y-44725000I-250000J0D01*
G01*
X66200000Y-44725000D01*
G75*
G02*
X65950000Y-44475000I0J250000D01*
G01*
G37*
G36*
G01*
X161800000Y-44267500D02*
X163800000Y-44267500D01*
G75*
G02*
X164050000Y-44517500I0J-250000D01*
G01*
X164050000Y-48017500D01*
G75*
G02*
X163800000Y-48267500I-250000J0D01*
G01*
X161800000Y-48267500D01*
G75*
G02*
X161550000Y-48017500I0J250000D01*
G01*
X161550000Y-44517500D01*
G75*
G02*
X161800000Y-44267500I250000J0D01*
G01*
G37*
G36*
G01*
X161800000Y-52267500D02*
X163800000Y-52267500D01*
G75*
G02*
X164050000Y-52517500I0J-250000D01*
G01*
X164050000Y-56017500D01*
G75*
G02*
X163800000Y-56267500I-250000J0D01*
G01*
X161800000Y-56267500D01*
G75*
G02*
X161550000Y-56017500I0J250000D01*
G01*
X161550000Y-52517500D01*
G75*
G02*
X161800000Y-52267500I250000J0D01*
G01*
G37*
D18*
X179000000Y-56000000D03*
D19*
X181000000Y-56000000D03*
X179000000Y-58000000D03*
X181000000Y-58000000D03*
D17*
X180000000Y-67000000D03*
G36*
G01*
X39900000Y-31375000D02*
X39900000Y-30475000D01*
G75*
G02*
X40150000Y-30225000I250000J0D01*
G01*
X40675000Y-30225000D01*
G75*
G02*
X40925000Y-30475000I0J-250000D01*
G01*
X40925000Y-31375000D01*
G75*
G02*
X40675000Y-31625000I-250000J0D01*
G01*
X40150000Y-31625000D01*
G75*
G02*
X39900000Y-31375000I0J250000D01*
G01*
G37*
G36*
G01*
X41725000Y-31375000D02*
X41725000Y-30475000D01*
G75*
G02*
X41975000Y-30225000I250000J0D01*
G01*
X42500000Y-30225000D01*
G75*
G02*
X42750000Y-30475000I0J-250000D01*
G01*
X42750000Y-31375000D01*
G75*
G02*
X42500000Y-31625000I-250000J0D01*
G01*
X41975000Y-31625000D01*
G75*
G02*
X41725000Y-31375000I0J250000D01*
G01*
G37*
G36*
G01*
X136625000Y-57475000D02*
X136625000Y-55475000D01*
G75*
G02*
X136875000Y-55225000I250000J0D01*
G01*
X140375000Y-55225000D01*
G75*
G02*
X140625000Y-55475000I0J-250000D01*
G01*
X140625000Y-57475000D01*
G75*
G02*
X140375000Y-57725000I-250000J0D01*
G01*
X136875000Y-57725000D01*
G75*
G02*
X136625000Y-57475000I0J250000D01*
G01*
G37*
G36*
G01*
X144625000Y-57475000D02*
X144625000Y-55475000D01*
G75*
G02*
X144875000Y-55225000I250000J0D01*
G01*
X148375000Y-55225000D01*
G75*
G02*
X148625000Y-55475000I0J-250000D01*
G01*
X148625000Y-57475000D01*
G75*
G02*
X148375000Y-57725000I-250000J0D01*
G01*
X144875000Y-57725000D01*
G75*
G02*
X144625000Y-57475000I0J250000D01*
G01*
G37*
D20*
X68050000Y-49600000D03*
X68050000Y-46400000D03*
X63150000Y-46400000D03*
X63150000Y-49600000D03*
G36*
G01*
X89050000Y-44475000D02*
X89050000Y-43525000D01*
G75*
G02*
X89300000Y-43275000I250000J0D01*
G01*
X89800000Y-43275000D01*
G75*
G02*
X90050000Y-43525000I0J-250000D01*
G01*
X90050000Y-44475000D01*
G75*
G02*
X89800000Y-44725000I-250000J0D01*
G01*
X89300000Y-44725000D01*
G75*
G02*
X89050000Y-44475000I0J250000D01*
G01*
G37*
G36*
G01*
X90950000Y-44475000D02*
X90950000Y-43525000D01*
G75*
G02*
X91200000Y-43275000I250000J0D01*
G01*
X91700000Y-43275000D01*
G75*
G02*
X91950000Y-43525000I0J-250000D01*
G01*
X91950000Y-44475000D01*
G75*
G02*
X91700000Y-44725000I-250000J0D01*
G01*
X91200000Y-44725000D01*
G75*
G02*
X90950000Y-44475000I0J250000D01*
G01*
G37*
G36*
G01*
X164303000Y-31000000D02*
X164303000Y-28800000D01*
G75*
G02*
X164405000Y-28698000I102000J0D01*
G01*
X165005000Y-28698000D01*
G75*
G02*
X165107000Y-28800000I0J-102000D01*
G01*
X165107000Y-31000000D01*
G75*
G02*
X165005000Y-31102000I-102000J0D01*
G01*
X164405000Y-31102000D01*
G75*
G02*
X164303000Y-31000000I0J102000D01*
G01*
G37*
D13*
X181950000Y-74780000D03*
X181950000Y-91010000D03*
X188300000Y-74780000D03*
X188300000Y-91010000D03*
X175600000Y-74780000D03*
X175600000Y-91010000D03*
D17*
X105000000Y-119000000D03*
G36*
X189050000Y-119350000D02*
G01*
X189050000Y-118850000D01*
X189055089Y-118850000D01*
X189055089Y-118778843D01*
X189095184Y-118642292D01*
X189172125Y-118522570D01*
X189279680Y-118429373D01*
X189409134Y-118370254D01*
X189550000Y-118350000D01*
X190050000Y-118350000D01*
X190190866Y-118370254D01*
X190320320Y-118429373D01*
X190427875Y-118522570D01*
X190504816Y-118642292D01*
X190544911Y-118778843D01*
X190544911Y-118850000D01*
X190550000Y-118850000D01*
X190550000Y-119350000D01*
X189050000Y-119350000D01*
G37*
G36*
X190544911Y-120150000D02*
G01*
X190544911Y-120221157D01*
X190504816Y-120357708D01*
X190427875Y-120477430D01*
X190320320Y-120570627D01*
X190190866Y-120629746D01*
X190050000Y-120650000D01*
X189550000Y-120650000D01*
X189409134Y-120629746D01*
X189279680Y-120570627D01*
X189172125Y-120477430D01*
X189095184Y-120357708D01*
X189055089Y-120221157D01*
X189055089Y-120150000D01*
X189050000Y-120150000D01*
X189050000Y-119650000D01*
X190550000Y-119650000D01*
X190550000Y-120150000D01*
X190544911Y-120150000D01*
G37*
D27*
X23000000Y-64500000D03*
X37000000Y-64500000D03*
X23000000Y-69500000D03*
X37000000Y-69500000D03*
G36*
G01*
X128550000Y-42375000D02*
X128550000Y-41425000D01*
G75*
G02*
X128800000Y-41175000I250000J0D01*
G01*
X129300000Y-41175000D01*
G75*
G02*
X129550000Y-41425000I0J-250000D01*
G01*
X129550000Y-42375000D01*
G75*
G02*
X129300000Y-42625000I-250000J0D01*
G01*
X128800000Y-42625000D01*
G75*
G02*
X128550000Y-42375000I0J250000D01*
G01*
G37*
G36*
G01*
X130450000Y-42375000D02*
X130450000Y-41425000D01*
G75*
G02*
X130700000Y-41175000I250000J0D01*
G01*
X131200000Y-41175000D01*
G75*
G02*
X131450000Y-41425000I0J-250000D01*
G01*
X131450000Y-42375000D01*
G75*
G02*
X131200000Y-42625000I-250000J0D01*
G01*
X130700000Y-42625000D01*
G75*
G02*
X130450000Y-42375000I0J250000D01*
G01*
G37*
D31*
X46250000Y-31130000D03*
X46250000Y-32400000D03*
X46250000Y-33670000D03*
X55750000Y-33670000D03*
X55750000Y-32400000D03*
X55750000Y-31130000D03*
G36*
G01*
X57325000Y-40275000D02*
X57325000Y-41175000D01*
G75*
G02*
X57075000Y-41425000I-250000J0D01*
G01*
X56550000Y-41425000D01*
G75*
G02*
X56300000Y-41175000I0J250000D01*
G01*
X56300000Y-40275000D01*
G75*
G02*
X56550000Y-40025000I250000J0D01*
G01*
X57075000Y-40025000D01*
G75*
G02*
X57325000Y-40275000I0J-250000D01*
G01*
G37*
G36*
G01*
X55500000Y-40275000D02*
X55500000Y-41175000D01*
G75*
G02*
X55250000Y-41425000I-250000J0D01*
G01*
X54725000Y-41425000D01*
G75*
G02*
X54475000Y-41175000I0J250000D01*
G01*
X54475000Y-40275000D01*
G75*
G02*
X54725000Y-40025000I250000J0D01*
G01*
X55250000Y-40025000D01*
G75*
G02*
X55500000Y-40275000I0J-250000D01*
G01*
G37*
G36*
G01*
X161800000Y-31467500D02*
X163800000Y-31467500D01*
G75*
G02*
X164050000Y-31717500I0J-250000D01*
G01*
X164050000Y-35217500D01*
G75*
G02*
X163800000Y-35467500I-250000J0D01*
G01*
X161800000Y-35467500D01*
G75*
G02*
X161550000Y-35217500I0J250000D01*
G01*
X161550000Y-31717500D01*
G75*
G02*
X161800000Y-31467500I250000J0D01*
G01*
G37*
G36*
G01*
X161800000Y-39467500D02*
X163800000Y-39467500D01*
G75*
G02*
X164050000Y-39717500I0J-250000D01*
G01*
X164050000Y-43217500D01*
G75*
G02*
X163800000Y-43467500I-250000J0D01*
G01*
X161800000Y-43467500D01*
G75*
G02*
X161550000Y-43217500I0J250000D01*
G01*
X161550000Y-39717500D01*
G75*
G02*
X161800000Y-39467500I250000J0D01*
G01*
G37*
D18*
X104000000Y-108000000D03*
D19*
X106000000Y-108000000D03*
X104000000Y-110000000D03*
X106000000Y-110000000D03*
G36*
G01*
X54475000Y-43350000D02*
X54475000Y-42450000D01*
G75*
G02*
X54725000Y-42200000I250000J0D01*
G01*
X55250000Y-42200000D01*
G75*
G02*
X55500000Y-42450000I0J-250000D01*
G01*
X55500000Y-43350000D01*
G75*
G02*
X55250000Y-43600000I-250000J0D01*
G01*
X54725000Y-43600000D01*
G75*
G02*
X54475000Y-43350000I0J250000D01*
G01*
G37*
G36*
G01*
X56300000Y-43350000D02*
X56300000Y-42450000D01*
G75*
G02*
X56550000Y-42200000I250000J0D01*
G01*
X57075000Y-42200000D01*
G75*
G02*
X57325000Y-42450000I0J-250000D01*
G01*
X57325000Y-43350000D01*
G75*
G02*
X57075000Y-43600000I-250000J0D01*
G01*
X56550000Y-43600000D01*
G75*
G02*
X56300000Y-43350000I0J250000D01*
G01*
G37*
G36*
G01*
X42350000Y-32368750D02*
X42350000Y-32881250D01*
G75*
G02*
X42131250Y-33100000I-218750J0D01*
G01*
X41693750Y-33100000D01*
G75*
G02*
X41475000Y-32881250I0J218750D01*
G01*
X41475000Y-32368750D01*
G75*
G02*
X41693750Y-32150000I218750J0D01*
G01*
X42131250Y-32150000D01*
G75*
G02*
X42350000Y-32368750I0J-218750D01*
G01*
G37*
G36*
G01*
X40775000Y-32368750D02*
X40775000Y-32881250D01*
G75*
G02*
X40556250Y-33100000I-218750J0D01*
G01*
X40118750Y-33100000D01*
G75*
G02*
X39900000Y-32881250I0J218750D01*
G01*
X39900000Y-32368750D01*
G75*
G02*
X40118750Y-32150000I218750J0D01*
G01*
X40556250Y-32150000D01*
G75*
G02*
X40775000Y-32368750I0J-218750D01*
G01*
G37*
G36*
G01*
X157150000Y-48300000D02*
X157150000Y-49600000D01*
G75*
G02*
X156900000Y-49850000I-250000J0D01*
G01*
X156250000Y-49850000D01*
G75*
G02*
X156000000Y-49600000I0J250000D01*
G01*
X156000000Y-48300000D01*
G75*
G02*
X156250000Y-48050000I250000J0D01*
G01*
X156900000Y-48050000D01*
G75*
G02*
X157150000Y-48300000I0J-250000D01*
G01*
G37*
G36*
G01*
X154200000Y-48300000D02*
X154200000Y-49600000D01*
G75*
G02*
X153950000Y-49850000I-250000J0D01*
G01*
X153300000Y-49850000D01*
G75*
G02*
X153050000Y-49600000I0J250000D01*
G01*
X153050000Y-48300000D01*
G75*
G02*
X153300000Y-48050000I250000J0D01*
G01*
X153950000Y-48050000D01*
G75*
G02*
X154200000Y-48300000I0J-250000D01*
G01*
G37*
G36*
G01*
X43900000Y-30450000D02*
X44500000Y-30450000D01*
G75*
G02*
X44750000Y-30700000I0J-250000D01*
G01*
X44750000Y-31300000D01*
G75*
G02*
X44500000Y-31550000I-250000J0D01*
G01*
X43900000Y-31550000D01*
G75*
G02*
X43650000Y-31300000I0J250000D01*
G01*
X43650000Y-30700000D01*
G75*
G02*
X43900000Y-30450000I250000J0D01*
G01*
G37*
G36*
G01*
X43900000Y-33250000D02*
X44500000Y-33250000D01*
G75*
G02*
X44750000Y-33500000I0J-250000D01*
G01*
X44750000Y-34100000D01*
G75*
G02*
X44500000Y-34350000I-250000J0D01*
G01*
X43900000Y-34350000D01*
G75*
G02*
X43650000Y-34100000I0J250000D01*
G01*
X43650000Y-33500000D01*
G75*
G02*
X43900000Y-33250000I250000J0D01*
G01*
G37*
G36*
G01*
X114050000Y-44475000D02*
X114050000Y-43525000D01*
G75*
G02*
X114300000Y-43275000I250000J0D01*
G01*
X114800000Y-43275000D01*
G75*
G02*
X115050000Y-43525000I0J-250000D01*
G01*
X115050000Y-44475000D01*
G75*
G02*
X114800000Y-44725000I-250000J0D01*
G01*
X114300000Y-44725000D01*
G75*
G02*
X114050000Y-44475000I0J250000D01*
G01*
G37*
G36*
G01*
X115950000Y-44475000D02*
X115950000Y-43525000D01*
G75*
G02*
X116200000Y-43275000I250000J0D01*
G01*
X116700000Y-43275000D01*
G75*
G02*
X116950000Y-43525000I0J-250000D01*
G01*
X116950000Y-44475000D01*
G75*
G02*
X116700000Y-44725000I-250000J0D01*
G01*
X116200000Y-44725000D01*
G75*
G02*
X115950000Y-44475000I0J250000D01*
G01*
G37*
G36*
G01*
X39900000Y-34356250D02*
X39900000Y-33843750D01*
G75*
G02*
X40118750Y-33625000I218750J0D01*
G01*
X40556250Y-33625000D01*
G75*
G02*
X40775000Y-33843750I0J-218750D01*
G01*
X40775000Y-34356250D01*
G75*
G02*
X40556250Y-34575000I-218750J0D01*
G01*
X40118750Y-34575000D01*
G75*
G02*
X39900000Y-34356250I0J218750D01*
G01*
G37*
G36*
G01*
X41475000Y-34356250D02*
X41475000Y-33843750D01*
G75*
G02*
X41693750Y-33625000I218750J0D01*
G01*
X42131250Y-33625000D01*
G75*
G02*
X42350000Y-33843750I0J-218750D01*
G01*
X42350000Y-34356250D01*
G75*
G02*
X42131250Y-34575000I-218750J0D01*
G01*
X41693750Y-34575000D01*
G75*
G02*
X41475000Y-34356250I0J218750D01*
G01*
G37*
G36*
G01*
X172400000Y-27300000D02*
X172400000Y-30200000D01*
G75*
G02*
X172150000Y-30450000I-250000J0D01*
G01*
X171525000Y-30450000D01*
G75*
G02*
X171275000Y-30200000I0J250000D01*
G01*
X171275000Y-27300000D01*
G75*
G02*
X171525000Y-27050000I250000J0D01*
G01*
X172150000Y-27050000D01*
G75*
G02*
X172400000Y-27300000I0J-250000D01*
G01*
G37*
G36*
G01*
X168125000Y-27300000D02*
X168125000Y-30200000D01*
G75*
G02*
X167875000Y-30450000I-250000J0D01*
G01*
X167250000Y-30450000D01*
G75*
G02*
X167000000Y-30200000I0J250000D01*
G01*
X167000000Y-27300000D01*
G75*
G02*
X167250000Y-27050000I250000J0D01*
G01*
X167875000Y-27050000D01*
G75*
G02*
X168125000Y-27300000I0J-250000D01*
G01*
G37*
D23*
X118900000Y-63565600D03*
G36*
G01*
X157050000Y-46325000D02*
X157050000Y-47275000D01*
G75*
G02*
X156800000Y-47525000I-250000J0D01*
G01*
X156300000Y-47525000D01*
G75*
G02*
X156050000Y-47275000I0J250000D01*
G01*
X156050000Y-46325000D01*
G75*
G02*
X156300000Y-46075000I250000J0D01*
G01*
X156800000Y-46075000D01*
G75*
G02*
X157050000Y-46325000I0J-250000D01*
G01*
G37*
G36*
G01*
X155150000Y-46325000D02*
X155150000Y-47275000D01*
G75*
G02*
X154900000Y-47525000I-250000J0D01*
G01*
X154400000Y-47525000D01*
G75*
G02*
X154150000Y-47275000I0J250000D01*
G01*
X154150000Y-46325000D01*
G75*
G02*
X154400000Y-46075000I250000J0D01*
G01*
X154900000Y-46075000D01*
G75*
G02*
X155150000Y-46325000I0J-250000D01*
G01*
G37*
D27*
X173000000Y-116500000D03*
X187000000Y-116500000D03*
X173000000Y-121500000D03*
X187000000Y-121500000D03*
D17*
X180000000Y-119000000D03*
D27*
X173000000Y-64500000D03*
X187000000Y-64500000D03*
X173000000Y-69500000D03*
X187000000Y-69500000D03*
X23000000Y-116500000D03*
X37000000Y-116500000D03*
X23000000Y-121500000D03*
X37000000Y-121500000D03*
D23*
X188000000Y-23000000D03*
G36*
G01*
X51475000Y-43156250D02*
X51475000Y-42643750D01*
G75*
G02*
X51693750Y-42425000I218750J0D01*
G01*
X52131250Y-42425000D01*
G75*
G02*
X52350000Y-42643750I0J-218750D01*
G01*
X52350000Y-43156250D01*
G75*
G02*
X52131250Y-43375000I-218750J0D01*
G01*
X51693750Y-43375000D01*
G75*
G02*
X51475000Y-43156250I0J218750D01*
G01*
G37*
G36*
G01*
X53050000Y-43156250D02*
X53050000Y-42643750D01*
G75*
G02*
X53268750Y-42425000I218750J0D01*
G01*
X53706250Y-42425000D01*
G75*
G02*
X53925000Y-42643750I0J-218750D01*
G01*
X53925000Y-43156250D01*
G75*
G02*
X53706250Y-43375000I-218750J0D01*
G01*
X53268750Y-43375000D01*
G75*
G02*
X53050000Y-43156250I0J218750D01*
G01*
G37*
G36*
G01*
X72926000Y-47432600D02*
X72926000Y-47788200D01*
G75*
G02*
X72824000Y-47890200I-102000J0D01*
G01*
X71706400Y-47890200D01*
G75*
G02*
X71604400Y-47788200I0J102000D01*
G01*
X71604400Y-47432600D01*
G75*
G02*
X71706400Y-47330600I102000J0D01*
G01*
X72824000Y-47330600D01*
G75*
G02*
X72926000Y-47432600I0J-102000D01*
G01*
G37*
G36*
G01*
X72926000Y-46772200D02*
X72926000Y-47127800D01*
G75*
G02*
X72824000Y-47229800I-102000J0D01*
G01*
X71706400Y-47229800D01*
G75*
G02*
X71604400Y-47127800I0J102000D01*
G01*
X71604400Y-46772200D01*
G75*
G02*
X71706400Y-46670200I102000J0D01*
G01*
X72824000Y-46670200D01*
G75*
G02*
X72926000Y-46772200I0J-102000D01*
G01*
G37*
G36*
G01*
X72926000Y-46111800D02*
X72926000Y-46467400D01*
G75*
G02*
X72824000Y-46569400I-102000J0D01*
G01*
X71706400Y-46569400D01*
G75*
G02*
X71604400Y-46467400I0J102000D01*
G01*
X71604400Y-46111800D01*
G75*
G02*
X71706400Y-46009800I102000J0D01*
G01*
X72824000Y-46009800D01*
G75*
G02*
X72926000Y-46111800I0J-102000D01*
G01*
G37*
G36*
G01*
X70995600Y-46111800D02*
X70995600Y-46467400D01*
G75*
G02*
X70893600Y-46569400I-102000J0D01*
G01*
X69776000Y-46569400D01*
G75*
G02*
X69674000Y-46467400I0J102000D01*
G01*
X69674000Y-46111800D01*
G75*
G02*
X69776000Y-46009800I102000J0D01*
G01*
X70893600Y-46009800D01*
G75*
G02*
X70995600Y-46111800I0J-102000D01*
G01*
G37*
G36*
G01*
X70995600Y-47432600D02*
X70995600Y-47788200D01*
G75*
G02*
X70893600Y-47890200I-102000J0D01*
G01*
X69776000Y-47890200D01*
G75*
G02*
X69674000Y-47788200I0J102000D01*
G01*
X69674000Y-47432600D01*
G75*
G02*
X69776000Y-47330600I102000J0D01*
G01*
X70893600Y-47330600D01*
G75*
G02*
X70995600Y-47432600I0J-102000D01*
G01*
G37*
D28*
X135250000Y-31500000D03*
D29*
X135250000Y-36500000D03*
X135250000Y-34000000D03*
D30*
X142750000Y-28400000D03*
X142750000Y-39600000D03*
D29*
X149750000Y-36500000D03*
X149750000Y-31500000D03*
D27*
X98000000Y-116500000D03*
X112000000Y-116500000D03*
X98000000Y-121500000D03*
X112000000Y-121500000D03*
G36*
G01*
X149175000Y-46875000D02*
X149175000Y-45575000D01*
G75*
G02*
X149425000Y-45325000I250000J0D01*
G01*
X150075000Y-45325000D01*
G75*
G02*
X150325000Y-45575000I0J-250000D01*
G01*
X150325000Y-46875000D01*
G75*
G02*
X150075000Y-47125000I-250000J0D01*
G01*
X149425000Y-47125000D01*
G75*
G02*
X149175000Y-46875000I0J250000D01*
G01*
G37*
G36*
G01*
X152125000Y-46875000D02*
X152125000Y-45575000D01*
G75*
G02*
X152375000Y-45325000I250000J0D01*
G01*
X153025000Y-45325000D01*
G75*
G02*
X153275000Y-45575000I0J-250000D01*
G01*
X153275000Y-46875000D01*
G75*
G02*
X153025000Y-47125000I-250000J0D01*
G01*
X152375000Y-47125000D01*
G75*
G02*
X152125000Y-46875000I0J250000D01*
G01*
G37*
G36*
X85951812Y-33285921D02*
G01*
X85219579Y-32553688D01*
X85204700Y-32517767D01*
X85204700Y-31482233D01*
X85219579Y-31446312D01*
X85951812Y-30714079D01*
X85987733Y-30699200D01*
X87023267Y-30699200D01*
X87059188Y-30714079D01*
X87791421Y-31446312D01*
X87806300Y-31482233D01*
X87806300Y-32517767D01*
X87791421Y-32553688D01*
X87059188Y-33285921D01*
X87023267Y-33300800D01*
X85987733Y-33300800D01*
X85951812Y-33285921D01*
G37*
G36*
X95291421Y-32553688D02*
G01*
X94559188Y-33285921D01*
X94523267Y-33300800D01*
X93487733Y-33300800D01*
X93451812Y-33285921D01*
X92719579Y-32553688D01*
X92704700Y-32517767D01*
X92704700Y-31482233D01*
X92719579Y-31446312D01*
X93451812Y-30714079D01*
X93487733Y-30699200D01*
X94523267Y-30699200D01*
X94559188Y-30714079D01*
X95291421Y-31446312D01*
X95306300Y-31482233D01*
X95306300Y-32517767D01*
X95291421Y-32553688D01*
G37*
G36*
X100951812Y-33285921D02*
G01*
X100219579Y-32553688D01*
X100204700Y-32517767D01*
X100204700Y-31482233D01*
X100219579Y-31446312D01*
X100951812Y-30714079D01*
X100987733Y-30699200D01*
X102023267Y-30699200D01*
X102059188Y-30714079D01*
X102791421Y-31446312D01*
X102806300Y-31482233D01*
X102806300Y-32517767D01*
X102791421Y-32553688D01*
X102059188Y-33285921D01*
X102023267Y-33300800D01*
X100987733Y-33300800D01*
X100951812Y-33285921D01*
G37*
G36*
X88451812Y-35785921D02*
G01*
X87719579Y-35053688D01*
X87704700Y-35017767D01*
X87704700Y-33982233D01*
X87719579Y-33946312D01*
X88451812Y-33214079D01*
X88487733Y-33199200D01*
X89523267Y-33199200D01*
X89559188Y-33214079D01*
X90291421Y-33946312D01*
X90306300Y-33982233D01*
X90306300Y-35017767D01*
X90291421Y-35053688D01*
X89559188Y-35785921D01*
X89523267Y-35800800D01*
X88487733Y-35800800D01*
X88451812Y-35785921D01*
G37*
G36*
X98451812Y-35785921D02*
G01*
X97719579Y-35053688D01*
X97704700Y-35017767D01*
X97704700Y-33982233D01*
X97719579Y-33946312D01*
X98451812Y-33214079D01*
X98487733Y-33199200D01*
X99523267Y-33199200D01*
X99559188Y-33214079D01*
X100291421Y-33946312D01*
X100306300Y-33982233D01*
X100306300Y-35017767D01*
X100291421Y-35053688D01*
X99559188Y-35785921D01*
X99523267Y-35800800D01*
X98487733Y-35800800D01*
X98451812Y-35785921D01*
G37*
G36*
X95569579Y-23035921D02*
G01*
X95554700Y-23000000D01*
X95554700Y-21900000D01*
X95569579Y-21864079D01*
X96469579Y-20964079D01*
X96505500Y-20949200D01*
X97405500Y-20949200D01*
X97441421Y-20964079D01*
X97456300Y-21000000D01*
X97456300Y-23000000D01*
X97441421Y-23035921D01*
X97405500Y-23050800D01*
X95605500Y-23050800D01*
X95569579Y-23035921D01*
G37*
G36*
G01*
X99956300Y-21000000D02*
X99956300Y-23000000D01*
G75*
G02*
X99905500Y-23050800I-50800J0D01*
G01*
X98105500Y-23050800D01*
G75*
G02*
X98054700Y-23000000I0J50800D01*
G01*
X98054700Y-21000000D01*
G75*
G02*
X98105500Y-20949200I50800J0D01*
G01*
X99905500Y-20949200D01*
G75*
G02*
X99956300Y-21000000I0J-50800D01*
G01*
G37*
G36*
G01*
X89956300Y-21000000D02*
X89956300Y-23000000D01*
G75*
G02*
X89905500Y-23050800I-50800J0D01*
G01*
X88105500Y-23050800D01*
G75*
G02*
X88054700Y-23000000I0J50800D01*
G01*
X88054700Y-21000000D01*
G75*
G02*
X88105500Y-20949200I50800J0D01*
G01*
X89905500Y-20949200D01*
G75*
G02*
X89956300Y-21000000I0J-50800D01*
G01*
G37*
G36*
X90569579Y-23035921D02*
G01*
X90554700Y-23000000D01*
X90554700Y-21000000D01*
X90569579Y-20964079D01*
X90605500Y-20949200D01*
X91505500Y-20949200D01*
X91541421Y-20964079D01*
X92441421Y-21864079D01*
X92456300Y-21900000D01*
X92456300Y-23000000D01*
X92441421Y-23035921D01*
X92405500Y-23050800D01*
X90605500Y-23050800D01*
X90569579Y-23035921D01*
G37*
G36*
G01*
X133000000Y-46050000D02*
X134300000Y-46050000D01*
G75*
G02*
X134550000Y-46300000I0J-250000D01*
G01*
X134550000Y-48300000D01*
G75*
G02*
X134300000Y-48550000I-250000J0D01*
G01*
X133000000Y-48550000D01*
G75*
G02*
X132750000Y-48300000I0J250000D01*
G01*
X132750000Y-46300000D01*
G75*
G02*
X133000000Y-46050000I250000J0D01*
G01*
G37*
G36*
G01*
X133000000Y-50050000D02*
X134300000Y-50050000D01*
G75*
G02*
X134550000Y-50300000I0J-250000D01*
G01*
X134550000Y-52300000D01*
G75*
G02*
X134300000Y-52550000I-250000J0D01*
G01*
X133000000Y-52550000D01*
G75*
G02*
X132750000Y-52300000I0J250000D01*
G01*
X132750000Y-50300000D01*
G75*
G02*
X133000000Y-50050000I250000J0D01*
G01*
G37*
G36*
G01*
X51475000Y-41031250D02*
X51475000Y-40518750D01*
G75*
G02*
X51693750Y-40300000I218750J0D01*
G01*
X52131250Y-40300000D01*
G75*
G02*
X52350000Y-40518750I0J-218750D01*
G01*
X52350000Y-41031250D01*
G75*
G02*
X52131250Y-41250000I-218750J0D01*
G01*
X51693750Y-41250000D01*
G75*
G02*
X51475000Y-41031250I0J218750D01*
G01*
G37*
G36*
G01*
X53050000Y-41031250D02*
X53050000Y-40518750D01*
G75*
G02*
X53268750Y-40300000I218750J0D01*
G01*
X53706250Y-40300000D01*
G75*
G02*
X53925000Y-40518750I0J-218750D01*
G01*
X53925000Y-41031250D01*
G75*
G02*
X53706250Y-41250000I-218750J0D01*
G01*
X53268750Y-41250000D01*
G75*
G02*
X53050000Y-41031250I0J218750D01*
G01*
G37*
D11*
X99000000Y-29500000D03*
X96500000Y-29500000D03*
D12*
X94000000Y-24500000D03*
D11*
X89000000Y-29500000D03*
X91500000Y-29500000D03*
D24*
X113625000Y-97780000D03*
D25*
X113625000Y-95240000D03*
X113625000Y-92700000D03*
X113625000Y-90160000D03*
D24*
X135075000Y-59850000D03*
D25*
X135075000Y-57310000D03*
D32*
X127000000Y-48000000D03*
D19*
X127000000Y-50000000D03*
D25*
X127130000Y-57890000D03*
X124590000Y-57890000D03*
D24*
X122050000Y-57890000D03*
D25*
X119510000Y-57890000D03*
X116970000Y-57890000D03*
X114430000Y-57890000D03*
X111890000Y-57890000D03*
D24*
X109350000Y-57890000D03*
D25*
X106810000Y-57890000D03*
X104270000Y-57890000D03*
X101730000Y-57890000D03*
X99190000Y-57890000D03*
D24*
X96650000Y-57890000D03*
D25*
X94110000Y-57890000D03*
X91570000Y-57890000D03*
X89030000Y-57890000D03*
X86490000Y-57890000D03*
D24*
X83950000Y-57890000D03*
D25*
X81410000Y-57890000D03*
X78870000Y-57890000D03*
X78870000Y-40110000D03*
X81410000Y-40110000D03*
D24*
X83950000Y-40110000D03*
D25*
X86490000Y-40110000D03*
X89030000Y-40110000D03*
X91570000Y-40110000D03*
X94110000Y-40110000D03*
D24*
X96650000Y-40110000D03*
D25*
X99190000Y-40110000D03*
X101730000Y-40110000D03*
X104270000Y-40110000D03*
X106810000Y-40110000D03*
D24*
X109350000Y-40110000D03*
D25*
X111890000Y-40110000D03*
X114430000Y-40110000D03*
X116970000Y-40110000D03*
X119510000Y-40110000D03*
D24*
X122050000Y-40110000D03*
D25*
X124590000Y-40110000D03*
X127130000Y-40110000D03*
G36*
G01*
X50450000Y-27750000D02*
X50450000Y-29200000D01*
G75*
G02*
X50200000Y-29450000I-250000J0D01*
G01*
X49000000Y-29450000D01*
G75*
G02*
X48750000Y-29200000I0J250000D01*
G01*
X48750000Y-27750000D01*
G75*
G02*
X49000000Y-27500000I250000J0D01*
G01*
X50200000Y-27500000D01*
G75*
G02*
X50450000Y-27750000I0J-250000D01*
G01*
G37*
D33*
X47100000Y-28475000D03*
X44600000Y-28475000D03*
D24*
X38900000Y-129225000D03*
D25*
X38900000Y-126685000D03*
X38900000Y-124145000D03*
D24*
X120250000Y-68375600D03*
D25*
X117710000Y-68375600D03*
X120250000Y-70915600D03*
X117710000Y-70915600D03*
X120250000Y-73455600D03*
X117710000Y-73455600D03*
X120250000Y-75995600D03*
X117710000Y-75995600D03*
X120250000Y-78535600D03*
X117710000Y-78535600D03*
X120250000Y-81075600D03*
X117710000Y-81075600D03*
X120250000Y-83615600D03*
X117710000Y-83615600D03*
X120250000Y-86155600D03*
X117710000Y-86155600D03*
X120250000Y-88695600D03*
X117710000Y-88695600D03*
X120250000Y-91235600D03*
X117710000Y-91235600D03*
X120250000Y-93775600D03*
X117710000Y-93775600D03*
X120250000Y-96315600D03*
X117710000Y-96315600D03*
X120250000Y-98855600D03*
X117710000Y-98855600D03*
X120250000Y-101395600D03*
X117710000Y-101395600D03*
X120250000Y-103935600D03*
X117710000Y-103935600D03*
X120250000Y-106475600D03*
X117710000Y-106475600D03*
X120250000Y-109015600D03*
X117710000Y-109015600D03*
X120250000Y-111555600D03*
X117710000Y-111555600D03*
X120250000Y-114095600D03*
X117710000Y-114095600D03*
X120250000Y-116635600D03*
X117710000Y-116635600D03*
D24*
X156555000Y-74845600D03*
D25*
X154015000Y-74845600D03*
X156555000Y-77385600D03*
X154015000Y-77385600D03*
X156555000Y-79925600D03*
X154015000Y-79925600D03*
D24*
X152380000Y-119150600D03*
D25*
X152380000Y-121690600D03*
X154920000Y-119150600D03*
X154920000Y-121690600D03*
X157460000Y-119150600D03*
X157460000Y-121690600D03*
G36*
G01*
X50450000Y-35500000D02*
X50450000Y-36950000D01*
G75*
G02*
X50200000Y-37200000I-250000J0D01*
G01*
X49000000Y-37200000D01*
G75*
G02*
X48750000Y-36950000I0J250000D01*
G01*
X48750000Y-35500000D01*
G75*
G02*
X49000000Y-35250000I250000J0D01*
G01*
X50200000Y-35250000D01*
G75*
G02*
X50450000Y-35500000I0J-250000D01*
G01*
G37*
D33*
X47100000Y-36225000D03*
X44600000Y-36225000D03*
M02*
