G04 #@! TF.GenerationSoftware,KiCad,Pcbnew,7.0.7-7.0.7~ubuntu23.04.1*
G04 #@! TF.CreationDate,2023-10-13T20:03:04+00:00*
G04 #@! TF.ProjectId,pedalboard-hw,70656461-6c62-46f6-9172-642d68772e6b,3.0.0-RC1*
G04 #@! TF.SameCoordinates,Original*
G04 #@! TF.FileFunction,Soldermask,Bot*
G04 #@! TF.FilePolarity,Negative*
%FSLAX46Y46*%
G04 Gerber Fmt 4.6, Leading zero omitted, Abs format (unit mm)*
G04 Created by KiCad (PCBNEW 7.0.7-7.0.7~ubuntu23.04.1) date 2023-10-13 20:03:04*
%MOMM*%
%LPD*%
G01*
G04 APERTURE LIST*
%ADD10O,1.200000X2.200000*%
%ADD11O,2.200000X1.200000*%
%ADD12C,3.000000*%
%ADD13R,4.400000X1.800000*%
%ADD14O,4.000000X1.800000*%
%ADD15O,1.800000X4.000000*%
%ADD16C,6.000000*%
%ADD17R,1.350000X1.350000*%
%ADD18O,1.350000X1.350000*%
%ADD19R,2.250000X2.250000*%
%ADD20C,2.250000*%
%ADD21C,2.700000*%
%ADD22R,1.700000X1.700000*%
%ADD23O,1.700000X1.700000*%
%ADD24C,0.600000*%
%ADD25R,2.000000X2.000000*%
%ADD26C,2.000000*%
%ADD27C,3.200000*%
%ADD28C,1.350000*%
%ADD29O,1.700000X1.950000*%
G04 APERTURE END LIST*
D10*
X125000000Y-29500000D03*
X122500000Y-29500000D03*
D11*
X120000000Y-24500000D03*
D10*
X115000000Y-29500000D03*
X117500000Y-29500000D03*
D12*
X28050000Y-50000000D03*
X28050000Y-33770000D03*
X21700000Y-50000000D03*
X21700000Y-33770000D03*
X34400000Y-50000000D03*
X34400000Y-33770000D03*
X28050000Y-111200000D03*
X28050000Y-94970000D03*
X21700000Y-111200000D03*
X21700000Y-94970000D03*
X34400000Y-111200000D03*
X34400000Y-94970000D03*
D13*
X179400000Y-30400000D03*
D14*
X179400000Y-24600000D03*
D15*
X174600000Y-27400000D03*
D16*
X30000000Y-119000000D03*
D17*
X29000000Y-56000000D03*
D18*
X31000000Y-56000000D03*
X29000000Y-58000000D03*
X31000000Y-58000000D03*
D16*
X105000000Y-67000000D03*
X30000000Y-67000000D03*
D12*
X28050000Y-91000000D03*
X28050000Y-74770000D03*
X21700000Y-91000000D03*
X21700000Y-74770000D03*
X34400000Y-91000000D03*
X34400000Y-74770000D03*
D19*
X145530000Y-86155749D03*
D20*
X145530000Y-78535749D03*
X145530000Y-73455749D03*
X125210000Y-65835749D03*
X125210000Y-75995749D03*
X125210000Y-86155749D03*
D12*
X181950000Y-94995000D03*
X181950000Y-111225000D03*
X188300000Y-94995000D03*
X188300000Y-111225000D03*
X175600000Y-94995000D03*
X175600000Y-111225000D03*
D21*
X118980000Y-121520000D03*
D17*
X181000000Y-130000000D03*
D18*
X179000000Y-130000000D03*
X181000000Y-128000000D03*
X179000000Y-128000000D03*
D22*
X49590000Y-106320000D03*
D23*
X49590000Y-103780000D03*
X52130000Y-106320000D03*
X52130000Y-103780000D03*
X54670000Y-106320000D03*
X54670000Y-103780000D03*
X57210000Y-106320000D03*
X57210000Y-103780000D03*
X59750000Y-106320000D03*
X59750000Y-103780000D03*
X62290000Y-106320000D03*
X62290000Y-103780000D03*
X64830000Y-106320000D03*
X64830000Y-103780000D03*
X67370000Y-106320000D03*
X67370000Y-103780000D03*
X69910000Y-106320000D03*
X69910000Y-103780000D03*
X72450000Y-106320000D03*
X72450000Y-103780000D03*
X74990000Y-106320000D03*
X74990000Y-103780000D03*
X77530000Y-106320000D03*
X77530000Y-103780000D03*
X80070000Y-106320000D03*
X80070000Y-103780000D03*
X82610000Y-106320000D03*
X82610000Y-103780000D03*
X85150000Y-106320000D03*
X85150000Y-103780000D03*
X87690000Y-106320000D03*
X87690000Y-103780000D03*
X90230000Y-106320000D03*
X90230000Y-103780000D03*
X92770000Y-106320000D03*
X92770000Y-103780000D03*
X95310000Y-106320000D03*
X95310000Y-103780000D03*
X97850000Y-106320000D03*
X97850000Y-103780000D03*
D24*
X80100000Y-21075000D03*
X80100000Y-22075000D03*
X80100000Y-23075000D03*
X80100000Y-24075000D03*
X80100000Y-25075000D03*
X80100000Y-26075000D03*
X80100000Y-30075000D03*
X80100000Y-31075000D03*
X80100000Y-32075000D03*
X80100000Y-33075000D03*
X80100000Y-34075000D03*
X80100000Y-35075000D03*
X80100000Y-36075000D03*
X81100000Y-36075000D03*
X82100000Y-36075000D03*
X83100000Y-36075000D03*
X84100000Y-36075000D03*
X85100000Y-36075000D03*
X86100000Y-36075000D03*
X87100000Y-36075000D03*
X88100000Y-36075000D03*
X90100000Y-36075000D03*
X91100000Y-36075000D03*
X92100000Y-36075000D03*
X93100000Y-36075000D03*
X94100000Y-36075000D03*
X95100000Y-36075000D03*
X96100000Y-36075000D03*
X97100000Y-36075000D03*
X98100000Y-36075000D03*
X100100000Y-36075000D03*
X101100000Y-36075000D03*
X102100000Y-36075000D03*
X103100000Y-36075000D03*
X104100000Y-36075000D03*
X105100000Y-36075000D03*
X106100000Y-36075000D03*
X107100000Y-36075000D03*
X108100000Y-36075000D03*
X109100000Y-36075000D03*
X110100000Y-36075000D03*
X112100000Y-36075000D03*
X113100000Y-36075000D03*
X114100000Y-36075000D03*
X115100000Y-36075000D03*
X116100000Y-36075000D03*
X117100000Y-36075000D03*
X118100000Y-36075000D03*
X119100000Y-36075000D03*
X120100000Y-36075000D03*
X122100000Y-36075000D03*
X123100000Y-36075000D03*
X124100000Y-36075000D03*
X125100000Y-36075000D03*
X126100000Y-36075000D03*
X127100000Y-36075000D03*
X128100000Y-36075000D03*
X129100000Y-36075000D03*
X130100000Y-21075000D03*
X130100000Y-22075000D03*
X130100000Y-23075000D03*
X130100000Y-24075000D03*
X130100000Y-25075000D03*
X130100000Y-26075000D03*
X130100000Y-27075000D03*
X130100000Y-28075000D03*
X130100000Y-29075000D03*
X130100000Y-30075000D03*
X130100000Y-31075000D03*
X130100000Y-32075000D03*
X130100000Y-33075000D03*
X130100000Y-34075000D03*
X130100000Y-35075000D03*
X130100000Y-36075000D03*
D17*
X31000000Y-130000000D03*
D18*
X29000000Y-130000000D03*
X31000000Y-128000000D03*
X29000000Y-128000000D03*
D17*
X106000000Y-78000000D03*
D18*
X104000000Y-78000000D03*
X106000000Y-76000000D03*
X104000000Y-76000000D03*
D21*
X42000000Y-23000000D03*
D12*
X181965000Y-33800000D03*
X181965000Y-50030000D03*
X188315000Y-33800000D03*
X188315000Y-50030000D03*
X175615000Y-33800000D03*
X175615000Y-50030000D03*
G36*
X111946312Y-33285921D02*
G01*
X111214079Y-32553688D01*
X111199200Y-32517767D01*
X111199200Y-31482233D01*
X111214079Y-31446312D01*
X111946312Y-30714079D01*
X111982233Y-30699200D01*
X113017767Y-30699200D01*
X113053688Y-30714079D01*
X113785921Y-31446312D01*
X113800800Y-31482233D01*
X113800800Y-32517767D01*
X113785921Y-32553688D01*
X113053688Y-33285921D01*
X113017767Y-33300800D01*
X111982233Y-33300800D01*
X111946312Y-33285921D01*
G37*
G36*
X121285921Y-32553688D02*
G01*
X120553688Y-33285921D01*
X120517767Y-33300800D01*
X119482233Y-33300800D01*
X119446312Y-33285921D01*
X118714079Y-32553688D01*
X118699200Y-32517767D01*
X118699200Y-31482233D01*
X118714079Y-31446312D01*
X119446312Y-30714079D01*
X119482233Y-30699200D01*
X120517767Y-30699200D01*
X120553688Y-30714079D01*
X121285921Y-31446312D01*
X121300800Y-31482233D01*
X121300800Y-32517767D01*
X121285921Y-32553688D01*
G37*
G36*
X126946312Y-33285921D02*
G01*
X126214079Y-32553688D01*
X126199200Y-32517767D01*
X126199200Y-31482233D01*
X126214079Y-31446312D01*
X126946312Y-30714079D01*
X126982233Y-30699200D01*
X128017767Y-30699200D01*
X128053688Y-30714079D01*
X128785921Y-31446312D01*
X128800800Y-31482233D01*
X128800800Y-32517767D01*
X128785921Y-32553688D01*
X128053688Y-33285921D01*
X128017767Y-33300800D01*
X126982233Y-33300800D01*
X126946312Y-33285921D01*
G37*
G36*
X114446312Y-35785921D02*
G01*
X113714079Y-35053688D01*
X113699200Y-35017767D01*
X113699200Y-33982233D01*
X113714079Y-33946312D01*
X114446312Y-33214079D01*
X114482233Y-33199200D01*
X115517767Y-33199200D01*
X115553688Y-33214079D01*
X116285921Y-33946312D01*
X116300800Y-33982233D01*
X116300800Y-35017767D01*
X116285921Y-35053688D01*
X115553688Y-35785921D01*
X115517767Y-35800800D01*
X114482233Y-35800800D01*
X114446312Y-35785921D01*
G37*
G36*
X124446312Y-35785921D02*
G01*
X123714079Y-35053688D01*
X123699200Y-35017767D01*
X123699200Y-33982233D01*
X123714079Y-33946312D01*
X124446312Y-33214079D01*
X124482233Y-33199200D01*
X125517767Y-33199200D01*
X125553688Y-33214079D01*
X126285921Y-33946312D01*
X126300800Y-33982233D01*
X126300800Y-35017767D01*
X126285921Y-35053688D01*
X125553688Y-35785921D01*
X125517767Y-35800800D01*
X124482233Y-35800800D01*
X124446312Y-35785921D01*
G37*
G36*
X121564079Y-23035921D02*
G01*
X121549200Y-23000000D01*
X121549200Y-21900000D01*
X121564079Y-21864079D01*
X122464079Y-20964079D01*
X122500000Y-20949200D01*
X123400000Y-20949200D01*
X123435921Y-20964079D01*
X123450800Y-21000000D01*
X123450800Y-23000000D01*
X123435921Y-23035921D01*
X123400000Y-23050800D01*
X121600000Y-23050800D01*
X121564079Y-23035921D01*
G37*
G36*
G01*
X125950800Y-21000000D02*
X125950800Y-23000000D01*
G75*
G02*
X125900000Y-23050800I-50800J0D01*
G01*
X124100000Y-23050800D01*
G75*
G02*
X124049200Y-23000000I0J50800D01*
G01*
X124049200Y-21000000D01*
G75*
G02*
X124100000Y-20949200I50800J0D01*
G01*
X125900000Y-20949200D01*
G75*
G02*
X125950800Y-21000000I0J-50800D01*
G01*
G37*
G36*
G01*
X115950800Y-21000000D02*
X115950800Y-23000000D01*
G75*
G02*
X115900000Y-23050800I-50800J0D01*
G01*
X114100000Y-23050800D01*
G75*
G02*
X114049200Y-23000000I0J50800D01*
G01*
X114049200Y-21000000D01*
G75*
G02*
X114100000Y-20949200I50800J0D01*
G01*
X115900000Y-20949200D01*
G75*
G02*
X115950800Y-21000000I0J-50800D01*
G01*
G37*
G36*
X116564079Y-23035921D02*
G01*
X116549200Y-23000000D01*
X116549200Y-21000000D01*
X116564079Y-20964079D01*
X116600000Y-20949200D01*
X117500000Y-20949200D01*
X117535921Y-20964079D01*
X118435921Y-21864079D01*
X118450800Y-21900000D01*
X118450800Y-23000000D01*
X118435921Y-23035921D01*
X118400000Y-23050800D01*
X116600000Y-23050800D01*
X116564079Y-23035921D01*
G37*
D25*
X60250000Y-31500000D03*
D26*
X60250000Y-36500000D03*
X60250000Y-34000000D03*
D27*
X67750000Y-28400000D03*
X67750000Y-39600000D03*
D26*
X74750000Y-36500000D03*
X74750000Y-31500000D03*
D17*
X179000000Y-56000000D03*
D18*
X181000000Y-56000000D03*
X179000000Y-58000000D03*
X181000000Y-58000000D03*
D16*
X180000000Y-67000000D03*
D12*
X181950000Y-74780000D03*
X181950000Y-91010000D03*
X188300000Y-74780000D03*
X188300000Y-91010000D03*
X175600000Y-74780000D03*
X175600000Y-91010000D03*
D16*
X105000000Y-119000000D03*
D17*
X104000000Y-108000000D03*
D18*
X106000000Y-108000000D03*
X104000000Y-110000000D03*
X106000000Y-110000000D03*
D21*
X118900000Y-63565600D03*
D16*
X180000000Y-119000000D03*
D21*
X168000000Y-23000000D03*
D25*
X135250000Y-31500000D03*
D26*
X135250000Y-36500000D03*
X135250000Y-34000000D03*
D27*
X142750000Y-28400000D03*
X142750000Y-39600000D03*
D26*
X149750000Y-36500000D03*
X149750000Y-31500000D03*
G36*
X81946312Y-33285921D02*
G01*
X81214079Y-32553688D01*
X81199200Y-32517767D01*
X81199200Y-31482233D01*
X81214079Y-31446312D01*
X81946312Y-30714079D01*
X81982233Y-30699200D01*
X83017767Y-30699200D01*
X83053688Y-30714079D01*
X83785921Y-31446312D01*
X83800800Y-31482233D01*
X83800800Y-32517767D01*
X83785921Y-32553688D01*
X83053688Y-33285921D01*
X83017767Y-33300800D01*
X81982233Y-33300800D01*
X81946312Y-33285921D01*
G37*
G36*
X91285921Y-32553688D02*
G01*
X90553688Y-33285921D01*
X90517767Y-33300800D01*
X89482233Y-33300800D01*
X89446312Y-33285921D01*
X88714079Y-32553688D01*
X88699200Y-32517767D01*
X88699200Y-31482233D01*
X88714079Y-31446312D01*
X89446312Y-30714079D01*
X89482233Y-30699200D01*
X90517767Y-30699200D01*
X90553688Y-30714079D01*
X91285921Y-31446312D01*
X91300800Y-31482233D01*
X91300800Y-32517767D01*
X91285921Y-32553688D01*
G37*
G36*
X96946312Y-33285921D02*
G01*
X96214079Y-32553688D01*
X96199200Y-32517767D01*
X96199200Y-31482233D01*
X96214079Y-31446312D01*
X96946312Y-30714079D01*
X96982233Y-30699200D01*
X98017767Y-30699200D01*
X98053688Y-30714079D01*
X98785921Y-31446312D01*
X98800800Y-31482233D01*
X98800800Y-32517767D01*
X98785921Y-32553688D01*
X98053688Y-33285921D01*
X98017767Y-33300800D01*
X96982233Y-33300800D01*
X96946312Y-33285921D01*
G37*
G36*
X84446312Y-35785921D02*
G01*
X83714079Y-35053688D01*
X83699200Y-35017767D01*
X83699200Y-33982233D01*
X83714079Y-33946312D01*
X84446312Y-33214079D01*
X84482233Y-33199200D01*
X85517767Y-33199200D01*
X85553688Y-33214079D01*
X86285921Y-33946312D01*
X86300800Y-33982233D01*
X86300800Y-35017767D01*
X86285921Y-35053688D01*
X85553688Y-35785921D01*
X85517767Y-35800800D01*
X84482233Y-35800800D01*
X84446312Y-35785921D01*
G37*
G36*
X94446312Y-35785921D02*
G01*
X93714079Y-35053688D01*
X93699200Y-35017767D01*
X93699200Y-33982233D01*
X93714079Y-33946312D01*
X94446312Y-33214079D01*
X94482233Y-33199200D01*
X95517767Y-33199200D01*
X95553688Y-33214079D01*
X96285921Y-33946312D01*
X96300800Y-33982233D01*
X96300800Y-35017767D01*
X96285921Y-35053688D01*
X95553688Y-35785921D01*
X95517767Y-35800800D01*
X94482233Y-35800800D01*
X94446312Y-35785921D01*
G37*
G36*
X91564079Y-23035921D02*
G01*
X91549200Y-23000000D01*
X91549200Y-21900000D01*
X91564079Y-21864079D01*
X92464079Y-20964079D01*
X92500000Y-20949200D01*
X93400000Y-20949200D01*
X93435921Y-20964079D01*
X93450800Y-21000000D01*
X93450800Y-23000000D01*
X93435921Y-23035921D01*
X93400000Y-23050800D01*
X91600000Y-23050800D01*
X91564079Y-23035921D01*
G37*
G36*
G01*
X95950800Y-21000000D02*
X95950800Y-23000000D01*
G75*
G02*
X95900000Y-23050800I-50800J0D01*
G01*
X94100000Y-23050800D01*
G75*
G02*
X94049200Y-23000000I0J50800D01*
G01*
X94049200Y-21000000D01*
G75*
G02*
X94100000Y-20949200I50800J0D01*
G01*
X95900000Y-20949200D01*
G75*
G02*
X95950800Y-21000000I0J-50800D01*
G01*
G37*
G36*
G01*
X85950800Y-21000000D02*
X85950800Y-23000000D01*
G75*
G02*
X85900000Y-23050800I-50800J0D01*
G01*
X84100000Y-23050800D01*
G75*
G02*
X84049200Y-23000000I0J50800D01*
G01*
X84049200Y-21000000D01*
G75*
G02*
X84100000Y-20949200I50800J0D01*
G01*
X85900000Y-20949200D01*
G75*
G02*
X85950800Y-21000000I0J-50800D01*
G01*
G37*
G36*
X86564079Y-23035921D02*
G01*
X86549200Y-23000000D01*
X86549200Y-21000000D01*
X86564079Y-20964079D01*
X86600000Y-20949200D01*
X87500000Y-20949200D01*
X87535921Y-20964079D01*
X88435921Y-21864079D01*
X88450800Y-21900000D01*
X88450800Y-23000000D01*
X88435921Y-23035921D01*
X88400000Y-23050800D01*
X86600000Y-23050800D01*
X86564079Y-23035921D01*
G37*
D10*
X94994500Y-29500000D03*
X92494500Y-29500000D03*
D11*
X89994500Y-24500000D03*
D10*
X84994500Y-29500000D03*
X87494500Y-29500000D03*
D22*
X113625000Y-97780000D03*
D23*
X113625000Y-95240000D03*
X113625000Y-92700000D03*
X113625000Y-90160000D03*
D22*
X135075000Y-59850000D03*
D23*
X135075000Y-57310000D03*
D28*
X127000000Y-48000000D03*
D18*
X127000000Y-50000000D03*
G36*
X87750000Y-75050000D02*
G01*
X87750000Y-75550000D01*
X87744911Y-75550000D01*
X87744911Y-75621157D01*
X87704816Y-75757708D01*
X87627875Y-75877430D01*
X87520320Y-75970627D01*
X87390866Y-76029746D01*
X87250000Y-76050000D01*
X86750000Y-76050000D01*
X86609134Y-76029746D01*
X86479680Y-75970627D01*
X86372125Y-75877430D01*
X86295184Y-75757708D01*
X86255089Y-75621157D01*
X86255089Y-75550000D01*
X86250000Y-75550000D01*
X86250000Y-75050000D01*
X87750000Y-75050000D01*
G37*
G36*
X86255089Y-74250000D02*
G01*
X86255089Y-74178843D01*
X86295184Y-74042292D01*
X86372125Y-73922570D01*
X86479680Y-73829373D01*
X86609134Y-73770254D01*
X86750000Y-73750000D01*
X87250000Y-73750000D01*
X87390866Y-73770254D01*
X87520320Y-73829373D01*
X87627875Y-73922570D01*
X87704816Y-74042292D01*
X87744911Y-74178843D01*
X87744911Y-74250000D01*
X87750000Y-74250000D01*
X87750000Y-74750000D01*
X86250000Y-74750000D01*
X86250000Y-74250000D01*
X86255089Y-74250000D01*
G37*
D23*
X127130000Y-57890000D03*
X124590000Y-57890000D03*
D22*
X122050000Y-57890000D03*
D23*
X119510000Y-57890000D03*
X116970000Y-57890000D03*
X114430000Y-57890000D03*
X111890000Y-57890000D03*
D22*
X109350000Y-57890000D03*
D23*
X106810000Y-57890000D03*
X104270000Y-57890000D03*
X101730000Y-57890000D03*
X99190000Y-57890000D03*
D22*
X96650000Y-57890000D03*
D23*
X94110000Y-57890000D03*
X91570000Y-57890000D03*
X89030000Y-57890000D03*
X86490000Y-57890000D03*
D22*
X83950000Y-57890000D03*
D23*
X81410000Y-57890000D03*
X78870000Y-57890000D03*
X78870000Y-40110000D03*
X81410000Y-40110000D03*
D22*
X83950000Y-40110000D03*
D23*
X86490000Y-40110000D03*
X89030000Y-40110000D03*
X91570000Y-40110000D03*
X94110000Y-40110000D03*
D22*
X96650000Y-40110000D03*
D23*
X99190000Y-40110000D03*
X101730000Y-40110000D03*
X104270000Y-40110000D03*
X106810000Y-40110000D03*
D22*
X109350000Y-40110000D03*
D23*
X111890000Y-40110000D03*
X114430000Y-40110000D03*
X116970000Y-40110000D03*
X119510000Y-40110000D03*
D22*
X122050000Y-40110000D03*
D23*
X124590000Y-40110000D03*
X127130000Y-40110000D03*
G36*
G01*
X50450000Y-27750000D02*
X50450000Y-29200000D01*
G75*
G02*
X50200000Y-29450000I-250000J0D01*
G01*
X49000000Y-29450000D01*
G75*
G02*
X48750000Y-29200000I0J250000D01*
G01*
X48750000Y-27750000D01*
G75*
G02*
X49000000Y-27500000I250000J0D01*
G01*
X50200000Y-27500000D01*
G75*
G02*
X50450000Y-27750000I0J-250000D01*
G01*
G37*
D29*
X47100000Y-28475000D03*
X44600000Y-28475000D03*
G36*
X85250000Y-75050000D02*
G01*
X85250000Y-75550000D01*
X85244911Y-75550000D01*
X85244911Y-75621157D01*
X85204816Y-75757708D01*
X85127875Y-75877430D01*
X85020320Y-75970627D01*
X84890866Y-76029746D01*
X84750000Y-76050000D01*
X84250000Y-76050000D01*
X84109134Y-76029746D01*
X83979680Y-75970627D01*
X83872125Y-75877430D01*
X83795184Y-75757708D01*
X83755089Y-75621157D01*
X83755089Y-75550000D01*
X83750000Y-75550000D01*
X83750000Y-75050000D01*
X85250000Y-75050000D01*
G37*
G36*
X83755089Y-74250000D02*
G01*
X83755089Y-74178843D01*
X83795184Y-74042292D01*
X83872125Y-73922570D01*
X83979680Y-73829373D01*
X84109134Y-73770254D01*
X84250000Y-73750000D01*
X84750000Y-73750000D01*
X84890866Y-73770254D01*
X85020320Y-73829373D01*
X85127875Y-73922570D01*
X85204816Y-74042292D01*
X85244911Y-74178843D01*
X85244911Y-74250000D01*
X85250000Y-74250000D01*
X85250000Y-74750000D01*
X83750000Y-74750000D01*
X83750000Y-74250000D01*
X83755089Y-74250000D01*
G37*
G36*
G01*
X43750000Y-126375000D02*
X43750000Y-127825000D01*
G75*
G02*
X43500000Y-128075000I-250000J0D01*
G01*
X42300000Y-128075000D01*
G75*
G02*
X42050000Y-127825000I0J250000D01*
G01*
X42050000Y-126375000D01*
G75*
G02*
X42300000Y-126125000I250000J0D01*
G01*
X43500000Y-126125000D01*
G75*
G02*
X43750000Y-126375000I0J-250000D01*
G01*
G37*
X40400000Y-127100000D03*
X37900000Y-127100000D03*
D22*
X120250000Y-68375600D03*
D23*
X117710000Y-68375600D03*
X120250000Y-70915600D03*
X117710000Y-70915600D03*
X120250000Y-73455600D03*
X117710000Y-73455600D03*
X120250000Y-75995600D03*
X117710000Y-75995600D03*
X120250000Y-78535600D03*
X117710000Y-78535600D03*
X120250000Y-81075600D03*
X117710000Y-81075600D03*
X120250000Y-83615600D03*
X117710000Y-83615600D03*
X120250000Y-86155600D03*
X117710000Y-86155600D03*
X120250000Y-88695600D03*
X117710000Y-88695600D03*
X120250000Y-91235600D03*
X117710000Y-91235600D03*
X120250000Y-93775600D03*
X117710000Y-93775600D03*
X120250000Y-96315600D03*
X117710000Y-96315600D03*
X120250000Y-98855600D03*
X117710000Y-98855600D03*
X120250000Y-101395600D03*
X117710000Y-101395600D03*
X120250000Y-103935600D03*
X117710000Y-103935600D03*
X120250000Y-106475600D03*
X117710000Y-106475600D03*
X120250000Y-109015600D03*
X117710000Y-109015600D03*
X120250000Y-111555600D03*
X117710000Y-111555600D03*
X120250000Y-114095600D03*
X117710000Y-114095600D03*
X120250000Y-116635600D03*
X117710000Y-116635600D03*
D22*
X156555000Y-74845600D03*
D23*
X154015000Y-74845600D03*
X156555000Y-77385600D03*
X154015000Y-77385600D03*
X156555000Y-79925600D03*
X154015000Y-79925600D03*
D22*
X152380000Y-119150600D03*
D23*
X152380000Y-121690600D03*
X154920000Y-119150600D03*
X154920000Y-121690600D03*
X157460000Y-119150600D03*
X157460000Y-121690600D03*
G36*
G01*
X50450000Y-35500000D02*
X50450000Y-36950000D01*
G75*
G02*
X50200000Y-37200000I-250000J0D01*
G01*
X49000000Y-37200000D01*
G75*
G02*
X48750000Y-36950000I0J250000D01*
G01*
X48750000Y-35500000D01*
G75*
G02*
X49000000Y-35250000I250000J0D01*
G01*
X50200000Y-35250000D01*
G75*
G02*
X50450000Y-35500000I0J-250000D01*
G01*
G37*
D29*
X47100000Y-36225000D03*
X44600000Y-36225000D03*
M02*
