G04 #@! TF.GenerationSoftware,KiCad,Pcbnew,7.0.7-7.0.7~ubuntu23.04.1*
G04 #@! TF.CreationDate,2023-10-14T08:10:16+00:00*
G04 #@! TF.ProjectId,pedalboard-hw,70656461-6c62-46f6-9172-642d68772e6b,3.0.0-RC1*
G04 #@! TF.SameCoordinates,Original*
G04 #@! TF.FileFunction,Soldermask,Top*
G04 #@! TF.FilePolarity,Negative*
%FSLAX46Y46*%
G04 Gerber Fmt 4.6, Leading zero omitted, Abs format (unit mm)*
G04 Created by KiCad (PCBNEW 7.0.7-7.0.7~ubuntu23.04.1) date 2023-10-14 08:10:16*
%MOMM*%
%LPD*%
G01*
G04 APERTURE LIST*
%ADD10C,0.010000*%
%ADD11C,3.000000*%
%ADD12O,1.200000X2.200000*%
%ADD13O,2.200000X1.200000*%
%ADD14R,4.400000X1.800000*%
%ADD15O,4.000000X1.800000*%
%ADD16O,1.800000X4.000000*%
%ADD17C,6.000000*%
%ADD18R,1.350000X1.350000*%
%ADD19O,1.350000X1.350000*%
%ADD20R,1.500000X1.000000*%
%ADD21R,2.250000X2.250000*%
%ADD22C,2.250000*%
%ADD23C,2.700000*%
%ADD24R,1.700000X1.700000*%
%ADD25O,1.700000X1.700000*%
%ADD26C,0.600000*%
%ADD27R,2.000000X1.800000*%
%ADD28R,2.000000X2.000000*%
%ADD29C,2.000000*%
%ADD30C,3.200000*%
%ADD31R,1.300000X0.800000*%
%ADD32C,1.350000*%
%ADD33O,1.700000X1.950000*%
G04 APERTURE END LIST*
D10*
X161300000Y-25898370D02*
X160497320Y-25898370D01*
X160497320Y-23500000D01*
X161300000Y-23500000D01*
X161300000Y-25898370D01*
G36*
X161300000Y-25898370D02*
G01*
X160497320Y-25898370D01*
X160497320Y-23500000D01*
X161300000Y-23500000D01*
X161300000Y-25898370D01*
G37*
X161300000Y-31101440D02*
X160499130Y-31101440D01*
X160499130Y-28700000D01*
X161300000Y-28700000D01*
X161300000Y-31101440D01*
G36*
X161300000Y-31101440D02*
G01*
X160499130Y-31101440D01*
X160499130Y-28700000D01*
X161300000Y-28700000D01*
X161300000Y-31101440D01*
G37*
X162550000Y-25897440D02*
X161748080Y-25897440D01*
X161748080Y-23500000D01*
X162550000Y-23500000D01*
X162550000Y-25897440D01*
G36*
X162550000Y-25897440D02*
G01*
X161748080Y-25897440D01*
X161748080Y-23500000D01*
X162550000Y-23500000D01*
X162550000Y-25897440D01*
G37*
X162550000Y-31102790D02*
X161749230Y-31102790D01*
X161749230Y-28700000D01*
X162550000Y-28700000D01*
X162550000Y-31102790D01*
G36*
X162550000Y-31102790D02*
G01*
X161749230Y-31102790D01*
X161749230Y-28700000D01*
X162550000Y-28700000D01*
X162550000Y-31102790D01*
G37*
X163850000Y-25898000D02*
X163050357Y-25898000D01*
X163050357Y-23500000D01*
X163850000Y-23500000D01*
X163850000Y-25898000D01*
G36*
X163850000Y-25898000D02*
G01*
X163050357Y-25898000D01*
X163050357Y-23500000D01*
X163850000Y-23500000D01*
X163850000Y-25898000D01*
G37*
X163850000Y-31107460D02*
X163050490Y-31107460D01*
X163050490Y-28700000D01*
X163850000Y-28700000D01*
X163850000Y-31107460D01*
G36*
X163850000Y-31107460D02*
G01*
X163050490Y-31107460D01*
X163050490Y-28700000D01*
X163850000Y-28700000D01*
X163850000Y-31107460D01*
G37*
X165100000Y-25898280D02*
X164301840Y-25898280D01*
X164301840Y-23500000D01*
X165100000Y-23500000D01*
X165100000Y-25898280D01*
G36*
X165100000Y-25898280D02*
G01*
X164301840Y-25898280D01*
X164301840Y-23500000D01*
X165100000Y-23500000D01*
X165100000Y-25898280D01*
G37*
G36*
G01*
X140950000Y-44725000D02*
X140950000Y-43775000D01*
G75*
G02*
X141200000Y-43525000I250000J0D01*
G01*
X141700000Y-43525000D01*
G75*
G02*
X141950000Y-43775000I0J-250000D01*
G01*
X141950000Y-44725000D01*
G75*
G02*
X141700000Y-44975000I-250000J0D01*
G01*
X141200000Y-44975000D01*
G75*
G02*
X140950000Y-44725000I0J250000D01*
G01*
G37*
G36*
G01*
X142850000Y-44725000D02*
X142850000Y-43775000D01*
G75*
G02*
X143100000Y-43525000I250000J0D01*
G01*
X143600000Y-43525000D01*
G75*
G02*
X143850000Y-43775000I0J-250000D01*
G01*
X143850000Y-44725000D01*
G75*
G02*
X143600000Y-44975000I-250000J0D01*
G01*
X143100000Y-44975000D01*
G75*
G02*
X142850000Y-44725000I0J250000D01*
G01*
G37*
D11*
X25000000Y-23000000D03*
D12*
X125000000Y-29500000D03*
X122500000Y-29500000D03*
D13*
X120000000Y-24500000D03*
D12*
X115000000Y-29500000D03*
X117500000Y-29500000D03*
D11*
X28050000Y-50000000D03*
X28050000Y-33770000D03*
X21700000Y-50000000D03*
X21700000Y-33770000D03*
X34400000Y-50000000D03*
X34400000Y-33770000D03*
X28050000Y-111200000D03*
X28050000Y-94970000D03*
X21700000Y-111200000D03*
X21700000Y-94970000D03*
X34400000Y-111200000D03*
X34400000Y-94970000D03*
G36*
G01*
X157200000Y-44325000D02*
X157200000Y-43375000D01*
G75*
G02*
X157450000Y-43125000I250000J0D01*
G01*
X157950000Y-43125000D01*
G75*
G02*
X158200000Y-43375000I0J-250000D01*
G01*
X158200000Y-44325000D01*
G75*
G02*
X157950000Y-44575000I-250000J0D01*
G01*
X157450000Y-44575000D01*
G75*
G02*
X157200000Y-44325000I0J250000D01*
G01*
G37*
G36*
G01*
X159100000Y-44325000D02*
X159100000Y-43375000D01*
G75*
G02*
X159350000Y-43125000I250000J0D01*
G01*
X159850000Y-43125000D01*
G75*
G02*
X160100000Y-43375000I0J-250000D01*
G01*
X160100000Y-44325000D01*
G75*
G02*
X159850000Y-44575000I-250000J0D01*
G01*
X159350000Y-44575000D01*
G75*
G02*
X159100000Y-44325000I0J250000D01*
G01*
G37*
D14*
X179400000Y-30400000D03*
D15*
X179400000Y-24600000D03*
D16*
X174600000Y-27400000D03*
D17*
X30000000Y-119000000D03*
D18*
X29000000Y-56000000D03*
D19*
X31000000Y-56000000D03*
X29000000Y-58000000D03*
X31000000Y-58000000D03*
G36*
G01*
X128575000Y-43906250D02*
X128575000Y-43393750D01*
G75*
G02*
X128793750Y-43175000I218750J0D01*
G01*
X129231250Y-43175000D01*
G75*
G02*
X129450000Y-43393750I0J-218750D01*
G01*
X129450000Y-43906250D01*
G75*
G02*
X129231250Y-44125000I-218750J0D01*
G01*
X128793750Y-44125000D01*
G75*
G02*
X128575000Y-43906250I0J218750D01*
G01*
G37*
G36*
G01*
X130150000Y-43906250D02*
X130150000Y-43393750D01*
G75*
G02*
X130368750Y-43175000I218750J0D01*
G01*
X130806250Y-43175000D01*
G75*
G02*
X131025000Y-43393750I0J-218750D01*
G01*
X131025000Y-43906250D01*
G75*
G02*
X130806250Y-44125000I-218750J0D01*
G01*
X130368750Y-44125000D01*
G75*
G02*
X130150000Y-43906250I0J218750D01*
G01*
G37*
G36*
X90850000Y-115850000D02*
G01*
X90350000Y-115850000D01*
X90350000Y-115844911D01*
X90278843Y-115844911D01*
X90142292Y-115804816D01*
X90022570Y-115727875D01*
X89929373Y-115620320D01*
X89870254Y-115490866D01*
X89850000Y-115350000D01*
X89850000Y-114850000D01*
X89870254Y-114709134D01*
X89929373Y-114579680D01*
X90022570Y-114472125D01*
X90142292Y-114395184D01*
X90278843Y-114355089D01*
X90350000Y-114355089D01*
X90350000Y-114350000D01*
X90850000Y-114350000D01*
X90850000Y-115850000D01*
G37*
G36*
X91650000Y-114355089D02*
G01*
X91721157Y-114355089D01*
X91857708Y-114395184D01*
X91977430Y-114472125D01*
X92070627Y-114579680D01*
X92129746Y-114709134D01*
X92150000Y-114850000D01*
X92150000Y-115350000D01*
X92129746Y-115490866D01*
X92070627Y-115620320D01*
X91977430Y-115727875D01*
X91857708Y-115804816D01*
X91721157Y-115844911D01*
X91650000Y-115844911D01*
X91650000Y-115850000D01*
X91150000Y-115850000D01*
X91150000Y-114350000D01*
X91650000Y-114350000D01*
X91650000Y-114355089D01*
G37*
G36*
G01*
X159950000Y-24025000D02*
X159950000Y-24975000D01*
G75*
G02*
X159700000Y-25225000I-250000J0D01*
G01*
X159200000Y-25225000D01*
G75*
G02*
X158950000Y-24975000I0J250000D01*
G01*
X158950000Y-24025000D01*
G75*
G02*
X159200000Y-23775000I250000J0D01*
G01*
X159700000Y-23775000D01*
G75*
G02*
X159950000Y-24025000I0J-250000D01*
G01*
G37*
G36*
G01*
X158050000Y-24025000D02*
X158050000Y-24975000D01*
G75*
G02*
X157800000Y-25225000I-250000J0D01*
G01*
X157300000Y-25225000D01*
G75*
G02*
X157050000Y-24975000I0J250000D01*
G01*
X157050000Y-24025000D01*
G75*
G02*
X157300000Y-23775000I250000J0D01*
G01*
X157800000Y-23775000D01*
G75*
G02*
X158050000Y-24025000I0J-250000D01*
G01*
G37*
D20*
X119950000Y-49600000D03*
X119950000Y-46400000D03*
X115050000Y-46400000D03*
X115050000Y-49600000D03*
D17*
X105000000Y-67000000D03*
X30000000Y-67000000D03*
D11*
X28050000Y-91000000D03*
X28050000Y-74770000D03*
X21700000Y-91000000D03*
X21700000Y-74770000D03*
X34400000Y-91000000D03*
X34400000Y-74770000D03*
D21*
X145530000Y-86155749D03*
D22*
X145530000Y-78535749D03*
X145530000Y-73455749D03*
X125210000Y-65835749D03*
X125210000Y-75995749D03*
X125210000Y-86155749D03*
D11*
X181950000Y-94995000D03*
X181950000Y-111225000D03*
X188300000Y-94995000D03*
X188300000Y-111225000D03*
X175600000Y-94995000D03*
X175600000Y-111225000D03*
D20*
X144950000Y-49600000D03*
X144950000Y-46400000D03*
X140050000Y-46400000D03*
X140050000Y-49600000D03*
D23*
X118980000Y-121520000D03*
D18*
X181000000Y-130000000D03*
D19*
X179000000Y-130000000D03*
X181000000Y-128000000D03*
X179000000Y-128000000D03*
D24*
X49590000Y-106320000D03*
D25*
X49590000Y-103780000D03*
X52130000Y-106320000D03*
X52130000Y-103780000D03*
X54670000Y-106320000D03*
X54670000Y-103780000D03*
X57210000Y-106320000D03*
X57210000Y-103780000D03*
X59750000Y-106320000D03*
X59750000Y-103780000D03*
X62290000Y-106320000D03*
X62290000Y-103780000D03*
X64830000Y-106320000D03*
X64830000Y-103780000D03*
X67370000Y-106320000D03*
X67370000Y-103780000D03*
X69910000Y-106320000D03*
X69910000Y-103780000D03*
X72450000Y-106320000D03*
X72450000Y-103780000D03*
X74990000Y-106320000D03*
X74990000Y-103780000D03*
X77530000Y-106320000D03*
X77530000Y-103780000D03*
X80070000Y-106320000D03*
X80070000Y-103780000D03*
X82610000Y-106320000D03*
X82610000Y-103780000D03*
X85150000Y-106320000D03*
X85150000Y-103780000D03*
X87690000Y-106320000D03*
X87690000Y-103780000D03*
X90230000Y-106320000D03*
X90230000Y-103780000D03*
X92770000Y-106320000D03*
X92770000Y-103780000D03*
X95310000Y-106320000D03*
X95310000Y-103780000D03*
X97850000Y-106320000D03*
X97850000Y-103780000D03*
D26*
X80100000Y-21075000D03*
X80100000Y-22075000D03*
X80100000Y-23075000D03*
X80100000Y-24075000D03*
X80100000Y-25075000D03*
X80100000Y-26075000D03*
X80100000Y-30075000D03*
X80100000Y-31075000D03*
X80100000Y-32075000D03*
X80100000Y-33075000D03*
X80100000Y-34075000D03*
X80100000Y-35075000D03*
X80100000Y-36075000D03*
X81100000Y-36075000D03*
X82100000Y-36075000D03*
X83100000Y-36075000D03*
X84100000Y-36075000D03*
X85100000Y-36075000D03*
X86100000Y-36075000D03*
X87100000Y-36075000D03*
X88100000Y-36075000D03*
X90100000Y-36075000D03*
X91100000Y-36075000D03*
X92100000Y-36075000D03*
X93100000Y-36075000D03*
X94100000Y-36075000D03*
X95100000Y-36075000D03*
X96100000Y-36075000D03*
X97100000Y-36075000D03*
X98100000Y-36075000D03*
X100100000Y-36075000D03*
X101100000Y-36075000D03*
X102100000Y-36075000D03*
X103100000Y-36075000D03*
X104100000Y-36075000D03*
X105100000Y-36075000D03*
X106100000Y-36075000D03*
X107100000Y-36075000D03*
X108100000Y-36075000D03*
X109100000Y-36075000D03*
X110100000Y-36075000D03*
X112100000Y-36075000D03*
X113100000Y-36075000D03*
X114100000Y-36075000D03*
X115100000Y-36075000D03*
X116100000Y-36075000D03*
X117100000Y-36075000D03*
X118100000Y-36075000D03*
X119100000Y-36075000D03*
X120100000Y-36075000D03*
X122100000Y-36075000D03*
X123100000Y-36075000D03*
X124100000Y-36075000D03*
X125100000Y-36075000D03*
X126100000Y-36075000D03*
X127100000Y-36075000D03*
X128100000Y-36075000D03*
X129100000Y-36075000D03*
X130100000Y-21075000D03*
X130100000Y-22075000D03*
X130100000Y-23075000D03*
X130100000Y-24075000D03*
X130100000Y-25075000D03*
X130100000Y-26075000D03*
X130100000Y-27075000D03*
X130100000Y-28075000D03*
X130100000Y-29075000D03*
X130100000Y-30075000D03*
X130100000Y-31075000D03*
X130100000Y-32075000D03*
X130100000Y-33075000D03*
X130100000Y-34075000D03*
X130100000Y-35075000D03*
X130100000Y-36075000D03*
D18*
X31000000Y-130000000D03*
D19*
X29000000Y-130000000D03*
X31000000Y-128000000D03*
X29000000Y-128000000D03*
D27*
X98000000Y-64500000D03*
X112000000Y-64500000D03*
X98000000Y-69500000D03*
X112000000Y-69500000D03*
D11*
X185000000Y-128000000D03*
D18*
X106000000Y-78000000D03*
D19*
X104000000Y-78000000D03*
X106000000Y-76000000D03*
X104000000Y-76000000D03*
G36*
G01*
X78250000Y-47200000D02*
X78250000Y-48100000D01*
G75*
G02*
X78000000Y-48350000I-250000J0D01*
G01*
X77475000Y-48350000D01*
G75*
G02*
X77225000Y-48100000I0J250000D01*
G01*
X77225000Y-47200000D01*
G75*
G02*
X77475000Y-46950000I250000J0D01*
G01*
X78000000Y-46950000D01*
G75*
G02*
X78250000Y-47200000I0J-250000D01*
G01*
G37*
G36*
G01*
X76425000Y-47200000D02*
X76425000Y-48100000D01*
G75*
G02*
X76175000Y-48350000I-250000J0D01*
G01*
X75650000Y-48350000D01*
G75*
G02*
X75400000Y-48100000I0J250000D01*
G01*
X75400000Y-47200000D01*
G75*
G02*
X75650000Y-46950000I250000J0D01*
G01*
X76175000Y-46950000D01*
G75*
G02*
X76425000Y-47200000I0J-250000D01*
G01*
G37*
D23*
X42000000Y-23000000D03*
G36*
G01*
X154225000Y-40575000D02*
X156375000Y-40575000D01*
G75*
G02*
X156625000Y-40825000I0J-250000D01*
G01*
X156625000Y-41575000D01*
G75*
G02*
X156375000Y-41825000I-250000J0D01*
G01*
X154225000Y-41825000D01*
G75*
G02*
X153975000Y-41575000I0J250000D01*
G01*
X153975000Y-40825000D01*
G75*
G02*
X154225000Y-40575000I250000J0D01*
G01*
G37*
G36*
G01*
X154225000Y-43375000D02*
X156375000Y-43375000D01*
G75*
G02*
X156625000Y-43625000I0J-250000D01*
G01*
X156625000Y-44375000D01*
G75*
G02*
X156375000Y-44625000I-250000J0D01*
G01*
X154225000Y-44625000D01*
G75*
G02*
X153975000Y-44375000I0J250000D01*
G01*
X153975000Y-43625000D01*
G75*
G02*
X154225000Y-43375000I250000J0D01*
G01*
G37*
D11*
X181965000Y-33800000D03*
X181965000Y-50030000D03*
X188315000Y-33800000D03*
X188315000Y-50030000D03*
X175615000Y-33800000D03*
X175615000Y-50030000D03*
G36*
G01*
X49550000Y-25625000D02*
X49550000Y-26575000D01*
G75*
G02*
X49300000Y-26825000I-250000J0D01*
G01*
X48800000Y-26825000D01*
G75*
G02*
X48550000Y-26575000I0J250000D01*
G01*
X48550000Y-25625000D01*
G75*
G02*
X48800000Y-25375000I250000J0D01*
G01*
X49300000Y-25375000D01*
G75*
G02*
X49550000Y-25625000I0J-250000D01*
G01*
G37*
G36*
G01*
X47650000Y-25625000D02*
X47650000Y-26575000D01*
G75*
G02*
X47400000Y-26825000I-250000J0D01*
G01*
X46900000Y-26825000D01*
G75*
G02*
X46650000Y-26575000I0J250000D01*
G01*
X46650000Y-25625000D01*
G75*
G02*
X46900000Y-25375000I250000J0D01*
G01*
X47400000Y-25375000D01*
G75*
G02*
X47650000Y-25625000I0J-250000D01*
G01*
G37*
G36*
X111946312Y-33285921D02*
G01*
X111214079Y-32553688D01*
X111199200Y-32517767D01*
X111199200Y-31482233D01*
X111214079Y-31446312D01*
X111946312Y-30714079D01*
X111982233Y-30699200D01*
X113017767Y-30699200D01*
X113053688Y-30714079D01*
X113785921Y-31446312D01*
X113800800Y-31482233D01*
X113800800Y-32517767D01*
X113785921Y-32553688D01*
X113053688Y-33285921D01*
X113017767Y-33300800D01*
X111982233Y-33300800D01*
X111946312Y-33285921D01*
G37*
G36*
X121285921Y-32553688D02*
G01*
X120553688Y-33285921D01*
X120517767Y-33300800D01*
X119482233Y-33300800D01*
X119446312Y-33285921D01*
X118714079Y-32553688D01*
X118699200Y-32517767D01*
X118699200Y-31482233D01*
X118714079Y-31446312D01*
X119446312Y-30714079D01*
X119482233Y-30699200D01*
X120517767Y-30699200D01*
X120553688Y-30714079D01*
X121285921Y-31446312D01*
X121300800Y-31482233D01*
X121300800Y-32517767D01*
X121285921Y-32553688D01*
G37*
G36*
X126946312Y-33285921D02*
G01*
X126214079Y-32553688D01*
X126199200Y-32517767D01*
X126199200Y-31482233D01*
X126214079Y-31446312D01*
X126946312Y-30714079D01*
X126982233Y-30699200D01*
X128017767Y-30699200D01*
X128053688Y-30714079D01*
X128785921Y-31446312D01*
X128800800Y-31482233D01*
X128800800Y-32517767D01*
X128785921Y-32553688D01*
X128053688Y-33285921D01*
X128017767Y-33300800D01*
X126982233Y-33300800D01*
X126946312Y-33285921D01*
G37*
G36*
X114446312Y-35785921D02*
G01*
X113714079Y-35053688D01*
X113699200Y-35017767D01*
X113699200Y-33982233D01*
X113714079Y-33946312D01*
X114446312Y-33214079D01*
X114482233Y-33199200D01*
X115517767Y-33199200D01*
X115553688Y-33214079D01*
X116285921Y-33946312D01*
X116300800Y-33982233D01*
X116300800Y-35017767D01*
X116285921Y-35053688D01*
X115553688Y-35785921D01*
X115517767Y-35800800D01*
X114482233Y-35800800D01*
X114446312Y-35785921D01*
G37*
G36*
X124446312Y-35785921D02*
G01*
X123714079Y-35053688D01*
X123699200Y-35017767D01*
X123699200Y-33982233D01*
X123714079Y-33946312D01*
X124446312Y-33214079D01*
X124482233Y-33199200D01*
X125517767Y-33199200D01*
X125553688Y-33214079D01*
X126285921Y-33946312D01*
X126300800Y-33982233D01*
X126300800Y-35017767D01*
X126285921Y-35053688D01*
X125553688Y-35785921D01*
X125517767Y-35800800D01*
X124482233Y-35800800D01*
X124446312Y-35785921D01*
G37*
G36*
X121564079Y-23035921D02*
G01*
X121549200Y-23000000D01*
X121549200Y-21900000D01*
X121564079Y-21864079D01*
X122464079Y-20964079D01*
X122500000Y-20949200D01*
X123400000Y-20949200D01*
X123435921Y-20964079D01*
X123450800Y-21000000D01*
X123450800Y-23000000D01*
X123435921Y-23035921D01*
X123400000Y-23050800D01*
X121600000Y-23050800D01*
X121564079Y-23035921D01*
G37*
G36*
G01*
X125950800Y-21000000D02*
X125950800Y-23000000D01*
G75*
G02*
X125900000Y-23050800I-50800J0D01*
G01*
X124100000Y-23050800D01*
G75*
G02*
X124049200Y-23000000I0J50800D01*
G01*
X124049200Y-21000000D01*
G75*
G02*
X124100000Y-20949200I50800J0D01*
G01*
X125900000Y-20949200D01*
G75*
G02*
X125950800Y-21000000I0J-50800D01*
G01*
G37*
G36*
G01*
X115950800Y-21000000D02*
X115950800Y-23000000D01*
G75*
G02*
X115900000Y-23050800I-50800J0D01*
G01*
X114100000Y-23050800D01*
G75*
G02*
X114049200Y-23000000I0J50800D01*
G01*
X114049200Y-21000000D01*
G75*
G02*
X114100000Y-20949200I50800J0D01*
G01*
X115900000Y-20949200D01*
G75*
G02*
X115950800Y-21000000I0J-50800D01*
G01*
G37*
G36*
X116564079Y-23035921D02*
G01*
X116549200Y-23000000D01*
X116549200Y-21000000D01*
X116564079Y-20964079D01*
X116600000Y-20949200D01*
X117500000Y-20949200D01*
X117535921Y-20964079D01*
X118435921Y-21864079D01*
X118450800Y-21900000D01*
X118450800Y-23000000D01*
X118435921Y-23035921D01*
X118400000Y-23050800D01*
X116600000Y-23050800D01*
X116564079Y-23035921D01*
G37*
D20*
X94950000Y-49600000D03*
X94950000Y-46400000D03*
X90050000Y-46400000D03*
X90050000Y-49600000D03*
D28*
X60250000Y-31500000D03*
D29*
X60250000Y-36500000D03*
X60250000Y-34000000D03*
D30*
X67750000Y-28400000D03*
X67750000Y-39600000D03*
D29*
X74750000Y-36500000D03*
X74750000Y-31500000D03*
G36*
G01*
X62575000Y-45500000D02*
X63525000Y-45500000D01*
G75*
G02*
X63775000Y-45750000I0J-250000D01*
G01*
X63775000Y-46250000D01*
G75*
G02*
X63525000Y-46500000I-250000J0D01*
G01*
X62575000Y-46500000D01*
G75*
G02*
X62325000Y-46250000I0J250000D01*
G01*
X62325000Y-45750000D01*
G75*
G02*
X62575000Y-45500000I250000J0D01*
G01*
G37*
G36*
G01*
X62575000Y-47400000D02*
X63525000Y-47400000D01*
G75*
G02*
X63775000Y-47650000I0J-250000D01*
G01*
X63775000Y-48150000D01*
G75*
G02*
X63525000Y-48400000I-250000J0D01*
G01*
X62575000Y-48400000D01*
G75*
G02*
X62325000Y-48150000I0J250000D01*
G01*
X62325000Y-47650000D01*
G75*
G02*
X62575000Y-47400000I250000J0D01*
G01*
G37*
G36*
G01*
X161800000Y-44267500D02*
X163800000Y-44267500D01*
G75*
G02*
X164050000Y-44517500I0J-250000D01*
G01*
X164050000Y-48017500D01*
G75*
G02*
X163800000Y-48267500I-250000J0D01*
G01*
X161800000Y-48267500D01*
G75*
G02*
X161550000Y-48017500I0J250000D01*
G01*
X161550000Y-44517500D01*
G75*
G02*
X161800000Y-44267500I250000J0D01*
G01*
G37*
G36*
G01*
X161800000Y-52267500D02*
X163800000Y-52267500D01*
G75*
G02*
X164050000Y-52517500I0J-250000D01*
G01*
X164050000Y-56017500D01*
G75*
G02*
X163800000Y-56267500I-250000J0D01*
G01*
X161800000Y-56267500D01*
G75*
G02*
X161550000Y-56017500I0J250000D01*
G01*
X161550000Y-52517500D01*
G75*
G02*
X161800000Y-52267500I250000J0D01*
G01*
G37*
D18*
X179000000Y-56000000D03*
D19*
X181000000Y-56000000D03*
X179000000Y-58000000D03*
X181000000Y-58000000D03*
D17*
X180000000Y-67000000D03*
G36*
G01*
X40550000Y-27175000D02*
X41450000Y-27175000D01*
G75*
G02*
X41700000Y-27425000I0J-250000D01*
G01*
X41700000Y-27950000D01*
G75*
G02*
X41450000Y-28200000I-250000J0D01*
G01*
X40550000Y-28200000D01*
G75*
G02*
X40300000Y-27950000I0J250000D01*
G01*
X40300000Y-27425000D01*
G75*
G02*
X40550000Y-27175000I250000J0D01*
G01*
G37*
G36*
G01*
X40550000Y-29000000D02*
X41450000Y-29000000D01*
G75*
G02*
X41700000Y-29250000I0J-250000D01*
G01*
X41700000Y-29775000D01*
G75*
G02*
X41450000Y-30025000I-250000J0D01*
G01*
X40550000Y-30025000D01*
G75*
G02*
X40300000Y-29775000I0J250000D01*
G01*
X40300000Y-29250000D01*
G75*
G02*
X40550000Y-29000000I250000J0D01*
G01*
G37*
G36*
G01*
X136625000Y-57475000D02*
X136625000Y-55475000D01*
G75*
G02*
X136875000Y-55225000I250000J0D01*
G01*
X140375000Y-55225000D01*
G75*
G02*
X140625000Y-55475000I0J-250000D01*
G01*
X140625000Y-57475000D01*
G75*
G02*
X140375000Y-57725000I-250000J0D01*
G01*
X136875000Y-57725000D01*
G75*
G02*
X136625000Y-57475000I0J250000D01*
G01*
G37*
G36*
G01*
X144625000Y-57475000D02*
X144625000Y-55475000D01*
G75*
G02*
X144875000Y-55225000I250000J0D01*
G01*
X148375000Y-55225000D01*
G75*
G02*
X148625000Y-55475000I0J-250000D01*
G01*
X148625000Y-57475000D01*
G75*
G02*
X148375000Y-57725000I-250000J0D01*
G01*
X144875000Y-57725000D01*
G75*
G02*
X144625000Y-57475000I0J250000D01*
G01*
G37*
D20*
X69950000Y-49600000D03*
X69950000Y-46400000D03*
X65050000Y-46400000D03*
X65050000Y-49600000D03*
G36*
G01*
X87525000Y-45500000D02*
X88475000Y-45500000D01*
G75*
G02*
X88725000Y-45750000I0J-250000D01*
G01*
X88725000Y-46250000D01*
G75*
G02*
X88475000Y-46500000I-250000J0D01*
G01*
X87525000Y-46500000D01*
G75*
G02*
X87275000Y-46250000I0J250000D01*
G01*
X87275000Y-45750000D01*
G75*
G02*
X87525000Y-45500000I250000J0D01*
G01*
G37*
G36*
G01*
X87525000Y-47400000D02*
X88475000Y-47400000D01*
G75*
G02*
X88725000Y-47650000I0J-250000D01*
G01*
X88725000Y-48150000D01*
G75*
G02*
X88475000Y-48400000I-250000J0D01*
G01*
X87525000Y-48400000D01*
G75*
G02*
X87275000Y-48150000I0J250000D01*
G01*
X87275000Y-47650000D01*
G75*
G02*
X87525000Y-47400000I250000J0D01*
G01*
G37*
G36*
G01*
X164303000Y-31000000D02*
X164303000Y-28800000D01*
G75*
G02*
X164405000Y-28698000I102000J0D01*
G01*
X165005000Y-28698000D01*
G75*
G02*
X165107000Y-28800000I0J-102000D01*
G01*
X165107000Y-31000000D01*
G75*
G02*
X165005000Y-31102000I-102000J0D01*
G01*
X164405000Y-31102000D01*
G75*
G02*
X164303000Y-31000000I0J102000D01*
G01*
G37*
D11*
X181950000Y-74780000D03*
X181950000Y-91010000D03*
X188300000Y-74780000D03*
X188300000Y-91010000D03*
X175600000Y-74780000D03*
X175600000Y-91010000D03*
D17*
X105000000Y-119000000D03*
G36*
X169650000Y-115150000D02*
G01*
X169650000Y-115650000D01*
X169644911Y-115650000D01*
X169644911Y-115721157D01*
X169604816Y-115857708D01*
X169527875Y-115977430D01*
X169420320Y-116070627D01*
X169290866Y-116129746D01*
X169150000Y-116150000D01*
X168650000Y-116150000D01*
X168509134Y-116129746D01*
X168379680Y-116070627D01*
X168272125Y-115977430D01*
X168195184Y-115857708D01*
X168155089Y-115721157D01*
X168155089Y-115650000D01*
X168150000Y-115650000D01*
X168150000Y-115150000D01*
X169650000Y-115150000D01*
G37*
G36*
X168155089Y-114350000D02*
G01*
X168155089Y-114278843D01*
X168195184Y-114142292D01*
X168272125Y-114022570D01*
X168379680Y-113929373D01*
X168509134Y-113870254D01*
X168650000Y-113850000D01*
X169150000Y-113850000D01*
X169290866Y-113870254D01*
X169420320Y-113929373D01*
X169527875Y-114022570D01*
X169604816Y-114142292D01*
X169644911Y-114278843D01*
X169644911Y-114350000D01*
X169650000Y-114350000D01*
X169650000Y-114850000D01*
X168150000Y-114850000D01*
X168150000Y-114350000D01*
X168155089Y-114350000D01*
G37*
D27*
X23000000Y-64500000D03*
X37000000Y-64500000D03*
X23000000Y-69500000D03*
X37000000Y-69500000D03*
G36*
G01*
X128550000Y-42375000D02*
X128550000Y-41425000D01*
G75*
G02*
X128800000Y-41175000I250000J0D01*
G01*
X129300000Y-41175000D01*
G75*
G02*
X129550000Y-41425000I0J-250000D01*
G01*
X129550000Y-42375000D01*
G75*
G02*
X129300000Y-42625000I-250000J0D01*
G01*
X128800000Y-42625000D01*
G75*
G02*
X128550000Y-42375000I0J250000D01*
G01*
G37*
G36*
G01*
X130450000Y-42375000D02*
X130450000Y-41425000D01*
G75*
G02*
X130700000Y-41175000I250000J0D01*
G01*
X131200000Y-41175000D01*
G75*
G02*
X131450000Y-41425000I0J-250000D01*
G01*
X131450000Y-42375000D01*
G75*
G02*
X131200000Y-42625000I-250000J0D01*
G01*
X130700000Y-42625000D01*
G75*
G02*
X130450000Y-42375000I0J250000D01*
G01*
G37*
D31*
X46650000Y-31130000D03*
X46650000Y-32400000D03*
X46650000Y-33670000D03*
X56150000Y-33670000D03*
X56150000Y-32400000D03*
X56150000Y-31130000D03*
G36*
G01*
X57325000Y-35162500D02*
X57325000Y-36062500D01*
G75*
G02*
X57075000Y-36312500I-250000J0D01*
G01*
X56550000Y-36312500D01*
G75*
G02*
X56300000Y-36062500I0J250000D01*
G01*
X56300000Y-35162500D01*
G75*
G02*
X56550000Y-34912500I250000J0D01*
G01*
X57075000Y-34912500D01*
G75*
G02*
X57325000Y-35162500I0J-250000D01*
G01*
G37*
G36*
G01*
X55500000Y-35162500D02*
X55500000Y-36062500D01*
G75*
G02*
X55250000Y-36312500I-250000J0D01*
G01*
X54725000Y-36312500D01*
G75*
G02*
X54475000Y-36062500I0J250000D01*
G01*
X54475000Y-35162500D01*
G75*
G02*
X54725000Y-34912500I250000J0D01*
G01*
X55250000Y-34912500D01*
G75*
G02*
X55500000Y-35162500I0J-250000D01*
G01*
G37*
G36*
G01*
X161800000Y-31467500D02*
X163800000Y-31467500D01*
G75*
G02*
X164050000Y-31717500I0J-250000D01*
G01*
X164050000Y-35217500D01*
G75*
G02*
X163800000Y-35467500I-250000J0D01*
G01*
X161800000Y-35467500D01*
G75*
G02*
X161550000Y-35217500I0J250000D01*
G01*
X161550000Y-31717500D01*
G75*
G02*
X161800000Y-31467500I250000J0D01*
G01*
G37*
G36*
G01*
X161800000Y-39467500D02*
X163800000Y-39467500D01*
G75*
G02*
X164050000Y-39717500I0J-250000D01*
G01*
X164050000Y-43217500D01*
G75*
G02*
X163800000Y-43467500I-250000J0D01*
G01*
X161800000Y-43467500D01*
G75*
G02*
X161550000Y-43217500I0J250000D01*
G01*
X161550000Y-39717500D01*
G75*
G02*
X161800000Y-39467500I250000J0D01*
G01*
G37*
D18*
X104000000Y-108000000D03*
D19*
X106000000Y-108000000D03*
X104000000Y-110000000D03*
X106000000Y-110000000D03*
G36*
G01*
X54475000Y-38000000D02*
X54475000Y-37100000D01*
G75*
G02*
X54725000Y-36850000I250000J0D01*
G01*
X55250000Y-36850000D01*
G75*
G02*
X55500000Y-37100000I0J-250000D01*
G01*
X55500000Y-38000000D01*
G75*
G02*
X55250000Y-38250000I-250000J0D01*
G01*
X54725000Y-38250000D01*
G75*
G02*
X54475000Y-38000000I0J250000D01*
G01*
G37*
G36*
G01*
X56300000Y-38000000D02*
X56300000Y-37100000D01*
G75*
G02*
X56550000Y-36850000I250000J0D01*
G01*
X57075000Y-36850000D01*
G75*
G02*
X57325000Y-37100000I0J-250000D01*
G01*
X57325000Y-38000000D01*
G75*
G02*
X57075000Y-38250000I-250000J0D01*
G01*
X56550000Y-38250000D01*
G75*
G02*
X56300000Y-38000000I0J250000D01*
G01*
G37*
G36*
G01*
X42956250Y-29725000D02*
X42443750Y-29725000D01*
G75*
G02*
X42225000Y-29506250I0J218750D01*
G01*
X42225000Y-29068750D01*
G75*
G02*
X42443750Y-28850000I218750J0D01*
G01*
X42956250Y-28850000D01*
G75*
G02*
X43175000Y-29068750I0J-218750D01*
G01*
X43175000Y-29506250D01*
G75*
G02*
X42956250Y-29725000I-218750J0D01*
G01*
G37*
G36*
G01*
X42956250Y-28150000D02*
X42443750Y-28150000D01*
G75*
G02*
X42225000Y-27931250I0J218750D01*
G01*
X42225000Y-27493750D01*
G75*
G02*
X42443750Y-27275000I218750J0D01*
G01*
X42956250Y-27275000D01*
G75*
G02*
X43175000Y-27493750I0J-218750D01*
G01*
X43175000Y-27931250D01*
G75*
G02*
X42956250Y-28150000I-218750J0D01*
G01*
G37*
G36*
G01*
X157150000Y-48300000D02*
X157150000Y-49600000D01*
G75*
G02*
X156900000Y-49850000I-250000J0D01*
G01*
X156250000Y-49850000D01*
G75*
G02*
X156000000Y-49600000I0J250000D01*
G01*
X156000000Y-48300000D01*
G75*
G02*
X156250000Y-48050000I250000J0D01*
G01*
X156900000Y-48050000D01*
G75*
G02*
X157150000Y-48300000I0J-250000D01*
G01*
G37*
G36*
G01*
X154200000Y-48300000D02*
X154200000Y-49600000D01*
G75*
G02*
X153950000Y-49850000I-250000J0D01*
G01*
X153300000Y-49850000D01*
G75*
G02*
X153050000Y-49600000I0J250000D01*
G01*
X153050000Y-48300000D01*
G75*
G02*
X153300000Y-48050000I250000J0D01*
G01*
X153950000Y-48050000D01*
G75*
G02*
X154200000Y-48300000I0J-250000D01*
G01*
G37*
G36*
G01*
X44300000Y-30450000D02*
X44900000Y-30450000D01*
G75*
G02*
X45150000Y-30700000I0J-250000D01*
G01*
X45150000Y-31300000D01*
G75*
G02*
X44900000Y-31550000I-250000J0D01*
G01*
X44300000Y-31550000D01*
G75*
G02*
X44050000Y-31300000I0J250000D01*
G01*
X44050000Y-30700000D01*
G75*
G02*
X44300000Y-30450000I250000J0D01*
G01*
G37*
G36*
G01*
X44300000Y-33250000D02*
X44900000Y-33250000D01*
G75*
G02*
X45150000Y-33500000I0J-250000D01*
G01*
X45150000Y-34100000D01*
G75*
G02*
X44900000Y-34350000I-250000J0D01*
G01*
X44300000Y-34350000D01*
G75*
G02*
X44050000Y-34100000I0J250000D01*
G01*
X44050000Y-33500000D01*
G75*
G02*
X44300000Y-33250000I250000J0D01*
G01*
G37*
G36*
G01*
X112575000Y-45500000D02*
X113525000Y-45500000D01*
G75*
G02*
X113775000Y-45750000I0J-250000D01*
G01*
X113775000Y-46250000D01*
G75*
G02*
X113525000Y-46500000I-250000J0D01*
G01*
X112575000Y-46500000D01*
G75*
G02*
X112325000Y-46250000I0J250000D01*
G01*
X112325000Y-45750000D01*
G75*
G02*
X112575000Y-45500000I250000J0D01*
G01*
G37*
G36*
G01*
X112575000Y-47400000D02*
X113525000Y-47400000D01*
G75*
G02*
X113775000Y-47650000I0J-250000D01*
G01*
X113775000Y-48150000D01*
G75*
G02*
X113525000Y-48400000I-250000J0D01*
G01*
X112575000Y-48400000D01*
G75*
G02*
X112325000Y-48150000I0J250000D01*
G01*
X112325000Y-47650000D01*
G75*
G02*
X112575000Y-47400000I250000J0D01*
G01*
G37*
G36*
G01*
X42443750Y-30525000D02*
X42956250Y-30525000D01*
G75*
G02*
X43175000Y-30743750I0J-218750D01*
G01*
X43175000Y-31181250D01*
G75*
G02*
X42956250Y-31400000I-218750J0D01*
G01*
X42443750Y-31400000D01*
G75*
G02*
X42225000Y-31181250I0J218750D01*
G01*
X42225000Y-30743750D01*
G75*
G02*
X42443750Y-30525000I218750J0D01*
G01*
G37*
G36*
G01*
X42443750Y-32100000D02*
X42956250Y-32100000D01*
G75*
G02*
X43175000Y-32318750I0J-218750D01*
G01*
X43175000Y-32756250D01*
G75*
G02*
X42956250Y-32975000I-218750J0D01*
G01*
X42443750Y-32975000D01*
G75*
G02*
X42225000Y-32756250I0J218750D01*
G01*
X42225000Y-32318750D01*
G75*
G02*
X42443750Y-32100000I218750J0D01*
G01*
G37*
G36*
G01*
X172400000Y-27300000D02*
X172400000Y-30200000D01*
G75*
G02*
X172150000Y-30450000I-250000J0D01*
G01*
X171525000Y-30450000D01*
G75*
G02*
X171275000Y-30200000I0J250000D01*
G01*
X171275000Y-27300000D01*
G75*
G02*
X171525000Y-27050000I250000J0D01*
G01*
X172150000Y-27050000D01*
G75*
G02*
X172400000Y-27300000I0J-250000D01*
G01*
G37*
G36*
G01*
X168125000Y-27300000D02*
X168125000Y-30200000D01*
G75*
G02*
X167875000Y-30450000I-250000J0D01*
G01*
X167250000Y-30450000D01*
G75*
G02*
X167000000Y-30200000I0J250000D01*
G01*
X167000000Y-27300000D01*
G75*
G02*
X167250000Y-27050000I250000J0D01*
G01*
X167875000Y-27050000D01*
G75*
G02*
X168125000Y-27300000I0J-250000D01*
G01*
G37*
D23*
X118900000Y-63565600D03*
G36*
G01*
X157050000Y-46325000D02*
X157050000Y-47275000D01*
G75*
G02*
X156800000Y-47525000I-250000J0D01*
G01*
X156300000Y-47525000D01*
G75*
G02*
X156050000Y-47275000I0J250000D01*
G01*
X156050000Y-46325000D01*
G75*
G02*
X156300000Y-46075000I250000J0D01*
G01*
X156800000Y-46075000D01*
G75*
G02*
X157050000Y-46325000I0J-250000D01*
G01*
G37*
G36*
G01*
X155150000Y-46325000D02*
X155150000Y-47275000D01*
G75*
G02*
X154900000Y-47525000I-250000J0D01*
G01*
X154400000Y-47525000D01*
G75*
G02*
X154150000Y-47275000I0J250000D01*
G01*
X154150000Y-46325000D01*
G75*
G02*
X154400000Y-46075000I250000J0D01*
G01*
X154900000Y-46075000D01*
G75*
G02*
X155150000Y-46325000I0J-250000D01*
G01*
G37*
D27*
X173000000Y-116500000D03*
X187000000Y-116500000D03*
X173000000Y-121500000D03*
X187000000Y-121500000D03*
D17*
X180000000Y-119000000D03*
D27*
X173000000Y-64500000D03*
X187000000Y-64500000D03*
X173000000Y-69500000D03*
X187000000Y-69500000D03*
X23000000Y-116500000D03*
X37000000Y-116500000D03*
X23000000Y-121500000D03*
X37000000Y-121500000D03*
D23*
X168000000Y-23000000D03*
G36*
G01*
X51475000Y-37806250D02*
X51475000Y-37293750D01*
G75*
G02*
X51693750Y-37075000I218750J0D01*
G01*
X52131250Y-37075000D01*
G75*
G02*
X52350000Y-37293750I0J-218750D01*
G01*
X52350000Y-37806250D01*
G75*
G02*
X52131250Y-38025000I-218750J0D01*
G01*
X51693750Y-38025000D01*
G75*
G02*
X51475000Y-37806250I0J218750D01*
G01*
G37*
G36*
G01*
X53050000Y-37806250D02*
X53050000Y-37293750D01*
G75*
G02*
X53268750Y-37075000I218750J0D01*
G01*
X53706250Y-37075000D01*
G75*
G02*
X53925000Y-37293750I0J-218750D01*
G01*
X53925000Y-37806250D01*
G75*
G02*
X53706250Y-38025000I-218750J0D01*
G01*
X53268750Y-38025000D01*
G75*
G02*
X53050000Y-37806250I0J218750D01*
G01*
G37*
G36*
G01*
X74826000Y-47432600D02*
X74826000Y-47788200D01*
G75*
G02*
X74724000Y-47890200I-102000J0D01*
G01*
X73606400Y-47890200D01*
G75*
G02*
X73504400Y-47788200I0J102000D01*
G01*
X73504400Y-47432600D01*
G75*
G02*
X73606400Y-47330600I102000J0D01*
G01*
X74724000Y-47330600D01*
G75*
G02*
X74826000Y-47432600I0J-102000D01*
G01*
G37*
G36*
G01*
X74826000Y-46772200D02*
X74826000Y-47127800D01*
G75*
G02*
X74724000Y-47229800I-102000J0D01*
G01*
X73606400Y-47229800D01*
G75*
G02*
X73504400Y-47127800I0J102000D01*
G01*
X73504400Y-46772200D01*
G75*
G02*
X73606400Y-46670200I102000J0D01*
G01*
X74724000Y-46670200D01*
G75*
G02*
X74826000Y-46772200I0J-102000D01*
G01*
G37*
G36*
G01*
X74826000Y-46111800D02*
X74826000Y-46467400D01*
G75*
G02*
X74724000Y-46569400I-102000J0D01*
G01*
X73606400Y-46569400D01*
G75*
G02*
X73504400Y-46467400I0J102000D01*
G01*
X73504400Y-46111800D01*
G75*
G02*
X73606400Y-46009800I102000J0D01*
G01*
X74724000Y-46009800D01*
G75*
G02*
X74826000Y-46111800I0J-102000D01*
G01*
G37*
G36*
G01*
X72895600Y-46111800D02*
X72895600Y-46467400D01*
G75*
G02*
X72793600Y-46569400I-102000J0D01*
G01*
X71676000Y-46569400D01*
G75*
G02*
X71574000Y-46467400I0J102000D01*
G01*
X71574000Y-46111800D01*
G75*
G02*
X71676000Y-46009800I102000J0D01*
G01*
X72793600Y-46009800D01*
G75*
G02*
X72895600Y-46111800I0J-102000D01*
G01*
G37*
G36*
G01*
X72895600Y-47432600D02*
X72895600Y-47788200D01*
G75*
G02*
X72793600Y-47890200I-102000J0D01*
G01*
X71676000Y-47890200D01*
G75*
G02*
X71574000Y-47788200I0J102000D01*
G01*
X71574000Y-47432600D01*
G75*
G02*
X71676000Y-47330600I102000J0D01*
G01*
X72793600Y-47330600D01*
G75*
G02*
X72895600Y-47432600I0J-102000D01*
G01*
G37*
D28*
X135250000Y-31500000D03*
D29*
X135250000Y-36500000D03*
X135250000Y-34000000D03*
D30*
X142750000Y-28400000D03*
X142750000Y-39600000D03*
D29*
X149750000Y-36500000D03*
X149750000Y-31500000D03*
D27*
X98000000Y-116500000D03*
X112000000Y-116500000D03*
X98000000Y-121500000D03*
X112000000Y-121500000D03*
G36*
G01*
X149175000Y-46875000D02*
X149175000Y-45575000D01*
G75*
G02*
X149425000Y-45325000I250000J0D01*
G01*
X150075000Y-45325000D01*
G75*
G02*
X150325000Y-45575000I0J-250000D01*
G01*
X150325000Y-46875000D01*
G75*
G02*
X150075000Y-47125000I-250000J0D01*
G01*
X149425000Y-47125000D01*
G75*
G02*
X149175000Y-46875000I0J250000D01*
G01*
G37*
G36*
G01*
X152125000Y-46875000D02*
X152125000Y-45575000D01*
G75*
G02*
X152375000Y-45325000I250000J0D01*
G01*
X153025000Y-45325000D01*
G75*
G02*
X153275000Y-45575000I0J-250000D01*
G01*
X153275000Y-46875000D01*
G75*
G02*
X153025000Y-47125000I-250000J0D01*
G01*
X152375000Y-47125000D01*
G75*
G02*
X152125000Y-46875000I0J250000D01*
G01*
G37*
G36*
X81946312Y-33285921D02*
G01*
X81214079Y-32553688D01*
X81199200Y-32517767D01*
X81199200Y-31482233D01*
X81214079Y-31446312D01*
X81946312Y-30714079D01*
X81982233Y-30699200D01*
X83017767Y-30699200D01*
X83053688Y-30714079D01*
X83785921Y-31446312D01*
X83800800Y-31482233D01*
X83800800Y-32517767D01*
X83785921Y-32553688D01*
X83053688Y-33285921D01*
X83017767Y-33300800D01*
X81982233Y-33300800D01*
X81946312Y-33285921D01*
G37*
G36*
X91285921Y-32553688D02*
G01*
X90553688Y-33285921D01*
X90517767Y-33300800D01*
X89482233Y-33300800D01*
X89446312Y-33285921D01*
X88714079Y-32553688D01*
X88699200Y-32517767D01*
X88699200Y-31482233D01*
X88714079Y-31446312D01*
X89446312Y-30714079D01*
X89482233Y-30699200D01*
X90517767Y-30699200D01*
X90553688Y-30714079D01*
X91285921Y-31446312D01*
X91300800Y-31482233D01*
X91300800Y-32517767D01*
X91285921Y-32553688D01*
G37*
G36*
X96946312Y-33285921D02*
G01*
X96214079Y-32553688D01*
X96199200Y-32517767D01*
X96199200Y-31482233D01*
X96214079Y-31446312D01*
X96946312Y-30714079D01*
X96982233Y-30699200D01*
X98017767Y-30699200D01*
X98053688Y-30714079D01*
X98785921Y-31446312D01*
X98800800Y-31482233D01*
X98800800Y-32517767D01*
X98785921Y-32553688D01*
X98053688Y-33285921D01*
X98017767Y-33300800D01*
X96982233Y-33300800D01*
X96946312Y-33285921D01*
G37*
G36*
X84446312Y-35785921D02*
G01*
X83714079Y-35053688D01*
X83699200Y-35017767D01*
X83699200Y-33982233D01*
X83714079Y-33946312D01*
X84446312Y-33214079D01*
X84482233Y-33199200D01*
X85517767Y-33199200D01*
X85553688Y-33214079D01*
X86285921Y-33946312D01*
X86300800Y-33982233D01*
X86300800Y-35017767D01*
X86285921Y-35053688D01*
X85553688Y-35785921D01*
X85517767Y-35800800D01*
X84482233Y-35800800D01*
X84446312Y-35785921D01*
G37*
G36*
X94446312Y-35785921D02*
G01*
X93714079Y-35053688D01*
X93699200Y-35017767D01*
X93699200Y-33982233D01*
X93714079Y-33946312D01*
X94446312Y-33214079D01*
X94482233Y-33199200D01*
X95517767Y-33199200D01*
X95553688Y-33214079D01*
X96285921Y-33946312D01*
X96300800Y-33982233D01*
X96300800Y-35017767D01*
X96285921Y-35053688D01*
X95553688Y-35785921D01*
X95517767Y-35800800D01*
X94482233Y-35800800D01*
X94446312Y-35785921D01*
G37*
G36*
X91564079Y-23035921D02*
G01*
X91549200Y-23000000D01*
X91549200Y-21900000D01*
X91564079Y-21864079D01*
X92464079Y-20964079D01*
X92500000Y-20949200D01*
X93400000Y-20949200D01*
X93435921Y-20964079D01*
X93450800Y-21000000D01*
X93450800Y-23000000D01*
X93435921Y-23035921D01*
X93400000Y-23050800D01*
X91600000Y-23050800D01*
X91564079Y-23035921D01*
G37*
G36*
G01*
X95950800Y-21000000D02*
X95950800Y-23000000D01*
G75*
G02*
X95900000Y-23050800I-50800J0D01*
G01*
X94100000Y-23050800D01*
G75*
G02*
X94049200Y-23000000I0J50800D01*
G01*
X94049200Y-21000000D01*
G75*
G02*
X94100000Y-20949200I50800J0D01*
G01*
X95900000Y-20949200D01*
G75*
G02*
X95950800Y-21000000I0J-50800D01*
G01*
G37*
G36*
G01*
X85950800Y-21000000D02*
X85950800Y-23000000D01*
G75*
G02*
X85900000Y-23050800I-50800J0D01*
G01*
X84100000Y-23050800D01*
G75*
G02*
X84049200Y-23000000I0J50800D01*
G01*
X84049200Y-21000000D01*
G75*
G02*
X84100000Y-20949200I50800J0D01*
G01*
X85900000Y-20949200D01*
G75*
G02*
X85950800Y-21000000I0J-50800D01*
G01*
G37*
G36*
X86564079Y-23035921D02*
G01*
X86549200Y-23000000D01*
X86549200Y-21000000D01*
X86564079Y-20964079D01*
X86600000Y-20949200D01*
X87500000Y-20949200D01*
X87535921Y-20964079D01*
X88435921Y-21864079D01*
X88450800Y-21900000D01*
X88450800Y-23000000D01*
X88435921Y-23035921D01*
X88400000Y-23050800D01*
X86600000Y-23050800D01*
X86564079Y-23035921D01*
G37*
G36*
G01*
X133000000Y-46050000D02*
X134300000Y-46050000D01*
G75*
G02*
X134550000Y-46300000I0J-250000D01*
G01*
X134550000Y-48300000D01*
G75*
G02*
X134300000Y-48550000I-250000J0D01*
G01*
X133000000Y-48550000D01*
G75*
G02*
X132750000Y-48300000I0J250000D01*
G01*
X132750000Y-46300000D01*
G75*
G02*
X133000000Y-46050000I250000J0D01*
G01*
G37*
G36*
G01*
X133000000Y-50050000D02*
X134300000Y-50050000D01*
G75*
G02*
X134550000Y-50300000I0J-250000D01*
G01*
X134550000Y-52300000D01*
G75*
G02*
X134300000Y-52550000I-250000J0D01*
G01*
X133000000Y-52550000D01*
G75*
G02*
X132750000Y-52300000I0J250000D01*
G01*
X132750000Y-50300000D01*
G75*
G02*
X133000000Y-50050000I250000J0D01*
G01*
G37*
G36*
G01*
X51475000Y-35918750D02*
X51475000Y-35406250D01*
G75*
G02*
X51693750Y-35187500I218750J0D01*
G01*
X52131250Y-35187500D01*
G75*
G02*
X52350000Y-35406250I0J-218750D01*
G01*
X52350000Y-35918750D01*
G75*
G02*
X52131250Y-36137500I-218750J0D01*
G01*
X51693750Y-36137500D01*
G75*
G02*
X51475000Y-35918750I0J218750D01*
G01*
G37*
G36*
G01*
X53050000Y-35918750D02*
X53050000Y-35406250D01*
G75*
G02*
X53268750Y-35187500I218750J0D01*
G01*
X53706250Y-35187500D01*
G75*
G02*
X53925000Y-35406250I0J-218750D01*
G01*
X53925000Y-35918750D01*
G75*
G02*
X53706250Y-36137500I-218750J0D01*
G01*
X53268750Y-36137500D01*
G75*
G02*
X53050000Y-35918750I0J218750D01*
G01*
G37*
D12*
X94994500Y-29500000D03*
X92494500Y-29500000D03*
D13*
X89994500Y-24500000D03*
D12*
X84994500Y-29500000D03*
X87494500Y-29500000D03*
D24*
X113625000Y-97780000D03*
D25*
X113625000Y-95240000D03*
X113625000Y-92700000D03*
X113625000Y-90160000D03*
D24*
X135075000Y-59850000D03*
D25*
X135075000Y-57310000D03*
D32*
X127000000Y-48000000D03*
D19*
X127000000Y-50000000D03*
D25*
X127130000Y-57890000D03*
X124590000Y-57890000D03*
D24*
X122050000Y-57890000D03*
D25*
X119510000Y-57890000D03*
X116970000Y-57890000D03*
X114430000Y-57890000D03*
X111890000Y-57890000D03*
D24*
X109350000Y-57890000D03*
D25*
X106810000Y-57890000D03*
X104270000Y-57890000D03*
X101730000Y-57890000D03*
X99190000Y-57890000D03*
D24*
X96650000Y-57890000D03*
D25*
X94110000Y-57890000D03*
X91570000Y-57890000D03*
X89030000Y-57890000D03*
X86490000Y-57890000D03*
D24*
X83950000Y-57890000D03*
D25*
X81410000Y-57890000D03*
X78870000Y-57890000D03*
X78870000Y-40110000D03*
X81410000Y-40110000D03*
D24*
X83950000Y-40110000D03*
D25*
X86490000Y-40110000D03*
X89030000Y-40110000D03*
X91570000Y-40110000D03*
X94110000Y-40110000D03*
D24*
X96650000Y-40110000D03*
D25*
X99190000Y-40110000D03*
X101730000Y-40110000D03*
X104270000Y-40110000D03*
X106810000Y-40110000D03*
D24*
X109350000Y-40110000D03*
D25*
X111890000Y-40110000D03*
X114430000Y-40110000D03*
X116970000Y-40110000D03*
X119510000Y-40110000D03*
D24*
X122050000Y-40110000D03*
D25*
X124590000Y-40110000D03*
X127130000Y-40110000D03*
G36*
G01*
X50450000Y-27750000D02*
X50450000Y-29200000D01*
G75*
G02*
X50200000Y-29450000I-250000J0D01*
G01*
X49000000Y-29450000D01*
G75*
G02*
X48750000Y-29200000I0J250000D01*
G01*
X48750000Y-27750000D01*
G75*
G02*
X49000000Y-27500000I250000J0D01*
G01*
X50200000Y-27500000D01*
G75*
G02*
X50450000Y-27750000I0J-250000D01*
G01*
G37*
D33*
X47100000Y-28475000D03*
X44600000Y-28475000D03*
G36*
G01*
X43750000Y-126375000D02*
X43750000Y-127825000D01*
G75*
G02*
X43500000Y-128075000I-250000J0D01*
G01*
X42300000Y-128075000D01*
G75*
G02*
X42050000Y-127825000I0J250000D01*
G01*
X42050000Y-126375000D01*
G75*
G02*
X42300000Y-126125000I250000J0D01*
G01*
X43500000Y-126125000D01*
G75*
G02*
X43750000Y-126375000I0J-250000D01*
G01*
G37*
X40400000Y-127100000D03*
X37900000Y-127100000D03*
D24*
X120250000Y-68375600D03*
D25*
X117710000Y-68375600D03*
X120250000Y-70915600D03*
X117710000Y-70915600D03*
X120250000Y-73455600D03*
X117710000Y-73455600D03*
X120250000Y-75995600D03*
X117710000Y-75995600D03*
X120250000Y-78535600D03*
X117710000Y-78535600D03*
X120250000Y-81075600D03*
X117710000Y-81075600D03*
X120250000Y-83615600D03*
X117710000Y-83615600D03*
X120250000Y-86155600D03*
X117710000Y-86155600D03*
X120250000Y-88695600D03*
X117710000Y-88695600D03*
X120250000Y-91235600D03*
X117710000Y-91235600D03*
X120250000Y-93775600D03*
X117710000Y-93775600D03*
X120250000Y-96315600D03*
X117710000Y-96315600D03*
X120250000Y-98855600D03*
X117710000Y-98855600D03*
X120250000Y-101395600D03*
X117710000Y-101395600D03*
X120250000Y-103935600D03*
X117710000Y-103935600D03*
X120250000Y-106475600D03*
X117710000Y-106475600D03*
X120250000Y-109015600D03*
X117710000Y-109015600D03*
X120250000Y-111555600D03*
X117710000Y-111555600D03*
X120250000Y-114095600D03*
X117710000Y-114095600D03*
X120250000Y-116635600D03*
X117710000Y-116635600D03*
D24*
X156555000Y-74845600D03*
D25*
X154015000Y-74845600D03*
X156555000Y-77385600D03*
X154015000Y-77385600D03*
X156555000Y-79925600D03*
X154015000Y-79925600D03*
D24*
X152380000Y-119150600D03*
D25*
X152380000Y-121690600D03*
X154920000Y-119150600D03*
X154920000Y-121690600D03*
X157460000Y-119150600D03*
X157460000Y-121690600D03*
G36*
G01*
X50450000Y-35500000D02*
X50450000Y-36950000D01*
G75*
G02*
X50200000Y-37200000I-250000J0D01*
G01*
X49000000Y-37200000D01*
G75*
G02*
X48750000Y-36950000I0J250000D01*
G01*
X48750000Y-35500000D01*
G75*
G02*
X49000000Y-35250000I250000J0D01*
G01*
X50200000Y-35250000D01*
G75*
G02*
X50450000Y-35500000I0J-250000D01*
G01*
G37*
D33*
X47100000Y-36225000D03*
X44600000Y-36225000D03*
M02*
