<?xml version="1.0" standalone="no"?>
 <!DOCTYPE svg PUBLIC "-//W3C//DTD SVG 1.1//EN" 
 "http://www.w3.org/Graphics/SVG/1.1/DTD/svg11.dtd"> 
<svg
  xmlns:svg="http://www.w3.org/2000/svg"
  xmlns="http://www.w3.org/2000/svg"
  xmlns:xlink="http://www.w3.org/1999/xlink"
  version="1.1"
  width="297.0022mm" height="210.0072mm" viewBox="0.0000 0.0000 297.0022 210.0072">
<title>SVG Image created as pedalboard-hw-B_Fab.svg date 2023/09/10 13:05:17 </title>
  <desc>Image generated by PCBNEW </desc>
<g style="fill:#000000; fill-opacity:1.0000;stroke:#000000; stroke-opacity:1.0000;
stroke-linecap:round; stroke-linejoin:round;"
 transform="translate(0 0) scale(1 1)">
</g>
<g style="fill:#000000; fill-opacity:0.0; 
stroke:#000000; stroke-width:0.0000; stroke-opacity:1; 
stroke-linecap:round; stroke-linejoin:round;">
</g>
<g style="fill:#000000; fill-opacity:0.0; 
stroke:#000000; stroke-width:0.1500; stroke-opacity:1; 
stroke-linecap:round; stroke-linejoin:round;">
<text x="113.6250" y="88.3300"
transform="scale(-1 1) translate(-227.250000 0)"
textLength="4.8690" font-size="1.3333" lengthAdjust="spacingAndGlyphs"
text-anchor="middle" opacity="0">USB_A</text>
<g class="stroked-text"><desc>USB_A</desc>
<path d="M115.6964 87.2848
L115.6964 88.0943
" />
<path d="M115.6964 88.0943
L115.6488 88.1896
" />
<path d="M115.6488 88.1896
L115.6012 88.2372
" />
<path d="M115.6012 88.2372
L115.5060 88.2848
" />
<path d="M115.5060 88.2848
L115.3155 88.2848
" />
<path d="M115.3155 88.2848
L115.2202 88.2372
" />
<path d="M115.2202 88.2372
L115.1726 88.1896
" />
<path d="M115.1726 88.1896
L115.1250 88.0943
" />
<path d="M115.1250 88.0943
L115.1250 87.2848
" />
<path d="M114.6964 88.2372
L114.5536 88.2848
" />
<path d="M114.5536 88.2848
L114.3155 88.2848
" />
<path d="M114.3155 88.2848
L114.2202 88.2372
" />
<path d="M114.2202 88.2372
L114.1726 88.1896
" />
<path d="M114.1726 88.1896
L114.1250 88.0943
" />
<path d="M114.1250 88.0943
L114.1250 87.9991
" />
<path d="M114.1250 87.9991
L114.1726 87.9039
" />
<path d="M114.1726 87.9039
L114.2202 87.8562
" />
<path d="M114.2202 87.8562
L114.3155 87.8086
" />
<path d="M114.3155 87.8086
L114.5060 87.7610
" />
<path d="M114.5060 87.7610
L114.6012 87.7134
" />
<path d="M114.6012 87.7134
L114.6488 87.6658
" />
<path d="M114.6488 87.6658
L114.6964 87.5705
" />
<path d="M114.6964 87.5705
L114.6964 87.4753
" />
<path d="M114.6964 87.4753
L114.6488 87.3801
" />
<path d="M114.6488 87.3801
L114.6012 87.3324
" />
<path d="M114.6012 87.3324
L114.5060 87.2848
" />
<path d="M114.5060 87.2848
L114.2679 87.2848
" />
<path d="M114.2679 87.2848
L114.1250 87.3324
" />
<path d="M113.3631 87.7610
L113.2202 87.8086
" />
<path d="M113.2202 87.8086
L113.1726 87.8562
" />
<path d="M113.1726 87.8562
L113.1250 87.9515
" />
<path d="M113.1250 87.9515
L113.1250 88.0943
" />
<path d="M113.1250 88.0943
L113.1726 88.1896
" />
<path d="M113.1726 88.1896
L113.2202 88.2372
" />
<path d="M113.2202 88.2372
L113.3155 88.2848
" />
<path d="M113.3155 88.2848
L113.6964 88.2848
" />
<path d="M113.6964 88.2848
L113.6964 87.2848
" />
<path d="M113.6964 87.2848
L113.3631 87.2848
" />
<path d="M113.3631 87.2848
L113.2679 87.3324
" />
<path d="M113.2679 87.3324
L113.2202 87.3801
" />
<path d="M113.2202 87.3801
L113.1726 87.4753
" />
<path d="M113.1726 87.4753
L113.1726 87.5705
" />
<path d="M113.1726 87.5705
L113.2202 87.6658
" />
<path d="M113.2202 87.6658
L113.2679 87.7134
" />
<path d="M113.2679 87.7134
L113.3631 87.7610
" />
<path d="M113.3631 87.7610
L113.6964 87.7610
" />
<path d="M112.9345 88.3801
L112.1726 88.3801
" />
<path d="M111.9821 87.9991
L111.5060 87.9991
" />
<path d="M112.0774 88.2848
L111.7440 87.2848
" />
<path d="M111.7440 87.2848
L111.4107 88.2848
" />
</g><g transform="rotate(-90.000000 113.6250 93.9700)">
<text x="113.6250" y="94.4700"
transform="scale(-1 1) translate(-227.250000 0)"
textLength="1.9643" font-size="1.3333" lengthAdjust="spacingAndGlyphs"
text-anchor="middle" opacity="0">J6</text>
</g>
<g class="stroked-text"><desc>J6</desc>
<path d="M113.0798 93.6367
L113.7941 93.6367
" />
<path d="M113.7941 93.6367
L113.9370 93.5890
" />
<path d="M113.9370 93.5890
L114.0322 93.4938
" />
<path d="M114.0322 93.4938
L114.0798 93.3510
" />
<path d="M114.0798 93.3510
L114.0798 93.2557
" />
<path d="M113.0798 94.5414
L113.0798 94.3510
" />
<path d="M113.0798 94.3510
L113.1274 94.2557
" />
<path d="M113.1274 94.2557
L113.1751 94.2081
" />
<path d="M113.1751 94.2081
L113.3179 94.1129
" />
<path d="M113.3179 94.1129
L113.5084 94.0652
" />
<path d="M113.5084 94.0652
L113.8893 94.0652
" />
<path d="M113.8893 94.0652
L113.9846 94.1129
" />
<path d="M113.9846 94.1129
L114.0322 94.1605
" />
<path d="M114.0322 94.1605
L114.0798 94.2557
" />
<path d="M114.0798 94.2557
L114.0798 94.4462
" />
<path d="M114.0798 94.4462
L114.0322 94.5414
" />
<path d="M114.0322 94.5414
L113.9846 94.5890
" />
<path d="M113.9846 94.5890
L113.8893 94.6367
" />
<path d="M113.8893 94.6367
L113.6512 94.6367
" />
<path d="M113.6512 94.6367
L113.5560 94.5890
" />
<path d="M113.5560 94.5890
L113.5084 94.5414
" />
<path d="M113.5084 94.5414
L113.4608 94.4462
" />
<path d="M113.4608 94.4462
L113.4608 94.2557
" />
<path d="M113.4608 94.2557
L113.5084 94.1605
" />
<path d="M113.5084 94.1605
L113.5560 94.1129
" />
<path d="M113.5560 94.1129
L113.6512 94.0652
" />
</g><g transform="rotate(-270.000000 81.4600 74.6000)">
<text x="81.4600" y="75.1000"
transform="scale(-1 1) translate(-162.920000 0)"
textLength="0.9643" font-size="1.3333" lengthAdjust="spacingAndGlyphs"
text-anchor="middle" opacity="0">~</text>
</g>
<g class="stroked-text"><desc>~</desc>
<path d="M81.3861 74.8619
L81.4338 74.8143
" />
<path d="M81.4338 74.8143
L81.4814 74.7190
" />
<path d="M81.4814 74.7190
L81.3861 74.5286
" />
<path d="M81.3861 74.5286
L81.4338 74.4333
" />
<path d="M81.4338 74.4333
L81.4814 74.3857
" />
</g><g transform="rotate(-270.000000 79.9600 74.6000)">
<text x="79.9600" y="75.1000"
transform="scale(-1 1) translate(-159.920000 0)"
textLength="2.0595" font-size="1.3333" lengthAdjust="spacingAndGlyphs"
text-anchor="middle" opacity="0">F3</text>
</g>
<g class="stroked-text"><desc>F3</desc>
<path d="M80.0290 74.9333
L80.0290 75.2667
" />
<path d="M79.5052 75.2667
L80.5052 75.2667
" />
<path d="M80.5052 75.2667
L80.5052 74.7905
" />
<path d="M80.5052 74.5048
L80.5052 73.8857
" />
<path d="M80.5052 73.8857
L80.1242 74.2190
" />
<path d="M80.1242 74.2190
L80.1242 74.0762
" />
<path d="M80.1242 74.0762
L80.0766 73.9810
" />
<path d="M80.0766 73.9810
L80.0290 73.9333
" />
<path d="M80.0290 73.9333
L79.9338 73.8857
" />
<path d="M79.9338 73.8857
L79.6957 73.8857
" />
<path d="M79.6957 73.8857
L79.6004 73.9333
" />
<path d="M79.6004 73.9333
L79.5528 73.9810
" />
<path d="M79.5528 73.9810
L79.5052 74.0762
" />
<path d="M79.5052 74.0762
L79.5052 74.3619
" />
<path d="M79.5052 74.3619
L79.5528 74.4571
" />
<path d="M79.5528 74.4571
L79.6004 74.5048
" />
</g><g transform="rotate(-90.000000 133.1900 52.7900)">
<text x="133.1900" y="53.2900"
transform="scale(-1 1) translate(-266.380000 0)"
textLength="9.3452" font-size="1.3333" lengthAdjust="spacingAndGlyphs"
text-anchor="middle" opacity="0">Conn_02x01</text>
</g>
<g class="stroked-text"><desc>Conn_02x01</desc>
<path d="M133.5496 49.0519
L133.5972 49.0043
" />
<path d="M133.5972 49.0043
L133.6448 48.8614
" />
<path d="M133.6448 48.8614
L133.6448 48.7662
" />
<path d="M133.6448 48.7662
L133.5972 48.6233
" />
<path d="M133.5972 48.6233
L133.5020 48.5281
" />
<path d="M133.5020 48.5281
L133.4067 48.4805
" />
<path d="M133.4067 48.4805
L133.2162 48.4329
" />
<path d="M133.2162 48.4329
L133.0734 48.4329
" />
<path d="M133.0734 48.4329
L132.8829 48.4805
" />
<path d="M132.8829 48.4805
L132.7877 48.5281
" />
<path d="M132.7877 48.5281
L132.6924 48.6233
" />
<path d="M132.6924 48.6233
L132.6448 48.7662
" />
<path d="M132.6448 48.7662
L132.6448 48.8614
" />
<path d="M132.6448 48.8614
L132.6924 49.0043
" />
<path d="M132.6924 49.0043
L132.7401 49.0519
" />
<path d="M133.6448 49.6233
L133.5972 49.5281
" />
<path d="M133.5972 49.5281
L133.5496 49.4805
" />
<path d="M133.5496 49.4805
L133.4543 49.4329
" />
<path d="M133.4543 49.4329
L133.1686 49.4329
" />
<path d="M133.1686 49.4329
L133.0734 49.4805
" />
<path d="M133.0734 49.4805
L133.0258 49.5281
" />
<path d="M133.0258 49.5281
L132.9782 49.6233
" />
<path d="M132.9782 49.6233
L132.9782 49.7662
" />
<path d="M132.9782 49.7662
L133.0258 49.8614
" />
<path d="M133.0258 49.8614
L133.0734 49.9090
" />
<path d="M133.0734 49.9090
L133.1686 49.9567
" />
<path d="M133.1686 49.9567
L133.4543 49.9567
" />
<path d="M133.4543 49.9567
L133.5496 49.9090
" />
<path d="M133.5496 49.9090
L133.5972 49.8614
" />
<path d="M133.5972 49.8614
L133.6448 49.7662
" />
<path d="M133.6448 49.7662
L133.6448 49.6233
" />
<path d="M132.9782 50.3852
L133.6448 50.3852
" />
<path d="M133.0734 50.3852
L133.0258 50.4329
" />
<path d="M133.0258 50.4329
L132.9782 50.5281
" />
<path d="M132.9782 50.5281
L132.9782 50.6710
" />
<path d="M132.9782 50.6710
L133.0258 50.7662
" />
<path d="M133.0258 50.7662
L133.1210 50.8138
" />
<path d="M133.1210 50.8138
L133.6448 50.8138
" />
<path d="M132.9782 51.2900
L133.6448 51.2900
" />
<path d="M133.0734 51.2900
L133.0258 51.3376
" />
<path d="M133.0258 51.3376
L132.9782 51.4329
" />
<path d="M132.9782 51.4329
L132.9782 51.5757
" />
<path d="M132.9782 51.5757
L133.0258 51.6710
" />
<path d="M133.0258 51.6710
L133.1210 51.7186
" />
<path d="M133.1210 51.7186
L133.6448 51.7186
" />
<path d="M133.7401 51.9567
L133.7401 52.7186
" />
<path d="M132.6448 53.1471
L132.6448 53.2424
" />
<path d="M132.6448 53.2424
L132.6924 53.3376
" />
<path d="M132.6924 53.3376
L132.7401 53.3852
" />
<path d="M132.7401 53.3852
L132.8353 53.4329
" />
<path d="M132.8353 53.4329
L133.0258 53.4805
" />
<path d="M133.0258 53.4805
L133.2639 53.4805
" />
<path d="M133.2639 53.4805
L133.4543 53.4329
" />
<path d="M133.4543 53.4329
L133.5496 53.3852
" />
<path d="M133.5496 53.3852
L133.5972 53.3376
" />
<path d="M133.5972 53.3376
L133.6448 53.2424
" />
<path d="M133.6448 53.2424
L133.6448 53.1471
" />
<path d="M133.6448 53.1471
L133.5972 53.0519
" />
<path d="M133.5972 53.0519
L133.5496 53.0043
" />
<path d="M133.5496 53.0043
L133.4543 52.9567
" />
<path d="M133.4543 52.9567
L133.2639 52.9090
" />
<path d="M133.2639 52.9090
L133.0258 52.9090
" />
<path d="M133.0258 52.9090
L132.8353 52.9567
" />
<path d="M132.8353 52.9567
L132.7401 53.0043
" />
<path d="M132.7401 53.0043
L132.6924 53.0519
" />
<path d="M132.6924 53.0519
L132.6448 53.1471
" />
<path d="M132.7401 53.8614
L132.6924 53.9090
" />
<path d="M132.6924 53.9090
L132.6448 54.0043
" />
<path d="M132.6448 54.0043
L132.6448 54.2424
" />
<path d="M132.6448 54.2424
L132.6924 54.3376
" />
<path d="M132.6924 54.3376
L132.7401 54.3852
" />
<path d="M132.7401 54.3852
L132.8353 54.4329
" />
<path d="M132.8353 54.4329
L132.9305 54.4329
" />
<path d="M132.9305 54.4329
L133.0734 54.3852
" />
<path d="M133.0734 54.3852
L133.6448 53.8138
" />
<path d="M133.6448 53.8138
L133.6448 54.4329
" />
<path d="M133.6448 54.7662
L132.9782 55.2900
" />
<path d="M132.9782 54.7662
L133.6448 55.2900
" />
<path d="M132.6448 55.8614
L132.6448 55.9567
" />
<path d="M132.6448 55.9567
L132.6924 56.0519
" />
<path d="M132.6924 56.0519
L132.7401 56.0995
" />
<path d="M132.7401 56.0995
L132.8353 56.1471
" />
<path d="M132.8353 56.1471
L133.0258 56.1948
" />
<path d="M133.0258 56.1948
L133.2639 56.1948
" />
<path d="M133.2639 56.1948
L133.4543 56.1471
" />
<path d="M133.4543 56.1471
L133.5496 56.0995
" />
<path d="M133.5496 56.0995
L133.5972 56.0519
" />
<path d="M133.5972 56.0519
L133.6448 55.9567
" />
<path d="M133.6448 55.9567
L133.6448 55.8614
" />
<path d="M133.6448 55.8614
L133.5972 55.7662
" />
<path d="M133.5972 55.7662
L133.5496 55.7186
" />
<path d="M133.5496 55.7186
L133.4543 55.6710
" />
<path d="M133.4543 55.6710
L133.2639 55.6233
" />
<path d="M133.2639 55.6233
L133.0258 55.6233
" />
<path d="M133.0258 55.6233
L132.8353 55.6710
" />
<path d="M132.8353 55.6710
L132.7401 55.7186
" />
<path d="M132.7401 55.7186
L132.6924 55.7662
" />
<path d="M132.6924 55.7662
L132.6448 55.8614
" />
<path d="M133.6448 57.1471
L133.6448 56.5757
" />
<path d="M133.6448 56.8614
L132.6448 56.8614
" />
<path d="M132.6448 56.8614
L132.7877 56.7662
" />
<path d="M132.7877 56.7662
L132.8829 56.6710
" />
<path d="M132.8829 56.6710
L132.9305 56.5757
" />
</g><text x="136.7300" y="54.9050"
transform="scale(-1 1) translate(-273.460000 0)"
textLength="2.9167" font-size="1.3333" lengthAdjust="spacingAndGlyphs"
text-anchor="middle" opacity="0">J14</text>
<g class="stroked-text"><desc>J14</desc>
<path d="M137.5395 53.8598
L137.5395 54.5741
" />
<path d="M137.5395 54.5741
L137.5871 54.7170
" />
<path d="M137.5871 54.7170
L137.6824 54.8122
" />
<path d="M137.6824 54.8122
L137.8252 54.8598
" />
<path d="M137.8252 54.8598
L137.9205 54.8598
" />
<path d="M136.5395 54.8598
L137.1110 54.8598
" />
<path d="M136.8252 54.8598
L136.8252 53.8598
" />
<path d="M136.8252 53.8598
L136.9205 54.0027
" />
<path d="M136.9205 54.0027
L137.0157 54.0979
" />
<path d="M137.0157 54.0979
L137.1110 54.1455
" />
<path d="M135.6824 54.1932
L135.6824 54.8598
" />
<path d="M135.9205 53.8122
L136.1586 54.5265
" />
<path d="M136.1586 54.5265
L135.5395 54.5265
" />
</g><text x="126.9492" y="56.7296"
transform="scale(-1 1) translate(-253.898400 0)"
textLength="9.7738" font-size="1.3333" lengthAdjust="spacingAndGlyphs"
text-anchor="middle" opacity="0">Pico USB TP</text>
<g class="stroked-text"><desc>Pico USB TP</desc>
<path d="M131.4730 56.6844
L131.4730 55.6844
" />
<path d="M131.4730 55.6844
L131.0921 55.6844
" />
<path d="M131.0921 55.6844
L130.9968 55.7320
" />
<path d="M130.9968 55.7320
L130.9492 55.7797
" />
<path d="M130.9492 55.7797
L130.9016 55.8749
" />
<path d="M130.9016 55.8749
L130.9016 56.0178
" />
<path d="M130.9016 56.0178
L130.9492 56.1130
" />
<path d="M130.9492 56.1130
L130.9968 56.1606
" />
<path d="M130.9968 56.1606
L131.0921 56.2082
" />
<path d="M131.0921 56.2082
L131.4730 56.2082
" />
<path d="M130.4730 56.6844
L130.4730 56.0178
" />
<path d="M130.4730 55.6844
L130.5206 55.7320
" />
<path d="M130.5206 55.7320
L130.4730 55.7797
" />
<path d="M130.4730 55.7797
L130.4254 55.7320
" />
<path d="M130.4254 55.7320
L130.4730 55.6844
" />
<path d="M130.4730 55.6844
L130.4730 55.7797
" />
<path d="M129.5682 56.6368
L129.6635 56.6844
" />
<path d="M129.6635 56.6844
L129.8540 56.6844
" />
<path d="M129.8540 56.6844
L129.9492 56.6368
" />
<path d="M129.9492 56.6368
L129.9968 56.5892
" />
<path d="M129.9968 56.5892
L130.0444 56.4939
" />
<path d="M130.0444 56.4939
L130.0444 56.2082
" />
<path d="M130.0444 56.2082
L129.9968 56.1130
" />
<path d="M129.9968 56.1130
L129.9492 56.0654
" />
<path d="M129.9492 56.0654
L129.8540 56.0178
" />
<path d="M129.8540 56.0178
L129.6635 56.0178
" />
<path d="M129.6635 56.0178
L129.5682 56.0654
" />
<path d="M128.9968 56.6844
L129.0921 56.6368
" />
<path d="M129.0921 56.6368
L129.1397 56.5892
" />
<path d="M129.1397 56.5892
L129.1873 56.4939
" />
<path d="M129.1873 56.4939
L129.1873 56.2082
" />
<path d="M129.1873 56.2082
L129.1397 56.1130
" />
<path d="M129.1397 56.1130
L129.0921 56.0654
" />
<path d="M129.0921 56.0654
L128.9968 56.0178
" />
<path d="M128.9968 56.0178
L128.8540 56.0178
" />
<path d="M128.8540 56.0178
L128.7587 56.0654
" />
<path d="M128.7587 56.0654
L128.7111 56.1130
" />
<path d="M128.7111 56.1130
L128.6635 56.2082
" />
<path d="M128.6635 56.2082
L128.6635 56.4939
" />
<path d="M128.6635 56.4939
L128.7111 56.5892
" />
<path d="M128.7111 56.5892
L128.7587 56.6368
" />
<path d="M128.7587 56.6368
L128.8540 56.6844
" />
<path d="M128.8540 56.6844
L128.9968 56.6844
" />
<path d="M127.4730 55.6844
L127.4730 56.4939
" />
<path d="M127.4730 56.4939
L127.4254 56.5892
" />
<path d="M127.4254 56.5892
L127.3778 56.6368
" />
<path d="M127.3778 56.6368
L127.2825 56.6844
" />
<path d="M127.2825 56.6844
L127.0921 56.6844
" />
<path d="M127.0921 56.6844
L126.9968 56.6368
" />
<path d="M126.9968 56.6368
L126.9492 56.5892
" />
<path d="M126.9492 56.5892
L126.9016 56.4939
" />
<path d="M126.9016 56.4939
L126.9016 55.6844
" />
<path d="M126.4730 56.6368
L126.3302 56.6844
" />
<path d="M126.3302 56.6844
L126.0921 56.6844
" />
<path d="M126.0921 56.6844
L125.9968 56.6368
" />
<path d="M125.9968 56.6368
L125.9492 56.5892
" />
<path d="M125.9492 56.5892
L125.9016 56.4939
" />
<path d="M125.9016 56.4939
L125.9016 56.3987
" />
<path d="M125.9016 56.3987
L125.9492 56.3035
" />
<path d="M125.9492 56.3035
L125.9968 56.2558
" />
<path d="M125.9968 56.2558
L126.0921 56.2082
" />
<path d="M126.0921 56.2082
L126.2825 56.1606
" />
<path d="M126.2825 56.1606
L126.3778 56.1130
" />
<path d="M126.3778 56.1130
L126.4254 56.0654
" />
<path d="M126.4254 56.0654
L126.4730 55.9701
" />
<path d="M126.4730 55.9701
L126.4730 55.8749
" />
<path d="M126.4730 55.8749
L126.4254 55.7797
" />
<path d="M126.4254 55.7797
L126.3778 55.7320
" />
<path d="M126.3778 55.7320
L126.2825 55.6844
" />
<path d="M126.2825 55.6844
L126.0444 55.6844
" />
<path d="M126.0444 55.6844
L125.9016 55.7320
" />
<path d="M125.1397 56.1606
L124.9968 56.2082
" />
<path d="M124.9968 56.2082
L124.9492 56.2558
" />
<path d="M124.9492 56.2558
L124.9016 56.3511
" />
<path d="M124.9016 56.3511
L124.9016 56.4939
" />
<path d="M124.9016 56.4939
L124.9492 56.5892
" />
<path d="M124.9492 56.5892
L124.9968 56.6368
" />
<path d="M124.9968 56.6368
L125.0921 56.6844
" />
<path d="M125.0921 56.6844
L125.4730 56.6844
" />
<path d="M125.4730 56.6844
L125.4730 55.6844
" />
<path d="M125.4730 55.6844
L125.1397 55.6844
" />
<path d="M125.1397 55.6844
L125.0444 55.7320
" />
<path d="M125.0444 55.7320
L124.9968 55.7797
" />
<path d="M124.9968 55.7797
L124.9492 55.8749
" />
<path d="M124.9492 55.8749
L124.9492 55.9701
" />
<path d="M124.9492 55.9701
L124.9968 56.0654
" />
<path d="M124.9968 56.0654
L125.0444 56.1130
" />
<path d="M125.0444 56.1130
L125.1397 56.1606
" />
<path d="M125.1397 56.1606
L125.4730 56.1606
" />
<path d="M123.8540 55.6844
L123.2825 55.6844
" />
<path d="M123.5682 56.6844
L123.5682 55.6844
" />
<path d="M122.9492 56.6844
L122.9492 55.6844
" />
<path d="M122.9492 55.6844
L122.5682 55.6844
" />
<path d="M122.5682 55.6844
L122.4730 55.7320
" />
<path d="M122.4730 55.7320
L122.4254 55.7797
" />
<path d="M122.4254 55.7797
L122.3778 55.8749
" />
<path d="M122.3778 55.8749
L122.3778 56.0178
" />
<path d="M122.3778 56.0178
L122.4254 56.1130
" />
<path d="M122.4254 56.1130
L122.4730 56.1606
" />
<path d="M122.4730 56.1606
L122.5682 56.2082
" />
<path d="M122.5682 56.2082
L122.9492 56.2082
" />
</g><g transform="rotate(-90.000000 127.0000 49.0000)">
<text x="127.0000" y="49.5000"
transform="scale(-1 1) translate(-254.000000 0)"
textLength="1.9643" font-size="1.3333" lengthAdjust="spacingAndGlyphs"
text-anchor="middle" opacity="0">J5</text>
</g>
<g class="stroked-text"><desc>J5</desc>
<path d="M126.4548 48.6667
L127.1691 48.6667
" />
<path d="M127.1691 48.6667
L127.3120 48.6190
" />
<path d="M127.3120 48.6190
L127.4072 48.5238
" />
<path d="M127.4072 48.5238
L127.4548 48.3810
" />
<path d="M127.4548 48.3810
L127.4548 48.2857
" />
<path d="M126.4548 49.6190
L126.4548 49.1429
" />
<path d="M126.4548 49.1429
L126.9310 49.0952
" />
<path d="M126.9310 49.0952
L126.8834 49.1429
" />
<path d="M126.8834 49.1429
L126.8358 49.2381
" />
<path d="M126.8358 49.2381
L126.8358 49.4762
" />
<path d="M126.8358 49.4762
L126.8834 49.5714
" />
<path d="M126.8834 49.5714
L126.9310 49.6190
" />
<path d="M126.9310 49.6190
L127.0262 49.6667
" />
<path d="M127.0262 49.6667
L127.2643 49.6667
" />
<path d="M127.2643 49.6667
L127.3596 49.6190
" />
<path d="M127.3596 49.6190
L127.4072 49.5714
" />
<path d="M127.4072 49.5714
L127.4548 49.4762
" />
<path d="M127.4548 49.4762
L127.4548 49.2381
" />
<path d="M127.4548 49.2381
L127.4072 49.1429
" />
<path d="M127.4072 49.1429
L127.3596 49.0952
" />
</g><g transform="rotate(-90.000000 100.8410 49.0000)">
<text x="100.8410" y="49.5000"
transform="scale(-1 1) translate(-201.682000 0)"
textLength="3.4881" font-size="1.3333" lengthAdjust="spacingAndGlyphs"
text-anchor="middle" opacity="0">Pico</text>
</g>
<g class="stroked-text"><desc>Pico</desc>
<path d="M101.2958 47.6190
L100.2958 47.6190
" />
<path d="M100.2958 47.6190
L100.2958 48.0000
" />
<path d="M100.2958 48.0000
L100.3434 48.0952
" />
<path d="M100.3434 48.0952
L100.3911 48.1429
" />
<path d="M100.3911 48.1429
L100.4863 48.1905
" />
<path d="M100.4863 48.1905
L100.6292 48.1905
" />
<path d="M100.6292 48.1905
L100.7244 48.1429
" />
<path d="M100.7244 48.1429
L100.7720 48.0952
" />
<path d="M100.7720 48.0952
L100.8196 48.0000
" />
<path d="M100.8196 48.0000
L100.8196 47.6190
" />
<path d="M101.2958 48.6190
L100.6292 48.6190
" />
<path d="M100.2958 48.6190
L100.3434 48.5714
" />
<path d="M100.3434 48.5714
L100.3911 48.6190
" />
<path d="M100.3911 48.6190
L100.3434 48.6667
" />
<path d="M100.3434 48.6667
L100.2958 48.6190
" />
<path d="M100.2958 48.6190
L100.3911 48.6190
" />
<path d="M101.2482 49.5238
L101.2958 49.4286
" />
<path d="M101.2958 49.4286
L101.2958 49.2381
" />
<path d="M101.2958 49.2381
L101.2482 49.1429
" />
<path d="M101.2482 49.1429
L101.2006 49.0952
" />
<path d="M101.2006 49.0952
L101.1053 49.0476
" />
<path d="M101.1053 49.0476
L100.8196 49.0476
" />
<path d="M100.8196 49.0476
L100.7244 49.0952
" />
<path d="M100.7244 49.0952
L100.6768 49.1429
" />
<path d="M100.6768 49.1429
L100.6292 49.2381
" />
<path d="M100.6292 49.2381
L100.6292 49.4286
" />
<path d="M100.6292 49.4286
L100.6768 49.5238
" />
<path d="M101.2958 50.0952
L101.2482 50.0000
" />
<path d="M101.2482 50.0000
L101.2006 49.9524
" />
<path d="M101.2006 49.9524
L101.1053 49.9048
" />
<path d="M101.1053 49.9048
L100.8196 49.9048
" />
<path d="M100.8196 49.9048
L100.7244 49.9524
" />
<path d="M100.7244 49.9524
L100.6768 50.0000
" />
<path d="M100.6768 50.0000
L100.6292 50.0952
" />
<path d="M100.6292 50.0952
L100.6292 50.2381
" />
<path d="M100.6292 50.2381
L100.6768 50.3333
" />
<path d="M100.6768 50.3333
L100.7244 50.3810
" />
<path d="M100.7244 50.3810
L100.8196 50.4286
" />
<path d="M100.8196 50.4286
L101.1053 50.4286
" />
<path d="M101.1053 50.4286
L101.2006 50.3810
" />
<path d="M101.2006 50.3810
L101.2482 50.3333
" />
<path d="M101.2482 50.3333
L101.2958 50.2381
" />
<path d="M101.2958 50.2381
L101.2958 50.0952
" />
</g><g transform="rotate(-90.000000 103.0000 49.0000)">
<text x="103.0000" y="49.5000"
transform="scale(-1 1) translate(-206.000000 0)"
textLength="2.2500" font-size="1.3333" lengthAdjust="spacingAndGlyphs"
text-anchor="middle" opacity="0">U1</text>
</g>
<g class="stroked-text"><desc>U1</desc>
<path d="M102.4548 48.2381
L103.2643 48.2381
" />
<path d="M103.2643 48.2381
L103.3596 48.2857
" />
<path d="M103.3596 48.2857
L103.4072 48.3333
" />
<path d="M103.4072 48.3333
L103.4548 48.4286
" />
<path d="M103.4548 48.4286
L103.4548 48.6190
" />
<path d="M103.4548 48.6190
L103.4072 48.7143
" />
<path d="M103.4072 48.7143
L103.3596 48.7619
" />
<path d="M103.3596 48.7619
L103.2643 48.8095
" />
<path d="M103.2643 48.8095
L102.4548 48.8095
" />
<path d="M103.4548 49.8095
L103.4548 49.2381
" />
<path d="M103.4548 49.5238
L102.4548 49.5238
" />
<path d="M102.4548 49.5238
L102.5977 49.4286
" />
<path d="M102.5977 49.4286
L102.6929 49.3333
" />
<path d="M102.6929 49.3333
L102.7405 49.2381
" />
</g><text x="53.9400" y="71.9976"
transform="scale(-1 1) translate(-107.880000 0)"
textLength="10.1071" font-size="1.3333" lengthAdjust="spacingAndGlyphs"
text-anchor="middle" opacity="0">RGB_LED_EXT</text>
<g class="stroked-text"><desc>RGB_LED_EXT</desc>
<path d="M58.0590 71.9524
L58.3924 71.4762
" />
<path d="M58.6305 71.9524
L58.6305 70.9524
" />
<path d="M58.6305 70.9524
L58.2495 70.9524
" />
<path d="M58.2495 70.9524
L58.1543 71.0000
" />
<path d="M58.1543 71.0000
L58.1067 71.0477
" />
<path d="M58.1067 71.0477
L58.0590 71.1429
" />
<path d="M58.0590 71.1429
L58.0590 71.2858
" />
<path d="M58.0590 71.2858
L58.1067 71.3810
" />
<path d="M58.1067 71.3810
L58.1543 71.4286
" />
<path d="M58.1543 71.4286
L58.2495 71.4762
" />
<path d="M58.2495 71.4762
L58.6305 71.4762
" />
<path d="M57.1067 71.0000
L57.2019 70.9524
" />
<path d="M57.2019 70.9524
L57.3448 70.9524
" />
<path d="M57.3448 70.9524
L57.4876 71.0000
" />
<path d="M57.4876 71.0000
L57.5829 71.0953
" />
<path d="M57.5829 71.0953
L57.6305 71.1905
" />
<path d="M57.6305 71.1905
L57.6781 71.3810
" />
<path d="M57.6781 71.3810
L57.6781 71.5238
" />
<path d="M57.6781 71.5238
L57.6305 71.7143
" />
<path d="M57.6305 71.7143
L57.5829 71.8096
" />
<path d="M57.5829 71.8096
L57.4876 71.9048
" />
<path d="M57.4876 71.9048
L57.3448 71.9524
" />
<path d="M57.3448 71.9524
L57.2495 71.9524
" />
<path d="M57.2495 71.9524
L57.1067 71.9048
" />
<path d="M57.1067 71.9048
L57.0590 71.8572
" />
<path d="M57.0590 71.8572
L57.0590 71.5238
" />
<path d="M57.0590 71.5238
L57.2495 71.5238
" />
<path d="M56.2971 71.4286
L56.1543 71.4762
" />
<path d="M56.1543 71.4762
L56.1067 71.5238
" />
<path d="M56.1067 71.5238
L56.0590 71.6191
" />
<path d="M56.0590 71.6191
L56.0590 71.7619
" />
<path d="M56.0590 71.7619
L56.1067 71.8572
" />
<path d="M56.1067 71.8572
L56.1543 71.9048
" />
<path d="M56.1543 71.9048
L56.2495 71.9524
" />
<path d="M56.2495 71.9524
L56.6305 71.9524
" />
<path d="M56.6305 71.9524
L56.6305 70.9524
" />
<path d="M56.6305 70.9524
L56.2971 70.9524
" />
<path d="M56.2971 70.9524
L56.2019 71.0000
" />
<path d="M56.2019 71.0000
L56.1543 71.0477
" />
<path d="M56.1543 71.0477
L56.1067 71.1429
" />
<path d="M56.1067 71.1429
L56.1067 71.2381
" />
<path d="M56.1067 71.2381
L56.1543 71.3334
" />
<path d="M56.1543 71.3334
L56.2019 71.3810
" />
<path d="M56.2019 71.3810
L56.2971 71.4286
" />
<path d="M56.2971 71.4286
L56.6305 71.4286
" />
<path d="M55.8686 72.0477
L55.1067 72.0477
" />
<path d="M54.3924 71.9524
L54.8686 71.9524
" />
<path d="M54.8686 71.9524
L54.8686 70.9524
" />
<path d="M54.0590 71.4286
L53.7257 71.4286
" />
<path d="M53.5829 71.9524
L54.0590 71.9524
" />
<path d="M54.0590 71.9524
L54.0590 70.9524
" />
<path d="M54.0590 70.9524
L53.5829 70.9524
" />
<path d="M53.1543 71.9524
L53.1543 70.9524
" />
<path d="M53.1543 70.9524
L52.9162 70.9524
" />
<path d="M52.9162 70.9524
L52.7733 71.0000
" />
<path d="M52.7733 71.0000
L52.6781 71.0953
" />
<path d="M52.6781 71.0953
L52.6305 71.1905
" />
<path d="M52.6305 71.1905
L52.5829 71.3810
" />
<path d="M52.5829 71.3810
L52.5829 71.5238
" />
<path d="M52.5829 71.5238
L52.6305 71.7143
" />
<path d="M52.6305 71.7143
L52.6781 71.8096
" />
<path d="M52.6781 71.8096
L52.7733 71.9048
" />
<path d="M52.7733 71.9048
L52.9162 71.9524
" />
<path d="M52.9162 71.9524
L53.1543 71.9524
" />
<path d="M52.3924 72.0477
L51.6305 72.0477
" />
<path d="M51.3924 71.4286
L51.0590 71.4286
" />
<path d="M50.9162 71.9524
L51.3924 71.9524
" />
<path d="M51.3924 71.9524
L51.3924 70.9524
" />
<path d="M51.3924 70.9524
L50.9162 70.9524
" />
<path d="M50.5829 70.9524
L49.9162 71.9524
" />
<path d="M49.9162 70.9524
L50.5829 71.9524
" />
<path d="M49.6781 70.9524
L49.1067 70.9524
" />
<path d="M49.3924 71.9524
L49.3924 70.9524
" />
</g><text x="53.2850" y="80.7626"
transform="scale(-1 1) translate(-106.570000 0)"
textLength="1.9643" font-size="1.3333" lengthAdjust="spacingAndGlyphs"
text-anchor="middle" opacity="0">J4</text>
<g class="stroked-text"><desc>J4</desc>
<path d="M53.6183 79.7174
L53.6183 80.4317
" />
<path d="M53.6183 80.4317
L53.6660 80.5746
" />
<path d="M53.6660 80.5746
L53.7612 80.6698
" />
<path d="M53.7612 80.6698
L53.9040 80.7174
" />
<path d="M53.9040 80.7174
L53.9993 80.7174
" />
<path d="M52.7136 80.0508
L52.7136 80.7174
" />
<path d="M52.9517 79.6698
L53.1898 80.3841
" />
<path d="M53.1898 80.3841
L52.5707 80.3841
" />
</g><g transform="rotate(-90.000000 123.7000 93.7756)">
<text x="123.7000" y="94.2756"
transform="scale(-1 1) translate(-247.400000 0)"
textLength="7.7262" font-size="1.3333" lengthAdjust="spacingAndGlyphs"
text-anchor="middle" opacity="0">HiFi Berry</text>
</g>
<g class="stroked-text"><desc>HiFi Berry</desc>
<path d="M124.1548 90.2756
L123.1548 90.2756
" />
<path d="M123.6310 90.2756
L123.6310 90.8470
" />
<path d="M124.1548 90.8470
L123.1548 90.8470
" />
<path d="M124.1548 91.3232
L123.4882 91.3232
" />
<path d="M123.1548 91.3232
L123.2024 91.2756
" />
<path d="M123.2024 91.2756
L123.2501 91.3232
" />
<path d="M123.2501 91.3232
L123.2024 91.3708
" />
<path d="M123.2024 91.3708
L123.1548 91.3232
" />
<path d="M123.1548 91.3232
L123.2501 91.3232
" />
<path d="M123.6310 92.1327
L123.6310 91.7994
" />
<path d="M124.1548 91.7994
L123.1548 91.7994
" />
<path d="M123.1548 91.7994
L123.1548 92.2756
" />
<path d="M124.1548 92.6566
L123.4882 92.6566
" />
<path d="M123.1548 92.6566
L123.2024 92.6089
" />
<path d="M123.2024 92.6089
L123.2501 92.6566
" />
<path d="M123.2501 92.6566
L123.2024 92.7042
" />
<path d="M123.2024 92.7042
L123.1548 92.6566
" />
<path d="M123.1548 92.6566
L123.2501 92.6566
" />
<path d="M123.6310 94.2280
L123.6786 94.3708
" />
<path d="M123.6786 94.3708
L123.7262 94.4185
" />
<path d="M123.7262 94.4185
L123.8215 94.4661
" />
<path d="M123.8215 94.4661
L123.9643 94.4661
" />
<path d="M123.9643 94.4661
L124.0596 94.4185
" />
<path d="M124.0596 94.4185
L124.1072 94.3708
" />
<path d="M124.1072 94.3708
L124.1548 94.2756
" />
<path d="M124.1548 94.2756
L124.1548 93.8946
" />
<path d="M124.1548 93.8946
L123.1548 93.8946
" />
<path d="M123.1548 93.8946
L123.1548 94.2280
" />
<path d="M123.1548 94.2280
L123.2024 94.3232
" />
<path d="M123.2024 94.3232
L123.2501 94.3708
" />
<path d="M123.2501 94.3708
L123.3453 94.4185
" />
<path d="M123.3453 94.4185
L123.4405 94.4185
" />
<path d="M123.4405 94.4185
L123.5358 94.3708
" />
<path d="M123.5358 94.3708
L123.5834 94.3232
" />
<path d="M123.5834 94.3232
L123.6310 94.2280
" />
<path d="M123.6310 94.2280
L123.6310 93.8946
" />
<path d="M124.1072 95.2756
L124.1548 95.1804
" />
<path d="M124.1548 95.1804
L124.1548 94.9899
" />
<path d="M124.1548 94.9899
L124.1072 94.8946
" />
<path d="M124.1072 94.8946
L124.0120 94.8470
" />
<path d="M124.0120 94.8470
L123.6310 94.8470
" />
<path d="M123.6310 94.8470
L123.5358 94.8946
" />
<path d="M123.5358 94.8946
L123.4882 94.9899
" />
<path d="M123.4882 94.9899
L123.4882 95.1804
" />
<path d="M123.4882 95.1804
L123.5358 95.2756
" />
<path d="M123.5358 95.2756
L123.6310 95.3232
" />
<path d="M123.6310 95.3232
L123.7262 95.3232
" />
<path d="M123.7262 95.3232
L123.8215 94.8470
" />
<path d="M124.1548 95.7518
L123.4882 95.7518
" />
<path d="M123.6786 95.7518
L123.5834 95.7994
" />
<path d="M123.5834 95.7994
L123.5358 95.8470
" />
<path d="M123.5358 95.8470
L123.4882 95.9423
" />
<path d="M123.4882 95.9423
L123.4882 96.0375
" />
<path d="M124.1548 96.3708
L123.4882 96.3708
" />
<path d="M123.6786 96.3708
L123.5834 96.4185
" />
<path d="M123.5834 96.4185
L123.5358 96.4661
" />
<path d="M123.5358 96.4661
L123.4882 96.5613
" />
<path d="M123.4882 96.5613
L123.4882 96.6566
" />
<path d="M123.4882 96.8946
L124.1548 97.1327
" />
<path d="M123.4882 97.3708
L124.1548 97.1327
" />
<path d="M124.1548 97.1327
L124.3929 97.0375
" />
<path d="M124.3929 97.0375
L124.4405 96.9899
" />
<path d="M124.4405 96.9899
L124.4882 96.8946
" />
</g><g transform="rotate(-270.000000 83.3900 74.5900)">
<text x="83.3900" y="75.0900"
transform="scale(-1 1) translate(-166.780000 0)"
textLength="0.9643" font-size="1.3333" lengthAdjust="spacingAndGlyphs"
text-anchor="middle" opacity="0">~</text>
</g>
<g class="stroked-text"><desc>~</desc>
<path d="M83.3161 74.8519
L83.3638 74.8043
" />
<path d="M83.3638 74.8043
L83.4114 74.7090
" />
<path d="M83.4114 74.7090
L83.3161 74.5186
" />
<path d="M83.3161 74.5186
L83.3638 74.4233
" />
<path d="M83.3638 74.4233
L83.4114 74.3757
" />
</g><g transform="rotate(-270.000000 81.8900 74.5900)">
<text x="81.8900" y="75.0900"
transform="scale(-1 1) translate(-163.780000 0)"
textLength="2.0595" font-size="1.3333" lengthAdjust="spacingAndGlyphs"
text-anchor="middle" opacity="0">F2</text>
</g>
<g class="stroked-text"><desc>F2</desc>
<path d="M81.9590 74.9233
L81.9590 75.2567
" />
<path d="M81.4352 75.2567
L82.4352 75.2567
" />
<path d="M82.4352 75.2567
L82.4352 74.7805
" />
<path d="M82.3399 74.4471
L82.3876 74.3995
" />
<path d="M82.3876 74.3995
L82.4352 74.3043
" />
<path d="M82.4352 74.3043
L82.4352 74.0662
" />
<path d="M82.4352 74.0662
L82.3876 73.9710
" />
<path d="M82.3876 73.9710
L82.3399 73.9233
" />
<path d="M82.3399 73.9233
L82.2447 73.8757
" />
<path d="M82.2447 73.8757
L82.1495 73.8757
" />
<path d="M82.1495 73.8757
L82.0066 73.9233
" />
<path d="M82.0066 73.9233
L81.4352 74.4948
" />
<path d="M81.4352 74.4948
L81.4352 73.8757
" />
</g><g transform="rotate(-90.000000 57.0700 55.8350)">
<text x="57.0700" y="56.3350"
transform="scale(-1 1) translate(-114.140000 0)"
textLength="9.5357" font-size="1.3333" lengthAdjust="spacingAndGlyphs"
text-anchor="middle" opacity="0">MIDI IN/OUT</text>
</g>
<g class="stroked-text"><desc>MIDI IN/OUT</desc>
<path d="M57.5248 51.4302
L56.5248 51.4302
" />
<path d="M56.5248 51.4302
L57.2391 51.7636
" />
<path d="M57.2391 51.7636
L56.5248 52.0969
" />
<path d="M56.5248 52.0969
L57.5248 52.0969
" />
<path d="M57.5248 52.5731
L56.5248 52.5731
" />
<path d="M57.5248 53.0493
L56.5248 53.0493
" />
<path d="M56.5248 53.0493
L56.5248 53.2874
" />
<path d="M56.5248 53.2874
L56.5724 53.4302
" />
<path d="M56.5724 53.4302
L56.6677 53.5255
" />
<path d="M56.6677 53.5255
L56.7629 53.5731
" />
<path d="M56.7629 53.5731
L56.9534 53.6207
" />
<path d="M56.9534 53.6207
L57.0962 53.6207
" />
<path d="M57.0962 53.6207
L57.2867 53.5731
" />
<path d="M57.2867 53.5731
L57.3820 53.5255
" />
<path d="M57.3820 53.5255
L57.4772 53.4302
" />
<path d="M57.4772 53.4302
L57.5248 53.2874
" />
<path d="M57.5248 53.2874
L57.5248 53.0493
" />
<path d="M57.5248 54.0493
L56.5248 54.0493
" />
<path d="M57.5248 55.2874
L56.5248 55.2874
" />
<path d="M57.5248 55.7636
L56.5248 55.7636
" />
<path d="M56.5248 55.7636
L57.5248 56.3350
" />
<path d="M57.5248 56.3350
L56.5248 56.3350
" />
<path d="M56.4772 57.5255
L57.7629 56.6683
" />
<path d="M56.5248 58.0493
L56.5248 58.2398
" />
<path d="M56.5248 58.2398
L56.5724 58.3350
" />
<path d="M56.5724 58.3350
L56.6677 58.4302
" />
<path d="M56.6677 58.4302
L56.8582 58.4779
" />
<path d="M56.8582 58.4779
L57.1915 58.4779
" />
<path d="M57.1915 58.4779
L57.3820 58.4302
" />
<path d="M57.3820 58.4302
L57.4772 58.3350
" />
<path d="M57.4772 58.3350
L57.5248 58.2398
" />
<path d="M57.5248 58.2398
L57.5248 58.0493
" />
<path d="M57.5248 58.0493
L57.4772 57.9540
" />
<path d="M57.4772 57.9540
L57.3820 57.8588
" />
<path d="M57.3820 57.8588
L57.1915 57.8112
" />
<path d="M57.1915 57.8112
L56.8582 57.8112
" />
<path d="M56.8582 57.8112
L56.6677 57.8588
" />
<path d="M56.6677 57.8588
L56.5724 57.9540
" />
<path d="M56.5724 57.9540
L56.5248 58.0493
" />
<path d="M56.5248 58.9064
L57.3343 58.9064
" />
<path d="M57.3343 58.9064
L57.4296 58.9540
" />
<path d="M57.4296 58.9540
L57.4772 59.0017
" />
<path d="M57.4772 59.0017
L57.5248 59.0969
" />
<path d="M57.5248 59.0969
L57.5248 59.2874
" />
<path d="M57.5248 59.2874
L57.4772 59.3826
" />
<path d="M57.4772 59.3826
L57.4296 59.4302
" />
<path d="M57.4296 59.4302
L57.3343 59.4779
" />
<path d="M57.3343 59.4779
L56.5248 59.4779
" />
<path d="M56.5248 59.8112
L56.5248 60.3826
" />
<path d="M57.5248 60.0969
L56.5248 60.0969
" />
</g><g transform="rotate(-90.000000 65.6900 55.3900)">
<text x="65.6900" y="55.8900"
transform="scale(-1 1) translate(-131.380000 0)"
textLength="2.9167" font-size="1.3333" lengthAdjust="spacingAndGlyphs"
text-anchor="middle" opacity="0">J15</text>
</g>
<g class="stroked-text"><desc>J15</desc>
<path d="M65.1448 54.5805
L65.8591 54.5805
" />
<path d="M65.8591 54.5805
L66.0020 54.5329
" />
<path d="M66.0020 54.5329
L66.0972 54.4376
" />
<path d="M66.0972 54.4376
L66.1448 54.2948
" />
<path d="M66.1448 54.2948
L66.1448 54.1995
" />
<path d="M66.1448 55.5805
L66.1448 55.0090
" />
<path d="M66.1448 55.2948
L65.1448 55.2948
" />
<path d="M65.1448 55.2948
L65.2877 55.1995
" />
<path d="M65.2877 55.1995
L65.3829 55.1043
" />
<path d="M65.3829 55.1043
L65.4305 55.0090
" />
<path d="M65.1448 56.4852
L65.1448 56.0090
" />
<path d="M65.1448 56.0090
L65.6210 55.9614
" />
<path d="M65.6210 55.9614
L65.5734 56.0090
" />
<path d="M65.5734 56.0090
L65.5258 56.1043
" />
<path d="M65.5258 56.1043
L65.5258 56.3424
" />
<path d="M65.5258 56.3424
L65.5734 56.4376
" />
<path d="M65.5734 56.4376
L65.6210 56.4852
" />
<path d="M65.6210 56.4852
L65.7162 56.5329
" />
<path d="M65.7162 56.5329
L65.9543 56.5329
" />
<path d="M65.9543 56.5329
L66.0496 56.4852
" />
<path d="M66.0496 56.4852
L66.0972 56.4376
" />
<path d="M66.0972 56.4376
L66.1448 56.3424
" />
<path d="M66.1448 56.3424
L66.1448 56.1043
" />
<path d="M66.1448 56.1043
L66.0972 56.0090
" />
<path d="M66.0972 56.0090
L66.0496 55.9614
" />
</g></g>
<g style="fill:#000000; fill-opacity:0.0; 
stroke:#000000; stroke-width:0.1000; stroke-opacity:1; 
stroke-linecap:round; stroke-linejoin:round;">
<path d="M49.5900 107.5900
L48.3200 106.3200
" />
<path d="M99.1200 107.5900
L49.5900 107.5900
" />
<path d="M48.3200 106.3200
L48.3200 102.5100
" />
<path d="M48.3200 102.5100
L99.1200 102.5100
" />
<path d="M99.1200 102.5100
L99.1200 107.5900
" />
<path d="M112.3550 88.8900
L112.3550 98.4150
" />
<path d="M112.3550 98.4150
L112.9900 99.0500
" />
<path d="M112.9900 99.0500
L114.8950 99.0500
" />
<path d="M114.8950 88.8900
L112.3550 88.8900
" />
<path d="M114.8950 99.0500
L114.8950 88.8900
" />
<path d="M135.1400 57.4950
L135.1400 55.6750
" />
<path d="M135.7800 57.4950
L135.1400 57.4950
" />
<path d="M135.7800 57.4950
L135.7800 55.6750
" />
<path d="M137.6800 57.4950
L137.6800 55.6750
" />
<path d="M138.3200 57.4950
L137.6800 57.4950
" />
<path d="M138.3200 57.4950
L138.3200 55.6750
" />
<path d="M134.1900 55.6750
L138.6350 55.6750
" />
<path d="M138.6350 55.6750
L139.2700 55.0400
" />
<path d="M139.2700 55.0400
L139.2700 53.1350
" />
<path d="M134.1900 53.1350
L134.1900 55.6750
" />
<path d="M135.1400 53.1350
L135.1400 47.1350
" />
<path d="M135.7800 53.1350
L135.7800 47.1350
" />
<path d="M137.6800 53.1350
L137.6800 47.1350
" />
<path d="M138.3200 53.1350
L138.3200 47.1350
" />
<path d="M139.2700 53.1350
L134.1900 53.1350
" />
<path d="M135.7800 47.1350
L135.1400 47.1350
" />
<path d="M138.3200 47.1350
L137.6800 47.1350
" />
</g>
<g style="fill:#000000; fill-opacity:0.0; 
stroke:#000000; stroke-width:0.1200; stroke-opacity:1; 
stroke-linecap:round; stroke-linejoin:round;">
<path d="M77.5000 59.5000
L128.5000 59.5000
" />
<path d="M127.2000 59.5000
L128.5000 58.2000
" />
<path d="M128.5000 59.5000
L128.5000 38.5000
" />
<path d="M77.5000 38.5000
L77.5000 59.5000
" />
<path d="M128.5000 38.5000
L77.5000 38.5000
" />
</g>
<g style="fill:#000000; fill-opacity:0.0; 
stroke:#000000; stroke-width:0.1000; stroke-opacity:1; 
stroke-linecap:round; stroke-linejoin:round;">
<path d="M50.4650 83.2826
L50.4650 81.4626
" />
<path d="M51.1050 83.2826
L50.4650 83.2826
" />
<path d="M51.1050 83.2826
L51.1050 81.4626
" />
<path d="M53.0050 83.2826
L53.0050 81.4626
" />
<path d="M53.6450 83.2826
L53.0050 83.2826
" />
<path d="M53.6450 83.2826
L53.6450 81.4626
" />
<path d="M55.5450 83.2826
L55.5450 81.4626
" />
<path d="M56.1850 83.2826
L55.5450 83.2826
" />
<path d="M56.1850 83.2826
L56.1850 81.4626
" />
<path d="M49.5150 81.4626
L56.5000 81.4626
" />
<path d="M56.5000 81.4626
L57.1350 80.8276
" />
<path d="M57.1350 80.8276
L57.1350 78.9226
" />
<path d="M49.5150 78.9226
L49.5150 81.4626
" />
<path d="M50.4650 78.9226
L50.4650 72.9226
" />
<path d="M51.1050 78.9226
L51.1050 72.9226
" />
<path d="M53.0050 78.9226
L53.0050 72.9226
" />
<path d="M53.6450 78.9226
L53.6450 72.9226
" />
<path d="M55.5450 78.9226
L55.5450 72.9226
" />
<path d="M56.1850 78.9226
L56.1850 72.9226
" />
<path d="M57.1350 78.9226
L49.5150 78.9226
" />
<path d="M51.1050 72.9226
L50.4650 72.9226
" />
<path d="M53.6450 72.9226
L53.0050 72.9226
" />
<path d="M56.1850 72.9226
L55.5450 72.9226
" />
<path d="M158.7300 122.9606
L151.1100 122.9606
" />
<path d="M158.7300 117.8806
L158.7300 122.9606
" />
<path d="M157.8250 81.1956
L152.7450 81.1956
" />
<path d="M157.8250 74.5756
L157.8250 81.1956
" />
<path d="M156.8250 73.5756
L157.8250 74.5756
" />
<path d="M152.7450 81.1956
L152.7450 73.5756
" />
<path d="M152.7450 73.5756
L156.8250 73.5756
" />
<path d="M152.1100 117.8806
L158.7300 117.8806
" />
<path d="M151.1100 122.9606
L151.1100 118.8806
" />
<path d="M151.1100 118.8806
L152.1100 117.8806
" />
<path d="M121.5200 117.9056
L116.4400 117.9056
" />
<path d="M121.5200 68.1056
L121.5200 117.9056
" />
<path d="M120.5200 67.1056
L121.5200 68.1056
" />
<path d="M116.4400 117.9056
L116.4400 67.1056
" />
<path d="M116.4400 67.1056
L120.5200 67.1056
" />
<path d="M71.3200 58.2500
L66.9600 58.2500
" />
<path d="M71.3200 57.6100
L71.3200 58.2500
" />
<path d="M71.3200 57.6100
L66.9600 57.6100
" />
<path d="M71.3200 55.7100
L66.9600 55.7100
" />
<path d="M71.3200 55.0700
L71.3200 55.7100
" />
<path d="M71.3200 55.0700
L66.9600 55.0700
" />
<path d="M71.3200 53.1700
L66.9600 53.1700
" />
<path d="M71.3200 52.5300
L71.3200 53.1700
" />
<path d="M71.3200 52.5300
L66.9600 52.5300
" />
<path d="M66.9600 59.2000
L66.9600 52.2150
" />
<path d="M66.9600 52.2150
L66.3250 51.5800
" />
<path d="M66.3250 51.5800
L64.4200 51.5800
" />
<path d="M64.4200 59.2000
L66.9600 59.2000
" />
<path d="M64.4200 58.2500
L58.4200 58.2500
" />
<path d="M64.4200 57.6100
L58.4200 57.6100
" />
<path d="M64.4200 55.7100
L58.4200 55.7100
" />
<path d="M64.4200 55.0700
L58.4200 55.0700
" />
<path d="M64.4200 53.1700
L58.4200 53.1700
" />
<path d="M64.4200 52.5300
L58.4200 52.5300
" />
<path d="M64.4200 51.5800
L64.4200 59.2000
" />
<path d="M58.4200 57.6100
L58.4200 58.2500
" />
<path d="M58.4200 55.0700
L58.4200 55.7100
" />
<path d="M58.4200 52.5300
L58.4200 53.1700
" />
<g >
</g>
<g >
</g>
<g >
</g>
<g >
</g>
<g >
</g>
<g >
</g>
<g >
</g>
<g >
</g>
<g >
</g>
<g >
</g>
<g >
</g>
<g >
</g>
<g >
</g>
<g >
</g>
<g >
</g>
<g >
</g>
<g >
</g>
<g >
</g>
<g >
</g>
<g >
</g>
<g >
</g>
<g >
</g>
<g >
</g>
<g >
</g>
<g >
</g>
<g >
</g>
<g >
</g>
<g >
</g>
<g >
</g>
<g >
</g>
<g >
</g>
<g >
</g>
<g >
</g>
<g >
</g>
<g >
</g>
<g >
</g>
<g >
</g>
<g >
</g>
<g >
</g>
<g >
</g>
<g >
</g>
<g >
</g>
<g >
</g>
<g >
</g>
<g >
</g>
<g >
</g>
<g >
</g>
<g >
</g>
<g >
</g>
<g >
</g>
<g >
</g>
<g >
</g>
<g >
</g>
<g >
</g>
<g >
</g>
<g >
</g>
<g >
</g>
<g >
</g>
<g >
</g>
<g >
</g>
<g >
</g>
<g >
</g>
<g >
</g>
<g >
</g>
<g >
</g>
<g >
</g>
<g >
</g>
<g >
</g>
<g >
</g>
<g >
</g>
<g >
</g>
<g >
</g>
<g >
</g>
<g >
</g>
<g >
</g>
<g >
</g>
<g >
</g>
<g >
</g>
<g >
</g>
<g >
</g>
<g >
</g>
<g >
</g>
<g >
</g>
<g >
</g>
<g >
</g>
<g >
</g>
<g >
</g>
<g >
</g>
<g >
</g>
<g >
</g>
<g >
</g>
<g >
</g>
<g >
</g>
<g >
</g>
<g >
</g>
<g >
</g>
<g >
</g>
<g >
</g>
</g> 
</svg>
