<?xml version="1.0" standalone="no"?>
 <!DOCTYPE svg PUBLIC "-//W3C//DTD SVG 1.1//EN" 
 "http://www.w3.org/Graphics/SVG/1.1/DTD/svg11.dtd"> 
<svg
  xmlns:svg="http://www.w3.org/2000/svg"
  xmlns="http://www.w3.org/2000/svg"
  xmlns:xlink="http://www.w3.org/1999/xlink"
  version="1.1"
  width="297.0022mm" height="210.0072mm" viewBox="0.0000 0.0000 297.0022 210.0072">
<title>SVG Image created as pedalboard-hw-B_Courtyard.svg date 2023/12/03 19:25:04 </title>
  <desc>Image generated by PCBNEW </desc>
<g style="fill:#000000; fill-opacity:1.0000;stroke:#000000; stroke-opacity:1.0000;
stroke-linecap:round; stroke-linejoin:round;"
 transform="translate(0 0) scale(1 1)">
</g>
<g style="fill:#000000; fill-opacity:0.0; 
stroke:#000000; stroke-width:0.0000; stroke-opacity:1; 
stroke-linecap:round; stroke-linejoin:round;">
</g>
<g style="fill:#000000; fill-opacity:0.0; 
stroke:#000000; stroke-width:0.0500; stroke-opacity:1; 
stroke-linecap:round; stroke-linejoin:round;">
<circle cx="30.0000" cy="119.0000" r="3.2000" /> 
<circle cx="105.0000" cy="67.0000" r="3.2000" /> 
<circle cx="30.0000" cy="67.0000" r="3.2000" /> 
<circle cx="180.0000" cy="67.0000" r="3.2000" /> 
<circle cx="105.0000" cy="119.0000" r="3.2000" /> 
<path d="M67.6900 19.7100
L78.5900 19.7100
" />
<path d="M67.6900 26.4600
L67.6900 19.7100
" />
<path d="M78.5900 19.7100
L78.5900 26.4600
" />
<path d="M78.5900 26.4600
L67.6900 26.4600
" />
<path d="M45.8500 131.0000
L34.9500 131.0000
" />
<path d="M45.8500 124.2500
L45.8500 131.0000
" />
<path d="M34.9500 131.0000
L34.9500 124.2500
" />
<path d="M34.9500 124.2500
L45.8500 124.2500
" />
<circle cx="180.0000" cy="119.0000" r="3.2000" /> 
<path d="M159.2300 123.4906
L150.5800 123.4906
" />
<path d="M159.2300 117.3906
L159.2300 123.4906
" />
<path d="M158.3150 81.6956
L152.2150 81.6956
" />
<path d="M158.3150 73.0456
L158.3150 81.6956
" />
<path d="M152.2150 81.6956
L152.2150 73.0456
" />
<path d="M152.2150 73.0456
L158.3150 73.0456
" />
<path d="M150.5800 123.4906
L150.5800 117.3906
" />
<path d="M150.5800 117.3906
L159.2300 117.3906
" />
<path d="M122.0100 118.3756
L115.9100 118.3756
" />
<path d="M122.0100 66.5756
L122.0100 118.3756
" />
<path d="M115.9100 118.3756
L115.9100 66.5756
" />
<path d="M115.9100 66.5756
L122.0100 66.5756
" />
<path d="M56.7900 19.7050
L67.6900 19.7050
" />
<path d="M56.7900 26.4550
L56.7900 19.7050
" />
<path d="M67.6900 19.7050
L67.6900 26.4550
" />
<path d="M67.6900 26.4550
L56.7900 26.4550
" />
<g >
</g>
<g >
</g>
<g >
</g>
<g >
</g>
<g >
</g>
<g >
</g>
<g >
</g>
<g >
</g>
<g >
</g>
<g >
</g>
<g >
</g>
<g >
</g>
<g >
</g>
<g >
</g>
<g >
</g>
<g >
</g>
<g >
</g>
<g >
</g>
<g >
</g>
<g >
</g>
<g >
</g>
<g >
</g>
<g >
</g>
<g >
</g>
<g >
</g>
<g >
</g>
<g >
</g>
<g >
</g>
<g >
</g>
<g >
</g>
<g >
</g>
<g >
</g>
<g >
</g>
<g >
</g>
<g >
</g>
<g >
</g>
<g >
</g>
<g >
</g>
<g >
</g>
<g >
</g>
<g >
</g>
<g >
</g>
<g >
</g>
<g >
</g>
<g >
</g>
<g >
</g>
<g >
</g>
<g >
</g>
<g >
</g>
<g >
</g>
<g >
</g>
<g >
</g>
<g >
</g>
<g >
</g>
<g >
</g>
<g >
</g>
<g >
</g>
<g >
</g>
<g >
</g>
<g >
</g>
<g >
</g>
<g >
</g>
<g >
</g>
<g >
</g>
<g >
</g>
<g >
</g>
<g >
</g>
<g >
</g>
<g >
</g>
<g >
</g>
<g >
</g>
<g >
</g>
<g >
</g>
<g >
</g>
<g >
</g>
<g >
</g>
<g >
</g>
<g >
</g>
<g >
</g>
<g >
</g>
<g >
</g>
<g >
</g>
<g >
</g>
<g >
</g>
<g >
</g>
<g >
</g>
<g >
</g>
<g >
</g>
<g >
</g>
<g >
</g>
<g >
</g>
<g >
</g>
<g >
</g>
<g >
</g>
<g >
</g>
<g >
</g>
<g >
</g>
<g >
</g>
<g >
</g>
<g >
</g>
<g >
</g>
<g >
</g>
<g >
</g>
<g >
</g>
<g >
</g>
<g >
</g>
<g >
</g>
<g >
</g>
<g >
</g>
<g >
</g>
<g >
</g>
<g >
</g>
<g >
</g>
<g >
</g>
<g >
</g>
<g >
</g>
<g >
</g>
<g >
</g>
<g >
</g>
<g >
</g>
<g >
</g>
<g >
</g>
<g >
</g>
<g >
</g>
<g >
</g>
<g >
</g>
<g >
</g>
<g >
</g>
<g >
</g>
<g >
</g>
<g >
</g>
<g >
</g>
<g >
</g>
<g >
</g>
<g >
</g>
<g >
</g>
<g >
</g>
<g >
</g>
<g >
</g>
<g >
</g>
<g >
</g>
<g >
</g>
</g> 
</svg>
