<?xml version="1.0" standalone="no"?>
 <!DOCTYPE svg PUBLIC "-//W3C//DTD SVG 1.1//EN" 
 "http://www.w3.org/Graphics/SVG/1.1/DTD/svg11.dtd"> 
<svg
  xmlns:svg="http://www.w3.org/2000/svg"
  xmlns="http://www.w3.org/2000/svg"
  xmlns:xlink="http://www.w3.org/1999/xlink"
  version="1.1"
  width="297.0022mm" height="210.0072mm" viewBox="0.0000 0.0000 297.0022 210.0072">
<title>SVG Image created as pedalboard-hw-B_Fab.svg date 2023/10/21 20:46:20 </title>
  <desc>Image generated by PCBNEW </desc>
<g style="fill:#000000; fill-opacity:1.0000;stroke:#000000; stroke-opacity:1.0000;
stroke-linecap:round; stroke-linejoin:round;"
 transform="translate(0 0) scale(1 1)">
</g>
<g style="fill:#000000; fill-opacity:0.0; 
stroke:#000000; stroke-width:0.0000; stroke-opacity:1; 
stroke-linecap:round; stroke-linejoin:round;">
</g>
<g style="fill:#000000; fill-opacity:0.0; 
stroke:#000000; stroke-width:0.1500; stroke-opacity:1; 
stroke-linecap:round; stroke-linejoin:round;">
<text x="47.1000" y="33.5750"
transform="scale(-1 1) translate(-94.200000 0)"
textLength="7.2024" font-size="1.3333" lengthAdjust="spacingAndGlyphs"
text-anchor="middle" opacity="0">EXT-MIDI</text>
<g class="stroked-text"><desc>EXT-MIDI</desc>
<path d="M50.3381 33.0060
L50.0048 33.0060
" />
<path d="M49.8619 33.5298
L50.3381 33.5298
" />
<path d="M50.3381 33.5298
L50.3381 32.5298
" />
<path d="M50.3381 32.5298
L49.8619 32.5298
" />
<path d="M49.5286 32.5298
L48.8619 33.5298
" />
<path d="M48.8619 32.5298
L49.5286 33.5298
" />
<path d="M48.6238 32.5298
L48.0524 32.5298
" />
<path d="M48.3381 33.5298
L48.3381 32.5298
" />
<path d="M47.7190 33.1489
L46.9571 33.1489
" />
<path d="M46.4810 33.5298
L46.4810 32.5298
" />
<path d="M46.4810 32.5298
L46.1476 33.2441
" />
<path d="M46.1476 33.2441
L45.8143 32.5298
" />
<path d="M45.8143 32.5298
L45.8143 33.5298
" />
<path d="M45.3381 33.5298
L45.3381 32.5298
" />
<path d="M44.8619 33.5298
L44.8619 32.5298
" />
<path d="M44.8619 32.5298
L44.6238 32.5298
" />
<path d="M44.6238 32.5298
L44.4810 32.5774
" />
<path d="M44.4810 32.5774
L44.3857 32.6727
" />
<path d="M44.3857 32.6727
L44.3381 32.7679
" />
<path d="M44.3381 32.7679
L44.2905 32.9584
" />
<path d="M44.2905 32.9584
L44.2905 33.1012
" />
<path d="M44.2905 33.1012
L44.3381 33.2917
" />
<path d="M44.3381 33.2917
L44.3857 33.3870
" />
<path d="M44.3857 33.3870
L44.4810 33.4822
" />
<path d="M44.4810 33.4822
L44.6238 33.5298
" />
<path d="M44.6238 33.5298
L44.8619 33.5298
" />
<path d="M43.8619 33.5298
L43.8619 32.5298
" />
</g><text x="47.1000" y="31.6750"
transform="scale(-1 1) translate(-94.200000 0)"
textLength="2.9167" font-size="1.3333" lengthAdjust="spacingAndGlyphs"
text-anchor="middle" opacity="0">J23</text>
<g class="stroked-text"><desc>J23</desc>
<path d="M47.9095 30.6298
L47.9095 31.3441
" />
<path d="M47.9095 31.3441
L47.9571 31.4870
" />
<path d="M47.9571 31.4870
L48.0524 31.5822
" />
<path d="M48.0524 31.5822
L48.1952 31.6298
" />
<path d="M48.1952 31.6298
L48.2905 31.6298
" />
<path d="M47.4810 30.7251
L47.4333 30.6774
" />
<path d="M47.4333 30.6774
L47.3381 30.6298
" />
<path d="M47.3381 30.6298
L47.1000 30.6298
" />
<path d="M47.1000 30.6298
L47.0048 30.6774
" />
<path d="M47.0048 30.6774
L46.9571 30.7251
" />
<path d="M46.9571 30.7251
L46.9095 30.8203
" />
<path d="M46.9095 30.8203
L46.9095 30.9155
" />
<path d="M46.9095 30.9155
L46.9571 31.0584
" />
<path d="M46.9571 31.0584
L47.5286 31.6298
" />
<path d="M47.5286 31.6298
L46.9095 31.6298
" />
<path d="M46.5762 30.6298
L45.9571 30.6298
" />
<path d="M45.9571 30.6298
L46.2905 31.0108
" />
<path d="M46.2905 31.0108
L46.1476 31.0108
" />
<path d="M46.1476 31.0108
L46.0524 31.0584
" />
<path d="M46.0524 31.0584
L46.0048 31.1060
" />
<path d="M46.0048 31.1060
L45.9571 31.2012
" />
<path d="M45.9571 31.2012
L45.9571 31.4393
" />
<path d="M45.9571 31.4393
L46.0048 31.5346
" />
<path d="M46.0048 31.5346
L46.0524 31.5822
" />
<path d="M46.0524 31.5822
L46.1476 31.6298
" />
<path d="M46.1476 31.6298
L46.4333 31.6298
" />
<path d="M46.4333 31.6298
L46.5286 31.5822
" />
<path d="M46.5286 31.5822
L46.5762 31.5346
" />
</g><text x="40.4000" y="132.2000"
transform="scale(-1 1) translate(-80.800000 0)"
textLength="10.1071" font-size="1.3333" lengthAdjust="spacingAndGlyphs"
text-anchor="middle" opacity="0">RGB_LED_EXT</text>
<g class="stroked-text"><desc>RGB_LED_EXT</desc>
<path d="M44.5190 132.1548
L44.8524 131.6786
" />
<path d="M45.0905 132.1548
L45.0905 131.1548
" />
<path d="M45.0905 131.1548
L44.7095 131.1548
" />
<path d="M44.7095 131.1548
L44.6143 131.2024
" />
<path d="M44.6143 131.2024
L44.5667 131.2501
" />
<path d="M44.5667 131.2501
L44.5190 131.3453
" />
<path d="M44.5190 131.3453
L44.5190 131.4882
" />
<path d="M44.5190 131.4882
L44.5667 131.5834
" />
<path d="M44.5667 131.5834
L44.6143 131.6310
" />
<path d="M44.6143 131.6310
L44.7095 131.6786
" />
<path d="M44.7095 131.6786
L45.0905 131.6786
" />
<path d="M43.5667 131.2024
L43.6619 131.1548
" />
<path d="M43.6619 131.1548
L43.8048 131.1548
" />
<path d="M43.8048 131.1548
L43.9476 131.2024
" />
<path d="M43.9476 131.2024
L44.0429 131.2977
" />
<path d="M44.0429 131.2977
L44.0905 131.3929
" />
<path d="M44.0905 131.3929
L44.1381 131.5834
" />
<path d="M44.1381 131.5834
L44.1381 131.7262
" />
<path d="M44.1381 131.7262
L44.0905 131.9167
" />
<path d="M44.0905 131.9167
L44.0429 132.0120
" />
<path d="M44.0429 132.0120
L43.9476 132.1072
" />
<path d="M43.9476 132.1072
L43.8048 132.1548
" />
<path d="M43.8048 132.1548
L43.7095 132.1548
" />
<path d="M43.7095 132.1548
L43.5667 132.1072
" />
<path d="M43.5667 132.1072
L43.5190 132.0596
" />
<path d="M43.5190 132.0596
L43.5190 131.7262
" />
<path d="M43.5190 131.7262
L43.7095 131.7262
" />
<path d="M42.7571 131.6310
L42.6143 131.6786
" />
<path d="M42.6143 131.6786
L42.5667 131.7262
" />
<path d="M42.5667 131.7262
L42.5190 131.8215
" />
<path d="M42.5190 131.8215
L42.5190 131.9643
" />
<path d="M42.5190 131.9643
L42.5667 132.0596
" />
<path d="M42.5667 132.0596
L42.6143 132.1072
" />
<path d="M42.6143 132.1072
L42.7095 132.1548
" />
<path d="M42.7095 132.1548
L43.0905 132.1548
" />
<path d="M43.0905 132.1548
L43.0905 131.1548
" />
<path d="M43.0905 131.1548
L42.7571 131.1548
" />
<path d="M42.7571 131.1548
L42.6619 131.2024
" />
<path d="M42.6619 131.2024
L42.6143 131.2501
" />
<path d="M42.6143 131.2501
L42.5667 131.3453
" />
<path d="M42.5667 131.3453
L42.5667 131.4405
" />
<path d="M42.5667 131.4405
L42.6143 131.5358
" />
<path d="M42.6143 131.5358
L42.6619 131.5834
" />
<path d="M42.6619 131.5834
L42.7571 131.6310
" />
<path d="M42.7571 131.6310
L43.0905 131.6310
" />
<path d="M42.3286 132.2501
L41.5667 132.2501
" />
<path d="M40.8524 132.1548
L41.3286 132.1548
" />
<path d="M41.3286 132.1548
L41.3286 131.1548
" />
<path d="M40.5190 131.6310
L40.1857 131.6310
" />
<path d="M40.0429 132.1548
L40.5190 132.1548
" />
<path d="M40.5190 132.1548
L40.5190 131.1548
" />
<path d="M40.5190 131.1548
L40.0429 131.1548
" />
<path d="M39.6143 132.1548
L39.6143 131.1548
" />
<path d="M39.6143 131.1548
L39.3762 131.1548
" />
<path d="M39.3762 131.1548
L39.2333 131.2024
" />
<path d="M39.2333 131.2024
L39.1381 131.2977
" />
<path d="M39.1381 131.2977
L39.0905 131.3929
" />
<path d="M39.0905 131.3929
L39.0429 131.5834
" />
<path d="M39.0429 131.5834
L39.0429 131.7262
" />
<path d="M39.0429 131.7262
L39.0905 131.9167
" />
<path d="M39.0905 131.9167
L39.1381 132.0120
" />
<path d="M39.1381 132.0120
L39.2333 132.1072
" />
<path d="M39.2333 132.1072
L39.3762 132.1548
" />
<path d="M39.3762 132.1548
L39.6143 132.1548
" />
<path d="M38.8524 132.2501
L38.0905 132.2501
" />
<path d="M37.8524 131.6310
L37.5190 131.6310
" />
<path d="M37.3762 132.1548
L37.8524 132.1548
" />
<path d="M37.8524 132.1548
L37.8524 131.1548
" />
<path d="M37.8524 131.1548
L37.3762 131.1548
" />
<path d="M37.0429 131.1548
L36.3762 132.1548
" />
<path d="M36.3762 131.1548
L37.0429 132.1548
" />
<path d="M36.1381 131.1548
L35.5667 131.1548
" />
<path d="M35.8524 132.1548
L35.8524 131.1548
" />
</g><text x="40.4000" y="130.3000"
transform="scale(-1 1) translate(-80.800000 0)"
textLength="2.9167" font-size="1.3333" lengthAdjust="spacingAndGlyphs"
text-anchor="middle" opacity="0">J26</text>
<g class="stroked-text"><desc>J26</desc>
<path d="M41.2095 129.2548
L41.2095 129.9691
" />
<path d="M41.2095 129.9691
L41.2571 130.1120
" />
<path d="M41.2571 130.1120
L41.3524 130.2072
" />
<path d="M41.3524 130.2072
L41.4952 130.2548
" />
<path d="M41.4952 130.2548
L41.5905 130.2548
" />
<path d="M40.7810 129.3501
L40.7333 129.3024
" />
<path d="M40.7333 129.3024
L40.6381 129.2548
" />
<path d="M40.6381 129.2548
L40.4000 129.2548
" />
<path d="M40.4000 129.2548
L40.3048 129.3024
" />
<path d="M40.3048 129.3024
L40.2571 129.3501
" />
<path d="M40.2571 129.3501
L40.2095 129.4453
" />
<path d="M40.2095 129.4453
L40.2095 129.5405
" />
<path d="M40.2095 129.5405
L40.2571 129.6834
" />
<path d="M40.2571 129.6834
L40.8286 130.2548
" />
<path d="M40.8286 130.2548
L40.2095 130.2548
" />
<path d="M39.3524 129.2548
L39.5429 129.2548
" />
<path d="M39.5429 129.2548
L39.6381 129.3024
" />
<path d="M39.6381 129.3024
L39.6857 129.3501
" />
<path d="M39.6857 129.3501
L39.7810 129.4929
" />
<path d="M39.7810 129.4929
L39.8286 129.6834
" />
<path d="M39.8286 129.6834
L39.8286 130.0643
" />
<path d="M39.8286 130.0643
L39.7810 130.1596
" />
<path d="M39.7810 130.1596
L39.7333 130.2072
" />
<path d="M39.7333 130.2072
L39.6381 130.2548
" />
<path d="M39.6381 130.2548
L39.4476 130.2548
" />
<path d="M39.4476 130.2548
L39.3524 130.2072
" />
<path d="M39.3524 130.2072
L39.3048 130.1596
" />
<path d="M39.3048 130.1596
L39.2571 130.0643
" />
<path d="M39.2571 130.0643
L39.2571 129.8262
" />
<path d="M39.2571 129.8262
L39.3048 129.7310
" />
<path d="M39.3048 129.7310
L39.3524 129.6834
" />
<path d="M39.3524 129.6834
L39.4476 129.6358
" />
<path d="M39.4476 129.6358
L39.6381 129.6358
" />
<path d="M39.6381 129.6358
L39.7333 129.6834
" />
<path d="M39.7333 129.6834
L39.7810 129.7310
" />
<path d="M39.7810 129.7310
L39.8286 129.8262
" />
</g><g transform="rotate(-90.000000 123.7000 93.7756)">
<text x="123.7000" y="94.2756"
transform="scale(-1 1) translate(-247.400000 0)"
textLength="7.7262" font-size="1.3333" lengthAdjust="spacingAndGlyphs"
text-anchor="middle" opacity="0">HiFi Berry</text>
</g>
<g class="stroked-text"><desc>HiFi Berry</desc>
<path d="M124.1548 90.2756
L123.1548 90.2756
" />
<path d="M123.6310 90.2756
L123.6310 90.8470
" />
<path d="M124.1548 90.8470
L123.1548 90.8470
" />
<path d="M124.1548 91.3232
L123.4882 91.3232
" />
<path d="M123.1548 91.3232
L123.2024 91.2756
" />
<path d="M123.2024 91.2756
L123.2501 91.3232
" />
<path d="M123.2501 91.3232
L123.2024 91.3708
" />
<path d="M123.2024 91.3708
L123.1548 91.3232
" />
<path d="M123.1548 91.3232
L123.2501 91.3232
" />
<path d="M123.6310 92.1327
L123.6310 91.7994
" />
<path d="M124.1548 91.7994
L123.1548 91.7994
" />
<path d="M123.1548 91.7994
L123.1548 92.2756
" />
<path d="M124.1548 92.6566
L123.4882 92.6566
" />
<path d="M123.1548 92.6566
L123.2024 92.6089
" />
<path d="M123.2024 92.6089
L123.2501 92.6566
" />
<path d="M123.2501 92.6566
L123.2024 92.7042
" />
<path d="M123.2024 92.7042
L123.1548 92.6566
" />
<path d="M123.1548 92.6566
L123.2501 92.6566
" />
<path d="M123.6310 94.2280
L123.6786 94.3708
" />
<path d="M123.6786 94.3708
L123.7262 94.4185
" />
<path d="M123.7262 94.4185
L123.8215 94.4661
" />
<path d="M123.8215 94.4661
L123.9643 94.4661
" />
<path d="M123.9643 94.4661
L124.0596 94.4185
" />
<path d="M124.0596 94.4185
L124.1072 94.3708
" />
<path d="M124.1072 94.3708
L124.1548 94.2756
" />
<path d="M124.1548 94.2756
L124.1548 93.8946
" />
<path d="M124.1548 93.8946
L123.1548 93.8946
" />
<path d="M123.1548 93.8946
L123.1548 94.2280
" />
<path d="M123.1548 94.2280
L123.2024 94.3232
" />
<path d="M123.2024 94.3232
L123.2501 94.3708
" />
<path d="M123.2501 94.3708
L123.3453 94.4185
" />
<path d="M123.3453 94.4185
L123.4405 94.4185
" />
<path d="M123.4405 94.4185
L123.5358 94.3708
" />
<path d="M123.5358 94.3708
L123.5834 94.3232
" />
<path d="M123.5834 94.3232
L123.6310 94.2280
" />
<path d="M123.6310 94.2280
L123.6310 93.8946
" />
<path d="M124.1072 95.2756
L124.1548 95.1804
" />
<path d="M124.1548 95.1804
L124.1548 94.9899
" />
<path d="M124.1548 94.9899
L124.1072 94.8946
" />
<path d="M124.1072 94.8946
L124.0120 94.8470
" />
<path d="M124.0120 94.8470
L123.6310 94.8470
" />
<path d="M123.6310 94.8470
L123.5358 94.8946
" />
<path d="M123.5358 94.8946
L123.4882 94.9899
" />
<path d="M123.4882 94.9899
L123.4882 95.1804
" />
<path d="M123.4882 95.1804
L123.5358 95.2756
" />
<path d="M123.5358 95.2756
L123.6310 95.3232
" />
<path d="M123.6310 95.3232
L123.7262 95.3232
" />
<path d="M123.7262 95.3232
L123.8215 94.8470
" />
<path d="M124.1548 95.7518
L123.4882 95.7518
" />
<path d="M123.6786 95.7518
L123.5834 95.7994
" />
<path d="M123.5834 95.7994
L123.5358 95.8470
" />
<path d="M123.5358 95.8470
L123.4882 95.9423
" />
<path d="M123.4882 95.9423
L123.4882 96.0375
" />
<path d="M124.1548 96.3708
L123.4882 96.3708
" />
<path d="M123.6786 96.3708
L123.5834 96.4185
" />
<path d="M123.5834 96.4185
L123.5358 96.4661
" />
<path d="M123.5358 96.4661
L123.4882 96.5613
" />
<path d="M123.4882 96.5613
L123.4882 96.6566
" />
<path d="M123.4882 96.8946
L124.1548 97.1327
" />
<path d="M123.4882 97.3708
L124.1548 97.1327
" />
<path d="M124.1548 97.1327
L124.3929 97.0375
" />
<path d="M124.3929 97.0375
L124.4405 96.9899
" />
<path d="M124.4405 96.9899
L124.4882 96.8946
" />
</g><text x="47.1000" y="41.3250"
transform="scale(-1 1) translate(-94.200000 0)"
textLength="7.2024" font-size="1.3333" lengthAdjust="spacingAndGlyphs"
text-anchor="middle" opacity="0">EXT-MIDI</text>
<g class="stroked-text"><desc>EXT-MIDI</desc>
<path d="M50.3381 40.7560
L50.0048 40.7560
" />
<path d="M49.8619 41.2798
L50.3381 41.2798
" />
<path d="M50.3381 41.2798
L50.3381 40.2798
" />
<path d="M50.3381 40.2798
L49.8619 40.2798
" />
<path d="M49.5286 40.2798
L48.8619 41.2798
" />
<path d="M48.8619 40.2798
L49.5286 41.2798
" />
<path d="M48.6238 40.2798
L48.0524 40.2798
" />
<path d="M48.3381 41.2798
L48.3381 40.2798
" />
<path d="M47.7190 40.8989
L46.9571 40.8989
" />
<path d="M46.4810 41.2798
L46.4810 40.2798
" />
<path d="M46.4810 40.2798
L46.1476 40.9941
" />
<path d="M46.1476 40.9941
L45.8143 40.2798
" />
<path d="M45.8143 40.2798
L45.8143 41.2798
" />
<path d="M45.3381 41.2798
L45.3381 40.2798
" />
<path d="M44.8619 41.2798
L44.8619 40.2798
" />
<path d="M44.8619 40.2798
L44.6238 40.2798
" />
<path d="M44.6238 40.2798
L44.4810 40.3274
" />
<path d="M44.4810 40.3274
L44.3857 40.4227
" />
<path d="M44.3857 40.4227
L44.3381 40.5179
" />
<path d="M44.3381 40.5179
L44.2905 40.7084
" />
<path d="M44.2905 40.7084
L44.2905 40.8512
" />
<path d="M44.2905 40.8512
L44.3381 41.0417
" />
<path d="M44.3381 41.0417
L44.3857 41.1370
" />
<path d="M44.3857 41.1370
L44.4810 41.2322
" />
<path d="M44.4810 41.2322
L44.6238 41.2798
" />
<path d="M44.6238 41.2798
L44.8619 41.2798
" />
<path d="M43.8619 41.2798
L43.8619 40.2798
" />
</g><text x="47.1000" y="39.4250"
transform="scale(-1 1) translate(-94.200000 0)"
textLength="2.9167" font-size="1.3333" lengthAdjust="spacingAndGlyphs"
text-anchor="middle" opacity="0">J24</text>
<g class="stroked-text"><desc>J24</desc>
<path d="M47.9095 38.3798
L47.9095 39.0941
" />
<path d="M47.9095 39.0941
L47.9571 39.2370
" />
<path d="M47.9571 39.2370
L48.0524 39.3322
" />
<path d="M48.0524 39.3322
L48.1952 39.3798
" />
<path d="M48.1952 39.3798
L48.2905 39.3798
" />
<path d="M47.4810 38.4751
L47.4333 38.4274
" />
<path d="M47.4333 38.4274
L47.3381 38.3798
" />
<path d="M47.3381 38.3798
L47.1000 38.3798
" />
<path d="M47.1000 38.3798
L47.0048 38.4274
" />
<path d="M47.0048 38.4274
L46.9571 38.4751
" />
<path d="M46.9571 38.4751
L46.9095 38.5703
" />
<path d="M46.9095 38.5703
L46.9095 38.6655
" />
<path d="M46.9095 38.6655
L46.9571 38.8084
" />
<path d="M46.9571 38.8084
L47.5286 39.3798
" />
<path d="M47.5286 39.3798
L46.9095 39.3798
" />
<path d="M46.0524 38.7132
L46.0524 39.3798
" />
<path d="M46.2905 38.3322
L46.5286 39.0465
" />
<path d="M46.5286 39.0465
L45.9095 39.0465
" />
</g></g>
<g style="fill:#000000; fill-opacity:0.0; 
stroke:#000000; stroke-width:0.1000; stroke-opacity:1; 
stroke-linecap:round; stroke-linejoin:round;">
<path d="M52.0500 31.8750
L42.1500 31.8750
" />
<path d="M52.0500 26.1250
L52.0500 31.8750
" />
<path d="M50.2250 26.1250
L49.6000 27.1250
" />
<path d="M49.6000 27.1250
L48.9750 26.1250
" />
<path d="M42.1500 31.8750
L42.1500 26.1250
" />
<path d="M42.1500 26.1250
L52.0500 26.1250
" />
<path d="M45.3500 130.5000
L35.4500 130.5000
" />
<path d="M45.3500 124.7500
L45.3500 130.5000
" />
<path d="M43.5250 124.7500
L42.9000 125.7500
" />
<path d="M42.9000 125.7500
L42.2750 124.7500
" />
<path d="M35.4500 130.5000
L35.4500 124.7500
" />
<path d="M35.4500 124.7500
L45.3500 124.7500
" />
<path d="M158.7300 122.9606
L151.1100 122.9606
" />
<path d="M158.7300 117.8806
L158.7300 122.9606
" />
<path d="M157.8250 81.1956
L152.7450 81.1956
" />
<path d="M157.8250 74.5756
L157.8250 81.1956
" />
<path d="M156.8250 73.5756
L157.8250 74.5756
" />
<path d="M152.7450 81.1956
L152.7450 73.5756
" />
<path d="M152.7450 73.5756
L156.8250 73.5756
" />
<path d="M152.1100 117.8806
L158.7300 117.8806
" />
<path d="M151.1100 122.9606
L151.1100 118.8806
" />
<path d="M151.1100 118.8806
L152.1100 117.8806
" />
<path d="M121.5200 117.9056
L116.4400 117.9056
" />
<path d="M121.5200 68.1056
L121.5200 117.9056
" />
<path d="M120.5200 67.1056
L121.5200 68.1056
" />
<path d="M116.4400 117.9056
L116.4400 67.1056
" />
<path d="M116.4400 67.1056
L120.5200 67.1056
" />
<path d="M52.0500 39.6250
L42.1500 39.6250
" />
<path d="M52.0500 33.8750
L52.0500 39.6250
" />
<path d="M50.2250 33.8750
L49.6000 34.8750
" />
<path d="M49.6000 34.8750
L48.9750 33.8750
" />
<path d="M42.1500 39.6250
L42.1500 33.8750
" />
<path d="M42.1500 33.8750
L52.0500 33.8750
" />
<g >
</g>
<g >
</g>
<g >
</g>
<g >
</g>
<g >
</g>
<g >
</g>
<g >
</g>
<g >
</g>
<g >
</g>
<g >
</g>
<g >
</g>
<g >
</g>
<g >
</g>
<g >
</g>
<g >
</g>
<g >
</g>
<g >
</g>
<g >
</g>
<g >
</g>
<g >
</g>
<g >
</g>
<g >
</g>
<g >
</g>
<g >
</g>
<g >
</g>
<g >
</g>
<g >
</g>
<g >
</g>
<g >
</g>
<g >
</g>
<g >
</g>
<g >
</g>
<g >
</g>
<g >
</g>
<g >
</g>
<g >
</g>
<g >
</g>
<g >
</g>
<g >
</g>
<g >
</g>
<g >
</g>
<g >
</g>
<g >
</g>
<g >
</g>
<g >
</g>
<g >
</g>
<g >
</g>
<g >
</g>
<g >
</g>
<g >
</g>
<g >
</g>
<g >
</g>
<g >
</g>
<g >
</g>
<g >
</g>
<g >
</g>
<g >
</g>
<g >
</g>
<g >
</g>
<g >
</g>
<g >
</g>
<g >
</g>
<g >
</g>
<g >
</g>
<g >
</g>
<g >
</g>
<g >
</g>
<g >
</g>
<g >
</g>
<g >
</g>
<g >
</g>
<g >
</g>
<g >
</g>
<g >
</g>
<g >
</g>
<g >
</g>
<g >
</g>
<g >
</g>
<g >
</g>
<g >
</g>
<g >
</g>
<g >
</g>
<g >
</g>
<g >
</g>
<g >
</g>
<g >
</g>
<g >
</g>
<g >
</g>
<g >
</g>
<g >
</g>
<g >
</g>
<g >
</g>
<g >
</g>
<g >
</g>
<g >
</g>
<g >
</g>
<g >
</g>
<g >
</g>
<g >
</g>
<g >
</g>
<g >
</g>
<g >
</g>
<g >
</g>
<g >
</g>
<g >
</g>
<g >
</g>
<g >
</g>
<g >
</g>
<g >
</g>
<g >
</g>
<g >
</g>
<g >
</g>
<g >
</g>
<g >
</g>
<g >
</g>
<g >
</g>
<g >
</g>
<g >
</g>
<g >
</g>
<g >
</g>
<g >
</g>
<g >
</g>
<g >
</g>
<g >
</g>
<g >
</g>
<g >
</g>
<g >
</g>
<g >
</g>
<g >
</g>
<g >
</g>
</g> 
</svg>
