<?xml version="1.0" standalone="no"?>
 <!DOCTYPE svg PUBLIC "-//W3C//DTD SVG 1.1//EN" 
 "http://www.w3.org/Graphics/SVG/1.1/DTD/svg11.dtd"> 
<svg
  xmlns:svg="http://www.w3.org/2000/svg"
  xmlns="http://www.w3.org/2000/svg"
  xmlns:xlink="http://www.w3.org/1999/xlink"
  version="1.1"
  width="297.0022mm" height="210.0072mm" viewBox="0.0000 0.0000 297.0022 210.0072">
<title>SVG Image created as pedalboard-hw-F_Courtyard.svg date 2023/09/10 23:39:45 </title>
  <desc>Image generated by PCBNEW </desc>
<g style="fill:#000000; fill-opacity:1.0000;stroke:#000000; stroke-opacity:1.0000;
stroke-linecap:round; stroke-linejoin:round;"
 transform="translate(0 0) scale(1 1)">
</g>
<g style="fill:#000000; fill-opacity:0.0; 
stroke:#000000; stroke-width:0.0000; stroke-opacity:1; 
stroke-linecap:round; stroke-linejoin:round;">
</g>
<g style="fill:#000000; fill-opacity:0.0; 
stroke:#000000; stroke-width:0.0500; stroke-opacity:1; 
stroke-linecap:round; stroke-linejoin:round;">
<path d="M138.8000 43.0200
L142.2000 43.0200
" />
<path d="M138.8000 44.9800
L138.8000 43.0200
" />
<path d="M142.2000 43.0200
L142.2000 44.9800
" />
<path d="M142.2000 44.9800
L138.8000 44.9800
" />
<path d="M122.2500 32.4500
L122.2500 19.7500
" />
<path d="M122.2500 19.7500
L119.2500 19.7500
" />
<path d="M119.2500 19.7500
L119.2500 17.9500
" />
<path d="M119.2500 17.9500
L112.7500 17.9500
" />
<path d="M112.7500 19.7500
L109.7500 19.7500
" />
<path d="M112.7500 17.9500
L112.7500 19.7500
" />
<path d="M109.7500 32.4500
L122.2500 32.4500
" />
<path d="M109.7500 20.0000
L109.7500 32.4500
" />
<path d="M109.7500 19.7500
L109.7500 20.0000
" />
<circle cx="133.0000" cy="23.0000" r="2.6000" /> 
<path d="M41.7300 92.9700
L41.7300 113.2000
" />
<path d="M41.7300 92.9700
L14.2000 92.9700
" />
<path d="M14.2000 113.2000
L41.7300 113.2000
" />
<path d="M14.2000 92.9700
L14.2000 113.2000
" />
<path d="M156.9500 42.8700
L160.3500 42.8700
" />
<path d="M156.9500 44.8300
L156.9500 42.8700
" />
<path d="M160.3500 42.8700
L160.3500 44.8300
" />
<path d="M160.3500 44.8300
L156.9500 44.8300
" />
<path d="M184.4000 31.8000
L184.4000 16.3000
" />
<path d="M184.4000 16.3000
L174.4000 16.3000
" />
<path d="M174.4000 31.8000
L184.4000 31.8000
" />
<path d="M174.4000 29.9000
L174.4000 31.8000
" />
<path d="M174.4000 16.3000
L174.4000 24.9000
" />
<path d="M173.2000 29.9000
L174.4000 29.9000
" />
<path d="M173.2000 29.9000
L173.2000 24.9000
" />
<path d="M173.2000 24.9000
L174.4000 24.9000
" />
<circle cx="30.0000" cy="119.0000" r="3.2000" /> 
<path d="M42.5000 64.5000
L37.5000 64.5000
" />
<path d="M37.5000 64.5000
L37.5000 69.5000
" />
<path d="M42.5000 69.5000
L42.5000 64.5000
" />
<path d="M37.5000 69.5000
L42.5000 69.5000
" />
<path d="M129.7300 43.0200
L129.7300 45.9800
" />
<path d="M128.2700 43.0200
L129.7300 43.0200
" />
<path d="M129.7300 45.9800
L128.2700 45.9800
" />
<path d="M128.2700 45.9800
L128.2700 43.0200
" />
<path d="M165.7300 25.5000
L165.7300 28.9000
" />
<path d="M163.7700 25.5000
L165.7300 25.5000
" />
<path d="M165.7300 28.9000
L163.7700 28.9000
" />
<path d="M163.7700 28.9000
L163.7700 25.5000
" />
<path d="M112.1500 45.2500
L112.1500 50.7500
" />
<path d="M112.1500 50.7500
L119.0500 50.7500
" />
<path d="M119.0500 45.2500
L112.1500 45.2500
" />
<path d="M119.0500 50.7500
L119.0500 45.2500
" />
<circle cx="105.0000" cy="67.0000" r="3.2000" /> 
<circle cx="30.0000" cy="67.0000" r="3.2000" /> 
<path d="M41.7650 72.7700
L41.7650 93.0000
" />
<path d="M41.7650 72.7700
L14.2350 72.7700
" />
<path d="M14.2350 93.0000
L41.7650 93.0000
" />
<path d="M14.2350 72.7700
L14.2350 93.0000
" />
<path d="M147.7500 68.7300
L121.8500 68.7300
" />
<path d="M121.8500 68.7300
L121.8500 94.6300
" />
<path d="M147.7500 94.6300
L147.7500 68.7300
" />
<path d="M121.8500 94.6300
L147.7500 94.6300
" />
<path d="M168.2700 113.2250
L168.2700 92.9950
" />
<path d="M168.2700 113.2250
L195.8000 113.2250
" />
<path d="M195.8000 92.9950
L168.2700 92.9950
" />
<path d="M195.8000 113.2250
L195.8000 92.9950
" />
<path d="M137.1500 45.2500
L137.1500 50.7500
" />
<path d="M137.1500 50.7500
L144.0500 50.7500
" />
<path d="M144.0500 45.2500
L137.1500 45.2500
" />
<path d="M144.0500 50.7500
L144.0500 45.2500
" />
<circle cx="118.9800" cy="121.5200" r="2.6000" /> 
<path d="M167.5000 121.5000
L172.5000 121.5000
" />
<path d="M172.5000 121.5000
L172.5000 116.5000
" />
<path d="M167.5000 116.5000
L167.5000 121.5000
" />
<path d="M172.5000 116.5000
L167.5000 116.5000
" />
<path d="M42.5000 116.5000
L37.5000 116.5000
" />
<path d="M37.5000 116.5000
L37.5000 121.5000
" />
<path d="M42.5000 121.5000
L42.5000 116.5000
" />
<path d="M37.5000 121.5000
L42.5000 121.5000
" />
<path d="M100.0000 63.3000
L100.0000 70.7000
" />
<path d="M100.0000 70.7000
L110.0000 70.7000
" />
<path d="M110.0000 63.3000
L100.0000 63.3000
" />
<path d="M110.0000 70.7000
L110.0000 63.3000
" />
<path d="M92.5000 69.5000
L97.5000 69.5000
" />
<path d="M97.5000 69.5000
L97.5000 64.5000
" />
<path d="M92.5000 64.5000
L92.5000 69.5000
" />
<path d="M97.5000 64.5000
L92.5000 64.5000
" />
<path d="M76.5300 48.6000
L73.1700 48.6000
" />
<path d="M76.5300 46.7000
L76.5300 48.6000
" />
<path d="M73.1700 48.6000
L73.1700 46.7000
" />
<path d="M73.1700 46.7000
L76.5300 46.7000
" />
<circle cx="77.0000" cy="23.0000" r="2.6000" /> 
<path d="M156.0800 42.7200
L156.0800 47.2800
" />
<path d="M152.9200 42.7200
L156.0800 42.7200
" />
<path d="M156.0800 47.2800
L152.9200 47.2800
" />
<path d="M152.9200 47.2800
L152.9200 42.7200
" />
<path d="M168.2850 52.0300
L168.2850 31.8000
" />
<path d="M168.2850 52.0300
L195.8150 52.0300
" />
<path d="M195.8150 31.8000
L168.2850 31.8000
" />
<path d="M195.8150 52.0300
L195.8150 31.8000
" />
<path d="M65.8000 22.5200
L69.2000 22.5200
" />
<path d="M65.8000 24.4800
L65.8000 22.5200
" />
<path d="M69.2000 22.5200
L69.2000 24.4800
" />
<path d="M69.2000 24.4800
L65.8000 24.4800
" />
<path d="M87.1500 45.2500
L87.1500 50.7500
" />
<path d="M87.1500 50.7500
L94.0500 50.7500
" />
<path d="M94.0500 45.2500
L87.1500 45.2500
" />
<path d="M94.0500 50.7500
L94.0500 45.2500
" />
<path d="M58.7500 26.3000
L58.7500 41.7000
" />
<path d="M58.7500 26.3000
L76.2500 26.3000
" />
<path d="M76.2500 41.7000
L58.7500 41.7000
" />
<path d="M76.2500 41.7000
L76.2500 26.3000
" />
<path d="M63.8000 43.0200
L67.2000 43.0200
" />
<path d="M63.8000 44.9800
L63.8000 43.0200
" />
<path d="M67.2000 43.0200
L67.2000 44.9800
" />
<path d="M67.2000 44.9800
L63.8000 44.9800
" />
<path d="M148.8500 55.9000
L145.8500 55.9000
" />
<path d="M145.8500 55.9000
L145.8500 56.7500
" />
<path d="M151.6000 56.7500
L148.8500 56.7500
" />
<path d="M151.6000 56.7500
L152.7500 57.9000
" />
<path d="M148.8500 56.7500
L148.8500 55.9000
" />
<path d="M145.8500 56.7500
L143.1000 56.7500
" />
<path d="M143.1000 56.7500
L141.9500 57.9000
" />
<path d="M152.7500 57.9000
L152.7500 67.5500
" />
<path d="M141.9500 57.9000
L141.9500 67.5500
" />
<path d="M152.7500 67.5500
L148.8500 67.5500
" />
<path d="M148.8500 67.5500
L148.8500 68.4000
" />
<path d="M145.8500 67.5500
L141.9500 67.5500
" />
<path d="M148.8500 68.4000
L145.8500 68.4000
" />
<path d="M145.8500 68.4000
L145.8500 67.5500
" />
<path d="M167.5000 69.5000
L172.5000 69.5000
" />
<path d="M172.5000 69.5000
L172.5000 64.5000
" />
<path d="M167.5000 64.5000
L167.5000 69.5000
" />
<path d="M172.5000 64.5000
L167.5000 64.5000
" />
<circle cx="180.0000" cy="67.0000" r="3.2000" /> 
<path d="M48.6800 35.9500
L45.3200 35.9500
" />
<path d="M48.6800 34.0500
L48.6800 35.9500
" />
<path d="M45.3200 35.9500
L45.3200 34.0500
" />
<path d="M45.3200 34.0500
L48.6800 34.0500
" />
<path d="M141.8500 64.9000
L141.8500 61.9000
" />
<path d="M141.8500 61.9000
L141.0000 61.9000
" />
<path d="M141.0000 67.6500
L141.0000 64.9000
" />
<path d="M141.0000 67.6500
L139.8500 68.8000
" />
<path d="M141.0000 64.9000
L141.8500 64.9000
" />
<path d="M141.0000 61.9000
L141.0000 59.1500
" />
<path d="M141.0000 59.1500
L139.8500 58.0000
" />
<path d="M139.8500 68.8000
L130.2000 68.8000
" />
<path d="M139.8500 58.0000
L130.2000 58.0000
" />
<path d="M130.2000 68.8000
L130.2000 64.9000
" />
<path d="M130.2000 64.9000
L129.3500 64.9000
" />
<path d="M130.2000 61.9000
L130.2000 58.0000
" />
<path d="M129.3500 64.9000
L129.3500 61.9000
" />
<path d="M129.3500 61.9000
L130.2000 61.9000
" />
<path d="M62.1500 45.2500
L62.1500 50.7500
" />
<path d="M62.1500 50.7500
L69.0500 50.7500
" />
<path d="M69.0500 45.2500
L62.1500 45.2500
" />
<path d="M69.0500 50.7500
L69.0500 45.2500
" />
<path d="M88.8000 43.0200
L92.2000 43.0200
" />
<path d="M88.8000 44.9800
L88.8000 43.0200
" />
<path d="M92.2000 43.0200
L92.2000 44.9800
" />
<path d="M92.2000 44.9800
L88.8000 44.9800
" />
<path d="M168.2700 93.0100
L168.2700 72.7800
" />
<path d="M168.2700 93.0100
L195.8000 93.0100
" />
<path d="M195.8000 72.7800
L168.2700 72.7800
" />
<path d="M195.8000 93.0100
L195.8000 72.7800
" />
<circle cx="105.0000" cy="119.0000" r="3.2000" /> 
<path d="M25.0000 63.3000
L25.0000 70.7000
" />
<path d="M25.0000 70.7000
L35.0000 70.7000
" />
<path d="M35.0000 63.3000
L25.0000 63.3000
" />
<path d="M35.0000 70.7000
L35.0000 63.3000
" />
<path d="M128.3000 40.9200
L131.7000 40.9200
" />
<path d="M128.3000 42.8800
L128.3000 40.9200
" />
<path d="M131.7000 40.9200
L131.7000 42.8800
" />
<path d="M131.7000 42.8800
L128.3000 42.8800
" />
<path d="M43.3500 22.8300
L43.3500 27.1700
" />
<path d="M43.3500 27.1700
L54.6500 27.1700
" />
<path d="M54.6500 22.8300
L43.3500 22.8300
" />
<path d="M54.6500 27.1700
L54.6500 22.8300
" />
<path d="M55.3200 22.0500
L58.6800 22.0500
" />
<path d="M55.3200 23.9500
L55.3200 22.0500
" />
<path d="M58.6800 22.0500
L58.6800 23.9500
" />
<path d="M58.6800 23.9500
L55.3200 23.9500
" />
<path d="M154.2823 36.0000
L154.2823 39.0000
" />
<path d="M154.2823 39.0000
L155.1323 39.0000
" />
<path d="M155.1323 33.2500
L155.1323 36.0000
" />
<path d="M155.1323 33.2500
L156.2823 32.1000
" />
<path d="M155.1323 36.0000
L154.2823 36.0000
" />
<path d="M155.1323 39.0000
L155.1323 41.7500
" />
<path d="M155.1323 41.7500
L156.2823 42.9000
" />
<path d="M156.2823 32.1000
L165.9323 32.1000
" />
<path d="M156.2823 42.9000
L165.9323 42.9000
" />
<path d="M165.9323 32.1000
L165.9323 36.0000
" />
<path d="M165.9323 36.0000
L166.7823 36.0000
" />
<path d="M165.9323 39.0000
L165.9323 42.9000
" />
<path d="M166.7823 36.0000
L166.7823 39.0000
" />
<path d="M166.7823 39.0000
L165.9323 39.0000
" />
<path d="M102.5000 106.5000
L102.5000 111.5000
" />
<path d="M102.5000 111.5000
L107.5000 111.5000
" />
<path d="M107.5000 106.5000
L102.5000 106.5000
" />
<path d="M107.5000 111.5000
L107.5000 106.5000
" />
<path d="M47.8200 31.0500
L51.1800 31.0500
" />
<path d="M47.8200 32.9500
L47.8200 31.0500
" />
<path d="M51.1800 31.0500
L51.1800 32.9500
" />
<path d="M51.1800 32.9500
L47.8200 32.9500
" />
<path d="M55.2300 30.5200
L55.2300 33.4800
" />
<path d="M53.7700 30.5200
L55.2300 30.5200
" />
<path d="M55.2300 33.4800
L53.7700 33.4800
" />
<path d="M53.7700 33.4800
L53.7700 30.5200
" />
<path d="M151.7500 51.9000
L147.1500 51.9000
" />
<path d="M151.7500 49.6000
L151.7500 51.9000
" />
<path d="M147.1500 51.9000
L147.1500 49.6000
" />
<path d="M147.1500 49.6000
L151.7500 49.6000
" />
<path d="M41.8500 37.2000
L44.1500 37.2000
" />
<path d="M41.8500 37.2000
L41.8500 32.8000
" />
<path d="M41.8500 32.8000
L44.1500 32.8000
" />
<path d="M44.1500 32.8000
L44.1500 37.2000
" />
<path d="M113.8000 43.0200
L117.2000 43.0200
" />
<path d="M113.8000 44.9800
L113.8000 43.0200
" />
<path d="M117.2000 43.0200
L117.2000 44.9800
" />
<path d="M117.2000 44.9800
L113.8000 44.9800
" />
<path d="M52.4800 35.7300
L49.5200 35.7300
" />
<path d="M52.4800 34.2700
L52.4800 35.7300
" />
<path d="M49.5200 35.7300
L49.5200 34.2700
" />
<path d="M49.5200 34.2700
L52.4800 34.2700
" />
<path d="M172.6500 30.7000
L166.7500 30.7000
" />
<path d="M172.6500 26.8000
L172.6500 30.7000
" />
<path d="M166.7500 30.7000
L166.7500 26.8000
" />
<path d="M166.7500 26.8000
L172.6500 26.8000
" />
<circle cx="118.9000" cy="63.5656" r="2.6000" /> 
<path d="M152.6800 55.5000
L152.6800 58.9000
" />
<path d="M150.7200 55.5000
L152.6800 55.5000
" />
<path d="M152.6800 58.9000
L150.7200 58.9000
" />
<path d="M150.7200 58.9000
L150.7200 55.5000
" />
<path d="M175.0000 115.3000
L175.0000 122.7000
" />
<path d="M175.0000 122.7000
L185.0000 122.7000
" />
<path d="M185.0000 115.3000
L175.0000 115.3000
" />
<path d="M185.0000 122.7000
L185.0000 115.3000
" />
<circle cx="180.0000" cy="119.0000" r="3.2000" /> 
<path d="M175.0000 63.3000
L175.0000 70.7000
" />
<path d="M175.0000 70.7000
L185.0000 70.7000
" />
<path d="M185.0000 63.3000
L175.0000 63.3000
" />
<path d="M185.0000 70.7000
L185.0000 63.3000
" />
<path d="M25.0000 115.3000
L25.0000 122.7000
" />
<path d="M25.0000 122.7000
L35.0000 122.7000
" />
<path d="M35.0000 115.3000
L25.0000 115.3000
" />
<path d="M35.0000 122.7000
L35.0000 115.3000
" />
<circle cx="168.0000" cy="23.0000" r="2.6000" /> 
<path d="M47.9800 29.7300
L45.0200 29.7300
" />
<path d="M47.9800 28.2700
L47.9800 29.7300
" />
<path d="M45.0200 29.7300
L45.0200 28.2700
" />
<path d="M45.0200 28.2700
L47.9800 28.2700
" />
<path d="M133.7500 26.3000
L133.7500 41.7000
" />
<path d="M133.7500 26.3000
L151.2500 26.3000
" />
<path d="M151.2500 41.7000
L133.7500 41.7000
" />
<path d="M151.2500 41.7000
L151.2500 26.3000
" />
<path d="M100.0000 115.3000
L100.0000 122.7000
" />
<path d="M100.0000 122.7000
L110.0000 122.7000
" />
<path d="M110.0000 115.3000
L100.0000 115.3000
" />
<path d="M110.0000 122.7000
L110.0000 115.3000
" />
<path d="M155.0500 67.0000
L155.0500 62.4000
" />
<path d="M157.3500 67.0000
L155.0500 67.0000
" />
<path d="M155.0500 62.4000
L157.3500 62.4000
" />
<path d="M157.3500 62.4000
L157.3500 67.0000
" />
<path d="M151.3560 39.5784
L151.3560 46.5784
" />
<path d="M147.8560 39.5784
L151.3560 39.5784
" />
<path d="M151.3560 46.5784
L147.8560 46.5784
" />
<path d="M147.8560 46.5784
L147.8560 39.5784
" />
<path d="M62.7300 21.5200
L62.7300 24.4800
" />
<path d="M61.2700 21.5200
L62.7300 21.5200
" />
<path d="M62.7300 24.4800
L61.2700 24.4800
" />
<path d="M61.2700 24.4800
L61.2700 21.5200
" />
<path d="M100.2500 32.4500
L100.2500 19.7500
" />
<path d="M100.2500 19.7500
L97.2500 19.7500
" />
<path d="M97.2500 19.7500
L97.2500 17.9500
" />
<path d="M97.2500 17.9500
L90.7500 17.9500
" />
<path d="M90.7500 19.7500
L87.7500 19.7500
" />
<path d="M90.7500 17.9500
L90.7500 19.7500
" />
<path d="M87.7500 32.4500
L100.2500 32.4500
" />
<path d="M87.7500 20.0000
L87.7500 32.4500
" />
<path d="M87.7500 19.7500
L87.7500 20.0000
" />
<g >
</g>
<g >
</g>
<g >
</g>
<g >
</g>
<g >
</g>
<g >
</g>
<g >
</g>
<g >
</g>
<g >
</g>
<g >
</g>
<g >
</g>
<g >
</g>
<g >
</g>
<g >
</g>
<g >
</g>
<g >
</g>
<g >
</g>
<g >
</g>
<g >
</g>
<g >
</g>
<g >
</g>
<g >
</g>
<g >
</g>
<g >
</g>
<g >
</g>
<g >
</g>
<g >
</g>
<g >
</g>
<g >
</g>
<g >
</g>
<g >
</g>
<g >
</g>
<g >
</g>
<g >
</g>
<g >
</g>
<g >
</g>
<g >
</g>
<g >
</g>
<g >
</g>
<g >
</g>
<g >
</g>
<g >
</g>
<g >
</g>
<g >
</g>
<g >
</g>
<g >
</g>
<g >
</g>
<g >
</g>
<g >
</g>
<g >
</g>
<g >
</g>
<g >
</g>
<g >
</g>
<g >
</g>
<g >
</g>
<g >
</g>
<g >
</g>
<g >
</g>
<g >
</g>
<g >
</g>
<g >
</g>
<g >
</g>
<g >
</g>
<g >
</g>
<g >
</g>
<g >
</g>
<g >
</g>
<g >
</g>
<g >
</g>
<g >
</g>
<g >
</g>
<g >
</g>
<g >
</g>
<g >
</g>
<g >
</g>
<g >
</g>
<g >
</g>
<g >
</g>
<g >
</g>
<g >
</g>
<g >
</g>
<g >
</g>
<g >
</g>
<g >
</g>
<g >
</g>
<g >
</g>
</g> 
</svg>
