<?xml version="1.0" standalone="no"?>
 <!DOCTYPE svg PUBLIC "-//W3C//DTD SVG 1.1//EN" 
 "http://www.w3.org/Graphics/SVG/1.1/DTD/svg11.dtd"> 
<svg
  xmlns:svg="http://www.w3.org/2000/svg"
  xmlns="http://www.w3.org/2000/svg"
  xmlns:xlink="http://www.w3.org/1999/xlink"
  version="1.1"
  width="297.0022mm" height="210.0072mm" viewBox="0.0000 0.0000 297.0022 210.0072">
<title>SVG Image created as pedalboard-hw-B_Courtyard.svg date 2023/10/12 20:37:54 </title>
  <desc>Image generated by PCBNEW </desc>
<g style="fill:#000000; fill-opacity:1.0000;stroke:#000000; stroke-opacity:1.0000;
stroke-linecap:round; stroke-linejoin:round;"
 transform="translate(0 0) scale(1 1)">
</g>
<g style="fill:#000000; fill-opacity:0.0; 
stroke:#000000; stroke-width:0.0000; stroke-opacity:1; 
stroke-linecap:round; stroke-linejoin:round;">
</g>
<g style="fill:#000000; fill-opacity:0.0; 
stroke:#000000; stroke-width:0.0500; stroke-opacity:1; 
stroke-linecap:round; stroke-linejoin:round;">
<path d="M47.7900 108.1200
L99.6400 108.1200
" />
<path d="M99.6400 108.1200
L99.6400 101.9700
" />
<path d="M47.7900 101.9700
L47.7900 108.1200
" />
<path d="M99.6400 101.9700
L47.7900 101.9700
" />
<path d="M111.8250 88.3800
L115.4250 88.3800
" />
<path d="M111.8250 99.5800
L111.8250 88.3800
" />
<path d="M115.4250 88.3800
L115.4250 99.5800
" />
<path d="M115.4250 99.5800
L111.8250 99.5800
" />
<path d="M133.2750 55.5000
L145.6250 55.5000
" />
<path d="M133.2750 61.6500
L133.2750 55.5000
" />
<path d="M145.6250 55.5000
L145.6250 61.6500
" />
<path d="M145.6250 61.6500
L133.2750 61.6500
" />
<circle cx="127.0019" cy="50.0066" r="0.9652" /> 
<circle cx="127.0000" cy="48.0000" r="0.9655" /> 
<path d="M88.2500 76.5500
L85.7500 76.5500
" />
<path d="M88.2500 76.5500
L88.2500 73.2500
" />
<path d="M85.7500 73.2500
L85.7500 76.5500
" />
<path d="M85.7500 73.2500
L88.2500 73.2500
" />
</g>
<g style="fill:#000000; fill-opacity:0.0; 
stroke:#000000; stroke-width:0.1200; stroke-opacity:1; 
stroke-linecap:round; stroke-linejoin:round;">
<path d="M77.0000 60.0000
L129.0000 60.0000
" />
<path d="M129.0000 60.0000
L129.0000 38.0000
" />
<path d="M77.0000 38.0000
L77.0000 60.0000
" />
<path d="M129.0000 38.0000
L77.0000 38.0000
" />
</g>
<g style="fill:#000000; fill-opacity:0.0; 
stroke:#000000; stroke-width:0.0500; stroke-opacity:1; 
stroke-linecap:round; stroke-linejoin:round;">
<path d="M85.7500 76.5500
L83.2500 76.5500
" />
<path d="M85.7500 76.5500
L85.7500 73.2500
" />
<path d="M83.2500 73.2500
L83.2500 76.5500
" />
<path d="M83.2500 73.2500
L85.7500 73.2500
" />
<path d="M37.1000 122.3750
L49.4500 122.3750
" />
<path d="M37.1000 131.0250
L37.1000 122.3750
" />
<path d="M49.4500 122.3750
L49.4500 131.0250
" />
<path d="M49.4500 131.0250
L37.1000 131.0250
" />
<path d="M159.2300 123.4906
L150.5800 123.4906
" />
<path d="M159.2300 117.3906
L159.2300 123.4906
" />
<path d="M158.3150 81.6956
L152.2150 81.6956
" />
<path d="M158.3150 73.0456
L158.3150 81.6956
" />
<path d="M152.2150 81.6956
L152.2150 73.0456
" />
<path d="M152.2150 73.0456
L158.3150 73.0456
" />
<path d="M150.5800 123.4906
L150.5800 117.3906
" />
<path d="M150.5800 117.3906
L159.2300 117.3906
" />
<path d="M122.0100 118.3756
L115.9100 118.3756
" />
<path d="M122.0100 66.5756
L122.0100 118.3756
" />
<path d="M115.9100 118.3756
L115.9100 66.5756
" />
<path d="M115.9100 66.5756
L122.0100 66.5756
" />
<path d="M43.0500 38.0750
L57.9500 38.0750
" />
<path d="M43.0500 46.7250
L43.0500 38.0750
" />
<path d="M57.9500 38.0750
L57.9500 46.7250
" />
<path d="M57.9500 46.7250
L43.0500 46.7250
" />
<g >
</g>
<g >
</g>
<g >
</g>
<g >
</g>
<g >
</g>
<g >
</g>
<g >
</g>
<g >
</g>
<g >
</g>
<g >
</g>
<g >
</g>
<g >
</g>
<g >
</g>
<g >
</g>
<g >
</g>
<g >
</g>
<g >
</g>
<g >
</g>
<g >
</g>
<g >
</g>
<g >
</g>
<g >
</g>
<g >
</g>
<g >
</g>
<g >
</g>
<g >
</g>
<g >
</g>
<g >
</g>
<g >
</g>
<g >
</g>
<g >
</g>
<g >
</g>
<g >
</g>
<g >
</g>
<g >
</g>
<g >
</g>
<g >
</g>
<g >
</g>
<g >
</g>
<g >
</g>
<g >
</g>
<g >
</g>
<g >
</g>
<g >
</g>
<g >
</g>
<g >
</g>
<g >
</g>
<g >
</g>
<g >
</g>
<g >
</g>
<g >
</g>
<g >
</g>
<g >
</g>
<g >
</g>
<g >
</g>
<g >
</g>
<g >
</g>
<g >
</g>
<g >
</g>
<g >
</g>
<g >
</g>
<g >
</g>
<g >
</g>
<g >
</g>
<g >
</g>
<g >
</g>
<g >
</g>
<g >
</g>
<g >
</g>
<g >
</g>
<g >
</g>
<g >
</g>
<g >
</g>
<g >
</g>
<g >
</g>
<g >
</g>
<g >
</g>
<g >
</g>
<g >
</g>
<g >
</g>
<g >
</g>
<g >
</g>
<g >
</g>
<g >
</g>
<g >
</g>
</g> 
</svg>
