<?xml version="1.0" standalone="no"?>
 <!DOCTYPE svg PUBLIC "-//W3C//DTD SVG 1.1//EN" 
 "http://www.w3.org/Graphics/SVG/1.1/DTD/svg11.dtd"> 
<svg
  xmlns:svg="http://www.w3.org/2000/svg"
  xmlns="http://www.w3.org/2000/svg"
  xmlns:xlink="http://www.w3.org/1999/xlink"
  version="1.1"
  width="297.0022mm" height="210.0072mm" viewBox="0.0000 0.0000 297.0022 210.0072">
<title>SVG Image created as pedalboard-hw-B_Courtyard.svg date 2023/10/22 16:41:39 </title>
  <desc>Image generated by PCBNEW </desc>
<g style="fill:#000000; fill-opacity:1.0000;stroke:#000000; stroke-opacity:1.0000;
stroke-linecap:round; stroke-linejoin:round;"
 transform="translate(0 0) scale(1 1)">
</g>
<g style="fill:#000000; fill-opacity:0.0; 
stroke:#000000; stroke-width:0.0000; stroke-opacity:1; 
stroke-linecap:round; stroke-linejoin:round;">
</g>
<g style="fill:#000000; fill-opacity:0.0; 
stroke:#000000; stroke-width:0.0500; stroke-opacity:1; 
stroke-linecap:round; stroke-linejoin:round;">
<path d="M52.5500 32.3750
L41.6500 32.3750
" />
<path d="M52.5500 25.6250
L52.5500 32.3750
" />
<path d="M41.6500 32.3750
L41.6500 25.6250
" />
<path d="M41.6500 25.6250
L52.5500 25.6250
" />
<path d="M45.8500 131.0000
L34.9500 131.0000
" />
<path d="M45.8500 124.2500
L45.8500 131.0000
" />
<path d="M34.9500 131.0000
L34.9500 124.2500
" />
<path d="M34.9500 124.2500
L45.8500 124.2500
" />
<path d="M159.2300 123.4906
L150.5800 123.4906
" />
<path d="M159.2300 117.3906
L159.2300 123.4906
" />
<path d="M158.3150 81.6956
L152.2150 81.6956
" />
<path d="M158.3150 73.0456
L158.3150 81.6956
" />
<path d="M152.2150 81.6956
L152.2150 73.0456
" />
<path d="M152.2150 73.0456
L158.3150 73.0456
" />
<path d="M150.5800 123.4906
L150.5800 117.3906
" />
<path d="M150.5800 117.3906
L159.2300 117.3906
" />
<path d="M122.0100 118.3756
L115.9100 118.3756
" />
<path d="M122.0100 66.5756
L122.0100 118.3756
" />
<path d="M115.9100 118.3756
L115.9100 66.5756
" />
<path d="M115.9100 66.5756
L122.0100 66.5756
" />
<path d="M52.5500 40.1250
L41.6500 40.1250
" />
<path d="M52.5500 33.3750
L52.5500 40.1250
" />
<path d="M41.6500 40.1250
L41.6500 33.3750
" />
<path d="M41.6500 33.3750
L52.5500 33.3750
" />
<g >
</g>
<g >
</g>
<g >
</g>
<g >
</g>
<g >
</g>
<g >
</g>
<g >
</g>
<g >
</g>
<g >
</g>
<g >
</g>
<g >
</g>
<g >
</g>
<g >
</g>
<g >
</g>
<g >
</g>
<g >
</g>
<g >
</g>
<g >
</g>
<g >
</g>
<g >
</g>
<g >
</g>
<g >
</g>
<g >
</g>
<g >
</g>
<g >
</g>
<g >
</g>
<g >
</g>
<g >
</g>
<g >
</g>
<g >
</g>
<g >
</g>
<g >
</g>
<g >
</g>
<g >
</g>
<g >
</g>
<g >
</g>
<g >
</g>
<g >
</g>
<g >
</g>
<g >
</g>
<g >
</g>
<g >
</g>
<g >
</g>
<g >
</g>
<g >
</g>
<g >
</g>
<g >
</g>
<g >
</g>
<g >
</g>
<g >
</g>
<g >
</g>
<g >
</g>
<g >
</g>
<g >
</g>
<g >
</g>
<g >
</g>
<g >
</g>
<g >
</g>
<g >
</g>
<g >
</g>
<g >
</g>
<g >
</g>
<g >
</g>
<g >
</g>
<g >
</g>
<g >
</g>
<g >
</g>
<g >
</g>
<g >
</g>
<g >
</g>
<g >
</g>
<g >
</g>
<g >
</g>
<g >
</g>
<g >
</g>
<g >
</g>
<g >
</g>
<g >
</g>
<g >
</g>
<g >
</g>
<g >
</g>
<g >
</g>
<g >
</g>
<g >
</g>
<g >
</g>
<g >
</g>
<g >
</g>
<g >
</g>
<g >
</g>
<g >
</g>
<g >
</g>
<g >
</g>
<g >
</g>
<g >
</g>
<g >
</g>
<g >
</g>
<g >
</g>
<g >
</g>
<g >
</g>
<g >
</g>
<g >
</g>
<g >
</g>
<g >
</g>
<g >
</g>
<g >
</g>
<g >
</g>
<g >
</g>
<g >
</g>
<g >
</g>
<g >
</g>
<g >
</g>
<g >
</g>
<g >
</g>
<g >
</g>
<g >
</g>
<g >
</g>
<g >
</g>
<g >
</g>
<g >
</g>
<g >
</g>
<g >
</g>
<g >
</g>
<g >
</g>
<g >
</g>
<g >
</g>
<g >
</g>
<g >
</g>
<g >
</g>
<g >
</g>
<g >
</g>
<g >
</g>
<g >
</g>
</g> 
</svg>
