<?xml version="1.0" standalone="no"?>
 <!DOCTYPE svg PUBLIC "-//W3C//DTD SVG 1.1//EN" 
 "http://www.w3.org/Graphics/SVG/1.1/DTD/svg11.dtd"> 
<svg
  xmlns:svg="http://www.w3.org/2000/svg"
  xmlns="http://www.w3.org/2000/svg"
  xmlns:xlink="http://www.w3.org/1999/xlink"
  version="1.1"
  width="297.0022mm" height="210.0072mm" viewBox="0.0000 0.0000 297.0022 210.0072">
<title>SVG Image created as pedalboard-hw-B_Fab.svg date 2023/12/04 21:28:39 </title>
  <desc>Image generated by PCBNEW </desc>
<g style="fill:#000000; fill-opacity:1.0000;stroke:#000000; stroke-opacity:1.0000;
stroke-linecap:round; stroke-linejoin:round;"
 transform="translate(0 0) scale(1 1)">
</g>
<g style="fill:#000000; fill-opacity:0.0; 
stroke:#000000; stroke-width:0.0000; stroke-opacity:1; 
stroke-linecap:round; stroke-linejoin:round;">
</g>
<g style="fill:#000000; fill-opacity:0.0; 
stroke:#000000; stroke-width:0.1500; stroke-opacity:1; 
stroke-linecap:round; stroke-linejoin:round;">
<text x="30.0000" y="123.2000"
transform="scale(-1 1) translate(-60.000000 0)"
textLength="5.3452" font-size="1.3333" lengthAdjust="spacingAndGlyphs"
text-anchor="middle" opacity="0">Spacer</text>
<g class="stroked-text"><desc>Spacer</desc>
<path d="M32.3571 123.1072
L32.2143 123.1548
" />
<path d="M32.2143 123.1548
L31.9762 123.1548
" />
<path d="M31.9762 123.1548
L31.8810 123.1072
" />
<path d="M31.8810 123.1072
L31.8333 123.0596
" />
<path d="M31.8333 123.0596
L31.7857 122.9643
" />
<path d="M31.7857 122.9643
L31.7857 122.8691
" />
<path d="M31.7857 122.8691
L31.8333 122.7739
" />
<path d="M31.8333 122.7739
L31.8810 122.7262
" />
<path d="M31.8810 122.7262
L31.9762 122.6786
" />
<path d="M31.9762 122.6786
L32.1667 122.6310
" />
<path d="M32.1667 122.6310
L32.2619 122.5834
" />
<path d="M32.2619 122.5834
L32.3095 122.5358
" />
<path d="M32.3095 122.5358
L32.3571 122.4405
" />
<path d="M32.3571 122.4405
L32.3571 122.3453
" />
<path d="M32.3571 122.3453
L32.3095 122.2501
" />
<path d="M32.3095 122.2501
L32.2619 122.2024
" />
<path d="M32.2619 122.2024
L32.1667 122.1548
" />
<path d="M32.1667 122.1548
L31.9286 122.1548
" />
<path d="M31.9286 122.1548
L31.7857 122.2024
" />
<path d="M31.3571 122.4882
L31.3571 123.4882
" />
<path d="M31.3571 122.5358
L31.2619 122.4882
" />
<path d="M31.2619 122.4882
L31.0714 122.4882
" />
<path d="M31.0714 122.4882
L30.9762 122.5358
" />
<path d="M30.9762 122.5358
L30.9286 122.5834
" />
<path d="M30.9286 122.5834
L30.8810 122.6786
" />
<path d="M30.8810 122.6786
L30.8810 122.9643
" />
<path d="M30.8810 122.9643
L30.9286 123.0596
" />
<path d="M30.9286 123.0596
L30.9762 123.1072
" />
<path d="M30.9762 123.1072
L31.0714 123.1548
" />
<path d="M31.0714 123.1548
L31.2619 123.1548
" />
<path d="M31.2619 123.1548
L31.3571 123.1072
" />
<path d="M30.0238 123.1548
L30.0238 122.6310
" />
<path d="M30.0238 122.6310
L30.0714 122.5358
" />
<path d="M30.0714 122.5358
L30.1667 122.4882
" />
<path d="M30.1667 122.4882
L30.3571 122.4882
" />
<path d="M30.3571 122.4882
L30.4524 122.5358
" />
<path d="M30.0238 123.1072
L30.1190 123.1548
" />
<path d="M30.1190 123.1548
L30.3571 123.1548
" />
<path d="M30.3571 123.1548
L30.4524 123.1072
" />
<path d="M30.4524 123.1072
L30.5000 123.0120
" />
<path d="M30.5000 123.0120
L30.5000 122.9167
" />
<path d="M30.5000 122.9167
L30.4524 122.8215
" />
<path d="M30.4524 122.8215
L30.3571 122.7739
" />
<path d="M30.3571 122.7739
L30.1190 122.7739
" />
<path d="M30.1190 122.7739
L30.0238 122.7262
" />
<path d="M29.1190 123.1072
L29.2143 123.1548
" />
<path d="M29.2143 123.1548
L29.4048 123.1548
" />
<path d="M29.4048 123.1548
L29.5000 123.1072
" />
<path d="M29.5000 123.1072
L29.5476 123.0596
" />
<path d="M29.5476 123.0596
L29.5952 122.9643
" />
<path d="M29.5952 122.9643
L29.5952 122.6786
" />
<path d="M29.5952 122.6786
L29.5476 122.5834
" />
<path d="M29.5476 122.5834
L29.5000 122.5358
" />
<path d="M29.5000 122.5358
L29.4048 122.4882
" />
<path d="M29.4048 122.4882
L29.2143 122.4882
" />
<path d="M29.2143 122.4882
L29.1190 122.5358
" />
<path d="M28.3095 123.1072
L28.4048 123.1548
" />
<path d="M28.4048 123.1548
L28.5952 123.1548
" />
<path d="M28.5952 123.1548
L28.6905 123.1072
" />
<path d="M28.6905 123.1072
L28.7381 123.0120
" />
<path d="M28.7381 123.0120
L28.7381 122.6310
" />
<path d="M28.7381 122.6310
L28.6905 122.5358
" />
<path d="M28.6905 122.5358
L28.5952 122.4882
" />
<path d="M28.5952 122.4882
L28.4048 122.4882
" />
<path d="M28.4048 122.4882
L28.3095 122.5358
" />
<path d="M28.3095 122.5358
L28.2619 122.6310
" />
<path d="M28.2619 122.6310
L28.2619 122.7262
" />
<path d="M28.2619 122.7262
L28.7381 122.8215
" />
<path d="M27.8333 123.1548
L27.8333 122.4882
" />
<path d="M27.8333 122.6786
L27.7857 122.5834
" />
<path d="M27.7857 122.5834
L27.7381 122.5358
" />
<path d="M27.7381 122.5358
L27.6429 122.4882
" />
<path d="M27.6429 122.4882
L27.5476 122.4882
" />
</g><text x="30.0000" y="119.5000"
transform="scale(-1 1) translate(-60.000000 0)"
textLength="3.2024" font-size="1.3333" lengthAdjust="spacingAndGlyphs"
text-anchor="middle" opacity="0">H13</text>
<g class="stroked-text"><desc>H13</desc>
<path d="M31.2381 119.4548
L31.2381 118.4548
" />
<path d="M31.2381 118.9310
L30.6667 118.9310
" />
<path d="M30.6667 119.4548
L30.6667 118.4548
" />
<path d="M29.6667 119.4548
L30.2381 119.4548
" />
<path d="M29.9524 119.4548
L29.9524 118.4548
" />
<path d="M29.9524 118.4548
L30.0476 118.5977
" />
<path d="M30.0476 118.5977
L30.1429 118.6929
" />
<path d="M30.1429 118.6929
L30.2381 118.7405
" />
<path d="M29.3333 118.4548
L28.7143 118.4548
" />
<path d="M28.7143 118.4548
L29.0476 118.8358
" />
<path d="M29.0476 118.8358
L28.9048 118.8358
" />
<path d="M28.9048 118.8358
L28.8095 118.8834
" />
<path d="M28.8095 118.8834
L28.7619 118.9310
" />
<path d="M28.7619 118.9310
L28.7143 119.0262
" />
<path d="M28.7143 119.0262
L28.7143 119.2643
" />
<path d="M28.7143 119.2643
L28.7619 119.3596
" />
<path d="M28.7619 119.3596
L28.8095 119.4072
" />
<path d="M28.8095 119.4072
L28.9048 119.4548
" />
<path d="M28.9048 119.4548
L29.1905 119.4548
" />
<path d="M29.1905 119.4548
L29.2857 119.4072
" />
<path d="M29.2857 119.4072
L29.3333 119.3596
" />
</g><text x="105.0000" y="71.2000"
transform="scale(-1 1) translate(-210.000000 0)"
textLength="5.3452" font-size="1.3333" lengthAdjust="spacingAndGlyphs"
text-anchor="middle" opacity="0">Spacer</text>
<g class="stroked-text"><desc>Spacer</desc>
<path d="M107.3571 71.1072
L107.2143 71.1548
" />
<path d="M107.2143 71.1548
L106.9762 71.1548
" />
<path d="M106.9762 71.1548
L106.8810 71.1072
" />
<path d="M106.8810 71.1072
L106.8333 71.0596
" />
<path d="M106.8333 71.0596
L106.7857 70.9643
" />
<path d="M106.7857 70.9643
L106.7857 70.8691
" />
<path d="M106.7857 70.8691
L106.8333 70.7739
" />
<path d="M106.8333 70.7739
L106.8810 70.7262
" />
<path d="M106.8810 70.7262
L106.9762 70.6786
" />
<path d="M106.9762 70.6786
L107.1667 70.6310
" />
<path d="M107.1667 70.6310
L107.2619 70.5834
" />
<path d="M107.2619 70.5834
L107.3095 70.5358
" />
<path d="M107.3095 70.5358
L107.3571 70.4405
" />
<path d="M107.3571 70.4405
L107.3571 70.3453
" />
<path d="M107.3571 70.3453
L107.3095 70.2501
" />
<path d="M107.3095 70.2501
L107.2619 70.2024
" />
<path d="M107.2619 70.2024
L107.1667 70.1548
" />
<path d="M107.1667 70.1548
L106.9286 70.1548
" />
<path d="M106.9286 70.1548
L106.7857 70.2024
" />
<path d="M106.3571 70.4882
L106.3571 71.4882
" />
<path d="M106.3571 70.5358
L106.2619 70.4882
" />
<path d="M106.2619 70.4882
L106.0714 70.4882
" />
<path d="M106.0714 70.4882
L105.9762 70.5358
" />
<path d="M105.9762 70.5358
L105.9286 70.5834
" />
<path d="M105.9286 70.5834
L105.8810 70.6786
" />
<path d="M105.8810 70.6786
L105.8810 70.9643
" />
<path d="M105.8810 70.9643
L105.9286 71.0596
" />
<path d="M105.9286 71.0596
L105.9762 71.1072
" />
<path d="M105.9762 71.1072
L106.0714 71.1548
" />
<path d="M106.0714 71.1548
L106.2619 71.1548
" />
<path d="M106.2619 71.1548
L106.3571 71.1072
" />
<path d="M105.0238 71.1548
L105.0238 70.6310
" />
<path d="M105.0238 70.6310
L105.0714 70.5358
" />
<path d="M105.0714 70.5358
L105.1667 70.4882
" />
<path d="M105.1667 70.4882
L105.3571 70.4882
" />
<path d="M105.3571 70.4882
L105.4524 70.5358
" />
<path d="M105.0238 71.1072
L105.1190 71.1548
" />
<path d="M105.1190 71.1548
L105.3571 71.1548
" />
<path d="M105.3571 71.1548
L105.4524 71.1072
" />
<path d="M105.4524 71.1072
L105.5000 71.0120
" />
<path d="M105.5000 71.0120
L105.5000 70.9167
" />
<path d="M105.5000 70.9167
L105.4524 70.8215
" />
<path d="M105.4524 70.8215
L105.3571 70.7739
" />
<path d="M105.3571 70.7739
L105.1190 70.7739
" />
<path d="M105.1190 70.7739
L105.0238 70.7262
" />
<path d="M104.1190 71.1072
L104.2143 71.1548
" />
<path d="M104.2143 71.1548
L104.4048 71.1548
" />
<path d="M104.4048 71.1548
L104.5000 71.1072
" />
<path d="M104.5000 71.1072
L104.5476 71.0596
" />
<path d="M104.5476 71.0596
L104.5952 70.9643
" />
<path d="M104.5952 70.9643
L104.5952 70.6786
" />
<path d="M104.5952 70.6786
L104.5476 70.5834
" />
<path d="M104.5476 70.5834
L104.5000 70.5358
" />
<path d="M104.5000 70.5358
L104.4048 70.4882
" />
<path d="M104.4048 70.4882
L104.2143 70.4882
" />
<path d="M104.2143 70.4882
L104.1190 70.5358
" />
<path d="M103.3095 71.1072
L103.4048 71.1548
" />
<path d="M103.4048 71.1548
L103.5952 71.1548
" />
<path d="M103.5952 71.1548
L103.6905 71.1072
" />
<path d="M103.6905 71.1072
L103.7381 71.0120
" />
<path d="M103.7381 71.0120
L103.7381 70.6310
" />
<path d="M103.7381 70.6310
L103.6905 70.5358
" />
<path d="M103.6905 70.5358
L103.5952 70.4882
" />
<path d="M103.5952 70.4882
L103.4048 70.4882
" />
<path d="M103.4048 70.4882
L103.3095 70.5358
" />
<path d="M103.3095 70.5358
L103.2619 70.6310
" />
<path d="M103.2619 70.6310
L103.2619 70.7262
" />
<path d="M103.2619 70.7262
L103.7381 70.8215
" />
<path d="M102.8333 71.1548
L102.8333 70.4882
" />
<path d="M102.8333 70.6786
L102.7857 70.5834
" />
<path d="M102.7857 70.5834
L102.7381 70.5358
" />
<path d="M102.7381 70.5358
L102.6429 70.4882
" />
<path d="M102.6429 70.4882
L102.5476 70.4882
" />
</g><text x="105.0000" y="67.5000"
transform="scale(-1 1) translate(-210.000000 0)"
textLength="2.2500" font-size="1.3333" lengthAdjust="spacingAndGlyphs"
text-anchor="middle" opacity="0">H9</text>
<g class="stroked-text"><desc>H9</desc>
<path d="M105.7619 67.4548
L105.7619 66.4548
" />
<path d="M105.7619 66.9310
L105.1905 66.9310
" />
<path d="M105.1905 67.4548
L105.1905 66.4548
" />
<path d="M104.6667 67.4548
L104.4762 67.4548
" />
<path d="M104.4762 67.4548
L104.3810 67.4072
" />
<path d="M104.3810 67.4072
L104.3333 67.3596
" />
<path d="M104.3333 67.3596
L104.2381 67.2167
" />
<path d="M104.2381 67.2167
L104.1905 67.0262
" />
<path d="M104.1905 67.0262
L104.1905 66.6453
" />
<path d="M104.1905 66.6453
L104.2381 66.5501
" />
<path d="M104.2381 66.5501
L104.2857 66.5024
" />
<path d="M104.2857 66.5024
L104.3810 66.4548
" />
<path d="M104.3810 66.4548
L104.5714 66.4548
" />
<path d="M104.5714 66.4548
L104.6667 66.5024
" />
<path d="M104.6667 66.5024
L104.7143 66.5501
" />
<path d="M104.7143 66.5501
L104.7619 66.6453
" />
<path d="M104.7619 66.6453
L104.7619 66.8834
" />
<path d="M104.7619 66.8834
L104.7143 66.9786
" />
<path d="M104.7143 66.9786
L104.6667 67.0262
" />
<path d="M104.6667 67.0262
L104.5714 67.0739
" />
<path d="M104.5714 67.0739
L104.3810 67.0739
" />
<path d="M104.3810 67.0739
L104.2857 67.0262
" />
<path d="M104.2857 67.0262
L104.2381 66.9786
" />
<path d="M104.2381 66.9786
L104.1905 66.8834
" />
</g><text x="30.0000" y="71.2000"
transform="scale(-1 1) translate(-60.000000 0)"
textLength="5.3452" font-size="1.3333" lengthAdjust="spacingAndGlyphs"
text-anchor="middle" opacity="0">Spacer</text>
<g class="stroked-text"><desc>Spacer</desc>
<path d="M32.3571 71.1072
L32.2143 71.1548
" />
<path d="M32.2143 71.1548
L31.9762 71.1548
" />
<path d="M31.9762 71.1548
L31.8810 71.1072
" />
<path d="M31.8810 71.1072
L31.8333 71.0596
" />
<path d="M31.8333 71.0596
L31.7857 70.9643
" />
<path d="M31.7857 70.9643
L31.7857 70.8691
" />
<path d="M31.7857 70.8691
L31.8333 70.7739
" />
<path d="M31.8333 70.7739
L31.8810 70.7262
" />
<path d="M31.8810 70.7262
L31.9762 70.6786
" />
<path d="M31.9762 70.6786
L32.1667 70.6310
" />
<path d="M32.1667 70.6310
L32.2619 70.5834
" />
<path d="M32.2619 70.5834
L32.3095 70.5358
" />
<path d="M32.3095 70.5358
L32.3571 70.4405
" />
<path d="M32.3571 70.4405
L32.3571 70.3453
" />
<path d="M32.3571 70.3453
L32.3095 70.2501
" />
<path d="M32.3095 70.2501
L32.2619 70.2024
" />
<path d="M32.2619 70.2024
L32.1667 70.1548
" />
<path d="M32.1667 70.1548
L31.9286 70.1548
" />
<path d="M31.9286 70.1548
L31.7857 70.2024
" />
<path d="M31.3571 70.4882
L31.3571 71.4882
" />
<path d="M31.3571 70.5358
L31.2619 70.4882
" />
<path d="M31.2619 70.4882
L31.0714 70.4882
" />
<path d="M31.0714 70.4882
L30.9762 70.5358
" />
<path d="M30.9762 70.5358
L30.9286 70.5834
" />
<path d="M30.9286 70.5834
L30.8810 70.6786
" />
<path d="M30.8810 70.6786
L30.8810 70.9643
" />
<path d="M30.8810 70.9643
L30.9286 71.0596
" />
<path d="M30.9286 71.0596
L30.9762 71.1072
" />
<path d="M30.9762 71.1072
L31.0714 71.1548
" />
<path d="M31.0714 71.1548
L31.2619 71.1548
" />
<path d="M31.2619 71.1548
L31.3571 71.1072
" />
<path d="M30.0238 71.1548
L30.0238 70.6310
" />
<path d="M30.0238 70.6310
L30.0714 70.5358
" />
<path d="M30.0714 70.5358
L30.1667 70.4882
" />
<path d="M30.1667 70.4882
L30.3571 70.4882
" />
<path d="M30.3571 70.4882
L30.4524 70.5358
" />
<path d="M30.0238 71.1072
L30.1190 71.1548
" />
<path d="M30.1190 71.1548
L30.3571 71.1548
" />
<path d="M30.3571 71.1548
L30.4524 71.1072
" />
<path d="M30.4524 71.1072
L30.5000 71.0120
" />
<path d="M30.5000 71.0120
L30.5000 70.9167
" />
<path d="M30.5000 70.9167
L30.4524 70.8215
" />
<path d="M30.4524 70.8215
L30.3571 70.7739
" />
<path d="M30.3571 70.7739
L30.1190 70.7739
" />
<path d="M30.1190 70.7739
L30.0238 70.7262
" />
<path d="M29.1190 71.1072
L29.2143 71.1548
" />
<path d="M29.2143 71.1548
L29.4048 71.1548
" />
<path d="M29.4048 71.1548
L29.5000 71.1072
" />
<path d="M29.5000 71.1072
L29.5476 71.0596
" />
<path d="M29.5476 71.0596
L29.5952 70.9643
" />
<path d="M29.5952 70.9643
L29.5952 70.6786
" />
<path d="M29.5952 70.6786
L29.5476 70.5834
" />
<path d="M29.5476 70.5834
L29.5000 70.5358
" />
<path d="M29.5000 70.5358
L29.4048 70.4882
" />
<path d="M29.4048 70.4882
L29.2143 70.4882
" />
<path d="M29.2143 70.4882
L29.1190 70.5358
" />
<path d="M28.3095 71.1072
L28.4048 71.1548
" />
<path d="M28.4048 71.1548
L28.5952 71.1548
" />
<path d="M28.5952 71.1548
L28.6905 71.1072
" />
<path d="M28.6905 71.1072
L28.7381 71.0120
" />
<path d="M28.7381 71.0120
L28.7381 70.6310
" />
<path d="M28.7381 70.6310
L28.6905 70.5358
" />
<path d="M28.6905 70.5358
L28.5952 70.4882
" />
<path d="M28.5952 70.4882
L28.4048 70.4882
" />
<path d="M28.4048 70.4882
L28.3095 70.5358
" />
<path d="M28.3095 70.5358
L28.2619 70.6310
" />
<path d="M28.2619 70.6310
L28.2619 70.7262
" />
<path d="M28.2619 70.7262
L28.7381 70.8215
" />
<path d="M27.8333 71.1548
L27.8333 70.4882
" />
<path d="M27.8333 70.6786
L27.7857 70.5834
" />
<path d="M27.7857 70.5834
L27.7381 70.5358
" />
<path d="M27.7381 70.5358
L27.6429 70.4882
" />
<path d="M27.6429 70.4882
L27.5476 70.4882
" />
</g><text x="30.0000" y="67.5000"
transform="scale(-1 1) translate(-60.000000 0)"
textLength="3.2024" font-size="1.3333" lengthAdjust="spacingAndGlyphs"
text-anchor="middle" opacity="0">H10</text>
<g class="stroked-text"><desc>H10</desc>
<path d="M31.2381 67.4548
L31.2381 66.4548
" />
<path d="M31.2381 66.9310
L30.6667 66.9310
" />
<path d="M30.6667 67.4548
L30.6667 66.4548
" />
<path d="M29.6667 67.4548
L30.2381 67.4548
" />
<path d="M29.9524 67.4548
L29.9524 66.4548
" />
<path d="M29.9524 66.4548
L30.0476 66.5977
" />
<path d="M30.0476 66.5977
L30.1429 66.6929
" />
<path d="M30.1429 66.6929
L30.2381 66.7405
" />
<path d="M29.0476 66.4548
L28.9524 66.4548
" />
<path d="M28.9524 66.4548
L28.8571 66.5024
" />
<path d="M28.8571 66.5024
L28.8095 66.5501
" />
<path d="M28.8095 66.5501
L28.7619 66.6453
" />
<path d="M28.7619 66.6453
L28.7143 66.8358
" />
<path d="M28.7143 66.8358
L28.7143 67.0739
" />
<path d="M28.7143 67.0739
L28.7619 67.2643
" />
<path d="M28.7619 67.2643
L28.8095 67.3596
" />
<path d="M28.8095 67.3596
L28.8571 67.4072
" />
<path d="M28.8571 67.4072
L28.9524 67.4548
" />
<path d="M28.9524 67.4548
L29.0476 67.4548
" />
<path d="M29.0476 67.4548
L29.1429 67.4072
" />
<path d="M29.1429 67.4072
L29.1905 67.3596
" />
<path d="M29.1905 67.3596
L29.2381 67.2643
" />
<path d="M29.2381 67.2643
L29.2857 67.0739
" />
<path d="M29.2857 67.0739
L29.2857 66.8358
" />
<path d="M29.2857 66.8358
L29.2381 66.6453
" />
<path d="M29.2381 66.6453
L29.1905 66.5501
" />
<path d="M29.1905 66.5501
L29.1429 66.5024
" />
<path d="M29.1429 66.5024
L29.0476 66.4548
" />
</g><text x="180.0000" y="71.2000"
transform="scale(-1 1) translate(-360.000000 0)"
textLength="5.3452" font-size="1.3333" lengthAdjust="spacingAndGlyphs"
text-anchor="middle" opacity="0">Spacer</text>
<g class="stroked-text"><desc>Spacer</desc>
<path d="M182.3571 71.1072
L182.2143 71.1548
" />
<path d="M182.2143 71.1548
L181.9762 71.1548
" />
<path d="M181.9762 71.1548
L181.8810 71.1072
" />
<path d="M181.8810 71.1072
L181.8333 71.0596
" />
<path d="M181.8333 71.0596
L181.7857 70.9643
" />
<path d="M181.7857 70.9643
L181.7857 70.8691
" />
<path d="M181.7857 70.8691
L181.8333 70.7739
" />
<path d="M181.8333 70.7739
L181.8810 70.7262
" />
<path d="M181.8810 70.7262
L181.9762 70.6786
" />
<path d="M181.9762 70.6786
L182.1667 70.6310
" />
<path d="M182.1667 70.6310
L182.2619 70.5834
" />
<path d="M182.2619 70.5834
L182.3095 70.5358
" />
<path d="M182.3095 70.5358
L182.3571 70.4405
" />
<path d="M182.3571 70.4405
L182.3571 70.3453
" />
<path d="M182.3571 70.3453
L182.3095 70.2501
" />
<path d="M182.3095 70.2501
L182.2619 70.2024
" />
<path d="M182.2619 70.2024
L182.1667 70.1548
" />
<path d="M182.1667 70.1548
L181.9286 70.1548
" />
<path d="M181.9286 70.1548
L181.7857 70.2024
" />
<path d="M181.3571 70.4882
L181.3571 71.4882
" />
<path d="M181.3571 70.5358
L181.2619 70.4882
" />
<path d="M181.2619 70.4882
L181.0714 70.4882
" />
<path d="M181.0714 70.4882
L180.9762 70.5358
" />
<path d="M180.9762 70.5358
L180.9286 70.5834
" />
<path d="M180.9286 70.5834
L180.8810 70.6786
" />
<path d="M180.8810 70.6786
L180.8810 70.9643
" />
<path d="M180.8810 70.9643
L180.9286 71.0596
" />
<path d="M180.9286 71.0596
L180.9762 71.1072
" />
<path d="M180.9762 71.1072
L181.0714 71.1548
" />
<path d="M181.0714 71.1548
L181.2619 71.1548
" />
<path d="M181.2619 71.1548
L181.3571 71.1072
" />
<path d="M180.0238 71.1548
L180.0238 70.6310
" />
<path d="M180.0238 70.6310
L180.0714 70.5358
" />
<path d="M180.0714 70.5358
L180.1667 70.4882
" />
<path d="M180.1667 70.4882
L180.3571 70.4882
" />
<path d="M180.3571 70.4882
L180.4524 70.5358
" />
<path d="M180.0238 71.1072
L180.1190 71.1548
" />
<path d="M180.1190 71.1548
L180.3571 71.1548
" />
<path d="M180.3571 71.1548
L180.4524 71.1072
" />
<path d="M180.4524 71.1072
L180.5000 71.0120
" />
<path d="M180.5000 71.0120
L180.5000 70.9167
" />
<path d="M180.5000 70.9167
L180.4524 70.8215
" />
<path d="M180.4524 70.8215
L180.3571 70.7739
" />
<path d="M180.3571 70.7739
L180.1190 70.7739
" />
<path d="M180.1190 70.7739
L180.0238 70.7262
" />
<path d="M179.1190 71.1072
L179.2143 71.1548
" />
<path d="M179.2143 71.1548
L179.4048 71.1548
" />
<path d="M179.4048 71.1548
L179.5000 71.1072
" />
<path d="M179.5000 71.1072
L179.5476 71.0596
" />
<path d="M179.5476 71.0596
L179.5952 70.9643
" />
<path d="M179.5952 70.9643
L179.5952 70.6786
" />
<path d="M179.5952 70.6786
L179.5476 70.5834
" />
<path d="M179.5476 70.5834
L179.5000 70.5358
" />
<path d="M179.5000 70.5358
L179.4048 70.4882
" />
<path d="M179.4048 70.4882
L179.2143 70.4882
" />
<path d="M179.2143 70.4882
L179.1190 70.5358
" />
<path d="M178.3095 71.1072
L178.4048 71.1548
" />
<path d="M178.4048 71.1548
L178.5952 71.1548
" />
<path d="M178.5952 71.1548
L178.6905 71.1072
" />
<path d="M178.6905 71.1072
L178.7381 71.0120
" />
<path d="M178.7381 71.0120
L178.7381 70.6310
" />
<path d="M178.7381 70.6310
L178.6905 70.5358
" />
<path d="M178.6905 70.5358
L178.5952 70.4882
" />
<path d="M178.5952 70.4882
L178.4048 70.4882
" />
<path d="M178.4048 70.4882
L178.3095 70.5358
" />
<path d="M178.3095 70.5358
L178.2619 70.6310
" />
<path d="M178.2619 70.6310
L178.2619 70.7262
" />
<path d="M178.2619 70.7262
L178.7381 70.8215
" />
<path d="M177.8333 71.1548
L177.8333 70.4882
" />
<path d="M177.8333 70.6786
L177.7857 70.5834
" />
<path d="M177.7857 70.5834
L177.7381 70.5358
" />
<path d="M177.7381 70.5358
L177.6429 70.4882
" />
<path d="M177.6429 70.4882
L177.5476 70.4882
" />
</g><text x="180.0000" y="67.5000"
transform="scale(-1 1) translate(-360.000000 0)"
textLength="2.2500" font-size="1.3333" lengthAdjust="spacingAndGlyphs"
text-anchor="middle" opacity="0">H8</text>
<g class="stroked-text"><desc>H8</desc>
<path d="M180.7619 67.4548
L180.7619 66.4548
" />
<path d="M180.7619 66.9310
L180.1905 66.9310
" />
<path d="M180.1905 67.4548
L180.1905 66.4548
" />
<path d="M179.5714 66.8834
L179.6667 66.8358
" />
<path d="M179.6667 66.8358
L179.7143 66.7882
" />
<path d="M179.7143 66.7882
L179.7619 66.6929
" />
<path d="M179.7619 66.6929
L179.7619 66.6453
" />
<path d="M179.7619 66.6453
L179.7143 66.5501
" />
<path d="M179.7143 66.5501
L179.6667 66.5024
" />
<path d="M179.6667 66.5024
L179.5714 66.4548
" />
<path d="M179.5714 66.4548
L179.3810 66.4548
" />
<path d="M179.3810 66.4548
L179.2857 66.5024
" />
<path d="M179.2857 66.5024
L179.2381 66.5501
" />
<path d="M179.2381 66.5501
L179.1905 66.6453
" />
<path d="M179.1905 66.6453
L179.1905 66.6929
" />
<path d="M179.1905 66.6929
L179.2381 66.7882
" />
<path d="M179.2381 66.7882
L179.2857 66.8358
" />
<path d="M179.2857 66.8358
L179.3810 66.8834
" />
<path d="M179.3810 66.8834
L179.5714 66.8834
" />
<path d="M179.5714 66.8834
L179.6667 66.9310
" />
<path d="M179.6667 66.9310
L179.7143 66.9786
" />
<path d="M179.7143 66.9786
L179.7619 67.0739
" />
<path d="M179.7619 67.0739
L179.7619 67.2643
" />
<path d="M179.7619 67.2643
L179.7143 67.3596
" />
<path d="M179.7143 67.3596
L179.6667 67.4072
" />
<path d="M179.6667 67.4072
L179.5714 67.4548
" />
<path d="M179.5714 67.4548
L179.3810 67.4548
" />
<path d="M179.3810 67.4548
L179.2857 67.4072
" />
<path d="M179.2857 67.4072
L179.2381 67.3596
" />
<path d="M179.2381 67.3596
L179.1905 67.2643
" />
<path d="M179.1905 67.2643
L179.1905 67.0739
" />
<path d="M179.1905 67.0739
L179.2381 66.9786
" />
<path d="M179.2381 66.9786
L179.2857 66.9310
" />
<path d="M179.2857 66.9310
L179.3810 66.8834
" />
</g><text x="105.0000" y="123.2000"
transform="scale(-1 1) translate(-210.000000 0)"
textLength="5.3452" font-size="1.3333" lengthAdjust="spacingAndGlyphs"
text-anchor="middle" opacity="0">Spacer</text>
<g class="stroked-text"><desc>Spacer</desc>
<path d="M107.3571 123.1072
L107.2143 123.1548
" />
<path d="M107.2143 123.1548
L106.9762 123.1548
" />
<path d="M106.9762 123.1548
L106.8810 123.1072
" />
<path d="M106.8810 123.1072
L106.8333 123.0596
" />
<path d="M106.8333 123.0596
L106.7857 122.9643
" />
<path d="M106.7857 122.9643
L106.7857 122.8691
" />
<path d="M106.7857 122.8691
L106.8333 122.7739
" />
<path d="M106.8333 122.7739
L106.8810 122.7262
" />
<path d="M106.8810 122.7262
L106.9762 122.6786
" />
<path d="M106.9762 122.6786
L107.1667 122.6310
" />
<path d="M107.1667 122.6310
L107.2619 122.5834
" />
<path d="M107.2619 122.5834
L107.3095 122.5358
" />
<path d="M107.3095 122.5358
L107.3571 122.4405
" />
<path d="M107.3571 122.4405
L107.3571 122.3453
" />
<path d="M107.3571 122.3453
L107.3095 122.2501
" />
<path d="M107.3095 122.2501
L107.2619 122.2024
" />
<path d="M107.2619 122.2024
L107.1667 122.1548
" />
<path d="M107.1667 122.1548
L106.9286 122.1548
" />
<path d="M106.9286 122.1548
L106.7857 122.2024
" />
<path d="M106.3571 122.4882
L106.3571 123.4882
" />
<path d="M106.3571 122.5358
L106.2619 122.4882
" />
<path d="M106.2619 122.4882
L106.0714 122.4882
" />
<path d="M106.0714 122.4882
L105.9762 122.5358
" />
<path d="M105.9762 122.5358
L105.9286 122.5834
" />
<path d="M105.9286 122.5834
L105.8810 122.6786
" />
<path d="M105.8810 122.6786
L105.8810 122.9643
" />
<path d="M105.8810 122.9643
L105.9286 123.0596
" />
<path d="M105.9286 123.0596
L105.9762 123.1072
" />
<path d="M105.9762 123.1072
L106.0714 123.1548
" />
<path d="M106.0714 123.1548
L106.2619 123.1548
" />
<path d="M106.2619 123.1548
L106.3571 123.1072
" />
<path d="M105.0238 123.1548
L105.0238 122.6310
" />
<path d="M105.0238 122.6310
L105.0714 122.5358
" />
<path d="M105.0714 122.5358
L105.1667 122.4882
" />
<path d="M105.1667 122.4882
L105.3571 122.4882
" />
<path d="M105.3571 122.4882
L105.4524 122.5358
" />
<path d="M105.0238 123.1072
L105.1190 123.1548
" />
<path d="M105.1190 123.1548
L105.3571 123.1548
" />
<path d="M105.3571 123.1548
L105.4524 123.1072
" />
<path d="M105.4524 123.1072
L105.5000 123.0120
" />
<path d="M105.5000 123.0120
L105.5000 122.9167
" />
<path d="M105.5000 122.9167
L105.4524 122.8215
" />
<path d="M105.4524 122.8215
L105.3571 122.7739
" />
<path d="M105.3571 122.7739
L105.1190 122.7739
" />
<path d="M105.1190 122.7739
L105.0238 122.7262
" />
<path d="M104.1190 123.1072
L104.2143 123.1548
" />
<path d="M104.2143 123.1548
L104.4048 123.1548
" />
<path d="M104.4048 123.1548
L104.5000 123.1072
" />
<path d="M104.5000 123.1072
L104.5476 123.0596
" />
<path d="M104.5476 123.0596
L104.5952 122.9643
" />
<path d="M104.5952 122.9643
L104.5952 122.6786
" />
<path d="M104.5952 122.6786
L104.5476 122.5834
" />
<path d="M104.5476 122.5834
L104.5000 122.5358
" />
<path d="M104.5000 122.5358
L104.4048 122.4882
" />
<path d="M104.4048 122.4882
L104.2143 122.4882
" />
<path d="M104.2143 122.4882
L104.1190 122.5358
" />
<path d="M103.3095 123.1072
L103.4048 123.1548
" />
<path d="M103.4048 123.1548
L103.5952 123.1548
" />
<path d="M103.5952 123.1548
L103.6905 123.1072
" />
<path d="M103.6905 123.1072
L103.7381 123.0120
" />
<path d="M103.7381 123.0120
L103.7381 122.6310
" />
<path d="M103.7381 122.6310
L103.6905 122.5358
" />
<path d="M103.6905 122.5358
L103.5952 122.4882
" />
<path d="M103.5952 122.4882
L103.4048 122.4882
" />
<path d="M103.4048 122.4882
L103.3095 122.5358
" />
<path d="M103.3095 122.5358
L103.2619 122.6310
" />
<path d="M103.2619 122.6310
L103.2619 122.7262
" />
<path d="M103.2619 122.7262
L103.7381 122.8215
" />
<path d="M102.8333 123.1548
L102.8333 122.4882
" />
<path d="M102.8333 122.6786
L102.7857 122.5834
" />
<path d="M102.7857 122.5834
L102.7381 122.5358
" />
<path d="M102.7381 122.5358
L102.6429 122.4882
" />
<path d="M102.6429 122.4882
L102.5476 122.4882
" />
</g><text x="105.0000" y="119.5000"
transform="scale(-1 1) translate(-210.000000 0)"
textLength="3.2024" font-size="1.3333" lengthAdjust="spacingAndGlyphs"
text-anchor="middle" opacity="0">H12</text>
<g class="stroked-text"><desc>H12</desc>
<path d="M106.2381 119.4548
L106.2381 118.4548
" />
<path d="M106.2381 118.9310
L105.6667 118.9310
" />
<path d="M105.6667 119.4548
L105.6667 118.4548
" />
<path d="M104.6667 119.4548
L105.2381 119.4548
" />
<path d="M104.9524 119.4548
L104.9524 118.4548
" />
<path d="M104.9524 118.4548
L105.0476 118.5977
" />
<path d="M105.0476 118.5977
L105.1429 118.6929
" />
<path d="M105.1429 118.6929
L105.2381 118.7405
" />
<path d="M104.2857 118.5501
L104.2381 118.5024
" />
<path d="M104.2381 118.5024
L104.1429 118.4548
" />
<path d="M104.1429 118.4548
L103.9048 118.4548
" />
<path d="M103.9048 118.4548
L103.8095 118.5024
" />
<path d="M103.8095 118.5024
L103.7619 118.5501
" />
<path d="M103.7619 118.5501
L103.7143 118.6453
" />
<path d="M103.7143 118.6453
L103.7143 118.7405
" />
<path d="M103.7143 118.7405
L103.7619 118.8834
" />
<path d="M103.7619 118.8834
L104.3333 119.4548
" />
<path d="M104.3333 119.4548
L103.7143 119.4548
" />
</g><text x="74.9600" y="19.9900"
transform="scale(-1 1) translate(-149.920000 0)"
textLength="7.2500" font-size="1.3333" lengthAdjust="spacingAndGlyphs"
text-anchor="middle" opacity="0">JST PH 3</text>
<g class="stroked-text"><desc>JST PH 3</desc>
<path d="M77.9362 18.9448
L77.9362 19.6591
" />
<path d="M77.9362 19.6591
L77.9838 19.8020
" />
<path d="M77.9838 19.8020
L78.0790 19.8972
" />
<path d="M78.0790 19.8972
L78.2219 19.9448
" />
<path d="M78.2219 19.9448
L78.3171 19.9448
" />
<path d="M77.5076 19.8972
L77.3648 19.9448
" />
<path d="M77.3648 19.9448
L77.1267 19.9448
" />
<path d="M77.1267 19.9448
L77.0314 19.8972
" />
<path d="M77.0314 19.8972
L76.9838 19.8496
" />
<path d="M76.9838 19.8496
L76.9362 19.7543
" />
<path d="M76.9362 19.7543
L76.9362 19.6591
" />
<path d="M76.9362 19.6591
L76.9838 19.5639
" />
<path d="M76.9838 19.5639
L77.0314 19.5162
" />
<path d="M77.0314 19.5162
L77.1267 19.4686
" />
<path d="M77.1267 19.4686
L77.3171 19.4210
" />
<path d="M77.3171 19.4210
L77.4124 19.3734
" />
<path d="M77.4124 19.3734
L77.4600 19.3258
" />
<path d="M77.4600 19.3258
L77.5076 19.2305
" />
<path d="M77.5076 19.2305
L77.5076 19.1353
" />
<path d="M77.5076 19.1353
L77.4600 19.0401
" />
<path d="M77.4600 19.0401
L77.4124 18.9924
" />
<path d="M77.4124 18.9924
L77.3171 18.9448
" />
<path d="M77.3171 18.9448
L77.0790 18.9448
" />
<path d="M77.0790 18.9448
L76.9362 18.9924
" />
<path d="M76.6505 18.9448
L76.0790 18.9448
" />
<path d="M76.3648 19.9448
L76.3648 18.9448
" />
<path d="M74.9838 19.9448
L74.9838 18.9448
" />
<path d="M74.9838 18.9448
L74.6029 18.9448
" />
<path d="M74.6029 18.9448
L74.5076 18.9924
" />
<path d="M74.5076 18.9924
L74.4600 19.0401
" />
<path d="M74.4600 19.0401
L74.4124 19.1353
" />
<path d="M74.4124 19.1353
L74.4124 19.2782
" />
<path d="M74.4124 19.2782
L74.4600 19.3734
" />
<path d="M74.4600 19.3734
L74.5076 19.4210
" />
<path d="M74.5076 19.4210
L74.6029 19.4686
" />
<path d="M74.6029 19.4686
L74.9838 19.4686
" />
<path d="M73.9838 19.9448
L73.9838 18.9448
" />
<path d="M73.9838 19.4210
L73.4124 19.4210
" />
<path d="M73.4124 19.9448
L73.4124 18.9448
" />
<path d="M72.2695 18.9448
L71.6505 18.9448
" />
<path d="M71.6505 18.9448
L71.9838 19.3258
" />
<path d="M71.9838 19.3258
L71.8410 19.3258
" />
<path d="M71.8410 19.3258
L71.7457 19.3734
" />
<path d="M71.7457 19.3734
L71.6981 19.4210
" />
<path d="M71.6981 19.4210
L71.6505 19.5162
" />
<path d="M71.6505 19.5162
L71.6505 19.7543
" />
<path d="M71.6505 19.7543
L71.6981 19.8496
" />
<path d="M71.6981 19.8496
L71.7457 19.8972
" />
<path d="M71.7457 19.8972
L71.8410 19.9448
" />
<path d="M71.8410 19.9448
L72.1267 19.9448
" />
<path d="M72.1267 19.9448
L72.2219 19.8972
" />
<path d="M72.2219 19.8972
L72.2695 19.8496
" />
</g><text x="74.9600" y="22.4900"
transform="scale(-1 1) translate(-149.920000 0)"
textLength="2.9167" font-size="1.3333" lengthAdjust="spacingAndGlyphs"
text-anchor="middle" opacity="0">J25</text>
<g class="stroked-text"><desc>J25</desc>
<path d="M75.7695 21.4448
L75.7695 22.1591
" />
<path d="M75.7695 22.1591
L75.8171 22.3020
" />
<path d="M75.8171 22.3020
L75.9124 22.3972
" />
<path d="M75.9124 22.3972
L76.0552 22.4448
" />
<path d="M76.0552 22.4448
L76.1505 22.4448
" />
<path d="M75.3410 21.5401
L75.2933 21.4924
" />
<path d="M75.2933 21.4924
L75.1981 21.4448
" />
<path d="M75.1981 21.4448
L74.9600 21.4448
" />
<path d="M74.9600 21.4448
L74.8648 21.4924
" />
<path d="M74.8648 21.4924
L74.8171 21.5401
" />
<path d="M74.8171 21.5401
L74.7695 21.6353
" />
<path d="M74.7695 21.6353
L74.7695 21.7305
" />
<path d="M74.7695 21.7305
L74.8171 21.8734
" />
<path d="M74.8171 21.8734
L75.3886 22.4448
" />
<path d="M75.3886 22.4448
L74.7695 22.4448
" />
<path d="M73.8648 21.4448
L74.3410 21.4448
" />
<path d="M74.3410 21.4448
L74.3886 21.9210
" />
<path d="M74.3886 21.9210
L74.3410 21.8734
" />
<path d="M74.3410 21.8734
L74.2457 21.8258
" />
<path d="M74.2457 21.8258
L74.0076 21.8258
" />
<path d="M74.0076 21.8258
L73.9124 21.8734
" />
<path d="M73.9124 21.8734
L73.8648 21.9210
" />
<path d="M73.8648 21.9210
L73.8171 22.0162
" />
<path d="M73.8171 22.0162
L73.8171 22.2543
" />
<path d="M73.8171 22.2543
L73.8648 22.3496
" />
<path d="M73.8648 22.3496
L73.9124 22.3972
" />
<path d="M73.9124 22.3972
L74.0076 22.4448
" />
<path d="M74.0076 22.4448
L74.2457 22.4448
" />
<path d="M74.2457 22.4448
L74.3410 22.3972
" />
<path d="M74.3410 22.3972
L74.3886 22.3496
" />
</g><text x="44.7600" y="132.3300"
transform="scale(-1 1) translate(-89.520000 0)"
textLength="7.2500" font-size="1.3333" lengthAdjust="spacingAndGlyphs"
text-anchor="middle" opacity="0">JST PH 3</text>
<g class="stroked-text"><desc>JST PH 3</desc>
<path d="M47.7362 131.2848
L47.7362 131.9991
" />
<path d="M47.7362 131.9991
L47.7838 132.1420
" />
<path d="M47.7838 132.1420
L47.8790 132.2372
" />
<path d="M47.8790 132.2372
L48.0219 132.2848
" />
<path d="M48.0219 132.2848
L48.1171 132.2848
" />
<path d="M47.3076 132.2372
L47.1648 132.2848
" />
<path d="M47.1648 132.2848
L46.9267 132.2848
" />
<path d="M46.9267 132.2848
L46.8314 132.2372
" />
<path d="M46.8314 132.2372
L46.7838 132.1896
" />
<path d="M46.7838 132.1896
L46.7362 132.0943
" />
<path d="M46.7362 132.0943
L46.7362 131.9991
" />
<path d="M46.7362 131.9991
L46.7838 131.9039
" />
<path d="M46.7838 131.9039
L46.8314 131.8562
" />
<path d="M46.8314 131.8562
L46.9267 131.8086
" />
<path d="M46.9267 131.8086
L47.1171 131.7610
" />
<path d="M47.1171 131.7610
L47.2124 131.7134
" />
<path d="M47.2124 131.7134
L47.2600 131.6658
" />
<path d="M47.2600 131.6658
L47.3076 131.5705
" />
<path d="M47.3076 131.5705
L47.3076 131.4753
" />
<path d="M47.3076 131.4753
L47.2600 131.3801
" />
<path d="M47.2600 131.3801
L47.2124 131.3324
" />
<path d="M47.2124 131.3324
L47.1171 131.2848
" />
<path d="M47.1171 131.2848
L46.8790 131.2848
" />
<path d="M46.8790 131.2848
L46.7362 131.3324
" />
<path d="M46.4505 131.2848
L45.8790 131.2848
" />
<path d="M46.1648 132.2848
L46.1648 131.2848
" />
<path d="M44.7838 132.2848
L44.7838 131.2848
" />
<path d="M44.7838 131.2848
L44.4029 131.2848
" />
<path d="M44.4029 131.2848
L44.3076 131.3324
" />
<path d="M44.3076 131.3324
L44.2600 131.3801
" />
<path d="M44.2600 131.3801
L44.2124 131.4753
" />
<path d="M44.2124 131.4753
L44.2124 131.6182
" />
<path d="M44.2124 131.6182
L44.2600 131.7134
" />
<path d="M44.2600 131.7134
L44.3076 131.7610
" />
<path d="M44.3076 131.7610
L44.4029 131.8086
" />
<path d="M44.4029 131.8086
L44.7838 131.8086
" />
<path d="M43.7838 132.2848
L43.7838 131.2848
" />
<path d="M43.7838 131.7610
L43.2124 131.7610
" />
<path d="M43.2124 132.2848
L43.2124 131.2848
" />
<path d="M42.0695 131.2848
L41.4505 131.2848
" />
<path d="M41.4505 131.2848
L41.7838 131.6658
" />
<path d="M41.7838 131.6658
L41.6410 131.6658
" />
<path d="M41.6410 131.6658
L41.5457 131.7134
" />
<path d="M41.5457 131.7134
L41.4981 131.7610
" />
<path d="M41.4981 131.7610
L41.4505 131.8562
" />
<path d="M41.4505 131.8562
L41.4505 132.0943
" />
<path d="M41.4505 132.0943
L41.4981 132.1896
" />
<path d="M41.4981 132.1896
L41.5457 132.2372
" />
<path d="M41.5457 132.2372
L41.6410 132.2848
" />
<path d="M41.6410 132.2848
L41.9267 132.2848
" />
<path d="M41.9267 132.2848
L42.0219 132.2372
" />
<path d="M42.0219 132.2372
L42.0695 132.1896
" />
</g><text x="44.7600" y="129.8300"
transform="scale(-1 1) translate(-89.520000 0)"
textLength="2.9167" font-size="1.3333" lengthAdjust="spacingAndGlyphs"
text-anchor="middle" opacity="0">J28</text>
<g class="stroked-text"><desc>J28</desc>
<path d="M45.5695 128.7848
L45.5695 129.4991
" />
<path d="M45.5695 129.4991
L45.6171 129.6420
" />
<path d="M45.6171 129.6420
L45.7124 129.7372
" />
<path d="M45.7124 129.7372
L45.8552 129.7848
" />
<path d="M45.8552 129.7848
L45.9505 129.7848
" />
<path d="M45.1410 128.8801
L45.0933 128.8324
" />
<path d="M45.0933 128.8324
L44.9981 128.7848
" />
<path d="M44.9981 128.7848
L44.7600 128.7848
" />
<path d="M44.7600 128.7848
L44.6648 128.8324
" />
<path d="M44.6648 128.8324
L44.6171 128.8801
" />
<path d="M44.6171 128.8801
L44.5695 128.9753
" />
<path d="M44.5695 128.9753
L44.5695 129.0705
" />
<path d="M44.5695 129.0705
L44.6171 129.2134
" />
<path d="M44.6171 129.2134
L45.1886 129.7848
" />
<path d="M45.1886 129.7848
L44.5695 129.7848
" />
<path d="M43.9981 129.2134
L44.0933 129.1658
" />
<path d="M44.0933 129.1658
L44.1410 129.1182
" />
<path d="M44.1410 129.1182
L44.1886 129.0229
" />
<path d="M44.1886 129.0229
L44.1886 128.9753
" />
<path d="M44.1886 128.9753
L44.1410 128.8801
" />
<path d="M44.1410 128.8801
L44.0933 128.8324
" />
<path d="M44.0933 128.8324
L43.9981 128.7848
" />
<path d="M43.9981 128.7848
L43.8076 128.7848
" />
<path d="M43.8076 128.7848
L43.7124 128.8324
" />
<path d="M43.7124 128.8324
L43.6648 128.8801
" />
<path d="M43.6648 128.8801
L43.6171 128.9753
" />
<path d="M43.6171 128.9753
L43.6171 129.0229
" />
<path d="M43.6171 129.0229
L43.6648 129.1182
" />
<path d="M43.6648 129.1182
L43.7124 129.1658
" />
<path d="M43.7124 129.1658
L43.8076 129.2134
" />
<path d="M43.8076 129.2134
L43.9981 129.2134
" />
<path d="M43.9981 129.2134
L44.0933 129.2610
" />
<path d="M44.0933 129.2610
L44.1410 129.3086
" />
<path d="M44.1410 129.3086
L44.1886 129.4039
" />
<path d="M44.1886 129.4039
L44.1886 129.5943
" />
<path d="M44.1886 129.5943
L44.1410 129.6896
" />
<path d="M44.1410 129.6896
L44.0933 129.7372
" />
<path d="M44.0933 129.7372
L43.9981 129.7848
" />
<path d="M43.9981 129.7848
L43.8076 129.7848
" />
<path d="M43.8076 129.7848
L43.7124 129.7372
" />
<path d="M43.7124 129.7372
L43.6648 129.6896
" />
<path d="M43.6648 129.6896
L43.6171 129.5943
" />
<path d="M43.6171 129.5943
L43.6171 129.4039
" />
<path d="M43.6171 129.4039
L43.6648 129.3086
" />
<path d="M43.6648 129.3086
L43.7124 129.2610
" />
<path d="M43.7124 129.2610
L43.8076 129.2134
" />
</g><text x="180.0000" y="123.2000"
transform="scale(-1 1) translate(-360.000000 0)"
textLength="5.3452" font-size="1.3333" lengthAdjust="spacingAndGlyphs"
text-anchor="middle" opacity="0">Spacer</text>
<g class="stroked-text"><desc>Spacer</desc>
<path d="M182.3571 123.1072
L182.2143 123.1548
" />
<path d="M182.2143 123.1548
L181.9762 123.1548
" />
<path d="M181.9762 123.1548
L181.8810 123.1072
" />
<path d="M181.8810 123.1072
L181.8333 123.0596
" />
<path d="M181.8333 123.0596
L181.7857 122.9643
" />
<path d="M181.7857 122.9643
L181.7857 122.8691
" />
<path d="M181.7857 122.8691
L181.8333 122.7739
" />
<path d="M181.8333 122.7739
L181.8810 122.7262
" />
<path d="M181.8810 122.7262
L181.9762 122.6786
" />
<path d="M181.9762 122.6786
L182.1667 122.6310
" />
<path d="M182.1667 122.6310
L182.2619 122.5834
" />
<path d="M182.2619 122.5834
L182.3095 122.5358
" />
<path d="M182.3095 122.5358
L182.3571 122.4405
" />
<path d="M182.3571 122.4405
L182.3571 122.3453
" />
<path d="M182.3571 122.3453
L182.3095 122.2501
" />
<path d="M182.3095 122.2501
L182.2619 122.2024
" />
<path d="M182.2619 122.2024
L182.1667 122.1548
" />
<path d="M182.1667 122.1548
L181.9286 122.1548
" />
<path d="M181.9286 122.1548
L181.7857 122.2024
" />
<path d="M181.3571 122.4882
L181.3571 123.4882
" />
<path d="M181.3571 122.5358
L181.2619 122.4882
" />
<path d="M181.2619 122.4882
L181.0714 122.4882
" />
<path d="M181.0714 122.4882
L180.9762 122.5358
" />
<path d="M180.9762 122.5358
L180.9286 122.5834
" />
<path d="M180.9286 122.5834
L180.8810 122.6786
" />
<path d="M180.8810 122.6786
L180.8810 122.9643
" />
<path d="M180.8810 122.9643
L180.9286 123.0596
" />
<path d="M180.9286 123.0596
L180.9762 123.1072
" />
<path d="M180.9762 123.1072
L181.0714 123.1548
" />
<path d="M181.0714 123.1548
L181.2619 123.1548
" />
<path d="M181.2619 123.1548
L181.3571 123.1072
" />
<path d="M180.0238 123.1548
L180.0238 122.6310
" />
<path d="M180.0238 122.6310
L180.0714 122.5358
" />
<path d="M180.0714 122.5358
L180.1667 122.4882
" />
<path d="M180.1667 122.4882
L180.3571 122.4882
" />
<path d="M180.3571 122.4882
L180.4524 122.5358
" />
<path d="M180.0238 123.1072
L180.1190 123.1548
" />
<path d="M180.1190 123.1548
L180.3571 123.1548
" />
<path d="M180.3571 123.1548
L180.4524 123.1072
" />
<path d="M180.4524 123.1072
L180.5000 123.0120
" />
<path d="M180.5000 123.0120
L180.5000 122.9167
" />
<path d="M180.5000 122.9167
L180.4524 122.8215
" />
<path d="M180.4524 122.8215
L180.3571 122.7739
" />
<path d="M180.3571 122.7739
L180.1190 122.7739
" />
<path d="M180.1190 122.7739
L180.0238 122.7262
" />
<path d="M179.1190 123.1072
L179.2143 123.1548
" />
<path d="M179.2143 123.1548
L179.4048 123.1548
" />
<path d="M179.4048 123.1548
L179.5000 123.1072
" />
<path d="M179.5000 123.1072
L179.5476 123.0596
" />
<path d="M179.5476 123.0596
L179.5952 122.9643
" />
<path d="M179.5952 122.9643
L179.5952 122.6786
" />
<path d="M179.5952 122.6786
L179.5476 122.5834
" />
<path d="M179.5476 122.5834
L179.5000 122.5358
" />
<path d="M179.5000 122.5358
L179.4048 122.4882
" />
<path d="M179.4048 122.4882
L179.2143 122.4882
" />
<path d="M179.2143 122.4882
L179.1190 122.5358
" />
<path d="M178.3095 123.1072
L178.4048 123.1548
" />
<path d="M178.4048 123.1548
L178.5952 123.1548
" />
<path d="M178.5952 123.1548
L178.6905 123.1072
" />
<path d="M178.6905 123.1072
L178.7381 123.0120
" />
<path d="M178.7381 123.0120
L178.7381 122.6310
" />
<path d="M178.7381 122.6310
L178.6905 122.5358
" />
<path d="M178.6905 122.5358
L178.5952 122.4882
" />
<path d="M178.5952 122.4882
L178.4048 122.4882
" />
<path d="M178.4048 122.4882
L178.3095 122.5358
" />
<path d="M178.3095 122.5358
L178.2619 122.6310
" />
<path d="M178.2619 122.6310
L178.2619 122.7262
" />
<path d="M178.2619 122.7262
L178.7381 122.8215
" />
<path d="M177.8333 123.1548
L177.8333 122.4882
" />
<path d="M177.8333 122.6786
L177.7857 122.5834
" />
<path d="M177.7857 122.5834
L177.7381 122.5358
" />
<path d="M177.7381 122.5358
L177.6429 122.4882
" />
<path d="M177.6429 122.4882
L177.5476 122.4882
" />
</g><text x="180.0000" y="119.5000"
transform="scale(-1 1) translate(-360.000000 0)"
textLength="3.2024" font-size="1.3333" lengthAdjust="spacingAndGlyphs"
text-anchor="middle" opacity="0">H11</text>
<g class="stroked-text"><desc>H11</desc>
<path d="M181.2381 119.4548
L181.2381 118.4548
" />
<path d="M181.2381 118.9310
L180.6667 118.9310
" />
<path d="M180.6667 119.4548
L180.6667 118.4548
" />
<path d="M179.6667 119.4548
L180.2381 119.4548
" />
<path d="M179.9524 119.4548
L179.9524 118.4548
" />
<path d="M179.9524 118.4548
L180.0476 118.5977
" />
<path d="M180.0476 118.5977
L180.1429 118.6929
" />
<path d="M180.1429 118.6929
L180.2381 118.7405
" />
<path d="M178.7143 119.4548
L179.2857 119.4548
" />
<path d="M179.0000 119.4548
L179.0000 118.4548
" />
<path d="M179.0000 118.4548
L179.0952 118.5977
" />
<path d="M179.0952 118.5977
L179.1905 118.6929
" />
<path d="M179.1905 118.6929
L179.2857 118.7405
" />
</g><g transform="rotate(-90.000000 123.7000 93.7756)">
<text x="123.7000" y="94.2756"
transform="scale(-1 1) translate(-247.400000 0)"
textLength="7.7262" font-size="1.3333" lengthAdjust="spacingAndGlyphs"
text-anchor="middle" opacity="0">HiFi Berry</text>
</g>
<g class="stroked-text"><desc>HiFi Berry</desc>
<path d="M124.1548 90.2756
L123.1548 90.2756
" />
<path d="M123.6310 90.2756
L123.6310 90.8470
" />
<path d="M124.1548 90.8470
L123.1548 90.8470
" />
<path d="M124.1548 91.3232
L123.4882 91.3232
" />
<path d="M123.1548 91.3232
L123.2024 91.2756
" />
<path d="M123.2024 91.2756
L123.2501 91.3232
" />
<path d="M123.2501 91.3232
L123.2024 91.3708
" />
<path d="M123.2024 91.3708
L123.1548 91.3232
" />
<path d="M123.1548 91.3232
L123.2501 91.3232
" />
<path d="M123.6310 92.1327
L123.6310 91.7994
" />
<path d="M124.1548 91.7994
L123.1548 91.7994
" />
<path d="M123.1548 91.7994
L123.1548 92.2756
" />
<path d="M124.1548 92.6566
L123.4882 92.6566
" />
<path d="M123.1548 92.6566
L123.2024 92.6089
" />
<path d="M123.2024 92.6089
L123.2501 92.6566
" />
<path d="M123.2501 92.6566
L123.2024 92.7042
" />
<path d="M123.2024 92.7042
L123.1548 92.6566
" />
<path d="M123.1548 92.6566
L123.2501 92.6566
" />
<path d="M123.6310 94.2280
L123.6786 94.3708
" />
<path d="M123.6786 94.3708
L123.7262 94.4185
" />
<path d="M123.7262 94.4185
L123.8215 94.4661
" />
<path d="M123.8215 94.4661
L123.9643 94.4661
" />
<path d="M123.9643 94.4661
L124.0596 94.4185
" />
<path d="M124.0596 94.4185
L124.1072 94.3708
" />
<path d="M124.1072 94.3708
L124.1548 94.2756
" />
<path d="M124.1548 94.2756
L124.1548 93.8946
" />
<path d="M124.1548 93.8946
L123.1548 93.8946
" />
<path d="M123.1548 93.8946
L123.1548 94.2280
" />
<path d="M123.1548 94.2280
L123.2024 94.3232
" />
<path d="M123.2024 94.3232
L123.2501 94.3708
" />
<path d="M123.2501 94.3708
L123.3453 94.4185
" />
<path d="M123.3453 94.4185
L123.4405 94.4185
" />
<path d="M123.4405 94.4185
L123.5358 94.3708
" />
<path d="M123.5358 94.3708
L123.5834 94.3232
" />
<path d="M123.5834 94.3232
L123.6310 94.2280
" />
<path d="M123.6310 94.2280
L123.6310 93.8946
" />
<path d="M124.1072 95.2756
L124.1548 95.1804
" />
<path d="M124.1548 95.1804
L124.1548 94.9899
" />
<path d="M124.1548 94.9899
L124.1072 94.8946
" />
<path d="M124.1072 94.8946
L124.0120 94.8470
" />
<path d="M124.0120 94.8470
L123.6310 94.8470
" />
<path d="M123.6310 94.8470
L123.5358 94.8946
" />
<path d="M123.5358 94.8946
L123.4882 94.9899
" />
<path d="M123.4882 94.9899
L123.4882 95.1804
" />
<path d="M123.4882 95.1804
L123.5358 95.2756
" />
<path d="M123.5358 95.2756
L123.6310 95.3232
" />
<path d="M123.6310 95.3232
L123.7262 95.3232
" />
<path d="M123.7262 95.3232
L123.8215 94.8470
" />
<path d="M124.1548 95.7518
L123.4882 95.7518
" />
<path d="M123.6786 95.7518
L123.5834 95.7994
" />
<path d="M123.5834 95.7994
L123.5358 95.8470
" />
<path d="M123.5358 95.8470
L123.4882 95.9423
" />
<path d="M123.4882 95.9423
L123.4882 96.0375
" />
<path d="M124.1548 96.3708
L123.4882 96.3708
" />
<path d="M123.6786 96.3708
L123.5834 96.4185
" />
<path d="M123.5834 96.4185
L123.5358 96.4661
" />
<path d="M123.5358 96.4661
L123.4882 96.5613
" />
<path d="M123.4882 96.5613
L123.4882 96.6566
" />
<path d="M123.4882 96.8946
L124.1548 97.1327
" />
<path d="M123.4882 97.3708
L124.1548 97.1327
" />
<path d="M124.1548 97.1327
L124.3929 97.0375
" />
<path d="M124.3929 97.0375
L124.4405 96.9899
" />
<path d="M124.4405 96.9899
L124.4882 96.8946
" />
</g><text x="66.0300" y="20.0000"
transform="scale(-1 1) translate(-132.060000 0)"
textLength="7.2500" font-size="1.3333" lengthAdjust="spacingAndGlyphs"
text-anchor="middle" opacity="0">JST PH 3</text>
<g class="stroked-text"><desc>JST PH 3</desc>
<path d="M69.0062 18.9548
L69.0062 19.6691
" />
<path d="M69.0062 19.6691
L69.0538 19.8120
" />
<path d="M69.0538 19.8120
L69.1490 19.9072
" />
<path d="M69.1490 19.9072
L69.2919 19.9548
" />
<path d="M69.2919 19.9548
L69.3871 19.9548
" />
<path d="M68.5776 19.9072
L68.4348 19.9548
" />
<path d="M68.4348 19.9548
L68.1967 19.9548
" />
<path d="M68.1967 19.9548
L68.1014 19.9072
" />
<path d="M68.1014 19.9072
L68.0538 19.8596
" />
<path d="M68.0538 19.8596
L68.0062 19.7643
" />
<path d="M68.0062 19.7643
L68.0062 19.6691
" />
<path d="M68.0062 19.6691
L68.0538 19.5739
" />
<path d="M68.0538 19.5739
L68.1014 19.5262
" />
<path d="M68.1014 19.5262
L68.1967 19.4786
" />
<path d="M68.1967 19.4786
L68.3871 19.4310
" />
<path d="M68.3871 19.4310
L68.4824 19.3834
" />
<path d="M68.4824 19.3834
L68.5300 19.3358
" />
<path d="M68.5300 19.3358
L68.5776 19.2405
" />
<path d="M68.5776 19.2405
L68.5776 19.1453
" />
<path d="M68.5776 19.1453
L68.5300 19.0501
" />
<path d="M68.5300 19.0501
L68.4824 19.0024
" />
<path d="M68.4824 19.0024
L68.3871 18.9548
" />
<path d="M68.3871 18.9548
L68.1490 18.9548
" />
<path d="M68.1490 18.9548
L68.0062 19.0024
" />
<path d="M67.7205 18.9548
L67.1490 18.9548
" />
<path d="M67.4348 19.9548
L67.4348 18.9548
" />
<path d="M66.0538 19.9548
L66.0538 18.9548
" />
<path d="M66.0538 18.9548
L65.6729 18.9548
" />
<path d="M65.6729 18.9548
L65.5776 19.0024
" />
<path d="M65.5776 19.0024
L65.5300 19.0501
" />
<path d="M65.5300 19.0501
L65.4824 19.1453
" />
<path d="M65.4824 19.1453
L65.4824 19.2882
" />
<path d="M65.4824 19.2882
L65.5300 19.3834
" />
<path d="M65.5300 19.3834
L65.5776 19.4310
" />
<path d="M65.5776 19.4310
L65.6729 19.4786
" />
<path d="M65.6729 19.4786
L66.0538 19.4786
" />
<path d="M65.0538 19.9548
L65.0538 18.9548
" />
<path d="M65.0538 19.4310
L64.4824 19.4310
" />
<path d="M64.4824 19.9548
L64.4824 18.9548
" />
<path d="M63.3395 18.9548
L62.7205 18.9548
" />
<path d="M62.7205 18.9548
L63.0538 19.3358
" />
<path d="M63.0538 19.3358
L62.9110 19.3358
" />
<path d="M62.9110 19.3358
L62.8157 19.3834
" />
<path d="M62.8157 19.3834
L62.7681 19.4310
" />
<path d="M62.7681 19.4310
L62.7205 19.5262
" />
<path d="M62.7205 19.5262
L62.7205 19.7643
" />
<path d="M62.7205 19.7643
L62.7681 19.8596
" />
<path d="M62.7681 19.8596
L62.8157 19.9072
" />
<path d="M62.8157 19.9072
L62.9110 19.9548
" />
<path d="M62.9110 19.9548
L63.1967 19.9548
" />
<path d="M63.1967 19.9548
L63.2919 19.9072
" />
<path d="M63.2919 19.9072
L63.3395 19.8596
" />
</g><text x="66.0300" y="22.5000"
transform="scale(-1 1) translate(-132.060000 0)"
textLength="2.9167" font-size="1.3333" lengthAdjust="spacingAndGlyphs"
text-anchor="middle" opacity="0">J26</text>
<g class="stroked-text"><desc>J26</desc>
<path d="M66.8395 21.4548
L66.8395 22.1691
" />
<path d="M66.8395 22.1691
L66.8871 22.3120
" />
<path d="M66.8871 22.3120
L66.9824 22.4072
" />
<path d="M66.9824 22.4072
L67.1252 22.4548
" />
<path d="M67.1252 22.4548
L67.2205 22.4548
" />
<path d="M66.4110 21.5501
L66.3633 21.5024
" />
<path d="M66.3633 21.5024
L66.2681 21.4548
" />
<path d="M66.2681 21.4548
L66.0300 21.4548
" />
<path d="M66.0300 21.4548
L65.9348 21.5024
" />
<path d="M65.9348 21.5024
L65.8871 21.5501
" />
<path d="M65.8871 21.5501
L65.8395 21.6453
" />
<path d="M65.8395 21.6453
L65.8395 21.7405
" />
<path d="M65.8395 21.7405
L65.8871 21.8834
" />
<path d="M65.8871 21.8834
L66.4586 22.4548
" />
<path d="M66.4586 22.4548
L65.8395 22.4548
" />
<path d="M64.9824 21.4548
L65.1729 21.4548
" />
<path d="M65.1729 21.4548
L65.2681 21.5024
" />
<path d="M65.2681 21.5024
L65.3157 21.5501
" />
<path d="M65.3157 21.5501
L65.4110 21.6929
" />
<path d="M65.4110 21.6929
L65.4586 21.8834
" />
<path d="M65.4586 21.8834
L65.4586 22.2643
" />
<path d="M65.4586 22.2643
L65.4110 22.3596
" />
<path d="M65.4110 22.3596
L65.3633 22.4072
" />
<path d="M65.3633 22.4072
L65.2681 22.4548
" />
<path d="M65.2681 22.4548
L65.0776 22.4548
" />
<path d="M65.0776 22.4548
L64.9824 22.4072
" />
<path d="M64.9824 22.4072
L64.9348 22.3596
" />
<path d="M64.9348 22.3596
L64.8871 22.2643
" />
<path d="M64.8871 22.2643
L64.8871 22.0262
" />
<path d="M64.8871 22.0262
L64.9348 21.9310
" />
<path d="M64.9348 21.9310
L64.9824 21.8834
" />
<path d="M64.9824 21.8834
L65.0776 21.8358
" />
<path d="M65.0776 21.8358
L65.2681 21.8358
" />
<path d="M65.2681 21.8358
L65.3633 21.8834
" />
<path d="M65.3633 21.8834
L65.4110 21.9310
" />
<path d="M65.4110 21.9310
L65.4586 22.0262
" />
</g></g>
<g style="fill:#000000; fill-opacity:0.0; 
stroke:#000000; stroke-width:0.1000; stroke-opacity:1; 
stroke-linecap:round; stroke-linejoin:round;">
<path d="M70.6000 25.6000
L70.6000 24.3500
" />
<path d="M71.0100 20.6900
L78.9100 20.6900
" />
<path d="M71.0100 25.1900
L71.0100 20.6900
" />
<path d="M71.8500 25.6000
L70.6000 25.6000
" />
<path d="M78.9100 20.6900
L78.9100 25.1900
" />
<path d="M78.9100 25.1900
L71.0100 25.1900
" />
<path d="M49.1200 125.7200
L49.1200 126.9700
" />
<path d="M48.7100 130.6300
L40.8100 130.6300
" />
<path d="M48.7100 126.1300
L48.7100 130.6300
" />
<path d="M47.8700 125.7200
L49.1200 125.7200
" />
<path d="M40.8100 130.6300
L40.8100 126.1300
" />
<path d="M40.8100 126.1300
L48.7100 126.1300
" />
<path d="M158.7300 122.9606
L151.1100 122.9606
" />
<path d="M158.7300 117.8806
L158.7300 122.9606
" />
<path d="M157.8250 81.1956
L152.7450 81.1956
" />
<path d="M157.8250 74.5756
L157.8250 81.1956
" />
<path d="M156.8250 73.5756
L157.8250 74.5756
" />
<path d="M152.7450 81.1956
L152.7450 73.5756
" />
<path d="M152.7450 73.5756
L156.8250 73.5756
" />
<path d="M152.1100 117.8806
L158.7300 117.8806
" />
<path d="M151.1100 122.9606
L151.1100 118.8806
" />
<path d="M151.1100 118.8806
L152.1100 117.8806
" />
<path d="M121.5200 117.9056
L116.4400 117.9056
" />
<path d="M121.5200 68.1056
L121.5200 117.9056
" />
<path d="M120.5200 67.1056
L121.5200 68.1056
" />
<path d="M116.4400 117.9056
L116.4400 67.1056
" />
<path d="M116.4400 67.1056
L120.5200 67.1056
" />
<path d="M61.6700 25.6100
L61.6700 24.3600
" />
<path d="M62.0800 20.7000
L69.9800 20.7000
" />
<path d="M62.0800 25.2000
L62.0800 20.7000
" />
<path d="M62.9200 25.6100
L61.6700 25.6100
" />
<path d="M69.9800 20.7000
L69.9800 25.2000
" />
<path d="M69.9800 25.2000
L62.0800 25.2000
" />
<g >
</g>
<g >
</g>
<g >
</g>
<g >
</g>
<g >
</g>
<g >
</g>
<g >
</g>
<g >
</g>
<g >
</g>
<g >
</g>
<g >
</g>
<g >
</g>
<g >
</g>
<g >
</g>
<g >
</g>
<g >
</g>
<g >
</g>
<g >
</g>
<g >
</g>
<g >
</g>
<g >
</g>
<g >
</g>
<g >
</g>
<g >
</g>
<g >
</g>
<g >
</g>
<g >
</g>
<g >
</g>
<g >
</g>
<g >
</g>
<g >
</g>
<g >
</g>
<g >
</g>
<g >
</g>
<g >
</g>
<g >
</g>
<g >
</g>
<g >
</g>
<g >
</g>
<g >
</g>
<g >
</g>
<g >
</g>
<g >
</g>
<g >
</g>
<g >
</g>
<g >
</g>
<g >
</g>
<g >
</g>
<g >
</g>
<g >
</g>
<g >
</g>
<g >
</g>
<g >
</g>
<g >
</g>
<g >
</g>
<g >
</g>
<g >
</g>
<g >
</g>
<g >
</g>
<g >
</g>
<g >
</g>
<g >
</g>
<g >
</g>
<g >
</g>
<g >
</g>
<g >
</g>
<g >
</g>
<g >
</g>
<g >
</g>
<g >
</g>
<g >
</g>
<g >
</g>
<g >
</g>
<g >
</g>
<g >
</g>
<g >
</g>
<g >
</g>
<g >
</g>
<g >
</g>
<g >
</g>
<g >
</g>
<g >
</g>
<g >
</g>
<g >
</g>
<g >
</g>
<g >
</g>
<g >
</g>
<g >
</g>
<g >
</g>
<g >
</g>
<g >
</g>
<g >
</g>
<g >
</g>
<g >
</g>
<g >
</g>
<g >
</g>
<g >
</g>
<g >
</g>
<g >
</g>
<g >
</g>
<g >
</g>
<g >
</g>
<g >
</g>
<g >
</g>
<g >
</g>
<g >
</g>
<g >
</g>
<g >
</g>
<g >
</g>
<g >
</g>
<g >
</g>
<g >
</g>
<g >
</g>
<g >
</g>
<g >
</g>
<g >
</g>
<g >
</g>
<g >
</g>
<g >
</g>
<g >
</g>
<g >
</g>
<g >
</g>
<g >
</g>
<g >
</g>
<g >
</g>
<g >
</g>
<g >
</g>
<g >
</g>
<g >
</g>
<g >
</g>
<g >
</g>
<g >
</g>
<g >
</g>
<g >
</g>
<g >
</g>
<g >
</g>
<g >
</g>
<g >
</g>
<g >
</g>
<g >
</g>
<g >
</g>
<g >
</g>
</g> 
</svg>
