<?xml version="1.0" standalone="no"?>
 <!DOCTYPE svg PUBLIC "-//W3C//DTD SVG 1.1//EN" 
 "http://www.w3.org/Graphics/SVG/1.1/DTD/svg11.dtd"> 
<svg
  xmlns:svg="http://www.w3.org/2000/svg"
  xmlns="http://www.w3.org/2000/svg"
  xmlns:xlink="http://www.w3.org/1999/xlink"
  version="1.1"
  width="297.0022mm" height="210.0072mm" viewBox="0.0000 0.0000 297.0022 210.0072">
<title>SVG Image created as pedalboard-hw-B_Fab.svg date 2023/12/03 19:47:35 </title>
  <desc>Image generated by PCBNEW </desc>
<g style="fill:#000000; fill-opacity:1.0000;stroke:#000000; stroke-opacity:1.0000;
stroke-linecap:round; stroke-linejoin:round;"
 transform="translate(0 0) scale(1 1)">
</g>
<g style="fill:#000000; fill-opacity:0.0; 
stroke:#000000; stroke-width:0.0000; stroke-opacity:1; 
stroke-linecap:round; stroke-linejoin:round;">
</g>
<g style="fill:#000000; fill-opacity:0.0; 
stroke:#000000; stroke-width:0.1500; stroke-opacity:1; 
stroke-linecap:round; stroke-linejoin:round;">
<text x="30.0000" y="123.2000"
transform="scale(-1 1) translate(-60.000000 0)"
textLength="5.3452" font-size="1.3333" lengthAdjust="spacingAndGlyphs"
text-anchor="middle" opacity="0">Spacer</text>
<g class="stroked-text"><desc>Spacer</desc>
<path d="M32.3571 123.1072
L32.2143 123.1548
" />
<path d="M32.2143 123.1548
L31.9762 123.1548
" />
<path d="M31.9762 123.1548
L31.8810 123.1072
" />
<path d="M31.8810 123.1072
L31.8333 123.0596
" />
<path d="M31.8333 123.0596
L31.7857 122.9643
" />
<path d="M31.7857 122.9643
L31.7857 122.8691
" />
<path d="M31.7857 122.8691
L31.8333 122.7739
" />
<path d="M31.8333 122.7739
L31.8810 122.7262
" />
<path d="M31.8810 122.7262
L31.9762 122.6786
" />
<path d="M31.9762 122.6786
L32.1667 122.6310
" />
<path d="M32.1667 122.6310
L32.2619 122.5834
" />
<path d="M32.2619 122.5834
L32.3095 122.5358
" />
<path d="M32.3095 122.5358
L32.3571 122.4405
" />
<path d="M32.3571 122.4405
L32.3571 122.3453
" />
<path d="M32.3571 122.3453
L32.3095 122.2501
" />
<path d="M32.3095 122.2501
L32.2619 122.2024
" />
<path d="M32.2619 122.2024
L32.1667 122.1548
" />
<path d="M32.1667 122.1548
L31.9286 122.1548
" />
<path d="M31.9286 122.1548
L31.7857 122.2024
" />
<path d="M31.3571 122.4882
L31.3571 123.4882
" />
<path d="M31.3571 122.5358
L31.2619 122.4882
" />
<path d="M31.2619 122.4882
L31.0714 122.4882
" />
<path d="M31.0714 122.4882
L30.9762 122.5358
" />
<path d="M30.9762 122.5358
L30.9286 122.5834
" />
<path d="M30.9286 122.5834
L30.8810 122.6786
" />
<path d="M30.8810 122.6786
L30.8810 122.9643
" />
<path d="M30.8810 122.9643
L30.9286 123.0596
" />
<path d="M30.9286 123.0596
L30.9762 123.1072
" />
<path d="M30.9762 123.1072
L31.0714 123.1548
" />
<path d="M31.0714 123.1548
L31.2619 123.1548
" />
<path d="M31.2619 123.1548
L31.3571 123.1072
" />
<path d="M30.0238 123.1548
L30.0238 122.6310
" />
<path d="M30.0238 122.6310
L30.0714 122.5358
" />
<path d="M30.0714 122.5358
L30.1667 122.4882
" />
<path d="M30.1667 122.4882
L30.3571 122.4882
" />
<path d="M30.3571 122.4882
L30.4524 122.5358
" />
<path d="M30.0238 123.1072
L30.1190 123.1548
" />
<path d="M30.1190 123.1548
L30.3571 123.1548
" />
<path d="M30.3571 123.1548
L30.4524 123.1072
" />
<path d="M30.4524 123.1072
L30.5000 123.0120
" />
<path d="M30.5000 123.0120
L30.5000 122.9167
" />
<path d="M30.5000 122.9167
L30.4524 122.8215
" />
<path d="M30.4524 122.8215
L30.3571 122.7739
" />
<path d="M30.3571 122.7739
L30.1190 122.7739
" />
<path d="M30.1190 122.7739
L30.0238 122.7262
" />
<path d="M29.1190 123.1072
L29.2143 123.1548
" />
<path d="M29.2143 123.1548
L29.4048 123.1548
" />
<path d="M29.4048 123.1548
L29.5000 123.1072
" />
<path d="M29.5000 123.1072
L29.5476 123.0596
" />
<path d="M29.5476 123.0596
L29.5952 122.9643
" />
<path d="M29.5952 122.9643
L29.5952 122.6786
" />
<path d="M29.5952 122.6786
L29.5476 122.5834
" />
<path d="M29.5476 122.5834
L29.5000 122.5358
" />
<path d="M29.5000 122.5358
L29.4048 122.4882
" />
<path d="M29.4048 122.4882
L29.2143 122.4882
" />
<path d="M29.2143 122.4882
L29.1190 122.5358
" />
<path d="M28.3095 123.1072
L28.4048 123.1548
" />
<path d="M28.4048 123.1548
L28.5952 123.1548
" />
<path d="M28.5952 123.1548
L28.6905 123.1072
" />
<path d="M28.6905 123.1072
L28.7381 123.0120
" />
<path d="M28.7381 123.0120
L28.7381 122.6310
" />
<path d="M28.7381 122.6310
L28.6905 122.5358
" />
<path d="M28.6905 122.5358
L28.5952 122.4882
" />
<path d="M28.5952 122.4882
L28.4048 122.4882
" />
<path d="M28.4048 122.4882
L28.3095 122.5358
" />
<path d="M28.3095 122.5358
L28.2619 122.6310
" />
<path d="M28.2619 122.6310
L28.2619 122.7262
" />
<path d="M28.2619 122.7262
L28.7381 122.8215
" />
<path d="M27.8333 123.1548
L27.8333 122.4882
" />
<path d="M27.8333 122.6786
L27.7857 122.5834
" />
<path d="M27.7857 122.5834
L27.7381 122.5358
" />
<path d="M27.7381 122.5358
L27.6429 122.4882
" />
<path d="M27.6429 122.4882
L27.5476 122.4882
" />
</g><text x="30.0000" y="119.5000"
transform="scale(-1 1) translate(-60.000000 0)"
textLength="3.2024" font-size="1.3333" lengthAdjust="spacingAndGlyphs"
text-anchor="middle" opacity="0">H13</text>
<g class="stroked-text"><desc>H13</desc>
<path d="M31.2381 119.4548
L31.2381 118.4548
" />
<path d="M31.2381 118.9310
L30.6667 118.9310
" />
<path d="M30.6667 119.4548
L30.6667 118.4548
" />
<path d="M29.6667 119.4548
L30.2381 119.4548
" />
<path d="M29.9524 119.4548
L29.9524 118.4548
" />
<path d="M29.9524 118.4548
L30.0476 118.5977
" />
<path d="M30.0476 118.5977
L30.1429 118.6929
" />
<path d="M30.1429 118.6929
L30.2381 118.7405
" />
<path d="M29.3333 118.4548
L28.7143 118.4548
" />
<path d="M28.7143 118.4548
L29.0476 118.8358
" />
<path d="M29.0476 118.8358
L28.9048 118.8358
" />
<path d="M28.9048 118.8358
L28.8095 118.8834
" />
<path d="M28.8095 118.8834
L28.7619 118.9310
" />
<path d="M28.7619 118.9310
L28.7143 119.0262
" />
<path d="M28.7143 119.0262
L28.7143 119.2643
" />
<path d="M28.7143 119.2643
L28.7619 119.3596
" />
<path d="M28.7619 119.3596
L28.8095 119.4072
" />
<path d="M28.8095 119.4072
L28.9048 119.4548
" />
<path d="M28.9048 119.4548
L29.1905 119.4548
" />
<path d="M29.1905 119.4548
L29.2857 119.4072
" />
<path d="M29.2857 119.4072
L29.3333 119.3596
" />
</g><text x="105.0000" y="71.2000"
transform="scale(-1 1) translate(-210.000000 0)"
textLength="5.3452" font-size="1.3333" lengthAdjust="spacingAndGlyphs"
text-anchor="middle" opacity="0">Spacer</text>
<g class="stroked-text"><desc>Spacer</desc>
<path d="M107.3571 71.1072
L107.2143 71.1548
" />
<path d="M107.2143 71.1548
L106.9762 71.1548
" />
<path d="M106.9762 71.1548
L106.8810 71.1072
" />
<path d="M106.8810 71.1072
L106.8333 71.0596
" />
<path d="M106.8333 71.0596
L106.7857 70.9643
" />
<path d="M106.7857 70.9643
L106.7857 70.8691
" />
<path d="M106.7857 70.8691
L106.8333 70.7739
" />
<path d="M106.8333 70.7739
L106.8810 70.7262
" />
<path d="M106.8810 70.7262
L106.9762 70.6786
" />
<path d="M106.9762 70.6786
L107.1667 70.6310
" />
<path d="M107.1667 70.6310
L107.2619 70.5834
" />
<path d="M107.2619 70.5834
L107.3095 70.5358
" />
<path d="M107.3095 70.5358
L107.3571 70.4405
" />
<path d="M107.3571 70.4405
L107.3571 70.3453
" />
<path d="M107.3571 70.3453
L107.3095 70.2501
" />
<path d="M107.3095 70.2501
L107.2619 70.2024
" />
<path d="M107.2619 70.2024
L107.1667 70.1548
" />
<path d="M107.1667 70.1548
L106.9286 70.1548
" />
<path d="M106.9286 70.1548
L106.7857 70.2024
" />
<path d="M106.3571 70.4882
L106.3571 71.4882
" />
<path d="M106.3571 70.5358
L106.2619 70.4882
" />
<path d="M106.2619 70.4882
L106.0714 70.4882
" />
<path d="M106.0714 70.4882
L105.9762 70.5358
" />
<path d="M105.9762 70.5358
L105.9286 70.5834
" />
<path d="M105.9286 70.5834
L105.8810 70.6786
" />
<path d="M105.8810 70.6786
L105.8810 70.9643
" />
<path d="M105.8810 70.9643
L105.9286 71.0596
" />
<path d="M105.9286 71.0596
L105.9762 71.1072
" />
<path d="M105.9762 71.1072
L106.0714 71.1548
" />
<path d="M106.0714 71.1548
L106.2619 71.1548
" />
<path d="M106.2619 71.1548
L106.3571 71.1072
" />
<path d="M105.0238 71.1548
L105.0238 70.6310
" />
<path d="M105.0238 70.6310
L105.0714 70.5358
" />
<path d="M105.0714 70.5358
L105.1667 70.4882
" />
<path d="M105.1667 70.4882
L105.3571 70.4882
" />
<path d="M105.3571 70.4882
L105.4524 70.5358
" />
<path d="M105.0238 71.1072
L105.1190 71.1548
" />
<path d="M105.1190 71.1548
L105.3571 71.1548
" />
<path d="M105.3571 71.1548
L105.4524 71.1072
" />
<path d="M105.4524 71.1072
L105.5000 71.0120
" />
<path d="M105.5000 71.0120
L105.5000 70.9167
" />
<path d="M105.5000 70.9167
L105.4524 70.8215
" />
<path d="M105.4524 70.8215
L105.3571 70.7739
" />
<path d="M105.3571 70.7739
L105.1190 70.7739
" />
<path d="M105.1190 70.7739
L105.0238 70.7262
" />
<path d="M104.1190 71.1072
L104.2143 71.1548
" />
<path d="M104.2143 71.1548
L104.4048 71.1548
" />
<path d="M104.4048 71.1548
L104.5000 71.1072
" />
<path d="M104.5000 71.1072
L104.5476 71.0596
" />
<path d="M104.5476 71.0596
L104.5952 70.9643
" />
<path d="M104.5952 70.9643
L104.5952 70.6786
" />
<path d="M104.5952 70.6786
L104.5476 70.5834
" />
<path d="M104.5476 70.5834
L104.5000 70.5358
" />
<path d="M104.5000 70.5358
L104.4048 70.4882
" />
<path d="M104.4048 70.4882
L104.2143 70.4882
" />
<path d="M104.2143 70.4882
L104.1190 70.5358
" />
<path d="M103.3095 71.1072
L103.4048 71.1548
" />
<path d="M103.4048 71.1548
L103.5952 71.1548
" />
<path d="M103.5952 71.1548
L103.6905 71.1072
" />
<path d="M103.6905 71.1072
L103.7381 71.0120
" />
<path d="M103.7381 71.0120
L103.7381 70.6310
" />
<path d="M103.7381 70.6310
L103.6905 70.5358
" />
<path d="M103.6905 70.5358
L103.5952 70.4882
" />
<path d="M103.5952 70.4882
L103.4048 70.4882
" />
<path d="M103.4048 70.4882
L103.3095 70.5358
" />
<path d="M103.3095 70.5358
L103.2619 70.6310
" />
<path d="M103.2619 70.6310
L103.2619 70.7262
" />
<path d="M103.2619 70.7262
L103.7381 70.8215
" />
<path d="M102.8333 71.1548
L102.8333 70.4882
" />
<path d="M102.8333 70.6786
L102.7857 70.5834
" />
<path d="M102.7857 70.5834
L102.7381 70.5358
" />
<path d="M102.7381 70.5358
L102.6429 70.4882
" />
<path d="M102.6429 70.4882
L102.5476 70.4882
" />
</g><text x="105.0000" y="67.5000"
transform="scale(-1 1) translate(-210.000000 0)"
textLength="2.2500" font-size="1.3333" lengthAdjust="spacingAndGlyphs"
text-anchor="middle" opacity="0">H9</text>
<g class="stroked-text"><desc>H9</desc>
<path d="M105.7619 67.4548
L105.7619 66.4548
" />
<path d="M105.7619 66.9310
L105.1905 66.9310
" />
<path d="M105.1905 67.4548
L105.1905 66.4548
" />
<path d="M104.6667 67.4548
L104.4762 67.4548
" />
<path d="M104.4762 67.4548
L104.3810 67.4072
" />
<path d="M104.3810 67.4072
L104.3333 67.3596
" />
<path d="M104.3333 67.3596
L104.2381 67.2167
" />
<path d="M104.2381 67.2167
L104.1905 67.0262
" />
<path d="M104.1905 67.0262
L104.1905 66.6453
" />
<path d="M104.1905 66.6453
L104.2381 66.5501
" />
<path d="M104.2381 66.5501
L104.2857 66.5024
" />
<path d="M104.2857 66.5024
L104.3810 66.4548
" />
<path d="M104.3810 66.4548
L104.5714 66.4548
" />
<path d="M104.5714 66.4548
L104.6667 66.5024
" />
<path d="M104.6667 66.5024
L104.7143 66.5501
" />
<path d="M104.7143 66.5501
L104.7619 66.6453
" />
<path d="M104.7619 66.6453
L104.7619 66.8834
" />
<path d="M104.7619 66.8834
L104.7143 66.9786
" />
<path d="M104.7143 66.9786
L104.6667 67.0262
" />
<path d="M104.6667 67.0262
L104.5714 67.0739
" />
<path d="M104.5714 67.0739
L104.3810 67.0739
" />
<path d="M104.3810 67.0739
L104.2857 67.0262
" />
<path d="M104.2857 67.0262
L104.2381 66.9786
" />
<path d="M104.2381 66.9786
L104.1905 66.8834
" />
</g><text x="30.0000" y="71.2000"
transform="scale(-1 1) translate(-60.000000 0)"
textLength="5.3452" font-size="1.3333" lengthAdjust="spacingAndGlyphs"
text-anchor="middle" opacity="0">Spacer</text>
<g class="stroked-text"><desc>Spacer</desc>
<path d="M32.3571 71.1072
L32.2143 71.1548
" />
<path d="M32.2143 71.1548
L31.9762 71.1548
" />
<path d="M31.9762 71.1548
L31.8810 71.1072
" />
<path d="M31.8810 71.1072
L31.8333 71.0596
" />
<path d="M31.8333 71.0596
L31.7857 70.9643
" />
<path d="M31.7857 70.9643
L31.7857 70.8691
" />
<path d="M31.7857 70.8691
L31.8333 70.7739
" />
<path d="M31.8333 70.7739
L31.8810 70.7262
" />
<path d="M31.8810 70.7262
L31.9762 70.6786
" />
<path d="M31.9762 70.6786
L32.1667 70.6310
" />
<path d="M32.1667 70.6310
L32.2619 70.5834
" />
<path d="M32.2619 70.5834
L32.3095 70.5358
" />
<path d="M32.3095 70.5358
L32.3571 70.4405
" />
<path d="M32.3571 70.4405
L32.3571 70.3453
" />
<path d="M32.3571 70.3453
L32.3095 70.2501
" />
<path d="M32.3095 70.2501
L32.2619 70.2024
" />
<path d="M32.2619 70.2024
L32.1667 70.1548
" />
<path d="M32.1667 70.1548
L31.9286 70.1548
" />
<path d="M31.9286 70.1548
L31.7857 70.2024
" />
<path d="M31.3571 70.4882
L31.3571 71.4882
" />
<path d="M31.3571 70.5358
L31.2619 70.4882
" />
<path d="M31.2619 70.4882
L31.0714 70.4882
" />
<path d="M31.0714 70.4882
L30.9762 70.5358
" />
<path d="M30.9762 70.5358
L30.9286 70.5834
" />
<path d="M30.9286 70.5834
L30.8810 70.6786
" />
<path d="M30.8810 70.6786
L30.8810 70.9643
" />
<path d="M30.8810 70.9643
L30.9286 71.0596
" />
<path d="M30.9286 71.0596
L30.9762 71.1072
" />
<path d="M30.9762 71.1072
L31.0714 71.1548
" />
<path d="M31.0714 71.1548
L31.2619 71.1548
" />
<path d="M31.2619 71.1548
L31.3571 71.1072
" />
<path d="M30.0238 71.1548
L30.0238 70.6310
" />
<path d="M30.0238 70.6310
L30.0714 70.5358
" />
<path d="M30.0714 70.5358
L30.1667 70.4882
" />
<path d="M30.1667 70.4882
L30.3571 70.4882
" />
<path d="M30.3571 70.4882
L30.4524 70.5358
" />
<path d="M30.0238 71.1072
L30.1190 71.1548
" />
<path d="M30.1190 71.1548
L30.3571 71.1548
" />
<path d="M30.3571 71.1548
L30.4524 71.1072
" />
<path d="M30.4524 71.1072
L30.5000 71.0120
" />
<path d="M30.5000 71.0120
L30.5000 70.9167
" />
<path d="M30.5000 70.9167
L30.4524 70.8215
" />
<path d="M30.4524 70.8215
L30.3571 70.7739
" />
<path d="M30.3571 70.7739
L30.1190 70.7739
" />
<path d="M30.1190 70.7739
L30.0238 70.7262
" />
<path d="M29.1190 71.1072
L29.2143 71.1548
" />
<path d="M29.2143 71.1548
L29.4048 71.1548
" />
<path d="M29.4048 71.1548
L29.5000 71.1072
" />
<path d="M29.5000 71.1072
L29.5476 71.0596
" />
<path d="M29.5476 71.0596
L29.5952 70.9643
" />
<path d="M29.5952 70.9643
L29.5952 70.6786
" />
<path d="M29.5952 70.6786
L29.5476 70.5834
" />
<path d="M29.5476 70.5834
L29.5000 70.5358
" />
<path d="M29.5000 70.5358
L29.4048 70.4882
" />
<path d="M29.4048 70.4882
L29.2143 70.4882
" />
<path d="M29.2143 70.4882
L29.1190 70.5358
" />
<path d="M28.3095 71.1072
L28.4048 71.1548
" />
<path d="M28.4048 71.1548
L28.5952 71.1548
" />
<path d="M28.5952 71.1548
L28.6905 71.1072
" />
<path d="M28.6905 71.1072
L28.7381 71.0120
" />
<path d="M28.7381 71.0120
L28.7381 70.6310
" />
<path d="M28.7381 70.6310
L28.6905 70.5358
" />
<path d="M28.6905 70.5358
L28.5952 70.4882
" />
<path d="M28.5952 70.4882
L28.4048 70.4882
" />
<path d="M28.4048 70.4882
L28.3095 70.5358
" />
<path d="M28.3095 70.5358
L28.2619 70.6310
" />
<path d="M28.2619 70.6310
L28.2619 70.7262
" />
<path d="M28.2619 70.7262
L28.7381 70.8215
" />
<path d="M27.8333 71.1548
L27.8333 70.4882
" />
<path d="M27.8333 70.6786
L27.7857 70.5834
" />
<path d="M27.7857 70.5834
L27.7381 70.5358
" />
<path d="M27.7381 70.5358
L27.6429 70.4882
" />
<path d="M27.6429 70.4882
L27.5476 70.4882
" />
</g><text x="30.0000" y="67.5000"
transform="scale(-1 1) translate(-60.000000 0)"
textLength="3.2024" font-size="1.3333" lengthAdjust="spacingAndGlyphs"
text-anchor="middle" opacity="0">H10</text>
<g class="stroked-text"><desc>H10</desc>
<path d="M31.2381 67.4548
L31.2381 66.4548
" />
<path d="M31.2381 66.9310
L30.6667 66.9310
" />
<path d="M30.6667 67.4548
L30.6667 66.4548
" />
<path d="M29.6667 67.4548
L30.2381 67.4548
" />
<path d="M29.9524 67.4548
L29.9524 66.4548
" />
<path d="M29.9524 66.4548
L30.0476 66.5977
" />
<path d="M30.0476 66.5977
L30.1429 66.6929
" />
<path d="M30.1429 66.6929
L30.2381 66.7405
" />
<path d="M29.0476 66.4548
L28.9524 66.4548
" />
<path d="M28.9524 66.4548
L28.8571 66.5024
" />
<path d="M28.8571 66.5024
L28.8095 66.5501
" />
<path d="M28.8095 66.5501
L28.7619 66.6453
" />
<path d="M28.7619 66.6453
L28.7143 66.8358
" />
<path d="M28.7143 66.8358
L28.7143 67.0739
" />
<path d="M28.7143 67.0739
L28.7619 67.2643
" />
<path d="M28.7619 67.2643
L28.8095 67.3596
" />
<path d="M28.8095 67.3596
L28.8571 67.4072
" />
<path d="M28.8571 67.4072
L28.9524 67.4548
" />
<path d="M28.9524 67.4548
L29.0476 67.4548
" />
<path d="M29.0476 67.4548
L29.1429 67.4072
" />
<path d="M29.1429 67.4072
L29.1905 67.3596
" />
<path d="M29.1905 67.3596
L29.2381 67.2643
" />
<path d="M29.2381 67.2643
L29.2857 67.0739
" />
<path d="M29.2857 67.0739
L29.2857 66.8358
" />
<path d="M29.2857 66.8358
L29.2381 66.6453
" />
<path d="M29.2381 66.6453
L29.1905 66.5501
" />
<path d="M29.1905 66.5501
L29.1429 66.5024
" />
<path d="M29.1429 66.5024
L29.0476 66.4548
" />
</g><text x="180.0000" y="71.2000"
transform="scale(-1 1) translate(-360.000000 0)"
textLength="5.3452" font-size="1.3333" lengthAdjust="spacingAndGlyphs"
text-anchor="middle" opacity="0">Spacer</text>
<g class="stroked-text"><desc>Spacer</desc>
<path d="M182.3571 71.1072
L182.2143 71.1548
" />
<path d="M182.2143 71.1548
L181.9762 71.1548
" />
<path d="M181.9762 71.1548
L181.8810 71.1072
" />
<path d="M181.8810 71.1072
L181.8333 71.0596
" />
<path d="M181.8333 71.0596
L181.7857 70.9643
" />
<path d="M181.7857 70.9643
L181.7857 70.8691
" />
<path d="M181.7857 70.8691
L181.8333 70.7739
" />
<path d="M181.8333 70.7739
L181.8810 70.7262
" />
<path d="M181.8810 70.7262
L181.9762 70.6786
" />
<path d="M181.9762 70.6786
L182.1667 70.6310
" />
<path d="M182.1667 70.6310
L182.2619 70.5834
" />
<path d="M182.2619 70.5834
L182.3095 70.5358
" />
<path d="M182.3095 70.5358
L182.3571 70.4405
" />
<path d="M182.3571 70.4405
L182.3571 70.3453
" />
<path d="M182.3571 70.3453
L182.3095 70.2501
" />
<path d="M182.3095 70.2501
L182.2619 70.2024
" />
<path d="M182.2619 70.2024
L182.1667 70.1548
" />
<path d="M182.1667 70.1548
L181.9286 70.1548
" />
<path d="M181.9286 70.1548
L181.7857 70.2024
" />
<path d="M181.3571 70.4882
L181.3571 71.4882
" />
<path d="M181.3571 70.5358
L181.2619 70.4882
" />
<path d="M181.2619 70.4882
L181.0714 70.4882
" />
<path d="M181.0714 70.4882
L180.9762 70.5358
" />
<path d="M180.9762 70.5358
L180.9286 70.5834
" />
<path d="M180.9286 70.5834
L180.8810 70.6786
" />
<path d="M180.8810 70.6786
L180.8810 70.9643
" />
<path d="M180.8810 70.9643
L180.9286 71.0596
" />
<path d="M180.9286 71.0596
L180.9762 71.1072
" />
<path d="M180.9762 71.1072
L181.0714 71.1548
" />
<path d="M181.0714 71.1548
L181.2619 71.1548
" />
<path d="M181.2619 71.1548
L181.3571 71.1072
" />
<path d="M180.0238 71.1548
L180.0238 70.6310
" />
<path d="M180.0238 70.6310
L180.0714 70.5358
" />
<path d="M180.0714 70.5358
L180.1667 70.4882
" />
<path d="M180.1667 70.4882
L180.3571 70.4882
" />
<path d="M180.3571 70.4882
L180.4524 70.5358
" />
<path d="M180.0238 71.1072
L180.1190 71.1548
" />
<path d="M180.1190 71.1548
L180.3571 71.1548
" />
<path d="M180.3571 71.1548
L180.4524 71.1072
" />
<path d="M180.4524 71.1072
L180.5000 71.0120
" />
<path d="M180.5000 71.0120
L180.5000 70.9167
" />
<path d="M180.5000 70.9167
L180.4524 70.8215
" />
<path d="M180.4524 70.8215
L180.3571 70.7739
" />
<path d="M180.3571 70.7739
L180.1190 70.7739
" />
<path d="M180.1190 70.7739
L180.0238 70.7262
" />
<path d="M179.1190 71.1072
L179.2143 71.1548
" />
<path d="M179.2143 71.1548
L179.4048 71.1548
" />
<path d="M179.4048 71.1548
L179.5000 71.1072
" />
<path d="M179.5000 71.1072
L179.5476 71.0596
" />
<path d="M179.5476 71.0596
L179.5952 70.9643
" />
<path d="M179.5952 70.9643
L179.5952 70.6786
" />
<path d="M179.5952 70.6786
L179.5476 70.5834
" />
<path d="M179.5476 70.5834
L179.5000 70.5358
" />
<path d="M179.5000 70.5358
L179.4048 70.4882
" />
<path d="M179.4048 70.4882
L179.2143 70.4882
" />
<path d="M179.2143 70.4882
L179.1190 70.5358
" />
<path d="M178.3095 71.1072
L178.4048 71.1548
" />
<path d="M178.4048 71.1548
L178.5952 71.1548
" />
<path d="M178.5952 71.1548
L178.6905 71.1072
" />
<path d="M178.6905 71.1072
L178.7381 71.0120
" />
<path d="M178.7381 71.0120
L178.7381 70.6310
" />
<path d="M178.7381 70.6310
L178.6905 70.5358
" />
<path d="M178.6905 70.5358
L178.5952 70.4882
" />
<path d="M178.5952 70.4882
L178.4048 70.4882
" />
<path d="M178.4048 70.4882
L178.3095 70.5358
" />
<path d="M178.3095 70.5358
L178.2619 70.6310
" />
<path d="M178.2619 70.6310
L178.2619 70.7262
" />
<path d="M178.2619 70.7262
L178.7381 70.8215
" />
<path d="M177.8333 71.1548
L177.8333 70.4882
" />
<path d="M177.8333 70.6786
L177.7857 70.5834
" />
<path d="M177.7857 70.5834
L177.7381 70.5358
" />
<path d="M177.7381 70.5358
L177.6429 70.4882
" />
<path d="M177.6429 70.4882
L177.5476 70.4882
" />
</g><text x="180.0000" y="67.5000"
transform="scale(-1 1) translate(-360.000000 0)"
textLength="2.2500" font-size="1.3333" lengthAdjust="spacingAndGlyphs"
text-anchor="middle" opacity="0">H8</text>
<g class="stroked-text"><desc>H8</desc>
<path d="M180.7619 67.4548
L180.7619 66.4548
" />
<path d="M180.7619 66.9310
L180.1905 66.9310
" />
<path d="M180.1905 67.4548
L180.1905 66.4548
" />
<path d="M179.5714 66.8834
L179.6667 66.8358
" />
<path d="M179.6667 66.8358
L179.7143 66.7882
" />
<path d="M179.7143 66.7882
L179.7619 66.6929
" />
<path d="M179.7619 66.6929
L179.7619 66.6453
" />
<path d="M179.7619 66.6453
L179.7143 66.5501
" />
<path d="M179.7143 66.5501
L179.6667 66.5024
" />
<path d="M179.6667 66.5024
L179.5714 66.4548
" />
<path d="M179.5714 66.4548
L179.3810 66.4548
" />
<path d="M179.3810 66.4548
L179.2857 66.5024
" />
<path d="M179.2857 66.5024
L179.2381 66.5501
" />
<path d="M179.2381 66.5501
L179.1905 66.6453
" />
<path d="M179.1905 66.6453
L179.1905 66.6929
" />
<path d="M179.1905 66.6929
L179.2381 66.7882
" />
<path d="M179.2381 66.7882
L179.2857 66.8358
" />
<path d="M179.2857 66.8358
L179.3810 66.8834
" />
<path d="M179.3810 66.8834
L179.5714 66.8834
" />
<path d="M179.5714 66.8834
L179.6667 66.9310
" />
<path d="M179.6667 66.9310
L179.7143 66.9786
" />
<path d="M179.7143 66.9786
L179.7619 67.0739
" />
<path d="M179.7619 67.0739
L179.7619 67.2643
" />
<path d="M179.7619 67.2643
L179.7143 67.3596
" />
<path d="M179.7143 67.3596
L179.6667 67.4072
" />
<path d="M179.6667 67.4072
L179.5714 67.4548
" />
<path d="M179.5714 67.4548
L179.3810 67.4548
" />
<path d="M179.3810 67.4548
L179.2857 67.4072
" />
<path d="M179.2857 67.4072
L179.2381 67.3596
" />
<path d="M179.2381 67.3596
L179.1905 67.2643
" />
<path d="M179.1905 67.2643
L179.1905 67.0739
" />
<path d="M179.1905 67.0739
L179.2381 66.9786
" />
<path d="M179.2381 66.9786
L179.2857 66.9310
" />
<path d="M179.2857 66.9310
L179.3810 66.8834
" />
</g><text x="105.0000" y="123.2000"
transform="scale(-1 1) translate(-210.000000 0)"
textLength="5.3452" font-size="1.3333" lengthAdjust="spacingAndGlyphs"
text-anchor="middle" opacity="0">Spacer</text>
<g class="stroked-text"><desc>Spacer</desc>
<path d="M107.3571 123.1072
L107.2143 123.1548
" />
<path d="M107.2143 123.1548
L106.9762 123.1548
" />
<path d="M106.9762 123.1548
L106.8810 123.1072
" />
<path d="M106.8810 123.1072
L106.8333 123.0596
" />
<path d="M106.8333 123.0596
L106.7857 122.9643
" />
<path d="M106.7857 122.9643
L106.7857 122.8691
" />
<path d="M106.7857 122.8691
L106.8333 122.7739
" />
<path d="M106.8333 122.7739
L106.8810 122.7262
" />
<path d="M106.8810 122.7262
L106.9762 122.6786
" />
<path d="M106.9762 122.6786
L107.1667 122.6310
" />
<path d="M107.1667 122.6310
L107.2619 122.5834
" />
<path d="M107.2619 122.5834
L107.3095 122.5358
" />
<path d="M107.3095 122.5358
L107.3571 122.4405
" />
<path d="M107.3571 122.4405
L107.3571 122.3453
" />
<path d="M107.3571 122.3453
L107.3095 122.2501
" />
<path d="M107.3095 122.2501
L107.2619 122.2024
" />
<path d="M107.2619 122.2024
L107.1667 122.1548
" />
<path d="M107.1667 122.1548
L106.9286 122.1548
" />
<path d="M106.9286 122.1548
L106.7857 122.2024
" />
<path d="M106.3571 122.4882
L106.3571 123.4882
" />
<path d="M106.3571 122.5358
L106.2619 122.4882
" />
<path d="M106.2619 122.4882
L106.0714 122.4882
" />
<path d="M106.0714 122.4882
L105.9762 122.5358
" />
<path d="M105.9762 122.5358
L105.9286 122.5834
" />
<path d="M105.9286 122.5834
L105.8810 122.6786
" />
<path d="M105.8810 122.6786
L105.8810 122.9643
" />
<path d="M105.8810 122.9643
L105.9286 123.0596
" />
<path d="M105.9286 123.0596
L105.9762 123.1072
" />
<path d="M105.9762 123.1072
L106.0714 123.1548
" />
<path d="M106.0714 123.1548
L106.2619 123.1548
" />
<path d="M106.2619 123.1548
L106.3571 123.1072
" />
<path d="M105.0238 123.1548
L105.0238 122.6310
" />
<path d="M105.0238 122.6310
L105.0714 122.5358
" />
<path d="M105.0714 122.5358
L105.1667 122.4882
" />
<path d="M105.1667 122.4882
L105.3571 122.4882
" />
<path d="M105.3571 122.4882
L105.4524 122.5358
" />
<path d="M105.0238 123.1072
L105.1190 123.1548
" />
<path d="M105.1190 123.1548
L105.3571 123.1548
" />
<path d="M105.3571 123.1548
L105.4524 123.1072
" />
<path d="M105.4524 123.1072
L105.5000 123.0120
" />
<path d="M105.5000 123.0120
L105.5000 122.9167
" />
<path d="M105.5000 122.9167
L105.4524 122.8215
" />
<path d="M105.4524 122.8215
L105.3571 122.7739
" />
<path d="M105.3571 122.7739
L105.1190 122.7739
" />
<path d="M105.1190 122.7739
L105.0238 122.7262
" />
<path d="M104.1190 123.1072
L104.2143 123.1548
" />
<path d="M104.2143 123.1548
L104.4048 123.1548
" />
<path d="M104.4048 123.1548
L104.5000 123.1072
" />
<path d="M104.5000 123.1072
L104.5476 123.0596
" />
<path d="M104.5476 123.0596
L104.5952 122.9643
" />
<path d="M104.5952 122.9643
L104.5952 122.6786
" />
<path d="M104.5952 122.6786
L104.5476 122.5834
" />
<path d="M104.5476 122.5834
L104.5000 122.5358
" />
<path d="M104.5000 122.5358
L104.4048 122.4882
" />
<path d="M104.4048 122.4882
L104.2143 122.4882
" />
<path d="M104.2143 122.4882
L104.1190 122.5358
" />
<path d="M103.3095 123.1072
L103.4048 123.1548
" />
<path d="M103.4048 123.1548
L103.5952 123.1548
" />
<path d="M103.5952 123.1548
L103.6905 123.1072
" />
<path d="M103.6905 123.1072
L103.7381 123.0120
" />
<path d="M103.7381 123.0120
L103.7381 122.6310
" />
<path d="M103.7381 122.6310
L103.6905 122.5358
" />
<path d="M103.6905 122.5358
L103.5952 122.4882
" />
<path d="M103.5952 122.4882
L103.4048 122.4882
" />
<path d="M103.4048 122.4882
L103.3095 122.5358
" />
<path d="M103.3095 122.5358
L103.2619 122.6310
" />
<path d="M103.2619 122.6310
L103.2619 122.7262
" />
<path d="M103.2619 122.7262
L103.7381 122.8215
" />
<path d="M102.8333 123.1548
L102.8333 122.4882
" />
<path d="M102.8333 122.6786
L102.7857 122.5834
" />
<path d="M102.7857 122.5834
L102.7381 122.5358
" />
<path d="M102.7381 122.5358
L102.6429 122.4882
" />
<path d="M102.6429 122.4882
L102.5476 122.4882
" />
</g><text x="105.0000" y="119.5000"
transform="scale(-1 1) translate(-210.000000 0)"
textLength="3.2024" font-size="1.3333" lengthAdjust="spacingAndGlyphs"
text-anchor="middle" opacity="0">H12</text>
<g class="stroked-text"><desc>H12</desc>
<path d="M106.2381 119.4548
L106.2381 118.4548
" />
<path d="M106.2381 118.9310
L105.6667 118.9310
" />
<path d="M105.6667 119.4548
L105.6667 118.4548
" />
<path d="M104.6667 119.4548
L105.2381 119.4548
" />
<path d="M104.9524 119.4548
L104.9524 118.4548
" />
<path d="M104.9524 118.4548
L105.0476 118.5977
" />
<path d="M105.0476 118.5977
L105.1429 118.6929
" />
<path d="M105.1429 118.6929
L105.2381 118.7405
" />
<path d="M104.2857 118.5501
L104.2381 118.5024
" />
<path d="M104.2381 118.5024
L104.1429 118.4548
" />
<path d="M104.1429 118.4548
L103.9048 118.4548
" />
<path d="M103.9048 118.4548
L103.8095 118.5024
" />
<path d="M103.8095 118.5024
L103.7619 118.5501
" />
<path d="M103.7619 118.5501
L103.7143 118.6453
" />
<path d="M103.7143 118.6453
L103.7143 118.7405
" />
<path d="M103.7143 118.7405
L103.7619 118.8834
" />
<path d="M103.7619 118.8834
L104.3333 119.4548
" />
<path d="M104.3333 119.4548
L103.7143 119.4548
" />
</g><text x="73.1400" y="19.5000"
transform="scale(-1 1) translate(-146.280000 0)"
textLength="7.2024" font-size="1.3333" lengthAdjust="spacingAndGlyphs"
text-anchor="middle" opacity="0">JST XH 3</text>
<g class="stroked-text"><desc>JST XH 3</desc>
<path d="M76.0924 18.4548
L76.0924 19.1691
" />
<path d="M76.0924 19.1691
L76.1400 19.3120
" />
<path d="M76.1400 19.3120
L76.2352 19.4072
" />
<path d="M76.2352 19.4072
L76.3781 19.4548
" />
<path d="M76.3781 19.4548
L76.4733 19.4548
" />
<path d="M75.6638 19.4072
L75.5210 19.4548
" />
<path d="M75.5210 19.4548
L75.2829 19.4548
" />
<path d="M75.2829 19.4548
L75.1876 19.4072
" />
<path d="M75.1876 19.4072
L75.1400 19.3596
" />
<path d="M75.1400 19.3596
L75.0924 19.2643
" />
<path d="M75.0924 19.2643
L75.0924 19.1691
" />
<path d="M75.0924 19.1691
L75.1400 19.0739
" />
<path d="M75.1400 19.0739
L75.1876 19.0262
" />
<path d="M75.1876 19.0262
L75.2829 18.9786
" />
<path d="M75.2829 18.9786
L75.4733 18.9310
" />
<path d="M75.4733 18.9310
L75.5686 18.8834
" />
<path d="M75.5686 18.8834
L75.6162 18.8358
" />
<path d="M75.6162 18.8358
L75.6638 18.7405
" />
<path d="M75.6638 18.7405
L75.6638 18.6453
" />
<path d="M75.6638 18.6453
L75.6162 18.5501
" />
<path d="M75.6162 18.5501
L75.5686 18.5024
" />
<path d="M75.5686 18.5024
L75.4733 18.4548
" />
<path d="M75.4733 18.4548
L75.2352 18.4548
" />
<path d="M75.2352 18.4548
L75.0924 18.5024
" />
<path d="M74.8067 18.4548
L74.2352 18.4548
" />
<path d="M74.5210 19.4548
L74.5210 18.4548
" />
<path d="M73.2352 18.4548
L72.5686 19.4548
" />
<path d="M72.5686 18.4548
L73.2352 19.4548
" />
<path d="M72.1876 19.4548
L72.1876 18.4548
" />
<path d="M72.1876 18.9310
L71.6162 18.9310
" />
<path d="M71.6162 19.4548
L71.6162 18.4548
" />
<path d="M70.4733 18.4548
L69.8543 18.4548
" />
<path d="M69.8543 18.4548
L70.1876 18.8358
" />
<path d="M70.1876 18.8358
L70.0448 18.8358
" />
<path d="M70.0448 18.8358
L69.9495 18.8834
" />
<path d="M69.9495 18.8834
L69.9019 18.9310
" />
<path d="M69.9019 18.9310
L69.8543 19.0262
" />
<path d="M69.8543 19.0262
L69.8543 19.2643
" />
<path d="M69.8543 19.2643
L69.9019 19.3596
" />
<path d="M69.9019 19.3596
L69.9495 19.4072
" />
<path d="M69.9495 19.4072
L70.0448 19.4548
" />
<path d="M70.0448 19.4548
L70.3305 19.4548
" />
<path d="M70.3305 19.4548
L70.4257 19.4072
" />
<path d="M70.4257 19.4072
L70.4733 19.3596
" />
</g><text x="73.1400" y="21.4000"
transform="scale(-1 1) translate(-146.280000 0)"
textLength="2.9167" font-size="1.3333" lengthAdjust="spacingAndGlyphs"
text-anchor="middle" opacity="0">J23</text>
<g class="stroked-text"><desc>J23</desc>
<path d="M73.9495 20.3548
L73.9495 21.0691
" />
<path d="M73.9495 21.0691
L73.9971 21.2120
" />
<path d="M73.9971 21.2120
L74.0924 21.3072
" />
<path d="M74.0924 21.3072
L74.2352 21.3548
" />
<path d="M74.2352 21.3548
L74.3305 21.3548
" />
<path d="M73.5210 20.4501
L73.4733 20.4024
" />
<path d="M73.4733 20.4024
L73.3781 20.3548
" />
<path d="M73.3781 20.3548
L73.1400 20.3548
" />
<path d="M73.1400 20.3548
L73.0448 20.4024
" />
<path d="M73.0448 20.4024
L72.9971 20.4501
" />
<path d="M72.9971 20.4501
L72.9495 20.5453
" />
<path d="M72.9495 20.5453
L72.9495 20.6405
" />
<path d="M72.9495 20.6405
L72.9971 20.7834
" />
<path d="M72.9971 20.7834
L73.5686 21.3548
" />
<path d="M73.5686 21.3548
L72.9495 21.3548
" />
<path d="M72.6162 20.3548
L71.9971 20.3548
" />
<path d="M71.9971 20.3548
L72.3305 20.7358
" />
<path d="M72.3305 20.7358
L72.1876 20.7358
" />
<path d="M72.1876 20.7358
L72.0924 20.7834
" />
<path d="M72.0924 20.7834
L72.0448 20.8310
" />
<path d="M72.0448 20.8310
L71.9971 20.9262
" />
<path d="M71.9971 20.9262
L71.9971 21.1643
" />
<path d="M71.9971 21.1643
L72.0448 21.2596
" />
<path d="M72.0448 21.2596
L72.0924 21.3072
" />
<path d="M72.0924 21.3072
L72.1876 21.3548
" />
<path d="M72.1876 21.3548
L72.4733 21.3548
" />
<path d="M72.4733 21.3548
L72.5686 21.3072
" />
<path d="M72.5686 21.3072
L72.6162 21.2596
" />
</g><text x="40.4000" y="132.2000"
transform="scale(-1 1) translate(-80.800000 0)"
textLength="7.2024" font-size="1.3333" lengthAdjust="spacingAndGlyphs"
text-anchor="middle" opacity="0">JST XH 3</text>
<g class="stroked-text"><desc>JST XH 3</desc>
<path d="M43.3524 131.1548
L43.3524 131.8691
" />
<path d="M43.3524 131.8691
L43.4000 132.0120
" />
<path d="M43.4000 132.0120
L43.4952 132.1072
" />
<path d="M43.4952 132.1072
L43.6381 132.1548
" />
<path d="M43.6381 132.1548
L43.7333 132.1548
" />
<path d="M42.9238 132.1072
L42.7810 132.1548
" />
<path d="M42.7810 132.1548
L42.5429 132.1548
" />
<path d="M42.5429 132.1548
L42.4476 132.1072
" />
<path d="M42.4476 132.1072
L42.4000 132.0596
" />
<path d="M42.4000 132.0596
L42.3524 131.9643
" />
<path d="M42.3524 131.9643
L42.3524 131.8691
" />
<path d="M42.3524 131.8691
L42.4000 131.7739
" />
<path d="M42.4000 131.7739
L42.4476 131.7262
" />
<path d="M42.4476 131.7262
L42.5429 131.6786
" />
<path d="M42.5429 131.6786
L42.7333 131.6310
" />
<path d="M42.7333 131.6310
L42.8286 131.5834
" />
<path d="M42.8286 131.5834
L42.8762 131.5358
" />
<path d="M42.8762 131.5358
L42.9238 131.4405
" />
<path d="M42.9238 131.4405
L42.9238 131.3453
" />
<path d="M42.9238 131.3453
L42.8762 131.2501
" />
<path d="M42.8762 131.2501
L42.8286 131.2024
" />
<path d="M42.8286 131.2024
L42.7333 131.1548
" />
<path d="M42.7333 131.1548
L42.4952 131.1548
" />
<path d="M42.4952 131.1548
L42.3524 131.2024
" />
<path d="M42.0667 131.1548
L41.4952 131.1548
" />
<path d="M41.7810 132.1548
L41.7810 131.1548
" />
<path d="M40.4952 131.1548
L39.8286 132.1548
" />
<path d="M39.8286 131.1548
L40.4952 132.1548
" />
<path d="M39.4476 132.1548
L39.4476 131.1548
" />
<path d="M39.4476 131.6310
L38.8762 131.6310
" />
<path d="M38.8762 132.1548
L38.8762 131.1548
" />
<path d="M37.7333 131.1548
L37.1143 131.1548
" />
<path d="M37.1143 131.1548
L37.4476 131.5358
" />
<path d="M37.4476 131.5358
L37.3048 131.5358
" />
<path d="M37.3048 131.5358
L37.2095 131.5834
" />
<path d="M37.2095 131.5834
L37.1619 131.6310
" />
<path d="M37.1619 131.6310
L37.1143 131.7262
" />
<path d="M37.1143 131.7262
L37.1143 131.9643
" />
<path d="M37.1143 131.9643
L37.1619 132.0596
" />
<path d="M37.1619 132.0596
L37.2095 132.1072
" />
<path d="M37.2095 132.1072
L37.3048 132.1548
" />
<path d="M37.3048 132.1548
L37.5905 132.1548
" />
<path d="M37.5905 132.1548
L37.6857 132.1072
" />
<path d="M37.6857 132.1072
L37.7333 132.0596
" />
</g><text x="40.4000" y="130.3000"
transform="scale(-1 1) translate(-80.800000 0)"
textLength="2.9167" font-size="1.3333" lengthAdjust="spacingAndGlyphs"
text-anchor="middle" opacity="0">J26</text>
<g class="stroked-text"><desc>J26</desc>
<path d="M41.2095 129.2548
L41.2095 129.9691
" />
<path d="M41.2095 129.9691
L41.2571 130.1120
" />
<path d="M41.2571 130.1120
L41.3524 130.2072
" />
<path d="M41.3524 130.2072
L41.4952 130.2548
" />
<path d="M41.4952 130.2548
L41.5905 130.2548
" />
<path d="M40.7810 129.3501
L40.7333 129.3024
" />
<path d="M40.7333 129.3024
L40.6381 129.2548
" />
<path d="M40.6381 129.2548
L40.4000 129.2548
" />
<path d="M40.4000 129.2548
L40.3048 129.3024
" />
<path d="M40.3048 129.3024
L40.2571 129.3501
" />
<path d="M40.2571 129.3501
L40.2095 129.4453
" />
<path d="M40.2095 129.4453
L40.2095 129.5405
" />
<path d="M40.2095 129.5405
L40.2571 129.6834
" />
<path d="M40.2571 129.6834
L40.8286 130.2548
" />
<path d="M40.8286 130.2548
L40.2095 130.2548
" />
<path d="M39.3524 129.2548
L39.5429 129.2548
" />
<path d="M39.5429 129.2548
L39.6381 129.3024
" />
<path d="M39.6381 129.3024
L39.6857 129.3501
" />
<path d="M39.6857 129.3501
L39.7810 129.4929
" />
<path d="M39.7810 129.4929
L39.8286 129.6834
" />
<path d="M39.8286 129.6834
L39.8286 130.0643
" />
<path d="M39.8286 130.0643
L39.7810 130.1596
" />
<path d="M39.7810 130.1596
L39.7333 130.2072
" />
<path d="M39.7333 130.2072
L39.6381 130.2548
" />
<path d="M39.6381 130.2548
L39.4476 130.2548
" />
<path d="M39.4476 130.2548
L39.3524 130.2072
" />
<path d="M39.3524 130.2072
L39.3048 130.1596
" />
<path d="M39.3048 130.1596
L39.2571 130.0643
" />
<path d="M39.2571 130.0643
L39.2571 129.8262
" />
<path d="M39.2571 129.8262
L39.3048 129.7310
" />
<path d="M39.3048 129.7310
L39.3524 129.6834
" />
<path d="M39.3524 129.6834
L39.4476 129.6358
" />
<path d="M39.4476 129.6358
L39.6381 129.6358
" />
<path d="M39.6381 129.6358
L39.7333 129.6834
" />
<path d="M39.7333 129.6834
L39.7810 129.7310
" />
<path d="M39.7810 129.7310
L39.8286 129.8262
" />
</g><text x="180.0000" y="123.2000"
transform="scale(-1 1) translate(-360.000000 0)"
textLength="5.3452" font-size="1.3333" lengthAdjust="spacingAndGlyphs"
text-anchor="middle" opacity="0">Spacer</text>
<g class="stroked-text"><desc>Spacer</desc>
<path d="M182.3571 123.1072
L182.2143 123.1548
" />
<path d="M182.2143 123.1548
L181.9762 123.1548
" />
<path d="M181.9762 123.1548
L181.8810 123.1072
" />
<path d="M181.8810 123.1072
L181.8333 123.0596
" />
<path d="M181.8333 123.0596
L181.7857 122.9643
" />
<path d="M181.7857 122.9643
L181.7857 122.8691
" />
<path d="M181.7857 122.8691
L181.8333 122.7739
" />
<path d="M181.8333 122.7739
L181.8810 122.7262
" />
<path d="M181.8810 122.7262
L181.9762 122.6786
" />
<path d="M181.9762 122.6786
L182.1667 122.6310
" />
<path d="M182.1667 122.6310
L182.2619 122.5834
" />
<path d="M182.2619 122.5834
L182.3095 122.5358
" />
<path d="M182.3095 122.5358
L182.3571 122.4405
" />
<path d="M182.3571 122.4405
L182.3571 122.3453
" />
<path d="M182.3571 122.3453
L182.3095 122.2501
" />
<path d="M182.3095 122.2501
L182.2619 122.2024
" />
<path d="M182.2619 122.2024
L182.1667 122.1548
" />
<path d="M182.1667 122.1548
L181.9286 122.1548
" />
<path d="M181.9286 122.1548
L181.7857 122.2024
" />
<path d="M181.3571 122.4882
L181.3571 123.4882
" />
<path d="M181.3571 122.5358
L181.2619 122.4882
" />
<path d="M181.2619 122.4882
L181.0714 122.4882
" />
<path d="M181.0714 122.4882
L180.9762 122.5358
" />
<path d="M180.9762 122.5358
L180.9286 122.5834
" />
<path d="M180.9286 122.5834
L180.8810 122.6786
" />
<path d="M180.8810 122.6786
L180.8810 122.9643
" />
<path d="M180.8810 122.9643
L180.9286 123.0596
" />
<path d="M180.9286 123.0596
L180.9762 123.1072
" />
<path d="M180.9762 123.1072
L181.0714 123.1548
" />
<path d="M181.0714 123.1548
L181.2619 123.1548
" />
<path d="M181.2619 123.1548
L181.3571 123.1072
" />
<path d="M180.0238 123.1548
L180.0238 122.6310
" />
<path d="M180.0238 122.6310
L180.0714 122.5358
" />
<path d="M180.0714 122.5358
L180.1667 122.4882
" />
<path d="M180.1667 122.4882
L180.3571 122.4882
" />
<path d="M180.3571 122.4882
L180.4524 122.5358
" />
<path d="M180.0238 123.1072
L180.1190 123.1548
" />
<path d="M180.1190 123.1548
L180.3571 123.1548
" />
<path d="M180.3571 123.1548
L180.4524 123.1072
" />
<path d="M180.4524 123.1072
L180.5000 123.0120
" />
<path d="M180.5000 123.0120
L180.5000 122.9167
" />
<path d="M180.5000 122.9167
L180.4524 122.8215
" />
<path d="M180.4524 122.8215
L180.3571 122.7739
" />
<path d="M180.3571 122.7739
L180.1190 122.7739
" />
<path d="M180.1190 122.7739
L180.0238 122.7262
" />
<path d="M179.1190 123.1072
L179.2143 123.1548
" />
<path d="M179.2143 123.1548
L179.4048 123.1548
" />
<path d="M179.4048 123.1548
L179.5000 123.1072
" />
<path d="M179.5000 123.1072
L179.5476 123.0596
" />
<path d="M179.5476 123.0596
L179.5952 122.9643
" />
<path d="M179.5952 122.9643
L179.5952 122.6786
" />
<path d="M179.5952 122.6786
L179.5476 122.5834
" />
<path d="M179.5476 122.5834
L179.5000 122.5358
" />
<path d="M179.5000 122.5358
L179.4048 122.4882
" />
<path d="M179.4048 122.4882
L179.2143 122.4882
" />
<path d="M179.2143 122.4882
L179.1190 122.5358
" />
<path d="M178.3095 123.1072
L178.4048 123.1548
" />
<path d="M178.4048 123.1548
L178.5952 123.1548
" />
<path d="M178.5952 123.1548
L178.6905 123.1072
" />
<path d="M178.6905 123.1072
L178.7381 123.0120
" />
<path d="M178.7381 123.0120
L178.7381 122.6310
" />
<path d="M178.7381 122.6310
L178.6905 122.5358
" />
<path d="M178.6905 122.5358
L178.5952 122.4882
" />
<path d="M178.5952 122.4882
L178.4048 122.4882
" />
<path d="M178.4048 122.4882
L178.3095 122.5358
" />
<path d="M178.3095 122.5358
L178.2619 122.6310
" />
<path d="M178.2619 122.6310
L178.2619 122.7262
" />
<path d="M178.2619 122.7262
L178.7381 122.8215
" />
<path d="M177.8333 123.1548
L177.8333 122.4882
" />
<path d="M177.8333 122.6786
L177.7857 122.5834
" />
<path d="M177.7857 122.5834
L177.7381 122.5358
" />
<path d="M177.7381 122.5358
L177.6429 122.4882
" />
<path d="M177.6429 122.4882
L177.5476 122.4882
" />
</g><text x="180.0000" y="119.5000"
transform="scale(-1 1) translate(-360.000000 0)"
textLength="3.2024" font-size="1.3333" lengthAdjust="spacingAndGlyphs"
text-anchor="middle" opacity="0">H11</text>
<g class="stroked-text"><desc>H11</desc>
<path d="M181.2381 119.4548
L181.2381 118.4548
" />
<path d="M181.2381 118.9310
L180.6667 118.9310
" />
<path d="M180.6667 119.4548
L180.6667 118.4548
" />
<path d="M179.6667 119.4548
L180.2381 119.4548
" />
<path d="M179.9524 119.4548
L179.9524 118.4548
" />
<path d="M179.9524 118.4548
L180.0476 118.5977
" />
<path d="M180.0476 118.5977
L180.1429 118.6929
" />
<path d="M180.1429 118.6929
L180.2381 118.7405
" />
<path d="M178.7143 119.4548
L179.2857 119.4548
" />
<path d="M179.0000 119.4548
L179.0000 118.4548
" />
<path d="M179.0000 118.4548
L179.0952 118.5977
" />
<path d="M179.0952 118.5977
L179.1905 118.6929
" />
<path d="M179.1905 118.6929
L179.2857 118.7405
" />
</g><g transform="rotate(-90.000000 123.7000 93.7756)">
<text x="123.7000" y="94.2756"
transform="scale(-1 1) translate(-247.400000 0)"
textLength="7.7262" font-size="1.3333" lengthAdjust="spacingAndGlyphs"
text-anchor="middle" opacity="0">HiFi Berry</text>
</g>
<g class="stroked-text"><desc>HiFi Berry</desc>
<path d="M124.1548 90.2756
L123.1548 90.2756
" />
<path d="M123.6310 90.2756
L123.6310 90.8470
" />
<path d="M124.1548 90.8470
L123.1548 90.8470
" />
<path d="M124.1548 91.3232
L123.4882 91.3232
" />
<path d="M123.1548 91.3232
L123.2024 91.2756
" />
<path d="M123.2024 91.2756
L123.2501 91.3232
" />
<path d="M123.2501 91.3232
L123.2024 91.3708
" />
<path d="M123.2024 91.3708
L123.1548 91.3232
" />
<path d="M123.1548 91.3232
L123.2501 91.3232
" />
<path d="M123.6310 92.1327
L123.6310 91.7994
" />
<path d="M124.1548 91.7994
L123.1548 91.7994
" />
<path d="M123.1548 91.7994
L123.1548 92.2756
" />
<path d="M124.1548 92.6566
L123.4882 92.6566
" />
<path d="M123.1548 92.6566
L123.2024 92.6089
" />
<path d="M123.2024 92.6089
L123.2501 92.6566
" />
<path d="M123.2501 92.6566
L123.2024 92.7042
" />
<path d="M123.2024 92.7042
L123.1548 92.6566
" />
<path d="M123.1548 92.6566
L123.2501 92.6566
" />
<path d="M123.6310 94.2280
L123.6786 94.3708
" />
<path d="M123.6786 94.3708
L123.7262 94.4185
" />
<path d="M123.7262 94.4185
L123.8215 94.4661
" />
<path d="M123.8215 94.4661
L123.9643 94.4661
" />
<path d="M123.9643 94.4661
L124.0596 94.4185
" />
<path d="M124.0596 94.4185
L124.1072 94.3708
" />
<path d="M124.1072 94.3708
L124.1548 94.2756
" />
<path d="M124.1548 94.2756
L124.1548 93.8946
" />
<path d="M124.1548 93.8946
L123.1548 93.8946
" />
<path d="M123.1548 93.8946
L123.1548 94.2280
" />
<path d="M123.1548 94.2280
L123.2024 94.3232
" />
<path d="M123.2024 94.3232
L123.2501 94.3708
" />
<path d="M123.2501 94.3708
L123.3453 94.4185
" />
<path d="M123.3453 94.4185
L123.4405 94.4185
" />
<path d="M123.4405 94.4185
L123.5358 94.3708
" />
<path d="M123.5358 94.3708
L123.5834 94.3232
" />
<path d="M123.5834 94.3232
L123.6310 94.2280
" />
<path d="M123.6310 94.2280
L123.6310 93.8946
" />
<path d="M124.1072 95.2756
L124.1548 95.1804
" />
<path d="M124.1548 95.1804
L124.1548 94.9899
" />
<path d="M124.1548 94.9899
L124.1072 94.8946
" />
<path d="M124.1072 94.8946
L124.0120 94.8470
" />
<path d="M124.0120 94.8470
L123.6310 94.8470
" />
<path d="M123.6310 94.8470
L123.5358 94.8946
" />
<path d="M123.5358 94.8946
L123.4882 94.9899
" />
<path d="M123.4882 94.9899
L123.4882 95.1804
" />
<path d="M123.4882 95.1804
L123.5358 95.2756
" />
<path d="M123.5358 95.2756
L123.6310 95.3232
" />
<path d="M123.6310 95.3232
L123.7262 95.3232
" />
<path d="M123.7262 95.3232
L123.8215 94.8470
" />
<path d="M124.1548 95.7518
L123.4882 95.7518
" />
<path d="M123.6786 95.7518
L123.5834 95.7994
" />
<path d="M123.5834 95.7994
L123.5358 95.8470
" />
<path d="M123.5358 95.8470
L123.4882 95.9423
" />
<path d="M123.4882 95.9423
L123.4882 96.0375
" />
<path d="M124.1548 96.3708
L123.4882 96.3708
" />
<path d="M123.6786 96.3708
L123.5834 96.4185
" />
<path d="M123.5834 96.4185
L123.5358 96.4661
" />
<path d="M123.5358 96.4661
L123.4882 96.5613
" />
<path d="M123.4882 96.5613
L123.4882 96.6566
" />
<path d="M123.4882 96.8946
L124.1548 97.1327
" />
<path d="M123.4882 97.3708
L124.1548 97.1327
" />
<path d="M124.1548 97.1327
L124.3929 97.0375
" />
<path d="M124.3929 97.0375
L124.4405 96.9899
" />
<path d="M124.4405 96.9899
L124.4882 96.8946
" />
</g><text x="62.2400" y="19.5050"
transform="scale(-1 1) translate(-124.480000 0)"
textLength="7.2024" font-size="1.3333" lengthAdjust="spacingAndGlyphs"
text-anchor="middle" opacity="0">JST XH 3</text>
<g class="stroked-text"><desc>JST XH 3</desc>
<path d="M65.1924 18.4598
L65.1924 19.1741
" />
<path d="M65.1924 19.1741
L65.2400 19.3170
" />
<path d="M65.2400 19.3170
L65.3352 19.4122
" />
<path d="M65.3352 19.4122
L65.4781 19.4598
" />
<path d="M65.4781 19.4598
L65.5733 19.4598
" />
<path d="M64.7638 19.4122
L64.6210 19.4598
" />
<path d="M64.6210 19.4598
L64.3829 19.4598
" />
<path d="M64.3829 19.4598
L64.2876 19.4122
" />
<path d="M64.2876 19.4122
L64.2400 19.3646
" />
<path d="M64.2400 19.3646
L64.1924 19.2693
" />
<path d="M64.1924 19.2693
L64.1924 19.1741
" />
<path d="M64.1924 19.1741
L64.2400 19.0789
" />
<path d="M64.2400 19.0789
L64.2876 19.0312
" />
<path d="M64.2876 19.0312
L64.3829 18.9836
" />
<path d="M64.3829 18.9836
L64.5733 18.9360
" />
<path d="M64.5733 18.9360
L64.6686 18.8884
" />
<path d="M64.6686 18.8884
L64.7162 18.8408
" />
<path d="M64.7162 18.8408
L64.7638 18.7455
" />
<path d="M64.7638 18.7455
L64.7638 18.6503
" />
<path d="M64.7638 18.6503
L64.7162 18.5551
" />
<path d="M64.7162 18.5551
L64.6686 18.5074
" />
<path d="M64.6686 18.5074
L64.5733 18.4598
" />
<path d="M64.5733 18.4598
L64.3352 18.4598
" />
<path d="M64.3352 18.4598
L64.1924 18.5074
" />
<path d="M63.9067 18.4598
L63.3352 18.4598
" />
<path d="M63.6210 19.4598
L63.6210 18.4598
" />
<path d="M62.3352 18.4598
L61.6686 19.4598
" />
<path d="M61.6686 18.4598
L62.3352 19.4598
" />
<path d="M61.2876 19.4598
L61.2876 18.4598
" />
<path d="M61.2876 18.9360
L60.7162 18.9360
" />
<path d="M60.7162 19.4598
L60.7162 18.4598
" />
<path d="M59.5733 18.4598
L58.9543 18.4598
" />
<path d="M58.9543 18.4598
L59.2876 18.8408
" />
<path d="M59.2876 18.8408
L59.1448 18.8408
" />
<path d="M59.1448 18.8408
L59.0495 18.8884
" />
<path d="M59.0495 18.8884
L59.0019 18.9360
" />
<path d="M59.0019 18.9360
L58.9543 19.0312
" />
<path d="M58.9543 19.0312
L58.9543 19.2693
" />
<path d="M58.9543 19.2693
L59.0019 19.3646
" />
<path d="M59.0019 19.3646
L59.0495 19.4122
" />
<path d="M59.0495 19.4122
L59.1448 19.4598
" />
<path d="M59.1448 19.4598
L59.4305 19.4598
" />
<path d="M59.4305 19.4598
L59.5257 19.4122
" />
<path d="M59.5257 19.4122
L59.5733 19.3646
" />
</g><text x="62.2400" y="21.4050"
transform="scale(-1 1) translate(-124.480000 0)"
textLength="2.9167" font-size="1.3333" lengthAdjust="spacingAndGlyphs"
text-anchor="middle" opacity="0">J24</text>
<g class="stroked-text"><desc>J24</desc>
<path d="M63.0495 20.3598
L63.0495 21.0741
" />
<path d="M63.0495 21.0741
L63.0971 21.2170
" />
<path d="M63.0971 21.2170
L63.1924 21.3122
" />
<path d="M63.1924 21.3122
L63.3352 21.3598
" />
<path d="M63.3352 21.3598
L63.4305 21.3598
" />
<path d="M62.6210 20.4551
L62.5733 20.4074
" />
<path d="M62.5733 20.4074
L62.4781 20.3598
" />
<path d="M62.4781 20.3598
L62.2400 20.3598
" />
<path d="M62.2400 20.3598
L62.1448 20.4074
" />
<path d="M62.1448 20.4074
L62.0971 20.4551
" />
<path d="M62.0971 20.4551
L62.0495 20.5503
" />
<path d="M62.0495 20.5503
L62.0495 20.6455
" />
<path d="M62.0495 20.6455
L62.0971 20.7884
" />
<path d="M62.0971 20.7884
L62.6686 21.3598
" />
<path d="M62.6686 21.3598
L62.0495 21.3598
" />
<path d="M61.1924 20.6932
L61.1924 21.3598
" />
<path d="M61.4305 20.3122
L61.6686 21.0265
" />
<path d="M61.6686 21.0265
L61.0495 21.0265
" />
</g></g>
<g style="fill:#000000; fill-opacity:0.0; 
stroke:#000000; stroke-width:0.1000; stroke-opacity:1; 
stroke-linecap:round; stroke-linejoin:round;">
<path d="M68.1900 20.2000
L78.0900 20.2000
" />
<path d="M68.1900 25.9500
L68.1900 20.2000
" />
<path d="M70.0150 25.9500
L70.6400 24.9500
" />
<path d="M70.6400 24.9500
L71.2650 25.9500
" />
<path d="M78.0900 20.2000
L78.0900 25.9500
" />
<path d="M78.0900 25.9500
L68.1900 25.9500
" />
<path d="M45.3500 130.5000
L35.4500 130.5000
" />
<path d="M45.3500 124.7500
L45.3500 130.5000
" />
<path d="M43.5250 124.7500
L42.9000 125.7500
" />
<path d="M42.9000 125.7500
L42.2750 124.7500
" />
<path d="M35.4500 130.5000
L35.4500 124.7500
" />
<path d="M35.4500 124.7500
L45.3500 124.7500
" />
<path d="M158.7300 122.9606
L151.1100 122.9606
" />
<path d="M158.7300 117.8806
L158.7300 122.9606
" />
<path d="M157.8250 81.1956
L152.7450 81.1956
" />
<path d="M157.8250 74.5756
L157.8250 81.1956
" />
<path d="M156.8250 73.5756
L157.8250 74.5756
" />
<path d="M152.7450 81.1956
L152.7450 73.5756
" />
<path d="M152.7450 73.5756
L156.8250 73.5756
" />
<path d="M152.1100 117.8806
L158.7300 117.8806
" />
<path d="M151.1100 122.9606
L151.1100 118.8806
" />
<path d="M151.1100 118.8806
L152.1100 117.8806
" />
<path d="M121.5200 117.9056
L116.4400 117.9056
" />
<path d="M121.5200 68.1056
L121.5200 117.9056
" />
<path d="M120.5200 67.1056
L121.5200 68.1056
" />
<path d="M116.4400 117.9056
L116.4400 67.1056
" />
<path d="M116.4400 67.1056
L120.5200 67.1056
" />
<path d="M57.2900 20.2050
L67.1900 20.2050
" />
<path d="M57.2900 25.9550
L57.2900 20.2050
" />
<path d="M59.1150 25.9550
L59.7400 24.9550
" />
<path d="M59.7400 24.9550
L60.3650 25.9550
" />
<path d="M67.1900 20.2050
L67.1900 25.9550
" />
<path d="M67.1900 25.9550
L57.2900 25.9550
" />
<g >
</g>
<g >
</g>
<g >
</g>
<g >
</g>
<g >
</g>
<g >
</g>
<g >
</g>
<g >
</g>
<g >
</g>
<g >
</g>
<g >
</g>
<g >
</g>
<g >
</g>
<g >
</g>
<g >
</g>
<g >
</g>
<g >
</g>
<g >
</g>
<g >
</g>
<g >
</g>
<g >
</g>
<g >
</g>
<g >
</g>
<g >
</g>
<g >
</g>
<g >
</g>
<g >
</g>
<g >
</g>
<g >
</g>
<g >
</g>
<g >
</g>
<g >
</g>
<g >
</g>
<g >
</g>
<g >
</g>
<g >
</g>
<g >
</g>
<g >
</g>
<g >
</g>
<g >
</g>
<g >
</g>
<g >
</g>
<g >
</g>
<g >
</g>
<g >
</g>
<g >
</g>
<g >
</g>
<g >
</g>
<g >
</g>
<g >
</g>
<g >
</g>
<g >
</g>
<g >
</g>
<g >
</g>
<g >
</g>
<g >
</g>
<g >
</g>
<g >
</g>
<g >
</g>
<g >
</g>
<g >
</g>
<g >
</g>
<g >
</g>
<g >
</g>
<g >
</g>
<g >
</g>
<g >
</g>
<g >
</g>
<g >
</g>
<g >
</g>
<g >
</g>
<g >
</g>
<g >
</g>
<g >
</g>
<g >
</g>
<g >
</g>
<g >
</g>
<g >
</g>
<g >
</g>
<g >
</g>
<g >
</g>
<g >
</g>
<g >
</g>
<g >
</g>
<g >
</g>
<g >
</g>
<g >
</g>
<g >
</g>
<g >
</g>
<g >
</g>
<g >
</g>
<g >
</g>
<g >
</g>
<g >
</g>
<g >
</g>
<g >
</g>
<g >
</g>
<g >
</g>
<g >
</g>
<g >
</g>
<g >
</g>
<g >
</g>
<g >
</g>
<g >
</g>
<g >
</g>
<g >
</g>
<g >
</g>
<g >
</g>
<g >
</g>
<g >
</g>
<g >
</g>
<g >
</g>
<g >
</g>
<g >
</g>
<g >
</g>
<g >
</g>
<g >
</g>
<g >
</g>
<g >
</g>
<g >
</g>
<g >
</g>
<g >
</g>
<g >
</g>
<g >
</g>
<g >
</g>
<g >
</g>
<g >
</g>
<g >
</g>
<g >
</g>
<g >
</g>
<g >
</g>
<g >
</g>
<g >
</g>
<g >
</g>
<g >
</g>
<g >
</g>
<g >
</g>
<g >
</g>
<g >
</g>
<g >
</g>
<g >
</g>
<g >
</g>
</g> 
</svg>
