<?xml version="1.0" standalone="no"?>
 <!DOCTYPE svg PUBLIC "-//W3C//DTD SVG 1.1//EN" 
 "http://www.w3.org/Graphics/SVG/1.1/DTD/svg11.dtd"> 
<svg
  xmlns:svg="http://www.w3.org/2000/svg"
  xmlns="http://www.w3.org/2000/svg"
  xmlns:xlink="http://www.w3.org/1999/xlink"
  version="1.1"
  width="297.0022mm" height="210.0072mm" viewBox="0.0000 0.0000 297.0022 210.0072">
<title>SVG Image created as pedalboard-hw-B_Fab.svg date 2023/10/12 22:07:30 </title>
  <desc>Image generated by PCBNEW </desc>
<g style="fill:#000000; fill-opacity:1.0000;stroke:#000000; stroke-opacity:1.0000;
stroke-linecap:round; stroke-linejoin:round;"
 transform="translate(0 0) scale(1 1)">
</g>
<g style="fill:#000000; fill-opacity:0.0; 
stroke:#000000; stroke-width:0.0000; stroke-opacity:1; 
stroke-linecap:round; stroke-linejoin:round;">
</g>
<g style="fill:#000000; fill-opacity:0.0; 
stroke:#000000; stroke-width:0.1500; stroke-opacity:1; 
stroke-linecap:round; stroke-linejoin:round;">
<text x="113.6250" y="88.3300"
transform="scale(-1 1) translate(-227.250000 0)"
textLength="4.8690" font-size="1.3333" lengthAdjust="spacingAndGlyphs"
text-anchor="middle" opacity="0">USB_A</text>
<g class="stroked-text"><desc>USB_A</desc>
<path d="M115.6964 87.2848
L115.6964 88.0943
" />
<path d="M115.6964 88.0943
L115.6488 88.1896
" />
<path d="M115.6488 88.1896
L115.6012 88.2372
" />
<path d="M115.6012 88.2372
L115.5060 88.2848
" />
<path d="M115.5060 88.2848
L115.3155 88.2848
" />
<path d="M115.3155 88.2848
L115.2202 88.2372
" />
<path d="M115.2202 88.2372
L115.1726 88.1896
" />
<path d="M115.1726 88.1896
L115.1250 88.0943
" />
<path d="M115.1250 88.0943
L115.1250 87.2848
" />
<path d="M114.6964 88.2372
L114.5536 88.2848
" />
<path d="M114.5536 88.2848
L114.3155 88.2848
" />
<path d="M114.3155 88.2848
L114.2202 88.2372
" />
<path d="M114.2202 88.2372
L114.1726 88.1896
" />
<path d="M114.1726 88.1896
L114.1250 88.0943
" />
<path d="M114.1250 88.0943
L114.1250 87.9991
" />
<path d="M114.1250 87.9991
L114.1726 87.9039
" />
<path d="M114.1726 87.9039
L114.2202 87.8562
" />
<path d="M114.2202 87.8562
L114.3155 87.8086
" />
<path d="M114.3155 87.8086
L114.5060 87.7610
" />
<path d="M114.5060 87.7610
L114.6012 87.7134
" />
<path d="M114.6012 87.7134
L114.6488 87.6658
" />
<path d="M114.6488 87.6658
L114.6964 87.5705
" />
<path d="M114.6964 87.5705
L114.6964 87.4753
" />
<path d="M114.6964 87.4753
L114.6488 87.3801
" />
<path d="M114.6488 87.3801
L114.6012 87.3324
" />
<path d="M114.6012 87.3324
L114.5060 87.2848
" />
<path d="M114.5060 87.2848
L114.2679 87.2848
" />
<path d="M114.2679 87.2848
L114.1250 87.3324
" />
<path d="M113.3631 87.7610
L113.2202 87.8086
" />
<path d="M113.2202 87.8086
L113.1726 87.8562
" />
<path d="M113.1726 87.8562
L113.1250 87.9515
" />
<path d="M113.1250 87.9515
L113.1250 88.0943
" />
<path d="M113.1250 88.0943
L113.1726 88.1896
" />
<path d="M113.1726 88.1896
L113.2202 88.2372
" />
<path d="M113.2202 88.2372
L113.3155 88.2848
" />
<path d="M113.3155 88.2848
L113.6964 88.2848
" />
<path d="M113.6964 88.2848
L113.6964 87.2848
" />
<path d="M113.6964 87.2848
L113.3631 87.2848
" />
<path d="M113.3631 87.2848
L113.2679 87.3324
" />
<path d="M113.2679 87.3324
L113.2202 87.3801
" />
<path d="M113.2202 87.3801
L113.1726 87.4753
" />
<path d="M113.1726 87.4753
L113.1726 87.5705
" />
<path d="M113.1726 87.5705
L113.2202 87.6658
" />
<path d="M113.2202 87.6658
L113.2679 87.7134
" />
<path d="M113.2679 87.7134
L113.3631 87.7610
" />
<path d="M113.3631 87.7610
L113.6964 87.7610
" />
<path d="M112.9345 88.3801
L112.1726 88.3801
" />
<path d="M111.9821 87.9991
L111.5060 87.9991
" />
<path d="M112.0774 88.2848
L111.7440 87.2848
" />
<path d="M111.7440 87.2848
L111.4107 88.2848
" />
</g><g transform="rotate(-90.000000 113.6250 93.9700)">
<text x="113.6250" y="94.4700"
transform="scale(-1 1) translate(-227.250000 0)"
textLength="1.9643" font-size="1.3333" lengthAdjust="spacingAndGlyphs"
text-anchor="middle" opacity="0">J6</text>
</g>
<g class="stroked-text"><desc>J6</desc>
<path d="M113.0798 93.6367
L113.7941 93.6367
" />
<path d="M113.7941 93.6367
L113.9370 93.5890
" />
<path d="M113.9370 93.5890
L114.0322 93.4938
" />
<path d="M114.0322 93.4938
L114.0798 93.3510
" />
<path d="M114.0798 93.3510
L114.0798 93.2557
" />
<path d="M113.0798 94.5414
L113.0798 94.3510
" />
<path d="M113.0798 94.3510
L113.1274 94.2557
" />
<path d="M113.1274 94.2557
L113.1751 94.2081
" />
<path d="M113.1751 94.2081
L113.3179 94.1129
" />
<path d="M113.3179 94.1129
L113.5084 94.0652
" />
<path d="M113.5084 94.0652
L113.8893 94.0652
" />
<path d="M113.8893 94.0652
L113.9846 94.1129
" />
<path d="M113.9846 94.1129
L114.0322 94.1605
" />
<path d="M114.0322 94.1605
L114.0798 94.2557
" />
<path d="M114.0798 94.2557
L114.0798 94.4462
" />
<path d="M114.0798 94.4462
L114.0322 94.5414
" />
<path d="M114.0322 94.5414
L113.9846 94.5890
" />
<path d="M113.9846 94.5890
L113.8893 94.6367
" />
<path d="M113.8893 94.6367
L113.6512 94.6367
" />
<path d="M113.6512 94.6367
L113.5560 94.5890
" />
<path d="M113.5560 94.5890
L113.5084 94.5414
" />
<path d="M113.5084 94.5414
L113.4608 94.4462
" />
<path d="M113.4608 94.4462
L113.4608 94.2557
" />
<path d="M113.4608 94.2557
L113.5084 94.1605
" />
<path d="M113.5084 94.1605
L113.5560 94.1129
" />
<path d="M113.5560 94.1129
L113.6512 94.0652
" />
</g><text x="139.4600" y="55.5400"
transform="scale(-1 1) translate(-278.920000 0)"
textLength="9.3452" font-size="1.3333" lengthAdjust="spacingAndGlyphs"
text-anchor="middle" opacity="0">Conn_02x01</text>
<g class="stroked-text"><desc>Conn_02x01</desc>
<path d="M143.1981 55.3996
L143.2457 55.4472
" />
<path d="M143.2457 55.4472
L143.3886 55.4948
" />
<path d="M143.3886 55.4948
L143.4838 55.4948
" />
<path d="M143.4838 55.4948
L143.6267 55.4472
" />
<path d="M143.6267 55.4472
L143.7219 55.3520
" />
<path d="M143.7219 55.3520
L143.7695 55.2567
" />
<path d="M143.7695 55.2567
L143.8171 55.0662
" />
<path d="M143.8171 55.0662
L143.8171 54.9234
" />
<path d="M143.8171 54.9234
L143.7695 54.7329
" />
<path d="M143.7695 54.7329
L143.7219 54.6377
" />
<path d="M143.7219 54.6377
L143.6267 54.5424
" />
<path d="M143.6267 54.5424
L143.4838 54.4948
" />
<path d="M143.4838 54.4948
L143.3886 54.4948
" />
<path d="M143.3886 54.4948
L143.2457 54.5424
" />
<path d="M143.2457 54.5424
L143.1981 54.5901
" />
<path d="M142.6267 55.4948
L142.7219 55.4472
" />
<path d="M142.7219 55.4472
L142.7695 55.3996
" />
<path d="M142.7695 55.3996
L142.8171 55.3043
" />
<path d="M142.8171 55.3043
L142.8171 55.0186
" />
<path d="M142.8171 55.0186
L142.7695 54.9234
" />
<path d="M142.7695 54.9234
L142.7219 54.8758
" />
<path d="M142.7219 54.8758
L142.6267 54.8282
" />
<path d="M142.6267 54.8282
L142.4838 54.8282
" />
<path d="M142.4838 54.8282
L142.3886 54.8758
" />
<path d="M142.3886 54.8758
L142.3410 54.9234
" />
<path d="M142.3410 54.9234
L142.2933 55.0186
" />
<path d="M142.2933 55.0186
L142.2933 55.3043
" />
<path d="M142.2933 55.3043
L142.3410 55.3996
" />
<path d="M142.3410 55.3996
L142.3886 55.4472
" />
<path d="M142.3886 55.4472
L142.4838 55.4948
" />
<path d="M142.4838 55.4948
L142.6267 55.4948
" />
<path d="M141.8648 54.8282
L141.8648 55.4948
" />
<path d="M141.8648 54.9234
L141.8171 54.8758
" />
<path d="M141.8171 54.8758
L141.7219 54.8282
" />
<path d="M141.7219 54.8282
L141.5790 54.8282
" />
<path d="M141.5790 54.8282
L141.4838 54.8758
" />
<path d="M141.4838 54.8758
L141.4362 54.9710
" />
<path d="M141.4362 54.9710
L141.4362 55.4948
" />
<path d="M140.9600 54.8282
L140.9600 55.4948
" />
<path d="M140.9600 54.9234
L140.9124 54.8758
" />
<path d="M140.9124 54.8758
L140.8171 54.8282
" />
<path d="M140.8171 54.8282
L140.6743 54.8282
" />
<path d="M140.6743 54.8282
L140.5790 54.8758
" />
<path d="M140.5790 54.8758
L140.5314 54.9710
" />
<path d="M140.5314 54.9710
L140.5314 55.4948
" />
<path d="M140.2933 55.5901
L139.5314 55.5901
" />
<path d="M139.1029 54.4948
L139.0076 54.4948
" />
<path d="M139.0076 54.4948
L138.9124 54.5424
" />
<path d="M138.9124 54.5424
L138.8648 54.5901
" />
<path d="M138.8648 54.5901
L138.8171 54.6853
" />
<path d="M138.8171 54.6853
L138.7695 54.8758
" />
<path d="M138.7695 54.8758
L138.7695 55.1139
" />
<path d="M138.7695 55.1139
L138.8171 55.3043
" />
<path d="M138.8171 55.3043
L138.8648 55.3996
" />
<path d="M138.8648 55.3996
L138.9124 55.4472
" />
<path d="M138.9124 55.4472
L139.0076 55.4948
" />
<path d="M139.0076 55.4948
L139.1029 55.4948
" />
<path d="M139.1029 55.4948
L139.1981 55.4472
" />
<path d="M139.1981 55.4472
L139.2457 55.3996
" />
<path d="M139.2457 55.3996
L139.2933 55.3043
" />
<path d="M139.2933 55.3043
L139.3410 55.1139
" />
<path d="M139.3410 55.1139
L139.3410 54.8758
" />
<path d="M139.3410 54.8758
L139.2933 54.6853
" />
<path d="M139.2933 54.6853
L139.2457 54.5901
" />
<path d="M139.2457 54.5901
L139.1981 54.5424
" />
<path d="M139.1981 54.5424
L139.1029 54.4948
" />
<path d="M138.3886 54.5901
L138.3410 54.5424
" />
<path d="M138.3410 54.5424
L138.2457 54.4948
" />
<path d="M138.2457 54.4948
L138.0076 54.4948
" />
<path d="M138.0076 54.4948
L137.9124 54.5424
" />
<path d="M137.9124 54.5424
L137.8648 54.5901
" />
<path d="M137.8648 54.5901
L137.8171 54.6853
" />
<path d="M137.8171 54.6853
L137.8171 54.7805
" />
<path d="M137.8171 54.7805
L137.8648 54.9234
" />
<path d="M137.8648 54.9234
L138.4362 55.4948
" />
<path d="M138.4362 55.4948
L137.8171 55.4948
" />
<path d="M137.4838 55.4948
L136.9600 54.8282
" />
<path d="M137.4838 54.8282
L136.9600 55.4948
" />
<path d="M136.3886 54.4948
L136.2933 54.4948
" />
<path d="M136.2933 54.4948
L136.1981 54.5424
" />
<path d="M136.1981 54.5424
L136.1505 54.5901
" />
<path d="M136.1505 54.5901
L136.1029 54.6853
" />
<path d="M136.1029 54.6853
L136.0552 54.8758
" />
<path d="M136.0552 54.8758
L136.0552 55.1139
" />
<path d="M136.0552 55.1139
L136.1029 55.3043
" />
<path d="M136.1029 55.3043
L136.1505 55.3996
" />
<path d="M136.1505 55.3996
L136.1981 55.4472
" />
<path d="M136.1981 55.4472
L136.2933 55.4948
" />
<path d="M136.2933 55.4948
L136.3886 55.4948
" />
<path d="M136.3886 55.4948
L136.4838 55.4472
" />
<path d="M136.4838 55.4472
L136.5314 55.3996
" />
<path d="M136.5314 55.3996
L136.5790 55.3043
" />
<path d="M136.5790 55.3043
L136.6267 55.1139
" />
<path d="M136.6267 55.1139
L136.6267 54.8758
" />
<path d="M136.6267 54.8758
L136.5790 54.6853
" />
<path d="M136.5790 54.6853
L136.5314 54.5901
" />
<path d="M136.5314 54.5901
L136.4838 54.5424
" />
<path d="M136.4838 54.5424
L136.3886 54.4948
" />
<path d="M135.1029 55.4948
L135.6743 55.4948
" />
<path d="M135.3886 55.4948
L135.3886 54.4948
" />
<path d="M135.3886 54.4948
L135.4838 54.6377
" />
<path d="M135.4838 54.6377
L135.5790 54.7329
" />
<path d="M135.5790 54.7329
L135.6743 54.7805
" />
</g><g transform="rotate(-90.000000 137.8450 58.5800)">
<text x="137.8450" y="59.0800"
transform="scale(-1 1) translate(-275.690000 0)"
textLength="2.9167" font-size="1.3333" lengthAdjust="spacingAndGlyphs"
text-anchor="middle" opacity="0">J14</text>
</g>
<g class="stroked-text"><desc>J14</desc>
<path d="M137.2998 57.7705
L138.0141 57.7705
" />
<path d="M138.0141 57.7705
L138.1570 57.7229
" />
<path d="M138.1570 57.7229
L138.2522 57.6276
" />
<path d="M138.2522 57.6276
L138.2998 57.4848
" />
<path d="M138.2998 57.4848
L138.2998 57.3895
" />
<path d="M138.2998 58.7705
L138.2998 58.1990
" />
<path d="M138.2998 58.4848
L137.2998 58.4848
" />
<path d="M137.2998 58.4848
L137.4427 58.3895
" />
<path d="M137.4427 58.3895
L137.5379 58.2943
" />
<path d="M137.5379 58.2943
L137.5855 58.1990
" />
<path d="M137.6332 59.6276
L138.2998 59.6276
" />
<path d="M137.2522 59.3895
L137.9665 59.1514
" />
<path d="M137.9665 59.1514
L137.9665 59.7705
" />
</g><text x="126.9492" y="56.7296"
transform="scale(-1 1) translate(-253.898400 0)"
textLength="9.7738" font-size="1.3333" lengthAdjust="spacingAndGlyphs"
text-anchor="middle" opacity="0">Pico USB TP</text>
<g class="stroked-text"><desc>Pico USB TP</desc>
<path d="M131.4730 56.6844
L131.4730 55.6844
" />
<path d="M131.4730 55.6844
L131.0921 55.6844
" />
<path d="M131.0921 55.6844
L130.9968 55.7320
" />
<path d="M130.9968 55.7320
L130.9492 55.7797
" />
<path d="M130.9492 55.7797
L130.9016 55.8749
" />
<path d="M130.9016 55.8749
L130.9016 56.0178
" />
<path d="M130.9016 56.0178
L130.9492 56.1130
" />
<path d="M130.9492 56.1130
L130.9968 56.1606
" />
<path d="M130.9968 56.1606
L131.0921 56.2082
" />
<path d="M131.0921 56.2082
L131.4730 56.2082
" />
<path d="M130.4730 56.6844
L130.4730 56.0178
" />
<path d="M130.4730 55.6844
L130.5206 55.7320
" />
<path d="M130.5206 55.7320
L130.4730 55.7797
" />
<path d="M130.4730 55.7797
L130.4254 55.7320
" />
<path d="M130.4254 55.7320
L130.4730 55.6844
" />
<path d="M130.4730 55.6844
L130.4730 55.7797
" />
<path d="M129.5682 56.6368
L129.6635 56.6844
" />
<path d="M129.6635 56.6844
L129.8540 56.6844
" />
<path d="M129.8540 56.6844
L129.9492 56.6368
" />
<path d="M129.9492 56.6368
L129.9968 56.5892
" />
<path d="M129.9968 56.5892
L130.0444 56.4939
" />
<path d="M130.0444 56.4939
L130.0444 56.2082
" />
<path d="M130.0444 56.2082
L129.9968 56.1130
" />
<path d="M129.9968 56.1130
L129.9492 56.0654
" />
<path d="M129.9492 56.0654
L129.8540 56.0178
" />
<path d="M129.8540 56.0178
L129.6635 56.0178
" />
<path d="M129.6635 56.0178
L129.5682 56.0654
" />
<path d="M128.9968 56.6844
L129.0921 56.6368
" />
<path d="M129.0921 56.6368
L129.1397 56.5892
" />
<path d="M129.1397 56.5892
L129.1873 56.4939
" />
<path d="M129.1873 56.4939
L129.1873 56.2082
" />
<path d="M129.1873 56.2082
L129.1397 56.1130
" />
<path d="M129.1397 56.1130
L129.0921 56.0654
" />
<path d="M129.0921 56.0654
L128.9968 56.0178
" />
<path d="M128.9968 56.0178
L128.8540 56.0178
" />
<path d="M128.8540 56.0178
L128.7587 56.0654
" />
<path d="M128.7587 56.0654
L128.7111 56.1130
" />
<path d="M128.7111 56.1130
L128.6635 56.2082
" />
<path d="M128.6635 56.2082
L128.6635 56.4939
" />
<path d="M128.6635 56.4939
L128.7111 56.5892
" />
<path d="M128.7111 56.5892
L128.7587 56.6368
" />
<path d="M128.7587 56.6368
L128.8540 56.6844
" />
<path d="M128.8540 56.6844
L128.9968 56.6844
" />
<path d="M127.4730 55.6844
L127.4730 56.4939
" />
<path d="M127.4730 56.4939
L127.4254 56.5892
" />
<path d="M127.4254 56.5892
L127.3778 56.6368
" />
<path d="M127.3778 56.6368
L127.2825 56.6844
" />
<path d="M127.2825 56.6844
L127.0921 56.6844
" />
<path d="M127.0921 56.6844
L126.9968 56.6368
" />
<path d="M126.9968 56.6368
L126.9492 56.5892
" />
<path d="M126.9492 56.5892
L126.9016 56.4939
" />
<path d="M126.9016 56.4939
L126.9016 55.6844
" />
<path d="M126.4730 56.6368
L126.3302 56.6844
" />
<path d="M126.3302 56.6844
L126.0921 56.6844
" />
<path d="M126.0921 56.6844
L125.9968 56.6368
" />
<path d="M125.9968 56.6368
L125.9492 56.5892
" />
<path d="M125.9492 56.5892
L125.9016 56.4939
" />
<path d="M125.9016 56.4939
L125.9016 56.3987
" />
<path d="M125.9016 56.3987
L125.9492 56.3035
" />
<path d="M125.9492 56.3035
L125.9968 56.2558
" />
<path d="M125.9968 56.2558
L126.0921 56.2082
" />
<path d="M126.0921 56.2082
L126.2825 56.1606
" />
<path d="M126.2825 56.1606
L126.3778 56.1130
" />
<path d="M126.3778 56.1130
L126.4254 56.0654
" />
<path d="M126.4254 56.0654
L126.4730 55.9701
" />
<path d="M126.4730 55.9701
L126.4730 55.8749
" />
<path d="M126.4730 55.8749
L126.4254 55.7797
" />
<path d="M126.4254 55.7797
L126.3778 55.7320
" />
<path d="M126.3778 55.7320
L126.2825 55.6844
" />
<path d="M126.2825 55.6844
L126.0444 55.6844
" />
<path d="M126.0444 55.6844
L125.9016 55.7320
" />
<path d="M125.1397 56.1606
L124.9968 56.2082
" />
<path d="M124.9968 56.2082
L124.9492 56.2558
" />
<path d="M124.9492 56.2558
L124.9016 56.3511
" />
<path d="M124.9016 56.3511
L124.9016 56.4939
" />
<path d="M124.9016 56.4939
L124.9492 56.5892
" />
<path d="M124.9492 56.5892
L124.9968 56.6368
" />
<path d="M124.9968 56.6368
L125.0921 56.6844
" />
<path d="M125.0921 56.6844
L125.4730 56.6844
" />
<path d="M125.4730 56.6844
L125.4730 55.6844
" />
<path d="M125.4730 55.6844
L125.1397 55.6844
" />
<path d="M125.1397 55.6844
L125.0444 55.7320
" />
<path d="M125.0444 55.7320
L124.9968 55.7797
" />
<path d="M124.9968 55.7797
L124.9492 55.8749
" />
<path d="M124.9492 55.8749
L124.9492 55.9701
" />
<path d="M124.9492 55.9701
L124.9968 56.0654
" />
<path d="M124.9968 56.0654
L125.0444 56.1130
" />
<path d="M125.0444 56.1130
L125.1397 56.1606
" />
<path d="M125.1397 56.1606
L125.4730 56.1606
" />
<path d="M123.8540 55.6844
L123.2825 55.6844
" />
<path d="M123.5682 56.6844
L123.5682 55.6844
" />
<path d="M122.9492 56.6844
L122.9492 55.6844
" />
<path d="M122.9492 55.6844
L122.5682 55.6844
" />
<path d="M122.5682 55.6844
L122.4730 55.7320
" />
<path d="M122.4730 55.7320
L122.4254 55.7797
" />
<path d="M122.4254 55.7797
L122.3778 55.8749
" />
<path d="M122.3778 55.8749
L122.3778 56.0178
" />
<path d="M122.3778 56.0178
L122.4254 56.1130
" />
<path d="M122.4254 56.1130
L122.4730 56.1606
" />
<path d="M122.4730 56.1606
L122.5682 56.2082
" />
<path d="M122.5682 56.2082
L122.9492 56.2082
" />
</g><g transform="rotate(-90.000000 127.0000 49.0000)">
<text x="127.0000" y="49.5000"
transform="scale(-1 1) translate(-254.000000 0)"
textLength="1.9643" font-size="1.3333" lengthAdjust="spacingAndGlyphs"
text-anchor="middle" opacity="0">J5</text>
</g>
<g class="stroked-text"><desc>J5</desc>
<path d="M126.4548 48.6667
L127.1691 48.6667
" />
<path d="M127.1691 48.6667
L127.3120 48.6190
" />
<path d="M127.3120 48.6190
L127.4072 48.5238
" />
<path d="M127.4072 48.5238
L127.4548 48.3810
" />
<path d="M127.4548 48.3810
L127.4548 48.2857
" />
<path d="M126.4548 49.6190
L126.4548 49.1429
" />
<path d="M126.4548 49.1429
L126.9310 49.0952
" />
<path d="M126.9310 49.0952
L126.8834 49.1429
" />
<path d="M126.8834 49.1429
L126.8358 49.2381
" />
<path d="M126.8358 49.2381
L126.8358 49.4762
" />
<path d="M126.8358 49.4762
L126.8834 49.5714
" />
<path d="M126.8834 49.5714
L126.9310 49.6190
" />
<path d="M126.9310 49.6190
L127.0262 49.6667
" />
<path d="M127.0262 49.6667
L127.2643 49.6667
" />
<path d="M127.2643 49.6667
L127.3596 49.6190
" />
<path d="M127.3596 49.6190
L127.4072 49.5714
" />
<path d="M127.4072 49.5714
L127.4548 49.4762
" />
<path d="M127.4548 49.4762
L127.4548 49.2381
" />
<path d="M127.4548 49.2381
L127.4072 49.1429
" />
<path d="M127.4072 49.1429
L127.3596 49.0952
" />
</g><g transform="rotate(-90.000000 85.1000 74.9000)">
<text x="85.1000" y="75.4000"
transform="scale(-1 1) translate(-170.200000 0)"
textLength="2.9643" font-size="1.3333" lengthAdjust="spacingAndGlyphs"
text-anchor="middle" opacity="0">SJP</text>
</g>
<g class="stroked-text"><desc>SJP</desc>
<path d="M85.5072 73.7333
L85.5548 73.8762
" />
<path d="M85.5548 73.8762
L85.5548 74.1143
" />
<path d="M85.5548 74.1143
L85.5072 74.2095
" />
<path d="M85.5072 74.2095
L85.4596 74.2571
" />
<path d="M85.4596 74.2571
L85.3643 74.3048
" />
<path d="M85.3643 74.3048
L85.2691 74.3048
" />
<path d="M85.2691 74.3048
L85.1739 74.2571
" />
<path d="M85.1739 74.2571
L85.1262 74.2095
" />
<path d="M85.1262 74.2095
L85.0786 74.1143
" />
<path d="M85.0786 74.1143
L85.0310 73.9238
" />
<path d="M85.0310 73.9238
L84.9834 73.8286
" />
<path d="M84.9834 73.8286
L84.9358 73.7810
" />
<path d="M84.9358 73.7810
L84.8405 73.7333
" />
<path d="M84.8405 73.7333
L84.7453 73.7333
" />
<path d="M84.7453 73.7333
L84.6501 73.7810
" />
<path d="M84.6501 73.7810
L84.6024 73.8286
" />
<path d="M84.6024 73.8286
L84.5548 73.9238
" />
<path d="M84.5548 73.9238
L84.5548 74.1619
" />
<path d="M84.5548 74.1619
L84.6024 74.3048
" />
<path d="M84.5548 75.0190
L85.2691 75.0190
" />
<path d="M85.2691 75.0190
L85.4120 74.9714
" />
<path d="M85.4120 74.9714
L85.5072 74.8762
" />
<path d="M85.5072 74.8762
L85.5548 74.7333
" />
<path d="M85.5548 74.7333
L85.5548 74.6381
" />
<path d="M85.5548 75.4952
L84.5548 75.4952
" />
<path d="M84.5548 75.4952
L84.5548 75.8762
" />
<path d="M84.5548 75.8762
L84.6024 75.9714
" />
<path d="M84.6024 75.9714
L84.6501 76.0190
" />
<path d="M84.6501 76.0190
L84.7453 76.0667
" />
<path d="M84.7453 76.0667
L84.8882 76.0667
" />
<path d="M84.8882 76.0667
L84.9834 76.0190
" />
<path d="M84.9834 76.0190
L85.0310 75.9714
" />
<path d="M85.0310 75.9714
L85.0786 75.8762
" />
<path d="M85.0786 75.8762
L85.0786 75.4952
" />
</g><g transform="rotate(-90.000000 100.8410 49.0000)">
<text x="100.8410" y="49.5000"
transform="scale(-1 1) translate(-201.682000 0)"
textLength="3.4881" font-size="1.3333" lengthAdjust="spacingAndGlyphs"
text-anchor="middle" opacity="0">Pico</text>
</g>
<g class="stroked-text"><desc>Pico</desc>
<path d="M101.2958 47.6190
L100.2958 47.6190
" />
<path d="M100.2958 47.6190
L100.2958 48.0000
" />
<path d="M100.2958 48.0000
L100.3434 48.0952
" />
<path d="M100.3434 48.0952
L100.3911 48.1429
" />
<path d="M100.3911 48.1429
L100.4863 48.1905
" />
<path d="M100.4863 48.1905
L100.6292 48.1905
" />
<path d="M100.6292 48.1905
L100.7244 48.1429
" />
<path d="M100.7244 48.1429
L100.7720 48.0952
" />
<path d="M100.7720 48.0952
L100.8196 48.0000
" />
<path d="M100.8196 48.0000
L100.8196 47.6190
" />
<path d="M101.2958 48.6190
L100.6292 48.6190
" />
<path d="M100.2958 48.6190
L100.3434 48.5714
" />
<path d="M100.3434 48.5714
L100.3911 48.6190
" />
<path d="M100.3911 48.6190
L100.3434 48.6667
" />
<path d="M100.3434 48.6667
L100.2958 48.6190
" />
<path d="M100.2958 48.6190
L100.3911 48.6190
" />
<path d="M101.2482 49.5238
L101.2958 49.4286
" />
<path d="M101.2958 49.4286
L101.2958 49.2381
" />
<path d="M101.2958 49.2381
L101.2482 49.1429
" />
<path d="M101.2482 49.1429
L101.2006 49.0952
" />
<path d="M101.2006 49.0952
L101.1053 49.0476
" />
<path d="M101.1053 49.0476
L100.8196 49.0476
" />
<path d="M100.8196 49.0476
L100.7244 49.0952
" />
<path d="M100.7244 49.0952
L100.6768 49.1429
" />
<path d="M100.6768 49.1429
L100.6292 49.2381
" />
<path d="M100.6292 49.2381
L100.6292 49.4286
" />
<path d="M100.6292 49.4286
L100.6768 49.5238
" />
<path d="M101.2958 50.0952
L101.2482 50.0000
" />
<path d="M101.2482 50.0000
L101.2006 49.9524
" />
<path d="M101.2006 49.9524
L101.1053 49.9048
" />
<path d="M101.1053 49.9048
L100.8196 49.9048
" />
<path d="M100.8196 49.9048
L100.7244 49.9524
" />
<path d="M100.7244 49.9524
L100.6768 50.0000
" />
<path d="M100.6768 50.0000
L100.6292 50.0952
" />
<path d="M100.6292 50.0952
L100.6292 50.2381
" />
<path d="M100.6292 50.2381
L100.6768 50.3333
" />
<path d="M100.6768 50.3333
L100.7244 50.3810
" />
<path d="M100.7244 50.3810
L100.8196 50.4286
" />
<path d="M100.8196 50.4286
L101.1053 50.4286
" />
<path d="M101.1053 50.4286
L101.2006 50.3810
" />
<path d="M101.2006 50.3810
L101.2482 50.3333
" />
<path d="M101.2482 50.3333
L101.2958 50.2381
" />
<path d="M101.2958 50.2381
L101.2958 50.0952
" />
</g><g transform="rotate(-90.000000 103.0000 49.0000)">
<text x="103.0000" y="49.5000"
transform="scale(-1 1) translate(-206.000000 0)"
textLength="2.2500" font-size="1.3333" lengthAdjust="spacingAndGlyphs"
text-anchor="middle" opacity="0">U1</text>
</g>
<g class="stroked-text"><desc>U1</desc>
<path d="M102.4548 48.2381
L103.2643 48.2381
" />
<path d="M103.2643 48.2381
L103.3596 48.2857
" />
<path d="M103.3596 48.2857
L103.4072 48.3333
" />
<path d="M103.4072 48.3333
L103.4548 48.4286
" />
<path d="M103.4548 48.4286
L103.4548 48.6190
" />
<path d="M103.4548 48.6190
L103.4072 48.7143
" />
<path d="M103.4072 48.7143
L103.3596 48.7619
" />
<path d="M103.3596 48.7619
L103.2643 48.8095
" />
<path d="M103.2643 48.8095
L102.4548 48.8095
" />
<path d="M103.4548 49.8095
L103.4548 49.2381
" />
<path d="M103.4548 49.5238
L102.4548 49.5238
" />
<path d="M102.4548 49.5238
L102.5977 49.4286
" />
<path d="M102.5977 49.4286
L102.6929 49.3333
" />
<path d="M102.6929 49.3333
L102.7405 49.2381
" />
</g><text x="47.1000" y="33.5750"
transform="scale(-1 1) translate(-94.200000 0)"
textLength="12.4881" font-size="1.3333" lengthAdjust="spacingAndGlyphs"
text-anchor="middle" opacity="0">Conn_01x03_Pin</text>
<g class="stroked-text"><desc>Conn_01x03_Pin</desc>
<path d="M52.4095 33.4346
L52.4571 33.4822
" />
<path d="M52.4571 33.4822
L52.6000 33.5298
" />
<path d="M52.6000 33.5298
L52.6952 33.5298
" />
<path d="M52.6952 33.5298
L52.8381 33.4822
" />
<path d="M52.8381 33.4822
L52.9333 33.3870
" />
<path d="M52.9333 33.3870
L52.9810 33.2917
" />
<path d="M52.9810 33.2917
L53.0286 33.1012
" />
<path d="M53.0286 33.1012
L53.0286 32.9584
" />
<path d="M53.0286 32.9584
L52.9810 32.7679
" />
<path d="M52.9810 32.7679
L52.9333 32.6727
" />
<path d="M52.9333 32.6727
L52.8381 32.5774
" />
<path d="M52.8381 32.5774
L52.6952 32.5298
" />
<path d="M52.6952 32.5298
L52.6000 32.5298
" />
<path d="M52.6000 32.5298
L52.4571 32.5774
" />
<path d="M52.4571 32.5774
L52.4095 32.6251
" />
<path d="M51.8381 33.5298
L51.9333 33.4822
" />
<path d="M51.9333 33.4822
L51.9810 33.4346
" />
<path d="M51.9810 33.4346
L52.0286 33.3393
" />
<path d="M52.0286 33.3393
L52.0286 33.0536
" />
<path d="M52.0286 33.0536
L51.9810 32.9584
" />
<path d="M51.9810 32.9584
L51.9333 32.9108
" />
<path d="M51.9333 32.9108
L51.8381 32.8632
" />
<path d="M51.8381 32.8632
L51.6952 32.8632
" />
<path d="M51.6952 32.8632
L51.6000 32.9108
" />
<path d="M51.6000 32.9108
L51.5524 32.9584
" />
<path d="M51.5524 32.9584
L51.5048 33.0536
" />
<path d="M51.5048 33.0536
L51.5048 33.3393
" />
<path d="M51.5048 33.3393
L51.5524 33.4346
" />
<path d="M51.5524 33.4346
L51.6000 33.4822
" />
<path d="M51.6000 33.4822
L51.6952 33.5298
" />
<path d="M51.6952 33.5298
L51.8381 33.5298
" />
<path d="M51.0762 32.8632
L51.0762 33.5298
" />
<path d="M51.0762 32.9584
L51.0286 32.9108
" />
<path d="M51.0286 32.9108
L50.9333 32.8632
" />
<path d="M50.9333 32.8632
L50.7905 32.8632
" />
<path d="M50.7905 32.8632
L50.6952 32.9108
" />
<path d="M50.6952 32.9108
L50.6476 33.0060
" />
<path d="M50.6476 33.0060
L50.6476 33.5298
" />
<path d="M50.1714 32.8632
L50.1714 33.5298
" />
<path d="M50.1714 32.9584
L50.1238 32.9108
" />
<path d="M50.1238 32.9108
L50.0286 32.8632
" />
<path d="M50.0286 32.8632
L49.8857 32.8632
" />
<path d="M49.8857 32.8632
L49.7905 32.9108
" />
<path d="M49.7905 32.9108
L49.7429 33.0060
" />
<path d="M49.7429 33.0060
L49.7429 33.5298
" />
<path d="M49.5048 33.6251
L48.7429 33.6251
" />
<path d="M48.3143 32.5298
L48.2190 32.5298
" />
<path d="M48.2190 32.5298
L48.1238 32.5774
" />
<path d="M48.1238 32.5774
L48.0762 32.6251
" />
<path d="M48.0762 32.6251
L48.0286 32.7203
" />
<path d="M48.0286 32.7203
L47.9810 32.9108
" />
<path d="M47.9810 32.9108
L47.9810 33.1489
" />
<path d="M47.9810 33.1489
L48.0286 33.3393
" />
<path d="M48.0286 33.3393
L48.0762 33.4346
" />
<path d="M48.0762 33.4346
L48.1238 33.4822
" />
<path d="M48.1238 33.4822
L48.2190 33.5298
" />
<path d="M48.2190 33.5298
L48.3143 33.5298
" />
<path d="M48.3143 33.5298
L48.4095 33.4822
" />
<path d="M48.4095 33.4822
L48.4571 33.4346
" />
<path d="M48.4571 33.4346
L48.5048 33.3393
" />
<path d="M48.5048 33.3393
L48.5524 33.1489
" />
<path d="M48.5524 33.1489
L48.5524 32.9108
" />
<path d="M48.5524 32.9108
L48.5048 32.7203
" />
<path d="M48.5048 32.7203
L48.4571 32.6251
" />
<path d="M48.4571 32.6251
L48.4095 32.5774
" />
<path d="M48.4095 32.5774
L48.3143 32.5298
" />
<path d="M47.0286 33.5298
L47.6000 33.5298
" />
<path d="M47.3143 33.5298
L47.3143 32.5298
" />
<path d="M47.3143 32.5298
L47.4095 32.6727
" />
<path d="M47.4095 32.6727
L47.5048 32.7679
" />
<path d="M47.5048 32.7679
L47.6000 32.8155
" />
<path d="M46.6952 33.5298
L46.1714 32.8632
" />
<path d="M46.6952 32.8632
L46.1714 33.5298
" />
<path d="M45.6000 32.5298
L45.5048 32.5298
" />
<path d="M45.5048 32.5298
L45.4095 32.5774
" />
<path d="M45.4095 32.5774
L45.3619 32.6251
" />
<path d="M45.3619 32.6251
L45.3143 32.7203
" />
<path d="M45.3143 32.7203
L45.2667 32.9108
" />
<path d="M45.2667 32.9108
L45.2667 33.1489
" />
<path d="M45.2667 33.1489
L45.3143 33.3393
" />
<path d="M45.3143 33.3393
L45.3619 33.4346
" />
<path d="M45.3619 33.4346
L45.4095 33.4822
" />
<path d="M45.4095 33.4822
L45.5048 33.5298
" />
<path d="M45.5048 33.5298
L45.6000 33.5298
" />
<path d="M45.6000 33.5298
L45.6952 33.4822
" />
<path d="M45.6952 33.4822
L45.7429 33.4346
" />
<path d="M45.7429 33.4346
L45.7905 33.3393
" />
<path d="M45.7905 33.3393
L45.8381 33.1489
" />
<path d="M45.8381 33.1489
L45.8381 32.9108
" />
<path d="M45.8381 32.9108
L45.7905 32.7203
" />
<path d="M45.7905 32.7203
L45.7429 32.6251
" />
<path d="M45.7429 32.6251
L45.6952 32.5774
" />
<path d="M45.6952 32.5774
L45.6000 32.5298
" />
<path d="M44.9333 32.5298
L44.3143 32.5298
" />
<path d="M44.3143 32.5298
L44.6476 32.9108
" />
<path d="M44.6476 32.9108
L44.5048 32.9108
" />
<path d="M44.5048 32.9108
L44.4095 32.9584
" />
<path d="M44.4095 32.9584
L44.3619 33.0060
" />
<path d="M44.3619 33.0060
L44.3143 33.1012
" />
<path d="M44.3143 33.1012
L44.3143 33.3393
" />
<path d="M44.3143 33.3393
L44.3619 33.4346
" />
<path d="M44.3619 33.4346
L44.4095 33.4822
" />
<path d="M44.4095 33.4822
L44.5048 33.5298
" />
<path d="M44.5048 33.5298
L44.7905 33.5298
" />
<path d="M44.7905 33.5298
L44.8857 33.4822
" />
<path d="M44.8857 33.4822
L44.9333 33.4346
" />
<path d="M44.1238 33.6251
L43.3619 33.6251
" />
<path d="M43.1238 33.5298
L43.1238 32.5298
" />
<path d="M43.1238 32.5298
L42.7429 32.5298
" />
<path d="M42.7429 32.5298
L42.6476 32.5774
" />
<path d="M42.6476 32.5774
L42.6000 32.6251
" />
<path d="M42.6000 32.6251
L42.5524 32.7203
" />
<path d="M42.5524 32.7203
L42.5524 32.8632
" />
<path d="M42.5524 32.8632
L42.6000 32.9584
" />
<path d="M42.6000 32.9584
L42.6476 33.0060
" />
<path d="M42.6476 33.0060
L42.7429 33.0536
" />
<path d="M42.7429 33.0536
L43.1238 33.0536
" />
<path d="M42.1238 33.5298
L42.1238 32.8632
" />
<path d="M42.1238 32.5298
L42.1714 32.5774
" />
<path d="M42.1714 32.5774
L42.1238 32.6251
" />
<path d="M42.1238 32.6251
L42.0762 32.5774
" />
<path d="M42.0762 32.5774
L42.1238 32.5298
" />
<path d="M42.1238 32.5298
L42.1238 32.6251
" />
<path d="M41.6476 32.8632
L41.6476 33.5298
" />
<path d="M41.6476 32.9584
L41.6000 32.9108
" />
<path d="M41.6000 32.9108
L41.5048 32.8632
" />
<path d="M41.5048 32.8632
L41.3619 32.8632
" />
<path d="M41.3619 32.8632
L41.2667 32.9108
" />
<path d="M41.2667 32.9108
L41.2190 33.0060
" />
<path d="M41.2190 33.0060
L41.2190 33.5298
" />
</g><text x="47.1000" y="31.6750"
transform="scale(-1 1) translate(-94.200000 0)"
textLength="2.9167" font-size="1.3333" lengthAdjust="spacingAndGlyphs"
text-anchor="middle" opacity="0">J24</text>
<g class="stroked-text"><desc>J24</desc>
<path d="M47.9095 30.6298
L47.9095 31.3441
" />
<path d="M47.9095 31.3441
L47.9571 31.4870
" />
<path d="M47.9571 31.4870
L48.0524 31.5822
" />
<path d="M48.0524 31.5822
L48.1952 31.6298
" />
<path d="M48.1952 31.6298
L48.2905 31.6298
" />
<path d="M47.4810 30.7251
L47.4333 30.6774
" />
<path d="M47.4333 30.6774
L47.3381 30.6298
" />
<path d="M47.3381 30.6298
L47.1000 30.6298
" />
<path d="M47.1000 30.6298
L47.0048 30.6774
" />
<path d="M47.0048 30.6774
L46.9571 30.7251
" />
<path d="M46.9571 30.7251
L46.9095 30.8203
" />
<path d="M46.9095 30.8203
L46.9095 30.9155
" />
<path d="M46.9095 30.9155
L46.9571 31.0584
" />
<path d="M46.9571 31.0584
L47.5286 31.6298
" />
<path d="M47.5286 31.6298
L46.9095 31.6298
" />
<path d="M46.0524 30.9632
L46.0524 31.6298
" />
<path d="M46.2905 30.5822
L46.5286 31.2965
" />
<path d="M46.5286 31.2965
L45.9095 31.2965
" />
</g><g transform="rotate(-90.000000 82.6000 74.9000)">
<text x="82.6000" y="75.4000"
transform="scale(-1 1) translate(-165.200000 0)"
textLength="2.9643" font-size="1.3333" lengthAdjust="spacingAndGlyphs"
text-anchor="middle" opacity="0">SJP</text>
</g>
<g class="stroked-text"><desc>SJP</desc>
<path d="M83.0072 73.7333
L83.0548 73.8762
" />
<path d="M83.0548 73.8762
L83.0548 74.1143
" />
<path d="M83.0548 74.1143
L83.0072 74.2095
" />
<path d="M83.0072 74.2095
L82.9596 74.2571
" />
<path d="M82.9596 74.2571
L82.8643 74.3048
" />
<path d="M82.8643 74.3048
L82.7691 74.3048
" />
<path d="M82.7691 74.3048
L82.6739 74.2571
" />
<path d="M82.6739 74.2571
L82.6262 74.2095
" />
<path d="M82.6262 74.2095
L82.5786 74.1143
" />
<path d="M82.5786 74.1143
L82.5310 73.9238
" />
<path d="M82.5310 73.9238
L82.4834 73.8286
" />
<path d="M82.4834 73.8286
L82.4358 73.7810
" />
<path d="M82.4358 73.7810
L82.3405 73.7333
" />
<path d="M82.3405 73.7333
L82.2453 73.7333
" />
<path d="M82.2453 73.7333
L82.1501 73.7810
" />
<path d="M82.1501 73.7810
L82.1024 73.8286
" />
<path d="M82.1024 73.8286
L82.0548 73.9238
" />
<path d="M82.0548 73.9238
L82.0548 74.1619
" />
<path d="M82.0548 74.1619
L82.1024 74.3048
" />
<path d="M82.0548 75.0190
L82.7691 75.0190
" />
<path d="M82.7691 75.0190
L82.9120 74.9714
" />
<path d="M82.9120 74.9714
L83.0072 74.8762
" />
<path d="M83.0072 74.8762
L83.0548 74.7333
" />
<path d="M83.0548 74.7333
L83.0548 74.6381
" />
<path d="M83.0548 75.4952
L82.0548 75.4952
" />
<path d="M82.0548 75.4952
L82.0548 75.8762
" />
<path d="M82.0548 75.8762
L82.1024 75.9714
" />
<path d="M82.1024 75.9714
L82.1501 76.0190
" />
<path d="M82.1501 76.0190
L82.2453 76.0667
" />
<path d="M82.2453 76.0667
L82.3882 76.0667
" />
<path d="M82.3882 76.0667
L82.4834 76.0190
" />
<path d="M82.4834 76.0190
L82.5310 75.9714
" />
<path d="M82.5310 75.9714
L82.5786 75.8762
" />
<path d="M82.5786 75.8762
L82.5786 75.4952
" />
</g><g transform="rotate(-90.000000 50.3650 127.3000)">
<text x="50.3650" y="127.8000"
transform="scale(-1 1) translate(-100.730000 0)"
textLength="10.1071" font-size="1.3333" lengthAdjust="spacingAndGlyphs"
text-anchor="middle" opacity="0">RGB_LED_EXT</text>
</g>
<g class="stroked-text"><desc>RGB_LED_EXT</desc>
<path d="M50.8198 123.1810
L50.3436 122.8476
" />
<path d="M50.8198 122.6095
L49.8198 122.6095
" />
<path d="M49.8198 122.6095
L49.8198 122.9905
" />
<path d="M49.8198 122.9905
L49.8674 123.0857
" />
<path d="M49.8674 123.0857
L49.9151 123.1333
" />
<path d="M49.9151 123.1333
L50.0103 123.1810
" />
<path d="M50.0103 123.1810
L50.1532 123.1810
" />
<path d="M50.1532 123.1810
L50.2484 123.1333
" />
<path d="M50.2484 123.1333
L50.2960 123.0857
" />
<path d="M50.2960 123.0857
L50.3436 122.9905
" />
<path d="M50.3436 122.9905
L50.3436 122.6095
" />
<path d="M49.8674 124.1333
L49.8198 124.0381
" />
<path d="M49.8198 124.0381
L49.8198 123.8952
" />
<path d="M49.8198 123.8952
L49.8674 123.7524
" />
<path d="M49.8674 123.7524
L49.9627 123.6571
" />
<path d="M49.9627 123.6571
L50.0579 123.6095
" />
<path d="M50.0579 123.6095
L50.2484 123.5619
" />
<path d="M50.2484 123.5619
L50.3912 123.5619
" />
<path d="M50.3912 123.5619
L50.5817 123.6095
" />
<path d="M50.5817 123.6095
L50.6770 123.6571
" />
<path d="M50.6770 123.6571
L50.7722 123.7524
" />
<path d="M50.7722 123.7524
L50.8198 123.8952
" />
<path d="M50.8198 123.8952
L50.8198 123.9905
" />
<path d="M50.8198 123.9905
L50.7722 124.1333
" />
<path d="M50.7722 124.1333
L50.7246 124.1810
" />
<path d="M50.7246 124.1810
L50.3912 124.1810
" />
<path d="M50.3912 124.1810
L50.3912 123.9905
" />
<path d="M50.2960 124.9429
L50.3436 125.0857
" />
<path d="M50.3436 125.0857
L50.3912 125.1333
" />
<path d="M50.3912 125.1333
L50.4865 125.1810
" />
<path d="M50.4865 125.1810
L50.6293 125.1810
" />
<path d="M50.6293 125.1810
L50.7246 125.1333
" />
<path d="M50.7246 125.1333
L50.7722 125.0857
" />
<path d="M50.7722 125.0857
L50.8198 124.9905
" />
<path d="M50.8198 124.9905
L50.8198 124.6095
" />
<path d="M50.8198 124.6095
L49.8198 124.6095
" />
<path d="M49.8198 124.6095
L49.8198 124.9429
" />
<path d="M49.8198 124.9429
L49.8674 125.0381
" />
<path d="M49.8674 125.0381
L49.9151 125.0857
" />
<path d="M49.9151 125.0857
L50.0103 125.1333
" />
<path d="M50.0103 125.1333
L50.1055 125.1333
" />
<path d="M50.1055 125.1333
L50.2008 125.0857
" />
<path d="M50.2008 125.0857
L50.2484 125.0381
" />
<path d="M50.2484 125.0381
L50.2960 124.9429
" />
<path d="M50.2960 124.9429
L50.2960 124.6095
" />
<path d="M50.9151 125.3714
L50.9151 126.1333
" />
<path d="M50.8198 126.8476
L50.8198 126.3714
" />
<path d="M50.8198 126.3714
L49.8198 126.3714
" />
<path d="M50.2960 127.1810
L50.2960 127.5143
" />
<path d="M50.8198 127.6571
L50.8198 127.1810
" />
<path d="M50.8198 127.1810
L49.8198 127.1810
" />
<path d="M49.8198 127.1810
L49.8198 127.6571
" />
<path d="M50.8198 128.0857
L49.8198 128.0857
" />
<path d="M49.8198 128.0857
L49.8198 128.3238
" />
<path d="M49.8198 128.3238
L49.8674 128.4667
" />
<path d="M49.8674 128.4667
L49.9627 128.5619
" />
<path d="M49.9627 128.5619
L50.0579 128.6095
" />
<path d="M50.0579 128.6095
L50.2484 128.6571
" />
<path d="M50.2484 128.6571
L50.3912 128.6571
" />
<path d="M50.3912 128.6571
L50.5817 128.6095
" />
<path d="M50.5817 128.6095
L50.6770 128.5619
" />
<path d="M50.6770 128.5619
L50.7722 128.4667
" />
<path d="M50.7722 128.4667
L50.8198 128.3238
" />
<path d="M50.8198 128.3238
L50.8198 128.0857
" />
<path d="M50.9151 128.8476
L50.9151 129.6095
" />
<path d="M50.2960 129.8476
L50.2960 130.1810
" />
<path d="M50.8198 130.3238
L50.8198 129.8476
" />
<path d="M50.8198 129.8476
L49.8198 129.8476
" />
<path d="M49.8198 129.8476
L49.8198 130.3238
" />
<path d="M49.8198 130.6571
L50.8198 131.3238
" />
<path d="M49.8198 131.3238
L50.8198 130.6571
" />
<path d="M49.8198 131.5619
L49.8198 132.1333
" />
<path d="M50.8198 131.8476
L49.8198 131.8476
" />
</g><g transform="rotate(-90.000000 41.6000 126.6450)">
<text x="41.6000" y="127.1450"
transform="scale(-1 1) translate(-83.200000 0)"
textLength="1.9643" font-size="1.3333" lengthAdjust="spacingAndGlyphs"
text-anchor="middle" opacity="0">J4</text>
</g>
<g class="stroked-text"><desc>J4</desc>
<path d="M41.0548 126.3117
L41.7691 126.3117
" />
<path d="M41.7691 126.3117
L41.9120 126.2640
" />
<path d="M41.9120 126.2640
L42.0072 126.1688
" />
<path d="M42.0072 126.1688
L42.0548 126.0260
" />
<path d="M42.0548 126.0260
L42.0548 125.9307
" />
<path d="M41.3882 127.2164
L42.0548 127.2164
" />
<path d="M41.0072 126.9783
L41.7215 126.7402
" />
<path d="M41.7215 126.7402
L41.7215 127.3593
" />
</g><g transform="rotate(-90.000000 123.7000 93.7756)">
<text x="123.7000" y="94.2756"
transform="scale(-1 1) translate(-247.400000 0)"
textLength="7.7262" font-size="1.3333" lengthAdjust="spacingAndGlyphs"
text-anchor="middle" opacity="0">HiFi Berry</text>
</g>
<g class="stroked-text"><desc>HiFi Berry</desc>
<path d="M124.1548 90.2756
L123.1548 90.2756
" />
<path d="M123.6310 90.2756
L123.6310 90.8470
" />
<path d="M124.1548 90.8470
L123.1548 90.8470
" />
<path d="M124.1548 91.3232
L123.4882 91.3232
" />
<path d="M123.1548 91.3232
L123.2024 91.2756
" />
<path d="M123.2024 91.2756
L123.2501 91.3232
" />
<path d="M123.2501 91.3232
L123.2024 91.3708
" />
<path d="M123.2024 91.3708
L123.1548 91.3232
" />
<path d="M123.1548 91.3232
L123.2501 91.3232
" />
<path d="M123.6310 92.1327
L123.6310 91.7994
" />
<path d="M124.1548 91.7994
L123.1548 91.7994
" />
<path d="M123.1548 91.7994
L123.1548 92.2756
" />
<path d="M124.1548 92.6566
L123.4882 92.6566
" />
<path d="M123.1548 92.6566
L123.2024 92.6089
" />
<path d="M123.2024 92.6089
L123.2501 92.6566
" />
<path d="M123.2501 92.6566
L123.2024 92.7042
" />
<path d="M123.2024 92.7042
L123.1548 92.6566
" />
<path d="M123.1548 92.6566
L123.2501 92.6566
" />
<path d="M123.6310 94.2280
L123.6786 94.3708
" />
<path d="M123.6786 94.3708
L123.7262 94.4185
" />
<path d="M123.7262 94.4185
L123.8215 94.4661
" />
<path d="M123.8215 94.4661
L123.9643 94.4661
" />
<path d="M123.9643 94.4661
L124.0596 94.4185
" />
<path d="M124.0596 94.4185
L124.1072 94.3708
" />
<path d="M124.1072 94.3708
L124.1548 94.2756
" />
<path d="M124.1548 94.2756
L124.1548 93.8946
" />
<path d="M124.1548 93.8946
L123.1548 93.8946
" />
<path d="M123.1548 93.8946
L123.1548 94.2280
" />
<path d="M123.1548 94.2280
L123.2024 94.3232
" />
<path d="M123.2024 94.3232
L123.2501 94.3708
" />
<path d="M123.2501 94.3708
L123.3453 94.4185
" />
<path d="M123.3453 94.4185
L123.4405 94.4185
" />
<path d="M123.4405 94.4185
L123.5358 94.3708
" />
<path d="M123.5358 94.3708
L123.5834 94.3232
" />
<path d="M123.5834 94.3232
L123.6310 94.2280
" />
<path d="M123.6310 94.2280
L123.6310 93.8946
" />
<path d="M124.1072 95.2756
L124.1548 95.1804
" />
<path d="M124.1548 95.1804
L124.1548 94.9899
" />
<path d="M124.1548 94.9899
L124.1072 94.8946
" />
<path d="M124.1072 94.8946
L124.0120 94.8470
" />
<path d="M124.0120 94.8470
L123.6310 94.8470
" />
<path d="M123.6310 94.8470
L123.5358 94.8946
" />
<path d="M123.5358 94.8946
L123.4882 94.9899
" />
<path d="M123.4882 94.9899
L123.4882 95.1804
" />
<path d="M123.4882 95.1804
L123.5358 95.2756
" />
<path d="M123.5358 95.2756
L123.6310 95.3232
" />
<path d="M123.6310 95.3232
L123.7262 95.3232
" />
<path d="M123.7262 95.3232
L123.8215 94.8470
" />
<path d="M124.1548 95.7518
L123.4882 95.7518
" />
<path d="M123.6786 95.7518
L123.5834 95.7994
" />
<path d="M123.5834 95.7994
L123.5358 95.8470
" />
<path d="M123.5358 95.8470
L123.4882 95.9423
" />
<path d="M123.4882 95.9423
L123.4882 96.0375
" />
<path d="M124.1548 96.3708
L123.4882 96.3708
" />
<path d="M123.6786 96.3708
L123.5834 96.4185
" />
<path d="M123.5834 96.4185
L123.5358 96.4661
" />
<path d="M123.5358 96.4661
L123.4882 96.5613
" />
<path d="M123.4882 96.5613
L123.4882 96.6566
" />
<path d="M123.4882 96.8946
L124.1548 97.1327
" />
<path d="M123.4882 97.3708
L124.1548 97.1327
" />
<path d="M124.1548 97.1327
L124.3929 97.0375
" />
<path d="M124.3929 97.0375
L124.4405 96.9899
" />
<path d="M124.4405 96.9899
L124.4882 96.8946
" />
</g><text x="47.1000" y="41.3250"
transform="scale(-1 1) translate(-94.200000 0)"
textLength="12.4881" font-size="1.3333" lengthAdjust="spacingAndGlyphs"
text-anchor="middle" opacity="0">Conn_01x03_Pin</text>
<g class="stroked-text"><desc>Conn_01x03_Pin</desc>
<path d="M52.4095 41.1846
L52.4571 41.2322
" />
<path d="M52.4571 41.2322
L52.6000 41.2798
" />
<path d="M52.6000 41.2798
L52.6952 41.2798
" />
<path d="M52.6952 41.2798
L52.8381 41.2322
" />
<path d="M52.8381 41.2322
L52.9333 41.1370
" />
<path d="M52.9333 41.1370
L52.9810 41.0417
" />
<path d="M52.9810 41.0417
L53.0286 40.8512
" />
<path d="M53.0286 40.8512
L53.0286 40.7084
" />
<path d="M53.0286 40.7084
L52.9810 40.5179
" />
<path d="M52.9810 40.5179
L52.9333 40.4227
" />
<path d="M52.9333 40.4227
L52.8381 40.3274
" />
<path d="M52.8381 40.3274
L52.6952 40.2798
" />
<path d="M52.6952 40.2798
L52.6000 40.2798
" />
<path d="M52.6000 40.2798
L52.4571 40.3274
" />
<path d="M52.4571 40.3274
L52.4095 40.3751
" />
<path d="M51.8381 41.2798
L51.9333 41.2322
" />
<path d="M51.9333 41.2322
L51.9810 41.1846
" />
<path d="M51.9810 41.1846
L52.0286 41.0893
" />
<path d="M52.0286 41.0893
L52.0286 40.8036
" />
<path d="M52.0286 40.8036
L51.9810 40.7084
" />
<path d="M51.9810 40.7084
L51.9333 40.6608
" />
<path d="M51.9333 40.6608
L51.8381 40.6132
" />
<path d="M51.8381 40.6132
L51.6952 40.6132
" />
<path d="M51.6952 40.6132
L51.6000 40.6608
" />
<path d="M51.6000 40.6608
L51.5524 40.7084
" />
<path d="M51.5524 40.7084
L51.5048 40.8036
" />
<path d="M51.5048 40.8036
L51.5048 41.0893
" />
<path d="M51.5048 41.0893
L51.5524 41.1846
" />
<path d="M51.5524 41.1846
L51.6000 41.2322
" />
<path d="M51.6000 41.2322
L51.6952 41.2798
" />
<path d="M51.6952 41.2798
L51.8381 41.2798
" />
<path d="M51.0762 40.6132
L51.0762 41.2798
" />
<path d="M51.0762 40.7084
L51.0286 40.6608
" />
<path d="M51.0286 40.6608
L50.9333 40.6132
" />
<path d="M50.9333 40.6132
L50.7905 40.6132
" />
<path d="M50.7905 40.6132
L50.6952 40.6608
" />
<path d="M50.6952 40.6608
L50.6476 40.7560
" />
<path d="M50.6476 40.7560
L50.6476 41.2798
" />
<path d="M50.1714 40.6132
L50.1714 41.2798
" />
<path d="M50.1714 40.7084
L50.1238 40.6608
" />
<path d="M50.1238 40.6608
L50.0286 40.6132
" />
<path d="M50.0286 40.6132
L49.8857 40.6132
" />
<path d="M49.8857 40.6132
L49.7905 40.6608
" />
<path d="M49.7905 40.6608
L49.7429 40.7560
" />
<path d="M49.7429 40.7560
L49.7429 41.2798
" />
<path d="M49.5048 41.3751
L48.7429 41.3751
" />
<path d="M48.3143 40.2798
L48.2190 40.2798
" />
<path d="M48.2190 40.2798
L48.1238 40.3274
" />
<path d="M48.1238 40.3274
L48.0762 40.3751
" />
<path d="M48.0762 40.3751
L48.0286 40.4703
" />
<path d="M48.0286 40.4703
L47.9810 40.6608
" />
<path d="M47.9810 40.6608
L47.9810 40.8989
" />
<path d="M47.9810 40.8989
L48.0286 41.0893
" />
<path d="M48.0286 41.0893
L48.0762 41.1846
" />
<path d="M48.0762 41.1846
L48.1238 41.2322
" />
<path d="M48.1238 41.2322
L48.2190 41.2798
" />
<path d="M48.2190 41.2798
L48.3143 41.2798
" />
<path d="M48.3143 41.2798
L48.4095 41.2322
" />
<path d="M48.4095 41.2322
L48.4571 41.1846
" />
<path d="M48.4571 41.1846
L48.5048 41.0893
" />
<path d="M48.5048 41.0893
L48.5524 40.8989
" />
<path d="M48.5524 40.8989
L48.5524 40.6608
" />
<path d="M48.5524 40.6608
L48.5048 40.4703
" />
<path d="M48.5048 40.4703
L48.4571 40.3751
" />
<path d="M48.4571 40.3751
L48.4095 40.3274
" />
<path d="M48.4095 40.3274
L48.3143 40.2798
" />
<path d="M47.0286 41.2798
L47.6000 41.2798
" />
<path d="M47.3143 41.2798
L47.3143 40.2798
" />
<path d="M47.3143 40.2798
L47.4095 40.4227
" />
<path d="M47.4095 40.4227
L47.5048 40.5179
" />
<path d="M47.5048 40.5179
L47.6000 40.5655
" />
<path d="M46.6952 41.2798
L46.1714 40.6132
" />
<path d="M46.6952 40.6132
L46.1714 41.2798
" />
<path d="M45.6000 40.2798
L45.5048 40.2798
" />
<path d="M45.5048 40.2798
L45.4095 40.3274
" />
<path d="M45.4095 40.3274
L45.3619 40.3751
" />
<path d="M45.3619 40.3751
L45.3143 40.4703
" />
<path d="M45.3143 40.4703
L45.2667 40.6608
" />
<path d="M45.2667 40.6608
L45.2667 40.8989
" />
<path d="M45.2667 40.8989
L45.3143 41.0893
" />
<path d="M45.3143 41.0893
L45.3619 41.1846
" />
<path d="M45.3619 41.1846
L45.4095 41.2322
" />
<path d="M45.4095 41.2322
L45.5048 41.2798
" />
<path d="M45.5048 41.2798
L45.6000 41.2798
" />
<path d="M45.6000 41.2798
L45.6952 41.2322
" />
<path d="M45.6952 41.2322
L45.7429 41.1846
" />
<path d="M45.7429 41.1846
L45.7905 41.0893
" />
<path d="M45.7905 41.0893
L45.8381 40.8989
" />
<path d="M45.8381 40.8989
L45.8381 40.6608
" />
<path d="M45.8381 40.6608
L45.7905 40.4703
" />
<path d="M45.7905 40.4703
L45.7429 40.3751
" />
<path d="M45.7429 40.3751
L45.6952 40.3274
" />
<path d="M45.6952 40.3274
L45.6000 40.2798
" />
<path d="M44.9333 40.2798
L44.3143 40.2798
" />
<path d="M44.3143 40.2798
L44.6476 40.6608
" />
<path d="M44.6476 40.6608
L44.5048 40.6608
" />
<path d="M44.5048 40.6608
L44.4095 40.7084
" />
<path d="M44.4095 40.7084
L44.3619 40.7560
" />
<path d="M44.3619 40.7560
L44.3143 40.8512
" />
<path d="M44.3143 40.8512
L44.3143 41.0893
" />
<path d="M44.3143 41.0893
L44.3619 41.1846
" />
<path d="M44.3619 41.1846
L44.4095 41.2322
" />
<path d="M44.4095 41.2322
L44.5048 41.2798
" />
<path d="M44.5048 41.2798
L44.7905 41.2798
" />
<path d="M44.7905 41.2798
L44.8857 41.2322
" />
<path d="M44.8857 41.2322
L44.9333 41.1846
" />
<path d="M44.1238 41.3751
L43.3619 41.3751
" />
<path d="M43.1238 41.2798
L43.1238 40.2798
" />
<path d="M43.1238 40.2798
L42.7429 40.2798
" />
<path d="M42.7429 40.2798
L42.6476 40.3274
" />
<path d="M42.6476 40.3274
L42.6000 40.3751
" />
<path d="M42.6000 40.3751
L42.5524 40.4703
" />
<path d="M42.5524 40.4703
L42.5524 40.6132
" />
<path d="M42.5524 40.6132
L42.6000 40.7084
" />
<path d="M42.6000 40.7084
L42.6476 40.7560
" />
<path d="M42.6476 40.7560
L42.7429 40.8036
" />
<path d="M42.7429 40.8036
L43.1238 40.8036
" />
<path d="M42.1238 41.2798
L42.1238 40.6132
" />
<path d="M42.1238 40.2798
L42.1714 40.3274
" />
<path d="M42.1714 40.3274
L42.1238 40.3751
" />
<path d="M42.1238 40.3751
L42.0762 40.3274
" />
<path d="M42.0762 40.3274
L42.1238 40.2798
" />
<path d="M42.1238 40.2798
L42.1238 40.3751
" />
<path d="M41.6476 40.6132
L41.6476 41.2798
" />
<path d="M41.6476 40.7084
L41.6000 40.6608
" />
<path d="M41.6000 40.6608
L41.5048 40.6132
" />
<path d="M41.5048 40.6132
L41.3619 40.6132
" />
<path d="M41.3619 40.6132
L41.2667 40.6608
" />
<path d="M41.2667 40.6608
L41.2190 40.7560
" />
<path d="M41.2190 40.7560
L41.2190 41.2798
" />
</g><text x="47.1000" y="39.4250"
transform="scale(-1 1) translate(-94.200000 0)"
textLength="2.9167" font-size="1.3333" lengthAdjust="spacingAndGlyphs"
text-anchor="middle" opacity="0">J25</text>
<g class="stroked-text"><desc>J25</desc>
<path d="M47.9095 38.3798
L47.9095 39.0941
" />
<path d="M47.9095 39.0941
L47.9571 39.2370
" />
<path d="M47.9571 39.2370
L48.0524 39.3322
" />
<path d="M48.0524 39.3322
L48.1952 39.3798
" />
<path d="M48.1952 39.3798
L48.2905 39.3798
" />
<path d="M47.4810 38.4751
L47.4333 38.4274
" />
<path d="M47.4333 38.4274
L47.3381 38.3798
" />
<path d="M47.3381 38.3798
L47.1000 38.3798
" />
<path d="M47.1000 38.3798
L47.0048 38.4274
" />
<path d="M47.0048 38.4274
L46.9571 38.4751
" />
<path d="M46.9571 38.4751
L46.9095 38.5703
" />
<path d="M46.9095 38.5703
L46.9095 38.6655
" />
<path d="M46.9095 38.6655
L46.9571 38.8084
" />
<path d="M46.9571 38.8084
L47.5286 39.3798
" />
<path d="M47.5286 39.3798
L46.9095 39.3798
" />
<path d="M46.0048 38.3798
L46.4810 38.3798
" />
<path d="M46.4810 38.3798
L46.5286 38.8560
" />
<path d="M46.5286 38.8560
L46.4810 38.8084
" />
<path d="M46.4810 38.8084
L46.3857 38.7608
" />
<path d="M46.3857 38.7608
L46.1476 38.7608
" />
<path d="M46.1476 38.7608
L46.0524 38.8084
" />
<path d="M46.0524 38.8084
L46.0048 38.8560
" />
<path d="M46.0048 38.8560
L45.9571 38.9512
" />
<path d="M45.9571 38.9512
L45.9571 39.1893
" />
<path d="M45.9571 39.1893
L46.0048 39.2846
" />
<path d="M46.0048 39.2846
L46.0524 39.3322
" />
<path d="M46.0524 39.3322
L46.1476 39.3798
" />
<path d="M46.1476 39.3798
L46.3857 39.3798
" />
<path d="M46.3857 39.3798
L46.4810 39.3322
" />
<path d="M46.4810 39.3322
L46.5286 39.2846
" />
</g></g>
<g style="fill:#000000; fill-opacity:0.0; 
stroke:#000000; stroke-width:0.1000; stroke-opacity:1; 
stroke-linecap:round; stroke-linejoin:round;">
<path d="M49.5900 107.5900
L48.3200 106.3200
" />
<path d="M99.1200 107.5900
L49.5900 107.5900
" />
<path d="M48.3200 106.3200
L48.3200 102.5100
" />
<path d="M48.3200 102.5100
L99.1200 102.5100
" />
<path d="M99.1200 102.5100
L99.1200 107.5900
" />
<path d="M112.3550 88.8900
L112.3550 98.4150
" />
<path d="M112.3550 98.4150
L112.9900 99.0500
" />
<path d="M112.9900 99.0500
L114.8950 99.0500
" />
<path d="M114.8950 88.8900
L112.3550 88.8900
" />
<path d="M114.8950 99.0500
L114.8950 88.8900
" />
<path d="M134.7550 56.9900
L136.5750 56.9900
" />
<path d="M134.7550 57.6300
L134.7550 56.9900
" />
<path d="M134.7550 57.6300
L136.5750 57.6300
" />
<path d="M134.7550 59.5300
L136.5750 59.5300
" />
<path d="M134.7550 60.1700
L134.7550 59.5300
" />
<path d="M134.7550 60.1700
L136.5750 60.1700
" />
<path d="M136.5750 56.0400
L136.5750 60.4850
" />
<path d="M136.5750 60.4850
L137.2100 61.1200
" />
<path d="M137.2100 61.1200
L139.1150 61.1200
" />
<path d="M139.1150 56.0400
L136.5750 56.0400
" />
<path d="M139.1150 56.9900
L145.1150 56.9900
" />
<path d="M139.1150 57.6300
L145.1150 57.6300
" />
<path d="M139.1150 59.5300
L145.1150 59.5300
" />
<path d="M139.1150 60.1700
L145.1150 60.1700
" />
<path d="M139.1150 61.1200
L139.1150 56.0400
" />
<path d="M145.1150 57.6300
L145.1150 56.9900
" />
<path d="M145.1150 60.1700
L145.1150 59.5300
" />
</g>
<g style="fill:#000000; fill-opacity:0.0; 
stroke:#000000; stroke-width:0.1200; stroke-opacity:1; 
stroke-linecap:round; stroke-linejoin:round;">
<path d="M77.5000 59.5000
L128.5000 59.5000
" />
<path d="M127.2000 59.5000
L128.5000 58.2000
" />
<path d="M128.5000 59.5000
L128.5000 38.5000
" />
<path d="M77.5000 38.5000
L77.5000 59.5000
" />
<path d="M128.5000 38.5000
L77.5000 38.5000
" />
</g>
<g style="fill:#000000; fill-opacity:0.0; 
stroke:#000000; stroke-width:0.1000; stroke-opacity:1; 
stroke-linecap:round; stroke-linejoin:round;">
<path d="M52.0500 31.8750
L42.1500 31.8750
" />
<path d="M52.0500 26.1250
L52.0500 31.8750
" />
<path d="M50.2250 26.1250
L49.6000 27.1250
" />
<path d="M49.6000 27.1250
L48.9750 26.1250
" />
<path d="M42.1500 31.8750
L42.1500 26.1250
" />
<path d="M42.1500 26.1250
L52.0500 26.1250
" />
<path d="M38.5800 123.8250
L40.4000 123.8250
" />
<path d="M38.5800 124.4650
L38.5800 123.8250
" />
<path d="M38.5800 124.4650
L40.4000 124.4650
" />
<path d="M38.5800 126.3650
L40.4000 126.3650
" />
<path d="M38.5800 127.0050
L38.5800 126.3650
" />
<path d="M38.5800 127.0050
L40.4000 127.0050
" />
<path d="M38.5800 128.9050
L40.4000 128.9050
" />
<path d="M38.5800 129.5450
L38.5800 128.9050
" />
<path d="M38.5800 129.5450
L40.4000 129.5450
" />
<path d="M40.4000 122.8750
L40.4000 129.8600
" />
<path d="M40.4000 129.8600
L41.0350 130.4950
" />
<path d="M41.0350 130.4950
L42.9400 130.4950
" />
<path d="M42.9400 122.8750
L40.4000 122.8750
" />
<path d="M42.9400 123.8250
L48.9400 123.8250
" />
<path d="M42.9400 124.4650
L48.9400 124.4650
" />
<path d="M42.9400 126.3650
L48.9400 126.3650
" />
<path d="M42.9400 127.0050
L48.9400 127.0050
" />
<path d="M42.9400 128.9050
L48.9400 128.9050
" />
<path d="M42.9400 129.5450
L48.9400 129.5450
" />
<path d="M42.9400 130.4950
L42.9400 122.8750
" />
<path d="M48.9400 124.4650
L48.9400 123.8250
" />
<path d="M48.9400 127.0050
L48.9400 126.3650
" />
<path d="M48.9400 129.5450
L48.9400 128.9050
" />
<path d="M158.7300 122.9606
L151.1100 122.9606
" />
<path d="M158.7300 117.8806
L158.7300 122.9606
" />
<path d="M157.8250 81.1956
L152.7450 81.1956
" />
<path d="M157.8250 74.5756
L157.8250 81.1956
" />
<path d="M156.8250 73.5756
L157.8250 74.5756
" />
<path d="M152.7450 81.1956
L152.7450 73.5756
" />
<path d="M152.7450 73.5756
L156.8250 73.5756
" />
<path d="M152.1100 117.8806
L158.7300 117.8806
" />
<path d="M151.1100 122.9606
L151.1100 118.8806
" />
<path d="M151.1100 118.8806
L152.1100 117.8806
" />
<path d="M121.5200 117.9056
L116.4400 117.9056
" />
<path d="M121.5200 68.1056
L121.5200 117.9056
" />
<path d="M120.5200 67.1056
L121.5200 68.1056
" />
<path d="M116.4400 117.9056
L116.4400 67.1056
" />
<path d="M116.4400 67.1056
L120.5200 67.1056
" />
<path d="M52.0500 39.6250
L42.1500 39.6250
" />
<path d="M52.0500 33.8750
L52.0500 39.6250
" />
<path d="M50.2250 33.8750
L49.6000 34.8750
" />
<path d="M49.6000 34.8750
L48.9750 33.8750
" />
<path d="M42.1500 39.6250
L42.1500 33.8750
" />
<path d="M42.1500 33.8750
L52.0500 33.8750
" />
<g >
</g>
<g >
</g>
<g >
</g>
<g >
</g>
<g >
</g>
<g >
</g>
<g >
</g>
<g >
</g>
<g >
</g>
<g >
</g>
<g >
</g>
<g >
</g>
<g >
</g>
<g >
</g>
<g >
</g>
<g >
</g>
<g >
</g>
<g >
</g>
<g >
</g>
<g >
</g>
<g >
</g>
<g >
</g>
<g >
</g>
<g >
</g>
<g >
</g>
<g >
</g>
<g >
</g>
<g >
</g>
<g >
</g>
<g >
</g>
<g >
</g>
<g >
</g>
<g >
</g>
<g >
</g>
<g >
</g>
<g >
</g>
<g >
</g>
<g >
</g>
<g >
</g>
<g >
</g>
<g >
</g>
<g >
</g>
<g >
</g>
<g >
</g>
<g >
</g>
<g >
</g>
<g >
</g>
<g >
</g>
<g >
</g>
<g >
</g>
<g >
</g>
<g >
</g>
<g >
</g>
<g >
</g>
<g >
</g>
<g >
</g>
<g >
</g>
<g >
</g>
<g >
</g>
<g >
</g>
<g >
</g>
<g >
</g>
<g >
</g>
<g >
</g>
<g >
</g>
<g >
</g>
<g >
</g>
<g >
</g>
<g >
</g>
<g >
</g>
<g >
</g>
<g >
</g>
<g >
</g>
<g >
</g>
<g >
</g>
<g >
</g>
<g >
</g>
<g >
</g>
<g >
</g>
<g >
</g>
<g >
</g>
<g >
</g>
<g >
</g>
<g >
</g>
<g >
</g>
<g >
</g>
</g> 
</svg>
