<?xml version="1.0" standalone="no"?>
 <!DOCTYPE svg PUBLIC "-//W3C//DTD SVG 1.1//EN" 
 "http://www.w3.org/Graphics/SVG/1.1/DTD/svg11.dtd"> 
<svg
  xmlns:svg="http://www.w3.org/2000/svg"
  xmlns="http://www.w3.org/2000/svg"
  xmlns:xlink="http://www.w3.org/1999/xlink"
  version="1.1"
  width="297.0022mm" height="210.0072mm" viewBox="0.0000 0.0000 297.0022 210.0072">
<title>SVG Image created as pedalboard-hw-B_Fab.svg date 2023/10/22 19:55:32 </title>
  <desc>Image generated by PCBNEW </desc>
<g style="fill:#000000; fill-opacity:1.0000;stroke:#000000; stroke-opacity:1.0000;
stroke-linecap:round; stroke-linejoin:round;"
 transform="translate(0 0) scale(1 1)">
</g>
<g style="fill:#000000; fill-opacity:0.0; 
stroke:#000000; stroke-width:0.0000; stroke-opacity:1; 
stroke-linecap:round; stroke-linejoin:round;">
</g>
<g style="fill:#000000; fill-opacity:0.0; 
stroke:#000000; stroke-width:0.1500; stroke-opacity:1; 
stroke-linecap:round; stroke-linejoin:round;">
<text x="30.0000" y="123.2000"
transform="scale(-1 1) translate(-60.000000 0)"
textLength="5.3452" font-size="1.3333" lengthAdjust="spacingAndGlyphs"
text-anchor="middle" opacity="0">Spacer</text>
<g class="stroked-text"><desc>Spacer</desc>
<path d="M32.3571 123.1072
L32.2143 123.1548
" />
<path d="M32.2143 123.1548
L31.9762 123.1548
" />
<path d="M31.9762 123.1548
L31.8810 123.1072
" />
<path d="M31.8810 123.1072
L31.8333 123.0596
" />
<path d="M31.8333 123.0596
L31.7857 122.9643
" />
<path d="M31.7857 122.9643
L31.7857 122.8691
" />
<path d="M31.7857 122.8691
L31.8333 122.7739
" />
<path d="M31.8333 122.7739
L31.8810 122.7262
" />
<path d="M31.8810 122.7262
L31.9762 122.6786
" />
<path d="M31.9762 122.6786
L32.1667 122.6310
" />
<path d="M32.1667 122.6310
L32.2619 122.5834
" />
<path d="M32.2619 122.5834
L32.3095 122.5358
" />
<path d="M32.3095 122.5358
L32.3571 122.4405
" />
<path d="M32.3571 122.4405
L32.3571 122.3453
" />
<path d="M32.3571 122.3453
L32.3095 122.2501
" />
<path d="M32.3095 122.2501
L32.2619 122.2024
" />
<path d="M32.2619 122.2024
L32.1667 122.1548
" />
<path d="M32.1667 122.1548
L31.9286 122.1548
" />
<path d="M31.9286 122.1548
L31.7857 122.2024
" />
<path d="M31.3571 122.4882
L31.3571 123.4882
" />
<path d="M31.3571 122.5358
L31.2619 122.4882
" />
<path d="M31.2619 122.4882
L31.0714 122.4882
" />
<path d="M31.0714 122.4882
L30.9762 122.5358
" />
<path d="M30.9762 122.5358
L30.9286 122.5834
" />
<path d="M30.9286 122.5834
L30.8810 122.6786
" />
<path d="M30.8810 122.6786
L30.8810 122.9643
" />
<path d="M30.8810 122.9643
L30.9286 123.0596
" />
<path d="M30.9286 123.0596
L30.9762 123.1072
" />
<path d="M30.9762 123.1072
L31.0714 123.1548
" />
<path d="M31.0714 123.1548
L31.2619 123.1548
" />
<path d="M31.2619 123.1548
L31.3571 123.1072
" />
<path d="M30.0238 123.1548
L30.0238 122.6310
" />
<path d="M30.0238 122.6310
L30.0714 122.5358
" />
<path d="M30.0714 122.5358
L30.1667 122.4882
" />
<path d="M30.1667 122.4882
L30.3571 122.4882
" />
<path d="M30.3571 122.4882
L30.4524 122.5358
" />
<path d="M30.0238 123.1072
L30.1190 123.1548
" />
<path d="M30.1190 123.1548
L30.3571 123.1548
" />
<path d="M30.3571 123.1548
L30.4524 123.1072
" />
<path d="M30.4524 123.1072
L30.5000 123.0120
" />
<path d="M30.5000 123.0120
L30.5000 122.9167
" />
<path d="M30.5000 122.9167
L30.4524 122.8215
" />
<path d="M30.4524 122.8215
L30.3571 122.7739
" />
<path d="M30.3571 122.7739
L30.1190 122.7739
" />
<path d="M30.1190 122.7739
L30.0238 122.7262
" />
<path d="M29.1190 123.1072
L29.2143 123.1548
" />
<path d="M29.2143 123.1548
L29.4048 123.1548
" />
<path d="M29.4048 123.1548
L29.5000 123.1072
" />
<path d="M29.5000 123.1072
L29.5476 123.0596
" />
<path d="M29.5476 123.0596
L29.5952 122.9643
" />
<path d="M29.5952 122.9643
L29.5952 122.6786
" />
<path d="M29.5952 122.6786
L29.5476 122.5834
" />
<path d="M29.5476 122.5834
L29.5000 122.5358
" />
<path d="M29.5000 122.5358
L29.4048 122.4882
" />
<path d="M29.4048 122.4882
L29.2143 122.4882
" />
<path d="M29.2143 122.4882
L29.1190 122.5358
" />
<path d="M28.3095 123.1072
L28.4048 123.1548
" />
<path d="M28.4048 123.1548
L28.5952 123.1548
" />
<path d="M28.5952 123.1548
L28.6905 123.1072
" />
<path d="M28.6905 123.1072
L28.7381 123.0120
" />
<path d="M28.7381 123.0120
L28.7381 122.6310
" />
<path d="M28.7381 122.6310
L28.6905 122.5358
" />
<path d="M28.6905 122.5358
L28.5952 122.4882
" />
<path d="M28.5952 122.4882
L28.4048 122.4882
" />
<path d="M28.4048 122.4882
L28.3095 122.5358
" />
<path d="M28.3095 122.5358
L28.2619 122.6310
" />
<path d="M28.2619 122.6310
L28.2619 122.7262
" />
<path d="M28.2619 122.7262
L28.7381 122.8215
" />
<path d="M27.8333 123.1548
L27.8333 122.4882
" />
<path d="M27.8333 122.6786
L27.7857 122.5834
" />
<path d="M27.7857 122.5834
L27.7381 122.5358
" />
<path d="M27.7381 122.5358
L27.6429 122.4882
" />
<path d="M27.6429 122.4882
L27.5476 122.4882
" />
</g><text x="30.0000" y="119.5000"
transform="scale(-1 1) translate(-60.000000 0)"
textLength="2.2500" font-size="1.3333" lengthAdjust="spacingAndGlyphs"
text-anchor="middle" opacity="0">H9</text>
<g class="stroked-text"><desc>H9</desc>
<path d="M30.7619 119.4548
L30.7619 118.4548
" />
<path d="M30.7619 118.9310
L30.1905 118.9310
" />
<path d="M30.1905 119.4548
L30.1905 118.4548
" />
<path d="M29.6667 119.4548
L29.4762 119.4548
" />
<path d="M29.4762 119.4548
L29.3810 119.4072
" />
<path d="M29.3810 119.4072
L29.3333 119.3596
" />
<path d="M29.3333 119.3596
L29.2381 119.2167
" />
<path d="M29.2381 119.2167
L29.1905 119.0262
" />
<path d="M29.1905 119.0262
L29.1905 118.6453
" />
<path d="M29.1905 118.6453
L29.2381 118.5501
" />
<path d="M29.2381 118.5501
L29.2857 118.5024
" />
<path d="M29.2857 118.5024
L29.3810 118.4548
" />
<path d="M29.3810 118.4548
L29.5714 118.4548
" />
<path d="M29.5714 118.4548
L29.6667 118.5024
" />
<path d="M29.6667 118.5024
L29.7143 118.5501
" />
<path d="M29.7143 118.5501
L29.7619 118.6453
" />
<path d="M29.7619 118.6453
L29.7619 118.8834
" />
<path d="M29.7619 118.8834
L29.7143 118.9786
" />
<path d="M29.7143 118.9786
L29.6667 119.0262
" />
<path d="M29.6667 119.0262
L29.5714 119.0739
" />
<path d="M29.5714 119.0739
L29.3810 119.0739
" />
<path d="M29.3810 119.0739
L29.2857 119.0262
" />
<path d="M29.2857 119.0262
L29.2381 118.9786
" />
<path d="M29.2381 118.9786
L29.1905 118.8834
" />
</g><text x="105.0000" y="71.2000"
transform="scale(-1 1) translate(-210.000000 0)"
textLength="5.3452" font-size="1.3333" lengthAdjust="spacingAndGlyphs"
text-anchor="middle" opacity="0">Spacer</text>
<g class="stroked-text"><desc>Spacer</desc>
<path d="M107.3571 71.1072
L107.2143 71.1548
" />
<path d="M107.2143 71.1548
L106.9762 71.1548
" />
<path d="M106.9762 71.1548
L106.8810 71.1072
" />
<path d="M106.8810 71.1072
L106.8333 71.0596
" />
<path d="M106.8333 71.0596
L106.7857 70.9643
" />
<path d="M106.7857 70.9643
L106.7857 70.8691
" />
<path d="M106.7857 70.8691
L106.8333 70.7739
" />
<path d="M106.8333 70.7739
L106.8810 70.7262
" />
<path d="M106.8810 70.7262
L106.9762 70.6786
" />
<path d="M106.9762 70.6786
L107.1667 70.6310
" />
<path d="M107.1667 70.6310
L107.2619 70.5834
" />
<path d="M107.2619 70.5834
L107.3095 70.5358
" />
<path d="M107.3095 70.5358
L107.3571 70.4405
" />
<path d="M107.3571 70.4405
L107.3571 70.3453
" />
<path d="M107.3571 70.3453
L107.3095 70.2501
" />
<path d="M107.3095 70.2501
L107.2619 70.2024
" />
<path d="M107.2619 70.2024
L107.1667 70.1548
" />
<path d="M107.1667 70.1548
L106.9286 70.1548
" />
<path d="M106.9286 70.1548
L106.7857 70.2024
" />
<path d="M106.3571 70.4882
L106.3571 71.4882
" />
<path d="M106.3571 70.5358
L106.2619 70.4882
" />
<path d="M106.2619 70.4882
L106.0714 70.4882
" />
<path d="M106.0714 70.4882
L105.9762 70.5358
" />
<path d="M105.9762 70.5358
L105.9286 70.5834
" />
<path d="M105.9286 70.5834
L105.8810 70.6786
" />
<path d="M105.8810 70.6786
L105.8810 70.9643
" />
<path d="M105.8810 70.9643
L105.9286 71.0596
" />
<path d="M105.9286 71.0596
L105.9762 71.1072
" />
<path d="M105.9762 71.1072
L106.0714 71.1548
" />
<path d="M106.0714 71.1548
L106.2619 71.1548
" />
<path d="M106.2619 71.1548
L106.3571 71.1072
" />
<path d="M105.0238 71.1548
L105.0238 70.6310
" />
<path d="M105.0238 70.6310
L105.0714 70.5358
" />
<path d="M105.0714 70.5358
L105.1667 70.4882
" />
<path d="M105.1667 70.4882
L105.3571 70.4882
" />
<path d="M105.3571 70.4882
L105.4524 70.5358
" />
<path d="M105.0238 71.1072
L105.1190 71.1548
" />
<path d="M105.1190 71.1548
L105.3571 71.1548
" />
<path d="M105.3571 71.1548
L105.4524 71.1072
" />
<path d="M105.4524 71.1072
L105.5000 71.0120
" />
<path d="M105.5000 71.0120
L105.5000 70.9167
" />
<path d="M105.5000 70.9167
L105.4524 70.8215
" />
<path d="M105.4524 70.8215
L105.3571 70.7739
" />
<path d="M105.3571 70.7739
L105.1190 70.7739
" />
<path d="M105.1190 70.7739
L105.0238 70.7262
" />
<path d="M104.1190 71.1072
L104.2143 71.1548
" />
<path d="M104.2143 71.1548
L104.4048 71.1548
" />
<path d="M104.4048 71.1548
L104.5000 71.1072
" />
<path d="M104.5000 71.1072
L104.5476 71.0596
" />
<path d="M104.5476 71.0596
L104.5952 70.9643
" />
<path d="M104.5952 70.9643
L104.5952 70.6786
" />
<path d="M104.5952 70.6786
L104.5476 70.5834
" />
<path d="M104.5476 70.5834
L104.5000 70.5358
" />
<path d="M104.5000 70.5358
L104.4048 70.4882
" />
<path d="M104.4048 70.4882
L104.2143 70.4882
" />
<path d="M104.2143 70.4882
L104.1190 70.5358
" />
<path d="M103.3095 71.1072
L103.4048 71.1548
" />
<path d="M103.4048 71.1548
L103.5952 71.1548
" />
<path d="M103.5952 71.1548
L103.6905 71.1072
" />
<path d="M103.6905 71.1072
L103.7381 71.0120
" />
<path d="M103.7381 71.0120
L103.7381 70.6310
" />
<path d="M103.7381 70.6310
L103.6905 70.5358
" />
<path d="M103.6905 70.5358
L103.5952 70.4882
" />
<path d="M103.5952 70.4882
L103.4048 70.4882
" />
<path d="M103.4048 70.4882
L103.3095 70.5358
" />
<path d="M103.3095 70.5358
L103.2619 70.6310
" />
<path d="M103.2619 70.6310
L103.2619 70.7262
" />
<path d="M103.2619 70.7262
L103.7381 70.8215
" />
<path d="M102.8333 71.1548
L102.8333 70.4882
" />
<path d="M102.8333 70.6786
L102.7857 70.5834
" />
<path d="M102.7857 70.5834
L102.7381 70.5358
" />
<path d="M102.7381 70.5358
L102.6429 70.4882
" />
<path d="M102.6429 70.4882
L102.5476 70.4882
" />
</g><text x="105.0000" y="67.5000"
transform="scale(-1 1) translate(-210.000000 0)"
textLength="2.2500" font-size="1.3333" lengthAdjust="spacingAndGlyphs"
text-anchor="middle" opacity="0">H6</text>
<g class="stroked-text"><desc>H6</desc>
<path d="M105.7619 67.4548
L105.7619 66.4548
" />
<path d="M105.7619 66.9310
L105.1905 66.9310
" />
<path d="M105.1905 67.4548
L105.1905 66.4548
" />
<path d="M104.2857 66.4548
L104.4762 66.4548
" />
<path d="M104.4762 66.4548
L104.5714 66.5024
" />
<path d="M104.5714 66.5024
L104.6190 66.5501
" />
<path d="M104.6190 66.5501
L104.7143 66.6929
" />
<path d="M104.7143 66.6929
L104.7619 66.8834
" />
<path d="M104.7619 66.8834
L104.7619 67.2643
" />
<path d="M104.7619 67.2643
L104.7143 67.3596
" />
<path d="M104.7143 67.3596
L104.6667 67.4072
" />
<path d="M104.6667 67.4072
L104.5714 67.4548
" />
<path d="M104.5714 67.4548
L104.3810 67.4548
" />
<path d="M104.3810 67.4548
L104.2857 67.4072
" />
<path d="M104.2857 67.4072
L104.2381 67.3596
" />
<path d="M104.2381 67.3596
L104.1905 67.2643
" />
<path d="M104.1905 67.2643
L104.1905 67.0262
" />
<path d="M104.1905 67.0262
L104.2381 66.9310
" />
<path d="M104.2381 66.9310
L104.2857 66.8834
" />
<path d="M104.2857 66.8834
L104.3810 66.8358
" />
<path d="M104.3810 66.8358
L104.5714 66.8358
" />
<path d="M104.5714 66.8358
L104.6667 66.8834
" />
<path d="M104.6667 66.8834
L104.7143 66.9310
" />
<path d="M104.7143 66.9310
L104.7619 67.0262
" />
</g><text x="30.0000" y="71.2000"
transform="scale(-1 1) translate(-60.000000 0)"
textLength="5.3452" font-size="1.3333" lengthAdjust="spacingAndGlyphs"
text-anchor="middle" opacity="0">Spacer</text>
<g class="stroked-text"><desc>Spacer</desc>
<path d="M32.3571 71.1072
L32.2143 71.1548
" />
<path d="M32.2143 71.1548
L31.9762 71.1548
" />
<path d="M31.9762 71.1548
L31.8810 71.1072
" />
<path d="M31.8810 71.1072
L31.8333 71.0596
" />
<path d="M31.8333 71.0596
L31.7857 70.9643
" />
<path d="M31.7857 70.9643
L31.7857 70.8691
" />
<path d="M31.7857 70.8691
L31.8333 70.7739
" />
<path d="M31.8333 70.7739
L31.8810 70.7262
" />
<path d="M31.8810 70.7262
L31.9762 70.6786
" />
<path d="M31.9762 70.6786
L32.1667 70.6310
" />
<path d="M32.1667 70.6310
L32.2619 70.5834
" />
<path d="M32.2619 70.5834
L32.3095 70.5358
" />
<path d="M32.3095 70.5358
L32.3571 70.4405
" />
<path d="M32.3571 70.4405
L32.3571 70.3453
" />
<path d="M32.3571 70.3453
L32.3095 70.2501
" />
<path d="M32.3095 70.2501
L32.2619 70.2024
" />
<path d="M32.2619 70.2024
L32.1667 70.1548
" />
<path d="M32.1667 70.1548
L31.9286 70.1548
" />
<path d="M31.9286 70.1548
L31.7857 70.2024
" />
<path d="M31.3571 70.4882
L31.3571 71.4882
" />
<path d="M31.3571 70.5358
L31.2619 70.4882
" />
<path d="M31.2619 70.4882
L31.0714 70.4882
" />
<path d="M31.0714 70.4882
L30.9762 70.5358
" />
<path d="M30.9762 70.5358
L30.9286 70.5834
" />
<path d="M30.9286 70.5834
L30.8810 70.6786
" />
<path d="M30.8810 70.6786
L30.8810 70.9643
" />
<path d="M30.8810 70.9643
L30.9286 71.0596
" />
<path d="M30.9286 71.0596
L30.9762 71.1072
" />
<path d="M30.9762 71.1072
L31.0714 71.1548
" />
<path d="M31.0714 71.1548
L31.2619 71.1548
" />
<path d="M31.2619 71.1548
L31.3571 71.1072
" />
<path d="M30.0238 71.1548
L30.0238 70.6310
" />
<path d="M30.0238 70.6310
L30.0714 70.5358
" />
<path d="M30.0714 70.5358
L30.1667 70.4882
" />
<path d="M30.1667 70.4882
L30.3571 70.4882
" />
<path d="M30.3571 70.4882
L30.4524 70.5358
" />
<path d="M30.0238 71.1072
L30.1190 71.1548
" />
<path d="M30.1190 71.1548
L30.3571 71.1548
" />
<path d="M30.3571 71.1548
L30.4524 71.1072
" />
<path d="M30.4524 71.1072
L30.5000 71.0120
" />
<path d="M30.5000 71.0120
L30.5000 70.9167
" />
<path d="M30.5000 70.9167
L30.4524 70.8215
" />
<path d="M30.4524 70.8215
L30.3571 70.7739
" />
<path d="M30.3571 70.7739
L30.1190 70.7739
" />
<path d="M30.1190 70.7739
L30.0238 70.7262
" />
<path d="M29.1190 71.1072
L29.2143 71.1548
" />
<path d="M29.2143 71.1548
L29.4048 71.1548
" />
<path d="M29.4048 71.1548
L29.5000 71.1072
" />
<path d="M29.5000 71.1072
L29.5476 71.0596
" />
<path d="M29.5476 71.0596
L29.5952 70.9643
" />
<path d="M29.5952 70.9643
L29.5952 70.6786
" />
<path d="M29.5952 70.6786
L29.5476 70.5834
" />
<path d="M29.5476 70.5834
L29.5000 70.5358
" />
<path d="M29.5000 70.5358
L29.4048 70.4882
" />
<path d="M29.4048 70.4882
L29.2143 70.4882
" />
<path d="M29.2143 70.4882
L29.1190 70.5358
" />
<path d="M28.3095 71.1072
L28.4048 71.1548
" />
<path d="M28.4048 71.1548
L28.5952 71.1548
" />
<path d="M28.5952 71.1548
L28.6905 71.1072
" />
<path d="M28.6905 71.1072
L28.7381 71.0120
" />
<path d="M28.7381 71.0120
L28.7381 70.6310
" />
<path d="M28.7381 70.6310
L28.6905 70.5358
" />
<path d="M28.6905 70.5358
L28.5952 70.4882
" />
<path d="M28.5952 70.4882
L28.4048 70.4882
" />
<path d="M28.4048 70.4882
L28.3095 70.5358
" />
<path d="M28.3095 70.5358
L28.2619 70.6310
" />
<path d="M28.2619 70.6310
L28.2619 70.7262
" />
<path d="M28.2619 70.7262
L28.7381 70.8215
" />
<path d="M27.8333 71.1548
L27.8333 70.4882
" />
<path d="M27.8333 70.6786
L27.7857 70.5834
" />
<path d="M27.7857 70.5834
L27.7381 70.5358
" />
<path d="M27.7381 70.5358
L27.6429 70.4882
" />
<path d="M27.6429 70.4882
L27.5476 70.4882
" />
</g><text x="30.0000" y="67.5000"
transform="scale(-1 1) translate(-60.000000 0)"
textLength="2.2500" font-size="1.3333" lengthAdjust="spacingAndGlyphs"
text-anchor="middle" opacity="0">H5</text>
<g class="stroked-text"><desc>H5</desc>
<path d="M30.7619 67.4548
L30.7619 66.4548
" />
<path d="M30.7619 66.9310
L30.1905 66.9310
" />
<path d="M30.1905 67.4548
L30.1905 66.4548
" />
<path d="M29.2381 66.4548
L29.7143 66.4548
" />
<path d="M29.7143 66.4548
L29.7619 66.9310
" />
<path d="M29.7619 66.9310
L29.7143 66.8834
" />
<path d="M29.7143 66.8834
L29.6190 66.8358
" />
<path d="M29.6190 66.8358
L29.3810 66.8358
" />
<path d="M29.3810 66.8358
L29.2857 66.8834
" />
<path d="M29.2857 66.8834
L29.2381 66.9310
" />
<path d="M29.2381 66.9310
L29.1905 67.0262
" />
<path d="M29.1905 67.0262
L29.1905 67.2643
" />
<path d="M29.1905 67.2643
L29.2381 67.3596
" />
<path d="M29.2381 67.3596
L29.2857 67.4072
" />
<path d="M29.2857 67.4072
L29.3810 67.4548
" />
<path d="M29.3810 67.4548
L29.6190 67.4548
" />
<path d="M29.6190 67.4548
L29.7143 67.4072
" />
<path d="M29.7143 67.4072
L29.7619 67.3596
" />
</g><text x="180.0000" y="71.2000"
transform="scale(-1 1) translate(-360.000000 0)"
textLength="5.3452" font-size="1.3333" lengthAdjust="spacingAndGlyphs"
text-anchor="middle" opacity="0">Spacer</text>
<g class="stroked-text"><desc>Spacer</desc>
<path d="M182.3571 71.1072
L182.2143 71.1548
" />
<path d="M182.2143 71.1548
L181.9762 71.1548
" />
<path d="M181.9762 71.1548
L181.8810 71.1072
" />
<path d="M181.8810 71.1072
L181.8333 71.0596
" />
<path d="M181.8333 71.0596
L181.7857 70.9643
" />
<path d="M181.7857 70.9643
L181.7857 70.8691
" />
<path d="M181.7857 70.8691
L181.8333 70.7739
" />
<path d="M181.8333 70.7739
L181.8810 70.7262
" />
<path d="M181.8810 70.7262
L181.9762 70.6786
" />
<path d="M181.9762 70.6786
L182.1667 70.6310
" />
<path d="M182.1667 70.6310
L182.2619 70.5834
" />
<path d="M182.2619 70.5834
L182.3095 70.5358
" />
<path d="M182.3095 70.5358
L182.3571 70.4405
" />
<path d="M182.3571 70.4405
L182.3571 70.3453
" />
<path d="M182.3571 70.3453
L182.3095 70.2501
" />
<path d="M182.3095 70.2501
L182.2619 70.2024
" />
<path d="M182.2619 70.2024
L182.1667 70.1548
" />
<path d="M182.1667 70.1548
L181.9286 70.1548
" />
<path d="M181.9286 70.1548
L181.7857 70.2024
" />
<path d="M181.3571 70.4882
L181.3571 71.4882
" />
<path d="M181.3571 70.5358
L181.2619 70.4882
" />
<path d="M181.2619 70.4882
L181.0714 70.4882
" />
<path d="M181.0714 70.4882
L180.9762 70.5358
" />
<path d="M180.9762 70.5358
L180.9286 70.5834
" />
<path d="M180.9286 70.5834
L180.8810 70.6786
" />
<path d="M180.8810 70.6786
L180.8810 70.9643
" />
<path d="M180.8810 70.9643
L180.9286 71.0596
" />
<path d="M180.9286 71.0596
L180.9762 71.1072
" />
<path d="M180.9762 71.1072
L181.0714 71.1548
" />
<path d="M181.0714 71.1548
L181.2619 71.1548
" />
<path d="M181.2619 71.1548
L181.3571 71.1072
" />
<path d="M180.0238 71.1548
L180.0238 70.6310
" />
<path d="M180.0238 70.6310
L180.0714 70.5358
" />
<path d="M180.0714 70.5358
L180.1667 70.4882
" />
<path d="M180.1667 70.4882
L180.3571 70.4882
" />
<path d="M180.3571 70.4882
L180.4524 70.5358
" />
<path d="M180.0238 71.1072
L180.1190 71.1548
" />
<path d="M180.1190 71.1548
L180.3571 71.1548
" />
<path d="M180.3571 71.1548
L180.4524 71.1072
" />
<path d="M180.4524 71.1072
L180.5000 71.0120
" />
<path d="M180.5000 71.0120
L180.5000 70.9167
" />
<path d="M180.5000 70.9167
L180.4524 70.8215
" />
<path d="M180.4524 70.8215
L180.3571 70.7739
" />
<path d="M180.3571 70.7739
L180.1190 70.7739
" />
<path d="M180.1190 70.7739
L180.0238 70.7262
" />
<path d="M179.1190 71.1072
L179.2143 71.1548
" />
<path d="M179.2143 71.1548
L179.4048 71.1548
" />
<path d="M179.4048 71.1548
L179.5000 71.1072
" />
<path d="M179.5000 71.1072
L179.5476 71.0596
" />
<path d="M179.5476 71.0596
L179.5952 70.9643
" />
<path d="M179.5952 70.9643
L179.5952 70.6786
" />
<path d="M179.5952 70.6786
L179.5476 70.5834
" />
<path d="M179.5476 70.5834
L179.5000 70.5358
" />
<path d="M179.5000 70.5358
L179.4048 70.4882
" />
<path d="M179.4048 70.4882
L179.2143 70.4882
" />
<path d="M179.2143 70.4882
L179.1190 70.5358
" />
<path d="M178.3095 71.1072
L178.4048 71.1548
" />
<path d="M178.4048 71.1548
L178.5952 71.1548
" />
<path d="M178.5952 71.1548
L178.6905 71.1072
" />
<path d="M178.6905 71.1072
L178.7381 71.0120
" />
<path d="M178.7381 71.0120
L178.7381 70.6310
" />
<path d="M178.7381 70.6310
L178.6905 70.5358
" />
<path d="M178.6905 70.5358
L178.5952 70.4882
" />
<path d="M178.5952 70.4882
L178.4048 70.4882
" />
<path d="M178.4048 70.4882
L178.3095 70.5358
" />
<path d="M178.3095 70.5358
L178.2619 70.6310
" />
<path d="M178.2619 70.6310
L178.2619 70.7262
" />
<path d="M178.2619 70.7262
L178.7381 70.8215
" />
<path d="M177.8333 71.1548
L177.8333 70.4882
" />
<path d="M177.8333 70.6786
L177.7857 70.5834
" />
<path d="M177.7857 70.5834
L177.7381 70.5358
" />
<path d="M177.7381 70.5358
L177.6429 70.4882
" />
<path d="M177.6429 70.4882
L177.5476 70.4882
" />
</g><text x="180.0000" y="67.5000"
transform="scale(-1 1) translate(-360.000000 0)"
textLength="2.2500" font-size="1.3333" lengthAdjust="spacingAndGlyphs"
text-anchor="middle" opacity="0">H8</text>
<g class="stroked-text"><desc>H8</desc>
<path d="M180.7619 67.4548
L180.7619 66.4548
" />
<path d="M180.7619 66.9310
L180.1905 66.9310
" />
<path d="M180.1905 67.4548
L180.1905 66.4548
" />
<path d="M179.5714 66.8834
L179.6667 66.8358
" />
<path d="M179.6667 66.8358
L179.7143 66.7882
" />
<path d="M179.7143 66.7882
L179.7619 66.6929
" />
<path d="M179.7619 66.6929
L179.7619 66.6453
" />
<path d="M179.7619 66.6453
L179.7143 66.5501
" />
<path d="M179.7143 66.5501
L179.6667 66.5024
" />
<path d="M179.6667 66.5024
L179.5714 66.4548
" />
<path d="M179.5714 66.4548
L179.3810 66.4548
" />
<path d="M179.3810 66.4548
L179.2857 66.5024
" />
<path d="M179.2857 66.5024
L179.2381 66.5501
" />
<path d="M179.2381 66.5501
L179.1905 66.6453
" />
<path d="M179.1905 66.6453
L179.1905 66.6929
" />
<path d="M179.1905 66.6929
L179.2381 66.7882
" />
<path d="M179.2381 66.7882
L179.2857 66.8358
" />
<path d="M179.2857 66.8358
L179.3810 66.8834
" />
<path d="M179.3810 66.8834
L179.5714 66.8834
" />
<path d="M179.5714 66.8834
L179.6667 66.9310
" />
<path d="M179.6667 66.9310
L179.7143 66.9786
" />
<path d="M179.7143 66.9786
L179.7619 67.0739
" />
<path d="M179.7619 67.0739
L179.7619 67.2643
" />
<path d="M179.7619 67.2643
L179.7143 67.3596
" />
<path d="M179.7143 67.3596
L179.6667 67.4072
" />
<path d="M179.6667 67.4072
L179.5714 67.4548
" />
<path d="M179.5714 67.4548
L179.3810 67.4548
" />
<path d="M179.3810 67.4548
L179.2857 67.4072
" />
<path d="M179.2857 67.4072
L179.2381 67.3596
" />
<path d="M179.2381 67.3596
L179.1905 67.2643
" />
<path d="M179.1905 67.2643
L179.1905 67.0739
" />
<path d="M179.1905 67.0739
L179.2381 66.9786
" />
<path d="M179.2381 66.9786
L179.2857 66.9310
" />
<path d="M179.2857 66.9310
L179.3810 66.8834
" />
</g><text x="105.0000" y="123.2000"
transform="scale(-1 1) translate(-210.000000 0)"
textLength="5.3452" font-size="1.3333" lengthAdjust="spacingAndGlyphs"
text-anchor="middle" opacity="0">Spacer</text>
<g class="stroked-text"><desc>Spacer</desc>
<path d="M107.3571 123.1072
L107.2143 123.1548
" />
<path d="M107.2143 123.1548
L106.9762 123.1548
" />
<path d="M106.9762 123.1548
L106.8810 123.1072
" />
<path d="M106.8810 123.1072
L106.8333 123.0596
" />
<path d="M106.8333 123.0596
L106.7857 122.9643
" />
<path d="M106.7857 122.9643
L106.7857 122.8691
" />
<path d="M106.7857 122.8691
L106.8333 122.7739
" />
<path d="M106.8333 122.7739
L106.8810 122.7262
" />
<path d="M106.8810 122.7262
L106.9762 122.6786
" />
<path d="M106.9762 122.6786
L107.1667 122.6310
" />
<path d="M107.1667 122.6310
L107.2619 122.5834
" />
<path d="M107.2619 122.5834
L107.3095 122.5358
" />
<path d="M107.3095 122.5358
L107.3571 122.4405
" />
<path d="M107.3571 122.4405
L107.3571 122.3453
" />
<path d="M107.3571 122.3453
L107.3095 122.2501
" />
<path d="M107.3095 122.2501
L107.2619 122.2024
" />
<path d="M107.2619 122.2024
L107.1667 122.1548
" />
<path d="M107.1667 122.1548
L106.9286 122.1548
" />
<path d="M106.9286 122.1548
L106.7857 122.2024
" />
<path d="M106.3571 122.4882
L106.3571 123.4882
" />
<path d="M106.3571 122.5358
L106.2619 122.4882
" />
<path d="M106.2619 122.4882
L106.0714 122.4882
" />
<path d="M106.0714 122.4882
L105.9762 122.5358
" />
<path d="M105.9762 122.5358
L105.9286 122.5834
" />
<path d="M105.9286 122.5834
L105.8810 122.6786
" />
<path d="M105.8810 122.6786
L105.8810 122.9643
" />
<path d="M105.8810 122.9643
L105.9286 123.0596
" />
<path d="M105.9286 123.0596
L105.9762 123.1072
" />
<path d="M105.9762 123.1072
L106.0714 123.1548
" />
<path d="M106.0714 123.1548
L106.2619 123.1548
" />
<path d="M106.2619 123.1548
L106.3571 123.1072
" />
<path d="M105.0238 123.1548
L105.0238 122.6310
" />
<path d="M105.0238 122.6310
L105.0714 122.5358
" />
<path d="M105.0714 122.5358
L105.1667 122.4882
" />
<path d="M105.1667 122.4882
L105.3571 122.4882
" />
<path d="M105.3571 122.4882
L105.4524 122.5358
" />
<path d="M105.0238 123.1072
L105.1190 123.1548
" />
<path d="M105.1190 123.1548
L105.3571 123.1548
" />
<path d="M105.3571 123.1548
L105.4524 123.1072
" />
<path d="M105.4524 123.1072
L105.5000 123.0120
" />
<path d="M105.5000 123.0120
L105.5000 122.9167
" />
<path d="M105.5000 122.9167
L105.4524 122.8215
" />
<path d="M105.4524 122.8215
L105.3571 122.7739
" />
<path d="M105.3571 122.7739
L105.1190 122.7739
" />
<path d="M105.1190 122.7739
L105.0238 122.7262
" />
<path d="M104.1190 123.1072
L104.2143 123.1548
" />
<path d="M104.2143 123.1548
L104.4048 123.1548
" />
<path d="M104.4048 123.1548
L104.5000 123.1072
" />
<path d="M104.5000 123.1072
L104.5476 123.0596
" />
<path d="M104.5476 123.0596
L104.5952 122.9643
" />
<path d="M104.5952 122.9643
L104.5952 122.6786
" />
<path d="M104.5952 122.6786
L104.5476 122.5834
" />
<path d="M104.5476 122.5834
L104.5000 122.5358
" />
<path d="M104.5000 122.5358
L104.4048 122.4882
" />
<path d="M104.4048 122.4882
L104.2143 122.4882
" />
<path d="M104.2143 122.4882
L104.1190 122.5358
" />
<path d="M103.3095 123.1072
L103.4048 123.1548
" />
<path d="M103.4048 123.1548
L103.5952 123.1548
" />
<path d="M103.5952 123.1548
L103.6905 123.1072
" />
<path d="M103.6905 123.1072
L103.7381 123.0120
" />
<path d="M103.7381 123.0120
L103.7381 122.6310
" />
<path d="M103.7381 122.6310
L103.6905 122.5358
" />
<path d="M103.6905 122.5358
L103.5952 122.4882
" />
<path d="M103.5952 122.4882
L103.4048 122.4882
" />
<path d="M103.4048 122.4882
L103.3095 122.5358
" />
<path d="M103.3095 122.5358
L103.2619 122.6310
" />
<path d="M103.2619 122.6310
L103.2619 122.7262
" />
<path d="M103.2619 122.7262
L103.7381 122.8215
" />
<path d="M102.8333 123.1548
L102.8333 122.4882
" />
<path d="M102.8333 122.6786
L102.7857 122.5834
" />
<path d="M102.7857 122.5834
L102.7381 122.5358
" />
<path d="M102.7381 122.5358
L102.6429 122.4882
" />
<path d="M102.6429 122.4882
L102.5476 122.4882
" />
</g><text x="105.0000" y="119.5000"
transform="scale(-1 1) translate(-210.000000 0)"
textLength="3.2024" font-size="1.3333" lengthAdjust="spacingAndGlyphs"
text-anchor="middle" opacity="0">H10</text>
<g class="stroked-text"><desc>H10</desc>
<path d="M106.2381 119.4548
L106.2381 118.4548
" />
<path d="M106.2381 118.9310
L105.6667 118.9310
" />
<path d="M105.6667 119.4548
L105.6667 118.4548
" />
<path d="M104.6667 119.4548
L105.2381 119.4548
" />
<path d="M104.9524 119.4548
L104.9524 118.4548
" />
<path d="M104.9524 118.4548
L105.0476 118.5977
" />
<path d="M105.0476 118.5977
L105.1429 118.6929
" />
<path d="M105.1429 118.6929
L105.2381 118.7405
" />
<path d="M104.0476 118.4548
L103.9524 118.4548
" />
<path d="M103.9524 118.4548
L103.8571 118.5024
" />
<path d="M103.8571 118.5024
L103.8095 118.5501
" />
<path d="M103.8095 118.5501
L103.7619 118.6453
" />
<path d="M103.7619 118.6453
L103.7143 118.8358
" />
<path d="M103.7143 118.8358
L103.7143 119.0739
" />
<path d="M103.7143 119.0739
L103.7619 119.2643
" />
<path d="M103.7619 119.2643
L103.8095 119.3596
" />
<path d="M103.8095 119.3596
L103.8571 119.4072
" />
<path d="M103.8571 119.4072
L103.9524 119.4548
" />
<path d="M103.9524 119.4548
L104.0476 119.4548
" />
<path d="M104.0476 119.4548
L104.1429 119.4072
" />
<path d="M104.1429 119.4072
L104.1905 119.3596
" />
<path d="M104.1905 119.3596
L104.2381 119.2643
" />
<path d="M104.2381 119.2643
L104.2857 119.0739
" />
<path d="M104.2857 119.0739
L104.2857 118.8358
" />
<path d="M104.2857 118.8358
L104.2381 118.6453
" />
<path d="M104.2381 118.6453
L104.1905 118.5501
" />
<path d="M104.1905 118.5501
L104.1429 118.5024
" />
<path d="M104.1429 118.5024
L104.0476 118.4548
" />
</g><text x="47.1000" y="33.5750"
transform="scale(-1 1) translate(-94.200000 0)"
textLength="7.2024" font-size="1.3333" lengthAdjust="spacingAndGlyphs"
text-anchor="middle" opacity="0">JST XH 3</text>
<g class="stroked-text"><desc>JST XH 3</desc>
<path d="M50.0524 32.5298
L50.0524 33.2441
" />
<path d="M50.0524 33.2441
L50.1000 33.3870
" />
<path d="M50.1000 33.3870
L50.1952 33.4822
" />
<path d="M50.1952 33.4822
L50.3381 33.5298
" />
<path d="M50.3381 33.5298
L50.4333 33.5298
" />
<path d="M49.6238 33.4822
L49.4810 33.5298
" />
<path d="M49.4810 33.5298
L49.2429 33.5298
" />
<path d="M49.2429 33.5298
L49.1476 33.4822
" />
<path d="M49.1476 33.4822
L49.1000 33.4346
" />
<path d="M49.1000 33.4346
L49.0524 33.3393
" />
<path d="M49.0524 33.3393
L49.0524 33.2441
" />
<path d="M49.0524 33.2441
L49.1000 33.1489
" />
<path d="M49.1000 33.1489
L49.1476 33.1012
" />
<path d="M49.1476 33.1012
L49.2429 33.0536
" />
<path d="M49.2429 33.0536
L49.4333 33.0060
" />
<path d="M49.4333 33.0060
L49.5286 32.9584
" />
<path d="M49.5286 32.9584
L49.5762 32.9108
" />
<path d="M49.5762 32.9108
L49.6238 32.8155
" />
<path d="M49.6238 32.8155
L49.6238 32.7203
" />
<path d="M49.6238 32.7203
L49.5762 32.6251
" />
<path d="M49.5762 32.6251
L49.5286 32.5774
" />
<path d="M49.5286 32.5774
L49.4333 32.5298
" />
<path d="M49.4333 32.5298
L49.1952 32.5298
" />
<path d="M49.1952 32.5298
L49.0524 32.5774
" />
<path d="M48.7667 32.5298
L48.1952 32.5298
" />
<path d="M48.4810 33.5298
L48.4810 32.5298
" />
<path d="M47.1952 32.5298
L46.5286 33.5298
" />
<path d="M46.5286 32.5298
L47.1952 33.5298
" />
<path d="M46.1476 33.5298
L46.1476 32.5298
" />
<path d="M46.1476 33.0060
L45.5762 33.0060
" />
<path d="M45.5762 33.5298
L45.5762 32.5298
" />
<path d="M44.4333 32.5298
L43.8143 32.5298
" />
<path d="M43.8143 32.5298
L44.1476 32.9108
" />
<path d="M44.1476 32.9108
L44.0048 32.9108
" />
<path d="M44.0048 32.9108
L43.9095 32.9584
" />
<path d="M43.9095 32.9584
L43.8619 33.0060
" />
<path d="M43.8619 33.0060
L43.8143 33.1012
" />
<path d="M43.8143 33.1012
L43.8143 33.3393
" />
<path d="M43.8143 33.3393
L43.8619 33.4346
" />
<path d="M43.8619 33.4346
L43.9095 33.4822
" />
<path d="M43.9095 33.4822
L44.0048 33.5298
" />
<path d="M44.0048 33.5298
L44.2905 33.5298
" />
<path d="M44.2905 33.5298
L44.3857 33.4822
" />
<path d="M44.3857 33.4822
L44.4333 33.4346
" />
</g><text x="47.1000" y="31.6750"
transform="scale(-1 1) translate(-94.200000 0)"
textLength="2.9167" font-size="1.3333" lengthAdjust="spacingAndGlyphs"
text-anchor="middle" opacity="0">J23</text>
<g class="stroked-text"><desc>J23</desc>
<path d="M47.9095 30.6298
L47.9095 31.3441
" />
<path d="M47.9095 31.3441
L47.9571 31.4870
" />
<path d="M47.9571 31.4870
L48.0524 31.5822
" />
<path d="M48.0524 31.5822
L48.1952 31.6298
" />
<path d="M48.1952 31.6298
L48.2905 31.6298
" />
<path d="M47.4810 30.7251
L47.4333 30.6774
" />
<path d="M47.4333 30.6774
L47.3381 30.6298
" />
<path d="M47.3381 30.6298
L47.1000 30.6298
" />
<path d="M47.1000 30.6298
L47.0048 30.6774
" />
<path d="M47.0048 30.6774
L46.9571 30.7251
" />
<path d="M46.9571 30.7251
L46.9095 30.8203
" />
<path d="M46.9095 30.8203
L46.9095 30.9155
" />
<path d="M46.9095 30.9155
L46.9571 31.0584
" />
<path d="M46.9571 31.0584
L47.5286 31.6298
" />
<path d="M47.5286 31.6298
L46.9095 31.6298
" />
<path d="M46.5762 30.6298
L45.9571 30.6298
" />
<path d="M45.9571 30.6298
L46.2905 31.0108
" />
<path d="M46.2905 31.0108
L46.1476 31.0108
" />
<path d="M46.1476 31.0108
L46.0524 31.0584
" />
<path d="M46.0524 31.0584
L46.0048 31.1060
" />
<path d="M46.0048 31.1060
L45.9571 31.2012
" />
<path d="M45.9571 31.2012
L45.9571 31.4393
" />
<path d="M45.9571 31.4393
L46.0048 31.5346
" />
<path d="M46.0048 31.5346
L46.0524 31.5822
" />
<path d="M46.0524 31.5822
L46.1476 31.6298
" />
<path d="M46.1476 31.6298
L46.4333 31.6298
" />
<path d="M46.4333 31.6298
L46.5286 31.5822
" />
<path d="M46.5286 31.5822
L46.5762 31.5346
" />
</g><text x="40.4000" y="132.2000"
transform="scale(-1 1) translate(-80.800000 0)"
textLength="7.2024" font-size="1.3333" lengthAdjust="spacingAndGlyphs"
text-anchor="middle" opacity="0">JST XH 3</text>
<g class="stroked-text"><desc>JST XH 3</desc>
<path d="M43.3524 131.1548
L43.3524 131.8691
" />
<path d="M43.3524 131.8691
L43.4000 132.0120
" />
<path d="M43.4000 132.0120
L43.4952 132.1072
" />
<path d="M43.4952 132.1072
L43.6381 132.1548
" />
<path d="M43.6381 132.1548
L43.7333 132.1548
" />
<path d="M42.9238 132.1072
L42.7810 132.1548
" />
<path d="M42.7810 132.1548
L42.5429 132.1548
" />
<path d="M42.5429 132.1548
L42.4476 132.1072
" />
<path d="M42.4476 132.1072
L42.4000 132.0596
" />
<path d="M42.4000 132.0596
L42.3524 131.9643
" />
<path d="M42.3524 131.9643
L42.3524 131.8691
" />
<path d="M42.3524 131.8691
L42.4000 131.7739
" />
<path d="M42.4000 131.7739
L42.4476 131.7262
" />
<path d="M42.4476 131.7262
L42.5429 131.6786
" />
<path d="M42.5429 131.6786
L42.7333 131.6310
" />
<path d="M42.7333 131.6310
L42.8286 131.5834
" />
<path d="M42.8286 131.5834
L42.8762 131.5358
" />
<path d="M42.8762 131.5358
L42.9238 131.4405
" />
<path d="M42.9238 131.4405
L42.9238 131.3453
" />
<path d="M42.9238 131.3453
L42.8762 131.2501
" />
<path d="M42.8762 131.2501
L42.8286 131.2024
" />
<path d="M42.8286 131.2024
L42.7333 131.1548
" />
<path d="M42.7333 131.1548
L42.4952 131.1548
" />
<path d="M42.4952 131.1548
L42.3524 131.2024
" />
<path d="M42.0667 131.1548
L41.4952 131.1548
" />
<path d="M41.7810 132.1548
L41.7810 131.1548
" />
<path d="M40.4952 131.1548
L39.8286 132.1548
" />
<path d="M39.8286 131.1548
L40.4952 132.1548
" />
<path d="M39.4476 132.1548
L39.4476 131.1548
" />
<path d="M39.4476 131.6310
L38.8762 131.6310
" />
<path d="M38.8762 132.1548
L38.8762 131.1548
" />
<path d="M37.7333 131.1548
L37.1143 131.1548
" />
<path d="M37.1143 131.1548
L37.4476 131.5358
" />
<path d="M37.4476 131.5358
L37.3048 131.5358
" />
<path d="M37.3048 131.5358
L37.2095 131.5834
" />
<path d="M37.2095 131.5834
L37.1619 131.6310
" />
<path d="M37.1619 131.6310
L37.1143 131.7262
" />
<path d="M37.1143 131.7262
L37.1143 131.9643
" />
<path d="M37.1143 131.9643
L37.1619 132.0596
" />
<path d="M37.1619 132.0596
L37.2095 132.1072
" />
<path d="M37.2095 132.1072
L37.3048 132.1548
" />
<path d="M37.3048 132.1548
L37.5905 132.1548
" />
<path d="M37.5905 132.1548
L37.6857 132.1072
" />
<path d="M37.6857 132.1072
L37.7333 132.0596
" />
</g><text x="40.4000" y="130.3000"
transform="scale(-1 1) translate(-80.800000 0)"
textLength="2.9167" font-size="1.3333" lengthAdjust="spacingAndGlyphs"
text-anchor="middle" opacity="0">J26</text>
<g class="stroked-text"><desc>J26</desc>
<path d="M41.2095 129.2548
L41.2095 129.9691
" />
<path d="M41.2095 129.9691
L41.2571 130.1120
" />
<path d="M41.2571 130.1120
L41.3524 130.2072
" />
<path d="M41.3524 130.2072
L41.4952 130.2548
" />
<path d="M41.4952 130.2548
L41.5905 130.2548
" />
<path d="M40.7810 129.3501
L40.7333 129.3024
" />
<path d="M40.7333 129.3024
L40.6381 129.2548
" />
<path d="M40.6381 129.2548
L40.4000 129.2548
" />
<path d="M40.4000 129.2548
L40.3048 129.3024
" />
<path d="M40.3048 129.3024
L40.2571 129.3501
" />
<path d="M40.2571 129.3501
L40.2095 129.4453
" />
<path d="M40.2095 129.4453
L40.2095 129.5405
" />
<path d="M40.2095 129.5405
L40.2571 129.6834
" />
<path d="M40.2571 129.6834
L40.8286 130.2548
" />
<path d="M40.8286 130.2548
L40.2095 130.2548
" />
<path d="M39.3524 129.2548
L39.5429 129.2548
" />
<path d="M39.5429 129.2548
L39.6381 129.3024
" />
<path d="M39.6381 129.3024
L39.6857 129.3501
" />
<path d="M39.6857 129.3501
L39.7810 129.4929
" />
<path d="M39.7810 129.4929
L39.8286 129.6834
" />
<path d="M39.8286 129.6834
L39.8286 130.0643
" />
<path d="M39.8286 130.0643
L39.7810 130.1596
" />
<path d="M39.7810 130.1596
L39.7333 130.2072
" />
<path d="M39.7333 130.2072
L39.6381 130.2548
" />
<path d="M39.6381 130.2548
L39.4476 130.2548
" />
<path d="M39.4476 130.2548
L39.3524 130.2072
" />
<path d="M39.3524 130.2072
L39.3048 130.1596
" />
<path d="M39.3048 130.1596
L39.2571 130.0643
" />
<path d="M39.2571 130.0643
L39.2571 129.8262
" />
<path d="M39.2571 129.8262
L39.3048 129.7310
" />
<path d="M39.3048 129.7310
L39.3524 129.6834
" />
<path d="M39.3524 129.6834
L39.4476 129.6358
" />
<path d="M39.4476 129.6358
L39.6381 129.6358
" />
<path d="M39.6381 129.6358
L39.7333 129.6834
" />
<path d="M39.7333 129.6834
L39.7810 129.7310
" />
<path d="M39.7810 129.7310
L39.8286 129.8262
" />
</g><text x="180.0000" y="123.2000"
transform="scale(-1 1) translate(-360.000000 0)"
textLength="5.3452" font-size="1.3333" lengthAdjust="spacingAndGlyphs"
text-anchor="middle" opacity="0">Spacer</text>
<g class="stroked-text"><desc>Spacer</desc>
<path d="M182.3571 123.1072
L182.2143 123.1548
" />
<path d="M182.2143 123.1548
L181.9762 123.1548
" />
<path d="M181.9762 123.1548
L181.8810 123.1072
" />
<path d="M181.8810 123.1072
L181.8333 123.0596
" />
<path d="M181.8333 123.0596
L181.7857 122.9643
" />
<path d="M181.7857 122.9643
L181.7857 122.8691
" />
<path d="M181.7857 122.8691
L181.8333 122.7739
" />
<path d="M181.8333 122.7739
L181.8810 122.7262
" />
<path d="M181.8810 122.7262
L181.9762 122.6786
" />
<path d="M181.9762 122.6786
L182.1667 122.6310
" />
<path d="M182.1667 122.6310
L182.2619 122.5834
" />
<path d="M182.2619 122.5834
L182.3095 122.5358
" />
<path d="M182.3095 122.5358
L182.3571 122.4405
" />
<path d="M182.3571 122.4405
L182.3571 122.3453
" />
<path d="M182.3571 122.3453
L182.3095 122.2501
" />
<path d="M182.3095 122.2501
L182.2619 122.2024
" />
<path d="M182.2619 122.2024
L182.1667 122.1548
" />
<path d="M182.1667 122.1548
L181.9286 122.1548
" />
<path d="M181.9286 122.1548
L181.7857 122.2024
" />
<path d="M181.3571 122.4882
L181.3571 123.4882
" />
<path d="M181.3571 122.5358
L181.2619 122.4882
" />
<path d="M181.2619 122.4882
L181.0714 122.4882
" />
<path d="M181.0714 122.4882
L180.9762 122.5358
" />
<path d="M180.9762 122.5358
L180.9286 122.5834
" />
<path d="M180.9286 122.5834
L180.8810 122.6786
" />
<path d="M180.8810 122.6786
L180.8810 122.9643
" />
<path d="M180.8810 122.9643
L180.9286 123.0596
" />
<path d="M180.9286 123.0596
L180.9762 123.1072
" />
<path d="M180.9762 123.1072
L181.0714 123.1548
" />
<path d="M181.0714 123.1548
L181.2619 123.1548
" />
<path d="M181.2619 123.1548
L181.3571 123.1072
" />
<path d="M180.0238 123.1548
L180.0238 122.6310
" />
<path d="M180.0238 122.6310
L180.0714 122.5358
" />
<path d="M180.0714 122.5358
L180.1667 122.4882
" />
<path d="M180.1667 122.4882
L180.3571 122.4882
" />
<path d="M180.3571 122.4882
L180.4524 122.5358
" />
<path d="M180.0238 123.1072
L180.1190 123.1548
" />
<path d="M180.1190 123.1548
L180.3571 123.1548
" />
<path d="M180.3571 123.1548
L180.4524 123.1072
" />
<path d="M180.4524 123.1072
L180.5000 123.0120
" />
<path d="M180.5000 123.0120
L180.5000 122.9167
" />
<path d="M180.5000 122.9167
L180.4524 122.8215
" />
<path d="M180.4524 122.8215
L180.3571 122.7739
" />
<path d="M180.3571 122.7739
L180.1190 122.7739
" />
<path d="M180.1190 122.7739
L180.0238 122.7262
" />
<path d="M179.1190 123.1072
L179.2143 123.1548
" />
<path d="M179.2143 123.1548
L179.4048 123.1548
" />
<path d="M179.4048 123.1548
L179.5000 123.1072
" />
<path d="M179.5000 123.1072
L179.5476 123.0596
" />
<path d="M179.5476 123.0596
L179.5952 122.9643
" />
<path d="M179.5952 122.9643
L179.5952 122.6786
" />
<path d="M179.5952 122.6786
L179.5476 122.5834
" />
<path d="M179.5476 122.5834
L179.5000 122.5358
" />
<path d="M179.5000 122.5358
L179.4048 122.4882
" />
<path d="M179.4048 122.4882
L179.2143 122.4882
" />
<path d="M179.2143 122.4882
L179.1190 122.5358
" />
<path d="M178.3095 123.1072
L178.4048 123.1548
" />
<path d="M178.4048 123.1548
L178.5952 123.1548
" />
<path d="M178.5952 123.1548
L178.6905 123.1072
" />
<path d="M178.6905 123.1072
L178.7381 123.0120
" />
<path d="M178.7381 123.0120
L178.7381 122.6310
" />
<path d="M178.7381 122.6310
L178.6905 122.5358
" />
<path d="M178.6905 122.5358
L178.5952 122.4882
" />
<path d="M178.5952 122.4882
L178.4048 122.4882
" />
<path d="M178.4048 122.4882
L178.3095 122.5358
" />
<path d="M178.3095 122.5358
L178.2619 122.6310
" />
<path d="M178.2619 122.6310
L178.2619 122.7262
" />
<path d="M178.2619 122.7262
L178.7381 122.8215
" />
<path d="M177.8333 123.1548
L177.8333 122.4882
" />
<path d="M177.8333 122.6786
L177.7857 122.5834
" />
<path d="M177.7857 122.5834
L177.7381 122.5358
" />
<path d="M177.7381 122.5358
L177.6429 122.4882
" />
<path d="M177.6429 122.4882
L177.5476 122.4882
" />
</g><text x="180.0000" y="119.5000"
transform="scale(-1 1) translate(-360.000000 0)"
textLength="3.2024" font-size="1.3333" lengthAdjust="spacingAndGlyphs"
text-anchor="middle" opacity="0">H13</text>
<g class="stroked-text"><desc>H13</desc>
<path d="M181.2381 119.4548
L181.2381 118.4548
" />
<path d="M181.2381 118.9310
L180.6667 118.9310
" />
<path d="M180.6667 119.4548
L180.6667 118.4548
" />
<path d="M179.6667 119.4548
L180.2381 119.4548
" />
<path d="M179.9524 119.4548
L179.9524 118.4548
" />
<path d="M179.9524 118.4548
L180.0476 118.5977
" />
<path d="M180.0476 118.5977
L180.1429 118.6929
" />
<path d="M180.1429 118.6929
L180.2381 118.7405
" />
<path d="M179.3333 118.4548
L178.7143 118.4548
" />
<path d="M178.7143 118.4548
L179.0476 118.8358
" />
<path d="M179.0476 118.8358
L178.9048 118.8358
" />
<path d="M178.9048 118.8358
L178.8095 118.8834
" />
<path d="M178.8095 118.8834
L178.7619 118.9310
" />
<path d="M178.7619 118.9310
L178.7143 119.0262
" />
<path d="M178.7143 119.0262
L178.7143 119.2643
" />
<path d="M178.7143 119.2643
L178.7619 119.3596
" />
<path d="M178.7619 119.3596
L178.8095 119.4072
" />
<path d="M178.8095 119.4072
L178.9048 119.4548
" />
<path d="M178.9048 119.4548
L179.1905 119.4548
" />
<path d="M179.1905 119.4548
L179.2857 119.4072
" />
<path d="M179.2857 119.4072
L179.3333 119.3596
" />
</g><g transform="rotate(-90.000000 123.7000 93.7756)">
<text x="123.7000" y="94.2756"
transform="scale(-1 1) translate(-247.400000 0)"
textLength="7.7262" font-size="1.3333" lengthAdjust="spacingAndGlyphs"
text-anchor="middle" opacity="0">HiFi Berry</text>
</g>
<g class="stroked-text"><desc>HiFi Berry</desc>
<path d="M124.1548 90.2756
L123.1548 90.2756
" />
<path d="M123.6310 90.2756
L123.6310 90.8470
" />
<path d="M124.1548 90.8470
L123.1548 90.8470
" />
<path d="M124.1548 91.3232
L123.4882 91.3232
" />
<path d="M123.1548 91.3232
L123.2024 91.2756
" />
<path d="M123.2024 91.2756
L123.2501 91.3232
" />
<path d="M123.2501 91.3232
L123.2024 91.3708
" />
<path d="M123.2024 91.3708
L123.1548 91.3232
" />
<path d="M123.1548 91.3232
L123.2501 91.3232
" />
<path d="M123.6310 92.1327
L123.6310 91.7994
" />
<path d="M124.1548 91.7994
L123.1548 91.7994
" />
<path d="M123.1548 91.7994
L123.1548 92.2756
" />
<path d="M124.1548 92.6566
L123.4882 92.6566
" />
<path d="M123.1548 92.6566
L123.2024 92.6089
" />
<path d="M123.2024 92.6089
L123.2501 92.6566
" />
<path d="M123.2501 92.6566
L123.2024 92.7042
" />
<path d="M123.2024 92.7042
L123.1548 92.6566
" />
<path d="M123.1548 92.6566
L123.2501 92.6566
" />
<path d="M123.6310 94.2280
L123.6786 94.3708
" />
<path d="M123.6786 94.3708
L123.7262 94.4185
" />
<path d="M123.7262 94.4185
L123.8215 94.4661
" />
<path d="M123.8215 94.4661
L123.9643 94.4661
" />
<path d="M123.9643 94.4661
L124.0596 94.4185
" />
<path d="M124.0596 94.4185
L124.1072 94.3708
" />
<path d="M124.1072 94.3708
L124.1548 94.2756
" />
<path d="M124.1548 94.2756
L124.1548 93.8946
" />
<path d="M124.1548 93.8946
L123.1548 93.8946
" />
<path d="M123.1548 93.8946
L123.1548 94.2280
" />
<path d="M123.1548 94.2280
L123.2024 94.3232
" />
<path d="M123.2024 94.3232
L123.2501 94.3708
" />
<path d="M123.2501 94.3708
L123.3453 94.4185
" />
<path d="M123.3453 94.4185
L123.4405 94.4185
" />
<path d="M123.4405 94.4185
L123.5358 94.3708
" />
<path d="M123.5358 94.3708
L123.5834 94.3232
" />
<path d="M123.5834 94.3232
L123.6310 94.2280
" />
<path d="M123.6310 94.2280
L123.6310 93.8946
" />
<path d="M124.1072 95.2756
L124.1548 95.1804
" />
<path d="M124.1548 95.1804
L124.1548 94.9899
" />
<path d="M124.1548 94.9899
L124.1072 94.8946
" />
<path d="M124.1072 94.8946
L124.0120 94.8470
" />
<path d="M124.0120 94.8470
L123.6310 94.8470
" />
<path d="M123.6310 94.8470
L123.5358 94.8946
" />
<path d="M123.5358 94.8946
L123.4882 94.9899
" />
<path d="M123.4882 94.9899
L123.4882 95.1804
" />
<path d="M123.4882 95.1804
L123.5358 95.2756
" />
<path d="M123.5358 95.2756
L123.6310 95.3232
" />
<path d="M123.6310 95.3232
L123.7262 95.3232
" />
<path d="M123.7262 95.3232
L123.8215 94.8470
" />
<path d="M124.1548 95.7518
L123.4882 95.7518
" />
<path d="M123.6786 95.7518
L123.5834 95.7994
" />
<path d="M123.5834 95.7994
L123.5358 95.8470
" />
<path d="M123.5358 95.8470
L123.4882 95.9423
" />
<path d="M123.4882 95.9423
L123.4882 96.0375
" />
<path d="M124.1548 96.3708
L123.4882 96.3708
" />
<path d="M123.6786 96.3708
L123.5834 96.4185
" />
<path d="M123.5834 96.4185
L123.5358 96.4661
" />
<path d="M123.5358 96.4661
L123.4882 96.5613
" />
<path d="M123.4882 96.5613
L123.4882 96.6566
" />
<path d="M123.4882 96.8946
L124.1548 97.1327
" />
<path d="M123.4882 97.3708
L124.1548 97.1327
" />
<path d="M124.1548 97.1327
L124.3929 97.0375
" />
<path d="M124.3929 97.0375
L124.4405 96.9899
" />
<path d="M124.4405 96.9899
L124.4882 96.8946
" />
</g><text x="47.1000" y="41.3250"
transform="scale(-1 1) translate(-94.200000 0)"
textLength="7.2024" font-size="1.3333" lengthAdjust="spacingAndGlyphs"
text-anchor="middle" opacity="0">JST XH 3</text>
<g class="stroked-text"><desc>JST XH 3</desc>
<path d="M50.0524 40.2798
L50.0524 40.9941
" />
<path d="M50.0524 40.9941
L50.1000 41.1370
" />
<path d="M50.1000 41.1370
L50.1952 41.2322
" />
<path d="M50.1952 41.2322
L50.3381 41.2798
" />
<path d="M50.3381 41.2798
L50.4333 41.2798
" />
<path d="M49.6238 41.2322
L49.4810 41.2798
" />
<path d="M49.4810 41.2798
L49.2429 41.2798
" />
<path d="M49.2429 41.2798
L49.1476 41.2322
" />
<path d="M49.1476 41.2322
L49.1000 41.1846
" />
<path d="M49.1000 41.1846
L49.0524 41.0893
" />
<path d="M49.0524 41.0893
L49.0524 40.9941
" />
<path d="M49.0524 40.9941
L49.1000 40.8989
" />
<path d="M49.1000 40.8989
L49.1476 40.8512
" />
<path d="M49.1476 40.8512
L49.2429 40.8036
" />
<path d="M49.2429 40.8036
L49.4333 40.7560
" />
<path d="M49.4333 40.7560
L49.5286 40.7084
" />
<path d="M49.5286 40.7084
L49.5762 40.6608
" />
<path d="M49.5762 40.6608
L49.6238 40.5655
" />
<path d="M49.6238 40.5655
L49.6238 40.4703
" />
<path d="M49.6238 40.4703
L49.5762 40.3751
" />
<path d="M49.5762 40.3751
L49.5286 40.3274
" />
<path d="M49.5286 40.3274
L49.4333 40.2798
" />
<path d="M49.4333 40.2798
L49.1952 40.2798
" />
<path d="M49.1952 40.2798
L49.0524 40.3274
" />
<path d="M48.7667 40.2798
L48.1952 40.2798
" />
<path d="M48.4810 41.2798
L48.4810 40.2798
" />
<path d="M47.1952 40.2798
L46.5286 41.2798
" />
<path d="M46.5286 40.2798
L47.1952 41.2798
" />
<path d="M46.1476 41.2798
L46.1476 40.2798
" />
<path d="M46.1476 40.7560
L45.5762 40.7560
" />
<path d="M45.5762 41.2798
L45.5762 40.2798
" />
<path d="M44.4333 40.2798
L43.8143 40.2798
" />
<path d="M43.8143 40.2798
L44.1476 40.6608
" />
<path d="M44.1476 40.6608
L44.0048 40.6608
" />
<path d="M44.0048 40.6608
L43.9095 40.7084
" />
<path d="M43.9095 40.7084
L43.8619 40.7560
" />
<path d="M43.8619 40.7560
L43.8143 40.8512
" />
<path d="M43.8143 40.8512
L43.8143 41.0893
" />
<path d="M43.8143 41.0893
L43.8619 41.1846
" />
<path d="M43.8619 41.1846
L43.9095 41.2322
" />
<path d="M43.9095 41.2322
L44.0048 41.2798
" />
<path d="M44.0048 41.2798
L44.2905 41.2798
" />
<path d="M44.2905 41.2798
L44.3857 41.2322
" />
<path d="M44.3857 41.2322
L44.4333 41.1846
" />
</g><text x="47.1000" y="39.4250"
transform="scale(-1 1) translate(-94.200000 0)"
textLength="2.9167" font-size="1.3333" lengthAdjust="spacingAndGlyphs"
text-anchor="middle" opacity="0">J24</text>
<g class="stroked-text"><desc>J24</desc>
<path d="M47.9095 38.3798
L47.9095 39.0941
" />
<path d="M47.9095 39.0941
L47.9571 39.2370
" />
<path d="M47.9571 39.2370
L48.0524 39.3322
" />
<path d="M48.0524 39.3322
L48.1952 39.3798
" />
<path d="M48.1952 39.3798
L48.2905 39.3798
" />
<path d="M47.4810 38.4751
L47.4333 38.4274
" />
<path d="M47.4333 38.4274
L47.3381 38.3798
" />
<path d="M47.3381 38.3798
L47.1000 38.3798
" />
<path d="M47.1000 38.3798
L47.0048 38.4274
" />
<path d="M47.0048 38.4274
L46.9571 38.4751
" />
<path d="M46.9571 38.4751
L46.9095 38.5703
" />
<path d="M46.9095 38.5703
L46.9095 38.6655
" />
<path d="M46.9095 38.6655
L46.9571 38.8084
" />
<path d="M46.9571 38.8084
L47.5286 39.3798
" />
<path d="M47.5286 39.3798
L46.9095 39.3798
" />
<path d="M46.0524 38.7132
L46.0524 39.3798
" />
<path d="M46.2905 38.3322
L46.5286 39.0465
" />
<path d="M46.5286 39.0465
L45.9095 39.0465
" />
</g></g>
<g style="fill:#000000; fill-opacity:0.0; 
stroke:#000000; stroke-width:0.1000; stroke-opacity:1; 
stroke-linecap:round; stroke-linejoin:round;">
<path d="M52.0500 31.8750
L42.1500 31.8750
" />
<path d="M52.0500 26.1250
L52.0500 31.8750
" />
<path d="M50.2250 26.1250
L49.6000 27.1250
" />
<path d="M49.6000 27.1250
L48.9750 26.1250
" />
<path d="M42.1500 31.8750
L42.1500 26.1250
" />
<path d="M42.1500 26.1250
L52.0500 26.1250
" />
<path d="M45.3500 130.5000
L35.4500 130.5000
" />
<path d="M45.3500 124.7500
L45.3500 130.5000
" />
<path d="M43.5250 124.7500
L42.9000 125.7500
" />
<path d="M42.9000 125.7500
L42.2750 124.7500
" />
<path d="M35.4500 130.5000
L35.4500 124.7500
" />
<path d="M35.4500 124.7500
L45.3500 124.7500
" />
<path d="M158.7300 122.9606
L151.1100 122.9606
" />
<path d="M158.7300 117.8806
L158.7300 122.9606
" />
<path d="M157.8250 81.1956
L152.7450 81.1956
" />
<path d="M157.8250 74.5756
L157.8250 81.1956
" />
<path d="M156.8250 73.5756
L157.8250 74.5756
" />
<path d="M152.7450 81.1956
L152.7450 73.5756
" />
<path d="M152.7450 73.5756
L156.8250 73.5756
" />
<path d="M152.1100 117.8806
L158.7300 117.8806
" />
<path d="M151.1100 122.9606
L151.1100 118.8806
" />
<path d="M151.1100 118.8806
L152.1100 117.8806
" />
<path d="M121.5200 117.9056
L116.4400 117.9056
" />
<path d="M121.5200 68.1056
L121.5200 117.9056
" />
<path d="M120.5200 67.1056
L121.5200 68.1056
" />
<path d="M116.4400 117.9056
L116.4400 67.1056
" />
<path d="M116.4400 67.1056
L120.5200 67.1056
" />
<path d="M52.0500 39.6250
L42.1500 39.6250
" />
<path d="M52.0500 33.8750
L52.0500 39.6250
" />
<path d="M50.2250 33.8750
L49.6000 34.8750
" />
<path d="M49.6000 34.8750
L48.9750 33.8750
" />
<path d="M42.1500 39.6250
L42.1500 33.8750
" />
<path d="M42.1500 33.8750
L52.0500 33.8750
" />
<g >
</g>
<g >
</g>
<g >
</g>
<g >
</g>
<g >
</g>
<g >
</g>
<g >
</g>
<g >
</g>
<g >
</g>
<g >
</g>
<g >
</g>
<g >
</g>
<g >
</g>
<g >
</g>
<g >
</g>
<g >
</g>
<g >
</g>
<g >
</g>
<g >
</g>
<g >
</g>
<g >
</g>
<g >
</g>
<g >
</g>
<g >
</g>
<g >
</g>
<g >
</g>
<g >
</g>
<g >
</g>
<g >
</g>
<g >
</g>
<g >
</g>
<g >
</g>
<g >
</g>
<g >
</g>
<g >
</g>
<g >
</g>
<g >
</g>
<g >
</g>
<g >
</g>
<g >
</g>
<g >
</g>
<g >
</g>
<g >
</g>
<g >
</g>
<g >
</g>
<g >
</g>
<g >
</g>
<g >
</g>
<g >
</g>
<g >
</g>
<g >
</g>
<g >
</g>
<g >
</g>
<g >
</g>
<g >
</g>
<g >
</g>
<g >
</g>
<g >
</g>
<g >
</g>
<g >
</g>
<g >
</g>
<g >
</g>
<g >
</g>
<g >
</g>
<g >
</g>
<g >
</g>
<g >
</g>
<g >
</g>
<g >
</g>
<g >
</g>
<g >
</g>
<g >
</g>
<g >
</g>
<g >
</g>
<g >
</g>
<g >
</g>
<g >
</g>
<g >
</g>
<g >
</g>
<g >
</g>
<g >
</g>
<g >
</g>
<g >
</g>
<g >
</g>
<g >
</g>
<g >
</g>
<g >
</g>
<g >
</g>
<g >
</g>
<g >
</g>
<g >
</g>
<g >
</g>
<g >
</g>
<g >
</g>
<g >
</g>
<g >
</g>
<g >
</g>
<g >
</g>
<g >
</g>
<g >
</g>
<g >
</g>
<g >
</g>
<g >
</g>
<g >
</g>
<g >
</g>
<g >
</g>
<g >
</g>
<g >
</g>
<g >
</g>
<g >
</g>
<g >
</g>
<g >
</g>
<g >
</g>
<g >
</g>
<g >
</g>
<g >
</g>
<g >
</g>
<g >
</g>
<g >
</g>
<g >
</g>
<g >
</g>
<g >
</g>
<g >
</g>
<g >
</g>
<g >
</g>
<g >
</g>
<g >
</g>
<g >
</g>
<g >
</g>
<g >
</g>
<g >
</g>
<g >
</g>
</g> 
</svg>
