<?xml version="1.0" standalone="no"?>
 <!DOCTYPE svg PUBLIC "-//W3C//DTD SVG 1.1//EN" 
 "http://www.w3.org/Graphics/SVG/1.1/DTD/svg11.dtd"> 
<svg
  xmlns:svg="http://www.w3.org/2000/svg"
  xmlns="http://www.w3.org/2000/svg"
  xmlns:xlink="http://www.w3.org/1999/xlink"
  version="1.1"
  width="297.0022mm" height="210.0072mm" viewBox="0.0000 0.0000 297.0022 210.0072">
<title>SVG Image created as pedalboard-hw-B_Silkscreen.svg date 2023/12/04 18:05:37 </title>
  <desc>Image generated by PCBNEW </desc>
<g style="fill:#000000; fill-opacity:1.0000;stroke:#000000; stroke-opacity:1.0000;
stroke-linecap:round; stroke-linejoin:round;"
 transform="translate(0 0) scale(1 1)">
</g>
<g style="fill:#000000; fill-opacity:0.0; 
stroke:#000000; stroke-width:0.0000; stroke-opacity:1; 
stroke-linecap:round; stroke-linejoin:round;">
</g>
<g style="fill:#000000; fill-opacity:0.0; 
stroke:#000000; stroke-width:0.1500; stroke-opacity:1; 
stroke-linecap:round; stroke-linejoin:round;">
<g transform="rotate(-90.000000 275.1022 43.5800)">
<text x="275.1022" y="43.5800"
transform="scale(-1 1) translate(-550.204400 0)"
textLength="3.2976" font-size="1.3333" lengthAdjust="spacingAndGlyphs"
text-anchor="start" opacity="0">GND</text>
</g>
<g class="stroked-text"><desc>GND</desc>
<path d="M276.1848 44.4406
L276.2324 44.3453
" />
<path d="M276.2324 44.3453
L276.2324 44.2025
" />
<path d="M276.2324 44.2025
L276.1848 44.0596
" />
<path d="M276.1848 44.0596
L276.0895 43.9644
" />
<path d="M276.0895 43.9644
L275.9943 43.9168
" />
<path d="M275.9943 43.9168
L275.8038 43.8692
" />
<path d="M275.8038 43.8692
L275.6610 43.8692
" />
<path d="M275.6610 43.8692
L275.4705 43.9168
" />
<path d="M275.4705 43.9168
L275.3752 43.9644
" />
<path d="M275.3752 43.9644
L275.2800 44.0596
" />
<path d="M275.2800 44.0596
L275.2324 44.2025
" />
<path d="M275.2324 44.2025
L275.2324 44.2977
" />
<path d="M275.2324 44.2977
L275.2800 44.4406
" />
<path d="M275.2800 44.4406
L275.3276 44.4882
" />
<path d="M275.3276 44.4882
L275.6610 44.4882
" />
<path d="M275.6610 44.4882
L275.6610 44.2977
" />
<path d="M275.2324 44.9168
L276.2324 44.9168
" />
<path d="M276.2324 44.9168
L275.2324 45.4882
" />
<path d="M275.2324 45.4882
L276.2324 45.4882
" />
<path d="M275.2324 45.9644
L276.2324 45.9644
" />
<path d="M276.2324 45.9644
L276.2324 46.2025
" />
<path d="M276.2324 46.2025
L276.1848 46.3453
" />
<path d="M276.1848 46.3453
L276.0895 46.4406
" />
<path d="M276.0895 46.4406
L275.9943 46.4882
" />
<path d="M275.9943 46.4882
L275.8038 46.5358
" />
<path d="M275.8038 46.5358
L275.6610 46.5358
" />
<path d="M275.6610 46.5358
L275.4705 46.4882
" />
<path d="M275.4705 46.4882
L275.3752 46.4406
" />
<path d="M275.3752 46.4406
L275.2800 46.3453
" />
<path d="M275.2800 46.3453
L275.2324 46.2025
" />
<path d="M275.2324 46.2025
L275.2324 45.9644
" />
</g><g transform="rotate(90.000000 250.1222 123.8900)">
<text x="250.1222" y="123.8900"
transform="scale(-1 1) translate(-500.244400 0)"
textLength="3.2976" font-size="1.3333" lengthAdjust="spacingAndGlyphs"
text-anchor="start" opacity="0">GND</text>
</g>
<g class="stroked-text"><desc>GND</desc>
<path d="M249.0396 123.0294
L248.9920 123.1246
" />
<path d="M248.9920 123.1246
L248.9920 123.2675
" />
<path d="M248.9920 123.2675
L249.0396 123.4104
" />
<path d="M249.0396 123.4104
L249.1349 123.5056
" />
<path d="M249.1349 123.5056
L249.2301 123.5532
" />
<path d="M249.2301 123.5532
L249.4206 123.6008
" />
<path d="M249.4206 123.6008
L249.5634 123.6008
" />
<path d="M249.5634 123.6008
L249.7539 123.5532
" />
<path d="M249.7539 123.5532
L249.8492 123.5056
" />
<path d="M249.8492 123.5056
L249.9444 123.4104
" />
<path d="M249.9444 123.4104
L249.9920 123.2675
" />
<path d="M249.9920 123.2675
L249.9920 123.1723
" />
<path d="M249.9920 123.1723
L249.9444 123.0294
" />
<path d="M249.9444 123.0294
L249.8968 122.9818
" />
<path d="M249.8968 122.9818
L249.5634 122.9818
" />
<path d="M249.5634 122.9818
L249.5634 123.1723
" />
<path d="M249.9920 122.5532
L248.9920 122.5532
" />
<path d="M248.9920 122.5532
L249.9920 121.9818
" />
<path d="M249.9920 121.9818
L248.9920 121.9818
" />
<path d="M249.9920 121.5056
L248.9920 121.5056
" />
<path d="M248.9920 121.5056
L248.9920 121.2675
" />
<path d="M248.9920 121.2675
L249.0396 121.1246
" />
<path d="M249.0396 121.1246
L249.1349 121.0294
" />
<path d="M249.1349 121.0294
L249.2301 120.9818
" />
<path d="M249.2301 120.9818
L249.4206 120.9342
" />
<path d="M249.4206 120.9342
L249.5634 120.9342
" />
<path d="M249.5634 120.9342
L249.7539 120.9818
" />
<path d="M249.7539 120.9818
L249.8492 121.0294
" />
<path d="M249.8492 121.0294
L249.9444 121.1246
" />
<path d="M249.9444 121.1246
L249.9920 121.2675
" />
<path d="M249.9920 121.2675
L249.9920 121.5056
" />
</g><g transform="rotate(90.000000 255.2922 124.0600)">
<text x="255.2922" y="124.0600"
transform="scale(-1 1) translate(-510.584400 0)"
textLength="6.7738" font-size="1.3333" lengthAdjust="spacingAndGlyphs"
text-anchor="start" opacity="0">Data out</text>
</g>
<g class="stroked-text"><desc>Data out</desc>
<path d="M255.1620 123.7232
L254.1620 123.7232
" />
<path d="M254.1620 123.7232
L254.1620 123.4851
" />
<path d="M254.1620 123.4851
L254.2096 123.3423
" />
<path d="M254.2096 123.3423
L254.3049 123.2470
" />
<path d="M254.3049 123.2470
L254.4001 123.1994
" />
<path d="M254.4001 123.1994
L254.5906 123.1518
" />
<path d="M254.5906 123.1518
L254.7334 123.1518
" />
<path d="M254.7334 123.1518
L254.9239 123.1994
" />
<path d="M254.9239 123.1994
L255.0192 123.2470
" />
<path d="M255.0192 123.2470
L255.1144 123.3423
" />
<path d="M255.1144 123.3423
L255.1620 123.4851
" />
<path d="M255.1620 123.4851
L255.1620 123.7232
" />
<path d="M255.1620 122.2946
L254.6382 122.2946
" />
<path d="M254.6382 122.2946
L254.5430 122.3423
" />
<path d="M254.5430 122.3423
L254.4954 122.4375
" />
<path d="M254.4954 122.4375
L254.4954 122.6280
" />
<path d="M254.4954 122.6280
L254.5430 122.7232
" />
<path d="M255.1144 122.2946
L255.1620 122.3899
" />
<path d="M255.1620 122.3899
L255.1620 122.6280
" />
<path d="M255.1620 122.6280
L255.1144 122.7232
" />
<path d="M255.1144 122.7232
L255.0192 122.7708
" />
<path d="M255.0192 122.7708
L254.9239 122.7708
" />
<path d="M254.9239 122.7708
L254.8287 122.7232
" />
<path d="M254.8287 122.7232
L254.7811 122.6280
" />
<path d="M254.7811 122.6280
L254.7811 122.3899
" />
<path d="M254.7811 122.3899
L254.7334 122.2946
" />
<path d="M254.4954 121.9613
L254.4954 121.5804
" />
<path d="M254.1620 121.8185
L255.0192 121.8185
" />
<path d="M255.0192 121.8185
L255.1144 121.7708
" />
<path d="M255.1144 121.7708
L255.1620 121.6756
" />
<path d="M255.1620 121.6756
L255.1620 121.5804
" />
<path d="M255.1620 120.8185
L254.6382 120.8185
" />
<path d="M254.6382 120.8185
L254.5430 120.8661
" />
<path d="M254.5430 120.8661
L254.4954 120.9613
" />
<path d="M254.4954 120.9613
L254.4954 121.1518
" />
<path d="M254.4954 121.1518
L254.5430 121.2470
" />
<path d="M255.1144 120.8185
L255.1620 120.9137
" />
<path d="M255.1620 120.9137
L255.1620 121.1518
" />
<path d="M255.1620 121.1518
L255.1144 121.2470
" />
<path d="M255.1144 121.2470
L255.0192 121.2946
" />
<path d="M255.0192 121.2946
L254.9239 121.2946
" />
<path d="M254.9239 121.2946
L254.8287 121.2470
" />
<path d="M254.8287 121.2470
L254.7811 121.1518
" />
<path d="M254.7811 121.1518
L254.7811 120.9137
" />
<path d="M254.7811 120.9137
L254.7334 120.8185
" />
<path d="M255.1620 119.4375
L255.1144 119.5327
" />
<path d="M255.1144 119.5327
L255.0668 119.5804
" />
<path d="M255.0668 119.5804
L254.9715 119.6280
" />
<path d="M254.9715 119.6280
L254.6858 119.6280
" />
<path d="M254.6858 119.6280
L254.5906 119.5804
" />
<path d="M254.5906 119.5804
L254.5430 119.5327
" />
<path d="M254.5430 119.5327
L254.4954 119.4375
" />
<path d="M254.4954 119.4375
L254.4954 119.2946
" />
<path d="M254.4954 119.2946
L254.5430 119.1994
" />
<path d="M254.5430 119.1994
L254.5906 119.1518
" />
<path d="M254.5906 119.1518
L254.6858 119.1042
" />
<path d="M254.6858 119.1042
L254.9715 119.1042
" />
<path d="M254.9715 119.1042
L255.0668 119.1518
" />
<path d="M255.0668 119.1518
L255.1144 119.1994
" />
<path d="M255.1144 119.1994
L255.1620 119.2946
" />
<path d="M255.1620 119.2946
L255.1620 119.4375
" />
<path d="M254.4954 118.2470
L255.1620 118.2470
" />
<path d="M254.4954 118.6756
L255.0192 118.6756
" />
<path d="M255.0192 118.6756
L255.1144 118.6280
" />
<path d="M255.1144 118.6280
L255.1620 118.5327
" />
<path d="M255.1620 118.5327
L255.1620 118.3899
" />
<path d="M255.1620 118.3899
L255.1144 118.2946
" />
<path d="M255.1144 118.2946
L255.0668 118.2470
" />
<path d="M254.4954 117.9137
L254.4954 117.5327
" />
<path d="M254.1620 117.7708
L255.0192 117.7708
" />
<path d="M255.0192 117.7708
L255.1144 117.7232
" />
<path d="M255.1144 117.7232
L255.1620 117.6280
" />
<path d="M255.1620 117.6280
L255.1620 117.5327
" />
</g><text x="217.7422" y="27.5600"
transform="scale(-1 1) translate(-435.484400 0)"
textLength="1.7738" font-size="1.3333" lengthAdjust="spacingAndGlyphs"
text-anchor="start" opacity="0">IN</text>
<g class="stroked-text"><desc>IN</desc>
<path d="M218.0790 27.4298
L218.0790 26.4298
" />
<path d="M218.5552 27.4298
L218.5552 26.4298
" />
<path d="M218.5552 26.4298
L219.1266 27.4298
" />
<path d="M219.1266 27.4298
L219.1266 26.4298
" />
</g><g transform="rotate(-90.000000 107.7722 36.5760)">
<text x="107.7722" y="36.5760"
transform="scale(-1 1) translate(-215.544400 0)"
textLength="3.2976" font-size="1.3333" lengthAdjust="spacingAndGlyphs"
text-anchor="start" opacity="0">GND</text>
</g>
<g class="stroked-text"><desc>GND</desc>
<path d="M108.8548 37.4366
L108.9024 37.3413
" />
<path d="M108.9024 37.3413
L108.9024 37.1985
" />
<path d="M108.9024 37.1985
L108.8548 37.0556
" />
<path d="M108.8548 37.0556
L108.7595 36.9604
" />
<path d="M108.7595 36.9604
L108.6643 36.9128
" />
<path d="M108.6643 36.9128
L108.4738 36.8652
" />
<path d="M108.4738 36.8652
L108.3310 36.8652
" />
<path d="M108.3310 36.8652
L108.1405 36.9128
" />
<path d="M108.1405 36.9128
L108.0452 36.9604
" />
<path d="M108.0452 36.9604
L107.9500 37.0556
" />
<path d="M107.9500 37.0556
L107.9024 37.1985
" />
<path d="M107.9024 37.1985
L107.9024 37.2937
" />
<path d="M107.9024 37.2937
L107.9500 37.4366
" />
<path d="M107.9500 37.4366
L107.9976 37.4842
" />
<path d="M107.9976 37.4842
L108.3310 37.4842
" />
<path d="M108.3310 37.4842
L108.3310 37.2937
" />
<path d="M107.9024 37.9128
L108.9024 37.9128
" />
<path d="M108.9024 37.9128
L107.9024 38.4842
" />
<path d="M107.9024 38.4842
L108.9024 38.4842
" />
<path d="M107.9024 38.9604
L108.9024 38.9604
" />
<path d="M108.9024 38.9604
L108.9024 39.1985
" />
<path d="M108.9024 39.1985
L108.8548 39.3413
" />
<path d="M108.8548 39.3413
L108.7595 39.4366
" />
<path d="M108.7595 39.4366
L108.6643 39.4842
" />
<path d="M108.6643 39.4842
L108.4738 39.5318
" />
<path d="M108.4738 39.5318
L108.3310 39.5318
" />
<path d="M108.3310 39.5318
L108.1405 39.4842
" />
<path d="M108.1405 39.4842
L108.0452 39.4366
" />
<path d="M108.0452 39.4366
L107.9500 39.3413
" />
<path d="M107.9500 39.3413
L107.9024 39.1985
" />
<path d="M107.9024 39.1985
L107.9024 38.9604
" />
</g><text x="235.0022" y="54.7800"
transform="scale(-1 1) translate(-470.004400 0)"
textLength="13.1548" font-size="1.3333" lengthAdjust="spacingAndGlyphs"
text-anchor="start" opacity="0">Open Pedalboard</text>
<g class="stroked-text"><desc>Open Pedalboard</desc>
<path d="M235.5295 53.6498
L235.7199 53.6498
" />
<path d="M235.7199 53.6498
L235.8152 53.6974
" />
<path d="M235.8152 53.6974
L235.9104 53.7927
" />
<path d="M235.9104 53.7927
L235.9580 53.9832
" />
<path d="M235.9580 53.9832
L235.9580 54.3165
" />
<path d="M235.9580 54.3165
L235.9104 54.5070
" />
<path d="M235.9104 54.5070
L235.8152 54.6022
" />
<path d="M235.8152 54.6022
L235.7199 54.6498
" />
<path d="M235.7199 54.6498
L235.5295 54.6498
" />
<path d="M235.5295 54.6498
L235.4342 54.6022
" />
<path d="M235.4342 54.6022
L235.3390 54.5070
" />
<path d="M235.3390 54.5070
L235.2914 54.3165
" />
<path d="M235.2914 54.3165
L235.2914 53.9832
" />
<path d="M235.2914 53.9832
L235.3390 53.7927
" />
<path d="M235.3390 53.7927
L235.4342 53.6974
" />
<path d="M235.4342 53.6974
L235.5295 53.6498
" />
<path d="M236.3866 53.9832
L236.3866 54.9832
" />
<path d="M236.3866 54.0308
L236.4818 53.9832
" />
<path d="M236.4818 53.9832
L236.6723 53.9832
" />
<path d="M236.6723 53.9832
L236.7676 54.0308
" />
<path d="M236.7676 54.0308
L236.8152 54.0784
" />
<path d="M236.8152 54.0784
L236.8628 54.1736
" />
<path d="M236.8628 54.1736
L236.8628 54.4593
" />
<path d="M236.8628 54.4593
L236.8152 54.5546
" />
<path d="M236.8152 54.5546
L236.7676 54.6022
" />
<path d="M236.7676 54.6022
L236.6723 54.6498
" />
<path d="M236.6723 54.6498
L236.4818 54.6498
" />
<path d="M236.4818 54.6498
L236.3866 54.6022
" />
<path d="M237.6723 54.6022
L237.5771 54.6498
" />
<path d="M237.5771 54.6498
L237.3866 54.6498
" />
<path d="M237.3866 54.6498
L237.2914 54.6022
" />
<path d="M237.2914 54.6022
L237.2437 54.5070
" />
<path d="M237.2437 54.5070
L237.2437 54.1260
" />
<path d="M237.2437 54.1260
L237.2914 54.0308
" />
<path d="M237.2914 54.0308
L237.3866 53.9832
" />
<path d="M237.3866 53.9832
L237.5771 53.9832
" />
<path d="M237.5771 53.9832
L237.6723 54.0308
" />
<path d="M237.6723 54.0308
L237.7199 54.1260
" />
<path d="M237.7199 54.1260
L237.7199 54.2212
" />
<path d="M237.7199 54.2212
L237.2437 54.3165
" />
<path d="M238.1485 53.9832
L238.1485 54.6498
" />
<path d="M238.1485 54.0784
L238.1961 54.0308
" />
<path d="M238.1961 54.0308
L238.2914 53.9832
" />
<path d="M238.2914 53.9832
L238.4342 53.9832
" />
<path d="M238.4342 53.9832
L238.5295 54.0308
" />
<path d="M238.5295 54.0308
L238.5771 54.1260
" />
<path d="M238.5771 54.1260
L238.5771 54.6498
" />
<path d="M239.8152 54.6498
L239.8152 53.6498
" />
<path d="M239.8152 53.6498
L240.1961 53.6498
" />
<path d="M240.1961 53.6498
L240.2914 53.6974
" />
<path d="M240.2914 53.6974
L240.3390 53.7451
" />
<path d="M240.3390 53.7451
L240.3866 53.8403
" />
<path d="M240.3866 53.8403
L240.3866 53.9832
" />
<path d="M240.3866 53.9832
L240.3390 54.0784
" />
<path d="M240.3390 54.0784
L240.2914 54.1260
" />
<path d="M240.2914 54.1260
L240.1961 54.1736
" />
<path d="M240.1961 54.1736
L239.8152 54.1736
" />
<path d="M241.1961 54.6022
L241.1009 54.6498
" />
<path d="M241.1009 54.6498
L240.9104 54.6498
" />
<path d="M240.9104 54.6498
L240.8152 54.6022
" />
<path d="M240.8152 54.6022
L240.7676 54.5070
" />
<path d="M240.7676 54.5070
L240.7676 54.1260
" />
<path d="M240.7676 54.1260
L240.8152 54.0308
" />
<path d="M240.8152 54.0308
L240.9104 53.9832
" />
<path d="M240.9104 53.9832
L241.1009 53.9832
" />
<path d="M241.1009 53.9832
L241.1961 54.0308
" />
<path d="M241.1961 54.0308
L241.2437 54.1260
" />
<path d="M241.2437 54.1260
L241.2437 54.2212
" />
<path d="M241.2437 54.2212
L240.7676 54.3165
" />
<path d="M242.1009 54.6498
L242.1009 53.6498
" />
<path d="M242.1009 54.6022
L242.0056 54.6498
" />
<path d="M242.0056 54.6498
L241.8152 54.6498
" />
<path d="M241.8152 54.6498
L241.7199 54.6022
" />
<path d="M241.7199 54.6022
L241.6723 54.5546
" />
<path d="M241.6723 54.5546
L241.6247 54.4593
" />
<path d="M241.6247 54.4593
L241.6247 54.1736
" />
<path d="M241.6247 54.1736
L241.6723 54.0784
" />
<path d="M241.6723 54.0784
L241.7199 54.0308
" />
<path d="M241.7199 54.0308
L241.8152 53.9832
" />
<path d="M241.8152 53.9832
L242.0056 53.9832
" />
<path d="M242.0056 53.9832
L242.1009 54.0308
" />
<path d="M243.0056 54.6498
L243.0056 54.1260
" />
<path d="M243.0056 54.1260
L242.9580 54.0308
" />
<path d="M242.9580 54.0308
L242.8628 53.9832
" />
<path d="M242.8628 53.9832
L242.6723 53.9832
" />
<path d="M242.6723 53.9832
L242.5771 54.0308
" />
<path d="M243.0056 54.6022
L242.9104 54.6498
" />
<path d="M242.9104 54.6498
L242.6723 54.6498
" />
<path d="M242.6723 54.6498
L242.5771 54.6022
" />
<path d="M242.5771 54.6022
L242.5295 54.5070
" />
<path d="M242.5295 54.5070
L242.5295 54.4117
" />
<path d="M242.5295 54.4117
L242.5771 54.3165
" />
<path d="M242.5771 54.3165
L242.6723 54.2689
" />
<path d="M242.6723 54.2689
L242.9104 54.2689
" />
<path d="M242.9104 54.2689
L243.0056 54.2212
" />
<path d="M243.6247 54.6498
L243.5295 54.6022
" />
<path d="M243.5295 54.6022
L243.4818 54.5070
" />
<path d="M243.4818 54.5070
L243.4818 53.6498
" />
<path d="M244.0056 54.6498
L244.0056 53.6498
" />
<path d="M244.0056 54.0308
L244.1009 53.9832
" />
<path d="M244.1009 53.9832
L244.2914 53.9832
" />
<path d="M244.2914 53.9832
L244.3866 54.0308
" />
<path d="M244.3866 54.0308
L244.4342 54.0784
" />
<path d="M244.4342 54.0784
L244.4818 54.1736
" />
<path d="M244.4818 54.1736
L244.4818 54.4593
" />
<path d="M244.4818 54.4593
L244.4342 54.5546
" />
<path d="M244.4342 54.5546
L244.3866 54.6022
" />
<path d="M244.3866 54.6022
L244.2914 54.6498
" />
<path d="M244.2914 54.6498
L244.1009 54.6498
" />
<path d="M244.1009 54.6498
L244.0056 54.6022
" />
<path d="M245.0533 54.6498
L244.9580 54.6022
" />
<path d="M244.9580 54.6022
L244.9104 54.5546
" />
<path d="M244.9104 54.5546
L244.8628 54.4593
" />
<path d="M244.8628 54.4593
L244.8628 54.1736
" />
<path d="M244.8628 54.1736
L244.9104 54.0784
" />
<path d="M244.9104 54.0784
L244.9580 54.0308
" />
<path d="M244.9580 54.0308
L245.0533 53.9832
" />
<path d="M245.0533 53.9832
L245.1961 53.9832
" />
<path d="M245.1961 53.9832
L245.2914 54.0308
" />
<path d="M245.2914 54.0308
L245.3390 54.0784
" />
<path d="M245.3390 54.0784
L245.3866 54.1736
" />
<path d="M245.3866 54.1736
L245.3866 54.4593
" />
<path d="M245.3866 54.4593
L245.3390 54.5546
" />
<path d="M245.3390 54.5546
L245.2914 54.6022
" />
<path d="M245.2914 54.6022
L245.1961 54.6498
" />
<path d="M245.1961 54.6498
L245.0533 54.6498
" />
<path d="M246.2437 54.6498
L246.2437 54.1260
" />
<path d="M246.2437 54.1260
L246.1961 54.0308
" />
<path d="M246.1961 54.0308
L246.1009 53.9832
" />
<path d="M246.1009 53.9832
L245.9104 53.9832
" />
<path d="M245.9104 53.9832
L245.8152 54.0308
" />
<path d="M246.2437 54.6022
L246.1485 54.6498
" />
<path d="M246.1485 54.6498
L245.9104 54.6498
" />
<path d="M245.9104 54.6498
L245.8152 54.6022
" />
<path d="M245.8152 54.6022
L245.7676 54.5070
" />
<path d="M245.7676 54.5070
L245.7676 54.4117
" />
<path d="M245.7676 54.4117
L245.8152 54.3165
" />
<path d="M245.8152 54.3165
L245.9104 54.2689
" />
<path d="M245.9104 54.2689
L246.1485 54.2689
" />
<path d="M246.1485 54.2689
L246.2437 54.2212
" />
<path d="M246.7199 54.6498
L246.7199 53.9832
" />
<path d="M246.7199 54.1736
L246.7676 54.0784
" />
<path d="M246.7676 54.0784
L246.8152 54.0308
" />
<path d="M246.8152 54.0308
L246.9104 53.9832
" />
<path d="M246.9104 53.9832
L247.0056 53.9832
" />
<path d="M247.7676 54.6498
L247.7676 53.6498
" />
<path d="M247.7676 54.6022
L247.6723 54.6498
" />
<path d="M247.6723 54.6498
L247.4818 54.6498
" />
<path d="M247.4818 54.6498
L247.3866 54.6022
" />
<path d="M247.3866 54.6022
L247.3390 54.5546
" />
<path d="M247.3390 54.5546
L247.2914 54.4593
" />
<path d="M247.2914 54.4593
L247.2914 54.1736
" />
<path d="M247.2914 54.1736
L247.3390 54.0784
" />
<path d="M247.3390 54.0784
L247.3866 54.0308
" />
<path d="M247.3866 54.0308
L247.4818 53.9832
" />
<path d="M247.4818 53.9832
L247.6723 53.9832
" />
<path d="M247.6723 53.9832
L247.7676 54.0308
" />
</g><text x="235.0022" y="56.3900"
transform="scale(-1 1) translate(-470.004400 0)"
textLength="24.2024" font-size="1.3333" lengthAdjust="spacingAndGlyphs"
text-anchor="start" opacity="0">https://github.com/pedalboard</text>
<g class="stroked-text"><desc>https://github.com/pedalboard</desc>
<path d="M235.3390 56.2598
L235.3390 55.2598
" />
<path d="M235.7676 56.2598
L235.7676 55.7360
" />
<path d="M235.7676 55.7360
L235.7199 55.6408
" />
<path d="M235.7199 55.6408
L235.6247 55.5932
" />
<path d="M235.6247 55.5932
L235.4818 55.5932
" />
<path d="M235.4818 55.5932
L235.3866 55.6408
" />
<path d="M235.3866 55.6408
L235.3390 55.6884
" />
<path d="M236.1009 55.5932
L236.4818 55.5932
" />
<path d="M236.2437 55.2598
L236.2437 56.1170
" />
<path d="M236.2437 56.1170
L236.2914 56.2122
" />
<path d="M236.2914 56.2122
L236.3866 56.2598
" />
<path d="M236.3866 56.2598
L236.4818 56.2598
" />
<path d="M236.6723 55.5932
L237.0533 55.5932
" />
<path d="M236.8152 55.2598
L236.8152 56.1170
" />
<path d="M236.8152 56.1170
L236.8628 56.2122
" />
<path d="M236.8628 56.2122
L236.9580 56.2598
" />
<path d="M236.9580 56.2598
L237.0533 56.2598
" />
<path d="M237.3866 55.5932
L237.3866 56.5932
" />
<path d="M237.3866 55.6408
L237.4818 55.5932
" />
<path d="M237.4818 55.5932
L237.6723 55.5932
" />
<path d="M237.6723 55.5932
L237.7676 55.6408
" />
<path d="M237.7676 55.6408
L237.8152 55.6884
" />
<path d="M237.8152 55.6884
L237.8628 55.7836
" />
<path d="M237.8628 55.7836
L237.8628 56.0693
" />
<path d="M237.8628 56.0693
L237.8152 56.1646
" />
<path d="M237.8152 56.1646
L237.7676 56.2122
" />
<path d="M237.7676 56.2122
L237.6723 56.2598
" />
<path d="M237.6723 56.2598
L237.4818 56.2598
" />
<path d="M237.4818 56.2598
L237.3866 56.2122
" />
<path d="M238.2437 56.2122
L238.3390 56.2598
" />
<path d="M238.3390 56.2598
L238.5295 56.2598
" />
<path d="M238.5295 56.2598
L238.6247 56.2122
" />
<path d="M238.6247 56.2122
L238.6723 56.1170
" />
<path d="M238.6723 56.1170
L238.6723 56.0693
" />
<path d="M238.6723 56.0693
L238.6247 55.9741
" />
<path d="M238.6247 55.9741
L238.5295 55.9265
" />
<path d="M238.5295 55.9265
L238.3866 55.9265
" />
<path d="M238.3866 55.9265
L238.2914 55.8789
" />
<path d="M238.2914 55.8789
L238.2437 55.7836
" />
<path d="M238.2437 55.7836
L238.2437 55.7360
" />
<path d="M238.2437 55.7360
L238.2914 55.6408
" />
<path d="M238.2914 55.6408
L238.3866 55.5932
" />
<path d="M238.3866 55.5932
L238.5295 55.5932
" />
<path d="M238.5295 55.5932
L238.6247 55.6408
" />
<path d="M239.1009 56.1646
L239.1485 56.2122
" />
<path d="M239.1485 56.2122
L239.1009 56.2598
" />
<path d="M239.1009 56.2598
L239.0533 56.2122
" />
<path d="M239.0533 56.2122
L239.1009 56.1646
" />
<path d="M239.1009 56.1646
L239.1009 56.2598
" />
<path d="M239.1009 55.6408
L239.1485 55.6884
" />
<path d="M239.1485 55.6884
L239.1009 55.7360
" />
<path d="M239.1009 55.7360
L239.0533 55.6884
" />
<path d="M239.0533 55.6884
L239.1009 55.6408
" />
<path d="M239.1009 55.6408
L239.1009 55.7360
" />
<path d="M240.2914 55.2122
L239.4342 56.4979
" />
<path d="M241.3390 55.2122
L240.4818 56.4979
" />
<path d="M242.1009 55.5932
L242.1009 56.4027
" />
<path d="M242.1009 56.4027
L242.0533 56.4979
" />
<path d="M242.0533 56.4979
L242.0056 56.5455
" />
<path d="M242.0056 56.5455
L241.9104 56.5932
" />
<path d="M241.9104 56.5932
L241.7676 56.5932
" />
<path d="M241.7676 56.5932
L241.6723 56.5455
" />
<path d="M242.1009 56.2122
L242.0056 56.2598
" />
<path d="M242.0056 56.2598
L241.8152 56.2598
" />
<path d="M241.8152 56.2598
L241.7199 56.2122
" />
<path d="M241.7199 56.2122
L241.6723 56.1646
" />
<path d="M241.6723 56.1646
L241.6247 56.0693
" />
<path d="M241.6247 56.0693
L241.6247 55.7836
" />
<path d="M241.6247 55.7836
L241.6723 55.6884
" />
<path d="M241.6723 55.6884
L241.7199 55.6408
" />
<path d="M241.7199 55.6408
L241.8152 55.5932
" />
<path d="M241.8152 55.5932
L242.0056 55.5932
" />
<path d="M242.0056 55.5932
L242.1009 55.6408
" />
<path d="M242.5771 56.2598
L242.5771 55.5932
" />
<path d="M242.5771 55.2598
L242.5295 55.3074
" />
<path d="M242.5295 55.3074
L242.5771 55.3551
" />
<path d="M242.5771 55.3551
L242.6247 55.3074
" />
<path d="M242.6247 55.3074
L242.5771 55.2598
" />
<path d="M242.5771 55.2598
L242.5771 55.3551
" />
<path d="M242.9104 55.5932
L243.2914 55.5932
" />
<path d="M243.0533 55.2598
L243.0533 56.1170
" />
<path d="M243.0533 56.1170
L243.1009 56.2122
" />
<path d="M243.1009 56.2122
L243.1961 56.2598
" />
<path d="M243.1961 56.2598
L243.2914 56.2598
" />
<path d="M243.6247 56.2598
L243.6247 55.2598
" />
<path d="M244.0533 56.2598
L244.0533 55.7360
" />
<path d="M244.0533 55.7360
L244.0056 55.6408
" />
<path d="M244.0056 55.6408
L243.9104 55.5932
" />
<path d="M243.9104 55.5932
L243.7676 55.5932
" />
<path d="M243.7676 55.5932
L243.6723 55.6408
" />
<path d="M243.6723 55.6408
L243.6247 55.6884
" />
<path d="M244.9580 55.5932
L244.9580 56.2598
" />
<path d="M244.5295 55.5932
L244.5295 56.1170
" />
<path d="M244.5295 56.1170
L244.5771 56.2122
" />
<path d="M244.5771 56.2122
L244.6723 56.2598
" />
<path d="M244.6723 56.2598
L244.8152 56.2598
" />
<path d="M244.8152 56.2598
L244.9104 56.2122
" />
<path d="M244.9104 56.2122
L244.9580 56.1646
" />
<path d="M245.4342 56.2598
L245.4342 55.2598
" />
<path d="M245.4342 55.6408
L245.5295 55.5932
" />
<path d="M245.5295 55.5932
L245.7199 55.5932
" />
<path d="M245.7199 55.5932
L245.8152 55.6408
" />
<path d="M245.8152 55.6408
L245.8628 55.6884
" />
<path d="M245.8628 55.6884
L245.9104 55.7836
" />
<path d="M245.9104 55.7836
L245.9104 56.0693
" />
<path d="M245.9104 56.0693
L245.8628 56.1646
" />
<path d="M245.8628 56.1646
L245.8152 56.2122
" />
<path d="M245.8152 56.2122
L245.7199 56.2598
" />
<path d="M245.7199 56.2598
L245.5295 56.2598
" />
<path d="M245.5295 56.2598
L245.4342 56.2122
" />
<path d="M246.3390 56.1646
L246.3866 56.2122
" />
<path d="M246.3866 56.2122
L246.3390 56.2598
" />
<path d="M246.3390 56.2598
L246.2914 56.2122
" />
<path d="M246.2914 56.2122
L246.3390 56.1646
" />
<path d="M246.3390 56.1646
L246.3390 56.2598
" />
<path d="M247.2437 56.2122
L247.1485 56.2598
" />
<path d="M247.1485 56.2598
L246.9580 56.2598
" />
<path d="M246.9580 56.2598
L246.8628 56.2122
" />
<path d="M246.8628 56.2122
L246.8152 56.1646
" />
<path d="M246.8152 56.1646
L246.7676 56.0693
" />
<path d="M246.7676 56.0693
L246.7676 55.7836
" />
<path d="M246.7676 55.7836
L246.8152 55.6884
" />
<path d="M246.8152 55.6884
L246.8628 55.6408
" />
<path d="M246.8628 55.6408
L246.9580 55.5932
" />
<path d="M246.9580 55.5932
L247.1485 55.5932
" />
<path d="M247.1485 55.5932
L247.2437 55.6408
" />
<path d="M247.8152 56.2598
L247.7199 56.2122
" />
<path d="M247.7199 56.2122
L247.6723 56.1646
" />
<path d="M247.6723 56.1646
L247.6247 56.0693
" />
<path d="M247.6247 56.0693
L247.6247 55.7836
" />
<path d="M247.6247 55.7836
L247.6723 55.6884
" />
<path d="M247.6723 55.6884
L247.7199 55.6408
" />
<path d="M247.7199 55.6408
L247.8152 55.5932
" />
<path d="M247.8152 55.5932
L247.9580 55.5932
" />
<path d="M247.9580 55.5932
L248.0533 55.6408
" />
<path d="M248.0533 55.6408
L248.1009 55.6884
" />
<path d="M248.1009 55.6884
L248.1485 55.7836
" />
<path d="M248.1485 55.7836
L248.1485 56.0693
" />
<path d="M248.1485 56.0693
L248.1009 56.1646
" />
<path d="M248.1009 56.1646
L248.0533 56.2122
" />
<path d="M248.0533 56.2122
L247.9580 56.2598
" />
<path d="M247.9580 56.2598
L247.8152 56.2598
" />
<path d="M248.5771 56.2598
L248.5771 55.5932
" />
<path d="M248.5771 55.6884
L248.6247 55.6408
" />
<path d="M248.6247 55.6408
L248.7199 55.5932
" />
<path d="M248.7199 55.5932
L248.8628 55.5932
" />
<path d="M248.8628 55.5932
L248.9580 55.6408
" />
<path d="M248.9580 55.6408
L249.0056 55.7360
" />
<path d="M249.0056 55.7360
L249.0056 56.2598
" />
<path d="M249.0056 55.7360
L249.0533 55.6408
" />
<path d="M249.0533 55.6408
L249.1485 55.5932
" />
<path d="M249.1485 55.5932
L249.2914 55.5932
" />
<path d="M249.2914 55.5932
L249.3866 55.6408
" />
<path d="M249.3866 55.6408
L249.4342 55.7360
" />
<path d="M249.4342 55.7360
L249.4342 56.2598
" />
<path d="M250.6247 55.2122
L249.7676 56.4979
" />
<path d="M250.9580 55.5932
L250.9580 56.5932
" />
<path d="M250.9580 55.6408
L251.0533 55.5932
" />
<path d="M251.0533 55.5932
L251.2437 55.5932
" />
<path d="M251.2437 55.5932
L251.3390 55.6408
" />
<path d="M251.3390 55.6408
L251.3866 55.6884
" />
<path d="M251.3866 55.6884
L251.4342 55.7836
" />
<path d="M251.4342 55.7836
L251.4342 56.0693
" />
<path d="M251.4342 56.0693
L251.3866 56.1646
" />
<path d="M251.3866 56.1646
L251.3390 56.2122
" />
<path d="M251.3390 56.2122
L251.2437 56.2598
" />
<path d="M251.2437 56.2598
L251.0533 56.2598
" />
<path d="M251.0533 56.2598
L250.9580 56.2122
" />
<path d="M252.2437 56.2122
L252.1485 56.2598
" />
<path d="M252.1485 56.2598
L251.9580 56.2598
" />
<path d="M251.9580 56.2598
L251.8628 56.2122
" />
<path d="M251.8628 56.2122
L251.8152 56.1170
" />
<path d="M251.8152 56.1170
L251.8152 55.7360
" />
<path d="M251.8152 55.7360
L251.8628 55.6408
" />
<path d="M251.8628 55.6408
L251.9580 55.5932
" />
<path d="M251.9580 55.5932
L252.1485 55.5932
" />
<path d="M252.1485 55.5932
L252.2437 55.6408
" />
<path d="M252.2437 55.6408
L252.2914 55.7360
" />
<path d="M252.2914 55.7360
L252.2914 55.8312
" />
<path d="M252.2914 55.8312
L251.8152 55.9265
" />
<path d="M253.1485 56.2598
L253.1485 55.2598
" />
<path d="M253.1485 56.2122
L253.0533 56.2598
" />
<path d="M253.0533 56.2598
L252.8628 56.2598
" />
<path d="M252.8628 56.2598
L252.7676 56.2122
" />
<path d="M252.7676 56.2122
L252.7199 56.1646
" />
<path d="M252.7199 56.1646
L252.6723 56.0693
" />
<path d="M252.6723 56.0693
L252.6723 55.7836
" />
<path d="M252.6723 55.7836
L252.7199 55.6884
" />
<path d="M252.7199 55.6884
L252.7676 55.6408
" />
<path d="M252.7676 55.6408
L252.8628 55.5932
" />
<path d="M252.8628 55.5932
L253.0533 55.5932
" />
<path d="M253.0533 55.5932
L253.1485 55.6408
" />
<path d="M254.0533 56.2598
L254.0533 55.7360
" />
<path d="M254.0533 55.7360
L254.0056 55.6408
" />
<path d="M254.0056 55.6408
L253.9104 55.5932
" />
<path d="M253.9104 55.5932
L253.7199 55.5932
" />
<path d="M253.7199 55.5932
L253.6247 55.6408
" />
<path d="M254.0533 56.2122
L253.9580 56.2598
" />
<path d="M253.9580 56.2598
L253.7199 56.2598
" />
<path d="M253.7199 56.2598
L253.6247 56.2122
" />
<path d="M253.6247 56.2122
L253.5771 56.1170
" />
<path d="M253.5771 56.1170
L253.5771 56.0217
" />
<path d="M253.5771 56.0217
L253.6247 55.9265
" />
<path d="M253.6247 55.9265
L253.7199 55.8789
" />
<path d="M253.7199 55.8789
L253.9580 55.8789
" />
<path d="M253.9580 55.8789
L254.0533 55.8312
" />
<path d="M254.6723 56.2598
L254.5771 56.2122
" />
<path d="M254.5771 56.2122
L254.5295 56.1170
" />
<path d="M254.5295 56.1170
L254.5295 55.2598
" />
<path d="M255.0533 56.2598
L255.0533 55.2598
" />
<path d="M255.0533 55.6408
L255.1485 55.5932
" />
<path d="M255.1485 55.5932
L255.3390 55.5932
" />
<path d="M255.3390 55.5932
L255.4342 55.6408
" />
<path d="M255.4342 55.6408
L255.4818 55.6884
" />
<path d="M255.4818 55.6884
L255.5295 55.7836
" />
<path d="M255.5295 55.7836
L255.5295 56.0693
" />
<path d="M255.5295 56.0693
L255.4818 56.1646
" />
<path d="M255.4818 56.1646
L255.4342 56.2122
" />
<path d="M255.4342 56.2122
L255.3390 56.2598
" />
<path d="M255.3390 56.2598
L255.1485 56.2598
" />
<path d="M255.1485 56.2598
L255.0533 56.2122
" />
<path d="M256.1009 56.2598
L256.0056 56.2122
" />
<path d="M256.0056 56.2122
L255.9580 56.1646
" />
<path d="M255.9580 56.1646
L255.9104 56.0693
" />
<path d="M255.9104 56.0693
L255.9104 55.7836
" />
<path d="M255.9104 55.7836
L255.9580 55.6884
" />
<path d="M255.9580 55.6884
L256.0056 55.6408
" />
<path d="M256.0056 55.6408
L256.1009 55.5932
" />
<path d="M256.1009 55.5932
L256.2437 55.5932
" />
<path d="M256.2437 55.5932
L256.3390 55.6408
" />
<path d="M256.3390 55.6408
L256.3866 55.6884
" />
<path d="M256.3866 55.6884
L256.4342 55.7836
" />
<path d="M256.4342 55.7836
L256.4342 56.0693
" />
<path d="M256.4342 56.0693
L256.3866 56.1646
" />
<path d="M256.3866 56.1646
L256.3390 56.2122
" />
<path d="M256.3390 56.2122
L256.2437 56.2598
" />
<path d="M256.2437 56.2598
L256.1009 56.2598
" />
<path d="M257.2914 56.2598
L257.2914 55.7360
" />
<path d="M257.2914 55.7360
L257.2437 55.6408
" />
<path d="M257.2437 55.6408
L257.1485 55.5932
" />
<path d="M257.1485 55.5932
L256.9580 55.5932
" />
<path d="M256.9580 55.5932
L256.8628 55.6408
" />
<path d="M257.2914 56.2122
L257.1961 56.2598
" />
<path d="M257.1961 56.2598
L256.9580 56.2598
" />
<path d="M256.9580 56.2598
L256.8628 56.2122
" />
<path d="M256.8628 56.2122
L256.8152 56.1170
" />
<path d="M256.8152 56.1170
L256.8152 56.0217
" />
<path d="M256.8152 56.0217
L256.8628 55.9265
" />
<path d="M256.8628 55.9265
L256.9580 55.8789
" />
<path d="M256.9580 55.8789
L257.1961 55.8789
" />
<path d="M257.1961 55.8789
L257.2914 55.8312
" />
<path d="M257.7676 56.2598
L257.7676 55.5932
" />
<path d="M257.7676 55.7836
L257.8152 55.6884
" />
<path d="M257.8152 55.6884
L257.8628 55.6408
" />
<path d="M257.8628 55.6408
L257.9580 55.5932
" />
<path d="M257.9580 55.5932
L258.0533 55.5932
" />
<path d="M258.8152 56.2598
L258.8152 55.2598
" />
<path d="M258.8152 56.2122
L258.7199 56.2598
" />
<path d="M258.7199 56.2598
L258.5295 56.2598
" />
<path d="M258.5295 56.2598
L258.4342 56.2122
" />
<path d="M258.4342 56.2122
L258.3866 56.1646
" />
<path d="M258.3866 56.1646
L258.3390 56.0693
" />
<path d="M258.3390 56.0693
L258.3390 55.7836
" />
<path d="M258.3390 55.7836
L258.3866 55.6884
" />
<path d="M258.3866 55.6884
L258.4342 55.6408
" />
<path d="M258.4342 55.6408
L258.5295 55.5932
" />
<path d="M258.5295 55.5932
L258.7199 55.5932
" />
<path d="M258.7199 55.5932
L258.8152 55.6408
" />
</g><text x="235.0022" y="58.0000"
transform="scale(-1 1) translate(-470.004400 0)"
textLength="11.5357" font-size="1.3333" lengthAdjust="spacingAndGlyphs"
text-anchor="start" opacity="0">BCB: 3.1.0-RC</text>
<g class="stroked-text"><desc>BCB: 3.1.0-RC</desc>
<path d="M235.6723 57.3460
L235.8152 57.3936
" />
<path d="M235.8152 57.3936
L235.8628 57.4412
" />
<path d="M235.8628 57.4412
L235.9104 57.5365
" />
<path d="M235.9104 57.5365
L235.9104 57.6793
" />
<path d="M235.9104 57.6793
L235.8628 57.7746
" />
<path d="M235.8628 57.7746
L235.8152 57.8222
" />
<path d="M235.8152 57.8222
L235.7199 57.8698
" />
<path d="M235.7199 57.8698
L235.3390 57.8698
" />
<path d="M235.3390 57.8698
L235.3390 56.8698
" />
<path d="M235.3390 56.8698
L235.6723 56.8698
" />
<path d="M235.6723 56.8698
L235.7676 56.9174
" />
<path d="M235.7676 56.9174
L235.8152 56.9651
" />
<path d="M235.8152 56.9651
L235.8628 57.0603
" />
<path d="M235.8628 57.0603
L235.8628 57.1555
" />
<path d="M235.8628 57.1555
L235.8152 57.2508
" />
<path d="M235.8152 57.2508
L235.7676 57.2984
" />
<path d="M235.7676 57.2984
L235.6723 57.3460
" />
<path d="M235.6723 57.3460
L235.3390 57.3460
" />
<path d="M236.9104 57.7746
L236.8628 57.8222
" />
<path d="M236.8628 57.8222
L236.7199 57.8698
" />
<path d="M236.7199 57.8698
L236.6247 57.8698
" />
<path d="M236.6247 57.8698
L236.4818 57.8222
" />
<path d="M236.4818 57.8222
L236.3866 57.7270
" />
<path d="M236.3866 57.7270
L236.3390 57.6317
" />
<path d="M236.3390 57.6317
L236.2914 57.4412
" />
<path d="M236.2914 57.4412
L236.2914 57.2984
" />
<path d="M236.2914 57.2984
L236.3390 57.1079
" />
<path d="M236.3390 57.1079
L236.3866 57.0127
" />
<path d="M236.3866 57.0127
L236.4818 56.9174
" />
<path d="M236.4818 56.9174
L236.6247 56.8698
" />
<path d="M236.6247 56.8698
L236.7199 56.8698
" />
<path d="M236.7199 56.8698
L236.8628 56.9174
" />
<path d="M236.8628 56.9174
L236.9104 56.9651
" />
<path d="M237.6723 57.3460
L237.8152 57.3936
" />
<path d="M237.8152 57.3936
L237.8628 57.4412
" />
<path d="M237.8628 57.4412
L237.9104 57.5365
" />
<path d="M237.9104 57.5365
L237.9104 57.6793
" />
<path d="M237.9104 57.6793
L237.8628 57.7746
" />
<path d="M237.8628 57.7746
L237.8152 57.8222
" />
<path d="M237.8152 57.8222
L237.7199 57.8698
" />
<path d="M237.7199 57.8698
L237.3390 57.8698
" />
<path d="M237.3390 57.8698
L237.3390 56.8698
" />
<path d="M237.3390 56.8698
L237.6723 56.8698
" />
<path d="M237.6723 56.8698
L237.7676 56.9174
" />
<path d="M237.7676 56.9174
L237.8152 56.9651
" />
<path d="M237.8152 56.9651
L237.8628 57.0603
" />
<path d="M237.8628 57.0603
L237.8628 57.1555
" />
<path d="M237.8628 57.1555
L237.8152 57.2508
" />
<path d="M237.8152 57.2508
L237.7676 57.2984
" />
<path d="M237.7676 57.2984
L237.6723 57.3460
" />
<path d="M237.6723 57.3460
L237.3390 57.3460
" />
<path d="M238.3390 57.7746
L238.3866 57.8222
" />
<path d="M238.3866 57.8222
L238.3390 57.8698
" />
<path d="M238.3390 57.8698
L238.2914 57.8222
" />
<path d="M238.2914 57.8222
L238.3390 57.7746
" />
<path d="M238.3390 57.7746
L238.3390 57.8698
" />
<path d="M238.3390 57.2508
L238.3866 57.2984
" />
<path d="M238.3866 57.2984
L238.3390 57.3460
" />
<path d="M238.3390 57.3460
L238.2914 57.2984
" />
<path d="M238.2914 57.2984
L238.3390 57.2508
" />
<path d="M238.3390 57.2508
L238.3390 57.3460
" />
<path d="M239.4818 56.8698
L240.1009 56.8698
" />
<path d="M240.1009 56.8698
L239.7676 57.2508
" />
<path d="M239.7676 57.2508
L239.9104 57.2508
" />
<path d="M239.9104 57.2508
L240.0056 57.2984
" />
<path d="M240.0056 57.2984
L240.0533 57.3460
" />
<path d="M240.0533 57.3460
L240.1009 57.4412
" />
<path d="M240.1009 57.4412
L240.1009 57.6793
" />
<path d="M240.1009 57.6793
L240.0533 57.7746
" />
<path d="M240.0533 57.7746
L240.0056 57.8222
" />
<path d="M240.0056 57.8222
L239.9104 57.8698
" />
<path d="M239.9104 57.8698
L239.6247 57.8698
" />
<path d="M239.6247 57.8698
L239.5295 57.8222
" />
<path d="M239.5295 57.8222
L239.4818 57.7746
" />
<path d="M240.5295 57.7746
L240.5771 57.8222
" />
<path d="M240.5771 57.8222
L240.5295 57.8698
" />
<path d="M240.5295 57.8698
L240.4818 57.8222
" />
<path d="M240.4818 57.8222
L240.5295 57.7746
" />
<path d="M240.5295 57.7746
L240.5295 57.8698
" />
<path d="M241.5295 57.8698
L240.9580 57.8698
" />
<path d="M241.2437 57.8698
L241.2437 56.8698
" />
<path d="M241.2437 56.8698
L241.1485 57.0127
" />
<path d="M241.1485 57.0127
L241.0533 57.1079
" />
<path d="M241.0533 57.1079
L240.9580 57.1555
" />
<path d="M241.9580 57.7746
L242.0056 57.8222
" />
<path d="M242.0056 57.8222
L241.9580 57.8698
" />
<path d="M241.9580 57.8698
L241.9104 57.8222
" />
<path d="M241.9104 57.8222
L241.9580 57.7746
" />
<path d="M241.9580 57.7746
L241.9580 57.8698
" />
<path d="M242.6247 56.8698
L242.7199 56.8698
" />
<path d="M242.7199 56.8698
L242.8152 56.9174
" />
<path d="M242.8152 56.9174
L242.8628 56.9651
" />
<path d="M242.8628 56.9651
L242.9104 57.0603
" />
<path d="M242.9104 57.0603
L242.9580 57.2508
" />
<path d="M242.9580 57.2508
L242.9580 57.4889
" />
<path d="M242.9580 57.4889
L242.9104 57.6793
" />
<path d="M242.9104 57.6793
L242.8628 57.7746
" />
<path d="M242.8628 57.7746
L242.8152 57.8222
" />
<path d="M242.8152 57.8222
L242.7199 57.8698
" />
<path d="M242.7199 57.8698
L242.6247 57.8698
" />
<path d="M242.6247 57.8698
L242.5295 57.8222
" />
<path d="M242.5295 57.8222
L242.4818 57.7746
" />
<path d="M242.4818 57.7746
L242.4342 57.6793
" />
<path d="M242.4342 57.6793
L242.3866 57.4889
" />
<path d="M242.3866 57.4889
L242.3866 57.2508
" />
<path d="M242.3866 57.2508
L242.4342 57.0603
" />
<path d="M242.4342 57.0603
L242.4818 56.9651
" />
<path d="M242.4818 56.9651
L242.5295 56.9174
" />
<path d="M242.5295 56.9174
L242.6247 56.8698
" />
<path d="M243.3866 57.4889
L244.1485 57.4889
" />
<path d="M245.1961 57.8698
L244.8628 57.3936
" />
<path d="M244.6247 57.8698
L244.6247 56.8698
" />
<path d="M244.6247 56.8698
L245.0056 56.8698
" />
<path d="M245.0056 56.8698
L245.1009 56.9174
" />
<path d="M245.1009 56.9174
L245.1485 56.9651
" />
<path d="M245.1485 56.9651
L245.1961 57.0603
" />
<path d="M245.1961 57.0603
L245.1961 57.2032
" />
<path d="M245.1961 57.2032
L245.1485 57.2984
" />
<path d="M245.1485 57.2984
L245.1009 57.3460
" />
<path d="M245.1009 57.3460
L245.0056 57.3936
" />
<path d="M245.0056 57.3936
L244.6247 57.3936
" />
<path d="M246.1961 57.7746
L246.1485 57.8222
" />
<path d="M246.1485 57.8222
L246.0056 57.8698
" />
<path d="M246.0056 57.8698
L245.9104 57.8698
" />
<path d="M245.9104 57.8698
L245.7675 57.8222
" />
<path d="M245.7675 57.8222
L245.6723 57.7270
" />
<path d="M245.6723 57.7270
L245.6247 57.6317
" />
<path d="M245.6247 57.6317
L245.5771 57.4412
" />
<path d="M245.5771 57.4412
L245.5771 57.2984
" />
<path d="M245.5771 57.2984
L245.6247 57.1079
" />
<path d="M245.6247 57.1079
L245.6723 57.0127
" />
<path d="M245.6723 57.0127
L245.7675 56.9174
" />
<path d="M245.7675 56.9174
L245.9104 56.8698
" />
<path d="M245.9104 56.8698
L246.0056 56.8698
" />
<path d="M246.0056 56.8698
L246.1485 56.9174
" />
<path d="M246.1485 56.9174
L246.1961 56.9651
" />
</g><g transform="rotate(-90.000000 261.7922 43.1400)">
<text x="261.7922" y="43.1400"
transform="scale(-1 1) translate(-523.584400 0)"
textLength="3.8690" font-size="1.3333" lengthAdjust="spacingAndGlyphs"
text-anchor="start" opacity="0">VREF</text>
</g>
<g class="stroked-text"><desc>VREF</desc>
<path d="M262.9224 43.3339
L261.9224 43.6673
" />
<path d="M261.9224 43.6673
L262.9224 44.0006
" />
<path d="M261.9224 44.9053
L262.3986 44.5720
" />
<path d="M261.9224 44.3339
L262.9224 44.3339
" />
<path d="M262.9224 44.3339
L262.9224 44.7149
" />
<path d="M262.9224 44.7149
L262.8748 44.8101
" />
<path d="M262.8748 44.8101
L262.8271 44.8577
" />
<path d="M262.8271 44.8577
L262.7319 44.9053
" />
<path d="M262.7319 44.9053
L262.5890 44.9053
" />
<path d="M262.5890 44.9053
L262.4938 44.8577
" />
<path d="M262.4938 44.8577
L262.4462 44.8101
" />
<path d="M262.4462 44.8101
L262.3986 44.7149
" />
<path d="M262.3986 44.7149
L262.3986 44.3339
" />
<path d="M262.4462 45.3339
L262.4462 45.6673
" />
<path d="M261.9224 45.8101
L261.9224 45.3339
" />
<path d="M261.9224 45.3339
L262.9224 45.3339
" />
<path d="M262.9224 45.3339
L262.9224 45.8101
" />
<path d="M262.4462 46.5720
L262.4462 46.2387
" />
<path d="M261.9224 46.2387
L262.9224 46.2387
" />
<path d="M262.9224 46.2387
L262.9224 46.7149
" />
</g><g transform="rotate(90.000000 252.6622 124.0000)">
<text x="252.6622" y="124.0000"
transform="scale(-1 1) translate(-505.324400 0)"
textLength="4.0595" font-size="1.3333" lengthAdjust="spacingAndGlyphs"
text-anchor="start" opacity="0">+5V </text>
</g>
<g class="stroked-text"><desc>+5V </desc>
<path d="M252.1511 123.6632
L252.1511 122.9013
" />
<path d="M252.5320 123.2823
L251.7701 123.2823
" />
<path d="M251.5320 121.9489
L251.5320 122.4251
" />
<path d="M251.5320 122.4251
L252.0082 122.4727
" />
<path d="M252.0082 122.4727
L251.9606 122.4251
" />
<path d="M251.9606 122.4251
L251.9130 122.3299
" />
<path d="M251.9130 122.3299
L251.9130 122.0918
" />
<path d="M251.9130 122.0918
L251.9606 121.9966
" />
<path d="M251.9606 121.9966
L252.0082 121.9489
" />
<path d="M252.0082 121.9489
L252.1034 121.9013
" />
<path d="M252.1034 121.9013
L252.3415 121.9013
" />
<path d="M252.3415 121.9013
L252.4368 121.9489
" />
<path d="M252.4368 121.9489
L252.4844 121.9966
" />
<path d="M252.4844 121.9966
L252.5320 122.0918
" />
<path d="M252.5320 122.0918
L252.5320 122.3299
" />
<path d="M252.5320 122.3299
L252.4844 122.4251
" />
<path d="M252.4844 122.4251
L252.4368 122.4727
" />
<path d="M251.5320 121.6156
L252.5320 121.2823
" />
<path d="M252.5320 121.2823
L251.5320 120.9489
" />
</g><text x="238.1322" y="22.6800"
transform="scale(-1 1) translate(-476.264400 0)"
textLength="4.7929" font-size="2.0000" lengthAdjust="spacingAndGlyphs"
text-anchor="start" opacity="0">MIDI</text>
<g class="stroked-text"><desc>MIDI</desc>
<path d="M238.5880 22.4886
L238.5880 20.9886
" />
<path d="M238.5880 20.9886
L239.0880 22.0601
" />
<path d="M239.0880 22.0601
L239.5880 20.9886
" />
<path d="M239.5880 20.9886
L239.5880 22.4886
" />
<path d="M240.3023 22.4886
L240.3023 20.9886
" />
<path d="M241.0166 22.4886
L241.0166 20.9886
" />
<path d="M241.0166 20.9886
L241.3737 20.9886
" />
<path d="M241.3737 20.9886
L241.5880 21.0601
" />
<path d="M241.5880 21.0601
L241.7309 21.2029
" />
<path d="M241.7309 21.2029
L241.8023 21.3458
" />
<path d="M241.8023 21.3458
L241.8737 21.6315
" />
<path d="M241.8737 21.6315
L241.8737 21.8458
" />
<path d="M241.8737 21.8458
L241.8023 22.1315
" />
<path d="M241.8023 22.1315
L241.7309 22.2743
" />
<path d="M241.7309 22.2743
L241.5880 22.4172
" />
<path d="M241.5880 22.4172
L241.3737 22.4886
" />
<path d="M241.3737 22.4886
L241.0166 22.4886
" />
<path d="M242.5166 22.4886
L242.5166 20.9886
" />
</g><g transform="rotate(-90.000000 162.5614 56.8516)">
<text x="162.5614" y="56.8516"
transform="scale(-1 1) translate(-325.122800 0)"
textLength="1.6310" font-size="1.3333" lengthAdjust="spacingAndGlyphs"
text-anchor="start" opacity="0">in</text>
</g>
<g class="stroked-text"><desc>in</desc>
<path d="M162.6916 57.1884
L163.3582 57.1884
" />
<path d="M163.6916 57.1884
L163.6440 57.1408
" />
<path d="M163.6440 57.1408
L163.5963 57.1884
" />
<path d="M163.5963 57.1884
L163.6440 57.2360
" />
<path d="M163.6440 57.2360
L163.6916 57.1884
" />
<path d="M163.6916 57.1884
L163.5963 57.1884
" />
<path d="M163.3582 57.6646
L162.6916 57.6646
" />
<path d="M163.2630 57.6646
L163.3106 57.7122
" />
<path d="M163.3106 57.7122
L163.3582 57.8074
" />
<path d="M163.3582 57.8074
L163.3582 57.9503
" />
<path d="M163.3582 57.9503
L163.3106 58.0455
" />
<path d="M163.3106 58.0455
L163.2154 58.0931
" />
<path d="M163.2154 58.0931
L162.6916 58.0931
" />
</g><text x="249.1322" y="125.7200"
transform="scale(-1 1) translate(-498.264400 0)"
textLength="6.5833" font-size="1.3333" lengthAdjust="spacingAndGlyphs"
text-anchor="start" opacity="0">LED OUT</text>
<g class="stroked-text"><desc>LED OUT</desc>
<path d="M249.9452 125.5898
L249.4690 125.5898
" />
<path d="M249.4690 125.5898
L249.4690 124.5898
" />
<path d="M250.2785 125.0660
L250.6118 125.0660
" />
<path d="M250.7547 125.5898
L250.2785 125.5898
" />
<path d="M250.2785 125.5898
L250.2785 124.5898
" />
<path d="M250.2785 124.5898
L250.7547 124.5898
" />
<path d="M251.1833 125.5898
L251.1833 124.5898
" />
<path d="M251.1833 124.5898
L251.4214 124.5898
" />
<path d="M251.4214 124.5898
L251.5642 124.6374
" />
<path d="M251.5642 124.6374
L251.6595 124.7327
" />
<path d="M251.6595 124.7327
L251.7071 124.8279
" />
<path d="M251.7071 124.8279
L251.7547 125.0184
" />
<path d="M251.7547 125.0184
L251.7547 125.1612
" />
<path d="M251.7547 125.1612
L251.7071 125.3517
" />
<path d="M251.7071 125.3517
L251.6595 125.4470
" />
<path d="M251.6595 125.4470
L251.5642 125.5422
" />
<path d="M251.5642 125.5422
L251.4214 125.5898
" />
<path d="M251.4214 125.5898
L251.1833 125.5898
" />
<path d="M253.1356 124.5898
L253.3261 124.5898
" />
<path d="M253.3261 124.5898
L253.4214 124.6374
" />
<path d="M253.4214 124.6374
L253.5166 124.7327
" />
<path d="M253.5166 124.7327
L253.5642 124.9232
" />
<path d="M253.5642 124.9232
L253.5642 125.2565
" />
<path d="M253.5642 125.2565
L253.5166 125.4470
" />
<path d="M253.5166 125.4470
L253.4214 125.5422
" />
<path d="M253.4214 125.5422
L253.3261 125.5898
" />
<path d="M253.3261 125.5898
L253.1356 125.5898
" />
<path d="M253.1356 125.5898
L253.0404 125.5422
" />
<path d="M253.0404 125.5422
L252.9452 125.4470
" />
<path d="M252.9452 125.4470
L252.8976 125.2565
" />
<path d="M252.8976 125.2565
L252.8976 124.9232
" />
<path d="M252.8976 124.9232
L252.9452 124.7327
" />
<path d="M252.9452 124.7327
L253.0404 124.6374
" />
<path d="M253.0404 124.6374
L253.1356 124.5898
" />
<path d="M253.9928 124.5898
L253.9928 125.3993
" />
<path d="M253.9928 125.3993
L254.0404 125.4946
" />
<path d="M254.0404 125.4946
L254.0880 125.5422
" />
<path d="M254.0880 125.5422
L254.1833 125.5898
" />
<path d="M254.1833 125.5898
L254.3737 125.5898
" />
<path d="M254.3737 125.5898
L254.4690 125.5422
" />
<path d="M254.4690 125.5422
L254.5166 125.4946
" />
<path d="M254.5166 125.4946
L254.5642 125.3993
" />
<path d="M254.5642 125.3993
L254.5642 124.5898
" />
<path d="M254.8976 124.5898
L255.4690 124.5898
" />
<path d="M255.1833 125.5898
L255.1833 124.5898
" />
</g><g transform="rotate(-90.000000 114.2238 36.7792)">
<text x="114.2238" y="36.7792"
transform="scale(-1 1) translate(-228.447600 0)"
textLength="1.7738" font-size="1.3333" lengthAdjust="spacingAndGlyphs"
text-anchor="start" opacity="0">IN</text>
</g>
<g class="stroked-text"><desc>IN</desc>
<path d="M114.3540 37.1160
L115.3540 37.1160
" />
<path d="M114.3540 37.5922
L115.3540 37.5922
" />
<path d="M115.3540 37.5922
L114.3540 38.1636
" />
<path d="M114.3540 38.1636
L115.3540 38.1636
" />
</g><text x="232.4122" y="27.3200"
transform="scale(-1 1) translate(-464.824400 0)"
textLength="3.1071" font-size="1.3333" lengthAdjust="spacingAndGlyphs"
text-anchor="start" opacity="0">OUT</text>
<g class="stroked-text"><desc>OUT</desc>
<path d="M232.9395 26.1898
L233.1299 26.1898
" />
<path d="M233.1299 26.1898
L233.2252 26.2374
" />
<path d="M233.2252 26.2374
L233.3204 26.3327
" />
<path d="M233.3204 26.3327
L233.3680 26.5232
" />
<path d="M233.3680 26.5232
L233.3680 26.8565
" />
<path d="M233.3680 26.8565
L233.3204 27.0470
" />
<path d="M233.3204 27.0470
L233.2252 27.1422
" />
<path d="M233.2252 27.1422
L233.1299 27.1898
" />
<path d="M233.1299 27.1898
L232.9395 27.1898
" />
<path d="M232.9395 27.1898
L232.8442 27.1422
" />
<path d="M232.8442 27.1422
L232.7490 27.0470
" />
<path d="M232.7490 27.0470
L232.7014 26.8565
" />
<path d="M232.7014 26.8565
L232.7014 26.5232
" />
<path d="M232.7014 26.5232
L232.7490 26.3327
" />
<path d="M232.7490 26.3327
L232.8442 26.2374
" />
<path d="M232.8442 26.2374
L232.9395 26.1898
" />
<path d="M233.7966 26.1898
L233.7966 26.9993
" />
<path d="M233.7966 26.9993
L233.8442 27.0946
" />
<path d="M233.8442 27.0946
L233.8918 27.1422
" />
<path d="M233.8918 27.1422
L233.9871 27.1898
" />
<path d="M233.9871 27.1898
L234.1776 27.1898
" />
<path d="M234.1776 27.1898
L234.2728 27.1422
" />
<path d="M234.2728 27.1422
L234.3204 27.0946
" />
<path d="M234.3204 27.0946
L234.3680 26.9993
" />
<path d="M234.3680 26.9993
L234.3680 26.1898
" />
<path d="M234.7014 26.1898
L235.2728 26.1898
" />
<path d="M234.9871 27.1898
L234.9871 26.1898
" />
</g><g transform="rotate(-90.000000 268.0222 43.4000)">
<text x="268.0222" y="43.4000"
transform="scale(-1 1) translate(-536.044400 0)"
textLength="1.7738" font-size="1.3333" lengthAdjust="spacingAndGlyphs"
text-anchor="start" opacity="0">IN</text>
</g>
<g class="stroked-text"><desc>IN</desc>
<path d="M268.1524 43.7368
L269.1524 43.7368
" />
<path d="M268.1524 44.2130
L269.1524 44.2130
" />
<path d="M269.1524 44.2130
L268.1524 44.7844
" />
<path d="M268.1524 44.7844
L269.1524 44.7844
" />
</g><g transform="rotate(-90.000000 120.6754 36.6776)">
<text x="120.6754" y="36.6776"
transform="scale(-1 1) translate(-241.350800 0)"
textLength="3.8690" font-size="1.3333" lengthAdjust="spacingAndGlyphs"
text-anchor="start" opacity="0">VREF</text>
</g>
<g class="stroked-text"><desc>VREF</desc>
<path d="M121.8056 36.8715
L120.8056 37.2049
" />
<path d="M120.8056 37.2049
L121.8056 37.5382
" />
<path d="M120.8056 38.4429
L121.2818 38.1096
" />
<path d="M120.8056 37.8715
L121.8056 37.8715
" />
<path d="M121.8056 37.8715
L121.8056 38.2525
" />
<path d="M121.8056 38.2525
L121.7580 38.3477
" />
<path d="M121.7580 38.3477
L121.7103 38.3953
" />
<path d="M121.7103 38.3953
L121.6151 38.4429
" />
<path d="M121.6151 38.4429
L121.4722 38.4429
" />
<path d="M121.4722 38.4429
L121.3770 38.3953
" />
<path d="M121.3770 38.3953
L121.3294 38.3477
" />
<path d="M121.3294 38.3477
L121.2818 38.2525
" />
<path d="M121.2818 38.2525
L121.2818 37.8715
" />
<path d="M121.3294 38.8715
L121.3294 39.2049
" />
<path d="M120.8056 39.3477
L120.8056 38.8715
" />
<path d="M120.8056 38.8715
L121.8056 38.8715
" />
<path d="M121.8056 38.8715
L121.8056 39.3477
" />
<path d="M121.3294 40.1096
L121.3294 39.7763
" />
<path d="M120.8056 39.7763
L121.8056 39.7763
" />
<path d="M121.8056 39.7763
L121.8056 40.2525
" />
</g><text x="181.2522" y="43.0900"
transform="scale(-1 1) translate(-362.504400 0)"
textLength="3.1548" font-size="1.3333" lengthAdjust="spacingAndGlyphs"
text-anchor="middle" opacity="0">C27</text>
<g class="stroked-text"><desc>C27</desc>
<path d="M180.6093 42.9496
L180.5617 42.9972
" />
<path d="M180.5617 42.9972
L180.4189 43.0448
" />
<path d="M180.4189 43.0448
L180.3236 43.0448
" />
<path d="M180.3236 43.0448
L180.1808 42.9972
" />
<path d="M180.1808 42.9972
L180.0855 42.9020
" />
<path d="M180.0855 42.9020
L180.0379 42.8067
" />
<path d="M180.0379 42.8067
L179.9903 42.6162
" />
<path d="M179.9903 42.6162
L179.9903 42.4734
" />
<path d="M179.9903 42.4734
L180.0379 42.2829
" />
<path d="M180.0379 42.2829
L180.0855 42.1877
" />
<path d="M180.0855 42.1877
L180.1808 42.0924
" />
<path d="M180.1808 42.0924
L180.3236 42.0448
" />
<path d="M180.3236 42.0448
L180.4189 42.0448
" />
<path d="M180.4189 42.0448
L180.5617 42.0924
" />
<path d="M180.5617 42.0924
L180.6093 42.1401
" />
<path d="M180.9903 42.1401
L181.0379 42.0924
" />
<path d="M181.0379 42.0924
L181.1332 42.0448
" />
<path d="M181.1332 42.0448
L181.3712 42.0448
" />
<path d="M181.3712 42.0448
L181.4665 42.0924
" />
<path d="M181.4665 42.0924
L181.5141 42.1401
" />
<path d="M181.5141 42.1401
L181.5617 42.2353
" />
<path d="M181.5617 42.2353
L181.5617 42.3305
" />
<path d="M181.5617 42.3305
L181.5141 42.4734
" />
<path d="M181.5141 42.4734
L180.9427 43.0448
" />
<path d="M180.9427 43.0448
L181.5617 43.0448
" />
<path d="M181.8951 42.0448
L182.5617 42.0448
" />
<path d="M182.5617 42.0448
L182.1332 43.0448
" />
</g><text x="271.5022" y="124.0000"
transform="scale(-1 1) translate(-543.004400 0)"
textLength="3.2024" font-size="1.3333" lengthAdjust="spacingAndGlyphs"
text-anchor="middle" opacity="0">H13</text>
<g class="stroked-text"><desc>H13</desc>
<path d="M270.2641 123.9548
L270.2641 122.9548
" />
<path d="M270.2641 123.4310
L270.8355 123.4310
" />
<path d="M270.8355 123.9548
L270.8355 122.9548
" />
<path d="M271.8355 123.9548
L271.2641 123.9548
" />
<path d="M271.5498 123.9548
L271.5498 122.9548
" />
<path d="M271.5498 122.9548
L271.4546 123.0977
" />
<path d="M271.4546 123.0977
L271.3593 123.1929
" />
<path d="M271.3593 123.1929
L271.2641 123.2405
" />
<path d="M272.1689 122.9548
L272.7879 122.9548
" />
<path d="M272.7879 122.9548
L272.4546 123.3358
" />
<path d="M272.4546 123.3358
L272.5974 123.3358
" />
<path d="M272.5974 123.3358
L272.6927 123.3834
" />
<path d="M272.6927 123.3834
L272.7403 123.4310
" />
<path d="M272.7403 123.4310
L272.7879 123.5262
" />
<path d="M272.7879 123.5262
L272.7879 123.7643
" />
<path d="M272.7879 123.7643
L272.7403 123.8596
" />
<path d="M272.7403 123.8596
L272.6927 123.9072
" />
<path d="M272.6927 123.9072
L272.5974 123.9548
" />
<path d="M272.5974 123.9548
L272.3117 123.9548
" />
<path d="M272.3117 123.9548
L272.2165 123.9072
" />
<path d="M272.2165 123.9072
L272.1689 123.8596
" />
</g><text x="196.5022" y="72.1000"
transform="scale(-1 1) translate(-393.004400 0)"
textLength="2.2500" font-size="1.3333" lengthAdjust="spacingAndGlyphs"
text-anchor="middle" opacity="0">H9</text>
<g class="stroked-text"><desc>H9</desc>
<path d="M195.7403 72.0548
L195.7403 71.0548
" />
<path d="M195.7403 71.5310
L196.3117 71.5310
" />
<path d="M196.3117 72.0548
L196.3117 71.0548
" />
<path d="M196.8355 72.0548
L197.0260 72.0548
" />
<path d="M197.0260 72.0548
L197.1212 72.0072
" />
<path d="M197.1212 72.0072
L197.1689 71.9596
" />
<path d="M197.1689 71.9596
L197.2641 71.8167
" />
<path d="M197.2641 71.8167
L197.3117 71.6262
" />
<path d="M197.3117 71.6262
L197.3117 71.2453
" />
<path d="M197.3117 71.2453
L197.2641 71.1501
" />
<path d="M197.2641 71.1501
L197.2165 71.1024
" />
<path d="M197.2165 71.1024
L197.1212 71.0548
" />
<path d="M197.1212 71.0548
L196.9308 71.0548
" />
<path d="M196.9308 71.0548
L196.8355 71.1024
" />
<path d="M196.8355 71.1024
L196.7879 71.1501
" />
<path d="M196.7879 71.1501
L196.7403 71.2453
" />
<path d="M196.7403 71.2453
L196.7403 71.4834
" />
<path d="M196.7403 71.4834
L196.7879 71.5786
" />
<path d="M196.7879 71.5786
L196.8355 71.6262
" />
<path d="M196.8355 71.6262
L196.9308 71.6739
" />
<path d="M196.9308 71.6739
L197.1212 71.6739
" />
<path d="M197.1212 71.6739
L197.2165 71.6262
" />
<path d="M197.2165 71.6262
L197.2641 71.5786
" />
<path d="M197.2641 71.5786
L197.3117 71.4834
" />
</g><text x="271.5022" y="72.5000"
transform="scale(-1 1) translate(-543.004400 0)"
textLength="3.2024" font-size="1.3333" lengthAdjust="spacingAndGlyphs"
text-anchor="middle" opacity="0">H10</text>
<g class="stroked-text"><desc>H10</desc>
<path d="M270.2641 72.4548
L270.2641 71.4548
" />
<path d="M270.2641 71.9310
L270.8355 71.9310
" />
<path d="M270.8355 72.4548
L270.8355 71.4548
" />
<path d="M271.8355 72.4548
L271.2641 72.4548
" />
<path d="M271.5498 72.4548
L271.5498 71.4548
" />
<path d="M271.5498 71.4548
L271.4546 71.5977
" />
<path d="M271.4546 71.5977
L271.3593 71.6929
" />
<path d="M271.3593 71.6929
L271.2641 71.7405
" />
<path d="M272.4546 71.4548
L272.5498 71.4548
" />
<path d="M272.5498 71.4548
L272.6451 71.5024
" />
<path d="M272.6451 71.5024
L272.6927 71.5501
" />
<path d="M272.6927 71.5501
L272.7403 71.6453
" />
<path d="M272.7403 71.6453
L272.7879 71.8358
" />
<path d="M272.7879 71.8358
L272.7879 72.0739
" />
<path d="M272.7879 72.0739
L272.7403 72.2643
" />
<path d="M272.7403 72.2643
L272.6927 72.3596
" />
<path d="M272.6927 72.3596
L272.6451 72.4072
" />
<path d="M272.6451 72.4072
L272.5498 72.4548
" />
<path d="M272.5498 72.4548
L272.4546 72.4548
" />
<path d="M272.4546 72.4548
L272.3593 72.4072
" />
<path d="M272.3593 72.4072
L272.3117 72.3596
" />
<path d="M272.3117 72.3596
L272.2641 72.2643
" />
<path d="M272.2641 72.2643
L272.2165 72.0739
" />
<path d="M272.2165 72.0739
L272.2165 71.8358
" />
<path d="M272.2165 71.8358
L272.2641 71.6453
" />
<path d="M272.2641 71.6453
L272.3117 71.5501
" />
<path d="M272.3117 71.5501
L272.3593 71.5024
" />
<path d="M272.3593 71.5024
L272.4546 71.4548
" />
</g><text x="121.0022" y="72.0000"
transform="scale(-1 1) translate(-242.004400 0)"
textLength="2.2500" font-size="1.3333" lengthAdjust="spacingAndGlyphs"
text-anchor="middle" opacity="0">H8</text>
<g class="stroked-text"><desc>H8</desc>
<path d="M120.2403 71.9548
L120.2403 70.9548
" />
<path d="M120.2403 71.4310
L120.8117 71.4310
" />
<path d="M120.8117 71.9548
L120.8117 70.9548
" />
<path d="M121.4308 71.3834
L121.3355 71.3358
" />
<path d="M121.3355 71.3358
L121.2879 71.2882
" />
<path d="M121.2879 71.2882
L121.2403 71.1929
" />
<path d="M121.2403 71.1929
L121.2403 71.1453
" />
<path d="M121.2403 71.1453
L121.2879 71.0501
" />
<path d="M121.2879 71.0501
L121.3355 71.0024
" />
<path d="M121.3355 71.0024
L121.4308 70.9548
" />
<path d="M121.4308 70.9548
L121.6212 70.9548
" />
<path d="M121.6212 70.9548
L121.7165 71.0024
" />
<path d="M121.7165 71.0024
L121.7641 71.0501
" />
<path d="M121.7641 71.0501
L121.8117 71.1453
" />
<path d="M121.8117 71.1453
L121.8117 71.1929
" />
<path d="M121.8117 71.1929
L121.7641 71.2882
" />
<path d="M121.7641 71.2882
L121.7165 71.3358
" />
<path d="M121.7165 71.3358
L121.6212 71.3834
" />
<path d="M121.6212 71.3834
L121.4308 71.3834
" />
<path d="M121.4308 71.3834
L121.3355 71.4310
" />
<path d="M121.3355 71.4310
L121.2879 71.4786
" />
<path d="M121.2879 71.4786
L121.2403 71.5739
" />
<path d="M121.2403 71.5739
L121.2403 71.7643
" />
<path d="M121.2403 71.7643
L121.2879 71.8596
" />
<path d="M121.2879 71.8596
L121.3355 71.9072
" />
<path d="M121.3355 71.9072
L121.4308 71.9548
" />
<path d="M121.4308 71.9548
L121.6212 71.9548
" />
<path d="M121.6212 71.9548
L121.7165 71.9072
" />
<path d="M121.7165 71.9072
L121.7641 71.8596
" />
<path d="M121.7641 71.8596
L121.8117 71.7643
" />
<path d="M121.8117 71.7643
L121.8117 71.5739
" />
<path d="M121.8117 71.5739
L121.7641 71.4786
" />
<path d="M121.7641 71.4786
L121.7165 71.4310
" />
<path d="M121.7165 71.4310
L121.6212 71.3834
" />
</g><text x="196.0022" y="124.0000"
transform="scale(-1 1) translate(-392.004400 0)"
textLength="3.2024" font-size="1.3333" lengthAdjust="spacingAndGlyphs"
text-anchor="middle" opacity="0">H12</text>
<g class="stroked-text"><desc>H12</desc>
<path d="M194.7641 123.9548
L194.7641 122.9548
" />
<path d="M194.7641 123.4310
L195.3355 123.4310
" />
<path d="M195.3355 123.9548
L195.3355 122.9548
" />
<path d="M196.3355 123.9548
L195.7641 123.9548
" />
<path d="M196.0498 123.9548
L196.0498 122.9548
" />
<path d="M196.0498 122.9548
L195.9546 123.0977
" />
<path d="M195.9546 123.0977
L195.8593 123.1929
" />
<path d="M195.8593 123.1929
L195.7641 123.2405
" />
<path d="M196.7165 123.0501
L196.7641 123.0024
" />
<path d="M196.7641 123.0024
L196.8593 122.9548
" />
<path d="M196.8593 122.9548
L197.0974 122.9548
" />
<path d="M197.0974 122.9548
L197.1927 123.0024
" />
<path d="M197.1927 123.0024
L197.2403 123.0501
" />
<path d="M197.2403 123.0501
L197.2879 123.1453
" />
<path d="M197.2879 123.1453
L197.2879 123.2405
" />
<path d="M197.2879 123.2405
L197.2403 123.3834
" />
<path d="M197.2403 123.3834
L196.6689 123.9548
" />
<path d="M196.6689 123.9548
L197.2879 123.9548
" />
</g><text x="222.0422" y="26.8900"
transform="scale(-1 1) translate(-444.084400 0)"
textLength="2.9167" font-size="1.3333" lengthAdjust="spacingAndGlyphs"
text-anchor="middle" opacity="0">J23</text>
<g class="stroked-text"><desc>J23</desc>
<path d="M221.2327 25.8448
L221.2327 26.5591
" />
<path d="M221.2327 26.5591
L221.1851 26.7020
" />
<path d="M221.1851 26.7020
L221.0898 26.7972
" />
<path d="M221.0898 26.7972
L220.9470 26.8448
" />
<path d="M220.9470 26.8448
L220.8517 26.8448
" />
<path d="M221.6612 25.9401
L221.7089 25.8924
" />
<path d="M221.7089 25.8924
L221.8041 25.8448
" />
<path d="M221.8041 25.8448
L222.0422 25.8448
" />
<path d="M222.0422 25.8448
L222.1374 25.8924
" />
<path d="M222.1374 25.8924
L222.1851 25.9401
" />
<path d="M222.1851 25.9401
L222.2327 26.0353
" />
<path d="M222.2327 26.0353
L222.2327 26.1305
" />
<path d="M222.2327 26.1305
L222.1851 26.2734
" />
<path d="M222.1851 26.2734
L221.6136 26.8448
" />
<path d="M221.6136 26.8448
L222.2327 26.8448
" />
<path d="M222.5660 25.8448
L223.1851 25.8448
" />
<path d="M223.1851 25.8448
L222.8517 26.2258
" />
<path d="M222.8517 26.2258
L222.9946 26.2258
" />
<path d="M222.9946 26.2258
L223.0898 26.2734
" />
<path d="M223.0898 26.2734
L223.1374 26.3210
" />
<path d="M223.1374 26.3210
L223.1851 26.4162
" />
<path d="M223.1851 26.4162
L223.1851 26.6543
" />
<path d="M223.1851 26.6543
L223.1374 26.7496
" />
<path d="M223.1374 26.7496
L223.0898 26.7972
" />
<path d="M223.0898 26.7972
L222.9946 26.8448
" />
<path d="M222.9946 26.8448
L222.7089 26.8448
" />
<path d="M222.7089 26.8448
L222.6136 26.7972
" />
<path d="M222.6136 26.7972
L222.5660 26.7496
" />
</g><text x="257.9222" y="129.9300"
transform="scale(-1 1) translate(-515.844400 0)"
textLength="2.9167" font-size="1.3333" lengthAdjust="spacingAndGlyphs"
text-anchor="middle" opacity="0">J26</text>
<g class="stroked-text"><desc>J26</desc>
<path d="M257.1127 128.8848
L257.1127 129.5991
" />
<path d="M257.1127 129.5991
L257.0651 129.7420
" />
<path d="M257.0651 129.7420
L256.9698 129.8372
" />
<path d="M256.9698 129.8372
L256.8270 129.8848
" />
<path d="M256.8270 129.8848
L256.7317 129.8848
" />
<path d="M257.5412 128.9801
L257.5889 128.9324
" />
<path d="M257.5889 128.9324
L257.6841 128.8848
" />
<path d="M257.6841 128.8848
L257.9222 128.8848
" />
<path d="M257.9222 128.8848
L258.0174 128.9324
" />
<path d="M258.0174 128.9324
L258.0651 128.9801
" />
<path d="M258.0651 128.9801
L258.1127 129.0753
" />
<path d="M258.1127 129.0753
L258.1127 129.1705
" />
<path d="M258.1127 129.1705
L258.0651 129.3134
" />
<path d="M258.0651 129.3134
L257.4936 129.8848
" />
<path d="M257.4936 129.8848
L258.1127 129.8848
" />
<path d="M258.9698 128.8848
L258.7793 128.8848
" />
<path d="M258.7793 128.8848
L258.6841 128.9324
" />
<path d="M258.6841 128.9324
L258.6365 128.9801
" />
<path d="M258.6365 128.9801
L258.5412 129.1229
" />
<path d="M258.5412 129.1229
L258.4936 129.3134
" />
<path d="M258.4936 129.3134
L258.4936 129.6943
" />
<path d="M258.4936 129.6943
L258.5412 129.7896
" />
<path d="M258.5412 129.7896
L258.5889 129.8372
" />
<path d="M258.5889 129.8372
L258.6841 129.8848
" />
<path d="M258.6841 129.8848
L258.8746 129.8848
" />
<path d="M258.8746 129.8848
L258.9698 129.8372
" />
<path d="M258.9698 129.8372
L259.0174 129.7896
" />
<path d="M259.0174 129.7896
L259.0651 129.6943
" />
<path d="M259.0651 129.6943
L259.0651 129.4562
" />
<path d="M259.0651 129.4562
L259.0174 129.3610
" />
<path d="M259.0174 129.3610
L258.9698 129.3134
" />
<path d="M258.9698 129.3134
L258.8746 129.2658
" />
<path d="M258.8746 129.2658
L258.6841 129.2658
" />
<path d="M258.6841 129.2658
L258.5889 129.3134
" />
<path d="M258.5889 129.3134
L258.5412 129.3610
" />
<path d="M258.5412 129.3610
L258.4936 129.4562
" />
</g><text x="121.5022" y="124.0000"
transform="scale(-1 1) translate(-243.004400 0)"
textLength="3.2024" font-size="1.3333" lengthAdjust="spacingAndGlyphs"
text-anchor="middle" opacity="0">H11</text>
<g class="stroked-text"><desc>H11</desc>
<path d="M120.2641 123.9548
L120.2641 122.9548
" />
<path d="M120.2641 123.4310
L120.8355 123.4310
" />
<path d="M120.8355 123.9548
L120.8355 122.9548
" />
<path d="M121.8355 123.9548
L121.2641 123.9548
" />
<path d="M121.5498 123.9548
L121.5498 122.9548
" />
<path d="M121.5498 122.9548
L121.4546 123.0977
" />
<path d="M121.4546 123.0977
L121.3593 123.1929
" />
<path d="M121.3593 123.1929
L121.2641 123.2405
" />
<path d="M122.7879 123.9548
L122.2165 123.9548
" />
<path d="M122.5022 123.9548
L122.5022 122.9548
" />
<path d="M122.5022 122.9548
L122.4070 123.0977
" />
<path d="M122.4070 123.0977
L122.3117 123.1929
" />
<path d="M122.3117 123.1929
L122.2165 123.2405
" />
</g><text x="173.7022" y="69.0000"
transform="scale(-1 1) translate(-347.404400 0)"
textLength="2.9167" font-size="1.3333" lengthAdjust="spacingAndGlyphs"
text-anchor="middle" opacity="0">J25</text>
<g class="stroked-text"><desc>J25</desc>
<path d="M172.8927 67.9548
L172.8927 68.6691
" />
<path d="M172.8927 68.6691
L172.8451 68.8120
" />
<path d="M172.8451 68.8120
L172.7498 68.9072
" />
<path d="M172.7498 68.9072
L172.6070 68.9548
" />
<path d="M172.6070 68.9548
L172.5117 68.9548
" />
<path d="M173.3212 68.0501
L173.3689 68.0024
" />
<path d="M173.3689 68.0024
L173.4641 67.9548
" />
<path d="M173.4641 67.9548
L173.7022 67.9548
" />
<path d="M173.7022 67.9548
L173.7974 68.0024
" />
<path d="M173.7974 68.0024
L173.8451 68.0501
" />
<path d="M173.8451 68.0501
L173.8927 68.1453
" />
<path d="M173.8927 68.1453
L173.8927 68.2405
" />
<path d="M173.8927 68.2405
L173.8451 68.3834
" />
<path d="M173.8451 68.3834
L173.2736 68.9548
" />
<path d="M173.2736 68.9548
L173.8927 68.9548
" />
<path d="M174.7974 67.9548
L174.3212 67.9548
" />
<path d="M174.3212 67.9548
L174.2736 68.4310
" />
<path d="M174.2736 68.4310
L174.3212 68.3834
" />
<path d="M174.3212 68.3834
L174.4165 68.3358
" />
<path d="M174.4165 68.3358
L174.6546 68.3358
" />
<path d="M174.6546 68.3358
L174.7498 68.3834
" />
<path d="M174.7498 68.3834
L174.7974 68.4310
" />
<path d="M174.7974 68.4310
L174.8451 68.5262
" />
<path d="M174.8451 68.5262
L174.8451 68.7643
" />
<path d="M174.8451 68.7643
L174.7974 68.8596
" />
<path d="M174.7974 68.8596
L174.7498 68.9072
" />
<path d="M174.7498 68.9072
L174.6546 68.9548
" />
<path d="M174.6546 68.9548
L174.4165 68.9548
" />
<path d="M174.4165 68.9548
L174.3212 68.9072
" />
<path d="M174.3212 68.9072
L174.2736 68.8596
" />
</g><text x="230.9722" y="26.9000"
transform="scale(-1 1) translate(-461.944400 0)"
textLength="2.9167" font-size="1.3333" lengthAdjust="spacingAndGlyphs"
text-anchor="middle" opacity="0">J24</text>
<g class="stroked-text"><desc>J24</desc>
<path d="M230.1627 25.8548
L230.1627 26.5691
" />
<path d="M230.1627 26.5691
L230.1151 26.7120
" />
<path d="M230.1151 26.7120
L230.0198 26.8072
" />
<path d="M230.0198 26.8072
L229.8770 26.8548
" />
<path d="M229.8770 26.8548
L229.7817 26.8548
" />
<path d="M230.5912 25.9501
L230.6389 25.9024
" />
<path d="M230.6389 25.9024
L230.7341 25.8548
" />
<path d="M230.7341 25.8548
L230.9722 25.8548
" />
<path d="M230.9722 25.8548
L231.0674 25.9024
" />
<path d="M231.0674 25.9024
L231.1151 25.9501
" />
<path d="M231.1151 25.9501
L231.1627 26.0453
" />
<path d="M231.1627 26.0453
L231.1627 26.1405
" />
<path d="M231.1627 26.1405
L231.1151 26.2834
" />
<path d="M231.1151 26.2834
L230.5436 26.8548
" />
<path d="M230.5436 26.8548
L231.1627 26.8548
" />
<path d="M232.0198 26.1882
L232.0198 26.8548
" />
<path d="M231.7817 25.8072
L231.5436 26.5215
" />
<path d="M231.5436 26.5215
L232.1627 26.5215
" />
</g></g>
<g style="fill:#000000; fill-opacity:0.0; 
stroke:#000000; stroke-width:0.1200; stroke-opacity:1; 
stroke-linecap:round; stroke-linejoin:round;">
<path d="M226.4022 25.6000
L226.4022 24.3500
" />
<path d="M226.1022 20.5800
L217.9822 20.5800
" />
<path d="M226.1022 22.6900
L225.4922 22.6900
" />
<path d="M226.1022 23.9900
L225.4922 23.9900
" />
<path d="M226.1022 25.3000
L226.1022 20.5800
" />
<path d="M225.4922 21.1900
L218.5922 21.1900
" />
<path d="M225.4922 24.6900
L225.4922 21.1900
" />
<path d="M225.1522 25.6000
L226.4022 25.6000
" />
<path d="M224.6422 25.5000
L224.6422 25.3000
" />
<path d="M224.3422 25.3000
L224.3422 25.5000
" />
<path d="M224.3422 25.4000
L224.6422 25.4000
" />
<path d="M224.3422 25.5000
L224.6422 25.5000
" />
<path d="M223.5422 24.6900
L225.4922 24.6900
" />
<path d="M223.5422 25.3000
L223.5422 24.6900
" />
<path d="M223.1422 21.1900
L223.1422 21.6900
" />
<path d="M223.1422 21.6900
L222.9422 21.6900
" />
<path d="M223.0422 21.1900
L223.0422 21.6900
" />
<path d="M222.9422 21.6900
L222.9422 21.1900
" />
<path d="M221.1422 21.1900
L221.1422 21.6900
" />
<path d="M221.1422 21.6900
L220.9422 21.6900
" />
<path d="M221.0422 21.1900
L221.0422 21.6900
" />
<path d="M220.9422 21.6900
L220.9422 21.1900
" />
<path d="M220.5422 24.6900
L220.5422 25.3000
" />
<path d="M218.5922 21.1900
L218.5922 24.6900
" />
<path d="M218.5922 24.6900
L220.5422 24.6900
" />
<path d="M217.9822 20.5800
L217.9822 25.3000
" />
<path d="M217.9822 22.6900
L218.5922 22.6900
" />
<path d="M217.9822 23.9900
L218.5922 23.9900
" />
<path d="M217.9822 25.3000
L226.1022 25.3000
" />
<path d="M247.8822 125.7200
L247.8822 126.9700
" />
<path d="M248.1822 130.7400
L256.3022 130.7400
" />
<path d="M248.1822 128.6300
L248.7922 128.6300
" />
<path d="M248.1822 127.3300
L248.7922 127.3300
" />
<path d="M248.1822 126.0200
L248.1822 130.7400
" />
<path d="M248.7922 130.1300
L255.6922 130.1300
" />
<path d="M248.7922 126.6300
L248.7922 130.1300
" />
<path d="M249.1322 125.7200
L247.8822 125.7200
" />
<path d="M249.6422 125.8200
L249.6422 126.0200
" />
<path d="M249.9422 126.0200
L249.9422 125.8200
" />
<path d="M249.9422 125.9200
L249.6422 125.9200
" />
<path d="M249.9422 125.8200
L249.6422 125.8200
" />
<path d="M250.7422 126.6300
L248.7922 126.6300
" />
<path d="M250.7422 126.0200
L250.7422 126.6300
" />
<path d="M251.1422 130.1300
L251.1422 129.6300
" />
<path d="M251.1422 129.6300
L251.3422 129.6300
" />
<path d="M251.2422 130.1300
L251.2422 129.6300
" />
<path d="M251.3422 129.6300
L251.3422 130.1300
" />
<path d="M253.1422 130.1300
L253.1422 129.6300
" />
<path d="M253.1422 129.6300
L253.3422 129.6300
" />
<path d="M253.2422 130.1300
L253.2422 129.6300
" />
<path d="M253.3422 129.6300
L253.3422 130.1300
" />
<path d="M253.7422 126.6300
L253.7422 126.0200
" />
<path d="M255.6922 130.1300
L255.6922 126.6300
" />
<path d="M255.6922 126.6300
L253.7422 126.6300
" />
<path d="M256.3022 130.7400
L256.3022 126.0200
" />
<path d="M256.3022 128.6300
L255.6922 128.6300
" />
<path d="M256.3022 127.3300
L255.6922 127.3300
" />
<path d="M256.3022 126.0200
L248.1822 126.0200
" />
</g>
<g style="fill:#000000; fill-opacity:0.0; 
stroke:#000000; stroke-width:0.1000; stroke-opacity:1; 
stroke-linecap:round; stroke-linejoin:round;">
<path d="M125.5222 63.5056
L125.5222 121.5056
" />
<path d="M129.2722 125.0056
L129.0222 125.0056
" />
</g>
<g style="fill:#000000; fill-opacity:0.0; 
stroke:#000000; stroke-width:0.1200; stroke-opacity:1; 
stroke-linecap:round; stroke-linejoin:round;">
<path d="M138.2122 123.0206
L138.2122 117.8206
" />
<path d="M139.1172 76.1156
L139.1172 81.2556
" />
<path d="M139.1172 73.5156
L139.1172 74.8456
" />
<path d="M140.4472 73.5156
L139.1172 73.5156
" />
<path d="M141.7172 76.1156
L139.1172 76.1156
" />
<path d="M141.7172 73.5156
L141.7172 76.1156
" />
<path d="M143.3522 120.4206
L143.3522 117.8206
" />
<path d="M143.3522 117.8206
L138.2122 117.8206
" />
<path d="M144.3172 81.2556
L139.1172 81.2556
" />
<path d="M144.3172 73.5156
L141.7172 73.5156
" />
<path d="M144.3172 73.5156
L144.3172 81.2556
" />
<path d="M145.9522 123.0206
L138.2122 123.0206
" />
<path d="M145.9522 123.0206
L145.9522 120.4206
" />
<path d="M145.9522 120.4206
L143.3522 120.4206
" />
<path d="M145.9522 119.1506
L145.9522 117.8206
" />
<path d="M145.9522 117.8206
L144.6222 117.8206
" />
<path d="M175.4222 69.6456
L175.4222 117.9656
" />
<path d="M175.4222 67.0456
L175.4222 68.3756
" />
<path d="M176.7522 67.0456
L175.4222 67.0456
" />
<path d="M178.0222 69.6456
L175.4222 69.6456
" />
<path d="M178.0222 67.0456
L178.0222 69.6456
" />
</g>
<g style="fill:#000000; fill-opacity:0.0; 
stroke:#000000; stroke-width:0.1000; stroke-opacity:1; 
stroke-linecap:round; stroke-linejoin:round;">
<path d="M178.0222 60.0056
L129.0222 60.0056
" />
<path d="M178.0222 60.0056
L178.5222 60.0052
" />
<path d="M178.7722 125.0056
L129.2722 125.0056
" />
</g>
<g style="fill:#000000; fill-opacity:0.0; 
stroke:#000000; stroke-width:0.1200; stroke-opacity:1; 
stroke-linecap:round; stroke-linejoin:round;">
<path d="M180.6222 117.9656
L175.4222 117.9656
" />
<path d="M180.6222 67.0456
L178.0222 67.0456
" />
<path d="M180.6222 67.0456
L180.6222 117.9656
" />
</g>
<g style="fill:#000000; fill-opacity:0.0; 
stroke:#000000; stroke-width:0.1000; stroke-opacity:1; 
stroke-linecap:round; stroke-linejoin:round;">
<path d="M182.0222 121.5056
L182.0222 63.5556
" />
<path d="M125.5222 121.5056 A3.5000 3.5000 0.0 0 0 129.0222 125.0056" />
<path d="M129.0222 60.0056 A3.5000 3.5000 0.0 0 0 125.5222 63.5056" />
<path d="M178.5222 125.0056 A3.5000 3.5000 0.0 0 0 182.0222 121.5056" />
<path d="M182.0222 63.5556 A3.5004 3.5004 0.0 0 0 178.5222 60.0052" />
<circle cx="129.0222" cy="121.5056" r="1.6510" /> 
<circle cx="129.0222" cy="63.5056" r="1.6510" /> 
<circle cx="178.0222" cy="121.5056" r="1.6510" /> 
<circle cx="178.0222" cy="63.5056" r="1.6510" /> 
</g>
<g style="fill:#000000; fill-opacity:0.0; 
stroke:#000000; stroke-width:0.1200; stroke-opacity:1; 
stroke-linecap:round; stroke-linejoin:round;">
<path d="M235.3322 25.6100
L235.3322 24.3600
" />
<path d="M235.0322 20.5900
L226.9122 20.5900
" />
<path d="M235.0322 22.7000
L234.4222 22.7000
" />
<path d="M235.0322 24.0000
L234.4222 24.0000
" />
<path d="M235.0322 25.3100
L235.0322 20.5900
" />
<path d="M234.4222 21.2000
L227.5222 21.2000
" />
<path d="M234.4222 24.7000
L234.4222 21.2000
" />
<path d="M234.0822 25.6100
L235.3322 25.6100
" />
<path d="M233.5722 25.5100
L233.5722 25.3100
" />
<path d="M233.2722 25.3100
L233.2722 25.5100
" />
<path d="M233.2722 25.4100
L233.5722 25.4100
" />
<path d="M233.2722 25.5100
L233.5722 25.5100
" />
<path d="M232.4722 24.7000
L234.4222 24.7000
" />
<path d="M232.4722 25.3100
L232.4722 24.7000
" />
<path d="M232.0722 21.2000
L232.0722 21.7000
" />
<path d="M232.0722 21.7000
L231.8722 21.7000
" />
<path d="M231.9722 21.2000
L231.9722 21.7000
" />
<path d="M231.8722 21.7000
L231.8722 21.2000
" />
<path d="M230.0722 21.2000
L230.0722 21.7000
" />
<path d="M230.0722 21.7000
L229.8722 21.7000
" />
<path d="M229.9722 21.2000
L229.9722 21.7000
" />
<path d="M229.8722 21.7000
L229.8722 21.2000
" />
<path d="M229.4722 24.7000
L229.4722 25.3100
" />
<path d="M227.5222 21.2000
L227.5222 24.7000
" />
<path d="M227.5222 24.7000
L229.4722 24.7000
" />
<path d="M226.9122 20.5900
L226.9122 25.3100
" />
<path d="M226.9122 22.7000
L227.5222 22.7000
" />
<path d="M226.9122 24.0000
L227.5222 24.0000
" />
<path d="M226.9122 25.3100
L235.0322 25.3100
" />
<g >
</g>
<g >
</g>
<g >
</g>
<g >
</g>
<g >
</g>
<g >
</g>
<g >
</g>
<g >
</g>
<g >
</g>
<g >
</g>
<g >
</g>
<g >
</g>
<g >
</g>
<g >
</g>
<g >
</g>
<g >
</g>
<g >
</g>
<g >
</g>
<g >
</g>
<g >
</g>
<g >
</g>
<g >
</g>
<g >
</g>
<g >
</g>
<g >
</g>
<g >
</g>
<g >
</g>
<g >
</g>
<g >
</g>
<g >
</g>
<g >
</g>
<g >
</g>
<g >
</g>
<g >
</g>
<g >
</g>
<g >
</g>
<g >
</g>
<g >
</g>
<g >
</g>
<g >
</g>
<g >
</g>
<g >
</g>
<g >
</g>
<g >
</g>
<g >
</g>
<g >
</g>
<g >
</g>
<g >
</g>
<g >
</g>
<g >
</g>
<g >
</g>
<g >
</g>
<g >
</g>
<g >
</g>
<g >
</g>
<g >
</g>
<g >
</g>
<g >
</g>
<g >
</g>
<g >
</g>
<g >
</g>
<g >
</g>
<g >
</g>
<g >
</g>
<g >
</g>
<g >
</g>
<g >
</g>
<g >
</g>
<g >
</g>
<g >
</g>
<g >
</g>
<g >
</g>
<g >
</g>
<g >
</g>
<g >
</g>
<g >
</g>
<g >
</g>
<g >
</g>
<g >
</g>
<g >
</g>
<g >
</g>
<g >
</g>
<g >
</g>
<g >
</g>
<g >
</g>
<g >
</g>
<g >
</g>
<g >
</g>
<g >
</g>
<g >
</g>
<g >
</g>
<g >
</g>
<g >
</g>
<g >
</g>
<g >
</g>
<g >
</g>
<g >
</g>
<g >
</g>
<g >
</g>
<g >
</g>
<g >
</g>
<g >
</g>
<g >
</g>
<g >
</g>
<g >
</g>
<g >
</g>
<g >
</g>
<g >
</g>
<g >
</g>
<g >
</g>
<g >
</g>
<g >
</g>
<g >
</g>
<g >
</g>
<g >
</g>
<g >
</g>
<g >
</g>
<g >
</g>
<g >
</g>
<g >
</g>
<g >
</g>
<g >
</g>
<g >
</g>
<g >
</g>
<g >
</g>
<g >
</g>
<g >
</g>
<g >
</g>
<g >
</g>
<g >
</g>
<g >
</g>
<g >
</g>
<g >
</g>
<g >
</g>
<g >
</g>
<g >
</g>
<g >
</g>
<g >
</g>
<g >
</g>
<g >
</g>
<g >
</g>
<g >
</g>
</g> 
</svg>
