<?xml version="1.0" standalone="no"?>
 <!DOCTYPE svg PUBLIC "-//W3C//DTD SVG 1.1//EN" 
 "http://www.w3.org/Graphics/SVG/1.1/DTD/svg11.dtd"> 
<svg
  xmlns:svg="http://www.w3.org/2000/svg"
  xmlns="http://www.w3.org/2000/svg"
  xmlns:xlink="http://www.w3.org/1999/xlink"
  version="1.1"
  width="297.0022mm" height="210.0072mm" viewBox="0.0000 0.0000 297.0022 210.0072">
<title>SVG Image created as pedalboard-hw-User_Comments.svg date 2023/03/27 14:37:15 </title>
  <desc>Image generated by PCBNEW </desc>
<g style="fill:#000000; fill-opacity:1.0000;stroke:#000000; stroke-opacity:1.0000;
stroke-linecap:round; stroke-linejoin:round;"
 transform="translate(0 0) scale(1 1)">
</g>
<g style="fill:#000000; fill-opacity:0.0; 
stroke:#000000; stroke-width:0.0000; stroke-opacity:1; 
stroke-linecap:round; stroke-linejoin:round;">
</g>
<g style="fill:#000000; fill-opacity:0.0; 
stroke:#000000; stroke-width:0.1500; stroke-opacity:1; 
stroke-linecap:round; stroke-linejoin:round;">
<g transform="rotate(-45.000000 79.7260 36.5460)">
<text x="79.7260" y="36.9460"
textLength="3.3388" font-size="1.0667" lengthAdjust="spacingAndGlyphs"
text-anchor="middle" opacity="0">GP16</text>
</g>
<g class="stroked-text"><desc>GP16</desc>
<path d="M78.7755 36.9424
L78.6947 36.9693
" />
<path d="M78.6947 36.9693
L78.6139 37.0501
" />
<path d="M78.6139 37.0501
L78.5600 37.1579
" />
<path d="M78.5600 37.1579
L78.5600 37.2656
" />
<path d="M78.5600 37.2656
L78.5870 37.3464
" />
<path d="M78.5870 37.3464
L78.6678 37.4811
" />
<path d="M78.6678 37.4811
L78.7486 37.5619
" />
<path d="M78.7486 37.5619
L78.8833 37.6428
" />
<path d="M78.8833 37.6428
L78.9641 37.6697
" />
<path d="M78.9641 37.6697
L79.0718 37.6697
" />
<path d="M79.0718 37.6697
L79.1796 37.6158
" />
<path d="M79.1796 37.6158
L79.2334 37.5619
" />
<path d="M79.2334 37.5619
L79.2873 37.4542
" />
<path d="M79.2873 37.4542
L79.2873 37.4003
" />
<path d="M79.2873 37.4003
L79.0988 37.2118
" />
<path d="M79.0988 37.2118
L78.9910 37.3195
" />
<path d="M79.5836 37.2118
L79.0179 36.6461
" />
<path d="M79.0179 36.6461
L79.2334 36.4306
" />
<path d="M79.2334 36.4306
L79.3143 36.4036
" />
<path d="M79.3143 36.4036
L79.3681 36.4036
" />
<path d="M79.3681 36.4036
L79.4489 36.4306
" />
<path d="M79.4489 36.4306
L79.5298 36.5114
" />
<path d="M79.5298 36.5114
L79.5567 36.5922
" />
<path d="M79.5567 36.5922
L79.5567 36.6461
" />
<path d="M79.5567 36.6461
L79.5298 36.7269
" />
<path d="M79.5298 36.7269
L79.3143 36.9424
" />
<path d="M80.4456 36.3498
L80.1224 36.6730
" />
<path d="M80.2840 36.5114
L79.7183 35.9457
" />
<path d="M79.7183 35.9457
L79.7453 36.0804
" />
<path d="M79.7453 36.0804
L79.7453 36.1881
" />
<path d="M79.7453 36.1881
L79.7183 36.2689
" />
<path d="M80.3648 35.2992
L80.2571 35.4070
" />
<path d="M80.2571 35.4070
L80.2301 35.4878
" />
<path d="M80.2301 35.4878
L80.2301 35.5416
" />
<path d="M80.2301 35.5416
L80.2571 35.6763
" />
<path d="M80.2571 35.6763
L80.3379 35.8110
" />
<path d="M80.3379 35.8110
L80.5534 36.0265
" />
<path d="M80.5534 36.0265
L80.6342 36.0534
" />
<path d="M80.6342 36.0534
L80.6881 36.0534
" />
<path d="M80.6881 36.0534
L80.7689 36.0265
" />
<path d="M80.7689 36.0265
L80.8766 35.9188
" />
<path d="M80.8766 35.9188
L80.9036 35.8379
" />
<path d="M80.9036 35.8379
L80.9036 35.7841
" />
<path d="M80.9036 35.7841
L80.8766 35.7033
" />
<path d="M80.8766 35.7033
L80.7419 35.5686
" />
<path d="M80.7419 35.5686
L80.6611 35.5416
" />
<path d="M80.6611 35.5416
L80.6073 35.5416
" />
<path d="M80.6073 35.5416
L80.5264 35.5686
" />
<path d="M80.5264 35.5686
L80.4187 35.6763
" />
<path d="M80.4187 35.6763
L80.3918 35.7571
" />
<path d="M80.3918 35.7571
L80.3918 35.8110
" />
<path d="M80.3918 35.8110
L80.4187 35.8918
" />
</g><g transform="rotate(-45.000000 121.7500 61.3460)">
<text x="121.7500" y="61.7460"
textLength="2.6531" font-size="1.0667" lengthAdjust="spacingAndGlyphs"
text-anchor="middle" opacity="0">GND</text>
</g>
<g class="stroked-text"><desc>GND</desc>
<path d="M121.0419 61.4999
L120.9611 61.5269
" />
<path d="M120.9611 61.5269
L120.8803 61.6077
" />
<path d="M120.8803 61.6077
L120.8265 61.7154
" />
<path d="M120.8265 61.7154
L120.8265 61.8232
" />
<path d="M120.8265 61.8232
L120.8534 61.9040
" />
<path d="M120.8534 61.9040
L120.9342 62.0387
" />
<path d="M120.9342 62.0387
L121.0150 62.1195
" />
<path d="M121.0150 62.1195
L121.1497 62.2003
" />
<path d="M121.1497 62.2003
L121.2305 62.2273
" />
<path d="M121.2305 62.2273
L121.3383 62.2273
" />
<path d="M121.3383 62.2273
L121.4460 62.1734
" />
<path d="M121.4460 62.1734
L121.4999 62.1195
" />
<path d="M121.4999 62.1195
L121.5538 62.0118
" />
<path d="M121.5538 62.0118
L121.5538 61.9579
" />
<path d="M121.5538 61.9579
L121.3652 61.7693
" />
<path d="M121.3652 61.7693
L121.2574 61.8771
" />
<path d="M121.8501 61.7693
L121.2844 61.2036
" />
<path d="M121.2844 61.2036
L122.1733 61.4461
" />
<path d="M122.1733 61.4461
L121.6076 60.8804
" />
<path d="M122.4427 61.1767
L121.8770 60.6110
" />
<path d="M121.8770 60.6110
L122.0117 60.4763
" />
<path d="M122.0117 60.4763
L122.1194 60.4224
" />
<path d="M122.1194 60.4224
L122.2272 60.4224
" />
<path d="M122.2272 60.4224
L122.3080 60.4494
" />
<path d="M122.3080 60.4494
L122.4427 60.5302
" />
<path d="M122.4427 60.5302
L122.5235 60.6110
" />
<path d="M122.5235 60.6110
L122.6043 60.7457
" />
<path d="M122.6043 60.7457
L122.6313 60.8265
" />
<path d="M122.6313 60.8265
L122.6313 60.9343
" />
<path d="M122.6313 60.9343
L122.5774 61.0420
" />
<path d="M122.5774 61.0420
L122.4427 61.1767
" />
</g><g transform="rotate(-45.000000 83.6500 61.3460)">
<text x="83.6500" y="61.7460"
textLength="2.6531" font-size="1.0667" lengthAdjust="spacingAndGlyphs"
text-anchor="middle" opacity="0">GND</text>
</g>
<g class="stroked-text"><desc>GND</desc>
<path d="M82.9419 61.4999
L82.8611 61.5269
" />
<path d="M82.8611 61.5269
L82.7803 61.6077
" />
<path d="M82.7803 61.6077
L82.7265 61.7154
" />
<path d="M82.7265 61.7154
L82.7265 61.8232
" />
<path d="M82.7265 61.8232
L82.7534 61.9040
" />
<path d="M82.7534 61.9040
L82.8342 62.0387
" />
<path d="M82.8342 62.0387
L82.9150 62.1195
" />
<path d="M82.9150 62.1195
L83.0497 62.2003
" />
<path d="M83.0497 62.2003
L83.1305 62.2273
" />
<path d="M83.1305 62.2273
L83.2383 62.2273
" />
<path d="M83.2383 62.2273
L83.3460 62.1734
" />
<path d="M83.3460 62.1734
L83.3999 62.1195
" />
<path d="M83.3999 62.1195
L83.4538 62.0118
" />
<path d="M83.4538 62.0118
L83.4538 61.9579
" />
<path d="M83.4538 61.9579
L83.2652 61.7693
" />
<path d="M83.2652 61.7693
L83.1574 61.8771
" />
<path d="M83.7501 61.7693
L83.1844 61.2036
" />
<path d="M83.1844 61.2036
L84.0733 61.4461
" />
<path d="M84.0733 61.4461
L83.5076 60.8804
" />
<path d="M84.3427 61.1767
L83.7770 60.6110
" />
<path d="M83.7770 60.6110
L83.9117 60.4763
" />
<path d="M83.9117 60.4763
L84.0194 60.4224
" />
<path d="M84.0194 60.4224
L84.1272 60.4224
" />
<path d="M84.1272 60.4224
L84.2080 60.4494
" />
<path d="M84.2080 60.4494
L84.3427 60.5302
" />
<path d="M84.3427 60.5302
L84.4235 60.6110
" />
<path d="M84.4235 60.6110
L84.5043 60.7457
" />
<path d="M84.5043 60.7457
L84.5313 60.8265
" />
<path d="M84.5313 60.8265
L84.5313 60.9343
" />
<path d="M84.5313 60.9343
L84.4774 61.0420
" />
<path d="M84.4774 61.0420
L84.3427 61.1767
" />
</g><g transform="rotate(-45.000000 121.0560 35.9000)">
<text x="121.0560" y="36.3000"
textLength="4.5960" font-size="1.0667" lengthAdjust="spacingAndGlyphs"
text-anchor="middle" opacity="0">3V3_EN</text>
</g>
<g class="stroked-text"><desc>3V3_EN</desc>
<path d="M119.2839 37.0641
L119.6341 36.7139
" />
<path d="M119.6341 36.7139
L119.6610 37.1180
" />
<path d="M119.6610 37.1180
L119.7419 37.0372
" />
<path d="M119.7419 37.0372
L119.8227 37.0102
" />
<path d="M119.8227 37.0102
L119.8765 37.0102
" />
<path d="M119.8765 37.0102
L119.9574 37.0372
" />
<path d="M119.9574 37.0372
L120.0920 37.1718
" />
<path d="M120.0920 37.1718
L120.1190 37.2527
" />
<path d="M120.1190 37.2527
L120.1190 37.3065
" />
<path d="M120.1190 37.3065
L120.0920 37.3873
" />
<path d="M120.0920 37.3873
L119.9304 37.5490
" />
<path d="M119.9304 37.5490
L119.8496 37.5759
" />
<path d="M119.8496 37.5759
L119.7957 37.5759
" />
<path d="M119.7957 36.5523
L120.5500 36.9294
" />
<path d="M120.5500 36.9294
L120.1729 36.1752
" />
<path d="M120.3075 36.0405
L120.6577 35.6903
" />
<path d="M120.6577 35.6903
L120.6847 36.0944
" />
<path d="M120.6847 36.0944
L120.7655 36.0135
" />
<path d="M120.7655 36.0135
L120.8463 35.9866
" />
<path d="M120.8463 35.9866
L120.9002 35.9866
" />
<path d="M120.9002 35.9866
L120.9810 36.0135
" />
<path d="M120.9810 36.0135
L121.1157 36.1482
" />
<path d="M121.1157 36.1482
L121.1426 36.2290
" />
<path d="M121.1426 36.2290
L121.1426 36.2829
" />
<path d="M121.1426 36.2829
L121.1157 36.3637
" />
<path d="M121.1157 36.3637
L120.9540 36.5254
" />
<path d="M120.9540 36.5254
L120.8732 36.5523
" />
<path d="M120.8732 36.5523
L120.8194 36.5523
" />
<path d="M121.3850 36.2021
L121.8160 35.7711
" />
<path d="M121.6005 35.2862
L121.7891 35.0977
" />
<path d="M122.1662 35.3132
L121.8969 35.5825
" />
<path d="M121.8969 35.5825
L121.3312 35.0169
" />
<path d="M121.3312 35.0169
L121.6005 34.7475
" />
<path d="M122.4087 35.0707
L121.8430 34.5050
" />
<path d="M121.8430 34.5050
L122.7319 34.7475
" />
<path d="M122.7319 34.7475
L122.1662 34.1818
" />
</g><g transform="rotate(-45.000000 94.9560 36.5460)">
<text x="94.9560" y="36.9460"
textLength="3.3388" font-size="1.0667" lengthAdjust="spacingAndGlyphs"
text-anchor="middle" opacity="0">GP21</text>
</g>
<g class="stroked-text"><desc>GP21</desc>
<path d="M94.0055 36.9424
L93.9247 36.9693
" />
<path d="M93.9247 36.9693
L93.8439 37.0501
" />
<path d="M93.8439 37.0501
L93.7900 37.1579
" />
<path d="M93.7900 37.1579
L93.7900 37.2656
" />
<path d="M93.7900 37.2656
L93.8170 37.3464
" />
<path d="M93.8170 37.3464
L93.8978 37.4811
" />
<path d="M93.8978 37.4811
L93.9786 37.5619
" />
<path d="M93.9786 37.5619
L94.1133 37.6428
" />
<path d="M94.1133 37.6428
L94.1941 37.6697
" />
<path d="M94.1941 37.6697
L94.3018 37.6697
" />
<path d="M94.3018 37.6697
L94.4096 37.6158
" />
<path d="M94.4096 37.6158
L94.4634 37.5619
" />
<path d="M94.4634 37.5619
L94.5173 37.4542
" />
<path d="M94.5173 37.4542
L94.5173 37.4003
" />
<path d="M94.5173 37.4003
L94.3288 37.2118
" />
<path d="M94.3288 37.2118
L94.2210 37.3195
" />
<path d="M94.8136 37.2118
L94.2479 36.6461
" />
<path d="M94.2479 36.6461
L94.4634 36.4306
" />
<path d="M94.4634 36.4306
L94.5443 36.4036
" />
<path d="M94.5443 36.4036
L94.5981 36.4036
" />
<path d="M94.5981 36.4036
L94.6789 36.4306
" />
<path d="M94.6789 36.4306
L94.7598 36.5114
" />
<path d="M94.7598 36.5114
L94.7867 36.5922
" />
<path d="M94.7867 36.5922
L94.7867 36.6461
" />
<path d="M94.7867 36.6461
L94.7598 36.7269
" />
<path d="M94.7598 36.7269
L94.5443 36.9424
" />
<path d="M94.8406 36.1612
L94.8406 36.1073
" />
<path d="M94.8406 36.1073
L94.8675 36.0265
" />
<path d="M94.8675 36.0265
L95.0022 35.8918
" />
<path d="M95.0022 35.8918
L95.0830 35.8649
" />
<path d="M95.0830 35.8649
L95.1369 35.8649
" />
<path d="M95.1369 35.8649
L95.2177 35.8918
" />
<path d="M95.2177 35.8918
L95.2716 35.9457
" />
<path d="M95.2716 35.9457
L95.3254 36.0534
" />
<path d="M95.3254 36.0534
L95.3254 36.6999
" />
<path d="M95.3254 36.6999
L95.6756 36.3498
" />
<path d="M96.2144 35.8110
L95.8911 36.1343
" />
<path d="M96.0528 35.9726
L95.4871 35.4070
" />
<path d="M95.4871 35.4070
L95.5140 35.5416
" />
<path d="M95.5140 35.5416
L95.5140 35.6494
" />
<path d="M95.5140 35.6494
L95.4871 35.7302
" />
</g><g transform="rotate(-45.000000 122.9060 36.8000)">
<text x="122.9060" y="37.2000"
textLength="2.6531" font-size="1.0667" lengthAdjust="spacingAndGlyphs"
text-anchor="middle" opacity="0">GND</text>
</g>
<g class="stroked-text"><desc>GND</desc>
<path d="M122.1979 36.9539
L122.1171 36.9809
" />
<path d="M122.1171 36.9809
L122.0363 37.0617
" />
<path d="M122.0363 37.0617
L121.9825 37.1694
" />
<path d="M121.9825 37.1694
L121.9825 37.2772
" />
<path d="M121.9825 37.2772
L122.0094 37.3580
" />
<path d="M122.0094 37.3580
L122.0902 37.4927
" />
<path d="M122.0902 37.4927
L122.1710 37.5735
" />
<path d="M122.1710 37.5735
L122.3057 37.6543
" />
<path d="M122.3057 37.6543
L122.3865 37.6813
" />
<path d="M122.3865 37.6813
L122.4943 37.6813
" />
<path d="M122.4943 37.6813
L122.6020 37.6274
" />
<path d="M122.6020 37.6274
L122.6559 37.5735
" />
<path d="M122.6559 37.5735
L122.7098 37.4658
" />
<path d="M122.7098 37.4658
L122.7098 37.4119
" />
<path d="M122.7098 37.4119
L122.5212 37.2233
" />
<path d="M122.5212 37.2233
L122.4134 37.3311
" />
<path d="M123.0061 37.2233
L122.4404 36.6576
" />
<path d="M122.4404 36.6576
L123.3293 36.9001
" />
<path d="M123.3293 36.9001
L122.7636 36.3344
" />
<path d="M123.5987 36.6307
L123.0330 36.0650
" />
<path d="M123.0330 36.0650
L123.1677 35.9303
" />
<path d="M123.1677 35.9303
L123.2754 35.8764
" />
<path d="M123.2754 35.8764
L123.3832 35.8764
" />
<path d="M123.3832 35.8764
L123.4640 35.9034
" />
<path d="M123.4640 35.9034
L123.5987 35.9842
" />
<path d="M123.5987 35.9842
L123.6795 36.0650
" />
<path d="M123.6795 36.0650
L123.7603 36.1997
" />
<path d="M123.7603 36.1997
L123.7873 36.2805
" />
<path d="M123.7873 36.2805
L123.7873 36.3883
" />
<path d="M123.7873 36.3883
L123.7334 36.4960
" />
<path d="M123.7334 36.4960
L123.5987 36.6307
" />
</g><g transform="rotate(-45.000000 97.5060 36.8000)">
<text x="97.5060" y="37.2000"
textLength="2.6531" font-size="1.0667" lengthAdjust="spacingAndGlyphs"
text-anchor="middle" opacity="0">GND</text>
</g>
<g class="stroked-text"><desc>GND</desc>
<path d="M96.7980 36.9539
L96.7171 36.9809
" />
<path d="M96.7171 36.9809
L96.6363 37.0617
" />
<path d="M96.6363 37.0617
L96.5825 37.1694
" />
<path d="M96.5825 37.1694
L96.5825 37.2772
" />
<path d="M96.5825 37.2772
L96.6094 37.3580
" />
<path d="M96.6094 37.3580
L96.6902 37.4927
" />
<path d="M96.6902 37.4927
L96.7710 37.5735
" />
<path d="M96.7710 37.5735
L96.9057 37.6543
" />
<path d="M96.9057 37.6543
L96.9865 37.6813
" />
<path d="M96.9865 37.6813
L97.0943 37.6813
" />
<path d="M97.0943 37.6813
L97.2020 37.6274
" />
<path d="M97.2020 37.6274
L97.2559 37.5735
" />
<path d="M97.2559 37.5735
L97.3098 37.4658
" />
<path d="M97.3098 37.4658
L97.3098 37.4119
" />
<path d="M97.3098 37.4119
L97.1212 37.2233
" />
<path d="M97.1212 37.2233
L97.0134 37.3311
" />
<path d="M97.6061 37.2233
L97.0404 36.6576
" />
<path d="M97.0404 36.6576
L97.9293 36.9001
" />
<path d="M97.9293 36.9001
L97.3636 36.3344
" />
<path d="M98.1987 36.6307
L97.6330 36.0650
" />
<path d="M97.6330 36.0650
L97.7677 35.9303
" />
<path d="M97.7677 35.9303
L97.8754 35.8764
" />
<path d="M97.8754 35.8764
L97.9832 35.8764
" />
<path d="M97.9832 35.8764
L98.0640 35.9034
" />
<path d="M98.0640 35.9034
L98.1987 35.9842
" />
<path d="M98.1987 35.9842
L98.2795 36.0650
" />
<path d="M98.2795 36.0650
L98.3603 36.1997
" />
<path d="M98.3603 36.1997
L98.3873 36.2805
" />
<path d="M98.3873 36.2805
L98.3873 36.3883
" />
<path d="M98.3873 36.3883
L98.3334 36.4960
" />
<path d="M98.3334 36.4960
L98.1987 36.6307
" />
</g><g transform="rotate(-45.000000 91.2700 61.7460)">
<text x="91.2700" y="62.1460"
textLength="3.3388" font-size="1.0667" lengthAdjust="spacingAndGlyphs"
text-anchor="middle" opacity="0">GP11</text>
</g>
<g class="stroked-text"><desc>GP11</desc>
<path d="M90.3195 62.1424
L90.2387 62.1693
" />
<path d="M90.2387 62.1693
L90.1579 62.2501
" />
<path d="M90.1579 62.2501
L90.1040 62.3579
" />
<path d="M90.1040 62.3579
L90.1040 62.4656
" />
<path d="M90.1040 62.4656
L90.1310 62.5464
" />
<path d="M90.1310 62.5464
L90.2118 62.6811
" />
<path d="M90.2118 62.6811
L90.2926 62.7619
" />
<path d="M90.2926 62.7619
L90.4273 62.8428
" />
<path d="M90.4273 62.8428
L90.5081 62.8697
" />
<path d="M90.5081 62.8697
L90.6158 62.8697
" />
<path d="M90.6158 62.8697
L90.7236 62.8158
" />
<path d="M90.7236 62.8158
L90.7774 62.7619
" />
<path d="M90.7774 62.7619
L90.8313 62.6542
" />
<path d="M90.8313 62.6542
L90.8313 62.6003
" />
<path d="M90.8313 62.6003
L90.6428 62.4118
" />
<path d="M90.6428 62.4118
L90.5350 62.5195
" />
<path d="M91.1276 62.4118
L90.5619 61.8461
" />
<path d="M90.5619 61.8461
L90.7774 61.6306
" />
<path d="M90.7774 61.6306
L90.8583 61.6036
" />
<path d="M90.8583 61.6036
L90.9121 61.6036
" />
<path d="M90.9121 61.6036
L90.9929 61.6306
" />
<path d="M90.9929 61.6306
L91.0738 61.7114
" />
<path d="M91.0738 61.7114
L91.1007 61.7922
" />
<path d="M91.1007 61.7922
L91.1007 61.8461
" />
<path d="M91.1007 61.8461
L91.0738 61.9269
" />
<path d="M91.0738 61.9269
L90.8583 62.1424
" />
<path d="M91.9896 61.5498
L91.6664 61.8730
" />
<path d="M91.8280 61.7114
L91.2623 61.1457
" />
<path d="M91.2623 61.1457
L91.2893 61.2804
" />
<path d="M91.2893 61.2804
L91.2893 61.3881
" />
<path d="M91.2893 61.3881
L91.2623 61.4689
" />
<path d="M92.5284 61.0110
L92.2051 61.3343
" />
<path d="M92.3668 61.1726
L91.8011 60.6070
" />
<path d="M91.8011 60.6070
L91.8280 60.7416
" />
<path d="M91.8280 60.7416
L91.8280 60.8494
" />
<path d="M91.8280 60.8494
L91.8011 60.9302
" />
</g><g transform="rotate(-45.000000 92.4260 36.5460)">
<text x="92.4260" y="36.9460"
textLength="3.3388" font-size="1.0667" lengthAdjust="spacingAndGlyphs"
text-anchor="middle" opacity="0">GP20</text>
</g>
<g class="stroked-text"><desc>GP20</desc>
<path d="M91.4755 36.9424
L91.3947 36.9693
" />
<path d="M91.3947 36.9693
L91.3139 37.0501
" />
<path d="M91.3139 37.0501
L91.2600 37.1579
" />
<path d="M91.2600 37.1579
L91.2600 37.2656
" />
<path d="M91.2600 37.2656
L91.2870 37.3464
" />
<path d="M91.2870 37.3464
L91.3678 37.4811
" />
<path d="M91.3678 37.4811
L91.4486 37.5619
" />
<path d="M91.4486 37.5619
L91.5833 37.6428
" />
<path d="M91.5833 37.6428
L91.6641 37.6697
" />
<path d="M91.6641 37.6697
L91.7718 37.6697
" />
<path d="M91.7718 37.6697
L91.8796 37.6158
" />
<path d="M91.8796 37.6158
L91.9334 37.5619
" />
<path d="M91.9334 37.5619
L91.9873 37.4542
" />
<path d="M91.9873 37.4542
L91.9873 37.4003
" />
<path d="M91.9873 37.4003
L91.7988 37.2118
" />
<path d="M91.7988 37.2118
L91.6910 37.3195
" />
<path d="M92.2836 37.2118
L91.7180 36.6461
" />
<path d="M91.7180 36.6461
L91.9334 36.4306
" />
<path d="M91.9334 36.4306
L92.0143 36.4036
" />
<path d="M92.0143 36.4036
L92.0681 36.4036
" />
<path d="M92.0681 36.4036
L92.1489 36.4306
" />
<path d="M92.1489 36.4306
L92.2298 36.5114
" />
<path d="M92.2298 36.5114
L92.2567 36.5922
" />
<path d="M92.2567 36.5922
L92.2567 36.6461
" />
<path d="M92.2567 36.6461
L92.2298 36.7269
" />
<path d="M92.2298 36.7269
L92.0143 36.9424
" />
<path d="M92.3106 36.1612
L92.3106 36.1073
" />
<path d="M92.3106 36.1073
L92.3375 36.0265
" />
<path d="M92.3375 36.0265
L92.4722 35.8918
" />
<path d="M92.4722 35.8918
L92.5530 35.8649
" />
<path d="M92.5530 35.8649
L92.6069 35.8649
" />
<path d="M92.6069 35.8649
L92.6877 35.8918
" />
<path d="M92.6877 35.8918
L92.7416 35.9457
" />
<path d="M92.7416 35.9457
L92.7954 36.0534
" />
<path d="M92.7954 36.0534
L92.7954 36.6999
" />
<path d="M92.7954 36.6999
L93.1456 36.3498
" />
<path d="M92.9301 35.4339
L92.9840 35.3800
" />
<path d="M92.9840 35.3800
L93.0648 35.3531
" />
<path d="M93.0648 35.3531
L93.1187 35.3531
" />
<path d="M93.1187 35.3531
L93.1995 35.3800
" />
<path d="M93.1995 35.3800
L93.3342 35.4608
" />
<path d="M93.3342 35.4608
L93.4689 35.5955
" />
<path d="M93.4689 35.5955
L93.5497 35.7302
" />
<path d="M93.5497 35.7302
L93.5766 35.8110
" />
<path d="M93.5766 35.8110
L93.5766 35.8649
" />
<path d="M93.5766 35.8649
L93.5497 35.9457
" />
<path d="M93.5497 35.9457
L93.4958 35.9996
" />
<path d="M93.4958 35.9996
L93.4150 36.0265
" />
<path d="M93.4150 36.0265
L93.3611 36.0265
" />
<path d="M93.3611 36.0265
L93.2803 35.9996
" />
<path d="M93.2803 35.9996
L93.1456 35.9188
" />
<path d="M93.1456 35.9188
L93.0109 35.7841
" />
<path d="M93.0109 35.7841
L92.9301 35.6494
" />
<path d="M92.9301 35.6494
L92.9032 35.5686
" />
<path d="M92.9032 35.5686
L92.9032 35.5147
" />
<path d="M92.9032 35.5147
L92.9301 35.4339
" />
</g><g transform="rotate(-45.000000 98.8900 61.3460)">
<text x="98.8900" y="61.7460"
textLength="2.5769" font-size="1.0667" lengthAdjust="spacingAndGlyphs"
text-anchor="middle" opacity="0">GP9</text>
</g>
<g class="stroked-text"><desc>GP9</desc>
<path d="M98.2089 61.4730
L98.1281 61.4999
" />
<path d="M98.1281 61.4999
L98.0473 61.5808
" />
<path d="M98.0473 61.5808
L97.9934 61.6885
" />
<path d="M97.9934 61.6885
L97.9934 61.7963
" />
<path d="M97.9934 61.7963
L98.0203 61.8771
" />
<path d="M98.0203 61.8771
L98.1011 62.0118
" />
<path d="M98.1011 62.0118
L98.1820 62.0926
" />
<path d="M98.1820 62.0926
L98.3166 62.1734
" />
<path d="M98.3166 62.1734
L98.3974 62.2003
" />
<path d="M98.3974 62.2003
L98.5052 62.2003
" />
<path d="M98.5052 62.2003
L98.6129 62.1464
" />
<path d="M98.6129 62.1464
L98.6668 62.0926
" />
<path d="M98.6668 62.0926
L98.7207 61.9848
" />
<path d="M98.7207 61.9848
L98.7207 61.9309
" />
<path d="M98.7207 61.9309
L98.5321 61.7424
" />
<path d="M98.5321 61.7424
L98.4244 61.8501
" />
<path d="M99.0170 61.7424
L98.4513 61.1767
" />
<path d="M98.4513 61.1767
L98.6668 60.9612
" />
<path d="M98.6668 60.9612
L98.7476 60.9343
" />
<path d="M98.7476 60.9343
L98.8015 60.9343
" />
<path d="M98.8015 60.9343
L98.8823 60.9612
" />
<path d="M98.8823 60.9612
L98.9631 61.0420
" />
<path d="M98.9631 61.0420
L98.9901 61.1228
" />
<path d="M98.9901 61.1228
L98.9901 61.1767
" />
<path d="M98.9901 61.1767
L98.9631 61.2575
" />
<path d="M98.9631 61.2575
L98.7476 61.4730
" />
<path d="M99.6096 61.1498
L99.7174 61.0420
" />
<path d="M99.7174 61.0420
L99.7443 60.9612
" />
<path d="M99.7443 60.9612
L99.7443 60.9073
" />
<path d="M99.7443 60.9073
L99.7174 60.7726
" />
<path d="M99.7174 60.7726
L99.6366 60.6379
" />
<path d="M99.6366 60.6379
L99.4211 60.4224
" />
<path d="M99.4211 60.4224
L99.3403 60.3955
" />
<path d="M99.3403 60.3955
L99.2864 60.3955
" />
<path d="M99.2864 60.3955
L99.2056 60.4224
" />
<path d="M99.2056 60.4224
L99.0978 60.5302
" />
<path d="M99.0978 60.5302
L99.0709 60.6110
" />
<path d="M99.0709 60.6110
L99.0709 60.6649
" />
<path d="M99.0709 60.6649
L99.0978 60.7457
" />
<path d="M99.0978 60.7457
L99.2325 60.8804
" />
<path d="M99.2325 60.8804
L99.3133 60.9073
" />
<path d="M99.3133 60.9073
L99.3672 60.9073
" />
<path d="M99.3672 60.9073
L99.4480 60.8804
" />
<path d="M99.4480 60.8804
L99.5558 60.7726
" />
<path d="M99.5558 60.7726
L99.5827 60.6918
" />
<path d="M99.5827 60.6918
L99.5827 60.6379
" />
<path d="M99.5827 60.6379
L99.5558 60.5571
" />
</g><g transform="rotate(-45.000000 93.8100 61.6000)">
<text x="93.8100" y="62.0000"
textLength="3.3388" font-size="1.0667" lengthAdjust="spacingAndGlyphs"
text-anchor="middle" opacity="0">GP10</text>
</g>
<g class="stroked-text"><desc>GP10</desc>
<path d="M92.8595 61.9964
L92.7787 62.0233
" />
<path d="M92.7787 62.0233
L92.6979 62.1041
" />
<path d="M92.6979 62.1041
L92.6440 62.2119
" />
<path d="M92.6440 62.2119
L92.6440 62.3196
" />
<path d="M92.6440 62.3196
L92.6710 62.4004
" />
<path d="M92.6710 62.4004
L92.7518 62.5351
" />
<path d="M92.7518 62.5351
L92.8326 62.6159
" />
<path d="M92.8326 62.6159
L92.9673 62.6968
" />
<path d="M92.9673 62.6968
L93.0481 62.7237
" />
<path d="M93.0481 62.7237
L93.1558 62.7237
" />
<path d="M93.1558 62.7237
L93.2636 62.6698
" />
<path d="M93.2636 62.6698
L93.3174 62.6159
" />
<path d="M93.3174 62.6159
L93.3713 62.5082
" />
<path d="M93.3713 62.5082
L93.3713 62.4543
" />
<path d="M93.3713 62.4543
L93.1828 62.2658
" />
<path d="M93.1828 62.2658
L93.0750 62.3735
" />
<path d="M93.6676 62.2658
L93.1020 61.7001
" />
<path d="M93.1020 61.7001
L93.3174 61.4846
" />
<path d="M93.3174 61.4846
L93.3983 61.4576
" />
<path d="M93.3983 61.4576
L93.4521 61.4576
" />
<path d="M93.4521 61.4576
L93.5329 61.4846
" />
<path d="M93.5329 61.4846
L93.6138 61.5654
" />
<path d="M93.6138 61.5654
L93.6407 61.6462
" />
<path d="M93.6407 61.6462
L93.6407 61.7001
" />
<path d="M93.6407 61.7001
L93.6138 61.7809
" />
<path d="M93.6138 61.7809
L93.3983 61.9964
" />
<path d="M94.5296 61.4038
L94.2064 61.7270
" />
<path d="M94.3680 61.5654
L93.8023 60.9997
" />
<path d="M93.8023 60.9997
L93.8293 61.1344
" />
<path d="M93.8293 61.1344
L93.8293 61.2421
" />
<path d="M93.8293 61.2421
L93.8023 61.3229
" />
<path d="M94.3141 60.4879
L94.3680 60.4340
" />
<path d="M94.3680 60.4340
L94.4488 60.4071
" />
<path d="M94.4488 60.4071
L94.5027 60.4071
" />
<path d="M94.5027 60.4071
L94.5835 60.4340
" />
<path d="M94.5835 60.4340
L94.7182 60.5148
" />
<path d="M94.7182 60.5148
L94.8529 60.6495
" />
<path d="M94.8529 60.6495
L94.9337 60.7842
" />
<path d="M94.9337 60.7842
L94.9606 60.8650
" />
<path d="M94.9606 60.8650
L94.9606 60.9189
" />
<path d="M94.9606 60.9189
L94.9337 60.9997
" />
<path d="M94.9337 60.9997
L94.8798 61.0536
" />
<path d="M94.8798 61.0536
L94.7990 61.0805
" />
<path d="M94.7990 61.0805
L94.7451 61.0805
" />
<path d="M94.7451 61.0805
L94.6643 61.0536
" />
<path d="M94.6643 61.0536
L94.5296 60.9728
" />
<path d="M94.5296 60.9728
L94.3949 60.8381
" />
<path d="M94.3949 60.8381
L94.3141 60.7034
" />
<path d="M94.3141 60.7034
L94.2872 60.6226
" />
<path d="M94.2872 60.6226
L94.2872 60.5687
" />
<path d="M94.2872 60.5687
L94.3141 60.4879
" />
</g><g transform="rotate(-45.000000 107.6560 36.5460)">
<text x="107.6560" y="36.9460"
textLength="3.3388" font-size="1.0667" lengthAdjust="spacingAndGlyphs"
text-anchor="middle" opacity="0">GP27</text>
</g>
<g class="stroked-text"><desc>GP27</desc>
<path d="M106.7055 36.9424
L106.6247 36.9693
" />
<path d="M106.6247 36.9693
L106.5439 37.0501
" />
<path d="M106.5439 37.0501
L106.4900 37.1579
" />
<path d="M106.4900 37.1579
L106.4900 37.2656
" />
<path d="M106.4900 37.2656
L106.5170 37.3464
" />
<path d="M106.5170 37.3464
L106.5978 37.4811
" />
<path d="M106.5978 37.4811
L106.6786 37.5619
" />
<path d="M106.6786 37.5619
L106.8133 37.6428
" />
<path d="M106.8133 37.6428
L106.8941 37.6697
" />
<path d="M106.8941 37.6697
L107.0018 37.6697
" />
<path d="M107.0018 37.6697
L107.1096 37.6158
" />
<path d="M107.1096 37.6158
L107.1634 37.5619
" />
<path d="M107.1634 37.5619
L107.2173 37.4542
" />
<path d="M107.2173 37.4542
L107.2173 37.4003
" />
<path d="M107.2173 37.4003
L107.0288 37.2118
" />
<path d="M107.0288 37.2118
L106.9210 37.3195
" />
<path d="M107.5136 37.2118
L106.9479 36.6461
" />
<path d="M106.9479 36.6461
L107.1634 36.4306
" />
<path d="M107.1634 36.4306
L107.2443 36.4036
" />
<path d="M107.2443 36.4036
L107.2981 36.4036
" />
<path d="M107.2981 36.4036
L107.3789 36.4306
" />
<path d="M107.3789 36.4306
L107.4598 36.5114
" />
<path d="M107.4598 36.5114
L107.4867 36.5922
" />
<path d="M107.4867 36.5922
L107.4867 36.6461
" />
<path d="M107.4867 36.6461
L107.4598 36.7269
" />
<path d="M107.4598 36.7269
L107.2443 36.9424
" />
<path d="M107.5406 36.1612
L107.5406 36.1073
" />
<path d="M107.5406 36.1073
L107.5675 36.0265
" />
<path d="M107.5675 36.0265
L107.7022 35.8918
" />
<path d="M107.7022 35.8918
L107.7830 35.8649
" />
<path d="M107.7830 35.8649
L107.8369 35.8649
" />
<path d="M107.8369 35.8649
L107.9177 35.8918
" />
<path d="M107.9177 35.8918
L107.9716 35.9457
" />
<path d="M107.9716 35.9457
L108.0254 36.0534
" />
<path d="M108.0254 36.0534
L108.0254 36.6999
" />
<path d="M108.0254 36.6999
L108.3756 36.3498
" />
<path d="M107.9985 35.5955
L108.3756 35.2184
" />
<path d="M108.3756 35.2184
L108.6989 36.0265
" />
</g><g transform="rotate(-45.000000 101.4300 61.3460)">
<text x="101.4300" y="61.7460"
textLength="2.5769" font-size="1.0667" lengthAdjust="spacingAndGlyphs"
text-anchor="middle" opacity="0">GP8</text>
</g>
<g class="stroked-text"><desc>GP8</desc>
<path d="M100.7489 61.4730
L100.6681 61.4999
" />
<path d="M100.6681 61.4999
L100.5873 61.5808
" />
<path d="M100.5873 61.5808
L100.5334 61.6885
" />
<path d="M100.5334 61.6885
L100.5334 61.7963
" />
<path d="M100.5334 61.7963
L100.5603 61.8771
" />
<path d="M100.5603 61.8771
L100.6411 62.0118
" />
<path d="M100.6411 62.0118
L100.7219 62.0926
" />
<path d="M100.7219 62.0926
L100.8566 62.1734
" />
<path d="M100.8566 62.1734
L100.9374 62.2003
" />
<path d="M100.9374 62.2003
L101.0452 62.2003
" />
<path d="M101.0452 62.2003
L101.1529 62.1464
" />
<path d="M101.1529 62.1464
L101.2068 62.0926
" />
<path d="M101.2068 62.0926
L101.2607 61.9848
" />
<path d="M101.2607 61.9848
L101.2607 61.9309
" />
<path d="M101.2607 61.9309
L101.0721 61.7424
" />
<path d="M101.0721 61.7424
L100.9644 61.8501
" />
<path d="M101.5570 61.7424
L100.9913 61.1767
" />
<path d="M100.9913 61.1767
L101.2068 60.9612
" />
<path d="M101.2068 60.9612
L101.2876 60.9343
" />
<path d="M101.2876 60.9343
L101.3415 60.9343
" />
<path d="M101.3415 60.9343
L101.4223 60.9612
" />
<path d="M101.4223 60.9612
L101.5031 61.0420
" />
<path d="M101.5031 61.0420
L101.5301 61.1228
" />
<path d="M101.5301 61.1228
L101.5301 61.1767
" />
<path d="M101.5301 61.1767
L101.5031 61.2575
" />
<path d="M101.5031 61.2575
L101.2876 61.4730
" />
<path d="M101.8803 60.7726
L101.7994 60.7996
" />
<path d="M101.7994 60.7996
L101.7456 60.7996
" />
<path d="M101.7456 60.7996
L101.6648 60.7726
" />
<path d="M101.6648 60.7726
L101.6378 60.7457
" />
<path d="M101.6378 60.7457
L101.6109 60.6649
" />
<path d="M101.6109 60.6649
L101.6109 60.6110
" />
<path d="M101.6109 60.6110
L101.6378 60.5302
" />
<path d="M101.6378 60.5302
L101.7456 60.4224
" />
<path d="M101.7456 60.4224
L101.8264 60.3955
" />
<path d="M101.8264 60.3955
L101.8803 60.3955
" />
<path d="M101.8803 60.3955
L101.9611 60.4224
" />
<path d="M101.9611 60.4224
L101.9880 60.4494
" />
<path d="M101.9880 60.4494
L102.0149 60.5302
" />
<path d="M102.0149 60.5302
L102.0149 60.5841
" />
<path d="M102.0149 60.5841
L101.9880 60.6649
" />
<path d="M101.9880 60.6649
L101.8803 60.7726
" />
<path d="M101.8803 60.7726
L101.8533 60.8534
" />
<path d="M101.8533 60.8534
L101.8533 60.9073
" />
<path d="M101.8533 60.9073
L101.8803 60.9881
" />
<path d="M101.8803 60.9881
L101.9880 61.0959
" />
<path d="M101.9880 61.0959
L102.0688 61.1228
" />
<path d="M102.0688 61.1228
L102.1227 61.1228
" />
<path d="M102.1227 61.1228
L102.2035 61.0959
" />
<path d="M102.2035 61.0959
L102.3113 60.9881
" />
<path d="M102.3113 60.9881
L102.3382 60.9073
" />
<path d="M102.3382 60.9073
L102.3382 60.8534
" />
<path d="M102.3382 60.8534
L102.3113 60.7726
" />
<path d="M102.3113 60.7726
L102.2035 60.6649
" />
<path d="M102.2035 60.6649
L102.1227 60.6379
" />
<path d="M102.1227 60.6379
L102.0688 60.6379
" />
<path d="M102.0688 60.6379
L101.9880 60.6649
" />
</g><g transform="rotate(-45.000000 111.5900 61.3460)">
<text x="111.5900" y="61.7460"
textLength="2.5769" font-size="1.0667" lengthAdjust="spacingAndGlyphs"
text-anchor="middle" opacity="0">GP5</text>
</g>
<g class="stroked-text"><desc>GP5</desc>
<path d="M110.9089 61.4730
L110.8281 61.4999
" />
<path d="M110.8281 61.4999
L110.7473 61.5808
" />
<path d="M110.7473 61.5808
L110.6934 61.6885
" />
<path d="M110.6934 61.6885
L110.6934 61.7963
" />
<path d="M110.6934 61.7963
L110.7203 61.8771
" />
<path d="M110.7203 61.8771
L110.8011 62.0118
" />
<path d="M110.8011 62.0118
L110.8819 62.0926
" />
<path d="M110.8819 62.0926
L111.0166 62.1734
" />
<path d="M111.0166 62.1734
L111.0974 62.2003
" />
<path d="M111.0974 62.2003
L111.2052 62.2003
" />
<path d="M111.2052 62.2003
L111.3129 62.1464
" />
<path d="M111.3129 62.1464
L111.3668 62.0926
" />
<path d="M111.3668 62.0926
L111.4207 61.9848
" />
<path d="M111.4207 61.9848
L111.4207 61.9309
" />
<path d="M111.4207 61.9309
L111.2321 61.7424
" />
<path d="M111.2321 61.7424
L111.1244 61.8501
" />
<path d="M111.7170 61.7424
L111.1513 61.1767
" />
<path d="M111.1513 61.1767
L111.3668 60.9612
" />
<path d="M111.3668 60.9612
L111.4476 60.9343
" />
<path d="M111.4476 60.9343
L111.5015 60.9343
" />
<path d="M111.5015 60.9343
L111.5823 60.9612
" />
<path d="M111.5823 60.9612
L111.6631 61.0420
" />
<path d="M111.6631 61.0420
L111.6901 61.1228
" />
<path d="M111.6901 61.1228
L111.6901 61.1767
" />
<path d="M111.6901 61.1767
L111.6631 61.2575
" />
<path d="M111.6631 61.2575
L111.4476 61.4730
" />
<path d="M111.9864 60.3416
L111.7170 60.6110
" />
<path d="M111.7170 60.6110
L111.9594 60.9073
" />
<path d="M111.9594 60.9073
L111.9594 60.8534
" />
<path d="M111.9594 60.8534
L111.9864 60.7726
" />
<path d="M111.9864 60.7726
L112.1211 60.6379
" />
<path d="M112.1211 60.6379
L112.2019 60.6110
" />
<path d="M112.2019 60.6110
L112.2558 60.6110
" />
<path d="M112.2558 60.6110
L112.3366 60.6379
" />
<path d="M112.3366 60.6379
L112.4713 60.7726
" />
<path d="M112.4713 60.7726
L112.4982 60.8534
" />
<path d="M112.4982 60.8534
L112.4982 60.9073
" />
<path d="M112.4982 60.9073
L112.4713 60.9881
" />
<path d="M112.4713 60.9881
L112.3366 61.1228
" />
<path d="M112.3366 61.1228
L112.2558 61.1498
" />
<path d="M112.2558 61.1498
L112.2019 61.1498
" />
</g><g transform="rotate(-45.000000 116.3560 35.6000)">
<text x="116.3560" y="36.0000"
textLength="6.0055" font-size="1.0667" lengthAdjust="spacingAndGlyphs"
text-anchor="middle" opacity="0">ADC_VREF</text>
</g>
<g class="stroked-text"><desc>ADC_VREF</desc>
<path d="M114.5166 37.6396
L114.7860 37.3702
" />
<path d="M114.6243 37.8551
L114.2472 37.1008
" />
<path d="M114.2472 37.1008
L115.0015 37.4779
" />
<path d="M115.1900 37.2894
L114.6243 36.7237
" />
<path d="M114.6243 36.7237
L114.7590 36.5890
" />
<path d="M114.7590 36.5890
L114.8668 36.5351
" />
<path d="M114.8668 36.5351
L114.9745 36.5351
" />
<path d="M114.9745 36.5351
L115.0553 36.5621
" />
<path d="M115.0553 36.5621
L115.1900 36.6429
" />
<path d="M115.1900 36.6429
L115.2708 36.7237
" />
<path d="M115.2708 36.7237
L115.3516 36.8584
" />
<path d="M115.3516 36.8584
L115.3786 36.9392
" />
<path d="M115.3786 36.9392
L115.3786 37.0469
" />
<path d="M115.3786 37.0469
L115.3247 37.1547
" />
<path d="M115.3247 37.1547
L115.1900 37.2894
" />
<path d="M116.0251 36.3466
L116.0251 36.4004
" />
<path d="M116.0251 36.4004
L115.9712 36.5082
" />
<path d="M115.9712 36.5082
L115.9173 36.5621
" />
<path d="M115.9173 36.5621
L115.8096 36.6159
" />
<path d="M115.8096 36.6159
L115.7018 36.6159
" />
<path d="M115.7018 36.6159
L115.6210 36.5890
" />
<path d="M115.6210 36.5890
L115.4863 36.5082
" />
<path d="M115.4863 36.5082
L115.4055 36.4274
" />
<path d="M115.4055 36.4274
L115.3247 36.2927
" />
<path d="M115.3247 36.2927
L115.2978 36.2119
" />
<path d="M115.2978 36.2119
L115.2978 36.1041
" />
<path d="M115.2978 36.1041
L115.3516 35.9964
" />
<path d="M115.3516 35.9964
L115.4055 35.9425
" />
<path d="M115.4055 35.9425
L115.5133 35.8886
" />
<path d="M115.5133 35.8886
L115.5671 35.8886
" />
<path d="M116.2406 36.3466
L116.6716 35.9156
" />
<path d="M116.1059 35.2421
L116.8601 35.6193
" />
<path d="M116.8601 35.6193
L116.4830 34.8650
" />
<path d="M117.5605 34.9189
L117.1026 34.8381
" />
<path d="M117.2373 35.2421
L116.6716 34.6765
" />
<path d="M116.6716 34.6765
L116.8871 34.4610
" />
<path d="M116.8871 34.4610
L116.9679 34.4340
" />
<path d="M116.9679 34.4340
L117.0218 34.4340
" />
<path d="M117.0218 34.4340
L117.1026 34.4610
" />
<path d="M117.1026 34.4610
L117.1834 34.5418
" />
<path d="M117.1834 34.5418
L117.2103 34.6226
" />
<path d="M117.2103 34.6226
L117.2103 34.6765
" />
<path d="M117.2103 34.6765
L117.1834 34.7573
" />
<path d="M117.1834 34.7573
L116.9679 34.9728
" />
<path d="M117.5066 34.3801
L117.6952 34.1916
" />
<path d="M118.0723 34.4071
L117.8029 34.6765
" />
<path d="M117.8029 34.6765
L117.2373 34.1108
" />
<path d="M117.2373 34.1108
L117.5066 33.8414
" />
<path d="M118.2070 33.6798
L118.0184 33.8683
" />
<path d="M118.3148 34.1646
L117.7491 33.5990
" />
<path d="M117.7491 33.5990
L118.0184 33.3296
" />
</g><g transform="rotate(-45.000000 78.5700 61.6000)">
<text x="78.5700" y="62.0000"
textLength="3.3388" font-size="1.0667" lengthAdjust="spacingAndGlyphs"
text-anchor="middle" opacity="0">GP15</text>
</g>
<g class="stroked-text"><desc>GP15</desc>
<path d="M77.6195 61.9964
L77.5387 62.0233
" />
<path d="M77.5387 62.0233
L77.4579 62.1041
" />
<path d="M77.4579 62.1041
L77.4040 62.2119
" />
<path d="M77.4040 62.2119
L77.4040 62.3196
" />
<path d="M77.4040 62.3196
L77.4310 62.4004
" />
<path d="M77.4310 62.4004
L77.5118 62.5351
" />
<path d="M77.5118 62.5351
L77.5926 62.6159
" />
<path d="M77.5926 62.6159
L77.7273 62.6968
" />
<path d="M77.7273 62.6968
L77.8081 62.7237
" />
<path d="M77.8081 62.7237
L77.9158 62.7237
" />
<path d="M77.9158 62.7237
L78.0236 62.6698
" />
<path d="M78.0236 62.6698
L78.0774 62.6159
" />
<path d="M78.0774 62.6159
L78.1313 62.5082
" />
<path d="M78.1313 62.5082
L78.1313 62.4543
" />
<path d="M78.1313 62.4543
L77.9428 62.2658
" />
<path d="M77.9428 62.2658
L77.8350 62.3735
" />
<path d="M78.4276 62.2658
L77.8619 61.7001
" />
<path d="M77.8619 61.7001
L78.0774 61.4846
" />
<path d="M78.0774 61.4846
L78.1583 61.4576
" />
<path d="M78.1583 61.4576
L78.2121 61.4576
" />
<path d="M78.2121 61.4576
L78.2929 61.4846
" />
<path d="M78.2929 61.4846
L78.3738 61.5654
" />
<path d="M78.3738 61.5654
L78.4007 61.6462
" />
<path d="M78.4007 61.6462
L78.4007 61.7001
" />
<path d="M78.4007 61.7001
L78.3738 61.7809
" />
<path d="M78.3738 61.7809
L78.1583 61.9964
" />
<path d="M79.2896 61.4038
L78.9664 61.7270
" />
<path d="M79.1280 61.5654
L78.5623 60.9997
" />
<path d="M78.5623 60.9997
L78.5893 61.1344
" />
<path d="M78.5893 61.1344
L78.5893 61.2421
" />
<path d="M78.5893 61.2421
L78.5623 61.3229
" />
<path d="M79.2358 60.3263
L78.9664 60.5956
" />
<path d="M78.9664 60.5956
L79.2088 60.8919
" />
<path d="M79.2088 60.8919
L79.2088 60.8381
" />
<path d="M79.2088 60.8381
L79.2358 60.7573
" />
<path d="M79.2358 60.7573
L79.3704 60.6226
" />
<path d="M79.3704 60.6226
L79.4513 60.5956
" />
<path d="M79.4513 60.5956
L79.5051 60.5956
" />
<path d="M79.5051 60.5956
L79.5859 60.6226
" />
<path d="M79.5859 60.6226
L79.7206 60.7573
" />
<path d="M79.7206 60.7573
L79.7476 60.8381
" />
<path d="M79.7476 60.8381
L79.7476 60.8919
" />
<path d="M79.7476 60.8919
L79.7206 60.9728
" />
<path d="M79.7206 60.9728
L79.5859 61.1074
" />
<path d="M79.5859 61.1074
L79.5051 61.1344
" />
<path d="M79.5051 61.1344
L79.4513 61.1344
" />
</g><g transform="rotate(-45.000000 125.4460 36.4000)">
<text x="125.4460" y="36.8000"
textLength="3.1102" font-size="1.0667" lengthAdjust="spacingAndGlyphs"
text-anchor="middle" opacity="0">VSYS</text>
</g>
<g class="stroked-text"><desc>VSYS</desc>
<path d="M124.1723 37.0658
L124.9265 37.4429
" />
<path d="M124.9265 37.4429
L124.5494 36.6886
" />
<path d="M125.2498 37.0658
L125.3575 37.0119
" />
<path d="M125.3575 37.0119
L125.4922 36.8772
" />
<path d="M125.4922 36.8772
L125.5191 36.7964
" />
<path d="M125.5191 36.7964
L125.5191 36.7425
" />
<path d="M125.5191 36.7425
L125.4922 36.6617
" />
<path d="M125.4922 36.6617
L125.4383 36.6078
" />
<path d="M125.4383 36.6078
L125.3575 36.5809
" />
<path d="M125.3575 36.5809
L125.3036 36.5809
" />
<path d="M125.3036 36.5809
L125.2228 36.6078
" />
<path d="M125.2228 36.6078
L125.0881 36.6886
" />
<path d="M125.0881 36.6886
L125.0073 36.7156
" />
<path d="M125.0073 36.7156
L124.9534 36.7156
" />
<path d="M124.9534 36.7156
L124.8726 36.6886
" />
<path d="M124.8726 36.6886
L124.8188 36.6348
" />
<path d="M124.8188 36.6348
L124.7918 36.5539
" />
<path d="M124.7918 36.5539
L124.7918 36.5001
" />
<path d="M124.7918 36.5001
L124.8188 36.4193
" />
<path d="M124.8188 36.4193
L124.9534 36.2846
" />
<path d="M124.9534 36.2846
L125.0612 36.2307
" />
<path d="M125.6808 36.1499
L125.9501 36.4193
" />
<path d="M125.1959 36.0421
L125.6808 36.1499
" />
<path d="M125.6808 36.1499
L125.5730 35.6650
" />
<path d="M126.2734 36.0421
L126.3811 35.9883
" />
<path d="M126.3811 35.9883
L126.5158 35.8536
" />
<path d="M126.5158 35.8536
L126.5428 35.7728
" />
<path d="M126.5428 35.7728
L126.5428 35.7189
" />
<path d="M126.5428 35.7189
L126.5158 35.6381
" />
<path d="M126.5158 35.6381
L126.4619 35.5842
" />
<path d="M126.4619 35.5842
L126.3811 35.5573
" />
<path d="M126.3811 35.5573
L126.3273 35.5573
" />
<path d="M126.3273 35.5573
L126.2464 35.5842
" />
<path d="M126.2464 35.5842
L126.1118 35.6650
" />
<path d="M126.1118 35.6650
L126.0309 35.6919
" />
<path d="M126.0309 35.6919
L125.9771 35.6919
" />
<path d="M125.9771 35.6919
L125.8963 35.6650
" />
<path d="M125.8963 35.6650
L125.8424 35.6111
" />
<path d="M125.8424 35.6111
L125.8154 35.5303
" />
<path d="M125.8154 35.5303
L125.8154 35.4765
" />
<path d="M125.8154 35.4765
L125.8424 35.3956
" />
<path d="M125.8424 35.3956
L125.9771 35.2610
" />
<path d="M125.9771 35.2610
L126.0848 35.2071
" />
</g><g transform="rotate(-90.000000 76.8000 43.4000)">
<text x="76.8000" y="43.8000"
textLength="3.9102" font-size="1.0667" lengthAdjust="spacingAndGlyphs"
text-anchor="middle" opacity="0">SWDIO</text>
</g>
<g class="stroked-text"><desc>SWDIO</desc>
<path d="M77.1320 45.0952
L77.1701 44.9810
" />
<path d="M77.1701 44.9810
L77.1701 44.7905
" />
<path d="M77.1701 44.7905
L77.1320 44.7143
" />
<path d="M77.1320 44.7143
L77.0939 44.6762
" />
<path d="M77.0939 44.6762
L77.0177 44.6381
" />
<path d="M77.0177 44.6381
L76.9415 44.6381
" />
<path d="M76.9415 44.6381
L76.8653 44.6762
" />
<path d="M76.8653 44.6762
L76.8272 44.7143
" />
<path d="M76.8272 44.7143
L76.7891 44.7905
" />
<path d="M76.7891 44.7905
L76.7510 44.9429
" />
<path d="M76.7510 44.9429
L76.7130 45.0190
" />
<path d="M76.7130 45.0190
L76.6749 45.0571
" />
<path d="M76.6749 45.0571
L76.5987 45.0952
" />
<path d="M76.5987 45.0952
L76.5225 45.0952
" />
<path d="M76.5225 45.0952
L76.4463 45.0571
" />
<path d="M76.4463 45.0571
L76.4082 45.0190
" />
<path d="M76.4082 45.0190
L76.3701 44.9429
" />
<path d="M76.3701 44.9429
L76.3701 44.7524
" />
<path d="M76.3701 44.7524
L76.4082 44.6381
" />
<path d="M76.3701 44.3714
L77.1701 44.1810
" />
<path d="M77.1701 44.1810
L76.5987 44.0286
" />
<path d="M76.5987 44.0286
L77.1701 43.8762
" />
<path d="M77.1701 43.8762
L76.3701 43.6857
" />
<path d="M77.1701 43.3810
L76.3701 43.3810
" />
<path d="M76.3701 43.3810
L76.3701 43.1905
" />
<path d="M76.3701 43.1905
L76.4082 43.0762
" />
<path d="M76.4082 43.0762
L76.4844 43.0000
" />
<path d="M76.4844 43.0000
L76.5606 42.9619
" />
<path d="M76.5606 42.9619
L76.7130 42.9238
" />
<path d="M76.7130 42.9238
L76.8272 42.9238
" />
<path d="M76.8272 42.9238
L76.9796 42.9619
" />
<path d="M76.9796 42.9619
L77.0558 43.0000
" />
<path d="M77.0558 43.0000
L77.1320 43.0762
" />
<path d="M77.1320 43.0762
L77.1701 43.1905
" />
<path d="M77.1701 43.1905
L77.1701 43.3810
" />
<path d="M77.1701 42.5810
L76.3701 42.5810
" />
<path d="M76.3701 42.0476
L76.3701 41.8952
" />
<path d="M76.3701 41.8952
L76.4082 41.8190
" />
<path d="M76.4082 41.8190
L76.4844 41.7429
" />
<path d="M76.4844 41.7429
L76.6368 41.7048
" />
<path d="M76.6368 41.7048
L76.9034 41.7048
" />
<path d="M76.9034 41.7048
L77.0558 41.7429
" />
<path d="M77.0558 41.7429
L77.1320 41.8190
" />
<path d="M77.1320 41.8190
L77.1701 41.8952
" />
<path d="M77.1701 41.8952
L77.1701 42.0476
" />
<path d="M77.1701 42.0476
L77.1320 42.1238
" />
<path d="M77.1320 42.1238
L77.0558 42.2000
" />
<path d="M77.0558 42.2000
L76.9034 42.2381
" />
<path d="M76.9034 42.2381
L76.6368 42.2381
" />
<path d="M76.6368 42.2381
L76.4844 42.2000
" />
<path d="M76.4844 42.2000
L76.4082 42.1238
" />
<path d="M76.4082 42.1238
L76.3701 42.0476
" />
</g><g transform="rotate(-45.000000 105.1260 36.5460)">
<text x="105.1260" y="36.9460"
textLength="3.3388" font-size="1.0667" lengthAdjust="spacingAndGlyphs"
text-anchor="middle" opacity="0">GP26</text>
</g>
<g class="stroked-text"><desc>GP26</desc>
<path d="M104.1755 36.9424
L104.0947 36.9693
" />
<path d="M104.0947 36.9693
L104.0139 37.0501
" />
<path d="M104.0139 37.0501
L103.9600 37.1579
" />
<path d="M103.9600 37.1579
L103.9600 37.2656
" />
<path d="M103.9600 37.2656
L103.9870 37.3464
" />
<path d="M103.9870 37.3464
L104.0678 37.4811
" />
<path d="M104.0678 37.4811
L104.1486 37.5619
" />
<path d="M104.1486 37.5619
L104.2833 37.6428
" />
<path d="M104.2833 37.6428
L104.3641 37.6697
" />
<path d="M104.3641 37.6697
L104.4718 37.6697
" />
<path d="M104.4718 37.6697
L104.5796 37.6158
" />
<path d="M104.5796 37.6158
L104.6334 37.5619
" />
<path d="M104.6334 37.5619
L104.6873 37.4542
" />
<path d="M104.6873 37.4542
L104.6873 37.4003
" />
<path d="M104.6873 37.4003
L104.4988 37.2118
" />
<path d="M104.4988 37.2118
L104.3910 37.3195
" />
<path d="M104.9836 37.2118
L104.4179 36.6461
" />
<path d="M104.4179 36.6461
L104.6334 36.4306
" />
<path d="M104.6334 36.4306
L104.7143 36.4036
" />
<path d="M104.7143 36.4036
L104.7681 36.4036
" />
<path d="M104.7681 36.4036
L104.8489 36.4306
" />
<path d="M104.8489 36.4306
L104.9298 36.5114
" />
<path d="M104.9298 36.5114
L104.9567 36.5922
" />
<path d="M104.9567 36.5922
L104.9567 36.6461
" />
<path d="M104.9567 36.6461
L104.9298 36.7269
" />
<path d="M104.9298 36.7269
L104.7143 36.9424
" />
<path d="M105.0106 36.1612
L105.0106 36.1073
" />
<path d="M105.0106 36.1073
L105.0375 36.0265
" />
<path d="M105.0375 36.0265
L105.1722 35.8918
" />
<path d="M105.1722 35.8918
L105.2530 35.8649
" />
<path d="M105.2530 35.8649
L105.3069 35.8649
" />
<path d="M105.3069 35.8649
L105.3877 35.8918
" />
<path d="M105.3877 35.8918
L105.4416 35.9457
" />
<path d="M105.4416 35.9457
L105.4954 36.0534
" />
<path d="M105.4954 36.0534
L105.4954 36.6999
" />
<path d="M105.4954 36.6999
L105.8456 36.3498
" />
<path d="M105.7648 35.2992
L105.6571 35.4070
" />
<path d="M105.6571 35.4070
L105.6301 35.4878
" />
<path d="M105.6301 35.4878
L105.6301 35.5416
" />
<path d="M105.6301 35.5416
L105.6571 35.6763
" />
<path d="M105.6571 35.6763
L105.7379 35.8110
" />
<path d="M105.7379 35.8110
L105.9534 36.0265
" />
<path d="M105.9534 36.0265
L106.0342 36.0534
" />
<path d="M106.0342 36.0534
L106.0881 36.0534
" />
<path d="M106.0881 36.0534
L106.1689 36.0265
" />
<path d="M106.1689 36.0265
L106.2766 35.9188
" />
<path d="M106.2766 35.9188
L106.3036 35.8379
" />
<path d="M106.3036 35.8379
L106.3036 35.7841
" />
<path d="M106.3036 35.7841
L106.2766 35.7033
" />
<path d="M106.2766 35.7033
L106.1419 35.5686
" />
<path d="M106.1419 35.5686
L106.0611 35.5416
" />
<path d="M106.0611 35.5416
L106.0073 35.5416
" />
<path d="M106.0073 35.5416
L105.9264 35.5686
" />
<path d="M105.9264 35.5686
L105.8187 35.6763
" />
<path d="M105.8187 35.6763
L105.7918 35.7571
" />
<path d="M105.7918 35.7571
L105.7918 35.8110
" />
<path d="M105.7918 35.8110
L105.8187 35.8918
" />
</g><g transform="rotate(-45.000000 109.0500 61.3460)">
<text x="109.0500" y="61.7460"
textLength="2.6531" font-size="1.0667" lengthAdjust="spacingAndGlyphs"
text-anchor="middle" opacity="0">GND</text>
</g>
<g class="stroked-text"><desc>GND</desc>
<path d="M108.3419 61.4999
L108.2611 61.5269
" />
<path d="M108.2611 61.5269
L108.1803 61.6077
" />
<path d="M108.1803 61.6077
L108.1265 61.7154
" />
<path d="M108.1265 61.7154
L108.1265 61.8232
" />
<path d="M108.1265 61.8232
L108.1534 61.9040
" />
<path d="M108.1534 61.9040
L108.2342 62.0387
" />
<path d="M108.2342 62.0387
L108.3150 62.1195
" />
<path d="M108.3150 62.1195
L108.4497 62.2003
" />
<path d="M108.4497 62.2003
L108.5305 62.2273
" />
<path d="M108.5305 62.2273
L108.6383 62.2273
" />
<path d="M108.6383 62.2273
L108.7460 62.1734
" />
<path d="M108.7460 62.1734
L108.7999 62.1195
" />
<path d="M108.7999 62.1195
L108.8538 62.0118
" />
<path d="M108.8538 62.0118
L108.8538 61.9579
" />
<path d="M108.8538 61.9579
L108.6652 61.7693
" />
<path d="M108.6652 61.7693
L108.5574 61.8771
" />
<path d="M109.1501 61.7693
L108.5844 61.2036
" />
<path d="M108.5844 61.2036
L109.4733 61.4461
" />
<path d="M109.4733 61.4461
L108.9076 60.8804
" />
<path d="M109.7427 61.1767
L109.1770 60.6110
" />
<path d="M109.1770 60.6110
L109.3117 60.4763
" />
<path d="M109.3117 60.4763
L109.4194 60.4224
" />
<path d="M109.4194 60.4224
L109.5272 60.4224
" />
<path d="M109.5272 60.4224
L109.6080 60.4494
" />
<path d="M109.6080 60.4494
L109.7427 60.5302
" />
<path d="M109.7427 60.5302
L109.8235 60.6110
" />
<path d="M109.8235 60.6110
L109.9043 60.7457
" />
<path d="M109.9043 60.7457
L109.9313 60.8265
" />
<path d="M109.9313 60.8265
L109.9313 60.9343
" />
<path d="M109.9313 60.9343
L109.8774 61.0420
" />
<path d="M109.8774 61.0420
L109.7427 61.1767
" />
</g><g transform="rotate(-45.000000 128.0560 36.3000)">
<text x="128.0560" y="36.7000"
textLength="3.3007" font-size="1.0667" lengthAdjust="spacingAndGlyphs"
text-anchor="middle" opacity="0">VBUS</text>
</g>
<g class="stroked-text"><desc>VBUS</desc>
<path d="M126.7149 37.0331
L127.4692 37.4102
" />
<path d="M127.4692 37.4102
L127.0920 36.6560
" />
<path d="M127.7385 36.5482
L127.8463 36.4944
" />
<path d="M127.8463 36.4944
L127.9002 36.4944
" />
<path d="M127.9002 36.4944
L127.9810 36.5213
" />
<path d="M127.9810 36.5213
L128.0618 36.6021
" />
<path d="M128.0618 36.6021
L128.0887 36.6829
" />
<path d="M128.0887 36.6829
L128.0887 36.7368
" />
<path d="M128.0887 36.7368
L128.0618 36.8176
" />
<path d="M128.0618 36.8176
L127.8463 37.0331
" />
<path d="M127.8463 37.0331
L127.2806 36.4674
" />
<path d="M127.2806 36.4674
L127.4692 36.2789
" />
<path d="M127.4692 36.2789
L127.5500 36.2519
" />
<path d="M127.5500 36.2519
L127.6039 36.2519
" />
<path d="M127.6039 36.2519
L127.6847 36.2789
" />
<path d="M127.6847 36.2789
L127.7385 36.3327
" />
<path d="M127.7385 36.3327
L127.7655 36.4135
" />
<path d="M127.7655 36.4135
L127.7655 36.4674
" />
<path d="M127.7655 36.4674
L127.7385 36.5482
" />
<path d="M127.7385 36.5482
L127.5500 36.7368
" />
<path d="M127.8463 35.9017
L128.3042 36.3597
" />
<path d="M128.3042 36.3597
L128.3850 36.3866
" />
<path d="M128.3850 36.3866
L128.4389 36.3866
" />
<path d="M128.4389 36.3866
L128.5197 36.3597
" />
<path d="M128.5197 36.3597
L128.6275 36.2519
" />
<path d="M128.6275 36.2519
L128.6544 36.1711
" />
<path d="M128.6544 36.1711
L128.6544 36.1172
" />
<path d="M128.6544 36.1172
L128.6275 36.0364
" />
<path d="M128.6275 36.0364
L128.1695 35.5785
" />
<path d="M128.9507 35.8748
L129.0585 35.8209
" />
<path d="M129.0585 35.8209
L129.1932 35.6862
" />
<path d="M129.1932 35.6862
L129.2201 35.6054
" />
<path d="M129.2201 35.6054
L129.2201 35.5515
" />
<path d="M129.2201 35.5515
L129.1932 35.4707
" />
<path d="M129.1932 35.4707
L129.1393 35.4169
" />
<path d="M129.1393 35.4169
L129.0585 35.3899
" />
<path d="M129.0585 35.3899
L129.0046 35.3899
" />
<path d="M129.0046 35.3899
L128.9238 35.4169
" />
<path d="M128.9238 35.4169
L128.7891 35.4977
" />
<path d="M128.7891 35.4977
L128.7083 35.5246
" />
<path d="M128.7083 35.5246
L128.6544 35.5246
" />
<path d="M128.6544 35.5246
L128.5736 35.4977
" />
<path d="M128.5736 35.4977
L128.5197 35.4438
" />
<path d="M128.5197 35.4438
L128.4928 35.3630
" />
<path d="M128.4928 35.3630
L128.4928 35.3091
" />
<path d="M128.4928 35.3091
L128.5197 35.2283
" />
<path d="M128.5197 35.2283
L128.6544 35.0936
" />
<path d="M128.6544 35.0936
L128.7622 35.0397
" />
</g><g transform="rotate(-45.000000 86.1900 61.6000)">
<text x="86.1900" y="62.0000"
textLength="3.3388" font-size="1.0667" lengthAdjust="spacingAndGlyphs"
text-anchor="middle" opacity="0">GP13</text>
</g>
<g class="stroked-text"><desc>GP13</desc>
<path d="M85.2395 61.9964
L85.1587 62.0233
" />
<path d="M85.1587 62.0233
L85.0779 62.1041
" />
<path d="M85.0779 62.1041
L85.0240 62.2119
" />
<path d="M85.0240 62.2119
L85.0240 62.3196
" />
<path d="M85.0240 62.3196
L85.0510 62.4004
" />
<path d="M85.0510 62.4004
L85.1318 62.5351
" />
<path d="M85.1318 62.5351
L85.2126 62.6159
" />
<path d="M85.2126 62.6159
L85.3473 62.6968
" />
<path d="M85.3473 62.6968
L85.4281 62.7237
" />
<path d="M85.4281 62.7237
L85.5358 62.7237
" />
<path d="M85.5358 62.7237
L85.6436 62.6698
" />
<path d="M85.6436 62.6698
L85.6974 62.6159
" />
<path d="M85.6974 62.6159
L85.7513 62.5082
" />
<path d="M85.7513 62.5082
L85.7513 62.4543
" />
<path d="M85.7513 62.4543
L85.5628 62.2658
" />
<path d="M85.5628 62.2658
L85.4550 62.3735
" />
<path d="M86.0476 62.2658
L85.4819 61.7001
" />
<path d="M85.4819 61.7001
L85.6974 61.4846
" />
<path d="M85.6974 61.4846
L85.7783 61.4576
" />
<path d="M85.7783 61.4576
L85.8321 61.4576
" />
<path d="M85.8321 61.4576
L85.9129 61.4846
" />
<path d="M85.9129 61.4846
L85.9938 61.5654
" />
<path d="M85.9938 61.5654
L86.0207 61.6462
" />
<path d="M86.0207 61.6462
L86.0207 61.7001
" />
<path d="M86.0207 61.7001
L85.9938 61.7809
" />
<path d="M85.9938 61.7809
L85.7783 61.9964
" />
<path d="M86.9096 61.4038
L86.5864 61.7270
" />
<path d="M86.7480 61.5654
L86.1823 60.9997
" />
<path d="M86.1823 60.9997
L86.2093 61.1344
" />
<path d="M86.2093 61.1344
L86.2093 61.2421
" />
<path d="M86.2093 61.2421
L86.1823 61.3229
" />
<path d="M86.5325 60.6495
L86.8827 60.2993
" />
<path d="M86.8827 60.2993
L86.9096 60.7034
" />
<path d="M86.9096 60.7034
L86.9904 60.6226
" />
<path d="M86.9904 60.6226
L87.0713 60.5956
" />
<path d="M87.0713 60.5956
L87.1251 60.5956
" />
<path d="M87.1251 60.5956
L87.2059 60.6226
" />
<path d="M87.2059 60.6226
L87.3406 60.7573
" />
<path d="M87.3406 60.7573
L87.3676 60.8381
" />
<path d="M87.3676 60.8381
L87.3676 60.8919
" />
<path d="M87.3676 60.8919
L87.3406 60.9728
" />
<path d="M87.3406 60.9728
L87.1790 61.1344
" />
<path d="M87.1790 61.1344
L87.0982 61.1613
" />
<path d="M87.0982 61.1613
L87.0443 61.1613
" />
</g><g transform="rotate(-45.000000 89.8860 36.5460)">
<text x="89.8860" y="36.9460"
textLength="3.3388" font-size="1.0667" lengthAdjust="spacingAndGlyphs"
text-anchor="middle" opacity="0">GP19</text>
</g>
<g class="stroked-text"><desc>GP19</desc>
<path d="M88.9355 36.9424
L88.8547 36.9693
" />
<path d="M88.8547 36.9693
L88.7739 37.0501
" />
<path d="M88.7739 37.0501
L88.7200 37.1579
" />
<path d="M88.7200 37.1579
L88.7200 37.2656
" />
<path d="M88.7200 37.2656
L88.7470 37.3464
" />
<path d="M88.7470 37.3464
L88.8278 37.4811
" />
<path d="M88.8278 37.4811
L88.9086 37.5619
" />
<path d="M88.9086 37.5619
L89.0433 37.6428
" />
<path d="M89.0433 37.6428
L89.1241 37.6697
" />
<path d="M89.1241 37.6697
L89.2318 37.6697
" />
<path d="M89.2318 37.6697
L89.3396 37.6158
" />
<path d="M89.3396 37.6158
L89.3934 37.5619
" />
<path d="M89.3934 37.5619
L89.4473 37.4542
" />
<path d="M89.4473 37.4542
L89.4473 37.4003
" />
<path d="M89.4473 37.4003
L89.2588 37.2118
" />
<path d="M89.2588 37.2118
L89.1510 37.3195
" />
<path d="M89.7436 37.2118
L89.1779 36.6461
" />
<path d="M89.1779 36.6461
L89.3934 36.4306
" />
<path d="M89.3934 36.4306
L89.4743 36.4036
" />
<path d="M89.4743 36.4036
L89.5281 36.4036
" />
<path d="M89.5281 36.4036
L89.6089 36.4306
" />
<path d="M89.6089 36.4306
L89.6898 36.5114
" />
<path d="M89.6898 36.5114
L89.7167 36.5922
" />
<path d="M89.7167 36.5922
L89.7167 36.6461
" />
<path d="M89.7167 36.6461
L89.6898 36.7269
" />
<path d="M89.6898 36.7269
L89.4743 36.9424
" />
<path d="M90.6056 36.3498
L90.2824 36.6730
" />
<path d="M90.4440 36.5114
L89.8783 35.9457
" />
<path d="M89.8783 35.9457
L89.9053 36.0804
" />
<path d="M89.9053 36.0804
L89.9053 36.1881
" />
<path d="M89.9053 36.1881
L89.8783 36.2689
" />
<path d="M90.8750 36.0804
L90.9828 35.9726
" />
<path d="M90.9828 35.9726
L91.0097 35.8918
" />
<path d="M91.0097 35.8918
L91.0097 35.8379
" />
<path d="M91.0097 35.8379
L90.9828 35.7033
" />
<path d="M90.9828 35.7033
L90.9019 35.5686
" />
<path d="M90.9019 35.5686
L90.6864 35.3531
" />
<path d="M90.6864 35.3531
L90.6056 35.3261
" />
<path d="M90.6056 35.3261
L90.5518 35.3261
" />
<path d="M90.5518 35.3261
L90.4709 35.3531
" />
<path d="M90.4709 35.3531
L90.3632 35.4608
" />
<path d="M90.3632 35.4608
L90.3363 35.5416
" />
<path d="M90.3363 35.5416
L90.3363 35.5955
" />
<path d="M90.3363 35.5955
L90.3632 35.6763
" />
<path d="M90.3632 35.6763
L90.4979 35.8110
" />
<path d="M90.4979 35.8110
L90.5787 35.8379
" />
<path d="M90.5787 35.8379
L90.6326 35.8379
" />
<path d="M90.6326 35.8379
L90.7134 35.8110
" />
<path d="M90.7134 35.8110
L90.8211 35.7033
" />
<path d="M90.8211 35.7033
L90.8481 35.6225
" />
<path d="M90.8481 35.6225
L90.8481 35.5686
" />
<path d="M90.8481 35.5686
L90.8211 35.4878
" />
</g><g transform="rotate(-45.000000 88.7300 61.7460)">
<text x="88.7300" y="62.1460"
textLength="3.3388" font-size="1.0667" lengthAdjust="spacingAndGlyphs"
text-anchor="middle" opacity="0">GP12</text>
</g>
<g class="stroked-text"><desc>GP12</desc>
<path d="M87.7795 62.1424
L87.6987 62.1693
" />
<path d="M87.6987 62.1693
L87.6179 62.2501
" />
<path d="M87.6179 62.2501
L87.5640 62.3579
" />
<path d="M87.5640 62.3579
L87.5640 62.4656
" />
<path d="M87.5640 62.4656
L87.5910 62.5464
" />
<path d="M87.5910 62.5464
L87.6718 62.6811
" />
<path d="M87.6718 62.6811
L87.7526 62.7619
" />
<path d="M87.7526 62.7619
L87.8873 62.8428
" />
<path d="M87.8873 62.8428
L87.9681 62.8697
" />
<path d="M87.9681 62.8697
L88.0758 62.8697
" />
<path d="M88.0758 62.8697
L88.1836 62.8158
" />
<path d="M88.1836 62.8158
L88.2374 62.7619
" />
<path d="M88.2374 62.7619
L88.2913 62.6542
" />
<path d="M88.2913 62.6542
L88.2913 62.6003
" />
<path d="M88.2913 62.6003
L88.1028 62.4118
" />
<path d="M88.1028 62.4118
L87.9950 62.5195
" />
<path d="M88.5876 62.4118
L88.0219 61.8461
" />
<path d="M88.0219 61.8461
L88.2374 61.6306
" />
<path d="M88.2374 61.6306
L88.3183 61.6036
" />
<path d="M88.3183 61.6036
L88.3721 61.6036
" />
<path d="M88.3721 61.6036
L88.4529 61.6306
" />
<path d="M88.4529 61.6306
L88.5338 61.7114
" />
<path d="M88.5338 61.7114
L88.5607 61.7922
" />
<path d="M88.5607 61.7922
L88.5607 61.8461
" />
<path d="M88.5607 61.8461
L88.5338 61.9269
" />
<path d="M88.5338 61.9269
L88.3183 62.1424
" />
<path d="M89.4496 61.5498
L89.1264 61.8730
" />
<path d="M89.2880 61.7114
L88.7223 61.1457
" />
<path d="M88.7223 61.1457
L88.7493 61.2804
" />
<path d="M88.7493 61.2804
L88.7493 61.3881
" />
<path d="M88.7493 61.3881
L88.7223 61.4689
" />
<path d="M89.1533 60.8225
L89.1533 60.7686
" />
<path d="M89.1533 60.7686
L89.1803 60.6878
" />
<path d="M89.1803 60.6878
L89.3149 60.5531
" />
<path d="M89.3149 60.5531
L89.3958 60.5261
" />
<path d="M89.3958 60.5261
L89.4496 60.5261
" />
<path d="M89.4496 60.5261
L89.5304 60.5531
" />
<path d="M89.5304 60.5531
L89.5843 60.6070
" />
<path d="M89.5843 60.6070
L89.6382 60.7147
" />
<path d="M89.6382 60.7147
L89.6382 61.3612
" />
<path d="M89.6382 61.3612
L89.9884 61.0110
" />
</g><g transform="rotate(-45.000000 106.5100 61.3460)">
<text x="106.5100" y="61.7460"
textLength="2.5769" font-size="1.0667" lengthAdjust="spacingAndGlyphs"
text-anchor="middle" opacity="0">GP6</text>
</g>
<g class="stroked-text"><desc>GP6</desc>
<path d="M105.8289 61.4730
L105.7481 61.4999
" />
<path d="M105.7481 61.4999
L105.6673 61.5808
" />
<path d="M105.6673 61.5808
L105.6134 61.6885
" />
<path d="M105.6134 61.6885
L105.6134 61.7963
" />
<path d="M105.6134 61.7963
L105.6403 61.8771
" />
<path d="M105.6403 61.8771
L105.7211 62.0118
" />
<path d="M105.7211 62.0118
L105.8019 62.0926
" />
<path d="M105.8019 62.0926
L105.9366 62.1734
" />
<path d="M105.9366 62.1734
L106.0174 62.2003
" />
<path d="M106.0174 62.2003
L106.1252 62.2003
" />
<path d="M106.1252 62.2003
L106.2329 62.1464
" />
<path d="M106.2329 62.1464
L106.2868 62.0926
" />
<path d="M106.2868 62.0926
L106.3407 61.9848
" />
<path d="M106.3407 61.9848
L106.3407 61.9309
" />
<path d="M106.3407 61.9309
L106.1521 61.7424
" />
<path d="M106.1521 61.7424
L106.0444 61.8501
" />
<path d="M106.6370 61.7424
L106.0713 61.1767
" />
<path d="M106.0713 61.1767
L106.2868 60.9612
" />
<path d="M106.2868 60.9612
L106.3676 60.9343
" />
<path d="M106.3676 60.9343
L106.4215 60.9343
" />
<path d="M106.4215 60.9343
L106.5023 60.9612
" />
<path d="M106.5023 60.9612
L106.5831 61.0420
" />
<path d="M106.5831 61.0420
L106.6101 61.1228
" />
<path d="M106.6101 61.1228
L106.6101 61.1767
" />
<path d="M106.6101 61.1767
L106.5831 61.2575
" />
<path d="M106.5831 61.2575
L106.3676 61.4730
" />
<path d="M106.8794 60.3686
L106.7717 60.4763
" />
<path d="M106.7717 60.4763
L106.7448 60.5571
" />
<path d="M106.7448 60.5571
L106.7448 60.6110
" />
<path d="M106.7448 60.6110
L106.7717 60.7457
" />
<path d="M106.7717 60.7457
L106.8525 60.8804
" />
<path d="M106.8525 60.8804
L107.0680 61.0959
" />
<path d="M107.0680 61.0959
L107.1488 61.1228
" />
<path d="M107.1488 61.1228
L107.2027 61.1228
" />
<path d="M107.2027 61.1228
L107.2835 61.0959
" />
<path d="M107.2835 61.0959
L107.3913 60.9881
" />
<path d="M107.3913 60.9881
L107.4182 60.9073
" />
<path d="M107.4182 60.9073
L107.4182 60.8534
" />
<path d="M107.4182 60.8534
L107.3913 60.7726
" />
<path d="M107.3913 60.7726
L107.2566 60.6379
" />
<path d="M107.2566 60.6379
L107.1758 60.6110
" />
<path d="M107.1758 60.6110
L107.1219 60.6110
" />
<path d="M107.1219 60.6110
L107.0411 60.6379
" />
<path d="M107.0411 60.6379
L106.9333 60.7457
" />
<path d="M106.9333 60.7457
L106.9064 60.8265
" />
<path d="M106.9064 60.8265
L106.9064 60.8804
" />
<path d="M106.9064 60.8804
L106.9333 60.9612
" />
</g><g transform="rotate(-45.000000 124.3000 61.4460)">
<text x="124.3000" y="61.8460"
textLength="2.5769" font-size="1.0667" lengthAdjust="spacingAndGlyphs"
text-anchor="middle" opacity="0">GP1</text>
</g>
<g class="stroked-text"><desc>GP1</desc>
<path d="M123.6189 61.5730
L123.5381 61.5999
" />
<path d="M123.5381 61.5999
L123.4573 61.6808
" />
<path d="M123.4573 61.6808
L123.4034 61.7885
" />
<path d="M123.4034 61.7885
L123.4034 61.8963
" />
<path d="M123.4034 61.8963
L123.4303 61.9771
" />
<path d="M123.4303 61.9771
L123.5111 62.1118
" />
<path d="M123.5111 62.1118
L123.5919 62.1926
" />
<path d="M123.5919 62.1926
L123.7266 62.2734
" />
<path d="M123.7266 62.2734
L123.8074 62.3003
" />
<path d="M123.8074 62.3003
L123.9152 62.3003
" />
<path d="M123.9152 62.3003
L124.0229 62.2464
" />
<path d="M124.0229 62.2464
L124.0768 62.1926
" />
<path d="M124.0768 62.1926
L124.1307 62.0848
" />
<path d="M124.1307 62.0848
L124.1307 62.0309
" />
<path d="M124.1307 62.0309
L123.9421 61.8424
" />
<path d="M123.9421 61.8424
L123.8344 61.9501
" />
<path d="M124.4270 61.8424
L123.8613 61.2767
" />
<path d="M123.8613 61.2767
L124.0768 61.0612
" />
<path d="M124.0768 61.0612
L124.1576 61.0343
" />
<path d="M124.1576 61.0343
L124.2115 61.0343
" />
<path d="M124.2115 61.0343
L124.2923 61.0612
" />
<path d="M124.2923 61.0612
L124.3731 61.1420
" />
<path d="M124.3731 61.1420
L124.4001 61.2228
" />
<path d="M124.4001 61.2228
L124.4001 61.2767
" />
<path d="M124.4001 61.2767
L124.3731 61.3575
" />
<path d="M124.3731 61.3575
L124.1576 61.5730
" />
<path d="M125.2890 60.9804
L124.9658 61.3036
" />
<path d="M125.1274 61.1420
L124.5617 60.5763
" />
<path d="M124.5617 60.5763
L124.5886 60.7110
" />
<path d="M124.5886 60.7110
L124.5886 60.8188
" />
<path d="M124.5886 60.8188
L124.5617 60.8996
" />
</g><g transform="rotate(-45.000000 102.5860 36.6000)">
<text x="102.5860" y="37.0000"
textLength="2.6912" font-size="1.0667" lengthAdjust="spacingAndGlyphs"
text-anchor="middle" opacity="0">RUN</text>
</g>
<g class="stroked-text"><desc>RUN</desc>
<path d="M102.4302 37.2792
L101.9722 37.1984
" />
<path d="M102.1069 37.6025
L101.5412 37.0368
" />
<path d="M101.5412 37.0368
L101.7567 36.8213
" />
<path d="M101.7567 36.8213
L101.8375 36.7944
" />
<path d="M101.8375 36.7944
L101.8914 36.7944
" />
<path d="M101.8914 36.7944
L101.9722 36.8213
" />
<path d="M101.9722 36.8213
L102.0530 36.9021
" />
<path d="M102.0530 36.9021
L102.0800 36.9829
" />
<path d="M102.0800 36.9829
L102.0800 37.0368
" />
<path d="M102.0800 37.0368
L102.0530 37.1176
" />
<path d="M102.0530 37.1176
L101.8375 37.3331
" />
<path d="M102.1069 36.4711
L102.5649 36.9290
" />
<path d="M102.5649 36.9290
L102.6457 36.9560
" />
<path d="M102.6457 36.9560
L102.6995 36.9560
" />
<path d="M102.6995 36.9560
L102.7804 36.9290
" />
<path d="M102.7804 36.9290
L102.8881 36.8213
" />
<path d="M102.8881 36.8213
L102.9150 36.7405
" />
<path d="M102.9150 36.7405
L102.9150 36.6866
" />
<path d="M102.9150 36.6866
L102.8881 36.6058
" />
<path d="M102.8881 36.6058
L102.4302 36.1479
" />
<path d="M103.2652 36.4442
L102.6995 35.8785
" />
<path d="M102.6995 35.8785
L103.5885 36.1209
" />
<path d="M103.5885 36.1209
L103.0228 35.5552
" />
</g><g transform="rotate(-45.000000 87.3460 36.5460)">
<text x="87.3460" y="36.9460"
textLength="3.3388" font-size="1.0667" lengthAdjust="spacingAndGlyphs"
text-anchor="middle" opacity="0">GP18</text>
</g>
<g class="stroked-text"><desc>GP18</desc>
<path d="M86.3955 36.9424
L86.3147 36.9693
" />
<path d="M86.3147 36.9693
L86.2339 37.0501
" />
<path d="M86.2339 37.0501
L86.1800 37.1579
" />
<path d="M86.1800 37.1579
L86.1800 37.2656
" />
<path d="M86.1800 37.2656
L86.2070 37.3464
" />
<path d="M86.2070 37.3464
L86.2878 37.4811
" />
<path d="M86.2878 37.4811
L86.3686 37.5619
" />
<path d="M86.3686 37.5619
L86.5033 37.6428
" />
<path d="M86.5033 37.6428
L86.5841 37.6697
" />
<path d="M86.5841 37.6697
L86.6918 37.6697
" />
<path d="M86.6918 37.6697
L86.7996 37.6158
" />
<path d="M86.7996 37.6158
L86.8534 37.5619
" />
<path d="M86.8534 37.5619
L86.9073 37.4542
" />
<path d="M86.9073 37.4542
L86.9073 37.4003
" />
<path d="M86.9073 37.4003
L86.7188 37.2118
" />
<path d="M86.7188 37.2118
L86.6110 37.3195
" />
<path d="M87.2036 37.2118
L86.6379 36.6461
" />
<path d="M86.6379 36.6461
L86.8534 36.4306
" />
<path d="M86.8534 36.4306
L86.9343 36.4036
" />
<path d="M86.9343 36.4036
L86.9881 36.4036
" />
<path d="M86.9881 36.4036
L87.0689 36.4306
" />
<path d="M87.0689 36.4306
L87.1498 36.5114
" />
<path d="M87.1498 36.5114
L87.1767 36.5922
" />
<path d="M87.1767 36.5922
L87.1767 36.6461
" />
<path d="M87.1767 36.6461
L87.1498 36.7269
" />
<path d="M87.1498 36.7269
L86.9343 36.9424
" />
<path d="M88.0656 36.3498
L87.7424 36.6730
" />
<path d="M87.9040 36.5114
L87.3383 35.9457
" />
<path d="M87.3383 35.9457
L87.3653 36.0804
" />
<path d="M87.3653 36.0804
L87.3653 36.1881
" />
<path d="M87.3653 36.1881
L87.3383 36.2689
" />
<path d="M88.0656 35.7033
L87.9848 35.7302
" />
<path d="M87.9848 35.7302
L87.9309 35.7302
" />
<path d="M87.9309 35.7302
L87.8501 35.7033
" />
<path d="M87.8501 35.7033
L87.8232 35.6763
" />
<path d="M87.8232 35.6763
L87.7963 35.5955
" />
<path d="M87.7963 35.5955
L87.7963 35.5416
" />
<path d="M87.7963 35.5416
L87.8232 35.4608
" />
<path d="M87.8232 35.4608
L87.9309 35.3531
" />
<path d="M87.9309 35.3531
L88.0118 35.3261
" />
<path d="M88.0118 35.3261
L88.0656 35.3261
" />
<path d="M88.0656 35.3261
L88.1464 35.3531
" />
<path d="M88.1464 35.3531
L88.1734 35.3800
" />
<path d="M88.1734 35.3800
L88.2003 35.4608
" />
<path d="M88.2003 35.4608
L88.2003 35.5147
" />
<path d="M88.2003 35.5147
L88.1734 35.5955
" />
<path d="M88.1734 35.5955
L88.0656 35.7033
" />
<path d="M88.0656 35.7033
L88.0387 35.7841
" />
<path d="M88.0387 35.7841
L88.0387 35.8379
" />
<path d="M88.0387 35.8379
L88.0656 35.9188
" />
<path d="M88.0656 35.9188
L88.1734 36.0265
" />
<path d="M88.1734 36.0265
L88.2542 36.0534
" />
<path d="M88.2542 36.0534
L88.3081 36.0534
" />
<path d="M88.3081 36.0534
L88.3889 36.0265
" />
<path d="M88.3889 36.0265
L88.4966 35.9188
" />
<path d="M88.4966 35.9188
L88.5236 35.8379
" />
<path d="M88.5236 35.8379
L88.5236 35.7841
" />
<path d="M88.5236 35.7841
L88.4966 35.7033
" />
<path d="M88.4966 35.7033
L88.3889 35.5955
" />
<path d="M88.3889 35.5955
L88.3081 35.5686
" />
<path d="M88.3081 35.5686
L88.2542 35.5686
" />
<path d="M88.2542 35.5686
L88.1734 35.5955
" />
</g><g transform="rotate(-45.000000 116.6700 61.3460)">
<text x="116.6700" y="61.7460"
textLength="2.5769" font-size="1.0667" lengthAdjust="spacingAndGlyphs"
text-anchor="middle" opacity="0">GP3</text>
</g>
<g class="stroked-text"><desc>GP3</desc>
<path d="M115.9889 61.4730
L115.9081 61.4999
" />
<path d="M115.9081 61.4999
L115.8273 61.5808
" />
<path d="M115.8273 61.5808
L115.7734 61.6885
" />
<path d="M115.7734 61.6885
L115.7734 61.7963
" />
<path d="M115.7734 61.7963
L115.8003 61.8771
" />
<path d="M115.8003 61.8771
L115.8811 62.0118
" />
<path d="M115.8811 62.0118
L115.9620 62.0926
" />
<path d="M115.9620 62.0926
L116.0966 62.1734
" />
<path d="M116.0966 62.1734
L116.1774 62.2003
" />
<path d="M116.1774 62.2003
L116.2852 62.2003
" />
<path d="M116.2852 62.2003
L116.3929 62.1464
" />
<path d="M116.3929 62.1464
L116.4468 62.0926
" />
<path d="M116.4468 62.0926
L116.5007 61.9848
" />
<path d="M116.5007 61.9848
L116.5007 61.9309
" />
<path d="M116.5007 61.9309
L116.3121 61.7424
" />
<path d="M116.3121 61.7424
L116.2044 61.8501
" />
<path d="M116.7970 61.7424
L116.2313 61.1767
" />
<path d="M116.2313 61.1767
L116.4468 60.9612
" />
<path d="M116.4468 60.9612
L116.5276 60.9343
" />
<path d="M116.5276 60.9343
L116.5815 60.9343
" />
<path d="M116.5815 60.9343
L116.6623 60.9612
" />
<path d="M116.6623 60.9612
L116.7431 61.0420
" />
<path d="M116.7431 61.0420
L116.7701 61.1228
" />
<path d="M116.7701 61.1228
L116.7701 61.1767
" />
<path d="M116.7701 61.1767
L116.7431 61.2575
" />
<path d="M116.7431 61.2575
L116.5276 61.4730
" />
<path d="M116.7431 60.6649
L117.0933 60.3147
" />
<path d="M117.0933 60.3147
L117.1203 60.7188
" />
<path d="M117.1203 60.7188
L117.2011 60.6379
" />
<path d="M117.2011 60.6379
L117.2819 60.6110
" />
<path d="M117.2819 60.6110
L117.3358 60.6110
" />
<path d="M117.3358 60.6110
L117.4166 60.6379
" />
<path d="M117.4166 60.6379
L117.5513 60.7726
" />
<path d="M117.5513 60.7726
L117.5782 60.8534
" />
<path d="M117.5782 60.8534
L117.5782 60.9073
" />
<path d="M117.5782 60.9073
L117.5513 60.9881
" />
<path d="M117.5513 60.9881
L117.3896 61.1498
" />
<path d="M117.3896 61.1498
L117.3088 61.1767
" />
<path d="M117.3088 61.1767
L117.2549 61.1767
" />
</g><g transform="rotate(-45.000000 82.2660 36.5460)">
<text x="82.2660" y="36.9460"
textLength="3.3388" font-size="1.0667" lengthAdjust="spacingAndGlyphs"
text-anchor="middle" opacity="0">GP17</text>
</g>
<g class="stroked-text"><desc>GP17</desc>
<path d="M81.3155 36.9424
L81.2347 36.9693
" />
<path d="M81.2347 36.9693
L81.1539 37.0501
" />
<path d="M81.1539 37.0501
L81.1000 37.1579
" />
<path d="M81.1000 37.1579
L81.1000 37.2656
" />
<path d="M81.1000 37.2656
L81.1270 37.3464
" />
<path d="M81.1270 37.3464
L81.2078 37.4811
" />
<path d="M81.2078 37.4811
L81.2886 37.5619
" />
<path d="M81.2886 37.5619
L81.4233 37.6428
" />
<path d="M81.4233 37.6428
L81.5041 37.6697
" />
<path d="M81.5041 37.6697
L81.6118 37.6697
" />
<path d="M81.6118 37.6697
L81.7196 37.6158
" />
<path d="M81.7196 37.6158
L81.7734 37.5619
" />
<path d="M81.7734 37.5619
L81.8273 37.4542
" />
<path d="M81.8273 37.4542
L81.8273 37.4003
" />
<path d="M81.8273 37.4003
L81.6388 37.2118
" />
<path d="M81.6388 37.2118
L81.5310 37.3195
" />
<path d="M82.1236 37.2118
L81.5579 36.6461
" />
<path d="M81.5579 36.6461
L81.7734 36.4306
" />
<path d="M81.7734 36.4306
L81.8543 36.4036
" />
<path d="M81.8543 36.4036
L81.9081 36.4036
" />
<path d="M81.9081 36.4036
L81.9889 36.4306
" />
<path d="M81.9889 36.4306
L82.0698 36.5114
" />
<path d="M82.0698 36.5114
L82.0967 36.5922
" />
<path d="M82.0967 36.5922
L82.0967 36.6461
" />
<path d="M82.0967 36.6461
L82.0698 36.7269
" />
<path d="M82.0698 36.7269
L81.8543 36.9424
" />
<path d="M82.9856 36.3498
L82.6624 36.6730
" />
<path d="M82.8240 36.5114
L82.2583 35.9457
" />
<path d="M82.2583 35.9457
L82.2853 36.0804
" />
<path d="M82.2853 36.0804
L82.2853 36.1881
" />
<path d="M82.2853 36.1881
L82.2583 36.2689
" />
<path d="M82.6085 35.5955
L82.9856 35.2184
" />
<path d="M82.9856 35.2184
L83.3089 36.0265
" />
</g><g transform="rotate(-45.000000 119.2100 61.4460)">
<text x="119.2100" y="61.8460"
textLength="2.5769" font-size="1.0667" lengthAdjust="spacingAndGlyphs"
text-anchor="middle" opacity="0">GP2</text>
</g>
<g class="stroked-text"><desc>GP2</desc>
<path d="M118.5289 61.5730
L118.4481 61.5999
" />
<path d="M118.4481 61.5999
L118.3673 61.6808
" />
<path d="M118.3673 61.6808
L118.3134 61.7885
" />
<path d="M118.3134 61.7885
L118.3134 61.8963
" />
<path d="M118.3134 61.8963
L118.3403 61.9771
" />
<path d="M118.3403 61.9771
L118.4211 62.1118
" />
<path d="M118.4211 62.1118
L118.5019 62.1926
" />
<path d="M118.5019 62.1926
L118.6366 62.2734
" />
<path d="M118.6366 62.2734
L118.7174 62.3003
" />
<path d="M118.7174 62.3003
L118.8252 62.3003
" />
<path d="M118.8252 62.3003
L118.9329 62.2464
" />
<path d="M118.9329 62.2464
L118.9868 62.1926
" />
<path d="M118.9868 62.1926
L119.0407 62.0848
" />
<path d="M119.0407 62.0848
L119.0407 62.0309
" />
<path d="M119.0407 62.0309
L118.8521 61.8424
" />
<path d="M118.8521 61.8424
L118.7444 61.9501
" />
<path d="M119.3370 61.8424
L118.7713 61.2767
" />
<path d="M118.7713 61.2767
L118.9868 61.0612
" />
<path d="M118.9868 61.0612
L119.0676 61.0343
" />
<path d="M119.0676 61.0343
L119.1215 61.0343
" />
<path d="M119.1215 61.0343
L119.2023 61.0612
" />
<path d="M119.2023 61.0612
L119.2831 61.1420
" />
<path d="M119.2831 61.1420
L119.3101 61.2228
" />
<path d="M119.3101 61.2228
L119.3101 61.2767
" />
<path d="M119.3101 61.2767
L119.2831 61.3575
" />
<path d="M119.2831 61.3575
L119.0676 61.5730
" />
<path d="M119.3639 60.7918
L119.3639 60.7379
" />
<path d="M119.3639 60.7379
L119.3909 60.6571
" />
<path d="M119.3909 60.6571
L119.5256 60.5224
" />
<path d="M119.5256 60.5224
L119.6064 60.4955
" />
<path d="M119.6064 60.4955
L119.6603 60.4955
" />
<path d="M119.6603 60.4955
L119.7411 60.5224
" />
<path d="M119.7411 60.5224
L119.7949 60.5763
" />
<path d="M119.7949 60.5763
L119.8488 60.6841
" />
<path d="M119.8488 60.6841
L119.8488 61.3306
" />
<path d="M119.8488 61.3306
L120.1990 60.9804
" />
</g><g transform="rotate(-45.000000 96.9220 61.2830)">
<text x="96.9220" y="61.6830"
textLength="2.6531" font-size="1.0667" lengthAdjust="spacingAndGlyphs"
text-anchor="middle" opacity="0">GND</text>
</g>
<g class="stroked-text"><desc>GND</desc>
<path d="M96.2139 61.4369
L96.1331 61.4639
" />
<path d="M96.1331 61.4639
L96.0523 61.5447
" />
<path d="M96.0523 61.5447
L95.9985 61.6524
" />
<path d="M95.9985 61.6524
L95.9985 61.7602
" />
<path d="M95.9985 61.7602
L96.0254 61.8410
" />
<path d="M96.0254 61.8410
L96.1062 61.9757
" />
<path d="M96.1062 61.9757
L96.1870 62.0565
" />
<path d="M96.1870 62.0565
L96.3217 62.1373
" />
<path d="M96.3217 62.1373
L96.4025 62.1643
" />
<path d="M96.4025 62.1643
L96.5103 62.1643
" />
<path d="M96.5103 62.1643
L96.6180 62.1104
" />
<path d="M96.6180 62.1104
L96.6719 62.0565
" />
<path d="M96.6719 62.0565
L96.7258 61.9488
" />
<path d="M96.7258 61.9488
L96.7258 61.8949
" />
<path d="M96.7258 61.8949
L96.5372 61.7063
" />
<path d="M96.5372 61.7063
L96.4294 61.8141
" />
<path d="M97.0221 61.7063
L96.4564 61.1406
" />
<path d="M96.4564 61.1406
L97.3453 61.3831
" />
<path d="M97.3453 61.3831
L96.7796 60.8174
" />
<path d="M97.6147 61.1137
L97.0490 60.5480
" />
<path d="M97.0490 60.5480
L97.1837 60.4133
" />
<path d="M97.1837 60.4133
L97.2914 60.3594
" />
<path d="M97.2914 60.3594
L97.3992 60.3594
" />
<path d="M97.3992 60.3594
L97.4800 60.3864
" />
<path d="M97.4800 60.3864
L97.6147 60.4672
" />
<path d="M97.6147 60.4672
L97.6955 60.5480
" />
<path d="M97.6955 60.5480
L97.7763 60.6827
" />
<path d="M97.7763 60.6827
L97.8033 60.7635
" />
<path d="M97.8033 60.7635
L97.8033 60.8713
" />
<path d="M97.8033 60.8713
L97.7494 60.9790
" />
<path d="M97.7494 60.9790
L97.6147 61.1137
" />
</g><g transform="rotate(-45.000000 100.0460 36.5460)">
<text x="100.0460" y="36.9460"
textLength="3.3388" font-size="1.0667" lengthAdjust="spacingAndGlyphs"
text-anchor="middle" opacity="0">GP22</text>
</g>
<g class="stroked-text"><desc>GP22</desc>
<path d="M99.0955 36.9424
L99.0147 36.9693
" />
<path d="M99.0147 36.9693
L98.9339 37.0501
" />
<path d="M98.9339 37.0501
L98.8800 37.1579
" />
<path d="M98.8800 37.1579
L98.8800 37.2656
" />
<path d="M98.8800 37.2656
L98.9070 37.3464
" />
<path d="M98.9070 37.3464
L98.9878 37.4811
" />
<path d="M98.9878 37.4811
L99.0686 37.5619
" />
<path d="M99.0686 37.5619
L99.2033 37.6428
" />
<path d="M99.2033 37.6428
L99.2841 37.6697
" />
<path d="M99.2841 37.6697
L99.3918 37.6697
" />
<path d="M99.3918 37.6697
L99.4996 37.6158
" />
<path d="M99.4996 37.6158
L99.5534 37.5619
" />
<path d="M99.5534 37.5619
L99.6073 37.4542
" />
<path d="M99.6073 37.4542
L99.6073 37.4003
" />
<path d="M99.6073 37.4003
L99.4188 37.2118
" />
<path d="M99.4188 37.2118
L99.3110 37.3195
" />
<path d="M99.9036 37.2118
L99.3379 36.6461
" />
<path d="M99.3379 36.6461
L99.5534 36.4306
" />
<path d="M99.5534 36.4306
L99.6343 36.4036
" />
<path d="M99.6343 36.4036
L99.6881 36.4036
" />
<path d="M99.6881 36.4036
L99.7689 36.4306
" />
<path d="M99.7689 36.4306
L99.8498 36.5114
" />
<path d="M99.8498 36.5114
L99.8767 36.5922
" />
<path d="M99.8767 36.5922
L99.8767 36.6461
" />
<path d="M99.8767 36.6461
L99.8498 36.7269
" />
<path d="M99.8498 36.7269
L99.6343 36.9424
" />
<path d="M99.9306 36.1612
L99.9306 36.1073
" />
<path d="M99.9306 36.1073
L99.9575 36.0265
" />
<path d="M99.9575 36.0265
L100.0922 35.8918
" />
<path d="M100.0922 35.8918
L100.1730 35.8649
" />
<path d="M100.1730 35.8649
L100.2269 35.8649
" />
<path d="M100.2269 35.8649
L100.3077 35.8918
" />
<path d="M100.3077 35.8918
L100.3616 35.9457
" />
<path d="M100.3616 35.9457
L100.4154 36.0534
" />
<path d="M100.4154 36.0534
L100.4154 36.6999
" />
<path d="M100.4154 36.6999
L100.7656 36.3498
" />
<path d="M100.4693 35.6225
L100.4693 35.5686
" />
<path d="M100.4693 35.5686
L100.4963 35.4878
" />
<path d="M100.4963 35.4878
L100.6309 35.3531
" />
<path d="M100.6309 35.3531
L100.7118 35.3261
" />
<path d="M100.7118 35.3261
L100.7656 35.3261
" />
<path d="M100.7656 35.3261
L100.8464 35.3531
" />
<path d="M100.8464 35.3531
L100.9003 35.4070
" />
<path d="M100.9003 35.4070
L100.9542 35.5147
" />
<path d="M100.9542 35.5147
L100.9542 36.1612
" />
<path d="M100.9542 36.1612
L101.3044 35.8110
" />
</g><g transform="rotate(-45.000000 126.8300 61.3460)">
<text x="126.8300" y="61.7460"
textLength="2.5769" font-size="1.0667" lengthAdjust="spacingAndGlyphs"
text-anchor="middle" opacity="0">GP0</text>
</g>
<g class="stroked-text"><desc>GP0</desc>
<path d="M126.1489 61.4730
L126.0681 61.4999
" />
<path d="M126.0681 61.4999
L125.9873 61.5808
" />
<path d="M125.9873 61.5808
L125.9334 61.6885
" />
<path d="M125.9334 61.6885
L125.9334 61.7963
" />
<path d="M125.9334 61.7963
L125.9603 61.8771
" />
<path d="M125.9603 61.8771
L126.0411 62.0118
" />
<path d="M126.0411 62.0118
L126.1219 62.0926
" />
<path d="M126.1219 62.0926
L126.2566 62.1734
" />
<path d="M126.2566 62.1734
L126.3374 62.2003
" />
<path d="M126.3374 62.2003
L126.4452 62.2003
" />
<path d="M126.4452 62.2003
L126.5529 62.1464
" />
<path d="M126.5529 62.1464
L126.6068 62.0926
" />
<path d="M126.6068 62.0926
L126.6607 61.9848
" />
<path d="M126.6607 61.9848
L126.6607 61.9309
" />
<path d="M126.6607 61.9309
L126.4721 61.7424
" />
<path d="M126.4721 61.7424
L126.3644 61.8501
" />
<path d="M126.9570 61.7424
L126.3913 61.1767
" />
<path d="M126.3913 61.1767
L126.6068 60.9612
" />
<path d="M126.6068 60.9612
L126.6876 60.9343
" />
<path d="M126.6876 60.9343
L126.7415 60.9343
" />
<path d="M126.7415 60.9343
L126.8223 60.9612
" />
<path d="M126.8223 60.9612
L126.9031 61.0420
" />
<path d="M126.9031 61.0420
L126.9301 61.1228
" />
<path d="M126.9301 61.1228
L126.9301 61.1767
" />
<path d="M126.9301 61.1767
L126.9031 61.2575
" />
<path d="M126.9031 61.2575
L126.6876 61.4730
" />
<path d="M127.0648 60.5033
L127.1186 60.4494
" />
<path d="M127.1186 60.4494
L127.1994 60.4224
" />
<path d="M127.1994 60.4224
L127.2533 60.4224
" />
<path d="M127.2533 60.4224
L127.3341 60.4494
" />
<path d="M127.3341 60.4494
L127.4688 60.5302
" />
<path d="M127.4688 60.5302
L127.6035 60.6649
" />
<path d="M127.6035 60.6649
L127.6843 60.7996
" />
<path d="M127.6843 60.7996
L127.7113 60.8804
" />
<path d="M127.7113 60.8804
L127.7113 60.9343
" />
<path d="M127.7113 60.9343
L127.6843 61.0151
" />
<path d="M127.6843 61.0151
L127.6304 61.0689
" />
<path d="M127.6304 61.0689
L127.5496 61.0959
" />
<path d="M127.5496 61.0959
L127.4958 61.0959
" />
<path d="M127.4958 61.0959
L127.4149 61.0689
" />
<path d="M127.4149 61.0689
L127.2803 60.9881
" />
<path d="M127.2803 60.9881
L127.1456 60.8534
" />
<path d="M127.1456 60.8534
L127.0648 60.7188
" />
<path d="M127.0648 60.7188
L127.0378 60.6379
" />
<path d="M127.0378 60.6379
L127.0378 60.5841
" />
<path d="M127.0378 60.5841
L127.0648 60.5033
" />
</g><g transform="rotate(-45.000000 117.7560 36.7000)">
<text x="117.7560" y="37.1000"
textLength="2.4245" font-size="1.0667" lengthAdjust="spacingAndGlyphs"
text-anchor="middle" opacity="0">3V3</text>
</g>
<g class="stroked-text"><desc>3V3</desc>
<path d="M116.7516 37.0964
L117.1018 36.7462
" />
<path d="M117.1018 36.7462
L117.1288 37.1503
" />
<path d="M117.1288 37.1503
L117.2096 37.0694
" />
<path d="M117.2096 37.0694
L117.2904 37.0425
" />
<path d="M117.2904 37.0425
L117.3443 37.0425
" />
<path d="M117.3443 37.0425
L117.4251 37.0694
" />
<path d="M117.4251 37.0694
L117.5598 37.2041
" />
<path d="M117.5598 37.2041
L117.5867 37.2849
" />
<path d="M117.5867 37.2849
L117.5867 37.3388
" />
<path d="M117.5867 37.3388
L117.5598 37.4196
" />
<path d="M117.5598 37.4196
L117.3981 37.5813
" />
<path d="M117.3981 37.5813
L117.3173 37.6082
" />
<path d="M117.3173 37.6082
L117.2634 37.6082
" />
<path d="M117.2634 36.5846
L118.0177 36.9617
" />
<path d="M118.0177 36.9617
L117.6406 36.2074
" />
<path d="M117.7753 36.0728
L118.1254 35.7226
" />
<path d="M118.1254 35.7226
L118.1524 36.1266
" />
<path d="M118.1524 36.1266
L118.2332 36.0458
" />
<path d="M118.2332 36.0458
L118.3140 36.0189
" />
<path d="M118.3140 36.0189
L118.3679 36.0189
" />
<path d="M118.3679 36.0189
L118.4487 36.0458
" />
<path d="M118.4487 36.0458
L118.5834 36.1805
" />
<path d="M118.5834 36.1805
L118.6103 36.2613
" />
<path d="M118.6103 36.2613
L118.6103 36.3152
" />
<path d="M118.6103 36.3152
L118.5834 36.3960
" />
<path d="M118.5834 36.3960
L118.4218 36.5576
" />
<path d="M118.4218 36.5576
L118.3409 36.5846
" />
<path d="M118.3409 36.5846
L118.2871 36.5846
" />
</g><g transform="rotate(-45.000000 104.0000 61.2460)">
<text x="104.0000" y="61.6460"
textLength="2.5769" font-size="1.0667" lengthAdjust="spacingAndGlyphs"
text-anchor="middle" opacity="0">GP7</text>
</g>
<g class="stroked-text"><desc>GP7</desc>
<path d="M103.3189 61.3730
L103.2381 61.3999
" />
<path d="M103.2381 61.3999
L103.1573 61.4808
" />
<path d="M103.1573 61.4808
L103.1034 61.5885
" />
<path d="M103.1034 61.5885
L103.1034 61.6963
" />
<path d="M103.1034 61.6963
L103.1303 61.7771
" />
<path d="M103.1303 61.7771
L103.2111 61.9118
" />
<path d="M103.2111 61.9118
L103.2919 61.9926
" />
<path d="M103.2919 61.9926
L103.4266 62.0734
" />
<path d="M103.4266 62.0734
L103.5074 62.1003
" />
<path d="M103.5074 62.1003
L103.6152 62.1003
" />
<path d="M103.6152 62.1003
L103.7229 62.0464
" />
<path d="M103.7229 62.0464
L103.7768 61.9926
" />
<path d="M103.7768 61.9926
L103.8307 61.8848
" />
<path d="M103.8307 61.8848
L103.8307 61.8309
" />
<path d="M103.8307 61.8309
L103.6421 61.6424
" />
<path d="M103.6421 61.6424
L103.5344 61.7501
" />
<path d="M104.1270 61.6424
L103.5613 61.0767
" />
<path d="M103.5613 61.0767
L103.7768 60.8612
" />
<path d="M103.7768 60.8612
L103.8576 60.8343
" />
<path d="M103.8576 60.8343
L103.9115 60.8343
" />
<path d="M103.9115 60.8343
L103.9923 60.8612
" />
<path d="M103.9923 60.8612
L104.0731 60.9420
" />
<path d="M104.0731 60.9420
L104.1001 61.0228
" />
<path d="M104.1001 61.0228
L104.1001 61.0767
" />
<path d="M104.1001 61.0767
L104.0731 61.1575
" />
<path d="M104.0731 61.1575
L103.8576 61.3730
" />
<path d="M104.0731 60.5649
L104.4503 60.1878
" />
<path d="M104.4503 60.1878
L104.7735 60.9959
" />
</g><g transform="rotate(-45.000000 114.1300 61.3460)">
<text x="114.1300" y="61.7460"
textLength="2.5769" font-size="1.0667" lengthAdjust="spacingAndGlyphs"
text-anchor="middle" opacity="0">GP4</text>
</g>
<g class="stroked-text"><desc>GP4</desc>
<path d="M113.4489 61.4730
L113.3681 61.4999
" />
<path d="M113.3681 61.4999
L113.2873 61.5808
" />
<path d="M113.2873 61.5808
L113.2334 61.6885
" />
<path d="M113.2334 61.6885
L113.2334 61.7963
" />
<path d="M113.2334 61.7963
L113.2603 61.8771
" />
<path d="M113.2603 61.8771
L113.3411 62.0118
" />
<path d="M113.3411 62.0118
L113.4219 62.0926
" />
<path d="M113.4219 62.0926
L113.5566 62.1734
" />
<path d="M113.5566 62.1734
L113.6374 62.2003
" />
<path d="M113.6374 62.2003
L113.7452 62.2003
" />
<path d="M113.7452 62.2003
L113.8529 62.1464
" />
<path d="M113.8529 62.1464
L113.9068 62.0926
" />
<path d="M113.9068 62.0926
L113.9607 61.9848
" />
<path d="M113.9607 61.9848
L113.9607 61.9309
" />
<path d="M113.9607 61.9309
L113.7721 61.7424
" />
<path d="M113.7721 61.7424
L113.6644 61.8501
" />
<path d="M114.2570 61.7424
L113.6913 61.1767
" />
<path d="M113.6913 61.1767
L113.9068 60.9612
" />
<path d="M113.9068 60.9612
L113.9876 60.9343
" />
<path d="M113.9876 60.9343
L114.0415 60.9343
" />
<path d="M114.0415 60.9343
L114.1223 60.9612
" />
<path d="M114.1223 60.9612
L114.2031 61.0420
" />
<path d="M114.2031 61.0420
L114.2301 61.1228
" />
<path d="M114.2301 61.1228
L114.2301 61.1767
" />
<path d="M114.2301 61.1767
L114.2031 61.2575
" />
<path d="M114.2031 61.2575
L113.9876 61.4730
" />
<path d="M114.6880 60.5571
L115.0651 60.9343
" />
<path d="M114.3378 60.4763
L114.6072 61.0151
" />
<path d="M114.6072 61.0151
L114.9574 60.6649
" />
</g><g transform="rotate(-45.000000 110.2060 36.5460)">
<text x="110.2060" y="36.9460"
textLength="3.3388" font-size="1.0667" lengthAdjust="spacingAndGlyphs"
text-anchor="middle" opacity="0">AGND</text>
</g>
<g class="stroked-text"><desc>AGND</desc>
<path d="M109.3094 37.6428
L109.5788 37.3734
" />
<path d="M109.4171 37.8583
L109.0400 37.1040
" />
<path d="M109.0400 37.1040
L109.7943 37.4811
" />
<path d="M109.7404 36.4575
L109.6596 36.4844
" />
<path d="M109.6596 36.4844
L109.5788 36.5653
" />
<path d="M109.5788 36.5653
L109.5249 36.6730
" />
<path d="M109.5249 36.6730
L109.5249 36.7808
" />
<path d="M109.5249 36.7808
L109.5518 36.8616
" />
<path d="M109.5518 36.8616
L109.6326 36.9963
" />
<path d="M109.6326 36.9963
L109.7134 37.0771
" />
<path d="M109.7134 37.0771
L109.8481 37.1579
" />
<path d="M109.8481 37.1579
L109.9289 37.1848
" />
<path d="M109.9289 37.1848
L110.0367 37.1848
" />
<path d="M110.0367 37.1848
L110.1444 37.1309
" />
<path d="M110.1444 37.1309
L110.1983 37.0771
" />
<path d="M110.1983 37.0771
L110.2522 36.9693
" />
<path d="M110.2522 36.9693
L110.2522 36.9154
" />
<path d="M110.2522 36.9154
L110.0636 36.7269
" />
<path d="M110.0636 36.7269
L109.9559 36.8346
" />
<path d="M110.5485 36.7269
L109.9828 36.1612
" />
<path d="M109.9828 36.1612
L110.8718 36.4036
" />
<path d="M110.8718 36.4036
L110.3061 35.8379
" />
<path d="M111.1411 36.1343
L110.5754 35.5686
" />
<path d="M110.5754 35.5686
L110.7101 35.4339
" />
<path d="M110.7101 35.4339
L110.8179 35.3800
" />
<path d="M110.8179 35.3800
L110.9256 35.3800
" />
<path d="M110.9256 35.3800
L111.0064 35.4070
" />
<path d="M111.0064 35.4070
L111.1411 35.4878
" />
<path d="M111.1411 35.4878
L111.2219 35.5686
" />
<path d="M111.2219 35.5686
L111.3028 35.7033
" />
<path d="M111.3028 35.7033
L111.3297 35.7841
" />
<path d="M111.3297 35.7841
L111.3297 35.8918
" />
<path d="M111.3297 35.8918
L111.2758 35.9996
" />
<path d="M111.2758 35.9996
L111.1411 36.1343
" />
</g><g transform="rotate(-45.000000 84.8060 36.8000)">
<text x="84.8060" y="37.2000"
textLength="2.6531" font-size="1.0667" lengthAdjust="spacingAndGlyphs"
text-anchor="middle" opacity="0">GND</text>
</g>
<g class="stroked-text"><desc>GND</desc>
<path d="M84.0979 36.9539
L84.0171 36.9809
" />
<path d="M84.0171 36.9809
L83.9363 37.0617
" />
<path d="M83.9363 37.0617
L83.8825 37.1694
" />
<path d="M83.8825 37.1694
L83.8825 37.2772
" />
<path d="M83.8825 37.2772
L83.9094 37.3580
" />
<path d="M83.9094 37.3580
L83.9902 37.4927
" />
<path d="M83.9902 37.4927
L84.0710 37.5735
" />
<path d="M84.0710 37.5735
L84.2057 37.6543
" />
<path d="M84.2057 37.6543
L84.2865 37.6813
" />
<path d="M84.2865 37.6813
L84.3943 37.6813
" />
<path d="M84.3943 37.6813
L84.5020 37.6274
" />
<path d="M84.5020 37.6274
L84.5559 37.5735
" />
<path d="M84.5559 37.5735
L84.6098 37.4658
" />
<path d="M84.6098 37.4658
L84.6098 37.4119
" />
<path d="M84.6098 37.4119
L84.4212 37.2233
" />
<path d="M84.4212 37.2233
L84.3135 37.3311
" />
<path d="M84.9061 37.2233
L84.3404 36.6576
" />
<path d="M84.3404 36.6576
L85.2293 36.9001
" />
<path d="M85.2293 36.9001
L84.6636 36.3344
" />
<path d="M85.4987 36.6307
L84.9330 36.0650
" />
<path d="M84.9330 36.0650
L85.0677 35.9303
" />
<path d="M85.0677 35.9303
L85.1754 35.8764
" />
<path d="M85.1754 35.8764
L85.2832 35.8764
" />
<path d="M85.2832 35.8764
L85.3640 35.9034
" />
<path d="M85.3640 35.9034
L85.4987 35.9842
" />
<path d="M85.4987 35.9842
L85.5795 36.0650
" />
<path d="M85.5795 36.0650
L85.6603 36.1997
" />
<path d="M85.6603 36.1997
L85.6873 36.2805
" />
<path d="M85.6873 36.2805
L85.6873 36.3883
" />
<path d="M85.6873 36.3883
L85.6334 36.4960
" />
<path d="M85.6334 36.4960
L85.4987 36.6307
" />
</g><g transform="rotate(-45.000000 113.0000 36.5460)">
<text x="113.0000" y="36.9460"
textLength="3.3388" font-size="1.0667" lengthAdjust="spacingAndGlyphs"
text-anchor="middle" opacity="0">GP28</text>
</g>
<g class="stroked-text"><desc>GP28</desc>
<path d="M112.0495 36.9424
L111.9687 36.9693
" />
<path d="M111.9687 36.9693
L111.8879 37.0501
" />
<path d="M111.8879 37.0501
L111.8340 37.1579
" />
<path d="M111.8340 37.1579
L111.8340 37.2656
" />
<path d="M111.8340 37.2656
L111.8610 37.3464
" />
<path d="M111.8610 37.3464
L111.9418 37.4811
" />
<path d="M111.9418 37.4811
L112.0226 37.5619
" />
<path d="M112.0226 37.5619
L112.1573 37.6428
" />
<path d="M112.1573 37.6428
L112.2381 37.6697
" />
<path d="M112.2381 37.6697
L112.3458 37.6697
" />
<path d="M112.3458 37.6697
L112.4536 37.6158
" />
<path d="M112.4536 37.6158
L112.5074 37.5619
" />
<path d="M112.5074 37.5619
L112.5613 37.4542
" />
<path d="M112.5613 37.4542
L112.5613 37.4003
" />
<path d="M112.5613 37.4003
L112.3728 37.2118
" />
<path d="M112.3728 37.2118
L112.2650 37.3195
" />
<path d="M112.8576 37.2118
L112.2919 36.6461
" />
<path d="M112.2919 36.6461
L112.5074 36.4306
" />
<path d="M112.5074 36.4306
L112.5883 36.4036
" />
<path d="M112.5883 36.4036
L112.6421 36.4036
" />
<path d="M112.6421 36.4036
L112.7229 36.4306
" />
<path d="M112.7229 36.4306
L112.8038 36.5114
" />
<path d="M112.8038 36.5114
L112.8307 36.5922
" />
<path d="M112.8307 36.5922
L112.8307 36.6461
" />
<path d="M112.8307 36.6461
L112.8038 36.7269
" />
<path d="M112.8038 36.7269
L112.5883 36.9424
" />
<path d="M112.8846 36.1612
L112.8846 36.1073
" />
<path d="M112.8846 36.1073
L112.9115 36.0265
" />
<path d="M112.9115 36.0265
L113.0462 35.8918
" />
<path d="M113.0462 35.8918
L113.1270 35.8649
" />
<path d="M113.1270 35.8649
L113.1809 35.8649
" />
<path d="M113.1809 35.8649
L113.2617 35.8918
" />
<path d="M113.2617 35.8918
L113.3156 35.9457
" />
<path d="M113.3156 35.9457
L113.3694 36.0534
" />
<path d="M113.3694 36.0534
L113.3694 36.6999
" />
<path d="M113.3694 36.6999
L113.7196 36.3498
" />
<path d="M113.7196 35.7033
L113.6388 35.7302
" />
<path d="M113.6388 35.7302
L113.5849 35.7302
" />
<path d="M113.5849 35.7302
L113.5041 35.7033
" />
<path d="M113.5041 35.7033
L113.4772 35.6763
" />
<path d="M113.4772 35.6763
L113.4503 35.5955
" />
<path d="M113.4503 35.5955
L113.4503 35.5416
" />
<path d="M113.4503 35.5416
L113.4772 35.4608
" />
<path d="M113.4772 35.4608
L113.5849 35.3531
" />
<path d="M113.5849 35.3531
L113.6658 35.3261
" />
<path d="M113.6658 35.3261
L113.7196 35.3261
" />
<path d="M113.7196 35.3261
L113.8004 35.3531
" />
<path d="M113.8004 35.3531
L113.8274 35.3800
" />
<path d="M113.8274 35.3800
L113.8543 35.4608
" />
<path d="M113.8543 35.4608
L113.8543 35.5147
" />
<path d="M113.8543 35.5147
L113.8274 35.5955
" />
<path d="M113.8274 35.5955
L113.7196 35.7033
" />
<path d="M113.7196 35.7033
L113.6927 35.7841
" />
<path d="M113.6927 35.7841
L113.6927 35.8379
" />
<path d="M113.6927 35.8379
L113.7196 35.9188
" />
<path d="M113.7196 35.9188
L113.8274 36.0265
" />
<path d="M113.8274 36.0265
L113.9082 36.0534
" />
<path d="M113.9082 36.0534
L113.9621 36.0534
" />
<path d="M113.9621 36.0534
L114.0429 36.0265
" />
<path d="M114.0429 36.0265
L114.1506 35.9188
" />
<path d="M114.1506 35.9188
L114.1776 35.8379
" />
<path d="M114.1776 35.8379
L114.1776 35.7841
" />
<path d="M114.1776 35.7841
L114.1506 35.7033
" />
<path d="M114.1506 35.7033
L114.0429 35.5955
" />
<path d="M114.0429 35.5955
L113.9621 35.5686
" />
<path d="M113.9621 35.5686
L113.9082 35.5686
" />
<path d="M113.9082 35.5686
L113.8274 35.5955
" />
</g><g transform="rotate(-45.000000 81.1100 61.6460)">
<text x="81.1100" y="62.0460"
textLength="3.3388" font-size="1.0667" lengthAdjust="spacingAndGlyphs"
text-anchor="middle" opacity="0">GP14</text>
</g>
<g class="stroked-text"><desc>GP14</desc>
<path d="M80.1595 62.0424
L80.0787 62.0693
" />
<path d="M80.0787 62.0693
L79.9979 62.1501
" />
<path d="M79.9979 62.1501
L79.9440 62.2579
" />
<path d="M79.9440 62.2579
L79.9440 62.3656
" />
<path d="M79.9440 62.3656
L79.9710 62.4464
" />
<path d="M79.9710 62.4464
L80.0518 62.5811
" />
<path d="M80.0518 62.5811
L80.1326 62.6619
" />
<path d="M80.1326 62.6619
L80.2673 62.7428
" />
<path d="M80.2673 62.7428
L80.3481 62.7697
" />
<path d="M80.3481 62.7697
L80.4558 62.7697
" />
<path d="M80.4558 62.7697
L80.5636 62.7158
" />
<path d="M80.5636 62.7158
L80.6174 62.6619
" />
<path d="M80.6174 62.6619
L80.6713 62.5542
" />
<path d="M80.6713 62.5542
L80.6713 62.5003
" />
<path d="M80.6713 62.5003
L80.4828 62.3118
" />
<path d="M80.4828 62.3118
L80.3750 62.4195
" />
<path d="M80.9676 62.3118
L80.4019 61.7461
" />
<path d="M80.4019 61.7461
L80.6174 61.5306
" />
<path d="M80.6174 61.5306
L80.6983 61.5036
" />
<path d="M80.6983 61.5036
L80.7521 61.5036
" />
<path d="M80.7521 61.5036
L80.8329 61.5306
" />
<path d="M80.8329 61.5306
L80.9138 61.6114
" />
<path d="M80.9138 61.6114
L80.9407 61.6922
" />
<path d="M80.9407 61.6922
L80.9407 61.7461
" />
<path d="M80.9407 61.7461
L80.9138 61.8269
" />
<path d="M80.9138 61.8269
L80.6983 62.0424
" />
<path d="M81.8296 61.4498
L81.5064 61.7730
" />
<path d="M81.6680 61.6114
L81.1023 61.0457
" />
<path d="M81.1023 61.0457
L81.1293 61.1804
" />
<path d="M81.1293 61.1804
L81.1293 61.2881
" />
<path d="M81.1293 61.2881
L81.1023 61.3689
" />
<path d="M81.9374 60.5878
L82.3145 60.9649
" />
<path d="M81.5872 60.5070
L81.8566 61.0457
" />
<path d="M81.8566 61.0457
L82.2068 60.6955
" />
</g><g transform="rotate(-90.000000 76.8000 54.7000)">
<text x="76.8000" y="55.1000"
textLength="4.1388" font-size="1.0667" lengthAdjust="spacingAndGlyphs"
text-anchor="middle" opacity="0">SWCLK</text>
</g>
<g class="stroked-text"><desc>SWCLK</desc>
<path d="M77.1320 56.5095
L77.1701 56.3952
" />
<path d="M77.1701 56.3952
L77.1701 56.2048
" />
<path d="M77.1701 56.2048
L77.1320 56.1286
" />
<path d="M77.1320 56.1286
L77.0939 56.0905
" />
<path d="M77.0939 56.0905
L77.0177 56.0524
" />
<path d="M77.0177 56.0524
L76.9415 56.0524
" />
<path d="M76.9415 56.0524
L76.8653 56.0905
" />
<path d="M76.8653 56.0905
L76.8272 56.1286
" />
<path d="M76.8272 56.1286
L76.7891 56.2048
" />
<path d="M76.7891 56.2048
L76.7510 56.3571
" />
<path d="M76.7510 56.3571
L76.7130 56.4333
" />
<path d="M76.7130 56.4333
L76.6749 56.4714
" />
<path d="M76.6749 56.4714
L76.5987 56.5095
" />
<path d="M76.5987 56.5095
L76.5225 56.5095
" />
<path d="M76.5225 56.5095
L76.4463 56.4714
" />
<path d="M76.4463 56.4714
L76.4082 56.4333
" />
<path d="M76.4082 56.4333
L76.3701 56.3571
" />
<path d="M76.3701 56.3571
L76.3701 56.1667
" />
<path d="M76.3701 56.1667
L76.4082 56.0524
" />
<path d="M76.3701 55.7857
L77.1701 55.5952
" />
<path d="M77.1701 55.5952
L76.5987 55.4429
" />
<path d="M76.5987 55.4429
L77.1701 55.2905
" />
<path d="M77.1701 55.2905
L76.3701 55.1000
" />
<path d="M77.0939 54.3381
L77.1320 54.3762
" />
<path d="M77.1320 54.3762
L77.1701 54.4905
" />
<path d="M77.1701 54.4905
L77.1701 54.5667
" />
<path d="M77.1701 54.5667
L77.1320 54.6810
" />
<path d="M77.1320 54.6810
L77.0558 54.7571
" />
<path d="M77.0558 54.7571
L76.9796 54.7952
" />
<path d="M76.9796 54.7952
L76.8272 54.8333
" />
<path d="M76.8272 54.8333
L76.7130 54.8333
" />
<path d="M76.7130 54.8333
L76.5606 54.7952
" />
<path d="M76.5606 54.7952
L76.4844 54.7571
" />
<path d="M76.4844 54.7571
L76.4082 54.6810
" />
<path d="M76.4082 54.6810
L76.3701 54.5667
" />
<path d="M76.3701 54.5667
L76.3701 54.4905
" />
<path d="M76.3701 54.4905
L76.4082 54.3762
" />
<path d="M76.4082 54.3762
L76.4463 54.3381
" />
<path d="M77.1701 53.6143
L77.1701 53.9952
" />
<path d="M77.1701 53.9952
L76.3701 53.9952
" />
<path d="M77.1701 53.3476
L76.3701 53.3476
" />
<path d="M77.1701 52.8905
L76.7130 53.2333
" />
<path d="M76.3701 52.8905
L76.8272 53.3476
" />
</g><circle cx="168.0200" cy="121.5000" r="2.3500" /> 
<circle cx="133.0000" cy="23.0000" r="2.3500" /> 
<circle cx="42.0000" cy="63.5000" r="2.3500" /> 
<circle cx="118.9800" cy="121.5200" r="2.3500" /> 
<circle cx="77.0000" cy="23.0000" r="2.3500" /> 
<circle cx="167.9000" cy="63.4500" r="2.3500" /> 
<circle cx="42.0000" cy="121.5000" r="2.3500" /> 
<circle cx="118.9000" cy="63.5656" r="2.3500" /> 
<circle cx="167.9000" cy="23.0000" r="2.3500" /> 
<g >
</g>
<g >
</g>
<g >
</g>
<g >
</g>
<g >
</g>
<g >
</g>
<g >
</g>
<g >
</g>
<g >
</g>
<g >
</g>
<g >
</g>
<g >
</g>
<g >
</g>
<g >
</g>
<g >
</g>
<g >
</g>
<g >
</g>
<g >
</g>
<g >
</g>
<g >
</g>
<g >
</g>
<g >
</g>
<g >
</g>
<g >
</g>
<g >
</g>
<g >
</g>
<g >
</g>
<g >
</g>
<g >
</g>
<g >
</g>
<g >
</g>
<g >
</g>
<g >
</g>
<g >
</g>
<g >
</g>
<g >
</g>
<g >
</g>
<g >
</g>
<g >
</g>
<g >
</g>
<g >
</g>
<g >
</g>
<g >
</g>
<g >
</g>
<g >
</g>
<g >
</g>
<g >
</g>
<g >
</g>
<g >
</g>
<g >
</g>
<g >
</g>
<g >
</g>
<g >
</g>
<g >
</g>
<g >
</g>
<g >
</g>
<g >
</g>
<g >
</g>
<g >
</g>
<g >
</g>
<g >
</g>
<g >
</g>
<g >
</g>
<g >
</g>
<g >
</g>
<g >
</g>
<g >
</g>
<g >
</g>
<g >
</g>
<g >
</g>
<g >
</g>
<g >
</g>
<g >
</g>
<g >
</g>
<g >
</g>
<g >
</g>
<g >
</g>
<g >
</g>
<g >
</g>
<g >
</g>
<g >
</g>
<g >
</g>
<g >
</g>
</g> 
</svg>
