<?xml version="1.0" standalone="no"?>
 <!DOCTYPE svg PUBLIC "-//W3C//DTD SVG 1.1//EN" 
 "http://www.w3.org/Graphics/SVG/1.1/DTD/svg11.dtd"> 
<svg
  xmlns:svg="http://www.w3.org/2000/svg"
  xmlns="http://www.w3.org/2000/svg"
  xmlns:xlink="http://www.w3.org/1999/xlink"
  version="1.1"
  width="297.0022mm" height="210.0072mm" viewBox="0.0000 0.0000 297.0022 210.0072">
<title>SVG Image created as pedalboard-hw-B_Silkscreen.svg date 2023/04/16 11:06:09 </title>
  <desc>Image generated by PCBNEW </desc>
<g style="fill:#000000; fill-opacity:1.0000;stroke:#000000; stroke-opacity:1.0000;
stroke-linecap:round; stroke-linejoin:round;"
 transform="translate(0 0) scale(1 1)">
</g>
<g style="fill:#000000; fill-opacity:0.0; 
stroke:#000000; stroke-width:0.0000; stroke-opacity:1; 
stroke-linecap:round; stroke-linejoin:round;">
</g>
<g style="fill:#000000; fill-opacity:0.0; 
stroke:#000000; stroke-width:0.1500; stroke-opacity:1; 
stroke-linecap:round; stroke-linejoin:round;">
<g transform="rotate(90.000000 241.6810 71.4756)">
<text x="241.6810" y="71.4756"
transform="scale(-1 1) translate(-483.362000 0)"
textLength="3.2226" font-size="1.3333" lengthAdjust="spacingAndGlyphs"
text-anchor="start" opacity="0">GND</text>
</g>
<g class="stroked-text"><desc>GND</desc>
<path d="M240.6062 70.7137
L240.5586 70.8089
" />
<path d="M240.5586 70.8089
L240.5586 70.9518
" />
<path d="M240.5586 70.9518
L240.6062 71.0946
" />
<path d="M240.6062 71.0946
L240.7015 71.1899
" />
<path d="M240.7015 71.1899
L240.7967 71.2375
" />
<path d="M240.7967 71.2375
L240.9872 71.2851
" />
<path d="M240.9872 71.2851
L241.1300 71.2851
" />
<path d="M241.1300 71.2851
L241.3205 71.2375
" />
<path d="M241.3205 71.2375
L241.4158 71.1899
" />
<path d="M241.4158 71.1899
L241.5110 71.0946
" />
<path d="M241.5110 71.0946
L241.5586 70.9518
" />
<path d="M241.5586 70.9518
L241.5586 70.8566
" />
<path d="M241.5586 70.8566
L241.5110 70.7137
" />
<path d="M241.5110 70.7137
L241.4634 70.6661
" />
<path d="M241.4634 70.6661
L241.1300 70.6661
" />
<path d="M241.1300 70.6661
L241.1300 70.8566
" />
<path d="M241.5586 70.2375
L240.5586 70.2375
" />
<path d="M240.5586 70.2375
L241.5586 69.6661
" />
<path d="M241.5586 69.6661
L240.5586 69.6661
" />
<path d="M241.5586 69.1899
L240.5586 69.1899
" />
<path d="M240.5586 69.1899
L240.5586 68.9518
" />
<path d="M240.5586 68.9518
L240.6062 68.8089
" />
<path d="M240.6062 68.8089
L240.7015 68.7137
" />
<path d="M240.7015 68.7137
L240.7967 68.6661
" />
<path d="M240.7967 68.6661
L240.9872 68.6185
" />
<path d="M240.9872 68.6185
L241.1300 68.6185
" />
<path d="M241.1300 68.6185
L241.3205 68.6661
" />
<path d="M241.3205 68.6661
L241.4158 68.7137
" />
<path d="M241.4158 68.7137
L241.5110 68.8089
" />
<path d="M241.5110 68.8089
L241.5586 68.9518
" />
<path d="M241.5586 68.9518
L241.5586 69.1899
" />
</g><g transform="rotate(90.000000 244.1194 71.3740)">
<text x="244.1194" y="71.3740"
transform="scale(-1 1) translate(-488.238800 0)"
textLength="6.6988" font-size="1.3333" lengthAdjust="spacingAndGlyphs"
text-anchor="start" opacity="0">Data out</text>
</g>
<g class="stroked-text"><desc>Data out</desc>
<path d="M243.9970 71.1359
L242.9970 71.1359
" />
<path d="M242.9970 71.1359
L242.9970 70.8978
" />
<path d="M242.9970 70.8978
L243.0446 70.7550
" />
<path d="M243.0446 70.7550
L243.1399 70.6597
" />
<path d="M243.1399 70.6597
L243.2351 70.6121
" />
<path d="M243.2351 70.6121
L243.4256 70.5645
" />
<path d="M243.4256 70.5645
L243.5684 70.5645
" />
<path d="M243.5684 70.5645
L243.7589 70.6121
" />
<path d="M243.7589 70.6121
L243.8542 70.6597
" />
<path d="M243.8542 70.6597
L243.9494 70.7550
" />
<path d="M243.9494 70.7550
L243.9970 70.8978
" />
<path d="M243.9970 70.8978
L243.9970 71.1359
" />
<path d="M243.9970 69.7073
L243.4732 69.7073
" />
<path d="M243.4732 69.7073
L243.3780 69.7550
" />
<path d="M243.3780 69.7550
L243.3304 69.8502
" />
<path d="M243.3304 69.8502
L243.3304 70.0407
" />
<path d="M243.3304 70.0407
L243.3780 70.1359
" />
<path d="M243.9494 69.7073
L243.9970 69.8026
" />
<path d="M243.9970 69.8026
L243.9970 70.0407
" />
<path d="M243.9970 70.0407
L243.9494 70.1359
" />
<path d="M243.9494 70.1359
L243.8542 70.1835
" />
<path d="M243.8542 70.1835
L243.7589 70.1835
" />
<path d="M243.7589 70.1835
L243.6637 70.1359
" />
<path d="M243.6637 70.1359
L243.6161 70.0407
" />
<path d="M243.6161 70.0407
L243.6161 69.8026
" />
<path d="M243.6161 69.8026
L243.5684 69.7073
" />
<path d="M243.3304 69.3740
L243.3304 68.9930
" />
<path d="M242.9970 69.2311
L243.8542 69.2311
" />
<path d="M243.8542 69.2311
L243.9494 69.1835
" />
<path d="M243.9494 69.1835
L243.9970 69.0883
" />
<path d="M243.9970 69.0883
L243.9970 68.9930
" />
<path d="M243.9970 68.2311
L243.4732 68.2311
" />
<path d="M243.4732 68.2311
L243.3780 68.2788
" />
<path d="M243.3780 68.2788
L243.3304 68.3740
" />
<path d="M243.3304 68.3740
L243.3304 68.5645
" />
<path d="M243.3304 68.5645
L243.3780 68.6597
" />
<path d="M243.9494 68.2311
L243.9970 68.3264
" />
<path d="M243.9970 68.3264
L243.9970 68.5645
" />
<path d="M243.9970 68.5645
L243.9494 68.6597
" />
<path d="M243.9494 68.6597
L243.8542 68.7073
" />
<path d="M243.8542 68.7073
L243.7589 68.7073
" />
<path d="M243.7589 68.7073
L243.6637 68.6597
" />
<path d="M243.6637 68.6597
L243.6161 68.5645
" />
<path d="M243.6161 68.5645
L243.6161 68.3264
" />
<path d="M243.6161 68.3264
L243.5684 68.2311
" />
<path d="M243.9970 66.8502
L243.9494 66.9454
" />
<path d="M243.9494 66.9454
L243.9018 66.9930
" />
<path d="M243.9018 66.9930
L243.8065 67.0407
" />
<path d="M243.8065 67.0407
L243.5208 67.0407
" />
<path d="M243.5208 67.0407
L243.4256 66.9930
" />
<path d="M243.4256 66.9930
L243.3780 66.9454
" />
<path d="M243.3780 66.9454
L243.3304 66.8502
" />
<path d="M243.3304 66.8502
L243.3304 66.7073
" />
<path d="M243.3304 66.7073
L243.3780 66.6121
" />
<path d="M243.3780 66.6121
L243.4256 66.5645
" />
<path d="M243.4256 66.5645
L243.5208 66.5169
" />
<path d="M243.5208 66.5169
L243.8065 66.5169
" />
<path d="M243.8065 66.5169
L243.9018 66.5645
" />
<path d="M243.9018 66.5645
L243.9494 66.6121
" />
<path d="M243.9494 66.6121
L243.9970 66.7073
" />
<path d="M243.9970 66.7073
L243.9970 66.8502
" />
<path d="M243.3304 65.6597
L243.9970 65.6597
" />
<path d="M243.3304 66.0883
L243.8542 66.0883
" />
<path d="M243.8542 66.0883
L243.9494 66.0407
" />
<path d="M243.9494 66.0407
L243.9970 65.9454
" />
<path d="M243.9970 65.9454
L243.9970 65.8026
" />
<path d="M243.9970 65.8026
L243.9494 65.7073
" />
<path d="M243.9494 65.7073
L243.9018 65.6597
" />
<path d="M243.3304 65.3264
L243.3304 64.9454
" />
<path d="M242.9970 65.1835
L243.8542 65.1835
" />
<path d="M243.8542 65.1835
L243.9494 65.1359
" />
<path d="M243.9494 65.1359
L243.9970 65.0407
" />
<path d="M243.9970 65.0407
L243.9970 64.9454
" />
</g><g transform="rotate(-90.000000 225.0694 49.7332)">
<text x="225.0694" y="49.7332"
transform="scale(-1 1) translate(-450.138800 0)"
textLength="1.6988" font-size="1.3333" lengthAdjust="spacingAndGlyphs"
text-anchor="start" opacity="0">IN</text>
</g>
<g class="stroked-text"><desc>IN</desc>
<path d="M225.1918 49.9713
L226.1918 49.9713
" />
<path d="M225.1918 50.4475
L226.1918 50.4475
" />
<path d="M226.1918 50.4475
L225.1918 51.0189
" />
<path d="M225.1918 51.0189
L226.1918 51.0189
" />
</g><g transform="rotate(-90.000000 107.7722 36.5760)">
<text x="107.7722" y="36.5760"
transform="scale(-1 1) translate(-215.544400 0)"
textLength="3.2226" font-size="1.3333" lengthAdjust="spacingAndGlyphs"
text-anchor="start" opacity="0">GND</text>
</g>
<g class="stroked-text"><desc>GND</desc>
<path d="M108.8470 37.3379
L108.8946 37.2427
" />
<path d="M108.8946 37.2427
L108.8946 37.0998
" />
<path d="M108.8946 37.0998
L108.8470 36.9570
" />
<path d="M108.8470 36.9570
L108.7517 36.8617
" />
<path d="M108.7517 36.8617
L108.6565 36.8141
" />
<path d="M108.6565 36.8141
L108.4660 36.7665
" />
<path d="M108.4660 36.7665
L108.3232 36.7665
" />
<path d="M108.3232 36.7665
L108.1327 36.8141
" />
<path d="M108.1327 36.8141
L108.0374 36.8617
" />
<path d="M108.0374 36.8617
L107.9422 36.9570
" />
<path d="M107.9422 36.9570
L107.8946 37.0998
" />
<path d="M107.8946 37.0998
L107.8946 37.1950
" />
<path d="M107.8946 37.1950
L107.9422 37.3379
" />
<path d="M107.9422 37.3379
L107.9898 37.3855
" />
<path d="M107.9898 37.3855
L108.3232 37.3855
" />
<path d="M108.3232 37.3855
L108.3232 37.1950
" />
<path d="M107.8946 37.8141
L108.8946 37.8141
" />
<path d="M108.8946 37.8141
L107.8946 38.3855
" />
<path d="M107.8946 38.3855
L108.8946 38.3855
" />
<path d="M107.8946 38.8617
L108.8946 38.8617
" />
<path d="M108.8946 38.8617
L108.8946 39.0998
" />
<path d="M108.8946 39.0998
L108.8470 39.2427
" />
<path d="M108.8470 39.2427
L108.7517 39.3379
" />
<path d="M108.7517 39.3379
L108.6565 39.3855
" />
<path d="M108.6565 39.3855
L108.4660 39.4331
" />
<path d="M108.4660 39.4331
L108.3232 39.4331
" />
<path d="M108.3232 39.4331
L108.1327 39.3855
" />
<path d="M108.1327 39.3855
L108.0374 39.3379
" />
<path d="M108.0374 39.3379
L107.9422 39.2427
" />
<path d="M107.9422 39.2427
L107.8946 39.0998
" />
<path d="M107.8946 39.0998
L107.8946 38.8617
" />
</g><text x="151.9682" y="54.3052"
transform="scale(-1 1) translate(-303.936400 0)"
textLength="5.2226" font-size="1.3333" lengthAdjust="spacingAndGlyphs"
text-anchor="start" opacity="0">RPI 5V</text>
<g class="stroked-text"><desc>RPI 5V</desc>
<path d="M152.7777 54.1828
L152.4444 53.7066
" />
<path d="M152.2063 54.1828
L152.2063 53.1828
" />
<path d="M152.2063 53.1828
L152.5872 53.1828
" />
<path d="M152.5872 53.1828
L152.6825 53.2304
" />
<path d="M152.6825 53.2304
L152.7301 53.2781
" />
<path d="M152.7301 53.2781
L152.7777 53.3733
" />
<path d="M152.7777 53.3733
L152.7777 53.5162
" />
<path d="M152.7777 53.5162
L152.7301 53.6114
" />
<path d="M152.7301 53.6114
L152.6825 53.6590
" />
<path d="M152.6825 53.6590
L152.5872 53.7066
" />
<path d="M152.5872 53.7066
L152.2063 53.7066
" />
<path d="M153.2063 54.1828
L153.2063 53.1828
" />
<path d="M153.2063 53.1828
L153.5872 53.1828
" />
<path d="M153.5872 53.1828
L153.6825 53.2304
" />
<path d="M153.6825 53.2304
L153.7301 53.2781
" />
<path d="M153.7301 53.2781
L153.7777 53.3733
" />
<path d="M153.7777 53.3733
L153.7777 53.5162
" />
<path d="M153.7777 53.5162
L153.7301 53.6114
" />
<path d="M153.7301 53.6114
L153.6825 53.6590
" />
<path d="M153.6825 53.6590
L153.5872 53.7066
" />
<path d="M153.5872 53.7066
L153.2063 53.7066
" />
<path d="M154.2063 54.1828
L154.2063 53.1828
" />
<path d="M155.9206 53.1828
L155.4444 53.1828
" />
<path d="M155.4444 53.1828
L155.3968 53.6590
" />
<path d="M155.3968 53.6590
L155.4444 53.6114
" />
<path d="M155.4444 53.6114
L155.5396 53.5638
" />
<path d="M155.5396 53.5638
L155.7777 53.5638
" />
<path d="M155.7777 53.5638
L155.8730 53.6114
" />
<path d="M155.8730 53.6114
L155.9206 53.6590
" />
<path d="M155.9206 53.6590
L155.9682 53.7542
" />
<path d="M155.9682 53.7542
L155.9682 53.9923
" />
<path d="M155.9682 53.9923
L155.9206 54.0876
" />
<path d="M155.9206 54.0876
L155.8730 54.1352
" />
<path d="M155.8730 54.1352
L155.7777 54.1828
" />
<path d="M155.7777 54.1828
L155.5396 54.1828
" />
<path d="M155.5396 54.1828
L155.4444 54.1352
" />
<path d="M155.4444 54.1352
L155.3968 54.0876
" />
<path d="M156.2539 53.1828
L156.5872 54.1828
" />
<path d="M156.5872 54.1828
L156.9206 53.1828
" />
</g><text x="184.1754" y="73.3156"
transform="scale(-1 1) translate(-368.350800 0)"
textLength="13.0798" font-size="1.3333" lengthAdjust="spacingAndGlyphs"
text-anchor="start" opacity="0">Open Pedalboard</text>
<g class="stroked-text"><desc>Open Pedalboard</desc>
<path d="M184.6040 72.1932
L184.7944 72.1932
" />
<path d="M184.7944 72.1932
L184.8897 72.2408
" />
<path d="M184.8897 72.2408
L184.9849 72.3361
" />
<path d="M184.9849 72.3361
L185.0325 72.5266
" />
<path d="M185.0325 72.5266
L185.0325 72.8599
" />
<path d="M185.0325 72.8599
L184.9849 73.0504
" />
<path d="M184.9849 73.0504
L184.8897 73.1456
" />
<path d="M184.8897 73.1456
L184.7944 73.1932
" />
<path d="M184.7944 73.1932
L184.6040 73.1932
" />
<path d="M184.6040 73.1932
L184.5087 73.1456
" />
<path d="M184.5087 73.1456
L184.4135 73.0504
" />
<path d="M184.4135 73.0504
L184.3659 72.8599
" />
<path d="M184.3659 72.8599
L184.3659 72.5266
" />
<path d="M184.3659 72.5266
L184.4135 72.3361
" />
<path d="M184.4135 72.3361
L184.5087 72.2408
" />
<path d="M184.5087 72.2408
L184.6040 72.1932
" />
<path d="M185.4611 72.5266
L185.4611 73.5266
" />
<path d="M185.4611 72.5742
L185.5564 72.5266
" />
<path d="M185.5564 72.5266
L185.7468 72.5266
" />
<path d="M185.7468 72.5266
L185.8421 72.5742
" />
<path d="M185.8421 72.5742
L185.8897 72.6218
" />
<path d="M185.8897 72.6218
L185.9373 72.7170
" />
<path d="M185.9373 72.7170
L185.9373 73.0027
" />
<path d="M185.9373 73.0027
L185.8897 73.0980
" />
<path d="M185.8897 73.0980
L185.8421 73.1456
" />
<path d="M185.8421 73.1456
L185.7468 73.1932
" />
<path d="M185.7468 73.1932
L185.5564 73.1932
" />
<path d="M185.5564 73.1932
L185.4611 73.1456
" />
<path d="M186.7468 73.1456
L186.6516 73.1932
" />
<path d="M186.6516 73.1932
L186.4611 73.1932
" />
<path d="M186.4611 73.1932
L186.3659 73.1456
" />
<path d="M186.3659 73.1456
L186.3183 73.0504
" />
<path d="M186.3183 73.0504
L186.3183 72.6694
" />
<path d="M186.3183 72.6694
L186.3659 72.5742
" />
<path d="M186.3659 72.5742
L186.4611 72.5266
" />
<path d="M186.4611 72.5266
L186.6516 72.5266
" />
<path d="M186.6516 72.5266
L186.7468 72.5742
" />
<path d="M186.7468 72.5742
L186.7944 72.6694
" />
<path d="M186.7944 72.6694
L186.7944 72.7646
" />
<path d="M186.7944 72.7646
L186.3183 72.8599
" />
<path d="M187.2230 72.5266
L187.2230 73.1932
" />
<path d="M187.2230 72.6218
L187.2706 72.5742
" />
<path d="M187.2706 72.5742
L187.3659 72.5266
" />
<path d="M187.3659 72.5266
L187.5087 72.5266
" />
<path d="M187.5087 72.5266
L187.6040 72.5742
" />
<path d="M187.6040 72.5742
L187.6516 72.6694
" />
<path d="M187.6516 72.6694
L187.6516 73.1932
" />
<path d="M188.8897 73.1932
L188.8897 72.1932
" />
<path d="M188.8897 72.1932
L189.2706 72.1932
" />
<path d="M189.2706 72.1932
L189.3659 72.2408
" />
<path d="M189.3659 72.2408
L189.4135 72.2885
" />
<path d="M189.4135 72.2885
L189.4611 72.3837
" />
<path d="M189.4611 72.3837
L189.4611 72.5266
" />
<path d="M189.4611 72.5266
L189.4135 72.6218
" />
<path d="M189.4135 72.6218
L189.3659 72.6694
" />
<path d="M189.3659 72.6694
L189.2706 72.7170
" />
<path d="M189.2706 72.7170
L188.8897 72.7170
" />
<path d="M190.2706 73.1456
L190.1754 73.1932
" />
<path d="M190.1754 73.1932
L189.9849 73.1932
" />
<path d="M189.9849 73.1932
L189.8897 73.1456
" />
<path d="M189.8897 73.1456
L189.8421 73.0504
" />
<path d="M189.8421 73.0504
L189.8421 72.6694
" />
<path d="M189.8421 72.6694
L189.8897 72.5742
" />
<path d="M189.8897 72.5742
L189.9849 72.5266
" />
<path d="M189.9849 72.5266
L190.1754 72.5266
" />
<path d="M190.1754 72.5266
L190.2706 72.5742
" />
<path d="M190.2706 72.5742
L190.3183 72.6694
" />
<path d="M190.3183 72.6694
L190.3183 72.7646
" />
<path d="M190.3183 72.7646
L189.8421 72.8599
" />
<path d="M191.1754 73.1932
L191.1754 72.1932
" />
<path d="M191.1754 73.1456
L191.0802 73.1932
" />
<path d="M191.0802 73.1932
L190.8897 73.1932
" />
<path d="M190.8897 73.1932
L190.7944 73.1456
" />
<path d="M190.7944 73.1456
L190.7468 73.0980
" />
<path d="M190.7468 73.0980
L190.6992 73.0027
" />
<path d="M190.6992 73.0027
L190.6992 72.7170
" />
<path d="M190.6992 72.7170
L190.7468 72.6218
" />
<path d="M190.7468 72.6218
L190.7944 72.5742
" />
<path d="M190.7944 72.5742
L190.8897 72.5266
" />
<path d="M190.8897 72.5266
L191.0802 72.5266
" />
<path d="M191.0802 72.5266
L191.1754 72.5742
" />
<path d="M192.0802 73.1932
L192.0802 72.6694
" />
<path d="M192.0802 72.6694
L192.0325 72.5742
" />
<path d="M192.0325 72.5742
L191.9373 72.5266
" />
<path d="M191.9373 72.5266
L191.7468 72.5266
" />
<path d="M191.7468 72.5266
L191.6516 72.5742
" />
<path d="M192.0802 73.1456
L191.9849 73.1932
" />
<path d="M191.9849 73.1932
L191.7468 73.1932
" />
<path d="M191.7468 73.1932
L191.6516 73.1456
" />
<path d="M191.6516 73.1456
L191.6040 73.0504
" />
<path d="M191.6040 73.0504
L191.6040 72.9551
" />
<path d="M191.6040 72.9551
L191.6516 72.8599
" />
<path d="M191.6516 72.8599
L191.7468 72.8123
" />
<path d="M191.7468 72.8123
L191.9849 72.8123
" />
<path d="M191.9849 72.8123
L192.0802 72.7646
" />
<path d="M192.6992 73.1932
L192.6040 73.1456
" />
<path d="M192.6040 73.1456
L192.5564 73.0504
" />
<path d="M192.5564 73.0504
L192.5564 72.1932
" />
<path d="M193.0802 73.1932
L193.0802 72.1932
" />
<path d="M193.0802 72.5742
L193.1754 72.5266
" />
<path d="M193.1754 72.5266
L193.3659 72.5266
" />
<path d="M193.3659 72.5266
L193.4611 72.5742
" />
<path d="M193.4611 72.5742
L193.5087 72.6218
" />
<path d="M193.5087 72.6218
L193.5564 72.7170
" />
<path d="M193.5564 72.7170
L193.5564 73.0027
" />
<path d="M193.5564 73.0027
L193.5087 73.0980
" />
<path d="M193.5087 73.0980
L193.4611 73.1456
" />
<path d="M193.4611 73.1456
L193.3659 73.1932
" />
<path d="M193.3659 73.1932
L193.1754 73.1932
" />
<path d="M193.1754 73.1932
L193.0802 73.1456
" />
<path d="M194.1278 73.1932
L194.0325 73.1456
" />
<path d="M194.0325 73.1456
L193.9849 73.0980
" />
<path d="M193.9849 73.0980
L193.9373 73.0027
" />
<path d="M193.9373 73.0027
L193.9373 72.7170
" />
<path d="M193.9373 72.7170
L193.9849 72.6218
" />
<path d="M193.9849 72.6218
L194.0325 72.5742
" />
<path d="M194.0325 72.5742
L194.1278 72.5266
" />
<path d="M194.1278 72.5266
L194.2706 72.5266
" />
<path d="M194.2706 72.5266
L194.3659 72.5742
" />
<path d="M194.3659 72.5742
L194.4135 72.6218
" />
<path d="M194.4135 72.6218
L194.4611 72.7170
" />
<path d="M194.4611 72.7170
L194.4611 73.0027
" />
<path d="M194.4611 73.0027
L194.4135 73.0980
" />
<path d="M194.4135 73.0980
L194.3659 73.1456
" />
<path d="M194.3659 73.1456
L194.2706 73.1932
" />
<path d="M194.2706 73.1932
L194.1278 73.1932
" />
<path d="M195.3183 73.1932
L195.3183 72.6694
" />
<path d="M195.3183 72.6694
L195.2706 72.5742
" />
<path d="M195.2706 72.5742
L195.1754 72.5266
" />
<path d="M195.1754 72.5266
L194.9849 72.5266
" />
<path d="M194.9849 72.5266
L194.8897 72.5742
" />
<path d="M195.3183 73.1456
L195.2230 73.1932
" />
<path d="M195.2230 73.1932
L194.9849 73.1932
" />
<path d="M194.9849 73.1932
L194.8897 73.1456
" />
<path d="M194.8897 73.1456
L194.8421 73.0504
" />
<path d="M194.8421 73.0504
L194.8421 72.9551
" />
<path d="M194.8421 72.9551
L194.8897 72.8599
" />
<path d="M194.8897 72.8599
L194.9849 72.8123
" />
<path d="M194.9849 72.8123
L195.2230 72.8123
" />
<path d="M195.2230 72.8123
L195.3183 72.7646
" />
<path d="M195.7944 73.1932
L195.7944 72.5266
" />
<path d="M195.7944 72.7170
L195.8421 72.6218
" />
<path d="M195.8421 72.6218
L195.8897 72.5742
" />
<path d="M195.8897 72.5742
L195.9849 72.5266
" />
<path d="M195.9849 72.5266
L196.0802 72.5266
" />
<path d="M196.8421 73.1932
L196.8421 72.1932
" />
<path d="M196.8421 73.1456
L196.7468 73.1932
" />
<path d="M196.7468 73.1932
L196.5564 73.1932
" />
<path d="M196.5564 73.1932
L196.4611 73.1456
" />
<path d="M196.4611 73.1456
L196.4135 73.0980
" />
<path d="M196.4135 73.0980
L196.3659 73.0027
" />
<path d="M196.3659 73.0027
L196.3659 72.7170
" />
<path d="M196.3659 72.7170
L196.4135 72.6218
" />
<path d="M196.4135 72.6218
L196.4611 72.5742
" />
<path d="M196.4611 72.5742
L196.5564 72.5266
" />
<path d="M196.5564 72.5266
L196.7468 72.5266
" />
<path d="M196.7468 72.5266
L196.8421 72.5742
" />
</g><text x="184.1754" y="74.9356"
transform="scale(-1 1) translate(-368.350800 0)"
textLength="24.1274" font-size="1.3333" lengthAdjust="spacingAndGlyphs"
text-anchor="start" opacity="0">https://github.com/pedalboard</text>
<g class="stroked-text"><desc>https://github.com/pedalboard</desc>
<path d="M184.4135 74.8132
L184.4135 73.8132
" />
<path d="M184.8421 74.8132
L184.8421 74.2894
" />
<path d="M184.8421 74.2894
L184.7944 74.1942
" />
<path d="M184.7944 74.1942
L184.6992 74.1466
" />
<path d="M184.6992 74.1466
L184.5564 74.1466
" />
<path d="M184.5564 74.1466
L184.4611 74.1942
" />
<path d="M184.4611 74.1942
L184.4135 74.2418
" />
<path d="M185.1754 74.1466
L185.5564 74.1466
" />
<path d="M185.3183 73.8132
L185.3183 74.6704
" />
<path d="M185.3183 74.6704
L185.3659 74.7656
" />
<path d="M185.3659 74.7656
L185.4611 74.8132
" />
<path d="M185.4611 74.8132
L185.5564 74.8132
" />
<path d="M185.7468 74.1466
L186.1278 74.1466
" />
<path d="M185.8897 73.8132
L185.8897 74.6704
" />
<path d="M185.8897 74.6704
L185.9373 74.7656
" />
<path d="M185.9373 74.7656
L186.0325 74.8132
" />
<path d="M186.0325 74.8132
L186.1278 74.8132
" />
<path d="M186.4611 74.1466
L186.4611 75.1466
" />
<path d="M186.4611 74.1942
L186.5564 74.1466
" />
<path d="M186.5564 74.1466
L186.7468 74.1466
" />
<path d="M186.7468 74.1466
L186.8421 74.1942
" />
<path d="M186.8421 74.1942
L186.8897 74.2418
" />
<path d="M186.8897 74.2418
L186.9373 74.3370
" />
<path d="M186.9373 74.3370
L186.9373 74.6227
" />
<path d="M186.9373 74.6227
L186.8897 74.7180
" />
<path d="M186.8897 74.7180
L186.8421 74.7656
" />
<path d="M186.8421 74.7656
L186.7468 74.8132
" />
<path d="M186.7468 74.8132
L186.5564 74.8132
" />
<path d="M186.5564 74.8132
L186.4611 74.7656
" />
<path d="M187.3183 74.7656
L187.4135 74.8132
" />
<path d="M187.4135 74.8132
L187.6040 74.8132
" />
<path d="M187.6040 74.8132
L187.6992 74.7656
" />
<path d="M187.6992 74.7656
L187.7468 74.6704
" />
<path d="M187.7468 74.6704
L187.7468 74.6227
" />
<path d="M187.7468 74.6227
L187.6992 74.5275
" />
<path d="M187.6992 74.5275
L187.6040 74.4799
" />
<path d="M187.6040 74.4799
L187.4611 74.4799
" />
<path d="M187.4611 74.4799
L187.3659 74.4323
" />
<path d="M187.3659 74.4323
L187.3183 74.3370
" />
<path d="M187.3183 74.3370
L187.3183 74.2894
" />
<path d="M187.3183 74.2894
L187.3659 74.1942
" />
<path d="M187.3659 74.1942
L187.4611 74.1466
" />
<path d="M187.4611 74.1466
L187.6040 74.1466
" />
<path d="M187.6040 74.1466
L187.6992 74.1942
" />
<path d="M188.1754 74.7180
L188.2230 74.7656
" />
<path d="M188.2230 74.7656
L188.1754 74.8132
" />
<path d="M188.1754 74.8132
L188.1278 74.7656
" />
<path d="M188.1278 74.7656
L188.1754 74.7180
" />
<path d="M188.1754 74.7180
L188.1754 74.8132
" />
<path d="M188.1754 74.1942
L188.2230 74.2418
" />
<path d="M188.2230 74.2418
L188.1754 74.2894
" />
<path d="M188.1754 74.2894
L188.1278 74.2418
" />
<path d="M188.1278 74.2418
L188.1754 74.1942
" />
<path d="M188.1754 74.1942
L188.1754 74.2894
" />
<path d="M189.3659 73.7656
L188.5087 75.0513
" />
<path d="M190.4135 73.7656
L189.5564 75.0513
" />
<path d="M191.1754 74.1466
L191.1754 74.9561
" />
<path d="M191.1754 74.9561
L191.1278 75.0513
" />
<path d="M191.1278 75.0513
L191.0802 75.0989
" />
<path d="M191.0802 75.0989
L190.9849 75.1466
" />
<path d="M190.9849 75.1466
L190.8421 75.1466
" />
<path d="M190.8421 75.1466
L190.7468 75.0989
" />
<path d="M191.1754 74.7656
L191.0802 74.8132
" />
<path d="M191.0802 74.8132
L190.8897 74.8132
" />
<path d="M190.8897 74.8132
L190.7944 74.7656
" />
<path d="M190.7944 74.7656
L190.7468 74.7180
" />
<path d="M190.7468 74.7180
L190.6992 74.6227
" />
<path d="M190.6992 74.6227
L190.6992 74.3370
" />
<path d="M190.6992 74.3370
L190.7468 74.2418
" />
<path d="M190.7468 74.2418
L190.7944 74.1942
" />
<path d="M190.7944 74.1942
L190.8897 74.1466
" />
<path d="M190.8897 74.1466
L191.0802 74.1466
" />
<path d="M191.0802 74.1466
L191.1754 74.1942
" />
<path d="M191.6516 74.8132
L191.6516 74.1466
" />
<path d="M191.6516 73.8132
L191.6040 73.8608
" />
<path d="M191.6040 73.8608
L191.6516 73.9085
" />
<path d="M191.6516 73.9085
L191.6992 73.8608
" />
<path d="M191.6992 73.8608
L191.6516 73.8132
" />
<path d="M191.6516 73.8132
L191.6516 73.9085
" />
<path d="M191.9849 74.1466
L192.3659 74.1466
" />
<path d="M192.1278 73.8132
L192.1278 74.6704
" />
<path d="M192.1278 74.6704
L192.1754 74.7656
" />
<path d="M192.1754 74.7656
L192.2706 74.8132
" />
<path d="M192.2706 74.8132
L192.3659 74.8132
" />
<path d="M192.6992 74.8132
L192.6992 73.8132
" />
<path d="M193.1278 74.8132
L193.1278 74.2894
" />
<path d="M193.1278 74.2894
L193.0802 74.1942
" />
<path d="M193.0802 74.1942
L192.9849 74.1466
" />
<path d="M192.9849 74.1466
L192.8421 74.1466
" />
<path d="M192.8421 74.1466
L192.7468 74.1942
" />
<path d="M192.7468 74.1942
L192.6992 74.2418
" />
<path d="M194.0325 74.1466
L194.0325 74.8132
" />
<path d="M193.6040 74.1466
L193.6040 74.6704
" />
<path d="M193.6040 74.6704
L193.6516 74.7656
" />
<path d="M193.6516 74.7656
L193.7468 74.8132
" />
<path d="M193.7468 74.8132
L193.8897 74.8132
" />
<path d="M193.8897 74.8132
L193.9849 74.7656
" />
<path d="M193.9849 74.7656
L194.0325 74.7180
" />
<path d="M194.5087 74.8132
L194.5087 73.8132
" />
<path d="M194.5087 74.1942
L194.6040 74.1466
" />
<path d="M194.6040 74.1466
L194.7944 74.1466
" />
<path d="M194.7944 74.1466
L194.8897 74.1942
" />
<path d="M194.8897 74.1942
L194.9373 74.2418
" />
<path d="M194.9373 74.2418
L194.9849 74.3370
" />
<path d="M194.9849 74.3370
L194.9849 74.6227
" />
<path d="M194.9849 74.6227
L194.9373 74.7180
" />
<path d="M194.9373 74.7180
L194.8897 74.7656
" />
<path d="M194.8897 74.7656
L194.7944 74.8132
" />
<path d="M194.7944 74.8132
L194.6040 74.8132
" />
<path d="M194.6040 74.8132
L194.5087 74.7656
" />
<path d="M195.4135 74.7180
L195.4611 74.7656
" />
<path d="M195.4611 74.7656
L195.4135 74.8132
" />
<path d="M195.4135 74.8132
L195.3659 74.7656
" />
<path d="M195.3659 74.7656
L195.4135 74.7180
" />
<path d="M195.4135 74.7180
L195.4135 74.8132
" />
<path d="M196.3183 74.7656
L196.2230 74.8132
" />
<path d="M196.2230 74.8132
L196.0325 74.8132
" />
<path d="M196.0325 74.8132
L195.9373 74.7656
" />
<path d="M195.9373 74.7656
L195.8897 74.7180
" />
<path d="M195.8897 74.7180
L195.8421 74.6227
" />
<path d="M195.8421 74.6227
L195.8421 74.3370
" />
<path d="M195.8421 74.3370
L195.8897 74.2418
" />
<path d="M195.8897 74.2418
L195.9373 74.1942
" />
<path d="M195.9373 74.1942
L196.0325 74.1466
" />
<path d="M196.0325 74.1466
L196.2230 74.1466
" />
<path d="M196.2230 74.1466
L196.3183 74.1942
" />
<path d="M196.8897 74.8132
L196.7944 74.7656
" />
<path d="M196.7944 74.7656
L196.7468 74.7180
" />
<path d="M196.7468 74.7180
L196.6992 74.6227
" />
<path d="M196.6992 74.6227
L196.6992 74.3370
" />
<path d="M196.6992 74.3370
L196.7468 74.2418
" />
<path d="M196.7468 74.2418
L196.7944 74.1942
" />
<path d="M196.7944 74.1942
L196.8897 74.1466
" />
<path d="M196.8897 74.1466
L197.0325 74.1466
" />
<path d="M197.0325 74.1466
L197.1278 74.1942
" />
<path d="M197.1278 74.1942
L197.1754 74.2418
" />
<path d="M197.1754 74.2418
L197.2230 74.3370
" />
<path d="M197.2230 74.3370
L197.2230 74.6227
" />
<path d="M197.2230 74.6227
L197.1754 74.7180
" />
<path d="M197.1754 74.7180
L197.1278 74.7656
" />
<path d="M197.1278 74.7656
L197.0325 74.8132
" />
<path d="M197.0325 74.8132
L196.8897 74.8132
" />
<path d="M197.6516 74.8132
L197.6516 74.1466
" />
<path d="M197.6516 74.2418
L197.6992 74.1942
" />
<path d="M197.6992 74.1942
L197.7944 74.1466
" />
<path d="M197.7944 74.1466
L197.9373 74.1466
" />
<path d="M197.9373 74.1466
L198.0325 74.1942
" />
<path d="M198.0325 74.1942
L198.0802 74.2894
" />
<path d="M198.0802 74.2894
L198.0802 74.8132
" />
<path d="M198.0802 74.2894
L198.1278 74.1942
" />
<path d="M198.1278 74.1942
L198.2230 74.1466
" />
<path d="M198.2230 74.1466
L198.3659 74.1466
" />
<path d="M198.3659 74.1466
L198.4611 74.1942
" />
<path d="M198.4611 74.1942
L198.5087 74.2894
" />
<path d="M198.5087 74.2894
L198.5087 74.8132
" />
<path d="M199.6992 73.7656
L198.8421 75.0513
" />
<path d="M200.0325 74.1466
L200.0325 75.1466
" />
<path d="M200.0325 74.1942
L200.1278 74.1466
" />
<path d="M200.1278 74.1466
L200.3183 74.1466
" />
<path d="M200.3183 74.1466
L200.4135 74.1942
" />
<path d="M200.4135 74.1942
L200.4611 74.2418
" />
<path d="M200.4611 74.2418
L200.5087 74.3370
" />
<path d="M200.5087 74.3370
L200.5087 74.6227
" />
<path d="M200.5087 74.6227
L200.4611 74.7180
" />
<path d="M200.4611 74.7180
L200.4135 74.7656
" />
<path d="M200.4135 74.7656
L200.3183 74.8132
" />
<path d="M200.3183 74.8132
L200.1278 74.8132
" />
<path d="M200.1278 74.8132
L200.0325 74.7656
" />
<path d="M201.3183 74.7656
L201.2230 74.8132
" />
<path d="M201.2230 74.8132
L201.0325 74.8132
" />
<path d="M201.0325 74.8132
L200.9373 74.7656
" />
<path d="M200.9373 74.7656
L200.8897 74.6704
" />
<path d="M200.8897 74.6704
L200.8897 74.2894
" />
<path d="M200.8897 74.2894
L200.9373 74.1942
" />
<path d="M200.9373 74.1942
L201.0325 74.1466
" />
<path d="M201.0325 74.1466
L201.2230 74.1466
" />
<path d="M201.2230 74.1466
L201.3183 74.1942
" />
<path d="M201.3183 74.1942
L201.3659 74.2894
" />
<path d="M201.3659 74.2894
L201.3659 74.3846
" />
<path d="M201.3659 74.3846
L200.8897 74.4799
" />
<path d="M202.2230 74.8132
L202.2230 73.8132
" />
<path d="M202.2230 74.7656
L202.1278 74.8132
" />
<path d="M202.1278 74.8132
L201.9373 74.8132
" />
<path d="M201.9373 74.8132
L201.8421 74.7656
" />
<path d="M201.8421 74.7656
L201.7944 74.7180
" />
<path d="M201.7944 74.7180
L201.7468 74.6227
" />
<path d="M201.7468 74.6227
L201.7468 74.3370
" />
<path d="M201.7468 74.3370
L201.7944 74.2418
" />
<path d="M201.7944 74.2418
L201.8421 74.1942
" />
<path d="M201.8421 74.1942
L201.9373 74.1466
" />
<path d="M201.9373 74.1466
L202.1278 74.1466
" />
<path d="M202.1278 74.1466
L202.2230 74.1942
" />
<path d="M203.1278 74.8132
L203.1278 74.2894
" />
<path d="M203.1278 74.2894
L203.0802 74.1942
" />
<path d="M203.0802 74.1942
L202.9849 74.1466
" />
<path d="M202.9849 74.1466
L202.7944 74.1466
" />
<path d="M202.7944 74.1466
L202.6992 74.1942
" />
<path d="M203.1278 74.7656
L203.0325 74.8132
" />
<path d="M203.0325 74.8132
L202.7944 74.8132
" />
<path d="M202.7944 74.8132
L202.6992 74.7656
" />
<path d="M202.6992 74.7656
L202.6516 74.6704
" />
<path d="M202.6516 74.6704
L202.6516 74.5751
" />
<path d="M202.6516 74.5751
L202.6992 74.4799
" />
<path d="M202.6992 74.4799
L202.7944 74.4323
" />
<path d="M202.7944 74.4323
L203.0325 74.4323
" />
<path d="M203.0325 74.4323
L203.1278 74.3846
" />
<path d="M203.7468 74.8132
L203.6516 74.7656
" />
<path d="M203.6516 74.7656
L203.6040 74.6704
" />
<path d="M203.6040 74.6704
L203.6040 73.8132
" />
<path d="M204.1278 74.8132
L204.1278 73.8132
" />
<path d="M204.1278 74.1942
L204.2230 74.1466
" />
<path d="M204.2230 74.1466
L204.4135 74.1466
" />
<path d="M204.4135 74.1466
L204.5087 74.1942
" />
<path d="M204.5087 74.1942
L204.5564 74.2418
" />
<path d="M204.5564 74.2418
L204.6040 74.3370
" />
<path d="M204.6040 74.3370
L204.6040 74.6227
" />
<path d="M204.6040 74.6227
L204.5564 74.7180
" />
<path d="M204.5564 74.7180
L204.5087 74.7656
" />
<path d="M204.5087 74.7656
L204.4135 74.8132
" />
<path d="M204.4135 74.8132
L204.2230 74.8132
" />
<path d="M204.2230 74.8132
L204.1278 74.7656
" />
<path d="M205.1754 74.8132
L205.0802 74.7656
" />
<path d="M205.0802 74.7656
L205.0325 74.7180
" />
<path d="M205.0325 74.7180
L204.9849 74.6227
" />
<path d="M204.9849 74.6227
L204.9849 74.3370
" />
<path d="M204.9849 74.3370
L205.0325 74.2418
" />
<path d="M205.0325 74.2418
L205.0802 74.1942
" />
<path d="M205.0802 74.1942
L205.1754 74.1466
" />
<path d="M205.1754 74.1466
L205.3183 74.1466
" />
<path d="M205.3183 74.1466
L205.4135 74.1942
" />
<path d="M205.4135 74.1942
L205.4611 74.2418
" />
<path d="M205.4611 74.2418
L205.5087 74.3370
" />
<path d="M205.5087 74.3370
L205.5087 74.6227
" />
<path d="M205.5087 74.6227
L205.4611 74.7180
" />
<path d="M205.4611 74.7180
L205.4135 74.7656
" />
<path d="M205.4135 74.7656
L205.3183 74.8132
" />
<path d="M205.3183 74.8132
L205.1754 74.8132
" />
<path d="M206.3659 74.8132
L206.3659 74.2894
" />
<path d="M206.3659 74.2894
L206.3183 74.1942
" />
<path d="M206.3183 74.1942
L206.2230 74.1466
" />
<path d="M206.2230 74.1466
L206.0325 74.1466
" />
<path d="M206.0325 74.1466
L205.9373 74.1942
" />
<path d="M206.3659 74.7656
L206.2706 74.8132
" />
<path d="M206.2706 74.8132
L206.0325 74.8132
" />
<path d="M206.0325 74.8132
L205.9373 74.7656
" />
<path d="M205.9373 74.7656
L205.8897 74.6704
" />
<path d="M205.8897 74.6704
L205.8897 74.5751
" />
<path d="M205.8897 74.5751
L205.9373 74.4799
" />
<path d="M205.9373 74.4799
L206.0325 74.4323
" />
<path d="M206.0325 74.4323
L206.2706 74.4323
" />
<path d="M206.2706 74.4323
L206.3659 74.3846
" />
<path d="M206.8421 74.8132
L206.8421 74.1466
" />
<path d="M206.8421 74.3370
L206.8897 74.2418
" />
<path d="M206.8897 74.2418
L206.9373 74.1942
" />
<path d="M206.9373 74.1942
L207.0325 74.1466
" />
<path d="M207.0325 74.1466
L207.1278 74.1466
" />
<path d="M207.8897 74.8132
L207.8897 73.8132
" />
<path d="M207.8897 74.7656
L207.7944 74.8132
" />
<path d="M207.7944 74.8132
L207.6040 74.8132
" />
<path d="M207.6040 74.8132
L207.5087 74.7656
" />
<path d="M207.5087 74.7656
L207.4611 74.7180
" />
<path d="M207.4611 74.7180
L207.4135 74.6227
" />
<path d="M207.4135 74.6227
L207.4135 74.3370
" />
<path d="M207.4135 74.3370
L207.4611 74.2418
" />
<path d="M207.4611 74.2418
L207.5087 74.1942
" />
<path d="M207.5087 74.1942
L207.6040 74.1466
" />
<path d="M207.6040 74.1466
L207.7944 74.1466
" />
<path d="M207.7944 74.1466
L207.8897 74.1942
" />
</g><text x="184.1754" y="76.5556"
transform="scale(-1 1) translate(-368.350800 0)"
textLength="12.4131" font-size="1.3333" lengthAdjust="spacingAndGlyphs"
text-anchor="start" opacity="0">BCB: 2.0.0-RC1</text>
<g class="stroked-text"><desc>BCB: 2.0.0-RC1</desc>
<path d="M184.7468 75.9094
L184.8897 75.9570
" />
<path d="M184.8897 75.9570
L184.9373 76.0046
" />
<path d="M184.9373 76.0046
L184.9849 76.0999
" />
<path d="M184.9849 76.0999
L184.9849 76.2427
" />
<path d="M184.9849 76.2427
L184.9373 76.3380
" />
<path d="M184.9373 76.3380
L184.8897 76.3856
" />
<path d="M184.8897 76.3856
L184.7944 76.4332
" />
<path d="M184.7944 76.4332
L184.4135 76.4332
" />
<path d="M184.4135 76.4332
L184.4135 75.4332
" />
<path d="M184.4135 75.4332
L184.7468 75.4332
" />
<path d="M184.7468 75.4332
L184.8421 75.4808
" />
<path d="M184.8421 75.4808
L184.8897 75.5285
" />
<path d="M184.8897 75.5285
L184.9373 75.6237
" />
<path d="M184.9373 75.6237
L184.9373 75.7189
" />
<path d="M184.9373 75.7189
L184.8897 75.8142
" />
<path d="M184.8897 75.8142
L184.8421 75.8618
" />
<path d="M184.8421 75.8618
L184.7468 75.9094
" />
<path d="M184.7468 75.9094
L184.4135 75.9094
" />
<path d="M185.9849 76.3380
L185.9373 76.3856
" />
<path d="M185.9373 76.3856
L185.7944 76.4332
" />
<path d="M185.7944 76.4332
L185.6992 76.4332
" />
<path d="M185.6992 76.4332
L185.5564 76.3856
" />
<path d="M185.5564 76.3856
L185.4611 76.2904
" />
<path d="M185.4611 76.2904
L185.4135 76.1951
" />
<path d="M185.4135 76.1951
L185.3659 76.0046
" />
<path d="M185.3659 76.0046
L185.3659 75.8618
" />
<path d="M185.3659 75.8618
L185.4135 75.6713
" />
<path d="M185.4135 75.6713
L185.4611 75.5761
" />
<path d="M185.4611 75.5761
L185.5564 75.4808
" />
<path d="M185.5564 75.4808
L185.6992 75.4332
" />
<path d="M185.6992 75.4332
L185.7944 75.4332
" />
<path d="M185.7944 75.4332
L185.9373 75.4808
" />
<path d="M185.9373 75.4808
L185.9849 75.5285
" />
<path d="M186.7468 75.9094
L186.8897 75.9570
" />
<path d="M186.8897 75.9570
L186.9373 76.0046
" />
<path d="M186.9373 76.0046
L186.9849 76.0999
" />
<path d="M186.9849 76.0999
L186.9849 76.2427
" />
<path d="M186.9849 76.2427
L186.9373 76.3380
" />
<path d="M186.9373 76.3380
L186.8897 76.3856
" />
<path d="M186.8897 76.3856
L186.7944 76.4332
" />
<path d="M186.7944 76.4332
L186.4135 76.4332
" />
<path d="M186.4135 76.4332
L186.4135 75.4332
" />
<path d="M186.4135 75.4332
L186.7468 75.4332
" />
<path d="M186.7468 75.4332
L186.8421 75.4808
" />
<path d="M186.8421 75.4808
L186.8897 75.5285
" />
<path d="M186.8897 75.5285
L186.9373 75.6237
" />
<path d="M186.9373 75.6237
L186.9373 75.7189
" />
<path d="M186.9373 75.7189
L186.8897 75.8142
" />
<path d="M186.8897 75.8142
L186.8421 75.8618
" />
<path d="M186.8421 75.8618
L186.7468 75.9094
" />
<path d="M186.7468 75.9094
L186.4135 75.9094
" />
<path d="M187.4135 76.3380
L187.4611 76.3856
" />
<path d="M187.4611 76.3856
L187.4135 76.4332
" />
<path d="M187.4135 76.4332
L187.3659 76.3856
" />
<path d="M187.3659 76.3856
L187.4135 76.3380
" />
<path d="M187.4135 76.3380
L187.4135 76.4332
" />
<path d="M187.4135 75.8142
L187.4611 75.8618
" />
<path d="M187.4611 75.8618
L187.4135 75.9094
" />
<path d="M187.4135 75.9094
L187.3659 75.8618
" />
<path d="M187.3659 75.8618
L187.4135 75.8142
" />
<path d="M187.4135 75.8142
L187.4135 75.9094
" />
<path d="M188.6040 75.5285
L188.6516 75.4808
" />
<path d="M188.6516 75.4808
L188.7468 75.4332
" />
<path d="M188.7468 75.4332
L188.9849 75.4332
" />
<path d="M188.9849 75.4332
L189.0802 75.4808
" />
<path d="M189.0802 75.4808
L189.1278 75.5285
" />
<path d="M189.1278 75.5285
L189.1754 75.6237
" />
<path d="M189.1754 75.6237
L189.1754 75.7189
" />
<path d="M189.1754 75.7189
L189.1278 75.8618
" />
<path d="M189.1278 75.8618
L188.5564 76.4332
" />
<path d="M188.5564 76.4332
L189.1754 76.4332
" />
<path d="M189.6040 76.3380
L189.6516 76.3856
" />
<path d="M189.6516 76.3856
L189.6040 76.4332
" />
<path d="M189.6040 76.4332
L189.5564 76.3856
" />
<path d="M189.5564 76.3856
L189.6040 76.3380
" />
<path d="M189.6040 76.3380
L189.6040 76.4332
" />
<path d="M190.2706 75.4332
L190.3659 75.4332
" />
<path d="M190.3659 75.4332
L190.4611 75.4808
" />
<path d="M190.4611 75.4808
L190.5087 75.5285
" />
<path d="M190.5087 75.5285
L190.5564 75.6237
" />
<path d="M190.5564 75.6237
L190.6040 75.8142
" />
<path d="M190.6040 75.8142
L190.6040 76.0523
" />
<path d="M190.6040 76.0523
L190.5564 76.2427
" />
<path d="M190.5564 76.2427
L190.5087 76.3380
" />
<path d="M190.5087 76.3380
L190.4611 76.3856
" />
<path d="M190.4611 76.3856
L190.3659 76.4332
" />
<path d="M190.3659 76.4332
L190.2706 76.4332
" />
<path d="M190.2706 76.4332
L190.1754 76.3856
" />
<path d="M190.1754 76.3856
L190.1278 76.3380
" />
<path d="M190.1278 76.3380
L190.0802 76.2427
" />
<path d="M190.0802 76.2427
L190.0325 76.0523
" />
<path d="M190.0325 76.0523
L190.0325 75.8142
" />
<path d="M190.0325 75.8142
L190.0802 75.6237
" />
<path d="M190.0802 75.6237
L190.1278 75.5285
" />
<path d="M190.1278 75.5285
L190.1754 75.4808
" />
<path d="M190.1754 75.4808
L190.2706 75.4332
" />
<path d="M191.0325 76.3380
L191.0802 76.3856
" />
<path d="M191.0802 76.3856
L191.0325 76.4332
" />
<path d="M191.0325 76.4332
L190.9849 76.3856
" />
<path d="M190.9849 76.3856
L191.0325 76.3380
" />
<path d="M191.0325 76.3380
L191.0325 76.4332
" />
<path d="M191.6992 75.4332
L191.7944 75.4332
" />
<path d="M191.7944 75.4332
L191.8897 75.4808
" />
<path d="M191.8897 75.4808
L191.9373 75.5285
" />
<path d="M191.9373 75.5285
L191.9849 75.6237
" />
<path d="M191.9849 75.6237
L192.0325 75.8142
" />
<path d="M192.0325 75.8142
L192.0325 76.0523
" />
<path d="M192.0325 76.0523
L191.9849 76.2427
" />
<path d="M191.9849 76.2427
L191.9373 76.3380
" />
<path d="M191.9373 76.3380
L191.8897 76.3856
" />
<path d="M191.8897 76.3856
L191.7944 76.4332
" />
<path d="M191.7944 76.4332
L191.6992 76.4332
" />
<path d="M191.6992 76.4332
L191.6040 76.3856
" />
<path d="M191.6040 76.3856
L191.5564 76.3380
" />
<path d="M191.5564 76.3380
L191.5087 76.2427
" />
<path d="M191.5087 76.2427
L191.4611 76.0523
" />
<path d="M191.4611 76.0523
L191.4611 75.8142
" />
<path d="M191.4611 75.8142
L191.5087 75.6237
" />
<path d="M191.5087 75.6237
L191.5564 75.5285
" />
<path d="M191.5564 75.5285
L191.6040 75.4808
" />
<path d="M191.6040 75.4808
L191.6992 75.4332
" />
<path d="M192.4611 76.0523
L193.2230 76.0523
" />
<path d="M194.2706 76.4332
L193.9373 75.9570
" />
<path d="M193.6992 76.4332
L193.6992 75.4332
" />
<path d="M193.6992 75.4332
L194.0802 75.4332
" />
<path d="M194.0802 75.4332
L194.1754 75.4808
" />
<path d="M194.1754 75.4808
L194.2230 75.5285
" />
<path d="M194.2230 75.5285
L194.2706 75.6237
" />
<path d="M194.2706 75.6237
L194.2706 75.7666
" />
<path d="M194.2706 75.7666
L194.2230 75.8618
" />
<path d="M194.2230 75.8618
L194.1754 75.9094
" />
<path d="M194.1754 75.9094
L194.0802 75.9570
" />
<path d="M194.0802 75.9570
L193.6992 75.9570
" />
<path d="M195.2706 76.3380
L195.2230 76.3856
" />
<path d="M195.2230 76.3856
L195.0802 76.4332
" />
<path d="M195.0802 76.4332
L194.9849 76.4332
" />
<path d="M194.9849 76.4332
L194.8421 76.3856
" />
<path d="M194.8421 76.3856
L194.7468 76.2904
" />
<path d="M194.7468 76.2904
L194.6992 76.1951
" />
<path d="M194.6992 76.1951
L194.6516 76.0046
" />
<path d="M194.6516 76.0046
L194.6516 75.8618
" />
<path d="M194.6516 75.8618
L194.6992 75.6713
" />
<path d="M194.6992 75.6713
L194.7468 75.5761
" />
<path d="M194.7468 75.5761
L194.8421 75.4808
" />
<path d="M194.8421 75.4808
L194.9849 75.4332
" />
<path d="M194.9849 75.4332
L195.0802 75.4332
" />
<path d="M195.0802 75.4332
L195.2230 75.4808
" />
<path d="M195.2230 75.4808
L195.2706 75.5285
" />
<path d="M196.2230 76.4332
L195.6516 76.4332
" />
<path d="M195.9373 76.4332
L195.9373 75.4332
" />
<path d="M195.9373 75.4332
L195.8421 75.5761
" />
<path d="M195.8421 75.5761
L195.7468 75.6713
" />
<path d="M195.7468 75.6713
L195.6516 75.7189
" />
</g><g transform="rotate(-270.000000 246.3094 71.3232)">
<text x="246.3094" y="71.3232"
transform="scale(-1 1) translate(-492.618800 0)"
textLength="5.4131" font-size="1.3333" lengthAdjust="spacingAndGlyphs"
text-anchor="start" opacity="0">+3.3V </text>
</g>
<g class="stroked-text"><desc>+3.3V </desc>
<path d="M245.8061 71.0851
L245.8061 70.3232
" />
<path d="M246.1870 70.7042
L245.4251 70.7042
" />
<path d="M245.1870 69.9422
L245.1870 69.3232
" />
<path d="M245.1870 69.3232
L245.5680 69.6565
" />
<path d="M245.5680 69.6565
L245.5680 69.5137
" />
<path d="M245.5680 69.5137
L245.6156 69.4184
" />
<path d="M245.6156 69.4184
L245.6632 69.3708
" />
<path d="M245.6632 69.3708
L245.7584 69.3232
" />
<path d="M245.7584 69.3232
L245.9965 69.3232
" />
<path d="M245.9965 69.3232
L246.0918 69.3708
" />
<path d="M246.0918 69.3708
L246.1394 69.4184
" />
<path d="M246.1394 69.4184
L246.1870 69.5137
" />
<path d="M246.1870 69.5137
L246.1870 69.7994
" />
<path d="M246.1870 69.7994
L246.1394 69.8946
" />
<path d="M246.1394 69.8946
L246.0918 69.9422
" />
<path d="M246.0918 68.8946
L246.1394 68.8470
" />
<path d="M246.1394 68.8470
L246.1870 68.8946
" />
<path d="M246.1870 68.8946
L246.1394 68.9422
" />
<path d="M246.1394 68.9422
L246.0918 68.8946
" />
<path d="M246.0918 68.8946
L246.1870 68.8946
" />
<path d="M245.1870 68.5137
L245.1870 67.8946
" />
<path d="M245.1870 67.8946
L245.5680 68.2280
" />
<path d="M245.5680 68.2280
L245.5680 68.0851
" />
<path d="M245.5680 68.0851
L245.6156 67.9899
" />
<path d="M245.6156 67.9899
L245.6632 67.9422
" />
<path d="M245.6632 67.9422
L245.7584 67.8946
" />
<path d="M245.7584 67.8946
L245.9965 67.8946
" />
<path d="M245.9965 67.8946
L246.0918 67.9422
" />
<path d="M246.0918 67.9422
L246.1394 67.9899
" />
<path d="M246.1394 67.9899
L246.1870 68.0851
" />
<path d="M246.1870 68.0851
L246.1870 68.3708
" />
<path d="M246.1870 68.3708
L246.1394 68.4661
" />
<path d="M246.1394 68.4661
L246.0918 68.5137
" />
<path d="M245.1870 67.6089
L246.1870 67.2756
" />
<path d="M246.1870 67.2756
L245.1870 66.9422
" />
</g><g transform="rotate(-270.000000 247.9294 71.3232)">
<text x="247.9294" y="71.3232"
transform="scale(-1 1) translate(-495.858800 0)"
textLength="9.0321" font-size="1.3333" lengthAdjust="spacingAndGlyphs"
text-anchor="start" opacity="0">150mA max</text>
</g>
<g class="stroked-text"><desc>150mA max</desc>
<path d="M247.8070 70.5613
L247.8070 71.1327
" />
<path d="M247.8070 70.8470
L246.8070 70.8470
" />
<path d="M246.8070 70.8470
L246.9499 70.9422
" />
<path d="M246.9499 70.9422
L247.0451 71.0375
" />
<path d="M247.0451 71.0375
L247.0927 71.1327
" />
<path d="M246.8070 69.6565
L246.8070 70.1327
" />
<path d="M246.8070 70.1327
L247.2832 70.1803
" />
<path d="M247.2832 70.1803
L247.2356 70.1327
" />
<path d="M247.2356 70.1327
L247.1880 70.0375
" />
<path d="M247.1880 70.0375
L247.1880 69.7994
" />
<path d="M247.1880 69.7994
L247.2356 69.7042
" />
<path d="M247.2356 69.7042
L247.2832 69.6565
" />
<path d="M247.2832 69.6565
L247.3784 69.6089
" />
<path d="M247.3784 69.6089
L247.6165 69.6089
" />
<path d="M247.6165 69.6089
L247.7118 69.6565
" />
<path d="M247.7118 69.6565
L247.7594 69.7042
" />
<path d="M247.7594 69.7042
L247.8070 69.7994
" />
<path d="M247.8070 69.7994
L247.8070 70.0375
" />
<path d="M247.8070 70.0375
L247.7594 70.1327
" />
<path d="M247.7594 70.1327
L247.7118 70.1803
" />
<path d="M246.8070 68.9899
L246.8070 68.8946
" />
<path d="M246.8070 68.8946
L246.8546 68.7994
" />
<path d="M246.8546 68.7994
L246.9023 68.7518
" />
<path d="M246.9023 68.7518
L246.9975 68.7042
" />
<path d="M246.9975 68.7042
L247.1880 68.6565
" />
<path d="M247.1880 68.6565
L247.4261 68.6565
" />
<path d="M247.4261 68.6565
L247.6165 68.7042
" />
<path d="M247.6165 68.7042
L247.7118 68.7518
" />
<path d="M247.7118 68.7518
L247.7594 68.7994
" />
<path d="M247.7594 68.7994
L247.8070 68.8946
" />
<path d="M247.8070 68.8946
L247.8070 68.9899
" />
<path d="M247.8070 68.9899
L247.7594 69.0851
" />
<path d="M247.7594 69.0851
L247.7118 69.1327
" />
<path d="M247.7118 69.1327
L247.6165 69.1803
" />
<path d="M247.6165 69.1803
L247.4261 69.2280
" />
<path d="M247.4261 69.2280
L247.1880 69.2280
" />
<path d="M247.1880 69.2280
L246.9975 69.1803
" />
<path d="M246.9975 69.1803
L246.9023 69.1327
" />
<path d="M246.9023 69.1327
L246.8546 69.0851
" />
<path d="M246.8546 69.0851
L246.8070 68.9899
" />
<path d="M247.8070 68.2280
L247.1404 68.2280
" />
<path d="M247.2356 68.2280
L247.1880 68.1803
" />
<path d="M247.1880 68.1803
L247.1404 68.0851
" />
<path d="M247.1404 68.0851
L247.1404 67.9422
" />
<path d="M247.1404 67.9422
L247.1880 67.8470
" />
<path d="M247.1880 67.8470
L247.2832 67.7994
" />
<path d="M247.2832 67.7994
L247.8070 67.7994
" />
<path d="M247.2832 67.7994
L247.1880 67.7518
" />
<path d="M247.1880 67.7518
L247.1404 67.6565
" />
<path d="M247.1404 67.6565
L247.1404 67.5137
" />
<path d="M247.1404 67.5137
L247.1880 67.4184
" />
<path d="M247.1880 67.4184
L247.2832 67.3708
" />
<path d="M247.2832 67.3708
L247.8070 67.3708
" />
<path d="M247.5213 66.9422
L247.5213 66.4661
" />
<path d="M247.8070 67.0375
L246.8070 66.7042
" />
<path d="M246.8070 66.7042
L247.8070 66.3708
" />
<path d="M247.8070 65.2756
L247.1404 65.2756
" />
<path d="M247.2356 65.2756
L247.1880 65.2280
" />
<path d="M247.1880 65.2280
L247.1404 65.1327
" />
<path d="M247.1404 65.1327
L247.1404 64.9899
" />
<path d="M247.1404 64.9899
L247.1880 64.8946
" />
<path d="M247.1880 64.8946
L247.2832 64.8470
" />
<path d="M247.2832 64.8470
L247.8070 64.8470
" />
<path d="M247.2832 64.8470
L247.1880 64.7994
" />
<path d="M247.1880 64.7994
L247.1404 64.7042
" />
<path d="M247.1404 64.7042
L247.1404 64.5613
" />
<path d="M247.1404 64.5613
L247.1880 64.4661
" />
<path d="M247.1880 64.4661
L247.2832 64.4184
" />
<path d="M247.2832 64.4184
L247.8070 64.4184
" />
<path d="M247.8070 63.5137
L247.2832 63.5137
" />
<path d="M247.2832 63.5137
L247.1880 63.5613
" />
<path d="M247.1880 63.5613
L247.1404 63.6565
" />
<path d="M247.1404 63.6565
L247.1404 63.8470
" />
<path d="M247.1404 63.8470
L247.1880 63.9422
" />
<path d="M247.7594 63.5137
L247.8070 63.6089
" />
<path d="M247.8070 63.6089
L247.8070 63.8470
" />
<path d="M247.8070 63.8470
L247.7594 63.9422
" />
<path d="M247.7594 63.9422
L247.6642 63.9899
" />
<path d="M247.6642 63.9899
L247.5689 63.9899
" />
<path d="M247.5689 63.9899
L247.4737 63.9422
" />
<path d="M247.4737 63.9422
L247.4261 63.8470
" />
<path d="M247.4261 63.8470
L247.4261 63.6089
" />
<path d="M247.4261 63.6089
L247.3784 63.5137
" />
<path d="M247.8070 63.1327
L247.1404 62.6089
" />
<path d="M247.1404 63.1327
L247.8070 62.6089
" />
</g><text x="231.3122" y="51.5200"
transform="scale(-1 1) translate(-462.624400 0)"
textLength="4.7179" font-size="2.0000" lengthAdjust="spacingAndGlyphs"
text-anchor="start" opacity="0">MIDI</text>
<g class="stroked-text"><desc>MIDI</desc>
<path d="M231.6693 51.3364
L231.6693 49.8364
" />
<path d="M231.6693 49.8364
L232.1693 50.9079
" />
<path d="M232.1693 50.9079
L232.6693 49.8364
" />
<path d="M232.6693 49.8364
L232.6693 51.3364
" />
<path d="M233.3836 51.3364
L233.3836 49.8364
" />
<path d="M234.0979 51.3364
L234.0979 49.8364
" />
<path d="M234.0979 49.8364
L234.4551 49.8364
" />
<path d="M234.4551 49.8364
L234.6693 49.9079
" />
<path d="M234.6693 49.9079
L234.8122 50.0507
" />
<path d="M234.8122 50.0507
L234.8836 50.1936
" />
<path d="M234.8836 50.1936
L234.9551 50.4793
" />
<path d="M234.9551 50.4793
L234.9551 50.6936
" />
<path d="M234.9551 50.6936
L234.8836 50.9793
" />
<path d="M234.8836 50.9793
L234.8122 51.1221
" />
<path d="M234.8122 51.1221
L234.6693 51.2650
" />
<path d="M234.6693 51.2650
L234.4551 51.3364
" />
<path d="M234.4551 51.3364
L234.0979 51.3364
" />
<path d="M235.5979 51.3364
L235.5979 49.8364
" />
</g><g transform="rotate(-270.000000 162.1282 45.6692)">
<text x="162.1282" y="45.6692"
transform="scale(-1 1) translate(-324.256400 0)"
textLength="4.7940" font-size="1.3333" lengthAdjust="spacingAndGlyphs"
text-anchor="start" opacity="0">RPI in</text>
</g>
<g class="stroked-text"><desc>RPI in</desc>
<path d="M162.0058 44.8597
L161.5296 45.1930
" />
<path d="M162.0058 45.4311
L161.0058 45.4311
" />
<path d="M161.0058 45.4311
L161.0058 45.0502
" />
<path d="M161.0058 45.0502
L161.0534 44.9549
" />
<path d="M161.0534 44.9549
L161.1011 44.9073
" />
<path d="M161.1011 44.9073
L161.1963 44.8597
" />
<path d="M161.1963 44.8597
L161.3392 44.8597
" />
<path d="M161.3392 44.8597
L161.4344 44.9073
" />
<path d="M161.4344 44.9073
L161.4820 44.9549
" />
<path d="M161.4820 44.9549
L161.5296 45.0502
" />
<path d="M161.5296 45.0502
L161.5296 45.4311
" />
<path d="M162.0058 44.4311
L161.0058 44.4311
" />
<path d="M161.0058 44.4311
L161.0058 44.0502
" />
<path d="M161.0058 44.0502
L161.0534 43.9549
" />
<path d="M161.0534 43.9549
L161.1011 43.9073
" />
<path d="M161.1011 43.9073
L161.1963 43.8597
" />
<path d="M161.1963 43.8597
L161.3392 43.8597
" />
<path d="M161.3392 43.8597
L161.4344 43.9073
" />
<path d="M161.4344 43.9073
L161.4820 43.9549
" />
<path d="M161.4820 43.9549
L161.5296 44.0502
" />
<path d="M161.5296 44.0502
L161.5296 44.4311
" />
<path d="M162.0058 43.4311
L161.0058 43.4311
" />
<path d="M162.0058 42.1930
L161.3392 42.1930
" />
<path d="M161.0058 42.1930
L161.0534 42.2406
" />
<path d="M161.0534 42.2406
L161.1011 42.1930
" />
<path d="M161.1011 42.1930
L161.0534 42.1454
" />
<path d="M161.0534 42.1454
L161.0058 42.1930
" />
<path d="M161.0058 42.1930
L161.1011 42.1930
" />
<path d="M161.3392 41.7168
L162.0058 41.7168
" />
<path d="M161.4344 41.7168
L161.3868 41.6692
" />
<path d="M161.3868 41.6692
L161.3392 41.5740
" />
<path d="M161.3392 41.5740
L161.3392 41.4311
" />
<path d="M161.3392 41.4311
L161.3868 41.3359
" />
<path d="M161.3868 41.3359
L161.4820 41.2882
" />
<path d="M161.4820 41.2882
L162.0058 41.2882
" />
</g><text x="247.7770" y="83.5660"
transform="scale(-1 1) translate(-495.554000 0)"
textLength="6.5083" font-size="1.3333" lengthAdjust="spacingAndGlyphs"
text-anchor="start" opacity="0">LED OUT</text>
<g class="stroked-text"><desc>LED OUT</desc>
<path d="M248.4913 83.4436
L248.0151 83.4436
" />
<path d="M248.0151 83.4436
L248.0151 82.4436
" />
<path d="M248.8246 82.9198
L249.1580 82.9198
" />
<path d="M249.3008 83.4436
L248.8246 83.4436
" />
<path d="M248.8246 83.4436
L248.8246 82.4436
" />
<path d="M248.8246 82.4436
L249.3008 82.4436
" />
<path d="M249.7294 83.4436
L249.7294 82.4436
" />
<path d="M249.7294 82.4436
L249.9675 82.4436
" />
<path d="M249.9675 82.4436
L250.1103 82.4912
" />
<path d="M250.1103 82.4912
L250.2056 82.5865
" />
<path d="M250.2056 82.5865
L250.2532 82.6817
" />
<path d="M250.2532 82.6817
L250.3008 82.8722
" />
<path d="M250.3008 82.8722
L250.3008 83.0150
" />
<path d="M250.3008 83.0150
L250.2532 83.2055
" />
<path d="M250.2532 83.2055
L250.2056 83.3008
" />
<path d="M250.2056 83.3008
L250.1103 83.3960
" />
<path d="M250.1103 83.3960
L249.9675 83.4436
" />
<path d="M249.9675 83.4436
L249.7294 83.4436
" />
<path d="M251.6818 82.4436
L251.8722 82.4436
" />
<path d="M251.8722 82.4436
L251.9675 82.4912
" />
<path d="M251.9675 82.4912
L252.0627 82.5865
" />
<path d="M252.0627 82.5865
L252.1103 82.7770
" />
<path d="M252.1103 82.7770
L252.1103 83.1103
" />
<path d="M252.1103 83.1103
L252.0627 83.3008
" />
<path d="M252.0627 83.3008
L251.9675 83.3960
" />
<path d="M251.9675 83.3960
L251.8722 83.4436
" />
<path d="M251.8722 83.4436
L251.6818 83.4436
" />
<path d="M251.6818 83.4436
L251.5865 83.3960
" />
<path d="M251.5865 83.3960
L251.4913 83.3008
" />
<path d="M251.4913 83.3008
L251.4437 83.1103
" />
<path d="M251.4437 83.1103
L251.4437 82.7770
" />
<path d="M251.4437 82.7770
L251.4913 82.5865
" />
<path d="M251.4913 82.5865
L251.5865 82.4912
" />
<path d="M251.5865 82.4912
L251.6818 82.4436
" />
<path d="M252.5389 82.4436
L252.5389 83.2531
" />
<path d="M252.5389 83.2531
L252.5865 83.3484
" />
<path d="M252.5865 83.3484
L252.6341 83.3960
" />
<path d="M252.6341 83.3960
L252.7294 83.4436
" />
<path d="M252.7294 83.4436
L252.9199 83.4436
" />
<path d="M252.9199 83.4436
L253.0151 83.3960
" />
<path d="M253.0151 83.3960
L253.0627 83.3484
" />
<path d="M253.0627 83.3484
L253.1103 83.2531
" />
<path d="M253.1103 83.2531
L253.1103 82.4436
" />
<path d="M253.4437 82.4436
L254.0151 82.4436
" />
<path d="M253.7294 83.4436
L253.7294 82.4436
" />
</g><g transform="rotate(-90.000000 114.2238 36.7792)">
<text x="114.2238" y="36.7792"
transform="scale(-1 1) translate(-228.447600 0)"
textLength="1.6988" font-size="1.3333" lengthAdjust="spacingAndGlyphs"
text-anchor="start" opacity="0">IN</text>
</g>
<g class="stroked-text"><desc>IN</desc>
<path d="M114.3462 37.0173
L115.3462 37.0173
" />
<path d="M114.3462 37.4935
L115.3462 37.4935
" />
<path d="M115.3462 37.4935
L114.3462 38.0649
" />
<path d="M114.3462 38.0649
L115.3462 38.0649
" />
</g><g transform="rotate(90.000000 229.3366 51.8668)">
<text x="229.3366" y="51.8668"
transform="scale(-1 1) translate(-458.673200 0)"
textLength="3.0321" font-size="1.3333" lengthAdjust="spacingAndGlyphs"
text-anchor="start" opacity="0">OUT</text>
</g>
<g class="stroked-text"><desc>OUT</desc>
<path d="M228.2142 51.4382
L228.2142 51.2478
" />
<path d="M228.2142 51.2478
L228.2618 51.1525
" />
<path d="M228.2618 51.1525
L228.3571 51.0573
" />
<path d="M228.3571 51.0573
L228.5476 51.0097
" />
<path d="M228.5476 51.0097
L228.8809 51.0097
" />
<path d="M228.8809 51.0097
L229.0714 51.0573
" />
<path d="M229.0714 51.0573
L229.1666 51.1525
" />
<path d="M229.1666 51.1525
L229.2142 51.2478
" />
<path d="M229.2142 51.2478
L229.2142 51.4382
" />
<path d="M229.2142 51.4382
L229.1666 51.5335
" />
<path d="M229.1666 51.5335
L229.0714 51.6287
" />
<path d="M229.0714 51.6287
L228.8809 51.6763
" />
<path d="M228.8809 51.6763
L228.5476 51.6763
" />
<path d="M228.5476 51.6763
L228.3571 51.6287
" />
<path d="M228.3571 51.6287
L228.2618 51.5335
" />
<path d="M228.2618 51.5335
L228.2142 51.4382
" />
<path d="M228.2142 50.5811
L229.0237 50.5811
" />
<path d="M229.0237 50.5811
L229.1190 50.5335
" />
<path d="M229.1190 50.5335
L229.1666 50.4858
" />
<path d="M229.1666 50.4858
L229.2142 50.3906
" />
<path d="M229.2142 50.3906
L229.2142 50.2001
" />
<path d="M229.2142 50.2001
L229.1666 50.1049
" />
<path d="M229.1666 50.1049
L229.1190 50.0573
" />
<path d="M229.1190 50.0573
L229.0237 50.0097
" />
<path d="M229.0237 50.0097
L228.2142 50.0097
" />
<path d="M228.2142 49.6763
L228.2142 49.1049
" />
<path d="M229.2142 49.3906
L228.2142 49.3906
" />
</g><g transform="rotate(-90.000000 120.6754 36.6776)">
<text x="120.6754" y="36.6776"
transform="scale(-1 1) translate(-241.350800 0)"
textLength="3.7940" font-size="1.3333" lengthAdjust="spacingAndGlyphs"
text-anchor="start" opacity="0">VREF</text>
</g>
<g class="stroked-text"><desc>VREF</desc>
<path d="M121.7978 36.7728
L120.7978 37.1062
" />
<path d="M120.7978 37.1062
L121.7978 37.4395
" />
<path d="M120.7978 38.3443
L121.2740 38.0109
" />
<path d="M120.7978 37.7728
L121.7978 37.7728
" />
<path d="M121.7978 37.7728
L121.7978 38.1538
" />
<path d="M121.7978 38.1538
L121.7502 38.2490
" />
<path d="M121.7502 38.2490
L121.7025 38.2966
" />
<path d="M121.7025 38.2966
L121.6073 38.3443
" />
<path d="M121.6073 38.3443
L121.4644 38.3443
" />
<path d="M121.4644 38.3443
L121.3692 38.2966
" />
<path d="M121.3692 38.2966
L121.3216 38.2490
" />
<path d="M121.3216 38.2490
L121.2740 38.1538
" />
<path d="M121.2740 38.1538
L121.2740 37.7728
" />
<path d="M121.3216 38.7728
L121.3216 39.1062
" />
<path d="M120.7978 39.2490
L120.7978 38.7728
" />
<path d="M120.7978 38.7728
L121.7978 38.7728
" />
<path d="M121.7978 38.7728
L121.7978 39.2490
" />
<path d="M121.3216 40.0109
L121.3216 39.6776
" />
<path d="M120.7978 39.6776
L121.7978 39.6776
" />
<path d="M121.7978 39.6776
L121.7978 40.1538
" />
</g><g transform="rotate(90.000000 159.5374 45.7708)">
<text x="159.5374" y="45.7708"
transform="scale(-1 1) translate(-319.074800 0)"
textLength="2.5560" font-size="1.3333" lengthAdjust="spacingAndGlyphs"
text-anchor="start" opacity="0">out</text>
</g>
<g class="stroked-text"><desc>out</desc>
<path d="M159.4150 45.3898
L159.3674 45.4851
" />
<path d="M159.3674 45.4851
L159.3198 45.5327
" />
<path d="M159.3198 45.5327
L159.2245 45.5803
" />
<path d="M159.2245 45.5803
L158.9388 45.5803
" />
<path d="M158.9388 45.5803
L158.8436 45.5327
" />
<path d="M158.8436 45.5327
L158.7960 45.4851
" />
<path d="M158.7960 45.4851
L158.7484 45.3898
" />
<path d="M158.7484 45.3898
L158.7484 45.2470
" />
<path d="M158.7484 45.2470
L158.7960 45.1518
" />
<path d="M158.7960 45.1518
L158.8436 45.1041
" />
<path d="M158.8436 45.1041
L158.9388 45.0565
" />
<path d="M158.9388 45.0565
L159.2245 45.0565
" />
<path d="M159.2245 45.0565
L159.3198 45.1041
" />
<path d="M159.3198 45.1041
L159.3674 45.1518
" />
<path d="M159.3674 45.1518
L159.4150 45.2470
" />
<path d="M159.4150 45.2470
L159.4150 45.3898
" />
<path d="M158.7484 44.1994
L159.4150 44.1994
" />
<path d="M158.7484 44.6279
L159.2722 44.6279
" />
<path d="M159.2722 44.6279
L159.3674 44.5803
" />
<path d="M159.3674 44.5803
L159.4150 44.4851
" />
<path d="M159.4150 44.4851
L159.4150 44.3422
" />
<path d="M159.4150 44.3422
L159.3674 44.2470
" />
<path d="M159.3674 44.2470
L159.3198 44.1994
" />
<path d="M158.7484 43.8660
L158.7484 43.4851
" />
<path d="M158.4150 43.7232
L159.2722 43.7232
" />
<path d="M159.2722 43.7232
L159.3674 43.6756
" />
<path d="M159.3674 43.6756
L159.4150 43.5803
" />
<path d="M159.4150 43.5803
L159.4150 43.4851
" />
</g><text x="247.3022" y="110.1000"
transform="scale(-1 1) translate(-494.604400 0)"
textLength="1.8893" font-size="1.3333" lengthAdjust="spacingAndGlyphs"
text-anchor="middle" opacity="0">J7</text>
<g class="stroked-text"><desc>J7</desc>
<path d="M246.9689 109.0626
L246.9689 109.7769
" />
<path d="M246.9689 109.7769
L246.9212 109.9198
" />
<path d="M246.9212 109.9198
L246.8260 110.0150
" />
<path d="M246.8260 110.0150
L246.6832 110.0626
" />
<path d="M246.6832 110.0626
L246.5879 110.0626
" />
<path d="M247.3498 109.0626
L248.0165 109.0626
" />
<path d="M248.0165 109.0626
L247.5879 110.0626
" />
</g><text x="183.3772" y="100.6100"
transform="scale(-1 1) translate(-366.754400 0)"
textLength="1.8893" font-size="1.3333" lengthAdjust="spacingAndGlyphs"
text-anchor="middle" opacity="0">J6</text>
<g class="stroked-text"><desc>J6</desc>
<path d="M183.0439 99.5726
L183.0439 100.2869
" />
<path d="M183.0439 100.2869
L182.9962 100.4298
" />
<path d="M182.9962 100.4298
L182.9010 100.5250
" />
<path d="M182.9010 100.5250
L182.7582 100.5726
" />
<path d="M182.7582 100.5726
L182.6629 100.5726
" />
<path d="M183.9486 99.5726
L183.7582 99.5726
" />
<path d="M183.7582 99.5726
L183.6629 99.6202
" />
<path d="M183.6629 99.6202
L183.6153 99.6679
" />
<path d="M183.6153 99.6679
L183.5201 99.8107
" />
<path d="M183.5201 99.8107
L183.4724 100.0012
" />
<path d="M183.4724 100.0012
L183.4724 100.3821
" />
<path d="M183.4724 100.3821
L183.5201 100.4774
" />
<path d="M183.5201 100.4774
L183.5677 100.5250
" />
<path d="M183.5677 100.5250
L183.6629 100.5726
" />
<path d="M183.6629 100.5726
L183.8534 100.5726
" />
<path d="M183.8534 100.5726
L183.9486 100.5250
" />
<path d="M183.9486 100.5250
L183.9962 100.4774
" />
<path d="M183.9962 100.4774
L184.0439 100.3821
" />
<path d="M184.0439 100.3821
L184.0439 100.1440
" />
<path d="M184.0439 100.1440
L183.9962 100.0488
" />
<path d="M183.9962 100.0488
L183.9486 100.0012
" />
<path d="M183.9486 100.0012
L183.8534 99.9536
" />
<path d="M183.8534 99.9536
L183.6629 99.9536
" />
<path d="M183.6629 99.9536
L183.5677 100.0012
" />
<path d="M183.5677 100.0012
L183.5201 100.0488
" />
<path d="M183.5201 100.0488
L183.4724 100.1440
" />
</g><text x="156.0322" y="58.7168"
transform="scale(-1 1) translate(-312.064400 0)"
textLength="2.8417" font-size="1.3333" lengthAdjust="spacingAndGlyphs"
text-anchor="middle" opacity="0">J14</text>
<g class="stroked-text"><desc>J14</desc>
<path d="M155.2227 57.6794
L155.2227 58.3937
" />
<path d="M155.2227 58.3937
L155.1751 58.5366
" />
<path d="M155.1751 58.5366
L155.0798 58.6318
" />
<path d="M155.0798 58.6318
L154.9370 58.6794
" />
<path d="M154.9370 58.6794
L154.8417 58.6794
" />
<path d="M156.2227 58.6794
L155.6512 58.6794
" />
<path d="M155.9370 58.6794
L155.9370 57.6794
" />
<path d="M155.9370 57.6794
L155.8417 57.8223
" />
<path d="M155.8417 57.8223
L155.7465 57.9175
" />
<path d="M155.7465 57.9175
L155.6512 57.9651
" />
<path d="M157.0798 58.0128
L157.0798 58.6794
" />
<path d="M156.8417 57.6318
L156.6036 58.3461
" />
<path d="M156.6036 58.3461
L157.2227 58.3461
" />
</g><text x="170.0022" y="46.4400"
transform="scale(-1 1) translate(-340.004400 0)"
textLength="1.8893" font-size="1.3333" lengthAdjust="spacingAndGlyphs"
text-anchor="middle" opacity="0">J5</text>
<g class="stroked-text"><desc>J5</desc>
<path d="M169.6689 45.4026
L169.6689 46.1169
" />
<path d="M169.6689 46.1169
L169.6212 46.2598
" />
<path d="M169.6212 46.2598
L169.5260 46.3550
" />
<path d="M169.5260 46.3550
L169.3832 46.4026
" />
<path d="M169.3832 46.4026
L169.2879 46.4026
" />
<path d="M170.6212 45.4026
L170.1451 45.4026
" />
<path d="M170.1451 45.4026
L170.0974 45.8788
" />
<path d="M170.0974 45.8788
L170.1451 45.8312
" />
<path d="M170.1451 45.8312
L170.2403 45.7836
" />
<path d="M170.2403 45.7836
L170.4784 45.7836
" />
<path d="M170.4784 45.7836
L170.5736 45.8312
" />
<path d="M170.5736 45.8312
L170.6212 45.8788
" />
<path d="M170.6212 45.8788
L170.6689 45.9740
" />
<path d="M170.6689 45.9740
L170.6689 46.2121
" />
<path d="M170.6689 46.2121
L170.6212 46.3074
" />
<path d="M170.6212 46.3074
L170.5736 46.3550
" />
<path d="M170.5736 46.3550
L170.4784 46.4026
" />
<path d="M170.4784 46.4026
L170.2403 46.4026
" />
<path d="M170.2403 46.4026
L170.1451 46.3550
" />
<path d="M170.1451 46.3550
L170.0974 46.3074
" />
</g><text x="221.5134" y="40.8352"
transform="scale(-1 1) translate(-443.026800 0)"
textLength="2.1750" font-size="1.3333" lengthAdjust="spacingAndGlyphs"
text-anchor="middle" opacity="0">U1</text>
<g class="stroked-text"><desc>U1</desc>
<path d="M220.7515 39.7978
L220.7515 40.6073
" />
<path d="M220.7515 40.6073
L220.7991 40.7026
" />
<path d="M220.7991 40.7026
L220.8467 40.7502
" />
<path d="M220.8467 40.7502
L220.9420 40.7978
" />
<path d="M220.9420 40.7978
L221.1324 40.7978
" />
<path d="M221.1324 40.7978
L221.2277 40.7502
" />
<path d="M221.2277 40.7502
L221.2753 40.7026
" />
<path d="M221.2753 40.7026
L221.3229 40.6073
" />
<path d="M221.3229 40.6073
L221.3229 39.7978
" />
<path d="M222.3229 40.7978
L221.7515 40.7978
" />
<path d="M222.0372 40.7978
L222.0372 39.7978
" />
<path d="M222.0372 39.7978
L221.9420 39.9407
" />
<path d="M221.9420 39.9407
L221.8467 40.0359
" />
<path d="M221.8467 40.0359
L221.7515 40.0835
" />
</g><text x="238.3790" y="83.9644"
transform="scale(-1 1) translate(-476.758000 0)"
textLength="1.8893" font-size="1.3333" lengthAdjust="spacingAndGlyphs"
text-anchor="middle" opacity="0">J4</text>
<g class="stroked-text"><desc>J4</desc>
<path d="M238.0457 82.9270
L238.0457 83.6413
" />
<path d="M238.0457 83.6413
L237.9980 83.7842
" />
<path d="M237.9980 83.7842
L237.9028 83.8794
" />
<path d="M237.9028 83.8794
L237.7600 83.9270
" />
<path d="M237.7600 83.9270
L237.6647 83.9270
" />
<path d="M238.9504 83.2604
L238.9504 83.9270
" />
<path d="M238.7123 82.8794
L238.4742 83.5937
" />
<path d="M238.4742 83.5937
L239.0933 83.5937
" />
</g><text x="173.7022" y="69.0000"
transform="scale(-1 1) translate(-347.404400 0)"
textLength="1.8893" font-size="1.3333" lengthAdjust="spacingAndGlyphs"
text-anchor="middle" opacity="0">J8</text>
<g class="stroked-text"><desc>J8</desc>
<path d="M173.3689 67.9626
L173.3689 68.6769
" />
<path d="M173.3689 68.6769
L173.3212 68.8198
" />
<path d="M173.3212 68.8198
L173.2260 68.9150
" />
<path d="M173.2260 68.9150
L173.0832 68.9626
" />
<path d="M173.0832 68.9626
L172.9879 68.9626
" />
<path d="M173.9879 68.3912
L173.8927 68.3436
" />
<path d="M173.8927 68.3436
L173.8451 68.2960
" />
<path d="M173.8451 68.2960
L173.7974 68.2007
" />
<path d="M173.7974 68.2007
L173.7974 68.1531
" />
<path d="M173.7974 68.1531
L173.8451 68.0579
" />
<path d="M173.8451 68.0579
L173.8927 68.0102
" />
<path d="M173.8927 68.0102
L173.9879 67.9626
" />
<path d="M173.9879 67.9626
L174.1784 67.9626
" />
<path d="M174.1784 67.9626
L174.2736 68.0102
" />
<path d="M174.2736 68.0102
L174.3212 68.0579
" />
<path d="M174.3212 68.0579
L174.3689 68.1531
" />
<path d="M174.3689 68.1531
L174.3689 68.2007
" />
<path d="M174.3689 68.2007
L174.3212 68.2960
" />
<path d="M174.3212 68.2960
L174.2736 68.3436
" />
<path d="M174.2736 68.3436
L174.1784 68.3912
" />
<path d="M174.1784 68.3912
L173.9879 68.3912
" />
<path d="M173.9879 68.3912
L173.8927 68.4388
" />
<path d="M173.8927 68.4388
L173.8451 68.4864
" />
<path d="M173.8451 68.4864
L173.7974 68.5817
" />
<path d="M173.7974 68.5817
L173.7974 68.7721
" />
<path d="M173.7974 68.7721
L173.8451 68.8674
" />
<path d="M173.8451 68.8674
L173.8927 68.9150
" />
<path d="M173.8927 68.9150
L173.9879 68.9626
" />
<path d="M173.9879 68.9626
L174.1784 68.9626
" />
<path d="M174.1784 68.9626
L174.2736 68.9150
" />
<path d="M174.2736 68.9150
L174.3212 68.8674
" />
<path d="M174.3212 68.8674
L174.3689 68.7721
" />
<path d="M174.3689 68.7721
L174.3689 68.5817
" />
<path d="M174.3689 68.5817
L174.3212 68.4864
" />
<path d="M174.3212 68.4864
L174.2736 68.4388
" />
<path d="M174.2736 68.4388
L174.1784 68.3912
" />
</g><text x="231.1654" y="60.7996"
transform="scale(-1 1) translate(-462.330800 0)"
textLength="2.8417" font-size="1.3333" lengthAdjust="spacingAndGlyphs"
text-anchor="middle" opacity="0">J15</text>
<g class="stroked-text"><desc>J15</desc>
<path d="M230.3559 59.7622
L230.3559 60.4765
" />
<path d="M230.3559 60.4765
L230.3083 60.6194
" />
<path d="M230.3083 60.6194
L230.2130 60.7146
" />
<path d="M230.2130 60.7146
L230.0702 60.7622
" />
<path d="M230.0702 60.7622
L229.9749 60.7622
" />
<path d="M231.3559 60.7622
L230.7844 60.7622
" />
<path d="M231.0702 60.7622
L231.0702 59.7622
" />
<path d="M231.0702 59.7622
L230.9749 59.9051
" />
<path d="M230.9749 59.9051
L230.8797 60.0003
" />
<path d="M230.8797 60.0003
L230.7844 60.0479
" />
<path d="M232.2606 59.7622
L231.7844 59.7622
" />
<path d="M231.7844 59.7622
L231.7368 60.2384
" />
<path d="M231.7368 60.2384
L231.7844 60.1908
" />
<path d="M231.7844 60.1908
L231.8797 60.1432
" />
<path d="M231.8797 60.1432
L232.1178 60.1432
" />
<path d="M232.1178 60.1432
L232.2130 60.1908
" />
<path d="M232.2130 60.1908
L232.2606 60.2384
" />
<path d="M232.2606 60.2384
L232.3083 60.3336
" />
<path d="M232.3083 60.3336
L232.3083 60.5717
" />
<path d="M232.3083 60.5717
L232.2606 60.6670
" />
<path d="M232.2606 60.6670
L232.2130 60.7146
" />
<path d="M232.2130 60.7146
L232.1178 60.7622
" />
<path d="M232.1178 60.7622
L231.8797 60.7622
" />
<path d="M231.8797 60.7622
L231.7844 60.7146
" />
<path d="M231.7844 60.7146
L231.7368 60.6670
" />
</g></g>
<g style="fill:#000000; fill-opacity:0.0; 
stroke:#000000; stroke-width:0.1200; stroke-opacity:1; 
stroke-linecap:round; stroke-linejoin:round;">
<path d="M248.7422 107.6500
L248.7422 106.3200
" />
<path d="M247.4122 107.6500
L248.7422 107.6500
" />
<path d="M246.1422 107.6500
L197.8222 107.6500
" />
<path d="M246.1422 107.6500
L246.1422 105.0500
" />
<path d="M197.8222 107.6500
L197.8222 102.4500
" />
<path d="M248.7422 105.0500
L248.7422 102.4500
" />
<path d="M246.1422 105.0500
L248.7422 105.0500
" />
<path d="M248.7422 102.4500
L197.8222 102.4500
" />
</g>
<g style="fill:#000000; fill-opacity:0.0; 
stroke:#000000; stroke-width:0.1000; stroke-opacity:1; 
stroke-linecap:round; stroke-linejoin:round;">
<path d="M250.7822 125.0500
L195.7822 125.0500
" />
<path d="M195.7822 125.0500
L195.7822 85.0500
" />
<path d="M195.7822 85.0500
L250.7822 85.0500
" />
<path d="M250.7822 85.0500
L250.7822 125.0500
" />
</g>
<g style="fill:#000000; fill-opacity:0.0; 
stroke:#000000; stroke-width:0.1200; stroke-opacity:1; 
stroke-linecap:round; stroke-linejoin:round;">
<path d="M184.7072 88.8300
L182.0472 88.8300
" />
<path d="M184.7072 96.5100
L184.7072 88.8300
" />
<path d="M184.7072 96.5100
L182.0472 96.5100
" />
<path d="M184.7072 97.7800
L184.7072 99.1100
" />
<path d="M184.7072 99.1100
L183.3772 99.1100
" />
<path d="M182.0472 96.5100
L182.0472 88.8300
" />
<path d="M159.0022 58.4450
L157.7322 58.4450
" />
<path d="M157.7322 58.4450
L157.7322 57.1750
" />
<path d="M161.9222 56.1321
L161.9222 55.7350
" />
<path d="M161.1622 56.1321
L161.1622 55.7350
" />
<path d="M159.3822 56.0650
L159.3822 55.7350
" />
<path d="M158.6222 56.0650
L158.6222 55.7350
" />
<path d="M162.8722 55.7350
L162.8722 53.0750
" />
<path d="M160.2722 55.7350
L160.2722 53.0750
" />
<path d="M157.6722 55.7350
L162.8722 55.7350
" />
<path d="M162.8722 53.0750
L157.6722 53.0750
" />
<path d="M161.1622 53.0750
L161.1622 47.0750
" />
<path d="M159.2822 53.0750
L159.2822 47.0750
" />
<path d="M159.1622 53.0750
L159.1622 47.0750
" />
<path d="M159.0422 53.0750
L159.0422 47.0750
" />
<path d="M158.9222 53.0750
L158.9222 47.0750
" />
<path d="M158.8022 53.0750
L158.8022 47.0750
" />
<path d="M158.6822 53.0750
L158.6822 47.0750
" />
<path d="M158.6222 53.0750
L158.6222 47.0750
" />
<path d="M157.6722 53.0750
L157.6722 55.7350
" />
<path d="M161.9222 47.0750
L161.9222 53.0750
" />
<path d="M161.1622 47.0750
L161.9222 47.0750
" />
<path d="M159.3822 47.0750
L159.3822 53.0750
" />
<path d="M158.6222 47.0750
L159.3822 47.0750
" />
</g>
<g style="fill:#000000; fill-opacity:0.0; 
stroke:#000000; stroke-width:0.1000; stroke-opacity:1; 
stroke-linecap:round; stroke-linejoin:round;">
<circle cx="170.0022" cy="50.0062" r="0.9148" /> 
<circle cx="170.0022" cy="48.0000" r="0.9144" /> 
</g>
<g style="fill:#000000; fill-opacity:0.0; 
stroke:#000000; stroke-width:0.1200; stroke-opacity:1; 
stroke-linecap:round; stroke-linejoin:round;">
<path d="M216.7022 59.5000
L217.1022 59.5000
" />
<path d="M214.1022 59.5000
L214.5022 59.5000
" />
<path d="M211.6022 59.5000
L212.0022 59.5000
" />
<path d="M209.1022 59.5000
L209.5022 59.5000
" />
<path d="M206.5022 59.5000
L206.9022 59.5000
" />
<path d="M204.0022 59.5000
L204.4022 59.5000
" />
<path d="M201.4022 59.5000
L201.8022 59.5000
" />
<path d="M198.9022 59.5000
L199.3022 59.5000
" />
<path d="M196.3022 59.5000
L196.7022 59.5000
" />
<path d="M193.8022 59.5000
L194.2022 59.5000
" />
<path d="M191.3022 59.5000
L191.7022 59.5000
" />
<path d="M188.7022 59.5000
L189.1022 59.5000
" />
<path d="M186.2022 59.5000
L186.6022 59.5000
" />
<path d="M183.6022 59.5000
L184.0022 59.5000
" />
<path d="M181.1022 59.5000
L181.5022 59.5000
" />
<path d="M178.6022 59.5000
L179.0022 59.5000
" />
<path d="M176.0022 59.5000
L176.4022 59.5000
" />
<path d="M173.5022 59.5000
L173.9022 59.5000
" />
<path d="M171.1692 59.5000
L171.1692 56.4930
" />
<path d="M170.9022 59.5000
L171.3022 59.5000
" />
<path d="M168.5022 59.5000
L168.8022 59.5000
" />
<path d="M171.1692 56.4930
L168.5022 56.4930
" />
<path d="M219.5022 52.7000
L219.5022 59.5000
" />
<path d="M219.5022 50.5000
L219.5022 50.1000
" />
<path d="M219.5022 47.9000
L219.5022 47.5000
" />
<path d="M219.5022 38.5000
L219.5022 45.3000
" />
<path d="M216.7022 38.5000
L217.1022 38.5000
" />
<path d="M214.1022 38.5000
L214.5022 38.5000
" />
<path d="M211.6022 38.5000
L212.0022 38.5000
" />
<path d="M209.1022 38.5000
L209.5022 38.5000
" />
<path d="M206.5022 38.5000
L206.9022 38.5000
" />
<path d="M204.0022 38.5000
L204.4022 38.5000
" />
<path d="M201.4022 38.5000
L201.8022 38.5000
" />
<path d="M198.9022 38.5000
L199.3022 38.5000
" />
<path d="M196.3022 38.5000
L196.7022 38.5000
" />
<path d="M193.8022 38.5000
L194.2022 38.5000
" />
<path d="M191.3022 38.5000
L191.7022 38.5000
" />
<path d="M188.7022 38.5000
L189.1022 38.5000
" />
<path d="M186.2022 38.5000
L186.6022 38.5000
" />
<path d="M183.6022 38.5000
L184.0022 38.5000
" />
<path d="M181.1022 38.5000
L181.5022 38.5000
" />
<path d="M178.6022 38.5000
L179.0022 38.5000
" />
<path d="M176.0022 38.5000
L176.4022 38.5000
" />
<path d="M173.5022 38.5000
L173.9022 38.5000
" />
<path d="M170.9022 38.5000
L171.3022 38.5000
" />
<path d="M168.5022 38.5000
L168.8022 38.5000
" />
<path d="M241.1372 84.2326
L239.8672 84.2326
" />
<path d="M239.8672 84.2326
L239.8672 82.9626
" />
<path d="M246.5972 81.9197
L246.5972 81.5226
" />
<path d="M245.8372 81.9197
L245.8372 81.5226
" />
<path d="M244.0572 81.9197
L244.0572 81.5226
" />
<path d="M243.2972 81.9197
L243.2972 81.5226
" />
<path d="M241.5172 81.8526
L241.5172 81.5226
" />
<path d="M240.7572 81.8526
L240.7572 81.5226
" />
<path d="M247.5472 81.5226
L247.5472 78.8626
" />
<path d="M244.9472 81.5226
L244.9472 78.8626
" />
<path d="M242.4072 81.5226
L242.4072 78.8626
" />
<path d="M239.8072 81.5226
L247.5472 81.5226
" />
<path d="M247.5472 78.8626
L239.8072 78.8626
" />
<path d="M245.8372 78.8626
L245.8372 72.8626
" />
<path d="M243.2972 78.8626
L243.2972 72.8626
" />
<path d="M241.4172 78.8626
L241.4172 72.8626
" />
<path d="M241.2972 78.8626
L241.2972 72.8626
" />
<path d="M241.1772 78.8626
L241.1772 72.8626
" />
<path d="M241.0572 78.8626
L241.0572 72.8626
" />
<path d="M240.9372 78.8626
L240.9372 72.8626
" />
<path d="M240.8172 78.8626
L240.8172 72.8626
" />
<path d="M240.7572 78.8626
L240.7572 72.8626
" />
<path d="M239.8072 78.8626
L239.8072 81.5226
" />
<path d="M246.5972 72.8626
L246.5972 78.8626
" />
<path d="M245.8372 72.8626
L246.5972 72.8626
" />
<path d="M244.0572 72.8626
L244.0572 78.8626
" />
<path d="M243.2972 72.8626
L244.0572 72.8626
" />
<path d="M241.5172 72.8626
L241.5172 78.8626
" />
<path d="M240.7572 72.8626
L241.5172 72.8626
" />
</g>
<g style="fill:#000000; fill-opacity:0.0; 
stroke:#000000; stroke-width:0.1000; stroke-opacity:1; 
stroke-linecap:round; stroke-linejoin:round;">
<path d="M125.5222 63.5056
L125.5222 121.5056
" />
<path d="M129.2722 125.0056
L129.0222 125.0056
" />
</g>
<g style="fill:#000000; fill-opacity:0.0; 
stroke:#000000; stroke-width:0.1200; stroke-opacity:1; 
stroke-linecap:round; stroke-linejoin:round;">
<path d="M138.2122 123.0206
L138.2122 117.8206
" />
<path d="M139.1172 76.1156
L139.1172 81.2556
" />
<path d="M139.1172 73.5156
L139.1172 74.8456
" />
<path d="M140.4472 73.5156
L139.1172 73.5156
" />
<path d="M141.7172 76.1156
L139.1172 76.1156
" />
<path d="M141.7172 73.5156
L141.7172 76.1156
" />
<path d="M143.3522 120.4206
L143.3522 117.8206
" />
<path d="M143.3522 117.8206
L138.2122 117.8206
" />
<path d="M144.3172 81.2556
L139.1172 81.2556
" />
<path d="M144.3172 73.5156
L141.7172 73.5156
" />
<path d="M144.3172 73.5156
L144.3172 81.2556
" />
<path d="M145.9522 123.0206
L138.2122 123.0206
" />
<path d="M145.9522 123.0206
L145.9522 120.4206
" />
<path d="M145.9522 120.4206
L143.3522 120.4206
" />
<path d="M145.9522 119.1506
L145.9522 117.8206
" />
<path d="M145.9522 117.8206
L144.6222 117.8206
" />
<path d="M175.4222 69.6456
L175.4222 117.9656
" />
<path d="M175.4222 67.0456
L175.4222 68.3756
" />
<path d="M176.7522 67.0456
L175.4222 67.0456
" />
<path d="M178.0222 69.6456
L175.4222 69.6456
" />
<path d="M178.0222 67.0456
L178.0222 69.6456
" />
</g>
<g style="fill:#000000; fill-opacity:0.0; 
stroke:#000000; stroke-width:0.1000; stroke-opacity:1; 
stroke-linecap:round; stroke-linejoin:round;">
<path d="M178.0222 60.0056
L129.0222 60.0056
" />
<path d="M178.0222 60.0056
L178.5222 60.0052
" />
<path d="M178.7722 125.0056
L129.2722 125.0056
" />
</g>
<g style="fill:#000000; fill-opacity:0.0; 
stroke:#000000; stroke-width:0.1200; stroke-opacity:1; 
stroke-linecap:round; stroke-linejoin:round;">
<path d="M180.6222 117.9656
L175.4222 117.9656
" />
<path d="M180.6222 67.0456
L178.0222 67.0456
" />
<path d="M180.6222 67.0456
L180.6222 117.9656
" />
</g>
<g style="fill:#000000; fill-opacity:0.0; 
stroke:#000000; stroke-width:0.1000; stroke-opacity:1; 
stroke-linecap:round; stroke-linejoin:round;">
<path d="M182.0222 121.5056
L182.0222 63.5556
" />
<path d="M125.5222 121.5056 A3.5000 3.5000 0.0 0 0 129.0222 125.0056" />
<path d="M129.0222 60.0056 A3.5000 3.5000 0.0 0 0 125.5222 63.5056" />
<path d="M178.5222 125.0056 A3.5000 3.5000 0.0 0 0 182.0222 121.5056" />
<path d="M182.0222 63.5556 A3.5004 3.5004 0.0 0 0 178.5222 60.0052" />
<circle cx="129.0222" cy="121.5056" r="1.6510" /> 
<circle cx="129.0222" cy="63.5056" r="1.6510" /> 
<circle cx="178.0222" cy="121.5056" r="1.6510" /> 
<circle cx="178.0222" cy="63.5056" r="1.6510" /> 
</g>
<g style="fill:#000000; fill-opacity:0.0; 
stroke:#000000; stroke-width:0.1200; stroke-opacity:1; 
stroke-linecap:round; stroke-linejoin:round;">
<path d="M224.7322 52.8500
L224.7322 51.5800
" />
<path d="M224.7322 51.5800
L226.0022 51.5800
" />
<path d="M227.0451 58.3100
L227.4993 58.3100
" />
<path d="M227.0451 57.5500
L227.4993 57.5500
" />
<path d="M227.0451 55.7700
L227.4993 55.7700
" />
<path d="M227.0451 55.0100
L227.4993 55.0100
" />
<path d="M227.1122 53.2300
L227.4993 53.2300
" />
<path d="M227.1122 52.4700
L227.4993 52.4700
" />
<path d="M229.5851 58.3100
L229.9822 58.3100
" />
<path d="M229.5851 57.5500
L229.9822 57.5500
" />
<path d="M229.5851 55.7700
L229.9822 55.7700
" />
<path d="M229.5851 55.0100
L229.9822 55.0100
" />
<path d="M229.5851 53.2300
L229.9822 53.2300
" />
<path d="M229.5851 52.4700
L229.9822 52.4700
" />
<path d="M229.9822 59.2600
L232.6422 59.2600
" />
<path d="M229.9822 56.6600
L232.6422 56.6600
" />
<path d="M229.9822 54.1200
L232.6422 54.1200
" />
<path d="M229.9822 51.5200
L229.9822 59.2600
" />
<path d="M232.6422 59.2600
L232.6422 51.5200
" />
<path d="M232.6422 57.5500
L238.6422 57.5500
" />
<path d="M232.6422 55.0100
L238.6422 55.0100
" />
<path d="M232.6422 53.1300
L238.6422 53.1300
" />
<path d="M232.6422 53.0100
L238.6422 53.0100
" />
<path d="M232.6422 52.8900
L238.6422 52.8900
" />
<path d="M232.6422 52.7700
L238.6422 52.7700
" />
<path d="M232.6422 52.6500
L238.6422 52.6500
" />
<path d="M232.6422 52.5300
L238.6422 52.5300
" />
<path d="M232.6422 52.4700
L238.6422 52.4700
" />
<path d="M232.6422 51.5200
L229.9822 51.5200
" />
<path d="M238.6422 58.3100
L232.6422 58.3100
" />
<path d="M238.6422 57.5500
L238.6422 58.3100
" />
<path d="M238.6422 55.7700
L232.6422 55.7700
" />
<path d="M238.6422 55.0100
L238.6422 55.7700
" />
<path d="M238.6422 53.2300
L232.6422 53.2300
" />
<path d="M238.6422 52.4700
L238.6422 53.2300
" />
<g >
</g>
<g >
</g>
<g >
</g>
<g >
</g>
<g >
</g>
<g >
</g>
<g >
</g>
<g >
</g>
<g >
</g>
<g >
</g>
<g >
</g>
<g >
</g>
<g >
</g>
<g >
</g>
<g >
</g>
<g >
</g>
<g >
</g>
<g >
</g>
<g >
</g>
<g >
</g>
<g >
</g>
<g >
</g>
<g >
</g>
<g >
</g>
<g >
</g>
<g >
</g>
<g >
</g>
<g >
</g>
<g >
</g>
<g >
</g>
<g >
</g>
<g >
</g>
<g >
</g>
<g >
</g>
<g >
</g>
<g >
</g>
<g >
</g>
<g >
</g>
<g >
</g>
<g >
</g>
<g >
</g>
<g >
</g>
<g >
</g>
<g >
</g>
<g >
</g>
<g >
</g>
<g >
</g>
<g >
</g>
<g >
</g>
<g >
</g>
<g >
</g>
<g >
</g>
<g >
</g>
<g >
</g>
<g >
</g>
<g >
</g>
<g >
</g>
<g >
</g>
<g >
</g>
<g >
</g>
<g >
</g>
<g >
</g>
<g >
</g>
<g >
</g>
<g >
</g>
<g >
</g>
<g >
</g>
<g >
</g>
<g >
</g>
<g >
</g>
<g >
</g>
<g >
</g>
<g >
</g>
<g >
</g>
<g >
</g>
<g >
</g>
<g >
</g>
<g >
</g>
<g >
</g>
<g >
</g>
<g >
</g>
<g >
</g>
<g >
</g>
<g >
</g>
<g >
</g>
</g> 
</svg>
