<?xml version="1.0" standalone="no"?>
 <!DOCTYPE svg PUBLIC "-//W3C//DTD SVG 1.1//EN" 
 "http://www.w3.org/Graphics/SVG/1.1/DTD/svg11.dtd"> 
<svg
  xmlns:svg="http://www.w3.org/2000/svg"
  xmlns="http://www.w3.org/2000/svg"
  xmlns:xlink="http://www.w3.org/1999/xlink"
  version="1.1"
  width="297.0022mm" height="210.0072mm" viewBox="0.0000 0.0000 297.0022 210.0072">
<title>SVG Image created as pedalboard-hw-B_Fab.svg date 2023/03/27 18:57:40 </title>
  <desc>Image generated by PCBNEW </desc>
<g style="fill:#000000; fill-opacity:1.0000;stroke:#000000; stroke-opacity:1.0000;
stroke-linecap:round; stroke-linejoin:round;"
 transform="translate(0 0) scale(1 1)">
</g>
<g style="fill:#000000; fill-opacity:0.0; 
stroke:#000000; stroke-width:0.0000; stroke-opacity:1; 
stroke-linecap:round; stroke-linejoin:round;">
</g>
<g style="fill:#000000; fill-opacity:0.0; 
stroke:#000000; stroke-width:0.1500; stroke-opacity:1; 
stroke-linecap:round; stroke-linejoin:round;">
<text x="113.6250" y="100.4350"
transform="scale(-1 1) translate(-227.250000 0)"
textLength="4.7940" font-size="1.3333" lengthAdjust="spacingAndGlyphs"
text-anchor="middle" opacity="0">USB_A</text>
<g class="stroked-text"><desc>USB_A</desc>
<path d="M115.6964 99.3976
L115.6964 100.2071
" />
<path d="M115.6964 100.2071
L115.6488 100.3024
" />
<path d="M115.6488 100.3024
L115.6012 100.3500
" />
<path d="M115.6012 100.3500
L115.5060 100.3976
" />
<path d="M115.5060 100.3976
L115.3155 100.3976
" />
<path d="M115.3155 100.3976
L115.2202 100.3500
" />
<path d="M115.2202 100.3500
L115.1726 100.3024
" />
<path d="M115.1726 100.3024
L115.1250 100.2071
" />
<path d="M115.1250 100.2071
L115.1250 99.3976
" />
<path d="M114.6964 100.3500
L114.5536 100.3976
" />
<path d="M114.5536 100.3976
L114.3155 100.3976
" />
<path d="M114.3155 100.3976
L114.2202 100.3500
" />
<path d="M114.2202 100.3500
L114.1726 100.3024
" />
<path d="M114.1726 100.3024
L114.1250 100.2071
" />
<path d="M114.1250 100.2071
L114.1250 100.1119
" />
<path d="M114.1250 100.1119
L114.1726 100.0167
" />
<path d="M114.1726 100.0167
L114.2202 99.9690
" />
<path d="M114.2202 99.9690
L114.3155 99.9214
" />
<path d="M114.3155 99.9214
L114.5060 99.8738
" />
<path d="M114.5060 99.8738
L114.6012 99.8262
" />
<path d="M114.6012 99.8262
L114.6488 99.7786
" />
<path d="M114.6488 99.7786
L114.6964 99.6833
" />
<path d="M114.6964 99.6833
L114.6964 99.5881
" />
<path d="M114.6964 99.5881
L114.6488 99.4929
" />
<path d="M114.6488 99.4929
L114.6012 99.4452
" />
<path d="M114.6012 99.4452
L114.5060 99.3976
" />
<path d="M114.5060 99.3976
L114.2679 99.3976
" />
<path d="M114.2679 99.3976
L114.1250 99.4452
" />
<path d="M113.3631 99.8738
L113.2202 99.9214
" />
<path d="M113.2202 99.9214
L113.1726 99.9690
" />
<path d="M113.1726 99.9690
L113.1250 100.0643
" />
<path d="M113.1250 100.0643
L113.1250 100.2071
" />
<path d="M113.1250 100.2071
L113.1726 100.3024
" />
<path d="M113.1726 100.3024
L113.2202 100.3500
" />
<path d="M113.2202 100.3500
L113.3155 100.3976
" />
<path d="M113.3155 100.3976
L113.6964 100.3976
" />
<path d="M113.6964 100.3976
L113.6964 99.3976
" />
<path d="M113.6964 99.3976
L113.3631 99.3976
" />
<path d="M113.3631 99.3976
L113.2679 99.4452
" />
<path d="M113.2679 99.4452
L113.2202 99.4929
" />
<path d="M113.2202 99.4929
L113.1726 99.5881
" />
<path d="M113.1726 99.5881
L113.1726 99.6833
" />
<path d="M113.1726 99.6833
L113.2202 99.7786
" />
<path d="M113.2202 99.7786
L113.2679 99.8262
" />
<path d="M113.2679 99.8262
L113.3631 99.8738
" />
<path d="M113.3631 99.8738
L113.6964 99.8738
" />
<path d="M112.9345 100.4929
L112.1726 100.4929
" />
<path d="M111.9821 100.1119
L111.5060 100.1119
" />
<path d="M112.0774 100.3976
L111.7440 99.3976
" />
<path d="M111.7440 99.3976
L111.4107 100.3976
" />
</g><g transform="rotate(-90.000000 113.6250 93.7950)">
<text x="113.6250" y="94.2950"
transform="scale(-1 1) translate(-227.250000 0)"
textLength="1.8893" font-size="1.3333" lengthAdjust="spacingAndGlyphs"
text-anchor="middle" opacity="0">J6</text>
</g>
<g class="stroked-text"><desc>J6</desc>
<path d="M113.0876 93.4617
L113.8019 93.4617
" />
<path d="M113.8019 93.4617
L113.9448 93.4140
" />
<path d="M113.9448 93.4140
L114.0400 93.3188
" />
<path d="M114.0400 93.3188
L114.0876 93.1760
" />
<path d="M114.0876 93.1760
L114.0876 93.0807
" />
<path d="M113.0876 94.3664
L113.0876 94.1760
" />
<path d="M113.0876 94.1760
L113.1352 94.0807
" />
<path d="M113.1352 94.0807
L113.1829 94.0331
" />
<path d="M113.1829 94.0331
L113.3257 93.9379
" />
<path d="M113.3257 93.9379
L113.5162 93.8902
" />
<path d="M113.5162 93.8902
L113.8971 93.8902
" />
<path d="M113.8971 93.8902
L113.9924 93.9379
" />
<path d="M113.9924 93.9379
L114.0400 93.9855
" />
<path d="M114.0400 93.9855
L114.0876 94.0807
" />
<path d="M114.0876 94.0807
L114.0876 94.2712
" />
<path d="M114.0876 94.2712
L114.0400 94.3664
" />
<path d="M114.0400 94.3664
L113.9924 94.4140
" />
<path d="M113.9924 94.4140
L113.8971 94.4617
" />
<path d="M113.8971 94.4617
L113.6590 94.4617
" />
<path d="M113.6590 94.4617
L113.5638 94.4140
" />
<path d="M113.5638 94.4140
L113.5162 94.3664
" />
<path d="M113.5162 94.3664
L113.4686 94.2712
" />
<path d="M113.4686 94.2712
L113.4686 94.0807
" />
<path d="M113.4686 94.0807
L113.5162 93.9855
" />
<path d="M113.5162 93.9855
L113.5638 93.9379
" />
<path d="M113.5638 93.9379
L113.6590 93.8902
" />
</g><g transform="rotate(-90.000000 133.1900 52.7900)">
<text x="133.1900" y="53.2900"
transform="scale(-1 1) translate(-266.380000 0)"
textLength="9.2702" font-size="1.3333" lengthAdjust="spacingAndGlyphs"
text-anchor="middle" opacity="0">Conn_02x01</text>
</g>
<g class="stroked-text"><desc>Conn_02x01</desc>
<path d="M133.5574 49.0519
L133.6050 49.0043
" />
<path d="M133.6050 49.0043
L133.6526 48.8614
" />
<path d="M133.6526 48.8614
L133.6526 48.7662
" />
<path d="M133.6526 48.7662
L133.6050 48.6233
" />
<path d="M133.6050 48.6233
L133.5098 48.5281
" />
<path d="M133.5098 48.5281
L133.4145 48.4805
" />
<path d="M133.4145 48.4805
L133.2240 48.4329
" />
<path d="M133.2240 48.4329
L133.0812 48.4329
" />
<path d="M133.0812 48.4329
L132.8907 48.4805
" />
<path d="M132.8907 48.4805
L132.7955 48.5281
" />
<path d="M132.7955 48.5281
L132.7002 48.6233
" />
<path d="M132.7002 48.6233
L132.6526 48.7662
" />
<path d="M132.6526 48.7662
L132.6526 48.8614
" />
<path d="M132.6526 48.8614
L132.7002 49.0043
" />
<path d="M132.7002 49.0043
L132.7479 49.0519
" />
<path d="M133.6526 49.6233
L133.6050 49.5281
" />
<path d="M133.6050 49.5281
L133.5574 49.4805
" />
<path d="M133.5574 49.4805
L133.4621 49.4329
" />
<path d="M133.4621 49.4329
L133.1764 49.4329
" />
<path d="M133.1764 49.4329
L133.0812 49.4805
" />
<path d="M133.0812 49.4805
L133.0336 49.5281
" />
<path d="M133.0336 49.5281
L132.9860 49.6233
" />
<path d="M132.9860 49.6233
L132.9860 49.7662
" />
<path d="M132.9860 49.7662
L133.0336 49.8614
" />
<path d="M133.0336 49.8614
L133.0812 49.9090
" />
<path d="M133.0812 49.9090
L133.1764 49.9567
" />
<path d="M133.1764 49.9567
L133.4621 49.9567
" />
<path d="M133.4621 49.9567
L133.5574 49.9090
" />
<path d="M133.5574 49.9090
L133.6050 49.8614
" />
<path d="M133.6050 49.8614
L133.6526 49.7662
" />
<path d="M133.6526 49.7662
L133.6526 49.6233
" />
<path d="M132.9860 50.3852
L133.6526 50.3852
" />
<path d="M133.0812 50.3852
L133.0336 50.4329
" />
<path d="M133.0336 50.4329
L132.9860 50.5281
" />
<path d="M132.9860 50.5281
L132.9860 50.6710
" />
<path d="M132.9860 50.6710
L133.0336 50.7662
" />
<path d="M133.0336 50.7662
L133.1288 50.8138
" />
<path d="M133.1288 50.8138
L133.6526 50.8138
" />
<path d="M132.9860 51.2900
L133.6526 51.2900
" />
<path d="M133.0812 51.2900
L133.0336 51.3376
" />
<path d="M133.0336 51.3376
L132.9860 51.4329
" />
<path d="M132.9860 51.4329
L132.9860 51.5757
" />
<path d="M132.9860 51.5757
L133.0336 51.6710
" />
<path d="M133.0336 51.6710
L133.1288 51.7186
" />
<path d="M133.1288 51.7186
L133.6526 51.7186
" />
<path d="M133.7479 51.9567
L133.7479 52.7186
" />
<path d="M132.6526 53.1471
L132.6526 53.2424
" />
<path d="M132.6526 53.2424
L132.7002 53.3376
" />
<path d="M132.7002 53.3376
L132.7479 53.3852
" />
<path d="M132.7479 53.3852
L132.8431 53.4329
" />
<path d="M132.8431 53.4329
L133.0336 53.4805
" />
<path d="M133.0336 53.4805
L133.2717 53.4805
" />
<path d="M133.2717 53.4805
L133.4621 53.4329
" />
<path d="M133.4621 53.4329
L133.5574 53.3852
" />
<path d="M133.5574 53.3852
L133.6050 53.3376
" />
<path d="M133.6050 53.3376
L133.6526 53.2424
" />
<path d="M133.6526 53.2424
L133.6526 53.1471
" />
<path d="M133.6526 53.1471
L133.6050 53.0519
" />
<path d="M133.6050 53.0519
L133.5574 53.0043
" />
<path d="M133.5574 53.0043
L133.4621 52.9567
" />
<path d="M133.4621 52.9567
L133.2717 52.9090
" />
<path d="M133.2717 52.9090
L133.0336 52.9090
" />
<path d="M133.0336 52.9090
L132.8431 52.9567
" />
<path d="M132.8431 52.9567
L132.7479 53.0043
" />
<path d="M132.7479 53.0043
L132.7002 53.0519
" />
<path d="M132.7002 53.0519
L132.6526 53.1471
" />
<path d="M132.7479 53.8614
L132.7002 53.9090
" />
<path d="M132.7002 53.9090
L132.6526 54.0043
" />
<path d="M132.6526 54.0043
L132.6526 54.2424
" />
<path d="M132.6526 54.2424
L132.7002 54.3376
" />
<path d="M132.7002 54.3376
L132.7479 54.3852
" />
<path d="M132.7479 54.3852
L132.8431 54.4329
" />
<path d="M132.8431 54.4329
L132.9383 54.4329
" />
<path d="M132.9383 54.4329
L133.0812 54.3852
" />
<path d="M133.0812 54.3852
L133.6526 53.8138
" />
<path d="M133.6526 53.8138
L133.6526 54.4329
" />
<path d="M133.6526 54.7662
L132.9860 55.2900
" />
<path d="M132.9860 54.7662
L133.6526 55.2900
" />
<path d="M132.6526 55.8614
L132.6526 55.9567
" />
<path d="M132.6526 55.9567
L132.7002 56.0519
" />
<path d="M132.7002 56.0519
L132.7479 56.0995
" />
<path d="M132.7479 56.0995
L132.8431 56.1471
" />
<path d="M132.8431 56.1471
L133.0336 56.1948
" />
<path d="M133.0336 56.1948
L133.2717 56.1948
" />
<path d="M133.2717 56.1948
L133.4621 56.1471
" />
<path d="M133.4621 56.1471
L133.5574 56.0995
" />
<path d="M133.5574 56.0995
L133.6050 56.0519
" />
<path d="M133.6050 56.0519
L133.6526 55.9567
" />
<path d="M133.6526 55.9567
L133.6526 55.8614
" />
<path d="M133.6526 55.8614
L133.6050 55.7662
" />
<path d="M133.6050 55.7662
L133.5574 55.7186
" />
<path d="M133.5574 55.7186
L133.4621 55.6710
" />
<path d="M133.4621 55.6710
L133.2717 55.6233
" />
<path d="M133.2717 55.6233
L133.0336 55.6233
" />
<path d="M133.0336 55.6233
L132.8431 55.6710
" />
<path d="M132.8431 55.6710
L132.7479 55.7186
" />
<path d="M132.7479 55.7186
L132.7002 55.7662
" />
<path d="M132.7002 55.7662
L132.6526 55.8614
" />
<path d="M133.6526 57.1471
L133.6526 56.5757
" />
<path d="M133.6526 56.8614
L132.6526 56.8614
" />
<path d="M132.6526 56.8614
L132.7955 56.7662
" />
<path d="M132.7955 56.7662
L132.8907 56.6710
" />
<path d="M132.8907 56.6710
L132.9383 56.5757
" />
</g><text x="136.7300" y="54.9050"
transform="scale(-1 1) translate(-273.460000 0)"
textLength="2.8417" font-size="1.3333" lengthAdjust="spacingAndGlyphs"
text-anchor="middle" opacity="0">J14</text>
<g class="stroked-text"><desc>J14</desc>
<path d="M137.5395 53.8676
L137.5395 54.5819
" />
<path d="M137.5395 54.5819
L137.5871 54.7248
" />
<path d="M137.5871 54.7248
L137.6824 54.8200
" />
<path d="M137.6824 54.8200
L137.8252 54.8676
" />
<path d="M137.8252 54.8676
L137.9205 54.8676
" />
<path d="M136.5395 54.8676
L137.1110 54.8676
" />
<path d="M136.8252 54.8676
L136.8252 53.8676
" />
<path d="M136.8252 53.8676
L136.9205 54.0105
" />
<path d="M136.9205 54.0105
L137.0157 54.1057
" />
<path d="M137.0157 54.1057
L137.1110 54.1533
" />
<path d="M135.6824 54.2010
L135.6824 54.8676
" />
<path d="M135.9205 53.8200
L136.1586 54.5343
" />
<path d="M136.1586 54.5343
L135.5395 54.5343
" />
</g><text x="126.9492" y="56.7296"
transform="scale(-1 1) translate(-253.898400 0)"
textLength="9.6988" font-size="1.3333" lengthAdjust="spacingAndGlyphs"
text-anchor="middle" opacity="0">Pico USB TP</text>
<g class="stroked-text"><desc>Pico USB TP</desc>
<path d="M131.4730 56.6922
L131.4730 55.6922
" />
<path d="M131.4730 55.6922
L131.0921 55.6922
" />
<path d="M131.0921 55.6922
L130.9968 55.7398
" />
<path d="M130.9968 55.7398
L130.9492 55.7875
" />
<path d="M130.9492 55.7875
L130.9016 55.8827
" />
<path d="M130.9016 55.8827
L130.9016 56.0256
" />
<path d="M130.9016 56.0256
L130.9492 56.1208
" />
<path d="M130.9492 56.1208
L130.9968 56.1684
" />
<path d="M130.9968 56.1684
L131.0921 56.2160
" />
<path d="M131.0921 56.2160
L131.4730 56.2160
" />
<path d="M130.4730 56.6922
L130.4730 56.0256
" />
<path d="M130.4730 55.6922
L130.5206 55.7398
" />
<path d="M130.5206 55.7398
L130.4730 55.7875
" />
<path d="M130.4730 55.7875
L130.4254 55.7398
" />
<path d="M130.4254 55.7398
L130.4730 55.6922
" />
<path d="M130.4730 55.6922
L130.4730 55.7875
" />
<path d="M129.5682 56.6446
L129.6635 56.6922
" />
<path d="M129.6635 56.6922
L129.8540 56.6922
" />
<path d="M129.8540 56.6922
L129.9492 56.6446
" />
<path d="M129.9492 56.6446
L129.9968 56.5970
" />
<path d="M129.9968 56.5970
L130.0444 56.5017
" />
<path d="M130.0444 56.5017
L130.0444 56.2160
" />
<path d="M130.0444 56.2160
L129.9968 56.1208
" />
<path d="M129.9968 56.1208
L129.9492 56.0732
" />
<path d="M129.9492 56.0732
L129.8540 56.0256
" />
<path d="M129.8540 56.0256
L129.6635 56.0256
" />
<path d="M129.6635 56.0256
L129.5682 56.0732
" />
<path d="M128.9968 56.6922
L129.0921 56.6446
" />
<path d="M129.0921 56.6446
L129.1397 56.5970
" />
<path d="M129.1397 56.5970
L129.1873 56.5017
" />
<path d="M129.1873 56.5017
L129.1873 56.2160
" />
<path d="M129.1873 56.2160
L129.1397 56.1208
" />
<path d="M129.1397 56.1208
L129.0921 56.0732
" />
<path d="M129.0921 56.0732
L128.9968 56.0256
" />
<path d="M128.9968 56.0256
L128.8540 56.0256
" />
<path d="M128.8540 56.0256
L128.7587 56.0732
" />
<path d="M128.7587 56.0732
L128.7111 56.1208
" />
<path d="M128.7111 56.1208
L128.6635 56.2160
" />
<path d="M128.6635 56.2160
L128.6635 56.5017
" />
<path d="M128.6635 56.5017
L128.7111 56.5970
" />
<path d="M128.7111 56.5970
L128.7587 56.6446
" />
<path d="M128.7587 56.6446
L128.8540 56.6922
" />
<path d="M128.8540 56.6922
L128.9968 56.6922
" />
<path d="M127.4730 55.6922
L127.4730 56.5017
" />
<path d="M127.4730 56.5017
L127.4254 56.5970
" />
<path d="M127.4254 56.5970
L127.3778 56.6446
" />
<path d="M127.3778 56.6446
L127.2825 56.6922
" />
<path d="M127.2825 56.6922
L127.0921 56.6922
" />
<path d="M127.0921 56.6922
L126.9968 56.6446
" />
<path d="M126.9968 56.6446
L126.9492 56.5970
" />
<path d="M126.9492 56.5970
L126.9016 56.5017
" />
<path d="M126.9016 56.5017
L126.9016 55.6922
" />
<path d="M126.4730 56.6446
L126.3302 56.6922
" />
<path d="M126.3302 56.6922
L126.0921 56.6922
" />
<path d="M126.0921 56.6922
L125.9968 56.6446
" />
<path d="M125.9968 56.6446
L125.9492 56.5970
" />
<path d="M125.9492 56.5970
L125.9016 56.5017
" />
<path d="M125.9016 56.5017
L125.9016 56.4065
" />
<path d="M125.9016 56.4065
L125.9492 56.3113
" />
<path d="M125.9492 56.3113
L125.9968 56.2636
" />
<path d="M125.9968 56.2636
L126.0921 56.2160
" />
<path d="M126.0921 56.2160
L126.2825 56.1684
" />
<path d="M126.2825 56.1684
L126.3778 56.1208
" />
<path d="M126.3778 56.1208
L126.4254 56.0732
" />
<path d="M126.4254 56.0732
L126.4730 55.9779
" />
<path d="M126.4730 55.9779
L126.4730 55.8827
" />
<path d="M126.4730 55.8827
L126.4254 55.7875
" />
<path d="M126.4254 55.7875
L126.3778 55.7398
" />
<path d="M126.3778 55.7398
L126.2825 55.6922
" />
<path d="M126.2825 55.6922
L126.0444 55.6922
" />
<path d="M126.0444 55.6922
L125.9016 55.7398
" />
<path d="M125.1397 56.1684
L124.9968 56.2160
" />
<path d="M124.9968 56.2160
L124.9492 56.2636
" />
<path d="M124.9492 56.2636
L124.9016 56.3589
" />
<path d="M124.9016 56.3589
L124.9016 56.5017
" />
<path d="M124.9016 56.5017
L124.9492 56.5970
" />
<path d="M124.9492 56.5970
L124.9968 56.6446
" />
<path d="M124.9968 56.6446
L125.0921 56.6922
" />
<path d="M125.0921 56.6922
L125.4730 56.6922
" />
<path d="M125.4730 56.6922
L125.4730 55.6922
" />
<path d="M125.4730 55.6922
L125.1397 55.6922
" />
<path d="M125.1397 55.6922
L125.0444 55.7398
" />
<path d="M125.0444 55.7398
L124.9968 55.7875
" />
<path d="M124.9968 55.7875
L124.9492 55.8827
" />
<path d="M124.9492 55.8827
L124.9492 55.9779
" />
<path d="M124.9492 55.9779
L124.9968 56.0732
" />
<path d="M124.9968 56.0732
L125.0444 56.1208
" />
<path d="M125.0444 56.1208
L125.1397 56.1684
" />
<path d="M125.1397 56.1684
L125.4730 56.1684
" />
<path d="M123.8540 55.6922
L123.2825 55.6922
" />
<path d="M123.5682 56.6922
L123.5682 55.6922
" />
<path d="M122.9492 56.6922
L122.9492 55.6922
" />
<path d="M122.9492 55.6922
L122.5682 55.6922
" />
<path d="M122.5682 55.6922
L122.4730 55.7398
" />
<path d="M122.4730 55.7398
L122.4254 55.7875
" />
<path d="M122.4254 55.7875
L122.3778 55.8827
" />
<path d="M122.3778 55.8827
L122.3778 56.0256
" />
<path d="M122.3778 56.0256
L122.4254 56.1208
" />
<path d="M122.4254 56.1208
L122.4730 56.1684
" />
<path d="M122.4730 56.1684
L122.5682 56.2160
" />
<path d="M122.5682 56.2160
L122.9492 56.2160
" />
</g><g transform="rotate(-90.000000 127.0000 49.0000)">
<text x="127.0000" y="49.5000"
transform="scale(-1 1) translate(-254.000000 0)"
textLength="1.8893" font-size="1.3333" lengthAdjust="spacingAndGlyphs"
text-anchor="middle" opacity="0">J5</text>
</g>
<g class="stroked-text"><desc>J5</desc>
<path d="M126.4626 48.6667
L127.1769 48.6667
" />
<path d="M127.1769 48.6667
L127.3198 48.6190
" />
<path d="M127.3198 48.6190
L127.4150 48.5238
" />
<path d="M127.4150 48.5238
L127.4626 48.3810
" />
<path d="M127.4626 48.3810
L127.4626 48.2857
" />
<path d="M126.4626 49.6190
L126.4626 49.1429
" />
<path d="M126.4626 49.1429
L126.9388 49.0952
" />
<path d="M126.9388 49.0952
L126.8912 49.1429
" />
<path d="M126.8912 49.1429
L126.8436 49.2381
" />
<path d="M126.8436 49.2381
L126.8436 49.4762
" />
<path d="M126.8436 49.4762
L126.8912 49.5714
" />
<path d="M126.8912 49.5714
L126.9388 49.6190
" />
<path d="M126.9388 49.6190
L127.0340 49.6667
" />
<path d="M127.0340 49.6667
L127.2721 49.6667
" />
<path d="M127.2721 49.6667
L127.3674 49.6190
" />
<path d="M127.3674 49.6190
L127.4150 49.5714
" />
<path d="M127.4150 49.5714
L127.4626 49.4762
" />
<path d="M127.4626 49.4762
L127.4626 49.2381
" />
<path d="M127.4626 49.2381
L127.4150 49.1429
" />
<path d="M127.4150 49.1429
L127.3674 49.0952
" />
</g><g transform="rotate(-90.000000 100.8410 49.0000)">
<text x="100.8410" y="49.5000"
transform="scale(-1 1) translate(-201.682000 0)"
textLength="3.4131" font-size="1.3333" lengthAdjust="spacingAndGlyphs"
text-anchor="middle" opacity="0">Pico</text>
</g>
<g class="stroked-text"><desc>Pico</desc>
<path d="M101.3036 47.6190
L100.3036 47.6190
" />
<path d="M100.3036 47.6190
L100.3036 48.0000
" />
<path d="M100.3036 48.0000
L100.3512 48.0952
" />
<path d="M100.3512 48.0952
L100.3989 48.1429
" />
<path d="M100.3989 48.1429
L100.4941 48.1905
" />
<path d="M100.4941 48.1905
L100.6370 48.1905
" />
<path d="M100.6370 48.1905
L100.7322 48.1429
" />
<path d="M100.7322 48.1429
L100.7798 48.0952
" />
<path d="M100.7798 48.0952
L100.8274 48.0000
" />
<path d="M100.8274 48.0000
L100.8274 47.6190
" />
<path d="M101.3036 48.6190
L100.6370 48.6190
" />
<path d="M100.3036 48.6190
L100.3512 48.5714
" />
<path d="M100.3512 48.5714
L100.3989 48.6190
" />
<path d="M100.3989 48.6190
L100.3512 48.6667
" />
<path d="M100.3512 48.6667
L100.3036 48.6190
" />
<path d="M100.3036 48.6190
L100.3989 48.6190
" />
<path d="M101.2560 49.5238
L101.3036 49.4286
" />
<path d="M101.3036 49.4286
L101.3036 49.2381
" />
<path d="M101.3036 49.2381
L101.2560 49.1429
" />
<path d="M101.2560 49.1429
L101.2084 49.0952
" />
<path d="M101.2084 49.0952
L101.1131 49.0476
" />
<path d="M101.1131 49.0476
L100.8274 49.0476
" />
<path d="M100.8274 49.0476
L100.7322 49.0952
" />
<path d="M100.7322 49.0952
L100.6846 49.1429
" />
<path d="M100.6846 49.1429
L100.6370 49.2381
" />
<path d="M100.6370 49.2381
L100.6370 49.4286
" />
<path d="M100.6370 49.4286
L100.6846 49.5238
" />
<path d="M101.3036 50.0952
L101.2560 50.0000
" />
<path d="M101.2560 50.0000
L101.2084 49.9524
" />
<path d="M101.2084 49.9524
L101.1131 49.9048
" />
<path d="M101.1131 49.9048
L100.8274 49.9048
" />
<path d="M100.8274 49.9048
L100.7322 49.9524
" />
<path d="M100.7322 49.9524
L100.6846 50.0000
" />
<path d="M100.6846 50.0000
L100.6370 50.0952
" />
<path d="M100.6370 50.0952
L100.6370 50.2381
" />
<path d="M100.6370 50.2381
L100.6846 50.3333
" />
<path d="M100.6846 50.3333
L100.7322 50.3810
" />
<path d="M100.7322 50.3810
L100.8274 50.4286
" />
<path d="M100.8274 50.4286
L101.1131 50.4286
" />
<path d="M101.1131 50.4286
L101.2084 50.3810
" />
<path d="M101.2084 50.3810
L101.2560 50.3333
" />
<path d="M101.2560 50.3333
L101.3036 50.2381
" />
<path d="M101.3036 50.2381
L101.3036 50.0952
" />
</g><g transform="rotate(-90.000000 103.0000 49.0000)">
<text x="103.0000" y="49.5000"
transform="scale(-1 1) translate(-206.000000 0)"
textLength="2.1750" font-size="1.3333" lengthAdjust="spacingAndGlyphs"
text-anchor="middle" opacity="0">U1</text>
</g>
<g class="stroked-text"><desc>U1</desc>
<path d="M102.4626 48.2381
L103.2721 48.2381
" />
<path d="M103.2721 48.2381
L103.3674 48.2857
" />
<path d="M103.3674 48.2857
L103.4150 48.3333
" />
<path d="M103.4150 48.3333
L103.4626 48.4286
" />
<path d="M103.4626 48.4286
L103.4626 48.6190
" />
<path d="M103.4626 48.6190
L103.4150 48.7143
" />
<path d="M103.4150 48.7143
L103.3674 48.7619
" />
<path d="M103.3674 48.7619
L103.2721 48.8095
" />
<path d="M103.2721 48.8095
L102.4626 48.8095
" />
<path d="M103.4626 49.8095
L103.4626 49.2381
" />
<path d="M103.4626 49.5238
L102.4626 49.5238
" />
<path d="M102.4626 49.5238
L102.6055 49.4286
" />
<path d="M102.6055 49.4286
L102.7007 49.3333
" />
<path d="M102.7007 49.3333
L102.7483 49.2381
" />
</g><g transform="rotate(-90.000000 32.1500 84.7150)">
<text x="32.1500" y="85.2150"
transform="scale(-1 1) translate(-64.300000 0)"
textLength="10.0321" font-size="1.3333" lengthAdjust="spacingAndGlyphs"
text-anchor="middle" opacity="0">RGB_LED_EXT</text>
</g>
<g class="stroked-text"><desc>RGB_LED_EXT</desc>
<path d="M32.6126 80.5960
L32.1364 80.2626
" />
<path d="M32.6126 80.0245
L31.6126 80.0245
" />
<path d="M31.6126 80.0245
L31.6126 80.4055
" />
<path d="M31.6126 80.4055
L31.6602 80.5007
" />
<path d="M31.6602 80.5007
L31.7079 80.5483
" />
<path d="M31.7079 80.5483
L31.8031 80.5960
" />
<path d="M31.8031 80.5960
L31.9460 80.5960
" />
<path d="M31.9460 80.5960
L32.0412 80.5483
" />
<path d="M32.0412 80.5483
L32.0888 80.5007
" />
<path d="M32.0888 80.5007
L32.1364 80.4055
" />
<path d="M32.1364 80.4055
L32.1364 80.0245
" />
<path d="M31.6602 81.5483
L31.6126 81.4531
" />
<path d="M31.6126 81.4531
L31.6126 81.3102
" />
<path d="M31.6126 81.3102
L31.6602 81.1674
" />
<path d="M31.6602 81.1674
L31.7555 81.0721
" />
<path d="M31.7555 81.0721
L31.8507 81.0245
" />
<path d="M31.8507 81.0245
L32.0412 80.9769
" />
<path d="M32.0412 80.9769
L32.1840 80.9769
" />
<path d="M32.1840 80.9769
L32.3745 81.0245
" />
<path d="M32.3745 81.0245
L32.4698 81.0721
" />
<path d="M32.4698 81.0721
L32.5650 81.1674
" />
<path d="M32.5650 81.1674
L32.6126 81.3102
" />
<path d="M32.6126 81.3102
L32.6126 81.4055
" />
<path d="M32.6126 81.4055
L32.5650 81.5483
" />
<path d="M32.5650 81.5483
L32.5174 81.5960
" />
<path d="M32.5174 81.5960
L32.1840 81.5960
" />
<path d="M32.1840 81.5960
L32.1840 81.4055
" />
<path d="M32.0888 82.3579
L32.1364 82.5007
" />
<path d="M32.1364 82.5007
L32.1840 82.5483
" />
<path d="M32.1840 82.5483
L32.2793 82.5960
" />
<path d="M32.2793 82.5960
L32.4221 82.5960
" />
<path d="M32.4221 82.5960
L32.5174 82.5483
" />
<path d="M32.5174 82.5483
L32.5650 82.5007
" />
<path d="M32.5650 82.5007
L32.6126 82.4055
" />
<path d="M32.6126 82.4055
L32.6126 82.0245
" />
<path d="M32.6126 82.0245
L31.6126 82.0245
" />
<path d="M31.6126 82.0245
L31.6126 82.3579
" />
<path d="M31.6126 82.3579
L31.6602 82.4531
" />
<path d="M31.6602 82.4531
L31.7079 82.5007
" />
<path d="M31.7079 82.5007
L31.8031 82.5483
" />
<path d="M31.8031 82.5483
L31.8983 82.5483
" />
<path d="M31.8983 82.5483
L31.9936 82.5007
" />
<path d="M31.9936 82.5007
L32.0412 82.4531
" />
<path d="M32.0412 82.4531
L32.0888 82.3579
" />
<path d="M32.0888 82.3579
L32.0888 82.0245
" />
<path d="M32.7079 82.7864
L32.7079 83.5483
" />
<path d="M32.6126 84.2626
L32.6126 83.7864
" />
<path d="M32.6126 83.7864
L31.6126 83.7864
" />
<path d="M32.0888 84.5960
L32.0888 84.9293
" />
<path d="M32.6126 85.0721
L32.6126 84.5960
" />
<path d="M32.6126 84.5960
L31.6126 84.5960
" />
<path d="M31.6126 84.5960
L31.6126 85.0721
" />
<path d="M32.6126 85.5007
L31.6126 85.5007
" />
<path d="M31.6126 85.5007
L31.6126 85.7388
" />
<path d="M31.6126 85.7388
L31.6602 85.8817
" />
<path d="M31.6602 85.8817
L31.7555 85.9769
" />
<path d="M31.7555 85.9769
L31.8507 86.0245
" />
<path d="M31.8507 86.0245
L32.0412 86.0721
" />
<path d="M32.0412 86.0721
L32.1840 86.0721
" />
<path d="M32.1840 86.0721
L32.3745 86.0245
" />
<path d="M32.3745 86.0245
L32.4698 85.9769
" />
<path d="M32.4698 85.9769
L32.5650 85.8817
" />
<path d="M32.5650 85.8817
L32.6126 85.7388
" />
<path d="M32.6126 85.7388
L32.6126 85.5007
" />
<path d="M32.7079 86.2626
L32.7079 87.0245
" />
<path d="M32.0888 87.2626
L32.0888 87.5960
" />
<path d="M32.6126 87.7388
L32.6126 87.2626
" />
<path d="M32.6126 87.2626
L31.6126 87.2626
" />
<path d="M31.6126 87.2626
L31.6126 87.7388
" />
<path d="M31.6126 88.0721
L32.6126 88.7388
" />
<path d="M31.6126 88.7388
L32.6126 88.0721
" />
<path d="M31.6126 88.9769
L31.6126 89.5483
" />
<path d="M32.6126 89.2626
L31.6126 89.2626
" />
</g><g transform="rotate(-90.000000 40.9150 85.3700)">
<text x="40.9150" y="85.8700"
transform="scale(-1 1) translate(-81.830000 0)"
textLength="1.8893" font-size="1.3333" lengthAdjust="spacingAndGlyphs"
text-anchor="middle" opacity="0">J4</text>
</g>
<g class="stroked-text"><desc>J4</desc>
<path d="M40.3776 85.0367
L41.0919 85.0367
" />
<path d="M41.0919 85.0367
L41.2348 84.9890
" />
<path d="M41.2348 84.9890
L41.3300 84.8938
" />
<path d="M41.3300 84.8938
L41.3776 84.7510
" />
<path d="M41.3776 84.7510
L41.3776 84.6557
" />
<path d="M40.7110 85.9414
L41.3776 85.9414
" />
<path d="M40.3300 85.7033
L41.0443 85.4652
" />
<path d="M41.0443 85.4652
L41.0443 86.0843
" />
</g><g transform="rotate(-90.000000 123.7000 93.7756)">
<text x="123.7000" y="94.2756"
transform="scale(-1 1) translate(-247.400000 0)"
textLength="7.6512" font-size="1.3333" lengthAdjust="spacingAndGlyphs"
text-anchor="middle" opacity="0">HiFi Berry</text>
</g>
<g class="stroked-text"><desc>HiFi Berry</desc>
<path d="M124.1626 90.2756
L123.1626 90.2756
" />
<path d="M123.6388 90.2756
L123.6388 90.8470
" />
<path d="M124.1626 90.8470
L123.1626 90.8470
" />
<path d="M124.1626 91.3232
L123.4960 91.3232
" />
<path d="M123.1626 91.3232
L123.2102 91.2756
" />
<path d="M123.2102 91.2756
L123.2579 91.3232
" />
<path d="M123.2579 91.3232
L123.2102 91.3708
" />
<path d="M123.2102 91.3708
L123.1626 91.3232
" />
<path d="M123.1626 91.3232
L123.2579 91.3232
" />
<path d="M123.6388 92.1327
L123.6388 91.7994
" />
<path d="M124.1626 91.7994
L123.1626 91.7994
" />
<path d="M123.1626 91.7994
L123.1626 92.2756
" />
<path d="M124.1626 92.6566
L123.4960 92.6566
" />
<path d="M123.1626 92.6566
L123.2102 92.6089
" />
<path d="M123.2102 92.6089
L123.2579 92.6566
" />
<path d="M123.2579 92.6566
L123.2102 92.7042
" />
<path d="M123.2102 92.7042
L123.1626 92.6566
" />
<path d="M123.1626 92.6566
L123.2579 92.6566
" />
<path d="M123.6388 94.2280
L123.6864 94.3708
" />
<path d="M123.6864 94.3708
L123.7340 94.4185
" />
<path d="M123.7340 94.4185
L123.8293 94.4661
" />
<path d="M123.8293 94.4661
L123.9721 94.4661
" />
<path d="M123.9721 94.4661
L124.0674 94.4185
" />
<path d="M124.0674 94.4185
L124.1150 94.3708
" />
<path d="M124.1150 94.3708
L124.1626 94.2756
" />
<path d="M124.1626 94.2756
L124.1626 93.8946
" />
<path d="M124.1626 93.8946
L123.1626 93.8946
" />
<path d="M123.1626 93.8946
L123.1626 94.2280
" />
<path d="M123.1626 94.2280
L123.2102 94.3232
" />
<path d="M123.2102 94.3232
L123.2579 94.3708
" />
<path d="M123.2579 94.3708
L123.3531 94.4185
" />
<path d="M123.3531 94.4185
L123.4483 94.4185
" />
<path d="M123.4483 94.4185
L123.5436 94.3708
" />
<path d="M123.5436 94.3708
L123.5912 94.3232
" />
<path d="M123.5912 94.3232
L123.6388 94.2280
" />
<path d="M123.6388 94.2280
L123.6388 93.8946
" />
<path d="M124.1150 95.2756
L124.1626 95.1804
" />
<path d="M124.1626 95.1804
L124.1626 94.9899
" />
<path d="M124.1626 94.9899
L124.1150 94.8946
" />
<path d="M124.1150 94.8946
L124.0198 94.8470
" />
<path d="M124.0198 94.8470
L123.6388 94.8470
" />
<path d="M123.6388 94.8470
L123.5436 94.8946
" />
<path d="M123.5436 94.8946
L123.4960 94.9899
" />
<path d="M123.4960 94.9899
L123.4960 95.1804
" />
<path d="M123.4960 95.1804
L123.5436 95.2756
" />
<path d="M123.5436 95.2756
L123.6388 95.3232
" />
<path d="M123.6388 95.3232
L123.7340 95.3232
" />
<path d="M123.7340 95.3232
L123.8293 94.8470
" />
<path d="M124.1626 95.7518
L123.4960 95.7518
" />
<path d="M123.6864 95.7518
L123.5912 95.7994
" />
<path d="M123.5912 95.7994
L123.5436 95.8470
" />
<path d="M123.5436 95.8470
L123.4960 95.9423
" />
<path d="M123.4960 95.9423
L123.4960 96.0375
" />
<path d="M124.1626 96.3708
L123.4960 96.3708
" />
<path d="M123.6864 96.3708
L123.5912 96.4185
" />
<path d="M123.5912 96.4185
L123.5436 96.4661
" />
<path d="M123.5436 96.4661
L123.4960 96.5613
" />
<path d="M123.4960 96.5613
L123.4960 96.6566
" />
<path d="M123.4960 96.8946
L124.1626 97.1327
" />
<path d="M123.4960 97.3708
L124.1626 97.1327
" />
<path d="M124.1626 97.1327
L124.4007 97.0375
" />
<path d="M124.4007 97.0375
L124.4483 96.9899
" />
<path d="M124.4483 96.9899
L124.4960 96.8946
" />
</g><g transform="rotate(-90.000000 57.0700 55.8350)">
<text x="57.0700" y="56.3350"
transform="scale(-1 1) translate(-114.140000 0)"
textLength="9.4607" font-size="1.3333" lengthAdjust="spacingAndGlyphs"
text-anchor="middle" opacity="0">MIDI IN/OUT</text>
</g>
<g class="stroked-text"><desc>MIDI IN/OUT</desc>
<path d="M57.5326 51.4302
L56.5326 51.4302
" />
<path d="M56.5326 51.4302
L57.2469 51.7636
" />
<path d="M57.2469 51.7636
L56.5326 52.0969
" />
<path d="M56.5326 52.0969
L57.5326 52.0969
" />
<path d="M57.5326 52.5731
L56.5326 52.5731
" />
<path d="M57.5326 53.0493
L56.5326 53.0493
" />
<path d="M56.5326 53.0493
L56.5326 53.2874
" />
<path d="M56.5326 53.2874
L56.5802 53.4302
" />
<path d="M56.5802 53.4302
L56.6755 53.5255
" />
<path d="M56.6755 53.5255
L56.7707 53.5731
" />
<path d="M56.7707 53.5731
L56.9612 53.6207
" />
<path d="M56.9612 53.6207
L57.1040 53.6207
" />
<path d="M57.1040 53.6207
L57.2945 53.5731
" />
<path d="M57.2945 53.5731
L57.3898 53.5255
" />
<path d="M57.3898 53.5255
L57.4850 53.4302
" />
<path d="M57.4850 53.4302
L57.5326 53.2874
" />
<path d="M57.5326 53.2874
L57.5326 53.0493
" />
<path d="M57.5326 54.0493
L56.5326 54.0493
" />
<path d="M57.5326 55.2874
L56.5326 55.2874
" />
<path d="M57.5326 55.7636
L56.5326 55.7636
" />
<path d="M56.5326 55.7636
L57.5326 56.3350
" />
<path d="M57.5326 56.3350
L56.5326 56.3350
" />
<path d="M56.4850 57.5255
L57.7707 56.6683
" />
<path d="M56.5326 58.0493
L56.5326 58.2398
" />
<path d="M56.5326 58.2398
L56.5802 58.3350
" />
<path d="M56.5802 58.3350
L56.6755 58.4302
" />
<path d="M56.6755 58.4302
L56.8660 58.4779
" />
<path d="M56.8660 58.4779
L57.1993 58.4779
" />
<path d="M57.1993 58.4779
L57.3898 58.4302
" />
<path d="M57.3898 58.4302
L57.4850 58.3350
" />
<path d="M57.4850 58.3350
L57.5326 58.2398
" />
<path d="M57.5326 58.2398
L57.5326 58.0493
" />
<path d="M57.5326 58.0493
L57.4850 57.9540
" />
<path d="M57.4850 57.9540
L57.3898 57.8588
" />
<path d="M57.3898 57.8588
L57.1993 57.8112
" />
<path d="M57.1993 57.8112
L56.8660 57.8112
" />
<path d="M56.8660 57.8112
L56.6755 57.8588
" />
<path d="M56.6755 57.8588
L56.5802 57.9540
" />
<path d="M56.5802 57.9540
L56.5326 58.0493
" />
<path d="M56.5326 58.9064
L57.3421 58.9064
" />
<path d="M57.3421 58.9064
L57.4374 58.9540
" />
<path d="M57.4374 58.9540
L57.4850 59.0017
" />
<path d="M57.4850 59.0017
L57.5326 59.0969
" />
<path d="M57.5326 59.0969
L57.5326 59.2874
" />
<path d="M57.5326 59.2874
L57.4850 59.3826
" />
<path d="M57.4850 59.3826
L57.4374 59.4302
" />
<path d="M57.4374 59.4302
L57.3421 59.4779
" />
<path d="M57.3421 59.4779
L56.5326 59.4779
" />
<path d="M56.5326 59.8112
L56.5326 60.3826
" />
<path d="M57.5326 60.0969
L56.5326 60.0969
" />
</g><g transform="rotate(-90.000000 65.6900 55.3900)">
<text x="65.6900" y="55.8900"
transform="scale(-1 1) translate(-131.380000 0)"
textLength="2.8417" font-size="1.3333" lengthAdjust="spacingAndGlyphs"
text-anchor="middle" opacity="0">J15</text>
</g>
<g class="stroked-text"><desc>J15</desc>
<path d="M65.1526 54.5805
L65.8669 54.5805
" />
<path d="M65.8669 54.5805
L66.0098 54.5329
" />
<path d="M66.0098 54.5329
L66.1050 54.4376
" />
<path d="M66.1050 54.4376
L66.1526 54.2948
" />
<path d="M66.1526 54.2948
L66.1526 54.1995
" />
<path d="M66.1526 55.5805
L66.1526 55.0090
" />
<path d="M66.1526 55.2948
L65.1526 55.2948
" />
<path d="M65.1526 55.2948
L65.2955 55.1995
" />
<path d="M65.2955 55.1995
L65.3907 55.1043
" />
<path d="M65.3907 55.1043
L65.4383 55.0090
" />
<path d="M65.1526 56.4852
L65.1526 56.0090
" />
<path d="M65.1526 56.0090
L65.6288 55.9614
" />
<path d="M65.6288 55.9614
L65.5812 56.0090
" />
<path d="M65.5812 56.0090
L65.5336 56.1043
" />
<path d="M65.5336 56.1043
L65.5336 56.3424
" />
<path d="M65.5336 56.3424
L65.5812 56.4376
" />
<path d="M65.5812 56.4376
L65.6288 56.4852
" />
<path d="M65.6288 56.4852
L65.7240 56.5329
" />
<path d="M65.7240 56.5329
L65.9621 56.5329
" />
<path d="M65.9621 56.5329
L66.0574 56.4852
" />
<path d="M66.0574 56.4852
L66.1050 56.4376
" />
<path d="M66.1050 56.4376
L66.1526 56.3424
" />
<path d="M66.1526 56.3424
L66.1526 56.1043
" />
<path d="M66.1526 56.1043
L66.1050 56.0090
" />
<path d="M66.1050 56.0090
L66.0574 55.9614
" />
</g></g>
<g style="fill:#000000; fill-opacity:0.0; 
stroke:#000000; stroke-width:0.1000; stroke-opacity:1; 
stroke-linecap:round; stroke-linejoin:round;">
<path d="M114.8950 98.8750
L114.8950 89.3500
" />
<path d="M114.8950 89.3500
L114.2600 88.7150
" />
<path d="M114.2600 88.7150
L112.3550 88.7150
" />
<path d="M112.3550 98.8750
L114.8950 98.8750
" />
<path d="M112.3550 88.7150
L112.3550 98.8750
" />
<path d="M135.1400 57.4950
L135.1400 55.6750
" />
<path d="M135.7800 57.4950
L135.1400 57.4950
" />
<path d="M135.7800 57.4950
L135.7800 55.6750
" />
<path d="M137.6800 57.4950
L137.6800 55.6750
" />
<path d="M138.3200 57.4950
L137.6800 57.4950
" />
<path d="M138.3200 57.4950
L138.3200 55.6750
" />
<path d="M134.1900 55.6750
L138.6350 55.6750
" />
<path d="M138.6350 55.6750
L139.2700 55.0400
" />
<path d="M139.2700 55.0400
L139.2700 53.1350
" />
<path d="M134.1900 53.1350
L134.1900 55.6750
" />
<path d="M135.1400 53.1350
L135.1400 47.1350
" />
<path d="M135.7800 53.1350
L135.7800 47.1350
" />
<path d="M137.6800 53.1350
L137.6800 47.1350
" />
<path d="M138.3200 53.1350
L138.3200 47.1350
" />
<path d="M139.2700 53.1350
L134.1900 53.1350
" />
<path d="M135.7800 47.1350
L135.1400 47.1350
" />
<path d="M138.3200 47.1350
L137.6800 47.1350
" />
</g>
<g style="fill:#000000; fill-opacity:0.0; 
stroke:#000000; stroke-width:0.1200; stroke-opacity:1; 
stroke-linecap:round; stroke-linejoin:round;">
<path d="M77.5000 59.5000
L128.5000 59.5000
" />
<path d="M127.2000 59.5000
L128.5000 58.2000
" />
<path d="M128.5000 59.5000
L128.5000 38.5000
" />
<path d="M77.5000 38.5000
L77.5000 59.5000
" />
<path d="M128.5000 38.5000
L77.5000 38.5000
" />
</g>
<g style="fill:#000000; fill-opacity:0.0; 
stroke:#000000; stroke-width:0.1000; stroke-opacity:1; 
stroke-linecap:round; stroke-linejoin:round;">
<path d="M43.9350 88.1900
L42.1150 88.1900
" />
<path d="M43.9350 87.5500
L43.9350 88.1900
" />
<path d="M43.9350 87.5500
L42.1150 87.5500
" />
<path d="M43.9350 85.6500
L42.1150 85.6500
" />
<path d="M43.9350 85.0100
L43.9350 85.6500
" />
<path d="M43.9350 85.0100
L42.1150 85.0100
" />
<path d="M43.9350 83.1100
L42.1150 83.1100
" />
<path d="M43.9350 82.4700
L43.9350 83.1100
" />
<path d="M43.9350 82.4700
L42.1150 82.4700
" />
<path d="M42.1150 89.1400
L42.1150 82.1550
" />
<path d="M42.1150 82.1550
L41.4800 81.5200
" />
<path d="M41.4800 81.5200
L39.5750 81.5200
" />
<path d="M39.5750 89.1400
L42.1150 89.1400
" />
<path d="M39.5750 88.1900
L33.5750 88.1900
" />
<path d="M39.5750 87.5500
L33.5750 87.5500
" />
<path d="M39.5750 85.6500
L33.5750 85.6500
" />
<path d="M39.5750 85.0100
L33.5750 85.0100
" />
<path d="M39.5750 83.1100
L33.5750 83.1100
" />
<path d="M39.5750 82.4700
L33.5750 82.4700
" />
<path d="M39.5750 81.5200
L39.5750 89.1400
" />
<path d="M33.5750 87.5500
L33.5750 88.1900
" />
<path d="M33.5750 85.0100
L33.5750 85.6500
" />
<path d="M33.5750 82.4700
L33.5750 83.1100
" />
<path d="M158.7300 122.9606
L151.1100 122.9606
" />
<path d="M158.7300 117.8806
L158.7300 122.9606
" />
<path d="M157.8250 81.1956
L152.7450 81.1956
" />
<path d="M157.8250 74.5756
L157.8250 81.1956
" />
<path d="M156.8250 73.5756
L157.8250 74.5756
" />
<path d="M152.7450 81.1956
L152.7450 73.5756
" />
<path d="M152.7450 73.5756
L156.8250 73.5756
" />
<path d="M152.1100 117.8806
L158.7300 117.8806
" />
<path d="M151.1100 122.9606
L151.1100 118.8806
" />
<path d="M151.1100 118.8806
L152.1100 117.8806
" />
<path d="M121.5200 117.9056
L116.4400 117.9056
" />
<path d="M121.5200 68.1056
L121.5200 117.9056
" />
<path d="M120.5200 67.1056
L121.5200 68.1056
" />
<path d="M116.4400 117.9056
L116.4400 67.1056
" />
<path d="M116.4400 67.1056
L120.5200 67.1056
" />
<path d="M71.3200 58.2500
L66.9600 58.2500
" />
<path d="M71.3200 57.6100
L71.3200 58.2500
" />
<path d="M71.3200 57.6100
L66.9600 57.6100
" />
<path d="M71.3200 55.7100
L66.9600 55.7100
" />
<path d="M71.3200 55.0700
L71.3200 55.7100
" />
<path d="M71.3200 55.0700
L66.9600 55.0700
" />
<path d="M71.3200 53.1700
L66.9600 53.1700
" />
<path d="M71.3200 52.5300
L71.3200 53.1700
" />
<path d="M71.3200 52.5300
L66.9600 52.5300
" />
<path d="M66.9600 59.2000
L66.9600 52.2150
" />
<path d="M66.9600 52.2150
L66.3250 51.5800
" />
<path d="M66.3250 51.5800
L64.4200 51.5800
" />
<path d="M64.4200 59.2000
L66.9600 59.2000
" />
<path d="M64.4200 58.2500
L58.4200 58.2500
" />
<path d="M64.4200 57.6100
L58.4200 57.6100
" />
<path d="M64.4200 55.7100
L58.4200 55.7100
" />
<path d="M64.4200 55.0700
L58.4200 55.0700
" />
<path d="M64.4200 53.1700
L58.4200 53.1700
" />
<path d="M64.4200 52.5300
L58.4200 52.5300
" />
<path d="M64.4200 51.5800
L64.4200 59.2000
" />
<path d="M58.4200 57.6100
L58.4200 58.2500
" />
<path d="M58.4200 55.0700
L58.4200 55.7100
" />
<path d="M58.4200 52.5300
L58.4200 53.1700
" />
<g >
</g>
<g >
</g>
<g >
</g>
<g >
</g>
<g >
</g>
<g >
</g>
<g >
</g>
<g >
</g>
<g >
</g>
<g >
</g>
<g >
</g>
<g >
</g>
<g >
</g>
<g >
</g>
<g >
</g>
<g >
</g>
<g >
</g>
<g >
</g>
<g >
</g>
<g >
</g>
<g >
</g>
<g >
</g>
<g >
</g>
<g >
</g>
<g >
</g>
<g >
</g>
<g >
</g>
<g >
</g>
<g >
</g>
<g >
</g>
<g >
</g>
<g >
</g>
<g >
</g>
<g >
</g>
<g >
</g>
<g >
</g>
<g >
</g>
<g >
</g>
<g >
</g>
<g >
</g>
<g >
</g>
<g >
</g>
<g >
</g>
<g >
</g>
<g >
</g>
<g >
</g>
<g >
</g>
<g >
</g>
<g >
</g>
<g >
</g>
<g >
</g>
<g >
</g>
<g >
</g>
<g >
</g>
<g >
</g>
<g >
</g>
<g >
</g>
<g >
</g>
<g >
</g>
<g >
</g>
<g >
</g>
<g >
</g>
<g >
</g>
<g >
</g>
<g >
</g>
<g >
</g>
<g >
</g>
<g >
</g>
<g >
</g>
<g >
</g>
<g >
</g>
<g >
</g>
<g >
</g>
<g >
</g>
<g >
</g>
<g >
</g>
<g >
</g>
<g >
</g>
<g >
</g>
<g >
</g>
<g >
</g>
<g >
</g>
<g >
</g>
</g> 
</svg>
