<?xml version="1.0" standalone="no"?>
 <!DOCTYPE svg PUBLIC "-//W3C//DTD SVG 1.1//EN" 
 "http://www.w3.org/Graphics/SVG/1.1/DTD/svg11.dtd"> 
<svg
  xmlns:svg="http://www.w3.org/2000/svg"
  xmlns="http://www.w3.org/2000/svg"
  xmlns:xlink="http://www.w3.org/1999/xlink"
  version="1.1"
  width="297.0022mm" height="210.0072mm" viewBox="0.0000 0.0000 297.0022 210.0072">
<title>SVG Image created as pedalboard-hw-F_Courtyard.svg date 2023/03/26 23:27:28 </title>
  <desc>Image generated by PCBNEW </desc>
<g style="fill:#000000; fill-opacity:1.0000;stroke:#000000; stroke-opacity:1.0000;
stroke-linecap:round; stroke-linejoin:round;"
 transform="translate(0 0) scale(1 1)">
</g>
<g style="fill:#000000; fill-opacity:0.0; 
stroke:#000000; stroke-width:0.0000; stroke-opacity:1; 
stroke-linecap:round; stroke-linejoin:round;">
</g>
<g style="fill:#000000; fill-opacity:0.0; 
stroke:#000000; stroke-width:0.0500; stroke-opacity:1; 
stroke-linecap:round; stroke-linejoin:round;">
<circle cx="168.0200" cy="121.5000" r="2.6000" /> 
<path d="M147.8500 45.6500
L145.7500 45.6500
" />
<path d="M145.7500 45.6500
L145.7500 50.2500
" />
<path d="M147.8500 50.2500
L147.8500 45.6500
" />
<path d="M145.7500 50.2500
L147.8500 50.2500
" />
<path d="M122.2500 32.4500
L122.2500 19.7500
" />
<path d="M122.2500 19.7500
L119.2500 19.7500
" />
<path d="M119.2500 19.7500
L119.2500 17.9500
" />
<path d="M119.2500 17.9500
L112.7500 17.9500
" />
<path d="M112.7500 19.7500
L109.7500 19.7500
" />
<path d="M112.7500 17.9500
L112.7500 19.7500
" />
<path d="M109.7500 32.4500
L122.2500 32.4500
" />
<path d="M109.7500 20.0000
L109.7500 32.4500
" />
<path d="M109.7500 19.7500
L109.7500 20.0000
" />
<circle cx="133.0000" cy="23.0000" r="2.6000" /> 
<path d="M41.7300 92.9700
L41.7300 113.2000
" />
<path d="M41.7300 92.9700
L14.2000 92.9700
" />
<path d="M14.2000 113.2000
L41.7300 113.2000
" />
<path d="M14.2000 92.9700
L14.2000 113.2000
" />
<path d="M158.8500 47.3500
L158.8500 51.0500
" />
<path d="M158.8500 51.0500
L165.9500 51.0500
" />
<path d="M165.9500 47.3500
L158.8500 47.3500
" />
<path d="M165.9500 51.0500
L165.9500 47.3500
" />
<path d="M187.9000 31.8000
L187.9000 17.8000
" />
<path d="M187.9000 17.8000
L175.9000 17.8000
" />
<path d="M175.9000 31.8000
L187.9000 31.8000
" />
<path d="M175.9000 17.8000
L175.9000 31.8000
" />
<path d="M133.7600 45.9700
L130.5600 45.9700
" />
<path d="M130.5600 45.9700
L130.5600 58.2300
" />
<path d="M133.7600 58.2300
L133.7600 45.9700
" />
<path d="M130.5600 58.2300
L133.7600 58.2300
" />
<path d="M114.2500 44.7500
L114.2500 51.2500
" />
<path d="M114.2500 51.2500
L120.7500 51.2500
" />
<path d="M120.7500 44.7500
L114.2500 44.7500
" />
<path d="M120.7500 51.2500
L120.7500 44.7500
" />
<path d="M41.7650 72.7700
L41.7650 93.0000
" />
<path d="M41.7650 72.7700
L14.2350 72.7700
" />
<path d="M14.2350 93.0000
L41.7650 93.0000
" />
<path d="M14.2350 72.7700
L14.2350 93.0000
" />
<path d="M147.7500 69.6500
L121.8500 69.6500
" />
<path d="M121.8500 69.6500
L121.8500 95.5500
" />
<path d="M147.7500 95.5500
L147.7500 69.6500
" />
<path d="M121.8500 95.5500
L147.7500 95.5500
" />
<path d="M168.2700 113.2250
L168.2700 92.9950
" />
<path d="M168.2700 113.2250
L195.8000 113.2250
" />
<path d="M195.8000 92.9950
L168.2700 92.9950
" />
<path d="M195.8000 113.2250
L195.8000 92.9950
" />
<circle cx="42.0000" cy="63.5000" r="2.6000" /> 
<path d="M139.2500 44.7500
L139.2500 51.2500
" />
<path d="M139.2500 51.2500
L145.7500 51.2500
" />
<path d="M145.7500 44.7500
L139.2500 44.7500
" />
<path d="M145.7500 51.2500
L145.7500 44.7500
" />
<path d="M110.3600 103.8800
L108.2600 103.8800
" />
<path d="M108.2600 103.8800
L108.2600 108.4800
" />
<path d="M110.3600 108.4800
L110.3600 103.8800
" />
<path d="M108.2600 108.4800
L110.3600 108.4800
" />
<path d="M101.7500 102.7500
L101.7500 109.2500
" />
<path d="M101.7500 109.2500
L108.2500 109.2500
" />
<path d="M108.2500 102.7500
L101.7500 102.7500
" />
<path d="M108.2500 109.2500
L108.2500 102.7500
" />
<circle cx="118.9800" cy="121.5200" r="2.6000" /> 
<path d="M47.7900 108.1200
L99.6400 108.1200
" />
<path d="M99.6400 108.1200
L99.6400 101.9700
" />
<path d="M47.7900 101.9700
L47.7900 108.1200
" />
<path d="M99.6400 101.9700
L47.7900 101.9700
" />
<path d="M160.5700 108.3500
L162.6700 108.3500
" />
<path d="M162.6700 108.3500
L162.6700 103.7500
" />
<path d="M160.5700 103.7500
L160.5700 108.3500
" />
<path d="M162.6700 103.7500
L160.5700 103.7500
" />
<path d="M43.1050 102.7500
L45.2050 102.7500
" />
<path d="M45.2050 102.7500
L45.2050 98.1500
" />
<path d="M43.1050 98.1500
L43.1050 102.7500
" />
<path d="M45.2050 98.1500
L43.1050 98.1500
" />
<path d="M97.0000 60.7500
L97.0000 73.2500
" />
<path d="M97.0000 73.2500
L113.0000 73.2500
" />
<path d="M113.0000 60.7500
L97.0000 60.7500
" />
<path d="M113.0000 73.2500
L113.0000 60.7500
" />
<path d="M40.7500 75.7500
L40.7500 82.2500
" />
<path d="M40.7500 82.2500
L47.2500 82.2500
" />
<path d="M47.2500 75.7500
L40.7500 75.7500
" />
<path d="M47.2500 82.2500
L47.2500 75.7500
" />
<path d="M73.0750 54.1550
L76.0750 54.1550
" />
<path d="M76.0750 54.1550
L76.0750 41.8950
" />
<path d="M73.0750 41.8950
L73.0750 54.1550
" />
<path d="M76.0750 41.8950
L73.0750 41.8950
" />
<path d="M70.9250 67.3500
L70.9250 59.2000
" />
<path d="M70.9250 59.2000
L60.3750 59.2000
" />
<path d="M60.3750 67.3500
L70.9250 67.3500
" />
<path d="M60.3750 59.2000
L60.3750 67.3500
" />
<circle cx="77.0000" cy="23.0000" r="2.6000" /> 
<circle cx="156.7000" cy="56.9000" r="6.2500" /> 
<path d="M168.2850 52.0300
L168.2850 31.8000
" />
<path d="M168.2850 52.0300
L195.8150 52.0300
" />
<path d="M195.8150 31.8000
L168.2850 31.8000
" />
<path d="M195.8150 52.0300
L195.8150 31.8000
" />
<path d="M62.4250 42.6500
L62.4250 44.7500
" />
<path d="M62.4250 44.7500
L67.0250 44.7500
" />
<path d="M67.0250 42.6500
L62.4250 42.6500
" />
<path d="M67.0250 44.7500
L67.0250 42.6500
" />
<path d="M89.2500 44.7500
L89.2500 51.2500
" />
<path d="M89.2500 51.2500
L95.7500 51.2500
" />
<path d="M95.7500 44.7500
L89.2500 44.7500
" />
<path d="M95.7500 51.2500
L95.7500 44.7500
" />
<path d="M58.7500 26.3000
L58.7500 41.7000
" />
<path d="M58.7500 26.3000
L76.2500 26.3000
" />
<path d="M76.2500 41.7000
L58.7500 41.7000
" />
<path d="M76.2500 41.7000
L76.2500 26.3000
" />
<path d="M67.7000 42.6250
L67.7000 44.7250
" />
<path d="M67.7000 44.7250
L72.3000 44.7250
" />
<path d="M72.3000 42.6250
L67.7000 42.6250
" />
<path d="M72.3000 44.7250
L72.3000 42.6250
" />
<path d="M163.5200 82.2500
L163.5200 84.3500
" />
<path d="M163.5200 84.3500
L168.1200 84.3500
" />
<path d="M168.1200 82.2500
L163.5200 82.2500
" />
<path d="M168.1200 84.3500
L168.1200 82.2500
" />
<circle cx="131.8323" cy="64.3000" r="5.2500" /> 
<path d="M79.3300 70.4800
L79.3300 67.4800
" />
<path d="M79.3300 67.4800
L67.0700 67.4800
" />
<path d="M67.0700 70.4800
L79.3300 70.4800
" />
<path d="M67.0700 67.4800
L67.0700 70.4800
" />
<circle cx="167.9000" cy="63.4500" r="2.6000" /> 
<circle cx="129.2000" cy="100.9000" r="5.2500" /> 
<path d="M64.2500 44.7500
L64.2500 51.2500
" />
<path d="M64.2500 51.2500
L70.7500 51.2500
" />
<path d="M70.7500 44.7500
L64.2500 44.7500
" />
<path d="M70.7500 51.2500
L70.7500 44.7500
" />
<path d="M90.2000 51.3500
L90.2000 53.4500
" />
<path d="M90.2000 53.4500
L94.8000 53.4500
" />
<path d="M94.8000 51.3500
L90.2000 51.3500
" />
<path d="M94.8000 53.4500
L94.8000 51.3500
" />
<circle cx="42.0000" cy="121.5000" r="2.6000" /> 
<path d="M168.2700 93.0100
L168.2700 72.7800
" />
<path d="M168.2700 93.0100
L195.8000 93.0100
" />
<path d="M195.8000 72.7800
L168.2700 72.7800
" />
<path d="M195.8000 93.0100
L195.8000 72.7800
" />
<path d="M22.0000 60.7500
L22.0000 73.2500
" />
<path d="M22.0000 73.2500
L38.0000 73.2500
" />
<path d="M38.0000 60.7500
L22.0000 60.7500
" />
<path d="M38.0000 73.2500
L38.0000 60.7500
" />
<path d="M129.7900 42.4200
L129.7900 44.5200
" />
<path d="M129.7900 44.5200
L134.3900 44.5200
" />
<path d="M134.3900 42.4200
L129.7900 42.4200
" />
<path d="M134.3900 44.5200
L134.3900 42.4200
" />
<path d="M46.6450 61.5500
L46.6450 64.5500
" />
<path d="M46.6450 64.5500
L58.9050 64.5500
" />
<path d="M58.9050 61.5500
L46.6450 61.5500
" />
<path d="M58.9050 64.5500
L58.9050 61.5500
" />
<circle cx="162.3000" cy="40.2000" r="5.2500" /> 
<path d="M162.7500 75.7500
L162.7500 82.2500
" />
<path d="M162.7500 82.2500
L169.2500 82.2500
" />
<path d="M169.2500 75.7500
L162.7500 75.7500
" />
<path d="M169.2500 82.2500
L169.2500 75.7500
" />
<path d="M80.1400 67.8400
L80.1400 70.8400
" />
<path d="M80.1400 70.8400
L92.4000 70.8400
" />
<path d="M92.4000 67.8400
L80.1400 67.8400
" />
<path d="M92.4000 70.8400
L92.4000 67.8400
" />
<path d="M40.7500 102.7500
L40.7500 109.2500
" />
<path d="M40.7500 109.2500
L47.2500 109.2500
" />
<path d="M47.2500 102.7500
L40.7500 102.7500
" />
<path d="M47.2500 109.2500
L47.2500 102.7500
" />
<path d="M78.2000 54.2200
L75.0000 54.2200
" />
<path d="M75.0000 54.2200
L75.0000 66.4800
" />
<path d="M78.2000 66.4800
L78.2000 54.2200
" />
<path d="M75.0000 66.4800
L78.2000 66.4800
" />
<path d="M146.2500 60.2000
L141.3500 60.2000
" />
<path d="M141.3500 60.2000
L141.3500 68.2000
" />
<path d="M146.2500 68.2000
L146.2500 60.2000
" />
<path d="M141.3500 68.2000
L146.2500 68.2000
" />
<path d="M72.4500 66.8250
L74.9500 66.8250
" />
<path d="M74.9500 66.8250
L74.9500 57.1050
" />
<path d="M72.4500 57.1050
L72.4500 66.8250
" />
<path d="M74.9500 57.1050
L72.4500 57.1050
" />
<path d="M115.1000 51.2500
L115.1000 53.3500
" />
<path d="M115.1000 53.3500
L119.7000 53.3500
" />
<path d="M119.7000 51.2500
L115.1000 51.2500
" />
<path d="M119.7000 53.3500
L119.7000 51.2500
" />
<path d="M92.3300 64.1750
L92.3300 60.9750
" />
<path d="M92.3300 60.9750
L80.0700 60.9750
" />
<path d="M80.0700 64.1750
L92.3300 64.1750
" />
<path d="M80.0700 60.9750
L80.0700 64.1750
" />
<path d="M166.1500 29.6000
L166.1500 25.6000
" />
<path d="M166.1500 25.6000
L158.6500 25.6000
" />
<path d="M158.6500 29.6000
L166.1500 29.6000
" />
<path d="M158.6500 25.6000
L158.6500 29.6000
" />
<circle cx="118.9000" cy="63.5656" r="2.6000" /> 
<path d="M141.0500 60.6500
L137.3500 60.6500
" />
<path d="M137.3500 60.6500
L137.3500 67.7500
" />
<path d="M141.0500 67.7500
L141.0500 60.6500
" />
<path d="M137.3500 67.7500
L141.0500 67.7500
" />
<path d="M162.7500 102.7500
L162.7500 109.2500
" />
<path d="M162.7500 109.2500
L169.2500 109.2500
" />
<path d="M169.2500 102.7500
L162.7500 102.7500
" />
<path d="M169.2500 109.2500
L169.2500 102.7500
" />
<path d="M172.0000 112.7500
L172.0000 125.2500
" />
<path d="M172.0000 125.2500
L188.0000 125.2500
" />
<path d="M188.0000 112.7500
L172.0000 112.7500
" />
<path d="M188.0000 125.2500
L188.0000 112.7500
" />
<path d="M172.0000 60.7500
L172.0000 73.2500
" />
<path d="M172.0000 73.2500
L188.0000 73.2500
" />
<path d="M188.0000 60.7500
L172.0000 60.7500
" />
<path d="M188.0000 73.2500
L188.0000 60.7500
" />
<path d="M101.7200 80.1000
L101.7200 78.0000
" />
<path d="M101.7200 78.0000
L97.1200 78.0000
" />
<path d="M97.1200 80.1000
L101.7200 80.1000
" />
<path d="M97.1200 78.0000
L97.1200 80.1000
" />
<path d="M22.0000 112.7500
L22.0000 125.2500
" />
<path d="M22.0000 125.2500
L38.0000 125.2500
" />
<path d="M38.0000 112.7500
L22.0000 112.7500
" />
<path d="M38.0000 125.2500
L38.0000 112.7500
" />
<circle cx="167.9000" cy="23.0000" r="2.6000" /> 
<path d="M92.4000 67.5800
L92.4000 64.3800
" />
<path d="M92.4000 64.3800
L80.1400 64.3800
" />
<path d="M80.1400 67.5800
L92.4000 67.5800
" />
<path d="M80.1400 64.3800
L80.1400 67.5800
" />
<path d="M133.7500 26.3000
L133.7500 41.7000
" />
<path d="M133.7500 26.3000
L151.2500 26.3000
" />
<path d="M151.2500 41.7000
L133.7500 41.7000
" />
<path d="M151.2500 41.7000
L151.2500 26.3000
" />
<path d="M46.6450 64.5500
L46.6450 67.5500
" />
<path d="M46.6450 67.5500
L58.9050 67.5500
" />
<path d="M58.9050 64.5500
L46.6450 64.5500
" />
<path d="M58.9050 67.5500
L58.9050 64.5500
" />
<path d="M97.0000 112.7500
L97.0000 125.2500
" />
<path d="M97.0000 125.2500
L113.0000 125.2500
" />
<path d="M113.0000 112.7500
L97.0000 112.7500
" />
<path d="M113.0000 125.2500
L113.0000 112.7500
" />
<path d="M146.2500 68.2000
L151.1500 68.2000
" />
<path d="M151.1500 68.2000
L151.1500 60.2000
" />
<path d="M146.2500 60.2000
L146.2500 68.2000
" />
<path d="M151.1500 60.2000
L146.2500 60.2000
" />
<path d="M45.4050 71.1500
L43.3050 71.1500
" />
<path d="M43.3050 71.1500
L43.3050 75.7500
" />
<path d="M45.4050 75.7500
L45.4050 71.1500
" />
<path d="M43.3050 75.7500
L45.4050 75.7500
" />
<path d="M101.7500 75.7500
L101.7500 82.2500
" />
<path d="M101.7500 82.2500
L108.2500 82.2500
" />
<path d="M108.2500 75.7500
L101.7500 75.7500
" />
<path d="M108.2500 82.2500
L108.2500 75.7500
" />
<path d="M61.1000 39.3950
L57.9000 39.3950
" />
<path d="M57.9000 39.3950
L57.9000 51.6550
" />
<path d="M61.1000 51.6550
L61.1000 39.3950
" />
<path d="M57.9000 51.6550
L61.1000 51.6550
" />
<path d="M100.2500 32.4500
L100.2500 19.7500
" />
<path d="M100.2500 19.7500
L97.2500 19.7500
" />
<path d="M97.2500 19.7500
L97.2500 17.9500
" />
<path d="M97.2500 17.9500
L90.7500 17.9500
" />
<path d="M90.7500 19.7500
L87.7500 19.7500
" />
<path d="M90.7500 17.9500
L90.7500 19.7500
" />
<path d="M87.7500 32.4500
L100.2500 32.4500
" />
<path d="M87.7500 20.0000
L87.7500 32.4500
" />
<path d="M87.7500 19.7500
L87.7500 20.0000
" />
<g >
</g>
<g >
</g>
<g >
</g>
<g >
</g>
<g >
</g>
<g >
</g>
<g >
</g>
<g >
</g>
<g >
</g>
<g >
</g>
<g >
</g>
<g >
</g>
<g >
</g>
<g >
</g>
<g >
</g>
<g >
</g>
<g >
</g>
<g >
</g>
<g >
</g>
<g >
</g>
<g >
</g>
<g >
</g>
<g >
</g>
<g >
</g>
<g >
</g>
<g >
</g>
<g >
</g>
<g >
</g>
<g >
</g>
<g >
</g>
<g >
</g>
<g >
</g>
<g >
</g>
<g >
</g>
<g >
</g>
<g >
</g>
<g >
</g>
<g >
</g>
<g >
</g>
<g >
</g>
<g >
</g>
<g >
</g>
<g >
</g>
<g >
</g>
<g >
</g>
<g >
</g>
<g >
</g>
<g >
</g>
<g >
</g>
<g >
</g>
<g >
</g>
<g >
</g>
<g >
</g>
<g >
</g>
<g >
</g>
<g >
</g>
<g >
</g>
<g >
</g>
<g >
</g>
<g >
</g>
<g >
</g>
<g >
</g>
<g >
</g>
<g >
</g>
<g >
</g>
<g >
</g>
<g >
</g>
<g >
</g>
<g >
</g>
<g >
</g>
<g >
</g>
<g >
</g>
<g >
</g>
<g >
</g>
<g >
</g>
<g >
</g>
<g >
</g>
<g >
</g>
<g >
</g>
<g >
</g>
<g >
</g>
</g> 
</svg>
