<?xml version="1.0" standalone="no"?>
 <!DOCTYPE svg PUBLIC "-//W3C//DTD SVG 1.1//EN" 
 "http://www.w3.org/Graphics/SVG/1.1/DTD/svg11.dtd"> 
<svg
  xmlns:svg="http://www.w3.org/2000/svg"
  xmlns="http://www.w3.org/2000/svg"
  xmlns:xlink="http://www.w3.org/1999/xlink"
  version="1.1"
  width="297.0022mm" height="210.0072mm" viewBox="0.0000 0.0000 297.0022 210.0072">
<title>SVG Image created as pedalboard-hw-psu.svg date 2023/03/26 17:51:52 </title>
  <desc>Image generated by Eeschema-SVG </desc>
<g style="fill:#000000; fill-opacity:1.0000;stroke:#000000; stroke-opacity:1.0000;
stroke-linecap:round; stroke-linejoin:round;"
 transform="translate(0 0) scale(1 1)">
</g>
<g style="fill:#840000; fill-opacity:0.0; 
stroke:#840000; stroke-width:0.0000; stroke-opacity:1; 
stroke-linecap:round; stroke-linejoin:round;">
</g>
<g style="fill:#840000; fill-opacity:0.0; 
stroke:#840000; stroke-width:0.1524; stroke-opacity:1; 
stroke-linecap:round; stroke-linejoin:round;">
<path d="M177.0022 166.0072
L285.0022 166.0072
L285.0022 198.0072
L177.0022 198.0072
L177.0022 166.0072
" />
<path d="M10.0000 10.0000
L287.0022 10.0000
L287.0022 200.0072
L10.0000 200.0072
L10.0000 10.0000
" />
<path d="M12.0000 12.0000
L285.0022 12.0000
L285.0022 198.0072
L12.0000 198.0072
L12.0000 12.0000
" />
<path d="M60.0000 12.0000
L60.0000 10.0000
" />
<path d="M110.0000 12.0000
L110.0000 10.0000
" />
<path d="M160.0000 12.0000
L160.0000 10.0000
" />
<path d="M210.0000 12.0000
L210.0000 10.0000
" />
<path d="M260.0000 12.0000
L260.0000 10.0000
" />
<text x="35.0000" y="11.6500"
textLength="1.3591" font-size="1.7333" lengthAdjust="spacingAndGlyphs"
text-anchor="start" opacity="0">1</text>
<g class="stroked-text"><desc>1</desc>
<path d="M35.9904 11.6015
L35.2476 11.6015
" />
<path d="M35.6190 11.6015
L35.6190 10.3015
" />
<path d="M35.6190 10.3015
L35.4952 10.4872
" />
<path d="M35.4952 10.4872
L35.3714 10.6110
" />
<path d="M35.3714 10.6110
L35.2476 10.6729
" />
</g><text x="85.0000" y="11.6500"
textLength="1.3591" font-size="1.7333" lengthAdjust="spacingAndGlyphs"
text-anchor="start" opacity="0">2</text>
<g class="stroked-text"><desc>2</desc>
<path d="M85.2476 10.4253
L85.3095 10.3634
" />
<path d="M85.3095 10.3634
L85.4333 10.3015
" />
<path d="M85.4333 10.3015
L85.7428 10.3015
" />
<path d="M85.7428 10.3015
L85.8666 10.3634
" />
<path d="M85.8666 10.3634
L85.9285 10.4253
" />
<path d="M85.9285 10.4253
L85.9904 10.5491
" />
<path d="M85.9904 10.5491
L85.9904 10.6729
" />
<path d="M85.9904 10.6729
L85.9285 10.8586
" />
<path d="M85.9285 10.8586
L85.1857 11.6015
" />
<path d="M85.1857 11.6015
L85.9904 11.6015
" />
</g><text x="135.0000" y="11.6500"
textLength="1.3591" font-size="1.7333" lengthAdjust="spacingAndGlyphs"
text-anchor="start" opacity="0">3</text>
<g class="stroked-text"><desc>3</desc>
<path d="M135.1857 10.3015
L135.9904 10.3015
" />
<path d="M135.9904 10.3015
L135.5571 10.7967
" />
<path d="M135.5571 10.7967
L135.7428 10.7967
" />
<path d="M135.7428 10.7967
L135.8666 10.8586
" />
<path d="M135.8666 10.8586
L135.9285 10.9205
" />
<path d="M135.9285 10.9205
L135.9904 11.0443
" />
<path d="M135.9904 11.0443
L135.9904 11.3538
" />
<path d="M135.9904 11.3538
L135.9285 11.4776
" />
<path d="M135.9285 11.4776
L135.8666 11.5396
" />
<path d="M135.8666 11.5396
L135.7428 11.6015
" />
<path d="M135.7428 11.6015
L135.3714 11.6015
" />
<path d="M135.3714 11.6015
L135.2476 11.5396
" />
<path d="M135.2476 11.5396
L135.1857 11.4776
" />
</g><text x="185.0000" y="11.6500"
textLength="1.3591" font-size="1.7333" lengthAdjust="spacingAndGlyphs"
text-anchor="start" opacity="0">4</text>
<g class="stroked-text"><desc>4</desc>
<path d="M185.8666 10.7348
L185.8666 11.6015
" />
<path d="M185.5571 10.2396
L185.2476 11.1681
" />
<path d="M185.2476 11.1681
L186.0523 11.1681
" />
</g><text x="235.0000" y="11.6500"
textLength="1.3591" font-size="1.7333" lengthAdjust="spacingAndGlyphs"
text-anchor="start" opacity="0">5</text>
<g class="stroked-text"><desc>5</desc>
<path d="M235.9285 10.3015
L235.3095 10.3015
" />
<path d="M235.3095 10.3015
L235.2476 10.9205
" />
<path d="M235.2476 10.9205
L235.3095 10.8586
" />
<path d="M235.3095 10.8586
L235.4333 10.7967
" />
<path d="M235.4333 10.7967
L235.7428 10.7967
" />
<path d="M235.7428 10.7967
L235.8666 10.8586
" />
<path d="M235.8666 10.8586
L235.9285 10.9205
" />
<path d="M235.9285 10.9205
L235.9904 11.0443
" />
<path d="M235.9904 11.0443
L235.9904 11.3538
" />
<path d="M235.9904 11.3538
L235.9285 11.4776
" />
<path d="M235.9285 11.4776
L235.8666 11.5396
" />
<path d="M235.8666 11.5396
L235.7428 11.6015
" />
<path d="M235.7428 11.6015
L235.4333 11.6015
" />
<path d="M235.4333 11.6015
L235.3095 11.5396
" />
<path d="M235.3095 11.5396
L235.2476 11.4776
" />
</g><text x="285.0000" y="11.6500"
textLength="1.3591" font-size="1.7333" lengthAdjust="spacingAndGlyphs"
text-anchor="start" opacity="0">6</text>
<g class="stroked-text"><desc>6</desc>
<path d="M285.8666 10.3015
L285.6190 10.3015
" />
<path d="M285.6190 10.3015
L285.4952 10.3634
" />
<path d="M285.4952 10.3634
L285.4333 10.4253
" />
<path d="M285.4333 10.4253
L285.3095 10.6110
" />
<path d="M285.3095 10.6110
L285.2476 10.8586
" />
<path d="M285.2476 10.8586
L285.2476 11.3538
" />
<path d="M285.2476 11.3538
L285.3095 11.4776
" />
<path d="M285.3095 11.4776
L285.3714 11.5396
" />
<path d="M285.3714 11.5396
L285.4952 11.6015
" />
<path d="M285.4952 11.6015
L285.7428 11.6015
" />
<path d="M285.7428 11.6015
L285.8666 11.5396
" />
<path d="M285.8666 11.5396
L285.9285 11.4776
" />
<path d="M285.9285 11.4776
L285.9904 11.3538
" />
<path d="M285.9904 11.3538
L285.9904 11.0443
" />
<path d="M285.9904 11.0443
L285.9285 10.9205
" />
<path d="M285.9285 10.9205
L285.8666 10.8586
" />
<path d="M285.8666 10.8586
L285.7428 10.7967
" />
<path d="M285.7428 10.7967
L285.4952 10.7967
" />
<path d="M285.4952 10.7967
L285.3714 10.8586
" />
<path d="M285.3714 10.8586
L285.3095 10.9205
" />
<path d="M285.3095 10.9205
L285.2476 11.0443
" />
</g><path d="M60.0000 198.0072
L60.0000 200.0072
" />
<path d="M110.0000 198.0072
L110.0000 200.0072
" />
<path d="M160.0000 198.0072
L160.0000 200.0072
" />
<path d="M210.0000 198.0072
L210.0000 200.0072
" />
<path d="M260.0000 198.0072
L260.0000 200.0072
" />
<text x="35.0000" y="199.6572"
textLength="1.3591" font-size="1.7333" lengthAdjust="spacingAndGlyphs"
text-anchor="start" opacity="0">1</text>
<g class="stroked-text"><desc>1</desc>
<path d="M35.9904 199.6087
L35.2476 199.6087
" />
<path d="M35.6190 199.6087
L35.6190 198.3087
" />
<path d="M35.6190 198.3087
L35.4952 198.4944
" />
<path d="M35.4952 198.4944
L35.3714 198.6182
" />
<path d="M35.3714 198.6182
L35.2476 198.6801
" />
</g><text x="85.0000" y="199.6572"
textLength="1.3591" font-size="1.7333" lengthAdjust="spacingAndGlyphs"
text-anchor="start" opacity="0">2</text>
<g class="stroked-text"><desc>2</desc>
<path d="M85.2476 198.4325
L85.3095 198.3706
" />
<path d="M85.3095 198.3706
L85.4333 198.3087
" />
<path d="M85.4333 198.3087
L85.7428 198.3087
" />
<path d="M85.7428 198.3087
L85.8666 198.3706
" />
<path d="M85.8666 198.3706
L85.9285 198.4325
" />
<path d="M85.9285 198.4325
L85.9904 198.5563
" />
<path d="M85.9904 198.5563
L85.9904 198.6801
" />
<path d="M85.9904 198.6801
L85.9285 198.8658
" />
<path d="M85.9285 198.8658
L85.1857 199.6087
" />
<path d="M85.1857 199.6087
L85.9904 199.6087
" />
</g><text x="135.0000" y="199.6572"
textLength="1.3591" font-size="1.7333" lengthAdjust="spacingAndGlyphs"
text-anchor="start" opacity="0">3</text>
<g class="stroked-text"><desc>3</desc>
<path d="M135.1857 198.3087
L135.9904 198.3087
" />
<path d="M135.9904 198.3087
L135.5571 198.8039
" />
<path d="M135.5571 198.8039
L135.7428 198.8039
" />
<path d="M135.7428 198.8039
L135.8666 198.8658
" />
<path d="M135.8666 198.8658
L135.9285 198.9277
" />
<path d="M135.9285 198.9277
L135.9904 199.0515
" />
<path d="M135.9904 199.0515
L135.9904 199.3610
" />
<path d="M135.9904 199.3610
L135.9285 199.4848
" />
<path d="M135.9285 199.4848
L135.8666 199.5468
" />
<path d="M135.8666 199.5468
L135.7428 199.6087
" />
<path d="M135.7428 199.6087
L135.3714 199.6087
" />
<path d="M135.3714 199.6087
L135.2476 199.5468
" />
<path d="M135.2476 199.5468
L135.1857 199.4848
" />
</g><text x="185.0000" y="199.6572"
textLength="1.3591" font-size="1.7333" lengthAdjust="spacingAndGlyphs"
text-anchor="start" opacity="0">4</text>
<g class="stroked-text"><desc>4</desc>
<path d="M185.8666 198.7420
L185.8666 199.6087
" />
<path d="M185.5571 198.2468
L185.2476 199.1753
" />
<path d="M185.2476 199.1753
L186.0523 199.1753
" />
</g><text x="235.0000" y="199.6572"
textLength="1.3591" font-size="1.7333" lengthAdjust="spacingAndGlyphs"
text-anchor="start" opacity="0">5</text>
<g class="stroked-text"><desc>5</desc>
<path d="M235.9285 198.3087
L235.3095 198.3087
" />
<path d="M235.3095 198.3087
L235.2476 198.9277
" />
<path d="M235.2476 198.9277
L235.3095 198.8658
" />
<path d="M235.3095 198.8658
L235.4333 198.8039
" />
<path d="M235.4333 198.8039
L235.7428 198.8039
" />
<path d="M235.7428 198.8039
L235.8666 198.8658
" />
<path d="M235.8666 198.8658
L235.9285 198.9277
" />
<path d="M235.9285 198.9277
L235.9904 199.0515
" />
<path d="M235.9904 199.0515
L235.9904 199.3610
" />
<path d="M235.9904 199.3610
L235.9285 199.4848
" />
<path d="M235.9285 199.4848
L235.8666 199.5468
" />
<path d="M235.8666 199.5468
L235.7428 199.6087
" />
<path d="M235.7428 199.6087
L235.4333 199.6087
" />
<path d="M235.4333 199.6087
L235.3095 199.5468
" />
<path d="M235.3095 199.5468
L235.2476 199.4848
" />
</g><text x="285.0000" y="199.6572"
textLength="1.3591" font-size="1.7333" lengthAdjust="spacingAndGlyphs"
text-anchor="start" opacity="0">6</text>
<g class="stroked-text"><desc>6</desc>
<path d="M285.8666 198.3087
L285.6190 198.3087
" />
<path d="M285.6190 198.3087
L285.4952 198.3706
" />
<path d="M285.4952 198.3706
L285.4333 198.4325
" />
<path d="M285.4333 198.4325
L285.3095 198.6182
" />
<path d="M285.3095 198.6182
L285.2476 198.8658
" />
<path d="M285.2476 198.8658
L285.2476 199.3610
" />
<path d="M285.2476 199.3610
L285.3095 199.4848
" />
<path d="M285.3095 199.4848
L285.3714 199.5468
" />
<path d="M285.3714 199.5468
L285.4952 199.6087
" />
<path d="M285.4952 199.6087
L285.7428 199.6087
" />
<path d="M285.7428 199.6087
L285.8666 199.5468
" />
<path d="M285.8666 199.5468
L285.9285 199.4848
" />
<path d="M285.9285 199.4848
L285.9904 199.3610
" />
<path d="M285.9904 199.3610
L285.9904 199.0515
" />
<path d="M285.9904 199.0515
L285.9285 198.9277
" />
<path d="M285.9285 198.9277
L285.8666 198.8658
" />
<path d="M285.8666 198.8658
L285.7428 198.8039
" />
<path d="M285.7428 198.8039
L285.4952 198.8039
" />
<path d="M285.4952 198.8039
L285.3714 198.8658
" />
<path d="M285.3714 198.8658
L285.3095 198.9277
" />
<path d="M285.3095 198.9277
L285.2476 199.0515
" />
</g><path d="M10.0000 60.0000
L12.0000 60.0000
" />
<path d="M10.0000 110.0000
L12.0000 110.0000
" />
<path d="M10.0000 160.0000
L12.0000 160.0000
" />
<text x="11.0000" y="35.6500"
textLength="1.2353" font-size="1.7333" lengthAdjust="spacingAndGlyphs"
text-anchor="middle" opacity="0">A</text>
<g class="stroked-text"><desc>A</desc>
<path d="M10.6905 35.2300
L11.3095 35.2300
" />
<path d="M10.5667 35.6015
L11.0000 34.3015
" />
<path d="M11.0000 34.3015
L11.4333 35.6015
" />
</g><text x="11.0000" y="85.6500"
textLength="1.4210" font-size="1.7333" lengthAdjust="spacingAndGlyphs"
text-anchor="middle" opacity="0">B</text>
<g class="stroked-text"><desc>B</desc>
<path d="M11.0928 84.9205
L11.2785 84.9824
" />
<path d="M11.2785 84.9824
L11.3404 85.0443
" />
<path d="M11.3404 85.0443
L11.4023 85.1681
" />
<path d="M11.4023 85.1681
L11.4023 85.3538
" />
<path d="M11.4023 85.3538
L11.3404 85.4776
" />
<path d="M11.3404 85.4776
L11.2785 85.5396
" />
<path d="M11.2785 85.5396
L11.1547 85.6015
" />
<path d="M11.1547 85.6015
L10.6595 85.6015
" />
<path d="M10.6595 85.6015
L10.6595 84.3015
" />
<path d="M10.6595 84.3015
L11.0928 84.3015
" />
<path d="M11.0928 84.3015
L11.2166 84.3634
" />
<path d="M11.2166 84.3634
L11.2785 84.4253
" />
<path d="M11.2785 84.4253
L11.3404 84.5491
" />
<path d="M11.3404 84.5491
L11.3404 84.6729
" />
<path d="M11.3404 84.6729
L11.2785 84.7967
" />
<path d="M11.2785 84.7967
L11.2166 84.8586
" />
<path d="M11.2166 84.8586
L11.0928 84.9205
" />
<path d="M11.0928 84.9205
L10.6595 84.9205
" />
</g><text x="11.0000" y="135.6500"
textLength="1.4210" font-size="1.7333" lengthAdjust="spacingAndGlyphs"
text-anchor="middle" opacity="0">C</text>
<g class="stroked-text"><desc>C</desc>
<path d="M11.4023 135.4776
L11.3404 135.5396
" />
<path d="M11.3404 135.5396
L11.1547 135.6015
" />
<path d="M11.1547 135.6015
L11.0309 135.6015
" />
<path d="M11.0309 135.6015
L10.8452 135.5396
" />
<path d="M10.8452 135.5396
L10.7214 135.4157
" />
<path d="M10.7214 135.4157
L10.6595 135.2919
" />
<path d="M10.6595 135.2919
L10.5976 135.0443
" />
<path d="M10.5976 135.0443
L10.5976 134.8586
" />
<path d="M10.5976 134.8586
L10.6595 134.6110
" />
<path d="M10.6595 134.6110
L10.7214 134.4872
" />
<path d="M10.7214 134.4872
L10.8452 134.3634
" />
<path d="M10.8452 134.3634
L11.0309 134.3015
" />
<path d="M11.0309 134.3015
L11.1547 134.3015
" />
<path d="M11.1547 134.3015
L11.3404 134.3634
" />
<path d="M11.3404 134.3634
L11.4023 134.4253
" />
</g><text x="11.0000" y="185.6500"
textLength="1.4210" font-size="1.7333" lengthAdjust="spacingAndGlyphs"
text-anchor="middle" opacity="0">D</text>
<g class="stroked-text"><desc>D</desc>
<path d="M10.6595 185.6015
L10.6595 184.3015
" />
<path d="M10.6595 184.3015
L10.9690 184.3015
" />
<path d="M10.9690 184.3015
L11.1547 184.3634
" />
<path d="M11.1547 184.3634
L11.2785 184.4872
" />
<path d="M11.2785 184.4872
L11.3404 184.6110
" />
<path d="M11.3404 184.6110
L11.4023 184.8586
" />
<path d="M11.4023 184.8586
L11.4023 185.0443
" />
<path d="M11.4023 185.0443
L11.3404 185.2919
" />
<path d="M11.3404 185.2919
L11.2785 185.4157
" />
<path d="M11.2785 185.4157
L11.1547 185.5396
" />
<path d="M11.1547 185.5396
L10.9690 185.6015
" />
<path d="M10.9690 185.6015
L10.6595 185.6015
" />
</g><path d="M287.0022 60.0000
L285.0022 60.0000
" />
<path d="M287.0022 110.0000
L285.0022 110.0000
" />
<path d="M287.0022 160.0000
L285.0022 160.0000
" />
<text x="286.0022" y="35.6500"
textLength="1.2353" font-size="1.7333" lengthAdjust="spacingAndGlyphs"
text-anchor="middle" opacity="0">A</text>
<g class="stroked-text"><desc>A</desc>
<path d="M285.6927 35.2300
L286.3117 35.2300
" />
<path d="M285.5689 35.6015
L286.0022 34.3015
" />
<path d="M286.0022 34.3015
L286.4355 35.6015
" />
</g><text x="286.0022" y="85.6500"
textLength="1.4210" font-size="1.7333" lengthAdjust="spacingAndGlyphs"
text-anchor="middle" opacity="0">B</text>
<g class="stroked-text"><desc>B</desc>
<path d="M286.0950 84.9205
L286.2807 84.9824
" />
<path d="M286.2807 84.9824
L286.3426 85.0443
" />
<path d="M286.3426 85.0443
L286.4045 85.1681
" />
<path d="M286.4045 85.1681
L286.4045 85.3538
" />
<path d="M286.4045 85.3538
L286.3426 85.4776
" />
<path d="M286.3426 85.4776
L286.2807 85.5396
" />
<path d="M286.2807 85.5396
L286.1569 85.6015
" />
<path d="M286.1569 85.6015
L285.6617 85.6015
" />
<path d="M285.6617 85.6015
L285.6617 84.3015
" />
<path d="M285.6617 84.3015
L286.0950 84.3015
" />
<path d="M286.0950 84.3015
L286.2188 84.3634
" />
<path d="M286.2188 84.3634
L286.2807 84.4253
" />
<path d="M286.2807 84.4253
L286.3426 84.5491
" />
<path d="M286.3426 84.5491
L286.3426 84.6729
" />
<path d="M286.3426 84.6729
L286.2807 84.7967
" />
<path d="M286.2807 84.7967
L286.2188 84.8586
" />
<path d="M286.2188 84.8586
L286.0950 84.9205
" />
<path d="M286.0950 84.9205
L285.6617 84.9205
" />
</g><text x="286.0022" y="135.6500"
textLength="1.4210" font-size="1.7333" lengthAdjust="spacingAndGlyphs"
text-anchor="middle" opacity="0">C</text>
<g class="stroked-text"><desc>C</desc>
<path d="M286.4045 135.4776
L286.3426 135.5396
" />
<path d="M286.3426 135.5396
L286.1569 135.6015
" />
<path d="M286.1569 135.6015
L286.0331 135.6015
" />
<path d="M286.0331 135.6015
L285.8474 135.5396
" />
<path d="M285.8474 135.5396
L285.7236 135.4157
" />
<path d="M285.7236 135.4157
L285.6617 135.2919
" />
<path d="M285.6617 135.2919
L285.5998 135.0443
" />
<path d="M285.5998 135.0443
L285.5998 134.8586
" />
<path d="M285.5998 134.8586
L285.6617 134.6110
" />
<path d="M285.6617 134.6110
L285.7236 134.4872
" />
<path d="M285.7236 134.4872
L285.8474 134.3634
" />
<path d="M285.8474 134.3634
L286.0331 134.3015
" />
<path d="M286.0331 134.3015
L286.1569 134.3015
" />
<path d="M286.1569 134.3015
L286.3426 134.3634
" />
<path d="M286.3426 134.3634
L286.4045 134.4253
" />
</g><text x="286.0022" y="185.6500"
textLength="1.4210" font-size="1.7333" lengthAdjust="spacingAndGlyphs"
text-anchor="middle" opacity="0">D</text>
<g class="stroked-text"><desc>D</desc>
<path d="M285.6617 185.6015
L285.6617 184.3015
" />
<path d="M285.6617 184.3015
L285.9712 184.3015
" />
<path d="M285.9712 184.3015
L286.1569 184.3634
" />
<path d="M286.1569 184.3634
L286.2807 184.4872
" />
<path d="M286.2807 184.4872
L286.3426 184.6110
" />
<path d="M286.3426 184.6110
L286.4045 184.8586
" />
<path d="M286.4045 184.8586
L286.4045 185.0443
" />
<path d="M286.4045 185.0443
L286.3426 185.2919
" />
<path d="M286.3426 185.2919
L286.2807 185.4157
" />
<path d="M286.2807 185.4157
L286.1569 185.5396
" />
<path d="M286.1569 185.5396
L285.9712 185.6015
" />
<path d="M285.9712 185.6015
L285.6617 185.6015
" />
</g><text x="200.0022" y="193.8572"
textLength="6.9381" font-size="2.0000" lengthAdjust="spacingAndGlyphs"
text-anchor="start" opacity="0">Date: </text>
<g class="stroked-text"><desc>Date: </desc>
<path d="M200.3593 193.8011
L200.3593 192.3011
" />
<path d="M200.3593 192.3011
L200.7164 192.3011
" />
<path d="M200.7164 192.3011
L200.9307 192.3725
" />
<path d="M200.9307 192.3725
L201.0736 192.5154
" />
<path d="M201.0736 192.5154
L201.1450 192.6582
" />
<path d="M201.1450 192.6582
L201.2164 192.9439
" />
<path d="M201.2164 192.9439
L201.2164 193.1582
" />
<path d="M201.2164 193.1582
L201.1450 193.4439
" />
<path d="M201.1450 193.4439
L201.0736 193.5868
" />
<path d="M201.0736 193.5868
L200.9307 193.7297
" />
<path d="M200.9307 193.7297
L200.7164 193.8011
" />
<path d="M200.7164 193.8011
L200.3593 193.8011
" />
<path d="M202.5022 193.8011
L202.5022 193.0154
" />
<path d="M202.5022 193.0154
L202.4307 192.8725
" />
<path d="M202.4307 192.8725
L202.2879 192.8011
" />
<path d="M202.2879 192.8011
L202.0022 192.8011
" />
<path d="M202.0022 192.8011
L201.8593 192.8725
" />
<path d="M202.5022 193.7297
L202.3593 193.8011
" />
<path d="M202.3593 193.8011
L202.0022 193.8011
" />
<path d="M202.0022 193.8011
L201.8593 193.7297
" />
<path d="M201.8593 193.7297
L201.7879 193.5868
" />
<path d="M201.7879 193.5868
L201.7879 193.4439
" />
<path d="M201.7879 193.4439
L201.8593 193.3011
" />
<path d="M201.8593 193.3011
L202.0022 193.2297
" />
<path d="M202.0022 193.2297
L202.3593 193.2297
" />
<path d="M202.3593 193.2297
L202.5022 193.1582
" />
<path d="M203.0021 192.8011
L203.5735 192.8011
" />
<path d="M203.2164 192.3011
L203.2164 193.5868
" />
<path d="M203.2164 193.5868
L203.2878 193.7297
" />
<path d="M203.2878 193.7297
L203.4307 193.8011
" />
<path d="M203.4307 193.8011
L203.5735 193.8011
" />
<path d="M204.6449 193.7297
L204.5021 193.8011
" />
<path d="M204.5021 193.8011
L204.2164 193.8011
" />
<path d="M204.2164 193.8011
L204.0735 193.7297
" />
<path d="M204.0735 193.7297
L204.0021 193.5868
" />
<path d="M204.0021 193.5868
L204.0021 193.0154
" />
<path d="M204.0021 193.0154
L204.0735 192.8725
" />
<path d="M204.0735 192.8725
L204.2164 192.8011
" />
<path d="M204.2164 192.8011
L204.5021 192.8011
" />
<path d="M204.5021 192.8011
L204.6449 192.8725
" />
<path d="M204.6449 192.8725
L204.7164 193.0154
" />
<path d="M204.7164 193.0154
L204.7164 193.1582
" />
<path d="M204.7164 193.1582
L204.0021 193.3011
" />
<path d="M205.3592 193.6582
L205.4306 193.7297
" />
<path d="M205.4306 193.7297
L205.3592 193.8011
" />
<path d="M205.3592 193.8011
L205.2878 193.7297
" />
<path d="M205.2878 193.7297
L205.3592 193.6582
" />
<path d="M205.3592 193.6582
L205.3592 193.8011
" />
<path d="M205.3592 192.8725
L205.4306 192.9439
" />
<path d="M205.4306 192.9439
L205.3592 193.0154
" />
<path d="M205.3592 193.0154
L205.2878 192.9439
" />
<path d="M205.2878 192.9439
L205.3592 192.8725
" />
<path d="M205.3592 192.8725
L205.3592 193.0154
" />
</g><path d="M177.0022 194.5072
L285.0022 194.5072
" />
<text x="178.0022" y="196.6572"
textLength="72.5094" font-size="2.0000" lengthAdjust="spacingAndGlyphs"
text-anchor="start" opacity="0">KiCad E.D.A.  kicad-cli 7.0.1.1-36-gbcf78dbe24-dirty-deb11</text>
<g class="stroked-text"><desc>KiCad E.D.A.  kicad-cli 7.0.1.1-36-gbcf78dbe24-dirty-deb11</desc>
<path d="M178.3593 196.6011
L178.3593 195.1011
" />
<path d="M179.2164 196.6011
L178.5736 195.7439
" />
<path d="M179.2164 195.1011
L178.3593 195.9582
" />
<path d="M179.8593 196.6011
L179.8593 195.6011
" />
<path d="M179.8593 195.1011
L179.7879 195.1725
" />
<path d="M179.7879 195.1725
L179.8593 195.2439
" />
<path d="M179.8593 195.2439
L179.9307 195.1725
" />
<path d="M179.9307 195.1725
L179.8593 195.1011
" />
<path d="M179.8593 195.1011
L179.8593 195.2439
" />
<path d="M181.4307 196.4582
L181.3593 196.5297
" />
<path d="M181.3593 196.5297
L181.1450 196.6011
" />
<path d="M181.1450 196.6011
L181.0022 196.6011
" />
<path d="M181.0022 196.6011
L180.7879 196.5297
" />
<path d="M180.7879 196.5297
L180.6450 196.3868
" />
<path d="M180.6450 196.3868
L180.5736 196.2439
" />
<path d="M180.5736 196.2439
L180.5022 195.9582
" />
<path d="M180.5022 195.9582
L180.5022 195.7439
" />
<path d="M180.5022 195.7439
L180.5736 195.4582
" />
<path d="M180.5736 195.4582
L180.6450 195.3154
" />
<path d="M180.6450 195.3154
L180.7879 195.1725
" />
<path d="M180.7879 195.1725
L181.0022 195.1011
" />
<path d="M181.0022 195.1011
L181.1450 195.1011
" />
<path d="M181.1450 195.1011
L181.3593 195.1725
" />
<path d="M181.3593 195.1725
L181.4307 195.2439
" />
<path d="M182.7165 196.6011
L182.7165 195.8154
" />
<path d="M182.7165 195.8154
L182.6450 195.6725
" />
<path d="M182.6450 195.6725
L182.5022 195.6011
" />
<path d="M182.5022 195.6011
L182.2165 195.6011
" />
<path d="M182.2165 195.6011
L182.0736 195.6725
" />
<path d="M182.7165 196.5297
L182.5736 196.6011
" />
<path d="M182.5736 196.6011
L182.2165 196.6011
" />
<path d="M182.2165 196.6011
L182.0736 196.5297
" />
<path d="M182.0736 196.5297
L182.0022 196.3868
" />
<path d="M182.0022 196.3868
L182.0022 196.2439
" />
<path d="M182.0022 196.2439
L182.0736 196.1011
" />
<path d="M182.0736 196.1011
L182.2165 196.0297
" />
<path d="M182.2165 196.0297
L182.5736 196.0297
" />
<path d="M182.5736 196.0297
L182.7165 195.9582
" />
<path d="M184.0736 196.6011
L184.0736 195.1011
" />
<path d="M184.0736 196.5297
L183.9307 196.6011
" />
<path d="M183.9307 196.6011
L183.6450 196.6011
" />
<path d="M183.6450 196.6011
L183.5021 196.5297
" />
<path d="M183.5021 196.5297
L183.4307 196.4582
" />
<path d="M183.4307 196.4582
L183.3593 196.3154
" />
<path d="M183.3593 196.3154
L183.3593 195.8868
" />
<path d="M183.3593 195.8868
L183.4307 195.7439
" />
<path d="M183.4307 195.7439
L183.5021 195.6725
" />
<path d="M183.5021 195.6725
L183.6450 195.6011
" />
<path d="M183.6450 195.6011
L183.9307 195.6011
" />
<path d="M183.9307 195.6011
L184.0736 195.6725
" />
<path d="M185.9307 195.8154
L186.4307 195.8154
" />
<path d="M186.6450 196.6011
L185.9307 196.6011
" />
<path d="M185.9307 196.6011
L185.9307 195.1011
" />
<path d="M185.9307 195.1011
L186.6450 195.1011
" />
<path d="M187.2878 196.4582
L187.3592 196.5297
" />
<path d="M187.3592 196.5297
L187.2878 196.6011
" />
<path d="M187.2878 196.6011
L187.2164 196.5297
" />
<path d="M187.2164 196.5297
L187.2878 196.4582
" />
<path d="M187.2878 196.4582
L187.2878 196.6011
" />
<path d="M188.0021 196.6011
L188.0021 195.1011
" />
<path d="M188.0021 195.1011
L188.3592 195.1011
" />
<path d="M188.3592 195.1011
L188.5735 195.1725
" />
<path d="M188.5735 195.1725
L188.7164 195.3154
" />
<path d="M188.7164 195.3154
L188.7878 195.4582
" />
<path d="M188.7878 195.4582
L188.8592 195.7439
" />
<path d="M188.8592 195.7439
L188.8592 195.9582
" />
<path d="M188.8592 195.9582
L188.7878 196.2439
" />
<path d="M188.7878 196.2439
L188.7164 196.3868
" />
<path d="M188.7164 196.3868
L188.5735 196.5297
" />
<path d="M188.5735 196.5297
L188.3592 196.6011
" />
<path d="M188.3592 196.6011
L188.0021 196.6011
" />
<path d="M189.5021 196.4582
L189.5735 196.5297
" />
<path d="M189.5735 196.5297
L189.5021 196.6011
" />
<path d="M189.5021 196.6011
L189.4307 196.5297
" />
<path d="M189.4307 196.5297
L189.5021 196.4582
" />
<path d="M189.5021 196.4582
L189.5021 196.6011
" />
<path d="M190.1450 196.1725
L190.8593 196.1725
" />
<path d="M190.0021 196.6011
L190.5021 195.1011
" />
<path d="M190.5021 195.1011
L191.0021 196.6011
" />
<path d="M191.5021 196.4582
L191.5735 196.5297
" />
<path d="M191.5735 196.5297
L191.5021 196.6011
" />
<path d="M191.5021 196.6011
L191.4307 196.5297
" />
<path d="M191.4307 196.5297
L191.5021 196.4582
" />
<path d="M191.5021 196.4582
L191.5021 196.6011
" />
<path d="M194.5022 196.6011
L194.5022 195.1011
" />
<path d="M194.6451 196.0297
L195.0736 196.6011
" />
<path d="M195.0736 195.6011
L194.5022 196.1725
" />
<path d="M195.7165 196.6011
L195.7165 195.6011
" />
<path d="M195.7165 195.1011
L195.6451 195.1725
" />
<path d="M195.6451 195.1725
L195.7165 195.2439
" />
<path d="M195.7165 195.2439
L195.7879 195.1725
" />
<path d="M195.7879 195.1725
L195.7165 195.1011
" />
<path d="M195.7165 195.1011
L195.7165 195.2439
" />
<path d="M197.0737 196.5297
L196.9308 196.6011
" />
<path d="M196.9308 196.6011
L196.6451 196.6011
" />
<path d="M196.6451 196.6011
L196.5022 196.5297
" />
<path d="M196.5022 196.5297
L196.4308 196.4582
" />
<path d="M196.4308 196.4582
L196.3594 196.3154
" />
<path d="M196.3594 196.3154
L196.3594 195.8868
" />
<path d="M196.3594 195.8868
L196.4308 195.7439
" />
<path d="M196.4308 195.7439
L196.5022 195.6725
" />
<path d="M196.5022 195.6725
L196.6451 195.6011
" />
<path d="M196.6451 195.6011
L196.9308 195.6011
" />
<path d="M196.9308 195.6011
L197.0737 195.6725
" />
<path d="M198.3594 196.6011
L198.3594 195.8154
" />
<path d="M198.3594 195.8154
L198.2879 195.6725
" />
<path d="M198.2879 195.6725
L198.1451 195.6011
" />
<path d="M198.1451 195.6011
L197.8594 195.6011
" />
<path d="M197.8594 195.6011
L197.7165 195.6725
" />
<path d="M198.3594 196.5297
L198.2165 196.6011
" />
<path d="M198.2165 196.6011
L197.8594 196.6011
" />
<path d="M197.8594 196.6011
L197.7165 196.5297
" />
<path d="M197.7165 196.5297
L197.6451 196.3868
" />
<path d="M197.6451 196.3868
L197.6451 196.2439
" />
<path d="M197.6451 196.2439
L197.7165 196.1011
" />
<path d="M197.7165 196.1011
L197.8594 196.0297
" />
<path d="M197.8594 196.0297
L198.2165 196.0297
" />
<path d="M198.2165 196.0297
L198.3594 195.9582
" />
<path d="M199.7165 196.6011
L199.7165 195.1011
" />
<path d="M199.7165 196.5297
L199.5736 196.6011
" />
<path d="M199.5736 196.6011
L199.2879 196.6011
" />
<path d="M199.2879 196.6011
L199.1450 196.5297
" />
<path d="M199.1450 196.5297
L199.0736 196.4582
" />
<path d="M199.0736 196.4582
L199.0022 196.3154
" />
<path d="M199.0022 196.3154
L199.0022 195.8868
" />
<path d="M199.0022 195.8868
L199.0736 195.7439
" />
<path d="M199.0736 195.7439
L199.1450 195.6725
" />
<path d="M199.1450 195.6725
L199.2879 195.6011
" />
<path d="M199.2879 195.6011
L199.5736 195.6011
" />
<path d="M199.5736 195.6011
L199.7165 195.6725
" />
<path d="M200.4307 196.0297
L201.5736 196.0297
" />
<path d="M202.9307 196.5297
L202.7878 196.6011
" />
<path d="M202.7878 196.6011
L202.5021 196.6011
" />
<path d="M202.5021 196.6011
L202.3592 196.5297
" />
<path d="M202.3592 196.5297
L202.2878 196.4582
" />
<path d="M202.2878 196.4582
L202.2164 196.3154
" />
<path d="M202.2164 196.3154
L202.2164 195.8868
" />
<path d="M202.2164 195.8868
L202.2878 195.7439
" />
<path d="M202.2878 195.7439
L202.3592 195.6725
" />
<path d="M202.3592 195.6725
L202.5021 195.6011
" />
<path d="M202.5021 195.6011
L202.7878 195.6011
" />
<path d="M202.7878 195.6011
L202.9307 195.6725
" />
<path d="M203.7878 196.6011
L203.6449 196.5297
" />
<path d="M203.6449 196.5297
L203.5735 196.3868
" />
<path d="M203.5735 196.3868
L203.5735 195.1011
" />
<path d="M204.3592 196.6011
L204.3592 195.6011
" />
<path d="M204.3592 195.1011
L204.2878 195.1725
" />
<path d="M204.2878 195.1725
L204.3592 195.2439
" />
<path d="M204.3592 195.2439
L204.4306 195.1725
" />
<path d="M204.4306 195.1725
L204.3592 195.1011
" />
<path d="M204.3592 195.1011
L204.3592 195.2439
" />
<path d="M206.0735 195.1011
L207.0735 195.1011
" />
<path d="M207.0735 195.1011
L206.4307 196.6011
" />
<path d="M207.6450 196.4582
L207.7164 196.5297
" />
<path d="M207.7164 196.5297
L207.6450 196.6011
" />
<path d="M207.6450 196.6011
L207.5736 196.5297
" />
<path d="M207.5736 196.5297
L207.6450 196.4582
" />
<path d="M207.6450 196.4582
L207.6450 196.6011
" />
<path d="M208.6450 195.1011
L208.7879 195.1011
" />
<path d="M208.7879 195.1011
L208.9307 195.1725
" />
<path d="M208.9307 195.1725
L209.0022 195.2439
" />
<path d="M209.0022 195.2439
L209.0736 195.3868
" />
<path d="M209.0736 195.3868
L209.1450 195.6725
" />
<path d="M209.1450 195.6725
L209.1450 196.0297
" />
<path d="M209.1450 196.0297
L209.0736 196.3154
" />
<path d="M209.0736 196.3154
L209.0022 196.4582
" />
<path d="M209.0022 196.4582
L208.9307 196.5297
" />
<path d="M208.9307 196.5297
L208.7879 196.6011
" />
<path d="M208.7879 196.6011
L208.6450 196.6011
" />
<path d="M208.6450 196.6011
L208.5022 196.5297
" />
<path d="M208.5022 196.5297
L208.4307 196.4582
" />
<path d="M208.4307 196.4582
L208.3593 196.3154
" />
<path d="M208.3593 196.3154
L208.2879 196.0297
" />
<path d="M208.2879 196.0297
L208.2879 195.6725
" />
<path d="M208.2879 195.6725
L208.3593 195.3868
" />
<path d="M208.3593 195.3868
L208.4307 195.2439
" />
<path d="M208.4307 195.2439
L208.5022 195.1725
" />
<path d="M208.5022 195.1725
L208.6450 195.1011
" />
<path d="M209.7879 196.4582
L209.8593 196.5297
" />
<path d="M209.8593 196.5297
L209.7879 196.6011
" />
<path d="M209.7879 196.6011
L209.7165 196.5297
" />
<path d="M209.7165 196.5297
L209.7879 196.4582
" />
<path d="M209.7879 196.4582
L209.7879 196.6011
" />
<path d="M211.2879 196.6011
L210.4308 196.6011
" />
<path d="M210.8593 196.6011
L210.8593 195.1011
" />
<path d="M210.8593 195.1011
L210.7165 195.3154
" />
<path d="M210.7165 195.3154
L210.5736 195.4582
" />
<path d="M210.5736 195.4582
L210.4308 195.5297
" />
<path d="M211.9308 196.4582
L212.0022 196.5297
" />
<path d="M212.0022 196.5297
L211.9308 196.6011
" />
<path d="M211.9308 196.6011
L211.8594 196.5297
" />
<path d="M211.8594 196.5297
L211.9308 196.4582
" />
<path d="M211.9308 196.4582
L211.9308 196.6011
" />
<path d="M213.4308 196.6011
L212.5737 196.6011
" />
<path d="M213.0022 196.6011
L213.0022 195.1011
" />
<path d="M213.0022 195.1011
L212.8594 195.3154
" />
<path d="M212.8594 195.3154
L212.7165 195.4582
" />
<path d="M212.7165 195.4582
L212.5737 195.5297
" />
<path d="M214.0737 196.0297
L215.2166 196.0297
" />
<path d="M215.7879 195.1011
L216.7165 195.1011
" />
<path d="M216.7165 195.1011
L216.2165 195.6725
" />
<path d="M216.2165 195.6725
L216.4308 195.6725
" />
<path d="M216.4308 195.6725
L216.5737 195.7439
" />
<path d="M216.5737 195.7439
L216.6451 195.8154
" />
<path d="M216.6451 195.8154
L216.7165 195.9582
" />
<path d="M216.7165 195.9582
L216.7165 196.3154
" />
<path d="M216.7165 196.3154
L216.6451 196.4582
" />
<path d="M216.6451 196.4582
L216.5737 196.5297
" />
<path d="M216.5737 196.5297
L216.4308 196.6011
" />
<path d="M216.4308 196.6011
L216.0022 196.6011
" />
<path d="M216.0022 196.6011
L215.8594 196.5297
" />
<path d="M215.8594 196.5297
L215.7879 196.4582
" />
<path d="M218.0023 195.1011
L217.7165 195.1011
" />
<path d="M217.7165 195.1011
L217.5737 195.1725
" />
<path d="M217.5737 195.1725
L217.5023 195.2439
" />
<path d="M217.5023 195.2439
L217.3594 195.4582
" />
<path d="M217.3594 195.4582
L217.2880 195.7439
" />
<path d="M217.2880 195.7439
L217.2880 196.3154
" />
<path d="M217.2880 196.3154
L217.3594 196.4582
" />
<path d="M217.3594 196.4582
L217.4308 196.5297
" />
<path d="M217.4308 196.5297
L217.5737 196.6011
" />
<path d="M217.5737 196.6011
L217.8594 196.6011
" />
<path d="M217.8594 196.6011
L218.0023 196.5297
" />
<path d="M218.0023 196.5297
L218.0737 196.4582
" />
<path d="M218.0737 196.4582
L218.1451 196.3154
" />
<path d="M218.1451 196.3154
L218.1451 195.9582
" />
<path d="M218.1451 195.9582
L218.0737 195.8154
" />
<path d="M218.0737 195.8154
L218.0023 195.7439
" />
<path d="M218.0023 195.7439
L217.8594 195.6725
" />
<path d="M217.8594 195.6725
L217.5737 195.6725
" />
<path d="M217.5737 195.6725
L217.4308 195.7439
" />
<path d="M217.4308 195.7439
L217.3594 195.8154
" />
<path d="M217.3594 195.8154
L217.2880 195.9582
" />
<path d="M218.7880 196.0297
L219.9309 196.0297
" />
<path d="M221.2880 195.6011
L221.2880 196.8154
" />
<path d="M221.2880 196.8154
L221.2165 196.9582
" />
<path d="M221.2165 196.9582
L221.1451 197.0297
" />
<path d="M221.1451 197.0297
L221.0022 197.1011
" />
<path d="M221.0022 197.1011
L220.7880 197.1011
" />
<path d="M220.7880 197.1011
L220.6451 197.0297
" />
<path d="M221.2880 196.5297
L221.1451 196.6011
" />
<path d="M221.1451 196.6011
L220.8594 196.6011
" />
<path d="M220.8594 196.6011
L220.7165 196.5297
" />
<path d="M220.7165 196.5297
L220.6451 196.4582
" />
<path d="M220.6451 196.4582
L220.5737 196.3154
" />
<path d="M220.5737 196.3154
L220.5737 195.8868
" />
<path d="M220.5737 195.8868
L220.6451 195.7439
" />
<path d="M220.6451 195.7439
L220.7165 195.6725
" />
<path d="M220.7165 195.6725
L220.8594 195.6011
" />
<path d="M220.8594 195.6011
L221.1451 195.6011
" />
<path d="M221.1451 195.6011
L221.2880 195.6725
" />
<path d="M222.0022 196.6011
L222.0022 195.1011
" />
<path d="M222.0022 195.6725
L222.1451 195.6011
" />
<path d="M222.1451 195.6011
L222.4308 195.6011
" />
<path d="M222.4308 195.6011
L222.5736 195.6725
" />
<path d="M222.5736 195.6725
L222.6451 195.7439
" />
<path d="M222.6451 195.7439
L222.7165 195.8868
" />
<path d="M222.7165 195.8868
L222.7165 196.3154
" />
<path d="M222.7165 196.3154
L222.6451 196.4582
" />
<path d="M222.6451 196.4582
L222.5736 196.5297
" />
<path d="M222.5736 196.5297
L222.4308 196.6011
" />
<path d="M222.4308 196.6011
L222.1451 196.6011
" />
<path d="M222.1451 196.6011
L222.0022 196.5297
" />
<path d="M224.0022 196.5297
L223.8593 196.6011
" />
<path d="M223.8593 196.6011
L223.5736 196.6011
" />
<path d="M223.5736 196.6011
L223.4307 196.5297
" />
<path d="M223.4307 196.5297
L223.3593 196.4582
" />
<path d="M223.3593 196.4582
L223.2879 196.3154
" />
<path d="M223.2879 196.3154
L223.2879 195.8868
" />
<path d="M223.2879 195.8868
L223.3593 195.7439
" />
<path d="M223.3593 195.7439
L223.4307 195.6725
" />
<path d="M223.4307 195.6725
L223.5736 195.6011
" />
<path d="M223.5736 195.6011
L223.8593 195.6011
" />
<path d="M223.8593 195.6011
L224.0022 195.6725
" />
<path d="M224.4307 195.6011
L225.0021 195.6011
" />
<path d="M224.6450 196.6011
L224.6450 195.3154
" />
<path d="M224.6450 195.3154
L224.7164 195.1725
" />
<path d="M224.7164 195.1725
L224.8593 195.1011
" />
<path d="M224.8593 195.1011
L225.0021 195.1011
" />
<path d="M225.3592 195.1011
L226.3592 195.1011
" />
<path d="M226.3592 195.1011
L225.7164 196.6011
" />
<path d="M227.1450 195.7439
L227.0021 195.6725
" />
<path d="M227.0021 195.6725
L226.9307 195.6011
" />
<path d="M226.9307 195.6011
L226.8593 195.4582
" />
<path d="M226.8593 195.4582
L226.8593 195.3868
" />
<path d="M226.8593 195.3868
L226.9307 195.2439
" />
<path d="M226.9307 195.2439
L227.0021 195.1725
" />
<path d="M227.0021 195.1725
L227.1450 195.1011
" />
<path d="M227.1450 195.1011
L227.4307 195.1011
" />
<path d="M227.4307 195.1011
L227.5736 195.1725
" />
<path d="M227.5736 195.1725
L227.6450 195.2439
" />
<path d="M227.6450 195.2439
L227.7164 195.3868
" />
<path d="M227.7164 195.3868
L227.7164 195.4582
" />
<path d="M227.7164 195.4582
L227.6450 195.6011
" />
<path d="M227.6450 195.6011
L227.5736 195.6725
" />
<path d="M227.5736 195.6725
L227.4307 195.7439
" />
<path d="M227.4307 195.7439
L227.1450 195.7439
" />
<path d="M227.1450 195.7439
L227.0021 195.8154
" />
<path d="M227.0021 195.8154
L226.9307 195.8868
" />
<path d="M226.9307 195.8868
L226.8593 196.0297
" />
<path d="M226.8593 196.0297
L226.8593 196.3154
" />
<path d="M226.8593 196.3154
L226.9307 196.4582
" />
<path d="M226.9307 196.4582
L227.0021 196.5297
" />
<path d="M227.0021 196.5297
L227.1450 196.6011
" />
<path d="M227.1450 196.6011
L227.4307 196.6011
" />
<path d="M227.4307 196.6011
L227.5736 196.5297
" />
<path d="M227.5736 196.5297
L227.6450 196.4582
" />
<path d="M227.6450 196.4582
L227.7164 196.3154
" />
<path d="M227.7164 196.3154
L227.7164 196.0297
" />
<path d="M227.7164 196.0297
L227.6450 195.8868
" />
<path d="M227.6450 195.8868
L227.5736 195.8154
" />
<path d="M227.5736 195.8154
L227.4307 195.7439
" />
<path d="M229.0022 196.6011
L229.0022 195.1011
" />
<path d="M229.0022 196.5297
L228.8593 196.6011
" />
<path d="M228.8593 196.6011
L228.5736 196.6011
" />
<path d="M228.5736 196.6011
L228.4307 196.5297
" />
<path d="M228.4307 196.5297
L228.3593 196.4582
" />
<path d="M228.3593 196.4582
L228.2879 196.3154
" />
<path d="M228.2879 196.3154
L228.2879 195.8868
" />
<path d="M228.2879 195.8868
L228.3593 195.7439
" />
<path d="M228.3593 195.7439
L228.4307 195.6725
" />
<path d="M228.4307 195.6725
L228.5736 195.6011
" />
<path d="M228.5736 195.6011
L228.8593 195.6011
" />
<path d="M228.8593 195.6011
L229.0022 195.6725
" />
<path d="M229.7164 196.6011
L229.7164 195.1011
" />
<path d="M229.7164 195.6725
L229.8593 195.6011
" />
<path d="M229.8593 195.6011
L230.1450 195.6011
" />
<path d="M230.1450 195.6011
L230.2878 195.6725
" />
<path d="M230.2878 195.6725
L230.3593 195.7439
" />
<path d="M230.3593 195.7439
L230.4307 195.8868
" />
<path d="M230.4307 195.8868
L230.4307 196.3154
" />
<path d="M230.4307 196.3154
L230.3593 196.4582
" />
<path d="M230.3593 196.4582
L230.2878 196.5297
" />
<path d="M230.2878 196.5297
L230.1450 196.6011
" />
<path d="M230.1450 196.6011
L229.8593 196.6011
" />
<path d="M229.8593 196.6011
L229.7164 196.5297
" />
<path d="M231.6449 196.5297
L231.5021 196.6011
" />
<path d="M231.5021 196.6011
L231.2164 196.6011
" />
<path d="M231.2164 196.6011
L231.0735 196.5297
" />
<path d="M231.0735 196.5297
L231.0021 196.3868
" />
<path d="M231.0021 196.3868
L231.0021 195.8154
" />
<path d="M231.0021 195.8154
L231.0735 195.6725
" />
<path d="M231.0735 195.6725
L231.2164 195.6011
" />
<path d="M231.2164 195.6011
L231.5021 195.6011
" />
<path d="M231.5021 195.6011
L231.6449 195.6725
" />
<path d="M231.6449 195.6725
L231.7164 195.8154
" />
<path d="M231.7164 195.8154
L231.7164 195.9582
" />
<path d="M231.7164 195.9582
L231.0021 196.1011
" />
<path d="M232.2878 195.2439
L232.3592 195.1725
" />
<path d="M232.3592 195.1725
L232.5021 195.1011
" />
<path d="M232.5021 195.1011
L232.8592 195.1011
" />
<path d="M232.8592 195.1011
L233.0021 195.1725
" />
<path d="M233.0021 195.1725
L233.0735 195.2439
" />
<path d="M233.0735 195.2439
L233.1449 195.3868
" />
<path d="M233.1449 195.3868
L233.1449 195.5297
" />
<path d="M233.1449 195.5297
L233.0735 195.7439
" />
<path d="M233.0735 195.7439
L232.2163 196.6011
" />
<path d="M232.2163 196.6011
L233.1449 196.6011
" />
<path d="M234.4307 195.6011
L234.4307 196.6011
" />
<path d="M234.0735 195.0297
L233.7164 196.1011
" />
<path d="M233.7164 196.1011
L234.6449 196.1011
" />
<path d="M235.2164 196.0297
L236.3593 196.0297
" />
<path d="M237.7164 196.6011
L237.7164 195.1011
" />
<path d="M237.7164 196.5297
L237.5735 196.6011
" />
<path d="M237.5735 196.6011
L237.2878 196.6011
" />
<path d="M237.2878 196.6011
L237.1449 196.5297
" />
<path d="M237.1449 196.5297
L237.0735 196.4582
" />
<path d="M237.0735 196.4582
L237.0021 196.3154
" />
<path d="M237.0021 196.3154
L237.0021 195.8868
" />
<path d="M237.0021 195.8868
L237.0735 195.7439
" />
<path d="M237.0735 195.7439
L237.1449 195.6725
" />
<path d="M237.1449 195.6725
L237.2878 195.6011
" />
<path d="M237.2878 195.6011
L237.5735 195.6011
" />
<path d="M237.5735 195.6011
L237.7164 195.6725
" />
<path d="M238.4306 196.6011
L238.4306 195.6011
" />
<path d="M238.4306 195.1011
L238.3592 195.1725
" />
<path d="M238.3592 195.1725
L238.4306 195.2439
" />
<path d="M238.4306 195.2439
L238.5020 195.1725
" />
<path d="M238.5020 195.1725
L238.4306 195.1011
" />
<path d="M238.4306 195.1011
L238.4306 195.2439
" />
<path d="M239.1449 196.6011
L239.1449 195.6011
" />
<path d="M239.1449 195.8868
L239.2163 195.7439
" />
<path d="M239.2163 195.7439
L239.2878 195.6725
" />
<path d="M239.2878 195.6725
L239.4306 195.6011
" />
<path d="M239.4306 195.6011
L239.5735 195.6011
" />
<path d="M239.8592 195.6011
L240.4306 195.6011
" />
<path d="M240.0735 195.1011
L240.0735 196.3868
" />
<path d="M240.0735 196.3868
L240.1449 196.5297
" />
<path d="M240.1449 196.5297
L240.2878 196.6011
" />
<path d="M240.2878 196.6011
L240.4306 196.6011
" />
<path d="M240.7877 195.6011
L241.1449 196.6011
" />
<path d="M241.5020 195.6011
L241.1449 196.6011
" />
<path d="M241.1449 196.6011
L241.0020 196.9582
" />
<path d="M241.0020 196.9582
L240.9306 197.0297
" />
<path d="M240.9306 197.0297
L240.7877 197.1011
" />
<path d="M242.0735 196.0297
L243.2164 196.0297
" />
<path d="M244.5735 196.6011
L244.5735 195.1011
" />
<path d="M244.5735 196.5297
L244.4306 196.6011
" />
<path d="M244.4306 196.6011
L244.1449 196.6011
" />
<path d="M244.1449 196.6011
L244.0020 196.5297
" />
<path d="M244.0020 196.5297
L243.9306 196.4582
" />
<path d="M243.9306 196.4582
L243.8592 196.3154
" />
<path d="M243.8592 196.3154
L243.8592 195.8868
" />
<path d="M243.8592 195.8868
L243.9306 195.7439
" />
<path d="M243.9306 195.7439
L244.0020 195.6725
" />
<path d="M244.0020 195.6725
L244.1449 195.6011
" />
<path d="M244.1449 195.6011
L244.4306 195.6011
" />
<path d="M244.4306 195.6011
L244.5735 195.6725
" />
<path d="M245.8591 196.5297
L245.7163 196.6011
" />
<path d="M245.7163 196.6011
L245.4306 196.6011
" />
<path d="M245.4306 196.6011
L245.2877 196.5297
" />
<path d="M245.2877 196.5297
L245.2163 196.3868
" />
<path d="M245.2163 196.3868
L245.2163 195.8154
" />
<path d="M245.2163 195.8154
L245.2877 195.6725
" />
<path d="M245.2877 195.6725
L245.4306 195.6011
" />
<path d="M245.4306 195.6011
L245.7163 195.6011
" />
<path d="M245.7163 195.6011
L245.8591 195.6725
" />
<path d="M245.8591 195.6725
L245.9306 195.8154
" />
<path d="M245.9306 195.8154
L245.9306 195.9582
" />
<path d="M245.9306 195.9582
L245.2163 196.1011
" />
<path d="M246.5734 196.6011
L246.5734 195.1011
" />
<path d="M246.5734 195.6725
L246.7163 195.6011
" />
<path d="M246.7163 195.6011
L247.0020 195.6011
" />
<path d="M247.0020 195.6011
L247.1448 195.6725
" />
<path d="M247.1448 195.6725
L247.2163 195.7439
" />
<path d="M247.2163 195.7439
L247.2877 195.8868
" />
<path d="M247.2877 195.8868
L247.2877 196.3154
" />
<path d="M247.2877 196.3154
L247.2163 196.4582
" />
<path d="M247.2163 196.4582
L247.1448 196.5297
" />
<path d="M247.1448 196.5297
L247.0020 196.6011
" />
<path d="M247.0020 196.6011
L246.7163 196.6011
" />
<path d="M246.7163 196.6011
L246.5734 196.5297
" />
<path d="M248.7162 196.6011
L247.8591 196.6011
" />
<path d="M248.2876 196.6011
L248.2876 195.1011
" />
<path d="M248.2876 195.1011
L248.1448 195.3154
" />
<path d="M248.1448 195.3154
L248.0019 195.4582
" />
<path d="M248.0019 195.4582
L247.8591 195.5297
" />
<path d="M250.1448 196.6011
L249.2877 196.6011
" />
<path d="M249.7162 196.6011
L249.7162 195.1011
" />
<path d="M249.7162 195.1011
L249.5734 195.3154
" />
<path d="M249.5734 195.3154
L249.4305 195.4582
" />
<path d="M249.4305 195.4582
L249.2877 195.5297
" />
</g><path d="M177.0022 191.5072
L285.0022 191.5072
" />
</g>
<g style="fill:#840000; fill-opacity:0.0; 
stroke:#840000; stroke-width:0.3000; stroke-opacity:1; 
stroke-linecap:round; stroke-linejoin:round;">
<text x="263.0022" y="193.8572"
textLength="6.2358" font-size="2.0000" lengthAdjust="spacingAndGlyphs"
text-anchor="start" opacity="0">Rev: </text>
<g class="stroked-text"><desc>Rev: </desc>
<path d="M264.2164 193.8011
L263.7164 193.0868
" />
<path d="M263.3593 193.8011
L263.3593 192.3011
" />
<path d="M263.3593 192.3011
L263.9307 192.3011
" />
<path d="M263.9307 192.3011
L264.0736 192.3725
" />
<path d="M264.0736 192.3725
L264.1450 192.4439
" />
<path d="M264.1450 192.4439
L264.2164 192.5868
" />
<path d="M264.2164 192.5868
L264.2164 192.8011
" />
<path d="M264.2164 192.8011
L264.1450 192.9439
" />
<path d="M264.1450 192.9439
L264.0736 193.0154
" />
<path d="M264.0736 193.0154
L263.9307 193.0868
" />
<path d="M263.9307 193.0868
L263.3593 193.0868
" />
<path d="M265.4307 193.7297
L265.2879 193.8011
" />
<path d="M265.2879 193.8011
L265.0022 193.8011
" />
<path d="M265.0022 193.8011
L264.8593 193.7297
" />
<path d="M264.8593 193.7297
L264.7879 193.5868
" />
<path d="M264.7879 193.5868
L264.7879 193.0154
" />
<path d="M264.7879 193.0154
L264.8593 192.8725
" />
<path d="M264.8593 192.8725
L265.0022 192.8011
" />
<path d="M265.0022 192.8011
L265.2879 192.8011
" />
<path d="M265.2879 192.8011
L265.4307 192.8725
" />
<path d="M265.4307 192.8725
L265.5022 193.0154
" />
<path d="M265.5022 193.0154
L265.5022 193.1582
" />
<path d="M265.5022 193.1582
L264.7879 193.3011
" />
<path d="M266.0021 192.8011
L266.3593 193.8011
" />
<path d="M266.3593 193.8011
L266.7164 192.8011
" />
<path d="M267.2879 193.6582
L267.3593 193.7297
" />
<path d="M267.3593 193.7297
L267.2879 193.8011
" />
<path d="M267.2879 193.8011
L267.2165 193.7297
" />
<path d="M267.2165 193.7297
L267.2879 193.6582
" />
<path d="M267.2879 193.6582
L267.2879 193.8011
" />
<path d="M267.2879 192.8725
L267.3593 192.9439
" />
<path d="M267.3593 192.9439
L267.2879 193.0154
" />
<path d="M267.2879 193.0154
L267.2165 192.9439
" />
<path d="M267.2165 192.9439
L267.2879 192.8725
" />
<path d="M267.2879 192.8725
L267.2879 193.0154
" />
</g></g>
<g style="fill:#840000; fill-opacity:0.0; 
stroke:#840000; stroke-width:0.1524; stroke-opacity:1; 
stroke-linecap:round; stroke-linejoin:round;">
<text x="178.0022" y="193.8572"
textLength="9.2954" font-size="2.0000" lengthAdjust="spacingAndGlyphs"
text-anchor="start" opacity="0">Size: A4</text>
<g class="stroked-text"><desc>Size: A4</desc>
<path d="M178.2879 193.7297
L178.5022 193.8011
" />
<path d="M178.5022 193.8011
L178.8593 193.8011
" />
<path d="M178.8593 193.8011
L179.0022 193.7297
" />
<path d="M179.0022 193.7297
L179.0736 193.6582
" />
<path d="M179.0736 193.6582
L179.1450 193.5154
" />
<path d="M179.1450 193.5154
L179.1450 193.3725
" />
<path d="M179.1450 193.3725
L179.0736 193.2297
" />
<path d="M179.0736 193.2297
L179.0022 193.1582
" />
<path d="M179.0022 193.1582
L178.8593 193.0868
" />
<path d="M178.8593 193.0868
L178.5736 193.0154
" />
<path d="M178.5736 193.0154
L178.4307 192.9439
" />
<path d="M178.4307 192.9439
L178.3593 192.8725
" />
<path d="M178.3593 192.8725
L178.2879 192.7297
" />
<path d="M178.2879 192.7297
L178.2879 192.5868
" />
<path d="M178.2879 192.5868
L178.3593 192.4439
" />
<path d="M178.3593 192.4439
L178.4307 192.3725
" />
<path d="M178.4307 192.3725
L178.5736 192.3011
" />
<path d="M178.5736 192.3011
L178.9307 192.3011
" />
<path d="M178.9307 192.3011
L179.1450 192.3725
" />
<path d="M179.7879 193.8011
L179.7879 192.8011
" />
<path d="M179.7879 192.3011
L179.7165 192.3725
" />
<path d="M179.7165 192.3725
L179.7879 192.4439
" />
<path d="M179.7879 192.4439
L179.8593 192.3725
" />
<path d="M179.8593 192.3725
L179.7879 192.3011
" />
<path d="M179.7879 192.3011
L179.7879 192.4439
" />
<path d="M180.3593 192.8011
L181.1451 192.8011
" />
<path d="M181.1451 192.8011
L180.3593 193.8011
" />
<path d="M180.3593 193.8011
L181.1451 193.8011
" />
<path d="M182.2879 193.7297
L182.1451 193.8011
" />
<path d="M182.1451 193.8011
L181.8594 193.8011
" />
<path d="M181.8594 193.8011
L181.7165 193.7297
" />
<path d="M181.7165 193.7297
L181.6451 193.5868
" />
<path d="M181.6451 193.5868
L181.6451 193.0154
" />
<path d="M181.6451 193.0154
L181.7165 192.8725
" />
<path d="M181.7165 192.8725
L181.8594 192.8011
" />
<path d="M181.8594 192.8011
L182.1451 192.8011
" />
<path d="M182.1451 192.8011
L182.2879 192.8725
" />
<path d="M182.2879 192.8725
L182.3594 193.0154
" />
<path d="M182.3594 193.0154
L182.3594 193.1582
" />
<path d="M182.3594 193.1582
L181.6451 193.3011
" />
<path d="M183.0022 193.6582
L183.0736 193.7297
" />
<path d="M183.0736 193.7297
L183.0022 193.8011
" />
<path d="M183.0022 193.8011
L182.9308 193.7297
" />
<path d="M182.9308 193.7297
L183.0022 193.6582
" />
<path d="M183.0022 193.6582
L183.0022 193.8011
" />
<path d="M183.0022 192.8725
L183.0736 192.9439
" />
<path d="M183.0736 192.9439
L183.0022 193.0154
" />
<path d="M183.0022 193.0154
L182.9308 192.9439
" />
<path d="M182.9308 192.9439
L183.0022 192.8725
" />
<path d="M183.0022 192.8725
L183.0022 193.0154
" />
<path d="M184.7880 193.3725
L185.5023 193.3725
" />
<path d="M184.6451 193.8011
L185.1451 192.3011
" />
<path d="M185.1451 192.3011
L185.6451 193.8011
" />
<path d="M186.7880 192.8011
L186.7880 193.8011
" />
<path d="M186.4308 192.2297
L186.0737 193.3011
" />
<path d="M186.0737 193.3011
L187.0022 193.3011
" />
</g><text x="263.0022" y="196.6572"
textLength="8.4382" font-size="2.0000" lengthAdjust="spacingAndGlyphs"
text-anchor="start" opacity="0">Id: 4/4</text>
<g class="stroked-text"><desc>Id: 4/4</desc>
<path d="M263.3593 196.6011
L263.3593 195.1011
" />
<path d="M264.7165 196.6011
L264.7165 195.1011
" />
<path d="M264.7165 196.5297
L264.5736 196.6011
" />
<path d="M264.5736 196.6011
L264.2879 196.6011
" />
<path d="M264.2879 196.6011
L264.1450 196.5297
" />
<path d="M264.1450 196.5297
L264.0736 196.4582
" />
<path d="M264.0736 196.4582
L264.0022 196.3154
" />
<path d="M264.0022 196.3154
L264.0022 195.8868
" />
<path d="M264.0022 195.8868
L264.0736 195.7439
" />
<path d="M264.0736 195.7439
L264.1450 195.6725
" />
<path d="M264.1450 195.6725
L264.2879 195.6011
" />
<path d="M264.2879 195.6011
L264.5736 195.6011
" />
<path d="M264.5736 195.6011
L264.7165 195.6725
" />
<path d="M265.4307 196.4582
L265.5021 196.5297
" />
<path d="M265.5021 196.5297
L265.4307 196.6011
" />
<path d="M265.4307 196.6011
L265.3593 196.5297
" />
<path d="M265.3593 196.5297
L265.4307 196.4582
" />
<path d="M265.4307 196.4582
L265.4307 196.6011
" />
<path d="M265.4307 195.6725
L265.5021 195.7439
" />
<path d="M265.5021 195.7439
L265.4307 195.8154
" />
<path d="M265.4307 195.8154
L265.3593 195.7439
" />
<path d="M265.3593 195.7439
L265.4307 195.6725
" />
<path d="M265.4307 195.6725
L265.4307 195.8154
" />
<path d="M267.9308 195.6011
L267.9308 196.6011
" />
<path d="M267.5736 195.0297
L267.2165 196.1011
" />
<path d="M267.2165 196.1011
L268.1450 196.1011
" />
<path d="M269.7879 195.0297
L268.5022 196.9582
" />
<path d="M270.9308 195.6011
L270.9308 196.6011
" />
<path d="M270.5736 195.0297
L270.2165 196.1011
" />
<path d="M270.2165 196.1011
L271.1450 196.1011
" />
</g><path d="M177.0022 187.5072
L285.0022 187.5072
" />
</g>
<g style="fill:#840000; fill-opacity:0.0; 
stroke:#840000; stroke-width:0.4000; stroke-opacity:1; 
stroke-linecap:round; stroke-linejoin:round;">
<text x="178.0022" y="190.3072"
textLength="9.3858" font-size="2.6666" lengthAdjust="spacingAndGlyphs"
text-anchor="start" opacity="0">Title: </text>
<g class="stroked-text"><desc>Title: </desc>
<path d="M178.4307 188.2324
L179.5736 188.2324
" />
<path d="M178.7522 190.2324
L179.0022 188.2324
" />
<path d="M179.9783 190.2324
L180.1450 188.8991
" />
<path d="M180.2283 188.2324
L180.1212 188.3276
" />
<path d="M180.1212 188.3276
L180.2045 188.4229
" />
<path d="M180.2045 188.4229
L180.3117 188.3276
" />
<path d="M180.3117 188.3276
L180.2283 188.2324
" />
<path d="M180.2283 188.2324
L180.2045 188.4229
" />
<path d="M180.7998 188.8991
L181.5617 188.8991
" />
<path d="M181.1688 188.2324
L180.9546 189.9467
" />
<path d="M180.9546 189.9467
L181.0260 190.1372
" />
<path d="M181.0260 190.1372
L181.2046 190.2324
" />
<path d="M181.2046 190.2324
L181.3950 190.2324
" />
<path d="M182.3356 190.2324
L182.1570 190.1372
" />
<path d="M182.1570 190.1372
L182.0856 189.9467
" />
<path d="M182.0856 189.9467
L182.2998 188.2324
" />
<path d="M183.8593 190.1372
L183.6570 190.2324
" />
<path d="M183.6570 190.2324
L183.2760 190.2324
" />
<path d="M183.2760 190.2324
L183.0974 190.1372
" />
<path d="M183.0974 190.1372
L183.0260 189.9467
" />
<path d="M183.0260 189.9467
L183.1213 189.1848
" />
<path d="M183.1213 189.1848
L183.2403 188.9943
" />
<path d="M183.2403 188.9943
L183.4427 188.8991
" />
<path d="M183.4427 188.8991
L183.8236 188.8991
" />
<path d="M183.8236 188.8991
L184.0022 188.9943
" />
<path d="M184.0022 188.9943
L184.0736 189.1848
" />
<path d="M184.0736 189.1848
L184.0498 189.3752
" />
<path d="M184.0498 189.3752
L183.0736 189.5657
" />
<path d="M184.8117 190.0419
L184.8951 190.1372
" />
<path d="M184.8951 190.1372
L184.7879 190.2324
" />
<path d="M184.7879 190.2324
L184.7046 190.1372
" />
<path d="M184.7046 190.1372
L184.8117 190.0419
" />
<path d="M184.8117 190.0419
L184.7879 190.2324
" />
<path d="M184.9427 188.9943
L185.0260 189.0895
" />
<path d="M185.0260 189.0895
L184.9189 189.1848
" />
<path d="M184.9189 189.1848
L184.8356 189.0895
" />
<path d="M184.8356 189.0895
L184.9427 188.9943
" />
<path d="M184.9427 188.9943
L184.9189 189.1848
" />
</g></g>
<g style="fill:#840000; fill-opacity:0.0; 
stroke:#840000; stroke-width:0.1524; stroke-opacity:1; 
stroke-linecap:round; stroke-linejoin:round;">
<text x="178.0022" y="186.4572"
textLength="21.5809" font-size="2.0000" lengthAdjust="spacingAndGlyphs"
text-anchor="start" opacity="0">File: psu.kicad_sch</text>
<g class="stroked-text"><desc>File: psu.kicad_sch</desc>
<path d="M178.8593 185.6154
L178.3593 185.6154
" />
<path d="M178.3593 186.4011
L178.3593 184.9011
" />
<path d="M178.3593 184.9011
L179.0736 184.9011
" />
<path d="M179.6450 186.4011
L179.6450 185.4011
" />
<path d="M179.6450 184.9011
L179.5736 184.9725
" />
<path d="M179.5736 184.9725
L179.6450 185.0439
" />
<path d="M179.6450 185.0439
L179.7164 184.9725
" />
<path d="M179.7164 184.9725
L179.6450 184.9011
" />
<path d="M179.6450 184.9011
L179.6450 185.0439
" />
<path d="M180.5736 186.4011
L180.4307 186.3297
" />
<path d="M180.4307 186.3297
L180.3593 186.1868
" />
<path d="M180.3593 186.1868
L180.3593 184.9011
" />
<path d="M181.7164 186.3297
L181.5736 186.4011
" />
<path d="M181.5736 186.4011
L181.2879 186.4011
" />
<path d="M181.2879 186.4011
L181.1450 186.3297
" />
<path d="M181.1450 186.3297
L181.0736 186.1868
" />
<path d="M181.0736 186.1868
L181.0736 185.6154
" />
<path d="M181.0736 185.6154
L181.1450 185.4725
" />
<path d="M181.1450 185.4725
L181.2879 185.4011
" />
<path d="M181.2879 185.4011
L181.5736 185.4011
" />
<path d="M181.5736 185.4011
L181.7164 185.4725
" />
<path d="M181.7164 185.4725
L181.7879 185.6154
" />
<path d="M181.7879 185.6154
L181.7879 185.7582
" />
<path d="M181.7879 185.7582
L181.0736 185.9011
" />
<path d="M182.4307 186.2582
L182.5021 186.3297
" />
<path d="M182.5021 186.3297
L182.4307 186.4011
" />
<path d="M182.4307 186.4011
L182.3593 186.3297
" />
<path d="M182.3593 186.3297
L182.4307 186.2582
" />
<path d="M182.4307 186.2582
L182.4307 186.4011
" />
<path d="M182.4307 185.4725
L182.5021 185.5439
" />
<path d="M182.5021 185.5439
L182.4307 185.6154
" />
<path d="M182.4307 185.6154
L182.3593 185.5439
" />
<path d="M182.3593 185.5439
L182.4307 185.4725
" />
<path d="M182.4307 185.4725
L182.4307 185.6154
" />
<path d="M184.2879 185.4011
L184.2879 186.9011
" />
<path d="M184.2879 185.4725
L184.4308 185.4011
" />
<path d="M184.4308 185.4011
L184.7165 185.4011
" />
<path d="M184.7165 185.4011
L184.8593 185.4725
" />
<path d="M184.8593 185.4725
L184.9308 185.5439
" />
<path d="M184.9308 185.5439
L185.0022 185.6868
" />
<path d="M185.0022 185.6868
L185.0022 186.1154
" />
<path d="M185.0022 186.1154
L184.9308 186.2582
" />
<path d="M184.9308 186.2582
L184.8593 186.3297
" />
<path d="M184.8593 186.3297
L184.7165 186.4011
" />
<path d="M184.7165 186.4011
L184.4308 186.4011
" />
<path d="M184.4308 186.4011
L184.2879 186.3297
" />
<path d="M185.5736 186.3297
L185.7164 186.4011
" />
<path d="M185.7164 186.4011
L186.0021 186.4011
" />
<path d="M186.0021 186.4011
L186.1450 186.3297
" />
<path d="M186.1450 186.3297
L186.2164 186.1868
" />
<path d="M186.2164 186.1868
L186.2164 186.1154
" />
<path d="M186.2164 186.1154
L186.1450 185.9725
" />
<path d="M186.1450 185.9725
L186.0021 185.9011
" />
<path d="M186.0021 185.9011
L185.7879 185.9011
" />
<path d="M185.7879 185.9011
L185.6450 185.8297
" />
<path d="M185.6450 185.8297
L185.5736 185.6868
" />
<path d="M185.5736 185.6868
L185.5736 185.6154
" />
<path d="M185.5736 185.6154
L185.6450 185.4725
" />
<path d="M185.6450 185.4725
L185.7879 185.4011
" />
<path d="M185.7879 185.4011
L186.0021 185.4011
" />
<path d="M186.0021 185.4011
L186.1450 185.4725
" />
<path d="M187.5022 185.4011
L187.5022 186.4011
" />
<path d="M186.8593 185.4011
L186.8593 186.1868
" />
<path d="M186.8593 186.1868
L186.9307 186.3297
" />
<path d="M186.9307 186.3297
L187.0736 186.4011
" />
<path d="M187.0736 186.4011
L187.2879 186.4011
" />
<path d="M187.2879 186.4011
L187.4307 186.3297
" />
<path d="M187.4307 186.3297
L187.5022 186.2582
" />
<path d="M188.2164 186.2582
L188.2878 186.3297
" />
<path d="M188.2878 186.3297
L188.2164 186.4011
" />
<path d="M188.2164 186.4011
L188.1450 186.3297
" />
<path d="M188.1450 186.3297
L188.2164 186.2582
" />
<path d="M188.2164 186.2582
L188.2164 186.4011
" />
<path d="M188.9307 186.4011
L188.9307 184.9011
" />
<path d="M189.0736 185.8297
L189.5021 186.4011
" />
<path d="M189.5021 185.4011
L188.9307 185.9725
" />
<path d="M190.1450 186.4011
L190.1450 185.4011
" />
<path d="M190.1450 184.9011
L190.0736 184.9725
" />
<path d="M190.0736 184.9725
L190.1450 185.0439
" />
<path d="M190.1450 185.0439
L190.2164 184.9725
" />
<path d="M190.2164 184.9725
L190.1450 184.9011
" />
<path d="M190.1450 184.9011
L190.1450 185.0439
" />
<path d="M191.5022 186.3297
L191.3593 186.4011
" />
<path d="M191.3593 186.4011
L191.0736 186.4011
" />
<path d="M191.0736 186.4011
L190.9307 186.3297
" />
<path d="M190.9307 186.3297
L190.8593 186.2582
" />
<path d="M190.8593 186.2582
L190.7879 186.1154
" />
<path d="M190.7879 186.1154
L190.7879 185.6868
" />
<path d="M190.7879 185.6868
L190.8593 185.5439
" />
<path d="M190.8593 185.5439
L190.9307 185.4725
" />
<path d="M190.9307 185.4725
L191.0736 185.4011
" />
<path d="M191.0736 185.4011
L191.3593 185.4011
" />
<path d="M191.3593 185.4011
L191.5022 185.4725
" />
<path d="M192.7879 186.4011
L192.7879 185.6154
" />
<path d="M192.7879 185.6154
L192.7164 185.4725
" />
<path d="M192.7164 185.4725
L192.5736 185.4011
" />
<path d="M192.5736 185.4011
L192.2879 185.4011
" />
<path d="M192.2879 185.4011
L192.1450 185.4725
" />
<path d="M192.7879 186.3297
L192.6450 186.4011
" />
<path d="M192.6450 186.4011
L192.2879 186.4011
" />
<path d="M192.2879 186.4011
L192.1450 186.3297
" />
<path d="M192.1450 186.3297
L192.0736 186.1868
" />
<path d="M192.0736 186.1868
L192.0736 186.0439
" />
<path d="M192.0736 186.0439
L192.1450 185.9011
" />
<path d="M192.1450 185.9011
L192.2879 185.8297
" />
<path d="M192.2879 185.8297
L192.6450 185.8297
" />
<path d="M192.6450 185.8297
L192.7879 185.7582
" />
<path d="M194.1450 186.4011
L194.1450 184.9011
" />
<path d="M194.1450 186.3297
L194.0021 186.4011
" />
<path d="M194.0021 186.4011
L193.7164 186.4011
" />
<path d="M193.7164 186.4011
L193.5735 186.3297
" />
<path d="M193.5735 186.3297
L193.5021 186.2582
" />
<path d="M193.5021 186.2582
L193.4307 186.1154
" />
<path d="M193.4307 186.1154
L193.4307 185.6868
" />
<path d="M193.4307 185.6868
L193.5021 185.5439
" />
<path d="M193.5021 185.5439
L193.5735 185.4725
" />
<path d="M193.5735 185.4725
L193.7164 185.4011
" />
<path d="M193.7164 185.4011
L194.0021 185.4011
" />
<path d="M194.0021 185.4011
L194.1450 185.4725
" />
<path d="M194.5021 186.5439
L195.6449 186.5439
" />
<path d="M195.9307 186.3297
L196.0735 186.4011
" />
<path d="M196.0735 186.4011
L196.3592 186.4011
" />
<path d="M196.3592 186.4011
L196.5021 186.3297
" />
<path d="M196.5021 186.3297
L196.5735 186.1868
" />
<path d="M196.5735 186.1868
L196.5735 186.1154
" />
<path d="M196.5735 186.1154
L196.5021 185.9725
" />
<path d="M196.5021 185.9725
L196.3592 185.9011
" />
<path d="M196.3592 185.9011
L196.1450 185.9011
" />
<path d="M196.1450 185.9011
L196.0021 185.8297
" />
<path d="M196.0021 185.8297
L195.9307 185.6868
" />
<path d="M195.9307 185.6868
L195.9307 185.6154
" />
<path d="M195.9307 185.6154
L196.0021 185.4725
" />
<path d="M196.0021 185.4725
L196.1450 185.4011
" />
<path d="M196.1450 185.4011
L196.3592 185.4011
" />
<path d="M196.3592 185.4011
L196.5021 185.4725
" />
<path d="M197.8593 186.3297
L197.7164 186.4011
" />
<path d="M197.7164 186.4011
L197.4307 186.4011
" />
<path d="M197.4307 186.4011
L197.2878 186.3297
" />
<path d="M197.2878 186.3297
L197.2164 186.2582
" />
<path d="M197.2164 186.2582
L197.1450 186.1154
" />
<path d="M197.1450 186.1154
L197.1450 185.6868
" />
<path d="M197.1450 185.6868
L197.2164 185.5439
" />
<path d="M197.2164 185.5439
L197.2878 185.4725
" />
<path d="M197.2878 185.4725
L197.4307 185.4011
" />
<path d="M197.4307 185.4011
L197.7164 185.4011
" />
<path d="M197.7164 185.4011
L197.8593 185.4725
" />
<path d="M198.5021 186.4011
L198.5021 184.9011
" />
<path d="M199.1450 186.4011
L199.1450 185.6154
" />
<path d="M199.1450 185.6154
L199.0735 185.4725
" />
<path d="M199.0735 185.4725
L198.9307 185.4011
" />
<path d="M198.9307 185.4011
L198.7164 185.4011
" />
<path d="M198.7164 185.4011
L198.5735 185.4725
" />
<path d="M198.5735 185.4725
L198.5021 185.5439
" />
</g><path d="M177.0022 181.5072
L285.0022 181.5072
" />
<text x="178.0022" y="183.7572"
textLength="15.2237" font-size="2.0000" lengthAdjust="spacingAndGlyphs"
text-anchor="start" opacity="0">Sheet: /psu/</text>
<g class="stroked-text"><desc>Sheet: /psu/</desc>
<path d="M178.2879 183.6297
L178.5022 183.7011
" />
<path d="M178.5022 183.7011
L178.8593 183.7011
" />
<path d="M178.8593 183.7011
L179.0022 183.6297
" />
<path d="M179.0022 183.6297
L179.0736 183.5582
" />
<path d="M179.0736 183.5582
L179.1450 183.4154
" />
<path d="M179.1450 183.4154
L179.1450 183.2725
" />
<path d="M179.1450 183.2725
L179.0736 183.1297
" />
<path d="M179.0736 183.1297
L179.0022 183.0582
" />
<path d="M179.0022 183.0582
L178.8593 182.9868
" />
<path d="M178.8593 182.9868
L178.5736 182.9154
" />
<path d="M178.5736 182.9154
L178.4307 182.8439
" />
<path d="M178.4307 182.8439
L178.3593 182.7725
" />
<path d="M178.3593 182.7725
L178.2879 182.6297
" />
<path d="M178.2879 182.6297
L178.2879 182.4868
" />
<path d="M178.2879 182.4868
L178.3593 182.3439
" />
<path d="M178.3593 182.3439
L178.4307 182.2725
" />
<path d="M178.4307 182.2725
L178.5736 182.2011
" />
<path d="M178.5736 182.2011
L178.9307 182.2011
" />
<path d="M178.9307 182.2011
L179.1450 182.2725
" />
<path d="M179.7879 183.7011
L179.7879 182.2011
" />
<path d="M180.4308 183.7011
L180.4308 182.9154
" />
<path d="M180.4308 182.9154
L180.3593 182.7725
" />
<path d="M180.3593 182.7725
L180.2165 182.7011
" />
<path d="M180.2165 182.7011
L180.0022 182.7011
" />
<path d="M180.0022 182.7011
L179.8593 182.7725
" />
<path d="M179.8593 182.7725
L179.7879 182.8439
" />
<path d="M181.7164 183.6297
L181.5736 183.7011
" />
<path d="M181.5736 183.7011
L181.2879 183.7011
" />
<path d="M181.2879 183.7011
L181.1450 183.6297
" />
<path d="M181.1450 183.6297
L181.0736 183.4868
" />
<path d="M181.0736 183.4868
L181.0736 182.9154
" />
<path d="M181.0736 182.9154
L181.1450 182.7725
" />
<path d="M181.1450 182.7725
L181.2879 182.7011
" />
<path d="M181.2879 182.7011
L181.5736 182.7011
" />
<path d="M181.5736 182.7011
L181.7164 182.7725
" />
<path d="M181.7164 182.7725
L181.7879 182.9154
" />
<path d="M181.7879 182.9154
L181.7879 183.0582
" />
<path d="M181.7879 183.0582
L181.0736 183.2011
" />
<path d="M183.0021 183.6297
L182.8593 183.7011
" />
<path d="M182.8593 183.7011
L182.5736 183.7011
" />
<path d="M182.5736 183.7011
L182.4307 183.6297
" />
<path d="M182.4307 183.6297
L182.3593 183.4868
" />
<path d="M182.3593 183.4868
L182.3593 182.9154
" />
<path d="M182.3593 182.9154
L182.4307 182.7725
" />
<path d="M182.4307 182.7725
L182.5736 182.7011
" />
<path d="M182.5736 182.7011
L182.8593 182.7011
" />
<path d="M182.8593 182.7011
L183.0021 182.7725
" />
<path d="M183.0021 182.7725
L183.0736 182.9154
" />
<path d="M183.0736 182.9154
L183.0736 183.0582
" />
<path d="M183.0736 183.0582
L182.3593 183.2011
" />
<path d="M183.5021 182.7011
L184.0735 182.7011
" />
<path d="M183.7164 182.2011
L183.7164 183.4868
" />
<path d="M183.7164 183.4868
L183.7878 183.6297
" />
<path d="M183.7878 183.6297
L183.9307 183.7011
" />
<path d="M183.9307 183.7011
L184.0735 183.7011
" />
<path d="M184.5735 183.5582
L184.6449 183.6297
" />
<path d="M184.6449 183.6297
L184.5735 183.7011
" />
<path d="M184.5735 183.7011
L184.5021 183.6297
" />
<path d="M184.5021 183.6297
L184.5735 183.5582
" />
<path d="M184.5735 183.5582
L184.5735 183.7011
" />
<path d="M184.5735 182.7725
L184.6449 182.8439
" />
<path d="M184.6449 182.8439
L184.5735 182.9154
" />
<path d="M184.5735 182.9154
L184.5021 182.8439
" />
<path d="M184.5021 182.8439
L184.5735 182.7725
" />
<path d="M184.5735 182.7725
L184.5735 182.9154
" />
<path d="M187.5021 182.1297
L186.2164 184.0582
" />
<path d="M188.0021 182.7011
L188.0021 184.2011
" />
<path d="M188.0021 182.7725
L188.1450 182.7011
" />
<path d="M188.1450 182.7011
L188.4307 182.7011
" />
<path d="M188.4307 182.7011
L188.5735 182.7725
" />
<path d="M188.5735 182.7725
L188.6450 182.8439
" />
<path d="M188.6450 182.8439
L188.7164 182.9868
" />
<path d="M188.7164 182.9868
L188.7164 183.4154
" />
<path d="M188.7164 183.4154
L188.6450 183.5582
" />
<path d="M188.6450 183.5582
L188.5735 183.6297
" />
<path d="M188.5735 183.6297
L188.4307 183.7011
" />
<path d="M188.4307 183.7011
L188.1450 183.7011
" />
<path d="M188.1450 183.7011
L188.0021 183.6297
" />
<path d="M189.2878 183.6297
L189.4306 183.7011
" />
<path d="M189.4306 183.7011
L189.7163 183.7011
" />
<path d="M189.7163 183.7011
L189.8592 183.6297
" />
<path d="M189.8592 183.6297
L189.9306 183.4868
" />
<path d="M189.9306 183.4868
L189.9306 183.4154
" />
<path d="M189.9306 183.4154
L189.8592 183.2725
" />
<path d="M189.8592 183.2725
L189.7163 183.2011
" />
<path d="M189.7163 183.2011
L189.5021 183.2011
" />
<path d="M189.5021 183.2011
L189.3592 183.1297
" />
<path d="M189.3592 183.1297
L189.2878 182.9868
" />
<path d="M189.2878 182.9868
L189.2878 182.9154
" />
<path d="M189.2878 182.9154
L189.3592 182.7725
" />
<path d="M189.3592 182.7725
L189.5021 182.7011
" />
<path d="M189.5021 182.7011
L189.7163 182.7011
" />
<path d="M189.7163 182.7011
L189.8592 182.7725
" />
<path d="M191.2164 182.7011
L191.2164 183.7011
" />
<path d="M190.5735 182.7011
L190.5735 183.4868
" />
<path d="M190.5735 183.4868
L190.6449 183.6297
" />
<path d="M190.6449 183.6297
L190.7878 183.7011
" />
<path d="M190.7878 183.7011
L191.0021 183.7011
" />
<path d="M191.0021 183.7011
L191.1449 183.6297
" />
<path d="M191.1449 183.6297
L191.2164 183.5582
" />
<path d="M193.0020 182.1297
L191.7163 184.0582
" />
</g></g>
<g style="fill:#840000; fill-opacity:0.0; 
stroke:#840000; stroke-width:0.3000; stroke-opacity:1; 
stroke-linecap:round; stroke-linejoin:round;">
<text x="178.0022" y="180.7572"
textLength="0.7500" font-size="2.0000" lengthAdjust="spacingAndGlyphs"
text-anchor="start" opacity="0"></text>
<g class="stroked-text"><desc></desc>
</g></g>
<g style="fill:#840000; fill-opacity:0.0; 
stroke:#840000; stroke-width:0.1524; stroke-opacity:1; 
stroke-linecap:round; stroke-linejoin:round;">
<text x="178.0022" y="177.7572"
textLength="0.3810" font-size="2.0000" lengthAdjust="spacingAndGlyphs"
text-anchor="start" opacity="0"></text>
<g class="stroked-text"><desc></desc>
</g><text x="178.0022" y="174.7572"
textLength="0.3810" font-size="2.0000" lengthAdjust="spacingAndGlyphs"
text-anchor="start" opacity="0"></text>
<g class="stroked-text"><desc></desc>
</g><text x="178.0022" y="171.7572"
textLength="0.3810" font-size="2.0000" lengthAdjust="spacingAndGlyphs"
text-anchor="start" opacity="0"></text>
<g class="stroked-text"><desc></desc>
</g><text x="178.0022" y="168.7572"
textLength="0.3810" font-size="2.0000" lengthAdjust="spacingAndGlyphs"
text-anchor="start" opacity="0"></text>
<g class="stroked-text"><desc></desc>
</g><path d="M197.0022 191.5072
L197.0022 194.5072
" />
<path d="M261.0022 191.5072
L261.0022 198.0072
" />
<g >
</g>
<g style="fill:#FFFFC2; fill-opacity:0.0; 
stroke:#FFFFC2; stroke-width:0.1524; stroke-opacity:1; 
stroke-linecap:round; stroke-linejoin:round;">
</g>
<g style="fill:#FFFFC2; fill-opacity:1.0000; 
stroke:#FFFFC2; stroke-width:0.0000; stroke-opacity:1; 
stroke-linecap:round; stroke-linejoin:round;">
<rect x="62.230000" y="41.910000" width="20.320000" height="15.240000" rx="0.000000" />
</g>
<g style="fill:#840000; fill-opacity:1.0000; 
stroke:#840000; stroke-width:0.0000; stroke-opacity:1; 
stroke-linecap:round; stroke-linejoin:round;">
</g>
<g style="fill:#840000; fill-opacity:0.0; 
stroke:#840000; stroke-width:0.2540; stroke-opacity:1; 
stroke-linecap:round; stroke-linejoin:round;">
<rect x="62.230000" y="41.910000" width="20.320000" height="15.240000" rx="0.000000" />
</g>
<g style="fill:#840000; fill-opacity:0.0; 
stroke:#840000; stroke-width:0.1524; stroke-opacity:1; 
stroke-linecap:round; stroke-linejoin:round;">
<path d="M62.2300 49.5300
L57.1500 49.5300
" />
</g>
<g style="fill:#006464; fill-opacity:0.0; 
stroke:#006464; stroke-width:0.1524; stroke-opacity:1; 
stroke-linecap:round; stroke-linejoin:round;">
<text x="63.2460" y="50.0380"
textLength="3.8064" font-size="1.3546" lengthAdjust="spacingAndGlyphs"
text-anchor="start" opacity="0">CTRL</text>
<g class="stroked-text"><desc>CTRL</desc>
<path d="M64.0684 49.9033
L64.0200 49.9517
" />
<path d="M64.0200 49.9517
L63.8749 50.0000
" />
<path d="M63.8749 50.0000
L63.7781 50.0000
" />
<path d="M63.7781 50.0000
L63.6330 49.9517
" />
<path d="M63.6330 49.9517
L63.5362 49.8549
" />
<path d="M63.5362 49.8549
L63.4879 49.7581
" />
<path d="M63.4879 49.7581
L63.4395 49.5646
" />
<path d="M63.4395 49.5646
L63.4395 49.4195
" />
<path d="M63.4395 49.4195
L63.4879 49.2259
" />
<path d="M63.4879 49.2259
L63.5362 49.1292
" />
<path d="M63.5362 49.1292
L63.6330 49.0324
" />
<path d="M63.6330 49.0324
L63.7781 48.9840
" />
<path d="M63.7781 48.9840
L63.8749 48.9840
" />
<path d="M63.8749 48.9840
L64.0200 49.0324
" />
<path d="M64.0200 49.0324
L64.0684 49.0808
" />
<path d="M64.3587 48.9840
L64.9393 48.9840
" />
<path d="M64.6490 50.0000
L64.6490 48.9840
" />
<path d="M65.8585 50.0000
L65.5199 49.5162
" />
<path d="M65.2780 50.0000
L65.2780 48.9840
" />
<path d="M65.2780 48.9840
L65.6650 48.9840
" />
<path d="M65.6650 48.9840
L65.7618 49.0324
" />
<path d="M65.7618 49.0324
L65.8101 49.0808
" />
<path d="M65.8101 49.0808
L65.8585 49.1776
" />
<path d="M65.8585 49.1776
L65.8585 49.3227
" />
<path d="M65.8585 49.3227
L65.8101 49.4195
" />
<path d="M65.8101 49.4195
L65.7618 49.4678
" />
<path d="M65.7618 49.4678
L65.6650 49.5162
" />
<path d="M65.6650 49.5162
L65.2780 49.5162
" />
<path d="M66.7778 50.0000
L66.2940 50.0000
" />
<path d="M66.2940 50.0000
L66.2940 48.9840
" />
</g></g>
<g style="fill:#A90000; fill-opacity:0.0; 
stroke:#A90000; stroke-width:0.1524; stroke-opacity:1; 
stroke-linecap:round; stroke-linejoin:round;">
<text x="59.6900" y="49.2760"
textLength="1.1454" font-size="1.3546" lengthAdjust="spacingAndGlyphs"
text-anchor="middle" opacity="0">1</text>
<g class="stroked-text"><desc>1</desc>
<path d="M59.9802 49.1516
L59.3997 49.1516
" />
<path d="M59.6900 49.1516
L59.6900 48.1356
" />
<path d="M59.6900 48.1356
L59.5932 48.2808
" />
<path d="M59.5932 48.2808
L59.4964 48.3775
" />
<path d="M59.4964 48.3775
L59.3997 48.4259
" />
</g></g>
<g style="fill:#840000; fill-opacity:0.0; 
stroke:#840000; stroke-width:0.1524; stroke-opacity:1; 
stroke-linecap:round; stroke-linejoin:round;">
<path d="M62.2300 54.6100
L57.1500 54.6100
" />
</g>
<g style="fill:#006464; fill-opacity:0.0; 
stroke:#006464; stroke-width:0.1524; stroke-opacity:1; 
stroke-linecap:round; stroke-linejoin:round;">
<text x="63.2460" y="55.1180"
textLength="3.2742" font-size="1.3546" lengthAdjust="spacingAndGlyphs"
text-anchor="start" opacity="0">GND</text>
<g class="stroked-text"><desc>GND</desc>
<path d="M64.0200 54.1124
L63.9233 54.0640
" />
<path d="M63.9233 54.0640
L63.7781 54.0640
" />
<path d="M63.7781 54.0640
L63.6330 54.1124
" />
<path d="M63.6330 54.1124
L63.5362 54.2092
" />
<path d="M63.5362 54.2092
L63.4879 54.3059
" />
<path d="M63.4879 54.3059
L63.4395 54.4995
" />
<path d="M63.4395 54.4995
L63.4395 54.6446
" />
<path d="M63.4395 54.6446
L63.4879 54.8381
" />
<path d="M63.4879 54.8381
L63.5362 54.9349
" />
<path d="M63.5362 54.9349
L63.6330 55.0317
" />
<path d="M63.6330 55.0317
L63.7781 55.0800
" />
<path d="M63.7781 55.0800
L63.8749 55.0800
" />
<path d="M63.8749 55.0800
L64.0200 55.0317
" />
<path d="M64.0200 55.0317
L64.0684 54.9833
" />
<path d="M64.0684 54.9833
L64.0684 54.6446
" />
<path d="M64.0684 54.6446
L63.8749 54.6446
" />
<path d="M64.5039 55.0800
L64.5039 54.0640
" />
<path d="M64.5039 54.0640
L65.0844 55.0800
" />
<path d="M65.0844 55.0800
L65.0844 54.0640
" />
<path d="M65.5683 55.0800
L65.5683 54.0640
" />
<path d="M65.5683 54.0640
L65.8102 54.0640
" />
<path d="M65.8102 54.0640
L65.9553 54.1124
" />
<path d="M65.9553 54.1124
L66.0521 54.2092
" />
<path d="M66.0521 54.2092
L66.1004 54.3059
" />
<path d="M66.1004 54.3059
L66.1488 54.4995
" />
<path d="M66.1488 54.4995
L66.1488 54.6446
" />
<path d="M66.1488 54.6446
L66.1004 54.8381
" />
<path d="M66.1004 54.8381
L66.0521 54.9349
" />
<path d="M66.0521 54.9349
L65.9553 55.0317
" />
<path d="M65.9553 55.0317
L65.8102 55.0800
" />
<path d="M65.8102 55.0800
L65.5683 55.0800
" />
</g></g>
<g style="fill:#A90000; fill-opacity:0.0; 
stroke:#A90000; stroke-width:0.1524; stroke-opacity:1; 
stroke-linecap:round; stroke-linejoin:round;">
<text x="59.6900" y="54.3560"
textLength="1.1454" font-size="1.3546" lengthAdjust="spacingAndGlyphs"
text-anchor="middle" opacity="0">2</text>
<g class="stroked-text"><desc>2</desc>
<path d="M59.3997 53.3124
L59.4481 53.2640
" />
<path d="M59.4481 53.2640
L59.5448 53.2156
" />
<path d="M59.5448 53.2156
L59.7867 53.2156
" />
<path d="M59.7867 53.2156
L59.8835 53.2640
" />
<path d="M59.8835 53.2640
L59.9319 53.3124
" />
<path d="M59.9319 53.3124
L59.9802 53.4092
" />
<path d="M59.9802 53.4092
L59.9802 53.5059
" />
<path d="M59.9802 53.5059
L59.9319 53.6511
" />
<path d="M59.9319 53.6511
L59.3513 54.2316
" />
<path d="M59.3513 54.2316
L59.9802 54.2316
" />
</g></g>
<g style="fill:#840000; fill-opacity:0.0; 
stroke:#840000; stroke-width:0.1524; stroke-opacity:1; 
stroke-linecap:round; stroke-linejoin:round;">
<path d="M62.2300 44.4500
L57.1500 44.4500
" />
</g>
<g style="fill:#006464; fill-opacity:0.0; 
stroke:#006464; stroke-width:0.1524; stroke-opacity:1; 
stroke-linecap:round; stroke-linejoin:round;">
<text x="63.2460" y="44.9580"
textLength="2.5969" font-size="1.3546" lengthAdjust="spacingAndGlyphs"
text-anchor="start" opacity="0">VIN</text>
<g class="stroked-text"><desc>VIN</desc>
<path d="M63.3427 43.9040
L63.6814 44.9200
" />
<path d="M63.6814 44.9200
L64.0200 43.9040
" />
<path d="M64.3588 44.9200
L64.3588 43.9040
" />
<path d="M64.8426 44.9200
L64.8426 43.9040
" />
<path d="M64.8426 43.9040
L65.4231 44.9200
" />
<path d="M65.4231 44.9200
L65.4231 43.9040
" />
</g></g>
<g style="fill:#A90000; fill-opacity:0.0; 
stroke:#A90000; stroke-width:0.1524; stroke-opacity:1; 
stroke-linecap:round; stroke-linejoin:round;">
<text x="59.6900" y="44.1960"
textLength="1.1454" font-size="1.3546" lengthAdjust="spacingAndGlyphs"
text-anchor="middle" opacity="0">3</text>
<g class="stroked-text"><desc>3</desc>
<path d="M59.3513 43.0556
L59.9802 43.0556
" />
<path d="M59.9802 43.0556
L59.6416 43.4427
" />
<path d="M59.6416 43.4427
L59.7867 43.4427
" />
<path d="M59.7867 43.4427
L59.8835 43.4911
" />
<path d="M59.8835 43.4911
L59.9319 43.5394
" />
<path d="M59.9319 43.5394
L59.9802 43.6362
" />
<path d="M59.9802 43.6362
L59.9802 43.8781
" />
<path d="M59.9802 43.8781
L59.9319 43.9749
" />
<path d="M59.9319 43.9749
L59.8835 44.0233
" />
<path d="M59.8835 44.0233
L59.7867 44.0716
" />
<path d="M59.7867 44.0716
L59.4964 44.0716
" />
<path d="M59.4964 44.0716
L59.3997 44.0233
" />
<path d="M59.3997 44.0233
L59.3513 43.9749
" />
</g></g>
<g style="fill:#840000; fill-opacity:0.0; 
stroke:#840000; stroke-width:0.1524; stroke-opacity:1; 
stroke-linecap:round; stroke-linejoin:round;">
<path d="M82.5500 44.4500
L87.6300 44.4500
" />
</g>
<g style="fill:#006464; fill-opacity:0.0; 
stroke:#006464; stroke-width:0.1524; stroke-opacity:1; 
stroke-linecap:round; stroke-linejoin:round;">
<text x="81.5340" y="44.9580"
textLength="3.3710" font-size="1.3546" lengthAdjust="spacingAndGlyphs"
text-anchor="end" opacity="0">+VO</text>
<g class="stroked-text"><desc>+VO</desc>
<path d="M78.5827 44.5330
L79.3568 44.5330
" />
<path d="M78.9697 44.9200
L78.9697 44.1459
" />
<path d="M79.6954 43.9040
L80.0341 44.9200
" />
<path d="M80.0341 44.9200
L80.3727 43.9040
" />
<path d="M80.9050 43.9040
L81.0985 43.9040
" />
<path d="M81.0985 43.9040
L81.1953 43.9524
" />
<path d="M81.1953 43.9524
L81.2920 44.0492
" />
<path d="M81.2920 44.0492
L81.3404 44.2427
" />
<path d="M81.3404 44.2427
L81.3404 44.5814
" />
<path d="M81.3404 44.5814
L81.2920 44.7749
" />
<path d="M81.2920 44.7749
L81.1953 44.8717
" />
<path d="M81.1953 44.8717
L81.0985 44.9200
" />
<path d="M81.0985 44.9200
L80.9050 44.9200
" />
<path d="M80.9050 44.9200
L80.8082 44.8717
" />
<path d="M80.8082 44.8717
L80.7115 44.7749
" />
<path d="M80.7115 44.7749
L80.6631 44.5814
" />
<path d="M80.6631 44.5814
L80.6631 44.2427
" />
<path d="M80.6631 44.2427
L80.7115 44.0492
" />
<path d="M80.7115 44.0492
L80.8082 43.9524
" />
<path d="M80.8082 43.9524
L80.9050 43.9040
" />
</g></g>
<g style="fill:#A90000; fill-opacity:0.0; 
stroke:#A90000; stroke-width:0.1524; stroke-opacity:1; 
stroke-linecap:round; stroke-linejoin:round;">
<text x="85.0900" y="44.1960"
textLength="1.1454" font-size="1.3546" lengthAdjust="spacingAndGlyphs"
text-anchor="middle" opacity="0">4</text>
<g class="stroked-text"><desc>4</desc>
<path d="M85.2835 43.3943
L85.2835 44.0716
" />
<path d="M85.0416 43.0073
L84.7997 43.7330
" />
<path d="M84.7997 43.7330
L85.4286 43.7330
" />
</g></g>
<g style="fill:#840000; fill-opacity:0.0; 
stroke:#840000; stroke-width:0.1524; stroke-opacity:1; 
stroke-linecap:round; stroke-linejoin:round;">
<path d="M82.5500 49.5300
L87.6300 49.5300
" />
</g>
<g style="fill:#006464; fill-opacity:0.0; 
stroke:#006464; stroke-width:0.1524; stroke-opacity:1; 
stroke-linecap:round; stroke-linejoin:round;">
<text x="81.5340" y="50.0380"
textLength="3.6128" font-size="1.3546" lengthAdjust="spacingAndGlyphs"
text-anchor="end" opacity="0">TRIM</text>
<g class="stroked-text"><desc>TRIM</desc>
<path d="M78.1957 48.9840
L78.7763 48.9840
" />
<path d="M78.4860 50.0000
L78.4860 48.9840
" />
<path d="M79.6955 50.0000
L79.3569 49.5162
" />
<path d="M79.1150 50.0000
L79.1150 48.9840
" />
<path d="M79.1150 48.9840
L79.5020 48.9840
" />
<path d="M79.5020 48.9840
L79.5988 49.0324
" />
<path d="M79.5988 49.0324
L79.6471 49.0808
" />
<path d="M79.6471 49.0808
L79.6955 49.1776
" />
<path d="M79.6955 49.1776
L79.6955 49.3227
" />
<path d="M79.6955 49.3227
L79.6471 49.4195
" />
<path d="M79.6471 49.4195
L79.5988 49.4678
" />
<path d="M79.5988 49.4678
L79.5020 49.5162
" />
<path d="M79.5020 49.5162
L79.1150 49.5162
" />
<path d="M80.1310 50.0000
L80.1310 48.9840
" />
<path d="M80.6148 50.0000
L80.6148 48.9840
" />
<path d="M80.6148 48.9840
L80.9534 49.7097
" />
<path d="M80.9534 49.7097
L81.2921 48.9840
" />
<path d="M81.2921 48.9840
L81.2921 50.0000
" />
</g></g>
<g style="fill:#A90000; fill-opacity:0.0; 
stroke:#A90000; stroke-width:0.1524; stroke-opacity:1; 
stroke-linecap:round; stroke-linejoin:round;">
<text x="85.0900" y="49.2760"
textLength="1.1454" font-size="1.3546" lengthAdjust="spacingAndGlyphs"
text-anchor="middle" opacity="0">5</text>
<g class="stroked-text"><desc>5</desc>
<path d="M85.3319 48.1356
L84.8481 48.1356
" />
<path d="M84.8481 48.1356
L84.7997 48.6194
" />
<path d="M84.7997 48.6194
L84.8481 48.5711
" />
<path d="M84.8481 48.5711
L84.9448 48.5227
" />
<path d="M84.9448 48.5227
L85.1867 48.5227
" />
<path d="M85.1867 48.5227
L85.2835 48.5711
" />
<path d="M85.2835 48.5711
L85.3319 48.6194
" />
<path d="M85.3319 48.6194
L85.3802 48.7162
" />
<path d="M85.3802 48.7162
L85.3802 48.9581
" />
<path d="M85.3802 48.9581
L85.3319 49.0549
" />
<path d="M85.3319 49.0549
L85.2835 49.1033
" />
<path d="M85.2835 49.1033
L85.1867 49.1516
" />
<path d="M85.1867 49.1516
L84.9448 49.1516
" />
<path d="M84.9448 49.1516
L84.8481 49.1033
" />
<path d="M84.8481 49.1033
L84.7997 49.0549
" />
</g></g>
<g style="fill:#840000; fill-opacity:0.0; 
stroke:#840000; stroke-width:0.1524; stroke-opacity:1; 
stroke-linecap:round; stroke-linejoin:round;">
<path d="M82.5500 54.6100
L87.6300 54.6100
" />
</g>
<g style="fill:#006464; fill-opacity:0.0; 
stroke:#006464; stroke-width:0.1524; stroke-opacity:1; 
stroke-linecap:round; stroke-linejoin:round;">
<text x="81.5340" y="55.1180"
textLength="2.0163" font-size="1.3546" lengthAdjust="spacingAndGlyphs"
text-anchor="end" opacity="0">0V</text>
<g class="stroked-text"><desc>0V</desc>
<path d="M80.1309 54.0640
L80.2276 54.0640
" />
<path d="M80.2276 54.0640
L80.3244 54.1124
" />
<path d="M80.3244 54.1124
L80.3728 54.1608
" />
<path d="M80.3728 54.1608
L80.4212 54.2576
" />
<path d="M80.4212 54.2576
L80.4695 54.4511
" />
<path d="M80.4695 54.4511
L80.4695 54.6930
" />
<path d="M80.4695 54.6930
L80.4212 54.8865
" />
<path d="M80.4212 54.8865
L80.3728 54.9833
" />
<path d="M80.3728 54.9833
L80.3244 55.0317
" />
<path d="M80.3244 55.0317
L80.2276 55.0800
" />
<path d="M80.2276 55.0800
L80.1309 55.0800
" />
<path d="M80.1309 55.0800
L80.0341 55.0317
" />
<path d="M80.0341 55.0317
L79.9857 54.9833
" />
<path d="M79.9857 54.9833
L79.9374 54.8865
" />
<path d="M79.9374 54.8865
L79.8890 54.6930
" />
<path d="M79.8890 54.6930
L79.8890 54.4511
" />
<path d="M79.8890 54.4511
L79.9374 54.2576
" />
<path d="M79.9374 54.2576
L79.9857 54.1608
" />
<path d="M79.9857 54.1608
L80.0341 54.1124
" />
<path d="M80.0341 54.1124
L80.1309 54.0640
" />
<path d="M80.7598 54.0640
L81.0985 55.0800
" />
<path d="M81.0985 55.0800
L81.4371 54.0640
" />
</g></g>
<g style="fill:#A90000; fill-opacity:0.0; 
stroke:#A90000; stroke-width:0.1524; stroke-opacity:1; 
stroke-linecap:round; stroke-linejoin:round;">
<text x="85.0900" y="54.3560"
textLength="1.1454" font-size="1.3546" lengthAdjust="spacingAndGlyphs"
text-anchor="middle" opacity="0">6</text>
<g class="stroked-text"><desc>6</desc>
<path d="M85.2835 53.2156
L85.0900 53.2156
" />
<path d="M85.0900 53.2156
L84.9932 53.2640
" />
<path d="M84.9932 53.2640
L84.9448 53.3124
" />
<path d="M84.9448 53.3124
L84.8481 53.4575
" />
<path d="M84.8481 53.4575
L84.7997 53.6511
" />
<path d="M84.7997 53.6511
L84.7997 54.0381
" />
<path d="M84.7997 54.0381
L84.8481 54.1349
" />
<path d="M84.8481 54.1349
L84.8964 54.1833
" />
<path d="M84.8964 54.1833
L84.9932 54.2316
" />
<path d="M84.9932 54.2316
L85.1867 54.2316
" />
<path d="M85.1867 54.2316
L85.2835 54.1833
" />
<path d="M85.2835 54.1833
L85.3319 54.1349
" />
<path d="M85.3319 54.1349
L85.3802 54.0381
" />
<path d="M85.3802 54.0381
L85.3802 53.7962
" />
<path d="M85.3802 53.7962
L85.3319 53.6994
" />
<path d="M85.3319 53.6994
L85.2835 53.6511
" />
<path d="M85.2835 53.6511
L85.1867 53.6027
" />
<path d="M85.1867 53.6027
L84.9932 53.6027
" />
<path d="M84.9932 53.6027
L84.8964 53.6511
" />
<path d="M84.8964 53.6511
L84.8481 53.6994
" />
<path d="M84.8481 53.6994
L84.7997 53.7962
" />
</g></g>
<g style="fill:#006464; fill-opacity:0.0; 
stroke:#006464; stroke-width:0.1524; stroke-opacity:1; 
stroke-linecap:round; stroke-linejoin:round;">
<text x="72.3900" y="38.7350"
textLength="3.8160" font-size="1.6933" lengthAdjust="spacingAndGlyphs"
text-anchor="middle" opacity="0">PS1</text>
<g class="stroked-text"><desc>PS1</desc>
<path d="M70.8478 38.6875
L70.8478 37.4175
" />
<path d="M70.8478 37.4175
L71.3316 37.4175
" />
<path d="M71.3316 37.4175
L71.4526 37.4780
" />
<path d="M71.4526 37.4780
L71.5131 37.5385
" />
<path d="M71.5131 37.5385
L71.5735 37.6594
" />
<path d="M71.5735 37.6594
L71.5735 37.8409
" />
<path d="M71.5735 37.8409
L71.5131 37.9618
" />
<path d="M71.5131 37.9618
L71.4526 38.0223
" />
<path d="M71.4526 38.0223
L71.3316 38.0828
" />
<path d="M71.3316 38.0828
L70.8478 38.0828
" />
<path d="M72.0574 38.6271
L72.2388 38.6875
" />
<path d="M72.2388 38.6875
L72.5412 38.6875
" />
<path d="M72.5412 38.6875
L72.6621 38.6271
" />
<path d="M72.6621 38.6271
L72.7226 38.5666
" />
<path d="M72.7226 38.5666
L72.7831 38.4456
" />
<path d="M72.7831 38.4456
L72.7831 38.3247
" />
<path d="M72.7831 38.3247
L72.7226 38.2037
" />
<path d="M72.7226 38.2037
L72.6621 38.1432
" />
<path d="M72.6621 38.1432
L72.5412 38.0828
" />
<path d="M72.5412 38.0828
L72.2993 38.0223
" />
<path d="M72.2993 38.0223
L72.1783 37.9618
" />
<path d="M72.1783 37.9618
L72.1178 37.9013
" />
<path d="M72.1178 37.9013
L72.0574 37.7804
" />
<path d="M72.0574 37.7804
L72.0574 37.6594
" />
<path d="M72.0574 37.6594
L72.1178 37.5385
" />
<path d="M72.1178 37.5385
L72.1783 37.4780
" />
<path d="M72.1783 37.4780
L72.2993 37.4175
" />
<path d="M72.2993 37.4175
L72.6016 37.4175
" />
<path d="M72.6016 37.4175
L72.7831 37.4780
" />
<path d="M73.9926 38.6875
L73.2669 38.6875
" />
<path d="M73.6297 38.6875
L73.6297 37.4175
" />
<path d="M73.6297 37.4175
L73.5088 37.5990
" />
<path d="M73.5088 37.5990
L73.3878 37.7199
" />
<path d="M73.3878 37.7199
L73.2669 37.7804
" />
</g><text x="72.3900" y="41.2750"
textLength="19.7212" font-size="1.6933" lengthAdjust="spacingAndGlyphs"
text-anchor="middle" opacity="0">PDQE15-Q24-S5-D</text>
<g class="stroked-text"><desc>PDQE15-Q24-S5-D</desc>
<path d="M62.8952 41.2275
L62.8952 39.9575
" />
<path d="M62.8952 39.9575
L63.3790 39.9575
" />
<path d="M63.3790 39.9575
L63.5000 40.0180
" />
<path d="M63.5000 40.0180
L63.5605 40.0785
" />
<path d="M63.5605 40.0785
L63.6209 40.1994
" />
<path d="M63.6209 40.1994
L63.6209 40.3809
" />
<path d="M63.6209 40.3809
L63.5605 40.5018
" />
<path d="M63.5605 40.5018
L63.5000 40.5623
" />
<path d="M63.5000 40.5623
L63.3790 40.6228
" />
<path d="M63.3790 40.6228
L62.8952 40.6228
" />
<path d="M64.1652 41.2275
L64.1652 39.9575
" />
<path d="M64.1652 39.9575
L64.4676 39.9575
" />
<path d="M64.4676 39.9575
L64.6490 40.0180
" />
<path d="M64.6490 40.0180
L64.7700 40.1390
" />
<path d="M64.7700 40.1390
L64.8305 40.2599
" />
<path d="M64.8305 40.2599
L64.8909 40.5018
" />
<path d="M64.8909 40.5018
L64.8909 40.6832
" />
<path d="M64.8909 40.6832
L64.8305 40.9251
" />
<path d="M64.8305 40.9251
L64.7700 41.0461
" />
<path d="M64.7700 41.0461
L64.6490 41.1671
" />
<path d="M64.6490 41.1671
L64.4676 41.2275
" />
<path d="M64.4676 41.2275
L64.1652 41.2275
" />
<path d="M66.2819 41.3485
L66.1609 41.2880
" />
<path d="M66.1609 41.2880
L66.0400 41.1671
" />
<path d="M66.0400 41.1671
L65.8586 40.9856
" />
<path d="M65.8586 40.9856
L65.7376 40.9251
" />
<path d="M65.7376 40.9251
L65.6167 40.9251
" />
<path d="M65.6771 41.2275
L65.5562 41.1671
" />
<path d="M65.5562 41.1671
L65.4352 41.0461
" />
<path d="M65.4352 41.0461
L65.3748 40.8042
" />
<path d="M65.3748 40.8042
L65.3748 40.3809
" />
<path d="M65.3748 40.3809
L65.4352 40.1390
" />
<path d="M65.4352 40.1390
L65.5562 40.0180
" />
<path d="M65.5562 40.0180
L65.6771 39.9575
" />
<path d="M65.6771 39.9575
L65.9190 39.9575
" />
<path d="M65.9190 39.9575
L66.0400 40.0180
" />
<path d="M66.0400 40.0180
L66.1609 40.1390
" />
<path d="M66.1609 40.1390
L66.2214 40.3809
" />
<path d="M66.2214 40.3809
L66.2214 40.8042
" />
<path d="M66.2214 40.8042
L66.1609 41.0461
" />
<path d="M66.1609 41.0461
L66.0400 41.1671
" />
<path d="M66.0400 41.1671
L65.9190 41.2275
" />
<path d="M65.9190 41.2275
L65.6771 41.2275
" />
<path d="M66.7657 40.5623
L67.1891 40.5623
" />
<path d="M67.3705 41.2275
L66.7657 41.2275
" />
<path d="M66.7657 41.2275
L66.7657 39.9575
" />
<path d="M66.7657 39.9575
L67.3705 39.9575
" />
<path d="M68.5800 41.2275
L67.8543 41.2275
" />
<path d="M68.2171 41.2275
L68.2171 39.9575
" />
<path d="M68.2171 39.9575
L68.0962 40.1390
" />
<path d="M68.0962 40.1390
L67.9752 40.2599
" />
<path d="M67.9752 40.2599
L67.8543 40.3204
" />
<path d="M69.7290 39.9575
L69.1242 39.9575
" />
<path d="M69.1242 39.9575
L69.0638 40.5623
" />
<path d="M69.0638 40.5623
L69.1242 40.5018
" />
<path d="M69.1242 40.5018
L69.2452 40.4413
" />
<path d="M69.2452 40.4413
L69.5476 40.4413
" />
<path d="M69.5476 40.4413
L69.6685 40.5018
" />
<path d="M69.6685 40.5018
L69.7290 40.5623
" />
<path d="M69.7290 40.5623
L69.7895 40.6832
" />
<path d="M69.7895 40.6832
L69.7895 40.9856
" />
<path d="M69.7895 40.9856
L69.7290 41.1066
" />
<path d="M69.7290 41.1066
L69.6685 41.1671
" />
<path d="M69.6685 41.1671
L69.5476 41.2275
" />
<path d="M69.5476 41.2275
L69.2452 41.2275
" />
<path d="M69.2452 41.2275
L69.1242 41.1671
" />
<path d="M69.1242 41.1671
L69.0638 41.1066
" />
<path d="M70.3337 40.7437
L71.3014 40.7437
" />
<path d="M72.7528 41.3485
L72.6318 41.2880
" />
<path d="M72.6318 41.2880
L72.5109 41.1671
" />
<path d="M72.5109 41.1671
L72.3295 40.9856
" />
<path d="M72.3295 40.9856
L72.2085 40.9251
" />
<path d="M72.2085 40.9251
L72.0876 40.9251
" />
<path d="M72.1480 41.2275
L72.0271 41.1671
" />
<path d="M72.0271 41.1671
L71.9061 41.0461
" />
<path d="M71.9061 41.0461
L71.8457 40.8042
" />
<path d="M71.8457 40.8042
L71.8457 40.3809
" />
<path d="M71.8457 40.3809
L71.9061 40.1390
" />
<path d="M71.9061 40.1390
L72.0271 40.0180
" />
<path d="M72.0271 40.0180
L72.1480 39.9575
" />
<path d="M72.1480 39.9575
L72.3899 39.9575
" />
<path d="M72.3899 39.9575
L72.5109 40.0180
" />
<path d="M72.5109 40.0180
L72.6318 40.1390
" />
<path d="M72.6318 40.1390
L72.6923 40.3809
" />
<path d="M72.6923 40.3809
L72.6923 40.8042
" />
<path d="M72.6923 40.8042
L72.6318 41.0461
" />
<path d="M72.6318 41.0461
L72.5109 41.1671
" />
<path d="M72.5109 41.1671
L72.3899 41.2275
" />
<path d="M72.3899 41.2275
L72.1480 41.2275
" />
<path d="M73.1762 40.0785
L73.2366 40.0180
" />
<path d="M73.2366 40.0180
L73.3576 39.9575
" />
<path d="M73.3576 39.9575
L73.6600 39.9575
" />
<path d="M73.6600 39.9575
L73.7809 40.0180
" />
<path d="M73.7809 40.0180
L73.8414 40.0785
" />
<path d="M73.8414 40.0785
L73.9019 40.1994
" />
<path d="M73.9019 40.1994
L73.9019 40.3204
" />
<path d="M73.9019 40.3204
L73.8414 40.5018
" />
<path d="M73.8414 40.5018
L73.1157 41.2275
" />
<path d="M73.1157 41.2275
L73.9019 41.2275
" />
<path d="M74.9904 40.3809
L74.9904 41.2275
" />
<path d="M74.6880 39.8971
L74.3857 40.8042
" />
<path d="M74.3857 40.8042
L75.1718 40.8042
" />
<path d="M75.6556 40.7437
L76.6233 40.7437
" />
<path d="M77.1676 41.1671
L77.3490 41.2275
" />
<path d="M77.3490 41.2275
L77.6514 41.2275
" />
<path d="M77.6514 41.2275
L77.7723 41.1671
" />
<path d="M77.7723 41.1671
L77.8328 41.1066
" />
<path d="M77.8328 41.1066
L77.8933 40.9856
" />
<path d="M77.8933 40.9856
L77.8933 40.8647
" />
<path d="M77.8933 40.8647
L77.8328 40.7437
" />
<path d="M77.8328 40.7437
L77.7723 40.6832
" />
<path d="M77.7723 40.6832
L77.6514 40.6228
" />
<path d="M77.6514 40.6228
L77.4095 40.5623
" />
<path d="M77.4095 40.5623
L77.2885 40.5018
" />
<path d="M77.2885 40.5018
L77.2280 40.4413
" />
<path d="M77.2280 40.4413
L77.1676 40.3204
" />
<path d="M77.1676 40.3204
L77.1676 40.1994
" />
<path d="M77.1676 40.1994
L77.2280 40.0785
" />
<path d="M77.2280 40.0785
L77.2885 40.0180
" />
<path d="M77.2885 40.0180
L77.4095 39.9575
" />
<path d="M77.4095 39.9575
L77.7118 39.9575
" />
<path d="M77.7118 39.9575
L77.8933 40.0180
" />
<path d="M79.0423 39.9575
L78.4375 39.9575
" />
<path d="M78.4375 39.9575
L78.3771 40.5623
" />
<path d="M78.3771 40.5623
L78.4375 40.5018
" />
<path d="M78.4375 40.5018
L78.5585 40.4413
" />
<path d="M78.5585 40.4413
L78.8609 40.4413
" />
<path d="M78.8609 40.4413
L78.9818 40.5018
" />
<path d="M78.9818 40.5018
L79.0423 40.5623
" />
<path d="M79.0423 40.5623
L79.1028 40.6832
" />
<path d="M79.1028 40.6832
L79.1028 40.9856
" />
<path d="M79.1028 40.9856
L79.0423 41.1066
" />
<path d="M79.0423 41.1066
L78.9818 41.1671
" />
<path d="M78.9818 41.1671
L78.8609 41.2275
" />
<path d="M78.8609 41.2275
L78.5585 41.2275
" />
<path d="M78.5585 41.2275
L78.4375 41.1671
" />
<path d="M78.4375 41.1671
L78.3771 41.1066
" />
<path d="M79.6470 40.7437
L80.6147 40.7437
" />
<path d="M81.2194 41.2275
L81.2194 39.9575
" />
<path d="M81.2194 39.9575
L81.5218 39.9575
" />
<path d="M81.5218 39.9575
L81.7032 40.0180
" />
<path d="M81.7032 40.0180
L81.8242 40.1390
" />
<path d="M81.8242 40.1390
L81.8847 40.2599
" />
<path d="M81.8847 40.2599
L81.9451 40.5018
" />
<path d="M81.9451 40.5018
L81.9451 40.6832
" />
<path d="M81.9451 40.6832
L81.8847 40.9251
" />
<path d="M81.8847 40.9251
L81.8242 41.0461
" />
<path d="M81.8242 41.0461
L81.7032 41.1671
" />
<path d="M81.7032 41.1671
L81.5218 41.2275
" />
<path d="M81.5218 41.2275
L81.2194 41.2275
" />
</g></g>
</g> 
</svg>
