  0
SECTION
  2
HEADER
  9
$ANGBASE
  50
0.0
  9
$ANGDIR
  70
1
  9
$MEASUREMENT
  70
0
  0
ENDSEC
  0
SECTION
  2
TABLES
  0
TABLE
  2
LTYPE
  70
4
  0
LTYPE
  5
40F
  2
CONTINUOUS
  70
0
  3
Solid line
  72
65
  73
0
  40
0.0
  0
LTYPE
  5
410
  2
DASHDOT
 70
0
  3
Dash Dot ____ _ ____ _
 72
65
 73
4
 40
2.0
 49
1.25
 49
-0.25
 49
0.25
 49
-0.25
  0
LTYPE
  5
411
  2
DASHED
 70
0
  3
Dashed __ __ __ __ __
 72
65
 73
2
 40
0.75
 49
0.5
 49
-0.25
  0
LTYPE
  5
43B
  2
DOTTED
 70
0
  3
Dotted .  .  .  .
 72
65
 73
2
 40
0.2
 49
0.0
 49
-0.2
  0
ENDTAB
  0
TABLE
  2
STYLE
  70
4
  0
STYLE
  2
KICAD
  70
0
  40
0
  41
1
  42
1
  50
0
  71
0
  3
isocp.shx
  0
STYLE
  2
KICADB
  70
0
  40
0
  41
1
  42
1
  50
0
  71
0
  3
isocp.shx
  0
STYLE
  2
KICADI
  70
0
  40
0
  41
1
  42
1
  50
15
  71
0
  3
isocp.shx
  0
STYLE
  2
KICADBI
  70
0
  40
0
  41
1
  42
1
  50
15
  71
0
  3
isocp.shx
  0
ENDTAB
  0
TABLE
  2
LAYER
  70
35
  0
LAYER
  2
BLACK
  70
0
  62
7
  6
CONTINUOUS
  0
LAYER
  2
GRAY1
  70
0
  62
251
  6
CONTINUOUS
  0
LAYER
  2
GRAY2
  70
0
  62
8
  6
CONTINUOUS
  0
LAYER
  2
GRAY3
  70
0
  62
9
  6
CONTINUOUS
  0
LAYER
  2
WHITE
  70
0
  62
7
  6
CONTINUOUS
  0
LAYER
  2
LYELLOW
  70
0
  62
51
  6
CONTINUOUS
  0
LAYER
  2
LORANGE
  70
0
  62
41
  6
CONTINUOUS
  0
LAYER
  2
BLUE1
  70
0
  62
178
  6
CONTINUOUS
  0
LAYER
  2
GREEN1
  70
0
  62
98
  6
CONTINUOUS
  0
LAYER
  2
CYAN1
  70
0
  62
138
  6
CONTINUOUS
  0
LAYER
  2
RED1
  70
0
  62
18
  6
CONTINUOUS
  0
LAYER
  2
MAGENTA1
  70
0
  62
228
  6
CONTINUOUS
  0
LAYER
  2
BROWN1
  70
0
  62
58
  6
CONTINUOUS
  0
LAYER
  2
ORANGE1
  70
0
  62
34
  6
CONTINUOUS
  0
LAYER
  2
BLUE2
  70
0
  62
5
  6
CONTINUOUS
  0
LAYER
  2
GREEN2
  70
0
  62
3
  6
CONTINUOUS
  0
LAYER
  2
CYAN2
  70
0
  62
4
  6
CONTINUOUS
  0
LAYER
  2
RED2
  70
0
  62
1
  6
CONTINUOUS
  0
LAYER
  2
MAGENTA2
  70
0
  62
6
  6
CONTINUOUS
  0
LAYER
  2
BROWN2
  70
0
  62
54
  6
CONTINUOUS
  0
LAYER
  2
ORANGE2
  70
0
  62
42
  6
CONTINUOUS
  0
LAYER
  2
BLUE3
  70
0
  62
171
  6
CONTINUOUS
  0
LAYER
  2
GREEN3
  70
0
  62
91
  6
CONTINUOUS
  0
LAYER
  2
CYAN3
  70
0
  62
131
  6
CONTINUOUS
  0
LAYER
  2
RED3
  70
0
  62
11
  6
CONTINUOUS
  0
LAYER
  2
MAGENTA3
  70
0
  62
221
  6
CONTINUOUS
  0
LAYER
  2
YELLOW3
  70
0
  62
2
  6
CONTINUOUS
  0
LAYER
  2
ORANGE3
  70
0
  62
32
  6
CONTINUOUS
  0
LAYER
  2
BLUE4
  70
0
  62
5
  6
CONTINUOUS
  0
LAYER
  2
GREEN4
  70
0
  62
3
  6
CONTINUOUS
  0
LAYER
  2
CYAN4
  70
0
  62
4
  6
CONTINUOUS
  0
LAYER
  2
RED4
  70
0
  62
1
  6
CONTINUOUS
  0
LAYER
  2
MAGENTA4
  70
0
  62
6
  6
CONTINUOUS
  0
LAYER
  2
YELLOW4
  70
0
  62
2
  6
CONTINUOUS
  0
LAYER
  2
ORANGE4
  70
0
  62
40
  6
CONTINUOUS
  0
ENDTAB
  0
ENDSEC
  0
SECTION
  2
ENTITIES
0
LINE
8
RED2
6
CONTINUOUS
10
6.96859
20
-6.53572
11
11.2206
21
-6.53572
0
LINE
8
RED2
6
CONTINUOUS
10
11.2206
20
-6.53572
11
11.2206
21
-7.79556
0
LINE
8
RED2
6
CONTINUOUS
10
11.2206
20
-7.79556
11
6.96859
21
-7.79556
0
LINE
8
RED2
6
CONTINUOUS
10
6.96859
20
-7.79556
11
6.96859
21
-6.53572
0
LINE
8
RED2
6
CONTINUOUS
10
0.393701
20
-0.393701
11
11.2993
21
-0.393701
0
LINE
8
RED2
6
CONTINUOUS
10
11.2993
20
-0.393701
11
11.2993
21
-7.8743
0
LINE
8
RED2
6
CONTINUOUS
10
11.2993
20
-7.8743
11
0.393701
21
-7.8743
0
LINE
8
RED2
6
CONTINUOUS
10
0.393701
20
-7.8743
11
0.393701
21
-0.393701
0
LINE
8
RED2
6
CONTINUOUS
10
0.472441
20
-0.472441
11
11.2206
21
-0.472441
0
LINE
8
RED2
6
CONTINUOUS
10
11.2206
20
-0.472441
11
11.2206
21
-7.79556
0
LINE
8
RED2
6
CONTINUOUS
10
11.2206
20
-7.79556
11
0.472441
21
-7.79556
0
LINE
8
RED2
6
CONTINUOUS
10
0.472441
20
-7.79556
11
0.472441
21
-0.472441
0
LINE
8
RED2
6
CONTINUOUS
10
2.3622
20
-0.472441
11
2.3622
21
-0.393701
0
LINE
8
RED2
6
CONTINUOUS
10
4.33071
20
-0.472441
11
4.33071
21
-0.393701
0
LINE
8
RED2
6
CONTINUOUS
10
6.29921
20
-0.472441
11
6.29921
21
-0.393701
0
LINE
8
RED2
6
CONTINUOUS
10
8.26772
20
-0.472441
11
8.26772
21
-0.393701
0
LINE
8
RED2
6
CONTINUOUS
10
10.2362
20
-0.472441
11
10.2362
21
-0.393701
0
LINE
8
RED2
6
CONTINUOUS
10
1.41694
20
-0.456752
11
1.3877
21
-0.456752
0
LINE
8
RED2
6
CONTINUOUS
10
1.40232
20
-0.456752
11
1.40232
21
-0.405571
0
LINE
8
RED2
6
CONTINUOUS
10
1.40232
20
-0.405571
11
1.39745
21
-0.412882
0
LINE
8
RED2
6
CONTINUOUS
10
1.39745
20
-0.412882
11
1.39257
21
-0.417756
0
LINE
8
RED2
6
CONTINUOUS
10
1.39257
20
-0.417756
11
1.3877
21
-0.420193
0
LINE
8
RED2
6
CONTINUOUS
10
3.3562
20
-0.410445
11
3.35864
21
-0.408008
0
LINE
8
RED2
6
CONTINUOUS
10
3.35864
20
-0.408008
11
3.36352
21
-0.405571
0
LINE
8
RED2
6
CONTINUOUS
10
3.36352
20
-0.405571
11
3.3757
21
-0.405571
0
LINE
8
RED2
6
CONTINUOUS
10
3.3757
20
-0.405571
11
3.38057
21
-0.408008
0
LINE
8
RED2
6
CONTINUOUS
10
3.38057
20
-0.408008
11
3.38301
21
-0.410445
0
LINE
8
RED2
6
CONTINUOUS
10
3.38301
20
-0.410445
11
3.38545
21
-0.415319
0
LINE
8
RED2
6
CONTINUOUS
10
3.38545
20
-0.415319
11
3.38545
21
-0.420193
0
LINE
8
RED2
6
CONTINUOUS
10
3.38545
20
-0.420193
11
3.38301
21
-0.427504
0
LINE
8
RED2
6
CONTINUOUS
10
3.38301
20
-0.427504
11
3.35377
21
-0.456752
0
LINE
8
RED2
6
CONTINUOUS
10
3.35377
20
-0.456752
11
3.38545
21
-0.456752
0
LINE
8
RED2
6
CONTINUOUS
10
5.32227
20
-0.405571
11
5.35395
21
-0.405571
0
LINE
8
RED2
6
CONTINUOUS
10
5.35395
20
-0.405571
11
5.33689
21
-0.425067
0
LINE
8
RED2
6
CONTINUOUS
10
5.33689
20
-0.425067
11
5.3442
21
-0.425067
0
LINE
8
RED2
6
CONTINUOUS
10
5.3442
20
-0.425067
11
5.34908
21
-0.427504
0
LINE
8
RED2
6
CONTINUOUS
10
5.34908
20
-0.427504
11
5.35152
21
-0.429941
0
LINE
8
RED2
6
CONTINUOUS
10
5.35152
20
-0.429941
11
5.35395
21
-0.434815
0
LINE
8
RED2
6
CONTINUOUS
10
5.35395
20
-0.434815
11
5.35395
21
-0.447
0
LINE
8
RED2
6
CONTINUOUS
10
5.35395
20
-0.447
11
5.35152
21
-0.451874
0
LINE
8
RED2
6
CONTINUOUS
10
5.35152
20
-0.451874
11
5.34908
21
-0.454315
0
LINE
8
RED2
6
CONTINUOUS
10
5.34908
20
-0.454315
11
5.3442
21
-0.456752
0
LINE
8
RED2
6
CONTINUOUS
10
5.3442
20
-0.456752
11
5.32958
21
-0.456752
0
LINE
8
RED2
6
CONTINUOUS
10
5.32958
20
-0.456752
11
5.32471
21
-0.454315
0
LINE
8
RED2
6
CONTINUOUS
10
5.32471
20
-0.454315
11
5.32227
21
-0.451874
0
LINE
8
RED2
6
CONTINUOUS
10
7.31758
20
-0.42263
11
7.31758
21
-0.456752
0
LINE
8
RED2
6
CONTINUOUS
10
7.3054
20
-0.403134
11
7.29321
21
-0.439689
0
LINE
8
RED2
6
CONTINUOUS
10
7.29321
20
-0.439689
11
7.32489
21
-0.439689
0
LINE
8
RED2
6
CONTINUOUS
10
9.28852
20
-0.405571
11
9.26415
21
-0.405571
0
LINE
8
RED2
6
CONTINUOUS
10
9.26415
20
-0.405571
11
9.26172
21
-0.429941
0
LINE
8
RED2
6
CONTINUOUS
10
9.26172
20
-0.429941
11
9.26415
21
-0.427504
0
LINE
8
RED2
6
CONTINUOUS
10
9.26415
20
-0.427504
11
9.26903
21
-0.425067
0
LINE
8
RED2
6
CONTINUOUS
10
9.26903
20
-0.425067
11
9.28121
21
-0.425067
0
LINE
8
RED2
6
CONTINUOUS
10
9.28121
20
-0.425067
11
9.28609
21
-0.427504
0
LINE
8
RED2
6
CONTINUOUS
10
9.28609
20
-0.427504
11
9.28852
21
-0.429941
0
LINE
8
RED2
6
CONTINUOUS
10
9.28852
20
-0.429941
11
9.29096
21
-0.434815
0
LINE
8
RED2
6
CONTINUOUS
10
9.29096
20
-0.434815
11
9.29096
21
-0.447
0
LINE
8
RED2
6
CONTINUOUS
10
9.29096
20
-0.447
11
9.28852
21
-0.451874
0
LINE
8
RED2
6
CONTINUOUS
10
9.28852
20
-0.451874
11
9.28609
21
-0.454315
0
LINE
8
RED2
6
CONTINUOUS
10
9.28609
20
-0.454315
11
9.28121
21
-0.456752
0
LINE
8
RED2
6
CONTINUOUS
10
9.28121
20
-0.456752
11
9.26903
21
-0.456752
0
LINE
8
RED2
6
CONTINUOUS
10
9.26903
20
-0.456752
11
9.26415
21
-0.454315
0
LINE
8
RED2
6
CONTINUOUS
10
9.26415
20
-0.454315
11
9.26172
21
-0.451874
0
LINE
8
RED2
6
CONTINUOUS
10
11.2546
20
-0.405571
11
11.2448
21
-0.405571
0
LINE
8
RED2
6
CONTINUOUS
10
11.2448
20
-0.405571
11
11.24
21
-0.408008
0
LINE
8
RED2
6
CONTINUOUS
10
11.24
20
-0.408008
11
11.2375
21
-0.410445
0
LINE
8
RED2
6
CONTINUOUS
10
11.2375
20
-0.410445
11
11.2327
21
-0.417756
0
LINE
8
RED2
6
CONTINUOUS
10
11.2327
20
-0.417756
11
11.2302
21
-0.427504
0
LINE
8
RED2
6
CONTINUOUS
10
11.2302
20
-0.427504
11
11.2302
21
-0.447
0
LINE
8
RED2
6
CONTINUOUS
10
11.2302
20
-0.447
11
11.2327
21
-0.451874
0
LINE
8
RED2
6
CONTINUOUS
10
11.2327
20
-0.451874
11
11.2351
21
-0.454315
0
LINE
8
RED2
6
CONTINUOUS
10
11.2351
20
-0.454315
11
11.24
21
-0.456752
0
LINE
8
RED2
6
CONTINUOUS
10
11.24
20
-0.456752
11
11.2497
21
-0.456752
0
LINE
8
RED2
6
CONTINUOUS
10
11.2497
20
-0.456752
11
11.2546
21
-0.454315
0
LINE
8
RED2
6
CONTINUOUS
10
11.2546
20
-0.454315
11
11.257
21
-0.451874
0
LINE
8
RED2
6
CONTINUOUS
10
11.257
20
-0.451874
11
11.2595
21
-0.447
0
LINE
8
RED2
6
CONTINUOUS
10
11.2595
20
-0.447
11
11.2595
21
-0.434815
0
LINE
8
RED2
6
CONTINUOUS
10
11.2595
20
-0.434815
11
11.257
21
-0.429941
0
LINE
8
RED2
6
CONTINUOUS
10
11.257
20
-0.429941
11
11.2546
21
-0.427504
0
LINE
8
RED2
6
CONTINUOUS
10
11.2546
20
-0.427504
11
11.2497
21
-0.425067
0
LINE
8
RED2
6
CONTINUOUS
10
11.2497
20
-0.425067
11
11.24
21
-0.425067
0
LINE
8
RED2
6
CONTINUOUS
10
11.24
20
-0.425067
11
11.2351
21
-0.427504
0
LINE
8
RED2
6
CONTINUOUS
10
11.2351
20
-0.427504
11
11.2327
21
-0.429941
0
LINE
8
RED2
6
CONTINUOUS
10
11.2327
20
-0.429941
11
11.2302
21
-0.434815
0
LINE
8
RED2
6
CONTINUOUS
10
2.3622
20
-7.79556
11
2.3622
21
-7.8743
0
LINE
8
RED2
6
CONTINUOUS
10
4.33071
20
-7.79556
11
4.33071
21
-7.8743
0
LINE
8
RED2
6
CONTINUOUS
10
6.29921
20
-7.79556
11
6.29921
21
-7.8743
0
LINE
8
RED2
6
CONTINUOUS
10
8.26772
20
-7.79556
11
8.26772
21
-7.8743
0
LINE
8
RED2
6
CONTINUOUS
10
10.2362
20
-7.79556
11
10.2362
21
-7.8743
0
LINE
8
RED2
6
CONTINUOUS
10
1.41694
20
-7.85861
11
1.3877
21
-7.85861
0
LINE
8
RED2
6
CONTINUOUS
10
1.40232
20
-7.85861
11
1.40232
21
-7.80743
0
LINE
8
RED2
6
CONTINUOUS
10
1.40232
20
-7.80743
11
1.39745
21
-7.81474
0
LINE
8
RED2
6
CONTINUOUS
10
1.39745
20
-7.81474
11
1.39257
21
-7.81961
0
LINE
8
RED2
6
CONTINUOUS
10
1.39257
20
-7.81961
11
1.3877
21
-7.82205
0
LINE
8
RED2
6
CONTINUOUS
10
3.3562
20
-7.8123
11
3.35864
21
-7.80987
0
LINE
8
RED2
6
CONTINUOUS
10
3.35864
20
-7.80987
11
3.36352
21
-7.80743
0
LINE
8
RED2
6
CONTINUOUS
10
3.36352
20
-7.80743
11
3.3757
21
-7.80743
0
LINE
8
RED2
6
CONTINUOUS
10
3.3757
20
-7.80743
11
3.38057
21
-7.80987
0
LINE
8
RED2
6
CONTINUOUS
10
3.38057
20
-7.80987
11
3.38301
21
-7.8123
0
LINE
8
RED2
6
CONTINUOUS
10
3.38301
20
-7.8123
11
3.38545
21
-7.81718
0
LINE
8
RED2
6
CONTINUOUS
10
3.38545
20
-7.81718
11
3.38545
21
-7.82205
0
LINE
8
RED2
6
CONTINUOUS
10
3.38545
20
-7.82205
11
3.38301
21
-7.82936
0
LINE
8
RED2
6
CONTINUOUS
10
3.38301
20
-7.82936
11
3.35377
21
-7.85861
0
LINE
8
RED2
6
CONTINUOUS
10
3.35377
20
-7.85861
11
3.38545
21
-7.85861
0
LINE
8
RED2
6
CONTINUOUS
10
5.32227
20
-7.80743
11
5.35395
21
-7.80743
0
LINE
8
RED2
6
CONTINUOUS
10
5.35395
20
-7.80743
11
5.33689
21
-7.82693
0
LINE
8
RED2
6
CONTINUOUS
10
5.33689
20
-7.82693
11
5.3442
21
-7.82693
0
LINE
8
RED2
6
CONTINUOUS
10
5.3442
20
-7.82693
11
5.34908
21
-7.82936
0
LINE
8
RED2
6
CONTINUOUS
10
5.34908
20
-7.82936
11
5.35152
21
-7.8318
0
LINE
8
RED2
6
CONTINUOUS
10
5.35152
20
-7.8318
11
5.35395
21
-7.83667
0
LINE
8
RED2
6
CONTINUOUS
10
5.35395
20
-7.83667
11
5.35395
21
-7.84886
0
LINE
8
RED2
6
CONTINUOUS
10
5.35395
20
-7.84886
11
5.35152
21
-7.85373
0
LINE
8
RED2
6
CONTINUOUS
10
5.35152
20
-7.85373
11
5.34908
21
-7.85617
0
LINE
8
RED2
6
CONTINUOUS
10
5.34908
20
-7.85617
11
5.3442
21
-7.85861
0
LINE
8
RED2
6
CONTINUOUS
10
5.3442
20
-7.85861
11
5.32958
21
-7.85861
0
LINE
8
RED2
6
CONTINUOUS
10
5.32958
20
-7.85861
11
5.32471
21
-7.85617
0
LINE
8
RED2
6
CONTINUOUS
10
5.32471
20
-7.85617
11
5.32227
21
-7.85373
0
LINE
8
RED2
6
CONTINUOUS
10
7.31758
20
-7.82449
11
7.31758
21
-7.85861
0
LINE
8
RED2
6
CONTINUOUS
10
7.3054
20
-7.80499
11
7.29321
21
-7.84155
0
LINE
8
RED2
6
CONTINUOUS
10
7.29321
20
-7.84155
11
7.32489
21
-7.84155
0
LINE
8
RED2
6
CONTINUOUS
10
9.28852
20
-7.80743
11
9.26415
21
-7.80743
0
LINE
8
RED2
6
CONTINUOUS
10
9.26415
20
-7.80743
11
9.26172
21
-7.8318
0
LINE
8
RED2
6
CONTINUOUS
10
9.26172
20
-7.8318
11
9.26415
21
-7.82936
0
LINE
8
RED2
6
CONTINUOUS
10
9.26415
20
-7.82936
11
9.26903
21
-7.82693
0
LINE
8
RED2
6
CONTINUOUS
10
9.26903
20
-7.82693
11
9.28121
21
-7.82693
0
LINE
8
RED2
6
CONTINUOUS
10
9.28121
20
-7.82693
11
9.28609
21
-7.82936
0
LINE
8
RED2
6
CONTINUOUS
10
9.28609
20
-7.82936
11
9.28852
21
-7.8318
0
LINE
8
RED2
6
CONTINUOUS
10
9.28852
20
-7.8318
11
9.29096
21
-7.83667
0
LINE
8
RED2
6
CONTINUOUS
10
9.29096
20
-7.83667
11
9.29096
21
-7.84886
0
LINE
8
RED2
6
CONTINUOUS
10
9.29096
20
-7.84886
11
9.28852
21
-7.85373
0
LINE
8
RED2
6
CONTINUOUS
10
9.28852
20
-7.85373
11
9.28609
21
-7.85617
0
LINE
8
RED2
6
CONTINUOUS
10
9.28609
20
-7.85617
11
9.28121
21
-7.85861
0
LINE
8
RED2
6
CONTINUOUS
10
9.28121
20
-7.85861
11
9.26903
21
-7.85861
0
LINE
8
RED2
6
CONTINUOUS
10
9.26903
20
-7.85861
11
9.26415
21
-7.85617
0
LINE
8
RED2
6
CONTINUOUS
10
9.26415
20
-7.85617
11
9.26172
21
-7.85373
0
LINE
8
RED2
6
CONTINUOUS
10
11.2546
20
-7.80743
11
11.2448
21
-7.80743
0
LINE
8
RED2
6
CONTINUOUS
10
11.2448
20
-7.80743
11
11.24
21
-7.80987
0
LINE
8
RED2
6
CONTINUOUS
10
11.24
20
-7.80987
11
11.2375
21
-7.8123
0
LINE
8
RED2
6
CONTINUOUS
10
11.2375
20
-7.8123
11
11.2327
21
-7.81961
0
LINE
8
RED2
6
CONTINUOUS
10
11.2327
20
-7.81961
11
11.2302
21
-7.82936
0
LINE
8
RED2
6
CONTINUOUS
10
11.2302
20
-7.82936
11
11.2302
21
-7.84886
0
LINE
8
RED2
6
CONTINUOUS
10
11.2302
20
-7.84886
11
11.2327
21
-7.85373
0
LINE
8
RED2
6
CONTINUOUS
10
11.2327
20
-7.85373
11
11.2351
21
-7.85617
0
LINE
8
RED2
6
CONTINUOUS
10
11.2351
20
-7.85617
11
11.24
21
-7.85861
0
LINE
8
RED2
6
CONTINUOUS
10
11.24
20
-7.85861
11
11.2497
21
-7.85861
0
LINE
8
RED2
6
CONTINUOUS
10
11.2497
20
-7.85861
11
11.2546
21
-7.85617
0
LINE
8
RED2
6
CONTINUOUS
10
11.2546
20
-7.85617
11
11.257
21
-7.85373
0
LINE
8
RED2
6
CONTINUOUS
10
11.257
20
-7.85373
11
11.2595
21
-7.84886
0
LINE
8
RED2
6
CONTINUOUS
10
11.2595
20
-7.84886
11
11.2595
21
-7.83667
0
LINE
8
RED2
6
CONTINUOUS
10
11.2595
20
-7.83667
11
11.257
21
-7.8318
0
LINE
8
RED2
6
CONTINUOUS
10
11.257
20
-7.8318
11
11.2546
21
-7.82936
0
LINE
8
RED2
6
CONTINUOUS
10
11.2546
20
-7.82936
11
11.2497
21
-7.82693
0
LINE
8
RED2
6
CONTINUOUS
10
11.2497
20
-7.82693
11
11.24
21
-7.82693
0
LINE
8
RED2
6
CONTINUOUS
10
11.24
20
-7.82693
11
11.2351
21
-7.82936
0
LINE
8
RED2
6
CONTINUOUS
10
11.2351
20
-7.82936
11
11.2327
21
-7.8318
0
LINE
8
RED2
6
CONTINUOUS
10
11.2327
20
-7.8318
11
11.2302
21
-7.83667
0
LINE
8
RED2
6
CONTINUOUS
10
0.393701
20
-2.3622
11
0.472441
21
-2.3622
0
LINE
8
RED2
6
CONTINUOUS
10
0.393701
20
-4.33071
11
0.472441
21
-4.33071
0
LINE
8
RED2
6
CONTINUOUS
10
0.393701
20
-6.29921
11
0.472441
21
-6.29921
0
LINE
8
RED2
6
CONTINUOUS
10
0.420886
20
-1.38701
11
0.445256
21
-1.38701
0
LINE
8
RED2
6
CONTINUOUS
10
0.416012
20
-1.40163
11
0.433071
21
-1.35045
0
LINE
8
RED2
6
CONTINUOUS
10
0.433071
20
-1.35045
11
0.45013
21
-1.40163
0
LINE
8
RED2
6
CONTINUOUS
10
0.436724
20
-3.34333
11
0.444035
21
-3.34576
0
LINE
8
RED2
6
CONTINUOUS
10
0.444035
20
-3.34576
11
0.446472
21
-3.3482
0
LINE
8
RED2
6
CONTINUOUS
10
0.446472
20
-3.3482
11
0.448909
21
-3.35307
0
LINE
8
RED2
6
CONTINUOUS
10
0.448909
20
-3.35307
11
0.448909
21
-3.36039
0
LINE
8
RED2
6
CONTINUOUS
10
0.448909
20
-3.36039
11
0.446472
21
-3.36526
0
LINE
8
RED2
6
CONTINUOUS
10
0.446472
20
-3.36526
11
0.444035
21
-3.3677
0
LINE
8
RED2
6
CONTINUOUS
10
0.444035
20
-3.3677
11
0.439161
21
-3.37014
0
LINE
8
RED2
6
CONTINUOUS
10
0.439161
20
-3.37014
11
0.419665
21
-3.37014
0
LINE
8
RED2
6
CONTINUOUS
10
0.419665
20
-3.37014
11
0.419665
21
-3.31896
0
LINE
8
RED2
6
CONTINUOUS
10
0.419665
20
-3.31896
11
0.436724
21
-3.31896
0
LINE
8
RED2
6
CONTINUOUS
10
0.436724
20
-3.31896
11
0.441598
21
-3.32139
0
LINE
8
RED2
6
CONTINUOUS
10
0.441598
20
-3.32139
11
0.444035
21
-3.32383
0
LINE
8
RED2
6
CONTINUOUS
10
0.444035
20
-3.32383
11
0.446472
21
-3.3287
0
LINE
8
RED2
6
CONTINUOUS
10
0.446472
20
-3.3287
11
0.446472
21
-3.33358
0
LINE
8
RED2
6
CONTINUOUS
10
0.446472
20
-3.33358
11
0.444035
21
-3.33845
0
LINE
8
RED2
6
CONTINUOUS
10
0.444035
20
-3.33845
11
0.441598
21
-3.34089
0
LINE
8
RED2
6
CONTINUOUS
10
0.441598
20
-3.34089
11
0.436724
21
-3.34333
0
LINE
8
RED2
6
CONTINUOUS
10
0.436724
20
-3.34333
11
0.419665
21
-3.34333
0
LINE
8
RED2
6
CONTINUOUS
10
0.448909
20
-5.33376
11
0.446472
21
-5.3362
0
LINE
8
RED2
6
CONTINUOUS
10
0.446472
20
-5.3362
11
0.439161
21
-5.33864
0
LINE
8
RED2
6
CONTINUOUS
10
0.439161
20
-5.33864
11
0.434287
21
-5.33864
0
LINE
8
RED2
6
CONTINUOUS
10
0.434287
20
-5.33864
11
0.426976
21
-5.3362
0
LINE
8
RED2
6
CONTINUOUS
10
0.426976
20
-5.3362
11
0.422102
21
-5.33133
0
LINE
8
RED2
6
CONTINUOUS
10
0.422102
20
-5.33133
11
0.419665
21
-5.32645
0
LINE
8
RED2
6
CONTINUOUS
10
0.419665
20
-5.32645
11
0.417228
21
-5.3167
0
LINE
8
RED2
6
CONTINUOUS
10
0.417228
20
-5.3167
11
0.417228
21
-5.30939
0
LINE
8
RED2
6
CONTINUOUS
10
0.417228
20
-5.30939
11
0.419665
21
-5.29965
0
LINE
8
RED2
6
CONTINUOUS
10
0.419665
20
-5.29965
11
0.422102
21
-5.29477
0
LINE
8
RED2
6
CONTINUOUS
10
0.422102
20
-5.29477
11
0.426976
21
-5.2899
0
LINE
8
RED2
6
CONTINUOUS
10
0.426976
20
-5.2899
11
0.434287
21
-5.28746
0
LINE
8
RED2
6
CONTINUOUS
10
0.434287
20
-5.28746
11
0.439161
21
-5.28746
0
LINE
8
RED2
6
CONTINUOUS
10
0.439161
20
-5.28746
11
0.446472
21
-5.2899
0
LINE
8
RED2
6
CONTINUOUS
10
0.446472
20
-5.2899
11
0.448909
21
-5.29233
0
LINE
8
RED2
6
CONTINUOUS
10
0.419665
20
-7.30715
11
0.419665
21
-7.25596
0
LINE
8
RED2
6
CONTINUOUS
10
0.419665
20
-7.25596
11
0.43185
21
-7.25596
0
LINE
8
RED2
6
CONTINUOUS
10
0.43185
20
-7.25596
11
0.439161
21
-7.2584
0
LINE
8
RED2
6
CONTINUOUS
10
0.439161
20
-7.2584
11
0.444035
21
-7.26328
0
LINE
8
RED2
6
CONTINUOUS
10
0.444035
20
-7.26328
11
0.446472
21
-7.26815
0
LINE
8
RED2
6
CONTINUOUS
10
0.446472
20
-7.26815
11
0.448909
21
-7.2779
0
LINE
8
RED2
6
CONTINUOUS
10
0.448909
20
-7.2779
11
0.448909
21
-7.28521
0
LINE
8
RED2
6
CONTINUOUS
10
0.448909
20
-7.28521
11
0.446472
21
-7.29496
0
LINE
8
RED2
6
CONTINUOUS
10
0.446472
20
-7.29496
11
0.444035
21
-7.29983
0
LINE
8
RED2
6
CONTINUOUS
10
0.444035
20
-7.29983
11
0.439161
21
-7.30471
0
LINE
8
RED2
6
CONTINUOUS
10
0.439161
20
-7.30471
11
0.43185
21
-7.30715
0
LINE
8
RED2
6
CONTINUOUS
10
0.43185
20
-7.30715
11
0.419665
21
-7.30715
0
LINE
8
RED2
6
CONTINUOUS
10
11.2993
20
-2.3622
11
11.2206
21
-2.3622
0
LINE
8
RED2
6
CONTINUOUS
10
11.2993
20
-4.33071
11
11.2206
21
-4.33071
0
LINE
8
RED2
6
CONTINUOUS
10
11.2993
20
-6.29921
11
11.2206
21
-6.29921
0
LINE
8
RED2
6
CONTINUOUS
10
11.2477
20
-1.38701
11
11.2721
21
-1.38701
0
LINE
8
RED2
6
CONTINUOUS
10
11.2429
20
-1.40163
11
11.2599
21
-1.35045
0
LINE
8
RED2
6
CONTINUOUS
10
11.2599
20
-1.35045
11
11.277
21
-1.40163
0
LINE
8
RED2
6
CONTINUOUS
10
11.2636
20
-3.34333
11
11.2709
21
-3.34576
0
LINE
8
RED2
6
CONTINUOUS
10
11.2709
20
-3.34576
11
11.2733
21
-3.3482
0
LINE
8
RED2
6
CONTINUOUS
10
11.2733
20
-3.3482
11
11.2758
21
-3.35307
0
LINE
8
RED2
6
CONTINUOUS
10
11.2758
20
-3.35307
11
11.2758
21
-3.36039
0
LINE
8
RED2
6
CONTINUOUS
10
11.2758
20
-3.36039
11
11.2733
21
-3.36526
0
LINE
8
RED2
6
CONTINUOUS
10
11.2733
20
-3.36526
11
11.2709
21
-3.3677
0
LINE
8
RED2
6
CONTINUOUS
10
11.2709
20
-3.3677
11
11.266
21
-3.37014
0
LINE
8
RED2
6
CONTINUOUS
10
11.266
20
-3.37014
11
11.2465
21
-3.37014
0
LINE
8
RED2
6
CONTINUOUS
10
11.2465
20
-3.37014
11
11.2465
21
-3.31896
0
LINE
8
RED2
6
CONTINUOUS
10
11.2465
20
-3.31896
11
11.2636
21
-3.31896
0
LINE
8
RED2
6
CONTINUOUS
10
11.2636
20
-3.31896
11
11.2685
21
-3.32139
0
LINE
8
RED2
6
CONTINUOUS
10
11.2685
20
-3.32139
11
11.2709
21
-3.32383
0
LINE
8
RED2
6
CONTINUOUS
10
11.2709
20
-3.32383
11
11.2733
21
-3.3287
0
LINE
8
RED2
6
CONTINUOUS
10
11.2733
20
-3.3287
11
11.2733
21
-3.33358
0
LINE
8
RED2
6
CONTINUOUS
10
11.2733
20
-3.33358
11
11.2709
21
-3.33845
0
LINE
8
RED2
6
CONTINUOUS
10
11.2709
20
-3.33845
11
11.2685
21
-3.34089
0
LINE
8
RED2
6
CONTINUOUS
10
11.2685
20
-3.34089
11
11.2636
21
-3.34333
0
LINE
8
RED2
6
CONTINUOUS
10
11.2636
20
-3.34333
11
11.2465
21
-3.34333
0
LINE
8
RED2
6
CONTINUOUS
10
11.2758
20
-5.33376
11
11.2733
21
-5.3362
0
LINE
8
RED2
6
CONTINUOUS
10
11.2733
20
-5.3362
11
11.266
21
-5.33864
0
LINE
8
RED2
6
CONTINUOUS
10
11.266
20
-5.33864
11
11.2611
21
-5.33864
0
LINE
8
RED2
6
CONTINUOUS
10
11.2611
20
-5.33864
11
11.2538
21
-5.3362
0
LINE
8
RED2
6
CONTINUOUS
10
11.2538
20
-5.3362
11
11.249
21
-5.33133
0
LINE
8
RED2
6
CONTINUOUS
10
11.249
20
-5.33133
11
11.2465
21
-5.32645
0
LINE
8
RED2
6
CONTINUOUS
10
11.2465
20
-5.32645
11
11.2441
21
-5.3167
0
LINE
8
RED2
6
CONTINUOUS
10
11.2441
20
-5.3167
11
11.2441
21
-5.30939
0
LINE
8
RED2
6
CONTINUOUS
10
11.2441
20
-5.30939
11
11.2465
21
-5.29965
0
LINE
8
RED2
6
CONTINUOUS
10
11.2465
20
-5.29965
11
11.249
21
-5.29477
0
LINE
8
RED2
6
CONTINUOUS
10
11.249
20
-5.29477
11
11.2538
21
-5.2899
0
LINE
8
RED2
6
CONTINUOUS
10
11.2538
20
-5.2899
11
11.2611
21
-5.28746
0
LINE
8
RED2
6
CONTINUOUS
10
11.2611
20
-5.28746
11
11.266
21
-5.28746
0
LINE
8
RED2
6
CONTINUOUS
10
11.266
20
-5.28746
11
11.2733
21
-5.2899
0
LINE
8
RED2
6
CONTINUOUS
10
11.2733
20
-5.2899
11
11.2758
21
-5.29233
0
LINE
8
RED2
6
CONTINUOUS
10
11.2465
20
-7.30715
11
11.2465
21
-7.25596
0
LINE
8
RED2
6
CONTINUOUS
10
11.2465
20
-7.25596
11
11.2587
21
-7.25596
0
LINE
8
RED2
6
CONTINUOUS
10
11.2587
20
-7.25596
11
11.266
21
-7.2584
0
LINE
8
RED2
6
CONTINUOUS
10
11.266
20
-7.2584
11
11.2709
21
-7.26328
0
LINE
8
RED2
6
CONTINUOUS
10
11.2709
20
-7.26328
11
11.2733
21
-7.26815
0
LINE
8
RED2
6
CONTINUOUS
10
11.2733
20
-7.26815
11
11.2758
21
-7.2779
0
LINE
8
RED2
6
CONTINUOUS
10
11.2758
20
-7.2779
11
11.2758
21
-7.28521
0
LINE
8
RED2
6
CONTINUOUS
10
11.2758
20
-7.28521
11
11.2733
21
-7.29496
0
LINE
8
RED2
6
CONTINUOUS
10
11.2733
20
-7.29496
11
11.2709
21
-7.29983
0
LINE
8
RED2
6
CONTINUOUS
10
11.2709
20
-7.29983
11
11.266
21
-7.30471
0
LINE
8
RED2
6
CONTINUOUS
10
11.266
20
-7.30471
11
11.2587
21
-7.30715
0
LINE
8
RED2
6
CONTINUOUS
10
11.2587
20
-7.30715
11
11.2465
21
-7.30715
0
LINE
8
RED2
6
CONTINUOUS
10
7.88816
20
-7.62996
11
7.88816
21
-7.57091
0
LINE
8
RED2
6
CONTINUOUS
10
7.88816
20
-7.57091
11
7.90222
21
-7.57091
0
LINE
8
RED2
6
CONTINUOUS
10
7.90222
20
-7.57091
11
7.91066
21
-7.57372
0
LINE
8
RED2
6
CONTINUOUS
10
7.91066
20
-7.57372
11
7.91628
21
-7.57935
0
LINE
8
RED2
6
CONTINUOUS
10
7.91628
20
-7.57935
11
7.91909
21
-7.58497
0
LINE
8
RED2
6
CONTINUOUS
10
7.91909
20
-7.58497
11
7.92191
21
-7.59622
0
LINE
8
RED2
6
CONTINUOUS
10
7.92191
20
-7.59622
11
7.92191
21
-7.60465
0
LINE
8
RED2
6
CONTINUOUS
10
7.92191
20
-7.60465
11
7.91909
21
-7.6159
0
LINE
8
RED2
6
CONTINUOUS
10
7.91909
20
-7.6159
11
7.91628
21
-7.62153
0
LINE
8
RED2
6
CONTINUOUS
10
7.91628
20
-7.62153
11
7.91066
21
-7.62715
0
LINE
8
RED2
6
CONTINUOUS
10
7.91066
20
-7.62715
11
7.90222
21
-7.62996
0
LINE
8
RED2
6
CONTINUOUS
10
7.90222
20
-7.62996
11
7.88816
21
-7.62996
0
LINE
8
RED2
6
CONTINUOUS
10
7.97253
20
-7.62996
11
7.97253
21
-7.59903
0
LINE
8
RED2
6
CONTINUOUS
10
7.97253
20
-7.59903
11
7.96971
21
-7.59341
0
LINE
8
RED2
6
CONTINUOUS
10
7.96971
20
-7.59341
11
7.96409
21
-7.59059
0
LINE
8
RED2
6
CONTINUOUS
10
7.96409
20
-7.59059
11
7.95284
21
-7.59059
0
LINE
8
RED2
6
CONTINUOUS
10
7.95284
20
-7.59059
11
7.94722
21
-7.59341
0
LINE
8
RED2
6
CONTINUOUS
10
7.97253
20
-7.62715
11
7.9669
21
-7.62996
0
LINE
8
RED2
6
CONTINUOUS
10
7.9669
20
-7.62996
11
7.95284
21
-7.62996
0
LINE
8
RED2
6
CONTINUOUS
10
7.95284
20
-7.62996
11
7.94722
21
-7.62715
0
LINE
8
RED2
6
CONTINUOUS
10
7.94722
20
-7.62715
11
7.94441
21
-7.62153
0
LINE
8
RED2
6
CONTINUOUS
10
7.94441
20
-7.62153
11
7.94441
21
-7.6159
0
LINE
8
RED2
6
CONTINUOUS
10
7.94441
20
-7.6159
11
7.94722
21
-7.61028
0
LINE
8
RED2
6
CONTINUOUS
10
7.94722
20
-7.61028
11
7.95284
21
-7.60747
0
LINE
8
RED2
6
CONTINUOUS
10
7.95284
20
-7.60747
11
7.9669
21
-7.60747
0
LINE
8
RED2
6
CONTINUOUS
10
7.9669
20
-7.60747
11
7.97253
21
-7.60465
0
LINE
8
RED2
6
CONTINUOUS
10
7.99221
20
-7.59059
11
8.0147
21
-7.59059
0
LINE
8
RED2
6
CONTINUOUS
10
8.00065
20
-7.57091
11
8.00065
21
-7.62153
0
LINE
8
RED2
6
CONTINUOUS
10
8.00065
20
-7.62153
11
8.00346
21
-7.62715
0
LINE
8
RED2
6
CONTINUOUS
10
8.00346
20
-7.62715
11
8.00908
21
-7.62996
0
LINE
8
RED2
6
CONTINUOUS
10
8.00908
20
-7.62996
11
8.0147
21
-7.62996
0
LINE
8
RED2
6
CONTINUOUS
10
8.05689
20
-7.62715
11
8.05126
21
-7.62996
0
LINE
8
RED2
6
CONTINUOUS
10
8.05126
20
-7.62996
11
8.04002
21
-7.62996
0
LINE
8
RED2
6
CONTINUOUS
10
8.04002
20
-7.62996
11
8.03439
21
-7.62715
0
LINE
8
RED2
6
CONTINUOUS
10
8.03439
20
-7.62715
11
8.03158
21
-7.62153
0
LINE
8
RED2
6
CONTINUOUS
10
8.03158
20
-7.62153
11
8.03158
21
-7.59903
0
LINE
8
RED2
6
CONTINUOUS
10
8.03158
20
-7.59903
11
8.03439
21
-7.59341
0
LINE
8
RED2
6
CONTINUOUS
10
8.03439
20
-7.59341
11
8.04002
21
-7.59059
0
LINE
8
RED2
6
CONTINUOUS
10
8.04002
20
-7.59059
11
8.05126
21
-7.59059
0
LINE
8
RED2
6
CONTINUOUS
10
8.05126
20
-7.59059
11
8.05689
21
-7.59341
0
LINE
8
RED2
6
CONTINUOUS
10
8.05689
20
-7.59341
11
8.0597
21
-7.59903
0
LINE
8
RED2
6
CONTINUOUS
10
8.0597
20
-7.59903
11
8.0597
21
-7.60465
0
LINE
8
RED2
6
CONTINUOUS
10
8.0597
20
-7.60465
11
8.03158
21
-7.61028
0
LINE
8
RED2
6
CONTINUOUS
10
8.08501
20
-7.62434
11
8.08782
21
-7.62715
0
LINE
8
RED2
6
CONTINUOUS
10
8.08782
20
-7.62715
11
8.08501
21
-7.62996
0
LINE
8
RED2
6
CONTINUOUS
10
8.08501
20
-7.62996
11
8.0822
21
-7.62715
0
LINE
8
RED2
6
CONTINUOUS
10
8.0822
20
-7.62715
11
8.08501
21
-7.62434
0
LINE
8
RED2
6
CONTINUOUS
10
8.08501
20
-7.62434
11
8.08501
21
-7.62996
0
LINE
8
RED2
6
CONTINUOUS
10
8.08501
20
-7.59341
11
8.08782
21
-7.59622
0
LINE
8
RED2
6
CONTINUOUS
10
8.08782
20
-7.59622
11
8.08501
21
-7.59903
0
LINE
8
RED2
6
CONTINUOUS
10
8.08501
20
-7.59903
11
8.0822
21
-7.59622
0
LINE
8
RED2
6
CONTINUOUS
10
8.0822
20
-7.59622
11
8.08501
21
-7.59341
0
LINE
8
RED2
6
CONTINUOUS
10
8.08501
20
-7.59341
11
8.08501
21
-7.59903
0
LINE
8
RED2
6
CONTINUOUS
10
6.96859
20
-7.65776
11
11.2206
21
-7.65776
0
LINE
8
RED2
6
CONTINUOUS
10
7.02202
20
-7.7402
11
7.02202
21
-7.68115
0
LINE
8
RED2
6
CONTINUOUS
10
7.05576
20
-7.7402
11
7.03046
21
-7.70645
0
LINE
8
RED2
6
CONTINUOUS
10
7.05576
20
-7.68115
11
7.02202
21
-7.71489
0
LINE
8
RED2
6
CONTINUOUS
10
7.08107
20
-7.7402
11
7.08107
21
-7.70083
0
LINE
8
RED2
6
CONTINUOUS
10
7.08107
20
-7.68115
11
7.07826
21
-7.68396
0
LINE
8
RED2
6
CONTINUOUS
10
7.07826
20
-7.68396
11
7.08107
21
-7.68677
0
LINE
8
RED2
6
CONTINUOUS
10
7.08107
20
-7.68677
11
7.08389
21
-7.68396
0
LINE
8
RED2
6
CONTINUOUS
10
7.08389
20
-7.68396
11
7.08107
21
-7.68115
0
LINE
8
RED2
6
CONTINUOUS
10
7.08107
20
-7.68115
11
7.08107
21
-7.68677
0
LINE
8
RED2
6
CONTINUOUS
10
7.14294
20
-7.73457
11
7.14013
21
-7.73739
0
LINE
8
RED2
6
CONTINUOUS
10
7.14013
20
-7.73739
11
7.13169
21
-7.7402
0
LINE
8
RED2
6
CONTINUOUS
10
7.13169
20
-7.7402
11
7.12607
21
-7.7402
0
LINE
8
RED2
6
CONTINUOUS
10
7.12607
20
-7.7402
11
7.11763
21
-7.73739
0
LINE
8
RED2
6
CONTINUOUS
10
7.11763
20
-7.73739
11
7.11201
21
-7.73176
0
LINE
8
RED2
6
CONTINUOUS
10
7.11201
20
-7.73176
11
7.1092
21
-7.72614
0
LINE
8
RED2
6
CONTINUOUS
10
7.1092
20
-7.72614
11
7.10639
21
-7.71489
0
LINE
8
RED2
6
CONTINUOUS
10
7.10639
20
-7.71489
11
7.10639
21
-7.70645
0
LINE
8
RED2
6
CONTINUOUS
10
7.10639
20
-7.70645
11
7.1092
21
-7.6952
0
LINE
8
RED2
6
CONTINUOUS
10
7.1092
20
-7.6952
11
7.11201
21
-7.68958
0
LINE
8
RED2
6
CONTINUOUS
10
7.11201
20
-7.68958
11
7.11763
21
-7.68396
0
LINE
8
RED2
6
CONTINUOUS
10
7.11763
20
-7.68396
11
7.12607
21
-7.68115
0
LINE
8
RED2
6
CONTINUOUS
10
7.12607
20
-7.68115
11
7.13169
21
-7.68115
0
LINE
8
RED2
6
CONTINUOUS
10
7.13169
20
-7.68115
11
7.14013
21
-7.68396
0
LINE
8
RED2
6
CONTINUOUS
10
7.14013
20
-7.68396
11
7.14294
21
-7.68677
0
LINE
8
RED2
6
CONTINUOUS
10
7.19356
20
-7.7402
11
7.19356
21
-7.70927
0
LINE
8
RED2
6
CONTINUOUS
10
7.19356
20
-7.70927
11
7.19075
21
-7.70364
0
LINE
8
RED2
6
CONTINUOUS
10
7.19075
20
-7.70364
11
7.18513
21
-7.70083
0
LINE
8
RED2
6
CONTINUOUS
10
7.18513
20
-7.70083
11
7.17388
21
-7.70083
0
LINE
8
RED2
6
CONTINUOUS
10
7.17388
20
-7.70083
11
7.16825
21
-7.70364
0
LINE
8
RED2
6
CONTINUOUS
10
7.19356
20
-7.73739
11
7.18794
21
-7.7402
0
LINE
8
RED2
6
CONTINUOUS
10
7.18794
20
-7.7402
11
7.17388
21
-7.7402
0
LINE
8
RED2
6
CONTINUOUS
10
7.17388
20
-7.7402
11
7.16825
21
-7.73739
0
LINE
8
RED2
6
CONTINUOUS
10
7.16825
20
-7.73739
11
7.16544
21
-7.73176
0
LINE
8
RED2
6
CONTINUOUS
10
7.16544
20
-7.73176
11
7.16544
21
-7.72614
0
LINE
8
RED2
6
CONTINUOUS
10
7.16544
20
-7.72614
11
7.16825
21
-7.72052
0
LINE
8
RED2
6
CONTINUOUS
10
7.16825
20
-7.72052
11
7.17388
21
-7.7177
0
LINE
8
RED2
6
CONTINUOUS
10
7.17388
20
-7.7177
11
7.18794
21
-7.7177
0
LINE
8
RED2
6
CONTINUOUS
10
7.18794
20
-7.7177
11
7.19356
21
-7.71489
0
LINE
8
RED2
6
CONTINUOUS
10
7.24699
20
-7.7402
11
7.24699
21
-7.68115
0
LINE
8
RED2
6
CONTINUOUS
10
7.24699
20
-7.73739
11
7.24137
21
-7.7402
0
LINE
8
RED2
6
CONTINUOUS
10
7.24137
20
-7.7402
11
7.23012
21
-7.7402
0
LINE
8
RED2
6
CONTINUOUS
10
7.23012
20
-7.7402
11
7.22449
21
-7.73739
0
LINE
8
RED2
6
CONTINUOUS
10
7.22449
20
-7.73739
11
7.22168
21
-7.73457
0
LINE
8
RED2
6
CONTINUOUS
10
7.22168
20
-7.73457
11
7.21887
21
-7.72895
0
LINE
8
RED2
6
CONTINUOUS
10
7.21887
20
-7.72895
11
7.21887
21
-7.71208
0
LINE
8
RED2
6
CONTINUOUS
10
7.21887
20
-7.71208
11
7.22168
21
-7.70645
0
LINE
8
RED2
6
CONTINUOUS
10
7.22168
20
-7.70645
11
7.22449
21
-7.70364
0
LINE
8
RED2
6
CONTINUOUS
10
7.22449
20
-7.70364
11
7.23012
21
-7.70083
0
LINE
8
RED2
6
CONTINUOUS
10
7.23012
20
-7.70083
11
7.24137
21
-7.70083
0
LINE
8
RED2
6
CONTINUOUS
10
7.24137
20
-7.70083
11
7.24699
21
-7.70364
0
LINE
8
RED2
6
CONTINUOUS
10
7.32011
20
-7.70927
11
7.33979
21
-7.70927
0
LINE
8
RED2
6
CONTINUOUS
10
7.34823
20
-7.7402
11
7.32011
21
-7.7402
0
LINE
8
RED2
6
CONTINUOUS
10
7.32011
20
-7.7402
11
7.32011
21
-7.68115
0
LINE
8
RED2
6
CONTINUOUS
10
7.32011
20
-7.68115
11
7.34823
21
-7.68115
0
LINE
8
RED2
6
CONTINUOUS
10
7.37354
20
-7.73457
11
7.37635
21
-7.73739
0
LINE
8
RED2
6
CONTINUOUS
10
7.37635
20
-7.73739
11
7.37354
21
-7.7402
0
LINE
8
RED2
6
CONTINUOUS
10
7.37354
20
-7.7402
11
7.37072
21
-7.73739
0
LINE
8
RED2
6
CONTINUOUS
10
7.37072
20
-7.73739
11
7.37354
21
-7.73457
0
LINE
8
RED2
6
CONTINUOUS
10
7.37354
20
-7.73457
11
7.37354
21
-7.7402
0
LINE
8
RED2
6
CONTINUOUS
10
7.40166
20
-7.7402
11
7.40166
21
-7.68115
0
LINE
8
RED2
6
CONTINUOUS
10
7.40166
20
-7.68115
11
7.41572
21
-7.68115
0
LINE
8
RED2
6
CONTINUOUS
10
7.41572
20
-7.68115
11
7.42415
21
-7.68396
0
LINE
8
RED2
6
CONTINUOUS
10
7.42415
20
-7.68396
11
7.42978
21
-7.68958
0
LINE
8
RED2
6
CONTINUOUS
10
7.42978
20
-7.68958
11
7.43259
21
-7.6952
0
LINE
8
RED2
6
CONTINUOUS
10
7.43259
20
-7.6952
11
7.4354
21
-7.70645
0
LINE
8
RED2
6
CONTINUOUS
10
7.4354
20
-7.70645
11
7.4354
21
-7.71489
0
LINE
8
RED2
6
CONTINUOUS
10
7.4354
20
-7.71489
11
7.43259
21
-7.72614
0
LINE
8
RED2
6
CONTINUOUS
10
7.43259
20
-7.72614
11
7.42978
21
-7.73176
0
LINE
8
RED2
6
CONTINUOUS
10
7.42978
20
-7.73176
11
7.42415
21
-7.73739
0
LINE
8
RED2
6
CONTINUOUS
10
7.42415
20
-7.73739
11
7.41572
21
-7.7402
0
LINE
8
RED2
6
CONTINUOUS
10
7.41572
20
-7.7402
11
7.40166
21
-7.7402
0
LINE
8
RED2
6
CONTINUOUS
10
7.46071
20
-7.73457
11
7.46352
21
-7.73739
0
LINE
8
RED2
6
CONTINUOUS
10
7.46352
20
-7.73739
11
7.46071
21
-7.7402
0
LINE
8
RED2
6
CONTINUOUS
10
7.46071
20
-7.7402
11
7.4579
21
-7.73739
0
LINE
8
RED2
6
CONTINUOUS
10
7.4579
20
-7.73739
11
7.46071
21
-7.73457
0
LINE
8
RED2
6
CONTINUOUS
10
7.46071
20
-7.73457
11
7.46071
21
-7.7402
0
LINE
8
RED2
6
CONTINUOUS
10
7.48602
20
-7.72333
11
7.51415
21
-7.72333
0
LINE
8
RED2
6
CONTINUOUS
10
7.4804
20
-7.7402
11
7.50008
21
-7.68115
0
LINE
8
RED2
6
CONTINUOUS
10
7.50008
20
-7.68115
11
7.51977
21
-7.7402
0
LINE
8
RED2
6
CONTINUOUS
10
7.53945
20
-7.73457
11
7.54226
21
-7.73739
0
LINE
8
RED2
6
CONTINUOUS
10
7.54226
20
-7.73739
11
7.53945
21
-7.7402
0
LINE
8
RED2
6
CONTINUOUS
10
7.53945
20
-7.7402
11
7.53664
21
-7.73739
0
LINE
8
RED2
6
CONTINUOUS
10
7.53664
20
-7.73739
11
7.53945
21
-7.73457
0
LINE
8
RED2
6
CONTINUOUS
10
7.53945
20
-7.73457
11
7.53945
21
-7.7402
0
LINE
8
RED2
6
CONTINUOUS
10
7.68006
20
-7.73739
11
7.67444
21
-7.7402
0
LINE
8
RED2
6
CONTINUOUS
10
7.67444
20
-7.7402
11
7.66319
21
-7.7402
0
LINE
8
RED2
6
CONTINUOUS
10
7.66319
20
-7.7402
11
7.65757
21
-7.73739
0
LINE
8
RED2
6
CONTINUOUS
10
7.65757
20
-7.73739
11
7.65476
21
-7.73176
0
LINE
8
RED2
6
CONTINUOUS
10
7.65476
20
-7.73176
11
7.65476
21
-7.70927
0
LINE
8
RED2
6
CONTINUOUS
10
7.65476
20
-7.70927
11
7.65757
21
-7.70364
0
LINE
8
RED2
6
CONTINUOUS
10
7.65757
20
-7.70364
11
7.66319
21
-7.70083
0
LINE
8
RED2
6
CONTINUOUS
10
7.66319
20
-7.70083
11
7.67444
21
-7.70083
0
LINE
8
RED2
6
CONTINUOUS
10
7.67444
20
-7.70083
11
7.68006
21
-7.70364
0
LINE
8
RED2
6
CONTINUOUS
10
7.68006
20
-7.70364
11
7.68288
21
-7.70927
0
LINE
8
RED2
6
CONTINUOUS
10
7.68288
20
-7.70927
11
7.68288
21
-7.71489
0
LINE
8
RED2
6
CONTINUOUS
10
7.68288
20
-7.71489
11
7.65476
21
-7.72052
0
LINE
8
RED2
6
CONTINUOUS
10
7.73068
20
-7.73739
11
7.72506
21
-7.7402
0
LINE
8
RED2
6
CONTINUOUS
10
7.72506
20
-7.7402
11
7.71381
21
-7.7402
0
LINE
8
RED2
6
CONTINUOUS
10
7.71381
20
-7.7402
11
7.70819
21
-7.73739
0
LINE
8
RED2
6
CONTINUOUS
10
7.70819
20
-7.73739
11
7.70537
21
-7.73176
0
LINE
8
RED2
6
CONTINUOUS
10
7.70537
20
-7.73176
11
7.70537
21
-7.70927
0
LINE
8
RED2
6
CONTINUOUS
10
7.70537
20
-7.70927
11
7.70819
21
-7.70364
0
LINE
8
RED2
6
CONTINUOUS
10
7.70819
20
-7.70364
11
7.71381
21
-7.70083
0
LINE
8
RED2
6
CONTINUOUS
10
7.71381
20
-7.70083
11
7.72506
21
-7.70083
0
LINE
8
RED2
6
CONTINUOUS
10
7.72506
20
-7.70083
11
7.73068
21
-7.70364
0
LINE
8
RED2
6
CONTINUOUS
10
7.73068
20
-7.70364
11
7.7335
21
-7.70927
0
LINE
8
RED2
6
CONTINUOUS
10
7.7335
20
-7.70927
11
7.7335
21
-7.71489
0
LINE
8
RED2
6
CONTINUOUS
10
7.7335
20
-7.71489
11
7.70537
21
-7.72052
0
LINE
8
RED2
6
CONTINUOUS
10
7.75599
20
-7.73739
11
7.76161
21
-7.7402
0
LINE
8
RED2
6
CONTINUOUS
10
7.76161
20
-7.7402
11
7.77286
21
-7.7402
0
LINE
8
RED2
6
CONTINUOUS
10
7.77286
20
-7.7402
11
7.77849
21
-7.73739
0
LINE
8
RED2
6
CONTINUOUS
10
7.77849
20
-7.73739
11
7.7813
21
-7.73176
0
LINE
8
RED2
6
CONTINUOUS
10
7.7813
20
-7.73176
11
7.7813
21
-7.72895
0
LINE
8
RED2
6
CONTINUOUS
10
7.7813
20
-7.72895
11
7.77849
21
-7.72333
0
LINE
8
RED2
6
CONTINUOUS
10
7.77849
20
-7.72333
11
7.77286
21
-7.72052
0
LINE
8
RED2
6
CONTINUOUS
10
7.77286
20
-7.72052
11
7.76443
21
-7.72052
0
LINE
8
RED2
6
CONTINUOUS
10
7.76443
20
-7.72052
11
7.7588
21
-7.7177
0
LINE
8
RED2
6
CONTINUOUS
10
7.7588
20
-7.7177
11
7.75599
21
-7.71208
0
LINE
8
RED2
6
CONTINUOUS
10
7.75599
20
-7.71208
11
7.75599
21
-7.70927
0
LINE
8
RED2
6
CONTINUOUS
10
7.75599
20
-7.70927
11
7.7588
21
-7.70364
0
LINE
8
RED2
6
CONTINUOUS
10
7.7588
20
-7.70364
11
7.76443
21
-7.70083
0
LINE
8
RED2
6
CONTINUOUS
10
7.76443
20
-7.70083
11
7.77286
21
-7.70083
0
LINE
8
RED2
6
CONTINUOUS
10
7.77286
20
-7.70083
11
7.77849
21
-7.70364
0
LINE
8
RED2
6
CONTINUOUS
10
7.83192
20
-7.73739
11
7.8263
21
-7.7402
0
LINE
8
RED2
6
CONTINUOUS
10
7.8263
20
-7.7402
11
7.81505
21
-7.7402
0
LINE
8
RED2
6
CONTINUOUS
10
7.81505
20
-7.7402
11
7.80942
21
-7.73739
0
LINE
8
RED2
6
CONTINUOUS
10
7.80942
20
-7.73739
11
7.80661
21
-7.73457
0
LINE
8
RED2
6
CONTINUOUS
10
7.80661
20
-7.73457
11
7.8038
21
-7.72895
0
LINE
8
RED2
6
CONTINUOUS
10
7.8038
20
-7.72895
11
7.8038
21
-7.71208
0
LINE
8
RED2
6
CONTINUOUS
10
7.8038
20
-7.71208
11
7.80661
21
-7.70645
0
LINE
8
RED2
6
CONTINUOUS
10
7.80661
20
-7.70645
11
7.80942
21
-7.70364
0
LINE
8
RED2
6
CONTINUOUS
10
7.80942
20
-7.70364
11
7.81505
21
-7.70083
0
LINE
8
RED2
6
CONTINUOUS
10
7.81505
20
-7.70083
11
7.8263
21
-7.70083
0
LINE
8
RED2
6
CONTINUOUS
10
7.8263
20
-7.70083
11
7.83192
21
-7.70364
0
LINE
8
RED2
6
CONTINUOUS
10
7.85723
20
-7.7402
11
7.85723
21
-7.68115
0
LINE
8
RED2
6
CONTINUOUS
10
7.88254
20
-7.7402
11
7.88254
21
-7.70927
0
LINE
8
RED2
6
CONTINUOUS
10
7.88254
20
-7.70927
11
7.87972
21
-7.70364
0
LINE
8
RED2
6
CONTINUOUS
10
7.87972
20
-7.70364
11
7.8741
21
-7.70083
0
LINE
8
RED2
6
CONTINUOUS
10
7.8741
20
-7.70083
11
7.86567
21
-7.70083
0
LINE
8
RED2
6
CONTINUOUS
10
7.86567
20
-7.70083
11
7.86004
21
-7.70364
0
LINE
8
RED2
6
CONTINUOUS
10
7.86004
20
-7.70364
11
7.85723
21
-7.70645
0
LINE
8
RED2
6
CONTINUOUS
10
7.93315
20
-7.73739
11
7.92753
21
-7.7402
0
LINE
8
RED2
6
CONTINUOUS
10
7.92753
20
-7.7402
11
7.91628
21
-7.7402
0
LINE
8
RED2
6
CONTINUOUS
10
7.91628
20
-7.7402
11
7.91066
21
-7.73739
0
LINE
8
RED2
6
CONTINUOUS
10
7.91066
20
-7.73739
11
7.90785
21
-7.73176
0
LINE
8
RED2
6
CONTINUOUS
10
7.90785
20
-7.73176
11
7.90785
21
-7.70927
0
LINE
8
RED2
6
CONTINUOUS
10
7.90785
20
-7.70927
11
7.91066
21
-7.70364
0
LINE
8
RED2
6
CONTINUOUS
10
7.91066
20
-7.70364
11
7.91628
21
-7.70083
0
LINE
8
RED2
6
CONTINUOUS
10
7.91628
20
-7.70083
11
7.92753
21
-7.70083
0
LINE
8
RED2
6
CONTINUOUS
10
7.92753
20
-7.70083
11
7.93315
21
-7.70364
0
LINE
8
RED2
6
CONTINUOUS
10
7.93315
20
-7.70364
11
7.93597
21
-7.70927
0
LINE
8
RED2
6
CONTINUOUS
10
7.93597
20
-7.70927
11
7.93597
21
-7.71489
0
LINE
8
RED2
6
CONTINUOUS
10
7.93597
20
-7.71489
11
7.90785
21
-7.72052
0
LINE
8
RED2
6
CONTINUOUS
10
7.96128
20
-7.7402
11
7.96128
21
-7.70083
0
LINE
8
RED2
6
CONTINUOUS
10
7.96128
20
-7.70645
11
7.96409
21
-7.70364
0
LINE
8
RED2
6
CONTINUOUS
10
7.96409
20
-7.70364
11
7.96971
21
-7.70083
0
LINE
8
RED2
6
CONTINUOUS
10
7.96971
20
-7.70083
11
7.97815
21
-7.70083
0
LINE
8
RED2
6
CONTINUOUS
10
7.97815
20
-7.70083
11
7.98377
21
-7.70364
0
LINE
8
RED2
6
CONTINUOUS
10
7.98377
20
-7.70364
11
7.98659
21
-7.70927
0
LINE
8
RED2
6
CONTINUOUS
10
7.98659
20
-7.70927
11
7.98659
21
-7.7402
0
LINE
8
RED2
6
CONTINUOUS
10
7.98659
20
-7.70927
11
7.9894
21
-7.70364
0
LINE
8
RED2
6
CONTINUOUS
10
7.9894
20
-7.70364
11
7.99502
21
-7.70083
0
LINE
8
RED2
6
CONTINUOUS
10
7.99502
20
-7.70083
11
8.00346
21
-7.70083
0
LINE
8
RED2
6
CONTINUOUS
10
8.00346
20
-7.70083
11
8.00908
21
-7.70364
0
LINE
8
RED2
6
CONTINUOUS
10
8.00908
20
-7.70364
11
8.01189
21
-7.70927
0
LINE
8
RED2
6
CONTINUOUS
10
8.01189
20
-7.70927
11
8.01189
21
-7.7402
0
LINE
8
RED2
6
CONTINUOUS
10
8.06533
20
-7.7402
11
8.06533
21
-7.70927
0
LINE
8
RED2
6
CONTINUOUS
10
8.06533
20
-7.70927
11
8.06251
21
-7.70364
0
LINE
8
RED2
6
CONTINUOUS
10
8.06251
20
-7.70364
11
8.05689
21
-7.70083
0
LINE
8
RED2
6
CONTINUOUS
10
8.05689
20
-7.70083
11
8.04564
21
-7.70083
0
LINE
8
RED2
6
CONTINUOUS
10
8.04564
20
-7.70083
11
8.04002
21
-7.70364
0
LINE
8
RED2
6
CONTINUOUS
10
8.06533
20
-7.73739
11
8.0597
21
-7.7402
0
LINE
8
RED2
6
CONTINUOUS
10
8.0597
20
-7.7402
11
8.04564
21
-7.7402
0
LINE
8
RED2
6
CONTINUOUS
10
8.04564
20
-7.7402
11
8.04002
21
-7.73739
0
LINE
8
RED2
6
CONTINUOUS
10
8.04002
20
-7.73739
11
8.0372
21
-7.73176
0
LINE
8
RED2
6
CONTINUOUS
10
8.0372
20
-7.73176
11
8.0372
21
-7.72614
0
LINE
8
RED2
6
CONTINUOUS
10
8.0372
20
-7.72614
11
8.04002
21
-7.72052
0
LINE
8
RED2
6
CONTINUOUS
10
8.04002
20
-7.72052
11
8.04564
21
-7.7177
0
LINE
8
RED2
6
CONTINUOUS
10
8.04564
20
-7.7177
11
8.0597
21
-7.7177
0
LINE
8
RED2
6
CONTINUOUS
10
8.0597
20
-7.7177
11
8.06533
21
-7.71489
0
LINE
8
RED2
6
CONTINUOUS
10
8.13281
20
-7.68115
11
8.17219
21
-7.68115
0
LINE
8
RED2
6
CONTINUOUS
10
8.17219
20
-7.68115
11
8.14688
21
-7.7402
0
LINE
8
RED2
6
CONTINUOUS
10
8.19469
20
-7.73457
11
8.1975
21
-7.73739
0
LINE
8
RED2
6
CONTINUOUS
10
8.1975
20
-7.73739
11
8.19469
21
-7.7402
0
LINE
8
RED2
6
CONTINUOUS
10
8.19469
20
-7.7402
11
8.19187
21
-7.73739
0
LINE
8
RED2
6
CONTINUOUS
10
8.19187
20
-7.73739
11
8.19469
21
-7.73457
0
LINE
8
RED2
6
CONTINUOUS
10
8.19469
20
-7.73457
11
8.19469
21
-7.7402
0
LINE
8
RED2
6
CONTINUOUS
10
8.23406
20
-7.68115
11
8.23968
21
-7.68115
0
LINE
8
RED2
6
CONTINUOUS
10
8.23968
20
-7.68115
11
8.2453
21
-7.68396
0
LINE
8
RED2
6
CONTINUOUS
10
8.2453
20
-7.68396
11
8.24812
21
-7.68677
0
LINE
8
RED2
6
CONTINUOUS
10
8.24812
20
-7.68677
11
8.25093
21
-7.69239
0
LINE
8
RED2
6
CONTINUOUS
10
8.25093
20
-7.69239
11
8.25374
21
-7.70364
0
LINE
8
RED2
6
CONTINUOUS
10
8.25374
20
-7.70364
11
8.25374
21
-7.7177
0
LINE
8
RED2
6
CONTINUOUS
10
8.25374
20
-7.7177
11
8.25093
21
-7.72895
0
LINE
8
RED2
6
CONTINUOUS
10
8.25093
20
-7.72895
11
8.24812
21
-7.73457
0
LINE
8
RED2
6
CONTINUOUS
10
8.24812
20
-7.73457
11
8.2453
21
-7.73739
0
LINE
8
RED2
6
CONTINUOUS
10
8.2453
20
-7.73739
11
8.23968
21
-7.7402
0
LINE
8
RED2
6
CONTINUOUS
10
8.23968
20
-7.7402
11
8.23406
21
-7.7402
0
LINE
8
RED2
6
CONTINUOUS
10
8.23406
20
-7.7402
11
8.22843
21
-7.73739
0
LINE
8
RED2
6
CONTINUOUS
10
8.22843
20
-7.73739
11
8.22562
21
-7.73457
0
LINE
8
RED2
6
CONTINUOUS
10
8.22562
20
-7.73457
11
8.22281
21
-7.72895
0
LINE
8
RED2
6
CONTINUOUS
10
8.22281
20
-7.72895
11
8.22
21
-7.7177
0
LINE
8
RED2
6
CONTINUOUS
10
8.22
20
-7.7177
11
8.22
21
-7.70364
0
LINE
8
RED2
6
CONTINUOUS
10
8.22
20
-7.70364
11
8.22281
21
-7.69239
0
LINE
8
RED2
6
CONTINUOUS
10
8.22281
20
-7.69239
11
8.22562
21
-7.68677
0
LINE
8
RED2
6
CONTINUOUS
10
8.22562
20
-7.68677
11
8.22843
21
-7.68396
0
LINE
8
RED2
6
CONTINUOUS
10
8.22843
20
-7.68396
11
8.23406
21
-7.68115
0
LINE
8
RED2
6
CONTINUOUS
10
8.27905
20
-7.73457
11
8.28186
21
-7.73739
0
LINE
8
RED2
6
CONTINUOUS
10
8.28186
20
-7.73739
11
8.27905
21
-7.7402
0
LINE
8
RED2
6
CONTINUOUS
10
8.27905
20
-7.7402
11
8.27624
21
-7.73739
0
LINE
8
RED2
6
CONTINUOUS
10
8.27624
20
-7.73739
11
8.27905
21
-7.73457
0
LINE
8
RED2
6
CONTINUOUS
10
8.27905
20
-7.73457
11
8.27905
21
-7.7402
0
LINE
8
RED2
6
CONTINUOUS
10
8.33811
20
-7.7402
11
8.30436
21
-7.7402
0
LINE
8
RED2
6
CONTINUOUS
10
8.32123
20
-7.7402
11
8.32123
21
-7.68115
0
LINE
8
RED2
6
CONTINUOUS
10
8.32123
20
-7.68115
11
8.31561
21
-7.68958
0
LINE
8
RED2
6
CONTINUOUS
10
8.31561
20
-7.68958
11
8.30998
21
-7.6952
0
LINE
8
RED2
6
CONTINUOUS
10
8.30998
20
-7.6952
11
8.30436
21
-7.69802
0
LINE
8
RED2
6
CONTINUOUS
10
8.36342
20
-7.73457
11
8.36623
21
-7.73739
0
LINE
8
RED2
6
CONTINUOUS
10
8.36623
20
-7.73739
11
8.36342
21
-7.7402
0
LINE
8
RED2
6
CONTINUOUS
10
8.36342
20
-7.7402
11
8.36061
21
-7.73739
0
LINE
8
RED2
6
CONTINUOUS
10
8.36061
20
-7.73739
11
8.36342
21
-7.73457
0
LINE
8
RED2
6
CONTINUOUS
10
8.36342
20
-7.73457
11
8.36342
21
-7.7402
0
LINE
8
RED2
6
CONTINUOUS
10
8.42247
20
-7.7402
11
8.38873
21
-7.7402
0
LINE
8
RED2
6
CONTINUOUS
10
8.4056
20
-7.7402
11
8.4056
21
-7.68115
0
LINE
8
RED2
6
CONTINUOUS
10
8.4056
20
-7.68115
11
8.39998
21
-7.68958
0
LINE
8
RED2
6
CONTINUOUS
10
8.39998
20
-7.68958
11
8.39435
21
-7.6952
0
LINE
8
RED2
6
CONTINUOUS
10
8.39435
20
-7.6952
11
8.38873
21
-7.69802
0
LINE
8
RED2
6
CONTINUOUS
10
8.44778
20
-7.7177
11
8.49278
21
-7.7177
0
LINE
8
RED2
6
CONTINUOUS
10
8.51527
20
-7.68115
11
8.55183
21
-7.68115
0
LINE
8
RED2
6
CONTINUOUS
10
8.55183
20
-7.68115
11
8.53215
21
-7.70364
0
LINE
8
RED2
6
CONTINUOUS
10
8.53215
20
-7.70364
11
8.54058
21
-7.70364
0
LINE
8
RED2
6
CONTINUOUS
10
8.54058
20
-7.70364
11
8.54621
21
-7.70645
0
LINE
8
RED2
6
CONTINUOUS
10
8.54621
20
-7.70645
11
8.54902
21
-7.70927
0
LINE
8
RED2
6
CONTINUOUS
10
8.54902
20
-7.70927
11
8.55183
21
-7.71489
0
LINE
8
RED2
6
CONTINUOUS
10
8.55183
20
-7.71489
11
8.55183
21
-7.72895
0
LINE
8
RED2
6
CONTINUOUS
10
8.55183
20
-7.72895
11
8.54902
21
-7.73457
0
LINE
8
RED2
6
CONTINUOUS
10
8.54902
20
-7.73457
11
8.54621
21
-7.73739
0
LINE
8
RED2
6
CONTINUOUS
10
8.54621
20
-7.73739
11
8.54058
21
-7.7402
0
LINE
8
RED2
6
CONTINUOUS
10
8.54058
20
-7.7402
11
8.52371
21
-7.7402
0
LINE
8
RED2
6
CONTINUOUS
10
8.52371
20
-7.7402
11
8.51809
21
-7.73739
0
LINE
8
RED2
6
CONTINUOUS
10
8.51809
20
-7.73739
11
8.51527
21
-7.73457
0
LINE
8
RED2
6
CONTINUOUS
10
8.60245
20
-7.68115
11
8.5912
21
-7.68115
0
LINE
8
RED2
6
CONTINUOUS
10
8.5912
20
-7.68115
11
8.58558
21
-7.68396
0
LINE
8
RED2
6
CONTINUOUS
10
8.58558
20
-7.68396
11
8.58277
21
-7.68677
0
LINE
8
RED2
6
CONTINUOUS
10
8.58277
20
-7.68677
11
8.57714
21
-7.6952
0
LINE
8
RED2
6
CONTINUOUS
10
8.57714
20
-7.6952
11
8.57433
21
-7.70645
0
LINE
8
RED2
6
CONTINUOUS
10
8.57433
20
-7.70645
11
8.57433
21
-7.72895
0
LINE
8
RED2
6
CONTINUOUS
10
8.57433
20
-7.72895
11
8.57714
21
-7.73457
0
LINE
8
RED2
6
CONTINUOUS
10
8.57714
20
-7.73457
11
8.57995
21
-7.73739
0
LINE
8
RED2
6
CONTINUOUS
10
8.57995
20
-7.73739
11
8.58558
21
-7.7402
0
LINE
8
RED2
6
CONTINUOUS
10
8.58558
20
-7.7402
11
8.59683
21
-7.7402
0
LINE
8
RED2
6
CONTINUOUS
10
8.59683
20
-7.7402
11
8.60245
21
-7.73739
0
LINE
8
RED2
6
CONTINUOUS
10
8.60245
20
-7.73739
11
8.60526
21
-7.73457
0
LINE
8
RED2
6
CONTINUOUS
10
8.60526
20
-7.73457
11
8.60807
21
-7.72895
0
LINE
8
RED2
6
CONTINUOUS
10
8.60807
20
-7.72895
11
8.60807
21
-7.71489
0
LINE
8
RED2
6
CONTINUOUS
10
8.60807
20
-7.71489
11
8.60526
21
-7.70927
0
LINE
8
RED2
6
CONTINUOUS
10
8.60526
20
-7.70927
11
8.60245
21
-7.70645
0
LINE
8
RED2
6
CONTINUOUS
10
8.60245
20
-7.70645
11
8.59683
21
-7.70364
0
LINE
8
RED2
6
CONTINUOUS
10
8.59683
20
-7.70364
11
8.58558
21
-7.70364
0
LINE
8
RED2
6
CONTINUOUS
10
8.58558
20
-7.70364
11
8.57995
21
-7.70645
0
LINE
8
RED2
6
CONTINUOUS
10
8.57995
20
-7.70645
11
8.57714
21
-7.70927
0
LINE
8
RED2
6
CONTINUOUS
10
8.57714
20
-7.70927
11
8.57433
21
-7.71489
0
LINE
8
RED2
6
CONTINUOUS
10
8.63339
20
-7.7177
11
8.67838
21
-7.7177
0
LINE
8
RED2
6
CONTINUOUS
10
8.73181
20
-7.70083
11
8.73181
21
-7.74864
0
LINE
8
RED2
6
CONTINUOUS
10
8.73181
20
-7.74864
11
8.729
21
-7.75426
0
LINE
8
RED2
6
CONTINUOUS
10
8.729
20
-7.75426
11
8.72619
21
-7.75707
0
LINE
8
RED2
6
CONTINUOUS
10
8.72619
20
-7.75707
11
8.72056
21
-7.75989
0
LINE
8
RED2
6
CONTINUOUS
10
8.72056
20
-7.75989
11
8.71213
21
-7.75989
0
LINE
8
RED2
6
CONTINUOUS
10
8.71213
20
-7.75989
11
8.7065
21
-7.75707
0
LINE
8
RED2
6
CONTINUOUS
10
8.73181
20
-7.73739
11
8.72619
21
-7.7402
0
LINE
8
RED2
6
CONTINUOUS
10
8.72619
20
-7.7402
11
8.71494
21
-7.7402
0
LINE
8
RED2
6
CONTINUOUS
10
8.71494
20
-7.7402
11
8.70931
21
-7.73739
0
LINE
8
RED2
6
CONTINUOUS
10
8.70931
20
-7.73739
11
8.7065
21
-7.73457
0
LINE
8
RED2
6
CONTINUOUS
10
8.7065
20
-7.73457
11
8.70369
21
-7.72895
0
LINE
8
RED2
6
CONTINUOUS
10
8.70369
20
-7.72895
11
8.70369
21
-7.71208
0
LINE
8
RED2
6
CONTINUOUS
10
8.70369
20
-7.71208
11
8.7065
21
-7.70645
0
LINE
8
RED2
6
CONTINUOUS
10
8.7065
20
-7.70645
11
8.70931
21
-7.70364
0
LINE
8
RED2
6
CONTINUOUS
10
8.70931
20
-7.70364
11
8.71494
21
-7.70083
0
LINE
8
RED2
6
CONTINUOUS
10
8.71494
20
-7.70083
11
8.72619
21
-7.70083
0
LINE
8
RED2
6
CONTINUOUS
10
8.72619
20
-7.70083
11
8.73181
21
-7.70364
0
LINE
8
RED2
6
CONTINUOUS
10
8.75993
20
-7.7402
11
8.75993
21
-7.68115
0
LINE
8
RED2
6
CONTINUOUS
10
8.75993
20
-7.70364
11
8.76556
21
-7.70083
0
LINE
8
RED2
6
CONTINUOUS
10
8.76556
20
-7.70083
11
8.7768
21
-7.70083
0
LINE
8
RED2
6
CONTINUOUS
10
8.7768
20
-7.70083
11
8.78243
21
-7.70364
0
LINE
8
RED2
6
CONTINUOUS
10
8.78243
20
-7.70364
11
8.78524
21
-7.70645
0
LINE
8
RED2
6
CONTINUOUS
10
8.78524
20
-7.70645
11
8.78805
21
-7.71208
0
LINE
8
RED2
6
CONTINUOUS
10
8.78805
20
-7.71208
11
8.78805
21
-7.72895
0
LINE
8
RED2
6
CONTINUOUS
10
8.78805
20
-7.72895
11
8.78524
21
-7.73457
0
LINE
8
RED2
6
CONTINUOUS
10
8.78524
20
-7.73457
11
8.78243
21
-7.73739
0
LINE
8
RED2
6
CONTINUOUS
10
8.78243
20
-7.73739
11
8.7768
21
-7.7402
0
LINE
8
RED2
6
CONTINUOUS
10
8.7768
20
-7.7402
11
8.76556
21
-7.7402
0
LINE
8
RED2
6
CONTINUOUS
10
8.76556
20
-7.7402
11
8.75993
21
-7.73739
0
LINE
8
RED2
6
CONTINUOUS
10
8.83867
20
-7.73739
11
8.83304
21
-7.7402
0
LINE
8
RED2
6
CONTINUOUS
10
8.83304
20
-7.7402
11
8.8218
21
-7.7402
0
LINE
8
RED2
6
CONTINUOUS
10
8.8218
20
-7.7402
11
8.81617
21
-7.73739
0
LINE
8
RED2
6
CONTINUOUS
10
8.81617
20
-7.73739
11
8.81336
21
-7.73457
0
LINE
8
RED2
6
CONTINUOUS
10
8.81336
20
-7.73457
11
8.81055
21
-7.72895
0
LINE
8
RED2
6
CONTINUOUS
10
8.81055
20
-7.72895
11
8.81055
21
-7.71208
0
LINE
8
RED2
6
CONTINUOUS
10
8.81055
20
-7.71208
11
8.81336
21
-7.70645
0
LINE
8
RED2
6
CONTINUOUS
10
8.81336
20
-7.70645
11
8.81617
21
-7.70364
0
LINE
8
RED2
6
CONTINUOUS
10
8.81617
20
-7.70364
11
8.8218
21
-7.70083
0
LINE
8
RED2
6
CONTINUOUS
10
8.8218
20
-7.70083
11
8.83304
21
-7.70083
0
LINE
8
RED2
6
CONTINUOUS
10
8.83304
20
-7.70083
11
8.83867
21
-7.70364
0
LINE
8
RED2
6
CONTINUOUS
10
8.85554
20
-7.70083
11
8.87804
21
-7.70083
0
LINE
8
RED2
6
CONTINUOUS
10
8.86398
20
-7.7402
11
8.86398
21
-7.68958
0
LINE
8
RED2
6
CONTINUOUS
10
8.86398
20
-7.68958
11
8.86679
21
-7.68396
0
LINE
8
RED2
6
CONTINUOUS
10
8.86679
20
-7.68396
11
8.87241
21
-7.68115
0
LINE
8
RED2
6
CONTINUOUS
10
8.87241
20
-7.68115
11
8.87804
21
-7.68115
0
LINE
8
RED2
6
CONTINUOUS
10
8.89209
20
-7.68115
11
8.93146
21
-7.68115
0
LINE
8
RED2
6
CONTINUOUS
10
8.93146
20
-7.68115
11
8.90616
21
-7.7402
0
LINE
8
RED2
6
CONTINUOUS
10
8.9624
20
-7.70645
11
8.95678
21
-7.70364
0
LINE
8
RED2
6
CONTINUOUS
10
8.95678
20
-7.70364
11
8.95396
21
-7.70083
0
LINE
8
RED2
6
CONTINUOUS
10
8.95396
20
-7.70083
11
8.95115
21
-7.6952
0
LINE
8
RED2
6
CONTINUOUS
10
8.95115
20
-7.6952
11
8.95115
21
-7.69239
0
LINE
8
RED2
6
CONTINUOUS
10
8.95115
20
-7.69239
11
8.95396
21
-7.68677
0
LINE
8
RED2
6
CONTINUOUS
10
8.95396
20
-7.68677
11
8.95678
21
-7.68396
0
LINE
8
RED2
6
CONTINUOUS
10
8.95678
20
-7.68396
11
8.9624
21
-7.68115
0
LINE
8
RED2
6
CONTINUOUS
10
8.9624
20
-7.68115
11
8.97365
21
-7.68115
0
LINE
8
RED2
6
CONTINUOUS
10
8.97365
20
-7.68115
11
8.97928
21
-7.68396
0
LINE
8
RED2
6
CONTINUOUS
10
8.97928
20
-7.68396
11
8.98209
21
-7.68677
0
LINE
8
RED2
6
CONTINUOUS
10
8.98209
20
-7.68677
11
8.9849
21
-7.69239
0
LINE
8
RED2
6
CONTINUOUS
10
8.9849
20
-7.69239
11
8.9849
21
-7.6952
0
LINE
8
RED2
6
CONTINUOUS
10
8.9849
20
-7.6952
11
8.98209
21
-7.70083
0
LINE
8
RED2
6
CONTINUOUS
10
8.98209
20
-7.70083
11
8.97928
21
-7.70364
0
LINE
8
RED2
6
CONTINUOUS
10
8.97928
20
-7.70364
11
8.97365
21
-7.70645
0
LINE
8
RED2
6
CONTINUOUS
10
8.97365
20
-7.70645
11
8.9624
21
-7.70645
0
LINE
8
RED2
6
CONTINUOUS
10
8.9624
20
-7.70645
11
8.95678
21
-7.70927
0
LINE
8
RED2
6
CONTINUOUS
10
8.95678
20
-7.70927
11
8.95396
21
-7.71208
0
LINE
8
RED2
6
CONTINUOUS
10
8.95396
20
-7.71208
11
8.95115
21
-7.7177
0
LINE
8
RED2
6
CONTINUOUS
10
8.95115
20
-7.7177
11
8.95115
21
-7.72895
0
LINE
8
RED2
6
CONTINUOUS
10
8.95115
20
-7.72895
11
8.95396
21
-7.73457
0
LINE
8
RED2
6
CONTINUOUS
10
8.95396
20
-7.73457
11
8.95678
21
-7.73739
0
LINE
8
RED2
6
CONTINUOUS
10
8.95678
20
-7.73739
11
8.9624
21
-7.7402
0
LINE
8
RED2
6
CONTINUOUS
10
8.9624
20
-7.7402
11
8.97365
21
-7.7402
0
LINE
8
RED2
6
CONTINUOUS
10
8.97365
20
-7.7402
11
8.97928
21
-7.73739
0
LINE
8
RED2
6
CONTINUOUS
10
8.97928
20
-7.73739
11
8.98209
21
-7.73457
0
LINE
8
RED2
6
CONTINUOUS
10
8.98209
20
-7.73457
11
8.9849
21
-7.72895
0
LINE
8
RED2
6
CONTINUOUS
10
8.9849
20
-7.72895
11
8.9849
21
-7.7177
0
LINE
8
RED2
6
CONTINUOUS
10
8.9849
20
-7.7177
11
8.98209
21
-7.71208
0
LINE
8
RED2
6
CONTINUOUS
10
8.98209
20
-7.71208
11
8.97928
21
-7.70927
0
LINE
8
RED2
6
CONTINUOUS
10
8.97928
20
-7.70927
11
8.97365
21
-7.70645
0
LINE
8
RED2
6
CONTINUOUS
10
9.03552
20
-7.7402
11
9.03552
21
-7.68115
0
LINE
8
RED2
6
CONTINUOUS
10
9.03552
20
-7.73739
11
9.02989
21
-7.7402
0
LINE
8
RED2
6
CONTINUOUS
10
9.02989
20
-7.7402
11
9.01865
21
-7.7402
0
LINE
8
RED2
6
CONTINUOUS
10
9.01865
20
-7.7402
11
9.01302
21
-7.73739
0
LINE
8
RED2
6
CONTINUOUS
10
9.01302
20
-7.73739
11
9.01021
21
-7.73457
0
LINE
8
RED2
6
CONTINUOUS
10
9.01021
20
-7.73457
11
9.0074
21
-7.72895
0
LINE
8
RED2
6
CONTINUOUS
10
9.0074
20
-7.72895
11
9.0074
21
-7.71208
0
LINE
8
RED2
6
CONTINUOUS
10
9.0074
20
-7.71208
11
9.01021
21
-7.70645
0
LINE
8
RED2
6
CONTINUOUS
10
9.01021
20
-7.70645
11
9.01302
21
-7.70364
0
LINE
8
RED2
6
CONTINUOUS
10
9.01302
20
-7.70364
11
9.01865
21
-7.70083
0
LINE
8
RED2
6
CONTINUOUS
10
9.01865
20
-7.70083
11
9.02989
21
-7.70083
0
LINE
8
RED2
6
CONTINUOUS
10
9.02989
20
-7.70083
11
9.03552
21
-7.70364
0
LINE
8
RED2
6
CONTINUOUS
10
9.06364
20
-7.7402
11
9.06364
21
-7.68115
0
LINE
8
RED2
6
CONTINUOUS
10
9.06364
20
-7.70364
11
9.06926
21
-7.70083
0
LINE
8
RED2
6
CONTINUOUS
10
9.06926
20
-7.70083
11
9.08051
21
-7.70083
0
LINE
8
RED2
6
CONTINUOUS
10
9.08051
20
-7.70083
11
9.08613
21
-7.70364
0
LINE
8
RED2
6
CONTINUOUS
10
9.08613
20
-7.70364
11
9.08895
21
-7.70645
0
LINE
8
RED2
6
CONTINUOUS
10
9.08895
20
-7.70645
11
9.09176
21
-7.71208
0
LINE
8
RED2
6
CONTINUOUS
10
9.09176
20
-7.71208
11
9.09176
21
-7.72895
0
LINE
8
RED2
6
CONTINUOUS
10
9.09176
20
-7.72895
11
9.08895
21
-7.73457
0
LINE
8
RED2
6
CONTINUOUS
10
9.08895
20
-7.73457
11
9.08613
21
-7.73739
0
LINE
8
RED2
6
CONTINUOUS
10
9.08613
20
-7.73739
11
9.08051
21
-7.7402
0
LINE
8
RED2
6
CONTINUOUS
10
9.08051
20
-7.7402
11
9.06926
21
-7.7402
0
LINE
8
RED2
6
CONTINUOUS
10
9.06926
20
-7.7402
11
9.06364
21
-7.73739
0
LINE
8
RED2
6
CONTINUOUS
10
9.13956
20
-7.73739
11
9.13394
21
-7.7402
0
LINE
8
RED2
6
CONTINUOUS
10
9.13394
20
-7.7402
11
9.12269
21
-7.7402
0
LINE
8
RED2
6
CONTINUOUS
10
9.12269
20
-7.7402
11
9.11707
21
-7.73739
0
LINE
8
RED2
6
CONTINUOUS
10
9.11707
20
-7.73739
11
9.11426
21
-7.73176
0
LINE
8
RED2
6
CONTINUOUS
10
9.11426
20
-7.73176
11
9.11426
21
-7.70927
0
LINE
8
RED2
6
CONTINUOUS
10
9.11426
20
-7.70927
11
9.11707
21
-7.70364
0
LINE
8
RED2
6
CONTINUOUS
10
9.11707
20
-7.70364
11
9.12269
21
-7.70083
0
LINE
8
RED2
6
CONTINUOUS
10
9.12269
20
-7.70083
11
9.13394
21
-7.70083
0
LINE
8
RED2
6
CONTINUOUS
10
9.13394
20
-7.70083
11
9.13956
21
-7.70364
0
LINE
8
RED2
6
CONTINUOUS
10
9.13956
20
-7.70364
11
9.14238
21
-7.70927
0
LINE
8
RED2
6
CONTINUOUS
10
9.14238
20
-7.70927
11
9.14238
21
-7.71489
0
LINE
8
RED2
6
CONTINUOUS
10
9.14238
20
-7.71489
11
9.11426
21
-7.72052
0
LINE
8
RED2
6
CONTINUOUS
10
9.16487
20
-7.68677
11
9.16769
21
-7.68396
0
LINE
8
RED2
6
CONTINUOUS
10
9.16769
20
-7.68396
11
9.17331
21
-7.68115
0
LINE
8
RED2
6
CONTINUOUS
10
9.17331
20
-7.68115
11
9.18737
21
-7.68115
0
LINE
8
RED2
6
CONTINUOUS
10
9.18737
20
-7.68115
11
9.193
21
-7.68396
0
LINE
8
RED2
6
CONTINUOUS
10
9.193
20
-7.68396
11
9.19581
21
-7.68677
0
LINE
8
RED2
6
CONTINUOUS
10
9.19581
20
-7.68677
11
9.19862
21
-7.69239
0
LINE
8
RED2
6
CONTINUOUS
10
9.19862
20
-7.69239
11
9.19862
21
-7.69802
0
LINE
8
RED2
6
CONTINUOUS
10
9.19862
20
-7.69802
11
9.19581
21
-7.70645
0
LINE
8
RED2
6
CONTINUOUS
10
9.19581
20
-7.70645
11
9.16206
21
-7.7402
0
LINE
8
RED2
6
CONTINUOUS
10
9.16206
20
-7.7402
11
9.19862
21
-7.7402
0
LINE
8
RED2
6
CONTINUOUS
10
9.24924
20
-7.70083
11
9.24924
21
-7.7402
0
LINE
8
RED2
6
CONTINUOUS
10
9.23518
20
-7.67833
11
9.22112
21
-7.72052
0
LINE
8
RED2
6
CONTINUOUS
10
9.22112
20
-7.72052
11
9.25767
21
-7.72052
0
LINE
8
RED2
6
CONTINUOUS
10
9.28017
20
-7.7177
11
9.32517
21
-7.7177
0
LINE
8
RED2
6
CONTINUOUS
10
9.3786
20
-7.7402
11
9.3786
21
-7.68115
0
LINE
8
RED2
6
CONTINUOUS
10
9.3786
20
-7.73739
11
9.37297
21
-7.7402
0
LINE
8
RED2
6
CONTINUOUS
10
9.37297
20
-7.7402
11
9.36172
21
-7.7402
0
LINE
8
RED2
6
CONTINUOUS
10
9.36172
20
-7.7402
11
9.3561
21
-7.73739
0
LINE
8
RED2
6
CONTINUOUS
10
9.3561
20
-7.73739
11
9.35329
21
-7.73457
0
LINE
8
RED2
6
CONTINUOUS
10
9.35329
20
-7.73457
11
9.35048
21
-7.72895
0
LINE
8
RED2
6
CONTINUOUS
10
9.35048
20
-7.72895
11
9.35048
21
-7.71208
0
LINE
8
RED2
6
CONTINUOUS
10
9.35048
20
-7.71208
11
9.35329
21
-7.70645
0
LINE
8
RED2
6
CONTINUOUS
10
9.35329
20
-7.70645
11
9.3561
21
-7.70364
0
LINE
8
RED2
6
CONTINUOUS
10
9.3561
20
-7.70364
11
9.36172
21
-7.70083
0
LINE
8
RED2
6
CONTINUOUS
10
9.36172
20
-7.70083
11
9.37297
21
-7.70083
0
LINE
8
RED2
6
CONTINUOUS
10
9.37297
20
-7.70083
11
9.3786
21
-7.70364
0
LINE
8
RED2
6
CONTINUOUS
10
9.40672
20
-7.7402
11
9.40672
21
-7.70083
0
LINE
8
RED2
6
CONTINUOUS
10
9.40672
20
-7.68115
11
9.40391
21
-7.68396
0
LINE
8
RED2
6
CONTINUOUS
10
9.40391
20
-7.68396
11
9.40672
21
-7.68677
0
LINE
8
RED2
6
CONTINUOUS
10
9.40672
20
-7.68677
11
9.40953
21
-7.68396
0
LINE
8
RED2
6
CONTINUOUS
10
9.40953
20
-7.68396
11
9.40672
21
-7.68115
0
LINE
8
RED2
6
CONTINUOUS
10
9.40672
20
-7.68115
11
9.40672
21
-7.68677
0
LINE
8
RED2
6
CONTINUOUS
10
9.43484
20
-7.7402
11
9.43484
21
-7.70083
0
LINE
8
RED2
6
CONTINUOUS
10
9.43484
20
-7.71208
11
9.43765
21
-7.70645
0
LINE
8
RED2
6
CONTINUOUS
10
9.43765
20
-7.70645
11
9.44046
21
-7.70364
0
LINE
8
RED2
6
CONTINUOUS
10
9.44046
20
-7.70364
11
9.44609
21
-7.70083
0
LINE
8
RED2
6
CONTINUOUS
10
9.44609
20
-7.70083
11
9.45171
21
-7.70083
0
LINE
8
RED2
6
CONTINUOUS
10
9.46296
20
-7.70083
11
9.48546
21
-7.70083
0
LINE
8
RED2
6
CONTINUOUS
10
9.4714
20
-7.68115
11
9.4714
21
-7.73176
0
LINE
8
RED2
6
CONTINUOUS
10
9.4714
20
-7.73176
11
9.47421
21
-7.73739
0
LINE
8
RED2
6
CONTINUOUS
10
9.47421
20
-7.73739
11
9.47983
21
-7.7402
0
LINE
8
RED2
6
CONTINUOUS
10
9.47983
20
-7.7402
11
9.48546
21
-7.7402
0
LINE
8
RED2
6
CONTINUOUS
10
9.49952
20
-7.70083
11
9.51358
21
-7.7402
0
LINE
8
RED2
6
CONTINUOUS
10
9.52764
20
-7.70083
11
9.51358
21
-7.7402
0
LINE
8
RED2
6
CONTINUOUS
10
9.51358
20
-7.7402
11
9.50795
21
-7.75426
0
LINE
8
RED2
6
CONTINUOUS
10
9.50795
20
-7.75426
11
9.50514
21
-7.75707
0
LINE
8
RED2
6
CONTINUOUS
10
9.50514
20
-7.75707
11
9.49952
21
-7.75989
0
LINE
8
RED2
6
CONTINUOUS
10
9.55014
20
-7.7177
11
9.59513
21
-7.7177
0
LINE
8
RED2
6
CONTINUOUS
10
9.64856
20
-7.7402
11
9.64856
21
-7.68115
0
LINE
8
RED2
6
CONTINUOUS
10
9.64856
20
-7.73739
11
9.64294
21
-7.7402
0
LINE
8
RED2
6
CONTINUOUS
10
9.64294
20
-7.7402
11
9.63169
21
-7.7402
0
LINE
8
RED2
6
CONTINUOUS
10
9.63169
20
-7.7402
11
9.62606
21
-7.73739
0
LINE
8
RED2
6
CONTINUOUS
10
9.62606
20
-7.73739
11
9.62325
21
-7.73457
0
LINE
8
RED2
6
CONTINUOUS
10
9.62325
20
-7.73457
11
9.62044
21
-7.72895
0
LINE
8
RED2
6
CONTINUOUS
10
9.62044
20
-7.72895
11
9.62044
21
-7.71208
0
LINE
8
RED2
6
CONTINUOUS
10
9.62044
20
-7.71208
11
9.62325
21
-7.70645
0
LINE
8
RED2
6
CONTINUOUS
10
9.62325
20
-7.70645
11
9.62606
21
-7.70364
0
LINE
8
RED2
6
CONTINUOUS
10
9.62606
20
-7.70364
11
9.63169
21
-7.70083
0
LINE
8
RED2
6
CONTINUOUS
10
9.63169
20
-7.70083
11
9.64294
21
-7.70083
0
LINE
8
RED2
6
CONTINUOUS
10
9.64294
20
-7.70083
11
9.64856
21
-7.70364
0
LINE
8
RED2
6
CONTINUOUS
10
9.69918
20
-7.73739
11
9.69356
21
-7.7402
0
LINE
8
RED2
6
CONTINUOUS
10
9.69356
20
-7.7402
11
9.68231
21
-7.7402
0
LINE
8
RED2
6
CONTINUOUS
10
9.68231
20
-7.7402
11
9.67668
21
-7.73739
0
LINE
8
RED2
6
CONTINUOUS
10
9.67668
20
-7.73739
11
9.67387
21
-7.73176
0
LINE
8
RED2
6
CONTINUOUS
10
9.67387
20
-7.73176
11
9.67387
21
-7.70927
0
LINE
8
RED2
6
CONTINUOUS
10
9.67387
20
-7.70927
11
9.67668
21
-7.70364
0
LINE
8
RED2
6
CONTINUOUS
10
9.67668
20
-7.70364
11
9.68231
21
-7.70083
0
LINE
8
RED2
6
CONTINUOUS
10
9.68231
20
-7.70083
11
9.69356
21
-7.70083
0
LINE
8
RED2
6
CONTINUOUS
10
9.69356
20
-7.70083
11
9.69918
21
-7.70364
0
LINE
8
RED2
6
CONTINUOUS
10
9.69918
20
-7.70364
11
9.70199
21
-7.70927
0
LINE
8
RED2
6
CONTINUOUS
10
9.70199
20
-7.70927
11
9.70199
21
-7.71489
0
LINE
8
RED2
6
CONTINUOUS
10
9.70199
20
-7.71489
11
9.67387
21
-7.72052
0
LINE
8
RED2
6
CONTINUOUS
10
9.7273
20
-7.7402
11
9.7273
21
-7.68115
0
LINE
8
RED2
6
CONTINUOUS
10
9.7273
20
-7.70364
11
9.73293
21
-7.70083
0
LINE
8
RED2
6
CONTINUOUS
10
9.73293
20
-7.70083
11
9.74417
21
-7.70083
0
LINE
8
RED2
6
CONTINUOUS
10
9.74417
20
-7.70083
11
9.7498
21
-7.70364
0
LINE
8
RED2
6
CONTINUOUS
10
9.7498
20
-7.70364
11
9.75261
21
-7.70645
0
LINE
8
RED2
6
CONTINUOUS
10
9.75261
20
-7.70645
11
9.75542
21
-7.71208
0
LINE
8
RED2
6
CONTINUOUS
10
9.75542
20
-7.71208
11
9.75542
21
-7.72895
0
LINE
8
RED2
6
CONTINUOUS
10
9.75542
20
-7.72895
11
9.75261
21
-7.73457
0
LINE
8
RED2
6
CONTINUOUS
10
9.75261
20
-7.73457
11
9.7498
21
-7.73739
0
LINE
8
RED2
6
CONTINUOUS
10
9.7498
20
-7.73739
11
9.74417
21
-7.7402
0
LINE
8
RED2
6
CONTINUOUS
10
9.74417
20
-7.7402
11
9.73293
21
-7.7402
0
LINE
8
RED2
6
CONTINUOUS
10
9.73293
20
-7.7402
11
9.7273
21
-7.73739
0
LINE
8
RED2
6
CONTINUOUS
10
9.81166
20
-7.7402
11
9.77792
21
-7.7402
0
LINE
8
RED2
6
CONTINUOUS
10
9.79479
20
-7.7402
11
9.79479
21
-7.68115
0
LINE
8
RED2
6
CONTINUOUS
10
9.79479
20
-7.68115
11
9.78917
21
-7.68958
0
LINE
8
RED2
6
CONTINUOUS
10
9.78917
20
-7.68958
11
9.78354
21
-7.6952
0
LINE
8
RED2
6
CONTINUOUS
10
9.78354
20
-7.6952
11
9.77792
21
-7.69802
0
LINE
8
RED2
6
CONTINUOUS
10
9.86791
20
-7.7402
11
9.83416
21
-7.7402
0
LINE
8
RED2
6
CONTINUOUS
10
9.85103
20
-7.7402
11
9.85103
21
-7.68115
0
LINE
8
RED2
6
CONTINUOUS
10
9.85103
20
-7.68115
11
9.84541
21
-7.68958
0
LINE
8
RED2
6
CONTINUOUS
10
9.84541
20
-7.68958
11
9.83978
21
-7.6952
0
LINE
8
RED2
6
CONTINUOUS
10
9.83978
20
-7.6952
11
9.83416
21
-7.69802
0
LINE
8
RED2
6
CONTINUOUS
10
6.96859
20
-7.53965
11
11.2206
21
-7.53965
0
LINE
8
RED2
6
CONTINUOUS
10
10.4022
20
-7.62996
11
10.3825
21
-7.60184
0
LINE
8
RED2
6
CONTINUOUS
10
10.3685
20
-7.62996
11
10.3685
21
-7.57091
0
LINE
8
RED2
6
CONTINUOUS
10
10.3685
20
-7.57091
11
10.391
21
-7.57091
0
LINE
8
RED2
6
CONTINUOUS
10
10.391
20
-7.57091
11
10.3966
21
-7.57372
0
LINE
8
RED2
6
CONTINUOUS
10
10.3966
20
-7.57372
11
10.3994
21
-7.57653
0
LINE
8
RED2
6
CONTINUOUS
10
10.3994
20
-7.57653
11
10.4022
21
-7.58216
0
LINE
8
RED2
6
CONTINUOUS
10
10.4022
20
-7.58216
11
10.4022
21
-7.59059
0
LINE
8
RED2
6
CONTINUOUS
10
10.4022
20
-7.59059
11
10.3994
21
-7.59622
0
LINE
8
RED2
6
CONTINUOUS
10
10.3994
20
-7.59622
11
10.3966
21
-7.59903
0
LINE
8
RED2
6
CONTINUOUS
10
10.3966
20
-7.59903
11
10.391
21
-7.60184
0
LINE
8
RED2
6
CONTINUOUS
10
10.391
20
-7.60184
11
10.3685
21
-7.60184
0
LINE
8
RED2
6
CONTINUOUS
10
10.45
20
-7.62715
11
10.4444
21
-7.62996
0
LINE
8
RED2
6
CONTINUOUS
10
10.4444
20
-7.62996
11
10.4332
21
-7.62996
0
LINE
8
RED2
6
CONTINUOUS
10
10.4332
20
-7.62996
11
10.4275
21
-7.62715
0
LINE
8
RED2
6
CONTINUOUS
10
10.4275
20
-7.62715
11
10.4247
21
-7.62153
0
LINE
8
RED2
6
CONTINUOUS
10
10.4247
20
-7.62153
11
10.4247
21
-7.59903
0
LINE
8
RED2
6
CONTINUOUS
10
10.4247
20
-7.59903
11
10.4275
21
-7.59341
0
LINE
8
RED2
6
CONTINUOUS
10
10.4275
20
-7.59341
11
10.4332
21
-7.59059
0
LINE
8
RED2
6
CONTINUOUS
10
10.4332
20
-7.59059
11
10.4444
21
-7.59059
0
LINE
8
RED2
6
CONTINUOUS
10
10.4444
20
-7.59059
11
10.45
21
-7.59341
0
LINE
8
RED2
6
CONTINUOUS
10
10.45
20
-7.59341
11
10.4528
21
-7.59903
0
LINE
8
RED2
6
CONTINUOUS
10
10.4528
20
-7.59903
11
10.4528
21
-7.60465
0
LINE
8
RED2
6
CONTINUOUS
10
10.4528
20
-7.60465
11
10.4247
21
-7.61028
0
LINE
8
RED2
6
CONTINUOUS
10
10.4725
20
-7.59059
11
10.4866
21
-7.62996
0
LINE
8
RED2
6
CONTINUOUS
10
10.4866
20
-7.62996
11
10.5006
21
-7.59059
0
LINE
8
RED2
6
CONTINUOUS
10
10.5231
20
-7.62434
11
10.526
21
-7.62715
0
LINE
8
RED2
6
CONTINUOUS
10
10.526
20
-7.62715
11
10.5231
21
-7.62996
0
LINE
8
RED2
6
CONTINUOUS
10
10.5231
20
-7.62996
11
10.5203
21
-7.62715
0
LINE
8
RED2
6
CONTINUOUS
10
10.5203
20
-7.62715
11
10.5231
21
-7.62434
0
LINE
8
RED2
6
CONTINUOUS
10
10.5231
20
-7.62434
11
10.5231
21
-7.62996
0
LINE
8
RED2
6
CONTINUOUS
10
10.5231
20
-7.59341
11
10.526
21
-7.59622
0
LINE
8
RED2
6
CONTINUOUS
10
10.526
20
-7.59622
11
10.5231
21
-7.59903
0
LINE
8
RED2
6
CONTINUOUS
10
10.5231
20
-7.59903
11
10.5203
21
-7.59622
0
LINE
8
RED2
6
CONTINUOUS
10
10.5203
20
-7.59622
11
10.5231
21
-7.59341
0
LINE
8
RED2
6
CONTINUOUS
10
10.5231
20
-7.59341
11
10.5231
21
-7.59903
0
LINE
8
RED2
6
CONTINUOUS
10
7.01921
20
-7.62715
11
7.02765
21
-7.62996
0
LINE
8
RED2
6
CONTINUOUS
10
7.02765
20
-7.62996
11
7.0417
21
-7.62996
0
LINE
8
RED2
6
CONTINUOUS
10
7.0417
20
-7.62996
11
7.04733
21
-7.62715
0
LINE
8
RED2
6
CONTINUOUS
10
7.04733
20
-7.62715
11
7.05014
21
-7.62434
0
LINE
8
RED2
6
CONTINUOUS
10
7.05014
20
-7.62434
11
7.05295
21
-7.61872
0
LINE
8
RED2
6
CONTINUOUS
10
7.05295
20
-7.61872
11
7.05295
21
-7.61309
0
LINE
8
RED2
6
CONTINUOUS
10
7.05295
20
-7.61309
11
7.05014
21
-7.60747
0
LINE
8
RED2
6
CONTINUOUS
10
7.05014
20
-7.60747
11
7.04733
21
-7.60465
0
LINE
8
RED2
6
CONTINUOUS
10
7.04733
20
-7.60465
11
7.0417
21
-7.60184
0
LINE
8
RED2
6
CONTINUOUS
10
7.0417
20
-7.60184
11
7.03046
21
-7.59903
0
LINE
8
RED2
6
CONTINUOUS
10
7.03046
20
-7.59903
11
7.02483
21
-7.59622
0
LINE
8
RED2
6
CONTINUOUS
10
7.02483
20
-7.59622
11
7.02202
21
-7.59341
0
LINE
8
RED2
6
CONTINUOUS
10
7.02202
20
-7.59341
11
7.01921
21
-7.58778
0
LINE
8
RED2
6
CONTINUOUS
10
7.01921
20
-7.58778
11
7.01921
21
-7.58216
0
LINE
8
RED2
6
CONTINUOUS
10
7.01921
20
-7.58216
11
7.02202
21
-7.57653
0
LINE
8
RED2
6
CONTINUOUS
10
7.02202
20
-7.57653
11
7.02483
21
-7.57372
0
LINE
8
RED2
6
CONTINUOUS
10
7.02483
20
-7.57372
11
7.03046
21
-7.57091
0
LINE
8
RED2
6
CONTINUOUS
10
7.03046
20
-7.57091
11
7.04452
21
-7.57091
0
LINE
8
RED2
6
CONTINUOUS
10
7.04452
20
-7.57091
11
7.05295
21
-7.57372
0
LINE
8
RED2
6
CONTINUOUS
10
7.07826
20
-7.62996
11
7.07826
21
-7.59059
0
LINE
8
RED2
6
CONTINUOUS
10
7.07826
20
-7.57091
11
7.07545
21
-7.57372
0
LINE
8
RED2
6
CONTINUOUS
10
7.07545
20
-7.57372
11
7.07826
21
-7.57653
0
LINE
8
RED2
6
CONTINUOUS
10
7.07826
20
-7.57653
11
7.08107
21
-7.57372
0
LINE
8
RED2
6
CONTINUOUS
10
7.08107
20
-7.57372
11
7.07826
21
-7.57091
0
LINE
8
RED2
6
CONTINUOUS
10
7.07826
20
-7.57091
11
7.07826
21
-7.57653
0
LINE
8
RED2
6
CONTINUOUS
10
7.10076
20
-7.59059
11
7.1317
21
-7.59059
0
LINE
8
RED2
6
CONTINUOUS
10
7.1317
20
-7.59059
11
7.10076
21
-7.62996
0
LINE
8
RED2
6
CONTINUOUS
10
7.10076
20
-7.62996
11
7.1317
21
-7.62996
0
LINE
8
RED2
6
CONTINUOUS
10
7.17669
20
-7.62715
11
7.17107
21
-7.62996
0
LINE
8
RED2
6
CONTINUOUS
10
7.17107
20
-7.62996
11
7.15982
21
-7.62996
0
LINE
8
RED2
6
CONTINUOUS
10
7.15982
20
-7.62996
11
7.15419
21
-7.62715
0
LINE
8
RED2
6
CONTINUOUS
10
7.15419
20
-7.62715
11
7.15138
21
-7.62153
0
LINE
8
RED2
6
CONTINUOUS
10
7.15138
20
-7.62153
11
7.15138
21
-7.59903
0
LINE
8
RED2
6
CONTINUOUS
10
7.15138
20
-7.59903
11
7.15419
21
-7.59341
0
LINE
8
RED2
6
CONTINUOUS
10
7.15419
20
-7.59341
11
7.15982
21
-7.59059
0
LINE
8
RED2
6
CONTINUOUS
10
7.15982
20
-7.59059
11
7.17107
21
-7.59059
0
LINE
8
RED2
6
CONTINUOUS
10
7.17107
20
-7.59059
11
7.17669
21
-7.59341
0
LINE
8
RED2
6
CONTINUOUS
10
7.17669
20
-7.59341
11
7.1795
21
-7.59903
0
LINE
8
RED2
6
CONTINUOUS
10
7.1795
20
-7.59903
11
7.1795
21
-7.60465
0
LINE
8
RED2
6
CONTINUOUS
10
7.1795
20
-7.60465
11
7.15138
21
-7.61028
0
LINE
8
RED2
6
CONTINUOUS
10
7.20481
20
-7.62434
11
7.20762
21
-7.62715
0
LINE
8
RED2
6
CONTINUOUS
10
7.20762
20
-7.62715
11
7.20481
21
-7.62996
0
LINE
8
RED2
6
CONTINUOUS
10
7.20481
20
-7.62996
11
7.202
21
-7.62715
0
LINE
8
RED2
6
CONTINUOUS
10
7.202
20
-7.62715
11
7.20481
21
-7.62434
0
LINE
8
RED2
6
CONTINUOUS
10
7.20481
20
-7.62434
11
7.20481
21
-7.62996
0
LINE
8
RED2
6
CONTINUOUS
10
7.20481
20
-7.59341
11
7.20762
21
-7.59622
0
LINE
8
RED2
6
CONTINUOUS
10
7.20762
20
-7.59622
11
7.20481
21
-7.59903
0
LINE
8
RED2
6
CONTINUOUS
10
7.20481
20
-7.59903
11
7.202
21
-7.59622
0
LINE
8
RED2
6
CONTINUOUS
10
7.202
20
-7.59622
11
7.20481
21
-7.59341
0
LINE
8
RED2
6
CONTINUOUS
10
7.20481
20
-7.59341
11
7.20481
21
-7.59903
0
LINE
8
RED2
6
CONTINUOUS
10
7.27512
20
-7.61309
11
7.30324
21
-7.61309
0
LINE
8
RED2
6
CONTINUOUS
10
7.26949
20
-7.62996
11
7.28918
21
-7.57091
0
LINE
8
RED2
6
CONTINUOUS
10
7.28918
20
-7.57091
11
7.30886
21
-7.62996
0
LINE
8
RED2
6
CONTINUOUS
10
7.35386
20
-7.59059
11
7.35386
21
-7.62996
0
LINE
8
RED2
6
CONTINUOUS
10
7.3398
20
-7.5681
11
7.32574
21
-7.61028
0
LINE
8
RED2
6
CONTINUOUS
10
7.32574
20
-7.61028
11
7.36229
21
-7.61028
0
LINE
8
RED2
6
CONTINUOUS
10
10.3685
20
-7.7402
11
10.3685
21
-7.68115
0
LINE
8
RED2
6
CONTINUOUS
10
10.4219
20
-7.7402
11
10.4219
21
-7.68115
0
LINE
8
RED2
6
CONTINUOUS
10
10.4219
20
-7.73739
11
10.4163
21
-7.7402
0
LINE
8
RED2
6
CONTINUOUS
10
10.4163
20
-7.7402
11
10.405
21
-7.7402
0
LINE
8
RED2
6
CONTINUOUS
10
10.405
20
-7.7402
11
10.3994
21
-7.73739
0
LINE
8
RED2
6
CONTINUOUS
10
10.3994
20
-7.73739
11
10.3966
21
-7.73457
0
LINE
8
RED2
6
CONTINUOUS
10
10.3966
20
-7.73457
11
10.3938
21
-7.72895
0
LINE
8
RED2
6
CONTINUOUS
10
10.3938
20
-7.72895
11
10.3938
21
-7.71208
0
LINE
8
RED2
6
CONTINUOUS
10
10.3938
20
-7.71208
11
10.3966
21
-7.70645
0
LINE
8
RED2
6
CONTINUOUS
10
10.3966
20
-7.70645
11
10.3994
21
-7.70364
0
LINE
8
RED2
6
CONTINUOUS
10
10.3994
20
-7.70364
11
10.405
21
-7.70083
0
LINE
8
RED2
6
CONTINUOUS
10
10.405
20
-7.70083
11
10.4163
21
-7.70083
0
LINE
8
RED2
6
CONTINUOUS
10
10.4163
20
-7.70083
11
10.4219
21
-7.70364
0
LINE
8
RED2
6
CONTINUOUS
10
10.45
20
-7.73457
11
10.4528
21
-7.73739
0
LINE
8
RED2
6
CONTINUOUS
10
10.4528
20
-7.73739
11
10.45
21
-7.7402
0
LINE
8
RED2
6
CONTINUOUS
10
10.45
20
-7.7402
11
10.4472
21
-7.73739
0
LINE
8
RED2
6
CONTINUOUS
10
10.4472
20
-7.73739
11
10.45
21
-7.73457
0
LINE
8
RED2
6
CONTINUOUS
10
10.45
20
-7.73457
11
10.45
21
-7.7402
0
LINE
8
RED2
6
CONTINUOUS
10
10.45
20
-7.70364
11
10.4528
21
-7.70645
0
LINE
8
RED2
6
CONTINUOUS
10
10.4528
20
-7.70645
11
10.45
21
-7.70927
0
LINE
8
RED2
6
CONTINUOUS
10
10.45
20
-7.70927
11
10.4472
21
-7.70645
0
LINE
8
RED2
6
CONTINUOUS
10
10.4472
20
-7.70645
11
10.45
21
-7.70364
0
LINE
8
RED2
6
CONTINUOUS
10
10.45
20
-7.70364
11
10.45
21
-7.70927
0
LINE
8
RED2
6
CONTINUOUS
10
10.5485
20
-7.70083
11
10.5485
21
-7.7402
0
LINE
8
RED2
6
CONTINUOUS
10
10.5344
20
-7.67833
11
10.5203
21
-7.72052
0
LINE
8
RED2
6
CONTINUOUS
10
10.5203
20
-7.72052
11
10.5569
21
-7.72052
0
LINE
8
RED2
6
CONTINUOUS
10
10.6216
20
-7.67833
11
10.571
21
-7.75426
0
LINE
8
RED2
6
CONTINUOUS
10
10.6666
20
-7.70083
11
10.6666
21
-7.7402
0
LINE
8
RED2
6
CONTINUOUS
10
10.6525
20
-7.67833
11
10.6384
21
-7.72052
0
LINE
8
RED2
6
CONTINUOUS
10
10.6384
20
-7.72052
11
10.675
21
-7.72052
0
LINE
8
RED2
6
CONTINUOUS
10
6.96859
20
-7.38217
11
11.2206
21
-7.38217
0
LINE
8
RED2
6
CONTINUOUS
10
7.02483
20
-7.41072
11
7.06983
21
-7.41072
0
LINE
8
RED2
6
CONTINUOUS
10
7.03749
20
-7.48946
11
7.04733
21
-7.41072
0
LINE
8
RED2
6
CONTINUOUS
10
7.08576
20
-7.48946
11
7.09232
21
-7.43697
0
LINE
8
RED2
6
CONTINUOUS
10
7.0956
20
-7.41072
11
7.09139
21
-7.41447
0
LINE
8
RED2
6
CONTINUOUS
10
7.09139
20
-7.41447
11
7.09467
21
-7.41822
0
LINE
8
RED2
6
CONTINUOUS
10
7.09467
20
-7.41822
11
7.09889
21
-7.41447
0
LINE
8
RED2
6
CONTINUOUS
10
7.09889
20
-7.41447
11
7.0956
21
-7.41072
0
LINE
8
RED2
6
CONTINUOUS
10
7.0956
20
-7.41072
11
7.09467
21
-7.41822
0
LINE
8
RED2
6
CONTINUOUS
10
7.1181
20
-7.43697
11
7.1481
21
-7.43697
0
LINE
8
RED2
6
CONTINUOUS
10
7.13263
20
-7.41072
11
7.1242
21
-7.47822
0
LINE
8
RED2
6
CONTINUOUS
10
7.1242
20
-7.47822
11
7.12701
21
-7.48572
0
LINE
8
RED2
6
CONTINUOUS
10
7.12701
20
-7.48572
11
7.13404
21
-7.48946
0
LINE
8
RED2
6
CONTINUOUS
10
7.13404
20
-7.48946
11
7.14154
21
-7.48946
0
LINE
8
RED2
6
CONTINUOUS
10
7.17857
20
-7.48946
11
7.17154
21
-7.48572
0
LINE
8
RED2
6
CONTINUOUS
10
7.17154
20
-7.48572
11
7.16872
21
-7.47822
0
LINE
8
RED2
6
CONTINUOUS
10
7.16872
20
-7.47822
11
7.17716
21
-7.41072
0
LINE
8
RED2
6
CONTINUOUS
10
7.23856
20
-7.48572
11
7.23059
21
-7.48946
0
LINE
8
RED2
6
CONTINUOUS
10
7.23059
20
-7.48946
11
7.21559
21
-7.48946
0
LINE
8
RED2
6
CONTINUOUS
10
7.21559
20
-7.48946
11
7.20856
21
-7.48572
0
LINE
8
RED2
6
CONTINUOUS
10
7.20856
20
-7.48572
11
7.20575
21
-7.47822
0
LINE
8
RED2
6
CONTINUOUS
10
7.20575
20
-7.47822
11
7.2095
21
-7.44822
0
LINE
8
RED2
6
CONTINUOUS
10
7.2095
20
-7.44822
11
7.21419
21
-7.44072
0
LINE
8
RED2
6
CONTINUOUS
10
7.21419
20
-7.44072
11
7.22215
21
-7.43697
0
LINE
8
RED2
6
CONTINUOUS
10
7.22215
20
-7.43697
11
7.23715
21
-7.43697
0
LINE
8
RED2
6
CONTINUOUS
10
7.23715
20
-7.43697
11
7.24418
21
-7.44072
0
LINE
8
RED2
6
CONTINUOUS
10
7.24418
20
-7.44072
11
7.24699
21
-7.44822
0
LINE
8
RED2
6
CONTINUOUS
10
7.24699
20
-7.44822
11
7.24606
21
-7.45572
0
LINE
8
RED2
6
CONTINUOUS
10
7.24606
20
-7.45572
11
7.20762
21
-7.46322
0
LINE
8
RED2
6
CONTINUOUS
10
7.27605
20
-7.48196
11
7.27933
21
-7.48572
0
LINE
8
RED2
6
CONTINUOUS
10
7.27933
20
-7.48572
11
7.27511
21
-7.48946
0
LINE
8
RED2
6
CONTINUOUS
10
7.27511
20
-7.48946
11
7.27183
21
-7.48572
0
LINE
8
RED2
6
CONTINUOUS
10
7.27183
20
-7.48572
11
7.27605
21
-7.48196
0
LINE
8
RED2
6
CONTINUOUS
10
7.27605
20
-7.48196
11
7.27511
21
-7.48946
0
LINE
8
RED2
6
CONTINUOUS
10
7.28121
20
-7.44072
11
7.28449
21
-7.44447
0
LINE
8
RED2
6
CONTINUOUS
10
7.28449
20
-7.44447
11
7.28027
21
-7.44822
0
LINE
8
RED2
6
CONTINUOUS
10
7.28027
20
-7.44822
11
7.27699
21
-7.44447
0
LINE
8
RED2
6
CONTINUOUS
10
7.27699
20
-7.44447
11
7.28121
21
-7.44072
0
LINE
8
RED2
6
CONTINUOUS
10
7.28121
20
-7.44072
11
7.28027
21
-7.44822
0
LINE
8
RED2
6
CONTINUOUS
10
7.0417
20
-7.30769
11
7.02202
21
-7.30769
0
LINE
8
RED2
6
CONTINUOUS
10
7.02202
20
-7.33863
11
7.02202
21
-7.27957
0
LINE
8
RED2
6
CONTINUOUS
10
7.02202
20
-7.27957
11
7.05014
21
-7.27957
0
LINE
8
RED2
6
CONTINUOUS
10
7.07264
20
-7.33863
11
7.07264
21
-7.29926
0
LINE
8
RED2
6
CONTINUOUS
10
7.07264
20
-7.27957
11
7.06983
21
-7.28238
0
LINE
8
RED2
6
CONTINUOUS
10
7.06983
20
-7.28238
11
7.07264
21
-7.28519
0
LINE
8
RED2
6
CONTINUOUS
10
7.07264
20
-7.28519
11
7.07545
21
-7.28238
0
LINE
8
RED2
6
CONTINUOUS
10
7.07545
20
-7.28238
11
7.07264
21
-7.27957
0
LINE
8
RED2
6
CONTINUOUS
10
7.07264
20
-7.27957
11
7.07264
21
-7.28519
0
LINE
8
RED2
6
CONTINUOUS
10
7.1092
20
-7.33863
11
7.10357
21
-7.33581
0
LINE
8
RED2
6
CONTINUOUS
10
7.10357
20
-7.33581
11
7.10076
21
-7.33019
0
LINE
8
RED2
6
CONTINUOUS
10
7.10076
20
-7.33019
11
7.10076
21
-7.27957
0
LINE
8
RED2
6
CONTINUOUS
10
7.15419
20
-7.33581
11
7.14857
21
-7.33863
0
LINE
8
RED2
6
CONTINUOUS
10
7.14857
20
-7.33863
11
7.13732
21
-7.33863
0
LINE
8
RED2
6
CONTINUOUS
10
7.13732
20
-7.33863
11
7.13169
21
-7.33581
0
LINE
8
RED2
6
CONTINUOUS
10
7.13169
20
-7.33581
11
7.12888
21
-7.33019
0
LINE
8
RED2
6
CONTINUOUS
10
7.12888
20
-7.33019
11
7.12888
21
-7.30769
0
LINE
8
RED2
6
CONTINUOUS
10
7.12888
20
-7.30769
11
7.13169
21
-7.30207
0
LINE
8
RED2
6
CONTINUOUS
10
7.13169
20
-7.30207
11
7.13732
21
-7.29926
0
LINE
8
RED2
6
CONTINUOUS
10
7.13732
20
-7.29926
11
7.14857
21
-7.29926
0
LINE
8
RED2
6
CONTINUOUS
10
7.14857
20
-7.29926
11
7.15419
21
-7.30207
0
LINE
8
RED2
6
CONTINUOUS
10
7.15419
20
-7.30207
11
7.157
21
-7.30769
0
LINE
8
RED2
6
CONTINUOUS
10
7.157
20
-7.30769
11
7.157
21
-7.31331
0
LINE
8
RED2
6
CONTINUOUS
10
7.157
20
-7.31331
11
7.12888
21
-7.31894
0
LINE
8
RED2
6
CONTINUOUS
10
7.18231
20
-7.333
11
7.18512
21
-7.33581
0
LINE
8
RED2
6
CONTINUOUS
10
7.18512
20
-7.33581
11
7.18231
21
-7.33863
0
LINE
8
RED2
6
CONTINUOUS
10
7.18231
20
-7.33863
11
7.1795
21
-7.33581
0
LINE
8
RED2
6
CONTINUOUS
10
7.1795
20
-7.33581
11
7.18231
21
-7.333
0
LINE
8
RED2
6
CONTINUOUS
10
7.18231
20
-7.333
11
7.18231
21
-7.33863
0
LINE
8
RED2
6
CONTINUOUS
10
7.18231
20
-7.30207
11
7.18512
21
-7.30488
0
LINE
8
RED2
6
CONTINUOUS
10
7.18512
20
-7.30488
11
7.18231
21
-7.30769
0
LINE
8
RED2
6
CONTINUOUS
10
7.18231
20
-7.30769
11
7.1795
21
-7.30488
0
LINE
8
RED2
6
CONTINUOUS
10
7.1795
20
-7.30488
11
7.18231
21
-7.30207
0
LINE
8
RED2
6
CONTINUOUS
10
7.18231
20
-7.30207
11
7.18231
21
-7.30769
0
LINE
8
RED2
6
CONTINUOUS
10
7.25543
20
-7.29926
11
7.25543
21
-7.35831
0
LINE
8
RED2
6
CONTINUOUS
10
7.25543
20
-7.30207
11
7.26106
21
-7.29926
0
LINE
8
RED2
6
CONTINUOUS
10
7.26106
20
-7.29926
11
7.2723
21
-7.29926
0
LINE
8
RED2
6
CONTINUOUS
10
7.2723
20
-7.29926
11
7.27793
21
-7.30207
0
LINE
8
RED2
6
CONTINUOUS
10
7.27793
20
-7.30207
11
7.28074
21
-7.30488
0
LINE
8
RED2
6
CONTINUOUS
10
7.28074
20
-7.30488
11
7.28355
21
-7.3105
0
LINE
8
RED2
6
CONTINUOUS
10
7.28355
20
-7.3105
11
7.28355
21
-7.32738
0
LINE
8
RED2
6
CONTINUOUS
10
7.28355
20
-7.32738
11
7.28074
21
-7.333
0
LINE
8
RED2
6
CONTINUOUS
10
7.28074
20
-7.333
11
7.27793
21
-7.33581
0
LINE
8
RED2
6
CONTINUOUS
10
7.27793
20
-7.33581
11
7.2723
21
-7.33863
0
LINE
8
RED2
6
CONTINUOUS
10
7.2723
20
-7.33863
11
7.26106
21
-7.33863
0
LINE
8
RED2
6
CONTINUOUS
10
7.26106
20
-7.33863
11
7.25543
21
-7.33581
0
LINE
8
RED2
6
CONTINUOUS
10
7.30605
20
-7.33581
11
7.31167
21
-7.33863
0
LINE
8
RED2
6
CONTINUOUS
10
7.31167
20
-7.33863
11
7.32292
21
-7.33863
0
LINE
8
RED2
6
CONTINUOUS
10
7.32292
20
-7.33863
11
7.32854
21
-7.33581
0
LINE
8
RED2
6
CONTINUOUS
10
7.32854
20
-7.33581
11
7.33135
21
-7.33019
0
LINE
8
RED2
6
CONTINUOUS
10
7.33135
20
-7.33019
11
7.33135
21
-7.32738
0
LINE
8
RED2
6
CONTINUOUS
10
7.33135
20
-7.32738
11
7.32854
21
-7.32175
0
LINE
8
RED2
6
CONTINUOUS
10
7.32854
20
-7.32175
11
7.32292
21
-7.31894
0
LINE
8
RED2
6
CONTINUOUS
10
7.32292
20
-7.31894
11
7.31448
21
-7.31894
0
LINE
8
RED2
6
CONTINUOUS
10
7.31448
20
-7.31894
11
7.30886
21
-7.31613
0
LINE
8
RED2
6
CONTINUOUS
10
7.30886
20
-7.31613
11
7.30605
21
-7.3105
0
LINE
8
RED2
6
CONTINUOUS
10
7.30605
20
-7.3105
11
7.30605
21
-7.30769
0
LINE
8
RED2
6
CONTINUOUS
10
7.30605
20
-7.30769
11
7.30886
21
-7.30207
0
LINE
8
RED2
6
CONTINUOUS
10
7.30886
20
-7.30207
11
7.31448
21
-7.29926
0
LINE
8
RED2
6
CONTINUOUS
10
7.31448
20
-7.29926
11
7.32292
21
-7.29926
0
LINE
8
RED2
6
CONTINUOUS
10
7.32292
20
-7.29926
11
7.32854
21
-7.30207
0
LINE
8
RED2
6
CONTINUOUS
10
7.38198
20
-7.29926
11
7.38198
21
-7.33863
0
LINE
8
RED2
6
CONTINUOUS
10
7.35667
20
-7.29926
11
7.35667
21
-7.33019
0
LINE
8
RED2
6
CONTINUOUS
10
7.35667
20
-7.33019
11
7.35948
21
-7.33581
0
LINE
8
RED2
6
CONTINUOUS
10
7.35948
20
-7.33581
11
7.3651
21
-7.33863
0
LINE
8
RED2
6
CONTINUOUS
10
7.3651
20
-7.33863
11
7.37354
21
-7.33863
0
LINE
8
RED2
6
CONTINUOUS
10
7.37354
20
-7.33863
11
7.37916
21
-7.33581
0
LINE
8
RED2
6
CONTINUOUS
10
7.37916
20
-7.33581
11
7.38198
21
-7.333
0
LINE
8
RED2
6
CONTINUOUS
10
7.41009
20
-7.333
11
7.41291
21
-7.33581
0
LINE
8
RED2
6
CONTINUOUS
10
7.41291
20
-7.33581
11
7.41009
21
-7.33863
0
LINE
8
RED2
6
CONTINUOUS
10
7.41009
20
-7.33863
11
7.40728
21
-7.33581
0
LINE
8
RED2
6
CONTINUOUS
10
7.40728
20
-7.33581
11
7.41009
21
-7.333
0
LINE
8
RED2
6
CONTINUOUS
10
7.41009
20
-7.333
11
7.41009
21
-7.33863
0
LINE
8
RED2
6
CONTINUOUS
10
7.43822
20
-7.33863
11
7.43822
21
-7.27957
0
LINE
8
RED2
6
CONTINUOUS
10
7.44384
20
-7.31613
11
7.46071
21
-7.33863
0
LINE
8
RED2
6
CONTINUOUS
10
7.46071
20
-7.29926
11
7.43822
21
-7.32175
0
LINE
8
RED2
6
CONTINUOUS
10
7.48602
20
-7.33863
11
7.48602
21
-7.29926
0
LINE
8
RED2
6
CONTINUOUS
10
7.48602
20
-7.27957
11
7.48321
21
-7.28238
0
LINE
8
RED2
6
CONTINUOUS
10
7.48321
20
-7.28238
11
7.48602
21
-7.28519
0
LINE
8
RED2
6
CONTINUOUS
10
7.48602
20
-7.28519
11
7.48883
21
-7.28238
0
LINE
8
RED2
6
CONTINUOUS
10
7.48883
20
-7.28238
11
7.48602
21
-7.27957
0
LINE
8
RED2
6
CONTINUOUS
10
7.48602
20
-7.27957
11
7.48602
21
-7.28519
0
LINE
8
RED2
6
CONTINUOUS
10
7.53946
20
-7.33581
11
7.53383
21
-7.33863
0
LINE
8
RED2
6
CONTINUOUS
10
7.53383
20
-7.33863
11
7.52258
21
-7.33863
0
LINE
8
RED2
6
CONTINUOUS
10
7.52258
20
-7.33863
11
7.51696
21
-7.33581
0
LINE
8
RED2
6
CONTINUOUS
10
7.51696
20
-7.33581
11
7.51415
21
-7.333
0
LINE
8
RED2
6
CONTINUOUS
10
7.51415
20
-7.333
11
7.51133
21
-7.32738
0
LINE
8
RED2
6
CONTINUOUS
10
7.51133
20
-7.32738
11
7.51133
21
-7.3105
0
LINE
8
RED2
6
CONTINUOUS
10
7.51133
20
-7.3105
11
7.51415
21
-7.30488
0
LINE
8
RED2
6
CONTINUOUS
10
7.51415
20
-7.30488
11
7.51696
21
-7.30207
0
LINE
8
RED2
6
CONTINUOUS
10
7.51696
20
-7.30207
11
7.52258
21
-7.29926
0
LINE
8
RED2
6
CONTINUOUS
10
7.52258
20
-7.29926
11
7.53383
21
-7.29926
0
LINE
8
RED2
6
CONTINUOUS
10
7.53383
20
-7.29926
11
7.53946
21
-7.30207
0
LINE
8
RED2
6
CONTINUOUS
10
7.59007
20
-7.33863
11
7.59007
21
-7.30769
0
LINE
8
RED2
6
CONTINUOUS
10
7.59007
20
-7.30769
11
7.58726
21
-7.30207
0
LINE
8
RED2
6
CONTINUOUS
10
7.58726
20
-7.30207
11
7.58164
21
-7.29926
0
LINE
8
RED2
6
CONTINUOUS
10
7.58164
20
-7.29926
11
7.57039
21
-7.29926
0
LINE
8
RED2
6
CONTINUOUS
10
7.57039
20
-7.29926
11
7.56476
21
-7.30207
0
LINE
8
RED2
6
CONTINUOUS
10
7.59007
20
-7.33581
11
7.58445
21
-7.33863
0
LINE
8
RED2
6
CONTINUOUS
10
7.58445
20
-7.33863
11
7.57039
21
-7.33863
0
LINE
8
RED2
6
CONTINUOUS
10
7.57039
20
-7.33863
11
7.56476
21
-7.33581
0
LINE
8
RED2
6
CONTINUOUS
10
7.56476
20
-7.33581
11
7.56195
21
-7.33019
0
LINE
8
RED2
6
CONTINUOUS
10
7.56195
20
-7.33019
11
7.56195
21
-7.32456
0
LINE
8
RED2
6
CONTINUOUS
10
7.56195
20
-7.32456
11
7.56476
21
-7.31894
0
LINE
8
RED2
6
CONTINUOUS
10
7.56476
20
-7.31894
11
7.57039
21
-7.31613
0
LINE
8
RED2
6
CONTINUOUS
10
7.57039
20
-7.31613
11
7.58445
21
-7.31613
0
LINE
8
RED2
6
CONTINUOUS
10
7.58445
20
-7.31613
11
7.59007
21
-7.31331
0
LINE
8
RED2
6
CONTINUOUS
10
7.6435
20
-7.33863
11
7.6435
21
-7.27957
0
LINE
8
RED2
6
CONTINUOUS
10
7.6435
20
-7.33581
11
7.63788
21
-7.33863
0
LINE
8
RED2
6
CONTINUOUS
10
7.63788
20
-7.33863
11
7.62663
21
-7.33863
0
LINE
8
RED2
6
CONTINUOUS
10
7.62663
20
-7.33863
11
7.621
21
-7.33581
0
LINE
8
RED2
6
CONTINUOUS
10
7.621
20
-7.33581
11
7.61819
21
-7.333
0
LINE
8
RED2
6
CONTINUOUS
10
7.61819
20
-7.333
11
7.61538
21
-7.32738
0
LINE
8
RED2
6
CONTINUOUS
10
7.61538
20
-7.32738
11
7.61538
21
-7.3105
0
LINE
8
RED2
6
CONTINUOUS
10
7.61538
20
-7.3105
11
7.61819
21
-7.30488
0
LINE
8
RED2
6
CONTINUOUS
10
7.61819
20
-7.30488
11
7.621
21
-7.30207
0
LINE
8
RED2
6
CONTINUOUS
10
7.621
20
-7.30207
11
7.62663
21
-7.29926
0
LINE
8
RED2
6
CONTINUOUS
10
7.62663
20
-7.29926
11
7.63788
21
-7.29926
0
LINE
8
RED2
6
CONTINUOUS
10
7.63788
20
-7.29926
11
7.6435
21
-7.30207
0
LINE
8
RED2
6
CONTINUOUS
10
7.65756
20
-7.34425
11
7.70256
21
-7.34425
0
LINE
8
RED2
6
CONTINUOUS
10
7.71381
20
-7.33581
11
7.71943
21
-7.33863
0
LINE
8
RED2
6
CONTINUOUS
10
7.71943
20
-7.33863
11
7.73068
21
-7.33863
0
LINE
8
RED2
6
CONTINUOUS
10
7.73068
20
-7.33863
11
7.7363
21
-7.33581
0
LINE
8
RED2
6
CONTINUOUS
10
7.7363
20
-7.33581
11
7.73911
21
-7.33019
0
LINE
8
RED2
6
CONTINUOUS
10
7.73911
20
-7.33019
11
7.73911
21
-7.32738
0
LINE
8
RED2
6
CONTINUOUS
10
7.73911
20
-7.32738
11
7.7363
21
-7.32175
0
LINE
8
RED2
6
CONTINUOUS
10
7.7363
20
-7.32175
11
7.73068
21
-7.31894
0
LINE
8
RED2
6
CONTINUOUS
10
7.73068
20
-7.31894
11
7.72224
21
-7.31894
0
LINE
8
RED2
6
CONTINUOUS
10
7.72224
20
-7.31894
11
7.71662
21
-7.31613
0
LINE
8
RED2
6
CONTINUOUS
10
7.71662
20
-7.31613
11
7.71381
21
-7.3105
0
LINE
8
RED2
6
CONTINUOUS
10
7.71381
20
-7.3105
11
7.71381
21
-7.30769
0
LINE
8
RED2
6
CONTINUOUS
10
7.71381
20
-7.30769
11
7.71662
21
-7.30207
0
LINE
8
RED2
6
CONTINUOUS
10
7.71662
20
-7.30207
11
7.72224
21
-7.29926
0
LINE
8
RED2
6
CONTINUOUS
10
7.72224
20
-7.29926
11
7.73068
21
-7.29926
0
LINE
8
RED2
6
CONTINUOUS
10
7.73068
20
-7.29926
11
7.7363
21
-7.30207
0
LINE
8
RED2
6
CONTINUOUS
10
7.78974
20
-7.33581
11
7.78411
21
-7.33863
0
LINE
8
RED2
6
CONTINUOUS
10
7.78411
20
-7.33863
11
7.77286
21
-7.33863
0
LINE
8
RED2
6
CONTINUOUS
10
7.77286
20
-7.33863
11
7.76724
21
-7.33581
0
LINE
8
RED2
6
CONTINUOUS
10
7.76724
20
-7.33581
11
7.76443
21
-7.333
0
LINE
8
RED2
6
CONTINUOUS
10
7.76443
20
-7.333
11
7.76161
21
-7.32738
0
LINE
8
RED2
6
CONTINUOUS
10
7.76161
20
-7.32738
11
7.76161
21
-7.3105
0
LINE
8
RED2
6
CONTINUOUS
10
7.76161
20
-7.3105
11
7.76443
21
-7.30488
0
LINE
8
RED2
6
CONTINUOUS
10
7.76443
20
-7.30488
11
7.76724
21
-7.30207
0
LINE
8
RED2
6
CONTINUOUS
10
7.76724
20
-7.30207
11
7.77286
21
-7.29926
0
LINE
8
RED2
6
CONTINUOUS
10
7.77286
20
-7.29926
11
7.78411
21
-7.29926
0
LINE
8
RED2
6
CONTINUOUS
10
7.78411
20
-7.29926
11
7.78974
21
-7.30207
0
LINE
8
RED2
6
CONTINUOUS
10
7.81504
20
-7.33863
11
7.81504
21
-7.27957
0
LINE
8
RED2
6
CONTINUOUS
10
7.84035
20
-7.33863
11
7.84035
21
-7.30769
0
LINE
8
RED2
6
CONTINUOUS
10
7.84035
20
-7.30769
11
7.83754
21
-7.30207
0
LINE
8
RED2
6
CONTINUOUS
10
7.83754
20
-7.30207
11
7.83192
21
-7.29926
0
LINE
8
RED2
6
CONTINUOUS
10
7.83192
20
-7.29926
11
7.82348
21
-7.29926
0
LINE
8
RED2
6
CONTINUOUS
10
7.82348
20
-7.29926
11
7.81785
21
-7.30207
0
LINE
8
RED2
6
CONTINUOUS
10
7.81785
20
-7.30207
11
7.81504
21
-7.30488
0
LINE
8
RED2
6
CONTINUOUS
10
6.96859
20
-7.14595
11
11.2206
21
-7.14595
0
LINE
8
RED2
6
CONTINUOUS
10
7.01921
20
-7.22952
11
7.02765
21
-7.23233
0
LINE
8
RED2
6
CONTINUOUS
10
7.02765
20
-7.23233
11
7.0417
21
-7.23233
0
LINE
8
RED2
6
CONTINUOUS
10
7.0417
20
-7.23233
11
7.04733
21
-7.22952
0
LINE
8
RED2
6
CONTINUOUS
10
7.04733
20
-7.22952
11
7.05014
21
-7.2267
0
LINE
8
RED2
6
CONTINUOUS
10
7.05014
20
-7.2267
11
7.05295
21
-7.22108
0
LINE
8
RED2
6
CONTINUOUS
10
7.05295
20
-7.22108
11
7.05295
21
-7.21545
0
LINE
8
RED2
6
CONTINUOUS
10
7.05295
20
-7.21545
11
7.05014
21
-7.20983
0
LINE
8
RED2
6
CONTINUOUS
10
7.05014
20
-7.20983
11
7.04733
21
-7.20702
0
LINE
8
RED2
6
CONTINUOUS
10
7.04733
20
-7.20702
11
7.0417
21
-7.2042
0
LINE
8
RED2
6
CONTINUOUS
10
7.0417
20
-7.2042
11
7.03046
21
-7.20139
0
LINE
8
RED2
6
CONTINUOUS
10
7.03046
20
-7.20139
11
7.02483
21
-7.19858
0
LINE
8
RED2
6
CONTINUOUS
10
7.02483
20
-7.19858
11
7.02202
21
-7.19577
0
LINE
8
RED2
6
CONTINUOUS
10
7.02202
20
-7.19577
11
7.01921
21
-7.19015
0
LINE
8
RED2
6
CONTINUOUS
10
7.01921
20
-7.19015
11
7.01921
21
-7.18452
0
LINE
8
RED2
6
CONTINUOUS
10
7.01921
20
-7.18452
11
7.02202
21
-7.17889
0
LINE
8
RED2
6
CONTINUOUS
10
7.02202
20
-7.17889
11
7.02483
21
-7.17608
0
LINE
8
RED2
6
CONTINUOUS
10
7.02483
20
-7.17608
11
7.03046
21
-7.17327
0
LINE
8
RED2
6
CONTINUOUS
10
7.03046
20
-7.17327
11
7.04452
21
-7.17327
0
LINE
8
RED2
6
CONTINUOUS
10
7.04452
20
-7.17327
11
7.05295
21
-7.17608
0
LINE
8
RED2
6
CONTINUOUS
10
7.07826
20
-7.23233
11
7.07826
21
-7.17327
0
LINE
8
RED2
6
CONTINUOUS
10
7.10357
20
-7.23233
11
7.10357
21
-7.20139
0
LINE
8
RED2
6
CONTINUOUS
10
7.10357
20
-7.20139
11
7.10076
21
-7.19577
0
LINE
8
RED2
6
CONTINUOUS
10
7.10076
20
-7.19577
11
7.09514
21
-7.19296
0
LINE
8
RED2
6
CONTINUOUS
10
7.09514
20
-7.19296
11
7.0867
21
-7.19296
0
LINE
8
RED2
6
CONTINUOUS
10
7.0867
20
-7.19296
11
7.08107
21
-7.19577
0
LINE
8
RED2
6
CONTINUOUS
10
7.08107
20
-7.19577
11
7.07826
21
-7.19858
0
LINE
8
RED2
6
CONTINUOUS
10
7.15419
20
-7.22952
11
7.14857
21
-7.23233
0
LINE
8
RED2
6
CONTINUOUS
10
7.14857
20
-7.23233
11
7.13732
21
-7.23233
0
LINE
8
RED2
6
CONTINUOUS
10
7.13732
20
-7.23233
11
7.13169
21
-7.22952
0
LINE
8
RED2
6
CONTINUOUS
10
7.13169
20
-7.22952
11
7.12888
21
-7.22389
0
LINE
8
RED2
6
CONTINUOUS
10
7.12888
20
-7.22389
11
7.12888
21
-7.20139
0
LINE
8
RED2
6
CONTINUOUS
10
7.12888
20
-7.20139
11
7.13169
21
-7.19577
0
LINE
8
RED2
6
CONTINUOUS
10
7.13169
20
-7.19577
11
7.13732
21
-7.19296
0
LINE
8
RED2
6
CONTINUOUS
10
7.13732
20
-7.19296
11
7.14857
21
-7.19296
0
LINE
8
RED2
6
CONTINUOUS
10
7.14857
20
-7.19296
11
7.15419
21
-7.19577
0
LINE
8
RED2
6
CONTINUOUS
10
7.15419
20
-7.19577
11
7.157
21
-7.20139
0
LINE
8
RED2
6
CONTINUOUS
10
7.157
20
-7.20139
11
7.157
21
-7.20702
0
LINE
8
RED2
6
CONTINUOUS
10
7.157
20
-7.20702
11
7.12888
21
-7.21264
0
LINE
8
RED2
6
CONTINUOUS
10
7.20481
20
-7.22952
11
7.19919
21
-7.23233
0
LINE
8
RED2
6
CONTINUOUS
10
7.19919
20
-7.23233
11
7.18794
21
-7.23233
0
LINE
8
RED2
6
CONTINUOUS
10
7.18794
20
-7.23233
11
7.18231
21
-7.22952
0
LINE
8
RED2
6
CONTINUOUS
10
7.18231
20
-7.22952
11
7.1795
21
-7.22389
0
LINE
8
RED2
6
CONTINUOUS
10
7.1795
20
-7.22389
11
7.1795
21
-7.20139
0
LINE
8
RED2
6
CONTINUOUS
10
7.1795
20
-7.20139
11
7.18231
21
-7.19577
0
LINE
8
RED2
6
CONTINUOUS
10
7.18231
20
-7.19577
11
7.18794
21
-7.19296
0
LINE
8
RED2
6
CONTINUOUS
10
7.18794
20
-7.19296
11
7.19919
21
-7.19296
0
LINE
8
RED2
6
CONTINUOUS
10
7.19919
20
-7.19296
11
7.20481
21
-7.19577
0
LINE
8
RED2
6
CONTINUOUS
10
7.20481
20
-7.19577
11
7.20762
21
-7.20139
0
LINE
8
RED2
6
CONTINUOUS
10
7.20762
20
-7.20139
11
7.20762
21
-7.20702
0
LINE
8
RED2
6
CONTINUOUS
10
7.20762
20
-7.20702
11
7.1795
21
-7.21264
0
LINE
8
RED2
6
CONTINUOUS
10
7.22449
20
-7.19296
11
7.24699
21
-7.19296
0
LINE
8
RED2
6
CONTINUOUS
10
7.23293
20
-7.17327
11
7.23293
21
-7.22389
0
LINE
8
RED2
6
CONTINUOUS
10
7.23293
20
-7.22389
11
7.23574
21
-7.22952
0
LINE
8
RED2
6
CONTINUOUS
10
7.23574
20
-7.22952
11
7.24137
21
-7.23233
0
LINE
8
RED2
6
CONTINUOUS
10
7.24137
20
-7.23233
11
7.24699
21
-7.23233
0
LINE
8
RED2
6
CONTINUOUS
10
7.26667
20
-7.2267
11
7.26948
21
-7.22952
0
LINE
8
RED2
6
CONTINUOUS
10
7.26948
20
-7.22952
11
7.26667
21
-7.23233
0
LINE
8
RED2
6
CONTINUOUS
10
7.26667
20
-7.23233
11
7.26386
21
-7.22952
0
LINE
8
RED2
6
CONTINUOUS
10
7.26386
20
-7.22952
11
7.26667
21
-7.2267
0
LINE
8
RED2
6
CONTINUOUS
10
7.26667
20
-7.2267
11
7.26667
21
-7.23233
0
LINE
8
RED2
6
CONTINUOUS
10
7.26667
20
-7.19577
11
7.26948
21
-7.19858
0
LINE
8
RED2
6
CONTINUOUS
10
7.26948
20
-7.19858
11
7.26667
21
-7.20139
0
LINE
8
RED2
6
CONTINUOUS
10
7.26667
20
-7.20139
11
7.26386
21
-7.19858
0
LINE
8
RED2
6
CONTINUOUS
10
7.26386
20
-7.19858
11
7.26667
21
-7.19577
0
LINE
8
RED2
6
CONTINUOUS
10
7.26667
20
-7.19577
11
7.26667
21
-7.20139
0
LINE
8
RED2
6
CONTINUOUS
10
7.38197
20
-7.17046
11
7.33135
21
-7.24639
0
LINE
8
RED2
6
CONTINUOUS
10
7.40166
20
-7.19296
11
7.40166
21
-7.25201
0
LINE
8
RED2
6
CONTINUOUS
10
7.40166
20
-7.19577
11
7.40728
21
-7.19296
0
LINE
8
RED2
6
CONTINUOUS
10
7.40728
20
-7.19296
11
7.41853
21
-7.19296
0
LINE
8
RED2
6
CONTINUOUS
10
7.41853
20
-7.19296
11
7.42415
21
-7.19577
0
LINE
8
RED2
6
CONTINUOUS
10
7.42415
20
-7.19577
11
7.42697
21
-7.19858
0
LINE
8
RED2
6
CONTINUOUS
10
7.42697
20
-7.19858
11
7.42978
21
-7.2042
0
LINE
8
RED2
6
CONTINUOUS
10
7.42978
20
-7.2042
11
7.42978
21
-7.22108
0
LINE
8
RED2
6
CONTINUOUS
10
7.42978
20
-7.22108
11
7.42697
21
-7.2267
0
LINE
8
RED2
6
CONTINUOUS
10
7.42697
20
-7.2267
11
7.42415
21
-7.22952
0
LINE
8
RED2
6
CONTINUOUS
10
7.42415
20
-7.22952
11
7.41853
21
-7.23233
0
LINE
8
RED2
6
CONTINUOUS
10
7.41853
20
-7.23233
11
7.40728
21
-7.23233
0
LINE
8
RED2
6
CONTINUOUS
10
7.40728
20
-7.23233
11
7.40166
21
-7.22952
0
LINE
8
RED2
6
CONTINUOUS
10
7.45228
20
-7.22952
11
7.4579
21
-7.23233
0
LINE
8
RED2
6
CONTINUOUS
10
7.4579
20
-7.23233
11
7.46915
21
-7.23233
0
LINE
8
RED2
6
CONTINUOUS
10
7.46915
20
-7.23233
11
7.47477
21
-7.22952
0
LINE
8
RED2
6
CONTINUOUS
10
7.47477
20
-7.22952
11
7.47758
21
-7.22389
0
LINE
8
RED2
6
CONTINUOUS
10
7.47758
20
-7.22389
11
7.47758
21
-7.22108
0
LINE
8
RED2
6
CONTINUOUS
10
7.47758
20
-7.22108
11
7.47477
21
-7.21545
0
LINE
8
RED2
6
CONTINUOUS
10
7.47477
20
-7.21545
11
7.46915
21
-7.21264
0
LINE
8
RED2
6
CONTINUOUS
10
7.46915
20
-7.21264
11
7.46071
21
-7.21264
0
LINE
8
RED2
6
CONTINUOUS
10
7.46071
20
-7.21264
11
7.45509
21
-7.20983
0
LINE
8
RED2
6
CONTINUOUS
10
7.45509
20
-7.20983
11
7.45228
21
-7.2042
0
LINE
8
RED2
6
CONTINUOUS
10
7.45228
20
-7.2042
11
7.45228
21
-7.20139
0
LINE
8
RED2
6
CONTINUOUS
10
7.45228
20
-7.20139
11
7.45509
21
-7.19577
0
LINE
8
RED2
6
CONTINUOUS
10
7.45509
20
-7.19577
11
7.46071
21
-7.19296
0
LINE
8
RED2
6
CONTINUOUS
10
7.46071
20
-7.19296
11
7.46915
21
-7.19296
0
LINE
8
RED2
6
CONTINUOUS
10
7.46915
20
-7.19296
11
7.47477
21
-7.19577
0
LINE
8
RED2
6
CONTINUOUS
10
7.5282
20
-7.19296
11
7.5282
21
-7.23233
0
LINE
8
RED2
6
CONTINUOUS
10
7.50289
20
-7.19296
11
7.50289
21
-7.22389
0
LINE
8
RED2
6
CONTINUOUS
10
7.50289
20
-7.22389
11
7.5057
21
-7.22952
0
LINE
8
RED2
6
CONTINUOUS
10
7.5057
20
-7.22952
11
7.51133
21
-7.23233
0
LINE
8
RED2
6
CONTINUOUS
10
7.51133
20
-7.23233
11
7.51977
21
-7.23233
0
LINE
8
RED2
6
CONTINUOUS
10
7.51977
20
-7.23233
11
7.52539
21
-7.22952
0
LINE
8
RED2
6
CONTINUOUS
10
7.52539
20
-7.22952
11
7.5282
21
-7.2267
0
LINE
8
RED2
6
CONTINUOUS
10
7.5985
20
-7.17046
11
7.54789
21
-7.24639
0
LINE
8
RED2
6
CONTINUOUS
10
7.75599
20
-7.53965
11
7.75599
21
-7.65776
0
LINE
8
RED2
6
CONTINUOUS
10
10.2757
20
-7.53965
11
10.2757
21
-7.79556
0
LINE
8
LYELLOW
6
CONTINUOUS
10
2.45
20
-1.65
11
2.45
21
-2.25
0
LINE
8
LYELLOW
6
CONTINUOUS
10
2.45
20
-2.25
11
3.25
21
-2.25
0
LINE
8
LYELLOW
6
CONTINUOUS
10
3.25
20
-2.25
11
3.25
21
-1.65
0
LINE
8
LYELLOW
6
CONTINUOUS
10
3.25
20
-1.65
11
2.45
21
-1.65
0
LINE
8
RED2
6
CONTINUOUS
10
2.45
20
-1.65
11
2.45
21
-2.25
0
LINE
8
RED2
6
CONTINUOUS
10
2.45
20
-2.25
11
3.25
21
-2.25
0
LINE
8
RED2
6
CONTINUOUS
10
3.25
20
-2.25
11
3.25
21
-1.65
0
LINE
8
RED2
6
CONTINUOUS
10
3.25
20
-1.65
11
2.45
21
-1.65
0
LINE
8
RED2
6
CONTINUOUS
10
2.45
20
-1.95
11
2.25
21
-1.95
0
LINE
8
CYAN2
6
CONTINUOUS
10
2.52238
20
-1.9647
11
2.52047
21
-1.9666
0
LINE
8
CYAN2
6
CONTINUOUS
10
2.52047
20
-1.9666
11
2.51476
21
-1.9685
0
LINE
8
CYAN2
6
CONTINUOUS
10
2.51476
20
-1.9685
11
2.51095
21
-1.9685
0
LINE
8
CYAN2
6
CONTINUOUS
10
2.51095
20
-1.9685
11
2.50524
21
-1.9666
0
LINE
8
CYAN2
6
CONTINUOUS
10
2.50524
20
-1.9666
11
2.50143
21
-1.96279
0
LINE
8
CYAN2
6
CONTINUOUS
10
2.50143
20
-1.96279
11
2.49952
21
-1.95898
0
LINE
8
CYAN2
6
CONTINUOUS
10
2.49952
20
-1.95898
11
2.49762
21
-1.95136
0
LINE
8
CYAN2
6
CONTINUOUS
10
2.49762
20
-1.95136
11
2.49762
21
-1.94565
0
LINE
8
CYAN2
6
CONTINUOUS
10
2.49762
20
-1.94565
11
2.49952
21
-1.93803
0
LINE
8
CYAN2
6
CONTINUOUS
10
2.49952
20
-1.93803
11
2.50143
21
-1.93422
0
LINE
8
CYAN2
6
CONTINUOUS
10
2.50143
20
-1.93422
11
2.50524
21
-1.93041
0
LINE
8
CYAN2
6
CONTINUOUS
10
2.50524
20
-1.93041
11
2.51095
21
-1.9285
0
LINE
8
CYAN2
6
CONTINUOUS
10
2.51095
20
-1.9285
11
2.51476
21
-1.9285
0
LINE
8
CYAN2
6
CONTINUOUS
10
2.51476
20
-1.9285
11
2.52047
21
-1.93041
0
LINE
8
CYAN2
6
CONTINUOUS
10
2.52047
20
-1.93041
11
2.52238
21
-1.93231
0
LINE
8
CYAN2
6
CONTINUOUS
10
2.53381
20
-1.9285
11
2.55667
21
-1.9285
0
LINE
8
CYAN2
6
CONTINUOUS
10
2.54524
20
-1.9685
11
2.54524
21
-1.9285
0
LINE
8
CYAN2
6
CONTINUOUS
10
2.59285
20
-1.9685
11
2.57952
21
-1.94946
0
LINE
8
CYAN2
6
CONTINUOUS
10
2.57
20
-1.9685
11
2.57
21
-1.9285
0
LINE
8
CYAN2
6
CONTINUOUS
10
2.57
20
-1.9285
11
2.58524
21
-1.9285
0
LINE
8
CYAN2
6
CONTINUOUS
10
2.58524
20
-1.9285
11
2.58905
21
-1.93041
0
LINE
8
CYAN2
6
CONTINUOUS
10
2.58905
20
-1.93041
11
2.59095
21
-1.93231
0
LINE
8
CYAN2
6
CONTINUOUS
10
2.59095
20
-1.93231
11
2.59285
21
-1.93613
0
LINE
8
CYAN2
6
CONTINUOUS
10
2.59285
20
-1.93613
11
2.59285
21
-1.94184
0
LINE
8
CYAN2
6
CONTINUOUS
10
2.59285
20
-1.94184
11
2.59095
21
-1.94565
0
LINE
8
CYAN2
6
CONTINUOUS
10
2.59095
20
-1.94565
11
2.58905
21
-1.94755
0
LINE
8
CYAN2
6
CONTINUOUS
10
2.58905
20
-1.94755
11
2.58524
21
-1.94946
0
LINE
8
CYAN2
6
CONTINUOUS
10
2.58524
20
-1.94946
11
2.57
21
-1.94946
0
LINE
8
CYAN2
6
CONTINUOUS
10
2.62905
20
-1.9685
11
2.61
21
-1.9685
0
LINE
8
CYAN2
6
CONTINUOUS
10
2.61
20
-1.9685
11
2.61
21
-1.9285
0
LINE
8
RED3
6
CONTINUOUS
10
2.36143
20
-1.9411
11
2.33857
21
-1.9411
0
LINE
8
RED3
6
CONTINUOUS
10
2.35
20
-1.9411
11
2.35
21
-1.9011
0
LINE
8
RED3
6
CONTINUOUS
10
2.35
20
-1.9011
11
2.34619
21
-1.90682
0
LINE
8
RED3
6
CONTINUOUS
10
2.34619
20
-1.90682
11
2.34238
21
-1.91063
0
LINE
8
RED3
6
CONTINUOUS
10
2.34238
20
-1.91063
11
2.33857
21
-1.91253
0
LINE
8
RED2
6
CONTINUOUS
10
2.45
20
-2.15
11
2.25
21
-2.15
0
LINE
8
CYAN2
6
CONTINUOUS
10
2.52047
20
-2.13041
11
2.51667
21
-2.1285
0
LINE
8
CYAN2
6
CONTINUOUS
10
2.51667
20
-2.1285
11
2.51095
21
-2.1285
0
LINE
8
CYAN2
6
CONTINUOUS
10
2.51095
20
-2.1285
11
2.50524
21
-2.13041
0
LINE
8
CYAN2
6
CONTINUOUS
10
2.50524
20
-2.13041
11
2.50143
21
-2.13422
0
LINE
8
CYAN2
6
CONTINUOUS
10
2.50143
20
-2.13422
11
2.49952
21
-2.13803
0
LINE
8
CYAN2
6
CONTINUOUS
10
2.49952
20
-2.13803
11
2.49762
21
-2.14565
0
LINE
8
CYAN2
6
CONTINUOUS
10
2.49762
20
-2.14565
11
2.49762
21
-2.15136
0
LINE
8
CYAN2
6
CONTINUOUS
10
2.49762
20
-2.15136
11
2.49952
21
-2.15898
0
LINE
8
CYAN2
6
CONTINUOUS
10
2.49952
20
-2.15898
11
2.50143
21
-2.16279
0
LINE
8
CYAN2
6
CONTINUOUS
10
2.50143
20
-2.16279
11
2.50524
21
-2.1666
0
LINE
8
CYAN2
6
CONTINUOUS
10
2.50524
20
-2.1666
11
2.51095
21
-2.1685
0
LINE
8
CYAN2
6
CONTINUOUS
10
2.51095
20
-2.1685
11
2.51476
21
-2.1685
0
LINE
8
CYAN2
6
CONTINUOUS
10
2.51476
20
-2.1685
11
2.52047
21
-2.1666
0
LINE
8
CYAN2
6
CONTINUOUS
10
2.52047
20
-2.1666
11
2.52238
21
-2.1647
0
LINE
8
CYAN2
6
CONTINUOUS
10
2.52238
20
-2.1647
11
2.52238
21
-2.15136
0
LINE
8
CYAN2
6
CONTINUOUS
10
2.52238
20
-2.15136
11
2.51476
21
-2.15136
0
LINE
8
CYAN2
6
CONTINUOUS
10
2.53952
20
-2.1685
11
2.53952
21
-2.1285
0
LINE
8
CYAN2
6
CONTINUOUS
10
2.53952
20
-2.1285
11
2.56238
21
-2.1685
0
LINE
8
CYAN2
6
CONTINUOUS
10
2.56238
20
-2.1685
11
2.56238
21
-2.1285
0
LINE
8
CYAN2
6
CONTINUOUS
10
2.58143
20
-2.1685
11
2.58143
21
-2.1285
0
LINE
8
CYAN2
6
CONTINUOUS
10
2.58143
20
-2.1285
11
2.59095
21
-2.1285
0
LINE
8
CYAN2
6
CONTINUOUS
10
2.59095
20
-2.1285
11
2.59667
21
-2.13041
0
LINE
8
CYAN2
6
CONTINUOUS
10
2.59667
20
-2.13041
11
2.60048
21
-2.13422
0
LINE
8
CYAN2
6
CONTINUOUS
10
2.60048
20
-2.13422
11
2.60238
21
-2.13803
0
LINE
8
CYAN2
6
CONTINUOUS
10
2.60238
20
-2.13803
11
2.60428
21
-2.14565
0
LINE
8
CYAN2
6
CONTINUOUS
10
2.60428
20
-2.14565
11
2.60428
21
-2.15136
0
LINE
8
CYAN2
6
CONTINUOUS
10
2.60428
20
-2.15136
11
2.60238
21
-2.15898
0
LINE
8
CYAN2
6
CONTINUOUS
10
2.60238
20
-2.15898
11
2.60048
21
-2.16279
0
LINE
8
CYAN2
6
CONTINUOUS
10
2.60048
20
-2.16279
11
2.59667
21
-2.1666
0
LINE
8
CYAN2
6
CONTINUOUS
10
2.59667
20
-2.1666
11
2.59095
21
-2.1685
0
LINE
8
CYAN2
6
CONTINUOUS
10
2.59095
20
-2.1685
11
2.58143
21
-2.1685
0
LINE
8
RED3
6
CONTINUOUS
10
2.33857
20
-2.10491
11
2.34048
21
-2.10301
0
LINE
8
RED3
6
CONTINUOUS
10
2.34048
20
-2.10301
11
2.34428
21
-2.1011
0
LINE
8
RED3
6
CONTINUOUS
10
2.34428
20
-2.1011
11
2.35381
21
-2.1011
0
LINE
8
RED3
6
CONTINUOUS
10
2.35381
20
-2.1011
11
2.35762
21
-2.10301
0
LINE
8
RED3
6
CONTINUOUS
10
2.35762
20
-2.10301
11
2.35952
21
-2.10491
0
LINE
8
RED3
6
CONTINUOUS
10
2.35952
20
-2.10491
11
2.36143
21
-2.10872
0
LINE
8
RED3
6
CONTINUOUS
10
2.36143
20
-2.10872
11
2.36143
21
-2.11253
0
LINE
8
RED3
6
CONTINUOUS
10
2.36143
20
-2.11253
11
2.35952
21
-2.11825
0
LINE
8
RED3
6
CONTINUOUS
10
2.35952
20
-2.11825
11
2.33667
21
-2.1411
0
LINE
8
RED3
6
CONTINUOUS
10
2.33667
20
-2.1411
11
2.36143
21
-2.1411
0
LINE
8
RED2
6
CONTINUOUS
10
2.45
20
-1.75
11
2.25
21
-1.75
0
LINE
8
CYAN2
6
CONTINUOUS
10
2.49381
20
-1.7285
11
2.50714
21
-1.7685
0
LINE
8
CYAN2
6
CONTINUOUS
10
2.50714
20
-1.7685
11
2.52047
21
-1.7285
0
LINE
8
CYAN2
6
CONTINUOUS
10
2.53381
20
-1.7685
11
2.53381
21
-1.7285
0
LINE
8
CYAN2
6
CONTINUOUS
10
2.55286
20
-1.7685
11
2.55286
21
-1.7285
0
LINE
8
CYAN2
6
CONTINUOUS
10
2.55286
20
-1.7285
11
2.57571
21
-1.7685
0
LINE
8
CYAN2
6
CONTINUOUS
10
2.57571
20
-1.7685
11
2.57571
21
-1.7285
0
LINE
8
RED3
6
CONTINUOUS
10
2.33667
20
-1.7011
11
2.36143
21
-1.7011
0
LINE
8
RED3
6
CONTINUOUS
10
2.36143
20
-1.7011
11
2.34809
21
-1.71634
0
LINE
8
RED3
6
CONTINUOUS
10
2.34809
20
-1.71634
11
2.35381
21
-1.71634
0
LINE
8
RED3
6
CONTINUOUS
10
2.35381
20
-1.71634
11
2.35762
21
-1.71825
0
LINE
8
RED3
6
CONTINUOUS
10
2.35762
20
-1.71825
11
2.35952
21
-1.72015
0
LINE
8
RED3
6
CONTINUOUS
10
2.35952
20
-1.72015
11
2.36143
21
-1.72396
0
LINE
8
RED3
6
CONTINUOUS
10
2.36143
20
-1.72396
11
2.36143
21
-1.73348
0
LINE
8
RED3
6
CONTINUOUS
10
2.36143
20
-1.73348
11
2.35952
21
-1.7373
0
LINE
8
RED3
6
CONTINUOUS
10
2.35952
20
-1.7373
11
2.35762
21
-1.7392
0
LINE
8
RED3
6
CONTINUOUS
10
2.35762
20
-1.7392
11
2.35381
21
-1.7411
0
LINE
8
RED3
6
CONTINUOUS
10
2.35381
20
-1.7411
11
2.34238
21
-1.7411
0
LINE
8
RED3
6
CONTINUOUS
10
2.34238
20
-1.7411
11
2.33857
21
-1.7392
0
LINE
8
RED3
6
CONTINUOUS
10
2.33857
20
-1.7392
11
2.33667
21
-1.7373
0
LINE
8
RED2
6
CONTINUOUS
10
3.25
20
-1.75
11
3.45
21
-1.75
0
LINE
8
CYAN2
6
CONTINUOUS
10
3.09381
20
-1.75327
11
3.12428
21
-1.75327
0
LINE
8
CYAN2
6
CONTINUOUS
10
3.10904
20
-1.7685
11
3.10904
21
-1.73803
0
LINE
8
CYAN2
6
CONTINUOUS
10
3.13761
20
-1.7285
11
3.15095
21
-1.7685
0
LINE
8
CYAN2
6
CONTINUOUS
10
3.15095
20
-1.7685
11
3.16428
21
-1.7285
0
LINE
8
CYAN2
6
CONTINUOUS
10
3.18524
20
-1.7285
11
3.19285
21
-1.7285
0
LINE
8
CYAN2
6
CONTINUOUS
10
3.19285
20
-1.7285
11
3.19667
21
-1.73041
0
LINE
8
CYAN2
6
CONTINUOUS
10
3.19667
20
-1.73041
11
3.20047
21
-1.73422
0
LINE
8
CYAN2
6
CONTINUOUS
10
3.20047
20
-1.73422
11
3.20238
21
-1.74184
0
LINE
8
CYAN2
6
CONTINUOUS
10
3.20238
20
-1.74184
11
3.20238
21
-1.75517
0
LINE
8
CYAN2
6
CONTINUOUS
10
3.20238
20
-1.75517
11
3.20047
21
-1.76279
0
LINE
8
CYAN2
6
CONTINUOUS
10
3.20047
20
-1.76279
11
3.19667
21
-1.7666
0
LINE
8
CYAN2
6
CONTINUOUS
10
3.19667
20
-1.7666
11
3.19285
21
-1.7685
0
LINE
8
CYAN2
6
CONTINUOUS
10
3.19285
20
-1.7685
11
3.18524
21
-1.7685
0
LINE
8
CYAN2
6
CONTINUOUS
10
3.18524
20
-1.7685
11
3.18143
21
-1.7666
0
LINE
8
CYAN2
6
CONTINUOUS
10
3.18143
20
-1.7666
11
3.17762
21
-1.76279
0
LINE
8
CYAN2
6
CONTINUOUS
10
3.17762
20
-1.76279
11
3.17571
21
-1.75517
0
LINE
8
CYAN2
6
CONTINUOUS
10
3.17571
20
-1.75517
11
3.17571
21
-1.74184
0
LINE
8
CYAN2
6
CONTINUOUS
10
3.17571
20
-1.74184
11
3.17762
21
-1.73422
0
LINE
8
CYAN2
6
CONTINUOUS
10
3.17762
20
-1.73422
11
3.18143
21
-1.73041
0
LINE
8
CYAN2
6
CONTINUOUS
10
3.18143
20
-1.73041
11
3.18524
21
-1.7285
0
LINE
8
RED3
6
CONTINUOUS
10
3.35762
20
-1.71444
11
3.35762
21
-1.7411
0
LINE
8
RED3
6
CONTINUOUS
10
3.34809
20
-1.6992
11
3.33857
21
-1.72777
0
LINE
8
RED3
6
CONTINUOUS
10
3.33857
20
-1.72777
11
3.36333
21
-1.72777
0
LINE
8
RED2
6
CONTINUOUS
10
3.25
20
-1.95
11
3.45
21
-1.95
0
LINE
8
CYAN2
6
CONTINUOUS
10
3.07857
20
-1.9285
11
3.10143
21
-1.9285
0
LINE
8
CYAN2
6
CONTINUOUS
10
3.09
20
-1.9685
11
3.09
21
-1.9285
0
LINE
8
CYAN2
6
CONTINUOUS
10
3.13762
20
-1.9685
11
3.12429
21
-1.94946
0
LINE
8
CYAN2
6
CONTINUOUS
10
3.11476
20
-1.9685
11
3.11476
21
-1.9285
0
LINE
8
CYAN2
6
CONTINUOUS
10
3.11476
20
-1.9285
11
3.13
21
-1.9285
0
LINE
8
CYAN2
6
CONTINUOUS
10
3.13
20
-1.9285
11
3.13381
21
-1.93041
0
LINE
8
CYAN2
6
CONTINUOUS
10
3.13381
20
-1.93041
11
3.13571
21
-1.93231
0
LINE
8
CYAN2
6
CONTINUOUS
10
3.13571
20
-1.93231
11
3.13762
21
-1.93613
0
LINE
8
CYAN2
6
CONTINUOUS
10
3.13762
20
-1.93613
11
3.13762
21
-1.94184
0
LINE
8
CYAN2
6
CONTINUOUS
10
3.13762
20
-1.94184
11
3.13571
21
-1.94565
0
LINE
8
CYAN2
6
CONTINUOUS
10
3.13571
20
-1.94565
11
3.13381
21
-1.94755
0
LINE
8
CYAN2
6
CONTINUOUS
10
3.13381
20
-1.94755
11
3.13
21
-1.94946
0
LINE
8
CYAN2
6
CONTINUOUS
10
3.13
20
-1.94946
11
3.11476
21
-1.94946
0
LINE
8
CYAN2
6
CONTINUOUS
10
3.15476
20
-1.9685
11
3.15476
21
-1.9285
0
LINE
8
CYAN2
6
CONTINUOUS
10
3.17381
20
-1.9685
11
3.17381
21
-1.9285
0
LINE
8
CYAN2
6
CONTINUOUS
10
3.17381
20
-1.9285
11
3.18714
21
-1.95707
0
LINE
8
CYAN2
6
CONTINUOUS
10
3.18714
20
-1.95707
11
3.20048
21
-1.9285
0
LINE
8
CYAN2
6
CONTINUOUS
10
3.20048
20
-1.9285
11
3.20048
21
-1.9685
0
LINE
8
RED3
6
CONTINUOUS
10
3.35952
20
-1.9011
11
3.34048
21
-1.9011
0
LINE
8
RED3
6
CONTINUOUS
10
3.34048
20
-1.9011
11
3.33857
21
-1.92015
0
LINE
8
RED3
6
CONTINUOUS
10
3.33857
20
-1.92015
11
3.34048
21
-1.91825
0
LINE
8
RED3
6
CONTINUOUS
10
3.34048
20
-1.91825
11
3.34428
21
-1.91634
0
LINE
8
RED3
6
CONTINUOUS
10
3.34428
20
-1.91634
11
3.35381
21
-1.91634
0
LINE
8
RED3
6
CONTINUOUS
10
3.35381
20
-1.91634
11
3.35762
21
-1.91825
0
LINE
8
RED3
6
CONTINUOUS
10
3.35762
20
-1.91825
11
3.35952
21
-1.92015
0
LINE
8
RED3
6
CONTINUOUS
10
3.35952
20
-1.92015
11
3.36143
21
-1.92396
0
LINE
8
RED3
6
CONTINUOUS
10
3.36143
20
-1.92396
11
3.36143
21
-1.93348
0
LINE
8
RED3
6
CONTINUOUS
10
3.36143
20
-1.93348
11
3.35952
21
-1.9373
0
LINE
8
RED3
6
CONTINUOUS
10
3.35952
20
-1.9373
11
3.35762
21
-1.9392
0
LINE
8
RED3
6
CONTINUOUS
10
3.35762
20
-1.9392
11
3.35381
21
-1.9411
0
LINE
8
RED3
6
CONTINUOUS
10
3.35381
20
-1.9411
11
3.34428
21
-1.9411
0
LINE
8
RED3
6
CONTINUOUS
10
3.34428
20
-1.9411
11
3.34048
21
-1.9392
0
LINE
8
RED3
6
CONTINUOUS
10
3.34048
20
-1.9392
11
3.33857
21
-1.9373
0
LINE
8
RED2
6
CONTINUOUS
10
3.25
20
-2.15
11
3.45
21
-2.15
0
LINE
8
CYAN2
6
CONTINUOUS
10
3.15476
20
-2.1285
11
3.15857
21
-2.1285
0
LINE
8
CYAN2
6
CONTINUOUS
10
3.15857
20
-2.1285
11
3.16238
21
-2.13041
0
LINE
8
CYAN2
6
CONTINUOUS
10
3.16238
20
-2.13041
11
3.16428
21
-2.13231
0
LINE
8
CYAN2
6
CONTINUOUS
10
3.16428
20
-2.13231
11
3.16619
21
-2.13613
0
LINE
8
CYAN2
6
CONTINUOUS
10
3.16619
20
-2.13613
11
3.16809
21
-2.14374
0
LINE
8
CYAN2
6
CONTINUOUS
10
3.16809
20
-2.14374
11
3.16809
21
-2.15327
0
LINE
8
CYAN2
6
CONTINUOUS
10
3.16809
20
-2.15327
11
3.16619
21
-2.16089
0
LINE
8
CYAN2
6
CONTINUOUS
10
3.16619
20
-2.16089
11
3.16428
21
-2.1647
0
LINE
8
CYAN2
6
CONTINUOUS
10
3.16428
20
-2.1647
11
3.16238
21
-2.1666
0
LINE
8
CYAN2
6
CONTINUOUS
10
3.16238
20
-2.1666
11
3.15857
21
-2.1685
0
LINE
8
CYAN2
6
CONTINUOUS
10
3.15857
20
-2.1685
11
3.15476
21
-2.1685
0
LINE
8
CYAN2
6
CONTINUOUS
10
3.15476
20
-2.1685
11
3.15095
21
-2.1666
0
LINE
8
CYAN2
6
CONTINUOUS
10
3.15095
20
-2.1666
11
3.14904
21
-2.1647
0
LINE
8
CYAN2
6
CONTINUOUS
10
3.14904
20
-2.1647
11
3.14714
21
-2.16089
0
LINE
8
CYAN2
6
CONTINUOUS
10
3.14714
20
-2.16089
11
3.14524
21
-2.15327
0
LINE
8
CYAN2
6
CONTINUOUS
10
3.14524
20
-2.15327
11
3.14524
21
-2.14374
0
LINE
8
CYAN2
6
CONTINUOUS
10
3.14524
20
-2.14374
11
3.14714
21
-2.13613
0
LINE
8
CYAN2
6
CONTINUOUS
10
3.14714
20
-2.13613
11
3.14904
21
-2.13231
0
LINE
8
CYAN2
6
CONTINUOUS
10
3.14904
20
-2.13231
11
3.15095
21
-2.13041
0
LINE
8
CYAN2
6
CONTINUOUS
10
3.15095
20
-2.13041
11
3.15476
21
-2.1285
0
LINE
8
CYAN2
6
CONTINUOUS
10
3.17952
20
-2.1285
11
3.19285
21
-2.1685
0
LINE
8
CYAN2
6
CONTINUOUS
10
3.19285
20
-2.1685
11
3.20619
21
-2.1285
0
LINE
8
RED3
6
CONTINUOUS
10
3.35762
20
-2.1011
11
3.35
21
-2.1011
0
LINE
8
RED3
6
CONTINUOUS
10
3.35
20
-2.1011
11
3.34619
21
-2.10301
0
LINE
8
RED3
6
CONTINUOUS
10
3.34619
20
-2.10301
11
3.34428
21
-2.10491
0
LINE
8
RED3
6
CONTINUOUS
10
3.34428
20
-2.10491
11
3.34048
21
-2.11063
0
LINE
8
RED3
6
CONTINUOUS
10
3.34048
20
-2.11063
11
3.33857
21
-2.11825
0
LINE
8
RED3
6
CONTINUOUS
10
3.33857
20
-2.11825
11
3.33857
21
-2.13348
0
LINE
8
RED3
6
CONTINUOUS
10
3.33857
20
-2.13348
11
3.34048
21
-2.1373
0
LINE
8
RED3
6
CONTINUOUS
10
3.34048
20
-2.1373
11
3.34238
21
-2.1392
0
LINE
8
RED3
6
CONTINUOUS
10
3.34238
20
-2.1392
11
3.34619
21
-2.1411
0
LINE
8
RED3
6
CONTINUOUS
10
3.34619
20
-2.1411
11
3.35381
21
-2.1411
0
LINE
8
RED3
6
CONTINUOUS
10
3.35381
20
-2.1411
11
3.35762
21
-2.1392
0
LINE
8
RED3
6
CONTINUOUS
10
3.35762
20
-2.1392
11
3.35952
21
-2.1373
0
LINE
8
RED3
6
CONTINUOUS
10
3.35952
20
-2.1373
11
3.36143
21
-2.13348
0
LINE
8
RED3
6
CONTINUOUS
10
3.36143
20
-2.13348
11
3.36143
21
-2.12396
0
LINE
8
RED3
6
CONTINUOUS
10
3.36143
20
-2.12396
11
3.35952
21
-2.12015
0
LINE
8
RED3
6
CONTINUOUS
10
3.35952
20
-2.12015
11
3.35762
21
-2.11825
0
LINE
8
RED3
6
CONTINUOUS
10
3.35762
20
-2.11825
11
3.35381
21
-2.11634
0
LINE
8
RED3
6
CONTINUOUS
10
3.35381
20
-2.11634
11
3.34619
21
-2.11634
0
LINE
8
RED3
6
CONTINUOUS
10
3.34619
20
-2.11634
11
3.34238
21
-2.11825
0
LINE
8
RED3
6
CONTINUOUS
10
3.34238
20
-2.11825
11
3.34048
21
-2.12015
0
LINE
8
RED3
6
CONTINUOUS
10
3.34048
20
-2.12015
11
3.33857
21
-2.12396
0
LINE
8
CYAN2
6
CONTINUOUS
10
2.78928
20
-1.52313
11
2.78928
21
-1.47313
0
LINE
8
CYAN2
6
CONTINUOUS
10
2.78928
20
-1.47313
11
2.80833
21
-1.47313
0
LINE
8
CYAN2
6
CONTINUOUS
10
2.80833
20
-1.47313
11
2.81309
21
-1.47551
0
LINE
8
CYAN2
6
CONTINUOUS
10
2.81309
20
-1.47551
11
2.81548
21
-1.47789
0
LINE
8
CYAN2
6
CONTINUOUS
10
2.81548
20
-1.47789
11
2.81785
21
-1.48265
0
LINE
8
CYAN2
6
CONTINUOUS
10
2.81785
20
-1.48265
11
2.81785
21
-1.4898
0
LINE
8
CYAN2
6
CONTINUOUS
10
2.81785
20
-1.4898
11
2.81548
21
-1.49456
0
LINE
8
CYAN2
6
CONTINUOUS
10
2.81548
20
-1.49456
11
2.81309
21
-1.49694
0
LINE
8
CYAN2
6
CONTINUOUS
10
2.81309
20
-1.49694
11
2.80833
21
-1.49932
0
LINE
8
CYAN2
6
CONTINUOUS
10
2.80833
20
-1.49932
11
2.78928
21
-1.49932
0
LINE
8
CYAN2
6
CONTINUOUS
10
2.83691
20
-1.52075
11
2.84405
21
-1.52313
0
LINE
8
CYAN2
6
CONTINUOUS
10
2.84405
20
-1.52313
11
2.85595
21
-1.52313
0
LINE
8
CYAN2
6
CONTINUOUS
10
2.85595
20
-1.52313
11
2.86071
21
-1.52075
0
LINE
8
CYAN2
6
CONTINUOUS
10
2.86071
20
-1.52075
11
2.86309
21
-1.51837
0
LINE
8
CYAN2
6
CONTINUOUS
10
2.86309
20
-1.51837
11
2.86548
21
-1.51361
0
LINE
8
CYAN2
6
CONTINUOUS
10
2.86548
20
-1.51361
11
2.86548
21
-1.50885
0
LINE
8
CYAN2
6
CONTINUOUS
10
2.86548
20
-1.50885
11
2.86309
21
-1.50408
0
LINE
8
CYAN2
6
CONTINUOUS
10
2.86309
20
-1.50408
11
2.86071
21
-1.5017
0
LINE
8
CYAN2
6
CONTINUOUS
10
2.86071
20
-1.5017
11
2.85595
21
-1.49932
0
LINE
8
CYAN2
6
CONTINUOUS
10
2.85595
20
-1.49932
11
2.84643
21
-1.49694
0
LINE
8
CYAN2
6
CONTINUOUS
10
2.84643
20
-1.49694
11
2.84167
21
-1.49456
0
LINE
8
CYAN2
6
CONTINUOUS
10
2.84167
20
-1.49456
11
2.83928
21
-1.49218
0
LINE
8
CYAN2
6
CONTINUOUS
10
2.83928
20
-1.49218
11
2.83691
21
-1.48742
0
LINE
8
CYAN2
6
CONTINUOUS
10
2.83691
20
-1.48742
11
2.83691
21
-1.48265
0
LINE
8
CYAN2
6
CONTINUOUS
10
2.83691
20
-1.48265
11
2.83928
21
-1.47789
0
LINE
8
CYAN2
6
CONTINUOUS
10
2.83928
20
-1.47789
11
2.84167
21
-1.47551
0
LINE
8
CYAN2
6
CONTINUOUS
10
2.84167
20
-1.47551
11
2.84643
21
-1.47313
0
LINE
8
CYAN2
6
CONTINUOUS
10
2.84643
20
-1.47313
11
2.85833
21
-1.47313
0
LINE
8
CYAN2
6
CONTINUOUS
10
2.85833
20
-1.47313
11
2.86548
21
-1.47551
0
LINE
8
CYAN2
6
CONTINUOUS
10
2.91309
20
-1.52313
11
2.88452
21
-1.52313
0
LINE
8
CYAN2
6
CONTINUOUS
10
2.89881
20
-1.52313
11
2.89881
21
-1.47313
0
LINE
8
CYAN2
6
CONTINUOUS
10
2.89881
20
-1.47313
11
2.89405
21
-1.48028
0
LINE
8
CYAN2
6
CONTINUOUS
10
2.89405
20
-1.48028
11
2.88928
21
-1.48504
0
LINE
8
CYAN2
6
CONTINUOUS
10
2.88928
20
-1.48504
11
2.88452
21
-1.48742
0
LINE
8
CYAN2
6
CONTINUOUS
10
2.47619
20
-1.62313
11
2.47619
21
-1.57313
0
LINE
8
CYAN2
6
CONTINUOUS
10
2.47619
20
-1.57313
11
2.49524
21
-1.57313
0
LINE
8
CYAN2
6
CONTINUOUS
10
2.49524
20
-1.57313
11
2.5
21
-1.57551
0
LINE
8
CYAN2
6
CONTINUOUS
10
2.5
20
-1.57551
11
2.50238
21
-1.57789
0
LINE
8
CYAN2
6
CONTINUOUS
10
2.50238
20
-1.57789
11
2.50476
21
-1.58265
0
LINE
8
CYAN2
6
CONTINUOUS
10
2.50476
20
-1.58265
11
2.50476
21
-1.5898
0
LINE
8
CYAN2
6
CONTINUOUS
10
2.50476
20
-1.5898
11
2.50238
21
-1.59456
0
LINE
8
CYAN2
6
CONTINUOUS
10
2.50238
20
-1.59456
11
2.5
21
-1.59694
0
LINE
8
CYAN2
6
CONTINUOUS
10
2.5
20
-1.59694
11
2.49524
21
-1.59932
0
LINE
8
CYAN2
6
CONTINUOUS
10
2.49524
20
-1.59932
11
2.47619
21
-1.59932
0
LINE
8
CYAN2
6
CONTINUOUS
10
2.52619
20
-1.62313
11
2.52619
21
-1.57313
0
LINE
8
CYAN2
6
CONTINUOUS
10
2.52619
20
-1.57313
11
2.53809
21
-1.57313
0
LINE
8
CYAN2
6
CONTINUOUS
10
2.53809
20
-1.57313
11
2.54524
21
-1.57551
0
LINE
8
CYAN2
6
CONTINUOUS
10
2.54524
20
-1.57551
11
2.55
21
-1.58028
0
LINE
8
CYAN2
6
CONTINUOUS
10
2.55
20
-1.58028
11
2.55238
21
-1.58504
0
LINE
8
CYAN2
6
CONTINUOUS
10
2.55238
20
-1.58504
11
2.55476
21
-1.59456
0
LINE
8
CYAN2
6
CONTINUOUS
10
2.55476
20
-1.59456
11
2.55476
21
-1.6017
0
LINE
8
CYAN2
6
CONTINUOUS
10
2.55476
20
-1.6017
11
2.55238
21
-1.61122
0
LINE
8
CYAN2
6
CONTINUOUS
10
2.55238
20
-1.61122
11
2.55
21
-1.61599
0
LINE
8
CYAN2
6
CONTINUOUS
10
2.55
20
-1.61599
11
2.54524
21
-1.62075
0
LINE
8
CYAN2
6
CONTINUOUS
10
2.54524
20
-1.62075
11
2.53809
21
-1.62313
0
LINE
8
CYAN2
6
CONTINUOUS
10
2.53809
20
-1.62313
11
2.52619
21
-1.62313
0
LINE
8
CYAN2
6
CONTINUOUS
10
2.60952
20
-1.62789
11
2.60476
21
-1.62551
0
LINE
8
CYAN2
6
CONTINUOUS
10
2.60476
20
-1.62551
11
2.6
21
-1.62075
0
LINE
8
CYAN2
6
CONTINUOUS
10
2.6
20
-1.62075
11
2.59286
21
-1.61361
0
LINE
8
CYAN2
6
CONTINUOUS
10
2.59286
20
-1.61361
11
2.58809
21
-1.61122
0
LINE
8
CYAN2
6
CONTINUOUS
10
2.58809
20
-1.61122
11
2.58333
21
-1.61122
0
LINE
8
CYAN2
6
CONTINUOUS
10
2.58571
20
-1.62313
11
2.58095
21
-1.62075
0
LINE
8
CYAN2
6
CONTINUOUS
10
2.58095
20
-1.62075
11
2.57619
21
-1.61599
0
LINE
8
CYAN2
6
CONTINUOUS
10
2.57619
20
-1.61599
11
2.57381
21
-1.60646
0
LINE
8
CYAN2
6
CONTINUOUS
10
2.57381
20
-1.60646
11
2.57381
21
-1.5898
0
LINE
8
CYAN2
6
CONTINUOUS
10
2.57381
20
-1.5898
11
2.57619
21
-1.58028
0
LINE
8
CYAN2
6
CONTINUOUS
10
2.57619
20
-1.58028
11
2.58095
21
-1.57551
0
LINE
8
CYAN2
6
CONTINUOUS
10
2.58095
20
-1.57551
11
2.58571
21
-1.57313
0
LINE
8
CYAN2
6
CONTINUOUS
10
2.58571
20
-1.57313
11
2.59524
21
-1.57313
0
LINE
8
CYAN2
6
CONTINUOUS
10
2.59524
20
-1.57313
11
2.6
21
-1.57551
0
LINE
8
CYAN2
6
CONTINUOUS
10
2.6
20
-1.57551
11
2.60476
21
-1.58028
0
LINE
8
CYAN2
6
CONTINUOUS
10
2.60476
20
-1.58028
11
2.60714
21
-1.5898
0
LINE
8
CYAN2
6
CONTINUOUS
10
2.60714
20
-1.5898
11
2.60714
21
-1.60646
0
LINE
8
CYAN2
6
CONTINUOUS
10
2.60714
20
-1.60646
11
2.60476
21
-1.61599
0
LINE
8
CYAN2
6
CONTINUOUS
10
2.60476
20
-1.61599
11
2.6
21
-1.62075
0
LINE
8
CYAN2
6
CONTINUOUS
10
2.6
20
-1.62075
11
2.59524
21
-1.62313
0
LINE
8
CYAN2
6
CONTINUOUS
10
2.59524
20
-1.62313
11
2.58571
21
-1.62313
0
LINE
8
CYAN2
6
CONTINUOUS
10
2.62857
20
-1.59694
11
2.64524
21
-1.59694
0
LINE
8
CYAN2
6
CONTINUOUS
10
2.65238
20
-1.62313
11
2.62857
21
-1.62313
0
LINE
8
CYAN2
6
CONTINUOUS
10
2.62857
20
-1.62313
11
2.62857
21
-1.57313
0
LINE
8
CYAN2
6
CONTINUOUS
10
2.62857
20
-1.57313
11
2.65238
21
-1.57313
0
LINE
8
CYAN2
6
CONTINUOUS
10
2.7
20
-1.62313
11
2.67143
21
-1.62313
0
LINE
8
CYAN2
6
CONTINUOUS
10
2.68571
20
-1.62313
11
2.68571
21
-1.57313
0
LINE
8
CYAN2
6
CONTINUOUS
10
2.68571
20
-1.57313
11
2.68095
21
-1.58028
0
LINE
8
CYAN2
6
CONTINUOUS
10
2.68095
20
-1.58028
11
2.67619
21
-1.58504
0
LINE
8
CYAN2
6
CONTINUOUS
10
2.67619
20
-1.58504
11
2.67143
21
-1.58742
0
LINE
8
CYAN2
6
CONTINUOUS
10
2.74524
20
-1.57313
11
2.72143
21
-1.57313
0
LINE
8
CYAN2
6
CONTINUOUS
10
2.72143
20
-1.57313
11
2.71905
21
-1.59694
0
LINE
8
CYAN2
6
CONTINUOUS
10
2.71905
20
-1.59694
11
2.72143
21
-1.59456
0
LINE
8
CYAN2
6
CONTINUOUS
10
2.72143
20
-1.59456
11
2.72619
21
-1.59218
0
LINE
8
CYAN2
6
CONTINUOUS
10
2.72619
20
-1.59218
11
2.73809
21
-1.59218
0
LINE
8
CYAN2
6
CONTINUOUS
10
2.73809
20
-1.59218
11
2.74285
21
-1.59456
0
LINE
8
CYAN2
6
CONTINUOUS
10
2.74285
20
-1.59456
11
2.74524
21
-1.59694
0
LINE
8
CYAN2
6
CONTINUOUS
10
2.74524
20
-1.59694
11
2.74762
21
-1.6017
0
LINE
8
CYAN2
6
CONTINUOUS
10
2.74762
20
-1.6017
11
2.74762
21
-1.61361
0
LINE
8
CYAN2
6
CONTINUOUS
10
2.74762
20
-1.61361
11
2.74524
21
-1.61837
0
LINE
8
CYAN2
6
CONTINUOUS
10
2.74524
20
-1.61837
11
2.74285
21
-1.62075
0
LINE
8
CYAN2
6
CONTINUOUS
10
2.74285
20
-1.62075
11
2.73809
21
-1.62313
0
LINE
8
CYAN2
6
CONTINUOUS
10
2.73809
20
-1.62313
11
2.72619
21
-1.62313
0
LINE
8
CYAN2
6
CONTINUOUS
10
2.72619
20
-1.62313
11
2.72143
21
-1.62075
0
LINE
8
CYAN2
6
CONTINUOUS
10
2.72143
20
-1.62075
11
2.71905
21
-1.61837
0
LINE
8
CYAN2
6
CONTINUOUS
10
2.76904
20
-1.60408
11
2.80714
21
-1.60408
0
LINE
8
CYAN2
6
CONTINUOUS
10
2.86428
20
-1.62789
11
2.85952
21
-1.62551
0
LINE
8
CYAN2
6
CONTINUOUS
10
2.85952
20
-1.62551
11
2.85476
21
-1.62075
0
LINE
8
CYAN2
6
CONTINUOUS
10
2.85476
20
-1.62075
11
2.84762
21
-1.61361
0
LINE
8
CYAN2
6
CONTINUOUS
10
2.84762
20
-1.61361
11
2.84285
21
-1.61122
0
LINE
8
CYAN2
6
CONTINUOUS
10
2.84285
20
-1.61122
11
2.83809
21
-1.61122
0
LINE
8
CYAN2
6
CONTINUOUS
10
2.84047
20
-1.62313
11
2.83571
21
-1.62075
0
LINE
8
CYAN2
6
CONTINUOUS
10
2.83571
20
-1.62075
11
2.83095
21
-1.61599
0
LINE
8
CYAN2
6
CONTINUOUS
10
2.83095
20
-1.61599
11
2.82857
21
-1.60646
0
LINE
8
CYAN2
6
CONTINUOUS
10
2.82857
20
-1.60646
11
2.82857
21
-1.5898
0
LINE
8
CYAN2
6
CONTINUOUS
10
2.82857
20
-1.5898
11
2.83095
21
-1.58028
0
LINE
8
CYAN2
6
CONTINUOUS
10
2.83095
20
-1.58028
11
2.83571
21
-1.57551
0
LINE
8
CYAN2
6
CONTINUOUS
10
2.83571
20
-1.57551
11
2.84047
21
-1.57313
0
LINE
8
CYAN2
6
CONTINUOUS
10
2.84047
20
-1.57313
11
2.85
21
-1.57313
0
LINE
8
CYAN2
6
CONTINUOUS
10
2.85
20
-1.57313
11
2.85476
21
-1.57551
0
LINE
8
CYAN2
6
CONTINUOUS
10
2.85476
20
-1.57551
11
2.85952
21
-1.58028
0
LINE
8
CYAN2
6
CONTINUOUS
10
2.85952
20
-1.58028
11
2.8619
21
-1.5898
0
LINE
8
CYAN2
6
CONTINUOUS
10
2.8619
20
-1.5898
11
2.8619
21
-1.60646
0
LINE
8
CYAN2
6
CONTINUOUS
10
2.8619
20
-1.60646
11
2.85952
21
-1.61599
0
LINE
8
CYAN2
6
CONTINUOUS
10
2.85952
20
-1.61599
11
2.85476
21
-1.62075
0
LINE
8
CYAN2
6
CONTINUOUS
10
2.85476
20
-1.62075
11
2.85
21
-1.62313
0
LINE
8
CYAN2
6
CONTINUOUS
10
2.85
20
-1.62313
11
2.84047
21
-1.62313
0
LINE
8
CYAN2
6
CONTINUOUS
10
2.88095
20
-1.57789
11
2.88333
21
-1.57551
0
LINE
8
CYAN2
6
CONTINUOUS
10
2.88333
20
-1.57551
11
2.88809
21
-1.57313
0
LINE
8
CYAN2
6
CONTINUOUS
10
2.88809
20
-1.57313
11
2.9
21
-1.57313
0
LINE
8
CYAN2
6
CONTINUOUS
10
2.9
20
-1.57313
11
2.90476
21
-1.57551
0
LINE
8
CYAN2
6
CONTINUOUS
10
2.90476
20
-1.57551
11
2.90714
21
-1.57789
0
LINE
8
CYAN2
6
CONTINUOUS
10
2.90714
20
-1.57789
11
2.90952
21
-1.58265
0
LINE
8
CYAN2
6
CONTINUOUS
10
2.90952
20
-1.58265
11
2.90952
21
-1.58742
0
LINE
8
CYAN2
6
CONTINUOUS
10
2.90952
20
-1.58742
11
2.90714
21
-1.59456
0
LINE
8
CYAN2
6
CONTINUOUS
10
2.90714
20
-1.59456
11
2.87857
21
-1.62313
0
LINE
8
CYAN2
6
CONTINUOUS
10
2.87857
20
-1.62313
11
2.90952
21
-1.62313
0
LINE
8
CYAN2
6
CONTINUOUS
10
2.95238
20
-1.5898
11
2.95238
21
-1.62313
0
LINE
8
CYAN2
6
CONTINUOUS
10
2.94047
20
-1.57075
11
2.92857
21
-1.60646
0
LINE
8
CYAN2
6
CONTINUOUS
10
2.92857
20
-1.60646
11
2.95952
21
-1.60646
0
LINE
8
CYAN2
6
CONTINUOUS
10
2.97857
20
-1.60408
11
3.01667
21
-1.60408
0
LINE
8
CYAN2
6
CONTINUOUS
10
3.03809
20
-1.62075
11
3.04524
21
-1.62313
0
LINE
8
CYAN2
6
CONTINUOUS
10
3.04524
20
-1.62313
11
3.05714
21
-1.62313
0
LINE
8
CYAN2
6
CONTINUOUS
10
3.05714
20
-1.62313
11
3.0619
21
-1.62075
0
LINE
8
CYAN2
6
CONTINUOUS
10
3.0619
20
-1.62075
11
3.06428
21
-1.61837
0
LINE
8
CYAN2
6
CONTINUOUS
10
3.06428
20
-1.61837
11
3.06667
21
-1.61361
0
LINE
8
CYAN2
6
CONTINUOUS
10
3.06667
20
-1.61361
11
3.06667
21
-1.60885
0
LINE
8
CYAN2
6
CONTINUOUS
10
3.06667
20
-1.60885
11
3.06428
21
-1.60408
0
LINE
8
CYAN2
6
CONTINUOUS
10
3.06428
20
-1.60408
11
3.0619
21
-1.6017
0
LINE
8
CYAN2
6
CONTINUOUS
10
3.0619
20
-1.6017
11
3.05714
21
-1.59932
0
LINE
8
CYAN2
6
CONTINUOUS
10
3.05714
20
-1.59932
11
3.04762
21
-1.59694
0
LINE
8
CYAN2
6
CONTINUOUS
10
3.04762
20
-1.59694
11
3.04285
21
-1.59456
0
LINE
8
CYAN2
6
CONTINUOUS
10
3.04285
20
-1.59456
11
3.04047
21
-1.59218
0
LINE
8
CYAN2
6
CONTINUOUS
10
3.04047
20
-1.59218
11
3.03809
21
-1.58742
0
LINE
8
CYAN2
6
CONTINUOUS
10
3.03809
20
-1.58742
11
3.03809
21
-1.58265
0
LINE
8
CYAN2
6
CONTINUOUS
10
3.03809
20
-1.58265
11
3.04047
21
-1.57789
0
LINE
8
CYAN2
6
CONTINUOUS
10
3.04047
20
-1.57789
11
3.04285
21
-1.57551
0
LINE
8
CYAN2
6
CONTINUOUS
10
3.04285
20
-1.57551
11
3.04762
21
-1.57313
0
LINE
8
CYAN2
6
CONTINUOUS
10
3.04762
20
-1.57313
11
3.05952
21
-1.57313
0
LINE
8
CYAN2
6
CONTINUOUS
10
3.05952
20
-1.57313
11
3.06667
21
-1.57551
0
LINE
8
CYAN2
6
CONTINUOUS
10
3.1119
20
-1.57313
11
3.08809
21
-1.57313
0
LINE
8
CYAN2
6
CONTINUOUS
10
3.08809
20
-1.57313
11
3.08571
21
-1.59694
0
LINE
8
CYAN2
6
CONTINUOUS
10
3.08571
20
-1.59694
11
3.08809
21
-1.59456
0
LINE
8
CYAN2
6
CONTINUOUS
10
3.08809
20
-1.59456
11
3.09285
21
-1.59218
0
LINE
8
CYAN2
6
CONTINUOUS
10
3.09285
20
-1.59218
11
3.10476
21
-1.59218
0
LINE
8
CYAN2
6
CONTINUOUS
10
3.10476
20
-1.59218
11
3.10952
21
-1.59456
0
LINE
8
CYAN2
6
CONTINUOUS
10
3.10952
20
-1.59456
11
3.1119
21
-1.59694
0
LINE
8
CYAN2
6
CONTINUOUS
10
3.1119
20
-1.59694
11
3.11428
21
-1.6017
0
LINE
8
CYAN2
6
CONTINUOUS
10
3.11428
20
-1.6017
11
3.11428
21
-1.61361
0
LINE
8
CYAN2
6
CONTINUOUS
10
3.11428
20
-1.61361
11
3.1119
21
-1.61837
0
LINE
8
CYAN2
6
CONTINUOUS
10
3.1119
20
-1.61837
11
3.10952
21
-1.62075
0
LINE
8
CYAN2
6
CONTINUOUS
10
3.10952
20
-1.62075
11
3.10476
21
-1.62313
0
LINE
8
CYAN2
6
CONTINUOUS
10
3.10476
20
-1.62313
11
3.09285
21
-1.62313
0
LINE
8
CYAN2
6
CONTINUOUS
10
3.09285
20
-1.62313
11
3.08809
21
-1.62075
0
LINE
8
CYAN2
6
CONTINUOUS
10
3.08809
20
-1.62075
11
3.08571
21
-1.61837
0
LINE
8
CYAN2
6
CONTINUOUS
10
3.13571
20
-1.60408
11
3.17381
21
-1.60408
0
LINE
8
CYAN2
6
CONTINUOUS
10
3.19761
20
-1.62313
11
3.19761
21
-1.57313
0
LINE
8
CYAN2
6
CONTINUOUS
10
3.19761
20
-1.57313
11
3.20952
21
-1.57313
0
LINE
8
CYAN2
6
CONTINUOUS
10
3.20952
20
-1.57313
11
3.21666
21
-1.57551
0
LINE
8
CYAN2
6
CONTINUOUS
10
3.21666
20
-1.57551
11
3.22143
21
-1.58028
0
LINE
8
CYAN2
6
CONTINUOUS
10
3.22143
20
-1.58028
11
3.22381
21
-1.58504
0
LINE
8
CYAN2
6
CONTINUOUS
10
3.22381
20
-1.58504
11
3.22619
21
-1.59456
0
LINE
8
CYAN2
6
CONTINUOUS
10
3.22619
20
-1.59456
11
3.22619
21
-1.6017
0
LINE
8
CYAN2
6
CONTINUOUS
10
3.22619
20
-1.6017
11
3.22381
21
-1.61122
0
LINE
8
CYAN2
6
CONTINUOUS
10
3.22381
20
-1.61122
11
3.22143
21
-1.61599
0
LINE
8
CYAN2
6
CONTINUOUS
10
3.22143
20
-1.61599
11
3.21666
21
-1.62075
0
LINE
8
CYAN2
6
CONTINUOUS
10
3.21666
20
-1.62075
11
3.20952
21
-1.62313
0
LINE
8
CYAN2
6
CONTINUOUS
10
3.20952
20
-1.62313
11
3.19761
21
-1.62313
  0
ENDSEC
  0
EOF
