M48
INCH,TZ
T1C0.0157
T2C0.0157
T3C0.0200
T4C0.0315
T5C0.0354
T6C0.0394
T7C0.0402
T8C0.0433
T9C0.0472
T10C0.0512
T11C0.0520
T12C0.0551
T13C0.0591
T14C0.0630
T15C0.1024
%
G90
G05
T1
X10354Y-45866
X15748Y-41693
X18228Y-42913
X18543Y-45787
X37992Y-19665
X48681Y-20600
X66890Y-31693
X66920Y-40860
X70394Y-36929
T3
X50000Y-18898
X50000Y-19685
T4
X15354Y-25984
X15354Y-26772
X15354Y-46457
X15354Y-47244
X16142Y-25984
X16142Y-26772
X16142Y-46457
X16142Y-47244
X17384Y-39055
X17384Y-40039
X17463Y-28425
X17463Y-29409
X18778Y-24823
X18778Y-26004
X22778Y-24823
X22778Y-26004
X23425Y-15923
X23425Y-19923
X24352Y-23906
X24352Y-24906
X24352Y-25906
X24990Y-17205
X25974Y-17205
X26819Y-27157
X27067Y-17195
X27352Y-23906
X27352Y-24906
X27352Y-25906
X28051Y-17195
X29016Y-22896
X29016Y-25896
X29360Y-16907
X29360Y-20907
X30157Y-21760
X30157Y-25760
X30819Y-27157
X31937Y-24636
X31965Y-25976
X31965Y-27299
X35925Y-20630
X35937Y-24636
X35965Y-25976
X35965Y-27299
X36909Y-20630
X37008Y-25984
X37008Y-26772
X37795Y-25984
X37795Y-26772
X40630Y-29409
X40945Y-42520
X40945Y-43307
X41614Y-29409
X41732Y-42520
X41732Y-43307
X43035Y-41311
X43035Y-42295
X45728Y-20591
X46713Y-20591
X51043Y-17114
X51457Y-18433
X51457Y-22433
X52028Y-17114
X55709Y-21929
X57677Y-21929
X57795Y-18386
X57795Y-19370
X59724Y-22520
X59724Y-24488
X61496Y-23504
X61496Y-25472
X62456Y-17559
X63630Y-41260
X63630Y-42244
X64424Y-17559
X64791Y-32795
X65709Y-11732
X65776Y-32795
X66535Y-25984
X66535Y-26772
X66535Y-46457
X66535Y-47244
X67323Y-25984
X67323Y-26772
X67323Y-46457
X67323Y-47244
X67677Y-11732
T5
X16575Y-31102
X16575Y-41732
X17075Y-31102
X17075Y-41732
X17575Y-31102
X17575Y-41732
X18075Y-31102
X18075Y-41732
X25827Y-18898
X26327Y-18898
X26827Y-18898
X27327Y-18898
X35669Y-18898
X36169Y-18898
X36669Y-18898
X37169Y-18898
X40591Y-31102
X40591Y-41732
X41091Y-31102
X41091Y-41732
X41591Y-31102
X41591Y-41732
X42091Y-31102
X42091Y-41732
X45512Y-18898
X46012Y-18898
X46512Y-18898
X47012Y-18898
X55354Y-18898
X55854Y-18898
X56354Y-18898
X56854Y-18898
X64606Y-31102
X64606Y-41732
X65106Y-31102
X65106Y-41732
X65606Y-31102
X65606Y-41732
X66106Y-31102
X66106Y-41732
T6
X19524Y-40858
X19524Y-41858
X19994Y-32662
X20524Y-40858
X20524Y-41858
X20994Y-32662
X21524Y-40858
X21524Y-41858
X21994Y-32662
X22524Y-40858
X22524Y-41858
X23524Y-40858
X23524Y-41858
X23720Y-12402
X23720Y-13386
X23720Y-14370
X24524Y-40858
X24524Y-41858
X25524Y-40858
X25524Y-41858
X26524Y-40858
X26524Y-41858
X26953Y-20807
X26953Y-21807
X26953Y-22807
X27524Y-40858
X27524Y-41858
X27953Y-20807
X27953Y-21807
X27953Y-22807
X28524Y-40858
X28524Y-41858
X29429Y-12402
X29429Y-14370
X29524Y-40858
X29524Y-41858
X30524Y-40858
X30524Y-41858
X31524Y-40858
X31524Y-41858
X32524Y-40858
X32524Y-41858
X33524Y-40858
X33524Y-41858
X34524Y-40858
X34524Y-41858
X35524Y-40858
X35524Y-41858
X36524Y-40858
X36524Y-41858
X37524Y-40858
X37524Y-41858
X38524Y-40858
X38524Y-41858
X44734Y-35496
X44734Y-36496
X44734Y-37496
X44734Y-38496
X46343Y-26920
X46343Y-27920
X46343Y-28920
X46343Y-29920
X46343Y-30920
X46343Y-31920
X46343Y-32920
X46343Y-33920
X46343Y-34920
X46343Y-35920
X46343Y-36920
X46343Y-37920
X46343Y-38920
X46343Y-39920
X46343Y-40920
X46343Y-41920
X46343Y-42920
X46343Y-43920
X46343Y-44920
X46343Y-45920
X47343Y-26920
X47343Y-27920
X47343Y-28920
X47343Y-29920
X47343Y-30920
X47343Y-31920
X47343Y-32920
X47343Y-33920
X47343Y-34920
X47343Y-35920
X47343Y-36920
X47343Y-37920
X47343Y-38920
X47343Y-39920
X47343Y-40920
X47343Y-41920
X47343Y-42920
X47343Y-43920
X47343Y-44920
X47343Y-45920
X51417Y-24961
X53248Y-12402
X53248Y-13386
X53248Y-14370
X53331Y-22510
X53386Y-24961
X54331Y-22510
X56732Y-23989
X56732Y-25958
X58957Y-12402
X58957Y-14370
X59992Y-46910
X59992Y-47910
X60636Y-29467
X60636Y-30467
X60636Y-31467
X60992Y-46910
X60992Y-47910
X61636Y-29467
X61636Y-30467
X61636Y-31467
X61992Y-46910
X61992Y-47910
X63202Y-14764
X65170Y-14764
T7
X31051Y-15791
X31051Y-22791
X32051Y-15791
X32051Y-22791
X33051Y-15791
X33051Y-22791
X34051Y-15791
X34051Y-22791
X35051Y-15791
X35051Y-22791
X36051Y-15791
X36051Y-22791
X37051Y-15791
X37051Y-22791
X38051Y-15791
X38051Y-22791
X39051Y-15791
X39051Y-22791
X40051Y-15791
X40051Y-22791
X41051Y-15791
X41051Y-22791
X42051Y-15791
X42051Y-22791
X43051Y-15791
X43051Y-22791
X44051Y-15791
X44051Y-22791
X45051Y-15791
X45051Y-22791
X46051Y-15791
X46051Y-22791
X47051Y-15791
X47051Y-22791
X48051Y-15791
X48051Y-22791
X49051Y-15791
X49051Y-22791
X50051Y-15791
X50051Y-22791
T8
X58900Y-16960
X58900Y-20960
T9
X9350Y-25394
X9350Y-27362
X9350Y-45866
X9350Y-47835
X14272Y-25394
X14272Y-27362
X14272Y-45866
X14272Y-47835
X38878Y-25394
X38878Y-27362
X38878Y-45866
X38878Y-47835
X43799Y-25394
X43799Y-27362
X43799Y-45866
X43799Y-47835
X68406Y-25394
X68406Y-27362
X68406Y-45866
X68406Y-47835
X73327Y-25394
X73327Y-27362
X73327Y-45866
X73327Y-47835
T10
X63740Y-19803
X63740Y-21772
T11
X34057Y-12598
X35042Y-8661
X35042Y-13583
X36026Y-8661
X37010Y-12598
X37994Y-8661
X38979Y-8661
X38979Y-13583
X39963Y-12598
X42717Y-12598
X43701Y-8661
X43701Y-13583
X44685Y-8661
X45669Y-12598
X46654Y-8661
X47638Y-8661
X47638Y-13583
X48622Y-12598
T12
X8543Y-37390
X8543Y-43780
X8557Y-29437
X8557Y-35827
X11043Y-37390
X11043Y-43780
X11057Y-29437
X11057Y-35827
X13543Y-37390
X13543Y-43780
X13557Y-29437
X13557Y-35827
X69134Y-29441
X69134Y-35831
X69134Y-37400
X69134Y-43789
X69140Y-13307
X69140Y-19697
X71634Y-29441
X71634Y-35831
X71634Y-37400
X71634Y-43789
X71640Y-13307
X71640Y-19697
X74134Y-29441
X74134Y-35831
X74134Y-37400
X74134Y-43789
X74140Y-13307
X74140Y-19697
T13
X49071Y-36157
X52071Y-28157
X53071Y-36157
X54071Y-28157
X57071Y-28157
X57071Y-36157
T14
X60906Y-12071
X60906Y-18071
T15
X26673Y-11181
X26673Y-15591
X56201Y-11181
X56201Y-15591
T2
G00X35039Y-11417
M15
G01X35039Y-11811
M16
G05
G00X36024Y-11417
M15
G01X36024Y-11811
M16
G05
G00X37205Y-9646
M15
G01X36811Y-9646
M16
G05
G00X37992Y-11811
M15
G01X37992Y-11417
M16
G05
G00X38976Y-11811
M15
G01X38976Y-11417
M16
G05
G00X43701Y-11417
M15
G01X43701Y-11811
M16
G05
G00X44685Y-11417
M15
G01X44685Y-11811
M16
G05
G00X45866Y-9646
M15
G01X45472Y-9646
M16
G05
G00X46654Y-11811
M15
G01X46654Y-11417
M16
G05
G00X47638Y-11811
M15
G01X47638Y-11417
M16
G05
T4
G00X68740Y-10354
M15
G01X68740Y-11220
M16
G05
G00X71063Y-9685
M15
G01X70197Y-9685
M16
G05
G00X71142Y-11969
M15
G01X70118Y-11969
M16
G05
T0
M30
