G04 #@! TF.GenerationSoftware,KiCad,Pcbnew,7.0.1.1-36-gbcf78dbe24-dirty-deb11*
G04 #@! TF.CreationDate,2023-05-13T09:01:53+00:00*
G04 #@! TF.ProjectId,pedalboard-hw,70656461-6c62-46f6-9172-642d68772e6b,2.0.0*
G04 #@! TF.SameCoordinates,Original*
G04 #@! TF.FileFunction,Legend,Bot*
G04 #@! TF.FilePolarity,Positive*
%FSLAX46Y46*%
G04 Gerber Fmt 4.6, Leading zero omitted, Abs format (unit mm)*
G04 Created by KiCad (PCBNEW 7.0.1.1-36-gbcf78dbe24-dirty-deb11) date 2023-05-13 09:01:53*
%MOMM*%
%LPD*%
G01*
G04 APERTURE LIST*
%ADD10C,0.150000*%
%ADD11C,0.100000*%
%ADD12C,0.120000*%
G04 APERTURE END LIST*
D10*
X56395961Y-70713695D02*
X56443580Y-70808933D01*
X56443580Y-70808933D02*
X56443580Y-70951790D01*
X56443580Y-70951790D02*
X56395961Y-71094647D01*
X56395961Y-71094647D02*
X56300723Y-71189885D01*
X56300723Y-71189885D02*
X56205485Y-71237504D01*
X56205485Y-71237504D02*
X56015009Y-71285123D01*
X56015009Y-71285123D02*
X55872152Y-71285123D01*
X55872152Y-71285123D02*
X55681676Y-71237504D01*
X55681676Y-71237504D02*
X55586438Y-71189885D01*
X55586438Y-71189885D02*
X55491200Y-71094647D01*
X55491200Y-71094647D02*
X55443580Y-70951790D01*
X55443580Y-70951790D02*
X55443580Y-70856552D01*
X55443580Y-70856552D02*
X55491200Y-70713695D01*
X55491200Y-70713695D02*
X55538819Y-70666076D01*
X55538819Y-70666076D02*
X55872152Y-70666076D01*
X55872152Y-70666076D02*
X55872152Y-70856552D01*
X55443580Y-70237504D02*
X56443580Y-70237504D01*
X56443580Y-70237504D02*
X55443580Y-69666076D01*
X55443580Y-69666076D02*
X56443580Y-69666076D01*
X55443580Y-69189885D02*
X56443580Y-69189885D01*
X56443580Y-69189885D02*
X56443580Y-68951790D01*
X56443580Y-68951790D02*
X56395961Y-68808933D01*
X56395961Y-68808933D02*
X56300723Y-68713695D01*
X56300723Y-68713695D02*
X56205485Y-68666076D01*
X56205485Y-68666076D02*
X56015009Y-68618457D01*
X56015009Y-68618457D02*
X55872152Y-68618457D01*
X55872152Y-68618457D02*
X55681676Y-68666076D01*
X55681676Y-68666076D02*
X55586438Y-68713695D01*
X55586438Y-68713695D02*
X55491200Y-68808933D01*
X55491200Y-68808933D02*
X55443580Y-68951790D01*
X55443580Y-68951790D02*
X55443580Y-69189885D01*
X53005180Y-71135904D02*
X54005180Y-71135904D01*
X54005180Y-71135904D02*
X54005180Y-70897809D01*
X54005180Y-70897809D02*
X53957561Y-70754952D01*
X53957561Y-70754952D02*
X53862323Y-70659714D01*
X53862323Y-70659714D02*
X53767085Y-70612095D01*
X53767085Y-70612095D02*
X53576609Y-70564476D01*
X53576609Y-70564476D02*
X53433752Y-70564476D01*
X53433752Y-70564476D02*
X53243276Y-70612095D01*
X53243276Y-70612095D02*
X53148038Y-70659714D01*
X53148038Y-70659714D02*
X53052800Y-70754952D01*
X53052800Y-70754952D02*
X53005180Y-70897809D01*
X53005180Y-70897809D02*
X53005180Y-71135904D01*
X53005180Y-69707333D02*
X53528990Y-69707333D01*
X53528990Y-69707333D02*
X53624228Y-69754952D01*
X53624228Y-69754952D02*
X53671847Y-69850190D01*
X53671847Y-69850190D02*
X53671847Y-70040666D01*
X53671847Y-70040666D02*
X53624228Y-70135904D01*
X53052800Y-69707333D02*
X53005180Y-69802571D01*
X53005180Y-69802571D02*
X53005180Y-70040666D01*
X53005180Y-70040666D02*
X53052800Y-70135904D01*
X53052800Y-70135904D02*
X53148038Y-70183523D01*
X53148038Y-70183523D02*
X53243276Y-70183523D01*
X53243276Y-70183523D02*
X53338514Y-70135904D01*
X53338514Y-70135904D02*
X53386133Y-70040666D01*
X53386133Y-70040666D02*
X53386133Y-69802571D01*
X53386133Y-69802571D02*
X53433752Y-69707333D01*
X53671847Y-69373999D02*
X53671847Y-68993047D01*
X54005180Y-69231142D02*
X53148038Y-69231142D01*
X53148038Y-69231142D02*
X53052800Y-69183523D01*
X53052800Y-69183523D02*
X53005180Y-69088285D01*
X53005180Y-69088285D02*
X53005180Y-68993047D01*
X53005180Y-68231142D02*
X53528990Y-68231142D01*
X53528990Y-68231142D02*
X53624228Y-68278761D01*
X53624228Y-68278761D02*
X53671847Y-68373999D01*
X53671847Y-68373999D02*
X53671847Y-68564475D01*
X53671847Y-68564475D02*
X53624228Y-68659713D01*
X53052800Y-68231142D02*
X53005180Y-68326380D01*
X53005180Y-68326380D02*
X53005180Y-68564475D01*
X53005180Y-68564475D02*
X53052800Y-68659713D01*
X53052800Y-68659713D02*
X53148038Y-68707332D01*
X53148038Y-68707332D02*
X53243276Y-68707332D01*
X53243276Y-68707332D02*
X53338514Y-68659713D01*
X53338514Y-68659713D02*
X53386133Y-68564475D01*
X53386133Y-68564475D02*
X53386133Y-68326380D01*
X53386133Y-68326380D02*
X53433752Y-68231142D01*
X53005180Y-66850189D02*
X53052800Y-66945427D01*
X53052800Y-66945427D02*
X53100419Y-66993046D01*
X53100419Y-66993046D02*
X53195657Y-67040665D01*
X53195657Y-67040665D02*
X53481371Y-67040665D01*
X53481371Y-67040665D02*
X53576609Y-66993046D01*
X53576609Y-66993046D02*
X53624228Y-66945427D01*
X53624228Y-66945427D02*
X53671847Y-66850189D01*
X53671847Y-66850189D02*
X53671847Y-66707332D01*
X53671847Y-66707332D02*
X53624228Y-66612094D01*
X53624228Y-66612094D02*
X53576609Y-66564475D01*
X53576609Y-66564475D02*
X53481371Y-66516856D01*
X53481371Y-66516856D02*
X53195657Y-66516856D01*
X53195657Y-66516856D02*
X53100419Y-66564475D01*
X53100419Y-66564475D02*
X53052800Y-66612094D01*
X53052800Y-66612094D02*
X53005180Y-66707332D01*
X53005180Y-66707332D02*
X53005180Y-66850189D01*
X53671847Y-65659713D02*
X53005180Y-65659713D01*
X53671847Y-66088284D02*
X53148038Y-66088284D01*
X53148038Y-66088284D02*
X53052800Y-66040665D01*
X53052800Y-66040665D02*
X53005180Y-65945427D01*
X53005180Y-65945427D02*
X53005180Y-65802570D01*
X53005180Y-65802570D02*
X53052800Y-65707332D01*
X53052800Y-65707332D02*
X53100419Y-65659713D01*
X53671847Y-65326379D02*
X53671847Y-64945427D01*
X54005180Y-65183522D02*
X53148038Y-65183522D01*
X53148038Y-65183522D02*
X53052800Y-65135903D01*
X53052800Y-65135903D02*
X53005180Y-65040665D01*
X53005180Y-65040665D02*
X53005180Y-64945427D01*
X71810419Y-49971295D02*
X70810419Y-49971295D01*
X71810419Y-50447485D02*
X70810419Y-50447485D01*
X70810419Y-50447485D02*
X71810419Y-51018913D01*
X71810419Y-51018913D02*
X70810419Y-51018913D01*
X188155238Y-37337904D02*
X188107619Y-37242666D01*
X188107619Y-37242666D02*
X188107619Y-37099809D01*
X188107619Y-37099809D02*
X188155238Y-36956952D01*
X188155238Y-36956952D02*
X188250476Y-36861714D01*
X188250476Y-36861714D02*
X188345714Y-36814095D01*
X188345714Y-36814095D02*
X188536190Y-36766476D01*
X188536190Y-36766476D02*
X188679047Y-36766476D01*
X188679047Y-36766476D02*
X188869523Y-36814095D01*
X188869523Y-36814095D02*
X188964761Y-36861714D01*
X188964761Y-36861714D02*
X189060000Y-36956952D01*
X189060000Y-36956952D02*
X189107619Y-37099809D01*
X189107619Y-37099809D02*
X189107619Y-37195047D01*
X189107619Y-37195047D02*
X189060000Y-37337904D01*
X189060000Y-37337904D02*
X189012380Y-37385523D01*
X189012380Y-37385523D02*
X188679047Y-37385523D01*
X188679047Y-37385523D02*
X188679047Y-37195047D01*
X189107619Y-37814095D02*
X188107619Y-37814095D01*
X188107619Y-37814095D02*
X189107619Y-38385523D01*
X189107619Y-38385523D02*
X188107619Y-38385523D01*
X189107619Y-38861714D02*
X188107619Y-38861714D01*
X188107619Y-38861714D02*
X188107619Y-39099809D01*
X188107619Y-39099809D02*
X188155238Y-39242666D01*
X188155238Y-39242666D02*
X188250476Y-39337904D01*
X188250476Y-39337904D02*
X188345714Y-39385523D01*
X188345714Y-39385523D02*
X188536190Y-39433142D01*
X188536190Y-39433142D02*
X188679047Y-39433142D01*
X188679047Y-39433142D02*
X188869523Y-39385523D01*
X188869523Y-39385523D02*
X188964761Y-39337904D01*
X188964761Y-39337904D02*
X189060000Y-39242666D01*
X189060000Y-39242666D02*
X189107619Y-39099809D01*
X189107619Y-39099809D02*
X189107619Y-38861714D01*
X132337619Y-50774285D02*
X132337619Y-50298095D01*
X132337619Y-50298095D02*
X132813809Y-50250476D01*
X132813809Y-50250476D02*
X132766190Y-50298095D01*
X132766190Y-50298095D02*
X132718571Y-50393333D01*
X132718571Y-50393333D02*
X132718571Y-50631428D01*
X132718571Y-50631428D02*
X132766190Y-50726666D01*
X132766190Y-50726666D02*
X132813809Y-50774285D01*
X132813809Y-50774285D02*
X132909047Y-50821904D01*
X132909047Y-50821904D02*
X133147142Y-50821904D01*
X133147142Y-50821904D02*
X133242380Y-50774285D01*
X133242380Y-50774285D02*
X133290000Y-50726666D01*
X133290000Y-50726666D02*
X133337619Y-50631428D01*
X133337619Y-50631428D02*
X133337619Y-50393333D01*
X133337619Y-50393333D02*
X133290000Y-50298095D01*
X133290000Y-50298095D02*
X133242380Y-50250476D01*
X132337619Y-51107619D02*
X133337619Y-51440952D01*
X133337619Y-51440952D02*
X132337619Y-51774285D01*
X133337619Y-52869524D02*
X132337619Y-52869524D01*
X132337619Y-52869524D02*
X132337619Y-53250476D01*
X132337619Y-53250476D02*
X132385238Y-53345714D01*
X132385238Y-53345714D02*
X132432857Y-53393333D01*
X132432857Y-53393333D02*
X132528095Y-53440952D01*
X132528095Y-53440952D02*
X132670952Y-53440952D01*
X132670952Y-53440952D02*
X132766190Y-53393333D01*
X132766190Y-53393333D02*
X132813809Y-53345714D01*
X132813809Y-53345714D02*
X132861428Y-53250476D01*
X132861428Y-53250476D02*
X132861428Y-52869524D01*
X133290000Y-53821905D02*
X133337619Y-53964762D01*
X133337619Y-53964762D02*
X133337619Y-54202857D01*
X133337619Y-54202857D02*
X133290000Y-54298095D01*
X133290000Y-54298095D02*
X133242380Y-54345714D01*
X133242380Y-54345714D02*
X133147142Y-54393333D01*
X133147142Y-54393333D02*
X133051904Y-54393333D01*
X133051904Y-54393333D02*
X132956666Y-54345714D01*
X132956666Y-54345714D02*
X132909047Y-54298095D01*
X132909047Y-54298095D02*
X132861428Y-54202857D01*
X132861428Y-54202857D02*
X132813809Y-54012381D01*
X132813809Y-54012381D02*
X132766190Y-53917143D01*
X132766190Y-53917143D02*
X132718571Y-53869524D01*
X132718571Y-53869524D02*
X132623333Y-53821905D01*
X132623333Y-53821905D02*
X132528095Y-53821905D01*
X132528095Y-53821905D02*
X132432857Y-53869524D01*
X132432857Y-53869524D02*
X132385238Y-53917143D01*
X132385238Y-53917143D02*
X132337619Y-54012381D01*
X132337619Y-54012381D02*
X132337619Y-54250476D01*
X132337619Y-54250476D02*
X132385238Y-54393333D01*
X132337619Y-54821905D02*
X133147142Y-54821905D01*
X133147142Y-54821905D02*
X133242380Y-54869524D01*
X133242380Y-54869524D02*
X133290000Y-54917143D01*
X133290000Y-54917143D02*
X133337619Y-55012381D01*
X133337619Y-55012381D02*
X133337619Y-55202857D01*
X133337619Y-55202857D02*
X133290000Y-55298095D01*
X133290000Y-55298095D02*
X133242380Y-55345714D01*
X133242380Y-55345714D02*
X133147142Y-55393333D01*
X133147142Y-55393333D02*
X132337619Y-55393333D01*
X85141428Y-76737619D02*
X84950952Y-76737619D01*
X84950952Y-76737619D02*
X84855714Y-76785238D01*
X84855714Y-76785238D02*
X84760476Y-76880476D01*
X84760476Y-76880476D02*
X84712857Y-77070952D01*
X84712857Y-77070952D02*
X84712857Y-77404285D01*
X84712857Y-77404285D02*
X84760476Y-77594761D01*
X84760476Y-77594761D02*
X84855714Y-77690000D01*
X84855714Y-77690000D02*
X84950952Y-77737619D01*
X84950952Y-77737619D02*
X85141428Y-77737619D01*
X85141428Y-77737619D02*
X85236666Y-77690000D01*
X85236666Y-77690000D02*
X85331904Y-77594761D01*
X85331904Y-77594761D02*
X85379523Y-77404285D01*
X85379523Y-77404285D02*
X85379523Y-77070952D01*
X85379523Y-77070952D02*
X85331904Y-76880476D01*
X85331904Y-76880476D02*
X85236666Y-76785238D01*
X85236666Y-76785238D02*
X85141428Y-76737619D01*
X84284285Y-77070952D02*
X84284285Y-78070952D01*
X84284285Y-77118571D02*
X84189047Y-77070952D01*
X84189047Y-77070952D02*
X83998571Y-77070952D01*
X83998571Y-77070952D02*
X83903333Y-77118571D01*
X83903333Y-77118571D02*
X83855714Y-77166190D01*
X83855714Y-77166190D02*
X83808095Y-77261428D01*
X83808095Y-77261428D02*
X83808095Y-77547142D01*
X83808095Y-77547142D02*
X83855714Y-77642380D01*
X83855714Y-77642380D02*
X83903333Y-77690000D01*
X83903333Y-77690000D02*
X83998571Y-77737619D01*
X83998571Y-77737619D02*
X84189047Y-77737619D01*
X84189047Y-77737619D02*
X84284285Y-77690000D01*
X82998571Y-77690000D02*
X83093809Y-77737619D01*
X83093809Y-77737619D02*
X83284285Y-77737619D01*
X83284285Y-77737619D02*
X83379523Y-77690000D01*
X83379523Y-77690000D02*
X83427142Y-77594761D01*
X83427142Y-77594761D02*
X83427142Y-77213809D01*
X83427142Y-77213809D02*
X83379523Y-77118571D01*
X83379523Y-77118571D02*
X83284285Y-77070952D01*
X83284285Y-77070952D02*
X83093809Y-77070952D01*
X83093809Y-77070952D02*
X82998571Y-77118571D01*
X82998571Y-77118571D02*
X82950952Y-77213809D01*
X82950952Y-77213809D02*
X82950952Y-77309047D01*
X82950952Y-77309047D02*
X83427142Y-77404285D01*
X82522380Y-77070952D02*
X82522380Y-77737619D01*
X82522380Y-77166190D02*
X82474761Y-77118571D01*
X82474761Y-77118571D02*
X82379523Y-77070952D01*
X82379523Y-77070952D02*
X82236666Y-77070952D01*
X82236666Y-77070952D02*
X82141428Y-77118571D01*
X82141428Y-77118571D02*
X82093809Y-77213809D01*
X82093809Y-77213809D02*
X82093809Y-77737619D01*
X80855713Y-77737619D02*
X80855713Y-76737619D01*
X80855713Y-76737619D02*
X80474761Y-76737619D01*
X80474761Y-76737619D02*
X80379523Y-76785238D01*
X80379523Y-76785238D02*
X80331904Y-76832857D01*
X80331904Y-76832857D02*
X80284285Y-76928095D01*
X80284285Y-76928095D02*
X80284285Y-77070952D01*
X80284285Y-77070952D02*
X80331904Y-77166190D01*
X80331904Y-77166190D02*
X80379523Y-77213809D01*
X80379523Y-77213809D02*
X80474761Y-77261428D01*
X80474761Y-77261428D02*
X80855713Y-77261428D01*
X79474761Y-77690000D02*
X79569999Y-77737619D01*
X79569999Y-77737619D02*
X79760475Y-77737619D01*
X79760475Y-77737619D02*
X79855713Y-77690000D01*
X79855713Y-77690000D02*
X79903332Y-77594761D01*
X79903332Y-77594761D02*
X79903332Y-77213809D01*
X79903332Y-77213809D02*
X79855713Y-77118571D01*
X79855713Y-77118571D02*
X79760475Y-77070952D01*
X79760475Y-77070952D02*
X79569999Y-77070952D01*
X79569999Y-77070952D02*
X79474761Y-77118571D01*
X79474761Y-77118571D02*
X79427142Y-77213809D01*
X79427142Y-77213809D02*
X79427142Y-77309047D01*
X79427142Y-77309047D02*
X79903332Y-77404285D01*
X78569999Y-77737619D02*
X78569999Y-76737619D01*
X78569999Y-77690000D02*
X78665237Y-77737619D01*
X78665237Y-77737619D02*
X78855713Y-77737619D01*
X78855713Y-77737619D02*
X78950951Y-77690000D01*
X78950951Y-77690000D02*
X78998570Y-77642380D01*
X78998570Y-77642380D02*
X79046189Y-77547142D01*
X79046189Y-77547142D02*
X79046189Y-77261428D01*
X79046189Y-77261428D02*
X78998570Y-77166190D01*
X78998570Y-77166190D02*
X78950951Y-77118571D01*
X78950951Y-77118571D02*
X78855713Y-77070952D01*
X78855713Y-77070952D02*
X78665237Y-77070952D01*
X78665237Y-77070952D02*
X78569999Y-77118571D01*
X77665237Y-77737619D02*
X77665237Y-77213809D01*
X77665237Y-77213809D02*
X77712856Y-77118571D01*
X77712856Y-77118571D02*
X77808094Y-77070952D01*
X77808094Y-77070952D02*
X77998570Y-77070952D01*
X77998570Y-77070952D02*
X78093808Y-77118571D01*
X77665237Y-77690000D02*
X77760475Y-77737619D01*
X77760475Y-77737619D02*
X77998570Y-77737619D01*
X77998570Y-77737619D02*
X78093808Y-77690000D01*
X78093808Y-77690000D02*
X78141427Y-77594761D01*
X78141427Y-77594761D02*
X78141427Y-77499523D01*
X78141427Y-77499523D02*
X78093808Y-77404285D01*
X78093808Y-77404285D02*
X77998570Y-77356666D01*
X77998570Y-77356666D02*
X77760475Y-77356666D01*
X77760475Y-77356666D02*
X77665237Y-77309047D01*
X77046189Y-77737619D02*
X77141427Y-77690000D01*
X77141427Y-77690000D02*
X77189046Y-77594761D01*
X77189046Y-77594761D02*
X77189046Y-76737619D01*
X76665236Y-77737619D02*
X76665236Y-76737619D01*
X76665236Y-77118571D02*
X76569998Y-77070952D01*
X76569998Y-77070952D02*
X76379522Y-77070952D01*
X76379522Y-77070952D02*
X76284284Y-77118571D01*
X76284284Y-77118571D02*
X76236665Y-77166190D01*
X76236665Y-77166190D02*
X76189046Y-77261428D01*
X76189046Y-77261428D02*
X76189046Y-77547142D01*
X76189046Y-77547142D02*
X76236665Y-77642380D01*
X76236665Y-77642380D02*
X76284284Y-77690000D01*
X76284284Y-77690000D02*
X76379522Y-77737619D01*
X76379522Y-77737619D02*
X76569998Y-77737619D01*
X76569998Y-77737619D02*
X76665236Y-77690000D01*
X75617617Y-77737619D02*
X75712855Y-77690000D01*
X75712855Y-77690000D02*
X75760474Y-77642380D01*
X75760474Y-77642380D02*
X75808093Y-77547142D01*
X75808093Y-77547142D02*
X75808093Y-77261428D01*
X75808093Y-77261428D02*
X75760474Y-77166190D01*
X75760474Y-77166190D02*
X75712855Y-77118571D01*
X75712855Y-77118571D02*
X75617617Y-77070952D01*
X75617617Y-77070952D02*
X75474760Y-77070952D01*
X75474760Y-77070952D02*
X75379522Y-77118571D01*
X75379522Y-77118571D02*
X75331903Y-77166190D01*
X75331903Y-77166190D02*
X75284284Y-77261428D01*
X75284284Y-77261428D02*
X75284284Y-77547142D01*
X75284284Y-77547142D02*
X75331903Y-77642380D01*
X75331903Y-77642380D02*
X75379522Y-77690000D01*
X75379522Y-77690000D02*
X75474760Y-77737619D01*
X75474760Y-77737619D02*
X75617617Y-77737619D01*
X74427141Y-77737619D02*
X74427141Y-77213809D01*
X74427141Y-77213809D02*
X74474760Y-77118571D01*
X74474760Y-77118571D02*
X74569998Y-77070952D01*
X74569998Y-77070952D02*
X74760474Y-77070952D01*
X74760474Y-77070952D02*
X74855712Y-77118571D01*
X74427141Y-77690000D02*
X74522379Y-77737619D01*
X74522379Y-77737619D02*
X74760474Y-77737619D01*
X74760474Y-77737619D02*
X74855712Y-77690000D01*
X74855712Y-77690000D02*
X74903331Y-77594761D01*
X74903331Y-77594761D02*
X74903331Y-77499523D01*
X74903331Y-77499523D02*
X74855712Y-77404285D01*
X74855712Y-77404285D02*
X74760474Y-77356666D01*
X74760474Y-77356666D02*
X74522379Y-77356666D01*
X74522379Y-77356666D02*
X74427141Y-77309047D01*
X73950950Y-77737619D02*
X73950950Y-77070952D01*
X73950950Y-77261428D02*
X73903331Y-77166190D01*
X73903331Y-77166190D02*
X73855712Y-77118571D01*
X73855712Y-77118571D02*
X73760474Y-77070952D01*
X73760474Y-77070952D02*
X73665236Y-77070952D01*
X72903331Y-77737619D02*
X72903331Y-76737619D01*
X72903331Y-77690000D02*
X72998569Y-77737619D01*
X72998569Y-77737619D02*
X73189045Y-77737619D01*
X73189045Y-77737619D02*
X73284283Y-77690000D01*
X73284283Y-77690000D02*
X73331902Y-77642380D01*
X73331902Y-77642380D02*
X73379521Y-77547142D01*
X73379521Y-77547142D02*
X73379521Y-77261428D01*
X73379521Y-77261428D02*
X73331902Y-77166190D01*
X73331902Y-77166190D02*
X73284283Y-77118571D01*
X73284283Y-77118571D02*
X73189045Y-77070952D01*
X73189045Y-77070952D02*
X72998569Y-77070952D01*
X72998569Y-77070952D02*
X72903331Y-77118571D01*
X85331904Y-79357619D02*
X85331904Y-78357619D01*
X84903333Y-79357619D02*
X84903333Y-78833809D01*
X84903333Y-78833809D02*
X84950952Y-78738571D01*
X84950952Y-78738571D02*
X85046190Y-78690952D01*
X85046190Y-78690952D02*
X85189047Y-78690952D01*
X85189047Y-78690952D02*
X85284285Y-78738571D01*
X85284285Y-78738571D02*
X85331904Y-78786190D01*
X84569999Y-78690952D02*
X84189047Y-78690952D01*
X84427142Y-78357619D02*
X84427142Y-79214761D01*
X84427142Y-79214761D02*
X84379523Y-79310000D01*
X84379523Y-79310000D02*
X84284285Y-79357619D01*
X84284285Y-79357619D02*
X84189047Y-79357619D01*
X83998570Y-78690952D02*
X83617618Y-78690952D01*
X83855713Y-78357619D02*
X83855713Y-79214761D01*
X83855713Y-79214761D02*
X83808094Y-79310000D01*
X83808094Y-79310000D02*
X83712856Y-79357619D01*
X83712856Y-79357619D02*
X83617618Y-79357619D01*
X83284284Y-78690952D02*
X83284284Y-79690952D01*
X83284284Y-78738571D02*
X83189046Y-78690952D01*
X83189046Y-78690952D02*
X82998570Y-78690952D01*
X82998570Y-78690952D02*
X82903332Y-78738571D01*
X82903332Y-78738571D02*
X82855713Y-78786190D01*
X82855713Y-78786190D02*
X82808094Y-78881428D01*
X82808094Y-78881428D02*
X82808094Y-79167142D01*
X82808094Y-79167142D02*
X82855713Y-79262380D01*
X82855713Y-79262380D02*
X82903332Y-79310000D01*
X82903332Y-79310000D02*
X82998570Y-79357619D01*
X82998570Y-79357619D02*
X83189046Y-79357619D01*
X83189046Y-79357619D02*
X83284284Y-79310000D01*
X82427141Y-79310000D02*
X82331903Y-79357619D01*
X82331903Y-79357619D02*
X82141427Y-79357619D01*
X82141427Y-79357619D02*
X82046189Y-79310000D01*
X82046189Y-79310000D02*
X81998570Y-79214761D01*
X81998570Y-79214761D02*
X81998570Y-79167142D01*
X81998570Y-79167142D02*
X82046189Y-79071904D01*
X82046189Y-79071904D02*
X82141427Y-79024285D01*
X82141427Y-79024285D02*
X82284284Y-79024285D01*
X82284284Y-79024285D02*
X82379522Y-78976666D01*
X82379522Y-78976666D02*
X82427141Y-78881428D01*
X82427141Y-78881428D02*
X82427141Y-78833809D01*
X82427141Y-78833809D02*
X82379522Y-78738571D01*
X82379522Y-78738571D02*
X82284284Y-78690952D01*
X82284284Y-78690952D02*
X82141427Y-78690952D01*
X82141427Y-78690952D02*
X82046189Y-78738571D01*
X81569998Y-79262380D02*
X81522379Y-79310000D01*
X81522379Y-79310000D02*
X81569998Y-79357619D01*
X81569998Y-79357619D02*
X81617617Y-79310000D01*
X81617617Y-79310000D02*
X81569998Y-79262380D01*
X81569998Y-79262380D02*
X81569998Y-79357619D01*
X81569998Y-78738571D02*
X81522379Y-78786190D01*
X81522379Y-78786190D02*
X81569998Y-78833809D01*
X81569998Y-78833809D02*
X81617617Y-78786190D01*
X81617617Y-78786190D02*
X81569998Y-78738571D01*
X81569998Y-78738571D02*
X81569998Y-78833809D01*
X80379523Y-78310000D02*
X81236665Y-79595714D01*
X79331904Y-78310000D02*
X80189046Y-79595714D01*
X78569999Y-78690952D02*
X78569999Y-79500476D01*
X78569999Y-79500476D02*
X78617618Y-79595714D01*
X78617618Y-79595714D02*
X78665237Y-79643333D01*
X78665237Y-79643333D02*
X78760475Y-79690952D01*
X78760475Y-79690952D02*
X78903332Y-79690952D01*
X78903332Y-79690952D02*
X78998570Y-79643333D01*
X78569999Y-79310000D02*
X78665237Y-79357619D01*
X78665237Y-79357619D02*
X78855713Y-79357619D01*
X78855713Y-79357619D02*
X78950951Y-79310000D01*
X78950951Y-79310000D02*
X78998570Y-79262380D01*
X78998570Y-79262380D02*
X79046189Y-79167142D01*
X79046189Y-79167142D02*
X79046189Y-78881428D01*
X79046189Y-78881428D02*
X78998570Y-78786190D01*
X78998570Y-78786190D02*
X78950951Y-78738571D01*
X78950951Y-78738571D02*
X78855713Y-78690952D01*
X78855713Y-78690952D02*
X78665237Y-78690952D01*
X78665237Y-78690952D02*
X78569999Y-78738571D01*
X78093808Y-79357619D02*
X78093808Y-78690952D01*
X78093808Y-78357619D02*
X78141427Y-78405238D01*
X78141427Y-78405238D02*
X78093808Y-78452857D01*
X78093808Y-78452857D02*
X78046189Y-78405238D01*
X78046189Y-78405238D02*
X78093808Y-78357619D01*
X78093808Y-78357619D02*
X78093808Y-78452857D01*
X77760475Y-78690952D02*
X77379523Y-78690952D01*
X77617618Y-78357619D02*
X77617618Y-79214761D01*
X77617618Y-79214761D02*
X77569999Y-79310000D01*
X77569999Y-79310000D02*
X77474761Y-79357619D01*
X77474761Y-79357619D02*
X77379523Y-79357619D01*
X77046189Y-79357619D02*
X77046189Y-78357619D01*
X76617618Y-79357619D02*
X76617618Y-78833809D01*
X76617618Y-78833809D02*
X76665237Y-78738571D01*
X76665237Y-78738571D02*
X76760475Y-78690952D01*
X76760475Y-78690952D02*
X76903332Y-78690952D01*
X76903332Y-78690952D02*
X76998570Y-78738571D01*
X76998570Y-78738571D02*
X77046189Y-78786190D01*
X75712856Y-78690952D02*
X75712856Y-79357619D01*
X76141427Y-78690952D02*
X76141427Y-79214761D01*
X76141427Y-79214761D02*
X76093808Y-79310000D01*
X76093808Y-79310000D02*
X75998570Y-79357619D01*
X75998570Y-79357619D02*
X75855713Y-79357619D01*
X75855713Y-79357619D02*
X75760475Y-79310000D01*
X75760475Y-79310000D02*
X75712856Y-79262380D01*
X75236665Y-79357619D02*
X75236665Y-78357619D01*
X75236665Y-78738571D02*
X75141427Y-78690952D01*
X75141427Y-78690952D02*
X74950951Y-78690952D01*
X74950951Y-78690952D02*
X74855713Y-78738571D01*
X74855713Y-78738571D02*
X74808094Y-78786190D01*
X74808094Y-78786190D02*
X74760475Y-78881428D01*
X74760475Y-78881428D02*
X74760475Y-79167142D01*
X74760475Y-79167142D02*
X74808094Y-79262380D01*
X74808094Y-79262380D02*
X74855713Y-79310000D01*
X74855713Y-79310000D02*
X74950951Y-79357619D01*
X74950951Y-79357619D02*
X75141427Y-79357619D01*
X75141427Y-79357619D02*
X75236665Y-79310000D01*
X74331903Y-79262380D02*
X74284284Y-79310000D01*
X74284284Y-79310000D02*
X74331903Y-79357619D01*
X74331903Y-79357619D02*
X74379522Y-79310000D01*
X74379522Y-79310000D02*
X74331903Y-79262380D01*
X74331903Y-79262380D02*
X74331903Y-79357619D01*
X73427142Y-79310000D02*
X73522380Y-79357619D01*
X73522380Y-79357619D02*
X73712856Y-79357619D01*
X73712856Y-79357619D02*
X73808094Y-79310000D01*
X73808094Y-79310000D02*
X73855713Y-79262380D01*
X73855713Y-79262380D02*
X73903332Y-79167142D01*
X73903332Y-79167142D02*
X73903332Y-78881428D01*
X73903332Y-78881428D02*
X73855713Y-78786190D01*
X73855713Y-78786190D02*
X73808094Y-78738571D01*
X73808094Y-78738571D02*
X73712856Y-78690952D01*
X73712856Y-78690952D02*
X73522380Y-78690952D01*
X73522380Y-78690952D02*
X73427142Y-78738571D01*
X72855713Y-79357619D02*
X72950951Y-79310000D01*
X72950951Y-79310000D02*
X72998570Y-79262380D01*
X72998570Y-79262380D02*
X73046189Y-79167142D01*
X73046189Y-79167142D02*
X73046189Y-78881428D01*
X73046189Y-78881428D02*
X72998570Y-78786190D01*
X72998570Y-78786190D02*
X72950951Y-78738571D01*
X72950951Y-78738571D02*
X72855713Y-78690952D01*
X72855713Y-78690952D02*
X72712856Y-78690952D01*
X72712856Y-78690952D02*
X72617618Y-78738571D01*
X72617618Y-78738571D02*
X72569999Y-78786190D01*
X72569999Y-78786190D02*
X72522380Y-78881428D01*
X72522380Y-78881428D02*
X72522380Y-79167142D01*
X72522380Y-79167142D02*
X72569999Y-79262380D01*
X72569999Y-79262380D02*
X72617618Y-79310000D01*
X72617618Y-79310000D02*
X72712856Y-79357619D01*
X72712856Y-79357619D02*
X72855713Y-79357619D01*
X72093808Y-79357619D02*
X72093808Y-78690952D01*
X72093808Y-78786190D02*
X72046189Y-78738571D01*
X72046189Y-78738571D02*
X71950951Y-78690952D01*
X71950951Y-78690952D02*
X71808094Y-78690952D01*
X71808094Y-78690952D02*
X71712856Y-78738571D01*
X71712856Y-78738571D02*
X71665237Y-78833809D01*
X71665237Y-78833809D02*
X71665237Y-79357619D01*
X71665237Y-78833809D02*
X71617618Y-78738571D01*
X71617618Y-78738571D02*
X71522380Y-78690952D01*
X71522380Y-78690952D02*
X71379523Y-78690952D01*
X71379523Y-78690952D02*
X71284284Y-78738571D01*
X71284284Y-78738571D02*
X71236665Y-78833809D01*
X71236665Y-78833809D02*
X71236665Y-79357619D01*
X70046190Y-78310000D02*
X70903332Y-79595714D01*
X69712856Y-78690952D02*
X69712856Y-79690952D01*
X69712856Y-78738571D02*
X69617618Y-78690952D01*
X69617618Y-78690952D02*
X69427142Y-78690952D01*
X69427142Y-78690952D02*
X69331904Y-78738571D01*
X69331904Y-78738571D02*
X69284285Y-78786190D01*
X69284285Y-78786190D02*
X69236666Y-78881428D01*
X69236666Y-78881428D02*
X69236666Y-79167142D01*
X69236666Y-79167142D02*
X69284285Y-79262380D01*
X69284285Y-79262380D02*
X69331904Y-79310000D01*
X69331904Y-79310000D02*
X69427142Y-79357619D01*
X69427142Y-79357619D02*
X69617618Y-79357619D01*
X69617618Y-79357619D02*
X69712856Y-79310000D01*
X68427142Y-79310000D02*
X68522380Y-79357619D01*
X68522380Y-79357619D02*
X68712856Y-79357619D01*
X68712856Y-79357619D02*
X68808094Y-79310000D01*
X68808094Y-79310000D02*
X68855713Y-79214761D01*
X68855713Y-79214761D02*
X68855713Y-78833809D01*
X68855713Y-78833809D02*
X68808094Y-78738571D01*
X68808094Y-78738571D02*
X68712856Y-78690952D01*
X68712856Y-78690952D02*
X68522380Y-78690952D01*
X68522380Y-78690952D02*
X68427142Y-78738571D01*
X68427142Y-78738571D02*
X68379523Y-78833809D01*
X68379523Y-78833809D02*
X68379523Y-78929047D01*
X68379523Y-78929047D02*
X68855713Y-79024285D01*
X67522380Y-79357619D02*
X67522380Y-78357619D01*
X67522380Y-79310000D02*
X67617618Y-79357619D01*
X67617618Y-79357619D02*
X67808094Y-79357619D01*
X67808094Y-79357619D02*
X67903332Y-79310000D01*
X67903332Y-79310000D02*
X67950951Y-79262380D01*
X67950951Y-79262380D02*
X67998570Y-79167142D01*
X67998570Y-79167142D02*
X67998570Y-78881428D01*
X67998570Y-78881428D02*
X67950951Y-78786190D01*
X67950951Y-78786190D02*
X67903332Y-78738571D01*
X67903332Y-78738571D02*
X67808094Y-78690952D01*
X67808094Y-78690952D02*
X67617618Y-78690952D01*
X67617618Y-78690952D02*
X67522380Y-78738571D01*
X66617618Y-79357619D02*
X66617618Y-78833809D01*
X66617618Y-78833809D02*
X66665237Y-78738571D01*
X66665237Y-78738571D02*
X66760475Y-78690952D01*
X66760475Y-78690952D02*
X66950951Y-78690952D01*
X66950951Y-78690952D02*
X67046189Y-78738571D01*
X66617618Y-79310000D02*
X66712856Y-79357619D01*
X66712856Y-79357619D02*
X66950951Y-79357619D01*
X66950951Y-79357619D02*
X67046189Y-79310000D01*
X67046189Y-79310000D02*
X67093808Y-79214761D01*
X67093808Y-79214761D02*
X67093808Y-79119523D01*
X67093808Y-79119523D02*
X67046189Y-79024285D01*
X67046189Y-79024285D02*
X66950951Y-78976666D01*
X66950951Y-78976666D02*
X66712856Y-78976666D01*
X66712856Y-78976666D02*
X66617618Y-78929047D01*
X65998570Y-79357619D02*
X66093808Y-79310000D01*
X66093808Y-79310000D02*
X66141427Y-79214761D01*
X66141427Y-79214761D02*
X66141427Y-78357619D01*
X65617617Y-79357619D02*
X65617617Y-78357619D01*
X65617617Y-78738571D02*
X65522379Y-78690952D01*
X65522379Y-78690952D02*
X65331903Y-78690952D01*
X65331903Y-78690952D02*
X65236665Y-78738571D01*
X65236665Y-78738571D02*
X65189046Y-78786190D01*
X65189046Y-78786190D02*
X65141427Y-78881428D01*
X65141427Y-78881428D02*
X65141427Y-79167142D01*
X65141427Y-79167142D02*
X65189046Y-79262380D01*
X65189046Y-79262380D02*
X65236665Y-79310000D01*
X65236665Y-79310000D02*
X65331903Y-79357619D01*
X65331903Y-79357619D02*
X65522379Y-79357619D01*
X65522379Y-79357619D02*
X65617617Y-79310000D01*
X64569998Y-79357619D02*
X64665236Y-79310000D01*
X64665236Y-79310000D02*
X64712855Y-79262380D01*
X64712855Y-79262380D02*
X64760474Y-79167142D01*
X64760474Y-79167142D02*
X64760474Y-78881428D01*
X64760474Y-78881428D02*
X64712855Y-78786190D01*
X64712855Y-78786190D02*
X64665236Y-78738571D01*
X64665236Y-78738571D02*
X64569998Y-78690952D01*
X64569998Y-78690952D02*
X64427141Y-78690952D01*
X64427141Y-78690952D02*
X64331903Y-78738571D01*
X64331903Y-78738571D02*
X64284284Y-78786190D01*
X64284284Y-78786190D02*
X64236665Y-78881428D01*
X64236665Y-78881428D02*
X64236665Y-79167142D01*
X64236665Y-79167142D02*
X64284284Y-79262380D01*
X64284284Y-79262380D02*
X64331903Y-79310000D01*
X64331903Y-79310000D02*
X64427141Y-79357619D01*
X64427141Y-79357619D02*
X64569998Y-79357619D01*
X63379522Y-79357619D02*
X63379522Y-78833809D01*
X63379522Y-78833809D02*
X63427141Y-78738571D01*
X63427141Y-78738571D02*
X63522379Y-78690952D01*
X63522379Y-78690952D02*
X63712855Y-78690952D01*
X63712855Y-78690952D02*
X63808093Y-78738571D01*
X63379522Y-79310000D02*
X63474760Y-79357619D01*
X63474760Y-79357619D02*
X63712855Y-79357619D01*
X63712855Y-79357619D02*
X63808093Y-79310000D01*
X63808093Y-79310000D02*
X63855712Y-79214761D01*
X63855712Y-79214761D02*
X63855712Y-79119523D01*
X63855712Y-79119523D02*
X63808093Y-79024285D01*
X63808093Y-79024285D02*
X63712855Y-78976666D01*
X63712855Y-78976666D02*
X63474760Y-78976666D01*
X63474760Y-78976666D02*
X63379522Y-78929047D01*
X62903331Y-79357619D02*
X62903331Y-78690952D01*
X62903331Y-78881428D02*
X62855712Y-78786190D01*
X62855712Y-78786190D02*
X62808093Y-78738571D01*
X62808093Y-78738571D02*
X62712855Y-78690952D01*
X62712855Y-78690952D02*
X62617617Y-78690952D01*
X61855712Y-79357619D02*
X61855712Y-78357619D01*
X61855712Y-79310000D02*
X61950950Y-79357619D01*
X61950950Y-79357619D02*
X62141426Y-79357619D01*
X62141426Y-79357619D02*
X62236664Y-79310000D01*
X62236664Y-79310000D02*
X62284283Y-79262380D01*
X62284283Y-79262380D02*
X62331902Y-79167142D01*
X62331902Y-79167142D02*
X62331902Y-78881428D01*
X62331902Y-78881428D02*
X62284283Y-78786190D01*
X62284283Y-78786190D02*
X62236664Y-78738571D01*
X62236664Y-78738571D02*
X62141426Y-78690952D01*
X62141426Y-78690952D02*
X61950950Y-78690952D01*
X61950950Y-78690952D02*
X61855712Y-78738571D01*
X84998571Y-80453809D02*
X84855714Y-80501428D01*
X84855714Y-80501428D02*
X84808095Y-80549047D01*
X84808095Y-80549047D02*
X84760476Y-80644285D01*
X84760476Y-80644285D02*
X84760476Y-80787142D01*
X84760476Y-80787142D02*
X84808095Y-80882380D01*
X84808095Y-80882380D02*
X84855714Y-80930000D01*
X84855714Y-80930000D02*
X84950952Y-80977619D01*
X84950952Y-80977619D02*
X85331904Y-80977619D01*
X85331904Y-80977619D02*
X85331904Y-79977619D01*
X85331904Y-79977619D02*
X84998571Y-79977619D01*
X84998571Y-79977619D02*
X84903333Y-80025238D01*
X84903333Y-80025238D02*
X84855714Y-80072857D01*
X84855714Y-80072857D02*
X84808095Y-80168095D01*
X84808095Y-80168095D02*
X84808095Y-80263333D01*
X84808095Y-80263333D02*
X84855714Y-80358571D01*
X84855714Y-80358571D02*
X84903333Y-80406190D01*
X84903333Y-80406190D02*
X84998571Y-80453809D01*
X84998571Y-80453809D02*
X85331904Y-80453809D01*
X83760476Y-80882380D02*
X83808095Y-80930000D01*
X83808095Y-80930000D02*
X83950952Y-80977619D01*
X83950952Y-80977619D02*
X84046190Y-80977619D01*
X84046190Y-80977619D02*
X84189047Y-80930000D01*
X84189047Y-80930000D02*
X84284285Y-80834761D01*
X84284285Y-80834761D02*
X84331904Y-80739523D01*
X84331904Y-80739523D02*
X84379523Y-80549047D01*
X84379523Y-80549047D02*
X84379523Y-80406190D01*
X84379523Y-80406190D02*
X84331904Y-80215714D01*
X84331904Y-80215714D02*
X84284285Y-80120476D01*
X84284285Y-80120476D02*
X84189047Y-80025238D01*
X84189047Y-80025238D02*
X84046190Y-79977619D01*
X84046190Y-79977619D02*
X83950952Y-79977619D01*
X83950952Y-79977619D02*
X83808095Y-80025238D01*
X83808095Y-80025238D02*
X83760476Y-80072857D01*
X82998571Y-80453809D02*
X82855714Y-80501428D01*
X82855714Y-80501428D02*
X82808095Y-80549047D01*
X82808095Y-80549047D02*
X82760476Y-80644285D01*
X82760476Y-80644285D02*
X82760476Y-80787142D01*
X82760476Y-80787142D02*
X82808095Y-80882380D01*
X82808095Y-80882380D02*
X82855714Y-80930000D01*
X82855714Y-80930000D02*
X82950952Y-80977619D01*
X82950952Y-80977619D02*
X83331904Y-80977619D01*
X83331904Y-80977619D02*
X83331904Y-79977619D01*
X83331904Y-79977619D02*
X82998571Y-79977619D01*
X82998571Y-79977619D02*
X82903333Y-80025238D01*
X82903333Y-80025238D02*
X82855714Y-80072857D01*
X82855714Y-80072857D02*
X82808095Y-80168095D01*
X82808095Y-80168095D02*
X82808095Y-80263333D01*
X82808095Y-80263333D02*
X82855714Y-80358571D01*
X82855714Y-80358571D02*
X82903333Y-80406190D01*
X82903333Y-80406190D02*
X82998571Y-80453809D01*
X82998571Y-80453809D02*
X83331904Y-80453809D01*
X82331904Y-80882380D02*
X82284285Y-80930000D01*
X82284285Y-80930000D02*
X82331904Y-80977619D01*
X82331904Y-80977619D02*
X82379523Y-80930000D01*
X82379523Y-80930000D02*
X82331904Y-80882380D01*
X82331904Y-80882380D02*
X82331904Y-80977619D01*
X82331904Y-80358571D02*
X82284285Y-80406190D01*
X82284285Y-80406190D02*
X82331904Y-80453809D01*
X82331904Y-80453809D02*
X82379523Y-80406190D01*
X82379523Y-80406190D02*
X82331904Y-80358571D01*
X82331904Y-80358571D02*
X82331904Y-80453809D01*
X81141428Y-80072857D02*
X81093809Y-80025238D01*
X81093809Y-80025238D02*
X80998571Y-79977619D01*
X80998571Y-79977619D02*
X80760476Y-79977619D01*
X80760476Y-79977619D02*
X80665238Y-80025238D01*
X80665238Y-80025238D02*
X80617619Y-80072857D01*
X80617619Y-80072857D02*
X80570000Y-80168095D01*
X80570000Y-80168095D02*
X80570000Y-80263333D01*
X80570000Y-80263333D02*
X80617619Y-80406190D01*
X80617619Y-80406190D02*
X81189047Y-80977619D01*
X81189047Y-80977619D02*
X80570000Y-80977619D01*
X80141428Y-80882380D02*
X80093809Y-80930000D01*
X80093809Y-80930000D02*
X80141428Y-80977619D01*
X80141428Y-80977619D02*
X80189047Y-80930000D01*
X80189047Y-80930000D02*
X80141428Y-80882380D01*
X80141428Y-80882380D02*
X80141428Y-80977619D01*
X79474762Y-79977619D02*
X79379524Y-79977619D01*
X79379524Y-79977619D02*
X79284286Y-80025238D01*
X79284286Y-80025238D02*
X79236667Y-80072857D01*
X79236667Y-80072857D02*
X79189048Y-80168095D01*
X79189048Y-80168095D02*
X79141429Y-80358571D01*
X79141429Y-80358571D02*
X79141429Y-80596666D01*
X79141429Y-80596666D02*
X79189048Y-80787142D01*
X79189048Y-80787142D02*
X79236667Y-80882380D01*
X79236667Y-80882380D02*
X79284286Y-80930000D01*
X79284286Y-80930000D02*
X79379524Y-80977619D01*
X79379524Y-80977619D02*
X79474762Y-80977619D01*
X79474762Y-80977619D02*
X79570000Y-80930000D01*
X79570000Y-80930000D02*
X79617619Y-80882380D01*
X79617619Y-80882380D02*
X79665238Y-80787142D01*
X79665238Y-80787142D02*
X79712857Y-80596666D01*
X79712857Y-80596666D02*
X79712857Y-80358571D01*
X79712857Y-80358571D02*
X79665238Y-80168095D01*
X79665238Y-80168095D02*
X79617619Y-80072857D01*
X79617619Y-80072857D02*
X79570000Y-80025238D01*
X79570000Y-80025238D02*
X79474762Y-79977619D01*
X78712857Y-80882380D02*
X78665238Y-80930000D01*
X78665238Y-80930000D02*
X78712857Y-80977619D01*
X78712857Y-80977619D02*
X78760476Y-80930000D01*
X78760476Y-80930000D02*
X78712857Y-80882380D01*
X78712857Y-80882380D02*
X78712857Y-80977619D01*
X78046191Y-79977619D02*
X77950953Y-79977619D01*
X77950953Y-79977619D02*
X77855715Y-80025238D01*
X77855715Y-80025238D02*
X77808096Y-80072857D01*
X77808096Y-80072857D02*
X77760477Y-80168095D01*
X77760477Y-80168095D02*
X77712858Y-80358571D01*
X77712858Y-80358571D02*
X77712858Y-80596666D01*
X77712858Y-80596666D02*
X77760477Y-80787142D01*
X77760477Y-80787142D02*
X77808096Y-80882380D01*
X77808096Y-80882380D02*
X77855715Y-80930000D01*
X77855715Y-80930000D02*
X77950953Y-80977619D01*
X77950953Y-80977619D02*
X78046191Y-80977619D01*
X78046191Y-80977619D02*
X78141429Y-80930000D01*
X78141429Y-80930000D02*
X78189048Y-80882380D01*
X78189048Y-80882380D02*
X78236667Y-80787142D01*
X78236667Y-80787142D02*
X78284286Y-80596666D01*
X78284286Y-80596666D02*
X78284286Y-80358571D01*
X78284286Y-80358571D02*
X78236667Y-80168095D01*
X78236667Y-80168095D02*
X78189048Y-80072857D01*
X78189048Y-80072857D02*
X78141429Y-80025238D01*
X78141429Y-80025238D02*
X78046191Y-79977619D01*
X51196133Y-71085104D02*
X51196133Y-70323200D01*
X50815180Y-70704152D02*
X51577085Y-70704152D01*
X51815180Y-69942247D02*
X51815180Y-69323200D01*
X51815180Y-69323200D02*
X51434228Y-69656533D01*
X51434228Y-69656533D02*
X51434228Y-69513676D01*
X51434228Y-69513676D02*
X51386609Y-69418438D01*
X51386609Y-69418438D02*
X51338990Y-69370819D01*
X51338990Y-69370819D02*
X51243752Y-69323200D01*
X51243752Y-69323200D02*
X51005657Y-69323200D01*
X51005657Y-69323200D02*
X50910419Y-69370819D01*
X50910419Y-69370819D02*
X50862800Y-69418438D01*
X50862800Y-69418438D02*
X50815180Y-69513676D01*
X50815180Y-69513676D02*
X50815180Y-69799390D01*
X50815180Y-69799390D02*
X50862800Y-69894628D01*
X50862800Y-69894628D02*
X50910419Y-69942247D01*
X50910419Y-68894628D02*
X50862800Y-68847009D01*
X50862800Y-68847009D02*
X50815180Y-68894628D01*
X50815180Y-68894628D02*
X50862800Y-68942247D01*
X50862800Y-68942247D02*
X50910419Y-68894628D01*
X50910419Y-68894628D02*
X50815180Y-68894628D01*
X51815180Y-68513676D02*
X51815180Y-67894629D01*
X51815180Y-67894629D02*
X51434228Y-68227962D01*
X51434228Y-68227962D02*
X51434228Y-68085105D01*
X51434228Y-68085105D02*
X51386609Y-67989867D01*
X51386609Y-67989867D02*
X51338990Y-67942248D01*
X51338990Y-67942248D02*
X51243752Y-67894629D01*
X51243752Y-67894629D02*
X51005657Y-67894629D01*
X51005657Y-67894629D02*
X50910419Y-67942248D01*
X50910419Y-67942248D02*
X50862800Y-67989867D01*
X50862800Y-67989867D02*
X50815180Y-68085105D01*
X50815180Y-68085105D02*
X50815180Y-68370819D01*
X50815180Y-68370819D02*
X50862800Y-68466057D01*
X50862800Y-68466057D02*
X50910419Y-68513676D01*
X51815180Y-67608914D02*
X50815180Y-67275581D01*
X50815180Y-67275581D02*
X51815180Y-66942248D01*
X49195180Y-70561295D02*
X49195180Y-71132723D01*
X49195180Y-70847009D02*
X50195180Y-70847009D01*
X50195180Y-70847009D02*
X50052323Y-70942247D01*
X50052323Y-70942247D02*
X49957085Y-71037485D01*
X49957085Y-71037485D02*
X49909466Y-71132723D01*
X50195180Y-69656533D02*
X50195180Y-70132723D01*
X50195180Y-70132723D02*
X49718990Y-70180342D01*
X49718990Y-70180342D02*
X49766609Y-70132723D01*
X49766609Y-70132723D02*
X49814228Y-70037485D01*
X49814228Y-70037485D02*
X49814228Y-69799390D01*
X49814228Y-69799390D02*
X49766609Y-69704152D01*
X49766609Y-69704152D02*
X49718990Y-69656533D01*
X49718990Y-69656533D02*
X49623752Y-69608914D01*
X49623752Y-69608914D02*
X49385657Y-69608914D01*
X49385657Y-69608914D02*
X49290419Y-69656533D01*
X49290419Y-69656533D02*
X49242800Y-69704152D01*
X49242800Y-69704152D02*
X49195180Y-69799390D01*
X49195180Y-69799390D02*
X49195180Y-70037485D01*
X49195180Y-70037485D02*
X49242800Y-70132723D01*
X49242800Y-70132723D02*
X49290419Y-70180342D01*
X50195180Y-68989866D02*
X50195180Y-68894628D01*
X50195180Y-68894628D02*
X50147561Y-68799390D01*
X50147561Y-68799390D02*
X50099942Y-68751771D01*
X50099942Y-68751771D02*
X50004704Y-68704152D01*
X50004704Y-68704152D02*
X49814228Y-68656533D01*
X49814228Y-68656533D02*
X49576133Y-68656533D01*
X49576133Y-68656533D02*
X49385657Y-68704152D01*
X49385657Y-68704152D02*
X49290419Y-68751771D01*
X49290419Y-68751771D02*
X49242800Y-68799390D01*
X49242800Y-68799390D02*
X49195180Y-68894628D01*
X49195180Y-68894628D02*
X49195180Y-68989866D01*
X49195180Y-68989866D02*
X49242800Y-69085104D01*
X49242800Y-69085104D02*
X49290419Y-69132723D01*
X49290419Y-69132723D02*
X49385657Y-69180342D01*
X49385657Y-69180342D02*
X49576133Y-69227961D01*
X49576133Y-69227961D02*
X49814228Y-69227961D01*
X49814228Y-69227961D02*
X50004704Y-69180342D01*
X50004704Y-69180342D02*
X50099942Y-69132723D01*
X50099942Y-69132723D02*
X50147561Y-69085104D01*
X50147561Y-69085104D02*
X50195180Y-68989866D01*
X49195180Y-68227961D02*
X49861847Y-68227961D01*
X49766609Y-68227961D02*
X49814228Y-68180342D01*
X49814228Y-68180342D02*
X49861847Y-68085104D01*
X49861847Y-68085104D02*
X49861847Y-67942247D01*
X49861847Y-67942247D02*
X49814228Y-67847009D01*
X49814228Y-67847009D02*
X49718990Y-67799390D01*
X49718990Y-67799390D02*
X49195180Y-67799390D01*
X49718990Y-67799390D02*
X49814228Y-67751771D01*
X49814228Y-67751771D02*
X49861847Y-67656533D01*
X49861847Y-67656533D02*
X49861847Y-67513676D01*
X49861847Y-67513676D02*
X49814228Y-67418437D01*
X49814228Y-67418437D02*
X49718990Y-67370818D01*
X49718990Y-67370818D02*
X49195180Y-67370818D01*
X49480895Y-66942247D02*
X49480895Y-66466057D01*
X49195180Y-67037485D02*
X50195180Y-66704152D01*
X50195180Y-66704152D02*
X49195180Y-66370819D01*
X49195180Y-65275580D02*
X49861847Y-65275580D01*
X49766609Y-65275580D02*
X49814228Y-65227961D01*
X49814228Y-65227961D02*
X49861847Y-65132723D01*
X49861847Y-65132723D02*
X49861847Y-64989866D01*
X49861847Y-64989866D02*
X49814228Y-64894628D01*
X49814228Y-64894628D02*
X49718990Y-64847009D01*
X49718990Y-64847009D02*
X49195180Y-64847009D01*
X49718990Y-64847009D02*
X49814228Y-64799390D01*
X49814228Y-64799390D02*
X49861847Y-64704152D01*
X49861847Y-64704152D02*
X49861847Y-64561295D01*
X49861847Y-64561295D02*
X49814228Y-64466056D01*
X49814228Y-64466056D02*
X49718990Y-64418437D01*
X49718990Y-64418437D02*
X49195180Y-64418437D01*
X49195180Y-63513676D02*
X49718990Y-63513676D01*
X49718990Y-63513676D02*
X49814228Y-63561295D01*
X49814228Y-63561295D02*
X49861847Y-63656533D01*
X49861847Y-63656533D02*
X49861847Y-63847009D01*
X49861847Y-63847009D02*
X49814228Y-63942247D01*
X49242800Y-63513676D02*
X49195180Y-63608914D01*
X49195180Y-63608914D02*
X49195180Y-63847009D01*
X49195180Y-63847009D02*
X49242800Y-63942247D01*
X49242800Y-63942247D02*
X49338038Y-63989866D01*
X49338038Y-63989866D02*
X49433276Y-63989866D01*
X49433276Y-63989866D02*
X49528514Y-63942247D01*
X49528514Y-63942247D02*
X49576133Y-63847009D01*
X49576133Y-63847009D02*
X49576133Y-63608914D01*
X49576133Y-63608914D02*
X49623752Y-63513676D01*
X49195180Y-63132723D02*
X49861847Y-62608914D01*
X49861847Y-63132723D02*
X49195180Y-62608914D01*
X65552857Y-50866428D02*
X65552857Y-49366428D01*
X65552857Y-49366428D02*
X65052857Y-50437857D01*
X65052857Y-50437857D02*
X64552857Y-49366428D01*
X64552857Y-49366428D02*
X64552857Y-50866428D01*
X63838571Y-50866428D02*
X63838571Y-49366428D01*
X63124285Y-50866428D02*
X63124285Y-49366428D01*
X63124285Y-49366428D02*
X62767142Y-49366428D01*
X62767142Y-49366428D02*
X62552856Y-49437857D01*
X62552856Y-49437857D02*
X62409999Y-49580714D01*
X62409999Y-49580714D02*
X62338570Y-49723571D01*
X62338570Y-49723571D02*
X62267142Y-50009285D01*
X62267142Y-50009285D02*
X62267142Y-50223571D01*
X62267142Y-50223571D02*
X62338570Y-50509285D01*
X62338570Y-50509285D02*
X62409999Y-50652142D01*
X62409999Y-50652142D02*
X62552856Y-50795000D01*
X62552856Y-50795000D02*
X62767142Y-50866428D01*
X62767142Y-50866428D02*
X63124285Y-50866428D01*
X61624285Y-50866428D02*
X61624285Y-49366428D01*
X134996380Y-45431104D02*
X135663047Y-45431104D01*
X135996380Y-45431104D02*
X135948761Y-45478723D01*
X135948761Y-45478723D02*
X135901142Y-45431104D01*
X135901142Y-45431104D02*
X135948761Y-45383485D01*
X135948761Y-45383485D02*
X135996380Y-45431104D01*
X135996380Y-45431104D02*
X135901142Y-45431104D01*
X135663047Y-44954914D02*
X134996380Y-44954914D01*
X135567809Y-44954914D02*
X135615428Y-44907295D01*
X135615428Y-44907295D02*
X135663047Y-44812057D01*
X135663047Y-44812057D02*
X135663047Y-44669200D01*
X135663047Y-44669200D02*
X135615428Y-44573962D01*
X135615428Y-44573962D02*
X135520190Y-44526343D01*
X135520190Y-44526343D02*
X134996380Y-44526343D01*
X48510914Y-83443619D02*
X48987104Y-83443619D01*
X48987104Y-83443619D02*
X48987104Y-82443619D01*
X48177580Y-82919809D02*
X47844247Y-82919809D01*
X47701390Y-83443619D02*
X48177580Y-83443619D01*
X48177580Y-83443619D02*
X48177580Y-82443619D01*
X48177580Y-82443619D02*
X47701390Y-82443619D01*
X47272818Y-83443619D02*
X47272818Y-82443619D01*
X47272818Y-82443619D02*
X47034723Y-82443619D01*
X47034723Y-82443619D02*
X46891866Y-82491238D01*
X46891866Y-82491238D02*
X46796628Y-82586476D01*
X46796628Y-82586476D02*
X46749009Y-82681714D01*
X46749009Y-82681714D02*
X46701390Y-82872190D01*
X46701390Y-82872190D02*
X46701390Y-83015047D01*
X46701390Y-83015047D02*
X46749009Y-83205523D01*
X46749009Y-83205523D02*
X46796628Y-83300761D01*
X46796628Y-83300761D02*
X46891866Y-83396000D01*
X46891866Y-83396000D02*
X47034723Y-83443619D01*
X47034723Y-83443619D02*
X47272818Y-83443619D01*
X45320437Y-82443619D02*
X45129961Y-82443619D01*
X45129961Y-82443619D02*
X45034723Y-82491238D01*
X45034723Y-82491238D02*
X44939485Y-82586476D01*
X44939485Y-82586476D02*
X44891866Y-82776952D01*
X44891866Y-82776952D02*
X44891866Y-83110285D01*
X44891866Y-83110285D02*
X44939485Y-83300761D01*
X44939485Y-83300761D02*
X45034723Y-83396000D01*
X45034723Y-83396000D02*
X45129961Y-83443619D01*
X45129961Y-83443619D02*
X45320437Y-83443619D01*
X45320437Y-83443619D02*
X45415675Y-83396000D01*
X45415675Y-83396000D02*
X45510913Y-83300761D01*
X45510913Y-83300761D02*
X45558532Y-83110285D01*
X45558532Y-83110285D02*
X45558532Y-82776952D01*
X45558532Y-82776952D02*
X45510913Y-82586476D01*
X45510913Y-82586476D02*
X45415675Y-82491238D01*
X45415675Y-82491238D02*
X45320437Y-82443619D01*
X44463294Y-82443619D02*
X44463294Y-83253142D01*
X44463294Y-83253142D02*
X44415675Y-83348380D01*
X44415675Y-83348380D02*
X44368056Y-83396000D01*
X44368056Y-83396000D02*
X44272818Y-83443619D01*
X44272818Y-83443619D02*
X44082342Y-83443619D01*
X44082342Y-83443619D02*
X43987104Y-83396000D01*
X43987104Y-83396000D02*
X43939485Y-83348380D01*
X43939485Y-83348380D02*
X43891866Y-83253142D01*
X43891866Y-83253142D02*
X43891866Y-82443619D01*
X43558532Y-82443619D02*
X42987104Y-82443619D01*
X43272818Y-83443619D02*
X43272818Y-82443619D01*
X182656019Y-37017295D02*
X181656019Y-37017295D01*
X182656019Y-37493485D02*
X181656019Y-37493485D01*
X181656019Y-37493485D02*
X182656019Y-38064913D01*
X182656019Y-38064913D02*
X181656019Y-38064913D01*
X68787980Y-51438228D02*
X68787980Y-51247752D01*
X68787980Y-51247752D02*
X68740361Y-51152514D01*
X68740361Y-51152514D02*
X68645123Y-51057276D01*
X68645123Y-51057276D02*
X68454647Y-51009657D01*
X68454647Y-51009657D02*
X68121314Y-51009657D01*
X68121314Y-51009657D02*
X67930838Y-51057276D01*
X67930838Y-51057276D02*
X67835600Y-51152514D01*
X67835600Y-51152514D02*
X67787980Y-51247752D01*
X67787980Y-51247752D02*
X67787980Y-51438228D01*
X67787980Y-51438228D02*
X67835600Y-51533466D01*
X67835600Y-51533466D02*
X67930838Y-51628704D01*
X67930838Y-51628704D02*
X68121314Y-51676323D01*
X68121314Y-51676323D02*
X68454647Y-51676323D01*
X68454647Y-51676323D02*
X68645123Y-51628704D01*
X68645123Y-51628704D02*
X68740361Y-51533466D01*
X68740361Y-51533466D02*
X68787980Y-51438228D01*
X68787980Y-50581085D02*
X67978457Y-50581085D01*
X67978457Y-50581085D02*
X67883219Y-50533466D01*
X67883219Y-50533466D02*
X67835600Y-50485847D01*
X67835600Y-50485847D02*
X67787980Y-50390609D01*
X67787980Y-50390609D02*
X67787980Y-50200133D01*
X67787980Y-50200133D02*
X67835600Y-50104895D01*
X67835600Y-50104895D02*
X67883219Y-50057276D01*
X67883219Y-50057276D02*
X67978457Y-50009657D01*
X67978457Y-50009657D02*
X68787980Y-50009657D01*
X68787980Y-49676323D02*
X68787980Y-49104895D01*
X67787980Y-49390609D02*
X68787980Y-49390609D01*
X175204419Y-36772838D02*
X176204419Y-37106171D01*
X176204419Y-37106171D02*
X175204419Y-37439504D01*
X176204419Y-38344266D02*
X175728228Y-38010933D01*
X176204419Y-37772838D02*
X175204419Y-37772838D01*
X175204419Y-37772838D02*
X175204419Y-38153790D01*
X175204419Y-38153790D02*
X175252038Y-38249028D01*
X175252038Y-38249028D02*
X175299657Y-38296647D01*
X175299657Y-38296647D02*
X175394895Y-38344266D01*
X175394895Y-38344266D02*
X175537752Y-38344266D01*
X175537752Y-38344266D02*
X175632990Y-38296647D01*
X175632990Y-38296647D02*
X175680609Y-38249028D01*
X175680609Y-38249028D02*
X175728228Y-38153790D01*
X175728228Y-38153790D02*
X175728228Y-37772838D01*
X175680609Y-38772838D02*
X175680609Y-39106171D01*
X176204419Y-39249028D02*
X176204419Y-38772838D01*
X176204419Y-38772838D02*
X175204419Y-38772838D01*
X175204419Y-38772838D02*
X175204419Y-39249028D01*
X175680609Y-40010933D02*
X175680609Y-39677600D01*
X176204419Y-39677600D02*
X175204419Y-39677600D01*
X175204419Y-39677600D02*
X175204419Y-40153790D01*
X137587180Y-45389847D02*
X137634800Y-45485085D01*
X137634800Y-45485085D02*
X137682419Y-45532704D01*
X137682419Y-45532704D02*
X137777657Y-45580323D01*
X137777657Y-45580323D02*
X138063371Y-45580323D01*
X138063371Y-45580323D02*
X138158609Y-45532704D01*
X138158609Y-45532704D02*
X138206228Y-45485085D01*
X138206228Y-45485085D02*
X138253847Y-45389847D01*
X138253847Y-45389847D02*
X138253847Y-45246990D01*
X138253847Y-45246990D02*
X138206228Y-45151752D01*
X138206228Y-45151752D02*
X138158609Y-45104133D01*
X138158609Y-45104133D02*
X138063371Y-45056514D01*
X138063371Y-45056514D02*
X137777657Y-45056514D01*
X137777657Y-45056514D02*
X137682419Y-45104133D01*
X137682419Y-45104133D02*
X137634800Y-45151752D01*
X137634800Y-45151752D02*
X137587180Y-45246990D01*
X137587180Y-45246990D02*
X137587180Y-45389847D01*
X138253847Y-44199371D02*
X137587180Y-44199371D01*
X138253847Y-44627942D02*
X137730038Y-44627942D01*
X137730038Y-44627942D02*
X137634800Y-44580323D01*
X137634800Y-44580323D02*
X137587180Y-44485085D01*
X137587180Y-44485085D02*
X137587180Y-44342228D01*
X137587180Y-44342228D02*
X137634800Y-44246990D01*
X137634800Y-44246990D02*
X137682419Y-44199371D01*
X138253847Y-43866037D02*
X138253847Y-43485085D01*
X138587180Y-43723180D02*
X137730038Y-43723180D01*
X137730038Y-43723180D02*
X137634800Y-43675561D01*
X137634800Y-43675561D02*
X137587180Y-43580323D01*
X137587180Y-43580323D02*
X137587180Y-43485085D01*
X50033333Y-109062619D02*
X50033333Y-109776904D01*
X50033333Y-109776904D02*
X50080952Y-109919761D01*
X50080952Y-109919761D02*
X50176190Y-110015000D01*
X50176190Y-110015000D02*
X50319047Y-110062619D01*
X50319047Y-110062619D02*
X50414285Y-110062619D01*
X49652380Y-109062619D02*
X48985714Y-109062619D01*
X48985714Y-109062619D02*
X49414285Y-110062619D01*
X113958333Y-99572619D02*
X113958333Y-100286904D01*
X113958333Y-100286904D02*
X114005952Y-100429761D01*
X114005952Y-100429761D02*
X114101190Y-100525000D01*
X114101190Y-100525000D02*
X114244047Y-100572619D01*
X114244047Y-100572619D02*
X114339285Y-100572619D01*
X113053571Y-99572619D02*
X113244047Y-99572619D01*
X113244047Y-99572619D02*
X113339285Y-99620238D01*
X113339285Y-99620238D02*
X113386904Y-99667857D01*
X113386904Y-99667857D02*
X113482142Y-99810714D01*
X113482142Y-99810714D02*
X113529761Y-100001190D01*
X113529761Y-100001190D02*
X113529761Y-100382142D01*
X113529761Y-100382142D02*
X113482142Y-100477380D01*
X113482142Y-100477380D02*
X113434523Y-100525000D01*
X113434523Y-100525000D02*
X113339285Y-100572619D01*
X113339285Y-100572619D02*
X113148809Y-100572619D01*
X113148809Y-100572619D02*
X113053571Y-100525000D01*
X113053571Y-100525000D02*
X113005952Y-100477380D01*
X113005952Y-100477380D02*
X112958333Y-100382142D01*
X112958333Y-100382142D02*
X112958333Y-100144047D01*
X112958333Y-100144047D02*
X113005952Y-100048809D01*
X113005952Y-100048809D02*
X113053571Y-100001190D01*
X113053571Y-100001190D02*
X113148809Y-99953571D01*
X113148809Y-99953571D02*
X113339285Y-99953571D01*
X113339285Y-99953571D02*
X113434523Y-100001190D01*
X113434523Y-100001190D02*
X113482142Y-100048809D01*
X113482142Y-100048809D02*
X113529761Y-100144047D01*
D11*
X92311190Y-74973333D02*
X92311190Y-75306666D01*
X91787380Y-75306666D02*
X92787380Y-75306666D01*
X92787380Y-75306666D02*
X92787380Y-74830476D01*
X92787380Y-74544761D02*
X92787380Y-73925714D01*
X92787380Y-73925714D02*
X92406428Y-74259047D01*
X92406428Y-74259047D02*
X92406428Y-74116190D01*
X92406428Y-74116190D02*
X92358809Y-74020952D01*
X92358809Y-74020952D02*
X92311190Y-73973333D01*
X92311190Y-73973333D02*
X92215952Y-73925714D01*
X92215952Y-73925714D02*
X91977857Y-73925714D01*
X91977857Y-73925714D02*
X91882619Y-73973333D01*
X91882619Y-73973333D02*
X91835000Y-74020952D01*
X91835000Y-74020952D02*
X91787380Y-74116190D01*
X91787380Y-74116190D02*
X91787380Y-74401904D01*
X91787380Y-74401904D02*
X91835000Y-74497142D01*
X91835000Y-74497142D02*
X91882619Y-74544761D01*
D10*
X141569523Y-58252619D02*
X141569523Y-58966904D01*
X141569523Y-58966904D02*
X141617142Y-59109761D01*
X141617142Y-59109761D02*
X141712380Y-59205000D01*
X141712380Y-59205000D02*
X141855237Y-59252619D01*
X141855237Y-59252619D02*
X141950475Y-59252619D01*
X140569523Y-59252619D02*
X141140951Y-59252619D01*
X140855237Y-59252619D02*
X140855237Y-58252619D01*
X140855237Y-58252619D02*
X140950475Y-58395476D01*
X140950475Y-58395476D02*
X141045713Y-58490714D01*
X141045713Y-58490714D02*
X141140951Y-58538333D01*
X139712380Y-58585952D02*
X139712380Y-59252619D01*
X139950475Y-58205000D02*
X140188570Y-58919285D01*
X140188570Y-58919285D02*
X139569523Y-58919285D01*
X127333333Y-45402619D02*
X127333333Y-46116904D01*
X127333333Y-46116904D02*
X127380952Y-46259761D01*
X127380952Y-46259761D02*
X127476190Y-46355000D01*
X127476190Y-46355000D02*
X127619047Y-46402619D01*
X127619047Y-46402619D02*
X127714285Y-46402619D01*
X126380952Y-45402619D02*
X126857142Y-45402619D01*
X126857142Y-45402619D02*
X126904761Y-45878809D01*
X126904761Y-45878809D02*
X126857142Y-45831190D01*
X126857142Y-45831190D02*
X126761904Y-45783571D01*
X126761904Y-45783571D02*
X126523809Y-45783571D01*
X126523809Y-45783571D02*
X126428571Y-45831190D01*
X126428571Y-45831190D02*
X126380952Y-45878809D01*
X126380952Y-45878809D02*
X126333333Y-45974047D01*
X126333333Y-45974047D02*
X126333333Y-46212142D01*
X126333333Y-46212142D02*
X126380952Y-46307380D01*
X126380952Y-46307380D02*
X126428571Y-46355000D01*
X126428571Y-46355000D02*
X126523809Y-46402619D01*
X126523809Y-46402619D02*
X126761904Y-46402619D01*
X126761904Y-46402619D02*
X126857142Y-46355000D01*
X126857142Y-46355000D02*
X126904761Y-46307380D01*
X76250704Y-39797819D02*
X76250704Y-40607342D01*
X76250704Y-40607342D02*
X76203085Y-40702580D01*
X76203085Y-40702580D02*
X76155466Y-40750200D01*
X76155466Y-40750200D02*
X76060228Y-40797819D01*
X76060228Y-40797819D02*
X75869752Y-40797819D01*
X75869752Y-40797819D02*
X75774514Y-40750200D01*
X75774514Y-40750200D02*
X75726895Y-40702580D01*
X75726895Y-40702580D02*
X75679276Y-40607342D01*
X75679276Y-40607342D02*
X75679276Y-39797819D01*
X74679276Y-40797819D02*
X75250704Y-40797819D01*
X74964990Y-40797819D02*
X74964990Y-39797819D01*
X74964990Y-39797819D02*
X75060228Y-39940676D01*
X75060228Y-39940676D02*
X75155466Y-40035914D01*
X75155466Y-40035914D02*
X75250704Y-40083533D01*
X58956533Y-82927019D02*
X58956533Y-83641304D01*
X58956533Y-83641304D02*
X59004152Y-83784161D01*
X59004152Y-83784161D02*
X59099390Y-83879400D01*
X59099390Y-83879400D02*
X59242247Y-83927019D01*
X59242247Y-83927019D02*
X59337485Y-83927019D01*
X58051771Y-83260352D02*
X58051771Y-83927019D01*
X58289866Y-82879400D02*
X58527961Y-83593685D01*
X58527961Y-83593685D02*
X57908914Y-83593685D01*
X123633333Y-67962619D02*
X123633333Y-68676904D01*
X123633333Y-68676904D02*
X123680952Y-68819761D01*
X123680952Y-68819761D02*
X123776190Y-68915000D01*
X123776190Y-68915000D02*
X123919047Y-68962619D01*
X123919047Y-68962619D02*
X124014285Y-68962619D01*
X123014285Y-68391190D02*
X123109523Y-68343571D01*
X123109523Y-68343571D02*
X123157142Y-68295952D01*
X123157142Y-68295952D02*
X123204761Y-68200714D01*
X123204761Y-68200714D02*
X123204761Y-68153095D01*
X123204761Y-68153095D02*
X123157142Y-68057857D01*
X123157142Y-68057857D02*
X123109523Y-68010238D01*
X123109523Y-68010238D02*
X123014285Y-67962619D01*
X123014285Y-67962619D02*
X122823809Y-67962619D01*
X122823809Y-67962619D02*
X122728571Y-68010238D01*
X122728571Y-68010238D02*
X122680952Y-68057857D01*
X122680952Y-68057857D02*
X122633333Y-68153095D01*
X122633333Y-68153095D02*
X122633333Y-68200714D01*
X122633333Y-68200714D02*
X122680952Y-68295952D01*
X122680952Y-68295952D02*
X122728571Y-68343571D01*
X122728571Y-68343571D02*
X122823809Y-68391190D01*
X122823809Y-68391190D02*
X123014285Y-68391190D01*
X123014285Y-68391190D02*
X123109523Y-68438809D01*
X123109523Y-68438809D02*
X123157142Y-68486428D01*
X123157142Y-68486428D02*
X123204761Y-68581666D01*
X123204761Y-68581666D02*
X123204761Y-68772142D01*
X123204761Y-68772142D02*
X123157142Y-68867380D01*
X123157142Y-68867380D02*
X123109523Y-68915000D01*
X123109523Y-68915000D02*
X123014285Y-68962619D01*
X123014285Y-68962619D02*
X122823809Y-68962619D01*
X122823809Y-68962619D02*
X122728571Y-68915000D01*
X122728571Y-68915000D02*
X122680952Y-68867380D01*
X122680952Y-68867380D02*
X122633333Y-68772142D01*
X122633333Y-68772142D02*
X122633333Y-68581666D01*
X122633333Y-68581666D02*
X122680952Y-68486428D01*
X122680952Y-68486428D02*
X122728571Y-68438809D01*
X122728571Y-68438809D02*
X122823809Y-68391190D01*
D11*
X98321190Y-74973333D02*
X98321190Y-75306666D01*
X97797380Y-75306666D02*
X98797380Y-75306666D01*
X98797380Y-75306666D02*
X98797380Y-74830476D01*
X98702142Y-74497142D02*
X98749761Y-74449523D01*
X98749761Y-74449523D02*
X98797380Y-74354285D01*
X98797380Y-74354285D02*
X98797380Y-74116190D01*
X98797380Y-74116190D02*
X98749761Y-74020952D01*
X98749761Y-74020952D02*
X98702142Y-73973333D01*
X98702142Y-73973333D02*
X98606904Y-73925714D01*
X98606904Y-73925714D02*
X98511666Y-73925714D01*
X98511666Y-73925714D02*
X98368809Y-73973333D01*
X98368809Y-73973333D02*
X97797380Y-74544761D01*
X97797380Y-74544761D02*
X97797380Y-73925714D01*
D10*
X66646323Y-59762219D02*
X66646323Y-60476504D01*
X66646323Y-60476504D02*
X66693942Y-60619361D01*
X66693942Y-60619361D02*
X66789180Y-60714600D01*
X66789180Y-60714600D02*
X66932037Y-60762219D01*
X66932037Y-60762219D02*
X67027275Y-60762219D01*
X65646323Y-60762219D02*
X66217751Y-60762219D01*
X65932037Y-60762219D02*
X65932037Y-59762219D01*
X65932037Y-59762219D02*
X66027275Y-59905076D01*
X66027275Y-59905076D02*
X66122513Y-60000314D01*
X66122513Y-60000314D02*
X66217751Y-60047933D01*
X64741561Y-59762219D02*
X65217751Y-59762219D01*
X65217751Y-59762219D02*
X65265370Y-60238409D01*
X65265370Y-60238409D02*
X65217751Y-60190790D01*
X65217751Y-60190790D02*
X65122513Y-60143171D01*
X65122513Y-60143171D02*
X64884418Y-60143171D01*
X64884418Y-60143171D02*
X64789180Y-60190790D01*
X64789180Y-60190790D02*
X64741561Y-60238409D01*
X64741561Y-60238409D02*
X64693942Y-60333647D01*
X64693942Y-60333647D02*
X64693942Y-60571742D01*
X64693942Y-60571742D02*
X64741561Y-60666980D01*
X64741561Y-60666980D02*
X64789180Y-60714600D01*
X64789180Y-60714600D02*
X64884418Y-60762219D01*
X64884418Y-60762219D02*
X65122513Y-60762219D01*
X65122513Y-60762219D02*
X65217751Y-60714600D01*
X65217751Y-60714600D02*
X65265370Y-60666980D01*
D12*
X48260000Y-107650000D02*
X48260000Y-106320000D01*
X49590000Y-107650000D02*
X48260000Y-107650000D01*
X50860000Y-107650000D02*
X99180000Y-107650000D01*
X50860000Y-107650000D02*
X50860000Y-105050000D01*
X99180000Y-107650000D02*
X99180000Y-102450000D01*
X48260000Y-105050000D02*
X48260000Y-102450000D01*
X50860000Y-105050000D02*
X48260000Y-105050000D01*
X48260000Y-102450000D02*
X99180000Y-102450000D01*
D11*
X46220000Y-125050000D02*
X101220000Y-125050000D01*
X101220000Y-125050000D02*
X101220000Y-85050000D01*
X101220000Y-85050000D02*
X46220000Y-85050000D01*
X46220000Y-85050000D02*
X46220000Y-125050000D01*
D12*
X112295000Y-88830000D02*
X114955000Y-88830000D01*
X112295000Y-96510000D02*
X112295000Y-88830000D01*
X112295000Y-96510000D02*
X114955000Y-96510000D01*
X112295000Y-97780000D02*
X112295000Y-99110000D01*
X112295000Y-99110000D02*
X113625000Y-99110000D01*
X114955000Y-96510000D02*
X114955000Y-88830000D01*
X138000000Y-58445000D02*
X139270000Y-58445000D01*
X139270000Y-58445000D02*
X139270000Y-57175000D01*
X135080000Y-56132071D02*
X135080000Y-55735000D01*
X135840000Y-56132071D02*
X135840000Y-55735000D01*
X137620000Y-56065000D02*
X137620000Y-55735000D01*
X138380000Y-56065000D02*
X138380000Y-55735000D01*
X134130000Y-55735000D02*
X134130000Y-53075000D01*
X136730000Y-55735000D02*
X136730000Y-53075000D01*
X139330000Y-55735000D02*
X134130000Y-55735000D01*
X134130000Y-53075000D02*
X139330000Y-53075000D01*
X135840000Y-53075000D02*
X135840000Y-47075000D01*
X137720000Y-53075000D02*
X137720000Y-47075000D01*
X137840000Y-53075000D02*
X137840000Y-47075000D01*
X137960000Y-53075000D02*
X137960000Y-47075000D01*
X138080000Y-53075000D02*
X138080000Y-47075000D01*
X138200000Y-53075000D02*
X138200000Y-47075000D01*
X138320000Y-53075000D02*
X138320000Y-47075000D01*
X138380000Y-53075000D02*
X138380000Y-47075000D01*
X139330000Y-53075000D02*
X139330000Y-55735000D01*
X135080000Y-47075000D02*
X135080000Y-53075000D01*
X135840000Y-47075000D02*
X135080000Y-47075000D01*
X137620000Y-47075000D02*
X137620000Y-53075000D01*
X138380000Y-47075000D02*
X137620000Y-47075000D01*
D11*
X127914753Y-50006248D02*
G75*
G03*
X127914753Y-50006248I-914753J0D01*
G01*
X127914400Y-48000000D02*
G75*
G03*
X127914400Y-48000000I-914400J0D01*
G01*
D12*
X80300000Y-59500000D02*
X79900000Y-59500000D01*
X82900000Y-59500000D02*
X82500000Y-59500000D01*
X85400000Y-59500000D02*
X85000000Y-59500000D01*
X87900000Y-59500000D02*
X87500000Y-59500000D01*
X90500000Y-59500000D02*
X90100000Y-59500000D01*
X93000000Y-59500000D02*
X92600000Y-59500000D01*
X95600000Y-59500000D02*
X95200000Y-59500000D01*
X98100000Y-59500000D02*
X97700000Y-59500000D01*
X100700000Y-59500000D02*
X100300000Y-59500000D01*
X103200000Y-59500000D02*
X102800000Y-59500000D01*
X105700000Y-59500000D02*
X105300000Y-59500000D01*
X108300000Y-59500000D02*
X107900000Y-59500000D01*
X110800000Y-59500000D02*
X110400000Y-59500000D01*
X113400000Y-59500000D02*
X113000000Y-59500000D01*
X115900000Y-59500000D02*
X115500000Y-59500000D01*
X118400000Y-59500000D02*
X118000000Y-59500000D01*
X121000000Y-59500000D02*
X120600000Y-59500000D01*
X123500000Y-59500000D02*
X123100000Y-59500000D01*
X125833000Y-59500000D02*
X125833000Y-56493000D01*
X126100000Y-59500000D02*
X125700000Y-59500000D01*
X128500000Y-59500000D02*
X128200000Y-59500000D01*
X125833000Y-56493000D02*
X128500000Y-56493000D01*
X77500000Y-52700000D02*
X77500000Y-59500000D01*
X77500000Y-50500000D02*
X77500000Y-50100000D01*
X77500000Y-47900000D02*
X77500000Y-47500000D01*
X77500000Y-38500000D02*
X77500000Y-45300000D01*
X80300000Y-38500000D02*
X79900000Y-38500000D01*
X82900000Y-38500000D02*
X82500000Y-38500000D01*
X85400000Y-38500000D02*
X85000000Y-38500000D01*
X87900000Y-38500000D02*
X87500000Y-38500000D01*
X90500000Y-38500000D02*
X90100000Y-38500000D01*
X93000000Y-38500000D02*
X92600000Y-38500000D01*
X95600000Y-38500000D02*
X95200000Y-38500000D01*
X98100000Y-38500000D02*
X97700000Y-38500000D01*
X100700000Y-38500000D02*
X100300000Y-38500000D01*
X103200000Y-38500000D02*
X102800000Y-38500000D01*
X105700000Y-38500000D02*
X105300000Y-38500000D01*
X108300000Y-38500000D02*
X107900000Y-38500000D01*
X110800000Y-38500000D02*
X110400000Y-38500000D01*
X113400000Y-38500000D02*
X113000000Y-38500000D01*
X115900000Y-38500000D02*
X115500000Y-38500000D01*
X118400000Y-38500000D02*
X118000000Y-38500000D01*
X121000000Y-38500000D02*
X120600000Y-38500000D01*
X123500000Y-38500000D02*
X123100000Y-38500000D01*
X126100000Y-38500000D02*
X125700000Y-38500000D01*
X128500000Y-38500000D02*
X128200000Y-38500000D01*
X55865000Y-84232600D02*
X57135000Y-84232600D01*
X57135000Y-84232600D02*
X57135000Y-82962600D01*
X50405000Y-81919671D02*
X50405000Y-81522600D01*
X51165000Y-81919671D02*
X51165000Y-81522600D01*
X52945000Y-81919671D02*
X52945000Y-81522600D01*
X53705000Y-81919671D02*
X53705000Y-81522600D01*
X55485000Y-81852600D02*
X55485000Y-81522600D01*
X56245000Y-81852600D02*
X56245000Y-81522600D01*
X49455000Y-81522600D02*
X49455000Y-78862600D01*
X52055000Y-81522600D02*
X52055000Y-78862600D01*
X54595000Y-81522600D02*
X54595000Y-78862600D01*
X57195000Y-81522600D02*
X49455000Y-81522600D01*
X49455000Y-78862600D02*
X57195000Y-78862600D01*
X51165000Y-78862600D02*
X51165000Y-72862600D01*
X53705000Y-78862600D02*
X53705000Y-72862600D01*
X55585000Y-78862600D02*
X55585000Y-72862600D01*
X55705000Y-78862600D02*
X55705000Y-72862600D01*
X55825000Y-78862600D02*
X55825000Y-72862600D01*
X55945000Y-78862600D02*
X55945000Y-72862600D01*
X56065000Y-78862600D02*
X56065000Y-72862600D01*
X56185000Y-78862600D02*
X56185000Y-72862600D01*
X56245000Y-78862600D02*
X56245000Y-72862600D01*
X57195000Y-78862600D02*
X57195000Y-81522600D01*
X50405000Y-72862600D02*
X50405000Y-78862600D01*
X51165000Y-72862600D02*
X50405000Y-72862600D01*
X52945000Y-72862600D02*
X52945000Y-78862600D01*
X53705000Y-72862600D02*
X52945000Y-72862600D01*
X55485000Y-72862600D02*
X55485000Y-78862600D01*
X56245000Y-72862600D02*
X55485000Y-72862600D01*
D11*
X171480000Y-63505600D02*
X171480000Y-121505600D01*
X167730000Y-125005600D02*
X167980000Y-125005600D01*
D12*
X158790000Y-123020600D02*
X158790000Y-117820600D01*
X157885000Y-76115600D02*
X157885000Y-81255600D01*
X157885000Y-73515600D02*
X157885000Y-74845600D01*
X156555000Y-73515600D02*
X157885000Y-73515600D01*
X155285000Y-76115600D02*
X157885000Y-76115600D01*
X155285000Y-73515600D02*
X155285000Y-76115600D01*
X153650000Y-120420600D02*
X153650000Y-117820600D01*
X153650000Y-117820600D02*
X158790000Y-117820600D01*
X152685000Y-81255600D02*
X157885000Y-81255600D01*
X152685000Y-73515600D02*
X155285000Y-73515600D01*
X152685000Y-73515600D02*
X152685000Y-81255600D01*
X151050000Y-123020600D02*
X158790000Y-123020600D01*
X151050000Y-123020600D02*
X151050000Y-120420600D01*
X151050000Y-120420600D02*
X153650000Y-120420600D01*
X151050000Y-119150600D02*
X151050000Y-117820600D01*
X151050000Y-117820600D02*
X152380000Y-117820600D01*
X121580000Y-69645600D02*
X121580000Y-117965600D01*
X121580000Y-67045600D02*
X121580000Y-68375600D01*
X120250000Y-67045600D02*
X121580000Y-67045600D01*
X118980000Y-69645600D02*
X121580000Y-69645600D01*
X118980000Y-67045600D02*
X118980000Y-69645600D01*
D11*
X118980000Y-60005600D02*
X167980000Y-60005600D01*
X118980000Y-60005600D02*
X118480000Y-60005243D01*
X118230000Y-125005600D02*
X167730000Y-125005600D01*
D12*
X116380000Y-117965600D02*
X121580000Y-117965600D01*
X116380000Y-67045600D02*
X118980000Y-67045600D01*
X116380000Y-67045600D02*
X116380000Y-117965600D01*
D11*
X114980000Y-121505600D02*
X114980000Y-63555600D01*
X167980000Y-125005600D02*
G75*
G03*
X171480000Y-121505600I1J3499999D01*
G01*
X171480000Y-63505600D02*
G75*
G03*
X167980000Y-60005600I-3499999J1D01*
G01*
X114980000Y-121505600D02*
G75*
G03*
X118480000Y-125005600I3500000J0D01*
G01*
X118480000Y-60005243D02*
G75*
G03*
X114980000Y-63555600I0J-3500357D01*
G01*
X169631000Y-121505600D02*
G75*
G03*
X169631000Y-121505600I-1651000J0D01*
G01*
X169631000Y-63505600D02*
G75*
G03*
X169631000Y-63505600I-1651000J0D01*
G01*
X120631000Y-121505600D02*
G75*
G03*
X120631000Y-121505600I-1651000J0D01*
G01*
X120631000Y-63505600D02*
G75*
G03*
X120631000Y-63505600I-1651000J0D01*
G01*
D12*
X72270000Y-52850000D02*
X72270000Y-51580000D01*
X72270000Y-51580000D02*
X71000000Y-51580000D01*
X69957071Y-58310000D02*
X69502929Y-58310000D01*
X69957071Y-57550000D02*
X69502929Y-57550000D01*
X69957071Y-55770000D02*
X69502929Y-55770000D01*
X69957071Y-55010000D02*
X69502929Y-55010000D01*
X69890000Y-53230000D02*
X69502929Y-53230000D01*
X69890000Y-52470000D02*
X69502929Y-52470000D01*
X67417071Y-58310000D02*
X67020000Y-58310000D01*
X67417071Y-57550000D02*
X67020000Y-57550000D01*
X67417071Y-55770000D02*
X67020000Y-55770000D01*
X67417071Y-55010000D02*
X67020000Y-55010000D01*
X67417071Y-53230000D02*
X67020000Y-53230000D01*
X67417071Y-52470000D02*
X67020000Y-52470000D01*
X67020000Y-59260000D02*
X64360000Y-59260000D01*
X67020000Y-56660000D02*
X64360000Y-56660000D01*
X67020000Y-54120000D02*
X64360000Y-54120000D01*
X67020000Y-51520000D02*
X67020000Y-59260000D01*
X64360000Y-59260000D02*
X64360000Y-51520000D01*
X64360000Y-57550000D02*
X58360000Y-57550000D01*
X64360000Y-55010000D02*
X58360000Y-55010000D01*
X64360000Y-53130000D02*
X58360000Y-53130000D01*
X64360000Y-53010000D02*
X58360000Y-53010000D01*
X64360000Y-52890000D02*
X58360000Y-52890000D01*
X64360000Y-52770000D02*
X58360000Y-52770000D01*
X64360000Y-52650000D02*
X58360000Y-52650000D01*
X64360000Y-52530000D02*
X58360000Y-52530000D01*
X64360000Y-52470000D02*
X58360000Y-52470000D01*
X64360000Y-51520000D02*
X67020000Y-51520000D01*
X58360000Y-58310000D02*
X64360000Y-58310000D01*
X58360000Y-57550000D02*
X58360000Y-58310000D01*
X58360000Y-55770000D02*
X64360000Y-55770000D01*
X58360000Y-55010000D02*
X58360000Y-55770000D01*
X58360000Y-53230000D02*
X64360000Y-53230000D01*
X58360000Y-52470000D02*
X58360000Y-53230000D01*
M02*
