<?xml version="1.0" standalone="no"?>
 <!DOCTYPE svg PUBLIC "-//W3C//DTD SVG 1.1//EN" 
 "http://www.w3.org/Graphics/SVG/1.1/DTD/svg11.dtd"> 
<svg
  xmlns:svg="http://www.w3.org/2000/svg"
  xmlns="http://www.w3.org/2000/svg"
  xmlns:xlink="http://www.w3.org/1999/xlink"
  version="1.1"
  width="297.0022mm" height="210.0072mm" viewBox="0.0000 0.0000 297.0022 210.0072">
<title>SVG Image created as pedalboard-hw-B_Silkscreen.svg date 2023/04/24 18:50:59 </title>
  <desc>Image generated by PCBNEW </desc>
<g style="fill:#000000; fill-opacity:1.0000;stroke:#000000; stroke-opacity:1.0000;
stroke-linecap:round; stroke-linejoin:round;"
 transform="translate(0 0) scale(1 1)">
</g>
<g style="fill:#000000; fill-opacity:0.0; 
stroke:#000000; stroke-width:0.0000; stroke-opacity:1; 
stroke-linecap:round; stroke-linejoin:round;">
</g>
<g style="fill:#000000; fill-opacity:0.0; 
stroke:#000000; stroke-width:0.1500; stroke-opacity:1; 
stroke-linecap:round; stroke-linejoin:round;">
<g transform="rotate(90.000000 241.6810 71.4756)">
<text x="241.6810" y="71.4756"
transform="scale(-1 1) translate(-483.362000 0)"
textLength="3.2226" font-size="1.3333" lengthAdjust="spacingAndGlyphs"
text-anchor="start" opacity="0">GND</text>
</g>
<g class="stroked-text"><desc>GND</desc>
<path d="M240.6062 70.7137
L240.5586 70.8089
" />
<path d="M240.5586 70.8089
L240.5586 70.9518
" />
<path d="M240.5586 70.9518
L240.6062 71.0946
" />
<path d="M240.6062 71.0946
L240.7015 71.1899
" />
<path d="M240.7015 71.1899
L240.7967 71.2375
" />
<path d="M240.7967 71.2375
L240.9872 71.2851
" />
<path d="M240.9872 71.2851
L241.1300 71.2851
" />
<path d="M241.1300 71.2851
L241.3205 71.2375
" />
<path d="M241.3205 71.2375
L241.4158 71.1899
" />
<path d="M241.4158 71.1899
L241.5110 71.0946
" />
<path d="M241.5110 71.0946
L241.5586 70.9518
" />
<path d="M241.5586 70.9518
L241.5586 70.8566
" />
<path d="M241.5586 70.8566
L241.5110 70.7137
" />
<path d="M241.5110 70.7137
L241.4634 70.6661
" />
<path d="M241.4634 70.6661
L241.1300 70.6661
" />
<path d="M241.1300 70.6661
L241.1300 70.8566
" />
<path d="M241.5586 70.2375
L240.5586 70.2375
" />
<path d="M240.5586 70.2375
L241.5586 69.6661
" />
<path d="M241.5586 69.6661
L240.5586 69.6661
" />
<path d="M241.5586 69.1899
L240.5586 69.1899
" />
<path d="M240.5586 69.1899
L240.5586 68.9518
" />
<path d="M240.5586 68.9518
L240.6062 68.8089
" />
<path d="M240.6062 68.8089
L240.7015 68.7137
" />
<path d="M240.7015 68.7137
L240.7967 68.6661
" />
<path d="M240.7967 68.6661
L240.9872 68.6185
" />
<path d="M240.9872 68.6185
L241.1300 68.6185
" />
<path d="M241.1300 68.6185
L241.3205 68.6661
" />
<path d="M241.3205 68.6661
L241.4158 68.7137
" />
<path d="M241.4158 68.7137
L241.5110 68.8089
" />
<path d="M241.5110 68.8089
L241.5586 68.9518
" />
<path d="M241.5586 68.9518
L241.5586 69.1899
" />
</g><g transform="rotate(90.000000 244.1194 71.3740)">
<text x="244.1194" y="71.3740"
transform="scale(-1 1) translate(-488.238800 0)"
textLength="6.6988" font-size="1.3333" lengthAdjust="spacingAndGlyphs"
text-anchor="start" opacity="0">Data out</text>
</g>
<g class="stroked-text"><desc>Data out</desc>
<path d="M243.9970 71.1359
L242.9970 71.1359
" />
<path d="M242.9970 71.1359
L242.9970 70.8978
" />
<path d="M242.9970 70.8978
L243.0446 70.7550
" />
<path d="M243.0446 70.7550
L243.1399 70.6597
" />
<path d="M243.1399 70.6597
L243.2351 70.6121
" />
<path d="M243.2351 70.6121
L243.4256 70.5645
" />
<path d="M243.4256 70.5645
L243.5684 70.5645
" />
<path d="M243.5684 70.5645
L243.7589 70.6121
" />
<path d="M243.7589 70.6121
L243.8542 70.6597
" />
<path d="M243.8542 70.6597
L243.9494 70.7550
" />
<path d="M243.9494 70.7550
L243.9970 70.8978
" />
<path d="M243.9970 70.8978
L243.9970 71.1359
" />
<path d="M243.9970 69.7073
L243.4732 69.7073
" />
<path d="M243.4732 69.7073
L243.3780 69.7550
" />
<path d="M243.3780 69.7550
L243.3304 69.8502
" />
<path d="M243.3304 69.8502
L243.3304 70.0407
" />
<path d="M243.3304 70.0407
L243.3780 70.1359
" />
<path d="M243.9494 69.7073
L243.9970 69.8026
" />
<path d="M243.9970 69.8026
L243.9970 70.0407
" />
<path d="M243.9970 70.0407
L243.9494 70.1359
" />
<path d="M243.9494 70.1359
L243.8542 70.1835
" />
<path d="M243.8542 70.1835
L243.7589 70.1835
" />
<path d="M243.7589 70.1835
L243.6637 70.1359
" />
<path d="M243.6637 70.1359
L243.6161 70.0407
" />
<path d="M243.6161 70.0407
L243.6161 69.8026
" />
<path d="M243.6161 69.8026
L243.5684 69.7073
" />
<path d="M243.3304 69.3740
L243.3304 68.9930
" />
<path d="M242.9970 69.2311
L243.8542 69.2311
" />
<path d="M243.8542 69.2311
L243.9494 69.1835
" />
<path d="M243.9494 69.1835
L243.9970 69.0883
" />
<path d="M243.9970 69.0883
L243.9970 68.9930
" />
<path d="M243.9970 68.2311
L243.4732 68.2311
" />
<path d="M243.4732 68.2311
L243.3780 68.2788
" />
<path d="M243.3780 68.2788
L243.3304 68.3740
" />
<path d="M243.3304 68.3740
L243.3304 68.5645
" />
<path d="M243.3304 68.5645
L243.3780 68.6597
" />
<path d="M243.9494 68.2311
L243.9970 68.3264
" />
<path d="M243.9970 68.3264
L243.9970 68.5645
" />
<path d="M243.9970 68.5645
L243.9494 68.6597
" />
<path d="M243.9494 68.6597
L243.8542 68.7073
" />
<path d="M243.8542 68.7073
L243.7589 68.7073
" />
<path d="M243.7589 68.7073
L243.6637 68.6597
" />
<path d="M243.6637 68.6597
L243.6161 68.5645
" />
<path d="M243.6161 68.5645
L243.6161 68.3264
" />
<path d="M243.6161 68.3264
L243.5684 68.2311
" />
<path d="M243.9970 66.8502
L243.9494 66.9454
" />
<path d="M243.9494 66.9454
L243.9018 66.9930
" />
<path d="M243.9018 66.9930
L243.8065 67.0407
" />
<path d="M243.8065 67.0407
L243.5208 67.0407
" />
<path d="M243.5208 67.0407
L243.4256 66.9930
" />
<path d="M243.4256 66.9930
L243.3780 66.9454
" />
<path d="M243.3780 66.9454
L243.3304 66.8502
" />
<path d="M243.3304 66.8502
L243.3304 66.7073
" />
<path d="M243.3304 66.7073
L243.3780 66.6121
" />
<path d="M243.3780 66.6121
L243.4256 66.5645
" />
<path d="M243.4256 66.5645
L243.5208 66.5169
" />
<path d="M243.5208 66.5169
L243.8065 66.5169
" />
<path d="M243.8065 66.5169
L243.9018 66.5645
" />
<path d="M243.9018 66.5645
L243.9494 66.6121
" />
<path d="M243.9494 66.6121
L243.9970 66.7073
" />
<path d="M243.9970 66.7073
L243.9970 66.8502
" />
<path d="M243.3304 65.6597
L243.9970 65.6597
" />
<path d="M243.3304 66.0883
L243.8542 66.0883
" />
<path d="M243.8542 66.0883
L243.9494 66.0407
" />
<path d="M243.9494 66.0407
L243.9970 65.9454
" />
<path d="M243.9970 65.9454
L243.9970 65.8026
" />
<path d="M243.9970 65.8026
L243.9494 65.7073
" />
<path d="M243.9494 65.7073
L243.9018 65.6597
" />
<path d="M243.3304 65.3264
L243.3304 64.9454
" />
<path d="M242.9970 65.1835
L243.8542 65.1835
" />
<path d="M243.8542 65.1835
L243.9494 65.1359
" />
<path d="M243.9494 65.1359
L243.9970 65.0407
" />
<path d="M243.9970 65.0407
L243.9970 64.9454
" />
</g><g transform="rotate(-90.000000 225.0694 49.7332)">
<text x="225.0694" y="49.7332"
transform="scale(-1 1) translate(-450.138800 0)"
textLength="1.6988" font-size="1.3333" lengthAdjust="spacingAndGlyphs"
text-anchor="start" opacity="0">IN</text>
</g>
<g class="stroked-text"><desc>IN</desc>
<path d="M225.1918 49.9713
L226.1918 49.9713
" />
<path d="M225.1918 50.4475
L226.1918 50.4475
" />
<path d="M226.1918 50.4475
L225.1918 51.0189
" />
<path d="M225.1918 51.0189
L226.1918 51.0189
" />
</g><g transform="rotate(-90.000000 107.7722 36.5760)">
<text x="107.7722" y="36.5760"
transform="scale(-1 1) translate(-215.544400 0)"
textLength="3.2226" font-size="1.3333" lengthAdjust="spacingAndGlyphs"
text-anchor="start" opacity="0">GND</text>
</g>
<g class="stroked-text"><desc>GND</desc>
<path d="M108.8470 37.3379
L108.8946 37.2427
" />
<path d="M108.8946 37.2427
L108.8946 37.0998
" />
<path d="M108.8946 37.0998
L108.8470 36.9570
" />
<path d="M108.8470 36.9570
L108.7517 36.8617
" />
<path d="M108.7517 36.8617
L108.6565 36.8141
" />
<path d="M108.6565 36.8141
L108.4660 36.7665
" />
<path d="M108.4660 36.7665
L108.3232 36.7665
" />
<path d="M108.3232 36.7665
L108.1327 36.8141
" />
<path d="M108.1327 36.8141
L108.0374 36.8617
" />
<path d="M108.0374 36.8617
L107.9422 36.9570
" />
<path d="M107.9422 36.9570
L107.8946 37.0998
" />
<path d="M107.8946 37.0998
L107.8946 37.1950
" />
<path d="M107.8946 37.1950
L107.9422 37.3379
" />
<path d="M107.9422 37.3379
L107.9898 37.3855
" />
<path d="M107.9898 37.3855
L108.3232 37.3855
" />
<path d="M108.3232 37.3855
L108.3232 37.1950
" />
<path d="M107.8946 37.8141
L108.8946 37.8141
" />
<path d="M108.8946 37.8141
L107.8946 38.3855
" />
<path d="M107.8946 38.3855
L108.8946 38.3855
" />
<path d="M107.8946 38.8617
L108.8946 38.8617
" />
<path d="M108.8946 38.8617
L108.8946 39.0998
" />
<path d="M108.8946 39.0998
L108.8470 39.2427
" />
<path d="M108.8470 39.2427
L108.7517 39.3379
" />
<path d="M108.7517 39.3379
L108.6565 39.3855
" />
<path d="M108.6565 39.3855
L108.4660 39.4331
" />
<path d="M108.4660 39.4331
L108.3232 39.4331
" />
<path d="M108.3232 39.4331
L108.1327 39.3855
" />
<path d="M108.1327 39.3855
L108.0374 39.3379
" />
<path d="M108.0374 39.3379
L107.9422 39.2427
" />
<path d="M107.9422 39.2427
L107.8946 39.0998
" />
<path d="M107.8946 39.0998
L107.8946 38.8617
" />
</g><g transform="rotate(-90.000000 163.5422 50.0600)">
<text x="163.5422" y="50.0600"
transform="scale(-1 1) translate(-327.084400 0)"
textLength="5.7464" font-size="1.3333" lengthAdjust="spacingAndGlyphs"
text-anchor="start" opacity="0">5V PSU</text>
</g>
<g class="stroked-text"><desc>5V PSU</desc>
<path d="M164.6646 50.7743
L164.6646 50.2981
" />
<path d="M164.6646 50.2981
L164.1884 50.2505
" />
<path d="M164.1884 50.2505
L164.2360 50.2981
" />
<path d="M164.2360 50.2981
L164.2836 50.3933
" />
<path d="M164.2836 50.3933
L164.2836 50.6314
" />
<path d="M164.2836 50.6314
L164.2360 50.7267
" />
<path d="M164.2360 50.7267
L164.1884 50.7743
" />
<path d="M164.1884 50.7743
L164.0932 50.8219
" />
<path d="M164.0932 50.8219
L163.8551 50.8219
" />
<path d="M163.8551 50.8219
L163.7598 50.7743
" />
<path d="M163.7598 50.7743
L163.7122 50.7267
" />
<path d="M163.7122 50.7267
L163.6646 50.6314
" />
<path d="M163.6646 50.6314
L163.6646 50.3933
" />
<path d="M163.6646 50.3933
L163.7122 50.2981
" />
<path d="M163.7122 50.2981
L163.7598 50.2505
" />
<path d="M164.6646 51.1076
L163.6646 51.4410
" />
<path d="M163.6646 51.4410
L164.6646 51.7743
" />
<path d="M163.6646 52.8695
L164.6646 52.8695
" />
<path d="M164.6646 52.8695
L164.6646 53.2505
" />
<path d="M164.6646 53.2505
L164.6170 53.3457
" />
<path d="M164.6170 53.3457
L164.5693 53.3933
" />
<path d="M164.5693 53.3933
L164.4741 53.4410
" />
<path d="M164.4741 53.4410
L164.3312 53.4410
" />
<path d="M164.3312 53.4410
L164.2360 53.3933
" />
<path d="M164.2360 53.3933
L164.1884 53.3457
" />
<path d="M164.1884 53.3457
L164.1408 53.2505
" />
<path d="M164.1408 53.2505
L164.1408 52.8695
" />
<path d="M163.7122 53.8219
L163.6646 53.9648
" />
<path d="M163.6646 53.9648
L163.6646 54.2029
" />
<path d="M163.6646 54.2029
L163.7122 54.2981
" />
<path d="M163.7122 54.2981
L163.7598 54.3457
" />
<path d="M163.7598 54.3457
L163.8551 54.3933
" />
<path d="M163.8551 54.3933
L163.9503 54.3933
" />
<path d="M163.9503 54.3933
L164.0455 54.3457
" />
<path d="M164.0455 54.3457
L164.0932 54.2981
" />
<path d="M164.0932 54.2981
L164.1408 54.2029
" />
<path d="M164.1408 54.2029
L164.1884 54.0124
" />
<path d="M164.1884 54.0124
L164.2360 53.9171
" />
<path d="M164.2360 53.9171
L164.2836 53.8695
" />
<path d="M164.2836 53.8695
L164.3789 53.8219
" />
<path d="M164.3789 53.8219
L164.4741 53.8219
" />
<path d="M164.4741 53.8219
L164.5693 53.8695
" />
<path d="M164.5693 53.8695
L164.6170 53.9171
" />
<path d="M164.6170 53.9171
L164.6646 54.0124
" />
<path d="M164.6646 54.0124
L164.6646 54.2505
" />
<path d="M164.6646 54.2505
L164.6170 54.3933
" />
<path d="M164.6646 54.8219
L163.8551 54.8219
" />
<path d="M163.8551 54.8219
L163.7598 54.8695
" />
<path d="M163.7598 54.8695
L163.7122 54.9171
" />
<path d="M163.7122 54.9171
L163.6646 55.0124
" />
<path d="M163.6646 55.0124
L163.6646 55.2029
" />
<path d="M163.6646 55.2029
L163.7122 55.2981
" />
<path d="M163.7122 55.2981
L163.7598 55.3457
" />
<path d="M163.7598 55.3457
L163.8551 55.3933
" />
<path d="M163.8551 55.3933
L164.6646 55.3933
" />
</g><text x="211.4322" y="77.8600"
transform="scale(-1 1) translate(-422.864400 0)"
textLength="13.0798" font-size="1.3333" lengthAdjust="spacingAndGlyphs"
text-anchor="start" opacity="0">Open Pedalboard</text>
<g class="stroked-text"><desc>Open Pedalboard</desc>
<path d="M211.8608 76.7376
L212.0512 76.7376
" />
<path d="M212.0512 76.7376
L212.1465 76.7852
" />
<path d="M212.1465 76.7852
L212.2417 76.8805
" />
<path d="M212.2417 76.8805
L212.2893 77.0710
" />
<path d="M212.2893 77.0710
L212.2893 77.4043
" />
<path d="M212.2893 77.4043
L212.2417 77.5948
" />
<path d="M212.2417 77.5948
L212.1465 77.6900
" />
<path d="M212.1465 77.6900
L212.0512 77.7376
" />
<path d="M212.0512 77.7376
L211.8608 77.7376
" />
<path d="M211.8608 77.7376
L211.7655 77.6900
" />
<path d="M211.7655 77.6900
L211.6703 77.5948
" />
<path d="M211.6703 77.5948
L211.6227 77.4043
" />
<path d="M211.6227 77.4043
L211.6227 77.0710
" />
<path d="M211.6227 77.0710
L211.6703 76.8805
" />
<path d="M211.6703 76.8805
L211.7655 76.7852
" />
<path d="M211.7655 76.7852
L211.8608 76.7376
" />
<path d="M212.7179 77.0710
L212.7179 78.0710
" />
<path d="M212.7179 77.1186
L212.8132 77.0710
" />
<path d="M212.8132 77.0710
L213.0036 77.0710
" />
<path d="M213.0036 77.0710
L213.0989 77.1186
" />
<path d="M213.0989 77.1186
L213.1465 77.1662
" />
<path d="M213.1465 77.1662
L213.1941 77.2614
" />
<path d="M213.1941 77.2614
L213.1941 77.5471
" />
<path d="M213.1941 77.5471
L213.1465 77.6424
" />
<path d="M213.1465 77.6424
L213.0989 77.6900
" />
<path d="M213.0989 77.6900
L213.0036 77.7376
" />
<path d="M213.0036 77.7376
L212.8132 77.7376
" />
<path d="M212.8132 77.7376
L212.7179 77.6900
" />
<path d="M214.0036 77.6900
L213.9084 77.7376
" />
<path d="M213.9084 77.7376
L213.7179 77.7376
" />
<path d="M213.7179 77.7376
L213.6227 77.6900
" />
<path d="M213.6227 77.6900
L213.5751 77.5948
" />
<path d="M213.5751 77.5948
L213.5751 77.2138
" />
<path d="M213.5751 77.2138
L213.6227 77.1186
" />
<path d="M213.6227 77.1186
L213.7179 77.0710
" />
<path d="M213.7179 77.0710
L213.9084 77.0710
" />
<path d="M213.9084 77.0710
L214.0036 77.1186
" />
<path d="M214.0036 77.1186
L214.0512 77.2138
" />
<path d="M214.0512 77.2138
L214.0512 77.3090
" />
<path d="M214.0512 77.3090
L213.5751 77.4043
" />
<path d="M214.4798 77.0710
L214.4798 77.7376
" />
<path d="M214.4798 77.1662
L214.5274 77.1186
" />
<path d="M214.5274 77.1186
L214.6227 77.0710
" />
<path d="M214.6227 77.0710
L214.7655 77.0710
" />
<path d="M214.7655 77.0710
L214.8608 77.1186
" />
<path d="M214.8608 77.1186
L214.9084 77.2138
" />
<path d="M214.9084 77.2138
L214.9084 77.7376
" />
<path d="M216.1465 77.7376
L216.1465 76.7376
" />
<path d="M216.1465 76.7376
L216.5274 76.7376
" />
<path d="M216.5274 76.7376
L216.6227 76.7852
" />
<path d="M216.6227 76.7852
L216.6703 76.8329
" />
<path d="M216.6703 76.8329
L216.7179 76.9281
" />
<path d="M216.7179 76.9281
L216.7179 77.0710
" />
<path d="M216.7179 77.0710
L216.6703 77.1662
" />
<path d="M216.6703 77.1662
L216.6227 77.2138
" />
<path d="M216.6227 77.2138
L216.5274 77.2614
" />
<path d="M216.5274 77.2614
L216.1465 77.2614
" />
<path d="M217.5274 77.6900
L217.4322 77.7376
" />
<path d="M217.4322 77.7376
L217.2417 77.7376
" />
<path d="M217.2417 77.7376
L217.1465 77.6900
" />
<path d="M217.1465 77.6900
L217.0989 77.5948
" />
<path d="M217.0989 77.5948
L217.0989 77.2138
" />
<path d="M217.0989 77.2138
L217.1465 77.1186
" />
<path d="M217.1465 77.1186
L217.2417 77.0710
" />
<path d="M217.2417 77.0710
L217.4322 77.0710
" />
<path d="M217.4322 77.0710
L217.5274 77.1186
" />
<path d="M217.5274 77.1186
L217.5751 77.2138
" />
<path d="M217.5751 77.2138
L217.5751 77.3090
" />
<path d="M217.5751 77.3090
L217.0989 77.4043
" />
<path d="M218.4322 77.7376
L218.4322 76.7376
" />
<path d="M218.4322 77.6900
L218.3370 77.7376
" />
<path d="M218.3370 77.7376
L218.1465 77.7376
" />
<path d="M218.1465 77.7376
L218.0512 77.6900
" />
<path d="M218.0512 77.6900
L218.0036 77.6424
" />
<path d="M218.0036 77.6424
L217.9560 77.5471
" />
<path d="M217.9560 77.5471
L217.9560 77.2614
" />
<path d="M217.9560 77.2614
L218.0036 77.1662
" />
<path d="M218.0036 77.1662
L218.0512 77.1186
" />
<path d="M218.0512 77.1186
L218.1465 77.0710
" />
<path d="M218.1465 77.0710
L218.3370 77.0710
" />
<path d="M218.3370 77.0710
L218.4322 77.1186
" />
<path d="M219.3370 77.7376
L219.3370 77.2138
" />
<path d="M219.3370 77.2138
L219.2893 77.1186
" />
<path d="M219.2893 77.1186
L219.1941 77.0710
" />
<path d="M219.1941 77.0710
L219.0036 77.0710
" />
<path d="M219.0036 77.0710
L218.9084 77.1186
" />
<path d="M219.3370 77.6900
L219.2417 77.7376
" />
<path d="M219.2417 77.7376
L219.0036 77.7376
" />
<path d="M219.0036 77.7376
L218.9084 77.6900
" />
<path d="M218.9084 77.6900
L218.8608 77.5948
" />
<path d="M218.8608 77.5948
L218.8608 77.4995
" />
<path d="M218.8608 77.4995
L218.9084 77.4043
" />
<path d="M218.9084 77.4043
L219.0036 77.3567
" />
<path d="M219.0036 77.3567
L219.2417 77.3567
" />
<path d="M219.2417 77.3567
L219.3370 77.3090
" />
<path d="M219.9560 77.7376
L219.8608 77.6900
" />
<path d="M219.8608 77.6900
L219.8132 77.5948
" />
<path d="M219.8132 77.5948
L219.8132 76.7376
" />
<path d="M220.3370 77.7376
L220.3370 76.7376
" />
<path d="M220.3370 77.1186
L220.4322 77.0710
" />
<path d="M220.4322 77.0710
L220.6227 77.0710
" />
<path d="M220.6227 77.0710
L220.7179 77.1186
" />
<path d="M220.7179 77.1186
L220.7655 77.1662
" />
<path d="M220.7655 77.1662
L220.8132 77.2614
" />
<path d="M220.8132 77.2614
L220.8132 77.5471
" />
<path d="M220.8132 77.5471
L220.7655 77.6424
" />
<path d="M220.7655 77.6424
L220.7179 77.6900
" />
<path d="M220.7179 77.6900
L220.6227 77.7376
" />
<path d="M220.6227 77.7376
L220.4322 77.7376
" />
<path d="M220.4322 77.7376
L220.3370 77.6900
" />
<path d="M221.3846 77.7376
L221.2893 77.6900
" />
<path d="M221.2893 77.6900
L221.2417 77.6424
" />
<path d="M221.2417 77.6424
L221.1941 77.5471
" />
<path d="M221.1941 77.5471
L221.1941 77.2614
" />
<path d="M221.1941 77.2614
L221.2417 77.1662
" />
<path d="M221.2417 77.1662
L221.2893 77.1186
" />
<path d="M221.2893 77.1186
L221.3846 77.0710
" />
<path d="M221.3846 77.0710
L221.5274 77.0710
" />
<path d="M221.5274 77.0710
L221.6227 77.1186
" />
<path d="M221.6227 77.1186
L221.6703 77.1662
" />
<path d="M221.6703 77.1662
L221.7179 77.2614
" />
<path d="M221.7179 77.2614
L221.7179 77.5471
" />
<path d="M221.7179 77.5471
L221.6703 77.6424
" />
<path d="M221.6703 77.6424
L221.6227 77.6900
" />
<path d="M221.6227 77.6900
L221.5274 77.7376
" />
<path d="M221.5274 77.7376
L221.3846 77.7376
" />
<path d="M222.5751 77.7376
L222.5751 77.2138
" />
<path d="M222.5751 77.2138
L222.5274 77.1186
" />
<path d="M222.5274 77.1186
L222.4322 77.0710
" />
<path d="M222.4322 77.0710
L222.2417 77.0710
" />
<path d="M222.2417 77.0710
L222.1465 77.1186
" />
<path d="M222.5751 77.6900
L222.4798 77.7376
" />
<path d="M222.4798 77.7376
L222.2417 77.7376
" />
<path d="M222.2417 77.7376
L222.1465 77.6900
" />
<path d="M222.1465 77.6900
L222.0989 77.5948
" />
<path d="M222.0989 77.5948
L222.0989 77.4995
" />
<path d="M222.0989 77.4995
L222.1465 77.4043
" />
<path d="M222.1465 77.4043
L222.2417 77.3567
" />
<path d="M222.2417 77.3567
L222.4798 77.3567
" />
<path d="M222.4798 77.3567
L222.5751 77.3090
" />
<path d="M223.0512 77.7376
L223.0512 77.0710
" />
<path d="M223.0512 77.2614
L223.0989 77.1662
" />
<path d="M223.0989 77.1662
L223.1465 77.1186
" />
<path d="M223.1465 77.1186
L223.2417 77.0710
" />
<path d="M223.2417 77.0710
L223.3370 77.0710
" />
<path d="M224.0989 77.7376
L224.0989 76.7376
" />
<path d="M224.0989 77.6900
L224.0036 77.7376
" />
<path d="M224.0036 77.7376
L223.8132 77.7376
" />
<path d="M223.8132 77.7376
L223.7179 77.6900
" />
<path d="M223.7179 77.6900
L223.6703 77.6424
" />
<path d="M223.6703 77.6424
L223.6227 77.5471
" />
<path d="M223.6227 77.5471
L223.6227 77.2614
" />
<path d="M223.6227 77.2614
L223.6703 77.1662
" />
<path d="M223.6703 77.1662
L223.7179 77.1186
" />
<path d="M223.7179 77.1186
L223.8132 77.0710
" />
<path d="M223.8132 77.0710
L224.0036 77.0710
" />
<path d="M224.0036 77.0710
L224.0989 77.1186
" />
</g><text x="211.4322" y="79.4800"
transform="scale(-1 1) translate(-422.864400 0)"
textLength="24.1274" font-size="1.3333" lengthAdjust="spacingAndGlyphs"
text-anchor="start" opacity="0">https://github.com/pedalboard</text>
<g class="stroked-text"><desc>https://github.com/pedalboard</desc>
<path d="M211.6703 79.3576
L211.6703 78.3576
" />
<path d="M212.0989 79.3576
L212.0989 78.8338
" />
<path d="M212.0989 78.8338
L212.0512 78.7386
" />
<path d="M212.0512 78.7386
L211.9560 78.6910
" />
<path d="M211.9560 78.6910
L211.8132 78.6910
" />
<path d="M211.8132 78.6910
L211.7179 78.7386
" />
<path d="M211.7179 78.7386
L211.6703 78.7862
" />
<path d="M212.4322 78.6910
L212.8132 78.6910
" />
<path d="M212.5751 78.3576
L212.5751 79.2148
" />
<path d="M212.5751 79.2148
L212.6227 79.3100
" />
<path d="M212.6227 79.3100
L212.7179 79.3576
" />
<path d="M212.7179 79.3576
L212.8132 79.3576
" />
<path d="M213.0036 78.6910
L213.3846 78.6910
" />
<path d="M213.1465 78.3576
L213.1465 79.2148
" />
<path d="M213.1465 79.2148
L213.1941 79.3100
" />
<path d="M213.1941 79.3100
L213.2893 79.3576
" />
<path d="M213.2893 79.3576
L213.3846 79.3576
" />
<path d="M213.7179 78.6910
L213.7179 79.6910
" />
<path d="M213.7179 78.7386
L213.8132 78.6910
" />
<path d="M213.8132 78.6910
L214.0036 78.6910
" />
<path d="M214.0036 78.6910
L214.0989 78.7386
" />
<path d="M214.0989 78.7386
L214.1465 78.7862
" />
<path d="M214.1465 78.7862
L214.1941 78.8814
" />
<path d="M214.1941 78.8814
L214.1941 79.1671
" />
<path d="M214.1941 79.1671
L214.1465 79.2624
" />
<path d="M214.1465 79.2624
L214.0989 79.3100
" />
<path d="M214.0989 79.3100
L214.0036 79.3576
" />
<path d="M214.0036 79.3576
L213.8132 79.3576
" />
<path d="M213.8132 79.3576
L213.7179 79.3100
" />
<path d="M214.5751 79.3100
L214.6703 79.3576
" />
<path d="M214.6703 79.3576
L214.8608 79.3576
" />
<path d="M214.8608 79.3576
L214.9560 79.3100
" />
<path d="M214.9560 79.3100
L215.0036 79.2148
" />
<path d="M215.0036 79.2148
L215.0036 79.1671
" />
<path d="M215.0036 79.1671
L214.9560 79.0719
" />
<path d="M214.9560 79.0719
L214.8608 79.0243
" />
<path d="M214.8608 79.0243
L214.7179 79.0243
" />
<path d="M214.7179 79.0243
L214.6227 78.9767
" />
<path d="M214.6227 78.9767
L214.5751 78.8814
" />
<path d="M214.5751 78.8814
L214.5751 78.8338
" />
<path d="M214.5751 78.8338
L214.6227 78.7386
" />
<path d="M214.6227 78.7386
L214.7179 78.6910
" />
<path d="M214.7179 78.6910
L214.8608 78.6910
" />
<path d="M214.8608 78.6910
L214.9560 78.7386
" />
<path d="M215.4322 79.2624
L215.4798 79.3100
" />
<path d="M215.4798 79.3100
L215.4322 79.3576
" />
<path d="M215.4322 79.3576
L215.3846 79.3100
" />
<path d="M215.3846 79.3100
L215.4322 79.2624
" />
<path d="M215.4322 79.2624
L215.4322 79.3576
" />
<path d="M215.4322 78.7386
L215.4798 78.7862
" />
<path d="M215.4798 78.7862
L215.4322 78.8338
" />
<path d="M215.4322 78.8338
L215.3846 78.7862
" />
<path d="M215.3846 78.7862
L215.4322 78.7386
" />
<path d="M215.4322 78.7386
L215.4322 78.8338
" />
<path d="M216.6227 78.3100
L215.7655 79.5957
" />
<path d="M217.6703 78.3100
L216.8132 79.5957
" />
<path d="M218.4322 78.6910
L218.4322 79.5005
" />
<path d="M218.4322 79.5005
L218.3846 79.5957
" />
<path d="M218.3846 79.5957
L218.3370 79.6433
" />
<path d="M218.3370 79.6433
L218.2417 79.6910
" />
<path d="M218.2417 79.6910
L218.0989 79.6910
" />
<path d="M218.0989 79.6910
L218.0036 79.6433
" />
<path d="M218.4322 79.3100
L218.3370 79.3576
" />
<path d="M218.3370 79.3576
L218.1465 79.3576
" />
<path d="M218.1465 79.3576
L218.0512 79.3100
" />
<path d="M218.0512 79.3100
L218.0036 79.2624
" />
<path d="M218.0036 79.2624
L217.9560 79.1671
" />
<path d="M217.9560 79.1671
L217.9560 78.8814
" />
<path d="M217.9560 78.8814
L218.0036 78.7862
" />
<path d="M218.0036 78.7862
L218.0512 78.7386
" />
<path d="M218.0512 78.7386
L218.1465 78.6910
" />
<path d="M218.1465 78.6910
L218.3370 78.6910
" />
<path d="M218.3370 78.6910
L218.4322 78.7386
" />
<path d="M218.9084 79.3576
L218.9084 78.6910
" />
<path d="M218.9084 78.3576
L218.8608 78.4052
" />
<path d="M218.8608 78.4052
L218.9084 78.4529
" />
<path d="M218.9084 78.4529
L218.9560 78.4052
" />
<path d="M218.9560 78.4052
L218.9084 78.3576
" />
<path d="M218.9084 78.3576
L218.9084 78.4529
" />
<path d="M219.2417 78.6910
L219.6227 78.6910
" />
<path d="M219.3846 78.3576
L219.3846 79.2148
" />
<path d="M219.3846 79.2148
L219.4322 79.3100
" />
<path d="M219.4322 79.3100
L219.5274 79.3576
" />
<path d="M219.5274 79.3576
L219.6227 79.3576
" />
<path d="M219.9560 79.3576
L219.9560 78.3576
" />
<path d="M220.3846 79.3576
L220.3846 78.8338
" />
<path d="M220.3846 78.8338
L220.3370 78.7386
" />
<path d="M220.3370 78.7386
L220.2417 78.6910
" />
<path d="M220.2417 78.6910
L220.0989 78.6910
" />
<path d="M220.0989 78.6910
L220.0036 78.7386
" />
<path d="M220.0036 78.7386
L219.9560 78.7862
" />
<path d="M221.2893 78.6910
L221.2893 79.3576
" />
<path d="M220.8608 78.6910
L220.8608 79.2148
" />
<path d="M220.8608 79.2148
L220.9084 79.3100
" />
<path d="M220.9084 79.3100
L221.0036 79.3576
" />
<path d="M221.0036 79.3576
L221.1465 79.3576
" />
<path d="M221.1465 79.3576
L221.2417 79.3100
" />
<path d="M221.2417 79.3100
L221.2893 79.2624
" />
<path d="M221.7655 79.3576
L221.7655 78.3576
" />
<path d="M221.7655 78.7386
L221.8608 78.6910
" />
<path d="M221.8608 78.6910
L222.0512 78.6910
" />
<path d="M222.0512 78.6910
L222.1465 78.7386
" />
<path d="M222.1465 78.7386
L222.1941 78.7862
" />
<path d="M222.1941 78.7862
L222.2417 78.8814
" />
<path d="M222.2417 78.8814
L222.2417 79.1671
" />
<path d="M222.2417 79.1671
L222.1941 79.2624
" />
<path d="M222.1941 79.2624
L222.1465 79.3100
" />
<path d="M222.1465 79.3100
L222.0512 79.3576
" />
<path d="M222.0512 79.3576
L221.8608 79.3576
" />
<path d="M221.8608 79.3576
L221.7655 79.3100
" />
<path d="M222.6703 79.2624
L222.7179 79.3100
" />
<path d="M222.7179 79.3100
L222.6703 79.3576
" />
<path d="M222.6703 79.3576
L222.6227 79.3100
" />
<path d="M222.6227 79.3100
L222.6703 79.2624
" />
<path d="M222.6703 79.2624
L222.6703 79.3576
" />
<path d="M223.5751 79.3100
L223.4798 79.3576
" />
<path d="M223.4798 79.3576
L223.2893 79.3576
" />
<path d="M223.2893 79.3576
L223.1941 79.3100
" />
<path d="M223.1941 79.3100
L223.1465 79.2624
" />
<path d="M223.1465 79.2624
L223.0989 79.1671
" />
<path d="M223.0989 79.1671
L223.0989 78.8814
" />
<path d="M223.0989 78.8814
L223.1465 78.7862
" />
<path d="M223.1465 78.7862
L223.1941 78.7386
" />
<path d="M223.1941 78.7386
L223.2893 78.6910
" />
<path d="M223.2893 78.6910
L223.4798 78.6910
" />
<path d="M223.4798 78.6910
L223.5751 78.7386
" />
<path d="M224.1465 79.3576
L224.0512 79.3100
" />
<path d="M224.0512 79.3100
L224.0036 79.2624
" />
<path d="M224.0036 79.2624
L223.9560 79.1671
" />
<path d="M223.9560 79.1671
L223.9560 78.8814
" />
<path d="M223.9560 78.8814
L224.0036 78.7862
" />
<path d="M224.0036 78.7862
L224.0512 78.7386
" />
<path d="M224.0512 78.7386
L224.1465 78.6910
" />
<path d="M224.1465 78.6910
L224.2893 78.6910
" />
<path d="M224.2893 78.6910
L224.3846 78.7386
" />
<path d="M224.3846 78.7386
L224.4322 78.7862
" />
<path d="M224.4322 78.7862
L224.4798 78.8814
" />
<path d="M224.4798 78.8814
L224.4798 79.1671
" />
<path d="M224.4798 79.1671
L224.4322 79.2624
" />
<path d="M224.4322 79.2624
L224.3846 79.3100
" />
<path d="M224.3846 79.3100
L224.2893 79.3576
" />
<path d="M224.2893 79.3576
L224.1465 79.3576
" />
<path d="M224.9084 79.3576
L224.9084 78.6910
" />
<path d="M224.9084 78.7862
L224.9560 78.7386
" />
<path d="M224.9560 78.7386
L225.0512 78.6910
" />
<path d="M225.0512 78.6910
L225.1941 78.6910
" />
<path d="M225.1941 78.6910
L225.2893 78.7386
" />
<path d="M225.2893 78.7386
L225.3370 78.8338
" />
<path d="M225.3370 78.8338
L225.3370 79.3576
" />
<path d="M225.3370 78.8338
L225.3846 78.7386
" />
<path d="M225.3846 78.7386
L225.4798 78.6910
" />
<path d="M225.4798 78.6910
L225.6227 78.6910
" />
<path d="M225.6227 78.6910
L225.7179 78.7386
" />
<path d="M225.7179 78.7386
L225.7655 78.8338
" />
<path d="M225.7655 78.8338
L225.7655 79.3576
" />
<path d="M226.9560 78.3100
L226.0989 79.5957
" />
<path d="M227.2893 78.6910
L227.2893 79.6910
" />
<path d="M227.2893 78.7386
L227.3846 78.6910
" />
<path d="M227.3846 78.6910
L227.5751 78.6910
" />
<path d="M227.5751 78.6910
L227.6703 78.7386
" />
<path d="M227.6703 78.7386
L227.7179 78.7862
" />
<path d="M227.7179 78.7862
L227.7655 78.8814
" />
<path d="M227.7655 78.8814
L227.7655 79.1671
" />
<path d="M227.7655 79.1671
L227.7179 79.2624
" />
<path d="M227.7179 79.2624
L227.6703 79.3100
" />
<path d="M227.6703 79.3100
L227.5751 79.3576
" />
<path d="M227.5751 79.3576
L227.3846 79.3576
" />
<path d="M227.3846 79.3576
L227.2893 79.3100
" />
<path d="M228.5751 79.3100
L228.4798 79.3576
" />
<path d="M228.4798 79.3576
L228.2893 79.3576
" />
<path d="M228.2893 79.3576
L228.1941 79.3100
" />
<path d="M228.1941 79.3100
L228.1465 79.2148
" />
<path d="M228.1465 79.2148
L228.1465 78.8338
" />
<path d="M228.1465 78.8338
L228.1941 78.7386
" />
<path d="M228.1941 78.7386
L228.2893 78.6910
" />
<path d="M228.2893 78.6910
L228.4798 78.6910
" />
<path d="M228.4798 78.6910
L228.5751 78.7386
" />
<path d="M228.5751 78.7386
L228.6227 78.8338
" />
<path d="M228.6227 78.8338
L228.6227 78.9290
" />
<path d="M228.6227 78.9290
L228.1465 79.0243
" />
<path d="M229.4798 79.3576
L229.4798 78.3576
" />
<path d="M229.4798 79.3100
L229.3846 79.3576
" />
<path d="M229.3846 79.3576
L229.1941 79.3576
" />
<path d="M229.1941 79.3576
L229.0989 79.3100
" />
<path d="M229.0989 79.3100
L229.0512 79.2624
" />
<path d="M229.0512 79.2624
L229.0036 79.1671
" />
<path d="M229.0036 79.1671
L229.0036 78.8814
" />
<path d="M229.0036 78.8814
L229.0512 78.7862
" />
<path d="M229.0512 78.7862
L229.0989 78.7386
" />
<path d="M229.0989 78.7386
L229.1941 78.6910
" />
<path d="M229.1941 78.6910
L229.3846 78.6910
" />
<path d="M229.3846 78.6910
L229.4798 78.7386
" />
<path d="M230.3846 79.3576
L230.3846 78.8338
" />
<path d="M230.3846 78.8338
L230.3370 78.7386
" />
<path d="M230.3370 78.7386
L230.2417 78.6910
" />
<path d="M230.2417 78.6910
L230.0512 78.6910
" />
<path d="M230.0512 78.6910
L229.9560 78.7386
" />
<path d="M230.3846 79.3100
L230.2893 79.3576
" />
<path d="M230.2893 79.3576
L230.0512 79.3576
" />
<path d="M230.0512 79.3576
L229.9560 79.3100
" />
<path d="M229.9560 79.3100
L229.9084 79.2148
" />
<path d="M229.9084 79.2148
L229.9084 79.1195
" />
<path d="M229.9084 79.1195
L229.9560 79.0243
" />
<path d="M229.9560 79.0243
L230.0512 78.9767
" />
<path d="M230.0512 78.9767
L230.2893 78.9767
" />
<path d="M230.2893 78.9767
L230.3846 78.9290
" />
<path d="M231.0036 79.3576
L230.9084 79.3100
" />
<path d="M230.9084 79.3100
L230.8608 79.2148
" />
<path d="M230.8608 79.2148
L230.8608 78.3576
" />
<path d="M231.3846 79.3576
L231.3846 78.3576
" />
<path d="M231.3846 78.7386
L231.4798 78.6910
" />
<path d="M231.4798 78.6910
L231.6703 78.6910
" />
<path d="M231.6703 78.6910
L231.7655 78.7386
" />
<path d="M231.7655 78.7386
L231.8132 78.7862
" />
<path d="M231.8132 78.7862
L231.8608 78.8814
" />
<path d="M231.8608 78.8814
L231.8608 79.1671
" />
<path d="M231.8608 79.1671
L231.8132 79.2624
" />
<path d="M231.8132 79.2624
L231.7655 79.3100
" />
<path d="M231.7655 79.3100
L231.6703 79.3576
" />
<path d="M231.6703 79.3576
L231.4798 79.3576
" />
<path d="M231.4798 79.3576
L231.3846 79.3100
" />
<path d="M232.4322 79.3576
L232.3370 79.3100
" />
<path d="M232.3370 79.3100
L232.2893 79.2624
" />
<path d="M232.2893 79.2624
L232.2417 79.1671
" />
<path d="M232.2417 79.1671
L232.2417 78.8814
" />
<path d="M232.2417 78.8814
L232.2893 78.7862
" />
<path d="M232.2893 78.7862
L232.3370 78.7386
" />
<path d="M232.3370 78.7386
L232.4322 78.6910
" />
<path d="M232.4322 78.6910
L232.5751 78.6910
" />
<path d="M232.5751 78.6910
L232.6703 78.7386
" />
<path d="M232.6703 78.7386
L232.7179 78.7862
" />
<path d="M232.7179 78.7862
L232.7655 78.8814
" />
<path d="M232.7655 78.8814
L232.7655 79.1671
" />
<path d="M232.7655 79.1671
L232.7179 79.2624
" />
<path d="M232.7179 79.2624
L232.6703 79.3100
" />
<path d="M232.6703 79.3100
L232.5751 79.3576
" />
<path d="M232.5751 79.3576
L232.4322 79.3576
" />
<path d="M233.6227 79.3576
L233.6227 78.8338
" />
<path d="M233.6227 78.8338
L233.5751 78.7386
" />
<path d="M233.5751 78.7386
L233.4798 78.6910
" />
<path d="M233.4798 78.6910
L233.2893 78.6910
" />
<path d="M233.2893 78.6910
L233.1941 78.7386
" />
<path d="M233.6227 79.3100
L233.5274 79.3576
" />
<path d="M233.5274 79.3576
L233.2893 79.3576
" />
<path d="M233.2893 79.3576
L233.1941 79.3100
" />
<path d="M233.1941 79.3100
L233.1465 79.2148
" />
<path d="M233.1465 79.2148
L233.1465 79.1195
" />
<path d="M233.1465 79.1195
L233.1941 79.0243
" />
<path d="M233.1941 79.0243
L233.2893 78.9767
" />
<path d="M233.2893 78.9767
L233.5274 78.9767
" />
<path d="M233.5274 78.9767
L233.6227 78.9290
" />
<path d="M234.0989 79.3576
L234.0989 78.6910
" />
<path d="M234.0989 78.8814
L234.1465 78.7862
" />
<path d="M234.1465 78.7862
L234.1941 78.7386
" />
<path d="M234.1941 78.7386
L234.2893 78.6910
" />
<path d="M234.2893 78.6910
L234.3846 78.6910
" />
<path d="M235.1465 79.3576
L235.1465 78.3576
" />
<path d="M235.1465 79.3100
L235.0512 79.3576
" />
<path d="M235.0512 79.3576
L234.8608 79.3576
" />
<path d="M234.8608 79.3576
L234.7655 79.3100
" />
<path d="M234.7655 79.3100
L234.7179 79.2624
" />
<path d="M234.7179 79.2624
L234.6703 79.1671
" />
<path d="M234.6703 79.1671
L234.6703 78.8814
" />
<path d="M234.6703 78.8814
L234.7179 78.7862
" />
<path d="M234.7179 78.7862
L234.7655 78.7386
" />
<path d="M234.7655 78.7386
L234.8608 78.6910
" />
<path d="M234.8608 78.6910
L235.0512 78.6910
" />
<path d="M235.0512 78.6910
L235.1465 78.7386
" />
</g><text x="211.4322" y="81.1000"
transform="scale(-1 1) translate(-422.864400 0)"
textLength="8.2226" font-size="1.3333" lengthAdjust="spacingAndGlyphs"
text-anchor="start" opacity="0">BCB: 2.0.0</text>
<g class="stroked-text"><desc>BCB: 2.0.0</desc>
<path d="M212.0036 80.4538
L212.1465 80.5014
" />
<path d="M212.1465 80.5014
L212.1941 80.5490
" />
<path d="M212.1941 80.5490
L212.2417 80.6443
" />
<path d="M212.2417 80.6443
L212.2417 80.7871
" />
<path d="M212.2417 80.7871
L212.1941 80.8824
" />
<path d="M212.1941 80.8824
L212.1465 80.9300
" />
<path d="M212.1465 80.9300
L212.0512 80.9776
" />
<path d="M212.0512 80.9776
L211.6703 80.9776
" />
<path d="M211.6703 80.9776
L211.6703 79.9776
" />
<path d="M211.6703 79.9776
L212.0036 79.9776
" />
<path d="M212.0036 79.9776
L212.0989 80.0252
" />
<path d="M212.0989 80.0252
L212.1465 80.0729
" />
<path d="M212.1465 80.0729
L212.1941 80.1681
" />
<path d="M212.1941 80.1681
L212.1941 80.2633
" />
<path d="M212.1941 80.2633
L212.1465 80.3586
" />
<path d="M212.1465 80.3586
L212.0989 80.4062
" />
<path d="M212.0989 80.4062
L212.0036 80.4538
" />
<path d="M212.0036 80.4538
L211.6703 80.4538
" />
<path d="M213.2417 80.8824
L213.1941 80.9300
" />
<path d="M213.1941 80.9300
L213.0512 80.9776
" />
<path d="M213.0512 80.9776
L212.9560 80.9776
" />
<path d="M212.9560 80.9776
L212.8132 80.9300
" />
<path d="M212.8132 80.9300
L212.7179 80.8348
" />
<path d="M212.7179 80.8348
L212.6703 80.7395
" />
<path d="M212.6703 80.7395
L212.6227 80.5490
" />
<path d="M212.6227 80.5490
L212.6227 80.4062
" />
<path d="M212.6227 80.4062
L212.6703 80.2157
" />
<path d="M212.6703 80.2157
L212.7179 80.1205
" />
<path d="M212.7179 80.1205
L212.8132 80.0252
" />
<path d="M212.8132 80.0252
L212.9560 79.9776
" />
<path d="M212.9560 79.9776
L213.0512 79.9776
" />
<path d="M213.0512 79.9776
L213.1941 80.0252
" />
<path d="M213.1941 80.0252
L213.2417 80.0729
" />
<path d="M214.0036 80.4538
L214.1465 80.5014
" />
<path d="M214.1465 80.5014
L214.1941 80.5490
" />
<path d="M214.1941 80.5490
L214.2417 80.6443
" />
<path d="M214.2417 80.6443
L214.2417 80.7871
" />
<path d="M214.2417 80.7871
L214.1941 80.8824
" />
<path d="M214.1941 80.8824
L214.1465 80.9300
" />
<path d="M214.1465 80.9300
L214.0512 80.9776
" />
<path d="M214.0512 80.9776
L213.6703 80.9776
" />
<path d="M213.6703 80.9776
L213.6703 79.9776
" />
<path d="M213.6703 79.9776
L214.0036 79.9776
" />
<path d="M214.0036 79.9776
L214.0989 80.0252
" />
<path d="M214.0989 80.0252
L214.1465 80.0729
" />
<path d="M214.1465 80.0729
L214.1941 80.1681
" />
<path d="M214.1941 80.1681
L214.1941 80.2633
" />
<path d="M214.1941 80.2633
L214.1465 80.3586
" />
<path d="M214.1465 80.3586
L214.0989 80.4062
" />
<path d="M214.0989 80.4062
L214.0036 80.4538
" />
<path d="M214.0036 80.4538
L213.6703 80.4538
" />
<path d="M214.6703 80.8824
L214.7179 80.9300
" />
<path d="M214.7179 80.9300
L214.6703 80.9776
" />
<path d="M214.6703 80.9776
L214.6227 80.9300
" />
<path d="M214.6227 80.9300
L214.6703 80.8824
" />
<path d="M214.6703 80.8824
L214.6703 80.9776
" />
<path d="M214.6703 80.3586
L214.7179 80.4062
" />
<path d="M214.7179 80.4062
L214.6703 80.4538
" />
<path d="M214.6703 80.4538
L214.6227 80.4062
" />
<path d="M214.6227 80.4062
L214.6703 80.3586
" />
<path d="M214.6703 80.3586
L214.6703 80.4538
" />
<path d="M215.8608 80.0729
L215.9084 80.0252
" />
<path d="M215.9084 80.0252
L216.0036 79.9776
" />
<path d="M216.0036 79.9776
L216.2417 79.9776
" />
<path d="M216.2417 79.9776
L216.3370 80.0252
" />
<path d="M216.3370 80.0252
L216.3846 80.0729
" />
<path d="M216.3846 80.0729
L216.4322 80.1681
" />
<path d="M216.4322 80.1681
L216.4322 80.2633
" />
<path d="M216.4322 80.2633
L216.3846 80.4062
" />
<path d="M216.3846 80.4062
L215.8132 80.9776
" />
<path d="M215.8132 80.9776
L216.4322 80.9776
" />
<path d="M216.8608 80.8824
L216.9084 80.9300
" />
<path d="M216.9084 80.9300
L216.8608 80.9776
" />
<path d="M216.8608 80.9776
L216.8132 80.9300
" />
<path d="M216.8132 80.9300
L216.8608 80.8824
" />
<path d="M216.8608 80.8824
L216.8608 80.9776
" />
<path d="M217.5274 79.9776
L217.6227 79.9776
" />
<path d="M217.6227 79.9776
L217.7179 80.0252
" />
<path d="M217.7179 80.0252
L217.7655 80.0729
" />
<path d="M217.7655 80.0729
L217.8132 80.1681
" />
<path d="M217.8132 80.1681
L217.8608 80.3586
" />
<path d="M217.8608 80.3586
L217.8608 80.5967
" />
<path d="M217.8608 80.5967
L217.8132 80.7871
" />
<path d="M217.8132 80.7871
L217.7655 80.8824
" />
<path d="M217.7655 80.8824
L217.7179 80.9300
" />
<path d="M217.7179 80.9300
L217.6227 80.9776
" />
<path d="M217.6227 80.9776
L217.5274 80.9776
" />
<path d="M217.5274 80.9776
L217.4322 80.9300
" />
<path d="M217.4322 80.9300
L217.3846 80.8824
" />
<path d="M217.3846 80.8824
L217.3370 80.7871
" />
<path d="M217.3370 80.7871
L217.2893 80.5967
" />
<path d="M217.2893 80.5967
L217.2893 80.3586
" />
<path d="M217.2893 80.3586
L217.3370 80.1681
" />
<path d="M217.3370 80.1681
L217.3846 80.0729
" />
<path d="M217.3846 80.0729
L217.4322 80.0252
" />
<path d="M217.4322 80.0252
L217.5274 79.9776
" />
<path d="M218.2893 80.8824
L218.3370 80.9300
" />
<path d="M218.3370 80.9300
L218.2893 80.9776
" />
<path d="M218.2893 80.9776
L218.2417 80.9300
" />
<path d="M218.2417 80.9300
L218.2893 80.8824
" />
<path d="M218.2893 80.8824
L218.2893 80.9776
" />
<path d="M218.9560 79.9776
L219.0512 79.9776
" />
<path d="M219.0512 79.9776
L219.1465 80.0252
" />
<path d="M219.1465 80.0252
L219.1941 80.0729
" />
<path d="M219.1941 80.0729
L219.2417 80.1681
" />
<path d="M219.2417 80.1681
L219.2893 80.3586
" />
<path d="M219.2893 80.3586
L219.2893 80.5967
" />
<path d="M219.2893 80.5967
L219.2417 80.7871
" />
<path d="M219.2417 80.7871
L219.1941 80.8824
" />
<path d="M219.1941 80.8824
L219.1465 80.9300
" />
<path d="M219.1465 80.9300
L219.0512 80.9776
" />
<path d="M219.0512 80.9776
L218.9560 80.9776
" />
<path d="M218.9560 80.9776
L218.8608 80.9300
" />
<path d="M218.8608 80.9300
L218.8132 80.8824
" />
<path d="M218.8132 80.8824
L218.7655 80.7871
" />
<path d="M218.7655 80.7871
L218.7179 80.5967
" />
<path d="M218.7179 80.5967
L218.7179 80.3586
" />
<path d="M218.7179 80.3586
L218.7655 80.1681
" />
<path d="M218.7655 80.1681
L218.8132 80.0729
" />
<path d="M218.8132 80.0729
L218.8608 80.0252
" />
<path d="M218.8608 80.0252
L218.9560 79.9776
" />
</g><g transform="rotate(-270.000000 246.3094 71.3232)">
<text x="246.3094" y="71.3232"
transform="scale(-1 1) translate(-492.618800 0)"
textLength="5.4131" font-size="1.3333" lengthAdjust="spacingAndGlyphs"
text-anchor="start" opacity="0">+3.3V </text>
</g>
<g class="stroked-text"><desc>+3.3V </desc>
<path d="M245.8061 71.0851
L245.8061 70.3232
" />
<path d="M246.1870 70.7042
L245.4251 70.7042
" />
<path d="M245.1870 69.9422
L245.1870 69.3232
" />
<path d="M245.1870 69.3232
L245.5680 69.6565
" />
<path d="M245.5680 69.6565
L245.5680 69.5137
" />
<path d="M245.5680 69.5137
L245.6156 69.4184
" />
<path d="M245.6156 69.4184
L245.6632 69.3708
" />
<path d="M245.6632 69.3708
L245.7584 69.3232
" />
<path d="M245.7584 69.3232
L245.9965 69.3232
" />
<path d="M245.9965 69.3232
L246.0918 69.3708
" />
<path d="M246.0918 69.3708
L246.1394 69.4184
" />
<path d="M246.1394 69.4184
L246.1870 69.5137
" />
<path d="M246.1870 69.5137
L246.1870 69.7994
" />
<path d="M246.1870 69.7994
L246.1394 69.8946
" />
<path d="M246.1394 69.8946
L246.0918 69.9422
" />
<path d="M246.0918 68.8946
L246.1394 68.8470
" />
<path d="M246.1394 68.8470
L246.1870 68.8946
" />
<path d="M246.1870 68.8946
L246.1394 68.9422
" />
<path d="M246.1394 68.9422
L246.0918 68.8946
" />
<path d="M246.0918 68.8946
L246.1870 68.8946
" />
<path d="M245.1870 68.5137
L245.1870 67.8946
" />
<path d="M245.1870 67.8946
L245.5680 68.2280
" />
<path d="M245.5680 68.2280
L245.5680 68.0851
" />
<path d="M245.5680 68.0851
L245.6156 67.9899
" />
<path d="M245.6156 67.9899
L245.6632 67.9422
" />
<path d="M245.6632 67.9422
L245.7584 67.8946
" />
<path d="M245.7584 67.8946
L245.9965 67.8946
" />
<path d="M245.9965 67.8946
L246.0918 67.9422
" />
<path d="M246.0918 67.9422
L246.1394 67.9899
" />
<path d="M246.1394 67.9899
L246.1870 68.0851
" />
<path d="M246.1870 68.0851
L246.1870 68.3708
" />
<path d="M246.1870 68.3708
L246.1394 68.4661
" />
<path d="M246.1394 68.4661
L246.0918 68.5137
" />
<path d="M245.1870 67.6089
L246.1870 67.2756
" />
<path d="M246.1870 67.2756
L245.1870 66.9422
" />
</g><g transform="rotate(-270.000000 247.9294 71.3232)">
<text x="247.9294" y="71.3232"
transform="scale(-1 1) translate(-495.858800 0)"
textLength="9.0321" font-size="1.3333" lengthAdjust="spacingAndGlyphs"
text-anchor="start" opacity="0">150mA max</text>
</g>
<g class="stroked-text"><desc>150mA max</desc>
<path d="M247.8070 70.5613
L247.8070 71.1327
" />
<path d="M247.8070 70.8470
L246.8070 70.8470
" />
<path d="M246.8070 70.8470
L246.9499 70.9422
" />
<path d="M246.9499 70.9422
L247.0451 71.0375
" />
<path d="M247.0451 71.0375
L247.0927 71.1327
" />
<path d="M246.8070 69.6565
L246.8070 70.1327
" />
<path d="M246.8070 70.1327
L247.2832 70.1803
" />
<path d="M247.2832 70.1803
L247.2356 70.1327
" />
<path d="M247.2356 70.1327
L247.1880 70.0375
" />
<path d="M247.1880 70.0375
L247.1880 69.7994
" />
<path d="M247.1880 69.7994
L247.2356 69.7042
" />
<path d="M247.2356 69.7042
L247.2832 69.6565
" />
<path d="M247.2832 69.6565
L247.3784 69.6089
" />
<path d="M247.3784 69.6089
L247.6165 69.6089
" />
<path d="M247.6165 69.6089
L247.7118 69.6565
" />
<path d="M247.7118 69.6565
L247.7594 69.7042
" />
<path d="M247.7594 69.7042
L247.8070 69.7994
" />
<path d="M247.8070 69.7994
L247.8070 70.0375
" />
<path d="M247.8070 70.0375
L247.7594 70.1327
" />
<path d="M247.7594 70.1327
L247.7118 70.1803
" />
<path d="M246.8070 68.9899
L246.8070 68.8946
" />
<path d="M246.8070 68.8946
L246.8546 68.7994
" />
<path d="M246.8546 68.7994
L246.9023 68.7518
" />
<path d="M246.9023 68.7518
L246.9975 68.7042
" />
<path d="M246.9975 68.7042
L247.1880 68.6565
" />
<path d="M247.1880 68.6565
L247.4261 68.6565
" />
<path d="M247.4261 68.6565
L247.6165 68.7042
" />
<path d="M247.6165 68.7042
L247.7118 68.7518
" />
<path d="M247.7118 68.7518
L247.7594 68.7994
" />
<path d="M247.7594 68.7994
L247.8070 68.8946
" />
<path d="M247.8070 68.8946
L247.8070 68.9899
" />
<path d="M247.8070 68.9899
L247.7594 69.0851
" />
<path d="M247.7594 69.0851
L247.7118 69.1327
" />
<path d="M247.7118 69.1327
L247.6165 69.1803
" />
<path d="M247.6165 69.1803
L247.4261 69.2280
" />
<path d="M247.4261 69.2280
L247.1880 69.2280
" />
<path d="M247.1880 69.2280
L246.9975 69.1803
" />
<path d="M246.9975 69.1803
L246.9023 69.1327
" />
<path d="M246.9023 69.1327
L246.8546 69.0851
" />
<path d="M246.8546 69.0851
L246.8070 68.9899
" />
<path d="M247.8070 68.2280
L247.1404 68.2280
" />
<path d="M247.2356 68.2280
L247.1880 68.1803
" />
<path d="M247.1880 68.1803
L247.1404 68.0851
" />
<path d="M247.1404 68.0851
L247.1404 67.9422
" />
<path d="M247.1404 67.9422
L247.1880 67.8470
" />
<path d="M247.1880 67.8470
L247.2832 67.7994
" />
<path d="M247.2832 67.7994
L247.8070 67.7994
" />
<path d="M247.2832 67.7994
L247.1880 67.7518
" />
<path d="M247.1880 67.7518
L247.1404 67.6565
" />
<path d="M247.1404 67.6565
L247.1404 67.5137
" />
<path d="M247.1404 67.5137
L247.1880 67.4184
" />
<path d="M247.1880 67.4184
L247.2832 67.3708
" />
<path d="M247.2832 67.3708
L247.8070 67.3708
" />
<path d="M247.5213 66.9422
L247.5213 66.4661
" />
<path d="M247.8070 67.0375
L246.8070 66.7042
" />
<path d="M246.8070 66.7042
L247.8070 66.3708
" />
<path d="M247.8070 65.2756
L247.1404 65.2756
" />
<path d="M247.2356 65.2756
L247.1880 65.2280
" />
<path d="M247.1880 65.2280
L247.1404 65.1327
" />
<path d="M247.1404 65.1327
L247.1404 64.9899
" />
<path d="M247.1404 64.9899
L247.1880 64.8946
" />
<path d="M247.1880 64.8946
L247.2832 64.8470
" />
<path d="M247.2832 64.8470
L247.8070 64.8470
" />
<path d="M247.2832 64.8470
L247.1880 64.7994
" />
<path d="M247.1880 64.7994
L247.1404 64.7042
" />
<path d="M247.1404 64.7042
L247.1404 64.5613
" />
<path d="M247.1404 64.5613
L247.1880 64.4661
" />
<path d="M247.1880 64.4661
L247.2832 64.4184
" />
<path d="M247.2832 64.4184
L247.8070 64.4184
" />
<path d="M247.8070 63.5137
L247.2832 63.5137
" />
<path d="M247.2832 63.5137
L247.1880 63.5613
" />
<path d="M247.1880 63.5613
L247.1404 63.6565
" />
<path d="M247.1404 63.6565
L247.1404 63.8470
" />
<path d="M247.1404 63.8470
L247.1880 63.9422
" />
<path d="M247.7594 63.5137
L247.8070 63.6089
" />
<path d="M247.8070 63.6089
L247.8070 63.8470
" />
<path d="M247.8070 63.8470
L247.7594 63.9422
" />
<path d="M247.7594 63.9422
L247.6642 63.9899
" />
<path d="M247.6642 63.9899
L247.5689 63.9899
" />
<path d="M247.5689 63.9899
L247.4737 63.9422
" />
<path d="M247.4737 63.9422
L247.4261 63.8470
" />
<path d="M247.4261 63.8470
L247.4261 63.6089
" />
<path d="M247.4261 63.6089
L247.3784 63.5137
" />
<path d="M247.8070 63.1327
L247.1404 62.6089
" />
<path d="M247.1404 63.1327
L247.8070 62.6089
" />
</g><text x="231.0922" y="51.0500"
transform="scale(-1 1) translate(-462.184400 0)"
textLength="4.7179" font-size="2.0000" lengthAdjust="spacingAndGlyphs"
text-anchor="start" opacity="0">MIDI</text>
<g class="stroked-text"><desc>MIDI</desc>
<path d="M231.4493 50.8664
L231.4493 49.3664
" />
<path d="M231.4493 49.3664
L231.9493 50.4379
" />
<path d="M231.9493 50.4379
L232.4493 49.3664
" />
<path d="M232.4493 49.3664
L232.4493 50.8664
" />
<path d="M233.1636 50.8664
L233.1636 49.3664
" />
<path d="M233.8779 50.8664
L233.8779 49.3664
" />
<path d="M233.8779 49.3664
L234.2351 49.3664
" />
<path d="M234.2351 49.3664
L234.4493 49.4379
" />
<path d="M234.4493 49.4379
L234.5922 49.5807
" />
<path d="M234.5922 49.5807
L234.6636 49.7236
" />
<path d="M234.6636 49.7236
L234.7351 50.0093
" />
<path d="M234.7351 50.0093
L234.7351 50.2236
" />
<path d="M234.7351 50.2236
L234.6636 50.5093
" />
<path d="M234.6636 50.5093
L234.5922 50.6521
" />
<path d="M234.5922 50.6521
L234.4493 50.7950
" />
<path d="M234.4493 50.7950
L234.2351 50.8664
" />
<path d="M234.2351 50.8664
L233.8779 50.8664
" />
<path d="M235.3779 50.8664
L235.3779 49.3664
" />
</g><g transform="rotate(-270.000000 162.1282 45.6692)">
<text x="162.1282" y="45.6692"
transform="scale(-1 1) translate(-324.256400 0)"
textLength="1.5560" font-size="1.3333" lengthAdjust="spacingAndGlyphs"
text-anchor="start" opacity="0">in</text>
</g>
<g class="stroked-text"><desc>in</desc>
<path d="M162.0058 45.4311
L161.3392 45.4311
" />
<path d="M161.0058 45.4311
L161.0534 45.4787
" />
<path d="M161.0534 45.4787
L161.1011 45.4311
" />
<path d="M161.1011 45.4311
L161.0534 45.3835
" />
<path d="M161.0534 45.3835
L161.0058 45.4311
" />
<path d="M161.0058 45.4311
L161.1011 45.4311
" />
<path d="M161.3392 44.9549
L162.0058 44.9549
" />
<path d="M161.4344 44.9549
L161.3868 44.9073
" />
<path d="M161.3868 44.9073
L161.3392 44.8121
" />
<path d="M161.3392 44.8121
L161.3392 44.6692
" />
<path d="M161.3392 44.6692
L161.3868 44.5740
" />
<path d="M161.3868 44.5740
L161.4820 44.5263
" />
<path d="M161.4820 44.5263
L162.0058 44.5263
" />
</g><text x="247.7770" y="83.5660"
transform="scale(-1 1) translate(-495.554000 0)"
textLength="6.5083" font-size="1.3333" lengthAdjust="spacingAndGlyphs"
text-anchor="start" opacity="0">LED OUT</text>
<g class="stroked-text"><desc>LED OUT</desc>
<path d="M248.4913 83.4436
L248.0151 83.4436
" />
<path d="M248.0151 83.4436
L248.0151 82.4436
" />
<path d="M248.8246 82.9198
L249.1580 82.9198
" />
<path d="M249.3008 83.4436
L248.8246 83.4436
" />
<path d="M248.8246 83.4436
L248.8246 82.4436
" />
<path d="M248.8246 82.4436
L249.3008 82.4436
" />
<path d="M249.7294 83.4436
L249.7294 82.4436
" />
<path d="M249.7294 82.4436
L249.9675 82.4436
" />
<path d="M249.9675 82.4436
L250.1103 82.4912
" />
<path d="M250.1103 82.4912
L250.2056 82.5865
" />
<path d="M250.2056 82.5865
L250.2532 82.6817
" />
<path d="M250.2532 82.6817
L250.3008 82.8722
" />
<path d="M250.3008 82.8722
L250.3008 83.0150
" />
<path d="M250.3008 83.0150
L250.2532 83.2055
" />
<path d="M250.2532 83.2055
L250.2056 83.3008
" />
<path d="M250.2056 83.3008
L250.1103 83.3960
" />
<path d="M250.1103 83.3960
L249.9675 83.4436
" />
<path d="M249.9675 83.4436
L249.7294 83.4436
" />
<path d="M251.6818 82.4436
L251.8722 82.4436
" />
<path d="M251.8722 82.4436
L251.9675 82.4912
" />
<path d="M251.9675 82.4912
L252.0627 82.5865
" />
<path d="M252.0627 82.5865
L252.1103 82.7770
" />
<path d="M252.1103 82.7770
L252.1103 83.1103
" />
<path d="M252.1103 83.1103
L252.0627 83.3008
" />
<path d="M252.0627 83.3008
L251.9675 83.3960
" />
<path d="M251.9675 83.3960
L251.8722 83.4436
" />
<path d="M251.8722 83.4436
L251.6818 83.4436
" />
<path d="M251.6818 83.4436
L251.5865 83.3960
" />
<path d="M251.5865 83.3960
L251.4913 83.3008
" />
<path d="M251.4913 83.3008
L251.4437 83.1103
" />
<path d="M251.4437 83.1103
L251.4437 82.7770
" />
<path d="M251.4437 82.7770
L251.4913 82.5865
" />
<path d="M251.4913 82.5865
L251.5865 82.4912
" />
<path d="M251.5865 82.4912
L251.6818 82.4436
" />
<path d="M252.5389 82.4436
L252.5389 83.2531
" />
<path d="M252.5389 83.2531
L252.5865 83.3484
" />
<path d="M252.5865 83.3484
L252.6341 83.3960
" />
<path d="M252.6341 83.3960
L252.7294 83.4436
" />
<path d="M252.7294 83.4436
L252.9199 83.4436
" />
<path d="M252.9199 83.4436
L253.0151 83.3960
" />
<path d="M253.0151 83.3960
L253.0627 83.3484
" />
<path d="M253.0627 83.3484
L253.1103 83.2531
" />
<path d="M253.1103 83.2531
L253.1103 82.4436
" />
<path d="M253.4437 82.4436
L254.0151 82.4436
" />
<path d="M253.7294 83.4436
L253.7294 82.4436
" />
</g><g transform="rotate(-90.000000 114.2238 36.7792)">
<text x="114.2238" y="36.7792"
transform="scale(-1 1) translate(-228.447600 0)"
textLength="1.6988" font-size="1.3333" lengthAdjust="spacingAndGlyphs"
text-anchor="start" opacity="0">IN</text>
</g>
<g class="stroked-text"><desc>IN</desc>
<path d="M114.3462 37.0173
L115.3462 37.0173
" />
<path d="M114.3462 37.4935
L115.3462 37.4935
" />
<path d="M115.3462 37.4935
L114.3462 38.0649
" />
<path d="M114.3462 38.0649
L115.3462 38.0649
" />
</g><g transform="rotate(90.000000 229.3366 51.8668)">
<text x="229.3366" y="51.8668"
transform="scale(-1 1) translate(-458.673200 0)"
textLength="3.0321" font-size="1.3333" lengthAdjust="spacingAndGlyphs"
text-anchor="start" opacity="0">OUT</text>
</g>
<g class="stroked-text"><desc>OUT</desc>
<path d="M228.2142 51.4382
L228.2142 51.2478
" />
<path d="M228.2142 51.2478
L228.2618 51.1525
" />
<path d="M228.2618 51.1525
L228.3571 51.0573
" />
<path d="M228.3571 51.0573
L228.5476 51.0097
" />
<path d="M228.5476 51.0097
L228.8809 51.0097
" />
<path d="M228.8809 51.0097
L229.0714 51.0573
" />
<path d="M229.0714 51.0573
L229.1666 51.1525
" />
<path d="M229.1666 51.1525
L229.2142 51.2478
" />
<path d="M229.2142 51.2478
L229.2142 51.4382
" />
<path d="M229.2142 51.4382
L229.1666 51.5335
" />
<path d="M229.1666 51.5335
L229.0714 51.6287
" />
<path d="M229.0714 51.6287
L228.8809 51.6763
" />
<path d="M228.8809 51.6763
L228.5476 51.6763
" />
<path d="M228.5476 51.6763
L228.3571 51.6287
" />
<path d="M228.3571 51.6287
L228.2618 51.5335
" />
<path d="M228.2618 51.5335
L228.2142 51.4382
" />
<path d="M228.2142 50.5811
L229.0237 50.5811
" />
<path d="M229.0237 50.5811
L229.1190 50.5335
" />
<path d="M229.1190 50.5335
L229.1666 50.4858
" />
<path d="M229.1666 50.4858
L229.2142 50.3906
" />
<path d="M229.2142 50.3906
L229.2142 50.2001
" />
<path d="M229.2142 50.2001
L229.1666 50.1049
" />
<path d="M229.1666 50.1049
L229.1190 50.0573
" />
<path d="M229.1190 50.0573
L229.0237 50.0097
" />
<path d="M229.0237 50.0097
L228.2142 50.0097
" />
<path d="M228.2142 49.6763
L228.2142 49.1049
" />
<path d="M229.2142 49.3906
L228.2142 49.3906
" />
</g><g transform="rotate(-90.000000 120.6754 36.6776)">
<text x="120.6754" y="36.6776"
transform="scale(-1 1) translate(-241.350800 0)"
textLength="3.7940" font-size="1.3333" lengthAdjust="spacingAndGlyphs"
text-anchor="start" opacity="0">VREF</text>
</g>
<g class="stroked-text"><desc>VREF</desc>
<path d="M121.7978 36.7728
L120.7978 37.1062
" />
<path d="M120.7978 37.1062
L121.7978 37.4395
" />
<path d="M120.7978 38.3443
L121.2740 38.0109
" />
<path d="M120.7978 37.7728
L121.7978 37.7728
" />
<path d="M121.7978 37.7728
L121.7978 38.1538
" />
<path d="M121.7978 38.1538
L121.7502 38.2490
" />
<path d="M121.7502 38.2490
L121.7025 38.2966
" />
<path d="M121.7025 38.2966
L121.6073 38.3443
" />
<path d="M121.6073 38.3443
L121.4644 38.3443
" />
<path d="M121.4644 38.3443
L121.3692 38.2966
" />
<path d="M121.3692 38.2966
L121.3216 38.2490
" />
<path d="M121.3216 38.2490
L121.2740 38.1538
" />
<path d="M121.2740 38.1538
L121.2740 37.7728
" />
<path d="M121.3216 38.7728
L121.3216 39.1062
" />
<path d="M120.7978 39.2490
L120.7978 38.7728
" />
<path d="M120.7978 38.7728
L121.7978 38.7728
" />
<path d="M121.7978 38.7728
L121.7978 39.2490
" />
<path d="M121.3216 40.0109
L121.3216 39.6776
" />
<path d="M120.7978 39.6776
L121.7978 39.6776
" />
<path d="M121.7978 39.6776
L121.7978 40.1538
" />
</g><g transform="rotate(90.000000 159.5374 45.7708)">
<text x="159.5374" y="45.7708"
transform="scale(-1 1) translate(-319.074800 0)"
textLength="2.5560" font-size="1.3333" lengthAdjust="spacingAndGlyphs"
text-anchor="start" opacity="0">out</text>
</g>
<g class="stroked-text"><desc>out</desc>
<path d="M159.4150 45.3898
L159.3674 45.4851
" />
<path d="M159.3674 45.4851
L159.3198 45.5327
" />
<path d="M159.3198 45.5327
L159.2245 45.5803
" />
<path d="M159.2245 45.5803
L158.9388 45.5803
" />
<path d="M158.9388 45.5803
L158.8436 45.5327
" />
<path d="M158.8436 45.5327
L158.7960 45.4851
" />
<path d="M158.7960 45.4851
L158.7484 45.3898
" />
<path d="M158.7484 45.3898
L158.7484 45.2470
" />
<path d="M158.7484 45.2470
L158.7960 45.1518
" />
<path d="M158.7960 45.1518
L158.8436 45.1041
" />
<path d="M158.8436 45.1041
L158.9388 45.0565
" />
<path d="M158.9388 45.0565
L159.2245 45.0565
" />
<path d="M159.2245 45.0565
L159.3198 45.1041
" />
<path d="M159.3198 45.1041
L159.3674 45.1518
" />
<path d="M159.3674 45.1518
L159.4150 45.2470
" />
<path d="M159.4150 45.2470
L159.4150 45.3898
" />
<path d="M158.7484 44.1994
L159.4150 44.1994
" />
<path d="M158.7484 44.6279
L159.2722 44.6279
" />
<path d="M159.2722 44.6279
L159.3674 44.5803
" />
<path d="M159.3674 44.5803
L159.4150 44.4851
" />
<path d="M159.4150 44.4851
L159.4150 44.3422
" />
<path d="M159.4150 44.3422
L159.3674 44.2470
" />
<path d="M159.3674 44.2470
L159.3198 44.1994
" />
<path d="M158.7484 43.8660
L158.7484 43.4851
" />
<path d="M158.4150 43.7232
L159.2722 43.7232
" />
<path d="M159.2722 43.7232
L159.3674 43.6756
" />
<path d="M159.3674 43.6756
L159.4150 43.5803
" />
<path d="M159.4150 43.5803
L159.4150 43.4851
" />
</g><text x="247.3022" y="110.1000"
transform="scale(-1 1) translate(-494.604400 0)"
textLength="1.8893" font-size="1.3333" lengthAdjust="spacingAndGlyphs"
text-anchor="middle" opacity="0">J7</text>
<g class="stroked-text"><desc>J7</desc>
<path d="M246.9689 109.0626
L246.9689 109.7769
" />
<path d="M246.9689 109.7769
L246.9212 109.9198
" />
<path d="M246.9212 109.9198
L246.8260 110.0150
" />
<path d="M246.8260 110.0150
L246.6832 110.0626
" />
<path d="M246.6832 110.0626
L246.5879 110.0626
" />
<path d="M247.3498 109.0626
L248.0165 109.0626
" />
<path d="M248.0165 109.0626
L247.5879 110.0626
" />
</g><text x="183.3772" y="100.6100"
transform="scale(-1 1) translate(-366.754400 0)"
textLength="1.8893" font-size="1.3333" lengthAdjust="spacingAndGlyphs"
text-anchor="middle" opacity="0">J6</text>
<g class="stroked-text"><desc>J6</desc>
<path d="M183.0439 99.5726
L183.0439 100.2869
" />
<path d="M183.0439 100.2869
L182.9962 100.4298
" />
<path d="M182.9962 100.4298
L182.9010 100.5250
" />
<path d="M182.9010 100.5250
L182.7582 100.5726
" />
<path d="M182.7582 100.5726
L182.6629 100.5726
" />
<path d="M183.9486 99.5726
L183.7582 99.5726
" />
<path d="M183.7582 99.5726
L183.6629 99.6202
" />
<path d="M183.6629 99.6202
L183.6153 99.6679
" />
<path d="M183.6153 99.6679
L183.5201 99.8107
" />
<path d="M183.5201 99.8107
L183.4724 100.0012
" />
<path d="M183.4724 100.0012
L183.4724 100.3821
" />
<path d="M183.4724 100.3821
L183.5201 100.4774
" />
<path d="M183.5201 100.4774
L183.5677 100.5250
" />
<path d="M183.5677 100.5250
L183.6629 100.5726
" />
<path d="M183.6629 100.5726
L183.8534 100.5726
" />
<path d="M183.8534 100.5726
L183.9486 100.5250
" />
<path d="M183.9486 100.5250
L183.9962 100.4774
" />
<path d="M183.9962 100.4774
L184.0439 100.3821
" />
<path d="M184.0439 100.3821
L184.0439 100.1440
" />
<path d="M184.0439 100.1440
L183.9962 100.0488
" />
<path d="M183.9962 100.0488
L183.9486 100.0012
" />
<path d="M183.9486 100.0012
L183.8534 99.9536
" />
<path d="M183.8534 99.9536
L183.6629 99.9536
" />
<path d="M183.6629 99.9536
L183.5677 100.0012
" />
<path d="M183.5677 100.0012
L183.5201 100.0488
" />
<path d="M183.5201 100.0488
L183.4724 100.1440
" />
</g></g>
<g style="fill:#000000; fill-opacity:0.0; 
stroke:#000000; stroke-width:0.1000; stroke-opacity:1; 
stroke-linecap:round; stroke-linejoin:round;">
<g transform="rotate(-270.000000 204.7522 74.6400)">
<text x="204.7522" y="75.1400"
transform="scale(-1 1) translate(-409.504400 0)"
textLength="1.8595" font-size="1.3333" lengthAdjust="spacingAndGlyphs"
text-anchor="middle" opacity="0">F3</text>
</g>
<g class="stroked-text"><desc>F3</desc>
<path d="M204.6910 74.9733
L204.6910 75.3067
" />
<path d="M205.2148 75.3067
L204.2148 75.3067
" />
<path d="M204.2148 75.3067
L204.2148 74.8305
" />
<path d="M204.2148 74.5448
L204.2148 73.9257
" />
<path d="M204.2148 73.9257
L204.5958 74.2590
" />
<path d="M204.5958 74.2590
L204.5958 74.1162
" />
<path d="M204.5958 74.1162
L204.6434 74.0210
" />
<path d="M204.6434 74.0210
L204.6910 73.9733
" />
<path d="M204.6910 73.9733
L204.7862 73.9257
" />
<path d="M204.7862 73.9257
L205.0243 73.9257
" />
<path d="M205.0243 73.9257
L205.1196 73.9733
" />
<path d="M205.1196 73.9733
L205.1672 74.0210
" />
<path d="M205.1672 74.0210
L205.2148 74.1162
" />
<path d="M205.2148 74.1162
L205.2148 74.4019
" />
<path d="M205.2148 74.4019
L205.1672 74.4971
" />
<path d="M205.1672 74.4971
L205.1196 74.5448
" />
</g></g>
<g style="fill:#000000; fill-opacity:0.0; 
stroke:#000000; stroke-width:0.1500; stroke-opacity:1; 
stroke-linecap:round; stroke-linejoin:round;">
<text x="156.2422" y="59.2900"
transform="scale(-1 1) translate(-312.484400 0)"
textLength="2.8417" font-size="1.3333" lengthAdjust="spacingAndGlyphs"
text-anchor="middle" opacity="0">J14</text>
<g class="stroked-text"><desc>J14</desc>
<path d="M155.4327 58.2526
L155.4327 58.9669
" />
<path d="M155.4327 58.9669
L155.3851 59.1098
" />
<path d="M155.3851 59.1098
L155.2898 59.2050
" />
<path d="M155.2898 59.2050
L155.1470 59.2526
" />
<path d="M155.1470 59.2526
L155.0517 59.2526
" />
<path d="M156.4327 59.2526
L155.8612 59.2526
" />
<path d="M156.1470 59.2526
L156.1470 58.2526
" />
<path d="M156.1470 58.2526
L156.0517 58.3955
" />
<path d="M156.0517 58.3955
L155.9565 58.4907
" />
<path d="M155.9565 58.4907
L155.8612 58.5383
" />
<path d="M157.2898 58.5860
L157.2898 59.2526
" />
<path d="M157.0517 58.2050
L156.8136 58.9193
" />
<path d="M156.8136 58.9193
L157.4327 58.9193
" />
</g><text x="170.0022" y="46.4400"
transform="scale(-1 1) translate(-340.004400 0)"
textLength="1.8893" font-size="1.3333" lengthAdjust="spacingAndGlyphs"
text-anchor="middle" opacity="0">J5</text>
<g class="stroked-text"><desc>J5</desc>
<path d="M169.6689 45.4026
L169.6689 46.1169
" />
<path d="M169.6689 46.1169
L169.6212 46.2598
" />
<path d="M169.6212 46.2598
L169.5260 46.3550
" />
<path d="M169.5260 46.3550
L169.3832 46.4026
" />
<path d="M169.3832 46.4026
L169.2879 46.4026
" />
<path d="M170.6212 45.4026
L170.1451 45.4026
" />
<path d="M170.1451 45.4026
L170.0974 45.8788
" />
<path d="M170.0974 45.8788
L170.1451 45.8312
" />
<path d="M170.1451 45.8312
L170.2403 45.7836
" />
<path d="M170.2403 45.7836
L170.4784 45.7836
" />
<path d="M170.4784 45.7836
L170.5736 45.8312
" />
<path d="M170.5736 45.8312
L170.6212 45.8788
" />
<path d="M170.6212 45.8788
L170.6689 45.9740
" />
<path d="M170.6689 45.9740
L170.6689 46.2121
" />
<path d="M170.6689 46.2121
L170.6212 46.3074
" />
<path d="M170.6212 46.3074
L170.5736 46.3550
" />
<path d="M170.5736 46.3550
L170.4784 46.4026
" />
<path d="M170.4784 46.4026
L170.2403 46.4026
" />
<path d="M170.2403 46.4026
L170.1451 46.3550
" />
<path d="M170.1451 46.3550
L170.0974 46.3074
" />
</g><text x="221.5134" y="40.8352"
transform="scale(-1 1) translate(-443.026800 0)"
textLength="2.1750" font-size="1.3333" lengthAdjust="spacingAndGlyphs"
text-anchor="middle" opacity="0">U1</text>
<g class="stroked-text"><desc>U1</desc>
<path d="M220.7515 39.7978
L220.7515 40.6073
" />
<path d="M220.7515 40.6073
L220.7991 40.7026
" />
<path d="M220.7991 40.7026
L220.8467 40.7502
" />
<path d="M220.8467 40.7502
L220.9420 40.7978
" />
<path d="M220.9420 40.7978
L221.1324 40.7978
" />
<path d="M221.1324 40.7978
L221.2277 40.7502
" />
<path d="M221.2277 40.7502
L221.2753 40.7026
" />
<path d="M221.2753 40.7026
L221.3229 40.6073
" />
<path d="M221.3229 40.6073
L221.3229 39.7978
" />
<path d="M222.3229 40.7978
L221.7515 40.7978
" />
<path d="M222.0372 40.7978
L222.0372 39.7978
" />
<path d="M222.0372 39.7978
L221.9420 39.9407
" />
<path d="M221.9420 39.9407
L221.8467 40.0359
" />
<path d="M221.8467 40.0359
L221.7515 40.0835
" />
</g><text x="238.3790" y="83.9644"
transform="scale(-1 1) translate(-476.758000 0)"
textLength="1.8893" font-size="1.3333" lengthAdjust="spacingAndGlyphs"
text-anchor="middle" opacity="0">J4</text>
<g class="stroked-text"><desc>J4</desc>
<path d="M238.0457 82.9270
L238.0457 83.6413
" />
<path d="M238.0457 83.6413
L237.9980 83.7842
" />
<path d="M237.9980 83.7842
L237.9028 83.8794
" />
<path d="M237.9028 83.8794
L237.7600 83.9270
" />
<path d="M237.7600 83.9270
L237.6647 83.9270
" />
<path d="M238.9504 83.2604
L238.9504 83.9270
" />
<path d="M238.7123 82.8794
L238.4742 83.5937
" />
<path d="M238.4742 83.5937
L239.0933 83.5937
" />
</g><text x="173.7022" y="69.0000"
transform="scale(-1 1) translate(-347.404400 0)"
textLength="1.8893" font-size="1.3333" lengthAdjust="spacingAndGlyphs"
text-anchor="middle" opacity="0">J8</text>
<g class="stroked-text"><desc>J8</desc>
<path d="M173.3689 67.9626
L173.3689 68.6769
" />
<path d="M173.3689 68.6769
L173.3212 68.8198
" />
<path d="M173.3212 68.8198
L173.2260 68.9150
" />
<path d="M173.2260 68.9150
L173.0832 68.9626
" />
<path d="M173.0832 68.9626
L172.9879 68.9626
" />
<path d="M173.9879 68.3912
L173.8927 68.3436
" />
<path d="M173.8927 68.3436
L173.8451 68.2960
" />
<path d="M173.8451 68.2960
L173.7974 68.2007
" />
<path d="M173.7974 68.2007
L173.7974 68.1531
" />
<path d="M173.7974 68.1531
L173.8451 68.0579
" />
<path d="M173.8451 68.0579
L173.8927 68.0102
" />
<path d="M173.8927 68.0102
L173.9879 67.9626
" />
<path d="M173.9879 67.9626
L174.1784 67.9626
" />
<path d="M174.1784 67.9626
L174.2736 68.0102
" />
<path d="M174.2736 68.0102
L174.3212 68.0579
" />
<path d="M174.3212 68.0579
L174.3689 68.1531
" />
<path d="M174.3689 68.1531
L174.3689 68.2007
" />
<path d="M174.3689 68.2007
L174.3212 68.2960
" />
<path d="M174.3212 68.2960
L174.2736 68.3436
" />
<path d="M174.2736 68.3436
L174.1784 68.3912
" />
<path d="M174.1784 68.3912
L173.9879 68.3912
" />
<path d="M173.9879 68.3912
L173.8927 68.4388
" />
<path d="M173.8927 68.4388
L173.8451 68.4864
" />
<path d="M173.8451 68.4864
L173.7974 68.5817
" />
<path d="M173.7974 68.5817
L173.7974 68.7721
" />
<path d="M173.7974 68.7721
L173.8451 68.8674
" />
<path d="M173.8451 68.8674
L173.8927 68.9150
" />
<path d="M173.8927 68.9150
L173.9879 68.9626
" />
<path d="M173.9879 68.9626
L174.1784 68.9626
" />
<path d="M174.1784 68.9626
L174.2736 68.9150
" />
<path d="M174.2736 68.9150
L174.3212 68.8674
" />
<path d="M174.3212 68.8674
L174.3689 68.7721
" />
<path d="M174.3689 68.7721
L174.3689 68.5817
" />
<path d="M174.3689 68.5817
L174.3212 68.4864
" />
<path d="M174.3212 68.4864
L174.2736 68.4388
" />
<path d="M174.2736 68.4388
L174.1784 68.3912
" />
</g></g>
<g style="fill:#000000; fill-opacity:0.0; 
stroke:#000000; stroke-width:0.1000; stroke-opacity:1; 
stroke-linecap:round; stroke-linejoin:round;">
<g transform="rotate(-270.000000 198.7422 74.6400)">
<text x="198.7422" y="75.1400"
transform="scale(-1 1) translate(-397.484400 0)"
textLength="1.8595" font-size="1.3333" lengthAdjust="spacingAndGlyphs"
text-anchor="middle" opacity="0">F2</text>
</g>
<g class="stroked-text"><desc>F2</desc>
<path d="M198.6810 74.9733
L198.6810 75.3067
" />
<path d="M199.2048 75.3067
L198.2048 75.3067
" />
<path d="M198.2048 75.3067
L198.2048 74.8305
" />
<path d="M198.3001 74.4971
L198.2524 74.4495
" />
<path d="M198.2524 74.4495
L198.2048 74.3543
" />
<path d="M198.2048 74.3543
L198.2048 74.1162
" />
<path d="M198.2048 74.1162
L198.2524 74.0210
" />
<path d="M198.2524 74.0210
L198.3001 73.9733
" />
<path d="M198.3001 73.9733
L198.3953 73.9257
" />
<path d="M198.3953 73.9257
L198.4905 73.9257
" />
<path d="M198.4905 73.9257
L198.6334 73.9733
" />
<path d="M198.6334 73.9733
L199.2048 74.5448
" />
<path d="M199.2048 74.5448
L199.2048 73.9257
" />
</g></g>
<g style="fill:#000000; fill-opacity:0.0; 
stroke:#000000; stroke-width:0.1500; stroke-opacity:1; 
stroke-linecap:round; stroke-linejoin:round;">
<text x="231.1654" y="60.7996"
transform="scale(-1 1) translate(-462.330800 0)"
textLength="2.8417" font-size="1.3333" lengthAdjust="spacingAndGlyphs"
text-anchor="middle" opacity="0">J15</text>
<g class="stroked-text"><desc>J15</desc>
<path d="M230.3559 59.7622
L230.3559 60.4765
" />
<path d="M230.3559 60.4765
L230.3083 60.6194
" />
<path d="M230.3083 60.6194
L230.2130 60.7146
" />
<path d="M230.2130 60.7146
L230.0702 60.7622
" />
<path d="M230.0702 60.7622
L229.9749 60.7622
" />
<path d="M231.3559 60.7622
L230.7844 60.7622
" />
<path d="M231.0702 60.7622
L231.0702 59.7622
" />
<path d="M231.0702 59.7622
L230.9749 59.9051
" />
<path d="M230.9749 59.9051
L230.8797 60.0003
" />
<path d="M230.8797 60.0003
L230.7844 60.0479
" />
<path d="M232.2606 59.7622
L231.7844 59.7622
" />
<path d="M231.7844 59.7622
L231.7368 60.2384
" />
<path d="M231.7368 60.2384
L231.7844 60.1908
" />
<path d="M231.7844 60.1908
L231.8797 60.1432
" />
<path d="M231.8797 60.1432
L232.1178 60.1432
" />
<path d="M232.1178 60.1432
L232.2130 60.1908
" />
<path d="M232.2130 60.1908
L232.2606 60.2384
" />
<path d="M232.2606 60.2384
L232.3083 60.3336
" />
<path d="M232.3083 60.3336
L232.3083 60.5717
" />
<path d="M232.3083 60.5717
L232.2606 60.6670
" />
<path d="M232.2606 60.6670
L232.2130 60.7146
" />
<path d="M232.2130 60.7146
L232.1178 60.7622
" />
<path d="M232.1178 60.7622
L231.8797 60.7622
" />
<path d="M231.8797 60.7622
L231.7844 60.7146
" />
<path d="M231.7844 60.7146
L231.7368 60.6670
" />
</g></g>
<g style="fill:#000000; fill-opacity:0.0; 
stroke:#000000; stroke-width:0.1200; stroke-opacity:1; 
stroke-linecap:round; stroke-linejoin:round;">
<path d="M248.7422 107.6500
L248.7422 106.3200
" />
<path d="M247.4122 107.6500
L248.7422 107.6500
" />
<path d="M246.1422 107.6500
L197.8222 107.6500
" />
<path d="M246.1422 107.6500
L246.1422 105.0500
" />
<path d="M197.8222 107.6500
L197.8222 102.4500
" />
<path d="M248.7422 105.0500
L248.7422 102.4500
" />
<path d="M246.1422 105.0500
L248.7422 105.0500
" />
<path d="M248.7422 102.4500
L197.8222 102.4500
" />
</g>
<g style="fill:#000000; fill-opacity:0.0; 
stroke:#000000; stroke-width:0.1000; stroke-opacity:1; 
stroke-linecap:round; stroke-linejoin:round;">
<path d="M250.7822 125.0500
L195.7822 125.0500
" />
<path d="M195.7822 125.0500
L195.7822 85.0500
" />
<path d="M195.7822 85.0500
L250.7822 85.0500
" />
<path d="M250.7822 85.0500
L250.7822 125.0500
" />
</g>
<g style="fill:#000000; fill-opacity:0.0; 
stroke:#000000; stroke-width:0.1200; stroke-opacity:1; 
stroke-linecap:round; stroke-linejoin:round;">
<path d="M184.7072 88.8300
L182.0472 88.8300
" />
<path d="M184.7072 96.5100
L184.7072 88.8300
" />
<path d="M184.7072 96.5100
L182.0472 96.5100
" />
<path d="M184.7072 97.7800
L184.7072 99.1100
" />
<path d="M184.7072 99.1100
L183.3772 99.1100
" />
<path d="M182.0472 96.5100
L182.0472 88.8300
" />
<path d="M159.0022 58.4450
L157.7322 58.4450
" />
<path d="M157.7322 58.4450
L157.7322 57.1750
" />
<path d="M161.9222 56.1321
L161.9222 55.7350
" />
<path d="M161.1622 56.1321
L161.1622 55.7350
" />
<path d="M159.3822 56.0650
L159.3822 55.7350
" />
<path d="M158.6222 56.0650
L158.6222 55.7350
" />
<path d="M162.8722 55.7350
L162.8722 53.0750
" />
<path d="M160.2722 55.7350
L160.2722 53.0750
" />
<path d="M157.6722 55.7350
L162.8722 55.7350
" />
<path d="M162.8722 53.0750
L157.6722 53.0750
" />
<path d="M161.1622 53.0750
L161.1622 47.0750
" />
<path d="M159.2822 53.0750
L159.2822 47.0750
" />
<path d="M159.1622 53.0750
L159.1622 47.0750
" />
<path d="M159.0422 53.0750
L159.0422 47.0750
" />
<path d="M158.9222 53.0750
L158.9222 47.0750
" />
<path d="M158.8022 53.0750
L158.8022 47.0750
" />
<path d="M158.6822 53.0750
L158.6822 47.0750
" />
<path d="M158.6222 53.0750
L158.6222 47.0750
" />
<path d="M157.6722 53.0750
L157.6722 55.7350
" />
<path d="M161.9222 47.0750
L161.9222 53.0750
" />
<path d="M161.1622 47.0750
L161.9222 47.0750
" />
<path d="M159.3822 47.0750
L159.3822 53.0750
" />
<path d="M158.6222 47.0750
L159.3822 47.0750
" />
</g>
<g style="fill:#000000; fill-opacity:0.0; 
stroke:#000000; stroke-width:0.1000; stroke-opacity:1; 
stroke-linecap:round; stroke-linejoin:round;">
<circle cx="170.0022" cy="50.0062" r="0.9148" /> 
<circle cx="170.0022" cy="48.0000" r="0.9144" /> 
</g>
<g style="fill:#000000; fill-opacity:0.0; 
stroke:#000000; stroke-width:0.1200; stroke-opacity:1; 
stroke-linecap:round; stroke-linejoin:round;">
<path d="M216.7022 59.5000
L217.1022 59.5000
" />
<path d="M214.1022 59.5000
L214.5022 59.5000
" />
<path d="M211.6022 59.5000
L212.0022 59.5000
" />
<path d="M209.1022 59.5000
L209.5022 59.5000
" />
<path d="M206.5022 59.5000
L206.9022 59.5000
" />
<path d="M204.0022 59.5000
L204.4022 59.5000
" />
<path d="M201.4022 59.5000
L201.8022 59.5000
" />
<path d="M198.9022 59.5000
L199.3022 59.5000
" />
<path d="M196.3022 59.5000
L196.7022 59.5000
" />
<path d="M193.8022 59.5000
L194.2022 59.5000
" />
<path d="M191.3022 59.5000
L191.7022 59.5000
" />
<path d="M188.7022 59.5000
L189.1022 59.5000
" />
<path d="M186.2022 59.5000
L186.6022 59.5000
" />
<path d="M183.6022 59.5000
L184.0022 59.5000
" />
<path d="M181.1022 59.5000
L181.5022 59.5000
" />
<path d="M178.6022 59.5000
L179.0022 59.5000
" />
<path d="M176.0022 59.5000
L176.4022 59.5000
" />
<path d="M173.5022 59.5000
L173.9022 59.5000
" />
<path d="M171.1692 59.5000
L171.1692 56.4930
" />
<path d="M170.9022 59.5000
L171.3022 59.5000
" />
<path d="M168.5022 59.5000
L168.8022 59.5000
" />
<path d="M171.1692 56.4930
L168.5022 56.4930
" />
<path d="M219.5022 52.7000
L219.5022 59.5000
" />
<path d="M219.5022 50.5000
L219.5022 50.1000
" />
<path d="M219.5022 47.9000
L219.5022 47.5000
" />
<path d="M219.5022 38.5000
L219.5022 45.3000
" />
<path d="M216.7022 38.5000
L217.1022 38.5000
" />
<path d="M214.1022 38.5000
L214.5022 38.5000
" />
<path d="M211.6022 38.5000
L212.0022 38.5000
" />
<path d="M209.1022 38.5000
L209.5022 38.5000
" />
<path d="M206.5022 38.5000
L206.9022 38.5000
" />
<path d="M204.0022 38.5000
L204.4022 38.5000
" />
<path d="M201.4022 38.5000
L201.8022 38.5000
" />
<path d="M198.9022 38.5000
L199.3022 38.5000
" />
<path d="M196.3022 38.5000
L196.7022 38.5000
" />
<path d="M193.8022 38.5000
L194.2022 38.5000
" />
<path d="M191.3022 38.5000
L191.7022 38.5000
" />
<path d="M188.7022 38.5000
L189.1022 38.5000
" />
<path d="M186.2022 38.5000
L186.6022 38.5000
" />
<path d="M183.6022 38.5000
L184.0022 38.5000
" />
<path d="M181.1022 38.5000
L181.5022 38.5000
" />
<path d="M178.6022 38.5000
L179.0022 38.5000
" />
<path d="M176.0022 38.5000
L176.4022 38.5000
" />
<path d="M173.5022 38.5000
L173.9022 38.5000
" />
<path d="M170.9022 38.5000
L171.3022 38.5000
" />
<path d="M168.5022 38.5000
L168.8022 38.5000
" />
<path d="M241.1372 84.2326
L239.8672 84.2326
" />
<path d="M239.8672 84.2326
L239.8672 82.9626
" />
<path d="M246.5972 81.9197
L246.5972 81.5226
" />
<path d="M245.8372 81.9197
L245.8372 81.5226
" />
<path d="M244.0572 81.9197
L244.0572 81.5226
" />
<path d="M243.2972 81.9197
L243.2972 81.5226
" />
<path d="M241.5172 81.8526
L241.5172 81.5226
" />
<path d="M240.7572 81.8526
L240.7572 81.5226
" />
<path d="M247.5472 81.5226
L247.5472 78.8626
" />
<path d="M244.9472 81.5226
L244.9472 78.8626
" />
<path d="M242.4072 81.5226
L242.4072 78.8626
" />
<path d="M239.8072 81.5226
L247.5472 81.5226
" />
<path d="M247.5472 78.8626
L239.8072 78.8626
" />
<path d="M245.8372 78.8626
L245.8372 72.8626
" />
<path d="M243.2972 78.8626
L243.2972 72.8626
" />
<path d="M241.4172 78.8626
L241.4172 72.8626
" />
<path d="M241.2972 78.8626
L241.2972 72.8626
" />
<path d="M241.1772 78.8626
L241.1772 72.8626
" />
<path d="M241.0572 78.8626
L241.0572 72.8626
" />
<path d="M240.9372 78.8626
L240.9372 72.8626
" />
<path d="M240.8172 78.8626
L240.8172 72.8626
" />
<path d="M240.7572 78.8626
L240.7572 72.8626
" />
<path d="M239.8072 78.8626
L239.8072 81.5226
" />
<path d="M246.5972 72.8626
L246.5972 78.8626
" />
<path d="M245.8372 72.8626
L246.5972 72.8626
" />
<path d="M244.0572 72.8626
L244.0572 78.8626
" />
<path d="M243.2972 72.8626
L244.0572 72.8626
" />
<path d="M241.5172 72.8626
L241.5172 78.8626
" />
<path d="M240.7572 72.8626
L241.5172 72.8626
" />
</g>
<g style="fill:#000000; fill-opacity:0.0; 
stroke:#000000; stroke-width:0.1000; stroke-opacity:1; 
stroke-linecap:round; stroke-linejoin:round;">
<path d="M125.5222 63.5056
L125.5222 121.5056
" />
<path d="M129.2722 125.0056
L129.0222 125.0056
" />
</g>
<g style="fill:#000000; fill-opacity:0.0; 
stroke:#000000; stroke-width:0.1200; stroke-opacity:1; 
stroke-linecap:round; stroke-linejoin:round;">
<path d="M138.2122 123.0206
L138.2122 117.8206
" />
<path d="M139.1172 76.1156
L139.1172 81.2556
" />
<path d="M139.1172 73.5156
L139.1172 74.8456
" />
<path d="M140.4472 73.5156
L139.1172 73.5156
" />
<path d="M141.7172 76.1156
L139.1172 76.1156
" />
<path d="M141.7172 73.5156
L141.7172 76.1156
" />
<path d="M143.3522 120.4206
L143.3522 117.8206
" />
<path d="M143.3522 117.8206
L138.2122 117.8206
" />
<path d="M144.3172 81.2556
L139.1172 81.2556
" />
<path d="M144.3172 73.5156
L141.7172 73.5156
" />
<path d="M144.3172 73.5156
L144.3172 81.2556
" />
<path d="M145.9522 123.0206
L138.2122 123.0206
" />
<path d="M145.9522 123.0206
L145.9522 120.4206
" />
<path d="M145.9522 120.4206
L143.3522 120.4206
" />
<path d="M145.9522 119.1506
L145.9522 117.8206
" />
<path d="M145.9522 117.8206
L144.6222 117.8206
" />
<path d="M175.4222 69.6456
L175.4222 117.9656
" />
<path d="M175.4222 67.0456
L175.4222 68.3756
" />
<path d="M176.7522 67.0456
L175.4222 67.0456
" />
<path d="M178.0222 69.6456
L175.4222 69.6456
" />
<path d="M178.0222 67.0456
L178.0222 69.6456
" />
</g>
<g style="fill:#000000; fill-opacity:0.0; 
stroke:#000000; stroke-width:0.1000; stroke-opacity:1; 
stroke-linecap:round; stroke-linejoin:round;">
<path d="M178.0222 60.0056
L129.0222 60.0056
" />
<path d="M178.0222 60.0056
L178.5222 60.0052
" />
<path d="M178.7722 125.0056
L129.2722 125.0056
" />
</g>
<g style="fill:#000000; fill-opacity:0.0; 
stroke:#000000; stroke-width:0.1200; stroke-opacity:1; 
stroke-linecap:round; stroke-linejoin:round;">
<path d="M180.6222 117.9656
L175.4222 117.9656
" />
<path d="M180.6222 67.0456
L178.0222 67.0456
" />
<path d="M180.6222 67.0456
L180.6222 117.9656
" />
</g>
<g style="fill:#000000; fill-opacity:0.0; 
stroke:#000000; stroke-width:0.1000; stroke-opacity:1; 
stroke-linecap:round; stroke-linejoin:round;">
<path d="M182.0222 121.5056
L182.0222 63.5556
" />
<path d="M125.5222 121.5056 A3.5000 3.5000 0.0 0 0 129.0222 125.0056" />
<path d="M129.0222 60.0056 A3.5000 3.5000 0.0 0 0 125.5222 63.5056" />
<path d="M178.5222 125.0056 A3.5000 3.5000 0.0 0 0 182.0222 121.5056" />
<path d="M182.0222 63.5556 A3.5004 3.5004 0.0 0 0 178.5222 60.0052" />
<circle cx="129.0222" cy="121.5056" r="1.6510" /> 
<circle cx="129.0222" cy="63.5056" r="1.6510" /> 
<circle cx="178.0222" cy="121.5056" r="1.6510" /> 
<circle cx="178.0222" cy="63.5056" r="1.6510" /> 
</g>
<g style="fill:#000000; fill-opacity:0.0; 
stroke:#000000; stroke-width:0.1200; stroke-opacity:1; 
stroke-linecap:round; stroke-linejoin:round;">
<path d="M224.7322 52.8500
L224.7322 51.5800
" />
<path d="M224.7322 51.5800
L226.0022 51.5800
" />
<path d="M227.0451 58.3100
L227.4993 58.3100
" />
<path d="M227.0451 57.5500
L227.4993 57.5500
" />
<path d="M227.0451 55.7700
L227.4993 55.7700
" />
<path d="M227.0451 55.0100
L227.4993 55.0100
" />
<path d="M227.1122 53.2300
L227.4993 53.2300
" />
<path d="M227.1122 52.4700
L227.4993 52.4700
" />
<path d="M229.5851 58.3100
L229.9822 58.3100
" />
<path d="M229.5851 57.5500
L229.9822 57.5500
" />
<path d="M229.5851 55.7700
L229.9822 55.7700
" />
<path d="M229.5851 55.0100
L229.9822 55.0100
" />
<path d="M229.5851 53.2300
L229.9822 53.2300
" />
<path d="M229.5851 52.4700
L229.9822 52.4700
" />
<path d="M229.9822 59.2600
L232.6422 59.2600
" />
<path d="M229.9822 56.6600
L232.6422 56.6600
" />
<path d="M229.9822 54.1200
L232.6422 54.1200
" />
<path d="M229.9822 51.5200
L229.9822 59.2600
" />
<path d="M232.6422 59.2600
L232.6422 51.5200
" />
<path d="M232.6422 57.5500
L238.6422 57.5500
" />
<path d="M232.6422 55.0100
L238.6422 55.0100
" />
<path d="M232.6422 53.1300
L238.6422 53.1300
" />
<path d="M232.6422 53.0100
L238.6422 53.0100
" />
<path d="M232.6422 52.8900
L238.6422 52.8900
" />
<path d="M232.6422 52.7700
L238.6422 52.7700
" />
<path d="M232.6422 52.6500
L238.6422 52.6500
" />
<path d="M232.6422 52.5300
L238.6422 52.5300
" />
<path d="M232.6422 52.4700
L238.6422 52.4700
" />
<path d="M232.6422 51.5200
L229.9822 51.5200
" />
<path d="M238.6422 58.3100
L232.6422 58.3100
" />
<path d="M238.6422 57.5500
L238.6422 58.3100
" />
<path d="M238.6422 55.7700
L232.6422 55.7700
" />
<path d="M238.6422 55.0100
L238.6422 55.7700
" />
<path d="M238.6422 53.2300
L232.6422 53.2300
" />
<path d="M238.6422 52.4700
L238.6422 53.2300
" />
<g >
</g>
<g >
</g>
<g >
</g>
<g >
</g>
<g >
</g>
<g >
</g>
<g >
</g>
<g >
</g>
<g >
</g>
<g >
</g>
<g >
</g>
<g >
</g>
<g >
</g>
<g >
</g>
<g >
</g>
<g >
</g>
<g >
</g>
<g >
</g>
<g >
</g>
<g >
</g>
<g >
</g>
<g >
</g>
<g >
</g>
<g >
</g>
<g >
</g>
<g >
</g>
<g >
</g>
<g >
</g>
<g >
</g>
<g >
</g>
<g >
</g>
<g >
</g>
<g >
</g>
<g >
</g>
<g >
</g>
<g >
</g>
<g >
</g>
<g >
</g>
<g >
</g>
<g >
</g>
<g >
</g>
<g >
</g>
<g >
</g>
<g >
</g>
<g >
</g>
<g >
</g>
<g >
</g>
<g >
</g>
<g >
</g>
<g >
</g>
<g >
</g>
<g >
</g>
<g >
</g>
<g >
</g>
<g >
</g>
<g >
</g>
<g >
</g>
<g >
</g>
<g >
</g>
<g >
</g>
<g >
</g>
<g >
</g>
<g >
</g>
<g >
</g>
<g >
</g>
<g >
</g>
<g >
</g>
<g >
</g>
<g >
</g>
<g >
</g>
<g >
</g>
<g >
</g>
<g >
</g>
<g >
</g>
<g >
</g>
<g >
</g>
<g >
</g>
<g >
</g>
<g >
</g>
<g >
</g>
<g >
</g>
<g >
</g>
<g >
</g>
<g >
</g>
<g >
</g>
<g >
</g>
<g >
</g>
<g >
</g>
<g >
</g>
</g> 
</svg>
