<?xml version="1.0" standalone="no"?>
 <!DOCTYPE svg PUBLIC "-//W3C//DTD SVG 1.1//EN" 
 "http://www.w3.org/Graphics/SVG/1.1/DTD/svg11.dtd"> 
<svg
  xmlns:svg="http://www.w3.org/2000/svg"
  xmlns="http://www.w3.org/2000/svg"
  xmlns:xlink="http://www.w3.org/1999/xlink"
  version="1.1"
  width="297.0022mm" height="210.0072mm" viewBox="0.0000 0.0000 297.0022 210.0072">
<title>SVG Image created as pedalboard-hw-B_Silkscreen.svg date 2023/06/12 15:30:30 </title>
  <desc>Image generated by PCBNEW </desc>
<g style="fill:#000000; fill-opacity:1.0000;stroke:#000000; stroke-opacity:1.0000;
stroke-linecap:round; stroke-linejoin:round;"
 transform="translate(0 0) scale(1 1)">
</g>
<g style="fill:#000000; fill-opacity:0.0; 
stroke:#000000; stroke-width:0.0000; stroke-opacity:1; 
stroke-linecap:round; stroke-linejoin:round;">
</g>
<g style="fill:#000000; fill-opacity:0.0; 
stroke:#000000; stroke-width:0.1500; stroke-opacity:1; 
stroke-linecap:round; stroke-linejoin:round;">
<g transform="rotate(90.000000 241.6810 71.4756)">
<text x="241.6810" y="71.4756"
transform="scale(-1 1) translate(-483.362000 0)"
textLength="3.2226" font-size="1.3333" lengthAdjust="spacingAndGlyphs"
text-anchor="start" opacity="0">GND</text>
</g>
<g class="stroked-text"><desc>GND</desc>
<path d="M240.5984 70.6150
L240.5508 70.7102
" />
<path d="M240.5508 70.7102
L240.5508 70.8531
" />
<path d="M240.5508 70.8531
L240.5984 70.9960
" />
<path d="M240.5984 70.9960
L240.6937 71.0912
" />
<path d="M240.6937 71.0912
L240.7889 71.1388
" />
<path d="M240.7889 71.1388
L240.9794 71.1864
" />
<path d="M240.9794 71.1864
L241.1222 71.1864
" />
<path d="M241.1222 71.1864
L241.3127 71.1388
" />
<path d="M241.3127 71.1388
L241.4080 71.0912
" />
<path d="M241.4080 71.0912
L241.5032 70.9960
" />
<path d="M241.5032 70.9960
L241.5508 70.8531
" />
<path d="M241.5508 70.8531
L241.5508 70.7579
" />
<path d="M241.5508 70.7579
L241.5032 70.6150
" />
<path d="M241.5032 70.6150
L241.4556 70.5674
" />
<path d="M241.4556 70.5674
L241.1222 70.5674
" />
<path d="M241.1222 70.5674
L241.1222 70.7579
" />
<path d="M241.5508 70.1388
L240.5508 70.1388
" />
<path d="M240.5508 70.1388
L241.5508 69.5674
" />
<path d="M241.5508 69.5674
L240.5508 69.5674
" />
<path d="M241.5508 69.0912
L240.5508 69.0912
" />
<path d="M240.5508 69.0912
L240.5508 68.8531
" />
<path d="M240.5508 68.8531
L240.5984 68.7102
" />
<path d="M240.5984 68.7102
L240.6937 68.6150
" />
<path d="M240.6937 68.6150
L240.7889 68.5674
" />
<path d="M240.7889 68.5674
L240.9794 68.5198
" />
<path d="M240.9794 68.5198
L241.1222 68.5198
" />
<path d="M241.1222 68.5198
L241.3127 68.5674
" />
<path d="M241.3127 68.5674
L241.4080 68.6150
" />
<path d="M241.4080 68.6150
L241.5032 68.7102
" />
<path d="M241.5032 68.7102
L241.5508 68.8531
" />
<path d="M241.5508 68.8531
L241.5508 69.0912
" />
</g><g transform="rotate(90.000000 244.1194 71.3740)">
<text x="244.1194" y="71.3740"
transform="scale(-1 1) translate(-488.238800 0)"
textLength="6.6988" font-size="1.3333" lengthAdjust="spacingAndGlyphs"
text-anchor="start" opacity="0">Data out</text>
</g>
<g class="stroked-text"><desc>Data out</desc>
<path d="M243.9892 71.0372
L242.9892 71.0372
" />
<path d="M242.9892 71.0372
L242.9892 70.7991
" />
<path d="M242.9892 70.7991
L243.0368 70.6563
" />
<path d="M243.0368 70.6563
L243.1321 70.5610
" />
<path d="M243.1321 70.5610
L243.2273 70.5134
" />
<path d="M243.2273 70.5134
L243.4178 70.4658
" />
<path d="M243.4178 70.4658
L243.5606 70.4658
" />
<path d="M243.5606 70.4658
L243.7511 70.5134
" />
<path d="M243.7511 70.5134
L243.8464 70.5610
" />
<path d="M243.8464 70.5610
L243.9416 70.6563
" />
<path d="M243.9416 70.6563
L243.9892 70.7991
" />
<path d="M243.9892 70.7991
L243.9892 71.0372
" />
<path d="M243.9892 69.6086
L243.4654 69.6086
" />
<path d="M243.4654 69.6086
L243.3702 69.6563
" />
<path d="M243.3702 69.6563
L243.3226 69.7515
" />
<path d="M243.3226 69.7515
L243.3226 69.9420
" />
<path d="M243.3226 69.9420
L243.3702 70.0372
" />
<path d="M243.9416 69.6086
L243.9892 69.7039
" />
<path d="M243.9892 69.7039
L243.9892 69.9420
" />
<path d="M243.9892 69.9420
L243.9416 70.0372
" />
<path d="M243.9416 70.0372
L243.8464 70.0848
" />
<path d="M243.8464 70.0848
L243.7511 70.0848
" />
<path d="M243.7511 70.0848
L243.6559 70.0372
" />
<path d="M243.6559 70.0372
L243.6083 69.9420
" />
<path d="M243.6083 69.9420
L243.6083 69.7039
" />
<path d="M243.6083 69.7039
L243.5606 69.6086
" />
<path d="M243.3226 69.2753
L243.3226 68.8944
" />
<path d="M242.9892 69.1325
L243.8464 69.1325
" />
<path d="M243.8464 69.1325
L243.9416 69.0848
" />
<path d="M243.9416 69.0848
L243.9892 68.9896
" />
<path d="M243.9892 68.9896
L243.9892 68.8944
" />
<path d="M243.9892 68.1325
L243.4654 68.1325
" />
<path d="M243.4654 68.1325
L243.3702 68.1801
" />
<path d="M243.3702 68.1801
L243.3226 68.2753
" />
<path d="M243.3226 68.2753
L243.3226 68.4658
" />
<path d="M243.3226 68.4658
L243.3702 68.5610
" />
<path d="M243.9416 68.1325
L243.9892 68.2277
" />
<path d="M243.9892 68.2277
L243.9892 68.4658
" />
<path d="M243.9892 68.4658
L243.9416 68.5610
" />
<path d="M243.9416 68.5610
L243.8464 68.6086
" />
<path d="M243.8464 68.6086
L243.7511 68.6086
" />
<path d="M243.7511 68.6086
L243.6559 68.5610
" />
<path d="M243.6559 68.5610
L243.6083 68.4658
" />
<path d="M243.6083 68.4658
L243.6083 68.2277
" />
<path d="M243.6083 68.2277
L243.5606 68.1325
" />
<path d="M243.9892 66.7515
L243.9416 66.8467
" />
<path d="M243.9416 66.8467
L243.8940 66.8944
" />
<path d="M243.8940 66.8944
L243.7987 66.9420
" />
<path d="M243.7987 66.9420
L243.5130 66.9420
" />
<path d="M243.5130 66.9420
L243.4178 66.8944
" />
<path d="M243.4178 66.8944
L243.3702 66.8467
" />
<path d="M243.3702 66.8467
L243.3226 66.7515
" />
<path d="M243.3226 66.7515
L243.3226 66.6086
" />
<path d="M243.3226 66.6086
L243.3702 66.5134
" />
<path d="M243.3702 66.5134
L243.4178 66.4658
" />
<path d="M243.4178 66.4658
L243.5130 66.4182
" />
<path d="M243.5130 66.4182
L243.7987 66.4182
" />
<path d="M243.7987 66.4182
L243.8940 66.4658
" />
<path d="M243.8940 66.4658
L243.9416 66.5134
" />
<path d="M243.9416 66.5134
L243.9892 66.6086
" />
<path d="M243.9892 66.6086
L243.9892 66.7515
" />
<path d="M243.3226 65.5610
L243.9892 65.5610
" />
<path d="M243.3226 65.9896
L243.8464 65.9896
" />
<path d="M243.8464 65.9896
L243.9416 65.9420
" />
<path d="M243.9416 65.9420
L243.9892 65.8467
" />
<path d="M243.9892 65.8467
L243.9892 65.7039
" />
<path d="M243.9892 65.7039
L243.9416 65.6086
" />
<path d="M243.9416 65.6086
L243.8940 65.5610
" />
<path d="M243.3226 65.2277
L243.3226 64.8467
" />
<path d="M242.9892 65.0848
L243.8464 65.0848
" />
<path d="M243.8464 65.0848
L243.9416 65.0372
" />
<path d="M243.9416 65.0372
L243.9892 64.9420
" />
<path d="M243.9892 64.9420
L243.9892 64.8467
" />
</g><g transform="rotate(-90.000000 225.0694 49.7332)">
<text x="225.0694" y="49.7332"
transform="scale(-1 1) translate(-450.138800 0)"
textLength="1.6988" font-size="1.3333" lengthAdjust="spacingAndGlyphs"
text-anchor="start" opacity="0">IN</text>
</g>
<g class="stroked-text"><desc>IN</desc>
<path d="M225.1996 50.0700
L226.1996 50.0700
" />
<path d="M225.1996 50.5462
L226.1996 50.5462
" />
<path d="M226.1996 50.5462
L225.1996 51.1176
" />
<path d="M225.1996 51.1176
L226.1996 51.1176
" />
</g><g transform="rotate(-90.000000 107.7722 36.5760)">
<text x="107.7722" y="36.5760"
transform="scale(-1 1) translate(-215.544400 0)"
textLength="3.2226" font-size="1.3333" lengthAdjust="spacingAndGlyphs"
text-anchor="start" opacity="0">GND</text>
</g>
<g class="stroked-text"><desc>GND</desc>
<path d="M108.8548 37.4366
L108.9024 37.3413
" />
<path d="M108.9024 37.3413
L108.9024 37.1985
" />
<path d="M108.9024 37.1985
L108.8548 37.0556
" />
<path d="M108.8548 37.0556
L108.7595 36.9604
" />
<path d="M108.7595 36.9604
L108.6643 36.9128
" />
<path d="M108.6643 36.9128
L108.4738 36.8652
" />
<path d="M108.4738 36.8652
L108.3310 36.8652
" />
<path d="M108.3310 36.8652
L108.1405 36.9128
" />
<path d="M108.1405 36.9128
L108.0452 36.9604
" />
<path d="M108.0452 36.9604
L107.9500 37.0556
" />
<path d="M107.9500 37.0556
L107.9024 37.1985
" />
<path d="M107.9024 37.1985
L107.9024 37.2937
" />
<path d="M107.9024 37.2937
L107.9500 37.4366
" />
<path d="M107.9500 37.4366
L107.9976 37.4842
" />
<path d="M107.9976 37.4842
L108.3310 37.4842
" />
<path d="M108.3310 37.4842
L108.3310 37.2937
" />
<path d="M107.9024 37.9128
L108.9024 37.9128
" />
<path d="M108.9024 37.9128
L107.9024 38.4842
" />
<path d="M107.9024 38.4842
L108.9024 38.4842
" />
<path d="M107.9024 38.9604
L108.9024 38.9604
" />
<path d="M108.9024 38.9604
L108.9024 39.1985
" />
<path d="M108.9024 39.1985
L108.8548 39.3413
" />
<path d="M108.8548 39.3413
L108.7595 39.4366
" />
<path d="M108.7595 39.4366
L108.6643 39.4842
" />
<path d="M108.6643 39.4842
L108.4738 39.5318
" />
<path d="M108.4738 39.5318
L108.3310 39.5318
" />
<path d="M108.3310 39.5318
L108.1405 39.4842
" />
<path d="M108.1405 39.4842
L108.0452 39.4366
" />
<path d="M108.0452 39.4366
L107.9500 39.3413
" />
<path d="M107.9500 39.3413
L107.9024 39.1985
" />
<path d="M107.9024 39.1985
L107.9024 38.9604
" />
</g><g transform="rotate(-90.000000 163.5422 50.0600)">
<text x="163.5422" y="50.0600"
transform="scale(-1 1) translate(-327.084400 0)"
textLength="5.7464" font-size="1.3333" lengthAdjust="spacingAndGlyphs"
text-anchor="start" opacity="0">5V PSU</text>
</g>
<g class="stroked-text"><desc>5V PSU</desc>
<path d="M164.6724 50.8730
L164.6724 50.3968
" />
<path d="M164.6724 50.3968
L164.1962 50.3492
" />
<path d="M164.1962 50.3492
L164.2438 50.3968
" />
<path d="M164.2438 50.3968
L164.2914 50.4920
" />
<path d="M164.2914 50.4920
L164.2914 50.7301
" />
<path d="M164.2914 50.7301
L164.2438 50.8254
" />
<path d="M164.2438 50.8254
L164.1962 50.8730
" />
<path d="M164.1962 50.8730
L164.1010 50.9206
" />
<path d="M164.1010 50.9206
L163.8629 50.9206
" />
<path d="M163.8629 50.9206
L163.7676 50.8730
" />
<path d="M163.7676 50.8730
L163.7200 50.8254
" />
<path d="M163.7200 50.8254
L163.6724 50.7301
" />
<path d="M163.6724 50.7301
L163.6724 50.4920
" />
<path d="M163.6724 50.4920
L163.7200 50.3968
" />
<path d="M163.7200 50.3968
L163.7676 50.3492
" />
<path d="M164.6724 51.2063
L163.6724 51.5396
" />
<path d="M163.6724 51.5396
L164.6724 51.8730
" />
<path d="M163.6724 52.9682
L164.6724 52.9682
" />
<path d="M164.6724 52.9682
L164.6724 53.3492
" />
<path d="M164.6724 53.3492
L164.6248 53.4444
" />
<path d="M164.6248 53.4444
L164.5771 53.4920
" />
<path d="M164.5771 53.4920
L164.4819 53.5396
" />
<path d="M164.4819 53.5396
L164.3390 53.5396
" />
<path d="M164.3390 53.5396
L164.2438 53.4920
" />
<path d="M164.2438 53.4920
L164.1962 53.4444
" />
<path d="M164.1962 53.4444
L164.1486 53.3492
" />
<path d="M164.1486 53.3492
L164.1486 52.9682
" />
<path d="M163.7200 53.9206
L163.6724 54.0634
" />
<path d="M163.6724 54.0634
L163.6724 54.3015
" />
<path d="M163.6724 54.3015
L163.7200 54.3968
" />
<path d="M163.7200 54.3968
L163.7676 54.4444
" />
<path d="M163.7676 54.4444
L163.8629 54.4920
" />
<path d="M163.8629 54.4920
L163.9581 54.4920
" />
<path d="M163.9581 54.4920
L164.0533 54.4444
" />
<path d="M164.0533 54.4444
L164.1010 54.3968
" />
<path d="M164.1010 54.3968
L164.1486 54.3015
" />
<path d="M164.1486 54.3015
L164.1962 54.1111
" />
<path d="M164.1962 54.1111
L164.2438 54.0158
" />
<path d="M164.2438 54.0158
L164.2914 53.9682
" />
<path d="M164.2914 53.9682
L164.3867 53.9206
" />
<path d="M164.3867 53.9206
L164.4819 53.9206
" />
<path d="M164.4819 53.9206
L164.5771 53.9682
" />
<path d="M164.5771 53.9682
L164.6248 54.0158
" />
<path d="M164.6248 54.0158
L164.6724 54.1111
" />
<path d="M164.6724 54.1111
L164.6724 54.3492
" />
<path d="M164.6724 54.3492
L164.6248 54.4920
" />
<path d="M164.6724 54.9206
L163.8629 54.9206
" />
<path d="M163.8629 54.9206
L163.7676 54.9682
" />
<path d="M163.7676 54.9682
L163.7200 55.0158
" />
<path d="M163.7200 55.0158
L163.6724 55.1111
" />
<path d="M163.6724 55.1111
L163.6724 55.3015
" />
<path d="M163.6724 55.3015
L163.7200 55.3968
" />
<path d="M163.7200 55.3968
L163.7676 55.4444
" />
<path d="M163.7676 55.4444
L163.8629 55.4920
" />
<path d="M163.8629 55.4920
L164.6724 55.4920
" />
</g><text x="211.4322" y="77.8800"
transform="scale(-1 1) translate(-422.864400 0)"
textLength="13.0798" font-size="1.3333" lengthAdjust="spacingAndGlyphs"
text-anchor="start" opacity="0">Open Pedalboard</text>
<g class="stroked-text"><desc>Open Pedalboard</desc>
<path d="M211.9595 76.7498
L212.1499 76.7498
" />
<path d="M212.1499 76.7498
L212.2452 76.7974
" />
<path d="M212.2452 76.7974
L212.3404 76.8927
" />
<path d="M212.3404 76.8927
L212.3880 77.0832
" />
<path d="M212.3880 77.0832
L212.3880 77.4165
" />
<path d="M212.3880 77.4165
L212.3404 77.6070
" />
<path d="M212.3404 77.6070
L212.2452 77.7022
" />
<path d="M212.2452 77.7022
L212.1499 77.7498
" />
<path d="M212.1499 77.7498
L211.9595 77.7498
" />
<path d="M211.9595 77.7498
L211.8642 77.7022
" />
<path d="M211.8642 77.7022
L211.7690 77.6070
" />
<path d="M211.7690 77.6070
L211.7214 77.4165
" />
<path d="M211.7214 77.4165
L211.7214 77.0832
" />
<path d="M211.7214 77.0832
L211.7690 76.8927
" />
<path d="M211.7690 76.8927
L211.8642 76.7974
" />
<path d="M211.8642 76.7974
L211.9595 76.7498
" />
<path d="M212.8166 77.0832
L212.8166 78.0832
" />
<path d="M212.8166 77.1308
L212.9118 77.0832
" />
<path d="M212.9118 77.0832
L213.1023 77.0832
" />
<path d="M213.1023 77.0832
L213.1976 77.1308
" />
<path d="M213.1976 77.1308
L213.2452 77.1784
" />
<path d="M213.2452 77.1784
L213.2928 77.2736
" />
<path d="M213.2928 77.2736
L213.2928 77.5593
" />
<path d="M213.2928 77.5593
L213.2452 77.6546
" />
<path d="M213.2452 77.6546
L213.1976 77.7022
" />
<path d="M213.1976 77.7022
L213.1023 77.7498
" />
<path d="M213.1023 77.7498
L212.9118 77.7498
" />
<path d="M212.9118 77.7498
L212.8166 77.7022
" />
<path d="M214.1023 77.7022
L214.0071 77.7498
" />
<path d="M214.0071 77.7498
L213.8166 77.7498
" />
<path d="M213.8166 77.7498
L213.7214 77.7022
" />
<path d="M213.7214 77.7022
L213.6737 77.6070
" />
<path d="M213.6737 77.6070
L213.6737 77.2260
" />
<path d="M213.6737 77.2260
L213.7214 77.1308
" />
<path d="M213.7214 77.1308
L213.8166 77.0832
" />
<path d="M213.8166 77.0832
L214.0071 77.0832
" />
<path d="M214.0071 77.0832
L214.1023 77.1308
" />
<path d="M214.1023 77.1308
L214.1499 77.2260
" />
<path d="M214.1499 77.2260
L214.1499 77.3212
" />
<path d="M214.1499 77.3212
L213.6737 77.4165
" />
<path d="M214.5785 77.0832
L214.5785 77.7498
" />
<path d="M214.5785 77.1784
L214.6261 77.1308
" />
<path d="M214.6261 77.1308
L214.7214 77.0832
" />
<path d="M214.7214 77.0832
L214.8642 77.0832
" />
<path d="M214.8642 77.0832
L214.9595 77.1308
" />
<path d="M214.9595 77.1308
L215.0071 77.2260
" />
<path d="M215.0071 77.2260
L215.0071 77.7498
" />
<path d="M216.2452 77.7498
L216.2452 76.7498
" />
<path d="M216.2452 76.7498
L216.6261 76.7498
" />
<path d="M216.6261 76.7498
L216.7214 76.7974
" />
<path d="M216.7214 76.7974
L216.7690 76.8451
" />
<path d="M216.7690 76.8451
L216.8166 76.9403
" />
<path d="M216.8166 76.9403
L216.8166 77.0832
" />
<path d="M216.8166 77.0832
L216.7690 77.1784
" />
<path d="M216.7690 77.1784
L216.7214 77.2260
" />
<path d="M216.7214 77.2260
L216.6261 77.2736
" />
<path d="M216.6261 77.2736
L216.2452 77.2736
" />
<path d="M217.6261 77.7022
L217.5309 77.7498
" />
<path d="M217.5309 77.7498
L217.3404 77.7498
" />
<path d="M217.3404 77.7498
L217.2452 77.7022
" />
<path d="M217.2452 77.7022
L217.1976 77.6070
" />
<path d="M217.1976 77.6070
L217.1976 77.2260
" />
<path d="M217.1976 77.2260
L217.2452 77.1308
" />
<path d="M217.2452 77.1308
L217.3404 77.0832
" />
<path d="M217.3404 77.0832
L217.5309 77.0832
" />
<path d="M217.5309 77.0832
L217.6261 77.1308
" />
<path d="M217.6261 77.1308
L217.6737 77.2260
" />
<path d="M217.6737 77.2260
L217.6737 77.3212
" />
<path d="M217.6737 77.3212
L217.1976 77.4165
" />
<path d="M218.5309 77.7498
L218.5309 76.7498
" />
<path d="M218.5309 77.7022
L218.4356 77.7498
" />
<path d="M218.4356 77.7498
L218.2452 77.7498
" />
<path d="M218.2452 77.7498
L218.1499 77.7022
" />
<path d="M218.1499 77.7022
L218.1023 77.6546
" />
<path d="M218.1023 77.6546
L218.0547 77.5593
" />
<path d="M218.0547 77.5593
L218.0547 77.2736
" />
<path d="M218.0547 77.2736
L218.1023 77.1784
" />
<path d="M218.1023 77.1784
L218.1499 77.1308
" />
<path d="M218.1499 77.1308
L218.2452 77.0832
" />
<path d="M218.2452 77.0832
L218.4356 77.0832
" />
<path d="M218.4356 77.0832
L218.5309 77.1308
" />
<path d="M219.4356 77.7498
L219.4356 77.2260
" />
<path d="M219.4356 77.2260
L219.3880 77.1308
" />
<path d="M219.3880 77.1308
L219.2928 77.0832
" />
<path d="M219.2928 77.0832
L219.1023 77.0832
" />
<path d="M219.1023 77.0832
L219.0071 77.1308
" />
<path d="M219.4356 77.7022
L219.3404 77.7498
" />
<path d="M219.3404 77.7498
L219.1023 77.7498
" />
<path d="M219.1023 77.7498
L219.0071 77.7022
" />
<path d="M219.0071 77.7022
L218.9595 77.6070
" />
<path d="M218.9595 77.6070
L218.9595 77.5117
" />
<path d="M218.9595 77.5117
L219.0071 77.4165
" />
<path d="M219.0071 77.4165
L219.1023 77.3689
" />
<path d="M219.1023 77.3689
L219.3404 77.3689
" />
<path d="M219.3404 77.3689
L219.4356 77.3212
" />
<path d="M220.0547 77.7498
L219.9595 77.7022
" />
<path d="M219.9595 77.7022
L219.9118 77.6070
" />
<path d="M219.9118 77.6070
L219.9118 76.7498
" />
<path d="M220.4356 77.7498
L220.4356 76.7498
" />
<path d="M220.4356 77.1308
L220.5309 77.0832
" />
<path d="M220.5309 77.0832
L220.7214 77.0832
" />
<path d="M220.7214 77.0832
L220.8166 77.1308
" />
<path d="M220.8166 77.1308
L220.8642 77.1784
" />
<path d="M220.8642 77.1784
L220.9118 77.2736
" />
<path d="M220.9118 77.2736
L220.9118 77.5593
" />
<path d="M220.9118 77.5593
L220.8642 77.6546
" />
<path d="M220.8642 77.6546
L220.8166 77.7022
" />
<path d="M220.8166 77.7022
L220.7214 77.7498
" />
<path d="M220.7214 77.7498
L220.5309 77.7498
" />
<path d="M220.5309 77.7498
L220.4356 77.7022
" />
<path d="M221.4833 77.7498
L221.3880 77.7022
" />
<path d="M221.3880 77.7022
L221.3404 77.6546
" />
<path d="M221.3404 77.6546
L221.2928 77.5593
" />
<path d="M221.2928 77.5593
L221.2928 77.2736
" />
<path d="M221.2928 77.2736
L221.3404 77.1784
" />
<path d="M221.3404 77.1784
L221.3880 77.1308
" />
<path d="M221.3880 77.1308
L221.4833 77.0832
" />
<path d="M221.4833 77.0832
L221.6261 77.0832
" />
<path d="M221.6261 77.0832
L221.7214 77.1308
" />
<path d="M221.7214 77.1308
L221.7690 77.1784
" />
<path d="M221.7690 77.1784
L221.8166 77.2736
" />
<path d="M221.8166 77.2736
L221.8166 77.5593
" />
<path d="M221.8166 77.5593
L221.7690 77.6546
" />
<path d="M221.7690 77.6546
L221.7214 77.7022
" />
<path d="M221.7214 77.7022
L221.6261 77.7498
" />
<path d="M221.6261 77.7498
L221.4833 77.7498
" />
<path d="M222.6737 77.7498
L222.6737 77.2260
" />
<path d="M222.6737 77.2260
L222.6261 77.1308
" />
<path d="M222.6261 77.1308
L222.5309 77.0832
" />
<path d="M222.5309 77.0832
L222.3404 77.0832
" />
<path d="M222.3404 77.0832
L222.2452 77.1308
" />
<path d="M222.6737 77.7022
L222.5785 77.7498
" />
<path d="M222.5785 77.7498
L222.3404 77.7498
" />
<path d="M222.3404 77.7498
L222.2452 77.7022
" />
<path d="M222.2452 77.7022
L222.1976 77.6070
" />
<path d="M222.1976 77.6070
L222.1976 77.5117
" />
<path d="M222.1976 77.5117
L222.2452 77.4165
" />
<path d="M222.2452 77.4165
L222.3404 77.3689
" />
<path d="M222.3404 77.3689
L222.5785 77.3689
" />
<path d="M222.5785 77.3689
L222.6737 77.3212
" />
<path d="M223.1499 77.7498
L223.1499 77.0832
" />
<path d="M223.1499 77.2736
L223.1976 77.1784
" />
<path d="M223.1976 77.1784
L223.2452 77.1308
" />
<path d="M223.2452 77.1308
L223.3404 77.0832
" />
<path d="M223.3404 77.0832
L223.4356 77.0832
" />
<path d="M224.1976 77.7498
L224.1976 76.7498
" />
<path d="M224.1976 77.7022
L224.1023 77.7498
" />
<path d="M224.1023 77.7498
L223.9118 77.7498
" />
<path d="M223.9118 77.7498
L223.8166 77.7022
" />
<path d="M223.8166 77.7022
L223.7690 77.6546
" />
<path d="M223.7690 77.6546
L223.7214 77.5593
" />
<path d="M223.7214 77.5593
L223.7214 77.2736
" />
<path d="M223.7214 77.2736
L223.7690 77.1784
" />
<path d="M223.7690 77.1784
L223.8166 77.1308
" />
<path d="M223.8166 77.1308
L223.9118 77.0832
" />
<path d="M223.9118 77.0832
L224.1023 77.0832
" />
<path d="M224.1023 77.0832
L224.1976 77.1308
" />
</g><text x="211.4322" y="79.4900"
transform="scale(-1 1) translate(-422.864400 0)"
textLength="24.1274" font-size="1.3333" lengthAdjust="spacingAndGlyphs"
text-anchor="start" opacity="0">https://github.com/pedalboard</text>
<g class="stroked-text"><desc>https://github.com/pedalboard</desc>
<path d="M211.7690 79.3598
L211.7690 78.3598
" />
<path d="M212.1976 79.3598
L212.1976 78.8360
" />
<path d="M212.1976 78.8360
L212.1499 78.7408
" />
<path d="M212.1499 78.7408
L212.0547 78.6932
" />
<path d="M212.0547 78.6932
L211.9118 78.6932
" />
<path d="M211.9118 78.6932
L211.8166 78.7408
" />
<path d="M211.8166 78.7408
L211.7690 78.7884
" />
<path d="M212.5309 78.6932
L212.9118 78.6932
" />
<path d="M212.6737 78.3598
L212.6737 79.2170
" />
<path d="M212.6737 79.2170
L212.7214 79.3122
" />
<path d="M212.7214 79.3122
L212.8166 79.3598
" />
<path d="M212.8166 79.3598
L212.9118 79.3598
" />
<path d="M213.1023 78.6932
L213.4833 78.6932
" />
<path d="M213.2452 78.3598
L213.2452 79.2170
" />
<path d="M213.2452 79.2170
L213.2928 79.3122
" />
<path d="M213.2928 79.3122
L213.3880 79.3598
" />
<path d="M213.3880 79.3598
L213.4833 79.3598
" />
<path d="M213.8166 78.6932
L213.8166 79.6932
" />
<path d="M213.8166 78.7408
L213.9118 78.6932
" />
<path d="M213.9118 78.6932
L214.1023 78.6932
" />
<path d="M214.1023 78.6932
L214.1976 78.7408
" />
<path d="M214.1976 78.7408
L214.2452 78.7884
" />
<path d="M214.2452 78.7884
L214.2928 78.8836
" />
<path d="M214.2928 78.8836
L214.2928 79.1693
" />
<path d="M214.2928 79.1693
L214.2452 79.2646
" />
<path d="M214.2452 79.2646
L214.1976 79.3122
" />
<path d="M214.1976 79.3122
L214.1023 79.3598
" />
<path d="M214.1023 79.3598
L213.9118 79.3598
" />
<path d="M213.9118 79.3598
L213.8166 79.3122
" />
<path d="M214.6737 79.3122
L214.7690 79.3598
" />
<path d="M214.7690 79.3598
L214.9595 79.3598
" />
<path d="M214.9595 79.3598
L215.0547 79.3122
" />
<path d="M215.0547 79.3122
L215.1023 79.2170
" />
<path d="M215.1023 79.2170
L215.1023 79.1693
" />
<path d="M215.1023 79.1693
L215.0547 79.0741
" />
<path d="M215.0547 79.0741
L214.9595 79.0265
" />
<path d="M214.9595 79.0265
L214.8166 79.0265
" />
<path d="M214.8166 79.0265
L214.7214 78.9789
" />
<path d="M214.7214 78.9789
L214.6737 78.8836
" />
<path d="M214.6737 78.8836
L214.6737 78.8360
" />
<path d="M214.6737 78.8360
L214.7214 78.7408
" />
<path d="M214.7214 78.7408
L214.8166 78.6932
" />
<path d="M214.8166 78.6932
L214.9595 78.6932
" />
<path d="M214.9595 78.6932
L215.0547 78.7408
" />
<path d="M215.5309 79.2646
L215.5785 79.3122
" />
<path d="M215.5785 79.3122
L215.5309 79.3598
" />
<path d="M215.5309 79.3598
L215.4833 79.3122
" />
<path d="M215.4833 79.3122
L215.5309 79.2646
" />
<path d="M215.5309 79.2646
L215.5309 79.3598
" />
<path d="M215.5309 78.7408
L215.5785 78.7884
" />
<path d="M215.5785 78.7884
L215.5309 78.8360
" />
<path d="M215.5309 78.8360
L215.4833 78.7884
" />
<path d="M215.4833 78.7884
L215.5309 78.7408
" />
<path d="M215.5309 78.7408
L215.5309 78.8360
" />
<path d="M216.7214 78.3122
L215.8642 79.5979
" />
<path d="M217.7690 78.3122
L216.9118 79.5979
" />
<path d="M218.5309 78.6932
L218.5309 79.5027
" />
<path d="M218.5309 79.5027
L218.4833 79.5979
" />
<path d="M218.4833 79.5979
L218.4356 79.6455
" />
<path d="M218.4356 79.6455
L218.3404 79.6932
" />
<path d="M218.3404 79.6932
L218.1976 79.6932
" />
<path d="M218.1976 79.6932
L218.1023 79.6455
" />
<path d="M218.5309 79.3122
L218.4356 79.3598
" />
<path d="M218.4356 79.3598
L218.2452 79.3598
" />
<path d="M218.2452 79.3598
L218.1499 79.3122
" />
<path d="M218.1499 79.3122
L218.1023 79.2646
" />
<path d="M218.1023 79.2646
L218.0547 79.1693
" />
<path d="M218.0547 79.1693
L218.0547 78.8836
" />
<path d="M218.0547 78.8836
L218.1023 78.7884
" />
<path d="M218.1023 78.7884
L218.1499 78.7408
" />
<path d="M218.1499 78.7408
L218.2452 78.6932
" />
<path d="M218.2452 78.6932
L218.4356 78.6932
" />
<path d="M218.4356 78.6932
L218.5309 78.7408
" />
<path d="M219.0071 79.3598
L219.0071 78.6932
" />
<path d="M219.0071 78.3598
L218.9595 78.4074
" />
<path d="M218.9595 78.4074
L219.0071 78.4551
" />
<path d="M219.0071 78.4551
L219.0547 78.4074
" />
<path d="M219.0547 78.4074
L219.0071 78.3598
" />
<path d="M219.0071 78.3598
L219.0071 78.4551
" />
<path d="M219.3404 78.6932
L219.7214 78.6932
" />
<path d="M219.4833 78.3598
L219.4833 79.2170
" />
<path d="M219.4833 79.2170
L219.5309 79.3122
" />
<path d="M219.5309 79.3122
L219.6261 79.3598
" />
<path d="M219.6261 79.3598
L219.7214 79.3598
" />
<path d="M220.0547 79.3598
L220.0547 78.3598
" />
<path d="M220.4833 79.3598
L220.4833 78.8360
" />
<path d="M220.4833 78.8360
L220.4356 78.7408
" />
<path d="M220.4356 78.7408
L220.3404 78.6932
" />
<path d="M220.3404 78.6932
L220.1976 78.6932
" />
<path d="M220.1976 78.6932
L220.1023 78.7408
" />
<path d="M220.1023 78.7408
L220.0547 78.7884
" />
<path d="M221.3880 78.6932
L221.3880 79.3598
" />
<path d="M220.9595 78.6932
L220.9595 79.2170
" />
<path d="M220.9595 79.2170
L221.0071 79.3122
" />
<path d="M221.0071 79.3122
L221.1023 79.3598
" />
<path d="M221.1023 79.3598
L221.2452 79.3598
" />
<path d="M221.2452 79.3598
L221.3404 79.3122
" />
<path d="M221.3404 79.3122
L221.3880 79.2646
" />
<path d="M221.8642 79.3598
L221.8642 78.3598
" />
<path d="M221.8642 78.7408
L221.9595 78.6932
" />
<path d="M221.9595 78.6932
L222.1499 78.6932
" />
<path d="M222.1499 78.6932
L222.2452 78.7408
" />
<path d="M222.2452 78.7408
L222.2928 78.7884
" />
<path d="M222.2928 78.7884
L222.3404 78.8836
" />
<path d="M222.3404 78.8836
L222.3404 79.1693
" />
<path d="M222.3404 79.1693
L222.2928 79.2646
" />
<path d="M222.2928 79.2646
L222.2452 79.3122
" />
<path d="M222.2452 79.3122
L222.1499 79.3598
" />
<path d="M222.1499 79.3598
L221.9595 79.3598
" />
<path d="M221.9595 79.3598
L221.8642 79.3122
" />
<path d="M222.7690 79.2646
L222.8166 79.3122
" />
<path d="M222.8166 79.3122
L222.7690 79.3598
" />
<path d="M222.7690 79.3598
L222.7214 79.3122
" />
<path d="M222.7214 79.3122
L222.7690 79.2646
" />
<path d="M222.7690 79.2646
L222.7690 79.3598
" />
<path d="M223.6737 79.3122
L223.5785 79.3598
" />
<path d="M223.5785 79.3598
L223.3880 79.3598
" />
<path d="M223.3880 79.3598
L223.2928 79.3122
" />
<path d="M223.2928 79.3122
L223.2452 79.2646
" />
<path d="M223.2452 79.2646
L223.1976 79.1693
" />
<path d="M223.1976 79.1693
L223.1976 78.8836
" />
<path d="M223.1976 78.8836
L223.2452 78.7884
" />
<path d="M223.2452 78.7884
L223.2928 78.7408
" />
<path d="M223.2928 78.7408
L223.3880 78.6932
" />
<path d="M223.3880 78.6932
L223.5785 78.6932
" />
<path d="M223.5785 78.6932
L223.6737 78.7408
" />
<path d="M224.2452 79.3598
L224.1499 79.3122
" />
<path d="M224.1499 79.3122
L224.1023 79.2646
" />
<path d="M224.1023 79.2646
L224.0547 79.1693
" />
<path d="M224.0547 79.1693
L224.0547 78.8836
" />
<path d="M224.0547 78.8836
L224.1023 78.7884
" />
<path d="M224.1023 78.7884
L224.1499 78.7408
" />
<path d="M224.1499 78.7408
L224.2452 78.6932
" />
<path d="M224.2452 78.6932
L224.3880 78.6932
" />
<path d="M224.3880 78.6932
L224.4833 78.7408
" />
<path d="M224.4833 78.7408
L224.5309 78.7884
" />
<path d="M224.5309 78.7884
L224.5785 78.8836
" />
<path d="M224.5785 78.8836
L224.5785 79.1693
" />
<path d="M224.5785 79.1693
L224.5309 79.2646
" />
<path d="M224.5309 79.2646
L224.4833 79.3122
" />
<path d="M224.4833 79.3122
L224.3880 79.3598
" />
<path d="M224.3880 79.3598
L224.2452 79.3598
" />
<path d="M225.0071 79.3598
L225.0071 78.6932
" />
<path d="M225.0071 78.7884
L225.0547 78.7408
" />
<path d="M225.0547 78.7408
L225.1499 78.6932
" />
<path d="M225.1499 78.6932
L225.2928 78.6932
" />
<path d="M225.2928 78.6932
L225.3880 78.7408
" />
<path d="M225.3880 78.7408
L225.4356 78.8360
" />
<path d="M225.4356 78.8360
L225.4356 79.3598
" />
<path d="M225.4356 78.8360
L225.4833 78.7408
" />
<path d="M225.4833 78.7408
L225.5785 78.6932
" />
<path d="M225.5785 78.6932
L225.7214 78.6932
" />
<path d="M225.7214 78.6932
L225.8166 78.7408
" />
<path d="M225.8166 78.7408
L225.8642 78.8360
" />
<path d="M225.8642 78.8360
L225.8642 79.3598
" />
<path d="M227.0547 78.3122
L226.1976 79.5979
" />
<path d="M227.3880 78.6932
L227.3880 79.6932
" />
<path d="M227.3880 78.7408
L227.4833 78.6932
" />
<path d="M227.4833 78.6932
L227.6737 78.6932
" />
<path d="M227.6737 78.6932
L227.7690 78.7408
" />
<path d="M227.7690 78.7408
L227.8166 78.7884
" />
<path d="M227.8166 78.7884
L227.8642 78.8836
" />
<path d="M227.8642 78.8836
L227.8642 79.1693
" />
<path d="M227.8642 79.1693
L227.8166 79.2646
" />
<path d="M227.8166 79.2646
L227.7690 79.3122
" />
<path d="M227.7690 79.3122
L227.6737 79.3598
" />
<path d="M227.6737 79.3598
L227.4833 79.3598
" />
<path d="M227.4833 79.3598
L227.3880 79.3122
" />
<path d="M228.6737 79.3122
L228.5785 79.3598
" />
<path d="M228.5785 79.3598
L228.3880 79.3598
" />
<path d="M228.3880 79.3598
L228.2928 79.3122
" />
<path d="M228.2928 79.3122
L228.2452 79.2170
" />
<path d="M228.2452 79.2170
L228.2452 78.8360
" />
<path d="M228.2452 78.8360
L228.2928 78.7408
" />
<path d="M228.2928 78.7408
L228.3880 78.6932
" />
<path d="M228.3880 78.6932
L228.5785 78.6932
" />
<path d="M228.5785 78.6932
L228.6737 78.7408
" />
<path d="M228.6737 78.7408
L228.7214 78.8360
" />
<path d="M228.7214 78.8360
L228.7214 78.9312
" />
<path d="M228.7214 78.9312
L228.2452 79.0265
" />
<path d="M229.5785 79.3598
L229.5785 78.3598
" />
<path d="M229.5785 79.3122
L229.4833 79.3598
" />
<path d="M229.4833 79.3598
L229.2928 79.3598
" />
<path d="M229.2928 79.3598
L229.1976 79.3122
" />
<path d="M229.1976 79.3122
L229.1499 79.2646
" />
<path d="M229.1499 79.2646
L229.1023 79.1693
" />
<path d="M229.1023 79.1693
L229.1023 78.8836
" />
<path d="M229.1023 78.8836
L229.1499 78.7884
" />
<path d="M229.1499 78.7884
L229.1976 78.7408
" />
<path d="M229.1976 78.7408
L229.2928 78.6932
" />
<path d="M229.2928 78.6932
L229.4833 78.6932
" />
<path d="M229.4833 78.6932
L229.5785 78.7408
" />
<path d="M230.4833 79.3598
L230.4833 78.8360
" />
<path d="M230.4833 78.8360
L230.4356 78.7408
" />
<path d="M230.4356 78.7408
L230.3404 78.6932
" />
<path d="M230.3404 78.6932
L230.1499 78.6932
" />
<path d="M230.1499 78.6932
L230.0547 78.7408
" />
<path d="M230.4833 79.3122
L230.3880 79.3598
" />
<path d="M230.3880 79.3598
L230.1499 79.3598
" />
<path d="M230.1499 79.3598
L230.0547 79.3122
" />
<path d="M230.0547 79.3122
L230.0071 79.2170
" />
<path d="M230.0071 79.2170
L230.0071 79.1217
" />
<path d="M230.0071 79.1217
L230.0547 79.0265
" />
<path d="M230.0547 79.0265
L230.1499 78.9789
" />
<path d="M230.1499 78.9789
L230.3880 78.9789
" />
<path d="M230.3880 78.9789
L230.4833 78.9312
" />
<path d="M231.1023 79.3598
L231.0071 79.3122
" />
<path d="M231.0071 79.3122
L230.9595 79.2170
" />
<path d="M230.9595 79.2170
L230.9595 78.3598
" />
<path d="M231.4833 79.3598
L231.4833 78.3598
" />
<path d="M231.4833 78.7408
L231.5785 78.6932
" />
<path d="M231.5785 78.6932
L231.7690 78.6932
" />
<path d="M231.7690 78.6932
L231.8642 78.7408
" />
<path d="M231.8642 78.7408
L231.9118 78.7884
" />
<path d="M231.9118 78.7884
L231.9595 78.8836
" />
<path d="M231.9595 78.8836
L231.9595 79.1693
" />
<path d="M231.9595 79.1693
L231.9118 79.2646
" />
<path d="M231.9118 79.2646
L231.8642 79.3122
" />
<path d="M231.8642 79.3122
L231.7690 79.3598
" />
<path d="M231.7690 79.3598
L231.5785 79.3598
" />
<path d="M231.5785 79.3598
L231.4833 79.3122
" />
<path d="M232.5309 79.3598
L232.4356 79.3122
" />
<path d="M232.4356 79.3122
L232.3880 79.2646
" />
<path d="M232.3880 79.2646
L232.3404 79.1693
" />
<path d="M232.3404 79.1693
L232.3404 78.8836
" />
<path d="M232.3404 78.8836
L232.3880 78.7884
" />
<path d="M232.3880 78.7884
L232.4356 78.7408
" />
<path d="M232.4356 78.7408
L232.5309 78.6932
" />
<path d="M232.5309 78.6932
L232.6737 78.6932
" />
<path d="M232.6737 78.6932
L232.7690 78.7408
" />
<path d="M232.7690 78.7408
L232.8166 78.7884
" />
<path d="M232.8166 78.7884
L232.8642 78.8836
" />
<path d="M232.8642 78.8836
L232.8642 79.1693
" />
<path d="M232.8642 79.1693
L232.8166 79.2646
" />
<path d="M232.8166 79.2646
L232.7690 79.3122
" />
<path d="M232.7690 79.3122
L232.6737 79.3598
" />
<path d="M232.6737 79.3598
L232.5309 79.3598
" />
<path d="M233.7214 79.3598
L233.7214 78.8360
" />
<path d="M233.7214 78.8360
L233.6737 78.7408
" />
<path d="M233.6737 78.7408
L233.5785 78.6932
" />
<path d="M233.5785 78.6932
L233.3880 78.6932
" />
<path d="M233.3880 78.6932
L233.2928 78.7408
" />
<path d="M233.7214 79.3122
L233.6261 79.3598
" />
<path d="M233.6261 79.3598
L233.3880 79.3598
" />
<path d="M233.3880 79.3598
L233.2928 79.3122
" />
<path d="M233.2928 79.3122
L233.2452 79.2170
" />
<path d="M233.2452 79.2170
L233.2452 79.1217
" />
<path d="M233.2452 79.1217
L233.2928 79.0265
" />
<path d="M233.2928 79.0265
L233.3880 78.9789
" />
<path d="M233.3880 78.9789
L233.6261 78.9789
" />
<path d="M233.6261 78.9789
L233.7214 78.9312
" />
<path d="M234.1976 79.3598
L234.1976 78.6932
" />
<path d="M234.1976 78.8836
L234.2452 78.7884
" />
<path d="M234.2452 78.7884
L234.2928 78.7408
" />
<path d="M234.2928 78.7408
L234.3880 78.6932
" />
<path d="M234.3880 78.6932
L234.4833 78.6932
" />
<path d="M235.2452 79.3598
L235.2452 78.3598
" />
<path d="M235.2452 79.3122
L235.1499 79.3598
" />
<path d="M235.1499 79.3598
L234.9595 79.3598
" />
<path d="M234.9595 79.3598
L234.8642 79.3122
" />
<path d="M234.8642 79.3122
L234.8166 79.2646
" />
<path d="M234.8166 79.2646
L234.7690 79.1693
" />
<path d="M234.7690 79.1693
L234.7690 78.8836
" />
<path d="M234.7690 78.8836
L234.8166 78.7884
" />
<path d="M234.8166 78.7884
L234.8642 78.7408
" />
<path d="M234.8642 78.7408
L234.9595 78.6932
" />
<path d="M234.9595 78.6932
L235.1499 78.6932
" />
<path d="M235.1499 78.6932
L235.2452 78.7408
" />
</g><text x="211.4322" y="81.1000"
transform="scale(-1 1) translate(-422.864400 0)"
textLength="8.2226" font-size="1.3333" lengthAdjust="spacingAndGlyphs"
text-anchor="start" opacity="0">BCB: 2.0.0</text>
<g class="stroked-text"><desc>BCB: 2.0.0</desc>
<path d="M212.1023 80.4460
L212.2452 80.4936
" />
<path d="M212.2452 80.4936
L212.2928 80.5412
" />
<path d="M212.2928 80.5412
L212.3404 80.6365
" />
<path d="M212.3404 80.6365
L212.3404 80.7793
" />
<path d="M212.3404 80.7793
L212.2928 80.8746
" />
<path d="M212.2928 80.8746
L212.2452 80.9222
" />
<path d="M212.2452 80.9222
L212.1499 80.9698
" />
<path d="M212.1499 80.9698
L211.7690 80.9698
" />
<path d="M211.7690 80.9698
L211.7690 79.9698
" />
<path d="M211.7690 79.9698
L212.1023 79.9698
" />
<path d="M212.1023 79.9698
L212.1976 80.0174
" />
<path d="M212.1976 80.0174
L212.2452 80.0651
" />
<path d="M212.2452 80.0651
L212.2928 80.1603
" />
<path d="M212.2928 80.1603
L212.2928 80.2555
" />
<path d="M212.2928 80.2555
L212.2452 80.3508
" />
<path d="M212.2452 80.3508
L212.1976 80.3984
" />
<path d="M212.1976 80.3984
L212.1023 80.4460
" />
<path d="M212.1023 80.4460
L211.7690 80.4460
" />
<path d="M213.3404 80.8746
L213.2928 80.9222
" />
<path d="M213.2928 80.9222
L213.1499 80.9698
" />
<path d="M213.1499 80.9698
L213.0547 80.9698
" />
<path d="M213.0547 80.9698
L212.9118 80.9222
" />
<path d="M212.9118 80.9222
L212.8166 80.8270
" />
<path d="M212.8166 80.8270
L212.7690 80.7317
" />
<path d="M212.7690 80.7317
L212.7214 80.5412
" />
<path d="M212.7214 80.5412
L212.7214 80.3984
" />
<path d="M212.7214 80.3984
L212.7690 80.2079
" />
<path d="M212.7690 80.2079
L212.8166 80.1127
" />
<path d="M212.8166 80.1127
L212.9118 80.0174
" />
<path d="M212.9118 80.0174
L213.0547 79.9698
" />
<path d="M213.0547 79.9698
L213.1499 79.9698
" />
<path d="M213.1499 79.9698
L213.2928 80.0174
" />
<path d="M213.2928 80.0174
L213.3404 80.0651
" />
<path d="M214.1023 80.4460
L214.2452 80.4936
" />
<path d="M214.2452 80.4936
L214.2928 80.5412
" />
<path d="M214.2928 80.5412
L214.3404 80.6365
" />
<path d="M214.3404 80.6365
L214.3404 80.7793
" />
<path d="M214.3404 80.7793
L214.2928 80.8746
" />
<path d="M214.2928 80.8746
L214.2452 80.9222
" />
<path d="M214.2452 80.9222
L214.1499 80.9698
" />
<path d="M214.1499 80.9698
L213.7690 80.9698
" />
<path d="M213.7690 80.9698
L213.7690 79.9698
" />
<path d="M213.7690 79.9698
L214.1023 79.9698
" />
<path d="M214.1023 79.9698
L214.1976 80.0174
" />
<path d="M214.1976 80.0174
L214.2452 80.0651
" />
<path d="M214.2452 80.0651
L214.2928 80.1603
" />
<path d="M214.2928 80.1603
L214.2928 80.2555
" />
<path d="M214.2928 80.2555
L214.2452 80.3508
" />
<path d="M214.2452 80.3508
L214.1976 80.3984
" />
<path d="M214.1976 80.3984
L214.1023 80.4460
" />
<path d="M214.1023 80.4460
L213.7690 80.4460
" />
<path d="M214.7690 80.8746
L214.8166 80.9222
" />
<path d="M214.8166 80.9222
L214.7690 80.9698
" />
<path d="M214.7690 80.9698
L214.7214 80.9222
" />
<path d="M214.7214 80.9222
L214.7690 80.8746
" />
<path d="M214.7690 80.8746
L214.7690 80.9698
" />
<path d="M214.7690 80.3508
L214.8166 80.3984
" />
<path d="M214.8166 80.3984
L214.7690 80.4460
" />
<path d="M214.7690 80.4460
L214.7214 80.3984
" />
<path d="M214.7214 80.3984
L214.7690 80.3508
" />
<path d="M214.7690 80.3508
L214.7690 80.4460
" />
<path d="M215.9595 80.0651
L216.0071 80.0174
" />
<path d="M216.0071 80.0174
L216.1023 79.9698
" />
<path d="M216.1023 79.9698
L216.3404 79.9698
" />
<path d="M216.3404 79.9698
L216.4356 80.0174
" />
<path d="M216.4356 80.0174
L216.4833 80.0651
" />
<path d="M216.4833 80.0651
L216.5309 80.1603
" />
<path d="M216.5309 80.1603
L216.5309 80.2555
" />
<path d="M216.5309 80.2555
L216.4833 80.3984
" />
<path d="M216.4833 80.3984
L215.9118 80.9698
" />
<path d="M215.9118 80.9698
L216.5309 80.9698
" />
<path d="M216.9595 80.8746
L217.0071 80.9222
" />
<path d="M217.0071 80.9222
L216.9595 80.9698
" />
<path d="M216.9595 80.9698
L216.9118 80.9222
" />
<path d="M216.9118 80.9222
L216.9595 80.8746
" />
<path d="M216.9595 80.8746
L216.9595 80.9698
" />
<path d="M217.6261 79.9698
L217.7214 79.9698
" />
<path d="M217.7214 79.9698
L217.8166 80.0174
" />
<path d="M217.8166 80.0174
L217.8642 80.0651
" />
<path d="M217.8642 80.0651
L217.9118 80.1603
" />
<path d="M217.9118 80.1603
L217.9595 80.3508
" />
<path d="M217.9595 80.3508
L217.9595 80.5889
" />
<path d="M217.9595 80.5889
L217.9118 80.7793
" />
<path d="M217.9118 80.7793
L217.8642 80.8746
" />
<path d="M217.8642 80.8746
L217.8166 80.9222
" />
<path d="M217.8166 80.9222
L217.7214 80.9698
" />
<path d="M217.7214 80.9698
L217.6261 80.9698
" />
<path d="M217.6261 80.9698
L217.5309 80.9222
" />
<path d="M217.5309 80.9222
L217.4833 80.8746
" />
<path d="M217.4833 80.8746
L217.4356 80.7793
" />
<path d="M217.4356 80.7793
L217.3880 80.5889
" />
<path d="M217.3880 80.5889
L217.3880 80.3508
" />
<path d="M217.3880 80.3508
L217.4356 80.1603
" />
<path d="M217.4356 80.1603
L217.4833 80.0651
" />
<path d="M217.4833 80.0651
L217.5309 80.0174
" />
<path d="M217.5309 80.0174
L217.6261 79.9698
" />
<path d="M218.3880 80.8746
L218.4356 80.9222
" />
<path d="M218.4356 80.9222
L218.3880 80.9698
" />
<path d="M218.3880 80.9698
L218.3404 80.9222
" />
<path d="M218.3404 80.9222
L218.3880 80.8746
" />
<path d="M218.3880 80.8746
L218.3880 80.9698
" />
<path d="M219.0547 79.9698
L219.1499 79.9698
" />
<path d="M219.1499 79.9698
L219.2452 80.0174
" />
<path d="M219.2452 80.0174
L219.2928 80.0651
" />
<path d="M219.2928 80.0651
L219.3404 80.1603
" />
<path d="M219.3404 80.1603
L219.3880 80.3508
" />
<path d="M219.3880 80.3508
L219.3880 80.5889
" />
<path d="M219.3880 80.5889
L219.3404 80.7793
" />
<path d="M219.3404 80.7793
L219.2928 80.8746
" />
<path d="M219.2928 80.8746
L219.2452 80.9222
" />
<path d="M219.2452 80.9222
L219.1499 80.9698
" />
<path d="M219.1499 80.9698
L219.0547 80.9698
" />
<path d="M219.0547 80.9698
L218.9595 80.9222
" />
<path d="M218.9595 80.9222
L218.9118 80.8746
" />
<path d="M218.9118 80.8746
L218.8642 80.7793
" />
<path d="M218.8642 80.7793
L218.8166 80.5889
" />
<path d="M218.8166 80.5889
L218.8166 80.3508
" />
<path d="M218.8166 80.3508
L218.8642 80.1603
" />
<path d="M218.8642 80.1603
L218.9118 80.0651
" />
<path d="M218.9118 80.0651
L218.9595 80.0174
" />
<path d="M218.9595 80.0174
L219.0547 79.9698
" />
</g><g transform="rotate(-270.000000 247.0022 71.3232)">
<text x="247.0022" y="71.3232"
transform="scale(-1 1) translate(-494.004400 0)"
textLength="3.9845" font-size="1.3333" lengthAdjust="spacingAndGlyphs"
text-anchor="start" opacity="0">+5V </text>
</g>
<g class="stroked-text"><desc>+5V </desc>
<path d="M246.4911 70.9864
L246.4911 70.2245
" />
<path d="M246.8720 70.6055
L246.1101 70.6055
" />
<path d="M245.8720 69.2721
L245.8720 69.7483
" />
<path d="M245.8720 69.7483
L246.3482 69.7959
" />
<path d="M246.3482 69.7959
L246.3006 69.7483
" />
<path d="M246.3006 69.7483
L246.2530 69.6531
" />
<path d="M246.2530 69.6531
L246.2530 69.4150
" />
<path d="M246.2530 69.4150
L246.3006 69.3198
" />
<path d="M246.3006 69.3198
L246.3482 69.2721
" />
<path d="M246.3482 69.2721
L246.4434 69.2245
" />
<path d="M246.4434 69.2245
L246.6815 69.2245
" />
<path d="M246.6815 69.2245
L246.7768 69.2721
" />
<path d="M246.7768 69.2721
L246.8244 69.3198
" />
<path d="M246.8244 69.3198
L246.8720 69.4150
" />
<path d="M246.8720 69.4150
L246.8720 69.6531
" />
<path d="M246.8720 69.6531
L246.8244 69.7483
" />
<path d="M246.8244 69.7483
L246.7768 69.7959
" />
<path d="M245.8720 68.9388
L246.8720 68.6055
" />
<path d="M246.8720 68.6055
L245.8720 68.2721
" />
</g><text x="231.0922" y="51.0500"
transform="scale(-1 1) translate(-462.184400 0)"
textLength="4.7179" font-size="2.0000" lengthAdjust="spacingAndGlyphs"
text-anchor="start" opacity="0">MIDI</text>
<g class="stroked-text"><desc>MIDI</desc>
<path d="M231.5480 50.8586
L231.5480 49.3586
" />
<path d="M231.5480 49.3586
L232.0480 50.4301
" />
<path d="M232.0480 50.4301
L232.5480 49.3586
" />
<path d="M232.5480 49.3586
L232.5480 50.8586
" />
<path d="M233.2623 50.8586
L233.2623 49.3586
" />
<path d="M233.9766 50.8586
L233.9766 49.3586
" />
<path d="M233.9766 49.3586
L234.3337 49.3586
" />
<path d="M234.3337 49.3586
L234.5480 49.4301
" />
<path d="M234.5480 49.4301
L234.6909 49.5729
" />
<path d="M234.6909 49.5729
L234.7623 49.7158
" />
<path d="M234.7623 49.7158
L234.8337 50.0015
" />
<path d="M234.8337 50.0015
L234.8337 50.2158
" />
<path d="M234.8337 50.2158
L234.7623 50.5015
" />
<path d="M234.7623 50.5015
L234.6909 50.6443
" />
<path d="M234.6909 50.6443
L234.5480 50.7872
" />
<path d="M234.5480 50.7872
L234.3337 50.8586
" />
<path d="M234.3337 50.8586
L233.9766 50.8586
" />
<path d="M235.4766 50.8586
L235.4766 49.3586
" />
</g><g transform="rotate(-270.000000 162.1282 45.6692)">
<text x="162.1282" y="45.6692"
transform="scale(-1 1) translate(-324.256400 0)"
textLength="1.5560" font-size="1.3333" lengthAdjust="spacingAndGlyphs"
text-anchor="start" opacity="0">in</text>
</g>
<g class="stroked-text"><desc>in</desc>
<path d="M161.9980 45.3324
L161.3314 45.3324
" />
<path d="M160.9980 45.3324
L161.0456 45.3800
" />
<path d="M161.0456 45.3800
L161.0933 45.3324
" />
<path d="M161.0933 45.3324
L161.0456 45.2848
" />
<path d="M161.0456 45.2848
L160.9980 45.3324
" />
<path d="M160.9980 45.3324
L161.0933 45.3324
" />
<path d="M161.3314 44.8562
L161.9980 44.8562
" />
<path d="M161.4266 44.8562
L161.3790 44.8086
" />
<path d="M161.3790 44.8086
L161.3314 44.7134
" />
<path d="M161.3314 44.7134
L161.3314 44.5705
" />
<path d="M161.3314 44.5705
L161.3790 44.4753
" />
<path d="M161.3790 44.4753
L161.4742 44.4277
" />
<path d="M161.4742 44.4277
L161.9980 44.4277
" />
</g><text x="247.7770" y="83.5660"
transform="scale(-1 1) translate(-495.554000 0)"
textLength="6.5083" font-size="1.3333" lengthAdjust="spacingAndGlyphs"
text-anchor="start" opacity="0">LED OUT</text>
<g class="stroked-text"><desc>LED OUT</desc>
<path d="M248.5900 83.4358
L248.1138 83.4358
" />
<path d="M248.1138 83.4358
L248.1138 82.4358
" />
<path d="M248.9233 82.9120
L249.2566 82.9120
" />
<path d="M249.3995 83.4358
L248.9233 83.4358
" />
<path d="M248.9233 83.4358
L248.9233 82.4358
" />
<path d="M248.9233 82.4358
L249.3995 82.4358
" />
<path d="M249.8281 83.4358
L249.8281 82.4358
" />
<path d="M249.8281 82.4358
L250.0662 82.4358
" />
<path d="M250.0662 82.4358
L250.2090 82.4834
" />
<path d="M250.2090 82.4834
L250.3043 82.5787
" />
<path d="M250.3043 82.5787
L250.3519 82.6739
" />
<path d="M250.3519 82.6739
L250.3995 82.8644
" />
<path d="M250.3995 82.8644
L250.3995 83.0072
" />
<path d="M250.3995 83.0072
L250.3519 83.1977
" />
<path d="M250.3519 83.1977
L250.3043 83.2930
" />
<path d="M250.3043 83.2930
L250.2090 83.3882
" />
<path d="M250.2090 83.3882
L250.0662 83.4358
" />
<path d="M250.0662 83.4358
L249.8281 83.4358
" />
<path d="M251.7804 82.4358
L251.9709 82.4358
" />
<path d="M251.9709 82.4358
L252.0662 82.4834
" />
<path d="M252.0662 82.4834
L252.1614 82.5787
" />
<path d="M252.1614 82.5787
L252.2090 82.7692
" />
<path d="M252.2090 82.7692
L252.2090 83.1025
" />
<path d="M252.2090 83.1025
L252.1614 83.2930
" />
<path d="M252.1614 83.2930
L252.0662 83.3882
" />
<path d="M252.0662 83.3882
L251.9709 83.4358
" />
<path d="M251.9709 83.4358
L251.7804 83.4358
" />
<path d="M251.7804 83.4358
L251.6852 83.3882
" />
<path d="M251.6852 83.3882
L251.5900 83.2930
" />
<path d="M251.5900 83.2930
L251.5424 83.1025
" />
<path d="M251.5424 83.1025
L251.5424 82.7692
" />
<path d="M251.5424 82.7692
L251.5900 82.5787
" />
<path d="M251.5900 82.5787
L251.6852 82.4834
" />
<path d="M251.6852 82.4834
L251.7804 82.4358
" />
<path d="M252.6376 82.4358
L252.6376 83.2453
" />
<path d="M252.6376 83.2453
L252.6852 83.3406
" />
<path d="M252.6852 83.3406
L252.7328 83.3882
" />
<path d="M252.7328 83.3882
L252.8281 83.4358
" />
<path d="M252.8281 83.4358
L253.0185 83.4358
" />
<path d="M253.0185 83.4358
L253.1138 83.3882
" />
<path d="M253.1138 83.3882
L253.1614 83.3406
" />
<path d="M253.1614 83.3406
L253.2090 83.2453
" />
<path d="M253.2090 83.2453
L253.2090 82.4358
" />
<path d="M253.5424 82.4358
L254.1138 82.4358
" />
<path d="M253.8281 83.4358
L253.8281 82.4358
" />
</g><g transform="rotate(-90.000000 114.2238 36.7792)">
<text x="114.2238" y="36.7792"
transform="scale(-1 1) translate(-228.447600 0)"
textLength="1.6988" font-size="1.3333" lengthAdjust="spacingAndGlyphs"
text-anchor="start" opacity="0">IN</text>
</g>
<g class="stroked-text"><desc>IN</desc>
<path d="M114.3540 37.1160
L115.3540 37.1160
" />
<path d="M114.3540 37.5922
L115.3540 37.5922
" />
<path d="M115.3540 37.5922
L114.3540 38.1636
" />
<path d="M114.3540 38.1636
L115.3540 38.1636
" />
</g><g transform="rotate(90.000000 229.3366 51.8668)">
<text x="229.3366" y="51.8668"
transform="scale(-1 1) translate(-458.673200 0)"
textLength="3.0321" font-size="1.3333" lengthAdjust="spacingAndGlyphs"
text-anchor="start" opacity="0">OUT</text>
</g>
<g class="stroked-text"><desc>OUT</desc>
<path d="M228.2064 51.3395
L228.2064 51.1491
" />
<path d="M228.2064 51.1491
L228.2540 51.0538
" />
<path d="M228.2540 51.0538
L228.3493 50.9586
" />
<path d="M228.3493 50.9586
L228.5398 50.9110
" />
<path d="M228.5398 50.9110
L228.8731 50.9110
" />
<path d="M228.8731 50.9110
L229.0636 50.9586
" />
<path d="M229.0636 50.9586
L229.1588 51.0538
" />
<path d="M229.1588 51.0538
L229.2064 51.1491
" />
<path d="M229.2064 51.1491
L229.2064 51.3395
" />
<path d="M229.2064 51.3395
L229.1588 51.4348
" />
<path d="M229.1588 51.4348
L229.0636 51.5300
" />
<path d="M229.0636 51.5300
L228.8731 51.5776
" />
<path d="M228.8731 51.5776
L228.5398 51.5776
" />
<path d="M228.5398 51.5776
L228.3493 51.5300
" />
<path d="M228.3493 51.5300
L228.2540 51.4348
" />
<path d="M228.2540 51.4348
L228.2064 51.3395
" />
<path d="M228.2064 50.4824
L229.0159 50.4824
" />
<path d="M229.0159 50.4824
L229.1112 50.4348
" />
<path d="M229.1112 50.4348
L229.1588 50.3872
" />
<path d="M229.1588 50.3872
L229.2064 50.2919
" />
<path d="M229.2064 50.2919
L229.2064 50.1014
" />
<path d="M229.2064 50.1014
L229.1588 50.0062
" />
<path d="M229.1588 50.0062
L229.1112 49.9586
" />
<path d="M229.1112 49.9586
L229.0159 49.9110
" />
<path d="M229.0159 49.9110
L228.2064 49.9110
" />
<path d="M228.2064 49.5776
L228.2064 49.0062
" />
<path d="M229.2064 49.2919
L228.2064 49.2919
" />
</g><g transform="rotate(-90.000000 120.6754 36.6776)">
<text x="120.6754" y="36.6776"
transform="scale(-1 1) translate(-241.350800 0)"
textLength="3.7940" font-size="1.3333" lengthAdjust="spacingAndGlyphs"
text-anchor="start" opacity="0">VREF</text>
</g>
<g class="stroked-text"><desc>VREF</desc>
<path d="M121.8056 36.8715
L120.8056 37.2049
" />
<path d="M120.8056 37.2049
L121.8056 37.5382
" />
<path d="M120.8056 38.4429
L121.2818 38.1096
" />
<path d="M120.8056 37.8715
L121.8056 37.8715
" />
<path d="M121.8056 37.8715
L121.8056 38.2525
" />
<path d="M121.8056 38.2525
L121.7580 38.3477
" />
<path d="M121.7580 38.3477
L121.7103 38.3953
" />
<path d="M121.7103 38.3953
L121.6151 38.4429
" />
<path d="M121.6151 38.4429
L121.4722 38.4429
" />
<path d="M121.4722 38.4429
L121.3770 38.3953
" />
<path d="M121.3770 38.3953
L121.3294 38.3477
" />
<path d="M121.3294 38.3477
L121.2818 38.2525
" />
<path d="M121.2818 38.2525
L121.2818 37.8715
" />
<path d="M121.3294 38.8715
L121.3294 39.2049
" />
<path d="M120.8056 39.3477
L120.8056 38.8715
" />
<path d="M120.8056 38.8715
L121.8056 38.8715
" />
<path d="M121.8056 38.8715
L121.8056 39.3477
" />
<path d="M121.3294 40.1096
L121.3294 39.7763
" />
<path d="M120.8056 39.7763
L121.8056 39.7763
" />
<path d="M121.8056 39.7763
L121.8056 40.2525
" />
</g><g transform="rotate(90.000000 159.5374 45.7708)">
<text x="159.5374" y="45.7708"
transform="scale(-1 1) translate(-319.074800 0)"
textLength="2.5560" font-size="1.3333" lengthAdjust="spacingAndGlyphs"
text-anchor="start" opacity="0">out</text>
</g>
<g class="stroked-text"><desc>out</desc>
<path d="M159.4072 45.2912
L159.3596 45.3864
" />
<path d="M159.3596 45.3864
L159.3120 45.4340
" />
<path d="M159.3120 45.4340
L159.2167 45.4816
" />
<path d="M159.2167 45.4816
L158.9310 45.4816
" />
<path d="M158.9310 45.4816
L158.8358 45.4340
" />
<path d="M158.8358 45.4340
L158.7882 45.3864
" />
<path d="M158.7882 45.3864
L158.7406 45.2912
" />
<path d="M158.7406 45.2912
L158.7406 45.1483
" />
<path d="M158.7406 45.1483
L158.7882 45.0531
" />
<path d="M158.7882 45.0531
L158.8358 45.0054
" />
<path d="M158.8358 45.0054
L158.9310 44.9578
" />
<path d="M158.9310 44.9578
L159.2167 44.9578
" />
<path d="M159.2167 44.9578
L159.3120 45.0054
" />
<path d="M159.3120 45.0054
L159.3596 45.0531
" />
<path d="M159.3596 45.0531
L159.4072 45.1483
" />
<path d="M159.4072 45.1483
L159.4072 45.2912
" />
<path d="M158.7406 44.1007
L159.4072 44.1007
" />
<path d="M158.7406 44.5293
L159.2644 44.5293
" />
<path d="M159.2644 44.5293
L159.3596 44.4816
" />
<path d="M159.3596 44.4816
L159.4072 44.3864
" />
<path d="M159.4072 44.3864
L159.4072 44.2435
" />
<path d="M159.4072 44.2435
L159.3596 44.1483
" />
<path d="M159.3596 44.1483
L159.3120 44.1007
" />
<path d="M158.7406 43.7674
L158.7406 43.3864
" />
<path d="M158.4072 43.6245
L159.2644 43.6245
" />
<path d="M159.2644 43.6245
L159.3596 43.5769
" />
<path d="M159.3596 43.5769
L159.4072 43.4816
" />
<path d="M159.4072 43.4816
L159.4072 43.3864
" />
</g><text x="247.3022" y="110.1000"
transform="scale(-1 1) translate(-494.604400 0)"
textLength="1.8893" font-size="1.3333" lengthAdjust="spacingAndGlyphs"
text-anchor="middle" opacity="0">J7</text>
<g class="stroked-text"><desc>J7</desc>
<path d="M246.9689 109.0548
L246.9689 109.7691
" />
<path d="M246.9689 109.7691
L246.9212 109.9120
" />
<path d="M246.9212 109.9120
L246.8260 110.0072
" />
<path d="M246.8260 110.0072
L246.6832 110.0548
" />
<path d="M246.6832 110.0548
L246.5879 110.0548
" />
<path d="M247.3498 109.0548
L248.0165 109.0548
" />
<path d="M248.0165 109.0548
L247.5879 110.0548
" />
</g><text x="183.3772" y="100.6100"
transform="scale(-1 1) translate(-366.754400 0)"
textLength="1.8893" font-size="1.3333" lengthAdjust="spacingAndGlyphs"
text-anchor="middle" opacity="0">J6</text>
<g class="stroked-text"><desc>J6</desc>
<path d="M183.0439 99.5648
L183.0439 100.2791
" />
<path d="M183.0439 100.2791
L182.9962 100.4220
" />
<path d="M182.9962 100.4220
L182.9010 100.5172
" />
<path d="M182.9010 100.5172
L182.7582 100.5648
" />
<path d="M182.7582 100.5648
L182.6629 100.5648
" />
<path d="M183.9486 99.5648
L183.7582 99.5648
" />
<path d="M183.7582 99.5648
L183.6629 99.6124
" />
<path d="M183.6629 99.6124
L183.6153 99.6601
" />
<path d="M183.6153 99.6601
L183.5201 99.8029
" />
<path d="M183.5201 99.8029
L183.4724 99.9934
" />
<path d="M183.4724 99.9934
L183.4724 100.3743
" />
<path d="M183.4724 100.3743
L183.5201 100.4696
" />
<path d="M183.5201 100.4696
L183.5677 100.5172
" />
<path d="M183.5677 100.5172
L183.6629 100.5648
" />
<path d="M183.6629 100.5648
L183.8534 100.5648
" />
<path d="M183.8534 100.5648
L183.9486 100.5172
" />
<path d="M183.9486 100.5172
L183.9962 100.4696
" />
<path d="M183.9962 100.4696
L184.0439 100.3743
" />
<path d="M184.0439 100.3743
L184.0439 100.1362
" />
<path d="M184.0439 100.1362
L183.9962 100.0410
" />
<path d="M183.9962 100.0410
L183.9486 99.9934
" />
<path d="M183.9486 99.9934
L183.8534 99.9458
" />
<path d="M183.8534 99.9458
L183.6629 99.9458
" />
<path d="M183.6629 99.9458
L183.5677 99.9934
" />
<path d="M183.5677 99.9934
L183.5201 100.0410
" />
<path d="M183.5201 100.0410
L183.4724 100.1362
" />
</g></g>
<g style="fill:#000000; fill-opacity:0.0; 
stroke:#000000; stroke-width:0.1000; stroke-opacity:1; 
stroke-linecap:round; stroke-linejoin:round;">
<g transform="rotate(-270.000000 214.0022 74.6400)">
<text x="214.0022" y="75.1400"
transform="scale(-1 1) translate(-428.004400 0)"
textLength="1.8595" font-size="1.3333" lengthAdjust="spacingAndGlyphs"
text-anchor="middle" opacity="0">F3</text>
</g>
<g class="stroked-text"><desc>F3</desc>
<path d="M213.9358 74.9733
L213.9358 75.3067
" />
<path d="M214.4596 75.3067
L213.4596 75.3067
" />
<path d="M213.4596 75.3067
L213.4596 74.8305
" />
<path d="M213.4596 74.5448
L213.4596 73.9257
" />
<path d="M213.4596 73.9257
L213.8406 74.2590
" />
<path d="M213.8406 74.2590
L213.8406 74.1162
" />
<path d="M213.8406 74.1162
L213.8882 74.0210
" />
<path d="M213.8882 74.0210
L213.9358 73.9733
" />
<path d="M213.9358 73.9733
L214.0310 73.9257
" />
<path d="M214.0310 73.9257
L214.2691 73.9257
" />
<path d="M214.2691 73.9257
L214.3644 73.9733
" />
<path d="M214.3644 73.9733
L214.4120 74.0210
" />
<path d="M214.4120 74.0210
L214.4596 74.1162
" />
<path d="M214.4596 74.1162
L214.4596 74.4019
" />
<path d="M214.4596 74.4019
L214.4120 74.4971
" />
<path d="M214.4120 74.4971
L214.3644 74.5448
" />
</g></g>
<g style="fill:#000000; fill-opacity:0.0; 
stroke:#000000; stroke-width:0.1500; stroke-opacity:1; 
stroke-linecap:round; stroke-linejoin:round;">
<text x="156.2422" y="59.2900"
transform="scale(-1 1) translate(-312.484400 0)"
textLength="2.8417" font-size="1.3333" lengthAdjust="spacingAndGlyphs"
text-anchor="middle" opacity="0">J14</text>
<g class="stroked-text"><desc>J14</desc>
<path d="M155.4327 58.2448
L155.4327 58.9591
" />
<path d="M155.4327 58.9591
L155.3851 59.1020
" />
<path d="M155.3851 59.1020
L155.2898 59.1972
" />
<path d="M155.2898 59.1972
L155.1470 59.2448
" />
<path d="M155.1470 59.2448
L155.0517 59.2448
" />
<path d="M156.4327 59.2448
L155.8612 59.2448
" />
<path d="M156.1470 59.2448
L156.1470 58.2448
" />
<path d="M156.1470 58.2448
L156.0517 58.3877
" />
<path d="M156.0517 58.3877
L155.9565 58.4829
" />
<path d="M155.9565 58.4829
L155.8612 58.5305
" />
<path d="M157.2898 58.5782
L157.2898 59.2448
" />
<path d="M157.0517 58.1972
L156.8136 58.9115
" />
<path d="M156.8136 58.9115
L157.4327 58.9115
" />
</g><text x="170.0022" y="46.4400"
transform="scale(-1 1) translate(-340.004400 0)"
textLength="1.8893" font-size="1.3333" lengthAdjust="spacingAndGlyphs"
text-anchor="middle" opacity="0">J5</text>
<g class="stroked-text"><desc>J5</desc>
<path d="M169.6689 45.3948
L169.6689 46.1091
" />
<path d="M169.6689 46.1091
L169.6212 46.2520
" />
<path d="M169.6212 46.2520
L169.5260 46.3472
" />
<path d="M169.5260 46.3472
L169.3832 46.3948
" />
<path d="M169.3832 46.3948
L169.2879 46.3948
" />
<path d="M170.6212 45.3948
L170.1451 45.3948
" />
<path d="M170.1451 45.3948
L170.0974 45.8710
" />
<path d="M170.0974 45.8710
L170.1451 45.8234
" />
<path d="M170.1451 45.8234
L170.2403 45.7758
" />
<path d="M170.2403 45.7758
L170.4784 45.7758
" />
<path d="M170.4784 45.7758
L170.5736 45.8234
" />
<path d="M170.5736 45.8234
L170.6212 45.8710
" />
<path d="M170.6212 45.8710
L170.6689 45.9662
" />
<path d="M170.6689 45.9662
L170.6689 46.2043
" />
<path d="M170.6689 46.2043
L170.6212 46.2996
" />
<path d="M170.6212 46.2996
L170.5736 46.3472
" />
<path d="M170.5736 46.3472
L170.4784 46.3948
" />
<path d="M170.4784 46.3948
L170.2403 46.3948
" />
<path d="M170.2403 46.3948
L170.1451 46.3472
" />
<path d="M170.1451 46.3472
L170.0974 46.2996
" />
</g><text x="221.5134" y="40.8352"
transform="scale(-1 1) translate(-443.026800 0)"
textLength="2.1750" font-size="1.3333" lengthAdjust="spacingAndGlyphs"
text-anchor="middle" opacity="0">U1</text>
<g class="stroked-text"><desc>U1</desc>
<path d="M220.7515 39.7900
L220.7515 40.5995
" />
<path d="M220.7515 40.5995
L220.7991 40.6948
" />
<path d="M220.7991 40.6948
L220.8467 40.7424
" />
<path d="M220.8467 40.7424
L220.9420 40.7900
" />
<path d="M220.9420 40.7900
L221.1324 40.7900
" />
<path d="M221.1324 40.7900
L221.2277 40.7424
" />
<path d="M221.2277 40.7424
L221.2753 40.6948
" />
<path d="M221.2753 40.6948
L221.3229 40.5995
" />
<path d="M221.3229 40.5995
L221.3229 39.7900
" />
<path d="M222.3229 40.7900
L221.7515 40.7900
" />
<path d="M222.0372 40.7900
L222.0372 39.7900
" />
<path d="M222.0372 39.7900
L221.9420 39.9329
" />
<path d="M221.9420 39.9329
L221.8467 40.0281
" />
<path d="M221.8467 40.0281
L221.7515 40.0757
" />
</g><text x="238.3790" y="83.9644"
transform="scale(-1 1) translate(-476.758000 0)"
textLength="1.8893" font-size="1.3333" lengthAdjust="spacingAndGlyphs"
text-anchor="middle" opacity="0">J4</text>
<g class="stroked-text"><desc>J4</desc>
<path d="M238.0457 82.9192
L238.0457 83.6335
" />
<path d="M238.0457 83.6335
L237.9980 83.7764
" />
<path d="M237.9980 83.7764
L237.9028 83.8716
" />
<path d="M237.9028 83.8716
L237.7600 83.9192
" />
<path d="M237.7600 83.9192
L237.6647 83.9192
" />
<path d="M238.9504 83.2526
L238.9504 83.9192
" />
<path d="M238.7123 82.8716
L238.4742 83.5859
" />
<path d="M238.4742 83.5859
L239.0933 83.5859
" />
</g><text x="173.7022" y="69.0000"
transform="scale(-1 1) translate(-347.404400 0)"
textLength="1.8893" font-size="1.3333" lengthAdjust="spacingAndGlyphs"
text-anchor="middle" opacity="0">J8</text>
<g class="stroked-text"><desc>J8</desc>
<path d="M173.3689 67.9548
L173.3689 68.6691
" />
<path d="M173.3689 68.6691
L173.3212 68.8120
" />
<path d="M173.3212 68.8120
L173.2260 68.9072
" />
<path d="M173.2260 68.9072
L173.0832 68.9548
" />
<path d="M173.0832 68.9548
L172.9879 68.9548
" />
<path d="M173.9879 68.3834
L173.8927 68.3358
" />
<path d="M173.8927 68.3358
L173.8451 68.2882
" />
<path d="M173.8451 68.2882
L173.7974 68.1929
" />
<path d="M173.7974 68.1929
L173.7974 68.1453
" />
<path d="M173.7974 68.1453
L173.8451 68.0501
" />
<path d="M173.8451 68.0501
L173.8927 68.0024
" />
<path d="M173.8927 68.0024
L173.9879 67.9548
" />
<path d="M173.9879 67.9548
L174.1784 67.9548
" />
<path d="M174.1784 67.9548
L174.2736 68.0024
" />
<path d="M174.2736 68.0024
L174.3212 68.0501
" />
<path d="M174.3212 68.0501
L174.3689 68.1453
" />
<path d="M174.3689 68.1453
L174.3689 68.1929
" />
<path d="M174.3689 68.1929
L174.3212 68.2882
" />
<path d="M174.3212 68.2882
L174.2736 68.3358
" />
<path d="M174.2736 68.3358
L174.1784 68.3834
" />
<path d="M174.1784 68.3834
L173.9879 68.3834
" />
<path d="M173.9879 68.3834
L173.8927 68.4310
" />
<path d="M173.8927 68.4310
L173.8451 68.4786
" />
<path d="M173.8451 68.4786
L173.7974 68.5739
" />
<path d="M173.7974 68.5739
L173.7974 68.7643
" />
<path d="M173.7974 68.7643
L173.8451 68.8596
" />
<path d="M173.8451 68.8596
L173.8927 68.9072
" />
<path d="M173.8927 68.9072
L173.9879 68.9548
" />
<path d="M173.9879 68.9548
L174.1784 68.9548
" />
<path d="M174.1784 68.9548
L174.2736 68.9072
" />
<path d="M174.2736 68.9072
L174.3212 68.8596
" />
<path d="M174.3212 68.8596
L174.3689 68.7643
" />
<path d="M174.3689 68.7643
L174.3689 68.5739
" />
<path d="M174.3689 68.5739
L174.3212 68.4786
" />
<path d="M174.3212 68.4786
L174.2736 68.4310
" />
<path d="M174.2736 68.4310
L174.1784 68.3834
" />
</g></g>
<g style="fill:#000000; fill-opacity:0.0; 
stroke:#000000; stroke-width:0.1000; stroke-opacity:1; 
stroke-linecap:round; stroke-linejoin:round;">
<g transform="rotate(-270.000000 207.9922 74.6400)">
<text x="207.9922" y="75.1400"
transform="scale(-1 1) translate(-415.984400 0)"
textLength="1.8595" font-size="1.3333" lengthAdjust="spacingAndGlyphs"
text-anchor="middle" opacity="0">F2</text>
</g>
<g class="stroked-text"><desc>F2</desc>
<path d="M207.9258 74.9733
L207.9258 75.3067
" />
<path d="M208.4496 75.3067
L207.4496 75.3067
" />
<path d="M207.4496 75.3067
L207.4496 74.8305
" />
<path d="M207.5449 74.4971
L207.4972 74.4495
" />
<path d="M207.4972 74.4495
L207.4496 74.3543
" />
<path d="M207.4496 74.3543
L207.4496 74.1162
" />
<path d="M207.4496 74.1162
L207.4972 74.0210
" />
<path d="M207.4972 74.0210
L207.5449 73.9733
" />
<path d="M207.5449 73.9733
L207.6401 73.9257
" />
<path d="M207.6401 73.9257
L207.7353 73.9257
" />
<path d="M207.7353 73.9257
L207.8782 73.9733
" />
<path d="M207.8782 73.9733
L208.4496 74.5448
" />
<path d="M208.4496 74.5448
L208.4496 73.9257
" />
</g></g>
<g style="fill:#000000; fill-opacity:0.0; 
stroke:#000000; stroke-width:0.1500; stroke-opacity:1; 
stroke-linecap:round; stroke-linejoin:round;">
<text x="231.1654" y="60.7996"
transform="scale(-1 1) translate(-462.330800 0)"
textLength="2.8417" font-size="1.3333" lengthAdjust="spacingAndGlyphs"
text-anchor="middle" opacity="0">J15</text>
<g class="stroked-text"><desc>J15</desc>
<path d="M230.3559 59.7544
L230.3559 60.4687
" />
<path d="M230.3559 60.4687
L230.3083 60.6116
" />
<path d="M230.3083 60.6116
L230.2130 60.7068
" />
<path d="M230.2130 60.7068
L230.0702 60.7544
" />
<path d="M230.0702 60.7544
L229.9749 60.7544
" />
<path d="M231.3559 60.7544
L230.7844 60.7544
" />
<path d="M231.0702 60.7544
L231.0702 59.7544
" />
<path d="M231.0702 59.7544
L230.9749 59.8973
" />
<path d="M230.9749 59.8973
L230.8797 59.9925
" />
<path d="M230.8797 59.9925
L230.7844 60.0401
" />
<path d="M232.2606 59.7544
L231.7844 59.7544
" />
<path d="M231.7844 59.7544
L231.7368 60.2306
" />
<path d="M231.7368 60.2306
L231.7844 60.1830
" />
<path d="M231.7844 60.1830
L231.8797 60.1354
" />
<path d="M231.8797 60.1354
L232.1178 60.1354
" />
<path d="M232.1178 60.1354
L232.2130 60.1830
" />
<path d="M232.2130 60.1830
L232.2606 60.2306
" />
<path d="M232.2606 60.2306
L232.3083 60.3258
" />
<path d="M232.3083 60.3258
L232.3083 60.5639
" />
<path d="M232.3083 60.5639
L232.2606 60.6592
" />
<path d="M232.2606 60.6592
L232.2130 60.7068
" />
<path d="M232.2130 60.7068
L232.1178 60.7544
" />
<path d="M232.1178 60.7544
L231.8797 60.7544
" />
<path d="M231.8797 60.7544
L231.7844 60.7068
" />
<path d="M231.7844 60.7068
L231.7368 60.6592
" />
</g></g>
<g style="fill:#000000; fill-opacity:0.0; 
stroke:#000000; stroke-width:0.1200; stroke-opacity:1; 
stroke-linecap:round; stroke-linejoin:round;">
<path d="M248.7422 107.6500
L248.7422 106.3200
" />
<path d="M247.4122 107.6500
L248.7422 107.6500
" />
<path d="M246.1422 107.6500
L197.8222 107.6500
" />
<path d="M246.1422 107.6500
L246.1422 105.0500
" />
<path d="M197.8222 107.6500
L197.8222 102.4500
" />
<path d="M248.7422 105.0500
L248.7422 102.4500
" />
<path d="M246.1422 105.0500
L248.7422 105.0500
" />
<path d="M248.7422 102.4500
L197.8222 102.4500
" />
</g>
<g style="fill:#000000; fill-opacity:0.0; 
stroke:#000000; stroke-width:0.1000; stroke-opacity:1; 
stroke-linecap:round; stroke-linejoin:round;">
<path d="M250.7822 125.0500
L195.7822 125.0500
" />
<path d="M195.7822 125.0500
L195.7822 85.0500
" />
<path d="M195.7822 85.0500
L250.7822 85.0500
" />
<path d="M250.7822 85.0500
L250.7822 125.0500
" />
</g>
<g style="fill:#000000; fill-opacity:0.0; 
stroke:#000000; stroke-width:0.1200; stroke-opacity:1; 
stroke-linecap:round; stroke-linejoin:round;">
<path d="M184.7072 88.8300
L182.0472 88.8300
" />
<path d="M184.7072 96.5100
L184.7072 88.8300
" />
<path d="M184.7072 96.5100
L182.0472 96.5100
" />
<path d="M184.7072 97.7800
L184.7072 99.1100
" />
<path d="M184.7072 99.1100
L183.3772 99.1100
" />
<path d="M182.0472 96.5100
L182.0472 88.8300
" />
<path d="M159.0022 58.4450
L157.7322 58.4450
" />
<path d="M157.7322 58.4450
L157.7322 57.1750
" />
<path d="M161.9222 56.1321
L161.9222 55.7350
" />
<path d="M161.1622 56.1321
L161.1622 55.7350
" />
<path d="M159.3822 56.0650
L159.3822 55.7350
" />
<path d="M158.6222 56.0650
L158.6222 55.7350
" />
<path d="M162.8722 55.7350
L162.8722 53.0750
" />
<path d="M160.2722 55.7350
L160.2722 53.0750
" />
<path d="M157.6722 55.7350
L162.8722 55.7350
" />
<path d="M162.8722 53.0750
L157.6722 53.0750
" />
<path d="M161.1622 53.0750
L161.1622 47.0750
" />
<path d="M159.2822 53.0750
L159.2822 47.0750
" />
<path d="M159.1622 53.0750
L159.1622 47.0750
" />
<path d="M159.0422 53.0750
L159.0422 47.0750
" />
<path d="M158.9222 53.0750
L158.9222 47.0750
" />
<path d="M158.8022 53.0750
L158.8022 47.0750
" />
<path d="M158.6822 53.0750
L158.6822 47.0750
" />
<path d="M158.6222 53.0750
L158.6222 47.0750
" />
<path d="M157.6722 53.0750
L157.6722 55.7350
" />
<path d="M161.9222 47.0750
L161.9222 53.0750
" />
<path d="M161.1622 47.0750
L161.9222 47.0750
" />
<path d="M159.3822 47.0750
L159.3822 53.0750
" />
<path d="M158.6222 47.0750
L159.3822 47.0750
" />
</g>
<g style="fill:#000000; fill-opacity:0.0; 
stroke:#000000; stroke-width:0.1000; stroke-opacity:1; 
stroke-linecap:round; stroke-linejoin:round;">
<circle cx="170.0022" cy="50.0062" r="0.9148" /> 
<circle cx="170.0022" cy="48.0000" r="0.9144" /> 
</g>
<g style="fill:#000000; fill-opacity:0.0; 
stroke:#000000; stroke-width:0.1200; stroke-opacity:1; 
stroke-linecap:round; stroke-linejoin:round;">
<path d="M216.7022 59.5000
L217.1022 59.5000
" />
<path d="M214.1022 59.5000
L214.5022 59.5000
" />
<path d="M211.6022 59.5000
L212.0022 59.5000
" />
<path d="M209.1022 59.5000
L209.5022 59.5000
" />
<path d="M206.5022 59.5000
L206.9022 59.5000
" />
<path d="M204.0022 59.5000
L204.4022 59.5000
" />
<path d="M201.4022 59.5000
L201.8022 59.5000
" />
<path d="M198.9022 59.5000
L199.3022 59.5000
" />
<path d="M196.3022 59.5000
L196.7022 59.5000
" />
<path d="M193.8022 59.5000
L194.2022 59.5000
" />
<path d="M191.3022 59.5000
L191.7022 59.5000
" />
<path d="M188.7022 59.5000
L189.1022 59.5000
" />
<path d="M186.2022 59.5000
L186.6022 59.5000
" />
<path d="M183.6022 59.5000
L184.0022 59.5000
" />
<path d="M181.1022 59.5000
L181.5022 59.5000
" />
<path d="M178.6022 59.5000
L179.0022 59.5000
" />
<path d="M176.0022 59.5000
L176.4022 59.5000
" />
<path d="M173.5022 59.5000
L173.9022 59.5000
" />
<path d="M171.1692 59.5000
L171.1692 56.4930
" />
<path d="M170.9022 59.5000
L171.3022 59.5000
" />
<path d="M168.5022 59.5000
L168.8022 59.5000
" />
<path d="M171.1692 56.4930
L168.5022 56.4930
" />
<path d="M219.5022 52.7000
L219.5022 59.5000
" />
<path d="M219.5022 50.5000
L219.5022 50.1000
" />
<path d="M219.5022 47.9000
L219.5022 47.5000
" />
<path d="M219.5022 38.5000
L219.5022 45.3000
" />
<path d="M216.7022 38.5000
L217.1022 38.5000
" />
<path d="M214.1022 38.5000
L214.5022 38.5000
" />
<path d="M211.6022 38.5000
L212.0022 38.5000
" />
<path d="M209.1022 38.5000
L209.5022 38.5000
" />
<path d="M206.5022 38.5000
L206.9022 38.5000
" />
<path d="M204.0022 38.5000
L204.4022 38.5000
" />
<path d="M201.4022 38.5000
L201.8022 38.5000
" />
<path d="M198.9022 38.5000
L199.3022 38.5000
" />
<path d="M196.3022 38.5000
L196.7022 38.5000
" />
<path d="M193.8022 38.5000
L194.2022 38.5000
" />
<path d="M191.3022 38.5000
L191.7022 38.5000
" />
<path d="M188.7022 38.5000
L189.1022 38.5000
" />
<path d="M186.2022 38.5000
L186.6022 38.5000
" />
<path d="M183.6022 38.5000
L184.0022 38.5000
" />
<path d="M181.1022 38.5000
L181.5022 38.5000
" />
<path d="M178.6022 38.5000
L179.0022 38.5000
" />
<path d="M176.0022 38.5000
L176.4022 38.5000
" />
<path d="M173.5022 38.5000
L173.9022 38.5000
" />
<path d="M170.9022 38.5000
L171.3022 38.5000
" />
<path d="M168.5022 38.5000
L168.8022 38.5000
" />
<path d="M241.1372 84.2326
L239.8672 84.2326
" />
<path d="M239.8672 84.2326
L239.8672 82.9626
" />
<path d="M246.5972 81.9197
L246.5972 81.5226
" />
<path d="M245.8372 81.9197
L245.8372 81.5226
" />
<path d="M244.0572 81.9197
L244.0572 81.5226
" />
<path d="M243.2972 81.9197
L243.2972 81.5226
" />
<path d="M241.5172 81.8526
L241.5172 81.5226
" />
<path d="M240.7572 81.8526
L240.7572 81.5226
" />
<path d="M247.5472 81.5226
L247.5472 78.8626
" />
<path d="M244.9472 81.5226
L244.9472 78.8626
" />
<path d="M242.4072 81.5226
L242.4072 78.8626
" />
<path d="M239.8072 81.5226
L247.5472 81.5226
" />
<path d="M247.5472 78.8626
L239.8072 78.8626
" />
<path d="M245.8372 78.8626
L245.8372 72.8626
" />
<path d="M243.2972 78.8626
L243.2972 72.8626
" />
<path d="M241.4172 78.8626
L241.4172 72.8626
" />
<path d="M241.2972 78.8626
L241.2972 72.8626
" />
<path d="M241.1772 78.8626
L241.1772 72.8626
" />
<path d="M241.0572 78.8626
L241.0572 72.8626
" />
<path d="M240.9372 78.8626
L240.9372 72.8626
" />
<path d="M240.8172 78.8626
L240.8172 72.8626
" />
<path d="M240.7572 78.8626
L240.7572 72.8626
" />
<path d="M239.8072 78.8626
L239.8072 81.5226
" />
<path d="M246.5972 72.8626
L246.5972 78.8626
" />
<path d="M245.8372 72.8626
L246.5972 72.8626
" />
<path d="M244.0572 72.8626
L244.0572 78.8626
" />
<path d="M243.2972 72.8626
L244.0572 72.8626
" />
<path d="M241.5172 72.8626
L241.5172 78.8626
" />
<path d="M240.7572 72.8626
L241.5172 72.8626
" />
</g>
<g style="fill:#000000; fill-opacity:0.0; 
stroke:#000000; stroke-width:0.1000; stroke-opacity:1; 
stroke-linecap:round; stroke-linejoin:round;">
<path d="M125.5222 63.5056
L125.5222 121.5056
" />
<path d="M129.2722 125.0056
L129.0222 125.0056
" />
</g>
<g style="fill:#000000; fill-opacity:0.0; 
stroke:#000000; stroke-width:0.1200; stroke-opacity:1; 
stroke-linecap:round; stroke-linejoin:round;">
<path d="M138.2122 123.0206
L138.2122 117.8206
" />
<path d="M139.1172 76.1156
L139.1172 81.2556
" />
<path d="M139.1172 73.5156
L139.1172 74.8456
" />
<path d="M140.4472 73.5156
L139.1172 73.5156
" />
<path d="M141.7172 76.1156
L139.1172 76.1156
" />
<path d="M141.7172 73.5156
L141.7172 76.1156
" />
<path d="M143.3522 120.4206
L143.3522 117.8206
" />
<path d="M143.3522 117.8206
L138.2122 117.8206
" />
<path d="M144.3172 81.2556
L139.1172 81.2556
" />
<path d="M144.3172 73.5156
L141.7172 73.5156
" />
<path d="M144.3172 73.5156
L144.3172 81.2556
" />
<path d="M145.9522 123.0206
L138.2122 123.0206
" />
<path d="M145.9522 123.0206
L145.9522 120.4206
" />
<path d="M145.9522 120.4206
L143.3522 120.4206
" />
<path d="M145.9522 119.1506
L145.9522 117.8206
" />
<path d="M145.9522 117.8206
L144.6222 117.8206
" />
<path d="M175.4222 69.6456
L175.4222 117.9656
" />
<path d="M175.4222 67.0456
L175.4222 68.3756
" />
<path d="M176.7522 67.0456
L175.4222 67.0456
" />
<path d="M178.0222 69.6456
L175.4222 69.6456
" />
<path d="M178.0222 67.0456
L178.0222 69.6456
" />
</g>
<g style="fill:#000000; fill-opacity:0.0; 
stroke:#000000; stroke-width:0.1000; stroke-opacity:1; 
stroke-linecap:round; stroke-linejoin:round;">
<path d="M178.0222 60.0056
L129.0222 60.0056
" />
<path d="M178.0222 60.0056
L178.5222 60.0052
" />
<path d="M178.7722 125.0056
L129.2722 125.0056
" />
</g>
<g style="fill:#000000; fill-opacity:0.0; 
stroke:#000000; stroke-width:0.1200; stroke-opacity:1; 
stroke-linecap:round; stroke-linejoin:round;">
<path d="M180.6222 117.9656
L175.4222 117.9656
" />
<path d="M180.6222 67.0456
L178.0222 67.0456
" />
<path d="M180.6222 67.0456
L180.6222 117.9656
" />
</g>
<g style="fill:#000000; fill-opacity:0.0; 
stroke:#000000; stroke-width:0.1000; stroke-opacity:1; 
stroke-linecap:round; stroke-linejoin:round;">
<path d="M182.0222 121.5056
L182.0222 63.5556
" />
<path d="M125.5222 121.5056 A3.5000 3.5000 0.0 0 0 129.0222 125.0056" />
<path d="M129.0222 60.0056 A3.5000 3.5000 0.0 0 0 125.5222 63.5056" />
<path d="M178.5222 125.0056 A3.5000 3.5000 0.0 0 0 182.0222 121.5056" />
<path d="M182.0222 63.5556 A3.5004 3.5004 0.0 0 0 178.5222 60.0052" />
<circle cx="129.0222" cy="121.5056" r="1.6510" /> 
<circle cx="129.0222" cy="63.5056" r="1.6510" /> 
<circle cx="178.0222" cy="121.5056" r="1.6510" /> 
<circle cx="178.0222" cy="63.5056" r="1.6510" /> 
</g>
<g style="fill:#000000; fill-opacity:0.0; 
stroke:#000000; stroke-width:0.1200; stroke-opacity:1; 
stroke-linecap:round; stroke-linejoin:round;">
<path d="M224.7322 52.8500
L224.7322 51.5800
" />
<path d="M224.7322 51.5800
L226.0022 51.5800
" />
<path d="M227.0451 58.3100
L227.4993 58.3100
" />
<path d="M227.0451 57.5500
L227.4993 57.5500
" />
<path d="M227.0451 55.7700
L227.4993 55.7700
" />
<path d="M227.0451 55.0100
L227.4993 55.0100
" />
<path d="M227.1122 53.2300
L227.4993 53.2300
" />
<path d="M227.1122 52.4700
L227.4993 52.4700
" />
<path d="M229.5851 58.3100
L229.9822 58.3100
" />
<path d="M229.5851 57.5500
L229.9822 57.5500
" />
<path d="M229.5851 55.7700
L229.9822 55.7700
" />
<path d="M229.5851 55.0100
L229.9822 55.0100
" />
<path d="M229.5851 53.2300
L229.9822 53.2300
" />
<path d="M229.5851 52.4700
L229.9822 52.4700
" />
<path d="M229.9822 59.2600
L232.6422 59.2600
" />
<path d="M229.9822 56.6600
L232.6422 56.6600
" />
<path d="M229.9822 54.1200
L232.6422 54.1200
" />
<path d="M229.9822 51.5200
L229.9822 59.2600
" />
<path d="M232.6422 59.2600
L232.6422 51.5200
" />
<path d="M232.6422 57.5500
L238.6422 57.5500
" />
<path d="M232.6422 55.0100
L238.6422 55.0100
" />
<path d="M232.6422 53.1300
L238.6422 53.1300
" />
<path d="M232.6422 53.0100
L238.6422 53.0100
" />
<path d="M232.6422 52.8900
L238.6422 52.8900
" />
<path d="M232.6422 52.7700
L238.6422 52.7700
" />
<path d="M232.6422 52.6500
L238.6422 52.6500
" />
<path d="M232.6422 52.5300
L238.6422 52.5300
" />
<path d="M232.6422 52.4700
L238.6422 52.4700
" />
<path d="M232.6422 51.5200
L229.9822 51.5200
" />
<path d="M238.6422 58.3100
L232.6422 58.3100
" />
<path d="M238.6422 57.5500
L238.6422 58.3100
" />
<path d="M238.6422 55.7700
L232.6422 55.7700
" />
<path d="M238.6422 55.0100
L238.6422 55.7700
" />
<path d="M238.6422 53.2300
L232.6422 53.2300
" />
<path d="M238.6422 52.4700
L238.6422 53.2300
" />
<g >
</g>
<g >
</g>
<g >
</g>
<g >
</g>
<g >
</g>
<g >
</g>
<g >
</g>
<g >
</g>
<g >
</g>
<g >
</g>
<g >
</g>
<g >
</g>
<g >
</g>
<g >
</g>
<g >
</g>
<g >
</g>
<g >
</g>
<g >
</g>
<g >
</g>
<g >
</g>
<g >
</g>
<g >
</g>
<g >
</g>
<g >
</g>
<g >
</g>
<g >
</g>
<g >
</g>
<g >
</g>
<g >
</g>
<g >
</g>
<g >
</g>
<g >
</g>
<g >
</g>
<g >
</g>
<g >
</g>
<g >
</g>
<g >
</g>
<g >
</g>
<g >
</g>
<g >
</g>
<g >
</g>
<g >
</g>
<g >
</g>
<g >
</g>
<g >
</g>
<g >
</g>
<g >
</g>
<g >
</g>
<g >
</g>
<g >
</g>
<g >
</g>
<g >
</g>
<g >
</g>
<g >
</g>
<g >
</g>
<g >
</g>
<g >
</g>
<g >
</g>
<g >
</g>
<g >
</g>
<g >
</g>
<g >
</g>
<g >
</g>
<g >
</g>
<g >
</g>
<g >
</g>
<g >
</g>
<g >
</g>
<g >
</g>
<g >
</g>
<g >
</g>
<g >
</g>
<g >
</g>
<g >
</g>
<g >
</g>
<g >
</g>
<g >
</g>
<g >
</g>
<g >
</g>
<g >
</g>
<g >
</g>
<g >
</g>
<g >
</g>
<g >
</g>
<g >
</g>
<g >
</g>
<g >
</g>
<g >
</g>
<g >
</g>
<g >
</g>
<g >
</g>
<g >
</g>
<g >
</g>
<g >
</g>
<g >
</g>
<g >
</g>
<g >
</g>
</g> 
</svg>
