<?xml version="1.0" standalone="no"?>
 <!DOCTYPE svg PUBLIC "-//W3C//DTD SVG 1.1//EN" 
 "http://www.w3.org/Graphics/SVG/1.1/DTD/svg11.dtd"> 
<svg
  xmlns:svg="http://www.w3.org/2000/svg"
  xmlns="http://www.w3.org/2000/svg"
  xmlns:xlink="http://www.w3.org/1999/xlink"
  version="1.1"
  width="297.0022mm" height="210.0072mm" viewBox="0.0000 0.0000 297.0022 210.0072">
<title>SVG Image created as pedalboard-hw-B_Courtyard.svg date 2023/10/13 09:26:19 </title>
  <desc>Image generated by PCBNEW </desc>
<g style="fill:#000000; fill-opacity:1.0000;stroke:#000000; stroke-opacity:1.0000;
stroke-linecap:round; stroke-linejoin:round;"
 transform="translate(0 0) scale(1 1)">
</g>
<g style="fill:#000000; fill-opacity:0.0; 
stroke:#000000; stroke-width:0.0000; stroke-opacity:1; 
stroke-linecap:round; stroke-linejoin:round;">
</g>
<g style="fill:#000000; fill-opacity:0.0; 
stroke:#000000; stroke-width:0.0500; stroke-opacity:1; 
stroke-linecap:round; stroke-linejoin:round;">
<path d="M249.2122 108.1200
L197.3622 108.1200
" />
<path d="M197.3622 108.1200
L197.3622 101.9700
" />
<path d="M249.2122 101.9700
L249.2122 108.1200
" />
<path d="M197.3622 101.9700
L249.2122 101.9700
" />
<path d="M185.1772 88.3800
L181.5772 88.3800
" />
<path d="M185.1772 99.5800
L185.1772 88.3800
" />
<path d="M181.5772 88.3800
L181.5772 99.5800
" />
<path d="M181.5772 99.5800
L185.1772 99.5800
" />
<path d="M163.7272 55.5000
L151.3772 55.5000
" />
<path d="M163.7272 61.6500
L163.7272 55.5000
" />
<path d="M151.3772 55.5000
L151.3772 61.6500
" />
<path d="M151.3772 61.6500
L163.7272 61.6500
" />
<circle cx="170.0003" cy="50.0066" r="0.9652" /> 
<circle cx="170.0022" cy="48.0000" r="0.9655" /> 
<path d="M208.7522 76.5500
L211.2522 76.5500
" />
<path d="M208.7522 76.5500
L208.7522 73.2500
" />
<path d="M211.2522 73.2500
L211.2522 76.5500
" />
<path d="M211.2522 73.2500
L208.7522 73.2500
" />
</g>
<g style="fill:#000000; fill-opacity:0.0; 
stroke:#000000; stroke-width:0.1200; stroke-opacity:1; 
stroke-linecap:round; stroke-linejoin:round;">
<path d="M220.0022 60.0000
L168.0022 60.0000
" />
<path d="M168.0022 60.0000
L168.0022 38.0000
" />
<path d="M220.0022 38.0000
L220.0022 60.0000
" />
<path d="M168.0022 38.0000
L220.0022 38.0000
" />
</g>
<g style="fill:#000000; fill-opacity:0.0; 
stroke:#000000; stroke-width:0.0500; stroke-opacity:1; 
stroke-linecap:round; stroke-linejoin:round;">
<path d="M244.4522 32.3750
L255.3522 32.3750
" />
<path d="M244.4522 25.6250
L244.4522 32.3750
" />
<path d="M255.3522 32.3750
L255.3522 25.6250
" />
<path d="M255.3522 25.6250
L244.4522 25.6250
" />
<path d="M211.2522 76.5500
L213.7522 76.5500
" />
<path d="M211.2522 76.5500
L211.2522 73.2500
" />
<path d="M213.7522 73.2500
L213.7522 76.5500
" />
<path d="M213.7522 73.2500
L211.2522 73.2500
" />
<path d="M251.1522 131.0000
L262.0522 131.0000
" />
<path d="M251.1522 124.2500
L251.1522 131.0000
" />
<path d="M262.0522 131.0000
L262.0522 124.2500
" />
<path d="M262.0522 124.2500
L251.1522 124.2500
" />
<path d="M137.7722 123.4906
L146.4222 123.4906
" />
<path d="M137.7722 117.3906
L137.7722 123.4906
" />
<path d="M138.6872 81.6956
L144.7872 81.6956
" />
<path d="M138.6872 73.0456
L138.6872 81.6956
" />
<path d="M144.7872 81.6956
L144.7872 73.0456
" />
<path d="M144.7872 73.0456
L138.6872 73.0456
" />
<path d="M146.4222 123.4906
L146.4222 117.3906
" />
<path d="M146.4222 117.3906
L137.7722 117.3906
" />
<path d="M174.9922 118.3756
L181.0922 118.3756
" />
<path d="M174.9922 66.5756
L174.9922 118.3756
" />
<path d="M181.0922 118.3756
L181.0922 66.5756
" />
<path d="M181.0922 66.5756
L174.9922 66.5756
" />
<path d="M244.4522 40.1250
L255.3522 40.1250
" />
<path d="M244.4522 33.3750
L244.4522 40.1250
" />
<path d="M255.3522 40.1250
L255.3522 33.3750
" />
<path d="M255.3522 33.3750
L244.4522 33.3750
" />
<g >
</g>
<g >
</g>
<g >
</g>
<g >
</g>
<g >
</g>
<g >
</g>
<g >
</g>
<g >
</g>
<g >
</g>
<g >
</g>
<g >
</g>
<g >
</g>
<g >
</g>
<g >
</g>
<g >
</g>
<g >
</g>
<g >
</g>
<g >
</g>
<g >
</g>
<g >
</g>
<g >
</g>
<g >
</g>
<g >
</g>
<g >
</g>
<g >
</g>
<g >
</g>
<g >
</g>
<g >
</g>
<g >
</g>
<g >
</g>
<g >
</g>
<g >
</g>
<g >
</g>
<g >
</g>
<g >
</g>
<g >
</g>
<g >
</g>
<g >
</g>
<g >
</g>
<g >
</g>
<g >
</g>
<g >
</g>
<g >
</g>
<g >
</g>
<g >
</g>
<g >
</g>
<g >
</g>
<g >
</g>
<g >
</g>
<g >
</g>
<g >
</g>
<g >
</g>
<g >
</g>
<g >
</g>
<g >
</g>
<g >
</g>
<g >
</g>
<g >
</g>
<g >
</g>
<g >
</g>
<g >
</g>
<g >
</g>
<g >
</g>
<g >
</g>
<g >
</g>
<g >
</g>
<g >
</g>
<g >
</g>
<g >
</g>
<g >
</g>
<g >
</g>
<g >
</g>
<g >
</g>
<g >
</g>
<g >
</g>
<g >
</g>
<g >
</g>
<g >
</g>
<g >
</g>
<g >
</g>
<g >
</g>
<g >
</g>
<g >
</g>
<g >
</g>
<g >
</g>
<g >
</g>
</g> 
</svg>
