<?xml version="1.0" standalone="no"?>
 <!DOCTYPE svg PUBLIC "-//W3C//DTD SVG 1.1//EN" 
 "http://www.w3.org/Graphics/SVG/1.1/DTD/svg11.dtd"> 
<svg
  xmlns:svg="http://www.w3.org/2000/svg"
  xmlns="http://www.w3.org/2000/svg"
  xmlns:xlink="http://www.w3.org/1999/xlink"
  version="1.1"
  width="297.0022mm" height="210.0072mm" viewBox="0.0000 0.0000 297.0022 210.0072">
<title>SVG Image created as pedalboard-hw-User_Drawings.svg date 2023/10/13 09:26:19 </title>
  <desc>Image generated by PCBNEW </desc>
<g style="fill:#000000; fill-opacity:1.0000;stroke:#000000; stroke-opacity:1.0000;
stroke-linecap:round; stroke-linejoin:round;"
 transform="translate(0 0) scale(1 1)">
</g>
<g style="fill:#000000; fill-opacity:0.0; 
stroke:#000000; stroke-width:0.0000; stroke-opacity:1; 
stroke-linecap:round; stroke-linejoin:round;">
</g>
<g style="fill:#000000; fill-opacity:0.0; 
stroke:#000000; stroke-width:0.0500; stroke-opacity:1; 
stroke-linecap:round; stroke-linejoin:round;">
<path style="fill:#000000; fill-opacity:0.0; 
stroke:#000000; stroke-width:0.0500; stroke-opacity:1; 
stroke-linecap:round; stroke-linejoin:round;fill:none"
d="M 281.6322,19.5000
102.3722,19.5000
102.3722,131.7600
281.6322,131.7600
Z" /> 
</g>
<g style="fill:#000000; fill-opacity:0.0; 
stroke:#000000; stroke-width:0.1500; stroke-opacity:1; 
stroke-linecap:round; stroke-linejoin:round;">
<text x="117.0022" y="13.9500"
textLength="5.5833" font-size="1.3333" lengthAdjust="spacingAndGlyphs"
text-anchor="middle" opacity="0">24 mm</text>
<g class="stroked-text"><desc>24 mm</desc>
<path d="M119.4784 13.0001
L119.4308 12.9524
" />
<path d="M119.4308 12.9524
L119.3355 12.9048
" />
<path d="M119.3355 12.9048
L119.0974 12.9048
" />
<path d="M119.0974 12.9048
L119.0022 12.9524
" />
<path d="M119.0022 12.9524
L118.9546 13.0001
" />
<path d="M118.9546 13.0001
L118.9070 13.0953
" />
<path d="M118.9070 13.0953
L118.9070 13.1905
" />
<path d="M118.9070 13.1905
L118.9546 13.3334
" />
<path d="M118.9546 13.3334
L119.5260 13.9048
" />
<path d="M119.5260 13.9048
L118.9070 13.9048
" />
<path d="M118.0498 13.2382
L118.0498 13.9048
" />
<path d="M118.2879 12.8572
L118.5260 13.5715
" />
<path d="M118.5260 13.5715
L117.9070 13.5715
" />
<path d="M116.7641 13.9048
L116.7641 13.2382
" />
<path d="M116.7641 13.3334
L116.7165 13.2858
" />
<path d="M116.7165 13.2858
L116.6212 13.2382
" />
<path d="M116.6212 13.2382
L116.4784 13.2382
" />
<path d="M116.4784 13.2382
L116.3832 13.2858
" />
<path d="M116.3832 13.2858
L116.3355 13.3810
" />
<path d="M116.3355 13.3810
L116.3355 13.9048
" />
<path d="M116.3355 13.3810
L116.2879 13.2858
" />
<path d="M116.2879 13.2858
L116.1927 13.2382
" />
<path d="M116.1927 13.2382
L116.0498 13.2382
" />
<path d="M116.0498 13.2382
L115.9546 13.2858
" />
<path d="M115.9546 13.2858
L115.9070 13.3810
" />
<path d="M115.9070 13.3810
L115.9070 13.9048
" />
<path d="M115.4308 13.9048
L115.4308 13.2382
" />
<path d="M115.4308 13.3334
L115.3832 13.2858
" />
<path d="M115.3832 13.2858
L115.2879 13.2382
" />
<path d="M115.2879 13.2382
L115.1451 13.2382
" />
<path d="M115.1451 13.2382
L115.0498 13.2858
" />
<path d="M115.0498 13.2858
L115.0022 13.3810
" />
<path d="M115.0022 13.3810
L115.0022 13.9048
" />
<path d="M115.0022 13.3810
L114.9546 13.2858
" />
<path d="M114.9546 13.2858
L114.8593 13.2382
" />
<path d="M114.8593 13.2382
L114.7165 13.2382
" />
<path d="M114.7165 13.2382
L114.6212 13.2858
" />
<path d="M114.6212 13.2858
L114.5736 13.3810
" />
<path d="M114.5736 13.3810
L114.5736 13.9048
" />
</g><path d="M129.0022 22.5000
L129.0022 14.0136
" />
<path d="M105.0022 22.5000
L105.0022 14.0136
" />
<path d="M129.0022 14.6000
L105.0022 14.6000
" />
<path d="M129.0022 14.6000
L105.0022 14.6000
" />
<path d="M129.0022 14.6000
L127.8757 14.0136
" />
<path d="M129.0022 14.6000
L127.8757 15.1864
" />
<path d="M105.0022 14.6000
L106.1287 15.1864
" />
<path d="M105.0022 14.6000
L106.1287 14.0136
" />
<g transform="rotate(-90.000000 93.9522 118.4000)">
<text x="93.9522" y="118.9000"
textLength="5.5833" font-size="1.3333" lengthAdjust="spacingAndGlyphs"
text-anchor="middle" opacity="0">12 mm</text>
</g>
<g class="stroked-text"><desc>12 mm</desc>
<path d="M93.4974 120.3048
L93.4974 120.8762
" />
<path d="M93.4974 120.5905
L94.4974 120.5905
" />
<path d="M94.4974 120.5905
L94.3545 120.6857
" />
<path d="M94.3545 120.6857
L94.2593 120.7810
" />
<path d="M94.2593 120.7810
L94.2117 120.8762
" />
<path d="M94.4021 119.9238
L94.4498 119.8762
" />
<path d="M94.4498 119.8762
L94.4974 119.7810
" />
<path d="M94.4974 119.7810
L94.4974 119.5429
" />
<path d="M94.4974 119.5429
L94.4498 119.4476
" />
<path d="M94.4498 119.4476
L94.4021 119.4000
" />
<path d="M94.4021 119.4000
L94.3069 119.3524
" />
<path d="M94.3069 119.3524
L94.2117 119.3524
" />
<path d="M94.2117 119.3524
L94.0688 119.4000
" />
<path d="M94.0688 119.4000
L93.4974 119.9714
" />
<path d="M93.4974 119.9714
L93.4974 119.3524
" />
<path d="M93.4974 118.1619
L94.1640 118.1619
" />
<path d="M94.0688 118.1619
L94.1164 118.1143
" />
<path d="M94.1164 118.1143
L94.1640 118.0190
" />
<path d="M94.1640 118.0190
L94.1640 117.8762
" />
<path d="M94.1640 117.8762
L94.1164 117.7810
" />
<path d="M94.1164 117.7810
L94.0212 117.7333
" />
<path d="M94.0212 117.7333
L93.4974 117.7333
" />
<path d="M94.0212 117.7333
L94.1164 117.6857
" />
<path d="M94.1164 117.6857
L94.1640 117.5905
" />
<path d="M94.1640 117.5905
L94.1640 117.4476
" />
<path d="M94.1640 117.4476
L94.1164 117.3524
" />
<path d="M94.1164 117.3524
L94.0212 117.3048
" />
<path d="M94.0212 117.3048
L93.4974 117.3048
" />
<path d="M93.4974 116.8286
L94.1640 116.8286
" />
<path d="M94.0688 116.8286
L94.1164 116.7810
" />
<path d="M94.1164 116.7810
L94.1640 116.6857
" />
<path d="M94.1640 116.6857
L94.1640 116.5429
" />
<path d="M94.1640 116.5429
L94.1164 116.4476
" />
<path d="M94.1164 116.4476
L94.0212 116.4000
" />
<path d="M94.0212 116.4000
L93.4974 116.4000
" />
<path d="M94.0212 116.4000
L94.1164 116.3524
" />
<path d="M94.1164 116.3524
L94.1640 116.2571
" />
<path d="M94.1640 116.2571
L94.1640 116.1143
" />
<path d="M94.1640 116.1143
L94.1164 116.0190
" />
<path d="M94.1164 116.0190
L94.0212 115.9714
" />
<path d="M94.0212 115.9714
L93.4974 115.9714
" />
</g><path d="M116.8422 119.0000
L97.4158 119.0000
" />
<path d="M116.8422 131.0000
L97.4158 131.0000
" />
<path d="M98.0022 119.0000
L98.0022 131.0000
" />
<path d="M98.0022 119.0000
L98.0022 131.0000
" />
<path d="M98.0022 119.0000
L97.4158 120.1265
" />
<path d="M98.0022 119.0000
L98.5886 120.1265
" />
<path d="M98.0022 131.0000
L98.5886 129.8735
" />
<path d="M98.0022 131.0000
L97.4158 129.8735
" />
<g transform="rotate(-90.000000 246.3716 22.5000)">
<text x="246.3716" y="23.0000"
textLength="4.6310" font-size="1.3333" lengthAdjust="spacingAndGlyphs"
text-anchor="middle" opacity="0">3 mm</text>
</g>
<g class="stroked-text"><desc>3 mm</desc>
<path d="M246.9168 24.5476
L246.9168 23.9286
" />
<path d="M246.9168 23.9286
L246.5358 24.2619
" />
<path d="M246.5358 24.2619
L246.5358 24.1190
" />
<path d="M246.5358 24.1190
L246.4882 24.0238
" />
<path d="M246.4882 24.0238
L246.4406 23.9762
" />
<path d="M246.4406 23.9762
L246.3453 23.9286
" />
<path d="M246.3453 23.9286
L246.1072 23.9286
" />
<path d="M246.1072 23.9286
L246.0120 23.9762
" />
<path d="M246.0120 23.9762
L245.9644 24.0238
" />
<path d="M245.9644 24.0238
L245.9168 24.1190
" />
<path d="M245.9168 24.1190
L245.9168 24.4048
" />
<path d="M245.9168 24.4048
L245.9644 24.5000
" />
<path d="M245.9644 24.5000
L246.0120 24.5476
" />
<path d="M245.9168 22.7381
L246.5834 22.7381
" />
<path d="M246.4882 22.7381
L246.5358 22.6905
" />
<path d="M246.5358 22.6905
L246.5834 22.5952
" />
<path d="M246.5834 22.5952
L246.5834 22.4524
" />
<path d="M246.5834 22.4524
L246.5358 22.3571
" />
<path d="M246.5358 22.3571
L246.4406 22.3095
" />
<path d="M246.4406 22.3095
L245.9168 22.3095
" />
<path d="M246.4406 22.3095
L246.5358 22.2619
" />
<path d="M246.5358 22.2619
L246.5834 22.1667
" />
<path d="M246.5834 22.1667
L246.5834 22.0238
" />
<path d="M246.5834 22.0238
L246.5358 21.9286
" />
<path d="M246.5358 21.9286
L246.4406 21.8810
" />
<path d="M246.4406 21.8810
L245.9168 21.8810
" />
<path d="M245.9168 21.4048
L246.5834 21.4048
" />
<path d="M246.4882 21.4048
L246.5358 21.3571
" />
<path d="M246.5358 21.3571
L246.5834 21.2619
" />
<path d="M246.5834 21.2619
L246.5834 21.1190
" />
<path d="M246.5834 21.1190
L246.5358 21.0238
" />
<path d="M246.5358 21.0238
L246.4406 20.9762
" />
<path d="M246.4406 20.9762
L245.9168 20.9762
" />
<path d="M246.4406 20.9762
L246.5358 20.9286
" />
<path d="M246.5358 20.9286
L246.5834 20.8333
" />
<path d="M246.5834 20.8333
L246.5834 20.6905
" />
<path d="M246.5834 20.6905
L246.5358 20.5952
" />
<path d="M246.5358 20.5952
L246.4406 20.5476
" />
<path d="M246.4406 20.5476
L245.9168 20.5476
" />
</g></g>
<g style="fill:#000000; fill-opacity:0.0; 
stroke:#000000; stroke-width:0.1000; stroke-opacity:1; 
stroke-linecap:round; stroke-linejoin:round;">
<path d="M255.0022 23.0000
L247.9158 23.0000
" />
<path d="M255.0022 20.0000
L247.9158 20.0000
" />
<path d="M248.5022 23.0000
L248.5022 20.0000
" />
<path d="M248.5022 23.0000
L248.5022 20.0000
" />
<path d="M248.5022 23.0000
L249.0886 21.8735
" />
<path d="M248.5022 23.0000
L247.9158 21.8735
" />
<path d="M248.5022 20.0000
L247.9158 21.1265
" />
<path d="M248.5022 20.0000
L249.0886 21.1265
" />
</g>
<g style="fill:#000000; fill-opacity:0.0; 
stroke:#000000; stroke-width:0.1500; stroke-opacity:1; 
stroke-linecap:round; stroke-linejoin:round;">
<text x="192.0022" y="16.8500"
textLength="5.5833" font-size="1.3333" lengthAdjust="spacingAndGlyphs"
text-anchor="middle" opacity="0">50 mm</text>
<g class="stroked-text"><desc>50 mm</desc>
<path d="M193.9546 15.8048
L194.4308 15.8048
" />
<path d="M194.4308 15.8048
L194.4784 16.2810
" />
<path d="M194.4784 16.2810
L194.4308 16.2334
" />
<path d="M194.4308 16.2334
L194.3355 16.1858
" />
<path d="M194.3355 16.1858
L194.0974 16.1858
" />
<path d="M194.0974 16.1858
L194.0022 16.2334
" />
<path d="M194.0022 16.2334
L193.9546 16.2810
" />
<path d="M193.9546 16.2810
L193.9070 16.3762
" />
<path d="M193.9070 16.3762
L193.9070 16.6143
" />
<path d="M193.9070 16.6143
L193.9546 16.7096
" />
<path d="M193.9546 16.7096
L194.0022 16.7572
" />
<path d="M194.0022 16.7572
L194.0974 16.8048
" />
<path d="M194.0974 16.8048
L194.3355 16.8048
" />
<path d="M194.3355 16.8048
L194.4308 16.7572
" />
<path d="M194.4308 16.7572
L194.4784 16.7096
" />
<path d="M193.2879 15.8048
L193.1927 15.8048
" />
<path d="M193.1927 15.8048
L193.0974 15.8524
" />
<path d="M193.0974 15.8524
L193.0498 15.9001
" />
<path d="M193.0498 15.9001
L193.0022 15.9953
" />
<path d="M193.0022 15.9953
L192.9546 16.1858
" />
<path d="M192.9546 16.1858
L192.9546 16.4239
" />
<path d="M192.9546 16.4239
L193.0022 16.6143
" />
<path d="M193.0022 16.6143
L193.0498 16.7096
" />
<path d="M193.0498 16.7096
L193.0974 16.7572
" />
<path d="M193.0974 16.7572
L193.1927 16.8048
" />
<path d="M193.1927 16.8048
L193.2879 16.8048
" />
<path d="M193.2879 16.8048
L193.3832 16.7572
" />
<path d="M193.3832 16.7572
L193.4308 16.7096
" />
<path d="M193.4308 16.7096
L193.4784 16.6143
" />
<path d="M193.4784 16.6143
L193.5260 16.4239
" />
<path d="M193.5260 16.4239
L193.5260 16.1858
" />
<path d="M193.5260 16.1858
L193.4784 15.9953
" />
<path d="M193.4784 15.9953
L193.4308 15.9001
" />
<path d="M193.4308 15.9001
L193.3832 15.8524
" />
<path d="M193.3832 15.8524
L193.2879 15.8048
" />
<path d="M191.7641 16.8048
L191.7641 16.1382
" />
<path d="M191.7641 16.2334
L191.7165 16.1858
" />
<path d="M191.7165 16.1858
L191.6212 16.1382
" />
<path d="M191.6212 16.1382
L191.4784 16.1382
" />
<path d="M191.4784 16.1382
L191.3832 16.1858
" />
<path d="M191.3832 16.1858
L191.3355 16.2810
" />
<path d="M191.3355 16.2810
L191.3355 16.8048
" />
<path d="M191.3355 16.2810
L191.2879 16.1858
" />
<path d="M191.2879 16.1858
L191.1927 16.1382
" />
<path d="M191.1927 16.1382
L191.0498 16.1382
" />
<path d="M191.0498 16.1382
L190.9546 16.1858
" />
<path d="M190.9546 16.1858
L190.9070 16.2810
" />
<path d="M190.9070 16.2810
L190.9070 16.8048
" />
<path d="M190.4308 16.8048
L190.4308 16.1382
" />
<path d="M190.4308 16.2334
L190.3832 16.1858
" />
<path d="M190.3832 16.1858
L190.2879 16.1382
" />
<path d="M190.2879 16.1382
L190.1451 16.1382
" />
<path d="M190.1451 16.1382
L190.0498 16.1858
" />
<path d="M190.0498 16.1858
L190.0022 16.2810
" />
<path d="M190.0022 16.2810
L190.0022 16.8048
" />
<path d="M190.0022 16.2810
L189.9546 16.1858
" />
<path d="M189.9546 16.1858
L189.8593 16.1382
" />
<path d="M189.8593 16.1382
L189.7165 16.1382
" />
<path d="M189.7165 16.1382
L189.6212 16.1858
" />
<path d="M189.6212 16.1858
L189.5736 16.2810
" />
<path d="M189.5736 16.2810
L189.5736 16.8048
" />
</g><path d="M217.0022 19.4944
L217.0022 16.9136
" />
<path d="M167.0022 19.4944
L167.0022 16.9136
" />
<path d="M217.0022 17.5000
L167.0022 17.5000
" />
<path d="M217.0022 17.5000
L167.0022 17.5000
" />
<path d="M217.0022 17.5000
L215.8757 16.9136
" />
<path d="M217.0022 17.5000
L215.8757 18.0864
" />
<path d="M167.0022 17.5000
L168.1287 18.0864
" />
<path d="M167.0022 17.5000
L168.1287 16.9136
" />
<text x="192.0022" y="139.3500"
textLength="8.9167" font-size="1.3333" lengthAdjust="spacingAndGlyphs"
text-anchor="middle" opacity="0">180.84 mm</text>
<g class="stroked-text"><desc>180.84 mm</desc>
<path d="M195.5736 139.3048
L196.1451 139.3048
" />
<path d="M195.8593 139.3048
L195.8593 138.3048
" />
<path d="M195.8593 138.3048
L195.9546 138.4477
" />
<path d="M195.9546 138.4477
L196.0498 138.5429
" />
<path d="M196.0498 138.5429
L196.1451 138.5905
" />
<path d="M195.0022 138.7334
L195.0974 138.6858
" />
<path d="M195.0974 138.6858
L195.1451 138.6382
" />
<path d="M195.1451 138.6382
L195.1927 138.5429
" />
<path d="M195.1927 138.5429
L195.1927 138.4953
" />
<path d="M195.1927 138.4953
L195.1451 138.4001
" />
<path d="M195.1451 138.4001
L195.0974 138.3524
" />
<path d="M195.0974 138.3524
L195.0022 138.3048
" />
<path d="M195.0022 138.3048
L194.8117 138.3048
" />
<path d="M194.8117 138.3048
L194.7165 138.3524
" />
<path d="M194.7165 138.3524
L194.6689 138.4001
" />
<path d="M194.6689 138.4001
L194.6212 138.4953
" />
<path d="M194.6212 138.4953
L194.6212 138.5429
" />
<path d="M194.6212 138.5429
L194.6689 138.6382
" />
<path d="M194.6689 138.6382
L194.7165 138.6858
" />
<path d="M194.7165 138.6858
L194.8117 138.7334
" />
<path d="M194.8117 138.7334
L195.0022 138.7334
" />
<path d="M195.0022 138.7334
L195.0974 138.7810
" />
<path d="M195.0974 138.7810
L195.1451 138.8286
" />
<path d="M195.1451 138.8286
L195.1927 138.9239
" />
<path d="M195.1927 138.9239
L195.1927 139.1143
" />
<path d="M195.1927 139.1143
L195.1451 139.2096
" />
<path d="M195.1451 139.2096
L195.0974 139.2572
" />
<path d="M195.0974 139.2572
L195.0022 139.3048
" />
<path d="M195.0022 139.3048
L194.8117 139.3048
" />
<path d="M194.8117 139.3048
L194.7165 139.2572
" />
<path d="M194.7165 139.2572
L194.6689 139.2096
" />
<path d="M194.6689 139.2096
L194.6212 139.1143
" />
<path d="M194.6212 139.1143
L194.6212 138.9239
" />
<path d="M194.6212 138.9239
L194.6689 138.8286
" />
<path d="M194.6689 138.8286
L194.7165 138.7810
" />
<path d="M194.7165 138.7810
L194.8117 138.7334
" />
<path d="M194.0022 138.3048
L193.9070 138.3048
" />
<path d="M193.9070 138.3048
L193.8117 138.3524
" />
<path d="M193.8117 138.3524
L193.7641 138.4001
" />
<path d="M193.7641 138.4001
L193.7165 138.4953
" />
<path d="M193.7165 138.4953
L193.6689 138.6858
" />
<path d="M193.6689 138.6858
L193.6689 138.9239
" />
<path d="M193.6689 138.9239
L193.7165 139.1143
" />
<path d="M193.7165 139.1143
L193.7641 139.2096
" />
<path d="M193.7641 139.2096
L193.8117 139.2572
" />
<path d="M193.8117 139.2572
L193.9070 139.3048
" />
<path d="M193.9070 139.3048
L194.0022 139.3048
" />
<path d="M194.0022 139.3048
L194.0974 139.2572
" />
<path d="M194.0974 139.2572
L194.1451 139.2096
" />
<path d="M194.1451 139.2096
L194.1927 139.1143
" />
<path d="M194.1927 139.1143
L194.2403 138.9239
" />
<path d="M194.2403 138.9239
L194.2403 138.6858
" />
<path d="M194.2403 138.6858
L194.1927 138.4953
" />
<path d="M194.1927 138.4953
L194.1451 138.4001
" />
<path d="M194.1451 138.4001
L194.0974 138.3524
" />
<path d="M194.0974 138.3524
L194.0022 138.3048
" />
<path d="M193.2403 139.2096
L193.1927 139.2572
" />
<path d="M193.1927 139.2572
L193.2403 139.3048
" />
<path d="M193.2403 139.3048
L193.2879 139.2572
" />
<path d="M193.2879 139.2572
L193.2403 139.2096
" />
<path d="M193.2403 139.2096
L193.2403 139.3048
" />
<path d="M192.6212 138.7334
L192.7165 138.6858
" />
<path d="M192.7165 138.6858
L192.7641 138.6382
" />
<path d="M192.7641 138.6382
L192.8117 138.5429
" />
<path d="M192.8117 138.5429
L192.8117 138.4953
" />
<path d="M192.8117 138.4953
L192.7641 138.4001
" />
<path d="M192.7641 138.4001
L192.7165 138.3524
" />
<path d="M192.7165 138.3524
L192.6212 138.3048
" />
<path d="M192.6212 138.3048
L192.4308 138.3048
" />
<path d="M192.4308 138.3048
L192.3355 138.3524
" />
<path d="M192.3355 138.3524
L192.2879 138.4001
" />
<path d="M192.2879 138.4001
L192.2403 138.4953
" />
<path d="M192.2403 138.4953
L192.2403 138.5429
" />
<path d="M192.2403 138.5429
L192.2879 138.6382
" />
<path d="M192.2879 138.6382
L192.3355 138.6858
" />
<path d="M192.3355 138.6858
L192.4308 138.7334
" />
<path d="M192.4308 138.7334
L192.6212 138.7334
" />
<path d="M192.6212 138.7334
L192.7165 138.7810
" />
<path d="M192.7165 138.7810
L192.7641 138.8286
" />
<path d="M192.7641 138.8286
L192.8117 138.9239
" />
<path d="M192.8117 138.9239
L192.8117 139.1143
" />
<path d="M192.8117 139.1143
L192.7641 139.2096
" />
<path d="M192.7641 139.2096
L192.7165 139.2572
" />
<path d="M192.7165 139.2572
L192.6212 139.3048
" />
<path d="M192.6212 139.3048
L192.4308 139.3048
" />
<path d="M192.4308 139.3048
L192.3355 139.2572
" />
<path d="M192.3355 139.2572
L192.2879 139.2096
" />
<path d="M192.2879 139.2096
L192.2403 139.1143
" />
<path d="M192.2403 139.1143
L192.2403 138.9239
" />
<path d="M192.2403 138.9239
L192.2879 138.8286
" />
<path d="M192.2879 138.8286
L192.3355 138.7810
" />
<path d="M192.3355 138.7810
L192.4308 138.7334
" />
<path d="M191.3832 138.6382
L191.3832 139.3048
" />
<path d="M191.6212 138.2572
L191.8593 138.9715
" />
<path d="M191.8593 138.9715
L191.2403 138.9715
" />
<path d="M190.0974 139.3048
L190.0974 138.6382
" />
<path d="M190.0974 138.7334
L190.0498 138.6858
" />
<path d="M190.0498 138.6858
L189.9546 138.6382
" />
<path d="M189.9546 138.6382
L189.8117 138.6382
" />
<path d="M189.8117 138.6382
L189.7165 138.6858
" />
<path d="M189.7165 138.6858
L189.6689 138.7810
" />
<path d="M189.6689 138.7810
L189.6689 139.3048
" />
<path d="M189.6689 138.7810
L189.6212 138.6858
" />
<path d="M189.6212 138.6858
L189.5260 138.6382
" />
<path d="M189.5260 138.6382
L189.3832 138.6382
" />
<path d="M189.3832 138.6382
L189.2879 138.6858
" />
<path d="M189.2879 138.6858
L189.2403 138.7810
" />
<path d="M189.2403 138.7810
L189.2403 139.3048
" />
<path d="M188.7641 139.3048
L188.7641 138.6382
" />
<path d="M188.7641 138.7334
L188.7165 138.6858
" />
<path d="M188.7165 138.6858
L188.6212 138.6382
" />
<path d="M188.6212 138.6382
L188.4784 138.6382
" />
<path d="M188.4784 138.6382
L188.3832 138.6858
" />
<path d="M188.3832 138.6858
L188.3355 138.7810
" />
<path d="M188.3355 138.7810
L188.3355 139.3048
" />
<path d="M188.3355 138.7810
L188.2879 138.6858
" />
<path d="M188.2879 138.6858
L188.1927 138.6382
" />
<path d="M188.1927 138.6382
L188.0498 138.6382
" />
<path d="M188.0498 138.6382
L187.9546 138.6858
" />
<path d="M187.9546 138.6858
L187.9070 138.7810
" />
<path d="M187.9070 138.7810
L187.9070 139.3048
" />
</g></g>
<g style="fill:#000000; fill-opacity:0.0; 
stroke:#000000; stroke-width:0.1000; stroke-opacity:1; 
stroke-linecap:round; stroke-linejoin:round;">
<path d="M101.5822 106.1100
L101.5822 140.5864
" />
<path d="M282.4222 106.1100
L282.4222 140.5864
" />
<path d="M101.5822 140.0000
L282.4222 140.0000
" />
<path d="M101.5822 140.0000
L282.4222 140.0000
" />
<path d="M101.5822 140.0000
L102.7087 140.5864
" />
<path d="M101.5822 140.0000
L102.7087 139.4136
" />
<path d="M282.4222 140.0000
L281.2957 139.4136
" />
<path d="M282.4222 140.0000
L281.2957 140.5864
" />
</g>
<g style="fill:#000000; fill-opacity:0.0; 
stroke:#000000; stroke-width:0.1500; stroke-opacity:1; 
stroke-linecap:round; stroke-linejoin:round;">
<g transform="rotate(-90.000000 96.9522 75.5000)">
<text x="96.9522" y="76.0000"
textLength="6.5357" font-size="1.3333" lengthAdjust="spacingAndGlyphs"
text-anchor="middle" opacity="0">111 mm</text>
</g>
<g class="stroked-text"><desc>111 mm</desc>
<path d="M96.4974 77.8810
L96.4974 78.4524
" />
<path d="M96.4974 78.1667
L97.4974 78.1667
" />
<path d="M97.4974 78.1667
L97.3545 78.2619
" />
<path d="M97.3545 78.2619
L97.2593 78.3571
" />
<path d="M97.2593 78.3571
L97.2117 78.4524
" />
<path d="M96.4974 76.9286
L96.4974 77.5000
" />
<path d="M96.4974 77.2143
L97.4974 77.2143
" />
<path d="M97.4974 77.2143
L97.3545 77.3095
" />
<path d="M97.3545 77.3095
L97.2593 77.4048
" />
<path d="M97.2593 77.4048
L97.2117 77.5000
" />
<path d="M96.4974 75.9762
L96.4974 76.5476
" />
<path d="M96.4974 76.2619
L97.4974 76.2619
" />
<path d="M97.4974 76.2619
L97.3545 76.3571
" />
<path d="M97.3545 76.3571
L97.2593 76.4524
" />
<path d="M97.2593 76.4524
L97.2117 76.5476
" />
<path d="M96.4974 74.7857
L97.1640 74.7857
" />
<path d="M97.0688 74.7857
L97.1164 74.7381
" />
<path d="M97.1164 74.7381
L97.1640 74.6429
" />
<path d="M97.1640 74.6429
L97.1640 74.5000
" />
<path d="M97.1640 74.5000
L97.1164 74.4048
" />
<path d="M97.1164 74.4048
L97.0212 74.3571
" />
<path d="M97.0212 74.3571
L96.4974 74.3571
" />
<path d="M97.0212 74.3571
L97.1164 74.3095
" />
<path d="M97.1164 74.3095
L97.1640 74.2143
" />
<path d="M97.1640 74.2143
L97.1640 74.0714
" />
<path d="M97.1640 74.0714
L97.1164 73.9762
" />
<path d="M97.1164 73.9762
L97.0212 73.9286
" />
<path d="M97.0212 73.9286
L96.4974 73.9286
" />
<path d="M96.4974 73.4524
L97.1640 73.4524
" />
<path d="M97.0688 73.4524
L97.1164 73.4048
" />
<path d="M97.1164 73.4048
L97.1640 73.3095
" />
<path d="M97.1640 73.3095
L97.1640 73.1667
" />
<path d="M97.1640 73.1667
L97.1164 73.0714
" />
<path d="M97.1164 73.0714
L97.0212 73.0238
" />
<path d="M97.0212 73.0238
L96.4974 73.0238
" />
<path d="M97.0212 73.0238
L97.1164 72.9762
" />
<path d="M97.1164 72.9762
L97.1640 72.8810
" />
<path d="M97.1640 72.8810
L97.1640 72.7381
" />
<path d="M97.1640 72.7381
L97.1164 72.6429
" />
<path d="M97.1164 72.6429
L97.0212 72.5952
" />
<path d="M97.0212 72.5952
L96.4974 72.5952
" />
</g><path d="M109.5022 20.0000
L95.2158 20.0000
" />
<path d="M109.5022 131.0000
L95.2158 131.0000
" />
<path d="M95.8022 20.0000
L95.8022 131.0000
" />
<path d="M95.8022 20.0000
L95.8022 131.0000
" />
<path d="M95.8022 20.0000
L95.2158 21.1265
" />
<path d="M95.8022 20.0000
L96.3886 21.1265
" />
<path d="M95.8022 131.0000
L96.3886 129.8735
" />
<path d="M95.8022 131.0000
L95.2158 129.8735
" />
<text x="192.0022" y="136.3500"
textLength="6.5357" font-size="1.3333" lengthAdjust="spacingAndGlyphs"
text-anchor="middle" opacity="0">174 mm</text>
<g class="stroked-text"><desc>174 mm</desc>
<path d="M194.3832 136.3048
L194.9546 136.3048
" />
<path d="M194.6689 136.3048
L194.6689 135.3048
" />
<path d="M194.6689 135.3048
L194.7641 135.4477
" />
<path d="M194.7641 135.4477
L194.8593 135.5429
" />
<path d="M194.8593 135.5429
L194.9546 135.5905
" />
<path d="M194.0498 135.3048
L193.3832 135.3048
" />
<path d="M193.3832 135.3048
L193.8117 136.3048
" />
<path d="M192.5736 135.6382
L192.5736 136.3048
" />
<path d="M192.8117 135.2572
L193.0498 135.9715
" />
<path d="M193.0498 135.9715
L192.4308 135.9715
" />
<path d="M191.2879 136.3048
L191.2879 135.6382
" />
<path d="M191.2879 135.7334
L191.2403 135.6858
" />
<path d="M191.2403 135.6858
L191.1451 135.6382
" />
<path d="M191.1451 135.6382
L191.0022 135.6382
" />
<path d="M191.0022 135.6382
L190.9070 135.6858
" />
<path d="M190.9070 135.6858
L190.8593 135.7810
" />
<path d="M190.8593 135.7810
L190.8593 136.3048
" />
<path d="M190.8593 135.7810
L190.8117 135.6858
" />
<path d="M190.8117 135.6858
L190.7165 135.6382
" />
<path d="M190.7165 135.6382
L190.5736 135.6382
" />
<path d="M190.5736 135.6382
L190.4784 135.6858
" />
<path d="M190.4784 135.6858
L190.4308 135.7810
" />
<path d="M190.4308 135.7810
L190.4308 136.3048
" />
<path d="M189.9546 136.3048
L189.9546 135.6382
" />
<path d="M189.9546 135.7334
L189.9070 135.6858
" />
<path d="M189.9070 135.6858
L189.8117 135.6382
" />
<path d="M189.8117 135.6382
L189.6689 135.6382
" />
<path d="M189.6689 135.6382
L189.5736 135.6858
" />
<path d="M189.5736 135.6858
L189.5260 135.7810
" />
<path d="M189.5260 135.7810
L189.5260 136.3048
" />
<path d="M189.5260 135.7810
L189.4784 135.6858
" />
<path d="M189.4784 135.6858
L189.3832 135.6382
" />
<path d="M189.3832 135.6382
L189.2403 135.6382
" />
<path d="M189.2403 135.6382
L189.1451 135.6858
" />
<path d="M189.1451 135.6858
L189.0974 135.7810
" />
<path d="M189.0974 135.7810
L189.0974 136.3048
" />
</g><path d="M279.0022 125.5000
L279.0022 137.5864
" />
<path d="M105.0022 125.5000
L105.0022 137.5864
" />
<path d="M279.0022 137.0000
L105.0022 137.0000
" />
<path d="M279.0022 137.0000
L105.0022 137.0000
" />
<path d="M279.0022 137.0000
L277.8757 136.4136
" />
<path d="M279.0022 137.0000
L277.8757 137.5864
" />
<path d="M105.0022 137.0000
L106.1287 137.5864
" />
<path d="M105.0022 137.0000
L106.1287 136.4136
" />
<g transform="rotate(-359.954527 191.9945 13.4000)">
<text x="191.9945" y="13.9000"
textLength="6.5357" font-size="1.3333" lengthAdjust="spacingAndGlyphs"
text-anchor="middle" opacity="0">126 mm</text>
</g>
<g class="stroked-text"><desc>126 mm</desc>
<path d="M194.3759 13.8529
L194.9473 13.8525
" />
<path d="M194.6616 13.8527
L194.6608 12.8527
" />
<path d="M194.6608 12.8527
L194.7561 12.9955
" />
<path d="M194.7561 12.9955
L194.8514 13.0906
" />
<path d="M194.8514 13.0906
L194.9467 13.1382
" />
<path d="M193.9942 12.9485
L193.9465 12.9009
" />
<path d="M193.9465 12.9009
L193.8513 12.8533
" />
<path d="M193.8513 12.8533
L193.6132 12.8535
" />
<path d="M193.6132 12.8535
L193.5180 12.9012
" />
<path d="M193.5180 12.9012
L193.4704 12.9489
" />
<path d="M193.4704 12.9489
L193.4228 13.0442
" />
<path d="M193.4228 13.0442
L193.4229 13.1394
" />
<path d="M193.4229 13.1394
L193.4706 13.2822
" />
<path d="M193.4706 13.2822
L194.0425 13.8532
" />
<path d="M194.0425 13.8532
L193.4235 13.8537
" />
<path d="M192.5655 12.8544
L192.7560 12.8542
" />
<path d="M192.7560 12.8542
L192.8513 12.9018
" />
<path d="M192.8513 12.9018
L192.8989 12.9493
" />
<path d="M192.8989 12.9493
L192.9943 13.0921
" />
<path d="M192.9943 13.0921
L193.0421 13.2826
" />
<path d="M193.0421 13.2826
L193.0424 13.6635
" />
<path d="M193.0424 13.6635
L192.9948 13.7588
" />
<path d="M192.9948 13.7588
L192.9472 13.8064
" />
<path d="M192.9472 13.8064
L192.8520 13.8541
" />
<path d="M192.8520 13.8541
L192.6616 13.8543
" />
<path d="M192.6616 13.8543
L192.5663 13.8067
" />
<path d="M192.5663 13.8067
L192.5186 13.7592
" />
<path d="M192.5186 13.7592
L192.4709 13.6640
" />
<path d="M192.4709 13.6640
L192.4708 13.4259
" />
<path d="M192.4708 13.4259
L192.5183 13.3306
" />
<path d="M192.5183 13.3306
L192.5659 13.2829
" />
<path d="M192.5659 13.2829
L192.6611 13.2352
" />
<path d="M192.6611 13.2352
L192.8516 13.2351
" />
<path d="M192.8516 13.2351
L192.9468 13.2826
" />
<path d="M192.9468 13.2826
L192.9945 13.3302
" />
<path d="M192.9945 13.3302
L193.0422 13.4254
" />
<path d="M191.2806 13.8554
L191.2801 13.1887
" />
<path d="M191.2802 13.2840
L191.2325 13.2364
" />
<path d="M191.2325 13.2364
L191.1372 13.1888
" />
<path d="M191.1372 13.1888
L190.9944 13.1889
" />
<path d="M190.9944 13.1889
L190.8992 13.2366
" />
<path d="M190.8992 13.2366
L190.8516 13.3319
" />
<path d="M190.8516 13.3319
L190.8520 13.8557
" />
<path d="M190.8516 13.3319
L190.8039 13.2367
" />
<path d="M190.8039 13.2367
L190.7087 13.1892
" />
<path d="M190.7087 13.1892
L190.5658 13.1893
" />
<path d="M190.5658 13.1893
L190.4706 13.2370
" />
<path d="M190.4706 13.2370
L190.4231 13.3323
" />
<path d="M190.4231 13.3323
L190.4235 13.8561
" />
<path d="M189.9473 13.8564
L189.9468 13.1898
" />
<path d="M189.9468 13.2850
L189.8992 13.2374
" />
<path d="M189.8992 13.2374
L189.8039 13.1899
" />
<path d="M189.8039 13.1899
L189.6610 13.1900
" />
<path d="M189.6610 13.1900
L189.5658 13.2377
" />
<path d="M189.5658 13.2377
L189.5183 13.3330
" />
<path d="M189.5183 13.3330
L189.5187 13.8568
" />
<path d="M189.5183 13.3330
L189.4706 13.2378
" />
<path d="M189.4706 13.2378
L189.3753 13.1902
" />
<path d="M189.3753 13.1902
L189.2325 13.1903
" />
<path d="M189.2325 13.1903
L189.1373 13.2380
" />
<path d="M189.1373 13.2380
L189.0897 13.3333
" />
<path d="M189.0897 13.3333
L189.0901 13.8571
" />
</g><path d="M255.0018 22.5000
L254.9950 13.9136
" />
<path d="M129.0018 22.6000
L128.9950 14.0136
" />
<path d="M254.9955 14.5000
L128.9955 14.6000
" />
<path d="M254.9955 14.5000
L128.9955 14.6000
" />
<path d="M254.9955 14.5000
L253.8685 13.9145
" />
<path d="M254.9955 14.5000
L253.8694 15.0873
" />
<path d="M128.9955 14.6000
L130.1224 15.1855
" />
<path d="M128.9955 14.6000
L130.1215 14.0127
" />
<g transform="rotate(-180.000000 181.0022 20.8500)">
<text x="181.0022" y="21.3500"
textLength="7.5357" font-size="1.3333" lengthAdjust="spacingAndGlyphs"
text-anchor="middle" opacity="0">PCB edge</text>
</g>
<g class="stroked-text"><desc>PCB edge</desc>
<path d="M177.5974 20.3952
L177.5974 21.3952
" />
<path d="M177.5974 21.3952
L177.9784 21.3952
" />
<path d="M177.9784 21.3952
L178.0736 21.3476
" />
<path d="M178.0736 21.3476
L178.1212 21.2999
" />
<path d="M178.1212 21.2999
L178.1689 21.2047
" />
<path d="M178.1689 21.2047
L178.1689 21.0618
" />
<path d="M178.1689 21.0618
L178.1212 20.9666
" />
<path d="M178.1212 20.9666
L178.0736 20.9190
" />
<path d="M178.0736 20.9190
L177.9784 20.8714
" />
<path d="M177.9784 20.8714
L177.5974 20.8714
" />
<path d="M179.1689 20.4904
L179.1212 20.4428
" />
<path d="M179.1212 20.4428
L178.9784 20.3952
" />
<path d="M178.9784 20.3952
L178.8832 20.3952
" />
<path d="M178.8832 20.3952
L178.7403 20.4428
" />
<path d="M178.7403 20.4428
L178.6451 20.5380
" />
<path d="M178.6451 20.5380
L178.5974 20.6333
" />
<path d="M178.5974 20.6333
L178.5498 20.8238
" />
<path d="M178.5498 20.8238
L178.5498 20.9666
" />
<path d="M178.5498 20.9666
L178.5974 21.1571
" />
<path d="M178.5974 21.1571
L178.6451 21.2523
" />
<path d="M178.6451 21.2523
L178.7403 21.3476
" />
<path d="M178.7403 21.3476
L178.8832 21.3952
" />
<path d="M178.8832 21.3952
L178.9784 21.3952
" />
<path d="M178.9784 21.3952
L179.1212 21.3476
" />
<path d="M179.1212 21.3476
L179.1689 21.2999
" />
<path d="M179.9308 20.9190
L180.0736 20.8714
" />
<path d="M180.0736 20.8714
L180.1212 20.8238
" />
<path d="M180.1212 20.8238
L180.1689 20.7285
" />
<path d="M180.1689 20.7285
L180.1689 20.5857
" />
<path d="M180.1689 20.5857
L180.1212 20.4904
" />
<path d="M180.1212 20.4904
L180.0736 20.4428
" />
<path d="M180.0736 20.4428
L179.9784 20.3952
" />
<path d="M179.9784 20.3952
L179.5974 20.3952
" />
<path d="M179.5974 20.3952
L179.5974 21.3952
" />
<path d="M179.5974 21.3952
L179.9308 21.3952
" />
<path d="M179.9308 21.3952
L180.0260 21.3476
" />
<path d="M180.0260 21.3476
L180.0736 21.2999
" />
<path d="M180.0736 21.2999
L180.1212 21.2047
" />
<path d="M180.1212 21.2047
L180.1212 21.1095
" />
<path d="M180.1212 21.1095
L180.0736 21.0142
" />
<path d="M180.0736 21.0142
L180.0260 20.9666
" />
<path d="M180.0260 20.9666
L179.9308 20.9190
" />
<path d="M179.9308 20.9190
L179.5974 20.9190
" />
<path d="M181.7403 20.4428
L181.6451 20.3952
" />
<path d="M181.6451 20.3952
L181.4546 20.3952
" />
<path d="M181.4546 20.3952
L181.3593 20.4428
" />
<path d="M181.3593 20.4428
L181.3117 20.5380
" />
<path d="M181.3117 20.5380
L181.3117 20.9190
" />
<path d="M181.3117 20.9190
L181.3593 21.0142
" />
<path d="M181.3593 21.0142
L181.4546 21.0618
" />
<path d="M181.4546 21.0618
L181.6451 21.0618
" />
<path d="M181.6451 21.0618
L181.7403 21.0142
" />
<path d="M181.7403 21.0142
L181.7879 20.9190
" />
<path d="M181.7879 20.9190
L181.7879 20.8238
" />
<path d="M181.7879 20.8238
L181.3117 20.7285
" />
<path d="M182.6451 20.3952
L182.6451 21.3952
" />
<path d="M182.6451 20.4428
L182.5498 20.3952
" />
<path d="M182.5498 20.3952
L182.3593 20.3952
" />
<path d="M182.3593 20.3952
L182.2641 20.4428
" />
<path d="M182.2641 20.4428
L182.2165 20.4904
" />
<path d="M182.2165 20.4904
L182.1689 20.5857
" />
<path d="M182.1689 20.5857
L182.1689 20.8714
" />
<path d="M182.1689 20.8714
L182.2165 20.9666
" />
<path d="M182.2165 20.9666
L182.2641 21.0142
" />
<path d="M182.2641 21.0142
L182.3593 21.0618
" />
<path d="M182.3593 21.0618
L182.5498 21.0618
" />
<path d="M182.5498 21.0618
L182.6451 21.0142
" />
<path d="M183.5498 21.0618
L183.5498 20.2523
" />
<path d="M183.5498 20.2523
L183.5022 20.1571
" />
<path d="M183.5022 20.1571
L183.4546 20.1095
" />
<path d="M183.4546 20.1095
L183.3593 20.0618
" />
<path d="M183.3593 20.0618
L183.2165 20.0618
" />
<path d="M183.2165 20.0618
L183.1212 20.1095
" />
<path d="M183.5498 20.4428
L183.4546 20.3952
" />
<path d="M183.4546 20.3952
L183.2641 20.3952
" />
<path d="M183.2641 20.3952
L183.1689 20.4428
" />
<path d="M183.1689 20.4428
L183.1212 20.4904
" />
<path d="M183.1212 20.4904
L183.0736 20.5857
" />
<path d="M183.0736 20.5857
L183.0736 20.8714
" />
<path d="M183.0736 20.8714
L183.1212 20.9666
" />
<path d="M183.1212 20.9666
L183.1689 21.0142
" />
<path d="M183.1689 21.0142
L183.2641 21.0618
" />
<path d="M183.2641 21.0618
L183.4546 21.0618
" />
<path d="M183.4546 21.0618
L183.5498 21.0142
" />
<path d="M184.4070 20.4428
L184.3117 20.3952
" />
<path d="M184.3117 20.3952
L184.1212 20.3952
" />
<path d="M184.1212 20.3952
L184.0260 20.4428
" />
<path d="M184.0260 20.4428
L183.9784 20.5380
" />
<path d="M183.9784 20.5380
L183.9784 20.9190
" />
<path d="M183.9784 20.9190
L184.0260 21.0142
" />
<path d="M184.0260 21.0142
L184.1212 21.0618
" />
<path d="M184.1212 21.0618
L184.3117 21.0618
" />
<path d="M184.3117 21.0618
L184.4070 21.0142
" />
<path d="M184.4070 21.0142
L184.4546 20.9190
" />
<path d="M184.4546 20.9190
L184.4546 20.8238
" />
<path d="M184.4546 20.8238
L183.9784 20.7285
" />
</g><g transform="rotate(-180.000000 203.0022 20.8500)">
<text x="203.0022" y="21.3500"
textLength="7.5357" font-size="1.3333" lengthAdjust="spacingAndGlyphs"
text-anchor="middle" opacity="0">PCB edge</text>
</g>
<g class="stroked-text"><desc>PCB edge</desc>
<path d="M199.5974 20.3952
L199.5974 21.3952
" />
<path d="M199.5974 21.3952
L199.9784 21.3952
" />
<path d="M199.9784 21.3952
L200.0736 21.3476
" />
<path d="M200.0736 21.3476
L200.1212 21.2999
" />
<path d="M200.1212 21.2999
L200.1689 21.2047
" />
<path d="M200.1689 21.2047
L200.1689 21.0618
" />
<path d="M200.1689 21.0618
L200.1212 20.9666
" />
<path d="M200.1212 20.9666
L200.0736 20.9190
" />
<path d="M200.0736 20.9190
L199.9784 20.8714
" />
<path d="M199.9784 20.8714
L199.5974 20.8714
" />
<path d="M201.1689 20.4904
L201.1212 20.4428
" />
<path d="M201.1212 20.4428
L200.9784 20.3952
" />
<path d="M200.9784 20.3952
L200.8832 20.3952
" />
<path d="M200.8832 20.3952
L200.7403 20.4428
" />
<path d="M200.7403 20.4428
L200.6451 20.5380
" />
<path d="M200.6451 20.5380
L200.5974 20.6333
" />
<path d="M200.5974 20.6333
L200.5498 20.8238
" />
<path d="M200.5498 20.8238
L200.5498 20.9666
" />
<path d="M200.5498 20.9666
L200.5974 21.1571
" />
<path d="M200.5974 21.1571
L200.6451 21.2523
" />
<path d="M200.6451 21.2523
L200.7403 21.3476
" />
<path d="M200.7403 21.3476
L200.8832 21.3952
" />
<path d="M200.8832 21.3952
L200.9784 21.3952
" />
<path d="M200.9784 21.3952
L201.1212 21.3476
" />
<path d="M201.1212 21.3476
L201.1689 21.2999
" />
<path d="M201.9308 20.9190
L202.0736 20.8714
" />
<path d="M202.0736 20.8714
L202.1212 20.8238
" />
<path d="M202.1212 20.8238
L202.1689 20.7285
" />
<path d="M202.1689 20.7285
L202.1689 20.5857
" />
<path d="M202.1689 20.5857
L202.1212 20.4904
" />
<path d="M202.1212 20.4904
L202.0736 20.4428
" />
<path d="M202.0736 20.4428
L201.9784 20.3952
" />
<path d="M201.9784 20.3952
L201.5974 20.3952
" />
<path d="M201.5974 20.3952
L201.5974 21.3952
" />
<path d="M201.5974 21.3952
L201.9308 21.3952
" />
<path d="M201.9308 21.3952
L202.0260 21.3476
" />
<path d="M202.0260 21.3476
L202.0736 21.2999
" />
<path d="M202.0736 21.2999
L202.1212 21.2047
" />
<path d="M202.1212 21.2047
L202.1212 21.1095
" />
<path d="M202.1212 21.1095
L202.0736 21.0142
" />
<path d="M202.0736 21.0142
L202.0260 20.9666
" />
<path d="M202.0260 20.9666
L201.9308 20.9190
" />
<path d="M201.9308 20.9190
L201.5974 20.9190
" />
<path d="M203.7403 20.4428
L203.6451 20.3952
" />
<path d="M203.6451 20.3952
L203.4546 20.3952
" />
<path d="M203.4546 20.3952
L203.3593 20.4428
" />
<path d="M203.3593 20.4428
L203.3117 20.5380
" />
<path d="M203.3117 20.5380
L203.3117 20.9190
" />
<path d="M203.3117 20.9190
L203.3593 21.0142
" />
<path d="M203.3593 21.0142
L203.4546 21.0618
" />
<path d="M203.4546 21.0618
L203.6451 21.0618
" />
<path d="M203.6451 21.0618
L203.7403 21.0142
" />
<path d="M203.7403 21.0142
L203.7879 20.9190
" />
<path d="M203.7879 20.9190
L203.7879 20.8238
" />
<path d="M203.7879 20.8238
L203.3117 20.7285
" />
<path d="M204.6451 20.3952
L204.6451 21.3952
" />
<path d="M204.6451 20.4428
L204.5498 20.3952
" />
<path d="M204.5498 20.3952
L204.3593 20.3952
" />
<path d="M204.3593 20.3952
L204.2641 20.4428
" />
<path d="M204.2641 20.4428
L204.2165 20.4904
" />
<path d="M204.2165 20.4904
L204.1689 20.5857
" />
<path d="M204.1689 20.5857
L204.1689 20.8714
" />
<path d="M204.1689 20.8714
L204.2165 20.9666
" />
<path d="M204.2165 20.9666
L204.2641 21.0142
" />
<path d="M204.2641 21.0142
L204.3593 21.0618
" />
<path d="M204.3593 21.0618
L204.5498 21.0618
" />
<path d="M204.5498 21.0618
L204.6451 21.0142
" />
<path d="M205.5498 21.0618
L205.5498 20.2523
" />
<path d="M205.5498 20.2523
L205.5022 20.1571
" />
<path d="M205.5022 20.1571
L205.4546 20.1095
" />
<path d="M205.4546 20.1095
L205.3593 20.0618
" />
<path d="M205.3593 20.0618
L205.2165 20.0618
" />
<path d="M205.2165 20.0618
L205.1212 20.1095
" />
<path d="M205.5498 20.4428
L205.4546 20.3952
" />
<path d="M205.4546 20.3952
L205.2641 20.3952
" />
<path d="M205.2641 20.3952
L205.1689 20.4428
" />
<path d="M205.1689 20.4428
L205.1212 20.4904
" />
<path d="M205.1212 20.4904
L205.0736 20.5857
" />
<path d="M205.0736 20.5857
L205.0736 20.8714
" />
<path d="M205.0736 20.8714
L205.1212 20.9666
" />
<path d="M205.1212 20.9666
L205.1689 21.0142
" />
<path d="M205.1689 21.0142
L205.2641 21.0618
" />
<path d="M205.2641 21.0618
L205.4546 21.0618
" />
<path d="M205.4546 21.0618
L205.5498 21.0142
" />
<path d="M206.4070 20.4428
L206.3117 20.3952
" />
<path d="M206.3117 20.3952
L206.1212 20.3952
" />
<path d="M206.1212 20.3952
L206.0260 20.4428
" />
<path d="M206.0260 20.4428
L205.9784 20.5380
" />
<path d="M205.9784 20.5380
L205.9784 20.9190
" />
<path d="M205.9784 20.9190
L206.0260 21.0142
" />
<path d="M206.0260 21.0142
L206.1212 21.0618
" />
<path d="M206.1212 21.0618
L206.3117 21.0618
" />
<path d="M206.3117 21.0618
L206.4070 21.0142
" />
<path d="M206.4070 21.0142
L206.4546 20.9190
" />
<path d="M206.4546 20.9190
L206.4546 20.8238
" />
<path d="M206.4546 20.8238
L205.9784 20.7285
" />
</g></g>
<g style="fill:#000000; fill-opacity:0.0; 
stroke:#000000; stroke-width:0.1000; stroke-opacity:1; 
stroke-linecap:round; stroke-linejoin:round;">
<circle cx="178.0222" cy="92.5056" r="0.2540" /> 
</g>
<g style="fill:#000000; fill-opacity:0.0; 
stroke:#000000; stroke-width:0.1500; stroke-opacity:1; 
stroke-linecap:round; stroke-linejoin:round;">
<text x="126.0222" y="55.0056"
textLength="6.0595" font-size="1.3333" lengthAdjust="spacingAndGlyphs"
text-anchor="middle" opacity="0">3.5 mm</text>
<g class="stroked-text"><desc>3.5 mm</desc>
<path d="M128.7841 53.9604
L128.1651 53.9604
" />
<path d="M128.1651 53.9604
L128.4984 54.3414
" />
<path d="M128.4984 54.3414
L128.3555 54.3414
" />
<path d="M128.3555 54.3414
L128.2603 54.3890
" />
<path d="M128.2603 54.3890
L128.2127 54.4366
" />
<path d="M128.2127 54.4366
L128.1651 54.5318
" />
<path d="M128.1651 54.5318
L128.1651 54.7699
" />
<path d="M128.1651 54.7699
L128.2127 54.8652
" />
<path d="M128.2127 54.8652
L128.2603 54.9128
" />
<path d="M128.2603 54.9128
L128.3555 54.9604
" />
<path d="M128.3555 54.9604
L128.6412 54.9604
" />
<path d="M128.6412 54.9604
L128.7365 54.9128
" />
<path d="M128.7365 54.9128
L128.7841 54.8652
" />
<path d="M127.7365 54.8652
L127.6889 54.9128
" />
<path d="M127.6889 54.9128
L127.7365 54.9604
" />
<path d="M127.7365 54.9604
L127.7841 54.9128
" />
<path d="M127.7841 54.9128
L127.7365 54.8652
" />
<path d="M127.7365 54.8652
L127.7365 54.9604
" />
<path d="M126.7841 53.9604
L127.2603 53.9604
" />
<path d="M127.2603 53.9604
L127.3079 54.4366
" />
<path d="M127.3079 54.4366
L127.2603 54.3890
" />
<path d="M127.2603 54.3890
L127.1651 54.3414
" />
<path d="M127.1651 54.3414
L126.9270 54.3414
" />
<path d="M126.9270 54.3414
L126.8317 54.3890
" />
<path d="M126.8317 54.3890
L126.7841 54.4366
" />
<path d="M126.7841 54.4366
L126.7365 54.5318
" />
<path d="M126.7365 54.5318
L126.7365 54.7699
" />
<path d="M126.7365 54.7699
L126.7841 54.8652
" />
<path d="M126.7841 54.8652
L126.8317 54.9128
" />
<path d="M126.8317 54.9128
L126.9270 54.9604
" />
<path d="M126.9270 54.9604
L127.1651 54.9604
" />
<path d="M127.1651 54.9604
L127.2603 54.9128
" />
<path d="M127.2603 54.9128
L127.3079 54.8652
" />
<path d="M125.5460 54.9604
L125.5460 54.2938
" />
<path d="M125.5460 54.3890
L125.4984 54.3414
" />
<path d="M125.4984 54.3414
L125.4032 54.2938
" />
<path d="M125.4032 54.2938
L125.2603 54.2938
" />
<path d="M125.2603 54.2938
L125.1651 54.3414
" />
<path d="M125.1651 54.3414
L125.1174 54.4366
" />
<path d="M125.1174 54.4366
L125.1174 54.9604
" />
<path d="M125.1174 54.4366
L125.0698 54.3414
" />
<path d="M125.0698 54.3414
L124.9746 54.2938
" />
<path d="M124.9746 54.2938
L124.8317 54.2938
" />
<path d="M124.8317 54.2938
L124.7365 54.3414
" />
<path d="M124.7365 54.3414
L124.6889 54.4366
" />
<path d="M124.6889 54.4366
L124.6889 54.9604
" />
<path d="M124.2127 54.9604
L124.2127 54.2938
" />
<path d="M124.2127 54.3890
L124.1651 54.3414
" />
<path d="M124.1651 54.3414
L124.0698 54.2938
" />
<path d="M124.0698 54.2938
L123.9270 54.2938
" />
<path d="M123.9270 54.2938
L123.8317 54.3414
" />
<path d="M123.8317 54.3414
L123.7841 54.4366
" />
<path d="M123.7841 54.4366
L123.7841 54.9604
" />
<path d="M123.7841 54.4366
L123.7365 54.3414
" />
<path d="M123.7365 54.3414
L123.6412 54.2938
" />
<path d="M123.6412 54.2938
L123.4984 54.2938
" />
<path d="M123.4984 54.2938
L123.4032 54.3414
" />
<path d="M123.4032 54.3414
L123.3555 54.4366
" />
<path d="M123.3555 54.4366
L123.3555 54.9604
" />
</g></g>
<g style="fill:#000000; fill-opacity:0.0; 
stroke:#000000; stroke-width:0.1000; stroke-opacity:1; 
stroke-linecap:round; stroke-linejoin:round;">
<path d="M129.0222 63.0056
L129.0222 55.9192
" />
<path d="M125.5222 63.0056
L125.5222 55.9192
" />
<path d="M129.0222 56.5056
L125.5222 56.5056
" />
<path d="M129.0222 56.5056
L125.5222 56.5056
" />
<path d="M129.0222 56.5056
L127.8957 55.9192
" />
<path d="M129.0222 56.5056
L127.8957 57.0920
" />
<path d="M125.5222 56.5056
L126.6487 57.0920
" />
<path d="M125.5222 56.5056
L126.6487 55.9192
" />
</g>
<g style="fill:#000000; fill-opacity:0.0; 
stroke:#000000; stroke-width:0.1500; stroke-opacity:1; 
stroke-linecap:round; stroke-linejoin:round;">
<text x="153.5222" y="55.8556"
textLength="5.5833" font-size="1.3333" lengthAdjust="spacingAndGlyphs"
text-anchor="middle" opacity="0">49 mm</text>
<g class="stroked-text"><desc>49 mm</desc>
<path d="M155.5222 55.1438
L155.5222 55.8104
" />
<path d="M155.7603 54.7628
L155.9984 55.4771
" />
<path d="M155.9984 55.4771
L155.3793 55.4771
" />
<path d="M154.9508 55.8104
L154.7603 55.8104
" />
<path d="M154.7603 55.8104
L154.6651 55.7628
" />
<path d="M154.6651 55.7628
L154.6174 55.7152
" />
<path d="M154.6174 55.7152
L154.5222 55.5723
" />
<path d="M154.5222 55.5723
L154.4746 55.3818
" />
<path d="M154.4746 55.3818
L154.4746 55.0009
" />
<path d="M154.4746 55.0009
L154.5222 54.9057
" />
<path d="M154.5222 54.9057
L154.5698 54.8580
" />
<path d="M154.5698 54.8580
L154.6651 54.8104
" />
<path d="M154.6651 54.8104
L154.8555 54.8104
" />
<path d="M154.8555 54.8104
L154.9508 54.8580
" />
<path d="M154.9508 54.8580
L154.9984 54.9057
" />
<path d="M154.9984 54.9057
L155.0460 55.0009
" />
<path d="M155.0460 55.0009
L155.0460 55.2390
" />
<path d="M155.0460 55.2390
L154.9984 55.3342
" />
<path d="M154.9984 55.3342
L154.9508 55.3818
" />
<path d="M154.9508 55.3818
L154.8555 55.4295
" />
<path d="M154.8555 55.4295
L154.6651 55.4295
" />
<path d="M154.6651 55.4295
L154.5698 55.3818
" />
<path d="M154.5698 55.3818
L154.5222 55.3342
" />
<path d="M154.5222 55.3342
L154.4746 55.2390
" />
<path d="M153.2841 55.8104
L153.2841 55.1438
" />
<path d="M153.2841 55.2390
L153.2365 55.1914
" />
<path d="M153.2365 55.1914
L153.1412 55.1438
" />
<path d="M153.1412 55.1438
L152.9984 55.1438
" />
<path d="M152.9984 55.1438
L152.9032 55.1914
" />
<path d="M152.9032 55.1914
L152.8555 55.2866
" />
<path d="M152.8555 55.2866
L152.8555 55.8104
" />
<path d="M152.8555 55.2866
L152.8079 55.1914
" />
<path d="M152.8079 55.1914
L152.7127 55.1438
" />
<path d="M152.7127 55.1438
L152.5698 55.1438
" />
<path d="M152.5698 55.1438
L152.4746 55.1914
" />
<path d="M152.4746 55.1914
L152.4270 55.2866
" />
<path d="M152.4270 55.2866
L152.4270 55.8104
" />
<path d="M151.9508 55.8104
L151.9508 55.1438
" />
<path d="M151.9508 55.2390
L151.9032 55.1914
" />
<path d="M151.9032 55.1914
L151.8079 55.1438
" />
<path d="M151.8079 55.1438
L151.6651 55.1438
" />
<path d="M151.6651 55.1438
L151.5698 55.1914
" />
<path d="M151.5698 55.1914
L151.5222 55.2866
" />
<path d="M151.5222 55.2866
L151.5222 55.8104
" />
<path d="M151.5222 55.2866
L151.4746 55.1914
" />
<path d="M151.4746 55.1914
L151.3793 55.1438
" />
<path d="M151.3793 55.1438
L151.2365 55.1438
" />
<path d="M151.2365 55.1438
L151.1412 55.1914
" />
<path d="M151.1412 55.1914
L151.0936 55.2866
" />
<path d="M151.0936 55.2866
L151.0936 55.8104
" />
</g></g>
<g style="fill:#000000; fill-opacity:0.0; 
stroke:#000000; stroke-width:0.1000; stroke-opacity:1; 
stroke-linecap:round; stroke-linejoin:round;">
<path d="M178.0222 63.0056
L178.0222 55.9192
" />
<path d="M129.0222 63.0056
L129.0222 55.9192
" />
<path d="M178.0222 56.5056
L129.0222 56.5056
" />
<path d="M178.0222 56.5056
L129.0222 56.5056
" />
<path d="M178.0222 56.5056
L176.8957 55.9192
" />
<path d="M178.0222 56.5056
L176.8957 57.0920
" />
<path d="M129.0222 56.5056
L130.1487 57.0920
" />
<path d="M129.0222 56.5056
L130.1487 55.9192
" />
</g>
<g style="fill:#000000; fill-opacity:0.0; 
stroke:#000000; stroke-width:0.1500; stroke-opacity:1; 
stroke-linecap:round; stroke-linejoin:round;">
<g transform="rotate(-90.000000 190.6722 92.5056)">
<text x="190.6722" y="93.0056"
textLength="5.5833" font-size="1.3333" lengthAdjust="spacingAndGlyphs"
text-anchor="middle" opacity="0">58 mm</text>
</g>
<g class="stroked-text"><desc>58 mm</desc>
<path d="M191.2174 94.4580
L191.2174 94.9342
" />
<path d="M191.2174 94.9342
L190.7412 94.9818
" />
<path d="M190.7412 94.9818
L190.7888 94.9342
" />
<path d="M190.7888 94.9342
L190.8364 94.8389
" />
<path d="M190.8364 94.8389
L190.8364 94.6008
" />
<path d="M190.8364 94.6008
L190.7888 94.5056
" />
<path d="M190.7888 94.5056
L190.7412 94.4580
" />
<path d="M190.7412 94.4580
L190.6460 94.4104
" />
<path d="M190.6460 94.4104
L190.4079 94.4104
" />
<path d="M190.4079 94.4104
L190.3126 94.4580
" />
<path d="M190.3126 94.4580
L190.2650 94.5056
" />
<path d="M190.2650 94.5056
L190.2174 94.6008
" />
<path d="M190.2174 94.6008
L190.2174 94.8389
" />
<path d="M190.2174 94.8389
L190.2650 94.9342
" />
<path d="M190.2650 94.9342
L190.3126 94.9818
" />
<path d="M190.7888 93.8389
L190.8364 93.9342
" />
<path d="M190.8364 93.9342
L190.8840 93.9818
" />
<path d="M190.8840 93.9818
L190.9793 94.0294
" />
<path d="M190.9793 94.0294
L191.0269 94.0294
" />
<path d="M191.0269 94.0294
L191.1221 93.9818
" />
<path d="M191.1221 93.9818
L191.1698 93.9342
" />
<path d="M191.1698 93.9342
L191.2174 93.8389
" />
<path d="M191.2174 93.8389
L191.2174 93.6485
" />
<path d="M191.2174 93.6485
L191.1698 93.5532
" />
<path d="M191.1698 93.5532
L191.1221 93.5056
" />
<path d="M191.1221 93.5056
L191.0269 93.4580
" />
<path d="M191.0269 93.4580
L190.9793 93.4580
" />
<path d="M190.9793 93.4580
L190.8840 93.5056
" />
<path d="M190.8840 93.5056
L190.8364 93.5532
" />
<path d="M190.8364 93.5532
L190.7888 93.6485
" />
<path d="M190.7888 93.6485
L190.7888 93.8389
" />
<path d="M190.7888 93.8389
L190.7412 93.9342
" />
<path d="M190.7412 93.9342
L190.6936 93.9818
" />
<path d="M190.6936 93.9818
L190.5983 94.0294
" />
<path d="M190.5983 94.0294
L190.4079 94.0294
" />
<path d="M190.4079 94.0294
L190.3126 93.9818
" />
<path d="M190.3126 93.9818
L190.2650 93.9342
" />
<path d="M190.2650 93.9342
L190.2174 93.8389
" />
<path d="M190.2174 93.8389
L190.2174 93.6485
" />
<path d="M190.2174 93.6485
L190.2650 93.5532
" />
<path d="M190.2650 93.5532
L190.3126 93.5056
" />
<path d="M190.3126 93.5056
L190.4079 93.4580
" />
<path d="M190.4079 93.4580
L190.5983 93.4580
" />
<path d="M190.5983 93.4580
L190.6936 93.5056
" />
<path d="M190.6936 93.5056
L190.7412 93.5532
" />
<path d="M190.7412 93.5532
L190.7888 93.6485
" />
<path d="M190.2174 92.2675
L190.8840 92.2675
" />
<path d="M190.7888 92.2675
L190.8364 92.2199
" />
<path d="M190.8364 92.2199
L190.8840 92.1246
" />
<path d="M190.8840 92.1246
L190.8840 91.9818
" />
<path d="M190.8840 91.9818
L190.8364 91.8866
" />
<path d="M190.8364 91.8866
L190.7412 91.8389
" />
<path d="M190.7412 91.8389
L190.2174 91.8389
" />
<path d="M190.7412 91.8389
L190.8364 91.7913
" />
<path d="M190.8364 91.7913
L190.8840 91.6961
" />
<path d="M190.8840 91.6961
L190.8840 91.5532
" />
<path d="M190.8840 91.5532
L190.8364 91.4580
" />
<path d="M190.8364 91.4580
L190.7412 91.4104
" />
<path d="M190.7412 91.4104
L190.2174 91.4104
" />
<path d="M190.2174 90.9342
L190.8840 90.9342
" />
<path d="M190.7888 90.9342
L190.8364 90.8866
" />
<path d="M190.8364 90.8866
L190.8840 90.7913
" />
<path d="M190.8840 90.7913
L190.8840 90.6485
" />
<path d="M190.8840 90.6485
L190.8364 90.5532
" />
<path d="M190.8364 90.5532
L190.7412 90.5056
" />
<path d="M190.7412 90.5056
L190.2174 90.5056
" />
<path d="M190.7412 90.5056
L190.8364 90.4580
" />
<path d="M190.8364 90.4580
L190.8840 90.3627
" />
<path d="M190.8840 90.3627
L190.8840 90.2199
" />
<path d="M190.8840 90.2199
L190.8364 90.1246
" />
<path d="M190.8364 90.1246
L190.7412 90.0770
" />
<path d="M190.7412 90.0770
L190.2174 90.0770
" />
</g></g>
<g style="fill:#000000; fill-opacity:0.0; 
stroke:#000000; stroke-width:0.1000; stroke-opacity:1; 
stroke-linecap:round; stroke-linejoin:round;">
<path d="M178.5222 63.5056
L190.1086 63.5056
" />
<path d="M178.5222 121.5056
L190.1086 121.5056
" />
<path d="M189.5222 63.5056
L189.5222 121.5056
" />
<path d="M189.5222 63.5056
L189.5222 121.5056
" />
<path d="M189.5222 63.5056
L188.9358 64.6321
" />
<path d="M189.5222 63.5056
L190.1086 64.6321
" />
<path d="M189.5222 121.5056
L190.1086 120.3791
" />
<path d="M189.5222 121.5056
L188.9358 120.3791
" />
</g>
<g style="fill:#000000; fill-opacity:0.0; 
stroke:#000000; stroke-width:0.1500; stroke-opacity:1; 
stroke-linecap:round; stroke-linejoin:round;">
<g transform="rotate(-90.000000 186.6722 78.0056)">
<text x="186.6722" y="78.5056"
textLength="5.5833" font-size="1.3333" lengthAdjust="spacingAndGlyphs"
text-anchor="middle" opacity="0">29 mm</text>
</g>
<g class="stroked-text"><desc>29 mm</desc>
<path d="M187.1221 80.4818
L187.1698 80.4342
" />
<path d="M187.1698 80.4342
L187.2174 80.3389
" />
<path d="M187.2174 80.3389
L187.2174 80.1008
" />
<path d="M187.2174 80.1008
L187.1698 80.0056
" />
<path d="M187.1698 80.0056
L187.1221 79.9580
" />
<path d="M187.1221 79.9580
L187.0269 79.9104
" />
<path d="M187.0269 79.9104
L186.9317 79.9104
" />
<path d="M186.9317 79.9104
L186.7888 79.9580
" />
<path d="M186.7888 79.9580
L186.2174 80.5294
" />
<path d="M186.2174 80.5294
L186.2174 79.9104
" />
<path d="M186.2174 79.4342
L186.2174 79.2437
" />
<path d="M186.2174 79.2437
L186.2650 79.1485
" />
<path d="M186.2650 79.1485
L186.3126 79.1008
" />
<path d="M186.3126 79.1008
L186.4555 79.0056
" />
<path d="M186.4555 79.0056
L186.6460 78.9580
" />
<path d="M186.6460 78.9580
L187.0269 78.9580
" />
<path d="M187.0269 78.9580
L187.1221 79.0056
" />
<path d="M187.1221 79.0056
L187.1698 79.0532
" />
<path d="M187.1698 79.0532
L187.2174 79.1485
" />
<path d="M187.2174 79.1485
L187.2174 79.3389
" />
<path d="M187.2174 79.3389
L187.1698 79.4342
" />
<path d="M187.1698 79.4342
L187.1221 79.4818
" />
<path d="M187.1221 79.4818
L187.0269 79.5294
" />
<path d="M187.0269 79.5294
L186.7888 79.5294
" />
<path d="M186.7888 79.5294
L186.6936 79.4818
" />
<path d="M186.6936 79.4818
L186.6460 79.4342
" />
<path d="M186.6460 79.4342
L186.5983 79.3389
" />
<path d="M186.5983 79.3389
L186.5983 79.1485
" />
<path d="M186.5983 79.1485
L186.6460 79.0532
" />
<path d="M186.6460 79.0532
L186.6936 79.0056
" />
<path d="M186.6936 79.0056
L186.7888 78.9580
" />
<path d="M186.2174 77.7675
L186.8840 77.7675
" />
<path d="M186.7888 77.7675
L186.8364 77.7199
" />
<path d="M186.8364 77.7199
L186.8840 77.6246
" />
<path d="M186.8840 77.6246
L186.8840 77.4818
" />
<path d="M186.8840 77.4818
L186.8364 77.3866
" />
<path d="M186.8364 77.3866
L186.7412 77.3389
" />
<path d="M186.7412 77.3389
L186.2174 77.3389
" />
<path d="M186.7412 77.3389
L186.8364 77.2913
" />
<path d="M186.8364 77.2913
L186.8840 77.1961
" />
<path d="M186.8840 77.1961
L186.8840 77.0532
" />
<path d="M186.8840 77.0532
L186.8364 76.9580
" />
<path d="M186.8364 76.9580
L186.7412 76.9104
" />
<path d="M186.7412 76.9104
L186.2174 76.9104
" />
<path d="M186.2174 76.4342
L186.8840 76.4342
" />
<path d="M186.7888 76.4342
L186.8364 76.3866
" />
<path d="M186.8364 76.3866
L186.8840 76.2913
" />
<path d="M186.8840 76.2913
L186.8840 76.1485
" />
<path d="M186.8840 76.1485
L186.8364 76.0532
" />
<path d="M186.8364 76.0532
L186.7412 76.0056
" />
<path d="M186.7412 76.0056
L186.2174 76.0056
" />
<path d="M186.7412 76.0056
L186.8364 75.9580
" />
<path d="M186.8364 75.9580
L186.8840 75.8627
" />
<path d="M186.8840 75.8627
L186.8840 75.7199
" />
<path d="M186.8840 75.7199
L186.8364 75.6246
" />
<path d="M186.8364 75.6246
L186.7412 75.5770
" />
<path d="M186.7412 75.5770
L186.2174 75.5770
" />
</g></g>
<g style="fill:#000000; fill-opacity:0.0; 
stroke:#000000; stroke-width:0.1000; stroke-opacity:1; 
stroke-linecap:round; stroke-linejoin:round;">
<path d="M178.5222 92.5056
L186.1086 92.5056
" />
<path d="M178.5222 63.5056
L186.1086 63.5056
" />
<path d="M185.5222 92.5056
L185.5222 63.5056
" />
<path d="M185.5222 92.5056
L185.5222 63.5056
" />
<path d="M185.5222 92.5056
L186.1086 91.3791
" />
<path d="M185.5222 92.5056
L184.9358 91.3791
" />
<path d="M185.5222 63.5056
L184.9358 64.6321
" />
<path d="M185.5222 63.5056
L186.1086 64.6321
" />
</g>
<g style="fill:#000000; fill-opacity:0.0; 
stroke:#000000; stroke-width:0.1500; stroke-opacity:1; 
stroke-linecap:round; stroke-linejoin:round;">
<g transform="rotate(-90.000000 195.1722 92.5056)">
<text x="195.1722" y="93.0056"
textLength="5.5833" font-size="1.3333" lengthAdjust="spacingAndGlyphs"
text-anchor="middle" opacity="0">65 mm</text>
</g>
<g class="stroked-text"><desc>65 mm</desc>
<path d="M195.7174 94.5056
L195.7174 94.6961
" />
<path d="M195.7174 94.6961
L195.6698 94.7913
" />
<path d="M195.6698 94.7913
L195.6221 94.8389
" />
<path d="M195.6221 94.8389
L195.4793 94.9342
" />
<path d="M195.4793 94.9342
L195.2888 94.9818
" />
<path d="M195.2888 94.9818
L194.9079 94.9818
" />
<path d="M194.9079 94.9818
L194.8126 94.9342
" />
<path d="M194.8126 94.9342
L194.7650 94.8866
" />
<path d="M194.7650 94.8866
L194.7174 94.7913
" />
<path d="M194.7174 94.7913
L194.7174 94.6008
" />
<path d="M194.7174 94.6008
L194.7650 94.5056
" />
<path d="M194.7650 94.5056
L194.8126 94.4580
" />
<path d="M194.8126 94.4580
L194.9079 94.4104
" />
<path d="M194.9079 94.4104
L195.1460 94.4104
" />
<path d="M195.1460 94.4104
L195.2412 94.4580
" />
<path d="M195.2412 94.4580
L195.2888 94.5056
" />
<path d="M195.2888 94.5056
L195.3364 94.6008
" />
<path d="M195.3364 94.6008
L195.3364 94.7913
" />
<path d="M195.3364 94.7913
L195.2888 94.8866
" />
<path d="M195.2888 94.8866
L195.2412 94.9342
" />
<path d="M195.2412 94.9342
L195.1460 94.9818
" />
<path d="M195.7174 93.5056
L195.7174 93.9818
" />
<path d="M195.7174 93.9818
L195.2412 94.0294
" />
<path d="M195.2412 94.0294
L195.2888 93.9818
" />
<path d="M195.2888 93.9818
L195.3364 93.8866
" />
<path d="M195.3364 93.8866
L195.3364 93.6485
" />
<path d="M195.3364 93.6485
L195.2888 93.5532
" />
<path d="M195.2888 93.5532
L195.2412 93.5056
" />
<path d="M195.2412 93.5056
L195.1460 93.4580
" />
<path d="M195.1460 93.4580
L194.9079 93.4580
" />
<path d="M194.9079 93.4580
L194.8126 93.5056
" />
<path d="M194.8126 93.5056
L194.7650 93.5532
" />
<path d="M194.7650 93.5532
L194.7174 93.6485
" />
<path d="M194.7174 93.6485
L194.7174 93.8866
" />
<path d="M194.7174 93.8866
L194.7650 93.9818
" />
<path d="M194.7650 93.9818
L194.8126 94.0294
" />
<path d="M194.7174 92.2675
L195.3840 92.2675
" />
<path d="M195.2888 92.2675
L195.3364 92.2199
" />
<path d="M195.3364 92.2199
L195.3840 92.1246
" />
<path d="M195.3840 92.1246
L195.3840 91.9818
" />
<path d="M195.3840 91.9818
L195.3364 91.8866
" />
<path d="M195.3364 91.8866
L195.2412 91.8389
" />
<path d="M195.2412 91.8389
L194.7174 91.8389
" />
<path d="M195.2412 91.8389
L195.3364 91.7913
" />
<path d="M195.3364 91.7913
L195.3840 91.6961
" />
<path d="M195.3840 91.6961
L195.3840 91.5532
" />
<path d="M195.3840 91.5532
L195.3364 91.4580
" />
<path d="M195.3364 91.4580
L195.2412 91.4104
" />
<path d="M195.2412 91.4104
L194.7174 91.4104
" />
<path d="M194.7174 90.9342
L195.3840 90.9342
" />
<path d="M195.2888 90.9342
L195.3364 90.8866
" />
<path d="M195.3364 90.8866
L195.3840 90.7913
" />
<path d="M195.3840 90.7913
L195.3840 90.6485
" />
<path d="M195.3840 90.6485
L195.3364 90.5532
" />
<path d="M195.3364 90.5532
L195.2412 90.5056
" />
<path d="M195.2412 90.5056
L194.7174 90.5056
" />
<path d="M195.2412 90.5056
L195.3364 90.4580
" />
<path d="M195.3364 90.4580
L195.3840 90.3627
" />
<path d="M195.3840 90.3627
L195.3840 90.2199
" />
<path d="M195.3840 90.2199
L195.3364 90.1246
" />
<path d="M195.3364 90.1246
L195.2412 90.0770
" />
<path d="M195.2412 90.0770
L194.7174 90.0770
" />
</g></g>
<g style="fill:#000000; fill-opacity:0.0; 
stroke:#000000; stroke-width:0.1000; stroke-opacity:1; 
stroke-linecap:round; stroke-linejoin:round;">
<path d="M178.5222 125.0056
L194.6086 125.0056
" />
<path d="M178.5222 60.0056
L194.6086 60.0056
" />
<path d="M194.0222 125.0056
L194.0222 60.0056
" />
<path d="M194.0222 125.0056
L194.0222 60.0056
" />
<path d="M194.0222 125.0056
L194.6086 123.8791
" />
<path d="M194.0222 125.0056
L193.4358 123.8791
" />
<path d="M194.0222 60.0056
L193.4358 61.1321
" />
<path d="M194.0222 60.0056
L194.6086 61.1321
" />
<g >
</g>
<g >
</g>
<g >
</g>
<g >
</g>
<g >
</g>
<g >
</g>
<g >
</g>
<g >
</g>
<g >
</g>
<g >
</g>
<g >
</g>
<g >
</g>
<g >
</g>
<g >
</g>
<g >
</g>
<g >
</g>
<g >
</g>
<g >
</g>
<g >
</g>
<g >
</g>
<g >
</g>
<g >
</g>
<g >
</g>
<g >
</g>
<g >
</g>
<g >
</g>
<g >
</g>
<g >
</g>
<g >
</g>
<g >
</g>
<g >
</g>
<g >
</g>
<g >
</g>
<g >
</g>
<g >
</g>
<g >
</g>
<g >
</g>
<g >
</g>
<g >
</g>
<g >
</g>
<g >
</g>
<g >
</g>
<g >
</g>
<g >
</g>
<g >
</g>
<g >
</g>
<g >
</g>
<g >
</g>
<g >
</g>
<g >
</g>
<g >
</g>
<g >
</g>
<g >
</g>
<g >
</g>
<g >
</g>
<g >
</g>
<g >
</g>
<g >
</g>
<g >
</g>
<g >
</g>
<g >
</g>
<g >
</g>
<g >
</g>
<g >
</g>
<g >
</g>
<g >
</g>
<g >
</g>
<g >
</g>
<g >
</g>
<g >
</g>
<g >
</g>
<g >
</g>
<g >
</g>
<g >
</g>
<g >
</g>
<g >
</g>
<g >
</g>
<g >
</g>
<g >
</g>
<g >
</g>
<g >
</g>
<g >
</g>
<g >
</g>
<g >
</g>
<g >
</g>
<g >
</g>
</g> 
</svg>
