M48
INCH,TZ
T1C0.0157
T2C0.0157
T3C0.0200
T4C0.0315
T5C0.0315
T6C0.0374
T7C0.0394
T8C0.0402
T9C0.0520
T10C0.0551
T11C0.0591
T12C0.1024
%
G90
G05
T1
X9528Y-27362
X9528Y-47835
X14094Y-27362
X14567Y-48268
X16299Y-49882
X16969Y-45354
X17244Y-47835
X17579Y-40079
X17864Y-39449
X18268Y-10276
X18996Y-10276
X22264Y-13238
X26457Y-17323
X27165Y-19528
X28740Y-18189
X29723Y-19270
X31147Y-18420
X36260Y-17323
X37008Y-19528
X39055Y-27402
X39055Y-47835
X43130Y-45591
X43622Y-27520
X43622Y-47835
X45197Y-46024
X46142Y-17323
X46850Y-19528
X51772Y-16811
X51781Y-16191
X56004Y-17323
X56693Y-19528
X56850Y-22244
X57717Y-21654
X57717Y-22795
X58583Y-22244
X58937Y-17756
X58937Y-18661
X67161Y-46265
X68583Y-27323
X68583Y-47835
X70394Y-36929
X73150Y-27362
X73150Y-47815
T3
X50000Y-18898
X50000Y-19685
T4
X30787Y-19685
X32087Y-18228
X50394Y-24803
X51417Y-17953
T5
X11417Y-22047
X11417Y-22835
X11417Y-50394
X11417Y-51181
X12205Y-22047
X12205Y-22835
X12205Y-50394
X12205Y-51181
X40945Y-29921
X40945Y-30709
X40945Y-42520
X40945Y-43307
X41732Y-29921
X41732Y-30709
X41732Y-42520
X41732Y-43307
X70472Y-22047
X70472Y-22835
X70472Y-50394
X70472Y-51181
X71260Y-22047
X71260Y-22835
X71260Y-50394
X71260Y-51181
T6
X17559Y-11211
X17559Y-14262
X18543Y-11211
X18543Y-14262
X19528Y-11211
X19528Y-14262
T7
X15315Y-48876
X15315Y-49876
X15315Y-50876
X19524Y-40858
X19524Y-41858
X20524Y-40858
X20524Y-41858
X21524Y-40858
X21524Y-41858
X22524Y-40858
X22524Y-41858
X23524Y-40858
X23524Y-41858
X23720Y-12402
X23720Y-13386
X23720Y-14370
X24524Y-40858
X24524Y-41858
X25524Y-40858
X25524Y-41858
X26524Y-40858
X26524Y-41858
X27524Y-40858
X27524Y-41858
X28524Y-40858
X28524Y-41858
X29429Y-12402
X29429Y-14370
X29524Y-40858
X29524Y-41858
X30524Y-40858
X30524Y-41858
X31524Y-40858
X31524Y-41858
X32524Y-40858
X32524Y-41858
X33524Y-40858
X33524Y-41858
X34524Y-40858
X34524Y-41858
X35524Y-40858
X35524Y-41858
X36524Y-40858
X36524Y-41858
X37524Y-40858
X37524Y-41858
X38524Y-40858
X38524Y-41858
X44734Y-35496
X44734Y-36496
X44734Y-37496
X44734Y-38496
X46343Y-26920
X46343Y-27920
X46343Y-28920
X46343Y-29920
X46343Y-30920
X46343Y-31920
X46343Y-32920
X46343Y-33920
X46343Y-34920
X46343Y-35920
X46343Y-36920
X46343Y-37920
X46343Y-38920
X46343Y-39920
X46343Y-40920
X46343Y-41920
X46343Y-42920
X46343Y-43920
X46343Y-44920
X46343Y-45920
X47343Y-26920
X47343Y-27920
X47343Y-28920
X47343Y-29920
X47343Y-30920
X47343Y-31920
X47343Y-32920
X47343Y-33920
X47343Y-34920
X47343Y-35920
X47343Y-36920
X47343Y-37920
X47343Y-38920
X47343Y-39920
X47343Y-40920
X47343Y-41920
X47343Y-42920
X47343Y-43920
X47343Y-44920
X47343Y-45920
X53179Y-22563
X53179Y-23563
X53248Y-12402
X53248Y-13386
X53248Y-14370
X58957Y-12402
X58957Y-14370
X59992Y-46910
X59992Y-47910
X60636Y-29467
X60636Y-30467
X60636Y-31467
X60992Y-46910
X60992Y-47910
X61636Y-29467
X61636Y-30467
X61636Y-31467
X61992Y-46910
X61992Y-47910
T8
X31051Y-15791
X31051Y-22791
X32051Y-15791
X32051Y-22791
X33051Y-15791
X33051Y-22791
X34051Y-15791
X34051Y-22791
X35051Y-15791
X35051Y-22791
X36051Y-15791
X36051Y-22791
X37051Y-15791
X37051Y-22791
X38051Y-15791
X38051Y-22791
X39051Y-15791
X39051Y-22791
X40051Y-15791
X40051Y-22791
X41051Y-15791
X41051Y-22791
X42051Y-15791
X42051Y-22791
X43051Y-15791
X43051Y-22791
X44051Y-15791
X44051Y-22791
X45051Y-15791
X45051Y-22791
X46051Y-15791
X46051Y-22791
X47051Y-15791
X47051Y-22791
X48051Y-15791
X48051Y-22791
X49051Y-15791
X49051Y-22791
X50051Y-15791
X50051Y-22791
T9
X34057Y-12598
X35042Y-8661
X35042Y-13583
X36026Y-8661
X37010Y-12598
X37994Y-8661
X38979Y-8661
X38979Y-13583
X39963Y-12598
X42717Y-12598
X43701Y-8661
X43701Y-13583
X44685Y-8661
X45669Y-12598
X46654Y-8661
X47638Y-8661
X47638Y-13583
X48622Y-12598
T10
X8543Y-37390
X8543Y-43780
X8557Y-29437
X8557Y-35827
X11043Y-37390
X11043Y-43780
X11057Y-29437
X11057Y-35827
X13543Y-37390
X13543Y-43780
X13557Y-29437
X13557Y-35827
X69134Y-29441
X69134Y-35831
X69134Y-37400
X69134Y-43789
X69140Y-13307
X69140Y-19697
X71634Y-29441
X71634Y-35831
X71634Y-37400
X71634Y-43789
X71640Y-13307
X71640Y-19697
X74134Y-29441
X74134Y-35831
X74134Y-37400
X74134Y-43789
X74140Y-13307
X74140Y-19697
T11
X49295Y-25920
X49295Y-29920
X49295Y-33920
X57295Y-28920
X57295Y-30920
X57295Y-33920
T12
X26673Y-11181
X26673Y-15591
X56201Y-11181
X56201Y-15591
T2
G00X35039Y-11417
M15
G01X35039Y-11811
M16
G05
G00X36024Y-11417
M15
G01X36024Y-11811
M16
G05
G00X37205Y-9646
M15
G01X36811Y-9646
M16
G05
G00X37992Y-11811
M15
G01X37992Y-11417
M16
G05
G00X38976Y-11811
M15
G01X38976Y-11417
M16
G05
G00X43701Y-11417
M15
G01X43701Y-11811
M16
G05
G00X44685Y-11417
M15
G01X44685Y-11811
M16
G05
G00X45866Y-9646
M15
G01X45472Y-9646
M16
G05
G00X46654Y-11811
M15
G01X46654Y-11417
M16
G05
G00X47638Y-11811
M15
G01X47638Y-11417
M16
G05
T5
G00X68740Y-10354
M15
G01X68740Y-11220
M16
G05
G00X71063Y-9685
M15
G01X70197Y-9685
M16
G05
G00X71142Y-11969
M15
G01X70118Y-11969
M16
G05
T0
M30
