M48
INCH,TZ
T1C0.0118
T2C0.0118
T3C0.0138
T4C0.0157
T5C0.0177
T6C0.0256
T7C0.0276
T8C0.0295
T9C0.0315
T10C0.0315
T11C0.0374
T12C0.0394
T13C0.0512
T14C0.0520
T15C0.0551
T16C0.0906
T17C0.1024
%
G90
G05
T1
X40024Y-17091
X40079Y-17937
X43289Y-17908
X58898Y-18067
T2
X62035Y-16437
X62035Y-16949
X62547Y-16437
X62547Y-16949
X63059Y-16437
X63059Y-16949
X63571Y-16437
X63571Y-16949
T3
X41781Y-17451
X41781Y-17953
X41781Y-18455
X42283Y-17451
X42283Y-17953
X42283Y-18455
X42785Y-17451
X42785Y-17953
X42785Y-18455
T4
X9165Y-11807
X9177Y-10650
X9528Y-27362
X9528Y-47835
X11315Y-8386
X12457Y-8654
X12980Y-11858
X13256Y-8634
X13811Y-11449
X14094Y-27362
X14307Y-8374
X14567Y-48268
X15807Y-21453
X15823Y-22882
X15961Y-10118
X16398Y-45697
X16626Y-46018
X17169Y-18280
X17181Y-22984
X18370Y-19453
X18508Y-18165
X18512Y-16228
X18844Y-17181
X18854Y-21350
X19419Y-16482
X19551Y-15197
X19618Y-21346
X19760Y-42724
X19772Y-42331
X19902Y-24130
X20362Y-21366
X20571Y-18118
X20920Y-23028
X21299Y-20445
X21402Y-21083
X21423Y-16451
X21776Y-19984
X21850Y-29528
X21850Y-30709
X21850Y-31693
X21850Y-32677
X21850Y-33661
X21850Y-34646
X21850Y-35630
X21850Y-36614
X21850Y-37598
X21882Y-19201
X22047Y-16485
X22659Y-23194
X23248Y-21929
X23319Y-19185
X23406Y-17651
X23618Y-19984
X24280Y-19256
X24413Y-17331
X24543Y-23146
X25165Y-17575
X25189Y-20303
X25689Y-21232
X30332Y-10911
X30455Y-15768
X30510Y-11278
X30622Y-13327
X30967Y-11729
X31274Y-11465
X32555Y-21354
X32559Y-35591
X32677Y-36102
X32756Y-33622
X32795Y-34168
X32815Y-35138
X32835Y-34685
X32884Y-36501
X32992Y-35586
X33071Y-32717
X33100Y-33342
X33124Y-33893
X33268Y-34488
X33347Y-33031
X33583Y-30512
X33583Y-30906
X33819Y-34134
X34094Y-31614
X34134Y-29764
X35236Y-32087
X35236Y-34488
X35236Y-36811
X35236Y-37795
X36677Y-21343
X36697Y-30354
X36732Y-19606
X36890Y-37607
X37018Y-34223
X37126Y-30433
X37327Y-31642
X37521Y-36875
X37613Y-33816
X37723Y-36538
X37756Y-32402
X37818Y-32913
X37913Y-35275
X37953Y-31772
X38001Y-30617
X38228Y-34291
X38268Y-15768
X38346Y-32677
X38386Y-33386
X38390Y-36371
X38458Y-35590
X38543Y-18213
X38566Y-17632
X38628Y-16043
X38759Y-32378
X38802Y-36299
X38944Y-34567
X38992Y-16693
X39039Y-27130
X39055Y-47835
X39223Y-31103
X39291Y-35906
X39945Y-21618
X40102Y-16223
X40756Y-21346
X40817Y-20157
X41689Y-15610
X41720Y-23008
X41725Y-21910
X41772Y-22328
X41772Y-23398
X42028Y-29878
X42472Y-38063
X42567Y-16192
X42736Y-20945
X42764Y-37795
X42780Y-20150
X42795Y-23454
X42982Y-23107
X43117Y-22737
X43169Y-37638
X43392Y-22390
X43457Y-15399
X43622Y-27150
X43622Y-47835
X43888Y-30801
X44048Y-16791
X44407Y-17887
X44430Y-16697
X44439Y-30783
X44449Y-20231
X44493Y-30340
X44744Y-16459
X44843Y-19331
X44984Y-31382
X45969Y-17764
X46137Y-21904
X46220Y-18504
X47587Y-19803
X48819Y-18583
X48925Y-19854
X49134Y-22323
X50118Y-22323
X52672Y-11279
X53057Y-21575
X54607Y-21844
X54817Y-17504
X55427Y-21594
X56313Y-13340
X56437Y-20804
X56497Y-19804
X56707Y-20514
X58209Y-19764
X60098Y-19555
X60335Y-20024
X60343Y-20949
X60433Y-13976
X60433Y-14567
X60433Y-15157
X60433Y-15748
X60433Y-16339
X60433Y-16929
X60433Y-17520
X60764Y-10984
X60886Y-19555
X61024Y-13976
X61024Y-14567
X61213Y-20575
X61220Y-9055
X61220Y-9843
X61220Y-10630
X61220Y-12598
X61811Y-12598
X61811Y-19555
X62008Y-9055
X62047Y-20571
X62795Y-9055
X62850Y-20587
X63583Y-9055
X63583Y-18504
X63583Y-19291
X63591Y-20587
X64567Y-12598
X64567Y-13976
X64567Y-14764
X65157Y-13976
X65157Y-14764
X65157Y-15551
X65157Y-16339
X65157Y-17126
X65157Y-17913
X65748Y-12008
X65748Y-12598
X65748Y-13976
X65748Y-14764
X65748Y-15551
X65748Y-16339
X65748Y-17126
X65748Y-17913
X66339Y-12008
X66520Y-20496
X66535Y-19685
X66929Y-10236
X67520Y-8858
X68583Y-27323
X68583Y-47835
X70394Y-36929
X73150Y-27362
X73150Y-47815
T8
X25209Y-9252
X25996Y-9252
X26783Y-9252
X28724Y-9248
X29512Y-9248
X30299Y-9248
T9
X14311Y-9213
X31437Y-28531
X35307Y-28512
X35878Y-28528
X36472Y-28512
X37031Y-28535
X40915Y-16211
X47707Y-20834
X48937Y-23783
X49575Y-23783
X50205Y-23780
X50835Y-23780
X67000Y-13427
T11
X18142Y-12500
X19126Y-12500
X19913Y-12500
X20898Y-12500
T12
X23720Y-12402
X23720Y-13386
X23720Y-14370
X29429Y-12402
X29429Y-14370
X40215Y-32008
X41215Y-32008
X42215Y-32008
X46343Y-26920
X46343Y-27920
X46343Y-28920
X46343Y-29920
X46343Y-30920
X46343Y-31920
X46343Y-32920
X46343Y-33920
X46343Y-34920
X46343Y-35920
X46343Y-36920
X46343Y-37920
X46343Y-38920
X46343Y-39920
X46343Y-40920
X46343Y-41920
X46343Y-42920
X46343Y-43920
X46343Y-44920
X46343Y-45920
X47343Y-26920
X47343Y-27920
X47343Y-28920
X47343Y-29920
X47343Y-30920
X47343Y-31920
X47343Y-32920
X47343Y-33920
X47343Y-34920
X47343Y-35920
X47343Y-36920
X47343Y-37920
X47343Y-38920
X47343Y-39920
X47343Y-40920
X47343Y-41920
X47343Y-42920
X47343Y-43920
X47343Y-44920
X47343Y-45920
X50911Y-17500
X51911Y-17500
X52911Y-17500
X53248Y-12402
X53248Y-13386
X53248Y-14370
X58957Y-12402
X58957Y-14370
X59992Y-46910
X59992Y-47910
X60636Y-29467
X60636Y-30467
X60636Y-31467
X60992Y-46910
X60992Y-47910
X61636Y-29467
X61636Y-30467
X61636Y-31467
X61992Y-46910
X61992Y-47910
T13
X70276Y-9138
X70276Y-11106
T14
X32480Y-12598
X33465Y-8661
X33465Y-13583
X34449Y-8661
X35433Y-12598
X36417Y-8661
X37402Y-8661
X37402Y-13583
X38386Y-12598
X44291Y-12598
X45276Y-8661
X45276Y-13583
X46260Y-8661
X47244Y-12598
X48228Y-8661
X49213Y-8661
X49213Y-13583
X50197Y-12598
T15
X8543Y-13295
X8543Y-19685
X8543Y-29437
X8543Y-35827
X8543Y-37390
X8543Y-43780
X11043Y-13295
X11043Y-19685
X11043Y-29437
X11043Y-35827
X11043Y-37390
X11043Y-43780
X13543Y-13295
X13543Y-19685
X13543Y-29437
X13543Y-35827
X13543Y-37390
X13543Y-43780
X69134Y-29441
X69134Y-35831
X69134Y-37400
X69134Y-43789
X69140Y-13307
X69140Y-19697
X71634Y-29441
X71634Y-35831
X71634Y-37400
X71634Y-43789
X71640Y-13307
X71640Y-19697
X74134Y-29441
X74134Y-35831
X74134Y-37400
X74134Y-43789
X74140Y-13307
X74140Y-19697
T16
X16933Y-11433
X22106Y-11433
T17
X26673Y-11181
X26673Y-15591
X56201Y-11181
X56201Y-15591
T5
G00X33462Y-11427
M15
G01X33462Y-11801
M16
G05
G00X34447Y-11427
M15
G01X34447Y-11801
M16
G05
G00X35618Y-9646
M15
G01X35244Y-9646
M16
G05
G00X36415Y-11801
M15
G01X36415Y-11427
M16
G05
G00X37399Y-11801
M15
G01X37399Y-11427
M16
G05
G00X45276Y-11427
M15
G01X45276Y-11801
M16
G05
G00X46260Y-11427
M15
G01X46260Y-11801
M16
G05
G00X47431Y-9646
M15
G01X47057Y-9646
M16
G05
G00X48228Y-11801
M15
G01X48228Y-11427
M16
G05
G00X49213Y-11801
M15
G01X49213Y-11427
M16
G05
T6
G00X8801Y-21281
M15
G01X8959Y-21281
M16
G05
G00X8801Y-23187
M15
G01X8959Y-23187
M16
G05
T7
G00X7600Y-21159
M15
G01X7797Y-21159
M16
G05
G00X7600Y-23309
M15
G01X7797Y-23309
M16
G05
T10
G00X68740Y-10354
M15
G01X68740Y-11220
M16
G05
G00X71063Y-9685
M15
G01X70197Y-9685
M16
G05
G00X71142Y-11969
M15
G01X70118Y-11969
M16
G05
M30
