M48
INCH,TZ
T1C0.0157
T2C0.0157
T3C0.0200
T4C0.0315
T5C0.0394
T6C0.0402
T7C0.0520
T8C0.0551
T9C0.0591
T10C0.1024
%
G90
G05
T1
X15748Y-41693
X18228Y-42913
X18543Y-45787
X70394Y-36929
T3
X50000Y-18898
X50000Y-19685
T4
X15354Y-25984
X15354Y-26772
X15354Y-46457
X15354Y-47244
X16142Y-25984
X16142Y-26772
X16142Y-46457
X16142Y-47244
X37008Y-25984
X37008Y-26772
X37795Y-25984
X37795Y-26772
X40945Y-42520
X40945Y-43307
X41732Y-42520
X41732Y-43307
X66535Y-25984
X66535Y-26772
X66535Y-46457
X66535Y-47244
X67323Y-25984
X67323Y-26772
X67323Y-46457
X67323Y-47244
T5
X13035Y-12195
X13035Y-13195
X13035Y-14195
X14035Y-12195
X14035Y-13195
X14035Y-14195
X19524Y-40858
X19524Y-41858
X19994Y-32662
X20524Y-40858
X20524Y-41858
X20994Y-32662
X21524Y-40858
X21524Y-41858
X21994Y-32662
X22524Y-40858
X22524Y-41858
X23524Y-40858
X23524Y-41858
X23720Y-12402
X23720Y-13386
X23720Y-14370
X24524Y-40858
X24524Y-41858
X25524Y-40858
X25524Y-41858
X26524Y-40858
X26524Y-41858
X27524Y-40858
X27524Y-41858
X28524Y-40858
X28524Y-41858
X29429Y-12402
X29429Y-14370
X29524Y-40858
X29524Y-41858
X30524Y-40858
X30524Y-41858
X31524Y-40858
X31524Y-41858
X32524Y-40858
X32524Y-41858
X33524Y-40858
X33524Y-41858
X34524Y-40858
X34524Y-41858
X35524Y-40858
X35524Y-41858
X36524Y-40858
X36524Y-41858
X37524Y-40858
X37524Y-41858
X38524Y-40858
X38524Y-41858
X44734Y-35496
X44734Y-36496
X44734Y-37496
X44734Y-38496
X46343Y-26920
X46343Y-27920
X46343Y-28920
X46343Y-29920
X46343Y-30920
X46343Y-31920
X46343Y-32920
X46343Y-33920
X46343Y-34920
X46343Y-35920
X46343Y-36920
X46343Y-37920
X46343Y-38920
X46343Y-39920
X46343Y-40920
X46343Y-41920
X46343Y-42920
X46343Y-43920
X46343Y-44920
X46343Y-45920
X47343Y-26920
X47343Y-27920
X47343Y-28920
X47343Y-29920
X47343Y-30920
X47343Y-31920
X47343Y-32920
X47343Y-33920
X47343Y-34920
X47343Y-35920
X47343Y-36920
X47343Y-37920
X47343Y-38920
X47343Y-39920
X47343Y-40920
X47343Y-41920
X47343Y-42920
X47343Y-43920
X47343Y-44920
X47343Y-45920
X53248Y-12402
X53248Y-13386
X53248Y-14370
X53331Y-22510
X54331Y-22510
X58957Y-12402
X58957Y-14370
X59992Y-46910
X59992Y-47910
X60636Y-29467
X60636Y-30467
X60636Y-31467
X60992Y-46910
X60992Y-47910
X61636Y-29467
X61636Y-30467
X61636Y-31467
X61992Y-46910
X61992Y-47910
T6
X31051Y-15791
X31051Y-22791
X32051Y-15791
X32051Y-22791
X33051Y-15791
X33051Y-22791
X34051Y-15791
X34051Y-22791
X35051Y-15791
X35051Y-22791
X36051Y-15791
X36051Y-22791
X37051Y-15791
X37051Y-22791
X38051Y-15791
X38051Y-22791
X39051Y-15791
X39051Y-22791
X40051Y-15791
X40051Y-22791
X41051Y-15791
X41051Y-22791
X42051Y-15791
X42051Y-22791
X43051Y-15791
X43051Y-22791
X44051Y-15791
X44051Y-22791
X45051Y-15791
X45051Y-22791
X46051Y-15791
X46051Y-22791
X47051Y-15791
X47051Y-22791
X48051Y-15791
X48051Y-22791
X49051Y-15791
X49051Y-22791
X50051Y-15791
X50051Y-22791
T7
X34057Y-12598
X35042Y-8661
X35042Y-13583
X36026Y-8661
X37010Y-12598
X37994Y-8661
X38979Y-8661
X38979Y-13583
X39963Y-12598
X42717Y-12598
X43701Y-8661
X43701Y-13583
X44685Y-8661
X45669Y-12598
X46654Y-8661
X47638Y-8661
X47638Y-13583
X48622Y-12598
T8
X8543Y-37390
X8543Y-43780
X8557Y-29437
X8557Y-35827
X11043Y-37390
X11043Y-43780
X11057Y-29437
X11057Y-35827
X13543Y-37390
X13543Y-43780
X13557Y-29437
X13557Y-35827
X69134Y-29441
X69134Y-35831
X69134Y-37400
X69134Y-43789
X69140Y-13307
X69140Y-19697
X71634Y-29441
X71634Y-35831
X71634Y-37400
X71634Y-43789
X71640Y-13307
X71640Y-19697
X74134Y-29441
X74134Y-35831
X74134Y-37400
X74134Y-43789
X74140Y-13307
X74140Y-19697
T9
X49071Y-36157
X52071Y-28157
X53071Y-36157
X54071Y-28157
X57071Y-28157
X57071Y-36157
T10
X26673Y-11181
X26673Y-15591
X56201Y-11181
X56201Y-15591
T2
G00X35039Y-11417
M15
G01X35039Y-11811
M16
G05
G00X36024Y-11417
M15
G01X36024Y-11811
M16
G05
G00X37205Y-9646
M15
G01X36811Y-9646
M16
G05
G00X37992Y-11811
M15
G01X37992Y-11417
M16
G05
G00X38976Y-11811
M15
G01X38976Y-11417
M16
G05
G00X43701Y-11417
M15
G01X43701Y-11811
M16
G05
G00X44685Y-11417
M15
G01X44685Y-11811
M16
G05
G00X45866Y-9646
M15
G01X45472Y-9646
M16
G05
G00X46654Y-11811
M15
G01X46654Y-11417
M16
G05
G00X47638Y-11811
M15
G01X47638Y-11417
M16
G05
T4
G00X68740Y-10354
M15
G01X68740Y-11220
M16
G05
G00X71063Y-9685
M15
G01X70197Y-9685
M16
G05
G00X71142Y-11969
M15
G01X70118Y-11969
M16
G05
T0
M30
