G04 #@! TF.GenerationSoftware,KiCad,Pcbnew,7.0.9-7.0.9~ubuntu23.04.1*
G04 #@! TF.CreationDate,2024-01-07T15:09:49+00:00*
G04 #@! TF.ProjectId,pedalboard-hw,70656461-6c62-46f6-9172-642d68772e6b,3.2.0-RC1*
G04 #@! TF.SameCoordinates,Original*
G04 #@! TF.FileFunction,Legend,Bot*
G04 #@! TF.FilePolarity,Positive*
%FSLAX46Y46*%
G04 Gerber Fmt 4.6, Leading zero omitted, Abs format (unit mm)*
G04 Created by KiCad (PCBNEW 7.0.9-7.0.9~ubuntu23.04.1) date 2024-01-07 15:09:49*
%MOMM*%
%LPD*%
G01*
G04 APERTURE LIST*
%ADD10C,0.150000*%
%ADD11C,0.120000*%
%ADD12C,0.100000*%
G04 APERTURE END LIST*
D10*
G36*
X22164819Y-46880323D02*
G01*
X22126648Y-46994835D01*
X22052534Y-47068948D01*
X21975547Y-47107442D01*
X21802013Y-47150826D01*
X21677624Y-47150826D01*
X21504090Y-47107442D01*
X21427103Y-47068949D01*
X21352990Y-46994836D01*
X21314819Y-46880322D01*
X21314819Y-46729398D01*
X22164819Y-46729398D01*
X22164819Y-46880323D01*
G37*
G36*
X22457676Y-47443683D02*
G01*
X21021962Y-47443683D01*
X21021962Y-46892493D01*
X21164819Y-46892493D01*
X21165379Y-46894031D01*
X21168668Y-46916210D01*
X21216287Y-47059067D01*
X21219074Y-47062579D01*
X21219465Y-47067046D01*
X21234405Y-47088383D01*
X21329643Y-47183621D01*
X21331124Y-47184311D01*
X21349135Y-47197670D01*
X21444373Y-47245289D01*
X21447901Y-47245695D01*
X21459724Y-47250968D01*
X21650200Y-47298587D01*
X21653648Y-47298226D01*
X21668390Y-47300826D01*
X21811247Y-47300826D01*
X21814504Y-47299640D01*
X21829437Y-47298587D01*
X22019913Y-47250968D01*
X22022857Y-47248979D01*
X22035264Y-47245289D01*
X22130502Y-47197670D01*
X22131625Y-47196483D01*
X22149994Y-47183621D01*
X22245233Y-47088383D01*
X22247128Y-47084318D01*
X22250948Y-47081972D01*
X22263351Y-47059067D01*
X22310970Y-46916211D01*
X22310925Y-46914575D01*
X22314819Y-46892493D01*
X22314819Y-46654398D01*
X22308155Y-46636089D01*
X22304771Y-46616898D01*
X22299586Y-46612547D01*
X22297272Y-46606189D01*
X22280398Y-46596446D01*
X22265471Y-46583921D01*
X22255728Y-46582203D01*
X22252843Y-46580537D01*
X22249560Y-46581115D01*
X22239819Y-46579398D01*
X21239819Y-46579398D01*
X21221510Y-46586061D01*
X21202319Y-46589446D01*
X21197968Y-46594630D01*
X21191610Y-46596945D01*
X21181867Y-46613818D01*
X21169342Y-46628746D01*
X21167624Y-46638488D01*
X21165958Y-46641374D01*
X21166536Y-46644656D01*
X21164819Y-46654398D01*
X21164819Y-46892493D01*
X21021962Y-46892493D01*
X21021962Y-45607113D01*
X21164820Y-45607113D01*
X21171510Y-45625244D01*
X21174867Y-45644279D01*
X21180179Y-45648736D01*
X21182580Y-45655243D01*
X21202609Y-45671897D01*
X21957402Y-46103207D01*
X21239819Y-46103207D01*
X21191610Y-46120754D01*
X21165958Y-46165183D01*
X21174867Y-46215707D01*
X21214167Y-46248684D01*
X21239819Y-46253207D01*
X22239819Y-46253207D01*
X22246336Y-46250834D01*
X22253172Y-46252009D01*
X22269869Y-46242269D01*
X22288028Y-46235660D01*
X22291495Y-46229655D01*
X22297487Y-46226160D01*
X22304016Y-46207968D01*
X22313680Y-46191231D01*
X22312475Y-46184399D01*
X22314818Y-46177873D01*
X22308127Y-46159741D01*
X22304771Y-46140707D01*
X22299458Y-46136249D01*
X22297058Y-46129743D01*
X22277030Y-46113089D01*
X21522236Y-45681779D01*
X22239819Y-45681779D01*
X22288028Y-45664232D01*
X22313680Y-45619803D01*
X22304771Y-45569279D01*
X22265471Y-45536302D01*
X22239819Y-45531779D01*
X21239819Y-45531779D01*
X21233302Y-45534150D01*
X21226467Y-45532977D01*
X21209769Y-45542716D01*
X21191610Y-45549326D01*
X21188142Y-45555331D01*
X21182151Y-45558826D01*
X21175621Y-45577017D01*
X21165958Y-45593755D01*
X21167162Y-45600586D01*
X21164820Y-45607113D01*
X21021962Y-45607113D01*
X21021962Y-45035350D01*
X21164819Y-45035350D01*
X21166352Y-45039563D01*
X21165311Y-45043924D01*
X21172737Y-45068891D01*
X21220356Y-45164129D01*
X21257610Y-45199401D01*
X21308820Y-45202476D01*
X21350026Y-45171912D01*
X21361946Y-45122013D01*
X21354520Y-45097047D01*
X21314819Y-45017645D01*
X21314819Y-44904663D01*
X21352990Y-44790149D01*
X21427103Y-44716037D01*
X21504090Y-44677543D01*
X21677624Y-44634160D01*
X21802013Y-44634160D01*
X21975547Y-44677543D01*
X22052534Y-44716037D01*
X22126648Y-44790150D01*
X22164819Y-44904663D01*
X22164819Y-44975561D01*
X22126648Y-45090073D01*
X22113514Y-45103207D01*
X21886247Y-45103207D01*
X21886247Y-44987731D01*
X21868700Y-44939522D01*
X21824271Y-44913870D01*
X21773747Y-44922779D01*
X21740770Y-44962079D01*
X21736247Y-44987731D01*
X21736247Y-45178207D01*
X21742910Y-45196515D01*
X21746295Y-45215707D01*
X21751479Y-45220057D01*
X21753794Y-45226416D01*
X21770667Y-45236158D01*
X21785595Y-45248684D01*
X21795337Y-45250401D01*
X21798223Y-45252068D01*
X21801505Y-45251489D01*
X21811247Y-45253207D01*
X22144580Y-45253207D01*
X22159963Y-45247607D01*
X22176275Y-45246181D01*
X22189689Y-45236788D01*
X22192789Y-45235660D01*
X22193798Y-45233910D01*
X22197612Y-45231241D01*
X22245232Y-45183622D01*
X22247127Y-45179557D01*
X22250948Y-45177210D01*
X22263351Y-45154305D01*
X22310970Y-45011449D01*
X22310925Y-45009813D01*
X22314819Y-44987731D01*
X22314819Y-44892493D01*
X22314259Y-44890955D01*
X22310970Y-44868775D01*
X22263351Y-44725919D01*
X22260564Y-44722408D01*
X22260174Y-44717940D01*
X22245233Y-44696603D01*
X22149994Y-44601365D01*
X22148512Y-44600674D01*
X22130502Y-44587316D01*
X22035264Y-44539697D01*
X22031735Y-44539290D01*
X22019913Y-44534018D01*
X21829437Y-44486399D01*
X21825988Y-44486759D01*
X21811247Y-44484160D01*
X21668390Y-44484160D01*
X21665132Y-44485345D01*
X21650200Y-44486399D01*
X21459724Y-44534018D01*
X21456779Y-44536006D01*
X21444373Y-44539697D01*
X21349135Y-44587316D01*
X21348011Y-44588502D01*
X21329643Y-44601365D01*
X21234405Y-44696603D01*
X21232510Y-44700666D01*
X21228689Y-44703014D01*
X21216287Y-44725919D01*
X21168668Y-44868776D01*
X21168712Y-44870410D01*
X21164819Y-44892493D01*
X21164819Y-45035350D01*
X21021962Y-45035350D01*
X21021962Y-44341303D01*
X22457676Y-44341303D01*
X22457676Y-47443683D01*
G37*
G36*
X78901077Y-27167675D02*
G01*
X77417745Y-27167675D01*
X77417745Y-26949819D01*
X77560602Y-26949819D01*
X77562973Y-26956335D01*
X77561800Y-26963171D01*
X77571539Y-26979868D01*
X77578149Y-26998028D01*
X77584154Y-27001495D01*
X77587649Y-27007487D01*
X77605840Y-27014016D01*
X77622578Y-27023680D01*
X77629409Y-27022475D01*
X77635936Y-27024818D01*
X77654067Y-27018127D01*
X77673102Y-27014771D01*
X77677559Y-27009458D01*
X77684066Y-27007058D01*
X77700720Y-26987029D01*
X78132030Y-26232235D01*
X78132030Y-26949819D01*
X78149577Y-26998028D01*
X78194006Y-27023680D01*
X78244530Y-27014771D01*
X78277507Y-26975471D01*
X78282030Y-26949819D01*
X78608220Y-26949819D01*
X78625767Y-26998028D01*
X78670196Y-27023680D01*
X78720720Y-27014771D01*
X78753697Y-26975471D01*
X78758220Y-26949819D01*
X78758220Y-25949819D01*
X78740673Y-25901610D01*
X78696244Y-25875958D01*
X78645720Y-25884867D01*
X78612743Y-25924167D01*
X78608220Y-25949819D01*
X78608220Y-26949819D01*
X78282030Y-26949819D01*
X78282030Y-25949819D01*
X78279657Y-25943301D01*
X78280832Y-25936466D01*
X78271092Y-25919768D01*
X78264483Y-25901610D01*
X78258478Y-25898142D01*
X78254983Y-25892151D01*
X78236791Y-25885621D01*
X78220054Y-25875958D01*
X78213222Y-25877162D01*
X78206696Y-25874820D01*
X78188564Y-25881510D01*
X78169530Y-25884867D01*
X78165072Y-25890179D01*
X78158566Y-25892580D01*
X78141912Y-25912608D01*
X77710602Y-26667402D01*
X77710602Y-25949819D01*
X77693055Y-25901610D01*
X77648626Y-25875958D01*
X77598102Y-25884867D01*
X77565125Y-25924167D01*
X77560602Y-25949819D01*
X77560602Y-26949819D01*
X77417745Y-26949819D01*
X77417745Y-25731963D01*
X78901077Y-25731963D01*
X78901077Y-27167675D01*
G37*
G36*
X188784819Y-38900323D02*
G01*
X188746648Y-39014835D01*
X188672534Y-39088948D01*
X188595547Y-39127442D01*
X188422013Y-39170826D01*
X188297624Y-39170826D01*
X188124090Y-39127442D01*
X188047103Y-39088949D01*
X187972990Y-39014836D01*
X187934819Y-38900322D01*
X187934819Y-38749398D01*
X188784819Y-38749398D01*
X188784819Y-38900323D01*
G37*
G36*
X189077676Y-39463683D02*
G01*
X187641962Y-39463683D01*
X187641962Y-38912493D01*
X187784819Y-38912493D01*
X187785379Y-38914031D01*
X187788668Y-38936210D01*
X187836287Y-39079067D01*
X187839074Y-39082579D01*
X187839465Y-39087046D01*
X187854405Y-39108383D01*
X187949643Y-39203621D01*
X187951124Y-39204311D01*
X187969135Y-39217670D01*
X188064373Y-39265289D01*
X188067901Y-39265695D01*
X188079724Y-39270968D01*
X188270200Y-39318587D01*
X188273648Y-39318226D01*
X188288390Y-39320826D01*
X188431247Y-39320826D01*
X188434504Y-39319640D01*
X188449437Y-39318587D01*
X188639913Y-39270968D01*
X188642857Y-39268979D01*
X188655264Y-39265289D01*
X188750502Y-39217670D01*
X188751625Y-39216483D01*
X188769994Y-39203621D01*
X188865233Y-39108383D01*
X188867128Y-39104318D01*
X188870948Y-39101972D01*
X188883351Y-39079067D01*
X188930970Y-38936211D01*
X188930925Y-38934575D01*
X188934819Y-38912493D01*
X188934819Y-38674398D01*
X188928155Y-38656089D01*
X188924771Y-38636898D01*
X188919586Y-38632547D01*
X188917272Y-38626189D01*
X188900398Y-38616446D01*
X188885471Y-38603921D01*
X188875728Y-38602203D01*
X188872843Y-38600537D01*
X188869560Y-38601115D01*
X188859819Y-38599398D01*
X187859819Y-38599398D01*
X187841510Y-38606061D01*
X187822319Y-38609446D01*
X187817968Y-38614630D01*
X187811610Y-38616945D01*
X187801867Y-38633818D01*
X187789342Y-38648746D01*
X187787624Y-38658488D01*
X187785958Y-38661374D01*
X187786536Y-38664656D01*
X187784819Y-38674398D01*
X187784819Y-38912493D01*
X187641962Y-38912493D01*
X187641962Y-37627113D01*
X187784820Y-37627113D01*
X187791510Y-37645244D01*
X187794867Y-37664279D01*
X187800179Y-37668736D01*
X187802580Y-37675243D01*
X187822609Y-37691897D01*
X188577402Y-38123207D01*
X187859819Y-38123207D01*
X187811610Y-38140754D01*
X187785958Y-38185183D01*
X187794867Y-38235707D01*
X187834167Y-38268684D01*
X187859819Y-38273207D01*
X188859819Y-38273207D01*
X188866336Y-38270834D01*
X188873172Y-38272009D01*
X188889869Y-38262269D01*
X188908028Y-38255660D01*
X188911495Y-38249655D01*
X188917487Y-38246160D01*
X188924016Y-38227968D01*
X188933680Y-38211231D01*
X188932475Y-38204399D01*
X188934818Y-38197873D01*
X188928127Y-38179741D01*
X188924771Y-38160707D01*
X188919458Y-38156249D01*
X188917058Y-38149743D01*
X188897030Y-38133089D01*
X188142236Y-37701779D01*
X188859819Y-37701779D01*
X188908028Y-37684232D01*
X188933680Y-37639803D01*
X188924771Y-37589279D01*
X188885471Y-37556302D01*
X188859819Y-37551779D01*
X187859819Y-37551779D01*
X187853302Y-37554150D01*
X187846467Y-37552977D01*
X187829769Y-37562716D01*
X187811610Y-37569326D01*
X187808142Y-37575331D01*
X187802151Y-37578826D01*
X187795621Y-37597017D01*
X187785958Y-37613755D01*
X187787162Y-37620586D01*
X187784820Y-37627113D01*
X187641962Y-37627113D01*
X187641962Y-37055350D01*
X187784819Y-37055350D01*
X187786352Y-37059563D01*
X187785311Y-37063924D01*
X187792737Y-37088891D01*
X187840356Y-37184129D01*
X187877610Y-37219401D01*
X187928820Y-37222476D01*
X187970026Y-37191912D01*
X187981946Y-37142013D01*
X187974520Y-37117047D01*
X187934819Y-37037645D01*
X187934819Y-36924663D01*
X187972990Y-36810149D01*
X188047103Y-36736037D01*
X188124090Y-36697543D01*
X188297624Y-36654160D01*
X188422013Y-36654160D01*
X188595547Y-36697543D01*
X188672534Y-36736037D01*
X188746648Y-36810150D01*
X188784819Y-36924663D01*
X188784819Y-36995561D01*
X188746648Y-37110073D01*
X188733514Y-37123207D01*
X188506247Y-37123207D01*
X188506247Y-37007731D01*
X188488700Y-36959522D01*
X188444271Y-36933870D01*
X188393747Y-36942779D01*
X188360770Y-36982079D01*
X188356247Y-37007731D01*
X188356247Y-37198207D01*
X188362910Y-37216515D01*
X188366295Y-37235707D01*
X188371479Y-37240057D01*
X188373794Y-37246416D01*
X188390667Y-37256158D01*
X188405595Y-37268684D01*
X188415337Y-37270401D01*
X188418223Y-37272068D01*
X188421505Y-37271489D01*
X188431247Y-37273207D01*
X188764580Y-37273207D01*
X188779963Y-37267607D01*
X188796275Y-37266181D01*
X188809689Y-37256788D01*
X188812789Y-37255660D01*
X188813798Y-37253910D01*
X188817612Y-37251241D01*
X188865232Y-37203622D01*
X188867127Y-37199557D01*
X188870948Y-37197210D01*
X188883351Y-37174305D01*
X188930970Y-37031449D01*
X188930925Y-37029813D01*
X188934819Y-37007731D01*
X188934819Y-36912493D01*
X188934259Y-36910955D01*
X188930970Y-36888775D01*
X188883351Y-36745919D01*
X188880564Y-36742408D01*
X188880174Y-36737940D01*
X188865233Y-36716603D01*
X188769994Y-36621365D01*
X188768512Y-36620674D01*
X188750502Y-36607316D01*
X188655264Y-36559697D01*
X188651735Y-36559290D01*
X188639913Y-36554018D01*
X188449437Y-36506399D01*
X188445988Y-36506759D01*
X188431247Y-36504160D01*
X188288390Y-36504160D01*
X188285132Y-36505345D01*
X188270200Y-36506399D01*
X188079724Y-36554018D01*
X188076779Y-36556006D01*
X188064373Y-36559697D01*
X187969135Y-36607316D01*
X187968011Y-36608502D01*
X187949643Y-36621365D01*
X187854405Y-36716603D01*
X187852510Y-36720666D01*
X187848689Y-36723014D01*
X187836287Y-36745919D01*
X187788668Y-36888776D01*
X187788712Y-36890410D01*
X187784819Y-36912493D01*
X187784819Y-37055350D01*
X187641962Y-37055350D01*
X187641962Y-36361303D01*
X189077676Y-36361303D01*
X189077676Y-39463683D01*
G37*
X61472744Y-53649819D02*
X61282268Y-53649819D01*
X61282268Y-53649819D02*
X61187030Y-53697438D01*
X61187030Y-53697438D02*
X61091792Y-53792676D01*
X61091792Y-53792676D02*
X61044173Y-53983152D01*
X61044173Y-53983152D02*
X61044173Y-54316485D01*
X61044173Y-54316485D02*
X61091792Y-54506961D01*
X61091792Y-54506961D02*
X61187030Y-54602200D01*
X61187030Y-54602200D02*
X61282268Y-54649819D01*
X61282268Y-54649819D02*
X61472744Y-54649819D01*
X61472744Y-54649819D02*
X61567982Y-54602200D01*
X61567982Y-54602200D02*
X61663220Y-54506961D01*
X61663220Y-54506961D02*
X61710839Y-54316485D01*
X61710839Y-54316485D02*
X61710839Y-53983152D01*
X61710839Y-53983152D02*
X61663220Y-53792676D01*
X61663220Y-53792676D02*
X61567982Y-53697438D01*
X61567982Y-53697438D02*
X61472744Y-53649819D01*
X60615601Y-53983152D02*
X60615601Y-54983152D01*
X60615601Y-54030771D02*
X60520363Y-53983152D01*
X60520363Y-53983152D02*
X60329887Y-53983152D01*
X60329887Y-53983152D02*
X60234649Y-54030771D01*
X60234649Y-54030771D02*
X60187030Y-54078390D01*
X60187030Y-54078390D02*
X60139411Y-54173628D01*
X60139411Y-54173628D02*
X60139411Y-54459342D01*
X60139411Y-54459342D02*
X60187030Y-54554580D01*
X60187030Y-54554580D02*
X60234649Y-54602200D01*
X60234649Y-54602200D02*
X60329887Y-54649819D01*
X60329887Y-54649819D02*
X60520363Y-54649819D01*
X60520363Y-54649819D02*
X60615601Y-54602200D01*
X59329887Y-54602200D02*
X59425125Y-54649819D01*
X59425125Y-54649819D02*
X59615601Y-54649819D01*
X59615601Y-54649819D02*
X59710839Y-54602200D01*
X59710839Y-54602200D02*
X59758458Y-54506961D01*
X59758458Y-54506961D02*
X59758458Y-54126009D01*
X59758458Y-54126009D02*
X59710839Y-54030771D01*
X59710839Y-54030771D02*
X59615601Y-53983152D01*
X59615601Y-53983152D02*
X59425125Y-53983152D01*
X59425125Y-53983152D02*
X59329887Y-54030771D01*
X59329887Y-54030771D02*
X59282268Y-54126009D01*
X59282268Y-54126009D02*
X59282268Y-54221247D01*
X59282268Y-54221247D02*
X59758458Y-54316485D01*
X58853696Y-53983152D02*
X58853696Y-54649819D01*
X58853696Y-54078390D02*
X58806077Y-54030771D01*
X58806077Y-54030771D02*
X58710839Y-53983152D01*
X58710839Y-53983152D02*
X58567982Y-53983152D01*
X58567982Y-53983152D02*
X58472744Y-54030771D01*
X58472744Y-54030771D02*
X58425125Y-54126009D01*
X58425125Y-54126009D02*
X58425125Y-54649819D01*
X57187029Y-54649819D02*
X57187029Y-53649819D01*
X57187029Y-53649819D02*
X56806077Y-53649819D01*
X56806077Y-53649819D02*
X56710839Y-53697438D01*
X56710839Y-53697438D02*
X56663220Y-53745057D01*
X56663220Y-53745057D02*
X56615601Y-53840295D01*
X56615601Y-53840295D02*
X56615601Y-53983152D01*
X56615601Y-53983152D02*
X56663220Y-54078390D01*
X56663220Y-54078390D02*
X56710839Y-54126009D01*
X56710839Y-54126009D02*
X56806077Y-54173628D01*
X56806077Y-54173628D02*
X57187029Y-54173628D01*
X55806077Y-54602200D02*
X55901315Y-54649819D01*
X55901315Y-54649819D02*
X56091791Y-54649819D01*
X56091791Y-54649819D02*
X56187029Y-54602200D01*
X56187029Y-54602200D02*
X56234648Y-54506961D01*
X56234648Y-54506961D02*
X56234648Y-54126009D01*
X56234648Y-54126009D02*
X56187029Y-54030771D01*
X56187029Y-54030771D02*
X56091791Y-53983152D01*
X56091791Y-53983152D02*
X55901315Y-53983152D01*
X55901315Y-53983152D02*
X55806077Y-54030771D01*
X55806077Y-54030771D02*
X55758458Y-54126009D01*
X55758458Y-54126009D02*
X55758458Y-54221247D01*
X55758458Y-54221247D02*
X56234648Y-54316485D01*
X54901315Y-54649819D02*
X54901315Y-53649819D01*
X54901315Y-54602200D02*
X54996553Y-54649819D01*
X54996553Y-54649819D02*
X55187029Y-54649819D01*
X55187029Y-54649819D02*
X55282267Y-54602200D01*
X55282267Y-54602200D02*
X55329886Y-54554580D01*
X55329886Y-54554580D02*
X55377505Y-54459342D01*
X55377505Y-54459342D02*
X55377505Y-54173628D01*
X55377505Y-54173628D02*
X55329886Y-54078390D01*
X55329886Y-54078390D02*
X55282267Y-54030771D01*
X55282267Y-54030771D02*
X55187029Y-53983152D01*
X55187029Y-53983152D02*
X54996553Y-53983152D01*
X54996553Y-53983152D02*
X54901315Y-54030771D01*
X53996553Y-54649819D02*
X53996553Y-54126009D01*
X53996553Y-54126009D02*
X54044172Y-54030771D01*
X54044172Y-54030771D02*
X54139410Y-53983152D01*
X54139410Y-53983152D02*
X54329886Y-53983152D01*
X54329886Y-53983152D02*
X54425124Y-54030771D01*
X53996553Y-54602200D02*
X54091791Y-54649819D01*
X54091791Y-54649819D02*
X54329886Y-54649819D01*
X54329886Y-54649819D02*
X54425124Y-54602200D01*
X54425124Y-54602200D02*
X54472743Y-54506961D01*
X54472743Y-54506961D02*
X54472743Y-54411723D01*
X54472743Y-54411723D02*
X54425124Y-54316485D01*
X54425124Y-54316485D02*
X54329886Y-54268866D01*
X54329886Y-54268866D02*
X54091791Y-54268866D01*
X54091791Y-54268866D02*
X53996553Y-54221247D01*
X53377505Y-54649819D02*
X53472743Y-54602200D01*
X53472743Y-54602200D02*
X53520362Y-54506961D01*
X53520362Y-54506961D02*
X53520362Y-53649819D01*
X52996552Y-54649819D02*
X52996552Y-53649819D01*
X52996552Y-54030771D02*
X52901314Y-53983152D01*
X52901314Y-53983152D02*
X52710838Y-53983152D01*
X52710838Y-53983152D02*
X52615600Y-54030771D01*
X52615600Y-54030771D02*
X52567981Y-54078390D01*
X52567981Y-54078390D02*
X52520362Y-54173628D01*
X52520362Y-54173628D02*
X52520362Y-54459342D01*
X52520362Y-54459342D02*
X52567981Y-54554580D01*
X52567981Y-54554580D02*
X52615600Y-54602200D01*
X52615600Y-54602200D02*
X52710838Y-54649819D01*
X52710838Y-54649819D02*
X52901314Y-54649819D01*
X52901314Y-54649819D02*
X52996552Y-54602200D01*
X51948933Y-54649819D02*
X52044171Y-54602200D01*
X52044171Y-54602200D02*
X52091790Y-54554580D01*
X52091790Y-54554580D02*
X52139409Y-54459342D01*
X52139409Y-54459342D02*
X52139409Y-54173628D01*
X52139409Y-54173628D02*
X52091790Y-54078390D01*
X52091790Y-54078390D02*
X52044171Y-54030771D01*
X52044171Y-54030771D02*
X51948933Y-53983152D01*
X51948933Y-53983152D02*
X51806076Y-53983152D01*
X51806076Y-53983152D02*
X51710838Y-54030771D01*
X51710838Y-54030771D02*
X51663219Y-54078390D01*
X51663219Y-54078390D02*
X51615600Y-54173628D01*
X51615600Y-54173628D02*
X51615600Y-54459342D01*
X51615600Y-54459342D02*
X51663219Y-54554580D01*
X51663219Y-54554580D02*
X51710838Y-54602200D01*
X51710838Y-54602200D02*
X51806076Y-54649819D01*
X51806076Y-54649819D02*
X51948933Y-54649819D01*
X50758457Y-54649819D02*
X50758457Y-54126009D01*
X50758457Y-54126009D02*
X50806076Y-54030771D01*
X50806076Y-54030771D02*
X50901314Y-53983152D01*
X50901314Y-53983152D02*
X51091790Y-53983152D01*
X51091790Y-53983152D02*
X51187028Y-54030771D01*
X50758457Y-54602200D02*
X50853695Y-54649819D01*
X50853695Y-54649819D02*
X51091790Y-54649819D01*
X51091790Y-54649819D02*
X51187028Y-54602200D01*
X51187028Y-54602200D02*
X51234647Y-54506961D01*
X51234647Y-54506961D02*
X51234647Y-54411723D01*
X51234647Y-54411723D02*
X51187028Y-54316485D01*
X51187028Y-54316485D02*
X51091790Y-54268866D01*
X51091790Y-54268866D02*
X50853695Y-54268866D01*
X50853695Y-54268866D02*
X50758457Y-54221247D01*
X50282266Y-54649819D02*
X50282266Y-53983152D01*
X50282266Y-54173628D02*
X50234647Y-54078390D01*
X50234647Y-54078390D02*
X50187028Y-54030771D01*
X50187028Y-54030771D02*
X50091790Y-53983152D01*
X50091790Y-53983152D02*
X49996552Y-53983152D01*
X49234647Y-54649819D02*
X49234647Y-53649819D01*
X49234647Y-54602200D02*
X49329885Y-54649819D01*
X49329885Y-54649819D02*
X49520361Y-54649819D01*
X49520361Y-54649819D02*
X49615599Y-54602200D01*
X49615599Y-54602200D02*
X49663218Y-54554580D01*
X49663218Y-54554580D02*
X49710837Y-54459342D01*
X49710837Y-54459342D02*
X49710837Y-54173628D01*
X49710837Y-54173628D02*
X49663218Y-54078390D01*
X49663218Y-54078390D02*
X49615599Y-54030771D01*
X49615599Y-54030771D02*
X49520361Y-53983152D01*
X49520361Y-53983152D02*
X49329885Y-53983152D01*
X49329885Y-53983152D02*
X49234647Y-54030771D01*
X47996551Y-54649819D02*
X47996551Y-53649819D01*
X47996551Y-53649819D02*
X47663218Y-54364104D01*
X47663218Y-54364104D02*
X47329885Y-53649819D01*
X47329885Y-53649819D02*
X47329885Y-54649819D01*
X46425123Y-54649819D02*
X46425123Y-54126009D01*
X46425123Y-54126009D02*
X46472742Y-54030771D01*
X46472742Y-54030771D02*
X46567980Y-53983152D01*
X46567980Y-53983152D02*
X46758456Y-53983152D01*
X46758456Y-53983152D02*
X46853694Y-54030771D01*
X46425123Y-54602200D02*
X46520361Y-54649819D01*
X46520361Y-54649819D02*
X46758456Y-54649819D01*
X46758456Y-54649819D02*
X46853694Y-54602200D01*
X46853694Y-54602200D02*
X46901313Y-54506961D01*
X46901313Y-54506961D02*
X46901313Y-54411723D01*
X46901313Y-54411723D02*
X46853694Y-54316485D01*
X46853694Y-54316485D02*
X46758456Y-54268866D01*
X46758456Y-54268866D02*
X46520361Y-54268866D01*
X46520361Y-54268866D02*
X46425123Y-54221247D01*
X45948932Y-54649819D02*
X45948932Y-53983152D01*
X45948932Y-53649819D02*
X45996551Y-53697438D01*
X45996551Y-53697438D02*
X45948932Y-53745057D01*
X45948932Y-53745057D02*
X45901313Y-53697438D01*
X45901313Y-53697438D02*
X45948932Y-53649819D01*
X45948932Y-53649819D02*
X45948932Y-53745057D01*
X45472742Y-53983152D02*
X45472742Y-54649819D01*
X45472742Y-54078390D02*
X45425123Y-54030771D01*
X45425123Y-54030771D02*
X45329885Y-53983152D01*
X45329885Y-53983152D02*
X45187028Y-53983152D01*
X45187028Y-53983152D02*
X45091790Y-54030771D01*
X45091790Y-54030771D02*
X45044171Y-54126009D01*
X45044171Y-54126009D02*
X45044171Y-54649819D01*
X44567980Y-54649819D02*
X44567980Y-53649819D01*
X44567980Y-54030771D02*
X44472742Y-53983152D01*
X44472742Y-53983152D02*
X44282266Y-53983152D01*
X44282266Y-53983152D02*
X44187028Y-54030771D01*
X44187028Y-54030771D02*
X44139409Y-54078390D01*
X44139409Y-54078390D02*
X44091790Y-54173628D01*
X44091790Y-54173628D02*
X44091790Y-54459342D01*
X44091790Y-54459342D02*
X44139409Y-54554580D01*
X44139409Y-54554580D02*
X44187028Y-54602200D01*
X44187028Y-54602200D02*
X44282266Y-54649819D01*
X44282266Y-54649819D02*
X44472742Y-54649819D01*
X44472742Y-54649819D02*
X44567980Y-54602200D01*
X43520361Y-54649819D02*
X43615599Y-54602200D01*
X43615599Y-54602200D02*
X43663218Y-54554580D01*
X43663218Y-54554580D02*
X43710837Y-54459342D01*
X43710837Y-54459342D02*
X43710837Y-54173628D01*
X43710837Y-54173628D02*
X43663218Y-54078390D01*
X43663218Y-54078390D02*
X43615599Y-54030771D01*
X43615599Y-54030771D02*
X43520361Y-53983152D01*
X43520361Y-53983152D02*
X43377504Y-53983152D01*
X43377504Y-53983152D02*
X43282266Y-54030771D01*
X43282266Y-54030771D02*
X43234647Y-54078390D01*
X43234647Y-54078390D02*
X43187028Y-54173628D01*
X43187028Y-54173628D02*
X43187028Y-54459342D01*
X43187028Y-54459342D02*
X43234647Y-54554580D01*
X43234647Y-54554580D02*
X43282266Y-54602200D01*
X43282266Y-54602200D02*
X43377504Y-54649819D01*
X43377504Y-54649819D02*
X43520361Y-54649819D01*
X42329885Y-54649819D02*
X42329885Y-54126009D01*
X42329885Y-54126009D02*
X42377504Y-54030771D01*
X42377504Y-54030771D02*
X42472742Y-53983152D01*
X42472742Y-53983152D02*
X42663218Y-53983152D01*
X42663218Y-53983152D02*
X42758456Y-54030771D01*
X42329885Y-54602200D02*
X42425123Y-54649819D01*
X42425123Y-54649819D02*
X42663218Y-54649819D01*
X42663218Y-54649819D02*
X42758456Y-54602200D01*
X42758456Y-54602200D02*
X42806075Y-54506961D01*
X42806075Y-54506961D02*
X42806075Y-54411723D01*
X42806075Y-54411723D02*
X42758456Y-54316485D01*
X42758456Y-54316485D02*
X42663218Y-54268866D01*
X42663218Y-54268866D02*
X42425123Y-54268866D01*
X42425123Y-54268866D02*
X42329885Y-54221247D01*
X41853694Y-54649819D02*
X41853694Y-53983152D01*
X41853694Y-54173628D02*
X41806075Y-54078390D01*
X41806075Y-54078390D02*
X41758456Y-54030771D01*
X41758456Y-54030771D02*
X41663218Y-53983152D01*
X41663218Y-53983152D02*
X41567980Y-53983152D01*
X40806075Y-54649819D02*
X40806075Y-53649819D01*
X40806075Y-54602200D02*
X40901313Y-54649819D01*
X40901313Y-54649819D02*
X41091789Y-54649819D01*
X41091789Y-54649819D02*
X41187027Y-54602200D01*
X41187027Y-54602200D02*
X41234646Y-54554580D01*
X41234646Y-54554580D02*
X41282265Y-54459342D01*
X41282265Y-54459342D02*
X41282265Y-54173628D01*
X41282265Y-54173628D02*
X41234646Y-54078390D01*
X41234646Y-54078390D02*
X41187027Y-54030771D01*
X41187027Y-54030771D02*
X41091789Y-53983152D01*
X41091789Y-53983152D02*
X40901313Y-53983152D01*
X40901313Y-53983152D02*
X40806075Y-54030771D01*
X61663220Y-56259819D02*
X61663220Y-55259819D01*
X61234649Y-56259819D02*
X61234649Y-55736009D01*
X61234649Y-55736009D02*
X61282268Y-55640771D01*
X61282268Y-55640771D02*
X61377506Y-55593152D01*
X61377506Y-55593152D02*
X61520363Y-55593152D01*
X61520363Y-55593152D02*
X61615601Y-55640771D01*
X61615601Y-55640771D02*
X61663220Y-55688390D01*
X60901315Y-55593152D02*
X60520363Y-55593152D01*
X60758458Y-55259819D02*
X60758458Y-56116961D01*
X60758458Y-56116961D02*
X60710839Y-56212200D01*
X60710839Y-56212200D02*
X60615601Y-56259819D01*
X60615601Y-56259819D02*
X60520363Y-56259819D01*
X60329886Y-55593152D02*
X59948934Y-55593152D01*
X60187029Y-55259819D02*
X60187029Y-56116961D01*
X60187029Y-56116961D02*
X60139410Y-56212200D01*
X60139410Y-56212200D02*
X60044172Y-56259819D01*
X60044172Y-56259819D02*
X59948934Y-56259819D01*
X59615600Y-55593152D02*
X59615600Y-56593152D01*
X59615600Y-55640771D02*
X59520362Y-55593152D01*
X59520362Y-55593152D02*
X59329886Y-55593152D01*
X59329886Y-55593152D02*
X59234648Y-55640771D01*
X59234648Y-55640771D02*
X59187029Y-55688390D01*
X59187029Y-55688390D02*
X59139410Y-55783628D01*
X59139410Y-55783628D02*
X59139410Y-56069342D01*
X59139410Y-56069342D02*
X59187029Y-56164580D01*
X59187029Y-56164580D02*
X59234648Y-56212200D01*
X59234648Y-56212200D02*
X59329886Y-56259819D01*
X59329886Y-56259819D02*
X59520362Y-56259819D01*
X59520362Y-56259819D02*
X59615600Y-56212200D01*
X58758457Y-56212200D02*
X58663219Y-56259819D01*
X58663219Y-56259819D02*
X58472743Y-56259819D01*
X58472743Y-56259819D02*
X58377505Y-56212200D01*
X58377505Y-56212200D02*
X58329886Y-56116961D01*
X58329886Y-56116961D02*
X58329886Y-56069342D01*
X58329886Y-56069342D02*
X58377505Y-55974104D01*
X58377505Y-55974104D02*
X58472743Y-55926485D01*
X58472743Y-55926485D02*
X58615600Y-55926485D01*
X58615600Y-55926485D02*
X58710838Y-55878866D01*
X58710838Y-55878866D02*
X58758457Y-55783628D01*
X58758457Y-55783628D02*
X58758457Y-55736009D01*
X58758457Y-55736009D02*
X58710838Y-55640771D01*
X58710838Y-55640771D02*
X58615600Y-55593152D01*
X58615600Y-55593152D02*
X58472743Y-55593152D01*
X58472743Y-55593152D02*
X58377505Y-55640771D01*
X57901314Y-56164580D02*
X57853695Y-56212200D01*
X57853695Y-56212200D02*
X57901314Y-56259819D01*
X57901314Y-56259819D02*
X57948933Y-56212200D01*
X57948933Y-56212200D02*
X57901314Y-56164580D01*
X57901314Y-56164580D02*
X57901314Y-56259819D01*
X57901314Y-55640771D02*
X57853695Y-55688390D01*
X57853695Y-55688390D02*
X57901314Y-55736009D01*
X57901314Y-55736009D02*
X57948933Y-55688390D01*
X57948933Y-55688390D02*
X57901314Y-55640771D01*
X57901314Y-55640771D02*
X57901314Y-55736009D01*
X56710839Y-55212200D02*
X57567981Y-56497914D01*
X55663220Y-55212200D02*
X56520362Y-56497914D01*
X54901315Y-55593152D02*
X54901315Y-56402676D01*
X54901315Y-56402676D02*
X54948934Y-56497914D01*
X54948934Y-56497914D02*
X54996553Y-56545533D01*
X54996553Y-56545533D02*
X55091791Y-56593152D01*
X55091791Y-56593152D02*
X55234648Y-56593152D01*
X55234648Y-56593152D02*
X55329886Y-56545533D01*
X54901315Y-56212200D02*
X54996553Y-56259819D01*
X54996553Y-56259819D02*
X55187029Y-56259819D01*
X55187029Y-56259819D02*
X55282267Y-56212200D01*
X55282267Y-56212200D02*
X55329886Y-56164580D01*
X55329886Y-56164580D02*
X55377505Y-56069342D01*
X55377505Y-56069342D02*
X55377505Y-55783628D01*
X55377505Y-55783628D02*
X55329886Y-55688390D01*
X55329886Y-55688390D02*
X55282267Y-55640771D01*
X55282267Y-55640771D02*
X55187029Y-55593152D01*
X55187029Y-55593152D02*
X54996553Y-55593152D01*
X54996553Y-55593152D02*
X54901315Y-55640771D01*
X54425124Y-56259819D02*
X54425124Y-55593152D01*
X54425124Y-55259819D02*
X54472743Y-55307438D01*
X54472743Y-55307438D02*
X54425124Y-55355057D01*
X54425124Y-55355057D02*
X54377505Y-55307438D01*
X54377505Y-55307438D02*
X54425124Y-55259819D01*
X54425124Y-55259819D02*
X54425124Y-55355057D01*
X54091791Y-55593152D02*
X53710839Y-55593152D01*
X53948934Y-55259819D02*
X53948934Y-56116961D01*
X53948934Y-56116961D02*
X53901315Y-56212200D01*
X53901315Y-56212200D02*
X53806077Y-56259819D01*
X53806077Y-56259819D02*
X53710839Y-56259819D01*
X53377505Y-56259819D02*
X53377505Y-55259819D01*
X52948934Y-56259819D02*
X52948934Y-55736009D01*
X52948934Y-55736009D02*
X52996553Y-55640771D01*
X52996553Y-55640771D02*
X53091791Y-55593152D01*
X53091791Y-55593152D02*
X53234648Y-55593152D01*
X53234648Y-55593152D02*
X53329886Y-55640771D01*
X53329886Y-55640771D02*
X53377505Y-55688390D01*
X52044172Y-55593152D02*
X52044172Y-56259819D01*
X52472743Y-55593152D02*
X52472743Y-56116961D01*
X52472743Y-56116961D02*
X52425124Y-56212200D01*
X52425124Y-56212200D02*
X52329886Y-56259819D01*
X52329886Y-56259819D02*
X52187029Y-56259819D01*
X52187029Y-56259819D02*
X52091791Y-56212200D01*
X52091791Y-56212200D02*
X52044172Y-56164580D01*
X51567981Y-56259819D02*
X51567981Y-55259819D01*
X51567981Y-55640771D02*
X51472743Y-55593152D01*
X51472743Y-55593152D02*
X51282267Y-55593152D01*
X51282267Y-55593152D02*
X51187029Y-55640771D01*
X51187029Y-55640771D02*
X51139410Y-55688390D01*
X51139410Y-55688390D02*
X51091791Y-55783628D01*
X51091791Y-55783628D02*
X51091791Y-56069342D01*
X51091791Y-56069342D02*
X51139410Y-56164580D01*
X51139410Y-56164580D02*
X51187029Y-56212200D01*
X51187029Y-56212200D02*
X51282267Y-56259819D01*
X51282267Y-56259819D02*
X51472743Y-56259819D01*
X51472743Y-56259819D02*
X51567981Y-56212200D01*
X50663219Y-56164580D02*
X50615600Y-56212200D01*
X50615600Y-56212200D02*
X50663219Y-56259819D01*
X50663219Y-56259819D02*
X50710838Y-56212200D01*
X50710838Y-56212200D02*
X50663219Y-56164580D01*
X50663219Y-56164580D02*
X50663219Y-56259819D01*
X49758458Y-56212200D02*
X49853696Y-56259819D01*
X49853696Y-56259819D02*
X50044172Y-56259819D01*
X50044172Y-56259819D02*
X50139410Y-56212200D01*
X50139410Y-56212200D02*
X50187029Y-56164580D01*
X50187029Y-56164580D02*
X50234648Y-56069342D01*
X50234648Y-56069342D02*
X50234648Y-55783628D01*
X50234648Y-55783628D02*
X50187029Y-55688390D01*
X50187029Y-55688390D02*
X50139410Y-55640771D01*
X50139410Y-55640771D02*
X50044172Y-55593152D01*
X50044172Y-55593152D02*
X49853696Y-55593152D01*
X49853696Y-55593152D02*
X49758458Y-55640771D01*
X49187029Y-56259819D02*
X49282267Y-56212200D01*
X49282267Y-56212200D02*
X49329886Y-56164580D01*
X49329886Y-56164580D02*
X49377505Y-56069342D01*
X49377505Y-56069342D02*
X49377505Y-55783628D01*
X49377505Y-55783628D02*
X49329886Y-55688390D01*
X49329886Y-55688390D02*
X49282267Y-55640771D01*
X49282267Y-55640771D02*
X49187029Y-55593152D01*
X49187029Y-55593152D02*
X49044172Y-55593152D01*
X49044172Y-55593152D02*
X48948934Y-55640771D01*
X48948934Y-55640771D02*
X48901315Y-55688390D01*
X48901315Y-55688390D02*
X48853696Y-55783628D01*
X48853696Y-55783628D02*
X48853696Y-56069342D01*
X48853696Y-56069342D02*
X48901315Y-56164580D01*
X48901315Y-56164580D02*
X48948934Y-56212200D01*
X48948934Y-56212200D02*
X49044172Y-56259819D01*
X49044172Y-56259819D02*
X49187029Y-56259819D01*
X48425124Y-56259819D02*
X48425124Y-55593152D01*
X48425124Y-55688390D02*
X48377505Y-55640771D01*
X48377505Y-55640771D02*
X48282267Y-55593152D01*
X48282267Y-55593152D02*
X48139410Y-55593152D01*
X48139410Y-55593152D02*
X48044172Y-55640771D01*
X48044172Y-55640771D02*
X47996553Y-55736009D01*
X47996553Y-55736009D02*
X47996553Y-56259819D01*
X47996553Y-55736009D02*
X47948934Y-55640771D01*
X47948934Y-55640771D02*
X47853696Y-55593152D01*
X47853696Y-55593152D02*
X47710839Y-55593152D01*
X47710839Y-55593152D02*
X47615600Y-55640771D01*
X47615600Y-55640771D02*
X47567981Y-55736009D01*
X47567981Y-55736009D02*
X47567981Y-56259819D01*
X46377506Y-55212200D02*
X47234648Y-56497914D01*
X46044172Y-55593152D02*
X46044172Y-56593152D01*
X46044172Y-55640771D02*
X45948934Y-55593152D01*
X45948934Y-55593152D02*
X45758458Y-55593152D01*
X45758458Y-55593152D02*
X45663220Y-55640771D01*
X45663220Y-55640771D02*
X45615601Y-55688390D01*
X45615601Y-55688390D02*
X45567982Y-55783628D01*
X45567982Y-55783628D02*
X45567982Y-56069342D01*
X45567982Y-56069342D02*
X45615601Y-56164580D01*
X45615601Y-56164580D02*
X45663220Y-56212200D01*
X45663220Y-56212200D02*
X45758458Y-56259819D01*
X45758458Y-56259819D02*
X45948934Y-56259819D01*
X45948934Y-56259819D02*
X46044172Y-56212200D01*
X44758458Y-56212200D02*
X44853696Y-56259819D01*
X44853696Y-56259819D02*
X45044172Y-56259819D01*
X45044172Y-56259819D02*
X45139410Y-56212200D01*
X45139410Y-56212200D02*
X45187029Y-56116961D01*
X45187029Y-56116961D02*
X45187029Y-55736009D01*
X45187029Y-55736009D02*
X45139410Y-55640771D01*
X45139410Y-55640771D02*
X45044172Y-55593152D01*
X45044172Y-55593152D02*
X44853696Y-55593152D01*
X44853696Y-55593152D02*
X44758458Y-55640771D01*
X44758458Y-55640771D02*
X44710839Y-55736009D01*
X44710839Y-55736009D02*
X44710839Y-55831247D01*
X44710839Y-55831247D02*
X45187029Y-55926485D01*
X43853696Y-56259819D02*
X43853696Y-55259819D01*
X43853696Y-56212200D02*
X43948934Y-56259819D01*
X43948934Y-56259819D02*
X44139410Y-56259819D01*
X44139410Y-56259819D02*
X44234648Y-56212200D01*
X44234648Y-56212200D02*
X44282267Y-56164580D01*
X44282267Y-56164580D02*
X44329886Y-56069342D01*
X44329886Y-56069342D02*
X44329886Y-55783628D01*
X44329886Y-55783628D02*
X44282267Y-55688390D01*
X44282267Y-55688390D02*
X44234648Y-55640771D01*
X44234648Y-55640771D02*
X44139410Y-55593152D01*
X44139410Y-55593152D02*
X43948934Y-55593152D01*
X43948934Y-55593152D02*
X43853696Y-55640771D01*
X42948934Y-56259819D02*
X42948934Y-55736009D01*
X42948934Y-55736009D02*
X42996553Y-55640771D01*
X42996553Y-55640771D02*
X43091791Y-55593152D01*
X43091791Y-55593152D02*
X43282267Y-55593152D01*
X43282267Y-55593152D02*
X43377505Y-55640771D01*
X42948934Y-56212200D02*
X43044172Y-56259819D01*
X43044172Y-56259819D02*
X43282267Y-56259819D01*
X43282267Y-56259819D02*
X43377505Y-56212200D01*
X43377505Y-56212200D02*
X43425124Y-56116961D01*
X43425124Y-56116961D02*
X43425124Y-56021723D01*
X43425124Y-56021723D02*
X43377505Y-55926485D01*
X43377505Y-55926485D02*
X43282267Y-55878866D01*
X43282267Y-55878866D02*
X43044172Y-55878866D01*
X43044172Y-55878866D02*
X42948934Y-55831247D01*
X42329886Y-56259819D02*
X42425124Y-56212200D01*
X42425124Y-56212200D02*
X42472743Y-56116961D01*
X42472743Y-56116961D02*
X42472743Y-55259819D01*
X41948933Y-56259819D02*
X41948933Y-55259819D01*
X41948933Y-55640771D02*
X41853695Y-55593152D01*
X41853695Y-55593152D02*
X41663219Y-55593152D01*
X41663219Y-55593152D02*
X41567981Y-55640771D01*
X41567981Y-55640771D02*
X41520362Y-55688390D01*
X41520362Y-55688390D02*
X41472743Y-55783628D01*
X41472743Y-55783628D02*
X41472743Y-56069342D01*
X41472743Y-56069342D02*
X41520362Y-56164580D01*
X41520362Y-56164580D02*
X41567981Y-56212200D01*
X41567981Y-56212200D02*
X41663219Y-56259819D01*
X41663219Y-56259819D02*
X41853695Y-56259819D01*
X41853695Y-56259819D02*
X41948933Y-56212200D01*
X40901314Y-56259819D02*
X40996552Y-56212200D01*
X40996552Y-56212200D02*
X41044171Y-56164580D01*
X41044171Y-56164580D02*
X41091790Y-56069342D01*
X41091790Y-56069342D02*
X41091790Y-55783628D01*
X41091790Y-55783628D02*
X41044171Y-55688390D01*
X41044171Y-55688390D02*
X40996552Y-55640771D01*
X40996552Y-55640771D02*
X40901314Y-55593152D01*
X40901314Y-55593152D02*
X40758457Y-55593152D01*
X40758457Y-55593152D02*
X40663219Y-55640771D01*
X40663219Y-55640771D02*
X40615600Y-55688390D01*
X40615600Y-55688390D02*
X40567981Y-55783628D01*
X40567981Y-55783628D02*
X40567981Y-56069342D01*
X40567981Y-56069342D02*
X40615600Y-56164580D01*
X40615600Y-56164580D02*
X40663219Y-56212200D01*
X40663219Y-56212200D02*
X40758457Y-56259819D01*
X40758457Y-56259819D02*
X40901314Y-56259819D01*
X39710838Y-56259819D02*
X39710838Y-55736009D01*
X39710838Y-55736009D02*
X39758457Y-55640771D01*
X39758457Y-55640771D02*
X39853695Y-55593152D01*
X39853695Y-55593152D02*
X40044171Y-55593152D01*
X40044171Y-55593152D02*
X40139409Y-55640771D01*
X39710838Y-56212200D02*
X39806076Y-56259819D01*
X39806076Y-56259819D02*
X40044171Y-56259819D01*
X40044171Y-56259819D02*
X40139409Y-56212200D01*
X40139409Y-56212200D02*
X40187028Y-56116961D01*
X40187028Y-56116961D02*
X40187028Y-56021723D01*
X40187028Y-56021723D02*
X40139409Y-55926485D01*
X40139409Y-55926485D02*
X40044171Y-55878866D01*
X40044171Y-55878866D02*
X39806076Y-55878866D01*
X39806076Y-55878866D02*
X39710838Y-55831247D01*
X39234647Y-56259819D02*
X39234647Y-55593152D01*
X39234647Y-55783628D02*
X39187028Y-55688390D01*
X39187028Y-55688390D02*
X39139409Y-55640771D01*
X39139409Y-55640771D02*
X39044171Y-55593152D01*
X39044171Y-55593152D02*
X38948933Y-55593152D01*
X38187028Y-56259819D02*
X38187028Y-55259819D01*
X38187028Y-56212200D02*
X38282266Y-56259819D01*
X38282266Y-56259819D02*
X38472742Y-56259819D01*
X38472742Y-56259819D02*
X38567980Y-56212200D01*
X38567980Y-56212200D02*
X38615599Y-56164580D01*
X38615599Y-56164580D02*
X38663218Y-56069342D01*
X38663218Y-56069342D02*
X38663218Y-55783628D01*
X38663218Y-55783628D02*
X38615599Y-55688390D01*
X38615599Y-55688390D02*
X38567980Y-55640771D01*
X38567980Y-55640771D02*
X38472742Y-55593152D01*
X38472742Y-55593152D02*
X38282266Y-55593152D01*
X38282266Y-55593152D02*
X38187028Y-55640771D01*
X61329887Y-57346009D02*
X61187030Y-57393628D01*
X61187030Y-57393628D02*
X61139411Y-57441247D01*
X61139411Y-57441247D02*
X61091792Y-57536485D01*
X61091792Y-57536485D02*
X61091792Y-57679342D01*
X61091792Y-57679342D02*
X61139411Y-57774580D01*
X61139411Y-57774580D02*
X61187030Y-57822200D01*
X61187030Y-57822200D02*
X61282268Y-57869819D01*
X61282268Y-57869819D02*
X61663220Y-57869819D01*
X61663220Y-57869819D02*
X61663220Y-56869819D01*
X61663220Y-56869819D02*
X61329887Y-56869819D01*
X61329887Y-56869819D02*
X61234649Y-56917438D01*
X61234649Y-56917438D02*
X61187030Y-56965057D01*
X61187030Y-56965057D02*
X61139411Y-57060295D01*
X61139411Y-57060295D02*
X61139411Y-57155533D01*
X61139411Y-57155533D02*
X61187030Y-57250771D01*
X61187030Y-57250771D02*
X61234649Y-57298390D01*
X61234649Y-57298390D02*
X61329887Y-57346009D01*
X61329887Y-57346009D02*
X61663220Y-57346009D01*
X60091792Y-57774580D02*
X60139411Y-57822200D01*
X60139411Y-57822200D02*
X60282268Y-57869819D01*
X60282268Y-57869819D02*
X60377506Y-57869819D01*
X60377506Y-57869819D02*
X60520363Y-57822200D01*
X60520363Y-57822200D02*
X60615601Y-57726961D01*
X60615601Y-57726961D02*
X60663220Y-57631723D01*
X60663220Y-57631723D02*
X60710839Y-57441247D01*
X60710839Y-57441247D02*
X60710839Y-57298390D01*
X60710839Y-57298390D02*
X60663220Y-57107914D01*
X60663220Y-57107914D02*
X60615601Y-57012676D01*
X60615601Y-57012676D02*
X60520363Y-56917438D01*
X60520363Y-56917438D02*
X60377506Y-56869819D01*
X60377506Y-56869819D02*
X60282268Y-56869819D01*
X60282268Y-56869819D02*
X60139411Y-56917438D01*
X60139411Y-56917438D02*
X60091792Y-56965057D01*
X59329887Y-57346009D02*
X59187030Y-57393628D01*
X59187030Y-57393628D02*
X59139411Y-57441247D01*
X59139411Y-57441247D02*
X59091792Y-57536485D01*
X59091792Y-57536485D02*
X59091792Y-57679342D01*
X59091792Y-57679342D02*
X59139411Y-57774580D01*
X59139411Y-57774580D02*
X59187030Y-57822200D01*
X59187030Y-57822200D02*
X59282268Y-57869819D01*
X59282268Y-57869819D02*
X59663220Y-57869819D01*
X59663220Y-57869819D02*
X59663220Y-56869819D01*
X59663220Y-56869819D02*
X59329887Y-56869819D01*
X59329887Y-56869819D02*
X59234649Y-56917438D01*
X59234649Y-56917438D02*
X59187030Y-56965057D01*
X59187030Y-56965057D02*
X59139411Y-57060295D01*
X59139411Y-57060295D02*
X59139411Y-57155533D01*
X59139411Y-57155533D02*
X59187030Y-57250771D01*
X59187030Y-57250771D02*
X59234649Y-57298390D01*
X59234649Y-57298390D02*
X59329887Y-57346009D01*
X59329887Y-57346009D02*
X59663220Y-57346009D01*
X58663220Y-57774580D02*
X58615601Y-57822200D01*
X58615601Y-57822200D02*
X58663220Y-57869819D01*
X58663220Y-57869819D02*
X58710839Y-57822200D01*
X58710839Y-57822200D02*
X58663220Y-57774580D01*
X58663220Y-57774580D02*
X58663220Y-57869819D01*
X58663220Y-57250771D02*
X58615601Y-57298390D01*
X58615601Y-57298390D02*
X58663220Y-57346009D01*
X58663220Y-57346009D02*
X58710839Y-57298390D01*
X58710839Y-57298390D02*
X58663220Y-57250771D01*
X58663220Y-57250771D02*
X58663220Y-57346009D01*
X57520363Y-56869819D02*
X56901316Y-56869819D01*
X56901316Y-56869819D02*
X57234649Y-57250771D01*
X57234649Y-57250771D02*
X57091792Y-57250771D01*
X57091792Y-57250771D02*
X56996554Y-57298390D01*
X56996554Y-57298390D02*
X56948935Y-57346009D01*
X56948935Y-57346009D02*
X56901316Y-57441247D01*
X56901316Y-57441247D02*
X56901316Y-57679342D01*
X56901316Y-57679342D02*
X56948935Y-57774580D01*
X56948935Y-57774580D02*
X56996554Y-57822200D01*
X56996554Y-57822200D02*
X57091792Y-57869819D01*
X57091792Y-57869819D02*
X57377506Y-57869819D01*
X57377506Y-57869819D02*
X57472744Y-57822200D01*
X57472744Y-57822200D02*
X57520363Y-57774580D01*
X56472744Y-57774580D02*
X56425125Y-57822200D01*
X56425125Y-57822200D02*
X56472744Y-57869819D01*
X56472744Y-57869819D02*
X56520363Y-57822200D01*
X56520363Y-57822200D02*
X56472744Y-57774580D01*
X56472744Y-57774580D02*
X56472744Y-57869819D01*
X56044173Y-56965057D02*
X55996554Y-56917438D01*
X55996554Y-56917438D02*
X55901316Y-56869819D01*
X55901316Y-56869819D02*
X55663221Y-56869819D01*
X55663221Y-56869819D02*
X55567983Y-56917438D01*
X55567983Y-56917438D02*
X55520364Y-56965057D01*
X55520364Y-56965057D02*
X55472745Y-57060295D01*
X55472745Y-57060295D02*
X55472745Y-57155533D01*
X55472745Y-57155533D02*
X55520364Y-57298390D01*
X55520364Y-57298390D02*
X56091792Y-57869819D01*
X56091792Y-57869819D02*
X55472745Y-57869819D01*
X55044173Y-57774580D02*
X54996554Y-57822200D01*
X54996554Y-57822200D02*
X55044173Y-57869819D01*
X55044173Y-57869819D02*
X55091792Y-57822200D01*
X55091792Y-57822200D02*
X55044173Y-57774580D01*
X55044173Y-57774580D02*
X55044173Y-57869819D01*
X54377507Y-56869819D02*
X54282269Y-56869819D01*
X54282269Y-56869819D02*
X54187031Y-56917438D01*
X54187031Y-56917438D02*
X54139412Y-56965057D01*
X54139412Y-56965057D02*
X54091793Y-57060295D01*
X54091793Y-57060295D02*
X54044174Y-57250771D01*
X54044174Y-57250771D02*
X54044174Y-57488866D01*
X54044174Y-57488866D02*
X54091793Y-57679342D01*
X54091793Y-57679342D02*
X54139412Y-57774580D01*
X54139412Y-57774580D02*
X54187031Y-57822200D01*
X54187031Y-57822200D02*
X54282269Y-57869819D01*
X54282269Y-57869819D02*
X54377507Y-57869819D01*
X54377507Y-57869819D02*
X54472745Y-57822200D01*
X54472745Y-57822200D02*
X54520364Y-57774580D01*
X54520364Y-57774580D02*
X54567983Y-57679342D01*
X54567983Y-57679342D02*
X54615602Y-57488866D01*
X54615602Y-57488866D02*
X54615602Y-57250771D01*
X54615602Y-57250771D02*
X54567983Y-57060295D01*
X54567983Y-57060295D02*
X54520364Y-56965057D01*
X54520364Y-56965057D02*
X54472745Y-56917438D01*
X54472745Y-56917438D02*
X54377507Y-56869819D01*
X53615602Y-57488866D02*
X52853698Y-57488866D01*
X51806079Y-57869819D02*
X52139412Y-57393628D01*
X52377507Y-57869819D02*
X52377507Y-56869819D01*
X52377507Y-56869819D02*
X51996555Y-56869819D01*
X51996555Y-56869819D02*
X51901317Y-56917438D01*
X51901317Y-56917438D02*
X51853698Y-56965057D01*
X51853698Y-56965057D02*
X51806079Y-57060295D01*
X51806079Y-57060295D02*
X51806079Y-57203152D01*
X51806079Y-57203152D02*
X51853698Y-57298390D01*
X51853698Y-57298390D02*
X51901317Y-57346009D01*
X51901317Y-57346009D02*
X51996555Y-57393628D01*
X51996555Y-57393628D02*
X52377507Y-57393628D01*
X50806079Y-57774580D02*
X50853698Y-57822200D01*
X50853698Y-57822200D02*
X50996555Y-57869819D01*
X50996555Y-57869819D02*
X51091793Y-57869819D01*
X51091793Y-57869819D02*
X51234650Y-57822200D01*
X51234650Y-57822200D02*
X51329888Y-57726961D01*
X51329888Y-57726961D02*
X51377507Y-57631723D01*
X51377507Y-57631723D02*
X51425126Y-57441247D01*
X51425126Y-57441247D02*
X51425126Y-57298390D01*
X51425126Y-57298390D02*
X51377507Y-57107914D01*
X51377507Y-57107914D02*
X51329888Y-57012676D01*
X51329888Y-57012676D02*
X51234650Y-56917438D01*
X51234650Y-56917438D02*
X51091793Y-56869819D01*
X51091793Y-56869819D02*
X50996555Y-56869819D01*
X50996555Y-56869819D02*
X50853698Y-56917438D01*
X50853698Y-56917438D02*
X50806079Y-56965057D01*
X49853698Y-57869819D02*
X50425126Y-57869819D01*
X50139412Y-57869819D02*
X50139412Y-56869819D01*
X50139412Y-56869819D02*
X50234650Y-57012676D01*
X50234650Y-57012676D02*
X50329888Y-57107914D01*
X50329888Y-57107914D02*
X50425126Y-57155533D01*
G36*
X34438628Y-45397169D02*
G01*
X34404370Y-45465685D01*
X34373963Y-45496092D01*
X34305447Y-45530350D01*
X34198000Y-45530350D01*
X34129484Y-45496092D01*
X34099077Y-45465685D01*
X34064819Y-45397169D01*
X34064819Y-45108922D01*
X34438628Y-45108922D01*
X34438628Y-45397169D01*
G37*
G36*
X35207676Y-47631592D02*
G01*
X33771962Y-47631592D01*
X33771962Y-47414874D01*
X33914819Y-47414874D01*
X33932366Y-47463083D01*
X33976795Y-47488735D01*
X34027319Y-47479826D01*
X34060296Y-47440526D01*
X34064819Y-47414874D01*
X34064819Y-47013684D01*
X34391009Y-47013684D01*
X34391009Y-47272017D01*
X34408556Y-47320226D01*
X34452985Y-47345878D01*
X34503509Y-47336969D01*
X34536486Y-47297669D01*
X34541009Y-47272017D01*
X34541009Y-47013684D01*
X34989819Y-47013684D01*
X35038028Y-46996137D01*
X35063680Y-46951708D01*
X35054771Y-46901184D01*
X35015471Y-46868207D01*
X34989819Y-46863684D01*
X33989819Y-46863684D01*
X33971510Y-46870347D01*
X33952319Y-46873732D01*
X33947968Y-46878916D01*
X33941610Y-46881231D01*
X33931867Y-46898104D01*
X33919342Y-46913032D01*
X33917624Y-46922774D01*
X33915958Y-46925660D01*
X33916536Y-46928942D01*
X33914819Y-46938684D01*
X33914819Y-47414874D01*
X33771962Y-47414874D01*
X33771962Y-46510112D01*
X33914819Y-46510112D01*
X33932366Y-46558321D01*
X33976795Y-46583973D01*
X34027319Y-46575064D01*
X34060296Y-46535764D01*
X34064819Y-46510112D01*
X34064819Y-46108922D01*
X34391009Y-46108922D01*
X34391009Y-46367255D01*
X34408556Y-46415464D01*
X34452985Y-46441116D01*
X34503509Y-46432207D01*
X34536486Y-46392907D01*
X34541009Y-46367255D01*
X34541009Y-46108922D01*
X34914819Y-46108922D01*
X34914819Y-46510112D01*
X34932366Y-46558321D01*
X34976795Y-46583973D01*
X35027319Y-46575064D01*
X35060296Y-46535764D01*
X35064819Y-46510112D01*
X35064819Y-46033922D01*
X35058155Y-46015613D01*
X35054771Y-45996422D01*
X35049586Y-45992071D01*
X35047272Y-45985713D01*
X35030398Y-45975970D01*
X35015471Y-45963445D01*
X35005728Y-45961727D01*
X35002843Y-45960061D01*
X34999560Y-45960639D01*
X34989819Y-45958922D01*
X33989819Y-45958922D01*
X33971510Y-45965585D01*
X33952319Y-45968970D01*
X33947968Y-45974154D01*
X33941610Y-45976469D01*
X33931867Y-45993342D01*
X33919342Y-46008270D01*
X33917624Y-46018012D01*
X33915958Y-46020898D01*
X33916536Y-46024180D01*
X33914819Y-46033922D01*
X33914819Y-46510112D01*
X33771962Y-46510112D01*
X33771962Y-45414874D01*
X33914819Y-45414874D01*
X33916352Y-45419087D01*
X33915311Y-45423448D01*
X33922737Y-45448415D01*
X33970356Y-45543653D01*
X33971545Y-45544778D01*
X33984405Y-45563145D01*
X34032024Y-45610764D01*
X34033505Y-45611455D01*
X34051516Y-45624813D01*
X34146754Y-45672432D01*
X34151207Y-45672944D01*
X34154643Y-45675827D01*
X34180295Y-45680350D01*
X34323152Y-45680350D01*
X34327365Y-45678816D01*
X34331726Y-45679858D01*
X34356693Y-45672432D01*
X34451931Y-45624813D01*
X34453056Y-45623623D01*
X34471423Y-45610764D01*
X34519042Y-45563145D01*
X34519733Y-45561663D01*
X34533091Y-45543653D01*
X34580710Y-45448415D01*
X34581222Y-45443961D01*
X34584105Y-45440526D01*
X34588440Y-45415934D01*
X34946810Y-45666793D01*
X34996366Y-45680063D01*
X35042860Y-45658376D01*
X35064535Y-45611876D01*
X35051250Y-45562324D01*
X35032829Y-45543908D01*
X34588628Y-45232967D01*
X34588628Y-45108922D01*
X34989819Y-45108922D01*
X35038028Y-45091375D01*
X35063680Y-45046946D01*
X35054771Y-44996422D01*
X35015471Y-44963445D01*
X34989819Y-44958922D01*
X33989819Y-44958922D01*
X33971510Y-44965585D01*
X33952319Y-44968970D01*
X33947968Y-44974154D01*
X33941610Y-44976469D01*
X33931867Y-44993342D01*
X33919342Y-45008270D01*
X33917624Y-45018012D01*
X33915958Y-45020898D01*
X33916536Y-45024180D01*
X33914819Y-45033922D01*
X33914819Y-45414874D01*
X33771962Y-45414874D01*
X33771962Y-44711589D01*
X33915630Y-44711589D01*
X33940059Y-44756703D01*
X33987770Y-44775560D01*
X34013536Y-44771739D01*
X35013536Y-44438406D01*
X35015227Y-44437063D01*
X35017385Y-44437005D01*
X35035137Y-44421263D01*
X35053722Y-44406515D01*
X35054154Y-44404400D01*
X35055771Y-44402967D01*
X35059250Y-44379498D01*
X35064008Y-44356254D01*
X35062979Y-44354354D01*
X35063296Y-44352219D01*
X35050875Y-44332001D01*
X35039579Y-44311140D01*
X35037571Y-44310346D01*
X35036441Y-44308506D01*
X35013536Y-44296104D01*
X34013536Y-43962771D01*
X33962252Y-43964172D01*
X33923867Y-43998209D01*
X33916342Y-44048958D01*
X33943197Y-44092670D01*
X33966102Y-44105073D01*
X34752648Y-44367255D01*
X33966102Y-44629437D01*
X33925916Y-44661328D01*
X33915630Y-44711589D01*
X33771962Y-44711589D01*
X33771962Y-43819914D01*
X35207676Y-43819914D01*
X35207676Y-47631592D01*
G37*
G36*
X43805909Y-123470175D02*
G01*
X43882896Y-123508669D01*
X43957009Y-123582782D01*
X43995180Y-123697295D01*
X43995180Y-123848220D01*
X43145180Y-123848220D01*
X43145180Y-123697296D01*
X43183351Y-123582782D01*
X43257465Y-123508669D01*
X43334452Y-123470175D01*
X43507986Y-123426792D01*
X43632375Y-123426792D01*
X43805909Y-123470175D01*
G37*
G36*
X43833009Y-122732744D02*
G01*
X43430895Y-122866782D01*
X43430895Y-122598705D01*
X43833009Y-122732744D01*
G37*
G36*
X47025909Y-121422556D02*
G01*
X47102896Y-121461050D01*
X47177009Y-121535163D01*
X47215180Y-121649676D01*
X47215180Y-121800601D01*
X46365180Y-121800601D01*
X46365180Y-121649677D01*
X46403351Y-121535163D01*
X46477465Y-121461050D01*
X46554452Y-121422556D01*
X46727986Y-121379173D01*
X46852375Y-121379173D01*
X47025909Y-121422556D01*
G37*
G36*
X43833009Y-121113696D02*
G01*
X43430895Y-121247734D01*
X43430895Y-120979657D01*
X43833009Y-121113696D01*
G37*
G36*
X47508037Y-124188696D02*
G01*
X42852323Y-124188696D01*
X42852323Y-123923220D01*
X42995180Y-123923220D01*
X43001843Y-123941528D01*
X43005228Y-123960720D01*
X43010412Y-123965070D01*
X43012727Y-123971429D01*
X43029600Y-123981171D01*
X43044528Y-123993697D01*
X43054270Y-123995414D01*
X43057156Y-123997081D01*
X43060438Y-123996502D01*
X43070180Y-123998220D01*
X44070180Y-123998220D01*
X44088488Y-123991556D01*
X44107680Y-123988172D01*
X44112030Y-123982987D01*
X44118389Y-123980673D01*
X44128131Y-123963799D01*
X44140657Y-123948872D01*
X44142374Y-123939129D01*
X44144041Y-123936244D01*
X44143462Y-123932961D01*
X44145180Y-123923220D01*
X44145180Y-123685125D01*
X44144620Y-123683587D01*
X44141331Y-123661407D01*
X44097276Y-123529244D01*
X44606319Y-123529244D01*
X44615228Y-123579768D01*
X44654528Y-123612745D01*
X44680180Y-123617268D01*
X44986133Y-123617268D01*
X44986133Y-123923220D01*
X45003680Y-123971429D01*
X45048109Y-123997081D01*
X45098633Y-123988172D01*
X45131610Y-123948872D01*
X45136133Y-123923220D01*
X45136133Y-123637506D01*
X46215180Y-123637506D01*
X46215739Y-123639043D01*
X46219029Y-123661224D01*
X46266649Y-123804081D01*
X46269436Y-123807593D01*
X46269827Y-123812059D01*
X46284767Y-123833396D01*
X46380005Y-123928634D01*
X46381486Y-123929324D01*
X46399497Y-123942683D01*
X46494735Y-123990302D01*
X46498263Y-123990708D01*
X46510086Y-123995981D01*
X46700562Y-124043600D01*
X46704010Y-124043239D01*
X46718752Y-124045839D01*
X46861609Y-124045839D01*
X46864866Y-124044653D01*
X46879799Y-124043600D01*
X47070275Y-123995981D01*
X47073219Y-123993992D01*
X47085626Y-123990302D01*
X47180864Y-123942683D01*
X47181989Y-123941493D01*
X47200356Y-123928634D01*
X47295594Y-123833396D01*
X47297489Y-123829331D01*
X47301309Y-123826985D01*
X47313712Y-123804080D01*
X47361331Y-123661224D01*
X47361286Y-123659588D01*
X47365180Y-123637506D01*
X47365180Y-123494649D01*
X47363646Y-123490435D01*
X47364688Y-123486074D01*
X47357262Y-123461108D01*
X47309643Y-123365870D01*
X47272389Y-123330598D01*
X47221178Y-123327523D01*
X47179973Y-123358087D01*
X47168053Y-123407985D01*
X47175479Y-123432952D01*
X47215180Y-123512354D01*
X47215180Y-123625336D01*
X47177009Y-123739849D01*
X47102896Y-123813962D01*
X47025909Y-123852455D01*
X46852375Y-123895839D01*
X46727986Y-123895839D01*
X46554452Y-123852455D01*
X46477465Y-123813962D01*
X46403351Y-123739848D01*
X46365180Y-123625334D01*
X46365180Y-123554439D01*
X46403351Y-123439925D01*
X46416485Y-123426792D01*
X46643752Y-123426792D01*
X46643752Y-123542268D01*
X46661299Y-123590477D01*
X46705728Y-123616129D01*
X46756252Y-123607220D01*
X46789229Y-123567920D01*
X46793752Y-123542268D01*
X46793752Y-123351792D01*
X46787088Y-123333483D01*
X46783704Y-123314292D01*
X46778519Y-123309941D01*
X46776205Y-123303583D01*
X46759331Y-123293840D01*
X46744404Y-123281315D01*
X46734661Y-123279597D01*
X46731776Y-123277931D01*
X46728493Y-123278509D01*
X46718752Y-123276792D01*
X46385419Y-123276792D01*
X46370033Y-123282392D01*
X46353723Y-123283819D01*
X46340310Y-123293210D01*
X46337210Y-123294339D01*
X46336199Y-123296088D01*
X46332386Y-123298759D01*
X46284767Y-123346378D01*
X46282872Y-123350440D01*
X46279052Y-123352788D01*
X46266649Y-123375693D01*
X46219029Y-123518550D01*
X46219073Y-123520185D01*
X46215180Y-123542268D01*
X46215180Y-123637506D01*
X45136133Y-123637506D01*
X45136133Y-123617268D01*
X45442085Y-123617268D01*
X45490294Y-123599721D01*
X45515946Y-123555292D01*
X45507037Y-123504768D01*
X45467737Y-123471791D01*
X45442085Y-123467268D01*
X45136133Y-123467268D01*
X45136133Y-123161316D01*
X45118586Y-123113107D01*
X45074157Y-123087455D01*
X45023633Y-123096364D01*
X44990656Y-123135664D01*
X44986133Y-123161316D01*
X44986133Y-123467268D01*
X44680180Y-123467268D01*
X44631971Y-123484815D01*
X44606319Y-123529244D01*
X44097276Y-123529244D01*
X44093712Y-123518551D01*
X44090925Y-123515040D01*
X44090535Y-123510572D01*
X44075594Y-123489235D01*
X43980356Y-123393997D01*
X43978874Y-123393306D01*
X43960864Y-123379948D01*
X43865626Y-123332329D01*
X43862097Y-123331922D01*
X43850275Y-123326650D01*
X43659799Y-123279031D01*
X43656350Y-123279391D01*
X43641609Y-123276792D01*
X43498752Y-123276792D01*
X43495494Y-123277977D01*
X43480562Y-123279031D01*
X43290086Y-123326650D01*
X43287141Y-123328638D01*
X43274735Y-123332329D01*
X43179497Y-123379948D01*
X43178373Y-123381134D01*
X43160005Y-123393997D01*
X43064767Y-123489235D01*
X43062872Y-123493297D01*
X43059052Y-123495645D01*
X43046649Y-123518550D01*
X42999029Y-123661407D01*
X42999073Y-123663042D01*
X42995180Y-123685125D01*
X42995180Y-123923220D01*
X42852323Y-123923220D01*
X42852323Y-123077078D01*
X42995991Y-123077078D01*
X43020420Y-123122192D01*
X43068131Y-123141049D01*
X43093897Y-123137228D01*
X44093897Y-122803895D01*
X44095588Y-122802552D01*
X44097746Y-122802494D01*
X44115498Y-122786752D01*
X44134083Y-122772004D01*
X44134515Y-122769889D01*
X44136132Y-122768456D01*
X44139611Y-122744987D01*
X44144369Y-122721743D01*
X44143340Y-122719843D01*
X44143657Y-122717708D01*
X44131236Y-122697490D01*
X44119940Y-122676629D01*
X44117932Y-122675835D01*
X44116802Y-122673995D01*
X44093897Y-122661593D01*
X43878779Y-122589887D01*
X44605180Y-122589887D01*
X44606713Y-122594100D01*
X44605672Y-122598462D01*
X44613098Y-122623429D01*
X44660718Y-122718667D01*
X44661909Y-122719794D01*
X44674767Y-122738158D01*
X44722386Y-122785777D01*
X44768882Y-122807458D01*
X44818437Y-122794181D01*
X44847863Y-122752155D01*
X44843392Y-122701048D01*
X44828452Y-122679711D01*
X44789438Y-122640697D01*
X44755180Y-122572180D01*
X44755180Y-122369498D01*
X44789438Y-122300981D01*
X44819846Y-122270574D01*
X44888362Y-122236316D01*
X45091047Y-122236316D01*
X45159563Y-122270574D01*
X45189970Y-122300981D01*
X45224228Y-122369497D01*
X45224228Y-122572182D01*
X45189970Y-122640698D01*
X45150957Y-122679711D01*
X45150748Y-122680158D01*
X45150303Y-122680373D01*
X45139909Y-122703404D01*
X45129276Y-122726208D01*
X45129403Y-122726683D01*
X45129200Y-122727134D01*
X45136024Y-122751395D01*
X45142553Y-122775762D01*
X45142958Y-122776045D01*
X45143092Y-122776521D01*
X45163932Y-122790732D01*
X45184579Y-122805189D01*
X45185070Y-122805146D01*
X45185478Y-122805424D01*
X45211453Y-122807372D01*
X45687643Y-122759753D01*
X45701994Y-122752842D01*
X45717680Y-122750077D01*
X45724419Y-122742044D01*
X45733867Y-122737496D01*
X45740418Y-122722978D01*
X45750657Y-122710777D01*
X45753691Y-122693568D01*
X45754970Y-122690735D01*
X45754491Y-122689032D01*
X45755180Y-122685125D01*
X45755180Y-122352126D01*
X46215181Y-122352126D01*
X46221871Y-122370257D01*
X46225228Y-122389292D01*
X46230540Y-122393749D01*
X46232941Y-122400256D01*
X46252970Y-122416910D01*
X47007763Y-122848220D01*
X46290180Y-122848220D01*
X46241971Y-122865767D01*
X46216319Y-122910196D01*
X46225228Y-122960720D01*
X46264528Y-122993697D01*
X46290180Y-122998220D01*
X47290180Y-122998220D01*
X47296697Y-122995847D01*
X47303533Y-122997022D01*
X47320230Y-122987282D01*
X47338389Y-122980673D01*
X47341856Y-122974668D01*
X47347848Y-122971173D01*
X47354377Y-122952981D01*
X47364041Y-122936244D01*
X47362836Y-122929412D01*
X47365179Y-122922886D01*
X47358488Y-122904754D01*
X47355132Y-122885720D01*
X47349819Y-122881262D01*
X47347419Y-122874756D01*
X47327391Y-122858102D01*
X46572597Y-122426792D01*
X47290180Y-122426792D01*
X47338389Y-122409245D01*
X47364041Y-122364816D01*
X47355132Y-122314292D01*
X47315832Y-122281315D01*
X47290180Y-122276792D01*
X46290180Y-122276792D01*
X46283663Y-122279163D01*
X46276828Y-122277990D01*
X46260130Y-122287729D01*
X46241971Y-122294339D01*
X46238503Y-122300344D01*
X46232512Y-122303839D01*
X46225982Y-122322030D01*
X46216319Y-122338768D01*
X46217523Y-122345599D01*
X46215181Y-122352126D01*
X45755180Y-122352126D01*
X45755180Y-122208935D01*
X45737633Y-122160726D01*
X45693204Y-122135074D01*
X45642680Y-122143983D01*
X45609703Y-122183283D01*
X45605180Y-122208935D01*
X45605180Y-122617250D01*
X45356989Y-122642069D01*
X45366310Y-122623428D01*
X45366822Y-122618974D01*
X45369705Y-122615539D01*
X45374228Y-122589887D01*
X45374228Y-122351792D01*
X45372694Y-122347578D01*
X45373736Y-122343217D01*
X45366310Y-122318251D01*
X45318691Y-122223013D01*
X45317501Y-122221887D01*
X45304642Y-122203521D01*
X45257023Y-122155902D01*
X45255541Y-122155211D01*
X45237531Y-122141853D01*
X45142293Y-122094234D01*
X45137839Y-122093721D01*
X45134404Y-122090839D01*
X45108752Y-122086316D01*
X44870657Y-122086316D01*
X44866443Y-122087849D01*
X44862082Y-122086808D01*
X44837116Y-122094234D01*
X44741878Y-122141853D01*
X44740752Y-122143042D01*
X44722386Y-122155902D01*
X44674767Y-122203521D01*
X44674075Y-122205003D01*
X44660718Y-122223012D01*
X44613098Y-122318250D01*
X44612585Y-122322704D01*
X44609703Y-122326140D01*
X44605180Y-122351792D01*
X44605180Y-122589887D01*
X43878779Y-122589887D01*
X43093897Y-122328260D01*
X43042613Y-122329661D01*
X43004228Y-122363698D01*
X42996703Y-122414447D01*
X43023558Y-122458159D01*
X43046463Y-122470562D01*
X43280895Y-122548705D01*
X43280895Y-122916782D01*
X43046463Y-122994926D01*
X43006277Y-123026817D01*
X42995991Y-123077078D01*
X42852323Y-123077078D01*
X42852323Y-121910196D01*
X42996319Y-121910196D01*
X43005228Y-121960720D01*
X43044528Y-121993697D01*
X43070180Y-121998220D01*
X43995180Y-121998220D01*
X43995180Y-122208934D01*
X44012727Y-122257143D01*
X44057156Y-122282795D01*
X44107680Y-122273886D01*
X44140657Y-122234586D01*
X44145180Y-122208934D01*
X44145180Y-121637506D01*
X44127633Y-121589297D01*
X44083204Y-121563645D01*
X44032680Y-121572554D01*
X43999703Y-121611854D01*
X43995180Y-121637506D01*
X43995180Y-121848220D01*
X43070180Y-121848220D01*
X43021971Y-121865767D01*
X42996319Y-121910196D01*
X42852323Y-121910196D01*
X42852323Y-121553269D01*
X44605991Y-121553269D01*
X44607019Y-121555168D01*
X44606703Y-121557304D01*
X44619121Y-121577517D01*
X44630420Y-121598383D01*
X44632427Y-121599176D01*
X44633558Y-121601016D01*
X44656463Y-121613419D01*
X45656463Y-121946752D01*
X45707746Y-121945351D01*
X45746132Y-121911313D01*
X45751427Y-121875601D01*
X46215180Y-121875601D01*
X46221843Y-121893909D01*
X46225228Y-121913101D01*
X46230412Y-121917451D01*
X46232727Y-121923810D01*
X46249600Y-121933552D01*
X46264528Y-121946078D01*
X46274270Y-121947795D01*
X46277156Y-121949462D01*
X46280438Y-121948883D01*
X46290180Y-121950601D01*
X47290180Y-121950601D01*
X47308488Y-121943937D01*
X47327680Y-121940553D01*
X47332030Y-121935368D01*
X47338389Y-121933054D01*
X47348131Y-121916180D01*
X47360657Y-121901253D01*
X47362374Y-121891510D01*
X47364041Y-121888625D01*
X47363462Y-121885342D01*
X47365180Y-121875601D01*
X47365180Y-121637506D01*
X47364620Y-121635968D01*
X47361331Y-121613788D01*
X47313712Y-121470932D01*
X47310925Y-121467421D01*
X47310535Y-121462953D01*
X47295594Y-121441616D01*
X47200356Y-121346378D01*
X47198874Y-121345687D01*
X47180864Y-121332329D01*
X47085626Y-121284710D01*
X47082097Y-121284303D01*
X47070275Y-121279031D01*
X46879799Y-121231412D01*
X46876350Y-121231772D01*
X46861609Y-121229173D01*
X46718752Y-121229173D01*
X46715494Y-121230358D01*
X46700562Y-121231412D01*
X46510086Y-121279031D01*
X46507141Y-121281019D01*
X46494735Y-121284710D01*
X46399497Y-121332329D01*
X46398373Y-121333515D01*
X46380005Y-121346378D01*
X46284767Y-121441616D01*
X46282872Y-121445678D01*
X46279052Y-121448026D01*
X46266649Y-121470931D01*
X46219029Y-121613788D01*
X46219073Y-121615423D01*
X46215180Y-121637506D01*
X46215180Y-121875601D01*
X45751427Y-121875601D01*
X45753657Y-121860565D01*
X45726802Y-121816852D01*
X45703897Y-121804450D01*
X44917350Y-121542268D01*
X45703897Y-121280086D01*
X45744083Y-121248195D01*
X45754369Y-121197934D01*
X45729940Y-121152820D01*
X45682228Y-121133963D01*
X45656463Y-121137784D01*
X44656463Y-121471117D01*
X44654771Y-121472459D01*
X44652613Y-121472518D01*
X44634851Y-121488267D01*
X44616277Y-121503008D01*
X44615844Y-121505121D01*
X44614228Y-121506555D01*
X44610747Y-121530025D01*
X44605991Y-121553269D01*
X42852323Y-121553269D01*
X42852323Y-121458030D01*
X42995991Y-121458030D01*
X43020420Y-121503144D01*
X43068131Y-121522001D01*
X43093897Y-121518180D01*
X44093897Y-121184847D01*
X44095588Y-121183504D01*
X44097746Y-121183446D01*
X44115498Y-121167704D01*
X44134083Y-121152956D01*
X44134515Y-121150841D01*
X44136132Y-121149408D01*
X44139611Y-121125939D01*
X44144369Y-121102695D01*
X44143340Y-121100795D01*
X44143657Y-121098660D01*
X44131236Y-121078442D01*
X44119940Y-121057581D01*
X44117932Y-121056787D01*
X44116802Y-121054947D01*
X44093897Y-121042545D01*
X43093897Y-120709212D01*
X43042613Y-120710613D01*
X43004228Y-120744650D01*
X42996703Y-120795399D01*
X43023558Y-120839111D01*
X43046463Y-120851514D01*
X43280895Y-120929657D01*
X43280895Y-121297734D01*
X43046463Y-121375878D01*
X43006277Y-121407769D01*
X42995991Y-121458030D01*
X42852323Y-121458030D01*
X42852323Y-120566355D01*
X47508037Y-120566355D01*
X47508037Y-124188696D01*
G37*
G36*
X57920601Y-23033628D02*
G01*
X57650628Y-23033628D01*
X57464686Y-22971647D01*
X57342953Y-22849915D01*
X57280650Y-22725308D01*
X57213458Y-22456537D01*
X57213458Y-22260718D01*
X57280650Y-21991947D01*
X57342953Y-21867341D01*
X57464686Y-21745608D01*
X57650628Y-21683628D01*
X57920601Y-21683628D01*
X57920601Y-23033628D01*
G37*
G36*
X60713459Y-23397914D02*
G01*
X56206315Y-23397914D01*
X56206315Y-23108628D01*
X56420601Y-23108628D01*
X56438148Y-23156837D01*
X56482577Y-23182489D01*
X56533101Y-23173580D01*
X56566078Y-23134280D01*
X56570601Y-23108628D01*
X56570601Y-22465771D01*
X57063458Y-22465771D01*
X57064643Y-22469028D01*
X57065697Y-22483961D01*
X57137125Y-22769675D01*
X57139113Y-22772619D01*
X57142804Y-22785026D01*
X57214233Y-22927883D01*
X57215419Y-22929006D01*
X57228282Y-22947375D01*
X57371139Y-23090233D01*
X57375202Y-23092127D01*
X57377550Y-23095949D01*
X57400455Y-23108351D01*
X57614741Y-23179779D01*
X57616375Y-23179734D01*
X57638458Y-23183628D01*
X57995601Y-23183628D01*
X58013909Y-23176964D01*
X58033101Y-23173580D01*
X58037451Y-23168395D01*
X58043810Y-23166081D01*
X58053552Y-23149207D01*
X58066078Y-23134280D01*
X58067795Y-23124537D01*
X58069462Y-23121652D01*
X58068883Y-23118369D01*
X58070601Y-23108628D01*
X58634887Y-23108628D01*
X58652434Y-23156837D01*
X58696863Y-23182489D01*
X58747387Y-23173580D01*
X58780364Y-23134280D01*
X58784887Y-23108628D01*
X59349173Y-23108628D01*
X59366720Y-23156837D01*
X59411149Y-23182489D01*
X59461673Y-23173580D01*
X59494650Y-23134280D01*
X59499173Y-23108628D01*
X59499173Y-21946695D01*
X59856209Y-22711774D01*
X59869976Y-22725533D01*
X59881136Y-22741481D01*
X59887694Y-22743240D01*
X59892497Y-22748040D01*
X59911890Y-22749731D01*
X59930688Y-22754774D01*
X59936840Y-22751907D01*
X59943606Y-22752497D01*
X59959550Y-22741325D01*
X59977190Y-22733106D01*
X59982887Y-22724973D01*
X59985622Y-22723058D01*
X59986482Y-22719843D01*
X59992137Y-22711773D01*
X60349173Y-21946695D01*
X60349173Y-23108628D01*
X60366720Y-23156837D01*
X60411149Y-23182489D01*
X60461673Y-23173580D01*
X60494650Y-23134280D01*
X60499173Y-23108628D01*
X60499173Y-21608628D01*
X60495747Y-21599215D01*
X60496623Y-21589238D01*
X60487229Y-21575813D01*
X60481626Y-21560419D01*
X60472953Y-21555411D01*
X60467210Y-21547204D01*
X60451384Y-21542958D01*
X60437197Y-21534767D01*
X60427333Y-21536506D01*
X60417659Y-21533911D01*
X60402807Y-21540830D01*
X60386673Y-21543676D01*
X60380234Y-21551348D01*
X60371156Y-21555579D01*
X60356209Y-21576911D01*
X59924172Y-22502703D01*
X59492137Y-21576912D01*
X59485051Y-21569831D01*
X59481626Y-21560419D01*
X59467436Y-21552226D01*
X59455849Y-21540646D01*
X59445872Y-21539775D01*
X59437197Y-21534767D01*
X59421061Y-21537612D01*
X59404740Y-21536189D01*
X59396536Y-21541936D01*
X59386673Y-21543676D01*
X59376141Y-21556226D01*
X59362724Y-21565628D01*
X59360134Y-21575302D01*
X59353696Y-21582976D01*
X59349173Y-21608628D01*
X59349173Y-23108628D01*
X58784887Y-23108628D01*
X58784887Y-21608628D01*
X58767340Y-21560419D01*
X58722911Y-21534767D01*
X58672387Y-21543676D01*
X58639410Y-21582976D01*
X58634887Y-21608628D01*
X58634887Y-23108628D01*
X58070601Y-23108628D01*
X58070601Y-21608628D01*
X58063937Y-21590319D01*
X58060553Y-21571128D01*
X58055368Y-21566777D01*
X58053054Y-21560419D01*
X58036180Y-21550676D01*
X58021253Y-21538151D01*
X58011510Y-21536433D01*
X58008625Y-21534767D01*
X58005342Y-21535345D01*
X57995601Y-21533628D01*
X57638458Y-21533628D01*
X57636920Y-21534187D01*
X57614740Y-21537477D01*
X57400455Y-21608906D01*
X57396942Y-21611693D01*
X57392476Y-21612084D01*
X57371139Y-21627024D01*
X57228282Y-21769881D01*
X57227591Y-21771362D01*
X57214233Y-21789373D01*
X57142804Y-21932230D01*
X57142397Y-21935758D01*
X57137125Y-21947581D01*
X57065697Y-22233295D01*
X57066057Y-22236743D01*
X57063458Y-22251485D01*
X57063458Y-22465771D01*
X56570601Y-22465771D01*
X56570601Y-21608628D01*
X56553054Y-21560419D01*
X56508625Y-21534767D01*
X56458101Y-21543676D01*
X56425124Y-21582976D01*
X56420601Y-21608628D01*
X56420601Y-23108628D01*
X56206315Y-23108628D01*
X56206315Y-21319342D01*
X60713459Y-21319342D01*
X60713459Y-23397914D01*
G37*
X134310619Y-57188379D02*
X133643952Y-57188379D01*
X133310619Y-57188379D02*
X133358238Y-57140760D01*
X133358238Y-57140760D02*
X133405857Y-57188379D01*
X133405857Y-57188379D02*
X133358238Y-57235998D01*
X133358238Y-57235998D02*
X133310619Y-57188379D01*
X133310619Y-57188379D02*
X133405857Y-57188379D01*
X133643952Y-57664569D02*
X134310619Y-57664569D01*
X133739190Y-57664569D02*
X133691571Y-57712188D01*
X133691571Y-57712188D02*
X133643952Y-57807426D01*
X133643952Y-57807426D02*
X133643952Y-57950283D01*
X133643952Y-57950283D02*
X133691571Y-58045521D01*
X133691571Y-58045521D02*
X133786809Y-58093140D01*
X133786809Y-58093140D02*
X134310619Y-58093140D01*
G36*
X44542364Y-124699077D02*
G01*
X44614306Y-124771019D01*
X44654648Y-124932386D01*
X44654648Y-125247251D01*
X44614306Y-125408617D01*
X44542363Y-125480561D01*
X44473848Y-125514819D01*
X44318782Y-125514819D01*
X44250266Y-125480561D01*
X44178323Y-125408617D01*
X44137982Y-125247251D01*
X44137982Y-124932386D01*
X44178323Y-124771019D01*
X44250266Y-124699077D01*
X44318782Y-124664819D01*
X44473848Y-124664819D01*
X44542364Y-124699077D01*
G37*
G36*
X46368934Y-125514819D02*
G01*
X46218009Y-125514819D01*
X46103496Y-125476648D01*
X46029383Y-125402534D01*
X45990889Y-125325547D01*
X45947506Y-125152013D01*
X45947506Y-125027624D01*
X45990889Y-124854090D01*
X46029383Y-124777103D01*
X46103496Y-124702990D01*
X46218009Y-124664819D01*
X46368934Y-124664819D01*
X46368934Y-125514819D01*
G37*
G36*
X48376077Y-125807676D02*
G01*
X41941502Y-125807676D01*
X41941502Y-124576795D01*
X42084359Y-124576795D01*
X42093268Y-124627319D01*
X42132568Y-124660296D01*
X42158220Y-124664819D01*
X42368934Y-124664819D01*
X42368934Y-125589819D01*
X42386481Y-125638028D01*
X42430910Y-125663680D01*
X42481434Y-125654771D01*
X42514411Y-125615471D01*
X42518934Y-125589819D01*
X42518934Y-125399342D01*
X42987982Y-125399342D01*
X42989515Y-125403555D01*
X42988474Y-125407916D01*
X42995900Y-125432883D01*
X43043519Y-125528121D01*
X43044707Y-125529246D01*
X43057567Y-125547612D01*
X43105186Y-125595232D01*
X43106667Y-125595922D01*
X43124679Y-125609282D01*
X43219917Y-125656901D01*
X43224370Y-125657413D01*
X43227806Y-125660296D01*
X43253458Y-125664819D01*
X43443934Y-125664819D01*
X43448147Y-125663285D01*
X43452508Y-125664327D01*
X43477475Y-125656901D01*
X43572713Y-125609282D01*
X43573837Y-125608094D01*
X43592206Y-125595232D01*
X43639824Y-125547613D01*
X43640514Y-125546131D01*
X43653873Y-125528121D01*
X43701492Y-125432883D01*
X43702004Y-125428429D01*
X43704887Y-125424994D01*
X43709410Y-125399342D01*
X43709410Y-125256485D01*
X43987982Y-125256485D01*
X43989167Y-125259742D01*
X43990221Y-125274675D01*
X44037840Y-125465151D01*
X44041982Y-125471283D01*
X44042627Y-125478657D01*
X44057568Y-125499994D01*
X44152806Y-125595233D01*
X44154288Y-125595924D01*
X44172298Y-125609282D01*
X44267536Y-125656901D01*
X44271989Y-125657413D01*
X44275425Y-125660296D01*
X44301077Y-125664819D01*
X44491553Y-125664819D01*
X44495766Y-125663285D01*
X44500127Y-125664327D01*
X44525094Y-125656901D01*
X44620332Y-125609282D01*
X44621457Y-125608092D01*
X44639824Y-125595233D01*
X44735063Y-125499993D01*
X44738190Y-125493285D01*
X44744180Y-125488940D01*
X44754790Y-125465151D01*
X44802409Y-125274675D01*
X44802048Y-125271226D01*
X44804648Y-125256485D01*
X44804648Y-125161247D01*
X45797506Y-125161247D01*
X45798691Y-125164504D01*
X45799745Y-125179437D01*
X45847364Y-125369913D01*
X45849352Y-125372857D01*
X45853043Y-125385264D01*
X45900662Y-125480502D01*
X45901848Y-125481625D01*
X45914711Y-125499994D01*
X46009949Y-125595233D01*
X46014013Y-125597128D01*
X46016360Y-125600948D01*
X46039265Y-125613351D01*
X46182121Y-125660970D01*
X46183756Y-125660925D01*
X46205839Y-125664819D01*
X46443934Y-125664819D01*
X46462242Y-125658155D01*
X46481434Y-125654771D01*
X46485784Y-125649586D01*
X46492143Y-125647272D01*
X46501885Y-125630398D01*
X46514411Y-125615471D01*
X46516128Y-125605728D01*
X46517795Y-125602843D01*
X46517216Y-125599560D01*
X46518934Y-125589819D01*
X46518934Y-125576795D01*
X46798645Y-125576795D01*
X46807554Y-125627319D01*
X46846854Y-125660296D01*
X46872506Y-125664819D01*
X47348696Y-125664819D01*
X47367004Y-125658155D01*
X47386196Y-125654771D01*
X47390546Y-125649586D01*
X47396905Y-125647272D01*
X47406647Y-125630398D01*
X47419173Y-125615471D01*
X47420890Y-125605728D01*
X47422557Y-125602843D01*
X47421978Y-125599560D01*
X47423696Y-125589819D01*
X47423696Y-125576795D01*
X47608169Y-125576795D01*
X47617078Y-125627319D01*
X47656378Y-125660296D01*
X47682030Y-125664819D01*
X48158220Y-125664819D01*
X48176528Y-125658155D01*
X48195720Y-125654771D01*
X48200070Y-125649586D01*
X48206429Y-125647272D01*
X48216171Y-125630398D01*
X48228697Y-125615471D01*
X48230414Y-125605728D01*
X48232081Y-125602843D01*
X48231502Y-125599560D01*
X48233220Y-125589819D01*
X48233220Y-124589819D01*
X48215673Y-124541610D01*
X48171244Y-124515958D01*
X48120720Y-124524867D01*
X48087743Y-124564167D01*
X48083220Y-124589819D01*
X48083220Y-125514819D01*
X47682030Y-125514819D01*
X47633821Y-125532366D01*
X47608169Y-125576795D01*
X47423696Y-125576795D01*
X47423696Y-124589819D01*
X47417032Y-124571510D01*
X47413648Y-124552319D01*
X47408463Y-124547968D01*
X47406149Y-124541610D01*
X47389275Y-124531867D01*
X47374348Y-124519342D01*
X47364605Y-124517624D01*
X47361720Y-124515958D01*
X47358437Y-124516536D01*
X47348696Y-124514819D01*
X46872506Y-124514819D01*
X46824297Y-124532366D01*
X46798645Y-124576795D01*
X46807554Y-124627319D01*
X46846854Y-124660296D01*
X46872506Y-124664819D01*
X47273696Y-124664819D01*
X47273696Y-124991009D01*
X47015363Y-124991009D01*
X46967154Y-125008556D01*
X46941502Y-125052985D01*
X46950411Y-125103509D01*
X46989711Y-125136486D01*
X47015363Y-125141009D01*
X47273696Y-125141009D01*
X47273696Y-125514819D01*
X46872506Y-125514819D01*
X46824297Y-125532366D01*
X46798645Y-125576795D01*
X46518934Y-125576795D01*
X46518934Y-124589819D01*
X46512270Y-124571510D01*
X46508886Y-124552319D01*
X46503701Y-124547968D01*
X46501387Y-124541610D01*
X46484513Y-124531867D01*
X46469586Y-124519342D01*
X46459843Y-124517624D01*
X46456958Y-124515958D01*
X46453675Y-124516536D01*
X46443934Y-124514819D01*
X46205839Y-124514819D01*
X46204301Y-124515378D01*
X46182121Y-124518668D01*
X46039265Y-124566287D01*
X46035754Y-124569073D01*
X46031286Y-124569464D01*
X46009949Y-124584405D01*
X45914711Y-124679643D01*
X45914020Y-124681124D01*
X45900662Y-124699135D01*
X45853043Y-124794373D01*
X45852636Y-124797901D01*
X45847364Y-124809724D01*
X45799745Y-125000200D01*
X45800105Y-125003648D01*
X45797506Y-125018390D01*
X45797506Y-125161247D01*
X44804648Y-125161247D01*
X44804648Y-124923152D01*
X44803462Y-124919894D01*
X44802409Y-124904962D01*
X44754790Y-124714486D01*
X44750648Y-124708353D01*
X44750003Y-124700980D01*
X44735062Y-124679643D01*
X44639824Y-124584405D01*
X44638342Y-124583714D01*
X44620332Y-124570356D01*
X44525094Y-124522737D01*
X44520640Y-124522224D01*
X44517205Y-124519342D01*
X44491553Y-124514819D01*
X44301077Y-124514819D01*
X44296863Y-124516352D01*
X44292502Y-124515311D01*
X44267536Y-124522737D01*
X44172298Y-124570356D01*
X44171174Y-124571542D01*
X44152806Y-124584405D01*
X44057568Y-124679643D01*
X44054440Y-124686350D01*
X44048450Y-124690697D01*
X44037840Y-124714486D01*
X43990221Y-124904962D01*
X43990581Y-124908410D01*
X43987982Y-124923152D01*
X43987982Y-125256485D01*
X43709410Y-125256485D01*
X43709410Y-124589819D01*
X43691863Y-124541610D01*
X43647434Y-124515958D01*
X43596910Y-124524867D01*
X43563933Y-124564167D01*
X43559410Y-124589819D01*
X43559410Y-125381637D01*
X43525151Y-125450153D01*
X43494744Y-125480561D01*
X43426229Y-125514819D01*
X43271163Y-125514819D01*
X43202647Y-125480561D01*
X43172240Y-125450153D01*
X43137982Y-125381637D01*
X43137982Y-124589819D01*
X43120435Y-124541610D01*
X43076006Y-124515958D01*
X43025482Y-124524867D01*
X42992505Y-124564167D01*
X42987982Y-124589819D01*
X42987982Y-125399342D01*
X42518934Y-125399342D01*
X42518934Y-124664819D01*
X42729648Y-124664819D01*
X42777857Y-124647272D01*
X42803509Y-124602843D01*
X42794600Y-124552319D01*
X42755300Y-124519342D01*
X42729648Y-124514819D01*
X42158220Y-124514819D01*
X42110011Y-124532366D01*
X42084359Y-124576795D01*
X41941502Y-124576795D01*
X41941502Y-124371962D01*
X48376077Y-124371962D01*
X48376077Y-125807676D01*
G37*
G36*
X182637675Y-37692254D02*
G01*
X181201963Y-37692254D01*
X181201963Y-36903303D01*
X181344820Y-36903303D01*
X181351510Y-36921434D01*
X181354867Y-36940469D01*
X181360179Y-36944926D01*
X181362580Y-36951433D01*
X181382609Y-36968087D01*
X182137402Y-37399397D01*
X181419819Y-37399397D01*
X181371610Y-37416944D01*
X181345958Y-37461373D01*
X181354867Y-37511897D01*
X181394167Y-37544874D01*
X181419819Y-37549397D01*
X182419819Y-37549397D01*
X182426336Y-37547024D01*
X182433172Y-37548199D01*
X182449869Y-37538459D01*
X182468028Y-37531850D01*
X182471495Y-37525845D01*
X182477487Y-37522350D01*
X182484016Y-37504158D01*
X182493680Y-37487421D01*
X182492475Y-37480589D01*
X182494818Y-37474063D01*
X182488127Y-37455931D01*
X182484771Y-37436897D01*
X182479458Y-37432439D01*
X182477058Y-37425933D01*
X182457030Y-37409279D01*
X181702236Y-36977969D01*
X182419819Y-36977969D01*
X182468028Y-36960422D01*
X182493680Y-36915993D01*
X182484771Y-36865469D01*
X182445471Y-36832492D01*
X182419819Y-36827969D01*
X181419819Y-36827969D01*
X181413302Y-36830340D01*
X181406467Y-36829167D01*
X181389769Y-36838906D01*
X181371610Y-36845516D01*
X181368142Y-36851521D01*
X181362151Y-36855016D01*
X181355621Y-36873207D01*
X181345958Y-36889945D01*
X181347162Y-36896776D01*
X181344820Y-36903303D01*
X181201963Y-36903303D01*
X181201963Y-36413755D01*
X181345958Y-36413755D01*
X181354867Y-36464279D01*
X181394167Y-36497256D01*
X181419819Y-36501779D01*
X182419819Y-36501779D01*
X182468028Y-36484232D01*
X182493680Y-36439803D01*
X182484771Y-36389279D01*
X182445471Y-36356302D01*
X182419819Y-36351779D01*
X181419819Y-36351779D01*
X181371610Y-36369326D01*
X181345958Y-36413755D01*
X181201963Y-36413755D01*
X181201963Y-36208922D01*
X182637675Y-36208922D01*
X182637675Y-37692254D01*
G37*
G36*
X64113555Y-26299077D02*
G01*
X64185497Y-26371019D01*
X64225839Y-26532386D01*
X64225839Y-26847251D01*
X64185497Y-27008617D01*
X64113554Y-27080561D01*
X64045039Y-27114819D01*
X63889973Y-27114819D01*
X63821457Y-27080561D01*
X63749514Y-27008617D01*
X63709173Y-26847251D01*
X63709173Y-26532386D01*
X63749514Y-26371019D01*
X63821457Y-26299077D01*
X63889973Y-26264819D01*
X64045039Y-26264819D01*
X64113555Y-26299077D01*
G37*
G36*
X64518696Y-27407676D02*
G01*
X61512693Y-27407676D01*
X61512693Y-26176795D01*
X61655550Y-26176795D01*
X61664459Y-26227319D01*
X61703759Y-26260296D01*
X61729411Y-26264819D01*
X61940125Y-26264819D01*
X61940125Y-27189819D01*
X61957672Y-27238028D01*
X62002101Y-27263680D01*
X62052625Y-27254771D01*
X62085602Y-27215471D01*
X62090125Y-27189819D01*
X62090125Y-26999342D01*
X62559173Y-26999342D01*
X62560706Y-27003555D01*
X62559665Y-27007916D01*
X62567091Y-27032883D01*
X62614710Y-27128121D01*
X62615898Y-27129246D01*
X62628758Y-27147612D01*
X62676377Y-27195232D01*
X62677858Y-27195922D01*
X62695870Y-27209282D01*
X62791108Y-27256901D01*
X62795561Y-27257413D01*
X62798997Y-27260296D01*
X62824649Y-27264819D01*
X63015125Y-27264819D01*
X63019338Y-27263285D01*
X63023699Y-27264327D01*
X63048666Y-27256901D01*
X63143904Y-27209282D01*
X63145028Y-27208094D01*
X63163397Y-27195232D01*
X63211015Y-27147613D01*
X63211705Y-27146131D01*
X63225064Y-27128121D01*
X63272683Y-27032883D01*
X63273195Y-27028429D01*
X63276078Y-27024994D01*
X63280601Y-26999342D01*
X63280601Y-26856485D01*
X63559173Y-26856485D01*
X63560358Y-26859742D01*
X63561412Y-26874675D01*
X63609031Y-27065151D01*
X63613173Y-27071283D01*
X63613818Y-27078657D01*
X63628759Y-27099994D01*
X63723997Y-27195233D01*
X63725479Y-27195924D01*
X63743489Y-27209282D01*
X63838727Y-27256901D01*
X63843180Y-27257413D01*
X63846616Y-27260296D01*
X63872268Y-27264819D01*
X64062744Y-27264819D01*
X64066957Y-27263285D01*
X64071318Y-27264327D01*
X64096285Y-27256901D01*
X64191523Y-27209282D01*
X64192648Y-27208092D01*
X64211015Y-27195233D01*
X64306254Y-27099993D01*
X64309381Y-27093285D01*
X64315371Y-27088940D01*
X64325981Y-27065151D01*
X64373600Y-26874675D01*
X64373239Y-26871226D01*
X64375839Y-26856485D01*
X64375839Y-26523152D01*
X64374653Y-26519894D01*
X64373600Y-26504962D01*
X64325981Y-26314486D01*
X64321839Y-26308353D01*
X64321194Y-26300980D01*
X64306253Y-26279643D01*
X64211015Y-26184405D01*
X64209533Y-26183714D01*
X64191523Y-26170356D01*
X64096285Y-26122737D01*
X64091831Y-26122224D01*
X64088396Y-26119342D01*
X64062744Y-26114819D01*
X63872268Y-26114819D01*
X63868054Y-26116352D01*
X63863693Y-26115311D01*
X63838727Y-26122737D01*
X63743489Y-26170356D01*
X63742365Y-26171542D01*
X63723997Y-26184405D01*
X63628759Y-26279643D01*
X63625631Y-26286350D01*
X63619641Y-26290697D01*
X63609031Y-26314486D01*
X63561412Y-26504962D01*
X63561772Y-26508410D01*
X63559173Y-26523152D01*
X63559173Y-26856485D01*
X63280601Y-26856485D01*
X63280601Y-26189819D01*
X63263054Y-26141610D01*
X63218625Y-26115958D01*
X63168101Y-26124867D01*
X63135124Y-26164167D01*
X63130601Y-26189819D01*
X63130601Y-26981637D01*
X63096342Y-27050153D01*
X63065935Y-27080561D01*
X62997420Y-27114819D01*
X62842354Y-27114819D01*
X62773838Y-27080561D01*
X62743431Y-27050153D01*
X62709173Y-26981637D01*
X62709173Y-26189819D01*
X62691626Y-26141610D01*
X62647197Y-26115958D01*
X62596673Y-26124867D01*
X62563696Y-26164167D01*
X62559173Y-26189819D01*
X62559173Y-26999342D01*
X62090125Y-26999342D01*
X62090125Y-26264819D01*
X62300839Y-26264819D01*
X62349048Y-26247272D01*
X62374700Y-26202843D01*
X62365791Y-26152319D01*
X62326491Y-26119342D01*
X62300839Y-26114819D01*
X61729411Y-26114819D01*
X61681202Y-26132366D01*
X61655550Y-26176795D01*
X61512693Y-26176795D01*
X61512693Y-25971962D01*
X64518696Y-25971962D01*
X64518696Y-27407676D01*
G37*
G36*
X28777675Y-47452254D02*
G01*
X27341963Y-47452254D01*
X27341963Y-46663303D01*
X27484820Y-46663303D01*
X27491510Y-46681434D01*
X27494867Y-46700469D01*
X27500179Y-46704926D01*
X27502580Y-46711433D01*
X27522609Y-46728087D01*
X28277402Y-47159397D01*
X27559819Y-47159397D01*
X27511610Y-47176944D01*
X27485958Y-47221373D01*
X27494867Y-47271897D01*
X27534167Y-47304874D01*
X27559819Y-47309397D01*
X28559819Y-47309397D01*
X28566336Y-47307024D01*
X28573172Y-47308199D01*
X28589869Y-47298459D01*
X28608028Y-47291850D01*
X28611495Y-47285845D01*
X28617487Y-47282350D01*
X28624016Y-47264158D01*
X28633680Y-47247421D01*
X28632475Y-47240589D01*
X28634818Y-47234063D01*
X28628127Y-47215931D01*
X28624771Y-47196897D01*
X28619458Y-47192439D01*
X28617058Y-47185933D01*
X28597030Y-47169279D01*
X27842236Y-46737969D01*
X28559819Y-46737969D01*
X28608028Y-46720422D01*
X28633680Y-46675993D01*
X28624771Y-46625469D01*
X28585471Y-46592492D01*
X28559819Y-46587969D01*
X27559819Y-46587969D01*
X27553302Y-46590340D01*
X27546467Y-46589167D01*
X27529769Y-46598906D01*
X27511610Y-46605516D01*
X27508142Y-46611521D01*
X27502151Y-46615016D01*
X27495621Y-46633207D01*
X27485958Y-46649945D01*
X27487162Y-46656776D01*
X27484820Y-46663303D01*
X27341963Y-46663303D01*
X27341963Y-46173755D01*
X27485958Y-46173755D01*
X27494867Y-46224279D01*
X27534167Y-46257256D01*
X27559819Y-46261779D01*
X28559819Y-46261779D01*
X28608028Y-46244232D01*
X28633680Y-46199803D01*
X28624771Y-46149279D01*
X28585471Y-46116302D01*
X28559819Y-46111779D01*
X27559819Y-46111779D01*
X27511610Y-46129326D01*
X27485958Y-46173755D01*
X27341963Y-46173755D01*
X27341963Y-45968922D01*
X28777675Y-45968922D01*
X28777675Y-47452254D01*
G37*
G36*
X175418628Y-37647169D02*
G01*
X175384370Y-37715685D01*
X175353963Y-37746092D01*
X175285447Y-37780350D01*
X175178000Y-37780350D01*
X175109484Y-37746092D01*
X175079077Y-37715685D01*
X175044819Y-37647169D01*
X175044819Y-37358922D01*
X175418628Y-37358922D01*
X175418628Y-37647169D01*
G37*
G36*
X176187676Y-39881592D02*
G01*
X174751962Y-39881592D01*
X174751962Y-39664874D01*
X174894819Y-39664874D01*
X174912366Y-39713083D01*
X174956795Y-39738735D01*
X175007319Y-39729826D01*
X175040296Y-39690526D01*
X175044819Y-39664874D01*
X175044819Y-39263684D01*
X175371009Y-39263684D01*
X175371009Y-39522017D01*
X175388556Y-39570226D01*
X175432985Y-39595878D01*
X175483509Y-39586969D01*
X175516486Y-39547669D01*
X175521009Y-39522017D01*
X175521009Y-39263684D01*
X175969819Y-39263684D01*
X176018028Y-39246137D01*
X176043680Y-39201708D01*
X176034771Y-39151184D01*
X175995471Y-39118207D01*
X175969819Y-39113684D01*
X174969819Y-39113684D01*
X174951510Y-39120347D01*
X174932319Y-39123732D01*
X174927968Y-39128916D01*
X174921610Y-39131231D01*
X174911867Y-39148104D01*
X174899342Y-39163032D01*
X174897624Y-39172774D01*
X174895958Y-39175660D01*
X174896536Y-39178942D01*
X174894819Y-39188684D01*
X174894819Y-39664874D01*
X174751962Y-39664874D01*
X174751962Y-38760112D01*
X174894819Y-38760112D01*
X174912366Y-38808321D01*
X174956795Y-38833973D01*
X175007319Y-38825064D01*
X175040296Y-38785764D01*
X175044819Y-38760112D01*
X175044819Y-38358922D01*
X175371009Y-38358922D01*
X175371009Y-38617255D01*
X175388556Y-38665464D01*
X175432985Y-38691116D01*
X175483509Y-38682207D01*
X175516486Y-38642907D01*
X175521009Y-38617255D01*
X175521009Y-38358922D01*
X175894819Y-38358922D01*
X175894819Y-38760112D01*
X175912366Y-38808321D01*
X175956795Y-38833973D01*
X176007319Y-38825064D01*
X176040296Y-38785764D01*
X176044819Y-38760112D01*
X176044819Y-38283922D01*
X176038155Y-38265613D01*
X176034771Y-38246422D01*
X176029586Y-38242071D01*
X176027272Y-38235713D01*
X176010398Y-38225970D01*
X175995471Y-38213445D01*
X175985728Y-38211727D01*
X175982843Y-38210061D01*
X175979560Y-38210639D01*
X175969819Y-38208922D01*
X174969819Y-38208922D01*
X174951510Y-38215585D01*
X174932319Y-38218970D01*
X174927968Y-38224154D01*
X174921610Y-38226469D01*
X174911867Y-38243342D01*
X174899342Y-38258270D01*
X174897624Y-38268012D01*
X174895958Y-38270898D01*
X174896536Y-38274180D01*
X174894819Y-38283922D01*
X174894819Y-38760112D01*
X174751962Y-38760112D01*
X174751962Y-37664874D01*
X174894819Y-37664874D01*
X174896352Y-37669087D01*
X174895311Y-37673448D01*
X174902737Y-37698415D01*
X174950356Y-37793653D01*
X174951545Y-37794778D01*
X174964405Y-37813145D01*
X175012024Y-37860764D01*
X175013505Y-37861455D01*
X175031516Y-37874813D01*
X175126754Y-37922432D01*
X175131207Y-37922944D01*
X175134643Y-37925827D01*
X175160295Y-37930350D01*
X175303152Y-37930350D01*
X175307365Y-37928816D01*
X175311726Y-37929858D01*
X175336693Y-37922432D01*
X175431931Y-37874813D01*
X175433056Y-37873623D01*
X175451423Y-37860764D01*
X175499042Y-37813145D01*
X175499733Y-37811663D01*
X175513091Y-37793653D01*
X175560710Y-37698415D01*
X175561222Y-37693961D01*
X175564105Y-37690526D01*
X175568440Y-37665934D01*
X175926810Y-37916793D01*
X175976366Y-37930063D01*
X176022860Y-37908376D01*
X176044535Y-37861876D01*
X176031250Y-37812324D01*
X176012829Y-37793908D01*
X175568628Y-37482967D01*
X175568628Y-37358922D01*
X175969819Y-37358922D01*
X176018028Y-37341375D01*
X176043680Y-37296946D01*
X176034771Y-37246422D01*
X175995471Y-37213445D01*
X175969819Y-37208922D01*
X174969819Y-37208922D01*
X174951510Y-37215585D01*
X174932319Y-37218970D01*
X174927968Y-37224154D01*
X174921610Y-37226469D01*
X174911867Y-37243342D01*
X174899342Y-37258270D01*
X174897624Y-37268012D01*
X174895958Y-37270898D01*
X174896536Y-37274180D01*
X174894819Y-37283922D01*
X174894819Y-37664874D01*
X174751962Y-37664874D01*
X174751962Y-36961589D01*
X174895630Y-36961589D01*
X174920059Y-37006703D01*
X174967770Y-37025560D01*
X174993536Y-37021739D01*
X175993536Y-36688406D01*
X175995227Y-36687063D01*
X175997385Y-36687005D01*
X176015137Y-36671263D01*
X176033722Y-36656515D01*
X176034154Y-36654400D01*
X176035771Y-36652967D01*
X176039250Y-36629498D01*
X176044008Y-36606254D01*
X176042979Y-36604354D01*
X176043296Y-36602219D01*
X176030875Y-36582001D01*
X176019579Y-36561140D01*
X176017571Y-36560346D01*
X176016441Y-36558506D01*
X175993536Y-36546104D01*
X174993536Y-36212771D01*
X174942252Y-36214172D01*
X174903867Y-36248209D01*
X174896342Y-36298958D01*
X174923197Y-36342670D01*
X174946102Y-36355073D01*
X175732648Y-36617255D01*
X174946102Y-36879437D01*
X174905916Y-36911328D01*
X174895630Y-36961589D01*
X174751962Y-36961589D01*
X174751962Y-36069914D01*
X176187676Y-36069914D01*
X176187676Y-39881592D01*
G37*
X31248094Y-122814819D02*
X31248094Y-121814819D01*
X31248094Y-122291009D02*
X30676666Y-122291009D01*
X30676666Y-122814819D02*
X30676666Y-121814819D01*
X29676666Y-122814819D02*
X30248094Y-122814819D01*
X29962380Y-122814819D02*
X29962380Y-121814819D01*
X29962380Y-121814819D02*
X30057618Y-121957676D01*
X30057618Y-121957676D02*
X30152856Y-122052914D01*
X30152856Y-122052914D02*
X30248094Y-122100533D01*
X29343332Y-121814819D02*
X28724285Y-121814819D01*
X28724285Y-121814819D02*
X29057618Y-122195771D01*
X29057618Y-122195771D02*
X28914761Y-122195771D01*
X28914761Y-122195771D02*
X28819523Y-122243390D01*
X28819523Y-122243390D02*
X28771904Y-122291009D01*
X28771904Y-122291009D02*
X28724285Y-122386247D01*
X28724285Y-122386247D02*
X28724285Y-122624342D01*
X28724285Y-122624342D02*
X28771904Y-122719580D01*
X28771904Y-122719580D02*
X28819523Y-122767200D01*
X28819523Y-122767200D02*
X28914761Y-122814819D01*
X28914761Y-122814819D02*
X29200475Y-122814819D01*
X29200475Y-122814819D02*
X29295713Y-122767200D01*
X29295713Y-122767200D02*
X29343332Y-122719580D01*
X105681904Y-70434819D02*
X105681904Y-69434819D01*
X105681904Y-69911009D02*
X105110476Y-69911009D01*
X105110476Y-70434819D02*
X105110476Y-69434819D01*
X104586666Y-70434819D02*
X104396190Y-70434819D01*
X104396190Y-70434819D02*
X104300952Y-70387200D01*
X104300952Y-70387200D02*
X104253333Y-70339580D01*
X104253333Y-70339580D02*
X104158095Y-70196723D01*
X104158095Y-70196723D02*
X104110476Y-70006247D01*
X104110476Y-70006247D02*
X104110476Y-69625295D01*
X104110476Y-69625295D02*
X104158095Y-69530057D01*
X104158095Y-69530057D02*
X104205714Y-69482438D01*
X104205714Y-69482438D02*
X104300952Y-69434819D01*
X104300952Y-69434819D02*
X104491428Y-69434819D01*
X104491428Y-69434819D02*
X104586666Y-69482438D01*
X104586666Y-69482438D02*
X104634285Y-69530057D01*
X104634285Y-69530057D02*
X104681904Y-69625295D01*
X104681904Y-69625295D02*
X104681904Y-69863390D01*
X104681904Y-69863390D02*
X104634285Y-69958628D01*
X104634285Y-69958628D02*
X104586666Y-70006247D01*
X104586666Y-70006247D02*
X104491428Y-70053866D01*
X104491428Y-70053866D02*
X104300952Y-70053866D01*
X104300952Y-70053866D02*
X104205714Y-70006247D01*
X104205714Y-70006247D02*
X104158095Y-69958628D01*
X104158095Y-69958628D02*
X104110476Y-69863390D01*
X31278094Y-70854819D02*
X31278094Y-69854819D01*
X31278094Y-70331009D02*
X30706666Y-70331009D01*
X30706666Y-70854819D02*
X30706666Y-69854819D01*
X29706666Y-70854819D02*
X30278094Y-70854819D01*
X29992380Y-70854819D02*
X29992380Y-69854819D01*
X29992380Y-69854819D02*
X30087618Y-69997676D01*
X30087618Y-69997676D02*
X30182856Y-70092914D01*
X30182856Y-70092914D02*
X30278094Y-70140533D01*
X29087618Y-69854819D02*
X28992380Y-69854819D01*
X28992380Y-69854819D02*
X28897142Y-69902438D01*
X28897142Y-69902438D02*
X28849523Y-69950057D01*
X28849523Y-69950057D02*
X28801904Y-70045295D01*
X28801904Y-70045295D02*
X28754285Y-70235771D01*
X28754285Y-70235771D02*
X28754285Y-70473866D01*
X28754285Y-70473866D02*
X28801904Y-70664342D01*
X28801904Y-70664342D02*
X28849523Y-70759580D01*
X28849523Y-70759580D02*
X28897142Y-70807200D01*
X28897142Y-70807200D02*
X28992380Y-70854819D01*
X28992380Y-70854819D02*
X29087618Y-70854819D01*
X29087618Y-70854819D02*
X29182856Y-70807200D01*
X29182856Y-70807200D02*
X29230475Y-70759580D01*
X29230475Y-70759580D02*
X29278094Y-70664342D01*
X29278094Y-70664342D02*
X29325713Y-70473866D01*
X29325713Y-70473866D02*
X29325713Y-70235771D01*
X29325713Y-70235771D02*
X29278094Y-70045295D01*
X29278094Y-70045295D02*
X29230475Y-69950057D01*
X29230475Y-69950057D02*
X29182856Y-69902438D01*
X29182856Y-69902438D02*
X29087618Y-69854819D01*
X180601904Y-70544819D02*
X180601904Y-69544819D01*
X180601904Y-70021009D02*
X180030476Y-70021009D01*
X180030476Y-70544819D02*
X180030476Y-69544819D01*
X179411428Y-69973390D02*
X179506666Y-69925771D01*
X179506666Y-69925771D02*
X179554285Y-69878152D01*
X179554285Y-69878152D02*
X179601904Y-69782914D01*
X179601904Y-69782914D02*
X179601904Y-69735295D01*
X179601904Y-69735295D02*
X179554285Y-69640057D01*
X179554285Y-69640057D02*
X179506666Y-69592438D01*
X179506666Y-69592438D02*
X179411428Y-69544819D01*
X179411428Y-69544819D02*
X179220952Y-69544819D01*
X179220952Y-69544819D02*
X179125714Y-69592438D01*
X179125714Y-69592438D02*
X179078095Y-69640057D01*
X179078095Y-69640057D02*
X179030476Y-69735295D01*
X179030476Y-69735295D02*
X179030476Y-69782914D01*
X179030476Y-69782914D02*
X179078095Y-69878152D01*
X179078095Y-69878152D02*
X179125714Y-69925771D01*
X179125714Y-69925771D02*
X179220952Y-69973390D01*
X179220952Y-69973390D02*
X179411428Y-69973390D01*
X179411428Y-69973390D02*
X179506666Y-70021009D01*
X179506666Y-70021009D02*
X179554285Y-70068628D01*
X179554285Y-70068628D02*
X179601904Y-70163866D01*
X179601904Y-70163866D02*
X179601904Y-70354342D01*
X179601904Y-70354342D02*
X179554285Y-70449580D01*
X179554285Y-70449580D02*
X179506666Y-70497200D01*
X179506666Y-70497200D02*
X179411428Y-70544819D01*
X179411428Y-70544819D02*
X179220952Y-70544819D01*
X179220952Y-70544819D02*
X179125714Y-70497200D01*
X179125714Y-70497200D02*
X179078095Y-70449580D01*
X179078095Y-70449580D02*
X179030476Y-70354342D01*
X179030476Y-70354342D02*
X179030476Y-70163866D01*
X179030476Y-70163866D02*
X179078095Y-70068628D01*
X179078095Y-70068628D02*
X179125714Y-70021009D01*
X179125714Y-70021009D02*
X179220952Y-69973390D01*
X106208094Y-122404819D02*
X106208094Y-121404819D01*
X106208094Y-121881009D02*
X105636666Y-121881009D01*
X105636666Y-122404819D02*
X105636666Y-121404819D01*
X104636666Y-122404819D02*
X105208094Y-122404819D01*
X104922380Y-122404819D02*
X104922380Y-121404819D01*
X104922380Y-121404819D02*
X105017618Y-121547676D01*
X105017618Y-121547676D02*
X105112856Y-121642914D01*
X105112856Y-121642914D02*
X105208094Y-121690533D01*
X104255713Y-121500057D02*
X104208094Y-121452438D01*
X104208094Y-121452438D02*
X104112856Y-121404819D01*
X104112856Y-121404819D02*
X103874761Y-121404819D01*
X103874761Y-121404819D02*
X103779523Y-121452438D01*
X103779523Y-121452438D02*
X103731904Y-121500057D01*
X103731904Y-121500057D02*
X103684285Y-121595295D01*
X103684285Y-121595295D02*
X103684285Y-121690533D01*
X103684285Y-121690533D02*
X103731904Y-121833390D01*
X103731904Y-121833390D02*
X104303332Y-122404819D01*
X104303332Y-122404819D02*
X103684285Y-122404819D01*
X74969523Y-25524819D02*
X74969523Y-26239104D01*
X74969523Y-26239104D02*
X75017142Y-26381961D01*
X75017142Y-26381961D02*
X75112380Y-26477200D01*
X75112380Y-26477200D02*
X75255237Y-26524819D01*
X75255237Y-26524819D02*
X75350475Y-26524819D01*
X74540951Y-25620057D02*
X74493332Y-25572438D01*
X74493332Y-25572438D02*
X74398094Y-25524819D01*
X74398094Y-25524819D02*
X74159999Y-25524819D01*
X74159999Y-25524819D02*
X74064761Y-25572438D01*
X74064761Y-25572438D02*
X74017142Y-25620057D01*
X74017142Y-25620057D02*
X73969523Y-25715295D01*
X73969523Y-25715295D02*
X73969523Y-25810533D01*
X73969523Y-25810533D02*
X74017142Y-25953390D01*
X74017142Y-25953390D02*
X74588570Y-26524819D01*
X74588570Y-26524819D02*
X73969523Y-26524819D01*
X73064761Y-25524819D02*
X73540951Y-25524819D01*
X73540951Y-25524819D02*
X73588570Y-26001009D01*
X73588570Y-26001009D02*
X73540951Y-25953390D01*
X73540951Y-25953390D02*
X73445713Y-25905771D01*
X73445713Y-25905771D02*
X73207618Y-25905771D01*
X73207618Y-25905771D02*
X73112380Y-25953390D01*
X73112380Y-25953390D02*
X73064761Y-26001009D01*
X73064761Y-26001009D02*
X73017142Y-26096247D01*
X73017142Y-26096247D02*
X73017142Y-26334342D01*
X73017142Y-26334342D02*
X73064761Y-26429580D01*
X73064761Y-26429580D02*
X73112380Y-26477200D01*
X73112380Y-26477200D02*
X73207618Y-26524819D01*
X73207618Y-26524819D02*
X73445713Y-26524819D01*
X73445713Y-26524819D02*
X73540951Y-26477200D01*
X73540951Y-26477200D02*
X73588570Y-26429580D01*
X39889523Y-128884819D02*
X39889523Y-129599104D01*
X39889523Y-129599104D02*
X39937142Y-129741961D01*
X39937142Y-129741961D02*
X40032380Y-129837200D01*
X40032380Y-129837200D02*
X40175237Y-129884819D01*
X40175237Y-129884819D02*
X40270475Y-129884819D01*
X39460951Y-128980057D02*
X39413332Y-128932438D01*
X39413332Y-128932438D02*
X39318094Y-128884819D01*
X39318094Y-128884819D02*
X39079999Y-128884819D01*
X39079999Y-128884819D02*
X38984761Y-128932438D01*
X38984761Y-128932438D02*
X38937142Y-128980057D01*
X38937142Y-128980057D02*
X38889523Y-129075295D01*
X38889523Y-129075295D02*
X38889523Y-129170533D01*
X38889523Y-129170533D02*
X38937142Y-129313390D01*
X38937142Y-129313390D02*
X39508570Y-129884819D01*
X39508570Y-129884819D02*
X38889523Y-129884819D01*
X38318094Y-129313390D02*
X38413332Y-129265771D01*
X38413332Y-129265771D02*
X38460951Y-129218152D01*
X38460951Y-129218152D02*
X38508570Y-129122914D01*
X38508570Y-129122914D02*
X38508570Y-129075295D01*
X38508570Y-129075295D02*
X38460951Y-128980057D01*
X38460951Y-128980057D02*
X38413332Y-128932438D01*
X38413332Y-128932438D02*
X38318094Y-128884819D01*
X38318094Y-128884819D02*
X38127618Y-128884819D01*
X38127618Y-128884819D02*
X38032380Y-128932438D01*
X38032380Y-128932438D02*
X37984761Y-128980057D01*
X37984761Y-128980057D02*
X37937142Y-129075295D01*
X37937142Y-129075295D02*
X37937142Y-129122914D01*
X37937142Y-129122914D02*
X37984761Y-129218152D01*
X37984761Y-129218152D02*
X38032380Y-129265771D01*
X38032380Y-129265771D02*
X38127618Y-129313390D01*
X38127618Y-129313390D02*
X38318094Y-129313390D01*
X38318094Y-129313390D02*
X38413332Y-129361009D01*
X38413332Y-129361009D02*
X38460951Y-129408628D01*
X38460951Y-129408628D02*
X38508570Y-129503866D01*
X38508570Y-129503866D02*
X38508570Y-129694342D01*
X38508570Y-129694342D02*
X38460951Y-129789580D01*
X38460951Y-129789580D02*
X38413332Y-129837200D01*
X38413332Y-129837200D02*
X38318094Y-129884819D01*
X38318094Y-129884819D02*
X38127618Y-129884819D01*
X38127618Y-129884819D02*
X38032380Y-129837200D01*
X38032380Y-129837200D02*
X37984761Y-129789580D01*
X37984761Y-129789580D02*
X37937142Y-129694342D01*
X37937142Y-129694342D02*
X37937142Y-129503866D01*
X37937142Y-129503866D02*
X37984761Y-129408628D01*
X37984761Y-129408628D02*
X38032380Y-129361009D01*
X38032380Y-129361009D02*
X38127618Y-129313390D01*
X181278094Y-122514819D02*
X181278094Y-121514819D01*
X181278094Y-121991009D02*
X180706666Y-121991009D01*
X180706666Y-122514819D02*
X180706666Y-121514819D01*
X179706666Y-122514819D02*
X180278094Y-122514819D01*
X179992380Y-122514819D02*
X179992380Y-121514819D01*
X179992380Y-121514819D02*
X180087618Y-121657676D01*
X180087618Y-121657676D02*
X180182856Y-121752914D01*
X180182856Y-121752914D02*
X180278094Y-121800533D01*
X178754285Y-122514819D02*
X179325713Y-122514819D01*
X179039999Y-122514819D02*
X179039999Y-121514819D01*
X179039999Y-121514819D02*
X179135237Y-121657676D01*
X179135237Y-121657676D02*
X179230475Y-121752914D01*
X179230475Y-121752914D02*
X179325713Y-121800533D01*
X124109523Y-67954819D02*
X124109523Y-68669104D01*
X124109523Y-68669104D02*
X124157142Y-68811961D01*
X124157142Y-68811961D02*
X124252380Y-68907200D01*
X124252380Y-68907200D02*
X124395237Y-68954819D01*
X124395237Y-68954819D02*
X124490475Y-68954819D01*
X123680951Y-68050057D02*
X123633332Y-68002438D01*
X123633332Y-68002438D02*
X123538094Y-67954819D01*
X123538094Y-67954819D02*
X123299999Y-67954819D01*
X123299999Y-67954819D02*
X123204761Y-68002438D01*
X123204761Y-68002438D02*
X123157142Y-68050057D01*
X123157142Y-68050057D02*
X123109523Y-68145295D01*
X123109523Y-68145295D02*
X123109523Y-68240533D01*
X123109523Y-68240533D02*
X123157142Y-68383390D01*
X123157142Y-68383390D02*
X123728570Y-68954819D01*
X123728570Y-68954819D02*
X123109523Y-68954819D01*
X122776189Y-67954819D02*
X122109523Y-67954819D01*
X122109523Y-67954819D02*
X122538094Y-68954819D01*
X69729523Y-25484819D02*
X69729523Y-26199104D01*
X69729523Y-26199104D02*
X69777142Y-26341961D01*
X69777142Y-26341961D02*
X69872380Y-26437200D01*
X69872380Y-26437200D02*
X70015237Y-26484819D01*
X70015237Y-26484819D02*
X70110475Y-26484819D01*
X69300951Y-25580057D02*
X69253332Y-25532438D01*
X69253332Y-25532438D02*
X69158094Y-25484819D01*
X69158094Y-25484819D02*
X68919999Y-25484819D01*
X68919999Y-25484819D02*
X68824761Y-25532438D01*
X68824761Y-25532438D02*
X68777142Y-25580057D01*
X68777142Y-25580057D02*
X68729523Y-25675295D01*
X68729523Y-25675295D02*
X68729523Y-25770533D01*
X68729523Y-25770533D02*
X68777142Y-25913390D01*
X68777142Y-25913390D02*
X69348570Y-26484819D01*
X69348570Y-26484819D02*
X68729523Y-26484819D01*
X67872380Y-25484819D02*
X68062856Y-25484819D01*
X68062856Y-25484819D02*
X68158094Y-25532438D01*
X68158094Y-25532438D02*
X68205713Y-25580057D01*
X68205713Y-25580057D02*
X68300951Y-25722914D01*
X68300951Y-25722914D02*
X68348570Y-25913390D01*
X68348570Y-25913390D02*
X68348570Y-26294342D01*
X68348570Y-26294342D02*
X68300951Y-26389580D01*
X68300951Y-26389580D02*
X68253332Y-26437200D01*
X68253332Y-26437200D02*
X68158094Y-26484819D01*
X68158094Y-26484819D02*
X67967618Y-26484819D01*
X67967618Y-26484819D02*
X67872380Y-26437200D01*
X67872380Y-26437200D02*
X67824761Y-26389580D01*
X67824761Y-26389580D02*
X67777142Y-26294342D01*
X67777142Y-26294342D02*
X67777142Y-26056247D01*
X67777142Y-26056247D02*
X67824761Y-25961009D01*
X67824761Y-25961009D02*
X67872380Y-25913390D01*
X67872380Y-25913390D02*
X67967618Y-25865771D01*
X67967618Y-25865771D02*
X68158094Y-25865771D01*
X68158094Y-25865771D02*
X68253332Y-25913390D01*
X68253332Y-25913390D02*
X68300951Y-25961009D01*
X68300951Y-25961009D02*
X68348570Y-26056247D01*
D11*
X70600000Y-25600000D02*
X70600000Y-24350000D01*
X70900000Y-20580000D02*
X79020000Y-20580000D01*
X70900000Y-22690000D02*
X71510000Y-22690000D01*
X70900000Y-23990000D02*
X71510000Y-23990000D01*
X70900000Y-25300000D02*
X70900000Y-20580000D01*
X71510000Y-21190000D02*
X78410000Y-21190000D01*
X71510000Y-24690000D02*
X71510000Y-21190000D01*
X71850000Y-25600000D02*
X70600000Y-25600000D01*
X72360000Y-25500000D02*
X72360000Y-25300000D01*
X72660000Y-25300000D02*
X72660000Y-25500000D01*
X72660000Y-25400000D02*
X72360000Y-25400000D01*
X72660000Y-25500000D02*
X72360000Y-25500000D01*
X73460000Y-24690000D02*
X71510000Y-24690000D01*
X73460000Y-25300000D02*
X73460000Y-24690000D01*
X73860000Y-21190000D02*
X73860000Y-21690000D01*
X73860000Y-21690000D02*
X74060000Y-21690000D01*
X73960000Y-21190000D02*
X73960000Y-21690000D01*
X74060000Y-21690000D02*
X74060000Y-21190000D01*
X75860000Y-21190000D02*
X75860000Y-21690000D01*
X75860000Y-21690000D02*
X76060000Y-21690000D01*
X75960000Y-21190000D02*
X75960000Y-21690000D01*
X76060000Y-21690000D02*
X76060000Y-21190000D01*
X76460000Y-24690000D02*
X76460000Y-25300000D01*
X78410000Y-21190000D02*
X78410000Y-24690000D01*
X78410000Y-24690000D02*
X76460000Y-24690000D01*
X79020000Y-20580000D02*
X79020000Y-25300000D01*
X79020000Y-22690000D02*
X78410000Y-22690000D01*
X79020000Y-23990000D02*
X78410000Y-23990000D01*
X79020000Y-25300000D02*
X70900000Y-25300000D01*
X49120000Y-125720000D02*
X49120000Y-126970000D01*
X48820000Y-130740000D02*
X40700000Y-130740000D01*
X48820000Y-128630000D02*
X48210000Y-128630000D01*
X48820000Y-127330000D02*
X48210000Y-127330000D01*
X48820000Y-126020000D02*
X48820000Y-130740000D01*
X48210000Y-130130000D02*
X41310000Y-130130000D01*
X48210000Y-126630000D02*
X48210000Y-130130000D01*
X47870000Y-125720000D02*
X49120000Y-125720000D01*
X47360000Y-125820000D02*
X47360000Y-126020000D01*
X47060000Y-126020000D02*
X47060000Y-125820000D01*
X47060000Y-125920000D02*
X47360000Y-125920000D01*
X47060000Y-125820000D02*
X47360000Y-125820000D01*
X46260000Y-126630000D02*
X48210000Y-126630000D01*
X46260000Y-126020000D02*
X46260000Y-126630000D01*
X45860000Y-130130000D02*
X45860000Y-129630000D01*
X45860000Y-129630000D02*
X45660000Y-129630000D01*
X45760000Y-130130000D02*
X45760000Y-129630000D01*
X45660000Y-129630000D02*
X45660000Y-130130000D01*
X43860000Y-130130000D02*
X43860000Y-129630000D01*
X43860000Y-129630000D02*
X43660000Y-129630000D01*
X43760000Y-130130000D02*
X43760000Y-129630000D01*
X43660000Y-129630000D02*
X43660000Y-130130000D01*
X43260000Y-126630000D02*
X43260000Y-126020000D01*
X41310000Y-130130000D02*
X41310000Y-126630000D01*
X41310000Y-126630000D02*
X43260000Y-126630000D01*
X40700000Y-130740000D02*
X40700000Y-126020000D01*
X40700000Y-128630000D02*
X41310000Y-128630000D01*
X40700000Y-127330000D02*
X41310000Y-127330000D01*
X40700000Y-126020000D02*
X48820000Y-126020000D01*
D12*
X171480000Y-63505600D02*
X171480000Y-121505600D01*
X167730000Y-125005600D02*
X167980000Y-125005600D01*
D11*
X158790000Y-123020600D02*
X158790000Y-117820600D01*
X157885000Y-76115600D02*
X157885000Y-81255600D01*
X157885000Y-73515600D02*
X157885000Y-74845600D01*
X156555000Y-73515600D02*
X157885000Y-73515600D01*
X155285000Y-76115600D02*
X157885000Y-76115600D01*
X155285000Y-73515600D02*
X155285000Y-76115600D01*
X153650000Y-120420600D02*
X153650000Y-117820600D01*
X153650000Y-117820600D02*
X158790000Y-117820600D01*
X152685000Y-81255600D02*
X157885000Y-81255600D01*
X152685000Y-73515600D02*
X155285000Y-73515600D01*
X152685000Y-73515600D02*
X152685000Y-81255600D01*
X151050000Y-123020600D02*
X158790000Y-123020600D01*
X151050000Y-123020600D02*
X151050000Y-120420600D01*
X151050000Y-120420600D02*
X153650000Y-120420600D01*
X151050000Y-119150600D02*
X151050000Y-117820600D01*
X151050000Y-117820600D02*
X152380000Y-117820600D01*
X121580000Y-69645600D02*
X121580000Y-117965600D01*
X121580000Y-67045600D02*
X121580000Y-68375600D01*
X120250000Y-67045600D02*
X121580000Y-67045600D01*
X118980000Y-69645600D02*
X121580000Y-69645600D01*
X118980000Y-67045600D02*
X118980000Y-69645600D01*
D12*
X118980000Y-60005600D02*
X167980000Y-60005600D01*
X118980000Y-60005600D02*
X118480000Y-60005243D01*
X118230000Y-125005600D02*
X167730000Y-125005600D01*
D11*
X116380000Y-117965600D02*
X121580000Y-117965600D01*
X116380000Y-67045600D02*
X118980000Y-67045600D01*
X116380000Y-67045600D02*
X116380000Y-117965600D01*
D12*
X114980000Y-121505600D02*
X114980000Y-63555600D01*
X167980000Y-125005600D02*
G75*
G03*
X171480000Y-121505600I1J3499999D01*
G01*
X171480000Y-63505600D02*
G75*
G03*
X167980000Y-60005600I-3499999J1D01*
G01*
X114980000Y-121505600D02*
G75*
G03*
X118480000Y-125005600I3500000J0D01*
G01*
X118480000Y-60005243D02*
G75*
G03*
X114980000Y-63555600I0J-3500357D01*
G01*
X169631000Y-121505600D02*
G75*
G03*
X169631000Y-121505600I-1651000J0D01*
G01*
X169631000Y-63505600D02*
G75*
G03*
X169631000Y-63505600I-1651000J0D01*
G01*
X120631000Y-121505600D02*
G75*
G03*
X120631000Y-121505600I-1651000J0D01*
G01*
X120631000Y-63505600D02*
G75*
G03*
X120631000Y-63505600I-1651000J0D01*
G01*
D11*
X61670000Y-25610000D02*
X61670000Y-24360000D01*
X61970000Y-20590000D02*
X70090000Y-20590000D01*
X61970000Y-22700000D02*
X62580000Y-22700000D01*
X61970000Y-24000000D02*
X62580000Y-24000000D01*
X61970000Y-25310000D02*
X61970000Y-20590000D01*
X62580000Y-21200000D02*
X69480000Y-21200000D01*
X62580000Y-24700000D02*
X62580000Y-21200000D01*
X62920000Y-25610000D02*
X61670000Y-25610000D01*
X63430000Y-25510000D02*
X63430000Y-25310000D01*
X63730000Y-25310000D02*
X63730000Y-25510000D01*
X63730000Y-25410000D02*
X63430000Y-25410000D01*
X63730000Y-25510000D02*
X63430000Y-25510000D01*
X64530000Y-24700000D02*
X62580000Y-24700000D01*
X64530000Y-25310000D02*
X64530000Y-24700000D01*
X64930000Y-21200000D02*
X64930000Y-21700000D01*
X64930000Y-21700000D02*
X65130000Y-21700000D01*
X65030000Y-21200000D02*
X65030000Y-21700000D01*
X65130000Y-21700000D02*
X65130000Y-21200000D01*
X66930000Y-21200000D02*
X66930000Y-21700000D01*
X66930000Y-21700000D02*
X67130000Y-21700000D01*
X67030000Y-21200000D02*
X67030000Y-21700000D01*
X67130000Y-21700000D02*
X67130000Y-21200000D01*
X67530000Y-24700000D02*
X67530000Y-25310000D01*
X69480000Y-21200000D02*
X69480000Y-24700000D01*
X69480000Y-24700000D02*
X67530000Y-24700000D01*
X70090000Y-20590000D02*
X70090000Y-25310000D01*
X70090000Y-22700000D02*
X69480000Y-22700000D01*
X70090000Y-24000000D02*
X69480000Y-24000000D01*
X70090000Y-25310000D02*
X61970000Y-25310000D01*
M02*
