M48
INCH,TZ
T1C0.0118
T2C0.0118
T3C0.0138
T4C0.0157
T5C0.0173
T6C0.0177
T7C0.0295
T8C0.0315
T9C0.0315
T10C0.0394
T11C0.0512
T12C0.0520
T13C0.0551
T14C0.1024
%
G90
G05
T1
X40024Y-17091
X40079Y-17937
X42787Y-19868
X43289Y-17908
X58898Y-18067
T2
X62035Y-16437
X62035Y-16949
X62547Y-16437
X62547Y-16949
X63059Y-16437
X63059Y-16949
X63571Y-16437
X63571Y-16949
T3
X41781Y-17451
X41781Y-17953
X41781Y-18455
X42283Y-17451
X42283Y-17953
X42283Y-18455
X42785Y-17451
X42785Y-17953
X42785Y-18455
T4
X9528Y-27362
X9528Y-47835
X14094Y-27362
X14567Y-48268
X15500Y-49587
X16457Y-45709
X17169Y-18280
X17303Y-47295
X17563Y-39370
X17854Y-39051
X18937Y-24607
X21850Y-29528
X21850Y-30709
X21850Y-31693
X21850Y-32677
X21850Y-33661
X21850Y-34646
X21850Y-35630
X21850Y-36614
X21850Y-37598
X22106Y-37008
X23091Y-36654
X29676Y-20217
X30332Y-10911
X30455Y-15768
X30510Y-11278
X30622Y-13327
X30906Y-34921
X30967Y-11729
X31274Y-11465
X32555Y-21354
X32559Y-35591
X32677Y-36102
X32756Y-33622
X32795Y-34168
X32815Y-35138
X32835Y-34685
X32884Y-36501
X32992Y-35586
X33071Y-32717
X33100Y-33342
X33124Y-33893
X33268Y-34488
X33347Y-33031
X33583Y-30512
X33583Y-30906
X33819Y-34134
X34094Y-31614
X34134Y-29764
X34295Y-19508
X35236Y-32087
X35236Y-34488
X35236Y-36811
X35236Y-37795
X36575Y-37126
X36677Y-21343
X37018Y-34223
X37047Y-19606
X37126Y-29193
X37248Y-30394
X37327Y-31642
X37521Y-36875
X37613Y-33816
X37634Y-15776
X37723Y-36538
X37756Y-32402
X37818Y-32913
X37827Y-16618
X37913Y-35275
X37953Y-31772
X38057Y-17612
X38071Y-18484
X38110Y-29193
X38228Y-34291
X38346Y-32677
X38386Y-33386
X38390Y-36371
X38458Y-35590
X38618Y-16260
X38759Y-32378
X38802Y-36299
X38944Y-34567
X38992Y-16693
X39055Y-27402
X39055Y-47835
X39291Y-35906
X39945Y-21618
X40102Y-16223
X40563Y-22854
X40756Y-21346
X40992Y-24366
X41081Y-23400
X41417Y-22193
X41618Y-23461
X41630Y-24740
X41689Y-15610
X41725Y-21910
X41894Y-23111
X42400Y-23480
X42441Y-23965
X42567Y-16192
X42736Y-20945
X42795Y-22554
X42992Y-23346
X43071Y-22273
X43130Y-45591
X43136Y-22751
X43457Y-15399
X43622Y-27520
X43622Y-47835
X43937Y-20669
X43988Y-23229
X44048Y-16791
X44407Y-17887
X44430Y-16697
X44610Y-19429
X44744Y-16459
X44984Y-31418
X45197Y-46024
X45969Y-17764
X46850Y-18429
X47539Y-17402
X47598Y-19528
X47854Y-23898
X47913Y-20709
X48184Y-23656
X49032Y-23658
X51634Y-20906
X52672Y-11279
X52972Y-20957
X53209Y-23303
X56313Y-13340
X56546Y-20539
X58209Y-19764
X60098Y-19555
X60335Y-20024
X60343Y-20949
X60433Y-13976
X60433Y-14567
X60433Y-15157
X60433Y-15748
X60433Y-16339
X60433Y-16929
X60433Y-17520
X60764Y-10984
X60886Y-19555
X61024Y-13976
X61024Y-14567
X61213Y-20575
X61220Y-9055
X61220Y-9843
X61220Y-10630
X61220Y-12598
X61811Y-12598
X61811Y-19555
X62008Y-9055
X62047Y-20571
X62795Y-9055
X62850Y-20587
X63583Y-9055
X63583Y-18504
X63583Y-19291
X63591Y-20587
X64567Y-12598
X64567Y-13976
X64567Y-14764
X65157Y-13976
X65157Y-14764
X65157Y-15551
X65157Y-16339
X65157Y-17126
X65157Y-17913
X65748Y-12008
X65748Y-12598
X65748Y-13976
X65748Y-14764
X65748Y-15551
X65748Y-16339
X65748Y-17126
X65748Y-17913
X66339Y-12008
X66520Y-20496
X66535Y-19685
X66929Y-10236
X66969Y-26339
X67161Y-46265
X67520Y-8858
X67913Y-45079
X68583Y-27323
X68583Y-47835
X70394Y-36929
X73150Y-27362
X73150Y-47815
T5
X28244Y-20642
X28244Y-21154
X28244Y-21665
X28638Y-20898
X28638Y-21409
T7
X16835Y-50327
X17622Y-50327
X18409Y-50327
X25209Y-9252
X25996Y-9252
X26783Y-9252
X28724Y-9248
X29512Y-9248
X30299Y-9248
T8
X25181Y-24098
X25183Y-22781
X38138Y-19587
X40915Y-16211
X49004Y-25969
X50701Y-21614
X67000Y-13427
T9
X11417Y-22047
X11417Y-22835
X11417Y-50394
X11417Y-51181
X12205Y-22047
X12205Y-22835
X12205Y-50394
X12205Y-51181
X26181Y-16929
X26181Y-17717
X26969Y-16929
X26969Y-17717
X40945Y-29921
X40945Y-30709
X40945Y-42520
X40945Y-43307
X41732Y-29921
X41732Y-30709
X41732Y-42520
X41732Y-43307
X55709Y-16929
X55709Y-17717
X56496Y-16929
X56496Y-17717
X70472Y-22047
X70472Y-22835
X70472Y-50394
X70472Y-51181
X71260Y-22047
X71260Y-22835
X71260Y-50394
X71260Y-51181
T10
X23720Y-12402
X23720Y-13386
X23720Y-14370
X29429Y-12402
X29429Y-14370
X40215Y-32008
X41215Y-32008
X42215Y-32008
X46343Y-26920
X46343Y-27920
X46343Y-28920
X46343Y-29920
X46343Y-30920
X46343Y-31920
X46343Y-32920
X46343Y-33920
X46343Y-34920
X46343Y-35920
X46343Y-36920
X46343Y-37920
X46343Y-38920
X46343Y-39920
X46343Y-40920
X46343Y-41920
X46343Y-42920
X46343Y-43920
X46343Y-44920
X46343Y-45920
X47343Y-26920
X47343Y-27920
X47343Y-28920
X47343Y-29920
X47343Y-30920
X47343Y-31920
X47343Y-32920
X47343Y-33920
X47343Y-34920
X47343Y-35920
X47343Y-36920
X47343Y-37920
X47343Y-38920
X47343Y-39920
X47343Y-40920
X47343Y-41920
X47343Y-42920
X47343Y-43920
X47343Y-44920
X47343Y-45920
X50911Y-17500
X51911Y-17500
X52911Y-17500
X53248Y-12402
X53248Y-13386
X53248Y-14370
X58957Y-12402
X58957Y-14370
X59992Y-46910
X59992Y-47910
X60636Y-29467
X60636Y-30467
X60636Y-31467
X60992Y-46910
X60992Y-47910
X61636Y-29467
X61636Y-30467
X61636Y-31467
X61992Y-46910
X61992Y-47910
T11
X70276Y-9138
X70276Y-11106
T12
X32480Y-12598
X33465Y-8661
X33465Y-13583
X34449Y-8661
X35433Y-12598
X36417Y-8661
X37402Y-8661
X37402Y-13583
X38386Y-12598
X44291Y-12598
X45276Y-8661
X45276Y-13583
X46260Y-8661
X47244Y-12598
X48228Y-8661
X49213Y-8661
X49213Y-13583
X50197Y-12598
T13
X8543Y-13295
X8543Y-19685
X8543Y-29437
X8543Y-35827
X8543Y-37390
X8543Y-43780
X11043Y-13295
X11043Y-19685
X11043Y-29437
X11043Y-35827
X11043Y-37390
X11043Y-43780
X13543Y-13295
X13543Y-19685
X13543Y-29437
X13543Y-35827
X13543Y-37390
X13543Y-43780
X69134Y-29441
X69134Y-35831
X69134Y-37400
X69134Y-43789
X69140Y-13307
X69140Y-19697
X71634Y-29441
X71634Y-35831
X71634Y-37400
X71634Y-43789
X71640Y-13307
X71640Y-19697
X74134Y-29441
X74134Y-35831
X74134Y-37400
X74134Y-43789
X74140Y-13307
X74140Y-19697
T14
X26673Y-11181
X26673Y-15591
X56201Y-11181
X56201Y-15591
T3
G00X28134Y-19746
M15
G01X28528Y-19746
M16
G05
G00X28134Y-22561
M15
G01X28528Y-22561
M16
G05
T6
G00X33462Y-11427
M15
G01X33462Y-11801
M16
G05
G00X34447Y-11427
M15
G01X34447Y-11801
M16
G05
G00X35618Y-9646
M15
G01X35244Y-9646
M16
G05
G00X36415Y-11801
M15
G01X36415Y-11427
M16
G05
G00X37399Y-11801
M15
G01X37399Y-11427
M16
G05
G00X45276Y-11427
M15
G01X45276Y-11801
M16
G05
G00X46260Y-11427
M15
G01X46260Y-11801
M16
G05
G00X47431Y-9646
M15
G01X47057Y-9646
M16
G05
G00X48228Y-11801
M15
G01X48228Y-11427
M16
G05
G00X49213Y-11801
M15
G01X49213Y-11427
M16
G05
T9
G00X68740Y-10354
M15
G01X68740Y-11220
M16
G05
G00X71063Y-9685
M15
G01X70197Y-9685
M16
G05
G00X71142Y-11969
M15
G01X70118Y-11969
M16
G05
T0
M30
