M48
INCH,TZ
T1C0.0157
T2C0.0157
T3C0.0200
T4C0.0315
T5C0.0315
T6C0.0374
T7C0.0394
T8C0.0402
T9C0.0520
T10C0.0551
T11C0.1024
%
G90
G05
T1
X9528Y-27362
X9528Y-47835
X14094Y-27362
X14567Y-48268
X15394Y-49488
X16457Y-45709
X17244Y-47835
X17579Y-40079
X17864Y-39449
X18268Y-10276
X18937Y-24607
X18996Y-10276
X20157Y-26811
X21772Y-13248
X21850Y-29528
X21850Y-30709
X21850Y-31693
X21850Y-32677
X21850Y-33661
X21850Y-34646
X21850Y-35630
X21850Y-36614
X21850Y-37598
X23101Y-36588
X23393Y-36880
X24823Y-19173
X27913Y-19528
X29488Y-18189
X30394Y-19270
X30906Y-34921
X31616Y-18189
X32559Y-35591
X32677Y-36102
X32756Y-33622
X32795Y-34168
X32815Y-35138
X32835Y-34685
X32884Y-36501
X32992Y-35586
X33071Y-32717
X33100Y-33342
X33124Y-33893
X33268Y-34488
X33347Y-33031
X33583Y-30512
X33583Y-30906
X33819Y-34134
X34094Y-31614
X34134Y-29764
X34291Y-18858
X35236Y-32087
X35236Y-34488
X35236Y-36811
X35236Y-37795
X36575Y-37126
X37018Y-34223
X37126Y-29193
X37402Y-30433
X37402Y-31654
X37521Y-36875
X37613Y-33816
X37723Y-36538
X37756Y-19528
X37756Y-32402
X37818Y-32913
X37913Y-35275
X37953Y-31772
X38110Y-29193
X38228Y-34291
X38346Y-32677
X38386Y-33386
X38390Y-36371
X38458Y-35590
X38759Y-32378
X38802Y-36299
X38944Y-34567
X39055Y-27402
X39055Y-47835
X39291Y-35906
X43130Y-45591
X43622Y-27520
X43622Y-47835
X44154Y-18858
X44984Y-31418
X45197Y-46024
X47598Y-19528
X48071Y-17421
X56752Y-17421
X57441Y-19528
X60197Y-16535
X60315Y-19449
X60630Y-22953
X61378Y-9646
X61378Y-10472
X61457Y-19449
X62402Y-22598
X62520Y-19449
X63268Y-18307
X63622Y-15000
X64331Y-17283
X65157Y-16142
X65197Y-13898
X65512Y-18425
X66457Y-21024
X66969Y-26339
X67161Y-46265
X67913Y-45079
X68583Y-27323
X68583Y-47835
X70394Y-36929
X73150Y-27362
X73150Y-47815
T3
X50000Y-18898
X50000Y-19685
T4
X27638Y-22480
X27638Y-24449
X31575Y-19646
X32717Y-17972
X50394Y-24803
T5
X11417Y-22047
X11417Y-22835
X11417Y-50394
X11417Y-51181
X12205Y-22047
X12205Y-22835
X12205Y-50394
X12205Y-51181
X40945Y-29921
X40945Y-30709
X40945Y-42520
X40945Y-43307
X41732Y-29921
X41732Y-30709
X41732Y-42520
X41732Y-43307
X70472Y-22047
X70472Y-22835
X70472Y-50394
X70472Y-51181
X71260Y-22047
X71260Y-22835
X71260Y-50394
X71260Y-51181
T6
X14921Y-50039
X15906Y-50039
X16890Y-50039
X17559Y-11211
X17559Y-14262
X18543Y-11211
X18543Y-14262
X19528Y-11211
X19528Y-14262
T7
X23720Y-12402
X23720Y-13386
X23720Y-14370
X29429Y-12402
X29429Y-14370
X40215Y-32008
X41215Y-32008
X42215Y-32008
X46343Y-26920
X46343Y-27920
X46343Y-28920
X46343Y-29920
X46343Y-30920
X46343Y-31920
X46343Y-32920
X46343Y-33920
X46343Y-34920
X46343Y-35920
X46343Y-36920
X46343Y-37920
X46343Y-38920
X46343Y-39920
X46343Y-40920
X46343Y-41920
X46343Y-42920
X46343Y-43920
X46343Y-44920
X46343Y-45920
X47343Y-26920
X47343Y-27920
X47343Y-28920
X47343Y-29920
X47343Y-30920
X47343Y-31920
X47343Y-32920
X47343Y-33920
X47343Y-34920
X47343Y-35920
X47343Y-36920
X47343Y-37920
X47343Y-38920
X47343Y-39920
X47343Y-40920
X47343Y-41920
X47343Y-42920
X47343Y-43920
X47343Y-44920
X47343Y-45920
X53248Y-12402
X53248Y-13386
X53248Y-14370
X58957Y-12402
X58957Y-14370
X59992Y-46910
X59992Y-47910
X60636Y-29467
X60636Y-30467
X60636Y-31467
X60992Y-46910
X60992Y-47910
X61636Y-29467
X61636Y-30467
X61636Y-31467
X61992Y-46910
X61992Y-47910
T8
X31051Y-15791
X31051Y-22791
X32051Y-15791
X32051Y-22791
X33051Y-15791
X33051Y-22791
X34051Y-15791
X34051Y-22791
X35051Y-15791
X35051Y-22791
X36051Y-15791
X36051Y-22791
X37051Y-15791
X37051Y-22791
X38051Y-15791
X38051Y-22791
X39051Y-15791
X39051Y-22791
X40051Y-15791
X40051Y-22791
X41051Y-15791
X41051Y-22791
X42051Y-15791
X42051Y-22791
X43051Y-15791
X43051Y-22791
X44051Y-15791
X44051Y-22791
X45051Y-15791
X45051Y-22791
X46051Y-15791
X46051Y-22791
X47051Y-15791
X47051Y-22791
X48051Y-15791
X48051Y-22791
X49051Y-15791
X49051Y-22791
X50051Y-15791
X50051Y-22791
T9
X32480Y-12598
X33465Y-8661
X33465Y-13583
X34449Y-8661
X35433Y-12598
X36417Y-8661
X37402Y-8661
X37402Y-13583
X38386Y-12598
X44291Y-12598
X45276Y-8661
X45276Y-13583
X46260Y-8661
X47244Y-12598
X48228Y-8661
X49213Y-8661
X49213Y-13583
X50197Y-12598
T10
X8543Y-13295
X8543Y-19685
X8543Y-29437
X8543Y-35827
X8543Y-37390
X8543Y-43780
X11043Y-13295
X11043Y-19685
X11043Y-29437
X11043Y-35827
X11043Y-37390
X11043Y-43780
X13543Y-13295
X13543Y-19685
X13543Y-29437
X13543Y-35827
X13543Y-37390
X13543Y-43780
X69134Y-29441
X69134Y-35831
X69134Y-37400
X69134Y-43789
X69140Y-13307
X69140Y-19697
X71634Y-29441
X71634Y-35831
X71634Y-37400
X71634Y-43789
X71640Y-13307
X71640Y-19697
X74134Y-29441
X74134Y-35831
X74134Y-37400
X74134Y-43789
X74140Y-13307
X74140Y-19697
T11
X26673Y-11181
X26673Y-15591
X56201Y-11181
X56201Y-15591
T2
G00X33462Y-11417
M15
G01X33462Y-11811
M16
G05
G00X34447Y-11417
M15
G01X34447Y-11811
M16
G05
G00X35628Y-9646
M15
G01X35234Y-9646
M16
G05
G00X36415Y-11811
M15
G01X36415Y-11417
M16
G05
G00X37399Y-11811
M15
G01X37399Y-11417
M16
G05
G00X45276Y-11417
M15
G01X45276Y-11811
M16
G05
G00X46260Y-11417
M15
G01X46260Y-11811
M16
G05
G00X47441Y-9646
M15
G01X47047Y-9646
M16
G05
G00X48228Y-11811
M15
G01X48228Y-11417
M16
G05
G00X49213Y-11811
M15
G01X49213Y-11417
M16
G05
T5
G00X68740Y-10354
M15
G01X68740Y-11220
M16
G05
G00X71063Y-9685
M15
G01X70197Y-9685
M16
G05
G00X71142Y-11969
M15
G01X70118Y-11969
M16
G05
T0
M30
