%TF.GenerationSoftware,KiCad,Pcbnew,7.0.1.1-36-gbcf78dbe24-dirty-deb11*%
%TF.CreationDate,2023-04-15T09:56:53+00:00*%
%TF.ProjectId,pedalboard-hw,70656461-6c62-46f6-9172-642d68772e6b,2.0.0-RC1*%
%TF.SameCoordinates,Original*%
%TF.FileFunction,Legend,Bot*%
%TF.FilePolarity,Positive*%
%FSLAX46Y46*%
G04 Gerber Fmt 4.6, Leading zero omitted, Abs format (unit mm)*
G04 Created by KiCad (PCBNEW 7.0.1.1-36-gbcf78dbe24-dirty-deb11) date 2023-04-15 09:56:53*
%MOMM*%
%LPD*%
G01*
G04 APERTURE LIST*
%ADD10C,0.150000*%
%ADD11C,0.120000*%
%ADD12C,0.100000*%
G04 APERTURE END LIST*
D10*
X56395961Y-70713695D02*
X56443580Y-70808933D01*
X56443580Y-70808933D02*
X56443580Y-70951790D01*
X56443580Y-70951790D02*
X56395961Y-71094647D01*
X56395961Y-71094647D02*
X56300723Y-71189885D01*
X56300723Y-71189885D02*
X56205485Y-71237504D01*
X56205485Y-71237504D02*
X56015009Y-71285123D01*
X56015009Y-71285123D02*
X55872152Y-71285123D01*
X55872152Y-71285123D02*
X55681676Y-71237504D01*
X55681676Y-71237504D02*
X55586438Y-71189885D01*
X55586438Y-71189885D02*
X55491200Y-71094647D01*
X55491200Y-71094647D02*
X55443580Y-70951790D01*
X55443580Y-70951790D02*
X55443580Y-70856552D01*
X55443580Y-70856552D02*
X55491200Y-70713695D01*
X55491200Y-70713695D02*
X55538819Y-70666076D01*
X55538819Y-70666076D02*
X55872152Y-70666076D01*
X55872152Y-70666076D02*
X55872152Y-70856552D01*
X55443580Y-70237504D02*
X56443580Y-70237504D01*
X56443580Y-70237504D02*
X55443580Y-69666076D01*
X55443580Y-69666076D02*
X56443580Y-69666076D01*
X55443580Y-69189885D02*
X56443580Y-69189885D01*
X56443580Y-69189885D02*
X56443580Y-68951790D01*
X56443580Y-68951790D02*
X56395961Y-68808933D01*
X56395961Y-68808933D02*
X56300723Y-68713695D01*
X56300723Y-68713695D02*
X56205485Y-68666076D01*
X56205485Y-68666076D02*
X56015009Y-68618457D01*
X56015009Y-68618457D02*
X55872152Y-68618457D01*
X55872152Y-68618457D02*
X55681676Y-68666076D01*
X55681676Y-68666076D02*
X55586438Y-68713695D01*
X55586438Y-68713695D02*
X55491200Y-68808933D01*
X55491200Y-68808933D02*
X55443580Y-68951790D01*
X55443580Y-68951790D02*
X55443580Y-69189885D01*
X53005180Y-71135904D02*
X54005180Y-71135904D01*
X54005180Y-71135904D02*
X54005180Y-70897809D01*
X54005180Y-70897809D02*
X53957561Y-70754952D01*
X53957561Y-70754952D02*
X53862323Y-70659714D01*
X53862323Y-70659714D02*
X53767085Y-70612095D01*
X53767085Y-70612095D02*
X53576609Y-70564476D01*
X53576609Y-70564476D02*
X53433752Y-70564476D01*
X53433752Y-70564476D02*
X53243276Y-70612095D01*
X53243276Y-70612095D02*
X53148038Y-70659714D01*
X53148038Y-70659714D02*
X53052800Y-70754952D01*
X53052800Y-70754952D02*
X53005180Y-70897809D01*
X53005180Y-70897809D02*
X53005180Y-71135904D01*
X53005180Y-69707333D02*
X53528990Y-69707333D01*
X53528990Y-69707333D02*
X53624228Y-69754952D01*
X53624228Y-69754952D02*
X53671847Y-69850190D01*
X53671847Y-69850190D02*
X53671847Y-70040666D01*
X53671847Y-70040666D02*
X53624228Y-70135904D01*
X53052800Y-69707333D02*
X53005180Y-69802571D01*
X53005180Y-69802571D02*
X53005180Y-70040666D01*
X53005180Y-70040666D02*
X53052800Y-70135904D01*
X53052800Y-70135904D02*
X53148038Y-70183523D01*
X53148038Y-70183523D02*
X53243276Y-70183523D01*
X53243276Y-70183523D02*
X53338514Y-70135904D01*
X53338514Y-70135904D02*
X53386133Y-70040666D01*
X53386133Y-70040666D02*
X53386133Y-69802571D01*
X53386133Y-69802571D02*
X53433752Y-69707333D01*
X53671847Y-69373999D02*
X53671847Y-68993047D01*
X54005180Y-69231142D02*
X53148038Y-69231142D01*
X53148038Y-69231142D02*
X53052800Y-69183523D01*
X53052800Y-69183523D02*
X53005180Y-69088285D01*
X53005180Y-69088285D02*
X53005180Y-68993047D01*
X53005180Y-68231142D02*
X53528990Y-68231142D01*
X53528990Y-68231142D02*
X53624228Y-68278761D01*
X53624228Y-68278761D02*
X53671847Y-68373999D01*
X53671847Y-68373999D02*
X53671847Y-68564475D01*
X53671847Y-68564475D02*
X53624228Y-68659713D01*
X53052800Y-68231142D02*
X53005180Y-68326380D01*
X53005180Y-68326380D02*
X53005180Y-68564475D01*
X53005180Y-68564475D02*
X53052800Y-68659713D01*
X53052800Y-68659713D02*
X53148038Y-68707332D01*
X53148038Y-68707332D02*
X53243276Y-68707332D01*
X53243276Y-68707332D02*
X53338514Y-68659713D01*
X53338514Y-68659713D02*
X53386133Y-68564475D01*
X53386133Y-68564475D02*
X53386133Y-68326380D01*
X53386133Y-68326380D02*
X53433752Y-68231142D01*
X53005180Y-66850189D02*
X53052800Y-66945427D01*
X53052800Y-66945427D02*
X53100419Y-66993046D01*
X53100419Y-66993046D02*
X53195657Y-67040665D01*
X53195657Y-67040665D02*
X53481371Y-67040665D01*
X53481371Y-67040665D02*
X53576609Y-66993046D01*
X53576609Y-66993046D02*
X53624228Y-66945427D01*
X53624228Y-66945427D02*
X53671847Y-66850189D01*
X53671847Y-66850189D02*
X53671847Y-66707332D01*
X53671847Y-66707332D02*
X53624228Y-66612094D01*
X53624228Y-66612094D02*
X53576609Y-66564475D01*
X53576609Y-66564475D02*
X53481371Y-66516856D01*
X53481371Y-66516856D02*
X53195657Y-66516856D01*
X53195657Y-66516856D02*
X53100419Y-66564475D01*
X53100419Y-66564475D02*
X53052800Y-66612094D01*
X53052800Y-66612094D02*
X53005180Y-66707332D01*
X53005180Y-66707332D02*
X53005180Y-66850189D01*
X53671847Y-65659713D02*
X53005180Y-65659713D01*
X53671847Y-66088284D02*
X53148038Y-66088284D01*
X53148038Y-66088284D02*
X53052800Y-66040665D01*
X53052800Y-66040665D02*
X53005180Y-65945427D01*
X53005180Y-65945427D02*
X53005180Y-65802570D01*
X53005180Y-65802570D02*
X53052800Y-65707332D01*
X53052800Y-65707332D02*
X53100419Y-65659713D01*
X53671847Y-65326379D02*
X53671847Y-64945427D01*
X54005180Y-65183522D02*
X53148038Y-65183522D01*
X53148038Y-65183522D02*
X53052800Y-65135903D01*
X53052800Y-65135903D02*
X53005180Y-65040665D01*
X53005180Y-65040665D02*
X53005180Y-64945427D01*
X71810419Y-49971295D02*
X70810419Y-49971295D01*
X71810419Y-50447485D02*
X70810419Y-50447485D01*
X70810419Y-50447485D02*
X71810419Y-51018913D01*
X71810419Y-51018913D02*
X70810419Y-51018913D01*
X188155238Y-37337904D02*
X188107619Y-37242666D01*
X188107619Y-37242666D02*
X188107619Y-37099809D01*
X188107619Y-37099809D02*
X188155238Y-36956952D01*
X188155238Y-36956952D02*
X188250476Y-36861714D01*
X188250476Y-36861714D02*
X188345714Y-36814095D01*
X188345714Y-36814095D02*
X188536190Y-36766476D01*
X188536190Y-36766476D02*
X188679047Y-36766476D01*
X188679047Y-36766476D02*
X188869523Y-36814095D01*
X188869523Y-36814095D02*
X188964761Y-36861714D01*
X188964761Y-36861714D02*
X189060000Y-36956952D01*
X189060000Y-36956952D02*
X189107619Y-37099809D01*
X189107619Y-37099809D02*
X189107619Y-37195047D01*
X189107619Y-37195047D02*
X189060000Y-37337904D01*
X189060000Y-37337904D02*
X189012380Y-37385523D01*
X189012380Y-37385523D02*
X188679047Y-37385523D01*
X188679047Y-37385523D02*
X188679047Y-37195047D01*
X189107619Y-37814095D02*
X188107619Y-37814095D01*
X188107619Y-37814095D02*
X189107619Y-38385523D01*
X189107619Y-38385523D02*
X188107619Y-38385523D01*
X189107619Y-38861714D02*
X188107619Y-38861714D01*
X188107619Y-38861714D02*
X188107619Y-39099809D01*
X188107619Y-39099809D02*
X188155238Y-39242666D01*
X188155238Y-39242666D02*
X188250476Y-39337904D01*
X188250476Y-39337904D02*
X188345714Y-39385523D01*
X188345714Y-39385523D02*
X188536190Y-39433142D01*
X188536190Y-39433142D02*
X188679047Y-39433142D01*
X188679047Y-39433142D02*
X188869523Y-39385523D01*
X188869523Y-39385523D02*
X188964761Y-39337904D01*
X188964761Y-39337904D02*
X189060000Y-39242666D01*
X189060000Y-39242666D02*
X189107619Y-39099809D01*
X189107619Y-39099809D02*
X189107619Y-38861714D01*
X144224476Y-54182819D02*
X144557809Y-53706628D01*
X144795904Y-54182819D02*
X144795904Y-53182819D01*
X144795904Y-53182819D02*
X144414952Y-53182819D01*
X144414952Y-53182819D02*
X144319714Y-53230438D01*
X144319714Y-53230438D02*
X144272095Y-53278057D01*
X144272095Y-53278057D02*
X144224476Y-53373295D01*
X144224476Y-53373295D02*
X144224476Y-53516152D01*
X144224476Y-53516152D02*
X144272095Y-53611390D01*
X144272095Y-53611390D02*
X144319714Y-53659009D01*
X144319714Y-53659009D02*
X144414952Y-53706628D01*
X144414952Y-53706628D02*
X144795904Y-53706628D01*
X143795904Y-54182819D02*
X143795904Y-53182819D01*
X143795904Y-53182819D02*
X143414952Y-53182819D01*
X143414952Y-53182819D02*
X143319714Y-53230438D01*
X143319714Y-53230438D02*
X143272095Y-53278057D01*
X143272095Y-53278057D02*
X143224476Y-53373295D01*
X143224476Y-53373295D02*
X143224476Y-53516152D01*
X143224476Y-53516152D02*
X143272095Y-53611390D01*
X143272095Y-53611390D02*
X143319714Y-53659009D01*
X143319714Y-53659009D02*
X143414952Y-53706628D01*
X143414952Y-53706628D02*
X143795904Y-53706628D01*
X142795904Y-54182819D02*
X142795904Y-53182819D01*
X141081619Y-53182819D02*
X141557809Y-53182819D01*
X141557809Y-53182819D02*
X141605428Y-53659009D01*
X141605428Y-53659009D02*
X141557809Y-53611390D01*
X141557809Y-53611390D02*
X141462571Y-53563771D01*
X141462571Y-53563771D02*
X141224476Y-53563771D01*
X141224476Y-53563771D02*
X141129238Y-53611390D01*
X141129238Y-53611390D02*
X141081619Y-53659009D01*
X141081619Y-53659009D02*
X141034000Y-53754247D01*
X141034000Y-53754247D02*
X141034000Y-53992342D01*
X141034000Y-53992342D02*
X141081619Y-54087580D01*
X141081619Y-54087580D02*
X141129238Y-54135200D01*
X141129238Y-54135200D02*
X141224476Y-54182819D01*
X141224476Y-54182819D02*
X141462571Y-54182819D01*
X141462571Y-54182819D02*
X141557809Y-54135200D01*
X141557809Y-54135200D02*
X141605428Y-54087580D01*
X140748285Y-53182819D02*
X140414952Y-54182819D01*
X140414952Y-54182819D02*
X140081619Y-53182819D01*
X112398228Y-72193219D02*
X112207752Y-72193219D01*
X112207752Y-72193219D02*
X112112514Y-72240838D01*
X112112514Y-72240838D02*
X112017276Y-72336076D01*
X112017276Y-72336076D02*
X111969657Y-72526552D01*
X111969657Y-72526552D02*
X111969657Y-72859885D01*
X111969657Y-72859885D02*
X112017276Y-73050361D01*
X112017276Y-73050361D02*
X112112514Y-73145600D01*
X112112514Y-73145600D02*
X112207752Y-73193219D01*
X112207752Y-73193219D02*
X112398228Y-73193219D01*
X112398228Y-73193219D02*
X112493466Y-73145600D01*
X112493466Y-73145600D02*
X112588704Y-73050361D01*
X112588704Y-73050361D02*
X112636323Y-72859885D01*
X112636323Y-72859885D02*
X112636323Y-72526552D01*
X112636323Y-72526552D02*
X112588704Y-72336076D01*
X112588704Y-72336076D02*
X112493466Y-72240838D01*
X112493466Y-72240838D02*
X112398228Y-72193219D01*
X111541085Y-72526552D02*
X111541085Y-73526552D01*
X111541085Y-72574171D02*
X111445847Y-72526552D01*
X111445847Y-72526552D02*
X111255371Y-72526552D01*
X111255371Y-72526552D02*
X111160133Y-72574171D01*
X111160133Y-72574171D02*
X111112514Y-72621790D01*
X111112514Y-72621790D02*
X111064895Y-72717028D01*
X111064895Y-72717028D02*
X111064895Y-73002742D01*
X111064895Y-73002742D02*
X111112514Y-73097980D01*
X111112514Y-73097980D02*
X111160133Y-73145600D01*
X111160133Y-73145600D02*
X111255371Y-73193219D01*
X111255371Y-73193219D02*
X111445847Y-73193219D01*
X111445847Y-73193219D02*
X111541085Y-73145600D01*
X110255371Y-73145600D02*
X110350609Y-73193219D01*
X110350609Y-73193219D02*
X110541085Y-73193219D01*
X110541085Y-73193219D02*
X110636323Y-73145600D01*
X110636323Y-73145600D02*
X110683942Y-73050361D01*
X110683942Y-73050361D02*
X110683942Y-72669409D01*
X110683942Y-72669409D02*
X110636323Y-72574171D01*
X110636323Y-72574171D02*
X110541085Y-72526552D01*
X110541085Y-72526552D02*
X110350609Y-72526552D01*
X110350609Y-72526552D02*
X110255371Y-72574171D01*
X110255371Y-72574171D02*
X110207752Y-72669409D01*
X110207752Y-72669409D02*
X110207752Y-72764647D01*
X110207752Y-72764647D02*
X110683942Y-72859885D01*
X109779180Y-72526552D02*
X109779180Y-73193219D01*
X109779180Y-72621790D02*
X109731561Y-72574171D01*
X109731561Y-72574171D02*
X109636323Y-72526552D01*
X109636323Y-72526552D02*
X109493466Y-72526552D01*
X109493466Y-72526552D02*
X109398228Y-72574171D01*
X109398228Y-72574171D02*
X109350609Y-72669409D01*
X109350609Y-72669409D02*
X109350609Y-73193219D01*
X108112513Y-73193219D02*
X108112513Y-72193219D01*
X108112513Y-72193219D02*
X107731561Y-72193219D01*
X107731561Y-72193219D02*
X107636323Y-72240838D01*
X107636323Y-72240838D02*
X107588704Y-72288457D01*
X107588704Y-72288457D02*
X107541085Y-72383695D01*
X107541085Y-72383695D02*
X107541085Y-72526552D01*
X107541085Y-72526552D02*
X107588704Y-72621790D01*
X107588704Y-72621790D02*
X107636323Y-72669409D01*
X107636323Y-72669409D02*
X107731561Y-72717028D01*
X107731561Y-72717028D02*
X108112513Y-72717028D01*
X106731561Y-73145600D02*
X106826799Y-73193219D01*
X106826799Y-73193219D02*
X107017275Y-73193219D01*
X107017275Y-73193219D02*
X107112513Y-73145600D01*
X107112513Y-73145600D02*
X107160132Y-73050361D01*
X107160132Y-73050361D02*
X107160132Y-72669409D01*
X107160132Y-72669409D02*
X107112513Y-72574171D01*
X107112513Y-72574171D02*
X107017275Y-72526552D01*
X107017275Y-72526552D02*
X106826799Y-72526552D01*
X106826799Y-72526552D02*
X106731561Y-72574171D01*
X106731561Y-72574171D02*
X106683942Y-72669409D01*
X106683942Y-72669409D02*
X106683942Y-72764647D01*
X106683942Y-72764647D02*
X107160132Y-72859885D01*
X105826799Y-73193219D02*
X105826799Y-72193219D01*
X105826799Y-73145600D02*
X105922037Y-73193219D01*
X105922037Y-73193219D02*
X106112513Y-73193219D01*
X106112513Y-73193219D02*
X106207751Y-73145600D01*
X106207751Y-73145600D02*
X106255370Y-73097980D01*
X106255370Y-73097980D02*
X106302989Y-73002742D01*
X106302989Y-73002742D02*
X106302989Y-72717028D01*
X106302989Y-72717028D02*
X106255370Y-72621790D01*
X106255370Y-72621790D02*
X106207751Y-72574171D01*
X106207751Y-72574171D02*
X106112513Y-72526552D01*
X106112513Y-72526552D02*
X105922037Y-72526552D01*
X105922037Y-72526552D02*
X105826799Y-72574171D01*
X104922037Y-73193219D02*
X104922037Y-72669409D01*
X104922037Y-72669409D02*
X104969656Y-72574171D01*
X104969656Y-72574171D02*
X105064894Y-72526552D01*
X105064894Y-72526552D02*
X105255370Y-72526552D01*
X105255370Y-72526552D02*
X105350608Y-72574171D01*
X104922037Y-73145600D02*
X105017275Y-73193219D01*
X105017275Y-73193219D02*
X105255370Y-73193219D01*
X105255370Y-73193219D02*
X105350608Y-73145600D01*
X105350608Y-73145600D02*
X105398227Y-73050361D01*
X105398227Y-73050361D02*
X105398227Y-72955123D01*
X105398227Y-72955123D02*
X105350608Y-72859885D01*
X105350608Y-72859885D02*
X105255370Y-72812266D01*
X105255370Y-72812266D02*
X105017275Y-72812266D01*
X105017275Y-72812266D02*
X104922037Y-72764647D01*
X104302989Y-73193219D02*
X104398227Y-73145600D01*
X104398227Y-73145600D02*
X104445846Y-73050361D01*
X104445846Y-73050361D02*
X104445846Y-72193219D01*
X103922036Y-73193219D02*
X103922036Y-72193219D01*
X103922036Y-72574171D02*
X103826798Y-72526552D01*
X103826798Y-72526552D02*
X103636322Y-72526552D01*
X103636322Y-72526552D02*
X103541084Y-72574171D01*
X103541084Y-72574171D02*
X103493465Y-72621790D01*
X103493465Y-72621790D02*
X103445846Y-72717028D01*
X103445846Y-72717028D02*
X103445846Y-73002742D01*
X103445846Y-73002742D02*
X103493465Y-73097980D01*
X103493465Y-73097980D02*
X103541084Y-73145600D01*
X103541084Y-73145600D02*
X103636322Y-73193219D01*
X103636322Y-73193219D02*
X103826798Y-73193219D01*
X103826798Y-73193219D02*
X103922036Y-73145600D01*
X102874417Y-73193219D02*
X102969655Y-73145600D01*
X102969655Y-73145600D02*
X103017274Y-73097980D01*
X103017274Y-73097980D02*
X103064893Y-73002742D01*
X103064893Y-73002742D02*
X103064893Y-72717028D01*
X103064893Y-72717028D02*
X103017274Y-72621790D01*
X103017274Y-72621790D02*
X102969655Y-72574171D01*
X102969655Y-72574171D02*
X102874417Y-72526552D01*
X102874417Y-72526552D02*
X102731560Y-72526552D01*
X102731560Y-72526552D02*
X102636322Y-72574171D01*
X102636322Y-72574171D02*
X102588703Y-72621790D01*
X102588703Y-72621790D02*
X102541084Y-72717028D01*
X102541084Y-72717028D02*
X102541084Y-73002742D01*
X102541084Y-73002742D02*
X102588703Y-73097980D01*
X102588703Y-73097980D02*
X102636322Y-73145600D01*
X102636322Y-73145600D02*
X102731560Y-73193219D01*
X102731560Y-73193219D02*
X102874417Y-73193219D01*
X101683941Y-73193219D02*
X101683941Y-72669409D01*
X101683941Y-72669409D02*
X101731560Y-72574171D01*
X101731560Y-72574171D02*
X101826798Y-72526552D01*
X101826798Y-72526552D02*
X102017274Y-72526552D01*
X102017274Y-72526552D02*
X102112512Y-72574171D01*
X101683941Y-73145600D02*
X101779179Y-73193219D01*
X101779179Y-73193219D02*
X102017274Y-73193219D01*
X102017274Y-73193219D02*
X102112512Y-73145600D01*
X102112512Y-73145600D02*
X102160131Y-73050361D01*
X102160131Y-73050361D02*
X102160131Y-72955123D01*
X102160131Y-72955123D02*
X102112512Y-72859885D01*
X102112512Y-72859885D02*
X102017274Y-72812266D01*
X102017274Y-72812266D02*
X101779179Y-72812266D01*
X101779179Y-72812266D02*
X101683941Y-72764647D01*
X101207750Y-73193219D02*
X101207750Y-72526552D01*
X101207750Y-72717028D02*
X101160131Y-72621790D01*
X101160131Y-72621790D02*
X101112512Y-72574171D01*
X101112512Y-72574171D02*
X101017274Y-72526552D01*
X101017274Y-72526552D02*
X100922036Y-72526552D01*
X100160131Y-73193219D02*
X100160131Y-72193219D01*
X100160131Y-73145600D02*
X100255369Y-73193219D01*
X100255369Y-73193219D02*
X100445845Y-73193219D01*
X100445845Y-73193219D02*
X100541083Y-73145600D01*
X100541083Y-73145600D02*
X100588702Y-73097980D01*
X100588702Y-73097980D02*
X100636321Y-73002742D01*
X100636321Y-73002742D02*
X100636321Y-72717028D01*
X100636321Y-72717028D02*
X100588702Y-72621790D01*
X100588702Y-72621790D02*
X100541083Y-72574171D01*
X100541083Y-72574171D02*
X100445845Y-72526552D01*
X100445845Y-72526552D02*
X100255369Y-72526552D01*
X100255369Y-72526552D02*
X100160131Y-72574171D01*
X112588704Y-74813219D02*
X112588704Y-73813219D01*
X112160133Y-74813219D02*
X112160133Y-74289409D01*
X112160133Y-74289409D02*
X112207752Y-74194171D01*
X112207752Y-74194171D02*
X112302990Y-74146552D01*
X112302990Y-74146552D02*
X112445847Y-74146552D01*
X112445847Y-74146552D02*
X112541085Y-74194171D01*
X112541085Y-74194171D02*
X112588704Y-74241790D01*
X111826799Y-74146552D02*
X111445847Y-74146552D01*
X111683942Y-73813219D02*
X111683942Y-74670361D01*
X111683942Y-74670361D02*
X111636323Y-74765600D01*
X111636323Y-74765600D02*
X111541085Y-74813219D01*
X111541085Y-74813219D02*
X111445847Y-74813219D01*
X111255370Y-74146552D02*
X110874418Y-74146552D01*
X111112513Y-73813219D02*
X111112513Y-74670361D01*
X111112513Y-74670361D02*
X111064894Y-74765600D01*
X111064894Y-74765600D02*
X110969656Y-74813219D01*
X110969656Y-74813219D02*
X110874418Y-74813219D01*
X110541084Y-74146552D02*
X110541084Y-75146552D01*
X110541084Y-74194171D02*
X110445846Y-74146552D01*
X110445846Y-74146552D02*
X110255370Y-74146552D01*
X110255370Y-74146552D02*
X110160132Y-74194171D01*
X110160132Y-74194171D02*
X110112513Y-74241790D01*
X110112513Y-74241790D02*
X110064894Y-74337028D01*
X110064894Y-74337028D02*
X110064894Y-74622742D01*
X110064894Y-74622742D02*
X110112513Y-74717980D01*
X110112513Y-74717980D02*
X110160132Y-74765600D01*
X110160132Y-74765600D02*
X110255370Y-74813219D01*
X110255370Y-74813219D02*
X110445846Y-74813219D01*
X110445846Y-74813219D02*
X110541084Y-74765600D01*
X109683941Y-74765600D02*
X109588703Y-74813219D01*
X109588703Y-74813219D02*
X109398227Y-74813219D01*
X109398227Y-74813219D02*
X109302989Y-74765600D01*
X109302989Y-74765600D02*
X109255370Y-74670361D01*
X109255370Y-74670361D02*
X109255370Y-74622742D01*
X109255370Y-74622742D02*
X109302989Y-74527504D01*
X109302989Y-74527504D02*
X109398227Y-74479885D01*
X109398227Y-74479885D02*
X109541084Y-74479885D01*
X109541084Y-74479885D02*
X109636322Y-74432266D01*
X109636322Y-74432266D02*
X109683941Y-74337028D01*
X109683941Y-74337028D02*
X109683941Y-74289409D01*
X109683941Y-74289409D02*
X109636322Y-74194171D01*
X109636322Y-74194171D02*
X109541084Y-74146552D01*
X109541084Y-74146552D02*
X109398227Y-74146552D01*
X109398227Y-74146552D02*
X109302989Y-74194171D01*
X108826798Y-74717980D02*
X108779179Y-74765600D01*
X108779179Y-74765600D02*
X108826798Y-74813219D01*
X108826798Y-74813219D02*
X108874417Y-74765600D01*
X108874417Y-74765600D02*
X108826798Y-74717980D01*
X108826798Y-74717980D02*
X108826798Y-74813219D01*
X108826798Y-74194171D02*
X108779179Y-74241790D01*
X108779179Y-74241790D02*
X108826798Y-74289409D01*
X108826798Y-74289409D02*
X108874417Y-74241790D01*
X108874417Y-74241790D02*
X108826798Y-74194171D01*
X108826798Y-74194171D02*
X108826798Y-74289409D01*
X107636323Y-73765600D02*
X108493465Y-75051314D01*
X106588704Y-73765600D02*
X107445846Y-75051314D01*
X105826799Y-74146552D02*
X105826799Y-74956076D01*
X105826799Y-74956076D02*
X105874418Y-75051314D01*
X105874418Y-75051314D02*
X105922037Y-75098933D01*
X105922037Y-75098933D02*
X106017275Y-75146552D01*
X106017275Y-75146552D02*
X106160132Y-75146552D01*
X106160132Y-75146552D02*
X106255370Y-75098933D01*
X105826799Y-74765600D02*
X105922037Y-74813219D01*
X105922037Y-74813219D02*
X106112513Y-74813219D01*
X106112513Y-74813219D02*
X106207751Y-74765600D01*
X106207751Y-74765600D02*
X106255370Y-74717980D01*
X106255370Y-74717980D02*
X106302989Y-74622742D01*
X106302989Y-74622742D02*
X106302989Y-74337028D01*
X106302989Y-74337028D02*
X106255370Y-74241790D01*
X106255370Y-74241790D02*
X106207751Y-74194171D01*
X106207751Y-74194171D02*
X106112513Y-74146552D01*
X106112513Y-74146552D02*
X105922037Y-74146552D01*
X105922037Y-74146552D02*
X105826799Y-74194171D01*
X105350608Y-74813219D02*
X105350608Y-74146552D01*
X105350608Y-73813219D02*
X105398227Y-73860838D01*
X105398227Y-73860838D02*
X105350608Y-73908457D01*
X105350608Y-73908457D02*
X105302989Y-73860838D01*
X105302989Y-73860838D02*
X105350608Y-73813219D01*
X105350608Y-73813219D02*
X105350608Y-73908457D01*
X105017275Y-74146552D02*
X104636323Y-74146552D01*
X104874418Y-73813219D02*
X104874418Y-74670361D01*
X104874418Y-74670361D02*
X104826799Y-74765600D01*
X104826799Y-74765600D02*
X104731561Y-74813219D01*
X104731561Y-74813219D02*
X104636323Y-74813219D01*
X104302989Y-74813219D02*
X104302989Y-73813219D01*
X103874418Y-74813219D02*
X103874418Y-74289409D01*
X103874418Y-74289409D02*
X103922037Y-74194171D01*
X103922037Y-74194171D02*
X104017275Y-74146552D01*
X104017275Y-74146552D02*
X104160132Y-74146552D01*
X104160132Y-74146552D02*
X104255370Y-74194171D01*
X104255370Y-74194171D02*
X104302989Y-74241790D01*
X102969656Y-74146552D02*
X102969656Y-74813219D01*
X103398227Y-74146552D02*
X103398227Y-74670361D01*
X103398227Y-74670361D02*
X103350608Y-74765600D01*
X103350608Y-74765600D02*
X103255370Y-74813219D01*
X103255370Y-74813219D02*
X103112513Y-74813219D01*
X103112513Y-74813219D02*
X103017275Y-74765600D01*
X103017275Y-74765600D02*
X102969656Y-74717980D01*
X102493465Y-74813219D02*
X102493465Y-73813219D01*
X102493465Y-74194171D02*
X102398227Y-74146552D01*
X102398227Y-74146552D02*
X102207751Y-74146552D01*
X102207751Y-74146552D02*
X102112513Y-74194171D01*
X102112513Y-74194171D02*
X102064894Y-74241790D01*
X102064894Y-74241790D02*
X102017275Y-74337028D01*
X102017275Y-74337028D02*
X102017275Y-74622742D01*
X102017275Y-74622742D02*
X102064894Y-74717980D01*
X102064894Y-74717980D02*
X102112513Y-74765600D01*
X102112513Y-74765600D02*
X102207751Y-74813219D01*
X102207751Y-74813219D02*
X102398227Y-74813219D01*
X102398227Y-74813219D02*
X102493465Y-74765600D01*
X101588703Y-74717980D02*
X101541084Y-74765600D01*
X101541084Y-74765600D02*
X101588703Y-74813219D01*
X101588703Y-74813219D02*
X101636322Y-74765600D01*
X101636322Y-74765600D02*
X101588703Y-74717980D01*
X101588703Y-74717980D02*
X101588703Y-74813219D01*
X100683942Y-74765600D02*
X100779180Y-74813219D01*
X100779180Y-74813219D02*
X100969656Y-74813219D01*
X100969656Y-74813219D02*
X101064894Y-74765600D01*
X101064894Y-74765600D02*
X101112513Y-74717980D01*
X101112513Y-74717980D02*
X101160132Y-74622742D01*
X101160132Y-74622742D02*
X101160132Y-74337028D01*
X101160132Y-74337028D02*
X101112513Y-74241790D01*
X101112513Y-74241790D02*
X101064894Y-74194171D01*
X101064894Y-74194171D02*
X100969656Y-74146552D01*
X100969656Y-74146552D02*
X100779180Y-74146552D01*
X100779180Y-74146552D02*
X100683942Y-74194171D01*
X100112513Y-74813219D02*
X100207751Y-74765600D01*
X100207751Y-74765600D02*
X100255370Y-74717980D01*
X100255370Y-74717980D02*
X100302989Y-74622742D01*
X100302989Y-74622742D02*
X100302989Y-74337028D01*
X100302989Y-74337028D02*
X100255370Y-74241790D01*
X100255370Y-74241790D02*
X100207751Y-74194171D01*
X100207751Y-74194171D02*
X100112513Y-74146552D01*
X100112513Y-74146552D02*
X99969656Y-74146552D01*
X99969656Y-74146552D02*
X99874418Y-74194171D01*
X99874418Y-74194171D02*
X99826799Y-74241790D01*
X99826799Y-74241790D02*
X99779180Y-74337028D01*
X99779180Y-74337028D02*
X99779180Y-74622742D01*
X99779180Y-74622742D02*
X99826799Y-74717980D01*
X99826799Y-74717980D02*
X99874418Y-74765600D01*
X99874418Y-74765600D02*
X99969656Y-74813219D01*
X99969656Y-74813219D02*
X100112513Y-74813219D01*
X99350608Y-74813219D02*
X99350608Y-74146552D01*
X99350608Y-74241790D02*
X99302989Y-74194171D01*
X99302989Y-74194171D02*
X99207751Y-74146552D01*
X99207751Y-74146552D02*
X99064894Y-74146552D01*
X99064894Y-74146552D02*
X98969656Y-74194171D01*
X98969656Y-74194171D02*
X98922037Y-74289409D01*
X98922037Y-74289409D02*
X98922037Y-74813219D01*
X98922037Y-74289409D02*
X98874418Y-74194171D01*
X98874418Y-74194171D02*
X98779180Y-74146552D01*
X98779180Y-74146552D02*
X98636323Y-74146552D01*
X98636323Y-74146552D02*
X98541084Y-74194171D01*
X98541084Y-74194171D02*
X98493465Y-74289409D01*
X98493465Y-74289409D02*
X98493465Y-74813219D01*
X97302990Y-73765600D02*
X98160132Y-75051314D01*
X96969656Y-74146552D02*
X96969656Y-75146552D01*
X96969656Y-74194171D02*
X96874418Y-74146552D01*
X96874418Y-74146552D02*
X96683942Y-74146552D01*
X96683942Y-74146552D02*
X96588704Y-74194171D01*
X96588704Y-74194171D02*
X96541085Y-74241790D01*
X96541085Y-74241790D02*
X96493466Y-74337028D01*
X96493466Y-74337028D02*
X96493466Y-74622742D01*
X96493466Y-74622742D02*
X96541085Y-74717980D01*
X96541085Y-74717980D02*
X96588704Y-74765600D01*
X96588704Y-74765600D02*
X96683942Y-74813219D01*
X96683942Y-74813219D02*
X96874418Y-74813219D01*
X96874418Y-74813219D02*
X96969656Y-74765600D01*
X95683942Y-74765600D02*
X95779180Y-74813219D01*
X95779180Y-74813219D02*
X95969656Y-74813219D01*
X95969656Y-74813219D02*
X96064894Y-74765600D01*
X96064894Y-74765600D02*
X96112513Y-74670361D01*
X96112513Y-74670361D02*
X96112513Y-74289409D01*
X96112513Y-74289409D02*
X96064894Y-74194171D01*
X96064894Y-74194171D02*
X95969656Y-74146552D01*
X95969656Y-74146552D02*
X95779180Y-74146552D01*
X95779180Y-74146552D02*
X95683942Y-74194171D01*
X95683942Y-74194171D02*
X95636323Y-74289409D01*
X95636323Y-74289409D02*
X95636323Y-74384647D01*
X95636323Y-74384647D02*
X96112513Y-74479885D01*
X94779180Y-74813219D02*
X94779180Y-73813219D01*
X94779180Y-74765600D02*
X94874418Y-74813219D01*
X94874418Y-74813219D02*
X95064894Y-74813219D01*
X95064894Y-74813219D02*
X95160132Y-74765600D01*
X95160132Y-74765600D02*
X95207751Y-74717980D01*
X95207751Y-74717980D02*
X95255370Y-74622742D01*
X95255370Y-74622742D02*
X95255370Y-74337028D01*
X95255370Y-74337028D02*
X95207751Y-74241790D01*
X95207751Y-74241790D02*
X95160132Y-74194171D01*
X95160132Y-74194171D02*
X95064894Y-74146552D01*
X95064894Y-74146552D02*
X94874418Y-74146552D01*
X94874418Y-74146552D02*
X94779180Y-74194171D01*
X93874418Y-74813219D02*
X93874418Y-74289409D01*
X93874418Y-74289409D02*
X93922037Y-74194171D01*
X93922037Y-74194171D02*
X94017275Y-74146552D01*
X94017275Y-74146552D02*
X94207751Y-74146552D01*
X94207751Y-74146552D02*
X94302989Y-74194171D01*
X93874418Y-74765600D02*
X93969656Y-74813219D01*
X93969656Y-74813219D02*
X94207751Y-74813219D01*
X94207751Y-74813219D02*
X94302989Y-74765600D01*
X94302989Y-74765600D02*
X94350608Y-74670361D01*
X94350608Y-74670361D02*
X94350608Y-74575123D01*
X94350608Y-74575123D02*
X94302989Y-74479885D01*
X94302989Y-74479885D02*
X94207751Y-74432266D01*
X94207751Y-74432266D02*
X93969656Y-74432266D01*
X93969656Y-74432266D02*
X93874418Y-74384647D01*
X93255370Y-74813219D02*
X93350608Y-74765600D01*
X93350608Y-74765600D02*
X93398227Y-74670361D01*
X93398227Y-74670361D02*
X93398227Y-73813219D01*
X92874417Y-74813219D02*
X92874417Y-73813219D01*
X92874417Y-74194171D02*
X92779179Y-74146552D01*
X92779179Y-74146552D02*
X92588703Y-74146552D01*
X92588703Y-74146552D02*
X92493465Y-74194171D01*
X92493465Y-74194171D02*
X92445846Y-74241790D01*
X92445846Y-74241790D02*
X92398227Y-74337028D01*
X92398227Y-74337028D02*
X92398227Y-74622742D01*
X92398227Y-74622742D02*
X92445846Y-74717980D01*
X92445846Y-74717980D02*
X92493465Y-74765600D01*
X92493465Y-74765600D02*
X92588703Y-74813219D01*
X92588703Y-74813219D02*
X92779179Y-74813219D01*
X92779179Y-74813219D02*
X92874417Y-74765600D01*
X91826798Y-74813219D02*
X91922036Y-74765600D01*
X91922036Y-74765600D02*
X91969655Y-74717980D01*
X91969655Y-74717980D02*
X92017274Y-74622742D01*
X92017274Y-74622742D02*
X92017274Y-74337028D01*
X92017274Y-74337028D02*
X91969655Y-74241790D01*
X91969655Y-74241790D02*
X91922036Y-74194171D01*
X91922036Y-74194171D02*
X91826798Y-74146552D01*
X91826798Y-74146552D02*
X91683941Y-74146552D01*
X91683941Y-74146552D02*
X91588703Y-74194171D01*
X91588703Y-74194171D02*
X91541084Y-74241790D01*
X91541084Y-74241790D02*
X91493465Y-74337028D01*
X91493465Y-74337028D02*
X91493465Y-74622742D01*
X91493465Y-74622742D02*
X91541084Y-74717980D01*
X91541084Y-74717980D02*
X91588703Y-74765600D01*
X91588703Y-74765600D02*
X91683941Y-74813219D01*
X91683941Y-74813219D02*
X91826798Y-74813219D01*
X90636322Y-74813219D02*
X90636322Y-74289409D01*
X90636322Y-74289409D02*
X90683941Y-74194171D01*
X90683941Y-74194171D02*
X90779179Y-74146552D01*
X90779179Y-74146552D02*
X90969655Y-74146552D01*
X90969655Y-74146552D02*
X91064893Y-74194171D01*
X90636322Y-74765600D02*
X90731560Y-74813219D01*
X90731560Y-74813219D02*
X90969655Y-74813219D01*
X90969655Y-74813219D02*
X91064893Y-74765600D01*
X91064893Y-74765600D02*
X91112512Y-74670361D01*
X91112512Y-74670361D02*
X91112512Y-74575123D01*
X91112512Y-74575123D02*
X91064893Y-74479885D01*
X91064893Y-74479885D02*
X90969655Y-74432266D01*
X90969655Y-74432266D02*
X90731560Y-74432266D01*
X90731560Y-74432266D02*
X90636322Y-74384647D01*
X90160131Y-74813219D02*
X90160131Y-74146552D01*
X90160131Y-74337028D02*
X90112512Y-74241790D01*
X90112512Y-74241790D02*
X90064893Y-74194171D01*
X90064893Y-74194171D02*
X89969655Y-74146552D01*
X89969655Y-74146552D02*
X89874417Y-74146552D01*
X89112512Y-74813219D02*
X89112512Y-73813219D01*
X89112512Y-74765600D02*
X89207750Y-74813219D01*
X89207750Y-74813219D02*
X89398226Y-74813219D01*
X89398226Y-74813219D02*
X89493464Y-74765600D01*
X89493464Y-74765600D02*
X89541083Y-74717980D01*
X89541083Y-74717980D02*
X89588702Y-74622742D01*
X89588702Y-74622742D02*
X89588702Y-74337028D01*
X89588702Y-74337028D02*
X89541083Y-74241790D01*
X89541083Y-74241790D02*
X89493464Y-74194171D01*
X89493464Y-74194171D02*
X89398226Y-74146552D01*
X89398226Y-74146552D02*
X89207750Y-74146552D01*
X89207750Y-74146552D02*
X89112512Y-74194171D01*
X112255371Y-75909409D02*
X112112514Y-75957028D01*
X112112514Y-75957028D02*
X112064895Y-76004647D01*
X112064895Y-76004647D02*
X112017276Y-76099885D01*
X112017276Y-76099885D02*
X112017276Y-76242742D01*
X112017276Y-76242742D02*
X112064895Y-76337980D01*
X112064895Y-76337980D02*
X112112514Y-76385600D01*
X112112514Y-76385600D02*
X112207752Y-76433219D01*
X112207752Y-76433219D02*
X112588704Y-76433219D01*
X112588704Y-76433219D02*
X112588704Y-75433219D01*
X112588704Y-75433219D02*
X112255371Y-75433219D01*
X112255371Y-75433219D02*
X112160133Y-75480838D01*
X112160133Y-75480838D02*
X112112514Y-75528457D01*
X112112514Y-75528457D02*
X112064895Y-75623695D01*
X112064895Y-75623695D02*
X112064895Y-75718933D01*
X112064895Y-75718933D02*
X112112514Y-75814171D01*
X112112514Y-75814171D02*
X112160133Y-75861790D01*
X112160133Y-75861790D02*
X112255371Y-75909409D01*
X112255371Y-75909409D02*
X112588704Y-75909409D01*
X111017276Y-76337980D02*
X111064895Y-76385600D01*
X111064895Y-76385600D02*
X111207752Y-76433219D01*
X111207752Y-76433219D02*
X111302990Y-76433219D01*
X111302990Y-76433219D02*
X111445847Y-76385600D01*
X111445847Y-76385600D02*
X111541085Y-76290361D01*
X111541085Y-76290361D02*
X111588704Y-76195123D01*
X111588704Y-76195123D02*
X111636323Y-76004647D01*
X111636323Y-76004647D02*
X111636323Y-75861790D01*
X111636323Y-75861790D02*
X111588704Y-75671314D01*
X111588704Y-75671314D02*
X111541085Y-75576076D01*
X111541085Y-75576076D02*
X111445847Y-75480838D01*
X111445847Y-75480838D02*
X111302990Y-75433219D01*
X111302990Y-75433219D02*
X111207752Y-75433219D01*
X111207752Y-75433219D02*
X111064895Y-75480838D01*
X111064895Y-75480838D02*
X111017276Y-75528457D01*
X110255371Y-75909409D02*
X110112514Y-75957028D01*
X110112514Y-75957028D02*
X110064895Y-76004647D01*
X110064895Y-76004647D02*
X110017276Y-76099885D01*
X110017276Y-76099885D02*
X110017276Y-76242742D01*
X110017276Y-76242742D02*
X110064895Y-76337980D01*
X110064895Y-76337980D02*
X110112514Y-76385600D01*
X110112514Y-76385600D02*
X110207752Y-76433219D01*
X110207752Y-76433219D02*
X110588704Y-76433219D01*
X110588704Y-76433219D02*
X110588704Y-75433219D01*
X110588704Y-75433219D02*
X110255371Y-75433219D01*
X110255371Y-75433219D02*
X110160133Y-75480838D01*
X110160133Y-75480838D02*
X110112514Y-75528457D01*
X110112514Y-75528457D02*
X110064895Y-75623695D01*
X110064895Y-75623695D02*
X110064895Y-75718933D01*
X110064895Y-75718933D02*
X110112514Y-75814171D01*
X110112514Y-75814171D02*
X110160133Y-75861790D01*
X110160133Y-75861790D02*
X110255371Y-75909409D01*
X110255371Y-75909409D02*
X110588704Y-75909409D01*
X109588704Y-76337980D02*
X109541085Y-76385600D01*
X109541085Y-76385600D02*
X109588704Y-76433219D01*
X109588704Y-76433219D02*
X109636323Y-76385600D01*
X109636323Y-76385600D02*
X109588704Y-76337980D01*
X109588704Y-76337980D02*
X109588704Y-76433219D01*
X109588704Y-75814171D02*
X109541085Y-75861790D01*
X109541085Y-75861790D02*
X109588704Y-75909409D01*
X109588704Y-75909409D02*
X109636323Y-75861790D01*
X109636323Y-75861790D02*
X109588704Y-75814171D01*
X109588704Y-75814171D02*
X109588704Y-75909409D01*
X108398228Y-75528457D02*
X108350609Y-75480838D01*
X108350609Y-75480838D02*
X108255371Y-75433219D01*
X108255371Y-75433219D02*
X108017276Y-75433219D01*
X108017276Y-75433219D02*
X107922038Y-75480838D01*
X107922038Y-75480838D02*
X107874419Y-75528457D01*
X107874419Y-75528457D02*
X107826800Y-75623695D01*
X107826800Y-75623695D02*
X107826800Y-75718933D01*
X107826800Y-75718933D02*
X107874419Y-75861790D01*
X107874419Y-75861790D02*
X108445847Y-76433219D01*
X108445847Y-76433219D02*
X107826800Y-76433219D01*
X107398228Y-76337980D02*
X107350609Y-76385600D01*
X107350609Y-76385600D02*
X107398228Y-76433219D01*
X107398228Y-76433219D02*
X107445847Y-76385600D01*
X107445847Y-76385600D02*
X107398228Y-76337980D01*
X107398228Y-76337980D02*
X107398228Y-76433219D01*
X106731562Y-75433219D02*
X106636324Y-75433219D01*
X106636324Y-75433219D02*
X106541086Y-75480838D01*
X106541086Y-75480838D02*
X106493467Y-75528457D01*
X106493467Y-75528457D02*
X106445848Y-75623695D01*
X106445848Y-75623695D02*
X106398229Y-75814171D01*
X106398229Y-75814171D02*
X106398229Y-76052266D01*
X106398229Y-76052266D02*
X106445848Y-76242742D01*
X106445848Y-76242742D02*
X106493467Y-76337980D01*
X106493467Y-76337980D02*
X106541086Y-76385600D01*
X106541086Y-76385600D02*
X106636324Y-76433219D01*
X106636324Y-76433219D02*
X106731562Y-76433219D01*
X106731562Y-76433219D02*
X106826800Y-76385600D01*
X106826800Y-76385600D02*
X106874419Y-76337980D01*
X106874419Y-76337980D02*
X106922038Y-76242742D01*
X106922038Y-76242742D02*
X106969657Y-76052266D01*
X106969657Y-76052266D02*
X106969657Y-75814171D01*
X106969657Y-75814171D02*
X106922038Y-75623695D01*
X106922038Y-75623695D02*
X106874419Y-75528457D01*
X106874419Y-75528457D02*
X106826800Y-75480838D01*
X106826800Y-75480838D02*
X106731562Y-75433219D01*
X105969657Y-76337980D02*
X105922038Y-76385600D01*
X105922038Y-76385600D02*
X105969657Y-76433219D01*
X105969657Y-76433219D02*
X106017276Y-76385600D01*
X106017276Y-76385600D02*
X105969657Y-76337980D01*
X105969657Y-76337980D02*
X105969657Y-76433219D01*
X105302991Y-75433219D02*
X105207753Y-75433219D01*
X105207753Y-75433219D02*
X105112515Y-75480838D01*
X105112515Y-75480838D02*
X105064896Y-75528457D01*
X105064896Y-75528457D02*
X105017277Y-75623695D01*
X105017277Y-75623695D02*
X104969658Y-75814171D01*
X104969658Y-75814171D02*
X104969658Y-76052266D01*
X104969658Y-76052266D02*
X105017277Y-76242742D01*
X105017277Y-76242742D02*
X105064896Y-76337980D01*
X105064896Y-76337980D02*
X105112515Y-76385600D01*
X105112515Y-76385600D02*
X105207753Y-76433219D01*
X105207753Y-76433219D02*
X105302991Y-76433219D01*
X105302991Y-76433219D02*
X105398229Y-76385600D01*
X105398229Y-76385600D02*
X105445848Y-76337980D01*
X105445848Y-76337980D02*
X105493467Y-76242742D01*
X105493467Y-76242742D02*
X105541086Y-76052266D01*
X105541086Y-76052266D02*
X105541086Y-75814171D01*
X105541086Y-75814171D02*
X105493467Y-75623695D01*
X105493467Y-75623695D02*
X105445848Y-75528457D01*
X105445848Y-75528457D02*
X105398229Y-75480838D01*
X105398229Y-75480838D02*
X105302991Y-75433219D01*
X104541086Y-76052266D02*
X103779182Y-76052266D01*
X102731563Y-76433219D02*
X103064896Y-75957028D01*
X103302991Y-76433219D02*
X103302991Y-75433219D01*
X103302991Y-75433219D02*
X102922039Y-75433219D01*
X102922039Y-75433219D02*
X102826801Y-75480838D01*
X102826801Y-75480838D02*
X102779182Y-75528457D01*
X102779182Y-75528457D02*
X102731563Y-75623695D01*
X102731563Y-75623695D02*
X102731563Y-75766552D01*
X102731563Y-75766552D02*
X102779182Y-75861790D01*
X102779182Y-75861790D02*
X102826801Y-75909409D01*
X102826801Y-75909409D02*
X102922039Y-75957028D01*
X102922039Y-75957028D02*
X103302991Y-75957028D01*
X101731563Y-76337980D02*
X101779182Y-76385600D01*
X101779182Y-76385600D02*
X101922039Y-76433219D01*
X101922039Y-76433219D02*
X102017277Y-76433219D01*
X102017277Y-76433219D02*
X102160134Y-76385600D01*
X102160134Y-76385600D02*
X102255372Y-76290361D01*
X102255372Y-76290361D02*
X102302991Y-76195123D01*
X102302991Y-76195123D02*
X102350610Y-76004647D01*
X102350610Y-76004647D02*
X102350610Y-75861790D01*
X102350610Y-75861790D02*
X102302991Y-75671314D01*
X102302991Y-75671314D02*
X102255372Y-75576076D01*
X102255372Y-75576076D02*
X102160134Y-75480838D01*
X102160134Y-75480838D02*
X102017277Y-75433219D01*
X102017277Y-75433219D02*
X101922039Y-75433219D01*
X101922039Y-75433219D02*
X101779182Y-75480838D01*
X101779182Y-75480838D02*
X101731563Y-75528457D01*
X100779182Y-76433219D02*
X101350610Y-76433219D01*
X101064896Y-76433219D02*
X101064896Y-75433219D01*
X101064896Y-75433219D02*
X101160134Y-75576076D01*
X101160134Y-75576076D02*
X101255372Y-75671314D01*
X101255372Y-75671314D02*
X101350610Y-75718933D01*
X51196133Y-71085104D02*
X51196133Y-70323200D01*
X50815180Y-70704152D02*
X51577085Y-70704152D01*
X51815180Y-69942247D02*
X51815180Y-69323200D01*
X51815180Y-69323200D02*
X51434228Y-69656533D01*
X51434228Y-69656533D02*
X51434228Y-69513676D01*
X51434228Y-69513676D02*
X51386609Y-69418438D01*
X51386609Y-69418438D02*
X51338990Y-69370819D01*
X51338990Y-69370819D02*
X51243752Y-69323200D01*
X51243752Y-69323200D02*
X51005657Y-69323200D01*
X51005657Y-69323200D02*
X50910419Y-69370819D01*
X50910419Y-69370819D02*
X50862800Y-69418438D01*
X50862800Y-69418438D02*
X50815180Y-69513676D01*
X50815180Y-69513676D02*
X50815180Y-69799390D01*
X50815180Y-69799390D02*
X50862800Y-69894628D01*
X50862800Y-69894628D02*
X50910419Y-69942247D01*
X50910419Y-68894628D02*
X50862800Y-68847009D01*
X50862800Y-68847009D02*
X50815180Y-68894628D01*
X50815180Y-68894628D02*
X50862800Y-68942247D01*
X50862800Y-68942247D02*
X50910419Y-68894628D01*
X50910419Y-68894628D02*
X50815180Y-68894628D01*
X51815180Y-68513676D02*
X51815180Y-67894629D01*
X51815180Y-67894629D02*
X51434228Y-68227962D01*
X51434228Y-68227962D02*
X51434228Y-68085105D01*
X51434228Y-68085105D02*
X51386609Y-67989867D01*
X51386609Y-67989867D02*
X51338990Y-67942248D01*
X51338990Y-67942248D02*
X51243752Y-67894629D01*
X51243752Y-67894629D02*
X51005657Y-67894629D01*
X51005657Y-67894629D02*
X50910419Y-67942248D01*
X50910419Y-67942248D02*
X50862800Y-67989867D01*
X50862800Y-67989867D02*
X50815180Y-68085105D01*
X50815180Y-68085105D02*
X50815180Y-68370819D01*
X50815180Y-68370819D02*
X50862800Y-68466057D01*
X50862800Y-68466057D02*
X50910419Y-68513676D01*
X51815180Y-67608914D02*
X50815180Y-67275581D01*
X50815180Y-67275581D02*
X51815180Y-66942248D01*
X49195180Y-70561295D02*
X49195180Y-71132723D01*
X49195180Y-70847009D02*
X50195180Y-70847009D01*
X50195180Y-70847009D02*
X50052323Y-70942247D01*
X50052323Y-70942247D02*
X49957085Y-71037485D01*
X49957085Y-71037485D02*
X49909466Y-71132723D01*
X50195180Y-69656533D02*
X50195180Y-70132723D01*
X50195180Y-70132723D02*
X49718990Y-70180342D01*
X49718990Y-70180342D02*
X49766609Y-70132723D01*
X49766609Y-70132723D02*
X49814228Y-70037485D01*
X49814228Y-70037485D02*
X49814228Y-69799390D01*
X49814228Y-69799390D02*
X49766609Y-69704152D01*
X49766609Y-69704152D02*
X49718990Y-69656533D01*
X49718990Y-69656533D02*
X49623752Y-69608914D01*
X49623752Y-69608914D02*
X49385657Y-69608914D01*
X49385657Y-69608914D02*
X49290419Y-69656533D01*
X49290419Y-69656533D02*
X49242800Y-69704152D01*
X49242800Y-69704152D02*
X49195180Y-69799390D01*
X49195180Y-69799390D02*
X49195180Y-70037485D01*
X49195180Y-70037485D02*
X49242800Y-70132723D01*
X49242800Y-70132723D02*
X49290419Y-70180342D01*
X50195180Y-68989866D02*
X50195180Y-68894628D01*
X50195180Y-68894628D02*
X50147561Y-68799390D01*
X50147561Y-68799390D02*
X50099942Y-68751771D01*
X50099942Y-68751771D02*
X50004704Y-68704152D01*
X50004704Y-68704152D02*
X49814228Y-68656533D01*
X49814228Y-68656533D02*
X49576133Y-68656533D01*
X49576133Y-68656533D02*
X49385657Y-68704152D01*
X49385657Y-68704152D02*
X49290419Y-68751771D01*
X49290419Y-68751771D02*
X49242800Y-68799390D01*
X49242800Y-68799390D02*
X49195180Y-68894628D01*
X49195180Y-68894628D02*
X49195180Y-68989866D01*
X49195180Y-68989866D02*
X49242800Y-69085104D01*
X49242800Y-69085104D02*
X49290419Y-69132723D01*
X49290419Y-69132723D02*
X49385657Y-69180342D01*
X49385657Y-69180342D02*
X49576133Y-69227961D01*
X49576133Y-69227961D02*
X49814228Y-69227961D01*
X49814228Y-69227961D02*
X50004704Y-69180342D01*
X50004704Y-69180342D02*
X50099942Y-69132723D01*
X50099942Y-69132723D02*
X50147561Y-69085104D01*
X50147561Y-69085104D02*
X50195180Y-68989866D01*
X49195180Y-68227961D02*
X49861847Y-68227961D01*
X49766609Y-68227961D02*
X49814228Y-68180342D01*
X49814228Y-68180342D02*
X49861847Y-68085104D01*
X49861847Y-68085104D02*
X49861847Y-67942247D01*
X49861847Y-67942247D02*
X49814228Y-67847009D01*
X49814228Y-67847009D02*
X49718990Y-67799390D01*
X49718990Y-67799390D02*
X49195180Y-67799390D01*
X49718990Y-67799390D02*
X49814228Y-67751771D01*
X49814228Y-67751771D02*
X49861847Y-67656533D01*
X49861847Y-67656533D02*
X49861847Y-67513676D01*
X49861847Y-67513676D02*
X49814228Y-67418437D01*
X49814228Y-67418437D02*
X49718990Y-67370818D01*
X49718990Y-67370818D02*
X49195180Y-67370818D01*
X49480895Y-66942247D02*
X49480895Y-66466057D01*
X49195180Y-67037485D02*
X50195180Y-66704152D01*
X50195180Y-66704152D02*
X49195180Y-66370819D01*
X49195180Y-65275580D02*
X49861847Y-65275580D01*
X49766609Y-65275580D02*
X49814228Y-65227961D01*
X49814228Y-65227961D02*
X49861847Y-65132723D01*
X49861847Y-65132723D02*
X49861847Y-64989866D01*
X49861847Y-64989866D02*
X49814228Y-64894628D01*
X49814228Y-64894628D02*
X49718990Y-64847009D01*
X49718990Y-64847009D02*
X49195180Y-64847009D01*
X49718990Y-64847009D02*
X49814228Y-64799390D01*
X49814228Y-64799390D02*
X49861847Y-64704152D01*
X49861847Y-64704152D02*
X49861847Y-64561295D01*
X49861847Y-64561295D02*
X49814228Y-64466056D01*
X49814228Y-64466056D02*
X49718990Y-64418437D01*
X49718990Y-64418437D02*
X49195180Y-64418437D01*
X49195180Y-63513676D02*
X49718990Y-63513676D01*
X49718990Y-63513676D02*
X49814228Y-63561295D01*
X49814228Y-63561295D02*
X49861847Y-63656533D01*
X49861847Y-63656533D02*
X49861847Y-63847009D01*
X49861847Y-63847009D02*
X49814228Y-63942247D01*
X49242800Y-63513676D02*
X49195180Y-63608914D01*
X49195180Y-63608914D02*
X49195180Y-63847009D01*
X49195180Y-63847009D02*
X49242800Y-63942247D01*
X49242800Y-63942247D02*
X49338038Y-63989866D01*
X49338038Y-63989866D02*
X49433276Y-63989866D01*
X49433276Y-63989866D02*
X49528514Y-63942247D01*
X49528514Y-63942247D02*
X49576133Y-63847009D01*
X49576133Y-63847009D02*
X49576133Y-63608914D01*
X49576133Y-63608914D02*
X49623752Y-63513676D01*
X49195180Y-63132723D02*
X49861847Y-62608914D01*
X49861847Y-63132723D02*
X49195180Y-62608914D01*
X65332857Y-51336428D02*
X65332857Y-49836428D01*
X65332857Y-49836428D02*
X64832857Y-50907857D01*
X64832857Y-50907857D02*
X64332857Y-49836428D01*
X64332857Y-49836428D02*
X64332857Y-51336428D01*
X63618571Y-51336428D02*
X63618571Y-49836428D01*
X62904285Y-51336428D02*
X62904285Y-49836428D01*
X62904285Y-49836428D02*
X62547142Y-49836428D01*
X62547142Y-49836428D02*
X62332856Y-49907857D01*
X62332856Y-49907857D02*
X62189999Y-50050714D01*
X62189999Y-50050714D02*
X62118570Y-50193571D01*
X62118570Y-50193571D02*
X62047142Y-50479285D01*
X62047142Y-50479285D02*
X62047142Y-50693571D01*
X62047142Y-50693571D02*
X62118570Y-50979285D01*
X62118570Y-50979285D02*
X62189999Y-51122142D01*
X62189999Y-51122142D02*
X62332856Y-51265000D01*
X62332856Y-51265000D02*
X62547142Y-51336428D01*
X62547142Y-51336428D02*
X62904285Y-51336428D01*
X61404285Y-51336428D02*
X61404285Y-49836428D01*
X134996380Y-44859676D02*
X135472571Y-45193009D01*
X134996380Y-45431104D02*
X135996380Y-45431104D01*
X135996380Y-45431104D02*
X135996380Y-45050152D01*
X135996380Y-45050152D02*
X135948761Y-44954914D01*
X135948761Y-44954914D02*
X135901142Y-44907295D01*
X135901142Y-44907295D02*
X135805904Y-44859676D01*
X135805904Y-44859676D02*
X135663047Y-44859676D01*
X135663047Y-44859676D02*
X135567809Y-44907295D01*
X135567809Y-44907295D02*
X135520190Y-44954914D01*
X135520190Y-44954914D02*
X135472571Y-45050152D01*
X135472571Y-45050152D02*
X135472571Y-45431104D01*
X134996380Y-44431104D02*
X135996380Y-44431104D01*
X135996380Y-44431104D02*
X135996380Y-44050152D01*
X135996380Y-44050152D02*
X135948761Y-43954914D01*
X135948761Y-43954914D02*
X135901142Y-43907295D01*
X135901142Y-43907295D02*
X135805904Y-43859676D01*
X135805904Y-43859676D02*
X135663047Y-43859676D01*
X135663047Y-43859676D02*
X135567809Y-43907295D01*
X135567809Y-43907295D02*
X135520190Y-43954914D01*
X135520190Y-43954914D02*
X135472571Y-44050152D01*
X135472571Y-44050152D02*
X135472571Y-44431104D01*
X134996380Y-43431104D02*
X135996380Y-43431104D01*
X134996380Y-42193009D02*
X135663047Y-42193009D01*
X135996380Y-42193009D02*
X135948761Y-42240628D01*
X135948761Y-42240628D02*
X135901142Y-42193009D01*
X135901142Y-42193009D02*
X135948761Y-42145390D01*
X135948761Y-42145390D02*
X135996380Y-42193009D01*
X135996380Y-42193009D02*
X135901142Y-42193009D01*
X135663047Y-41716819D02*
X134996380Y-41716819D01*
X135567809Y-41716819D02*
X135615428Y-41669200D01*
X135615428Y-41669200D02*
X135663047Y-41573962D01*
X135663047Y-41573962D02*
X135663047Y-41431105D01*
X135663047Y-41431105D02*
X135615428Y-41335867D01*
X135615428Y-41335867D02*
X135520190Y-41288248D01*
X135520190Y-41288248D02*
X134996380Y-41288248D01*
X48510914Y-83443619D02*
X48987104Y-83443619D01*
X48987104Y-83443619D02*
X48987104Y-82443619D01*
X48177580Y-82919809D02*
X47844247Y-82919809D01*
X47701390Y-83443619D02*
X48177580Y-83443619D01*
X48177580Y-83443619D02*
X48177580Y-82443619D01*
X48177580Y-82443619D02*
X47701390Y-82443619D01*
X47272818Y-83443619D02*
X47272818Y-82443619D01*
X47272818Y-82443619D02*
X47034723Y-82443619D01*
X47034723Y-82443619D02*
X46891866Y-82491238D01*
X46891866Y-82491238D02*
X46796628Y-82586476D01*
X46796628Y-82586476D02*
X46749009Y-82681714D01*
X46749009Y-82681714D02*
X46701390Y-82872190D01*
X46701390Y-82872190D02*
X46701390Y-83015047D01*
X46701390Y-83015047D02*
X46749009Y-83205523D01*
X46749009Y-83205523D02*
X46796628Y-83300761D01*
X46796628Y-83300761D02*
X46891866Y-83396000D01*
X46891866Y-83396000D02*
X47034723Y-83443619D01*
X47034723Y-83443619D02*
X47272818Y-83443619D01*
X45320437Y-82443619D02*
X45129961Y-82443619D01*
X45129961Y-82443619D02*
X45034723Y-82491238D01*
X45034723Y-82491238D02*
X44939485Y-82586476D01*
X44939485Y-82586476D02*
X44891866Y-82776952D01*
X44891866Y-82776952D02*
X44891866Y-83110285D01*
X44891866Y-83110285D02*
X44939485Y-83300761D01*
X44939485Y-83300761D02*
X45034723Y-83396000D01*
X45034723Y-83396000D02*
X45129961Y-83443619D01*
X45129961Y-83443619D02*
X45320437Y-83443619D01*
X45320437Y-83443619D02*
X45415675Y-83396000D01*
X45415675Y-83396000D02*
X45510913Y-83300761D01*
X45510913Y-83300761D02*
X45558532Y-83110285D01*
X45558532Y-83110285D02*
X45558532Y-82776952D01*
X45558532Y-82776952D02*
X45510913Y-82586476D01*
X45510913Y-82586476D02*
X45415675Y-82491238D01*
X45415675Y-82491238D02*
X45320437Y-82443619D01*
X44463294Y-82443619D02*
X44463294Y-83253142D01*
X44463294Y-83253142D02*
X44415675Y-83348380D01*
X44415675Y-83348380D02*
X44368056Y-83396000D01*
X44368056Y-83396000D02*
X44272818Y-83443619D01*
X44272818Y-83443619D02*
X44082342Y-83443619D01*
X44082342Y-83443619D02*
X43987104Y-83396000D01*
X43987104Y-83396000D02*
X43939485Y-83348380D01*
X43939485Y-83348380D02*
X43891866Y-83253142D01*
X43891866Y-83253142D02*
X43891866Y-82443619D01*
X43558532Y-82443619D02*
X42987104Y-82443619D01*
X43272818Y-83443619D02*
X43272818Y-82443619D01*
X182656019Y-37017295D02*
X181656019Y-37017295D01*
X182656019Y-37493485D02*
X181656019Y-37493485D01*
X181656019Y-37493485D02*
X182656019Y-38064913D01*
X182656019Y-38064913D02*
X181656019Y-38064913D01*
X68787980Y-51438228D02*
X68787980Y-51247752D01*
X68787980Y-51247752D02*
X68740361Y-51152514D01*
X68740361Y-51152514D02*
X68645123Y-51057276D01*
X68645123Y-51057276D02*
X68454647Y-51009657D01*
X68454647Y-51009657D02*
X68121314Y-51009657D01*
X68121314Y-51009657D02*
X67930838Y-51057276D01*
X67930838Y-51057276D02*
X67835600Y-51152514D01*
X67835600Y-51152514D02*
X67787980Y-51247752D01*
X67787980Y-51247752D02*
X67787980Y-51438228D01*
X67787980Y-51438228D02*
X67835600Y-51533466D01*
X67835600Y-51533466D02*
X67930838Y-51628704D01*
X67930838Y-51628704D02*
X68121314Y-51676323D01*
X68121314Y-51676323D02*
X68454647Y-51676323D01*
X68454647Y-51676323D02*
X68645123Y-51628704D01*
X68645123Y-51628704D02*
X68740361Y-51533466D01*
X68740361Y-51533466D02*
X68787980Y-51438228D01*
X68787980Y-50581085D02*
X67978457Y-50581085D01*
X67978457Y-50581085D02*
X67883219Y-50533466D01*
X67883219Y-50533466D02*
X67835600Y-50485847D01*
X67835600Y-50485847D02*
X67787980Y-50390609D01*
X67787980Y-50390609D02*
X67787980Y-50200133D01*
X67787980Y-50200133D02*
X67835600Y-50104895D01*
X67835600Y-50104895D02*
X67883219Y-50057276D01*
X67883219Y-50057276D02*
X67978457Y-50009657D01*
X67978457Y-50009657D02*
X68787980Y-50009657D01*
X68787980Y-49676323D02*
X68787980Y-49104895D01*
X67787980Y-49390609D02*
X68787980Y-49390609D01*
X175204419Y-36772838D02*
X176204419Y-37106171D01*
X176204419Y-37106171D02*
X175204419Y-37439504D01*
X176204419Y-38344266D02*
X175728228Y-38010933D01*
X176204419Y-37772838D02*
X175204419Y-37772838D01*
X175204419Y-37772838D02*
X175204419Y-38153790D01*
X175204419Y-38153790D02*
X175252038Y-38249028D01*
X175252038Y-38249028D02*
X175299657Y-38296647D01*
X175299657Y-38296647D02*
X175394895Y-38344266D01*
X175394895Y-38344266D02*
X175537752Y-38344266D01*
X175537752Y-38344266D02*
X175632990Y-38296647D01*
X175632990Y-38296647D02*
X175680609Y-38249028D01*
X175680609Y-38249028D02*
X175728228Y-38153790D01*
X175728228Y-38153790D02*
X175728228Y-37772838D01*
X175680609Y-38772838D02*
X175680609Y-39106171D01*
X176204419Y-39249028D02*
X176204419Y-38772838D01*
X176204419Y-38772838D02*
X175204419Y-38772838D01*
X175204419Y-38772838D02*
X175204419Y-39249028D01*
X175680609Y-40010933D02*
X175680609Y-39677600D01*
X176204419Y-39677600D02*
X175204419Y-39677600D01*
X175204419Y-39677600D02*
X175204419Y-40153790D01*
X137587180Y-45389847D02*
X137634800Y-45485085D01*
X137634800Y-45485085D02*
X137682419Y-45532704D01*
X137682419Y-45532704D02*
X137777657Y-45580323D01*
X137777657Y-45580323D02*
X138063371Y-45580323D01*
X138063371Y-45580323D02*
X138158609Y-45532704D01*
X138158609Y-45532704D02*
X138206228Y-45485085D01*
X138206228Y-45485085D02*
X138253847Y-45389847D01*
X138253847Y-45389847D02*
X138253847Y-45246990D01*
X138253847Y-45246990D02*
X138206228Y-45151752D01*
X138206228Y-45151752D02*
X138158609Y-45104133D01*
X138158609Y-45104133D02*
X138063371Y-45056514D01*
X138063371Y-45056514D02*
X137777657Y-45056514D01*
X137777657Y-45056514D02*
X137682419Y-45104133D01*
X137682419Y-45104133D02*
X137634800Y-45151752D01*
X137634800Y-45151752D02*
X137587180Y-45246990D01*
X137587180Y-45246990D02*
X137587180Y-45389847D01*
X138253847Y-44199371D02*
X137587180Y-44199371D01*
X138253847Y-44627942D02*
X137730038Y-44627942D01*
X137730038Y-44627942D02*
X137634800Y-44580323D01*
X137634800Y-44580323D02*
X137587180Y-44485085D01*
X137587180Y-44485085D02*
X137587180Y-44342228D01*
X137587180Y-44342228D02*
X137634800Y-44246990D01*
X137634800Y-44246990D02*
X137682419Y-44199371D01*
X138253847Y-43866037D02*
X138253847Y-43485085D01*
X138587180Y-43723180D02*
X137730038Y-43723180D01*
X137730038Y-43723180D02*
X137634800Y-43675561D01*
X137634800Y-43675561D02*
X137587180Y-43580323D01*
X137587180Y-43580323D02*
X137587180Y-43485085D01*
%TO.C,J7*%
X50033333Y-109062619D02*
X50033333Y-109776904D01*
X50033333Y-109776904D02*
X50080952Y-109919761D01*
X50080952Y-109919761D02*
X50176190Y-110015000D01*
X50176190Y-110015000D02*
X50319047Y-110062619D01*
X50319047Y-110062619D02*
X50414285Y-110062619D01*
X49652380Y-109062619D02*
X48985714Y-109062619D01*
X48985714Y-109062619D02*
X49414285Y-110062619D01*
%TO.C,J6*%
X113958333Y-99572619D02*
X113958333Y-100286904D01*
X113958333Y-100286904D02*
X114005952Y-100429761D01*
X114005952Y-100429761D02*
X114101190Y-100525000D01*
X114101190Y-100525000D02*
X114244047Y-100572619D01*
X114244047Y-100572619D02*
X114339285Y-100572619D01*
X113053571Y-99572619D02*
X113244047Y-99572619D01*
X113244047Y-99572619D02*
X113339285Y-99620238D01*
X113339285Y-99620238D02*
X113386904Y-99667857D01*
X113386904Y-99667857D02*
X113482142Y-99810714D01*
X113482142Y-99810714D02*
X113529761Y-100001190D01*
X113529761Y-100001190D02*
X113529761Y-100382142D01*
X113529761Y-100382142D02*
X113482142Y-100477380D01*
X113482142Y-100477380D02*
X113434523Y-100525000D01*
X113434523Y-100525000D02*
X113339285Y-100572619D01*
X113339285Y-100572619D02*
X113148809Y-100572619D01*
X113148809Y-100572619D02*
X113053571Y-100525000D01*
X113053571Y-100525000D02*
X113005952Y-100477380D01*
X113005952Y-100477380D02*
X112958333Y-100382142D01*
X112958333Y-100382142D02*
X112958333Y-100144047D01*
X112958333Y-100144047D02*
X113005952Y-100048809D01*
X113005952Y-100048809D02*
X113053571Y-100001190D01*
X113053571Y-100001190D02*
X113148809Y-99953571D01*
X113148809Y-99953571D02*
X113339285Y-99953571D01*
X113339285Y-99953571D02*
X113434523Y-100001190D01*
X113434523Y-100001190D02*
X113482142Y-100048809D01*
X113482142Y-100048809D02*
X113529761Y-100144047D01*
%TO.C,J14*%
X141779523Y-57679419D02*
X141779523Y-58393704D01*
X141779523Y-58393704D02*
X141827142Y-58536561D01*
X141827142Y-58536561D02*
X141922380Y-58631800D01*
X141922380Y-58631800D02*
X142065237Y-58679419D01*
X142065237Y-58679419D02*
X142160475Y-58679419D01*
X140779523Y-58679419D02*
X141350951Y-58679419D01*
X141065237Y-58679419D02*
X141065237Y-57679419D01*
X141065237Y-57679419D02*
X141160475Y-57822276D01*
X141160475Y-57822276D02*
X141255713Y-57917514D01*
X141255713Y-57917514D02*
X141350951Y-57965133D01*
X139922380Y-58012752D02*
X139922380Y-58679419D01*
X140160475Y-57631800D02*
X140398570Y-58346085D01*
X140398570Y-58346085D02*
X139779523Y-58346085D01*
%TO.C,J5*%
X127333333Y-45402619D02*
X127333333Y-46116904D01*
X127333333Y-46116904D02*
X127380952Y-46259761D01*
X127380952Y-46259761D02*
X127476190Y-46355000D01*
X127476190Y-46355000D02*
X127619047Y-46402619D01*
X127619047Y-46402619D02*
X127714285Y-46402619D01*
X126380952Y-45402619D02*
X126857142Y-45402619D01*
X126857142Y-45402619D02*
X126904761Y-45878809D01*
X126904761Y-45878809D02*
X126857142Y-45831190D01*
X126857142Y-45831190D02*
X126761904Y-45783571D01*
X126761904Y-45783571D02*
X126523809Y-45783571D01*
X126523809Y-45783571D02*
X126428571Y-45831190D01*
X126428571Y-45831190D02*
X126380952Y-45878809D01*
X126380952Y-45878809D02*
X126333333Y-45974047D01*
X126333333Y-45974047D02*
X126333333Y-46212142D01*
X126333333Y-46212142D02*
X126380952Y-46307380D01*
X126380952Y-46307380D02*
X126428571Y-46355000D01*
X126428571Y-46355000D02*
X126523809Y-46402619D01*
X126523809Y-46402619D02*
X126761904Y-46402619D01*
X126761904Y-46402619D02*
X126857142Y-46355000D01*
X126857142Y-46355000D02*
X126904761Y-46307380D01*
%TO.C,U1*%
X76250704Y-39797819D02*
X76250704Y-40607342D01*
X76250704Y-40607342D02*
X76203085Y-40702580D01*
X76203085Y-40702580D02*
X76155466Y-40750200D01*
X76155466Y-40750200D02*
X76060228Y-40797819D01*
X76060228Y-40797819D02*
X75869752Y-40797819D01*
X75869752Y-40797819D02*
X75774514Y-40750200D01*
X75774514Y-40750200D02*
X75726895Y-40702580D01*
X75726895Y-40702580D02*
X75679276Y-40607342D01*
X75679276Y-40607342D02*
X75679276Y-39797819D01*
X74679276Y-40797819D02*
X75250704Y-40797819D01*
X74964990Y-40797819D02*
X74964990Y-39797819D01*
X74964990Y-39797819D02*
X75060228Y-39940676D01*
X75060228Y-39940676D02*
X75155466Y-40035914D01*
X75155466Y-40035914D02*
X75250704Y-40083533D01*
%TO.C,J4*%
X58956533Y-82927019D02*
X58956533Y-83641304D01*
X58956533Y-83641304D02*
X59004152Y-83784161D01*
X59004152Y-83784161D02*
X59099390Y-83879400D01*
X59099390Y-83879400D02*
X59242247Y-83927019D01*
X59242247Y-83927019D02*
X59337485Y-83927019D01*
X58051771Y-83260352D02*
X58051771Y-83927019D01*
X58289866Y-82879400D02*
X58527961Y-83593685D01*
X58527961Y-83593685D02*
X57908914Y-83593685D01*
%TO.C,J8*%
X123633333Y-67962619D02*
X123633333Y-68676904D01*
X123633333Y-68676904D02*
X123680952Y-68819761D01*
X123680952Y-68819761D02*
X123776190Y-68915000D01*
X123776190Y-68915000D02*
X123919047Y-68962619D01*
X123919047Y-68962619D02*
X124014285Y-68962619D01*
X123014285Y-68391190D02*
X123109523Y-68343571D01*
X123109523Y-68343571D02*
X123157142Y-68295952D01*
X123157142Y-68295952D02*
X123204761Y-68200714D01*
X123204761Y-68200714D02*
X123204761Y-68153095D01*
X123204761Y-68153095D02*
X123157142Y-68057857D01*
X123157142Y-68057857D02*
X123109523Y-68010238D01*
X123109523Y-68010238D02*
X123014285Y-67962619D01*
X123014285Y-67962619D02*
X122823809Y-67962619D01*
X122823809Y-67962619D02*
X122728571Y-68010238D01*
X122728571Y-68010238D02*
X122680952Y-68057857D01*
X122680952Y-68057857D02*
X122633333Y-68153095D01*
X122633333Y-68153095D02*
X122633333Y-68200714D01*
X122633333Y-68200714D02*
X122680952Y-68295952D01*
X122680952Y-68295952D02*
X122728571Y-68343571D01*
X122728571Y-68343571D02*
X122823809Y-68391190D01*
X122823809Y-68391190D02*
X123014285Y-68391190D01*
X123014285Y-68391190D02*
X123109523Y-68438809D01*
X123109523Y-68438809D02*
X123157142Y-68486428D01*
X123157142Y-68486428D02*
X123204761Y-68581666D01*
X123204761Y-68581666D02*
X123204761Y-68772142D01*
X123204761Y-68772142D02*
X123157142Y-68867380D01*
X123157142Y-68867380D02*
X123109523Y-68915000D01*
X123109523Y-68915000D02*
X123014285Y-68962619D01*
X123014285Y-68962619D02*
X122823809Y-68962619D01*
X122823809Y-68962619D02*
X122728571Y-68915000D01*
X122728571Y-68915000D02*
X122680952Y-68867380D01*
X122680952Y-68867380D02*
X122633333Y-68772142D01*
X122633333Y-68772142D02*
X122633333Y-68581666D01*
X122633333Y-68581666D02*
X122680952Y-68486428D01*
X122680952Y-68486428D02*
X122728571Y-68438809D01*
X122728571Y-68438809D02*
X122823809Y-68391190D01*
%TO.C,J15*%
X66646323Y-59762219D02*
X66646323Y-60476504D01*
X66646323Y-60476504D02*
X66693942Y-60619361D01*
X66693942Y-60619361D02*
X66789180Y-60714600D01*
X66789180Y-60714600D02*
X66932037Y-60762219D01*
X66932037Y-60762219D02*
X67027275Y-60762219D01*
X65646323Y-60762219D02*
X66217751Y-60762219D01*
X65932037Y-60762219D02*
X65932037Y-59762219D01*
X65932037Y-59762219D02*
X66027275Y-59905076D01*
X66027275Y-59905076D02*
X66122513Y-60000314D01*
X66122513Y-60000314D02*
X66217751Y-60047933D01*
X64741561Y-59762219D02*
X65217751Y-59762219D01*
X65217751Y-59762219D02*
X65265370Y-60238409D01*
X65265370Y-60238409D02*
X65217751Y-60190790D01*
X65217751Y-60190790D02*
X65122513Y-60143171D01*
X65122513Y-60143171D02*
X64884418Y-60143171D01*
X64884418Y-60143171D02*
X64789180Y-60190790D01*
X64789180Y-60190790D02*
X64741561Y-60238409D01*
X64741561Y-60238409D02*
X64693942Y-60333647D01*
X64693942Y-60333647D02*
X64693942Y-60571742D01*
X64693942Y-60571742D02*
X64741561Y-60666980D01*
X64741561Y-60666980D02*
X64789180Y-60714600D01*
X64789180Y-60714600D02*
X64884418Y-60762219D01*
X64884418Y-60762219D02*
X65122513Y-60762219D01*
X65122513Y-60762219D02*
X65217751Y-60714600D01*
X65217751Y-60714600D02*
X65265370Y-60666980D01*
D11*
%TO.C,J7*%
X48260000Y-107650000D02*
X48260000Y-106320000D01*
X49590000Y-107650000D02*
X48260000Y-107650000D01*
X50860000Y-107650000D02*
X99180000Y-107650000D01*
X50860000Y-107650000D02*
X50860000Y-105050000D01*
X99180000Y-107650000D02*
X99180000Y-102450000D01*
X48260000Y-105050000D02*
X48260000Y-102450000D01*
X50860000Y-105050000D02*
X48260000Y-105050000D01*
X48260000Y-102450000D02*
X99180000Y-102450000D01*
D12*
X46220000Y-125050000D02*
X101220000Y-125050000D01*
X101220000Y-125050000D02*
X101220000Y-85050000D01*
X101220000Y-85050000D02*
X46220000Y-85050000D01*
X46220000Y-85050000D02*
X46220000Y-125050000D01*
D11*
%TO.C,J6*%
X112295000Y-88830000D02*
X114955000Y-88830000D01*
X112295000Y-96510000D02*
X112295000Y-88830000D01*
X112295000Y-96510000D02*
X114955000Y-96510000D01*
X112295000Y-97780000D02*
X112295000Y-99110000D01*
X112295000Y-99110000D02*
X113625000Y-99110000D01*
X114955000Y-96510000D02*
X114955000Y-88830000D01*
%TO.C,J14*%
X138000000Y-58445000D02*
X139270000Y-58445000D01*
X139270000Y-58445000D02*
X139270000Y-57175000D01*
X135080000Y-56132071D02*
X135080000Y-55735000D01*
X135840000Y-56132071D02*
X135840000Y-55735000D01*
X137620000Y-56065000D02*
X137620000Y-55735000D01*
X138380000Y-56065000D02*
X138380000Y-55735000D01*
X134130000Y-55735000D02*
X134130000Y-53075000D01*
X136730000Y-55735000D02*
X136730000Y-53075000D01*
X139330000Y-55735000D02*
X134130000Y-55735000D01*
X134130000Y-53075000D02*
X139330000Y-53075000D01*
X135840000Y-53075000D02*
X135840000Y-47075000D01*
X137720000Y-53075000D02*
X137720000Y-47075000D01*
X137840000Y-53075000D02*
X137840000Y-47075000D01*
X137960000Y-53075000D02*
X137960000Y-47075000D01*
X138080000Y-53075000D02*
X138080000Y-47075000D01*
X138200000Y-53075000D02*
X138200000Y-47075000D01*
X138320000Y-53075000D02*
X138320000Y-47075000D01*
X138380000Y-53075000D02*
X138380000Y-47075000D01*
X139330000Y-53075000D02*
X139330000Y-55735000D01*
X135080000Y-47075000D02*
X135080000Y-53075000D01*
X135840000Y-47075000D02*
X135080000Y-47075000D01*
X137620000Y-47075000D02*
X137620000Y-53075000D01*
X138380000Y-47075000D02*
X137620000Y-47075000D01*
D12*
%TO.C,J5*%
X127914753Y-50006248D02*
G75*
G03*
X127914753Y-50006248I-914753J0D01*
G01*
X127914400Y-48000000D02*
G75*
G03*
X127914400Y-48000000I-914400J0D01*
G01*
D11*
%TO.C,U1*%
X80300000Y-59500000D02*
X79900000Y-59500000D01*
X82900000Y-59500000D02*
X82500000Y-59500000D01*
X85400000Y-59500000D02*
X85000000Y-59500000D01*
X87900000Y-59500000D02*
X87500000Y-59500000D01*
X90500000Y-59500000D02*
X90100000Y-59500000D01*
X93000000Y-59500000D02*
X92600000Y-59500000D01*
X95600000Y-59500000D02*
X95200000Y-59500000D01*
X98100000Y-59500000D02*
X97700000Y-59500000D01*
X100700000Y-59500000D02*
X100300000Y-59500000D01*
X103200000Y-59500000D02*
X102800000Y-59500000D01*
X105700000Y-59500000D02*
X105300000Y-59500000D01*
X108300000Y-59500000D02*
X107900000Y-59500000D01*
X110800000Y-59500000D02*
X110400000Y-59500000D01*
X113400000Y-59500000D02*
X113000000Y-59500000D01*
X115900000Y-59500000D02*
X115500000Y-59500000D01*
X118400000Y-59500000D02*
X118000000Y-59500000D01*
X121000000Y-59500000D02*
X120600000Y-59500000D01*
X123500000Y-59500000D02*
X123100000Y-59500000D01*
X125833000Y-59500000D02*
X125833000Y-56493000D01*
X126100000Y-59500000D02*
X125700000Y-59500000D01*
X128500000Y-59500000D02*
X128200000Y-59500000D01*
X125833000Y-56493000D02*
X128500000Y-56493000D01*
X77500000Y-52700000D02*
X77500000Y-59500000D01*
X77500000Y-50500000D02*
X77500000Y-50100000D01*
X77500000Y-47900000D02*
X77500000Y-47500000D01*
X77500000Y-38500000D02*
X77500000Y-45300000D01*
X80300000Y-38500000D02*
X79900000Y-38500000D01*
X82900000Y-38500000D02*
X82500000Y-38500000D01*
X85400000Y-38500000D02*
X85000000Y-38500000D01*
X87900000Y-38500000D02*
X87500000Y-38500000D01*
X90500000Y-38500000D02*
X90100000Y-38500000D01*
X93000000Y-38500000D02*
X92600000Y-38500000D01*
X95600000Y-38500000D02*
X95200000Y-38500000D01*
X98100000Y-38500000D02*
X97700000Y-38500000D01*
X100700000Y-38500000D02*
X100300000Y-38500000D01*
X103200000Y-38500000D02*
X102800000Y-38500000D01*
X105700000Y-38500000D02*
X105300000Y-38500000D01*
X108300000Y-38500000D02*
X107900000Y-38500000D01*
X110800000Y-38500000D02*
X110400000Y-38500000D01*
X113400000Y-38500000D02*
X113000000Y-38500000D01*
X115900000Y-38500000D02*
X115500000Y-38500000D01*
X118400000Y-38500000D02*
X118000000Y-38500000D01*
X121000000Y-38500000D02*
X120600000Y-38500000D01*
X123500000Y-38500000D02*
X123100000Y-38500000D01*
X126100000Y-38500000D02*
X125700000Y-38500000D01*
X128500000Y-38500000D02*
X128200000Y-38500000D01*
%TO.C,J4*%
X55865000Y-84232600D02*
X57135000Y-84232600D01*
X57135000Y-84232600D02*
X57135000Y-82962600D01*
X50405000Y-81919671D02*
X50405000Y-81522600D01*
X51165000Y-81919671D02*
X51165000Y-81522600D01*
X52945000Y-81919671D02*
X52945000Y-81522600D01*
X53705000Y-81919671D02*
X53705000Y-81522600D01*
X55485000Y-81852600D02*
X55485000Y-81522600D01*
X56245000Y-81852600D02*
X56245000Y-81522600D01*
X49455000Y-81522600D02*
X49455000Y-78862600D01*
X52055000Y-81522600D02*
X52055000Y-78862600D01*
X54595000Y-81522600D02*
X54595000Y-78862600D01*
X57195000Y-81522600D02*
X49455000Y-81522600D01*
X49455000Y-78862600D02*
X57195000Y-78862600D01*
X51165000Y-78862600D02*
X51165000Y-72862600D01*
X53705000Y-78862600D02*
X53705000Y-72862600D01*
X55585000Y-78862600D02*
X55585000Y-72862600D01*
X55705000Y-78862600D02*
X55705000Y-72862600D01*
X55825000Y-78862600D02*
X55825000Y-72862600D01*
X55945000Y-78862600D02*
X55945000Y-72862600D01*
X56065000Y-78862600D02*
X56065000Y-72862600D01*
X56185000Y-78862600D02*
X56185000Y-72862600D01*
X56245000Y-78862600D02*
X56245000Y-72862600D01*
X57195000Y-78862600D02*
X57195000Y-81522600D01*
X50405000Y-72862600D02*
X50405000Y-78862600D01*
X51165000Y-72862600D02*
X50405000Y-72862600D01*
X52945000Y-72862600D02*
X52945000Y-78862600D01*
X53705000Y-72862600D02*
X52945000Y-72862600D01*
X55485000Y-72862600D02*
X55485000Y-78862600D01*
X56245000Y-72862600D02*
X55485000Y-72862600D01*
D12*
%TO.C,J8*%
X171480000Y-63505600D02*
X171480000Y-121505600D01*
X167730000Y-125005600D02*
X167980000Y-125005600D01*
D11*
X158790000Y-123020600D02*
X158790000Y-117820600D01*
X157885000Y-76115600D02*
X157885000Y-81255600D01*
X157885000Y-73515600D02*
X157885000Y-74845600D01*
X156555000Y-73515600D02*
X157885000Y-73515600D01*
X155285000Y-76115600D02*
X157885000Y-76115600D01*
X155285000Y-73515600D02*
X155285000Y-76115600D01*
X153650000Y-120420600D02*
X153650000Y-117820600D01*
X153650000Y-117820600D02*
X158790000Y-117820600D01*
X152685000Y-81255600D02*
X157885000Y-81255600D01*
X152685000Y-73515600D02*
X155285000Y-73515600D01*
X152685000Y-73515600D02*
X152685000Y-81255600D01*
X151050000Y-123020600D02*
X158790000Y-123020600D01*
X151050000Y-123020600D02*
X151050000Y-120420600D01*
X151050000Y-120420600D02*
X153650000Y-120420600D01*
X151050000Y-119150600D02*
X151050000Y-117820600D01*
X151050000Y-117820600D02*
X152380000Y-117820600D01*
X121580000Y-69645600D02*
X121580000Y-117965600D01*
X121580000Y-67045600D02*
X121580000Y-68375600D01*
X120250000Y-67045600D02*
X121580000Y-67045600D01*
X118980000Y-69645600D02*
X121580000Y-69645600D01*
X118980000Y-67045600D02*
X118980000Y-69645600D01*
D12*
X118980000Y-60005600D02*
X167980000Y-60005600D01*
X118980000Y-60005600D02*
X118480000Y-60005243D01*
X118230000Y-125005600D02*
X167730000Y-125005600D01*
D11*
X116380000Y-117965600D02*
X121580000Y-117965600D01*
X116380000Y-67045600D02*
X118980000Y-67045600D01*
X116380000Y-67045600D02*
X116380000Y-117965600D01*
D12*
X114980000Y-121505600D02*
X114980000Y-63555600D01*
X167980000Y-125005600D02*
G75*
G03*
X171480000Y-121505600I1J3499999D01*
G01*
X171480000Y-63505600D02*
G75*
G03*
X167980000Y-60005600I-3499999J1D01*
G01*
X114980000Y-121505600D02*
G75*
G03*
X118480000Y-125005600I3500000J0D01*
G01*
X118480000Y-60005243D02*
G75*
G03*
X114980000Y-63555600I0J-3500357D01*
G01*
X169631000Y-121505600D02*
G75*
G03*
X169631000Y-121505600I-1651000J0D01*
G01*
X169631000Y-63505600D02*
G75*
G03*
X169631000Y-63505600I-1651000J0D01*
G01*
X120631000Y-121505600D02*
G75*
G03*
X120631000Y-121505600I-1651000J0D01*
G01*
X120631000Y-63505600D02*
G75*
G03*
X120631000Y-63505600I-1651000J0D01*
G01*
D11*
%TO.C,J15*%
X72270000Y-52850000D02*
X72270000Y-51580000D01*
X72270000Y-51580000D02*
X71000000Y-51580000D01*
X69957071Y-58310000D02*
X69502929Y-58310000D01*
X69957071Y-57550000D02*
X69502929Y-57550000D01*
X69957071Y-55770000D02*
X69502929Y-55770000D01*
X69957071Y-55010000D02*
X69502929Y-55010000D01*
X69890000Y-53230000D02*
X69502929Y-53230000D01*
X69890000Y-52470000D02*
X69502929Y-52470000D01*
X67417071Y-58310000D02*
X67020000Y-58310000D01*
X67417071Y-57550000D02*
X67020000Y-57550000D01*
X67417071Y-55770000D02*
X67020000Y-55770000D01*
X67417071Y-55010000D02*
X67020000Y-55010000D01*
X67417071Y-53230000D02*
X67020000Y-53230000D01*
X67417071Y-52470000D02*
X67020000Y-52470000D01*
X67020000Y-59260000D02*
X64360000Y-59260000D01*
X67020000Y-56660000D02*
X64360000Y-56660000D01*
X67020000Y-54120000D02*
X64360000Y-54120000D01*
X67020000Y-51520000D02*
X67020000Y-59260000D01*
X64360000Y-59260000D02*
X64360000Y-51520000D01*
X64360000Y-57550000D02*
X58360000Y-57550000D01*
X64360000Y-55010000D02*
X58360000Y-55010000D01*
X64360000Y-53130000D02*
X58360000Y-53130000D01*
X64360000Y-53010000D02*
X58360000Y-53010000D01*
X64360000Y-52890000D02*
X58360000Y-52890000D01*
X64360000Y-52770000D02*
X58360000Y-52770000D01*
X64360000Y-52650000D02*
X58360000Y-52650000D01*
X64360000Y-52530000D02*
X58360000Y-52530000D01*
X64360000Y-52470000D02*
X58360000Y-52470000D01*
X64360000Y-51520000D02*
X67020000Y-51520000D01*
X58360000Y-58310000D02*
X64360000Y-58310000D01*
X58360000Y-57550000D02*
X58360000Y-58310000D01*
X58360000Y-55770000D02*
X64360000Y-55770000D01*
X58360000Y-55010000D02*
X58360000Y-55770000D01*
X58360000Y-53230000D02*
X64360000Y-53230000D01*
X58360000Y-52470000D02*
X58360000Y-53230000D01*
%TD*%
M02*
