%TF.GenerationSoftware,KiCad,Pcbnew,7.0.1.1-36-gbcf78dbe24-dirty-deb11*%
%TF.CreationDate,2023-03-27T15:09:21+00:00*%
%TF.ProjectId,pedalboard-hw,70656461-6c62-46f6-9172-642d68772e6b,0.0.1*%
%TF.SameCoordinates,Original*%
%TF.FileFunction,AssemblyDrawing,Bot*%
%FSLAX46Y46*%
G04 Gerber Fmt 4.6, Leading zero omitted, Abs format (unit mm)*
G04 Created by KiCad (PCBNEW 7.0.1.1-36-gbcf78dbe24-dirty-deb11) date 2023-03-27 15:09:21*
%MOMM*%
%LPD*%
G01*
G04 APERTURE LIST*
%ADD10C,0.150000*%
%ADD11C,0.100000*%
%ADD12C,0.120000*%
G04 APERTURE END LIST*
D10*
%TO.C,J6*%
X115696428Y-99397619D02*
X115696428Y-100207142D01*
X115696428Y-100207142D02*
X115648809Y-100302380D01*
X115648809Y-100302380D02*
X115601190Y-100350000D01*
X115601190Y-100350000D02*
X115505952Y-100397619D01*
X115505952Y-100397619D02*
X115315476Y-100397619D01*
X115315476Y-100397619D02*
X115220238Y-100350000D01*
X115220238Y-100350000D02*
X115172619Y-100302380D01*
X115172619Y-100302380D02*
X115125000Y-100207142D01*
X115125000Y-100207142D02*
X115125000Y-99397619D01*
X114696428Y-100350000D02*
X114553571Y-100397619D01*
X114553571Y-100397619D02*
X114315476Y-100397619D01*
X114315476Y-100397619D02*
X114220238Y-100350000D01*
X114220238Y-100350000D02*
X114172619Y-100302380D01*
X114172619Y-100302380D02*
X114125000Y-100207142D01*
X114125000Y-100207142D02*
X114125000Y-100111904D01*
X114125000Y-100111904D02*
X114172619Y-100016666D01*
X114172619Y-100016666D02*
X114220238Y-99969047D01*
X114220238Y-99969047D02*
X114315476Y-99921428D01*
X114315476Y-99921428D02*
X114505952Y-99873809D01*
X114505952Y-99873809D02*
X114601190Y-99826190D01*
X114601190Y-99826190D02*
X114648809Y-99778571D01*
X114648809Y-99778571D02*
X114696428Y-99683333D01*
X114696428Y-99683333D02*
X114696428Y-99588095D01*
X114696428Y-99588095D02*
X114648809Y-99492857D01*
X114648809Y-99492857D02*
X114601190Y-99445238D01*
X114601190Y-99445238D02*
X114505952Y-99397619D01*
X114505952Y-99397619D02*
X114267857Y-99397619D01*
X114267857Y-99397619D02*
X114125000Y-99445238D01*
X113363095Y-99873809D02*
X113220238Y-99921428D01*
X113220238Y-99921428D02*
X113172619Y-99969047D01*
X113172619Y-99969047D02*
X113125000Y-100064285D01*
X113125000Y-100064285D02*
X113125000Y-100207142D01*
X113125000Y-100207142D02*
X113172619Y-100302380D01*
X113172619Y-100302380D02*
X113220238Y-100350000D01*
X113220238Y-100350000D02*
X113315476Y-100397619D01*
X113315476Y-100397619D02*
X113696428Y-100397619D01*
X113696428Y-100397619D02*
X113696428Y-99397619D01*
X113696428Y-99397619D02*
X113363095Y-99397619D01*
X113363095Y-99397619D02*
X113267857Y-99445238D01*
X113267857Y-99445238D02*
X113220238Y-99492857D01*
X113220238Y-99492857D02*
X113172619Y-99588095D01*
X113172619Y-99588095D02*
X113172619Y-99683333D01*
X113172619Y-99683333D02*
X113220238Y-99778571D01*
X113220238Y-99778571D02*
X113267857Y-99826190D01*
X113267857Y-99826190D02*
X113363095Y-99873809D01*
X113363095Y-99873809D02*
X113696428Y-99873809D01*
X112934524Y-100492857D02*
X112172619Y-100492857D01*
X111982142Y-100111904D02*
X111505952Y-100111904D01*
X112077380Y-100397619D02*
X111744047Y-99397619D01*
X111744047Y-99397619D02*
X111410714Y-100397619D01*
X113087619Y-93461666D02*
X113801904Y-93461666D01*
X113801904Y-93461666D02*
X113944761Y-93414047D01*
X113944761Y-93414047D02*
X114040000Y-93318809D01*
X114040000Y-93318809D02*
X114087619Y-93175952D01*
X114087619Y-93175952D02*
X114087619Y-93080714D01*
X113087619Y-94366428D02*
X113087619Y-94175952D01*
X113087619Y-94175952D02*
X113135238Y-94080714D01*
X113135238Y-94080714D02*
X113182857Y-94033095D01*
X113182857Y-94033095D02*
X113325714Y-93937857D01*
X113325714Y-93937857D02*
X113516190Y-93890238D01*
X113516190Y-93890238D02*
X113897142Y-93890238D01*
X113897142Y-93890238D02*
X113992380Y-93937857D01*
X113992380Y-93937857D02*
X114040000Y-93985476D01*
X114040000Y-93985476D02*
X114087619Y-94080714D01*
X114087619Y-94080714D02*
X114087619Y-94271190D01*
X114087619Y-94271190D02*
X114040000Y-94366428D01*
X114040000Y-94366428D02*
X113992380Y-94414047D01*
X113992380Y-94414047D02*
X113897142Y-94461666D01*
X113897142Y-94461666D02*
X113659047Y-94461666D01*
X113659047Y-94461666D02*
X113563809Y-94414047D01*
X113563809Y-94414047D02*
X113516190Y-94366428D01*
X113516190Y-94366428D02*
X113468571Y-94271190D01*
X113468571Y-94271190D02*
X113468571Y-94080714D01*
X113468571Y-94080714D02*
X113516190Y-93985476D01*
X113516190Y-93985476D02*
X113563809Y-93937857D01*
X113563809Y-93937857D02*
X113659047Y-93890238D01*
%TO.C,J14*%
X133557380Y-49051904D02*
X133605000Y-49004285D01*
X133605000Y-49004285D02*
X133652619Y-48861428D01*
X133652619Y-48861428D02*
X133652619Y-48766190D01*
X133652619Y-48766190D02*
X133605000Y-48623333D01*
X133605000Y-48623333D02*
X133509761Y-48528095D01*
X133509761Y-48528095D02*
X133414523Y-48480476D01*
X133414523Y-48480476D02*
X133224047Y-48432857D01*
X133224047Y-48432857D02*
X133081190Y-48432857D01*
X133081190Y-48432857D02*
X132890714Y-48480476D01*
X132890714Y-48480476D02*
X132795476Y-48528095D01*
X132795476Y-48528095D02*
X132700238Y-48623333D01*
X132700238Y-48623333D02*
X132652619Y-48766190D01*
X132652619Y-48766190D02*
X132652619Y-48861428D01*
X132652619Y-48861428D02*
X132700238Y-49004285D01*
X132700238Y-49004285D02*
X132747857Y-49051904D01*
X133652619Y-49623333D02*
X133605000Y-49528095D01*
X133605000Y-49528095D02*
X133557380Y-49480476D01*
X133557380Y-49480476D02*
X133462142Y-49432857D01*
X133462142Y-49432857D02*
X133176428Y-49432857D01*
X133176428Y-49432857D02*
X133081190Y-49480476D01*
X133081190Y-49480476D02*
X133033571Y-49528095D01*
X133033571Y-49528095D02*
X132985952Y-49623333D01*
X132985952Y-49623333D02*
X132985952Y-49766190D01*
X132985952Y-49766190D02*
X133033571Y-49861428D01*
X133033571Y-49861428D02*
X133081190Y-49909047D01*
X133081190Y-49909047D02*
X133176428Y-49956666D01*
X133176428Y-49956666D02*
X133462142Y-49956666D01*
X133462142Y-49956666D02*
X133557380Y-49909047D01*
X133557380Y-49909047D02*
X133605000Y-49861428D01*
X133605000Y-49861428D02*
X133652619Y-49766190D01*
X133652619Y-49766190D02*
X133652619Y-49623333D01*
X132985952Y-50385238D02*
X133652619Y-50385238D01*
X133081190Y-50385238D02*
X133033571Y-50432857D01*
X133033571Y-50432857D02*
X132985952Y-50528095D01*
X132985952Y-50528095D02*
X132985952Y-50670952D01*
X132985952Y-50670952D02*
X133033571Y-50766190D01*
X133033571Y-50766190D02*
X133128809Y-50813809D01*
X133128809Y-50813809D02*
X133652619Y-50813809D01*
X132985952Y-51290000D02*
X133652619Y-51290000D01*
X133081190Y-51290000D02*
X133033571Y-51337619D01*
X133033571Y-51337619D02*
X132985952Y-51432857D01*
X132985952Y-51432857D02*
X132985952Y-51575714D01*
X132985952Y-51575714D02*
X133033571Y-51670952D01*
X133033571Y-51670952D02*
X133128809Y-51718571D01*
X133128809Y-51718571D02*
X133652619Y-51718571D01*
X133747857Y-51956667D02*
X133747857Y-52718571D01*
X132652619Y-53147143D02*
X132652619Y-53242381D01*
X132652619Y-53242381D02*
X132700238Y-53337619D01*
X132700238Y-53337619D02*
X132747857Y-53385238D01*
X132747857Y-53385238D02*
X132843095Y-53432857D01*
X132843095Y-53432857D02*
X133033571Y-53480476D01*
X133033571Y-53480476D02*
X133271666Y-53480476D01*
X133271666Y-53480476D02*
X133462142Y-53432857D01*
X133462142Y-53432857D02*
X133557380Y-53385238D01*
X133557380Y-53385238D02*
X133605000Y-53337619D01*
X133605000Y-53337619D02*
X133652619Y-53242381D01*
X133652619Y-53242381D02*
X133652619Y-53147143D01*
X133652619Y-53147143D02*
X133605000Y-53051905D01*
X133605000Y-53051905D02*
X133557380Y-53004286D01*
X133557380Y-53004286D02*
X133462142Y-52956667D01*
X133462142Y-52956667D02*
X133271666Y-52909048D01*
X133271666Y-52909048D02*
X133033571Y-52909048D01*
X133033571Y-52909048D02*
X132843095Y-52956667D01*
X132843095Y-52956667D02*
X132747857Y-53004286D01*
X132747857Y-53004286D02*
X132700238Y-53051905D01*
X132700238Y-53051905D02*
X132652619Y-53147143D01*
X132747857Y-53861429D02*
X132700238Y-53909048D01*
X132700238Y-53909048D02*
X132652619Y-54004286D01*
X132652619Y-54004286D02*
X132652619Y-54242381D01*
X132652619Y-54242381D02*
X132700238Y-54337619D01*
X132700238Y-54337619D02*
X132747857Y-54385238D01*
X132747857Y-54385238D02*
X132843095Y-54432857D01*
X132843095Y-54432857D02*
X132938333Y-54432857D01*
X132938333Y-54432857D02*
X133081190Y-54385238D01*
X133081190Y-54385238D02*
X133652619Y-53813810D01*
X133652619Y-53813810D02*
X133652619Y-54432857D01*
X133652619Y-54766191D02*
X132985952Y-55290000D01*
X132985952Y-54766191D02*
X133652619Y-55290000D01*
X132652619Y-55861429D02*
X132652619Y-55956667D01*
X132652619Y-55956667D02*
X132700238Y-56051905D01*
X132700238Y-56051905D02*
X132747857Y-56099524D01*
X132747857Y-56099524D02*
X132843095Y-56147143D01*
X132843095Y-56147143D02*
X133033571Y-56194762D01*
X133033571Y-56194762D02*
X133271666Y-56194762D01*
X133271666Y-56194762D02*
X133462142Y-56147143D01*
X133462142Y-56147143D02*
X133557380Y-56099524D01*
X133557380Y-56099524D02*
X133605000Y-56051905D01*
X133605000Y-56051905D02*
X133652619Y-55956667D01*
X133652619Y-55956667D02*
X133652619Y-55861429D01*
X133652619Y-55861429D02*
X133605000Y-55766191D01*
X133605000Y-55766191D02*
X133557380Y-55718572D01*
X133557380Y-55718572D02*
X133462142Y-55670953D01*
X133462142Y-55670953D02*
X133271666Y-55623334D01*
X133271666Y-55623334D02*
X133033571Y-55623334D01*
X133033571Y-55623334D02*
X132843095Y-55670953D01*
X132843095Y-55670953D02*
X132747857Y-55718572D01*
X132747857Y-55718572D02*
X132700238Y-55766191D01*
X132700238Y-55766191D02*
X132652619Y-55861429D01*
X133652619Y-57147143D02*
X133652619Y-56575715D01*
X133652619Y-56861429D02*
X132652619Y-56861429D01*
X132652619Y-56861429D02*
X132795476Y-56766191D01*
X132795476Y-56766191D02*
X132890714Y-56670953D01*
X132890714Y-56670953D02*
X132938333Y-56575715D01*
X137539523Y-53867619D02*
X137539523Y-54581904D01*
X137539523Y-54581904D02*
X137587142Y-54724761D01*
X137587142Y-54724761D02*
X137682380Y-54820000D01*
X137682380Y-54820000D02*
X137825237Y-54867619D01*
X137825237Y-54867619D02*
X137920475Y-54867619D01*
X136539523Y-54867619D02*
X137110951Y-54867619D01*
X136825237Y-54867619D02*
X136825237Y-53867619D01*
X136825237Y-53867619D02*
X136920475Y-54010476D01*
X136920475Y-54010476D02*
X137015713Y-54105714D01*
X137015713Y-54105714D02*
X137110951Y-54153333D01*
X135682380Y-54200952D02*
X135682380Y-54867619D01*
X135920475Y-53820000D02*
X136158570Y-54534285D01*
X136158570Y-54534285D02*
X135539523Y-54534285D01*
%TO.C,J5*%
X131473009Y-56692219D02*
X131473009Y-55692219D01*
X131473009Y-55692219D02*
X131092057Y-55692219D01*
X131092057Y-55692219D02*
X130996819Y-55739838D01*
X130996819Y-55739838D02*
X130949200Y-55787457D01*
X130949200Y-55787457D02*
X130901581Y-55882695D01*
X130901581Y-55882695D02*
X130901581Y-56025552D01*
X130901581Y-56025552D02*
X130949200Y-56120790D01*
X130949200Y-56120790D02*
X130996819Y-56168409D01*
X130996819Y-56168409D02*
X131092057Y-56216028D01*
X131092057Y-56216028D02*
X131473009Y-56216028D01*
X130473009Y-56692219D02*
X130473009Y-56025552D01*
X130473009Y-55692219D02*
X130520628Y-55739838D01*
X130520628Y-55739838D02*
X130473009Y-55787457D01*
X130473009Y-55787457D02*
X130425390Y-55739838D01*
X130425390Y-55739838D02*
X130473009Y-55692219D01*
X130473009Y-55692219D02*
X130473009Y-55787457D01*
X129568248Y-56644600D02*
X129663486Y-56692219D01*
X129663486Y-56692219D02*
X129853962Y-56692219D01*
X129853962Y-56692219D02*
X129949200Y-56644600D01*
X129949200Y-56644600D02*
X129996819Y-56596980D01*
X129996819Y-56596980D02*
X130044438Y-56501742D01*
X130044438Y-56501742D02*
X130044438Y-56216028D01*
X130044438Y-56216028D02*
X129996819Y-56120790D01*
X129996819Y-56120790D02*
X129949200Y-56073171D01*
X129949200Y-56073171D02*
X129853962Y-56025552D01*
X129853962Y-56025552D02*
X129663486Y-56025552D01*
X129663486Y-56025552D02*
X129568248Y-56073171D01*
X128996819Y-56692219D02*
X129092057Y-56644600D01*
X129092057Y-56644600D02*
X129139676Y-56596980D01*
X129139676Y-56596980D02*
X129187295Y-56501742D01*
X129187295Y-56501742D02*
X129187295Y-56216028D01*
X129187295Y-56216028D02*
X129139676Y-56120790D01*
X129139676Y-56120790D02*
X129092057Y-56073171D01*
X129092057Y-56073171D02*
X128996819Y-56025552D01*
X128996819Y-56025552D02*
X128853962Y-56025552D01*
X128853962Y-56025552D02*
X128758724Y-56073171D01*
X128758724Y-56073171D02*
X128711105Y-56120790D01*
X128711105Y-56120790D02*
X128663486Y-56216028D01*
X128663486Y-56216028D02*
X128663486Y-56501742D01*
X128663486Y-56501742D02*
X128711105Y-56596980D01*
X128711105Y-56596980D02*
X128758724Y-56644600D01*
X128758724Y-56644600D02*
X128853962Y-56692219D01*
X128853962Y-56692219D02*
X128996819Y-56692219D01*
X127473009Y-55692219D02*
X127473009Y-56501742D01*
X127473009Y-56501742D02*
X127425390Y-56596980D01*
X127425390Y-56596980D02*
X127377771Y-56644600D01*
X127377771Y-56644600D02*
X127282533Y-56692219D01*
X127282533Y-56692219D02*
X127092057Y-56692219D01*
X127092057Y-56692219D02*
X126996819Y-56644600D01*
X126996819Y-56644600D02*
X126949200Y-56596980D01*
X126949200Y-56596980D02*
X126901581Y-56501742D01*
X126901581Y-56501742D02*
X126901581Y-55692219D01*
X126473009Y-56644600D02*
X126330152Y-56692219D01*
X126330152Y-56692219D02*
X126092057Y-56692219D01*
X126092057Y-56692219D02*
X125996819Y-56644600D01*
X125996819Y-56644600D02*
X125949200Y-56596980D01*
X125949200Y-56596980D02*
X125901581Y-56501742D01*
X125901581Y-56501742D02*
X125901581Y-56406504D01*
X125901581Y-56406504D02*
X125949200Y-56311266D01*
X125949200Y-56311266D02*
X125996819Y-56263647D01*
X125996819Y-56263647D02*
X126092057Y-56216028D01*
X126092057Y-56216028D02*
X126282533Y-56168409D01*
X126282533Y-56168409D02*
X126377771Y-56120790D01*
X126377771Y-56120790D02*
X126425390Y-56073171D01*
X126425390Y-56073171D02*
X126473009Y-55977933D01*
X126473009Y-55977933D02*
X126473009Y-55882695D01*
X126473009Y-55882695D02*
X126425390Y-55787457D01*
X126425390Y-55787457D02*
X126377771Y-55739838D01*
X126377771Y-55739838D02*
X126282533Y-55692219D01*
X126282533Y-55692219D02*
X126044438Y-55692219D01*
X126044438Y-55692219D02*
X125901581Y-55739838D01*
X125139676Y-56168409D02*
X124996819Y-56216028D01*
X124996819Y-56216028D02*
X124949200Y-56263647D01*
X124949200Y-56263647D02*
X124901581Y-56358885D01*
X124901581Y-56358885D02*
X124901581Y-56501742D01*
X124901581Y-56501742D02*
X124949200Y-56596980D01*
X124949200Y-56596980D02*
X124996819Y-56644600D01*
X124996819Y-56644600D02*
X125092057Y-56692219D01*
X125092057Y-56692219D02*
X125473009Y-56692219D01*
X125473009Y-56692219D02*
X125473009Y-55692219D01*
X125473009Y-55692219D02*
X125139676Y-55692219D01*
X125139676Y-55692219D02*
X125044438Y-55739838D01*
X125044438Y-55739838D02*
X124996819Y-55787457D01*
X124996819Y-55787457D02*
X124949200Y-55882695D01*
X124949200Y-55882695D02*
X124949200Y-55977933D01*
X124949200Y-55977933D02*
X124996819Y-56073171D01*
X124996819Y-56073171D02*
X125044438Y-56120790D01*
X125044438Y-56120790D02*
X125139676Y-56168409D01*
X125139676Y-56168409D02*
X125473009Y-56168409D01*
X123853961Y-55692219D02*
X123282533Y-55692219D01*
X123568247Y-56692219D02*
X123568247Y-55692219D01*
X122949199Y-56692219D02*
X122949199Y-55692219D01*
X122949199Y-55692219D02*
X122568247Y-55692219D01*
X122568247Y-55692219D02*
X122473009Y-55739838D01*
X122473009Y-55739838D02*
X122425390Y-55787457D01*
X122425390Y-55787457D02*
X122377771Y-55882695D01*
X122377771Y-55882695D02*
X122377771Y-56025552D01*
X122377771Y-56025552D02*
X122425390Y-56120790D01*
X122425390Y-56120790D02*
X122473009Y-56168409D01*
X122473009Y-56168409D02*
X122568247Y-56216028D01*
X122568247Y-56216028D02*
X122949199Y-56216028D01*
X126462619Y-48666666D02*
X127176904Y-48666666D01*
X127176904Y-48666666D02*
X127319761Y-48619047D01*
X127319761Y-48619047D02*
X127415000Y-48523809D01*
X127415000Y-48523809D02*
X127462619Y-48380952D01*
X127462619Y-48380952D02*
X127462619Y-48285714D01*
X126462619Y-49619047D02*
X126462619Y-49142857D01*
X126462619Y-49142857D02*
X126938809Y-49095238D01*
X126938809Y-49095238D02*
X126891190Y-49142857D01*
X126891190Y-49142857D02*
X126843571Y-49238095D01*
X126843571Y-49238095D02*
X126843571Y-49476190D01*
X126843571Y-49476190D02*
X126891190Y-49571428D01*
X126891190Y-49571428D02*
X126938809Y-49619047D01*
X126938809Y-49619047D02*
X127034047Y-49666666D01*
X127034047Y-49666666D02*
X127272142Y-49666666D01*
X127272142Y-49666666D02*
X127367380Y-49619047D01*
X127367380Y-49619047D02*
X127415000Y-49571428D01*
X127415000Y-49571428D02*
X127462619Y-49476190D01*
X127462619Y-49476190D02*
X127462619Y-49238095D01*
X127462619Y-49238095D02*
X127415000Y-49142857D01*
X127415000Y-49142857D02*
X127367380Y-49095238D01*
%TO.C,U1*%
X101303619Y-47619048D02*
X100303619Y-47619048D01*
X100303619Y-47619048D02*
X100303619Y-48000000D01*
X100303619Y-48000000D02*
X100351238Y-48095238D01*
X100351238Y-48095238D02*
X100398857Y-48142857D01*
X100398857Y-48142857D02*
X100494095Y-48190476D01*
X100494095Y-48190476D02*
X100636952Y-48190476D01*
X100636952Y-48190476D02*
X100732190Y-48142857D01*
X100732190Y-48142857D02*
X100779809Y-48095238D01*
X100779809Y-48095238D02*
X100827428Y-48000000D01*
X100827428Y-48000000D02*
X100827428Y-47619048D01*
X101303619Y-48619048D02*
X100636952Y-48619048D01*
X100303619Y-48619048D02*
X100351238Y-48571429D01*
X100351238Y-48571429D02*
X100398857Y-48619048D01*
X100398857Y-48619048D02*
X100351238Y-48666667D01*
X100351238Y-48666667D02*
X100303619Y-48619048D01*
X100303619Y-48619048D02*
X100398857Y-48619048D01*
X101256000Y-49523809D02*
X101303619Y-49428571D01*
X101303619Y-49428571D02*
X101303619Y-49238095D01*
X101303619Y-49238095D02*
X101256000Y-49142857D01*
X101256000Y-49142857D02*
X101208380Y-49095238D01*
X101208380Y-49095238D02*
X101113142Y-49047619D01*
X101113142Y-49047619D02*
X100827428Y-49047619D01*
X100827428Y-49047619D02*
X100732190Y-49095238D01*
X100732190Y-49095238D02*
X100684571Y-49142857D01*
X100684571Y-49142857D02*
X100636952Y-49238095D01*
X100636952Y-49238095D02*
X100636952Y-49428571D01*
X100636952Y-49428571D02*
X100684571Y-49523809D01*
X101303619Y-50095238D02*
X101256000Y-50000000D01*
X101256000Y-50000000D02*
X101208380Y-49952381D01*
X101208380Y-49952381D02*
X101113142Y-49904762D01*
X101113142Y-49904762D02*
X100827428Y-49904762D01*
X100827428Y-49904762D02*
X100732190Y-49952381D01*
X100732190Y-49952381D02*
X100684571Y-50000000D01*
X100684571Y-50000000D02*
X100636952Y-50095238D01*
X100636952Y-50095238D02*
X100636952Y-50238095D01*
X100636952Y-50238095D02*
X100684571Y-50333333D01*
X100684571Y-50333333D02*
X100732190Y-50380952D01*
X100732190Y-50380952D02*
X100827428Y-50428571D01*
X100827428Y-50428571D02*
X101113142Y-50428571D01*
X101113142Y-50428571D02*
X101208380Y-50380952D01*
X101208380Y-50380952D02*
X101256000Y-50333333D01*
X101256000Y-50333333D02*
X101303619Y-50238095D01*
X101303619Y-50238095D02*
X101303619Y-50095238D01*
X102462619Y-48238095D02*
X103272142Y-48238095D01*
X103272142Y-48238095D02*
X103367380Y-48285714D01*
X103367380Y-48285714D02*
X103415000Y-48333333D01*
X103415000Y-48333333D02*
X103462619Y-48428571D01*
X103462619Y-48428571D02*
X103462619Y-48619047D01*
X103462619Y-48619047D02*
X103415000Y-48714285D01*
X103415000Y-48714285D02*
X103367380Y-48761904D01*
X103367380Y-48761904D02*
X103272142Y-48809523D01*
X103272142Y-48809523D02*
X102462619Y-48809523D01*
X103462619Y-49809523D02*
X103462619Y-49238095D01*
X103462619Y-49523809D02*
X102462619Y-49523809D01*
X102462619Y-49523809D02*
X102605476Y-49428571D01*
X102605476Y-49428571D02*
X102700714Y-49333333D01*
X102700714Y-49333333D02*
X102748333Y-49238095D01*
%TO.C,J4*%
X32612619Y-80595951D02*
X32136428Y-80262618D01*
X32612619Y-80024523D02*
X31612619Y-80024523D01*
X31612619Y-80024523D02*
X31612619Y-80405475D01*
X31612619Y-80405475D02*
X31660238Y-80500713D01*
X31660238Y-80500713D02*
X31707857Y-80548332D01*
X31707857Y-80548332D02*
X31803095Y-80595951D01*
X31803095Y-80595951D02*
X31945952Y-80595951D01*
X31945952Y-80595951D02*
X32041190Y-80548332D01*
X32041190Y-80548332D02*
X32088809Y-80500713D01*
X32088809Y-80500713D02*
X32136428Y-80405475D01*
X32136428Y-80405475D02*
X32136428Y-80024523D01*
X31660238Y-81548332D02*
X31612619Y-81453094D01*
X31612619Y-81453094D02*
X31612619Y-81310237D01*
X31612619Y-81310237D02*
X31660238Y-81167380D01*
X31660238Y-81167380D02*
X31755476Y-81072142D01*
X31755476Y-81072142D02*
X31850714Y-81024523D01*
X31850714Y-81024523D02*
X32041190Y-80976904D01*
X32041190Y-80976904D02*
X32184047Y-80976904D01*
X32184047Y-80976904D02*
X32374523Y-81024523D01*
X32374523Y-81024523D02*
X32469761Y-81072142D01*
X32469761Y-81072142D02*
X32565000Y-81167380D01*
X32565000Y-81167380D02*
X32612619Y-81310237D01*
X32612619Y-81310237D02*
X32612619Y-81405475D01*
X32612619Y-81405475D02*
X32565000Y-81548332D01*
X32565000Y-81548332D02*
X32517380Y-81595951D01*
X32517380Y-81595951D02*
X32184047Y-81595951D01*
X32184047Y-81595951D02*
X32184047Y-81405475D01*
X32088809Y-82357856D02*
X32136428Y-82500713D01*
X32136428Y-82500713D02*
X32184047Y-82548332D01*
X32184047Y-82548332D02*
X32279285Y-82595951D01*
X32279285Y-82595951D02*
X32422142Y-82595951D01*
X32422142Y-82595951D02*
X32517380Y-82548332D01*
X32517380Y-82548332D02*
X32565000Y-82500713D01*
X32565000Y-82500713D02*
X32612619Y-82405475D01*
X32612619Y-82405475D02*
X32612619Y-82024523D01*
X32612619Y-82024523D02*
X31612619Y-82024523D01*
X31612619Y-82024523D02*
X31612619Y-82357856D01*
X31612619Y-82357856D02*
X31660238Y-82453094D01*
X31660238Y-82453094D02*
X31707857Y-82500713D01*
X31707857Y-82500713D02*
X31803095Y-82548332D01*
X31803095Y-82548332D02*
X31898333Y-82548332D01*
X31898333Y-82548332D02*
X31993571Y-82500713D01*
X31993571Y-82500713D02*
X32041190Y-82453094D01*
X32041190Y-82453094D02*
X32088809Y-82357856D01*
X32088809Y-82357856D02*
X32088809Y-82024523D01*
X32707857Y-82786428D02*
X32707857Y-83548332D01*
X32612619Y-84262618D02*
X32612619Y-83786428D01*
X32612619Y-83786428D02*
X31612619Y-83786428D01*
X32088809Y-84595952D02*
X32088809Y-84929285D01*
X32612619Y-85072142D02*
X32612619Y-84595952D01*
X32612619Y-84595952D02*
X31612619Y-84595952D01*
X31612619Y-84595952D02*
X31612619Y-85072142D01*
X32612619Y-85500714D02*
X31612619Y-85500714D01*
X31612619Y-85500714D02*
X31612619Y-85738809D01*
X31612619Y-85738809D02*
X31660238Y-85881666D01*
X31660238Y-85881666D02*
X31755476Y-85976904D01*
X31755476Y-85976904D02*
X31850714Y-86024523D01*
X31850714Y-86024523D02*
X32041190Y-86072142D01*
X32041190Y-86072142D02*
X32184047Y-86072142D01*
X32184047Y-86072142D02*
X32374523Y-86024523D01*
X32374523Y-86024523D02*
X32469761Y-85976904D01*
X32469761Y-85976904D02*
X32565000Y-85881666D01*
X32565000Y-85881666D02*
X32612619Y-85738809D01*
X32612619Y-85738809D02*
X32612619Y-85500714D01*
X32707857Y-86262619D02*
X32707857Y-87024523D01*
X32088809Y-87262619D02*
X32088809Y-87595952D01*
X32612619Y-87738809D02*
X32612619Y-87262619D01*
X32612619Y-87262619D02*
X31612619Y-87262619D01*
X31612619Y-87262619D02*
X31612619Y-87738809D01*
X31612619Y-88072143D02*
X32612619Y-88738809D01*
X31612619Y-88738809D02*
X32612619Y-88072143D01*
X31612619Y-88976905D02*
X31612619Y-89548333D01*
X32612619Y-89262619D02*
X31612619Y-89262619D01*
X40377619Y-85036666D02*
X41091904Y-85036666D01*
X41091904Y-85036666D02*
X41234761Y-84989047D01*
X41234761Y-84989047D02*
X41330000Y-84893809D01*
X41330000Y-84893809D02*
X41377619Y-84750952D01*
X41377619Y-84750952D02*
X41377619Y-84655714D01*
X40710952Y-85941428D02*
X41377619Y-85941428D01*
X40330000Y-85703333D02*
X41044285Y-85465238D01*
X41044285Y-85465238D02*
X41044285Y-86084285D01*
%TO.C,J8*%
X124162619Y-90275600D02*
X123162619Y-90275600D01*
X123638809Y-90275600D02*
X123638809Y-90847028D01*
X124162619Y-90847028D02*
X123162619Y-90847028D01*
X124162619Y-91323219D02*
X123495952Y-91323219D01*
X123162619Y-91323219D02*
X123210238Y-91275600D01*
X123210238Y-91275600D02*
X123257857Y-91323219D01*
X123257857Y-91323219D02*
X123210238Y-91370838D01*
X123210238Y-91370838D02*
X123162619Y-91323219D01*
X123162619Y-91323219D02*
X123257857Y-91323219D01*
X123638809Y-92132742D02*
X123638809Y-91799409D01*
X124162619Y-91799409D02*
X123162619Y-91799409D01*
X123162619Y-91799409D02*
X123162619Y-92275599D01*
X124162619Y-92656552D02*
X123495952Y-92656552D01*
X123162619Y-92656552D02*
X123210238Y-92608933D01*
X123210238Y-92608933D02*
X123257857Y-92656552D01*
X123257857Y-92656552D02*
X123210238Y-92704171D01*
X123210238Y-92704171D02*
X123162619Y-92656552D01*
X123162619Y-92656552D02*
X123257857Y-92656552D01*
X123638809Y-94227980D02*
X123686428Y-94370837D01*
X123686428Y-94370837D02*
X123734047Y-94418456D01*
X123734047Y-94418456D02*
X123829285Y-94466075D01*
X123829285Y-94466075D02*
X123972142Y-94466075D01*
X123972142Y-94466075D02*
X124067380Y-94418456D01*
X124067380Y-94418456D02*
X124115000Y-94370837D01*
X124115000Y-94370837D02*
X124162619Y-94275599D01*
X124162619Y-94275599D02*
X124162619Y-93894647D01*
X124162619Y-93894647D02*
X123162619Y-93894647D01*
X123162619Y-93894647D02*
X123162619Y-94227980D01*
X123162619Y-94227980D02*
X123210238Y-94323218D01*
X123210238Y-94323218D02*
X123257857Y-94370837D01*
X123257857Y-94370837D02*
X123353095Y-94418456D01*
X123353095Y-94418456D02*
X123448333Y-94418456D01*
X123448333Y-94418456D02*
X123543571Y-94370837D01*
X123543571Y-94370837D02*
X123591190Y-94323218D01*
X123591190Y-94323218D02*
X123638809Y-94227980D01*
X123638809Y-94227980D02*
X123638809Y-93894647D01*
X124115000Y-95275599D02*
X124162619Y-95180361D01*
X124162619Y-95180361D02*
X124162619Y-94989885D01*
X124162619Y-94989885D02*
X124115000Y-94894647D01*
X124115000Y-94894647D02*
X124019761Y-94847028D01*
X124019761Y-94847028D02*
X123638809Y-94847028D01*
X123638809Y-94847028D02*
X123543571Y-94894647D01*
X123543571Y-94894647D02*
X123495952Y-94989885D01*
X123495952Y-94989885D02*
X123495952Y-95180361D01*
X123495952Y-95180361D02*
X123543571Y-95275599D01*
X123543571Y-95275599D02*
X123638809Y-95323218D01*
X123638809Y-95323218D02*
X123734047Y-95323218D01*
X123734047Y-95323218D02*
X123829285Y-94847028D01*
X124162619Y-95751790D02*
X123495952Y-95751790D01*
X123686428Y-95751790D02*
X123591190Y-95799409D01*
X123591190Y-95799409D02*
X123543571Y-95847028D01*
X123543571Y-95847028D02*
X123495952Y-95942266D01*
X123495952Y-95942266D02*
X123495952Y-96037504D01*
X124162619Y-96370838D02*
X123495952Y-96370838D01*
X123686428Y-96370838D02*
X123591190Y-96418457D01*
X123591190Y-96418457D02*
X123543571Y-96466076D01*
X123543571Y-96466076D02*
X123495952Y-96561314D01*
X123495952Y-96561314D02*
X123495952Y-96656552D01*
X123495952Y-96894648D02*
X124162619Y-97132743D01*
X123495952Y-97370838D02*
X124162619Y-97132743D01*
X124162619Y-97132743D02*
X124400714Y-97037505D01*
X124400714Y-97037505D02*
X124448333Y-96989886D01*
X124448333Y-96989886D02*
X124495952Y-96894648D01*
%TO.C,J15*%
X57532619Y-51430239D02*
X56532619Y-51430239D01*
X56532619Y-51430239D02*
X57246904Y-51763572D01*
X57246904Y-51763572D02*
X56532619Y-52096905D01*
X56532619Y-52096905D02*
X57532619Y-52096905D01*
X57532619Y-52573096D02*
X56532619Y-52573096D01*
X57532619Y-53049286D02*
X56532619Y-53049286D01*
X56532619Y-53049286D02*
X56532619Y-53287381D01*
X56532619Y-53287381D02*
X56580238Y-53430238D01*
X56580238Y-53430238D02*
X56675476Y-53525476D01*
X56675476Y-53525476D02*
X56770714Y-53573095D01*
X56770714Y-53573095D02*
X56961190Y-53620714D01*
X56961190Y-53620714D02*
X57104047Y-53620714D01*
X57104047Y-53620714D02*
X57294523Y-53573095D01*
X57294523Y-53573095D02*
X57389761Y-53525476D01*
X57389761Y-53525476D02*
X57485000Y-53430238D01*
X57485000Y-53430238D02*
X57532619Y-53287381D01*
X57532619Y-53287381D02*
X57532619Y-53049286D01*
X57532619Y-54049286D02*
X56532619Y-54049286D01*
X57532619Y-55287381D02*
X56532619Y-55287381D01*
X57532619Y-55763571D02*
X56532619Y-55763571D01*
X56532619Y-55763571D02*
X57532619Y-56334999D01*
X57532619Y-56334999D02*
X56532619Y-56334999D01*
X56485000Y-57525475D02*
X57770714Y-56668333D01*
X56532619Y-58049285D02*
X56532619Y-58239761D01*
X56532619Y-58239761D02*
X56580238Y-58334999D01*
X56580238Y-58334999D02*
X56675476Y-58430237D01*
X56675476Y-58430237D02*
X56865952Y-58477856D01*
X56865952Y-58477856D02*
X57199285Y-58477856D01*
X57199285Y-58477856D02*
X57389761Y-58430237D01*
X57389761Y-58430237D02*
X57485000Y-58334999D01*
X57485000Y-58334999D02*
X57532619Y-58239761D01*
X57532619Y-58239761D02*
X57532619Y-58049285D01*
X57532619Y-58049285D02*
X57485000Y-57954047D01*
X57485000Y-57954047D02*
X57389761Y-57858809D01*
X57389761Y-57858809D02*
X57199285Y-57811190D01*
X57199285Y-57811190D02*
X56865952Y-57811190D01*
X56865952Y-57811190D02*
X56675476Y-57858809D01*
X56675476Y-57858809D02*
X56580238Y-57954047D01*
X56580238Y-57954047D02*
X56532619Y-58049285D01*
X56532619Y-58906428D02*
X57342142Y-58906428D01*
X57342142Y-58906428D02*
X57437380Y-58954047D01*
X57437380Y-58954047D02*
X57485000Y-59001666D01*
X57485000Y-59001666D02*
X57532619Y-59096904D01*
X57532619Y-59096904D02*
X57532619Y-59287380D01*
X57532619Y-59287380D02*
X57485000Y-59382618D01*
X57485000Y-59382618D02*
X57437380Y-59430237D01*
X57437380Y-59430237D02*
X57342142Y-59477856D01*
X57342142Y-59477856D02*
X56532619Y-59477856D01*
X56532619Y-59811190D02*
X56532619Y-60382618D01*
X57532619Y-60096904D02*
X56532619Y-60096904D01*
X65152619Y-54580476D02*
X65866904Y-54580476D01*
X65866904Y-54580476D02*
X66009761Y-54532857D01*
X66009761Y-54532857D02*
X66105000Y-54437619D01*
X66105000Y-54437619D02*
X66152619Y-54294762D01*
X66152619Y-54294762D02*
X66152619Y-54199524D01*
X66152619Y-55580476D02*
X66152619Y-55009048D01*
X66152619Y-55294762D02*
X65152619Y-55294762D01*
X65152619Y-55294762D02*
X65295476Y-55199524D01*
X65295476Y-55199524D02*
X65390714Y-55104286D01*
X65390714Y-55104286D02*
X65438333Y-55009048D01*
X65152619Y-56485238D02*
X65152619Y-56009048D01*
X65152619Y-56009048D02*
X65628809Y-55961429D01*
X65628809Y-55961429D02*
X65581190Y-56009048D01*
X65581190Y-56009048D02*
X65533571Y-56104286D01*
X65533571Y-56104286D02*
X65533571Y-56342381D01*
X65533571Y-56342381D02*
X65581190Y-56437619D01*
X65581190Y-56437619D02*
X65628809Y-56485238D01*
X65628809Y-56485238D02*
X65724047Y-56532857D01*
X65724047Y-56532857D02*
X65962142Y-56532857D01*
X65962142Y-56532857D02*
X66057380Y-56485238D01*
X66057380Y-56485238D02*
X66105000Y-56437619D01*
X66105000Y-56437619D02*
X66152619Y-56342381D01*
X66152619Y-56342381D02*
X66152619Y-56104286D01*
X66152619Y-56104286D02*
X66105000Y-56009048D01*
X66105000Y-56009048D02*
X66057380Y-55961429D01*
D11*
%TO.C,J6*%
X114895000Y-98875000D02*
X114895000Y-89350000D01*
X114895000Y-89350000D02*
X114260000Y-88715000D01*
X114260000Y-88715000D02*
X112355000Y-88715000D01*
X112355000Y-98875000D02*
X114895000Y-98875000D01*
X112355000Y-88715000D02*
X112355000Y-98875000D01*
%TO.C,J14*%
X135140000Y-57495000D02*
X135140000Y-55675000D01*
X135780000Y-57495000D02*
X135140000Y-57495000D01*
X135780000Y-57495000D02*
X135780000Y-55675000D01*
X137680000Y-57495000D02*
X137680000Y-55675000D01*
X138320000Y-57495000D02*
X137680000Y-57495000D01*
X138320000Y-57495000D02*
X138320000Y-55675000D01*
X134190000Y-55675000D02*
X138635000Y-55675000D01*
X138635000Y-55675000D02*
X139270000Y-55040000D01*
X139270000Y-55040000D02*
X139270000Y-53135000D01*
X134190000Y-53135000D02*
X134190000Y-55675000D01*
X135140000Y-53135000D02*
X135140000Y-47135000D01*
X135780000Y-53135000D02*
X135780000Y-47135000D01*
X137680000Y-53135000D02*
X137680000Y-47135000D01*
X138320000Y-53135000D02*
X138320000Y-47135000D01*
X139270000Y-53135000D02*
X134190000Y-53135000D01*
X135780000Y-47135000D02*
X135140000Y-47135000D01*
X138320000Y-47135000D02*
X137680000Y-47135000D01*
D12*
%TO.C,U1*%
X77500000Y-59500000D02*
X128500000Y-59500000D01*
X127200000Y-59500000D02*
X128500000Y-58200000D01*
X128500000Y-59500000D02*
X128500000Y-38500000D01*
X77500000Y-38500000D02*
X77500000Y-59500000D01*
X128500000Y-38500000D02*
X77500000Y-38500000D01*
D11*
%TO.C,J4*%
X43935000Y-88190000D02*
X42115000Y-88190000D01*
X43935000Y-87550000D02*
X43935000Y-88190000D01*
X43935000Y-87550000D02*
X42115000Y-87550000D01*
X43935000Y-85650000D02*
X42115000Y-85650000D01*
X43935000Y-85010000D02*
X43935000Y-85650000D01*
X43935000Y-85010000D02*
X42115000Y-85010000D01*
X43935000Y-83110000D02*
X42115000Y-83110000D01*
X43935000Y-82470000D02*
X43935000Y-83110000D01*
X43935000Y-82470000D02*
X42115000Y-82470000D01*
X42115000Y-89140000D02*
X42115000Y-82155000D01*
X42115000Y-82155000D02*
X41480000Y-81520000D01*
X41480000Y-81520000D02*
X39575000Y-81520000D01*
X39575000Y-89140000D02*
X42115000Y-89140000D01*
X39575000Y-88190000D02*
X33575000Y-88190000D01*
X39575000Y-87550000D02*
X33575000Y-87550000D01*
X39575000Y-85650000D02*
X33575000Y-85650000D01*
X39575000Y-85010000D02*
X33575000Y-85010000D01*
X39575000Y-83110000D02*
X33575000Y-83110000D01*
X39575000Y-82470000D02*
X33575000Y-82470000D01*
X39575000Y-81520000D02*
X39575000Y-89140000D01*
X33575000Y-87550000D02*
X33575000Y-88190000D01*
X33575000Y-85010000D02*
X33575000Y-85650000D01*
X33575000Y-82470000D02*
X33575000Y-83110000D01*
%TO.C,J8*%
X158730000Y-122960600D02*
X151110000Y-122960600D01*
X158730000Y-117880600D02*
X158730000Y-122960600D01*
X157825000Y-81195600D02*
X152745000Y-81195600D01*
X157825000Y-74575600D02*
X157825000Y-81195600D01*
X156825000Y-73575600D02*
X157825000Y-74575600D01*
X152745000Y-81195600D02*
X152745000Y-73575600D01*
X152745000Y-73575600D02*
X156825000Y-73575600D01*
X152110000Y-117880600D02*
X158730000Y-117880600D01*
X151110000Y-122960600D02*
X151110000Y-118880600D01*
X151110000Y-118880600D02*
X152110000Y-117880600D01*
X121520000Y-117905600D02*
X116440000Y-117905600D01*
X121520000Y-68105600D02*
X121520000Y-117905600D01*
X120520000Y-67105600D02*
X121520000Y-68105600D01*
X116440000Y-117905600D02*
X116440000Y-67105600D01*
X116440000Y-67105600D02*
X120520000Y-67105600D01*
%TO.C,J15*%
X71320000Y-58250000D02*
X66960000Y-58250000D01*
X71320000Y-57610000D02*
X71320000Y-58250000D01*
X71320000Y-57610000D02*
X66960000Y-57610000D01*
X71320000Y-55710000D02*
X66960000Y-55710000D01*
X71320000Y-55070000D02*
X71320000Y-55710000D01*
X71320000Y-55070000D02*
X66960000Y-55070000D01*
X71320000Y-53170000D02*
X66960000Y-53170000D01*
X71320000Y-52530000D02*
X71320000Y-53170000D01*
X71320000Y-52530000D02*
X66960000Y-52530000D01*
X66960000Y-59200000D02*
X66960000Y-52215000D01*
X66960000Y-52215000D02*
X66325000Y-51580000D01*
X66325000Y-51580000D02*
X64420000Y-51580000D01*
X64420000Y-59200000D02*
X66960000Y-59200000D01*
X64420000Y-58250000D02*
X58420000Y-58250000D01*
X64420000Y-57610000D02*
X58420000Y-57610000D01*
X64420000Y-55710000D02*
X58420000Y-55710000D01*
X64420000Y-55070000D02*
X58420000Y-55070000D01*
X64420000Y-53170000D02*
X58420000Y-53170000D01*
X64420000Y-52530000D02*
X58420000Y-52530000D01*
X64420000Y-51580000D02*
X64420000Y-59200000D01*
X58420000Y-57610000D02*
X58420000Y-58250000D01*
X58420000Y-55070000D02*
X58420000Y-55710000D01*
X58420000Y-52530000D02*
X58420000Y-53170000D01*
%TD*%
M02*
