%TF.GenerationSoftware,KiCad,Pcbnew,7.0.1.1-36-gbcf78dbe24-dirty-deb11*%
%TF.CreationDate,2023-03-27T17:47:20+00:00*%
%TF.ProjectId,pedalboard-hw,70656461-6c62-46f6-9172-642d68772e6b,0.0.1*%
%TF.SameCoordinates,Original*%
%TF.FileFunction,Other,User*%
%FSLAX46Y46*%
G04 Gerber Fmt 4.6, Leading zero omitted, Abs format (unit mm)*
G04 Created by KiCad (PCBNEW 7.0.1.1-36-gbcf78dbe24-dirty-deb11) date 2023-03-27 17:47:20*
%MOMM*%
%LPD*%
G01*
G04 APERTURE LIST*
%ADD10C,0.050000*%
G04 APERTURE END LIST*
D10*
%TO.C,H1*%
X170620000Y-121500000D02*
G75*
G03*
X170620000Y-121500000I-2600000J0D01*
G01*
%TO.C,C5*%
X147850000Y-45650000D02*
X145750000Y-45650000D01*
X145750000Y-45650000D02*
X145750000Y-50250000D01*
X147850000Y-50250000D02*
X147850000Y-45650000D01*
X145750000Y-50250000D02*
X147850000Y-50250000D01*
%TO.C,J16*%
X122250000Y-32450000D02*
X122250000Y-19750000D01*
X122250000Y-19750000D02*
X119250000Y-19750000D01*
X119250000Y-19750000D02*
X119250000Y-17950000D01*
X119250000Y-17950000D02*
X112750000Y-17950000D01*
X112750000Y-19750000D02*
X109750000Y-19750000D01*
X112750000Y-17950000D02*
X112750000Y-19750000D01*
X109750000Y-32450000D02*
X122250000Y-32450000D01*
X109750000Y-20000000D02*
X109750000Y-32450000D01*
X109750000Y-19750000D02*
X109750000Y-20000000D01*
%TO.C,H7*%
X135600000Y-23000000D02*
G75*
G03*
X135600000Y-23000000I-2600000J0D01*
G01*
%TO.C,J12*%
X41730000Y-92970000D02*
X41730000Y-113200000D01*
X41730000Y-92970000D02*
X14200000Y-92970000D01*
X14200000Y-113200000D02*
X41730000Y-113200000D01*
X14200000Y-92970000D02*
X14200000Y-113200000D01*
%TO.C,C16*%
X158850000Y-42750000D02*
X158850000Y-46450000D01*
X158850000Y-46450000D02*
X165950000Y-46450000D01*
X165950000Y-42750000D02*
X158850000Y-42750000D01*
X165950000Y-46450000D02*
X165950000Y-42750000D01*
%TO.C,J13*%
X184400000Y-31800000D02*
X184400000Y-16300000D01*
X184400000Y-16300000D02*
X174400000Y-16300000D01*
X174400000Y-31800000D02*
X184400000Y-31800000D01*
X174400000Y-29900000D02*
X174400000Y-31800000D01*
X174400000Y-16300000D02*
X174400000Y-24900000D01*
X173200000Y-29900000D02*
X174400000Y-29900000D01*
X173200000Y-29900000D02*
X173200000Y-24900000D01*
X173200000Y-24900000D02*
X174400000Y-24900000D01*
%TO.C,L5*%
X132300000Y-45770000D02*
X129100000Y-45770000D01*
X129100000Y-45770000D02*
X129100000Y-58030000D01*
X132300000Y-58030000D02*
X132300000Y-45770000D01*
X129100000Y-58030000D02*
X132300000Y-58030000D01*
%TO.C,D3*%
X114250000Y-44750000D02*
X114250000Y-51250000D01*
X114250000Y-51250000D02*
X120750000Y-51250000D01*
X120750000Y-44750000D02*
X114250000Y-44750000D01*
X120750000Y-51250000D02*
X120750000Y-44750000D01*
%TO.C,J11*%
X41765000Y-72770000D02*
X41765000Y-93000000D01*
X41765000Y-72770000D02*
X14235000Y-72770000D01*
X14235000Y-93000000D02*
X41765000Y-93000000D01*
X14235000Y-72770000D02*
X14235000Y-93000000D01*
%TO.C,PS1*%
X147750000Y-68730000D02*
X121850000Y-68730000D01*
X121850000Y-68730000D02*
X121850000Y-94630000D01*
X147750000Y-94630000D02*
X147750000Y-68730000D01*
X121850000Y-94630000D02*
X147750000Y-94630000D01*
%TO.C,J10*%
X168270000Y-113225000D02*
X168270000Y-92995000D01*
X168270000Y-113225000D02*
X195800000Y-113225000D01*
X195800000Y-92995000D02*
X168270000Y-92995000D01*
X195800000Y-113225000D02*
X195800000Y-92995000D01*
%TO.C,H5*%
X44600000Y-63500000D02*
G75*
G03*
X44600000Y-63500000I-2600000J0D01*
G01*
%TO.C,D4*%
X139250000Y-44750000D02*
X139250000Y-51250000D01*
X139250000Y-51250000D02*
X145750000Y-51250000D01*
X145750000Y-44750000D02*
X139250000Y-44750000D01*
X145750000Y-51250000D02*
X145750000Y-44750000D01*
%TO.C,C10*%
X110360000Y-103880000D02*
X108260000Y-103880000D01*
X108260000Y-103880000D02*
X108260000Y-108480000D01*
X110360000Y-108480000D02*
X110360000Y-103880000D01*
X108260000Y-108480000D02*
X110360000Y-108480000D01*
%TO.C,D7*%
X101750000Y-102750000D02*
X101750000Y-109250000D01*
X101750000Y-109250000D02*
X108250000Y-109250000D01*
X108250000Y-102750000D02*
X101750000Y-102750000D01*
X108250000Y-109250000D02*
X108250000Y-102750000D01*
%TO.C,H3*%
X121580000Y-121520000D02*
G75*
G03*
X121580000Y-121520000I-2600000J0D01*
G01*
%TO.C,J7*%
X47790000Y-108120000D02*
X99640000Y-108120000D01*
X99640000Y-108120000D02*
X99640000Y-101970000D01*
X47790000Y-101970000D02*
X47790000Y-108120000D01*
X99640000Y-101970000D02*
X47790000Y-101970000D01*
%TO.C,C11*%
X160570000Y-108350000D02*
X162670000Y-108350000D01*
X162670000Y-108350000D02*
X162670000Y-103750000D01*
X160570000Y-103750000D02*
X160570000Y-108350000D01*
X162670000Y-103750000D02*
X160570000Y-103750000D01*
%TO.C,C9*%
X43105000Y-102750000D02*
X45205000Y-102750000D01*
X45205000Y-102750000D02*
X45205000Y-98150000D01*
X43105000Y-98150000D02*
X43105000Y-102750000D01*
X45205000Y-98150000D02*
X43105000Y-98150000D01*
%TO.C,SW2*%
X97000000Y-60750000D02*
X97000000Y-73250000D01*
X97000000Y-73250000D02*
X113000000Y-73250000D01*
X113000000Y-60750000D02*
X97000000Y-60750000D01*
X113000000Y-73250000D02*
X113000000Y-60750000D01*
%TO.C,D9*%
X40750000Y-75750000D02*
X40750000Y-82250000D01*
X40750000Y-82250000D02*
X47250000Y-82250000D01*
X47250000Y-75750000D02*
X40750000Y-75750000D01*
X47250000Y-82250000D02*
X47250000Y-75750000D01*
%TO.C,R5*%
X73075000Y-54155000D02*
X76075000Y-54155000D01*
X76075000Y-54155000D02*
X76075000Y-41895000D01*
X73075000Y-41895000D02*
X73075000Y-54155000D01*
X76075000Y-41895000D02*
X73075000Y-41895000D01*
%TO.C,U2*%
X70925000Y-67350000D02*
X70925000Y-59200000D01*
X70925000Y-59200000D02*
X60375000Y-59200000D01*
X60375000Y-67350000D02*
X70925000Y-67350000D01*
X60375000Y-59200000D02*
X60375000Y-67350000D01*
%TO.C,H6*%
X79600000Y-23000000D02*
G75*
G03*
X79600000Y-23000000I-2600000J0D01*
G01*
%TO.C,L6*%
X168150000Y-52800000D02*
G75*
G03*
X168150000Y-52800000I-6250000J0D01*
G01*
%TO.C,J3*%
X168285000Y-52030000D02*
X168285000Y-31800000D01*
X168285000Y-52030000D02*
X195815000Y-52030000D01*
X195815000Y-31800000D02*
X168285000Y-31800000D01*
X195815000Y-52030000D02*
X195815000Y-31800000D01*
%TO.C,C1*%
X62425000Y-42650000D02*
X62425000Y-44750000D01*
X62425000Y-44750000D02*
X67025000Y-44750000D01*
X67025000Y-42650000D02*
X62425000Y-42650000D01*
X67025000Y-44750000D02*
X67025000Y-42650000D01*
%TO.C,D2*%
X89250000Y-44750000D02*
X89250000Y-51250000D01*
X89250000Y-51250000D02*
X95750000Y-51250000D01*
X95750000Y-44750000D02*
X89250000Y-44750000D01*
X95750000Y-51250000D02*
X95750000Y-44750000D01*
%TO.C,SW7*%
X58750000Y-26300000D02*
X58750000Y-41700000D01*
X58750000Y-26300000D02*
X76250000Y-26300000D01*
X76250000Y-41700000D02*
X58750000Y-41700000D01*
X76250000Y-41700000D02*
X76250000Y-26300000D01*
%TO.C,C2*%
X67700000Y-42625000D02*
X67700000Y-44725000D01*
X67700000Y-44725000D02*
X72300000Y-44725000D01*
X72300000Y-42625000D02*
X67700000Y-42625000D01*
X72300000Y-44725000D02*
X72300000Y-42625000D01*
%TO.C,C8*%
X163520000Y-82250000D02*
X163520000Y-84350000D01*
X163520000Y-84350000D02*
X168120000Y-84350000D01*
X168120000Y-82250000D02*
X163520000Y-82250000D01*
X168120000Y-84350000D02*
X168120000Y-82250000D01*
%TO.C,C14*%
X149350000Y-63432323D02*
G75*
G03*
X149350000Y-63432323I-5250000J0D01*
G01*
%TO.C,R1*%
X79330000Y-70480000D02*
X79330000Y-67480000D01*
X79330000Y-67480000D02*
X67070000Y-67480000D01*
X67070000Y-70480000D02*
X79330000Y-70480000D01*
X67070000Y-67480000D02*
X67070000Y-70480000D01*
%TO.C,H2*%
X170500000Y-63450000D02*
G75*
G03*
X170500000Y-63450000I-2600000J0D01*
G01*
%TO.C,C15*%
X138350000Y-63400000D02*
G75*
G03*
X138350000Y-63400000I-5250000J0D01*
G01*
%TO.C,D1*%
X64250000Y-44750000D02*
X64250000Y-51250000D01*
X64250000Y-51250000D02*
X70750000Y-51250000D01*
X70750000Y-44750000D02*
X64250000Y-44750000D01*
X70750000Y-51250000D02*
X70750000Y-44750000D01*
%TO.C,C3*%
X90200000Y-51350000D02*
X90200000Y-53450000D01*
X90200000Y-53450000D02*
X94800000Y-53450000D01*
X94800000Y-51350000D02*
X90200000Y-51350000D01*
X94800000Y-53450000D02*
X94800000Y-51350000D01*
%TO.C,H9*%
X44600000Y-121500000D02*
G75*
G03*
X44600000Y-121500000I-2600000J0D01*
G01*
%TO.C,J9*%
X168270000Y-93010000D02*
X168270000Y-72780000D01*
X168270000Y-93010000D02*
X195800000Y-93010000D01*
X195800000Y-72780000D02*
X168270000Y-72780000D01*
X195800000Y-93010000D02*
X195800000Y-72780000D01*
%TO.C,SW1*%
X22000000Y-60750000D02*
X22000000Y-73250000D01*
X22000000Y-73250000D02*
X38000000Y-73250000D01*
X38000000Y-60750000D02*
X22000000Y-60750000D01*
X38000000Y-73250000D02*
X38000000Y-60750000D01*
%TO.C,C12*%
X128600000Y-42420000D02*
X128600000Y-44520000D01*
X128600000Y-44520000D02*
X133200000Y-44520000D01*
X133200000Y-42420000D02*
X128600000Y-42420000D01*
X133200000Y-44520000D02*
X133200000Y-42420000D01*
%TO.C,R3*%
X46645000Y-61550000D02*
X46645000Y-64550000D01*
X46645000Y-64550000D02*
X58905000Y-64550000D01*
X58905000Y-61550000D02*
X46645000Y-61550000D01*
X58905000Y-64550000D02*
X58905000Y-61550000D01*
%TO.C,C13*%
X167582323Y-37500000D02*
G75*
G03*
X167582323Y-37500000I-5250000J0D01*
G01*
%TO.C,D5*%
X162750000Y-75750000D02*
X162750000Y-82250000D01*
X162750000Y-82250000D02*
X169250000Y-82250000D01*
X169250000Y-75750000D02*
X162750000Y-75750000D01*
X169250000Y-82250000D02*
X169250000Y-75750000D01*
%TO.C,R4*%
X80140000Y-67840000D02*
X80140000Y-70840000D01*
X80140000Y-70840000D02*
X92400000Y-70840000D01*
X92400000Y-67840000D02*
X80140000Y-67840000D01*
X92400000Y-70840000D02*
X92400000Y-67840000D01*
%TO.C,D10*%
X40750000Y-102750000D02*
X40750000Y-109250000D01*
X40750000Y-109250000D02*
X47250000Y-109250000D01*
X47250000Y-102750000D02*
X40750000Y-102750000D01*
X47250000Y-109250000D02*
X47250000Y-102750000D01*
%TO.C,L1*%
X78200000Y-54220000D02*
X75000000Y-54220000D01*
X75000000Y-54220000D02*
X75000000Y-66480000D01*
X78200000Y-66480000D02*
X78200000Y-54220000D01*
X75000000Y-66480000D02*
X78200000Y-66480000D01*
%TO.C,C18*%
X148000000Y-58150000D02*
X148000000Y-53250000D01*
X148000000Y-53250000D02*
X140000000Y-53250000D01*
X140000000Y-58150000D02*
X148000000Y-58150000D01*
X140000000Y-53250000D02*
X140000000Y-58150000D01*
%TO.C,D11*%
X72450000Y-66825000D02*
X74950000Y-66825000D01*
X74950000Y-66825000D02*
X74950000Y-57105000D01*
X72450000Y-57105000D02*
X72450000Y-66825000D01*
X74950000Y-57105000D02*
X72450000Y-57105000D01*
%TO.C,C4*%
X115100000Y-51250000D02*
X115100000Y-53350000D01*
X115100000Y-53350000D02*
X119700000Y-53350000D01*
X119700000Y-51250000D02*
X115100000Y-51250000D01*
X119700000Y-53350000D02*
X119700000Y-51250000D01*
%TO.C,L2*%
X92330000Y-64175000D02*
X92330000Y-60975000D01*
X92330000Y-60975000D02*
X80070000Y-60975000D01*
X80070000Y-64175000D02*
X92330000Y-64175000D01*
X80070000Y-60975000D02*
X80070000Y-64175000D01*
%TO.C,F1*%
X166050000Y-29700000D02*
X166050000Y-25700000D01*
X166050000Y-25700000D02*
X158550000Y-25700000D01*
X158550000Y-29700000D02*
X166050000Y-29700000D01*
X158550000Y-25700000D02*
X158550000Y-29700000D01*
%TO.C,H4*%
X121500000Y-63565600D02*
G75*
G03*
X121500000Y-63565600I-2600000J0D01*
G01*
%TO.C,C17*%
X153550000Y-56150000D02*
X149850000Y-56150000D01*
X149850000Y-56150000D02*
X149850000Y-63250000D01*
X153550000Y-63250000D02*
X153550000Y-56150000D01*
X149850000Y-63250000D02*
X153550000Y-63250000D01*
%TO.C,D6*%
X162750000Y-102750000D02*
X162750000Y-109250000D01*
X162750000Y-109250000D02*
X169250000Y-109250000D01*
X169250000Y-102750000D02*
X162750000Y-102750000D01*
X169250000Y-109250000D02*
X169250000Y-102750000D01*
%TO.C,SW6*%
X172000000Y-112750000D02*
X172000000Y-125250000D01*
X172000000Y-125250000D02*
X188000000Y-125250000D01*
X188000000Y-112750000D02*
X172000000Y-112750000D01*
X188000000Y-125250000D02*
X188000000Y-112750000D01*
%TO.C,SW3*%
X172000000Y-60750000D02*
X172000000Y-73250000D01*
X172000000Y-73250000D02*
X188000000Y-73250000D01*
X188000000Y-60750000D02*
X172000000Y-60750000D01*
X188000000Y-73250000D02*
X188000000Y-60750000D01*
%TO.C,C7*%
X101720000Y-80100000D02*
X101720000Y-78000000D01*
X101720000Y-78000000D02*
X97120000Y-78000000D01*
X97120000Y-80100000D02*
X101720000Y-80100000D01*
X97120000Y-78000000D02*
X97120000Y-80100000D01*
%TO.C,SW4*%
X22000000Y-112750000D02*
X22000000Y-125250000D01*
X22000000Y-125250000D02*
X38000000Y-125250000D01*
X38000000Y-112750000D02*
X22000000Y-112750000D01*
X38000000Y-125250000D02*
X38000000Y-112750000D01*
%TO.C,H8*%
X170600000Y-23000000D02*
G75*
G03*
X170600000Y-23000000I-2600000J0D01*
G01*
%TO.C,L4*%
X92400000Y-67580000D02*
X92400000Y-64380000D01*
X92400000Y-64380000D02*
X80140000Y-64380000D01*
X80140000Y-67580000D02*
X92400000Y-67580000D01*
X80140000Y-64380000D02*
X80140000Y-67580000D01*
%TO.C,SW8*%
X133750000Y-26300000D02*
X133750000Y-41700000D01*
X133750000Y-26300000D02*
X151250000Y-26300000D01*
X151250000Y-41700000D02*
X133750000Y-41700000D01*
X151250000Y-41700000D02*
X151250000Y-26300000D01*
%TO.C,R2*%
X46645000Y-64550000D02*
X46645000Y-67550000D01*
X46645000Y-67550000D02*
X58905000Y-67550000D01*
X58905000Y-64550000D02*
X46645000Y-64550000D01*
X58905000Y-67550000D02*
X58905000Y-64550000D01*
%TO.C,SW5*%
X97000000Y-112750000D02*
X97000000Y-125250000D01*
X97000000Y-125250000D02*
X113000000Y-125250000D01*
X113000000Y-112750000D02*
X97000000Y-112750000D01*
X113000000Y-125250000D02*
X113000000Y-112750000D01*
%TO.C,C19*%
X153750000Y-66200000D02*
X158650000Y-66200000D01*
X158650000Y-66200000D02*
X158650000Y-58200000D01*
X153750000Y-58200000D02*
X153750000Y-66200000D01*
X158650000Y-58200000D02*
X153750000Y-58200000D01*
%TO.C,C6*%
X45405000Y-71150000D02*
X43305000Y-71150000D01*
X43305000Y-71150000D02*
X43305000Y-75750000D01*
X45405000Y-75750000D02*
X45405000Y-71150000D01*
X43305000Y-75750000D02*
X45405000Y-75750000D01*
%TO.C,D8*%
X101750000Y-75750000D02*
X101750000Y-82250000D01*
X101750000Y-82250000D02*
X108250000Y-82250000D01*
X108250000Y-75750000D02*
X101750000Y-75750000D01*
X108250000Y-82250000D02*
X108250000Y-75750000D01*
%TO.C,L3*%
X61100000Y-39395000D02*
X57900000Y-39395000D01*
X57900000Y-39395000D02*
X57900000Y-51655000D01*
X61100000Y-51655000D02*
X61100000Y-39395000D01*
X57900000Y-51655000D02*
X61100000Y-51655000D01*
%TO.C,J17*%
X100250000Y-32450000D02*
X100250000Y-19750000D01*
X100250000Y-19750000D02*
X97250000Y-19750000D01*
X97250000Y-19750000D02*
X97250000Y-17950000D01*
X97250000Y-17950000D02*
X90750000Y-17950000D01*
X90750000Y-19750000D02*
X87750000Y-19750000D01*
X90750000Y-17950000D02*
X90750000Y-19750000D01*
X87750000Y-32450000D02*
X100250000Y-32450000D01*
X87750000Y-20000000D02*
X87750000Y-32450000D01*
X87750000Y-19750000D02*
X87750000Y-20000000D01*
%TD*%
M02*
