%TF.GenerationSoftware,KiCad,Pcbnew,7.0.1.1-36-gbcf78dbe24-dirty-deb11*%
%TF.CreationDate,2023-04-16T11:04:27+00:00*%
%TF.ProjectId,pedalboard-hw,70656461-6c62-46f6-9172-642d68772e6b,2.0.0-RC1*%
%TF.SameCoordinates,Original*%
%TF.FileFunction,Other,User*%
%FSLAX46Y46*%
G04 Gerber Fmt 4.6, Leading zero omitted, Abs format (unit mm)*
G04 Created by KiCad (PCBNEW 7.0.1.1-36-gbcf78dbe24-dirty-deb11) date 2023-04-16 11:04:27*
%MOMM*%
%LPD*%
G01*
G04 APERTURE LIST*
%ADD10C,0.050000*%
%ADD11C,0.120000*%
G04 APERTURE END LIST*
D10*
%TO.C,J7*%
X47790000Y-108120000D02*
X99640000Y-108120000D01*
X99640000Y-108120000D02*
X99640000Y-101970000D01*
X47790000Y-101970000D02*
X47790000Y-108120000D01*
X99640000Y-101970000D02*
X47790000Y-101970000D01*
%TO.C,J6*%
X111825000Y-88380000D02*
X115425000Y-88380000D01*
X111825000Y-99580000D02*
X111825000Y-88380000D01*
X115425000Y-88380000D02*
X115425000Y-99580000D01*
X115425000Y-99580000D02*
X111825000Y-99580000D01*
%TO.C,J14*%
X133650000Y-58975000D02*
X133650000Y-46625000D01*
X139800000Y-58975000D02*
X133650000Y-58975000D01*
X133650000Y-46625000D02*
X139800000Y-46625000D01*
X139800000Y-46625000D02*
X139800000Y-58975000D01*
%TO.C,J5*%
X127967078Y-50006600D02*
G75*
G03*
X127967078Y-50006600I-965200J0D01*
G01*
X127965534Y-48000000D02*
G75*
G03*
X127965534Y-48000000I-965534J0D01*
G01*
D11*
%TO.C,U1*%
X77000000Y-60000000D02*
X129000000Y-60000000D01*
X129000000Y-60000000D02*
X129000000Y-38000000D01*
X77000000Y-38000000D02*
X77000000Y-60000000D01*
X129000000Y-38000000D02*
X77000000Y-38000000D01*
D10*
%TO.C,J4*%
X49015000Y-84762600D02*
X49015000Y-72412600D01*
X57665000Y-84762600D02*
X49015000Y-84762600D01*
X49015000Y-72412600D02*
X57665000Y-72412600D01*
X57665000Y-72412600D02*
X57665000Y-84762600D01*
%TO.C,J8*%
X159230000Y-123490600D02*
X150580000Y-123490600D01*
X159230000Y-117390600D02*
X159230000Y-123490600D01*
X158315000Y-81695600D02*
X152215000Y-81695600D01*
X158315000Y-73045600D02*
X158315000Y-81695600D01*
X152215000Y-81695600D02*
X152215000Y-73045600D01*
X152215000Y-73045600D02*
X158315000Y-73045600D01*
X150580000Y-123490600D02*
X150580000Y-117390600D01*
X150580000Y-117390600D02*
X159230000Y-117390600D01*
X122010000Y-118375600D02*
X115910000Y-118375600D01*
X122010000Y-66575600D02*
X122010000Y-118375600D01*
X115910000Y-118375600D02*
X115910000Y-66575600D01*
X115910000Y-66575600D02*
X122010000Y-66575600D01*
%TO.C,J15*%
X72800000Y-59700000D02*
X57900000Y-59700000D01*
X72800000Y-51050000D02*
X72800000Y-59700000D01*
X57900000Y-59700000D02*
X57900000Y-51050000D01*
X57900000Y-51050000D02*
X72800000Y-51050000D01*
%TD*%
M02*
