%TF.GenerationSoftware,KiCad,Pcbnew,7.0.5.1-1-g8f565ef7f0-dirty-deb11*%
%TF.CreationDate,2023-06-12T14:28:20+00:00*%
%TF.ProjectId,pedalboard-hw,70656461-6c62-46f6-9172-642d68772e6b,2.0.0*%
%TF.SameCoordinates,Original*%
%TF.FileFunction,Other,Comment*%
%FSLAX46Y46*%
G04 Gerber Fmt 4.6, Leading zero omitted, Abs format (unit mm)*
G04 Created by KiCad (PCBNEW 7.0.5.1-1-g8f565ef7f0-dirty-deb11) date 2023-06-12 14:28:20*
%MOMM*%
%LPD*%
G01*
G04 APERTURE LIST*
%ADD10C,0.150000*%
G04 APERTURE END LIST*
D10*
%TO.C,U1*%
X78769998Y-36936868D02*
X78689185Y-36963805D01*
X78689185Y-36963805D02*
X78608373Y-37044618D01*
X78608373Y-37044618D02*
X78554498Y-37152367D01*
X78554498Y-37152367D02*
X78554498Y-37260117D01*
X78554498Y-37260117D02*
X78581436Y-37340929D01*
X78581436Y-37340929D02*
X78662248Y-37475616D01*
X78662248Y-37475616D02*
X78743060Y-37556428D01*
X78743060Y-37556428D02*
X78877747Y-37637241D01*
X78877747Y-37637241D02*
X78958560Y-37664178D01*
X78958560Y-37664178D02*
X79066309Y-37664178D01*
X79066309Y-37664178D02*
X79174059Y-37610303D01*
X79174059Y-37610303D02*
X79227934Y-37556428D01*
X79227934Y-37556428D02*
X79281808Y-37448679D01*
X79281808Y-37448679D02*
X79281808Y-37394804D01*
X79281808Y-37394804D02*
X79093247Y-37206242D01*
X79093247Y-37206242D02*
X78985497Y-37313992D01*
X79578120Y-37206242D02*
X79012434Y-36640557D01*
X79012434Y-36640557D02*
X79227934Y-36425057D01*
X79227934Y-36425057D02*
X79308746Y-36398120D01*
X79308746Y-36398120D02*
X79362621Y-36398120D01*
X79362621Y-36398120D02*
X79443433Y-36425057D01*
X79443433Y-36425057D02*
X79524245Y-36505870D01*
X79524245Y-36505870D02*
X79551182Y-36586682D01*
X79551182Y-36586682D02*
X79551182Y-36640557D01*
X79551182Y-36640557D02*
X79524245Y-36721369D01*
X79524245Y-36721369D02*
X79308746Y-36936868D01*
X80440117Y-36344245D02*
X80116868Y-36667494D01*
X80278492Y-36505870D02*
X79712807Y-35940184D01*
X79712807Y-35940184D02*
X79739744Y-36074871D01*
X79739744Y-36074871D02*
X79739744Y-36182621D01*
X79739744Y-36182621D02*
X79712807Y-36263433D01*
X80359305Y-35293686D02*
X80251555Y-35401436D01*
X80251555Y-35401436D02*
X80224618Y-35482248D01*
X80224618Y-35482248D02*
X80224618Y-35536123D01*
X80224618Y-35536123D02*
X80251555Y-35670810D01*
X80251555Y-35670810D02*
X80332367Y-35805497D01*
X80332367Y-35805497D02*
X80547866Y-36020996D01*
X80547866Y-36020996D02*
X80628679Y-36047934D01*
X80628679Y-36047934D02*
X80682553Y-36047934D01*
X80682553Y-36047934D02*
X80763366Y-36020996D01*
X80763366Y-36020996D02*
X80871115Y-35913247D01*
X80871115Y-35913247D02*
X80898053Y-35832434D01*
X80898053Y-35832434D02*
X80898053Y-35778560D01*
X80898053Y-35778560D02*
X80871115Y-35697747D01*
X80871115Y-35697747D02*
X80736428Y-35563060D01*
X80736428Y-35563060D02*
X80655616Y-35536123D01*
X80655616Y-35536123D02*
X80601741Y-35536123D01*
X80601741Y-35536123D02*
X80520929Y-35563060D01*
X80520929Y-35563060D02*
X80413179Y-35670810D01*
X80413179Y-35670810D02*
X80386242Y-35751622D01*
X80386242Y-35751622D02*
X80386242Y-35805497D01*
X80386242Y-35805497D02*
X80413179Y-35886309D01*
X121036435Y-61494431D02*
X120955623Y-61521368D01*
X120955623Y-61521368D02*
X120874811Y-61602180D01*
X120874811Y-61602180D02*
X120820936Y-61709930D01*
X120820936Y-61709930D02*
X120820936Y-61817680D01*
X120820936Y-61817680D02*
X120847873Y-61898492D01*
X120847873Y-61898492D02*
X120928685Y-62033179D01*
X120928685Y-62033179D02*
X121009498Y-62113991D01*
X121009498Y-62113991D02*
X121144185Y-62194803D01*
X121144185Y-62194803D02*
X121224997Y-62221741D01*
X121224997Y-62221741D02*
X121332746Y-62221741D01*
X121332746Y-62221741D02*
X121440496Y-62167866D01*
X121440496Y-62167866D02*
X121494371Y-62113991D01*
X121494371Y-62113991D02*
X121548246Y-62006241D01*
X121548246Y-62006241D02*
X121548246Y-61952367D01*
X121548246Y-61952367D02*
X121359684Y-61763805D01*
X121359684Y-61763805D02*
X121251934Y-61871554D01*
X121844557Y-61763805D02*
X121278872Y-61198119D01*
X121278872Y-61198119D02*
X122167806Y-61440556D01*
X122167806Y-61440556D02*
X121602120Y-60874871D01*
X122437180Y-61171182D02*
X121871494Y-60605497D01*
X121871494Y-60605497D02*
X122006181Y-60470810D01*
X122006181Y-60470810D02*
X122113931Y-60416935D01*
X122113931Y-60416935D02*
X122221680Y-60416935D01*
X122221680Y-60416935D02*
X122302493Y-60443872D01*
X122302493Y-60443872D02*
X122437180Y-60524685D01*
X122437180Y-60524685D02*
X122517992Y-60605497D01*
X122517992Y-60605497D02*
X122598804Y-60740184D01*
X122598804Y-60740184D02*
X122625741Y-60820996D01*
X122625741Y-60820996D02*
X122625741Y-60928746D01*
X122625741Y-60928746D02*
X122571867Y-61036495D01*
X122571867Y-61036495D02*
X122437180Y-61171182D01*
X82936435Y-61494431D02*
X82855623Y-61521368D01*
X82855623Y-61521368D02*
X82774811Y-61602180D01*
X82774811Y-61602180D02*
X82720936Y-61709930D01*
X82720936Y-61709930D02*
X82720936Y-61817680D01*
X82720936Y-61817680D02*
X82747873Y-61898492D01*
X82747873Y-61898492D02*
X82828685Y-62033179D01*
X82828685Y-62033179D02*
X82909498Y-62113991D01*
X82909498Y-62113991D02*
X83044185Y-62194803D01*
X83044185Y-62194803D02*
X83124997Y-62221741D01*
X83124997Y-62221741D02*
X83232746Y-62221741D01*
X83232746Y-62221741D02*
X83340496Y-62167866D01*
X83340496Y-62167866D02*
X83394371Y-62113991D01*
X83394371Y-62113991D02*
X83448246Y-62006241D01*
X83448246Y-62006241D02*
X83448246Y-61952367D01*
X83448246Y-61952367D02*
X83259684Y-61763805D01*
X83259684Y-61763805D02*
X83151934Y-61871554D01*
X83744557Y-61763805D02*
X83178872Y-61198119D01*
X83178872Y-61198119D02*
X84067806Y-61440556D01*
X84067806Y-61440556D02*
X83502120Y-60874871D01*
X84337180Y-61171182D02*
X83771494Y-60605497D01*
X83771494Y-60605497D02*
X83906181Y-60470810D01*
X83906181Y-60470810D02*
X84013931Y-60416935D01*
X84013931Y-60416935D02*
X84121680Y-60416935D01*
X84121680Y-60416935D02*
X84202493Y-60443872D01*
X84202493Y-60443872D02*
X84337180Y-60524685D01*
X84337180Y-60524685D02*
X84417992Y-60605497D01*
X84417992Y-60605497D02*
X84498804Y-60740184D01*
X84498804Y-60740184D02*
X84525741Y-60820996D01*
X84525741Y-60820996D02*
X84525741Y-60928746D01*
X84525741Y-60928746D02*
X84471867Y-61036495D01*
X84471867Y-61036495D02*
X84337180Y-61171182D01*
X119278407Y-37058584D02*
X119628593Y-36708398D01*
X119628593Y-36708398D02*
X119655531Y-37112459D01*
X119655531Y-37112459D02*
X119736343Y-37031646D01*
X119736343Y-37031646D02*
X119817155Y-37004709D01*
X119817155Y-37004709D02*
X119871030Y-37004709D01*
X119871030Y-37004709D02*
X119951842Y-37031646D01*
X119951842Y-37031646D02*
X120086529Y-37166333D01*
X120086529Y-37166333D02*
X120113467Y-37247146D01*
X120113467Y-37247146D02*
X120113467Y-37301020D01*
X120113467Y-37301020D02*
X120086529Y-37381833D01*
X120086529Y-37381833D02*
X119924905Y-37543457D01*
X119924905Y-37543457D02*
X119844093Y-37570394D01*
X119844093Y-37570394D02*
X119790218Y-37570394D01*
X119790218Y-36546773D02*
X120544465Y-36923897D01*
X120544465Y-36923897D02*
X120167342Y-36169649D01*
X120302028Y-36034963D02*
X120652215Y-35684776D01*
X120652215Y-35684776D02*
X120679152Y-36088837D01*
X120679152Y-36088837D02*
X120759964Y-36008025D01*
X120759964Y-36008025D02*
X120840776Y-35981088D01*
X120840776Y-35981088D02*
X120894651Y-35981088D01*
X120894651Y-35981088D02*
X120975464Y-36008025D01*
X120975464Y-36008025D02*
X121110151Y-36142712D01*
X121110151Y-36142712D02*
X121137088Y-36223524D01*
X121137088Y-36223524D02*
X121137088Y-36277399D01*
X121137088Y-36277399D02*
X121110151Y-36358211D01*
X121110151Y-36358211D02*
X120948526Y-36519836D01*
X120948526Y-36519836D02*
X120867714Y-36546773D01*
X120867714Y-36546773D02*
X120813839Y-36546773D01*
X121379525Y-36196587D02*
X121810523Y-35765588D01*
X121595024Y-35280715D02*
X121783586Y-35092153D01*
X122160709Y-35307652D02*
X121891335Y-35577026D01*
X121891335Y-35577026D02*
X121325650Y-35011341D01*
X121325650Y-35011341D02*
X121595024Y-34741967D01*
X122403146Y-35065215D02*
X121837461Y-34499530D01*
X121837461Y-34499530D02*
X122726395Y-34741967D01*
X122726395Y-34741967D02*
X122160710Y-34176281D01*
X93999998Y-36936868D02*
X93919185Y-36963805D01*
X93919185Y-36963805D02*
X93838373Y-37044618D01*
X93838373Y-37044618D02*
X93784498Y-37152367D01*
X93784498Y-37152367D02*
X93784498Y-37260117D01*
X93784498Y-37260117D02*
X93811436Y-37340929D01*
X93811436Y-37340929D02*
X93892248Y-37475616D01*
X93892248Y-37475616D02*
X93973060Y-37556428D01*
X93973060Y-37556428D02*
X94107747Y-37637241D01*
X94107747Y-37637241D02*
X94188560Y-37664178D01*
X94188560Y-37664178D02*
X94296309Y-37664178D01*
X94296309Y-37664178D02*
X94404059Y-37610303D01*
X94404059Y-37610303D02*
X94457934Y-37556428D01*
X94457934Y-37556428D02*
X94511808Y-37448679D01*
X94511808Y-37448679D02*
X94511808Y-37394804D01*
X94511808Y-37394804D02*
X94323247Y-37206242D01*
X94323247Y-37206242D02*
X94215497Y-37313992D01*
X94808120Y-37206242D02*
X94242434Y-36640557D01*
X94242434Y-36640557D02*
X94457934Y-36425057D01*
X94457934Y-36425057D02*
X94538746Y-36398120D01*
X94538746Y-36398120D02*
X94592621Y-36398120D01*
X94592621Y-36398120D02*
X94673433Y-36425057D01*
X94673433Y-36425057D02*
X94754245Y-36505870D01*
X94754245Y-36505870D02*
X94781182Y-36586682D01*
X94781182Y-36586682D02*
X94781182Y-36640557D01*
X94781182Y-36640557D02*
X94754245Y-36721369D01*
X94754245Y-36721369D02*
X94538746Y-36936868D01*
X94835057Y-36155683D02*
X94835057Y-36101809D01*
X94835057Y-36101809D02*
X94861995Y-36020996D01*
X94861995Y-36020996D02*
X94996682Y-35886309D01*
X94996682Y-35886309D02*
X95077494Y-35859372D01*
X95077494Y-35859372D02*
X95131369Y-35859372D01*
X95131369Y-35859372D02*
X95212181Y-35886309D01*
X95212181Y-35886309D02*
X95266056Y-35940184D01*
X95266056Y-35940184D02*
X95319930Y-36047934D01*
X95319930Y-36047934D02*
X95319930Y-36694431D01*
X95319930Y-36694431D02*
X95670117Y-36344245D01*
X96208865Y-35805497D02*
X95885616Y-36128746D01*
X96047240Y-35967121D02*
X95481555Y-35401436D01*
X95481555Y-35401436D02*
X95508492Y-35536123D01*
X95508492Y-35536123D02*
X95508492Y-35643873D01*
X95508492Y-35643873D02*
X95481555Y-35724685D01*
X122192435Y-36948431D02*
X122111623Y-36975368D01*
X122111623Y-36975368D02*
X122030811Y-37056180D01*
X122030811Y-37056180D02*
X121976936Y-37163930D01*
X121976936Y-37163930D02*
X121976936Y-37271680D01*
X121976936Y-37271680D02*
X122003873Y-37352492D01*
X122003873Y-37352492D02*
X122084685Y-37487179D01*
X122084685Y-37487179D02*
X122165498Y-37567991D01*
X122165498Y-37567991D02*
X122300185Y-37648803D01*
X122300185Y-37648803D02*
X122380997Y-37675741D01*
X122380997Y-37675741D02*
X122488746Y-37675741D01*
X122488746Y-37675741D02*
X122596496Y-37621866D01*
X122596496Y-37621866D02*
X122650371Y-37567991D01*
X122650371Y-37567991D02*
X122704246Y-37460241D01*
X122704246Y-37460241D02*
X122704246Y-37406367D01*
X122704246Y-37406367D02*
X122515684Y-37217805D01*
X122515684Y-37217805D02*
X122407934Y-37325554D01*
X123000557Y-37217805D02*
X122434872Y-36652119D01*
X122434872Y-36652119D02*
X123323806Y-36894556D01*
X123323806Y-36894556D02*
X122758120Y-36328871D01*
X123593180Y-36625182D02*
X123027494Y-36059497D01*
X123027494Y-36059497D02*
X123162181Y-35924810D01*
X123162181Y-35924810D02*
X123269931Y-35870935D01*
X123269931Y-35870935D02*
X123377680Y-35870935D01*
X123377680Y-35870935D02*
X123458493Y-35897872D01*
X123458493Y-35897872D02*
X123593180Y-35978685D01*
X123593180Y-35978685D02*
X123673992Y-36059497D01*
X123673992Y-36059497D02*
X123754804Y-36194184D01*
X123754804Y-36194184D02*
X123781741Y-36274996D01*
X123781741Y-36274996D02*
X123781741Y-36382746D01*
X123781741Y-36382746D02*
X123727867Y-36490495D01*
X123727867Y-36490495D02*
X123593180Y-36625182D01*
X96792435Y-36948431D02*
X96711623Y-36975368D01*
X96711623Y-36975368D02*
X96630811Y-37056180D01*
X96630811Y-37056180D02*
X96576936Y-37163930D01*
X96576936Y-37163930D02*
X96576936Y-37271680D01*
X96576936Y-37271680D02*
X96603873Y-37352492D01*
X96603873Y-37352492D02*
X96684685Y-37487179D01*
X96684685Y-37487179D02*
X96765498Y-37567991D01*
X96765498Y-37567991D02*
X96900185Y-37648803D01*
X96900185Y-37648803D02*
X96980997Y-37675741D01*
X96980997Y-37675741D02*
X97088746Y-37675741D01*
X97088746Y-37675741D02*
X97196496Y-37621866D01*
X97196496Y-37621866D02*
X97250371Y-37567991D01*
X97250371Y-37567991D02*
X97304246Y-37460241D01*
X97304246Y-37460241D02*
X97304246Y-37406367D01*
X97304246Y-37406367D02*
X97115684Y-37217805D01*
X97115684Y-37217805D02*
X97007934Y-37325554D01*
X97600557Y-37217805D02*
X97034872Y-36652119D01*
X97034872Y-36652119D02*
X97923806Y-36894556D01*
X97923806Y-36894556D02*
X97358120Y-36328871D01*
X98193180Y-36625182D02*
X97627494Y-36059497D01*
X97627494Y-36059497D02*
X97762181Y-35924810D01*
X97762181Y-35924810D02*
X97869931Y-35870935D01*
X97869931Y-35870935D02*
X97977680Y-35870935D01*
X97977680Y-35870935D02*
X98058493Y-35897872D01*
X98058493Y-35897872D02*
X98193180Y-35978685D01*
X98193180Y-35978685D02*
X98273992Y-36059497D01*
X98273992Y-36059497D02*
X98354804Y-36194184D01*
X98354804Y-36194184D02*
X98381741Y-36274996D01*
X98381741Y-36274996D02*
X98381741Y-36382746D01*
X98381741Y-36382746D02*
X98327867Y-36490495D01*
X98327867Y-36490495D02*
X98193180Y-36625182D01*
X90313998Y-62136868D02*
X90233185Y-62163805D01*
X90233185Y-62163805D02*
X90152373Y-62244618D01*
X90152373Y-62244618D02*
X90098498Y-62352367D01*
X90098498Y-62352367D02*
X90098498Y-62460117D01*
X90098498Y-62460117D02*
X90125436Y-62540929D01*
X90125436Y-62540929D02*
X90206248Y-62675616D01*
X90206248Y-62675616D02*
X90287060Y-62756428D01*
X90287060Y-62756428D02*
X90421747Y-62837241D01*
X90421747Y-62837241D02*
X90502560Y-62864178D01*
X90502560Y-62864178D02*
X90610309Y-62864178D01*
X90610309Y-62864178D02*
X90718059Y-62810303D01*
X90718059Y-62810303D02*
X90771934Y-62756428D01*
X90771934Y-62756428D02*
X90825808Y-62648679D01*
X90825808Y-62648679D02*
X90825808Y-62594804D01*
X90825808Y-62594804D02*
X90637247Y-62406242D01*
X90637247Y-62406242D02*
X90529497Y-62513992D01*
X91122120Y-62406242D02*
X90556434Y-61840557D01*
X90556434Y-61840557D02*
X90771934Y-61625057D01*
X90771934Y-61625057D02*
X90852746Y-61598120D01*
X90852746Y-61598120D02*
X90906621Y-61598120D01*
X90906621Y-61598120D02*
X90987433Y-61625057D01*
X90987433Y-61625057D02*
X91068245Y-61705870D01*
X91068245Y-61705870D02*
X91095182Y-61786682D01*
X91095182Y-61786682D02*
X91095182Y-61840557D01*
X91095182Y-61840557D02*
X91068245Y-61921369D01*
X91068245Y-61921369D02*
X90852746Y-62136868D01*
X91984117Y-61544245D02*
X91660868Y-61867494D01*
X91822492Y-61705870D02*
X91256807Y-61140184D01*
X91256807Y-61140184D02*
X91283744Y-61274871D01*
X91283744Y-61274871D02*
X91283744Y-61382621D01*
X91283744Y-61382621D02*
X91256807Y-61463433D01*
X92522865Y-61005497D02*
X92199616Y-61328746D01*
X92361240Y-61167121D02*
X91795555Y-60601436D01*
X91795555Y-60601436D02*
X91822492Y-60736123D01*
X91822492Y-60736123D02*
X91822492Y-60843873D01*
X91822492Y-60843873D02*
X91795555Y-60924685D01*
X91469998Y-36936868D02*
X91389185Y-36963805D01*
X91389185Y-36963805D02*
X91308373Y-37044618D01*
X91308373Y-37044618D02*
X91254498Y-37152367D01*
X91254498Y-37152367D02*
X91254498Y-37260117D01*
X91254498Y-37260117D02*
X91281436Y-37340929D01*
X91281436Y-37340929D02*
X91362248Y-37475616D01*
X91362248Y-37475616D02*
X91443060Y-37556428D01*
X91443060Y-37556428D02*
X91577747Y-37637241D01*
X91577747Y-37637241D02*
X91658560Y-37664178D01*
X91658560Y-37664178D02*
X91766309Y-37664178D01*
X91766309Y-37664178D02*
X91874059Y-37610303D01*
X91874059Y-37610303D02*
X91927934Y-37556428D01*
X91927934Y-37556428D02*
X91981808Y-37448679D01*
X91981808Y-37448679D02*
X91981808Y-37394804D01*
X91981808Y-37394804D02*
X91793247Y-37206242D01*
X91793247Y-37206242D02*
X91685497Y-37313992D01*
X92278120Y-37206242D02*
X91712434Y-36640557D01*
X91712434Y-36640557D02*
X91927934Y-36425057D01*
X91927934Y-36425057D02*
X92008746Y-36398120D01*
X92008746Y-36398120D02*
X92062621Y-36398120D01*
X92062621Y-36398120D02*
X92143433Y-36425057D01*
X92143433Y-36425057D02*
X92224245Y-36505870D01*
X92224245Y-36505870D02*
X92251182Y-36586682D01*
X92251182Y-36586682D02*
X92251182Y-36640557D01*
X92251182Y-36640557D02*
X92224245Y-36721369D01*
X92224245Y-36721369D02*
X92008746Y-36936868D01*
X92305057Y-36155683D02*
X92305057Y-36101809D01*
X92305057Y-36101809D02*
X92331995Y-36020996D01*
X92331995Y-36020996D02*
X92466682Y-35886309D01*
X92466682Y-35886309D02*
X92547494Y-35859372D01*
X92547494Y-35859372D02*
X92601369Y-35859372D01*
X92601369Y-35859372D02*
X92682181Y-35886309D01*
X92682181Y-35886309D02*
X92736056Y-35940184D01*
X92736056Y-35940184D02*
X92789930Y-36047934D01*
X92789930Y-36047934D02*
X92789930Y-36694431D01*
X92789930Y-36694431D02*
X93140117Y-36344245D01*
X92924618Y-35428373D02*
X92978492Y-35374499D01*
X92978492Y-35374499D02*
X93059305Y-35347561D01*
X93059305Y-35347561D02*
X93113179Y-35347561D01*
X93113179Y-35347561D02*
X93193992Y-35374499D01*
X93193992Y-35374499D02*
X93328679Y-35455311D01*
X93328679Y-35455311D02*
X93463366Y-35589998D01*
X93463366Y-35589998D02*
X93544178Y-35724685D01*
X93544178Y-35724685D02*
X93571115Y-35805497D01*
X93571115Y-35805497D02*
X93571115Y-35859372D01*
X93571115Y-35859372D02*
X93544178Y-35940184D01*
X93544178Y-35940184D02*
X93490303Y-35994059D01*
X93490303Y-35994059D02*
X93409491Y-36020996D01*
X93409491Y-36020996D02*
X93355616Y-36020996D01*
X93355616Y-36020996D02*
X93274804Y-35994059D01*
X93274804Y-35994059D02*
X93140117Y-35913247D01*
X93140117Y-35913247D02*
X93005430Y-35778560D01*
X93005430Y-35778560D02*
X92924618Y-35643873D01*
X92924618Y-35643873D02*
X92897680Y-35563060D01*
X92897680Y-35563060D02*
X92897680Y-35509186D01*
X92897680Y-35509186D02*
X92924618Y-35428373D01*
X98203372Y-61467494D02*
X98122560Y-61494431D01*
X98122560Y-61494431D02*
X98041748Y-61575243D01*
X98041748Y-61575243D02*
X97987873Y-61682993D01*
X97987873Y-61682993D02*
X97987873Y-61790742D01*
X97987873Y-61790742D02*
X98014810Y-61871555D01*
X98014810Y-61871555D02*
X98095623Y-62006242D01*
X98095623Y-62006242D02*
X98176435Y-62087054D01*
X98176435Y-62087054D02*
X98311122Y-62167866D01*
X98311122Y-62167866D02*
X98391934Y-62194803D01*
X98391934Y-62194803D02*
X98499684Y-62194803D01*
X98499684Y-62194803D02*
X98607433Y-62140929D01*
X98607433Y-62140929D02*
X98661308Y-62087054D01*
X98661308Y-62087054D02*
X98715183Y-61979304D01*
X98715183Y-61979304D02*
X98715183Y-61925429D01*
X98715183Y-61925429D02*
X98526621Y-61736868D01*
X98526621Y-61736868D02*
X98418871Y-61844617D01*
X99011494Y-61736868D02*
X98445809Y-61171182D01*
X98445809Y-61171182D02*
X98661308Y-60955683D01*
X98661308Y-60955683D02*
X98742120Y-60928746D01*
X98742120Y-60928746D02*
X98795995Y-60928746D01*
X98795995Y-60928746D02*
X98876807Y-60955683D01*
X98876807Y-60955683D02*
X98957619Y-61036495D01*
X98957619Y-61036495D02*
X98984557Y-61117307D01*
X98984557Y-61117307D02*
X98984557Y-61171182D01*
X98984557Y-61171182D02*
X98957619Y-61251994D01*
X98957619Y-61251994D02*
X98742120Y-61467494D01*
X99604117Y-61144245D02*
X99711867Y-61036495D01*
X99711867Y-61036495D02*
X99738804Y-60955683D01*
X99738804Y-60955683D02*
X99738804Y-60901808D01*
X99738804Y-60901808D02*
X99711867Y-60767121D01*
X99711867Y-60767121D02*
X99631054Y-60632434D01*
X99631054Y-60632434D02*
X99415555Y-60416935D01*
X99415555Y-60416935D02*
X99334743Y-60389998D01*
X99334743Y-60389998D02*
X99280868Y-60389998D01*
X99280868Y-60389998D02*
X99200056Y-60416935D01*
X99200056Y-60416935D02*
X99092306Y-60524685D01*
X99092306Y-60524685D02*
X99065369Y-60605497D01*
X99065369Y-60605497D02*
X99065369Y-60659372D01*
X99065369Y-60659372D02*
X99092306Y-60740184D01*
X99092306Y-60740184D02*
X99226993Y-60874871D01*
X99226993Y-60874871D02*
X99307806Y-60901808D01*
X99307806Y-60901808D02*
X99361680Y-60901808D01*
X99361680Y-60901808D02*
X99442493Y-60874871D01*
X99442493Y-60874871D02*
X99550242Y-60767121D01*
X99550242Y-60767121D02*
X99577180Y-60686309D01*
X99577180Y-60686309D02*
X99577180Y-60632434D01*
X99577180Y-60632434D02*
X99550242Y-60551622D01*
X92853998Y-61990868D02*
X92773185Y-62017805D01*
X92773185Y-62017805D02*
X92692373Y-62098618D01*
X92692373Y-62098618D02*
X92638498Y-62206367D01*
X92638498Y-62206367D02*
X92638498Y-62314117D01*
X92638498Y-62314117D02*
X92665436Y-62394929D01*
X92665436Y-62394929D02*
X92746248Y-62529616D01*
X92746248Y-62529616D02*
X92827060Y-62610428D01*
X92827060Y-62610428D02*
X92961747Y-62691241D01*
X92961747Y-62691241D02*
X93042560Y-62718178D01*
X93042560Y-62718178D02*
X93150309Y-62718178D01*
X93150309Y-62718178D02*
X93258059Y-62664303D01*
X93258059Y-62664303D02*
X93311934Y-62610428D01*
X93311934Y-62610428D02*
X93365808Y-62502679D01*
X93365808Y-62502679D02*
X93365808Y-62448804D01*
X93365808Y-62448804D02*
X93177247Y-62260242D01*
X93177247Y-62260242D02*
X93069497Y-62367992D01*
X93662120Y-62260242D02*
X93096434Y-61694557D01*
X93096434Y-61694557D02*
X93311934Y-61479057D01*
X93311934Y-61479057D02*
X93392746Y-61452120D01*
X93392746Y-61452120D02*
X93446621Y-61452120D01*
X93446621Y-61452120D02*
X93527433Y-61479057D01*
X93527433Y-61479057D02*
X93608245Y-61559870D01*
X93608245Y-61559870D02*
X93635182Y-61640682D01*
X93635182Y-61640682D02*
X93635182Y-61694557D01*
X93635182Y-61694557D02*
X93608245Y-61775369D01*
X93608245Y-61775369D02*
X93392746Y-61990868D01*
X94524117Y-61398245D02*
X94200868Y-61721494D01*
X94362492Y-61559870D02*
X93796807Y-60994184D01*
X93796807Y-60994184D02*
X93823744Y-61128871D01*
X93823744Y-61128871D02*
X93823744Y-61236621D01*
X93823744Y-61236621D02*
X93796807Y-61317433D01*
X94308618Y-60482373D02*
X94362492Y-60428499D01*
X94362492Y-60428499D02*
X94443305Y-60401561D01*
X94443305Y-60401561D02*
X94497179Y-60401561D01*
X94497179Y-60401561D02*
X94577992Y-60428499D01*
X94577992Y-60428499D02*
X94712679Y-60509311D01*
X94712679Y-60509311D02*
X94847366Y-60643998D01*
X94847366Y-60643998D02*
X94928178Y-60778685D01*
X94928178Y-60778685D02*
X94955115Y-60859497D01*
X94955115Y-60859497D02*
X94955115Y-60913372D01*
X94955115Y-60913372D02*
X94928178Y-60994184D01*
X94928178Y-60994184D02*
X94874303Y-61048059D01*
X94874303Y-61048059D02*
X94793491Y-61074996D01*
X94793491Y-61074996D02*
X94739616Y-61074996D01*
X94739616Y-61074996D02*
X94658804Y-61048059D01*
X94658804Y-61048059D02*
X94524117Y-60967247D01*
X94524117Y-60967247D02*
X94389430Y-60832560D01*
X94389430Y-60832560D02*
X94308618Y-60697873D01*
X94308618Y-60697873D02*
X94281680Y-60617060D01*
X94281680Y-60617060D02*
X94281680Y-60563186D01*
X94281680Y-60563186D02*
X94308618Y-60482373D01*
X106699998Y-36936868D02*
X106619185Y-36963805D01*
X106619185Y-36963805D02*
X106538373Y-37044618D01*
X106538373Y-37044618D02*
X106484498Y-37152367D01*
X106484498Y-37152367D02*
X106484498Y-37260117D01*
X106484498Y-37260117D02*
X106511436Y-37340929D01*
X106511436Y-37340929D02*
X106592248Y-37475616D01*
X106592248Y-37475616D02*
X106673060Y-37556428D01*
X106673060Y-37556428D02*
X106807747Y-37637241D01*
X106807747Y-37637241D02*
X106888560Y-37664178D01*
X106888560Y-37664178D02*
X106996309Y-37664178D01*
X106996309Y-37664178D02*
X107104059Y-37610303D01*
X107104059Y-37610303D02*
X107157934Y-37556428D01*
X107157934Y-37556428D02*
X107211808Y-37448679D01*
X107211808Y-37448679D02*
X107211808Y-37394804D01*
X107211808Y-37394804D02*
X107023247Y-37206242D01*
X107023247Y-37206242D02*
X106915497Y-37313992D01*
X107508120Y-37206242D02*
X106942434Y-36640557D01*
X106942434Y-36640557D02*
X107157934Y-36425057D01*
X107157934Y-36425057D02*
X107238746Y-36398120D01*
X107238746Y-36398120D02*
X107292621Y-36398120D01*
X107292621Y-36398120D02*
X107373433Y-36425057D01*
X107373433Y-36425057D02*
X107454245Y-36505870D01*
X107454245Y-36505870D02*
X107481182Y-36586682D01*
X107481182Y-36586682D02*
X107481182Y-36640557D01*
X107481182Y-36640557D02*
X107454245Y-36721369D01*
X107454245Y-36721369D02*
X107238746Y-36936868D01*
X107535057Y-36155683D02*
X107535057Y-36101809D01*
X107535057Y-36101809D02*
X107561995Y-36020996D01*
X107561995Y-36020996D02*
X107696682Y-35886309D01*
X107696682Y-35886309D02*
X107777494Y-35859372D01*
X107777494Y-35859372D02*
X107831369Y-35859372D01*
X107831369Y-35859372D02*
X107912181Y-35886309D01*
X107912181Y-35886309D02*
X107966056Y-35940184D01*
X107966056Y-35940184D02*
X108019930Y-36047934D01*
X108019930Y-36047934D02*
X108019930Y-36694431D01*
X108019930Y-36694431D02*
X108370117Y-36344245D01*
X107992993Y-35589998D02*
X108370117Y-35212874D01*
X108370117Y-35212874D02*
X108693366Y-36020996D01*
X100743372Y-61467494D02*
X100662560Y-61494431D01*
X100662560Y-61494431D02*
X100581748Y-61575243D01*
X100581748Y-61575243D02*
X100527873Y-61682993D01*
X100527873Y-61682993D02*
X100527873Y-61790742D01*
X100527873Y-61790742D02*
X100554810Y-61871555D01*
X100554810Y-61871555D02*
X100635623Y-62006242D01*
X100635623Y-62006242D02*
X100716435Y-62087054D01*
X100716435Y-62087054D02*
X100851122Y-62167866D01*
X100851122Y-62167866D02*
X100931934Y-62194803D01*
X100931934Y-62194803D02*
X101039684Y-62194803D01*
X101039684Y-62194803D02*
X101147433Y-62140929D01*
X101147433Y-62140929D02*
X101201308Y-62087054D01*
X101201308Y-62087054D02*
X101255183Y-61979304D01*
X101255183Y-61979304D02*
X101255183Y-61925429D01*
X101255183Y-61925429D02*
X101066621Y-61736868D01*
X101066621Y-61736868D02*
X100958871Y-61844617D01*
X101551494Y-61736868D02*
X100985809Y-61171182D01*
X100985809Y-61171182D02*
X101201308Y-60955683D01*
X101201308Y-60955683D02*
X101282120Y-60928746D01*
X101282120Y-60928746D02*
X101335995Y-60928746D01*
X101335995Y-60928746D02*
X101416807Y-60955683D01*
X101416807Y-60955683D02*
X101497619Y-61036495D01*
X101497619Y-61036495D02*
X101524557Y-61117307D01*
X101524557Y-61117307D02*
X101524557Y-61171182D01*
X101524557Y-61171182D02*
X101497619Y-61251994D01*
X101497619Y-61251994D02*
X101282120Y-61467494D01*
X101874743Y-60767121D02*
X101793931Y-60794059D01*
X101793931Y-60794059D02*
X101740056Y-60794059D01*
X101740056Y-60794059D02*
X101659244Y-60767121D01*
X101659244Y-60767121D02*
X101632306Y-60740184D01*
X101632306Y-60740184D02*
X101605369Y-60659372D01*
X101605369Y-60659372D02*
X101605369Y-60605497D01*
X101605369Y-60605497D02*
X101632306Y-60524685D01*
X101632306Y-60524685D02*
X101740056Y-60416935D01*
X101740056Y-60416935D02*
X101820868Y-60389998D01*
X101820868Y-60389998D02*
X101874743Y-60389998D01*
X101874743Y-60389998D02*
X101955555Y-60416935D01*
X101955555Y-60416935D02*
X101982493Y-60443872D01*
X101982493Y-60443872D02*
X102009430Y-60524685D01*
X102009430Y-60524685D02*
X102009430Y-60578559D01*
X102009430Y-60578559D02*
X101982493Y-60659372D01*
X101982493Y-60659372D02*
X101874743Y-60767121D01*
X101874743Y-60767121D02*
X101847806Y-60847933D01*
X101847806Y-60847933D02*
X101847806Y-60901808D01*
X101847806Y-60901808D02*
X101874743Y-60982620D01*
X101874743Y-60982620D02*
X101982493Y-61090370D01*
X101982493Y-61090370D02*
X102063305Y-61117307D01*
X102063305Y-61117307D02*
X102117180Y-61117307D01*
X102117180Y-61117307D02*
X102197992Y-61090370D01*
X102197992Y-61090370D02*
X102305741Y-60982620D01*
X102305741Y-60982620D02*
X102332679Y-60901808D01*
X102332679Y-60901808D02*
X102332679Y-60847933D01*
X102332679Y-60847933D02*
X102305741Y-60767121D01*
X102305741Y-60767121D02*
X102197992Y-60659372D01*
X102197992Y-60659372D02*
X102117180Y-60632434D01*
X102117180Y-60632434D02*
X102063305Y-60632434D01*
X102063305Y-60632434D02*
X101982493Y-60659372D01*
X110903372Y-61467494D02*
X110822560Y-61494431D01*
X110822560Y-61494431D02*
X110741748Y-61575243D01*
X110741748Y-61575243D02*
X110687873Y-61682993D01*
X110687873Y-61682993D02*
X110687873Y-61790742D01*
X110687873Y-61790742D02*
X110714810Y-61871555D01*
X110714810Y-61871555D02*
X110795623Y-62006242D01*
X110795623Y-62006242D02*
X110876435Y-62087054D01*
X110876435Y-62087054D02*
X111011122Y-62167866D01*
X111011122Y-62167866D02*
X111091934Y-62194803D01*
X111091934Y-62194803D02*
X111199684Y-62194803D01*
X111199684Y-62194803D02*
X111307433Y-62140929D01*
X111307433Y-62140929D02*
X111361308Y-62087054D01*
X111361308Y-62087054D02*
X111415183Y-61979304D01*
X111415183Y-61979304D02*
X111415183Y-61925429D01*
X111415183Y-61925429D02*
X111226621Y-61736868D01*
X111226621Y-61736868D02*
X111118871Y-61844617D01*
X111711494Y-61736868D02*
X111145809Y-61171182D01*
X111145809Y-61171182D02*
X111361308Y-60955683D01*
X111361308Y-60955683D02*
X111442120Y-60928746D01*
X111442120Y-60928746D02*
X111495995Y-60928746D01*
X111495995Y-60928746D02*
X111576807Y-60955683D01*
X111576807Y-60955683D02*
X111657619Y-61036495D01*
X111657619Y-61036495D02*
X111684557Y-61117307D01*
X111684557Y-61117307D02*
X111684557Y-61171182D01*
X111684557Y-61171182D02*
X111657619Y-61251994D01*
X111657619Y-61251994D02*
X111442120Y-61467494D01*
X111980868Y-60336123D02*
X111711494Y-60605497D01*
X111711494Y-60605497D02*
X111953931Y-60901808D01*
X111953931Y-60901808D02*
X111953931Y-60847933D01*
X111953931Y-60847933D02*
X111980868Y-60767121D01*
X111980868Y-60767121D02*
X112115555Y-60632434D01*
X112115555Y-60632434D02*
X112196367Y-60605497D01*
X112196367Y-60605497D02*
X112250242Y-60605497D01*
X112250242Y-60605497D02*
X112331054Y-60632434D01*
X112331054Y-60632434D02*
X112465741Y-60767121D01*
X112465741Y-60767121D02*
X112492679Y-60847933D01*
X112492679Y-60847933D02*
X112492679Y-60901808D01*
X112492679Y-60901808D02*
X112465741Y-60982620D01*
X112465741Y-60982620D02*
X112331054Y-61117307D01*
X112331054Y-61117307D02*
X112250242Y-61144245D01*
X112250242Y-61144245D02*
X112196367Y-61144245D01*
X114511064Y-37634049D02*
X114780438Y-37364675D01*
X114618813Y-37849549D02*
X114241690Y-37095301D01*
X114241690Y-37095301D02*
X114995937Y-37472425D01*
X115184499Y-37283863D02*
X114618813Y-36718178D01*
X114618813Y-36718178D02*
X114753500Y-36583491D01*
X114753500Y-36583491D02*
X114861250Y-36529616D01*
X114861250Y-36529616D02*
X114968999Y-36529616D01*
X114968999Y-36529616D02*
X115049812Y-36556553D01*
X115049812Y-36556553D02*
X115184499Y-36637366D01*
X115184499Y-36637366D02*
X115265311Y-36718178D01*
X115265311Y-36718178D02*
X115346123Y-36852865D01*
X115346123Y-36852865D02*
X115373060Y-36933677D01*
X115373060Y-36933677D02*
X115373060Y-37041427D01*
X115373060Y-37041427D02*
X115319186Y-37149176D01*
X115319186Y-37149176D02*
X115184499Y-37283863D01*
X116019558Y-36341054D02*
X116019558Y-36394929D01*
X116019558Y-36394929D02*
X115965683Y-36502679D01*
X115965683Y-36502679D02*
X115911808Y-36556553D01*
X115911808Y-36556553D02*
X115804059Y-36610428D01*
X115804059Y-36610428D02*
X115696309Y-36610428D01*
X115696309Y-36610428D02*
X115615497Y-36583491D01*
X115615497Y-36583491D02*
X115480810Y-36502679D01*
X115480810Y-36502679D02*
X115399998Y-36421866D01*
X115399998Y-36421866D02*
X115319186Y-36287179D01*
X115319186Y-36287179D02*
X115292248Y-36206367D01*
X115292248Y-36206367D02*
X115292248Y-36098618D01*
X115292248Y-36098618D02*
X115346123Y-35990868D01*
X115346123Y-35990868D02*
X115399998Y-35936993D01*
X115399998Y-35936993D02*
X115507747Y-35883118D01*
X115507747Y-35883118D02*
X115561622Y-35883118D01*
X116235057Y-36341054D02*
X116666056Y-35910056D01*
X116100370Y-35236621D02*
X116854618Y-35613744D01*
X116854618Y-35613744D02*
X116477494Y-34859497D01*
X117554990Y-34913372D02*
X117097054Y-34832560D01*
X117231741Y-35236621D02*
X116666056Y-34670935D01*
X116666056Y-34670935D02*
X116881555Y-34455436D01*
X116881555Y-34455436D02*
X116962367Y-34428499D01*
X116962367Y-34428499D02*
X117016242Y-34428499D01*
X117016242Y-34428499D02*
X117097054Y-34455436D01*
X117097054Y-34455436D02*
X117177866Y-34536248D01*
X117177866Y-34536248D02*
X117204804Y-34617061D01*
X117204804Y-34617061D02*
X117204804Y-34670935D01*
X117204804Y-34670935D02*
X117177866Y-34751748D01*
X117177866Y-34751748D02*
X116962367Y-34967247D01*
X117501115Y-34374624D02*
X117689677Y-34186062D01*
X118066800Y-34401561D02*
X117797426Y-34670935D01*
X117797426Y-34670935D02*
X117231741Y-34105250D01*
X117231741Y-34105250D02*
X117501115Y-33835876D01*
X118201488Y-33674251D02*
X118012926Y-33862813D01*
X118309237Y-34159125D02*
X117743552Y-33593439D01*
X117743552Y-33593439D02*
X118012926Y-33324065D01*
X77613998Y-61990868D02*
X77533185Y-62017805D01*
X77533185Y-62017805D02*
X77452373Y-62098618D01*
X77452373Y-62098618D02*
X77398498Y-62206367D01*
X77398498Y-62206367D02*
X77398498Y-62314117D01*
X77398498Y-62314117D02*
X77425436Y-62394929D01*
X77425436Y-62394929D02*
X77506248Y-62529616D01*
X77506248Y-62529616D02*
X77587060Y-62610428D01*
X77587060Y-62610428D02*
X77721747Y-62691241D01*
X77721747Y-62691241D02*
X77802560Y-62718178D01*
X77802560Y-62718178D02*
X77910309Y-62718178D01*
X77910309Y-62718178D02*
X78018059Y-62664303D01*
X78018059Y-62664303D02*
X78071934Y-62610428D01*
X78071934Y-62610428D02*
X78125808Y-62502679D01*
X78125808Y-62502679D02*
X78125808Y-62448804D01*
X78125808Y-62448804D02*
X77937247Y-62260242D01*
X77937247Y-62260242D02*
X77829497Y-62367992D01*
X78422120Y-62260242D02*
X77856434Y-61694557D01*
X77856434Y-61694557D02*
X78071934Y-61479057D01*
X78071934Y-61479057D02*
X78152746Y-61452120D01*
X78152746Y-61452120D02*
X78206621Y-61452120D01*
X78206621Y-61452120D02*
X78287433Y-61479057D01*
X78287433Y-61479057D02*
X78368245Y-61559870D01*
X78368245Y-61559870D02*
X78395182Y-61640682D01*
X78395182Y-61640682D02*
X78395182Y-61694557D01*
X78395182Y-61694557D02*
X78368245Y-61775369D01*
X78368245Y-61775369D02*
X78152746Y-61990868D01*
X79284117Y-61398245D02*
X78960868Y-61721494D01*
X79122492Y-61559870D02*
X78556807Y-60994184D01*
X78556807Y-60994184D02*
X78583744Y-61128871D01*
X78583744Y-61128871D02*
X78583744Y-61236621D01*
X78583744Y-61236621D02*
X78556807Y-61317433D01*
X79230242Y-60320749D02*
X78960868Y-60590123D01*
X78960868Y-60590123D02*
X79203305Y-60886434D01*
X79203305Y-60886434D02*
X79203305Y-60832560D01*
X79203305Y-60832560D02*
X79230242Y-60751747D01*
X79230242Y-60751747D02*
X79364929Y-60617060D01*
X79364929Y-60617060D02*
X79445741Y-60590123D01*
X79445741Y-60590123D02*
X79499616Y-60590123D01*
X79499616Y-60590123D02*
X79580428Y-60617060D01*
X79580428Y-60617060D02*
X79715115Y-60751747D01*
X79715115Y-60751747D02*
X79742053Y-60832560D01*
X79742053Y-60832560D02*
X79742053Y-60886434D01*
X79742053Y-60886434D02*
X79715115Y-60967247D01*
X79715115Y-60967247D02*
X79580428Y-61101934D01*
X79580428Y-61101934D02*
X79499616Y-61128871D01*
X79499616Y-61128871D02*
X79445741Y-61128871D01*
X124166749Y-37060242D02*
X124920996Y-37437366D01*
X124920996Y-37437366D02*
X124543873Y-36683118D01*
X125244245Y-37060242D02*
X125351995Y-37006367D01*
X125351995Y-37006367D02*
X125486682Y-36871680D01*
X125486682Y-36871680D02*
X125513619Y-36790868D01*
X125513619Y-36790868D02*
X125513619Y-36736993D01*
X125513619Y-36736993D02*
X125486682Y-36656181D01*
X125486682Y-36656181D02*
X125432807Y-36602306D01*
X125432807Y-36602306D02*
X125351995Y-36575369D01*
X125351995Y-36575369D02*
X125298120Y-36575369D01*
X125298120Y-36575369D02*
X125217308Y-36602306D01*
X125217308Y-36602306D02*
X125082621Y-36683118D01*
X125082621Y-36683118D02*
X125001808Y-36710056D01*
X125001808Y-36710056D02*
X124947934Y-36710056D01*
X124947934Y-36710056D02*
X124867121Y-36683118D01*
X124867121Y-36683118D02*
X124813247Y-36629244D01*
X124813247Y-36629244D02*
X124786309Y-36548431D01*
X124786309Y-36548431D02*
X124786309Y-36494557D01*
X124786309Y-36494557D02*
X124813247Y-36413744D01*
X124813247Y-36413744D02*
X124947934Y-36279057D01*
X124947934Y-36279057D02*
X125055683Y-36225183D01*
X125675244Y-36144370D02*
X125944618Y-36413744D01*
X125190370Y-36036621D02*
X125675244Y-36144370D01*
X125675244Y-36144370D02*
X125567494Y-35659497D01*
X126267866Y-36036621D02*
X126375616Y-35982746D01*
X126375616Y-35982746D02*
X126510303Y-35848059D01*
X126510303Y-35848059D02*
X126537240Y-35767247D01*
X126537240Y-35767247D02*
X126537240Y-35713372D01*
X126537240Y-35713372D02*
X126510303Y-35632560D01*
X126510303Y-35632560D02*
X126456428Y-35578685D01*
X126456428Y-35578685D02*
X126375616Y-35551748D01*
X126375616Y-35551748D02*
X126321741Y-35551748D01*
X126321741Y-35551748D02*
X126240929Y-35578685D01*
X126240929Y-35578685D02*
X126106242Y-35659497D01*
X126106242Y-35659497D02*
X126025430Y-35686435D01*
X126025430Y-35686435D02*
X125971555Y-35686435D01*
X125971555Y-35686435D02*
X125890743Y-35659497D01*
X125890743Y-35659497D02*
X125836868Y-35605622D01*
X125836868Y-35605622D02*
X125809930Y-35524810D01*
X125809930Y-35524810D02*
X125809930Y-35470935D01*
X125809930Y-35470935D02*
X125836868Y-35390123D01*
X125836868Y-35390123D02*
X125971555Y-35255436D01*
X125971555Y-35255436D02*
X126079304Y-35201561D01*
X77124200Y-45095238D02*
X77162295Y-44980952D01*
X77162295Y-44980952D02*
X77162295Y-44790476D01*
X77162295Y-44790476D02*
X77124200Y-44714285D01*
X77124200Y-44714285D02*
X77086104Y-44676190D01*
X77086104Y-44676190D02*
X77009914Y-44638095D01*
X77009914Y-44638095D02*
X76933723Y-44638095D01*
X76933723Y-44638095D02*
X76857533Y-44676190D01*
X76857533Y-44676190D02*
X76819438Y-44714285D01*
X76819438Y-44714285D02*
X76781342Y-44790476D01*
X76781342Y-44790476D02*
X76743247Y-44942857D01*
X76743247Y-44942857D02*
X76705152Y-45019047D01*
X76705152Y-45019047D02*
X76667057Y-45057142D01*
X76667057Y-45057142D02*
X76590866Y-45095238D01*
X76590866Y-45095238D02*
X76514676Y-45095238D01*
X76514676Y-45095238D02*
X76438485Y-45057142D01*
X76438485Y-45057142D02*
X76400390Y-45019047D01*
X76400390Y-45019047D02*
X76362295Y-44942857D01*
X76362295Y-44942857D02*
X76362295Y-44752380D01*
X76362295Y-44752380D02*
X76400390Y-44638095D01*
X76362295Y-44371428D02*
X77162295Y-44180952D01*
X77162295Y-44180952D02*
X76590866Y-44028571D01*
X76590866Y-44028571D02*
X77162295Y-43876190D01*
X77162295Y-43876190D02*
X76362295Y-43685714D01*
X77162295Y-43380951D02*
X76362295Y-43380951D01*
X76362295Y-43380951D02*
X76362295Y-43190475D01*
X76362295Y-43190475D02*
X76400390Y-43076189D01*
X76400390Y-43076189D02*
X76476580Y-42999999D01*
X76476580Y-42999999D02*
X76552771Y-42961904D01*
X76552771Y-42961904D02*
X76705152Y-42923808D01*
X76705152Y-42923808D02*
X76819438Y-42923808D01*
X76819438Y-42923808D02*
X76971819Y-42961904D01*
X76971819Y-42961904D02*
X77048009Y-42999999D01*
X77048009Y-42999999D02*
X77124200Y-43076189D01*
X77124200Y-43076189D02*
X77162295Y-43190475D01*
X77162295Y-43190475D02*
X77162295Y-43380951D01*
X77162295Y-42580951D02*
X76362295Y-42580951D01*
X76362295Y-42047618D02*
X76362295Y-41895237D01*
X76362295Y-41895237D02*
X76400390Y-41819047D01*
X76400390Y-41819047D02*
X76476580Y-41742856D01*
X76476580Y-41742856D02*
X76628961Y-41704761D01*
X76628961Y-41704761D02*
X76895628Y-41704761D01*
X76895628Y-41704761D02*
X77048009Y-41742856D01*
X77048009Y-41742856D02*
X77124200Y-41819047D01*
X77124200Y-41819047D02*
X77162295Y-41895237D01*
X77162295Y-41895237D02*
X77162295Y-42047618D01*
X77162295Y-42047618D02*
X77124200Y-42123809D01*
X77124200Y-42123809D02*
X77048009Y-42199999D01*
X77048009Y-42199999D02*
X76895628Y-42238095D01*
X76895628Y-42238095D02*
X76628961Y-42238095D01*
X76628961Y-42238095D02*
X76476580Y-42199999D01*
X76476580Y-42199999D02*
X76400390Y-42123809D01*
X76400390Y-42123809D02*
X76362295Y-42047618D01*
X104169998Y-36936868D02*
X104089185Y-36963805D01*
X104089185Y-36963805D02*
X104008373Y-37044618D01*
X104008373Y-37044618D02*
X103954498Y-37152367D01*
X103954498Y-37152367D02*
X103954498Y-37260117D01*
X103954498Y-37260117D02*
X103981436Y-37340929D01*
X103981436Y-37340929D02*
X104062248Y-37475616D01*
X104062248Y-37475616D02*
X104143060Y-37556428D01*
X104143060Y-37556428D02*
X104277747Y-37637241D01*
X104277747Y-37637241D02*
X104358560Y-37664178D01*
X104358560Y-37664178D02*
X104466309Y-37664178D01*
X104466309Y-37664178D02*
X104574059Y-37610303D01*
X104574059Y-37610303D02*
X104627934Y-37556428D01*
X104627934Y-37556428D02*
X104681808Y-37448679D01*
X104681808Y-37448679D02*
X104681808Y-37394804D01*
X104681808Y-37394804D02*
X104493247Y-37206242D01*
X104493247Y-37206242D02*
X104385497Y-37313992D01*
X104978120Y-37206242D02*
X104412434Y-36640557D01*
X104412434Y-36640557D02*
X104627934Y-36425057D01*
X104627934Y-36425057D02*
X104708746Y-36398120D01*
X104708746Y-36398120D02*
X104762621Y-36398120D01*
X104762621Y-36398120D02*
X104843433Y-36425057D01*
X104843433Y-36425057D02*
X104924245Y-36505870D01*
X104924245Y-36505870D02*
X104951182Y-36586682D01*
X104951182Y-36586682D02*
X104951182Y-36640557D01*
X104951182Y-36640557D02*
X104924245Y-36721369D01*
X104924245Y-36721369D02*
X104708746Y-36936868D01*
X105005057Y-36155683D02*
X105005057Y-36101809D01*
X105005057Y-36101809D02*
X105031995Y-36020996D01*
X105031995Y-36020996D02*
X105166682Y-35886309D01*
X105166682Y-35886309D02*
X105247494Y-35859372D01*
X105247494Y-35859372D02*
X105301369Y-35859372D01*
X105301369Y-35859372D02*
X105382181Y-35886309D01*
X105382181Y-35886309D02*
X105436056Y-35940184D01*
X105436056Y-35940184D02*
X105489930Y-36047934D01*
X105489930Y-36047934D02*
X105489930Y-36694431D01*
X105489930Y-36694431D02*
X105840117Y-36344245D01*
X105759305Y-35293686D02*
X105651555Y-35401436D01*
X105651555Y-35401436D02*
X105624618Y-35482248D01*
X105624618Y-35482248D02*
X105624618Y-35536123D01*
X105624618Y-35536123D02*
X105651555Y-35670810D01*
X105651555Y-35670810D02*
X105732367Y-35805497D01*
X105732367Y-35805497D02*
X105947866Y-36020996D01*
X105947866Y-36020996D02*
X106028679Y-36047934D01*
X106028679Y-36047934D02*
X106082553Y-36047934D01*
X106082553Y-36047934D02*
X106163366Y-36020996D01*
X106163366Y-36020996D02*
X106271115Y-35913247D01*
X106271115Y-35913247D02*
X106298053Y-35832434D01*
X106298053Y-35832434D02*
X106298053Y-35778560D01*
X106298053Y-35778560D02*
X106271115Y-35697747D01*
X106271115Y-35697747D02*
X106136428Y-35563060D01*
X106136428Y-35563060D02*
X106055616Y-35536123D01*
X106055616Y-35536123D02*
X106001741Y-35536123D01*
X106001741Y-35536123D02*
X105920929Y-35563060D01*
X105920929Y-35563060D02*
X105813179Y-35670810D01*
X105813179Y-35670810D02*
X105786242Y-35751622D01*
X105786242Y-35751622D02*
X105786242Y-35805497D01*
X105786242Y-35805497D02*
X105813179Y-35886309D01*
X108336435Y-61494431D02*
X108255623Y-61521368D01*
X108255623Y-61521368D02*
X108174811Y-61602180D01*
X108174811Y-61602180D02*
X108120936Y-61709930D01*
X108120936Y-61709930D02*
X108120936Y-61817680D01*
X108120936Y-61817680D02*
X108147873Y-61898492D01*
X108147873Y-61898492D02*
X108228685Y-62033179D01*
X108228685Y-62033179D02*
X108309498Y-62113991D01*
X108309498Y-62113991D02*
X108444185Y-62194803D01*
X108444185Y-62194803D02*
X108524997Y-62221741D01*
X108524997Y-62221741D02*
X108632746Y-62221741D01*
X108632746Y-62221741D02*
X108740496Y-62167866D01*
X108740496Y-62167866D02*
X108794371Y-62113991D01*
X108794371Y-62113991D02*
X108848246Y-62006241D01*
X108848246Y-62006241D02*
X108848246Y-61952367D01*
X108848246Y-61952367D02*
X108659684Y-61763805D01*
X108659684Y-61763805D02*
X108551934Y-61871554D01*
X109144557Y-61763805D02*
X108578872Y-61198119D01*
X108578872Y-61198119D02*
X109467806Y-61440556D01*
X109467806Y-61440556D02*
X108902120Y-60874871D01*
X109737180Y-61171182D02*
X109171494Y-60605497D01*
X109171494Y-60605497D02*
X109306181Y-60470810D01*
X109306181Y-60470810D02*
X109413931Y-60416935D01*
X109413931Y-60416935D02*
X109521680Y-60416935D01*
X109521680Y-60416935D02*
X109602493Y-60443872D01*
X109602493Y-60443872D02*
X109737180Y-60524685D01*
X109737180Y-60524685D02*
X109817992Y-60605497D01*
X109817992Y-60605497D02*
X109898804Y-60740184D01*
X109898804Y-60740184D02*
X109925741Y-60820996D01*
X109925741Y-60820996D02*
X109925741Y-60928746D01*
X109925741Y-60928746D02*
X109871867Y-61036495D01*
X109871867Y-61036495D02*
X109737180Y-61171182D01*
X126709406Y-37027585D02*
X127463653Y-37404709D01*
X127463653Y-37404709D02*
X127086529Y-36650462D01*
X127733027Y-36542712D02*
X127840776Y-36488838D01*
X127840776Y-36488838D02*
X127894651Y-36488838D01*
X127894651Y-36488838D02*
X127975463Y-36515775D01*
X127975463Y-36515775D02*
X128056276Y-36596587D01*
X128056276Y-36596587D02*
X128083213Y-36677399D01*
X128083213Y-36677399D02*
X128083213Y-36731274D01*
X128083213Y-36731274D02*
X128056276Y-36812086D01*
X128056276Y-36812086D02*
X127840776Y-37027586D01*
X127840776Y-37027586D02*
X127275091Y-36461900D01*
X127275091Y-36461900D02*
X127463653Y-36273338D01*
X127463653Y-36273338D02*
X127544465Y-36246401D01*
X127544465Y-36246401D02*
X127598340Y-36246401D01*
X127598340Y-36246401D02*
X127679152Y-36273338D01*
X127679152Y-36273338D02*
X127733027Y-36327213D01*
X127733027Y-36327213D02*
X127759964Y-36408025D01*
X127759964Y-36408025D02*
X127759964Y-36461900D01*
X127759964Y-36461900D02*
X127733027Y-36542712D01*
X127733027Y-36542712D02*
X127544465Y-36731274D01*
X127840776Y-35896215D02*
X128298712Y-36354151D01*
X128298712Y-36354151D02*
X128379524Y-36381088D01*
X128379524Y-36381088D02*
X128433399Y-36381088D01*
X128433399Y-36381088D02*
X128514211Y-36354151D01*
X128514211Y-36354151D02*
X128621961Y-36246401D01*
X128621961Y-36246401D02*
X128648898Y-36165589D01*
X128648898Y-36165589D02*
X128648898Y-36111714D01*
X128648898Y-36111714D02*
X128621961Y-36030902D01*
X128621961Y-36030902D02*
X128164025Y-35572966D01*
X128945210Y-35869277D02*
X129052959Y-35815403D01*
X129052959Y-35815403D02*
X129187646Y-35680716D01*
X129187646Y-35680716D02*
X129214584Y-35599903D01*
X129214584Y-35599903D02*
X129214584Y-35546029D01*
X129214584Y-35546029D02*
X129187646Y-35465216D01*
X129187646Y-35465216D02*
X129133771Y-35411342D01*
X129133771Y-35411342D02*
X129052959Y-35384404D01*
X129052959Y-35384404D02*
X128999084Y-35384404D01*
X128999084Y-35384404D02*
X128918272Y-35411342D01*
X128918272Y-35411342D02*
X128783585Y-35492154D01*
X128783585Y-35492154D02*
X128702773Y-35519091D01*
X128702773Y-35519091D02*
X128648898Y-35519091D01*
X128648898Y-35519091D02*
X128568086Y-35492154D01*
X128568086Y-35492154D02*
X128514211Y-35438279D01*
X128514211Y-35438279D02*
X128487274Y-35357467D01*
X128487274Y-35357467D02*
X128487274Y-35303592D01*
X128487274Y-35303592D02*
X128514211Y-35222780D01*
X128514211Y-35222780D02*
X128648898Y-35088093D01*
X128648898Y-35088093D02*
X128756648Y-35034218D01*
X85233998Y-61990868D02*
X85153185Y-62017805D01*
X85153185Y-62017805D02*
X85072373Y-62098618D01*
X85072373Y-62098618D02*
X85018498Y-62206367D01*
X85018498Y-62206367D02*
X85018498Y-62314117D01*
X85018498Y-62314117D02*
X85045436Y-62394929D01*
X85045436Y-62394929D02*
X85126248Y-62529616D01*
X85126248Y-62529616D02*
X85207060Y-62610428D01*
X85207060Y-62610428D02*
X85341747Y-62691241D01*
X85341747Y-62691241D02*
X85422560Y-62718178D01*
X85422560Y-62718178D02*
X85530309Y-62718178D01*
X85530309Y-62718178D02*
X85638059Y-62664303D01*
X85638059Y-62664303D02*
X85691934Y-62610428D01*
X85691934Y-62610428D02*
X85745808Y-62502679D01*
X85745808Y-62502679D02*
X85745808Y-62448804D01*
X85745808Y-62448804D02*
X85557247Y-62260242D01*
X85557247Y-62260242D02*
X85449497Y-62367992D01*
X86042120Y-62260242D02*
X85476434Y-61694557D01*
X85476434Y-61694557D02*
X85691934Y-61479057D01*
X85691934Y-61479057D02*
X85772746Y-61452120D01*
X85772746Y-61452120D02*
X85826621Y-61452120D01*
X85826621Y-61452120D02*
X85907433Y-61479057D01*
X85907433Y-61479057D02*
X85988245Y-61559870D01*
X85988245Y-61559870D02*
X86015182Y-61640682D01*
X86015182Y-61640682D02*
X86015182Y-61694557D01*
X86015182Y-61694557D02*
X85988245Y-61775369D01*
X85988245Y-61775369D02*
X85772746Y-61990868D01*
X86904117Y-61398245D02*
X86580868Y-61721494D01*
X86742492Y-61559870D02*
X86176807Y-60994184D01*
X86176807Y-60994184D02*
X86203744Y-61128871D01*
X86203744Y-61128871D02*
X86203744Y-61236621D01*
X86203744Y-61236621D02*
X86176807Y-61317433D01*
X86526993Y-60643998D02*
X86877179Y-60293812D01*
X86877179Y-60293812D02*
X86904117Y-60697873D01*
X86904117Y-60697873D02*
X86984929Y-60617060D01*
X86984929Y-60617060D02*
X87065741Y-60590123D01*
X87065741Y-60590123D02*
X87119616Y-60590123D01*
X87119616Y-60590123D02*
X87200428Y-60617060D01*
X87200428Y-60617060D02*
X87335115Y-60751747D01*
X87335115Y-60751747D02*
X87362053Y-60832560D01*
X87362053Y-60832560D02*
X87362053Y-60886434D01*
X87362053Y-60886434D02*
X87335115Y-60967247D01*
X87335115Y-60967247D02*
X87173491Y-61128871D01*
X87173491Y-61128871D02*
X87092679Y-61155808D01*
X87092679Y-61155808D02*
X87038804Y-61155808D01*
X88929998Y-36936868D02*
X88849185Y-36963805D01*
X88849185Y-36963805D02*
X88768373Y-37044618D01*
X88768373Y-37044618D02*
X88714498Y-37152367D01*
X88714498Y-37152367D02*
X88714498Y-37260117D01*
X88714498Y-37260117D02*
X88741436Y-37340929D01*
X88741436Y-37340929D02*
X88822248Y-37475616D01*
X88822248Y-37475616D02*
X88903060Y-37556428D01*
X88903060Y-37556428D02*
X89037747Y-37637241D01*
X89037747Y-37637241D02*
X89118560Y-37664178D01*
X89118560Y-37664178D02*
X89226309Y-37664178D01*
X89226309Y-37664178D02*
X89334059Y-37610303D01*
X89334059Y-37610303D02*
X89387934Y-37556428D01*
X89387934Y-37556428D02*
X89441808Y-37448679D01*
X89441808Y-37448679D02*
X89441808Y-37394804D01*
X89441808Y-37394804D02*
X89253247Y-37206242D01*
X89253247Y-37206242D02*
X89145497Y-37313992D01*
X89738120Y-37206242D02*
X89172434Y-36640557D01*
X89172434Y-36640557D02*
X89387934Y-36425057D01*
X89387934Y-36425057D02*
X89468746Y-36398120D01*
X89468746Y-36398120D02*
X89522621Y-36398120D01*
X89522621Y-36398120D02*
X89603433Y-36425057D01*
X89603433Y-36425057D02*
X89684245Y-36505870D01*
X89684245Y-36505870D02*
X89711182Y-36586682D01*
X89711182Y-36586682D02*
X89711182Y-36640557D01*
X89711182Y-36640557D02*
X89684245Y-36721369D01*
X89684245Y-36721369D02*
X89468746Y-36936868D01*
X90600117Y-36344245D02*
X90276868Y-36667494D01*
X90438492Y-36505870D02*
X89872807Y-35940184D01*
X89872807Y-35940184D02*
X89899744Y-36074871D01*
X89899744Y-36074871D02*
X89899744Y-36182621D01*
X89899744Y-36182621D02*
X89872807Y-36263433D01*
X90869491Y-36074871D02*
X90977240Y-35967121D01*
X90977240Y-35967121D02*
X91004178Y-35886309D01*
X91004178Y-35886309D02*
X91004178Y-35832434D01*
X91004178Y-35832434D02*
X90977240Y-35697747D01*
X90977240Y-35697747D02*
X90896428Y-35563060D01*
X90896428Y-35563060D02*
X90680929Y-35347561D01*
X90680929Y-35347561D02*
X90600117Y-35320624D01*
X90600117Y-35320624D02*
X90546242Y-35320624D01*
X90546242Y-35320624D02*
X90465430Y-35347561D01*
X90465430Y-35347561D02*
X90357680Y-35455311D01*
X90357680Y-35455311D02*
X90330743Y-35536123D01*
X90330743Y-35536123D02*
X90330743Y-35589998D01*
X90330743Y-35589998D02*
X90357680Y-35670810D01*
X90357680Y-35670810D02*
X90492367Y-35805497D01*
X90492367Y-35805497D02*
X90573179Y-35832434D01*
X90573179Y-35832434D02*
X90627054Y-35832434D01*
X90627054Y-35832434D02*
X90707866Y-35805497D01*
X90707866Y-35805497D02*
X90815616Y-35697747D01*
X90815616Y-35697747D02*
X90842553Y-35616935D01*
X90842553Y-35616935D02*
X90842553Y-35563060D01*
X90842553Y-35563060D02*
X90815616Y-35482248D01*
X87773998Y-62136868D02*
X87693185Y-62163805D01*
X87693185Y-62163805D02*
X87612373Y-62244618D01*
X87612373Y-62244618D02*
X87558498Y-62352367D01*
X87558498Y-62352367D02*
X87558498Y-62460117D01*
X87558498Y-62460117D02*
X87585436Y-62540929D01*
X87585436Y-62540929D02*
X87666248Y-62675616D01*
X87666248Y-62675616D02*
X87747060Y-62756428D01*
X87747060Y-62756428D02*
X87881747Y-62837241D01*
X87881747Y-62837241D02*
X87962560Y-62864178D01*
X87962560Y-62864178D02*
X88070309Y-62864178D01*
X88070309Y-62864178D02*
X88178059Y-62810303D01*
X88178059Y-62810303D02*
X88231934Y-62756428D01*
X88231934Y-62756428D02*
X88285808Y-62648679D01*
X88285808Y-62648679D02*
X88285808Y-62594804D01*
X88285808Y-62594804D02*
X88097247Y-62406242D01*
X88097247Y-62406242D02*
X87989497Y-62513992D01*
X88582120Y-62406242D02*
X88016434Y-61840557D01*
X88016434Y-61840557D02*
X88231934Y-61625057D01*
X88231934Y-61625057D02*
X88312746Y-61598120D01*
X88312746Y-61598120D02*
X88366621Y-61598120D01*
X88366621Y-61598120D02*
X88447433Y-61625057D01*
X88447433Y-61625057D02*
X88528245Y-61705870D01*
X88528245Y-61705870D02*
X88555182Y-61786682D01*
X88555182Y-61786682D02*
X88555182Y-61840557D01*
X88555182Y-61840557D02*
X88528245Y-61921369D01*
X88528245Y-61921369D02*
X88312746Y-62136868D01*
X89444117Y-61544245D02*
X89120868Y-61867494D01*
X89282492Y-61705870D02*
X88716807Y-61140184D01*
X88716807Y-61140184D02*
X88743744Y-61274871D01*
X88743744Y-61274871D02*
X88743744Y-61382621D01*
X88743744Y-61382621D02*
X88716807Y-61463433D01*
X89147805Y-60816935D02*
X89147805Y-60763060D01*
X89147805Y-60763060D02*
X89174743Y-60682248D01*
X89174743Y-60682248D02*
X89309430Y-60547561D01*
X89309430Y-60547561D02*
X89390242Y-60520624D01*
X89390242Y-60520624D02*
X89444117Y-60520624D01*
X89444117Y-60520624D02*
X89524929Y-60547561D01*
X89524929Y-60547561D02*
X89578804Y-60601436D01*
X89578804Y-60601436D02*
X89632679Y-60709186D01*
X89632679Y-60709186D02*
X89632679Y-61355683D01*
X89632679Y-61355683D02*
X89982865Y-61005497D01*
X105823372Y-61467494D02*
X105742560Y-61494431D01*
X105742560Y-61494431D02*
X105661748Y-61575243D01*
X105661748Y-61575243D02*
X105607873Y-61682993D01*
X105607873Y-61682993D02*
X105607873Y-61790742D01*
X105607873Y-61790742D02*
X105634810Y-61871555D01*
X105634810Y-61871555D02*
X105715623Y-62006242D01*
X105715623Y-62006242D02*
X105796435Y-62087054D01*
X105796435Y-62087054D02*
X105931122Y-62167866D01*
X105931122Y-62167866D02*
X106011934Y-62194803D01*
X106011934Y-62194803D02*
X106119684Y-62194803D01*
X106119684Y-62194803D02*
X106227433Y-62140929D01*
X106227433Y-62140929D02*
X106281308Y-62087054D01*
X106281308Y-62087054D02*
X106335183Y-61979304D01*
X106335183Y-61979304D02*
X106335183Y-61925429D01*
X106335183Y-61925429D02*
X106146621Y-61736868D01*
X106146621Y-61736868D02*
X106038871Y-61844617D01*
X106631494Y-61736868D02*
X106065809Y-61171182D01*
X106065809Y-61171182D02*
X106281308Y-60955683D01*
X106281308Y-60955683D02*
X106362120Y-60928746D01*
X106362120Y-60928746D02*
X106415995Y-60928746D01*
X106415995Y-60928746D02*
X106496807Y-60955683D01*
X106496807Y-60955683D02*
X106577619Y-61036495D01*
X106577619Y-61036495D02*
X106604557Y-61117307D01*
X106604557Y-61117307D02*
X106604557Y-61171182D01*
X106604557Y-61171182D02*
X106577619Y-61251994D01*
X106577619Y-61251994D02*
X106362120Y-61467494D01*
X106873931Y-60363060D02*
X106766181Y-60470810D01*
X106766181Y-60470810D02*
X106739244Y-60551622D01*
X106739244Y-60551622D02*
X106739244Y-60605497D01*
X106739244Y-60605497D02*
X106766181Y-60740184D01*
X106766181Y-60740184D02*
X106846993Y-60874871D01*
X106846993Y-60874871D02*
X107062493Y-61090370D01*
X107062493Y-61090370D02*
X107143305Y-61117307D01*
X107143305Y-61117307D02*
X107197180Y-61117307D01*
X107197180Y-61117307D02*
X107277992Y-61090370D01*
X107277992Y-61090370D02*
X107385741Y-60982620D01*
X107385741Y-60982620D02*
X107412679Y-60901808D01*
X107412679Y-60901808D02*
X107412679Y-60847933D01*
X107412679Y-60847933D02*
X107385741Y-60767121D01*
X107385741Y-60767121D02*
X107251054Y-60632434D01*
X107251054Y-60632434D02*
X107170242Y-60605497D01*
X107170242Y-60605497D02*
X107116367Y-60605497D01*
X107116367Y-60605497D02*
X107035555Y-60632434D01*
X107035555Y-60632434D02*
X106927806Y-60740184D01*
X106927806Y-60740184D02*
X106900868Y-60820996D01*
X106900868Y-60820996D02*
X106900868Y-60874871D01*
X106900868Y-60874871D02*
X106927806Y-60955683D01*
X123613372Y-61567494D02*
X123532560Y-61594431D01*
X123532560Y-61594431D02*
X123451748Y-61675243D01*
X123451748Y-61675243D02*
X123397873Y-61782993D01*
X123397873Y-61782993D02*
X123397873Y-61890742D01*
X123397873Y-61890742D02*
X123424810Y-61971555D01*
X123424810Y-61971555D02*
X123505623Y-62106242D01*
X123505623Y-62106242D02*
X123586435Y-62187054D01*
X123586435Y-62187054D02*
X123721122Y-62267866D01*
X123721122Y-62267866D02*
X123801934Y-62294803D01*
X123801934Y-62294803D02*
X123909684Y-62294803D01*
X123909684Y-62294803D02*
X124017433Y-62240929D01*
X124017433Y-62240929D02*
X124071308Y-62187054D01*
X124071308Y-62187054D02*
X124125183Y-62079304D01*
X124125183Y-62079304D02*
X124125183Y-62025429D01*
X124125183Y-62025429D02*
X123936621Y-61836868D01*
X123936621Y-61836868D02*
X123828871Y-61944617D01*
X124421494Y-61836868D02*
X123855809Y-61271182D01*
X123855809Y-61271182D02*
X124071308Y-61055683D01*
X124071308Y-61055683D02*
X124152120Y-61028746D01*
X124152120Y-61028746D02*
X124205995Y-61028746D01*
X124205995Y-61028746D02*
X124286807Y-61055683D01*
X124286807Y-61055683D02*
X124367619Y-61136495D01*
X124367619Y-61136495D02*
X124394557Y-61217307D01*
X124394557Y-61217307D02*
X124394557Y-61271182D01*
X124394557Y-61271182D02*
X124367619Y-61351994D01*
X124367619Y-61351994D02*
X124152120Y-61567494D01*
X125283491Y-60974871D02*
X124960242Y-61298120D01*
X125121867Y-61136495D02*
X124556181Y-60570810D01*
X124556181Y-60570810D02*
X124583119Y-60705497D01*
X124583119Y-60705497D02*
X124583119Y-60813246D01*
X124583119Y-60813246D02*
X124556181Y-60894059D01*
X102424651Y-37273710D02*
X101966716Y-37192898D01*
X102101403Y-37596959D02*
X101535717Y-37031274D01*
X101535717Y-37031274D02*
X101751216Y-36815775D01*
X101751216Y-36815775D02*
X101832029Y-36788837D01*
X101832029Y-36788837D02*
X101885903Y-36788837D01*
X101885903Y-36788837D02*
X101966716Y-36815775D01*
X101966716Y-36815775D02*
X102047528Y-36896587D01*
X102047528Y-36896587D02*
X102074465Y-36977399D01*
X102074465Y-36977399D02*
X102074465Y-37031274D01*
X102074465Y-37031274D02*
X102047528Y-37112086D01*
X102047528Y-37112086D02*
X101832029Y-37327585D01*
X102101403Y-36465588D02*
X102559338Y-36923524D01*
X102559338Y-36923524D02*
X102640151Y-36950462D01*
X102640151Y-36950462D02*
X102694025Y-36950462D01*
X102694025Y-36950462D02*
X102774838Y-36923524D01*
X102774838Y-36923524D02*
X102882587Y-36815775D01*
X102882587Y-36815775D02*
X102909525Y-36734962D01*
X102909525Y-36734962D02*
X102909525Y-36681088D01*
X102909525Y-36681088D02*
X102882587Y-36600275D01*
X102882587Y-36600275D02*
X102424651Y-36142340D01*
X103259711Y-36438651D02*
X102694025Y-35872966D01*
X102694025Y-35872966D02*
X103582959Y-36115402D01*
X103582959Y-36115402D02*
X103017274Y-35549717D01*
X86389998Y-36936868D02*
X86309185Y-36963805D01*
X86309185Y-36963805D02*
X86228373Y-37044618D01*
X86228373Y-37044618D02*
X86174498Y-37152367D01*
X86174498Y-37152367D02*
X86174498Y-37260117D01*
X86174498Y-37260117D02*
X86201436Y-37340929D01*
X86201436Y-37340929D02*
X86282248Y-37475616D01*
X86282248Y-37475616D02*
X86363060Y-37556428D01*
X86363060Y-37556428D02*
X86497747Y-37637241D01*
X86497747Y-37637241D02*
X86578560Y-37664178D01*
X86578560Y-37664178D02*
X86686309Y-37664178D01*
X86686309Y-37664178D02*
X86794059Y-37610303D01*
X86794059Y-37610303D02*
X86847934Y-37556428D01*
X86847934Y-37556428D02*
X86901808Y-37448679D01*
X86901808Y-37448679D02*
X86901808Y-37394804D01*
X86901808Y-37394804D02*
X86713247Y-37206242D01*
X86713247Y-37206242D02*
X86605497Y-37313992D01*
X87198120Y-37206242D02*
X86632434Y-36640557D01*
X86632434Y-36640557D02*
X86847934Y-36425057D01*
X86847934Y-36425057D02*
X86928746Y-36398120D01*
X86928746Y-36398120D02*
X86982621Y-36398120D01*
X86982621Y-36398120D02*
X87063433Y-36425057D01*
X87063433Y-36425057D02*
X87144245Y-36505870D01*
X87144245Y-36505870D02*
X87171182Y-36586682D01*
X87171182Y-36586682D02*
X87171182Y-36640557D01*
X87171182Y-36640557D02*
X87144245Y-36721369D01*
X87144245Y-36721369D02*
X86928746Y-36936868D01*
X88060117Y-36344245D02*
X87736868Y-36667494D01*
X87898492Y-36505870D02*
X87332807Y-35940184D01*
X87332807Y-35940184D02*
X87359744Y-36074871D01*
X87359744Y-36074871D02*
X87359744Y-36182621D01*
X87359744Y-36182621D02*
X87332807Y-36263433D01*
X88060117Y-35697747D02*
X87979305Y-35724685D01*
X87979305Y-35724685D02*
X87925430Y-35724685D01*
X87925430Y-35724685D02*
X87844618Y-35697747D01*
X87844618Y-35697747D02*
X87817680Y-35670810D01*
X87817680Y-35670810D02*
X87790743Y-35589998D01*
X87790743Y-35589998D02*
X87790743Y-35536123D01*
X87790743Y-35536123D02*
X87817680Y-35455311D01*
X87817680Y-35455311D02*
X87925430Y-35347561D01*
X87925430Y-35347561D02*
X88006242Y-35320624D01*
X88006242Y-35320624D02*
X88060117Y-35320624D01*
X88060117Y-35320624D02*
X88140929Y-35347561D01*
X88140929Y-35347561D02*
X88167866Y-35374499D01*
X88167866Y-35374499D02*
X88194804Y-35455311D01*
X88194804Y-35455311D02*
X88194804Y-35509186D01*
X88194804Y-35509186D02*
X88167866Y-35589998D01*
X88167866Y-35589998D02*
X88060117Y-35697747D01*
X88060117Y-35697747D02*
X88033179Y-35778560D01*
X88033179Y-35778560D02*
X88033179Y-35832434D01*
X88033179Y-35832434D02*
X88060117Y-35913247D01*
X88060117Y-35913247D02*
X88167866Y-36020996D01*
X88167866Y-36020996D02*
X88248679Y-36047934D01*
X88248679Y-36047934D02*
X88302553Y-36047934D01*
X88302553Y-36047934D02*
X88383366Y-36020996D01*
X88383366Y-36020996D02*
X88491115Y-35913247D01*
X88491115Y-35913247D02*
X88518053Y-35832434D01*
X88518053Y-35832434D02*
X88518053Y-35778560D01*
X88518053Y-35778560D02*
X88491115Y-35697747D01*
X88491115Y-35697747D02*
X88383366Y-35589998D01*
X88383366Y-35589998D02*
X88302553Y-35563060D01*
X88302553Y-35563060D02*
X88248679Y-35563060D01*
X88248679Y-35563060D02*
X88167866Y-35589998D01*
X115983372Y-61467494D02*
X115902560Y-61494431D01*
X115902560Y-61494431D02*
X115821748Y-61575243D01*
X115821748Y-61575243D02*
X115767873Y-61682993D01*
X115767873Y-61682993D02*
X115767873Y-61790742D01*
X115767873Y-61790742D02*
X115794810Y-61871555D01*
X115794810Y-61871555D02*
X115875623Y-62006242D01*
X115875623Y-62006242D02*
X115956435Y-62087054D01*
X115956435Y-62087054D02*
X116091122Y-62167866D01*
X116091122Y-62167866D02*
X116171934Y-62194803D01*
X116171934Y-62194803D02*
X116279684Y-62194803D01*
X116279684Y-62194803D02*
X116387433Y-62140929D01*
X116387433Y-62140929D02*
X116441308Y-62087054D01*
X116441308Y-62087054D02*
X116495183Y-61979304D01*
X116495183Y-61979304D02*
X116495183Y-61925429D01*
X116495183Y-61925429D02*
X116306621Y-61736868D01*
X116306621Y-61736868D02*
X116198871Y-61844617D01*
X116791494Y-61736868D02*
X116225809Y-61171182D01*
X116225809Y-61171182D02*
X116441308Y-60955683D01*
X116441308Y-60955683D02*
X116522120Y-60928746D01*
X116522120Y-60928746D02*
X116575995Y-60928746D01*
X116575995Y-60928746D02*
X116656807Y-60955683D01*
X116656807Y-60955683D02*
X116737619Y-61036495D01*
X116737619Y-61036495D02*
X116764557Y-61117307D01*
X116764557Y-61117307D02*
X116764557Y-61171182D01*
X116764557Y-61171182D02*
X116737619Y-61251994D01*
X116737619Y-61251994D02*
X116522120Y-61467494D01*
X116737619Y-60659372D02*
X117087806Y-60309185D01*
X117087806Y-60309185D02*
X117114743Y-60713246D01*
X117114743Y-60713246D02*
X117195555Y-60632434D01*
X117195555Y-60632434D02*
X117276367Y-60605497D01*
X117276367Y-60605497D02*
X117330242Y-60605497D01*
X117330242Y-60605497D02*
X117411054Y-60632434D01*
X117411054Y-60632434D02*
X117545741Y-60767121D01*
X117545741Y-60767121D02*
X117572679Y-60847933D01*
X117572679Y-60847933D02*
X117572679Y-60901808D01*
X117572679Y-60901808D02*
X117545741Y-60982620D01*
X117545741Y-60982620D02*
X117384117Y-61144245D01*
X117384117Y-61144245D02*
X117303305Y-61171182D01*
X117303305Y-61171182D02*
X117249430Y-61171182D01*
X81309998Y-36936868D02*
X81229185Y-36963805D01*
X81229185Y-36963805D02*
X81148373Y-37044618D01*
X81148373Y-37044618D02*
X81094498Y-37152367D01*
X81094498Y-37152367D02*
X81094498Y-37260117D01*
X81094498Y-37260117D02*
X81121436Y-37340929D01*
X81121436Y-37340929D02*
X81202248Y-37475616D01*
X81202248Y-37475616D02*
X81283060Y-37556428D01*
X81283060Y-37556428D02*
X81417747Y-37637241D01*
X81417747Y-37637241D02*
X81498560Y-37664178D01*
X81498560Y-37664178D02*
X81606309Y-37664178D01*
X81606309Y-37664178D02*
X81714059Y-37610303D01*
X81714059Y-37610303D02*
X81767934Y-37556428D01*
X81767934Y-37556428D02*
X81821808Y-37448679D01*
X81821808Y-37448679D02*
X81821808Y-37394804D01*
X81821808Y-37394804D02*
X81633247Y-37206242D01*
X81633247Y-37206242D02*
X81525497Y-37313992D01*
X82118120Y-37206242D02*
X81552434Y-36640557D01*
X81552434Y-36640557D02*
X81767934Y-36425057D01*
X81767934Y-36425057D02*
X81848746Y-36398120D01*
X81848746Y-36398120D02*
X81902621Y-36398120D01*
X81902621Y-36398120D02*
X81983433Y-36425057D01*
X81983433Y-36425057D02*
X82064245Y-36505870D01*
X82064245Y-36505870D02*
X82091182Y-36586682D01*
X82091182Y-36586682D02*
X82091182Y-36640557D01*
X82091182Y-36640557D02*
X82064245Y-36721369D01*
X82064245Y-36721369D02*
X81848746Y-36936868D01*
X82980117Y-36344245D02*
X82656868Y-36667494D01*
X82818492Y-36505870D02*
X82252807Y-35940184D01*
X82252807Y-35940184D02*
X82279744Y-36074871D01*
X82279744Y-36074871D02*
X82279744Y-36182621D01*
X82279744Y-36182621D02*
X82252807Y-36263433D01*
X82602993Y-35589998D02*
X82980117Y-35212874D01*
X82980117Y-35212874D02*
X83303366Y-36020996D01*
X118523372Y-61567494D02*
X118442560Y-61594431D01*
X118442560Y-61594431D02*
X118361748Y-61675243D01*
X118361748Y-61675243D02*
X118307873Y-61782993D01*
X118307873Y-61782993D02*
X118307873Y-61890742D01*
X118307873Y-61890742D02*
X118334810Y-61971555D01*
X118334810Y-61971555D02*
X118415623Y-62106242D01*
X118415623Y-62106242D02*
X118496435Y-62187054D01*
X118496435Y-62187054D02*
X118631122Y-62267866D01*
X118631122Y-62267866D02*
X118711934Y-62294803D01*
X118711934Y-62294803D02*
X118819684Y-62294803D01*
X118819684Y-62294803D02*
X118927433Y-62240929D01*
X118927433Y-62240929D02*
X118981308Y-62187054D01*
X118981308Y-62187054D02*
X119035183Y-62079304D01*
X119035183Y-62079304D02*
X119035183Y-62025429D01*
X119035183Y-62025429D02*
X118846621Y-61836868D01*
X118846621Y-61836868D02*
X118738871Y-61944617D01*
X119331494Y-61836868D02*
X118765809Y-61271182D01*
X118765809Y-61271182D02*
X118981308Y-61055683D01*
X118981308Y-61055683D02*
X119062120Y-61028746D01*
X119062120Y-61028746D02*
X119115995Y-61028746D01*
X119115995Y-61028746D02*
X119196807Y-61055683D01*
X119196807Y-61055683D02*
X119277619Y-61136495D01*
X119277619Y-61136495D02*
X119304557Y-61217307D01*
X119304557Y-61217307D02*
X119304557Y-61271182D01*
X119304557Y-61271182D02*
X119277619Y-61351994D01*
X119277619Y-61351994D02*
X119062120Y-61567494D01*
X119358432Y-60786309D02*
X119358432Y-60732434D01*
X119358432Y-60732434D02*
X119385369Y-60651622D01*
X119385369Y-60651622D02*
X119520056Y-60516935D01*
X119520056Y-60516935D02*
X119600868Y-60489998D01*
X119600868Y-60489998D02*
X119654743Y-60489998D01*
X119654743Y-60489998D02*
X119735555Y-60516935D01*
X119735555Y-60516935D02*
X119789430Y-60570810D01*
X119789430Y-60570810D02*
X119843305Y-60678559D01*
X119843305Y-60678559D02*
X119843305Y-61325057D01*
X119843305Y-61325057D02*
X120193491Y-60974871D01*
X96208435Y-61431431D02*
X96127623Y-61458368D01*
X96127623Y-61458368D02*
X96046811Y-61539180D01*
X96046811Y-61539180D02*
X95992936Y-61646930D01*
X95992936Y-61646930D02*
X95992936Y-61754680D01*
X95992936Y-61754680D02*
X96019873Y-61835492D01*
X96019873Y-61835492D02*
X96100685Y-61970179D01*
X96100685Y-61970179D02*
X96181498Y-62050991D01*
X96181498Y-62050991D02*
X96316185Y-62131803D01*
X96316185Y-62131803D02*
X96396997Y-62158741D01*
X96396997Y-62158741D02*
X96504746Y-62158741D01*
X96504746Y-62158741D02*
X96612496Y-62104866D01*
X96612496Y-62104866D02*
X96666371Y-62050991D01*
X96666371Y-62050991D02*
X96720246Y-61943241D01*
X96720246Y-61943241D02*
X96720246Y-61889367D01*
X96720246Y-61889367D02*
X96531684Y-61700805D01*
X96531684Y-61700805D02*
X96423934Y-61808554D01*
X97016557Y-61700805D02*
X96450872Y-61135119D01*
X96450872Y-61135119D02*
X97339806Y-61377556D01*
X97339806Y-61377556D02*
X96774120Y-60811871D01*
X97609180Y-61108182D02*
X97043494Y-60542497D01*
X97043494Y-60542497D02*
X97178181Y-60407810D01*
X97178181Y-60407810D02*
X97285931Y-60353935D01*
X97285931Y-60353935D02*
X97393680Y-60353935D01*
X97393680Y-60353935D02*
X97474493Y-60380872D01*
X97474493Y-60380872D02*
X97609180Y-60461685D01*
X97609180Y-60461685D02*
X97689992Y-60542497D01*
X97689992Y-60542497D02*
X97770804Y-60677184D01*
X97770804Y-60677184D02*
X97797741Y-60757996D01*
X97797741Y-60757996D02*
X97797741Y-60865746D01*
X97797741Y-60865746D02*
X97743867Y-60973495D01*
X97743867Y-60973495D02*
X97609180Y-61108182D01*
X99089998Y-36936868D02*
X99009185Y-36963805D01*
X99009185Y-36963805D02*
X98928373Y-37044618D01*
X98928373Y-37044618D02*
X98874498Y-37152367D01*
X98874498Y-37152367D02*
X98874498Y-37260117D01*
X98874498Y-37260117D02*
X98901436Y-37340929D01*
X98901436Y-37340929D02*
X98982248Y-37475616D01*
X98982248Y-37475616D02*
X99063060Y-37556428D01*
X99063060Y-37556428D02*
X99197747Y-37637241D01*
X99197747Y-37637241D02*
X99278560Y-37664178D01*
X99278560Y-37664178D02*
X99386309Y-37664178D01*
X99386309Y-37664178D02*
X99494059Y-37610303D01*
X99494059Y-37610303D02*
X99547934Y-37556428D01*
X99547934Y-37556428D02*
X99601808Y-37448679D01*
X99601808Y-37448679D02*
X99601808Y-37394804D01*
X99601808Y-37394804D02*
X99413247Y-37206242D01*
X99413247Y-37206242D02*
X99305497Y-37313992D01*
X99898120Y-37206242D02*
X99332434Y-36640557D01*
X99332434Y-36640557D02*
X99547934Y-36425057D01*
X99547934Y-36425057D02*
X99628746Y-36398120D01*
X99628746Y-36398120D02*
X99682621Y-36398120D01*
X99682621Y-36398120D02*
X99763433Y-36425057D01*
X99763433Y-36425057D02*
X99844245Y-36505870D01*
X99844245Y-36505870D02*
X99871182Y-36586682D01*
X99871182Y-36586682D02*
X99871182Y-36640557D01*
X99871182Y-36640557D02*
X99844245Y-36721369D01*
X99844245Y-36721369D02*
X99628746Y-36936868D01*
X99925057Y-36155683D02*
X99925057Y-36101809D01*
X99925057Y-36101809D02*
X99951995Y-36020996D01*
X99951995Y-36020996D02*
X100086682Y-35886309D01*
X100086682Y-35886309D02*
X100167494Y-35859372D01*
X100167494Y-35859372D02*
X100221369Y-35859372D01*
X100221369Y-35859372D02*
X100302181Y-35886309D01*
X100302181Y-35886309D02*
X100356056Y-35940184D01*
X100356056Y-35940184D02*
X100409930Y-36047934D01*
X100409930Y-36047934D02*
X100409930Y-36694431D01*
X100409930Y-36694431D02*
X100760117Y-36344245D01*
X100463805Y-35616935D02*
X100463805Y-35563060D01*
X100463805Y-35563060D02*
X100490743Y-35482248D01*
X100490743Y-35482248D02*
X100625430Y-35347561D01*
X100625430Y-35347561D02*
X100706242Y-35320624D01*
X100706242Y-35320624D02*
X100760117Y-35320624D01*
X100760117Y-35320624D02*
X100840929Y-35347561D01*
X100840929Y-35347561D02*
X100894804Y-35401436D01*
X100894804Y-35401436D02*
X100948679Y-35509186D01*
X100948679Y-35509186D02*
X100948679Y-36155683D01*
X100948679Y-36155683D02*
X101298865Y-35805497D01*
X126143372Y-61467494D02*
X126062560Y-61494431D01*
X126062560Y-61494431D02*
X125981748Y-61575243D01*
X125981748Y-61575243D02*
X125927873Y-61682993D01*
X125927873Y-61682993D02*
X125927873Y-61790742D01*
X125927873Y-61790742D02*
X125954810Y-61871555D01*
X125954810Y-61871555D02*
X126035623Y-62006242D01*
X126035623Y-62006242D02*
X126116435Y-62087054D01*
X126116435Y-62087054D02*
X126251122Y-62167866D01*
X126251122Y-62167866D02*
X126331934Y-62194803D01*
X126331934Y-62194803D02*
X126439684Y-62194803D01*
X126439684Y-62194803D02*
X126547433Y-62140929D01*
X126547433Y-62140929D02*
X126601308Y-62087054D01*
X126601308Y-62087054D02*
X126655183Y-61979304D01*
X126655183Y-61979304D02*
X126655183Y-61925429D01*
X126655183Y-61925429D02*
X126466621Y-61736868D01*
X126466621Y-61736868D02*
X126358871Y-61844617D01*
X126951494Y-61736868D02*
X126385809Y-61171182D01*
X126385809Y-61171182D02*
X126601308Y-60955683D01*
X126601308Y-60955683D02*
X126682120Y-60928746D01*
X126682120Y-60928746D02*
X126735995Y-60928746D01*
X126735995Y-60928746D02*
X126816807Y-60955683D01*
X126816807Y-60955683D02*
X126897619Y-61036495D01*
X126897619Y-61036495D02*
X126924557Y-61117307D01*
X126924557Y-61117307D02*
X126924557Y-61171182D01*
X126924557Y-61171182D02*
X126897619Y-61251994D01*
X126897619Y-61251994D02*
X126682120Y-61467494D01*
X127059244Y-60497747D02*
X127113119Y-60443872D01*
X127113119Y-60443872D02*
X127193931Y-60416935D01*
X127193931Y-60416935D02*
X127247806Y-60416935D01*
X127247806Y-60416935D02*
X127328618Y-60443872D01*
X127328618Y-60443872D02*
X127463305Y-60524685D01*
X127463305Y-60524685D02*
X127597992Y-60659372D01*
X127597992Y-60659372D02*
X127678804Y-60794059D01*
X127678804Y-60794059D02*
X127705741Y-60874871D01*
X127705741Y-60874871D02*
X127705741Y-60928746D01*
X127705741Y-60928746D02*
X127678804Y-61009558D01*
X127678804Y-61009558D02*
X127624929Y-61063433D01*
X127624929Y-61063433D02*
X127544117Y-61090370D01*
X127544117Y-61090370D02*
X127490242Y-61090370D01*
X127490242Y-61090370D02*
X127409430Y-61063433D01*
X127409430Y-61063433D02*
X127274743Y-60982620D01*
X127274743Y-60982620D02*
X127140056Y-60847933D01*
X127140056Y-60847933D02*
X127059244Y-60713246D01*
X127059244Y-60713246D02*
X127032306Y-60632434D01*
X127032306Y-60632434D02*
X127032306Y-60578559D01*
X127032306Y-60578559D02*
X127059244Y-60497747D01*
X116746123Y-37090868D02*
X117096309Y-36740682D01*
X117096309Y-36740682D02*
X117123247Y-37144743D01*
X117123247Y-37144743D02*
X117204059Y-37063931D01*
X117204059Y-37063931D02*
X117284871Y-37036993D01*
X117284871Y-37036993D02*
X117338746Y-37036993D01*
X117338746Y-37036993D02*
X117419558Y-37063931D01*
X117419558Y-37063931D02*
X117554245Y-37198618D01*
X117554245Y-37198618D02*
X117581182Y-37279430D01*
X117581182Y-37279430D02*
X117581182Y-37333305D01*
X117581182Y-37333305D02*
X117554245Y-37414117D01*
X117554245Y-37414117D02*
X117392621Y-37575741D01*
X117392621Y-37575741D02*
X117311808Y-37602679D01*
X117311808Y-37602679D02*
X117257934Y-37602679D01*
X117257934Y-36579057D02*
X118012181Y-36956181D01*
X118012181Y-36956181D02*
X117635057Y-36201934D01*
X117769744Y-36067247D02*
X118119930Y-35717061D01*
X118119930Y-35717061D02*
X118146868Y-36121122D01*
X118146868Y-36121122D02*
X118227680Y-36040309D01*
X118227680Y-36040309D02*
X118308492Y-36013372D01*
X118308492Y-36013372D02*
X118362367Y-36013372D01*
X118362367Y-36013372D02*
X118443179Y-36040309D01*
X118443179Y-36040309D02*
X118577866Y-36174996D01*
X118577866Y-36174996D02*
X118604804Y-36255809D01*
X118604804Y-36255809D02*
X118604804Y-36309683D01*
X118604804Y-36309683D02*
X118577866Y-36390496D01*
X118577866Y-36390496D02*
X118416242Y-36552120D01*
X118416242Y-36552120D02*
X118335430Y-36579057D01*
X118335430Y-36579057D02*
X118281555Y-36579057D01*
X103313372Y-61367494D02*
X103232560Y-61394431D01*
X103232560Y-61394431D02*
X103151748Y-61475243D01*
X103151748Y-61475243D02*
X103097873Y-61582993D01*
X103097873Y-61582993D02*
X103097873Y-61690742D01*
X103097873Y-61690742D02*
X103124810Y-61771555D01*
X103124810Y-61771555D02*
X103205623Y-61906242D01*
X103205623Y-61906242D02*
X103286435Y-61987054D01*
X103286435Y-61987054D02*
X103421122Y-62067866D01*
X103421122Y-62067866D02*
X103501934Y-62094803D01*
X103501934Y-62094803D02*
X103609684Y-62094803D01*
X103609684Y-62094803D02*
X103717433Y-62040929D01*
X103717433Y-62040929D02*
X103771308Y-61987054D01*
X103771308Y-61987054D02*
X103825183Y-61879304D01*
X103825183Y-61879304D02*
X103825183Y-61825429D01*
X103825183Y-61825429D02*
X103636621Y-61636868D01*
X103636621Y-61636868D02*
X103528871Y-61744617D01*
X104121494Y-61636868D02*
X103555809Y-61071182D01*
X103555809Y-61071182D02*
X103771308Y-60855683D01*
X103771308Y-60855683D02*
X103852120Y-60828746D01*
X103852120Y-60828746D02*
X103905995Y-60828746D01*
X103905995Y-60828746D02*
X103986807Y-60855683D01*
X103986807Y-60855683D02*
X104067619Y-60936495D01*
X104067619Y-60936495D02*
X104094557Y-61017307D01*
X104094557Y-61017307D02*
X104094557Y-61071182D01*
X104094557Y-61071182D02*
X104067619Y-61151994D01*
X104067619Y-61151994D02*
X103852120Y-61367494D01*
X104067619Y-60559372D02*
X104444743Y-60182248D01*
X104444743Y-60182248D02*
X104767992Y-60990370D01*
X113443372Y-61467494D02*
X113362560Y-61494431D01*
X113362560Y-61494431D02*
X113281748Y-61575243D01*
X113281748Y-61575243D02*
X113227873Y-61682993D01*
X113227873Y-61682993D02*
X113227873Y-61790742D01*
X113227873Y-61790742D02*
X113254810Y-61871555D01*
X113254810Y-61871555D02*
X113335623Y-62006242D01*
X113335623Y-62006242D02*
X113416435Y-62087054D01*
X113416435Y-62087054D02*
X113551122Y-62167866D01*
X113551122Y-62167866D02*
X113631934Y-62194803D01*
X113631934Y-62194803D02*
X113739684Y-62194803D01*
X113739684Y-62194803D02*
X113847433Y-62140929D01*
X113847433Y-62140929D02*
X113901308Y-62087054D01*
X113901308Y-62087054D02*
X113955183Y-61979304D01*
X113955183Y-61979304D02*
X113955183Y-61925429D01*
X113955183Y-61925429D02*
X113766621Y-61736868D01*
X113766621Y-61736868D02*
X113658871Y-61844617D01*
X114251494Y-61736868D02*
X113685809Y-61171182D01*
X113685809Y-61171182D02*
X113901308Y-60955683D01*
X113901308Y-60955683D02*
X113982120Y-60928746D01*
X113982120Y-60928746D02*
X114035995Y-60928746D01*
X114035995Y-60928746D02*
X114116807Y-60955683D01*
X114116807Y-60955683D02*
X114197619Y-61036495D01*
X114197619Y-61036495D02*
X114224557Y-61117307D01*
X114224557Y-61117307D02*
X114224557Y-61171182D01*
X114224557Y-61171182D02*
X114197619Y-61251994D01*
X114197619Y-61251994D02*
X113982120Y-61467494D01*
X114682493Y-60551622D02*
X115059616Y-60928746D01*
X114332306Y-60470810D02*
X114601680Y-61009558D01*
X114601680Y-61009558D02*
X114951867Y-60659372D01*
X109303873Y-37637240D02*
X109573247Y-37367866D01*
X109411623Y-37852739D02*
X109034499Y-37098492D01*
X109034499Y-37098492D02*
X109788746Y-37475615D01*
X109734871Y-36451994D02*
X109654059Y-36478932D01*
X109654059Y-36478932D02*
X109573247Y-36559744D01*
X109573247Y-36559744D02*
X109519372Y-36667494D01*
X109519372Y-36667494D02*
X109519372Y-36775243D01*
X109519372Y-36775243D02*
X109546310Y-36856055D01*
X109546310Y-36856055D02*
X109627122Y-36990742D01*
X109627122Y-36990742D02*
X109707934Y-37071555D01*
X109707934Y-37071555D02*
X109842621Y-37152367D01*
X109842621Y-37152367D02*
X109923433Y-37179304D01*
X109923433Y-37179304D02*
X110031183Y-37179304D01*
X110031183Y-37179304D02*
X110138932Y-37125429D01*
X110138932Y-37125429D02*
X110192807Y-37071555D01*
X110192807Y-37071555D02*
X110246682Y-36963805D01*
X110246682Y-36963805D02*
X110246682Y-36909930D01*
X110246682Y-36909930D02*
X110058120Y-36721368D01*
X110058120Y-36721368D02*
X109950371Y-36829118D01*
X110542993Y-36721368D02*
X109977308Y-36155683D01*
X109977308Y-36155683D02*
X110866242Y-36398120D01*
X110866242Y-36398120D02*
X110300557Y-35832434D01*
X111135616Y-36128746D02*
X110569931Y-35563060D01*
X110569931Y-35563060D02*
X110704618Y-35428373D01*
X110704618Y-35428373D02*
X110812367Y-35374498D01*
X110812367Y-35374498D02*
X110920117Y-35374498D01*
X110920117Y-35374498D02*
X111000929Y-35401436D01*
X111000929Y-35401436D02*
X111135616Y-35482248D01*
X111135616Y-35482248D02*
X111216428Y-35563060D01*
X111216428Y-35563060D02*
X111297241Y-35697747D01*
X111297241Y-35697747D02*
X111324178Y-35778560D01*
X111324178Y-35778560D02*
X111324178Y-35886309D01*
X111324178Y-35886309D02*
X111270303Y-35994059D01*
X111270303Y-35994059D02*
X111135616Y-36128746D01*
X84092435Y-36948431D02*
X84011623Y-36975368D01*
X84011623Y-36975368D02*
X83930811Y-37056180D01*
X83930811Y-37056180D02*
X83876936Y-37163930D01*
X83876936Y-37163930D02*
X83876936Y-37271680D01*
X83876936Y-37271680D02*
X83903873Y-37352492D01*
X83903873Y-37352492D02*
X83984685Y-37487179D01*
X83984685Y-37487179D02*
X84065498Y-37567991D01*
X84065498Y-37567991D02*
X84200185Y-37648803D01*
X84200185Y-37648803D02*
X84280997Y-37675741D01*
X84280997Y-37675741D02*
X84388746Y-37675741D01*
X84388746Y-37675741D02*
X84496496Y-37621866D01*
X84496496Y-37621866D02*
X84550371Y-37567991D01*
X84550371Y-37567991D02*
X84604246Y-37460241D01*
X84604246Y-37460241D02*
X84604246Y-37406367D01*
X84604246Y-37406367D02*
X84415684Y-37217805D01*
X84415684Y-37217805D02*
X84307934Y-37325554D01*
X84900557Y-37217805D02*
X84334872Y-36652119D01*
X84334872Y-36652119D02*
X85223806Y-36894556D01*
X85223806Y-36894556D02*
X84658120Y-36328871D01*
X85493180Y-36625182D02*
X84927494Y-36059497D01*
X84927494Y-36059497D02*
X85062181Y-35924810D01*
X85062181Y-35924810D02*
X85169931Y-35870935D01*
X85169931Y-35870935D02*
X85277680Y-35870935D01*
X85277680Y-35870935D02*
X85358493Y-35897872D01*
X85358493Y-35897872D02*
X85493180Y-35978685D01*
X85493180Y-35978685D02*
X85573992Y-36059497D01*
X85573992Y-36059497D02*
X85654804Y-36194184D01*
X85654804Y-36194184D02*
X85681741Y-36274996D01*
X85681741Y-36274996D02*
X85681741Y-36382746D01*
X85681741Y-36382746D02*
X85627867Y-36490495D01*
X85627867Y-36490495D02*
X85493180Y-36625182D01*
X112043998Y-36936868D02*
X111963185Y-36963805D01*
X111963185Y-36963805D02*
X111882373Y-37044618D01*
X111882373Y-37044618D02*
X111828498Y-37152367D01*
X111828498Y-37152367D02*
X111828498Y-37260117D01*
X111828498Y-37260117D02*
X111855436Y-37340929D01*
X111855436Y-37340929D02*
X111936248Y-37475616D01*
X111936248Y-37475616D02*
X112017060Y-37556428D01*
X112017060Y-37556428D02*
X112151747Y-37637241D01*
X112151747Y-37637241D02*
X112232560Y-37664178D01*
X112232560Y-37664178D02*
X112340309Y-37664178D01*
X112340309Y-37664178D02*
X112448059Y-37610303D01*
X112448059Y-37610303D02*
X112501934Y-37556428D01*
X112501934Y-37556428D02*
X112555808Y-37448679D01*
X112555808Y-37448679D02*
X112555808Y-37394804D01*
X112555808Y-37394804D02*
X112367247Y-37206242D01*
X112367247Y-37206242D02*
X112259497Y-37313992D01*
X112852120Y-37206242D02*
X112286434Y-36640557D01*
X112286434Y-36640557D02*
X112501934Y-36425057D01*
X112501934Y-36425057D02*
X112582746Y-36398120D01*
X112582746Y-36398120D02*
X112636621Y-36398120D01*
X112636621Y-36398120D02*
X112717433Y-36425057D01*
X112717433Y-36425057D02*
X112798245Y-36505870D01*
X112798245Y-36505870D02*
X112825182Y-36586682D01*
X112825182Y-36586682D02*
X112825182Y-36640557D01*
X112825182Y-36640557D02*
X112798245Y-36721369D01*
X112798245Y-36721369D02*
X112582746Y-36936868D01*
X112879057Y-36155683D02*
X112879057Y-36101809D01*
X112879057Y-36101809D02*
X112905995Y-36020996D01*
X112905995Y-36020996D02*
X113040682Y-35886309D01*
X113040682Y-35886309D02*
X113121494Y-35859372D01*
X113121494Y-35859372D02*
X113175369Y-35859372D01*
X113175369Y-35859372D02*
X113256181Y-35886309D01*
X113256181Y-35886309D02*
X113310056Y-35940184D01*
X113310056Y-35940184D02*
X113363930Y-36047934D01*
X113363930Y-36047934D02*
X113363930Y-36694431D01*
X113363930Y-36694431D02*
X113714117Y-36344245D01*
X113714117Y-35697747D02*
X113633305Y-35724685D01*
X113633305Y-35724685D02*
X113579430Y-35724685D01*
X113579430Y-35724685D02*
X113498618Y-35697747D01*
X113498618Y-35697747D02*
X113471680Y-35670810D01*
X113471680Y-35670810D02*
X113444743Y-35589998D01*
X113444743Y-35589998D02*
X113444743Y-35536123D01*
X113444743Y-35536123D02*
X113471680Y-35455311D01*
X113471680Y-35455311D02*
X113579430Y-35347561D01*
X113579430Y-35347561D02*
X113660242Y-35320624D01*
X113660242Y-35320624D02*
X113714117Y-35320624D01*
X113714117Y-35320624D02*
X113794929Y-35347561D01*
X113794929Y-35347561D02*
X113821866Y-35374499D01*
X113821866Y-35374499D02*
X113848804Y-35455311D01*
X113848804Y-35455311D02*
X113848804Y-35509186D01*
X113848804Y-35509186D02*
X113821866Y-35589998D01*
X113821866Y-35589998D02*
X113714117Y-35697747D01*
X113714117Y-35697747D02*
X113687179Y-35778560D01*
X113687179Y-35778560D02*
X113687179Y-35832434D01*
X113687179Y-35832434D02*
X113714117Y-35913247D01*
X113714117Y-35913247D02*
X113821866Y-36020996D01*
X113821866Y-36020996D02*
X113902679Y-36047934D01*
X113902679Y-36047934D02*
X113956553Y-36047934D01*
X113956553Y-36047934D02*
X114037366Y-36020996D01*
X114037366Y-36020996D02*
X114145115Y-35913247D01*
X114145115Y-35913247D02*
X114172053Y-35832434D01*
X114172053Y-35832434D02*
X114172053Y-35778560D01*
X114172053Y-35778560D02*
X114145115Y-35697747D01*
X114145115Y-35697747D02*
X114037366Y-35589998D01*
X114037366Y-35589998D02*
X113956553Y-35563060D01*
X113956553Y-35563060D02*
X113902679Y-35563060D01*
X113902679Y-35563060D02*
X113821866Y-35589998D01*
X80153998Y-62036868D02*
X80073185Y-62063805D01*
X80073185Y-62063805D02*
X79992373Y-62144618D01*
X79992373Y-62144618D02*
X79938498Y-62252367D01*
X79938498Y-62252367D02*
X79938498Y-62360117D01*
X79938498Y-62360117D02*
X79965436Y-62440929D01*
X79965436Y-62440929D02*
X80046248Y-62575616D01*
X80046248Y-62575616D02*
X80127060Y-62656428D01*
X80127060Y-62656428D02*
X80261747Y-62737241D01*
X80261747Y-62737241D02*
X80342560Y-62764178D01*
X80342560Y-62764178D02*
X80450309Y-62764178D01*
X80450309Y-62764178D02*
X80558059Y-62710303D01*
X80558059Y-62710303D02*
X80611934Y-62656428D01*
X80611934Y-62656428D02*
X80665808Y-62548679D01*
X80665808Y-62548679D02*
X80665808Y-62494804D01*
X80665808Y-62494804D02*
X80477247Y-62306242D01*
X80477247Y-62306242D02*
X80369497Y-62413992D01*
X80962120Y-62306242D02*
X80396434Y-61740557D01*
X80396434Y-61740557D02*
X80611934Y-61525057D01*
X80611934Y-61525057D02*
X80692746Y-61498120D01*
X80692746Y-61498120D02*
X80746621Y-61498120D01*
X80746621Y-61498120D02*
X80827433Y-61525057D01*
X80827433Y-61525057D02*
X80908245Y-61605870D01*
X80908245Y-61605870D02*
X80935182Y-61686682D01*
X80935182Y-61686682D02*
X80935182Y-61740557D01*
X80935182Y-61740557D02*
X80908245Y-61821369D01*
X80908245Y-61821369D02*
X80692746Y-62036868D01*
X81824117Y-61444245D02*
X81500868Y-61767494D01*
X81662492Y-61605870D02*
X81096807Y-61040184D01*
X81096807Y-61040184D02*
X81123744Y-61174871D01*
X81123744Y-61174871D02*
X81123744Y-61282621D01*
X81123744Y-61282621D02*
X81096807Y-61363433D01*
X81931866Y-60582248D02*
X82308990Y-60959372D01*
X81581680Y-60501436D02*
X81851054Y-61040184D01*
X81851054Y-61040184D02*
X82201240Y-60689998D01*
X77124200Y-56509524D02*
X77162295Y-56395238D01*
X77162295Y-56395238D02*
X77162295Y-56204762D01*
X77162295Y-56204762D02*
X77124200Y-56128571D01*
X77124200Y-56128571D02*
X77086104Y-56090476D01*
X77086104Y-56090476D02*
X77009914Y-56052381D01*
X77009914Y-56052381D02*
X76933723Y-56052381D01*
X76933723Y-56052381D02*
X76857533Y-56090476D01*
X76857533Y-56090476D02*
X76819438Y-56128571D01*
X76819438Y-56128571D02*
X76781342Y-56204762D01*
X76781342Y-56204762D02*
X76743247Y-56357143D01*
X76743247Y-56357143D02*
X76705152Y-56433333D01*
X76705152Y-56433333D02*
X76667057Y-56471428D01*
X76667057Y-56471428D02*
X76590866Y-56509524D01*
X76590866Y-56509524D02*
X76514676Y-56509524D01*
X76514676Y-56509524D02*
X76438485Y-56471428D01*
X76438485Y-56471428D02*
X76400390Y-56433333D01*
X76400390Y-56433333D02*
X76362295Y-56357143D01*
X76362295Y-56357143D02*
X76362295Y-56166666D01*
X76362295Y-56166666D02*
X76400390Y-56052381D01*
X76362295Y-55785714D02*
X77162295Y-55595238D01*
X77162295Y-55595238D02*
X76590866Y-55442857D01*
X76590866Y-55442857D02*
X77162295Y-55290476D01*
X77162295Y-55290476D02*
X76362295Y-55100000D01*
X77086104Y-54338094D02*
X77124200Y-54376190D01*
X77124200Y-54376190D02*
X77162295Y-54490475D01*
X77162295Y-54490475D02*
X77162295Y-54566666D01*
X77162295Y-54566666D02*
X77124200Y-54680952D01*
X77124200Y-54680952D02*
X77048009Y-54757142D01*
X77048009Y-54757142D02*
X76971819Y-54795237D01*
X76971819Y-54795237D02*
X76819438Y-54833333D01*
X76819438Y-54833333D02*
X76705152Y-54833333D01*
X76705152Y-54833333D02*
X76552771Y-54795237D01*
X76552771Y-54795237D02*
X76476580Y-54757142D01*
X76476580Y-54757142D02*
X76400390Y-54680952D01*
X76400390Y-54680952D02*
X76362295Y-54566666D01*
X76362295Y-54566666D02*
X76362295Y-54490475D01*
X76362295Y-54490475D02*
X76400390Y-54376190D01*
X76400390Y-54376190D02*
X76438485Y-54338094D01*
X77162295Y-53614285D02*
X77162295Y-53995237D01*
X77162295Y-53995237D02*
X76362295Y-53995237D01*
X77162295Y-53347618D02*
X76362295Y-53347618D01*
X77162295Y-52890475D02*
X76705152Y-53233333D01*
X76362295Y-52890475D02*
X76819438Y-53347618D01*
%TO.C,H8*%
X135350000Y-23000000D02*
G75*
G03*
X135350000Y-23000000I-2350000J0D01*
G01*
%TO.C,H4*%
X32350000Y-119000000D02*
G75*
G03*
X32350000Y-119000000I-2350000J0D01*
G01*
%TO.C,H2*%
X107350000Y-67000000D02*
G75*
G03*
X107350000Y-67000000I-2350000J0D01*
G01*
%TO.C,H1*%
X32350000Y-67000000D02*
G75*
G03*
X32350000Y-67000000I-2350000J0D01*
G01*
%TO.C,H11*%
X121330000Y-121520000D02*
G75*
G03*
X121330000Y-121520000I-2350000J0D01*
G01*
%TO.C,H7*%
X79350000Y-23000000D02*
G75*
G03*
X79350000Y-23000000I-2350000J0D01*
G01*
%TO.C,H3*%
X182350000Y-67000000D02*
G75*
G03*
X182350000Y-67000000I-2350000J0D01*
G01*
%TO.C,H5*%
X107350000Y-119000000D02*
G75*
G03*
X107350000Y-119000000I-2350000J0D01*
G01*
%TO.C,H10*%
X121250000Y-63565600D02*
G75*
G03*
X121250000Y-63565600I-2350000J0D01*
G01*
%TO.C,H6*%
X182350000Y-119000000D02*
G75*
G03*
X182350000Y-119000000I-2350000J0D01*
G01*
%TO.C,H9*%
X170350000Y-23000000D02*
G75*
G03*
X170350000Y-23000000I-2350000J0D01*
G01*
%TD*%
M02*
