%TF.GenerationSoftware,KiCad,Pcbnew,7.0.1.1-36-gbcf78dbe24-dirty-deb11*%
%TF.CreationDate,2023-03-25T20:52:35+00:00*%
%TF.ProjectId,pedalboard-hw,70656461-6c62-46f6-9172-642d68772e6b,0.0.1*%
%TF.SameCoordinates,Original*%
%TF.FileFunction,Other,Comment*%
%FSLAX46Y46*%
G04 Gerber Fmt 4.6, Leading zero omitted, Abs format (unit mm)*
G04 Created by KiCad (PCBNEW 7.0.1.1-36-gbcf78dbe24-dirty-deb11) date 2023-03-25 20:52:35*
%MOMM*%
%LPD*%
G01*
G04 APERTURE LIST*
%ADD10C,0.150000*%
G04 APERTURE END LIST*
D10*
%TO.C,U1*%
X78775513Y-36942384D02*
X78694701Y-36969321D01*
X78694701Y-36969321D02*
X78613889Y-37050133D01*
X78613889Y-37050133D02*
X78560014Y-37157883D01*
X78560014Y-37157883D02*
X78560014Y-37265632D01*
X78560014Y-37265632D02*
X78586951Y-37346445D01*
X78586951Y-37346445D02*
X78667764Y-37481132D01*
X78667764Y-37481132D02*
X78748576Y-37561944D01*
X78748576Y-37561944D02*
X78883263Y-37642756D01*
X78883263Y-37642756D02*
X78964075Y-37669693D01*
X78964075Y-37669693D02*
X79071825Y-37669693D01*
X79071825Y-37669693D02*
X79179574Y-37615819D01*
X79179574Y-37615819D02*
X79233449Y-37561944D01*
X79233449Y-37561944D02*
X79287324Y-37454194D01*
X79287324Y-37454194D02*
X79287324Y-37400319D01*
X79287324Y-37400319D02*
X79098762Y-37211758D01*
X79098762Y-37211758D02*
X78991012Y-37319507D01*
X79583635Y-37211758D02*
X79017950Y-36646072D01*
X79017950Y-36646072D02*
X79233449Y-36430573D01*
X79233449Y-36430573D02*
X79314261Y-36403636D01*
X79314261Y-36403636D02*
X79368136Y-36403636D01*
X79368136Y-36403636D02*
X79448948Y-36430573D01*
X79448948Y-36430573D02*
X79529760Y-36511385D01*
X79529760Y-36511385D02*
X79556698Y-36592197D01*
X79556698Y-36592197D02*
X79556698Y-36646072D01*
X79556698Y-36646072D02*
X79529760Y-36726884D01*
X79529760Y-36726884D02*
X79314261Y-36942384D01*
X80445632Y-36349761D02*
X80122383Y-36673010D01*
X80284008Y-36511385D02*
X79718322Y-35945700D01*
X79718322Y-35945700D02*
X79745260Y-36080387D01*
X79745260Y-36080387D02*
X79745260Y-36188136D01*
X79745260Y-36188136D02*
X79718322Y-36268948D01*
X80364820Y-35299202D02*
X80257070Y-35406951D01*
X80257070Y-35406951D02*
X80230133Y-35487764D01*
X80230133Y-35487764D02*
X80230133Y-35541638D01*
X80230133Y-35541638D02*
X80257070Y-35676326D01*
X80257070Y-35676326D02*
X80337883Y-35811013D01*
X80337883Y-35811013D02*
X80553382Y-36026512D01*
X80553382Y-36026512D02*
X80634194Y-36053449D01*
X80634194Y-36053449D02*
X80688069Y-36053449D01*
X80688069Y-36053449D02*
X80768881Y-36026512D01*
X80768881Y-36026512D02*
X80876631Y-35918762D01*
X80876631Y-35918762D02*
X80903568Y-35837950D01*
X80903568Y-35837950D02*
X80903568Y-35784075D01*
X80903568Y-35784075D02*
X80876631Y-35703263D01*
X80876631Y-35703263D02*
X80741944Y-35568576D01*
X80741944Y-35568576D02*
X80661131Y-35541638D01*
X80661131Y-35541638D02*
X80607257Y-35541638D01*
X80607257Y-35541638D02*
X80526444Y-35568576D01*
X80526444Y-35568576D02*
X80418695Y-35676326D01*
X80418695Y-35676326D02*
X80391757Y-35757138D01*
X80391757Y-35757138D02*
X80391757Y-35811013D01*
X80391757Y-35811013D02*
X80418695Y-35891825D01*
X121041950Y-61499946D02*
X120961138Y-61526884D01*
X120961138Y-61526884D02*
X120880326Y-61607696D01*
X120880326Y-61607696D02*
X120826451Y-61715446D01*
X120826451Y-61715446D02*
X120826451Y-61823195D01*
X120826451Y-61823195D02*
X120853389Y-61904007D01*
X120853389Y-61904007D02*
X120934201Y-62038694D01*
X120934201Y-62038694D02*
X121015013Y-62119507D01*
X121015013Y-62119507D02*
X121149700Y-62200319D01*
X121149700Y-62200319D02*
X121230512Y-62227256D01*
X121230512Y-62227256D02*
X121338262Y-62227256D01*
X121338262Y-62227256D02*
X121446011Y-62173381D01*
X121446011Y-62173381D02*
X121499886Y-62119507D01*
X121499886Y-62119507D02*
X121553761Y-62011757D01*
X121553761Y-62011757D02*
X121553761Y-61957882D01*
X121553761Y-61957882D02*
X121365199Y-61769320D01*
X121365199Y-61769320D02*
X121257450Y-61877070D01*
X121850072Y-61769320D02*
X121284387Y-61203635D01*
X121284387Y-61203635D02*
X122173321Y-61446072D01*
X122173321Y-61446072D02*
X121607636Y-60880386D01*
X122442695Y-61176698D02*
X121877010Y-60611012D01*
X121877010Y-60611012D02*
X122011697Y-60476325D01*
X122011697Y-60476325D02*
X122119446Y-60422450D01*
X122119446Y-60422450D02*
X122227196Y-60422450D01*
X122227196Y-60422450D02*
X122308008Y-60449388D01*
X122308008Y-60449388D02*
X122442695Y-60530200D01*
X122442695Y-60530200D02*
X122523507Y-60611012D01*
X122523507Y-60611012D02*
X122604319Y-60745699D01*
X122604319Y-60745699D02*
X122631257Y-60826511D01*
X122631257Y-60826511D02*
X122631257Y-60934261D01*
X122631257Y-60934261D02*
X122577382Y-61042011D01*
X122577382Y-61042011D02*
X122442695Y-61176698D01*
X82941950Y-61499946D02*
X82861138Y-61526884D01*
X82861138Y-61526884D02*
X82780326Y-61607696D01*
X82780326Y-61607696D02*
X82726451Y-61715446D01*
X82726451Y-61715446D02*
X82726451Y-61823195D01*
X82726451Y-61823195D02*
X82753389Y-61904007D01*
X82753389Y-61904007D02*
X82834201Y-62038694D01*
X82834201Y-62038694D02*
X82915013Y-62119507D01*
X82915013Y-62119507D02*
X83049700Y-62200319D01*
X83049700Y-62200319D02*
X83130512Y-62227256D01*
X83130512Y-62227256D02*
X83238262Y-62227256D01*
X83238262Y-62227256D02*
X83346011Y-62173381D01*
X83346011Y-62173381D02*
X83399886Y-62119507D01*
X83399886Y-62119507D02*
X83453761Y-62011757D01*
X83453761Y-62011757D02*
X83453761Y-61957882D01*
X83453761Y-61957882D02*
X83265199Y-61769320D01*
X83265199Y-61769320D02*
X83157450Y-61877070D01*
X83750072Y-61769320D02*
X83184387Y-61203635D01*
X83184387Y-61203635D02*
X84073321Y-61446072D01*
X84073321Y-61446072D02*
X83507636Y-60880386D01*
X84342695Y-61176698D02*
X83777010Y-60611012D01*
X83777010Y-60611012D02*
X83911697Y-60476325D01*
X83911697Y-60476325D02*
X84019446Y-60422450D01*
X84019446Y-60422450D02*
X84127196Y-60422450D01*
X84127196Y-60422450D02*
X84208008Y-60449388D01*
X84208008Y-60449388D02*
X84342695Y-60530200D01*
X84342695Y-60530200D02*
X84423507Y-60611012D01*
X84423507Y-60611012D02*
X84504319Y-60745699D01*
X84504319Y-60745699D02*
X84531257Y-60826511D01*
X84531257Y-60826511D02*
X84531257Y-60934261D01*
X84531257Y-60934261D02*
X84477382Y-61042011D01*
X84477382Y-61042011D02*
X84342695Y-61176698D01*
X119283923Y-37064099D02*
X119634109Y-36713913D01*
X119634109Y-36713913D02*
X119661046Y-37117974D01*
X119661046Y-37117974D02*
X119741859Y-37037162D01*
X119741859Y-37037162D02*
X119822671Y-37010224D01*
X119822671Y-37010224D02*
X119876546Y-37010224D01*
X119876546Y-37010224D02*
X119957358Y-37037162D01*
X119957358Y-37037162D02*
X120092045Y-37171849D01*
X120092045Y-37171849D02*
X120118982Y-37252661D01*
X120118982Y-37252661D02*
X120118982Y-37306536D01*
X120118982Y-37306536D02*
X120092045Y-37387348D01*
X120092045Y-37387348D02*
X119930420Y-37548972D01*
X119930420Y-37548972D02*
X119849608Y-37575910D01*
X119849608Y-37575910D02*
X119795733Y-37575910D01*
X119795733Y-36552288D02*
X120549981Y-36929412D01*
X120549981Y-36929412D02*
X120172857Y-36175165D01*
X120307544Y-36040478D02*
X120657730Y-35690292D01*
X120657730Y-35690292D02*
X120684668Y-36094353D01*
X120684668Y-36094353D02*
X120765480Y-36013541D01*
X120765480Y-36013541D02*
X120846292Y-35986603D01*
X120846292Y-35986603D02*
X120900167Y-35986603D01*
X120900167Y-35986603D02*
X120980979Y-36013541D01*
X120980979Y-36013541D02*
X121115666Y-36148228D01*
X121115666Y-36148228D02*
X121142603Y-36229040D01*
X121142603Y-36229040D02*
X121142603Y-36282915D01*
X121142603Y-36282915D02*
X121115666Y-36363727D01*
X121115666Y-36363727D02*
X120954042Y-36525351D01*
X120954042Y-36525351D02*
X120873229Y-36552289D01*
X120873229Y-36552289D02*
X120819355Y-36552289D01*
X121385040Y-36202102D02*
X121816039Y-35771104D01*
X121600539Y-35286230D02*
X121789101Y-35097669D01*
X122166225Y-35313168D02*
X121896851Y-35582542D01*
X121896851Y-35582542D02*
X121331165Y-35016856D01*
X121331165Y-35016856D02*
X121600539Y-34747482D01*
X122408662Y-35070731D02*
X121842976Y-34505045D01*
X121842976Y-34505045D02*
X122731911Y-34747482D01*
X122731911Y-34747482D02*
X122166225Y-34181797D01*
X94005513Y-36942384D02*
X93924701Y-36969321D01*
X93924701Y-36969321D02*
X93843889Y-37050133D01*
X93843889Y-37050133D02*
X93790014Y-37157883D01*
X93790014Y-37157883D02*
X93790014Y-37265632D01*
X93790014Y-37265632D02*
X93816951Y-37346445D01*
X93816951Y-37346445D02*
X93897764Y-37481132D01*
X93897764Y-37481132D02*
X93978576Y-37561944D01*
X93978576Y-37561944D02*
X94113263Y-37642756D01*
X94113263Y-37642756D02*
X94194075Y-37669693D01*
X94194075Y-37669693D02*
X94301825Y-37669693D01*
X94301825Y-37669693D02*
X94409574Y-37615819D01*
X94409574Y-37615819D02*
X94463449Y-37561944D01*
X94463449Y-37561944D02*
X94517324Y-37454194D01*
X94517324Y-37454194D02*
X94517324Y-37400319D01*
X94517324Y-37400319D02*
X94328762Y-37211758D01*
X94328762Y-37211758D02*
X94221012Y-37319507D01*
X94813635Y-37211758D02*
X94247950Y-36646072D01*
X94247950Y-36646072D02*
X94463449Y-36430573D01*
X94463449Y-36430573D02*
X94544261Y-36403636D01*
X94544261Y-36403636D02*
X94598136Y-36403636D01*
X94598136Y-36403636D02*
X94678948Y-36430573D01*
X94678948Y-36430573D02*
X94759760Y-36511385D01*
X94759760Y-36511385D02*
X94786698Y-36592197D01*
X94786698Y-36592197D02*
X94786698Y-36646072D01*
X94786698Y-36646072D02*
X94759760Y-36726884D01*
X94759760Y-36726884D02*
X94544261Y-36942384D01*
X94840573Y-36161199D02*
X94840573Y-36107324D01*
X94840573Y-36107324D02*
X94867510Y-36026512D01*
X94867510Y-36026512D02*
X95002197Y-35891825D01*
X95002197Y-35891825D02*
X95083009Y-35864887D01*
X95083009Y-35864887D02*
X95136884Y-35864887D01*
X95136884Y-35864887D02*
X95217696Y-35891825D01*
X95217696Y-35891825D02*
X95271571Y-35945700D01*
X95271571Y-35945700D02*
X95325446Y-36053449D01*
X95325446Y-36053449D02*
X95325446Y-36699947D01*
X95325446Y-36699947D02*
X95675632Y-36349761D01*
X96214380Y-35811013D02*
X95891131Y-36134261D01*
X96052756Y-35972637D02*
X95487070Y-35406951D01*
X95487070Y-35406951D02*
X95514008Y-35541638D01*
X95514008Y-35541638D02*
X95514008Y-35649388D01*
X95514008Y-35649388D02*
X95487070Y-35730200D01*
X122197950Y-36953946D02*
X122117138Y-36980884D01*
X122117138Y-36980884D02*
X122036326Y-37061696D01*
X122036326Y-37061696D02*
X121982451Y-37169446D01*
X121982451Y-37169446D02*
X121982451Y-37277195D01*
X121982451Y-37277195D02*
X122009389Y-37358007D01*
X122009389Y-37358007D02*
X122090201Y-37492694D01*
X122090201Y-37492694D02*
X122171013Y-37573507D01*
X122171013Y-37573507D02*
X122305700Y-37654319D01*
X122305700Y-37654319D02*
X122386512Y-37681256D01*
X122386512Y-37681256D02*
X122494262Y-37681256D01*
X122494262Y-37681256D02*
X122602011Y-37627381D01*
X122602011Y-37627381D02*
X122655886Y-37573507D01*
X122655886Y-37573507D02*
X122709761Y-37465757D01*
X122709761Y-37465757D02*
X122709761Y-37411882D01*
X122709761Y-37411882D02*
X122521199Y-37223320D01*
X122521199Y-37223320D02*
X122413450Y-37331070D01*
X123006072Y-37223320D02*
X122440387Y-36657635D01*
X122440387Y-36657635D02*
X123329321Y-36900072D01*
X123329321Y-36900072D02*
X122763636Y-36334386D01*
X123598695Y-36630698D02*
X123033010Y-36065012D01*
X123033010Y-36065012D02*
X123167697Y-35930325D01*
X123167697Y-35930325D02*
X123275446Y-35876450D01*
X123275446Y-35876450D02*
X123383196Y-35876450D01*
X123383196Y-35876450D02*
X123464008Y-35903388D01*
X123464008Y-35903388D02*
X123598695Y-35984200D01*
X123598695Y-35984200D02*
X123679507Y-36065012D01*
X123679507Y-36065012D02*
X123760319Y-36199699D01*
X123760319Y-36199699D02*
X123787257Y-36280511D01*
X123787257Y-36280511D02*
X123787257Y-36388261D01*
X123787257Y-36388261D02*
X123733382Y-36496011D01*
X123733382Y-36496011D02*
X123598695Y-36630698D01*
X96797950Y-36953946D02*
X96717138Y-36980884D01*
X96717138Y-36980884D02*
X96636326Y-37061696D01*
X96636326Y-37061696D02*
X96582451Y-37169446D01*
X96582451Y-37169446D02*
X96582451Y-37277195D01*
X96582451Y-37277195D02*
X96609389Y-37358007D01*
X96609389Y-37358007D02*
X96690201Y-37492694D01*
X96690201Y-37492694D02*
X96771013Y-37573507D01*
X96771013Y-37573507D02*
X96905700Y-37654319D01*
X96905700Y-37654319D02*
X96986512Y-37681256D01*
X96986512Y-37681256D02*
X97094262Y-37681256D01*
X97094262Y-37681256D02*
X97202011Y-37627381D01*
X97202011Y-37627381D02*
X97255886Y-37573507D01*
X97255886Y-37573507D02*
X97309761Y-37465757D01*
X97309761Y-37465757D02*
X97309761Y-37411882D01*
X97309761Y-37411882D02*
X97121199Y-37223320D01*
X97121199Y-37223320D02*
X97013450Y-37331070D01*
X97606072Y-37223320D02*
X97040387Y-36657635D01*
X97040387Y-36657635D02*
X97929321Y-36900072D01*
X97929321Y-36900072D02*
X97363636Y-36334386D01*
X98198695Y-36630698D02*
X97633010Y-36065012D01*
X97633010Y-36065012D02*
X97767697Y-35930325D01*
X97767697Y-35930325D02*
X97875446Y-35876450D01*
X97875446Y-35876450D02*
X97983196Y-35876450D01*
X97983196Y-35876450D02*
X98064008Y-35903388D01*
X98064008Y-35903388D02*
X98198695Y-35984200D01*
X98198695Y-35984200D02*
X98279507Y-36065012D01*
X98279507Y-36065012D02*
X98360319Y-36199699D01*
X98360319Y-36199699D02*
X98387257Y-36280511D01*
X98387257Y-36280511D02*
X98387257Y-36388261D01*
X98387257Y-36388261D02*
X98333382Y-36496011D01*
X98333382Y-36496011D02*
X98198695Y-36630698D01*
X90319513Y-62142384D02*
X90238701Y-62169321D01*
X90238701Y-62169321D02*
X90157889Y-62250133D01*
X90157889Y-62250133D02*
X90104014Y-62357883D01*
X90104014Y-62357883D02*
X90104014Y-62465632D01*
X90104014Y-62465632D02*
X90130951Y-62546445D01*
X90130951Y-62546445D02*
X90211764Y-62681132D01*
X90211764Y-62681132D02*
X90292576Y-62761944D01*
X90292576Y-62761944D02*
X90427263Y-62842756D01*
X90427263Y-62842756D02*
X90508075Y-62869693D01*
X90508075Y-62869693D02*
X90615825Y-62869693D01*
X90615825Y-62869693D02*
X90723574Y-62815819D01*
X90723574Y-62815819D02*
X90777449Y-62761944D01*
X90777449Y-62761944D02*
X90831324Y-62654194D01*
X90831324Y-62654194D02*
X90831324Y-62600319D01*
X90831324Y-62600319D02*
X90642762Y-62411758D01*
X90642762Y-62411758D02*
X90535012Y-62519507D01*
X91127635Y-62411758D02*
X90561950Y-61846072D01*
X90561950Y-61846072D02*
X90777449Y-61630573D01*
X90777449Y-61630573D02*
X90858261Y-61603636D01*
X90858261Y-61603636D02*
X90912136Y-61603636D01*
X90912136Y-61603636D02*
X90992948Y-61630573D01*
X90992948Y-61630573D02*
X91073760Y-61711385D01*
X91073760Y-61711385D02*
X91100698Y-61792197D01*
X91100698Y-61792197D02*
X91100698Y-61846072D01*
X91100698Y-61846072D02*
X91073760Y-61926884D01*
X91073760Y-61926884D02*
X90858261Y-62142384D01*
X91989632Y-61549761D02*
X91666383Y-61873010D01*
X91828008Y-61711385D02*
X91262322Y-61145700D01*
X91262322Y-61145700D02*
X91289260Y-61280387D01*
X91289260Y-61280387D02*
X91289260Y-61388136D01*
X91289260Y-61388136D02*
X91262322Y-61468948D01*
X92528380Y-61011013D02*
X92205131Y-61334261D01*
X92366756Y-61172637D02*
X91801070Y-60606951D01*
X91801070Y-60606951D02*
X91828008Y-60741638D01*
X91828008Y-60741638D02*
X91828008Y-60849388D01*
X91828008Y-60849388D02*
X91801070Y-60930200D01*
X91475513Y-36942384D02*
X91394701Y-36969321D01*
X91394701Y-36969321D02*
X91313889Y-37050133D01*
X91313889Y-37050133D02*
X91260014Y-37157883D01*
X91260014Y-37157883D02*
X91260014Y-37265632D01*
X91260014Y-37265632D02*
X91286951Y-37346445D01*
X91286951Y-37346445D02*
X91367764Y-37481132D01*
X91367764Y-37481132D02*
X91448576Y-37561944D01*
X91448576Y-37561944D02*
X91583263Y-37642756D01*
X91583263Y-37642756D02*
X91664075Y-37669693D01*
X91664075Y-37669693D02*
X91771825Y-37669693D01*
X91771825Y-37669693D02*
X91879574Y-37615819D01*
X91879574Y-37615819D02*
X91933449Y-37561944D01*
X91933449Y-37561944D02*
X91987324Y-37454194D01*
X91987324Y-37454194D02*
X91987324Y-37400319D01*
X91987324Y-37400319D02*
X91798762Y-37211758D01*
X91798762Y-37211758D02*
X91691012Y-37319507D01*
X92283635Y-37211758D02*
X91717950Y-36646072D01*
X91717950Y-36646072D02*
X91933449Y-36430573D01*
X91933449Y-36430573D02*
X92014261Y-36403636D01*
X92014261Y-36403636D02*
X92068136Y-36403636D01*
X92068136Y-36403636D02*
X92148948Y-36430573D01*
X92148948Y-36430573D02*
X92229760Y-36511385D01*
X92229760Y-36511385D02*
X92256698Y-36592197D01*
X92256698Y-36592197D02*
X92256698Y-36646072D01*
X92256698Y-36646072D02*
X92229760Y-36726884D01*
X92229760Y-36726884D02*
X92014261Y-36942384D01*
X92310573Y-36161199D02*
X92310573Y-36107324D01*
X92310573Y-36107324D02*
X92337510Y-36026512D01*
X92337510Y-36026512D02*
X92472197Y-35891825D01*
X92472197Y-35891825D02*
X92553009Y-35864887D01*
X92553009Y-35864887D02*
X92606884Y-35864887D01*
X92606884Y-35864887D02*
X92687696Y-35891825D01*
X92687696Y-35891825D02*
X92741571Y-35945700D01*
X92741571Y-35945700D02*
X92795446Y-36053449D01*
X92795446Y-36053449D02*
X92795446Y-36699947D01*
X92795446Y-36699947D02*
X93145632Y-36349761D01*
X92930133Y-35433889D02*
X92984008Y-35380014D01*
X92984008Y-35380014D02*
X93064820Y-35353077D01*
X93064820Y-35353077D02*
X93118695Y-35353077D01*
X93118695Y-35353077D02*
X93199507Y-35380014D01*
X93199507Y-35380014D02*
X93334194Y-35460826D01*
X93334194Y-35460826D02*
X93468881Y-35595513D01*
X93468881Y-35595513D02*
X93549693Y-35730200D01*
X93549693Y-35730200D02*
X93576631Y-35811013D01*
X93576631Y-35811013D02*
X93576631Y-35864887D01*
X93576631Y-35864887D02*
X93549693Y-35945700D01*
X93549693Y-35945700D02*
X93495818Y-35999574D01*
X93495818Y-35999574D02*
X93415006Y-36026512D01*
X93415006Y-36026512D02*
X93361131Y-36026512D01*
X93361131Y-36026512D02*
X93280319Y-35999574D01*
X93280319Y-35999574D02*
X93145632Y-35918762D01*
X93145632Y-35918762D02*
X93010945Y-35784075D01*
X93010945Y-35784075D02*
X92930133Y-35649388D01*
X92930133Y-35649388D02*
X92903196Y-35568576D01*
X92903196Y-35568576D02*
X92903196Y-35514701D01*
X92903196Y-35514701D02*
X92930133Y-35433889D01*
X98208888Y-61473009D02*
X98128075Y-61499946D01*
X98128075Y-61499946D02*
X98047263Y-61580759D01*
X98047263Y-61580759D02*
X97993388Y-61688508D01*
X97993388Y-61688508D02*
X97993388Y-61796258D01*
X97993388Y-61796258D02*
X98020326Y-61877070D01*
X98020326Y-61877070D02*
X98101138Y-62011757D01*
X98101138Y-62011757D02*
X98181950Y-62092569D01*
X98181950Y-62092569D02*
X98316637Y-62173382D01*
X98316637Y-62173382D02*
X98397449Y-62200319D01*
X98397449Y-62200319D02*
X98505199Y-62200319D01*
X98505199Y-62200319D02*
X98612949Y-62146444D01*
X98612949Y-62146444D02*
X98666823Y-62092569D01*
X98666823Y-62092569D02*
X98720698Y-61984820D01*
X98720698Y-61984820D02*
X98720698Y-61930945D01*
X98720698Y-61930945D02*
X98532136Y-61742383D01*
X98532136Y-61742383D02*
X98424387Y-61850133D01*
X99017010Y-61742383D02*
X98451324Y-61176698D01*
X98451324Y-61176698D02*
X98666823Y-60961198D01*
X98666823Y-60961198D02*
X98747636Y-60934261D01*
X98747636Y-60934261D02*
X98801510Y-60934261D01*
X98801510Y-60934261D02*
X98882323Y-60961198D01*
X98882323Y-60961198D02*
X98963135Y-61042011D01*
X98963135Y-61042011D02*
X98990072Y-61122823D01*
X98990072Y-61122823D02*
X98990072Y-61176698D01*
X98990072Y-61176698D02*
X98963135Y-61257510D01*
X98963135Y-61257510D02*
X98747636Y-61473009D01*
X99609632Y-61149760D02*
X99717382Y-61042011D01*
X99717382Y-61042011D02*
X99744319Y-60961198D01*
X99744319Y-60961198D02*
X99744319Y-60907324D01*
X99744319Y-60907324D02*
X99717382Y-60772637D01*
X99717382Y-60772637D02*
X99636570Y-60637950D01*
X99636570Y-60637950D02*
X99421071Y-60422450D01*
X99421071Y-60422450D02*
X99340258Y-60395513D01*
X99340258Y-60395513D02*
X99286384Y-60395513D01*
X99286384Y-60395513D02*
X99205571Y-60422450D01*
X99205571Y-60422450D02*
X99097822Y-60530200D01*
X99097822Y-60530200D02*
X99070884Y-60611012D01*
X99070884Y-60611012D02*
X99070884Y-60664887D01*
X99070884Y-60664887D02*
X99097822Y-60745699D01*
X99097822Y-60745699D02*
X99232509Y-60880386D01*
X99232509Y-60880386D02*
X99313321Y-60907324D01*
X99313321Y-60907324D02*
X99367196Y-60907324D01*
X99367196Y-60907324D02*
X99448008Y-60880386D01*
X99448008Y-60880386D02*
X99555758Y-60772637D01*
X99555758Y-60772637D02*
X99582695Y-60691824D01*
X99582695Y-60691824D02*
X99582695Y-60637950D01*
X99582695Y-60637950D02*
X99555758Y-60557137D01*
X92859513Y-61996384D02*
X92778701Y-62023321D01*
X92778701Y-62023321D02*
X92697889Y-62104133D01*
X92697889Y-62104133D02*
X92644014Y-62211883D01*
X92644014Y-62211883D02*
X92644014Y-62319632D01*
X92644014Y-62319632D02*
X92670951Y-62400445D01*
X92670951Y-62400445D02*
X92751764Y-62535132D01*
X92751764Y-62535132D02*
X92832576Y-62615944D01*
X92832576Y-62615944D02*
X92967263Y-62696756D01*
X92967263Y-62696756D02*
X93048075Y-62723693D01*
X93048075Y-62723693D02*
X93155825Y-62723693D01*
X93155825Y-62723693D02*
X93263574Y-62669819D01*
X93263574Y-62669819D02*
X93317449Y-62615944D01*
X93317449Y-62615944D02*
X93371324Y-62508194D01*
X93371324Y-62508194D02*
X93371324Y-62454319D01*
X93371324Y-62454319D02*
X93182762Y-62265758D01*
X93182762Y-62265758D02*
X93075012Y-62373507D01*
X93667635Y-62265758D02*
X93101950Y-61700072D01*
X93101950Y-61700072D02*
X93317449Y-61484573D01*
X93317449Y-61484573D02*
X93398261Y-61457636D01*
X93398261Y-61457636D02*
X93452136Y-61457636D01*
X93452136Y-61457636D02*
X93532948Y-61484573D01*
X93532948Y-61484573D02*
X93613760Y-61565385D01*
X93613760Y-61565385D02*
X93640698Y-61646197D01*
X93640698Y-61646197D02*
X93640698Y-61700072D01*
X93640698Y-61700072D02*
X93613760Y-61780884D01*
X93613760Y-61780884D02*
X93398261Y-61996384D01*
X94529632Y-61403761D02*
X94206383Y-61727010D01*
X94368008Y-61565385D02*
X93802322Y-60999700D01*
X93802322Y-60999700D02*
X93829260Y-61134387D01*
X93829260Y-61134387D02*
X93829260Y-61242136D01*
X93829260Y-61242136D02*
X93802322Y-61322948D01*
X94314133Y-60487889D02*
X94368008Y-60434014D01*
X94368008Y-60434014D02*
X94448820Y-60407077D01*
X94448820Y-60407077D02*
X94502695Y-60407077D01*
X94502695Y-60407077D02*
X94583507Y-60434014D01*
X94583507Y-60434014D02*
X94718194Y-60514826D01*
X94718194Y-60514826D02*
X94852881Y-60649513D01*
X94852881Y-60649513D02*
X94933693Y-60784200D01*
X94933693Y-60784200D02*
X94960631Y-60865013D01*
X94960631Y-60865013D02*
X94960631Y-60918887D01*
X94960631Y-60918887D02*
X94933693Y-60999700D01*
X94933693Y-60999700D02*
X94879818Y-61053574D01*
X94879818Y-61053574D02*
X94799006Y-61080512D01*
X94799006Y-61080512D02*
X94745131Y-61080512D01*
X94745131Y-61080512D02*
X94664319Y-61053574D01*
X94664319Y-61053574D02*
X94529632Y-60972762D01*
X94529632Y-60972762D02*
X94394945Y-60838075D01*
X94394945Y-60838075D02*
X94314133Y-60703388D01*
X94314133Y-60703388D02*
X94287196Y-60622576D01*
X94287196Y-60622576D02*
X94287196Y-60568701D01*
X94287196Y-60568701D02*
X94314133Y-60487889D01*
X106705513Y-36942384D02*
X106624701Y-36969321D01*
X106624701Y-36969321D02*
X106543889Y-37050133D01*
X106543889Y-37050133D02*
X106490014Y-37157883D01*
X106490014Y-37157883D02*
X106490014Y-37265632D01*
X106490014Y-37265632D02*
X106516951Y-37346445D01*
X106516951Y-37346445D02*
X106597764Y-37481132D01*
X106597764Y-37481132D02*
X106678576Y-37561944D01*
X106678576Y-37561944D02*
X106813263Y-37642756D01*
X106813263Y-37642756D02*
X106894075Y-37669693D01*
X106894075Y-37669693D02*
X107001825Y-37669693D01*
X107001825Y-37669693D02*
X107109574Y-37615819D01*
X107109574Y-37615819D02*
X107163449Y-37561944D01*
X107163449Y-37561944D02*
X107217324Y-37454194D01*
X107217324Y-37454194D02*
X107217324Y-37400319D01*
X107217324Y-37400319D02*
X107028762Y-37211758D01*
X107028762Y-37211758D02*
X106921012Y-37319507D01*
X107513635Y-37211758D02*
X106947950Y-36646072D01*
X106947950Y-36646072D02*
X107163449Y-36430573D01*
X107163449Y-36430573D02*
X107244261Y-36403636D01*
X107244261Y-36403636D02*
X107298136Y-36403636D01*
X107298136Y-36403636D02*
X107378948Y-36430573D01*
X107378948Y-36430573D02*
X107459760Y-36511385D01*
X107459760Y-36511385D02*
X107486698Y-36592197D01*
X107486698Y-36592197D02*
X107486698Y-36646072D01*
X107486698Y-36646072D02*
X107459760Y-36726884D01*
X107459760Y-36726884D02*
X107244261Y-36942384D01*
X107540573Y-36161199D02*
X107540573Y-36107324D01*
X107540573Y-36107324D02*
X107567510Y-36026512D01*
X107567510Y-36026512D02*
X107702197Y-35891825D01*
X107702197Y-35891825D02*
X107783009Y-35864887D01*
X107783009Y-35864887D02*
X107836884Y-35864887D01*
X107836884Y-35864887D02*
X107917696Y-35891825D01*
X107917696Y-35891825D02*
X107971571Y-35945700D01*
X107971571Y-35945700D02*
X108025446Y-36053449D01*
X108025446Y-36053449D02*
X108025446Y-36699947D01*
X108025446Y-36699947D02*
X108375632Y-36349761D01*
X107998509Y-35595513D02*
X108375632Y-35218390D01*
X108375632Y-35218390D02*
X108698881Y-36026512D01*
X100748888Y-61473009D02*
X100668075Y-61499946D01*
X100668075Y-61499946D02*
X100587263Y-61580759D01*
X100587263Y-61580759D02*
X100533388Y-61688508D01*
X100533388Y-61688508D02*
X100533388Y-61796258D01*
X100533388Y-61796258D02*
X100560326Y-61877070D01*
X100560326Y-61877070D02*
X100641138Y-62011757D01*
X100641138Y-62011757D02*
X100721950Y-62092569D01*
X100721950Y-62092569D02*
X100856637Y-62173382D01*
X100856637Y-62173382D02*
X100937449Y-62200319D01*
X100937449Y-62200319D02*
X101045199Y-62200319D01*
X101045199Y-62200319D02*
X101152949Y-62146444D01*
X101152949Y-62146444D02*
X101206823Y-62092569D01*
X101206823Y-62092569D02*
X101260698Y-61984820D01*
X101260698Y-61984820D02*
X101260698Y-61930945D01*
X101260698Y-61930945D02*
X101072136Y-61742383D01*
X101072136Y-61742383D02*
X100964387Y-61850133D01*
X101557010Y-61742383D02*
X100991324Y-61176698D01*
X100991324Y-61176698D02*
X101206823Y-60961198D01*
X101206823Y-60961198D02*
X101287636Y-60934261D01*
X101287636Y-60934261D02*
X101341510Y-60934261D01*
X101341510Y-60934261D02*
X101422323Y-60961198D01*
X101422323Y-60961198D02*
X101503135Y-61042011D01*
X101503135Y-61042011D02*
X101530072Y-61122823D01*
X101530072Y-61122823D02*
X101530072Y-61176698D01*
X101530072Y-61176698D02*
X101503135Y-61257510D01*
X101503135Y-61257510D02*
X101287636Y-61473009D01*
X101880258Y-60772637D02*
X101799446Y-60799574D01*
X101799446Y-60799574D02*
X101745571Y-60799574D01*
X101745571Y-60799574D02*
X101664759Y-60772637D01*
X101664759Y-60772637D02*
X101637822Y-60745699D01*
X101637822Y-60745699D02*
X101610884Y-60664887D01*
X101610884Y-60664887D02*
X101610884Y-60611012D01*
X101610884Y-60611012D02*
X101637822Y-60530200D01*
X101637822Y-60530200D02*
X101745571Y-60422450D01*
X101745571Y-60422450D02*
X101826384Y-60395513D01*
X101826384Y-60395513D02*
X101880258Y-60395513D01*
X101880258Y-60395513D02*
X101961071Y-60422450D01*
X101961071Y-60422450D02*
X101988008Y-60449388D01*
X101988008Y-60449388D02*
X102014945Y-60530200D01*
X102014945Y-60530200D02*
X102014945Y-60584075D01*
X102014945Y-60584075D02*
X101988008Y-60664887D01*
X101988008Y-60664887D02*
X101880258Y-60772637D01*
X101880258Y-60772637D02*
X101853321Y-60853449D01*
X101853321Y-60853449D02*
X101853321Y-60907324D01*
X101853321Y-60907324D02*
X101880258Y-60988136D01*
X101880258Y-60988136D02*
X101988008Y-61095885D01*
X101988008Y-61095885D02*
X102068820Y-61122823D01*
X102068820Y-61122823D02*
X102122695Y-61122823D01*
X102122695Y-61122823D02*
X102203507Y-61095885D01*
X102203507Y-61095885D02*
X102311257Y-60988136D01*
X102311257Y-60988136D02*
X102338194Y-60907324D01*
X102338194Y-60907324D02*
X102338194Y-60853449D01*
X102338194Y-60853449D02*
X102311257Y-60772637D01*
X102311257Y-60772637D02*
X102203507Y-60664887D01*
X102203507Y-60664887D02*
X102122695Y-60637950D01*
X102122695Y-60637950D02*
X102068820Y-60637950D01*
X102068820Y-60637950D02*
X101988008Y-60664887D01*
X110908888Y-61473009D02*
X110828075Y-61499946D01*
X110828075Y-61499946D02*
X110747263Y-61580759D01*
X110747263Y-61580759D02*
X110693388Y-61688508D01*
X110693388Y-61688508D02*
X110693388Y-61796258D01*
X110693388Y-61796258D02*
X110720326Y-61877070D01*
X110720326Y-61877070D02*
X110801138Y-62011757D01*
X110801138Y-62011757D02*
X110881950Y-62092569D01*
X110881950Y-62092569D02*
X111016637Y-62173382D01*
X111016637Y-62173382D02*
X111097449Y-62200319D01*
X111097449Y-62200319D02*
X111205199Y-62200319D01*
X111205199Y-62200319D02*
X111312949Y-62146444D01*
X111312949Y-62146444D02*
X111366823Y-62092569D01*
X111366823Y-62092569D02*
X111420698Y-61984820D01*
X111420698Y-61984820D02*
X111420698Y-61930945D01*
X111420698Y-61930945D02*
X111232136Y-61742383D01*
X111232136Y-61742383D02*
X111124387Y-61850133D01*
X111717010Y-61742383D02*
X111151324Y-61176698D01*
X111151324Y-61176698D02*
X111366823Y-60961198D01*
X111366823Y-60961198D02*
X111447636Y-60934261D01*
X111447636Y-60934261D02*
X111501510Y-60934261D01*
X111501510Y-60934261D02*
X111582323Y-60961198D01*
X111582323Y-60961198D02*
X111663135Y-61042011D01*
X111663135Y-61042011D02*
X111690072Y-61122823D01*
X111690072Y-61122823D02*
X111690072Y-61176698D01*
X111690072Y-61176698D02*
X111663135Y-61257510D01*
X111663135Y-61257510D02*
X111447636Y-61473009D01*
X111986384Y-60341638D02*
X111717010Y-60611012D01*
X111717010Y-60611012D02*
X111959446Y-60907324D01*
X111959446Y-60907324D02*
X111959446Y-60853449D01*
X111959446Y-60853449D02*
X111986384Y-60772637D01*
X111986384Y-60772637D02*
X112121071Y-60637950D01*
X112121071Y-60637950D02*
X112201883Y-60611012D01*
X112201883Y-60611012D02*
X112255758Y-60611012D01*
X112255758Y-60611012D02*
X112336570Y-60637950D01*
X112336570Y-60637950D02*
X112471257Y-60772637D01*
X112471257Y-60772637D02*
X112498194Y-60853449D01*
X112498194Y-60853449D02*
X112498194Y-60907324D01*
X112498194Y-60907324D02*
X112471257Y-60988136D01*
X112471257Y-60988136D02*
X112336570Y-61122823D01*
X112336570Y-61122823D02*
X112255758Y-61149760D01*
X112255758Y-61149760D02*
X112201883Y-61149760D01*
X114516579Y-37639565D02*
X114785953Y-37370191D01*
X114624329Y-37855064D02*
X114247205Y-37100817D01*
X114247205Y-37100817D02*
X115001452Y-37477940D01*
X115190014Y-37289379D02*
X114624329Y-36723693D01*
X114624329Y-36723693D02*
X114759016Y-36589006D01*
X114759016Y-36589006D02*
X114866765Y-36535132D01*
X114866765Y-36535132D02*
X114974515Y-36535132D01*
X114974515Y-36535132D02*
X115055327Y-36562069D01*
X115055327Y-36562069D02*
X115190014Y-36642881D01*
X115190014Y-36642881D02*
X115270826Y-36723693D01*
X115270826Y-36723693D02*
X115351638Y-36858380D01*
X115351638Y-36858380D02*
X115378576Y-36939193D01*
X115378576Y-36939193D02*
X115378576Y-37046942D01*
X115378576Y-37046942D02*
X115324701Y-37154692D01*
X115324701Y-37154692D02*
X115190014Y-37289379D01*
X116025073Y-36346570D02*
X116025073Y-36400445D01*
X116025073Y-36400445D02*
X115971199Y-36508194D01*
X115971199Y-36508194D02*
X115917324Y-36562069D01*
X115917324Y-36562069D02*
X115809574Y-36615944D01*
X115809574Y-36615944D02*
X115701825Y-36615944D01*
X115701825Y-36615944D02*
X115621012Y-36589006D01*
X115621012Y-36589006D02*
X115486325Y-36508194D01*
X115486325Y-36508194D02*
X115405513Y-36427382D01*
X115405513Y-36427382D02*
X115324701Y-36292695D01*
X115324701Y-36292695D02*
X115297764Y-36211883D01*
X115297764Y-36211883D02*
X115297764Y-36104133D01*
X115297764Y-36104133D02*
X115351638Y-35996383D01*
X115351638Y-35996383D02*
X115405513Y-35942509D01*
X115405513Y-35942509D02*
X115513263Y-35888634D01*
X115513263Y-35888634D02*
X115567138Y-35888634D01*
X116240573Y-36346570D02*
X116671571Y-35915571D01*
X116105886Y-35242136D02*
X116860133Y-35619260D01*
X116860133Y-35619260D02*
X116483009Y-34865013D01*
X117560505Y-34918888D02*
X117102569Y-34838075D01*
X117237256Y-35242136D02*
X116671571Y-34676451D01*
X116671571Y-34676451D02*
X116887070Y-34460952D01*
X116887070Y-34460952D02*
X116967882Y-34434014D01*
X116967882Y-34434014D02*
X117021757Y-34434014D01*
X117021757Y-34434014D02*
X117102569Y-34460952D01*
X117102569Y-34460952D02*
X117183382Y-34541764D01*
X117183382Y-34541764D02*
X117210319Y-34622576D01*
X117210319Y-34622576D02*
X117210319Y-34676451D01*
X117210319Y-34676451D02*
X117183382Y-34757263D01*
X117183382Y-34757263D02*
X116967882Y-34972762D01*
X117506630Y-34380139D02*
X117695192Y-34191578D01*
X118072316Y-34407077D02*
X117802942Y-34676451D01*
X117802942Y-34676451D02*
X117237256Y-34110765D01*
X117237256Y-34110765D02*
X117506630Y-33841391D01*
X118207003Y-33679767D02*
X118018441Y-33868329D01*
X118314753Y-34164640D02*
X117749067Y-33598955D01*
X117749067Y-33598955D02*
X118018441Y-33329581D01*
X77619513Y-61996384D02*
X77538701Y-62023321D01*
X77538701Y-62023321D02*
X77457889Y-62104133D01*
X77457889Y-62104133D02*
X77404014Y-62211883D01*
X77404014Y-62211883D02*
X77404014Y-62319632D01*
X77404014Y-62319632D02*
X77430951Y-62400445D01*
X77430951Y-62400445D02*
X77511764Y-62535132D01*
X77511764Y-62535132D02*
X77592576Y-62615944D01*
X77592576Y-62615944D02*
X77727263Y-62696756D01*
X77727263Y-62696756D02*
X77808075Y-62723693D01*
X77808075Y-62723693D02*
X77915825Y-62723693D01*
X77915825Y-62723693D02*
X78023574Y-62669819D01*
X78023574Y-62669819D02*
X78077449Y-62615944D01*
X78077449Y-62615944D02*
X78131324Y-62508194D01*
X78131324Y-62508194D02*
X78131324Y-62454319D01*
X78131324Y-62454319D02*
X77942762Y-62265758D01*
X77942762Y-62265758D02*
X77835012Y-62373507D01*
X78427635Y-62265758D02*
X77861950Y-61700072D01*
X77861950Y-61700072D02*
X78077449Y-61484573D01*
X78077449Y-61484573D02*
X78158261Y-61457636D01*
X78158261Y-61457636D02*
X78212136Y-61457636D01*
X78212136Y-61457636D02*
X78292948Y-61484573D01*
X78292948Y-61484573D02*
X78373760Y-61565385D01*
X78373760Y-61565385D02*
X78400698Y-61646197D01*
X78400698Y-61646197D02*
X78400698Y-61700072D01*
X78400698Y-61700072D02*
X78373760Y-61780884D01*
X78373760Y-61780884D02*
X78158261Y-61996384D01*
X79289632Y-61403761D02*
X78966383Y-61727010D01*
X79128008Y-61565385D02*
X78562322Y-60999700D01*
X78562322Y-60999700D02*
X78589260Y-61134387D01*
X78589260Y-61134387D02*
X78589260Y-61242136D01*
X78589260Y-61242136D02*
X78562322Y-61322948D01*
X79235757Y-60326264D02*
X78966383Y-60595638D01*
X78966383Y-60595638D02*
X79208820Y-60891950D01*
X79208820Y-60891950D02*
X79208820Y-60838075D01*
X79208820Y-60838075D02*
X79235757Y-60757263D01*
X79235757Y-60757263D02*
X79370444Y-60622576D01*
X79370444Y-60622576D02*
X79451257Y-60595638D01*
X79451257Y-60595638D02*
X79505131Y-60595638D01*
X79505131Y-60595638D02*
X79585944Y-60622576D01*
X79585944Y-60622576D02*
X79720631Y-60757263D01*
X79720631Y-60757263D02*
X79747568Y-60838075D01*
X79747568Y-60838075D02*
X79747568Y-60891950D01*
X79747568Y-60891950D02*
X79720631Y-60972762D01*
X79720631Y-60972762D02*
X79585944Y-61107449D01*
X79585944Y-61107449D02*
X79505131Y-61134387D01*
X79505131Y-61134387D02*
X79451257Y-61134387D01*
X124172265Y-37065757D02*
X124926512Y-37442881D01*
X124926512Y-37442881D02*
X124549388Y-36688634D01*
X125249760Y-37065758D02*
X125357510Y-37011883D01*
X125357510Y-37011883D02*
X125492197Y-36877196D01*
X125492197Y-36877196D02*
X125519134Y-36796384D01*
X125519134Y-36796384D02*
X125519134Y-36742509D01*
X125519134Y-36742509D02*
X125492197Y-36661697D01*
X125492197Y-36661697D02*
X125438322Y-36607822D01*
X125438322Y-36607822D02*
X125357510Y-36580884D01*
X125357510Y-36580884D02*
X125303635Y-36580884D01*
X125303635Y-36580884D02*
X125222823Y-36607822D01*
X125222823Y-36607822D02*
X125088136Y-36688634D01*
X125088136Y-36688634D02*
X125007324Y-36715571D01*
X125007324Y-36715571D02*
X124953449Y-36715571D01*
X124953449Y-36715571D02*
X124872637Y-36688634D01*
X124872637Y-36688634D02*
X124818762Y-36634759D01*
X124818762Y-36634759D02*
X124791825Y-36553947D01*
X124791825Y-36553947D02*
X124791825Y-36500072D01*
X124791825Y-36500072D02*
X124818762Y-36419260D01*
X124818762Y-36419260D02*
X124953449Y-36284573D01*
X124953449Y-36284573D02*
X125061199Y-36230698D01*
X125680759Y-36149886D02*
X125950133Y-36419260D01*
X125195886Y-36042136D02*
X125680759Y-36149886D01*
X125680759Y-36149886D02*
X125573009Y-35665013D01*
X126273382Y-36042136D02*
X126381131Y-35988262D01*
X126381131Y-35988262D02*
X126515818Y-35853575D01*
X126515818Y-35853575D02*
X126542756Y-35772762D01*
X126542756Y-35772762D02*
X126542756Y-35718888D01*
X126542756Y-35718888D02*
X126515818Y-35638075D01*
X126515818Y-35638075D02*
X126461943Y-35584201D01*
X126461943Y-35584201D02*
X126381131Y-35557263D01*
X126381131Y-35557263D02*
X126327256Y-35557263D01*
X126327256Y-35557263D02*
X126246444Y-35584201D01*
X126246444Y-35584201D02*
X126111757Y-35665013D01*
X126111757Y-35665013D02*
X126030945Y-35691950D01*
X126030945Y-35691950D02*
X125977070Y-35691950D01*
X125977070Y-35691950D02*
X125896258Y-35665013D01*
X125896258Y-35665013D02*
X125842383Y-35611138D01*
X125842383Y-35611138D02*
X125815446Y-35530326D01*
X125815446Y-35530326D02*
X125815446Y-35476451D01*
X125815446Y-35476451D02*
X125842383Y-35395639D01*
X125842383Y-35395639D02*
X125977070Y-35260952D01*
X125977070Y-35260952D02*
X126084820Y-35207077D01*
X77132000Y-45095238D02*
X77170095Y-44980952D01*
X77170095Y-44980952D02*
X77170095Y-44790476D01*
X77170095Y-44790476D02*
X77132000Y-44714285D01*
X77132000Y-44714285D02*
X77093904Y-44676190D01*
X77093904Y-44676190D02*
X77017714Y-44638095D01*
X77017714Y-44638095D02*
X76941523Y-44638095D01*
X76941523Y-44638095D02*
X76865333Y-44676190D01*
X76865333Y-44676190D02*
X76827238Y-44714285D01*
X76827238Y-44714285D02*
X76789142Y-44790476D01*
X76789142Y-44790476D02*
X76751047Y-44942857D01*
X76751047Y-44942857D02*
X76712952Y-45019047D01*
X76712952Y-45019047D02*
X76674857Y-45057142D01*
X76674857Y-45057142D02*
X76598666Y-45095238D01*
X76598666Y-45095238D02*
X76522476Y-45095238D01*
X76522476Y-45095238D02*
X76446285Y-45057142D01*
X76446285Y-45057142D02*
X76408190Y-45019047D01*
X76408190Y-45019047D02*
X76370095Y-44942857D01*
X76370095Y-44942857D02*
X76370095Y-44752380D01*
X76370095Y-44752380D02*
X76408190Y-44638095D01*
X76370095Y-44371428D02*
X77170095Y-44180952D01*
X77170095Y-44180952D02*
X76598666Y-44028571D01*
X76598666Y-44028571D02*
X77170095Y-43876190D01*
X77170095Y-43876190D02*
X76370095Y-43685714D01*
X77170095Y-43380951D02*
X76370095Y-43380951D01*
X76370095Y-43380951D02*
X76370095Y-43190475D01*
X76370095Y-43190475D02*
X76408190Y-43076189D01*
X76408190Y-43076189D02*
X76484380Y-42999999D01*
X76484380Y-42999999D02*
X76560571Y-42961904D01*
X76560571Y-42961904D02*
X76712952Y-42923808D01*
X76712952Y-42923808D02*
X76827238Y-42923808D01*
X76827238Y-42923808D02*
X76979619Y-42961904D01*
X76979619Y-42961904D02*
X77055809Y-42999999D01*
X77055809Y-42999999D02*
X77132000Y-43076189D01*
X77132000Y-43076189D02*
X77170095Y-43190475D01*
X77170095Y-43190475D02*
X77170095Y-43380951D01*
X77170095Y-42580951D02*
X76370095Y-42580951D01*
X76370095Y-42047618D02*
X76370095Y-41895237D01*
X76370095Y-41895237D02*
X76408190Y-41819047D01*
X76408190Y-41819047D02*
X76484380Y-41742856D01*
X76484380Y-41742856D02*
X76636761Y-41704761D01*
X76636761Y-41704761D02*
X76903428Y-41704761D01*
X76903428Y-41704761D02*
X77055809Y-41742856D01*
X77055809Y-41742856D02*
X77132000Y-41819047D01*
X77132000Y-41819047D02*
X77170095Y-41895237D01*
X77170095Y-41895237D02*
X77170095Y-42047618D01*
X77170095Y-42047618D02*
X77132000Y-42123809D01*
X77132000Y-42123809D02*
X77055809Y-42199999D01*
X77055809Y-42199999D02*
X76903428Y-42238095D01*
X76903428Y-42238095D02*
X76636761Y-42238095D01*
X76636761Y-42238095D02*
X76484380Y-42199999D01*
X76484380Y-42199999D02*
X76408190Y-42123809D01*
X76408190Y-42123809D02*
X76370095Y-42047618D01*
X104175513Y-36942384D02*
X104094701Y-36969321D01*
X104094701Y-36969321D02*
X104013889Y-37050133D01*
X104013889Y-37050133D02*
X103960014Y-37157883D01*
X103960014Y-37157883D02*
X103960014Y-37265632D01*
X103960014Y-37265632D02*
X103986951Y-37346445D01*
X103986951Y-37346445D02*
X104067764Y-37481132D01*
X104067764Y-37481132D02*
X104148576Y-37561944D01*
X104148576Y-37561944D02*
X104283263Y-37642756D01*
X104283263Y-37642756D02*
X104364075Y-37669693D01*
X104364075Y-37669693D02*
X104471825Y-37669693D01*
X104471825Y-37669693D02*
X104579574Y-37615819D01*
X104579574Y-37615819D02*
X104633449Y-37561944D01*
X104633449Y-37561944D02*
X104687324Y-37454194D01*
X104687324Y-37454194D02*
X104687324Y-37400319D01*
X104687324Y-37400319D02*
X104498762Y-37211758D01*
X104498762Y-37211758D02*
X104391012Y-37319507D01*
X104983635Y-37211758D02*
X104417950Y-36646072D01*
X104417950Y-36646072D02*
X104633449Y-36430573D01*
X104633449Y-36430573D02*
X104714261Y-36403636D01*
X104714261Y-36403636D02*
X104768136Y-36403636D01*
X104768136Y-36403636D02*
X104848948Y-36430573D01*
X104848948Y-36430573D02*
X104929760Y-36511385D01*
X104929760Y-36511385D02*
X104956698Y-36592197D01*
X104956698Y-36592197D02*
X104956698Y-36646072D01*
X104956698Y-36646072D02*
X104929760Y-36726884D01*
X104929760Y-36726884D02*
X104714261Y-36942384D01*
X105010573Y-36161199D02*
X105010573Y-36107324D01*
X105010573Y-36107324D02*
X105037510Y-36026512D01*
X105037510Y-36026512D02*
X105172197Y-35891825D01*
X105172197Y-35891825D02*
X105253009Y-35864887D01*
X105253009Y-35864887D02*
X105306884Y-35864887D01*
X105306884Y-35864887D02*
X105387696Y-35891825D01*
X105387696Y-35891825D02*
X105441571Y-35945700D01*
X105441571Y-35945700D02*
X105495446Y-36053449D01*
X105495446Y-36053449D02*
X105495446Y-36699947D01*
X105495446Y-36699947D02*
X105845632Y-36349761D01*
X105764820Y-35299202D02*
X105657070Y-35406951D01*
X105657070Y-35406951D02*
X105630133Y-35487764D01*
X105630133Y-35487764D02*
X105630133Y-35541638D01*
X105630133Y-35541638D02*
X105657070Y-35676326D01*
X105657070Y-35676326D02*
X105737883Y-35811013D01*
X105737883Y-35811013D02*
X105953382Y-36026512D01*
X105953382Y-36026512D02*
X106034194Y-36053449D01*
X106034194Y-36053449D02*
X106088069Y-36053449D01*
X106088069Y-36053449D02*
X106168881Y-36026512D01*
X106168881Y-36026512D02*
X106276631Y-35918762D01*
X106276631Y-35918762D02*
X106303568Y-35837950D01*
X106303568Y-35837950D02*
X106303568Y-35784075D01*
X106303568Y-35784075D02*
X106276631Y-35703263D01*
X106276631Y-35703263D02*
X106141944Y-35568576D01*
X106141944Y-35568576D02*
X106061131Y-35541638D01*
X106061131Y-35541638D02*
X106007257Y-35541638D01*
X106007257Y-35541638D02*
X105926444Y-35568576D01*
X105926444Y-35568576D02*
X105818695Y-35676326D01*
X105818695Y-35676326D02*
X105791757Y-35757138D01*
X105791757Y-35757138D02*
X105791757Y-35811013D01*
X105791757Y-35811013D02*
X105818695Y-35891825D01*
X108341950Y-61499946D02*
X108261138Y-61526884D01*
X108261138Y-61526884D02*
X108180326Y-61607696D01*
X108180326Y-61607696D02*
X108126451Y-61715446D01*
X108126451Y-61715446D02*
X108126451Y-61823195D01*
X108126451Y-61823195D02*
X108153389Y-61904007D01*
X108153389Y-61904007D02*
X108234201Y-62038694D01*
X108234201Y-62038694D02*
X108315013Y-62119507D01*
X108315013Y-62119507D02*
X108449700Y-62200319D01*
X108449700Y-62200319D02*
X108530512Y-62227256D01*
X108530512Y-62227256D02*
X108638262Y-62227256D01*
X108638262Y-62227256D02*
X108746011Y-62173381D01*
X108746011Y-62173381D02*
X108799886Y-62119507D01*
X108799886Y-62119507D02*
X108853761Y-62011757D01*
X108853761Y-62011757D02*
X108853761Y-61957882D01*
X108853761Y-61957882D02*
X108665199Y-61769320D01*
X108665199Y-61769320D02*
X108557450Y-61877070D01*
X109150072Y-61769320D02*
X108584387Y-61203635D01*
X108584387Y-61203635D02*
X109473321Y-61446072D01*
X109473321Y-61446072D02*
X108907636Y-60880386D01*
X109742695Y-61176698D02*
X109177010Y-60611012D01*
X109177010Y-60611012D02*
X109311697Y-60476325D01*
X109311697Y-60476325D02*
X109419446Y-60422450D01*
X109419446Y-60422450D02*
X109527196Y-60422450D01*
X109527196Y-60422450D02*
X109608008Y-60449388D01*
X109608008Y-60449388D02*
X109742695Y-60530200D01*
X109742695Y-60530200D02*
X109823507Y-60611012D01*
X109823507Y-60611012D02*
X109904319Y-60745699D01*
X109904319Y-60745699D02*
X109931257Y-60826511D01*
X109931257Y-60826511D02*
X109931257Y-60934261D01*
X109931257Y-60934261D02*
X109877382Y-61042011D01*
X109877382Y-61042011D02*
X109742695Y-61176698D01*
X126714921Y-37033101D02*
X127469168Y-37410224D01*
X127469168Y-37410224D02*
X127092045Y-36655977D01*
X127738542Y-36548228D02*
X127846292Y-36494353D01*
X127846292Y-36494353D02*
X127900167Y-36494353D01*
X127900167Y-36494353D02*
X127980979Y-36521290D01*
X127980979Y-36521290D02*
X128061791Y-36602103D01*
X128061791Y-36602103D02*
X128088728Y-36682915D01*
X128088728Y-36682915D02*
X128088728Y-36736790D01*
X128088728Y-36736790D02*
X128061791Y-36817602D01*
X128061791Y-36817602D02*
X127846292Y-37033101D01*
X127846292Y-37033101D02*
X127280606Y-36467416D01*
X127280606Y-36467416D02*
X127469168Y-36278854D01*
X127469168Y-36278854D02*
X127549980Y-36251916D01*
X127549980Y-36251916D02*
X127603855Y-36251916D01*
X127603855Y-36251916D02*
X127684667Y-36278854D01*
X127684667Y-36278854D02*
X127738542Y-36332729D01*
X127738542Y-36332729D02*
X127765480Y-36413541D01*
X127765480Y-36413541D02*
X127765480Y-36467416D01*
X127765480Y-36467416D02*
X127738542Y-36548228D01*
X127738542Y-36548228D02*
X127549980Y-36736790D01*
X127846292Y-35901730D02*
X128304228Y-36359666D01*
X128304228Y-36359666D02*
X128385040Y-36386603D01*
X128385040Y-36386603D02*
X128438915Y-36386603D01*
X128438915Y-36386603D02*
X128519727Y-36359666D01*
X128519727Y-36359666D02*
X128627476Y-36251916D01*
X128627476Y-36251916D02*
X128654414Y-36171104D01*
X128654414Y-36171104D02*
X128654414Y-36117229D01*
X128654414Y-36117229D02*
X128627476Y-36036417D01*
X128627476Y-36036417D02*
X128169541Y-35578481D01*
X128950725Y-35874793D02*
X129058475Y-35820918D01*
X129058475Y-35820918D02*
X129193162Y-35686231D01*
X129193162Y-35686231D02*
X129220099Y-35605419D01*
X129220099Y-35605419D02*
X129220099Y-35551544D01*
X129220099Y-35551544D02*
X129193162Y-35470732D01*
X129193162Y-35470732D02*
X129139287Y-35416857D01*
X129139287Y-35416857D02*
X129058475Y-35389920D01*
X129058475Y-35389920D02*
X129004600Y-35389920D01*
X129004600Y-35389920D02*
X128923788Y-35416857D01*
X128923788Y-35416857D02*
X128789101Y-35497669D01*
X128789101Y-35497669D02*
X128708288Y-35524607D01*
X128708288Y-35524607D02*
X128654414Y-35524607D01*
X128654414Y-35524607D02*
X128573601Y-35497669D01*
X128573601Y-35497669D02*
X128519727Y-35443794D01*
X128519727Y-35443794D02*
X128492789Y-35362982D01*
X128492789Y-35362982D02*
X128492789Y-35309107D01*
X128492789Y-35309107D02*
X128519727Y-35228295D01*
X128519727Y-35228295D02*
X128654414Y-35093608D01*
X128654414Y-35093608D02*
X128762163Y-35039733D01*
X85239513Y-61996384D02*
X85158701Y-62023321D01*
X85158701Y-62023321D02*
X85077889Y-62104133D01*
X85077889Y-62104133D02*
X85024014Y-62211883D01*
X85024014Y-62211883D02*
X85024014Y-62319632D01*
X85024014Y-62319632D02*
X85050951Y-62400445D01*
X85050951Y-62400445D02*
X85131764Y-62535132D01*
X85131764Y-62535132D02*
X85212576Y-62615944D01*
X85212576Y-62615944D02*
X85347263Y-62696756D01*
X85347263Y-62696756D02*
X85428075Y-62723693D01*
X85428075Y-62723693D02*
X85535825Y-62723693D01*
X85535825Y-62723693D02*
X85643574Y-62669819D01*
X85643574Y-62669819D02*
X85697449Y-62615944D01*
X85697449Y-62615944D02*
X85751324Y-62508194D01*
X85751324Y-62508194D02*
X85751324Y-62454319D01*
X85751324Y-62454319D02*
X85562762Y-62265758D01*
X85562762Y-62265758D02*
X85455012Y-62373507D01*
X86047635Y-62265758D02*
X85481950Y-61700072D01*
X85481950Y-61700072D02*
X85697449Y-61484573D01*
X85697449Y-61484573D02*
X85778261Y-61457636D01*
X85778261Y-61457636D02*
X85832136Y-61457636D01*
X85832136Y-61457636D02*
X85912948Y-61484573D01*
X85912948Y-61484573D02*
X85993760Y-61565385D01*
X85993760Y-61565385D02*
X86020698Y-61646197D01*
X86020698Y-61646197D02*
X86020698Y-61700072D01*
X86020698Y-61700072D02*
X85993760Y-61780884D01*
X85993760Y-61780884D02*
X85778261Y-61996384D01*
X86909632Y-61403761D02*
X86586383Y-61727010D01*
X86748008Y-61565385D02*
X86182322Y-60999700D01*
X86182322Y-60999700D02*
X86209260Y-61134387D01*
X86209260Y-61134387D02*
X86209260Y-61242136D01*
X86209260Y-61242136D02*
X86182322Y-61322948D01*
X86532509Y-60649513D02*
X86882695Y-60299327D01*
X86882695Y-60299327D02*
X86909632Y-60703388D01*
X86909632Y-60703388D02*
X86990444Y-60622576D01*
X86990444Y-60622576D02*
X87071257Y-60595638D01*
X87071257Y-60595638D02*
X87125131Y-60595638D01*
X87125131Y-60595638D02*
X87205944Y-60622576D01*
X87205944Y-60622576D02*
X87340631Y-60757263D01*
X87340631Y-60757263D02*
X87367568Y-60838075D01*
X87367568Y-60838075D02*
X87367568Y-60891950D01*
X87367568Y-60891950D02*
X87340631Y-60972762D01*
X87340631Y-60972762D02*
X87179006Y-61134387D01*
X87179006Y-61134387D02*
X87098194Y-61161324D01*
X87098194Y-61161324D02*
X87044319Y-61161324D01*
X88935513Y-36942384D02*
X88854701Y-36969321D01*
X88854701Y-36969321D02*
X88773889Y-37050133D01*
X88773889Y-37050133D02*
X88720014Y-37157883D01*
X88720014Y-37157883D02*
X88720014Y-37265632D01*
X88720014Y-37265632D02*
X88746951Y-37346445D01*
X88746951Y-37346445D02*
X88827764Y-37481132D01*
X88827764Y-37481132D02*
X88908576Y-37561944D01*
X88908576Y-37561944D02*
X89043263Y-37642756D01*
X89043263Y-37642756D02*
X89124075Y-37669693D01*
X89124075Y-37669693D02*
X89231825Y-37669693D01*
X89231825Y-37669693D02*
X89339574Y-37615819D01*
X89339574Y-37615819D02*
X89393449Y-37561944D01*
X89393449Y-37561944D02*
X89447324Y-37454194D01*
X89447324Y-37454194D02*
X89447324Y-37400319D01*
X89447324Y-37400319D02*
X89258762Y-37211758D01*
X89258762Y-37211758D02*
X89151012Y-37319507D01*
X89743635Y-37211758D02*
X89177950Y-36646072D01*
X89177950Y-36646072D02*
X89393449Y-36430573D01*
X89393449Y-36430573D02*
X89474261Y-36403636D01*
X89474261Y-36403636D02*
X89528136Y-36403636D01*
X89528136Y-36403636D02*
X89608948Y-36430573D01*
X89608948Y-36430573D02*
X89689760Y-36511385D01*
X89689760Y-36511385D02*
X89716698Y-36592197D01*
X89716698Y-36592197D02*
X89716698Y-36646072D01*
X89716698Y-36646072D02*
X89689760Y-36726884D01*
X89689760Y-36726884D02*
X89474261Y-36942384D01*
X90605632Y-36349761D02*
X90282383Y-36673010D01*
X90444008Y-36511385D02*
X89878322Y-35945700D01*
X89878322Y-35945700D02*
X89905260Y-36080387D01*
X89905260Y-36080387D02*
X89905260Y-36188136D01*
X89905260Y-36188136D02*
X89878322Y-36268948D01*
X90875006Y-36080387D02*
X90982756Y-35972637D01*
X90982756Y-35972637D02*
X91009693Y-35891825D01*
X91009693Y-35891825D02*
X91009693Y-35837950D01*
X91009693Y-35837950D02*
X90982756Y-35703263D01*
X90982756Y-35703263D02*
X90901944Y-35568576D01*
X90901944Y-35568576D02*
X90686444Y-35353077D01*
X90686444Y-35353077D02*
X90605632Y-35326139D01*
X90605632Y-35326139D02*
X90551757Y-35326139D01*
X90551757Y-35326139D02*
X90470945Y-35353077D01*
X90470945Y-35353077D02*
X90363196Y-35460826D01*
X90363196Y-35460826D02*
X90336258Y-35541638D01*
X90336258Y-35541638D02*
X90336258Y-35595513D01*
X90336258Y-35595513D02*
X90363196Y-35676326D01*
X90363196Y-35676326D02*
X90497883Y-35811013D01*
X90497883Y-35811013D02*
X90578695Y-35837950D01*
X90578695Y-35837950D02*
X90632570Y-35837950D01*
X90632570Y-35837950D02*
X90713382Y-35811013D01*
X90713382Y-35811013D02*
X90821131Y-35703263D01*
X90821131Y-35703263D02*
X90848069Y-35622451D01*
X90848069Y-35622451D02*
X90848069Y-35568576D01*
X90848069Y-35568576D02*
X90821131Y-35487764D01*
X87779513Y-62142384D02*
X87698701Y-62169321D01*
X87698701Y-62169321D02*
X87617889Y-62250133D01*
X87617889Y-62250133D02*
X87564014Y-62357883D01*
X87564014Y-62357883D02*
X87564014Y-62465632D01*
X87564014Y-62465632D02*
X87590951Y-62546445D01*
X87590951Y-62546445D02*
X87671764Y-62681132D01*
X87671764Y-62681132D02*
X87752576Y-62761944D01*
X87752576Y-62761944D02*
X87887263Y-62842756D01*
X87887263Y-62842756D02*
X87968075Y-62869693D01*
X87968075Y-62869693D02*
X88075825Y-62869693D01*
X88075825Y-62869693D02*
X88183574Y-62815819D01*
X88183574Y-62815819D02*
X88237449Y-62761944D01*
X88237449Y-62761944D02*
X88291324Y-62654194D01*
X88291324Y-62654194D02*
X88291324Y-62600319D01*
X88291324Y-62600319D02*
X88102762Y-62411758D01*
X88102762Y-62411758D02*
X87995012Y-62519507D01*
X88587635Y-62411758D02*
X88021950Y-61846072D01*
X88021950Y-61846072D02*
X88237449Y-61630573D01*
X88237449Y-61630573D02*
X88318261Y-61603636D01*
X88318261Y-61603636D02*
X88372136Y-61603636D01*
X88372136Y-61603636D02*
X88452948Y-61630573D01*
X88452948Y-61630573D02*
X88533760Y-61711385D01*
X88533760Y-61711385D02*
X88560698Y-61792197D01*
X88560698Y-61792197D02*
X88560698Y-61846072D01*
X88560698Y-61846072D02*
X88533760Y-61926884D01*
X88533760Y-61926884D02*
X88318261Y-62142384D01*
X89449632Y-61549761D02*
X89126383Y-61873010D01*
X89288008Y-61711385D02*
X88722322Y-61145700D01*
X88722322Y-61145700D02*
X88749260Y-61280387D01*
X88749260Y-61280387D02*
X88749260Y-61388136D01*
X88749260Y-61388136D02*
X88722322Y-61468948D01*
X89153321Y-60822451D02*
X89153321Y-60768576D01*
X89153321Y-60768576D02*
X89180258Y-60687764D01*
X89180258Y-60687764D02*
X89314945Y-60553077D01*
X89314945Y-60553077D02*
X89395757Y-60526139D01*
X89395757Y-60526139D02*
X89449632Y-60526139D01*
X89449632Y-60526139D02*
X89530444Y-60553077D01*
X89530444Y-60553077D02*
X89584319Y-60606951D01*
X89584319Y-60606951D02*
X89638194Y-60714701D01*
X89638194Y-60714701D02*
X89638194Y-61361199D01*
X89638194Y-61361199D02*
X89988380Y-61011013D01*
X105828888Y-61473009D02*
X105748075Y-61499946D01*
X105748075Y-61499946D02*
X105667263Y-61580759D01*
X105667263Y-61580759D02*
X105613388Y-61688508D01*
X105613388Y-61688508D02*
X105613388Y-61796258D01*
X105613388Y-61796258D02*
X105640326Y-61877070D01*
X105640326Y-61877070D02*
X105721138Y-62011757D01*
X105721138Y-62011757D02*
X105801950Y-62092569D01*
X105801950Y-62092569D02*
X105936637Y-62173382D01*
X105936637Y-62173382D02*
X106017449Y-62200319D01*
X106017449Y-62200319D02*
X106125199Y-62200319D01*
X106125199Y-62200319D02*
X106232949Y-62146444D01*
X106232949Y-62146444D02*
X106286823Y-62092569D01*
X106286823Y-62092569D02*
X106340698Y-61984820D01*
X106340698Y-61984820D02*
X106340698Y-61930945D01*
X106340698Y-61930945D02*
X106152136Y-61742383D01*
X106152136Y-61742383D02*
X106044387Y-61850133D01*
X106637010Y-61742383D02*
X106071324Y-61176698D01*
X106071324Y-61176698D02*
X106286823Y-60961198D01*
X106286823Y-60961198D02*
X106367636Y-60934261D01*
X106367636Y-60934261D02*
X106421510Y-60934261D01*
X106421510Y-60934261D02*
X106502323Y-60961198D01*
X106502323Y-60961198D02*
X106583135Y-61042011D01*
X106583135Y-61042011D02*
X106610072Y-61122823D01*
X106610072Y-61122823D02*
X106610072Y-61176698D01*
X106610072Y-61176698D02*
X106583135Y-61257510D01*
X106583135Y-61257510D02*
X106367636Y-61473009D01*
X106879446Y-60368576D02*
X106771697Y-60476325D01*
X106771697Y-60476325D02*
X106744759Y-60557137D01*
X106744759Y-60557137D02*
X106744759Y-60611012D01*
X106744759Y-60611012D02*
X106771697Y-60745699D01*
X106771697Y-60745699D02*
X106852509Y-60880386D01*
X106852509Y-60880386D02*
X107068008Y-61095885D01*
X107068008Y-61095885D02*
X107148820Y-61122823D01*
X107148820Y-61122823D02*
X107202695Y-61122823D01*
X107202695Y-61122823D02*
X107283507Y-61095885D01*
X107283507Y-61095885D02*
X107391257Y-60988136D01*
X107391257Y-60988136D02*
X107418194Y-60907324D01*
X107418194Y-60907324D02*
X107418194Y-60853449D01*
X107418194Y-60853449D02*
X107391257Y-60772637D01*
X107391257Y-60772637D02*
X107256570Y-60637950D01*
X107256570Y-60637950D02*
X107175758Y-60611012D01*
X107175758Y-60611012D02*
X107121883Y-60611012D01*
X107121883Y-60611012D02*
X107041071Y-60637950D01*
X107041071Y-60637950D02*
X106933321Y-60745699D01*
X106933321Y-60745699D02*
X106906384Y-60826511D01*
X106906384Y-60826511D02*
X106906384Y-60880386D01*
X106906384Y-60880386D02*
X106933321Y-60961198D01*
X123618888Y-61573009D02*
X123538075Y-61599946D01*
X123538075Y-61599946D02*
X123457263Y-61680759D01*
X123457263Y-61680759D02*
X123403388Y-61788508D01*
X123403388Y-61788508D02*
X123403388Y-61896258D01*
X123403388Y-61896258D02*
X123430326Y-61977070D01*
X123430326Y-61977070D02*
X123511138Y-62111757D01*
X123511138Y-62111757D02*
X123591950Y-62192569D01*
X123591950Y-62192569D02*
X123726637Y-62273382D01*
X123726637Y-62273382D02*
X123807449Y-62300319D01*
X123807449Y-62300319D02*
X123915199Y-62300319D01*
X123915199Y-62300319D02*
X124022949Y-62246444D01*
X124022949Y-62246444D02*
X124076823Y-62192569D01*
X124076823Y-62192569D02*
X124130698Y-62084820D01*
X124130698Y-62084820D02*
X124130698Y-62030945D01*
X124130698Y-62030945D02*
X123942136Y-61842383D01*
X123942136Y-61842383D02*
X123834387Y-61950133D01*
X124427010Y-61842383D02*
X123861324Y-61276698D01*
X123861324Y-61276698D02*
X124076823Y-61061198D01*
X124076823Y-61061198D02*
X124157636Y-61034261D01*
X124157636Y-61034261D02*
X124211510Y-61034261D01*
X124211510Y-61034261D02*
X124292323Y-61061198D01*
X124292323Y-61061198D02*
X124373135Y-61142011D01*
X124373135Y-61142011D02*
X124400072Y-61222823D01*
X124400072Y-61222823D02*
X124400072Y-61276698D01*
X124400072Y-61276698D02*
X124373135Y-61357510D01*
X124373135Y-61357510D02*
X124157636Y-61573009D01*
X125289006Y-60980386D02*
X124965758Y-61303635D01*
X125127382Y-61142011D02*
X124561697Y-60576325D01*
X124561697Y-60576325D02*
X124588634Y-60711012D01*
X124588634Y-60711012D02*
X124588634Y-60818762D01*
X124588634Y-60818762D02*
X124561697Y-60899574D01*
X102430167Y-37279226D02*
X101972231Y-37198414D01*
X102106918Y-37602475D02*
X101541233Y-37036789D01*
X101541233Y-37036789D02*
X101756732Y-36821290D01*
X101756732Y-36821290D02*
X101837544Y-36794353D01*
X101837544Y-36794353D02*
X101891419Y-36794353D01*
X101891419Y-36794353D02*
X101972231Y-36821290D01*
X101972231Y-36821290D02*
X102053043Y-36902102D01*
X102053043Y-36902102D02*
X102079981Y-36982914D01*
X102079981Y-36982914D02*
X102079981Y-37036789D01*
X102079981Y-37036789D02*
X102053043Y-37117601D01*
X102053043Y-37117601D02*
X101837544Y-37333101D01*
X102106918Y-36471104D02*
X102564854Y-36929040D01*
X102564854Y-36929040D02*
X102645666Y-36955977D01*
X102645666Y-36955977D02*
X102699541Y-36955977D01*
X102699541Y-36955977D02*
X102780353Y-36929040D01*
X102780353Y-36929040D02*
X102888103Y-36821290D01*
X102888103Y-36821290D02*
X102915040Y-36740478D01*
X102915040Y-36740478D02*
X102915040Y-36686603D01*
X102915040Y-36686603D02*
X102888103Y-36605791D01*
X102888103Y-36605791D02*
X102430167Y-36147855D01*
X103265226Y-36444167D02*
X102699541Y-35878481D01*
X102699541Y-35878481D02*
X103588475Y-36120918D01*
X103588475Y-36120918D02*
X103022789Y-35555232D01*
X86395513Y-36942384D02*
X86314701Y-36969321D01*
X86314701Y-36969321D02*
X86233889Y-37050133D01*
X86233889Y-37050133D02*
X86180014Y-37157883D01*
X86180014Y-37157883D02*
X86180014Y-37265632D01*
X86180014Y-37265632D02*
X86206951Y-37346445D01*
X86206951Y-37346445D02*
X86287764Y-37481132D01*
X86287764Y-37481132D02*
X86368576Y-37561944D01*
X86368576Y-37561944D02*
X86503263Y-37642756D01*
X86503263Y-37642756D02*
X86584075Y-37669693D01*
X86584075Y-37669693D02*
X86691825Y-37669693D01*
X86691825Y-37669693D02*
X86799574Y-37615819D01*
X86799574Y-37615819D02*
X86853449Y-37561944D01*
X86853449Y-37561944D02*
X86907324Y-37454194D01*
X86907324Y-37454194D02*
X86907324Y-37400319D01*
X86907324Y-37400319D02*
X86718762Y-37211758D01*
X86718762Y-37211758D02*
X86611012Y-37319507D01*
X87203635Y-37211758D02*
X86637950Y-36646072D01*
X86637950Y-36646072D02*
X86853449Y-36430573D01*
X86853449Y-36430573D02*
X86934261Y-36403636D01*
X86934261Y-36403636D02*
X86988136Y-36403636D01*
X86988136Y-36403636D02*
X87068948Y-36430573D01*
X87068948Y-36430573D02*
X87149760Y-36511385D01*
X87149760Y-36511385D02*
X87176698Y-36592197D01*
X87176698Y-36592197D02*
X87176698Y-36646072D01*
X87176698Y-36646072D02*
X87149760Y-36726884D01*
X87149760Y-36726884D02*
X86934261Y-36942384D01*
X88065632Y-36349761D02*
X87742383Y-36673010D01*
X87904008Y-36511385D02*
X87338322Y-35945700D01*
X87338322Y-35945700D02*
X87365260Y-36080387D01*
X87365260Y-36080387D02*
X87365260Y-36188136D01*
X87365260Y-36188136D02*
X87338322Y-36268948D01*
X88065632Y-35703263D02*
X87984820Y-35730200D01*
X87984820Y-35730200D02*
X87930945Y-35730200D01*
X87930945Y-35730200D02*
X87850133Y-35703263D01*
X87850133Y-35703263D02*
X87823196Y-35676326D01*
X87823196Y-35676326D02*
X87796258Y-35595513D01*
X87796258Y-35595513D02*
X87796258Y-35541638D01*
X87796258Y-35541638D02*
X87823196Y-35460826D01*
X87823196Y-35460826D02*
X87930945Y-35353077D01*
X87930945Y-35353077D02*
X88011757Y-35326139D01*
X88011757Y-35326139D02*
X88065632Y-35326139D01*
X88065632Y-35326139D02*
X88146444Y-35353077D01*
X88146444Y-35353077D02*
X88173382Y-35380014D01*
X88173382Y-35380014D02*
X88200319Y-35460826D01*
X88200319Y-35460826D02*
X88200319Y-35514701D01*
X88200319Y-35514701D02*
X88173382Y-35595513D01*
X88173382Y-35595513D02*
X88065632Y-35703263D01*
X88065632Y-35703263D02*
X88038695Y-35784075D01*
X88038695Y-35784075D02*
X88038695Y-35837950D01*
X88038695Y-35837950D02*
X88065632Y-35918762D01*
X88065632Y-35918762D02*
X88173382Y-36026512D01*
X88173382Y-36026512D02*
X88254194Y-36053449D01*
X88254194Y-36053449D02*
X88308069Y-36053449D01*
X88308069Y-36053449D02*
X88388881Y-36026512D01*
X88388881Y-36026512D02*
X88496631Y-35918762D01*
X88496631Y-35918762D02*
X88523568Y-35837950D01*
X88523568Y-35837950D02*
X88523568Y-35784075D01*
X88523568Y-35784075D02*
X88496631Y-35703263D01*
X88496631Y-35703263D02*
X88388881Y-35595513D01*
X88388881Y-35595513D02*
X88308069Y-35568576D01*
X88308069Y-35568576D02*
X88254194Y-35568576D01*
X88254194Y-35568576D02*
X88173382Y-35595513D01*
X115988888Y-61473009D02*
X115908075Y-61499946D01*
X115908075Y-61499946D02*
X115827263Y-61580759D01*
X115827263Y-61580759D02*
X115773388Y-61688508D01*
X115773388Y-61688508D02*
X115773388Y-61796258D01*
X115773388Y-61796258D02*
X115800326Y-61877070D01*
X115800326Y-61877070D02*
X115881138Y-62011757D01*
X115881138Y-62011757D02*
X115961950Y-62092569D01*
X115961950Y-62092569D02*
X116096637Y-62173382D01*
X116096637Y-62173382D02*
X116177449Y-62200319D01*
X116177449Y-62200319D02*
X116285199Y-62200319D01*
X116285199Y-62200319D02*
X116392949Y-62146444D01*
X116392949Y-62146444D02*
X116446823Y-62092569D01*
X116446823Y-62092569D02*
X116500698Y-61984820D01*
X116500698Y-61984820D02*
X116500698Y-61930945D01*
X116500698Y-61930945D02*
X116312136Y-61742383D01*
X116312136Y-61742383D02*
X116204387Y-61850133D01*
X116797010Y-61742383D02*
X116231324Y-61176698D01*
X116231324Y-61176698D02*
X116446823Y-60961198D01*
X116446823Y-60961198D02*
X116527636Y-60934261D01*
X116527636Y-60934261D02*
X116581510Y-60934261D01*
X116581510Y-60934261D02*
X116662323Y-60961198D01*
X116662323Y-60961198D02*
X116743135Y-61042011D01*
X116743135Y-61042011D02*
X116770072Y-61122823D01*
X116770072Y-61122823D02*
X116770072Y-61176698D01*
X116770072Y-61176698D02*
X116743135Y-61257510D01*
X116743135Y-61257510D02*
X116527636Y-61473009D01*
X116743135Y-60664887D02*
X117093321Y-60314701D01*
X117093321Y-60314701D02*
X117120258Y-60718762D01*
X117120258Y-60718762D02*
X117201071Y-60637950D01*
X117201071Y-60637950D02*
X117281883Y-60611012D01*
X117281883Y-60611012D02*
X117335758Y-60611012D01*
X117335758Y-60611012D02*
X117416570Y-60637950D01*
X117416570Y-60637950D02*
X117551257Y-60772637D01*
X117551257Y-60772637D02*
X117578194Y-60853449D01*
X117578194Y-60853449D02*
X117578194Y-60907324D01*
X117578194Y-60907324D02*
X117551257Y-60988136D01*
X117551257Y-60988136D02*
X117389632Y-61149760D01*
X117389632Y-61149760D02*
X117308820Y-61176698D01*
X117308820Y-61176698D02*
X117254945Y-61176698D01*
X81315513Y-36942384D02*
X81234701Y-36969321D01*
X81234701Y-36969321D02*
X81153889Y-37050133D01*
X81153889Y-37050133D02*
X81100014Y-37157883D01*
X81100014Y-37157883D02*
X81100014Y-37265632D01*
X81100014Y-37265632D02*
X81126951Y-37346445D01*
X81126951Y-37346445D02*
X81207764Y-37481132D01*
X81207764Y-37481132D02*
X81288576Y-37561944D01*
X81288576Y-37561944D02*
X81423263Y-37642756D01*
X81423263Y-37642756D02*
X81504075Y-37669693D01*
X81504075Y-37669693D02*
X81611825Y-37669693D01*
X81611825Y-37669693D02*
X81719574Y-37615819D01*
X81719574Y-37615819D02*
X81773449Y-37561944D01*
X81773449Y-37561944D02*
X81827324Y-37454194D01*
X81827324Y-37454194D02*
X81827324Y-37400319D01*
X81827324Y-37400319D02*
X81638762Y-37211758D01*
X81638762Y-37211758D02*
X81531012Y-37319507D01*
X82123635Y-37211758D02*
X81557950Y-36646072D01*
X81557950Y-36646072D02*
X81773449Y-36430573D01*
X81773449Y-36430573D02*
X81854261Y-36403636D01*
X81854261Y-36403636D02*
X81908136Y-36403636D01*
X81908136Y-36403636D02*
X81988948Y-36430573D01*
X81988948Y-36430573D02*
X82069760Y-36511385D01*
X82069760Y-36511385D02*
X82096698Y-36592197D01*
X82096698Y-36592197D02*
X82096698Y-36646072D01*
X82096698Y-36646072D02*
X82069760Y-36726884D01*
X82069760Y-36726884D02*
X81854261Y-36942384D01*
X82985632Y-36349761D02*
X82662383Y-36673010D01*
X82824008Y-36511385D02*
X82258322Y-35945700D01*
X82258322Y-35945700D02*
X82285260Y-36080387D01*
X82285260Y-36080387D02*
X82285260Y-36188136D01*
X82285260Y-36188136D02*
X82258322Y-36268948D01*
X82608509Y-35595513D02*
X82985632Y-35218390D01*
X82985632Y-35218390D02*
X83308881Y-36026512D01*
X118528888Y-61573009D02*
X118448075Y-61599946D01*
X118448075Y-61599946D02*
X118367263Y-61680759D01*
X118367263Y-61680759D02*
X118313388Y-61788508D01*
X118313388Y-61788508D02*
X118313388Y-61896258D01*
X118313388Y-61896258D02*
X118340326Y-61977070D01*
X118340326Y-61977070D02*
X118421138Y-62111757D01*
X118421138Y-62111757D02*
X118501950Y-62192569D01*
X118501950Y-62192569D02*
X118636637Y-62273382D01*
X118636637Y-62273382D02*
X118717449Y-62300319D01*
X118717449Y-62300319D02*
X118825199Y-62300319D01*
X118825199Y-62300319D02*
X118932949Y-62246444D01*
X118932949Y-62246444D02*
X118986823Y-62192569D01*
X118986823Y-62192569D02*
X119040698Y-62084820D01*
X119040698Y-62084820D02*
X119040698Y-62030945D01*
X119040698Y-62030945D02*
X118852136Y-61842383D01*
X118852136Y-61842383D02*
X118744387Y-61950133D01*
X119337010Y-61842383D02*
X118771324Y-61276698D01*
X118771324Y-61276698D02*
X118986823Y-61061198D01*
X118986823Y-61061198D02*
X119067636Y-61034261D01*
X119067636Y-61034261D02*
X119121510Y-61034261D01*
X119121510Y-61034261D02*
X119202323Y-61061198D01*
X119202323Y-61061198D02*
X119283135Y-61142011D01*
X119283135Y-61142011D02*
X119310072Y-61222823D01*
X119310072Y-61222823D02*
X119310072Y-61276698D01*
X119310072Y-61276698D02*
X119283135Y-61357510D01*
X119283135Y-61357510D02*
X119067636Y-61573009D01*
X119363947Y-60791824D02*
X119363947Y-60737950D01*
X119363947Y-60737950D02*
X119390884Y-60657137D01*
X119390884Y-60657137D02*
X119525571Y-60522450D01*
X119525571Y-60522450D02*
X119606384Y-60495513D01*
X119606384Y-60495513D02*
X119660258Y-60495513D01*
X119660258Y-60495513D02*
X119741071Y-60522450D01*
X119741071Y-60522450D02*
X119794945Y-60576325D01*
X119794945Y-60576325D02*
X119848820Y-60684075D01*
X119848820Y-60684075D02*
X119848820Y-61330572D01*
X119848820Y-61330572D02*
X120199006Y-60980386D01*
X96213950Y-61436946D02*
X96133138Y-61463884D01*
X96133138Y-61463884D02*
X96052326Y-61544696D01*
X96052326Y-61544696D02*
X95998451Y-61652446D01*
X95998451Y-61652446D02*
X95998451Y-61760195D01*
X95998451Y-61760195D02*
X96025389Y-61841007D01*
X96025389Y-61841007D02*
X96106201Y-61975694D01*
X96106201Y-61975694D02*
X96187013Y-62056507D01*
X96187013Y-62056507D02*
X96321700Y-62137319D01*
X96321700Y-62137319D02*
X96402512Y-62164256D01*
X96402512Y-62164256D02*
X96510262Y-62164256D01*
X96510262Y-62164256D02*
X96618011Y-62110381D01*
X96618011Y-62110381D02*
X96671886Y-62056507D01*
X96671886Y-62056507D02*
X96725761Y-61948757D01*
X96725761Y-61948757D02*
X96725761Y-61894882D01*
X96725761Y-61894882D02*
X96537199Y-61706320D01*
X96537199Y-61706320D02*
X96429450Y-61814070D01*
X97022072Y-61706320D02*
X96456387Y-61140635D01*
X96456387Y-61140635D02*
X97345321Y-61383072D01*
X97345321Y-61383072D02*
X96779636Y-60817386D01*
X97614695Y-61113698D02*
X97049010Y-60548012D01*
X97049010Y-60548012D02*
X97183697Y-60413325D01*
X97183697Y-60413325D02*
X97291446Y-60359450D01*
X97291446Y-60359450D02*
X97399196Y-60359450D01*
X97399196Y-60359450D02*
X97480008Y-60386388D01*
X97480008Y-60386388D02*
X97614695Y-60467200D01*
X97614695Y-60467200D02*
X97695507Y-60548012D01*
X97695507Y-60548012D02*
X97776319Y-60682699D01*
X97776319Y-60682699D02*
X97803257Y-60763511D01*
X97803257Y-60763511D02*
X97803257Y-60871261D01*
X97803257Y-60871261D02*
X97749382Y-60979011D01*
X97749382Y-60979011D02*
X97614695Y-61113698D01*
X99095513Y-36942384D02*
X99014701Y-36969321D01*
X99014701Y-36969321D02*
X98933889Y-37050133D01*
X98933889Y-37050133D02*
X98880014Y-37157883D01*
X98880014Y-37157883D02*
X98880014Y-37265632D01*
X98880014Y-37265632D02*
X98906951Y-37346445D01*
X98906951Y-37346445D02*
X98987764Y-37481132D01*
X98987764Y-37481132D02*
X99068576Y-37561944D01*
X99068576Y-37561944D02*
X99203263Y-37642756D01*
X99203263Y-37642756D02*
X99284075Y-37669693D01*
X99284075Y-37669693D02*
X99391825Y-37669693D01*
X99391825Y-37669693D02*
X99499574Y-37615819D01*
X99499574Y-37615819D02*
X99553449Y-37561944D01*
X99553449Y-37561944D02*
X99607324Y-37454194D01*
X99607324Y-37454194D02*
X99607324Y-37400319D01*
X99607324Y-37400319D02*
X99418762Y-37211758D01*
X99418762Y-37211758D02*
X99311012Y-37319507D01*
X99903635Y-37211758D02*
X99337950Y-36646072D01*
X99337950Y-36646072D02*
X99553449Y-36430573D01*
X99553449Y-36430573D02*
X99634261Y-36403636D01*
X99634261Y-36403636D02*
X99688136Y-36403636D01*
X99688136Y-36403636D02*
X99768948Y-36430573D01*
X99768948Y-36430573D02*
X99849760Y-36511385D01*
X99849760Y-36511385D02*
X99876698Y-36592197D01*
X99876698Y-36592197D02*
X99876698Y-36646072D01*
X99876698Y-36646072D02*
X99849760Y-36726884D01*
X99849760Y-36726884D02*
X99634261Y-36942384D01*
X99930573Y-36161199D02*
X99930573Y-36107324D01*
X99930573Y-36107324D02*
X99957510Y-36026512D01*
X99957510Y-36026512D02*
X100092197Y-35891825D01*
X100092197Y-35891825D02*
X100173009Y-35864887D01*
X100173009Y-35864887D02*
X100226884Y-35864887D01*
X100226884Y-35864887D02*
X100307696Y-35891825D01*
X100307696Y-35891825D02*
X100361571Y-35945700D01*
X100361571Y-35945700D02*
X100415446Y-36053449D01*
X100415446Y-36053449D02*
X100415446Y-36699947D01*
X100415446Y-36699947D02*
X100765632Y-36349761D01*
X100469321Y-35622451D02*
X100469321Y-35568576D01*
X100469321Y-35568576D02*
X100496258Y-35487764D01*
X100496258Y-35487764D02*
X100630945Y-35353077D01*
X100630945Y-35353077D02*
X100711757Y-35326139D01*
X100711757Y-35326139D02*
X100765632Y-35326139D01*
X100765632Y-35326139D02*
X100846444Y-35353077D01*
X100846444Y-35353077D02*
X100900319Y-35406951D01*
X100900319Y-35406951D02*
X100954194Y-35514701D01*
X100954194Y-35514701D02*
X100954194Y-36161199D01*
X100954194Y-36161199D02*
X101304380Y-35811013D01*
X126148888Y-61473009D02*
X126068075Y-61499946D01*
X126068075Y-61499946D02*
X125987263Y-61580759D01*
X125987263Y-61580759D02*
X125933388Y-61688508D01*
X125933388Y-61688508D02*
X125933388Y-61796258D01*
X125933388Y-61796258D02*
X125960326Y-61877070D01*
X125960326Y-61877070D02*
X126041138Y-62011757D01*
X126041138Y-62011757D02*
X126121950Y-62092569D01*
X126121950Y-62092569D02*
X126256637Y-62173382D01*
X126256637Y-62173382D02*
X126337449Y-62200319D01*
X126337449Y-62200319D02*
X126445199Y-62200319D01*
X126445199Y-62200319D02*
X126552949Y-62146444D01*
X126552949Y-62146444D02*
X126606823Y-62092569D01*
X126606823Y-62092569D02*
X126660698Y-61984820D01*
X126660698Y-61984820D02*
X126660698Y-61930945D01*
X126660698Y-61930945D02*
X126472136Y-61742383D01*
X126472136Y-61742383D02*
X126364387Y-61850133D01*
X126957010Y-61742383D02*
X126391324Y-61176698D01*
X126391324Y-61176698D02*
X126606823Y-60961198D01*
X126606823Y-60961198D02*
X126687636Y-60934261D01*
X126687636Y-60934261D02*
X126741510Y-60934261D01*
X126741510Y-60934261D02*
X126822323Y-60961198D01*
X126822323Y-60961198D02*
X126903135Y-61042011D01*
X126903135Y-61042011D02*
X126930072Y-61122823D01*
X126930072Y-61122823D02*
X126930072Y-61176698D01*
X126930072Y-61176698D02*
X126903135Y-61257510D01*
X126903135Y-61257510D02*
X126687636Y-61473009D01*
X127064759Y-60503263D02*
X127118634Y-60449388D01*
X127118634Y-60449388D02*
X127199446Y-60422450D01*
X127199446Y-60422450D02*
X127253321Y-60422450D01*
X127253321Y-60422450D02*
X127334133Y-60449388D01*
X127334133Y-60449388D02*
X127468820Y-60530200D01*
X127468820Y-60530200D02*
X127603507Y-60664887D01*
X127603507Y-60664887D02*
X127684319Y-60799574D01*
X127684319Y-60799574D02*
X127711257Y-60880386D01*
X127711257Y-60880386D02*
X127711257Y-60934261D01*
X127711257Y-60934261D02*
X127684319Y-61015073D01*
X127684319Y-61015073D02*
X127630445Y-61068948D01*
X127630445Y-61068948D02*
X127549632Y-61095885D01*
X127549632Y-61095885D02*
X127495758Y-61095885D01*
X127495758Y-61095885D02*
X127414945Y-61068948D01*
X127414945Y-61068948D02*
X127280258Y-60988136D01*
X127280258Y-60988136D02*
X127145571Y-60853449D01*
X127145571Y-60853449D02*
X127064759Y-60718762D01*
X127064759Y-60718762D02*
X127037822Y-60637950D01*
X127037822Y-60637950D02*
X127037822Y-60584075D01*
X127037822Y-60584075D02*
X127064759Y-60503263D01*
X116751638Y-37096383D02*
X117101825Y-36746197D01*
X117101825Y-36746197D02*
X117128762Y-37150258D01*
X117128762Y-37150258D02*
X117209574Y-37069446D01*
X117209574Y-37069446D02*
X117290386Y-37042509D01*
X117290386Y-37042509D02*
X117344261Y-37042509D01*
X117344261Y-37042509D02*
X117425073Y-37069446D01*
X117425073Y-37069446D02*
X117559760Y-37204133D01*
X117559760Y-37204133D02*
X117586698Y-37284945D01*
X117586698Y-37284945D02*
X117586698Y-37338820D01*
X117586698Y-37338820D02*
X117559760Y-37419632D01*
X117559760Y-37419632D02*
X117398136Y-37581257D01*
X117398136Y-37581257D02*
X117317324Y-37608194D01*
X117317324Y-37608194D02*
X117263449Y-37608194D01*
X117263449Y-36584573D02*
X118017696Y-36961696D01*
X118017696Y-36961696D02*
X117640573Y-36207449D01*
X117775260Y-36072762D02*
X118125446Y-35722576D01*
X118125446Y-35722576D02*
X118152383Y-36126637D01*
X118152383Y-36126637D02*
X118233195Y-36045825D01*
X118233195Y-36045825D02*
X118314008Y-36018887D01*
X118314008Y-36018887D02*
X118367882Y-36018887D01*
X118367882Y-36018887D02*
X118448695Y-36045825D01*
X118448695Y-36045825D02*
X118583382Y-36180512D01*
X118583382Y-36180512D02*
X118610319Y-36261324D01*
X118610319Y-36261324D02*
X118610319Y-36315199D01*
X118610319Y-36315199D02*
X118583382Y-36396011D01*
X118583382Y-36396011D02*
X118421757Y-36557635D01*
X118421757Y-36557635D02*
X118340945Y-36584573D01*
X118340945Y-36584573D02*
X118287070Y-36584573D01*
X103318888Y-61373009D02*
X103238075Y-61399946D01*
X103238075Y-61399946D02*
X103157263Y-61480759D01*
X103157263Y-61480759D02*
X103103388Y-61588508D01*
X103103388Y-61588508D02*
X103103388Y-61696258D01*
X103103388Y-61696258D02*
X103130326Y-61777070D01*
X103130326Y-61777070D02*
X103211138Y-61911757D01*
X103211138Y-61911757D02*
X103291950Y-61992569D01*
X103291950Y-61992569D02*
X103426637Y-62073382D01*
X103426637Y-62073382D02*
X103507449Y-62100319D01*
X103507449Y-62100319D02*
X103615199Y-62100319D01*
X103615199Y-62100319D02*
X103722949Y-62046444D01*
X103722949Y-62046444D02*
X103776823Y-61992569D01*
X103776823Y-61992569D02*
X103830698Y-61884820D01*
X103830698Y-61884820D02*
X103830698Y-61830945D01*
X103830698Y-61830945D02*
X103642136Y-61642383D01*
X103642136Y-61642383D02*
X103534387Y-61750133D01*
X104127010Y-61642383D02*
X103561324Y-61076698D01*
X103561324Y-61076698D02*
X103776823Y-60861198D01*
X103776823Y-60861198D02*
X103857636Y-60834261D01*
X103857636Y-60834261D02*
X103911510Y-60834261D01*
X103911510Y-60834261D02*
X103992323Y-60861198D01*
X103992323Y-60861198D02*
X104073135Y-60942011D01*
X104073135Y-60942011D02*
X104100072Y-61022823D01*
X104100072Y-61022823D02*
X104100072Y-61076698D01*
X104100072Y-61076698D02*
X104073135Y-61157510D01*
X104073135Y-61157510D02*
X103857636Y-61373009D01*
X104073135Y-60564887D02*
X104450258Y-60187763D01*
X104450258Y-60187763D02*
X104773507Y-60995885D01*
X113448888Y-61473009D02*
X113368075Y-61499946D01*
X113368075Y-61499946D02*
X113287263Y-61580759D01*
X113287263Y-61580759D02*
X113233388Y-61688508D01*
X113233388Y-61688508D02*
X113233388Y-61796258D01*
X113233388Y-61796258D02*
X113260326Y-61877070D01*
X113260326Y-61877070D02*
X113341138Y-62011757D01*
X113341138Y-62011757D02*
X113421950Y-62092569D01*
X113421950Y-62092569D02*
X113556637Y-62173382D01*
X113556637Y-62173382D02*
X113637449Y-62200319D01*
X113637449Y-62200319D02*
X113745199Y-62200319D01*
X113745199Y-62200319D02*
X113852949Y-62146444D01*
X113852949Y-62146444D02*
X113906823Y-62092569D01*
X113906823Y-62092569D02*
X113960698Y-61984820D01*
X113960698Y-61984820D02*
X113960698Y-61930945D01*
X113960698Y-61930945D02*
X113772136Y-61742383D01*
X113772136Y-61742383D02*
X113664387Y-61850133D01*
X114257010Y-61742383D02*
X113691324Y-61176698D01*
X113691324Y-61176698D02*
X113906823Y-60961198D01*
X113906823Y-60961198D02*
X113987636Y-60934261D01*
X113987636Y-60934261D02*
X114041510Y-60934261D01*
X114041510Y-60934261D02*
X114122323Y-60961198D01*
X114122323Y-60961198D02*
X114203135Y-61042011D01*
X114203135Y-61042011D02*
X114230072Y-61122823D01*
X114230072Y-61122823D02*
X114230072Y-61176698D01*
X114230072Y-61176698D02*
X114203135Y-61257510D01*
X114203135Y-61257510D02*
X113987636Y-61473009D01*
X114688008Y-60557137D02*
X115065132Y-60934261D01*
X114337822Y-60476325D02*
X114607196Y-61015073D01*
X114607196Y-61015073D02*
X114957382Y-60664887D01*
X109309389Y-37642755D02*
X109578763Y-37373381D01*
X109417138Y-37858254D02*
X109040015Y-37104007D01*
X109040015Y-37104007D02*
X109794262Y-37481131D01*
X109740387Y-36457510D02*
X109659575Y-36484447D01*
X109659575Y-36484447D02*
X109578762Y-36565259D01*
X109578762Y-36565259D02*
X109524888Y-36673009D01*
X109524888Y-36673009D02*
X109524888Y-36780759D01*
X109524888Y-36780759D02*
X109551825Y-36861571D01*
X109551825Y-36861571D02*
X109632637Y-36996258D01*
X109632637Y-36996258D02*
X109713449Y-37077070D01*
X109713449Y-37077070D02*
X109848136Y-37157882D01*
X109848136Y-37157882D02*
X109928949Y-37184820D01*
X109928949Y-37184820D02*
X110036698Y-37184820D01*
X110036698Y-37184820D02*
X110144448Y-37130945D01*
X110144448Y-37130945D02*
X110198323Y-37077070D01*
X110198323Y-37077070D02*
X110252197Y-36969320D01*
X110252197Y-36969320D02*
X110252197Y-36915446D01*
X110252197Y-36915446D02*
X110063636Y-36726884D01*
X110063636Y-36726884D02*
X109955886Y-36834633D01*
X110548509Y-36726884D02*
X109982823Y-36161198D01*
X109982823Y-36161198D02*
X110871758Y-36403635D01*
X110871758Y-36403635D02*
X110306072Y-35837950D01*
X111141132Y-36134261D02*
X110575446Y-35568576D01*
X110575446Y-35568576D02*
X110710133Y-35433889D01*
X110710133Y-35433889D02*
X110817883Y-35380014D01*
X110817883Y-35380014D02*
X110925632Y-35380014D01*
X110925632Y-35380014D02*
X111006445Y-35406951D01*
X111006445Y-35406951D02*
X111141132Y-35487764D01*
X111141132Y-35487764D02*
X111221944Y-35568576D01*
X111221944Y-35568576D02*
X111302756Y-35703263D01*
X111302756Y-35703263D02*
X111329693Y-35784075D01*
X111329693Y-35784075D02*
X111329693Y-35891825D01*
X111329693Y-35891825D02*
X111275819Y-35999574D01*
X111275819Y-35999574D02*
X111141132Y-36134261D01*
X84097950Y-36953946D02*
X84017138Y-36980884D01*
X84017138Y-36980884D02*
X83936326Y-37061696D01*
X83936326Y-37061696D02*
X83882451Y-37169446D01*
X83882451Y-37169446D02*
X83882451Y-37277195D01*
X83882451Y-37277195D02*
X83909389Y-37358007D01*
X83909389Y-37358007D02*
X83990201Y-37492694D01*
X83990201Y-37492694D02*
X84071013Y-37573507D01*
X84071013Y-37573507D02*
X84205700Y-37654319D01*
X84205700Y-37654319D02*
X84286512Y-37681256D01*
X84286512Y-37681256D02*
X84394262Y-37681256D01*
X84394262Y-37681256D02*
X84502011Y-37627381D01*
X84502011Y-37627381D02*
X84555886Y-37573507D01*
X84555886Y-37573507D02*
X84609761Y-37465757D01*
X84609761Y-37465757D02*
X84609761Y-37411882D01*
X84609761Y-37411882D02*
X84421199Y-37223320D01*
X84421199Y-37223320D02*
X84313450Y-37331070D01*
X84906072Y-37223320D02*
X84340387Y-36657635D01*
X84340387Y-36657635D02*
X85229321Y-36900072D01*
X85229321Y-36900072D02*
X84663636Y-36334386D01*
X85498695Y-36630698D02*
X84933010Y-36065012D01*
X84933010Y-36065012D02*
X85067697Y-35930325D01*
X85067697Y-35930325D02*
X85175446Y-35876450D01*
X85175446Y-35876450D02*
X85283196Y-35876450D01*
X85283196Y-35876450D02*
X85364008Y-35903388D01*
X85364008Y-35903388D02*
X85498695Y-35984200D01*
X85498695Y-35984200D02*
X85579507Y-36065012D01*
X85579507Y-36065012D02*
X85660319Y-36199699D01*
X85660319Y-36199699D02*
X85687257Y-36280511D01*
X85687257Y-36280511D02*
X85687257Y-36388261D01*
X85687257Y-36388261D02*
X85633382Y-36496011D01*
X85633382Y-36496011D02*
X85498695Y-36630698D01*
X112049513Y-36942384D02*
X111968701Y-36969321D01*
X111968701Y-36969321D02*
X111887889Y-37050133D01*
X111887889Y-37050133D02*
X111834014Y-37157883D01*
X111834014Y-37157883D02*
X111834014Y-37265632D01*
X111834014Y-37265632D02*
X111860951Y-37346445D01*
X111860951Y-37346445D02*
X111941764Y-37481132D01*
X111941764Y-37481132D02*
X112022576Y-37561944D01*
X112022576Y-37561944D02*
X112157263Y-37642756D01*
X112157263Y-37642756D02*
X112238075Y-37669693D01*
X112238075Y-37669693D02*
X112345825Y-37669693D01*
X112345825Y-37669693D02*
X112453574Y-37615819D01*
X112453574Y-37615819D02*
X112507449Y-37561944D01*
X112507449Y-37561944D02*
X112561324Y-37454194D01*
X112561324Y-37454194D02*
X112561324Y-37400319D01*
X112561324Y-37400319D02*
X112372762Y-37211758D01*
X112372762Y-37211758D02*
X112265012Y-37319507D01*
X112857635Y-37211758D02*
X112291950Y-36646072D01*
X112291950Y-36646072D02*
X112507449Y-36430573D01*
X112507449Y-36430573D02*
X112588261Y-36403636D01*
X112588261Y-36403636D02*
X112642136Y-36403636D01*
X112642136Y-36403636D02*
X112722948Y-36430573D01*
X112722948Y-36430573D02*
X112803760Y-36511385D01*
X112803760Y-36511385D02*
X112830698Y-36592197D01*
X112830698Y-36592197D02*
X112830698Y-36646072D01*
X112830698Y-36646072D02*
X112803760Y-36726884D01*
X112803760Y-36726884D02*
X112588261Y-36942384D01*
X112884573Y-36161199D02*
X112884573Y-36107324D01*
X112884573Y-36107324D02*
X112911510Y-36026512D01*
X112911510Y-36026512D02*
X113046197Y-35891825D01*
X113046197Y-35891825D02*
X113127009Y-35864887D01*
X113127009Y-35864887D02*
X113180884Y-35864887D01*
X113180884Y-35864887D02*
X113261696Y-35891825D01*
X113261696Y-35891825D02*
X113315571Y-35945700D01*
X113315571Y-35945700D02*
X113369446Y-36053449D01*
X113369446Y-36053449D02*
X113369446Y-36699947D01*
X113369446Y-36699947D02*
X113719632Y-36349761D01*
X113719632Y-35703263D02*
X113638820Y-35730200D01*
X113638820Y-35730200D02*
X113584945Y-35730200D01*
X113584945Y-35730200D02*
X113504133Y-35703263D01*
X113504133Y-35703263D02*
X113477196Y-35676326D01*
X113477196Y-35676326D02*
X113450258Y-35595513D01*
X113450258Y-35595513D02*
X113450258Y-35541638D01*
X113450258Y-35541638D02*
X113477196Y-35460826D01*
X113477196Y-35460826D02*
X113584945Y-35353077D01*
X113584945Y-35353077D02*
X113665757Y-35326139D01*
X113665757Y-35326139D02*
X113719632Y-35326139D01*
X113719632Y-35326139D02*
X113800444Y-35353077D01*
X113800444Y-35353077D02*
X113827382Y-35380014D01*
X113827382Y-35380014D02*
X113854319Y-35460826D01*
X113854319Y-35460826D02*
X113854319Y-35514701D01*
X113854319Y-35514701D02*
X113827382Y-35595513D01*
X113827382Y-35595513D02*
X113719632Y-35703263D01*
X113719632Y-35703263D02*
X113692695Y-35784075D01*
X113692695Y-35784075D02*
X113692695Y-35837950D01*
X113692695Y-35837950D02*
X113719632Y-35918762D01*
X113719632Y-35918762D02*
X113827382Y-36026512D01*
X113827382Y-36026512D02*
X113908194Y-36053449D01*
X113908194Y-36053449D02*
X113962069Y-36053449D01*
X113962069Y-36053449D02*
X114042881Y-36026512D01*
X114042881Y-36026512D02*
X114150631Y-35918762D01*
X114150631Y-35918762D02*
X114177568Y-35837950D01*
X114177568Y-35837950D02*
X114177568Y-35784075D01*
X114177568Y-35784075D02*
X114150631Y-35703263D01*
X114150631Y-35703263D02*
X114042881Y-35595513D01*
X114042881Y-35595513D02*
X113962069Y-35568576D01*
X113962069Y-35568576D02*
X113908194Y-35568576D01*
X113908194Y-35568576D02*
X113827382Y-35595513D01*
X80159513Y-62042384D02*
X80078701Y-62069321D01*
X80078701Y-62069321D02*
X79997889Y-62150133D01*
X79997889Y-62150133D02*
X79944014Y-62257883D01*
X79944014Y-62257883D02*
X79944014Y-62365632D01*
X79944014Y-62365632D02*
X79970951Y-62446445D01*
X79970951Y-62446445D02*
X80051764Y-62581132D01*
X80051764Y-62581132D02*
X80132576Y-62661944D01*
X80132576Y-62661944D02*
X80267263Y-62742756D01*
X80267263Y-62742756D02*
X80348075Y-62769693D01*
X80348075Y-62769693D02*
X80455825Y-62769693D01*
X80455825Y-62769693D02*
X80563574Y-62715819D01*
X80563574Y-62715819D02*
X80617449Y-62661944D01*
X80617449Y-62661944D02*
X80671324Y-62554194D01*
X80671324Y-62554194D02*
X80671324Y-62500319D01*
X80671324Y-62500319D02*
X80482762Y-62311758D01*
X80482762Y-62311758D02*
X80375012Y-62419507D01*
X80967635Y-62311758D02*
X80401950Y-61746072D01*
X80401950Y-61746072D02*
X80617449Y-61530573D01*
X80617449Y-61530573D02*
X80698261Y-61503636D01*
X80698261Y-61503636D02*
X80752136Y-61503636D01*
X80752136Y-61503636D02*
X80832948Y-61530573D01*
X80832948Y-61530573D02*
X80913760Y-61611385D01*
X80913760Y-61611385D02*
X80940698Y-61692197D01*
X80940698Y-61692197D02*
X80940698Y-61746072D01*
X80940698Y-61746072D02*
X80913760Y-61826884D01*
X80913760Y-61826884D02*
X80698261Y-62042384D01*
X81829632Y-61449761D02*
X81506383Y-61773010D01*
X81668008Y-61611385D02*
X81102322Y-61045700D01*
X81102322Y-61045700D02*
X81129260Y-61180387D01*
X81129260Y-61180387D02*
X81129260Y-61288136D01*
X81129260Y-61288136D02*
X81102322Y-61368948D01*
X81937382Y-60587764D02*
X82314505Y-60964887D01*
X81587196Y-60506951D02*
X81856570Y-61045700D01*
X81856570Y-61045700D02*
X82206756Y-60695513D01*
X77132000Y-56509524D02*
X77170095Y-56395238D01*
X77170095Y-56395238D02*
X77170095Y-56204762D01*
X77170095Y-56204762D02*
X77132000Y-56128571D01*
X77132000Y-56128571D02*
X77093904Y-56090476D01*
X77093904Y-56090476D02*
X77017714Y-56052381D01*
X77017714Y-56052381D02*
X76941523Y-56052381D01*
X76941523Y-56052381D02*
X76865333Y-56090476D01*
X76865333Y-56090476D02*
X76827238Y-56128571D01*
X76827238Y-56128571D02*
X76789142Y-56204762D01*
X76789142Y-56204762D02*
X76751047Y-56357143D01*
X76751047Y-56357143D02*
X76712952Y-56433333D01*
X76712952Y-56433333D02*
X76674857Y-56471428D01*
X76674857Y-56471428D02*
X76598666Y-56509524D01*
X76598666Y-56509524D02*
X76522476Y-56509524D01*
X76522476Y-56509524D02*
X76446285Y-56471428D01*
X76446285Y-56471428D02*
X76408190Y-56433333D01*
X76408190Y-56433333D02*
X76370095Y-56357143D01*
X76370095Y-56357143D02*
X76370095Y-56166666D01*
X76370095Y-56166666D02*
X76408190Y-56052381D01*
X76370095Y-55785714D02*
X77170095Y-55595238D01*
X77170095Y-55595238D02*
X76598666Y-55442857D01*
X76598666Y-55442857D02*
X77170095Y-55290476D01*
X77170095Y-55290476D02*
X76370095Y-55100000D01*
X77093904Y-54338094D02*
X77132000Y-54376190D01*
X77132000Y-54376190D02*
X77170095Y-54490475D01*
X77170095Y-54490475D02*
X77170095Y-54566666D01*
X77170095Y-54566666D02*
X77132000Y-54680952D01*
X77132000Y-54680952D02*
X77055809Y-54757142D01*
X77055809Y-54757142D02*
X76979619Y-54795237D01*
X76979619Y-54795237D02*
X76827238Y-54833333D01*
X76827238Y-54833333D02*
X76712952Y-54833333D01*
X76712952Y-54833333D02*
X76560571Y-54795237D01*
X76560571Y-54795237D02*
X76484380Y-54757142D01*
X76484380Y-54757142D02*
X76408190Y-54680952D01*
X76408190Y-54680952D02*
X76370095Y-54566666D01*
X76370095Y-54566666D02*
X76370095Y-54490475D01*
X76370095Y-54490475D02*
X76408190Y-54376190D01*
X76408190Y-54376190D02*
X76446285Y-54338094D01*
X77170095Y-53614285D02*
X77170095Y-53995237D01*
X77170095Y-53995237D02*
X76370095Y-53995237D01*
X77170095Y-53347618D02*
X76370095Y-53347618D01*
X77170095Y-52890475D02*
X76712952Y-53233333D01*
X76370095Y-52890475D02*
X76827238Y-53347618D01*
%TO.C,H1*%
X170370000Y-121500000D02*
G75*
G03*
X170370000Y-121500000I-2350000J0D01*
G01*
%TO.C,H7*%
X135350000Y-23000000D02*
G75*
G03*
X135350000Y-23000000I-2350000J0D01*
G01*
%TO.C,H5*%
X44350000Y-63500000D02*
G75*
G03*
X44350000Y-63500000I-2350000J0D01*
G01*
%TO.C,H3*%
X121330000Y-121520000D02*
G75*
G03*
X121330000Y-121520000I-2350000J0D01*
G01*
%TO.C,H6*%
X79350000Y-23000000D02*
G75*
G03*
X79350000Y-23000000I-2350000J0D01*
G01*
%TO.C,H2*%
X170250000Y-63450000D02*
G75*
G03*
X170250000Y-63450000I-2350000J0D01*
G01*
%TO.C,H9*%
X44350000Y-121500000D02*
G75*
G03*
X44350000Y-121500000I-2350000J0D01*
G01*
%TO.C,H4*%
X121250000Y-63565600D02*
G75*
G03*
X121250000Y-63565600I-2350000J0D01*
G01*
%TO.C,H8*%
X189350000Y-23000000D02*
G75*
G03*
X189350000Y-23000000I-2350000J0D01*
G01*
%TD*%
M02*
