<?xml version="1.0" standalone="no"?>
 <!DOCTYPE svg PUBLIC "-//W3C//DTD SVG 1.1//EN" 
 "http://www.w3.org/Graphics/SVG/1.1/DTD/svg11.dtd"> 
<svg
  xmlns:svg="http://www.w3.org/2000/svg"
  xmlns="http://www.w3.org/2000/svg"
  xmlns:xlink="http://www.w3.org/1999/xlink"
  version="1.1"
  width="297.0022mm" height="210.0072mm" viewBox="0.0000 0.0000 297.0022 210.0072">
<title>SVG Image created as pedalboard-hw-B_Fab.svg date 2023/10/13 09:27:02 </title>
  <desc>Image generated by PCBNEW </desc>
<g style="fill:#000000; fill-opacity:1.0000;stroke:#000000; stroke-opacity:1.0000;
stroke-linecap:round; stroke-linejoin:round;"
 transform="translate(0 0) scale(1 1)">
</g>
<g style="fill:#000000; fill-opacity:0.0; 
stroke:#000000; stroke-width:0.0000; stroke-opacity:1; 
stroke-linecap:round; stroke-linejoin:round;">
</g>
<g style="fill:#000000; fill-opacity:0.0; 
stroke:#000000; stroke-width:0.1500; stroke-opacity:1; 
stroke-linecap:round; stroke-linejoin:round;">
<text x="183.3772" y="88.3300"
transform="scale(-1 1) translate(-366.754400 0)"
textLength="4.8690" font-size="1.3333" lengthAdjust="spacingAndGlyphs"
text-anchor="middle" opacity="0">USB_A</text>
<g class="stroked-text"><desc>USB_A</desc>
<path d="M181.3058 87.2848
L181.3058 88.0943
" />
<path d="M181.3058 88.0943
L181.3534 88.1896
" />
<path d="M181.3534 88.1896
L181.4010 88.2372
" />
<path d="M181.4010 88.2372
L181.4962 88.2848
" />
<path d="M181.4962 88.2848
L181.6867 88.2848
" />
<path d="M181.6867 88.2848
L181.7820 88.2372
" />
<path d="M181.7820 88.2372
L181.8296 88.1896
" />
<path d="M181.8296 88.1896
L181.8772 88.0943
" />
<path d="M181.8772 88.0943
L181.8772 87.2848
" />
<path d="M182.3058 88.2372
L182.4486 88.2848
" />
<path d="M182.4486 88.2848
L182.6867 88.2848
" />
<path d="M182.6867 88.2848
L182.7820 88.2372
" />
<path d="M182.7820 88.2372
L182.8296 88.1896
" />
<path d="M182.8296 88.1896
L182.8772 88.0943
" />
<path d="M182.8772 88.0943
L182.8772 87.9991
" />
<path d="M182.8772 87.9991
L182.8296 87.9039
" />
<path d="M182.8296 87.9039
L182.7820 87.8562
" />
<path d="M182.7820 87.8562
L182.6867 87.8086
" />
<path d="M182.6867 87.8086
L182.4962 87.7610
" />
<path d="M182.4962 87.7610
L182.4010 87.7134
" />
<path d="M182.4010 87.7134
L182.3534 87.6658
" />
<path d="M182.3534 87.6658
L182.3058 87.5705
" />
<path d="M182.3058 87.5705
L182.3058 87.4753
" />
<path d="M182.3058 87.4753
L182.3534 87.3801
" />
<path d="M182.3534 87.3801
L182.4010 87.3324
" />
<path d="M182.4010 87.3324
L182.4962 87.2848
" />
<path d="M182.4962 87.2848
L182.7343 87.2848
" />
<path d="M182.7343 87.2848
L182.8772 87.3324
" />
<path d="M183.6391 87.7610
L183.7820 87.8086
" />
<path d="M183.7820 87.8086
L183.8296 87.8562
" />
<path d="M183.8296 87.8562
L183.8772 87.9515
" />
<path d="M183.8772 87.9515
L183.8772 88.0943
" />
<path d="M183.8772 88.0943
L183.8296 88.1896
" />
<path d="M183.8296 88.1896
L183.7820 88.2372
" />
<path d="M183.7820 88.2372
L183.6867 88.2848
" />
<path d="M183.6867 88.2848
L183.3058 88.2848
" />
<path d="M183.3058 88.2848
L183.3058 87.2848
" />
<path d="M183.3058 87.2848
L183.6391 87.2848
" />
<path d="M183.6391 87.2848
L183.7343 87.3324
" />
<path d="M183.7343 87.3324
L183.7820 87.3801
" />
<path d="M183.7820 87.3801
L183.8296 87.4753
" />
<path d="M183.8296 87.4753
L183.8296 87.5705
" />
<path d="M183.8296 87.5705
L183.7820 87.6658
" />
<path d="M183.7820 87.6658
L183.7343 87.7134
" />
<path d="M183.7343 87.7134
L183.6391 87.7610
" />
<path d="M183.6391 87.7610
L183.3058 87.7610
" />
<path d="M184.0677 88.3801
L184.8296 88.3801
" />
<path d="M185.0201 87.9991
L185.4962 87.9991
" />
<path d="M184.9248 88.2848
L185.2582 87.2848
" />
<path d="M185.2582 87.2848
L185.5915 88.2848
" />
</g><g transform="rotate(-90.000000 183.3772 93.9700)">
<text x="183.3772" y="94.4700"
transform="scale(-1 1) translate(-366.754400 0)"
textLength="1.9643" font-size="1.3333" lengthAdjust="spacingAndGlyphs"
text-anchor="middle" opacity="0">J6</text>
</g>
<g class="stroked-text"><desc>J6</desc>
<path d="M183.9224 93.6367
L183.2081 93.6367
" />
<path d="M183.2081 93.6367
L183.0652 93.5890
" />
<path d="M183.0652 93.5890
L182.9700 93.4938
" />
<path d="M182.9700 93.4938
L182.9224 93.3510
" />
<path d="M182.9224 93.3510
L182.9224 93.2557
" />
<path d="M183.9224 94.5414
L183.9224 94.3510
" />
<path d="M183.9224 94.3510
L183.8748 94.2557
" />
<path d="M183.8748 94.2557
L183.8271 94.2081
" />
<path d="M183.8271 94.2081
L183.6843 94.1129
" />
<path d="M183.6843 94.1129
L183.4938 94.0652
" />
<path d="M183.4938 94.0652
L183.1129 94.0652
" />
<path d="M183.1129 94.0652
L183.0176 94.1129
" />
<path d="M183.0176 94.1129
L182.9700 94.1605
" />
<path d="M182.9700 94.1605
L182.9224 94.2557
" />
<path d="M182.9224 94.2557
L182.9224 94.4462
" />
<path d="M182.9224 94.4462
L182.9700 94.5414
" />
<path d="M182.9700 94.5414
L183.0176 94.5890
" />
<path d="M183.0176 94.5890
L183.1129 94.6367
" />
<path d="M183.1129 94.6367
L183.3510 94.6367
" />
<path d="M183.3510 94.6367
L183.4462 94.5890
" />
<path d="M183.4462 94.5890
L183.4938 94.5414
" />
<path d="M183.4938 94.5414
L183.5414 94.4462
" />
<path d="M183.5414 94.4462
L183.5414 94.2557
" />
<path d="M183.5414 94.2557
L183.4938 94.1605
" />
<path d="M183.4938 94.1605
L183.4462 94.1129
" />
<path d="M183.4462 94.1129
L183.3510 94.0652
" />
</g><text x="157.5422" y="55.5400"
transform="scale(-1 1) translate(-315.084400 0)"
textLength="9.3452" font-size="1.3333" lengthAdjust="spacingAndGlyphs"
text-anchor="middle" opacity="0">Conn_02x01</text>
<g class="stroked-text"><desc>Conn_02x01</desc>
<path d="M153.8041 55.3996
L153.7565 55.4472
" />
<path d="M153.7565 55.4472
L153.6136 55.4948
" />
<path d="M153.6136 55.4948
L153.5184 55.4948
" />
<path d="M153.5184 55.4948
L153.3755 55.4472
" />
<path d="M153.3755 55.4472
L153.2803 55.3520
" />
<path d="M153.2803 55.3520
L153.2327 55.2567
" />
<path d="M153.2327 55.2567
L153.1851 55.0662
" />
<path d="M153.1851 55.0662
L153.1851 54.9234
" />
<path d="M153.1851 54.9234
L153.2327 54.7329
" />
<path d="M153.2327 54.7329
L153.2803 54.6377
" />
<path d="M153.2803 54.6377
L153.3755 54.5424
" />
<path d="M153.3755 54.5424
L153.5184 54.4948
" />
<path d="M153.5184 54.4948
L153.6136 54.4948
" />
<path d="M153.6136 54.4948
L153.7565 54.5424
" />
<path d="M153.7565 54.5424
L153.8041 54.5901
" />
<path d="M154.3755 55.4948
L154.2803 55.4472
" />
<path d="M154.2803 55.4472
L154.2327 55.3996
" />
<path d="M154.2327 55.3996
L154.1851 55.3043
" />
<path d="M154.1851 55.3043
L154.1851 55.0186
" />
<path d="M154.1851 55.0186
L154.2327 54.9234
" />
<path d="M154.2327 54.9234
L154.2803 54.8758
" />
<path d="M154.2803 54.8758
L154.3755 54.8282
" />
<path d="M154.3755 54.8282
L154.5184 54.8282
" />
<path d="M154.5184 54.8282
L154.6136 54.8758
" />
<path d="M154.6136 54.8758
L154.6612 54.9234
" />
<path d="M154.6612 54.9234
L154.7089 55.0186
" />
<path d="M154.7089 55.0186
L154.7089 55.3043
" />
<path d="M154.7089 55.3043
L154.6612 55.3996
" />
<path d="M154.6612 55.3996
L154.6136 55.4472
" />
<path d="M154.6136 55.4472
L154.5184 55.4948
" />
<path d="M154.5184 55.4948
L154.3755 55.4948
" />
<path d="M155.1374 54.8282
L155.1374 55.4948
" />
<path d="M155.1374 54.9234
L155.1851 54.8758
" />
<path d="M155.1851 54.8758
L155.2803 54.8282
" />
<path d="M155.2803 54.8282
L155.4232 54.8282
" />
<path d="M155.4232 54.8282
L155.5184 54.8758
" />
<path d="M155.5184 54.8758
L155.5660 54.9710
" />
<path d="M155.5660 54.9710
L155.5660 55.4948
" />
<path d="M156.0422 54.8282
L156.0422 55.4948
" />
<path d="M156.0422 54.9234
L156.0898 54.8758
" />
<path d="M156.0898 54.8758
L156.1851 54.8282
" />
<path d="M156.1851 54.8282
L156.3279 54.8282
" />
<path d="M156.3279 54.8282
L156.4232 54.8758
" />
<path d="M156.4232 54.8758
L156.4708 54.9710
" />
<path d="M156.4708 54.9710
L156.4708 55.4948
" />
<path d="M156.7089 55.5901
L157.4708 55.5901
" />
<path d="M157.8993 54.4948
L157.9946 54.4948
" />
<path d="M157.9946 54.4948
L158.0898 54.5424
" />
<path d="M158.0898 54.5424
L158.1374 54.5901
" />
<path d="M158.1374 54.5901
L158.1851 54.6853
" />
<path d="M158.1851 54.6853
L158.2327 54.8758
" />
<path d="M158.2327 54.8758
L158.2327 55.1139
" />
<path d="M158.2327 55.1139
L158.1851 55.3043
" />
<path d="M158.1851 55.3043
L158.1374 55.3996
" />
<path d="M158.1374 55.3996
L158.0898 55.4472
" />
<path d="M158.0898 55.4472
L157.9946 55.4948
" />
<path d="M157.9946 55.4948
L157.8993 55.4948
" />
<path d="M157.8993 55.4948
L157.8041 55.4472
" />
<path d="M157.8041 55.4472
L157.7565 55.3996
" />
<path d="M157.7565 55.3996
L157.7089 55.3043
" />
<path d="M157.7089 55.3043
L157.6612 55.1139
" />
<path d="M157.6612 55.1139
L157.6612 54.8758
" />
<path d="M157.6612 54.8758
L157.7089 54.6853
" />
<path d="M157.7089 54.6853
L157.7565 54.5901
" />
<path d="M157.7565 54.5901
L157.8041 54.5424
" />
<path d="M157.8041 54.5424
L157.8993 54.4948
" />
<path d="M158.6136 54.5901
L158.6612 54.5424
" />
<path d="M158.6612 54.5424
L158.7565 54.4948
" />
<path d="M158.7565 54.4948
L158.9946 54.4948
" />
<path d="M158.9946 54.4948
L159.0898 54.5424
" />
<path d="M159.0898 54.5424
L159.1374 54.5901
" />
<path d="M159.1374 54.5901
L159.1851 54.6853
" />
<path d="M159.1851 54.6853
L159.1851 54.7805
" />
<path d="M159.1851 54.7805
L159.1374 54.9234
" />
<path d="M159.1374 54.9234
L158.5660 55.4948
" />
<path d="M158.5660 55.4948
L159.1851 55.4948
" />
<path d="M159.5184 55.4948
L160.0422 54.8282
" />
<path d="M159.5184 54.8282
L160.0422 55.4948
" />
<path d="M160.6136 54.4948
L160.7089 54.4948
" />
<path d="M160.7089 54.4948
L160.8041 54.5424
" />
<path d="M160.8041 54.5424
L160.8517 54.5901
" />
<path d="M160.8517 54.5901
L160.8993 54.6853
" />
<path d="M160.8993 54.6853
L160.9470 54.8758
" />
<path d="M160.9470 54.8758
L160.9470 55.1139
" />
<path d="M160.9470 55.1139
L160.8993 55.3043
" />
<path d="M160.8993 55.3043
L160.8517 55.3996
" />
<path d="M160.8517 55.3996
L160.8041 55.4472
" />
<path d="M160.8041 55.4472
L160.7089 55.4948
" />
<path d="M160.7089 55.4948
L160.6136 55.4948
" />
<path d="M160.6136 55.4948
L160.5184 55.4472
" />
<path d="M160.5184 55.4472
L160.4708 55.3996
" />
<path d="M160.4708 55.3996
L160.4232 55.3043
" />
<path d="M160.4232 55.3043
L160.3755 55.1139
" />
<path d="M160.3755 55.1139
L160.3755 54.8758
" />
<path d="M160.3755 54.8758
L160.4232 54.6853
" />
<path d="M160.4232 54.6853
L160.4708 54.5901
" />
<path d="M160.4708 54.5901
L160.5184 54.5424
" />
<path d="M160.5184 54.5424
L160.6136 54.4948
" />
<path d="M161.8993 55.4948
L161.3279 55.4948
" />
<path d="M161.6136 55.4948
L161.6136 54.4948
" />
<path d="M161.6136 54.4948
L161.5184 54.6377
" />
<path d="M161.5184 54.6377
L161.4232 54.7329
" />
<path d="M161.4232 54.7329
L161.3279 54.7805
" />
</g><g transform="rotate(-90.000000 159.1572 58.5800)">
<text x="159.1572" y="59.0800"
transform="scale(-1 1) translate(-318.314400 0)"
textLength="2.9167" font-size="1.3333" lengthAdjust="spacingAndGlyphs"
text-anchor="middle" opacity="0">J14</text>
</g>
<g class="stroked-text"><desc>J14</desc>
<path d="M159.7024 57.7705
L158.9881 57.7705
" />
<path d="M158.9881 57.7705
L158.8452 57.7229
" />
<path d="M158.8452 57.7229
L158.7500 57.6276
" />
<path d="M158.7500 57.6276
L158.7024 57.4848
" />
<path d="M158.7024 57.4848
L158.7024 57.3895
" />
<path d="M158.7024 58.7705
L158.7024 58.1990
" />
<path d="M158.7024 58.4848
L159.7024 58.4848
" />
<path d="M159.7024 58.4848
L159.5595 58.3895
" />
<path d="M159.5595 58.3895
L159.4643 58.2943
" />
<path d="M159.4643 58.2943
L159.4167 58.1990
" />
<path d="M159.3690 59.6276
L158.7024 59.6276
" />
<path d="M159.7500 59.3895
L159.0357 59.1514
" />
<path d="M159.0357 59.1514
L159.0357 59.7705
" />
</g><text x="170.0530" y="56.7296"
transform="scale(-1 1) translate(-340.106000 0)"
textLength="9.7738" font-size="1.3333" lengthAdjust="spacingAndGlyphs"
text-anchor="middle" opacity="0">Pico USB TP</text>
<g class="stroked-text"><desc>Pico USB TP</desc>
<path d="M165.5292 56.6844
L165.5292 55.6844
" />
<path d="M165.5292 55.6844
L165.9101 55.6844
" />
<path d="M165.9101 55.6844
L166.0054 55.7320
" />
<path d="M166.0054 55.7320
L166.0530 55.7797
" />
<path d="M166.0530 55.7797
L166.1006 55.8749
" />
<path d="M166.1006 55.8749
L166.1006 56.0178
" />
<path d="M166.1006 56.0178
L166.0530 56.1130
" />
<path d="M166.0530 56.1130
L166.0054 56.1606
" />
<path d="M166.0054 56.1606
L165.9101 56.2082
" />
<path d="M165.9101 56.2082
L165.5292 56.2082
" />
<path d="M166.5292 56.6844
L166.5292 56.0178
" />
<path d="M166.5292 55.6844
L166.4816 55.7320
" />
<path d="M166.4816 55.7320
L166.5292 55.7797
" />
<path d="M166.5292 55.7797
L166.5768 55.7320
" />
<path d="M166.5768 55.7320
L166.5292 55.6844
" />
<path d="M166.5292 55.6844
L166.5292 55.7797
" />
<path d="M167.4340 56.6368
L167.3387 56.6844
" />
<path d="M167.3387 56.6844
L167.1482 56.6844
" />
<path d="M167.1482 56.6844
L167.0530 56.6368
" />
<path d="M167.0530 56.6368
L167.0054 56.5892
" />
<path d="M167.0054 56.5892
L166.9578 56.4939
" />
<path d="M166.9578 56.4939
L166.9578 56.2082
" />
<path d="M166.9578 56.2082
L167.0054 56.1130
" />
<path d="M167.0054 56.1130
L167.0530 56.0654
" />
<path d="M167.0530 56.0654
L167.1482 56.0178
" />
<path d="M167.1482 56.0178
L167.3387 56.0178
" />
<path d="M167.3387 56.0178
L167.4340 56.0654
" />
<path d="M168.0054 56.6844
L167.9101 56.6368
" />
<path d="M167.9101 56.6368
L167.8625 56.5892
" />
<path d="M167.8625 56.5892
L167.8149 56.4939
" />
<path d="M167.8149 56.4939
L167.8149 56.2082
" />
<path d="M167.8149 56.2082
L167.8625 56.1130
" />
<path d="M167.8625 56.1130
L167.9101 56.0654
" />
<path d="M167.9101 56.0654
L168.0054 56.0178
" />
<path d="M168.0054 56.0178
L168.1482 56.0178
" />
<path d="M168.1482 56.0178
L168.2435 56.0654
" />
<path d="M168.2435 56.0654
L168.2911 56.1130
" />
<path d="M168.2911 56.1130
L168.3387 56.2082
" />
<path d="M168.3387 56.2082
L168.3387 56.4939
" />
<path d="M168.3387 56.4939
L168.2911 56.5892
" />
<path d="M168.2911 56.5892
L168.2435 56.6368
" />
<path d="M168.2435 56.6368
L168.1482 56.6844
" />
<path d="M168.1482 56.6844
L168.0054 56.6844
" />
<path d="M169.5292 55.6844
L169.5292 56.4939
" />
<path d="M169.5292 56.4939
L169.5768 56.5892
" />
<path d="M169.5768 56.5892
L169.6244 56.6368
" />
<path d="M169.6244 56.6368
L169.7197 56.6844
" />
<path d="M169.7197 56.6844
L169.9101 56.6844
" />
<path d="M169.9101 56.6844
L170.0054 56.6368
" />
<path d="M170.0054 56.6368
L170.0530 56.5892
" />
<path d="M170.0530 56.5892
L170.1006 56.4939
" />
<path d="M170.1006 56.4939
L170.1006 55.6844
" />
<path d="M170.5292 56.6368
L170.6720 56.6844
" />
<path d="M170.6720 56.6844
L170.9101 56.6844
" />
<path d="M170.9101 56.6844
L171.0054 56.6368
" />
<path d="M171.0054 56.6368
L171.0530 56.5892
" />
<path d="M171.0530 56.5892
L171.1006 56.4939
" />
<path d="M171.1006 56.4939
L171.1006 56.3987
" />
<path d="M171.1006 56.3987
L171.0530 56.3035
" />
<path d="M171.0530 56.3035
L171.0054 56.2558
" />
<path d="M171.0054 56.2558
L170.9101 56.2082
" />
<path d="M170.9101 56.2082
L170.7197 56.1606
" />
<path d="M170.7197 56.1606
L170.6244 56.1130
" />
<path d="M170.6244 56.1130
L170.5768 56.0654
" />
<path d="M170.5768 56.0654
L170.5292 55.9701
" />
<path d="M170.5292 55.9701
L170.5292 55.8749
" />
<path d="M170.5292 55.8749
L170.5768 55.7797
" />
<path d="M170.5768 55.7797
L170.6244 55.7320
" />
<path d="M170.6244 55.7320
L170.7197 55.6844
" />
<path d="M170.7197 55.6844
L170.9578 55.6844
" />
<path d="M170.9578 55.6844
L171.1006 55.7320
" />
<path d="M171.8625 56.1606
L172.0054 56.2082
" />
<path d="M172.0054 56.2082
L172.0530 56.2558
" />
<path d="M172.0530 56.2558
L172.1006 56.3511
" />
<path d="M172.1006 56.3511
L172.1006 56.4939
" />
<path d="M172.1006 56.4939
L172.0530 56.5892
" />
<path d="M172.0530 56.5892
L172.0054 56.6368
" />
<path d="M172.0054 56.6368
L171.9101 56.6844
" />
<path d="M171.9101 56.6844
L171.5292 56.6844
" />
<path d="M171.5292 56.6844
L171.5292 55.6844
" />
<path d="M171.5292 55.6844
L171.8625 55.6844
" />
<path d="M171.8625 55.6844
L171.9578 55.7320
" />
<path d="M171.9578 55.7320
L172.0054 55.7797
" />
<path d="M172.0054 55.7797
L172.0530 55.8749
" />
<path d="M172.0530 55.8749
L172.0530 55.9701
" />
<path d="M172.0530 55.9701
L172.0054 56.0654
" />
<path d="M172.0054 56.0654
L171.9578 56.1130
" />
<path d="M171.9578 56.1130
L171.8625 56.1606
" />
<path d="M171.8625 56.1606
L171.5292 56.1606
" />
<path d="M173.1482 55.6844
L173.7197 55.6844
" />
<path d="M173.4340 56.6844
L173.4340 55.6844
" />
<path d="M174.0530 56.6844
L174.0530 55.6844
" />
<path d="M174.0530 55.6844
L174.4340 55.6844
" />
<path d="M174.4340 55.6844
L174.5292 55.7320
" />
<path d="M174.5292 55.7320
L174.5768 55.7797
" />
<path d="M174.5768 55.7797
L174.6244 55.8749
" />
<path d="M174.6244 55.8749
L174.6244 56.0178
" />
<path d="M174.6244 56.0178
L174.5768 56.1130
" />
<path d="M174.5768 56.1130
L174.5292 56.1606
" />
<path d="M174.5292 56.1606
L174.4340 56.2082
" />
<path d="M174.4340 56.2082
L174.0530 56.2082
" />
</g><g transform="rotate(-90.000000 170.0022 49.0000)">
<text x="170.0022" y="49.5000"
transform="scale(-1 1) translate(-340.004400 0)"
textLength="1.9643" font-size="1.3333" lengthAdjust="spacingAndGlyphs"
text-anchor="middle" opacity="0">J5</text>
</g>
<g class="stroked-text"><desc>J5</desc>
<path d="M170.5474 48.6667
L169.8331 48.6667
" />
<path d="M169.8331 48.6667
L169.6902 48.6190
" />
<path d="M169.6902 48.6190
L169.5950 48.5238
" />
<path d="M169.5950 48.5238
L169.5474 48.3810
" />
<path d="M169.5474 48.3810
L169.5474 48.2857
" />
<path d="M170.5474 49.6190
L170.5474 49.1429
" />
<path d="M170.5474 49.1429
L170.0712 49.0952
" />
<path d="M170.0712 49.0952
L170.1188 49.1429
" />
<path d="M170.1188 49.1429
L170.1664 49.2381
" />
<path d="M170.1664 49.2381
L170.1664 49.4762
" />
<path d="M170.1664 49.4762
L170.1188 49.5714
" />
<path d="M170.1188 49.5714
L170.0712 49.6190
" />
<path d="M170.0712 49.6190
L169.9760 49.6667
" />
<path d="M169.9760 49.6667
L169.7379 49.6667
" />
<path d="M169.7379 49.6667
L169.6426 49.6190
" />
<path d="M169.6426 49.6190
L169.5950 49.5714
" />
<path d="M169.5950 49.5714
L169.5474 49.4762
" />
<path d="M169.5474 49.4762
L169.5474 49.2381
" />
<path d="M169.5474 49.2381
L169.5950 49.1429
" />
<path d="M169.5950 49.1429
L169.6426 49.0952
" />
</g><g transform="rotate(-90.000000 211.9022 74.9000)">
<text x="211.9022" y="75.4000"
transform="scale(-1 1) translate(-423.804400 0)"
textLength="2.9643" font-size="1.3333" lengthAdjust="spacingAndGlyphs"
text-anchor="middle" opacity="0">SJP</text>
</g>
<g class="stroked-text"><desc>SJP</desc>
<path d="M211.4950 73.7333
L211.4474 73.8762
" />
<path d="M211.4474 73.8762
L211.4474 74.1143
" />
<path d="M211.4474 74.1143
L211.4950 74.2095
" />
<path d="M211.4950 74.2095
L211.5426 74.2571
" />
<path d="M211.5426 74.2571
L211.6379 74.3048
" />
<path d="M211.6379 74.3048
L211.7331 74.3048
" />
<path d="M211.7331 74.3048
L211.8283 74.2571
" />
<path d="M211.8283 74.2571
L211.8760 74.2095
" />
<path d="M211.8760 74.2095
L211.9236 74.1143
" />
<path d="M211.9236 74.1143
L211.9712 73.9238
" />
<path d="M211.9712 73.9238
L212.0188 73.8286
" />
<path d="M212.0188 73.8286
L212.0664 73.7810
" />
<path d="M212.0664 73.7810
L212.1617 73.7333
" />
<path d="M212.1617 73.7333
L212.2569 73.7333
" />
<path d="M212.2569 73.7333
L212.3521 73.7810
" />
<path d="M212.3521 73.7810
L212.3998 73.8286
" />
<path d="M212.3998 73.8286
L212.4474 73.9238
" />
<path d="M212.4474 73.9238
L212.4474 74.1619
" />
<path d="M212.4474 74.1619
L212.3998 74.3048
" />
<path d="M212.4474 75.0190
L211.7331 75.0190
" />
<path d="M211.7331 75.0190
L211.5902 74.9714
" />
<path d="M211.5902 74.9714
L211.4950 74.8762
" />
<path d="M211.4950 74.8762
L211.4474 74.7333
" />
<path d="M211.4474 74.7333
L211.4474 74.6381
" />
<path d="M211.4474 75.4952
L212.4474 75.4952
" />
<path d="M212.4474 75.4952
L212.4474 75.8762
" />
<path d="M212.4474 75.8762
L212.3998 75.9714
" />
<path d="M212.3998 75.9714
L212.3521 76.0190
" />
<path d="M212.3521 76.0190
L212.2569 76.0667
" />
<path d="M212.2569 76.0667
L212.1140 76.0667
" />
<path d="M212.1140 76.0667
L212.0188 76.0190
" />
<path d="M212.0188 76.0190
L211.9712 75.9714
" />
<path d="M211.9712 75.9714
L211.9236 75.8762
" />
<path d="M211.9236 75.8762
L211.9236 75.4952
" />
</g><g transform="rotate(-90.000000 196.1612 49.0000)">
<text x="196.1612" y="49.5000"
transform="scale(-1 1) translate(-392.322400 0)"
textLength="3.4881" font-size="1.3333" lengthAdjust="spacingAndGlyphs"
text-anchor="middle" opacity="0">Pico</text>
</g>
<g class="stroked-text"><desc>Pico</desc>
<path d="M195.7064 47.6190
L196.7064 47.6190
" />
<path d="M196.7064 47.6190
L196.7064 48.0000
" />
<path d="M196.7064 48.0000
L196.6588 48.0952
" />
<path d="M196.6588 48.0952
L196.6111 48.1429
" />
<path d="M196.6111 48.1429
L196.5159 48.1905
" />
<path d="M196.5159 48.1905
L196.3730 48.1905
" />
<path d="M196.3730 48.1905
L196.2778 48.1429
" />
<path d="M196.2778 48.1429
L196.2302 48.0952
" />
<path d="M196.2302 48.0952
L196.1826 48.0000
" />
<path d="M196.1826 48.0000
L196.1826 47.6190
" />
<path d="M195.7064 48.6190
L196.3730 48.6190
" />
<path d="M196.7064 48.6190
L196.6588 48.5714
" />
<path d="M196.6588 48.5714
L196.6111 48.6190
" />
<path d="M196.6111 48.6190
L196.6588 48.6667
" />
<path d="M196.6588 48.6667
L196.7064 48.6190
" />
<path d="M196.7064 48.6190
L196.6111 48.6190
" />
<path d="M195.7540 49.5238
L195.7064 49.4286
" />
<path d="M195.7064 49.4286
L195.7064 49.2381
" />
<path d="M195.7064 49.2381
L195.7540 49.1429
" />
<path d="M195.7540 49.1429
L195.8016 49.0952
" />
<path d="M195.8016 49.0952
L195.8969 49.0476
" />
<path d="M195.8969 49.0476
L196.1826 49.0476
" />
<path d="M196.1826 49.0476
L196.2778 49.0952
" />
<path d="M196.2778 49.0952
L196.3254 49.1429
" />
<path d="M196.3254 49.1429
L196.3730 49.2381
" />
<path d="M196.3730 49.2381
L196.3730 49.4286
" />
<path d="M196.3730 49.4286
L196.3254 49.5238
" />
<path d="M195.7064 50.0952
L195.7540 50.0000
" />
<path d="M195.7540 50.0000
L195.8016 49.9524
" />
<path d="M195.8016 49.9524
L195.8969 49.9048
" />
<path d="M195.8969 49.9048
L196.1826 49.9048
" />
<path d="M196.1826 49.9048
L196.2778 49.9524
" />
<path d="M196.2778 49.9524
L196.3254 50.0000
" />
<path d="M196.3254 50.0000
L196.3730 50.0952
" />
<path d="M196.3730 50.0952
L196.3730 50.2381
" />
<path d="M196.3730 50.2381
L196.3254 50.3333
" />
<path d="M196.3254 50.3333
L196.2778 50.3810
" />
<path d="M196.2778 50.3810
L196.1826 50.4286
" />
<path d="M196.1826 50.4286
L195.8969 50.4286
" />
<path d="M195.8969 50.4286
L195.8016 50.3810
" />
<path d="M195.8016 50.3810
L195.7540 50.3333
" />
<path d="M195.7540 50.3333
L195.7064 50.2381
" />
<path d="M195.7064 50.2381
L195.7064 50.0952
" />
</g><g transform="rotate(-90.000000 194.0022 49.0000)">
<text x="194.0022" y="49.5000"
transform="scale(-1 1) translate(-388.004400 0)"
textLength="2.2500" font-size="1.3333" lengthAdjust="spacingAndGlyphs"
text-anchor="middle" opacity="0">U1</text>
</g>
<g class="stroked-text"><desc>U1</desc>
<path d="M194.5474 48.2381
L193.7379 48.2381
" />
<path d="M193.7379 48.2381
L193.6426 48.2857
" />
<path d="M193.6426 48.2857
L193.5950 48.3333
" />
<path d="M193.5950 48.3333
L193.5474 48.4286
" />
<path d="M193.5474 48.4286
L193.5474 48.6190
" />
<path d="M193.5474 48.6190
L193.5950 48.7143
" />
<path d="M193.5950 48.7143
L193.6426 48.7619
" />
<path d="M193.6426 48.7619
L193.7379 48.8095
" />
<path d="M193.7379 48.8095
L194.5474 48.8095
" />
<path d="M193.5474 49.8095
L193.5474 49.2381
" />
<path d="M193.5474 49.5238
L194.5474 49.5238
" />
<path d="M194.5474 49.5238
L194.4045 49.4286
" />
<path d="M194.4045 49.4286
L194.3093 49.3333
" />
<path d="M194.3093 49.3333
L194.2617 49.2381
" />
</g><text x="249.9022" y="33.5750"
transform="scale(-1 1) translate(-499.804400 0)"
textLength="7.2024" font-size="1.3333" lengthAdjust="spacingAndGlyphs"
text-anchor="middle" opacity="0">EXT-MIDI</text>
<g class="stroked-text"><desc>EXT-MIDI</desc>
<path d="M246.6641 33.0060
L246.9974 33.0060
" />
<path d="M247.1403 33.5298
L246.6641 33.5298
" />
<path d="M246.6641 33.5298
L246.6641 32.5298
" />
<path d="M246.6641 32.5298
L247.1403 32.5298
" />
<path d="M247.4736 32.5298
L248.1403 33.5298
" />
<path d="M248.1403 32.5298
L247.4736 33.5298
" />
<path d="M248.3784 32.5298
L248.9498 32.5298
" />
<path d="M248.6641 33.5298
L248.6641 32.5298
" />
<path d="M249.2832 33.1489
L250.0451 33.1489
" />
<path d="M250.5212 33.5298
L250.5212 32.5298
" />
<path d="M250.5212 32.5298
L250.8546 33.2441
" />
<path d="M250.8546 33.2441
L251.1879 32.5298
" />
<path d="M251.1879 32.5298
L251.1879 33.5298
" />
<path d="M251.6641 33.5298
L251.6641 32.5298
" />
<path d="M252.1403 33.5298
L252.1403 32.5298
" />
<path d="M252.1403 32.5298
L252.3784 32.5298
" />
<path d="M252.3784 32.5298
L252.5212 32.5774
" />
<path d="M252.5212 32.5774
L252.6165 32.6727
" />
<path d="M252.6165 32.6727
L252.6641 32.7679
" />
<path d="M252.6641 32.7679
L252.7117 32.9584
" />
<path d="M252.7117 32.9584
L252.7117 33.1012
" />
<path d="M252.7117 33.1012
L252.6641 33.2917
" />
<path d="M252.6641 33.2917
L252.6165 33.3870
" />
<path d="M252.6165 33.3870
L252.5212 33.4822
" />
<path d="M252.5212 33.4822
L252.3784 33.5298
" />
<path d="M252.3784 33.5298
L252.1403 33.5298
" />
<path d="M253.1403 33.5298
L253.1403 32.5298
" />
</g><text x="249.9022" y="31.6750"
transform="scale(-1 1) translate(-499.804400 0)"
textLength="2.9167" font-size="1.3333" lengthAdjust="spacingAndGlyphs"
text-anchor="middle" opacity="0">J24</text>
<g class="stroked-text"><desc>J24</desc>
<path d="M249.0927 30.6298
L249.0927 31.3441
" />
<path d="M249.0927 31.3441
L249.0451 31.4870
" />
<path d="M249.0451 31.4870
L248.9498 31.5822
" />
<path d="M248.9498 31.5822
L248.8070 31.6298
" />
<path d="M248.8070 31.6298
L248.7117 31.6298
" />
<path d="M249.5212 30.7251
L249.5689 30.6774
" />
<path d="M249.5689 30.6774
L249.6641 30.6298
" />
<path d="M249.6641 30.6298
L249.9022 30.6298
" />
<path d="M249.9022 30.6298
L249.9974 30.6774
" />
<path d="M249.9974 30.6774
L250.0451 30.7251
" />
<path d="M250.0451 30.7251
L250.0927 30.8203
" />
<path d="M250.0927 30.8203
L250.0927 30.9155
" />
<path d="M250.0927 30.9155
L250.0451 31.0584
" />
<path d="M250.0451 31.0584
L249.4736 31.6298
" />
<path d="M249.4736 31.6298
L250.0927 31.6298
" />
<path d="M250.9498 30.9632
L250.9498 31.6298
" />
<path d="M250.7117 30.5822
L250.4736 31.2965
" />
<path d="M250.4736 31.2965
L251.0927 31.2965
" />
</g><g transform="rotate(-90.000000 214.4022 74.9000)">
<text x="214.4022" y="75.4000"
transform="scale(-1 1) translate(-428.804400 0)"
textLength="2.9643" font-size="1.3333" lengthAdjust="spacingAndGlyphs"
text-anchor="middle" opacity="0">SJP</text>
</g>
<g class="stroked-text"><desc>SJP</desc>
<path d="M213.9950 73.7333
L213.9474 73.8762
" />
<path d="M213.9474 73.8762
L213.9474 74.1143
" />
<path d="M213.9474 74.1143
L213.9950 74.2095
" />
<path d="M213.9950 74.2095
L214.0426 74.2571
" />
<path d="M214.0426 74.2571
L214.1379 74.3048
" />
<path d="M214.1379 74.3048
L214.2331 74.3048
" />
<path d="M214.2331 74.3048
L214.3283 74.2571
" />
<path d="M214.3283 74.2571
L214.3760 74.2095
" />
<path d="M214.3760 74.2095
L214.4236 74.1143
" />
<path d="M214.4236 74.1143
L214.4712 73.9238
" />
<path d="M214.4712 73.9238
L214.5188 73.8286
" />
<path d="M214.5188 73.8286
L214.5664 73.7810
" />
<path d="M214.5664 73.7810
L214.6617 73.7333
" />
<path d="M214.6617 73.7333
L214.7569 73.7333
" />
<path d="M214.7569 73.7333
L214.8521 73.7810
" />
<path d="M214.8521 73.7810
L214.8998 73.8286
" />
<path d="M214.8998 73.8286
L214.9474 73.9238
" />
<path d="M214.9474 73.9238
L214.9474 74.1619
" />
<path d="M214.9474 74.1619
L214.8998 74.3048
" />
<path d="M214.9474 75.0190
L214.2331 75.0190
" />
<path d="M214.2331 75.0190
L214.0902 74.9714
" />
<path d="M214.0902 74.9714
L213.9950 74.8762
" />
<path d="M213.9950 74.8762
L213.9474 74.7333
" />
<path d="M213.9474 74.7333
L213.9474 74.6381
" />
<path d="M213.9474 75.4952
L214.9474 75.4952
" />
<path d="M214.9474 75.4952
L214.9474 75.8762
" />
<path d="M214.9474 75.8762
L214.8998 75.9714
" />
<path d="M214.8998 75.9714
L214.8521 76.0190
" />
<path d="M214.8521 76.0190
L214.7569 76.0667
" />
<path d="M214.7569 76.0667
L214.6140 76.0667
" />
<path d="M214.6140 76.0667
L214.5188 76.0190
" />
<path d="M214.5188 76.0190
L214.4712 75.9714
" />
<path d="M214.4712 75.9714
L214.4236 75.8762
" />
<path d="M214.4236 75.8762
L214.4236 75.4952
" />
</g><text x="256.6022" y="132.2000"
transform="scale(-1 1) translate(-513.204400 0)"
textLength="10.1071" font-size="1.3333" lengthAdjust="spacingAndGlyphs"
text-anchor="middle" opacity="0">RGB_LED_EXT</text>
<g class="stroked-text"><desc>RGB_LED_EXT</desc>
<path d="M252.4832 132.1548
L252.1498 131.6786
" />
<path d="M251.9117 132.1548
L251.9117 131.1548
" />
<path d="M251.9117 131.1548
L252.2927 131.1548
" />
<path d="M252.2927 131.1548
L252.3879 131.2024
" />
<path d="M252.3879 131.2024
L252.4355 131.2501
" />
<path d="M252.4355 131.2501
L252.4832 131.3453
" />
<path d="M252.4832 131.3453
L252.4832 131.4882
" />
<path d="M252.4832 131.4882
L252.4355 131.5834
" />
<path d="M252.4355 131.5834
L252.3879 131.6310
" />
<path d="M252.3879 131.6310
L252.2927 131.6786
" />
<path d="M252.2927 131.6786
L251.9117 131.6786
" />
<path d="M253.4355 131.2024
L253.3403 131.1548
" />
<path d="M253.3403 131.1548
L253.1974 131.1548
" />
<path d="M253.1974 131.1548
L253.0546 131.2024
" />
<path d="M253.0546 131.2024
L252.9593 131.2977
" />
<path d="M252.9593 131.2977
L252.9117 131.3929
" />
<path d="M252.9117 131.3929
L252.8641 131.5834
" />
<path d="M252.8641 131.5834
L252.8641 131.7262
" />
<path d="M252.8641 131.7262
L252.9117 131.9167
" />
<path d="M252.9117 131.9167
L252.9593 132.0120
" />
<path d="M252.9593 132.0120
L253.0546 132.1072
" />
<path d="M253.0546 132.1072
L253.1974 132.1548
" />
<path d="M253.1974 132.1548
L253.2927 132.1548
" />
<path d="M253.2927 132.1548
L253.4355 132.1072
" />
<path d="M253.4355 132.1072
L253.4832 132.0596
" />
<path d="M253.4832 132.0596
L253.4832 131.7262
" />
<path d="M253.4832 131.7262
L253.2927 131.7262
" />
<path d="M254.2451 131.6310
L254.3879 131.6786
" />
<path d="M254.3879 131.6786
L254.4355 131.7262
" />
<path d="M254.4355 131.7262
L254.4832 131.8215
" />
<path d="M254.4832 131.8215
L254.4832 131.9643
" />
<path d="M254.4832 131.9643
L254.4355 132.0596
" />
<path d="M254.4355 132.0596
L254.3879 132.1072
" />
<path d="M254.3879 132.1072
L254.2927 132.1548
" />
<path d="M254.2927 132.1548
L253.9117 132.1548
" />
<path d="M253.9117 132.1548
L253.9117 131.1548
" />
<path d="M253.9117 131.1548
L254.2451 131.1548
" />
<path d="M254.2451 131.1548
L254.3403 131.2024
" />
<path d="M254.3403 131.2024
L254.3879 131.2501
" />
<path d="M254.3879 131.2501
L254.4355 131.3453
" />
<path d="M254.4355 131.3453
L254.4355 131.4405
" />
<path d="M254.4355 131.4405
L254.3879 131.5358
" />
<path d="M254.3879 131.5358
L254.3403 131.5834
" />
<path d="M254.3403 131.5834
L254.2451 131.6310
" />
<path d="M254.2451 131.6310
L253.9117 131.6310
" />
<path d="M254.6736 132.2501
L255.4355 132.2501
" />
<path d="M256.1498 132.1548
L255.6736 132.1548
" />
<path d="M255.6736 132.1548
L255.6736 131.1548
" />
<path d="M256.4832 131.6310
L256.8165 131.6310
" />
<path d="M256.9593 132.1548
L256.4832 132.1548
" />
<path d="M256.4832 132.1548
L256.4832 131.1548
" />
<path d="M256.4832 131.1548
L256.9593 131.1548
" />
<path d="M257.3879 132.1548
L257.3879 131.1548
" />
<path d="M257.3879 131.1548
L257.6260 131.1548
" />
<path d="M257.6260 131.1548
L257.7689 131.2024
" />
<path d="M257.7689 131.2024
L257.8641 131.2977
" />
<path d="M257.8641 131.2977
L257.9117 131.3929
" />
<path d="M257.9117 131.3929
L257.9593 131.5834
" />
<path d="M257.9593 131.5834
L257.9593 131.7262
" />
<path d="M257.9593 131.7262
L257.9117 131.9167
" />
<path d="M257.9117 131.9167
L257.8641 132.0120
" />
<path d="M257.8641 132.0120
L257.7689 132.1072
" />
<path d="M257.7689 132.1072
L257.6260 132.1548
" />
<path d="M257.6260 132.1548
L257.3879 132.1548
" />
<path d="M258.1498 132.2501
L258.9117 132.2501
" />
<path d="M259.1498 131.6310
L259.4832 131.6310
" />
<path d="M259.6260 132.1548
L259.1498 132.1548
" />
<path d="M259.1498 132.1548
L259.1498 131.1548
" />
<path d="M259.1498 131.1548
L259.6260 131.1548
" />
<path d="M259.9593 131.1548
L260.6260 132.1548
" />
<path d="M260.6260 131.1548
L259.9593 132.1548
" />
<path d="M260.8641 131.1548
L261.4355 131.1548
" />
<path d="M261.1498 132.1548
L261.1498 131.1548
" />
</g><text x="256.6022" y="130.3000"
transform="scale(-1 1) translate(-513.204400 0)"
textLength="1.9643" font-size="1.3333" lengthAdjust="spacingAndGlyphs"
text-anchor="middle" opacity="0">J4</text>
<g class="stroked-text"><desc>J4</desc>
<path d="M256.2689 129.2548
L256.2689 129.9691
" />
<path d="M256.2689 129.9691
L256.2212 130.1120
" />
<path d="M256.2212 130.1120
L256.1260 130.2072
" />
<path d="M256.1260 130.2072
L255.9832 130.2548
" />
<path d="M255.9832 130.2548
L255.8879 130.2548
" />
<path d="M257.1736 129.5882
L257.1736 130.2548
" />
<path d="M256.9355 129.2072
L256.6974 129.9215
" />
<path d="M256.6974 129.9215
L257.3165 129.9215
" />
</g><g transform="rotate(-90.000000 173.3022 93.7756)">
<text x="173.3022" y="94.2756"
transform="scale(-1 1) translate(-346.604400 0)"
textLength="7.7262" font-size="1.3333" lengthAdjust="spacingAndGlyphs"
text-anchor="middle" opacity="0">HiFi Berry</text>
</g>
<g class="stroked-text"><desc>HiFi Berry</desc>
<path d="M172.8474 90.2756
L173.8474 90.2756
" />
<path d="M173.3712 90.2756
L173.3712 90.8470
" />
<path d="M172.8474 90.8470
L173.8474 90.8470
" />
<path d="M172.8474 91.3232
L173.5140 91.3232
" />
<path d="M173.8474 91.3232
L173.7998 91.2756
" />
<path d="M173.7998 91.2756
L173.7521 91.3232
" />
<path d="M173.7521 91.3232
L173.7998 91.3708
" />
<path d="M173.7998 91.3708
L173.8474 91.3232
" />
<path d="M173.8474 91.3232
L173.7521 91.3232
" />
<path d="M173.3712 92.1327
L173.3712 91.7994
" />
<path d="M172.8474 91.7994
L173.8474 91.7994
" />
<path d="M173.8474 91.7994
L173.8474 92.2756
" />
<path d="M172.8474 92.6566
L173.5140 92.6566
" />
<path d="M173.8474 92.6566
L173.7998 92.6089
" />
<path d="M173.7998 92.6089
L173.7521 92.6566
" />
<path d="M173.7521 92.6566
L173.7998 92.7042
" />
<path d="M173.7998 92.7042
L173.8474 92.6566
" />
<path d="M173.8474 92.6566
L173.7521 92.6566
" />
<path d="M173.3712 94.2280
L173.3236 94.3708
" />
<path d="M173.3236 94.3708
L173.2760 94.4185
" />
<path d="M173.2760 94.4185
L173.1807 94.4661
" />
<path d="M173.1807 94.4661
L173.0379 94.4661
" />
<path d="M173.0379 94.4661
L172.9426 94.4185
" />
<path d="M172.9426 94.4185
L172.8950 94.3708
" />
<path d="M172.8950 94.3708
L172.8474 94.2756
" />
<path d="M172.8474 94.2756
L172.8474 93.8946
" />
<path d="M172.8474 93.8946
L173.8474 93.8946
" />
<path d="M173.8474 93.8946
L173.8474 94.2280
" />
<path d="M173.8474 94.2280
L173.7998 94.3232
" />
<path d="M173.7998 94.3232
L173.7521 94.3708
" />
<path d="M173.7521 94.3708
L173.6569 94.4185
" />
<path d="M173.6569 94.4185
L173.5617 94.4185
" />
<path d="M173.5617 94.4185
L173.4664 94.3708
" />
<path d="M173.4664 94.3708
L173.4188 94.3232
" />
<path d="M173.4188 94.3232
L173.3712 94.2280
" />
<path d="M173.3712 94.2280
L173.3712 93.8946
" />
<path d="M172.8950 95.2756
L172.8474 95.1804
" />
<path d="M172.8474 95.1804
L172.8474 94.9899
" />
<path d="M172.8474 94.9899
L172.8950 94.8946
" />
<path d="M172.8950 94.8946
L172.9902 94.8470
" />
<path d="M172.9902 94.8470
L173.3712 94.8470
" />
<path d="M173.3712 94.8470
L173.4664 94.8946
" />
<path d="M173.4664 94.8946
L173.5140 94.9899
" />
<path d="M173.5140 94.9899
L173.5140 95.1804
" />
<path d="M173.5140 95.1804
L173.4664 95.2756
" />
<path d="M173.4664 95.2756
L173.3712 95.3232
" />
<path d="M173.3712 95.3232
L173.2760 95.3232
" />
<path d="M173.2760 95.3232
L173.1807 94.8470
" />
<path d="M172.8474 95.7518
L173.5140 95.7518
" />
<path d="M173.3236 95.7518
L173.4188 95.7994
" />
<path d="M173.4188 95.7994
L173.4664 95.8470
" />
<path d="M173.4664 95.8470
L173.5140 95.9423
" />
<path d="M173.5140 95.9423
L173.5140 96.0375
" />
<path d="M172.8474 96.3708
L173.5140 96.3708
" />
<path d="M173.3236 96.3708
L173.4188 96.4185
" />
<path d="M173.4188 96.4185
L173.4664 96.4661
" />
<path d="M173.4664 96.4661
L173.5140 96.5613
" />
<path d="M173.5140 96.5613
L173.5140 96.6566
" />
<path d="M173.5140 96.8946
L172.8474 97.1327
" />
<path d="M173.5140 97.3708
L172.8474 97.1327
" />
<path d="M172.8474 97.1327
L172.6093 97.0375
" />
<path d="M172.6093 97.0375
L172.5617 96.9899
" />
<path d="M172.5617 96.9899
L172.5140 96.8946
" />
</g><text x="249.9022" y="41.3250"
transform="scale(-1 1) translate(-499.804400 0)"
textLength="7.2024" font-size="1.3333" lengthAdjust="spacingAndGlyphs"
text-anchor="middle" opacity="0">EXT-MIDI</text>
<g class="stroked-text"><desc>EXT-MIDI</desc>
<path d="M246.6641 40.7560
L246.9974 40.7560
" />
<path d="M247.1403 41.2798
L246.6641 41.2798
" />
<path d="M246.6641 41.2798
L246.6641 40.2798
" />
<path d="M246.6641 40.2798
L247.1403 40.2798
" />
<path d="M247.4736 40.2798
L248.1403 41.2798
" />
<path d="M248.1403 40.2798
L247.4736 41.2798
" />
<path d="M248.3784 40.2798
L248.9498 40.2798
" />
<path d="M248.6641 41.2798
L248.6641 40.2798
" />
<path d="M249.2832 40.8989
L250.0451 40.8989
" />
<path d="M250.5212 41.2798
L250.5212 40.2798
" />
<path d="M250.5212 40.2798
L250.8546 40.9941
" />
<path d="M250.8546 40.9941
L251.1879 40.2798
" />
<path d="M251.1879 40.2798
L251.1879 41.2798
" />
<path d="M251.6641 41.2798
L251.6641 40.2798
" />
<path d="M252.1403 41.2798
L252.1403 40.2798
" />
<path d="M252.1403 40.2798
L252.3784 40.2798
" />
<path d="M252.3784 40.2798
L252.5212 40.3274
" />
<path d="M252.5212 40.3274
L252.6165 40.4227
" />
<path d="M252.6165 40.4227
L252.6641 40.5179
" />
<path d="M252.6641 40.5179
L252.7117 40.7084
" />
<path d="M252.7117 40.7084
L252.7117 40.8512
" />
<path d="M252.7117 40.8512
L252.6641 41.0417
" />
<path d="M252.6641 41.0417
L252.6165 41.1370
" />
<path d="M252.6165 41.1370
L252.5212 41.2322
" />
<path d="M252.5212 41.2322
L252.3784 41.2798
" />
<path d="M252.3784 41.2798
L252.1403 41.2798
" />
<path d="M253.1403 41.2798
L253.1403 40.2798
" />
</g><text x="249.9022" y="39.4250"
transform="scale(-1 1) translate(-499.804400 0)"
textLength="2.9167" font-size="1.3333" lengthAdjust="spacingAndGlyphs"
text-anchor="middle" opacity="0">J25</text>
<g class="stroked-text"><desc>J25</desc>
<path d="M249.0927 38.3798
L249.0927 39.0941
" />
<path d="M249.0927 39.0941
L249.0451 39.2370
" />
<path d="M249.0451 39.2370
L248.9498 39.3322
" />
<path d="M248.9498 39.3322
L248.8070 39.3798
" />
<path d="M248.8070 39.3798
L248.7117 39.3798
" />
<path d="M249.5212 38.4751
L249.5689 38.4274
" />
<path d="M249.5689 38.4274
L249.6641 38.3798
" />
<path d="M249.6641 38.3798
L249.9022 38.3798
" />
<path d="M249.9022 38.3798
L249.9974 38.4274
" />
<path d="M249.9974 38.4274
L250.0451 38.4751
" />
<path d="M250.0451 38.4751
L250.0927 38.5703
" />
<path d="M250.0927 38.5703
L250.0927 38.6655
" />
<path d="M250.0927 38.6655
L250.0451 38.8084
" />
<path d="M250.0451 38.8084
L249.4736 39.3798
" />
<path d="M249.4736 39.3798
L250.0927 39.3798
" />
<path d="M250.9974 38.3798
L250.5212 38.3798
" />
<path d="M250.5212 38.3798
L250.4736 38.8560
" />
<path d="M250.4736 38.8560
L250.5212 38.8084
" />
<path d="M250.5212 38.8084
L250.6165 38.7608
" />
<path d="M250.6165 38.7608
L250.8546 38.7608
" />
<path d="M250.8546 38.7608
L250.9498 38.8084
" />
<path d="M250.9498 38.8084
L250.9974 38.8560
" />
<path d="M250.9974 38.8560
L251.0451 38.9512
" />
<path d="M251.0451 38.9512
L251.0451 39.1893
" />
<path d="M251.0451 39.1893
L250.9974 39.2846
" />
<path d="M250.9974 39.2846
L250.9498 39.3322
" />
<path d="M250.9498 39.3322
L250.8546 39.3798
" />
<path d="M250.8546 39.3798
L250.6165 39.3798
" />
<path d="M250.6165 39.3798
L250.5212 39.3322
" />
<path d="M250.5212 39.3322
L250.4736 39.2846
" />
</g></g>
<g style="fill:#000000; fill-opacity:0.0; 
stroke:#000000; stroke-width:0.1000; stroke-opacity:1; 
stroke-linecap:round; stroke-linejoin:round;">
<path d="M247.4122 107.5900
L248.6822 106.3200
" />
<path d="M197.8822 107.5900
L247.4122 107.5900
" />
<path d="M248.6822 106.3200
L248.6822 102.5100
" />
<path d="M248.6822 102.5100
L197.8822 102.5100
" />
<path d="M197.8822 102.5100
L197.8822 107.5900
" />
<path d="M184.6472 88.8900
L184.6472 98.4150
" />
<path d="M184.6472 98.4150
L184.0122 99.0500
" />
<path d="M184.0122 99.0500
L182.1072 99.0500
" />
<path d="M182.1072 88.8900
L184.6472 88.8900
" />
<path d="M182.1072 99.0500
L182.1072 88.8900
" />
<path d="M162.2472 56.9900
L160.4272 56.9900
" />
<path d="M162.2472 57.6300
L162.2472 56.9900
" />
<path d="M162.2472 57.6300
L160.4272 57.6300
" />
<path d="M162.2472 59.5300
L160.4272 59.5300
" />
<path d="M162.2472 60.1700
L162.2472 59.5300
" />
<path d="M162.2472 60.1700
L160.4272 60.1700
" />
<path d="M160.4272 56.0400
L160.4272 60.4850
" />
<path d="M160.4272 60.4850
L159.7922 61.1200
" />
<path d="M159.7922 61.1200
L157.8872 61.1200
" />
<path d="M157.8872 56.0400
L160.4272 56.0400
" />
<path d="M157.8872 56.9900
L151.8872 56.9900
" />
<path d="M157.8872 57.6300
L151.8872 57.6300
" />
<path d="M157.8872 59.5300
L151.8872 59.5300
" />
<path d="M157.8872 60.1700
L151.8872 60.1700
" />
<path d="M157.8872 61.1200
L157.8872 56.0400
" />
<path d="M151.8872 57.6300
L151.8872 56.9900
" />
<path d="M151.8872 60.1700
L151.8872 59.5300
" />
</g>
<g style="fill:#000000; fill-opacity:0.0; 
stroke:#000000; stroke-width:0.1200; stroke-opacity:1; 
stroke-linecap:round; stroke-linejoin:round;">
<path d="M219.5022 59.5000
L168.5022 59.5000
" />
<path d="M169.8022 59.5000
L168.5022 58.2000
" />
<path d="M168.5022 59.5000
L168.5022 38.5000
" />
<path d="M219.5022 38.5000
L219.5022 59.5000
" />
<path d="M168.5022 38.5000
L219.5022 38.5000
" />
</g>
<g style="fill:#000000; fill-opacity:0.0; 
stroke:#000000; stroke-width:0.1000; stroke-opacity:1; 
stroke-linecap:round; stroke-linejoin:round;">
<path d="M244.9522 31.8750
L254.8522 31.8750
" />
<path d="M244.9522 26.1250
L244.9522 31.8750
" />
<path d="M246.7772 26.1250
L247.4022 27.1250
" />
<path d="M247.4022 27.1250
L248.0272 26.1250
" />
<path d="M254.8522 31.8750
L254.8522 26.1250
" />
<path d="M254.8522 26.1250
L244.9522 26.1250
" />
<path d="M251.6522 130.5000
L261.5522 130.5000
" />
<path d="M251.6522 124.7500
L251.6522 130.5000
" />
<path d="M253.4772 124.7500
L254.1022 125.7500
" />
<path d="M254.1022 125.7500
L254.7272 124.7500
" />
<path d="M261.5522 130.5000
L261.5522 124.7500
" />
<path d="M261.5522 124.7500
L251.6522 124.7500
" />
<path d="M138.2722 122.9606
L145.8922 122.9606
" />
<path d="M138.2722 117.8806
L138.2722 122.9606
" />
<path d="M139.1772 81.1956
L144.2572 81.1956
" />
<path d="M139.1772 74.5756
L139.1772 81.1956
" />
<path d="M140.1772 73.5756
L139.1772 74.5756
" />
<path d="M144.2572 81.1956
L144.2572 73.5756
" />
<path d="M144.2572 73.5756
L140.1772 73.5756
" />
<path d="M144.8922 117.8806
L138.2722 117.8806
" />
<path d="M145.8922 122.9606
L145.8922 118.8806
" />
<path d="M145.8922 118.8806
L144.8922 117.8806
" />
<path d="M175.4822 117.9056
L180.5622 117.9056
" />
<path d="M175.4822 68.1056
L175.4822 117.9056
" />
<path d="M176.4822 67.1056
L175.4822 68.1056
" />
<path d="M180.5622 117.9056
L180.5622 67.1056
" />
<path d="M180.5622 67.1056
L176.4822 67.1056
" />
<path d="M244.9522 39.6250
L254.8522 39.6250
" />
<path d="M244.9522 33.8750
L244.9522 39.6250
" />
<path d="M246.7772 33.8750
L247.4022 34.8750
" />
<path d="M247.4022 34.8750
L248.0272 33.8750
" />
<path d="M254.8522 39.6250
L254.8522 33.8750
" />
<path d="M254.8522 33.8750
L244.9522 33.8750
" />
<g >
</g>
<g >
</g>
<g >
</g>
<g >
</g>
<g >
</g>
<g >
</g>
<g >
</g>
<g >
</g>
<g >
</g>
<g >
</g>
<g >
</g>
<g >
</g>
<g >
</g>
<g >
</g>
<g >
</g>
<g >
</g>
<g >
</g>
<g >
</g>
<g >
</g>
<g >
</g>
<g >
</g>
<g >
</g>
<g >
</g>
<g >
</g>
<g >
</g>
<g >
</g>
<g >
</g>
<g >
</g>
<g >
</g>
<g >
</g>
<g >
</g>
<g >
</g>
<g >
</g>
<g >
</g>
<g >
</g>
<g >
</g>
<g >
</g>
<g >
</g>
<g >
</g>
<g >
</g>
<g >
</g>
<g >
</g>
<g >
</g>
<g >
</g>
<g >
</g>
<g >
</g>
<g >
</g>
<g >
</g>
<g >
</g>
<g >
</g>
<g >
</g>
<g >
</g>
<g >
</g>
<g >
</g>
<g >
</g>
<g >
</g>
<g >
</g>
<g >
</g>
<g >
</g>
<g >
</g>
<g >
</g>
<g >
</g>
<g >
</g>
<g >
</g>
<g >
</g>
<g >
</g>
<g >
</g>
<g >
</g>
<g >
</g>
<g >
</g>
<g >
</g>
<g >
</g>
<g >
</g>
<g >
</g>
<g >
</g>
<g >
</g>
<g >
</g>
<g >
</g>
<g >
</g>
<g >
</g>
<g >
</g>
<g >
</g>
<g >
</g>
<g >
</g>
<g >
</g>
<g >
</g>
</g> 
</svg>
