<?xml version="1.0" standalone="no"?>
 <!DOCTYPE svg PUBLIC "-//W3C//DTD SVG 1.1//EN" 
 "http://www.w3.org/Graphics/SVG/1.1/DTD/svg11.dtd"> 
<svg
  xmlns:svg="http://www.w3.org/2000/svg"
  xmlns="http://www.w3.org/2000/svg"
  xmlns:xlink="http://www.w3.org/1999/xlink"
  version="1.1"
  width="297.0022mm" height="210.0072mm" viewBox="0.0000 0.0000 297.0022 210.0072">
<title>SVG Image created as pedalboard-hw-User_Drawings.svg date 2024/10/09 22:09:51 </title>
  <desc>Image generated by PCBNEW </desc>
<g style="fill:#000000; fill-opacity:1.0000;stroke:#000000; stroke-opacity:1.0000;
stroke-linecap:round; stroke-linejoin:round;"
 transform="translate(0 0) scale(1 1)">
<path style="fill:none; 
stroke:#000000; stroke-width:0.0500; stroke-opacity:1; 
stroke-linecap:round; stroke-linejoin:round;fill:none"
d="M 281.6322,19.5000
102.3722,19.5000
102.3722,131.7600
281.6322,131.7600
Z" /> 
</g>
<g style="fill:none; 
stroke:#000000; stroke-width:0.1500; stroke-opacity:1; 
stroke-linecap:round; stroke-linejoin:round;">
<text x="229.5022" y="141.3500"
textLength="9.8690" font-size="1.3333" lengthAdjust="spacingAndGlyphs"
text-anchor="middle" opacity="0" stroke-opacity="0">75.0000 mm</text>
<g class="stroked-text"><desc>75.0000 mm</desc>
<path d="M224.8355 140.3048
L225.5022 140.3048
" />
<path d="M225.5022 140.3048
L225.0736 141.3048
" />
<path d="M226.3593 140.3048
L225.8832 140.3048
" />
<path d="M225.8832 140.3048
L225.8355 140.7810
" />
<path d="M225.8355 140.7810
L225.8832 140.7334
" />
<path d="M225.8832 140.7334
L225.9784 140.6858
" />
<path d="M225.9784 140.6858
L226.2165 140.6858
" />
<path d="M226.2165 140.6858
L226.3117 140.7334
" />
<path d="M226.3117 140.7334
L226.3593 140.7810
" />
<path d="M226.3593 140.7810
L226.4070 140.8762
" />
<path d="M226.4070 140.8762
L226.4070 141.1143
" />
<path d="M226.4070 141.1143
L226.3593 141.2096
" />
<path d="M226.3593 141.2096
L226.3117 141.2572
" />
<path d="M226.3117 141.2572
L226.2165 141.3048
" />
<path d="M226.2165 141.3048
L225.9784 141.3048
" />
<path d="M225.9784 141.3048
L225.8832 141.2572
" />
<path d="M225.8832 141.2572
L225.8355 141.2096
" />
<path d="M226.8355 141.2096
L226.8832 141.2572
" />
<path d="M226.8832 141.2572
L226.8355 141.3048
" />
<path d="M226.8355 141.3048
L226.7879 141.2572
" />
<path d="M226.7879 141.2572
L226.8355 141.2096
" />
<path d="M226.8355 141.2096
L226.8355 141.3048
" />
<path d="M227.5022 140.3048
L227.5974 140.3048
" />
<path d="M227.5974 140.3048
L227.6927 140.3524
" />
<path d="M227.6927 140.3524
L227.7403 140.4001
" />
<path d="M227.7403 140.4001
L227.7879 140.4953
" />
<path d="M227.7879 140.4953
L227.8355 140.6858
" />
<path d="M227.8355 140.6858
L227.8355 140.9239
" />
<path d="M227.8355 140.9239
L227.7879 141.1143
" />
<path d="M227.7879 141.1143
L227.7403 141.2096
" />
<path d="M227.7403 141.2096
L227.6927 141.2572
" />
<path d="M227.6927 141.2572
L227.5974 141.3048
" />
<path d="M227.5974 141.3048
L227.5022 141.3048
" />
<path d="M227.5022 141.3048
L227.4070 141.2572
" />
<path d="M227.4070 141.2572
L227.3593 141.2096
" />
<path d="M227.3593 141.2096
L227.3117 141.1143
" />
<path d="M227.3117 141.1143
L227.2641 140.9239
" />
<path d="M227.2641 140.9239
L227.2641 140.6858
" />
<path d="M227.2641 140.6858
L227.3117 140.4953
" />
<path d="M227.3117 140.4953
L227.3593 140.4001
" />
<path d="M227.3593 140.4001
L227.4070 140.3524
" />
<path d="M227.4070 140.3524
L227.5022 140.3048
" />
<path d="M228.4546 140.3048
L228.5498 140.3048
" />
<path d="M228.5498 140.3048
L228.6451 140.3524
" />
<path d="M228.6451 140.3524
L228.6927 140.4001
" />
<path d="M228.6927 140.4001
L228.7403 140.4953
" />
<path d="M228.7403 140.4953
L228.7879 140.6858
" />
<path d="M228.7879 140.6858
L228.7879 140.9239
" />
<path d="M228.7879 140.9239
L228.7403 141.1143
" />
<path d="M228.7403 141.1143
L228.6927 141.2096
" />
<path d="M228.6927 141.2096
L228.6451 141.2572
" />
<path d="M228.6451 141.2572
L228.5498 141.3048
" />
<path d="M228.5498 141.3048
L228.4546 141.3048
" />
<path d="M228.4546 141.3048
L228.3593 141.2572
" />
<path d="M228.3593 141.2572
L228.3117 141.2096
" />
<path d="M228.3117 141.2096
L228.2641 141.1143
" />
<path d="M228.2641 141.1143
L228.2165 140.9239
" />
<path d="M228.2165 140.9239
L228.2165 140.6858
" />
<path d="M228.2165 140.6858
L228.2641 140.4953
" />
<path d="M228.2641 140.4953
L228.3117 140.4001
" />
<path d="M228.3117 140.4001
L228.3593 140.3524
" />
<path d="M228.3593 140.3524
L228.4546 140.3048
" />
<path d="M229.4070 140.3048
L229.5022 140.3048
" />
<path d="M229.5022 140.3048
L229.5974 140.3524
" />
<path d="M229.5974 140.3524
L229.6451 140.4001
" />
<path d="M229.6451 140.4001
L229.6927 140.4953
" />
<path d="M229.6927 140.4953
L229.7403 140.6858
" />
<path d="M229.7403 140.6858
L229.7403 140.9239
" />
<path d="M229.7403 140.9239
L229.6927 141.1143
" />
<path d="M229.6927 141.1143
L229.6451 141.2096
" />
<path d="M229.6451 141.2096
L229.5974 141.2572
" />
<path d="M229.5974 141.2572
L229.5022 141.3048
" />
<path d="M229.5022 141.3048
L229.4070 141.3048
" />
<path d="M229.4070 141.3048
L229.3117 141.2572
" />
<path d="M229.3117 141.2572
L229.2641 141.2096
" />
<path d="M229.2641 141.2096
L229.2165 141.1143
" />
<path d="M229.2165 141.1143
L229.1689 140.9239
" />
<path d="M229.1689 140.9239
L229.1689 140.6858
" />
<path d="M229.1689 140.6858
L229.2165 140.4953
" />
<path d="M229.2165 140.4953
L229.2641 140.4001
" />
<path d="M229.2641 140.4001
L229.3117 140.3524
" />
<path d="M229.3117 140.3524
L229.4070 140.3048
" />
<path d="M230.3593 140.3048
L230.4546 140.3048
" />
<path d="M230.4546 140.3048
L230.5498 140.3524
" />
<path d="M230.5498 140.3524
L230.5974 140.4001
" />
<path d="M230.5974 140.4001
L230.6451 140.4953
" />
<path d="M230.6451 140.4953
L230.6927 140.6858
" />
<path d="M230.6927 140.6858
L230.6927 140.9239
" />
<path d="M230.6927 140.9239
L230.6451 141.1143
" />
<path d="M230.6451 141.1143
L230.5974 141.2096
" />
<path d="M230.5974 141.2096
L230.5498 141.2572
" />
<path d="M230.5498 141.2572
L230.4546 141.3048
" />
<path d="M230.4546 141.3048
L230.3593 141.3048
" />
<path d="M230.3593 141.3048
L230.2641 141.2572
" />
<path d="M230.2641 141.2572
L230.2165 141.2096
" />
<path d="M230.2165 141.2096
L230.1689 141.1143
" />
<path d="M230.1689 141.1143
L230.1212 140.9239
" />
<path d="M230.1212 140.9239
L230.1212 140.6858
" />
<path d="M230.1212 140.6858
L230.1689 140.4953
" />
<path d="M230.1689 140.4953
L230.2165 140.4001
" />
<path d="M230.2165 140.4001
L230.2641 140.3524
" />
<path d="M230.2641 140.3524
L230.3593 140.3048
" />
<path d="M231.8832 141.3048
L231.8832 140.6382
" />
<path d="M231.8832 140.7334
L231.9308 140.6858
" />
<path d="M231.9308 140.6858
L232.0260 140.6382
" />
<path d="M232.0260 140.6382
L232.1689 140.6382
" />
<path d="M232.1689 140.6382
L232.2641 140.6858
" />
<path d="M232.2641 140.6858
L232.3117 140.7810
" />
<path d="M232.3117 140.7810
L232.3117 141.3048
" />
<path d="M232.3117 140.7810
L232.3593 140.6858
" />
<path d="M232.3593 140.6858
L232.4546 140.6382
" />
<path d="M232.4546 140.6382
L232.5974 140.6382
" />
<path d="M232.5974 140.6382
L232.6927 140.6858
" />
<path d="M232.6927 140.6858
L232.7403 140.7810
" />
<path d="M232.7403 140.7810
L232.7403 141.3048
" />
<path d="M233.2165 141.3048
L233.2165 140.6382
" />
<path d="M233.2165 140.7334
L233.2641 140.6858
" />
<path d="M233.2641 140.6858
L233.3593 140.6382
" />
<path d="M233.3593 140.6382
L233.5022 140.6382
" />
<path d="M233.5022 140.6382
L233.5974 140.6858
" />
<path d="M233.5974 140.6858
L233.6451 140.7810
" />
<path d="M233.6451 140.7810
L233.6451 141.3048
" />
<path d="M233.6451 140.7810
L233.6927 140.6858
" />
<path d="M233.6927 140.6858
L233.7879 140.6382
" />
<path d="M233.7879 140.6382
L233.9308 140.6382
" />
<path d="M233.9308 140.6382
L234.0260 140.6858
" />
<path d="M234.0260 140.6858
L234.0736 140.7810
" />
<path d="M234.0736 140.7810
L234.0736 141.3048
" />
</g><path d="M267.0022 119.5000
L267.0022 142.5864
" />
<path d="M192.0022 119.5000
L192.0022 142.5864
" />
<path d="M267.0022 142.0000
L192.0022 142.0000
" />
<path d="M267.0022 142.0000
L192.0022 142.0000
" />
<path d="M267.0022 142.0000
L265.8757 141.4136
" />
<path d="M267.0022 142.0000
L265.8757 142.5864
" />
<path d="M192.0022 142.0000
L193.1287 142.5864
" />
<path d="M192.0022 142.0000
L193.1287 141.4136
" />
<text x="117.0022" y="13.9500"
textLength="5.5833" font-size="1.3333" lengthAdjust="spacingAndGlyphs"
text-anchor="middle" opacity="0" stroke-opacity="0">24 mm</text>
<g class="stroked-text"><desc>24 mm</desc>
<path d="M114.5260 13.0001
L114.5736 12.9524
" />
<path d="M114.5736 12.9524
L114.6689 12.9048
" />
<path d="M114.6689 12.9048
L114.9070 12.9048
" />
<path d="M114.9070 12.9048
L115.0022 12.9524
" />
<path d="M115.0022 12.9524
L115.0498 13.0001
" />
<path d="M115.0498 13.0001
L115.0974 13.0953
" />
<path d="M115.0974 13.0953
L115.0974 13.1905
" />
<path d="M115.0974 13.1905
L115.0498 13.3334
" />
<path d="M115.0498 13.3334
L114.4784 13.9048
" />
<path d="M114.4784 13.9048
L115.0974 13.9048
" />
<path d="M115.9546 13.2382
L115.9546 13.9048
" />
<path d="M115.7165 12.8572
L115.4784 13.5715
" />
<path d="M115.4784 13.5715
L116.0974 13.5715
" />
<path d="M117.2403 13.9048
L117.2403 13.2382
" />
<path d="M117.2403 13.3334
L117.2879 13.2858
" />
<path d="M117.2879 13.2858
L117.3832 13.2382
" />
<path d="M117.3832 13.2382
L117.5260 13.2382
" />
<path d="M117.5260 13.2382
L117.6212 13.2858
" />
<path d="M117.6212 13.2858
L117.6689 13.3810
" />
<path d="M117.6689 13.3810
L117.6689 13.9048
" />
<path d="M117.6689 13.3810
L117.7165 13.2858
" />
<path d="M117.7165 13.2858
L117.8117 13.2382
" />
<path d="M117.8117 13.2382
L117.9546 13.2382
" />
<path d="M117.9546 13.2382
L118.0498 13.2858
" />
<path d="M118.0498 13.2858
L118.0974 13.3810
" />
<path d="M118.0974 13.3810
L118.0974 13.9048
" />
<path d="M118.5736 13.9048
L118.5736 13.2382
" />
<path d="M118.5736 13.3334
L118.6212 13.2858
" />
<path d="M118.6212 13.2858
L118.7165 13.2382
" />
<path d="M118.7165 13.2382
L118.8593 13.2382
" />
<path d="M118.8593 13.2382
L118.9546 13.2858
" />
<path d="M118.9546 13.2858
L119.0022 13.3810
" />
<path d="M119.0022 13.3810
L119.0022 13.9048
" />
<path d="M119.0022 13.3810
L119.0498 13.2858
" />
<path d="M119.0498 13.2858
L119.1451 13.2382
" />
<path d="M119.1451 13.2382
L119.2879 13.2382
" />
<path d="M119.2879 13.2382
L119.3832 13.2858
" />
<path d="M119.3832 13.2858
L119.4308 13.3810
" />
<path d="M119.4308 13.3810
L119.4308 13.9048
" />
</g><path d="M129.0022 22.5000
L129.0022 14.0136
" />
<path d="M105.0022 22.5000
L105.0022 14.0136
" />
<path d="M129.0022 14.6000
L105.0022 14.6000
" />
<path d="M129.0022 14.6000
L105.0022 14.6000
" />
<path d="M129.0022 14.6000
L127.8757 14.0136
" />
<path d="M129.0022 14.6000
L127.8757 15.1864
" />
<path d="M105.0022 14.6000
L106.1287 15.1864
" />
<path d="M105.0022 14.6000
L106.1287 14.0136
" />
<g transform="rotate(90.000000 99.1522 50.5000)">
<text x="99.1522" y="51.0000"
textLength="5.5833" font-size="1.3333" lengthAdjust="spacingAndGlyphs"
text-anchor="middle" opacity="0" stroke-opacity="0">33 mm</text>
</g>
<g class="stroked-text"><desc>33 mm</desc>
<path d="M99.6974 47.9762
L99.6974 48.5952
" />
<path d="M99.6974 48.5952
L99.3164 48.2619
" />
<path d="M99.3164 48.2619
L99.3164 48.4048
" />
<path d="M99.3164 48.4048
L99.2688 48.5000
" />
<path d="M99.2688 48.5000
L99.2212 48.5476
" />
<path d="M99.2212 48.5476
L99.1260 48.5952
" />
<path d="M99.1260 48.5952
L98.8879 48.5952
" />
<path d="M98.8879 48.5952
L98.7926 48.5476
" />
<path d="M98.7926 48.5476
L98.7450 48.5000
" />
<path d="M98.7450 48.5000
L98.6974 48.4048
" />
<path d="M98.6974 48.4048
L98.6974 48.1190
" />
<path d="M98.6974 48.1190
L98.7450 48.0238
" />
<path d="M98.7450 48.0238
L98.7926 47.9762
" />
<path d="M99.6974 48.9286
L99.6974 49.5476
" />
<path d="M99.6974 49.5476
L99.3164 49.2143
" />
<path d="M99.3164 49.2143
L99.3164 49.3571
" />
<path d="M99.3164 49.3571
L99.2688 49.4524
" />
<path d="M99.2688 49.4524
L99.2212 49.5000
" />
<path d="M99.2212 49.5000
L99.1260 49.5476
" />
<path d="M99.1260 49.5476
L98.8879 49.5476
" />
<path d="M98.8879 49.5476
L98.7926 49.5000
" />
<path d="M98.7926 49.5000
L98.7450 49.4524
" />
<path d="M98.7450 49.4524
L98.6974 49.3571
" />
<path d="M98.6974 49.3571
L98.6974 49.0714
" />
<path d="M98.6974 49.0714
L98.7450 48.9762
" />
<path d="M98.7450 48.9762
L98.7926 48.9286
" />
<path d="M98.6974 50.7381
L99.3640 50.7381
" />
<path d="M99.2688 50.7381
L99.3164 50.7857
" />
<path d="M99.3164 50.7857
L99.3640 50.8810
" />
<path d="M99.3640 50.8810
L99.3640 51.0238
" />
<path d="M99.3640 51.0238
L99.3164 51.1190
" />
<path d="M99.3164 51.1190
L99.2212 51.1667
" />
<path d="M99.2212 51.1667
L98.6974 51.1667
" />
<path d="M99.2212 51.1667
L99.3164 51.2143
" />
<path d="M99.3164 51.2143
L99.3640 51.3095
" />
<path d="M99.3640 51.3095
L99.3640 51.4524
" />
<path d="M99.3640 51.4524
L99.3164 51.5476
" />
<path d="M99.3164 51.5476
L99.2212 51.5952
" />
<path d="M99.2212 51.5952
L98.6974 51.5952
" />
<path d="M98.6974 52.0714
L99.3640 52.0714
" />
<path d="M99.2688 52.0714
L99.3164 52.1190
" />
<path d="M99.3164 52.1190
L99.3640 52.2143
" />
<path d="M99.3640 52.2143
L99.3640 52.3571
" />
<path d="M99.3640 52.3571
L99.3164 52.4524
" />
<path d="M99.3164 52.4524
L99.2212 52.5000
" />
<path d="M99.2212 52.5000
L98.6974 52.5000
" />
<path d="M99.2212 52.5000
L99.3164 52.5476
" />
<path d="M99.3164 52.5476
L99.3640 52.6429
" />
<path d="M99.3640 52.6429
L99.3640 52.7857
" />
<path d="M99.3640 52.7857
L99.3164 52.8810
" />
<path d="M99.3164 52.8810
L99.2212 52.9286
" />
<path d="M99.2212 52.9286
L98.6974 52.9286
" />
</g><path d="M154.0022 34.0000
L97.4158 34.0000
" />
<path d="M154.0022 67.0000
L97.4158 67.0000
" />
<path d="M98.0022 34.0000
L98.0022 67.0000
" />
<path d="M98.0022 34.0000
L98.0022 67.0000
" />
<path d="M98.0022 34.0000
L97.4158 35.1265
" />
<path d="M98.0022 34.0000
L98.5886 35.1265
" />
<path d="M98.0022 67.0000
L98.5886 65.8735
" />
<path d="M98.0022 67.0000
L97.4158 65.8735
" />
<g transform="rotate(90.000000 99.0022 124.1000)">
<text x="99.0022" y="124.6000"
textLength="5.5833" font-size="1.3333" lengthAdjust="spacingAndGlyphs"
text-anchor="middle" opacity="0" stroke-opacity="0">12 mm</text>
</g>
<g class="stroked-text"><desc>12 mm</desc>
<path d="M98.5474 122.1952
L98.5474 121.6238
" />
<path d="M98.5474 121.9095
L99.5474 121.9095
" />
<path d="M99.5474 121.9095
L99.4045 121.8143
" />
<path d="M99.4045 121.8143
L99.3093 121.7190
" />
<path d="M99.3093 121.7190
L99.2617 121.6238
" />
<path d="M99.4521 122.5762
L99.4998 122.6238
" />
<path d="M99.4998 122.6238
L99.5474 122.7190
" />
<path d="M99.5474 122.7190
L99.5474 122.9571
" />
<path d="M99.5474 122.9571
L99.4998 123.0524
" />
<path d="M99.4998 123.0524
L99.4521 123.1000
" />
<path d="M99.4521 123.1000
L99.3569 123.1476
" />
<path d="M99.3569 123.1476
L99.2617 123.1476
" />
<path d="M99.2617 123.1476
L99.1188 123.1000
" />
<path d="M99.1188 123.1000
L98.5474 122.5286
" />
<path d="M98.5474 122.5286
L98.5474 123.1476
" />
<path d="M98.5474 124.3381
L99.2140 124.3381
" />
<path d="M99.1188 124.3381
L99.1664 124.3857
" />
<path d="M99.1664 124.3857
L99.2140 124.4810
" />
<path d="M99.2140 124.4810
L99.2140 124.6238
" />
<path d="M99.2140 124.6238
L99.1664 124.7190
" />
<path d="M99.1664 124.7190
L99.0712 124.7667
" />
<path d="M99.0712 124.7667
L98.5474 124.7667
" />
<path d="M99.0712 124.7667
L99.1664 124.8143
" />
<path d="M99.1664 124.8143
L99.2140 124.9095
" />
<path d="M99.2140 124.9095
L99.2140 125.0524
" />
<path d="M99.2140 125.0524
L99.1664 125.1476
" />
<path d="M99.1664 125.1476
L99.0712 125.1952
" />
<path d="M99.0712 125.1952
L98.5474 125.1952
" />
<path d="M98.5474 125.6714
L99.2140 125.6714
" />
<path d="M99.1188 125.6714
L99.1664 125.7190
" />
<path d="M99.1664 125.7190
L99.2140 125.8143
" />
<path d="M99.2140 125.8143
L99.2140 125.9571
" />
<path d="M99.2140 125.9571
L99.1664 126.0524
" />
<path d="M99.1664 126.0524
L99.0712 126.1000
" />
<path d="M99.0712 126.1000
L98.5474 126.1000
" />
<path d="M99.0712 126.1000
L99.1664 126.1476
" />
<path d="M99.1664 126.1476
L99.2140 126.2429
" />
<path d="M99.2140 126.2429
L99.2140 126.3857
" />
<path d="M99.2140 126.3857
L99.1664 126.4810
" />
<path d="M99.1664 126.4810
L99.0712 126.5286
" />
<path d="M99.0712 126.5286
L98.5474 126.5286
" />
</g><path d="M116.8422 119.0000
L97.4158 119.0000
" />
<path d="M116.8422 131.0000
L97.4158 131.0000
" />
<path d="M98.0022 119.0000
L98.0022 131.0000
" />
<path d="M98.0022 119.0000
L98.0022 131.0000
" />
<path d="M98.0022 119.0000
L97.4158 120.1265
" />
<path d="M98.0022 119.0000
L98.5886 120.1265
" />
<path d="M98.0022 131.0000
L98.5886 129.8735
" />
<path d="M98.0022 131.0000
L97.4158 129.8735
" />
<g transform="rotate(90.000000 246.3716 22.5000)">
<text x="246.3716" y="23.0000"
textLength="4.6310" font-size="1.3333" lengthAdjust="spacingAndGlyphs"
text-anchor="middle" opacity="0" stroke-opacity="0">3 mm</text>
</g>
<g class="stroked-text"><desc>3 mm</desc>
<path d="M246.9168 20.4524
L246.9168 21.0714
" />
<path d="M246.9168 21.0714
L246.5358 20.7381
" />
<path d="M246.5358 20.7381
L246.5358 20.8810
" />
<path d="M246.5358 20.8810
L246.4882 20.9762
" />
<path d="M246.4882 20.9762
L246.4406 21.0238
" />
<path d="M246.4406 21.0238
L246.3453 21.0714
" />
<path d="M246.3453 21.0714
L246.1072 21.0714
" />
<path d="M246.1072 21.0714
L246.0120 21.0238
" />
<path d="M246.0120 21.0238
L245.9644 20.9762
" />
<path d="M245.9644 20.9762
L245.9168 20.8810
" />
<path d="M245.9168 20.8810
L245.9168 20.5952
" />
<path d="M245.9168 20.5952
L245.9644 20.5000
" />
<path d="M245.9644 20.5000
L246.0120 20.4524
" />
<path d="M245.9168 22.2619
L246.5834 22.2619
" />
<path d="M246.4882 22.2619
L246.5358 22.3095
" />
<path d="M246.5358 22.3095
L246.5834 22.4048
" />
<path d="M246.5834 22.4048
L246.5834 22.5476
" />
<path d="M246.5834 22.5476
L246.5358 22.6429
" />
<path d="M246.5358 22.6429
L246.4406 22.6905
" />
<path d="M246.4406 22.6905
L245.9168 22.6905
" />
<path d="M246.4406 22.6905
L246.5358 22.7381
" />
<path d="M246.5358 22.7381
L246.5834 22.8333
" />
<path d="M246.5834 22.8333
L246.5834 22.9762
" />
<path d="M246.5834 22.9762
L246.5358 23.0714
" />
<path d="M246.5358 23.0714
L246.4406 23.1190
" />
<path d="M246.4406 23.1190
L245.9168 23.1190
" />
<path d="M245.9168 23.5952
L246.5834 23.5952
" />
<path d="M246.4882 23.5952
L246.5358 23.6429
" />
<path d="M246.5358 23.6429
L246.5834 23.7381
" />
<path d="M246.5834 23.7381
L246.5834 23.8810
" />
<path d="M246.5834 23.8810
L246.5358 23.9762
" />
<path d="M246.5358 23.9762
L246.4406 24.0238
" />
<path d="M246.4406 24.0238
L245.9168 24.0238
" />
<path d="M246.4406 24.0238
L246.5358 24.0714
" />
<path d="M246.5358 24.0714
L246.5834 24.1667
" />
<path d="M246.5834 24.1667
L246.5834 24.3095
" />
<path d="M246.5834 24.3095
L246.5358 24.4048
" />
<path d="M246.5358 24.4048
L246.4406 24.4524
" />
<path d="M246.4406 24.4524
L245.9168 24.4524
" />
</g></g>
<g style="fill:none; 
stroke:#000000; stroke-width:0.1000; stroke-opacity:1; 
stroke-linecap:round; stroke-linejoin:round;">
<path d="M255.0022 23.0000
L247.9158 23.0000
" />
<path d="M255.0022 20.0000
L247.9158 20.0000
" />
<path d="M248.5022 23.0000
L248.5022 20.0000
" />
<path d="M248.5022 23.0000
L248.5022 20.0000
" />
<path d="M248.5022 23.0000
L249.0886 21.8735
" />
<path d="M248.5022 23.0000
L247.9158 21.8735
" />
<path d="M248.5022 20.0000
L247.9158 21.1265
" />
<path d="M248.5022 20.0000
L249.0886 21.1265
" />
</g>
<g style="fill:none; 
stroke:#000000; stroke-width:0.1500; stroke-opacity:1; 
stroke-linecap:round; stroke-linejoin:round;">
<text x="217.0022" y="51.3500"
textLength="9.8690" font-size="1.3333" lengthAdjust="spacingAndGlyphs"
text-anchor="middle" opacity="0" stroke-opacity="0">25.0000 mm</text>
<g class="stroked-text"><desc>25.0000 mm</desc>
<path d="M212.3832 50.4001
L212.4308 50.3524
" />
<path d="M212.4308 50.3524
L212.5260 50.3048
" />
<path d="M212.5260 50.3048
L212.7641 50.3048
" />
<path d="M212.7641 50.3048
L212.8593 50.3524
" />
<path d="M212.8593 50.3524
L212.9070 50.4001
" />
<path d="M212.9070 50.4001
L212.9546 50.4953
" />
<path d="M212.9546 50.4953
L212.9546 50.5905
" />
<path d="M212.9546 50.5905
L212.9070 50.7334
" />
<path d="M212.9070 50.7334
L212.3355 51.3048
" />
<path d="M212.3355 51.3048
L212.9546 51.3048
" />
<path d="M213.8593 50.3048
L213.3832 50.3048
" />
<path d="M213.3832 50.3048
L213.3355 50.7810
" />
<path d="M213.3355 50.7810
L213.3832 50.7334
" />
<path d="M213.3832 50.7334
L213.4784 50.6858
" />
<path d="M213.4784 50.6858
L213.7165 50.6858
" />
<path d="M213.7165 50.6858
L213.8117 50.7334
" />
<path d="M213.8117 50.7334
L213.8593 50.7810
" />
<path d="M213.8593 50.7810
L213.9070 50.8762
" />
<path d="M213.9070 50.8762
L213.9070 51.1143
" />
<path d="M213.9070 51.1143
L213.8593 51.2096
" />
<path d="M213.8593 51.2096
L213.8117 51.2572
" />
<path d="M213.8117 51.2572
L213.7165 51.3048
" />
<path d="M213.7165 51.3048
L213.4784 51.3048
" />
<path d="M213.4784 51.3048
L213.3832 51.2572
" />
<path d="M213.3832 51.2572
L213.3355 51.2096
" />
<path d="M214.3355 51.2096
L214.3832 51.2572
" />
<path d="M214.3832 51.2572
L214.3355 51.3048
" />
<path d="M214.3355 51.3048
L214.2879 51.2572
" />
<path d="M214.2879 51.2572
L214.3355 51.2096
" />
<path d="M214.3355 51.2096
L214.3355 51.3048
" />
<path d="M215.0022 50.3048
L215.0974 50.3048
" />
<path d="M215.0974 50.3048
L215.1927 50.3524
" />
<path d="M215.1927 50.3524
L215.2403 50.4001
" />
<path d="M215.2403 50.4001
L215.2879 50.4953
" />
<path d="M215.2879 50.4953
L215.3355 50.6858
" />
<path d="M215.3355 50.6858
L215.3355 50.9239
" />
<path d="M215.3355 50.9239
L215.2879 51.1143
" />
<path d="M215.2879 51.1143
L215.2403 51.2096
" />
<path d="M215.2403 51.2096
L215.1927 51.2572
" />
<path d="M215.1927 51.2572
L215.0974 51.3048
" />
<path d="M215.0974 51.3048
L215.0022 51.3048
" />
<path d="M215.0022 51.3048
L214.9070 51.2572
" />
<path d="M214.9070 51.2572
L214.8593 51.2096
" />
<path d="M214.8593 51.2096
L214.8117 51.1143
" />
<path d="M214.8117 51.1143
L214.7641 50.9239
" />
<path d="M214.7641 50.9239
L214.7641 50.6858
" />
<path d="M214.7641 50.6858
L214.8117 50.4953
" />
<path d="M214.8117 50.4953
L214.8593 50.4001
" />
<path d="M214.8593 50.4001
L214.9070 50.3524
" />
<path d="M214.9070 50.3524
L215.0022 50.3048
" />
<path d="M215.9546 50.3048
L216.0498 50.3048
" />
<path d="M216.0498 50.3048
L216.1451 50.3524
" />
<path d="M216.1451 50.3524
L216.1927 50.4001
" />
<path d="M216.1927 50.4001
L216.2403 50.4953
" />
<path d="M216.2403 50.4953
L216.2879 50.6858
" />
<path d="M216.2879 50.6858
L216.2879 50.9239
" />
<path d="M216.2879 50.9239
L216.2403 51.1143
" />
<path d="M216.2403 51.1143
L216.1927 51.2096
" />
<path d="M216.1927 51.2096
L216.1451 51.2572
" />
<path d="M216.1451 51.2572
L216.0498 51.3048
" />
<path d="M216.0498 51.3048
L215.9546 51.3048
" />
<path d="M215.9546 51.3048
L215.8593 51.2572
" />
<path d="M215.8593 51.2572
L215.8117 51.2096
" />
<path d="M215.8117 51.2096
L215.7641 51.1143
" />
<path d="M215.7641 51.1143
L215.7165 50.9239
" />
<path d="M215.7165 50.9239
L215.7165 50.6858
" />
<path d="M215.7165 50.6858
L215.7641 50.4953
" />
<path d="M215.7641 50.4953
L215.8117 50.4001
" />
<path d="M215.8117 50.4001
L215.8593 50.3524
" />
<path d="M215.8593 50.3524
L215.9546 50.3048
" />
<path d="M216.9070 50.3048
L217.0022 50.3048
" />
<path d="M217.0022 50.3048
L217.0974 50.3524
" />
<path d="M217.0974 50.3524
L217.1451 50.4001
" />
<path d="M217.1451 50.4001
L217.1927 50.4953
" />
<path d="M217.1927 50.4953
L217.2403 50.6858
" />
<path d="M217.2403 50.6858
L217.2403 50.9239
" />
<path d="M217.2403 50.9239
L217.1927 51.1143
" />
<path d="M217.1927 51.1143
L217.1451 51.2096
" />
<path d="M217.1451 51.2096
L217.0974 51.2572
" />
<path d="M217.0974 51.2572
L217.0022 51.3048
" />
<path d="M217.0022 51.3048
L216.9070 51.3048
" />
<path d="M216.9070 51.3048
L216.8117 51.2572
" />
<path d="M216.8117 51.2572
L216.7641 51.2096
" />
<path d="M216.7641 51.2096
L216.7165 51.1143
" />
<path d="M216.7165 51.1143
L216.6689 50.9239
" />
<path d="M216.6689 50.9239
L216.6689 50.6858
" />
<path d="M216.6689 50.6858
L216.7165 50.4953
" />
<path d="M216.7165 50.4953
L216.7641 50.4001
" />
<path d="M216.7641 50.4001
L216.8117 50.3524
" />
<path d="M216.8117 50.3524
L216.9070 50.3048
" />
<path d="M217.8593 50.3048
L217.9546 50.3048
" />
<path d="M217.9546 50.3048
L218.0498 50.3524
" />
<path d="M218.0498 50.3524
L218.0974 50.4001
" />
<path d="M218.0974 50.4001
L218.1451 50.4953
" />
<path d="M218.1451 50.4953
L218.1927 50.6858
" />
<path d="M218.1927 50.6858
L218.1927 50.9239
" />
<path d="M218.1927 50.9239
L218.1451 51.1143
" />
<path d="M218.1451 51.1143
L218.0974 51.2096
" />
<path d="M218.0974 51.2096
L218.0498 51.2572
" />
<path d="M218.0498 51.2572
L217.9546 51.3048
" />
<path d="M217.9546 51.3048
L217.8593 51.3048
" />
<path d="M217.8593 51.3048
L217.7641 51.2572
" />
<path d="M217.7641 51.2572
L217.7165 51.2096
" />
<path d="M217.7165 51.2096
L217.6689 51.1143
" />
<path d="M217.6689 51.1143
L217.6212 50.9239
" />
<path d="M217.6212 50.9239
L217.6212 50.6858
" />
<path d="M217.6212 50.6858
L217.6689 50.4953
" />
<path d="M217.6689 50.4953
L217.7165 50.4001
" />
<path d="M217.7165 50.4001
L217.7641 50.3524
" />
<path d="M217.7641 50.3524
L217.8593 50.3048
" />
<path d="M219.3832 51.3048
L219.3832 50.6382
" />
<path d="M219.3832 50.7334
L219.4308 50.6858
" />
<path d="M219.4308 50.6858
L219.5260 50.6382
" />
<path d="M219.5260 50.6382
L219.6689 50.6382
" />
<path d="M219.6689 50.6382
L219.7641 50.6858
" />
<path d="M219.7641 50.6858
L219.8117 50.7810
" />
<path d="M219.8117 50.7810
L219.8117 51.3048
" />
<path d="M219.8117 50.7810
L219.8593 50.6858
" />
<path d="M219.8593 50.6858
L219.9546 50.6382
" />
<path d="M219.9546 50.6382
L220.0974 50.6382
" />
<path d="M220.0974 50.6382
L220.1927 50.6858
" />
<path d="M220.1927 50.6858
L220.2403 50.7810
" />
<path d="M220.2403 50.7810
L220.2403 51.3048
" />
<path d="M220.7165 51.3048
L220.7165 50.6382
" />
<path d="M220.7165 50.7334
L220.7641 50.6858
" />
<path d="M220.7641 50.6858
L220.8593 50.6382
" />
<path d="M220.8593 50.6382
L221.0022 50.6382
" />
<path d="M221.0022 50.6382
L221.0974 50.6858
" />
<path d="M221.0974 50.6858
L221.1451 50.7810
" />
<path d="M221.1451 50.7810
L221.1451 51.3048
" />
<path d="M221.1451 50.7810
L221.1927 50.6858
" />
<path d="M221.1927 50.6858
L221.2879 50.6382
" />
<path d="M221.2879 50.6382
L221.4308 50.6382
" />
<path d="M221.4308 50.6382
L221.5260 50.6858
" />
<path d="M221.5260 50.6858
L221.5736 50.7810
" />
<path d="M221.5736 50.7810
L221.5736 51.3048
" />
</g><path d="M229.5022 48.5000
L229.5022 52.5864
" />
<path d="M204.5022 48.5000
L204.5022 52.5864
" />
<path d="M229.5022 52.0000
L204.5022 52.0000
" />
<path d="M229.5022 52.0000
L204.5022 52.0000
" />
<path d="M229.5022 52.0000
L228.3757 51.4136
" />
<path d="M229.5022 52.0000
L228.3757 52.5864
" />
<path d="M204.5022 52.0000
L205.6287 52.5864
" />
<path d="M204.5022 52.0000
L205.6287 51.4136
" />
<text x="192.0022" y="16.8500"
textLength="5.5833" font-size="1.3333" lengthAdjust="spacingAndGlyphs"
text-anchor="middle" opacity="0" stroke-opacity="0">50 mm</text>
<g class="stroked-text"><desc>50 mm</desc>
<path d="M190.0498 15.8048
L189.5736 15.8048
" />
<path d="M189.5736 15.8048
L189.5260 16.2810
" />
<path d="M189.5260 16.2810
L189.5736 16.2334
" />
<path d="M189.5736 16.2334
L189.6689 16.1858
" />
<path d="M189.6689 16.1858
L189.9070 16.1858
" />
<path d="M189.9070 16.1858
L190.0022 16.2334
" />
<path d="M190.0022 16.2334
L190.0498 16.2810
" />
<path d="M190.0498 16.2810
L190.0974 16.3762
" />
<path d="M190.0974 16.3762
L190.0974 16.6143
" />
<path d="M190.0974 16.6143
L190.0498 16.7096
" />
<path d="M190.0498 16.7096
L190.0022 16.7572
" />
<path d="M190.0022 16.7572
L189.9070 16.8048
" />
<path d="M189.9070 16.8048
L189.6689 16.8048
" />
<path d="M189.6689 16.8048
L189.5736 16.7572
" />
<path d="M189.5736 16.7572
L189.5260 16.7096
" />
<path d="M190.7165 15.8048
L190.8117 15.8048
" />
<path d="M190.8117 15.8048
L190.9070 15.8524
" />
<path d="M190.9070 15.8524
L190.9546 15.9001
" />
<path d="M190.9546 15.9001
L191.0022 15.9953
" />
<path d="M191.0022 15.9953
L191.0498 16.1858
" />
<path d="M191.0498 16.1858
L191.0498 16.4239
" />
<path d="M191.0498 16.4239
L191.0022 16.6143
" />
<path d="M191.0022 16.6143
L190.9546 16.7096
" />
<path d="M190.9546 16.7096
L190.9070 16.7572
" />
<path d="M190.9070 16.7572
L190.8117 16.8048
" />
<path d="M190.8117 16.8048
L190.7165 16.8048
" />
<path d="M190.7165 16.8048
L190.6212 16.7572
" />
<path d="M190.6212 16.7572
L190.5736 16.7096
" />
<path d="M190.5736 16.7096
L190.5260 16.6143
" />
<path d="M190.5260 16.6143
L190.4784 16.4239
" />
<path d="M190.4784 16.4239
L190.4784 16.1858
" />
<path d="M190.4784 16.1858
L190.5260 15.9953
" />
<path d="M190.5260 15.9953
L190.5736 15.9001
" />
<path d="M190.5736 15.9001
L190.6212 15.8524
" />
<path d="M190.6212 15.8524
L190.7165 15.8048
" />
<path d="M192.2403 16.8048
L192.2403 16.1382
" />
<path d="M192.2403 16.2334
L192.2879 16.1858
" />
<path d="M192.2879 16.1858
L192.3832 16.1382
" />
<path d="M192.3832 16.1382
L192.5260 16.1382
" />
<path d="M192.5260 16.1382
L192.6212 16.1858
" />
<path d="M192.6212 16.1858
L192.6689 16.2810
" />
<path d="M192.6689 16.2810
L192.6689 16.8048
" />
<path d="M192.6689 16.2810
L192.7165 16.1858
" />
<path d="M192.7165 16.1858
L192.8117 16.1382
" />
<path d="M192.8117 16.1382
L192.9546 16.1382
" />
<path d="M192.9546 16.1382
L193.0498 16.1858
" />
<path d="M193.0498 16.1858
L193.0974 16.2810
" />
<path d="M193.0974 16.2810
L193.0974 16.8048
" />
<path d="M193.5736 16.8048
L193.5736 16.1382
" />
<path d="M193.5736 16.2334
L193.6212 16.1858
" />
<path d="M193.6212 16.1858
L193.7165 16.1382
" />
<path d="M193.7165 16.1382
L193.8593 16.1382
" />
<path d="M193.8593 16.1382
L193.9546 16.1858
" />
<path d="M193.9546 16.1858
L194.0022 16.2810
" />
<path d="M194.0022 16.2810
L194.0022 16.8048
" />
<path d="M194.0022 16.2810
L194.0498 16.1858
" />
<path d="M194.0498 16.1858
L194.1451 16.1382
" />
<path d="M194.1451 16.1382
L194.2879 16.1382
" />
<path d="M194.2879 16.1382
L194.3832 16.1858
" />
<path d="M194.3832 16.1858
L194.4308 16.2810
" />
<path d="M194.4308 16.2810
L194.4308 16.8048
" />
</g><path d="M217.0022 19.4944
L217.0022 16.9136
" />
<path d="M167.0022 19.4944
L167.0022 16.9136
" />
<path d="M217.0022 17.5000
L167.0022 17.5000
" />
<path d="M217.0022 17.5000
L167.0022 17.5000
" />
<path d="M217.0022 17.5000
L215.8757 16.9136
" />
<path d="M217.0022 17.5000
L215.8757 18.0864
" />
<path d="M167.0022 17.5000
L168.1287 18.0864
" />
<path d="M167.0022 17.5000
L168.1287 16.9136
" />
<text x="192.0022" y="147.1500"
textLength="8.9167" font-size="1.3333" lengthAdjust="spacingAndGlyphs"
text-anchor="middle" opacity="0" stroke-opacity="0">180.84 mm</text>
<g class="stroked-text"><desc>180.84 mm</desc>
<path d="M188.4308 147.1048
L187.8593 147.1048
" />
<path d="M188.1451 147.1048
L188.1451 146.1048
" />
<path d="M188.1451 146.1048
L188.0498 146.2477
" />
<path d="M188.0498 146.2477
L187.9546 146.3429
" />
<path d="M187.9546 146.3429
L187.8593 146.3905
" />
<path d="M189.0022 146.5334
L188.9070 146.4858
" />
<path d="M188.9070 146.4858
L188.8593 146.4382
" />
<path d="M188.8593 146.4382
L188.8117 146.3429
" />
<path d="M188.8117 146.3429
L188.8117 146.2953
" />
<path d="M188.8117 146.2953
L188.8593 146.2001
" />
<path d="M188.8593 146.2001
L188.9070 146.1524
" />
<path d="M188.9070 146.1524
L189.0022 146.1048
" />
<path d="M189.0022 146.1048
L189.1927 146.1048
" />
<path d="M189.1927 146.1048
L189.2879 146.1524
" />
<path d="M189.2879 146.1524
L189.3355 146.2001
" />
<path d="M189.3355 146.2001
L189.3832 146.2953
" />
<path d="M189.3832 146.2953
L189.3832 146.3429
" />
<path d="M189.3832 146.3429
L189.3355 146.4382
" />
<path d="M189.3355 146.4382
L189.2879 146.4858
" />
<path d="M189.2879 146.4858
L189.1927 146.5334
" />
<path d="M189.1927 146.5334
L189.0022 146.5334
" />
<path d="M189.0022 146.5334
L188.9070 146.5810
" />
<path d="M188.9070 146.5810
L188.8593 146.6286
" />
<path d="M188.8593 146.6286
L188.8117 146.7239
" />
<path d="M188.8117 146.7239
L188.8117 146.9143
" />
<path d="M188.8117 146.9143
L188.8593 147.0096
" />
<path d="M188.8593 147.0096
L188.9070 147.0572
" />
<path d="M188.9070 147.0572
L189.0022 147.1048
" />
<path d="M189.0022 147.1048
L189.1927 147.1048
" />
<path d="M189.1927 147.1048
L189.2879 147.0572
" />
<path d="M189.2879 147.0572
L189.3355 147.0096
" />
<path d="M189.3355 147.0096
L189.3832 146.9143
" />
<path d="M189.3832 146.9143
L189.3832 146.7239
" />
<path d="M189.3832 146.7239
L189.3355 146.6286
" />
<path d="M189.3355 146.6286
L189.2879 146.5810
" />
<path d="M189.2879 146.5810
L189.1927 146.5334
" />
<path d="M190.0022 146.1048
L190.0974 146.1048
" />
<path d="M190.0974 146.1048
L190.1927 146.1524
" />
<path d="M190.1927 146.1524
L190.2403 146.2001
" />
<path d="M190.2403 146.2001
L190.2879 146.2953
" />
<path d="M190.2879 146.2953
L190.3355 146.4858
" />
<path d="M190.3355 146.4858
L190.3355 146.7239
" />
<path d="M190.3355 146.7239
L190.2879 146.9143
" />
<path d="M190.2879 146.9143
L190.2403 147.0096
" />
<path d="M190.2403 147.0096
L190.1927 147.0572
" />
<path d="M190.1927 147.0572
L190.0974 147.1048
" />
<path d="M190.0974 147.1048
L190.0022 147.1048
" />
<path d="M190.0022 147.1048
L189.9070 147.0572
" />
<path d="M189.9070 147.0572
L189.8593 147.0096
" />
<path d="M189.8593 147.0096
L189.8117 146.9143
" />
<path d="M189.8117 146.9143
L189.7641 146.7239
" />
<path d="M189.7641 146.7239
L189.7641 146.4858
" />
<path d="M189.7641 146.4858
L189.8117 146.2953
" />
<path d="M189.8117 146.2953
L189.8593 146.2001
" />
<path d="M189.8593 146.2001
L189.9070 146.1524
" />
<path d="M189.9070 146.1524
L190.0022 146.1048
" />
<path d="M190.7641 147.0096
L190.8117 147.0572
" />
<path d="M190.8117 147.0572
L190.7641 147.1048
" />
<path d="M190.7641 147.1048
L190.7165 147.0572
" />
<path d="M190.7165 147.0572
L190.7641 147.0096
" />
<path d="M190.7641 147.0096
L190.7641 147.1048
" />
<path d="M191.3832 146.5334
L191.2879 146.4858
" />
<path d="M191.2879 146.4858
L191.2403 146.4382
" />
<path d="M191.2403 146.4382
L191.1927 146.3429
" />
<path d="M191.1927 146.3429
L191.1927 146.2953
" />
<path d="M191.1927 146.2953
L191.2403 146.2001
" />
<path d="M191.2403 146.2001
L191.2879 146.1524
" />
<path d="M191.2879 146.1524
L191.3832 146.1048
" />
<path d="M191.3832 146.1048
L191.5736 146.1048
" />
<path d="M191.5736 146.1048
L191.6689 146.1524
" />
<path d="M191.6689 146.1524
L191.7165 146.2001
" />
<path d="M191.7165 146.2001
L191.7641 146.2953
" />
<path d="M191.7641 146.2953
L191.7641 146.3429
" />
<path d="M191.7641 146.3429
L191.7165 146.4382
" />
<path d="M191.7165 146.4382
L191.6689 146.4858
" />
<path d="M191.6689 146.4858
L191.5736 146.5334
" />
<path d="M191.5736 146.5334
L191.3832 146.5334
" />
<path d="M191.3832 146.5334
L191.2879 146.5810
" />
<path d="M191.2879 146.5810
L191.2403 146.6286
" />
<path d="M191.2403 146.6286
L191.1927 146.7239
" />
<path d="M191.1927 146.7239
L191.1927 146.9143
" />
<path d="M191.1927 146.9143
L191.2403 147.0096
" />
<path d="M191.2403 147.0096
L191.2879 147.0572
" />
<path d="M191.2879 147.0572
L191.3832 147.1048
" />
<path d="M191.3832 147.1048
L191.5736 147.1048
" />
<path d="M191.5736 147.1048
L191.6689 147.0572
" />
<path d="M191.6689 147.0572
L191.7165 147.0096
" />
<path d="M191.7165 147.0096
L191.7641 146.9143
" />
<path d="M191.7641 146.9143
L191.7641 146.7239
" />
<path d="M191.7641 146.7239
L191.7165 146.6286
" />
<path d="M191.7165 146.6286
L191.6689 146.5810
" />
<path d="M191.6689 146.5810
L191.5736 146.5334
" />
<path d="M192.6212 146.4382
L192.6212 147.1048
" />
<path d="M192.3832 146.0572
L192.1451 146.7715
" />
<path d="M192.1451 146.7715
L192.7641 146.7715
" />
<path d="M193.9070 147.1048
L193.9070 146.4382
" />
<path d="M193.9070 146.5334
L193.9546 146.4858
" />
<path d="M193.9546 146.4858
L194.0498 146.4382
" />
<path d="M194.0498 146.4382
L194.1927 146.4382
" />
<path d="M194.1927 146.4382
L194.2879 146.4858
" />
<path d="M194.2879 146.4858
L194.3355 146.5810
" />
<path d="M194.3355 146.5810
L194.3355 147.1048
" />
<path d="M194.3355 146.5810
L194.3832 146.4858
" />
<path d="M194.3832 146.4858
L194.4784 146.4382
" />
<path d="M194.4784 146.4382
L194.6212 146.4382
" />
<path d="M194.6212 146.4382
L194.7165 146.4858
" />
<path d="M194.7165 146.4858
L194.7641 146.5810
" />
<path d="M194.7641 146.5810
L194.7641 147.1048
" />
<path d="M195.2403 147.1048
L195.2403 146.4382
" />
<path d="M195.2403 146.5334
L195.2879 146.4858
" />
<path d="M195.2879 146.4858
L195.3832 146.4382
" />
<path d="M195.3832 146.4382
L195.5260 146.4382
" />
<path d="M195.5260 146.4382
L195.6212 146.4858
" />
<path d="M195.6212 146.4858
L195.6689 146.5810
" />
<path d="M195.6689 146.5810
L195.6689 147.1048
" />
<path d="M195.6689 146.5810
L195.7165 146.4858
" />
<path d="M195.7165 146.4858
L195.8117 146.4382
" />
<path d="M195.8117 146.4382
L195.9546 146.4382
" />
<path d="M195.9546 146.4382
L196.0498 146.4858
" />
<path d="M196.0498 146.4858
L196.0974 146.5810
" />
<path d="M196.0974 146.5810
L196.0974 147.1048
" />
</g></g>
<g style="fill:none; 
stroke:#000000; stroke-width:0.1000; stroke-opacity:1; 
stroke-linecap:round; stroke-linejoin:round;">
<path d="M101.5822 106.1100
L101.5822 148.3864
" />
<path d="M282.4222 106.1100
L282.4222 148.3864
" />
<path d="M101.5822 147.8000
L282.4222 147.8000
" />
<path d="M101.5822 147.8000
L282.4222 147.8000
" />
<path d="M101.5822 147.8000
L102.7087 148.3864
" />
<path d="M101.5822 147.8000
L102.7087 147.2136
" />
<path d="M282.4222 147.8000
L281.2957 147.2136
" />
<path d="M282.4222 147.8000
L281.2957 148.3864
" />
</g>
<g style="fill:none; 
stroke:#000000; stroke-width:0.1500; stroke-opacity:1; 
stroke-linecap:round; stroke-linejoin:round;">
<g transform="rotate(90.000000 99.1522 93.0000)">
<text x="99.1522" y="93.5000"
textLength="5.5833" font-size="1.3333" lengthAdjust="spacingAndGlyphs"
text-anchor="middle" opacity="0" stroke-opacity="0">52 mm</text>
</g>
<g class="stroked-text"><desc>52 mm</desc>
<path d="M99.6974 91.0476
L99.6974 90.5714
" />
<path d="M99.6974 90.5714
L99.2212 90.5238
" />
<path d="M99.2212 90.5238
L99.2688 90.5714
" />
<path d="M99.2688 90.5714
L99.3164 90.6667
" />
<path d="M99.3164 90.6667
L99.3164 90.9048
" />
<path d="M99.3164 90.9048
L99.2688 91.0000
" />
<path d="M99.2688 91.0000
L99.2212 91.0476
" />
<path d="M99.2212 91.0476
L99.1260 91.0952
" />
<path d="M99.1260 91.0952
L98.8879 91.0952
" />
<path d="M98.8879 91.0952
L98.7926 91.0476
" />
<path d="M98.7926 91.0476
L98.7450 91.0000
" />
<path d="M98.7450 91.0000
L98.6974 90.9048
" />
<path d="M98.6974 90.9048
L98.6974 90.6667
" />
<path d="M98.6974 90.6667
L98.7450 90.5714
" />
<path d="M98.7450 90.5714
L98.7926 90.5238
" />
<path d="M99.6021 91.4762
L99.6498 91.5238
" />
<path d="M99.6498 91.5238
L99.6974 91.6190
" />
<path d="M99.6974 91.6190
L99.6974 91.8571
" />
<path d="M99.6974 91.8571
L99.6498 91.9524
" />
<path d="M99.6498 91.9524
L99.6021 92.0000
" />
<path d="M99.6021 92.0000
L99.5069 92.0476
" />
<path d="M99.5069 92.0476
L99.4117 92.0476
" />
<path d="M99.4117 92.0476
L99.2688 92.0000
" />
<path d="M99.2688 92.0000
L98.6974 91.4286
" />
<path d="M98.6974 91.4286
L98.6974 92.0476
" />
<path d="M98.6974 93.2381
L99.3640 93.2381
" />
<path d="M99.2688 93.2381
L99.3164 93.2857
" />
<path d="M99.3164 93.2857
L99.3640 93.3810
" />
<path d="M99.3640 93.3810
L99.3640 93.5238
" />
<path d="M99.3640 93.5238
L99.3164 93.6190
" />
<path d="M99.3164 93.6190
L99.2212 93.6667
" />
<path d="M99.2212 93.6667
L98.6974 93.6667
" />
<path d="M99.2212 93.6667
L99.3164 93.7143
" />
<path d="M99.3164 93.7143
L99.3640 93.8095
" />
<path d="M99.3640 93.8095
L99.3640 93.9524
" />
<path d="M99.3640 93.9524
L99.3164 94.0476
" />
<path d="M99.3164 94.0476
L99.2212 94.0952
" />
<path d="M99.2212 94.0952
L98.6974 94.0952
" />
<path d="M98.6974 94.5714
L99.3640 94.5714
" />
<path d="M99.2688 94.5714
L99.3164 94.6190
" />
<path d="M99.3164 94.6190
L99.3640 94.7143
" />
<path d="M99.3640 94.7143
L99.3640 94.8571
" />
<path d="M99.3640 94.8571
L99.3164 94.9524
" />
<path d="M99.3164 94.9524
L99.2212 95.0000
" />
<path d="M99.2212 95.0000
L98.6974 95.0000
" />
<path d="M99.2212 95.0000
L99.3164 95.0476
" />
<path d="M99.3164 95.0476
L99.3640 95.1429
" />
<path d="M99.3640 95.1429
L99.3640 95.2857
" />
<path d="M99.3640 95.2857
L99.3164 95.3810
" />
<path d="M99.3164 95.3810
L99.2212 95.4286
" />
<path d="M99.2212 95.4286
L98.6974 95.4286
" />
</g><path d="M116.5022 67.0000
L97.4158 67.0000
" />
<path d="M116.5022 119.0000
L97.4158 119.0000
" />
<path d="M98.0022 67.0000
L98.0022 119.0000
" />
<path d="M98.0022 67.0000
L98.0022 119.0000
" />
<path d="M98.0022 67.0000
L97.4158 68.1265
" />
<path d="M98.0022 67.0000
L98.5886 68.1265
" />
<path d="M98.0022 119.0000
L98.5886 117.8735
" />
<path d="M98.0022 119.0000
L97.4158 117.8735
" />
<g transform="rotate(90.000000 96.9522 75.5000)">
<text x="96.9522" y="76.0000"
textLength="6.5357" font-size="1.3333" lengthAdjust="spacingAndGlyphs"
text-anchor="middle" opacity="0" stroke-opacity="0">111 mm</text>
</g>
<g class="stroked-text"><desc>111 mm</desc>
<path d="M96.4974 73.1190
L96.4974 72.5476
" />
<path d="M96.4974 72.8333
L97.4974 72.8333
" />
<path d="M97.4974 72.8333
L97.3545 72.7381
" />
<path d="M97.3545 72.7381
L97.2593 72.6429
" />
<path d="M97.2593 72.6429
L97.2117 72.5476
" />
<path d="M96.4974 74.0714
L96.4974 73.5000
" />
<path d="M96.4974 73.7857
L97.4974 73.7857
" />
<path d="M97.4974 73.7857
L97.3545 73.6905
" />
<path d="M97.3545 73.6905
L97.2593 73.5952
" />
<path d="M97.2593 73.5952
L97.2117 73.5000
" />
<path d="M96.4974 75.0238
L96.4974 74.4524
" />
<path d="M96.4974 74.7381
L97.4974 74.7381
" />
<path d="M97.4974 74.7381
L97.3545 74.6429
" />
<path d="M97.3545 74.6429
L97.2593 74.5476
" />
<path d="M97.2593 74.5476
L97.2117 74.4524
" />
<path d="M96.4974 76.2143
L97.1640 76.2143
" />
<path d="M97.0688 76.2143
L97.1164 76.2619
" />
<path d="M97.1164 76.2619
L97.1640 76.3571
" />
<path d="M97.1640 76.3571
L97.1640 76.5000
" />
<path d="M97.1640 76.5000
L97.1164 76.5952
" />
<path d="M97.1164 76.5952
L97.0212 76.6429
" />
<path d="M97.0212 76.6429
L96.4974 76.6429
" />
<path d="M97.0212 76.6429
L97.1164 76.6905
" />
<path d="M97.1164 76.6905
L97.1640 76.7857
" />
<path d="M97.1640 76.7857
L97.1640 76.9286
" />
<path d="M97.1640 76.9286
L97.1164 77.0238
" />
<path d="M97.1164 77.0238
L97.0212 77.0714
" />
<path d="M97.0212 77.0714
L96.4974 77.0714
" />
<path d="M96.4974 77.5476
L97.1640 77.5476
" />
<path d="M97.0688 77.5476
L97.1164 77.5952
" />
<path d="M97.1164 77.5952
L97.1640 77.6905
" />
<path d="M97.1640 77.6905
L97.1640 77.8333
" />
<path d="M97.1640 77.8333
L97.1164 77.9286
" />
<path d="M97.1164 77.9286
L97.0212 77.9762
" />
<path d="M97.0212 77.9762
L96.4974 77.9762
" />
<path d="M97.0212 77.9762
L97.1164 78.0238
" />
<path d="M97.1164 78.0238
L97.1640 78.1190
" />
<path d="M97.1640 78.1190
L97.1640 78.2619
" />
<path d="M97.1640 78.2619
L97.1164 78.3571
" />
<path d="M97.1164 78.3571
L97.0212 78.4048
" />
<path d="M97.0212 78.4048
L96.4974 78.4048
" />
</g><path d="M109.5022 20.0000
L95.2158 20.0000
" />
<path d="M109.5022 131.0000
L95.2158 131.0000
" />
<path d="M95.8022 20.0000
L95.8022 131.0000
" />
<path d="M95.8022 20.0000
L95.8022 131.0000
" />
<path d="M95.8022 20.0000
L95.2158 21.1265
" />
<path d="M95.8022 20.0000
L96.3886 21.1265
" />
<path d="M95.8022 131.0000
L96.3886 129.8735
" />
<path d="M95.8022 131.0000
L95.2158 129.8735
" />
<text x="192.0022" y="144.4000"
textLength="6.5357" font-size="1.3333" lengthAdjust="spacingAndGlyphs"
text-anchor="middle" opacity="0" stroke-opacity="0">174 mm</text>
<g class="stroked-text"><desc>174 mm</desc>
<path d="M189.6212 144.3548
L189.0498 144.3548
" />
<path d="M189.3355 144.3548
L189.3355 143.3548
" />
<path d="M189.3355 143.3548
L189.2403 143.4977
" />
<path d="M189.2403 143.4977
L189.1451 143.5929
" />
<path d="M189.1451 143.5929
L189.0498 143.6405
" />
<path d="M189.9546 143.3548
L190.6212 143.3548
" />
<path d="M190.6212 143.3548
L190.1927 144.3548
" />
<path d="M191.4308 143.6882
L191.4308 144.3548
" />
<path d="M191.1927 143.3072
L190.9546 144.0215
" />
<path d="M190.9546 144.0215
L191.5736 144.0215
" />
<path d="M192.7165 144.3548
L192.7165 143.6882
" />
<path d="M192.7165 143.7834
L192.7641 143.7358
" />
<path d="M192.7641 143.7358
L192.8593 143.6882
" />
<path d="M192.8593 143.6882
L193.0022 143.6882
" />
<path d="M193.0022 143.6882
L193.0974 143.7358
" />
<path d="M193.0974 143.7358
L193.1451 143.8310
" />
<path d="M193.1451 143.8310
L193.1451 144.3548
" />
<path d="M193.1451 143.8310
L193.1927 143.7358
" />
<path d="M193.1927 143.7358
L193.2879 143.6882
" />
<path d="M193.2879 143.6882
L193.4308 143.6882
" />
<path d="M193.4308 143.6882
L193.5260 143.7358
" />
<path d="M193.5260 143.7358
L193.5736 143.8310
" />
<path d="M193.5736 143.8310
L193.5736 144.3548
" />
<path d="M194.0498 144.3548
L194.0498 143.6882
" />
<path d="M194.0498 143.7834
L194.0974 143.7358
" />
<path d="M194.0974 143.7358
L194.1927 143.6882
" />
<path d="M194.1927 143.6882
L194.3355 143.6882
" />
<path d="M194.3355 143.6882
L194.4308 143.7358
" />
<path d="M194.4308 143.7358
L194.4784 143.8310
" />
<path d="M194.4784 143.8310
L194.4784 144.3548
" />
<path d="M194.4784 143.8310
L194.5260 143.7358
" />
<path d="M194.5260 143.7358
L194.6212 143.6882
" />
<path d="M194.6212 143.6882
L194.7641 143.6882
" />
<path d="M194.7641 143.6882
L194.8593 143.7358
" />
<path d="M194.8593 143.7358
L194.9070 143.8310
" />
<path d="M194.9070 143.8310
L194.9070 144.3548
" />
</g><path d="M279.0022 125.5000
L279.0022 145.6364
" />
<path d="M105.0022 125.5000
L105.0022 145.6364
" />
<path d="M279.0022 145.0500
L105.0022 145.0500
" />
<path d="M279.0022 145.0500
L105.0022 145.0500
" />
<path d="M279.0022 145.0500
L277.8757 144.4636
" />
<path d="M279.0022 145.0500
L277.8757 145.6364
" />
<path d="M105.0022 145.0500
L106.1287 145.6364
" />
<path d="M105.0022 145.0500
L106.1287 144.4636
" />
<g transform="rotate(359.954527 191.9945 13.4000)">
<text x="191.9945" y="13.9000"
textLength="6.5357" font-size="1.3333" lengthAdjust="spacingAndGlyphs"
text-anchor="middle" opacity="0" stroke-opacity="0">126 mm</text>
</g>
<g class="stroked-text"><desc>126 mm</desc>
<path d="M189.6140 13.8567
L189.0425 13.8572
" />
<path d="M189.3282 13.8569
L189.3274 12.8569
" />
<path d="M189.3274 12.8569
L189.2323 12.9999
" />
<path d="M189.2323 12.9999
L189.1372 13.0952
" />
<path d="M189.1372 13.0952
L189.0420 13.1429
" />
<path d="M189.9942 12.9516
L190.0418 12.9040
" />
<path d="M190.0418 12.9040
L190.1370 12.8563
" />
<path d="M190.1370 12.8563
L190.3751 12.8561
" />
<path d="M190.3751 12.8561
L190.4703 12.9036
" />
<path d="M190.4703 12.9036
L190.5180 12.9512
" />
<path d="M190.5180 12.9512
L190.5657 13.0464
" />
<path d="M190.5657 13.0464
L190.5658 13.1417
" />
<path d="M190.5658 13.1417
L190.5183 13.2846
" />
<path d="M190.5183 13.2846
L189.9473 13.8564
" />
<path d="M189.9473 13.8564
L190.5663 13.8560
" />
<path d="M191.4227 12.8553
L191.2322 12.8554
" />
<path d="M191.2322 12.8554
L191.1370 12.9031
" />
<path d="M191.1370 12.9031
L191.0894 12.9508
" />
<path d="M191.0894 12.9508
L190.9943 13.0937
" />
<path d="M190.9943 13.0937
L190.9468 13.2842
" />
<path d="M190.9468 13.2842
L190.9471 13.6652
" />
<path d="M190.9471 13.6652
L190.9948 13.7604
" />
<path d="M190.9948 13.7604
L191.0425 13.8080
" />
<path d="M191.0425 13.8080
L191.1378 13.8555
" />
<path d="M191.1378 13.8555
L191.3282 13.8554
" />
<path d="M191.3282 13.8554
L191.4234 13.8077
" />
<path d="M191.4234 13.8077
L191.4710 13.7600
" />
<path d="M191.4710 13.7600
L191.5186 13.6647
" />
<path d="M191.5186 13.6647
L191.5184 13.4266
" />
<path d="M191.5184 13.4266
L191.4707 13.3314
" />
<path d="M191.4707 13.3314
L191.4230 13.2838
" />
<path d="M191.4230 13.2838
L191.3277 13.2363
" />
<path d="M191.3277 13.2363
L191.1373 13.2365
" />
<path d="M191.1373 13.2365
L191.0421 13.2841
" />
<path d="M191.0421 13.2841
L190.9945 13.3318
" />
<path d="M190.9945 13.3318
L190.9469 13.4271
" />
<path d="M192.7092 13.8543
L192.7087 13.1876
" />
<path d="M192.7087 13.2828
L192.7563 13.2352
" />
<path d="M192.7563 13.2352
L192.8515 13.1875
" />
<path d="M192.8515 13.1875
L192.9944 13.1874
" />
<path d="M192.9944 13.1874
L193.0896 13.2349
" />
<path d="M193.0896 13.2349
L193.1373 13.3301
" />
<path d="M193.1373 13.3301
L193.1378 13.8539
" />
<path d="M193.1373 13.3301
L193.1849 13.2348
" />
<path d="M193.1849 13.2348
L193.2801 13.1871
" />
<path d="M193.2801 13.1871
L193.4229 13.1870
" />
<path d="M193.4229 13.1870
L193.5182 13.2346
" />
<path d="M193.5182 13.2346
L193.5659 13.3298
" />
<path d="M193.5659 13.3298
L193.5663 13.8536
" />
<path d="M194.0425 13.8532
L194.0420 13.1865
" />
<path d="M194.0421 13.2818
L194.0896 13.2341
" />
<path d="M194.0896 13.2341
L194.1848 13.1864
" />
<path d="M194.1848 13.1864
L194.3277 13.1863
" />
<path d="M194.3277 13.1863
L194.4230 13.2338
" />
<path d="M194.4230 13.2338
L194.4707 13.3290
" />
<path d="M194.4707 13.3290
L194.4711 13.8529
" />
<path d="M194.4707 13.3290
L194.5182 13.2338
" />
<path d="M194.5182 13.2338
L194.6134 13.1861
" />
<path d="M194.6134 13.1861
L194.7563 13.1860
" />
<path d="M194.7563 13.1860
L194.8516 13.2335
" />
<path d="M194.8516 13.2335
L194.8992 13.3287
" />
<path d="M194.8992 13.3287
L194.8997 13.8525
" />
</g><path d="M255.0018 22.5000
L254.9950 13.9136
" />
<path d="M129.0018 22.6000
L128.9950 14.0136
" />
<path d="M254.9955 14.5000
L128.9955 14.6000
" />
<path d="M254.9955 14.5000
L128.9955 14.6000
" />
<path d="M254.9955 14.5000
L253.8685 13.9145
" />
<path d="M254.9955 14.5000
L253.8694 15.0873
" />
<path d="M128.9955 14.6000
L130.1224 15.1855
" />
<path d="M128.9955 14.6000
L130.1215 14.0127
" />
<g transform="rotate(180.000000 177.0022 20.8500)">
<text x="177.0022" y="21.3500"
textLength="7.5357" font-size="1.3333" lengthAdjust="spacingAndGlyphs"
text-anchor="middle" opacity="0" stroke-opacity="0">PCB edge</text>
</g>
<g class="stroked-text"><desc>PCB edge</desc>
<path d="M180.4070 20.3952
L180.4070 21.3952
" />
<path d="M180.4070 21.3952
L180.0260 21.3952
" />
<path d="M180.0260 21.3952
L179.9308 21.3476
" />
<path d="M179.9308 21.3476
L179.8832 21.2999
" />
<path d="M179.8832 21.2999
L179.8355 21.2047
" />
<path d="M179.8355 21.2047
L179.8355 21.0618
" />
<path d="M179.8355 21.0618
L179.8832 20.9666
" />
<path d="M179.8832 20.9666
L179.9308 20.9190
" />
<path d="M179.9308 20.9190
L180.0260 20.8714
" />
<path d="M180.0260 20.8714
L180.4070 20.8714
" />
<path d="M178.8355 20.4904
L178.8832 20.4428
" />
<path d="M178.8832 20.4428
L179.0260 20.3952
" />
<path d="M179.0260 20.3952
L179.1212 20.3952
" />
<path d="M179.1212 20.3952
L179.2641 20.4428
" />
<path d="M179.2641 20.4428
L179.3593 20.5380
" />
<path d="M179.3593 20.5380
L179.4070 20.6333
" />
<path d="M179.4070 20.6333
L179.4546 20.8238
" />
<path d="M179.4546 20.8238
L179.4546 20.9666
" />
<path d="M179.4546 20.9666
L179.4070 21.1571
" />
<path d="M179.4070 21.1571
L179.3593 21.2523
" />
<path d="M179.3593 21.2523
L179.2641 21.3476
" />
<path d="M179.2641 21.3476
L179.1212 21.3952
" />
<path d="M179.1212 21.3952
L179.0260 21.3952
" />
<path d="M179.0260 21.3952
L178.8832 21.3476
" />
<path d="M178.8832 21.3476
L178.8355 21.2999
" />
<path d="M178.0736 20.9190
L177.9308 20.8714
" />
<path d="M177.9308 20.8714
L177.8832 20.8238
" />
<path d="M177.8832 20.8238
L177.8355 20.7285
" />
<path d="M177.8355 20.7285
L177.8355 20.5857
" />
<path d="M177.8355 20.5857
L177.8832 20.4904
" />
<path d="M177.8832 20.4904
L177.9308 20.4428
" />
<path d="M177.9308 20.4428
L178.0260 20.3952
" />
<path d="M178.0260 20.3952
L178.4070 20.3952
" />
<path d="M178.4070 20.3952
L178.4070 21.3952
" />
<path d="M178.4070 21.3952
L178.0736 21.3952
" />
<path d="M178.0736 21.3952
L177.9784 21.3476
" />
<path d="M177.9784 21.3476
L177.9308 21.2999
" />
<path d="M177.9308 21.2999
L177.8832 21.2047
" />
<path d="M177.8832 21.2047
L177.8832 21.1095
" />
<path d="M177.8832 21.1095
L177.9308 21.0142
" />
<path d="M177.9308 21.0142
L177.9784 20.9666
" />
<path d="M177.9784 20.9666
L178.0736 20.9190
" />
<path d="M178.0736 20.9190
L178.4070 20.9190
" />
<path d="M176.2641 20.4428
L176.3593 20.3952
" />
<path d="M176.3593 20.3952
L176.5498 20.3952
" />
<path d="M176.5498 20.3952
L176.6451 20.4428
" />
<path d="M176.6451 20.4428
L176.6927 20.5380
" />
<path d="M176.6927 20.5380
L176.6927 20.9190
" />
<path d="M176.6927 20.9190
L176.6451 21.0142
" />
<path d="M176.6451 21.0142
L176.5498 21.0618
" />
<path d="M176.5498 21.0618
L176.3593 21.0618
" />
<path d="M176.3593 21.0618
L176.2641 21.0142
" />
<path d="M176.2641 21.0142
L176.2165 20.9190
" />
<path d="M176.2165 20.9190
L176.2165 20.8238
" />
<path d="M176.2165 20.8238
L176.6927 20.7285
" />
<path d="M175.3593 20.3952
L175.3593 21.3952
" />
<path d="M175.3593 20.4428
L175.4546 20.3952
" />
<path d="M175.4546 20.3952
L175.6451 20.3952
" />
<path d="M175.6451 20.3952
L175.7403 20.4428
" />
<path d="M175.7403 20.4428
L175.7879 20.4904
" />
<path d="M175.7879 20.4904
L175.8355 20.5857
" />
<path d="M175.8355 20.5857
L175.8355 20.8714
" />
<path d="M175.8355 20.8714
L175.7879 20.9666
" />
<path d="M175.7879 20.9666
L175.7403 21.0142
" />
<path d="M175.7403 21.0142
L175.6451 21.0618
" />
<path d="M175.6451 21.0618
L175.4546 21.0618
" />
<path d="M175.4546 21.0618
L175.3593 21.0142
" />
<path d="M174.4546 21.0618
L174.4546 20.2523
" />
<path d="M174.4546 20.2523
L174.5022 20.1571
" />
<path d="M174.5022 20.1571
L174.5498 20.1095
" />
<path d="M174.5498 20.1095
L174.6451 20.0618
" />
<path d="M174.6451 20.0618
L174.7879 20.0618
" />
<path d="M174.7879 20.0618
L174.8832 20.1095
" />
<path d="M174.4546 20.4428
L174.5498 20.3952
" />
<path d="M174.5498 20.3952
L174.7403 20.3952
" />
<path d="M174.7403 20.3952
L174.8355 20.4428
" />
<path d="M174.8355 20.4428
L174.8832 20.4904
" />
<path d="M174.8832 20.4904
L174.9308 20.5857
" />
<path d="M174.9308 20.5857
L174.9308 20.8714
" />
<path d="M174.9308 20.8714
L174.8832 20.9666
" />
<path d="M174.8832 20.9666
L174.8355 21.0142
" />
<path d="M174.8355 21.0142
L174.7403 21.0618
" />
<path d="M174.7403 21.0618
L174.5498 21.0618
" />
<path d="M174.5498 21.0618
L174.4546 21.0142
" />
<path d="M173.5974 20.4428
L173.6927 20.3952
" />
<path d="M173.6927 20.3952
L173.8832 20.3952
" />
<path d="M173.8832 20.3952
L173.9784 20.4428
" />
<path d="M173.9784 20.4428
L174.0260 20.5380
" />
<path d="M174.0260 20.5380
L174.0260 20.9190
" />
<path d="M174.0260 20.9190
L173.9784 21.0142
" />
<path d="M173.9784 21.0142
L173.8832 21.0618
" />
<path d="M173.8832 21.0618
L173.6927 21.0618
" />
<path d="M173.6927 21.0618
L173.5974 21.0142
" />
<path d="M173.5974 21.0142
L173.5498 20.9190
" />
<path d="M173.5498 20.9190
L173.5498 20.8238
" />
<path d="M173.5498 20.8238
L174.0260 20.7285
" />
</g><g transform="rotate(180.000000 207.0077 20.8500)">
<text x="207.0077" y="21.3500"
textLength="7.5357" font-size="1.3333" lengthAdjust="spacingAndGlyphs"
text-anchor="middle" opacity="0" stroke-opacity="0">PCB edge</text>
</g>
<g class="stroked-text"><desc>PCB edge</desc>
<path d="M210.4125 20.3952
L210.4125 21.3952
" />
<path d="M210.4125 21.3952
L210.0315 21.3952
" />
<path d="M210.0315 21.3952
L209.9363 21.3476
" />
<path d="M209.9363 21.3476
L209.8887 21.2999
" />
<path d="M209.8887 21.2999
L209.8410 21.2047
" />
<path d="M209.8410 21.2047
L209.8410 21.0618
" />
<path d="M209.8410 21.0618
L209.8887 20.9666
" />
<path d="M209.8887 20.9666
L209.9363 20.9190
" />
<path d="M209.9363 20.9190
L210.0315 20.8714
" />
<path d="M210.0315 20.8714
L210.4125 20.8714
" />
<path d="M208.8410 20.4904
L208.8887 20.4428
" />
<path d="M208.8887 20.4428
L209.0315 20.3952
" />
<path d="M209.0315 20.3952
L209.1267 20.3952
" />
<path d="M209.1267 20.3952
L209.2696 20.4428
" />
<path d="M209.2696 20.4428
L209.3648 20.5380
" />
<path d="M209.3648 20.5380
L209.4125 20.6333
" />
<path d="M209.4125 20.6333
L209.4601 20.8238
" />
<path d="M209.4601 20.8238
L209.4601 20.9666
" />
<path d="M209.4601 20.9666
L209.4125 21.1571
" />
<path d="M209.4125 21.1571
L209.3648 21.2523
" />
<path d="M209.3648 21.2523
L209.2696 21.3476
" />
<path d="M209.2696 21.3476
L209.1267 21.3952
" />
<path d="M209.1267 21.3952
L209.0315 21.3952
" />
<path d="M209.0315 21.3952
L208.8887 21.3476
" />
<path d="M208.8887 21.3476
L208.8410 21.2999
" />
<path d="M208.0791 20.9190
L207.9363 20.8714
" />
<path d="M207.9363 20.8714
L207.8887 20.8238
" />
<path d="M207.8887 20.8238
L207.8410 20.7285
" />
<path d="M207.8410 20.7285
L207.8410 20.5857
" />
<path d="M207.8410 20.5857
L207.8887 20.4904
" />
<path d="M207.8887 20.4904
L207.9363 20.4428
" />
<path d="M207.9363 20.4428
L208.0315 20.3952
" />
<path d="M208.0315 20.3952
L208.4125 20.3952
" />
<path d="M208.4125 20.3952
L208.4125 21.3952
" />
<path d="M208.4125 21.3952
L208.0791 21.3952
" />
<path d="M208.0791 21.3952
L207.9839 21.3476
" />
<path d="M207.9839 21.3476
L207.9363 21.2999
" />
<path d="M207.9363 21.2999
L207.8887 21.2047
" />
<path d="M207.8887 21.2047
L207.8887 21.1095
" />
<path d="M207.8887 21.1095
L207.9363 21.0142
" />
<path d="M207.9363 21.0142
L207.9839 20.9666
" />
<path d="M207.9839 20.9666
L208.0791 20.9190
" />
<path d="M208.0791 20.9190
L208.4125 20.9190
" />
<path d="M206.2696 20.4428
L206.3648 20.3952
" />
<path d="M206.3648 20.3952
L206.5553 20.3952
" />
<path d="M206.5553 20.3952
L206.6506 20.4428
" />
<path d="M206.6506 20.4428
L206.6982 20.5380
" />
<path d="M206.6982 20.5380
L206.6982 20.9190
" />
<path d="M206.6982 20.9190
L206.6506 21.0142
" />
<path d="M206.6506 21.0142
L206.5553 21.0618
" />
<path d="M206.5553 21.0618
L206.3648 21.0618
" />
<path d="M206.3648 21.0618
L206.2696 21.0142
" />
<path d="M206.2696 21.0142
L206.2220 20.9190
" />
<path d="M206.2220 20.9190
L206.2220 20.8238
" />
<path d="M206.2220 20.8238
L206.6982 20.7285
" />
<path d="M205.3648 20.3952
L205.3648 21.3952
" />
<path d="M205.3648 20.4428
L205.4601 20.3952
" />
<path d="M205.4601 20.3952
L205.6506 20.3952
" />
<path d="M205.6506 20.3952
L205.7458 20.4428
" />
<path d="M205.7458 20.4428
L205.7934 20.4904
" />
<path d="M205.7934 20.4904
L205.8410 20.5857
" />
<path d="M205.8410 20.5857
L205.8410 20.8714
" />
<path d="M205.8410 20.8714
L205.7934 20.9666
" />
<path d="M205.7934 20.9666
L205.7458 21.0142
" />
<path d="M205.7458 21.0142
L205.6506 21.0618
" />
<path d="M205.6506 21.0618
L205.4601 21.0618
" />
<path d="M205.4601 21.0618
L205.3648 21.0142
" />
<path d="M204.4601 21.0618
L204.4601 20.2523
" />
<path d="M204.4601 20.2523
L204.5077 20.1571
" />
<path d="M204.5077 20.1571
L204.5553 20.1095
" />
<path d="M204.5553 20.1095
L204.6506 20.0618
" />
<path d="M204.6506 20.0618
L204.7934 20.0618
" />
<path d="M204.7934 20.0618
L204.8887 20.1095
" />
<path d="M204.4601 20.4428
L204.5553 20.3952
" />
<path d="M204.5553 20.3952
L204.7458 20.3952
" />
<path d="M204.7458 20.3952
L204.8410 20.4428
" />
<path d="M204.8410 20.4428
L204.8887 20.4904
" />
<path d="M204.8887 20.4904
L204.9363 20.5857
" />
<path d="M204.9363 20.5857
L204.9363 20.8714
" />
<path d="M204.9363 20.8714
L204.8887 20.9666
" />
<path d="M204.8887 20.9666
L204.8410 21.0142
" />
<path d="M204.8410 21.0142
L204.7458 21.0618
" />
<path d="M204.7458 21.0618
L204.5553 21.0618
" />
<path d="M204.5553 21.0618
L204.4601 21.0142
" />
<path d="M203.6029 20.4428
L203.6982 20.3952
" />
<path d="M203.6982 20.3952
L203.8887 20.3952
" />
<path d="M203.8887 20.3952
L203.9839 20.4428
" />
<path d="M203.9839 20.4428
L204.0315 20.5380
" />
<path d="M204.0315 20.5380
L204.0315 20.9190
" />
<path d="M204.0315 20.9190
L203.9839 21.0142
" />
<path d="M203.9839 21.0142
L203.8887 21.0618
" />
<path d="M203.8887 21.0618
L203.6982 21.0618
" />
<path d="M203.6982 21.0618
L203.6029 21.0142
" />
<path d="M203.6029 21.0142
L203.5553 20.9190
" />
<path d="M203.5553 20.9190
L203.5553 20.8238
" />
<path d="M203.5553 20.8238
L204.0315 20.7285
" />
</g><text x="153.5222" y="55.8556"
textLength="5.5833" font-size="1.3333" lengthAdjust="spacingAndGlyphs"
text-anchor="middle" opacity="0" stroke-opacity="0">49 mm</text>
<g class="stroked-text"><desc>49 mm</desc>
<path d="M151.5222 55.1438
L151.5222 55.8104
" />
<path d="M151.2841 54.7628
L151.0460 55.4771
" />
<path d="M151.0460 55.4771
L151.6651 55.4771
" />
<path d="M152.0936 55.8104
L152.2841 55.8104
" />
<path d="M152.2841 55.8104
L152.3793 55.7628
" />
<path d="M152.3793 55.7628
L152.4270 55.7152
" />
<path d="M152.4270 55.7152
L152.5222 55.5723
" />
<path d="M152.5222 55.5723
L152.5698 55.3818
" />
<path d="M152.5698 55.3818
L152.5698 55.0009
" />
<path d="M152.5698 55.0009
L152.5222 54.9057
" />
<path d="M152.5222 54.9057
L152.4746 54.8580
" />
<path d="M152.4746 54.8580
L152.3793 54.8104
" />
<path d="M152.3793 54.8104
L152.1889 54.8104
" />
<path d="M152.1889 54.8104
L152.0936 54.8580
" />
<path d="M152.0936 54.8580
L152.0460 54.9057
" />
<path d="M152.0460 54.9057
L151.9984 55.0009
" />
<path d="M151.9984 55.0009
L151.9984 55.2390
" />
<path d="M151.9984 55.2390
L152.0460 55.3342
" />
<path d="M152.0460 55.3342
L152.0936 55.3818
" />
<path d="M152.0936 55.3818
L152.1889 55.4295
" />
<path d="M152.1889 55.4295
L152.3793 55.4295
" />
<path d="M152.3793 55.4295
L152.4746 55.3818
" />
<path d="M152.4746 55.3818
L152.5222 55.3342
" />
<path d="M152.5222 55.3342
L152.5698 55.2390
" />
<path d="M153.7603 55.8104
L153.7603 55.1438
" />
<path d="M153.7603 55.2390
L153.8079 55.1914
" />
<path d="M153.8079 55.1914
L153.9032 55.1438
" />
<path d="M153.9032 55.1438
L154.0460 55.1438
" />
<path d="M154.0460 55.1438
L154.1412 55.1914
" />
<path d="M154.1412 55.1914
L154.1889 55.2866
" />
<path d="M154.1889 55.2866
L154.1889 55.8104
" />
<path d="M154.1889 55.2866
L154.2365 55.1914
" />
<path d="M154.2365 55.1914
L154.3317 55.1438
" />
<path d="M154.3317 55.1438
L154.4746 55.1438
" />
<path d="M154.4746 55.1438
L154.5698 55.1914
" />
<path d="M154.5698 55.1914
L154.6174 55.2866
" />
<path d="M154.6174 55.2866
L154.6174 55.8104
" />
<path d="M155.0936 55.8104
L155.0936 55.1438
" />
<path d="M155.0936 55.2390
L155.1412 55.1914
" />
<path d="M155.1412 55.1914
L155.2365 55.1438
" />
<path d="M155.2365 55.1438
L155.3793 55.1438
" />
<path d="M155.3793 55.1438
L155.4746 55.1914
" />
<path d="M155.4746 55.1914
L155.5222 55.2866
" />
<path d="M155.5222 55.2866
L155.5222 55.8104
" />
<path d="M155.5222 55.2866
L155.5698 55.1914
" />
<path d="M155.5698 55.1914
L155.6651 55.1438
" />
<path d="M155.6651 55.1438
L155.8079 55.1438
" />
<path d="M155.8079 55.1438
L155.9032 55.1914
" />
<path d="M155.9032 55.1914
L155.9508 55.2866
" />
<path d="M155.9508 55.2866
L155.9508 55.8104
" />
</g><g transform="rotate(90.000000 190.6722 92.5056)">
<text x="190.6722" y="93.0056"
textLength="5.5833" font-size="1.3333" lengthAdjust="spacingAndGlyphs"
text-anchor="middle" opacity="0" stroke-opacity="0">58 mm</text>
</g>
<g class="stroked-text"><desc>58 mm</desc>
<path d="M191.2174 90.5532
L191.2174 90.0770
" />
<path d="M191.2174 90.0770
L190.7412 90.0294
" />
<path d="M190.7412 90.0294
L190.7888 90.0770
" />
<path d="M190.7888 90.0770
L190.8364 90.1723
" />
<path d="M190.8364 90.1723
L190.8364 90.4104
" />
<path d="M190.8364 90.4104
L190.7888 90.5056
" />
<path d="M190.7888 90.5056
L190.7412 90.5532
" />
<path d="M190.7412 90.5532
L190.6460 90.6008
" />
<path d="M190.6460 90.6008
L190.4079 90.6008
" />
<path d="M190.4079 90.6008
L190.3126 90.5532
" />
<path d="M190.3126 90.5532
L190.2650 90.5056
" />
<path d="M190.2650 90.5056
L190.2174 90.4104
" />
<path d="M190.2174 90.4104
L190.2174 90.1723
" />
<path d="M190.2174 90.1723
L190.2650 90.0770
" />
<path d="M190.2650 90.0770
L190.3126 90.0294
" />
<path d="M190.7888 91.1723
L190.8364 91.0770
" />
<path d="M190.8364 91.0770
L190.8840 91.0294
" />
<path d="M190.8840 91.0294
L190.9793 90.9818
" />
<path d="M190.9793 90.9818
L191.0269 90.9818
" />
<path d="M191.0269 90.9818
L191.1221 91.0294
" />
<path d="M191.1221 91.0294
L191.1698 91.0770
" />
<path d="M191.1698 91.0770
L191.2174 91.1723
" />
<path d="M191.2174 91.1723
L191.2174 91.3627
" />
<path d="M191.2174 91.3627
L191.1698 91.4580
" />
<path d="M191.1698 91.4580
L191.1221 91.5056
" />
<path d="M191.1221 91.5056
L191.0269 91.5532
" />
<path d="M191.0269 91.5532
L190.9793 91.5532
" />
<path d="M190.9793 91.5532
L190.8840 91.5056
" />
<path d="M190.8840 91.5056
L190.8364 91.4580
" />
<path d="M190.8364 91.4580
L190.7888 91.3627
" />
<path d="M190.7888 91.3627
L190.7888 91.1723
" />
<path d="M190.7888 91.1723
L190.7412 91.0770
" />
<path d="M190.7412 91.0770
L190.6936 91.0294
" />
<path d="M190.6936 91.0294
L190.5983 90.9818
" />
<path d="M190.5983 90.9818
L190.4079 90.9818
" />
<path d="M190.4079 90.9818
L190.3126 91.0294
" />
<path d="M190.3126 91.0294
L190.2650 91.0770
" />
<path d="M190.2650 91.0770
L190.2174 91.1723
" />
<path d="M190.2174 91.1723
L190.2174 91.3627
" />
<path d="M190.2174 91.3627
L190.2650 91.4580
" />
<path d="M190.2650 91.4580
L190.3126 91.5056
" />
<path d="M190.3126 91.5056
L190.4079 91.5532
" />
<path d="M190.4079 91.5532
L190.5983 91.5532
" />
<path d="M190.5983 91.5532
L190.6936 91.5056
" />
<path d="M190.6936 91.5056
L190.7412 91.4580
" />
<path d="M190.7412 91.4580
L190.7888 91.3627
" />
<path d="M190.2174 92.7437
L190.8840 92.7437
" />
<path d="M190.7888 92.7437
L190.8364 92.7913
" />
<path d="M190.8364 92.7913
L190.8840 92.8866
" />
<path d="M190.8840 92.8866
L190.8840 93.0294
" />
<path d="M190.8840 93.0294
L190.8364 93.1246
" />
<path d="M190.8364 93.1246
L190.7412 93.1723
" />
<path d="M190.7412 93.1723
L190.2174 93.1723
" />
<path d="M190.7412 93.1723
L190.8364 93.2199
" />
<path d="M190.8364 93.2199
L190.8840 93.3151
" />
<path d="M190.8840 93.3151
L190.8840 93.4580
" />
<path d="M190.8840 93.4580
L190.8364 93.5532
" />
<path d="M190.8364 93.5532
L190.7412 93.6008
" />
<path d="M190.7412 93.6008
L190.2174 93.6008
" />
<path d="M190.2174 94.0770
L190.8840 94.0770
" />
<path d="M190.7888 94.0770
L190.8364 94.1246
" />
<path d="M190.8364 94.1246
L190.8840 94.2199
" />
<path d="M190.8840 94.2199
L190.8840 94.3627
" />
<path d="M190.8840 94.3627
L190.8364 94.4580
" />
<path d="M190.8364 94.4580
L190.7412 94.5056
" />
<path d="M190.7412 94.5056
L190.2174 94.5056
" />
<path d="M190.7412 94.5056
L190.8364 94.5532
" />
<path d="M190.8364 94.5532
L190.8840 94.6485
" />
<path d="M190.8840 94.6485
L190.8840 94.7913
" />
<path d="M190.8840 94.7913
L190.8364 94.8866
" />
<path d="M190.8364 94.8866
L190.7412 94.9342
" />
<path d="M190.7412 94.9342
L190.2174 94.9342
" />
</g><g transform="rotate(90.000000 195.1722 92.5056)">
<text x="195.1722" y="93.0056"
textLength="5.5833" font-size="1.3333" lengthAdjust="spacingAndGlyphs"
text-anchor="middle" opacity="0" stroke-opacity="0">65 mm</text>
</g>
<g class="stroked-text"><desc>65 mm</desc>
<path d="M195.7174 90.5056
L195.7174 90.3151
" />
<path d="M195.7174 90.3151
L195.6698 90.2199
" />
<path d="M195.6698 90.2199
L195.6221 90.1723
" />
<path d="M195.6221 90.1723
L195.4793 90.0770
" />
<path d="M195.4793 90.0770
L195.2888 90.0294
" />
<path d="M195.2888 90.0294
L194.9079 90.0294
" />
<path d="M194.9079 90.0294
L194.8126 90.0770
" />
<path d="M194.8126 90.0770
L194.7650 90.1246
" />
<path d="M194.7650 90.1246
L194.7174 90.2199
" />
<path d="M194.7174 90.2199
L194.7174 90.4104
" />
<path d="M194.7174 90.4104
L194.7650 90.5056
" />
<path d="M194.7650 90.5056
L194.8126 90.5532
" />
<path d="M194.8126 90.5532
L194.9079 90.6008
" />
<path d="M194.9079 90.6008
L195.1460 90.6008
" />
<path d="M195.1460 90.6008
L195.2412 90.5532
" />
<path d="M195.2412 90.5532
L195.2888 90.5056
" />
<path d="M195.2888 90.5056
L195.3364 90.4104
" />
<path d="M195.3364 90.4104
L195.3364 90.2199
" />
<path d="M195.3364 90.2199
L195.2888 90.1246
" />
<path d="M195.2888 90.1246
L195.2412 90.0770
" />
<path d="M195.2412 90.0770
L195.1460 90.0294
" />
<path d="M195.7174 91.5056
L195.7174 91.0294
" />
<path d="M195.7174 91.0294
L195.2412 90.9818
" />
<path d="M195.2412 90.9818
L195.2888 91.0294
" />
<path d="M195.2888 91.0294
L195.3364 91.1246
" />
<path d="M195.3364 91.1246
L195.3364 91.3627
" />
<path d="M195.3364 91.3627
L195.2888 91.4580
" />
<path d="M195.2888 91.4580
L195.2412 91.5056
" />
<path d="M195.2412 91.5056
L195.1460 91.5532
" />
<path d="M195.1460 91.5532
L194.9079 91.5532
" />
<path d="M194.9079 91.5532
L194.8126 91.5056
" />
<path d="M194.8126 91.5056
L194.7650 91.4580
" />
<path d="M194.7650 91.4580
L194.7174 91.3627
" />
<path d="M194.7174 91.3627
L194.7174 91.1246
" />
<path d="M194.7174 91.1246
L194.7650 91.0294
" />
<path d="M194.7650 91.0294
L194.8126 90.9818
" />
<path d="M194.7174 92.7437
L195.3840 92.7437
" />
<path d="M195.2888 92.7437
L195.3364 92.7913
" />
<path d="M195.3364 92.7913
L195.3840 92.8866
" />
<path d="M195.3840 92.8866
L195.3840 93.0294
" />
<path d="M195.3840 93.0294
L195.3364 93.1246
" />
<path d="M195.3364 93.1246
L195.2412 93.1723
" />
<path d="M195.2412 93.1723
L194.7174 93.1723
" />
<path d="M195.2412 93.1723
L195.3364 93.2199
" />
<path d="M195.3364 93.2199
L195.3840 93.3151
" />
<path d="M195.3840 93.3151
L195.3840 93.4580
" />
<path d="M195.3840 93.4580
L195.3364 93.5532
" />
<path d="M195.3364 93.5532
L195.2412 93.6008
" />
<path d="M195.2412 93.6008
L194.7174 93.6008
" />
<path d="M194.7174 94.0770
L195.3840 94.0770
" />
<path d="M195.2888 94.0770
L195.3364 94.1246
" />
<path d="M195.3364 94.1246
L195.3840 94.2199
" />
<path d="M195.3840 94.2199
L195.3840 94.3627
" />
<path d="M195.3840 94.3627
L195.3364 94.4580
" />
<path d="M195.3364 94.4580
L195.2412 94.5056
" />
<path d="M195.2412 94.5056
L194.7174 94.5056
" />
<path d="M195.2412 94.5056
L195.3364 94.5532
" />
<path d="M195.3364 94.5532
L195.3840 94.6485
" />
<path d="M195.3840 94.6485
L195.3840 94.7913
" />
<path d="M195.3840 94.7913
L195.3364 94.8866
" />
<path d="M195.3364 94.8866
L195.2412 94.9342
" />
<path d="M195.2412 94.9342
L194.7174 94.9342
" />
</g><g transform="rotate(90.000000 186.6722 78.0056)">
<text x="186.6722" y="78.5056"
textLength="5.5833" font-size="1.3333" lengthAdjust="spacingAndGlyphs"
text-anchor="middle" opacity="0" stroke-opacity="0">29 mm</text>
</g>
<g class="stroked-text"><desc>29 mm</desc>
<path d="M187.1221 75.5294
L187.1698 75.5770
" />
<path d="M187.1698 75.5770
L187.2174 75.6723
" />
<path d="M187.2174 75.6723
L187.2174 75.9104
" />
<path d="M187.2174 75.9104
L187.1698 76.0056
" />
<path d="M187.1698 76.0056
L187.1221 76.0532
" />
<path d="M187.1221 76.0532
L187.0269 76.1008
" />
<path d="M187.0269 76.1008
L186.9317 76.1008
" />
<path d="M186.9317 76.1008
L186.7888 76.0532
" />
<path d="M186.7888 76.0532
L186.2174 75.4818
" />
<path d="M186.2174 75.4818
L186.2174 76.1008
" />
<path d="M186.2174 76.5770
L186.2174 76.7675
" />
<path d="M186.2174 76.7675
L186.2650 76.8627
" />
<path d="M186.2650 76.8627
L186.3126 76.9104
" />
<path d="M186.3126 76.9104
L186.4555 77.0056
" />
<path d="M186.4555 77.0056
L186.6460 77.0532
" />
<path d="M186.6460 77.0532
L187.0269 77.0532
" />
<path d="M187.0269 77.0532
L187.1221 77.0056
" />
<path d="M187.1221 77.0056
L187.1698 76.9580
" />
<path d="M187.1698 76.9580
L187.2174 76.8627
" />
<path d="M187.2174 76.8627
L187.2174 76.6723
" />
<path d="M187.2174 76.6723
L187.1698 76.5770
" />
<path d="M187.1698 76.5770
L187.1221 76.5294
" />
<path d="M187.1221 76.5294
L187.0269 76.4818
" />
<path d="M187.0269 76.4818
L186.7888 76.4818
" />
<path d="M186.7888 76.4818
L186.6936 76.5294
" />
<path d="M186.6936 76.5294
L186.6460 76.5770
" />
<path d="M186.6460 76.5770
L186.5983 76.6723
" />
<path d="M186.5983 76.6723
L186.5983 76.8627
" />
<path d="M186.5983 76.8627
L186.6460 76.9580
" />
<path d="M186.6460 76.9580
L186.6936 77.0056
" />
<path d="M186.6936 77.0056
L186.7888 77.0532
" />
<path d="M186.2174 78.2437
L186.8840 78.2437
" />
<path d="M186.7888 78.2437
L186.8364 78.2913
" />
<path d="M186.8364 78.2913
L186.8840 78.3866
" />
<path d="M186.8840 78.3866
L186.8840 78.5294
" />
<path d="M186.8840 78.5294
L186.8364 78.6246
" />
<path d="M186.8364 78.6246
L186.7412 78.6723
" />
<path d="M186.7412 78.6723
L186.2174 78.6723
" />
<path d="M186.7412 78.6723
L186.8364 78.7199
" />
<path d="M186.8364 78.7199
L186.8840 78.8151
" />
<path d="M186.8840 78.8151
L186.8840 78.9580
" />
<path d="M186.8840 78.9580
L186.8364 79.0532
" />
<path d="M186.8364 79.0532
L186.7412 79.1008
" />
<path d="M186.7412 79.1008
L186.2174 79.1008
" />
<path d="M186.2174 79.5770
L186.8840 79.5770
" />
<path d="M186.7888 79.5770
L186.8364 79.6246
" />
<path d="M186.8364 79.6246
L186.8840 79.7199
" />
<path d="M186.8840 79.7199
L186.8840 79.8627
" />
<path d="M186.8840 79.8627
L186.8364 79.9580
" />
<path d="M186.8364 79.9580
L186.7412 80.0056
" />
<path d="M186.7412 80.0056
L186.2174 80.0056
" />
<path d="M186.7412 80.0056
L186.8364 80.0532
" />
<path d="M186.8364 80.0532
L186.8840 80.1485
" />
<path d="M186.8840 80.1485
L186.8840 80.2913
" />
<path d="M186.8840 80.2913
L186.8364 80.3866
" />
<path d="M186.8364 80.3866
L186.7412 80.4342
" />
<path d="M186.7412 80.4342
L186.2174 80.4342
" />
</g><text x="126.0222" y="55.0056"
textLength="6.0595" font-size="1.3333" lengthAdjust="spacingAndGlyphs"
text-anchor="middle" opacity="0" stroke-opacity="0">3.5 mm</text>
<g class="stroked-text"><desc>3.5 mm</desc>
<path d="M123.2603 53.9604
L123.8793 53.9604
" />
<path d="M123.8793 53.9604
L123.5460 54.3414
" />
<path d="M123.5460 54.3414
L123.6889 54.3414
" />
<path d="M123.6889 54.3414
L123.7841 54.3890
" />
<path d="M123.7841 54.3890
L123.8317 54.4366
" />
<path d="M123.8317 54.4366
L123.8793 54.5318
" />
<path d="M123.8793 54.5318
L123.8793 54.7699
" />
<path d="M123.8793 54.7699
L123.8317 54.8652
" />
<path d="M123.8317 54.8652
L123.7841 54.9128
" />
<path d="M123.7841 54.9128
L123.6889 54.9604
" />
<path d="M123.6889 54.9604
L123.4032 54.9604
" />
<path d="M123.4032 54.9604
L123.3079 54.9128
" />
<path d="M123.3079 54.9128
L123.2603 54.8652
" />
<path d="M124.3079 54.8652
L124.3555 54.9128
" />
<path d="M124.3555 54.9128
L124.3079 54.9604
" />
<path d="M124.3079 54.9604
L124.2603 54.9128
" />
<path d="M124.2603 54.9128
L124.3079 54.8652
" />
<path d="M124.3079 54.8652
L124.3079 54.9604
" />
<path d="M125.2603 53.9604
L124.7841 53.9604
" />
<path d="M124.7841 53.9604
L124.7365 54.4366
" />
<path d="M124.7365 54.4366
L124.7841 54.3890
" />
<path d="M124.7841 54.3890
L124.8793 54.3414
" />
<path d="M124.8793 54.3414
L125.1174 54.3414
" />
<path d="M125.1174 54.3414
L125.2127 54.3890
" />
<path d="M125.2127 54.3890
L125.2603 54.4366
" />
<path d="M125.2603 54.4366
L125.3079 54.5318
" />
<path d="M125.3079 54.5318
L125.3079 54.7699
" />
<path d="M125.3079 54.7699
L125.2603 54.8652
" />
<path d="M125.2603 54.8652
L125.2127 54.9128
" />
<path d="M125.2127 54.9128
L125.1174 54.9604
" />
<path d="M125.1174 54.9604
L124.8793 54.9604
" />
<path d="M124.8793 54.9604
L124.7841 54.9128
" />
<path d="M124.7841 54.9128
L124.7365 54.8652
" />
<path d="M126.4984 54.9604
L126.4984 54.2938
" />
<path d="M126.4984 54.3890
L126.5460 54.3414
" />
<path d="M126.5460 54.3414
L126.6412 54.2938
" />
<path d="M126.6412 54.2938
L126.7841 54.2938
" />
<path d="M126.7841 54.2938
L126.8793 54.3414
" />
<path d="M126.8793 54.3414
L126.9270 54.4366
" />
<path d="M126.9270 54.4366
L126.9270 54.9604
" />
<path d="M126.9270 54.4366
L126.9746 54.3414
" />
<path d="M126.9746 54.3414
L127.0698 54.2938
" />
<path d="M127.0698 54.2938
L127.2127 54.2938
" />
<path d="M127.2127 54.2938
L127.3079 54.3414
" />
<path d="M127.3079 54.3414
L127.3555 54.4366
" />
<path d="M127.3555 54.4366
L127.3555 54.9604
" />
<path d="M127.8317 54.9604
L127.8317 54.2938
" />
<path d="M127.8317 54.3890
L127.8793 54.3414
" />
<path d="M127.8793 54.3414
L127.9746 54.2938
" />
<path d="M127.9746 54.2938
L128.1174 54.2938
" />
<path d="M128.1174 54.2938
L128.2127 54.3414
" />
<path d="M128.2127 54.3414
L128.2603 54.4366
" />
<path d="M128.2603 54.4366
L128.2603 54.9604
" />
<path d="M128.2603 54.4366
L128.3079 54.3414
" />
<path d="M128.3079 54.3414
L128.4032 54.2938
" />
<path d="M128.4032 54.2938
L128.5460 54.2938
" />
<path d="M128.5460 54.2938
L128.6412 54.3414
" />
<path d="M128.6412 54.3414
L128.6889 54.4366
" />
<path d="M128.6889 54.4366
L128.6889 54.9604
" />
</g></g>
<g style="fill:none; 
stroke:#000000; stroke-width:0.1000; stroke-opacity:1; 
stroke-linecap:round; stroke-linejoin:round;">
<circle cx="178.0222" cy="92.5056" r="0.2540" /> 
</g>
<g style="fill:none; 
stroke:#000000; stroke-width:0.1500; stroke-opacity:1; 
stroke-linecap:round; stroke-linejoin:round;">
<text x="153.5222" y="55.8556"
textLength="5.5833" font-size="1.3333" lengthAdjust="spacingAndGlyphs"
text-anchor="middle" opacity="0" stroke-opacity="0">49 mm</text>
<g class="stroked-text"><desc>49 mm</desc>
<path d="M151.5222 55.1438
L151.5222 55.8104
" />
<path d="M151.2841 54.7628
L151.0460 55.4771
" />
<path d="M151.0460 55.4771
L151.6651 55.4771
" />
<path d="M152.0936 55.8104
L152.2841 55.8104
" />
<path d="M152.2841 55.8104
L152.3793 55.7628
" />
<path d="M152.3793 55.7628
L152.4270 55.7152
" />
<path d="M152.4270 55.7152
L152.5222 55.5723
" />
<path d="M152.5222 55.5723
L152.5698 55.3818
" />
<path d="M152.5698 55.3818
L152.5698 55.0009
" />
<path d="M152.5698 55.0009
L152.5222 54.9057
" />
<path d="M152.5222 54.9057
L152.4746 54.8580
" />
<path d="M152.4746 54.8580
L152.3793 54.8104
" />
<path d="M152.3793 54.8104
L152.1889 54.8104
" />
<path d="M152.1889 54.8104
L152.0936 54.8580
" />
<path d="M152.0936 54.8580
L152.0460 54.9057
" />
<path d="M152.0460 54.9057
L151.9984 55.0009
" />
<path d="M151.9984 55.0009
L151.9984 55.2390
" />
<path d="M151.9984 55.2390
L152.0460 55.3342
" />
<path d="M152.0460 55.3342
L152.0936 55.3818
" />
<path d="M152.0936 55.3818
L152.1889 55.4295
" />
<path d="M152.1889 55.4295
L152.3793 55.4295
" />
<path d="M152.3793 55.4295
L152.4746 55.3818
" />
<path d="M152.4746 55.3818
L152.5222 55.3342
" />
<path d="M152.5222 55.3342
L152.5698 55.2390
" />
<path d="M153.7603 55.8104
L153.7603 55.1438
" />
<path d="M153.7603 55.2390
L153.8079 55.1914
" />
<path d="M153.8079 55.1914
L153.9032 55.1438
" />
<path d="M153.9032 55.1438
L154.0460 55.1438
" />
<path d="M154.0460 55.1438
L154.1412 55.1914
" />
<path d="M154.1412 55.1914
L154.1889 55.2866
" />
<path d="M154.1889 55.2866
L154.1889 55.8104
" />
<path d="M154.1889 55.2866
L154.2365 55.1914
" />
<path d="M154.2365 55.1914
L154.3317 55.1438
" />
<path d="M154.3317 55.1438
L154.4746 55.1438
" />
<path d="M154.4746 55.1438
L154.5698 55.1914
" />
<path d="M154.5698 55.1914
L154.6174 55.2866
" />
<path d="M154.6174 55.2866
L154.6174 55.8104
" />
<path d="M155.0936 55.8104
L155.0936 55.1438
" />
<path d="M155.0936 55.2390
L155.1412 55.1914
" />
<path d="M155.1412 55.1914
L155.2365 55.1438
" />
<path d="M155.2365 55.1438
L155.3793 55.1438
" />
<path d="M155.3793 55.1438
L155.4746 55.1914
" />
<path d="M155.4746 55.1914
L155.5222 55.2866
" />
<path d="M155.5222 55.2866
L155.5222 55.8104
" />
<path d="M155.5222 55.2866
L155.5698 55.1914
" />
<path d="M155.5698 55.1914
L155.6651 55.1438
" />
<path d="M155.6651 55.1438
L155.8079 55.1438
" />
<path d="M155.8079 55.1438
L155.9032 55.1914
" />
<path d="M155.9032 55.1914
L155.9508 55.2866
" />
<path d="M155.9508 55.2866
L155.9508 55.8104
" />
</g></g>
<g style="fill:none; 
stroke:#000000; stroke-width:0.1000; stroke-opacity:1; 
stroke-linecap:round; stroke-linejoin:round;">
<path d="M178.0222 63.0056
L178.0222 55.9192
" />
<path d="M129.0222 63.0056
L129.0222 55.9192
" />
<path d="M178.0222 56.5056
L129.0222 56.5056
" />
<path d="M178.0222 56.5056
L129.0222 56.5056
" />
<path d="M178.0222 56.5056
L176.8957 55.9192
" />
<path d="M178.0222 56.5056
L176.8957 57.0920
" />
<path d="M129.0222 56.5056
L130.1487 57.0920
" />
<path d="M129.0222 56.5056
L130.1487 55.9192
" />
</g>
<g style="fill:none; 
stroke:#000000; stroke-width:0.1500; stroke-opacity:1; 
stroke-linecap:round; stroke-linejoin:round;">
<g transform="rotate(90.000000 190.6722 92.5056)">
<text x="190.6722" y="93.0056"
textLength="5.5833" font-size="1.3333" lengthAdjust="spacingAndGlyphs"
text-anchor="middle" opacity="0" stroke-opacity="0">58 mm</text>
</g>
<g class="stroked-text"><desc>58 mm</desc>
<path d="M191.2174 90.5532
L191.2174 90.0770
" />
<path d="M191.2174 90.0770
L190.7412 90.0294
" />
<path d="M190.7412 90.0294
L190.7888 90.0770
" />
<path d="M190.7888 90.0770
L190.8364 90.1723
" />
<path d="M190.8364 90.1723
L190.8364 90.4104
" />
<path d="M190.8364 90.4104
L190.7888 90.5056
" />
<path d="M190.7888 90.5056
L190.7412 90.5532
" />
<path d="M190.7412 90.5532
L190.6460 90.6008
" />
<path d="M190.6460 90.6008
L190.4079 90.6008
" />
<path d="M190.4079 90.6008
L190.3126 90.5532
" />
<path d="M190.3126 90.5532
L190.2650 90.5056
" />
<path d="M190.2650 90.5056
L190.2174 90.4104
" />
<path d="M190.2174 90.4104
L190.2174 90.1723
" />
<path d="M190.2174 90.1723
L190.2650 90.0770
" />
<path d="M190.2650 90.0770
L190.3126 90.0294
" />
<path d="M190.7888 91.1723
L190.8364 91.0770
" />
<path d="M190.8364 91.0770
L190.8840 91.0294
" />
<path d="M190.8840 91.0294
L190.9793 90.9818
" />
<path d="M190.9793 90.9818
L191.0269 90.9818
" />
<path d="M191.0269 90.9818
L191.1221 91.0294
" />
<path d="M191.1221 91.0294
L191.1698 91.0770
" />
<path d="M191.1698 91.0770
L191.2174 91.1723
" />
<path d="M191.2174 91.1723
L191.2174 91.3627
" />
<path d="M191.2174 91.3627
L191.1698 91.4580
" />
<path d="M191.1698 91.4580
L191.1221 91.5056
" />
<path d="M191.1221 91.5056
L191.0269 91.5532
" />
<path d="M191.0269 91.5532
L190.9793 91.5532
" />
<path d="M190.9793 91.5532
L190.8840 91.5056
" />
<path d="M190.8840 91.5056
L190.8364 91.4580
" />
<path d="M190.8364 91.4580
L190.7888 91.3627
" />
<path d="M190.7888 91.3627
L190.7888 91.1723
" />
<path d="M190.7888 91.1723
L190.7412 91.0770
" />
<path d="M190.7412 91.0770
L190.6936 91.0294
" />
<path d="M190.6936 91.0294
L190.5983 90.9818
" />
<path d="M190.5983 90.9818
L190.4079 90.9818
" />
<path d="M190.4079 90.9818
L190.3126 91.0294
" />
<path d="M190.3126 91.0294
L190.2650 91.0770
" />
<path d="M190.2650 91.0770
L190.2174 91.1723
" />
<path d="M190.2174 91.1723
L190.2174 91.3627
" />
<path d="M190.2174 91.3627
L190.2650 91.4580
" />
<path d="M190.2650 91.4580
L190.3126 91.5056
" />
<path d="M190.3126 91.5056
L190.4079 91.5532
" />
<path d="M190.4079 91.5532
L190.5983 91.5532
" />
<path d="M190.5983 91.5532
L190.6936 91.5056
" />
<path d="M190.6936 91.5056
L190.7412 91.4580
" />
<path d="M190.7412 91.4580
L190.7888 91.3627
" />
<path d="M190.2174 92.7437
L190.8840 92.7437
" />
<path d="M190.7888 92.7437
L190.8364 92.7913
" />
<path d="M190.8364 92.7913
L190.8840 92.8866
" />
<path d="M190.8840 92.8866
L190.8840 93.0294
" />
<path d="M190.8840 93.0294
L190.8364 93.1246
" />
<path d="M190.8364 93.1246
L190.7412 93.1723
" />
<path d="M190.7412 93.1723
L190.2174 93.1723
" />
<path d="M190.7412 93.1723
L190.8364 93.2199
" />
<path d="M190.8364 93.2199
L190.8840 93.3151
" />
<path d="M190.8840 93.3151
L190.8840 93.4580
" />
<path d="M190.8840 93.4580
L190.8364 93.5532
" />
<path d="M190.8364 93.5532
L190.7412 93.6008
" />
<path d="M190.7412 93.6008
L190.2174 93.6008
" />
<path d="M190.2174 94.0770
L190.8840 94.0770
" />
<path d="M190.7888 94.0770
L190.8364 94.1246
" />
<path d="M190.8364 94.1246
L190.8840 94.2199
" />
<path d="M190.8840 94.2199
L190.8840 94.3627
" />
<path d="M190.8840 94.3627
L190.8364 94.4580
" />
<path d="M190.8364 94.4580
L190.7412 94.5056
" />
<path d="M190.7412 94.5056
L190.2174 94.5056
" />
<path d="M190.7412 94.5056
L190.8364 94.5532
" />
<path d="M190.8364 94.5532
L190.8840 94.6485
" />
<path d="M190.8840 94.6485
L190.8840 94.7913
" />
<path d="M190.8840 94.7913
L190.8364 94.8866
" />
<path d="M190.8364 94.8866
L190.7412 94.9342
" />
<path d="M190.7412 94.9342
L190.2174 94.9342
" />
</g></g>
<g style="fill:none; 
stroke:#000000; stroke-width:0.1000; stroke-opacity:1; 
stroke-linecap:round; stroke-linejoin:round;">
<path d="M178.5222 63.5056
L190.1086 63.5056
" />
<path d="M178.5222 121.5056
L190.1086 121.5056
" />
<path d="M189.5222 63.5056
L189.5222 121.5056
" />
<path d="M189.5222 63.5056
L189.5222 121.5056
" />
<path d="M189.5222 63.5056
L188.9358 64.6321
" />
<path d="M189.5222 63.5056
L190.1086 64.6321
" />
<path d="M189.5222 121.5056
L190.1086 120.3791
" />
<path d="M189.5222 121.5056
L188.9358 120.3791
" />
</g>
<g style="fill:none; 
stroke:#000000; stroke-width:0.1500; stroke-opacity:1; 
stroke-linecap:round; stroke-linejoin:round;">
<g transform="rotate(90.000000 195.1722 92.5056)">
<text x="195.1722" y="93.0056"
textLength="5.5833" font-size="1.3333" lengthAdjust="spacingAndGlyphs"
text-anchor="middle" opacity="0" stroke-opacity="0">65 mm</text>
</g>
<g class="stroked-text"><desc>65 mm</desc>
<path d="M195.7174 90.5056
L195.7174 90.3151
" />
<path d="M195.7174 90.3151
L195.6698 90.2199
" />
<path d="M195.6698 90.2199
L195.6221 90.1723
" />
<path d="M195.6221 90.1723
L195.4793 90.0770
" />
<path d="M195.4793 90.0770
L195.2888 90.0294
" />
<path d="M195.2888 90.0294
L194.9079 90.0294
" />
<path d="M194.9079 90.0294
L194.8126 90.0770
" />
<path d="M194.8126 90.0770
L194.7650 90.1246
" />
<path d="M194.7650 90.1246
L194.7174 90.2199
" />
<path d="M194.7174 90.2199
L194.7174 90.4104
" />
<path d="M194.7174 90.4104
L194.7650 90.5056
" />
<path d="M194.7650 90.5056
L194.8126 90.5532
" />
<path d="M194.8126 90.5532
L194.9079 90.6008
" />
<path d="M194.9079 90.6008
L195.1460 90.6008
" />
<path d="M195.1460 90.6008
L195.2412 90.5532
" />
<path d="M195.2412 90.5532
L195.2888 90.5056
" />
<path d="M195.2888 90.5056
L195.3364 90.4104
" />
<path d="M195.3364 90.4104
L195.3364 90.2199
" />
<path d="M195.3364 90.2199
L195.2888 90.1246
" />
<path d="M195.2888 90.1246
L195.2412 90.0770
" />
<path d="M195.2412 90.0770
L195.1460 90.0294
" />
<path d="M195.7174 91.5056
L195.7174 91.0294
" />
<path d="M195.7174 91.0294
L195.2412 90.9818
" />
<path d="M195.2412 90.9818
L195.2888 91.0294
" />
<path d="M195.2888 91.0294
L195.3364 91.1246
" />
<path d="M195.3364 91.1246
L195.3364 91.3627
" />
<path d="M195.3364 91.3627
L195.2888 91.4580
" />
<path d="M195.2888 91.4580
L195.2412 91.5056
" />
<path d="M195.2412 91.5056
L195.1460 91.5532
" />
<path d="M195.1460 91.5532
L194.9079 91.5532
" />
<path d="M194.9079 91.5532
L194.8126 91.5056
" />
<path d="M194.8126 91.5056
L194.7650 91.4580
" />
<path d="M194.7650 91.4580
L194.7174 91.3627
" />
<path d="M194.7174 91.3627
L194.7174 91.1246
" />
<path d="M194.7174 91.1246
L194.7650 91.0294
" />
<path d="M194.7650 91.0294
L194.8126 90.9818
" />
<path d="M194.7174 92.7437
L195.3840 92.7437
" />
<path d="M195.2888 92.7437
L195.3364 92.7913
" />
<path d="M195.3364 92.7913
L195.3840 92.8866
" />
<path d="M195.3840 92.8866
L195.3840 93.0294
" />
<path d="M195.3840 93.0294
L195.3364 93.1246
" />
<path d="M195.3364 93.1246
L195.2412 93.1723
" />
<path d="M195.2412 93.1723
L194.7174 93.1723
" />
<path d="M195.2412 93.1723
L195.3364 93.2199
" />
<path d="M195.3364 93.2199
L195.3840 93.3151
" />
<path d="M195.3840 93.3151
L195.3840 93.4580
" />
<path d="M195.3840 93.4580
L195.3364 93.5532
" />
<path d="M195.3364 93.5532
L195.2412 93.6008
" />
<path d="M195.2412 93.6008
L194.7174 93.6008
" />
<path d="M194.7174 94.0770
L195.3840 94.0770
" />
<path d="M195.2888 94.0770
L195.3364 94.1246
" />
<path d="M195.3364 94.1246
L195.3840 94.2199
" />
<path d="M195.3840 94.2199
L195.3840 94.3627
" />
<path d="M195.3840 94.3627
L195.3364 94.4580
" />
<path d="M195.3364 94.4580
L195.2412 94.5056
" />
<path d="M195.2412 94.5056
L194.7174 94.5056
" />
<path d="M195.2412 94.5056
L195.3364 94.5532
" />
<path d="M195.3364 94.5532
L195.3840 94.6485
" />
<path d="M195.3840 94.6485
L195.3840 94.7913
" />
<path d="M195.3840 94.7913
L195.3364 94.8866
" />
<path d="M195.3364 94.8866
L195.2412 94.9342
" />
<path d="M195.2412 94.9342
L194.7174 94.9342
" />
</g></g>
<g style="fill:none; 
stroke:#000000; stroke-width:0.1000; stroke-opacity:1; 
stroke-linecap:round; stroke-linejoin:round;">
<path d="M178.5222 125.0056
L194.6086 125.0056
" />
<path d="M178.5222 60.0056
L194.6086 60.0056
" />
<path d="M194.0222 125.0056
L194.0222 60.0056
" />
<path d="M194.0222 125.0056
L194.0222 60.0056
" />
<path d="M194.0222 125.0056
L194.6086 123.8791
" />
<path d="M194.0222 125.0056
L193.4358 123.8791
" />
<path d="M194.0222 60.0056
L193.4358 61.1321
" />
<path d="M194.0222 60.0056
L194.6086 61.1321
" />
</g>
<g style="fill:none; 
stroke:#000000; stroke-width:0.1500; stroke-opacity:1; 
stroke-linecap:round; stroke-linejoin:round;">
<g transform="rotate(90.000000 186.6722 78.0056)">
<text x="186.6722" y="78.5056"
textLength="5.5833" font-size="1.3333" lengthAdjust="spacingAndGlyphs"
text-anchor="middle" opacity="0" stroke-opacity="0">29 mm</text>
</g>
<g class="stroked-text"><desc>29 mm</desc>
<path d="M187.1221 75.5294
L187.1698 75.5770
" />
<path d="M187.1698 75.5770
L187.2174 75.6723
" />
<path d="M187.2174 75.6723
L187.2174 75.9104
" />
<path d="M187.2174 75.9104
L187.1698 76.0056
" />
<path d="M187.1698 76.0056
L187.1221 76.0532
" />
<path d="M187.1221 76.0532
L187.0269 76.1008
" />
<path d="M187.0269 76.1008
L186.9317 76.1008
" />
<path d="M186.9317 76.1008
L186.7888 76.0532
" />
<path d="M186.7888 76.0532
L186.2174 75.4818
" />
<path d="M186.2174 75.4818
L186.2174 76.1008
" />
<path d="M186.2174 76.5770
L186.2174 76.7675
" />
<path d="M186.2174 76.7675
L186.2650 76.8627
" />
<path d="M186.2650 76.8627
L186.3126 76.9104
" />
<path d="M186.3126 76.9104
L186.4555 77.0056
" />
<path d="M186.4555 77.0056
L186.6460 77.0532
" />
<path d="M186.6460 77.0532
L187.0269 77.0532
" />
<path d="M187.0269 77.0532
L187.1221 77.0056
" />
<path d="M187.1221 77.0056
L187.1698 76.9580
" />
<path d="M187.1698 76.9580
L187.2174 76.8627
" />
<path d="M187.2174 76.8627
L187.2174 76.6723
" />
<path d="M187.2174 76.6723
L187.1698 76.5770
" />
<path d="M187.1698 76.5770
L187.1221 76.5294
" />
<path d="M187.1221 76.5294
L187.0269 76.4818
" />
<path d="M187.0269 76.4818
L186.7888 76.4818
" />
<path d="M186.7888 76.4818
L186.6936 76.5294
" />
<path d="M186.6936 76.5294
L186.6460 76.5770
" />
<path d="M186.6460 76.5770
L186.5983 76.6723
" />
<path d="M186.5983 76.6723
L186.5983 76.8627
" />
<path d="M186.5983 76.8627
L186.6460 76.9580
" />
<path d="M186.6460 76.9580
L186.6936 77.0056
" />
<path d="M186.6936 77.0056
L186.7888 77.0532
" />
<path d="M186.2174 78.2437
L186.8840 78.2437
" />
<path d="M186.7888 78.2437
L186.8364 78.2913
" />
<path d="M186.8364 78.2913
L186.8840 78.3866
" />
<path d="M186.8840 78.3866
L186.8840 78.5294
" />
<path d="M186.8840 78.5294
L186.8364 78.6246
" />
<path d="M186.8364 78.6246
L186.7412 78.6723
" />
<path d="M186.7412 78.6723
L186.2174 78.6723
" />
<path d="M186.7412 78.6723
L186.8364 78.7199
" />
<path d="M186.8364 78.7199
L186.8840 78.8151
" />
<path d="M186.8840 78.8151
L186.8840 78.9580
" />
<path d="M186.8840 78.9580
L186.8364 79.0532
" />
<path d="M186.8364 79.0532
L186.7412 79.1008
" />
<path d="M186.7412 79.1008
L186.2174 79.1008
" />
<path d="M186.2174 79.5770
L186.8840 79.5770
" />
<path d="M186.7888 79.5770
L186.8364 79.6246
" />
<path d="M186.8364 79.6246
L186.8840 79.7199
" />
<path d="M186.8840 79.7199
L186.8840 79.8627
" />
<path d="M186.8840 79.8627
L186.8364 79.9580
" />
<path d="M186.8364 79.9580
L186.7412 80.0056
" />
<path d="M186.7412 80.0056
L186.2174 80.0056
" />
<path d="M186.7412 80.0056
L186.8364 80.0532
" />
<path d="M186.8364 80.0532
L186.8840 80.1485
" />
<path d="M186.8840 80.1485
L186.8840 80.2913
" />
<path d="M186.8840 80.2913
L186.8364 80.3866
" />
<path d="M186.8364 80.3866
L186.7412 80.4342
" />
<path d="M186.7412 80.4342
L186.2174 80.4342
" />
</g></g>
<g style="fill:none; 
stroke:#000000; stroke-width:0.1000; stroke-opacity:1; 
stroke-linecap:round; stroke-linejoin:round;">
<path d="M178.5222 92.5056
L186.1086 92.5056
" />
<path d="M178.5222 63.5056
L186.1086 63.5056
" />
<path d="M185.5222 92.5056
L185.5222 63.5056
" />
<path d="M185.5222 92.5056
L185.5222 63.5056
" />
<path d="M185.5222 92.5056
L186.1086 91.3791
" />
<path d="M185.5222 92.5056
L184.9358 91.3791
" />
<path d="M185.5222 63.5056
L184.9358 64.6321
" />
<path d="M185.5222 63.5056
L186.1086 64.6321
" />
</g>
<g style="fill:none; 
stroke:#000000; stroke-width:0.1500; stroke-opacity:1; 
stroke-linecap:round; stroke-linejoin:round;">
<text x="126.0222" y="55.0056"
textLength="6.0595" font-size="1.3333" lengthAdjust="spacingAndGlyphs"
text-anchor="middle" opacity="0" stroke-opacity="0">3.5 mm</text>
<g class="stroked-text"><desc>3.5 mm</desc>
<path d="M123.2603 53.9604
L123.8793 53.9604
" />
<path d="M123.8793 53.9604
L123.5460 54.3414
" />
<path d="M123.5460 54.3414
L123.6889 54.3414
" />
<path d="M123.6889 54.3414
L123.7841 54.3890
" />
<path d="M123.7841 54.3890
L123.8317 54.4366
" />
<path d="M123.8317 54.4366
L123.8793 54.5318
" />
<path d="M123.8793 54.5318
L123.8793 54.7699
" />
<path d="M123.8793 54.7699
L123.8317 54.8652
" />
<path d="M123.8317 54.8652
L123.7841 54.9128
" />
<path d="M123.7841 54.9128
L123.6889 54.9604
" />
<path d="M123.6889 54.9604
L123.4032 54.9604
" />
<path d="M123.4032 54.9604
L123.3079 54.9128
" />
<path d="M123.3079 54.9128
L123.2603 54.8652
" />
<path d="M124.3079 54.8652
L124.3555 54.9128
" />
<path d="M124.3555 54.9128
L124.3079 54.9604
" />
<path d="M124.3079 54.9604
L124.2603 54.9128
" />
<path d="M124.2603 54.9128
L124.3079 54.8652
" />
<path d="M124.3079 54.8652
L124.3079 54.9604
" />
<path d="M125.2603 53.9604
L124.7841 53.9604
" />
<path d="M124.7841 53.9604
L124.7365 54.4366
" />
<path d="M124.7365 54.4366
L124.7841 54.3890
" />
<path d="M124.7841 54.3890
L124.8793 54.3414
" />
<path d="M124.8793 54.3414
L125.1174 54.3414
" />
<path d="M125.1174 54.3414
L125.2127 54.3890
" />
<path d="M125.2127 54.3890
L125.2603 54.4366
" />
<path d="M125.2603 54.4366
L125.3079 54.5318
" />
<path d="M125.3079 54.5318
L125.3079 54.7699
" />
<path d="M125.3079 54.7699
L125.2603 54.8652
" />
<path d="M125.2603 54.8652
L125.2127 54.9128
" />
<path d="M125.2127 54.9128
L125.1174 54.9604
" />
<path d="M125.1174 54.9604
L124.8793 54.9604
" />
<path d="M124.8793 54.9604
L124.7841 54.9128
" />
<path d="M124.7841 54.9128
L124.7365 54.8652
" />
<path d="M126.4984 54.9604
L126.4984 54.2938
" />
<path d="M126.4984 54.3890
L126.5460 54.3414
" />
<path d="M126.5460 54.3414
L126.6412 54.2938
" />
<path d="M126.6412 54.2938
L126.7841 54.2938
" />
<path d="M126.7841 54.2938
L126.8793 54.3414
" />
<path d="M126.8793 54.3414
L126.9270 54.4366
" />
<path d="M126.9270 54.4366
L126.9270 54.9604
" />
<path d="M126.9270 54.4366
L126.9746 54.3414
" />
<path d="M126.9746 54.3414
L127.0698 54.2938
" />
<path d="M127.0698 54.2938
L127.2127 54.2938
" />
<path d="M127.2127 54.2938
L127.3079 54.3414
" />
<path d="M127.3079 54.3414
L127.3555 54.4366
" />
<path d="M127.3555 54.4366
L127.3555 54.9604
" />
<path d="M127.8317 54.9604
L127.8317 54.2938
" />
<path d="M127.8317 54.3890
L127.8793 54.3414
" />
<path d="M127.8793 54.3414
L127.9746 54.2938
" />
<path d="M127.9746 54.2938
L128.1174 54.2938
" />
<path d="M128.1174 54.2938
L128.2127 54.3414
" />
<path d="M128.2127 54.3414
L128.2603 54.4366
" />
<path d="M128.2603 54.4366
L128.2603 54.9604
" />
<path d="M128.2603 54.4366
L128.3079 54.3414
" />
<path d="M128.3079 54.3414
L128.4032 54.2938
" />
<path d="M128.4032 54.2938
L128.5460 54.2938
" />
<path d="M128.5460 54.2938
L128.6412 54.3414
" />
<path d="M128.6412 54.3414
L128.6889 54.4366
" />
<path d="M128.6889 54.4366
L128.6889 54.9604
" />
</g></g>
<g style="fill:none; 
stroke:#000000; stroke-width:0.1000; stroke-opacity:1; 
stroke-linecap:round; stroke-linejoin:round;">
<path d="M129.0222 63.0056
L129.0222 55.9192
" />
<path d="M125.5222 63.0056
L125.5222 55.9192
" />
<path d="M129.0222 56.5056
L125.5222 56.5056
" />
<path d="M129.0222 56.5056
L125.5222 56.5056
" />
<path d="M129.0222 56.5056
L127.8957 55.9192
" />
<path d="M129.0222 56.5056
L127.8957 57.0920
" />
<path d="M125.5222 56.5056
L126.6487 57.0920
" />
<path d="M125.5222 56.5056
L126.6487 55.9192
" />
</g> 
</svg>
