  0
SECTION
  2
HEADER
  9
$ANGBASE
  50
0.0
  9
$ANGDIR
  70
1
  9
$MEASUREMENT
  70
0
  0
ENDSEC
  0
SECTION
  2
TABLES
  0
TABLE
  2
LTYPE
  70
4
  0
LTYPE
  5
40F
  2
CONTINUOUS
  70
0
  3
Solid line
  72
65
  73
0
  40
0.0
  0
LTYPE
  5
410
  2
DASHDOT
 70
0
  3
Dash Dot ____ _ ____ _
 72
65
 73
4
 40
2.0
 49
1.25
 49
-0.25
 49
0.25
 49
-0.25
  0
LTYPE
  5
411
  2
DASHED
 70
0
  3
Dashed __ __ __ __ __
 72
65
 73
2
 40
0.75
 49
0.5
 49
-0.25
  0
LTYPE
  5
43B
  2
DOTTED
 70
0
  3
Dotted .  .  .  .
 72
65
 73
2
 40
0.2
 49
0.0
 49
-0.2
  0
ENDTAB
  0
TABLE
  2
STYLE
  70
4
  0
STYLE
  2
KICAD
  70
0
  40
0
  41
1
  42
1
  50
0
  71
0
  3
isocp.shx
  0
STYLE
  2
KICADB
  70
0
  40
0
  41
1
  42
1
  50
0
  71
0
  3
isocp.shx
  0
STYLE
  2
KICADI
  70
0
  40
0
  41
1
  42
1
  50
15
  71
0
  3
isocp.shx
  0
STYLE
  2
KICADBI
  70
0
  40
0
  41
1
  42
1
  50
15
  71
0
  3
isocp.shx
  0
ENDTAB
  0
TABLE
  2
LAYER
  70
1
  0
LAYER
  2
BLACK
  70
0
  62
7
  6
CONTINUOUS
  0
ENDTAB
  0
ENDSEC
  0
SECTION
  2
ENTITIES
0
LINE
8
BLACK
6
CONTINUOUS
10
3.45669
20
-0.785433
11
3.45808
21
-0.78601
0
LINE
8
BLACK
6
CONTINUOUS
10
3.45808
20
-0.78601
11
3.45866
21
-0.787402
0
LINE
8
BLACK
6
CONTINUOUS
10
3.45866
20
-0.787402
11
3.45866
21
-0.826772
0
LINE
8
BLACK
6
CONTINUOUS
10
3.45866
20
-0.826772
11
3.45866
21
-0.828586
0
LINE
8
BLACK
6
CONTINUOUS
10
3.45866
20
-0.828586
11
3.4596
21
-0.83209
0
LINE
8
BLACK
6
CONTINUOUS
10
3.4596
20
-0.83209
11
3.46141
21
-0.835232
0
LINE
8
BLACK
6
CONTINUOUS
10
3.46141
20
-0.835232
11
3.46398
21
-0.837798
0
LINE
8
BLACK
6
CONTINUOUS
10
3.46398
20
-0.837798
11
3.46712
21
-0.839612
0
LINE
8
BLACK
6
CONTINUOUS
10
3.46712
20
-0.839612
11
3.47063
21
-0.840551
0
LINE
8
BLACK
6
CONTINUOUS
10
3.47063
20
-0.840551
11
3.47244
21
-0.840551
0
LINE
8
BLACK
6
CONTINUOUS
10
3.47244
20
-0.840551
11
3.61417
21
-0.840551
0
LINE
8
BLACK
6
CONTINUOUS
10
3.61417
20
-0.840551
11
3.61599
21
-0.840551
0
LINE
8
BLACK
6
CONTINUOUS
10
3.61599
20
-0.840551
11
3.61949
21
-0.839612
0
LINE
8
BLACK
6
CONTINUOUS
10
3.61949
20
-0.839612
11
3.62263
21
-0.837798
0
LINE
8
BLACK
6
CONTINUOUS
10
3.62263
20
-0.837798
11
3.6252
21
-0.835232
0
LINE
8
BLACK
6
CONTINUOUS
10
3.6252
20
-0.835232
11
3.62701
21
-0.83209
0
LINE
8
BLACK
6
CONTINUOUS
10
3.62701
20
-0.83209
11
3.62795
21
-0.828586
0
LINE
8
BLACK
6
CONTINUOUS
10
3.62795
20
-0.828586
11
3.62795
21
-0.826772
0
LINE
8
BLACK
6
CONTINUOUS
10
3.62795
20
-0.826772
11
3.62795
21
-0.787402
0
LINE
8
BLACK
6
CONTINUOUS
10
3.62795
20
-0.787402
11
3.62853
21
-0.78601
0
LINE
8
BLACK
6
CONTINUOUS
10
3.62853
20
-0.78601
11
3.62992
21
-0.785433
0
LINE
8
BLACK
6
CONTINUOUS
10
3.62992
20
-0.785433
11
3.93701
21
-0.785433
0
LINE
8
BLACK
6
CONTINUOUS
10
3.93701
20
-0.785433
11
3.93724
21
-0.785529
0
LINE
8
BLACK
6
CONTINUOUS
10
3.93724
20
-0.785529
11
3.93762
21
-0.785529
0
LINE
8
BLACK
6
CONTINUOUS
10
3.93762
20
-0.785529
11
3.93811
21
-0.785891
0
LINE
8
BLACK
6
CONTINUOUS
10
3.93811
20
-0.785891
11
3.9384
21
-0.78601
0
LINE
8
BLACK
6
CONTINUOUS
10
3.9384
20
-0.78601
11
3.93845
21
-0.786137
0
LINE
8
BLACK
6
CONTINUOUS
10
3.93845
20
-0.786137
11
3.9386
21
-0.786245
0
LINE
8
BLACK
6
CONTINUOUS
10
3.9386
20
-0.786245
11
3.93898
21
-0.787402
0
LINE
8
BLACK
6
CONTINUOUS
10
3.93898
20
-0.787402
11
3.93898
21
-0.79591
0
LINE
8
BLACK
6
CONTINUOUS
10
3.93898
20
-0.79591
11
3.94046
21
-0.812863
0
LINE
8
BLACK
6
CONTINUOUS
10
3.94046
20
-0.812863
11
3.94341
21
-0.829622
0
LINE
8
BLACK
6
CONTINUOUS
10
3.94341
20
-0.829622
11
3.94782
21
-0.84606
0
LINE
8
BLACK
6
CONTINUOUS
10
3.94782
20
-0.84606
11
3.95364
21
-0.862051
0
LINE
8
BLACK
6
CONTINUOUS
10
3.95364
20
-0.862051
11
3.96083
21
-0.877474
0
LINE
8
BLACK
6
CONTINUOUS
10
3.96083
20
-0.877474
11
3.96934
21
-0.892211
0
LINE
8
BLACK
6
CONTINUOUS
10
3.96934
20
-0.892211
11
3.9791
21
-0.906151
0
LINE
8
BLACK
6
CONTINUOUS
10
3.9791
20
-0.906151
11
3.99004
21
-0.919187
0
LINE
8
BLACK
6
CONTINUOUS
10
3.99004
20
-0.919187
11
4.00207
21
-0.93122
0
LINE
8
BLACK
6
CONTINUOUS
10
4.00207
20
-0.93122
11
4.01511
21
-0.942159
0
LINE
8
BLACK
6
CONTINUOUS
10
4.01511
20
-0.942159
11
4.02905
21
-0.95192
0
LINE
8
BLACK
6
CONTINUOUS
10
4.02905
20
-0.95192
11
4.04379
21
-0.960429
0
LINE
8
BLACK
6
CONTINUOUS
10
4.04379
20
-0.960429
11
4.05921
21
-0.967621
0
LINE
8
BLACK
6
CONTINUOUS
10
4.05921
20
-0.967621
11
4.0752
21
-0.973441
0
LINE
8
BLACK
6
CONTINUOUS
10
4.0752
20
-0.973441
11
4.09164
21
-0.977845
0
LINE
8
BLACK
6
CONTINUOUS
10
4.09164
20
-0.977845
11
4.1084
21
-0.9808
0
LINE
8
BLACK
6
CONTINUOUS
10
4.1084
20
-0.9808
11
4.12535
21
-0.982283
0
LINE
8
BLACK
6
CONTINUOUS
10
4.12535
20
-0.982283
11
4.14237
21
-0.982283
0
LINE
8
BLACK
6
CONTINUOUS
10
4.14237
20
-0.982283
11
4.15932
21
-0.9808
0
LINE
8
BLACK
6
CONTINUOUS
10
4.15932
20
-0.9808
11
4.17608
21
-0.977845
0
LINE
8
BLACK
6
CONTINUOUS
10
4.17608
20
-0.977845
11
4.19252
21
-0.973441
0
LINE
8
BLACK
6
CONTINUOUS
10
4.19252
20
-0.973441
11
4.20851
21
-0.967621
0
LINE
8
BLACK
6
CONTINUOUS
10
4.20851
20
-0.967621
11
4.22393
21
-0.960429
0
LINE
8
BLACK
6
CONTINUOUS
10
4.22393
20
-0.960429
11
4.23867
21
-0.95192
0
LINE
8
BLACK
6
CONTINUOUS
10
4.23867
20
-0.95192
11
4.25261
21
-0.942159
0
LINE
8
BLACK
6
CONTINUOUS
10
4.25261
20
-0.942159
11
4.26564
21
-0.93122
0
LINE
8
BLACK
6
CONTINUOUS
10
4.26564
20
-0.93122
11
4.27768
21
-0.919187
0
LINE
8
BLACK
6
CONTINUOUS
10
4.27768
20
-0.919187
11
4.28862
21
-0.906151
0
LINE
8
BLACK
6
CONTINUOUS
10
4.28862
20
-0.906151
11
4.29838
21
-0.892211
0
LINE
8
BLACK
6
CONTINUOUS
10
4.29838
20
-0.892211
11
4.30689
21
-0.877474
0
LINE
8
BLACK
6
CONTINUOUS
10
4.30689
20
-0.877474
11
4.31408
21
-0.862051
0
LINE
8
BLACK
6
CONTINUOUS
10
4.31408
20
-0.862051
11
4.3199
21
-0.84606
0
LINE
8
BLACK
6
CONTINUOUS
10
4.3199
20
-0.84606
11
4.3243
21
-0.829622
0
LINE
8
BLACK
6
CONTINUOUS
10
4.3243
20
-0.829622
11
4.32726
21
-0.812863
0
LINE
8
BLACK
6
CONTINUOUS
10
4.32726
20
-0.812863
11
4.32874
21
-0.79591
0
LINE
8
BLACK
6
CONTINUOUS
10
4.32874
20
-0.79591
11
4.32874
21
-0.787402
0
LINE
8
BLACK
6
CONTINUOUS
10
4.32874
20
-0.787402
11
4.32912
21
-0.786245
0
LINE
8
BLACK
6
CONTINUOUS
10
4.32912
20
-0.786245
11
4.32926
21
-0.786137
0
LINE
8
BLACK
6
CONTINUOUS
10
4.32926
20
-0.786137
11
4.32932
21
-0.78601
0
LINE
8
BLACK
6
CONTINUOUS
10
4.32932
20
-0.78601
11
4.3296
21
-0.785891
0
LINE
8
BLACK
6
CONTINUOUS
10
4.3296
20
-0.785891
11
4.3301
21
-0.785529
0
LINE
8
BLACK
6
CONTINUOUS
10
4.3301
20
-0.785529
11
4.33048
21
-0.785529
0
LINE
8
BLACK
6
CONTINUOUS
10
4.33048
20
-0.785529
11
4.33071
21
-0.785433
0
LINE
8
BLACK
6
CONTINUOUS
10
4.33071
20
-0.785433
11
4.6378
21
-0.785433
0
LINE
8
BLACK
6
CONTINUOUS
10
4.6378
20
-0.785433
11
4.63919
21
-0.78601
0
LINE
8
BLACK
6
CONTINUOUS
10
4.63919
20
-0.78601
11
4.63976
21
-0.787402
0
LINE
8
BLACK
6
CONTINUOUS
10
4.63976
20
-0.787402
11
4.63976
21
-0.826772
0
LINE
8
BLACK
6
CONTINUOUS
10
4.63976
20
-0.826772
11
4.63976
21
-0.828586
0
LINE
8
BLACK
6
CONTINUOUS
10
4.63976
20
-0.828586
11
4.6407
21
-0.83209
0
LINE
8
BLACK
6
CONTINUOUS
10
4.6407
20
-0.83209
11
4.64252
21
-0.835232
0
LINE
8
BLACK
6
CONTINUOUS
10
4.64252
20
-0.835232
11
4.64508
21
-0.837798
0
LINE
8
BLACK
6
CONTINUOUS
10
4.64508
20
-0.837798
11
4.64822
21
-0.839612
0
LINE
8
BLACK
6
CONTINUOUS
10
4.64822
20
-0.839612
11
4.65173
21
-0.840551
0
LINE
8
BLACK
6
CONTINUOUS
10
4.65173
20
-0.840551
11
4.65354
21
-0.840551
0
LINE
8
BLACK
6
CONTINUOUS
10
4.65354
20
-0.840551
11
4.79528
21
-0.840551
0
LINE
8
BLACK
6
CONTINUOUS
10
4.79528
20
-0.840551
11
4.79528
21
-0.840551
0
LINE
8
BLACK
6
CONTINUOUS
10
4.79528
20
-0.840551
11
4.79709
21
-0.840551
0
LINE
8
BLACK
6
CONTINUOUS
10
4.79709
20
-0.840551
11
4.80059
21
-0.839612
0
LINE
8
BLACK
6
CONTINUOUS
10
4.80059
20
-0.839612
11
4.80374
21
-0.837798
0
LINE
8
BLACK
6
CONTINUOUS
10
4.80374
20
-0.837798
11
4.8063
21
-0.835233
0
LINE
8
BLACK
6
CONTINUOUS
10
4.8063
20
-0.835233
11
4.80812
21
-0.83209
0
LINE
8
BLACK
6
CONTINUOUS
10
4.80812
20
-0.83209
11
4.80906
21
-0.828586
0
LINE
8
BLACK
6
CONTINUOUS
10
4.80906
20
-0.828586
11
4.80906
21
-0.826772
0
LINE
8
BLACK
6
CONTINUOUS
10
4.80906
20
-0.826772
11
4.80906
21
-0.787402
0
LINE
8
BLACK
6
CONTINUOUS
10
4.80906
20
-0.787402
11
4.80963
21
-0.78601
0
LINE
8
BLACK
6
CONTINUOUS
10
4.80963
20
-0.78601
11
4.81102
21
-0.785433
0
LINE
8
BLACK
6
CONTINUOUS
10
4.81102
20
-0.785433
11
7.3622
21
-0.785433
0
LINE
8
BLACK
6
CONTINUOUS
10
7.3622
20
-0.785433
11
7.36938
21
-0.786061
0
LINE
8
BLACK
6
CONTINUOUS
10
7.36938
20
-0.786061
11
7.37634
21
-0.787926
0
LINE
8
BLACK
6
CONTINUOUS
10
7.37634
20
-0.787926
11
7.38287
21
-0.790971
0
LINE
8
BLACK
6
CONTINUOUS
10
7.38287
20
-0.790971
11
7.38878
21
-0.795104
0
LINE
8
BLACK
6
CONTINUOUS
10
7.38878
20
-0.795104
11
7.39387
21
-0.8002
0
LINE
8
BLACK
6
CONTINUOUS
10
7.39387
20
-0.8002
11
7.398
21
-0.806102
0
LINE
8
BLACK
6
CONTINUOUS
10
7.398
20
-0.806102
11
7.40105
21
-0.812633
0
LINE
8
BLACK
6
CONTINUOUS
10
7.40105
20
-0.812633
11
7.40292
21
-0.819593
0
LINE
8
BLACK
6
CONTINUOUS
10
7.40292
20
-0.819593
11
7.40354
21
-0.826772
0
LINE
8
BLACK
6
CONTINUOUS
10
7.40354
20
-0.826772
11
7.40354
21
-0.905512
0
LINE
8
BLACK
6
CONTINUOUS
10
7.40354
20
-0.905512
11
7.40354
21
-0.912034
0
LINE
8
BLACK
6
CONTINUOUS
10
7.40354
20
-0.912034
11
7.405
21
-0.924997
0
LINE
8
BLACK
6
CONTINUOUS
10
7.405
20
-0.924997
11
7.40791
21
-0.937715
0
LINE
8
BLACK
6
CONTINUOUS
10
7.40791
20
-0.937715
11
7.41221
21
-0.950027
0
LINE
8
BLACK
6
CONTINUOUS
10
7.41221
20
-0.950027
11
7.41787
21
-0.96178
0
LINE
8
BLACK
6
CONTINUOUS
10
7.41787
20
-0.96178
11
7.42482
21
-0.972826
0
LINE
8
BLACK
6
CONTINUOUS
10
7.42482
20
-0.972826
11
7.43295
21
-0.983024
0
LINE
8
BLACK
6
CONTINUOUS
10
7.43295
20
-0.983024
11
7.44217
21
-0.992248
0
LINE
8
BLACK
6
CONTINUOUS
10
7.44217
20
-0.992248
11
7.45237
21
-1.00038
0
LINE
8
BLACK
6
CONTINUOUS
10
7.45237
20
-1.00038
11
7.46342
21
-1.00732
0
LINE
8
BLACK
6
CONTINUOUS
10
7.46342
20
-1.00732
11
7.47517
21
-1.01298
0
LINE
8
BLACK
6
CONTINUOUS
10
7.47517
20
-1.01298
11
7.48748
21
-1.01729
0
LINE
8
BLACK
6
CONTINUOUS
10
7.48748
20
-1.01729
11
7.5002
21
-1.02019
0
LINE
8
BLACK
6
CONTINUOUS
10
7.5002
20
-1.02019
11
7.51316
21
-1.02165
0
LINE
8
BLACK
6
CONTINUOUS
10
7.51316
20
-1.02165
11
7.51969
21
-1.02165
0
LINE
8
BLACK
6
CONTINUOUS
10
7.51969
20
-1.02165
11
7.52686
21
-1.02228
0
LINE
8
BLACK
6
CONTINUOUS
10
7.52686
20
-1.02228
11
7.53382
21
-1.02415
0
LINE
8
BLACK
6
CONTINUOUS
10
7.53382
20
-1.02415
11
7.54035
21
-1.02719
0
LINE
8
BLACK
6
CONTINUOUS
10
7.54035
20
-1.02719
11
7.54626
21
-1.03132
0
LINE
8
BLACK
6
CONTINUOUS
10
7.54626
20
-1.03132
11
7.55135
21
-1.03642
0
LINE
8
BLACK
6
CONTINUOUS
10
7.55135
20
-1.03642
11
7.55549
21
-1.04232
0
LINE
8
BLACK
6
CONTINUOUS
10
7.55549
20
-1.04232
11
7.55853
21
-1.04885
0
LINE
8
BLACK
6
CONTINUOUS
10
7.55853
20
-1.04885
11
7.5604
21
-1.05581
0
LINE
8
BLACK
6
CONTINUOUS
10
7.5604
20
-1.05581
11
7.56102
21
-1.06299
0
LINE
8
BLACK
6
CONTINUOUS
10
7.56102
20
-1.06299
11
7.56102
21
-4.88189
0
LINE
8
BLACK
6
CONTINUOUS
10
7.56102
20
-4.88189
11
7.5604
21
-4.88907
0
LINE
8
BLACK
6
CONTINUOUS
10
7.5604
20
-4.88907
11
7.55853
21
-4.89603
0
LINE
8
BLACK
6
CONTINUOUS
10
7.55853
20
-4.89603
11
7.55549
21
-4.90256
0
LINE
8
BLACK
6
CONTINUOUS
10
7.55549
20
-4.90256
11
7.55135
21
-4.90846
0
LINE
8
BLACK
6
CONTINUOUS
10
7.55135
20
-4.90846
11
7.54626
21
-4.91356
0
LINE
8
BLACK
6
CONTINUOUS
10
7.54626
20
-4.91356
11
7.54035
21
-4.91769
0
LINE
8
BLACK
6
CONTINUOUS
10
7.54035
20
-4.91769
11
7.53382
21
-4.92074
0
LINE
8
BLACK
6
CONTINUOUS
10
7.53382
20
-4.92074
11
7.52686
21
-4.9226
0
LINE
8
BLACK
6
CONTINUOUS
10
7.52686
20
-4.9226
11
7.51969
21
-4.92323
0
LINE
8
BLACK
6
CONTINUOUS
10
7.51969
20
-4.92323
11
7.51316
21
-4.92323
0
LINE
8
BLACK
6
CONTINUOUS
10
7.51316
20
-4.92323
11
7.5002
21
-4.92469
0
LINE
8
BLACK
6
CONTINUOUS
10
7.5002
20
-4.92469
11
7.48748
21
-4.92759
0
LINE
8
BLACK
6
CONTINUOUS
10
7.48748
20
-4.92759
11
7.47517
21
-4.9319
0
LINE
8
BLACK
6
CONTINUOUS
10
7.47517
20
-4.9319
11
7.46342
21
-4.93756
0
LINE
8
BLACK
6
CONTINUOUS
10
7.46342
20
-4.93756
11
7.45237
21
-4.9445
0
LINE
8
BLACK
6
CONTINUOUS
10
7.45237
20
-4.9445
11
7.44217
21
-4.95263
0
LINE
8
BLACK
6
CONTINUOUS
10
7.44217
20
-4.95263
11
7.43295
21
-4.96186
0
LINE
8
BLACK
6
CONTINUOUS
10
7.43295
20
-4.96186
11
7.42482
21
-4.97206
0
LINE
8
BLACK
6
CONTINUOUS
10
7.42482
20
-4.97206
11
7.41787
21
-4.9831
0
LINE
8
BLACK
6
CONTINUOUS
10
7.41787
20
-4.9831
11
7.41221
21
-4.99485
0
LINE
8
BLACK
6
CONTINUOUS
10
7.41221
20
-4.99485
11
7.40791
21
-5.00717
0
LINE
8
BLACK
6
CONTINUOUS
10
7.40791
20
-5.00717
11
7.405
21
-5.01988
0
LINE
8
BLACK
6
CONTINUOUS
10
7.405
20
-5.01988
11
7.40354
21
-5.03285
0
LINE
8
BLACK
6
CONTINUOUS
10
7.40354
20
-5.03285
11
7.40354
21
-5.03937
0
LINE
8
BLACK
6
CONTINUOUS
10
7.40354
20
-5.03937
11
7.40354
21
-5.11811
0
LINE
8
BLACK
6
CONTINUOUS
10
7.40354
20
-5.11811
11
7.40292
21
-5.12529
0
LINE
8
BLACK
6
CONTINUOUS
10
7.40292
20
-5.12529
11
7.40105
21
-5.13225
0
LINE
8
BLACK
6
CONTINUOUS
10
7.40105
20
-5.13225
11
7.398
21
-5.13878
0
LINE
8
BLACK
6
CONTINUOUS
10
7.398
20
-5.13878
11
7.39387
21
-5.14468
0
LINE
8
BLACK
6
CONTINUOUS
10
7.39387
20
-5.14468
11
7.38878
21
-5.14978
0
LINE
8
BLACK
6
CONTINUOUS
10
7.38878
20
-5.14978
11
7.38287
21
-5.15391
0
LINE
8
BLACK
6
CONTINUOUS
10
7.38287
20
-5.15391
11
7.37634
21
-5.15696
0
LINE
8
BLACK
6
CONTINUOUS
10
7.37634
20
-5.15696
11
7.36938
21
-5.15882
0
LINE
8
BLACK
6
CONTINUOUS
10
7.36938
20
-5.15882
11
7.3622
21
-5.15945
0
LINE
8
BLACK
6
CONTINUOUS
10
7.3622
20
-5.15945
11
4.33071
21
-5.15945
0
LINE
8
BLACK
6
CONTINUOUS
10
4.33071
20
-5.15945
11
4.33048
21
-5.15935
0
LINE
8
BLACK
6
CONTINUOUS
10
4.33048
20
-5.15935
11
4.3301
21
-5.15935
0
LINE
8
BLACK
6
CONTINUOUS
10
4.3301
20
-5.15935
11
4.3296
21
-5.15899
0
LINE
8
BLACK
6
CONTINUOUS
10
4.3296
20
-5.15899
11
4.32932
21
-5.15887
0
LINE
8
BLACK
6
CONTINUOUS
10
4.32932
20
-5.15887
11
4.32926
21
-5.15874
0
LINE
8
BLACK
6
CONTINUOUS
10
4.32926
20
-5.15874
11
4.32912
21
-5.15864
0
LINE
8
BLACK
6
CONTINUOUS
10
4.32912
20
-5.15864
11
4.32874
21
-5.15748
0
LINE
8
BLACK
6
CONTINUOUS
10
4.32874
20
-5.15748
11
4.32874
21
-5.14897
0
LINE
8
BLACK
6
CONTINUOUS
10
4.32874
20
-5.14897
11
4.32726
21
-5.13202
0
LINE
8
BLACK
6
CONTINUOUS
10
4.32726
20
-5.13202
11
4.3243
21
-5.11526
0
LINE
8
BLACK
6
CONTINUOUS
10
4.3243
20
-5.11526
11
4.3199
21
-5.09882
0
LINE
8
BLACK
6
CONTINUOUS
10
4.3199
20
-5.09882
11
4.31408
21
-5.08283
0
LINE
8
BLACK
6
CONTINUOUS
10
4.31408
20
-5.08283
11
4.30689
21
-5.06741
0
LINE
8
BLACK
6
CONTINUOUS
10
4.30689
20
-5.06741
11
4.29838
21
-5.05267
0
LINE
8
BLACK
6
CONTINUOUS
10
4.29838
20
-5.05267
11
4.28862
21
-5.03873
0
LINE
8
BLACK
6
CONTINUOUS
10
4.28862
20
-5.03873
11
4.27768
21
-5.02569
0
LINE
8
BLACK
6
CONTINUOUS
10
4.27768
20
-5.02569
11
4.26564
21
-5.01366
0
LINE
8
BLACK
6
CONTINUOUS
10
4.26564
20
-5.01366
11
4.25261
21
-5.00272
0
LINE
8
BLACK
6
CONTINUOUS
10
4.25261
20
-5.00272
11
4.23867
21
-4.99296
0
LINE
8
BLACK
6
CONTINUOUS
10
4.23867
20
-4.99296
11
4.22393
21
-4.98445
0
LINE
8
BLACK
6
CONTINUOUS
10
4.22393
20
-4.98445
11
4.20851
21
-4.97726
0
LINE
8
BLACK
6
CONTINUOUS
10
4.20851
20
-4.97726
11
4.19252
21
-4.97144
0
LINE
8
BLACK
6
CONTINUOUS
10
4.19252
20
-4.97144
11
4.17608
21
-4.96704
0
LINE
8
BLACK
6
CONTINUOUS
10
4.17608
20
-4.96704
11
4.15932
21
-4.96408
0
LINE
8
BLACK
6
CONTINUOUS
10
4.15932
20
-4.96408
11
4.14237
21
-4.9626
0
LINE
8
BLACK
6
CONTINUOUS
10
4.14237
20
-4.9626
11
4.12535
21
-4.9626
0
LINE
8
BLACK
6
CONTINUOUS
10
4.12535
20
-4.9626
11
4.1084
21
-4.96408
0
LINE
8
BLACK
6
CONTINUOUS
10
4.1084
20
-4.96408
11
4.09164
21
-4.96704
0
LINE
8
BLACK
6
CONTINUOUS
10
4.09164
20
-4.96704
11
4.0752
21
-4.97144
0
LINE
8
BLACK
6
CONTINUOUS
10
4.0752
20
-4.97144
11
4.05921
21
-4.97726
0
LINE
8
BLACK
6
CONTINUOUS
10
4.05921
20
-4.97726
11
4.04379
21
-4.98445
0
LINE
8
BLACK
6
CONTINUOUS
10
4.04379
20
-4.98445
11
4.02905
21
-4.99296
0
LINE
8
BLACK
6
CONTINUOUS
10
4.02905
20
-4.99296
11
4.01511
21
-5.00272
0
LINE
8
BLACK
6
CONTINUOUS
10
4.01511
20
-5.00272
11
4.00207
21
-5.01366
0
LINE
8
BLACK
6
CONTINUOUS
10
4.00207
20
-5.01366
11
3.99004
21
-5.02569
0
LINE
8
BLACK
6
CONTINUOUS
10
3.99004
20
-5.02569
11
3.9791
21
-5.03873
0
LINE
8
BLACK
6
CONTINUOUS
10
3.9791
20
-5.03873
11
3.96934
21
-5.05267
0
LINE
8
BLACK
6
CONTINUOUS
10
3.96934
20
-5.05267
11
3.96083
21
-5.06741
0
LINE
8
BLACK
6
CONTINUOUS
10
3.96083
20
-5.06741
11
3.95364
21
-5.08283
0
LINE
8
BLACK
6
CONTINUOUS
10
3.95364
20
-5.08283
11
3.94782
21
-5.09882
0
LINE
8
BLACK
6
CONTINUOUS
10
3.94782
20
-5.09882
11
3.94341
21
-5.11526
0
LINE
8
BLACK
6
CONTINUOUS
10
3.94341
20
-5.11526
11
3.94046
21
-5.13202
0
LINE
8
BLACK
6
CONTINUOUS
10
3.94046
20
-5.13202
11
3.93898
21
-5.14897
0
LINE
8
BLACK
6
CONTINUOUS
10
3.93898
20
-5.14897
11
3.93898
21
-5.15748
0
LINE
8
BLACK
6
CONTINUOUS
10
3.93898
20
-5.15748
11
3.9386
21
-5.15864
0
LINE
8
BLACK
6
CONTINUOUS
10
3.9386
20
-5.15864
11
3.93845
21
-5.15874
0
LINE
8
BLACK
6
CONTINUOUS
10
3.93845
20
-5.15874
11
3.9384
21
-5.15887
0
LINE
8
BLACK
6
CONTINUOUS
10
3.9384
20
-5.15887
11
3.93811
21
-5.15899
0
LINE
8
BLACK
6
CONTINUOUS
10
3.93811
20
-5.15899
11
3.93762
21
-5.15935
0
LINE
8
BLACK
6
CONTINUOUS
10
3.93762
20
-5.15935
11
3.93724
21
-5.15935
0
LINE
8
BLACK
6
CONTINUOUS
10
3.93724
20
-5.15935
11
3.93701
21
-5.15945
0
LINE
8
BLACK
6
CONTINUOUS
10
3.93701
20
-5.15945
11
0.905512
21
-5.15945
0
LINE
8
BLACK
6
CONTINUOUS
10
0.905512
20
-5.15945
11
0.898333
21
-5.15882
0
LINE
8
BLACK
6
CONTINUOUS
10
0.898333
20
-5.15882
11
0.891373
21
-5.15696
0
LINE
8
BLACK
6
CONTINUOUS
10
0.891373
20
-5.15696
11
0.884843
21
-5.15391
0
LINE
8
BLACK
6
CONTINUOUS
10
0.884843
20
-5.15391
11
0.87894
21
-5.14978
0
LINE
8
BLACK
6
CONTINUOUS
10
0.87894
20
-5.14978
11
0.873845
21
-5.14468
0
LINE
8
BLACK
6
CONTINUOUS
10
0.873845
20
-5.14468
11
0.869712
21
-5.13878
0
LINE
8
BLACK
6
CONTINUOUS
10
0.869712
20
-5.13878
11
0.866666
21
-5.13225
0
LINE
8
BLACK
6
CONTINUOUS
10
0.866666
20
-5.13225
11
0.864801
21
-5.12529
0
LINE
8
BLACK
6
CONTINUOUS
10
0.864801
20
-5.12529
11
0.864173
21
-5.11811
0
LINE
8
BLACK
6
CONTINUOUS
10
0.864173
20
-5.11811
11
0.864173
21
-5.03937
0
LINE
8
BLACK
6
CONTINUOUS
10
0.864173
20
-5.03937
11
0.864173
21
-5.03285
0
LINE
8
BLACK
6
CONTINUOUS
10
0.864173
20
-5.03285
11
0.862713
21
-5.01988
0
LINE
8
BLACK
6
CONTINUOUS
10
0.862713
20
-5.01988
11
0.85981
21
-5.00717
0
LINE
8
BLACK
6
CONTINUOUS
10
0.85981
20
-5.00717
11
0.855502
21
-4.99485
0
LINE
8
BLACK
6
CONTINUOUS
10
0.855502
20
-4.99485
11
0.849842
21
-4.9831
0
LINE
8
BLACK
6
CONTINUOUS
10
0.849842
20
-4.9831
11
0.842901
21
-4.97206
0
LINE
8
BLACK
6
CONTINUOUS
10
0.842901
20
-4.97206
11
0.834768
21
-4.96186
0
LINE
8
BLACK
6
CONTINUOUS
10
0.834768
20
-4.96186
11
0.825544
21
-4.95263
0
LINE
8
BLACK
6
CONTINUOUS
10
0.825544
20
-4.95263
11
0.815345
21
-4.9445
0
LINE
8
BLACK
6
CONTINUOUS
10
0.815345
20
-4.9445
11
0.8043
21
-4.93756
0
LINE
8
BLACK
6
CONTINUOUS
10
0.8043
20
-4.93756
11
0.792547
21
-4.9319
0
LINE
8
BLACK
6
CONTINUOUS
10
0.792547
20
-4.9319
11
0.780234
21
-4.92759
0
LINE
8
BLACK
6
CONTINUOUS
10
0.780234
20
-4.92759
11
0.767517
21
-4.92469
0
LINE
8
BLACK
6
CONTINUOUS
10
0.767517
20
-4.92469
11
0.754554
21
-4.92323
0
LINE
8
BLACK
6
CONTINUOUS
10
0.754554
20
-4.92323
11
0.748031
21
-4.92323
0
LINE
8
BLACK
6
CONTINUOUS
10
0.748031
20
-4.92323
11
0.740853
21
-4.9226
0
LINE
8
BLACK
6
CONTINUOUS
10
0.740853
20
-4.9226
11
0.733893
21
-4.92074
0
LINE
8
BLACK
6
CONTINUOUS
10
0.733893
20
-4.92074
11
0.727362
21
-4.91769
0
LINE
8
BLACK
6
CONTINUOUS
10
0.727362
20
-4.91769
11
0.72146
21
-4.91356
0
LINE
8
BLACK
6
CONTINUOUS
10
0.72146
20
-4.91356
11
0.716364
21
-4.90846
0
LINE
8
BLACK
6
CONTINUOUS
10
0.716364
20
-4.90846
11
0.712231
21
-4.90256
0
LINE
8
BLACK
6
CONTINUOUS
10
0.712231
20
-4.90256
11
0.709186
21
-4.89603
0
LINE
8
BLACK
6
CONTINUOUS
10
0.709186
20
-4.89603
11
0.707321
21
-4.88907
0
LINE
8
BLACK
6
CONTINUOUS
10
0.707321
20
-4.88907
11
0.706693
21
-4.88189
0
LINE
8
BLACK
6
CONTINUOUS
10
0.706693
20
-4.88189
11
0.706693
21
-1.06299
0
LINE
8
BLACK
6
CONTINUOUS
10
0.706693
20
-1.06299
11
0.707321
21
-1.05581
0
LINE
8
BLACK
6
CONTINUOUS
10
0.707321
20
-1.05581
11
0.709186
21
-1.04885
0
LINE
8
BLACK
6
CONTINUOUS
10
0.709186
20
-1.04885
11
0.712231
21
-1.04232
0
LINE
8
BLACK
6
CONTINUOUS
10
0.712231
20
-1.04232
11
0.716364
21
-1.03642
0
LINE
8
BLACK
6
CONTINUOUS
10
0.716364
20
-1.03642
11
0.72146
21
-1.03132
0
LINE
8
BLACK
6
CONTINUOUS
10
0.72146
20
-1.03132
11
0.727362
21
-1.02719
0
LINE
8
BLACK
6
CONTINUOUS
10
0.727362
20
-1.02719
11
0.733893
21
-1.02415
0
LINE
8
BLACK
6
CONTINUOUS
10
0.733893
20
-1.02415
11
0.740853
21
-1.02228
0
LINE
8
BLACK
6
CONTINUOUS
10
0.740853
20
-1.02228
11
0.748031
21
-1.02165
0
LINE
8
BLACK
6
CONTINUOUS
10
0.748031
20
-1.02165
11
0.754554
21
-1.02165
0
LINE
8
BLACK
6
CONTINUOUS
10
0.754554
20
-1.02165
11
0.767517
21
-1.02019
0
LINE
8
BLACK
6
CONTINUOUS
10
0.767517
20
-1.02019
11
0.780234
21
-1.01729
0
LINE
8
BLACK
6
CONTINUOUS
10
0.780234
20
-1.01729
11
0.792547
21
-1.01298
0
LINE
8
BLACK
6
CONTINUOUS
10
0.792547
20
-1.01298
11
0.8043
21
-1.00732
0
LINE
8
BLACK
6
CONTINUOUS
10
0.8043
20
-1.00732
11
0.815345
21
-1.00038
0
LINE
8
BLACK
6
CONTINUOUS
10
0.815345
20
-1.00038
11
0.825544
21
-0.992248
0
LINE
8
BLACK
6
CONTINUOUS
10
0.825544
20
-0.992248
11
0.834768
21
-0.983024
0
LINE
8
BLACK
6
CONTINUOUS
10
0.834768
20
-0.983024
11
0.842901
21
-0.972826
0
LINE
8
BLACK
6
CONTINUOUS
10
0.842901
20
-0.972826
11
0.849842
21
-0.96178
0
LINE
8
BLACK
6
CONTINUOUS
10
0.849842
20
-0.96178
11
0.855502
21
-0.950027
0
LINE
8
BLACK
6
CONTINUOUS
10
0.855502
20
-0.950027
11
0.85981
21
-0.937715
0
LINE
8
BLACK
6
CONTINUOUS
10
0.85981
20
-0.937715
11
0.862713
21
-0.924997
0
LINE
8
BLACK
6
CONTINUOUS
10
0.862713
20
-0.924997
11
0.864173
21
-0.912034
0
LINE
8
BLACK
6
CONTINUOUS
10
0.864173
20
-0.912034
11
0.864173
21
-0.905512
0
LINE
8
BLACK
6
CONTINUOUS
10
0.864173
20
-0.905512
11
0.864173
21
-0.826772
0
LINE
8
BLACK
6
CONTINUOUS
10
0.864173
20
-0.826772
11
0.864801
21
-0.819593
0
LINE
8
BLACK
6
CONTINUOUS
10
0.864801
20
-0.819593
11
0.866666
21
-0.812633
0
LINE
8
BLACK
6
CONTINUOUS
10
0.866666
20
-0.812633
11
0.869712
21
-0.806102
0
LINE
8
BLACK
6
CONTINUOUS
10
0.869712
20
-0.806102
11
0.873845
21
-0.8002
0
LINE
8
BLACK
6
CONTINUOUS
10
0.873845
20
-0.8002
11
0.87894
21
-0.795104
0
LINE
8
BLACK
6
CONTINUOUS
10
0.87894
20
-0.795104
11
0.884843
21
-0.790971
0
LINE
8
BLACK
6
CONTINUOUS
10
0.884843
20
-0.790971
11
0.891373
21
-0.787926
0
LINE
8
BLACK
6
CONTINUOUS
10
0.891373
20
-0.787926
11
0.898333
21
-0.786061
0
LINE
8
BLACK
6
CONTINUOUS
10
0.898333
20
-0.786061
11
0.905512
21
-0.785433
0
LINE
8
BLACK
6
CONTINUOUS
10
0.905512
20
-0.785433
11
3.45669
21
-0.785433
0
LINE
8
BLACK
6
CONTINUOUS
10
0.905512
20
-0.78937
11
0.90224
21
-0.78937
0
LINE
8
BLACK
6
CONTINUOUS
10
0.90224
20
-0.78937
11
0.895795
21
-0.790506
0
LINE
8
BLACK
6
CONTINUOUS
10
0.895795
20
-0.790506
11
0.889645
21
-0.792745
0
LINE
8
BLACK
6
CONTINUOUS
10
0.889645
20
-0.792745
11
0.883977
21
-0.796017
0
LINE
8
BLACK
6
CONTINUOUS
10
0.883977
20
-0.796017
11
0.878964
21
-0.800224
0
LINE
8
BLACK
6
CONTINUOUS
10
0.878964
20
-0.800224
11
0.874757
21
-0.805237
0
LINE
8
BLACK
6
CONTINUOUS
10
0.874757
20
-0.805237
11
0.871485
21
-0.810905
0
LINE
8
BLACK
6
CONTINUOUS
10
0.871485
20
-0.810905
11
0.869247
21
-0.817054
0
LINE
8
BLACK
6
CONTINUOUS
10
0.869247
20
-0.817054
11
0.86811
21
-0.823499
0
LINE
8
BLACK
6
CONTINUOUS
10
0.86811
20
-0.823499
11
0.86811
21
-0.826772
0
LINE
8
BLACK
6
CONTINUOUS
10
0.86811
20
-0.826772
11
0.86811
21
-0.905512
0
LINE
8
BLACK
6
CONTINUOUS
10
0.86811
20
-0.905512
11
0.867452
21
-0.918063
0
LINE
8
BLACK
6
CONTINUOUS
10
0.867452
20
-0.918063
11
0.865486
21
-0.930478
0
LINE
8
BLACK
6
CONTINUOUS
10
0.865486
20
-0.930478
11
0.862233
21
-0.942618
0
LINE
8
BLACK
6
CONTINUOUS
10
0.862233
20
-0.942618
11
0.857729
21
-0.954352
0
LINE
8
BLACK
6
CONTINUOUS
10
0.857729
20
-0.954352
11
0.852023
21
-0.965551
0
LINE
8
BLACK
6
CONTINUOUS
10
0.852023
20
-0.965551
11
0.845177
21
-0.976092
0
LINE
8
BLACK
6
CONTINUOUS
10
0.845177
20
-0.976092
11
0.837267
21
-0.98586
0
LINE
8
BLACK
6
CONTINUOUS
10
0.837267
20
-0.98586
11
0.82838
21
-0.994748
0
LINE
8
BLACK
6
CONTINUOUS
10
0.82838
20
-0.994748
11
0.818612
21
-1.00266
0
LINE
8
BLACK
6
CONTINUOUS
10
0.818612
20
-1.00266
11
0.808071
21
-1.0095
0
LINE
8
BLACK
6
CONTINUOUS
10
0.808071
20
-1.0095
11
0.796872
21
-1.01521
0
LINE
8
BLACK
6
CONTINUOUS
10
0.796872
20
-1.01521
11
0.785138
21
-1.01971
0
LINE
8
BLACK
6
CONTINUOUS
10
0.785138
20
-1.01971
11
0.772997
21
-1.02297
0
LINE
8
BLACK
6
CONTINUOUS
10
0.772997
20
-1.02297
11
0.760583
21
-1.02493
0
LINE
8
BLACK
6
CONTINUOUS
10
0.760583
20
-1.02493
11
0.748031
21
-1.02559
0
LINE
8
BLACK
6
CONTINUOUS
10
0.748031
20
-1.02559
11
0.744759
21
-1.02559
0
LINE
8
BLACK
6
CONTINUOUS
10
0.744759
20
-1.02559
11
0.738314
21
-1.02673
0
LINE
8
BLACK
6
CONTINUOUS
10
0.738314
20
-1.02673
11
0.732165
21
-1.02897
0
LINE
8
BLACK
6
CONTINUOUS
10
0.732165
20
-1.02897
11
0.726497
21
-1.03224
0
LINE
8
BLACK
6
CONTINUOUS
10
0.726497
20
-1.03224
11
0.721484
21
-1.03644
0
LINE
8
BLACK
6
CONTINUOUS
10
0.721484
20
-1.03644
11
0.717277
21
-1.04146
0
LINE
8
BLACK
6
CONTINUOUS
10
0.717277
20
-1.04146
11
0.714005
21
-1.04713
0
LINE
8
BLACK
6
CONTINUOUS
10
0.714005
20
-1.04713
11
0.711766
21
-1.05327
0
LINE
8
BLACK
6
CONTINUOUS
10
0.711766
20
-1.05327
11
0.71063
21
-1.05972
0
LINE
8
BLACK
6
CONTINUOUS
10
0.71063
20
-1.05972
11
0.71063
21
-1.06299
0
LINE
8
BLACK
6
CONTINUOUS
10
0.71063
20
-1.06299
11
0.71063
21
-4.88189
0
LINE
8
BLACK
6
CONTINUOUS
10
0.71063
20
-4.88189
11
0.71063
21
-4.88516
0
LINE
8
BLACK
6
CONTINUOUS
10
0.71063
20
-4.88516
11
0.711766
21
-4.89161
0
LINE
8
BLACK
6
CONTINUOUS
10
0.711766
20
-4.89161
11
0.714005
21
-4.89776
0
LINE
8
BLACK
6
CONTINUOUS
10
0.714005
20
-4.89776
11
0.717277
21
-4.90342
0
LINE
8
BLACK
6
CONTINUOUS
10
0.717277
20
-4.90342
11
0.721484
21
-4.90844
0
LINE
8
BLACK
6
CONTINUOUS
10
0.721484
20
-4.90844
11
0.726497
21
-4.91264
0
LINE
8
BLACK
6
CONTINUOUS
10
0.726497
20
-4.91264
11
0.732165
21
-4.91592
0
LINE
8
BLACK
6
CONTINUOUS
10
0.732165
20
-4.91592
11
0.738314
21
-4.91815
0
LINE
8
BLACK
6
CONTINUOUS
10
0.738314
20
-4.91815
11
0.744759
21
-4.91929
0
LINE
8
BLACK
6
CONTINUOUS
10
0.744759
20
-4.91929
11
0.748031
21
-4.91929
0
LINE
8
BLACK
6
CONTINUOUS
10
0.748031
20
-4.91929
11
0.760583
21
-4.91995
0
LINE
8
BLACK
6
CONTINUOUS
10
0.760583
20
-4.91995
11
0.772997
21
-4.92192
0
LINE
8
BLACK
6
CONTINUOUS
10
0.772997
20
-4.92192
11
0.785138
21
-4.92517
0
LINE
8
BLACK
6
CONTINUOUS
10
0.785138
20
-4.92517
11
0.796872
21
-4.92967
0
LINE
8
BLACK
6
CONTINUOUS
10
0.796872
20
-4.92967
11
0.808071
21
-4.93538
0
LINE
8
BLACK
6
CONTINUOUS
10
0.808071
20
-4.93538
11
0.818612
21
-4.94222
0
LINE
8
BLACK
6
CONTINUOUS
10
0.818612
20
-4.94222
11
0.82838
21
-4.95013
0
LINE
8
BLACK
6
CONTINUOUS
10
0.82838
20
-4.95013
11
0.837267
21
-4.95902
0
LINE
8
BLACK
6
CONTINUOUS
10
0.837267
20
-4.95902
11
0.845177
21
-4.96879
0
LINE
8
BLACK
6
CONTINUOUS
10
0.845177
20
-4.96879
11
0.852023
21
-4.97933
0
LINE
8
BLACK
6
CONTINUOUS
10
0.852023
20
-4.97933
11
0.857729
21
-4.99053
0
LINE
8
BLACK
6
CONTINUOUS
10
0.857729
20
-4.99053
11
0.862233
21
-5.00226
0
LINE
8
BLACK
6
CONTINUOUS
10
0.862233
20
-5.00226
11
0.865486
21
-5.0144
0
LINE
8
BLACK
6
CONTINUOUS
10
0.865486
20
-5.0144
11
0.867452
21
-5.02682
0
LINE
8
BLACK
6
CONTINUOUS
10
0.867452
20
-5.02682
11
0.86811
21
-5.03937
0
LINE
8
BLACK
6
CONTINUOUS
10
0.86811
20
-5.03937
11
0.86811
21
-5.11811
0
LINE
8
BLACK
6
CONTINUOUS
10
0.86811
20
-5.11811
11
0.86811
21
-5.12138
0
LINE
8
BLACK
6
CONTINUOUS
10
0.86811
20
-5.12138
11
0.869247
21
-5.12783
0
LINE
8
BLACK
6
CONTINUOUS
10
0.869247
20
-5.12783
11
0.871485
21
-5.13398
0
LINE
8
BLACK
6
CONTINUOUS
10
0.871485
20
-5.13398
11
0.874757
21
-5.13964
0
LINE
8
BLACK
6
CONTINUOUS
10
0.874757
20
-5.13964
11
0.878964
21
-5.14466
0
LINE
8
BLACK
6
CONTINUOUS
10
0.878964
20
-5.14466
11
0.883977
21
-5.14886
0
LINE
8
BLACK
6
CONTINUOUS
10
0.883977
20
-5.14886
11
0.889645
21
-5.15214
0
LINE
8
BLACK
6
CONTINUOUS
10
0.889645
20
-5.15214
11
0.895795
21
-5.15438
0
LINE
8
BLACK
6
CONTINUOUS
10
0.895795
20
-5.15438
11
0.90224
21
-5.15551
0
LINE
8
BLACK
6
CONTINUOUS
10
0.90224
20
-5.15551
11
0.905512
21
-5.15551
0
LINE
8
BLACK
6
CONTINUOUS
10
0.905512
20
-5.15551
11
3.93513
21
-5.15551
0
LINE
8
BLACK
6
CONTINUOUS
10
3.93513
20
-5.15551
11
3.9358
21
-5.14015
0
LINE
8
BLACK
6
CONTINUOUS
10
3.9358
20
-5.14015
11
3.93806
21
-5.12296
0
LINE
8
BLACK
6
CONTINUOUS
10
3.93806
20
-5.12296
11
3.94181
21
-5.10602
0
LINE
8
BLACK
6
CONTINUOUS
10
3.94181
20
-5.10602
11
3.94703
21
-5.08948
0
LINE
8
BLACK
6
CONTINUOUS
10
3.94703
20
-5.08948
11
3.95367
21
-5.07346
0
LINE
8
BLACK
6
CONTINUOUS
10
3.95367
20
-5.07346
11
3.96168
21
-5.05807
0
LINE
8
BLACK
6
CONTINUOUS
10
3.96168
20
-5.05807
11
3.971
21
-5.04344
0
LINE
8
BLACK
6
CONTINUOUS
10
3.971
20
-5.04344
11
3.98155
21
-5.02968
0
LINE
8
BLACK
6
CONTINUOUS
10
3.98155
20
-5.02968
11
3.99327
21
-5.01689
0
LINE
8
BLACK
6
CONTINUOUS
10
3.99327
20
-5.01689
11
4.00606
21
-5.00518
0
LINE
8
BLACK
6
CONTINUOUS
10
4.00606
20
-5.00518
11
4.01982
21
-4.99462
0
LINE
8
BLACK
6
CONTINUOUS
10
4.01982
20
-4.99462
11
4.03445
21
-4.9853
0
LINE
8
BLACK
6
CONTINUOUS
10
4.03445
20
-4.9853
11
4.04983
21
-4.97729
0
LINE
8
BLACK
6
CONTINUOUS
10
4.04983
20
-4.97729
11
4.06586
21
-4.97065
0
LINE
8
BLACK
6
CONTINUOUS
10
4.06586
20
-4.97065
11
4.0824
21
-4.96544
0
LINE
8
BLACK
6
CONTINUOUS
10
4.0824
20
-4.96544
11
4.09933
21
-4.96168
0
LINE
8
BLACK
6
CONTINUOUS
10
4.09933
20
-4.96168
11
4.11653
21
-4.95942
0
LINE
8
BLACK
6
CONTINUOUS
10
4.11653
20
-4.95942
11
4.13386
21
-4.95866
0
LINE
8
BLACK
6
CONTINUOUS
10
4.13386
20
-4.95866
11
4.15119
21
-4.95942
0
LINE
8
BLACK
6
CONTINUOUS
10
4.15119
20
-4.95942
11
4.16838
21
-4.96168
0
LINE
8
BLACK
6
CONTINUOUS
10
4.16838
20
-4.96168
11
4.18532
21
-4.96544
0
LINE
8
BLACK
6
CONTINUOUS
10
4.18532
20
-4.96544
11
4.20186
21
-4.97065
0
LINE
8
BLACK
6
CONTINUOUS
10
4.20186
20
-4.97065
11
4.21788
21
-4.97729
0
LINE
8
BLACK
6
CONTINUOUS
10
4.21788
20
-4.97729
11
4.23327
21
-4.9853
0
LINE
8
BLACK
6
CONTINUOUS
10
4.23327
20
-4.9853
11
4.2479
21
-4.99462
0
LINE
8
BLACK
6
CONTINUOUS
10
4.2479
20
-4.99462
11
4.26166
21
-5.00518
0
LINE
8
BLACK
6
CONTINUOUS
10
4.26166
20
-5.00518
11
4.27444
21
-5.01689
0
LINE
8
BLACK
6
CONTINUOUS
10
4.27444
20
-5.01689
11
4.28616
21
-5.02968
0
LINE
8
BLACK
6
CONTINUOUS
10
4.28616
20
-5.02968
11
4.29672
21
-5.04344
0
LINE
8
BLACK
6
CONTINUOUS
10
4.29672
20
-5.04344
11
4.30604
21
-5.05807
0
LINE
8
BLACK
6
CONTINUOUS
10
4.30604
20
-5.05807
11
4.31405
21
-5.07346
0
LINE
8
BLACK
6
CONTINUOUS
10
4.31405
20
-5.07346
11
4.32069
21
-5.08948
0
LINE
8
BLACK
6
CONTINUOUS
10
4.32069
20
-5.08948
11
4.3259
21
-5.10602
0
LINE
8
BLACK
6
CONTINUOUS
10
4.3259
20
-5.10602
11
4.32966
21
-5.12296
0
LINE
8
BLACK
6
CONTINUOUS
10
4.32966
20
-5.12296
11
4.33192
21
-5.14015
0
LINE
8
BLACK
6
CONTINUOUS
10
4.33192
20
-5.14015
11
4.33259
21
-5.15551
0
LINE
8
BLACK
6
CONTINUOUS
10
4.33259
20
-5.15551
11
7.3622
21
-5.15551
0
LINE
8
BLACK
6
CONTINUOUS
10
7.3622
20
-5.15551
11
7.36548
21
-5.15551
0
LINE
8
BLACK
6
CONTINUOUS
10
7.36548
20
-5.15551
11
7.37192
21
-5.15438
0
LINE
8
BLACK
6
CONTINUOUS
10
7.37192
20
-5.15438
11
7.37807
21
-5.15214
0
LINE
8
BLACK
6
CONTINUOUS
10
7.37807
20
-5.15214
11
7.38374
21
-5.14886
0
LINE
8
BLACK
6
CONTINUOUS
10
7.38374
20
-5.14886
11
7.38875
21
-5.14466
0
LINE
8
BLACK
6
CONTINUOUS
10
7.38875
20
-5.14466
11
7.39296
21
-5.13964
0
LINE
8
BLACK
6
CONTINUOUS
10
7.39296
20
-5.13964
11
7.39623
21
-5.13398
0
LINE
8
BLACK
6
CONTINUOUS
10
7.39623
20
-5.13398
11
7.39847
21
-5.12783
0
LINE
8
BLACK
6
CONTINUOUS
10
7.39847
20
-5.12783
11
7.39961
21
-5.12138
0
LINE
8
BLACK
6
CONTINUOUS
10
7.39961
20
-5.12138
11
7.39961
21
-5.11811
0
LINE
8
BLACK
6
CONTINUOUS
10
7.39961
20
-5.11811
11
7.39961
21
-5.03937
0
LINE
8
BLACK
6
CONTINUOUS
10
7.39961
20
-5.03937
11
7.40026
21
-5.02682
0
LINE
8
BLACK
6
CONTINUOUS
10
7.40026
20
-5.02682
11
7.40223
21
-5.0144
0
LINE
8
BLACK
6
CONTINUOUS
10
7.40223
20
-5.0144
11
7.40548
21
-5.00226
0
LINE
8
BLACK
6
CONTINUOUS
10
7.40548
20
-5.00226
11
7.40999
21
-4.99053
0
LINE
8
BLACK
6
CONTINUOUS
10
7.40999
20
-4.99053
11
7.41569
21
-4.97933
0
LINE
8
BLACK
6
CONTINUOUS
10
7.41569
20
-4.97933
11
7.42254
21
-4.96879
0
LINE
8
BLACK
6
CONTINUOUS
10
7.42254
20
-4.96879
11
7.43045
21
-4.95902
0
LINE
8
BLACK
6
CONTINUOUS
10
7.43045
20
-4.95902
11
7.43934
21
-4.95013
0
LINE
8
BLACK
6
CONTINUOUS
10
7.43934
20
-4.95013
11
7.4491
21
-4.94222
0
LINE
8
BLACK
6
CONTINUOUS
10
7.4491
20
-4.94222
11
7.45965
21
-4.93538
0
LINE
8
BLACK
6
CONTINUOUS
10
7.45965
20
-4.93538
11
7.47084
21
-4.92967
0
LINE
8
BLACK
6
CONTINUOUS
10
7.47084
20
-4.92967
11
7.48258
21
-4.92517
0
LINE
8
BLACK
6
CONTINUOUS
10
7.48258
20
-4.92517
11
7.49472
21
-4.92192
0
LINE
8
BLACK
6
CONTINUOUS
10
7.49472
20
-4.92192
11
7.50713
21
-4.91995
0
LINE
8
BLACK
6
CONTINUOUS
10
7.50713
20
-4.91995
11
7.51969
21
-4.91929
0
LINE
8
BLACK
6
CONTINUOUS
10
7.51969
20
-4.91929
11
7.52296
21
-4.91929
0
LINE
8
BLACK
6
CONTINUOUS
10
7.52296
20
-4.91929
11
7.5294
21
-4.91815
0
LINE
8
BLACK
6
CONTINUOUS
10
7.5294
20
-4.91815
11
7.53555
21
-4.91592
0
LINE
8
BLACK
6
CONTINUOUS
10
7.53555
20
-4.91592
11
7.54122
21
-4.91264
0
LINE
8
BLACK
6
CONTINUOUS
10
7.54122
20
-4.91264
11
7.54623
21
-4.90844
0
LINE
8
BLACK
6
CONTINUOUS
10
7.54623
20
-4.90844
11
7.55044
21
-4.90342
0
LINE
8
BLACK
6
CONTINUOUS
10
7.55044
20
-4.90342
11
7.55371
21
-4.89776
0
LINE
8
BLACK
6
CONTINUOUS
10
7.55371
20
-4.89776
11
7.55595
21
-4.89161
0
LINE
8
BLACK
6
CONTINUOUS
10
7.55595
20
-4.89161
11
7.55709
21
-4.88516
0
LINE
8
BLACK
6
CONTINUOUS
10
7.55709
20
-4.88516
11
7.55709
21
-4.88189
0
LINE
8
BLACK
6
CONTINUOUS
10
7.55709
20
-4.88189
11
7.55709
21
-1.06299
0
LINE
8
BLACK
6
CONTINUOUS
10
7.55709
20
-1.06299
11
7.55709
21
-1.05972
0
LINE
8
BLACK
6
CONTINUOUS
10
7.55709
20
-1.05972
11
7.55595
21
-1.05327
0
LINE
8
BLACK
6
CONTINUOUS
10
7.55595
20
-1.05327
11
7.55371
21
-1.04713
0
LINE
8
BLACK
6
CONTINUOUS
10
7.55371
20
-1.04713
11
7.55044
21
-1.04146
0
LINE
8
BLACK
6
CONTINUOUS
10
7.55044
20
-1.04146
11
7.54623
21
-1.03644
0
LINE
8
BLACK
6
CONTINUOUS
10
7.54623
20
-1.03644
11
7.54122
21
-1.03224
0
LINE
8
BLACK
6
CONTINUOUS
10
7.54122
20
-1.03224
11
7.53555
21
-1.02897
0
LINE
8
BLACK
6
CONTINUOUS
10
7.53555
20
-1.02897
11
7.5294
21
-1.02673
0
LINE
8
BLACK
6
CONTINUOUS
10
7.5294
20
-1.02673
11
7.52296
21
-1.02559
0
LINE
8
BLACK
6
CONTINUOUS
10
7.52296
20
-1.02559
11
7.51969
21
-1.02559
0
LINE
8
BLACK
6
CONTINUOUS
10
7.51969
20
-1.02559
11
7.50713
21
-1.02493
0
LINE
8
BLACK
6
CONTINUOUS
10
7.50713
20
-1.02493
11
7.49472
21
-1.02297
0
LINE
8
BLACK
6
CONTINUOUS
10
7.49472
20
-1.02297
11
7.48258
21
-1.01971
0
LINE
8
BLACK
6
CONTINUOUS
10
7.48258
20
-1.01971
11
7.47084
21
-1.01521
0
LINE
8
BLACK
6
CONTINUOUS
10
7.47084
20
-1.01521
11
7.45965
21
-1.0095
0
LINE
8
BLACK
6
CONTINUOUS
10
7.45965
20
-1.0095
11
7.4491
21
-1.00266
0
LINE
8
BLACK
6
CONTINUOUS
10
7.4491
20
-1.00266
11
7.43934
21
-0.994748
0
LINE
8
BLACK
6
CONTINUOUS
10
7.43934
20
-0.994748
11
7.43045
21
-0.98586
0
LINE
8
BLACK
6
CONTINUOUS
10
7.43045
20
-0.98586
11
7.42254
21
-0.976092
0
LINE
8
BLACK
6
CONTINUOUS
10
7.42254
20
-0.976092
11
7.41569
21
-0.965551
0
LINE
8
BLACK
6
CONTINUOUS
10
7.41569
20
-0.965551
11
7.40999
21
-0.954352
0
LINE
8
BLACK
6
CONTINUOUS
10
7.40999
20
-0.954352
11
7.40548
21
-0.942618
0
LINE
8
BLACK
6
CONTINUOUS
10
7.40548
20
-0.942618
11
7.40223
21
-0.930478
0
LINE
8
BLACK
6
CONTINUOUS
10
7.40223
20
-0.930478
11
7.40026
21
-0.918063
0
LINE
8
BLACK
6
CONTINUOUS
10
7.40026
20
-0.918063
11
7.39961
21
-0.905512
0
LINE
8
BLACK
6
CONTINUOUS
10
7.39961
20
-0.905512
11
7.39961
21
-0.826772
0
LINE
8
BLACK
6
CONTINUOUS
10
7.39961
20
-0.826772
11
7.39961
21
-0.823499
0
LINE
8
BLACK
6
CONTINUOUS
10
7.39961
20
-0.823499
11
7.39847
21
-0.817054
0
LINE
8
BLACK
6
CONTINUOUS
10
7.39847
20
-0.817054
11
7.39623
21
-0.810905
0
LINE
8
BLACK
6
CONTINUOUS
10
7.39623
20
-0.810905
11
7.39296
21
-0.805237
0
LINE
8
BLACK
6
CONTINUOUS
10
7.39296
20
-0.805237
11
7.38875
21
-0.800224
0
LINE
8
BLACK
6
CONTINUOUS
10
7.38875
20
-0.800224
11
7.38374
21
-0.796017
0
LINE
8
BLACK
6
CONTINUOUS
10
7.38374
20
-0.796017
11
7.37807
21
-0.792745
0
LINE
8
BLACK
6
CONTINUOUS
10
7.37807
20
-0.792745
11
7.37192
21
-0.790506
0
LINE
8
BLACK
6
CONTINUOUS
10
7.37192
20
-0.790506
11
7.36548
21
-0.78937
0
LINE
8
BLACK
6
CONTINUOUS
10
7.36548
20
-0.78937
11
7.3622
21
-0.78937
0
LINE
8
BLACK
6
CONTINUOUS
10
7.3622
20
-0.78937
11
4.81299
21
-0.78937
0
LINE
8
BLACK
6
CONTINUOUS
10
4.81299
20
-0.78937
11
4.81299
21
-0.826772
0
LINE
8
BLACK
6
CONTINUOUS
10
4.81299
20
-0.826772
11
4.81239
21
-0.831357
0
LINE
8
BLACK
6
CONTINUOUS
10
4.81239
20
-0.831357
11
4.81062
21
-0.83563
0
LINE
8
BLACK
6
CONTINUOUS
10
4.81062
20
-0.83563
11
4.8078
21
-0.839299
0
LINE
8
BLACK
6
CONTINUOUS
10
4.8078
20
-0.839299
11
4.80413
21
-0.842115
0
LINE
8
BLACK
6
CONTINUOUS
10
4.80413
20
-0.842115
11
4.79986
21
-0.843885
0
LINE
8
BLACK
6
CONTINUOUS
10
4.79986
20
-0.843885
11
4.79528
21
-0.844488
0
LINE
8
BLACK
6
CONTINUOUS
10
4.79528
20
-0.844488
11
4.79528
21
-0.844488
0
LINE
8
BLACK
6
CONTINUOUS
10
4.79528
20
-0.844488
11
4.65354
21
-0.844488
0
LINE
8
BLACK
6
CONTINUOUS
10
4.65354
20
-0.844488
11
4.64896
21
-0.843885
0
LINE
8
BLACK
6
CONTINUOUS
10
4.64896
20
-0.843885
11
4.64469
21
-0.842115
0
LINE
8
BLACK
6
CONTINUOUS
10
4.64469
20
-0.842115
11
4.64102
21
-0.839299
0
LINE
8
BLACK
6
CONTINUOUS
10
4.64102
20
-0.839299
11
4.6382
21
-0.83563
0
LINE
8
BLACK
6
CONTINUOUS
10
4.6382
20
-0.83563
11
4.63643
21
-0.831357
0
LINE
8
BLACK
6
CONTINUOUS
10
4.63643
20
-0.831357
11
4.63583
21
-0.826772
0
LINE
8
BLACK
6
CONTINUOUS
10
4.63583
20
-0.826772
11
4.63583
21
-0.78937
0
LINE
8
BLACK
6
CONTINUOUS
10
4.63583
20
-0.78937
11
4.33259
21
-0.78937
0
LINE
8
BLACK
6
CONTINUOUS
10
4.33259
20
-0.78937
11
4.33192
21
-0.80473
0
LINE
8
BLACK
6
CONTINUOUS
10
4.33192
20
-0.80473
11
4.32966
21
-0.821926
0
LINE
8
BLACK
6
CONTINUOUS
10
4.32966
20
-0.821926
11
4.3259
21
-0.83886
0
LINE
8
BLACK
6
CONTINUOUS
10
4.3259
20
-0.83886
11
4.32069
21
-0.855402
0
LINE
8
BLACK
6
CONTINUOUS
10
4.32069
20
-0.855402
11
4.31405
21
-0.871426
0
LINE
8
BLACK
6
CONTINUOUS
10
4.31405
20
-0.871426
11
4.30604
21
-0.886811
0
LINE
8
BLACK
6
CONTINUOUS
10
4.30604
20
-0.886811
11
4.29672
21
-0.901439
0
LINE
8
BLACK
6
CONTINUOUS
10
4.29672
20
-0.901439
11
4.28616
21
-0.9152
0
LINE
8
BLACK
6
CONTINUOUS
10
4.28616
20
-0.9152
11
4.27444
21
-0.927988
0
LINE
8
BLACK
6
CONTINUOUS
10
4.27444
20
-0.927988
11
4.26166
21
-0.939706
0
LINE
8
BLACK
6
CONTINUOUS
10
4.26166
20
-0.939706
11
4.2479
21
-0.950264
0
LINE
8
BLACK
6
CONTINUOUS
10
4.2479
20
-0.950264
11
4.23327
21
-0.959584
0
LINE
8
BLACK
6
CONTINUOUS
10
4.23327
20
-0.959584
11
4.21788
21
-0.967593
0
LINE
8
BLACK
6
CONTINUOUS
10
4.21788
20
-0.967593
11
4.20186
21
-0.97423
0
LINE
8
BLACK
6
CONTINUOUS
10
4.20186
20
-0.97423
11
4.18532
21
-0.979446
0
LINE
8
BLACK
6
CONTINUOUS
10
4.18532
20
-0.979446
11
4.16838
21
-0.9832
0
LINE
8
BLACK
6
CONTINUOUS
10
4.16838
20
-0.9832
11
4.15119
21
-0.985464
0
LINE
8
BLACK
6
CONTINUOUS
10
4.15119
20
-0.985464
11
4.13386
21
-0.98622
0
LINE
8
BLACK
6
CONTINUOUS
10
4.13386
20
-0.98622
11
4.11653
21
-0.985464
0
LINE
8
BLACK
6
CONTINUOUS
10
4.11653
20
-0.985464
11
4.09933
21
-0.9832
0
LINE
8
BLACK
6
CONTINUOUS
10
4.09933
20
-0.9832
11
4.0824
21
-0.979446
0
LINE
8
BLACK
6
CONTINUOUS
10
4.0824
20
-0.979446
11
4.06586
21
-0.97423
0
LINE
8
BLACK
6
CONTINUOUS
10
4.06586
20
-0.97423
11
4.04983
21
-0.967593
0
LINE
8
BLACK
6
CONTINUOUS
10
4.04983
20
-0.967593
11
4.03445
21
-0.959584
0
LINE
8
BLACK
6
CONTINUOUS
10
4.03445
20
-0.959584
11
4.01982
21
-0.950264
0
LINE
8
BLACK
6
CONTINUOUS
10
4.01982
20
-0.950264
11
4.00606
21
-0.939706
0
LINE
8
BLACK
6
CONTINUOUS
10
4.00606
20
-0.939706
11
3.99327
21
-0.927988
0
LINE
8
BLACK
6
CONTINUOUS
10
3.99327
20
-0.927988
11
3.98155
21
-0.9152
0
LINE
8
BLACK
6
CONTINUOUS
10
3.98155
20
-0.9152
11
3.971
21
-0.901439
0
LINE
8
BLACK
6
CONTINUOUS
10
3.971
20
-0.901439
11
3.96168
21
-0.886811
0
LINE
8
BLACK
6
CONTINUOUS
10
3.96168
20
-0.886811
11
3.95367
21
-0.871426
0
LINE
8
BLACK
6
CONTINUOUS
10
3.95367
20
-0.871426
11
3.94703
21
-0.855402
0
LINE
8
BLACK
6
CONTINUOUS
10
3.94703
20
-0.855402
11
3.94181
21
-0.83886
0
LINE
8
BLACK
6
CONTINUOUS
10
3.94181
20
-0.83886
11
3.93806
21
-0.821926
0
LINE
8
BLACK
6
CONTINUOUS
10
3.93806
20
-0.821926
11
3.9358
21
-0.80473
0
LINE
8
BLACK
6
CONTINUOUS
10
3.9358
20
-0.80473
11
3.93513
21
-0.78937
0
LINE
8
BLACK
6
CONTINUOUS
10
3.93513
20
-0.78937
11
3.63189
21
-0.78937
0
LINE
8
BLACK
6
CONTINUOUS
10
3.63189
20
-0.78937
11
3.63189
21
-0.826772
0
LINE
8
BLACK
6
CONTINUOUS
10
3.63189
20
-0.826772
11
3.63129
21
-0.831357
0
LINE
8
BLACK
6
CONTINUOUS
10
3.63129
20
-0.831357
11
3.62952
21
-0.83563
0
LINE
8
BLACK
6
CONTINUOUS
10
3.62952
20
-0.83563
11
3.6267
21
-0.839299
0
LINE
8
BLACK
6
CONTINUOUS
10
3.6267
20
-0.839299
11
3.62303
21
-0.842115
0
LINE
8
BLACK
6
CONTINUOUS
10
3.62303
20
-0.842115
11
3.61876
21
-0.843885
0
LINE
8
BLACK
6
CONTINUOUS
10
3.61876
20
-0.843885
11
3.61417
21
-0.844488
0
LINE
8
BLACK
6
CONTINUOUS
10
3.61417
20
-0.844488
11
3.47244
21
-0.844488
0
LINE
8
BLACK
6
CONTINUOUS
10
3.47244
20
-0.844488
11
3.46786
21
-0.843885
0
LINE
8
BLACK
6
CONTINUOUS
10
3.46786
20
-0.843885
11
3.46358
21
-0.842115
0
LINE
8
BLACK
6
CONTINUOUS
10
3.46358
20
-0.842115
11
3.45991
21
-0.839299
0
LINE
8
BLACK
6
CONTINUOUS
10
3.45991
20
-0.839299
11
3.4571
21
-0.83563
0
LINE
8
BLACK
6
CONTINUOUS
10
3.4571
20
-0.83563
11
3.45533
21
-0.831357
0
LINE
8
BLACK
6
CONTINUOUS
10
3.45533
20
-0.831357
11
3.45472
21
-0.826772
0
LINE
8
BLACK
6
CONTINUOUS
10
3.45472
20
-0.826772
11
3.45472
21
-0.78937
0
LINE
8
BLACK
6
CONTINUOUS
10
3.45472
20
-0.78937
11
0.905512
21
-0.78937
  0
ENDSEC
  0
EOF
