  0
SECTION
  2
HEADER
  9
$ANGBASE
  50
0.0
  9
$ANGDIR
  70
1
  9
$MEASUREMENT
  70
0
  0
ENDSEC
  0
SECTION
  2
TABLES
  0
TABLE
  2
LTYPE
  70
4
  0
LTYPE
  5
40F
  2
CONTINUOUS
  70
0
  3
Solid line
  72
65
  73
0
  40
0.0
  0
LTYPE
  5
410
  2
DASHDOT
 70
0
  3
Dash Dot ____ _ ____ _
 72
65
 73
4
 40
2.0
 49
1.25
 49
-0.25
 49
0.25
 49
-0.25
  0
LTYPE
  5
411
  2
DASHED
 70
0
  3
Dashed __ __ __ __ __
 72
65
 73
2
 40
0.75
 49
0.5
 49
-0.25
  0
LTYPE
  5
43B
  2
DOTTED
 70
0
  3
Dotted .  .  .  .
 72
65
 73
2
 40
0.2
 49
0.0
 49
-0.2
  0
ENDTAB
  0
TABLE
  2
STYLE
  70
4
  0
STYLE
  2
KICAD
  70
0
  40
0
  41
1
  42
1
  50
0
  71
0
  3
isocp.shx
  0
STYLE
  2
KICADB
  70
0
  40
0
  41
1
  42
1
  50
0
  71
0
  3
isocp.shx
  0
STYLE
  2
KICADI
  70
0
  40
0
  41
1
  42
1
  50
15
  71
0
  3
isocp.shx
  0
STYLE
  2
KICADBI
  70
0
  40
0
  41
1
  42
1
  50
15
  71
0
  3
isocp.shx
  0
ENDTAB
  0
TABLE
  2
LAYER
  70
1
  0
LAYER
  2
BLACK
  70
0
  62
7
  6
CONTINUOUS
  0
ENDTAB
  0
ENDSEC
  0
SECTION
  2
ENTITIES
0
LINE
8
BLACK
6
CONTINUOUS
10
1.80512
20
-4.89075
11
1.80581
21
-4.89104
0
LINE
8
BLACK
6
CONTINUOUS
10
1.80581
20
-4.89104
11
1.8061
21
-4.89173
0
LINE
8
BLACK
6
CONTINUOUS
10
1.8061
20
-4.89173
11
1.8061
21
-5.15748
0
LINE
8
BLACK
6
CONTINUOUS
10
1.8061
20
-5.15748
11
1.80581
21
-5.15818
0
LINE
8
BLACK
6
CONTINUOUS
10
1.80581
20
-5.15818
11
1.80512
21
-5.15846
0
LINE
8
BLACK
6
CONTINUOUS
10
1.80512
20
-5.15846
11
1.37598
21
-5.15846
0
LINE
8
BLACK
6
CONTINUOUS
10
1.37598
20
-5.15846
11
1.37529
21
-5.15818
0
LINE
8
BLACK
6
CONTINUOUS
10
1.37529
20
-5.15818
11
1.375
21
-5.15748
0
LINE
8
BLACK
6
CONTINUOUS
10
1.375
20
-5.15748
11
1.375
21
-4.89173
0
LINE
8
BLACK
6
CONTINUOUS
10
1.375
20
-4.89173
11
1.37529
21
-4.89104
0
LINE
8
BLACK
6
CONTINUOUS
10
1.37529
20
-4.89104
11
1.37598
21
-4.89075
0
LINE
8
BLACK
6
CONTINUOUS
10
1.37598
20
-4.89075
11
1.80512
21
-4.89075
0
LINE
8
BLACK
6
CONTINUOUS
10
1.37697
20
-4.89272
11
1.37697
21
-5.1565
0
LINE
8
BLACK
6
CONTINUOUS
10
1.37697
20
-5.1565
11
1.80413
21
-5.1565
0
LINE
8
BLACK
6
CONTINUOUS
10
1.80413
20
-5.1565
11
1.80413
21
-4.89272
0
LINE
8
BLACK
6
CONTINUOUS
10
1.80413
20
-4.89272
11
1.37697
21
-4.89272
0
LINE
8
BLACK
6
CONTINUOUS
10
6.2689
20
-4.62069
11
6.26959
21
-4.62098
0
LINE
8
BLACK
6
CONTINUOUS
10
6.26959
20
-4.62098
11
6.26988
21
-4.62168
0
LINE
8
BLACK
6
CONTINUOUS
10
6.26988
20
-4.62168
11
6.26988
21
-4.86183
0
LINE
8
BLACK
6
CONTINUOUS
10
6.26988
20
-4.86183
11
6.26959
21
-4.86253
0
LINE
8
BLACK
6
CONTINUOUS
10
6.26959
20
-4.86253
11
6.2689
21
-4.86282
0
LINE
8
BLACK
6
CONTINUOUS
10
6.2689
20
-4.86282
11
5.92835
21
-4.86282
0
LINE
8
BLACK
6
CONTINUOUS
10
5.92835
20
-4.86282
11
5.92765
21
-4.86253
0
LINE
8
BLACK
6
CONTINUOUS
10
5.92765
20
-4.86253
11
5.92736
21
-4.86183
0
LINE
8
BLACK
6
CONTINUOUS
10
5.92736
20
-4.86183
11
5.92736
21
-4.62168
0
LINE
8
BLACK
6
CONTINUOUS
10
5.92736
20
-4.62168
11
5.92765
21
-4.62098
0
LINE
8
BLACK
6
CONTINUOUS
10
5.92765
20
-4.62098
11
5.92835
21
-4.62069
0
LINE
8
BLACK
6
CONTINUOUS
10
5.92835
20
-4.62069
11
6.2689
21
-4.62069
0
LINE
8
BLACK
6
CONTINUOUS
10
5.92933
20
-4.62266
11
5.92933
21
-4.86085
0
LINE
8
BLACK
6
CONTINUOUS
10
5.92933
20
-4.86085
11
6.26791
21
-4.86085
0
LINE
8
BLACK
6
CONTINUOUS
10
6.26791
20
-4.86085
11
6.26791
21
-4.62266
0
LINE
8
BLACK
6
CONTINUOUS
10
6.26791
20
-4.62266
11
5.92933
21
-4.62266
0
LINE
8
BLACK
6
CONTINUOUS
10
4.80354
20
-2.6201
11
4.80424
21
-2.62039
0
LINE
8
BLACK
6
CONTINUOUS
10
4.80424
20
-2.62039
11
4.80453
21
-2.62109
0
LINE
8
BLACK
6
CONTINUOUS
10
4.80453
20
-2.62109
11
4.80453
21
-4.66046
0
LINE
8
BLACK
6
CONTINUOUS
10
4.80453
20
-4.66046
11
4.80424
21
-4.66115
0
LINE
8
BLACK
6
CONTINUOUS
10
4.80424
20
-4.66115
11
4.80354
21
-4.66144
0
LINE
8
BLACK
6
CONTINUOUS
10
4.80354
20
-4.66144
11
4.56339
21
-4.66144
0
LINE
8
BLACK
6
CONTINUOUS
10
4.56339
20
-4.66144
11
4.56269
21
-4.66115
0
LINE
8
BLACK
6
CONTINUOUS
10
4.56269
20
-4.66115
11
4.5624
21
-4.66046
0
LINE
8
BLACK
6
CONTINUOUS
10
4.5624
20
-4.66046
11
4.5624
21
-2.62109
0
LINE
8
BLACK
6
CONTINUOUS
10
4.5624
20
-2.62109
11
4.56269
21
-2.62039
0
LINE
8
BLACK
6
CONTINUOUS
10
4.56269
20
-2.62039
11
4.56339
21
-2.6201
0
LINE
8
BLACK
6
CONTINUOUS
10
4.56339
20
-2.6201
11
4.80354
21
-2.6201
0
LINE
8
BLACK
6
CONTINUOUS
10
4.56437
20
-2.62207
11
4.56437
21
-4.65947
0
LINE
8
BLACK
6
CONTINUOUS
10
4.56437
20
-4.65947
11
4.80256
21
-4.65947
0
LINE
8
BLACK
6
CONTINUOUS
10
4.80256
20
-4.65947
11
4.80256
21
-2.62207
0
LINE
8
BLACK
6
CONTINUOUS
10
4.80256
20
-2.62207
11
4.56437
21
-2.62207
0
LINE
8
BLACK
6
CONTINUOUS
10
6.23287
20
-2.87483
11
6.23357
21
-2.87512
0
LINE
8
BLACK
6
CONTINUOUS
10
6.23357
20
-2.87512
11
6.23386
21
-2.87581
0
LINE
8
BLACK
6
CONTINUOUS
10
6.23386
20
-2.87581
11
6.23386
21
-3.21636
0
LINE
8
BLACK
6
CONTINUOUS
10
6.23386
20
-3.21636
11
6.23357
21
-3.21706
0
LINE
8
BLACK
6
CONTINUOUS
10
6.23357
20
-3.21706
11
6.23287
21
-3.21735
0
LINE
8
BLACK
6
CONTINUOUS
10
6.23287
20
-3.21735
11
5.99272
21
-3.21735
0
LINE
8
BLACK
6
CONTINUOUS
10
5.99272
20
-3.21735
11
5.99202
21
-3.21706
0
LINE
8
BLACK
6
CONTINUOUS
10
5.99202
20
-3.21706
11
5.99173
21
-3.21636
0
LINE
8
BLACK
6
CONTINUOUS
10
5.99173
20
-3.21636
11
5.99173
21
-2.87581
0
LINE
8
BLACK
6
CONTINUOUS
10
5.99173
20
-2.87581
11
5.99202
21
-2.87512
0
LINE
8
BLACK
6
CONTINUOUS
10
5.99202
20
-2.87512
11
5.99272
21
-2.87483
0
LINE
8
BLACK
6
CONTINUOUS
10
5.99272
20
-2.87483
11
6.23287
21
-2.87483
0
LINE
8
BLACK
6
CONTINUOUS
10
5.9937
20
-2.8768
11
5.9937
21
-3.21538
0
LINE
8
BLACK
6
CONTINUOUS
10
5.9937
20
-3.21538
11
6.23189
21
-3.21538
0
LINE
8
BLACK
6
CONTINUOUS
10
6.23189
20
-3.21538
11
6.23189
21
-2.8768
0
LINE
8
BLACK
6
CONTINUOUS
10
6.23189
20
-2.8768
11
5.9937
21
-2.8768
0
LINE
8
BLACK
6
CONTINUOUS
10
2.0689
20
-1.31299
11
2.06959
21
-1.31328
0
LINE
8
BLACK
6
CONTINUOUS
10
2.06959
20
-1.31328
11
2.06988
21
-1.31398
0
LINE
8
BLACK
6
CONTINUOUS
10
2.06988
20
-1.31398
11
2.06988
21
-1.57972
0
LINE
8
BLACK
6
CONTINUOUS
10
2.06988
20
-1.57972
11
2.06959
21
-1.58042
0
LINE
8
BLACK
6
CONTINUOUS
10
2.06959
20
-1.58042
11
2.0689
21
-1.58071
0
LINE
8
BLACK
6
CONTINUOUS
10
2.0689
20
-1.58071
11
1.63976
21
-1.58071
0
LINE
8
BLACK
6
CONTINUOUS
10
1.63976
20
-1.58071
11
1.63907
21
-1.58042
0
LINE
8
BLACK
6
CONTINUOUS
10
1.63907
20
-1.58042
11
1.63878
21
-1.57972
0
LINE
8
BLACK
6
CONTINUOUS
10
1.63878
20
-1.57972
11
1.63878
21
-1.31398
0
LINE
8
BLACK
6
CONTINUOUS
10
1.63878
20
-1.31398
11
1.63907
21
-1.31328
0
LINE
8
BLACK
6
CONTINUOUS
10
1.63907
20
-1.31328
11
1.63976
21
-1.31299
0
LINE
8
BLACK
6
CONTINUOUS
10
1.63976
20
-1.31299
11
2.0689
21
-1.31299
0
LINE
8
BLACK
6
CONTINUOUS
10
1.64075
20
-1.31496
11
1.64075
21
-1.57874
0
LINE
8
BLACK
6
CONTINUOUS
10
1.64075
20
-1.57874
11
2.06791
21
-1.57874
0
LINE
8
BLACK
6
CONTINUOUS
10
2.06791
20
-1.57874
11
2.06791
21
-1.31496
0
LINE
8
BLACK
6
CONTINUOUS
10
2.06791
20
-1.31496
11
1.64075
21
-1.31496
0
LINE
8
BLACK
6
CONTINUOUS
10
2.0689
20
-1.00787
11
2.06959
21
-1.00816
0
LINE
8
BLACK
6
CONTINUOUS
10
2.06959
20
-1.00816
11
2.06988
21
-1.00886
0
LINE
8
BLACK
6
CONTINUOUS
10
2.06988
20
-1.00886
11
2.06988
21
-1.27461
0
LINE
8
BLACK
6
CONTINUOUS
10
2.06988
20
-1.27461
11
2.06959
21
-1.2753
0
LINE
8
BLACK
6
CONTINUOUS
10
2.06959
20
-1.2753
11
2.0689
21
-1.27559
0
LINE
8
BLACK
6
CONTINUOUS
10
2.0689
20
-1.27559
11
1.63976
21
-1.27559
0
LINE
8
BLACK
6
CONTINUOUS
10
1.63976
20
-1.27559
11
1.63907
21
-1.2753
0
LINE
8
BLACK
6
CONTINUOUS
10
1.63907
20
-1.2753
11
1.63878
21
-1.27461
0
LINE
8
BLACK
6
CONTINUOUS
10
1.63878
20
-1.27461
11
1.63878
21
-1.00886
0
LINE
8
BLACK
6
CONTINUOUS
10
1.63878
20
-1.00886
11
1.63907
21
-1.00816
0
LINE
8
BLACK
6
CONTINUOUS
10
1.63907
20
-1.00816
11
1.63976
21
-1.00787
0
LINE
8
BLACK
6
CONTINUOUS
10
1.63976
20
-1.00787
11
2.0689
21
-1.00787
0
LINE
8
BLACK
6
CONTINUOUS
10
1.64075
20
-1.00984
11
1.64075
21
-1.27362
0
LINE
8
BLACK
6
CONTINUOUS
10
1.64075
20
-1.27362
11
2.06791
21
-1.27362
0
LINE
8
BLACK
6
CONTINUOUS
10
2.06791
20
-1.27362
11
2.06791
21
-1.00984
0
LINE
8
BLACK
6
CONTINUOUS
10
2.06791
20
-1.00984
11
1.64075
21
-1.00984
  0
ENDSEC
  0
EOF
