<?xml version="1.0" standalone="no"?>
 <!DOCTYPE svg PUBLIC "-//W3C//DTD SVG 1.1//EN" 
 "http://www.w3.org/Graphics/SVG/1.1/DTD/svg11.dtd"> 
<svg
  xmlns:svg="http://www.w3.org/2000/svg"
  xmlns="http://www.w3.org/2000/svg"
  xmlns:xlink="http://www.w3.org/1999/xlink"
  version="1.1"
  width="297.0022mm" height="210.0072mm" viewBox="0.0000 0.0000 297.0022 210.0072">
<title>SVG Image created as pedalboard-hw-B_Silkscreen.svg date 2023/10/19 21:49:08 </title>
  <desc>Image generated by PCBNEW </desc>
<g style="fill:#000000; fill-opacity:1.0000;stroke:#000000; stroke-opacity:1.0000;
stroke-linecap:round; stroke-linejoin:round;"
 transform="translate(0 0) scale(1 1)">
</g>
<g style="fill:#000000; fill-opacity:0.0; 
stroke:#000000; stroke-width:0.0000; stroke-opacity:1; 
stroke-linecap:round; stroke-linejoin:round;">
</g>
<g style="fill:#000000; fill-opacity:0.0; 
stroke:#000000; stroke-width:0.1500; stroke-opacity:1; 
stroke-linecap:round; stroke-linejoin:round;">
<g transform="rotate(90.000000 255.0022 123.0000)">
<text x="255.0022" y="123.0000"
transform="scale(-1 1) translate(-510.004400 0)"
textLength="3.2976" font-size="1.3333" lengthAdjust="spacingAndGlyphs"
text-anchor="start" opacity="0">GND</text>
</g>
<g class="stroked-text"><desc>GND</desc>
<path d="M253.9196 122.1394
L253.8720 122.2346
" />
<path d="M253.8720 122.2346
L253.8720 122.3775
" />
<path d="M253.8720 122.3775
L253.9196 122.5204
" />
<path d="M253.9196 122.5204
L254.0149 122.6156
" />
<path d="M254.0149 122.6156
L254.1101 122.6632
" />
<path d="M254.1101 122.6632
L254.3006 122.7108
" />
<path d="M254.3006 122.7108
L254.4434 122.7108
" />
<path d="M254.4434 122.7108
L254.6339 122.6632
" />
<path d="M254.6339 122.6632
L254.7292 122.6156
" />
<path d="M254.7292 122.6156
L254.8244 122.5204
" />
<path d="M254.8244 122.5204
L254.8720 122.3775
" />
<path d="M254.8720 122.3775
L254.8720 122.2823
" />
<path d="M254.8720 122.2823
L254.8244 122.1394
" />
<path d="M254.8244 122.1394
L254.7768 122.0918
" />
<path d="M254.7768 122.0918
L254.4434 122.0918
" />
<path d="M254.4434 122.0918
L254.4434 122.2823
" />
<path d="M254.8720 121.6632
L253.8720 121.6632
" />
<path d="M253.8720 121.6632
L254.8720 121.0918
" />
<path d="M254.8720 121.0918
L253.8720 121.0918
" />
<path d="M254.8720 120.6156
L253.8720 120.6156
" />
<path d="M253.8720 120.6156
L253.8720 120.3775
" />
<path d="M253.8720 120.3775
L253.9196 120.2346
" />
<path d="M253.9196 120.2346
L254.0149 120.1394
" />
<path d="M254.0149 120.1394
L254.1101 120.0918
" />
<path d="M254.1101 120.0918
L254.3006 120.0442
" />
<path d="M254.3006 120.0442
L254.4434 120.0442
" />
<path d="M254.4434 120.0442
L254.6339 120.0918
" />
<path d="M254.6339 120.0918
L254.7292 120.1394
" />
<path d="M254.7292 120.1394
L254.8244 120.2346
" />
<path d="M254.8244 120.2346
L254.8720 120.3775
" />
<path d="M254.8720 120.3775
L254.8720 120.6156
" />
</g><g transform="rotate(90.000000 257.1194 123.0000)">
<text x="257.1194" y="123.0000"
transform="scale(-1 1) translate(-514.238800 0)"
textLength="6.7738" font-size="1.3333" lengthAdjust="spacingAndGlyphs"
text-anchor="start" opacity="0">Data out</text>
</g>
<g class="stroked-text"><desc>Data out</desc>
<path d="M256.9892 122.6632
L255.9892 122.6632
" />
<path d="M255.9892 122.6632
L255.9892 122.4251
" />
<path d="M255.9892 122.4251
L256.0368 122.2823
" />
<path d="M256.0368 122.2823
L256.1321 122.1870
" />
<path d="M256.1321 122.1870
L256.2273 122.1394
" />
<path d="M256.2273 122.1394
L256.4178 122.0918
" />
<path d="M256.4178 122.0918
L256.5606 122.0918
" />
<path d="M256.5606 122.0918
L256.7511 122.1394
" />
<path d="M256.7511 122.1394
L256.8464 122.1870
" />
<path d="M256.8464 122.1870
L256.9416 122.2823
" />
<path d="M256.9416 122.2823
L256.9892 122.4251
" />
<path d="M256.9892 122.4251
L256.9892 122.6632
" />
<path d="M256.9892 121.2346
L256.4654 121.2346
" />
<path d="M256.4654 121.2346
L256.3702 121.2823
" />
<path d="M256.3702 121.2823
L256.3226 121.3775
" />
<path d="M256.3226 121.3775
L256.3226 121.5680
" />
<path d="M256.3226 121.5680
L256.3702 121.6632
" />
<path d="M256.9416 121.2346
L256.9892 121.3299
" />
<path d="M256.9892 121.3299
L256.9892 121.5680
" />
<path d="M256.9892 121.5680
L256.9416 121.6632
" />
<path d="M256.9416 121.6632
L256.8464 121.7108
" />
<path d="M256.8464 121.7108
L256.7511 121.7108
" />
<path d="M256.7511 121.7108
L256.6559 121.6632
" />
<path d="M256.6559 121.6632
L256.6083 121.5680
" />
<path d="M256.6083 121.5680
L256.6083 121.3299
" />
<path d="M256.6083 121.3299
L256.5606 121.2346
" />
<path d="M256.3226 120.9013
L256.3226 120.5204
" />
<path d="M255.9892 120.7585
L256.8464 120.7585
" />
<path d="M256.8464 120.7585
L256.9416 120.7108
" />
<path d="M256.9416 120.7108
L256.9892 120.6156
" />
<path d="M256.9892 120.6156
L256.9892 120.5204
" />
<path d="M256.9892 119.7585
L256.4654 119.7585
" />
<path d="M256.4654 119.7585
L256.3702 119.8061
" />
<path d="M256.3702 119.8061
L256.3226 119.9013
" />
<path d="M256.3226 119.9013
L256.3226 120.0918
" />
<path d="M256.3226 120.0918
L256.3702 120.1870
" />
<path d="M256.9416 119.7585
L256.9892 119.8537
" />
<path d="M256.9892 119.8537
L256.9892 120.0918
" />
<path d="M256.9892 120.0918
L256.9416 120.1870
" />
<path d="M256.9416 120.1870
L256.8464 120.2346
" />
<path d="M256.8464 120.2346
L256.7511 120.2346
" />
<path d="M256.7511 120.2346
L256.6559 120.1870
" />
<path d="M256.6559 120.1870
L256.6083 120.0918
" />
<path d="M256.6083 120.0918
L256.6083 119.8537
" />
<path d="M256.6083 119.8537
L256.5606 119.7585
" />
<path d="M256.9892 118.3775
L256.9416 118.4727
" />
<path d="M256.9416 118.4727
L256.8940 118.5204
" />
<path d="M256.8940 118.5204
L256.7987 118.5680
" />
<path d="M256.7987 118.5680
L256.5130 118.5680
" />
<path d="M256.5130 118.5680
L256.4178 118.5204
" />
<path d="M256.4178 118.5204
L256.3702 118.4727
" />
<path d="M256.3702 118.4727
L256.3226 118.3775
" />
<path d="M256.3226 118.3775
L256.3226 118.2346
" />
<path d="M256.3226 118.2346
L256.3702 118.1394
" />
<path d="M256.3702 118.1394
L256.4178 118.0918
" />
<path d="M256.4178 118.0918
L256.5130 118.0442
" />
<path d="M256.5130 118.0442
L256.7987 118.0442
" />
<path d="M256.7987 118.0442
L256.8940 118.0918
" />
<path d="M256.8940 118.0918
L256.9416 118.1394
" />
<path d="M256.9416 118.1394
L256.9892 118.2346
" />
<path d="M256.9892 118.2346
L256.9892 118.3775
" />
<path d="M256.3226 117.1870
L256.9892 117.1870
" />
<path d="M256.3226 117.6156
L256.8464 117.6156
" />
<path d="M256.8464 117.6156
L256.9416 117.5680
" />
<path d="M256.9416 117.5680
L256.9892 117.4727
" />
<path d="M256.9892 117.4727
L256.9892 117.3299
" />
<path d="M256.9892 117.3299
L256.9416 117.2346
" />
<path d="M256.9416 117.2346
L256.8940 117.1870
" />
<path d="M256.3226 116.8537
L256.3226 116.4727
" />
<path d="M255.9892 116.7108
L256.8464 116.7108
" />
<path d="M256.8464 116.7108
L256.9416 116.6632
" />
<path d="M256.9416 116.6632
L256.9892 116.5680
" />
<path d="M256.9892 116.5680
L256.9892 116.4727
" />
</g><text x="242.0022" y="29.0000"
transform="scale(-1 1) translate(-484.004400 0)"
textLength="1.7738" font-size="1.3333" lengthAdjust="spacingAndGlyphs"
text-anchor="start" opacity="0">IN</text>
<g class="stroked-text"><desc>IN</desc>
<path d="M242.3390 28.8698
L242.3390 27.8698
" />
<path d="M242.8152 28.8698
L242.8152 27.8698
" />
<path d="M242.8152 27.8698
L243.3866 28.8698
" />
<path d="M243.3866 28.8698
L243.3866 27.8698
" />
</g><g transform="rotate(-90.000000 107.7722 36.5760)">
<text x="107.7722" y="36.5760"
transform="scale(-1 1) translate(-215.544400 0)"
textLength="3.2976" font-size="1.3333" lengthAdjust="spacingAndGlyphs"
text-anchor="start" opacity="0">GND</text>
</g>
<g class="stroked-text"><desc>GND</desc>
<path d="M108.8548 37.4366
L108.9024 37.3413
" />
<path d="M108.9024 37.3413
L108.9024 37.1985
" />
<path d="M108.9024 37.1985
L108.8548 37.0556
" />
<path d="M108.8548 37.0556
L108.7595 36.9604
" />
<path d="M108.7595 36.9604
L108.6643 36.9128
" />
<path d="M108.6643 36.9128
L108.4738 36.8652
" />
<path d="M108.4738 36.8652
L108.3310 36.8652
" />
<path d="M108.3310 36.8652
L108.1405 36.9128
" />
<path d="M108.1405 36.9128
L108.0452 36.9604
" />
<path d="M108.0452 36.9604
L107.9500 37.0556
" />
<path d="M107.9500 37.0556
L107.9024 37.1985
" />
<path d="M107.9024 37.1985
L107.9024 37.2937
" />
<path d="M107.9024 37.2937
L107.9500 37.4366
" />
<path d="M107.9500 37.4366
L107.9976 37.4842
" />
<path d="M107.9976 37.4842
L108.3310 37.4842
" />
<path d="M108.3310 37.4842
L108.3310 37.2937
" />
<path d="M107.9024 37.9128
L108.9024 37.9128
" />
<path d="M108.9024 37.9128
L107.9024 38.4842
" />
<path d="M107.9024 38.4842
L108.9024 38.4842
" />
<path d="M107.9024 38.9604
L108.9024 38.9604
" />
<path d="M108.9024 38.9604
L108.9024 39.1985
" />
<path d="M108.9024 39.1985
L108.8548 39.3413
" />
<path d="M108.8548 39.3413
L108.7595 39.4366
" />
<path d="M108.7595 39.4366
L108.6643 39.4842
" />
<path d="M108.6643 39.4842
L108.4738 39.5318
" />
<path d="M108.4738 39.5318
L108.3310 39.5318
" />
<path d="M108.3310 39.5318
L108.1405 39.4842
" />
<path d="M108.1405 39.4842
L108.0452 39.4366
" />
<path d="M108.0452 39.4366
L107.9500 39.3413
" />
<path d="M107.9500 39.3413
L107.9024 39.1985
" />
<path d="M107.9024 39.1985
L107.9024 38.9604
" />
</g><text x="235.0022" y="54.7800"
transform="scale(-1 1) translate(-470.004400 0)"
textLength="13.1548" font-size="1.3333" lengthAdjust="spacingAndGlyphs"
text-anchor="start" opacity="0">Open Pedalboard</text>
<g class="stroked-text"><desc>Open Pedalboard</desc>
<path d="M235.5295 53.6498
L235.7199 53.6498
" />
<path d="M235.7199 53.6498
L235.8152 53.6974
" />
<path d="M235.8152 53.6974
L235.9104 53.7927
" />
<path d="M235.9104 53.7927
L235.9580 53.9832
" />
<path d="M235.9580 53.9832
L235.9580 54.3165
" />
<path d="M235.9580 54.3165
L235.9104 54.5070
" />
<path d="M235.9104 54.5070
L235.8152 54.6022
" />
<path d="M235.8152 54.6022
L235.7199 54.6498
" />
<path d="M235.7199 54.6498
L235.5295 54.6498
" />
<path d="M235.5295 54.6498
L235.4342 54.6022
" />
<path d="M235.4342 54.6022
L235.3390 54.5070
" />
<path d="M235.3390 54.5070
L235.2914 54.3165
" />
<path d="M235.2914 54.3165
L235.2914 53.9832
" />
<path d="M235.2914 53.9832
L235.3390 53.7927
" />
<path d="M235.3390 53.7927
L235.4342 53.6974
" />
<path d="M235.4342 53.6974
L235.5295 53.6498
" />
<path d="M236.3866 53.9832
L236.3866 54.9832
" />
<path d="M236.3866 54.0308
L236.4818 53.9832
" />
<path d="M236.4818 53.9832
L236.6723 53.9832
" />
<path d="M236.6723 53.9832
L236.7676 54.0308
" />
<path d="M236.7676 54.0308
L236.8152 54.0784
" />
<path d="M236.8152 54.0784
L236.8628 54.1736
" />
<path d="M236.8628 54.1736
L236.8628 54.4593
" />
<path d="M236.8628 54.4593
L236.8152 54.5546
" />
<path d="M236.8152 54.5546
L236.7676 54.6022
" />
<path d="M236.7676 54.6022
L236.6723 54.6498
" />
<path d="M236.6723 54.6498
L236.4818 54.6498
" />
<path d="M236.4818 54.6498
L236.3866 54.6022
" />
<path d="M237.6723 54.6022
L237.5771 54.6498
" />
<path d="M237.5771 54.6498
L237.3866 54.6498
" />
<path d="M237.3866 54.6498
L237.2914 54.6022
" />
<path d="M237.2914 54.6022
L237.2437 54.5070
" />
<path d="M237.2437 54.5070
L237.2437 54.1260
" />
<path d="M237.2437 54.1260
L237.2914 54.0308
" />
<path d="M237.2914 54.0308
L237.3866 53.9832
" />
<path d="M237.3866 53.9832
L237.5771 53.9832
" />
<path d="M237.5771 53.9832
L237.6723 54.0308
" />
<path d="M237.6723 54.0308
L237.7199 54.1260
" />
<path d="M237.7199 54.1260
L237.7199 54.2212
" />
<path d="M237.7199 54.2212
L237.2437 54.3165
" />
<path d="M238.1485 53.9832
L238.1485 54.6498
" />
<path d="M238.1485 54.0784
L238.1961 54.0308
" />
<path d="M238.1961 54.0308
L238.2914 53.9832
" />
<path d="M238.2914 53.9832
L238.4342 53.9832
" />
<path d="M238.4342 53.9832
L238.5295 54.0308
" />
<path d="M238.5295 54.0308
L238.5771 54.1260
" />
<path d="M238.5771 54.1260
L238.5771 54.6498
" />
<path d="M239.8152 54.6498
L239.8152 53.6498
" />
<path d="M239.8152 53.6498
L240.1961 53.6498
" />
<path d="M240.1961 53.6498
L240.2914 53.6974
" />
<path d="M240.2914 53.6974
L240.3390 53.7451
" />
<path d="M240.3390 53.7451
L240.3866 53.8403
" />
<path d="M240.3866 53.8403
L240.3866 53.9832
" />
<path d="M240.3866 53.9832
L240.3390 54.0784
" />
<path d="M240.3390 54.0784
L240.2914 54.1260
" />
<path d="M240.2914 54.1260
L240.1961 54.1736
" />
<path d="M240.1961 54.1736
L239.8152 54.1736
" />
<path d="M241.1961 54.6022
L241.1009 54.6498
" />
<path d="M241.1009 54.6498
L240.9104 54.6498
" />
<path d="M240.9104 54.6498
L240.8152 54.6022
" />
<path d="M240.8152 54.6022
L240.7676 54.5070
" />
<path d="M240.7676 54.5070
L240.7676 54.1260
" />
<path d="M240.7676 54.1260
L240.8152 54.0308
" />
<path d="M240.8152 54.0308
L240.9104 53.9832
" />
<path d="M240.9104 53.9832
L241.1009 53.9832
" />
<path d="M241.1009 53.9832
L241.1961 54.0308
" />
<path d="M241.1961 54.0308
L241.2437 54.1260
" />
<path d="M241.2437 54.1260
L241.2437 54.2212
" />
<path d="M241.2437 54.2212
L240.7676 54.3165
" />
<path d="M242.1009 54.6498
L242.1009 53.6498
" />
<path d="M242.1009 54.6022
L242.0056 54.6498
" />
<path d="M242.0056 54.6498
L241.8152 54.6498
" />
<path d="M241.8152 54.6498
L241.7199 54.6022
" />
<path d="M241.7199 54.6022
L241.6723 54.5546
" />
<path d="M241.6723 54.5546
L241.6247 54.4593
" />
<path d="M241.6247 54.4593
L241.6247 54.1736
" />
<path d="M241.6247 54.1736
L241.6723 54.0784
" />
<path d="M241.6723 54.0784
L241.7199 54.0308
" />
<path d="M241.7199 54.0308
L241.8152 53.9832
" />
<path d="M241.8152 53.9832
L242.0056 53.9832
" />
<path d="M242.0056 53.9832
L242.1009 54.0308
" />
<path d="M243.0056 54.6498
L243.0056 54.1260
" />
<path d="M243.0056 54.1260
L242.9580 54.0308
" />
<path d="M242.9580 54.0308
L242.8628 53.9832
" />
<path d="M242.8628 53.9832
L242.6723 53.9832
" />
<path d="M242.6723 53.9832
L242.5771 54.0308
" />
<path d="M243.0056 54.6022
L242.9104 54.6498
" />
<path d="M242.9104 54.6498
L242.6723 54.6498
" />
<path d="M242.6723 54.6498
L242.5771 54.6022
" />
<path d="M242.5771 54.6022
L242.5295 54.5070
" />
<path d="M242.5295 54.5070
L242.5295 54.4117
" />
<path d="M242.5295 54.4117
L242.5771 54.3165
" />
<path d="M242.5771 54.3165
L242.6723 54.2689
" />
<path d="M242.6723 54.2689
L242.9104 54.2689
" />
<path d="M242.9104 54.2689
L243.0056 54.2212
" />
<path d="M243.6247 54.6498
L243.5295 54.6022
" />
<path d="M243.5295 54.6022
L243.4818 54.5070
" />
<path d="M243.4818 54.5070
L243.4818 53.6498
" />
<path d="M244.0056 54.6498
L244.0056 53.6498
" />
<path d="M244.0056 54.0308
L244.1009 53.9832
" />
<path d="M244.1009 53.9832
L244.2914 53.9832
" />
<path d="M244.2914 53.9832
L244.3866 54.0308
" />
<path d="M244.3866 54.0308
L244.4342 54.0784
" />
<path d="M244.4342 54.0784
L244.4818 54.1736
" />
<path d="M244.4818 54.1736
L244.4818 54.4593
" />
<path d="M244.4818 54.4593
L244.4342 54.5546
" />
<path d="M244.4342 54.5546
L244.3866 54.6022
" />
<path d="M244.3866 54.6022
L244.2914 54.6498
" />
<path d="M244.2914 54.6498
L244.1009 54.6498
" />
<path d="M244.1009 54.6498
L244.0056 54.6022
" />
<path d="M245.0533 54.6498
L244.9580 54.6022
" />
<path d="M244.9580 54.6022
L244.9104 54.5546
" />
<path d="M244.9104 54.5546
L244.8628 54.4593
" />
<path d="M244.8628 54.4593
L244.8628 54.1736
" />
<path d="M244.8628 54.1736
L244.9104 54.0784
" />
<path d="M244.9104 54.0784
L244.9580 54.0308
" />
<path d="M244.9580 54.0308
L245.0533 53.9832
" />
<path d="M245.0533 53.9832
L245.1961 53.9832
" />
<path d="M245.1961 53.9832
L245.2914 54.0308
" />
<path d="M245.2914 54.0308
L245.3390 54.0784
" />
<path d="M245.3390 54.0784
L245.3866 54.1736
" />
<path d="M245.3866 54.1736
L245.3866 54.4593
" />
<path d="M245.3866 54.4593
L245.3390 54.5546
" />
<path d="M245.3390 54.5546
L245.2914 54.6022
" />
<path d="M245.2914 54.6022
L245.1961 54.6498
" />
<path d="M245.1961 54.6498
L245.0533 54.6498
" />
<path d="M246.2437 54.6498
L246.2437 54.1260
" />
<path d="M246.2437 54.1260
L246.1961 54.0308
" />
<path d="M246.1961 54.0308
L246.1009 53.9832
" />
<path d="M246.1009 53.9832
L245.9104 53.9832
" />
<path d="M245.9104 53.9832
L245.8152 54.0308
" />
<path d="M246.2437 54.6022
L246.1485 54.6498
" />
<path d="M246.1485 54.6498
L245.9104 54.6498
" />
<path d="M245.9104 54.6498
L245.8152 54.6022
" />
<path d="M245.8152 54.6022
L245.7676 54.5070
" />
<path d="M245.7676 54.5070
L245.7676 54.4117
" />
<path d="M245.7676 54.4117
L245.8152 54.3165
" />
<path d="M245.8152 54.3165
L245.9104 54.2689
" />
<path d="M245.9104 54.2689
L246.1485 54.2689
" />
<path d="M246.1485 54.2689
L246.2437 54.2212
" />
<path d="M246.7199 54.6498
L246.7199 53.9832
" />
<path d="M246.7199 54.1736
L246.7676 54.0784
" />
<path d="M246.7676 54.0784
L246.8152 54.0308
" />
<path d="M246.8152 54.0308
L246.9104 53.9832
" />
<path d="M246.9104 53.9832
L247.0056 53.9832
" />
<path d="M247.7676 54.6498
L247.7676 53.6498
" />
<path d="M247.7676 54.6022
L247.6723 54.6498
" />
<path d="M247.6723 54.6498
L247.4818 54.6498
" />
<path d="M247.4818 54.6498
L247.3866 54.6022
" />
<path d="M247.3866 54.6022
L247.3390 54.5546
" />
<path d="M247.3390 54.5546
L247.2914 54.4593
" />
<path d="M247.2914 54.4593
L247.2914 54.1736
" />
<path d="M247.2914 54.1736
L247.3390 54.0784
" />
<path d="M247.3390 54.0784
L247.3866 54.0308
" />
<path d="M247.3866 54.0308
L247.4818 53.9832
" />
<path d="M247.4818 53.9832
L247.6723 53.9832
" />
<path d="M247.6723 53.9832
L247.7676 54.0308
" />
</g><text x="235.0022" y="56.3900"
transform="scale(-1 1) translate(-470.004400 0)"
textLength="24.2024" font-size="1.3333" lengthAdjust="spacingAndGlyphs"
text-anchor="start" opacity="0">https://github.com/pedalboard</text>
<g class="stroked-text"><desc>https://github.com/pedalboard</desc>
<path d="M235.3390 56.2598
L235.3390 55.2598
" />
<path d="M235.7676 56.2598
L235.7676 55.7360
" />
<path d="M235.7676 55.7360
L235.7199 55.6408
" />
<path d="M235.7199 55.6408
L235.6247 55.5932
" />
<path d="M235.6247 55.5932
L235.4818 55.5932
" />
<path d="M235.4818 55.5932
L235.3866 55.6408
" />
<path d="M235.3866 55.6408
L235.3390 55.6884
" />
<path d="M236.1009 55.5932
L236.4818 55.5932
" />
<path d="M236.2437 55.2598
L236.2437 56.1170
" />
<path d="M236.2437 56.1170
L236.2914 56.2122
" />
<path d="M236.2914 56.2122
L236.3866 56.2598
" />
<path d="M236.3866 56.2598
L236.4818 56.2598
" />
<path d="M236.6723 55.5932
L237.0533 55.5932
" />
<path d="M236.8152 55.2598
L236.8152 56.1170
" />
<path d="M236.8152 56.1170
L236.8628 56.2122
" />
<path d="M236.8628 56.2122
L236.9580 56.2598
" />
<path d="M236.9580 56.2598
L237.0533 56.2598
" />
<path d="M237.3866 55.5932
L237.3866 56.5932
" />
<path d="M237.3866 55.6408
L237.4818 55.5932
" />
<path d="M237.4818 55.5932
L237.6723 55.5932
" />
<path d="M237.6723 55.5932
L237.7676 55.6408
" />
<path d="M237.7676 55.6408
L237.8152 55.6884
" />
<path d="M237.8152 55.6884
L237.8628 55.7836
" />
<path d="M237.8628 55.7836
L237.8628 56.0693
" />
<path d="M237.8628 56.0693
L237.8152 56.1646
" />
<path d="M237.8152 56.1646
L237.7676 56.2122
" />
<path d="M237.7676 56.2122
L237.6723 56.2598
" />
<path d="M237.6723 56.2598
L237.4818 56.2598
" />
<path d="M237.4818 56.2598
L237.3866 56.2122
" />
<path d="M238.2437 56.2122
L238.3390 56.2598
" />
<path d="M238.3390 56.2598
L238.5295 56.2598
" />
<path d="M238.5295 56.2598
L238.6247 56.2122
" />
<path d="M238.6247 56.2122
L238.6723 56.1170
" />
<path d="M238.6723 56.1170
L238.6723 56.0693
" />
<path d="M238.6723 56.0693
L238.6247 55.9741
" />
<path d="M238.6247 55.9741
L238.5295 55.9265
" />
<path d="M238.5295 55.9265
L238.3866 55.9265
" />
<path d="M238.3866 55.9265
L238.2914 55.8789
" />
<path d="M238.2914 55.8789
L238.2437 55.7836
" />
<path d="M238.2437 55.7836
L238.2437 55.7360
" />
<path d="M238.2437 55.7360
L238.2914 55.6408
" />
<path d="M238.2914 55.6408
L238.3866 55.5932
" />
<path d="M238.3866 55.5932
L238.5295 55.5932
" />
<path d="M238.5295 55.5932
L238.6247 55.6408
" />
<path d="M239.1009 56.1646
L239.1485 56.2122
" />
<path d="M239.1485 56.2122
L239.1009 56.2598
" />
<path d="M239.1009 56.2598
L239.0533 56.2122
" />
<path d="M239.0533 56.2122
L239.1009 56.1646
" />
<path d="M239.1009 56.1646
L239.1009 56.2598
" />
<path d="M239.1009 55.6408
L239.1485 55.6884
" />
<path d="M239.1485 55.6884
L239.1009 55.7360
" />
<path d="M239.1009 55.7360
L239.0533 55.6884
" />
<path d="M239.0533 55.6884
L239.1009 55.6408
" />
<path d="M239.1009 55.6408
L239.1009 55.7360
" />
<path d="M240.2914 55.2122
L239.4342 56.4979
" />
<path d="M241.3390 55.2122
L240.4818 56.4979
" />
<path d="M242.1009 55.5932
L242.1009 56.4027
" />
<path d="M242.1009 56.4027
L242.0533 56.4979
" />
<path d="M242.0533 56.4979
L242.0056 56.5455
" />
<path d="M242.0056 56.5455
L241.9104 56.5932
" />
<path d="M241.9104 56.5932
L241.7676 56.5932
" />
<path d="M241.7676 56.5932
L241.6723 56.5455
" />
<path d="M242.1009 56.2122
L242.0056 56.2598
" />
<path d="M242.0056 56.2598
L241.8152 56.2598
" />
<path d="M241.8152 56.2598
L241.7199 56.2122
" />
<path d="M241.7199 56.2122
L241.6723 56.1646
" />
<path d="M241.6723 56.1646
L241.6247 56.0693
" />
<path d="M241.6247 56.0693
L241.6247 55.7836
" />
<path d="M241.6247 55.7836
L241.6723 55.6884
" />
<path d="M241.6723 55.6884
L241.7199 55.6408
" />
<path d="M241.7199 55.6408
L241.8152 55.5932
" />
<path d="M241.8152 55.5932
L242.0056 55.5932
" />
<path d="M242.0056 55.5932
L242.1009 55.6408
" />
<path d="M242.5771 56.2598
L242.5771 55.5932
" />
<path d="M242.5771 55.2598
L242.5295 55.3074
" />
<path d="M242.5295 55.3074
L242.5771 55.3551
" />
<path d="M242.5771 55.3551
L242.6247 55.3074
" />
<path d="M242.6247 55.3074
L242.5771 55.2598
" />
<path d="M242.5771 55.2598
L242.5771 55.3551
" />
<path d="M242.9104 55.5932
L243.2914 55.5932
" />
<path d="M243.0533 55.2598
L243.0533 56.1170
" />
<path d="M243.0533 56.1170
L243.1009 56.2122
" />
<path d="M243.1009 56.2122
L243.1961 56.2598
" />
<path d="M243.1961 56.2598
L243.2914 56.2598
" />
<path d="M243.6247 56.2598
L243.6247 55.2598
" />
<path d="M244.0533 56.2598
L244.0533 55.7360
" />
<path d="M244.0533 55.7360
L244.0056 55.6408
" />
<path d="M244.0056 55.6408
L243.9104 55.5932
" />
<path d="M243.9104 55.5932
L243.7676 55.5932
" />
<path d="M243.7676 55.5932
L243.6723 55.6408
" />
<path d="M243.6723 55.6408
L243.6247 55.6884
" />
<path d="M244.9580 55.5932
L244.9580 56.2598
" />
<path d="M244.5295 55.5932
L244.5295 56.1170
" />
<path d="M244.5295 56.1170
L244.5771 56.2122
" />
<path d="M244.5771 56.2122
L244.6723 56.2598
" />
<path d="M244.6723 56.2598
L244.8152 56.2598
" />
<path d="M244.8152 56.2598
L244.9104 56.2122
" />
<path d="M244.9104 56.2122
L244.9580 56.1646
" />
<path d="M245.4342 56.2598
L245.4342 55.2598
" />
<path d="M245.4342 55.6408
L245.5295 55.5932
" />
<path d="M245.5295 55.5932
L245.7199 55.5932
" />
<path d="M245.7199 55.5932
L245.8152 55.6408
" />
<path d="M245.8152 55.6408
L245.8628 55.6884
" />
<path d="M245.8628 55.6884
L245.9104 55.7836
" />
<path d="M245.9104 55.7836
L245.9104 56.0693
" />
<path d="M245.9104 56.0693
L245.8628 56.1646
" />
<path d="M245.8628 56.1646
L245.8152 56.2122
" />
<path d="M245.8152 56.2122
L245.7199 56.2598
" />
<path d="M245.7199 56.2598
L245.5295 56.2598
" />
<path d="M245.5295 56.2598
L245.4342 56.2122
" />
<path d="M246.3390 56.1646
L246.3866 56.2122
" />
<path d="M246.3866 56.2122
L246.3390 56.2598
" />
<path d="M246.3390 56.2598
L246.2914 56.2122
" />
<path d="M246.2914 56.2122
L246.3390 56.1646
" />
<path d="M246.3390 56.1646
L246.3390 56.2598
" />
<path d="M247.2437 56.2122
L247.1485 56.2598
" />
<path d="M247.1485 56.2598
L246.9580 56.2598
" />
<path d="M246.9580 56.2598
L246.8628 56.2122
" />
<path d="M246.8628 56.2122
L246.8152 56.1646
" />
<path d="M246.8152 56.1646
L246.7676 56.0693
" />
<path d="M246.7676 56.0693
L246.7676 55.7836
" />
<path d="M246.7676 55.7836
L246.8152 55.6884
" />
<path d="M246.8152 55.6884
L246.8628 55.6408
" />
<path d="M246.8628 55.6408
L246.9580 55.5932
" />
<path d="M246.9580 55.5932
L247.1485 55.5932
" />
<path d="M247.1485 55.5932
L247.2437 55.6408
" />
<path d="M247.8152 56.2598
L247.7199 56.2122
" />
<path d="M247.7199 56.2122
L247.6723 56.1646
" />
<path d="M247.6723 56.1646
L247.6247 56.0693
" />
<path d="M247.6247 56.0693
L247.6247 55.7836
" />
<path d="M247.6247 55.7836
L247.6723 55.6884
" />
<path d="M247.6723 55.6884
L247.7199 55.6408
" />
<path d="M247.7199 55.6408
L247.8152 55.5932
" />
<path d="M247.8152 55.5932
L247.9580 55.5932
" />
<path d="M247.9580 55.5932
L248.0533 55.6408
" />
<path d="M248.0533 55.6408
L248.1009 55.6884
" />
<path d="M248.1009 55.6884
L248.1485 55.7836
" />
<path d="M248.1485 55.7836
L248.1485 56.0693
" />
<path d="M248.1485 56.0693
L248.1009 56.1646
" />
<path d="M248.1009 56.1646
L248.0533 56.2122
" />
<path d="M248.0533 56.2122
L247.9580 56.2598
" />
<path d="M247.9580 56.2598
L247.8152 56.2598
" />
<path d="M248.5771 56.2598
L248.5771 55.5932
" />
<path d="M248.5771 55.6884
L248.6247 55.6408
" />
<path d="M248.6247 55.6408
L248.7199 55.5932
" />
<path d="M248.7199 55.5932
L248.8628 55.5932
" />
<path d="M248.8628 55.5932
L248.9580 55.6408
" />
<path d="M248.9580 55.6408
L249.0056 55.7360
" />
<path d="M249.0056 55.7360
L249.0056 56.2598
" />
<path d="M249.0056 55.7360
L249.0533 55.6408
" />
<path d="M249.0533 55.6408
L249.1485 55.5932
" />
<path d="M249.1485 55.5932
L249.2914 55.5932
" />
<path d="M249.2914 55.5932
L249.3866 55.6408
" />
<path d="M249.3866 55.6408
L249.4342 55.7360
" />
<path d="M249.4342 55.7360
L249.4342 56.2598
" />
<path d="M250.6247 55.2122
L249.7676 56.4979
" />
<path d="M250.9580 55.5932
L250.9580 56.5932
" />
<path d="M250.9580 55.6408
L251.0533 55.5932
" />
<path d="M251.0533 55.5932
L251.2437 55.5932
" />
<path d="M251.2437 55.5932
L251.3390 55.6408
" />
<path d="M251.3390 55.6408
L251.3866 55.6884
" />
<path d="M251.3866 55.6884
L251.4342 55.7836
" />
<path d="M251.4342 55.7836
L251.4342 56.0693
" />
<path d="M251.4342 56.0693
L251.3866 56.1646
" />
<path d="M251.3866 56.1646
L251.3390 56.2122
" />
<path d="M251.3390 56.2122
L251.2437 56.2598
" />
<path d="M251.2437 56.2598
L251.0533 56.2598
" />
<path d="M251.0533 56.2598
L250.9580 56.2122
" />
<path d="M252.2437 56.2122
L252.1485 56.2598
" />
<path d="M252.1485 56.2598
L251.9580 56.2598
" />
<path d="M251.9580 56.2598
L251.8628 56.2122
" />
<path d="M251.8628 56.2122
L251.8152 56.1170
" />
<path d="M251.8152 56.1170
L251.8152 55.7360
" />
<path d="M251.8152 55.7360
L251.8628 55.6408
" />
<path d="M251.8628 55.6408
L251.9580 55.5932
" />
<path d="M251.9580 55.5932
L252.1485 55.5932
" />
<path d="M252.1485 55.5932
L252.2437 55.6408
" />
<path d="M252.2437 55.6408
L252.2914 55.7360
" />
<path d="M252.2914 55.7360
L252.2914 55.8312
" />
<path d="M252.2914 55.8312
L251.8152 55.9265
" />
<path d="M253.1485 56.2598
L253.1485 55.2598
" />
<path d="M253.1485 56.2122
L253.0533 56.2598
" />
<path d="M253.0533 56.2598
L252.8628 56.2598
" />
<path d="M252.8628 56.2598
L252.7676 56.2122
" />
<path d="M252.7676 56.2122
L252.7199 56.1646
" />
<path d="M252.7199 56.1646
L252.6723 56.0693
" />
<path d="M252.6723 56.0693
L252.6723 55.7836
" />
<path d="M252.6723 55.7836
L252.7199 55.6884
" />
<path d="M252.7199 55.6884
L252.7676 55.6408
" />
<path d="M252.7676 55.6408
L252.8628 55.5932
" />
<path d="M252.8628 55.5932
L253.0533 55.5932
" />
<path d="M253.0533 55.5932
L253.1485 55.6408
" />
<path d="M254.0533 56.2598
L254.0533 55.7360
" />
<path d="M254.0533 55.7360
L254.0056 55.6408
" />
<path d="M254.0056 55.6408
L253.9104 55.5932
" />
<path d="M253.9104 55.5932
L253.7199 55.5932
" />
<path d="M253.7199 55.5932
L253.6247 55.6408
" />
<path d="M254.0533 56.2122
L253.9580 56.2598
" />
<path d="M253.9580 56.2598
L253.7199 56.2598
" />
<path d="M253.7199 56.2598
L253.6247 56.2122
" />
<path d="M253.6247 56.2122
L253.5771 56.1170
" />
<path d="M253.5771 56.1170
L253.5771 56.0217
" />
<path d="M253.5771 56.0217
L253.6247 55.9265
" />
<path d="M253.6247 55.9265
L253.7199 55.8789
" />
<path d="M253.7199 55.8789
L253.9580 55.8789
" />
<path d="M253.9580 55.8789
L254.0533 55.8312
" />
<path d="M254.6723 56.2598
L254.5771 56.2122
" />
<path d="M254.5771 56.2122
L254.5295 56.1170
" />
<path d="M254.5295 56.1170
L254.5295 55.2598
" />
<path d="M255.0533 56.2598
L255.0533 55.2598
" />
<path d="M255.0533 55.6408
L255.1485 55.5932
" />
<path d="M255.1485 55.5932
L255.3390 55.5932
" />
<path d="M255.3390 55.5932
L255.4342 55.6408
" />
<path d="M255.4342 55.6408
L255.4818 55.6884
" />
<path d="M255.4818 55.6884
L255.5295 55.7836
" />
<path d="M255.5295 55.7836
L255.5295 56.0693
" />
<path d="M255.5295 56.0693
L255.4818 56.1646
" />
<path d="M255.4818 56.1646
L255.4342 56.2122
" />
<path d="M255.4342 56.2122
L255.3390 56.2598
" />
<path d="M255.3390 56.2598
L255.1485 56.2598
" />
<path d="M255.1485 56.2598
L255.0533 56.2122
" />
<path d="M256.1009 56.2598
L256.0056 56.2122
" />
<path d="M256.0056 56.2122
L255.9580 56.1646
" />
<path d="M255.9580 56.1646
L255.9104 56.0693
" />
<path d="M255.9104 56.0693
L255.9104 55.7836
" />
<path d="M255.9104 55.7836
L255.9580 55.6884
" />
<path d="M255.9580 55.6884
L256.0056 55.6408
" />
<path d="M256.0056 55.6408
L256.1009 55.5932
" />
<path d="M256.1009 55.5932
L256.2437 55.5932
" />
<path d="M256.2437 55.5932
L256.3390 55.6408
" />
<path d="M256.3390 55.6408
L256.3866 55.6884
" />
<path d="M256.3866 55.6884
L256.4342 55.7836
" />
<path d="M256.4342 55.7836
L256.4342 56.0693
" />
<path d="M256.4342 56.0693
L256.3866 56.1646
" />
<path d="M256.3866 56.1646
L256.3390 56.2122
" />
<path d="M256.3390 56.2122
L256.2437 56.2598
" />
<path d="M256.2437 56.2598
L256.1009 56.2598
" />
<path d="M257.2914 56.2598
L257.2914 55.7360
" />
<path d="M257.2914 55.7360
L257.2437 55.6408
" />
<path d="M257.2437 55.6408
L257.1485 55.5932
" />
<path d="M257.1485 55.5932
L256.9580 55.5932
" />
<path d="M256.9580 55.5932
L256.8628 55.6408
" />
<path d="M257.2914 56.2122
L257.1961 56.2598
" />
<path d="M257.1961 56.2598
L256.9580 56.2598
" />
<path d="M256.9580 56.2598
L256.8628 56.2122
" />
<path d="M256.8628 56.2122
L256.8152 56.1170
" />
<path d="M256.8152 56.1170
L256.8152 56.0217
" />
<path d="M256.8152 56.0217
L256.8628 55.9265
" />
<path d="M256.8628 55.9265
L256.9580 55.8789
" />
<path d="M256.9580 55.8789
L257.1961 55.8789
" />
<path d="M257.1961 55.8789
L257.2914 55.8312
" />
<path d="M257.7676 56.2598
L257.7676 55.5932
" />
<path d="M257.7676 55.7836
L257.8152 55.6884
" />
<path d="M257.8152 55.6884
L257.8628 55.6408
" />
<path d="M257.8628 55.6408
L257.9580 55.5932
" />
<path d="M257.9580 55.5932
L258.0533 55.5932
" />
<path d="M258.8152 56.2598
L258.8152 55.2598
" />
<path d="M258.8152 56.2122
L258.7199 56.2598
" />
<path d="M258.7199 56.2598
L258.5295 56.2598
" />
<path d="M258.5295 56.2598
L258.4342 56.2122
" />
<path d="M258.4342 56.2122
L258.3866 56.1646
" />
<path d="M258.3866 56.1646
L258.3390 56.0693
" />
<path d="M258.3390 56.0693
L258.3390 55.7836
" />
<path d="M258.3390 55.7836
L258.3866 55.6884
" />
<path d="M258.3866 55.6884
L258.4342 55.6408
" />
<path d="M258.4342 55.6408
L258.5295 55.5932
" />
<path d="M258.5295 55.5932
L258.7199 55.5932
" />
<path d="M258.7199 55.5932
L258.8152 55.6408
" />
</g><text x="235.0022" y="58.0000"
transform="scale(-1 1) translate(-470.004400 0)"
textLength="8.2976" font-size="1.3333" lengthAdjust="spacingAndGlyphs"
text-anchor="start" opacity="0">BCB: 3.0.0</text>
<g class="stroked-text"><desc>BCB: 3.0.0</desc>
<path d="M235.6723 57.3460
L235.8152 57.3936
" />
<path d="M235.8152 57.3936
L235.8628 57.4412
" />
<path d="M235.8628 57.4412
L235.9104 57.5365
" />
<path d="M235.9104 57.5365
L235.9104 57.6793
" />
<path d="M235.9104 57.6793
L235.8628 57.7746
" />
<path d="M235.8628 57.7746
L235.8152 57.8222
" />
<path d="M235.8152 57.8222
L235.7199 57.8698
" />
<path d="M235.7199 57.8698
L235.3390 57.8698
" />
<path d="M235.3390 57.8698
L235.3390 56.8698
" />
<path d="M235.3390 56.8698
L235.6723 56.8698
" />
<path d="M235.6723 56.8698
L235.7676 56.9174
" />
<path d="M235.7676 56.9174
L235.8152 56.9651
" />
<path d="M235.8152 56.9651
L235.8628 57.0603
" />
<path d="M235.8628 57.0603
L235.8628 57.1555
" />
<path d="M235.8628 57.1555
L235.8152 57.2508
" />
<path d="M235.8152 57.2508
L235.7676 57.2984
" />
<path d="M235.7676 57.2984
L235.6723 57.3460
" />
<path d="M235.6723 57.3460
L235.3390 57.3460
" />
<path d="M236.9104 57.7746
L236.8628 57.8222
" />
<path d="M236.8628 57.8222
L236.7199 57.8698
" />
<path d="M236.7199 57.8698
L236.6247 57.8698
" />
<path d="M236.6247 57.8698
L236.4818 57.8222
" />
<path d="M236.4818 57.8222
L236.3866 57.7270
" />
<path d="M236.3866 57.7270
L236.3390 57.6317
" />
<path d="M236.3390 57.6317
L236.2914 57.4412
" />
<path d="M236.2914 57.4412
L236.2914 57.2984
" />
<path d="M236.2914 57.2984
L236.3390 57.1079
" />
<path d="M236.3390 57.1079
L236.3866 57.0127
" />
<path d="M236.3866 57.0127
L236.4818 56.9174
" />
<path d="M236.4818 56.9174
L236.6247 56.8698
" />
<path d="M236.6247 56.8698
L236.7199 56.8698
" />
<path d="M236.7199 56.8698
L236.8628 56.9174
" />
<path d="M236.8628 56.9174
L236.9104 56.9651
" />
<path d="M237.6723 57.3460
L237.8152 57.3936
" />
<path d="M237.8152 57.3936
L237.8628 57.4412
" />
<path d="M237.8628 57.4412
L237.9104 57.5365
" />
<path d="M237.9104 57.5365
L237.9104 57.6793
" />
<path d="M237.9104 57.6793
L237.8628 57.7746
" />
<path d="M237.8628 57.7746
L237.8152 57.8222
" />
<path d="M237.8152 57.8222
L237.7199 57.8698
" />
<path d="M237.7199 57.8698
L237.3390 57.8698
" />
<path d="M237.3390 57.8698
L237.3390 56.8698
" />
<path d="M237.3390 56.8698
L237.6723 56.8698
" />
<path d="M237.6723 56.8698
L237.7676 56.9174
" />
<path d="M237.7676 56.9174
L237.8152 56.9651
" />
<path d="M237.8152 56.9651
L237.8628 57.0603
" />
<path d="M237.8628 57.0603
L237.8628 57.1555
" />
<path d="M237.8628 57.1555
L237.8152 57.2508
" />
<path d="M237.8152 57.2508
L237.7676 57.2984
" />
<path d="M237.7676 57.2984
L237.6723 57.3460
" />
<path d="M237.6723 57.3460
L237.3390 57.3460
" />
<path d="M238.3390 57.7746
L238.3866 57.8222
" />
<path d="M238.3866 57.8222
L238.3390 57.8698
" />
<path d="M238.3390 57.8698
L238.2914 57.8222
" />
<path d="M238.2914 57.8222
L238.3390 57.7746
" />
<path d="M238.3390 57.7746
L238.3390 57.8698
" />
<path d="M238.3390 57.2508
L238.3866 57.2984
" />
<path d="M238.3866 57.2984
L238.3390 57.3460
" />
<path d="M238.3390 57.3460
L238.2914 57.2984
" />
<path d="M238.2914 57.2984
L238.3390 57.2508
" />
<path d="M238.3390 57.2508
L238.3390 57.3460
" />
<path d="M239.4818 56.8698
L240.1009 56.8698
" />
<path d="M240.1009 56.8698
L239.7676 57.2508
" />
<path d="M239.7676 57.2508
L239.9104 57.2508
" />
<path d="M239.9104 57.2508
L240.0056 57.2984
" />
<path d="M240.0056 57.2984
L240.0533 57.3460
" />
<path d="M240.0533 57.3460
L240.1009 57.4412
" />
<path d="M240.1009 57.4412
L240.1009 57.6793
" />
<path d="M240.1009 57.6793
L240.0533 57.7746
" />
<path d="M240.0533 57.7746
L240.0056 57.8222
" />
<path d="M240.0056 57.8222
L239.9104 57.8698
" />
<path d="M239.9104 57.8698
L239.6247 57.8698
" />
<path d="M239.6247 57.8698
L239.5295 57.8222
" />
<path d="M239.5295 57.8222
L239.4818 57.7746
" />
<path d="M240.5295 57.7746
L240.5771 57.8222
" />
<path d="M240.5771 57.8222
L240.5295 57.8698
" />
<path d="M240.5295 57.8698
L240.4818 57.8222
" />
<path d="M240.4818 57.8222
L240.5295 57.7746
" />
<path d="M240.5295 57.7746
L240.5295 57.8698
" />
<path d="M241.1961 56.8698
L241.2914 56.8698
" />
<path d="M241.2914 56.8698
L241.3866 56.9174
" />
<path d="M241.3866 56.9174
L241.4342 56.9651
" />
<path d="M241.4342 56.9651
L241.4818 57.0603
" />
<path d="M241.4818 57.0603
L241.5295 57.2508
" />
<path d="M241.5295 57.2508
L241.5295 57.4889
" />
<path d="M241.5295 57.4889
L241.4818 57.6793
" />
<path d="M241.4818 57.6793
L241.4342 57.7746
" />
<path d="M241.4342 57.7746
L241.3866 57.8222
" />
<path d="M241.3866 57.8222
L241.2914 57.8698
" />
<path d="M241.2914 57.8698
L241.1961 57.8698
" />
<path d="M241.1961 57.8698
L241.1009 57.8222
" />
<path d="M241.1009 57.8222
L241.0533 57.7746
" />
<path d="M241.0533 57.7746
L241.0056 57.6793
" />
<path d="M241.0056 57.6793
L240.9580 57.4889
" />
<path d="M240.9580 57.4889
L240.9580 57.2508
" />
<path d="M240.9580 57.2508
L241.0056 57.0603
" />
<path d="M241.0056 57.0603
L241.0533 56.9651
" />
<path d="M241.0533 56.9651
L241.1009 56.9174
" />
<path d="M241.1009 56.9174
L241.1961 56.8698
" />
<path d="M241.9580 57.7746
L242.0056 57.8222
" />
<path d="M242.0056 57.8222
L241.9580 57.8698
" />
<path d="M241.9580 57.8698
L241.9104 57.8222
" />
<path d="M241.9104 57.8222
L241.9580 57.7746
" />
<path d="M241.9580 57.7746
L241.9580 57.8698
" />
<path d="M242.6247 56.8698
L242.7199 56.8698
" />
<path d="M242.7199 56.8698
L242.8152 56.9174
" />
<path d="M242.8152 56.9174
L242.8628 56.9651
" />
<path d="M242.8628 56.9651
L242.9104 57.0603
" />
<path d="M242.9104 57.0603
L242.9580 57.2508
" />
<path d="M242.9580 57.2508
L242.9580 57.4889
" />
<path d="M242.9580 57.4889
L242.9104 57.6793
" />
<path d="M242.9104 57.6793
L242.8628 57.7746
" />
<path d="M242.8628 57.7746
L242.8152 57.8222
" />
<path d="M242.8152 57.8222
L242.7199 57.8698
" />
<path d="M242.7199 57.8698
L242.6247 57.8698
" />
<path d="M242.6247 57.8698
L242.5295 57.8222
" />
<path d="M242.5295 57.8222
L242.4818 57.7746
" />
<path d="M242.4818 57.7746
L242.4342 57.6793
" />
<path d="M242.4342 57.6793
L242.3866 57.4889
" />
<path d="M242.3866 57.4889
L242.3866 57.2508
" />
<path d="M242.3866 57.2508
L242.4342 57.0603
" />
<path d="M242.4342 57.0603
L242.4818 56.9651
" />
<path d="M242.4818 56.9651
L242.5295 56.9174
" />
<path d="M242.5295 56.9174
L242.6247 56.8698
" />
</g><g transform="rotate(90.000000 259.0022 123.0000)">
<text x="259.0022" y="123.0000"
transform="scale(-1 1) translate(-518.004400 0)"
textLength="4.0595" font-size="1.3333" lengthAdjust="spacingAndGlyphs"
text-anchor="start" opacity="0">+5V </text>
</g>
<g class="stroked-text"><desc>+5V </desc>
<path d="M258.4911 122.6632
L258.4911 121.9013
" />
<path d="M258.8720 122.2823
L258.1101 122.2823
" />
<path d="M257.8720 120.9489
L257.8720 121.4251
" />
<path d="M257.8720 121.4251
L258.3482 121.4727
" />
<path d="M258.3482 121.4727
L258.3006 121.4251
" />
<path d="M258.3006 121.4251
L258.2530 121.3299
" />
<path d="M258.2530 121.3299
L258.2530 121.0918
" />
<path d="M258.2530 121.0918
L258.3006 120.9966
" />
<path d="M258.3006 120.9966
L258.3482 120.9489
" />
<path d="M258.3482 120.9489
L258.4434 120.9013
" />
<path d="M258.4434 120.9013
L258.6815 120.9013
" />
<path d="M258.6815 120.9013
L258.7768 120.9489
" />
<path d="M258.7768 120.9489
L258.8244 120.9966
" />
<path d="M258.8244 120.9966
L258.8720 121.0918
" />
<path d="M258.8720 121.0918
L258.8720 121.3299
" />
<path d="M258.8720 121.3299
L258.8244 121.4251
" />
<path d="M258.8244 121.4251
L258.7768 121.4727
" />
<path d="M257.8720 120.6156
L258.8720 120.2823
" />
<path d="M258.8720 120.2823
L257.8720 119.9489
" />
</g><text x="240.0022" y="25.0000"
transform="scale(-1 1) translate(-480.004400 0)"
textLength="4.7929" font-size="2.0000" lengthAdjust="spacingAndGlyphs"
text-anchor="start" opacity="0">MIDI</text>
<g class="stroked-text"><desc>MIDI</desc>
<path d="M240.4580 24.8086
L240.4580 23.3086
" />
<path d="M240.4580 23.3086
L240.9580 24.3801
" />
<path d="M240.9580 24.3801
L241.4580 23.3086
" />
<path d="M241.4580 23.3086
L241.4580 24.8086
" />
<path d="M242.1723 24.8086
L242.1723 23.3086
" />
<path d="M242.8866 24.8086
L242.8866 23.3086
" />
<path d="M242.8866 23.3086
L243.2437 23.3086
" />
<path d="M243.2437 23.3086
L243.4580 23.3801
" />
<path d="M243.4580 23.3801
L243.6009 23.5229
" />
<path d="M243.6009 23.5229
L243.6723 23.6658
" />
<path d="M243.6723 23.6658
L243.7437 23.9515
" />
<path d="M243.7437 23.9515
L243.7437 24.1658
" />
<path d="M243.7437 24.1658
L243.6723 24.4515
" />
<path d="M243.6723 24.4515
L243.6009 24.5943
" />
<path d="M243.6009 24.5943
L243.4580 24.7372
" />
<path d="M243.4580 24.7372
L243.2437 24.8086
" />
<path d="M243.2437 24.8086
L242.8866 24.8086
" />
<path d="M244.3866 24.8086
L244.3866 23.3086
" />
</g><g transform="rotate(-90.000000 162.5614 56.8516)">
<text x="162.5614" y="56.8516"
transform="scale(-1 1) translate(-325.122800 0)"
textLength="1.6310" font-size="1.3333" lengthAdjust="spacingAndGlyphs"
text-anchor="start" opacity="0">in</text>
</g>
<g class="stroked-text"><desc>in</desc>
<path d="M162.6916 57.1884
L163.3582 57.1884
" />
<path d="M163.6916 57.1884
L163.6440 57.1408
" />
<path d="M163.6440 57.1408
L163.5963 57.1884
" />
<path d="M163.5963 57.1884
L163.6440 57.2360
" />
<path d="M163.6440 57.2360
L163.6916 57.1884
" />
<path d="M163.6916 57.1884
L163.5963 57.1884
" />
<path d="M163.3582 57.6646
L162.6916 57.6646
" />
<path d="M163.2630 57.6646
L163.3106 57.7122
" />
<path d="M163.3106 57.7122
L163.3582 57.8074
" />
<path d="M163.3582 57.8074
L163.3582 57.9503
" />
<path d="M163.3582 57.9503
L163.3106 58.0455
" />
<path d="M163.3106 58.0455
L163.2154 58.0931
" />
<path d="M163.2154 58.0931
L162.6916 58.0931
" />
</g><text x="244.0022" y="130.0000"
transform="scale(-1 1) translate(-488.004400 0)"
textLength="6.5833" font-size="1.3333" lengthAdjust="spacingAndGlyphs"
text-anchor="start" opacity="0">LED OUT</text>
<g class="stroked-text"><desc>LED OUT</desc>
<path d="M244.8152 129.8698
L244.3390 129.8698
" />
<path d="M244.3390 129.8698
L244.3390 128.8698
" />
<path d="M245.1485 129.3460
L245.4818 129.3460
" />
<path d="M245.6247 129.8698
L245.1485 129.8698
" />
<path d="M245.1485 129.8698
L245.1485 128.8698
" />
<path d="M245.1485 128.8698
L245.6247 128.8698
" />
<path d="M246.0533 129.8698
L246.0533 128.8698
" />
<path d="M246.0533 128.8698
L246.2914 128.8698
" />
<path d="M246.2914 128.8698
L246.4342 128.9174
" />
<path d="M246.4342 128.9174
L246.5295 129.0127
" />
<path d="M246.5295 129.0127
L246.5771 129.1079
" />
<path d="M246.5771 129.1079
L246.6247 129.2984
" />
<path d="M246.6247 129.2984
L246.6247 129.4412
" />
<path d="M246.6247 129.4412
L246.5771 129.6317
" />
<path d="M246.5771 129.6317
L246.5295 129.7270
" />
<path d="M246.5295 129.7270
L246.4342 129.8222
" />
<path d="M246.4342 129.8222
L246.2914 129.8698
" />
<path d="M246.2914 129.8698
L246.0533 129.8698
" />
<path d="M248.0056 128.8698
L248.1961 128.8698
" />
<path d="M248.1961 128.8698
L248.2914 128.9174
" />
<path d="M248.2914 128.9174
L248.3866 129.0127
" />
<path d="M248.3866 129.0127
L248.4342 129.2032
" />
<path d="M248.4342 129.2032
L248.4342 129.5365
" />
<path d="M248.4342 129.5365
L248.3866 129.7270
" />
<path d="M248.3866 129.7270
L248.2914 129.8222
" />
<path d="M248.2914 129.8222
L248.1961 129.8698
" />
<path d="M248.1961 129.8698
L248.0056 129.8698
" />
<path d="M248.0056 129.8698
L247.9104 129.8222
" />
<path d="M247.9104 129.8222
L247.8152 129.7270
" />
<path d="M247.8152 129.7270
L247.7676 129.5365
" />
<path d="M247.7676 129.5365
L247.7676 129.2032
" />
<path d="M247.7676 129.2032
L247.8152 129.0127
" />
<path d="M247.8152 129.0127
L247.9104 128.9174
" />
<path d="M247.9104 128.9174
L248.0056 128.8698
" />
<path d="M248.8628 128.8698
L248.8628 129.6793
" />
<path d="M248.8628 129.6793
L248.9104 129.7746
" />
<path d="M248.9104 129.7746
L248.9580 129.8222
" />
<path d="M248.9580 129.8222
L249.0533 129.8698
" />
<path d="M249.0533 129.8698
L249.2437 129.8698
" />
<path d="M249.2437 129.8698
L249.3390 129.8222
" />
<path d="M249.3390 129.8222
L249.3866 129.7746
" />
<path d="M249.3866 129.7746
L249.4342 129.6793
" />
<path d="M249.4342 129.6793
L249.4342 128.8698
" />
<path d="M249.7676 128.8698
L250.3390 128.8698
" />
<path d="M250.0533 129.8698
L250.0533 128.8698
" />
</g><g transform="rotate(-90.000000 114.2238 36.7792)">
<text x="114.2238" y="36.7792"
transform="scale(-1 1) translate(-228.447600 0)"
textLength="1.7738" font-size="1.3333" lengthAdjust="spacingAndGlyphs"
text-anchor="start" opacity="0">IN</text>
</g>
<g class="stroked-text"><desc>IN</desc>
<path d="M114.3540 37.1160
L115.3540 37.1160
" />
<path d="M114.3540 37.5922
L115.3540 37.5922
" />
<path d="M115.3540 37.5922
L114.3540 38.1636
" />
<path d="M114.3540 38.1636
L115.3540 38.1636
" />
</g><text x="241.0022" y="37.0000"
transform="scale(-1 1) translate(-482.004400 0)"
textLength="3.1071" font-size="1.3333" lengthAdjust="spacingAndGlyphs"
text-anchor="start" opacity="0">OUT</text>
<g class="stroked-text"><desc>OUT</desc>
<path d="M241.5295 35.8698
L241.7199 35.8698
" />
<path d="M241.7199 35.8698
L241.8152 35.9174
" />
<path d="M241.8152 35.9174
L241.9104 36.0127
" />
<path d="M241.9104 36.0127
L241.9580 36.2032
" />
<path d="M241.9580 36.2032
L241.9580 36.5365
" />
<path d="M241.9580 36.5365
L241.9104 36.7270
" />
<path d="M241.9104 36.7270
L241.8152 36.8222
" />
<path d="M241.8152 36.8222
L241.7199 36.8698
" />
<path d="M241.7199 36.8698
L241.5295 36.8698
" />
<path d="M241.5295 36.8698
L241.4342 36.8222
" />
<path d="M241.4342 36.8222
L241.3390 36.7270
" />
<path d="M241.3390 36.7270
L241.2914 36.5365
" />
<path d="M241.2914 36.5365
L241.2914 36.2032
" />
<path d="M241.2914 36.2032
L241.3390 36.0127
" />
<path d="M241.3390 36.0127
L241.4342 35.9174
" />
<path d="M241.4342 35.9174
L241.5295 35.8698
" />
<path d="M242.3866 35.8698
L242.3866 36.6793
" />
<path d="M242.3866 36.6793
L242.4342 36.7746
" />
<path d="M242.4342 36.7746
L242.4818 36.8222
" />
<path d="M242.4818 36.8222
L242.5771 36.8698
" />
<path d="M242.5771 36.8698
L242.7676 36.8698
" />
<path d="M242.7676 36.8698
L242.8628 36.8222
" />
<path d="M242.8628 36.8222
L242.9104 36.7746
" />
<path d="M242.9104 36.7746
L242.9580 36.6793
" />
<path d="M242.9580 36.6793
L242.9580 35.8698
" />
<path d="M243.2914 35.8698
L243.8628 35.8698
" />
<path d="M243.5771 36.8698
L243.5771 35.8698
" />
</g><g transform="rotate(-90.000000 120.6754 36.6776)">
<text x="120.6754" y="36.6776"
transform="scale(-1 1) translate(-241.350800 0)"
textLength="3.8690" font-size="1.3333" lengthAdjust="spacingAndGlyphs"
text-anchor="start" opacity="0">VREF</text>
</g>
<g class="stroked-text"><desc>VREF</desc>
<path d="M121.8056 36.8715
L120.8056 37.2049
" />
<path d="M120.8056 37.2049
L121.8056 37.5382
" />
<path d="M120.8056 38.4429
L121.2818 38.1096
" />
<path d="M120.8056 37.8715
L121.8056 37.8715
" />
<path d="M121.8056 37.8715
L121.8056 38.2525
" />
<path d="M121.8056 38.2525
L121.7580 38.3477
" />
<path d="M121.7580 38.3477
L121.7103 38.3953
" />
<path d="M121.7103 38.3953
L121.6151 38.4429
" />
<path d="M121.6151 38.4429
L121.4722 38.4429
" />
<path d="M121.4722 38.4429
L121.3770 38.3953
" />
<path d="M121.3770 38.3953
L121.3294 38.3477
" />
<path d="M121.3294 38.3477
L121.2818 38.2525
" />
<path d="M121.2818 38.2525
L121.2818 37.8715
" />
<path d="M121.3294 38.8715
L121.3294 39.2049
" />
<path d="M120.8056 39.3477
L120.8056 38.8715
" />
<path d="M120.8056 38.8715
L121.8056 38.8715
" />
<path d="M121.8056 38.8715
L121.8056 39.3477
" />
<path d="M121.3294 40.1096
L121.3294 39.7763
" />
<path d="M120.8056 39.7763
L121.8056 39.7763
" />
<path d="M121.8056 39.7763
L121.8056 40.2525
" />
</g><text x="249.9022" y="25.4250"
transform="scale(-1 1) translate(-499.804400 0)"
textLength="2.9167" font-size="1.3333" lengthAdjust="spacingAndGlyphs"
text-anchor="middle" opacity="0">J23</text>
<g class="stroked-text"><desc>J23</desc>
<path d="M249.0927 24.3798
L249.0927 25.0941
" />
<path d="M249.0927 25.0941
L249.0451 25.2370
" />
<path d="M249.0451 25.2370
L248.9498 25.3322
" />
<path d="M248.9498 25.3322
L248.8070 25.3798
" />
<path d="M248.8070 25.3798
L248.7117 25.3798
" />
<path d="M249.5212 24.4751
L249.5689 24.4274
" />
<path d="M249.5689 24.4274
L249.6641 24.3798
" />
<path d="M249.6641 24.3798
L249.9022 24.3798
" />
<path d="M249.9022 24.3798
L249.9974 24.4274
" />
<path d="M249.9974 24.4274
L250.0451 24.4751
" />
<path d="M250.0451 24.4751
L250.0927 24.5703
" />
<path d="M250.0927 24.5703
L250.0927 24.6655
" />
<path d="M250.0927 24.6655
L250.0451 24.8084
" />
<path d="M250.0451 24.8084
L249.4736 25.3798
" />
<path d="M249.4736 25.3798
L250.0927 25.3798
" />
<path d="M250.4260 24.3798
L251.0451 24.3798
" />
<path d="M251.0451 24.3798
L250.7117 24.7608
" />
<path d="M250.7117 24.7608
L250.8546 24.7608
" />
<path d="M250.8546 24.7608
L250.9498 24.8084
" />
<path d="M250.9498 24.8084
L250.9974 24.8560
" />
<path d="M250.9974 24.8560
L251.0451 24.9512
" />
<path d="M251.0451 24.9512
L251.0451 25.1893
" />
<path d="M251.0451 25.1893
L250.9974 25.2846
" />
<path d="M250.9974 25.2846
L250.9498 25.3322
" />
<path d="M250.9498 25.3322
L250.8546 25.3798
" />
<path d="M250.8546 25.3798
L250.5689 25.3798
" />
<path d="M250.5689 25.3798
L250.4736 25.3322
" />
<path d="M250.4736 25.3322
L250.4260 25.2846
" />
</g><text x="250.0022" y="126.5000"
transform="scale(-1 1) translate(-500.004400 0)"
textLength="2.9167" font-size="1.3333" lengthAdjust="spacingAndGlyphs"
text-anchor="middle" opacity="0">J26</text>
<g class="stroked-text"><desc>J26</desc>
<path d="M249.1927 125.4548
L249.1927 126.1691
" />
<path d="M249.1927 126.1691
L249.1451 126.3120
" />
<path d="M249.1451 126.3120
L249.0498 126.4072
" />
<path d="M249.0498 126.4072
L248.9070 126.4548
" />
<path d="M248.9070 126.4548
L248.8117 126.4548
" />
<path d="M249.6212 125.5501
L249.6689 125.5024
" />
<path d="M249.6689 125.5024
L249.7641 125.4548
" />
<path d="M249.7641 125.4548
L250.0022 125.4548
" />
<path d="M250.0022 125.4548
L250.0974 125.5024
" />
<path d="M250.0974 125.5024
L250.1451 125.5501
" />
<path d="M250.1451 125.5501
L250.1927 125.6453
" />
<path d="M250.1927 125.6453
L250.1927 125.7405
" />
<path d="M250.1927 125.7405
L250.1451 125.8834
" />
<path d="M250.1451 125.8834
L249.5736 126.4548
" />
<path d="M249.5736 126.4548
L250.1927 126.4548
" />
<path d="M251.0498 125.4548
L250.8593 125.4548
" />
<path d="M250.8593 125.4548
L250.7641 125.5024
" />
<path d="M250.7641 125.5024
L250.7165 125.5501
" />
<path d="M250.7165 125.5501
L250.6212 125.6929
" />
<path d="M250.6212 125.6929
L250.5736 125.8834
" />
<path d="M250.5736 125.8834
L250.5736 126.2643
" />
<path d="M250.5736 126.2643
L250.6212 126.3596
" />
<path d="M250.6212 126.3596
L250.6689 126.4072
" />
<path d="M250.6689 126.4072
L250.7641 126.4548
" />
<path d="M250.7641 126.4548
L250.9546 126.4548
" />
<path d="M250.9546 126.4548
L251.0498 126.4072
" />
<path d="M251.0498 126.4072
L251.0974 126.3596
" />
<path d="M251.0974 126.3596
L251.1451 126.2643
" />
<path d="M251.1451 126.2643
L251.1451 126.0262
" />
<path d="M251.1451 126.0262
L251.0974 125.9310
" />
<path d="M251.0974 125.9310
L251.0498 125.8834
" />
<path d="M251.0498 125.8834
L250.9546 125.8358
" />
<path d="M250.9546 125.8358
L250.7641 125.8358
" />
<path d="M250.7641 125.8358
L250.6689 125.8834
" />
<path d="M250.6689 125.8834
L250.6212 125.9310
" />
<path d="M250.6212 125.9310
L250.5736 126.0262
" />
</g><text x="173.7022" y="69.0000"
transform="scale(-1 1) translate(-347.404400 0)"
textLength="2.9167" font-size="1.3333" lengthAdjust="spacingAndGlyphs"
text-anchor="middle" opacity="0">J25</text>
<g class="stroked-text"><desc>J25</desc>
<path d="M172.8927 67.9548
L172.8927 68.6691
" />
<path d="M172.8927 68.6691
L172.8451 68.8120
" />
<path d="M172.8451 68.8120
L172.7498 68.9072
" />
<path d="M172.7498 68.9072
L172.6070 68.9548
" />
<path d="M172.6070 68.9548
L172.5117 68.9548
" />
<path d="M173.3212 68.0501
L173.3689 68.0024
" />
<path d="M173.3689 68.0024
L173.4641 67.9548
" />
<path d="M173.4641 67.9548
L173.7022 67.9548
" />
<path d="M173.7022 67.9548
L173.7974 68.0024
" />
<path d="M173.7974 68.0024
L173.8451 68.0501
" />
<path d="M173.8451 68.0501
L173.8927 68.1453
" />
<path d="M173.8927 68.1453
L173.8927 68.2405
" />
<path d="M173.8927 68.2405
L173.8451 68.3834
" />
<path d="M173.8451 68.3834
L173.2736 68.9548
" />
<path d="M173.2736 68.9548
L173.8927 68.9548
" />
<path d="M174.7974 67.9548
L174.3212 67.9548
" />
<path d="M174.3212 67.9548
L174.2736 68.4310
" />
<path d="M174.2736 68.4310
L174.3212 68.3834
" />
<path d="M174.3212 68.3834
L174.4165 68.3358
" />
<path d="M174.4165 68.3358
L174.6546 68.3358
" />
<path d="M174.6546 68.3358
L174.7498 68.3834
" />
<path d="M174.7498 68.3834
L174.7974 68.4310
" />
<path d="M174.7974 68.4310
L174.8451 68.5262
" />
<path d="M174.8451 68.5262
L174.8451 68.7643
" />
<path d="M174.8451 68.7643
L174.7974 68.8596
" />
<path d="M174.7974 68.8596
L174.7498 68.9072
" />
<path d="M174.7498 68.9072
L174.6546 68.9548
" />
<path d="M174.6546 68.9548
L174.4165 68.9548
" />
<path d="M174.4165 68.9548
L174.3212 68.9072
" />
<path d="M174.3212 68.9072
L174.2736 68.8596
" />
</g><text x="249.9022" y="33.1750"
transform="scale(-1 1) translate(-499.804400 0)"
textLength="2.9167" font-size="1.3333" lengthAdjust="spacingAndGlyphs"
text-anchor="middle" opacity="0">J24</text>
<g class="stroked-text"><desc>J24</desc>
<path d="M249.0927 32.1298
L249.0927 32.8441
" />
<path d="M249.0927 32.8441
L249.0451 32.9870
" />
<path d="M249.0451 32.9870
L248.9498 33.0822
" />
<path d="M248.9498 33.0822
L248.8070 33.1298
" />
<path d="M248.8070 33.1298
L248.7117 33.1298
" />
<path d="M249.5212 32.2251
L249.5689 32.1774
" />
<path d="M249.5689 32.1774
L249.6641 32.1298
" />
<path d="M249.6641 32.1298
L249.9022 32.1298
" />
<path d="M249.9022 32.1298
L249.9974 32.1774
" />
<path d="M249.9974 32.1774
L250.0451 32.2251
" />
<path d="M250.0451 32.2251
L250.0927 32.3203
" />
<path d="M250.0927 32.3203
L250.0927 32.4155
" />
<path d="M250.0927 32.4155
L250.0451 32.5584
" />
<path d="M250.0451 32.5584
L249.4736 33.1298
" />
<path d="M249.4736 33.1298
L250.0927 33.1298
" />
<path d="M250.9498 32.4632
L250.9498 33.1298
" />
<path d="M250.7117 32.0822
L250.4736 32.7965
" />
<path d="M250.4736 32.7965
L251.0927 32.7965
" />
</g></g>
<g style="fill:#000000; fill-opacity:0.0; 
stroke:#000000; stroke-width:0.1200; stroke-opacity:1; 
stroke-linecap:round; stroke-linejoin:round;">
<path d="M244.5522 25.7250
L244.5522 26.9750
" />
<path d="M244.8422 31.9850
L254.9622 31.9850
" />
<path d="M244.8422 26.0150
L244.8422 31.9850
" />
<path d="M244.8522 28.2750
L245.6022 28.2750
" />
<path d="M244.8522 26.7750
L246.6522 26.7750
" />
<path d="M244.8522 26.0250
L244.8522 26.7750
" />
<path d="M245.6022 31.2250
L249.9022 31.2250
" />
<path d="M245.6022 28.2750
L245.6022 31.2250
" />
<path d="M245.8022 25.7250
L244.5522 25.7250
" />
<path d="M246.6522 26.7750
L246.6522 26.0250
" />
<path d="M246.6522 26.0250
L244.8522 26.0250
" />
<path d="M248.1522 26.7750
L251.6522 26.7750
" />
<path d="M248.1522 26.0250
L248.1522 26.7750
" />
<path d="M251.6522 26.7750
L251.6522 26.0250
" />
<path d="M251.6522 26.0250
L248.1522 26.0250
" />
<path d="M253.1522 26.7750
L254.9522 26.7750
" />
<path d="M253.1522 26.0250
L253.1522 26.7750
" />
<path d="M254.2022 31.2250
L249.9022 31.2250
" />
<path d="M254.2022 28.2750
L254.2022 31.2250
" />
<path d="M254.9522 28.2750
L254.2022 28.2750
" />
<path d="M254.9522 26.7750
L254.9522 26.0250
" />
<path d="M254.9522 26.0250
L253.1522 26.0250
" />
<path d="M254.9622 31.9850
L254.9622 26.0150
" />
<path d="M254.9622 26.0150
L244.8422 26.0150
" />
<path d="M251.2522 124.3500
L251.2522 125.6000
" />
<path d="M251.5422 130.6100
L261.6622 130.6100
" />
<path d="M251.5422 124.6400
L251.5422 130.6100
" />
<path d="M251.5522 126.9000
L252.3022 126.9000
" />
<path d="M251.5522 125.4000
L253.3522 125.4000
" />
<path d="M251.5522 124.6500
L251.5522 125.4000
" />
<path d="M252.3022 129.8500
L256.6022 129.8500
" />
<path d="M252.3022 126.9000
L252.3022 129.8500
" />
<path d="M252.5022 124.3500
L251.2522 124.3500
" />
<path d="M253.3522 125.4000
L253.3522 124.6500
" />
<path d="M253.3522 124.6500
L251.5522 124.6500
" />
<path d="M254.8522 125.4000
L258.3522 125.4000
" />
<path d="M254.8522 124.6500
L254.8522 125.4000
" />
<path d="M258.3522 125.4000
L258.3522 124.6500
" />
<path d="M258.3522 124.6500
L254.8522 124.6500
" />
<path d="M259.8522 125.4000
L261.6522 125.4000
" />
<path d="M259.8522 124.6500
L259.8522 125.4000
" />
<path d="M260.9022 129.8500
L256.6022 129.8500
" />
<path d="M260.9022 126.9000
L260.9022 129.8500
" />
<path d="M261.6522 126.9000
L260.9022 126.9000
" />
<path d="M261.6522 125.4000
L261.6522 124.6500
" />
<path d="M261.6522 124.6500
L259.8522 124.6500
" />
<path d="M261.6622 130.6100
L261.6622 124.6400
" />
<path d="M261.6622 124.6400
L251.5422 124.6400
" />
</g>
<g style="fill:#000000; fill-opacity:0.0; 
stroke:#000000; stroke-width:0.1000; stroke-opacity:1; 
stroke-linecap:round; stroke-linejoin:round;">
<path d="M125.5222 63.5056
L125.5222 121.5056
" />
<path d="M129.2722 125.0056
L129.0222 125.0056
" />
</g>
<g style="fill:#000000; fill-opacity:0.0; 
stroke:#000000; stroke-width:0.1200; stroke-opacity:1; 
stroke-linecap:round; stroke-linejoin:round;">
<path d="M138.2122 123.0206
L138.2122 117.8206
" />
<path d="M139.1172 76.1156
L139.1172 81.2556
" />
<path d="M139.1172 73.5156
L139.1172 74.8456
" />
<path d="M140.4472 73.5156
L139.1172 73.5156
" />
<path d="M141.7172 76.1156
L139.1172 76.1156
" />
<path d="M141.7172 73.5156
L141.7172 76.1156
" />
<path d="M143.3522 120.4206
L143.3522 117.8206
" />
<path d="M143.3522 117.8206
L138.2122 117.8206
" />
<path d="M144.3172 81.2556
L139.1172 81.2556
" />
<path d="M144.3172 73.5156
L141.7172 73.5156
" />
<path d="M144.3172 73.5156
L144.3172 81.2556
" />
<path d="M145.9522 123.0206
L138.2122 123.0206
" />
<path d="M145.9522 123.0206
L145.9522 120.4206
" />
<path d="M145.9522 120.4206
L143.3522 120.4206
" />
<path d="M145.9522 119.1506
L145.9522 117.8206
" />
<path d="M145.9522 117.8206
L144.6222 117.8206
" />
<path d="M175.4222 69.6456
L175.4222 117.9656
" />
<path d="M175.4222 67.0456
L175.4222 68.3756
" />
<path d="M176.7522 67.0456
L175.4222 67.0456
" />
<path d="M178.0222 69.6456
L175.4222 69.6456
" />
<path d="M178.0222 67.0456
L178.0222 69.6456
" />
</g>
<g style="fill:#000000; fill-opacity:0.0; 
stroke:#000000; stroke-width:0.1000; stroke-opacity:1; 
stroke-linecap:round; stroke-linejoin:round;">
<path d="M178.0222 60.0056
L129.0222 60.0056
" />
<path d="M178.0222 60.0056
L178.5222 60.0052
" />
<path d="M178.7722 125.0056
L129.2722 125.0056
" />
</g>
<g style="fill:#000000; fill-opacity:0.0; 
stroke:#000000; stroke-width:0.1200; stroke-opacity:1; 
stroke-linecap:round; stroke-linejoin:round;">
<path d="M180.6222 117.9656
L175.4222 117.9656
" />
<path d="M180.6222 67.0456
L178.0222 67.0456
" />
<path d="M180.6222 67.0456
L180.6222 117.9656
" />
</g>
<g style="fill:#000000; fill-opacity:0.0; 
stroke:#000000; stroke-width:0.1000; stroke-opacity:1; 
stroke-linecap:round; stroke-linejoin:round;">
<path d="M182.0222 121.5056
L182.0222 63.5556
" />
<path d="M125.5222 121.5056 A3.5000 3.5000 0.0 0 0 129.0222 125.0056" />
<path d="M129.0222 60.0056 A3.5000 3.5000 0.0 0 0 125.5222 63.5056" />
<path d="M178.5222 125.0056 A3.5000 3.5000 0.0 0 0 182.0222 121.5056" />
<path d="M182.0222 63.5556 A3.5004 3.5004 0.0 0 0 178.5222 60.0052" />
<circle cx="129.0222" cy="121.5056" r="1.6510" /> 
<circle cx="129.0222" cy="63.5056" r="1.6510" /> 
<circle cx="178.0222" cy="121.5056" r="1.6510" /> 
<circle cx="178.0222" cy="63.5056" r="1.6510" /> 
</g>
<g style="fill:#000000; fill-opacity:0.0; 
stroke:#000000; stroke-width:0.1200; stroke-opacity:1; 
stroke-linecap:round; stroke-linejoin:round;">
<path d="M244.5522 33.4750
L244.5522 34.7250
" />
<path d="M244.8422 39.7350
L254.9622 39.7350
" />
<path d="M244.8422 33.7650
L244.8422 39.7350
" />
<path d="M244.8522 36.0250
L245.6022 36.0250
" />
<path d="M244.8522 34.5250
L246.6522 34.5250
" />
<path d="M244.8522 33.7750
L244.8522 34.5250
" />
<path d="M245.6022 38.9750
L249.9022 38.9750
" />
<path d="M245.6022 36.0250
L245.6022 38.9750
" />
<path d="M245.8022 33.4750
L244.5522 33.4750
" />
<path d="M246.6522 34.5250
L246.6522 33.7750
" />
<path d="M246.6522 33.7750
L244.8522 33.7750
" />
<path d="M248.1522 34.5250
L251.6522 34.5250
" />
<path d="M248.1522 33.7750
L248.1522 34.5250
" />
<path d="M251.6522 34.5250
L251.6522 33.7750
" />
<path d="M251.6522 33.7750
L248.1522 33.7750
" />
<path d="M253.1522 34.5250
L254.9522 34.5250
" />
<path d="M253.1522 33.7750
L253.1522 34.5250
" />
<path d="M254.2022 38.9750
L249.9022 38.9750
" />
<path d="M254.2022 36.0250
L254.2022 38.9750
" />
<path d="M254.9522 36.0250
L254.2022 36.0250
" />
<path d="M254.9522 34.5250
L254.9522 33.7750
" />
<path d="M254.9522 33.7750
L253.1522 33.7750
" />
<path d="M254.9622 39.7350
L254.9622 33.7650
" />
<path d="M254.9622 33.7650
L244.8422 33.7650
" />
<g >
</g>
<g >
</g>
<g >
</g>
<g >
</g>
<g >
</g>
<g >
</g>
<g >
</g>
<g >
</g>
<g >
</g>
<g >
</g>
<g >
</g>
<g >
</g>
<g >
</g>
<g >
</g>
<g >
</g>
<g >
</g>
<g >
</g>
<g >
</g>
<g >
</g>
<g >
</g>
<g >
</g>
<g >
</g>
<g >
</g>
<g >
</g>
<g >
</g>
<g >
</g>
<g >
</g>
<g >
</g>
<g >
</g>
<g >
</g>
<g >
</g>
<g >
</g>
<g >
</g>
<g >
</g>
<g >
</g>
<g >
</g>
<g >
</g>
<g >
</g>
<g >
</g>
<g >
</g>
<g >
</g>
<g >
</g>
<g >
</g>
<g >
</g>
<g >
</g>
<g >
</g>
<g >
</g>
<g >
</g>
<g >
</g>
<g >
</g>
<g >
</g>
<g >
</g>
<g >
</g>
<g >
</g>
<g >
</g>
<g >
</g>
<g >
</g>
<g >
</g>
<g >
</g>
<g >
</g>
<g >
</g>
<g >
</g>
<g >
</g>
<g >
</g>
<g >
</g>
<g >
</g>
<g >
</g>
<g >
</g>
<g >
</g>
<g >
</g>
<g >
</g>
<g >
</g>
<g >
</g>
<g >
</g>
<g >
</g>
<g >
</g>
<g >
</g>
<g >
</g>
<g >
</g>
<g >
</g>
<g >
</g>
<g >
</g>
<g >
</g>
<g >
</g>
<g >
</g>
<g >
</g>
<g >
</g>
<g >
</g>
<g >
</g>
<g >
</g>
<g >
</g>
<g >
</g>
<g >
</g>
<g >
</g>
<g >
</g>
<g >
</g>
<g >
</g>
<g >
</g>
<g >
</g>
<g >
</g>
<g >
</g>
<g >
</g>
<g >
</g>
<g >
</g>
<g >
</g>
<g >
</g>
<g >
</g>
<g >
</g>
<g >
</g>
<g >
</g>
<g >
</g>
<g >
</g>
<g >
</g>
<g >
</g>
<g >
</g>
<g >
</g>
<g >
</g>
<g >
</g>
<g >
</g>
<g >
</g>
<g >
</g>
<g >
</g>
<g >
</g>
<g >
</g>
<g >
</g>
<g >
</g>
<g >
</g>
<g >
</g>
<g >
</g>
<g >
</g>
</g> 
</svg>
