<?xml version="1.0" standalone="no"?>
 <!DOCTYPE svg PUBLIC "-//W3C//DTD SVG 1.1//EN" 
 "http://www.w3.org/Graphics/SVG/1.1/DTD/svg11.dtd"> 
<svg
  xmlns:svg="http://www.w3.org/2000/svg"
  xmlns="http://www.w3.org/2000/svg"
  xmlns:xlink="http://www.w3.org/1999/xlink"
  version="1.1"
  width="297.0022mm" height="210.0072mm" viewBox="0.0000 0.0000 297.0022 210.0072">
<title>SVG Image created as pedalboard-hw-B_Silkscreen.svg date 2023/10/12 16:34:36 </title>
  <desc>Image generated by PCBNEW </desc>
<g style="fill:#000000; fill-opacity:1.0000;stroke:#000000; stroke-opacity:1.0000;
stroke-linecap:round; stroke-linejoin:round;"
 transform="translate(0 0) scale(1 1)">
</g>
<g style="fill:#000000; fill-opacity:0.0; 
stroke:#000000; stroke-width:0.0000; stroke-opacity:1; 
stroke-linecap:round; stroke-linejoin:round;">
</g>
<g style="fill:#000000; fill-opacity:0.0; 
stroke:#000000; stroke-width:0.1500; stroke-opacity:1; 
stroke-linecap:round; stroke-linejoin:round;">
<g transform="rotate(-180.000000 242.6038 122.6384)">
<text x="242.6038" y="122.6384"
transform="scale(-1 1) translate(-485.207600 0)"
textLength="3.2976" font-size="1.3333" lengthAdjust="spacingAndGlyphs"
text-anchor="start" opacity="0">GND</text>
</g>
<g class="stroked-text"><desc>GND</desc>
<path d="M241.7432 123.7210
L241.8384 123.7686
" />
<path d="M241.8384 123.7686
L241.9813 123.7686
" />
<path d="M241.9813 123.7686
L242.1242 123.7210
" />
<path d="M242.1242 123.7210
L242.2194 123.6257
" />
<path d="M242.2194 123.6257
L242.2670 123.5305
" />
<path d="M242.2670 123.5305
L242.3146 123.3400
" />
<path d="M242.3146 123.3400
L242.3146 123.1972
" />
<path d="M242.3146 123.1972
L242.2670 123.0067
" />
<path d="M242.2670 123.0067
L242.2194 122.9114
" />
<path d="M242.2194 122.9114
L242.1242 122.8162
" />
<path d="M242.1242 122.8162
L241.9813 122.7686
" />
<path d="M241.9813 122.7686
L241.8861 122.7686
" />
<path d="M241.8861 122.7686
L241.7432 122.8162
" />
<path d="M241.7432 122.8162
L241.6956 122.8638
" />
<path d="M241.6956 122.8638
L241.6956 123.1972
" />
<path d="M241.6956 123.1972
L241.8861 123.1972
" />
<path d="M241.2670 122.7686
L241.2670 123.7686
" />
<path d="M241.2670 123.7686
L240.6956 122.7686
" />
<path d="M240.6956 122.7686
L240.6956 123.7686
" />
<path d="M240.2194 122.7686
L240.2194 123.7686
" />
<path d="M240.2194 123.7686
L239.9813 123.7686
" />
<path d="M239.9813 123.7686
L239.8384 123.7210
" />
<path d="M239.8384 123.7210
L239.7432 123.6257
" />
<path d="M239.7432 123.6257
L239.6956 123.5305
" />
<path d="M239.6956 123.5305
L239.6480 123.3400
" />
<path d="M239.6480 123.3400
L239.6480 123.1972
" />
<path d="M239.6480 123.1972
L239.6956 123.0067
" />
<path d="M239.6956 123.0067
L239.7432 122.9114
" />
<path d="M239.7432 122.9114
L239.8384 122.8162
" />
<path d="M239.8384 122.8162
L239.9813 122.7686
" />
<path d="M239.9813 122.7686
L240.2194 122.7686
" />
</g><g transform="rotate(-180.000000 242.5022 120.2000)">
<text x="242.5022" y="120.2000"
transform="scale(-1 1) translate(-485.004400 0)"
textLength="6.7738" font-size="1.3333" lengthAdjust="spacingAndGlyphs"
text-anchor="start" opacity="0">Data out</text>
</g>
<g class="stroked-text"><desc>Data out</desc>
<path d="M242.1654 120.3302
L242.1654 121.3302
" />
<path d="M242.1654 121.3302
L241.9273 121.3302
" />
<path d="M241.9273 121.3302
L241.7845 121.2826
" />
<path d="M241.7845 121.2826
L241.6892 121.1873
" />
<path d="M241.6892 121.1873
L241.6416 121.0921
" />
<path d="M241.6416 121.0921
L241.5940 120.9016
" />
<path d="M241.5940 120.9016
L241.5940 120.7588
" />
<path d="M241.5940 120.7588
L241.6416 120.5683
" />
<path d="M241.6416 120.5683
L241.6892 120.4730
" />
<path d="M241.6892 120.4730
L241.7845 120.3778
" />
<path d="M241.7845 120.3778
L241.9273 120.3302
" />
<path d="M241.9273 120.3302
L242.1654 120.3302
" />
<path d="M240.7368 120.3302
L240.7368 120.8540
" />
<path d="M240.7368 120.8540
L240.7845 120.9492
" />
<path d="M240.7845 120.9492
L240.8797 120.9968
" />
<path d="M240.8797 120.9968
L241.0702 120.9968
" />
<path d="M241.0702 120.9968
L241.1654 120.9492
" />
<path d="M240.7368 120.3778
L240.8321 120.3302
" />
<path d="M240.8321 120.3302
L241.0702 120.3302
" />
<path d="M241.0702 120.3302
L241.1654 120.3778
" />
<path d="M241.1654 120.3778
L241.2130 120.4730
" />
<path d="M241.2130 120.4730
L241.2130 120.5683
" />
<path d="M241.2130 120.5683
L241.1654 120.6635
" />
<path d="M241.1654 120.6635
L241.0702 120.7111
" />
<path d="M241.0702 120.7111
L240.8321 120.7111
" />
<path d="M240.8321 120.7111
L240.7368 120.7588
" />
<path d="M240.4035 120.9968
L240.0226 120.9968
" />
<path d="M240.2607 121.3302
L240.2607 120.4730
" />
<path d="M240.2607 120.4730
L240.2130 120.3778
" />
<path d="M240.2130 120.3778
L240.1178 120.3302
" />
<path d="M240.1178 120.3302
L240.0226 120.3302
" />
<path d="M239.2607 120.3302
L239.2607 120.8540
" />
<path d="M239.2607 120.8540
L239.3083 120.9492
" />
<path d="M239.3083 120.9492
L239.4035 120.9968
" />
<path d="M239.4035 120.9968
L239.5940 120.9968
" />
<path d="M239.5940 120.9968
L239.6892 120.9492
" />
<path d="M239.2607 120.3778
L239.3559 120.3302
" />
<path d="M239.3559 120.3302
L239.5940 120.3302
" />
<path d="M239.5940 120.3302
L239.6892 120.3778
" />
<path d="M239.6892 120.3778
L239.7368 120.4730
" />
<path d="M239.7368 120.4730
L239.7368 120.5683
" />
<path d="M239.7368 120.5683
L239.6892 120.6635
" />
<path d="M239.6892 120.6635
L239.5940 120.7111
" />
<path d="M239.5940 120.7111
L239.3559 120.7111
" />
<path d="M239.3559 120.7111
L239.2607 120.7588
" />
<path d="M237.8797 120.3302
L237.9749 120.3778
" />
<path d="M237.9749 120.3778
L238.0226 120.4254
" />
<path d="M238.0226 120.4254
L238.0702 120.5207
" />
<path d="M238.0702 120.5207
L238.0702 120.8064
" />
<path d="M238.0702 120.8064
L238.0226 120.9016
" />
<path d="M238.0226 120.9016
L237.9749 120.9492
" />
<path d="M237.9749 120.9492
L237.8797 120.9968
" />
<path d="M237.8797 120.9968
L237.7368 120.9968
" />
<path d="M237.7368 120.9968
L237.6416 120.9492
" />
<path d="M237.6416 120.9492
L237.5940 120.9016
" />
<path d="M237.5940 120.9016
L237.5464 120.8064
" />
<path d="M237.5464 120.8064
L237.5464 120.5207
" />
<path d="M237.5464 120.5207
L237.5940 120.4254
" />
<path d="M237.5940 120.4254
L237.6416 120.3778
" />
<path d="M237.6416 120.3778
L237.7368 120.3302
" />
<path d="M237.7368 120.3302
L237.8797 120.3302
" />
<path d="M236.6892 120.9968
L236.6892 120.3302
" />
<path d="M237.1178 120.9968
L237.1178 120.4730
" />
<path d="M237.1178 120.4730
L237.0702 120.3778
" />
<path d="M237.0702 120.3778
L236.9749 120.3302
" />
<path d="M236.9749 120.3302
L236.8321 120.3302
" />
<path d="M236.8321 120.3302
L236.7368 120.3778
" />
<path d="M236.7368 120.3778
L236.6892 120.4254
" />
<path d="M236.3559 120.9968
L235.9749 120.9968
" />
<path d="M236.2130 121.3302
L236.2130 120.4730
" />
<path d="M236.2130 120.4730
L236.1654 120.3778
" />
<path d="M236.1654 120.3778
L236.0702 120.3302
" />
<path d="M236.0702 120.3302
L235.9749 120.3302
" />
</g><g transform="rotate(-90.000000 225.0694 49.7332)">
<text x="225.0694" y="49.7332"
transform="scale(-1 1) translate(-450.138800 0)"
textLength="1.7738" font-size="1.3333" lengthAdjust="spacingAndGlyphs"
text-anchor="start" opacity="0">IN</text>
</g>
<g class="stroked-text"><desc>IN</desc>
<path d="M225.1996 50.0700
L226.1996 50.0700
" />
<path d="M225.1996 50.5462
L226.1996 50.5462
" />
<path d="M226.1996 50.5462
L225.1996 51.1176
" />
<path d="M225.1996 51.1176
L226.1996 51.1176
" />
</g><g transform="rotate(-90.000000 107.7722 36.5760)">
<text x="107.7722" y="36.5760"
transform="scale(-1 1) translate(-215.544400 0)"
textLength="3.2976" font-size="1.3333" lengthAdjust="spacingAndGlyphs"
text-anchor="start" opacity="0">GND</text>
</g>
<g class="stroked-text"><desc>GND</desc>
<path d="M108.8548 37.4366
L108.9024 37.3413
" />
<path d="M108.9024 37.3413
L108.9024 37.1985
" />
<path d="M108.9024 37.1985
L108.8548 37.0556
" />
<path d="M108.8548 37.0556
L108.7595 36.9604
" />
<path d="M108.7595 36.9604
L108.6643 36.9128
" />
<path d="M108.6643 36.9128
L108.4738 36.8652
" />
<path d="M108.4738 36.8652
L108.3310 36.8652
" />
<path d="M108.3310 36.8652
L108.1405 36.9128
" />
<path d="M108.1405 36.9128
L108.0452 36.9604
" />
<path d="M108.0452 36.9604
L107.9500 37.0556
" />
<path d="M107.9500 37.0556
L107.9024 37.1985
" />
<path d="M107.9024 37.1985
L107.9024 37.2937
" />
<path d="M107.9024 37.2937
L107.9500 37.4366
" />
<path d="M107.9500 37.4366
L107.9976 37.4842
" />
<path d="M107.9976 37.4842
L108.3310 37.4842
" />
<path d="M108.3310 37.4842
L108.3310 37.2937
" />
<path d="M107.9024 37.9128
L108.9024 37.9128
" />
<path d="M108.9024 37.9128
L107.9024 38.4842
" />
<path d="M107.9024 38.4842
L108.9024 38.4842
" />
<path d="M107.9024 38.9604
L108.9024 38.9604
" />
<path d="M108.9024 38.9604
L108.9024 39.1985
" />
<path d="M108.9024 39.1985
L108.8548 39.3413
" />
<path d="M108.8548 39.3413
L108.7595 39.4366
" />
<path d="M108.7595 39.4366
L108.6643 39.4842
" />
<path d="M108.6643 39.4842
L108.4738 39.5318
" />
<path d="M108.4738 39.5318
L108.3310 39.5318
" />
<path d="M108.3310 39.5318
L108.1405 39.4842
" />
<path d="M108.1405 39.4842
L108.0452 39.4366
" />
<path d="M108.0452 39.4366
L107.9500 39.3413
" />
<path d="M107.9500 39.3413
L107.9024 39.1985
" />
<path d="M107.9024 39.1985
L107.9024 38.9604
" />
</g><text x="154.2022" y="54.9000"
transform="scale(-1 1) translate(-308.404400 0)"
textLength="5.8214" font-size="1.3333" lengthAdjust="spacingAndGlyphs"
text-anchor="start" opacity="0">5V PSU</text>
<g class="stroked-text"><desc>5V PSU</desc>
<path d="M155.0152 53.7698
L154.5390 53.7698
" />
<path d="M154.5390 53.7698
L154.4914 54.2460
" />
<path d="M154.4914 54.2460
L154.5390 54.1984
" />
<path d="M154.5390 54.1984
L154.6342 54.1508
" />
<path d="M154.6342 54.1508
L154.8723 54.1508
" />
<path d="M154.8723 54.1508
L154.9676 54.1984
" />
<path d="M154.9676 54.1984
L155.0152 54.2460
" />
<path d="M155.0152 54.2460
L155.0628 54.3412
" />
<path d="M155.0628 54.3412
L155.0628 54.5793
" />
<path d="M155.0628 54.5793
L155.0152 54.6746
" />
<path d="M155.0152 54.6746
L154.9676 54.7222
" />
<path d="M154.9676 54.7222
L154.8723 54.7698
" />
<path d="M154.8723 54.7698
L154.6342 54.7698
" />
<path d="M154.6342 54.7698
L154.5390 54.7222
" />
<path d="M154.5390 54.7222
L154.4914 54.6746
" />
<path d="M155.3485 53.7698
L155.6818 54.7698
" />
<path d="M155.6818 54.7698
L156.0152 53.7698
" />
<path d="M157.1104 54.7698
L157.1104 53.7698
" />
<path d="M157.1104 53.7698
L157.4914 53.7698
" />
<path d="M157.4914 53.7698
L157.5866 53.8174
" />
<path d="M157.5866 53.8174
L157.6342 53.8651
" />
<path d="M157.6342 53.8651
L157.6818 53.9603
" />
<path d="M157.6818 53.9603
L157.6818 54.1032
" />
<path d="M157.6818 54.1032
L157.6342 54.1984
" />
<path d="M157.6342 54.1984
L157.5866 54.2460
" />
<path d="M157.5866 54.2460
L157.4914 54.2936
" />
<path d="M157.4914 54.2936
L157.1104 54.2936
" />
<path d="M158.0628 54.7222
L158.2056 54.7698
" />
<path d="M158.2056 54.7698
L158.4437 54.7698
" />
<path d="M158.4437 54.7698
L158.5390 54.7222
" />
<path d="M158.5390 54.7222
L158.5866 54.6746
" />
<path d="M158.5866 54.6746
L158.6342 54.5793
" />
<path d="M158.6342 54.5793
L158.6342 54.4841
" />
<path d="M158.6342 54.4841
L158.5866 54.3889
" />
<path d="M158.5866 54.3889
L158.5390 54.3412
" />
<path d="M158.5390 54.3412
L158.4437 54.2936
" />
<path d="M158.4437 54.2936
L158.2533 54.2460
" />
<path d="M158.2533 54.2460
L158.1580 54.1984
" />
<path d="M158.1580 54.1984
L158.1104 54.1508
" />
<path d="M158.1104 54.1508
L158.0628 54.0555
" />
<path d="M158.0628 54.0555
L158.0628 53.9603
" />
<path d="M158.0628 53.9603
L158.1104 53.8651
" />
<path d="M158.1104 53.8651
L158.1580 53.8174
" />
<path d="M158.1580 53.8174
L158.2533 53.7698
" />
<path d="M158.2533 53.7698
L158.4914 53.7698
" />
<path d="M158.4914 53.7698
L158.6342 53.8174
" />
<path d="M159.0628 53.7698
L159.0628 54.5793
" />
<path d="M159.0628 54.5793
L159.1104 54.6746
" />
<path d="M159.1104 54.6746
L159.1580 54.7222
" />
<path d="M159.1580 54.7222
L159.2533 54.7698
" />
<path d="M159.2533 54.7698
L159.4437 54.7698
" />
<path d="M159.4437 54.7698
L159.5390 54.7222
" />
<path d="M159.5390 54.7222
L159.5866 54.6746
" />
<path d="M159.5866 54.6746
L159.6342 54.5793
" />
<path d="M159.6342 54.5793
L159.6342 53.7698
" />
</g><text x="213.9022" y="78.5300"
transform="scale(-1 1) translate(-427.804400 0)"
textLength="13.1548" font-size="1.3333" lengthAdjust="spacingAndGlyphs"
text-anchor="start" opacity="0">Open Pedalboard</text>
<g class="stroked-text"><desc>Open Pedalboard</desc>
<path d="M214.4295 77.3998
L214.6199 77.3998
" />
<path d="M214.6199 77.3998
L214.7152 77.4474
" />
<path d="M214.7152 77.4474
L214.8104 77.5427
" />
<path d="M214.8104 77.5427
L214.8580 77.7332
" />
<path d="M214.8580 77.7332
L214.8580 78.0665
" />
<path d="M214.8580 78.0665
L214.8104 78.2570
" />
<path d="M214.8104 78.2570
L214.7152 78.3522
" />
<path d="M214.7152 78.3522
L214.6199 78.3998
" />
<path d="M214.6199 78.3998
L214.4295 78.3998
" />
<path d="M214.4295 78.3998
L214.3342 78.3522
" />
<path d="M214.3342 78.3522
L214.2390 78.2570
" />
<path d="M214.2390 78.2570
L214.1914 78.0665
" />
<path d="M214.1914 78.0665
L214.1914 77.7332
" />
<path d="M214.1914 77.7332
L214.2390 77.5427
" />
<path d="M214.2390 77.5427
L214.3342 77.4474
" />
<path d="M214.3342 77.4474
L214.4295 77.3998
" />
<path d="M215.2866 77.7332
L215.2866 78.7332
" />
<path d="M215.2866 77.7808
L215.3818 77.7332
" />
<path d="M215.3818 77.7332
L215.5723 77.7332
" />
<path d="M215.5723 77.7332
L215.6676 77.7808
" />
<path d="M215.6676 77.7808
L215.7152 77.8284
" />
<path d="M215.7152 77.8284
L215.7628 77.9236
" />
<path d="M215.7628 77.9236
L215.7628 78.2093
" />
<path d="M215.7628 78.2093
L215.7152 78.3046
" />
<path d="M215.7152 78.3046
L215.6676 78.3522
" />
<path d="M215.6676 78.3522
L215.5723 78.3998
" />
<path d="M215.5723 78.3998
L215.3818 78.3998
" />
<path d="M215.3818 78.3998
L215.2866 78.3522
" />
<path d="M216.5723 78.3522
L216.4771 78.3998
" />
<path d="M216.4771 78.3998
L216.2866 78.3998
" />
<path d="M216.2866 78.3998
L216.1914 78.3522
" />
<path d="M216.1914 78.3522
L216.1437 78.2570
" />
<path d="M216.1437 78.2570
L216.1437 77.8760
" />
<path d="M216.1437 77.8760
L216.1914 77.7808
" />
<path d="M216.1914 77.7808
L216.2866 77.7332
" />
<path d="M216.2866 77.7332
L216.4771 77.7332
" />
<path d="M216.4771 77.7332
L216.5723 77.7808
" />
<path d="M216.5723 77.7808
L216.6199 77.8760
" />
<path d="M216.6199 77.8760
L216.6199 77.9712
" />
<path d="M216.6199 77.9712
L216.1437 78.0665
" />
<path d="M217.0485 77.7332
L217.0485 78.3998
" />
<path d="M217.0485 77.8284
L217.0961 77.7808
" />
<path d="M217.0961 77.7808
L217.1914 77.7332
" />
<path d="M217.1914 77.7332
L217.3342 77.7332
" />
<path d="M217.3342 77.7332
L217.4295 77.7808
" />
<path d="M217.4295 77.7808
L217.4771 77.8760
" />
<path d="M217.4771 77.8760
L217.4771 78.3998
" />
<path d="M218.7152 78.3998
L218.7152 77.3998
" />
<path d="M218.7152 77.3998
L219.0961 77.3998
" />
<path d="M219.0961 77.3998
L219.1914 77.4474
" />
<path d="M219.1914 77.4474
L219.2390 77.4951
" />
<path d="M219.2390 77.4951
L219.2866 77.5903
" />
<path d="M219.2866 77.5903
L219.2866 77.7332
" />
<path d="M219.2866 77.7332
L219.2390 77.8284
" />
<path d="M219.2390 77.8284
L219.1914 77.8760
" />
<path d="M219.1914 77.8760
L219.0961 77.9236
" />
<path d="M219.0961 77.9236
L218.7152 77.9236
" />
<path d="M220.0961 78.3522
L220.0009 78.3998
" />
<path d="M220.0009 78.3998
L219.8104 78.3998
" />
<path d="M219.8104 78.3998
L219.7152 78.3522
" />
<path d="M219.7152 78.3522
L219.6676 78.2570
" />
<path d="M219.6676 78.2570
L219.6676 77.8760
" />
<path d="M219.6676 77.8760
L219.7152 77.7808
" />
<path d="M219.7152 77.7808
L219.8104 77.7332
" />
<path d="M219.8104 77.7332
L220.0009 77.7332
" />
<path d="M220.0009 77.7332
L220.0961 77.7808
" />
<path d="M220.0961 77.7808
L220.1437 77.8760
" />
<path d="M220.1437 77.8760
L220.1437 77.9712
" />
<path d="M220.1437 77.9712
L219.6676 78.0665
" />
<path d="M221.0009 78.3998
L221.0009 77.3998
" />
<path d="M221.0009 78.3522
L220.9056 78.3998
" />
<path d="M220.9056 78.3998
L220.7152 78.3998
" />
<path d="M220.7152 78.3998
L220.6199 78.3522
" />
<path d="M220.6199 78.3522
L220.5723 78.3046
" />
<path d="M220.5723 78.3046
L220.5247 78.2093
" />
<path d="M220.5247 78.2093
L220.5247 77.9236
" />
<path d="M220.5247 77.9236
L220.5723 77.8284
" />
<path d="M220.5723 77.8284
L220.6199 77.7808
" />
<path d="M220.6199 77.7808
L220.7152 77.7332
" />
<path d="M220.7152 77.7332
L220.9056 77.7332
" />
<path d="M220.9056 77.7332
L221.0009 77.7808
" />
<path d="M221.9056 78.3998
L221.9056 77.8760
" />
<path d="M221.9056 77.8760
L221.8580 77.7808
" />
<path d="M221.8580 77.7808
L221.7628 77.7332
" />
<path d="M221.7628 77.7332
L221.5723 77.7332
" />
<path d="M221.5723 77.7332
L221.4771 77.7808
" />
<path d="M221.9056 78.3522
L221.8104 78.3998
" />
<path d="M221.8104 78.3998
L221.5723 78.3998
" />
<path d="M221.5723 78.3998
L221.4771 78.3522
" />
<path d="M221.4771 78.3522
L221.4295 78.2570
" />
<path d="M221.4295 78.2570
L221.4295 78.1617
" />
<path d="M221.4295 78.1617
L221.4771 78.0665
" />
<path d="M221.4771 78.0665
L221.5723 78.0189
" />
<path d="M221.5723 78.0189
L221.8104 78.0189
" />
<path d="M221.8104 78.0189
L221.9056 77.9712
" />
<path d="M222.5247 78.3998
L222.4295 78.3522
" />
<path d="M222.4295 78.3522
L222.3818 78.2570
" />
<path d="M222.3818 78.2570
L222.3818 77.3998
" />
<path d="M222.9056 78.3998
L222.9056 77.3998
" />
<path d="M222.9056 77.7808
L223.0009 77.7332
" />
<path d="M223.0009 77.7332
L223.1914 77.7332
" />
<path d="M223.1914 77.7332
L223.2866 77.7808
" />
<path d="M223.2866 77.7808
L223.3342 77.8284
" />
<path d="M223.3342 77.8284
L223.3818 77.9236
" />
<path d="M223.3818 77.9236
L223.3818 78.2093
" />
<path d="M223.3818 78.2093
L223.3342 78.3046
" />
<path d="M223.3342 78.3046
L223.2866 78.3522
" />
<path d="M223.2866 78.3522
L223.1914 78.3998
" />
<path d="M223.1914 78.3998
L223.0009 78.3998
" />
<path d="M223.0009 78.3998
L222.9056 78.3522
" />
<path d="M223.9533 78.3998
L223.8580 78.3522
" />
<path d="M223.8580 78.3522
L223.8104 78.3046
" />
<path d="M223.8104 78.3046
L223.7628 78.2093
" />
<path d="M223.7628 78.2093
L223.7628 77.9236
" />
<path d="M223.7628 77.9236
L223.8104 77.8284
" />
<path d="M223.8104 77.8284
L223.8580 77.7808
" />
<path d="M223.8580 77.7808
L223.9533 77.7332
" />
<path d="M223.9533 77.7332
L224.0961 77.7332
" />
<path d="M224.0961 77.7332
L224.1914 77.7808
" />
<path d="M224.1914 77.7808
L224.2390 77.8284
" />
<path d="M224.2390 77.8284
L224.2866 77.9236
" />
<path d="M224.2866 77.9236
L224.2866 78.2093
" />
<path d="M224.2866 78.2093
L224.2390 78.3046
" />
<path d="M224.2390 78.3046
L224.1914 78.3522
" />
<path d="M224.1914 78.3522
L224.0961 78.3998
" />
<path d="M224.0961 78.3998
L223.9533 78.3998
" />
<path d="M225.1437 78.3998
L225.1437 77.8760
" />
<path d="M225.1437 77.8760
L225.0961 77.7808
" />
<path d="M225.0961 77.7808
L225.0009 77.7332
" />
<path d="M225.0009 77.7332
L224.8104 77.7332
" />
<path d="M224.8104 77.7332
L224.7152 77.7808
" />
<path d="M225.1437 78.3522
L225.0485 78.3998
" />
<path d="M225.0485 78.3998
L224.8104 78.3998
" />
<path d="M224.8104 78.3998
L224.7152 78.3522
" />
<path d="M224.7152 78.3522
L224.6676 78.2570
" />
<path d="M224.6676 78.2570
L224.6676 78.1617
" />
<path d="M224.6676 78.1617
L224.7152 78.0665
" />
<path d="M224.7152 78.0665
L224.8104 78.0189
" />
<path d="M224.8104 78.0189
L225.0485 78.0189
" />
<path d="M225.0485 78.0189
L225.1437 77.9712
" />
<path d="M225.6199 78.3998
L225.6199 77.7332
" />
<path d="M225.6199 77.9236
L225.6676 77.8284
" />
<path d="M225.6676 77.8284
L225.7152 77.7808
" />
<path d="M225.7152 77.7808
L225.8104 77.7332
" />
<path d="M225.8104 77.7332
L225.9056 77.7332
" />
<path d="M226.6676 78.3998
L226.6676 77.3998
" />
<path d="M226.6676 78.3522
L226.5723 78.3998
" />
<path d="M226.5723 78.3998
L226.3818 78.3998
" />
<path d="M226.3818 78.3998
L226.2866 78.3522
" />
<path d="M226.2866 78.3522
L226.2390 78.3046
" />
<path d="M226.2390 78.3046
L226.1914 78.2093
" />
<path d="M226.1914 78.2093
L226.1914 77.9236
" />
<path d="M226.1914 77.9236
L226.2390 77.8284
" />
<path d="M226.2390 77.8284
L226.2866 77.7808
" />
<path d="M226.2866 77.7808
L226.3818 77.7332
" />
<path d="M226.3818 77.7332
L226.5723 77.7332
" />
<path d="M226.5723 77.7332
L226.6676 77.7808
" />
</g><text x="213.9022" y="80.1400"
transform="scale(-1 1) translate(-427.804400 0)"
textLength="24.2024" font-size="1.3333" lengthAdjust="spacingAndGlyphs"
text-anchor="start" opacity="0">https://github.com/pedalboard</text>
<g class="stroked-text"><desc>https://github.com/pedalboard</desc>
<path d="M214.2390 80.0098
L214.2390 79.0098
" />
<path d="M214.6676 80.0098
L214.6676 79.4860
" />
<path d="M214.6676 79.4860
L214.6199 79.3908
" />
<path d="M214.6199 79.3908
L214.5247 79.3432
" />
<path d="M214.5247 79.3432
L214.3818 79.3432
" />
<path d="M214.3818 79.3432
L214.2866 79.3908
" />
<path d="M214.2866 79.3908
L214.2390 79.4384
" />
<path d="M215.0009 79.3432
L215.3818 79.3432
" />
<path d="M215.1437 79.0098
L215.1437 79.8670
" />
<path d="M215.1437 79.8670
L215.1914 79.9622
" />
<path d="M215.1914 79.9622
L215.2866 80.0098
" />
<path d="M215.2866 80.0098
L215.3818 80.0098
" />
<path d="M215.5723 79.3432
L215.9533 79.3432
" />
<path d="M215.7152 79.0098
L215.7152 79.8670
" />
<path d="M215.7152 79.8670
L215.7628 79.9622
" />
<path d="M215.7628 79.9622
L215.8580 80.0098
" />
<path d="M215.8580 80.0098
L215.9533 80.0098
" />
<path d="M216.2866 79.3432
L216.2866 80.3432
" />
<path d="M216.2866 79.3908
L216.3818 79.3432
" />
<path d="M216.3818 79.3432
L216.5723 79.3432
" />
<path d="M216.5723 79.3432
L216.6676 79.3908
" />
<path d="M216.6676 79.3908
L216.7152 79.4384
" />
<path d="M216.7152 79.4384
L216.7628 79.5336
" />
<path d="M216.7628 79.5336
L216.7628 79.8193
" />
<path d="M216.7628 79.8193
L216.7152 79.9146
" />
<path d="M216.7152 79.9146
L216.6676 79.9622
" />
<path d="M216.6676 79.9622
L216.5723 80.0098
" />
<path d="M216.5723 80.0098
L216.3818 80.0098
" />
<path d="M216.3818 80.0098
L216.2866 79.9622
" />
<path d="M217.1437 79.9622
L217.2390 80.0098
" />
<path d="M217.2390 80.0098
L217.4295 80.0098
" />
<path d="M217.4295 80.0098
L217.5247 79.9622
" />
<path d="M217.5247 79.9622
L217.5723 79.8670
" />
<path d="M217.5723 79.8670
L217.5723 79.8193
" />
<path d="M217.5723 79.8193
L217.5247 79.7241
" />
<path d="M217.5247 79.7241
L217.4295 79.6765
" />
<path d="M217.4295 79.6765
L217.2866 79.6765
" />
<path d="M217.2866 79.6765
L217.1914 79.6289
" />
<path d="M217.1914 79.6289
L217.1437 79.5336
" />
<path d="M217.1437 79.5336
L217.1437 79.4860
" />
<path d="M217.1437 79.4860
L217.1914 79.3908
" />
<path d="M217.1914 79.3908
L217.2866 79.3432
" />
<path d="M217.2866 79.3432
L217.4295 79.3432
" />
<path d="M217.4295 79.3432
L217.5247 79.3908
" />
<path d="M218.0009 79.9146
L218.0485 79.9622
" />
<path d="M218.0485 79.9622
L218.0009 80.0098
" />
<path d="M218.0009 80.0098
L217.9533 79.9622
" />
<path d="M217.9533 79.9622
L218.0009 79.9146
" />
<path d="M218.0009 79.9146
L218.0009 80.0098
" />
<path d="M218.0009 79.3908
L218.0485 79.4384
" />
<path d="M218.0485 79.4384
L218.0009 79.4860
" />
<path d="M218.0009 79.4860
L217.9533 79.4384
" />
<path d="M217.9533 79.4384
L218.0009 79.3908
" />
<path d="M218.0009 79.3908
L218.0009 79.4860
" />
<path d="M219.1914 78.9622
L218.3342 80.2479
" />
<path d="M220.2390 78.9622
L219.3818 80.2479
" />
<path d="M221.0009 79.3432
L221.0009 80.1527
" />
<path d="M221.0009 80.1527
L220.9533 80.2479
" />
<path d="M220.9533 80.2479
L220.9056 80.2955
" />
<path d="M220.9056 80.2955
L220.8104 80.3432
" />
<path d="M220.8104 80.3432
L220.6676 80.3432
" />
<path d="M220.6676 80.3432
L220.5723 80.2955
" />
<path d="M221.0009 79.9622
L220.9056 80.0098
" />
<path d="M220.9056 80.0098
L220.7152 80.0098
" />
<path d="M220.7152 80.0098
L220.6199 79.9622
" />
<path d="M220.6199 79.9622
L220.5723 79.9146
" />
<path d="M220.5723 79.9146
L220.5247 79.8193
" />
<path d="M220.5247 79.8193
L220.5247 79.5336
" />
<path d="M220.5247 79.5336
L220.5723 79.4384
" />
<path d="M220.5723 79.4384
L220.6199 79.3908
" />
<path d="M220.6199 79.3908
L220.7152 79.3432
" />
<path d="M220.7152 79.3432
L220.9056 79.3432
" />
<path d="M220.9056 79.3432
L221.0009 79.3908
" />
<path d="M221.4771 80.0098
L221.4771 79.3432
" />
<path d="M221.4771 79.0098
L221.4295 79.0574
" />
<path d="M221.4295 79.0574
L221.4771 79.1051
" />
<path d="M221.4771 79.1051
L221.5247 79.0574
" />
<path d="M221.5247 79.0574
L221.4771 79.0098
" />
<path d="M221.4771 79.0098
L221.4771 79.1051
" />
<path d="M221.8104 79.3432
L222.1914 79.3432
" />
<path d="M221.9533 79.0098
L221.9533 79.8670
" />
<path d="M221.9533 79.8670
L222.0009 79.9622
" />
<path d="M222.0009 79.9622
L222.0961 80.0098
" />
<path d="M222.0961 80.0098
L222.1914 80.0098
" />
<path d="M222.5247 80.0098
L222.5247 79.0098
" />
<path d="M222.9533 80.0098
L222.9533 79.4860
" />
<path d="M222.9533 79.4860
L222.9056 79.3908
" />
<path d="M222.9056 79.3908
L222.8104 79.3432
" />
<path d="M222.8104 79.3432
L222.6676 79.3432
" />
<path d="M222.6676 79.3432
L222.5723 79.3908
" />
<path d="M222.5723 79.3908
L222.5247 79.4384
" />
<path d="M223.8580 79.3432
L223.8580 80.0098
" />
<path d="M223.4295 79.3432
L223.4295 79.8670
" />
<path d="M223.4295 79.8670
L223.4771 79.9622
" />
<path d="M223.4771 79.9622
L223.5723 80.0098
" />
<path d="M223.5723 80.0098
L223.7152 80.0098
" />
<path d="M223.7152 80.0098
L223.8104 79.9622
" />
<path d="M223.8104 79.9622
L223.8580 79.9146
" />
<path d="M224.3342 80.0098
L224.3342 79.0098
" />
<path d="M224.3342 79.3908
L224.4295 79.3432
" />
<path d="M224.4295 79.3432
L224.6199 79.3432
" />
<path d="M224.6199 79.3432
L224.7152 79.3908
" />
<path d="M224.7152 79.3908
L224.7628 79.4384
" />
<path d="M224.7628 79.4384
L224.8104 79.5336
" />
<path d="M224.8104 79.5336
L224.8104 79.8193
" />
<path d="M224.8104 79.8193
L224.7628 79.9146
" />
<path d="M224.7628 79.9146
L224.7152 79.9622
" />
<path d="M224.7152 79.9622
L224.6199 80.0098
" />
<path d="M224.6199 80.0098
L224.4295 80.0098
" />
<path d="M224.4295 80.0098
L224.3342 79.9622
" />
<path d="M225.2390 79.9146
L225.2866 79.9622
" />
<path d="M225.2866 79.9622
L225.2390 80.0098
" />
<path d="M225.2390 80.0098
L225.1914 79.9622
" />
<path d="M225.1914 79.9622
L225.2390 79.9146
" />
<path d="M225.2390 79.9146
L225.2390 80.0098
" />
<path d="M226.1437 79.9622
L226.0485 80.0098
" />
<path d="M226.0485 80.0098
L225.8580 80.0098
" />
<path d="M225.8580 80.0098
L225.7628 79.9622
" />
<path d="M225.7628 79.9622
L225.7152 79.9146
" />
<path d="M225.7152 79.9146
L225.6676 79.8193
" />
<path d="M225.6676 79.8193
L225.6676 79.5336
" />
<path d="M225.6676 79.5336
L225.7152 79.4384
" />
<path d="M225.7152 79.4384
L225.7628 79.3908
" />
<path d="M225.7628 79.3908
L225.8580 79.3432
" />
<path d="M225.8580 79.3432
L226.0485 79.3432
" />
<path d="M226.0485 79.3432
L226.1437 79.3908
" />
<path d="M226.7152 80.0098
L226.6199 79.9622
" />
<path d="M226.6199 79.9622
L226.5723 79.9146
" />
<path d="M226.5723 79.9146
L226.5247 79.8193
" />
<path d="M226.5247 79.8193
L226.5247 79.5336
" />
<path d="M226.5247 79.5336
L226.5723 79.4384
" />
<path d="M226.5723 79.4384
L226.6199 79.3908
" />
<path d="M226.6199 79.3908
L226.7152 79.3432
" />
<path d="M226.7152 79.3432
L226.8580 79.3432
" />
<path d="M226.8580 79.3432
L226.9533 79.3908
" />
<path d="M226.9533 79.3908
L227.0009 79.4384
" />
<path d="M227.0009 79.4384
L227.0485 79.5336
" />
<path d="M227.0485 79.5336
L227.0485 79.8193
" />
<path d="M227.0485 79.8193
L227.0009 79.9146
" />
<path d="M227.0009 79.9146
L226.9533 79.9622
" />
<path d="M226.9533 79.9622
L226.8580 80.0098
" />
<path d="M226.8580 80.0098
L226.7152 80.0098
" />
<path d="M227.4771 80.0098
L227.4771 79.3432
" />
<path d="M227.4771 79.4384
L227.5247 79.3908
" />
<path d="M227.5247 79.3908
L227.6199 79.3432
" />
<path d="M227.6199 79.3432
L227.7628 79.3432
" />
<path d="M227.7628 79.3432
L227.8580 79.3908
" />
<path d="M227.8580 79.3908
L227.9056 79.4860
" />
<path d="M227.9056 79.4860
L227.9056 80.0098
" />
<path d="M227.9056 79.4860
L227.9533 79.3908
" />
<path d="M227.9533 79.3908
L228.0485 79.3432
" />
<path d="M228.0485 79.3432
L228.1914 79.3432
" />
<path d="M228.1914 79.3432
L228.2866 79.3908
" />
<path d="M228.2866 79.3908
L228.3342 79.4860
" />
<path d="M228.3342 79.4860
L228.3342 80.0098
" />
<path d="M229.5247 78.9622
L228.6676 80.2479
" />
<path d="M229.8580 79.3432
L229.8580 80.3432
" />
<path d="M229.8580 79.3908
L229.9533 79.3432
" />
<path d="M229.9533 79.3432
L230.1437 79.3432
" />
<path d="M230.1437 79.3432
L230.2390 79.3908
" />
<path d="M230.2390 79.3908
L230.2866 79.4384
" />
<path d="M230.2866 79.4384
L230.3342 79.5336
" />
<path d="M230.3342 79.5336
L230.3342 79.8193
" />
<path d="M230.3342 79.8193
L230.2866 79.9146
" />
<path d="M230.2866 79.9146
L230.2390 79.9622
" />
<path d="M230.2390 79.9622
L230.1437 80.0098
" />
<path d="M230.1437 80.0098
L229.9533 80.0098
" />
<path d="M229.9533 80.0098
L229.8580 79.9622
" />
<path d="M231.1437 79.9622
L231.0485 80.0098
" />
<path d="M231.0485 80.0098
L230.8580 80.0098
" />
<path d="M230.8580 80.0098
L230.7628 79.9622
" />
<path d="M230.7628 79.9622
L230.7152 79.8670
" />
<path d="M230.7152 79.8670
L230.7152 79.4860
" />
<path d="M230.7152 79.4860
L230.7628 79.3908
" />
<path d="M230.7628 79.3908
L230.8580 79.3432
" />
<path d="M230.8580 79.3432
L231.0485 79.3432
" />
<path d="M231.0485 79.3432
L231.1437 79.3908
" />
<path d="M231.1437 79.3908
L231.1914 79.4860
" />
<path d="M231.1914 79.4860
L231.1914 79.5812
" />
<path d="M231.1914 79.5812
L230.7152 79.6765
" />
<path d="M232.0485 80.0098
L232.0485 79.0098
" />
<path d="M232.0485 79.9622
L231.9533 80.0098
" />
<path d="M231.9533 80.0098
L231.7628 80.0098
" />
<path d="M231.7628 80.0098
L231.6676 79.9622
" />
<path d="M231.6676 79.9622
L231.6199 79.9146
" />
<path d="M231.6199 79.9146
L231.5723 79.8193
" />
<path d="M231.5723 79.8193
L231.5723 79.5336
" />
<path d="M231.5723 79.5336
L231.6199 79.4384
" />
<path d="M231.6199 79.4384
L231.6676 79.3908
" />
<path d="M231.6676 79.3908
L231.7628 79.3432
" />
<path d="M231.7628 79.3432
L231.9533 79.3432
" />
<path d="M231.9533 79.3432
L232.0485 79.3908
" />
<path d="M232.9533 80.0098
L232.9533 79.4860
" />
<path d="M232.9533 79.4860
L232.9056 79.3908
" />
<path d="M232.9056 79.3908
L232.8104 79.3432
" />
<path d="M232.8104 79.3432
L232.6199 79.3432
" />
<path d="M232.6199 79.3432
L232.5247 79.3908
" />
<path d="M232.9533 79.9622
L232.8580 80.0098
" />
<path d="M232.8580 80.0098
L232.6199 80.0098
" />
<path d="M232.6199 80.0098
L232.5247 79.9622
" />
<path d="M232.5247 79.9622
L232.4771 79.8670
" />
<path d="M232.4771 79.8670
L232.4771 79.7717
" />
<path d="M232.4771 79.7717
L232.5247 79.6765
" />
<path d="M232.5247 79.6765
L232.6199 79.6289
" />
<path d="M232.6199 79.6289
L232.8580 79.6289
" />
<path d="M232.8580 79.6289
L232.9533 79.5812
" />
<path d="M233.5723 80.0098
L233.4771 79.9622
" />
<path d="M233.4771 79.9622
L233.4295 79.8670
" />
<path d="M233.4295 79.8670
L233.4295 79.0098
" />
<path d="M233.9533 80.0098
L233.9533 79.0098
" />
<path d="M233.9533 79.3908
L234.0485 79.3432
" />
<path d="M234.0485 79.3432
L234.2390 79.3432
" />
<path d="M234.2390 79.3432
L234.3342 79.3908
" />
<path d="M234.3342 79.3908
L234.3818 79.4384
" />
<path d="M234.3818 79.4384
L234.4295 79.5336
" />
<path d="M234.4295 79.5336
L234.4295 79.8193
" />
<path d="M234.4295 79.8193
L234.3818 79.9146
" />
<path d="M234.3818 79.9146
L234.3342 79.9622
" />
<path d="M234.3342 79.9622
L234.2390 80.0098
" />
<path d="M234.2390 80.0098
L234.0485 80.0098
" />
<path d="M234.0485 80.0098
L233.9533 79.9622
" />
<path d="M235.0009 80.0098
L234.9056 79.9622
" />
<path d="M234.9056 79.9622
L234.8580 79.9146
" />
<path d="M234.8580 79.9146
L234.8104 79.8193
" />
<path d="M234.8104 79.8193
L234.8104 79.5336
" />
<path d="M234.8104 79.5336
L234.8580 79.4384
" />
<path d="M234.8580 79.4384
L234.9056 79.3908
" />
<path d="M234.9056 79.3908
L235.0009 79.3432
" />
<path d="M235.0009 79.3432
L235.1437 79.3432
" />
<path d="M235.1437 79.3432
L235.2390 79.3908
" />
<path d="M235.2390 79.3908
L235.2866 79.4384
" />
<path d="M235.2866 79.4384
L235.3342 79.5336
" />
<path d="M235.3342 79.5336
L235.3342 79.8193
" />
<path d="M235.3342 79.8193
L235.2866 79.9146
" />
<path d="M235.2866 79.9146
L235.2390 79.9622
" />
<path d="M235.2390 79.9622
L235.1437 80.0098
" />
<path d="M235.1437 80.0098
L235.0009 80.0098
" />
<path d="M236.1914 80.0098
L236.1914 79.4860
" />
<path d="M236.1914 79.4860
L236.1437 79.3908
" />
<path d="M236.1437 79.3908
L236.0485 79.3432
" />
<path d="M236.0485 79.3432
L235.8580 79.3432
" />
<path d="M235.8580 79.3432
L235.7628 79.3908
" />
<path d="M236.1914 79.9622
L236.0961 80.0098
" />
<path d="M236.0961 80.0098
L235.8580 80.0098
" />
<path d="M235.8580 80.0098
L235.7628 79.9622
" />
<path d="M235.7628 79.9622
L235.7152 79.8670
" />
<path d="M235.7152 79.8670
L235.7152 79.7717
" />
<path d="M235.7152 79.7717
L235.7628 79.6765
" />
<path d="M235.7628 79.6765
L235.8580 79.6289
" />
<path d="M235.8580 79.6289
L236.0961 79.6289
" />
<path d="M236.0961 79.6289
L236.1914 79.5812
" />
<path d="M236.6676 80.0098
L236.6676 79.3432
" />
<path d="M236.6676 79.5336
L236.7152 79.4384
" />
<path d="M236.7152 79.4384
L236.7628 79.3908
" />
<path d="M236.7628 79.3908
L236.8580 79.3432
" />
<path d="M236.8580 79.3432
L236.9533 79.3432
" />
<path d="M237.7152 80.0098
L237.7152 79.0098
" />
<path d="M237.7152 79.9622
L237.6199 80.0098
" />
<path d="M237.6199 80.0098
L237.4295 80.0098
" />
<path d="M237.4295 80.0098
L237.3342 79.9622
" />
<path d="M237.3342 79.9622
L237.2866 79.9146
" />
<path d="M237.2866 79.9146
L237.2390 79.8193
" />
<path d="M237.2390 79.8193
L237.2390 79.5336
" />
<path d="M237.2390 79.5336
L237.2866 79.4384
" />
<path d="M237.2866 79.4384
L237.3342 79.3908
" />
<path d="M237.3342 79.3908
L237.4295 79.3432
" />
<path d="M237.4295 79.3432
L237.6199 79.3432
" />
<path d="M237.6199 79.3432
L237.7152 79.3908
" />
</g><text x="213.9022" y="81.7500"
transform="scale(-1 1) translate(-427.804400 0)"
textLength="12.4881" font-size="1.3333" lengthAdjust="spacingAndGlyphs"
text-anchor="start" opacity="0">BCB: 3.0.0-RC1</text>
<g class="stroked-text"><desc>BCB: 3.0.0-RC1</desc>
<path d="M214.5723 81.0960
L214.7152 81.1436
" />
<path d="M214.7152 81.1436
L214.7628 81.1912
" />
<path d="M214.7628 81.1912
L214.8104 81.2865
" />
<path d="M214.8104 81.2865
L214.8104 81.4293
" />
<path d="M214.8104 81.4293
L214.7628 81.5246
" />
<path d="M214.7628 81.5246
L214.7152 81.5722
" />
<path d="M214.7152 81.5722
L214.6199 81.6198
" />
<path d="M214.6199 81.6198
L214.2390 81.6198
" />
<path d="M214.2390 81.6198
L214.2390 80.6198
" />
<path d="M214.2390 80.6198
L214.5723 80.6198
" />
<path d="M214.5723 80.6198
L214.6676 80.6674
" />
<path d="M214.6676 80.6674
L214.7152 80.7151
" />
<path d="M214.7152 80.7151
L214.7628 80.8103
" />
<path d="M214.7628 80.8103
L214.7628 80.9055
" />
<path d="M214.7628 80.9055
L214.7152 81.0008
" />
<path d="M214.7152 81.0008
L214.6676 81.0484
" />
<path d="M214.6676 81.0484
L214.5723 81.0960
" />
<path d="M214.5723 81.0960
L214.2390 81.0960
" />
<path d="M215.8104 81.5246
L215.7628 81.5722
" />
<path d="M215.7628 81.5722
L215.6199 81.6198
" />
<path d="M215.6199 81.6198
L215.5247 81.6198
" />
<path d="M215.5247 81.6198
L215.3818 81.5722
" />
<path d="M215.3818 81.5722
L215.2866 81.4770
" />
<path d="M215.2866 81.4770
L215.2390 81.3817
" />
<path d="M215.2390 81.3817
L215.1914 81.1912
" />
<path d="M215.1914 81.1912
L215.1914 81.0484
" />
<path d="M215.1914 81.0484
L215.2390 80.8579
" />
<path d="M215.2390 80.8579
L215.2866 80.7627
" />
<path d="M215.2866 80.7627
L215.3818 80.6674
" />
<path d="M215.3818 80.6674
L215.5247 80.6198
" />
<path d="M215.5247 80.6198
L215.6199 80.6198
" />
<path d="M215.6199 80.6198
L215.7628 80.6674
" />
<path d="M215.7628 80.6674
L215.8104 80.7151
" />
<path d="M216.5723 81.0960
L216.7152 81.1436
" />
<path d="M216.7152 81.1436
L216.7628 81.1912
" />
<path d="M216.7628 81.1912
L216.8104 81.2865
" />
<path d="M216.8104 81.2865
L216.8104 81.4293
" />
<path d="M216.8104 81.4293
L216.7628 81.5246
" />
<path d="M216.7628 81.5246
L216.7152 81.5722
" />
<path d="M216.7152 81.5722
L216.6199 81.6198
" />
<path d="M216.6199 81.6198
L216.2390 81.6198
" />
<path d="M216.2390 81.6198
L216.2390 80.6198
" />
<path d="M216.2390 80.6198
L216.5723 80.6198
" />
<path d="M216.5723 80.6198
L216.6676 80.6674
" />
<path d="M216.6676 80.6674
L216.7152 80.7151
" />
<path d="M216.7152 80.7151
L216.7628 80.8103
" />
<path d="M216.7628 80.8103
L216.7628 80.9055
" />
<path d="M216.7628 80.9055
L216.7152 81.0008
" />
<path d="M216.7152 81.0008
L216.6676 81.0484
" />
<path d="M216.6676 81.0484
L216.5723 81.0960
" />
<path d="M216.5723 81.0960
L216.2390 81.0960
" />
<path d="M217.2390 81.5246
L217.2866 81.5722
" />
<path d="M217.2866 81.5722
L217.2390 81.6198
" />
<path d="M217.2390 81.6198
L217.1914 81.5722
" />
<path d="M217.1914 81.5722
L217.2390 81.5246
" />
<path d="M217.2390 81.5246
L217.2390 81.6198
" />
<path d="M217.2390 81.0008
L217.2866 81.0484
" />
<path d="M217.2866 81.0484
L217.2390 81.0960
" />
<path d="M217.2390 81.0960
L217.1914 81.0484
" />
<path d="M217.1914 81.0484
L217.2390 81.0008
" />
<path d="M217.2390 81.0008
L217.2390 81.0960
" />
<path d="M218.3818 80.6198
L219.0009 80.6198
" />
<path d="M219.0009 80.6198
L218.6676 81.0008
" />
<path d="M218.6676 81.0008
L218.8104 81.0008
" />
<path d="M218.8104 81.0008
L218.9056 81.0484
" />
<path d="M218.9056 81.0484
L218.9533 81.0960
" />
<path d="M218.9533 81.0960
L219.0009 81.1912
" />
<path d="M219.0009 81.1912
L219.0009 81.4293
" />
<path d="M219.0009 81.4293
L218.9533 81.5246
" />
<path d="M218.9533 81.5246
L218.9056 81.5722
" />
<path d="M218.9056 81.5722
L218.8104 81.6198
" />
<path d="M218.8104 81.6198
L218.5247 81.6198
" />
<path d="M218.5247 81.6198
L218.4295 81.5722
" />
<path d="M218.4295 81.5722
L218.3818 81.5246
" />
<path d="M219.4295 81.5246
L219.4771 81.5722
" />
<path d="M219.4771 81.5722
L219.4295 81.6198
" />
<path d="M219.4295 81.6198
L219.3818 81.5722
" />
<path d="M219.3818 81.5722
L219.4295 81.5246
" />
<path d="M219.4295 81.5246
L219.4295 81.6198
" />
<path d="M220.0961 80.6198
L220.1914 80.6198
" />
<path d="M220.1914 80.6198
L220.2866 80.6674
" />
<path d="M220.2866 80.6674
L220.3342 80.7151
" />
<path d="M220.3342 80.7151
L220.3818 80.8103
" />
<path d="M220.3818 80.8103
L220.4295 81.0008
" />
<path d="M220.4295 81.0008
L220.4295 81.2389
" />
<path d="M220.4295 81.2389
L220.3818 81.4293
" />
<path d="M220.3818 81.4293
L220.3342 81.5246
" />
<path d="M220.3342 81.5246
L220.2866 81.5722
" />
<path d="M220.2866 81.5722
L220.1914 81.6198
" />
<path d="M220.1914 81.6198
L220.0961 81.6198
" />
<path d="M220.0961 81.6198
L220.0009 81.5722
" />
<path d="M220.0009 81.5722
L219.9533 81.5246
" />
<path d="M219.9533 81.5246
L219.9056 81.4293
" />
<path d="M219.9056 81.4293
L219.8580 81.2389
" />
<path d="M219.8580 81.2389
L219.8580 81.0008
" />
<path d="M219.8580 81.0008
L219.9056 80.8103
" />
<path d="M219.9056 80.8103
L219.9533 80.7151
" />
<path d="M219.9533 80.7151
L220.0009 80.6674
" />
<path d="M220.0009 80.6674
L220.0961 80.6198
" />
<path d="M220.8580 81.5246
L220.9056 81.5722
" />
<path d="M220.9056 81.5722
L220.8580 81.6198
" />
<path d="M220.8580 81.6198
L220.8104 81.5722
" />
<path d="M220.8104 81.5722
L220.8580 81.5246
" />
<path d="M220.8580 81.5246
L220.8580 81.6198
" />
<path d="M221.5247 80.6198
L221.6199 80.6198
" />
<path d="M221.6199 80.6198
L221.7152 80.6674
" />
<path d="M221.7152 80.6674
L221.7628 80.7151
" />
<path d="M221.7628 80.7151
L221.8104 80.8103
" />
<path d="M221.8104 80.8103
L221.8580 81.0008
" />
<path d="M221.8580 81.0008
L221.8580 81.2389
" />
<path d="M221.8580 81.2389
L221.8104 81.4293
" />
<path d="M221.8104 81.4293
L221.7628 81.5246
" />
<path d="M221.7628 81.5246
L221.7152 81.5722
" />
<path d="M221.7152 81.5722
L221.6199 81.6198
" />
<path d="M221.6199 81.6198
L221.5247 81.6198
" />
<path d="M221.5247 81.6198
L221.4295 81.5722
" />
<path d="M221.4295 81.5722
L221.3818 81.5246
" />
<path d="M221.3818 81.5246
L221.3342 81.4293
" />
<path d="M221.3342 81.4293
L221.2866 81.2389
" />
<path d="M221.2866 81.2389
L221.2866 81.0008
" />
<path d="M221.2866 81.0008
L221.3342 80.8103
" />
<path d="M221.3342 80.8103
L221.3818 80.7151
" />
<path d="M221.3818 80.7151
L221.4295 80.6674
" />
<path d="M221.4295 80.6674
L221.5247 80.6198
" />
<path d="M222.2866 81.2389
L223.0485 81.2389
" />
<path d="M224.0961 81.6198
L223.7628 81.1436
" />
<path d="M223.5247 81.6198
L223.5247 80.6198
" />
<path d="M223.5247 80.6198
L223.9056 80.6198
" />
<path d="M223.9056 80.6198
L224.0009 80.6674
" />
<path d="M224.0009 80.6674
L224.0485 80.7151
" />
<path d="M224.0485 80.7151
L224.0961 80.8103
" />
<path d="M224.0961 80.8103
L224.0961 80.9532
" />
<path d="M224.0961 80.9532
L224.0485 81.0484
" />
<path d="M224.0485 81.0484
L224.0009 81.0960
" />
<path d="M224.0009 81.0960
L223.9056 81.1436
" />
<path d="M223.9056 81.1436
L223.5247 81.1436
" />
<path d="M225.0961 81.5246
L225.0485 81.5722
" />
<path d="M225.0485 81.5722
L224.9056 81.6198
" />
<path d="M224.9056 81.6198
L224.8104 81.6198
" />
<path d="M224.8104 81.6198
L224.6675 81.5722
" />
<path d="M224.6675 81.5722
L224.5723 81.4770
" />
<path d="M224.5723 81.4770
L224.5247 81.3817
" />
<path d="M224.5247 81.3817
L224.4771 81.1912
" />
<path d="M224.4771 81.1912
L224.4771 81.0484
" />
<path d="M224.4771 81.0484
L224.5247 80.8579
" />
<path d="M224.5247 80.8579
L224.5723 80.7627
" />
<path d="M224.5723 80.7627
L224.6675 80.6674
" />
<path d="M224.6675 80.6674
L224.8104 80.6198
" />
<path d="M224.8104 80.6198
L224.9056 80.6198
" />
<path d="M224.9056 80.6198
L225.0485 80.6674
" />
<path d="M225.0485 80.6674
L225.0961 80.7151
" />
<path d="M226.0485 81.6198
L225.4771 81.6198
" />
<path d="M225.7628 81.6198
L225.7628 80.6198
" />
<path d="M225.7628 80.6198
L225.6675 80.7627
" />
<path d="M225.6675 80.7627
L225.5723 80.8579
" />
<path d="M225.5723 80.8579
L225.4771 80.9055
" />
</g><g transform="rotate(-180.000000 242.4514 117.3172)">
<text x="242.4514" y="117.3172"
transform="scale(-1 1) translate(-484.902800 0)"
textLength="4.0595" font-size="1.3333" lengthAdjust="spacingAndGlyphs"
text-anchor="start" opacity="0">+5V </text>
</g>
<g class="stroked-text"><desc>+5V </desc>
<path d="M242.1146 117.8283
L241.3527 117.8283
" />
<path d="M241.7337 117.4474
L241.7337 118.2093
" />
<path d="M240.4003 118.4474
L240.8765 118.4474
" />
<path d="M240.8765 118.4474
L240.9241 117.9712
" />
<path d="M240.9241 117.9712
L240.8765 118.0188
" />
<path d="M240.8765 118.0188
L240.7813 118.0664
" />
<path d="M240.7813 118.0664
L240.5432 118.0664
" />
<path d="M240.5432 118.0664
L240.4480 118.0188
" />
<path d="M240.4480 118.0188
L240.4003 117.9712
" />
<path d="M240.4003 117.9712
L240.3527 117.8760
" />
<path d="M240.3527 117.8760
L240.3527 117.6379
" />
<path d="M240.3527 117.6379
L240.4003 117.5426
" />
<path d="M240.4003 117.5426
L240.4480 117.4950
" />
<path d="M240.4480 117.4950
L240.5432 117.4474
" />
<path d="M240.5432 117.4474
L240.7813 117.4474
" />
<path d="M240.7813 117.4474
L240.8765 117.4950
" />
<path d="M240.8765 117.4950
L240.9241 117.5426
" />
<path d="M240.0670 118.4474
L239.7337 117.4474
" />
<path d="M239.7337 117.4474
L239.4003 118.4474
" />
</g><text x="240.3022" y="48.5000"
transform="scale(-1 1) translate(-480.604400 0)"
textLength="4.7929" font-size="2.0000" lengthAdjust="spacingAndGlyphs"
text-anchor="start" opacity="0">MIDI</text>
<g class="stroked-text"><desc>MIDI</desc>
<path d="M240.7580 48.3086
L240.7580 46.8086
" />
<path d="M240.7580 46.8086
L241.2580 47.8801
" />
<path d="M241.2580 47.8801
L241.7580 46.8086
" />
<path d="M241.7580 46.8086
L241.7580 48.3086
" />
<path d="M242.4723 48.3086
L242.4723 46.8086
" />
<path d="M243.1866 48.3086
L243.1866 46.8086
" />
<path d="M243.1866 46.8086
L243.5437 46.8086
" />
<path d="M243.5437 46.8086
L243.7580 46.8801
" />
<path d="M243.7580 46.8801
L243.9009 47.0229
" />
<path d="M243.9009 47.0229
L243.9723 47.1658
" />
<path d="M243.9723 47.1658
L244.0437 47.4515
" />
<path d="M244.0437 47.4515
L244.0437 47.6658
" />
<path d="M244.0437 47.6658
L243.9723 47.9515
" />
<path d="M243.9723 47.9515
L243.9009 48.0943
" />
<path d="M243.9009 48.0943
L243.7580 48.2372
" />
<path d="M243.7580 48.2372
L243.5437 48.3086
" />
<path d="M243.5437 48.3086
L243.1866 48.3086
" />
<path d="M244.6866 48.3086
L244.6866 46.8086
" />
</g><text x="145.0038" y="60.6908"
transform="scale(-1 1) translate(-290.007600 0)"
textLength="1.6310" font-size="1.3333" lengthAdjust="spacingAndGlyphs"
text-anchor="start" opacity="0">in</text>
<g class="stroked-text"><desc>in</desc>
<path d="M145.3406 60.5606
L145.3406 59.8940
" />
<path d="M145.3406 59.5606
L145.2930 59.6082
" />
<path d="M145.2930 59.6082
L145.3406 59.6559
" />
<path d="M145.3406 59.6559
L145.3882 59.6082
" />
<path d="M145.3882 59.6082
L145.3406 59.5606
" />
<path d="M145.3406 59.5606
L145.3406 59.6559
" />
<path d="M145.8168 59.8940
L145.8168 60.5606
" />
<path d="M145.8168 59.9892
L145.8644 59.9416
" />
<path d="M145.8644 59.9416
L145.9596 59.8940
" />
<path d="M145.9596 59.8940
L146.1025 59.8940
" />
<path d="M146.1025 59.8940
L146.1977 59.9416
" />
<path d="M146.1977 59.9416
L146.2453 60.0368
" />
<path d="M146.2453 60.0368
L146.2453 60.5606
" />
</g><text x="244.2022" y="127.7000"
transform="scale(-1 1) translate(-488.404400 0)"
textLength="6.5833" font-size="1.3333" lengthAdjust="spacingAndGlyphs"
text-anchor="start" opacity="0">LED OUT</text>
<g class="stroked-text"><desc>LED OUT</desc>
<path d="M245.0152 127.5698
L244.5390 127.5698
" />
<path d="M244.5390 127.5698
L244.5390 126.5698
" />
<path d="M245.3485 127.0460
L245.6818 127.0460
" />
<path d="M245.8247 127.5698
L245.3485 127.5698
" />
<path d="M245.3485 127.5698
L245.3485 126.5698
" />
<path d="M245.3485 126.5698
L245.8247 126.5698
" />
<path d="M246.2533 127.5698
L246.2533 126.5698
" />
<path d="M246.2533 126.5698
L246.4914 126.5698
" />
<path d="M246.4914 126.5698
L246.6342 126.6174
" />
<path d="M246.6342 126.6174
L246.7295 126.7127
" />
<path d="M246.7295 126.7127
L246.7771 126.8079
" />
<path d="M246.7771 126.8079
L246.8247 126.9984
" />
<path d="M246.8247 126.9984
L246.8247 127.1412
" />
<path d="M246.8247 127.1412
L246.7771 127.3317
" />
<path d="M246.7771 127.3317
L246.7295 127.4270
" />
<path d="M246.7295 127.4270
L246.6342 127.5222
" />
<path d="M246.6342 127.5222
L246.4914 127.5698
" />
<path d="M246.4914 127.5698
L246.2533 127.5698
" />
<path d="M248.2056 126.5698
L248.3961 126.5698
" />
<path d="M248.3961 126.5698
L248.4914 126.6174
" />
<path d="M248.4914 126.6174
L248.5866 126.7127
" />
<path d="M248.5866 126.7127
L248.6342 126.9032
" />
<path d="M248.6342 126.9032
L248.6342 127.2365
" />
<path d="M248.6342 127.2365
L248.5866 127.4270
" />
<path d="M248.5866 127.4270
L248.4914 127.5222
" />
<path d="M248.4914 127.5222
L248.3961 127.5698
" />
<path d="M248.3961 127.5698
L248.2056 127.5698
" />
<path d="M248.2056 127.5698
L248.1104 127.5222
" />
<path d="M248.1104 127.5222
L248.0152 127.4270
" />
<path d="M248.0152 127.4270
L247.9676 127.2365
" />
<path d="M247.9676 127.2365
L247.9676 126.9032
" />
<path d="M247.9676 126.9032
L248.0152 126.7127
" />
<path d="M248.0152 126.7127
L248.1104 126.6174
" />
<path d="M248.1104 126.6174
L248.2056 126.5698
" />
<path d="M249.0628 126.5698
L249.0628 127.3793
" />
<path d="M249.0628 127.3793
L249.1104 127.4746
" />
<path d="M249.1104 127.4746
L249.1580 127.5222
" />
<path d="M249.1580 127.5222
L249.2533 127.5698
" />
<path d="M249.2533 127.5698
L249.4437 127.5698
" />
<path d="M249.4437 127.5698
L249.5390 127.5222
" />
<path d="M249.5390 127.5222
L249.5866 127.4746
" />
<path d="M249.5866 127.4746
L249.6342 127.3793
" />
<path d="M249.6342 127.3793
L249.6342 126.5698
" />
<path d="M249.9676 126.5698
L250.5390 126.5698
" />
<path d="M250.2533 127.5698
L250.2533 126.5698
" />
</g><g transform="rotate(-90.000000 114.2238 36.7792)">
<text x="114.2238" y="36.7792"
transform="scale(-1 1) translate(-228.447600 0)"
textLength="1.7738" font-size="1.3333" lengthAdjust="spacingAndGlyphs"
text-anchor="start" opacity="0">IN</text>
</g>
<g class="stroked-text"><desc>IN</desc>
<path d="M114.3540 37.1160
L115.3540 37.1160
" />
<path d="M114.3540 37.5922
L115.3540 37.5922
" />
<path d="M115.3540 37.5922
L114.3540 38.1636
" />
<path d="M114.3540 38.1636
L115.3540 38.1636
" />
</g><g transform="rotate(90.000000 229.3366 51.8668)">
<text x="229.3366" y="51.8668"
transform="scale(-1 1) translate(-458.673200 0)"
textLength="3.1071" font-size="1.3333" lengthAdjust="spacingAndGlyphs"
text-anchor="start" opacity="0">OUT</text>
</g>
<g class="stroked-text"><desc>OUT</desc>
<path d="M228.2064 51.3395
L228.2064 51.1491
" />
<path d="M228.2064 51.1491
L228.2540 51.0538
" />
<path d="M228.2540 51.0538
L228.3493 50.9586
" />
<path d="M228.3493 50.9586
L228.5398 50.9110
" />
<path d="M228.5398 50.9110
L228.8731 50.9110
" />
<path d="M228.8731 50.9110
L229.0636 50.9586
" />
<path d="M229.0636 50.9586
L229.1588 51.0538
" />
<path d="M229.1588 51.0538
L229.2064 51.1491
" />
<path d="M229.2064 51.1491
L229.2064 51.3395
" />
<path d="M229.2064 51.3395
L229.1588 51.4348
" />
<path d="M229.1588 51.4348
L229.0636 51.5300
" />
<path d="M229.0636 51.5300
L228.8731 51.5776
" />
<path d="M228.8731 51.5776
L228.5398 51.5776
" />
<path d="M228.5398 51.5776
L228.3493 51.5300
" />
<path d="M228.3493 51.5300
L228.2540 51.4348
" />
<path d="M228.2540 51.4348
L228.2064 51.3395
" />
<path d="M228.2064 50.4824
L229.0159 50.4824
" />
<path d="M229.0159 50.4824
L229.1112 50.4348
" />
<path d="M229.1112 50.4348
L229.1588 50.3872
" />
<path d="M229.1588 50.3872
L229.2064 50.2919
" />
<path d="M229.2064 50.2919
L229.2064 50.1014
" />
<path d="M229.2064 50.1014
L229.1588 50.0062
" />
<path d="M229.1588 50.0062
L229.1112 49.9586
" />
<path d="M229.1112 49.9586
L229.0159 49.9110
" />
<path d="M229.0159 49.9110
L228.2064 49.9110
" />
<path d="M228.2064 49.5776
L228.2064 49.0062
" />
<path d="M229.2064 49.2919
L228.2064 49.2919
" />
</g><g transform="rotate(-90.000000 120.6754 36.6776)">
<text x="120.6754" y="36.6776"
transform="scale(-1 1) translate(-241.350800 0)"
textLength="3.8690" font-size="1.3333" lengthAdjust="spacingAndGlyphs"
text-anchor="start" opacity="0">VREF</text>
</g>
<g class="stroked-text"><desc>VREF</desc>
<path d="M121.8056 36.8715
L120.8056 37.2049
" />
<path d="M120.8056 37.2049
L121.8056 37.5382
" />
<path d="M120.8056 38.4429
L121.2818 38.1096
" />
<path d="M120.8056 37.8715
L121.8056 37.8715
" />
<path d="M121.8056 37.8715
L121.8056 38.2525
" />
<path d="M121.8056 38.2525
L121.7580 38.3477
" />
<path d="M121.7580 38.3477
L121.7103 38.3953
" />
<path d="M121.7103 38.3953
L121.6151 38.4429
" />
<path d="M121.6151 38.4429
L121.4722 38.4429
" />
<path d="M121.4722 38.4429
L121.3770 38.3953
" />
<path d="M121.3770 38.3953
L121.3294 38.3477
" />
<path d="M121.3294 38.3477
L121.2818 38.2525
" />
<path d="M121.2818 38.2525
L121.2818 37.8715
" />
<path d="M121.3294 38.8715
L121.3294 39.2049
" />
<path d="M120.8056 39.3477
L120.8056 38.8715
" />
<path d="M120.8056 38.8715
L121.8056 38.8715
" />
<path d="M121.8056 38.8715
L121.8056 39.3477
" />
<path d="M121.3294 40.1096
L121.3294 39.7763
" />
<path d="M120.8056 39.7763
L121.8056 39.7763
" />
<path d="M121.8056 39.7763
L121.8056 40.2525
" />
</g><text x="144.9022" y="58.1000"
transform="scale(-1 1) translate(-289.804400 0)"
textLength="2.6310" font-size="1.3333" lengthAdjust="spacingAndGlyphs"
text-anchor="start" opacity="0">out</text>
<g class="stroked-text"><desc>out</desc>
<path d="M145.3818 57.9698
L145.2866 57.9222
" />
<path d="M145.2866 57.9222
L145.2390 57.8746
" />
<path d="M145.2390 57.8746
L145.1914 57.7793
" />
<path d="M145.1914 57.7793
L145.1914 57.4936
" />
<path d="M145.1914 57.4936
L145.2390 57.3984
" />
<path d="M145.2390 57.3984
L145.2866 57.3508
" />
<path d="M145.2866 57.3508
L145.3818 57.3032
" />
<path d="M145.3818 57.3032
L145.5247 57.3032
" />
<path d="M145.5247 57.3032
L145.6199 57.3508
" />
<path d="M145.6199 57.3508
L145.6676 57.3984
" />
<path d="M145.6676 57.3984
L145.7152 57.4936
" />
<path d="M145.7152 57.4936
L145.7152 57.7793
" />
<path d="M145.7152 57.7793
L145.6676 57.8746
" />
<path d="M145.6676 57.8746
L145.6199 57.9222
" />
<path d="M145.6199 57.9222
L145.5247 57.9698
" />
<path d="M145.5247 57.9698
L145.3818 57.9698
" />
<path d="M146.5723 57.3032
L146.5723 57.9698
" />
<path d="M146.1437 57.3032
L146.1437 57.8270
" />
<path d="M146.1437 57.8270
L146.1914 57.9222
" />
<path d="M146.1914 57.9222
L146.2866 57.9698
" />
<path d="M146.2866 57.9698
L146.4295 57.9698
" />
<path d="M146.4295 57.9698
L146.5247 57.9222
" />
<path d="M146.5247 57.9222
L146.5723 57.8746
" />
<path d="M146.9056 57.3032
L147.2866 57.3032
" />
<path d="M147.0485 56.9698
L147.0485 57.8270
" />
<path d="M147.0485 57.8270
L147.0961 57.9222
" />
<path d="M147.0961 57.9222
L147.1914 57.9698
" />
<path d="M147.1914 57.9698
L147.2866 57.9698
" />
</g><text x="247.3022" y="110.1000"
transform="scale(-1 1) translate(-494.604400 0)"
textLength="1.9643" font-size="1.3333" lengthAdjust="spacingAndGlyphs"
text-anchor="middle" opacity="0">J7</text>
<g class="stroked-text"><desc>J7</desc>
<path d="M246.9689 109.0548
L246.9689 109.7691
" />
<path d="M246.9689 109.7691
L246.9212 109.9120
" />
<path d="M246.9212 109.9120
L246.8260 110.0072
" />
<path d="M246.8260 110.0072
L246.6832 110.0548
" />
<path d="M246.6832 110.0548
L246.5879 110.0548
" />
<path d="M247.3498 109.0548
L248.0165 109.0548
" />
<path d="M248.0165 109.0548
L247.5879 110.0548
" />
</g><text x="183.3772" y="100.6100"
transform="scale(-1 1) translate(-366.754400 0)"
textLength="1.9643" font-size="1.3333" lengthAdjust="spacingAndGlyphs"
text-anchor="middle" opacity="0">J6</text>
<g class="stroked-text"><desc>J6</desc>
<path d="M183.0439 99.5648
L183.0439 100.2791
" />
<path d="M183.0439 100.2791
L182.9962 100.4220
" />
<path d="M182.9962 100.4220
L182.9010 100.5172
" />
<path d="M182.9010 100.5172
L182.7582 100.5648
" />
<path d="M182.7582 100.5648
L182.6629 100.5648
" />
<path d="M183.9486 99.5648
L183.7582 99.5648
" />
<path d="M183.7582 99.5648
L183.6629 99.6124
" />
<path d="M183.6629 99.6124
L183.6153 99.6601
" />
<path d="M183.6153 99.6601
L183.5201 99.8029
" />
<path d="M183.5201 99.8029
L183.4724 99.9934
" />
<path d="M183.4724 99.9934
L183.4724 100.3743
" />
<path d="M183.4724 100.3743
L183.5201 100.4696
" />
<path d="M183.5201 100.4696
L183.5677 100.5172
" />
<path d="M183.5677 100.5172
L183.6629 100.5648
" />
<path d="M183.6629 100.5648
L183.8534 100.5648
" />
<path d="M183.8534 100.5648
L183.9486 100.5172
" />
<path d="M183.9486 100.5172
L183.9962 100.4696
" />
<path d="M183.9962 100.4696
L184.0439 100.3743
" />
<path d="M184.0439 100.3743
L184.0439 100.1362
" />
<path d="M184.0439 100.1362
L183.9962 100.0410
" />
<path d="M183.9962 100.0410
L183.9486 99.9934
" />
<path d="M183.9486 99.9934
L183.8534 99.9458
" />
<path d="M183.8534 99.9458
L183.6629 99.9458
" />
<path d="M183.6629 99.9458
L183.5677 99.9934
" />
<path d="M183.5677 99.9934
L183.5201 100.0410
" />
<path d="M183.5201 100.0410
L183.4724 100.1362
" />
</g><g transform="rotate(-90.000000 163.7022 57.2000)">
<text x="163.7022" y="57.7000"
transform="scale(-1 1) translate(-327.404400 0)"
textLength="2.9167" font-size="1.3333" lengthAdjust="spacingAndGlyphs"
text-anchor="middle" opacity="0">J14</text>
</g>
<g class="stroked-text"><desc>J14</desc>
<path d="M164.2474 56.3905
L163.5331 56.3905
" />
<path d="M163.5331 56.3905
L163.3902 56.3429
" />
<path d="M163.3902 56.3429
L163.2950 56.2476
" />
<path d="M163.2950 56.2476
L163.2474 56.1048
" />
<path d="M163.2474 56.1048
L163.2474 56.0095
" />
<path d="M163.2474 57.3905
L163.2474 56.8190
" />
<path d="M163.2474 57.1048
L164.2474 57.1048
" />
<path d="M164.2474 57.1048
L164.1045 57.0095
" />
<path d="M164.1045 57.0095
L164.0093 56.9143
" />
<path d="M164.0093 56.9143
L163.9617 56.8190
" />
<path d="M163.9140 58.2476
L163.2474 58.2476
" />
<path d="M164.2950 58.0095
L163.5807 57.7714
" />
<path d="M163.5807 57.7714
L163.5807 58.3905
" />
</g><text x="170.0022" y="46.4400"
transform="scale(-1 1) translate(-340.004400 0)"
textLength="1.9643" font-size="1.3333" lengthAdjust="spacingAndGlyphs"
text-anchor="middle" opacity="0">J5</text>
<g class="stroked-text"><desc>J5</desc>
<path d="M169.6689 45.3948
L169.6689 46.1091
" />
<path d="M169.6689 46.1091
L169.6212 46.2520
" />
<path d="M169.6212 46.2520
L169.5260 46.3472
" />
<path d="M169.5260 46.3472
L169.3832 46.3948
" />
<path d="M169.3832 46.3948
L169.2879 46.3948
" />
<path d="M170.6212 45.3948
L170.1451 45.3948
" />
<path d="M170.1451 45.3948
L170.0974 45.8710
" />
<path d="M170.0974 45.8710
L170.1451 45.8234
" />
<path d="M170.1451 45.8234
L170.2403 45.7758
" />
<path d="M170.2403 45.7758
L170.4784 45.7758
" />
<path d="M170.4784 45.7758
L170.5736 45.8234
" />
<path d="M170.5736 45.8234
L170.6212 45.8710
" />
<path d="M170.6212 45.8710
L170.6689 45.9662
" />
<path d="M170.6689 45.9662
L170.6689 46.2043
" />
<path d="M170.6689 46.2043
L170.6212 46.2996
" />
<path d="M170.6212 46.2996
L170.5736 46.3472
" />
<path d="M170.5736 46.3472
L170.4784 46.3948
" />
<path d="M170.4784 46.3948
L170.2403 46.3948
" />
<path d="M170.2403 46.3948
L170.1451 46.3472
" />
<path d="M170.1451 46.3472
L170.0974 46.2996
" />
</g><g transform="rotate(-90.000000 214.3022 74.9000)">
<text x="214.3022" y="75.4000"
transform="scale(-1 1) translate(-428.604400 0)"
textLength="2.9643" font-size="1.3333" lengthAdjust="spacingAndGlyphs"
text-anchor="middle" opacity="0">JP3</text>
</g>
<g class="stroked-text"><desc>JP3</desc>
<path d="M214.8474 74.0667
L214.1331 74.0667
" />
<path d="M214.1331 74.0667
L213.9902 74.0190
" />
<path d="M213.9902 74.0190
L213.8950 73.9238
" />
<path d="M213.8950 73.9238
L213.8474 73.7810
" />
<path d="M213.8474 73.7810
L213.8474 73.6857
" />
<path d="M213.8474 74.5429
L214.8474 74.5429
" />
<path d="M214.8474 74.5429
L214.8474 74.9238
" />
<path d="M214.8474 74.9238
L214.7998 75.0190
" />
<path d="M214.7998 75.0190
L214.7521 75.0667
" />
<path d="M214.7521 75.0667
L214.6569 75.1143
" />
<path d="M214.6569 75.1143
L214.5140 75.1143
" />
<path d="M214.5140 75.1143
L214.4188 75.0667
" />
<path d="M214.4188 75.0667
L214.3712 75.0190
" />
<path d="M214.3712 75.0190
L214.3236 74.9238
" />
<path d="M214.3236 74.9238
L214.3236 74.5429
" />
<path d="M214.8474 75.4476
L214.8474 76.0667
" />
<path d="M214.8474 76.0667
L214.4664 75.7333
" />
<path d="M214.4664 75.7333
L214.4664 75.8762
" />
<path d="M214.4664 75.8762
L214.4188 75.9714
" />
<path d="M214.4188 75.9714
L214.3712 76.0190
" />
<path d="M214.3712 76.0190
L214.2760 76.0667
" />
<path d="M214.2760 76.0667
L214.0379 76.0667
" />
<path d="M214.0379 76.0667
L213.9426 76.0190
" />
<path d="M213.9426 76.0190
L213.8950 75.9714
" />
<path d="M213.8950 75.9714
L213.8474 75.8762
" />
<path d="M213.8474 75.8762
L213.8474 75.5905
" />
<path d="M213.8474 75.5905
L213.8950 75.4952
" />
<path d="M213.8950 75.4952
L213.9426 75.4476
" />
</g><text x="221.5134" y="40.8352"
transform="scale(-1 1) translate(-443.026800 0)"
textLength="2.2500" font-size="1.3333" lengthAdjust="spacingAndGlyphs"
text-anchor="middle" opacity="0">U1</text>
<g class="stroked-text"><desc>U1</desc>
<path d="M220.7515 39.7900
L220.7515 40.5995
" />
<path d="M220.7515 40.5995
L220.7991 40.6948
" />
<path d="M220.7991 40.6948
L220.8467 40.7424
" />
<path d="M220.8467 40.7424
L220.9420 40.7900
" />
<path d="M220.9420 40.7900
L221.1324 40.7900
" />
<path d="M221.1324 40.7900
L221.2277 40.7424
" />
<path d="M221.2277 40.7424
L221.2753 40.6948
" />
<path d="M221.2753 40.6948
L221.3229 40.5995
" />
<path d="M221.3229 40.5995
L221.3229 39.7900
" />
<path d="M222.3229 40.7900
L221.7515 40.7900
" />
<path d="M222.0372 40.7900
L222.0372 39.7900
" />
<path d="M222.0372 39.7900
L221.9420 39.9329
" />
<path d="M221.9420 39.9329
L221.8467 40.0281
" />
<path d="M221.8467 40.0281
L221.7515 40.0757
" />
</g><g transform="rotate(-90.000000 208.0022 74.9000)">
<text x="208.0022" y="75.4000"
transform="scale(-1 1) translate(-416.004400 0)"
textLength="2.9643" font-size="1.3333" lengthAdjust="spacingAndGlyphs"
text-anchor="middle" opacity="0">JP4</text>
</g>
<g class="stroked-text"><desc>JP4</desc>
<path d="M208.5474 74.0667
L207.8331 74.0667
" />
<path d="M207.8331 74.0667
L207.6902 74.0190
" />
<path d="M207.6902 74.0190
L207.5950 73.9238
" />
<path d="M207.5950 73.9238
L207.5474 73.7810
" />
<path d="M207.5474 73.7810
L207.5474 73.6857
" />
<path d="M207.5474 74.5429
L208.5474 74.5429
" />
<path d="M208.5474 74.5429
L208.5474 74.9238
" />
<path d="M208.5474 74.9238
L208.4998 75.0190
" />
<path d="M208.4998 75.0190
L208.4521 75.0667
" />
<path d="M208.4521 75.0667
L208.3569 75.1143
" />
<path d="M208.3569 75.1143
L208.2140 75.1143
" />
<path d="M208.2140 75.1143
L208.1188 75.0667
" />
<path d="M208.1188 75.0667
L208.0712 75.0190
" />
<path d="M208.0712 75.0190
L208.0236 74.9238
" />
<path d="M208.0236 74.9238
L208.0236 74.5429
" />
<path d="M208.2140 75.9714
L207.5474 75.9714
" />
<path d="M208.5950 75.7333
L207.8807 75.4952
" />
<path d="M207.8807 75.4952
L207.8807 76.1143
" />
</g><g transform="rotate(-90.000000 253.9790 125.7832)">
<text x="253.9790" y="126.2832"
transform="scale(-1 1) translate(-507.958000 0)"
textLength="1.9643" font-size="1.3333" lengthAdjust="spacingAndGlyphs"
text-anchor="middle" opacity="0">J4</text>
</g>
<g class="stroked-text"><desc>J4</desc>
<path d="M254.5242 125.4499
L253.8099 125.4499
" />
<path d="M253.8099 125.4499
L253.6670 125.4022
" />
<path d="M253.6670 125.4022
L253.5718 125.3070
" />
<path d="M253.5718 125.3070
L253.5242 125.1642
" />
<path d="M253.5242 125.1642
L253.5242 125.0689
" />
<path d="M254.1908 126.3546
L253.5242 126.3546
" />
<path d="M254.5718 126.1165
L253.8575 125.8784
" />
<path d="M253.8575 125.8784
L253.8575 126.4975
" />
</g><text x="173.7022" y="69.0000"
transform="scale(-1 1) translate(-347.404400 0)"
textLength="1.9643" font-size="1.3333" lengthAdjust="spacingAndGlyphs"
text-anchor="middle" opacity="0">J8</text>
<g class="stroked-text"><desc>J8</desc>
<path d="M173.3689 67.9548
L173.3689 68.6691
" />
<path d="M173.3689 68.6691
L173.3212 68.8120
" />
<path d="M173.3212 68.8120
L173.2260 68.9072
" />
<path d="M173.2260 68.9072
L173.0832 68.9548
" />
<path d="M173.0832 68.9548
L172.9879 68.9548
" />
<path d="M173.9879 68.3834
L173.8927 68.3358
" />
<path d="M173.8927 68.3358
L173.8451 68.2882
" />
<path d="M173.8451 68.2882
L173.7974 68.1929
" />
<path d="M173.7974 68.1929
L173.7974 68.1453
" />
<path d="M173.7974 68.1453
L173.8451 68.0501
" />
<path d="M173.8451 68.0501
L173.8927 68.0024
" />
<path d="M173.8927 68.0024
L173.9879 67.9548
" />
<path d="M173.9879 67.9548
L174.1784 67.9548
" />
<path d="M174.1784 67.9548
L174.2736 68.0024
" />
<path d="M174.2736 68.0024
L174.3212 68.0501
" />
<path d="M174.3212 68.0501
L174.3689 68.1453
" />
<path d="M174.3689 68.1453
L174.3689 68.1929
" />
<path d="M174.3689 68.1929
L174.3212 68.2882
" />
<path d="M174.3212 68.2882
L174.2736 68.3358
" />
<path d="M174.2736 68.3358
L174.1784 68.3834
" />
<path d="M174.1784 68.3834
L173.9879 68.3834
" />
<path d="M173.9879 68.3834
L173.8927 68.4310
" />
<path d="M173.8927 68.4310
L173.8451 68.4786
" />
<path d="M173.8451 68.4786
L173.7974 68.5739
" />
<path d="M173.7974 68.5739
L173.7974 68.7643
" />
<path d="M173.7974 68.7643
L173.8451 68.8596
" />
<path d="M173.8451 68.8596
L173.8927 68.9072
" />
<path d="M173.8927 68.9072
L173.9879 68.9548
" />
<path d="M173.9879 68.9548
L174.1784 68.9548
" />
<path d="M174.1784 68.9548
L174.2736 68.9072
" />
<path d="M174.2736 68.9072
L174.3212 68.8596
" />
<path d="M174.3212 68.8596
L174.3689 68.7643
" />
<path d="M174.3689 68.7643
L174.3689 68.5739
" />
<path d="M174.3689 68.5739
L174.3212 68.4786
" />
<path d="M174.3212 68.4786
L174.2736 68.4310
" />
<path d="M174.2736 68.4310
L174.1784 68.3834
" />
</g><text x="246.9890" y="37.9754"
transform="scale(-1 1) translate(-493.978000 0)"
textLength="2.9167" font-size="1.3333" lengthAdjust="spacingAndGlyphs"
text-anchor="middle" opacity="0">J15</text>
<g class="stroked-text"><desc>J15</desc>
<path d="M246.1795 36.9302
L246.1795 37.6445
" />
<path d="M246.1795 37.6445
L246.1319 37.7874
" />
<path d="M246.1319 37.7874
L246.0366 37.8826
" />
<path d="M246.0366 37.8826
L245.8938 37.9302
" />
<path d="M245.8938 37.9302
L245.7985 37.9302
" />
<path d="M247.1795 37.9302
L246.6080 37.9302
" />
<path d="M246.8938 37.9302
L246.8938 36.9302
" />
<path d="M246.8938 36.9302
L246.7985 37.0731
" />
<path d="M246.7985 37.0731
L246.7033 37.1683
" />
<path d="M246.7033 37.1683
L246.6080 37.2159
" />
<path d="M248.0842 36.9302
L247.6080 36.9302
" />
<path d="M247.6080 36.9302
L247.5604 37.4064
" />
<path d="M247.5604 37.4064
L247.6080 37.3588
" />
<path d="M247.6080 37.3588
L247.7033 37.3112
" />
<path d="M247.7033 37.3112
L247.9414 37.3112
" />
<path d="M247.9414 37.3112
L248.0366 37.3588
" />
<path d="M248.0366 37.3588
L248.0842 37.4064
" />
<path d="M248.0842 37.4064
L248.1319 37.5016
" />
<path d="M248.1319 37.5016
L248.1319 37.7397
" />
<path d="M248.1319 37.7397
L248.0842 37.8350
" />
<path d="M248.0842 37.8350
L248.0366 37.8826
" />
<path d="M248.0366 37.8826
L247.9414 37.9302
" />
<path d="M247.9414 37.9302
L247.7033 37.9302
" />
<path d="M247.7033 37.9302
L247.6080 37.8826
" />
<path d="M247.6080 37.8826
L247.5604 37.8350
" />
</g></g>
<g style="fill:#000000; fill-opacity:0.0; 
stroke:#000000; stroke-width:0.1200; stroke-opacity:1; 
stroke-linecap:round; stroke-linejoin:round;">
<path d="M248.7422 107.6500
L248.7422 106.3200
" />
<path d="M247.4122 107.6500
L248.7422 107.6500
" />
<path d="M246.1422 107.6500
L197.8222 107.6500
" />
<path d="M246.1422 107.6500
L246.1422 105.0500
" />
<path d="M197.8222 107.6500
L197.8222 102.4500
" />
<path d="M248.7422 105.0500
L248.7422 102.4500
" />
<path d="M246.1422 105.0500
L248.7422 105.0500
" />
<path d="M248.7422 102.4500
L197.8222 102.4500
" />
</g>
<g style="fill:#000000; fill-opacity:0.0; 
stroke:#000000; stroke-width:0.1000; stroke-opacity:1; 
stroke-linecap:round; stroke-linejoin:round;">
<path d="M250.7822 125.0500
L195.7822 125.0500
" />
<path d="M195.7822 125.0500
L195.7822 85.0500
" />
<path d="M195.7822 85.0500
L250.7822 85.0500
" />
<path d="M250.7822 85.0500
L250.7822 125.0500
" />
</g>
<g style="fill:#000000; fill-opacity:0.0; 
stroke:#000000; stroke-width:0.1200; stroke-opacity:1; 
stroke-linecap:round; stroke-linejoin:round;">
<path d="M184.7072 88.8300
L182.0472 88.8300
" />
<path d="M184.7072 96.5100
L184.7072 88.8300
" />
<path d="M184.7072 96.5100
L182.0472 96.5100
" />
<path d="M184.7072 97.7800
L184.7072 99.1100
" />
<path d="M184.7072 99.1100
L183.3772 99.1100
" />
<path d="M182.0472 96.5100
L182.0472 88.8300
" />
<path d="M163.1972 59.8500
L163.1972 61.1200
" />
<path d="M163.1972 61.1200
L161.9272 61.1200
" />
<path d="M160.8843 56.9300
L160.4872 56.9300
" />
<path d="M160.8843 57.6900
L160.4872 57.6900
" />
<path d="M160.8172 59.4700
L160.4872 59.4700
" />
<path d="M160.8172 60.2300
L160.4872 60.2300
" />
<path d="M160.4872 55.9800
L157.8272 55.9800
" />
<path d="M160.4872 58.5800
L157.8272 58.5800
" />
<path d="M160.4872 61.1800
L160.4872 55.9800
" />
<path d="M157.8272 55.9800
L157.8272 61.1800
" />
<path d="M157.8272 57.6900
L151.8272 57.6900
" />
<path d="M157.8272 59.5700
L151.8272 59.5700
" />
<path d="M157.8272 59.6900
L151.8272 59.6900
" />
<path d="M157.8272 59.8100
L151.8272 59.8100
" />
<path d="M157.8272 59.9300
L151.8272 59.9300
" />
<path d="M157.8272 60.0500
L151.8272 60.0500
" />
<path d="M157.8272 60.1700
L151.8272 60.1700
" />
<path d="M157.8272 60.2300
L151.8272 60.2300
" />
<path d="M157.8272 61.1800
L160.4872 61.1800
" />
<path d="M151.8272 56.9300
L157.8272 56.9300
" />
<path d="M151.8272 57.6900
L151.8272 56.9300
" />
<path d="M151.8272 59.4700
L157.8272 59.4700
" />
<path d="M151.8272 60.2300
L151.8272 59.4700
" />
</g>
<g style="fill:#000000; fill-opacity:0.0; 
stroke:#000000; stroke-width:0.1000; stroke-opacity:1; 
stroke-linecap:round; stroke-linejoin:round;">
<circle cx="170.0022" cy="50.0062" r="0.9148" /> 
<circle cx="170.0022" cy="48.0000" r="0.9144" /> 
</g>
<g style="fill:#000000; fill-opacity:0.0; 
stroke:#000000; stroke-width:0.1200; stroke-opacity:1; 
stroke-linecap:round; stroke-linejoin:round;">
<path d="M210.3022 76.3000
L209.7022 76.3000
" />
<path d="M209.0022 75.6000
L209.0022 74.2000
" />
<path d="M211.0022 74.2000
L211.0022 75.6000
" />
<path d="M209.7022 73.5000
L210.3022 73.5000
" />
<path d="M210.3022 76.3000 A0.7000 0.7000 0.0 0 0 211.0022 75.6000" />
<path d="M209.0022 75.6000 A0.7000 0.7000 0.0 0 0 209.7022 76.3000" />
<path d="M211.0022 74.2000 A0.7000 0.7000 0.0 0 0 210.3022 73.5000" />
<path d="M209.7022 73.5000 A0.7000 0.7000 0.0 0 0 209.0022 74.2000" />
<path d="M216.7022 59.5000
L217.1022 59.5000
" />
<path d="M214.1022 59.5000
L214.5022 59.5000
" />
<path d="M211.6022 59.5000
L212.0022 59.5000
" />
<path d="M209.1022 59.5000
L209.5022 59.5000
" />
<path d="M206.5022 59.5000
L206.9022 59.5000
" />
<path d="M204.0022 59.5000
L204.4022 59.5000
" />
<path d="M201.4022 59.5000
L201.8022 59.5000
" />
<path d="M198.9022 59.5000
L199.3022 59.5000
" />
<path d="M196.3022 59.5000
L196.7022 59.5000
" />
<path d="M193.8022 59.5000
L194.2022 59.5000
" />
<path d="M191.3022 59.5000
L191.7022 59.5000
" />
<path d="M188.7022 59.5000
L189.1022 59.5000
" />
<path d="M186.2022 59.5000
L186.6022 59.5000
" />
<path d="M183.6022 59.5000
L184.0022 59.5000
" />
<path d="M181.1022 59.5000
L181.5022 59.5000
" />
<path d="M178.6022 59.5000
L179.0022 59.5000
" />
<path d="M176.0022 59.5000
L176.4022 59.5000
" />
<path d="M173.5022 59.5000
L173.9022 59.5000
" />
<path d="M171.1692 59.5000
L171.1692 56.4930
" />
<path d="M170.9022 59.5000
L171.3022 59.5000
" />
<path d="M168.5022 59.5000
L168.8022 59.5000
" />
<path d="M171.1692 56.4930
L168.5022 56.4930
" />
<path d="M219.5022 52.7000
L219.5022 59.5000
" />
<path d="M219.5022 50.5000
L219.5022 50.1000
" />
<path d="M219.5022 47.9000
L219.5022 47.5000
" />
<path d="M219.5022 38.5000
L219.5022 45.3000
" />
<path d="M216.7022 38.5000
L217.1022 38.5000
" />
<path d="M214.1022 38.5000
L214.5022 38.5000
" />
<path d="M211.6022 38.5000
L212.0022 38.5000
" />
<path d="M209.1022 38.5000
L209.5022 38.5000
" />
<path d="M206.5022 38.5000
L206.9022 38.5000
" />
<path d="M204.0022 38.5000
L204.4022 38.5000
" />
<path d="M201.4022 38.5000
L201.8022 38.5000
" />
<path d="M198.9022 38.5000
L199.3022 38.5000
" />
<path d="M196.3022 38.5000
L196.7022 38.5000
" />
<path d="M193.8022 38.5000
L194.2022 38.5000
" />
<path d="M191.3022 38.5000
L191.7022 38.5000
" />
<path d="M188.7022 38.5000
L189.1022 38.5000
" />
<path d="M186.2022 38.5000
L186.6022 38.5000
" />
<path d="M183.6022 38.5000
L184.0022 38.5000
" />
<path d="M181.1022 38.5000
L181.5022 38.5000
" />
<path d="M178.6022 38.5000
L179.0022 38.5000
" />
<path d="M176.0022 38.5000
L176.4022 38.5000
" />
<path d="M173.5022 38.5000
L173.9022 38.5000
" />
<path d="M170.9022 38.5000
L171.3022 38.5000
" />
<path d="M168.5022 38.5000
L168.8022 38.5000
" />
<path d="M212.8022 76.3000
L212.2022 76.3000
" />
<path d="M211.5022 75.6000
L211.5022 74.2000
" />
<path d="M213.5022 74.2000
L213.5022 75.6000
" />
<path d="M212.2022 73.5000
L212.8022 73.5000
" />
<path d="M212.8022 76.3000 A0.7000 0.7000 0.0 0 0 213.5022 75.6000" />
<path d="M211.5022 75.6000 A0.7000 0.7000 0.0 0 0 212.2022 76.3000" />
<path d="M213.5022 74.2000 A0.7000 0.7000 0.0 0 0 212.8022 73.5000" />
<path d="M212.2022 73.5000 A0.7000 0.7000 0.0 0 0 211.5022 74.2000" />
<path d="M254.7472 123.0250
L254.7472 124.2950
" />
<path d="M254.7472 124.2950
L253.4772 124.2950
" />
<path d="M252.4343 117.5650
L252.0372 117.5650
" />
<path d="M252.4343 118.3250
L252.0372 118.3250
" />
<path d="M252.4343 120.1050
L252.0372 120.1050
" />
<path d="M252.4343 120.8650
L252.0372 120.8650
" />
<path d="M252.3672 122.6450
L252.0372 122.6450
" />
<path d="M252.3672 123.4050
L252.0372 123.4050
" />
<path d="M252.0372 116.6150
L249.3772 116.6150
" />
<path d="M252.0372 119.2150
L249.3772 119.2150
" />
<path d="M252.0372 121.7550
L249.3772 121.7550
" />
<path d="M252.0372 124.3550
L252.0372 116.6150
" />
<path d="M249.3772 116.6150
L249.3772 124.3550
" />
<path d="M249.3772 118.3250
L243.3772 118.3250
" />
<path d="M249.3772 120.8650
L243.3772 120.8650
" />
<path d="M249.3772 122.7450
L243.3772 122.7450
" />
<path d="M249.3772 122.8650
L243.3772 122.8650
" />
<path d="M249.3772 122.9850
L243.3772 122.9850
" />
<path d="M249.3772 123.1050
L243.3772 123.1050
" />
<path d="M249.3772 123.2250
L243.3772 123.2250
" />
<path d="M249.3772 123.3450
L243.3772 123.3450
" />
<path d="M249.3772 123.4050
L243.3772 123.4050
" />
<path d="M249.3772 124.3550
L252.0372 124.3550
" />
<path d="M243.3772 117.5650
L249.3772 117.5650
" />
<path d="M243.3772 118.3250
L243.3772 117.5650
" />
<path d="M243.3772 120.1050
L249.3772 120.1050
" />
<path d="M243.3772 120.8650
L243.3772 120.1050
" />
<path d="M243.3772 122.6450
L249.3772 122.6450
" />
<path d="M243.3772 123.4050
L243.3772 122.6450
" />
</g>
<g style="fill:#000000; fill-opacity:0.0; 
stroke:#000000; stroke-width:0.1000; stroke-opacity:1; 
stroke-linecap:round; stroke-linejoin:round;">
<path d="M125.5222 63.5056
L125.5222 121.5056
" />
<path d="M129.2722 125.0056
L129.0222 125.0056
" />
</g>
<g style="fill:#000000; fill-opacity:0.0; 
stroke:#000000; stroke-width:0.1200; stroke-opacity:1; 
stroke-linecap:round; stroke-linejoin:round;">
<path d="M138.2122 123.0206
L138.2122 117.8206
" />
<path d="M139.1172 76.1156
L139.1172 81.2556
" />
<path d="M139.1172 73.5156
L139.1172 74.8456
" />
<path d="M140.4472 73.5156
L139.1172 73.5156
" />
<path d="M141.7172 76.1156
L139.1172 76.1156
" />
<path d="M141.7172 73.5156
L141.7172 76.1156
" />
<path d="M143.3522 120.4206
L143.3522 117.8206
" />
<path d="M143.3522 117.8206
L138.2122 117.8206
" />
<path d="M144.3172 81.2556
L139.1172 81.2556
" />
<path d="M144.3172 73.5156
L141.7172 73.5156
" />
<path d="M144.3172 73.5156
L144.3172 81.2556
" />
<path d="M145.9522 123.0206
L138.2122 123.0206
" />
<path d="M145.9522 123.0206
L145.9522 120.4206
" />
<path d="M145.9522 120.4206
L143.3522 120.4206
" />
<path d="M145.9522 119.1506
L145.9522 117.8206
" />
<path d="M145.9522 117.8206
L144.6222 117.8206
" />
<path d="M175.4222 69.6456
L175.4222 117.9656
" />
<path d="M175.4222 67.0456
L175.4222 68.3756
" />
<path d="M176.7522 67.0456
L175.4222 67.0456
" />
<path d="M178.0222 69.6456
L175.4222 69.6456
" />
<path d="M178.0222 67.0456
L178.0222 69.6456
" />
</g>
<g style="fill:#000000; fill-opacity:0.0; 
stroke:#000000; stroke-width:0.1000; stroke-opacity:1; 
stroke-linecap:round; stroke-linejoin:round;">
<path d="M178.0222 60.0056
L129.0222 60.0056
" />
<path d="M178.0222 60.0056
L178.5222 60.0052
" />
<path d="M178.7722 125.0056
L129.2722 125.0056
" />
</g>
<g style="fill:#000000; fill-opacity:0.0; 
stroke:#000000; stroke-width:0.1200; stroke-opacity:1; 
stroke-linecap:round; stroke-linejoin:round;">
<path d="M180.6222 117.9656
L175.4222 117.9656
" />
<path d="M180.6222 67.0456
L178.0222 67.0456
" />
<path d="M180.6222 67.0456
L180.6222 117.9656
" />
</g>
<g style="fill:#000000; fill-opacity:0.0; 
stroke:#000000; stroke-width:0.1000; stroke-opacity:1; 
stroke-linecap:round; stroke-linejoin:round;">
<path d="M182.0222 121.5056
L182.0222 63.5556
" />
<path d="M125.5222 121.5056 A3.5000 3.5000 0.0 0 0 129.0222 125.0056" />
<path d="M129.0222 60.0056 A3.5000 3.5000 0.0 0 0 125.5222 63.5056" />
<path d="M178.5222 125.0056 A3.5000 3.5000 0.0 0 0 182.0222 121.5056" />
<path d="M182.0222 63.5556 A3.5004 3.5004 0.0 0 0 178.5222 60.0052" />
<circle cx="129.0222" cy="121.5056" r="1.6510" /> 
<circle cx="129.0222" cy="63.5056" r="1.6510" /> 
<circle cx="178.0222" cy="121.5056" r="1.6510" /> 
<circle cx="178.0222" cy="63.5056" r="1.6510" /> 
</g>
<g style="fill:#000000; fill-opacity:0.0; 
stroke:#000000; stroke-width:0.1200; stroke-opacity:1; 
stroke-linecap:round; stroke-linejoin:round;">
<path d="M253.4222 44.9250
L253.4222 46.1950
" />
<path d="M253.4222 46.1950
L252.1522 46.1950
" />
<path d="M251.1093 39.4650
L250.6551 39.4650
" />
<path d="M251.1093 40.2250
L250.6551 40.2250
" />
<path d="M251.1093 42.0050
L250.6551 42.0050
" />
<path d="M251.1093 42.7650
L250.6551 42.7650
" />
<path d="M251.0422 44.5450
L250.6551 44.5450
" />
<path d="M251.0422 45.3050
L250.6551 45.3050
" />
<path d="M248.5693 39.4650
L248.1722 39.4650
" />
<path d="M248.5693 40.2250
L248.1722 40.2250
" />
<path d="M248.5693 42.0050
L248.1722 42.0050
" />
<path d="M248.5693 42.7650
L248.1722 42.7650
" />
<path d="M248.5693 44.5450
L248.1722 44.5450
" />
<path d="M248.5693 45.3050
L248.1722 45.3050
" />
<path d="M248.1722 38.5150
L245.5122 38.5150
" />
<path d="M248.1722 41.1150
L245.5122 41.1150
" />
<path d="M248.1722 43.6550
L245.5122 43.6550
" />
<path d="M248.1722 46.2550
L248.1722 38.5150
" />
<path d="M245.5122 38.5150
L245.5122 46.2550
" />
<path d="M245.5122 40.2250
L239.5122 40.2250
" />
<path d="M245.5122 42.7650
L239.5122 42.7650
" />
<path d="M245.5122 44.6450
L239.5122 44.6450
" />
<path d="M245.5122 44.7650
L239.5122 44.7650
" />
<path d="M245.5122 44.8850
L239.5122 44.8850
" />
<path d="M245.5122 45.0050
L239.5122 45.0050
" />
<path d="M245.5122 45.1250
L239.5122 45.1250
" />
<path d="M245.5122 45.2450
L239.5122 45.2450
" />
<path d="M245.5122 45.3050
L239.5122 45.3050
" />
<path d="M245.5122 46.2550
L248.1722 46.2550
" />
<path d="M239.5122 39.4650
L245.5122 39.4650
" />
<path d="M239.5122 40.2250
L239.5122 39.4650
" />
<path d="M239.5122 42.0050
L245.5122 42.0050
" />
<path d="M239.5122 42.7650
L239.5122 42.0050
" />
<path d="M239.5122 44.5450
L245.5122 44.5450
" />
<path d="M239.5122 45.3050
L239.5122 44.5450
" />
<g >
</g>
<g >
</g>
<g >
</g>
<g >
</g>
<g >
</g>
<g >
</g>
<g >
</g>
<g >
</g>
<g >
</g>
<g >
</g>
<g >
</g>
<g >
</g>
<g >
</g>
<g >
</g>
<g >
</g>
<g >
</g>
<g >
</g>
<g >
</g>
<g >
</g>
<g >
</g>
<g >
</g>
<g >
</g>
<g >
</g>
<g >
</g>
<g >
</g>
<g >
</g>
<g >
</g>
<g >
</g>
<g >
</g>
<g >
</g>
<g >
</g>
<g >
</g>
<g >
</g>
<g >
</g>
<g >
</g>
<g >
</g>
<g >
</g>
<g >
</g>
<g >
</g>
<g >
</g>
<g >
</g>
<g >
</g>
<g >
</g>
<g >
</g>
<g >
</g>
<g >
</g>
<g >
</g>
<g >
</g>
<g >
</g>
<g >
</g>
<g >
</g>
<g >
</g>
<g >
</g>
<g >
</g>
<g >
</g>
<g >
</g>
<g >
</g>
<g >
</g>
<g >
</g>
<g >
</g>
<g >
</g>
<g >
</g>
<g >
</g>
<g >
</g>
<g >
</g>
<g >
</g>
<g >
</g>
<g >
</g>
<g >
</g>
<g >
</g>
<g >
</g>
<g >
</g>
<g >
</g>
<g >
</g>
<g >
</g>
<g >
</g>
<g >
</g>
<g >
</g>
<g >
</g>
<g >
</g>
<g >
</g>
<g >
</g>
<g >
</g>
<g >
</g>
<g >
</g>
<g >
</g>
</g> 
</svg>
