<?xml version="1.0" standalone="no"?>
 <!DOCTYPE svg PUBLIC "-//W3C//DTD SVG 1.1//EN" 
 "http://www.w3.org/Graphics/SVG/1.1/DTD/svg11.dtd"> 
<svg
  xmlns:svg="http://www.w3.org/2000/svg"
  xmlns="http://www.w3.org/2000/svg"
  xmlns:xlink="http://www.w3.org/1999/xlink"
  version="1.1"
  width="297.0022mm" height="210.0072mm" viewBox="0.0000 0.0000 297.0022 210.0072">
<title>SVG Image created as pedalboard-hw-User_Drawings.svg date 2023/10/19 15:12:18 </title>
  <desc>Image generated by PCBNEW </desc>
<g style="fill:#000000; fill-opacity:1.0000;stroke:#000000; stroke-opacity:1.0000;
stroke-linecap:round; stroke-linejoin:round;"
 transform="translate(0 0) scale(1 1)">
</g>
<g style="fill:#000000; fill-opacity:0.0; 
stroke:#000000; stroke-width:0.0000; stroke-opacity:1; 
stroke-linecap:round; stroke-linejoin:round;">
</g>
<g style="fill:#000000; fill-opacity:0.0; 
stroke:#000000; stroke-width:0.0500; stroke-opacity:1; 
stroke-linecap:round; stroke-linejoin:round;">
<path style="fill:#000000; fill-opacity:0.0; 
stroke:#000000; stroke-width:0.0500; stroke-opacity:1; 
stroke-linecap:round; stroke-linejoin:round;fill:none"
d="M 281.6322,19.5000
102.3722,19.5000
102.3722,131.7600
281.6322,131.7600
Z" /> 
</g>
<g style="fill:#000000; fill-opacity:0.0; 
stroke:#000000; stroke-width:0.1500; stroke-opacity:1; 
stroke-linecap:round; stroke-linejoin:round;">
<text x="229.5022" y="141.3500"
textLength="9.8690" font-size="1.3333" lengthAdjust="spacingAndGlyphs"
text-anchor="middle" opacity="0">75.0000 mm</text>
<g class="stroked-text"><desc>75.0000 mm</desc>
<path d="M234.1689 140.3048
L233.5022 140.3048
" />
<path d="M233.5022 140.3048
L233.9308 141.3048
" />
<path d="M232.6451 140.3048
L233.1212 140.3048
" />
<path d="M233.1212 140.3048
L233.1689 140.7810
" />
<path d="M233.1689 140.7810
L233.1212 140.7334
" />
<path d="M233.1212 140.7334
L233.0260 140.6858
" />
<path d="M233.0260 140.6858
L232.7879 140.6858
" />
<path d="M232.7879 140.6858
L232.6927 140.7334
" />
<path d="M232.6927 140.7334
L232.6451 140.7810
" />
<path d="M232.6451 140.7810
L232.5974 140.8762
" />
<path d="M232.5974 140.8762
L232.5974 141.1143
" />
<path d="M232.5974 141.1143
L232.6451 141.2096
" />
<path d="M232.6451 141.2096
L232.6927 141.2572
" />
<path d="M232.6927 141.2572
L232.7879 141.3048
" />
<path d="M232.7879 141.3048
L233.0260 141.3048
" />
<path d="M233.0260 141.3048
L233.1212 141.2572
" />
<path d="M233.1212 141.2572
L233.1689 141.2096
" />
<path d="M232.1689 141.2096
L232.1212 141.2572
" />
<path d="M232.1212 141.2572
L232.1689 141.3048
" />
<path d="M232.1689 141.3048
L232.2165 141.2572
" />
<path d="M232.2165 141.2572
L232.1689 141.2096
" />
<path d="M232.1689 141.2096
L232.1689 141.3048
" />
<path d="M231.5022 140.3048
L231.4070 140.3048
" />
<path d="M231.4070 140.3048
L231.3117 140.3524
" />
<path d="M231.3117 140.3524
L231.2641 140.4001
" />
<path d="M231.2641 140.4001
L231.2165 140.4953
" />
<path d="M231.2165 140.4953
L231.1689 140.6858
" />
<path d="M231.1689 140.6858
L231.1689 140.9239
" />
<path d="M231.1689 140.9239
L231.2165 141.1143
" />
<path d="M231.2165 141.1143
L231.2641 141.2096
" />
<path d="M231.2641 141.2096
L231.3117 141.2572
" />
<path d="M231.3117 141.2572
L231.4070 141.3048
" />
<path d="M231.4070 141.3048
L231.5022 141.3048
" />
<path d="M231.5022 141.3048
L231.5974 141.2572
" />
<path d="M231.5974 141.2572
L231.6451 141.2096
" />
<path d="M231.6451 141.2096
L231.6927 141.1143
" />
<path d="M231.6927 141.1143
L231.7403 140.9239
" />
<path d="M231.7403 140.9239
L231.7403 140.6858
" />
<path d="M231.7403 140.6858
L231.6927 140.4953
" />
<path d="M231.6927 140.4953
L231.6451 140.4001
" />
<path d="M231.6451 140.4001
L231.5974 140.3524
" />
<path d="M231.5974 140.3524
L231.5022 140.3048
" />
<path d="M230.5498 140.3048
L230.4546 140.3048
" />
<path d="M230.4546 140.3048
L230.3593 140.3524
" />
<path d="M230.3593 140.3524
L230.3117 140.4001
" />
<path d="M230.3117 140.4001
L230.2641 140.4953
" />
<path d="M230.2641 140.4953
L230.2165 140.6858
" />
<path d="M230.2165 140.6858
L230.2165 140.9239
" />
<path d="M230.2165 140.9239
L230.2641 141.1143
" />
<path d="M230.2641 141.1143
L230.3117 141.2096
" />
<path d="M230.3117 141.2096
L230.3593 141.2572
" />
<path d="M230.3593 141.2572
L230.4546 141.3048
" />
<path d="M230.4546 141.3048
L230.5498 141.3048
" />
<path d="M230.5498 141.3048
L230.6451 141.2572
" />
<path d="M230.6451 141.2572
L230.6927 141.2096
" />
<path d="M230.6927 141.2096
L230.7403 141.1143
" />
<path d="M230.7403 141.1143
L230.7879 140.9239
" />
<path d="M230.7879 140.9239
L230.7879 140.6858
" />
<path d="M230.7879 140.6858
L230.7403 140.4953
" />
<path d="M230.7403 140.4953
L230.6927 140.4001
" />
<path d="M230.6927 140.4001
L230.6451 140.3524
" />
<path d="M230.6451 140.3524
L230.5498 140.3048
" />
<path d="M229.5974 140.3048
L229.5022 140.3048
" />
<path d="M229.5022 140.3048
L229.4070 140.3524
" />
<path d="M229.4070 140.3524
L229.3593 140.4001
" />
<path d="M229.3593 140.4001
L229.3117 140.4953
" />
<path d="M229.3117 140.4953
L229.2641 140.6858
" />
<path d="M229.2641 140.6858
L229.2641 140.9239
" />
<path d="M229.2641 140.9239
L229.3117 141.1143
" />
<path d="M229.3117 141.1143
L229.3593 141.2096
" />
<path d="M229.3593 141.2096
L229.4070 141.2572
" />
<path d="M229.4070 141.2572
L229.5022 141.3048
" />
<path d="M229.5022 141.3048
L229.5974 141.3048
" />
<path d="M229.5974 141.3048
L229.6927 141.2572
" />
<path d="M229.6927 141.2572
L229.7403 141.2096
" />
<path d="M229.7403 141.2096
L229.7879 141.1143
" />
<path d="M229.7879 141.1143
L229.8355 140.9239
" />
<path d="M229.8355 140.9239
L229.8355 140.6858
" />
<path d="M229.8355 140.6858
L229.7879 140.4953
" />
<path d="M229.7879 140.4953
L229.7403 140.4001
" />
<path d="M229.7403 140.4001
L229.6927 140.3524
" />
<path d="M229.6927 140.3524
L229.5974 140.3048
" />
<path d="M228.6451 140.3048
L228.5498 140.3048
" />
<path d="M228.5498 140.3048
L228.4546 140.3524
" />
<path d="M228.4546 140.3524
L228.4070 140.4001
" />
<path d="M228.4070 140.4001
L228.3593 140.4953
" />
<path d="M228.3593 140.4953
L228.3117 140.6858
" />
<path d="M228.3117 140.6858
L228.3117 140.9239
" />
<path d="M228.3117 140.9239
L228.3593 141.1143
" />
<path d="M228.3593 141.1143
L228.4070 141.2096
" />
<path d="M228.4070 141.2096
L228.4546 141.2572
" />
<path d="M228.4546 141.2572
L228.5498 141.3048
" />
<path d="M228.5498 141.3048
L228.6451 141.3048
" />
<path d="M228.6451 141.3048
L228.7403 141.2572
" />
<path d="M228.7403 141.2572
L228.7879 141.2096
" />
<path d="M228.7879 141.2096
L228.8355 141.1143
" />
<path d="M228.8355 141.1143
L228.8832 140.9239
" />
<path d="M228.8832 140.9239
L228.8832 140.6858
" />
<path d="M228.8832 140.6858
L228.8355 140.4953
" />
<path d="M228.8355 140.4953
L228.7879 140.4001
" />
<path d="M228.7879 140.4001
L228.7403 140.3524
" />
<path d="M228.7403 140.3524
L228.6451 140.3048
" />
<path d="M227.1212 141.3048
L227.1212 140.6382
" />
<path d="M227.1212 140.7334
L227.0736 140.6858
" />
<path d="M227.0736 140.6858
L226.9784 140.6382
" />
<path d="M226.9784 140.6382
L226.8355 140.6382
" />
<path d="M226.8355 140.6382
L226.7403 140.6858
" />
<path d="M226.7403 140.6858
L226.6927 140.7810
" />
<path d="M226.6927 140.7810
L226.6927 141.3048
" />
<path d="M226.6927 140.7810
L226.6451 140.6858
" />
<path d="M226.6451 140.6858
L226.5498 140.6382
" />
<path d="M226.5498 140.6382
L226.4070 140.6382
" />
<path d="M226.4070 140.6382
L226.3117 140.6858
" />
<path d="M226.3117 140.6858
L226.2641 140.7810
" />
<path d="M226.2641 140.7810
L226.2641 141.3048
" />
<path d="M225.7879 141.3048
L225.7879 140.6382
" />
<path d="M225.7879 140.7334
L225.7403 140.6858
" />
<path d="M225.7403 140.6858
L225.6451 140.6382
" />
<path d="M225.6451 140.6382
L225.5022 140.6382
" />
<path d="M225.5022 140.6382
L225.4070 140.6858
" />
<path d="M225.4070 140.6858
L225.3593 140.7810
" />
<path d="M225.3593 140.7810
L225.3593 141.3048
" />
<path d="M225.3593 140.7810
L225.3117 140.6858
" />
<path d="M225.3117 140.6858
L225.2165 140.6382
" />
<path d="M225.2165 140.6382
L225.0736 140.6382
" />
<path d="M225.0736 140.6382
L224.9784 140.6858
" />
<path d="M224.9784 140.6858
L224.9308 140.7810
" />
<path d="M224.9308 140.7810
L224.9308 141.3048
" />
</g><path d="M267.0022 119.5000
L267.0022 142.5864
" />
<path d="M192.0022 119.5000
L192.0022 142.5864
" />
<path d="M267.0022 142.0000
L192.0022 142.0000
" />
<path d="M267.0022 142.0000
L192.0022 142.0000
" />
<path d="M267.0022 142.0000
L265.8757 141.4136
" />
<path d="M267.0022 142.0000
L265.8757 142.5864
" />
<path d="M192.0022 142.0000
L193.1287 142.5864
" />
<path d="M192.0022 142.0000
L193.1287 141.4136
" />
<text x="117.0022" y="13.9500"
textLength="5.5833" font-size="1.3333" lengthAdjust="spacingAndGlyphs"
text-anchor="middle" opacity="0">24 mm</text>
<g class="stroked-text"><desc>24 mm</desc>
<path d="M119.4784 13.0001
L119.4308 12.9524
" />
<path d="M119.4308 12.9524
L119.3355 12.9048
" />
<path d="M119.3355 12.9048
L119.0974 12.9048
" />
<path d="M119.0974 12.9048
L119.0022 12.9524
" />
<path d="M119.0022 12.9524
L118.9546 13.0001
" />
<path d="M118.9546 13.0001
L118.9070 13.0953
" />
<path d="M118.9070 13.0953
L118.9070 13.1905
" />
<path d="M118.9070 13.1905
L118.9546 13.3334
" />
<path d="M118.9546 13.3334
L119.5260 13.9048
" />
<path d="M119.5260 13.9048
L118.9070 13.9048
" />
<path d="M118.0498 13.2382
L118.0498 13.9048
" />
<path d="M118.2879 12.8572
L118.5260 13.5715
" />
<path d="M118.5260 13.5715
L117.9070 13.5715
" />
<path d="M116.7641 13.9048
L116.7641 13.2382
" />
<path d="M116.7641 13.3334
L116.7165 13.2858
" />
<path d="M116.7165 13.2858
L116.6212 13.2382
" />
<path d="M116.6212 13.2382
L116.4784 13.2382
" />
<path d="M116.4784 13.2382
L116.3832 13.2858
" />
<path d="M116.3832 13.2858
L116.3355 13.3810
" />
<path d="M116.3355 13.3810
L116.3355 13.9048
" />
<path d="M116.3355 13.3810
L116.2879 13.2858
" />
<path d="M116.2879 13.2858
L116.1927 13.2382
" />
<path d="M116.1927 13.2382
L116.0498 13.2382
" />
<path d="M116.0498 13.2382
L115.9546 13.2858
" />
<path d="M115.9546 13.2858
L115.9070 13.3810
" />
<path d="M115.9070 13.3810
L115.9070 13.9048
" />
<path d="M115.4308 13.9048
L115.4308 13.2382
" />
<path d="M115.4308 13.3334
L115.3832 13.2858
" />
<path d="M115.3832 13.2858
L115.2879 13.2382
" />
<path d="M115.2879 13.2382
L115.1451 13.2382
" />
<path d="M115.1451 13.2382
L115.0498 13.2858
" />
<path d="M115.0498 13.2858
L115.0022 13.3810
" />
<path d="M115.0022 13.3810
L115.0022 13.9048
" />
<path d="M115.0022 13.3810
L114.9546 13.2858
" />
<path d="M114.9546 13.2858
L114.8593 13.2382
" />
<path d="M114.8593 13.2382
L114.7165 13.2382
" />
<path d="M114.7165 13.2382
L114.6212 13.2858
" />
<path d="M114.6212 13.2858
L114.5736 13.3810
" />
<path d="M114.5736 13.3810
L114.5736 13.9048
" />
</g><path d="M129.0022 22.5000
L129.0022 14.0136
" />
<path d="M105.0022 22.5000
L105.0022 14.0136
" />
<path d="M129.0022 14.6000
L105.0022 14.6000
" />
<path d="M129.0022 14.6000
L105.0022 14.6000
" />
<path d="M129.0022 14.6000
L127.8757 14.0136
" />
<path d="M129.0022 14.6000
L127.8757 15.1864
" />
<path d="M105.0022 14.6000
L106.1287 15.1864
" />
<path d="M105.0022 14.6000
L106.1287 14.0136
" />
<g transform="rotate(-90.000000 99.1522 57.5000)">
<text x="99.1522" y="58.0000"
textLength="5.5833" font-size="1.3333" lengthAdjust="spacingAndGlyphs"
text-anchor="middle" opacity="0">19 mm</text>
</g>
<g class="stroked-text"><desc>19 mm</desc>
<path d="M98.6974 59.4048
L98.6974 59.9762
" />
<path d="M98.6974 59.6905
L99.6974 59.6905
" />
<path d="M99.6974 59.6905
L99.5545 59.7857
" />
<path d="M99.5545 59.7857
L99.4593 59.8810
" />
<path d="M99.4593 59.8810
L99.4117 59.9762
" />
<path d="M98.6974 58.9286
L98.6974 58.7381
" />
<path d="M98.6974 58.7381
L98.7450 58.6429
" />
<path d="M98.7450 58.6429
L98.7926 58.5952
" />
<path d="M98.7926 58.5952
L98.9355 58.5000
" />
<path d="M98.9355 58.5000
L99.1260 58.4524
" />
<path d="M99.1260 58.4524
L99.5069 58.4524
" />
<path d="M99.5069 58.4524
L99.6021 58.5000
" />
<path d="M99.6021 58.5000
L99.6498 58.5476
" />
<path d="M99.6498 58.5476
L99.6974 58.6429
" />
<path d="M99.6974 58.6429
L99.6974 58.8333
" />
<path d="M99.6974 58.8333
L99.6498 58.9286
" />
<path d="M99.6498 58.9286
L99.6021 58.9762
" />
<path d="M99.6021 58.9762
L99.5069 59.0238
" />
<path d="M99.5069 59.0238
L99.2688 59.0238
" />
<path d="M99.2688 59.0238
L99.1736 58.9762
" />
<path d="M99.1736 58.9762
L99.1260 58.9286
" />
<path d="M99.1260 58.9286
L99.0783 58.8333
" />
<path d="M99.0783 58.8333
L99.0783 58.6429
" />
<path d="M99.0783 58.6429
L99.1260 58.5476
" />
<path d="M99.1260 58.5476
L99.1736 58.5000
" />
<path d="M99.1736 58.5000
L99.2688 58.4524
" />
<path d="M98.6974 57.2619
L99.3640 57.2619
" />
<path d="M99.2688 57.2619
L99.3164 57.2143
" />
<path d="M99.3164 57.2143
L99.3640 57.1190
" />
<path d="M99.3640 57.1190
L99.3640 56.9762
" />
<path d="M99.3640 56.9762
L99.3164 56.8810
" />
<path d="M99.3164 56.8810
L99.2212 56.8333
" />
<path d="M99.2212 56.8333
L98.6974 56.8333
" />
<path d="M99.2212 56.8333
L99.3164 56.7857
" />
<path d="M99.3164 56.7857
L99.3640 56.6905
" />
<path d="M99.3640 56.6905
L99.3640 56.5476
" />
<path d="M99.3640 56.5476
L99.3164 56.4524
" />
<path d="M99.3164 56.4524
L99.2212 56.4048
" />
<path d="M99.2212 56.4048
L98.6974 56.4048
" />
<path d="M98.6974 55.9286
L99.3640 55.9286
" />
<path d="M99.2688 55.9286
L99.3164 55.8810
" />
<path d="M99.3164 55.8810
L99.3640 55.7857
" />
<path d="M99.3640 55.7857
L99.3640 55.6429
" />
<path d="M99.3640 55.6429
L99.3164 55.5476
" />
<path d="M99.3164 55.5476
L99.2212 55.5000
" />
<path d="M99.2212 55.5000
L98.6974 55.5000
" />
<path d="M99.2212 55.5000
L99.3164 55.4524
" />
<path d="M99.3164 55.4524
L99.3640 55.3571
" />
<path d="M99.3640 55.3571
L99.3640 55.2143
" />
<path d="M99.3640 55.2143
L99.3164 55.1190
" />
<path d="M99.3164 55.1190
L99.2212 55.0714
" />
<path d="M99.2212 55.0714
L98.6974 55.0714
" />
</g><path d="M154.0022 48.0000
L97.4158 48.0000
" />
<path d="M154.0022 67.0000
L97.4158 67.0000
" />
<path d="M98.0022 48.0000
L98.0022 67.0000
" />
<path d="M98.0022 48.0000
L98.0022 67.0000
" />
<path d="M98.0022 48.0000
L97.4158 49.1265
" />
<path d="M98.0022 48.0000
L98.5886 49.1265
" />
<path d="M98.0022 67.0000
L98.5886 65.8735
" />
<path d="M98.0022 67.0000
L97.4158 65.8735
" />
<g transform="rotate(-90.000000 99.0022 124.1000)">
<text x="99.0022" y="124.6000"
textLength="5.5833" font-size="1.3333" lengthAdjust="spacingAndGlyphs"
text-anchor="middle" opacity="0">12 mm</text>
</g>
<g class="stroked-text"><desc>12 mm</desc>
<path d="M98.5474 126.0048
L98.5474 126.5762
" />
<path d="M98.5474 126.2905
L99.5474 126.2905
" />
<path d="M99.5474 126.2905
L99.4045 126.3857
" />
<path d="M99.4045 126.3857
L99.3093 126.4810
" />
<path d="M99.3093 126.4810
L99.2617 126.5762
" />
<path d="M99.4521 125.6238
L99.4998 125.5762
" />
<path d="M99.4998 125.5762
L99.5474 125.4810
" />
<path d="M99.5474 125.4810
L99.5474 125.2429
" />
<path d="M99.5474 125.2429
L99.4998 125.1476
" />
<path d="M99.4998 125.1476
L99.4521 125.1000
" />
<path d="M99.4521 125.1000
L99.3569 125.0524
" />
<path d="M99.3569 125.0524
L99.2617 125.0524
" />
<path d="M99.2617 125.0524
L99.1188 125.1000
" />
<path d="M99.1188 125.1000
L98.5474 125.6714
" />
<path d="M98.5474 125.6714
L98.5474 125.0524
" />
<path d="M98.5474 123.8619
L99.2140 123.8619
" />
<path d="M99.1188 123.8619
L99.1664 123.8143
" />
<path d="M99.1664 123.8143
L99.2140 123.7190
" />
<path d="M99.2140 123.7190
L99.2140 123.5762
" />
<path d="M99.2140 123.5762
L99.1664 123.4810
" />
<path d="M99.1664 123.4810
L99.0712 123.4333
" />
<path d="M99.0712 123.4333
L98.5474 123.4333
" />
<path d="M99.0712 123.4333
L99.1664 123.3857
" />
<path d="M99.1664 123.3857
L99.2140 123.2905
" />
<path d="M99.2140 123.2905
L99.2140 123.1476
" />
<path d="M99.2140 123.1476
L99.1664 123.0524
" />
<path d="M99.1664 123.0524
L99.0712 123.0048
" />
<path d="M99.0712 123.0048
L98.5474 123.0048
" />
<path d="M98.5474 122.5286
L99.2140 122.5286
" />
<path d="M99.1188 122.5286
L99.1664 122.4810
" />
<path d="M99.1664 122.4810
L99.2140 122.3857
" />
<path d="M99.2140 122.3857
L99.2140 122.2429
" />
<path d="M99.2140 122.2429
L99.1664 122.1476
" />
<path d="M99.1664 122.1476
L99.0712 122.1000
" />
<path d="M99.0712 122.1000
L98.5474 122.1000
" />
<path d="M99.0712 122.1000
L99.1664 122.0524
" />
<path d="M99.1664 122.0524
L99.2140 121.9571
" />
<path d="M99.2140 121.9571
L99.2140 121.8143
" />
<path d="M99.2140 121.8143
L99.1664 121.7190
" />
<path d="M99.1664 121.7190
L99.0712 121.6714
" />
<path d="M99.0712 121.6714
L98.5474 121.6714
" />
</g><path d="M116.8422 119.0000
L97.4158 119.0000
" />
<path d="M116.8422 131.0000
L97.4158 131.0000
" />
<path d="M98.0022 119.0000
L98.0022 131.0000
" />
<path d="M98.0022 119.0000
L98.0022 131.0000
" />
<path d="M98.0022 119.0000
L97.4158 120.1265
" />
<path d="M98.0022 119.0000
L98.5886 120.1265
" />
<path d="M98.0022 131.0000
L98.5886 129.8735
" />
<path d="M98.0022 131.0000
L97.4158 129.8735
" />
<g transform="rotate(-90.000000 246.3716 22.5000)">
<text x="246.3716" y="23.0000"
textLength="4.6310" font-size="1.3333" lengthAdjust="spacingAndGlyphs"
text-anchor="middle" opacity="0">3 mm</text>
</g>
<g class="stroked-text"><desc>3 mm</desc>
<path d="M246.9168 24.5476
L246.9168 23.9286
" />
<path d="M246.9168 23.9286
L246.5358 24.2619
" />
<path d="M246.5358 24.2619
L246.5358 24.1190
" />
<path d="M246.5358 24.1190
L246.4882 24.0238
" />
<path d="M246.4882 24.0238
L246.4406 23.9762
" />
<path d="M246.4406 23.9762
L246.3453 23.9286
" />
<path d="M246.3453 23.9286
L246.1072 23.9286
" />
<path d="M246.1072 23.9286
L246.0120 23.9762
" />
<path d="M246.0120 23.9762
L245.9644 24.0238
" />
<path d="M245.9644 24.0238
L245.9168 24.1190
" />
<path d="M245.9168 24.1190
L245.9168 24.4048
" />
<path d="M245.9168 24.4048
L245.9644 24.5000
" />
<path d="M245.9644 24.5000
L246.0120 24.5476
" />
<path d="M245.9168 22.7381
L246.5834 22.7381
" />
<path d="M246.4882 22.7381
L246.5358 22.6905
" />
<path d="M246.5358 22.6905
L246.5834 22.5952
" />
<path d="M246.5834 22.5952
L246.5834 22.4524
" />
<path d="M246.5834 22.4524
L246.5358 22.3571
" />
<path d="M246.5358 22.3571
L246.4406 22.3095
" />
<path d="M246.4406 22.3095
L245.9168 22.3095
" />
<path d="M246.4406 22.3095
L246.5358 22.2619
" />
<path d="M246.5358 22.2619
L246.5834 22.1667
" />
<path d="M246.5834 22.1667
L246.5834 22.0238
" />
<path d="M246.5834 22.0238
L246.5358 21.9286
" />
<path d="M246.5358 21.9286
L246.4406 21.8810
" />
<path d="M246.4406 21.8810
L245.9168 21.8810
" />
<path d="M245.9168 21.4048
L246.5834 21.4048
" />
<path d="M246.4882 21.4048
L246.5358 21.3571
" />
<path d="M246.5358 21.3571
L246.5834 21.2619
" />
<path d="M246.5834 21.2619
L246.5834 21.1190
" />
<path d="M246.5834 21.1190
L246.5358 21.0238
" />
<path d="M246.5358 21.0238
L246.4406 20.9762
" />
<path d="M246.4406 20.9762
L245.9168 20.9762
" />
<path d="M246.4406 20.9762
L246.5358 20.9286
" />
<path d="M246.5358 20.9286
L246.5834 20.8333
" />
<path d="M246.5834 20.8333
L246.5834 20.6905
" />
<path d="M246.5834 20.6905
L246.5358 20.5952
" />
<path d="M246.5358 20.5952
L246.4406 20.5476
" />
<path d="M246.4406 20.5476
L245.9168 20.5476
" />
</g></g>
<g style="fill:#000000; fill-opacity:0.0; 
stroke:#000000; stroke-width:0.1000; stroke-opacity:1; 
stroke-linecap:round; stroke-linejoin:round;">
<path d="M255.0022 23.0000
L247.9158 23.0000
" />
<path d="M255.0022 20.0000
L247.9158 20.0000
" />
<path d="M248.5022 23.0000
L248.5022 20.0000
" />
<path d="M248.5022 23.0000
L248.5022 20.0000
" />
<path d="M248.5022 23.0000
L249.0886 21.8735
" />
<path d="M248.5022 23.0000
L247.9158 21.8735
" />
<path d="M248.5022 20.0000
L247.9158 21.1265
" />
<path d="M248.5022 20.0000
L249.0886 21.1265
" />
</g>
<g style="fill:#000000; fill-opacity:0.0; 
stroke:#000000; stroke-width:0.1500; stroke-opacity:1; 
stroke-linecap:round; stroke-linejoin:round;">
<text x="217.0022" y="51.3500"
textLength="9.8690" font-size="1.3333" lengthAdjust="spacingAndGlyphs"
text-anchor="middle" opacity="0">25.0000 mm</text>
<g class="stroked-text"><desc>25.0000 mm</desc>
<path d="M221.6212 50.4001
L221.5736 50.3524
" />
<path d="M221.5736 50.3524
L221.4784 50.3048
" />
<path d="M221.4784 50.3048
L221.2403 50.3048
" />
<path d="M221.2403 50.3048
L221.1451 50.3524
" />
<path d="M221.1451 50.3524
L221.0974 50.4001
" />
<path d="M221.0974 50.4001
L221.0498 50.4953
" />
<path d="M221.0498 50.4953
L221.0498 50.5905
" />
<path d="M221.0498 50.5905
L221.0974 50.7334
" />
<path d="M221.0974 50.7334
L221.6689 51.3048
" />
<path d="M221.6689 51.3048
L221.0498 51.3048
" />
<path d="M220.1451 50.3048
L220.6212 50.3048
" />
<path d="M220.6212 50.3048
L220.6689 50.7810
" />
<path d="M220.6689 50.7810
L220.6212 50.7334
" />
<path d="M220.6212 50.7334
L220.5260 50.6858
" />
<path d="M220.5260 50.6858
L220.2879 50.6858
" />
<path d="M220.2879 50.6858
L220.1927 50.7334
" />
<path d="M220.1927 50.7334
L220.1451 50.7810
" />
<path d="M220.1451 50.7810
L220.0974 50.8762
" />
<path d="M220.0974 50.8762
L220.0974 51.1143
" />
<path d="M220.0974 51.1143
L220.1451 51.2096
" />
<path d="M220.1451 51.2096
L220.1927 51.2572
" />
<path d="M220.1927 51.2572
L220.2879 51.3048
" />
<path d="M220.2879 51.3048
L220.5260 51.3048
" />
<path d="M220.5260 51.3048
L220.6212 51.2572
" />
<path d="M220.6212 51.2572
L220.6689 51.2096
" />
<path d="M219.6689 51.2096
L219.6212 51.2572
" />
<path d="M219.6212 51.2572
L219.6689 51.3048
" />
<path d="M219.6689 51.3048
L219.7165 51.2572
" />
<path d="M219.7165 51.2572
L219.6689 51.2096
" />
<path d="M219.6689 51.2096
L219.6689 51.3048
" />
<path d="M219.0022 50.3048
L218.9070 50.3048
" />
<path d="M218.9070 50.3048
L218.8117 50.3524
" />
<path d="M218.8117 50.3524
L218.7641 50.4001
" />
<path d="M218.7641 50.4001
L218.7165 50.4953
" />
<path d="M218.7165 50.4953
L218.6689 50.6858
" />
<path d="M218.6689 50.6858
L218.6689 50.9239
" />
<path d="M218.6689 50.9239
L218.7165 51.1143
" />
<path d="M218.7165 51.1143
L218.7641 51.2096
" />
<path d="M218.7641 51.2096
L218.8117 51.2572
" />
<path d="M218.8117 51.2572
L218.9070 51.3048
" />
<path d="M218.9070 51.3048
L219.0022 51.3048
" />
<path d="M219.0022 51.3048
L219.0974 51.2572
" />
<path d="M219.0974 51.2572
L219.1451 51.2096
" />
<path d="M219.1451 51.2096
L219.1927 51.1143
" />
<path d="M219.1927 51.1143
L219.2403 50.9239
" />
<path d="M219.2403 50.9239
L219.2403 50.6858
" />
<path d="M219.2403 50.6858
L219.1927 50.4953
" />
<path d="M219.1927 50.4953
L219.1451 50.4001
" />
<path d="M219.1451 50.4001
L219.0974 50.3524
" />
<path d="M219.0974 50.3524
L219.0022 50.3048
" />
<path d="M218.0498 50.3048
L217.9546 50.3048
" />
<path d="M217.9546 50.3048
L217.8593 50.3524
" />
<path d="M217.8593 50.3524
L217.8117 50.4001
" />
<path d="M217.8117 50.4001
L217.7641 50.4953
" />
<path d="M217.7641 50.4953
L217.7165 50.6858
" />
<path d="M217.7165 50.6858
L217.7165 50.9239
" />
<path d="M217.7165 50.9239
L217.7641 51.1143
" />
<path d="M217.7641 51.1143
L217.8117 51.2096
" />
<path d="M217.8117 51.2096
L217.8593 51.2572
" />
<path d="M217.8593 51.2572
L217.9546 51.3048
" />
<path d="M217.9546 51.3048
L218.0498 51.3048
" />
<path d="M218.0498 51.3048
L218.1451 51.2572
" />
<path d="M218.1451 51.2572
L218.1927 51.2096
" />
<path d="M218.1927 51.2096
L218.2403 51.1143
" />
<path d="M218.2403 51.1143
L218.2879 50.9239
" />
<path d="M218.2879 50.9239
L218.2879 50.6858
" />
<path d="M218.2879 50.6858
L218.2403 50.4953
" />
<path d="M218.2403 50.4953
L218.1927 50.4001
" />
<path d="M218.1927 50.4001
L218.1451 50.3524
" />
<path d="M218.1451 50.3524
L218.0498 50.3048
" />
<path d="M217.0974 50.3048
L217.0022 50.3048
" />
<path d="M217.0022 50.3048
L216.9070 50.3524
" />
<path d="M216.9070 50.3524
L216.8593 50.4001
" />
<path d="M216.8593 50.4001
L216.8117 50.4953
" />
<path d="M216.8117 50.4953
L216.7641 50.6858
" />
<path d="M216.7641 50.6858
L216.7641 50.9239
" />
<path d="M216.7641 50.9239
L216.8117 51.1143
" />
<path d="M216.8117 51.1143
L216.8593 51.2096
" />
<path d="M216.8593 51.2096
L216.9070 51.2572
" />
<path d="M216.9070 51.2572
L217.0022 51.3048
" />
<path d="M217.0022 51.3048
L217.0974 51.3048
" />
<path d="M217.0974 51.3048
L217.1927 51.2572
" />
<path d="M217.1927 51.2572
L217.2403 51.2096
" />
<path d="M217.2403 51.2096
L217.2879 51.1143
" />
<path d="M217.2879 51.1143
L217.3355 50.9239
" />
<path d="M217.3355 50.9239
L217.3355 50.6858
" />
<path d="M217.3355 50.6858
L217.2879 50.4953
" />
<path d="M217.2879 50.4953
L217.2403 50.4001
" />
<path d="M217.2403 50.4001
L217.1927 50.3524
" />
<path d="M217.1927 50.3524
L217.0974 50.3048
" />
<path d="M216.1451 50.3048
L216.0498 50.3048
" />
<path d="M216.0498 50.3048
L215.9546 50.3524
" />
<path d="M215.9546 50.3524
L215.9070 50.4001
" />
<path d="M215.9070 50.4001
L215.8593 50.4953
" />
<path d="M215.8593 50.4953
L215.8117 50.6858
" />
<path d="M215.8117 50.6858
L215.8117 50.9239
" />
<path d="M215.8117 50.9239
L215.8593 51.1143
" />
<path d="M215.8593 51.1143
L215.9070 51.2096
" />
<path d="M215.9070 51.2096
L215.9546 51.2572
" />
<path d="M215.9546 51.2572
L216.0498 51.3048
" />
<path d="M216.0498 51.3048
L216.1451 51.3048
" />
<path d="M216.1451 51.3048
L216.2403 51.2572
" />
<path d="M216.2403 51.2572
L216.2879 51.2096
" />
<path d="M216.2879 51.2096
L216.3355 51.1143
" />
<path d="M216.3355 51.1143
L216.3832 50.9239
" />
<path d="M216.3832 50.9239
L216.3832 50.6858
" />
<path d="M216.3832 50.6858
L216.3355 50.4953
" />
<path d="M216.3355 50.4953
L216.2879 50.4001
" />
<path d="M216.2879 50.4001
L216.2403 50.3524
" />
<path d="M216.2403 50.3524
L216.1451 50.3048
" />
<path d="M214.6212 51.3048
L214.6212 50.6382
" />
<path d="M214.6212 50.7334
L214.5736 50.6858
" />
<path d="M214.5736 50.6858
L214.4784 50.6382
" />
<path d="M214.4784 50.6382
L214.3355 50.6382
" />
<path d="M214.3355 50.6382
L214.2403 50.6858
" />
<path d="M214.2403 50.6858
L214.1927 50.7810
" />
<path d="M214.1927 50.7810
L214.1927 51.3048
" />
<path d="M214.1927 50.7810
L214.1451 50.6858
" />
<path d="M214.1451 50.6858
L214.0498 50.6382
" />
<path d="M214.0498 50.6382
L213.9070 50.6382
" />
<path d="M213.9070 50.6382
L213.8117 50.6858
" />
<path d="M213.8117 50.6858
L213.7641 50.7810
" />
<path d="M213.7641 50.7810
L213.7641 51.3048
" />
<path d="M213.2879 51.3048
L213.2879 50.6382
" />
<path d="M213.2879 50.7334
L213.2403 50.6858
" />
<path d="M213.2403 50.6858
L213.1451 50.6382
" />
<path d="M213.1451 50.6382
L213.0022 50.6382
" />
<path d="M213.0022 50.6382
L212.9070 50.6858
" />
<path d="M212.9070 50.6858
L212.8593 50.7810
" />
<path d="M212.8593 50.7810
L212.8593 51.3048
" />
<path d="M212.8593 50.7810
L212.8117 50.6858
" />
<path d="M212.8117 50.6858
L212.7165 50.6382
" />
<path d="M212.7165 50.6382
L212.5736 50.6382
" />
<path d="M212.5736 50.6382
L212.4784 50.6858
" />
<path d="M212.4784 50.6858
L212.4308 50.7810
" />
<path d="M212.4308 50.7810
L212.4308 51.3048
" />
</g><path d="M229.5022 48.5000
L229.5022 52.5864
" />
<path d="M204.5022 48.5000
L204.5022 52.5864
" />
<path d="M229.5022 52.0000
L204.5022 52.0000
" />
<path d="M229.5022 52.0000
L204.5022 52.0000
" />
<path d="M229.5022 52.0000
L228.3757 51.4136
" />
<path d="M229.5022 52.0000
L228.3757 52.5864
" />
<path d="M204.5022 52.0000
L205.6287 52.5864
" />
<path d="M204.5022 52.0000
L205.6287 51.4136
" />
<text x="192.0022" y="16.8500"
textLength="5.5833" font-size="1.3333" lengthAdjust="spacingAndGlyphs"
text-anchor="middle" opacity="0">50 mm</text>
<g class="stroked-text"><desc>50 mm</desc>
<path d="M193.9546 15.8048
L194.4308 15.8048
" />
<path d="M194.4308 15.8048
L194.4784 16.2810
" />
<path d="M194.4784 16.2810
L194.4308 16.2334
" />
<path d="M194.4308 16.2334
L194.3355 16.1858
" />
<path d="M194.3355 16.1858
L194.0974 16.1858
" />
<path d="M194.0974 16.1858
L194.0022 16.2334
" />
<path d="M194.0022 16.2334
L193.9546 16.2810
" />
<path d="M193.9546 16.2810
L193.9070 16.3762
" />
<path d="M193.9070 16.3762
L193.9070 16.6143
" />
<path d="M193.9070 16.6143
L193.9546 16.7096
" />
<path d="M193.9546 16.7096
L194.0022 16.7572
" />
<path d="M194.0022 16.7572
L194.0974 16.8048
" />
<path d="M194.0974 16.8048
L194.3355 16.8048
" />
<path d="M194.3355 16.8048
L194.4308 16.7572
" />
<path d="M194.4308 16.7572
L194.4784 16.7096
" />
<path d="M193.2879 15.8048
L193.1927 15.8048
" />
<path d="M193.1927 15.8048
L193.0974 15.8524
" />
<path d="M193.0974 15.8524
L193.0498 15.9001
" />
<path d="M193.0498 15.9001
L193.0022 15.9953
" />
<path d="M193.0022 15.9953
L192.9546 16.1858
" />
<path d="M192.9546 16.1858
L192.9546 16.4239
" />
<path d="M192.9546 16.4239
L193.0022 16.6143
" />
<path d="M193.0022 16.6143
L193.0498 16.7096
" />
<path d="M193.0498 16.7096
L193.0974 16.7572
" />
<path d="M193.0974 16.7572
L193.1927 16.8048
" />
<path d="M193.1927 16.8048
L193.2879 16.8048
" />
<path d="M193.2879 16.8048
L193.3832 16.7572
" />
<path d="M193.3832 16.7572
L193.4308 16.7096
" />
<path d="M193.4308 16.7096
L193.4784 16.6143
" />
<path d="M193.4784 16.6143
L193.5260 16.4239
" />
<path d="M193.5260 16.4239
L193.5260 16.1858
" />
<path d="M193.5260 16.1858
L193.4784 15.9953
" />
<path d="M193.4784 15.9953
L193.4308 15.9001
" />
<path d="M193.4308 15.9001
L193.3832 15.8524
" />
<path d="M193.3832 15.8524
L193.2879 15.8048
" />
<path d="M191.7641 16.8048
L191.7641 16.1382
" />
<path d="M191.7641 16.2334
L191.7165 16.1858
" />
<path d="M191.7165 16.1858
L191.6212 16.1382
" />
<path d="M191.6212 16.1382
L191.4784 16.1382
" />
<path d="M191.4784 16.1382
L191.3832 16.1858
" />
<path d="M191.3832 16.1858
L191.3355 16.2810
" />
<path d="M191.3355 16.2810
L191.3355 16.8048
" />
<path d="M191.3355 16.2810
L191.2879 16.1858
" />
<path d="M191.2879 16.1858
L191.1927 16.1382
" />
<path d="M191.1927 16.1382
L191.0498 16.1382
" />
<path d="M191.0498 16.1382
L190.9546 16.1858
" />
<path d="M190.9546 16.1858
L190.9070 16.2810
" />
<path d="M190.9070 16.2810
L190.9070 16.8048
" />
<path d="M190.4308 16.8048
L190.4308 16.1382
" />
<path d="M190.4308 16.2334
L190.3832 16.1858
" />
<path d="M190.3832 16.1858
L190.2879 16.1382
" />
<path d="M190.2879 16.1382
L190.1451 16.1382
" />
<path d="M190.1451 16.1382
L190.0498 16.1858
" />
<path d="M190.0498 16.1858
L190.0022 16.2810
" />
<path d="M190.0022 16.2810
L190.0022 16.8048
" />
<path d="M190.0022 16.2810
L189.9546 16.1858
" />
<path d="M189.9546 16.1858
L189.8593 16.1382
" />
<path d="M189.8593 16.1382
L189.7165 16.1382
" />
<path d="M189.7165 16.1382
L189.6212 16.1858
" />
<path d="M189.6212 16.1858
L189.5736 16.2810
" />
<path d="M189.5736 16.2810
L189.5736 16.8048
" />
</g><path d="M217.0022 19.4944
L217.0022 16.9136
" />
<path d="M167.0022 19.4944
L167.0022 16.9136
" />
<path d="M217.0022 17.5000
L167.0022 17.5000
" />
<path d="M217.0022 17.5000
L167.0022 17.5000
" />
<path d="M217.0022 17.5000
L215.8757 16.9136
" />
<path d="M217.0022 17.5000
L215.8757 18.0864
" />
<path d="M167.0022 17.5000
L168.1287 18.0864
" />
<path d="M167.0022 17.5000
L168.1287 16.9136
" />
<text x="192.0022" y="147.1500"
textLength="8.9167" font-size="1.3333" lengthAdjust="spacingAndGlyphs"
text-anchor="middle" opacity="0">180.84 mm</text>
<g class="stroked-text"><desc>180.84 mm</desc>
<path d="M195.5736 147.1048
L196.1451 147.1048
" />
<path d="M195.8593 147.1048
L195.8593 146.1048
" />
<path d="M195.8593 146.1048
L195.9546 146.2477
" />
<path d="M195.9546 146.2477
L196.0498 146.3429
" />
<path d="M196.0498 146.3429
L196.1451 146.3905
" />
<path d="M195.0022 146.5334
L195.0974 146.4858
" />
<path d="M195.0974 146.4858
L195.1451 146.4382
" />
<path d="M195.1451 146.4382
L195.1927 146.3429
" />
<path d="M195.1927 146.3429
L195.1927 146.2953
" />
<path d="M195.1927 146.2953
L195.1451 146.2001
" />
<path d="M195.1451 146.2001
L195.0974 146.1524
" />
<path d="M195.0974 146.1524
L195.0022 146.1048
" />
<path d="M195.0022 146.1048
L194.8117 146.1048
" />
<path d="M194.8117 146.1048
L194.7165 146.1524
" />
<path d="M194.7165 146.1524
L194.6689 146.2001
" />
<path d="M194.6689 146.2001
L194.6212 146.2953
" />
<path d="M194.6212 146.2953
L194.6212 146.3429
" />
<path d="M194.6212 146.3429
L194.6689 146.4382
" />
<path d="M194.6689 146.4382
L194.7165 146.4858
" />
<path d="M194.7165 146.4858
L194.8117 146.5334
" />
<path d="M194.8117 146.5334
L195.0022 146.5334
" />
<path d="M195.0022 146.5334
L195.0974 146.5810
" />
<path d="M195.0974 146.5810
L195.1451 146.6286
" />
<path d="M195.1451 146.6286
L195.1927 146.7239
" />
<path d="M195.1927 146.7239
L195.1927 146.9143
" />
<path d="M195.1927 146.9143
L195.1451 147.0096
" />
<path d="M195.1451 147.0096
L195.0974 147.0572
" />
<path d="M195.0974 147.0572
L195.0022 147.1048
" />
<path d="M195.0022 147.1048
L194.8117 147.1048
" />
<path d="M194.8117 147.1048
L194.7165 147.0572
" />
<path d="M194.7165 147.0572
L194.6689 147.0096
" />
<path d="M194.6689 147.0096
L194.6212 146.9143
" />
<path d="M194.6212 146.9143
L194.6212 146.7239
" />
<path d="M194.6212 146.7239
L194.6689 146.6286
" />
<path d="M194.6689 146.6286
L194.7165 146.5810
" />
<path d="M194.7165 146.5810
L194.8117 146.5334
" />
<path d="M194.0022 146.1048
L193.9070 146.1048
" />
<path d="M193.9070 146.1048
L193.8117 146.1524
" />
<path d="M193.8117 146.1524
L193.7641 146.2001
" />
<path d="M193.7641 146.2001
L193.7165 146.2953
" />
<path d="M193.7165 146.2953
L193.6689 146.4858
" />
<path d="M193.6689 146.4858
L193.6689 146.7239
" />
<path d="M193.6689 146.7239
L193.7165 146.9143
" />
<path d="M193.7165 146.9143
L193.7641 147.0096
" />
<path d="M193.7641 147.0096
L193.8117 147.0572
" />
<path d="M193.8117 147.0572
L193.9070 147.1048
" />
<path d="M193.9070 147.1048
L194.0022 147.1048
" />
<path d="M194.0022 147.1048
L194.0974 147.0572
" />
<path d="M194.0974 147.0572
L194.1451 147.0096
" />
<path d="M194.1451 147.0096
L194.1927 146.9143
" />
<path d="M194.1927 146.9143
L194.2403 146.7239
" />
<path d="M194.2403 146.7239
L194.2403 146.4858
" />
<path d="M194.2403 146.4858
L194.1927 146.2953
" />
<path d="M194.1927 146.2953
L194.1451 146.2001
" />
<path d="M194.1451 146.2001
L194.0974 146.1524
" />
<path d="M194.0974 146.1524
L194.0022 146.1048
" />
<path d="M193.2403 147.0096
L193.1927 147.0572
" />
<path d="M193.1927 147.0572
L193.2403 147.1048
" />
<path d="M193.2403 147.1048
L193.2879 147.0572
" />
<path d="M193.2879 147.0572
L193.2403 147.0096
" />
<path d="M193.2403 147.0096
L193.2403 147.1048
" />
<path d="M192.6212 146.5334
L192.7165 146.4858
" />
<path d="M192.7165 146.4858
L192.7641 146.4382
" />
<path d="M192.7641 146.4382
L192.8117 146.3429
" />
<path d="M192.8117 146.3429
L192.8117 146.2953
" />
<path d="M192.8117 146.2953
L192.7641 146.2001
" />
<path d="M192.7641 146.2001
L192.7165 146.1524
" />
<path d="M192.7165 146.1524
L192.6212 146.1048
" />
<path d="M192.6212 146.1048
L192.4308 146.1048
" />
<path d="M192.4308 146.1048
L192.3355 146.1524
" />
<path d="M192.3355 146.1524
L192.2879 146.2001
" />
<path d="M192.2879 146.2001
L192.2403 146.2953
" />
<path d="M192.2403 146.2953
L192.2403 146.3429
" />
<path d="M192.2403 146.3429
L192.2879 146.4382
" />
<path d="M192.2879 146.4382
L192.3355 146.4858
" />
<path d="M192.3355 146.4858
L192.4308 146.5334
" />
<path d="M192.4308 146.5334
L192.6212 146.5334
" />
<path d="M192.6212 146.5334
L192.7165 146.5810
" />
<path d="M192.7165 146.5810
L192.7641 146.6286
" />
<path d="M192.7641 146.6286
L192.8117 146.7239
" />
<path d="M192.8117 146.7239
L192.8117 146.9143
" />
<path d="M192.8117 146.9143
L192.7641 147.0096
" />
<path d="M192.7641 147.0096
L192.7165 147.0572
" />
<path d="M192.7165 147.0572
L192.6212 147.1048
" />
<path d="M192.6212 147.1048
L192.4308 147.1048
" />
<path d="M192.4308 147.1048
L192.3355 147.0572
" />
<path d="M192.3355 147.0572
L192.2879 147.0096
" />
<path d="M192.2879 147.0096
L192.2403 146.9143
" />
<path d="M192.2403 146.9143
L192.2403 146.7239
" />
<path d="M192.2403 146.7239
L192.2879 146.6286
" />
<path d="M192.2879 146.6286
L192.3355 146.5810
" />
<path d="M192.3355 146.5810
L192.4308 146.5334
" />
<path d="M191.3832 146.4382
L191.3832 147.1048
" />
<path d="M191.6212 146.0572
L191.8593 146.7715
" />
<path d="M191.8593 146.7715
L191.2403 146.7715
" />
<path d="M190.0974 147.1048
L190.0974 146.4382
" />
<path d="M190.0974 146.5334
L190.0498 146.4858
" />
<path d="M190.0498 146.4858
L189.9546 146.4382
" />
<path d="M189.9546 146.4382
L189.8117 146.4382
" />
<path d="M189.8117 146.4382
L189.7165 146.4858
" />
<path d="M189.7165 146.4858
L189.6689 146.5810
" />
<path d="M189.6689 146.5810
L189.6689 147.1048
" />
<path d="M189.6689 146.5810
L189.6212 146.4858
" />
<path d="M189.6212 146.4858
L189.5260 146.4382
" />
<path d="M189.5260 146.4382
L189.3832 146.4382
" />
<path d="M189.3832 146.4382
L189.2879 146.4858
" />
<path d="M189.2879 146.4858
L189.2403 146.5810
" />
<path d="M189.2403 146.5810
L189.2403 147.1048
" />
<path d="M188.7641 147.1048
L188.7641 146.4382
" />
<path d="M188.7641 146.5334
L188.7165 146.4858
" />
<path d="M188.7165 146.4858
L188.6212 146.4382
" />
<path d="M188.6212 146.4382
L188.4784 146.4382
" />
<path d="M188.4784 146.4382
L188.3832 146.4858
" />
<path d="M188.3832 146.4858
L188.3355 146.5810
" />
<path d="M188.3355 146.5810
L188.3355 147.1048
" />
<path d="M188.3355 146.5810
L188.2879 146.4858
" />
<path d="M188.2879 146.4858
L188.1927 146.4382
" />
<path d="M188.1927 146.4382
L188.0498 146.4382
" />
<path d="M188.0498 146.4382
L187.9546 146.4858
" />
<path d="M187.9546 146.4858
L187.9070 146.5810
" />
<path d="M187.9070 146.5810
L187.9070 147.1048
" />
</g></g>
<g style="fill:#000000; fill-opacity:0.0; 
stroke:#000000; stroke-width:0.1000; stroke-opacity:1; 
stroke-linecap:round; stroke-linejoin:round;">
<path d="M101.5822 106.1100
L101.5822 148.3864
" />
<path d="M282.4222 106.1100
L282.4222 148.3864
" />
<path d="M101.5822 147.8000
L282.4222 147.8000
" />
<path d="M101.5822 147.8000
L282.4222 147.8000
" />
<path d="M101.5822 147.8000
L102.7087 148.3864
" />
<path d="M101.5822 147.8000
L102.7087 147.2136
" />
<path d="M282.4222 147.8000
L281.2957 147.2136
" />
<path d="M282.4222 147.8000
L281.2957 148.3864
" />
</g>
<g style="fill:#000000; fill-opacity:0.0; 
stroke:#000000; stroke-width:0.1500; stroke-opacity:1; 
stroke-linecap:round; stroke-linejoin:round;">
<g transform="rotate(-90.000000 99.1522 93.0000)">
<text x="99.1522" y="93.5000"
textLength="5.5833" font-size="1.3333" lengthAdjust="spacingAndGlyphs"
text-anchor="middle" opacity="0">52 mm</text>
</g>
<g class="stroked-text"><desc>52 mm</desc>
<path d="M99.6974 94.9524
L99.6974 95.4286
" />
<path d="M99.6974 95.4286
L99.2212 95.4762
" />
<path d="M99.2212 95.4762
L99.2688 95.4286
" />
<path d="M99.2688 95.4286
L99.3164 95.3333
" />
<path d="M99.3164 95.3333
L99.3164 95.0952
" />
<path d="M99.3164 95.0952
L99.2688 95.0000
" />
<path d="M99.2688 95.0000
L99.2212 94.9524
" />
<path d="M99.2212 94.9524
L99.1260 94.9048
" />
<path d="M99.1260 94.9048
L98.8879 94.9048
" />
<path d="M98.8879 94.9048
L98.7926 94.9524
" />
<path d="M98.7926 94.9524
L98.7450 95.0000
" />
<path d="M98.7450 95.0000
L98.6974 95.0952
" />
<path d="M98.6974 95.0952
L98.6974 95.3333
" />
<path d="M98.6974 95.3333
L98.7450 95.4286
" />
<path d="M98.7450 95.4286
L98.7926 95.4762
" />
<path d="M99.6021 94.5238
L99.6498 94.4762
" />
<path d="M99.6498 94.4762
L99.6974 94.3810
" />
<path d="M99.6974 94.3810
L99.6974 94.1429
" />
<path d="M99.6974 94.1429
L99.6498 94.0476
" />
<path d="M99.6498 94.0476
L99.6021 94.0000
" />
<path d="M99.6021 94.0000
L99.5069 93.9524
" />
<path d="M99.5069 93.9524
L99.4117 93.9524
" />
<path d="M99.4117 93.9524
L99.2688 94.0000
" />
<path d="M99.2688 94.0000
L98.6974 94.5714
" />
<path d="M98.6974 94.5714
L98.6974 93.9524
" />
<path d="M98.6974 92.7619
L99.3640 92.7619
" />
<path d="M99.2688 92.7619
L99.3164 92.7143
" />
<path d="M99.3164 92.7143
L99.3640 92.6190
" />
<path d="M99.3640 92.6190
L99.3640 92.4762
" />
<path d="M99.3640 92.4762
L99.3164 92.3810
" />
<path d="M99.3164 92.3810
L99.2212 92.3333
" />
<path d="M99.2212 92.3333
L98.6974 92.3333
" />
<path d="M99.2212 92.3333
L99.3164 92.2857
" />
<path d="M99.3164 92.2857
L99.3640 92.1905
" />
<path d="M99.3640 92.1905
L99.3640 92.0476
" />
<path d="M99.3640 92.0476
L99.3164 91.9524
" />
<path d="M99.3164 91.9524
L99.2212 91.9048
" />
<path d="M99.2212 91.9048
L98.6974 91.9048
" />
<path d="M98.6974 91.4286
L99.3640 91.4286
" />
<path d="M99.2688 91.4286
L99.3164 91.3810
" />
<path d="M99.3164 91.3810
L99.3640 91.2857
" />
<path d="M99.3640 91.2857
L99.3640 91.1429
" />
<path d="M99.3640 91.1429
L99.3164 91.0476
" />
<path d="M99.3164 91.0476
L99.2212 91.0000
" />
<path d="M99.2212 91.0000
L98.6974 91.0000
" />
<path d="M99.2212 91.0000
L99.3164 90.9524
" />
<path d="M99.3164 90.9524
L99.3640 90.8571
" />
<path d="M99.3640 90.8571
L99.3640 90.7143
" />
<path d="M99.3640 90.7143
L99.3164 90.6190
" />
<path d="M99.3164 90.6190
L99.2212 90.5714
" />
<path d="M99.2212 90.5714
L98.6974 90.5714
" />
</g><path d="M116.5022 67.0000
L97.4158 67.0000
" />
<path d="M116.5022 119.0000
L97.4158 119.0000
" />
<path d="M98.0022 67.0000
L98.0022 119.0000
" />
<path d="M98.0022 67.0000
L98.0022 119.0000
" />
<path d="M98.0022 67.0000
L97.4158 68.1265
" />
<path d="M98.0022 67.0000
L98.5886 68.1265
" />
<path d="M98.0022 119.0000
L98.5886 117.8735
" />
<path d="M98.0022 119.0000
L97.4158 117.8735
" />
<g transform="rotate(-90.000000 96.9522 75.5000)">
<text x="96.9522" y="76.0000"
textLength="6.5357" font-size="1.3333" lengthAdjust="spacingAndGlyphs"
text-anchor="middle" opacity="0">111 mm</text>
</g>
<g class="stroked-text"><desc>111 mm</desc>
<path d="M96.4974 77.8810
L96.4974 78.4524
" />
<path d="M96.4974 78.1667
L97.4974 78.1667
" />
<path d="M97.4974 78.1667
L97.3545 78.2619
" />
<path d="M97.3545 78.2619
L97.2593 78.3571
" />
<path d="M97.2593 78.3571
L97.2117 78.4524
" />
<path d="M96.4974 76.9286
L96.4974 77.5000
" />
<path d="M96.4974 77.2143
L97.4974 77.2143
" />
<path d="M97.4974 77.2143
L97.3545 77.3095
" />
<path d="M97.3545 77.3095
L97.2593 77.4048
" />
<path d="M97.2593 77.4048
L97.2117 77.5000
" />
<path d="M96.4974 75.9762
L96.4974 76.5476
" />
<path d="M96.4974 76.2619
L97.4974 76.2619
" />
<path d="M97.4974 76.2619
L97.3545 76.3571
" />
<path d="M97.3545 76.3571
L97.2593 76.4524
" />
<path d="M97.2593 76.4524
L97.2117 76.5476
" />
<path d="M96.4974 74.7857
L97.1640 74.7857
" />
<path d="M97.0688 74.7857
L97.1164 74.7381
" />
<path d="M97.1164 74.7381
L97.1640 74.6429
" />
<path d="M97.1640 74.6429
L97.1640 74.5000
" />
<path d="M97.1640 74.5000
L97.1164 74.4048
" />
<path d="M97.1164 74.4048
L97.0212 74.3571
" />
<path d="M97.0212 74.3571
L96.4974 74.3571
" />
<path d="M97.0212 74.3571
L97.1164 74.3095
" />
<path d="M97.1164 74.3095
L97.1640 74.2143
" />
<path d="M97.1640 74.2143
L97.1640 74.0714
" />
<path d="M97.1640 74.0714
L97.1164 73.9762
" />
<path d="M97.1164 73.9762
L97.0212 73.9286
" />
<path d="M97.0212 73.9286
L96.4974 73.9286
" />
<path d="M96.4974 73.4524
L97.1640 73.4524
" />
<path d="M97.0688 73.4524
L97.1164 73.4048
" />
<path d="M97.1164 73.4048
L97.1640 73.3095
" />
<path d="M97.1640 73.3095
L97.1640 73.1667
" />
<path d="M97.1640 73.1667
L97.1164 73.0714
" />
<path d="M97.1164 73.0714
L97.0212 73.0238
" />
<path d="M97.0212 73.0238
L96.4974 73.0238
" />
<path d="M97.0212 73.0238
L97.1164 72.9762
" />
<path d="M97.1164 72.9762
L97.1640 72.8810
" />
<path d="M97.1640 72.8810
L97.1640 72.7381
" />
<path d="M97.1640 72.7381
L97.1164 72.6429
" />
<path d="M97.1164 72.6429
L97.0212 72.5952
" />
<path d="M97.0212 72.5952
L96.4974 72.5952
" />
</g><path d="M109.5022 20.0000
L95.2158 20.0000
" />
<path d="M109.5022 131.0000
L95.2158 131.0000
" />
<path d="M95.8022 20.0000
L95.8022 131.0000
" />
<path d="M95.8022 20.0000
L95.8022 131.0000
" />
<path d="M95.8022 20.0000
L95.2158 21.1265
" />
<path d="M95.8022 20.0000
L96.3886 21.1265
" />
<path d="M95.8022 131.0000
L96.3886 129.8735
" />
<path d="M95.8022 131.0000
L95.2158 129.8735
" />
<text x="192.0022" y="144.4000"
textLength="6.5357" font-size="1.3333" lengthAdjust="spacingAndGlyphs"
text-anchor="middle" opacity="0">174 mm</text>
<g class="stroked-text"><desc>174 mm</desc>
<path d="M194.3832 144.3548
L194.9546 144.3548
" />
<path d="M194.6689 144.3548
L194.6689 143.3548
" />
<path d="M194.6689 143.3548
L194.7641 143.4977
" />
<path d="M194.7641 143.4977
L194.8593 143.5929
" />
<path d="M194.8593 143.5929
L194.9546 143.6405
" />
<path d="M194.0498 143.3548
L193.3832 143.3548
" />
<path d="M193.3832 143.3548
L193.8117 144.3548
" />
<path d="M192.5736 143.6882
L192.5736 144.3548
" />
<path d="M192.8117 143.3072
L193.0498 144.0215
" />
<path d="M193.0498 144.0215
L192.4308 144.0215
" />
<path d="M191.2879 144.3548
L191.2879 143.6882
" />
<path d="M191.2879 143.7834
L191.2403 143.7358
" />
<path d="M191.2403 143.7358
L191.1451 143.6882
" />
<path d="M191.1451 143.6882
L191.0022 143.6882
" />
<path d="M191.0022 143.6882
L190.9070 143.7358
" />
<path d="M190.9070 143.7358
L190.8593 143.8310
" />
<path d="M190.8593 143.8310
L190.8593 144.3548
" />
<path d="M190.8593 143.8310
L190.8117 143.7358
" />
<path d="M190.8117 143.7358
L190.7165 143.6882
" />
<path d="M190.7165 143.6882
L190.5736 143.6882
" />
<path d="M190.5736 143.6882
L190.4784 143.7358
" />
<path d="M190.4784 143.7358
L190.4308 143.8310
" />
<path d="M190.4308 143.8310
L190.4308 144.3548
" />
<path d="M189.9546 144.3548
L189.9546 143.6882
" />
<path d="M189.9546 143.7834
L189.9070 143.7358
" />
<path d="M189.9070 143.7358
L189.8117 143.6882
" />
<path d="M189.8117 143.6882
L189.6689 143.6882
" />
<path d="M189.6689 143.6882
L189.5736 143.7358
" />
<path d="M189.5736 143.7358
L189.5260 143.8310
" />
<path d="M189.5260 143.8310
L189.5260 144.3548
" />
<path d="M189.5260 143.8310
L189.4784 143.7358
" />
<path d="M189.4784 143.7358
L189.3832 143.6882
" />
<path d="M189.3832 143.6882
L189.2403 143.6882
" />
<path d="M189.2403 143.6882
L189.1451 143.7358
" />
<path d="M189.1451 143.7358
L189.0974 143.8310
" />
<path d="M189.0974 143.8310
L189.0974 144.3548
" />
</g><path d="M279.0022 125.5000
L279.0022 145.6364
" />
<path d="M105.0022 125.5000
L105.0022 145.6364
" />
<path d="M279.0022 145.0500
L105.0022 145.0500
" />
<path d="M279.0022 145.0500
L105.0022 145.0500
" />
<path d="M279.0022 145.0500
L277.8757 144.4636
" />
<path d="M279.0022 145.0500
L277.8757 145.6364
" />
<path d="M105.0022 145.0500
L106.1287 145.6364
" />
<path d="M105.0022 145.0500
L106.1287 144.4636
" />
<g transform="rotate(-359.954527 191.9945 13.4000)">
<text x="191.9945" y="13.9000"
textLength="6.5357" font-size="1.3333" lengthAdjust="spacingAndGlyphs"
text-anchor="middle" opacity="0">126 mm</text>
</g>
<g class="stroked-text"><desc>126 mm</desc>
<path d="M194.3759 13.8529
L194.9473 13.8525
" />
<path d="M194.6616 13.8527
L194.6608 12.8527
" />
<path d="M194.6608 12.8527
L194.7561 12.9955
" />
<path d="M194.7561 12.9955
L194.8514 13.0906
" />
<path d="M194.8514 13.0906
L194.9467 13.1382
" />
<path d="M193.9942 12.9485
L193.9465 12.9009
" />
<path d="M193.9465 12.9009
L193.8513 12.8533
" />
<path d="M193.8513 12.8533
L193.6132 12.8535
" />
<path d="M193.6132 12.8535
L193.5180 12.9012
" />
<path d="M193.5180 12.9012
L193.4704 12.9489
" />
<path d="M193.4704 12.9489
L193.4228 13.0442
" />
<path d="M193.4228 13.0442
L193.4229 13.1394
" />
<path d="M193.4229 13.1394
L193.4706 13.2822
" />
<path d="M193.4706 13.2822
L194.0425 13.8532
" />
<path d="M194.0425 13.8532
L193.4235 13.8537
" />
<path d="M192.5655 12.8544
L192.7560 12.8542
" />
<path d="M192.7560 12.8542
L192.8513 12.9018
" />
<path d="M192.8513 12.9018
L192.8989 12.9493
" />
<path d="M192.8989 12.9493
L192.9943 13.0921
" />
<path d="M192.9943 13.0921
L193.0421 13.2826
" />
<path d="M193.0421 13.2826
L193.0424 13.6635
" />
<path d="M193.0424 13.6635
L192.9948 13.7588
" />
<path d="M192.9948 13.7588
L192.9472 13.8064
" />
<path d="M192.9472 13.8064
L192.8520 13.8541
" />
<path d="M192.8520 13.8541
L192.6616 13.8543
" />
<path d="M192.6616 13.8543
L192.5663 13.8067
" />
<path d="M192.5663 13.8067
L192.5186 13.7592
" />
<path d="M192.5186 13.7592
L192.4709 13.6640
" />
<path d="M192.4709 13.6640
L192.4708 13.4259
" />
<path d="M192.4708 13.4259
L192.5183 13.3306
" />
<path d="M192.5183 13.3306
L192.5659 13.2829
" />
<path d="M192.5659 13.2829
L192.6611 13.2352
" />
<path d="M192.6611 13.2352
L192.8516 13.2351
" />
<path d="M192.8516 13.2351
L192.9468 13.2826
" />
<path d="M192.9468 13.2826
L192.9945 13.3302
" />
<path d="M192.9945 13.3302
L193.0422 13.4254
" />
<path d="M191.2806 13.8554
L191.2801 13.1887
" />
<path d="M191.2802 13.2840
L191.2325 13.2364
" />
<path d="M191.2325 13.2364
L191.1372 13.1888
" />
<path d="M191.1372 13.1888
L190.9944 13.1889
" />
<path d="M190.9944 13.1889
L190.8992 13.2366
" />
<path d="M190.8992 13.2366
L190.8516 13.3319
" />
<path d="M190.8516 13.3319
L190.8520 13.8557
" />
<path d="M190.8516 13.3319
L190.8039 13.2367
" />
<path d="M190.8039 13.2367
L190.7087 13.1892
" />
<path d="M190.7087 13.1892
L190.5658 13.1893
" />
<path d="M190.5658 13.1893
L190.4706 13.2370
" />
<path d="M190.4706 13.2370
L190.4231 13.3323
" />
<path d="M190.4231 13.3323
L190.4235 13.8561
" />
<path d="M189.9473 13.8564
L189.9468 13.1898
" />
<path d="M189.9468 13.2850
L189.8992 13.2374
" />
<path d="M189.8992 13.2374
L189.8039 13.1899
" />
<path d="M189.8039 13.1899
L189.6610 13.1900
" />
<path d="M189.6610 13.1900
L189.5658 13.2377
" />
<path d="M189.5658 13.2377
L189.5183 13.3330
" />
<path d="M189.5183 13.3330
L189.5187 13.8568
" />
<path d="M189.5183 13.3330
L189.4706 13.2378
" />
<path d="M189.4706 13.2378
L189.3753 13.1902
" />
<path d="M189.3753 13.1902
L189.2325 13.1903
" />
<path d="M189.2325 13.1903
L189.1373 13.2380
" />
<path d="M189.1373 13.2380
L189.0897 13.3333
" />
<path d="M189.0897 13.3333
L189.0901 13.8571
" />
</g><path d="M255.0018 22.5000
L254.9950 13.9136
" />
<path d="M129.0018 22.6000
L128.9950 14.0136
" />
<path d="M254.9955 14.5000
L128.9955 14.6000
" />
<path d="M254.9955 14.5000
L128.9955 14.6000
" />
<path d="M254.9955 14.5000
L253.8685 13.9145
" />
<path d="M254.9955 14.5000
L253.8694 15.0873
" />
<path d="M128.9955 14.6000
L130.1224 15.1855
" />
<path d="M128.9955 14.6000
L130.1215 14.0127
" />
<g transform="rotate(-90.000000 99.1522 41.0000)">
<text x="99.1522" y="41.5000"
textLength="5.5833" font-size="1.3333" lengthAdjust="spacingAndGlyphs"
text-anchor="middle" opacity="0">14 mm</text>
</g>
<g class="stroked-text"><desc>14 mm</desc>
<path d="M98.6974 42.9048
L98.6974 43.4762
" />
<path d="M98.6974 43.1905
L99.6974 43.1905
" />
<path d="M99.6974 43.1905
L99.5545 43.2857
" />
<path d="M99.5545 43.2857
L99.4593 43.3810
" />
<path d="M99.4593 43.3810
L99.4117 43.4762
" />
<path d="M99.3640 42.0476
L98.6974 42.0476
" />
<path d="M99.7450 42.2857
L99.0307 42.5238
" />
<path d="M99.0307 42.5238
L99.0307 41.9048
" />
<path d="M98.6974 40.7619
L99.3640 40.7619
" />
<path d="M99.2688 40.7619
L99.3164 40.7143
" />
<path d="M99.3164 40.7143
L99.3640 40.6190
" />
<path d="M99.3640 40.6190
L99.3640 40.4762
" />
<path d="M99.3640 40.4762
L99.3164 40.3810
" />
<path d="M99.3164 40.3810
L99.2212 40.3333
" />
<path d="M99.2212 40.3333
L98.6974 40.3333
" />
<path d="M99.2212 40.3333
L99.3164 40.2857
" />
<path d="M99.3164 40.2857
L99.3640 40.1905
" />
<path d="M99.3640 40.1905
L99.3640 40.0476
" />
<path d="M99.3640 40.0476
L99.3164 39.9524
" />
<path d="M99.3164 39.9524
L99.2212 39.9048
" />
<path d="M99.2212 39.9048
L98.6974 39.9048
" />
<path d="M98.6974 39.4286
L99.3640 39.4286
" />
<path d="M99.2688 39.4286
L99.3164 39.3810
" />
<path d="M99.3164 39.3810
L99.3640 39.2857
" />
<path d="M99.3640 39.2857
L99.3640 39.1429
" />
<path d="M99.3640 39.1429
L99.3164 39.0476
" />
<path d="M99.3164 39.0476
L99.2212 39.0000
" />
<path d="M99.2212 39.0000
L98.6974 39.0000
" />
<path d="M99.2212 39.0000
L99.3164 38.9524
" />
<path d="M99.3164 38.9524
L99.3640 38.8571
" />
<path d="M99.3640 38.8571
L99.3640 38.7143
" />
<path d="M99.3640 38.7143
L99.3164 38.6190
" />
<path d="M99.3164 38.6190
L99.2212 38.5714
" />
<path d="M99.2212 38.5714
L98.6974 38.5714
" />
</g><path d="M154.0022 48.0000
L97.4158 48.0000
" />
<path d="M154.0022 34.0000
L97.4158 34.0000
" />
<path d="M98.0022 48.0000
L98.0022 34.0000
" />
<path d="M98.0022 48.0000
L98.0022 34.0000
" />
<path d="M98.0022 48.0000
L98.5886 46.8735
" />
<path d="M98.0022 48.0000
L97.4158 46.8735
" />
<path d="M98.0022 34.0000
L97.4158 35.1265
" />
<path d="M98.0022 34.0000
L98.5886 35.1265
" />
<g transform="rotate(-180.000000 177.0022 20.8500)">
<text x="177.0022" y="21.3500"
textLength="7.5357" font-size="1.3333" lengthAdjust="spacingAndGlyphs"
text-anchor="middle" opacity="0">PCB edge</text>
</g>
<g class="stroked-text"><desc>PCB edge</desc>
<path d="M173.5974 20.3952
L173.5974 21.3952
" />
<path d="M173.5974 21.3952
L173.9784 21.3952
" />
<path d="M173.9784 21.3952
L174.0736 21.3476
" />
<path d="M174.0736 21.3476
L174.1212 21.2999
" />
<path d="M174.1212 21.2999
L174.1689 21.2047
" />
<path d="M174.1689 21.2047
L174.1689 21.0618
" />
<path d="M174.1689 21.0618
L174.1212 20.9666
" />
<path d="M174.1212 20.9666
L174.0736 20.9190
" />
<path d="M174.0736 20.9190
L173.9784 20.8714
" />
<path d="M173.9784 20.8714
L173.5974 20.8714
" />
<path d="M175.1689 20.4904
L175.1212 20.4428
" />
<path d="M175.1212 20.4428
L174.9784 20.3952
" />
<path d="M174.9784 20.3952
L174.8832 20.3952
" />
<path d="M174.8832 20.3952
L174.7403 20.4428
" />
<path d="M174.7403 20.4428
L174.6451 20.5380
" />
<path d="M174.6451 20.5380
L174.5974 20.6333
" />
<path d="M174.5974 20.6333
L174.5498 20.8238
" />
<path d="M174.5498 20.8238
L174.5498 20.9666
" />
<path d="M174.5498 20.9666
L174.5974 21.1571
" />
<path d="M174.5974 21.1571
L174.6451 21.2523
" />
<path d="M174.6451 21.2523
L174.7403 21.3476
" />
<path d="M174.7403 21.3476
L174.8832 21.3952
" />
<path d="M174.8832 21.3952
L174.9784 21.3952
" />
<path d="M174.9784 21.3952
L175.1212 21.3476
" />
<path d="M175.1212 21.3476
L175.1689 21.2999
" />
<path d="M175.9308 20.9190
L176.0736 20.8714
" />
<path d="M176.0736 20.8714
L176.1212 20.8238
" />
<path d="M176.1212 20.8238
L176.1689 20.7285
" />
<path d="M176.1689 20.7285
L176.1689 20.5857
" />
<path d="M176.1689 20.5857
L176.1212 20.4904
" />
<path d="M176.1212 20.4904
L176.0736 20.4428
" />
<path d="M176.0736 20.4428
L175.9784 20.3952
" />
<path d="M175.9784 20.3952
L175.5974 20.3952
" />
<path d="M175.5974 20.3952
L175.5974 21.3952
" />
<path d="M175.5974 21.3952
L175.9308 21.3952
" />
<path d="M175.9308 21.3952
L176.0260 21.3476
" />
<path d="M176.0260 21.3476
L176.0736 21.2999
" />
<path d="M176.0736 21.2999
L176.1212 21.2047
" />
<path d="M176.1212 21.2047
L176.1212 21.1095
" />
<path d="M176.1212 21.1095
L176.0736 21.0142
" />
<path d="M176.0736 21.0142
L176.0260 20.9666
" />
<path d="M176.0260 20.9666
L175.9308 20.9190
" />
<path d="M175.9308 20.9190
L175.5974 20.9190
" />
<path d="M177.7403 20.4428
L177.6451 20.3952
" />
<path d="M177.6451 20.3952
L177.4546 20.3952
" />
<path d="M177.4546 20.3952
L177.3593 20.4428
" />
<path d="M177.3593 20.4428
L177.3117 20.5380
" />
<path d="M177.3117 20.5380
L177.3117 20.9190
" />
<path d="M177.3117 20.9190
L177.3593 21.0142
" />
<path d="M177.3593 21.0142
L177.4546 21.0618
" />
<path d="M177.4546 21.0618
L177.6451 21.0618
" />
<path d="M177.6451 21.0618
L177.7403 21.0142
" />
<path d="M177.7403 21.0142
L177.7879 20.9190
" />
<path d="M177.7879 20.9190
L177.7879 20.8238
" />
<path d="M177.7879 20.8238
L177.3117 20.7285
" />
<path d="M178.6451 20.3952
L178.6451 21.3952
" />
<path d="M178.6451 20.4428
L178.5498 20.3952
" />
<path d="M178.5498 20.3952
L178.3593 20.3952
" />
<path d="M178.3593 20.3952
L178.2641 20.4428
" />
<path d="M178.2641 20.4428
L178.2165 20.4904
" />
<path d="M178.2165 20.4904
L178.1689 20.5857
" />
<path d="M178.1689 20.5857
L178.1689 20.8714
" />
<path d="M178.1689 20.8714
L178.2165 20.9666
" />
<path d="M178.2165 20.9666
L178.2641 21.0142
" />
<path d="M178.2641 21.0142
L178.3593 21.0618
" />
<path d="M178.3593 21.0618
L178.5498 21.0618
" />
<path d="M178.5498 21.0618
L178.6451 21.0142
" />
<path d="M179.5498 21.0618
L179.5498 20.2523
" />
<path d="M179.5498 20.2523
L179.5022 20.1571
" />
<path d="M179.5022 20.1571
L179.4546 20.1095
" />
<path d="M179.4546 20.1095
L179.3593 20.0618
" />
<path d="M179.3593 20.0618
L179.2165 20.0618
" />
<path d="M179.2165 20.0618
L179.1212 20.1095
" />
<path d="M179.5498 20.4428
L179.4546 20.3952
" />
<path d="M179.4546 20.3952
L179.2641 20.3952
" />
<path d="M179.2641 20.3952
L179.1689 20.4428
" />
<path d="M179.1689 20.4428
L179.1212 20.4904
" />
<path d="M179.1212 20.4904
L179.0736 20.5857
" />
<path d="M179.0736 20.5857
L179.0736 20.8714
" />
<path d="M179.0736 20.8714
L179.1212 20.9666
" />
<path d="M179.1212 20.9666
L179.1689 21.0142
" />
<path d="M179.1689 21.0142
L179.2641 21.0618
" />
<path d="M179.2641 21.0618
L179.4546 21.0618
" />
<path d="M179.4546 21.0618
L179.5498 21.0142
" />
<path d="M180.4070 20.4428
L180.3117 20.3952
" />
<path d="M180.3117 20.3952
L180.1212 20.3952
" />
<path d="M180.1212 20.3952
L180.0260 20.4428
" />
<path d="M180.0260 20.4428
L179.9784 20.5380
" />
<path d="M179.9784 20.5380
L179.9784 20.9190
" />
<path d="M179.9784 20.9190
L180.0260 21.0142
" />
<path d="M180.0260 21.0142
L180.1212 21.0618
" />
<path d="M180.1212 21.0618
L180.3117 21.0618
" />
<path d="M180.3117 21.0618
L180.4070 21.0142
" />
<path d="M180.4070 21.0142
L180.4546 20.9190
" />
<path d="M180.4546 20.9190
L180.4546 20.8238
" />
<path d="M180.4546 20.8238
L179.9784 20.7285
" />
</g><g transform="rotate(-180.000000 207.0077 20.8500)">
<text x="207.0077" y="21.3500"
textLength="7.5357" font-size="1.3333" lengthAdjust="spacingAndGlyphs"
text-anchor="middle" opacity="0">PCB edge</text>
</g>
<g class="stroked-text"><desc>PCB edge</desc>
<path d="M203.6029 20.3952
L203.6029 21.3952
" />
<path d="M203.6029 21.3952
L203.9839 21.3952
" />
<path d="M203.9839 21.3952
L204.0791 21.3476
" />
<path d="M204.0791 21.3476
L204.1267 21.2999
" />
<path d="M204.1267 21.2999
L204.1744 21.2047
" />
<path d="M204.1744 21.2047
L204.1744 21.0618
" />
<path d="M204.1744 21.0618
L204.1267 20.9666
" />
<path d="M204.1267 20.9666
L204.0791 20.9190
" />
<path d="M204.0791 20.9190
L203.9839 20.8714
" />
<path d="M203.9839 20.8714
L203.6029 20.8714
" />
<path d="M205.1744 20.4904
L205.1267 20.4428
" />
<path d="M205.1267 20.4428
L204.9839 20.3952
" />
<path d="M204.9839 20.3952
L204.8887 20.3952
" />
<path d="M204.8887 20.3952
L204.7458 20.4428
" />
<path d="M204.7458 20.4428
L204.6506 20.5380
" />
<path d="M204.6506 20.5380
L204.6029 20.6333
" />
<path d="M204.6029 20.6333
L204.5553 20.8238
" />
<path d="M204.5553 20.8238
L204.5553 20.9666
" />
<path d="M204.5553 20.9666
L204.6029 21.1571
" />
<path d="M204.6029 21.1571
L204.6506 21.2523
" />
<path d="M204.6506 21.2523
L204.7458 21.3476
" />
<path d="M204.7458 21.3476
L204.8887 21.3952
" />
<path d="M204.8887 21.3952
L204.9839 21.3952
" />
<path d="M204.9839 21.3952
L205.1267 21.3476
" />
<path d="M205.1267 21.3476
L205.1744 21.2999
" />
<path d="M205.9363 20.9190
L206.0791 20.8714
" />
<path d="M206.0791 20.8714
L206.1267 20.8238
" />
<path d="M206.1267 20.8238
L206.1744 20.7285
" />
<path d="M206.1744 20.7285
L206.1744 20.5857
" />
<path d="M206.1744 20.5857
L206.1267 20.4904
" />
<path d="M206.1267 20.4904
L206.0791 20.4428
" />
<path d="M206.0791 20.4428
L205.9839 20.3952
" />
<path d="M205.9839 20.3952
L205.6029 20.3952
" />
<path d="M205.6029 20.3952
L205.6029 21.3952
" />
<path d="M205.6029 21.3952
L205.9363 21.3952
" />
<path d="M205.9363 21.3952
L206.0315 21.3476
" />
<path d="M206.0315 21.3476
L206.0791 21.2999
" />
<path d="M206.0791 21.2999
L206.1267 21.2047
" />
<path d="M206.1267 21.2047
L206.1267 21.1095
" />
<path d="M206.1267 21.1095
L206.0791 21.0142
" />
<path d="M206.0791 21.0142
L206.0315 20.9666
" />
<path d="M206.0315 20.9666
L205.9363 20.9190
" />
<path d="M205.9363 20.9190
L205.6029 20.9190
" />
<path d="M207.7458 20.4428
L207.6506 20.3952
" />
<path d="M207.6506 20.3952
L207.4601 20.3952
" />
<path d="M207.4601 20.3952
L207.3648 20.4428
" />
<path d="M207.3648 20.4428
L207.3172 20.5380
" />
<path d="M207.3172 20.5380
L207.3172 20.9190
" />
<path d="M207.3172 20.9190
L207.3648 21.0142
" />
<path d="M207.3648 21.0142
L207.4601 21.0618
" />
<path d="M207.4601 21.0618
L207.6506 21.0618
" />
<path d="M207.6506 21.0618
L207.7458 21.0142
" />
<path d="M207.7458 21.0142
L207.7934 20.9190
" />
<path d="M207.7934 20.9190
L207.7934 20.8238
" />
<path d="M207.7934 20.8238
L207.3172 20.7285
" />
<path d="M208.6506 20.3952
L208.6506 21.3952
" />
<path d="M208.6506 20.4428
L208.5553 20.3952
" />
<path d="M208.5553 20.3952
L208.3648 20.3952
" />
<path d="M208.3648 20.3952
L208.2696 20.4428
" />
<path d="M208.2696 20.4428
L208.2220 20.4904
" />
<path d="M208.2220 20.4904
L208.1744 20.5857
" />
<path d="M208.1744 20.5857
L208.1744 20.8714
" />
<path d="M208.1744 20.8714
L208.2220 20.9666
" />
<path d="M208.2220 20.9666
L208.2696 21.0142
" />
<path d="M208.2696 21.0142
L208.3648 21.0618
" />
<path d="M208.3648 21.0618
L208.5553 21.0618
" />
<path d="M208.5553 21.0618
L208.6506 21.0142
" />
<path d="M209.5553 21.0618
L209.5553 20.2523
" />
<path d="M209.5553 20.2523
L209.5077 20.1571
" />
<path d="M209.5077 20.1571
L209.4601 20.1095
" />
<path d="M209.4601 20.1095
L209.3648 20.0618
" />
<path d="M209.3648 20.0618
L209.2220 20.0618
" />
<path d="M209.2220 20.0618
L209.1267 20.1095
" />
<path d="M209.5553 20.4428
L209.4601 20.3952
" />
<path d="M209.4601 20.3952
L209.2696 20.3952
" />
<path d="M209.2696 20.3952
L209.1744 20.4428
" />
<path d="M209.1744 20.4428
L209.1267 20.4904
" />
<path d="M209.1267 20.4904
L209.0791 20.5857
" />
<path d="M209.0791 20.5857
L209.0791 20.8714
" />
<path d="M209.0791 20.8714
L209.1267 20.9666
" />
<path d="M209.1267 20.9666
L209.1744 21.0142
" />
<path d="M209.1744 21.0142
L209.2696 21.0618
" />
<path d="M209.2696 21.0618
L209.4601 21.0618
" />
<path d="M209.4601 21.0618
L209.5553 21.0142
" />
<path d="M210.4125 20.4428
L210.3172 20.3952
" />
<path d="M210.3172 20.3952
L210.1267 20.3952
" />
<path d="M210.1267 20.3952
L210.0315 20.4428
" />
<path d="M210.0315 20.4428
L209.9839 20.5380
" />
<path d="M209.9839 20.5380
L209.9839 20.9190
" />
<path d="M209.9839 20.9190
L210.0315 21.0142
" />
<path d="M210.0315 21.0142
L210.1267 21.0618
" />
<path d="M210.1267 21.0618
L210.3172 21.0618
" />
<path d="M210.3172 21.0618
L210.4125 21.0142
" />
<path d="M210.4125 21.0142
L210.4601 20.9190
" />
<path d="M210.4601 20.9190
L210.4601 20.8238
" />
<path d="M210.4601 20.8238
L209.9839 20.7285
" />
</g></g>
<g style="fill:#000000; fill-opacity:0.0; 
stroke:#000000; stroke-width:0.1000; stroke-opacity:1; 
stroke-linecap:round; stroke-linejoin:round;">
<circle cx="178.0222" cy="92.5056" r="0.2540" /> 
</g>
<g style="fill:#000000; fill-opacity:0.0; 
stroke:#000000; stroke-width:0.1500; stroke-opacity:1; 
stroke-linecap:round; stroke-linejoin:round;">
<text x="126.0222" y="55.0056"
textLength="6.0595" font-size="1.3333" lengthAdjust="spacingAndGlyphs"
text-anchor="middle" opacity="0">3.5 mm</text>
<g class="stroked-text"><desc>3.5 mm</desc>
<path d="M128.7841 53.9604
L128.1651 53.9604
" />
<path d="M128.1651 53.9604
L128.4984 54.3414
" />
<path d="M128.4984 54.3414
L128.3555 54.3414
" />
<path d="M128.3555 54.3414
L128.2603 54.3890
" />
<path d="M128.2603 54.3890
L128.2127 54.4366
" />
<path d="M128.2127 54.4366
L128.1651 54.5318
" />
<path d="M128.1651 54.5318
L128.1651 54.7699
" />
<path d="M128.1651 54.7699
L128.2127 54.8652
" />
<path d="M128.2127 54.8652
L128.2603 54.9128
" />
<path d="M128.2603 54.9128
L128.3555 54.9604
" />
<path d="M128.3555 54.9604
L128.6412 54.9604
" />
<path d="M128.6412 54.9604
L128.7365 54.9128
" />
<path d="M128.7365 54.9128
L128.7841 54.8652
" />
<path d="M127.7365 54.8652
L127.6889 54.9128
" />
<path d="M127.6889 54.9128
L127.7365 54.9604
" />
<path d="M127.7365 54.9604
L127.7841 54.9128
" />
<path d="M127.7841 54.9128
L127.7365 54.8652
" />
<path d="M127.7365 54.8652
L127.7365 54.9604
" />
<path d="M126.7841 53.9604
L127.2603 53.9604
" />
<path d="M127.2603 53.9604
L127.3079 54.4366
" />
<path d="M127.3079 54.4366
L127.2603 54.3890
" />
<path d="M127.2603 54.3890
L127.1651 54.3414
" />
<path d="M127.1651 54.3414
L126.9270 54.3414
" />
<path d="M126.9270 54.3414
L126.8317 54.3890
" />
<path d="M126.8317 54.3890
L126.7841 54.4366
" />
<path d="M126.7841 54.4366
L126.7365 54.5318
" />
<path d="M126.7365 54.5318
L126.7365 54.7699
" />
<path d="M126.7365 54.7699
L126.7841 54.8652
" />
<path d="M126.7841 54.8652
L126.8317 54.9128
" />
<path d="M126.8317 54.9128
L126.9270 54.9604
" />
<path d="M126.9270 54.9604
L127.1651 54.9604
" />
<path d="M127.1651 54.9604
L127.2603 54.9128
" />
<path d="M127.2603 54.9128
L127.3079 54.8652
" />
<path d="M125.5460 54.9604
L125.5460 54.2938
" />
<path d="M125.5460 54.3890
L125.4984 54.3414
" />
<path d="M125.4984 54.3414
L125.4032 54.2938
" />
<path d="M125.4032 54.2938
L125.2603 54.2938
" />
<path d="M125.2603 54.2938
L125.1651 54.3414
" />
<path d="M125.1651 54.3414
L125.1174 54.4366
" />
<path d="M125.1174 54.4366
L125.1174 54.9604
" />
<path d="M125.1174 54.4366
L125.0698 54.3414
" />
<path d="M125.0698 54.3414
L124.9746 54.2938
" />
<path d="M124.9746 54.2938
L124.8317 54.2938
" />
<path d="M124.8317 54.2938
L124.7365 54.3414
" />
<path d="M124.7365 54.3414
L124.6889 54.4366
" />
<path d="M124.6889 54.4366
L124.6889 54.9604
" />
<path d="M124.2127 54.9604
L124.2127 54.2938
" />
<path d="M124.2127 54.3890
L124.1651 54.3414
" />
<path d="M124.1651 54.3414
L124.0698 54.2938
" />
<path d="M124.0698 54.2938
L123.9270 54.2938
" />
<path d="M123.9270 54.2938
L123.8317 54.3414
" />
<path d="M123.8317 54.3414
L123.7841 54.4366
" />
<path d="M123.7841 54.4366
L123.7841 54.9604
" />
<path d="M123.7841 54.4366
L123.7365 54.3414
" />
<path d="M123.7365 54.3414
L123.6412 54.2938
" />
<path d="M123.6412 54.2938
L123.4984 54.2938
" />
<path d="M123.4984 54.2938
L123.4032 54.3414
" />
<path d="M123.4032 54.3414
L123.3555 54.4366
" />
<path d="M123.3555 54.4366
L123.3555 54.9604
" />
</g></g>
<g style="fill:#000000; fill-opacity:0.0; 
stroke:#000000; stroke-width:0.1000; stroke-opacity:1; 
stroke-linecap:round; stroke-linejoin:round;">
<path d="M129.0222 63.0056
L129.0222 55.9192
" />
<path d="M125.5222 63.0056
L125.5222 55.9192
" />
<path d="M129.0222 56.5056
L125.5222 56.5056
" />
<path d="M129.0222 56.5056
L125.5222 56.5056
" />
<path d="M129.0222 56.5056
L127.8957 55.9192
" />
<path d="M129.0222 56.5056
L127.8957 57.0920
" />
<path d="M125.5222 56.5056
L126.6487 57.0920
" />
<path d="M125.5222 56.5056
L126.6487 55.9192
" />
</g>
<g style="fill:#000000; fill-opacity:0.0; 
stroke:#000000; stroke-width:0.1500; stroke-opacity:1; 
stroke-linecap:round; stroke-linejoin:round;">
<text x="153.5222" y="55.8556"
textLength="5.5833" font-size="1.3333" lengthAdjust="spacingAndGlyphs"
text-anchor="middle" opacity="0">49 mm</text>
<g class="stroked-text"><desc>49 mm</desc>
<path d="M155.5222 55.1438
L155.5222 55.8104
" />
<path d="M155.7603 54.7628
L155.9984 55.4771
" />
<path d="M155.9984 55.4771
L155.3793 55.4771
" />
<path d="M154.9508 55.8104
L154.7603 55.8104
" />
<path d="M154.7603 55.8104
L154.6651 55.7628
" />
<path d="M154.6651 55.7628
L154.6174 55.7152
" />
<path d="M154.6174 55.7152
L154.5222 55.5723
" />
<path d="M154.5222 55.5723
L154.4746 55.3818
" />
<path d="M154.4746 55.3818
L154.4746 55.0009
" />
<path d="M154.4746 55.0009
L154.5222 54.9057
" />
<path d="M154.5222 54.9057
L154.5698 54.8580
" />
<path d="M154.5698 54.8580
L154.6651 54.8104
" />
<path d="M154.6651 54.8104
L154.8555 54.8104
" />
<path d="M154.8555 54.8104
L154.9508 54.8580
" />
<path d="M154.9508 54.8580
L154.9984 54.9057
" />
<path d="M154.9984 54.9057
L155.0460 55.0009
" />
<path d="M155.0460 55.0009
L155.0460 55.2390
" />
<path d="M155.0460 55.2390
L154.9984 55.3342
" />
<path d="M154.9984 55.3342
L154.9508 55.3818
" />
<path d="M154.9508 55.3818
L154.8555 55.4295
" />
<path d="M154.8555 55.4295
L154.6651 55.4295
" />
<path d="M154.6651 55.4295
L154.5698 55.3818
" />
<path d="M154.5698 55.3818
L154.5222 55.3342
" />
<path d="M154.5222 55.3342
L154.4746 55.2390
" />
<path d="M153.2841 55.8104
L153.2841 55.1438
" />
<path d="M153.2841 55.2390
L153.2365 55.1914
" />
<path d="M153.2365 55.1914
L153.1412 55.1438
" />
<path d="M153.1412 55.1438
L152.9984 55.1438
" />
<path d="M152.9984 55.1438
L152.9032 55.1914
" />
<path d="M152.9032 55.1914
L152.8555 55.2866
" />
<path d="M152.8555 55.2866
L152.8555 55.8104
" />
<path d="M152.8555 55.2866
L152.8079 55.1914
" />
<path d="M152.8079 55.1914
L152.7127 55.1438
" />
<path d="M152.7127 55.1438
L152.5698 55.1438
" />
<path d="M152.5698 55.1438
L152.4746 55.1914
" />
<path d="M152.4746 55.1914
L152.4270 55.2866
" />
<path d="M152.4270 55.2866
L152.4270 55.8104
" />
<path d="M151.9508 55.8104
L151.9508 55.1438
" />
<path d="M151.9508 55.2390
L151.9032 55.1914
" />
<path d="M151.9032 55.1914
L151.8079 55.1438
" />
<path d="M151.8079 55.1438
L151.6651 55.1438
" />
<path d="M151.6651 55.1438
L151.5698 55.1914
" />
<path d="M151.5698 55.1914
L151.5222 55.2866
" />
<path d="M151.5222 55.2866
L151.5222 55.8104
" />
<path d="M151.5222 55.2866
L151.4746 55.1914
" />
<path d="M151.4746 55.1914
L151.3793 55.1438
" />
<path d="M151.3793 55.1438
L151.2365 55.1438
" />
<path d="M151.2365 55.1438
L151.1412 55.1914
" />
<path d="M151.1412 55.1914
L151.0936 55.2866
" />
<path d="M151.0936 55.2866
L151.0936 55.8104
" />
</g></g>
<g style="fill:#000000; fill-opacity:0.0; 
stroke:#000000; stroke-width:0.1000; stroke-opacity:1; 
stroke-linecap:round; stroke-linejoin:round;">
<path d="M178.0222 63.0056
L178.0222 55.9192
" />
<path d="M129.0222 63.0056
L129.0222 55.9192
" />
<path d="M178.0222 56.5056
L129.0222 56.5056
" />
<path d="M178.0222 56.5056
L129.0222 56.5056
" />
<path d="M178.0222 56.5056
L176.8957 55.9192
" />
<path d="M178.0222 56.5056
L176.8957 57.0920
" />
<path d="M129.0222 56.5056
L130.1487 57.0920
" />
<path d="M129.0222 56.5056
L130.1487 55.9192
" />
</g>
<g style="fill:#000000; fill-opacity:0.0; 
stroke:#000000; stroke-width:0.1500; stroke-opacity:1; 
stroke-linecap:round; stroke-linejoin:round;">
<g transform="rotate(-90.000000 190.6722 92.5056)">
<text x="190.6722" y="93.0056"
textLength="5.5833" font-size="1.3333" lengthAdjust="spacingAndGlyphs"
text-anchor="middle" opacity="0">58 mm</text>
</g>
<g class="stroked-text"><desc>58 mm</desc>
<path d="M191.2174 94.4580
L191.2174 94.9342
" />
<path d="M191.2174 94.9342
L190.7412 94.9818
" />
<path d="M190.7412 94.9818
L190.7888 94.9342
" />
<path d="M190.7888 94.9342
L190.8364 94.8389
" />
<path d="M190.8364 94.8389
L190.8364 94.6008
" />
<path d="M190.8364 94.6008
L190.7888 94.5056
" />
<path d="M190.7888 94.5056
L190.7412 94.4580
" />
<path d="M190.7412 94.4580
L190.6460 94.4104
" />
<path d="M190.6460 94.4104
L190.4079 94.4104
" />
<path d="M190.4079 94.4104
L190.3126 94.4580
" />
<path d="M190.3126 94.4580
L190.2650 94.5056
" />
<path d="M190.2650 94.5056
L190.2174 94.6008
" />
<path d="M190.2174 94.6008
L190.2174 94.8389
" />
<path d="M190.2174 94.8389
L190.2650 94.9342
" />
<path d="M190.2650 94.9342
L190.3126 94.9818
" />
<path d="M190.7888 93.8389
L190.8364 93.9342
" />
<path d="M190.8364 93.9342
L190.8840 93.9818
" />
<path d="M190.8840 93.9818
L190.9793 94.0294
" />
<path d="M190.9793 94.0294
L191.0269 94.0294
" />
<path d="M191.0269 94.0294
L191.1221 93.9818
" />
<path d="M191.1221 93.9818
L191.1698 93.9342
" />
<path d="M191.1698 93.9342
L191.2174 93.8389
" />
<path d="M191.2174 93.8389
L191.2174 93.6485
" />
<path d="M191.2174 93.6485
L191.1698 93.5532
" />
<path d="M191.1698 93.5532
L191.1221 93.5056
" />
<path d="M191.1221 93.5056
L191.0269 93.4580
" />
<path d="M191.0269 93.4580
L190.9793 93.4580
" />
<path d="M190.9793 93.4580
L190.8840 93.5056
" />
<path d="M190.8840 93.5056
L190.8364 93.5532
" />
<path d="M190.8364 93.5532
L190.7888 93.6485
" />
<path d="M190.7888 93.6485
L190.7888 93.8389
" />
<path d="M190.7888 93.8389
L190.7412 93.9342
" />
<path d="M190.7412 93.9342
L190.6936 93.9818
" />
<path d="M190.6936 93.9818
L190.5983 94.0294
" />
<path d="M190.5983 94.0294
L190.4079 94.0294
" />
<path d="M190.4079 94.0294
L190.3126 93.9818
" />
<path d="M190.3126 93.9818
L190.2650 93.9342
" />
<path d="M190.2650 93.9342
L190.2174 93.8389
" />
<path d="M190.2174 93.8389
L190.2174 93.6485
" />
<path d="M190.2174 93.6485
L190.2650 93.5532
" />
<path d="M190.2650 93.5532
L190.3126 93.5056
" />
<path d="M190.3126 93.5056
L190.4079 93.4580
" />
<path d="M190.4079 93.4580
L190.5983 93.4580
" />
<path d="M190.5983 93.4580
L190.6936 93.5056
" />
<path d="M190.6936 93.5056
L190.7412 93.5532
" />
<path d="M190.7412 93.5532
L190.7888 93.6485
" />
<path d="M190.2174 92.2675
L190.8840 92.2675
" />
<path d="M190.7888 92.2675
L190.8364 92.2199
" />
<path d="M190.8364 92.2199
L190.8840 92.1246
" />
<path d="M190.8840 92.1246
L190.8840 91.9818
" />
<path d="M190.8840 91.9818
L190.8364 91.8866
" />
<path d="M190.8364 91.8866
L190.7412 91.8389
" />
<path d="M190.7412 91.8389
L190.2174 91.8389
" />
<path d="M190.7412 91.8389
L190.8364 91.7913
" />
<path d="M190.8364 91.7913
L190.8840 91.6961
" />
<path d="M190.8840 91.6961
L190.8840 91.5532
" />
<path d="M190.8840 91.5532
L190.8364 91.4580
" />
<path d="M190.8364 91.4580
L190.7412 91.4104
" />
<path d="M190.7412 91.4104
L190.2174 91.4104
" />
<path d="M190.2174 90.9342
L190.8840 90.9342
" />
<path d="M190.7888 90.9342
L190.8364 90.8866
" />
<path d="M190.8364 90.8866
L190.8840 90.7913
" />
<path d="M190.8840 90.7913
L190.8840 90.6485
" />
<path d="M190.8840 90.6485
L190.8364 90.5532
" />
<path d="M190.8364 90.5532
L190.7412 90.5056
" />
<path d="M190.7412 90.5056
L190.2174 90.5056
" />
<path d="M190.7412 90.5056
L190.8364 90.4580
" />
<path d="M190.8364 90.4580
L190.8840 90.3627
" />
<path d="M190.8840 90.3627
L190.8840 90.2199
" />
<path d="M190.8840 90.2199
L190.8364 90.1246
" />
<path d="M190.8364 90.1246
L190.7412 90.0770
" />
<path d="M190.7412 90.0770
L190.2174 90.0770
" />
</g></g>
<g style="fill:#000000; fill-opacity:0.0; 
stroke:#000000; stroke-width:0.1000; stroke-opacity:1; 
stroke-linecap:round; stroke-linejoin:round;">
<path d="M178.5222 63.5056
L190.1086 63.5056
" />
<path d="M178.5222 121.5056
L190.1086 121.5056
" />
<path d="M189.5222 63.5056
L189.5222 121.5056
" />
<path d="M189.5222 63.5056
L189.5222 121.5056
" />
<path d="M189.5222 63.5056
L188.9358 64.6321
" />
<path d="M189.5222 63.5056
L190.1086 64.6321
" />
<path d="M189.5222 121.5056
L190.1086 120.3791
" />
<path d="M189.5222 121.5056
L188.9358 120.3791
" />
</g>
<g style="fill:#000000; fill-opacity:0.0; 
stroke:#000000; stroke-width:0.1500; stroke-opacity:1; 
stroke-linecap:round; stroke-linejoin:round;">
<g transform="rotate(-90.000000 186.6722 78.0056)">
<text x="186.6722" y="78.5056"
textLength="5.5833" font-size="1.3333" lengthAdjust="spacingAndGlyphs"
text-anchor="middle" opacity="0">29 mm</text>
</g>
<g class="stroked-text"><desc>29 mm</desc>
<path d="M187.1221 80.4818
L187.1698 80.4342
" />
<path d="M187.1698 80.4342
L187.2174 80.3389
" />
<path d="M187.2174 80.3389
L187.2174 80.1008
" />
<path d="M187.2174 80.1008
L187.1698 80.0056
" />
<path d="M187.1698 80.0056
L187.1221 79.9580
" />
<path d="M187.1221 79.9580
L187.0269 79.9104
" />
<path d="M187.0269 79.9104
L186.9317 79.9104
" />
<path d="M186.9317 79.9104
L186.7888 79.9580
" />
<path d="M186.7888 79.9580
L186.2174 80.5294
" />
<path d="M186.2174 80.5294
L186.2174 79.9104
" />
<path d="M186.2174 79.4342
L186.2174 79.2437
" />
<path d="M186.2174 79.2437
L186.2650 79.1485
" />
<path d="M186.2650 79.1485
L186.3126 79.1008
" />
<path d="M186.3126 79.1008
L186.4555 79.0056
" />
<path d="M186.4555 79.0056
L186.6460 78.9580
" />
<path d="M186.6460 78.9580
L187.0269 78.9580
" />
<path d="M187.0269 78.9580
L187.1221 79.0056
" />
<path d="M187.1221 79.0056
L187.1698 79.0532
" />
<path d="M187.1698 79.0532
L187.2174 79.1485
" />
<path d="M187.2174 79.1485
L187.2174 79.3389
" />
<path d="M187.2174 79.3389
L187.1698 79.4342
" />
<path d="M187.1698 79.4342
L187.1221 79.4818
" />
<path d="M187.1221 79.4818
L187.0269 79.5294
" />
<path d="M187.0269 79.5294
L186.7888 79.5294
" />
<path d="M186.7888 79.5294
L186.6936 79.4818
" />
<path d="M186.6936 79.4818
L186.6460 79.4342
" />
<path d="M186.6460 79.4342
L186.5983 79.3389
" />
<path d="M186.5983 79.3389
L186.5983 79.1485
" />
<path d="M186.5983 79.1485
L186.6460 79.0532
" />
<path d="M186.6460 79.0532
L186.6936 79.0056
" />
<path d="M186.6936 79.0056
L186.7888 78.9580
" />
<path d="M186.2174 77.7675
L186.8840 77.7675
" />
<path d="M186.7888 77.7675
L186.8364 77.7199
" />
<path d="M186.8364 77.7199
L186.8840 77.6246
" />
<path d="M186.8840 77.6246
L186.8840 77.4818
" />
<path d="M186.8840 77.4818
L186.8364 77.3866
" />
<path d="M186.8364 77.3866
L186.7412 77.3389
" />
<path d="M186.7412 77.3389
L186.2174 77.3389
" />
<path d="M186.7412 77.3389
L186.8364 77.2913
" />
<path d="M186.8364 77.2913
L186.8840 77.1961
" />
<path d="M186.8840 77.1961
L186.8840 77.0532
" />
<path d="M186.8840 77.0532
L186.8364 76.9580
" />
<path d="M186.8364 76.9580
L186.7412 76.9104
" />
<path d="M186.7412 76.9104
L186.2174 76.9104
" />
<path d="M186.2174 76.4342
L186.8840 76.4342
" />
<path d="M186.7888 76.4342
L186.8364 76.3866
" />
<path d="M186.8364 76.3866
L186.8840 76.2913
" />
<path d="M186.8840 76.2913
L186.8840 76.1485
" />
<path d="M186.8840 76.1485
L186.8364 76.0532
" />
<path d="M186.8364 76.0532
L186.7412 76.0056
" />
<path d="M186.7412 76.0056
L186.2174 76.0056
" />
<path d="M186.7412 76.0056
L186.8364 75.9580
" />
<path d="M186.8364 75.9580
L186.8840 75.8627
" />
<path d="M186.8840 75.8627
L186.8840 75.7199
" />
<path d="M186.8840 75.7199
L186.8364 75.6246
" />
<path d="M186.8364 75.6246
L186.7412 75.5770
" />
<path d="M186.7412 75.5770
L186.2174 75.5770
" />
</g></g>
<g style="fill:#000000; fill-opacity:0.0; 
stroke:#000000; stroke-width:0.1000; stroke-opacity:1; 
stroke-linecap:round; stroke-linejoin:round;">
<path d="M178.5222 92.5056
L186.1086 92.5056
" />
<path d="M178.5222 63.5056
L186.1086 63.5056
" />
<path d="M185.5222 92.5056
L185.5222 63.5056
" />
<path d="M185.5222 92.5056
L185.5222 63.5056
" />
<path d="M185.5222 92.5056
L186.1086 91.3791
" />
<path d="M185.5222 92.5056
L184.9358 91.3791
" />
<path d="M185.5222 63.5056
L184.9358 64.6321
" />
<path d="M185.5222 63.5056
L186.1086 64.6321
" />
</g>
<g style="fill:#000000; fill-opacity:0.0; 
stroke:#000000; stroke-width:0.1500; stroke-opacity:1; 
stroke-linecap:round; stroke-linejoin:round;">
<g transform="rotate(-90.000000 195.1722 92.5056)">
<text x="195.1722" y="93.0056"
textLength="5.5833" font-size="1.3333" lengthAdjust="spacingAndGlyphs"
text-anchor="middle" opacity="0">65 mm</text>
</g>
<g class="stroked-text"><desc>65 mm</desc>
<path d="M195.7174 94.5056
L195.7174 94.6961
" />
<path d="M195.7174 94.6961
L195.6698 94.7913
" />
<path d="M195.6698 94.7913
L195.6221 94.8389
" />
<path d="M195.6221 94.8389
L195.4793 94.9342
" />
<path d="M195.4793 94.9342
L195.2888 94.9818
" />
<path d="M195.2888 94.9818
L194.9079 94.9818
" />
<path d="M194.9079 94.9818
L194.8126 94.9342
" />
<path d="M194.8126 94.9342
L194.7650 94.8866
" />
<path d="M194.7650 94.8866
L194.7174 94.7913
" />
<path d="M194.7174 94.7913
L194.7174 94.6008
" />
<path d="M194.7174 94.6008
L194.7650 94.5056
" />
<path d="M194.7650 94.5056
L194.8126 94.4580
" />
<path d="M194.8126 94.4580
L194.9079 94.4104
" />
<path d="M194.9079 94.4104
L195.1460 94.4104
" />
<path d="M195.1460 94.4104
L195.2412 94.4580
" />
<path d="M195.2412 94.4580
L195.2888 94.5056
" />
<path d="M195.2888 94.5056
L195.3364 94.6008
" />
<path d="M195.3364 94.6008
L195.3364 94.7913
" />
<path d="M195.3364 94.7913
L195.2888 94.8866
" />
<path d="M195.2888 94.8866
L195.2412 94.9342
" />
<path d="M195.2412 94.9342
L195.1460 94.9818
" />
<path d="M195.7174 93.5056
L195.7174 93.9818
" />
<path d="M195.7174 93.9818
L195.2412 94.0294
" />
<path d="M195.2412 94.0294
L195.2888 93.9818
" />
<path d="M195.2888 93.9818
L195.3364 93.8866
" />
<path d="M195.3364 93.8866
L195.3364 93.6485
" />
<path d="M195.3364 93.6485
L195.2888 93.5532
" />
<path d="M195.2888 93.5532
L195.2412 93.5056
" />
<path d="M195.2412 93.5056
L195.1460 93.4580
" />
<path d="M195.1460 93.4580
L194.9079 93.4580
" />
<path d="M194.9079 93.4580
L194.8126 93.5056
" />
<path d="M194.8126 93.5056
L194.7650 93.5532
" />
<path d="M194.7650 93.5532
L194.7174 93.6485
" />
<path d="M194.7174 93.6485
L194.7174 93.8866
" />
<path d="M194.7174 93.8866
L194.7650 93.9818
" />
<path d="M194.7650 93.9818
L194.8126 94.0294
" />
<path d="M194.7174 92.2675
L195.3840 92.2675
" />
<path d="M195.2888 92.2675
L195.3364 92.2199
" />
<path d="M195.3364 92.2199
L195.3840 92.1246
" />
<path d="M195.3840 92.1246
L195.3840 91.9818
" />
<path d="M195.3840 91.9818
L195.3364 91.8866
" />
<path d="M195.3364 91.8866
L195.2412 91.8389
" />
<path d="M195.2412 91.8389
L194.7174 91.8389
" />
<path d="M195.2412 91.8389
L195.3364 91.7913
" />
<path d="M195.3364 91.7913
L195.3840 91.6961
" />
<path d="M195.3840 91.6961
L195.3840 91.5532
" />
<path d="M195.3840 91.5532
L195.3364 91.4580
" />
<path d="M195.3364 91.4580
L195.2412 91.4104
" />
<path d="M195.2412 91.4104
L194.7174 91.4104
" />
<path d="M194.7174 90.9342
L195.3840 90.9342
" />
<path d="M195.2888 90.9342
L195.3364 90.8866
" />
<path d="M195.3364 90.8866
L195.3840 90.7913
" />
<path d="M195.3840 90.7913
L195.3840 90.6485
" />
<path d="M195.3840 90.6485
L195.3364 90.5532
" />
<path d="M195.3364 90.5532
L195.2412 90.5056
" />
<path d="M195.2412 90.5056
L194.7174 90.5056
" />
<path d="M195.2412 90.5056
L195.3364 90.4580
" />
<path d="M195.3364 90.4580
L195.3840 90.3627
" />
<path d="M195.3840 90.3627
L195.3840 90.2199
" />
<path d="M195.3840 90.2199
L195.3364 90.1246
" />
<path d="M195.3364 90.1246
L195.2412 90.0770
" />
<path d="M195.2412 90.0770
L194.7174 90.0770
" />
</g></g>
<g style="fill:#000000; fill-opacity:0.0; 
stroke:#000000; stroke-width:0.1000; stroke-opacity:1; 
stroke-linecap:round; stroke-linejoin:round;">
<path d="M178.5222 125.0056
L194.6086 125.0056
" />
<path d="M178.5222 60.0056
L194.6086 60.0056
" />
<path d="M194.0222 125.0056
L194.0222 60.0056
" />
<path d="M194.0222 125.0056
L194.0222 60.0056
" />
<path d="M194.0222 125.0056
L194.6086 123.8791
" />
<path d="M194.0222 125.0056
L193.4358 123.8791
" />
<path d="M194.0222 60.0056
L193.4358 61.1321
" />
<path d="M194.0222 60.0056
L194.6086 61.1321
" />
<g >
</g>
<g >
</g>
<g >
</g>
<g >
</g>
<g >
</g>
<g >
</g>
<g >
</g>
<g >
</g>
<g >
</g>
<g >
</g>
<g >
</g>
<g >
</g>
<g >
</g>
<g >
</g>
<g >
</g>
<g >
</g>
<g >
</g>
<g >
</g>
<g >
</g>
<g >
</g>
<g >
</g>
<g >
</g>
<g >
</g>
<g >
</g>
<g >
</g>
<g >
</g>
<g >
</g>
<g >
</g>
<g >
</g>
<g >
</g>
<g >
</g>
<g >
</g>
<g >
</g>
<g >
</g>
<g >
</g>
<g >
</g>
<g >
</g>
<g >
</g>
<g >
</g>
<g >
</g>
<g >
</g>
<g >
</g>
<g >
</g>
<g >
</g>
<g >
</g>
<g >
</g>
<g >
</g>
<g >
</g>
<g >
</g>
<g >
</g>
<g >
</g>
<g >
</g>
<g >
</g>
<g >
</g>
<g >
</g>
<g >
</g>
<g >
</g>
<g >
</g>
<g >
</g>
<g >
</g>
<g >
</g>
<g >
</g>
<g >
</g>
<g >
</g>
<g >
</g>
<g >
</g>
<g >
</g>
<g >
</g>
<g >
</g>
<g >
</g>
<g >
</g>
<g >
</g>
<g >
</g>
<g >
</g>
<g >
</g>
<g >
</g>
<g >
</g>
<g >
</g>
<g >
</g>
<g >
</g>
<g >
</g>
<g >
</g>
<g >
</g>
<g >
</g>
<g >
</g>
<g >
</g>
<g >
</g>
<g >
</g>
<g >
</g>
<g >
</g>
<g >
</g>
<g >
</g>
<g >
</g>
<g >
</g>
<g >
</g>
<g >
</g>
<g >
</g>
<g >
</g>
<g >
</g>
<g >
</g>
<g >
</g>
<g >
</g>
<g >
</g>
<g >
</g>
<g >
</g>
<g >
</g>
<g >
</g>
<g >
</g>
<g >
</g>
<g >
</g>
<g >
</g>
<g >
</g>
<g >
</g>
<g >
</g>
<g >
</g>
<g >
</g>
<g >
</g>
<g >
</g>
<g >
</g>
<g >
</g>
<g >
</g>
<g >
</g>
<g >
</g>
<g >
</g>
<g >
</g>
<g >
</g>
<g >
</g>
<g >
</g>
<g >
</g>
</g> 
</svg>
