<?xml version="1.0" standalone="no"?>
 <!DOCTYPE svg PUBLIC "-//W3C//DTD SVG 1.1//EN" 
 "http://www.w3.org/Graphics/SVG/1.1/DTD/svg11.dtd"> 
<svg
  xmlns:svg="http://www.w3.org/2000/svg"
  xmlns="http://www.w3.org/2000/svg"
  xmlns:xlink="http://www.w3.org/1999/xlink"
  version="1.1"
  width="297.0022mm" height="210.0072mm" viewBox="0.0000 0.0000 297.0022 210.0072">
<title>SVG Image created as pedalboard-hw-B_Fab.svg date 2023/04/16 12:32:44 </title>
  <desc>Image generated by PCBNEW </desc>
<g style="fill:#000000; fill-opacity:1.0000;stroke:#000000; stroke-opacity:1.0000;
stroke-linecap:round; stroke-linejoin:round;"
 transform="translate(0 0) scale(1 1)">
</g>
<g style="fill:#000000; fill-opacity:0.0; 
stroke:#000000; stroke-width:0.0000; stroke-opacity:1; 
stroke-linecap:round; stroke-linejoin:round;">
</g>
<g style="fill:#000000; fill-opacity:0.0; 
stroke:#000000; stroke-width:0.1500; stroke-opacity:1; 
stroke-linecap:round; stroke-linejoin:round;">
<text x="183.3772" y="88.3300"
transform="scale(-1 1) translate(-366.754400 0)"
textLength="4.7940" font-size="1.3333" lengthAdjust="spacingAndGlyphs"
text-anchor="middle" opacity="0">USB_A</text>
<g class="stroked-text"><desc>USB_A</desc>
<path d="M181.3058 87.2926
L181.3058 88.1021
" />
<path d="M181.3058 88.1021
L181.3534 88.1974
" />
<path d="M181.3534 88.1974
L181.4010 88.2450
" />
<path d="M181.4010 88.2450
L181.4962 88.2926
" />
<path d="M181.4962 88.2926
L181.6867 88.2926
" />
<path d="M181.6867 88.2926
L181.7820 88.2450
" />
<path d="M181.7820 88.2450
L181.8296 88.1974
" />
<path d="M181.8296 88.1974
L181.8772 88.1021
" />
<path d="M181.8772 88.1021
L181.8772 87.2926
" />
<path d="M182.3058 88.2450
L182.4486 88.2926
" />
<path d="M182.4486 88.2926
L182.6867 88.2926
" />
<path d="M182.6867 88.2926
L182.7820 88.2450
" />
<path d="M182.7820 88.2450
L182.8296 88.1974
" />
<path d="M182.8296 88.1974
L182.8772 88.1021
" />
<path d="M182.8772 88.1021
L182.8772 88.0069
" />
<path d="M182.8772 88.0069
L182.8296 87.9117
" />
<path d="M182.8296 87.9117
L182.7820 87.8640
" />
<path d="M182.7820 87.8640
L182.6867 87.8164
" />
<path d="M182.6867 87.8164
L182.4962 87.7688
" />
<path d="M182.4962 87.7688
L182.4010 87.7212
" />
<path d="M182.4010 87.7212
L182.3534 87.6736
" />
<path d="M182.3534 87.6736
L182.3058 87.5783
" />
<path d="M182.3058 87.5783
L182.3058 87.4831
" />
<path d="M182.3058 87.4831
L182.3534 87.3879
" />
<path d="M182.3534 87.3879
L182.4010 87.3402
" />
<path d="M182.4010 87.3402
L182.4962 87.2926
" />
<path d="M182.4962 87.2926
L182.7343 87.2926
" />
<path d="M182.7343 87.2926
L182.8772 87.3402
" />
<path d="M183.6391 87.7688
L183.7820 87.8164
" />
<path d="M183.7820 87.8164
L183.8296 87.8640
" />
<path d="M183.8296 87.8640
L183.8772 87.9593
" />
<path d="M183.8772 87.9593
L183.8772 88.1021
" />
<path d="M183.8772 88.1021
L183.8296 88.1974
" />
<path d="M183.8296 88.1974
L183.7820 88.2450
" />
<path d="M183.7820 88.2450
L183.6867 88.2926
" />
<path d="M183.6867 88.2926
L183.3058 88.2926
" />
<path d="M183.3058 88.2926
L183.3058 87.2926
" />
<path d="M183.3058 87.2926
L183.6391 87.2926
" />
<path d="M183.6391 87.2926
L183.7343 87.3402
" />
<path d="M183.7343 87.3402
L183.7820 87.3879
" />
<path d="M183.7820 87.3879
L183.8296 87.4831
" />
<path d="M183.8296 87.4831
L183.8296 87.5783
" />
<path d="M183.8296 87.5783
L183.7820 87.6736
" />
<path d="M183.7820 87.6736
L183.7343 87.7212
" />
<path d="M183.7343 87.7212
L183.6391 87.7688
" />
<path d="M183.6391 87.7688
L183.3058 87.7688
" />
<path d="M184.0677 88.3879
L184.8296 88.3879
" />
<path d="M185.0201 88.0069
L185.4962 88.0069
" />
<path d="M184.9248 88.2926
L185.2582 87.2926
" />
<path d="M185.2582 87.2926
L185.5915 88.2926
" />
</g><g transform="rotate(-90.000000 183.3772 93.9700)">
<text x="183.3772" y="94.4700"
transform="scale(-1 1) translate(-366.754400 0)"
textLength="1.8893" font-size="1.3333" lengthAdjust="spacingAndGlyphs"
text-anchor="middle" opacity="0">J6</text>
</g>
<g class="stroked-text"><desc>J6</desc>
<path d="M183.9146 93.6367
L183.2003 93.6367
" />
<path d="M183.2003 93.6367
L183.0574 93.5890
" />
<path d="M183.0574 93.5890
L182.9622 93.4938
" />
<path d="M182.9622 93.4938
L182.9146 93.3510
" />
<path d="M182.9146 93.3510
L182.9146 93.2557
" />
<path d="M183.9146 94.5414
L183.9146 94.3510
" />
<path d="M183.9146 94.3510
L183.8670 94.2557
" />
<path d="M183.8670 94.2557
L183.8193 94.2081
" />
<path d="M183.8193 94.2081
L183.6765 94.1129
" />
<path d="M183.6765 94.1129
L183.4860 94.0652
" />
<path d="M183.4860 94.0652
L183.1051 94.0652
" />
<path d="M183.1051 94.0652
L183.0098 94.1129
" />
<path d="M183.0098 94.1129
L182.9622 94.1605
" />
<path d="M182.9622 94.1605
L182.9146 94.2557
" />
<path d="M182.9146 94.2557
L182.9146 94.4462
" />
<path d="M182.9146 94.4462
L182.9622 94.5414
" />
<path d="M182.9622 94.5414
L183.0098 94.5890
" />
<path d="M183.0098 94.5890
L183.1051 94.6367
" />
<path d="M183.1051 94.6367
L183.3432 94.6367
" />
<path d="M183.3432 94.6367
L183.4384 94.5890
" />
<path d="M183.4384 94.5890
L183.4860 94.5414
" />
<path d="M183.4860 94.5414
L183.5336 94.4462
" />
<path d="M183.5336 94.4462
L183.5336 94.2557
" />
<path d="M183.5336 94.2557
L183.4860 94.1605
" />
<path d="M183.4860 94.1605
L183.4384 94.1129
" />
<path d="M183.4384 94.1129
L183.3432 94.0652
" />
</g><g transform="rotate(-270.000000 206.2922 74.6000)">
<text x="206.2922" y="75.1000"
transform="scale(-1 1) translate(-412.584400 0)"
textLength="0.8893" font-size="1.3333" lengthAdjust="spacingAndGlyphs"
text-anchor="middle" opacity="0">~</text>
</g>
<g class="stroked-text"><desc>~</desc>
<path d="M206.3739 74.8619
L206.3262 74.8143
" />
<path d="M206.3262 74.8143
L206.2786 74.7190
" />
<path d="M206.2786 74.7190
L206.3739 74.5286
" />
<path d="M206.3739 74.5286
L206.3262 74.4333
" />
<path d="M206.3262 74.4333
L206.2786 74.3857
" />
</g><g transform="rotate(-270.000000 207.7922 74.6000)">
<text x="207.7922" y="75.1000"
transform="scale(-1 1) translate(-415.584400 0)"
textLength="1.9845" font-size="1.3333" lengthAdjust="spacingAndGlyphs"
text-anchor="middle" opacity="0">F3</text>
</g>
<g class="stroked-text"><desc>F3</desc>
<path d="M207.7310 74.9333
L207.7310 75.2667
" />
<path d="M208.2548 75.2667
L207.2548 75.2667
" />
<path d="M207.2548 75.2667
L207.2548 74.7905
" />
<path d="M207.2548 74.5048
L207.2548 73.8857
" />
<path d="M207.2548 73.8857
L207.6358 74.2190
" />
<path d="M207.6358 74.2190
L207.6358 74.0762
" />
<path d="M207.6358 74.0762
L207.6834 73.9810
" />
<path d="M207.6834 73.9810
L207.7310 73.9333
" />
<path d="M207.7310 73.9333
L207.8262 73.8857
" />
<path d="M207.8262 73.8857
L208.0643 73.8857
" />
<path d="M208.0643 73.8857
L208.1596 73.9333
" />
<path d="M208.1596 73.9333
L208.2072 73.9810
" />
<path d="M208.2072 73.9810
L208.2548 74.0762
" />
<path d="M208.2548 74.0762
L208.2548 74.3619
" />
<path d="M208.2548 74.3619
L208.2072 74.4571
" />
<path d="M208.2072 74.4571
L208.1596 74.5048
" />
</g><g transform="rotate(-90.000000 163.8122 52.7900)">
<text x="163.8122" y="53.2900"
transform="scale(-1 1) translate(-327.624400 0)"
textLength="9.2702" font-size="1.3333" lengthAdjust="spacingAndGlyphs"
text-anchor="middle" opacity="0">Conn_02x01</text>
</g>
<g class="stroked-text"><desc>Conn_02x01</desc>
<path d="M163.4448 49.0519
L163.3972 49.0043
" />
<path d="M163.3972 49.0043
L163.3496 48.8614
" />
<path d="M163.3496 48.8614
L163.3496 48.7662
" />
<path d="M163.3496 48.7662
L163.3972 48.6233
" />
<path d="M163.3972 48.6233
L163.4924 48.5281
" />
<path d="M163.4924 48.5281
L163.5877 48.4805
" />
<path d="M163.5877 48.4805
L163.7782 48.4329
" />
<path d="M163.7782 48.4329
L163.9210 48.4329
" />
<path d="M163.9210 48.4329
L164.1115 48.4805
" />
<path d="M164.1115 48.4805
L164.2067 48.5281
" />
<path d="M164.2067 48.5281
L164.3020 48.6233
" />
<path d="M164.3020 48.6233
L164.3496 48.7662
" />
<path d="M164.3496 48.7662
L164.3496 48.8614
" />
<path d="M164.3496 48.8614
L164.3020 49.0043
" />
<path d="M164.3020 49.0043
L164.2543 49.0519
" />
<path d="M163.3496 49.6233
L163.3972 49.5281
" />
<path d="M163.3972 49.5281
L163.4448 49.4805
" />
<path d="M163.4448 49.4805
L163.5401 49.4329
" />
<path d="M163.5401 49.4329
L163.8258 49.4329
" />
<path d="M163.8258 49.4329
L163.9210 49.4805
" />
<path d="M163.9210 49.4805
L163.9686 49.5281
" />
<path d="M163.9686 49.5281
L164.0162 49.6233
" />
<path d="M164.0162 49.6233
L164.0162 49.7662
" />
<path d="M164.0162 49.7662
L163.9686 49.8614
" />
<path d="M163.9686 49.8614
L163.9210 49.9090
" />
<path d="M163.9210 49.9090
L163.8258 49.9567
" />
<path d="M163.8258 49.9567
L163.5401 49.9567
" />
<path d="M163.5401 49.9567
L163.4448 49.9090
" />
<path d="M163.4448 49.9090
L163.3972 49.8614
" />
<path d="M163.3972 49.8614
L163.3496 49.7662
" />
<path d="M163.3496 49.7662
L163.3496 49.6233
" />
<path d="M164.0162 50.3852
L163.3496 50.3852
" />
<path d="M163.9210 50.3852
L163.9686 50.4329
" />
<path d="M163.9686 50.4329
L164.0162 50.5281
" />
<path d="M164.0162 50.5281
L164.0162 50.6710
" />
<path d="M164.0162 50.6710
L163.9686 50.7662
" />
<path d="M163.9686 50.7662
L163.8734 50.8138
" />
<path d="M163.8734 50.8138
L163.3496 50.8138
" />
<path d="M164.0162 51.2900
L163.3496 51.2900
" />
<path d="M163.9210 51.2900
L163.9686 51.3376
" />
<path d="M163.9686 51.3376
L164.0162 51.4329
" />
<path d="M164.0162 51.4329
L164.0162 51.5757
" />
<path d="M164.0162 51.5757
L163.9686 51.6710
" />
<path d="M163.9686 51.6710
L163.8734 51.7186
" />
<path d="M163.8734 51.7186
L163.3496 51.7186
" />
<path d="M163.2543 51.9567
L163.2543 52.7186
" />
<path d="M164.3496 53.1471
L164.3496 53.2424
" />
<path d="M164.3496 53.2424
L164.3020 53.3376
" />
<path d="M164.3020 53.3376
L164.2543 53.3852
" />
<path d="M164.2543 53.3852
L164.1591 53.4329
" />
<path d="M164.1591 53.4329
L163.9686 53.4805
" />
<path d="M163.9686 53.4805
L163.7305 53.4805
" />
<path d="M163.7305 53.4805
L163.5401 53.4329
" />
<path d="M163.5401 53.4329
L163.4448 53.3852
" />
<path d="M163.4448 53.3852
L163.3972 53.3376
" />
<path d="M163.3972 53.3376
L163.3496 53.2424
" />
<path d="M163.3496 53.2424
L163.3496 53.1471
" />
<path d="M163.3496 53.1471
L163.3972 53.0519
" />
<path d="M163.3972 53.0519
L163.4448 53.0043
" />
<path d="M163.4448 53.0043
L163.5401 52.9567
" />
<path d="M163.5401 52.9567
L163.7305 52.9090
" />
<path d="M163.7305 52.9090
L163.9686 52.9090
" />
<path d="M163.9686 52.9090
L164.1591 52.9567
" />
<path d="M164.1591 52.9567
L164.2543 53.0043
" />
<path d="M164.2543 53.0043
L164.3020 53.0519
" />
<path d="M164.3020 53.0519
L164.3496 53.1471
" />
<path d="M164.2543 53.8614
L164.3020 53.9090
" />
<path d="M164.3020 53.9090
L164.3496 54.0043
" />
<path d="M164.3496 54.0043
L164.3496 54.2424
" />
<path d="M164.3496 54.2424
L164.3020 54.3376
" />
<path d="M164.3020 54.3376
L164.2543 54.3852
" />
<path d="M164.2543 54.3852
L164.1591 54.4329
" />
<path d="M164.1591 54.4329
L164.0639 54.4329
" />
<path d="M164.0639 54.4329
L163.9210 54.3852
" />
<path d="M163.9210 54.3852
L163.3496 53.8138
" />
<path d="M163.3496 53.8138
L163.3496 54.4329
" />
<path d="M163.3496 54.7662
L164.0162 55.2900
" />
<path d="M164.0162 54.7662
L163.3496 55.2900
" />
<path d="M164.3496 55.8614
L164.3496 55.9567
" />
<path d="M164.3496 55.9567
L164.3020 56.0519
" />
<path d="M164.3020 56.0519
L164.2543 56.0995
" />
<path d="M164.2543 56.0995
L164.1591 56.1471
" />
<path d="M164.1591 56.1471
L163.9686 56.1948
" />
<path d="M163.9686 56.1948
L163.7305 56.1948
" />
<path d="M163.7305 56.1948
L163.5401 56.1471
" />
<path d="M163.5401 56.1471
L163.4448 56.0995
" />
<path d="M163.4448 56.0995
L163.3972 56.0519
" />
<path d="M163.3972 56.0519
L163.3496 55.9567
" />
<path d="M163.3496 55.9567
L163.3496 55.8614
" />
<path d="M163.3496 55.8614
L163.3972 55.7662
" />
<path d="M163.3972 55.7662
L163.4448 55.7186
" />
<path d="M163.4448 55.7186
L163.5401 55.6710
" />
<path d="M163.5401 55.6710
L163.7305 55.6233
" />
<path d="M163.7305 55.6233
L163.9686 55.6233
" />
<path d="M163.9686 55.6233
L164.1591 55.6710
" />
<path d="M164.1591 55.6710
L164.2543 55.7186
" />
<path d="M164.2543 55.7186
L164.3020 55.7662
" />
<path d="M164.3020 55.7662
L164.3496 55.8614
" />
<path d="M163.3496 57.1471
L163.3496 56.5757
" />
<path d="M163.3496 56.8614
L164.3496 56.8614
" />
<path d="M164.3496 56.8614
L164.2067 56.7662
" />
<path d="M164.2067 56.7662
L164.1115 56.6710
" />
<path d="M164.1115 56.6710
L164.0639 56.5757
" />
</g><text x="160.2722" y="54.9050"
transform="scale(-1 1) translate(-320.544400 0)"
textLength="2.8417" font-size="1.3333" lengthAdjust="spacingAndGlyphs"
text-anchor="middle" opacity="0">J14</text>
<g class="stroked-text"><desc>J14</desc>
<path d="M159.4627 53.8676
L159.4627 54.5819
" />
<path d="M159.4627 54.5819
L159.4151 54.7248
" />
<path d="M159.4151 54.7248
L159.3198 54.8200
" />
<path d="M159.3198 54.8200
L159.1770 54.8676
" />
<path d="M159.1770 54.8676
L159.0817 54.8676
" />
<path d="M160.4627 54.8676
L159.8912 54.8676
" />
<path d="M160.1770 54.8676
L160.1770 53.8676
" />
<path d="M160.1770 53.8676
L160.0817 54.0105
" />
<path d="M160.0817 54.0105
L159.9865 54.1057
" />
<path d="M159.9865 54.1057
L159.8912 54.1533
" />
<path d="M161.3198 54.2010
L161.3198 54.8676
" />
<path d="M161.0817 53.8200
L160.8436 54.5343
" />
<path d="M160.8436 54.5343
L161.4627 54.5343
" />
</g><text x="170.0530" y="56.7296"
transform="scale(-1 1) translate(-340.106000 0)"
textLength="9.6988" font-size="1.3333" lengthAdjust="spacingAndGlyphs"
text-anchor="middle" opacity="0">Pico USB TP</text>
<g class="stroked-text"><desc>Pico USB TP</desc>
<path d="M165.5292 56.6922
L165.5292 55.6922
" />
<path d="M165.5292 55.6922
L165.9101 55.6922
" />
<path d="M165.9101 55.6922
L166.0054 55.7398
" />
<path d="M166.0054 55.7398
L166.0530 55.7875
" />
<path d="M166.0530 55.7875
L166.1006 55.8827
" />
<path d="M166.1006 55.8827
L166.1006 56.0256
" />
<path d="M166.1006 56.0256
L166.0530 56.1208
" />
<path d="M166.0530 56.1208
L166.0054 56.1684
" />
<path d="M166.0054 56.1684
L165.9101 56.2160
" />
<path d="M165.9101 56.2160
L165.5292 56.2160
" />
<path d="M166.5292 56.6922
L166.5292 56.0256
" />
<path d="M166.5292 55.6922
L166.4816 55.7398
" />
<path d="M166.4816 55.7398
L166.5292 55.7875
" />
<path d="M166.5292 55.7875
L166.5768 55.7398
" />
<path d="M166.5768 55.7398
L166.5292 55.6922
" />
<path d="M166.5292 55.6922
L166.5292 55.7875
" />
<path d="M167.4340 56.6446
L167.3387 56.6922
" />
<path d="M167.3387 56.6922
L167.1482 56.6922
" />
<path d="M167.1482 56.6922
L167.0530 56.6446
" />
<path d="M167.0530 56.6446
L167.0054 56.5970
" />
<path d="M167.0054 56.5970
L166.9578 56.5017
" />
<path d="M166.9578 56.5017
L166.9578 56.2160
" />
<path d="M166.9578 56.2160
L167.0054 56.1208
" />
<path d="M167.0054 56.1208
L167.0530 56.0732
" />
<path d="M167.0530 56.0732
L167.1482 56.0256
" />
<path d="M167.1482 56.0256
L167.3387 56.0256
" />
<path d="M167.3387 56.0256
L167.4340 56.0732
" />
<path d="M168.0054 56.6922
L167.9101 56.6446
" />
<path d="M167.9101 56.6446
L167.8625 56.5970
" />
<path d="M167.8625 56.5970
L167.8149 56.5017
" />
<path d="M167.8149 56.5017
L167.8149 56.2160
" />
<path d="M167.8149 56.2160
L167.8625 56.1208
" />
<path d="M167.8625 56.1208
L167.9101 56.0732
" />
<path d="M167.9101 56.0732
L168.0054 56.0256
" />
<path d="M168.0054 56.0256
L168.1482 56.0256
" />
<path d="M168.1482 56.0256
L168.2435 56.0732
" />
<path d="M168.2435 56.0732
L168.2911 56.1208
" />
<path d="M168.2911 56.1208
L168.3387 56.2160
" />
<path d="M168.3387 56.2160
L168.3387 56.5017
" />
<path d="M168.3387 56.5017
L168.2911 56.5970
" />
<path d="M168.2911 56.5970
L168.2435 56.6446
" />
<path d="M168.2435 56.6446
L168.1482 56.6922
" />
<path d="M168.1482 56.6922
L168.0054 56.6922
" />
<path d="M169.5292 55.6922
L169.5292 56.5017
" />
<path d="M169.5292 56.5017
L169.5768 56.5970
" />
<path d="M169.5768 56.5970
L169.6244 56.6446
" />
<path d="M169.6244 56.6446
L169.7197 56.6922
" />
<path d="M169.7197 56.6922
L169.9101 56.6922
" />
<path d="M169.9101 56.6922
L170.0054 56.6446
" />
<path d="M170.0054 56.6446
L170.0530 56.5970
" />
<path d="M170.0530 56.5970
L170.1006 56.5017
" />
<path d="M170.1006 56.5017
L170.1006 55.6922
" />
<path d="M170.5292 56.6446
L170.6720 56.6922
" />
<path d="M170.6720 56.6922
L170.9101 56.6922
" />
<path d="M170.9101 56.6922
L171.0054 56.6446
" />
<path d="M171.0054 56.6446
L171.0530 56.5970
" />
<path d="M171.0530 56.5970
L171.1006 56.5017
" />
<path d="M171.1006 56.5017
L171.1006 56.4065
" />
<path d="M171.1006 56.4065
L171.0530 56.3113
" />
<path d="M171.0530 56.3113
L171.0054 56.2636
" />
<path d="M171.0054 56.2636
L170.9101 56.2160
" />
<path d="M170.9101 56.2160
L170.7197 56.1684
" />
<path d="M170.7197 56.1684
L170.6244 56.1208
" />
<path d="M170.6244 56.1208
L170.5768 56.0732
" />
<path d="M170.5768 56.0732
L170.5292 55.9779
" />
<path d="M170.5292 55.9779
L170.5292 55.8827
" />
<path d="M170.5292 55.8827
L170.5768 55.7875
" />
<path d="M170.5768 55.7875
L170.6244 55.7398
" />
<path d="M170.6244 55.7398
L170.7197 55.6922
" />
<path d="M170.7197 55.6922
L170.9578 55.6922
" />
<path d="M170.9578 55.6922
L171.1006 55.7398
" />
<path d="M171.8625 56.1684
L172.0054 56.2160
" />
<path d="M172.0054 56.2160
L172.0530 56.2636
" />
<path d="M172.0530 56.2636
L172.1006 56.3589
" />
<path d="M172.1006 56.3589
L172.1006 56.5017
" />
<path d="M172.1006 56.5017
L172.0530 56.5970
" />
<path d="M172.0530 56.5970
L172.0054 56.6446
" />
<path d="M172.0054 56.6446
L171.9101 56.6922
" />
<path d="M171.9101 56.6922
L171.5292 56.6922
" />
<path d="M171.5292 56.6922
L171.5292 55.6922
" />
<path d="M171.5292 55.6922
L171.8625 55.6922
" />
<path d="M171.8625 55.6922
L171.9578 55.7398
" />
<path d="M171.9578 55.7398
L172.0054 55.7875
" />
<path d="M172.0054 55.7875
L172.0530 55.8827
" />
<path d="M172.0530 55.8827
L172.0530 55.9779
" />
<path d="M172.0530 55.9779
L172.0054 56.0732
" />
<path d="M172.0054 56.0732
L171.9578 56.1208
" />
<path d="M171.9578 56.1208
L171.8625 56.1684
" />
<path d="M171.8625 56.1684
L171.5292 56.1684
" />
<path d="M173.1482 55.6922
L173.7197 55.6922
" />
<path d="M173.4340 56.6922
L173.4340 55.6922
" />
<path d="M174.0530 56.6922
L174.0530 55.6922
" />
<path d="M174.0530 55.6922
L174.4340 55.6922
" />
<path d="M174.4340 55.6922
L174.5292 55.7398
" />
<path d="M174.5292 55.7398
L174.5768 55.7875
" />
<path d="M174.5768 55.7875
L174.6244 55.8827
" />
<path d="M174.6244 55.8827
L174.6244 56.0256
" />
<path d="M174.6244 56.0256
L174.5768 56.1208
" />
<path d="M174.5768 56.1208
L174.5292 56.1684
" />
<path d="M174.5292 56.1684
L174.4340 56.2160
" />
<path d="M174.4340 56.2160
L174.0530 56.2160
" />
</g><g transform="rotate(-90.000000 170.0022 49.0000)">
<text x="170.0022" y="49.5000"
transform="scale(-1 1) translate(-340.004400 0)"
textLength="1.8893" font-size="1.3333" lengthAdjust="spacingAndGlyphs"
text-anchor="middle" opacity="0">J5</text>
</g>
<g class="stroked-text"><desc>J5</desc>
<path d="M170.5396 48.6667
L169.8253 48.6667
" />
<path d="M169.8253 48.6667
L169.6824 48.6190
" />
<path d="M169.6824 48.6190
L169.5872 48.5238
" />
<path d="M169.5872 48.5238
L169.5396 48.3810
" />
<path d="M169.5396 48.3810
L169.5396 48.2857
" />
<path d="M170.5396 49.6190
L170.5396 49.1429
" />
<path d="M170.5396 49.1429
L170.0634 49.0952
" />
<path d="M170.0634 49.0952
L170.1110 49.1429
" />
<path d="M170.1110 49.1429
L170.1586 49.2381
" />
<path d="M170.1586 49.2381
L170.1586 49.4762
" />
<path d="M170.1586 49.4762
L170.1110 49.5714
" />
<path d="M170.1110 49.5714
L170.0634 49.6190
" />
<path d="M170.0634 49.6190
L169.9682 49.6667
" />
<path d="M169.9682 49.6667
L169.7301 49.6667
" />
<path d="M169.7301 49.6667
L169.6348 49.6190
" />
<path d="M169.6348 49.6190
L169.5872 49.5714
" />
<path d="M169.5872 49.5714
L169.5396 49.4762
" />
<path d="M169.5396 49.4762
L169.5396 49.2381
" />
<path d="M169.5396 49.2381
L169.5872 49.1429
" />
<path d="M169.5872 49.1429
L169.6348 49.0952
" />
</g><g transform="rotate(-90.000000 196.1612 49.0000)">
<text x="196.1612" y="49.5000"
transform="scale(-1 1) translate(-392.322400 0)"
textLength="3.4131" font-size="1.3333" lengthAdjust="spacingAndGlyphs"
text-anchor="middle" opacity="0">Pico</text>
</g>
<g class="stroked-text"><desc>Pico</desc>
<path d="M195.6986 47.6190
L196.6986 47.6190
" />
<path d="M196.6986 47.6190
L196.6986 48.0000
" />
<path d="M196.6986 48.0000
L196.6510 48.0952
" />
<path d="M196.6510 48.0952
L196.6033 48.1429
" />
<path d="M196.6033 48.1429
L196.5081 48.1905
" />
<path d="M196.5081 48.1905
L196.3652 48.1905
" />
<path d="M196.3652 48.1905
L196.2700 48.1429
" />
<path d="M196.2700 48.1429
L196.2224 48.0952
" />
<path d="M196.2224 48.0952
L196.1748 48.0000
" />
<path d="M196.1748 48.0000
L196.1748 47.6190
" />
<path d="M195.6986 48.6190
L196.3652 48.6190
" />
<path d="M196.6986 48.6190
L196.6510 48.5714
" />
<path d="M196.6510 48.5714
L196.6033 48.6190
" />
<path d="M196.6033 48.6190
L196.6510 48.6667
" />
<path d="M196.6510 48.6667
L196.6986 48.6190
" />
<path d="M196.6986 48.6190
L196.6033 48.6190
" />
<path d="M195.7462 49.5238
L195.6986 49.4286
" />
<path d="M195.6986 49.4286
L195.6986 49.2381
" />
<path d="M195.6986 49.2381
L195.7462 49.1429
" />
<path d="M195.7462 49.1429
L195.7938 49.0952
" />
<path d="M195.7938 49.0952
L195.8891 49.0476
" />
<path d="M195.8891 49.0476
L196.1748 49.0476
" />
<path d="M196.1748 49.0476
L196.2700 49.0952
" />
<path d="M196.2700 49.0952
L196.3176 49.1429
" />
<path d="M196.3176 49.1429
L196.3652 49.2381
" />
<path d="M196.3652 49.2381
L196.3652 49.4286
" />
<path d="M196.3652 49.4286
L196.3176 49.5238
" />
<path d="M195.6986 50.0952
L195.7462 50.0000
" />
<path d="M195.7462 50.0000
L195.7938 49.9524
" />
<path d="M195.7938 49.9524
L195.8891 49.9048
" />
<path d="M195.8891 49.9048
L196.1748 49.9048
" />
<path d="M196.1748 49.9048
L196.2700 49.9524
" />
<path d="M196.2700 49.9524
L196.3176 50.0000
" />
<path d="M196.3176 50.0000
L196.3652 50.0952
" />
<path d="M196.3652 50.0952
L196.3652 50.2381
" />
<path d="M196.3652 50.2381
L196.3176 50.3333
" />
<path d="M196.3176 50.3333
L196.2700 50.3810
" />
<path d="M196.2700 50.3810
L196.1748 50.4286
" />
<path d="M196.1748 50.4286
L195.8891 50.4286
" />
<path d="M195.8891 50.4286
L195.7938 50.3810
" />
<path d="M195.7938 50.3810
L195.7462 50.3333
" />
<path d="M195.7462 50.3333
L195.6986 50.2381
" />
<path d="M195.6986 50.2381
L195.6986 50.0952
" />
</g><g transform="rotate(-90.000000 194.0022 49.0000)">
<text x="194.0022" y="49.5000"
transform="scale(-1 1) translate(-388.004400 0)"
textLength="2.1750" font-size="1.3333" lengthAdjust="spacingAndGlyphs"
text-anchor="middle" opacity="0">U1</text>
</g>
<g class="stroked-text"><desc>U1</desc>
<path d="M194.5396 48.2381
L193.7301 48.2381
" />
<path d="M193.7301 48.2381
L193.6348 48.2857
" />
<path d="M193.6348 48.2857
L193.5872 48.3333
" />
<path d="M193.5872 48.3333
L193.5396 48.4286
" />
<path d="M193.5396 48.4286
L193.5396 48.6190
" />
<path d="M193.5396 48.6190
L193.5872 48.7143
" />
<path d="M193.5872 48.7143
L193.6348 48.7619
" />
<path d="M193.6348 48.7619
L193.7301 48.8095
" />
<path d="M193.7301 48.8095
L194.5396 48.8095
" />
<path d="M193.5396 49.8095
L193.5396 49.2381
" />
<path d="M193.5396 49.5238
L194.5396 49.5238
" />
<path d="M194.5396 49.5238
L194.3967 49.4286
" />
<path d="M194.3967 49.4286
L194.3015 49.3333
" />
<path d="M194.3015 49.3333
L194.2539 49.2381
" />
</g><text x="243.0622" y="71.9976"
transform="scale(-1 1) translate(-486.124400 0)"
textLength="10.0321" font-size="1.3333" lengthAdjust="spacingAndGlyphs"
text-anchor="middle" opacity="0">RGB_LED_EXT</text>
<g class="stroked-text"><desc>RGB_LED_EXT</desc>
<path d="M238.9432 71.9602
L238.6098 71.4840
" />
<path d="M238.3717 71.9602
L238.3717 70.9602
" />
<path d="M238.3717 70.9602
L238.7527 70.9602
" />
<path d="M238.7527 70.9602
L238.8479 71.0078
" />
<path d="M238.8479 71.0078
L238.8955 71.0555
" />
<path d="M238.8955 71.0555
L238.9432 71.1507
" />
<path d="M238.9432 71.1507
L238.9432 71.2936
" />
<path d="M238.9432 71.2936
L238.8955 71.3888
" />
<path d="M238.8955 71.3888
L238.8479 71.4364
" />
<path d="M238.8479 71.4364
L238.7527 71.4840
" />
<path d="M238.7527 71.4840
L238.3717 71.4840
" />
<path d="M239.8955 71.0078
L239.8003 70.9602
" />
<path d="M239.8003 70.9602
L239.6574 70.9602
" />
<path d="M239.6574 70.9602
L239.5146 71.0078
" />
<path d="M239.5146 71.0078
L239.4193 71.1031
" />
<path d="M239.4193 71.1031
L239.3717 71.1983
" />
<path d="M239.3717 71.1983
L239.3241 71.3888
" />
<path d="M239.3241 71.3888
L239.3241 71.5316
" />
<path d="M239.3241 71.5316
L239.3717 71.7221
" />
<path d="M239.3717 71.7221
L239.4193 71.8174
" />
<path d="M239.4193 71.8174
L239.5146 71.9126
" />
<path d="M239.5146 71.9126
L239.6574 71.9602
" />
<path d="M239.6574 71.9602
L239.7527 71.9602
" />
<path d="M239.7527 71.9602
L239.8955 71.9126
" />
<path d="M239.8955 71.9126
L239.9432 71.8650
" />
<path d="M239.9432 71.8650
L239.9432 71.5316
" />
<path d="M239.9432 71.5316
L239.7527 71.5316
" />
<path d="M240.7051 71.4364
L240.8479 71.4840
" />
<path d="M240.8479 71.4840
L240.8955 71.5316
" />
<path d="M240.8955 71.5316
L240.9432 71.6269
" />
<path d="M240.9432 71.6269
L240.9432 71.7697
" />
<path d="M240.9432 71.7697
L240.8955 71.8650
" />
<path d="M240.8955 71.8650
L240.8479 71.9126
" />
<path d="M240.8479 71.9126
L240.7527 71.9602
" />
<path d="M240.7527 71.9602
L240.3717 71.9602
" />
<path d="M240.3717 71.9602
L240.3717 70.9602
" />
<path d="M240.3717 70.9602
L240.7051 70.9602
" />
<path d="M240.7051 70.9602
L240.8003 71.0078
" />
<path d="M240.8003 71.0078
L240.8479 71.0555
" />
<path d="M240.8479 71.0555
L240.8955 71.1507
" />
<path d="M240.8955 71.1507
L240.8955 71.2459
" />
<path d="M240.8955 71.2459
L240.8479 71.3412
" />
<path d="M240.8479 71.3412
L240.8003 71.3888
" />
<path d="M240.8003 71.3888
L240.7051 71.4364
" />
<path d="M240.7051 71.4364
L240.3717 71.4364
" />
<path d="M241.1336 72.0555
L241.8955 72.0555
" />
<path d="M242.6098 71.9602
L242.1336 71.9602
" />
<path d="M242.1336 71.9602
L242.1336 70.9602
" />
<path d="M242.9432 71.4364
L243.2765 71.4364
" />
<path d="M243.4193 71.9602
L242.9432 71.9602
" />
<path d="M242.9432 71.9602
L242.9432 70.9602
" />
<path d="M242.9432 70.9602
L243.4193 70.9602
" />
<path d="M243.8479 71.9602
L243.8479 70.9602
" />
<path d="M243.8479 70.9602
L244.0860 70.9602
" />
<path d="M244.0860 70.9602
L244.2289 71.0078
" />
<path d="M244.2289 71.0078
L244.3241 71.1031
" />
<path d="M244.3241 71.1031
L244.3717 71.1983
" />
<path d="M244.3717 71.1983
L244.4193 71.3888
" />
<path d="M244.4193 71.3888
L244.4193 71.5316
" />
<path d="M244.4193 71.5316
L244.3717 71.7221
" />
<path d="M244.3717 71.7221
L244.3241 71.8174
" />
<path d="M244.3241 71.8174
L244.2289 71.9126
" />
<path d="M244.2289 71.9126
L244.0860 71.9602
" />
<path d="M244.0860 71.9602
L243.8479 71.9602
" />
<path d="M244.6098 72.0555
L245.3717 72.0555
" />
<path d="M245.6098 71.4364
L245.9432 71.4364
" />
<path d="M246.0860 71.9602
L245.6098 71.9602
" />
<path d="M245.6098 71.9602
L245.6098 70.9602
" />
<path d="M245.6098 70.9602
L246.0860 70.9602
" />
<path d="M246.4193 70.9602
L247.0860 71.9602
" />
<path d="M247.0860 70.9602
L246.4193 71.9602
" />
<path d="M247.3241 70.9602
L247.8955 70.9602
" />
<path d="M247.6098 71.9602
L247.6098 70.9602
" />
</g><text x="243.7172" y="80.7626"
transform="scale(-1 1) translate(-487.434400 0)"
textLength="1.8893" font-size="1.3333" lengthAdjust="spacingAndGlyphs"
text-anchor="middle" opacity="0">J4</text>
<g class="stroked-text"><desc>J4</desc>
<path d="M243.3839 79.7252
L243.3839 80.4395
" />
<path d="M243.3839 80.4395
L243.3362 80.5824
" />
<path d="M243.3362 80.5824
L243.2410 80.6776
" />
<path d="M243.2410 80.6776
L243.0982 80.7252
" />
<path d="M243.0982 80.7252
L243.0029 80.7252
" />
<path d="M244.2886 80.0586
L244.2886 80.7252
" />
<path d="M244.0505 79.6776
L243.8124 80.3919
" />
<path d="M243.8124 80.3919
L244.4315 80.3919
" />
</g><g transform="rotate(-90.000000 173.3022 93.7756)">
<text x="173.3022" y="94.2756"
transform="scale(-1 1) translate(-346.604400 0)"
textLength="7.6512" font-size="1.3333" lengthAdjust="spacingAndGlyphs"
text-anchor="middle" opacity="0">HiFi Berry</text>
</g>
<g class="stroked-text"><desc>HiFi Berry</desc>
<path d="M172.8396 90.2756
L173.8396 90.2756
" />
<path d="M173.3634 90.2756
L173.3634 90.8470
" />
<path d="M172.8396 90.8470
L173.8396 90.8470
" />
<path d="M172.8396 91.3232
L173.5062 91.3232
" />
<path d="M173.8396 91.3232
L173.7920 91.2756
" />
<path d="M173.7920 91.2756
L173.7443 91.3232
" />
<path d="M173.7443 91.3232
L173.7920 91.3708
" />
<path d="M173.7920 91.3708
L173.8396 91.3232
" />
<path d="M173.8396 91.3232
L173.7443 91.3232
" />
<path d="M173.3634 92.1327
L173.3634 91.7994
" />
<path d="M172.8396 91.7994
L173.8396 91.7994
" />
<path d="M173.8396 91.7994
L173.8396 92.2756
" />
<path d="M172.8396 92.6566
L173.5062 92.6566
" />
<path d="M173.8396 92.6566
L173.7920 92.6089
" />
<path d="M173.7920 92.6089
L173.7443 92.6566
" />
<path d="M173.7443 92.6566
L173.7920 92.7042
" />
<path d="M173.7920 92.7042
L173.8396 92.6566
" />
<path d="M173.8396 92.6566
L173.7443 92.6566
" />
<path d="M173.3634 94.2280
L173.3158 94.3708
" />
<path d="M173.3158 94.3708
L173.2682 94.4185
" />
<path d="M173.2682 94.4185
L173.1729 94.4661
" />
<path d="M173.1729 94.4661
L173.0301 94.4661
" />
<path d="M173.0301 94.4661
L172.9348 94.4185
" />
<path d="M172.9348 94.4185
L172.8872 94.3708
" />
<path d="M172.8872 94.3708
L172.8396 94.2756
" />
<path d="M172.8396 94.2756
L172.8396 93.8946
" />
<path d="M172.8396 93.8946
L173.8396 93.8946
" />
<path d="M173.8396 93.8946
L173.8396 94.2280
" />
<path d="M173.8396 94.2280
L173.7920 94.3232
" />
<path d="M173.7920 94.3232
L173.7443 94.3708
" />
<path d="M173.7443 94.3708
L173.6491 94.4185
" />
<path d="M173.6491 94.4185
L173.5539 94.4185
" />
<path d="M173.5539 94.4185
L173.4586 94.3708
" />
<path d="M173.4586 94.3708
L173.4110 94.3232
" />
<path d="M173.4110 94.3232
L173.3634 94.2280
" />
<path d="M173.3634 94.2280
L173.3634 93.8946
" />
<path d="M172.8872 95.2756
L172.8396 95.1804
" />
<path d="M172.8396 95.1804
L172.8396 94.9899
" />
<path d="M172.8396 94.9899
L172.8872 94.8946
" />
<path d="M172.8872 94.8946
L172.9824 94.8470
" />
<path d="M172.9824 94.8470
L173.3634 94.8470
" />
<path d="M173.3634 94.8470
L173.4586 94.8946
" />
<path d="M173.4586 94.8946
L173.5062 94.9899
" />
<path d="M173.5062 94.9899
L173.5062 95.1804
" />
<path d="M173.5062 95.1804
L173.4586 95.2756
" />
<path d="M173.4586 95.2756
L173.3634 95.3232
" />
<path d="M173.3634 95.3232
L173.2682 95.3232
" />
<path d="M173.2682 95.3232
L173.1729 94.8470
" />
<path d="M172.8396 95.7518
L173.5062 95.7518
" />
<path d="M173.3158 95.7518
L173.4110 95.7994
" />
<path d="M173.4110 95.7994
L173.4586 95.8470
" />
<path d="M173.4586 95.8470
L173.5062 95.9423
" />
<path d="M173.5062 95.9423
L173.5062 96.0375
" />
<path d="M172.8396 96.3708
L173.5062 96.3708
" />
<path d="M173.3158 96.3708
L173.4110 96.4185
" />
<path d="M173.4110 96.4185
L173.4586 96.4661
" />
<path d="M173.4586 96.4661
L173.5062 96.5613
" />
<path d="M173.5062 96.5613
L173.5062 96.6566
" />
<path d="M173.5062 96.8946
L172.8396 97.1327
" />
<path d="M173.5062 97.3708
L172.8396 97.1327
" />
<path d="M172.8396 97.1327
L172.6015 97.0375
" />
<path d="M172.6015 97.0375
L172.5539 96.9899
" />
<path d="M172.5539 96.9899
L172.5062 96.8946
" />
</g><g transform="rotate(-270.000000 204.3622 74.5900)">
<text x="204.3622" y="75.0900"
transform="scale(-1 1) translate(-408.724400 0)"
textLength="0.8893" font-size="1.3333" lengthAdjust="spacingAndGlyphs"
text-anchor="middle" opacity="0">~</text>
</g>
<g class="stroked-text"><desc>~</desc>
<path d="M204.4439 74.8519
L204.3962 74.8043
" />
<path d="M204.3962 74.8043
L204.3486 74.7090
" />
<path d="M204.3486 74.7090
L204.4439 74.5186
" />
<path d="M204.4439 74.5186
L204.3962 74.4233
" />
<path d="M204.3962 74.4233
L204.3486 74.3757
" />
</g><g transform="rotate(-270.000000 205.8622 74.5900)">
<text x="205.8622" y="75.0900"
transform="scale(-1 1) translate(-411.724400 0)"
textLength="1.9845" font-size="1.3333" lengthAdjust="spacingAndGlyphs"
text-anchor="middle" opacity="0">F2</text>
</g>
<g class="stroked-text"><desc>F2</desc>
<path d="M205.8010 74.9233
L205.8010 75.2567
" />
<path d="M206.3248 75.2567
L205.3248 75.2567
" />
<path d="M205.3248 75.2567
L205.3248 74.7805
" />
<path d="M205.4201 74.4471
L205.3724 74.3995
" />
<path d="M205.3724 74.3995
L205.3248 74.3043
" />
<path d="M205.3248 74.3043
L205.3248 74.0662
" />
<path d="M205.3248 74.0662
L205.3724 73.9710
" />
<path d="M205.3724 73.9710
L205.4201 73.9233
" />
<path d="M205.4201 73.9233
L205.5153 73.8757
" />
<path d="M205.5153 73.8757
L205.6105 73.8757
" />
<path d="M205.6105 73.8757
L205.7534 73.9233
" />
<path d="M205.7534 73.9233
L206.3248 74.4948
" />
<path d="M206.3248 74.4948
L206.3248 73.8757
" />
</g><g transform="rotate(-90.000000 239.9322 55.8350)">
<text x="239.9322" y="56.3350"
transform="scale(-1 1) translate(-479.864400 0)"
textLength="9.4607" font-size="1.3333" lengthAdjust="spacingAndGlyphs"
text-anchor="middle" opacity="0">MIDI IN/OUT</text>
</g>
<g class="stroked-text"><desc>MIDI IN/OUT</desc>
<path d="M239.4696 51.4302
L240.4696 51.4302
" />
<path d="M240.4696 51.4302
L239.7553 51.7636
" />
<path d="M239.7553 51.7636
L240.4696 52.0969
" />
<path d="M240.4696 52.0969
L239.4696 52.0969
" />
<path d="M239.4696 52.5731
L240.4696 52.5731
" />
<path d="M239.4696 53.0493
L240.4696 53.0493
" />
<path d="M240.4696 53.0493
L240.4696 53.2874
" />
<path d="M240.4696 53.2874
L240.4220 53.4302
" />
<path d="M240.4220 53.4302
L240.3267 53.5255
" />
<path d="M240.3267 53.5255
L240.2315 53.5731
" />
<path d="M240.2315 53.5731
L240.0410 53.6207
" />
<path d="M240.0410 53.6207
L239.8982 53.6207
" />
<path d="M239.8982 53.6207
L239.7077 53.5731
" />
<path d="M239.7077 53.5731
L239.6124 53.5255
" />
<path d="M239.6124 53.5255
L239.5172 53.4302
" />
<path d="M239.5172 53.4302
L239.4696 53.2874
" />
<path d="M239.4696 53.2874
L239.4696 53.0493
" />
<path d="M239.4696 54.0493
L240.4696 54.0493
" />
<path d="M239.4696 55.2874
L240.4696 55.2874
" />
<path d="M239.4696 55.7636
L240.4696 55.7636
" />
<path d="M240.4696 55.7636
L239.4696 56.3350
" />
<path d="M239.4696 56.3350
L240.4696 56.3350
" />
<path d="M240.5172 57.5255
L239.2315 56.6683
" />
<path d="M240.4696 58.0493
L240.4696 58.2398
" />
<path d="M240.4696 58.2398
L240.4220 58.3350
" />
<path d="M240.4220 58.3350
L240.3267 58.4302
" />
<path d="M240.3267 58.4302
L240.1362 58.4779
" />
<path d="M240.1362 58.4779
L239.8029 58.4779
" />
<path d="M239.8029 58.4779
L239.6124 58.4302
" />
<path d="M239.6124 58.4302
L239.5172 58.3350
" />
<path d="M239.5172 58.3350
L239.4696 58.2398
" />
<path d="M239.4696 58.2398
L239.4696 58.0493
" />
<path d="M239.4696 58.0493
L239.5172 57.9540
" />
<path d="M239.5172 57.9540
L239.6124 57.8588
" />
<path d="M239.6124 57.8588
L239.8029 57.8112
" />
<path d="M239.8029 57.8112
L240.1362 57.8112
" />
<path d="M240.1362 57.8112
L240.3267 57.8588
" />
<path d="M240.3267 57.8588
L240.4220 57.9540
" />
<path d="M240.4220 57.9540
L240.4696 58.0493
" />
<path d="M240.4696 58.9064
L239.6601 58.9064
" />
<path d="M239.6601 58.9064
L239.5648 58.9540
" />
<path d="M239.5648 58.9540
L239.5172 59.0017
" />
<path d="M239.5172 59.0017
L239.4696 59.0969
" />
<path d="M239.4696 59.0969
L239.4696 59.2874
" />
<path d="M239.4696 59.2874
L239.5172 59.3826
" />
<path d="M239.5172 59.3826
L239.5648 59.4302
" />
<path d="M239.5648 59.4302
L239.6601 59.4779
" />
<path d="M239.6601 59.4779
L240.4696 59.4779
" />
<path d="M240.4696 59.8112
L240.4696 60.3826
" />
<path d="M239.4696 60.0969
L240.4696 60.0969
" />
</g><g transform="rotate(-90.000000 231.3122 55.3900)">
<text x="231.3122" y="55.8900"
transform="scale(-1 1) translate(-462.624400 0)"
textLength="2.8417" font-size="1.3333" lengthAdjust="spacingAndGlyphs"
text-anchor="middle" opacity="0">J15</text>
</g>
<g class="stroked-text"><desc>J15</desc>
<path d="M231.8496 54.5805
L231.1353 54.5805
" />
<path d="M231.1353 54.5805
L230.9924 54.5329
" />
<path d="M230.9924 54.5329
L230.8972 54.4376
" />
<path d="M230.8972 54.4376
L230.8496 54.2948
" />
<path d="M230.8496 54.2948
L230.8496 54.1995
" />
<path d="M230.8496 55.5805
L230.8496 55.0090
" />
<path d="M230.8496 55.2948
L231.8496 55.2948
" />
<path d="M231.8496 55.2948
L231.7067 55.1995
" />
<path d="M231.7067 55.1995
L231.6115 55.1043
" />
<path d="M231.6115 55.1043
L231.5639 55.0090
" />
<path d="M231.8496 56.4852
L231.8496 56.0090
" />
<path d="M231.8496 56.0090
L231.3734 55.9614
" />
<path d="M231.3734 55.9614
L231.4210 56.0090
" />
<path d="M231.4210 56.0090
L231.4686 56.1043
" />
<path d="M231.4686 56.1043
L231.4686 56.3424
" />
<path d="M231.4686 56.3424
L231.4210 56.4376
" />
<path d="M231.4210 56.4376
L231.3734 56.4852
" />
<path d="M231.3734 56.4852
L231.2782 56.5329
" />
<path d="M231.2782 56.5329
L231.0401 56.5329
" />
<path d="M231.0401 56.5329
L230.9448 56.4852
" />
<path d="M230.9448 56.4852
L230.8972 56.4376
" />
<path d="M230.8972 56.4376
L230.8496 56.3424
" />
<path d="M230.8496 56.3424
L230.8496 56.1043
" />
<path d="M230.8496 56.1043
L230.8972 56.0090
" />
<path d="M230.8972 56.0090
L230.9448 55.9614
" />
</g></g>
<g style="fill:#000000; fill-opacity:0.0; 
stroke:#000000; stroke-width:0.1000; stroke-opacity:1; 
stroke-linecap:round; stroke-linejoin:round;">
<path d="M247.4122 107.5900
L248.6822 106.3200
" />
<path d="M197.8822 107.5900
L247.4122 107.5900
" />
<path d="M248.6822 106.3200
L248.6822 102.5100
" />
<path d="M248.6822 102.5100
L197.8822 102.5100
" />
<path d="M197.8822 102.5100
L197.8822 107.5900
" />
<path d="M184.6472 88.8900
L184.6472 98.4150
" />
<path d="M184.6472 98.4150
L184.0122 99.0500
" />
<path d="M184.0122 99.0500
L182.1072 99.0500
" />
<path d="M182.1072 88.8900
L184.6472 88.8900
" />
<path d="M182.1072 99.0500
L182.1072 88.8900
" />
<path d="M161.8622 57.4950
L161.8622 55.6750
" />
<path d="M161.2222 57.4950
L161.8622 57.4950
" />
<path d="M161.2222 57.4950
L161.2222 55.6750
" />
<path d="M159.3222 57.4950
L159.3222 55.6750
" />
<path d="M158.6822 57.4950
L159.3222 57.4950
" />
<path d="M158.6822 57.4950
L158.6822 55.6750
" />
<path d="M162.8122 55.6750
L158.3672 55.6750
" />
<path d="M158.3672 55.6750
L157.7322 55.0400
" />
<path d="M157.7322 55.0400
L157.7322 53.1350
" />
<path d="M162.8122 53.1350
L162.8122 55.6750
" />
<path d="M161.8622 53.1350
L161.8622 47.1350
" />
<path d="M161.2222 53.1350
L161.2222 47.1350
" />
<path d="M159.3222 53.1350
L159.3222 47.1350
" />
<path d="M158.6822 53.1350
L158.6822 47.1350
" />
<path d="M157.7322 53.1350
L162.8122 53.1350
" />
<path d="M161.2222 47.1350
L161.8622 47.1350
" />
<path d="M158.6822 47.1350
L159.3222 47.1350
" />
</g>
<g style="fill:#000000; fill-opacity:0.0; 
stroke:#000000; stroke-width:0.1200; stroke-opacity:1; 
stroke-linecap:round; stroke-linejoin:round;">
<path d="M219.5022 59.5000
L168.5022 59.5000
" />
<path d="M169.8022 59.5000
L168.5022 58.2000
" />
<path d="M168.5022 59.5000
L168.5022 38.5000
" />
<path d="M219.5022 38.5000
L219.5022 59.5000
" />
<path d="M168.5022 38.5000
L219.5022 38.5000
" />
</g>
<g style="fill:#000000; fill-opacity:0.0; 
stroke:#000000; stroke-width:0.1000; stroke-opacity:1; 
stroke-linecap:round; stroke-linejoin:round;">
<path d="M246.5372 83.2826
L246.5372 81.4626
" />
<path d="M245.8972 83.2826
L246.5372 83.2826
" />
<path d="M245.8972 83.2826
L245.8972 81.4626
" />
<path d="M243.9972 83.2826
L243.9972 81.4626
" />
<path d="M243.3572 83.2826
L243.9972 83.2826
" />
<path d="M243.3572 83.2826
L243.3572 81.4626
" />
<path d="M241.4572 83.2826
L241.4572 81.4626
" />
<path d="M240.8172 83.2826
L241.4572 83.2826
" />
<path d="M240.8172 83.2826
L240.8172 81.4626
" />
<path d="M247.4872 81.4626
L240.5022 81.4626
" />
<path d="M240.5022 81.4626
L239.8672 80.8276
" />
<path d="M239.8672 80.8276
L239.8672 78.9226
" />
<path d="M247.4872 78.9226
L247.4872 81.4626
" />
<path d="M246.5372 78.9226
L246.5372 72.9226
" />
<path d="M245.8972 78.9226
L245.8972 72.9226
" />
<path d="M243.9972 78.9226
L243.9972 72.9226
" />
<path d="M243.3572 78.9226
L243.3572 72.9226
" />
<path d="M241.4572 78.9226
L241.4572 72.9226
" />
<path d="M240.8172 78.9226
L240.8172 72.9226
" />
<path d="M239.8672 78.9226
L247.4872 78.9226
" />
<path d="M245.8972 72.9226
L246.5372 72.9226
" />
<path d="M243.3572 72.9226
L243.9972 72.9226
" />
<path d="M240.8172 72.9226
L241.4572 72.9226
" />
<path d="M138.2722 122.9606
L145.8922 122.9606
" />
<path d="M138.2722 117.8806
L138.2722 122.9606
" />
<path d="M139.1772 81.1956
L144.2572 81.1956
" />
<path d="M139.1772 74.5756
L139.1772 81.1956
" />
<path d="M140.1772 73.5756
L139.1772 74.5756
" />
<path d="M144.2572 81.1956
L144.2572 73.5756
" />
<path d="M144.2572 73.5756
L140.1772 73.5756
" />
<path d="M144.8922 117.8806
L138.2722 117.8806
" />
<path d="M145.8922 122.9606
L145.8922 118.8806
" />
<path d="M145.8922 118.8806
L144.8922 117.8806
" />
<path d="M175.4822 117.9056
L180.5622 117.9056
" />
<path d="M175.4822 68.1056
L175.4822 117.9056
" />
<path d="M176.4822 67.1056
L175.4822 68.1056
" />
<path d="M180.5622 117.9056
L180.5622 67.1056
" />
<path d="M180.5622 67.1056
L176.4822 67.1056
" />
<path d="M225.6822 58.2500
L230.0422 58.2500
" />
<path d="M225.6822 57.6100
L225.6822 58.2500
" />
<path d="M225.6822 57.6100
L230.0422 57.6100
" />
<path d="M225.6822 55.7100
L230.0422 55.7100
" />
<path d="M225.6822 55.0700
L225.6822 55.7100
" />
<path d="M225.6822 55.0700
L230.0422 55.0700
" />
<path d="M225.6822 53.1700
L230.0422 53.1700
" />
<path d="M225.6822 52.5300
L225.6822 53.1700
" />
<path d="M225.6822 52.5300
L230.0422 52.5300
" />
<path d="M230.0422 59.2000
L230.0422 52.2150
" />
<path d="M230.0422 52.2150
L230.6772 51.5800
" />
<path d="M230.6772 51.5800
L232.5822 51.5800
" />
<path d="M232.5822 59.2000
L230.0422 59.2000
" />
<path d="M232.5822 58.2500
L238.5822 58.2500
" />
<path d="M232.5822 57.6100
L238.5822 57.6100
" />
<path d="M232.5822 55.7100
L238.5822 55.7100
" />
<path d="M232.5822 55.0700
L238.5822 55.0700
" />
<path d="M232.5822 53.1700
L238.5822 53.1700
" />
<path d="M232.5822 52.5300
L238.5822 52.5300
" />
<path d="M232.5822 51.5800
L232.5822 59.2000
" />
<path d="M238.5822 57.6100
L238.5822 58.2500
" />
<path d="M238.5822 55.0700
L238.5822 55.7100
" />
<path d="M238.5822 52.5300
L238.5822 53.1700
" />
<g >
</g>
<g >
</g>
<g >
</g>
<g >
</g>
<g >
</g>
<g >
</g>
<g >
</g>
<g >
</g>
<g >
</g>
<g >
</g>
<g >
</g>
<g >
</g>
<g >
</g>
<g >
</g>
<g >
</g>
<g >
</g>
<g >
</g>
<g >
</g>
<g >
</g>
<g >
</g>
<g >
</g>
<g >
</g>
<g >
</g>
<g >
</g>
<g >
</g>
<g >
</g>
<g >
</g>
<g >
</g>
<g >
</g>
<g >
</g>
<g >
</g>
<g >
</g>
<g >
</g>
<g >
</g>
<g >
</g>
<g >
</g>
<g >
</g>
<g >
</g>
<g >
</g>
<g >
</g>
<g >
</g>
<g >
</g>
<g >
</g>
<g >
</g>
<g >
</g>
<g >
</g>
<g >
</g>
<g >
</g>
<g >
</g>
<g >
</g>
<g >
</g>
<g >
</g>
<g >
</g>
<g >
</g>
<g >
</g>
<g >
</g>
<g >
</g>
<g >
</g>
<g >
</g>
<g >
</g>
<g >
</g>
<g >
</g>
<g >
</g>
<g >
</g>
<g >
</g>
<g >
</g>
<g >
</g>
<g >
</g>
<g >
</g>
<g >
</g>
<g >
</g>
<g >
</g>
<g >
</g>
<g >
</g>
<g >
</g>
<g >
</g>
<g >
</g>
<g >
</g>
<g >
</g>
<g >
</g>
<g >
</g>
<g >
</g>
<g >
</g>
<g >
</g>
<g >
</g>
<g >
</g>
<g >
</g>
</g> 
</svg>
