G04 #@! TF.GenerationSoftware,KiCad,Pcbnew,7.0.5.1-1-g8f565ef7f0-dirty-deb11*
G04 #@! TF.CreationDate,2023-06-12T15:27:03+00:00*
G04 #@! TF.ProjectId,pedalboard-hw,70656461-6c62-46f6-9172-642d68772e6b,2.0.0*
G04 #@! TF.SameCoordinates,Original*
G04 #@! TF.FileFunction,Soldermask,Top*
G04 #@! TF.FilePolarity,Negative*
%FSLAX46Y46*%
G04 Gerber Fmt 4.6, Leading zero omitted, Abs format (unit mm)*
G04 Created by KiCad (PCBNEW 7.0.5.1-1-g8f565ef7f0-dirty-deb11) date 2023-06-12 15:27:03*
%MOMM*%
%LPD*%
G01*
G04 APERTURE LIST*
%ADD10C,1.600000*%
%ADD11O,1.200000X2.200000*%
%ADD12O,2.200000X1.200000*%
%ADD13C,2.700000*%
%ADD14C,3.000000*%
%ADD15R,4.400000X1.800000*%
%ADD16O,4.000000X1.800000*%
%ADD17O,1.800000X4.000000*%
%ADD18R,1.350000X1.350000*%
%ADD19O,1.350000X1.350000*%
%ADD20O,1.600000X1.600000*%
%ADD21R,1.000000X2.000000*%
%ADD22O,1.000000X2.000000*%
%ADD23R,2.250000X2.250000*%
%ADD24C,2.250000*%
%ADD25R,1.700000X1.700000*%
%ADD26O,1.700000X1.700000*%
%ADD27C,0.600000*%
%ADD28O,3.000000X2.500000*%
%ADD29R,2.400000X1.600000*%
%ADD30O,2.400000X1.600000*%
%ADD31C,2.600000*%
%ADD32R,2.000000X2.000000*%
%ADD33C,2.000000*%
%ADD34C,3.200000*%
%ADD35R,1.600000X1.600000*%
%ADD36R,3.200000X3.200000*%
%ADD37O,3.200000X3.200000*%
%ADD38R,2.200000X2.200000*%
%ADD39O,2.200000X2.200000*%
%ADD40C,1.350000*%
G04 APERTURE END LIST*
D10*
X126800000Y78300000D03*
X126800000Y75800000D03*
D11*
X101000000Y95500000D03*
X98500000Y95500000D03*
D12*
X96000000Y100500000D03*
D11*
X91000000Y95500000D03*
X93500000Y95500000D03*
D13*
X113000000Y102000000D03*
D14*
X8050000Y13800000D03*
X8050000Y30030000D03*
X1700000Y13800000D03*
X1700000Y30030000D03*
X14400000Y13800000D03*
X14400000Y30030000D03*
D10*
X138637600Y80400000D03*
X143637600Y80400000D03*
D15*
X159400000Y94600000D03*
D16*
X159400000Y100400000D03*
D17*
X154600000Y97600000D03*
D13*
X10000000Y6000000D03*
D18*
X21000000Y59000000D03*
D19*
X21000000Y57000000D03*
X19000000Y59000000D03*
X19000000Y57000000D03*
D10*
X110700000Y78180000D03*
D20*
X110700000Y68020000D03*
D21*
X95600000Y77000000D03*
D22*
X96870000Y77000000D03*
X98140000Y77000000D03*
X99410000Y77000000D03*
D13*
X85000000Y58000000D03*
X10000000Y58000000D03*
D14*
X8085000Y34000000D03*
X8085000Y50230000D03*
X1735000Y34000000D03*
X1735000Y50230000D03*
X14435000Y34000000D03*
X14435000Y50230000D03*
D23*
X124960000Y53480000D03*
D24*
X117340000Y53480000D03*
X112260000Y53480000D03*
X104640000Y33160000D03*
X114800000Y33160000D03*
X124960000Y33160000D03*
D14*
X161950000Y30005000D03*
X161950000Y13775000D03*
X168300000Y30005000D03*
X168300000Y13775000D03*
X155600000Y30005000D03*
X155600000Y13775000D03*
G36*
G01*
X73527000Y11419000D02*
X73527000Y12181000D01*
G75*
G02*
X73908000Y12562000I381000J0D01*
G01*
X75432000Y12562000D01*
G75*
G02*
X75813000Y12181000I0J-381000D01*
G01*
X75813000Y11419000D01*
G75*
G02*
X75432000Y11038000I-381000J0D01*
G01*
X73908000Y11038000D01*
G75*
G02*
X73527000Y11419000I0J381000D01*
G01*
G37*
G36*
G01*
X76127000Y11419000D02*
X76127000Y12181000D01*
G75*
G02*
X76508000Y12562000I381000J0D01*
G01*
X78032000Y12562000D01*
G75*
G02*
X78413000Y12181000I0J-381000D01*
G01*
X78413000Y11419000D01*
G75*
G02*
X78032000Y11038000I-381000J0D01*
G01*
X76508000Y11038000D01*
G75*
G02*
X76127000Y11419000I0J381000D01*
G01*
G37*
D21*
X120600000Y77000000D03*
D22*
X121870000Y77000000D03*
X123140000Y77000000D03*
X124410000Y77000000D03*
D10*
X89310000Y20070000D03*
X89310000Y17570000D03*
D21*
X83100000Y19000000D03*
D22*
X84370000Y19000000D03*
X85640000Y19000000D03*
X86910000Y19000000D03*
D13*
X98980000Y3480000D03*
D18*
X149000000Y5000000D03*
D19*
X149000000Y7000000D03*
X151000000Y5000000D03*
X151000000Y7000000D03*
D25*
X29590000Y18680000D03*
D26*
X29590000Y21220000D03*
X32130000Y18680000D03*
X32130000Y21220000D03*
X34670000Y18680000D03*
X34670000Y21220000D03*
X37210000Y18680000D03*
X37210000Y21220000D03*
X39750000Y18680000D03*
X39750000Y21220000D03*
X42290000Y18680000D03*
X42290000Y21220000D03*
X44830000Y18680000D03*
X44830000Y21220000D03*
X47370000Y18680000D03*
X47370000Y21220000D03*
X49910000Y18680000D03*
X49910000Y21220000D03*
X52450000Y18680000D03*
X52450000Y21220000D03*
X54990000Y18680000D03*
X54990000Y21220000D03*
X57530000Y18680000D03*
X57530000Y21220000D03*
X60070000Y18680000D03*
X60070000Y21220000D03*
X62610000Y18680000D03*
X62610000Y21220000D03*
X65150000Y18680000D03*
X65150000Y21220000D03*
X67690000Y18680000D03*
X67690000Y21220000D03*
X70230000Y18680000D03*
X70230000Y21220000D03*
X72770000Y18680000D03*
X72770000Y21220000D03*
X75310000Y18680000D03*
X75310000Y21220000D03*
X77850000Y18680000D03*
X77850000Y21220000D03*
D10*
X141620000Y17700000D03*
X141620000Y20200000D03*
D27*
X60100000Y103925000D03*
X60100000Y102925000D03*
X60100000Y101925000D03*
X60100000Y100925000D03*
X60100000Y99925000D03*
X60100000Y98925000D03*
X60100000Y94925000D03*
X60100000Y93925000D03*
X60100000Y92925000D03*
X60100000Y91925000D03*
X60100000Y90925000D03*
X60100000Y89925000D03*
X60100000Y88925000D03*
X61100000Y88925000D03*
X62100000Y88925000D03*
X63100000Y88925000D03*
X64100000Y88925000D03*
X65100000Y88925000D03*
X66100000Y88925000D03*
X67100000Y88925000D03*
X68100000Y88925000D03*
X70100000Y88925000D03*
X71100000Y88925000D03*
X72100000Y88925000D03*
X73100000Y88925000D03*
X74100000Y88925000D03*
X75100000Y88925000D03*
X76100000Y88925000D03*
X77100000Y88925000D03*
X78100000Y88925000D03*
X80100000Y88925000D03*
X81100000Y88925000D03*
X82100000Y88925000D03*
X83100000Y88925000D03*
X84100000Y88925000D03*
X85100000Y88925000D03*
X86100000Y88925000D03*
X87100000Y88925000D03*
X88100000Y88925000D03*
X89100000Y88925000D03*
X90100000Y88925000D03*
X92100000Y88925000D03*
X93100000Y88925000D03*
X94100000Y88925000D03*
X95100000Y88925000D03*
X96100000Y88925000D03*
X97100000Y88925000D03*
X98100000Y88925000D03*
X99100000Y88925000D03*
X100100000Y88925000D03*
X102100000Y88925000D03*
X103100000Y88925000D03*
X104100000Y88925000D03*
X105100000Y88925000D03*
X106100000Y88925000D03*
X107100000Y88925000D03*
X108100000Y88925000D03*
X109100000Y88925000D03*
X110100000Y103925000D03*
X110100000Y102925000D03*
X110100000Y101925000D03*
X110100000Y100925000D03*
X110100000Y99925000D03*
X110100000Y98925000D03*
X110100000Y97925000D03*
X110100000Y96925000D03*
X110100000Y95925000D03*
X110100000Y94925000D03*
X110100000Y93925000D03*
X110100000Y92925000D03*
X110100000Y91925000D03*
X110100000Y90925000D03*
X110100000Y89925000D03*
X110100000Y88925000D03*
D18*
X21000000Y7000000D03*
D19*
X21000000Y5000000D03*
X19000000Y7000000D03*
X19000000Y5000000D03*
D10*
X24155000Y23300000D03*
X24155000Y25800000D03*
D28*
X78750000Y60500000D03*
X91250000Y60500000D03*
X78750000Y55500000D03*
X91250000Y55500000D03*
D21*
X22100000Y46000000D03*
D22*
X23370000Y46000000D03*
X24640000Y46000000D03*
X25910000Y46000000D03*
D18*
X74000000Y57000000D03*
D19*
X74000000Y59000000D03*
X76000000Y57000000D03*
X76000000Y59000000D03*
D10*
X54575000Y71895000D03*
D20*
X54575000Y82055000D03*
D29*
X49475000Y59200000D03*
D30*
X49475000Y61740000D03*
X49475000Y64280000D03*
X41855000Y64280000D03*
X41855000Y61740000D03*
X41855000Y59200000D03*
D13*
X57000000Y102000000D03*
D31*
X141900000Y74700000D03*
X141900000Y69700000D03*
D14*
X161965000Y91200000D03*
X161965000Y74970000D03*
X168315000Y91200000D03*
X168315000Y74970000D03*
X155615000Y91200000D03*
X155615000Y74970000D03*
D10*
X43475000Y81300000D03*
X45975000Y81300000D03*
G36*
X87946312Y91714079D02*
G01*
X87214079Y92446312D01*
X87199200Y92482233D01*
X87199200Y93517767D01*
X87214079Y93553688D01*
X87946312Y94285921D01*
X87982233Y94300800D01*
X89017767Y94300800D01*
X89053688Y94285921D01*
X89785921Y93553688D01*
X89800800Y93517767D01*
X89800800Y92482233D01*
X89785921Y92446312D01*
X89053688Y91714079D01*
X89017767Y91699200D01*
X87982233Y91699200D01*
X87946312Y91714079D01*
G37*
G36*
X97285921Y92446312D02*
G01*
X96553688Y91714079D01*
X96517767Y91699200D01*
X95482233Y91699200D01*
X95446312Y91714079D01*
X94714079Y92446312D01*
X94699200Y92482233D01*
X94699200Y93517767D01*
X94714079Y93553688D01*
X95446312Y94285921D01*
X95482233Y94300800D01*
X96517767Y94300800D01*
X96553688Y94285921D01*
X97285921Y93553688D01*
X97300800Y93517767D01*
X97300800Y92482233D01*
X97285921Y92446312D01*
G37*
G36*
X102946312Y91714079D02*
G01*
X102214079Y92446312D01*
X102199200Y92482233D01*
X102199200Y93517767D01*
X102214079Y93553688D01*
X102946312Y94285921D01*
X102982233Y94300800D01*
X104017767Y94300800D01*
X104053688Y94285921D01*
X104785921Y93553688D01*
X104800800Y93517767D01*
X104800800Y92482233D01*
X104785921Y92446312D01*
X104053688Y91714079D01*
X104017767Y91699200D01*
X102982233Y91699200D01*
X102946312Y91714079D01*
G37*
G36*
X90446312Y89214079D02*
G01*
X89714079Y89946312D01*
X89699200Y89982233D01*
X89699200Y91017767D01*
X89714079Y91053688D01*
X90446312Y91785921D01*
X90482233Y91800800D01*
X91517767Y91800800D01*
X91553688Y91785921D01*
X92285921Y91053688D01*
X92300800Y91017767D01*
X92300800Y89982233D01*
X92285921Y89946312D01*
X91553688Y89214079D01*
X91517767Y89199200D01*
X90482233Y89199200D01*
X90446312Y89214079D01*
G37*
G36*
X100446312Y89214079D02*
G01*
X99714079Y89946312D01*
X99699200Y89982233D01*
X99699200Y91017767D01*
X99714079Y91053688D01*
X100446312Y91785921D01*
X100482233Y91800800D01*
X101517767Y91800800D01*
X101553688Y91785921D01*
X102285921Y91053688D01*
X102300800Y91017767D01*
X102300800Y89982233D01*
X102285921Y89946312D01*
X101553688Y89214079D01*
X101517767Y89199200D01*
X100482233Y89199200D01*
X100446312Y89214079D01*
G37*
G36*
X97564079Y101964079D02*
G01*
X97549200Y102000000D01*
X97549200Y103100000D01*
X97564079Y103135921D01*
X98464079Y104035921D01*
X98500000Y104050800D01*
X99400000Y104050800D01*
X99435921Y104035921D01*
X99450800Y104000000D01*
X99450800Y102000000D01*
X99435921Y101964079D01*
X99400000Y101949200D01*
X97600000Y101949200D01*
X97564079Y101964079D01*
G37*
G36*
G01*
X101950800Y104000000D02*
X101950800Y102000000D01*
G75*
G02*
X101900000Y101949200I-50800J0D01*
G01*
X100100000Y101949200D01*
G75*
G02*
X100049200Y102000000I0J50800D01*
G01*
X100049200Y104000000D01*
G75*
G02*
X100100000Y104050800I50800J0D01*
G01*
X101900000Y104050800D01*
G75*
G02*
X101950800Y104000000I0J-50800D01*
G01*
G37*
G36*
G01*
X91950800Y104000000D02*
X91950800Y102000000D01*
G75*
G02*
X91900000Y101949200I-50800J0D01*
G01*
X90100000Y101949200D01*
G75*
G02*
X90049200Y102000000I0J50800D01*
G01*
X90049200Y104000000D01*
G75*
G02*
X90100000Y104050800I50800J0D01*
G01*
X91900000Y104050800D01*
G75*
G02*
X91950800Y104000000I0J-50800D01*
G01*
G37*
G36*
X92564079Y101964079D02*
G01*
X92549200Y102000000D01*
X92549200Y104000000D01*
X92564079Y104035921D01*
X92600000Y104050800D01*
X93500000Y104050800D01*
X93535921Y104035921D01*
X94435921Y103135921D01*
X94450800Y103100000D01*
X94450800Y102000000D01*
X94435921Y101964079D01*
X94400000Y101949200D01*
X92600000Y101949200D01*
X92564079Y101964079D01*
G37*
D21*
X70600000Y77000000D03*
D22*
X71870000Y77000000D03*
X73140000Y77000000D03*
X74410000Y77000000D03*
D32*
X40250000Y93500000D03*
D33*
X40250000Y88500000D03*
X40250000Y91000000D03*
D34*
X47750000Y96600000D03*
X47750000Y85400000D03*
D33*
X54750000Y88500000D03*
X54750000Y93500000D03*
D10*
X48750000Y81325000D03*
X51250000Y81325000D03*
X144570000Y41700000D03*
X147070000Y41700000D03*
D32*
X124100000Y64067677D03*
D33*
X124100000Y59067677D03*
D18*
X149000000Y57000000D03*
D19*
X149000000Y59000000D03*
X151000000Y57000000D03*
X151000000Y59000000D03*
D13*
X160000000Y58000000D03*
D10*
X58280000Y56020000D03*
D20*
X48120000Y56020000D03*
D32*
X115600000Y61600000D03*
D33*
X110600000Y61600000D03*
D21*
X45600000Y77000000D03*
D22*
X46870000Y77000000D03*
X48140000Y77000000D03*
X49410000Y77000000D03*
D10*
X71250000Y72600000D03*
X73750000Y72600000D03*
D14*
X161950000Y50220000D03*
X161950000Y33990000D03*
X168300000Y50220000D03*
X168300000Y33990000D03*
X155600000Y50220000D03*
X155600000Y33990000D03*
D13*
X85000000Y6000000D03*
D28*
X3750000Y60500000D03*
X16250000Y60500000D03*
X3750000Y55500000D03*
X16250000Y55500000D03*
D10*
X109650000Y81530000D03*
X112150000Y81530000D03*
X27695000Y61950000D03*
D20*
X37855000Y61950000D03*
D32*
X140532323Y87500000D03*
D33*
X145532323Y87500000D03*
D18*
X84000000Y17000000D03*
D19*
X86000000Y17000000D03*
X84000000Y15000000D03*
X86000000Y15000000D03*
D21*
X144100000Y46000000D03*
D22*
X145370000Y46000000D03*
X146640000Y46000000D03*
X147910000Y46000000D03*
D10*
X61190000Y55660000D03*
D20*
X71350000Y55660000D03*
D21*
X22100000Y19000000D03*
D22*
X23370000Y19000000D03*
X24640000Y19000000D03*
X25910000Y19000000D03*
D10*
X56600000Y69730000D03*
D20*
X56600000Y59570000D03*
D10*
X126500000Y69300000D03*
X121500000Y69300000D03*
D35*
X53700000Y59225000D03*
D20*
X53700000Y66845000D03*
D10*
X96150000Y72700000D03*
X98650000Y72700000D03*
D36*
X134700000Y79100000D03*
D37*
X134700000Y94340000D03*
D10*
X71280000Y62425000D03*
D20*
X61120000Y62425000D03*
D10*
X151900000Y95200000D03*
X146900000Y95200000D03*
D13*
X98900000Y61434400D03*
D10*
X131700000Y67800000D03*
X131700000Y62800000D03*
D21*
X144100000Y19000000D03*
D22*
X145370000Y19000000D03*
X146640000Y19000000D03*
X147910000Y19000000D03*
D28*
X153750000Y8500000D03*
X166250000Y8500000D03*
X153750000Y3500000D03*
X166250000Y3500000D03*
D13*
X160000000Y6000000D03*
D28*
X153750000Y60500000D03*
X166250000Y60500000D03*
X153750000Y55500000D03*
X166250000Y55500000D03*
D10*
X83200000Y50300000D03*
X85700000Y50300000D03*
D28*
X3750000Y8500000D03*
X16250000Y8500000D03*
X3750000Y3500000D03*
X16250000Y3500000D03*
D13*
X148000000Y102000000D03*
D10*
X71350000Y59020000D03*
D20*
X61190000Y59020000D03*
D32*
X115250000Y93500000D03*
D33*
X115250000Y88500000D03*
X115250000Y91000000D03*
D34*
X122750000Y96600000D03*
X122750000Y85400000D03*
D33*
X129750000Y88500000D03*
X129750000Y93500000D03*
D10*
X27695000Y58950000D03*
D20*
X37855000Y58950000D03*
D28*
X78750000Y8500000D03*
X91250000Y8500000D03*
X78750000Y3500000D03*
X91250000Y3500000D03*
D10*
X136200000Y60300000D03*
X136200000Y65300000D03*
G36*
X65951812Y91714079D02*
G01*
X65219579Y92446312D01*
X65204700Y92482233D01*
X65204700Y93517767D01*
X65219579Y93553688D01*
X65951812Y94285921D01*
X65987733Y94300800D01*
X67023267Y94300800D01*
X67059188Y94285921D01*
X67791421Y93553688D01*
X67806300Y93517767D01*
X67806300Y92482233D01*
X67791421Y92446312D01*
X67059188Y91714079D01*
X67023267Y91699200D01*
X65987733Y91699200D01*
X65951812Y91714079D01*
G37*
G36*
X75291421Y92446312D02*
G01*
X74559188Y91714079D01*
X74523267Y91699200D01*
X73487733Y91699200D01*
X73451812Y91714079D01*
X72719579Y92446312D01*
X72704700Y92482233D01*
X72704700Y93517767D01*
X72719579Y93553688D01*
X73451812Y94285921D01*
X73487733Y94300800D01*
X74523267Y94300800D01*
X74559188Y94285921D01*
X75291421Y93553688D01*
X75306300Y93517767D01*
X75306300Y92482233D01*
X75291421Y92446312D01*
G37*
G36*
X80951812Y91714079D02*
G01*
X80219579Y92446312D01*
X80204700Y92482233D01*
X80204700Y93517767D01*
X80219579Y93553688D01*
X80951812Y94285921D01*
X80987733Y94300800D01*
X82023267Y94300800D01*
X82059188Y94285921D01*
X82791421Y93553688D01*
X82806300Y93517767D01*
X82806300Y92482233D01*
X82791421Y92446312D01*
X82059188Y91714079D01*
X82023267Y91699200D01*
X80987733Y91699200D01*
X80951812Y91714079D01*
G37*
G36*
X68451812Y89214079D02*
G01*
X67719579Y89946312D01*
X67704700Y89982233D01*
X67704700Y91017767D01*
X67719579Y91053688D01*
X68451812Y91785921D01*
X68487733Y91800800D01*
X69523267Y91800800D01*
X69559188Y91785921D01*
X70291421Y91053688D01*
X70306300Y91017767D01*
X70306300Y89982233D01*
X70291421Y89946312D01*
X69559188Y89214079D01*
X69523267Y89199200D01*
X68487733Y89199200D01*
X68451812Y89214079D01*
G37*
G36*
X78451812Y89214079D02*
G01*
X77719579Y89946312D01*
X77704700Y89982233D01*
X77704700Y91017767D01*
X77719579Y91053688D01*
X78451812Y91785921D01*
X78487733Y91800800D01*
X79523267Y91800800D01*
X79559188Y91785921D01*
X80291421Y91053688D01*
X80306300Y91017767D01*
X80306300Y89982233D01*
X80291421Y89946312D01*
X79559188Y89214079D01*
X79523267Y89199200D01*
X78487733Y89199200D01*
X78451812Y89214079D01*
G37*
G36*
X75569579Y101964079D02*
G01*
X75554700Y102000000D01*
X75554700Y103100000D01*
X75569579Y103135921D01*
X76469579Y104035921D01*
X76505500Y104050800D01*
X77405500Y104050800D01*
X77441421Y104035921D01*
X77456300Y104000000D01*
X77456300Y102000000D01*
X77441421Y101964079D01*
X77405500Y101949200D01*
X75605500Y101949200D01*
X75569579Y101964079D01*
G37*
G36*
G01*
X79956300Y104000000D02*
X79956300Y102000000D01*
G75*
G02*
X79905500Y101949200I-50800J0D01*
G01*
X78105500Y101949200D01*
G75*
G02*
X78054700Y102000000I0J50800D01*
G01*
X78054700Y104000000D01*
G75*
G02*
X78105500Y104050800I50800J0D01*
G01*
X79905500Y104050800D01*
G75*
G02*
X79956300Y104000000I0J-50800D01*
G01*
G37*
G36*
G01*
X69956300Y104000000D02*
X69956300Y102000000D01*
G75*
G02*
X69905500Y101949200I-50800J0D01*
G01*
X68105500Y101949200D01*
G75*
G02*
X68054700Y102000000I0J50800D01*
G01*
X68054700Y104000000D01*
G75*
G02*
X68105500Y104050800I50800J0D01*
G01*
X69905500Y104050800D01*
G75*
G02*
X69956300Y104000000I0J-50800D01*
G01*
G37*
G36*
X70569579Y101964079D02*
G01*
X70554700Y102000000D01*
X70554700Y104000000D01*
X70569579Y104035921D01*
X70605500Y104050800D01*
X71505500Y104050800D01*
X71541421Y104035921D01*
X72441421Y103135921D01*
X72456300Y103100000D01*
X72456300Y102000000D01*
X72441421Y101964079D01*
X72405500Y101949200D01*
X70605500Y101949200D01*
X70569579Y101964079D01*
G37*
X24355000Y52800000D03*
X24355000Y50300000D03*
G36*
G01*
X168549000Y8337000D02*
X169311000Y8337000D01*
G75*
G02*
X169692000Y7956000I0J-381000D01*
G01*
X169692000Y6432000D01*
G75*
G02*
X169311000Y6051000I-381000J0D01*
G01*
X168549000Y6051000D01*
G75*
G02*
X168168000Y6432000I0J381000D01*
G01*
X168168000Y7956000D01*
G75*
G02*
X168549000Y8337000I381000J0D01*
G01*
G37*
G36*
G01*
X168549000Y5737000D02*
X169311000Y5737000D01*
G75*
G02*
X169692000Y5356000I0J-381000D01*
G01*
X169692000Y3832000D01*
G75*
G02*
X169311000Y3451000I-381000J0D01*
G01*
X168549000Y3451000D01*
G75*
G02*
X168168000Y3832000I0J381000D01*
G01*
X168168000Y5356000D01*
G75*
G02*
X168549000Y5737000I381000J0D01*
G01*
G37*
D38*
X129606000Y81921600D03*
D39*
X129606000Y71761600D03*
D21*
X83100000Y46000000D03*
D22*
X84370000Y46000000D03*
X85640000Y46000000D03*
X86910000Y46000000D03*
D10*
X39500000Y84555000D03*
D20*
X39500000Y74395000D03*
D11*
X79000000Y95500000D03*
X76500000Y95500000D03*
D12*
X74000000Y100500000D03*
D11*
X69000000Y95500000D03*
X71500000Y95500000D03*
D25*
X93625000Y27220000D03*
D26*
X93625000Y29760000D03*
X93625000Y32300000D03*
X93625000Y34840000D03*
D25*
X118000000Y67825000D03*
D26*
X115460000Y67825000D03*
D40*
X107000000Y77000000D03*
D19*
X107000000Y75000000D03*
D26*
X107130000Y67110000D03*
X104590000Y67110000D03*
D25*
X102050000Y67110000D03*
D26*
X99510000Y67110000D03*
X96970000Y67110000D03*
X94430000Y67110000D03*
X91890000Y67110000D03*
D25*
X89350000Y67110000D03*
D26*
X86810000Y67110000D03*
X84270000Y67110000D03*
X81730000Y67110000D03*
X79190000Y67110000D03*
D25*
X76650000Y67110000D03*
D26*
X74110000Y67110000D03*
X71570000Y67110000D03*
X69030000Y67110000D03*
X66490000Y67110000D03*
D25*
X63950000Y67110000D03*
D26*
X61410000Y67110000D03*
X58870000Y67110000D03*
X58870000Y84890000D03*
X61410000Y84890000D03*
D25*
X63950000Y84890000D03*
D26*
X66490000Y84890000D03*
X69030000Y84890000D03*
X71570000Y84890000D03*
X74110000Y84890000D03*
D25*
X76650000Y84890000D03*
D26*
X79190000Y84890000D03*
X81730000Y84890000D03*
X84270000Y84890000D03*
X86810000Y84890000D03*
D25*
X89350000Y84890000D03*
D26*
X91890000Y84890000D03*
X94430000Y84890000D03*
X96970000Y84890000D03*
X99510000Y84890000D03*
D25*
X102050000Y84890000D03*
D26*
X104590000Y84890000D03*
X107130000Y84890000D03*
D25*
X35865000Y42037400D03*
D26*
X33325000Y42037400D03*
X30785000Y42037400D03*
D25*
X100250000Y56624400D03*
D26*
X97710000Y56624400D03*
X100250000Y54084400D03*
X97710000Y54084400D03*
X100250000Y51544400D03*
X97710000Y51544400D03*
X100250000Y49004400D03*
X97710000Y49004400D03*
X100250000Y46464400D03*
X97710000Y46464400D03*
X100250000Y43924400D03*
X97710000Y43924400D03*
X100250000Y41384400D03*
X97710000Y41384400D03*
X100250000Y38844400D03*
X97710000Y38844400D03*
X100250000Y36304400D03*
X97710000Y36304400D03*
X100250000Y33764400D03*
X97710000Y33764400D03*
X100250000Y31224400D03*
X97710000Y31224400D03*
X100250000Y28684400D03*
X97710000Y28684400D03*
X100250000Y26144400D03*
X97710000Y26144400D03*
X100250000Y23604400D03*
X97710000Y23604400D03*
X100250000Y21064400D03*
X97710000Y21064400D03*
X100250000Y18524400D03*
X97710000Y18524400D03*
X100250000Y15984400D03*
X97710000Y15984400D03*
X100250000Y13444400D03*
X97710000Y13444400D03*
X100250000Y10904400D03*
X97710000Y10904400D03*
X100250000Y8364400D03*
X97710000Y8364400D03*
D25*
X136555000Y50154400D03*
D26*
X134015000Y50154400D03*
X136555000Y47614400D03*
X134015000Y47614400D03*
X136555000Y45074400D03*
X134015000Y45074400D03*
D25*
X132380000Y5849400D03*
D26*
X132380000Y3309400D03*
X134920000Y5849400D03*
X134920000Y3309400D03*
X137460000Y5849400D03*
X137460000Y3309400D03*
D25*
X51000000Y72150000D03*
D26*
X48460000Y72150000D03*
X51000000Y69610000D03*
X48460000Y69610000D03*
X51000000Y67070000D03*
X48460000Y67070000D03*
M02*
