G04 #@! TF.GenerationSoftware,KiCad,Pcbnew,7.0.1.1-36-gbcf78dbe24-dirty-deb11*
G04 #@! TF.CreationDate,2023-04-16T12:29:18+00:00*
G04 #@! TF.ProjectId,pedalboard-hw,70656461-6c62-46f6-9172-642d68772e6b,2.0.0-RC1*
G04 #@! TF.SameCoordinates,Original*
G04 #@! TF.FileFunction,Legend,Bot*
G04 #@! TF.FilePolarity,Positive*
%FSLAX46Y46*%
G04 Gerber Fmt 4.6, Leading zero omitted, Abs format (unit mm)*
G04 Created by KiCad (PCBNEW 7.0.1.1-36-gbcf78dbe24-dirty-deb11) date 2023-04-16 12:29:18*
%MOMM*%
%LPD*%
G01*
G04 APERTURE LIST*
%ADD10C,0.150000*%
%ADD11C,0.100000*%
%ADD12C,0.120000*%
G04 APERTURE END LIST*
D10*
X36395961Y54286305D02*
X36443580Y54191067D01*
X36443580Y54191067D02*
X36443580Y54048210D01*
X36443580Y54048210D02*
X36395961Y53905353D01*
X36395961Y53905353D02*
X36300723Y53810115D01*
X36300723Y53810115D02*
X36205485Y53762496D01*
X36205485Y53762496D02*
X36015009Y53714877D01*
X36015009Y53714877D02*
X35872152Y53714877D01*
X35872152Y53714877D02*
X35681676Y53762496D01*
X35681676Y53762496D02*
X35586438Y53810115D01*
X35586438Y53810115D02*
X35491200Y53905353D01*
X35491200Y53905353D02*
X35443580Y54048210D01*
X35443580Y54048210D02*
X35443580Y54143448D01*
X35443580Y54143448D02*
X35491200Y54286305D01*
X35491200Y54286305D02*
X35538819Y54333924D01*
X35538819Y54333924D02*
X35872152Y54333924D01*
X35872152Y54333924D02*
X35872152Y54143448D01*
X35443580Y54762496D02*
X36443580Y54762496D01*
X36443580Y54762496D02*
X35443580Y55333924D01*
X35443580Y55333924D02*
X36443580Y55333924D01*
X35443580Y55810115D02*
X36443580Y55810115D01*
X36443580Y55810115D02*
X36443580Y56048210D01*
X36443580Y56048210D02*
X36395961Y56191067D01*
X36395961Y56191067D02*
X36300723Y56286305D01*
X36300723Y56286305D02*
X36205485Y56333924D01*
X36205485Y56333924D02*
X36015009Y56381543D01*
X36015009Y56381543D02*
X35872152Y56381543D01*
X35872152Y56381543D02*
X35681676Y56333924D01*
X35681676Y56333924D02*
X35586438Y56286305D01*
X35586438Y56286305D02*
X35491200Y56191067D01*
X35491200Y56191067D02*
X35443580Y56048210D01*
X35443580Y56048210D02*
X35443580Y55810115D01*
X33005180Y53864096D02*
X34005180Y53864096D01*
X34005180Y53864096D02*
X34005180Y54102191D01*
X34005180Y54102191D02*
X33957561Y54245048D01*
X33957561Y54245048D02*
X33862323Y54340286D01*
X33862323Y54340286D02*
X33767085Y54387905D01*
X33767085Y54387905D02*
X33576609Y54435524D01*
X33576609Y54435524D02*
X33433752Y54435524D01*
X33433752Y54435524D02*
X33243276Y54387905D01*
X33243276Y54387905D02*
X33148038Y54340286D01*
X33148038Y54340286D02*
X33052800Y54245048D01*
X33052800Y54245048D02*
X33005180Y54102191D01*
X33005180Y54102191D02*
X33005180Y53864096D01*
X33005180Y55292667D02*
X33528990Y55292667D01*
X33528990Y55292667D02*
X33624228Y55245048D01*
X33624228Y55245048D02*
X33671847Y55149810D01*
X33671847Y55149810D02*
X33671847Y54959334D01*
X33671847Y54959334D02*
X33624228Y54864096D01*
X33052800Y55292667D02*
X33005180Y55197429D01*
X33005180Y55197429D02*
X33005180Y54959334D01*
X33005180Y54959334D02*
X33052800Y54864096D01*
X33052800Y54864096D02*
X33148038Y54816477D01*
X33148038Y54816477D02*
X33243276Y54816477D01*
X33243276Y54816477D02*
X33338514Y54864096D01*
X33338514Y54864096D02*
X33386133Y54959334D01*
X33386133Y54959334D02*
X33386133Y55197429D01*
X33386133Y55197429D02*
X33433752Y55292667D01*
X33671847Y55626001D02*
X33671847Y56006953D01*
X34005180Y55768858D02*
X33148038Y55768858D01*
X33148038Y55768858D02*
X33052800Y55816477D01*
X33052800Y55816477D02*
X33005180Y55911715D01*
X33005180Y55911715D02*
X33005180Y56006953D01*
X33005180Y56768858D02*
X33528990Y56768858D01*
X33528990Y56768858D02*
X33624228Y56721239D01*
X33624228Y56721239D02*
X33671847Y56626001D01*
X33671847Y56626001D02*
X33671847Y56435525D01*
X33671847Y56435525D02*
X33624228Y56340287D01*
X33052800Y56768858D02*
X33005180Y56673620D01*
X33005180Y56673620D02*
X33005180Y56435525D01*
X33005180Y56435525D02*
X33052800Y56340287D01*
X33052800Y56340287D02*
X33148038Y56292668D01*
X33148038Y56292668D02*
X33243276Y56292668D01*
X33243276Y56292668D02*
X33338514Y56340287D01*
X33338514Y56340287D02*
X33386133Y56435525D01*
X33386133Y56435525D02*
X33386133Y56673620D01*
X33386133Y56673620D02*
X33433752Y56768858D01*
X33005180Y58149811D02*
X33052800Y58054573D01*
X33052800Y58054573D02*
X33100419Y58006954D01*
X33100419Y58006954D02*
X33195657Y57959335D01*
X33195657Y57959335D02*
X33481371Y57959335D01*
X33481371Y57959335D02*
X33576609Y58006954D01*
X33576609Y58006954D02*
X33624228Y58054573D01*
X33624228Y58054573D02*
X33671847Y58149811D01*
X33671847Y58149811D02*
X33671847Y58292668D01*
X33671847Y58292668D02*
X33624228Y58387906D01*
X33624228Y58387906D02*
X33576609Y58435525D01*
X33576609Y58435525D02*
X33481371Y58483144D01*
X33481371Y58483144D02*
X33195657Y58483144D01*
X33195657Y58483144D02*
X33100419Y58435525D01*
X33100419Y58435525D02*
X33052800Y58387906D01*
X33052800Y58387906D02*
X33005180Y58292668D01*
X33005180Y58292668D02*
X33005180Y58149811D01*
X33671847Y59340287D02*
X33005180Y59340287D01*
X33671847Y58911716D02*
X33148038Y58911716D01*
X33148038Y58911716D02*
X33052800Y58959335D01*
X33052800Y58959335D02*
X33005180Y59054573D01*
X33005180Y59054573D02*
X33005180Y59197430D01*
X33005180Y59197430D02*
X33052800Y59292668D01*
X33052800Y59292668D02*
X33100419Y59340287D01*
X33671847Y59673621D02*
X33671847Y60054573D01*
X34005180Y59816478D02*
X33148038Y59816478D01*
X33148038Y59816478D02*
X33052800Y59864097D01*
X33052800Y59864097D02*
X33005180Y59959335D01*
X33005180Y59959335D02*
X33005180Y60054573D01*
X51810419Y75028705D02*
X50810419Y75028705D01*
X51810419Y74552515D02*
X50810419Y74552515D01*
X50810419Y74552515D02*
X51810419Y73981087D01*
X51810419Y73981087D02*
X50810419Y73981087D01*
X168155238Y87662096D02*
X168107619Y87757334D01*
X168107619Y87757334D02*
X168107619Y87900191D01*
X168107619Y87900191D02*
X168155238Y88043048D01*
X168155238Y88043048D02*
X168250476Y88138286D01*
X168250476Y88138286D02*
X168345714Y88185905D01*
X168345714Y88185905D02*
X168536190Y88233524D01*
X168536190Y88233524D02*
X168679047Y88233524D01*
X168679047Y88233524D02*
X168869523Y88185905D01*
X168869523Y88185905D02*
X168964761Y88138286D01*
X168964761Y88138286D02*
X169060000Y88043048D01*
X169060000Y88043048D02*
X169107619Y87900191D01*
X169107619Y87900191D02*
X169107619Y87804953D01*
X169107619Y87804953D02*
X169060000Y87662096D01*
X169060000Y87662096D02*
X169012380Y87614477D01*
X169012380Y87614477D02*
X168679047Y87614477D01*
X168679047Y87614477D02*
X168679047Y87804953D01*
X169107619Y87185905D02*
X168107619Y87185905D01*
X168107619Y87185905D02*
X169107619Y86614477D01*
X169107619Y86614477D02*
X168107619Y86614477D01*
X169107619Y86138286D02*
X168107619Y86138286D01*
X168107619Y86138286D02*
X168107619Y85900191D01*
X168107619Y85900191D02*
X168155238Y85757334D01*
X168155238Y85757334D02*
X168250476Y85662096D01*
X168250476Y85662096D02*
X168345714Y85614477D01*
X168345714Y85614477D02*
X168536190Y85566858D01*
X168536190Y85566858D02*
X168679047Y85566858D01*
X168679047Y85566858D02*
X168869523Y85614477D01*
X168869523Y85614477D02*
X168964761Y85662096D01*
X168964761Y85662096D02*
X169060000Y85757334D01*
X169060000Y85757334D02*
X169107619Y85900191D01*
X169107619Y85900191D02*
X169107619Y86138286D01*
X112337619Y74225715D02*
X112337619Y74701905D01*
X112337619Y74701905D02*
X112813809Y74749524D01*
X112813809Y74749524D02*
X112766190Y74701905D01*
X112766190Y74701905D02*
X112718571Y74606667D01*
X112718571Y74606667D02*
X112718571Y74368572D01*
X112718571Y74368572D02*
X112766190Y74273334D01*
X112766190Y74273334D02*
X112813809Y74225715D01*
X112813809Y74225715D02*
X112909047Y74178096D01*
X112909047Y74178096D02*
X113147142Y74178096D01*
X113147142Y74178096D02*
X113242380Y74225715D01*
X113242380Y74225715D02*
X113290000Y74273334D01*
X113290000Y74273334D02*
X113337619Y74368572D01*
X113337619Y74368572D02*
X113337619Y74606667D01*
X113337619Y74606667D02*
X113290000Y74701905D01*
X113290000Y74701905D02*
X113242380Y74749524D01*
X112337619Y73892381D02*
X113337619Y73559048D01*
X113337619Y73559048D02*
X112337619Y73225715D01*
X113337619Y72130476D02*
X112337619Y72130476D01*
X112337619Y72130476D02*
X112337619Y71749524D01*
X112337619Y71749524D02*
X112385238Y71654286D01*
X112385238Y71654286D02*
X112432857Y71606667D01*
X112432857Y71606667D02*
X112528095Y71559048D01*
X112528095Y71559048D02*
X112670952Y71559048D01*
X112670952Y71559048D02*
X112766190Y71606667D01*
X112766190Y71606667D02*
X112813809Y71654286D01*
X112813809Y71654286D02*
X112861428Y71749524D01*
X112861428Y71749524D02*
X112861428Y72130476D01*
X113290000Y71178095D02*
X113337619Y71035238D01*
X113337619Y71035238D02*
X113337619Y70797143D01*
X113337619Y70797143D02*
X113290000Y70701905D01*
X113290000Y70701905D02*
X113242380Y70654286D01*
X113242380Y70654286D02*
X113147142Y70606667D01*
X113147142Y70606667D02*
X113051904Y70606667D01*
X113051904Y70606667D02*
X112956666Y70654286D01*
X112956666Y70654286D02*
X112909047Y70701905D01*
X112909047Y70701905D02*
X112861428Y70797143D01*
X112861428Y70797143D02*
X112813809Y70987619D01*
X112813809Y70987619D02*
X112766190Y71082857D01*
X112766190Y71082857D02*
X112718571Y71130476D01*
X112718571Y71130476D02*
X112623333Y71178095D01*
X112623333Y71178095D02*
X112528095Y71178095D01*
X112528095Y71178095D02*
X112432857Y71130476D01*
X112432857Y71130476D02*
X112385238Y71082857D01*
X112385238Y71082857D02*
X112337619Y70987619D01*
X112337619Y70987619D02*
X112337619Y70749524D01*
X112337619Y70749524D02*
X112385238Y70606667D01*
X112337619Y70178095D02*
X113147142Y70178095D01*
X113147142Y70178095D02*
X113242380Y70130476D01*
X113242380Y70130476D02*
X113290000Y70082857D01*
X113290000Y70082857D02*
X113337619Y69987619D01*
X113337619Y69987619D02*
X113337619Y69797143D01*
X113337619Y69797143D02*
X113290000Y69701905D01*
X113290000Y69701905D02*
X113242380Y69654286D01*
X113242380Y69654286D02*
X113147142Y69606667D01*
X113147142Y69606667D02*
X112337619Y69606667D01*
X65141428Y48262381D02*
X64950952Y48262381D01*
X64950952Y48262381D02*
X64855714Y48214762D01*
X64855714Y48214762D02*
X64760476Y48119524D01*
X64760476Y48119524D02*
X64712857Y47929048D01*
X64712857Y47929048D02*
X64712857Y47595715D01*
X64712857Y47595715D02*
X64760476Y47405239D01*
X64760476Y47405239D02*
X64855714Y47310000D01*
X64855714Y47310000D02*
X64950952Y47262381D01*
X64950952Y47262381D02*
X65141428Y47262381D01*
X65141428Y47262381D02*
X65236666Y47310000D01*
X65236666Y47310000D02*
X65331904Y47405239D01*
X65331904Y47405239D02*
X65379523Y47595715D01*
X65379523Y47595715D02*
X65379523Y47929048D01*
X65379523Y47929048D02*
X65331904Y48119524D01*
X65331904Y48119524D02*
X65236666Y48214762D01*
X65236666Y48214762D02*
X65141428Y48262381D01*
X64284285Y47929048D02*
X64284285Y46929048D01*
X64284285Y47881429D02*
X64189047Y47929048D01*
X64189047Y47929048D02*
X63998571Y47929048D01*
X63998571Y47929048D02*
X63903333Y47881429D01*
X63903333Y47881429D02*
X63855714Y47833810D01*
X63855714Y47833810D02*
X63808095Y47738572D01*
X63808095Y47738572D02*
X63808095Y47452858D01*
X63808095Y47452858D02*
X63855714Y47357620D01*
X63855714Y47357620D02*
X63903333Y47310000D01*
X63903333Y47310000D02*
X63998571Y47262381D01*
X63998571Y47262381D02*
X64189047Y47262381D01*
X64189047Y47262381D02*
X64284285Y47310000D01*
X62998571Y47310000D02*
X63093809Y47262381D01*
X63093809Y47262381D02*
X63284285Y47262381D01*
X63284285Y47262381D02*
X63379523Y47310000D01*
X63379523Y47310000D02*
X63427142Y47405239D01*
X63427142Y47405239D02*
X63427142Y47786191D01*
X63427142Y47786191D02*
X63379523Y47881429D01*
X63379523Y47881429D02*
X63284285Y47929048D01*
X63284285Y47929048D02*
X63093809Y47929048D01*
X63093809Y47929048D02*
X62998571Y47881429D01*
X62998571Y47881429D02*
X62950952Y47786191D01*
X62950952Y47786191D02*
X62950952Y47690953D01*
X62950952Y47690953D02*
X63427142Y47595715D01*
X62522380Y47929048D02*
X62522380Y47262381D01*
X62522380Y47833810D02*
X62474761Y47881429D01*
X62474761Y47881429D02*
X62379523Y47929048D01*
X62379523Y47929048D02*
X62236666Y47929048D01*
X62236666Y47929048D02*
X62141428Y47881429D01*
X62141428Y47881429D02*
X62093809Y47786191D01*
X62093809Y47786191D02*
X62093809Y47262381D01*
X60855713Y47262381D02*
X60855713Y48262381D01*
X60855713Y48262381D02*
X60474761Y48262381D01*
X60474761Y48262381D02*
X60379523Y48214762D01*
X60379523Y48214762D02*
X60331904Y48167143D01*
X60331904Y48167143D02*
X60284285Y48071905D01*
X60284285Y48071905D02*
X60284285Y47929048D01*
X60284285Y47929048D02*
X60331904Y47833810D01*
X60331904Y47833810D02*
X60379523Y47786191D01*
X60379523Y47786191D02*
X60474761Y47738572D01*
X60474761Y47738572D02*
X60855713Y47738572D01*
X59474761Y47310000D02*
X59569999Y47262381D01*
X59569999Y47262381D02*
X59760475Y47262381D01*
X59760475Y47262381D02*
X59855713Y47310000D01*
X59855713Y47310000D02*
X59903332Y47405239D01*
X59903332Y47405239D02*
X59903332Y47786191D01*
X59903332Y47786191D02*
X59855713Y47881429D01*
X59855713Y47881429D02*
X59760475Y47929048D01*
X59760475Y47929048D02*
X59569999Y47929048D01*
X59569999Y47929048D02*
X59474761Y47881429D01*
X59474761Y47881429D02*
X59427142Y47786191D01*
X59427142Y47786191D02*
X59427142Y47690953D01*
X59427142Y47690953D02*
X59903332Y47595715D01*
X58569999Y47262381D02*
X58569999Y48262381D01*
X58569999Y47310000D02*
X58665237Y47262381D01*
X58665237Y47262381D02*
X58855713Y47262381D01*
X58855713Y47262381D02*
X58950951Y47310000D01*
X58950951Y47310000D02*
X58998570Y47357620D01*
X58998570Y47357620D02*
X59046189Y47452858D01*
X59046189Y47452858D02*
X59046189Y47738572D01*
X59046189Y47738572D02*
X58998570Y47833810D01*
X58998570Y47833810D02*
X58950951Y47881429D01*
X58950951Y47881429D02*
X58855713Y47929048D01*
X58855713Y47929048D02*
X58665237Y47929048D01*
X58665237Y47929048D02*
X58569999Y47881429D01*
X57665237Y47262381D02*
X57665237Y47786191D01*
X57665237Y47786191D02*
X57712856Y47881429D01*
X57712856Y47881429D02*
X57808094Y47929048D01*
X57808094Y47929048D02*
X57998570Y47929048D01*
X57998570Y47929048D02*
X58093808Y47881429D01*
X57665237Y47310000D02*
X57760475Y47262381D01*
X57760475Y47262381D02*
X57998570Y47262381D01*
X57998570Y47262381D02*
X58093808Y47310000D01*
X58093808Y47310000D02*
X58141427Y47405239D01*
X58141427Y47405239D02*
X58141427Y47500477D01*
X58141427Y47500477D02*
X58093808Y47595715D01*
X58093808Y47595715D02*
X57998570Y47643334D01*
X57998570Y47643334D02*
X57760475Y47643334D01*
X57760475Y47643334D02*
X57665237Y47690953D01*
X57046189Y47262381D02*
X57141427Y47310000D01*
X57141427Y47310000D02*
X57189046Y47405239D01*
X57189046Y47405239D02*
X57189046Y48262381D01*
X56665236Y47262381D02*
X56665236Y48262381D01*
X56665236Y47881429D02*
X56569998Y47929048D01*
X56569998Y47929048D02*
X56379522Y47929048D01*
X56379522Y47929048D02*
X56284284Y47881429D01*
X56284284Y47881429D02*
X56236665Y47833810D01*
X56236665Y47833810D02*
X56189046Y47738572D01*
X56189046Y47738572D02*
X56189046Y47452858D01*
X56189046Y47452858D02*
X56236665Y47357620D01*
X56236665Y47357620D02*
X56284284Y47310000D01*
X56284284Y47310000D02*
X56379522Y47262381D01*
X56379522Y47262381D02*
X56569998Y47262381D01*
X56569998Y47262381D02*
X56665236Y47310000D01*
X55617617Y47262381D02*
X55712855Y47310000D01*
X55712855Y47310000D02*
X55760474Y47357620D01*
X55760474Y47357620D02*
X55808093Y47452858D01*
X55808093Y47452858D02*
X55808093Y47738572D01*
X55808093Y47738572D02*
X55760474Y47833810D01*
X55760474Y47833810D02*
X55712855Y47881429D01*
X55712855Y47881429D02*
X55617617Y47929048D01*
X55617617Y47929048D02*
X55474760Y47929048D01*
X55474760Y47929048D02*
X55379522Y47881429D01*
X55379522Y47881429D02*
X55331903Y47833810D01*
X55331903Y47833810D02*
X55284284Y47738572D01*
X55284284Y47738572D02*
X55284284Y47452858D01*
X55284284Y47452858D02*
X55331903Y47357620D01*
X55331903Y47357620D02*
X55379522Y47310000D01*
X55379522Y47310000D02*
X55474760Y47262381D01*
X55474760Y47262381D02*
X55617617Y47262381D01*
X54427141Y47262381D02*
X54427141Y47786191D01*
X54427141Y47786191D02*
X54474760Y47881429D01*
X54474760Y47881429D02*
X54569998Y47929048D01*
X54569998Y47929048D02*
X54760474Y47929048D01*
X54760474Y47929048D02*
X54855712Y47881429D01*
X54427141Y47310000D02*
X54522379Y47262381D01*
X54522379Y47262381D02*
X54760474Y47262381D01*
X54760474Y47262381D02*
X54855712Y47310000D01*
X54855712Y47310000D02*
X54903331Y47405239D01*
X54903331Y47405239D02*
X54903331Y47500477D01*
X54903331Y47500477D02*
X54855712Y47595715D01*
X54855712Y47595715D02*
X54760474Y47643334D01*
X54760474Y47643334D02*
X54522379Y47643334D01*
X54522379Y47643334D02*
X54427141Y47690953D01*
X53950950Y47262381D02*
X53950950Y47929048D01*
X53950950Y47738572D02*
X53903331Y47833810D01*
X53903331Y47833810D02*
X53855712Y47881429D01*
X53855712Y47881429D02*
X53760474Y47929048D01*
X53760474Y47929048D02*
X53665236Y47929048D01*
X52903331Y47262381D02*
X52903331Y48262381D01*
X52903331Y47310000D02*
X52998569Y47262381D01*
X52998569Y47262381D02*
X53189045Y47262381D01*
X53189045Y47262381D02*
X53284283Y47310000D01*
X53284283Y47310000D02*
X53331902Y47357620D01*
X53331902Y47357620D02*
X53379521Y47452858D01*
X53379521Y47452858D02*
X53379521Y47738572D01*
X53379521Y47738572D02*
X53331902Y47833810D01*
X53331902Y47833810D02*
X53284283Y47881429D01*
X53284283Y47881429D02*
X53189045Y47929048D01*
X53189045Y47929048D02*
X52998569Y47929048D01*
X52998569Y47929048D02*
X52903331Y47881429D01*
X65331904Y45642381D02*
X65331904Y46642381D01*
X64903333Y45642381D02*
X64903333Y46166191D01*
X64903333Y46166191D02*
X64950952Y46261429D01*
X64950952Y46261429D02*
X65046190Y46309048D01*
X65046190Y46309048D02*
X65189047Y46309048D01*
X65189047Y46309048D02*
X65284285Y46261429D01*
X65284285Y46261429D02*
X65331904Y46213810D01*
X64569999Y46309048D02*
X64189047Y46309048D01*
X64427142Y46642381D02*
X64427142Y45785239D01*
X64427142Y45785239D02*
X64379523Y45690000D01*
X64379523Y45690000D02*
X64284285Y45642381D01*
X64284285Y45642381D02*
X64189047Y45642381D01*
X63998570Y46309048D02*
X63617618Y46309048D01*
X63855713Y46642381D02*
X63855713Y45785239D01*
X63855713Y45785239D02*
X63808094Y45690000D01*
X63808094Y45690000D02*
X63712856Y45642381D01*
X63712856Y45642381D02*
X63617618Y45642381D01*
X63284284Y46309048D02*
X63284284Y45309048D01*
X63284284Y46261429D02*
X63189046Y46309048D01*
X63189046Y46309048D02*
X62998570Y46309048D01*
X62998570Y46309048D02*
X62903332Y46261429D01*
X62903332Y46261429D02*
X62855713Y46213810D01*
X62855713Y46213810D02*
X62808094Y46118572D01*
X62808094Y46118572D02*
X62808094Y45832858D01*
X62808094Y45832858D02*
X62855713Y45737620D01*
X62855713Y45737620D02*
X62903332Y45690000D01*
X62903332Y45690000D02*
X62998570Y45642381D01*
X62998570Y45642381D02*
X63189046Y45642381D01*
X63189046Y45642381D02*
X63284284Y45690000D01*
X62427141Y45690000D02*
X62331903Y45642381D01*
X62331903Y45642381D02*
X62141427Y45642381D01*
X62141427Y45642381D02*
X62046189Y45690000D01*
X62046189Y45690000D02*
X61998570Y45785239D01*
X61998570Y45785239D02*
X61998570Y45832858D01*
X61998570Y45832858D02*
X62046189Y45928096D01*
X62046189Y45928096D02*
X62141427Y45975715D01*
X62141427Y45975715D02*
X62284284Y45975715D01*
X62284284Y45975715D02*
X62379522Y46023334D01*
X62379522Y46023334D02*
X62427141Y46118572D01*
X62427141Y46118572D02*
X62427141Y46166191D01*
X62427141Y46166191D02*
X62379522Y46261429D01*
X62379522Y46261429D02*
X62284284Y46309048D01*
X62284284Y46309048D02*
X62141427Y46309048D01*
X62141427Y46309048D02*
X62046189Y46261429D01*
X61569998Y45737620D02*
X61522379Y45690000D01*
X61522379Y45690000D02*
X61569998Y45642381D01*
X61569998Y45642381D02*
X61617617Y45690000D01*
X61617617Y45690000D02*
X61569998Y45737620D01*
X61569998Y45737620D02*
X61569998Y45642381D01*
X61569998Y46261429D02*
X61522379Y46213810D01*
X61522379Y46213810D02*
X61569998Y46166191D01*
X61569998Y46166191D02*
X61617617Y46213810D01*
X61617617Y46213810D02*
X61569998Y46261429D01*
X61569998Y46261429D02*
X61569998Y46166191D01*
X60379523Y46690000D02*
X61236665Y45404286D01*
X59331904Y46690000D02*
X60189046Y45404286D01*
X58569999Y46309048D02*
X58569999Y45499524D01*
X58569999Y45499524D02*
X58617618Y45404286D01*
X58617618Y45404286D02*
X58665237Y45356667D01*
X58665237Y45356667D02*
X58760475Y45309048D01*
X58760475Y45309048D02*
X58903332Y45309048D01*
X58903332Y45309048D02*
X58998570Y45356667D01*
X58569999Y45690000D02*
X58665237Y45642381D01*
X58665237Y45642381D02*
X58855713Y45642381D01*
X58855713Y45642381D02*
X58950951Y45690000D01*
X58950951Y45690000D02*
X58998570Y45737620D01*
X58998570Y45737620D02*
X59046189Y45832858D01*
X59046189Y45832858D02*
X59046189Y46118572D01*
X59046189Y46118572D02*
X58998570Y46213810D01*
X58998570Y46213810D02*
X58950951Y46261429D01*
X58950951Y46261429D02*
X58855713Y46309048D01*
X58855713Y46309048D02*
X58665237Y46309048D01*
X58665237Y46309048D02*
X58569999Y46261429D01*
X58093808Y45642381D02*
X58093808Y46309048D01*
X58093808Y46642381D02*
X58141427Y46594762D01*
X58141427Y46594762D02*
X58093808Y46547143D01*
X58093808Y46547143D02*
X58046189Y46594762D01*
X58046189Y46594762D02*
X58093808Y46642381D01*
X58093808Y46642381D02*
X58093808Y46547143D01*
X57760475Y46309048D02*
X57379523Y46309048D01*
X57617618Y46642381D02*
X57617618Y45785239D01*
X57617618Y45785239D02*
X57569999Y45690000D01*
X57569999Y45690000D02*
X57474761Y45642381D01*
X57474761Y45642381D02*
X57379523Y45642381D01*
X57046189Y45642381D02*
X57046189Y46642381D01*
X56617618Y45642381D02*
X56617618Y46166191D01*
X56617618Y46166191D02*
X56665237Y46261429D01*
X56665237Y46261429D02*
X56760475Y46309048D01*
X56760475Y46309048D02*
X56903332Y46309048D01*
X56903332Y46309048D02*
X56998570Y46261429D01*
X56998570Y46261429D02*
X57046189Y46213810D01*
X55712856Y46309048D02*
X55712856Y45642381D01*
X56141427Y46309048D02*
X56141427Y45785239D01*
X56141427Y45785239D02*
X56093808Y45690000D01*
X56093808Y45690000D02*
X55998570Y45642381D01*
X55998570Y45642381D02*
X55855713Y45642381D01*
X55855713Y45642381D02*
X55760475Y45690000D01*
X55760475Y45690000D02*
X55712856Y45737620D01*
X55236665Y45642381D02*
X55236665Y46642381D01*
X55236665Y46261429D02*
X55141427Y46309048D01*
X55141427Y46309048D02*
X54950951Y46309048D01*
X54950951Y46309048D02*
X54855713Y46261429D01*
X54855713Y46261429D02*
X54808094Y46213810D01*
X54808094Y46213810D02*
X54760475Y46118572D01*
X54760475Y46118572D02*
X54760475Y45832858D01*
X54760475Y45832858D02*
X54808094Y45737620D01*
X54808094Y45737620D02*
X54855713Y45690000D01*
X54855713Y45690000D02*
X54950951Y45642381D01*
X54950951Y45642381D02*
X55141427Y45642381D01*
X55141427Y45642381D02*
X55236665Y45690000D01*
X54331903Y45737620D02*
X54284284Y45690000D01*
X54284284Y45690000D02*
X54331903Y45642381D01*
X54331903Y45642381D02*
X54379522Y45690000D01*
X54379522Y45690000D02*
X54331903Y45737620D01*
X54331903Y45737620D02*
X54331903Y45642381D01*
X53427142Y45690000D02*
X53522380Y45642381D01*
X53522380Y45642381D02*
X53712856Y45642381D01*
X53712856Y45642381D02*
X53808094Y45690000D01*
X53808094Y45690000D02*
X53855713Y45737620D01*
X53855713Y45737620D02*
X53903332Y45832858D01*
X53903332Y45832858D02*
X53903332Y46118572D01*
X53903332Y46118572D02*
X53855713Y46213810D01*
X53855713Y46213810D02*
X53808094Y46261429D01*
X53808094Y46261429D02*
X53712856Y46309048D01*
X53712856Y46309048D02*
X53522380Y46309048D01*
X53522380Y46309048D02*
X53427142Y46261429D01*
X52855713Y45642381D02*
X52950951Y45690000D01*
X52950951Y45690000D02*
X52998570Y45737620D01*
X52998570Y45737620D02*
X53046189Y45832858D01*
X53046189Y45832858D02*
X53046189Y46118572D01*
X53046189Y46118572D02*
X52998570Y46213810D01*
X52998570Y46213810D02*
X52950951Y46261429D01*
X52950951Y46261429D02*
X52855713Y46309048D01*
X52855713Y46309048D02*
X52712856Y46309048D01*
X52712856Y46309048D02*
X52617618Y46261429D01*
X52617618Y46261429D02*
X52569999Y46213810D01*
X52569999Y46213810D02*
X52522380Y46118572D01*
X52522380Y46118572D02*
X52522380Y45832858D01*
X52522380Y45832858D02*
X52569999Y45737620D01*
X52569999Y45737620D02*
X52617618Y45690000D01*
X52617618Y45690000D02*
X52712856Y45642381D01*
X52712856Y45642381D02*
X52855713Y45642381D01*
X52093808Y45642381D02*
X52093808Y46309048D01*
X52093808Y46213810D02*
X52046189Y46261429D01*
X52046189Y46261429D02*
X51950951Y46309048D01*
X51950951Y46309048D02*
X51808094Y46309048D01*
X51808094Y46309048D02*
X51712856Y46261429D01*
X51712856Y46261429D02*
X51665237Y46166191D01*
X51665237Y46166191D02*
X51665237Y45642381D01*
X51665237Y46166191D02*
X51617618Y46261429D01*
X51617618Y46261429D02*
X51522380Y46309048D01*
X51522380Y46309048D02*
X51379523Y46309048D01*
X51379523Y46309048D02*
X51284284Y46261429D01*
X51284284Y46261429D02*
X51236665Y46166191D01*
X51236665Y46166191D02*
X51236665Y45642381D01*
X50046190Y46690000D02*
X50903332Y45404286D01*
X49712856Y46309048D02*
X49712856Y45309048D01*
X49712856Y46261429D02*
X49617618Y46309048D01*
X49617618Y46309048D02*
X49427142Y46309048D01*
X49427142Y46309048D02*
X49331904Y46261429D01*
X49331904Y46261429D02*
X49284285Y46213810D01*
X49284285Y46213810D02*
X49236666Y46118572D01*
X49236666Y46118572D02*
X49236666Y45832858D01*
X49236666Y45832858D02*
X49284285Y45737620D01*
X49284285Y45737620D02*
X49331904Y45690000D01*
X49331904Y45690000D02*
X49427142Y45642381D01*
X49427142Y45642381D02*
X49617618Y45642381D01*
X49617618Y45642381D02*
X49712856Y45690000D01*
X48427142Y45690000D02*
X48522380Y45642381D01*
X48522380Y45642381D02*
X48712856Y45642381D01*
X48712856Y45642381D02*
X48808094Y45690000D01*
X48808094Y45690000D02*
X48855713Y45785239D01*
X48855713Y45785239D02*
X48855713Y46166191D01*
X48855713Y46166191D02*
X48808094Y46261429D01*
X48808094Y46261429D02*
X48712856Y46309048D01*
X48712856Y46309048D02*
X48522380Y46309048D01*
X48522380Y46309048D02*
X48427142Y46261429D01*
X48427142Y46261429D02*
X48379523Y46166191D01*
X48379523Y46166191D02*
X48379523Y46070953D01*
X48379523Y46070953D02*
X48855713Y45975715D01*
X47522380Y45642381D02*
X47522380Y46642381D01*
X47522380Y45690000D02*
X47617618Y45642381D01*
X47617618Y45642381D02*
X47808094Y45642381D01*
X47808094Y45642381D02*
X47903332Y45690000D01*
X47903332Y45690000D02*
X47950951Y45737620D01*
X47950951Y45737620D02*
X47998570Y45832858D01*
X47998570Y45832858D02*
X47998570Y46118572D01*
X47998570Y46118572D02*
X47950951Y46213810D01*
X47950951Y46213810D02*
X47903332Y46261429D01*
X47903332Y46261429D02*
X47808094Y46309048D01*
X47808094Y46309048D02*
X47617618Y46309048D01*
X47617618Y46309048D02*
X47522380Y46261429D01*
X46617618Y45642381D02*
X46617618Y46166191D01*
X46617618Y46166191D02*
X46665237Y46261429D01*
X46665237Y46261429D02*
X46760475Y46309048D01*
X46760475Y46309048D02*
X46950951Y46309048D01*
X46950951Y46309048D02*
X47046189Y46261429D01*
X46617618Y45690000D02*
X46712856Y45642381D01*
X46712856Y45642381D02*
X46950951Y45642381D01*
X46950951Y45642381D02*
X47046189Y45690000D01*
X47046189Y45690000D02*
X47093808Y45785239D01*
X47093808Y45785239D02*
X47093808Y45880477D01*
X47093808Y45880477D02*
X47046189Y45975715D01*
X47046189Y45975715D02*
X46950951Y46023334D01*
X46950951Y46023334D02*
X46712856Y46023334D01*
X46712856Y46023334D02*
X46617618Y46070953D01*
X45998570Y45642381D02*
X46093808Y45690000D01*
X46093808Y45690000D02*
X46141427Y45785239D01*
X46141427Y45785239D02*
X46141427Y46642381D01*
X45617617Y45642381D02*
X45617617Y46642381D01*
X45617617Y46261429D02*
X45522379Y46309048D01*
X45522379Y46309048D02*
X45331903Y46309048D01*
X45331903Y46309048D02*
X45236665Y46261429D01*
X45236665Y46261429D02*
X45189046Y46213810D01*
X45189046Y46213810D02*
X45141427Y46118572D01*
X45141427Y46118572D02*
X45141427Y45832858D01*
X45141427Y45832858D02*
X45189046Y45737620D01*
X45189046Y45737620D02*
X45236665Y45690000D01*
X45236665Y45690000D02*
X45331903Y45642381D01*
X45331903Y45642381D02*
X45522379Y45642381D01*
X45522379Y45642381D02*
X45617617Y45690000D01*
X44569998Y45642381D02*
X44665236Y45690000D01*
X44665236Y45690000D02*
X44712855Y45737620D01*
X44712855Y45737620D02*
X44760474Y45832858D01*
X44760474Y45832858D02*
X44760474Y46118572D01*
X44760474Y46118572D02*
X44712855Y46213810D01*
X44712855Y46213810D02*
X44665236Y46261429D01*
X44665236Y46261429D02*
X44569998Y46309048D01*
X44569998Y46309048D02*
X44427141Y46309048D01*
X44427141Y46309048D02*
X44331903Y46261429D01*
X44331903Y46261429D02*
X44284284Y46213810D01*
X44284284Y46213810D02*
X44236665Y46118572D01*
X44236665Y46118572D02*
X44236665Y45832858D01*
X44236665Y45832858D02*
X44284284Y45737620D01*
X44284284Y45737620D02*
X44331903Y45690000D01*
X44331903Y45690000D02*
X44427141Y45642381D01*
X44427141Y45642381D02*
X44569998Y45642381D01*
X43379522Y45642381D02*
X43379522Y46166191D01*
X43379522Y46166191D02*
X43427141Y46261429D01*
X43427141Y46261429D02*
X43522379Y46309048D01*
X43522379Y46309048D02*
X43712855Y46309048D01*
X43712855Y46309048D02*
X43808093Y46261429D01*
X43379522Y45690000D02*
X43474760Y45642381D01*
X43474760Y45642381D02*
X43712855Y45642381D01*
X43712855Y45642381D02*
X43808093Y45690000D01*
X43808093Y45690000D02*
X43855712Y45785239D01*
X43855712Y45785239D02*
X43855712Y45880477D01*
X43855712Y45880477D02*
X43808093Y45975715D01*
X43808093Y45975715D02*
X43712855Y46023334D01*
X43712855Y46023334D02*
X43474760Y46023334D01*
X43474760Y46023334D02*
X43379522Y46070953D01*
X42903331Y45642381D02*
X42903331Y46309048D01*
X42903331Y46118572D02*
X42855712Y46213810D01*
X42855712Y46213810D02*
X42808093Y46261429D01*
X42808093Y46261429D02*
X42712855Y46309048D01*
X42712855Y46309048D02*
X42617617Y46309048D01*
X41855712Y45642381D02*
X41855712Y46642381D01*
X41855712Y45690000D02*
X41950950Y45642381D01*
X41950950Y45642381D02*
X42141426Y45642381D01*
X42141426Y45642381D02*
X42236664Y45690000D01*
X42236664Y45690000D02*
X42284283Y45737620D01*
X42284283Y45737620D02*
X42331902Y45832858D01*
X42331902Y45832858D02*
X42331902Y46118572D01*
X42331902Y46118572D02*
X42284283Y46213810D01*
X42284283Y46213810D02*
X42236664Y46261429D01*
X42236664Y46261429D02*
X42141426Y46309048D01*
X42141426Y46309048D02*
X41950950Y46309048D01*
X41950950Y46309048D02*
X41855712Y46261429D01*
X64998571Y44546191D02*
X64855714Y44498572D01*
X64855714Y44498572D02*
X64808095Y44450953D01*
X64808095Y44450953D02*
X64760476Y44355715D01*
X64760476Y44355715D02*
X64760476Y44212858D01*
X64760476Y44212858D02*
X64808095Y44117620D01*
X64808095Y44117620D02*
X64855714Y44070000D01*
X64855714Y44070000D02*
X64950952Y44022381D01*
X64950952Y44022381D02*
X65331904Y44022381D01*
X65331904Y44022381D02*
X65331904Y45022381D01*
X65331904Y45022381D02*
X64998571Y45022381D01*
X64998571Y45022381D02*
X64903333Y44974762D01*
X64903333Y44974762D02*
X64855714Y44927143D01*
X64855714Y44927143D02*
X64808095Y44831905D01*
X64808095Y44831905D02*
X64808095Y44736667D01*
X64808095Y44736667D02*
X64855714Y44641429D01*
X64855714Y44641429D02*
X64903333Y44593810D01*
X64903333Y44593810D02*
X64998571Y44546191D01*
X64998571Y44546191D02*
X65331904Y44546191D01*
X63760476Y44117620D02*
X63808095Y44070000D01*
X63808095Y44070000D02*
X63950952Y44022381D01*
X63950952Y44022381D02*
X64046190Y44022381D01*
X64046190Y44022381D02*
X64189047Y44070000D01*
X64189047Y44070000D02*
X64284285Y44165239D01*
X64284285Y44165239D02*
X64331904Y44260477D01*
X64331904Y44260477D02*
X64379523Y44450953D01*
X64379523Y44450953D02*
X64379523Y44593810D01*
X64379523Y44593810D02*
X64331904Y44784286D01*
X64331904Y44784286D02*
X64284285Y44879524D01*
X64284285Y44879524D02*
X64189047Y44974762D01*
X64189047Y44974762D02*
X64046190Y45022381D01*
X64046190Y45022381D02*
X63950952Y45022381D01*
X63950952Y45022381D02*
X63808095Y44974762D01*
X63808095Y44974762D02*
X63760476Y44927143D01*
X62998571Y44546191D02*
X62855714Y44498572D01*
X62855714Y44498572D02*
X62808095Y44450953D01*
X62808095Y44450953D02*
X62760476Y44355715D01*
X62760476Y44355715D02*
X62760476Y44212858D01*
X62760476Y44212858D02*
X62808095Y44117620D01*
X62808095Y44117620D02*
X62855714Y44070000D01*
X62855714Y44070000D02*
X62950952Y44022381D01*
X62950952Y44022381D02*
X63331904Y44022381D01*
X63331904Y44022381D02*
X63331904Y45022381D01*
X63331904Y45022381D02*
X62998571Y45022381D01*
X62998571Y45022381D02*
X62903333Y44974762D01*
X62903333Y44974762D02*
X62855714Y44927143D01*
X62855714Y44927143D02*
X62808095Y44831905D01*
X62808095Y44831905D02*
X62808095Y44736667D01*
X62808095Y44736667D02*
X62855714Y44641429D01*
X62855714Y44641429D02*
X62903333Y44593810D01*
X62903333Y44593810D02*
X62998571Y44546191D01*
X62998571Y44546191D02*
X63331904Y44546191D01*
X62331904Y44117620D02*
X62284285Y44070000D01*
X62284285Y44070000D02*
X62331904Y44022381D01*
X62331904Y44022381D02*
X62379523Y44070000D01*
X62379523Y44070000D02*
X62331904Y44117620D01*
X62331904Y44117620D02*
X62331904Y44022381D01*
X62331904Y44641429D02*
X62284285Y44593810D01*
X62284285Y44593810D02*
X62331904Y44546191D01*
X62331904Y44546191D02*
X62379523Y44593810D01*
X62379523Y44593810D02*
X62331904Y44641429D01*
X62331904Y44641429D02*
X62331904Y44546191D01*
X61141428Y44927143D02*
X61093809Y44974762D01*
X61093809Y44974762D02*
X60998571Y45022381D01*
X60998571Y45022381D02*
X60760476Y45022381D01*
X60760476Y45022381D02*
X60665238Y44974762D01*
X60665238Y44974762D02*
X60617619Y44927143D01*
X60617619Y44927143D02*
X60570000Y44831905D01*
X60570000Y44831905D02*
X60570000Y44736667D01*
X60570000Y44736667D02*
X60617619Y44593810D01*
X60617619Y44593810D02*
X61189047Y44022381D01*
X61189047Y44022381D02*
X60570000Y44022381D01*
X60141428Y44117620D02*
X60093809Y44070000D01*
X60093809Y44070000D02*
X60141428Y44022381D01*
X60141428Y44022381D02*
X60189047Y44070000D01*
X60189047Y44070000D02*
X60141428Y44117620D01*
X60141428Y44117620D02*
X60141428Y44022381D01*
X59474762Y45022381D02*
X59379524Y45022381D01*
X59379524Y45022381D02*
X59284286Y44974762D01*
X59284286Y44974762D02*
X59236667Y44927143D01*
X59236667Y44927143D02*
X59189048Y44831905D01*
X59189048Y44831905D02*
X59141429Y44641429D01*
X59141429Y44641429D02*
X59141429Y44403334D01*
X59141429Y44403334D02*
X59189048Y44212858D01*
X59189048Y44212858D02*
X59236667Y44117620D01*
X59236667Y44117620D02*
X59284286Y44070000D01*
X59284286Y44070000D02*
X59379524Y44022381D01*
X59379524Y44022381D02*
X59474762Y44022381D01*
X59474762Y44022381D02*
X59570000Y44070000D01*
X59570000Y44070000D02*
X59617619Y44117620D01*
X59617619Y44117620D02*
X59665238Y44212858D01*
X59665238Y44212858D02*
X59712857Y44403334D01*
X59712857Y44403334D02*
X59712857Y44641429D01*
X59712857Y44641429D02*
X59665238Y44831905D01*
X59665238Y44831905D02*
X59617619Y44927143D01*
X59617619Y44927143D02*
X59570000Y44974762D01*
X59570000Y44974762D02*
X59474762Y45022381D01*
X58712857Y44117620D02*
X58665238Y44070000D01*
X58665238Y44070000D02*
X58712857Y44022381D01*
X58712857Y44022381D02*
X58760476Y44070000D01*
X58760476Y44070000D02*
X58712857Y44117620D01*
X58712857Y44117620D02*
X58712857Y44022381D01*
X58046191Y45022381D02*
X57950953Y45022381D01*
X57950953Y45022381D02*
X57855715Y44974762D01*
X57855715Y44974762D02*
X57808096Y44927143D01*
X57808096Y44927143D02*
X57760477Y44831905D01*
X57760477Y44831905D02*
X57712858Y44641429D01*
X57712858Y44641429D02*
X57712858Y44403334D01*
X57712858Y44403334D02*
X57760477Y44212858D01*
X57760477Y44212858D02*
X57808096Y44117620D01*
X57808096Y44117620D02*
X57855715Y44070000D01*
X57855715Y44070000D02*
X57950953Y44022381D01*
X57950953Y44022381D02*
X58046191Y44022381D01*
X58046191Y44022381D02*
X58141429Y44070000D01*
X58141429Y44070000D02*
X58189048Y44117620D01*
X58189048Y44117620D02*
X58236667Y44212858D01*
X58236667Y44212858D02*
X58284286Y44403334D01*
X58284286Y44403334D02*
X58284286Y44641429D01*
X58284286Y44641429D02*
X58236667Y44831905D01*
X58236667Y44831905D02*
X58189048Y44927143D01*
X58189048Y44927143D02*
X58141429Y44974762D01*
X58141429Y44974762D02*
X58046191Y45022381D01*
X57284286Y44403334D02*
X56522382Y44403334D01*
X55474763Y44022381D02*
X55808096Y44498572D01*
X56046191Y44022381D02*
X56046191Y45022381D01*
X56046191Y45022381D02*
X55665239Y45022381D01*
X55665239Y45022381D02*
X55570001Y44974762D01*
X55570001Y44974762D02*
X55522382Y44927143D01*
X55522382Y44927143D02*
X55474763Y44831905D01*
X55474763Y44831905D02*
X55474763Y44689048D01*
X55474763Y44689048D02*
X55522382Y44593810D01*
X55522382Y44593810D02*
X55570001Y44546191D01*
X55570001Y44546191D02*
X55665239Y44498572D01*
X55665239Y44498572D02*
X56046191Y44498572D01*
X54474763Y44117620D02*
X54522382Y44070000D01*
X54522382Y44070000D02*
X54665239Y44022381D01*
X54665239Y44022381D02*
X54760477Y44022381D01*
X54760477Y44022381D02*
X54903334Y44070000D01*
X54903334Y44070000D02*
X54998572Y44165239D01*
X54998572Y44165239D02*
X55046191Y44260477D01*
X55046191Y44260477D02*
X55093810Y44450953D01*
X55093810Y44450953D02*
X55093810Y44593810D01*
X55093810Y44593810D02*
X55046191Y44784286D01*
X55046191Y44784286D02*
X54998572Y44879524D01*
X54998572Y44879524D02*
X54903334Y44974762D01*
X54903334Y44974762D02*
X54760477Y45022381D01*
X54760477Y45022381D02*
X54665239Y45022381D01*
X54665239Y45022381D02*
X54522382Y44974762D01*
X54522382Y44974762D02*
X54474763Y44927143D01*
X53522382Y44022381D02*
X54093810Y44022381D01*
X53808096Y44022381D02*
X53808096Y45022381D01*
X53808096Y45022381D02*
X53903334Y44879524D01*
X53903334Y44879524D02*
X53998572Y44784286D01*
X53998572Y44784286D02*
X54093810Y44736667D01*
X31196133Y53914896D02*
X31196133Y54676800D01*
X30815180Y54295848D02*
X31577085Y54295848D01*
X31815180Y55057753D02*
X31815180Y55676800D01*
X31815180Y55676800D02*
X31434228Y55343467D01*
X31434228Y55343467D02*
X31434228Y55486324D01*
X31434228Y55486324D02*
X31386609Y55581562D01*
X31386609Y55581562D02*
X31338990Y55629181D01*
X31338990Y55629181D02*
X31243752Y55676800D01*
X31243752Y55676800D02*
X31005657Y55676800D01*
X31005657Y55676800D02*
X30910419Y55629181D01*
X30910419Y55629181D02*
X30862800Y55581562D01*
X30862800Y55581562D02*
X30815180Y55486324D01*
X30815180Y55486324D02*
X30815180Y55200610D01*
X30815180Y55200610D02*
X30862800Y55105372D01*
X30862800Y55105372D02*
X30910419Y55057753D01*
X30910419Y56105372D02*
X30862800Y56152991D01*
X30862800Y56152991D02*
X30815180Y56105372D01*
X30815180Y56105372D02*
X30862800Y56057753D01*
X30862800Y56057753D02*
X30910419Y56105372D01*
X30910419Y56105372D02*
X30815180Y56105372D01*
X31815180Y56486324D02*
X31815180Y57105371D01*
X31815180Y57105371D02*
X31434228Y56772038D01*
X31434228Y56772038D02*
X31434228Y56914895D01*
X31434228Y56914895D02*
X31386609Y57010133D01*
X31386609Y57010133D02*
X31338990Y57057752D01*
X31338990Y57057752D02*
X31243752Y57105371D01*
X31243752Y57105371D02*
X31005657Y57105371D01*
X31005657Y57105371D02*
X30910419Y57057752D01*
X30910419Y57057752D02*
X30862800Y57010133D01*
X30862800Y57010133D02*
X30815180Y56914895D01*
X30815180Y56914895D02*
X30815180Y56629181D01*
X30815180Y56629181D02*
X30862800Y56533943D01*
X30862800Y56533943D02*
X30910419Y56486324D01*
X31815180Y57391086D02*
X30815180Y57724419D01*
X30815180Y57724419D02*
X31815180Y58057752D01*
X29195180Y54438705D02*
X29195180Y53867277D01*
X29195180Y54152991D02*
X30195180Y54152991D01*
X30195180Y54152991D02*
X30052323Y54057753D01*
X30052323Y54057753D02*
X29957085Y53962515D01*
X29957085Y53962515D02*
X29909466Y53867277D01*
X30195180Y55343467D02*
X30195180Y54867277D01*
X30195180Y54867277D02*
X29718990Y54819658D01*
X29718990Y54819658D02*
X29766609Y54867277D01*
X29766609Y54867277D02*
X29814228Y54962515D01*
X29814228Y54962515D02*
X29814228Y55200610D01*
X29814228Y55200610D02*
X29766609Y55295848D01*
X29766609Y55295848D02*
X29718990Y55343467D01*
X29718990Y55343467D02*
X29623752Y55391086D01*
X29623752Y55391086D02*
X29385657Y55391086D01*
X29385657Y55391086D02*
X29290419Y55343467D01*
X29290419Y55343467D02*
X29242800Y55295848D01*
X29242800Y55295848D02*
X29195180Y55200610D01*
X29195180Y55200610D02*
X29195180Y54962515D01*
X29195180Y54962515D02*
X29242800Y54867277D01*
X29242800Y54867277D02*
X29290419Y54819658D01*
X30195180Y56010134D02*
X30195180Y56105372D01*
X30195180Y56105372D02*
X30147561Y56200610D01*
X30147561Y56200610D02*
X30099942Y56248229D01*
X30099942Y56248229D02*
X30004704Y56295848D01*
X30004704Y56295848D02*
X29814228Y56343467D01*
X29814228Y56343467D02*
X29576133Y56343467D01*
X29576133Y56343467D02*
X29385657Y56295848D01*
X29385657Y56295848D02*
X29290419Y56248229D01*
X29290419Y56248229D02*
X29242800Y56200610D01*
X29242800Y56200610D02*
X29195180Y56105372D01*
X29195180Y56105372D02*
X29195180Y56010134D01*
X29195180Y56010134D02*
X29242800Y55914896D01*
X29242800Y55914896D02*
X29290419Y55867277D01*
X29290419Y55867277D02*
X29385657Y55819658D01*
X29385657Y55819658D02*
X29576133Y55772039D01*
X29576133Y55772039D02*
X29814228Y55772039D01*
X29814228Y55772039D02*
X30004704Y55819658D01*
X30004704Y55819658D02*
X30099942Y55867277D01*
X30099942Y55867277D02*
X30147561Y55914896D01*
X30147561Y55914896D02*
X30195180Y56010134D01*
X29195180Y56772039D02*
X29861847Y56772039D01*
X29766609Y56772039D02*
X29814228Y56819658D01*
X29814228Y56819658D02*
X29861847Y56914896D01*
X29861847Y56914896D02*
X29861847Y57057753D01*
X29861847Y57057753D02*
X29814228Y57152991D01*
X29814228Y57152991D02*
X29718990Y57200610D01*
X29718990Y57200610D02*
X29195180Y57200610D01*
X29718990Y57200610D02*
X29814228Y57248229D01*
X29814228Y57248229D02*
X29861847Y57343467D01*
X29861847Y57343467D02*
X29861847Y57486324D01*
X29861847Y57486324D02*
X29814228Y57581563D01*
X29814228Y57581563D02*
X29718990Y57629182D01*
X29718990Y57629182D02*
X29195180Y57629182D01*
X29480895Y58057753D02*
X29480895Y58533943D01*
X29195180Y57962515D02*
X30195180Y58295848D01*
X30195180Y58295848D02*
X29195180Y58629181D01*
X29195180Y59724420D02*
X29861847Y59724420D01*
X29766609Y59724420D02*
X29814228Y59772039D01*
X29814228Y59772039D02*
X29861847Y59867277D01*
X29861847Y59867277D02*
X29861847Y60010134D01*
X29861847Y60010134D02*
X29814228Y60105372D01*
X29814228Y60105372D02*
X29718990Y60152991D01*
X29718990Y60152991D02*
X29195180Y60152991D01*
X29718990Y60152991D02*
X29814228Y60200610D01*
X29814228Y60200610D02*
X29861847Y60295848D01*
X29861847Y60295848D02*
X29861847Y60438705D01*
X29861847Y60438705D02*
X29814228Y60533944D01*
X29814228Y60533944D02*
X29718990Y60581563D01*
X29718990Y60581563D02*
X29195180Y60581563D01*
X29195180Y61486324D02*
X29718990Y61486324D01*
X29718990Y61486324D02*
X29814228Y61438705D01*
X29814228Y61438705D02*
X29861847Y61343467D01*
X29861847Y61343467D02*
X29861847Y61152991D01*
X29861847Y61152991D02*
X29814228Y61057753D01*
X29242800Y61486324D02*
X29195180Y61391086D01*
X29195180Y61391086D02*
X29195180Y61152991D01*
X29195180Y61152991D02*
X29242800Y61057753D01*
X29242800Y61057753D02*
X29338038Y61010134D01*
X29338038Y61010134D02*
X29433276Y61010134D01*
X29433276Y61010134D02*
X29528514Y61057753D01*
X29528514Y61057753D02*
X29576133Y61152991D01*
X29576133Y61152991D02*
X29576133Y61391086D01*
X29576133Y61391086D02*
X29623752Y61486324D01*
X29195180Y61867277D02*
X29861847Y62391086D01*
X29861847Y61867277D02*
X29195180Y62391086D01*
X45552857Y74133572D02*
X45552857Y75633572D01*
X45552857Y75633572D02*
X45052857Y74562143D01*
X45052857Y74562143D02*
X44552857Y75633572D01*
X44552857Y75633572D02*
X44552857Y74133572D01*
X43838571Y74133572D02*
X43838571Y75633572D01*
X43124285Y74133572D02*
X43124285Y75633572D01*
X43124285Y75633572D02*
X42767142Y75633572D01*
X42767142Y75633572D02*
X42552856Y75562143D01*
X42552856Y75562143D02*
X42409999Y75419286D01*
X42409999Y75419286D02*
X42338570Y75276429D01*
X42338570Y75276429D02*
X42267142Y74990715D01*
X42267142Y74990715D02*
X42267142Y74776429D01*
X42267142Y74776429D02*
X42338570Y74490715D01*
X42338570Y74490715D02*
X42409999Y74347858D01*
X42409999Y74347858D02*
X42552856Y74205000D01*
X42552856Y74205000D02*
X42767142Y74133572D01*
X42767142Y74133572D02*
X43124285Y74133572D01*
X41624285Y74133572D02*
X41624285Y75633572D01*
X114996380Y79568896D02*
X115663047Y79568896D01*
X115996380Y79568896D02*
X115948761Y79521277D01*
X115948761Y79521277D02*
X115901142Y79568896D01*
X115901142Y79568896D02*
X115948761Y79616515D01*
X115948761Y79616515D02*
X115996380Y79568896D01*
X115996380Y79568896D02*
X115901142Y79568896D01*
X115663047Y80045086D02*
X114996380Y80045086D01*
X115567809Y80045086D02*
X115615428Y80092705D01*
X115615428Y80092705D02*
X115663047Y80187943D01*
X115663047Y80187943D02*
X115663047Y80330800D01*
X115663047Y80330800D02*
X115615428Y80426038D01*
X115615428Y80426038D02*
X115520190Y80473657D01*
X115520190Y80473657D02*
X114996380Y80473657D01*
X28510914Y41556381D02*
X28987104Y41556381D01*
X28987104Y41556381D02*
X28987104Y42556381D01*
X28177580Y42080191D02*
X27844247Y42080191D01*
X27701390Y41556381D02*
X28177580Y41556381D01*
X28177580Y41556381D02*
X28177580Y42556381D01*
X28177580Y42556381D02*
X27701390Y42556381D01*
X27272818Y41556381D02*
X27272818Y42556381D01*
X27272818Y42556381D02*
X27034723Y42556381D01*
X27034723Y42556381D02*
X26891866Y42508762D01*
X26891866Y42508762D02*
X26796628Y42413524D01*
X26796628Y42413524D02*
X26749009Y42318286D01*
X26749009Y42318286D02*
X26701390Y42127810D01*
X26701390Y42127810D02*
X26701390Y41984953D01*
X26701390Y41984953D02*
X26749009Y41794477D01*
X26749009Y41794477D02*
X26796628Y41699239D01*
X26796628Y41699239D02*
X26891866Y41604000D01*
X26891866Y41604000D02*
X27034723Y41556381D01*
X27034723Y41556381D02*
X27272818Y41556381D01*
X25320437Y42556381D02*
X25129961Y42556381D01*
X25129961Y42556381D02*
X25034723Y42508762D01*
X25034723Y42508762D02*
X24939485Y42413524D01*
X24939485Y42413524D02*
X24891866Y42223048D01*
X24891866Y42223048D02*
X24891866Y41889715D01*
X24891866Y41889715D02*
X24939485Y41699239D01*
X24939485Y41699239D02*
X25034723Y41604000D01*
X25034723Y41604000D02*
X25129961Y41556381D01*
X25129961Y41556381D02*
X25320437Y41556381D01*
X25320437Y41556381D02*
X25415675Y41604000D01*
X25415675Y41604000D02*
X25510913Y41699239D01*
X25510913Y41699239D02*
X25558532Y41889715D01*
X25558532Y41889715D02*
X25558532Y42223048D01*
X25558532Y42223048D02*
X25510913Y42413524D01*
X25510913Y42413524D02*
X25415675Y42508762D01*
X25415675Y42508762D02*
X25320437Y42556381D01*
X24463294Y42556381D02*
X24463294Y41746858D01*
X24463294Y41746858D02*
X24415675Y41651620D01*
X24415675Y41651620D02*
X24368056Y41604000D01*
X24368056Y41604000D02*
X24272818Y41556381D01*
X24272818Y41556381D02*
X24082342Y41556381D01*
X24082342Y41556381D02*
X23987104Y41604000D01*
X23987104Y41604000D02*
X23939485Y41651620D01*
X23939485Y41651620D02*
X23891866Y41746858D01*
X23891866Y41746858D02*
X23891866Y42556381D01*
X23558532Y42556381D02*
X22987104Y42556381D01*
X23272818Y41556381D02*
X23272818Y42556381D01*
X162656019Y87982705D02*
X161656019Y87982705D01*
X162656019Y87506515D02*
X161656019Y87506515D01*
X161656019Y87506515D02*
X162656019Y86935087D01*
X162656019Y86935087D02*
X161656019Y86935087D01*
X48787980Y73561772D02*
X48787980Y73752248D01*
X48787980Y73752248D02*
X48740361Y73847486D01*
X48740361Y73847486D02*
X48645123Y73942724D01*
X48645123Y73942724D02*
X48454647Y73990343D01*
X48454647Y73990343D02*
X48121314Y73990343D01*
X48121314Y73990343D02*
X47930838Y73942724D01*
X47930838Y73942724D02*
X47835600Y73847486D01*
X47835600Y73847486D02*
X47787980Y73752248D01*
X47787980Y73752248D02*
X47787980Y73561772D01*
X47787980Y73561772D02*
X47835600Y73466534D01*
X47835600Y73466534D02*
X47930838Y73371296D01*
X47930838Y73371296D02*
X48121314Y73323677D01*
X48121314Y73323677D02*
X48454647Y73323677D01*
X48454647Y73323677D02*
X48645123Y73371296D01*
X48645123Y73371296D02*
X48740361Y73466534D01*
X48740361Y73466534D02*
X48787980Y73561772D01*
X48787980Y74418915D02*
X47978457Y74418915D01*
X47978457Y74418915D02*
X47883219Y74466534D01*
X47883219Y74466534D02*
X47835600Y74514153D01*
X47835600Y74514153D02*
X47787980Y74609391D01*
X47787980Y74609391D02*
X47787980Y74799867D01*
X47787980Y74799867D02*
X47835600Y74895105D01*
X47835600Y74895105D02*
X47883219Y74942724D01*
X47883219Y74942724D02*
X47978457Y74990343D01*
X47978457Y74990343D02*
X48787980Y74990343D01*
X48787980Y75323677D02*
X48787980Y75895105D01*
X47787980Y75609391D02*
X48787980Y75609391D01*
X155204419Y88227162D02*
X156204419Y87893829D01*
X156204419Y87893829D02*
X155204419Y87560496D01*
X156204419Y86655734D02*
X155728228Y86989067D01*
X156204419Y87227162D02*
X155204419Y87227162D01*
X155204419Y87227162D02*
X155204419Y86846210D01*
X155204419Y86846210D02*
X155252038Y86750972D01*
X155252038Y86750972D02*
X155299657Y86703353D01*
X155299657Y86703353D02*
X155394895Y86655734D01*
X155394895Y86655734D02*
X155537752Y86655734D01*
X155537752Y86655734D02*
X155632990Y86703353D01*
X155632990Y86703353D02*
X155680609Y86750972D01*
X155680609Y86750972D02*
X155728228Y86846210D01*
X155728228Y86846210D02*
X155728228Y87227162D01*
X155680609Y86227162D02*
X155680609Y85893829D01*
X156204419Y85750972D02*
X156204419Y86227162D01*
X156204419Y86227162D02*
X155204419Y86227162D01*
X155204419Y86227162D02*
X155204419Y85750972D01*
X155680609Y84989067D02*
X155680609Y85322400D01*
X156204419Y85322400D02*
X155204419Y85322400D01*
X155204419Y85322400D02*
X155204419Y84846210D01*
X117587180Y79610153D02*
X117634800Y79514915D01*
X117634800Y79514915D02*
X117682419Y79467296D01*
X117682419Y79467296D02*
X117777657Y79419677D01*
X117777657Y79419677D02*
X118063371Y79419677D01*
X118063371Y79419677D02*
X118158609Y79467296D01*
X118158609Y79467296D02*
X118206228Y79514915D01*
X118206228Y79514915D02*
X118253847Y79610153D01*
X118253847Y79610153D02*
X118253847Y79753010D01*
X118253847Y79753010D02*
X118206228Y79848248D01*
X118206228Y79848248D02*
X118158609Y79895867D01*
X118158609Y79895867D02*
X118063371Y79943486D01*
X118063371Y79943486D02*
X117777657Y79943486D01*
X117777657Y79943486D02*
X117682419Y79895867D01*
X117682419Y79895867D02*
X117634800Y79848248D01*
X117634800Y79848248D02*
X117587180Y79753010D01*
X117587180Y79753010D02*
X117587180Y79610153D01*
X118253847Y80800629D02*
X117587180Y80800629D01*
X118253847Y80372058D02*
X117730038Y80372058D01*
X117730038Y80372058D02*
X117634800Y80419677D01*
X117634800Y80419677D02*
X117587180Y80514915D01*
X117587180Y80514915D02*
X117587180Y80657772D01*
X117587180Y80657772D02*
X117634800Y80753010D01*
X117634800Y80753010D02*
X117682419Y80800629D01*
X118253847Y81133963D02*
X118253847Y81514915D01*
X118587180Y81276820D02*
X117730038Y81276820D01*
X117730038Y81276820D02*
X117634800Y81324439D01*
X117634800Y81324439D02*
X117587180Y81419677D01*
X117587180Y81419677D02*
X117587180Y81514915D01*
X30033333Y15937381D02*
X30033333Y15223096D01*
X30033333Y15223096D02*
X30080952Y15080239D01*
X30080952Y15080239D02*
X30176190Y14985000D01*
X30176190Y14985000D02*
X30319047Y14937381D01*
X30319047Y14937381D02*
X30414285Y14937381D01*
X29652380Y15937381D02*
X28985714Y15937381D01*
X28985714Y15937381D02*
X29414285Y14937381D01*
X93958333Y25427381D02*
X93958333Y24713096D01*
X93958333Y24713096D02*
X94005952Y24570239D01*
X94005952Y24570239D02*
X94101190Y24475000D01*
X94101190Y24475000D02*
X94244047Y24427381D01*
X94244047Y24427381D02*
X94339285Y24427381D01*
X93053571Y25427381D02*
X93244047Y25427381D01*
X93244047Y25427381D02*
X93339285Y25379762D01*
X93339285Y25379762D02*
X93386904Y25332143D01*
X93386904Y25332143D02*
X93482142Y25189286D01*
X93482142Y25189286D02*
X93529761Y24998810D01*
X93529761Y24998810D02*
X93529761Y24617858D01*
X93529761Y24617858D02*
X93482142Y24522620D01*
X93482142Y24522620D02*
X93434523Y24475000D01*
X93434523Y24475000D02*
X93339285Y24427381D01*
X93339285Y24427381D02*
X93148809Y24427381D01*
X93148809Y24427381D02*
X93053571Y24475000D01*
X93053571Y24475000D02*
X93005952Y24522620D01*
X93005952Y24522620D02*
X92958333Y24617858D01*
X92958333Y24617858D02*
X92958333Y24855953D01*
X92958333Y24855953D02*
X93005952Y24951191D01*
X93005952Y24951191D02*
X93053571Y24998810D01*
X93053571Y24998810D02*
X93148809Y25046429D01*
X93148809Y25046429D02*
X93339285Y25046429D01*
X93339285Y25046429D02*
X93434523Y24998810D01*
X93434523Y24998810D02*
X93482142Y24951191D01*
X93482142Y24951191D02*
X93529761Y24855953D01*
D11*
X72311190Y50026667D02*
X72311190Y49693334D01*
X71787380Y49693334D02*
X72787380Y49693334D01*
X72787380Y49693334D02*
X72787380Y50169524D01*
X72787380Y50455239D02*
X72787380Y51074286D01*
X72787380Y51074286D02*
X72406428Y50740953D01*
X72406428Y50740953D02*
X72406428Y50883810D01*
X72406428Y50883810D02*
X72358809Y50979048D01*
X72358809Y50979048D02*
X72311190Y51026667D01*
X72311190Y51026667D02*
X72215952Y51074286D01*
X72215952Y51074286D02*
X71977857Y51074286D01*
X71977857Y51074286D02*
X71882619Y51026667D01*
X71882619Y51026667D02*
X71835000Y50979048D01*
X71835000Y50979048D02*
X71787380Y50883810D01*
X71787380Y50883810D02*
X71787380Y50598096D01*
X71787380Y50598096D02*
X71835000Y50502858D01*
X71835000Y50502858D02*
X71882619Y50455239D01*
D10*
X121569523Y66747381D02*
X121569523Y66033096D01*
X121569523Y66033096D02*
X121617142Y65890239D01*
X121617142Y65890239D02*
X121712380Y65795000D01*
X121712380Y65795000D02*
X121855237Y65747381D01*
X121855237Y65747381D02*
X121950475Y65747381D01*
X120569523Y65747381D02*
X121140951Y65747381D01*
X120855237Y65747381D02*
X120855237Y66747381D01*
X120855237Y66747381D02*
X120950475Y66604524D01*
X120950475Y66604524D02*
X121045713Y66509286D01*
X121045713Y66509286D02*
X121140951Y66461667D01*
X119712380Y66414048D02*
X119712380Y65747381D01*
X119950475Y66795000D02*
X120188570Y66080715D01*
X120188570Y66080715D02*
X119569523Y66080715D01*
X107333333Y79597381D02*
X107333333Y78883096D01*
X107333333Y78883096D02*
X107380952Y78740239D01*
X107380952Y78740239D02*
X107476190Y78645000D01*
X107476190Y78645000D02*
X107619047Y78597381D01*
X107619047Y78597381D02*
X107714285Y78597381D01*
X106380952Y79597381D02*
X106857142Y79597381D01*
X106857142Y79597381D02*
X106904761Y79121191D01*
X106904761Y79121191D02*
X106857142Y79168810D01*
X106857142Y79168810D02*
X106761904Y79216429D01*
X106761904Y79216429D02*
X106523809Y79216429D01*
X106523809Y79216429D02*
X106428571Y79168810D01*
X106428571Y79168810D02*
X106380952Y79121191D01*
X106380952Y79121191D02*
X106333333Y79025953D01*
X106333333Y79025953D02*
X106333333Y78787858D01*
X106333333Y78787858D02*
X106380952Y78692620D01*
X106380952Y78692620D02*
X106428571Y78645000D01*
X106428571Y78645000D02*
X106523809Y78597381D01*
X106523809Y78597381D02*
X106761904Y78597381D01*
X106761904Y78597381D02*
X106857142Y78645000D01*
X106857142Y78645000D02*
X106904761Y78692620D01*
X56250704Y85202181D02*
X56250704Y84392658D01*
X56250704Y84392658D02*
X56203085Y84297420D01*
X56203085Y84297420D02*
X56155466Y84249800D01*
X56155466Y84249800D02*
X56060228Y84202181D01*
X56060228Y84202181D02*
X55869752Y84202181D01*
X55869752Y84202181D02*
X55774514Y84249800D01*
X55774514Y84249800D02*
X55726895Y84297420D01*
X55726895Y84297420D02*
X55679276Y84392658D01*
X55679276Y84392658D02*
X55679276Y85202181D01*
X54679276Y84202181D02*
X55250704Y84202181D01*
X54964990Y84202181D02*
X54964990Y85202181D01*
X54964990Y85202181D02*
X55060228Y85059324D01*
X55060228Y85059324D02*
X55155466Y84964086D01*
X55155466Y84964086D02*
X55250704Y84916467D01*
X38956533Y42072981D02*
X38956533Y41358696D01*
X38956533Y41358696D02*
X39004152Y41215839D01*
X39004152Y41215839D02*
X39099390Y41120600D01*
X39099390Y41120600D02*
X39242247Y41072981D01*
X39242247Y41072981D02*
X39337485Y41072981D01*
X38051771Y41739648D02*
X38051771Y41072981D01*
X38289866Y42120600D02*
X38527961Y41406315D01*
X38527961Y41406315D02*
X37908914Y41406315D01*
X103633333Y57037381D02*
X103633333Y56323096D01*
X103633333Y56323096D02*
X103680952Y56180239D01*
X103680952Y56180239D02*
X103776190Y56085000D01*
X103776190Y56085000D02*
X103919047Y56037381D01*
X103919047Y56037381D02*
X104014285Y56037381D01*
X103014285Y56608810D02*
X103109523Y56656429D01*
X103109523Y56656429D02*
X103157142Y56704048D01*
X103157142Y56704048D02*
X103204761Y56799286D01*
X103204761Y56799286D02*
X103204761Y56846905D01*
X103204761Y56846905D02*
X103157142Y56942143D01*
X103157142Y56942143D02*
X103109523Y56989762D01*
X103109523Y56989762D02*
X103014285Y57037381D01*
X103014285Y57037381D02*
X102823809Y57037381D01*
X102823809Y57037381D02*
X102728571Y56989762D01*
X102728571Y56989762D02*
X102680952Y56942143D01*
X102680952Y56942143D02*
X102633333Y56846905D01*
X102633333Y56846905D02*
X102633333Y56799286D01*
X102633333Y56799286D02*
X102680952Y56704048D01*
X102680952Y56704048D02*
X102728571Y56656429D01*
X102728571Y56656429D02*
X102823809Y56608810D01*
X102823809Y56608810D02*
X103014285Y56608810D01*
X103014285Y56608810D02*
X103109523Y56561191D01*
X103109523Y56561191D02*
X103157142Y56513572D01*
X103157142Y56513572D02*
X103204761Y56418334D01*
X103204761Y56418334D02*
X103204761Y56227858D01*
X103204761Y56227858D02*
X103157142Y56132620D01*
X103157142Y56132620D02*
X103109523Y56085000D01*
X103109523Y56085000D02*
X103014285Y56037381D01*
X103014285Y56037381D02*
X102823809Y56037381D01*
X102823809Y56037381D02*
X102728571Y56085000D01*
X102728571Y56085000D02*
X102680952Y56132620D01*
X102680952Y56132620D02*
X102633333Y56227858D01*
X102633333Y56227858D02*
X102633333Y56418334D01*
X102633333Y56418334D02*
X102680952Y56513572D01*
X102680952Y56513572D02*
X102728571Y56561191D01*
X102728571Y56561191D02*
X102823809Y56608810D01*
D11*
X78321190Y50026667D02*
X78321190Y49693334D01*
X77797380Y49693334D02*
X78797380Y49693334D01*
X78797380Y49693334D02*
X78797380Y50169524D01*
X78702142Y50502858D02*
X78749761Y50550477D01*
X78749761Y50550477D02*
X78797380Y50645715D01*
X78797380Y50645715D02*
X78797380Y50883810D01*
X78797380Y50883810D02*
X78749761Y50979048D01*
X78749761Y50979048D02*
X78702142Y51026667D01*
X78702142Y51026667D02*
X78606904Y51074286D01*
X78606904Y51074286D02*
X78511666Y51074286D01*
X78511666Y51074286D02*
X78368809Y51026667D01*
X78368809Y51026667D02*
X77797380Y50455239D01*
X77797380Y50455239D02*
X77797380Y51074286D01*
D10*
X46646323Y65237781D02*
X46646323Y64523496D01*
X46646323Y64523496D02*
X46693942Y64380639D01*
X46693942Y64380639D02*
X46789180Y64285400D01*
X46789180Y64285400D02*
X46932037Y64237781D01*
X46932037Y64237781D02*
X47027275Y64237781D01*
X45646323Y64237781D02*
X46217751Y64237781D01*
X45932037Y64237781D02*
X45932037Y65237781D01*
X45932037Y65237781D02*
X46027275Y65094924D01*
X46027275Y65094924D02*
X46122513Y64999686D01*
X46122513Y64999686D02*
X46217751Y64952067D01*
X44741561Y65237781D02*
X45217751Y65237781D01*
X45217751Y65237781D02*
X45265370Y64761591D01*
X45265370Y64761591D02*
X45217751Y64809210D01*
X45217751Y64809210D02*
X45122513Y64856829D01*
X45122513Y64856829D02*
X44884418Y64856829D01*
X44884418Y64856829D02*
X44789180Y64809210D01*
X44789180Y64809210D02*
X44741561Y64761591D01*
X44741561Y64761591D02*
X44693942Y64666353D01*
X44693942Y64666353D02*
X44693942Y64428258D01*
X44693942Y64428258D02*
X44741561Y64333020D01*
X44741561Y64333020D02*
X44789180Y64285400D01*
X44789180Y64285400D02*
X44884418Y64237781D01*
X44884418Y64237781D02*
X45122513Y64237781D01*
X45122513Y64237781D02*
X45217751Y64285400D01*
X45217751Y64285400D02*
X45265370Y64333020D01*
D12*
X28260000Y17350000D02*
X28260000Y18680000D01*
X29590000Y17350000D02*
X28260000Y17350000D01*
X30860000Y17350000D02*
X79180000Y17350000D01*
X30860000Y17350000D02*
X30860000Y19950000D01*
X79180000Y17350000D02*
X79180000Y22550000D01*
X28260000Y19950000D02*
X28260000Y22550000D01*
X30860000Y19950000D02*
X28260000Y19950000D01*
X28260000Y22550000D02*
X79180000Y22550000D01*
D11*
X26220000Y-50000D02*
X81220000Y-50000D01*
X81220000Y-50000D02*
X81220000Y39950000D01*
X81220000Y39950000D02*
X26220000Y39950000D01*
X26220000Y39950000D02*
X26220000Y-50000D01*
D12*
X92295000Y36170000D02*
X94955000Y36170000D01*
X92295000Y28490000D02*
X92295000Y36170000D01*
X92295000Y28490000D02*
X94955000Y28490000D01*
X92295000Y27220000D02*
X92295000Y25890000D01*
X92295000Y25890000D02*
X93625000Y25890000D01*
X94955000Y28490000D02*
X94955000Y36170000D01*
X118000000Y66555000D02*
X119270000Y66555000D01*
X119270000Y66555000D02*
X119270000Y67825000D01*
X115080000Y68867929D02*
X115080000Y69265000D01*
X115840000Y68867929D02*
X115840000Y69265000D01*
X117620000Y68935000D02*
X117620000Y69265000D01*
X118380000Y68935000D02*
X118380000Y69265000D01*
X114130000Y69265000D02*
X114130000Y71925000D01*
X116730000Y69265000D02*
X116730000Y71925000D01*
X119330000Y69265000D02*
X114130000Y69265000D01*
X114130000Y71925000D02*
X119330000Y71925000D01*
X115840000Y71925000D02*
X115840000Y77925000D01*
X117720000Y71925000D02*
X117720000Y77925000D01*
X117840000Y71925000D02*
X117840000Y77925000D01*
X117960000Y71925000D02*
X117960000Y77925000D01*
X118080000Y71925000D02*
X118080000Y77925000D01*
X118200000Y71925000D02*
X118200000Y77925000D01*
X118320000Y71925000D02*
X118320000Y77925000D01*
X118380000Y71925000D02*
X118380000Y77925000D01*
X119330000Y71925000D02*
X119330000Y69265000D01*
X115080000Y77925000D02*
X115080000Y71925000D01*
X115840000Y77925000D02*
X115080000Y77925000D01*
X117620000Y77925000D02*
X117620000Y71925000D01*
X118380000Y77925000D02*
X117620000Y77925000D01*
D11*
X107914753Y74993752D02*
G75*
G03*
X107914753Y74993752I-914753J0D01*
G01*
X107914400Y77000000D02*
G75*
G03*
X107914400Y77000000I-914400J0D01*
G01*
D12*
X60300000Y65500000D02*
X59900000Y65500000D01*
X62900000Y65500000D02*
X62500000Y65500000D01*
X65400000Y65500000D02*
X65000000Y65500000D01*
X67900000Y65500000D02*
X67500000Y65500000D01*
X70500000Y65500000D02*
X70100000Y65500000D01*
X73000000Y65500000D02*
X72600000Y65500000D01*
X75600000Y65500000D02*
X75200000Y65500000D01*
X78100000Y65500000D02*
X77700000Y65500000D01*
X80700000Y65500000D02*
X80300000Y65500000D01*
X83200000Y65500000D02*
X82800000Y65500000D01*
X85700000Y65500000D02*
X85300000Y65500000D01*
X88300000Y65500000D02*
X87900000Y65500000D01*
X90800000Y65500000D02*
X90400000Y65500000D01*
X93400000Y65500000D02*
X93000000Y65500000D01*
X95900000Y65500000D02*
X95500000Y65500000D01*
X98400000Y65500000D02*
X98000000Y65500000D01*
X101000000Y65500000D02*
X100600000Y65500000D01*
X103500000Y65500000D02*
X103100000Y65500000D01*
X105833000Y65500000D02*
X105833000Y68507000D01*
X106100000Y65500000D02*
X105700000Y65500000D01*
X108500000Y65500000D02*
X108200000Y65500000D01*
X105833000Y68507000D02*
X108500000Y68507000D01*
X57500000Y72300000D02*
X57500000Y65500000D01*
X57500000Y74500000D02*
X57500000Y74900000D01*
X57500000Y77100000D02*
X57500000Y77500000D01*
X57500000Y86500000D02*
X57500000Y79700000D01*
X60300000Y86500000D02*
X59900000Y86500000D01*
X62900000Y86500000D02*
X62500000Y86500000D01*
X65400000Y86500000D02*
X65000000Y86500000D01*
X67900000Y86500000D02*
X67500000Y86500000D01*
X70500000Y86500000D02*
X70100000Y86500000D01*
X73000000Y86500000D02*
X72600000Y86500000D01*
X75600000Y86500000D02*
X75200000Y86500000D01*
X78100000Y86500000D02*
X77700000Y86500000D01*
X80700000Y86500000D02*
X80300000Y86500000D01*
X83200000Y86500000D02*
X82800000Y86500000D01*
X85700000Y86500000D02*
X85300000Y86500000D01*
X88300000Y86500000D02*
X87900000Y86500000D01*
X90800000Y86500000D02*
X90400000Y86500000D01*
X93400000Y86500000D02*
X93000000Y86500000D01*
X95900000Y86500000D02*
X95500000Y86500000D01*
X98400000Y86500000D02*
X98000000Y86500000D01*
X101000000Y86500000D02*
X100600000Y86500000D01*
X103500000Y86500000D02*
X103100000Y86500000D01*
X106100000Y86500000D02*
X105700000Y86500000D01*
X108500000Y86500000D02*
X108200000Y86500000D01*
X35865000Y40767400D02*
X37135000Y40767400D01*
X37135000Y40767400D02*
X37135000Y42037400D01*
X30405000Y43080329D02*
X30405000Y43477400D01*
X31165000Y43080329D02*
X31165000Y43477400D01*
X32945000Y43080329D02*
X32945000Y43477400D01*
X33705000Y43080329D02*
X33705000Y43477400D01*
X35485000Y43147400D02*
X35485000Y43477400D01*
X36245000Y43147400D02*
X36245000Y43477400D01*
X29455000Y43477400D02*
X29455000Y46137400D01*
X32055000Y43477400D02*
X32055000Y46137400D01*
X34595000Y43477400D02*
X34595000Y46137400D01*
X37195000Y43477400D02*
X29455000Y43477400D01*
X29455000Y46137400D02*
X37195000Y46137400D01*
X31165000Y46137400D02*
X31165000Y52137400D01*
X33705000Y46137400D02*
X33705000Y52137400D01*
X35585000Y46137400D02*
X35585000Y52137400D01*
X35705000Y46137400D02*
X35705000Y52137400D01*
X35825000Y46137400D02*
X35825000Y52137400D01*
X35945000Y46137400D02*
X35945000Y52137400D01*
X36065000Y46137400D02*
X36065000Y52137400D01*
X36185000Y46137400D02*
X36185000Y52137400D01*
X36245000Y46137400D02*
X36245000Y52137400D01*
X37195000Y46137400D02*
X37195000Y43477400D01*
X30405000Y52137400D02*
X30405000Y46137400D01*
X31165000Y52137400D02*
X30405000Y52137400D01*
X32945000Y52137400D02*
X32945000Y46137400D01*
X33705000Y52137400D02*
X32945000Y52137400D01*
X35485000Y52137400D02*
X35485000Y46137400D01*
X36245000Y52137400D02*
X35485000Y52137400D01*
D11*
X151480000Y61494400D02*
X151480000Y3494400D01*
X147730000Y-5600D02*
X147980000Y-5600D01*
D12*
X138790000Y1979400D02*
X138790000Y7179400D01*
X137885000Y48884400D02*
X137885000Y43744400D01*
X137885000Y51484400D02*
X137885000Y50154400D01*
X136555000Y51484400D02*
X137885000Y51484400D01*
X135285000Y48884400D02*
X137885000Y48884400D01*
X135285000Y51484400D02*
X135285000Y48884400D01*
X133650000Y4579400D02*
X133650000Y7179400D01*
X133650000Y7179400D02*
X138790000Y7179400D01*
X132685000Y43744400D02*
X137885000Y43744400D01*
X132685000Y51484400D02*
X135285000Y51484400D01*
X132685000Y51484400D02*
X132685000Y43744400D01*
X131050000Y1979400D02*
X138790000Y1979400D01*
X131050000Y1979400D02*
X131050000Y4579400D01*
X131050000Y4579400D02*
X133650000Y4579400D01*
X131050000Y5849400D02*
X131050000Y7179400D01*
X131050000Y7179400D02*
X132380000Y7179400D01*
X101580000Y55354400D02*
X101580000Y7034400D01*
X101580000Y57954400D02*
X101580000Y56624400D01*
X100250000Y57954400D02*
X101580000Y57954400D01*
X98980000Y55354400D02*
X101580000Y55354400D01*
X98980000Y57954400D02*
X98980000Y55354400D01*
D11*
X98980000Y64994400D02*
X147980000Y64994400D01*
X98980000Y64994400D02*
X98480000Y64994757D01*
X98230000Y-5600D02*
X147730000Y-5600D01*
D12*
X96380000Y7034400D02*
X101580000Y7034400D01*
X96380000Y57954400D02*
X98980000Y57954400D01*
X96380000Y57954400D02*
X96380000Y7034400D01*
D11*
X94980000Y3494400D02*
X94980000Y61444400D01*
X147980000Y-5600D02*
G75*
G03*
X151480000Y3494400I1J3499999D01*
G01*
X151480000Y61494400D02*
G75*
G03*
X147980000Y64994400I-3499999J1D01*
G01*
X94980000Y3494400D02*
G75*
G03*
X98480000Y-5600I3500000J0D01*
G01*
X98480000Y64994757D02*
G75*
G03*
X94980000Y61444400I0J-3500357D01*
G01*
X149631000Y3494400D02*
G75*
G03*
X149631000Y3494400I-1651000J0D01*
G01*
X149631000Y61494400D02*
G75*
G03*
X149631000Y61494400I-1651000J0D01*
G01*
X100631000Y3494400D02*
G75*
G03*
X100631000Y3494400I-1651000J0D01*
G01*
X100631000Y61494400D02*
G75*
G03*
X100631000Y61494400I-1651000J0D01*
G01*
D12*
X52270000Y72150000D02*
X52270000Y73420000D01*
X52270000Y73420000D02*
X51000000Y73420000D01*
X49957071Y66690000D02*
X49502929Y66690000D01*
X49957071Y67450000D02*
X49502929Y67450000D01*
X49957071Y69230000D02*
X49502929Y69230000D01*
X49957071Y69990000D02*
X49502929Y69990000D01*
X49890000Y71770000D02*
X49502929Y71770000D01*
X49890000Y72530000D02*
X49502929Y72530000D01*
X47417071Y66690000D02*
X47020000Y66690000D01*
X47417071Y67450000D02*
X47020000Y67450000D01*
X47417071Y69230000D02*
X47020000Y69230000D01*
X47417071Y69990000D02*
X47020000Y69990000D01*
X47417071Y71770000D02*
X47020000Y71770000D01*
X47417071Y72530000D02*
X47020000Y72530000D01*
X47020000Y65740000D02*
X44360000Y65740000D01*
X47020000Y68340000D02*
X44360000Y68340000D01*
X47020000Y70880000D02*
X44360000Y70880000D01*
X47020000Y73480000D02*
X47020000Y65740000D01*
X44360000Y65740000D02*
X44360000Y73480000D01*
X44360000Y67450000D02*
X38360000Y67450000D01*
X44360000Y69990000D02*
X38360000Y69990000D01*
X44360000Y71870000D02*
X38360000Y71870000D01*
X44360000Y71990000D02*
X38360000Y71990000D01*
X44360000Y72110000D02*
X38360000Y72110000D01*
X44360000Y72230000D02*
X38360000Y72230000D01*
X44360000Y72350000D02*
X38360000Y72350000D01*
X44360000Y72470000D02*
X38360000Y72470000D01*
X44360000Y72530000D02*
X38360000Y72530000D01*
X44360000Y73480000D02*
X47020000Y73480000D01*
X38360000Y66690000D02*
X44360000Y66690000D01*
X38360000Y67450000D02*
X38360000Y66690000D01*
X38360000Y69230000D02*
X44360000Y69230000D01*
X38360000Y69990000D02*
X38360000Y69230000D01*
X38360000Y71770000D02*
X44360000Y71770000D01*
X38360000Y72530000D02*
X38360000Y71770000D01*
M02*
