G04 #@! TF.GenerationSoftware,KiCad,Pcbnew,7.0.1.1-36-gbcf78dbe24-dirty-deb11*
G04 #@! TF.CreationDate,2023-03-26T23:16:06+00:00*
G04 #@! TF.ProjectId,pedalboard-hw,70656461-6c62-46f6-9172-642d68772e6b,0.0.1*
G04 #@! TF.SameCoordinates,Original*
G04 #@! TF.FileFunction,Profile,NP*
%FSLAX46Y46*%
G04 Gerber Fmt 4.6, Leading zero omitted, Abs format (unit mm)*
G04 Created by KiCad (PCBNEW 7.0.1.1-36-gbcf78dbe24-dirty-deb11) date 2023-03-26 23:16:06*
%MOMM*%
%LPD*%
G01*
G04 APERTURE LIST*
G04 #@! TA.AperFunction,Profile*
%ADD10C,0.100000*%
G04 #@! TD*
G04 APERTURE END LIST*
D10*
X98200000Y105000000D02*
X169000000Y105000000D01*
X0Y1000000D02*
X0Y64000000D01*
X1000000Y0D02*
X169000000Y0D01*
X54000000Y104000000D02*
X54000000Y100000000D01*
X55000000Y105000000D02*
G75*
G03*
X54000000Y104000000I0J-1000000D01*
G01*
X93800000Y104000000D02*
G75*
G03*
X94200000Y103600000I400000J0D01*
G01*
X0Y1000000D02*
G75*
G03*
X1000000Y0I1000000J0D01*
G01*
X71800000Y104000000D02*
G75*
G03*
X72200000Y103600000I400000J0D01*
G01*
X94200000Y103600000D02*
X97800000Y103600000D01*
X38000000Y66000000D02*
X38000000Y98000000D01*
X1000000Y65000000D02*
X37000000Y65000000D01*
X39000000Y99000000D02*
G75*
G03*
X38000000Y98000000I0J-1000000D01*
G01*
X170000000Y104000000D02*
X170000000Y1000000D01*
X93800000Y105000000D02*
X93800000Y104000000D01*
X76200000Y104000000D02*
X76200000Y105000000D01*
X76200000Y105000000D02*
X93800000Y105000000D01*
X170000000Y104000000D02*
G75*
G03*
X169000000Y105000000I-1000000J0D01*
G01*
X75800000Y103600000D02*
G75*
G03*
X76200000Y104000000I0J400000D01*
G01*
X53000000Y99000000D02*
X39000000Y99000000D01*
X71800000Y105000000D02*
X71800000Y104000000D01*
X1000000Y65000000D02*
G75*
G03*
X0Y64000000I0J-1000000D01*
G01*
X53000000Y99000000D02*
G75*
G03*
X54000000Y100000000I0J1000000D01*
G01*
X72200000Y103600000D02*
X75800000Y103600000D01*
X37000000Y65000000D02*
G75*
G03*
X38000000Y66000000I0J1000000D01*
G01*
X71800000Y105000000D02*
X55000000Y105000000D01*
X169000000Y0D02*
G75*
G03*
X170000000Y1000000I0J1000000D01*
G01*
X97799998Y103600000D02*
G75*
G03*
X98200000Y104000000I2J400000D01*
G01*
X98200000Y104000000D02*
X98200000Y105000000D01*
M02*
