M48
; DRILL file {KiCad 7.0.1.1-36-gbcf78dbe24-dirty-deb11} date Sun Mar 26 08:10:46 2023
; FORMAT={-:-/ absolute / metric / decimal}
; #@! TF.CreationDate,2023-03-26T08:10:46+00:00
; #@! TF.GenerationSoftware,Kicad,Pcbnew,7.0.1.1-36-gbcf78dbe24-dirty-deb11
; #@! TF.FileFunction,MixedPlating,1,2
FMAT,2
METRIC
; #@! TA.AperFunction,Plated,PTH,ViaDrill
T1C0.400
; #@! TA.AperFunction,Plated,PTH,ComponentDrill
T2C0.400
; #@! TA.AperFunction,Plated,PTH,ComponentDrill
T3C0.508
; #@! TA.AperFunction,Plated,PTH,ComponentDrill
T4C0.800
; #@! TA.AperFunction,Plated,PTH,ComponentDrill
T5C0.900
; #@! TA.AperFunction,Plated,PTH,ComponentDrill
T6C1.000
; #@! TA.AperFunction,Plated,PTH,ComponentDrill
T7C1.020
; #@! TA.AperFunction,Plated,PTH,ComponentDrill
T8C1.200
; #@! TA.AperFunction,Plated,PTH,ComponentDrill
T9C1.321
; #@! TA.AperFunction,Plated,PTH,ComponentDrill
T10C1.400
; #@! TA.AperFunction,Plated,PTH,ComponentDrill
T11C2.600
; #@! TA.AperFunction,NonPlated,NPTH,ComponentDrill
T12C1.200
; #@! TA.AperFunction,NonPlated,NPTH,ComponentDrill
T13C2.700
%
G90
G05
T1
X76.5Y75.05
X103.65Y72.676
X132.6Y87.6
X149.469Y58.706
X149.977Y21.216
X158.8Y31.2
T3
X107.0Y77.0
X107.0Y75.0
T4
X24.155Y25.8
X24.155Y23.3
X24.355Y52.8
X24.355Y50.3
X27.695Y61.95
X27.695Y58.95
X37.855Y61.95
X37.855Y58.95
X39.5Y84.555
X39.5Y74.395
X41.855Y64.28
X41.855Y61.74
X41.855Y59.2
X43.475Y81.3
X45.975Y81.3
X48.12Y56.02
X48.75Y81.325
X49.475Y64.28
X49.475Y61.74
X49.475Y59.2
X51.25Y81.325
X53.7Y66.845
X53.7Y59.225
X54.575Y82.055
X54.575Y71.895
X56.6Y69.73
X56.6Y59.57
X58.28Y56.02
X61.12Y62.425
X61.19Y59.02
X61.19Y55.66
X71.25Y72.6
X71.28Y62.425
X71.35Y59.02
X71.35Y55.66
X73.75Y72.6
X78.17Y45.95
X80.67Y45.95
X89.31Y20.07
X89.31Y17.57
X96.15Y72.7
X98.65Y72.7
X110.84Y81.53
X112.16Y77.98
X112.16Y67.82
X113.34Y81.53
X126.8Y78.3
X126.8Y75.8
X141.62Y20.2
X141.62Y17.7
X144.57Y41.7
X147.07Y41.7
T5
X22.1Y46.0
X22.1Y19.0
X23.37Y46.0
X23.37Y19.0
X24.64Y46.0
X24.64Y19.0
X25.91Y46.0
X25.91Y19.0
X45.6Y77.0
X46.87Y77.0
X48.14Y77.0
X49.41Y77.0
X70.6Y77.0
X71.87Y77.0
X73.14Y77.0
X74.41Y77.0
X83.1Y46.0
X83.1Y19.0
X84.37Y46.0
X84.37Y19.0
X85.64Y46.0
X85.64Y19.0
X86.91Y46.0
X86.91Y19.0
X95.6Y77.0
X96.87Y77.0
X98.14Y77.0
X99.41Y77.0
X120.6Y77.0
X121.87Y77.0
X123.14Y77.0
X124.41Y77.0
X144.1Y46.0
X144.1Y19.0
X145.37Y46.0
X145.37Y19.0
X146.64Y46.0
X146.64Y19.0
X147.91Y46.0
X147.91Y19.0
T6
X23.615Y42.21
X23.615Y39.67
X23.615Y37.13
X29.59Y21.22
X29.59Y18.68
X32.13Y21.22
X32.13Y18.68
X34.67Y21.22
X34.67Y18.68
X37.21Y21.22
X37.21Y18.68
X39.75Y21.22
X39.75Y18.68
X40.25Y93.5
X40.25Y91.0
X40.25Y88.5
X42.29Y21.22
X42.29Y18.68
X44.83Y21.22
X44.83Y18.68
X47.37Y21.22
X47.37Y18.68
X48.46Y72.15
X48.46Y69.61
X48.46Y67.07
X49.91Y21.22
X49.91Y18.68
X51.0Y72.15
X51.0Y69.61
X51.0Y67.07
X52.45Y21.22
X52.45Y18.68
X54.75Y93.5
X54.75Y88.5
X54.99Y21.22
X54.99Y18.68
X57.53Y21.22
X57.53Y18.68
X60.07Y21.22
X60.07Y18.68
X62.61Y21.22
X62.61Y18.68
X65.15Y21.22
X65.15Y18.68
X67.69Y21.22
X67.69Y18.68
X70.23Y21.22
X70.23Y18.68
X72.77Y21.22
X72.77Y18.68
X75.31Y21.22
X75.31Y18.68
X77.85Y21.22
X77.85Y18.68
X93.625Y35.015
X93.625Y32.475
X93.625Y29.935
X93.625Y27.395
X97.71Y56.624
X97.71Y54.084
X97.71Y51.544
X97.71Y49.004
X97.71Y46.464
X97.71Y43.924
X97.71Y41.384
X97.71Y38.844
X97.71Y36.304
X97.71Y33.764
X97.71Y31.224
X97.71Y28.684
X97.71Y26.144
X97.71Y23.604
X97.71Y21.064
X97.71Y18.524
X97.71Y15.984
X97.71Y13.444
X97.71Y10.904
X97.71Y8.364
X100.25Y56.624
X100.25Y54.084
X100.25Y51.544
X100.25Y49.004
X100.25Y46.464
X100.25Y43.924
X100.25Y41.384
X100.25Y38.844
X100.25Y36.304
X100.25Y33.764
X100.25Y31.224
X100.25Y28.684
X100.25Y26.144
X100.25Y23.604
X100.25Y21.064
X100.25Y18.524
X100.25Y15.984
X100.25Y13.444
X100.25Y10.904
X100.25Y8.364
X115.25Y93.5
X115.25Y91.0
X115.25Y88.5
X129.75Y93.5
X129.75Y88.5
X132.38Y5.849
X132.38Y3.309
X134.015Y50.154
X134.015Y47.614
X134.015Y45.074
X134.92Y5.849
X134.92Y3.309
X136.555Y50.154
X136.555Y47.614
X136.555Y45.074
X137.46Y5.849
X137.46Y3.309
T7
X58.87Y84.89
X58.87Y67.11
X61.41Y84.89
X61.41Y67.11
X63.95Y84.89
X63.95Y67.11
X66.49Y84.89
X66.49Y67.11
X69.03Y84.89
X69.03Y67.11
X71.57Y84.89
X71.57Y67.11
X74.11Y84.89
X74.11Y67.11
X76.65Y84.89
X76.65Y67.11
X79.19Y84.89
X79.19Y67.11
X81.73Y84.89
X81.73Y67.11
X84.27Y84.89
X84.27Y67.11
X86.81Y84.89
X86.81Y67.11
X89.35Y84.89
X89.35Y67.11
X91.89Y84.89
X91.89Y67.11
X94.43Y84.89
X94.43Y67.11
X96.97Y84.89
X96.97Y67.11
X99.51Y84.89
X99.51Y67.11
X102.05Y84.89
X102.05Y67.11
X104.59Y84.89
X104.59Y67.11
X107.13Y84.89
X107.13Y67.11
T8
X3.75Y60.5
X3.75Y55.5
X3.75Y8.5
X3.75Y3.5
X16.25Y60.5
X16.25Y55.5
X16.25Y8.5
X16.25Y3.5
X78.75Y60.5
X78.75Y55.5
X78.75Y8.5
X78.75Y3.5
X91.25Y60.5
X91.25Y55.5
X91.25Y8.5
X91.25Y3.5
X153.75Y60.5
X153.75Y55.5
X153.75Y8.5
X153.75Y3.5
X166.25Y60.5
X166.25Y55.5
X166.25Y8.5
X166.25Y3.5
T9
X66.505Y93.0
X69.005Y103.0
X69.005Y90.5
X71.505Y103.0
X74.005Y93.0
X76.505Y103.0
X79.005Y103.0
X79.005Y90.5
X81.505Y93.0
X88.5Y93.0
X91.0Y103.0
X91.0Y90.5
X93.5Y103.0
X96.0Y93.0
X98.5Y103.0
X101.0Y103.0
X101.0Y90.5
X103.5Y93.0
T10
X1.7Y30.03
X1.7Y13.8
X1.735Y50.23
X1.735Y34.0
X8.05Y30.03
X8.05Y13.8
X8.085Y50.23
X8.085Y34.0
X14.4Y30.03
X14.4Y13.8
X14.435Y50.23
X14.435Y34.0
X155.6Y50.22
X155.6Y33.99
X155.6Y30.005
X155.6Y13.775
X155.615Y91.2
X155.615Y74.97
X161.95Y50.22
X161.95Y33.99
X161.95Y30.005
X161.95Y13.775
X161.965Y91.2
X161.965Y74.97
X168.3Y50.22
X168.3Y33.99
X168.3Y30.005
X168.3Y13.775
X168.315Y91.2
X168.315Y74.97
T11
X47.75Y96.6
X47.75Y85.4
X122.75Y96.6
X122.75Y85.4
T12
X69.0Y100.5
X74.0Y95.5
X79.0Y100.5
X91.0Y100.5
X96.0Y95.5
X101.0Y100.5
T13
X22.0Y61.5
X22.0Y3.5
X57.0Y102.0
X98.9Y61.434
X98.98Y3.48
X113.0Y102.0
X147.9Y61.55
X148.02Y3.5
X167.0Y102.0
T2
G00X69.0Y96.0
M15
G01X69.0Y95.0
M16
G05
G00X71.5Y96.0
M15
G01X71.5Y95.0
M16
G05
G00X74.5Y100.5
M15
G01X73.5Y100.5
M16
G05
G00X76.5Y95.0
M15
G01X76.5Y96.0
M16
G05
G00X79.0Y95.0
M15
G01X79.0Y96.0
M16
G05
G00X91.0Y96.0
M15
G01X91.0Y95.0
M16
G05
G00X93.5Y96.0
M15
G01X93.5Y95.0
M16
G05
G00X96.5Y100.5
M15
G01X95.5Y100.5
M16
G05
G00X98.5Y95.0
M15
G01X98.5Y96.0
M16
G05
G00X101.0Y95.0
M15
G01X101.0Y96.0
M16
G05
T0
M30
