  0
SECTION
  2
HEADER
  9
$ANGBASE
  50
0.0
  9
$ANGDIR
  70
1
  9
$MEASUREMENT
  70
1
  0
ENDSEC
  0
SECTION
  2
TABLES
  0
TABLE
  2
LTYPE
  70
4
  0
LTYPE
  5
40F
  2
CONTINUOUS
  70
0
  3
Solid line
  72
65
  73
0
  40
0.0
  0
LTYPE
  5
410
  2
DASHDOT
 70
0
  3
Dash Dot ____ _ ____ _
 72
65
 73
4
 40
2.0
 49
1.25
 49
-0.25
 49
0.25
 49
-0.25
  0
LTYPE
  5
411
  2
DASHED
 70
0
  3
Dashed __ __ __ __ __
 72
65
 73
2
 40
0.75
 49
0.5
 49
-0.25
  0
LTYPE
  5
43B
  2
DOTTED
 70
0
  3
Dotted .  .  .  .
 72
65
 73
2
 40
0.2
 49
0.0
 49
-0.2
  0
ENDTAB
  0
TABLE
  2
STYLE
  70
4
  0
STYLE
  2
KICAD
  70
0
  40
0
  41
1
  42
1
  50
0
  71
0
  3
isocp.shx
  0
STYLE
  2
KICADB
  70
0
  40
0
  41
1
  42
1
  50
0
  71
0
  3
isocp.shx
  0
STYLE
  2
KICADI
  70
0
  40
0
  41
1
  42
1
  50
15
  71
0
  3
isocp.shx
  0
STYLE
  2
KICADBI
  70
0
  40
0
  41
1
  42
1
  50
15
  71
0
  3
isocp.shx
  0
ENDTAB
  0
TABLE
  2
LAYER
  70
1
  0
LAYER
  2
BLACK
  70
0
  62
7
  6
CONTINUOUS
  0
ENDTAB
  0
ENDSEC
  0
SECTION
  2
ENTITIES
0
LINE
8
BLACK
6
CONTINUOUS
10
94.7997
20
-74.8728
11
94.9124
21
-74.9279
0
LINE
8
BLACK
6
CONTINUOUS
10
94.9124
20
-74.9279
11
95.0011
21
-75.0166
0
LINE
8
BLACK
6
CONTINUOUS
10
95.0011
20
-75.0166
11
95.0562
21
-75.1293
0
LINE
8
BLACK
6
CONTINUOUS
10
95.0562
20
-75.1293
11
95.072
21
-75.238
0
LINE
8
BLACK
6
CONTINUOUS
10
95.072
20
-75.238
11
95.072
21
-76.762
0
LINE
8
BLACK
6
CONTINUOUS
10
95.072
20
-76.762
11
95.0562
21
-76.8707
0
LINE
8
BLACK
6
CONTINUOUS
10
95.0562
20
-76.8707
11
95.0011
21
-76.9834
0
LINE
8
BLACK
6
CONTINUOUS
10
95.0011
20
-76.9834
11
94.9124
21
-77.0721
0
LINE
8
BLACK
6
CONTINUOUS
10
94.9124
20
-77.0721
11
94.7997
21
-77.1272
0
LINE
8
BLACK
6
CONTINUOUS
10
94.7997
20
-77.1272
11
94.691
21
-77.143
0
LINE
8
BLACK
6
CONTINUOUS
10
94.691
20
-77.143
11
93.929
21
-77.143
0
LINE
8
BLACK
6
CONTINUOUS
10
93.929
20
-77.143
11
93.8203
21
-77.1272
0
LINE
8
BLACK
6
CONTINUOUS
10
93.8203
20
-77.1272
11
93.7076
21
-77.0721
0
LINE
8
BLACK
6
CONTINUOUS
10
93.7076
20
-77.0721
11
93.6189
21
-76.9834
0
LINE
8
BLACK
6
CONTINUOUS
10
93.6189
20
-76.9834
11
93.5638
21
-76.8707
0
LINE
8
BLACK
6
CONTINUOUS
10
93.5638
20
-76.8707
11
93.548
21
-76.762
0
LINE
8
BLACK
6
CONTINUOUS
10
93.548
20
-76.762
11
93.548
21
-75.238
0
LINE
8
BLACK
6
CONTINUOUS
10
93.548
20
-75.238
11
93.5638
21
-75.1293
0
LINE
8
BLACK
6
CONTINUOUS
10
93.5638
20
-75.1293
11
93.6189
21
-75.0166
0
LINE
8
BLACK
6
CONTINUOUS
10
93.6189
20
-75.0166
11
93.7076
21
-74.9279
0
LINE
8
BLACK
6
CONTINUOUS
10
93.7076
20
-74.9279
11
93.8203
21
-74.8728
0
LINE
8
BLACK
6
CONTINUOUS
10
93.8203
20
-74.8728
11
93.929
21
-74.857
0
LINE
8
BLACK
6
CONTINUOUS
10
93.929
20
-74.857
11
94.691
21
-74.857
0
LINE
8
BLACK
6
CONTINUOUS
10
94.691
20
-74.857
11
94.7997
21
-74.8728
0
LINE
8
BLACK
6
CONTINUOUS
10
96.7297
20
-74.8628
11
96.8424
21
-74.9179
0
LINE
8
BLACK
6
CONTINUOUS
10
96.8424
20
-74.9179
11
96.9311
21
-75.0066
0
LINE
8
BLACK
6
CONTINUOUS
10
96.9311
20
-75.0066
11
96.9862
21
-75.1193
0
LINE
8
BLACK
6
CONTINUOUS
10
96.9862
20
-75.1193
11
97.002
21
-75.228
0
LINE
8
BLACK
6
CONTINUOUS
10
97.002
20
-75.228
11
97.002
21
-76.752
0
LINE
8
BLACK
6
CONTINUOUS
10
97.002
20
-76.752
11
96.9862
21
-76.8607
0
LINE
8
BLACK
6
CONTINUOUS
10
96.9862
20
-76.8607
11
96.9311
21
-76.9734
0
LINE
8
BLACK
6
CONTINUOUS
10
96.9311
20
-76.9734
11
96.8424
21
-77.0621
0
LINE
8
BLACK
6
CONTINUOUS
10
96.8424
20
-77.0621
11
96.7297
21
-77.1172
0
LINE
8
BLACK
6
CONTINUOUS
10
96.7297
20
-77.1172
11
96.621
21
-77.133
0
LINE
8
BLACK
6
CONTINUOUS
10
96.621
20
-77.133
11
95.859
21
-77.133
0
LINE
8
BLACK
6
CONTINUOUS
10
95.859
20
-77.133
11
95.7503
21
-77.1172
0
LINE
8
BLACK
6
CONTINUOUS
10
95.7503
20
-77.1172
11
95.6376
21
-77.0621
0
LINE
8
BLACK
6
CONTINUOUS
10
95.6376
20
-77.0621
11
95.5489
21
-76.9734
0
LINE
8
BLACK
6
CONTINUOUS
10
95.5489
20
-76.9734
11
95.4938
21
-76.8607
0
LINE
8
BLACK
6
CONTINUOUS
10
95.4938
20
-76.8607
11
95.478
21
-76.752
0
LINE
8
BLACK
6
CONTINUOUS
10
95.478
20
-76.752
11
95.478
21
-75.228
0
LINE
8
BLACK
6
CONTINUOUS
10
95.478
20
-75.228
11
95.4938
21
-75.1193
0
LINE
8
BLACK
6
CONTINUOUS
10
95.4938
20
-75.1193
11
95.5489
21
-75.0066
0
LINE
8
BLACK
6
CONTINUOUS
10
95.5489
20
-75.0066
11
95.6376
21
-74.9179
0
LINE
8
BLACK
6
CONTINUOUS
10
95.6376
20
-74.9179
11
95.7503
21
-74.8628
0
LINE
8
BLACK
6
CONTINUOUS
10
95.7503
20
-74.8628
11
95.859
21
-74.847
0
LINE
8
BLACK
6
CONTINUOUS
10
95.859
20
-74.847
11
96.621
21
-74.847
0
LINE
8
BLACK
6
CONTINUOUS
10
96.621
20
-74.847
11
96.7297
21
-74.8628
0
LINE
8
BLACK
6
CONTINUOUS
10
94.7997
20
-72.2728
11
94.9124
21
-72.3279
0
LINE
8
BLACK
6
CONTINUOUS
10
94.9124
20
-72.3279
11
95.0011
21
-72.4166
0
LINE
8
BLACK
6
CONTINUOUS
10
95.0011
20
-72.4166
11
95.0562
21
-72.5293
0
LINE
8
BLACK
6
CONTINUOUS
10
95.0562
20
-72.5293
11
95.072
21
-72.638
0
LINE
8
BLACK
6
CONTINUOUS
10
95.072
20
-72.638
11
95.072
21
-74.162
0
LINE
8
BLACK
6
CONTINUOUS
10
95.072
20
-74.162
11
95.0562
21
-74.2707
0
LINE
8
BLACK
6
CONTINUOUS
10
95.0562
20
-74.2707
11
95.0011
21
-74.3834
0
LINE
8
BLACK
6
CONTINUOUS
10
95.0011
20
-74.3834
11
94.9124
21
-74.4721
0
LINE
8
BLACK
6
CONTINUOUS
10
94.9124
20
-74.4721
11
94.7997
21
-74.5272
0
LINE
8
BLACK
6
CONTINUOUS
10
94.7997
20
-74.5272
11
94.691
21
-74.543
0
LINE
8
BLACK
6
CONTINUOUS
10
94.691
20
-74.543
11
93.929
21
-74.543
0
LINE
8
BLACK
6
CONTINUOUS
10
93.929
20
-74.543
11
93.8203
21
-74.5272
0
LINE
8
BLACK
6
CONTINUOUS
10
93.8203
20
-74.5272
11
93.7076
21
-74.4721
0
LINE
8
BLACK
6
CONTINUOUS
10
93.7076
20
-74.4721
11
93.6189
21
-74.3834
0
LINE
8
BLACK
6
CONTINUOUS
10
93.6189
20
-74.3834
11
93.5638
21
-74.2707
0
LINE
8
BLACK
6
CONTINUOUS
10
93.5638
20
-74.2707
11
93.548
21
-74.162
0
LINE
8
BLACK
6
CONTINUOUS
10
93.548
20
-74.162
11
93.548
21
-72.638
0
LINE
8
BLACK
6
CONTINUOUS
10
93.548
20
-72.638
11
93.5638
21
-72.5293
0
LINE
8
BLACK
6
CONTINUOUS
10
93.5638
20
-72.5293
11
93.6189
21
-72.4166
0
LINE
8
BLACK
6
CONTINUOUS
10
93.6189
20
-72.4166
11
93.7076
21
-72.3279
0
LINE
8
BLACK
6
CONTINUOUS
10
93.7076
20
-72.3279
11
93.8203
21
-72.2728
0
LINE
8
BLACK
6
CONTINUOUS
10
93.8203
20
-72.2728
11
93.929
21
-72.257
0
LINE
8
BLACK
6
CONTINUOUS
10
93.929
20
-72.257
11
94.691
21
-72.257
0
LINE
8
BLACK
6
CONTINUOUS
10
94.691
20
-72.257
11
94.7997
21
-72.2728
0
LINE
8
BLACK
6
CONTINUOUS
10
96.7297
20
-72.2628
11
96.8424
21
-72.3179
0
LINE
8
BLACK
6
CONTINUOUS
10
96.8424
20
-72.3179
11
96.9311
21
-72.4066
0
LINE
8
BLACK
6
CONTINUOUS
10
96.9311
20
-72.4066
11
96.9862
21
-72.5193
0
LINE
8
BLACK
6
CONTINUOUS
10
96.9862
20
-72.5193
11
97.002
21
-72.628
0
LINE
8
BLACK
6
CONTINUOUS
10
97.002
20
-72.628
11
97.002
21
-74.152
0
LINE
8
BLACK
6
CONTINUOUS
10
97.002
20
-74.152
11
96.9862
21
-74.2607
0
LINE
8
BLACK
6
CONTINUOUS
10
96.9862
20
-74.2607
11
96.9311
21
-74.3734
0
LINE
8
BLACK
6
CONTINUOUS
10
96.9311
20
-74.3734
11
96.8424
21
-74.4621
0
LINE
8
BLACK
6
CONTINUOUS
10
96.8424
20
-74.4621
11
96.7297
21
-74.5172
0
LINE
8
BLACK
6
CONTINUOUS
10
96.7297
20
-74.5172
11
96.621
21
-74.533
0
LINE
8
BLACK
6
CONTINUOUS
10
96.621
20
-74.533
11
95.859
21
-74.533
0
LINE
8
BLACK
6
CONTINUOUS
10
95.859
20
-74.533
11
95.7503
21
-74.5172
0
LINE
8
BLACK
6
CONTINUOUS
10
95.7503
20
-74.5172
11
95.6376
21
-74.4621
0
LINE
8
BLACK
6
CONTINUOUS
10
95.6376
20
-74.4621
11
95.5489
21
-74.3734
0
LINE
8
BLACK
6
CONTINUOUS
10
95.5489
20
-74.3734
11
95.4938
21
-74.2607
0
LINE
8
BLACK
6
CONTINUOUS
10
95.4938
20
-74.2607
11
95.478
21
-74.152
0
LINE
8
BLACK
6
CONTINUOUS
10
95.478
20
-74.152
11
95.478
21
-72.628
0
LINE
8
BLACK
6
CONTINUOUS
10
95.478
20
-72.628
11
95.4938
21
-72.5193
0
LINE
8
BLACK
6
CONTINUOUS
10
95.4938
20
-72.5193
11
95.5489
21
-72.4066
0
LINE
8
BLACK
6
CONTINUOUS
10
95.5489
20
-72.4066
11
95.6376
21
-72.3179
0
LINE
8
BLACK
6
CONTINUOUS
10
95.6376
20
-72.3179
11
95.7503
21
-72.2628
0
LINE
8
BLACK
6
CONTINUOUS
10
95.7503
20
-72.2628
11
95.859
21
-72.247
0
LINE
8
BLACK
6
CONTINUOUS
10
95.859
20
-72.247
11
96.621
21
-72.247
0
LINE
8
BLACK
6
CONTINUOUS
10
96.621
20
-72.247
11
96.7297
21
-72.2628
  0
ENDSEC
  0
EOF
