  0
SECTION
  2
HEADER
  9
$ANGBASE
  50
0.0
  9
$ANGDIR
  70
1
  9
$MEASUREMENT
  70
1
  0
ENDSEC
  0
SECTION
  2
TABLES
  0
TABLE
  2
LTYPE
  70
4
  0
LTYPE
  5
40F
  2
CONTINUOUS
  70
0
  3
Solid line
  72
65
  73
0
  40
0.0
  0
LTYPE
  5
410
  2
DASHDOT
 70
0
  3
Dash Dot ____ _ ____ _
 72
65
 73
4
 40
2.0
 49
1.25
 49
-0.25
 49
0.25
 49
-0.25
  0
LTYPE
  5
411
  2
DASHED
 70
0
  3
Dashed __ __ __ __ __
 72
65
 73
2
 40
0.75
 49
0.5
 49
-0.25
  0
LTYPE
  5
43B
  2
DOTTED
 70
0
  3
Dotted .  .  .  .
 72
65
 73
2
 40
0.2
 49
0.0
 49
-0.2
  0
ENDTAB
  0
TABLE
  2
STYLE
  70
4
  0
STYLE
  2
KICAD
  70
0
  40
0
  41
1
  42
1
  50
0
  71
0
  3
isocp.shx
  0
STYLE
  2
KICADB
  70
0
  40
0
  41
1
  42
1
  50
0
  71
0
  3
isocp.shx
  0
STYLE
  2
KICADI
  70
0
  40
0
  41
1
  42
1
  50
15
  71
0
  3
isocp.shx
  0
STYLE
  2
KICADBI
  70
0
  40
0
  41
1
  42
1
  50
15
  71
0
  3
isocp.shx
  0
ENDTAB
  0
TABLE
  2
LAYER
  70
1
  0
LAYER
  2
BLACK
  70
0
  62
7
  6
CONTINUOUS
  0
ENDTAB
  0
ENDSEC
  0
SECTION
  2
ENTITIES
0
LINE
8
BLACK
6
CONTINUOUS
10
85.5497
20
-74.8728
11
85.6624
21
-74.9279
0
LINE
8
BLACK
6
CONTINUOUS
10
85.6624
20
-74.9279
11
85.7511
21
-75.0166
0
LINE
8
BLACK
6
CONTINUOUS
10
85.7511
20
-75.0166
11
85.8062
21
-75.1293
0
LINE
8
BLACK
6
CONTINUOUS
10
85.8062
20
-75.1293
11
85.822
21
-75.238
0
LINE
8
BLACK
6
CONTINUOUS
10
85.822
20
-75.238
11
85.822
21
-76.762
0
LINE
8
BLACK
6
CONTINUOUS
10
85.822
20
-76.762
11
85.8062
21
-76.8707
0
LINE
8
BLACK
6
CONTINUOUS
10
85.8062
20
-76.8707
11
85.7511
21
-76.9834
0
LINE
8
BLACK
6
CONTINUOUS
10
85.7511
20
-76.9834
11
85.6624
21
-77.0721
0
LINE
8
BLACK
6
CONTINUOUS
10
85.6624
20
-77.0721
11
85.5497
21
-77.1272
0
LINE
8
BLACK
6
CONTINUOUS
10
85.5497
20
-77.1272
11
85.441
21
-77.143
0
LINE
8
BLACK
6
CONTINUOUS
10
85.441
20
-77.143
11
84.679
21
-77.143
0
LINE
8
BLACK
6
CONTINUOUS
10
84.679
20
-77.143
11
84.5703
21
-77.1272
0
LINE
8
BLACK
6
CONTINUOUS
10
84.5703
20
-77.1272
11
84.4576
21
-77.0721
0
LINE
8
BLACK
6
CONTINUOUS
10
84.4576
20
-77.0721
11
84.3689
21
-76.9834
0
LINE
8
BLACK
6
CONTINUOUS
10
84.3689
20
-76.9834
11
84.3138
21
-76.8707
0
LINE
8
BLACK
6
CONTINUOUS
10
84.3138
20
-76.8707
11
84.298
21
-76.762
0
LINE
8
BLACK
6
CONTINUOUS
10
84.298
20
-76.762
11
84.298
21
-75.238
0
LINE
8
BLACK
6
CONTINUOUS
10
84.298
20
-75.238
11
84.3138
21
-75.1293
0
LINE
8
BLACK
6
CONTINUOUS
10
84.3138
20
-75.1293
11
84.3689
21
-75.0166
0
LINE
8
BLACK
6
CONTINUOUS
10
84.3689
20
-75.0166
11
84.4576
21
-74.9279
0
LINE
8
BLACK
6
CONTINUOUS
10
84.4576
20
-74.9279
11
84.5703
21
-74.8728
0
LINE
8
BLACK
6
CONTINUOUS
10
84.5703
20
-74.8728
11
84.679
21
-74.857
0
LINE
8
BLACK
6
CONTINUOUS
10
84.679
20
-74.857
11
85.441
21
-74.857
0
LINE
8
BLACK
6
CONTINUOUS
10
85.441
20
-74.857
11
85.5497
21
-74.8728
0
LINE
8
BLACK
6
CONTINUOUS
10
87.4797
20
-74.8628
11
87.5924
21
-74.9179
0
LINE
8
BLACK
6
CONTINUOUS
10
87.5924
20
-74.9179
11
87.6811
21
-75.0066
0
LINE
8
BLACK
6
CONTINUOUS
10
87.6811
20
-75.0066
11
87.7362
21
-75.1193
0
LINE
8
BLACK
6
CONTINUOUS
10
87.7362
20
-75.1193
11
87.752
21
-75.228
0
LINE
8
BLACK
6
CONTINUOUS
10
87.752
20
-75.228
11
87.752
21
-76.752
0
LINE
8
BLACK
6
CONTINUOUS
10
87.752
20
-76.752
11
87.7362
21
-76.8607
0
LINE
8
BLACK
6
CONTINUOUS
10
87.7362
20
-76.8607
11
87.6811
21
-76.9734
0
LINE
8
BLACK
6
CONTINUOUS
10
87.6811
20
-76.9734
11
87.5924
21
-77.0621
0
LINE
8
BLACK
6
CONTINUOUS
10
87.5924
20
-77.0621
11
87.4797
21
-77.1172
0
LINE
8
BLACK
6
CONTINUOUS
10
87.4797
20
-77.1172
11
87.371
21
-77.133
0
LINE
8
BLACK
6
CONTINUOUS
10
87.371
20
-77.133
11
86.609
21
-77.133
0
LINE
8
BLACK
6
CONTINUOUS
10
86.609
20
-77.133
11
86.5003
21
-77.1172
0
LINE
8
BLACK
6
CONTINUOUS
10
86.5003
20
-77.1172
11
86.3876
21
-77.0621
0
LINE
8
BLACK
6
CONTINUOUS
10
86.3876
20
-77.0621
11
86.2989
21
-76.9734
0
LINE
8
BLACK
6
CONTINUOUS
10
86.2989
20
-76.9734
11
86.2438
21
-76.8607
0
LINE
8
BLACK
6
CONTINUOUS
10
86.2438
20
-76.8607
11
86.228
21
-76.752
0
LINE
8
BLACK
6
CONTINUOUS
10
86.228
20
-76.752
11
86.228
21
-75.228
0
LINE
8
BLACK
6
CONTINUOUS
10
86.228
20
-75.228
11
86.2438
21
-75.1193
0
LINE
8
BLACK
6
CONTINUOUS
10
86.2438
20
-75.1193
11
86.2989
21
-75.0066
0
LINE
8
BLACK
6
CONTINUOUS
10
86.2989
20
-75.0066
11
86.3876
21
-74.9179
0
LINE
8
BLACK
6
CONTINUOUS
10
86.3876
20
-74.9179
11
86.5003
21
-74.8628
0
LINE
8
BLACK
6
CONTINUOUS
10
86.5003
20
-74.8628
11
86.609
21
-74.847
0
LINE
8
BLACK
6
CONTINUOUS
10
86.609
20
-74.847
11
87.371
21
-74.847
0
LINE
8
BLACK
6
CONTINUOUS
10
87.371
20
-74.847
11
87.4797
21
-74.8628
0
LINE
8
BLACK
6
CONTINUOUS
10
85.5497
20
-72.2728
11
85.6624
21
-72.3279
0
LINE
8
BLACK
6
CONTINUOUS
10
85.6624
20
-72.3279
11
85.7511
21
-72.4166
0
LINE
8
BLACK
6
CONTINUOUS
10
85.7511
20
-72.4166
11
85.8062
21
-72.5293
0
LINE
8
BLACK
6
CONTINUOUS
10
85.8062
20
-72.5293
11
85.822
21
-72.638
0
LINE
8
BLACK
6
CONTINUOUS
10
85.822
20
-72.638
11
85.822
21
-74.162
0
LINE
8
BLACK
6
CONTINUOUS
10
85.822
20
-74.162
11
85.8062
21
-74.2707
0
LINE
8
BLACK
6
CONTINUOUS
10
85.8062
20
-74.2707
11
85.7511
21
-74.3834
0
LINE
8
BLACK
6
CONTINUOUS
10
85.7511
20
-74.3834
11
85.6624
21
-74.4721
0
LINE
8
BLACK
6
CONTINUOUS
10
85.6624
20
-74.4721
11
85.5497
21
-74.5272
0
LINE
8
BLACK
6
CONTINUOUS
10
85.5497
20
-74.5272
11
85.441
21
-74.543
0
LINE
8
BLACK
6
CONTINUOUS
10
85.441
20
-74.543
11
84.679
21
-74.543
0
LINE
8
BLACK
6
CONTINUOUS
10
84.679
20
-74.543
11
84.5703
21
-74.5272
0
LINE
8
BLACK
6
CONTINUOUS
10
84.5703
20
-74.5272
11
84.4576
21
-74.4721
0
LINE
8
BLACK
6
CONTINUOUS
10
84.4576
20
-74.4721
11
84.3689
21
-74.3834
0
LINE
8
BLACK
6
CONTINUOUS
10
84.3689
20
-74.3834
11
84.3138
21
-74.2707
0
LINE
8
BLACK
6
CONTINUOUS
10
84.3138
20
-74.2707
11
84.298
21
-74.162
0
LINE
8
BLACK
6
CONTINUOUS
10
84.298
20
-74.162
11
84.298
21
-72.638
0
LINE
8
BLACK
6
CONTINUOUS
10
84.298
20
-72.638
11
84.3138
21
-72.5293
0
LINE
8
BLACK
6
CONTINUOUS
10
84.3138
20
-72.5293
11
84.3689
21
-72.4166
0
LINE
8
BLACK
6
CONTINUOUS
10
84.3689
20
-72.4166
11
84.4576
21
-72.3279
0
LINE
8
BLACK
6
CONTINUOUS
10
84.4576
20
-72.3279
11
84.5703
21
-72.2728
0
LINE
8
BLACK
6
CONTINUOUS
10
84.5703
20
-72.2728
11
84.679
21
-72.257
0
LINE
8
BLACK
6
CONTINUOUS
10
84.679
20
-72.257
11
85.441
21
-72.257
0
LINE
8
BLACK
6
CONTINUOUS
10
85.441
20
-72.257
11
85.5497
21
-72.2728
0
LINE
8
BLACK
6
CONTINUOUS
10
87.4797
20
-72.2628
11
87.5924
21
-72.3179
0
LINE
8
BLACK
6
CONTINUOUS
10
87.5924
20
-72.3179
11
87.6811
21
-72.4066
0
LINE
8
BLACK
6
CONTINUOUS
10
87.6811
20
-72.4066
11
87.7362
21
-72.5193
0
LINE
8
BLACK
6
CONTINUOUS
10
87.7362
20
-72.5193
11
87.752
21
-72.628
0
LINE
8
BLACK
6
CONTINUOUS
10
87.752
20
-72.628
11
87.752
21
-74.152
0
LINE
8
BLACK
6
CONTINUOUS
10
87.752
20
-74.152
11
87.7362
21
-74.2607
0
LINE
8
BLACK
6
CONTINUOUS
10
87.7362
20
-74.2607
11
87.6811
21
-74.3734
0
LINE
8
BLACK
6
CONTINUOUS
10
87.6811
20
-74.3734
11
87.5924
21
-74.4621
0
LINE
8
BLACK
6
CONTINUOUS
10
87.5924
20
-74.4621
11
87.4797
21
-74.5172
0
LINE
8
BLACK
6
CONTINUOUS
10
87.4797
20
-74.5172
11
87.371
21
-74.533
0
LINE
8
BLACK
6
CONTINUOUS
10
87.371
20
-74.533
11
86.609
21
-74.533
0
LINE
8
BLACK
6
CONTINUOUS
10
86.609
20
-74.533
11
86.5003
21
-74.5172
0
LINE
8
BLACK
6
CONTINUOUS
10
86.5003
20
-74.5172
11
86.3876
21
-74.4621
0
LINE
8
BLACK
6
CONTINUOUS
10
86.3876
20
-74.4621
11
86.2989
21
-74.3734
0
LINE
8
BLACK
6
CONTINUOUS
10
86.2989
20
-74.3734
11
86.2438
21
-74.2607
0
LINE
8
BLACK
6
CONTINUOUS
10
86.2438
20
-74.2607
11
86.228
21
-74.152
0
LINE
8
BLACK
6
CONTINUOUS
10
86.228
20
-74.152
11
86.228
21
-72.628
0
LINE
8
BLACK
6
CONTINUOUS
10
86.228
20
-72.628
11
86.2438
21
-72.5193
0
LINE
8
BLACK
6
CONTINUOUS
10
86.2438
20
-72.5193
11
86.2989
21
-72.4066
0
LINE
8
BLACK
6
CONTINUOUS
10
86.2989
20
-72.4066
11
86.3876
21
-72.3179
0
LINE
8
BLACK
6
CONTINUOUS
10
86.3876
20
-72.3179
11
86.5003
21
-72.2628
0
LINE
8
BLACK
6
CONTINUOUS
10
86.5003
20
-72.2628
11
86.609
21
-72.247
0
LINE
8
BLACK
6
CONTINUOUS
10
86.609
20
-72.247
11
87.371
21
-72.247
0
LINE
8
BLACK
6
CONTINUOUS
10
87.371
20
-72.247
11
87.4797
21
-72.2628
  0
ENDSEC
  0
EOF
