  0
SECTION
  2
HEADER
  9
$ANGBASE
  50
0.0
  9
$ANGDIR
  70
1
  9
$MEASUREMENT
  70
1
  0
ENDSEC
  0
SECTION
  2
TABLES
  0
TABLE
  2
LTYPE
  70
4
  0
LTYPE
  5
40F
  2
CONTINUOUS
  70
0
  3
Solid line
  72
65
  73
0
  40
0.0
  0
LTYPE
  5
410
  2
DASHDOT
 70
0
  3
Dash Dot ____ _ ____ _
 72
65
 73
4
 40
2.0
 49
1.25
 49
-0.25
 49
0.25
 49
-0.25
  0
LTYPE
  5
411
  2
DASHED
 70
0
  3
Dashed __ __ __ __ __
 72
65
 73
2
 40
0.75
 49
0.5
 49
-0.25
  0
LTYPE
  5
43B
  2
DOTTED
 70
0
  3
Dotted .  .  .  .
 72
65
 73
2
 40
0.2
 49
0.0
 49
-0.2
  0
ENDTAB
  0
TABLE
  2
STYLE
  70
4
  0
STYLE
  2
KICAD
  70
0
  40
0
  41
1
  42
1
  50
0
  71
0
  3
isocp.shx
  0
STYLE
  2
KICADB
  70
0
  40
0
  41
1
  42
1
  50
0
  71
0
  3
isocp.shx
  0
STYLE
  2
KICADI
  70
0
  40
0
  41
1
  42
1
  50
15
  71
0
  3
isocp.shx
  0
STYLE
  2
KICADBI
  70
0
  40
0
  41
1
  42
1
  50
15
  71
0
  3
isocp.shx
  0
ENDTAB
  0
TABLE
  2
LAYER
  70
1
  0
LAYER
  2
BLACK
  70
0
  62
7
  6
CONTINUOUS
  0
ENDTAB
  0
ENDSEC
  0
SECTION
  2
ENTITIES
0
LINE
8
BLACK
6
CONTINUOUS
10
189.42
20
-119.279
11
189.532
21
-119.334
0
LINE
8
BLACK
6
CONTINUOUS
10
189.532
20
-119.334
11
189.621
21
-119.423
0
LINE
8
BLACK
6
CONTINUOUS
10
189.621
20
-119.423
11
189.676
21
-119.535
0
LINE
8
BLACK
6
CONTINUOUS
10
189.676
20
-119.535
11
189.692
21
-119.644
0
LINE
8
BLACK
6
CONTINUOUS
10
189.692
20
-119.644
11
189.692
21
-121.168
0
LINE
8
BLACK
6
CONTINUOUS
10
189.692
20
-121.168
11
189.676
21
-121.277
0
LINE
8
BLACK
6
CONTINUOUS
10
189.676
20
-121.277
11
189.621
21
-121.389
0
LINE
8
BLACK
6
CONTINUOUS
10
189.621
20
-121.389
11
189.532
21
-121.478
0
LINE
8
BLACK
6
CONTINUOUS
10
189.532
20
-121.478
11
189.42
21
-121.533
0
LINE
8
BLACK
6
CONTINUOUS
10
189.42
20
-121.533
11
189.311
21
-121.549
0
LINE
8
BLACK
6
CONTINUOUS
10
189.311
20
-121.549
11
188.549
21
-121.549
0
LINE
8
BLACK
6
CONTINUOUS
10
188.549
20
-121.549
11
188.44
21
-121.533
0
LINE
8
BLACK
6
CONTINUOUS
10
188.44
20
-121.533
11
188.328
21
-121.478
0
LINE
8
BLACK
6
CONTINUOUS
10
188.328
20
-121.478
11
188.239
21
-121.389
0
LINE
8
BLACK
6
CONTINUOUS
10
188.239
20
-121.389
11
188.184
21
-121.277
0
LINE
8
BLACK
6
CONTINUOUS
10
188.184
20
-121.277
11
188.168
21
-121.168
0
LINE
8
BLACK
6
CONTINUOUS
10
188.168
20
-121.168
11
188.168
21
-119.644
0
LINE
8
BLACK
6
CONTINUOUS
10
188.168
20
-119.644
11
188.184
21
-119.535
0
LINE
8
BLACK
6
CONTINUOUS
10
188.184
20
-119.535
11
188.239
21
-119.423
0
LINE
8
BLACK
6
CONTINUOUS
10
188.239
20
-119.423
11
188.328
21
-119.334
0
LINE
8
BLACK
6
CONTINUOUS
10
188.328
20
-119.334
11
188.44
21
-119.279
0
LINE
8
BLACK
6
CONTINUOUS
10
188.44
20
-119.279
11
188.549
21
-119.263
0
LINE
8
BLACK
6
CONTINUOUS
10
188.549
20
-119.263
11
189.311
21
-119.263
0
LINE
8
BLACK
6
CONTINUOUS
10
189.311
20
-119.263
11
189.42
21
-119.279
0
LINE
8
BLACK
6
CONTINUOUS
10
189.42
20
-116.679
11
189.532
21
-116.734
0
LINE
8
BLACK
6
CONTINUOUS
10
189.532
20
-116.734
11
189.621
21
-116.823
0
LINE
8
BLACK
6
CONTINUOUS
10
189.621
20
-116.823
11
189.676
21
-116.935
0
LINE
8
BLACK
6
CONTINUOUS
10
189.676
20
-116.935
11
189.692
21
-117.044
0
LINE
8
BLACK
6
CONTINUOUS
10
189.692
20
-117.044
11
189.692
21
-118.568
0
LINE
8
BLACK
6
CONTINUOUS
10
189.692
20
-118.568
11
189.676
21
-118.677
0
LINE
8
BLACK
6
CONTINUOUS
10
189.676
20
-118.677
11
189.621
21
-118.789
0
LINE
8
BLACK
6
CONTINUOUS
10
189.621
20
-118.789
11
189.532
21
-118.878
0
LINE
8
BLACK
6
CONTINUOUS
10
189.532
20
-118.878
11
189.42
21
-118.933
0
LINE
8
BLACK
6
CONTINUOUS
10
189.42
20
-118.933
11
189.311
21
-118.949
0
LINE
8
BLACK
6
CONTINUOUS
10
189.311
20
-118.949
11
188.549
21
-118.949
0
LINE
8
BLACK
6
CONTINUOUS
10
188.549
20
-118.949
11
188.44
21
-118.933
0
LINE
8
BLACK
6
CONTINUOUS
10
188.44
20
-118.933
11
188.328
21
-118.878
0
LINE
8
BLACK
6
CONTINUOUS
10
188.328
20
-118.878
11
188.239
21
-118.789
0
LINE
8
BLACK
6
CONTINUOUS
10
188.239
20
-118.789
11
188.184
21
-118.677
0
LINE
8
BLACK
6
CONTINUOUS
10
188.184
20
-118.677
11
188.168
21
-118.568
0
LINE
8
BLACK
6
CONTINUOUS
10
188.168
20
-118.568
11
188.168
21
-117.044
0
LINE
8
BLACK
6
CONTINUOUS
10
188.168
20
-117.044
11
188.184
21
-116.935
0
LINE
8
BLACK
6
CONTINUOUS
10
188.184
20
-116.935
11
188.239
21
-116.823
0
LINE
8
BLACK
6
CONTINUOUS
10
188.239
20
-116.823
11
188.328
21
-116.734
0
LINE
8
BLACK
6
CONTINUOUS
10
188.328
20
-116.734
11
188.44
21
-116.679
0
LINE
8
BLACK
6
CONTINUOUS
10
188.44
20
-116.679
11
188.549
21
-116.663
0
LINE
8
BLACK
6
CONTINUOUS
10
188.549
20
-116.663
11
189.311
21
-116.663
0
LINE
8
BLACK
6
CONTINUOUS
10
189.311
20
-116.663
11
189.42
21
-116.679
0
LINE
8
BLACK
6
CONTINUOUS
10
95.5407
20
-112.454
11
95.6534
21
-112.509
0
LINE
8
BLACK
6
CONTINUOUS
10
95.6534
20
-112.509
11
95.7421
21
-112.598
0
LINE
8
BLACK
6
CONTINUOUS
10
95.7421
20
-112.598
11
95.7972
21
-112.71
0
LINE
8
BLACK
6
CONTINUOUS
10
95.7972
20
-112.71
11
95.813
21
-112.819
0
LINE
8
BLACK
6
CONTINUOUS
10
95.813
20
-112.819
11
95.813
21
-113.581
0
LINE
8
BLACK
6
CONTINUOUS
10
95.813
20
-113.581
11
95.7972
21
-113.69
0
LINE
8
BLACK
6
CONTINUOUS
10
95.7972
20
-113.69
11
95.7421
21
-113.802
0
LINE
8
BLACK
6
CONTINUOUS
10
95.7421
20
-113.802
11
95.6534
21
-113.891
0
LINE
8
BLACK
6
CONTINUOUS
10
95.6534
20
-113.891
11
95.5407
21
-113.946
0
LINE
8
BLACK
6
CONTINUOUS
10
95.5407
20
-113.946
11
95.432
21
-113.962
0
LINE
8
BLACK
6
CONTINUOUS
10
95.432
20
-113.962
11
93.908
21
-113.962
0
LINE
8
BLACK
6
CONTINUOUS
10
93.908
20
-113.962
11
93.7993
21
-113.946
0
LINE
8
BLACK
6
CONTINUOUS
10
93.7993
20
-113.946
11
93.6866
21
-113.891
0
LINE
8
BLACK
6
CONTINUOUS
10
93.6866
20
-113.891
11
93.5979
21
-113.802
0
LINE
8
BLACK
6
CONTINUOUS
10
93.5979
20
-113.802
11
93.5428
21
-113.69
0
LINE
8
BLACK
6
CONTINUOUS
10
93.5428
20
-113.69
11
93.527
21
-113.581
0
LINE
8
BLACK
6
CONTINUOUS
10
93.527
20
-113.581
11
93.527
21
-112.819
0
LINE
8
BLACK
6
CONTINUOUS
10
93.527
20
-112.819
11
93.5428
21
-112.71
0
LINE
8
BLACK
6
CONTINUOUS
10
93.5428
20
-112.71
11
93.5979
21
-112.598
0
LINE
8
BLACK
6
CONTINUOUS
10
93.5979
20
-112.598
11
93.6866
21
-112.509
0
LINE
8
BLACK
6
CONTINUOUS
10
93.6866
20
-112.509
11
93.7993
21
-112.454
0
LINE
8
BLACK
6
CONTINUOUS
10
93.7993
20
-112.454
11
93.908
21
-112.438
0
LINE
8
BLACK
6
CONTINUOUS
10
93.908
20
-112.438
11
95.432
21
-112.438
0
LINE
8
BLACK
6
CONTINUOUS
10
95.432
20
-112.438
11
95.5407
21
-112.454
0
LINE
8
BLACK
6
CONTINUOUS
10
98.1407
20
-112.454
11
98.2534
21
-112.509
0
LINE
8
BLACK
6
CONTINUOUS
10
98.2534
20
-112.509
11
98.3421
21
-112.598
0
LINE
8
BLACK
6
CONTINUOUS
10
98.3421
20
-112.598
11
98.3972
21
-112.71
0
LINE
8
BLACK
6
CONTINUOUS
10
98.3972
20
-112.71
11
98.413
21
-112.819
0
LINE
8
BLACK
6
CONTINUOUS
10
98.413
20
-112.819
11
98.413
21
-113.581
0
LINE
8
BLACK
6
CONTINUOUS
10
98.413
20
-113.581
11
98.3972
21
-113.69
0
LINE
8
BLACK
6
CONTINUOUS
10
98.3972
20
-113.69
11
98.3421
21
-113.802
0
LINE
8
BLACK
6
CONTINUOUS
10
98.3421
20
-113.802
11
98.2534
21
-113.891
0
LINE
8
BLACK
6
CONTINUOUS
10
98.2534
20
-113.891
11
98.1407
21
-113.946
0
LINE
8
BLACK
6
CONTINUOUS
10
98.1407
20
-113.946
11
98.032
21
-113.962
0
LINE
8
BLACK
6
CONTINUOUS
10
98.032
20
-113.962
11
96.508
21
-113.962
0
LINE
8
BLACK
6
CONTINUOUS
10
96.508
20
-113.962
11
96.3993
21
-113.946
0
LINE
8
BLACK
6
CONTINUOUS
10
96.3993
20
-113.946
11
96.2866
21
-113.891
0
LINE
8
BLACK
6
CONTINUOUS
10
96.2866
20
-113.891
11
96.1979
21
-113.802
0
LINE
8
BLACK
6
CONTINUOUS
10
96.1979
20
-113.802
11
96.1428
21
-113.69
0
LINE
8
BLACK
6
CONTINUOUS
10
96.1428
20
-113.69
11
96.127
21
-113.581
0
LINE
8
BLACK
6
CONTINUOUS
10
96.127
20
-113.581
11
96.127
21
-112.819
0
LINE
8
BLACK
6
CONTINUOUS
10
96.127
20
-112.819
11
96.1428
21
-112.71
0
LINE
8
BLACK
6
CONTINUOUS
10
96.1428
20
-112.71
11
96.1979
21
-112.598
0
LINE
8
BLACK
6
CONTINUOUS
10
96.1979
20
-112.598
11
96.2866
21
-112.509
0
LINE
8
BLACK
6
CONTINUOUS
10
96.2866
20
-112.509
11
96.3993
21
-112.454
0
LINE
8
BLACK
6
CONTINUOUS
10
96.3993
20
-112.454
11
96.508
21
-112.438
0
LINE
8
BLACK
6
CONTINUOUS
10
96.508
20
-112.438
11
98.032
21
-112.438
0
LINE
8
BLACK
6
CONTINUOUS
10
98.032
20
-112.438
11
98.1407
21
-112.454
  0
ENDSEC
  0
EOF
