<?xml version="1.0" standalone="no"?>
 <!DOCTYPE svg PUBLIC "-//W3C//DTD SVG 1.1//EN" 
 "http://www.w3.org/Graphics/SVG/1.1/DTD/svg11.dtd"> 
<svg
  xmlns:svg="http://www.w3.org/2000/svg"
  xmlns="http://www.w3.org/2000/svg"
  xmlns:xlink="http://www.w3.org/1999/xlink"
  version="1.1"
  width="17.61cm" height="11.31cm" viewBox="16.95 18.95 176.1 113.1">
<title>SVG Image created as pedalboard-hw-B_SilkS.svg date 2023/12/05 00:57:50 </title>
  <desc>Image generated by PCBNEW </desc>
<g style="fill:#000000; fill-opacity:1.000000;stroke:#000000; stroke-opacity:1.000000;
stroke-linecap:round; stroke-linejoin:round;"
 transform="translate(0 0) scale(1 1)">
</g>
<g style="fill:#000000; fill-opacity:0.0; 
stroke:#000000; stroke-width:0.000000; stroke-opacity:1; 
stroke-linecap:round; stroke-linejoin:round;">
</g>
<g style="fill:#000000; fill-opacity:0.0; 
stroke:#000000; stroke-width:0.150000; stroke-opacity:1; 
stroke-linecap:round; stroke-linejoin:round;">
<g transform="rotate(-90.000000 21.900000 43.580000)">
<text x="21.900000" y="43.580000"
transform="scale(-1 1) translate(-43.800000 0)"
textLength="3.297619" font-size="1.333333" lengthAdjust="spacingAndGlyphs"
text-anchor="start" opacity="0">GND</text>
</g>
<g class="stroked-text"><desc>GND</desc>
<path d="M20.817438 44.440588
L20.769819 44.345350
" />
<path d="M20.769819 44.345350
L20.769819 44.202493
" />
<path d="M20.769819 44.202493
L20.817438 44.059636
" />
<path d="M20.817438 44.059636
L20.912676 43.964398
" />
<path d="M20.912676 43.964398
L21.007914 43.916779
" />
<path d="M21.007914 43.916779
L21.198390 43.869160
" />
<path d="M21.198390 43.869160
L21.341247 43.869160
" />
<path d="M21.341247 43.869160
L21.531723 43.916779
" />
<path d="M21.531723 43.916779
L21.626961 43.964398
" />
<path d="M21.626961 43.964398
L21.722200 44.059636
" />
<path d="M21.722200 44.059636
L21.769819 44.202493
" />
<path d="M21.769819 44.202493
L21.769819 44.297731
" />
<path d="M21.769819 44.297731
L21.722200 44.440588
" />
<path d="M21.722200 44.440588
L21.674580 44.488207
" />
<path d="M21.674580 44.488207
L21.341247 44.488207
" />
<path d="M21.341247 44.488207
L21.341247 44.297731
" />
<path d="M21.769819 44.916779
L20.769819 44.916779
" />
<path d="M20.769819 44.916779
L21.769819 45.488207
" />
<path d="M21.769819 45.488207
L20.769819 45.488207
" />
<path d="M21.769819 45.964398
L20.769819 45.964398
" />
<path d="M20.769819 45.964398
L20.769819 46.202493
" />
<path d="M20.769819 46.202493
L20.817438 46.345350
" />
<path d="M20.817438 46.345350
L20.912676 46.440588
" />
<path d="M20.912676 46.440588
L21.007914 46.488207
" />
<path d="M21.007914 46.488207
L21.198390 46.535826
" />
<path d="M21.198390 46.535826
L21.341247 46.535826
" />
<path d="M21.341247 46.535826
L21.531723 46.488207
" />
<path d="M21.531723 46.488207
L21.626961 46.440588
" />
<path d="M21.626961 46.440588
L21.722200 46.345350
" />
<path d="M21.722200 46.345350
L21.769819 46.202493
" />
<path d="M21.769819 46.202493
L21.769819 45.964398
" />
</g><g transform="rotate(90.000000 46.880000 123.890000)">
<text x="46.880000" y="123.890000"
transform="scale(-1 1) translate(-93.760000 0)"
textLength="3.297619" font-size="1.333333" lengthAdjust="spacingAndGlyphs"
text-anchor="start" opacity="0">GND</text>
</g>
<g class="stroked-text"><desc>GND</desc>
<path d="M47.962561 123.029411
L48.010180 123.124649
" />
<path d="M48.010180 123.124649
L48.010180 123.267506
" />
<path d="M48.010180 123.267506
L47.962561 123.410363
" />
<path d="M47.962561 123.410363
L47.867323 123.505601
" />
<path d="M47.867323 123.505601
L47.772085 123.553220
" />
<path d="M47.772085 123.553220
L47.581609 123.600839
" />
<path d="M47.581609 123.600839
L47.438752 123.600839
" />
<path d="M47.438752 123.600839
L47.248276 123.553220
" />
<path d="M47.248276 123.553220
L47.153038 123.505601
" />
<path d="M47.153038 123.505601
L47.057800 123.410363
" />
<path d="M47.057800 123.410363
L47.010180 123.267506
" />
<path d="M47.010180 123.267506
L47.010180 123.172268
" />
<path d="M47.010180 123.172268
L47.057800 123.029411
" />
<path d="M47.057800 123.029411
L47.105419 122.981792
" />
<path d="M47.105419 122.981792
L47.438752 122.981792
" />
<path d="M47.438752 122.981792
L47.438752 123.172268
" />
<path d="M47.010180 122.553220
L48.010180 122.553220
" />
<path d="M48.010180 122.553220
L47.010180 121.981792
" />
<path d="M47.010180 121.981792
L48.010180 121.981792
" />
<path d="M47.010180 121.505601
L48.010180 121.505601
" />
<path d="M48.010180 121.505601
L48.010180 121.267506
" />
<path d="M48.010180 121.267506
L47.962561 121.124649
" />
<path d="M47.962561 121.124649
L47.867323 121.029411
" />
<path d="M47.867323 121.029411
L47.772085 120.981792
" />
<path d="M47.772085 120.981792
L47.581609 120.934173
" />
<path d="M47.581609 120.934173
L47.438752 120.934173
" />
<path d="M47.438752 120.934173
L47.248276 120.981792
" />
<path d="M47.248276 120.981792
L47.153038 121.029411
" />
<path d="M47.153038 121.029411
L47.057800 121.124649
" />
<path d="M47.057800 121.124649
L47.010180 121.267506
" />
<path d="M47.010180 121.267506
L47.010180 121.505601
" />
</g><g transform="rotate(90.000000 41.710000 124.060000)">
<text x="41.710000" y="124.060000"
transform="scale(-1 1) translate(-83.420000 0)"
textLength="6.773811" font-size="1.333333" lengthAdjust="spacingAndGlyphs"
text-anchor="start" opacity="0">Data out</text>
</g>
<g class="stroked-text"><desc>Data out</desc>
<path d="M41.840180 123.723220
L42.840180 123.723220
" />
<path d="M42.840180 123.723220
L42.840180 123.485125
" />
<path d="M42.840180 123.485125
L42.792561 123.342268
" />
<path d="M42.792561 123.342268
L42.697323 123.247030
" />
<path d="M42.697323 123.247030
L42.602085 123.199411
" />
<path d="M42.602085 123.199411
L42.411609 123.151792
" />
<path d="M42.411609 123.151792
L42.268752 123.151792
" />
<path d="M42.268752 123.151792
L42.078276 123.199411
" />
<path d="M42.078276 123.199411
L41.983038 123.247030
" />
<path d="M41.983038 123.247030
L41.887800 123.342268
" />
<path d="M41.887800 123.342268
L41.840180 123.485125
" />
<path d="M41.840180 123.485125
L41.840180 123.723220
" />
<path d="M41.840180 122.294649
L42.363990 122.294649
" />
<path d="M42.363990 122.294649
L42.459228 122.342268
" />
<path d="M42.459228 122.342268
L42.506847 122.437506
" />
<path d="M42.506847 122.437506
L42.506847 122.627982
" />
<path d="M42.506847 122.627982
L42.459228 122.723220
" />
<path d="M41.887800 122.294649
L41.840180 122.389887
" />
<path d="M41.840180 122.389887
L41.840180 122.627982
" />
<path d="M41.840180 122.627982
L41.887800 122.723220
" />
<path d="M41.887800 122.723220
L41.983038 122.770839
" />
<path d="M41.983038 122.770839
L42.078276 122.770839
" />
<path d="M42.078276 122.770839
L42.173514 122.723220
" />
<path d="M42.173514 122.723220
L42.221133 122.627982
" />
<path d="M42.221133 122.627982
L42.221133 122.389887
" />
<path d="M42.221133 122.389887
L42.268752 122.294649
" />
<path d="M42.506847 121.961315
L42.506847 121.580363
" />
<path d="M42.840180 121.818458
L41.983038 121.818458
" />
<path d="M41.983038 121.818458
L41.887800 121.770839
" />
<path d="M41.887800 121.770839
L41.840180 121.675601
" />
<path d="M41.840180 121.675601
L41.840180 121.580363
" />
<path d="M41.840180 120.818458
L42.363990 120.818458
" />
<path d="M42.363990 120.818458
L42.459228 120.866077
" />
<path d="M42.459228 120.866077
L42.506847 120.961315
" />
<path d="M42.506847 120.961315
L42.506847 121.151791
" />
<path d="M42.506847 121.151791
L42.459228 121.247029
" />
<path d="M41.887800 120.818458
L41.840180 120.913696
" />
<path d="M41.840180 120.913696
L41.840180 121.151791
" />
<path d="M41.840180 121.151791
L41.887800 121.247029
" />
<path d="M41.887800 121.247029
L41.983038 121.294648
" />
<path d="M41.983038 121.294648
L42.078276 121.294648
" />
<path d="M42.078276 121.294648
L42.173514 121.247029
" />
<path d="M42.173514 121.247029
L42.221133 121.151791
" />
<path d="M42.221133 121.151791
L42.221133 120.913696
" />
<path d="M42.221133 120.913696
L42.268752 120.818458
" />
<path d="M41.840180 119.437505
L41.887800 119.532743
" />
<path d="M41.887800 119.532743
L41.935419 119.580362
" />
<path d="M41.935419 119.580362
L42.030657 119.627981
" />
<path d="M42.030657 119.627981
L42.316371 119.627981
" />
<path d="M42.316371 119.627981
L42.411609 119.580362
" />
<path d="M42.411609 119.580362
L42.459228 119.532743
" />
<path d="M42.459228 119.532743
L42.506847 119.437505
" />
<path d="M42.506847 119.437505
L42.506847 119.294648
" />
<path d="M42.506847 119.294648
L42.459228 119.199410
" />
<path d="M42.459228 119.199410
L42.411609 119.151791
" />
<path d="M42.411609 119.151791
L42.316371 119.104172
" />
<path d="M42.316371 119.104172
L42.030657 119.104172
" />
<path d="M42.030657 119.104172
L41.935419 119.151791
" />
<path d="M41.935419 119.151791
L41.887800 119.199410
" />
<path d="M41.887800 119.199410
L41.840180 119.294648
" />
<path d="M41.840180 119.294648
L41.840180 119.437505
" />
<path d="M42.506847 118.247029
L41.840180 118.247029
" />
<path d="M42.506847 118.675600
L41.983038 118.675600
" />
<path d="M41.983038 118.675600
L41.887800 118.627981
" />
<path d="M41.887800 118.627981
L41.840180 118.532743
" />
<path d="M41.840180 118.532743
L41.840180 118.389886
" />
<path d="M41.840180 118.389886
L41.887800 118.294648
" />
<path d="M41.887800 118.294648
L41.935419 118.247029
" />
<path d="M42.506847 117.913695
L42.506847 117.532743
" />
<path d="M42.840180 117.770838
L41.983038 117.770838
" />
<path d="M41.983038 117.770838
L41.887800 117.723219
" />
<path d="M41.887800 117.723219
L41.840180 117.627981
" />
<path d="M41.840180 117.627981
L41.840180 117.532743
" />
</g><text x="79.260000" y="27.560000"
transform="scale(-1 1) translate(-158.520000 0)"
textLength="1.773809" font-size="1.333333" lengthAdjust="spacingAndGlyphs"
text-anchor="start" opacity="0">IN</text>
<g class="stroked-text"><desc>IN</desc>
<path d="M78.923220 27.429819
L78.923220 26.429819
" />
<path d="M78.447030 27.429819
L78.447030 26.429819
" />
<path d="M78.447030 26.429819
L77.875602 27.429819
" />
<path d="M77.875602 27.429819
L77.875602 26.429819
" />
</g><g transform="rotate(-90.000000 189.230000 36.576000)">
<text x="189.230000" y="36.576000"
transform="scale(-1 1) translate(-378.460000 0)"
textLength="3.297619" font-size="1.333333" lengthAdjust="spacingAndGlyphs"
text-anchor="start" opacity="0">GND</text>
</g>
<g class="stroked-text"><desc>GND</desc>
<path d="M188.147438 37.436588
L188.099819 37.341350
" />
<path d="M188.099819 37.341350
L188.099819 37.198493
" />
<path d="M188.099819 37.198493
L188.147438 37.055636
" />
<path d="M188.147438 37.055636
L188.242676 36.960398
" />
<path d="M188.242676 36.960398
L188.337914 36.912779
" />
<path d="M188.337914 36.912779
L188.528390 36.865160
" />
<path d="M188.528390 36.865160
L188.671247 36.865160
" />
<path d="M188.671247 36.865160
L188.861723 36.912779
" />
<path d="M188.861723 36.912779
L188.956961 36.960398
" />
<path d="M188.956961 36.960398
L189.052200 37.055636
" />
<path d="M189.052200 37.055636
L189.099819 37.198493
" />
<path d="M189.099819 37.198493
L189.099819 37.293731
" />
<path d="M189.099819 37.293731
L189.052200 37.436588
" />
<path d="M189.052200 37.436588
L189.004580 37.484207
" />
<path d="M189.004580 37.484207
L188.671247 37.484207
" />
<path d="M188.671247 37.484207
L188.671247 37.293731
" />
<path d="M189.099819 37.912779
L188.099819 37.912779
" />
<path d="M188.099819 37.912779
L189.099819 38.484207
" />
<path d="M189.099819 38.484207
L188.099819 38.484207
" />
<path d="M189.099819 38.960398
L188.099819 38.960398
" />
<path d="M188.099819 38.960398
L188.099819 39.198493
" />
<path d="M188.099819 39.198493
L188.147438 39.341350
" />
<path d="M188.147438 39.341350
L188.242676 39.436588
" />
<path d="M188.242676 39.436588
L188.337914 39.484207
" />
<path d="M188.337914 39.484207
L188.528390 39.531826
" />
<path d="M188.528390 39.531826
L188.671247 39.531826
" />
<path d="M188.671247 39.531826
L188.861723 39.484207
" />
<path d="M188.861723 39.484207
L188.956961 39.436588
" />
<path d="M188.956961 39.436588
L189.052200 39.341350
" />
<path d="M189.052200 39.341350
L189.099819 39.198493
" />
<path d="M189.099819 39.198493
L189.099819 38.960398
" />
</g><text x="62.000000" y="54.780000"
transform="scale(-1 1) translate(-124.000000 0)"
textLength="13.154764" font-size="1.333333" lengthAdjust="spacingAndGlyphs"
text-anchor="start" opacity="0">Open Pedalboard</text>
<g class="stroked-text"><desc>Open Pedalboard</desc>
<path d="M61.472744 53.649819
L61.282268 53.649819
" />
<path d="M61.282268 53.649819
L61.187030 53.697438
" />
<path d="M61.187030 53.697438
L61.091792 53.792676
" />
<path d="M61.091792 53.792676
L61.044173 53.983152
" />
<path d="M61.044173 53.983152
L61.044173 54.316485
" />
<path d="M61.044173 54.316485
L61.091792 54.506961
" />
<path d="M61.091792 54.506961
L61.187030 54.602200
" />
<path d="M61.187030 54.602200
L61.282268 54.649819
" />
<path d="M61.282268 54.649819
L61.472744 54.649819
" />
<path d="M61.472744 54.649819
L61.567982 54.602200
" />
<path d="M61.567982 54.602200
L61.663220 54.506961
" />
<path d="M61.663220 54.506961
L61.710839 54.316485
" />
<path d="M61.710839 54.316485
L61.710839 53.983152
" />
<path d="M61.710839 53.983152
L61.663220 53.792676
" />
<path d="M61.663220 53.792676
L61.567982 53.697438
" />
<path d="M61.567982 53.697438
L61.472744 53.649819
" />
<path d="M60.615601 53.983152
L60.615601 54.983152
" />
<path d="M60.615601 54.030771
L60.520363 53.983152
" />
<path d="M60.520363 53.983152
L60.329887 53.983152
" />
<path d="M60.329887 53.983152
L60.234649 54.030771
" />
<path d="M60.234649 54.030771
L60.187030 54.078390
" />
<path d="M60.187030 54.078390
L60.139411 54.173628
" />
<path d="M60.139411 54.173628
L60.139411 54.459342
" />
<path d="M60.139411 54.459342
L60.187030 54.554580
" />
<path d="M60.187030 54.554580
L60.234649 54.602200
" />
<path d="M60.234649 54.602200
L60.329887 54.649819
" />
<path d="M60.329887 54.649819
L60.520363 54.649819
" />
<path d="M60.520363 54.649819
L60.615601 54.602200
" />
<path d="M59.329887 54.602200
L59.425125 54.649819
" />
<path d="M59.425125 54.649819
L59.615601 54.649819
" />
<path d="M59.615601 54.649819
L59.710839 54.602200
" />
<path d="M59.710839 54.602200
L59.758458 54.506961
" />
<path d="M59.758458 54.506961
L59.758458 54.126009
" />
<path d="M59.758458 54.126009
L59.710839 54.030771
" />
<path d="M59.710839 54.030771
L59.615601 53.983152
" />
<path d="M59.615601 53.983152
L59.425125 53.983152
" />
<path d="M59.425125 53.983152
L59.329887 54.030771
" />
<path d="M59.329887 54.030771
L59.282268 54.126009
" />
<path d="M59.282268 54.126009
L59.282268 54.221247
" />
<path d="M59.282268 54.221247
L59.758458 54.316485
" />
<path d="M58.853696 53.983152
L58.853696 54.649819
" />
<path d="M58.853696 54.078390
L58.806077 54.030771
" />
<path d="M58.806077 54.030771
L58.710839 53.983152
" />
<path d="M58.710839 53.983152
L58.567982 53.983152
" />
<path d="M58.567982 53.983152
L58.472744 54.030771
" />
<path d="M58.472744 54.030771
L58.425125 54.126009
" />
<path d="M58.425125 54.126009
L58.425125 54.649819
" />
<path d="M57.187029 54.649819
L57.187029 53.649819
" />
<path d="M57.187029 53.649819
L56.806077 53.649819
" />
<path d="M56.806077 53.649819
L56.710839 53.697438
" />
<path d="M56.710839 53.697438
L56.663220 53.745057
" />
<path d="M56.663220 53.745057
L56.615601 53.840295
" />
<path d="M56.615601 53.840295
L56.615601 53.983152
" />
<path d="M56.615601 53.983152
L56.663220 54.078390
" />
<path d="M56.663220 54.078390
L56.710839 54.126009
" />
<path d="M56.710839 54.126009
L56.806077 54.173628
" />
<path d="M56.806077 54.173628
L57.187029 54.173628
" />
<path d="M55.806077 54.602200
L55.901315 54.649819
" />
<path d="M55.901315 54.649819
L56.091791 54.649819
" />
<path d="M56.091791 54.649819
L56.187029 54.602200
" />
<path d="M56.187029 54.602200
L56.234648 54.506961
" />
<path d="M56.234648 54.506961
L56.234648 54.126009
" />
<path d="M56.234648 54.126009
L56.187029 54.030771
" />
<path d="M56.187029 54.030771
L56.091791 53.983152
" />
<path d="M56.091791 53.983152
L55.901315 53.983152
" />
<path d="M55.901315 53.983152
L55.806077 54.030771
" />
<path d="M55.806077 54.030771
L55.758458 54.126009
" />
<path d="M55.758458 54.126009
L55.758458 54.221247
" />
<path d="M55.758458 54.221247
L56.234648 54.316485
" />
<path d="M54.901315 54.649819
L54.901315 53.649819
" />
<path d="M54.901315 54.602200
L54.996553 54.649819
" />
<path d="M54.996553 54.649819
L55.187029 54.649819
" />
<path d="M55.187029 54.649819
L55.282267 54.602200
" />
<path d="M55.282267 54.602200
L55.329886 54.554580
" />
<path d="M55.329886 54.554580
L55.377505 54.459342
" />
<path d="M55.377505 54.459342
L55.377505 54.173628
" />
<path d="M55.377505 54.173628
L55.329886 54.078390
" />
<path d="M55.329886 54.078390
L55.282267 54.030771
" />
<path d="M55.282267 54.030771
L55.187029 53.983152
" />
<path d="M55.187029 53.983152
L54.996553 53.983152
" />
<path d="M54.996553 53.983152
L54.901315 54.030771
" />
<path d="M53.996553 54.649819
L53.996553 54.126009
" />
<path d="M53.996553 54.126009
L54.044172 54.030771
" />
<path d="M54.044172 54.030771
L54.139410 53.983152
" />
<path d="M54.139410 53.983152
L54.329886 53.983152
" />
<path d="M54.329886 53.983152
L54.425124 54.030771
" />
<path d="M53.996553 54.602200
L54.091791 54.649819
" />
<path d="M54.091791 54.649819
L54.329886 54.649819
" />
<path d="M54.329886 54.649819
L54.425124 54.602200
" />
<path d="M54.425124 54.602200
L54.472743 54.506961
" />
<path d="M54.472743 54.506961
L54.472743 54.411723
" />
<path d="M54.472743 54.411723
L54.425124 54.316485
" />
<path d="M54.425124 54.316485
L54.329886 54.268866
" />
<path d="M54.329886 54.268866
L54.091791 54.268866
" />
<path d="M54.091791 54.268866
L53.996553 54.221247
" />
<path d="M53.377505 54.649819
L53.472743 54.602200
" />
<path d="M53.472743 54.602200
L53.520362 54.506961
" />
<path d="M53.520362 54.506961
L53.520362 53.649819
" />
<path d="M52.996552 54.649819
L52.996552 53.649819
" />
<path d="M52.996552 54.030771
L52.901314 53.983152
" />
<path d="M52.901314 53.983152
L52.710838 53.983152
" />
<path d="M52.710838 53.983152
L52.615600 54.030771
" />
<path d="M52.615600 54.030771
L52.567981 54.078390
" />
<path d="M52.567981 54.078390
L52.520362 54.173628
" />
<path d="M52.520362 54.173628
L52.520362 54.459342
" />
<path d="M52.520362 54.459342
L52.567981 54.554580
" />
<path d="M52.567981 54.554580
L52.615600 54.602200
" />
<path d="M52.615600 54.602200
L52.710838 54.649819
" />
<path d="M52.710838 54.649819
L52.901314 54.649819
" />
<path d="M52.901314 54.649819
L52.996552 54.602200
" />
<path d="M51.948933 54.649819
L52.044171 54.602200
" />
<path d="M52.044171 54.602200
L52.091790 54.554580
" />
<path d="M52.091790 54.554580
L52.139409 54.459342
" />
<path d="M52.139409 54.459342
L52.139409 54.173628
" />
<path d="M52.139409 54.173628
L52.091790 54.078390
" />
<path d="M52.091790 54.078390
L52.044171 54.030771
" />
<path d="M52.044171 54.030771
L51.948933 53.983152
" />
<path d="M51.948933 53.983152
L51.806076 53.983152
" />
<path d="M51.806076 53.983152
L51.710838 54.030771
" />
<path d="M51.710838 54.030771
L51.663219 54.078390
" />
<path d="M51.663219 54.078390
L51.615600 54.173628
" />
<path d="M51.615600 54.173628
L51.615600 54.459342
" />
<path d="M51.615600 54.459342
L51.663219 54.554580
" />
<path d="M51.663219 54.554580
L51.710838 54.602200
" />
<path d="M51.710838 54.602200
L51.806076 54.649819
" />
<path d="M51.806076 54.649819
L51.948933 54.649819
" />
<path d="M50.758457 54.649819
L50.758457 54.126009
" />
<path d="M50.758457 54.126009
L50.806076 54.030771
" />
<path d="M50.806076 54.030771
L50.901314 53.983152
" />
<path d="M50.901314 53.983152
L51.091790 53.983152
" />
<path d="M51.091790 53.983152
L51.187028 54.030771
" />
<path d="M50.758457 54.602200
L50.853695 54.649819
" />
<path d="M50.853695 54.649819
L51.091790 54.649819
" />
<path d="M51.091790 54.649819
L51.187028 54.602200
" />
<path d="M51.187028 54.602200
L51.234647 54.506961
" />
<path d="M51.234647 54.506961
L51.234647 54.411723
" />
<path d="M51.234647 54.411723
L51.187028 54.316485
" />
<path d="M51.187028 54.316485
L51.091790 54.268866
" />
<path d="M51.091790 54.268866
L50.853695 54.268866
" />
<path d="M50.853695 54.268866
L50.758457 54.221247
" />
<path d="M50.282266 54.649819
L50.282266 53.983152
" />
<path d="M50.282266 54.173628
L50.234647 54.078390
" />
<path d="M50.234647 54.078390
L50.187028 54.030771
" />
<path d="M50.187028 54.030771
L50.091790 53.983152
" />
<path d="M50.091790 53.983152
L49.996552 53.983152
" />
<path d="M49.234647 54.649819
L49.234647 53.649819
" />
<path d="M49.234647 54.602200
L49.329885 54.649819
" />
<path d="M49.329885 54.649819
L49.520361 54.649819
" />
<path d="M49.520361 54.649819
L49.615599 54.602200
" />
<path d="M49.615599 54.602200
L49.663218 54.554580
" />
<path d="M49.663218 54.554580
L49.710837 54.459342
" />
<path d="M49.710837 54.459342
L49.710837 54.173628
" />
<path d="M49.710837 54.173628
L49.663218 54.078390
" />
<path d="M49.663218 54.078390
L49.615599 54.030771
" />
<path d="M49.615599 54.030771
L49.520361 53.983152
" />
<path d="M49.520361 53.983152
L49.329885 53.983152
" />
<path d="M49.329885 53.983152
L49.234647 54.030771
" />
</g><text x="62.000000" y="56.390000"
transform="scale(-1 1) translate(-124.000000 0)"
textLength="24.202383" font-size="1.333333" lengthAdjust="spacingAndGlyphs"
text-anchor="start" opacity="0">https://github.com/pedalboard</text>
<g class="stroked-text"><desc>https://github.com/pedalboard</desc>
<path d="M61.663220 56.259819
L61.663220 55.259819
" />
<path d="M61.234649 56.259819
L61.234649 55.736009
" />
<path d="M61.234649 55.736009
L61.282268 55.640771
" />
<path d="M61.282268 55.640771
L61.377506 55.593152
" />
<path d="M61.377506 55.593152
L61.520363 55.593152
" />
<path d="M61.520363 55.593152
L61.615601 55.640771
" />
<path d="M61.615601 55.640771
L61.663220 55.688390
" />
<path d="M60.901315 55.593152
L60.520363 55.593152
" />
<path d="M60.758458 55.259819
L60.758458 56.116961
" />
<path d="M60.758458 56.116961
L60.710839 56.212200
" />
<path d="M60.710839 56.212200
L60.615601 56.259819
" />
<path d="M60.615601 56.259819
L60.520363 56.259819
" />
<path d="M60.329886 55.593152
L59.948934 55.593152
" />
<path d="M60.187029 55.259819
L60.187029 56.116961
" />
<path d="M60.187029 56.116961
L60.139410 56.212200
" />
<path d="M60.139410 56.212200
L60.044172 56.259819
" />
<path d="M60.044172 56.259819
L59.948934 56.259819
" />
<path d="M59.615600 55.593152
L59.615600 56.593152
" />
<path d="M59.615600 55.640771
L59.520362 55.593152
" />
<path d="M59.520362 55.593152
L59.329886 55.593152
" />
<path d="M59.329886 55.593152
L59.234648 55.640771
" />
<path d="M59.234648 55.640771
L59.187029 55.688390
" />
<path d="M59.187029 55.688390
L59.139410 55.783628
" />
<path d="M59.139410 55.783628
L59.139410 56.069342
" />
<path d="M59.139410 56.069342
L59.187029 56.164580
" />
<path d="M59.187029 56.164580
L59.234648 56.212200
" />
<path d="M59.234648 56.212200
L59.329886 56.259819
" />
<path d="M59.329886 56.259819
L59.520362 56.259819
" />
<path d="M59.520362 56.259819
L59.615600 56.212200
" />
<path d="M58.758457 56.212200
L58.663219 56.259819
" />
<path d="M58.663219 56.259819
L58.472743 56.259819
" />
<path d="M58.472743 56.259819
L58.377505 56.212200
" />
<path d="M58.377505 56.212200
L58.329886 56.116961
" />
<path d="M58.329886 56.116961
L58.329886 56.069342
" />
<path d="M58.329886 56.069342
L58.377505 55.974104
" />
<path d="M58.377505 55.974104
L58.472743 55.926485
" />
<path d="M58.472743 55.926485
L58.615600 55.926485
" />
<path d="M58.615600 55.926485
L58.710838 55.878866
" />
<path d="M58.710838 55.878866
L58.758457 55.783628
" />
<path d="M58.758457 55.783628
L58.758457 55.736009
" />
<path d="M58.758457 55.736009
L58.710838 55.640771
" />
<path d="M58.710838 55.640771
L58.615600 55.593152
" />
<path d="M58.615600 55.593152
L58.472743 55.593152
" />
<path d="M58.472743 55.593152
L58.377505 55.640771
" />
<path d="M57.901314 56.164580
L57.853695 56.212200
" />
<path d="M57.853695 56.212200
L57.901314 56.259819
" />
<path d="M57.901314 56.259819
L57.948933 56.212200
" />
<path d="M57.948933 56.212200
L57.901314 56.164580
" />
<path d="M57.901314 56.164580
L57.901314 56.259819
" />
<path d="M57.901314 55.640771
L57.853695 55.688390
" />
<path d="M57.853695 55.688390
L57.901314 55.736009
" />
<path d="M57.901314 55.736009
L57.948933 55.688390
" />
<path d="M57.948933 55.688390
L57.901314 55.640771
" />
<path d="M57.901314 55.640771
L57.901314 55.736009
" />
<path d="M56.710839 55.212200
L57.567981 56.497914
" />
<path d="M55.663220 55.212200
L56.520362 56.497914
" />
<path d="M54.901315 55.593152
L54.901315 56.402676
" />
<path d="M54.901315 56.402676
L54.948934 56.497914
" />
<path d="M54.948934 56.497914
L54.996553 56.545533
" />
<path d="M54.996553 56.545533
L55.091791 56.593152
" />
<path d="M55.091791 56.593152
L55.234648 56.593152
" />
<path d="M55.234648 56.593152
L55.329886 56.545533
" />
<path d="M54.901315 56.212200
L54.996553 56.259819
" />
<path d="M54.996553 56.259819
L55.187029 56.259819
" />
<path d="M55.187029 56.259819
L55.282267 56.212200
" />
<path d="M55.282267 56.212200
L55.329886 56.164580
" />
<path d="M55.329886 56.164580
L55.377505 56.069342
" />
<path d="M55.377505 56.069342
L55.377505 55.783628
" />
<path d="M55.377505 55.783628
L55.329886 55.688390
" />
<path d="M55.329886 55.688390
L55.282267 55.640771
" />
<path d="M55.282267 55.640771
L55.187029 55.593152
" />
<path d="M55.187029 55.593152
L54.996553 55.593152
" />
<path d="M54.996553 55.593152
L54.901315 55.640771
" />
<path d="M54.425124 56.259819
L54.425124 55.593152
" />
<path d="M54.425124 55.259819
L54.472743 55.307438
" />
<path d="M54.472743 55.307438
L54.425124 55.355057
" />
<path d="M54.425124 55.355057
L54.377505 55.307438
" />
<path d="M54.377505 55.307438
L54.425124 55.259819
" />
<path d="M54.425124 55.259819
L54.425124 55.355057
" />
<path d="M54.091791 55.593152
L53.710839 55.593152
" />
<path d="M53.948934 55.259819
L53.948934 56.116961
" />
<path d="M53.948934 56.116961
L53.901315 56.212200
" />
<path d="M53.901315 56.212200
L53.806077 56.259819
" />
<path d="M53.806077 56.259819
L53.710839 56.259819
" />
<path d="M53.377505 56.259819
L53.377505 55.259819
" />
<path d="M52.948934 56.259819
L52.948934 55.736009
" />
<path d="M52.948934 55.736009
L52.996553 55.640771
" />
<path d="M52.996553 55.640771
L53.091791 55.593152
" />
<path d="M53.091791 55.593152
L53.234648 55.593152
" />
<path d="M53.234648 55.593152
L53.329886 55.640771
" />
<path d="M53.329886 55.640771
L53.377505 55.688390
" />
<path d="M52.044172 55.593152
L52.044172 56.259819
" />
<path d="M52.472743 55.593152
L52.472743 56.116961
" />
<path d="M52.472743 56.116961
L52.425124 56.212200
" />
<path d="M52.425124 56.212200
L52.329886 56.259819
" />
<path d="M52.329886 56.259819
L52.187029 56.259819
" />
<path d="M52.187029 56.259819
L52.091791 56.212200
" />
<path d="M52.091791 56.212200
L52.044172 56.164580
" />
<path d="M51.567981 56.259819
L51.567981 55.259819
" />
<path d="M51.567981 55.640771
L51.472743 55.593152
" />
<path d="M51.472743 55.593152
L51.282267 55.593152
" />
<path d="M51.282267 55.593152
L51.187029 55.640771
" />
<path d="M51.187029 55.640771
L51.139410 55.688390
" />
<path d="M51.139410 55.688390
L51.091791 55.783628
" />
<path d="M51.091791 55.783628
L51.091791 56.069342
" />
<path d="M51.091791 56.069342
L51.139410 56.164580
" />
<path d="M51.139410 56.164580
L51.187029 56.212200
" />
<path d="M51.187029 56.212200
L51.282267 56.259819
" />
<path d="M51.282267 56.259819
L51.472743 56.259819
" />
<path d="M51.472743 56.259819
L51.567981 56.212200
" />
<path d="M50.663219 56.164580
L50.615600 56.212200
" />
<path d="M50.615600 56.212200
L50.663219 56.259819
" />
<path d="M50.663219 56.259819
L50.710838 56.212200
" />
<path d="M50.710838 56.212200
L50.663219 56.164580
" />
<path d="M50.663219 56.164580
L50.663219 56.259819
" />
<path d="M49.758458 56.212200
L49.853696 56.259819
" />
<path d="M49.853696 56.259819
L50.044172 56.259819
" />
<path d="M50.044172 56.259819
L50.139410 56.212200
" />
<path d="M50.139410 56.212200
L50.187029 56.164580
" />
<path d="M50.187029 56.164580
L50.234648 56.069342
" />
<path d="M50.234648 56.069342
L50.234648 55.783628
" />
<path d="M50.234648 55.783628
L50.187029 55.688390
" />
<path d="M50.187029 55.688390
L50.139410 55.640771
" />
<path d="M50.139410 55.640771
L50.044172 55.593152
" />
<path d="M50.044172 55.593152
L49.853696 55.593152
" />
<path d="M49.853696 55.593152
L49.758458 55.640771
" />
<path d="M49.187029 56.259819
L49.282267 56.212200
" />
<path d="M49.282267 56.212200
L49.329886 56.164580
" />
<path d="M49.329886 56.164580
L49.377505 56.069342
" />
<path d="M49.377505 56.069342
L49.377505 55.783628
" />
<path d="M49.377505 55.783628
L49.329886 55.688390
" />
<path d="M49.329886 55.688390
L49.282267 55.640771
" />
<path d="M49.282267 55.640771
L49.187029 55.593152
" />
<path d="M49.187029 55.593152
L49.044172 55.593152
" />
<path d="M49.044172 55.593152
L48.948934 55.640771
" />
<path d="M48.948934 55.640771
L48.901315 55.688390
" />
<path d="M48.901315 55.688390
L48.853696 55.783628
" />
<path d="M48.853696 55.783628
L48.853696 56.069342
" />
<path d="M48.853696 56.069342
L48.901315 56.164580
" />
<path d="M48.901315 56.164580
L48.948934 56.212200
" />
<path d="M48.948934 56.212200
L49.044172 56.259819
" />
<path d="M49.044172 56.259819
L49.187029 56.259819
" />
<path d="M48.425124 56.259819
L48.425124 55.593152
" />
<path d="M48.425124 55.688390
L48.377505 55.640771
" />
<path d="M48.377505 55.640771
L48.282267 55.593152
" />
<path d="M48.282267 55.593152
L48.139410 55.593152
" />
<path d="M48.139410 55.593152
L48.044172 55.640771
" />
<path d="M48.044172 55.640771
L47.996553 55.736009
" />
<path d="M47.996553 55.736009
L47.996553 56.259819
" />
<path d="M47.996553 55.736009
L47.948934 55.640771
" />
<path d="M47.948934 55.640771
L47.853696 55.593152
" />
<path d="M47.853696 55.593152
L47.710839 55.593152
" />
<path d="M47.710839 55.593152
L47.615600 55.640771
" />
<path d="M47.615600 55.640771
L47.567981 55.736009
" />
<path d="M47.567981 55.736009
L47.567981 56.259819
" />
<path d="M46.377506 55.212200
L47.234648 56.497914
" />
<path d="M46.044172 55.593152
L46.044172 56.593152
" />
<path d="M46.044172 55.640771
L45.948934 55.593152
" />
<path d="M45.948934 55.593152
L45.758458 55.593152
" />
<path d="M45.758458 55.593152
L45.663220 55.640771
" />
<path d="M45.663220 55.640771
L45.615601 55.688390
" />
<path d="M45.615601 55.688390
L45.567982 55.783628
" />
<path d="M45.567982 55.783628
L45.567982 56.069342
" />
<path d="M45.567982 56.069342
L45.615601 56.164580
" />
<path d="M45.615601 56.164580
L45.663220 56.212200
" />
<path d="M45.663220 56.212200
L45.758458 56.259819
" />
<path d="M45.758458 56.259819
L45.948934 56.259819
" />
<path d="M45.948934 56.259819
L46.044172 56.212200
" />
<path d="M44.758458 56.212200
L44.853696 56.259819
" />
<path d="M44.853696 56.259819
L45.044172 56.259819
" />
<path d="M45.044172 56.259819
L45.139410 56.212200
" />
<path d="M45.139410 56.212200
L45.187029 56.116961
" />
<path d="M45.187029 56.116961
L45.187029 55.736009
" />
<path d="M45.187029 55.736009
L45.139410 55.640771
" />
<path d="M45.139410 55.640771
L45.044172 55.593152
" />
<path d="M45.044172 55.593152
L44.853696 55.593152
" />
<path d="M44.853696 55.593152
L44.758458 55.640771
" />
<path d="M44.758458 55.640771
L44.710839 55.736009
" />
<path d="M44.710839 55.736009
L44.710839 55.831247
" />
<path d="M44.710839 55.831247
L45.187029 55.926485
" />
<path d="M43.853696 56.259819
L43.853696 55.259819
" />
<path d="M43.853696 56.212200
L43.948934 56.259819
" />
<path d="M43.948934 56.259819
L44.139410 56.259819
" />
<path d="M44.139410 56.259819
L44.234648 56.212200
" />
<path d="M44.234648 56.212200
L44.282267 56.164580
" />
<path d="M44.282267 56.164580
L44.329886 56.069342
" />
<path d="M44.329886 56.069342
L44.329886 55.783628
" />
<path d="M44.329886 55.783628
L44.282267 55.688390
" />
<path d="M44.282267 55.688390
L44.234648 55.640771
" />
<path d="M44.234648 55.640771
L44.139410 55.593152
" />
<path d="M44.139410 55.593152
L43.948934 55.593152
" />
<path d="M43.948934 55.593152
L43.853696 55.640771
" />
<path d="M42.948934 56.259819
L42.948934 55.736009
" />
<path d="M42.948934 55.736009
L42.996553 55.640771
" />
<path d="M42.996553 55.640771
L43.091791 55.593152
" />
<path d="M43.091791 55.593152
L43.282267 55.593152
" />
<path d="M43.282267 55.593152
L43.377505 55.640771
" />
<path d="M42.948934 56.212200
L43.044172 56.259819
" />
<path d="M43.044172 56.259819
L43.282267 56.259819
" />
<path d="M43.282267 56.259819
L43.377505 56.212200
" />
<path d="M43.377505 56.212200
L43.425124 56.116961
" />
<path d="M43.425124 56.116961
L43.425124 56.021723
" />
<path d="M43.425124 56.021723
L43.377505 55.926485
" />
<path d="M43.377505 55.926485
L43.282267 55.878866
" />
<path d="M43.282267 55.878866
L43.044172 55.878866
" />
<path d="M43.044172 55.878866
L42.948934 55.831247
" />
<path d="M42.329886 56.259819
L42.425124 56.212200
" />
<path d="M42.425124 56.212200
L42.472743 56.116961
" />
<path d="M42.472743 56.116961
L42.472743 55.259819
" />
<path d="M41.948933 56.259819
L41.948933 55.259819
" />
<path d="M41.948933 55.640771
L41.853695 55.593152
" />
<path d="M41.853695 55.593152
L41.663219 55.593152
" />
<path d="M41.663219 55.593152
L41.567981 55.640771
" />
<path d="M41.567981 55.640771
L41.520362 55.688390
" />
<path d="M41.520362 55.688390
L41.472743 55.783628
" />
<path d="M41.472743 55.783628
L41.472743 56.069342
" />
<path d="M41.472743 56.069342
L41.520362 56.164580
" />
<path d="M41.520362 56.164580
L41.567981 56.212200
" />
<path d="M41.567981 56.212200
L41.663219 56.259819
" />
<path d="M41.663219 56.259819
L41.853695 56.259819
" />
<path d="M41.853695 56.259819
L41.948933 56.212200
" />
<path d="M40.901314 56.259819
L40.996552 56.212200
" />
<path d="M40.996552 56.212200
L41.044171 56.164580
" />
<path d="M41.044171 56.164580
L41.091790 56.069342
" />
<path d="M41.091790 56.069342
L41.091790 55.783628
" />
<path d="M41.091790 55.783628
L41.044171 55.688390
" />
<path d="M41.044171 55.688390
L40.996552 55.640771
" />
<path d="M40.996552 55.640771
L40.901314 55.593152
" />
<path d="M40.901314 55.593152
L40.758457 55.593152
" />
<path d="M40.758457 55.593152
L40.663219 55.640771
" />
<path d="M40.663219 55.640771
L40.615600 55.688390
" />
<path d="M40.615600 55.688390
L40.567981 55.783628
" />
<path d="M40.567981 55.783628
L40.567981 56.069342
" />
<path d="M40.567981 56.069342
L40.615600 56.164580
" />
<path d="M40.615600 56.164580
L40.663219 56.212200
" />
<path d="M40.663219 56.212200
L40.758457 56.259819
" />
<path d="M40.758457 56.259819
L40.901314 56.259819
" />
<path d="M39.710838 56.259819
L39.710838 55.736009
" />
<path d="M39.710838 55.736009
L39.758457 55.640771
" />
<path d="M39.758457 55.640771
L39.853695 55.593152
" />
<path d="M39.853695 55.593152
L40.044171 55.593152
" />
<path d="M40.044171 55.593152
L40.139409 55.640771
" />
<path d="M39.710838 56.212200
L39.806076 56.259819
" />
<path d="M39.806076 56.259819
L40.044171 56.259819
" />
<path d="M40.044171 56.259819
L40.139409 56.212200
" />
<path d="M40.139409 56.212200
L40.187028 56.116961
" />
<path d="M40.187028 56.116961
L40.187028 56.021723
" />
<path d="M40.187028 56.021723
L40.139409 55.926485
" />
<path d="M40.139409 55.926485
L40.044171 55.878866
" />
<path d="M40.044171 55.878866
L39.806076 55.878866
" />
<path d="M39.806076 55.878866
L39.710838 55.831247
" />
<path d="M39.234647 56.259819
L39.234647 55.593152
" />
<path d="M39.234647 55.783628
L39.187028 55.688390
" />
<path d="M39.187028 55.688390
L39.139409 55.640771
" />
<path d="M39.139409 55.640771
L39.044171 55.593152
" />
<path d="M39.044171 55.593152
L38.948933 55.593152
" />
<path d="M38.187028 56.259819
L38.187028 55.259819
" />
<path d="M38.187028 56.212200
L38.282266 56.259819
" />
<path d="M38.282266 56.259819
L38.472742 56.259819
" />
<path d="M38.472742 56.259819
L38.567980 56.212200
" />
<path d="M38.567980 56.212200
L38.615599 56.164580
" />
<path d="M38.615599 56.164580
L38.663218 56.069342
" />
<path d="M38.663218 56.069342
L38.663218 55.783628
" />
<path d="M38.663218 55.783628
L38.615599 55.688390
" />
<path d="M38.615599 55.688390
L38.567980 55.640771
" />
<path d="M38.567980 55.640771
L38.472742 55.593152
" />
<path d="M38.472742 55.593152
L38.282266 55.593152
" />
<path d="M38.282266 55.593152
L38.187028 55.640771
" />
</g><text x="62.000000" y="58.000000"
transform="scale(-1 1) translate(-124.000000 0)"
textLength="11.535713" font-size="1.333333" lengthAdjust="spacingAndGlyphs"
text-anchor="start" opacity="0">BCB: 3.1.1-RC</text>
<g class="stroked-text"><desc>BCB: 3.1.1-RC</desc>
<path d="M61.329887 57.346009
L61.187030 57.393628
" />
<path d="M61.187030 57.393628
L61.139411 57.441247
" />
<path d="M61.139411 57.441247
L61.091792 57.536485
" />
<path d="M61.091792 57.536485
L61.091792 57.679342
" />
<path d="M61.091792 57.679342
L61.139411 57.774580
" />
<path d="M61.139411 57.774580
L61.187030 57.822200
" />
<path d="M61.187030 57.822200
L61.282268 57.869819
" />
<path d="M61.282268 57.869819
L61.663220 57.869819
" />
<path d="M61.663220 57.869819
L61.663220 56.869819
" />
<path d="M61.663220 56.869819
L61.329887 56.869819
" />
<path d="M61.329887 56.869819
L61.234649 56.917438
" />
<path d="M61.234649 56.917438
L61.187030 56.965057
" />
<path d="M61.187030 56.965057
L61.139411 57.060295
" />
<path d="M61.139411 57.060295
L61.139411 57.155533
" />
<path d="M61.139411 57.155533
L61.187030 57.250771
" />
<path d="M61.187030 57.250771
L61.234649 57.298390
" />
<path d="M61.234649 57.298390
L61.329887 57.346009
" />
<path d="M61.329887 57.346009
L61.663220 57.346009
" />
<path d="M60.091792 57.774580
L60.139411 57.822200
" />
<path d="M60.139411 57.822200
L60.282268 57.869819
" />
<path d="M60.282268 57.869819
L60.377506 57.869819
" />
<path d="M60.377506 57.869819
L60.520363 57.822200
" />
<path d="M60.520363 57.822200
L60.615601 57.726961
" />
<path d="M60.615601 57.726961
L60.663220 57.631723
" />
<path d="M60.663220 57.631723
L60.710839 57.441247
" />
<path d="M60.710839 57.441247
L60.710839 57.298390
" />
<path d="M60.710839 57.298390
L60.663220 57.107914
" />
<path d="M60.663220 57.107914
L60.615601 57.012676
" />
<path d="M60.615601 57.012676
L60.520363 56.917438
" />
<path d="M60.520363 56.917438
L60.377506 56.869819
" />
<path d="M60.377506 56.869819
L60.282268 56.869819
" />
<path d="M60.282268 56.869819
L60.139411 56.917438
" />
<path d="M60.139411 56.917438
L60.091792 56.965057
" />
<path d="M59.329887 57.346009
L59.187030 57.393628
" />
<path d="M59.187030 57.393628
L59.139411 57.441247
" />
<path d="M59.139411 57.441247
L59.091792 57.536485
" />
<path d="M59.091792 57.536485
L59.091792 57.679342
" />
<path d="M59.091792 57.679342
L59.139411 57.774580
" />
<path d="M59.139411 57.774580
L59.187030 57.822200
" />
<path d="M59.187030 57.822200
L59.282268 57.869819
" />
<path d="M59.282268 57.869819
L59.663220 57.869819
" />
<path d="M59.663220 57.869819
L59.663220 56.869819
" />
<path d="M59.663220 56.869819
L59.329887 56.869819
" />
<path d="M59.329887 56.869819
L59.234649 56.917438
" />
<path d="M59.234649 56.917438
L59.187030 56.965057
" />
<path d="M59.187030 56.965057
L59.139411 57.060295
" />
<path d="M59.139411 57.060295
L59.139411 57.155533
" />
<path d="M59.139411 57.155533
L59.187030 57.250771
" />
<path d="M59.187030 57.250771
L59.234649 57.298390
" />
<path d="M59.234649 57.298390
L59.329887 57.346009
" />
<path d="M59.329887 57.346009
L59.663220 57.346009
" />
<path d="M58.663220 57.774580
L58.615601 57.822200
" />
<path d="M58.615601 57.822200
L58.663220 57.869819
" />
<path d="M58.663220 57.869819
L58.710839 57.822200
" />
<path d="M58.710839 57.822200
L58.663220 57.774580
" />
<path d="M58.663220 57.774580
L58.663220 57.869819
" />
<path d="M58.663220 57.250771
L58.615601 57.298390
" />
<path d="M58.615601 57.298390
L58.663220 57.346009
" />
<path d="M58.663220 57.346009
L58.710839 57.298390
" />
<path d="M58.710839 57.298390
L58.663220 57.250771
" />
<path d="M58.663220 57.250771
L58.663220 57.346009
" />
<path d="M57.520363 56.869819
L56.901316 56.869819
" />
<path d="M56.901316 56.869819
L57.234649 57.250771
" />
<path d="M57.234649 57.250771
L57.091792 57.250771
" />
<path d="M57.091792 57.250771
L56.996554 57.298390
" />
<path d="M56.996554 57.298390
L56.948935 57.346009
" />
<path d="M56.948935 57.346009
L56.901316 57.441247
" />
<path d="M56.901316 57.441247
L56.901316 57.679342
" />
<path d="M56.901316 57.679342
L56.948935 57.774580
" />
<path d="M56.948935 57.774580
L56.996554 57.822200
" />
<path d="M56.996554 57.822200
L57.091792 57.869819
" />
<path d="M57.091792 57.869819
L57.377506 57.869819
" />
<path d="M57.377506 57.869819
L57.472744 57.822200
" />
<path d="M57.472744 57.822200
L57.520363 57.774580
" />
<path d="M56.472744 57.774580
L56.425125 57.822200
" />
<path d="M56.425125 57.822200
L56.472744 57.869819
" />
<path d="M56.472744 57.869819
L56.520363 57.822200
" />
<path d="M56.520363 57.822200
L56.472744 57.774580
" />
<path d="M56.472744 57.774580
L56.472744 57.869819
" />
<path d="M55.472745 57.869819
L56.044173 57.869819
" />
<path d="M55.758459 57.869819
L55.758459 56.869819
" />
<path d="M55.758459 56.869819
L55.853697 57.012676
" />
<path d="M55.853697 57.012676
L55.948935 57.107914
" />
<path d="M55.948935 57.107914
L56.044173 57.155533
" />
<path d="M55.044173 57.774580
L54.996554 57.822200
" />
<path d="M54.996554 57.822200
L55.044173 57.869819
" />
<path d="M55.044173 57.869819
L55.091792 57.822200
" />
<path d="M55.091792 57.822200
L55.044173 57.774580
" />
<path d="M55.044173 57.774580
L55.044173 57.869819
" />
<path d="M54.044174 57.869819
L54.615602 57.869819
" />
<path d="M54.329888 57.869819
L54.329888 56.869819
" />
<path d="M54.329888 56.869819
L54.425126 57.012676
" />
<path d="M54.425126 57.012676
L54.520364 57.107914
" />
<path d="M54.520364 57.107914
L54.615602 57.155533
" />
<path d="M53.615602 57.488866
L52.853698 57.488866
" />
<path d="M51.806079 57.869819
L52.139412 57.393628
" />
<path d="M52.377507 57.869819
L52.377507 56.869819
" />
<path d="M52.377507 56.869819
L51.996555 56.869819
" />
<path d="M51.996555 56.869819
L51.901317 56.917438
" />
<path d="M51.901317 56.917438
L51.853698 56.965057
" />
<path d="M51.853698 56.965057
L51.806079 57.060295
" />
<path d="M51.806079 57.060295
L51.806079 57.203152
" />
<path d="M51.806079 57.203152
L51.853698 57.298390
" />
<path d="M51.853698 57.298390
L51.901317 57.346009
" />
<path d="M51.901317 57.346009
L51.996555 57.393628
" />
<path d="M51.996555 57.393628
L52.377507 57.393628
" />
<path d="M50.806079 57.774580
L50.853698 57.822200
" />
<path d="M50.853698 57.822200
L50.996555 57.869819
" />
<path d="M50.996555 57.869819
L51.091793 57.869819
" />
<path d="M51.091793 57.869819
L51.234650 57.822200
" />
<path d="M51.234650 57.822200
L51.329888 57.726961
" />
<path d="M51.329888 57.726961
L51.377507 57.631723
" />
<path d="M51.377507 57.631723
L51.425126 57.441247
" />
<path d="M51.425126 57.441247
L51.425126 57.298390
" />
<path d="M51.425126 57.298390
L51.377507 57.107914
" />
<path d="M51.377507 57.107914
L51.329888 57.012676
" />
<path d="M51.329888 57.012676
L51.234650 56.917438
" />
<path d="M51.234650 56.917438
L51.091793 56.869819
" />
<path d="M51.091793 56.869819
L50.996555 56.869819
" />
<path d="M50.996555 56.869819
L50.853698 56.917438
" />
<path d="M50.853698 56.917438
L50.806079 56.965057
" />
</g><g transform="rotate(-90.000000 35.210000 43.140000)">
<text x="35.210000" y="43.140000"
transform="scale(-1 1) translate(-70.420000 0)"
textLength="3.869048" font-size="1.333333" lengthAdjust="spacingAndGlyphs"
text-anchor="start" opacity="0">VREF</text>
</g>
<g class="stroked-text"><desc>VREF</desc>
<path d="M34.079819 43.333922
L35.079819 43.667255
" />
<path d="M35.079819 43.667255
L34.079819 44.000588
" />
<path d="M35.079819 44.905350
L34.603628 44.572017
" />
<path d="M35.079819 44.333922
L34.079819 44.333922
" />
<path d="M34.079819 44.333922
L34.079819 44.714874
" />
<path d="M34.079819 44.714874
L34.127438 44.810112
" />
<path d="M34.127438 44.810112
L34.175057 44.857731
" />
<path d="M34.175057 44.857731
L34.270295 44.905350
" />
<path d="M34.270295 44.905350
L34.413152 44.905350
" />
<path d="M34.413152 44.905350
L34.508390 44.857731
" />
<path d="M34.508390 44.857731
L34.556009 44.810112
" />
<path d="M34.556009 44.810112
L34.603628 44.714874
" />
<path d="M34.603628 44.714874
L34.603628 44.333922
" />
<path d="M34.556009 45.333922
L34.556009 45.667255
" />
<path d="M35.079819 45.810112
L35.079819 45.333922
" />
<path d="M35.079819 45.333922
L34.079819 45.333922
" />
<path d="M34.079819 45.333922
L34.079819 45.810112
" />
<path d="M34.556009 46.572017
L34.556009 46.238684
" />
<path d="M35.079819 46.238684
L34.079819 46.238684
" />
<path d="M34.079819 46.238684
L34.079819 46.714874
" />
</g><g transform="rotate(90.000000 44.340000 124.000000)">
<text x="44.340000" y="124.000000"
transform="scale(-1 1) translate(-88.680000 0)"
textLength="4.059524" font-size="1.333333" lengthAdjust="spacingAndGlyphs"
text-anchor="start" opacity="0">+5V </text>
</g>
<g class="stroked-text"><desc>+5V </desc>
<path d="M44.851133 123.663220
L44.851133 122.901316
" />
<path d="M44.470180 123.282268
L45.232085 123.282268
" />
<path d="M45.470180 121.948935
L45.470180 122.425125
" />
<path d="M45.470180 122.425125
L44.993990 122.472744
" />
<path d="M44.993990 122.472744
L45.041609 122.425125
" />
<path d="M45.041609 122.425125
L45.089228 122.329887
" />
<path d="M45.089228 122.329887
L45.089228 122.091792
" />
<path d="M45.089228 122.091792
L45.041609 121.996554
" />
<path d="M45.041609 121.996554
L44.993990 121.948935
" />
<path d="M44.993990 121.948935
L44.898752 121.901316
" />
<path d="M44.898752 121.901316
L44.660657 121.901316
" />
<path d="M44.660657 121.901316
L44.565419 121.948935
" />
<path d="M44.565419 121.948935
L44.517800 121.996554
" />
<path d="M44.517800 121.996554
L44.470180 122.091792
" />
<path d="M44.470180 122.091792
L44.470180 122.329887
" />
<path d="M44.470180 122.329887
L44.517800 122.425125
" />
<path d="M44.517800 122.425125
L44.565419 122.472744
" />
<path d="M45.470180 121.615601
L44.470180 121.282268
" />
<path d="M44.470180 121.282268
L45.470180 120.948935
" />
</g><text x="58.870000" y="22.680000"
transform="scale(-1 1) translate(-117.740000 0)"
textLength="4.792858" font-size="2.000000" lengthAdjust="spacingAndGlyphs"
text-anchor="start" opacity="0">MIDI</text>
<g class="stroked-text"><desc>MIDI</desc>
<path d="M58.414173 22.488628
L58.414173 20.988628
" />
<path d="M58.414173 20.988628
L57.914173 22.060057
" />
<path d="M57.914173 22.060057
L57.414173 20.988628
" />
<path d="M57.414173 20.988628
L57.414173 22.488628
" />
<path d="M56.699887 22.488628
L56.699887 20.988628
" />
<path d="M55.985601 22.488628
L55.985601 20.988628
" />
<path d="M55.985601 20.988628
L55.628458 20.988628
" />
<path d="M55.628458 20.988628
L55.414172 21.060057
" />
<path d="M55.414172 21.060057
L55.271315 21.202914
" />
<path d="M55.271315 21.202914
L55.199886 21.345771
" />
<path d="M55.199886 21.345771
L55.128458 21.631485
" />
<path d="M55.128458 21.631485
L55.128458 21.845771
" />
<path d="M55.128458 21.845771
L55.199886 22.131485
" />
<path d="M55.199886 22.131485
L55.271315 22.274342
" />
<path d="M55.271315 22.274342
L55.414172 22.417200
" />
<path d="M55.414172 22.417200
L55.628458 22.488628
" />
<path d="M55.628458 22.488628
L55.985601 22.488628
" />
<path d="M54.485601 22.488628
L54.485601 20.988628
" />
</g><g transform="rotate(-90.000000 134.440800 56.851600)">
<text x="134.440800" y="56.851600"
transform="scale(-1 1) translate(-268.881600 0)"
textLength="1.630952" font-size="1.333333" lengthAdjust="spacingAndGlyphs"
text-anchor="start" opacity="0">in</text>
</g>
<g class="stroked-text"><desc>in</desc>
<path d="M134.310619 57.188379
L133.643952 57.188379
" />
<path d="M133.310619 57.188379
L133.358238 57.140760
" />
<path d="M133.358238 57.140760
L133.405857 57.188379
" />
<path d="M133.405857 57.188379
L133.358238 57.235998
" />
<path d="M133.358238 57.235998
L133.310619 57.188379
" />
<path d="M133.310619 57.188379
L133.405857 57.188379
" />
<path d="M133.643952 57.664569
L134.310619 57.664569
" />
<path d="M133.739190 57.664569
L133.691571 57.712188
" />
<path d="M133.691571 57.712188
L133.643952 57.807426
" />
<path d="M133.643952 57.807426
L133.643952 57.950283
" />
<path d="M133.643952 57.950283
L133.691571 58.045521
" />
<path d="M133.691571 58.045521
L133.786809 58.093140
" />
<path d="M133.786809 58.093140
L134.310619 58.093140
" />
</g><text x="47.870000" y="125.720000"
transform="scale(-1 1) translate(-95.740000 0)"
textLength="6.583334" font-size="1.333333" lengthAdjust="spacingAndGlyphs"
text-anchor="start" opacity="0">LED OUT</text>
<g class="stroked-text"><desc>LED OUT</desc>
<path d="M47.057030 125.589819
L47.533220 125.589819
" />
<path d="M47.533220 125.589819
L47.533220 124.589819
" />
<path d="M46.723696 125.066009
L46.390363 125.066009
" />
<path d="M46.247506 125.589819
L46.723696 125.589819
" />
<path d="M46.723696 125.589819
L46.723696 124.589819
" />
<path d="M46.723696 124.589819
L46.247506 124.589819
" />
<path d="M45.818934 125.589819
L45.818934 124.589819
" />
<path d="M45.818934 124.589819
L45.580839 124.589819
" />
<path d="M45.580839 124.589819
L45.437982 124.637438
" />
<path d="M45.437982 124.637438
L45.342744 124.732676
" />
<path d="M45.342744 124.732676
L45.295125 124.827914
" />
<path d="M45.295125 124.827914
L45.247506 125.018390
" />
<path d="M45.247506 125.018390
L45.247506 125.161247
" />
<path d="M45.247506 125.161247
L45.295125 125.351723
" />
<path d="M45.295125 125.351723
L45.342744 125.446961
" />
<path d="M45.342744 125.446961
L45.437982 125.542200
" />
<path d="M45.437982 125.542200
L45.580839 125.589819
" />
<path d="M45.580839 125.589819
L45.818934 125.589819
" />
<path d="M43.866553 124.589819
L43.676077 124.589819
" />
<path d="M43.676077 124.589819
L43.580839 124.637438
" />
<path d="M43.580839 124.637438
L43.485601 124.732676
" />
<path d="M43.485601 124.732676
L43.437982 124.923152
" />
<path d="M43.437982 124.923152
L43.437982 125.256485
" />
<path d="M43.437982 125.256485
L43.485601 125.446961
" />
<path d="M43.485601 125.446961
L43.580839 125.542200
" />
<path d="M43.580839 125.542200
L43.676077 125.589819
" />
<path d="M43.676077 125.589819
L43.866553 125.589819
" />
<path d="M43.866553 125.589819
L43.961791 125.542200
" />
<path d="M43.961791 125.542200
L44.057029 125.446961
" />
<path d="M44.057029 125.446961
L44.104648 125.256485
" />
<path d="M44.104648 125.256485
L44.104648 124.923152
" />
<path d="M44.104648 124.923152
L44.057029 124.732676
" />
<path d="M44.057029 124.732676
L43.961791 124.637438
" />
<path d="M43.961791 124.637438
L43.866553 124.589819
" />
<path d="M43.009410 124.589819
L43.009410 125.399342
" />
<path d="M43.009410 125.399342
L42.961791 125.494580
" />
<path d="M42.961791 125.494580
L42.914172 125.542200
" />
<path d="M42.914172 125.542200
L42.818934 125.589819
" />
<path d="M42.818934 125.589819
L42.628458 125.589819
" />
<path d="M42.628458 125.589819
L42.533220 125.542200
" />
<path d="M42.533220 125.542200
L42.485601 125.494580
" />
<path d="M42.485601 125.494580
L42.437982 125.399342
" />
<path d="M42.437982 125.399342
L42.437982 124.589819
" />
<path d="M42.104648 124.589819
L41.533220 124.589819
" />
<path d="M41.818934 125.589819
L41.818934 124.589819
" />
</g><g transform="rotate(-90.000000 182.778400 36.779200)">
<text x="182.778400" y="36.779200"
transform="scale(-1 1) translate(-365.556800 0)"
textLength="1.773809" font-size="1.333333" lengthAdjust="spacingAndGlyphs"
text-anchor="start" opacity="0">IN</text>
</g>
<g class="stroked-text"><desc>IN</desc>
<path d="M182.648219 37.115979
L181.648219 37.115979
" />
<path d="M182.648219 37.592169
L181.648219 37.592169
" />
<path d="M181.648219 37.592169
L182.648219 38.163597
" />
<path d="M182.648219 38.163597
L181.648219 38.163597
" />
</g><text x="64.590000" y="27.320000"
transform="scale(-1 1) translate(-129.180000 0)"
textLength="3.107143" font-size="1.333333" lengthAdjust="spacingAndGlyphs"
text-anchor="start" opacity="0">OUT</text>
<g class="stroked-text"><desc>OUT</desc>
<path d="M64.062744 26.189819
L63.872268 26.189819
" />
<path d="M63.872268 26.189819
L63.777030 26.237438
" />
<path d="M63.777030 26.237438
L63.681792 26.332676
" />
<path d="M63.681792 26.332676
L63.634173 26.523152
" />
<path d="M63.634173 26.523152
L63.634173 26.856485
" />
<path d="M63.634173 26.856485
L63.681792 27.046961
" />
<path d="M63.681792 27.046961
L63.777030 27.142200
" />
<path d="M63.777030 27.142200
L63.872268 27.189819
" />
<path d="M63.872268 27.189819
L64.062744 27.189819
" />
<path d="M64.062744 27.189819
L64.157982 27.142200
" />
<path d="M64.157982 27.142200
L64.253220 27.046961
" />
<path d="M64.253220 27.046961
L64.300839 26.856485
" />
<path d="M64.300839 26.856485
L64.300839 26.523152
" />
<path d="M64.300839 26.523152
L64.253220 26.332676
" />
<path d="M64.253220 26.332676
L64.157982 26.237438
" />
<path d="M64.157982 26.237438
L64.062744 26.189819
" />
<path d="M63.205601 26.189819
L63.205601 26.999342
" />
<path d="M63.205601 26.999342
L63.157982 27.094580
" />
<path d="M63.157982 27.094580
L63.110363 27.142200
" />
<path d="M63.110363 27.142200
L63.015125 27.189819
" />
<path d="M63.015125 27.189819
L62.824649 27.189819
" />
<path d="M62.824649 27.189819
L62.729411 27.142200
" />
<path d="M62.729411 27.142200
L62.681792 27.094580
" />
<path d="M62.681792 27.094580
L62.634173 26.999342
" />
<path d="M62.634173 26.999342
L62.634173 26.189819
" />
<path d="M62.300839 26.189819
L61.729411 26.189819
" />
<path d="M62.015125 27.189819
L62.015125 26.189819
" />
</g><g transform="rotate(-90.000000 28.980000 43.400000)">
<text x="28.980000" y="43.400000"
transform="scale(-1 1) translate(-57.960000 0)"
textLength="1.773809" font-size="1.333333" lengthAdjust="spacingAndGlyphs"
text-anchor="start" opacity="0">IN</text>
</g>
<g class="stroked-text"><desc>IN</desc>
<path d="M28.849819 43.736779
L27.849819 43.736779
" />
<path d="M28.849819 44.212969
L27.849819 44.212969
" />
<path d="M27.849819 44.212969
L28.849819 44.784397
" />
<path d="M28.849819 44.784397
L27.849819 44.784397
" />
</g><g transform="rotate(-90.000000 176.326800 36.677600)">
<text x="176.326800" y="36.677600"
transform="scale(-1 1) translate(-352.653600 0)"
textLength="3.869048" font-size="1.333333" lengthAdjust="spacingAndGlyphs"
text-anchor="start" opacity="0">VREF</text>
</g>
<g class="stroked-text"><desc>VREF</desc>
<path d="M175.196619 36.871522
L176.196619 37.204855
" />
<path d="M176.196619 37.204855
L175.196619 37.538188
" />
<path d="M176.196619 38.442950
L175.720428 38.109617
" />
<path d="M176.196619 37.871522
L175.196619 37.871522
" />
<path d="M175.196619 37.871522
L175.196619 38.252474
" />
<path d="M175.196619 38.252474
L175.244238 38.347712
" />
<path d="M175.244238 38.347712
L175.291857 38.395331
" />
<path d="M175.291857 38.395331
L175.387095 38.442950
" />
<path d="M175.387095 38.442950
L175.529952 38.442950
" />
<path d="M175.529952 38.442950
L175.625190 38.395331
" />
<path d="M175.625190 38.395331
L175.672809 38.347712
" />
<path d="M175.672809 38.347712
L175.720428 38.252474
" />
<path d="M175.720428 38.252474
L175.720428 37.871522
" />
<path d="M175.672809 38.871522
L175.672809 39.204855
" />
<path d="M176.196619 39.347712
L176.196619 38.871522
" />
<path d="M176.196619 38.871522
L175.196619 38.871522
" />
<path d="M175.196619 38.871522
L175.196619 39.347712
" />
<path d="M175.672809 40.109617
L175.672809 39.776284
" />
<path d="M176.196619 39.776284
L175.196619 39.776284
" />
<path d="M175.196619 39.776284
L175.196619 40.252474
" />
</g><text x="115.750000" y="43.090000"
transform="scale(-1 1) translate(-231.500000 0)"
textLength="3.154762" font-size="1.333333" lengthAdjust="spacingAndGlyphs"
text-anchor="middle" opacity="0">C23</text>
<g class="stroked-text"><desc>C23</desc>
<path d="M116.392857 42.949580
L116.440476 42.997200
" />
<path d="M116.440476 42.997200
L116.583333 43.044819
" />
<path d="M116.583333 43.044819
L116.678571 43.044819
" />
<path d="M116.678571 43.044819
L116.821428 42.997200
" />
<path d="M116.821428 42.997200
L116.916666 42.901961
" />
<path d="M116.916666 42.901961
L116.964285 42.806723
" />
<path d="M116.964285 42.806723
L117.011904 42.616247
" />
<path d="M117.011904 42.616247
L117.011904 42.473390
" />
<path d="M117.011904 42.473390
L116.964285 42.282914
" />
<path d="M116.964285 42.282914
L116.916666 42.187676
" />
<path d="M116.916666 42.187676
L116.821428 42.092438
" />
<path d="M116.821428 42.092438
L116.678571 42.044819
" />
<path d="M116.678571 42.044819
L116.583333 42.044819
" />
<path d="M116.583333 42.044819
L116.440476 42.092438
" />
<path d="M116.440476 42.092438
L116.392857 42.140057
" />
<path d="M116.011904 42.140057
L115.964285 42.092438
" />
<path d="M115.964285 42.092438
L115.869047 42.044819
" />
<path d="M115.869047 42.044819
L115.630952 42.044819
" />
<path d="M115.630952 42.044819
L115.535714 42.092438
" />
<path d="M115.535714 42.092438
L115.488095 42.140057
" />
<path d="M115.488095 42.140057
L115.440476 42.235295
" />
<path d="M115.440476 42.235295
L115.440476 42.330533
" />
<path d="M115.440476 42.330533
L115.488095 42.473390
" />
<path d="M115.488095 42.473390
L116.059523 43.044819
" />
<path d="M116.059523 43.044819
L115.440476 43.044819
" />
<path d="M115.107142 42.044819
L114.488095 42.044819
" />
<path d="M114.488095 42.044819
L114.821428 42.425771
" />
<path d="M114.821428 42.425771
L114.678571 42.425771
" />
<path d="M114.678571 42.425771
L114.583333 42.473390
" />
<path d="M114.583333 42.473390
L114.535714 42.521009
" />
<path d="M114.535714 42.521009
L114.488095 42.616247
" />
<path d="M114.488095 42.616247
L114.488095 42.854342
" />
<path d="M114.488095 42.854342
L114.535714 42.949580
" />
<path d="M114.535714 42.949580
L114.583333 42.997200
" />
<path d="M114.583333 42.997200
L114.678571 43.044819
" />
<path d="M114.678571 43.044819
L114.964285 43.044819
" />
<path d="M114.964285 43.044819
L115.059523 42.997200
" />
<path d="M115.059523 42.997200
L115.107142 42.949580
" />
</g><text x="25.500000" y="124.000000"
transform="scale(-1 1) translate(-51.000000 0)"
textLength="3.202381" font-size="1.333333" lengthAdjust="spacingAndGlyphs"
text-anchor="middle" opacity="0">H13</text>
<g class="stroked-text"><desc>H13</desc>
<path d="M26.738094 123.954819
L26.738094 122.954819
" />
<path d="M26.738094 123.431009
L26.166666 123.431009
" />
<path d="M26.166666 123.954819
L26.166666 122.954819
" />
<path d="M25.166666 123.954819
L25.738094 123.954819
" />
<path d="M25.452380 123.954819
L25.452380 122.954819
" />
<path d="M25.452380 122.954819
L25.547618 123.097676
" />
<path d="M25.547618 123.097676
L25.642856 123.192914
" />
<path d="M25.642856 123.192914
L25.738094 123.240533
" />
<path d="M24.833332 122.954819
L24.214285 122.954819
" />
<path d="M24.214285 122.954819
L24.547618 123.335771
" />
<path d="M24.547618 123.335771
L24.404761 123.335771
" />
<path d="M24.404761 123.335771
L24.309523 123.383390
" />
<path d="M24.309523 123.383390
L24.261904 123.431009
" />
<path d="M24.261904 123.431009
L24.214285 123.526247
" />
<path d="M24.214285 123.526247
L24.214285 123.764342
" />
<path d="M24.214285 123.764342
L24.261904 123.859580
" />
<path d="M24.261904 123.859580
L24.309523 123.907200
" />
<path d="M24.309523 123.907200
L24.404761 123.954819
" />
<path d="M24.404761 123.954819
L24.690475 123.954819
" />
<path d="M24.690475 123.954819
L24.785713 123.907200
" />
<path d="M24.785713 123.907200
L24.833332 123.859580
" />
</g><text x="100.500000" y="72.100000"
transform="scale(-1 1) translate(-201.000000 0)"
textLength="2.250000" font-size="1.333333" lengthAdjust="spacingAndGlyphs"
text-anchor="middle" opacity="0">H9</text>
<g class="stroked-text"><desc>H9</desc>
<path d="M101.261904 72.054819
L101.261904 71.054819
" />
<path d="M101.261904 71.531009
L100.690476 71.531009
" />
<path d="M100.690476 72.054819
L100.690476 71.054819
" />
<path d="M100.166666 72.054819
L99.976190 72.054819
" />
<path d="M99.976190 72.054819
L99.880952 72.007200
" />
<path d="M99.880952 72.007200
L99.833333 71.959580
" />
<path d="M99.833333 71.959580
L99.738095 71.816723
" />
<path d="M99.738095 71.816723
L99.690476 71.626247
" />
<path d="M99.690476 71.626247
L99.690476 71.245295
" />
<path d="M99.690476 71.245295
L99.738095 71.150057
" />
<path d="M99.738095 71.150057
L99.785714 71.102438
" />
<path d="M99.785714 71.102438
L99.880952 71.054819
" />
<path d="M99.880952 71.054819
L100.071428 71.054819
" />
<path d="M100.071428 71.054819
L100.166666 71.102438
" />
<path d="M100.166666 71.102438
L100.214285 71.150057
" />
<path d="M100.214285 71.150057
L100.261904 71.245295
" />
<path d="M100.261904 71.245295
L100.261904 71.483390
" />
<path d="M100.261904 71.483390
L100.214285 71.578628
" />
<path d="M100.214285 71.578628
L100.166666 71.626247
" />
<path d="M100.166666 71.626247
L100.071428 71.673866
" />
<path d="M100.071428 71.673866
L99.880952 71.673866
" />
<path d="M99.880952 71.673866
L99.785714 71.626247
" />
<path d="M99.785714 71.626247
L99.738095 71.578628
" />
<path d="M99.738095 71.578628
L99.690476 71.483390
" />
</g><text x="25.500000" y="72.500000"
transform="scale(-1 1) translate(-51.000000 0)"
textLength="3.202381" font-size="1.333333" lengthAdjust="spacingAndGlyphs"
text-anchor="middle" opacity="0">H10</text>
<g class="stroked-text"><desc>H10</desc>
<path d="M26.738094 72.454819
L26.738094 71.454819
" />
<path d="M26.738094 71.931009
L26.166666 71.931009
" />
<path d="M26.166666 72.454819
L26.166666 71.454819
" />
<path d="M25.166666 72.454819
L25.738094 72.454819
" />
<path d="M25.452380 72.454819
L25.452380 71.454819
" />
<path d="M25.452380 71.454819
L25.547618 71.597676
" />
<path d="M25.547618 71.597676
L25.642856 71.692914
" />
<path d="M25.642856 71.692914
L25.738094 71.740533
" />
<path d="M24.547618 71.454819
L24.452380 71.454819
" />
<path d="M24.452380 71.454819
L24.357142 71.502438
" />
<path d="M24.357142 71.502438
L24.309523 71.550057
" />
<path d="M24.309523 71.550057
L24.261904 71.645295
" />
<path d="M24.261904 71.645295
L24.214285 71.835771
" />
<path d="M24.214285 71.835771
L24.214285 72.073866
" />
<path d="M24.214285 72.073866
L24.261904 72.264342
" />
<path d="M24.261904 72.264342
L24.309523 72.359580
" />
<path d="M24.309523 72.359580
L24.357142 72.407200
" />
<path d="M24.357142 72.407200
L24.452380 72.454819
" />
<path d="M24.452380 72.454819
L24.547618 72.454819
" />
<path d="M24.547618 72.454819
L24.642856 72.407200
" />
<path d="M24.642856 72.407200
L24.690475 72.359580
" />
<path d="M24.690475 72.359580
L24.738094 72.264342
" />
<path d="M24.738094 72.264342
L24.785713 72.073866
" />
<path d="M24.785713 72.073866
L24.785713 71.835771
" />
<path d="M24.785713 71.835771
L24.738094 71.645295
" />
<path d="M24.738094 71.645295
L24.690475 71.550057
" />
<path d="M24.690475 71.550057
L24.642856 71.502438
" />
<path d="M24.642856 71.502438
L24.547618 71.454819
" />
</g><text x="176.000000" y="72.000000"
transform="scale(-1 1) translate(-352.000000 0)"
textLength="2.250000" font-size="1.333333" lengthAdjust="spacingAndGlyphs"
text-anchor="middle" opacity="0">H8</text>
<g class="stroked-text"><desc>H8</desc>
<path d="M176.761904 71.954819
L176.761904 70.954819
" />
<path d="M176.761904 71.431009
L176.190476 71.431009
" />
<path d="M176.190476 71.954819
L176.190476 70.954819
" />
<path d="M175.571428 71.383390
L175.666666 71.335771
" />
<path d="M175.666666 71.335771
L175.714285 71.288152
" />
<path d="M175.714285 71.288152
L175.761904 71.192914
" />
<path d="M175.761904 71.192914
L175.761904 71.145295
" />
<path d="M175.761904 71.145295
L175.714285 71.050057
" />
<path d="M175.714285 71.050057
L175.666666 71.002438
" />
<path d="M175.666666 71.002438
L175.571428 70.954819
" />
<path d="M175.571428 70.954819
L175.380952 70.954819
" />
<path d="M175.380952 70.954819
L175.285714 71.002438
" />
<path d="M175.285714 71.002438
L175.238095 71.050057
" />
<path d="M175.238095 71.050057
L175.190476 71.145295
" />
<path d="M175.190476 71.145295
L175.190476 71.192914
" />
<path d="M175.190476 71.192914
L175.238095 71.288152
" />
<path d="M175.238095 71.288152
L175.285714 71.335771
" />
<path d="M175.285714 71.335771
L175.380952 71.383390
" />
<path d="M175.380952 71.383390
L175.571428 71.383390
" />
<path d="M175.571428 71.383390
L175.666666 71.431009
" />
<path d="M175.666666 71.431009
L175.714285 71.478628
" />
<path d="M175.714285 71.478628
L175.761904 71.573866
" />
<path d="M175.761904 71.573866
L175.761904 71.764342
" />
<path d="M175.761904 71.764342
L175.714285 71.859580
" />
<path d="M175.714285 71.859580
L175.666666 71.907200
" />
<path d="M175.666666 71.907200
L175.571428 71.954819
" />
<path d="M175.571428 71.954819
L175.380952 71.954819
" />
<path d="M175.380952 71.954819
L175.285714 71.907200
" />
<path d="M175.285714 71.907200
L175.238095 71.859580
" />
<path d="M175.238095 71.859580
L175.190476 71.764342
" />
<path d="M175.190476 71.764342
L175.190476 71.573866
" />
<path d="M175.190476 71.573866
L175.238095 71.478628
" />
<path d="M175.238095 71.478628
L175.285714 71.431009
" />
<path d="M175.285714 71.431009
L175.380952 71.383390
" />
</g><text x="101.000000" y="124.000000"
transform="scale(-1 1) translate(-202.000000 0)"
textLength="3.202381" font-size="1.333333" lengthAdjust="spacingAndGlyphs"
text-anchor="middle" opacity="0">H12</text>
<g class="stroked-text"><desc>H12</desc>
<path d="M102.238094 123.954819
L102.238094 122.954819
" />
<path d="M102.238094 123.431009
L101.666666 123.431009
" />
<path d="M101.666666 123.954819
L101.666666 122.954819
" />
<path d="M100.666666 123.954819
L101.238094 123.954819
" />
<path d="M100.952380 123.954819
L100.952380 122.954819
" />
<path d="M100.952380 122.954819
L101.047618 123.097676
" />
<path d="M101.047618 123.097676
L101.142856 123.192914
" />
<path d="M101.142856 123.192914
L101.238094 123.240533
" />
<path d="M100.285713 123.050057
L100.238094 123.002438
" />
<path d="M100.238094 123.002438
L100.142856 122.954819
" />
<path d="M100.142856 122.954819
L99.904761 122.954819
" />
<path d="M99.904761 122.954819
L99.809523 123.002438
" />
<path d="M99.809523 123.002438
L99.761904 123.050057
" />
<path d="M99.761904 123.050057
L99.714285 123.145295
" />
<path d="M99.714285 123.145295
L99.714285 123.240533
" />
<path d="M99.714285 123.240533
L99.761904 123.383390
" />
<path d="M99.761904 123.383390
L100.333332 123.954819
" />
<path d="M100.333332 123.954819
L99.714285 123.954819
" />
</g><text x="74.960000" y="26.890000"
transform="scale(-1 1) translate(-149.920000 0)"
textLength="2.916667" font-size="1.333333" lengthAdjust="spacingAndGlyphs"
text-anchor="middle" opacity="0">J25</text>
<g class="stroked-text"><desc>J25</desc>
<path d="M75.769523 25.844819
L75.769523 26.559104
" />
<path d="M75.769523 26.559104
L75.817142 26.701961
" />
<path d="M75.817142 26.701961
L75.912380 26.797200
" />
<path d="M75.912380 26.797200
L76.055237 26.844819
" />
<path d="M76.055237 26.844819
L76.150475 26.844819
" />
<path d="M75.340951 25.940057
L75.293332 25.892438
" />
<path d="M75.293332 25.892438
L75.198094 25.844819
" />
<path d="M75.198094 25.844819
L74.959999 25.844819
" />
<path d="M74.959999 25.844819
L74.864761 25.892438
" />
<path d="M74.864761 25.892438
L74.817142 25.940057
" />
<path d="M74.817142 25.940057
L74.769523 26.035295
" />
<path d="M74.769523 26.035295
L74.769523 26.130533
" />
<path d="M74.769523 26.130533
L74.817142 26.273390
" />
<path d="M74.817142 26.273390
L75.388570 26.844819
" />
<path d="M75.388570 26.844819
L74.769523 26.844819
" />
<path d="M73.864761 25.844819
L74.340951 25.844819
" />
<path d="M74.340951 25.844819
L74.388570 26.321009
" />
<path d="M74.388570 26.321009
L74.340951 26.273390
" />
<path d="M74.340951 26.273390
L74.245713 26.225771
" />
<path d="M74.245713 26.225771
L74.007618 26.225771
" />
<path d="M74.007618 26.225771
L73.912380 26.273390
" />
<path d="M73.912380 26.273390
L73.864761 26.321009
" />
<path d="M73.864761 26.321009
L73.817142 26.416247
" />
<path d="M73.817142 26.416247
L73.817142 26.654342
" />
<path d="M73.817142 26.654342
L73.864761 26.749580
" />
<path d="M73.864761 26.749580
L73.912380 26.797200
" />
<path d="M73.912380 26.797200
L74.007618 26.844819
" />
<path d="M74.007618 26.844819
L74.245713 26.844819
" />
<path d="M74.245713 26.844819
L74.340951 26.797200
" />
<path d="M74.340951 26.797200
L74.388570 26.749580
" />
</g><text x="39.080000" y="129.930000"
transform="scale(-1 1) translate(-78.160000 0)"
textLength="2.916667" font-size="1.333333" lengthAdjust="spacingAndGlyphs"
text-anchor="middle" opacity="0">J28</text>
<g class="stroked-text"><desc>J28</desc>
<path d="M39.889523 128.884819
L39.889523 129.599104
" />
<path d="M39.889523 129.599104
L39.937142 129.741961
" />
<path d="M39.937142 129.741961
L40.032380 129.837200
" />
<path d="M40.032380 129.837200
L40.175237 129.884819
" />
<path d="M40.175237 129.884819
L40.270475 129.884819
" />
<path d="M39.460951 128.980057
L39.413332 128.932438
" />
<path d="M39.413332 128.932438
L39.318094 128.884819
" />
<path d="M39.318094 128.884819
L39.079999 128.884819
" />
<path d="M39.079999 128.884819
L38.984761 128.932438
" />
<path d="M38.984761 128.932438
L38.937142 128.980057
" />
<path d="M38.937142 128.980057
L38.889523 129.075295
" />
<path d="M38.889523 129.075295
L38.889523 129.170533
" />
<path d="M38.889523 129.170533
L38.937142 129.313390
" />
<path d="M38.937142 129.313390
L39.508570 129.884819
" />
<path d="M39.508570 129.884819
L38.889523 129.884819
" />
<path d="M38.318094 129.313390
L38.413332 129.265771
" />
<path d="M38.413332 129.265771
L38.460951 129.218152
" />
<path d="M38.460951 129.218152
L38.508570 129.122914
" />
<path d="M38.508570 129.122914
L38.508570 129.075295
" />
<path d="M38.508570 129.075295
L38.460951 128.980057
" />
<path d="M38.460951 128.980057
L38.413332 128.932438
" />
<path d="M38.413332 128.932438
L38.318094 128.884819
" />
<path d="M38.318094 128.884819
L38.127618 128.884819
" />
<path d="M38.127618 128.884819
L38.032380 128.932438
" />
<path d="M38.032380 128.932438
L37.984761 128.980057
" />
<path d="M37.984761 128.980057
L37.937142 129.075295
" />
<path d="M37.937142 129.075295
L37.937142 129.122914
" />
<path d="M37.937142 129.122914
L37.984761 129.218152
" />
<path d="M37.984761 129.218152
L38.032380 129.265771
" />
<path d="M38.032380 129.265771
L38.127618 129.313390
" />
<path d="M38.127618 129.313390
L38.318094 129.313390
" />
<path d="M38.318094 129.313390
L38.413332 129.361009
" />
<path d="M38.413332 129.361009
L38.460951 129.408628
" />
<path d="M38.460951 129.408628
L38.508570 129.503866
" />
<path d="M38.508570 129.503866
L38.508570 129.694342
" />
<path d="M38.508570 129.694342
L38.460951 129.789580
" />
<path d="M38.460951 129.789580
L38.413332 129.837200
" />
<path d="M38.413332 129.837200
L38.318094 129.884819
" />
<path d="M38.318094 129.884819
L38.127618 129.884819
" />
<path d="M38.127618 129.884819
L38.032380 129.837200
" />
<path d="M38.032380 129.837200
L37.984761 129.789580
" />
<path d="M37.984761 129.789580
L37.937142 129.694342
" />
<path d="M37.937142 129.694342
L37.937142 129.503866
" />
<path d="M37.937142 129.503866
L37.984761 129.408628
" />
<path d="M37.984761 129.408628
L38.032380 129.361009
" />
<path d="M38.032380 129.361009
L38.127618 129.313390
" />
</g><text x="175.500000" y="124.000000"
transform="scale(-1 1) translate(-351.000000 0)"
textLength="3.202381" font-size="1.333333" lengthAdjust="spacingAndGlyphs"
text-anchor="middle" opacity="0">H11</text>
<g class="stroked-text"><desc>H11</desc>
<path d="M176.738094 123.954819
L176.738094 122.954819
" />
<path d="M176.738094 123.431009
L176.166666 123.431009
" />
<path d="M176.166666 123.954819
L176.166666 122.954819
" />
<path d="M175.166666 123.954819
L175.738094 123.954819
" />
<path d="M175.452380 123.954819
L175.452380 122.954819
" />
<path d="M175.452380 122.954819
L175.547618 123.097676
" />
<path d="M175.547618 123.097676
L175.642856 123.192914
" />
<path d="M175.642856 123.192914
L175.738094 123.240533
" />
<path d="M174.214285 123.954819
L174.785713 123.954819
" />
<path d="M174.499999 123.954819
L174.499999 122.954819
" />
<path d="M174.499999 122.954819
L174.595237 123.097676
" />
<path d="M174.595237 123.097676
L174.690475 123.192914
" />
<path d="M174.690475 123.192914
L174.785713 123.240533
" />
</g><text x="123.300000" y="69.000000"
transform="scale(-1 1) translate(-246.600000 0)"
textLength="2.916667" font-size="1.333333" lengthAdjust="spacingAndGlyphs"
text-anchor="middle" opacity="0">J27</text>
<g class="stroked-text"><desc>J27</desc>
<path d="M124.109523 67.954819
L124.109523 68.669104
" />
<path d="M124.109523 68.669104
L124.157142 68.811961
" />
<path d="M124.157142 68.811961
L124.252380 68.907200
" />
<path d="M124.252380 68.907200
L124.395237 68.954819
" />
<path d="M124.395237 68.954819
L124.490475 68.954819
" />
<path d="M123.680951 68.050057
L123.633332 68.002438
" />
<path d="M123.633332 68.002438
L123.538094 67.954819
" />
<path d="M123.538094 67.954819
L123.299999 67.954819
" />
<path d="M123.299999 67.954819
L123.204761 68.002438
" />
<path d="M123.204761 68.002438
L123.157142 68.050057
" />
<path d="M123.157142 68.050057
L123.109523 68.145295
" />
<path d="M123.109523 68.145295
L123.109523 68.240533
" />
<path d="M123.109523 68.240533
L123.157142 68.383390
" />
<path d="M123.157142 68.383390
L123.728570 68.954819
" />
<path d="M123.728570 68.954819
L123.109523 68.954819
" />
<path d="M122.776189 67.954819
L122.109523 67.954819
" />
<path d="M122.109523 67.954819
L122.538094 68.954819
" />
</g><text x="66.030000" y="26.900000"
transform="scale(-1 1) translate(-132.060000 0)"
textLength="2.916667" font-size="1.333333" lengthAdjust="spacingAndGlyphs"
text-anchor="middle" opacity="0">J26</text>
<g class="stroked-text"><desc>J26</desc>
<path d="M66.839523 25.854819
L66.839523 26.569104
" />
<path d="M66.839523 26.569104
L66.887142 26.711961
" />
<path d="M66.887142 26.711961
L66.982380 26.807200
" />
<path d="M66.982380 26.807200
L67.125237 26.854819
" />
<path d="M67.125237 26.854819
L67.220475 26.854819
" />
<path d="M66.410951 25.950057
L66.363332 25.902438
" />
<path d="M66.363332 25.902438
L66.268094 25.854819
" />
<path d="M66.268094 25.854819
L66.029999 25.854819
" />
<path d="M66.029999 25.854819
L65.934761 25.902438
" />
<path d="M65.934761 25.902438
L65.887142 25.950057
" />
<path d="M65.887142 25.950057
L65.839523 26.045295
" />
<path d="M65.839523 26.045295
L65.839523 26.140533
" />
<path d="M65.839523 26.140533
L65.887142 26.283390
" />
<path d="M65.887142 26.283390
L66.458570 26.854819
" />
<path d="M66.458570 26.854819
L65.839523 26.854819
" />
<path d="M64.982380 25.854819
L65.172856 25.854819
" />
<path d="M65.172856 25.854819
L65.268094 25.902438
" />
<path d="M65.268094 25.902438
L65.315713 25.950057
" />
<path d="M65.315713 25.950057
L65.410951 26.092914
" />
<path d="M65.410951 26.092914
L65.458570 26.283390
" />
<path d="M65.458570 26.283390
L65.458570 26.664342
" />
<path d="M65.458570 26.664342
L65.410951 26.759580
" />
<path d="M65.410951 26.759580
L65.363332 26.807200
" />
<path d="M65.363332 26.807200
L65.268094 26.854819
" />
<path d="M65.268094 26.854819
L65.077618 26.854819
" />
<path d="M65.077618 26.854819
L64.982380 26.807200
" />
<path d="M64.982380 26.807200
L64.934761 26.759580
" />
<path d="M64.934761 26.759580
L64.887142 26.664342
" />
<path d="M64.887142 26.664342
L64.887142 26.426247
" />
<path d="M64.887142 26.426247
L64.934761 26.331009
" />
<path d="M64.934761 26.331009
L64.982380 26.283390
" />
<path d="M64.982380 26.283390
L65.077618 26.235771
" />
<path d="M65.077618 26.235771
L65.268094 26.235771
" />
<path d="M65.268094 26.235771
L65.363332 26.283390
" />
<path d="M65.363332 26.283390
L65.410951 26.331009
" />
<path d="M65.410951 26.331009
L65.458570 26.426247
" />
</g></g>
<g style="fill:#000000; fill-opacity:0.0; 
stroke:#000000; stroke-width:0.120000; stroke-opacity:1; 
stroke-linecap:round; stroke-linejoin:round;">
<path d="M70.600000 25.600000
L70.600000 24.350000
" />
<path d="M70.900000 20.580000
L79.020000 20.580000
" />
<path d="M70.900000 22.690000
L71.510000 22.690000
" />
<path d="M70.900000 23.990000
L71.510000 23.990000
" />
<path d="M70.900000 25.300000
L70.900000 20.580000
" />
<path d="M71.510000 21.190000
L78.410000 21.190000
" />
<path d="M71.510000 24.690000
L71.510000 21.190000
" />
<path d="M71.850000 25.600000
L70.600000 25.600000
" />
<path d="M72.360000 25.500000
L72.360000 25.300000
" />
<path d="M72.660000 25.300000
L72.660000 25.500000
" />
<path d="M72.660000 25.400000
L72.360000 25.400000
" />
<path d="M72.660000 25.500000
L72.360000 25.500000
" />
<path d="M73.460000 24.690000
L71.510000 24.690000
" />
<path d="M73.460000 25.300000
L73.460000 24.690000
" />
<path d="M73.860000 21.190000
L73.860000 21.690000
" />
<path d="M73.860000 21.690000
L74.060000 21.690000
" />
<path d="M73.960000 21.190000
L73.960000 21.690000
" />
<path d="M74.060000 21.690000
L74.060000 21.190000
" />
<path d="M75.860000 21.190000
L75.860000 21.690000
" />
<path d="M75.860000 21.690000
L76.060000 21.690000
" />
<path d="M75.960000 21.190000
L75.960000 21.690000
" />
<path d="M76.060000 21.690000
L76.060000 21.190000
" />
<path d="M76.460000 24.690000
L76.460000 25.300000
" />
<path d="M78.410000 21.190000
L78.410000 24.690000
" />
<path d="M78.410000 24.690000
L76.460000 24.690000
" />
<path d="M79.020000 20.580000
L79.020000 25.300000
" />
<path d="M79.020000 22.690000
L78.410000 22.690000
" />
<path d="M79.020000 23.990000
L78.410000 23.990000
" />
<path d="M79.020000 25.300000
L70.900000 25.300000
" />
<path d="M49.120000 125.720000
L49.120000 126.970000
" />
<path d="M48.820000 130.740000
L40.700000 130.740000
" />
<path d="M48.820000 128.630000
L48.210000 128.630000
" />
<path d="M48.820000 127.330000
L48.210000 127.330000
" />
<path d="M48.820000 126.020000
L48.820000 130.740000
" />
<path d="M48.210000 130.130000
L41.310000 130.130000
" />
<path d="M48.210000 126.630000
L48.210000 130.130000
" />
<path d="M47.870000 125.720000
L49.120000 125.720000
" />
<path d="M47.360000 125.820000
L47.360000 126.020000
" />
<path d="M47.060000 126.020000
L47.060000 125.820000
" />
<path d="M47.060000 125.920000
L47.360000 125.920000
" />
<path d="M47.060000 125.820000
L47.360000 125.820000
" />
<path d="M46.260000 126.630000
L48.210000 126.630000
" />
<path d="M46.260000 126.020000
L46.260000 126.630000
" />
<path d="M45.860000 130.130000
L45.860000 129.630000
" />
<path d="M45.860000 129.630000
L45.660000 129.630000
" />
<path d="M45.760000 130.130000
L45.760000 129.630000
" />
<path d="M45.660000 129.630000
L45.660000 130.130000
" />
<path d="M43.860000 130.130000
L43.860000 129.630000
" />
<path d="M43.860000 129.630000
L43.660000 129.630000
" />
<path d="M43.760000 130.130000
L43.760000 129.630000
" />
<path d="M43.660000 129.630000
L43.660000 130.130000
" />
<path d="M43.260000 126.630000
L43.260000 126.020000
" />
<path d="M41.310000 130.130000
L41.310000 126.630000
" />
<path d="M41.310000 126.630000
L43.260000 126.630000
" />
<path d="M40.700000 130.740000
L40.700000 126.020000
" />
<path d="M40.700000 128.630000
L41.310000 128.630000
" />
<path d="M40.700000 127.330000
L41.310000 127.330000
" />
<path d="M40.700000 126.020000
L48.820000 126.020000
" />
</g>
<g style="fill:#000000; fill-opacity:0.0; 
stroke:#000000; stroke-width:0.100000; stroke-opacity:1; 
stroke-linecap:round; stroke-linejoin:round;">
<path d="M171.480000 63.505600
L171.480000 121.505600
" />
<path d="M167.730000 125.005600
L167.980000 125.005600
" />
</g>
<g style="fill:#000000; fill-opacity:0.0; 
stroke:#000000; stroke-width:0.120000; stroke-opacity:1; 
stroke-linecap:round; stroke-linejoin:round;">
<path d="M158.790000 123.020600
L158.790000 117.820600
" />
<path d="M157.885000 76.115600
L157.885000 81.255600
" />
<path d="M157.885000 73.515600
L157.885000 74.845600
" />
<path d="M156.555000 73.515600
L157.885000 73.515600
" />
<path d="M155.285000 76.115600
L157.885000 76.115600
" />
<path d="M155.285000 73.515600
L155.285000 76.115600
" />
<path d="M153.650000 120.420600
L153.650000 117.820600
" />
<path d="M153.650000 117.820600
L158.790000 117.820600
" />
<path d="M152.685000 81.255600
L157.885000 81.255600
" />
<path d="M152.685000 73.515600
L155.285000 73.515600
" />
<path d="M152.685000 73.515600
L152.685000 81.255600
" />
<path d="M151.050000 123.020600
L158.790000 123.020600
" />
<path d="M151.050000 123.020600
L151.050000 120.420600
" />
<path d="M151.050000 120.420600
L153.650000 120.420600
" />
<path d="M151.050000 119.150600
L151.050000 117.820600
" />
<path d="M151.050000 117.820600
L152.380000 117.820600
" />
<path d="M121.580000 69.645600
L121.580000 117.965600
" />
<path d="M121.580000 67.045600
L121.580000 68.375600
" />
<path d="M120.250000 67.045600
L121.580000 67.045600
" />
<path d="M118.980000 69.645600
L121.580000 69.645600
" />
<path d="M118.980000 67.045600
L118.980000 69.645600
" />
</g>
<g style="fill:#000000; fill-opacity:0.0; 
stroke:#000000; stroke-width:0.100000; stroke-opacity:1; 
stroke-linecap:round; stroke-linejoin:round;">
<path d="M118.980000 60.005600
L167.980000 60.005600
" />
<path d="M118.980000 60.005600
L118.480000 60.005243
" />
<path d="M118.230000 125.005600
L167.730000 125.005600
" />
</g>
<g style="fill:#000000; fill-opacity:0.0; 
stroke:#000000; stroke-width:0.120000; stroke-opacity:1; 
stroke-linecap:round; stroke-linejoin:round;">
<path d="M116.380000 117.965600
L121.580000 117.965600
" />
<path d="M116.380000 67.045600
L118.980000 67.045600
" />
<path d="M116.380000 67.045600
L116.380000 117.965600
" />
</g>
<g style="fill:#000000; fill-opacity:0.0; 
stroke:#000000; stroke-width:0.100000; stroke-opacity:1; 
stroke-linecap:round; stroke-linejoin:round;">
<path d="M114.980000 121.505600
L114.980000 63.555600
" />
<path d="M167.980000 125.005600 A3.499999 3.499999 0.0 0 0 171.480000 121.505600" />
<path d="M171.480000 63.505600 A3.499999 3.499999 0.0 0 0 167.980000 60.005600" />
<path d="M114.980000 121.505600 A3.500000 3.500000 0.0 0 0 118.480000 125.005600" />
<path d="M118.479999 60.005243 A3.500357 3.500357 0.0 0 0 114.979999 63.555600" />
<circle cx="167.980000" cy="121.505600" r="1.651000" /> 
<circle cx="167.980000" cy="63.505600" r="1.651000" /> 
<circle cx="118.980000" cy="121.505600" r="1.651000" /> 
<circle cx="118.980000" cy="63.505600" r="1.651000" /> 
</g>
<g style="fill:#000000; fill-opacity:0.0; 
stroke:#000000; stroke-width:0.120000; stroke-opacity:1; 
stroke-linecap:round; stroke-linejoin:round;">
<path d="M61.670000 25.610000
L61.670000 24.360000
" />
<path d="M61.970000 20.590000
L70.090000 20.590000
" />
<path d="M61.970000 22.700000
L62.580000 22.700000
" />
<path d="M61.970000 24.000000
L62.580000 24.000000
" />
<path d="M61.970000 25.310000
L61.970000 20.590000
" />
<path d="M62.580000 21.200000
L69.480000 21.200000
" />
<path d="M62.580000 24.700000
L62.580000 21.200000
" />
<path d="M62.920000 25.610000
L61.670000 25.610000
" />
<path d="M63.430000 25.510000
L63.430000 25.310000
" />
<path d="M63.730000 25.310000
L63.730000 25.510000
" />
<path d="M63.730000 25.410000
L63.430000 25.410000
" />
<path d="M63.730000 25.510000
L63.430000 25.510000
" />
<path d="M64.530000 24.700000
L62.580000 24.700000
" />
<path d="M64.530000 25.310000
L64.530000 24.700000
" />
<path d="M64.930000 21.200000
L64.930000 21.700000
" />
<path d="M64.930000 21.700000
L65.130000 21.700000
" />
<path d="M65.030000 21.200000
L65.030000 21.700000
" />
<path d="M65.130000 21.700000
L65.130000 21.200000
" />
<path d="M66.930000 21.200000
L66.930000 21.700000
" />
<path d="M66.930000 21.700000
L67.130000 21.700000
" />
<path d="M67.030000 21.200000
L67.030000 21.700000
" />
<path d="M67.130000 21.700000
L67.130000 21.200000
" />
<path d="M67.530000 24.700000
L67.530000 25.310000
" />
<path d="M69.480000 21.200000
L69.480000 24.700000
" />
<path d="M69.480000 24.700000
L67.530000 24.700000
" />
<path d="M70.090000 20.590000
L70.090000 25.310000
" />
<path d="M70.090000 22.700000
L69.480000 22.700000
" />
<path d="M70.090000 24.000000
L69.480000 24.000000
" />
<path d="M70.090000 25.310000
L61.970000 25.310000
" />
<g >
</g>
<g >
</g>
<g >
</g>
<g >
</g>
<g >
</g>
<g >
</g>
<g >
</g>
<g >
</g>
<g >
</g>
<g >
</g>
<g >
</g>
<g >
</g>
<g >
</g>
<g >
</g>
<g >
</g>
<g >
</g>
<g >
</g>
<g >
</g>
<g >
</g>
<g >
</g>
<g >
</g>
<g >
</g>
<g >
</g>
<g >
</g>
<g >
</g>
<g >
</g>
<g >
</g>
<g >
</g>
<g >
</g>
<g >
</g>
<g >
</g>
<g >
</g>
<g >
</g>
<g >
</g>
<g >
</g>
<g >
</g>
<g >
</g>
<g >
</g>
<g >
</g>
<g >
</g>
<g >
</g>
<g >
</g>
<g >
</g>
<g >
</g>
<g >
</g>
<g >
</g>
<g >
</g>
<g >
</g>
<g >
</g>
<g >
</g>
<g >
</g>
<g >
</g>
<g >
</g>
<g >
</g>
<g >
</g>
<g >
</g>
<g >
</g>
<g >
</g>
<g >
</g>
<g >
</g>
<g >
</g>
<g >
</g>
<g >
</g>
<g >
</g>
<g >
</g>
<g >
</g>
<g >
</g>
<g >
</g>
<g >
</g>
<g >
</g>
<g >
</g>
<g >
</g>
<g >
</g>
<g >
</g>
<g >
</g>
<g >
</g>
<g >
</g>
<g >
</g>
<g >
</g>
<g >
</g>
<g >
</g>
<g >
</g>
<g >
</g>
<g >
</g>
<g >
</g>
<g >
</g>
<g >
</g>
<g >
</g>
<g >
</g>
<g >
</g>
<g >
</g>
<g >
</g>
<g >
</g>
<g >
</g>
<g >
</g>
<g >
</g>
<g >
</g>
<g >
</g>
<g >
</g>
<g >
</g>
<g >
</g>
<g >
</g>
<g >
</g>
<g >
</g>
<g >
</g>
<g >
</g>
<g >
</g>
<g >
</g>
<g >
</g>
<g >
</g>
<g >
</g>
<g >
</g>
<g >
</g>
<g >
</g>
<g >
</g>
<g >
</g>
<g >
</g>
<g >
</g>
<g >
</g>
<g >
</g>
<g >
</g>
<g >
</g>
<g >
</g>
<g >
</g>
<g >
</g>
<g >
</g>
<g >
</g>
<g >
</g>
<g >
</g>
<g >
</g>
<g >
</g>
<g >
</g>
<g >
</g>
<g >
</g>
<g >
</g>
<g >
</g>
<g >
</g>
<g >
</g>
<g >
</g>
<g >
</g>
<g >
</g>
<g >
</g>
</g> 
</svg>
