<?xml version="1.0" standalone="no"?>
 <!DOCTYPE svg PUBLIC "-//W3C//DTD SVG 1.1//EN" 
 "http://www.w3.org/Graphics/SVG/1.1/DTD/svg11.dtd"> 
<svg
  xmlns:svg="http://www.w3.org/2000/svg"
  xmlns="http://www.w3.org/2000/svg"
  xmlns:xlink="http://www.w3.org/1999/xlink"
  version="1.1"
  width="17.61cm" height="11.31cm" viewBox="16.95 18.95 176.1 113.1">
<title>SVG Image created as pedalboard-hw-B_SilkS.svg date 2023/10/13 20:39:37 </title>
  <desc>Image generated by PCBNEW </desc>
<g style="fill:#000000; fill-opacity:1.000000;stroke:#000000; stroke-opacity:1.000000;
stroke-linecap:round; stroke-linejoin:round;"
 transform="translate(0 0) scale(1 1)">
</g>
<g style="fill:#000000; fill-opacity:0.0; 
stroke:#000000; stroke-width:0.000000; stroke-opacity:1; 
stroke-linecap:round; stroke-linejoin:round;">
</g>
<g style="fill:#000000; fill-opacity:0.0; 
stroke:#000000; stroke-width:0.150000; stroke-opacity:1; 
stroke-linecap:round; stroke-linejoin:round;">
<g transform="rotate(90.000000 42.000000 123.000000)">
<text x="42.000000" y="123.000000"
transform="scale(-1 1) translate(-84.000000 0)"
textLength="3.297619" font-size="1.333333" lengthAdjust="spacingAndGlyphs"
text-anchor="start" opacity="0">GND</text>
</g>
<g class="stroked-text"><desc>GND</desc>
<path d="M43.082561 122.139411
L43.130180 122.234649
" />
<path d="M43.130180 122.234649
L43.130180 122.377506
" />
<path d="M43.130180 122.377506
L43.082561 122.520363
" />
<path d="M43.082561 122.520363
L42.987323 122.615601
" />
<path d="M42.987323 122.615601
L42.892085 122.663220
" />
<path d="M42.892085 122.663220
L42.701609 122.710839
" />
<path d="M42.701609 122.710839
L42.558752 122.710839
" />
<path d="M42.558752 122.710839
L42.368276 122.663220
" />
<path d="M42.368276 122.663220
L42.273038 122.615601
" />
<path d="M42.273038 122.615601
L42.177800 122.520363
" />
<path d="M42.177800 122.520363
L42.130180 122.377506
" />
<path d="M42.130180 122.377506
L42.130180 122.282268
" />
<path d="M42.130180 122.282268
L42.177800 122.139411
" />
<path d="M42.177800 122.139411
L42.225419 122.091792
" />
<path d="M42.225419 122.091792
L42.558752 122.091792
" />
<path d="M42.558752 122.091792
L42.558752 122.282268
" />
<path d="M42.130180 121.663220
L43.130180 121.663220
" />
<path d="M43.130180 121.663220
L42.130180 121.091792
" />
<path d="M42.130180 121.091792
L43.130180 121.091792
" />
<path d="M42.130180 120.615601
L43.130180 120.615601
" />
<path d="M43.130180 120.615601
L43.130180 120.377506
" />
<path d="M43.130180 120.377506
L43.082561 120.234649
" />
<path d="M43.082561 120.234649
L42.987323 120.139411
" />
<path d="M42.987323 120.139411
L42.892085 120.091792
" />
<path d="M42.892085 120.091792
L42.701609 120.044173
" />
<path d="M42.701609 120.044173
L42.558752 120.044173
" />
<path d="M42.558752 120.044173
L42.368276 120.091792
" />
<path d="M42.368276 120.091792
L42.273038 120.139411
" />
<path d="M42.273038 120.139411
L42.177800 120.234649
" />
<path d="M42.177800 120.234649
L42.130180 120.377506
" />
<path d="M42.130180 120.377506
L42.130180 120.615601
" />
</g><g transform="rotate(90.000000 39.882800 123.000000)">
<text x="39.882800" y="123.000000"
transform="scale(-1 1) translate(-79.765600 0)"
textLength="6.773811" font-size="1.333333" lengthAdjust="spacingAndGlyphs"
text-anchor="start" opacity="0">Data out</text>
</g>
<g class="stroked-text"><desc>Data out</desc>
<path d="M40.012980 122.663220
L41.012980 122.663220
" />
<path d="M41.012980 122.663220
L41.012980 122.425125
" />
<path d="M41.012980 122.425125
L40.965361 122.282268
" />
<path d="M40.965361 122.282268
L40.870123 122.187030
" />
<path d="M40.870123 122.187030
L40.774885 122.139411
" />
<path d="M40.774885 122.139411
L40.584409 122.091792
" />
<path d="M40.584409 122.091792
L40.441552 122.091792
" />
<path d="M40.441552 122.091792
L40.251076 122.139411
" />
<path d="M40.251076 122.139411
L40.155838 122.187030
" />
<path d="M40.155838 122.187030
L40.060600 122.282268
" />
<path d="M40.060600 122.282268
L40.012980 122.425125
" />
<path d="M40.012980 122.425125
L40.012980 122.663220
" />
<path d="M40.012980 121.234649
L40.536790 121.234649
" />
<path d="M40.536790 121.234649
L40.632028 121.282268
" />
<path d="M40.632028 121.282268
L40.679647 121.377506
" />
<path d="M40.679647 121.377506
L40.679647 121.567982
" />
<path d="M40.679647 121.567982
L40.632028 121.663220
" />
<path d="M40.060600 121.234649
L40.012980 121.329887
" />
<path d="M40.012980 121.329887
L40.012980 121.567982
" />
<path d="M40.012980 121.567982
L40.060600 121.663220
" />
<path d="M40.060600 121.663220
L40.155838 121.710839
" />
<path d="M40.155838 121.710839
L40.251076 121.710839
" />
<path d="M40.251076 121.710839
L40.346314 121.663220
" />
<path d="M40.346314 121.663220
L40.393933 121.567982
" />
<path d="M40.393933 121.567982
L40.393933 121.329887
" />
<path d="M40.393933 121.329887
L40.441552 121.234649
" />
<path d="M40.679647 120.901315
L40.679647 120.520363
" />
<path d="M41.012980 120.758458
L40.155838 120.758458
" />
<path d="M40.155838 120.758458
L40.060600 120.710839
" />
<path d="M40.060600 120.710839
L40.012980 120.615601
" />
<path d="M40.012980 120.615601
L40.012980 120.520363
" />
<path d="M40.012980 119.758458
L40.536790 119.758458
" />
<path d="M40.536790 119.758458
L40.632028 119.806077
" />
<path d="M40.632028 119.806077
L40.679647 119.901315
" />
<path d="M40.679647 119.901315
L40.679647 120.091791
" />
<path d="M40.679647 120.091791
L40.632028 120.187029
" />
<path d="M40.060600 119.758458
L40.012980 119.853696
" />
<path d="M40.012980 119.853696
L40.012980 120.091791
" />
<path d="M40.012980 120.091791
L40.060600 120.187029
" />
<path d="M40.060600 120.187029
L40.155838 120.234648
" />
<path d="M40.155838 120.234648
L40.251076 120.234648
" />
<path d="M40.251076 120.234648
L40.346314 120.187029
" />
<path d="M40.346314 120.187029
L40.393933 120.091791
" />
<path d="M40.393933 120.091791
L40.393933 119.853696
" />
<path d="M40.393933 119.853696
L40.441552 119.758458
" />
<path d="M40.012980 118.377505
L40.060600 118.472743
" />
<path d="M40.060600 118.472743
L40.108219 118.520362
" />
<path d="M40.108219 118.520362
L40.203457 118.567981
" />
<path d="M40.203457 118.567981
L40.489171 118.567981
" />
<path d="M40.489171 118.567981
L40.584409 118.520362
" />
<path d="M40.584409 118.520362
L40.632028 118.472743
" />
<path d="M40.632028 118.472743
L40.679647 118.377505
" />
<path d="M40.679647 118.377505
L40.679647 118.234648
" />
<path d="M40.679647 118.234648
L40.632028 118.139410
" />
<path d="M40.632028 118.139410
L40.584409 118.091791
" />
<path d="M40.584409 118.091791
L40.489171 118.044172
" />
<path d="M40.489171 118.044172
L40.203457 118.044172
" />
<path d="M40.203457 118.044172
L40.108219 118.091791
" />
<path d="M40.108219 118.091791
L40.060600 118.139410
" />
<path d="M40.060600 118.139410
L40.012980 118.234648
" />
<path d="M40.012980 118.234648
L40.012980 118.377505
" />
<path d="M40.679647 117.187029
L40.012980 117.187029
" />
<path d="M40.679647 117.615600
L40.155838 117.615600
" />
<path d="M40.155838 117.615600
L40.060600 117.567981
" />
<path d="M40.060600 117.567981
L40.012980 117.472743
" />
<path d="M40.012980 117.472743
L40.012980 117.329886
" />
<path d="M40.012980 117.329886
L40.060600 117.234648
" />
<path d="M40.060600 117.234648
L40.108219 117.187029
" />
<path d="M40.679647 116.853695
L40.679647 116.472743
" />
<path d="M41.012980 116.710838
L40.155838 116.710838
" />
<path d="M40.155838 116.710838
L40.060600 116.663219
" />
<path d="M40.060600 116.663219
L40.012980 116.567981
" />
<path d="M40.012980 116.567981
L40.012980 116.472743
" />
</g><text x="55.000000" y="29.000000"
transform="scale(-1 1) translate(-110.000000 0)"
textLength="1.773809" font-size="1.333333" lengthAdjust="spacingAndGlyphs"
text-anchor="start" opacity="0">IN</text>
<g class="stroked-text"><desc>IN</desc>
<path d="M54.663220 28.869819
L54.663220 27.869819
" />
<path d="M54.187030 28.869819
L54.187030 27.869819
" />
<path d="M54.187030 27.869819
L53.615602 28.869819
" />
<path d="M53.615602 28.869819
L53.615602 27.869819
" />
</g><g transform="rotate(-90.000000 189.230000 36.576000)">
<text x="189.230000" y="36.576000"
transform="scale(-1 1) translate(-378.460000 0)"
textLength="3.297619" font-size="1.333333" lengthAdjust="spacingAndGlyphs"
text-anchor="start" opacity="0">GND</text>
</g>
<g class="stroked-text"><desc>GND</desc>
<path d="M188.147438 37.436588
L188.099819 37.341350
" />
<path d="M188.099819 37.341350
L188.099819 37.198493
" />
<path d="M188.099819 37.198493
L188.147438 37.055636
" />
<path d="M188.147438 37.055636
L188.242676 36.960398
" />
<path d="M188.242676 36.960398
L188.337914 36.912779
" />
<path d="M188.337914 36.912779
L188.528390 36.865160
" />
<path d="M188.528390 36.865160
L188.671247 36.865160
" />
<path d="M188.671247 36.865160
L188.861723 36.912779
" />
<path d="M188.861723 36.912779
L188.956961 36.960398
" />
<path d="M188.956961 36.960398
L189.052200 37.055636
" />
<path d="M189.052200 37.055636
L189.099819 37.198493
" />
<path d="M189.099819 37.198493
L189.099819 37.293731
" />
<path d="M189.099819 37.293731
L189.052200 37.436588
" />
<path d="M189.052200 37.436588
L189.004580 37.484207
" />
<path d="M189.004580 37.484207
L188.671247 37.484207
" />
<path d="M188.671247 37.484207
L188.671247 37.293731
" />
<path d="M189.099819 37.912779
L188.099819 37.912779
" />
<path d="M188.099819 37.912779
L189.099819 38.484207
" />
<path d="M189.099819 38.484207
L188.099819 38.484207
" />
<path d="M189.099819 38.960398
L188.099819 38.960398
" />
<path d="M188.099819 38.960398
L188.099819 39.198493
" />
<path d="M188.099819 39.198493
L188.147438 39.341350
" />
<path d="M188.147438 39.341350
L188.242676 39.436588
" />
<path d="M188.242676 39.436588
L188.337914 39.484207
" />
<path d="M188.337914 39.484207
L188.528390 39.531826
" />
<path d="M188.528390 39.531826
L188.671247 39.531826
" />
<path d="M188.671247 39.531826
L188.861723 39.484207
" />
<path d="M188.861723 39.484207
L188.956961 39.436588
" />
<path d="M188.956961 39.436588
L189.052200 39.341350
" />
<path d="M189.052200 39.341350
L189.099819 39.198493
" />
<path d="M189.099819 39.198493
L189.099819 38.960398
" />
</g><text x="142.800000" y="54.900000"
transform="scale(-1 1) translate(-285.600000 0)"
textLength="5.821429" font-size="1.333333" lengthAdjust="spacingAndGlyphs"
text-anchor="start" opacity="0">5V PSU</text>
<g class="stroked-text"><desc>5V PSU</desc>
<path d="M141.987030 53.769819
L142.463220 53.769819
" />
<path d="M142.463220 53.769819
L142.510839 54.246009
" />
<path d="M142.510839 54.246009
L142.463220 54.198390
" />
<path d="M142.463220 54.198390
L142.367982 54.150771
" />
<path d="M142.367982 54.150771
L142.129887 54.150771
" />
<path d="M142.129887 54.150771
L142.034649 54.198390
" />
<path d="M142.034649 54.198390
L141.987030 54.246009
" />
<path d="M141.987030 54.246009
L141.939411 54.341247
" />
<path d="M141.939411 54.341247
L141.939411 54.579342
" />
<path d="M141.939411 54.579342
L141.987030 54.674580
" />
<path d="M141.987030 54.674580
L142.034649 54.722200
" />
<path d="M142.034649 54.722200
L142.129887 54.769819
" />
<path d="M142.129887 54.769819
L142.367982 54.769819
" />
<path d="M142.367982 54.769819
L142.463220 54.722200
" />
<path d="M142.463220 54.722200
L142.510839 54.674580
" />
<path d="M141.653696 53.769819
L141.320363 54.769819
" />
<path d="M141.320363 54.769819
L140.987030 53.769819
" />
<path d="M139.891791 54.769819
L139.891791 53.769819
" />
<path d="M139.891791 53.769819
L139.510839 53.769819
" />
<path d="M139.510839 53.769819
L139.415601 53.817438
" />
<path d="M139.415601 53.817438
L139.367982 53.865057
" />
<path d="M139.367982 53.865057
L139.320363 53.960295
" />
<path d="M139.320363 53.960295
L139.320363 54.103152
" />
<path d="M139.320363 54.103152
L139.367982 54.198390
" />
<path d="M139.367982 54.198390
L139.415601 54.246009
" />
<path d="M139.415601 54.246009
L139.510839 54.293628
" />
<path d="M139.510839 54.293628
L139.891791 54.293628
" />
<path d="M138.939410 54.722200
L138.796553 54.769819
" />
<path d="M138.796553 54.769819
L138.558458 54.769819
" />
<path d="M138.558458 54.769819
L138.463220 54.722200
" />
<path d="M138.463220 54.722200
L138.415601 54.674580
" />
<path d="M138.415601 54.674580
L138.367982 54.579342
" />
<path d="M138.367982 54.579342
L138.367982 54.484104
" />
<path d="M138.367982 54.484104
L138.415601 54.388866
" />
<path d="M138.415601 54.388866
L138.463220 54.341247
" />
<path d="M138.463220 54.341247
L138.558458 54.293628
" />
<path d="M138.558458 54.293628
L138.748934 54.246009
" />
<path d="M138.748934 54.246009
L138.844172 54.198390
" />
<path d="M138.844172 54.198390
L138.891791 54.150771
" />
<path d="M138.891791 54.150771
L138.939410 54.055533
" />
<path d="M138.939410 54.055533
L138.939410 53.960295
" />
<path d="M138.939410 53.960295
L138.891791 53.865057
" />
<path d="M138.891791 53.865057
L138.844172 53.817438
" />
<path d="M138.844172 53.817438
L138.748934 53.769819
" />
<path d="M138.748934 53.769819
L138.510839 53.769819
" />
<path d="M138.510839 53.769819
L138.367982 53.817438
" />
<path d="M137.939410 53.769819
L137.939410 54.579342
" />
<path d="M137.939410 54.579342
L137.891791 54.674580
" />
<path d="M137.891791 54.674580
L137.844172 54.722200
" />
<path d="M137.844172 54.722200
L137.748934 54.769819
" />
<path d="M137.748934 54.769819
L137.558458 54.769819
" />
<path d="M137.558458 54.769819
L137.463220 54.722200
" />
<path d="M137.463220 54.722200
L137.415601 54.674580
" />
<path d="M137.415601 54.674580
L137.367982 54.579342
" />
<path d="M137.367982 54.579342
L137.367982 53.769819
" />
</g><text x="83.100000" y="78.530000"
transform="scale(-1 1) translate(-166.200000 0)"
textLength="13.154764" font-size="1.333333" lengthAdjust="spacingAndGlyphs"
text-anchor="start" opacity="0">Open Pedalboard</text>
<g class="stroked-text"><desc>Open Pedalboard</desc>
<path d="M82.572744 77.399819
L82.382268 77.399819
" />
<path d="M82.382268 77.399819
L82.287030 77.447438
" />
<path d="M82.287030 77.447438
L82.191792 77.542676
" />
<path d="M82.191792 77.542676
L82.144173 77.733152
" />
<path d="M82.144173 77.733152
L82.144173 78.066485
" />
<path d="M82.144173 78.066485
L82.191792 78.256961
" />
<path d="M82.191792 78.256961
L82.287030 78.352200
" />
<path d="M82.287030 78.352200
L82.382268 78.399819
" />
<path d="M82.382268 78.399819
L82.572744 78.399819
" />
<path d="M82.572744 78.399819
L82.667982 78.352200
" />
<path d="M82.667982 78.352200
L82.763220 78.256961
" />
<path d="M82.763220 78.256961
L82.810839 78.066485
" />
<path d="M82.810839 78.066485
L82.810839 77.733152
" />
<path d="M82.810839 77.733152
L82.763220 77.542676
" />
<path d="M82.763220 77.542676
L82.667982 77.447438
" />
<path d="M82.667982 77.447438
L82.572744 77.399819
" />
<path d="M81.715601 77.733152
L81.715601 78.733152
" />
<path d="M81.715601 77.780771
L81.620363 77.733152
" />
<path d="M81.620363 77.733152
L81.429887 77.733152
" />
<path d="M81.429887 77.733152
L81.334649 77.780771
" />
<path d="M81.334649 77.780771
L81.287030 77.828390
" />
<path d="M81.287030 77.828390
L81.239411 77.923628
" />
<path d="M81.239411 77.923628
L81.239411 78.209342
" />
<path d="M81.239411 78.209342
L81.287030 78.304580
" />
<path d="M81.287030 78.304580
L81.334649 78.352200
" />
<path d="M81.334649 78.352200
L81.429887 78.399819
" />
<path d="M81.429887 78.399819
L81.620363 78.399819
" />
<path d="M81.620363 78.399819
L81.715601 78.352200
" />
<path d="M80.429887 78.352200
L80.525125 78.399819
" />
<path d="M80.525125 78.399819
L80.715601 78.399819
" />
<path d="M80.715601 78.399819
L80.810839 78.352200
" />
<path d="M80.810839 78.352200
L80.858458 78.256961
" />
<path d="M80.858458 78.256961
L80.858458 77.876009
" />
<path d="M80.858458 77.876009
L80.810839 77.780771
" />
<path d="M80.810839 77.780771
L80.715601 77.733152
" />
<path d="M80.715601 77.733152
L80.525125 77.733152
" />
<path d="M80.525125 77.733152
L80.429887 77.780771
" />
<path d="M80.429887 77.780771
L80.382268 77.876009
" />
<path d="M80.382268 77.876009
L80.382268 77.971247
" />
<path d="M80.382268 77.971247
L80.858458 78.066485
" />
<path d="M79.953696 77.733152
L79.953696 78.399819
" />
<path d="M79.953696 77.828390
L79.906077 77.780771
" />
<path d="M79.906077 77.780771
L79.810839 77.733152
" />
<path d="M79.810839 77.733152
L79.667982 77.733152
" />
<path d="M79.667982 77.733152
L79.572744 77.780771
" />
<path d="M79.572744 77.780771
L79.525125 77.876009
" />
<path d="M79.525125 77.876009
L79.525125 78.399819
" />
<path d="M78.287029 78.399819
L78.287029 77.399819
" />
<path d="M78.287029 77.399819
L77.906077 77.399819
" />
<path d="M77.906077 77.399819
L77.810839 77.447438
" />
<path d="M77.810839 77.447438
L77.763220 77.495057
" />
<path d="M77.763220 77.495057
L77.715601 77.590295
" />
<path d="M77.715601 77.590295
L77.715601 77.733152
" />
<path d="M77.715601 77.733152
L77.763220 77.828390
" />
<path d="M77.763220 77.828390
L77.810839 77.876009
" />
<path d="M77.810839 77.876009
L77.906077 77.923628
" />
<path d="M77.906077 77.923628
L78.287029 77.923628
" />
<path d="M76.906077 78.352200
L77.001315 78.399819
" />
<path d="M77.001315 78.399819
L77.191791 78.399819
" />
<path d="M77.191791 78.399819
L77.287029 78.352200
" />
<path d="M77.287029 78.352200
L77.334648 78.256961
" />
<path d="M77.334648 78.256961
L77.334648 77.876009
" />
<path d="M77.334648 77.876009
L77.287029 77.780771
" />
<path d="M77.287029 77.780771
L77.191791 77.733152
" />
<path d="M77.191791 77.733152
L77.001315 77.733152
" />
<path d="M77.001315 77.733152
L76.906077 77.780771
" />
<path d="M76.906077 77.780771
L76.858458 77.876009
" />
<path d="M76.858458 77.876009
L76.858458 77.971247
" />
<path d="M76.858458 77.971247
L77.334648 78.066485
" />
<path d="M76.001315 78.399819
L76.001315 77.399819
" />
<path d="M76.001315 78.352200
L76.096553 78.399819
" />
<path d="M76.096553 78.399819
L76.287029 78.399819
" />
<path d="M76.287029 78.399819
L76.382267 78.352200
" />
<path d="M76.382267 78.352200
L76.429886 78.304580
" />
<path d="M76.429886 78.304580
L76.477505 78.209342
" />
<path d="M76.477505 78.209342
L76.477505 77.923628
" />
<path d="M76.477505 77.923628
L76.429886 77.828390
" />
<path d="M76.429886 77.828390
L76.382267 77.780771
" />
<path d="M76.382267 77.780771
L76.287029 77.733152
" />
<path d="M76.287029 77.733152
L76.096553 77.733152
" />
<path d="M76.096553 77.733152
L76.001315 77.780771
" />
<path d="M75.096553 78.399819
L75.096553 77.876009
" />
<path d="M75.096553 77.876009
L75.144172 77.780771
" />
<path d="M75.144172 77.780771
L75.239410 77.733152
" />
<path d="M75.239410 77.733152
L75.429886 77.733152
" />
<path d="M75.429886 77.733152
L75.525124 77.780771
" />
<path d="M75.096553 78.352200
L75.191791 78.399819
" />
<path d="M75.191791 78.399819
L75.429886 78.399819
" />
<path d="M75.429886 78.399819
L75.525124 78.352200
" />
<path d="M75.525124 78.352200
L75.572743 78.256961
" />
<path d="M75.572743 78.256961
L75.572743 78.161723
" />
<path d="M75.572743 78.161723
L75.525124 78.066485
" />
<path d="M75.525124 78.066485
L75.429886 78.018866
" />
<path d="M75.429886 78.018866
L75.191791 78.018866
" />
<path d="M75.191791 78.018866
L75.096553 77.971247
" />
<path d="M74.477505 78.399819
L74.572743 78.352200
" />
<path d="M74.572743 78.352200
L74.620362 78.256961
" />
<path d="M74.620362 78.256961
L74.620362 77.399819
" />
<path d="M74.096552 78.399819
L74.096552 77.399819
" />
<path d="M74.096552 77.780771
L74.001314 77.733152
" />
<path d="M74.001314 77.733152
L73.810838 77.733152
" />
<path d="M73.810838 77.733152
L73.715600 77.780771
" />
<path d="M73.715600 77.780771
L73.667981 77.828390
" />
<path d="M73.667981 77.828390
L73.620362 77.923628
" />
<path d="M73.620362 77.923628
L73.620362 78.209342
" />
<path d="M73.620362 78.209342
L73.667981 78.304580
" />
<path d="M73.667981 78.304580
L73.715600 78.352200
" />
<path d="M73.715600 78.352200
L73.810838 78.399819
" />
<path d="M73.810838 78.399819
L74.001314 78.399819
" />
<path d="M74.001314 78.399819
L74.096552 78.352200
" />
<path d="M73.048933 78.399819
L73.144171 78.352200
" />
<path d="M73.144171 78.352200
L73.191790 78.304580
" />
<path d="M73.191790 78.304580
L73.239409 78.209342
" />
<path d="M73.239409 78.209342
L73.239409 77.923628
" />
<path d="M73.239409 77.923628
L73.191790 77.828390
" />
<path d="M73.191790 77.828390
L73.144171 77.780771
" />
<path d="M73.144171 77.780771
L73.048933 77.733152
" />
<path d="M73.048933 77.733152
L72.906076 77.733152
" />
<path d="M72.906076 77.733152
L72.810838 77.780771
" />
<path d="M72.810838 77.780771
L72.763219 77.828390
" />
<path d="M72.763219 77.828390
L72.715600 77.923628
" />
<path d="M72.715600 77.923628
L72.715600 78.209342
" />
<path d="M72.715600 78.209342
L72.763219 78.304580
" />
<path d="M72.763219 78.304580
L72.810838 78.352200
" />
<path d="M72.810838 78.352200
L72.906076 78.399819
" />
<path d="M72.906076 78.399819
L73.048933 78.399819
" />
<path d="M71.858457 78.399819
L71.858457 77.876009
" />
<path d="M71.858457 77.876009
L71.906076 77.780771
" />
<path d="M71.906076 77.780771
L72.001314 77.733152
" />
<path d="M72.001314 77.733152
L72.191790 77.733152
" />
<path d="M72.191790 77.733152
L72.287028 77.780771
" />
<path d="M71.858457 78.352200
L71.953695 78.399819
" />
<path d="M71.953695 78.399819
L72.191790 78.399819
" />
<path d="M72.191790 78.399819
L72.287028 78.352200
" />
<path d="M72.287028 78.352200
L72.334647 78.256961
" />
<path d="M72.334647 78.256961
L72.334647 78.161723
" />
<path d="M72.334647 78.161723
L72.287028 78.066485
" />
<path d="M72.287028 78.066485
L72.191790 78.018866
" />
<path d="M72.191790 78.018866
L71.953695 78.018866
" />
<path d="M71.953695 78.018866
L71.858457 77.971247
" />
<path d="M71.382266 78.399819
L71.382266 77.733152
" />
<path d="M71.382266 77.923628
L71.334647 77.828390
" />
<path d="M71.334647 77.828390
L71.287028 77.780771
" />
<path d="M71.287028 77.780771
L71.191790 77.733152
" />
<path d="M71.191790 77.733152
L71.096552 77.733152
" />
<path d="M70.334647 78.399819
L70.334647 77.399819
" />
<path d="M70.334647 78.352200
L70.429885 78.399819
" />
<path d="M70.429885 78.399819
L70.620361 78.399819
" />
<path d="M70.620361 78.399819
L70.715599 78.352200
" />
<path d="M70.715599 78.352200
L70.763218 78.304580
" />
<path d="M70.763218 78.304580
L70.810837 78.209342
" />
<path d="M70.810837 78.209342
L70.810837 77.923628
" />
<path d="M70.810837 77.923628
L70.763218 77.828390
" />
<path d="M70.763218 77.828390
L70.715599 77.780771
" />
<path d="M70.715599 77.780771
L70.620361 77.733152
" />
<path d="M70.620361 77.733152
L70.429885 77.733152
" />
<path d="M70.429885 77.733152
L70.334647 77.780771
" />
</g><text x="83.100000" y="80.140000"
transform="scale(-1 1) translate(-166.200000 0)"
textLength="24.202383" font-size="1.333333" lengthAdjust="spacingAndGlyphs"
text-anchor="start" opacity="0">https://github.com/pedalboard</text>
<g class="stroked-text"><desc>https://github.com/pedalboard</desc>
<path d="M82.763220 80.009819
L82.763220 79.009819
" />
<path d="M82.334649 80.009819
L82.334649 79.486009
" />
<path d="M82.334649 79.486009
L82.382268 79.390771
" />
<path d="M82.382268 79.390771
L82.477506 79.343152
" />
<path d="M82.477506 79.343152
L82.620363 79.343152
" />
<path d="M82.620363 79.343152
L82.715601 79.390771
" />
<path d="M82.715601 79.390771
L82.763220 79.438390
" />
<path d="M82.001315 79.343152
L81.620363 79.343152
" />
<path d="M81.858458 79.009819
L81.858458 79.866961
" />
<path d="M81.858458 79.866961
L81.810839 79.962200
" />
<path d="M81.810839 79.962200
L81.715601 80.009819
" />
<path d="M81.715601 80.009819
L81.620363 80.009819
" />
<path d="M81.429886 79.343152
L81.048934 79.343152
" />
<path d="M81.287029 79.009819
L81.287029 79.866961
" />
<path d="M81.287029 79.866961
L81.239410 79.962200
" />
<path d="M81.239410 79.962200
L81.144172 80.009819
" />
<path d="M81.144172 80.009819
L81.048934 80.009819
" />
<path d="M80.715600 79.343152
L80.715600 80.343152
" />
<path d="M80.715600 79.390771
L80.620362 79.343152
" />
<path d="M80.620362 79.343152
L80.429886 79.343152
" />
<path d="M80.429886 79.343152
L80.334648 79.390771
" />
<path d="M80.334648 79.390771
L80.287029 79.438390
" />
<path d="M80.287029 79.438390
L80.239410 79.533628
" />
<path d="M80.239410 79.533628
L80.239410 79.819342
" />
<path d="M80.239410 79.819342
L80.287029 79.914580
" />
<path d="M80.287029 79.914580
L80.334648 79.962200
" />
<path d="M80.334648 79.962200
L80.429886 80.009819
" />
<path d="M80.429886 80.009819
L80.620362 80.009819
" />
<path d="M80.620362 80.009819
L80.715600 79.962200
" />
<path d="M79.858457 79.962200
L79.763219 80.009819
" />
<path d="M79.763219 80.009819
L79.572743 80.009819
" />
<path d="M79.572743 80.009819
L79.477505 79.962200
" />
<path d="M79.477505 79.962200
L79.429886 79.866961
" />
<path d="M79.429886 79.866961
L79.429886 79.819342
" />
<path d="M79.429886 79.819342
L79.477505 79.724104
" />
<path d="M79.477505 79.724104
L79.572743 79.676485
" />
<path d="M79.572743 79.676485
L79.715600 79.676485
" />
<path d="M79.715600 79.676485
L79.810838 79.628866
" />
<path d="M79.810838 79.628866
L79.858457 79.533628
" />
<path d="M79.858457 79.533628
L79.858457 79.486009
" />
<path d="M79.858457 79.486009
L79.810838 79.390771
" />
<path d="M79.810838 79.390771
L79.715600 79.343152
" />
<path d="M79.715600 79.343152
L79.572743 79.343152
" />
<path d="M79.572743 79.343152
L79.477505 79.390771
" />
<path d="M79.001314 79.914580
L78.953695 79.962200
" />
<path d="M78.953695 79.962200
L79.001314 80.009819
" />
<path d="M79.001314 80.009819
L79.048933 79.962200
" />
<path d="M79.048933 79.962200
L79.001314 79.914580
" />
<path d="M79.001314 79.914580
L79.001314 80.009819
" />
<path d="M79.001314 79.390771
L78.953695 79.438390
" />
<path d="M78.953695 79.438390
L79.001314 79.486009
" />
<path d="M79.001314 79.486009
L79.048933 79.438390
" />
<path d="M79.048933 79.438390
L79.001314 79.390771
" />
<path d="M79.001314 79.390771
L79.001314 79.486009
" />
<path d="M77.810839 78.962200
L78.667981 80.247914
" />
<path d="M76.763220 78.962200
L77.620362 80.247914
" />
<path d="M76.001315 79.343152
L76.001315 80.152676
" />
<path d="M76.001315 80.152676
L76.048934 80.247914
" />
<path d="M76.048934 80.247914
L76.096553 80.295533
" />
<path d="M76.096553 80.295533
L76.191791 80.343152
" />
<path d="M76.191791 80.343152
L76.334648 80.343152
" />
<path d="M76.334648 80.343152
L76.429886 80.295533
" />
<path d="M76.001315 79.962200
L76.096553 80.009819
" />
<path d="M76.096553 80.009819
L76.287029 80.009819
" />
<path d="M76.287029 80.009819
L76.382267 79.962200
" />
<path d="M76.382267 79.962200
L76.429886 79.914580
" />
<path d="M76.429886 79.914580
L76.477505 79.819342
" />
<path d="M76.477505 79.819342
L76.477505 79.533628
" />
<path d="M76.477505 79.533628
L76.429886 79.438390
" />
<path d="M76.429886 79.438390
L76.382267 79.390771
" />
<path d="M76.382267 79.390771
L76.287029 79.343152
" />
<path d="M76.287029 79.343152
L76.096553 79.343152
" />
<path d="M76.096553 79.343152
L76.001315 79.390771
" />
<path d="M75.525124 80.009819
L75.525124 79.343152
" />
<path d="M75.525124 79.009819
L75.572743 79.057438
" />
<path d="M75.572743 79.057438
L75.525124 79.105057
" />
<path d="M75.525124 79.105057
L75.477505 79.057438
" />
<path d="M75.477505 79.057438
L75.525124 79.009819
" />
<path d="M75.525124 79.009819
L75.525124 79.105057
" />
<path d="M75.191791 79.343152
L74.810839 79.343152
" />
<path d="M75.048934 79.009819
L75.048934 79.866961
" />
<path d="M75.048934 79.866961
L75.001315 79.962200
" />
<path d="M75.001315 79.962200
L74.906077 80.009819
" />
<path d="M74.906077 80.009819
L74.810839 80.009819
" />
<path d="M74.477505 80.009819
L74.477505 79.009819
" />
<path d="M74.048934 80.009819
L74.048934 79.486009
" />
<path d="M74.048934 79.486009
L74.096553 79.390771
" />
<path d="M74.096553 79.390771
L74.191791 79.343152
" />
<path d="M74.191791 79.343152
L74.334648 79.343152
" />
<path d="M74.334648 79.343152
L74.429886 79.390771
" />
<path d="M74.429886 79.390771
L74.477505 79.438390
" />
<path d="M73.144172 79.343152
L73.144172 80.009819
" />
<path d="M73.572743 79.343152
L73.572743 79.866961
" />
<path d="M73.572743 79.866961
L73.525124 79.962200
" />
<path d="M73.525124 79.962200
L73.429886 80.009819
" />
<path d="M73.429886 80.009819
L73.287029 80.009819
" />
<path d="M73.287029 80.009819
L73.191791 79.962200
" />
<path d="M73.191791 79.962200
L73.144172 79.914580
" />
<path d="M72.667981 80.009819
L72.667981 79.009819
" />
<path d="M72.667981 79.390771
L72.572743 79.343152
" />
<path d="M72.572743 79.343152
L72.382267 79.343152
" />
<path d="M72.382267 79.343152
L72.287029 79.390771
" />
<path d="M72.287029 79.390771
L72.239410 79.438390
" />
<path d="M72.239410 79.438390
L72.191791 79.533628
" />
<path d="M72.191791 79.533628
L72.191791 79.819342
" />
<path d="M72.191791 79.819342
L72.239410 79.914580
" />
<path d="M72.239410 79.914580
L72.287029 79.962200
" />
<path d="M72.287029 79.962200
L72.382267 80.009819
" />
<path d="M72.382267 80.009819
L72.572743 80.009819
" />
<path d="M72.572743 80.009819
L72.667981 79.962200
" />
<path d="M71.763219 79.914580
L71.715600 79.962200
" />
<path d="M71.715600 79.962200
L71.763219 80.009819
" />
<path d="M71.763219 80.009819
L71.810838 79.962200
" />
<path d="M71.810838 79.962200
L71.763219 79.914580
" />
<path d="M71.763219 79.914580
L71.763219 80.009819
" />
<path d="M70.858458 79.962200
L70.953696 80.009819
" />
<path d="M70.953696 80.009819
L71.144172 80.009819
" />
<path d="M71.144172 80.009819
L71.239410 79.962200
" />
<path d="M71.239410 79.962200
L71.287029 79.914580
" />
<path d="M71.287029 79.914580
L71.334648 79.819342
" />
<path d="M71.334648 79.819342
L71.334648 79.533628
" />
<path d="M71.334648 79.533628
L71.287029 79.438390
" />
<path d="M71.287029 79.438390
L71.239410 79.390771
" />
<path d="M71.239410 79.390771
L71.144172 79.343152
" />
<path d="M71.144172 79.343152
L70.953696 79.343152
" />
<path d="M70.953696 79.343152
L70.858458 79.390771
" />
<path d="M70.287029 80.009819
L70.382267 79.962200
" />
<path d="M70.382267 79.962200
L70.429886 79.914580
" />
<path d="M70.429886 79.914580
L70.477505 79.819342
" />
<path d="M70.477505 79.819342
L70.477505 79.533628
" />
<path d="M70.477505 79.533628
L70.429886 79.438390
" />
<path d="M70.429886 79.438390
L70.382267 79.390771
" />
<path d="M70.382267 79.390771
L70.287029 79.343152
" />
<path d="M70.287029 79.343152
L70.144172 79.343152
" />
<path d="M70.144172 79.343152
L70.048934 79.390771
" />
<path d="M70.048934 79.390771
L70.001315 79.438390
" />
<path d="M70.001315 79.438390
L69.953696 79.533628
" />
<path d="M69.953696 79.533628
L69.953696 79.819342
" />
<path d="M69.953696 79.819342
L70.001315 79.914580
" />
<path d="M70.001315 79.914580
L70.048934 79.962200
" />
<path d="M70.048934 79.962200
L70.144172 80.009819
" />
<path d="M70.144172 80.009819
L70.287029 80.009819
" />
<path d="M69.525124 80.009819
L69.525124 79.343152
" />
<path d="M69.525124 79.438390
L69.477505 79.390771
" />
<path d="M69.477505 79.390771
L69.382267 79.343152
" />
<path d="M69.382267 79.343152
L69.239410 79.343152
" />
<path d="M69.239410 79.343152
L69.144172 79.390771
" />
<path d="M69.144172 79.390771
L69.096553 79.486009
" />
<path d="M69.096553 79.486009
L69.096553 80.009819
" />
<path d="M69.096553 79.486009
L69.048934 79.390771
" />
<path d="M69.048934 79.390771
L68.953696 79.343152
" />
<path d="M68.953696 79.343152
L68.810839 79.343152
" />
<path d="M68.810839 79.343152
L68.715600 79.390771
" />
<path d="M68.715600 79.390771
L68.667981 79.486009
" />
<path d="M68.667981 79.486009
L68.667981 80.009819
" />
<path d="M67.477506 78.962200
L68.334648 80.247914
" />
<path d="M67.144172 79.343152
L67.144172 80.343152
" />
<path d="M67.144172 79.390771
L67.048934 79.343152
" />
<path d="M67.048934 79.343152
L66.858458 79.343152
" />
<path d="M66.858458 79.343152
L66.763220 79.390771
" />
<path d="M66.763220 79.390771
L66.715601 79.438390
" />
<path d="M66.715601 79.438390
L66.667982 79.533628
" />
<path d="M66.667982 79.533628
L66.667982 79.819342
" />
<path d="M66.667982 79.819342
L66.715601 79.914580
" />
<path d="M66.715601 79.914580
L66.763220 79.962200
" />
<path d="M66.763220 79.962200
L66.858458 80.009819
" />
<path d="M66.858458 80.009819
L67.048934 80.009819
" />
<path d="M67.048934 80.009819
L67.144172 79.962200
" />
<path d="M65.858458 79.962200
L65.953696 80.009819
" />
<path d="M65.953696 80.009819
L66.144172 80.009819
" />
<path d="M66.144172 80.009819
L66.239410 79.962200
" />
<path d="M66.239410 79.962200
L66.287029 79.866961
" />
<path d="M66.287029 79.866961
L66.287029 79.486009
" />
<path d="M66.287029 79.486009
L66.239410 79.390771
" />
<path d="M66.239410 79.390771
L66.144172 79.343152
" />
<path d="M66.144172 79.343152
L65.953696 79.343152
" />
<path d="M65.953696 79.343152
L65.858458 79.390771
" />
<path d="M65.858458 79.390771
L65.810839 79.486009
" />
<path d="M65.810839 79.486009
L65.810839 79.581247
" />
<path d="M65.810839 79.581247
L66.287029 79.676485
" />
<path d="M64.953696 80.009819
L64.953696 79.009819
" />
<path d="M64.953696 79.962200
L65.048934 80.009819
" />
<path d="M65.048934 80.009819
L65.239410 80.009819
" />
<path d="M65.239410 80.009819
L65.334648 79.962200
" />
<path d="M65.334648 79.962200
L65.382267 79.914580
" />
<path d="M65.382267 79.914580
L65.429886 79.819342
" />
<path d="M65.429886 79.819342
L65.429886 79.533628
" />
<path d="M65.429886 79.533628
L65.382267 79.438390
" />
<path d="M65.382267 79.438390
L65.334648 79.390771
" />
<path d="M65.334648 79.390771
L65.239410 79.343152
" />
<path d="M65.239410 79.343152
L65.048934 79.343152
" />
<path d="M65.048934 79.343152
L64.953696 79.390771
" />
<path d="M64.048934 80.009819
L64.048934 79.486009
" />
<path d="M64.048934 79.486009
L64.096553 79.390771
" />
<path d="M64.096553 79.390771
L64.191791 79.343152
" />
<path d="M64.191791 79.343152
L64.382267 79.343152
" />
<path d="M64.382267 79.343152
L64.477505 79.390771
" />
<path d="M64.048934 79.962200
L64.144172 80.009819
" />
<path d="M64.144172 80.009819
L64.382267 80.009819
" />
<path d="M64.382267 80.009819
L64.477505 79.962200
" />
<path d="M64.477505 79.962200
L64.525124 79.866961
" />
<path d="M64.525124 79.866961
L64.525124 79.771723
" />
<path d="M64.525124 79.771723
L64.477505 79.676485
" />
<path d="M64.477505 79.676485
L64.382267 79.628866
" />
<path d="M64.382267 79.628866
L64.144172 79.628866
" />
<path d="M64.144172 79.628866
L64.048934 79.581247
" />
<path d="M63.429886 80.009819
L63.525124 79.962200
" />
<path d="M63.525124 79.962200
L63.572743 79.866961
" />
<path d="M63.572743 79.866961
L63.572743 79.009819
" />
<path d="M63.048933 80.009819
L63.048933 79.009819
" />
<path d="M63.048933 79.390771
L62.953695 79.343152
" />
<path d="M62.953695 79.343152
L62.763219 79.343152
" />
<path d="M62.763219 79.343152
L62.667981 79.390771
" />
<path d="M62.667981 79.390771
L62.620362 79.438390
" />
<path d="M62.620362 79.438390
L62.572743 79.533628
" />
<path d="M62.572743 79.533628
L62.572743 79.819342
" />
<path d="M62.572743 79.819342
L62.620362 79.914580
" />
<path d="M62.620362 79.914580
L62.667981 79.962200
" />
<path d="M62.667981 79.962200
L62.763219 80.009819
" />
<path d="M62.763219 80.009819
L62.953695 80.009819
" />
<path d="M62.953695 80.009819
L63.048933 79.962200
" />
<path d="M62.001314 80.009819
L62.096552 79.962200
" />
<path d="M62.096552 79.962200
L62.144171 79.914580
" />
<path d="M62.144171 79.914580
L62.191790 79.819342
" />
<path d="M62.191790 79.819342
L62.191790 79.533628
" />
<path d="M62.191790 79.533628
L62.144171 79.438390
" />
<path d="M62.144171 79.438390
L62.096552 79.390771
" />
<path d="M62.096552 79.390771
L62.001314 79.343152
" />
<path d="M62.001314 79.343152
L61.858457 79.343152
" />
<path d="M61.858457 79.343152
L61.763219 79.390771
" />
<path d="M61.763219 79.390771
L61.715600 79.438390
" />
<path d="M61.715600 79.438390
L61.667981 79.533628
" />
<path d="M61.667981 79.533628
L61.667981 79.819342
" />
<path d="M61.667981 79.819342
L61.715600 79.914580
" />
<path d="M61.715600 79.914580
L61.763219 79.962200
" />
<path d="M61.763219 79.962200
L61.858457 80.009819
" />
<path d="M61.858457 80.009819
L62.001314 80.009819
" />
<path d="M60.810838 80.009819
L60.810838 79.486009
" />
<path d="M60.810838 79.486009
L60.858457 79.390771
" />
<path d="M60.858457 79.390771
L60.953695 79.343152
" />
<path d="M60.953695 79.343152
L61.144171 79.343152
" />
<path d="M61.144171 79.343152
L61.239409 79.390771
" />
<path d="M60.810838 79.962200
L60.906076 80.009819
" />
<path d="M60.906076 80.009819
L61.144171 80.009819
" />
<path d="M61.144171 80.009819
L61.239409 79.962200
" />
<path d="M61.239409 79.962200
L61.287028 79.866961
" />
<path d="M61.287028 79.866961
L61.287028 79.771723
" />
<path d="M61.287028 79.771723
L61.239409 79.676485
" />
<path d="M61.239409 79.676485
L61.144171 79.628866
" />
<path d="M61.144171 79.628866
L60.906076 79.628866
" />
<path d="M60.906076 79.628866
L60.810838 79.581247
" />
<path d="M60.334647 80.009819
L60.334647 79.343152
" />
<path d="M60.334647 79.533628
L60.287028 79.438390
" />
<path d="M60.287028 79.438390
L60.239409 79.390771
" />
<path d="M60.239409 79.390771
L60.144171 79.343152
" />
<path d="M60.144171 79.343152
L60.048933 79.343152
" />
<path d="M59.287028 80.009819
L59.287028 79.009819
" />
<path d="M59.287028 79.962200
L59.382266 80.009819
" />
<path d="M59.382266 80.009819
L59.572742 80.009819
" />
<path d="M59.572742 80.009819
L59.667980 79.962200
" />
<path d="M59.667980 79.962200
L59.715599 79.914580
" />
<path d="M59.715599 79.914580
L59.763218 79.819342
" />
<path d="M59.763218 79.819342
L59.763218 79.533628
" />
<path d="M59.763218 79.533628
L59.715599 79.438390
" />
<path d="M59.715599 79.438390
L59.667980 79.390771
" />
<path d="M59.667980 79.390771
L59.572742 79.343152
" />
<path d="M59.572742 79.343152
L59.382266 79.343152
" />
<path d="M59.382266 79.343152
L59.287028 79.390771
" />
</g><text x="83.100000" y="81.750000"
transform="scale(-1 1) translate(-166.200000 0)"
textLength="12.488094" font-size="1.333333" lengthAdjust="spacingAndGlyphs"
text-anchor="start" opacity="0">BCB: 3.0.0-RC1</text>
<g class="stroked-text"><desc>BCB: 3.0.0-RC1</desc>
<path d="M82.429887 81.096009
L82.287030 81.143628
" />
<path d="M82.287030 81.143628
L82.239411 81.191247
" />
<path d="M82.239411 81.191247
L82.191792 81.286485
" />
<path d="M82.191792 81.286485
L82.191792 81.429342
" />
<path d="M82.191792 81.429342
L82.239411 81.524580
" />
<path d="M82.239411 81.524580
L82.287030 81.572200
" />
<path d="M82.287030 81.572200
L82.382268 81.619819
" />
<path d="M82.382268 81.619819
L82.763220 81.619819
" />
<path d="M82.763220 81.619819
L82.763220 80.619819
" />
<path d="M82.763220 80.619819
L82.429887 80.619819
" />
<path d="M82.429887 80.619819
L82.334649 80.667438
" />
<path d="M82.334649 80.667438
L82.287030 80.715057
" />
<path d="M82.287030 80.715057
L82.239411 80.810295
" />
<path d="M82.239411 80.810295
L82.239411 80.905533
" />
<path d="M82.239411 80.905533
L82.287030 81.000771
" />
<path d="M82.287030 81.000771
L82.334649 81.048390
" />
<path d="M82.334649 81.048390
L82.429887 81.096009
" />
<path d="M82.429887 81.096009
L82.763220 81.096009
" />
<path d="M81.191792 81.524580
L81.239411 81.572200
" />
<path d="M81.239411 81.572200
L81.382268 81.619819
" />
<path d="M81.382268 81.619819
L81.477506 81.619819
" />
<path d="M81.477506 81.619819
L81.620363 81.572200
" />
<path d="M81.620363 81.572200
L81.715601 81.476961
" />
<path d="M81.715601 81.476961
L81.763220 81.381723
" />
<path d="M81.763220 81.381723
L81.810839 81.191247
" />
<path d="M81.810839 81.191247
L81.810839 81.048390
" />
<path d="M81.810839 81.048390
L81.763220 80.857914
" />
<path d="M81.763220 80.857914
L81.715601 80.762676
" />
<path d="M81.715601 80.762676
L81.620363 80.667438
" />
<path d="M81.620363 80.667438
L81.477506 80.619819
" />
<path d="M81.477506 80.619819
L81.382268 80.619819
" />
<path d="M81.382268 80.619819
L81.239411 80.667438
" />
<path d="M81.239411 80.667438
L81.191792 80.715057
" />
<path d="M80.429887 81.096009
L80.287030 81.143628
" />
<path d="M80.287030 81.143628
L80.239411 81.191247
" />
<path d="M80.239411 81.191247
L80.191792 81.286485
" />
<path d="M80.191792 81.286485
L80.191792 81.429342
" />
<path d="M80.191792 81.429342
L80.239411 81.524580
" />
<path d="M80.239411 81.524580
L80.287030 81.572200
" />
<path d="M80.287030 81.572200
L80.382268 81.619819
" />
<path d="M80.382268 81.619819
L80.763220 81.619819
" />
<path d="M80.763220 81.619819
L80.763220 80.619819
" />
<path d="M80.763220 80.619819
L80.429887 80.619819
" />
<path d="M80.429887 80.619819
L80.334649 80.667438
" />
<path d="M80.334649 80.667438
L80.287030 80.715057
" />
<path d="M80.287030 80.715057
L80.239411 80.810295
" />
<path d="M80.239411 80.810295
L80.239411 80.905533
" />
<path d="M80.239411 80.905533
L80.287030 81.000771
" />
<path d="M80.287030 81.000771
L80.334649 81.048390
" />
<path d="M80.334649 81.048390
L80.429887 81.096009
" />
<path d="M80.429887 81.096009
L80.763220 81.096009
" />
<path d="M79.763220 81.524580
L79.715601 81.572200
" />
<path d="M79.715601 81.572200
L79.763220 81.619819
" />
<path d="M79.763220 81.619819
L79.810839 81.572200
" />
<path d="M79.810839 81.572200
L79.763220 81.524580
" />
<path d="M79.763220 81.524580
L79.763220 81.619819
" />
<path d="M79.763220 81.000771
L79.715601 81.048390
" />
<path d="M79.715601 81.048390
L79.763220 81.096009
" />
<path d="M79.763220 81.096009
L79.810839 81.048390
" />
<path d="M79.810839 81.048390
L79.763220 81.000771
" />
<path d="M79.763220 81.000771
L79.763220 81.096009
" />
<path d="M78.620363 80.619819
L78.001316 80.619819
" />
<path d="M78.001316 80.619819
L78.334649 81.000771
" />
<path d="M78.334649 81.000771
L78.191792 81.000771
" />
<path d="M78.191792 81.000771
L78.096554 81.048390
" />
<path d="M78.096554 81.048390
L78.048935 81.096009
" />
<path d="M78.048935 81.096009
L78.001316 81.191247
" />
<path d="M78.001316 81.191247
L78.001316 81.429342
" />
<path d="M78.001316 81.429342
L78.048935 81.524580
" />
<path d="M78.048935 81.524580
L78.096554 81.572200
" />
<path d="M78.096554 81.572200
L78.191792 81.619819
" />
<path d="M78.191792 81.619819
L78.477506 81.619819
" />
<path d="M78.477506 81.619819
L78.572744 81.572200
" />
<path d="M78.572744 81.572200
L78.620363 81.524580
" />
<path d="M77.572744 81.524580
L77.525125 81.572200
" />
<path d="M77.525125 81.572200
L77.572744 81.619819
" />
<path d="M77.572744 81.619819
L77.620363 81.572200
" />
<path d="M77.620363 81.572200
L77.572744 81.524580
" />
<path d="M77.572744 81.524580
L77.572744 81.619819
" />
<path d="M76.906078 80.619819
L76.810840 80.619819
" />
<path d="M76.810840 80.619819
L76.715602 80.667438
" />
<path d="M76.715602 80.667438
L76.667983 80.715057
" />
<path d="M76.667983 80.715057
L76.620364 80.810295
" />
<path d="M76.620364 80.810295
L76.572745 81.000771
" />
<path d="M76.572745 81.000771
L76.572745 81.238866
" />
<path d="M76.572745 81.238866
L76.620364 81.429342
" />
<path d="M76.620364 81.429342
L76.667983 81.524580
" />
<path d="M76.667983 81.524580
L76.715602 81.572200
" />
<path d="M76.715602 81.572200
L76.810840 81.619819
" />
<path d="M76.810840 81.619819
L76.906078 81.619819
" />
<path d="M76.906078 81.619819
L77.001316 81.572200
" />
<path d="M77.001316 81.572200
L77.048935 81.524580
" />
<path d="M77.048935 81.524580
L77.096554 81.429342
" />
<path d="M77.096554 81.429342
L77.144173 81.238866
" />
<path d="M77.144173 81.238866
L77.144173 81.000771
" />
<path d="M77.144173 81.000771
L77.096554 80.810295
" />
<path d="M77.096554 80.810295
L77.048935 80.715057
" />
<path d="M77.048935 80.715057
L77.001316 80.667438
" />
<path d="M77.001316 80.667438
L76.906078 80.619819
" />
<path d="M76.144173 81.524580
L76.096554 81.572200
" />
<path d="M76.096554 81.572200
L76.144173 81.619819
" />
<path d="M76.144173 81.619819
L76.191792 81.572200
" />
<path d="M76.191792 81.572200
L76.144173 81.524580
" />
<path d="M76.144173 81.524580
L76.144173 81.619819
" />
<path d="M75.477507 80.619819
L75.382269 80.619819
" />
<path d="M75.382269 80.619819
L75.287031 80.667438
" />
<path d="M75.287031 80.667438
L75.239412 80.715057
" />
<path d="M75.239412 80.715057
L75.191793 80.810295
" />
<path d="M75.191793 80.810295
L75.144174 81.000771
" />
<path d="M75.144174 81.000771
L75.144174 81.238866
" />
<path d="M75.144174 81.238866
L75.191793 81.429342
" />
<path d="M75.191793 81.429342
L75.239412 81.524580
" />
<path d="M75.239412 81.524580
L75.287031 81.572200
" />
<path d="M75.287031 81.572200
L75.382269 81.619819
" />
<path d="M75.382269 81.619819
L75.477507 81.619819
" />
<path d="M75.477507 81.619819
L75.572745 81.572200
" />
<path d="M75.572745 81.572200
L75.620364 81.524580
" />
<path d="M75.620364 81.524580
L75.667983 81.429342
" />
<path d="M75.667983 81.429342
L75.715602 81.238866
" />
<path d="M75.715602 81.238866
L75.715602 81.000771
" />
<path d="M75.715602 81.000771
L75.667983 80.810295
" />
<path d="M75.667983 80.810295
L75.620364 80.715057
" />
<path d="M75.620364 80.715057
L75.572745 80.667438
" />
<path d="M75.572745 80.667438
L75.477507 80.619819
" />
<path d="M74.715602 81.238866
L73.953698 81.238866
" />
<path d="M72.906079 81.619819
L73.239412 81.143628
" />
<path d="M73.477507 81.619819
L73.477507 80.619819
" />
<path d="M73.477507 80.619819
L73.096555 80.619819
" />
<path d="M73.096555 80.619819
L73.001317 80.667438
" />
<path d="M73.001317 80.667438
L72.953698 80.715057
" />
<path d="M72.953698 80.715057
L72.906079 80.810295
" />
<path d="M72.906079 80.810295
L72.906079 80.953152
" />
<path d="M72.906079 80.953152
L72.953698 81.048390
" />
<path d="M72.953698 81.048390
L73.001317 81.096009
" />
<path d="M73.001317 81.096009
L73.096555 81.143628
" />
<path d="M73.096555 81.143628
L73.477507 81.143628
" />
<path d="M71.906079 81.524580
L71.953698 81.572200
" />
<path d="M71.953698 81.572200
L72.096555 81.619819
" />
<path d="M72.096555 81.619819
L72.191793 81.619819
" />
<path d="M72.191793 81.619819
L72.334650 81.572200
" />
<path d="M72.334650 81.572200
L72.429888 81.476961
" />
<path d="M72.429888 81.476961
L72.477507 81.381723
" />
<path d="M72.477507 81.381723
L72.525126 81.191247
" />
<path d="M72.525126 81.191247
L72.525126 81.048390
" />
<path d="M72.525126 81.048390
L72.477507 80.857914
" />
<path d="M72.477507 80.857914
L72.429888 80.762676
" />
<path d="M72.429888 80.762676
L72.334650 80.667438
" />
<path d="M72.334650 80.667438
L72.191793 80.619819
" />
<path d="M72.191793 80.619819
L72.096555 80.619819
" />
<path d="M72.096555 80.619819
L71.953698 80.667438
" />
<path d="M71.953698 80.667438
L71.906079 80.715057
" />
<path d="M70.953698 81.619819
L71.525126 81.619819
" />
<path d="M71.239412 81.619819
L71.239412 80.619819
" />
<path d="M71.239412 80.619819
L71.334650 80.762676
" />
<path d="M71.334650 80.762676
L71.429888 80.857914
" />
<path d="M71.429888 80.857914
L71.525126 80.905533
" />
</g><g transform="rotate(90.000000 38.000000 123.000000)">
<text x="38.000000" y="123.000000"
transform="scale(-1 1) translate(-76.000000 0)"
textLength="4.059524" font-size="1.333333" lengthAdjust="spacingAndGlyphs"
text-anchor="start" opacity="0">+5V </text>
</g>
<g class="stroked-text"><desc>+5V </desc>
<path d="M38.511133 122.663220
L38.511133 121.901316
" />
<path d="M38.130180 122.282268
L38.892085 122.282268
" />
<path d="M39.130180 120.948935
L39.130180 121.425125
" />
<path d="M39.130180 121.425125
L38.653990 121.472744
" />
<path d="M38.653990 121.472744
L38.701609 121.425125
" />
<path d="M38.701609 121.425125
L38.749228 121.329887
" />
<path d="M38.749228 121.329887
L38.749228 121.091792
" />
<path d="M38.749228 121.091792
L38.701609 120.996554
" />
<path d="M38.701609 120.996554
L38.653990 120.948935
" />
<path d="M38.653990 120.948935
L38.558752 120.901316
" />
<path d="M38.558752 120.901316
L38.320657 120.901316
" />
<path d="M38.320657 120.901316
L38.225419 120.948935
" />
<path d="M38.225419 120.948935
L38.177800 120.996554
" />
<path d="M38.177800 120.996554
L38.130180 121.091792
" />
<path d="M38.130180 121.091792
L38.130180 121.329887
" />
<path d="M38.130180 121.329887
L38.177800 121.425125
" />
<path d="M38.177800 121.425125
L38.225419 121.472744
" />
<path d="M39.130180 120.615601
L38.130180 120.282268
" />
<path d="M38.130180 120.282268
L39.130180 119.948935
" />
</g><text x="57.000000" y="25.000000"
transform="scale(-1 1) translate(-114.000000 0)"
textLength="4.792858" font-size="2.000000" lengthAdjust="spacingAndGlyphs"
text-anchor="start" opacity="0">MIDI</text>
<g class="stroked-text"><desc>MIDI</desc>
<path d="M56.544173 24.808628
L56.544173 23.308628
" />
<path d="M56.544173 23.308628
L56.044173 24.380057
" />
<path d="M56.044173 24.380057
L55.544173 23.308628
" />
<path d="M55.544173 23.308628
L55.544173 24.808628
" />
<path d="M54.829887 24.808628
L54.829887 23.308628
" />
<path d="M54.115601 24.808628
L54.115601 23.308628
" />
<path d="M54.115601 23.308628
L53.758458 23.308628
" />
<path d="M53.758458 23.308628
L53.544172 23.380057
" />
<path d="M53.544172 23.380057
L53.401315 23.522914
" />
<path d="M53.401315 23.522914
L53.329886 23.665771
" />
<path d="M53.329886 23.665771
L53.258458 23.951485
" />
<path d="M53.258458 23.951485
L53.258458 24.165771
" />
<path d="M53.258458 24.165771
L53.329886 24.451485
" />
<path d="M53.329886 24.451485
L53.401315 24.594342
" />
<path d="M53.401315 24.594342
L53.544172 24.737200
" />
<path d="M53.544172 24.737200
L53.758458 24.808628
" />
<path d="M53.758458 24.808628
L54.115601 24.808628
" />
<path d="M52.615601 24.808628
L52.615601 23.308628
" />
</g><text x="151.998400" y="60.690800"
transform="scale(-1 1) translate(-303.996800 0)"
textLength="1.630952" font-size="1.333333" lengthAdjust="spacingAndGlyphs"
text-anchor="start" opacity="0">in</text>
<g class="stroked-text"><desc>in</desc>
<path d="M151.661620 60.560619
L151.661620 59.893952
" />
<path d="M151.661620 59.560619
L151.709239 59.608238
" />
<path d="M151.709239 59.608238
L151.661620 59.655857
" />
<path d="M151.661620 59.655857
L151.614001 59.608238
" />
<path d="M151.614001 59.608238
L151.661620 59.560619
" />
<path d="M151.661620 59.560619
L151.661620 59.655857
" />
<path d="M151.185430 59.893952
L151.185430 60.560619
" />
<path d="M151.185430 59.989190
L151.137811 59.941571
" />
<path d="M151.137811 59.941571
L151.042573 59.893952
" />
<path d="M151.042573 59.893952
L150.899716 59.893952
" />
<path d="M150.899716 59.893952
L150.804478 59.941571
" />
<path d="M150.804478 59.941571
L150.756859 60.036809
" />
<path d="M150.756859 60.036809
L150.756859 60.560619
" />
</g><text x="53.000000" y="130.000000"
transform="scale(-1 1) translate(-106.000000 0)"
textLength="6.583334" font-size="1.333333" lengthAdjust="spacingAndGlyphs"
text-anchor="start" opacity="0">LED OUT</text>
<g class="stroked-text"><desc>LED OUT</desc>
<path d="M52.187030 129.869819
L52.663220 129.869819
" />
<path d="M52.663220 129.869819
L52.663220 128.869819
" />
<path d="M51.853696 129.346009
L51.520363 129.346009
" />
<path d="M51.377506 129.869819
L51.853696 129.869819
" />
<path d="M51.853696 129.869819
L51.853696 128.869819
" />
<path d="M51.853696 128.869819
L51.377506 128.869819
" />
<path d="M50.948934 129.869819
L50.948934 128.869819
" />
<path d="M50.948934 128.869819
L50.710839 128.869819
" />
<path d="M50.710839 128.869819
L50.567982 128.917438
" />
<path d="M50.567982 128.917438
L50.472744 129.012676
" />
<path d="M50.472744 129.012676
L50.425125 129.107914
" />
<path d="M50.425125 129.107914
L50.377506 129.298390
" />
<path d="M50.377506 129.298390
L50.377506 129.441247
" />
<path d="M50.377506 129.441247
L50.425125 129.631723
" />
<path d="M50.425125 129.631723
L50.472744 129.726961
" />
<path d="M50.472744 129.726961
L50.567982 129.822200
" />
<path d="M50.567982 129.822200
L50.710839 129.869819
" />
<path d="M50.710839 129.869819
L50.948934 129.869819
" />
<path d="M48.996553 128.869819
L48.806077 128.869819
" />
<path d="M48.806077 128.869819
L48.710839 128.917438
" />
<path d="M48.710839 128.917438
L48.615601 129.012676
" />
<path d="M48.615601 129.012676
L48.567982 129.203152
" />
<path d="M48.567982 129.203152
L48.567982 129.536485
" />
<path d="M48.567982 129.536485
L48.615601 129.726961
" />
<path d="M48.615601 129.726961
L48.710839 129.822200
" />
<path d="M48.710839 129.822200
L48.806077 129.869819
" />
<path d="M48.806077 129.869819
L48.996553 129.869819
" />
<path d="M48.996553 129.869819
L49.091791 129.822200
" />
<path d="M49.091791 129.822200
L49.187029 129.726961
" />
<path d="M49.187029 129.726961
L49.234648 129.536485
" />
<path d="M49.234648 129.536485
L49.234648 129.203152
" />
<path d="M49.234648 129.203152
L49.187029 129.012676
" />
<path d="M49.187029 129.012676
L49.091791 128.917438
" />
<path d="M49.091791 128.917438
L48.996553 128.869819
" />
<path d="M48.139410 128.869819
L48.139410 129.679342
" />
<path d="M48.139410 129.679342
L48.091791 129.774580
" />
<path d="M48.091791 129.774580
L48.044172 129.822200
" />
<path d="M48.044172 129.822200
L47.948934 129.869819
" />
<path d="M47.948934 129.869819
L47.758458 129.869819
" />
<path d="M47.758458 129.869819
L47.663220 129.822200
" />
<path d="M47.663220 129.822200
L47.615601 129.774580
" />
<path d="M47.615601 129.774580
L47.567982 129.679342
" />
<path d="M47.567982 129.679342
L47.567982 128.869819
" />
<path d="M47.234648 128.869819
L46.663220 128.869819
" />
<path d="M46.948934 129.869819
L46.948934 128.869819
" />
</g><g transform="rotate(-90.000000 182.778400 36.779200)">
<text x="182.778400" y="36.779200"
transform="scale(-1 1) translate(-365.556800 0)"
textLength="1.773809" font-size="1.333333" lengthAdjust="spacingAndGlyphs"
text-anchor="start" opacity="0">IN</text>
</g>
<g class="stroked-text"><desc>IN</desc>
<path d="M182.648219 37.115979
L181.648219 37.115979
" />
<path d="M182.648219 37.592169
L181.648219 37.592169
" />
<path d="M181.648219 37.592169
L182.648219 38.163597
" />
<path d="M182.648219 38.163597
L181.648219 38.163597
" />
</g><text x="56.000000" y="37.000000"
transform="scale(-1 1) translate(-112.000000 0)"
textLength="3.107143" font-size="1.333333" lengthAdjust="spacingAndGlyphs"
text-anchor="start" opacity="0">OUT</text>
<g class="stroked-text"><desc>OUT</desc>
<path d="M55.472744 35.869819
L55.282268 35.869819
" />
<path d="M55.282268 35.869819
L55.187030 35.917438
" />
<path d="M55.187030 35.917438
L55.091792 36.012676
" />
<path d="M55.091792 36.012676
L55.044173 36.203152
" />
<path d="M55.044173 36.203152
L55.044173 36.536485
" />
<path d="M55.044173 36.536485
L55.091792 36.726961
" />
<path d="M55.091792 36.726961
L55.187030 36.822200
" />
<path d="M55.187030 36.822200
L55.282268 36.869819
" />
<path d="M55.282268 36.869819
L55.472744 36.869819
" />
<path d="M55.472744 36.869819
L55.567982 36.822200
" />
<path d="M55.567982 36.822200
L55.663220 36.726961
" />
<path d="M55.663220 36.726961
L55.710839 36.536485
" />
<path d="M55.710839 36.536485
L55.710839 36.203152
" />
<path d="M55.710839 36.203152
L55.663220 36.012676
" />
<path d="M55.663220 36.012676
L55.567982 35.917438
" />
<path d="M55.567982 35.917438
L55.472744 35.869819
" />
<path d="M54.615601 35.869819
L54.615601 36.679342
" />
<path d="M54.615601 36.679342
L54.567982 36.774580
" />
<path d="M54.567982 36.774580
L54.520363 36.822200
" />
<path d="M54.520363 36.822200
L54.425125 36.869819
" />
<path d="M54.425125 36.869819
L54.234649 36.869819
" />
<path d="M54.234649 36.869819
L54.139411 36.822200
" />
<path d="M54.139411 36.822200
L54.091792 36.774580
" />
<path d="M54.091792 36.774580
L54.044173 36.679342
" />
<path d="M54.044173 36.679342
L54.044173 35.869819
" />
<path d="M53.710839 35.869819
L53.139411 35.869819
" />
<path d="M53.425125 36.869819
L53.425125 35.869819
" />
</g><g transform="rotate(-90.000000 176.326800 36.677600)">
<text x="176.326800" y="36.677600"
transform="scale(-1 1) translate(-352.653600 0)"
textLength="3.869048" font-size="1.333333" lengthAdjust="spacingAndGlyphs"
text-anchor="start" opacity="0">VREF</text>
</g>
<g class="stroked-text"><desc>VREF</desc>
<path d="M175.196619 36.871522
L176.196619 37.204855
" />
<path d="M176.196619 37.204855
L175.196619 37.538188
" />
<path d="M176.196619 38.442950
L175.720428 38.109617
" />
<path d="M176.196619 37.871522
L175.196619 37.871522
" />
<path d="M175.196619 37.871522
L175.196619 38.252474
" />
<path d="M175.196619 38.252474
L175.244238 38.347712
" />
<path d="M175.244238 38.347712
L175.291857 38.395331
" />
<path d="M175.291857 38.395331
L175.387095 38.442950
" />
<path d="M175.387095 38.442950
L175.529952 38.442950
" />
<path d="M175.529952 38.442950
L175.625190 38.395331
" />
<path d="M175.625190 38.395331
L175.672809 38.347712
" />
<path d="M175.672809 38.347712
L175.720428 38.252474
" />
<path d="M175.720428 38.252474
L175.720428 37.871522
" />
<path d="M175.672809 38.871522
L175.672809 39.204855
" />
<path d="M176.196619 39.347712
L176.196619 38.871522
" />
<path d="M176.196619 38.871522
L175.196619 38.871522
" />
<path d="M175.196619 38.871522
L175.196619 39.347712
" />
<path d="M175.672809 40.109617
L175.672809 39.776284
" />
<path d="M176.196619 39.776284
L175.196619 39.776284
" />
<path d="M175.196619 39.776284
L175.196619 40.252474
" />
</g><text x="152.100000" y="58.100000"
transform="scale(-1 1) translate(-304.200000 0)"
textLength="2.630953" font-size="1.333333" lengthAdjust="spacingAndGlyphs"
text-anchor="start" opacity="0">out</text>
<g class="stroked-text"><desc>out</desc>
<path d="M151.620363 57.969819
L151.715601 57.922200
" />
<path d="M151.715601 57.922200
L151.763220 57.874580
" />
<path d="M151.763220 57.874580
L151.810839 57.779342
" />
<path d="M151.810839 57.779342
L151.810839 57.493628
" />
<path d="M151.810839 57.493628
L151.763220 57.398390
" />
<path d="M151.763220 57.398390
L151.715601 57.350771
" />
<path d="M151.715601 57.350771
L151.620363 57.303152
" />
<path d="M151.620363 57.303152
L151.477506 57.303152
" />
<path d="M151.477506 57.303152
L151.382268 57.350771
" />
<path d="M151.382268 57.350771
L151.334649 57.398390
" />
<path d="M151.334649 57.398390
L151.287030 57.493628
" />
<path d="M151.287030 57.493628
L151.287030 57.779342
" />
<path d="M151.287030 57.779342
L151.334649 57.874580
" />
<path d="M151.334649 57.874580
L151.382268 57.922200
" />
<path d="M151.382268 57.922200
L151.477506 57.969819
" />
<path d="M151.477506 57.969819
L151.620363 57.969819
" />
<path d="M150.429887 57.303152
L150.429887 57.969819
" />
<path d="M150.858458 57.303152
L150.858458 57.826961
" />
<path d="M150.858458 57.826961
L150.810839 57.922200
" />
<path d="M150.810839 57.922200
L150.715601 57.969819
" />
<path d="M150.715601 57.969819
L150.572744 57.969819
" />
<path d="M150.572744 57.969819
L150.477506 57.922200
" />
<path d="M150.477506 57.922200
L150.429887 57.874580
" />
<path d="M150.096553 57.303152
L149.715601 57.303152
" />
<path d="M149.953696 56.969819
L149.953696 57.826961
" />
<path d="M149.953696 57.826961
L149.906077 57.922200
" />
<path d="M149.906077 57.922200
L149.810839 57.969819
" />
<path d="M149.810839 57.969819
L149.715601 57.969819
" />
</g><text x="49.700000" y="110.100000"
transform="scale(-1 1) translate(-99.400000 0)"
textLength="1.964286" font-size="1.333333" lengthAdjust="spacingAndGlyphs"
text-anchor="middle" opacity="0">J7</text>
<g class="stroked-text"><desc>J7</desc>
<path d="M50.033333 109.054819
L50.033333 109.769104
" />
<path d="M50.033333 109.769104
L50.080952 109.911961
" />
<path d="M50.080952 109.911961
L50.176190 110.007200
" />
<path d="M50.176190 110.007200
L50.319047 110.054819
" />
<path d="M50.319047 110.054819
L50.414285 110.054819
" />
<path d="M49.652380 109.054819
L48.985714 109.054819
" />
<path d="M48.985714 109.054819
L49.414285 110.054819
" />
</g><text x="113.625000" y="100.610000"
transform="scale(-1 1) translate(-227.250000 0)"
textLength="1.964286" font-size="1.333333" lengthAdjust="spacingAndGlyphs"
text-anchor="middle" opacity="0">J6</text>
<g class="stroked-text"><desc>J6</desc>
<path d="M113.958333 99.564819
L113.958333 100.279104
" />
<path d="M113.958333 100.279104
L114.005952 100.421961
" />
<path d="M114.005952 100.421961
L114.101190 100.517200
" />
<path d="M114.101190 100.517200
L114.244047 100.564819
" />
<path d="M114.244047 100.564819
L114.339285 100.564819
" />
<path d="M113.053571 99.564819
L113.244047 99.564819
" />
<path d="M113.244047 99.564819
L113.339285 99.612438
" />
<path d="M113.339285 99.612438
L113.386904 99.660057
" />
<path d="M113.386904 99.660057
L113.482142 99.802914
" />
<path d="M113.482142 99.802914
L113.529761 99.993390
" />
<path d="M113.529761 99.993390
L113.529761 100.374342
" />
<path d="M113.529761 100.374342
L113.482142 100.469580
" />
<path d="M113.482142 100.469580
L113.434523 100.517200
" />
<path d="M113.434523 100.517200
L113.339285 100.564819
" />
<path d="M113.339285 100.564819
L113.148809 100.564819
" />
<path d="M113.148809 100.564819
L113.053571 100.517200
" />
<path d="M113.053571 100.517200
L113.005952 100.469580
" />
<path d="M113.005952 100.469580
L112.958333 100.374342
" />
<path d="M112.958333 100.374342
L112.958333 100.136247
" />
<path d="M112.958333 100.136247
L113.005952 100.041009
" />
<path d="M113.005952 100.041009
L113.053571 99.993390
" />
<path d="M113.053571 99.993390
L113.148809 99.945771
" />
<path d="M113.148809 99.945771
L113.339285 99.945771
" />
<path d="M113.339285 99.945771
L113.434523 99.993390
" />
<path d="M113.434523 99.993390
L113.482142 100.041009
" />
<path d="M113.482142 100.041009
L113.529761 100.136247
" />
</g><g transform="rotate(-90.000000 133.300000 57.200000)">
<text x="133.300000" y="57.700000"
transform="scale(-1 1) translate(-266.600000 0)"
textLength="2.916667" font-size="1.333333" lengthAdjust="spacingAndGlyphs"
text-anchor="middle" opacity="0">J14</text>
</g>
<g class="stroked-text"><desc>J14</desc>
<path d="M132.754819 56.390476
L133.469104 56.390476
" />
<path d="M133.469104 56.390476
L133.611961 56.342857
" />
<path d="M133.611961 56.342857
L133.707200 56.247619
" />
<path d="M133.707200 56.247619
L133.754819 56.104762
" />
<path d="M133.754819 56.104762
L133.754819 56.009524
" />
<path d="M133.754819 57.390476
L133.754819 56.819048
" />
<path d="M133.754819 57.104762
L132.754819 57.104762
" />
<path d="M132.754819 57.104762
L132.897676 57.009524
" />
<path d="M132.897676 57.009524
L132.992914 56.914286
" />
<path d="M132.992914 56.914286
L133.040533 56.819048
" />
<path d="M133.088152 58.247619
L133.754819 58.247619
" />
<path d="M132.707200 58.009524
L133.421485 57.771429
" />
<path d="M133.421485 57.771429
L133.421485 58.390476
" />
</g><text x="127.000000" y="46.440000"
transform="scale(-1 1) translate(-254.000000 0)"
textLength="1.964286" font-size="1.333333" lengthAdjust="spacingAndGlyphs"
text-anchor="middle" opacity="0">J5</text>
<g class="stroked-text"><desc>J5</desc>
<path d="M127.333333 45.394819
L127.333333 46.109104
" />
<path d="M127.333333 46.109104
L127.380952 46.251961
" />
<path d="M127.380952 46.251961
L127.476190 46.347200
" />
<path d="M127.476190 46.347200
L127.619047 46.394819
" />
<path d="M127.619047 46.394819
L127.714285 46.394819
" />
<path d="M126.380952 45.394819
L126.857142 45.394819
" />
<path d="M126.857142 45.394819
L126.904761 45.871009
" />
<path d="M126.904761 45.871009
L126.857142 45.823390
" />
<path d="M126.857142 45.823390
L126.761904 45.775771
" />
<path d="M126.761904 45.775771
L126.523809 45.775771
" />
<path d="M126.523809 45.775771
L126.428571 45.823390
" />
<path d="M126.428571 45.823390
L126.380952 45.871009
" />
<path d="M126.380952 45.871009
L126.333333 45.966247
" />
<path d="M126.333333 45.966247
L126.333333 46.204342
" />
<path d="M126.333333 46.204342
L126.380952 46.299580
" />
<path d="M126.380952 46.299580
L126.428571 46.347200
" />
<path d="M126.428571 46.347200
L126.523809 46.394819
" />
<path d="M126.523809 46.394819
L126.761904 46.394819
" />
<path d="M126.761904 46.394819
L126.857142 46.347200
" />
<path d="M126.857142 46.347200
L126.904761 46.299580
" />
</g><g transform="rotate(-90.000000 82.700000 74.900000)">
<text x="82.700000" y="75.400000"
transform="scale(-1 1) translate(-165.400000 0)"
textLength="2.964286" font-size="1.333333" lengthAdjust="spacingAndGlyphs"
text-anchor="middle" opacity="0">JP3</text>
</g>
<g class="stroked-text"><desc>JP3</desc>
<path d="M82.154819 74.066666
L82.869104 74.066666
" />
<path d="M82.869104 74.066666
L83.011961 74.019047
" />
<path d="M83.011961 74.019047
L83.107200 73.923809
" />
<path d="M83.107200 73.923809
L83.154819 73.780952
" />
<path d="M83.154819 73.780952
L83.154819 73.685714
" />
<path d="M83.154819 74.542857
L82.154819 74.542857
" />
<path d="M82.154819 74.542857
L82.154819 74.923809
" />
<path d="M82.154819 74.923809
L82.202438 75.019047
" />
<path d="M82.202438 75.019047
L82.250057 75.066666
" />
<path d="M82.250057 75.066666
L82.345295 75.114285
" />
<path d="M82.345295 75.114285
L82.488152 75.114285
" />
<path d="M82.488152 75.114285
L82.583390 75.066666
" />
<path d="M82.583390 75.066666
L82.631009 75.019047
" />
<path d="M82.631009 75.019047
L82.678628 74.923809
" />
<path d="M82.678628 74.923809
L82.678628 74.542857
" />
<path d="M82.154819 75.447619
L82.154819 76.066666
" />
<path d="M82.154819 76.066666
L82.535771 75.733333
" />
<path d="M82.535771 75.733333
L82.535771 75.876190
" />
<path d="M82.535771 75.876190
L82.583390 75.971428
" />
<path d="M82.583390 75.971428
L82.631009 76.019047
" />
<path d="M82.631009 76.019047
L82.726247 76.066666
" />
<path d="M82.726247 76.066666
L82.964342 76.066666
" />
<path d="M82.964342 76.066666
L83.059580 76.019047
" />
<path d="M83.059580 76.019047
L83.107200 75.971428
" />
<path d="M83.107200 75.971428
L83.154819 75.876190
" />
<path d="M83.154819 75.876190
L83.154819 75.590476
" />
<path d="M83.154819 75.590476
L83.107200 75.495238
" />
<path d="M83.107200 75.495238
L83.059580 75.447619
" />
</g><text x="75.488800" y="40.835200"
transform="scale(-1 1) translate(-150.977600 0)"
textLength="2.250000" font-size="1.333333" lengthAdjust="spacingAndGlyphs"
text-anchor="middle" opacity="0">U1</text>
<g class="stroked-text"><desc>U1</desc>
<path d="M76.250704 39.790019
L76.250704 40.599542
" />
<path d="M76.250704 40.599542
L76.203085 40.694780
" />
<path d="M76.203085 40.694780
L76.155466 40.742400
" />
<path d="M76.155466 40.742400
L76.060228 40.790019
" />
<path d="M76.060228 40.790019
L75.869752 40.790019
" />
<path d="M75.869752 40.790019
L75.774514 40.742400
" />
<path d="M75.774514 40.742400
L75.726895 40.694780
" />
<path d="M75.726895 40.694780
L75.679276 40.599542
" />
<path d="M75.679276 40.599542
L75.679276 39.790019
" />
<path d="M74.679276 40.790019
L75.250704 40.790019
" />
<path d="M74.964990 40.790019
L74.964990 39.790019
" />
<path d="M74.964990 39.790019
L75.060228 39.932876
" />
<path d="M75.060228 39.932876
L75.155466 40.028114
" />
<path d="M75.155466 40.028114
L75.250704 40.075733
" />
</g><text x="47.100000" y="25.425000"
transform="scale(-1 1) translate(-94.200000 0)"
textLength="2.916667" font-size="1.333333" lengthAdjust="spacingAndGlyphs"
text-anchor="middle" opacity="0">J24</text>
<g class="stroked-text"><desc>J24</desc>
<path d="M47.909523 24.379819
L47.909523 25.094104
" />
<path d="M47.909523 25.094104
L47.957142 25.236961
" />
<path d="M47.957142 25.236961
L48.052380 25.332200
" />
<path d="M48.052380 25.332200
L48.195237 25.379819
" />
<path d="M48.195237 25.379819
L48.290475 25.379819
" />
<path d="M47.480951 24.475057
L47.433332 24.427438
" />
<path d="M47.433332 24.427438
L47.338094 24.379819
" />
<path d="M47.338094 24.379819
L47.099999 24.379819
" />
<path d="M47.099999 24.379819
L47.004761 24.427438
" />
<path d="M47.004761 24.427438
L46.957142 24.475057
" />
<path d="M46.957142 24.475057
L46.909523 24.570295
" />
<path d="M46.909523 24.570295
L46.909523 24.665533
" />
<path d="M46.909523 24.665533
L46.957142 24.808390
" />
<path d="M46.957142 24.808390
L47.528570 25.379819
" />
<path d="M47.528570 25.379819
L46.909523 25.379819
" />
<path d="M46.052380 24.713152
L46.052380 25.379819
" />
<path d="M46.290475 24.332200
L46.528570 25.046485
" />
<path d="M46.528570 25.046485
L45.909523 25.046485
" />
</g><g transform="rotate(-90.000000 89.000000 74.900000)">
<text x="89.000000" y="75.400000"
transform="scale(-1 1) translate(-178.000000 0)"
textLength="2.964286" font-size="1.333333" lengthAdjust="spacingAndGlyphs"
text-anchor="middle" opacity="0">JP4</text>
</g>
<g class="stroked-text"><desc>JP4</desc>
<path d="M88.454819 74.066666
L89.169104 74.066666
" />
<path d="M89.169104 74.066666
L89.311961 74.019047
" />
<path d="M89.311961 74.019047
L89.407200 73.923809
" />
<path d="M89.407200 73.923809
L89.454819 73.780952
" />
<path d="M89.454819 73.780952
L89.454819 73.685714
" />
<path d="M89.454819 74.542857
L88.454819 74.542857
" />
<path d="M88.454819 74.542857
L88.454819 74.923809
" />
<path d="M88.454819 74.923809
L88.502438 75.019047
" />
<path d="M88.502438 75.019047
L88.550057 75.066666
" />
<path d="M88.550057 75.066666
L88.645295 75.114285
" />
<path d="M88.645295 75.114285
L88.788152 75.114285
" />
<path d="M88.788152 75.114285
L88.883390 75.066666
" />
<path d="M88.883390 75.066666
L88.931009 75.019047
" />
<path d="M88.931009 75.019047
L88.978628 74.923809
" />
<path d="M88.978628 74.923809
L88.978628 74.542857
" />
<path d="M88.788152 75.971428
L89.454819 75.971428
" />
<path d="M88.407200 75.733333
L89.121485 75.495238
" />
<path d="M89.121485 75.495238
L89.121485 76.114285
" />
</g><text x="47.000000" y="126.500000"
transform="scale(-1 1) translate(-94.000000 0)"
textLength="1.964286" font-size="1.333333" lengthAdjust="spacingAndGlyphs"
text-anchor="middle" opacity="0">J4</text>
<g class="stroked-text"><desc>J4</desc>
<path d="M47.333333 125.454819
L47.333333 126.169104
" />
<path d="M47.333333 126.169104
L47.380952 126.311961
" />
<path d="M47.380952 126.311961
L47.476190 126.407200
" />
<path d="M47.476190 126.407200
L47.619047 126.454819
" />
<path d="M47.619047 126.454819
L47.714285 126.454819
" />
<path d="M46.428571 125.788152
L46.428571 126.454819
" />
<path d="M46.666666 125.407200
L46.904761 126.121485
" />
<path d="M46.904761 126.121485
L46.285714 126.121485
" />
</g><text x="123.300000" y="69.000000"
transform="scale(-1 1) translate(-246.600000 0)"
textLength="1.964286" font-size="1.333333" lengthAdjust="spacingAndGlyphs"
text-anchor="middle" opacity="0">J8</text>
<g class="stroked-text"><desc>J8</desc>
<path d="M123.633333 67.954819
L123.633333 68.669104
" />
<path d="M123.633333 68.669104
L123.680952 68.811961
" />
<path d="M123.680952 68.811961
L123.776190 68.907200
" />
<path d="M123.776190 68.907200
L123.919047 68.954819
" />
<path d="M123.919047 68.954819
L124.014285 68.954819
" />
<path d="M123.014285 68.383390
L123.109523 68.335771
" />
<path d="M123.109523 68.335771
L123.157142 68.288152
" />
<path d="M123.157142 68.288152
L123.204761 68.192914
" />
<path d="M123.204761 68.192914
L123.204761 68.145295
" />
<path d="M123.204761 68.145295
L123.157142 68.050057
" />
<path d="M123.157142 68.050057
L123.109523 68.002438
" />
<path d="M123.109523 68.002438
L123.014285 67.954819
" />
<path d="M123.014285 67.954819
L122.823809 67.954819
" />
<path d="M122.823809 67.954819
L122.728571 68.002438
" />
<path d="M122.728571 68.002438
L122.680952 68.050057
" />
<path d="M122.680952 68.050057
L122.633333 68.145295
" />
<path d="M122.633333 68.145295
L122.633333 68.192914
" />
<path d="M122.633333 68.192914
L122.680952 68.288152
" />
<path d="M122.680952 68.288152
L122.728571 68.335771
" />
<path d="M122.728571 68.335771
L122.823809 68.383390
" />
<path d="M122.823809 68.383390
L123.014285 68.383390
" />
<path d="M123.014285 68.383390
L123.109523 68.431009
" />
<path d="M123.109523 68.431009
L123.157142 68.478628
" />
<path d="M123.157142 68.478628
L123.204761 68.573866
" />
<path d="M123.204761 68.573866
L123.204761 68.764342
" />
<path d="M123.204761 68.764342
L123.157142 68.859580
" />
<path d="M123.157142 68.859580
L123.109523 68.907200
" />
<path d="M123.109523 68.907200
L123.014285 68.954819
" />
<path d="M123.014285 68.954819
L122.823809 68.954819
" />
<path d="M122.823809 68.954819
L122.728571 68.907200
" />
<path d="M122.728571 68.907200
L122.680952 68.859580
" />
<path d="M122.680952 68.859580
L122.633333 68.764342
" />
<path d="M122.633333 68.764342
L122.633333 68.573866
" />
<path d="M122.633333 68.573866
L122.680952 68.478628
" />
<path d="M122.680952 68.478628
L122.728571 68.431009
" />
<path d="M122.728571 68.431009
L122.823809 68.383390
" />
</g><text x="47.100000" y="33.175000"
transform="scale(-1 1) translate(-94.200000 0)"
textLength="2.916667" font-size="1.333333" lengthAdjust="spacingAndGlyphs"
text-anchor="middle" opacity="0">J25</text>
<g class="stroked-text"><desc>J25</desc>
<path d="M47.909523 32.129819
L47.909523 32.844104
" />
<path d="M47.909523 32.844104
L47.957142 32.986961
" />
<path d="M47.957142 32.986961
L48.052380 33.082200
" />
<path d="M48.052380 33.082200
L48.195237 33.129819
" />
<path d="M48.195237 33.129819
L48.290475 33.129819
" />
<path d="M47.480951 32.225057
L47.433332 32.177438
" />
<path d="M47.433332 32.177438
L47.338094 32.129819
" />
<path d="M47.338094 32.129819
L47.099999 32.129819
" />
<path d="M47.099999 32.129819
L47.004761 32.177438
" />
<path d="M47.004761 32.177438
L46.957142 32.225057
" />
<path d="M46.957142 32.225057
L46.909523 32.320295
" />
<path d="M46.909523 32.320295
L46.909523 32.415533
" />
<path d="M46.909523 32.415533
L46.957142 32.558390
" />
<path d="M46.957142 32.558390
L47.528570 33.129819
" />
<path d="M47.528570 33.129819
L46.909523 33.129819
" />
<path d="M46.004761 32.129819
L46.480951 32.129819
" />
<path d="M46.480951 32.129819
L46.528570 32.606009
" />
<path d="M46.528570 32.606009
L46.480951 32.558390
" />
<path d="M46.480951 32.558390
L46.385713 32.510771
" />
<path d="M46.385713 32.510771
L46.147618 32.510771
" />
<path d="M46.147618 32.510771
L46.052380 32.558390
" />
<path d="M46.052380 32.558390
L46.004761 32.606009
" />
<path d="M46.004761 32.606009
L45.957142 32.701247
" />
<path d="M45.957142 32.701247
L45.957142 32.939342
" />
<path d="M45.957142 32.939342
L46.004761 33.034580
" />
<path d="M46.004761 33.034580
L46.052380 33.082200
" />
<path d="M46.052380 33.082200
L46.147618 33.129819
" />
<path d="M46.147618 33.129819
L46.385713 33.129819
" />
<path d="M46.385713 33.129819
L46.480951 33.082200
" />
<path d="M46.480951 33.082200
L46.528570 33.034580
" />
</g></g>
<g style="fill:#000000; fill-opacity:0.0; 
stroke:#000000; stroke-width:0.120000; stroke-opacity:1; 
stroke-linecap:round; stroke-linejoin:round;">
<path d="M48.260000 107.650000
L48.260000 106.320000
" />
<path d="M49.590000 107.650000
L48.260000 107.650000
" />
<path d="M50.860000 107.650000
L99.180000 107.650000
" />
<path d="M50.860000 107.650000
L50.860000 105.050000
" />
<path d="M99.180000 107.650000
L99.180000 102.450000
" />
<path d="M48.260000 105.050000
L48.260000 102.450000
" />
<path d="M50.860000 105.050000
L48.260000 105.050000
" />
<path d="M48.260000 102.450000
L99.180000 102.450000
" />
</g>
<g style="fill:#000000; fill-opacity:0.0; 
stroke:#000000; stroke-width:0.100000; stroke-opacity:1; 
stroke-linecap:round; stroke-linejoin:round;">
<path d="M46.220000 125.050000
L101.220000 125.050000
" />
<path d="M101.220000 125.050000
L101.220000 85.050000
" />
<path d="M101.220000 85.050000
L46.220000 85.050000
" />
<path d="M46.220000 85.050000
L46.220000 125.050000
" />
</g>
<g style="fill:#000000; fill-opacity:0.0; 
stroke:#000000; stroke-width:0.120000; stroke-opacity:1; 
stroke-linecap:round; stroke-linejoin:round;">
<path d="M112.295000 88.830000
L114.955000 88.830000
" />
<path d="M112.295000 96.510000
L112.295000 88.830000
" />
<path d="M112.295000 96.510000
L114.955000 96.510000
" />
<path d="M112.295000 97.780000
L112.295000 99.110000
" />
<path d="M112.295000 99.110000
L113.625000 99.110000
" />
<path d="M114.955000 96.510000
L114.955000 88.830000
" />
<path d="M133.805000 59.850000
L133.805000 61.120000
" />
<path d="M133.805000 61.120000
L135.075000 61.120000
" />
<path d="M136.117929 56.930000
L136.515000 56.930000
" />
<path d="M136.117929 57.690000
L136.515000 57.690000
" />
<path d="M136.185000 59.470000
L136.515000 59.470000
" />
<path d="M136.185000 60.230000
L136.515000 60.230000
" />
<path d="M136.515000 55.980000
L139.175000 55.980000
" />
<path d="M136.515000 58.580000
L139.175000 58.580000
" />
<path d="M136.515000 61.180000
L136.515000 55.980000
" />
<path d="M139.175000 55.980000
L139.175000 61.180000
" />
<path d="M139.175000 57.690000
L145.175000 57.690000
" />
<path d="M139.175000 59.570000
L145.175000 59.570000
" />
<path d="M139.175000 59.690000
L145.175000 59.690000
" />
<path d="M139.175000 59.810000
L145.175000 59.810000
" />
<path d="M139.175000 59.930000
L145.175000 59.930000
" />
<path d="M139.175000 60.050000
L145.175000 60.050000
" />
<path d="M139.175000 60.170000
L145.175000 60.170000
" />
<path d="M139.175000 60.230000
L145.175000 60.230000
" />
<path d="M139.175000 61.180000
L136.515000 61.180000
" />
<path d="M145.175000 56.930000
L139.175000 56.930000
" />
<path d="M145.175000 57.690000
L145.175000 56.930000
" />
<path d="M145.175000 59.470000
L139.175000 59.470000
" />
<path d="M145.175000 60.230000
L145.175000 59.470000
" />
</g>
<g style="fill:#000000; fill-opacity:0.0; 
stroke:#000000; stroke-width:0.100000; stroke-opacity:1; 
stroke-linecap:round; stroke-linejoin:round;">
<circle cx="127.000000" cy="50.006248" r="0.914753" /> 
<circle cx="127.000000" cy="48.000000" r="0.914400" /> 
</g>
<g style="fill:#000000; fill-opacity:0.0; 
stroke:#000000; stroke-width:0.120000; stroke-opacity:1; 
stroke-linecap:round; stroke-linejoin:round;">
<path d="M86.700000 76.300000
L87.300000 76.300000
" />
<path d="M88.000000 75.600000
L88.000000 74.200000
" />
<path d="M86.000000 74.200000
L86.000000 75.600000
" />
<path d="M87.300000 73.500000
L86.700000 73.500000
" />
<path d="M86.000000 75.600000 A0.699999 0.699999 0.0 0 0 86.700000 76.300000" />
<path d="M87.300000 76.300000 A0.699999 0.699999 0.0 0 0 88.000000 75.600000" />
<path d="M86.700000 73.500000 A0.700000 0.700000 0.0 0 0 86.000000 74.200000" />
<path d="M88.000000 74.200000 A0.700000 0.700000 0.0 0 0 87.300000 73.500000" />
<path d="M80.300000 59.500000
L79.900000 59.500000
" />
<path d="M82.900000 59.500000
L82.500000 59.500000
" />
<path d="M85.400000 59.500000
L85.000000 59.500000
" />
<path d="M87.900000 59.500000
L87.500000 59.500000
" />
<path d="M90.500000 59.500000
L90.100000 59.500000
" />
<path d="M93.000000 59.500000
L92.600000 59.500000
" />
<path d="M95.600000 59.500000
L95.200000 59.500000
" />
<path d="M98.100000 59.500000
L97.700000 59.500000
" />
<path d="M100.700000 59.500000
L100.300000 59.500000
" />
<path d="M103.200000 59.500000
L102.800000 59.500000
" />
<path d="M105.700000 59.500000
L105.300000 59.500000
" />
<path d="M108.300000 59.500000
L107.900000 59.500000
" />
<path d="M110.800000 59.500000
L110.400000 59.500000
" />
<path d="M113.400000 59.500000
L113.000000 59.500000
" />
<path d="M115.900000 59.500000
L115.500000 59.500000
" />
<path d="M118.400000 59.500000
L118.000000 59.500000
" />
<path d="M121.000000 59.500000
L120.600000 59.500000
" />
<path d="M123.500000 59.500000
L123.100000 59.500000
" />
<path d="M125.833000 59.500000
L125.833000 56.493000
" />
<path d="M126.100000 59.500000
L125.700000 59.500000
" />
<path d="M128.500000 59.500000
L128.200000 59.500000
" />
<path d="M125.833000 56.493000
L128.500000 56.493000
" />
<path d="M77.500000 52.700000
L77.500000 59.500000
" />
<path d="M77.500000 50.500000
L77.500000 50.100000
" />
<path d="M77.500000 47.900000
L77.500000 47.500000
" />
<path d="M77.500000 38.500000
L77.500000 45.300000
" />
<path d="M80.300000 38.500000
L79.900000 38.500000
" />
<path d="M82.900000 38.500000
L82.500000 38.500000
" />
<path d="M85.400000 38.500000
L85.000000 38.500000
" />
<path d="M87.900000 38.500000
L87.500000 38.500000
" />
<path d="M90.500000 38.500000
L90.100000 38.500000
" />
<path d="M93.000000 38.500000
L92.600000 38.500000
" />
<path d="M95.600000 38.500000
L95.200000 38.500000
" />
<path d="M98.100000 38.500000
L97.700000 38.500000
" />
<path d="M100.700000 38.500000
L100.300000 38.500000
" />
<path d="M103.200000 38.500000
L102.800000 38.500000
" />
<path d="M105.700000 38.500000
L105.300000 38.500000
" />
<path d="M108.300000 38.500000
L107.900000 38.500000
" />
<path d="M110.800000 38.500000
L110.400000 38.500000
" />
<path d="M113.400000 38.500000
L113.000000 38.500000
" />
<path d="M115.900000 38.500000
L115.500000 38.500000
" />
<path d="M118.400000 38.500000
L118.000000 38.500000
" />
<path d="M121.000000 38.500000
L120.600000 38.500000
" />
<path d="M123.500000 38.500000
L123.100000 38.500000
" />
<path d="M126.100000 38.500000
L125.700000 38.500000
" />
<path d="M128.500000 38.500000
L128.200000 38.500000
" />
<path d="M52.450000 25.725000
L52.450000 26.975000
" />
<path d="M52.160000 31.985000
L42.040000 31.985000
" />
<path d="M52.160000 26.015000
L52.160000 31.985000
" />
<path d="M52.150000 28.275000
L51.400000 28.275000
" />
<path d="M52.150000 26.775000
L50.350000 26.775000
" />
<path d="M52.150000 26.025000
L52.150000 26.775000
" />
<path d="M51.400000 31.225000
L47.100000 31.225000
" />
<path d="M51.400000 28.275000
L51.400000 31.225000
" />
<path d="M51.200000 25.725000
L52.450000 25.725000
" />
<path d="M50.350000 26.775000
L50.350000 26.025000
" />
<path d="M50.350000 26.025000
L52.150000 26.025000
" />
<path d="M48.850000 26.775000
L45.350000 26.775000
" />
<path d="M48.850000 26.025000
L48.850000 26.775000
" />
<path d="M45.350000 26.775000
L45.350000 26.025000
" />
<path d="M45.350000 26.025000
L48.850000 26.025000
" />
<path d="M43.850000 26.775000
L42.050000 26.775000
" />
<path d="M43.850000 26.025000
L43.850000 26.775000
" />
<path d="M42.800000 31.225000
L47.100000 31.225000
" />
<path d="M42.800000 28.275000
L42.800000 31.225000
" />
<path d="M42.050000 28.275000
L42.800000 28.275000
" />
<path d="M42.050000 26.775000
L42.050000 26.025000
" />
<path d="M42.050000 26.025000
L43.850000 26.025000
" />
<path d="M42.040000 31.985000
L42.040000 26.015000
" />
<path d="M42.040000 26.015000
L52.160000 26.015000
" />
<path d="M84.200000 76.300000
L84.800000 76.300000
" />
<path d="M85.500000 75.600000
L85.500000 74.200000
" />
<path d="M83.500000 74.200000
L83.500000 75.600000
" />
<path d="M84.800000 73.500000
L84.200000 73.500000
" />
<path d="M83.500000 75.600000 A0.699999 0.699999 0.0 0 0 84.200000 76.300000" />
<path d="M84.800000 76.300000 A0.699999 0.699999 0.0 0 0 85.500000 75.600000" />
<path d="M84.200000 73.500000 A0.700000 0.700000 0.0 0 0 83.500000 74.200000" />
<path d="M85.500000 74.200000 A0.700000 0.700000 0.0 0 0 84.800000 73.500000" />
<path d="M45.750000 124.350000
L45.750000 125.600000
" />
<path d="M45.460000 130.610000
L35.340000 130.610000
" />
<path d="M45.460000 124.640000
L45.460000 130.610000
" />
<path d="M45.450000 126.900000
L44.700000 126.900000
" />
<path d="M45.450000 125.400000
L43.650000 125.400000
" />
<path d="M45.450000 124.650000
L45.450000 125.400000
" />
<path d="M44.700000 129.850000
L40.400000 129.850000
" />
<path d="M44.700000 126.900000
L44.700000 129.850000
" />
<path d="M44.500000 124.350000
L45.750000 124.350000
" />
<path d="M43.650000 125.400000
L43.650000 124.650000
" />
<path d="M43.650000 124.650000
L45.450000 124.650000
" />
<path d="M42.150000 125.400000
L38.650000 125.400000
" />
<path d="M42.150000 124.650000
L42.150000 125.400000
" />
<path d="M38.650000 125.400000
L38.650000 124.650000
" />
<path d="M38.650000 124.650000
L42.150000 124.650000
" />
<path d="M37.150000 125.400000
L35.350000 125.400000
" />
<path d="M37.150000 124.650000
L37.150000 125.400000
" />
<path d="M36.100000 129.850000
L40.400000 129.850000
" />
<path d="M36.100000 126.900000
L36.100000 129.850000
" />
<path d="M35.350000 126.900000
L36.100000 126.900000
" />
<path d="M35.350000 125.400000
L35.350000 124.650000
" />
<path d="M35.350000 124.650000
L37.150000 124.650000
" />
<path d="M35.340000 130.610000
L35.340000 124.640000
" />
<path d="M35.340000 124.640000
L45.460000 124.640000
" />
</g>
<g style="fill:#000000; fill-opacity:0.0; 
stroke:#000000; stroke-width:0.100000; stroke-opacity:1; 
stroke-linecap:round; stroke-linejoin:round;">
<path d="M171.480000 63.505600
L171.480000 121.505600
" />
<path d="M167.730000 125.005600
L167.980000 125.005600
" />
</g>
<g style="fill:#000000; fill-opacity:0.0; 
stroke:#000000; stroke-width:0.120000; stroke-opacity:1; 
stroke-linecap:round; stroke-linejoin:round;">
<path d="M158.790000 123.020600
L158.790000 117.820600
" />
<path d="M157.885000 76.115600
L157.885000 81.255600
" />
<path d="M157.885000 73.515600
L157.885000 74.845600
" />
<path d="M156.555000 73.515600
L157.885000 73.515600
" />
<path d="M155.285000 76.115600
L157.885000 76.115600
" />
<path d="M155.285000 73.515600
L155.285000 76.115600
" />
<path d="M153.650000 120.420600
L153.650000 117.820600
" />
<path d="M153.650000 117.820600
L158.790000 117.820600
" />
<path d="M152.685000 81.255600
L157.885000 81.255600
" />
<path d="M152.685000 73.515600
L155.285000 73.515600
" />
<path d="M152.685000 73.515600
L152.685000 81.255600
" />
<path d="M151.050000 123.020600
L158.790000 123.020600
" />
<path d="M151.050000 123.020600
L151.050000 120.420600
" />
<path d="M151.050000 120.420600
L153.650000 120.420600
" />
<path d="M151.050000 119.150600
L151.050000 117.820600
" />
<path d="M151.050000 117.820600
L152.380000 117.820600
" />
<path d="M121.580000 69.645600
L121.580000 117.965600
" />
<path d="M121.580000 67.045600
L121.580000 68.375600
" />
<path d="M120.250000 67.045600
L121.580000 67.045600
" />
<path d="M118.980000 69.645600
L121.580000 69.645600
" />
<path d="M118.980000 67.045600
L118.980000 69.645600
" />
</g>
<g style="fill:#000000; fill-opacity:0.0; 
stroke:#000000; stroke-width:0.100000; stroke-opacity:1; 
stroke-linecap:round; stroke-linejoin:round;">
<path d="M118.980000 60.005600
L167.980000 60.005600
" />
<path d="M118.980000 60.005600
L118.480000 60.005243
" />
<path d="M118.230000 125.005600
L167.730000 125.005600
" />
</g>
<g style="fill:#000000; fill-opacity:0.0; 
stroke:#000000; stroke-width:0.120000; stroke-opacity:1; 
stroke-linecap:round; stroke-linejoin:round;">
<path d="M116.380000 117.965600
L121.580000 117.965600
" />
<path d="M116.380000 67.045600
L118.980000 67.045600
" />
<path d="M116.380000 67.045600
L116.380000 117.965600
" />
</g>
<g style="fill:#000000; fill-opacity:0.0; 
stroke:#000000; stroke-width:0.100000; stroke-opacity:1; 
stroke-linecap:round; stroke-linejoin:round;">
<path d="M114.980000 121.505600
L114.980000 63.555600
" />
<path d="M167.980000 125.005600 A3.499999 3.499999 0.0 0 0 171.480000 121.505600" />
<path d="M171.480000 63.505600 A3.499999 3.499999 0.0 0 0 167.980000 60.005600" />
<path d="M114.980000 121.505600 A3.500000 3.500000 0.0 0 0 118.480000 125.005600" />
<path d="M118.480000 60.005243 A3.500357 3.500357 0.0 0 0 114.980000 63.555600" />
<circle cx="167.980000" cy="121.505600" r="1.651000" /> 
<circle cx="167.980000" cy="63.505600" r="1.651000" /> 
<circle cx="118.980000" cy="121.505600" r="1.651000" /> 
<circle cx="118.980000" cy="63.505600" r="1.651000" /> 
</g>
<g style="fill:#000000; fill-opacity:0.0; 
stroke:#000000; stroke-width:0.120000; stroke-opacity:1; 
stroke-linecap:round; stroke-linejoin:round;">
<path d="M52.450000 33.475000
L52.450000 34.725000
" />
<path d="M52.160000 39.735000
L42.040000 39.735000
" />
<path d="M52.160000 33.765000
L52.160000 39.735000
" />
<path d="M52.150000 36.025000
L51.400000 36.025000
" />
<path d="M52.150000 34.525000
L50.350000 34.525000
" />
<path d="M52.150000 33.775000
L52.150000 34.525000
" />
<path d="M51.400000 38.975000
L47.100000 38.975000
" />
<path d="M51.400000 36.025000
L51.400000 38.975000
" />
<path d="M51.200000 33.475000
L52.450000 33.475000
" />
<path d="M50.350000 34.525000
L50.350000 33.775000
" />
<path d="M50.350000 33.775000
L52.150000 33.775000
" />
<path d="M48.850000 34.525000
L45.350000 34.525000
" />
<path d="M48.850000 33.775000
L48.850000 34.525000
" />
<path d="M45.350000 34.525000
L45.350000 33.775000
" />
<path d="M45.350000 33.775000
L48.850000 33.775000
" />
<path d="M43.850000 34.525000
L42.050000 34.525000
" />
<path d="M43.850000 33.775000
L43.850000 34.525000
" />
<path d="M42.800000 38.975000
L47.100000 38.975000
" />
<path d="M42.800000 36.025000
L42.800000 38.975000
" />
<path d="M42.050000 36.025000
L42.800000 36.025000
" />
<path d="M42.050000 34.525000
L42.050000 33.775000
" />
<path d="M42.050000 33.775000
L43.850000 33.775000
" />
<path d="M42.040000 39.735000
L42.040000 33.765000
" />
<path d="M42.040000 33.765000
L52.160000 33.765000
" />
<g >
</g>
<g >
</g>
<g >
</g>
<g >
</g>
<g >
</g>
<g >
</g>
<g >
</g>
<g >
</g>
<g >
</g>
<g >
</g>
<g >
</g>
<g >
</g>
<g >
</g>
<g >
</g>
<g >
</g>
<g >
</g>
<g >
</g>
<g >
</g>
<g >
</g>
<g >
</g>
<g >
</g>
<g >
</g>
<g >
</g>
<g >
</g>
<g >
</g>
<g >
</g>
<g >
</g>
<g >
</g>
<g >
</g>
<g >
</g>
<g >
</g>
<g >
</g>
<g >
</g>
<g >
</g>
<g >
</g>
<g >
</g>
<g >
</g>
<g >
</g>
<g >
</g>
<g >
</g>
<g >
</g>
<g >
</g>
<g >
</g>
<g >
</g>
<g >
</g>
<g >
</g>
<g >
</g>
<g >
</g>
<g >
</g>
<g >
</g>
<g >
</g>
<g >
</g>
<g >
</g>
<g >
</g>
<g >
</g>
<g >
</g>
<g >
</g>
<g >
</g>
<g >
</g>
<g >
</g>
<g >
</g>
<g >
</g>
<g >
</g>
<g >
</g>
<g >
</g>
<g >
</g>
<g >
</g>
<g >
</g>
<g >
</g>
<g >
</g>
<g >
</g>
<g >
</g>
<g >
</g>
<g >
</g>
<g >
</g>
<g >
</g>
<g >
</g>
<g >
</g>
<g >
</g>
<g >
</g>
<g >
</g>
<g >
</g>
<g >
</g>
<g >
</g>
<g >
</g>
<g >
</g>
<g >
</g>
</g> 
</svg>
