<?xml version="1.0" standalone="no"?>
 <!DOCTYPE svg PUBLIC "-//W3C//DTD SVG 1.1//EN" 
 "http://www.w3.org/Graphics/SVG/1.1/DTD/svg11.dtd"> 
<svg
  xmlns:svg="http://www.w3.org/2000/svg"
  xmlns="http://www.w3.org/2000/svg"
  xmlns:xlink="http://www.w3.org/1999/xlink"
  version="1.1"
  width="17.2142893cm" height="10.71cm" viewBox="18.907107 18.95 172.142893 107.1">
<title>SVG Image created as pedalboard-hw-B_SilkS.svg date 2023/09/10 23:06:28 </title>
  <desc>Image generated by PCBNEW </desc>
<g style="fill:#000000; fill-opacity:1.000000;stroke:#000000; stroke-opacity:1.000000;
stroke-linecap:round; stroke-linejoin:round;"
 transform="translate(0 0) scale(1 1)">
</g>
<g style="fill:#000000; fill-opacity:0.0; 
stroke:#000000; stroke-width:0.000000; stroke-opacity:1; 
stroke-linecap:round; stroke-linejoin:round;">
</g>
<g style="fill:#000000; fill-opacity:0.0; 
stroke:#000000; stroke-width:0.150000; stroke-opacity:1; 
stroke-linecap:round; stroke-linejoin:round;">
<g transform="rotate(90.000000 55.321200 71.475600)">
<text x="55.321200" y="71.475600"
transform="scale(-1 1) translate(-110.642400 0)"
textLength="3.297619" font-size="1.333333" lengthAdjust="spacingAndGlyphs"
text-anchor="start" opacity="0">GND</text>
</g>
<g class="stroked-text"><desc>GND</desc>
<path d="M56.403761 70.615011
L56.451380 70.710249
" />
<path d="M56.451380 70.710249
L56.451380 70.853106
" />
<path d="M56.451380 70.853106
L56.403761 70.995963
" />
<path d="M56.403761 70.995963
L56.308523 71.091201
" />
<path d="M56.308523 71.091201
L56.213285 71.138820
" />
<path d="M56.213285 71.138820
L56.022809 71.186439
" />
<path d="M56.022809 71.186439
L55.879952 71.186439
" />
<path d="M55.879952 71.186439
L55.689476 71.138820
" />
<path d="M55.689476 71.138820
L55.594238 71.091201
" />
<path d="M55.594238 71.091201
L55.499000 70.995963
" />
<path d="M55.499000 70.995963
L55.451380 70.853106
" />
<path d="M55.451380 70.853106
L55.451380 70.757868
" />
<path d="M55.451380 70.757868
L55.499000 70.615011
" />
<path d="M55.499000 70.615011
L55.546619 70.567392
" />
<path d="M55.546619 70.567392
L55.879952 70.567392
" />
<path d="M55.879952 70.567392
L55.879952 70.757868
" />
<path d="M55.451380 70.138820
L56.451380 70.138820
" />
<path d="M56.451380 70.138820
L55.451380 69.567392
" />
<path d="M55.451380 69.567392
L56.451380 69.567392
" />
<path d="M55.451380 69.091201
L56.451380 69.091201
" />
<path d="M56.451380 69.091201
L56.451380 68.853106
" />
<path d="M56.451380 68.853106
L56.403761 68.710249
" />
<path d="M56.403761 68.710249
L56.308523 68.615011
" />
<path d="M56.308523 68.615011
L56.213285 68.567392
" />
<path d="M56.213285 68.567392
L56.022809 68.519773
" />
<path d="M56.022809 68.519773
L55.879952 68.519773
" />
<path d="M55.879952 68.519773
L55.689476 68.567392
" />
<path d="M55.689476 68.567392
L55.594238 68.615011
" />
<path d="M55.594238 68.615011
L55.499000 68.710249
" />
<path d="M55.499000 68.710249
L55.451380 68.853106
" />
<path d="M55.451380 68.853106
L55.451380 69.091201
" />
</g><g transform="rotate(90.000000 52.882800 71.374000)">
<text x="52.882800" y="71.374000"
transform="scale(-1 1) translate(-105.765600 0)"
textLength="6.773811" font-size="1.333333" lengthAdjust="spacingAndGlyphs"
text-anchor="start" opacity="0">Data out</text>
</g>
<g class="stroked-text"><desc>Data out</desc>
<path d="M53.012980 71.037220
L54.012980 71.037220
" />
<path d="M54.012980 71.037220
L54.012980 70.799125
" />
<path d="M54.012980 70.799125
L53.965361 70.656268
" />
<path d="M53.965361 70.656268
L53.870123 70.561030
" />
<path d="M53.870123 70.561030
L53.774885 70.513411
" />
<path d="M53.774885 70.513411
L53.584409 70.465792
" />
<path d="M53.584409 70.465792
L53.441552 70.465792
" />
<path d="M53.441552 70.465792
L53.251076 70.513411
" />
<path d="M53.251076 70.513411
L53.155838 70.561030
" />
<path d="M53.155838 70.561030
L53.060600 70.656268
" />
<path d="M53.060600 70.656268
L53.012980 70.799125
" />
<path d="M53.012980 70.799125
L53.012980 71.037220
" />
<path d="M53.012980 69.608649
L53.536790 69.608649
" />
<path d="M53.536790 69.608649
L53.632028 69.656268
" />
<path d="M53.632028 69.656268
L53.679647 69.751506
" />
<path d="M53.679647 69.751506
L53.679647 69.941982
" />
<path d="M53.679647 69.941982
L53.632028 70.037220
" />
<path d="M53.060600 69.608649
L53.012980 69.703887
" />
<path d="M53.012980 69.703887
L53.012980 69.941982
" />
<path d="M53.012980 69.941982
L53.060600 70.037220
" />
<path d="M53.060600 70.037220
L53.155838 70.084839
" />
<path d="M53.155838 70.084839
L53.251076 70.084839
" />
<path d="M53.251076 70.084839
L53.346314 70.037220
" />
<path d="M53.346314 70.037220
L53.393933 69.941982
" />
<path d="M53.393933 69.941982
L53.393933 69.703887
" />
<path d="M53.393933 69.703887
L53.441552 69.608649
" />
<path d="M53.679647 69.275315
L53.679647 68.894363
" />
<path d="M54.012980 69.132458
L53.155838 69.132458
" />
<path d="M53.155838 69.132458
L53.060600 69.084839
" />
<path d="M53.060600 69.084839
L53.012980 68.989601
" />
<path d="M53.012980 68.989601
L53.012980 68.894363
" />
<path d="M53.012980 68.132458
L53.536790 68.132458
" />
<path d="M53.536790 68.132458
L53.632028 68.180077
" />
<path d="M53.632028 68.180077
L53.679647 68.275315
" />
<path d="M53.679647 68.275315
L53.679647 68.465791
" />
<path d="M53.679647 68.465791
L53.632028 68.561029
" />
<path d="M53.060600 68.132458
L53.012980 68.227696
" />
<path d="M53.012980 68.227696
L53.012980 68.465791
" />
<path d="M53.012980 68.465791
L53.060600 68.561029
" />
<path d="M53.060600 68.561029
L53.155838 68.608648
" />
<path d="M53.155838 68.608648
L53.251076 68.608648
" />
<path d="M53.251076 68.608648
L53.346314 68.561029
" />
<path d="M53.346314 68.561029
L53.393933 68.465791
" />
<path d="M53.393933 68.465791
L53.393933 68.227696
" />
<path d="M53.393933 68.227696
L53.441552 68.132458
" />
<path d="M53.012980 66.751505
L53.060600 66.846743
" />
<path d="M53.060600 66.846743
L53.108219 66.894362
" />
<path d="M53.108219 66.894362
L53.203457 66.941981
" />
<path d="M53.203457 66.941981
L53.489171 66.941981
" />
<path d="M53.489171 66.941981
L53.584409 66.894362
" />
<path d="M53.584409 66.894362
L53.632028 66.846743
" />
<path d="M53.632028 66.846743
L53.679647 66.751505
" />
<path d="M53.679647 66.751505
L53.679647 66.608648
" />
<path d="M53.679647 66.608648
L53.632028 66.513410
" />
<path d="M53.632028 66.513410
L53.584409 66.465791
" />
<path d="M53.584409 66.465791
L53.489171 66.418172
" />
<path d="M53.489171 66.418172
L53.203457 66.418172
" />
<path d="M53.203457 66.418172
L53.108219 66.465791
" />
<path d="M53.108219 66.465791
L53.060600 66.513410
" />
<path d="M53.060600 66.513410
L53.012980 66.608648
" />
<path d="M53.012980 66.608648
L53.012980 66.751505
" />
<path d="M53.679647 65.561029
L53.012980 65.561029
" />
<path d="M53.679647 65.989600
L53.155838 65.989600
" />
<path d="M53.155838 65.989600
L53.060600 65.941981
" />
<path d="M53.060600 65.941981
L53.012980 65.846743
" />
<path d="M53.012980 65.846743
L53.012980 65.703886
" />
<path d="M53.012980 65.703886
L53.060600 65.608648
" />
<path d="M53.060600 65.608648
L53.108219 65.561029
" />
<path d="M53.679647 65.227695
L53.679647 64.846743
" />
<path d="M54.012980 65.084838
L53.155838 65.084838
" />
<path d="M53.155838 65.084838
L53.060600 65.037219
" />
<path d="M53.060600 65.037219
L53.012980 64.941981
" />
<path d="M53.012980 64.941981
L53.012980 64.846743
" />
</g><g transform="rotate(-90.000000 71.932800 49.733200)">
<text x="71.932800" y="49.733200"
transform="scale(-1 1) translate(-143.865600 0)"
textLength="1.773809" font-size="1.333333" lengthAdjust="spacingAndGlyphs"
text-anchor="start" opacity="0">IN</text>
</g>
<g class="stroked-text"><desc>IN</desc>
<path d="M71.802619 50.069979
L70.802619 50.069979
" />
<path d="M71.802619 50.546169
L70.802619 50.546169
" />
<path d="M70.802619 50.546169
L71.802619 51.117597
" />
<path d="M71.802619 51.117597
L70.802619 51.117597
" />
</g><g transform="rotate(-90.000000 189.230000 36.576000)">
<text x="189.230000" y="36.576000"
transform="scale(-1 1) translate(-378.460000 0)"
textLength="3.297619" font-size="1.333333" lengthAdjust="spacingAndGlyphs"
text-anchor="start" opacity="0">GND</text>
</g>
<g class="stroked-text"><desc>GND</desc>
<path d="M188.147438 37.436588
L188.099819 37.341350
" />
<path d="M188.099819 37.341350
L188.099819 37.198493
" />
<path d="M188.099819 37.198493
L188.147438 37.055636
" />
<path d="M188.147438 37.055636
L188.242676 36.960398
" />
<path d="M188.242676 36.960398
L188.337914 36.912779
" />
<path d="M188.337914 36.912779
L188.528390 36.865160
" />
<path d="M188.528390 36.865160
L188.671247 36.865160
" />
<path d="M188.671247 36.865160
L188.861723 36.912779
" />
<path d="M188.861723 36.912779
L188.956961 36.960398
" />
<path d="M188.956961 36.960398
L189.052200 37.055636
" />
<path d="M189.052200 37.055636
L189.099819 37.198493
" />
<path d="M189.099819 37.198493
L189.099819 37.293731
" />
<path d="M189.099819 37.293731
L189.052200 37.436588
" />
<path d="M189.052200 37.436588
L189.004580 37.484207
" />
<path d="M189.004580 37.484207
L188.671247 37.484207
" />
<path d="M188.671247 37.484207
L188.671247 37.293731
" />
<path d="M189.099819 37.912779
L188.099819 37.912779
" />
<path d="M188.099819 37.912779
L189.099819 38.484207
" />
<path d="M189.099819 38.484207
L188.099819 38.484207
" />
<path d="M189.099819 38.960398
L188.099819 38.960398
" />
<path d="M188.099819 38.960398
L188.099819 39.198493
" />
<path d="M188.099819 39.198493
L188.147438 39.341350
" />
<path d="M188.147438 39.341350
L188.242676 39.436588
" />
<path d="M188.242676 39.436588
L188.337914 39.484207
" />
<path d="M188.337914 39.484207
L188.528390 39.531826
" />
<path d="M188.528390 39.531826
L188.671247 39.531826
" />
<path d="M188.671247 39.531826
L188.861723 39.484207
" />
<path d="M188.861723 39.484207
L188.956961 39.436588
" />
<path d="M188.956961 39.436588
L189.052200 39.341350
" />
<path d="M189.052200 39.341350
L189.099819 39.198493
" />
<path d="M189.099819 39.198493
L189.099819 38.960398
" />
</g><g transform="rotate(-90.000000 133.460000 50.060000)">
<text x="133.460000" y="50.060000"
transform="scale(-1 1) translate(-266.920000 0)"
textLength="5.821429" font-size="1.333333" lengthAdjust="spacingAndGlyphs"
text-anchor="start" opacity="0">5V PSU</text>
</g>
<g class="stroked-text"><desc>5V PSU</desc>
<path d="M132.329819 50.872969
L132.329819 50.396779
" />
<path d="M132.329819 50.396779
L132.806009 50.349160
" />
<path d="M132.806009 50.349160
L132.758390 50.396779
" />
<path d="M132.758390 50.396779
L132.710771 50.492017
" />
<path d="M132.710771 50.492017
L132.710771 50.730112
" />
<path d="M132.710771 50.730112
L132.758390 50.825350
" />
<path d="M132.758390 50.825350
L132.806009 50.872969
" />
<path d="M132.806009 50.872969
L132.901247 50.920588
" />
<path d="M132.901247 50.920588
L133.139342 50.920588
" />
<path d="M133.139342 50.920588
L133.234580 50.872969
" />
<path d="M133.234580 50.872969
L133.282200 50.825350
" />
<path d="M133.282200 50.825350
L133.329819 50.730112
" />
<path d="M133.329819 50.730112
L133.329819 50.492017
" />
<path d="M133.329819 50.492017
L133.282200 50.396779
" />
<path d="M133.282200 50.396779
L133.234580 50.349160
" />
<path d="M132.329819 51.206303
L133.329819 51.539636
" />
<path d="M133.329819 51.539636
L132.329819 51.872969
" />
<path d="M133.329819 52.968208
L132.329819 52.968208
" />
<path d="M132.329819 52.968208
L132.329819 53.349160
" />
<path d="M132.329819 53.349160
L132.377438 53.444398
" />
<path d="M132.377438 53.444398
L132.425057 53.492017
" />
<path d="M132.425057 53.492017
L132.520295 53.539636
" />
<path d="M132.520295 53.539636
L132.663152 53.539636
" />
<path d="M132.663152 53.539636
L132.758390 53.492017
" />
<path d="M132.758390 53.492017
L132.806009 53.444398
" />
<path d="M132.806009 53.444398
L132.853628 53.349160
" />
<path d="M132.853628 53.349160
L132.853628 52.968208
" />
<path d="M133.282200 53.920589
L133.329819 54.063446
" />
<path d="M133.329819 54.063446
L133.329819 54.301541
" />
<path d="M133.329819 54.301541
L133.282200 54.396779
" />
<path d="M133.282200 54.396779
L133.234580 54.444398
" />
<path d="M133.234580 54.444398
L133.139342 54.492017
" />
<path d="M133.139342 54.492017
L133.044104 54.492017
" />
<path d="M133.044104 54.492017
L132.948866 54.444398
" />
<path d="M132.948866 54.444398
L132.901247 54.396779
" />
<path d="M132.901247 54.396779
L132.853628 54.301541
" />
<path d="M132.853628 54.301541
L132.806009 54.111065
" />
<path d="M132.806009 54.111065
L132.758390 54.015827
" />
<path d="M132.758390 54.015827
L132.710771 53.968208
" />
<path d="M132.710771 53.968208
L132.615533 53.920589
" />
<path d="M132.615533 53.920589
L132.520295 53.920589
" />
<path d="M132.520295 53.920589
L132.425057 53.968208
" />
<path d="M132.425057 53.968208
L132.377438 54.015827
" />
<path d="M132.377438 54.015827
L132.329819 54.111065
" />
<path d="M132.329819 54.111065
L132.329819 54.349160
" />
<path d="M132.329819 54.349160
L132.377438 54.492017
" />
<path d="M132.329819 54.920589
L133.139342 54.920589
" />
<path d="M133.139342 54.920589
L133.234580 54.968208
" />
<path d="M133.234580 54.968208
L133.282200 55.015827
" />
<path d="M133.282200 55.015827
L133.329819 55.111065
" />
<path d="M133.329819 55.111065
L133.329819 55.301541
" />
<path d="M133.329819 55.301541
L133.282200 55.396779
" />
<path d="M133.282200 55.396779
L133.234580 55.444398
" />
<path d="M133.234580 55.444398
L133.139342 55.492017
" />
<path d="M133.139342 55.492017
L132.329819 55.492017
" />
</g><text x="83.100000" y="78.530000"
transform="scale(-1 1) translate(-166.200000 0)"
textLength="13.154764" font-size="1.333333" lengthAdjust="spacingAndGlyphs"
text-anchor="start" opacity="0">Open Pedalboard</text>
<g class="stroked-text"><desc>Open Pedalboard</desc>
<path d="M82.572744 77.399819
L82.382268 77.399819
" />
<path d="M82.382268 77.399819
L82.287030 77.447438
" />
<path d="M82.287030 77.447438
L82.191792 77.542676
" />
<path d="M82.191792 77.542676
L82.144173 77.733152
" />
<path d="M82.144173 77.733152
L82.144173 78.066485
" />
<path d="M82.144173 78.066485
L82.191792 78.256961
" />
<path d="M82.191792 78.256961
L82.287030 78.352200
" />
<path d="M82.287030 78.352200
L82.382268 78.399819
" />
<path d="M82.382268 78.399819
L82.572744 78.399819
" />
<path d="M82.572744 78.399819
L82.667982 78.352200
" />
<path d="M82.667982 78.352200
L82.763220 78.256961
" />
<path d="M82.763220 78.256961
L82.810839 78.066485
" />
<path d="M82.810839 78.066485
L82.810839 77.733152
" />
<path d="M82.810839 77.733152
L82.763220 77.542676
" />
<path d="M82.763220 77.542676
L82.667982 77.447438
" />
<path d="M82.667982 77.447438
L82.572744 77.399819
" />
<path d="M81.715601 77.733152
L81.715601 78.733152
" />
<path d="M81.715601 77.780771
L81.620363 77.733152
" />
<path d="M81.620363 77.733152
L81.429887 77.733152
" />
<path d="M81.429887 77.733152
L81.334649 77.780771
" />
<path d="M81.334649 77.780771
L81.287030 77.828390
" />
<path d="M81.287030 77.828390
L81.239411 77.923628
" />
<path d="M81.239411 77.923628
L81.239411 78.209342
" />
<path d="M81.239411 78.209342
L81.287030 78.304580
" />
<path d="M81.287030 78.304580
L81.334649 78.352200
" />
<path d="M81.334649 78.352200
L81.429887 78.399819
" />
<path d="M81.429887 78.399819
L81.620363 78.399819
" />
<path d="M81.620363 78.399819
L81.715601 78.352200
" />
<path d="M80.429887 78.352200
L80.525125 78.399819
" />
<path d="M80.525125 78.399819
L80.715601 78.399819
" />
<path d="M80.715601 78.399819
L80.810839 78.352200
" />
<path d="M80.810839 78.352200
L80.858458 78.256961
" />
<path d="M80.858458 78.256961
L80.858458 77.876009
" />
<path d="M80.858458 77.876009
L80.810839 77.780771
" />
<path d="M80.810839 77.780771
L80.715601 77.733152
" />
<path d="M80.715601 77.733152
L80.525125 77.733152
" />
<path d="M80.525125 77.733152
L80.429887 77.780771
" />
<path d="M80.429887 77.780771
L80.382268 77.876009
" />
<path d="M80.382268 77.876009
L80.382268 77.971247
" />
<path d="M80.382268 77.971247
L80.858458 78.066485
" />
<path d="M79.953696 77.733152
L79.953696 78.399819
" />
<path d="M79.953696 77.828390
L79.906077 77.780771
" />
<path d="M79.906077 77.780771
L79.810839 77.733152
" />
<path d="M79.810839 77.733152
L79.667982 77.733152
" />
<path d="M79.667982 77.733152
L79.572744 77.780771
" />
<path d="M79.572744 77.780771
L79.525125 77.876009
" />
<path d="M79.525125 77.876009
L79.525125 78.399819
" />
<path d="M78.287029 78.399819
L78.287029 77.399819
" />
<path d="M78.287029 77.399819
L77.906077 77.399819
" />
<path d="M77.906077 77.399819
L77.810839 77.447438
" />
<path d="M77.810839 77.447438
L77.763220 77.495057
" />
<path d="M77.763220 77.495057
L77.715601 77.590295
" />
<path d="M77.715601 77.590295
L77.715601 77.733152
" />
<path d="M77.715601 77.733152
L77.763220 77.828390
" />
<path d="M77.763220 77.828390
L77.810839 77.876009
" />
<path d="M77.810839 77.876009
L77.906077 77.923628
" />
<path d="M77.906077 77.923628
L78.287029 77.923628
" />
<path d="M76.906077 78.352200
L77.001315 78.399819
" />
<path d="M77.001315 78.399819
L77.191791 78.399819
" />
<path d="M77.191791 78.399819
L77.287029 78.352200
" />
<path d="M77.287029 78.352200
L77.334648 78.256961
" />
<path d="M77.334648 78.256961
L77.334648 77.876009
" />
<path d="M77.334648 77.876009
L77.287029 77.780771
" />
<path d="M77.287029 77.780771
L77.191791 77.733152
" />
<path d="M77.191791 77.733152
L77.001315 77.733152
" />
<path d="M77.001315 77.733152
L76.906077 77.780771
" />
<path d="M76.906077 77.780771
L76.858458 77.876009
" />
<path d="M76.858458 77.876009
L76.858458 77.971247
" />
<path d="M76.858458 77.971247
L77.334648 78.066485
" />
<path d="M76.001315 78.399819
L76.001315 77.399819
" />
<path d="M76.001315 78.352200
L76.096553 78.399819
" />
<path d="M76.096553 78.399819
L76.287029 78.399819
" />
<path d="M76.287029 78.399819
L76.382267 78.352200
" />
<path d="M76.382267 78.352200
L76.429886 78.304580
" />
<path d="M76.429886 78.304580
L76.477505 78.209342
" />
<path d="M76.477505 78.209342
L76.477505 77.923628
" />
<path d="M76.477505 77.923628
L76.429886 77.828390
" />
<path d="M76.429886 77.828390
L76.382267 77.780771
" />
<path d="M76.382267 77.780771
L76.287029 77.733152
" />
<path d="M76.287029 77.733152
L76.096553 77.733152
" />
<path d="M76.096553 77.733152
L76.001315 77.780771
" />
<path d="M75.096553 78.399819
L75.096553 77.876009
" />
<path d="M75.096553 77.876009
L75.144172 77.780771
" />
<path d="M75.144172 77.780771
L75.239410 77.733152
" />
<path d="M75.239410 77.733152
L75.429886 77.733152
" />
<path d="M75.429886 77.733152
L75.525124 77.780771
" />
<path d="M75.096553 78.352200
L75.191791 78.399819
" />
<path d="M75.191791 78.399819
L75.429886 78.399819
" />
<path d="M75.429886 78.399819
L75.525124 78.352200
" />
<path d="M75.525124 78.352200
L75.572743 78.256961
" />
<path d="M75.572743 78.256961
L75.572743 78.161723
" />
<path d="M75.572743 78.161723
L75.525124 78.066485
" />
<path d="M75.525124 78.066485
L75.429886 78.018866
" />
<path d="M75.429886 78.018866
L75.191791 78.018866
" />
<path d="M75.191791 78.018866
L75.096553 77.971247
" />
<path d="M74.477505 78.399819
L74.572743 78.352200
" />
<path d="M74.572743 78.352200
L74.620362 78.256961
" />
<path d="M74.620362 78.256961
L74.620362 77.399819
" />
<path d="M74.096552 78.399819
L74.096552 77.399819
" />
<path d="M74.096552 77.780771
L74.001314 77.733152
" />
<path d="M74.001314 77.733152
L73.810838 77.733152
" />
<path d="M73.810838 77.733152
L73.715600 77.780771
" />
<path d="M73.715600 77.780771
L73.667981 77.828390
" />
<path d="M73.667981 77.828390
L73.620362 77.923628
" />
<path d="M73.620362 77.923628
L73.620362 78.209342
" />
<path d="M73.620362 78.209342
L73.667981 78.304580
" />
<path d="M73.667981 78.304580
L73.715600 78.352200
" />
<path d="M73.715600 78.352200
L73.810838 78.399819
" />
<path d="M73.810838 78.399819
L74.001314 78.399819
" />
<path d="M74.001314 78.399819
L74.096552 78.352200
" />
<path d="M73.048933 78.399819
L73.144171 78.352200
" />
<path d="M73.144171 78.352200
L73.191790 78.304580
" />
<path d="M73.191790 78.304580
L73.239409 78.209342
" />
<path d="M73.239409 78.209342
L73.239409 77.923628
" />
<path d="M73.239409 77.923628
L73.191790 77.828390
" />
<path d="M73.191790 77.828390
L73.144171 77.780771
" />
<path d="M73.144171 77.780771
L73.048933 77.733152
" />
<path d="M73.048933 77.733152
L72.906076 77.733152
" />
<path d="M72.906076 77.733152
L72.810838 77.780771
" />
<path d="M72.810838 77.780771
L72.763219 77.828390
" />
<path d="M72.763219 77.828390
L72.715600 77.923628
" />
<path d="M72.715600 77.923628
L72.715600 78.209342
" />
<path d="M72.715600 78.209342
L72.763219 78.304580
" />
<path d="M72.763219 78.304580
L72.810838 78.352200
" />
<path d="M72.810838 78.352200
L72.906076 78.399819
" />
<path d="M72.906076 78.399819
L73.048933 78.399819
" />
<path d="M71.858457 78.399819
L71.858457 77.876009
" />
<path d="M71.858457 77.876009
L71.906076 77.780771
" />
<path d="M71.906076 77.780771
L72.001314 77.733152
" />
<path d="M72.001314 77.733152
L72.191790 77.733152
" />
<path d="M72.191790 77.733152
L72.287028 77.780771
" />
<path d="M71.858457 78.352200
L71.953695 78.399819
" />
<path d="M71.953695 78.399819
L72.191790 78.399819
" />
<path d="M72.191790 78.399819
L72.287028 78.352200
" />
<path d="M72.287028 78.352200
L72.334647 78.256961
" />
<path d="M72.334647 78.256961
L72.334647 78.161723
" />
<path d="M72.334647 78.161723
L72.287028 78.066485
" />
<path d="M72.287028 78.066485
L72.191790 78.018866
" />
<path d="M72.191790 78.018866
L71.953695 78.018866
" />
<path d="M71.953695 78.018866
L71.858457 77.971247
" />
<path d="M71.382266 78.399819
L71.382266 77.733152
" />
<path d="M71.382266 77.923628
L71.334647 77.828390
" />
<path d="M71.334647 77.828390
L71.287028 77.780771
" />
<path d="M71.287028 77.780771
L71.191790 77.733152
" />
<path d="M71.191790 77.733152
L71.096552 77.733152
" />
<path d="M70.334647 78.399819
L70.334647 77.399819
" />
<path d="M70.334647 78.352200
L70.429885 78.399819
" />
<path d="M70.429885 78.399819
L70.620361 78.399819
" />
<path d="M70.620361 78.399819
L70.715599 78.352200
" />
<path d="M70.715599 78.352200
L70.763218 78.304580
" />
<path d="M70.763218 78.304580
L70.810837 78.209342
" />
<path d="M70.810837 78.209342
L70.810837 77.923628
" />
<path d="M70.810837 77.923628
L70.763218 77.828390
" />
<path d="M70.763218 77.828390
L70.715599 77.780771
" />
<path d="M70.715599 77.780771
L70.620361 77.733152
" />
<path d="M70.620361 77.733152
L70.429885 77.733152
" />
<path d="M70.429885 77.733152
L70.334647 77.780771
" />
</g><text x="83.100000" y="80.140000"
transform="scale(-1 1) translate(-166.200000 0)"
textLength="24.202383" font-size="1.333333" lengthAdjust="spacingAndGlyphs"
text-anchor="start" opacity="0">https://github.com/pedalboard</text>
<g class="stroked-text"><desc>https://github.com/pedalboard</desc>
<path d="M82.763220 80.009819
L82.763220 79.009819
" />
<path d="M82.334649 80.009819
L82.334649 79.486009
" />
<path d="M82.334649 79.486009
L82.382268 79.390771
" />
<path d="M82.382268 79.390771
L82.477506 79.343152
" />
<path d="M82.477506 79.343152
L82.620363 79.343152
" />
<path d="M82.620363 79.343152
L82.715601 79.390771
" />
<path d="M82.715601 79.390771
L82.763220 79.438390
" />
<path d="M82.001315 79.343152
L81.620363 79.343152
" />
<path d="M81.858458 79.009819
L81.858458 79.866961
" />
<path d="M81.858458 79.866961
L81.810839 79.962200
" />
<path d="M81.810839 79.962200
L81.715601 80.009819
" />
<path d="M81.715601 80.009819
L81.620363 80.009819
" />
<path d="M81.429886 79.343152
L81.048934 79.343152
" />
<path d="M81.287029 79.009819
L81.287029 79.866961
" />
<path d="M81.287029 79.866961
L81.239410 79.962200
" />
<path d="M81.239410 79.962200
L81.144172 80.009819
" />
<path d="M81.144172 80.009819
L81.048934 80.009819
" />
<path d="M80.715600 79.343152
L80.715600 80.343152
" />
<path d="M80.715600 79.390771
L80.620362 79.343152
" />
<path d="M80.620362 79.343152
L80.429886 79.343152
" />
<path d="M80.429886 79.343152
L80.334648 79.390771
" />
<path d="M80.334648 79.390771
L80.287029 79.438390
" />
<path d="M80.287029 79.438390
L80.239410 79.533628
" />
<path d="M80.239410 79.533628
L80.239410 79.819342
" />
<path d="M80.239410 79.819342
L80.287029 79.914580
" />
<path d="M80.287029 79.914580
L80.334648 79.962200
" />
<path d="M80.334648 79.962200
L80.429886 80.009819
" />
<path d="M80.429886 80.009819
L80.620362 80.009819
" />
<path d="M80.620362 80.009819
L80.715600 79.962200
" />
<path d="M79.858457 79.962200
L79.763219 80.009819
" />
<path d="M79.763219 80.009819
L79.572743 80.009819
" />
<path d="M79.572743 80.009819
L79.477505 79.962200
" />
<path d="M79.477505 79.962200
L79.429886 79.866961
" />
<path d="M79.429886 79.866961
L79.429886 79.819342
" />
<path d="M79.429886 79.819342
L79.477505 79.724104
" />
<path d="M79.477505 79.724104
L79.572743 79.676485
" />
<path d="M79.572743 79.676485
L79.715600 79.676485
" />
<path d="M79.715600 79.676485
L79.810838 79.628866
" />
<path d="M79.810838 79.628866
L79.858457 79.533628
" />
<path d="M79.858457 79.533628
L79.858457 79.486009
" />
<path d="M79.858457 79.486009
L79.810838 79.390771
" />
<path d="M79.810838 79.390771
L79.715600 79.343152
" />
<path d="M79.715600 79.343152
L79.572743 79.343152
" />
<path d="M79.572743 79.343152
L79.477505 79.390771
" />
<path d="M79.001314 79.914580
L78.953695 79.962200
" />
<path d="M78.953695 79.962200
L79.001314 80.009819
" />
<path d="M79.001314 80.009819
L79.048933 79.962200
" />
<path d="M79.048933 79.962200
L79.001314 79.914580
" />
<path d="M79.001314 79.914580
L79.001314 80.009819
" />
<path d="M79.001314 79.390771
L78.953695 79.438390
" />
<path d="M78.953695 79.438390
L79.001314 79.486009
" />
<path d="M79.001314 79.486009
L79.048933 79.438390
" />
<path d="M79.048933 79.438390
L79.001314 79.390771
" />
<path d="M79.001314 79.390771
L79.001314 79.486009
" />
<path d="M77.810839 78.962200
L78.667981 80.247914
" />
<path d="M76.763220 78.962200
L77.620362 80.247914
" />
<path d="M76.001315 79.343152
L76.001315 80.152676
" />
<path d="M76.001315 80.152676
L76.048934 80.247914
" />
<path d="M76.048934 80.247914
L76.096553 80.295533
" />
<path d="M76.096553 80.295533
L76.191791 80.343152
" />
<path d="M76.191791 80.343152
L76.334648 80.343152
" />
<path d="M76.334648 80.343152
L76.429886 80.295533
" />
<path d="M76.001315 79.962200
L76.096553 80.009819
" />
<path d="M76.096553 80.009819
L76.287029 80.009819
" />
<path d="M76.287029 80.009819
L76.382267 79.962200
" />
<path d="M76.382267 79.962200
L76.429886 79.914580
" />
<path d="M76.429886 79.914580
L76.477505 79.819342
" />
<path d="M76.477505 79.819342
L76.477505 79.533628
" />
<path d="M76.477505 79.533628
L76.429886 79.438390
" />
<path d="M76.429886 79.438390
L76.382267 79.390771
" />
<path d="M76.382267 79.390771
L76.287029 79.343152
" />
<path d="M76.287029 79.343152
L76.096553 79.343152
" />
<path d="M76.096553 79.343152
L76.001315 79.390771
" />
<path d="M75.525124 80.009819
L75.525124 79.343152
" />
<path d="M75.525124 79.009819
L75.572743 79.057438
" />
<path d="M75.572743 79.057438
L75.525124 79.105057
" />
<path d="M75.525124 79.105057
L75.477505 79.057438
" />
<path d="M75.477505 79.057438
L75.525124 79.009819
" />
<path d="M75.525124 79.009819
L75.525124 79.105057
" />
<path d="M75.191791 79.343152
L74.810839 79.343152
" />
<path d="M75.048934 79.009819
L75.048934 79.866961
" />
<path d="M75.048934 79.866961
L75.001315 79.962200
" />
<path d="M75.001315 79.962200
L74.906077 80.009819
" />
<path d="M74.906077 80.009819
L74.810839 80.009819
" />
<path d="M74.477505 80.009819
L74.477505 79.009819
" />
<path d="M74.048934 80.009819
L74.048934 79.486009
" />
<path d="M74.048934 79.486009
L74.096553 79.390771
" />
<path d="M74.096553 79.390771
L74.191791 79.343152
" />
<path d="M74.191791 79.343152
L74.334648 79.343152
" />
<path d="M74.334648 79.343152
L74.429886 79.390771
" />
<path d="M74.429886 79.390771
L74.477505 79.438390
" />
<path d="M73.144172 79.343152
L73.144172 80.009819
" />
<path d="M73.572743 79.343152
L73.572743 79.866961
" />
<path d="M73.572743 79.866961
L73.525124 79.962200
" />
<path d="M73.525124 79.962200
L73.429886 80.009819
" />
<path d="M73.429886 80.009819
L73.287029 80.009819
" />
<path d="M73.287029 80.009819
L73.191791 79.962200
" />
<path d="M73.191791 79.962200
L73.144172 79.914580
" />
<path d="M72.667981 80.009819
L72.667981 79.009819
" />
<path d="M72.667981 79.390771
L72.572743 79.343152
" />
<path d="M72.572743 79.343152
L72.382267 79.343152
" />
<path d="M72.382267 79.343152
L72.287029 79.390771
" />
<path d="M72.287029 79.390771
L72.239410 79.438390
" />
<path d="M72.239410 79.438390
L72.191791 79.533628
" />
<path d="M72.191791 79.533628
L72.191791 79.819342
" />
<path d="M72.191791 79.819342
L72.239410 79.914580
" />
<path d="M72.239410 79.914580
L72.287029 79.962200
" />
<path d="M72.287029 79.962200
L72.382267 80.009819
" />
<path d="M72.382267 80.009819
L72.572743 80.009819
" />
<path d="M72.572743 80.009819
L72.667981 79.962200
" />
<path d="M71.763219 79.914580
L71.715600 79.962200
" />
<path d="M71.715600 79.962200
L71.763219 80.009819
" />
<path d="M71.763219 80.009819
L71.810838 79.962200
" />
<path d="M71.810838 79.962200
L71.763219 79.914580
" />
<path d="M71.763219 79.914580
L71.763219 80.009819
" />
<path d="M70.858458 79.962200
L70.953696 80.009819
" />
<path d="M70.953696 80.009819
L71.144172 80.009819
" />
<path d="M71.144172 80.009819
L71.239410 79.962200
" />
<path d="M71.239410 79.962200
L71.287029 79.914580
" />
<path d="M71.287029 79.914580
L71.334648 79.819342
" />
<path d="M71.334648 79.819342
L71.334648 79.533628
" />
<path d="M71.334648 79.533628
L71.287029 79.438390
" />
<path d="M71.287029 79.438390
L71.239410 79.390771
" />
<path d="M71.239410 79.390771
L71.144172 79.343152
" />
<path d="M71.144172 79.343152
L70.953696 79.343152
" />
<path d="M70.953696 79.343152
L70.858458 79.390771
" />
<path d="M70.287029 80.009819
L70.382267 79.962200
" />
<path d="M70.382267 79.962200
L70.429886 79.914580
" />
<path d="M70.429886 79.914580
L70.477505 79.819342
" />
<path d="M70.477505 79.819342
L70.477505 79.533628
" />
<path d="M70.477505 79.533628
L70.429886 79.438390
" />
<path d="M70.429886 79.438390
L70.382267 79.390771
" />
<path d="M70.382267 79.390771
L70.287029 79.343152
" />
<path d="M70.287029 79.343152
L70.144172 79.343152
" />
<path d="M70.144172 79.343152
L70.048934 79.390771
" />
<path d="M70.048934 79.390771
L70.001315 79.438390
" />
<path d="M70.001315 79.438390
L69.953696 79.533628
" />
<path d="M69.953696 79.533628
L69.953696 79.819342
" />
<path d="M69.953696 79.819342
L70.001315 79.914580
" />
<path d="M70.001315 79.914580
L70.048934 79.962200
" />
<path d="M70.048934 79.962200
L70.144172 80.009819
" />
<path d="M70.144172 80.009819
L70.287029 80.009819
" />
<path d="M69.525124 80.009819
L69.525124 79.343152
" />
<path d="M69.525124 79.438390
L69.477505 79.390771
" />
<path d="M69.477505 79.390771
L69.382267 79.343152
" />
<path d="M69.382267 79.343152
L69.239410 79.343152
" />
<path d="M69.239410 79.343152
L69.144172 79.390771
" />
<path d="M69.144172 79.390771
L69.096553 79.486009
" />
<path d="M69.096553 79.486009
L69.096553 80.009819
" />
<path d="M69.096553 79.486009
L69.048934 79.390771
" />
<path d="M69.048934 79.390771
L68.953696 79.343152
" />
<path d="M68.953696 79.343152
L68.810839 79.343152
" />
<path d="M68.810839 79.343152
L68.715600 79.390771
" />
<path d="M68.715600 79.390771
L68.667981 79.486009
" />
<path d="M68.667981 79.486009
L68.667981 80.009819
" />
<path d="M67.477506 78.962200
L68.334648 80.247914
" />
<path d="M67.144172 79.343152
L67.144172 80.343152
" />
<path d="M67.144172 79.390771
L67.048934 79.343152
" />
<path d="M67.048934 79.343152
L66.858458 79.343152
" />
<path d="M66.858458 79.343152
L66.763220 79.390771
" />
<path d="M66.763220 79.390771
L66.715601 79.438390
" />
<path d="M66.715601 79.438390
L66.667982 79.533628
" />
<path d="M66.667982 79.533628
L66.667982 79.819342
" />
<path d="M66.667982 79.819342
L66.715601 79.914580
" />
<path d="M66.715601 79.914580
L66.763220 79.962200
" />
<path d="M66.763220 79.962200
L66.858458 80.009819
" />
<path d="M66.858458 80.009819
L67.048934 80.009819
" />
<path d="M67.048934 80.009819
L67.144172 79.962200
" />
<path d="M65.858458 79.962200
L65.953696 80.009819
" />
<path d="M65.953696 80.009819
L66.144172 80.009819
" />
<path d="M66.144172 80.009819
L66.239410 79.962200
" />
<path d="M66.239410 79.962200
L66.287029 79.866961
" />
<path d="M66.287029 79.866961
L66.287029 79.486009
" />
<path d="M66.287029 79.486009
L66.239410 79.390771
" />
<path d="M66.239410 79.390771
L66.144172 79.343152
" />
<path d="M66.144172 79.343152
L65.953696 79.343152
" />
<path d="M65.953696 79.343152
L65.858458 79.390771
" />
<path d="M65.858458 79.390771
L65.810839 79.486009
" />
<path d="M65.810839 79.486009
L65.810839 79.581247
" />
<path d="M65.810839 79.581247
L66.287029 79.676485
" />
<path d="M64.953696 80.009819
L64.953696 79.009819
" />
<path d="M64.953696 79.962200
L65.048934 80.009819
" />
<path d="M65.048934 80.009819
L65.239410 80.009819
" />
<path d="M65.239410 80.009819
L65.334648 79.962200
" />
<path d="M65.334648 79.962200
L65.382267 79.914580
" />
<path d="M65.382267 79.914580
L65.429886 79.819342
" />
<path d="M65.429886 79.819342
L65.429886 79.533628
" />
<path d="M65.429886 79.533628
L65.382267 79.438390
" />
<path d="M65.382267 79.438390
L65.334648 79.390771
" />
<path d="M65.334648 79.390771
L65.239410 79.343152
" />
<path d="M65.239410 79.343152
L65.048934 79.343152
" />
<path d="M65.048934 79.343152
L64.953696 79.390771
" />
<path d="M64.048934 80.009819
L64.048934 79.486009
" />
<path d="M64.048934 79.486009
L64.096553 79.390771
" />
<path d="M64.096553 79.390771
L64.191791 79.343152
" />
<path d="M64.191791 79.343152
L64.382267 79.343152
" />
<path d="M64.382267 79.343152
L64.477505 79.390771
" />
<path d="M64.048934 79.962200
L64.144172 80.009819
" />
<path d="M64.144172 80.009819
L64.382267 80.009819
" />
<path d="M64.382267 80.009819
L64.477505 79.962200
" />
<path d="M64.477505 79.962200
L64.525124 79.866961
" />
<path d="M64.525124 79.866961
L64.525124 79.771723
" />
<path d="M64.525124 79.771723
L64.477505 79.676485
" />
<path d="M64.477505 79.676485
L64.382267 79.628866
" />
<path d="M64.382267 79.628866
L64.144172 79.628866
" />
<path d="M64.144172 79.628866
L64.048934 79.581247
" />
<path d="M63.429886 80.009819
L63.525124 79.962200
" />
<path d="M63.525124 79.962200
L63.572743 79.866961
" />
<path d="M63.572743 79.866961
L63.572743 79.009819
" />
<path d="M63.048933 80.009819
L63.048933 79.009819
" />
<path d="M63.048933 79.390771
L62.953695 79.343152
" />
<path d="M62.953695 79.343152
L62.763219 79.343152
" />
<path d="M62.763219 79.343152
L62.667981 79.390771
" />
<path d="M62.667981 79.390771
L62.620362 79.438390
" />
<path d="M62.620362 79.438390
L62.572743 79.533628
" />
<path d="M62.572743 79.533628
L62.572743 79.819342
" />
<path d="M62.572743 79.819342
L62.620362 79.914580
" />
<path d="M62.620362 79.914580
L62.667981 79.962200
" />
<path d="M62.667981 79.962200
L62.763219 80.009819
" />
<path d="M62.763219 80.009819
L62.953695 80.009819
" />
<path d="M62.953695 80.009819
L63.048933 79.962200
" />
<path d="M62.001314 80.009819
L62.096552 79.962200
" />
<path d="M62.096552 79.962200
L62.144171 79.914580
" />
<path d="M62.144171 79.914580
L62.191790 79.819342
" />
<path d="M62.191790 79.819342
L62.191790 79.533628
" />
<path d="M62.191790 79.533628
L62.144171 79.438390
" />
<path d="M62.144171 79.438390
L62.096552 79.390771
" />
<path d="M62.096552 79.390771
L62.001314 79.343152
" />
<path d="M62.001314 79.343152
L61.858457 79.343152
" />
<path d="M61.858457 79.343152
L61.763219 79.390771
" />
<path d="M61.763219 79.390771
L61.715600 79.438390
" />
<path d="M61.715600 79.438390
L61.667981 79.533628
" />
<path d="M61.667981 79.533628
L61.667981 79.819342
" />
<path d="M61.667981 79.819342
L61.715600 79.914580
" />
<path d="M61.715600 79.914580
L61.763219 79.962200
" />
<path d="M61.763219 79.962200
L61.858457 80.009819
" />
<path d="M61.858457 80.009819
L62.001314 80.009819
" />
<path d="M60.810838 80.009819
L60.810838 79.486009
" />
<path d="M60.810838 79.486009
L60.858457 79.390771
" />
<path d="M60.858457 79.390771
L60.953695 79.343152
" />
<path d="M60.953695 79.343152
L61.144171 79.343152
" />
<path d="M61.144171 79.343152
L61.239409 79.390771
" />
<path d="M60.810838 79.962200
L60.906076 80.009819
" />
<path d="M60.906076 80.009819
L61.144171 80.009819
" />
<path d="M61.144171 80.009819
L61.239409 79.962200
" />
<path d="M61.239409 79.962200
L61.287028 79.866961
" />
<path d="M61.287028 79.866961
L61.287028 79.771723
" />
<path d="M61.287028 79.771723
L61.239409 79.676485
" />
<path d="M61.239409 79.676485
L61.144171 79.628866
" />
<path d="M61.144171 79.628866
L60.906076 79.628866
" />
<path d="M60.906076 79.628866
L60.810838 79.581247
" />
<path d="M60.334647 80.009819
L60.334647 79.343152
" />
<path d="M60.334647 79.533628
L60.287028 79.438390
" />
<path d="M60.287028 79.438390
L60.239409 79.390771
" />
<path d="M60.239409 79.390771
L60.144171 79.343152
" />
<path d="M60.144171 79.343152
L60.048933 79.343152
" />
<path d="M59.287028 80.009819
L59.287028 79.009819
" />
<path d="M59.287028 79.962200
L59.382266 80.009819
" />
<path d="M59.382266 80.009819
L59.572742 80.009819
" />
<path d="M59.572742 80.009819
L59.667980 79.962200
" />
<path d="M59.667980 79.962200
L59.715599 79.914580
" />
<path d="M59.715599 79.914580
L59.763218 79.819342
" />
<path d="M59.763218 79.819342
L59.763218 79.533628
" />
<path d="M59.763218 79.533628
L59.715599 79.438390
" />
<path d="M59.715599 79.438390
L59.667980 79.390771
" />
<path d="M59.667980 79.390771
L59.572742 79.343152
" />
<path d="M59.572742 79.343152
L59.382266 79.343152
" />
<path d="M59.382266 79.343152
L59.287028 79.390771
" />
</g><text x="83.100000" y="81.750000"
transform="scale(-1 1) translate(-166.200000 0)"
textLength="12.488094" font-size="1.333333" lengthAdjust="spacingAndGlyphs"
text-anchor="start" opacity="0">BCB: 3.0.0-RC1</text>
<g class="stroked-text"><desc>BCB: 3.0.0-RC1</desc>
<path d="M82.429887 81.096009
L82.287030 81.143628
" />
<path d="M82.287030 81.143628
L82.239411 81.191247
" />
<path d="M82.239411 81.191247
L82.191792 81.286485
" />
<path d="M82.191792 81.286485
L82.191792 81.429342
" />
<path d="M82.191792 81.429342
L82.239411 81.524580
" />
<path d="M82.239411 81.524580
L82.287030 81.572200
" />
<path d="M82.287030 81.572200
L82.382268 81.619819
" />
<path d="M82.382268 81.619819
L82.763220 81.619819
" />
<path d="M82.763220 81.619819
L82.763220 80.619819
" />
<path d="M82.763220 80.619819
L82.429887 80.619819
" />
<path d="M82.429887 80.619819
L82.334649 80.667438
" />
<path d="M82.334649 80.667438
L82.287030 80.715057
" />
<path d="M82.287030 80.715057
L82.239411 80.810295
" />
<path d="M82.239411 80.810295
L82.239411 80.905533
" />
<path d="M82.239411 80.905533
L82.287030 81.000771
" />
<path d="M82.287030 81.000771
L82.334649 81.048390
" />
<path d="M82.334649 81.048390
L82.429887 81.096009
" />
<path d="M82.429887 81.096009
L82.763220 81.096009
" />
<path d="M81.191792 81.524580
L81.239411 81.572200
" />
<path d="M81.239411 81.572200
L81.382268 81.619819
" />
<path d="M81.382268 81.619819
L81.477506 81.619819
" />
<path d="M81.477506 81.619819
L81.620363 81.572200
" />
<path d="M81.620363 81.572200
L81.715601 81.476961
" />
<path d="M81.715601 81.476961
L81.763220 81.381723
" />
<path d="M81.763220 81.381723
L81.810839 81.191247
" />
<path d="M81.810839 81.191247
L81.810839 81.048390
" />
<path d="M81.810839 81.048390
L81.763220 80.857914
" />
<path d="M81.763220 80.857914
L81.715601 80.762676
" />
<path d="M81.715601 80.762676
L81.620363 80.667438
" />
<path d="M81.620363 80.667438
L81.477506 80.619819
" />
<path d="M81.477506 80.619819
L81.382268 80.619819
" />
<path d="M81.382268 80.619819
L81.239411 80.667438
" />
<path d="M81.239411 80.667438
L81.191792 80.715057
" />
<path d="M80.429887 81.096009
L80.287030 81.143628
" />
<path d="M80.287030 81.143628
L80.239411 81.191247
" />
<path d="M80.239411 81.191247
L80.191792 81.286485
" />
<path d="M80.191792 81.286485
L80.191792 81.429342
" />
<path d="M80.191792 81.429342
L80.239411 81.524580
" />
<path d="M80.239411 81.524580
L80.287030 81.572200
" />
<path d="M80.287030 81.572200
L80.382268 81.619819
" />
<path d="M80.382268 81.619819
L80.763220 81.619819
" />
<path d="M80.763220 81.619819
L80.763220 80.619819
" />
<path d="M80.763220 80.619819
L80.429887 80.619819
" />
<path d="M80.429887 80.619819
L80.334649 80.667438
" />
<path d="M80.334649 80.667438
L80.287030 80.715057
" />
<path d="M80.287030 80.715057
L80.239411 80.810295
" />
<path d="M80.239411 80.810295
L80.239411 80.905533
" />
<path d="M80.239411 80.905533
L80.287030 81.000771
" />
<path d="M80.287030 81.000771
L80.334649 81.048390
" />
<path d="M80.334649 81.048390
L80.429887 81.096009
" />
<path d="M80.429887 81.096009
L80.763220 81.096009
" />
<path d="M79.763220 81.524580
L79.715601 81.572200
" />
<path d="M79.715601 81.572200
L79.763220 81.619819
" />
<path d="M79.763220 81.619819
L79.810839 81.572200
" />
<path d="M79.810839 81.572200
L79.763220 81.524580
" />
<path d="M79.763220 81.524580
L79.763220 81.619819
" />
<path d="M79.763220 81.000771
L79.715601 81.048390
" />
<path d="M79.715601 81.048390
L79.763220 81.096009
" />
<path d="M79.763220 81.096009
L79.810839 81.048390
" />
<path d="M79.810839 81.048390
L79.763220 81.000771
" />
<path d="M79.763220 81.000771
L79.763220 81.096009
" />
<path d="M78.620363 80.619819
L78.001316 80.619819
" />
<path d="M78.001316 80.619819
L78.334649 81.000771
" />
<path d="M78.334649 81.000771
L78.191792 81.000771
" />
<path d="M78.191792 81.000771
L78.096554 81.048390
" />
<path d="M78.096554 81.048390
L78.048935 81.096009
" />
<path d="M78.048935 81.096009
L78.001316 81.191247
" />
<path d="M78.001316 81.191247
L78.001316 81.429342
" />
<path d="M78.001316 81.429342
L78.048935 81.524580
" />
<path d="M78.048935 81.524580
L78.096554 81.572200
" />
<path d="M78.096554 81.572200
L78.191792 81.619819
" />
<path d="M78.191792 81.619819
L78.477506 81.619819
" />
<path d="M78.477506 81.619819
L78.572744 81.572200
" />
<path d="M78.572744 81.572200
L78.620363 81.524580
" />
<path d="M77.572744 81.524580
L77.525125 81.572200
" />
<path d="M77.525125 81.572200
L77.572744 81.619819
" />
<path d="M77.572744 81.619819
L77.620363 81.572200
" />
<path d="M77.620363 81.572200
L77.572744 81.524580
" />
<path d="M77.572744 81.524580
L77.572744 81.619819
" />
<path d="M76.906078 80.619819
L76.810840 80.619819
" />
<path d="M76.810840 80.619819
L76.715602 80.667438
" />
<path d="M76.715602 80.667438
L76.667983 80.715057
" />
<path d="M76.667983 80.715057
L76.620364 80.810295
" />
<path d="M76.620364 80.810295
L76.572745 81.000771
" />
<path d="M76.572745 81.000771
L76.572745 81.238866
" />
<path d="M76.572745 81.238866
L76.620364 81.429342
" />
<path d="M76.620364 81.429342
L76.667983 81.524580
" />
<path d="M76.667983 81.524580
L76.715602 81.572200
" />
<path d="M76.715602 81.572200
L76.810840 81.619819
" />
<path d="M76.810840 81.619819
L76.906078 81.619819
" />
<path d="M76.906078 81.619819
L77.001316 81.572200
" />
<path d="M77.001316 81.572200
L77.048935 81.524580
" />
<path d="M77.048935 81.524580
L77.096554 81.429342
" />
<path d="M77.096554 81.429342
L77.144173 81.238866
" />
<path d="M77.144173 81.238866
L77.144173 81.000771
" />
<path d="M77.144173 81.000771
L77.096554 80.810295
" />
<path d="M77.096554 80.810295
L77.048935 80.715057
" />
<path d="M77.048935 80.715057
L77.001316 80.667438
" />
<path d="M77.001316 80.667438
L76.906078 80.619819
" />
<path d="M76.144173 81.524580
L76.096554 81.572200
" />
<path d="M76.096554 81.572200
L76.144173 81.619819
" />
<path d="M76.144173 81.619819
L76.191792 81.572200
" />
<path d="M76.191792 81.572200
L76.144173 81.524580
" />
<path d="M76.144173 81.524580
L76.144173 81.619819
" />
<path d="M75.477507 80.619819
L75.382269 80.619819
" />
<path d="M75.382269 80.619819
L75.287031 80.667438
" />
<path d="M75.287031 80.667438
L75.239412 80.715057
" />
<path d="M75.239412 80.715057
L75.191793 80.810295
" />
<path d="M75.191793 80.810295
L75.144174 81.000771
" />
<path d="M75.144174 81.000771
L75.144174 81.238866
" />
<path d="M75.144174 81.238866
L75.191793 81.429342
" />
<path d="M75.191793 81.429342
L75.239412 81.524580
" />
<path d="M75.239412 81.524580
L75.287031 81.572200
" />
<path d="M75.287031 81.572200
L75.382269 81.619819
" />
<path d="M75.382269 81.619819
L75.477507 81.619819
" />
<path d="M75.477507 81.619819
L75.572745 81.572200
" />
<path d="M75.572745 81.572200
L75.620364 81.524580
" />
<path d="M75.620364 81.524580
L75.667983 81.429342
" />
<path d="M75.667983 81.429342
L75.715602 81.238866
" />
<path d="M75.715602 81.238866
L75.715602 81.000771
" />
<path d="M75.715602 81.000771
L75.667983 80.810295
" />
<path d="M75.667983 80.810295
L75.620364 80.715057
" />
<path d="M75.620364 80.715057
L75.572745 80.667438
" />
<path d="M75.572745 80.667438
L75.477507 80.619819
" />
<path d="M74.715602 81.238866
L73.953698 81.238866
" />
<path d="M72.906079 81.619819
L73.239412 81.143628
" />
<path d="M73.477507 81.619819
L73.477507 80.619819
" />
<path d="M73.477507 80.619819
L73.096555 80.619819
" />
<path d="M73.096555 80.619819
L73.001317 80.667438
" />
<path d="M73.001317 80.667438
L72.953698 80.715057
" />
<path d="M72.953698 80.715057
L72.906079 80.810295
" />
<path d="M72.906079 80.810295
L72.906079 80.953152
" />
<path d="M72.906079 80.953152
L72.953698 81.048390
" />
<path d="M72.953698 81.048390
L73.001317 81.096009
" />
<path d="M73.001317 81.096009
L73.096555 81.143628
" />
<path d="M73.096555 81.143628
L73.477507 81.143628
" />
<path d="M71.906079 81.524580
L71.953698 81.572200
" />
<path d="M71.953698 81.572200
L72.096555 81.619819
" />
<path d="M72.096555 81.619819
L72.191793 81.619819
" />
<path d="M72.191793 81.619819
L72.334650 81.572200
" />
<path d="M72.334650 81.572200
L72.429888 81.476961
" />
<path d="M72.429888 81.476961
L72.477507 81.381723
" />
<path d="M72.477507 81.381723
L72.525126 81.191247
" />
<path d="M72.525126 81.191247
L72.525126 81.048390
" />
<path d="M72.525126 81.048390
L72.477507 80.857914
" />
<path d="M72.477507 80.857914
L72.429888 80.762676
" />
<path d="M72.429888 80.762676
L72.334650 80.667438
" />
<path d="M72.334650 80.667438
L72.191793 80.619819
" />
<path d="M72.191793 80.619819
L72.096555 80.619819
" />
<path d="M72.096555 80.619819
L71.953698 80.667438
" />
<path d="M71.953698 80.667438
L71.906079 80.715057
" />
<path d="M70.953698 81.619819
L71.525126 81.619819
" />
<path d="M71.239412 81.619819
L71.239412 80.619819
" />
<path d="M71.239412 80.619819
L71.334650 80.762676
" />
<path d="M71.334650 80.762676
L71.429888 80.857914
" />
<path d="M71.429888 80.857914
L71.525126 80.905533
" />
</g><g transform="rotate(-270.000000 50.000000 71.323200)">
<text x="50.000000" y="71.323200"
transform="scale(-1 1) translate(-100.000000 0)"
textLength="4.059524" font-size="1.333333" lengthAdjust="spacingAndGlyphs"
text-anchor="start" opacity="0">+5V </text>
</g>
<g class="stroked-text"><desc>+5V </desc>
<path d="M50.511133 70.986420
L50.511133 70.224516
" />
<path d="M50.130180 70.605468
L50.892085 70.605468
" />
<path d="M51.130180 69.272135
L51.130180 69.748325
" />
<path d="M51.130180 69.748325
L50.653990 69.795944
" />
<path d="M50.653990 69.795944
L50.701609 69.748325
" />
<path d="M50.701609 69.748325
L50.749228 69.653087
" />
<path d="M50.749228 69.653087
L50.749228 69.414992
" />
<path d="M50.749228 69.414992
L50.701609 69.319754
" />
<path d="M50.701609 69.319754
L50.653990 69.272135
" />
<path d="M50.653990 69.272135
L50.558752 69.224516
" />
<path d="M50.558752 69.224516
L50.320657 69.224516
" />
<path d="M50.320657 69.224516
L50.225419 69.272135
" />
<path d="M50.225419 69.272135
L50.177800 69.319754
" />
<path d="M50.177800 69.319754
L50.130180 69.414992
" />
<path d="M50.130180 69.414992
L50.130180 69.653087
" />
<path d="M50.130180 69.653087
L50.177800 69.748325
" />
<path d="M50.177800 69.748325
L50.225419 69.795944
" />
<path d="M51.130180 68.938801
L50.130180 68.605468
" />
<path d="M50.130180 68.605468
L51.130180 68.272135
" />
</g><text x="65.910000" y="51.050000"
transform="scale(-1 1) translate(-131.820000 0)"
textLength="4.792858" font-size="2.000000" lengthAdjust="spacingAndGlyphs"
text-anchor="start" opacity="0">MIDI</text>
<g class="stroked-text"><desc>MIDI</desc>
<path d="M65.454173 50.858628
L65.454173 49.358628
" />
<path d="M65.454173 49.358628
L64.954173 50.430057
" />
<path d="M64.954173 50.430057
L64.454173 49.358628
" />
<path d="M64.454173 49.358628
L64.454173 50.858628
" />
<path d="M63.739887 50.858628
L63.739887 49.358628
" />
<path d="M63.025601 50.858628
L63.025601 49.358628
" />
<path d="M63.025601 49.358628
L62.668458 49.358628
" />
<path d="M62.668458 49.358628
L62.454172 49.430057
" />
<path d="M62.454172 49.430057
L62.311315 49.572914
" />
<path d="M62.311315 49.572914
L62.239886 49.715771
" />
<path d="M62.239886 49.715771
L62.168458 50.001485
" />
<path d="M62.168458 50.001485
L62.168458 50.215771
" />
<path d="M62.168458 50.215771
L62.239886 50.501485
" />
<path d="M62.239886 50.501485
L62.311315 50.644342
" />
<path d="M62.311315 50.644342
L62.454172 50.787200
" />
<path d="M62.454172 50.787200
L62.668458 50.858628
" />
<path d="M62.668458 50.858628
L63.025601 50.858628
" />
<path d="M61.525601 50.858628
L61.525601 49.358628
" />
</g><g transform="rotate(-270.000000 134.874000 45.669200)">
<text x="134.874000" y="45.669200"
transform="scale(-1 1) translate(-269.748000 0)"
textLength="1.630952" font-size="1.333333" lengthAdjust="spacingAndGlyphs"
text-anchor="start" opacity="0">in</text>
</g>
<g class="stroked-text"><desc>in</desc>
<path d="M135.004180 45.332420
L135.670847 45.332420
" />
<path d="M136.004180 45.332420
L135.956561 45.380039
" />
<path d="M135.956561 45.380039
L135.908942 45.332420
" />
<path d="M135.908942 45.332420
L135.956561 45.284801
" />
<path d="M135.956561 45.284801
L136.004180 45.332420
" />
<path d="M136.004180 45.332420
L135.908942 45.332420
" />
<path d="M135.670847 44.856230
L135.004180 44.856230
" />
<path d="M135.575609 44.856230
L135.623228 44.808611
" />
<path d="M135.623228 44.808611
L135.670847 44.713373
" />
<path d="M135.670847 44.713373
L135.670847 44.570516
" />
<path d="M135.670847 44.570516
L135.623228 44.475278
" />
<path d="M135.623228 44.475278
L135.527990 44.427659
" />
<path d="M135.527990 44.427659
L135.004180 44.427659
" />
</g><text x="49.225200" y="83.566000"
transform="scale(-1 1) translate(-98.450400 0)"
textLength="6.583334" font-size="1.333333" lengthAdjust="spacingAndGlyphs"
text-anchor="start" opacity="0">LED OUT</text>
<g class="stroked-text"><desc>LED OUT</desc>
<path d="M48.412230 83.435819
L48.888420 83.435819
" />
<path d="M48.888420 83.435819
L48.888420 82.435819
" />
<path d="M48.078896 82.912009
L47.745563 82.912009
" />
<path d="M47.602706 83.435819
L48.078896 83.435819
" />
<path d="M48.078896 83.435819
L48.078896 82.435819
" />
<path d="M48.078896 82.435819
L47.602706 82.435819
" />
<path d="M47.174134 83.435819
L47.174134 82.435819
" />
<path d="M47.174134 82.435819
L46.936039 82.435819
" />
<path d="M46.936039 82.435819
L46.793182 82.483438
" />
<path d="M46.793182 82.483438
L46.697944 82.578676
" />
<path d="M46.697944 82.578676
L46.650325 82.673914
" />
<path d="M46.650325 82.673914
L46.602706 82.864390
" />
<path d="M46.602706 82.864390
L46.602706 83.007247
" />
<path d="M46.602706 83.007247
L46.650325 83.197723
" />
<path d="M46.650325 83.197723
L46.697944 83.292961
" />
<path d="M46.697944 83.292961
L46.793182 83.388200
" />
<path d="M46.793182 83.388200
L46.936039 83.435819
" />
<path d="M46.936039 83.435819
L47.174134 83.435819
" />
<path d="M45.221753 82.435819
L45.031277 82.435819
" />
<path d="M45.031277 82.435819
L44.936039 82.483438
" />
<path d="M44.936039 82.483438
L44.840801 82.578676
" />
<path d="M44.840801 82.578676
L44.793182 82.769152
" />
<path d="M44.793182 82.769152
L44.793182 83.102485
" />
<path d="M44.793182 83.102485
L44.840801 83.292961
" />
<path d="M44.840801 83.292961
L44.936039 83.388200
" />
<path d="M44.936039 83.388200
L45.031277 83.435819
" />
<path d="M45.031277 83.435819
L45.221753 83.435819
" />
<path d="M45.221753 83.435819
L45.316991 83.388200
" />
<path d="M45.316991 83.388200
L45.412229 83.292961
" />
<path d="M45.412229 83.292961
L45.459848 83.102485
" />
<path d="M45.459848 83.102485
L45.459848 82.769152
" />
<path d="M45.459848 82.769152
L45.412229 82.578676
" />
<path d="M45.412229 82.578676
L45.316991 82.483438
" />
<path d="M45.316991 82.483438
L45.221753 82.435819
" />
<path d="M44.364610 82.435819
L44.364610 83.245342
" />
<path d="M44.364610 83.245342
L44.316991 83.340580
" />
<path d="M44.316991 83.340580
L44.269372 83.388200
" />
<path d="M44.269372 83.388200
L44.174134 83.435819
" />
<path d="M44.174134 83.435819
L43.983658 83.435819
" />
<path d="M43.983658 83.435819
L43.888420 83.388200
" />
<path d="M43.888420 83.388200
L43.840801 83.340580
" />
<path d="M43.840801 83.340580
L43.793182 83.245342
" />
<path d="M43.793182 83.245342
L43.793182 82.435819
" />
<path d="M43.459848 82.435819
L42.888420 82.435819
" />
<path d="M43.174134 83.435819
L43.174134 82.435819
" />
</g><g transform="rotate(-90.000000 182.778400 36.779200)">
<text x="182.778400" y="36.779200"
transform="scale(-1 1) translate(-365.556800 0)"
textLength="1.773809" font-size="1.333333" lengthAdjust="spacingAndGlyphs"
text-anchor="start" opacity="0">IN</text>
</g>
<g class="stroked-text"><desc>IN</desc>
<path d="M182.648219 37.115979
L181.648219 37.115979
" />
<path d="M182.648219 37.592169
L181.648219 37.592169
" />
<path d="M181.648219 37.592169
L182.648219 38.163597
" />
<path d="M182.648219 38.163597
L181.648219 38.163597
" />
</g><g transform="rotate(90.000000 67.665600 51.866800)">
<text x="67.665600" y="51.866800"
transform="scale(-1 1) translate(-135.331200 0)"
textLength="3.107143" font-size="1.333333" lengthAdjust="spacingAndGlyphs"
text-anchor="start" opacity="0">OUT</text>
</g>
<g class="stroked-text"><desc>OUT</desc>
<path d="M68.795780 51.339544
L68.795780 51.149068
" />
<path d="M68.795780 51.149068
L68.748161 51.053830
" />
<path d="M68.748161 51.053830
L68.652923 50.958592
" />
<path d="M68.652923 50.958592
L68.462447 50.910973
" />
<path d="M68.462447 50.910973
L68.129114 50.910973
" />
<path d="M68.129114 50.910973
L67.938638 50.958592
" />
<path d="M67.938638 50.958592
L67.843400 51.053830
" />
<path d="M67.843400 51.053830
L67.795780 51.149068
" />
<path d="M67.795780 51.149068
L67.795780 51.339544
" />
<path d="M67.795780 51.339544
L67.843400 51.434782
" />
<path d="M67.843400 51.434782
L67.938638 51.530020
" />
<path d="M67.938638 51.530020
L68.129114 51.577639
" />
<path d="M68.129114 51.577639
L68.462447 51.577639
" />
<path d="M68.462447 51.577639
L68.652923 51.530020
" />
<path d="M68.652923 51.530020
L68.748161 51.434782
" />
<path d="M68.748161 51.434782
L68.795780 51.339544
" />
<path d="M68.795780 50.482401
L67.986257 50.482401
" />
<path d="M67.986257 50.482401
L67.891019 50.434782
" />
<path d="M67.891019 50.434782
L67.843400 50.387163
" />
<path d="M67.843400 50.387163
L67.795780 50.291925
" />
<path d="M67.795780 50.291925
L67.795780 50.101449
" />
<path d="M67.795780 50.101449
L67.843400 50.006211
" />
<path d="M67.843400 50.006211
L67.891019 49.958592
" />
<path d="M67.891019 49.958592
L67.986257 49.910973
" />
<path d="M67.986257 49.910973
L68.795780 49.910973
" />
<path d="M68.795780 49.577639
L68.795780 49.006211
" />
<path d="M67.795780 49.291925
L68.795780 49.291925
" />
</g><g transform="rotate(-90.000000 176.326800 36.677600)">
<text x="176.326800" y="36.677600"
transform="scale(-1 1) translate(-352.653600 0)"
textLength="3.869048" font-size="1.333333" lengthAdjust="spacingAndGlyphs"
text-anchor="start" opacity="0">VREF</text>
</g>
<g class="stroked-text"><desc>VREF</desc>
<path d="M175.196619 36.871522
L176.196619 37.204855
" />
<path d="M176.196619 37.204855
L175.196619 37.538188
" />
<path d="M176.196619 38.442950
L175.720428 38.109617
" />
<path d="M176.196619 37.871522
L175.196619 37.871522
" />
<path d="M175.196619 37.871522
L175.196619 38.252474
" />
<path d="M175.196619 38.252474
L175.244238 38.347712
" />
<path d="M175.244238 38.347712
L175.291857 38.395331
" />
<path d="M175.291857 38.395331
L175.387095 38.442950
" />
<path d="M175.387095 38.442950
L175.529952 38.442950
" />
<path d="M175.529952 38.442950
L175.625190 38.395331
" />
<path d="M175.625190 38.395331
L175.672809 38.347712
" />
<path d="M175.672809 38.347712
L175.720428 38.252474
" />
<path d="M175.720428 38.252474
L175.720428 37.871522
" />
<path d="M175.672809 38.871522
L175.672809 39.204855
" />
<path d="M176.196619 39.347712
L176.196619 38.871522
" />
<path d="M176.196619 38.871522
L175.196619 38.871522
" />
<path d="M175.196619 38.871522
L175.196619 39.347712
" />
<path d="M175.672809 40.109617
L175.672809 39.776284
" />
<path d="M176.196619 39.776284
L175.196619 39.776284
" />
<path d="M175.196619 39.776284
L175.196619 40.252474
" />
</g><g transform="rotate(90.000000 137.464800 45.770800)">
<text x="137.464800" y="45.770800"
transform="scale(-1 1) translate(-274.929600 0)"
textLength="2.630953" font-size="1.333333" lengthAdjust="spacingAndGlyphs"
text-anchor="start" opacity="0">out</text>
</g>
<g class="stroked-text"><desc>out</desc>
<path d="M137.594980 45.291163
L137.642600 45.386401
" />
<path d="M137.642600 45.386401
L137.690219 45.434020
" />
<path d="M137.690219 45.434020
L137.785457 45.481639
" />
<path d="M137.785457 45.481639
L138.071171 45.481639
" />
<path d="M138.071171 45.481639
L138.166409 45.434020
" />
<path d="M138.166409 45.434020
L138.214028 45.386401
" />
<path d="M138.214028 45.386401
L138.261647 45.291163
" />
<path d="M138.261647 45.291163
L138.261647 45.148306
" />
<path d="M138.261647 45.148306
L138.214028 45.053068
" />
<path d="M138.214028 45.053068
L138.166409 45.005449
" />
<path d="M138.166409 45.005449
L138.071171 44.957830
" />
<path d="M138.071171 44.957830
L137.785457 44.957830
" />
<path d="M137.785457 44.957830
L137.690219 45.005449
" />
<path d="M137.690219 45.005449
L137.642600 45.053068
" />
<path d="M137.642600 45.053068
L137.594980 45.148306
" />
<path d="M137.594980 45.148306
L137.594980 45.291163
" />
<path d="M138.261647 44.100687
L137.594980 44.100687
" />
<path d="M138.261647 44.529258
L137.737838 44.529258
" />
<path d="M137.737838 44.529258
L137.642600 44.481639
" />
<path d="M137.642600 44.481639
L137.594980 44.386401
" />
<path d="M137.594980 44.386401
L137.594980 44.243544
" />
<path d="M137.594980 44.243544
L137.642600 44.148306
" />
<path d="M137.642600 44.148306
L137.690219 44.100687
" />
<path d="M138.261647 43.767353
L138.261647 43.386401
" />
<path d="M138.594980 43.624496
L137.737838 43.624496
" />
<path d="M137.737838 43.624496
L137.642600 43.576877
" />
<path d="M137.642600 43.576877
L137.594980 43.481639
" />
<path d="M137.594980 43.481639
L137.594980 43.386401
" />
</g><text x="49.700000" y="110.100000"
transform="scale(-1 1) translate(-99.400000 0)"
textLength="1.964286" font-size="1.333333" lengthAdjust="spacingAndGlyphs"
text-anchor="middle" opacity="0">J7</text>
<g class="stroked-text"><desc>J7</desc>
<path d="M50.033333 109.054819
L50.033333 109.769104
" />
<path d="M50.033333 109.769104
L50.080952 109.911961
" />
<path d="M50.080952 109.911961
L50.176190 110.007200
" />
<path d="M50.176190 110.007200
L50.319047 110.054819
" />
<path d="M50.319047 110.054819
L50.414285 110.054819
" />
<path d="M49.652380 109.054819
L48.985714 109.054819
" />
<path d="M48.985714 109.054819
L49.414285 110.054819
" />
</g><text x="113.625000" y="100.610000"
transform="scale(-1 1) translate(-227.250000 0)"
textLength="1.964286" font-size="1.333333" lengthAdjust="spacingAndGlyphs"
text-anchor="middle" opacity="0">J6</text>
<g class="stroked-text"><desc>J6</desc>
<path d="M113.958333 99.564819
L113.958333 100.279104
" />
<path d="M113.958333 100.279104
L114.005952 100.421961
" />
<path d="M114.005952 100.421961
L114.101190 100.517200
" />
<path d="M114.101190 100.517200
L114.244047 100.564819
" />
<path d="M114.244047 100.564819
L114.339285 100.564819
" />
<path d="M113.053571 99.564819
L113.244047 99.564819
" />
<path d="M113.244047 99.564819
L113.339285 99.612438
" />
<path d="M113.339285 99.612438
L113.386904 99.660057
" />
<path d="M113.386904 99.660057
L113.482142 99.802914
" />
<path d="M113.482142 99.802914
L113.529761 99.993390
" />
<path d="M113.529761 99.993390
L113.529761 100.374342
" />
<path d="M113.529761 100.374342
L113.482142 100.469580
" />
<path d="M113.482142 100.469580
L113.434523 100.517200
" />
<path d="M113.434523 100.517200
L113.339285 100.564819
" />
<path d="M113.339285 100.564819
L113.148809 100.564819
" />
<path d="M113.148809 100.564819
L113.053571 100.517200
" />
<path d="M113.053571 100.517200
L113.005952 100.469580
" />
<path d="M113.005952 100.469580
L112.958333 100.374342
" />
<path d="M112.958333 100.374342
L112.958333 100.136247
" />
<path d="M112.958333 100.136247
L113.005952 100.041009
" />
<path d="M113.005952 100.041009
L113.053571 99.993390
" />
<path d="M113.053571 99.993390
L113.148809 99.945771
" />
<path d="M113.148809 99.945771
L113.339285 99.945771
" />
<path d="M113.339285 99.945771
L113.434523 99.993390
" />
<path d="M113.434523 99.993390
L113.482142 100.041009
" />
<path d="M113.482142 100.041009
L113.529761 100.136247
" />
</g></g>
<g style="fill:#000000; fill-opacity:0.0; 
stroke:#000000; stroke-width:0.100000; stroke-opacity:1; 
stroke-linecap:round; stroke-linejoin:round;">
<g transform="rotate(-270.000000 83.000000 74.640000)">
<text x="83.000000" y="75.140000"
transform="scale(-1 1) translate(-166.000000 0)"
textLength="1.909524" font-size="1.333333" lengthAdjust="spacingAndGlyphs"
text-anchor="middle" opacity="0">F3</text>
</g>
<g class="stroked-text"><desc>F3</desc>
<path d="M83.066390 74.973333
L83.066390 75.306666
" />
<path d="M82.542580 75.306666
L83.542580 75.306666
" />
<path d="M83.542580 75.306666
L83.542580 74.830476
" />
<path d="M83.542580 74.544761
L83.542580 73.925714
" />
<path d="M83.542580 73.925714
L83.161628 74.259047
" />
<path d="M83.161628 74.259047
L83.161628 74.116190
" />
<path d="M83.161628 74.116190
L83.114009 74.020952
" />
<path d="M83.114009 74.020952
L83.066390 73.973333
" />
<path d="M83.066390 73.973333
L82.971152 73.925714
" />
<path d="M82.971152 73.925714
L82.733057 73.925714
" />
<path d="M82.733057 73.925714
L82.637819 73.973333
" />
<path d="M82.637819 73.973333
L82.590200 74.020952
" />
<path d="M82.590200 74.020952
L82.542580 74.116190
" />
<path d="M82.542580 74.116190
L82.542580 74.401904
" />
<path d="M82.542580 74.401904
L82.590200 74.497142
" />
<path d="M82.590200 74.497142
L82.637819 74.544761
" />
</g></g>
<g style="fill:#000000; fill-opacity:0.0; 
stroke:#000000; stroke-width:0.150000; stroke-opacity:1; 
stroke-linecap:round; stroke-linejoin:round;">
<text x="140.760000" y="59.290000"
transform="scale(-1 1) translate(-281.520000 0)"
textLength="2.916667" font-size="1.333333" lengthAdjust="spacingAndGlyphs"
text-anchor="middle" opacity="0">J14</text>
<g class="stroked-text"><desc>J14</desc>
<path d="M141.569523 58.244819
L141.569523 58.959104
" />
<path d="M141.569523 58.959104
L141.617142 59.101961
" />
<path d="M141.617142 59.101961
L141.712380 59.197200
" />
<path d="M141.712380 59.197200
L141.855237 59.244819
" />
<path d="M141.855237 59.244819
L141.950475 59.244819
" />
<path d="M140.569523 59.244819
L141.140951 59.244819
" />
<path d="M140.855237 59.244819
L140.855237 58.244819
" />
<path d="M140.855237 58.244819
L140.950475 58.387676
" />
<path d="M140.950475 58.387676
L141.045713 58.482914
" />
<path d="M141.045713 58.482914
L141.140951 58.530533
" />
<path d="M139.712380 58.578152
L139.712380 59.244819
" />
<path d="M139.950475 58.197200
L140.188570 58.911485
" />
<path d="M140.188570 58.911485
L139.569523 58.911485
" />
</g><text x="127.000000" y="46.440000"
transform="scale(-1 1) translate(-254.000000 0)"
textLength="1.964286" font-size="1.333333" lengthAdjust="spacingAndGlyphs"
text-anchor="middle" opacity="0">J5</text>
<g class="stroked-text"><desc>J5</desc>
<path d="M127.333333 45.394819
L127.333333 46.109104
" />
<path d="M127.333333 46.109104
L127.380952 46.251961
" />
<path d="M127.380952 46.251961
L127.476190 46.347200
" />
<path d="M127.476190 46.347200
L127.619047 46.394819
" />
<path d="M127.619047 46.394819
L127.714285 46.394819
" />
<path d="M126.380952 45.394819
L126.857142 45.394819
" />
<path d="M126.857142 45.394819
L126.904761 45.871009
" />
<path d="M126.904761 45.871009
L126.857142 45.823390
" />
<path d="M126.857142 45.823390
L126.761904 45.775771
" />
<path d="M126.761904 45.775771
L126.523809 45.775771
" />
<path d="M126.523809 45.775771
L126.428571 45.823390
" />
<path d="M126.428571 45.823390
L126.380952 45.871009
" />
<path d="M126.380952 45.871009
L126.333333 45.966247
" />
<path d="M126.333333 45.966247
L126.333333 46.204342
" />
<path d="M126.333333 46.204342
L126.380952 46.299580
" />
<path d="M126.380952 46.299580
L126.428571 46.347200
" />
<path d="M126.428571 46.347200
L126.523809 46.394819
" />
<path d="M126.523809 46.394819
L126.761904 46.394819
" />
<path d="M126.761904 46.394819
L126.857142 46.347200
" />
<path d="M126.857142 46.347200
L126.904761 46.299580
" />
</g><text x="75.488800" y="40.835200"
transform="scale(-1 1) translate(-150.977600 0)"
textLength="2.250000" font-size="1.333333" lengthAdjust="spacingAndGlyphs"
text-anchor="middle" opacity="0">U1</text>
<g class="stroked-text"><desc>U1</desc>
<path d="M76.250704 39.790019
L76.250704 40.599542
" />
<path d="M76.250704 40.599542
L76.203085 40.694780
" />
<path d="M76.203085 40.694780
L76.155466 40.742400
" />
<path d="M76.155466 40.742400
L76.060228 40.790019
" />
<path d="M76.060228 40.790019
L75.869752 40.790019
" />
<path d="M75.869752 40.790019
L75.774514 40.742400
" />
<path d="M75.774514 40.742400
L75.726895 40.694780
" />
<path d="M75.726895 40.694780
L75.679276 40.599542
" />
<path d="M75.679276 40.599542
L75.679276 39.790019
" />
<path d="M74.679276 40.790019
L75.250704 40.790019
" />
<path d="M74.964990 40.790019
L74.964990 39.790019
" />
<path d="M74.964990 39.790019
L75.060228 39.932876
" />
<path d="M75.060228 39.932876
L75.155466 40.028114
" />
<path d="M75.155466 40.028114
L75.250704 40.075733
" />
</g><text x="58.623200" y="83.964400"
transform="scale(-1 1) translate(-117.246400 0)"
textLength="1.964286" font-size="1.333333" lengthAdjust="spacingAndGlyphs"
text-anchor="middle" opacity="0">J4</text>
<g class="stroked-text"><desc>J4</desc>
<path d="M58.956533 82.919219
L58.956533 83.633504
" />
<path d="M58.956533 83.633504
L59.004152 83.776361
" />
<path d="M59.004152 83.776361
L59.099390 83.871600
" />
<path d="M59.099390 83.871600
L59.242247 83.919219
" />
<path d="M59.242247 83.919219
L59.337485 83.919219
" />
<path d="M58.051771 83.252552
L58.051771 83.919219
" />
<path d="M58.289866 82.871600
L58.527961 83.585885
" />
<path d="M58.527961 83.585885
L57.908914 83.585885
" />
</g><text x="123.300000" y="69.000000"
transform="scale(-1 1) translate(-246.600000 0)"
textLength="1.964286" font-size="1.333333" lengthAdjust="spacingAndGlyphs"
text-anchor="middle" opacity="0">J8</text>
<g class="stroked-text"><desc>J8</desc>
<path d="M123.633333 67.954819
L123.633333 68.669104
" />
<path d="M123.633333 68.669104
L123.680952 68.811961
" />
<path d="M123.680952 68.811961
L123.776190 68.907200
" />
<path d="M123.776190 68.907200
L123.919047 68.954819
" />
<path d="M123.919047 68.954819
L124.014285 68.954819
" />
<path d="M123.014285 68.383390
L123.109523 68.335771
" />
<path d="M123.109523 68.335771
L123.157142 68.288152
" />
<path d="M123.157142 68.288152
L123.204761 68.192914
" />
<path d="M123.204761 68.192914
L123.204761 68.145295
" />
<path d="M123.204761 68.145295
L123.157142 68.050057
" />
<path d="M123.157142 68.050057
L123.109523 68.002438
" />
<path d="M123.109523 68.002438
L123.014285 67.954819
" />
<path d="M123.014285 67.954819
L122.823809 67.954819
" />
<path d="M122.823809 67.954819
L122.728571 68.002438
" />
<path d="M122.728571 68.002438
L122.680952 68.050057
" />
<path d="M122.680952 68.050057
L122.633333 68.145295
" />
<path d="M122.633333 68.145295
L122.633333 68.192914
" />
<path d="M122.633333 68.192914
L122.680952 68.288152
" />
<path d="M122.680952 68.288152
L122.728571 68.335771
" />
<path d="M122.728571 68.335771
L122.823809 68.383390
" />
<path d="M122.823809 68.383390
L123.014285 68.383390
" />
<path d="M123.014285 68.383390
L123.109523 68.431009
" />
<path d="M123.109523 68.431009
L123.157142 68.478628
" />
<path d="M123.157142 68.478628
L123.204761 68.573866
" />
<path d="M123.204761 68.573866
L123.204761 68.764342
" />
<path d="M123.204761 68.764342
L123.157142 68.859580
" />
<path d="M123.157142 68.859580
L123.109523 68.907200
" />
<path d="M123.109523 68.907200
L123.014285 68.954819
" />
<path d="M123.014285 68.954819
L122.823809 68.954819
" />
<path d="M122.823809 68.954819
L122.728571 68.907200
" />
<path d="M122.728571 68.907200
L122.680952 68.859580
" />
<path d="M122.680952 68.859580
L122.633333 68.764342
" />
<path d="M122.633333 68.764342
L122.633333 68.573866
" />
<path d="M122.633333 68.573866
L122.680952 68.478628
" />
<path d="M122.680952 68.478628
L122.728571 68.431009
" />
<path d="M122.728571 68.431009
L122.823809 68.383390
" />
</g></g>
<g style="fill:#000000; fill-opacity:0.0; 
stroke:#000000; stroke-width:0.100000; stroke-opacity:1; 
stroke-linecap:round; stroke-linejoin:round;">
<g transform="rotate(-270.000000 89.010000 74.640000)">
<text x="89.010000" y="75.140000"
transform="scale(-1 1) translate(-178.020000 0)"
textLength="1.909524" font-size="1.333333" lengthAdjust="spacingAndGlyphs"
text-anchor="middle" opacity="0">F2</text>
</g>
<g class="stroked-text"><desc>F2</desc>
<path d="M89.076390 74.973333
L89.076390 75.306666
" />
<path d="M88.552580 75.306666
L89.552580 75.306666
" />
<path d="M89.552580 75.306666
L89.552580 74.830476
" />
<path d="M89.457342 74.497142
L89.504961 74.449523
" />
<path d="M89.504961 74.449523
L89.552580 74.354285
" />
<path d="M89.552580 74.354285
L89.552580 74.116190
" />
<path d="M89.552580 74.116190
L89.504961 74.020952
" />
<path d="M89.504961 74.020952
L89.457342 73.973333
" />
<path d="M89.457342 73.973333
L89.362104 73.925714
" />
<path d="M89.362104 73.925714
L89.266866 73.925714
" />
<path d="M89.266866 73.925714
L89.124009 73.973333
" />
<path d="M89.124009 73.973333
L88.552580 74.544761
" />
<path d="M88.552580 74.544761
L88.552580 73.925714
" />
</g></g>
<g style="fill:#000000; fill-opacity:0.0; 
stroke:#000000; stroke-width:0.150000; stroke-opacity:1; 
stroke-linecap:round; stroke-linejoin:round;">
<text x="30.486800" y="38.924600"
transform="scale(-1 1) translate(-60.973600 0)"
textLength="2.916667" font-size="1.333333" lengthAdjust="spacingAndGlyphs"
text-anchor="middle" opacity="0">J15</text>
<g class="stroked-text"><desc>J15</desc>
<path d="M31.296323 37.879419
L31.296323 38.593704
" />
<path d="M31.296323 38.593704
L31.343942 38.736561
" />
<path d="M31.343942 38.736561
L31.439180 38.831800
" />
<path d="M31.439180 38.831800
L31.582037 38.879419
" />
<path d="M31.582037 38.879419
L31.677275 38.879419
" />
<path d="M30.296323 38.879419
L30.867751 38.879419
" />
<path d="M30.582037 38.879419
L30.582037 37.879419
" />
<path d="M30.582037 37.879419
L30.677275 38.022276
" />
<path d="M30.677275 38.022276
L30.772513 38.117514
" />
<path d="M30.772513 38.117514
L30.867751 38.165133
" />
<path d="M29.391561 37.879419
L29.867751 37.879419
" />
<path d="M29.867751 37.879419
L29.915370 38.355609
" />
<path d="M29.915370 38.355609
L29.867751 38.307990
" />
<path d="M29.867751 38.307990
L29.772513 38.260371
" />
<path d="M29.772513 38.260371
L29.534418 38.260371
" />
<path d="M29.534418 38.260371
L29.439180 38.307990
" />
<path d="M29.439180 38.307990
L29.391561 38.355609
" />
<path d="M29.391561 38.355609
L29.343942 38.450847
" />
<path d="M29.343942 38.450847
L29.343942 38.688942
" />
<path d="M29.343942 38.688942
L29.391561 38.784180
" />
<path d="M29.391561 38.784180
L29.439180 38.831800
" />
<path d="M29.439180 38.831800
L29.534418 38.879419
" />
<path d="M29.534418 38.879419
L29.772513 38.879419
" />
<path d="M29.772513 38.879419
L29.867751 38.831800
" />
<path d="M29.867751 38.831800
L29.915370 38.784180
" />
</g></g>
<g style="fill:#000000; fill-opacity:0.0; 
stroke:#000000; stroke-width:0.120000; stroke-opacity:1; 
stroke-linecap:round; stroke-linejoin:round;">
<path d="M48.260000 107.650000
L48.260000 106.320000
" />
<path d="M49.590000 107.650000
L48.260000 107.650000
" />
<path d="M50.860000 107.650000
L99.180000 107.650000
" />
<path d="M50.860000 107.650000
L50.860000 105.050000
" />
<path d="M99.180000 107.650000
L99.180000 102.450000
" />
<path d="M48.260000 105.050000
L48.260000 102.450000
" />
<path d="M50.860000 105.050000
L48.260000 105.050000
" />
<path d="M48.260000 102.450000
L99.180000 102.450000
" />
</g>
<g style="fill:#000000; fill-opacity:0.0; 
stroke:#000000; stroke-width:0.100000; stroke-opacity:1; 
stroke-linecap:round; stroke-linejoin:round;">
<path d="M46.220000 125.050000
L101.220000 125.050000
" />
<path d="M101.220000 125.050000
L101.220000 85.050000
" />
<path d="M101.220000 85.050000
L46.220000 85.050000
" />
<path d="M46.220000 85.050000
L46.220000 125.050000
" />
</g>
<g style="fill:#000000; fill-opacity:0.0; 
stroke:#000000; stroke-width:0.120000; stroke-opacity:1; 
stroke-linecap:round; stroke-linejoin:round;">
<path d="M112.295000 88.830000
L114.955000 88.830000
" />
<path d="M112.295000 96.510000
L112.295000 88.830000
" />
<path d="M112.295000 96.510000
L114.955000 96.510000
" />
<path d="M112.295000 97.780000
L112.295000 99.110000
" />
<path d="M112.295000 99.110000
L113.625000 99.110000
" />
<path d="M114.955000 96.510000
L114.955000 88.830000
" />
<path d="M138.000000 58.445000
L139.270000 58.445000
" />
<path d="M139.270000 58.445000
L139.270000 57.175000
" />
<path d="M135.080000 56.132071
L135.080000 55.735000
" />
<path d="M135.840000 56.132071
L135.840000 55.735000
" />
<path d="M137.620000 56.065000
L137.620000 55.735000
" />
<path d="M138.380000 56.065000
L138.380000 55.735000
" />
<path d="M134.130000 55.735000
L134.130000 53.075000
" />
<path d="M136.730000 55.735000
L136.730000 53.075000
" />
<path d="M139.330000 55.735000
L134.130000 55.735000
" />
<path d="M134.130000 53.075000
L139.330000 53.075000
" />
<path d="M135.840000 53.075000
L135.840000 47.075000
" />
<path d="M137.720000 53.075000
L137.720000 47.075000
" />
<path d="M137.840000 53.075000
L137.840000 47.075000
" />
<path d="M137.960000 53.075000
L137.960000 47.075000
" />
<path d="M138.080000 53.075000
L138.080000 47.075000
" />
<path d="M138.200000 53.075000
L138.200000 47.075000
" />
<path d="M138.320000 53.075000
L138.320000 47.075000
" />
<path d="M138.380000 53.075000
L138.380000 47.075000
" />
<path d="M139.330000 53.075000
L139.330000 55.735000
" />
<path d="M135.080000 47.075000
L135.080000 53.075000
" />
<path d="M135.840000 47.075000
L135.080000 47.075000
" />
<path d="M137.620000 47.075000
L137.620000 53.075000
" />
<path d="M138.380000 47.075000
L137.620000 47.075000
" />
</g>
<g style="fill:#000000; fill-opacity:0.0; 
stroke:#000000; stroke-width:0.100000; stroke-opacity:1; 
stroke-linecap:round; stroke-linejoin:round;">
<circle cx="127.000000" cy="50.006248" r="0.914753" /> 
<circle cx="127.000000" cy="48.000000" r="0.914400" /> 
</g>
<g style="fill:#000000; fill-opacity:0.0; 
stroke:#000000; stroke-width:0.120000; stroke-opacity:1; 
stroke-linecap:round; stroke-linejoin:round;">
<path d="M80.300000 59.500000
L79.900000 59.500000
" />
<path d="M82.900000 59.500000
L82.500000 59.500000
" />
<path d="M85.400000 59.500000
L85.000000 59.500000
" />
<path d="M87.900000 59.500000
L87.500000 59.500000
" />
<path d="M90.500000 59.500000
L90.100000 59.500000
" />
<path d="M93.000000 59.500000
L92.600000 59.500000
" />
<path d="M95.600000 59.500000
L95.200000 59.500000
" />
<path d="M98.100000 59.500000
L97.700000 59.500000
" />
<path d="M100.700000 59.500000
L100.300000 59.500000
" />
<path d="M103.200000 59.500000
L102.800000 59.500000
" />
<path d="M105.700000 59.500000
L105.300000 59.500000
" />
<path d="M108.300000 59.500000
L107.900000 59.500000
" />
<path d="M110.800000 59.500000
L110.400000 59.500000
" />
<path d="M113.400000 59.500000
L113.000000 59.500000
" />
<path d="M115.900000 59.500000
L115.500000 59.500000
" />
<path d="M118.400000 59.500000
L118.000000 59.500000
" />
<path d="M121.000000 59.500000
L120.600000 59.500000
" />
<path d="M123.500000 59.500000
L123.100000 59.500000
" />
<path d="M125.833000 59.500000
L125.833000 56.493000
" />
<path d="M126.100000 59.500000
L125.700000 59.500000
" />
<path d="M128.500000 59.500000
L128.200000 59.500000
" />
<path d="M125.833000 56.493000
L128.500000 56.493000
" />
<path d="M77.500000 52.700000
L77.500000 59.500000
" />
<path d="M77.500000 50.500000
L77.500000 50.100000
" />
<path d="M77.500000 47.900000
L77.500000 47.500000
" />
<path d="M77.500000 38.500000
L77.500000 45.300000
" />
<path d="M80.300000 38.500000
L79.900000 38.500000
" />
<path d="M82.900000 38.500000
L82.500000 38.500000
" />
<path d="M85.400000 38.500000
L85.000000 38.500000
" />
<path d="M87.900000 38.500000
L87.500000 38.500000
" />
<path d="M90.500000 38.500000
L90.100000 38.500000
" />
<path d="M93.000000 38.500000
L92.600000 38.500000
" />
<path d="M95.600000 38.500000
L95.200000 38.500000
" />
<path d="M98.100000 38.500000
L97.700000 38.500000
" />
<path d="M100.700000 38.500000
L100.300000 38.500000
" />
<path d="M103.200000 38.500000
L102.800000 38.500000
" />
<path d="M105.700000 38.500000
L105.300000 38.500000
" />
<path d="M108.300000 38.500000
L107.900000 38.500000
" />
<path d="M110.800000 38.500000
L110.400000 38.500000
" />
<path d="M113.400000 38.500000
L113.000000 38.500000
" />
<path d="M115.900000 38.500000
L115.500000 38.500000
" />
<path d="M118.400000 38.500000
L118.000000 38.500000
" />
<path d="M121.000000 38.500000
L120.600000 38.500000
" />
<path d="M123.500000 38.500000
L123.100000 38.500000
" />
<path d="M126.100000 38.500000
L125.700000 38.500000
" />
<path d="M128.500000 38.500000
L128.200000 38.500000
" />
<path d="M55.865000 84.232600
L57.135000 84.232600
" />
<path d="M57.135000 84.232600
L57.135000 82.962600
" />
<path d="M50.405000 81.919671
L50.405000 81.522600
" />
<path d="M51.165000 81.919671
L51.165000 81.522600
" />
<path d="M52.945000 81.919671
L52.945000 81.522600
" />
<path d="M53.705000 81.919671
L53.705000 81.522600
" />
<path d="M55.485000 81.852600
L55.485000 81.522600
" />
<path d="M56.245000 81.852600
L56.245000 81.522600
" />
<path d="M49.455000 81.522600
L49.455000 78.862600
" />
<path d="M52.055000 81.522600
L52.055000 78.862600
" />
<path d="M54.595000 81.522600
L54.595000 78.862600
" />
<path d="M57.195000 81.522600
L49.455000 81.522600
" />
<path d="M49.455000 78.862600
L57.195000 78.862600
" />
<path d="M51.165000 78.862600
L51.165000 72.862600
" />
<path d="M53.705000 78.862600
L53.705000 72.862600
" />
<path d="M55.585000 78.862600
L55.585000 72.862600
" />
<path d="M55.705000 78.862600
L55.705000 72.862600
" />
<path d="M55.825000 78.862600
L55.825000 72.862600
" />
<path d="M55.945000 78.862600
L55.945000 72.862600
" />
<path d="M56.065000 78.862600
L56.065000 72.862600
" />
<path d="M56.185000 78.862600
L56.185000 72.862600
" />
<path d="M56.245000 78.862600
L56.245000 72.862600
" />
<path d="M57.195000 78.862600
L57.195000 81.522600
" />
<path d="M50.405000 72.862600
L50.405000 78.862600
" />
<path d="M51.165000 72.862600
L50.405000 72.862600
" />
<path d="M52.945000 72.862600
L52.945000 78.862600
" />
<path d="M53.705000 72.862600
L52.945000 72.862600
" />
<path d="M55.485000 72.862600
L55.485000 78.862600
" />
<path d="M56.245000 72.862600
L55.485000 72.862600
" />
</g>
<g style="fill:#000000; fill-opacity:0.0; 
stroke:#000000; stroke-width:0.100000; stroke-opacity:1; 
stroke-linecap:round; stroke-linejoin:round;">
<path d="M171.480000 63.505600
L171.480000 121.505600
" />
<path d="M167.730000 125.005600
L167.980000 125.005600
" />
</g>
<g style="fill:#000000; fill-opacity:0.0; 
stroke:#000000; stroke-width:0.120000; stroke-opacity:1; 
stroke-linecap:round; stroke-linejoin:round;">
<path d="M158.790000 123.020600
L158.790000 117.820600
" />
<path d="M157.885000 76.115600
L157.885000 81.255600
" />
<path d="M157.885000 73.515600
L157.885000 74.845600
" />
<path d="M156.555000 73.515600
L157.885000 73.515600
" />
<path d="M155.285000 76.115600
L157.885000 76.115600
" />
<path d="M155.285000 73.515600
L155.285000 76.115600
" />
<path d="M153.650000 120.420600
L153.650000 117.820600
" />
<path d="M153.650000 117.820600
L158.790000 117.820600
" />
<path d="M152.685000 81.255600
L157.885000 81.255600
" />
<path d="M152.685000 73.515600
L155.285000 73.515600
" />
<path d="M152.685000 73.515600
L152.685000 81.255600
" />
<path d="M151.050000 123.020600
L158.790000 123.020600
" />
<path d="M151.050000 123.020600
L151.050000 120.420600
" />
<path d="M151.050000 120.420600
L153.650000 120.420600
" />
<path d="M151.050000 119.150600
L151.050000 117.820600
" />
<path d="M151.050000 117.820600
L152.380000 117.820600
" />
<path d="M121.580000 69.645600
L121.580000 117.965600
" />
<path d="M121.580000 67.045600
L121.580000 68.375600
" />
<path d="M120.250000 67.045600
L121.580000 67.045600
" />
<path d="M118.980000 69.645600
L121.580000 69.645600
" />
<path d="M118.980000 67.045600
L118.980000 69.645600
" />
</g>
<g style="fill:#000000; fill-opacity:0.0; 
stroke:#000000; stroke-width:0.100000; stroke-opacity:1; 
stroke-linecap:round; stroke-linejoin:round;">
<path d="M118.980000 60.005600
L167.980000 60.005600
" />
<path d="M118.980000 60.005600
L118.480000 60.005243
" />
<path d="M118.230000 125.005600
L167.730000 125.005600
" />
</g>
<g style="fill:#000000; fill-opacity:0.0; 
stroke:#000000; stroke-width:0.120000; stroke-opacity:1; 
stroke-linecap:round; stroke-linejoin:round;">
<path d="M116.380000 117.965600
L121.580000 117.965600
" />
<path d="M116.380000 67.045600
L118.980000 67.045600
" />
<path d="M116.380000 67.045600
L116.380000 117.965600
" />
</g>
<g style="fill:#000000; fill-opacity:0.0; 
stroke:#000000; stroke-width:0.100000; stroke-opacity:1; 
stroke-linecap:round; stroke-linejoin:round;">
<path d="M114.980000 121.505600
L114.980000 63.555600
" />
<path d="M167.980000 125.005600 A3.499999 3.499999 0.0 0 0 171.480000 121.505600" />
<path d="M171.480000 63.505600 A3.499999 3.499999 0.0 0 0 167.980000 60.005600" />
<path d="M114.980000 121.505600 A3.500000 3.500000 0.0 0 0 118.480000 125.005600" />
<path d="M118.480000 60.005243 A3.500357 3.500357 0.0 0 0 114.980000 63.555600" />
<circle cx="167.980000" cy="121.505600" r="1.651000" /> 
<circle cx="167.980000" cy="63.505600" r="1.651000" /> 
<circle cx="118.980000" cy="121.505600" r="1.651000" /> 
<circle cx="118.980000" cy="63.505600" r="1.651000" /> 
</g>
<g style="fill:#000000; fill-opacity:0.0; 
stroke:#000000; stroke-width:0.120000; stroke-opacity:1; 
stroke-linecap:round; stroke-linejoin:round;">
<path d="M36.920000 30.975000
L36.920000 29.705000
" />
<path d="M36.920000 29.705000
L35.650000 29.705000
" />
<path d="M34.607071 36.435000
L34.152929 36.435000
" />
<path d="M34.607071 35.675000
L34.152929 35.675000
" />
<path d="M34.607071 33.895000
L34.152929 33.895000
" />
<path d="M34.607071 33.135000
L34.152929 33.135000
" />
<path d="M34.540000 31.355000
L34.152929 31.355000
" />
<path d="M34.540000 30.595000
L34.152929 30.595000
" />
<path d="M32.067071 36.435000
L31.670000 36.435000
" />
<path d="M32.067071 35.675000
L31.670000 35.675000
" />
<path d="M32.067071 33.895000
L31.670000 33.895000
" />
<path d="M32.067071 33.135000
L31.670000 33.135000
" />
<path d="M32.067071 31.355000
L31.670000 31.355000
" />
<path d="M32.067071 30.595000
L31.670000 30.595000
" />
<path d="M31.670000 37.385000
L29.010000 37.385000
" />
<path d="M31.670000 34.785000
L29.010000 34.785000
" />
<path d="M31.670000 32.245000
L29.010000 32.245000
" />
<path d="M31.670000 29.645000
L31.670000 37.385000
" />
<path d="M29.010000 37.385000
L29.010000 29.645000
" />
<path d="M29.010000 35.675000
L23.010000 35.675000
" />
<path d="M29.010000 33.135000
L23.010000 33.135000
" />
<path d="M29.010000 31.255000
L23.010000 31.255000
" />
<path d="M29.010000 31.135000
L23.010000 31.135000
" />
<path d="M29.010000 31.015000
L23.010000 31.015000
" />
<path d="M29.010000 30.895000
L23.010000 30.895000
" />
<path d="M29.010000 30.775000
L23.010000 30.775000
" />
<path d="M29.010000 30.655000
L23.010000 30.655000
" />
<path d="M29.010000 30.595000
L23.010000 30.595000
" />
<path d="M29.010000 29.645000
L31.670000 29.645000
" />
<path d="M23.010000 36.435000
L29.010000 36.435000
" />
<path d="M23.010000 35.675000
L23.010000 36.435000
" />
<path d="M23.010000 33.895000
L29.010000 33.895000
" />
<path d="M23.010000 33.135000
L23.010000 33.895000
" />
<path d="M23.010000 31.355000
L29.010000 31.355000
" />
<path d="M23.010000 30.595000
L23.010000 31.355000
" />
<g >
</g>
<g >
</g>
<g >
</g>
<g >
</g>
<g >
</g>
<g >
</g>
<g >
</g>
<g >
</g>
<g >
</g>
<g >
</g>
<g >
</g>
<g >
</g>
<g >
</g>
<g >
</g>
<g >
</g>
<g >
</g>
<g >
</g>
<g >
</g>
<g >
</g>
<g >
</g>
<g >
</g>
<g >
</g>
<g >
</g>
<g >
</g>
<g >
</g>
<g >
</g>
<g >
</g>
<g >
</g>
<g >
</g>
<g >
</g>
<g >
</g>
<g >
</g>
<g >
</g>
<g >
</g>
<g >
</g>
<g >
</g>
<g >
</g>
<g >
</g>
<g >
</g>
<g >
</g>
<g >
</g>
<g >
</g>
<g >
</g>
<g >
</g>
<g >
</g>
<g >
</g>
<g >
</g>
<g >
</g>
<g >
</g>
<g >
</g>
<g >
</g>
<g >
</g>
<g >
</g>
<g >
</g>
<g >
</g>
<g >
</g>
<g >
</g>
<g >
</g>
<g >
</g>
<g >
</g>
<g >
</g>
<g >
</g>
<g >
</g>
<g >
</g>
<g >
</g>
<g >
</g>
<g >
</g>
<g >
</g>
<g >
</g>
<g >
</g>
<g >
</g>
<g >
</g>
<g >
</g>
<g >
</g>
<g >
</g>
<g >
</g>
<g >
</g>
<g >
</g>
<g >
</g>
<g >
</g>
<g >
</g>
<g >
</g>
<g >
</g>
<g >
</g>
<g >
</g>
<g >
</g>
</g> 
</svg>
