<?xml version="1.0" standalone="no"?>
 <!DOCTYPE svg PUBLIC "-//W3C//DTD SVG 1.1//EN" 
 "http://www.w3.org/Graphics/SVG/1.1/DTD/svg11.dtd"> 
<svg
  xmlns:svg="http://www.w3.org/2000/svg"
  xmlns="http://www.w3.org/2000/svg"
  xmlns:xlink="http://www.w3.org/1999/xlink"
  version="1.1"
  width="17.61cm" height="11.31cm" viewBox="16.95 18.95 176.1 113.1">
<title>SVG Image created as pedalboard-hw-B_SilkS.svg date 2023/10/16 19:41:48 </title>
  <desc>Image generated by PCBNEW </desc>
<g style="fill:#000000; fill-opacity:1.000000;stroke:#000000; stroke-opacity:1.000000;
stroke-linecap:round; stroke-linejoin:round;"
 transform="translate(0 0) scale(1 1)">
</g>
<g style="fill:#000000; fill-opacity:0.0; 
stroke:#000000; stroke-width:0.000000; stroke-opacity:1; 
stroke-linecap:round; stroke-linejoin:round;">
</g>
<g style="fill:#000000; fill-opacity:0.0; 
stroke:#000000; stroke-width:0.150000; stroke-opacity:1; 
stroke-linecap:round; stroke-linejoin:round;">
<g transform="rotate(90.000000 42.000000 123.000000)">
<text x="42.000000" y="123.000000"
transform="scale(-1 1) translate(-84.000000 0)"
textLength="3.297619" font-size="1.333333" lengthAdjust="spacingAndGlyphs"
text-anchor="start" opacity="0">GND</text>
</g>
<g class="stroked-text"><desc>GND</desc>
<path d="M43.082561 122.139411
L43.130180 122.234649
" />
<path d="M43.130180 122.234649
L43.130180 122.377506
" />
<path d="M43.130180 122.377506
L43.082561 122.520363
" />
<path d="M43.082561 122.520363
L42.987323 122.615601
" />
<path d="M42.987323 122.615601
L42.892085 122.663220
" />
<path d="M42.892085 122.663220
L42.701609 122.710839
" />
<path d="M42.701609 122.710839
L42.558752 122.710839
" />
<path d="M42.558752 122.710839
L42.368276 122.663220
" />
<path d="M42.368276 122.663220
L42.273038 122.615601
" />
<path d="M42.273038 122.615601
L42.177800 122.520363
" />
<path d="M42.177800 122.520363
L42.130180 122.377506
" />
<path d="M42.130180 122.377506
L42.130180 122.282268
" />
<path d="M42.130180 122.282268
L42.177800 122.139411
" />
<path d="M42.177800 122.139411
L42.225419 122.091792
" />
<path d="M42.225419 122.091792
L42.558752 122.091792
" />
<path d="M42.558752 122.091792
L42.558752 122.282268
" />
<path d="M42.130180 121.663220
L43.130180 121.663220
" />
<path d="M43.130180 121.663220
L42.130180 121.091792
" />
<path d="M42.130180 121.091792
L43.130180 121.091792
" />
<path d="M42.130180 120.615601
L43.130180 120.615601
" />
<path d="M43.130180 120.615601
L43.130180 120.377506
" />
<path d="M43.130180 120.377506
L43.082561 120.234649
" />
<path d="M43.082561 120.234649
L42.987323 120.139411
" />
<path d="M42.987323 120.139411
L42.892085 120.091792
" />
<path d="M42.892085 120.091792
L42.701609 120.044173
" />
<path d="M42.701609 120.044173
L42.558752 120.044173
" />
<path d="M42.558752 120.044173
L42.368276 120.091792
" />
<path d="M42.368276 120.091792
L42.273038 120.139411
" />
<path d="M42.273038 120.139411
L42.177800 120.234649
" />
<path d="M42.177800 120.234649
L42.130180 120.377506
" />
<path d="M42.130180 120.377506
L42.130180 120.615601
" />
</g><g transform="rotate(90.000000 39.882800 123.000000)">
<text x="39.882800" y="123.000000"
transform="scale(-1 1) translate(-79.765600 0)"
textLength="6.773811" font-size="1.333333" lengthAdjust="spacingAndGlyphs"
text-anchor="start" opacity="0">Data out</text>
</g>
<g class="stroked-text"><desc>Data out</desc>
<path d="M40.012980 122.663220
L41.012980 122.663220
" />
<path d="M41.012980 122.663220
L41.012980 122.425125
" />
<path d="M41.012980 122.425125
L40.965361 122.282268
" />
<path d="M40.965361 122.282268
L40.870123 122.187030
" />
<path d="M40.870123 122.187030
L40.774885 122.139411
" />
<path d="M40.774885 122.139411
L40.584409 122.091792
" />
<path d="M40.584409 122.091792
L40.441552 122.091792
" />
<path d="M40.441552 122.091792
L40.251076 122.139411
" />
<path d="M40.251076 122.139411
L40.155838 122.187030
" />
<path d="M40.155838 122.187030
L40.060600 122.282268
" />
<path d="M40.060600 122.282268
L40.012980 122.425125
" />
<path d="M40.012980 122.425125
L40.012980 122.663220
" />
<path d="M40.012980 121.234649
L40.536790 121.234649
" />
<path d="M40.536790 121.234649
L40.632028 121.282268
" />
<path d="M40.632028 121.282268
L40.679647 121.377506
" />
<path d="M40.679647 121.377506
L40.679647 121.567982
" />
<path d="M40.679647 121.567982
L40.632028 121.663220
" />
<path d="M40.060600 121.234649
L40.012980 121.329887
" />
<path d="M40.012980 121.329887
L40.012980 121.567982
" />
<path d="M40.012980 121.567982
L40.060600 121.663220
" />
<path d="M40.060600 121.663220
L40.155838 121.710839
" />
<path d="M40.155838 121.710839
L40.251076 121.710839
" />
<path d="M40.251076 121.710839
L40.346314 121.663220
" />
<path d="M40.346314 121.663220
L40.393933 121.567982
" />
<path d="M40.393933 121.567982
L40.393933 121.329887
" />
<path d="M40.393933 121.329887
L40.441552 121.234649
" />
<path d="M40.679647 120.901315
L40.679647 120.520363
" />
<path d="M41.012980 120.758458
L40.155838 120.758458
" />
<path d="M40.155838 120.758458
L40.060600 120.710839
" />
<path d="M40.060600 120.710839
L40.012980 120.615601
" />
<path d="M40.012980 120.615601
L40.012980 120.520363
" />
<path d="M40.012980 119.758458
L40.536790 119.758458
" />
<path d="M40.536790 119.758458
L40.632028 119.806077
" />
<path d="M40.632028 119.806077
L40.679647 119.901315
" />
<path d="M40.679647 119.901315
L40.679647 120.091791
" />
<path d="M40.679647 120.091791
L40.632028 120.187029
" />
<path d="M40.060600 119.758458
L40.012980 119.853696
" />
<path d="M40.012980 119.853696
L40.012980 120.091791
" />
<path d="M40.012980 120.091791
L40.060600 120.187029
" />
<path d="M40.060600 120.187029
L40.155838 120.234648
" />
<path d="M40.155838 120.234648
L40.251076 120.234648
" />
<path d="M40.251076 120.234648
L40.346314 120.187029
" />
<path d="M40.346314 120.187029
L40.393933 120.091791
" />
<path d="M40.393933 120.091791
L40.393933 119.853696
" />
<path d="M40.393933 119.853696
L40.441552 119.758458
" />
<path d="M40.012980 118.377505
L40.060600 118.472743
" />
<path d="M40.060600 118.472743
L40.108219 118.520362
" />
<path d="M40.108219 118.520362
L40.203457 118.567981
" />
<path d="M40.203457 118.567981
L40.489171 118.567981
" />
<path d="M40.489171 118.567981
L40.584409 118.520362
" />
<path d="M40.584409 118.520362
L40.632028 118.472743
" />
<path d="M40.632028 118.472743
L40.679647 118.377505
" />
<path d="M40.679647 118.377505
L40.679647 118.234648
" />
<path d="M40.679647 118.234648
L40.632028 118.139410
" />
<path d="M40.632028 118.139410
L40.584409 118.091791
" />
<path d="M40.584409 118.091791
L40.489171 118.044172
" />
<path d="M40.489171 118.044172
L40.203457 118.044172
" />
<path d="M40.203457 118.044172
L40.108219 118.091791
" />
<path d="M40.108219 118.091791
L40.060600 118.139410
" />
<path d="M40.060600 118.139410
L40.012980 118.234648
" />
<path d="M40.012980 118.234648
L40.012980 118.377505
" />
<path d="M40.679647 117.187029
L40.012980 117.187029
" />
<path d="M40.679647 117.615600
L40.155838 117.615600
" />
<path d="M40.155838 117.615600
L40.060600 117.567981
" />
<path d="M40.060600 117.567981
L40.012980 117.472743
" />
<path d="M40.012980 117.472743
L40.012980 117.329886
" />
<path d="M40.012980 117.329886
L40.060600 117.234648
" />
<path d="M40.060600 117.234648
L40.108219 117.187029
" />
<path d="M40.679647 116.853695
L40.679647 116.472743
" />
<path d="M41.012980 116.710838
L40.155838 116.710838
" />
<path d="M40.155838 116.710838
L40.060600 116.663219
" />
<path d="M40.060600 116.663219
L40.012980 116.567981
" />
<path d="M40.012980 116.567981
L40.012980 116.472743
" />
</g><text x="55.000000" y="29.000000"
transform="scale(-1 1) translate(-110.000000 0)"
textLength="1.773809" font-size="1.333333" lengthAdjust="spacingAndGlyphs"
text-anchor="start" opacity="0">IN</text>
<g class="stroked-text"><desc>IN</desc>
<path d="M54.663220 28.869819
L54.663220 27.869819
" />
<path d="M54.187030 28.869819
L54.187030 27.869819
" />
<path d="M54.187030 27.869819
L53.615602 28.869819
" />
<path d="M53.615602 28.869819
L53.615602 27.869819
" />
</g><g transform="rotate(-90.000000 189.230000 36.576000)">
<text x="189.230000" y="36.576000"
transform="scale(-1 1) translate(-378.460000 0)"
textLength="3.297619" font-size="1.333333" lengthAdjust="spacingAndGlyphs"
text-anchor="start" opacity="0">GND</text>
</g>
<g class="stroked-text"><desc>GND</desc>
<path d="M188.147438 37.436588
L188.099819 37.341350
" />
<path d="M188.099819 37.341350
L188.099819 37.198493
" />
<path d="M188.099819 37.198493
L188.147438 37.055636
" />
<path d="M188.147438 37.055636
L188.242676 36.960398
" />
<path d="M188.242676 36.960398
L188.337914 36.912779
" />
<path d="M188.337914 36.912779
L188.528390 36.865160
" />
<path d="M188.528390 36.865160
L188.671247 36.865160
" />
<path d="M188.671247 36.865160
L188.861723 36.912779
" />
<path d="M188.861723 36.912779
L188.956961 36.960398
" />
<path d="M188.956961 36.960398
L189.052200 37.055636
" />
<path d="M189.052200 37.055636
L189.099819 37.198493
" />
<path d="M189.099819 37.198493
L189.099819 37.293731
" />
<path d="M189.099819 37.293731
L189.052200 37.436588
" />
<path d="M189.052200 37.436588
L189.004580 37.484207
" />
<path d="M189.004580 37.484207
L188.671247 37.484207
" />
<path d="M188.671247 37.484207
L188.671247 37.293731
" />
<path d="M189.099819 37.912779
L188.099819 37.912779
" />
<path d="M188.099819 37.912779
L189.099819 38.484207
" />
<path d="M189.099819 38.484207
L188.099819 38.484207
" />
<path d="M189.099819 38.960398
L188.099819 38.960398
" />
<path d="M188.099819 38.960398
L188.099819 39.198493
" />
<path d="M188.099819 39.198493
L188.147438 39.341350
" />
<path d="M188.147438 39.341350
L188.242676 39.436588
" />
<path d="M188.242676 39.436588
L188.337914 39.484207
" />
<path d="M188.337914 39.484207
L188.528390 39.531826
" />
<path d="M188.528390 39.531826
L188.671247 39.531826
" />
<path d="M188.671247 39.531826
L188.861723 39.484207
" />
<path d="M188.861723 39.484207
L188.956961 39.436588
" />
<path d="M188.956961 39.436588
L189.052200 39.341350
" />
<path d="M189.052200 39.341350
L189.099819 39.198493
" />
<path d="M189.099819 39.198493
L189.099819 38.960398
" />
</g><text x="142.800000" y="54.900000"
transform="scale(-1 1) translate(-285.600000 0)"
textLength="5.821429" font-size="1.333333" lengthAdjust="spacingAndGlyphs"
text-anchor="start" opacity="0">5V PSU</text>
<g class="stroked-text"><desc>5V PSU</desc>
<path d="M141.987030 53.769819
L142.463220 53.769819
" />
<path d="M142.463220 53.769819
L142.510839 54.246009
" />
<path d="M142.510839 54.246009
L142.463220 54.198390
" />
<path d="M142.463220 54.198390
L142.367982 54.150771
" />
<path d="M142.367982 54.150771
L142.129887 54.150771
" />
<path d="M142.129887 54.150771
L142.034649 54.198390
" />
<path d="M142.034649 54.198390
L141.987030 54.246009
" />
<path d="M141.987030 54.246009
L141.939411 54.341247
" />
<path d="M141.939411 54.341247
L141.939411 54.579342
" />
<path d="M141.939411 54.579342
L141.987030 54.674580
" />
<path d="M141.987030 54.674580
L142.034649 54.722200
" />
<path d="M142.034649 54.722200
L142.129887 54.769819
" />
<path d="M142.129887 54.769819
L142.367982 54.769819
" />
<path d="M142.367982 54.769819
L142.463220 54.722200
" />
<path d="M142.463220 54.722200
L142.510839 54.674580
" />
<path d="M141.653696 53.769819
L141.320363 54.769819
" />
<path d="M141.320363 54.769819
L140.987030 53.769819
" />
<path d="M139.891791 54.769819
L139.891791 53.769819
" />
<path d="M139.891791 53.769819
L139.510839 53.769819
" />
<path d="M139.510839 53.769819
L139.415601 53.817438
" />
<path d="M139.415601 53.817438
L139.367982 53.865057
" />
<path d="M139.367982 53.865057
L139.320363 53.960295
" />
<path d="M139.320363 53.960295
L139.320363 54.103152
" />
<path d="M139.320363 54.103152
L139.367982 54.198390
" />
<path d="M139.367982 54.198390
L139.415601 54.246009
" />
<path d="M139.415601 54.246009
L139.510839 54.293628
" />
<path d="M139.510839 54.293628
L139.891791 54.293628
" />
<path d="M138.939410 54.722200
L138.796553 54.769819
" />
<path d="M138.796553 54.769819
L138.558458 54.769819
" />
<path d="M138.558458 54.769819
L138.463220 54.722200
" />
<path d="M138.463220 54.722200
L138.415601 54.674580
" />
<path d="M138.415601 54.674580
L138.367982 54.579342
" />
<path d="M138.367982 54.579342
L138.367982 54.484104
" />
<path d="M138.367982 54.484104
L138.415601 54.388866
" />
<path d="M138.415601 54.388866
L138.463220 54.341247
" />
<path d="M138.463220 54.341247
L138.558458 54.293628
" />
<path d="M138.558458 54.293628
L138.748934 54.246009
" />
<path d="M138.748934 54.246009
L138.844172 54.198390
" />
<path d="M138.844172 54.198390
L138.891791 54.150771
" />
<path d="M138.891791 54.150771
L138.939410 54.055533
" />
<path d="M138.939410 54.055533
L138.939410 53.960295
" />
<path d="M138.939410 53.960295
L138.891791 53.865057
" />
<path d="M138.891791 53.865057
L138.844172 53.817438
" />
<path d="M138.844172 53.817438
L138.748934 53.769819
" />
<path d="M138.748934 53.769819
L138.510839 53.769819
" />
<path d="M138.510839 53.769819
L138.367982 53.817438
" />
<path d="M137.939410 53.769819
L137.939410 54.579342
" />
<path d="M137.939410 54.579342
L137.891791 54.674580
" />
<path d="M137.891791 54.674580
L137.844172 54.722200
" />
<path d="M137.844172 54.722200
L137.748934 54.769819
" />
<path d="M137.748934 54.769819
L137.558458 54.769819
" />
<path d="M137.558458 54.769819
L137.463220 54.722200
" />
<path d="M137.463220 54.722200
L137.415601 54.674580
" />
<path d="M137.415601 54.674580
L137.367982 54.579342
" />
<path d="M137.367982 54.579342
L137.367982 53.769819
" />
</g><text x="62.000000" y="54.780000"
transform="scale(-1 1) translate(-124.000000 0)"
textLength="13.154764" font-size="1.333333" lengthAdjust="spacingAndGlyphs"
text-anchor="start" opacity="0">Open Pedalboard</text>
<g class="stroked-text"><desc>Open Pedalboard</desc>
<path d="M61.472744 53.649819
L61.282268 53.649819
" />
<path d="M61.282268 53.649819
L61.187030 53.697438
" />
<path d="M61.187030 53.697438
L61.091792 53.792676
" />
<path d="M61.091792 53.792676
L61.044173 53.983152
" />
<path d="M61.044173 53.983152
L61.044173 54.316485
" />
<path d="M61.044173 54.316485
L61.091792 54.506961
" />
<path d="M61.091792 54.506961
L61.187030 54.602200
" />
<path d="M61.187030 54.602200
L61.282268 54.649819
" />
<path d="M61.282268 54.649819
L61.472744 54.649819
" />
<path d="M61.472744 54.649819
L61.567982 54.602200
" />
<path d="M61.567982 54.602200
L61.663220 54.506961
" />
<path d="M61.663220 54.506961
L61.710839 54.316485
" />
<path d="M61.710839 54.316485
L61.710839 53.983152
" />
<path d="M61.710839 53.983152
L61.663220 53.792676
" />
<path d="M61.663220 53.792676
L61.567982 53.697438
" />
<path d="M61.567982 53.697438
L61.472744 53.649819
" />
<path d="M60.615601 53.983152
L60.615601 54.983152
" />
<path d="M60.615601 54.030771
L60.520363 53.983152
" />
<path d="M60.520363 53.983152
L60.329887 53.983152
" />
<path d="M60.329887 53.983152
L60.234649 54.030771
" />
<path d="M60.234649 54.030771
L60.187030 54.078390
" />
<path d="M60.187030 54.078390
L60.139411 54.173628
" />
<path d="M60.139411 54.173628
L60.139411 54.459342
" />
<path d="M60.139411 54.459342
L60.187030 54.554580
" />
<path d="M60.187030 54.554580
L60.234649 54.602200
" />
<path d="M60.234649 54.602200
L60.329887 54.649819
" />
<path d="M60.329887 54.649819
L60.520363 54.649819
" />
<path d="M60.520363 54.649819
L60.615601 54.602200
" />
<path d="M59.329887 54.602200
L59.425125 54.649819
" />
<path d="M59.425125 54.649819
L59.615601 54.649819
" />
<path d="M59.615601 54.649819
L59.710839 54.602200
" />
<path d="M59.710839 54.602200
L59.758458 54.506961
" />
<path d="M59.758458 54.506961
L59.758458 54.126009
" />
<path d="M59.758458 54.126009
L59.710839 54.030771
" />
<path d="M59.710839 54.030771
L59.615601 53.983152
" />
<path d="M59.615601 53.983152
L59.425125 53.983152
" />
<path d="M59.425125 53.983152
L59.329887 54.030771
" />
<path d="M59.329887 54.030771
L59.282268 54.126009
" />
<path d="M59.282268 54.126009
L59.282268 54.221247
" />
<path d="M59.282268 54.221247
L59.758458 54.316485
" />
<path d="M58.853696 53.983152
L58.853696 54.649819
" />
<path d="M58.853696 54.078390
L58.806077 54.030771
" />
<path d="M58.806077 54.030771
L58.710839 53.983152
" />
<path d="M58.710839 53.983152
L58.567982 53.983152
" />
<path d="M58.567982 53.983152
L58.472744 54.030771
" />
<path d="M58.472744 54.030771
L58.425125 54.126009
" />
<path d="M58.425125 54.126009
L58.425125 54.649819
" />
<path d="M57.187029 54.649819
L57.187029 53.649819
" />
<path d="M57.187029 53.649819
L56.806077 53.649819
" />
<path d="M56.806077 53.649819
L56.710839 53.697438
" />
<path d="M56.710839 53.697438
L56.663220 53.745057
" />
<path d="M56.663220 53.745057
L56.615601 53.840295
" />
<path d="M56.615601 53.840295
L56.615601 53.983152
" />
<path d="M56.615601 53.983152
L56.663220 54.078390
" />
<path d="M56.663220 54.078390
L56.710839 54.126009
" />
<path d="M56.710839 54.126009
L56.806077 54.173628
" />
<path d="M56.806077 54.173628
L57.187029 54.173628
" />
<path d="M55.806077 54.602200
L55.901315 54.649819
" />
<path d="M55.901315 54.649819
L56.091791 54.649819
" />
<path d="M56.091791 54.649819
L56.187029 54.602200
" />
<path d="M56.187029 54.602200
L56.234648 54.506961
" />
<path d="M56.234648 54.506961
L56.234648 54.126009
" />
<path d="M56.234648 54.126009
L56.187029 54.030771
" />
<path d="M56.187029 54.030771
L56.091791 53.983152
" />
<path d="M56.091791 53.983152
L55.901315 53.983152
" />
<path d="M55.901315 53.983152
L55.806077 54.030771
" />
<path d="M55.806077 54.030771
L55.758458 54.126009
" />
<path d="M55.758458 54.126009
L55.758458 54.221247
" />
<path d="M55.758458 54.221247
L56.234648 54.316485
" />
<path d="M54.901315 54.649819
L54.901315 53.649819
" />
<path d="M54.901315 54.602200
L54.996553 54.649819
" />
<path d="M54.996553 54.649819
L55.187029 54.649819
" />
<path d="M55.187029 54.649819
L55.282267 54.602200
" />
<path d="M55.282267 54.602200
L55.329886 54.554580
" />
<path d="M55.329886 54.554580
L55.377505 54.459342
" />
<path d="M55.377505 54.459342
L55.377505 54.173628
" />
<path d="M55.377505 54.173628
L55.329886 54.078390
" />
<path d="M55.329886 54.078390
L55.282267 54.030771
" />
<path d="M55.282267 54.030771
L55.187029 53.983152
" />
<path d="M55.187029 53.983152
L54.996553 53.983152
" />
<path d="M54.996553 53.983152
L54.901315 54.030771
" />
<path d="M53.996553 54.649819
L53.996553 54.126009
" />
<path d="M53.996553 54.126009
L54.044172 54.030771
" />
<path d="M54.044172 54.030771
L54.139410 53.983152
" />
<path d="M54.139410 53.983152
L54.329886 53.983152
" />
<path d="M54.329886 53.983152
L54.425124 54.030771
" />
<path d="M53.996553 54.602200
L54.091791 54.649819
" />
<path d="M54.091791 54.649819
L54.329886 54.649819
" />
<path d="M54.329886 54.649819
L54.425124 54.602200
" />
<path d="M54.425124 54.602200
L54.472743 54.506961
" />
<path d="M54.472743 54.506961
L54.472743 54.411723
" />
<path d="M54.472743 54.411723
L54.425124 54.316485
" />
<path d="M54.425124 54.316485
L54.329886 54.268866
" />
<path d="M54.329886 54.268866
L54.091791 54.268866
" />
<path d="M54.091791 54.268866
L53.996553 54.221247
" />
<path d="M53.377505 54.649819
L53.472743 54.602200
" />
<path d="M53.472743 54.602200
L53.520362 54.506961
" />
<path d="M53.520362 54.506961
L53.520362 53.649819
" />
<path d="M52.996552 54.649819
L52.996552 53.649819
" />
<path d="M52.996552 54.030771
L52.901314 53.983152
" />
<path d="M52.901314 53.983152
L52.710838 53.983152
" />
<path d="M52.710838 53.983152
L52.615600 54.030771
" />
<path d="M52.615600 54.030771
L52.567981 54.078390
" />
<path d="M52.567981 54.078390
L52.520362 54.173628
" />
<path d="M52.520362 54.173628
L52.520362 54.459342
" />
<path d="M52.520362 54.459342
L52.567981 54.554580
" />
<path d="M52.567981 54.554580
L52.615600 54.602200
" />
<path d="M52.615600 54.602200
L52.710838 54.649819
" />
<path d="M52.710838 54.649819
L52.901314 54.649819
" />
<path d="M52.901314 54.649819
L52.996552 54.602200
" />
<path d="M51.948933 54.649819
L52.044171 54.602200
" />
<path d="M52.044171 54.602200
L52.091790 54.554580
" />
<path d="M52.091790 54.554580
L52.139409 54.459342
" />
<path d="M52.139409 54.459342
L52.139409 54.173628
" />
<path d="M52.139409 54.173628
L52.091790 54.078390
" />
<path d="M52.091790 54.078390
L52.044171 54.030771
" />
<path d="M52.044171 54.030771
L51.948933 53.983152
" />
<path d="M51.948933 53.983152
L51.806076 53.983152
" />
<path d="M51.806076 53.983152
L51.710838 54.030771
" />
<path d="M51.710838 54.030771
L51.663219 54.078390
" />
<path d="M51.663219 54.078390
L51.615600 54.173628
" />
<path d="M51.615600 54.173628
L51.615600 54.459342
" />
<path d="M51.615600 54.459342
L51.663219 54.554580
" />
<path d="M51.663219 54.554580
L51.710838 54.602200
" />
<path d="M51.710838 54.602200
L51.806076 54.649819
" />
<path d="M51.806076 54.649819
L51.948933 54.649819
" />
<path d="M50.758457 54.649819
L50.758457 54.126009
" />
<path d="M50.758457 54.126009
L50.806076 54.030771
" />
<path d="M50.806076 54.030771
L50.901314 53.983152
" />
<path d="M50.901314 53.983152
L51.091790 53.983152
" />
<path d="M51.091790 53.983152
L51.187028 54.030771
" />
<path d="M50.758457 54.602200
L50.853695 54.649819
" />
<path d="M50.853695 54.649819
L51.091790 54.649819
" />
<path d="M51.091790 54.649819
L51.187028 54.602200
" />
<path d="M51.187028 54.602200
L51.234647 54.506961
" />
<path d="M51.234647 54.506961
L51.234647 54.411723
" />
<path d="M51.234647 54.411723
L51.187028 54.316485
" />
<path d="M51.187028 54.316485
L51.091790 54.268866
" />
<path d="M51.091790 54.268866
L50.853695 54.268866
" />
<path d="M50.853695 54.268866
L50.758457 54.221247
" />
<path d="M50.282266 54.649819
L50.282266 53.983152
" />
<path d="M50.282266 54.173628
L50.234647 54.078390
" />
<path d="M50.234647 54.078390
L50.187028 54.030771
" />
<path d="M50.187028 54.030771
L50.091790 53.983152
" />
<path d="M50.091790 53.983152
L49.996552 53.983152
" />
<path d="M49.234647 54.649819
L49.234647 53.649819
" />
<path d="M49.234647 54.602200
L49.329885 54.649819
" />
<path d="M49.329885 54.649819
L49.520361 54.649819
" />
<path d="M49.520361 54.649819
L49.615599 54.602200
" />
<path d="M49.615599 54.602200
L49.663218 54.554580
" />
<path d="M49.663218 54.554580
L49.710837 54.459342
" />
<path d="M49.710837 54.459342
L49.710837 54.173628
" />
<path d="M49.710837 54.173628
L49.663218 54.078390
" />
<path d="M49.663218 54.078390
L49.615599 54.030771
" />
<path d="M49.615599 54.030771
L49.520361 53.983152
" />
<path d="M49.520361 53.983152
L49.329885 53.983152
" />
<path d="M49.329885 53.983152
L49.234647 54.030771
" />
</g><text x="62.000000" y="56.390000"
transform="scale(-1 1) translate(-124.000000 0)"
textLength="24.202383" font-size="1.333333" lengthAdjust="spacingAndGlyphs"
text-anchor="start" opacity="0">https://github.com/pedalboard</text>
<g class="stroked-text"><desc>https://github.com/pedalboard</desc>
<path d="M61.663220 56.259819
L61.663220 55.259819
" />
<path d="M61.234649 56.259819
L61.234649 55.736009
" />
<path d="M61.234649 55.736009
L61.282268 55.640771
" />
<path d="M61.282268 55.640771
L61.377506 55.593152
" />
<path d="M61.377506 55.593152
L61.520363 55.593152
" />
<path d="M61.520363 55.593152
L61.615601 55.640771
" />
<path d="M61.615601 55.640771
L61.663220 55.688390
" />
<path d="M60.901315 55.593152
L60.520363 55.593152
" />
<path d="M60.758458 55.259819
L60.758458 56.116961
" />
<path d="M60.758458 56.116961
L60.710839 56.212200
" />
<path d="M60.710839 56.212200
L60.615601 56.259819
" />
<path d="M60.615601 56.259819
L60.520363 56.259819
" />
<path d="M60.329886 55.593152
L59.948934 55.593152
" />
<path d="M60.187029 55.259819
L60.187029 56.116961
" />
<path d="M60.187029 56.116961
L60.139410 56.212200
" />
<path d="M60.139410 56.212200
L60.044172 56.259819
" />
<path d="M60.044172 56.259819
L59.948934 56.259819
" />
<path d="M59.615600 55.593152
L59.615600 56.593152
" />
<path d="M59.615600 55.640771
L59.520362 55.593152
" />
<path d="M59.520362 55.593152
L59.329886 55.593152
" />
<path d="M59.329886 55.593152
L59.234648 55.640771
" />
<path d="M59.234648 55.640771
L59.187029 55.688390
" />
<path d="M59.187029 55.688390
L59.139410 55.783628
" />
<path d="M59.139410 55.783628
L59.139410 56.069342
" />
<path d="M59.139410 56.069342
L59.187029 56.164580
" />
<path d="M59.187029 56.164580
L59.234648 56.212200
" />
<path d="M59.234648 56.212200
L59.329886 56.259819
" />
<path d="M59.329886 56.259819
L59.520362 56.259819
" />
<path d="M59.520362 56.259819
L59.615600 56.212200
" />
<path d="M58.758457 56.212200
L58.663219 56.259819
" />
<path d="M58.663219 56.259819
L58.472743 56.259819
" />
<path d="M58.472743 56.259819
L58.377505 56.212200
" />
<path d="M58.377505 56.212200
L58.329886 56.116961
" />
<path d="M58.329886 56.116961
L58.329886 56.069342
" />
<path d="M58.329886 56.069342
L58.377505 55.974104
" />
<path d="M58.377505 55.974104
L58.472743 55.926485
" />
<path d="M58.472743 55.926485
L58.615600 55.926485
" />
<path d="M58.615600 55.926485
L58.710838 55.878866
" />
<path d="M58.710838 55.878866
L58.758457 55.783628
" />
<path d="M58.758457 55.783628
L58.758457 55.736009
" />
<path d="M58.758457 55.736009
L58.710838 55.640771
" />
<path d="M58.710838 55.640771
L58.615600 55.593152
" />
<path d="M58.615600 55.593152
L58.472743 55.593152
" />
<path d="M58.472743 55.593152
L58.377505 55.640771
" />
<path d="M57.901314 56.164580
L57.853695 56.212200
" />
<path d="M57.853695 56.212200
L57.901314 56.259819
" />
<path d="M57.901314 56.259819
L57.948933 56.212200
" />
<path d="M57.948933 56.212200
L57.901314 56.164580
" />
<path d="M57.901314 56.164580
L57.901314 56.259819
" />
<path d="M57.901314 55.640771
L57.853695 55.688390
" />
<path d="M57.853695 55.688390
L57.901314 55.736009
" />
<path d="M57.901314 55.736009
L57.948933 55.688390
" />
<path d="M57.948933 55.688390
L57.901314 55.640771
" />
<path d="M57.901314 55.640771
L57.901314 55.736009
" />
<path d="M56.710839 55.212200
L57.567981 56.497914
" />
<path d="M55.663220 55.212200
L56.520362 56.497914
" />
<path d="M54.901315 55.593152
L54.901315 56.402676
" />
<path d="M54.901315 56.402676
L54.948934 56.497914
" />
<path d="M54.948934 56.497914
L54.996553 56.545533
" />
<path d="M54.996553 56.545533
L55.091791 56.593152
" />
<path d="M55.091791 56.593152
L55.234648 56.593152
" />
<path d="M55.234648 56.593152
L55.329886 56.545533
" />
<path d="M54.901315 56.212200
L54.996553 56.259819
" />
<path d="M54.996553 56.259819
L55.187029 56.259819
" />
<path d="M55.187029 56.259819
L55.282267 56.212200
" />
<path d="M55.282267 56.212200
L55.329886 56.164580
" />
<path d="M55.329886 56.164580
L55.377505 56.069342
" />
<path d="M55.377505 56.069342
L55.377505 55.783628
" />
<path d="M55.377505 55.783628
L55.329886 55.688390
" />
<path d="M55.329886 55.688390
L55.282267 55.640771
" />
<path d="M55.282267 55.640771
L55.187029 55.593152
" />
<path d="M55.187029 55.593152
L54.996553 55.593152
" />
<path d="M54.996553 55.593152
L54.901315 55.640771
" />
<path d="M54.425124 56.259819
L54.425124 55.593152
" />
<path d="M54.425124 55.259819
L54.472743 55.307438
" />
<path d="M54.472743 55.307438
L54.425124 55.355057
" />
<path d="M54.425124 55.355057
L54.377505 55.307438
" />
<path d="M54.377505 55.307438
L54.425124 55.259819
" />
<path d="M54.425124 55.259819
L54.425124 55.355057
" />
<path d="M54.091791 55.593152
L53.710839 55.593152
" />
<path d="M53.948934 55.259819
L53.948934 56.116961
" />
<path d="M53.948934 56.116961
L53.901315 56.212200
" />
<path d="M53.901315 56.212200
L53.806077 56.259819
" />
<path d="M53.806077 56.259819
L53.710839 56.259819
" />
<path d="M53.377505 56.259819
L53.377505 55.259819
" />
<path d="M52.948934 56.259819
L52.948934 55.736009
" />
<path d="M52.948934 55.736009
L52.996553 55.640771
" />
<path d="M52.996553 55.640771
L53.091791 55.593152
" />
<path d="M53.091791 55.593152
L53.234648 55.593152
" />
<path d="M53.234648 55.593152
L53.329886 55.640771
" />
<path d="M53.329886 55.640771
L53.377505 55.688390
" />
<path d="M52.044172 55.593152
L52.044172 56.259819
" />
<path d="M52.472743 55.593152
L52.472743 56.116961
" />
<path d="M52.472743 56.116961
L52.425124 56.212200
" />
<path d="M52.425124 56.212200
L52.329886 56.259819
" />
<path d="M52.329886 56.259819
L52.187029 56.259819
" />
<path d="M52.187029 56.259819
L52.091791 56.212200
" />
<path d="M52.091791 56.212200
L52.044172 56.164580
" />
<path d="M51.567981 56.259819
L51.567981 55.259819
" />
<path d="M51.567981 55.640771
L51.472743 55.593152
" />
<path d="M51.472743 55.593152
L51.282267 55.593152
" />
<path d="M51.282267 55.593152
L51.187029 55.640771
" />
<path d="M51.187029 55.640771
L51.139410 55.688390
" />
<path d="M51.139410 55.688390
L51.091791 55.783628
" />
<path d="M51.091791 55.783628
L51.091791 56.069342
" />
<path d="M51.091791 56.069342
L51.139410 56.164580
" />
<path d="M51.139410 56.164580
L51.187029 56.212200
" />
<path d="M51.187029 56.212200
L51.282267 56.259819
" />
<path d="M51.282267 56.259819
L51.472743 56.259819
" />
<path d="M51.472743 56.259819
L51.567981 56.212200
" />
<path d="M50.663219 56.164580
L50.615600 56.212200
" />
<path d="M50.615600 56.212200
L50.663219 56.259819
" />
<path d="M50.663219 56.259819
L50.710838 56.212200
" />
<path d="M50.710838 56.212200
L50.663219 56.164580
" />
<path d="M50.663219 56.164580
L50.663219 56.259819
" />
<path d="M49.758458 56.212200
L49.853696 56.259819
" />
<path d="M49.853696 56.259819
L50.044172 56.259819
" />
<path d="M50.044172 56.259819
L50.139410 56.212200
" />
<path d="M50.139410 56.212200
L50.187029 56.164580
" />
<path d="M50.187029 56.164580
L50.234648 56.069342
" />
<path d="M50.234648 56.069342
L50.234648 55.783628
" />
<path d="M50.234648 55.783628
L50.187029 55.688390
" />
<path d="M50.187029 55.688390
L50.139410 55.640771
" />
<path d="M50.139410 55.640771
L50.044172 55.593152
" />
<path d="M50.044172 55.593152
L49.853696 55.593152
" />
<path d="M49.853696 55.593152
L49.758458 55.640771
" />
<path d="M49.187029 56.259819
L49.282267 56.212200
" />
<path d="M49.282267 56.212200
L49.329886 56.164580
" />
<path d="M49.329886 56.164580
L49.377505 56.069342
" />
<path d="M49.377505 56.069342
L49.377505 55.783628
" />
<path d="M49.377505 55.783628
L49.329886 55.688390
" />
<path d="M49.329886 55.688390
L49.282267 55.640771
" />
<path d="M49.282267 55.640771
L49.187029 55.593152
" />
<path d="M49.187029 55.593152
L49.044172 55.593152
" />
<path d="M49.044172 55.593152
L48.948934 55.640771
" />
<path d="M48.948934 55.640771
L48.901315 55.688390
" />
<path d="M48.901315 55.688390
L48.853696 55.783628
" />
<path d="M48.853696 55.783628
L48.853696 56.069342
" />
<path d="M48.853696 56.069342
L48.901315 56.164580
" />
<path d="M48.901315 56.164580
L48.948934 56.212200
" />
<path d="M48.948934 56.212200
L49.044172 56.259819
" />
<path d="M49.044172 56.259819
L49.187029 56.259819
" />
<path d="M48.425124 56.259819
L48.425124 55.593152
" />
<path d="M48.425124 55.688390
L48.377505 55.640771
" />
<path d="M48.377505 55.640771
L48.282267 55.593152
" />
<path d="M48.282267 55.593152
L48.139410 55.593152
" />
<path d="M48.139410 55.593152
L48.044172 55.640771
" />
<path d="M48.044172 55.640771
L47.996553 55.736009
" />
<path d="M47.996553 55.736009
L47.996553 56.259819
" />
<path d="M47.996553 55.736009
L47.948934 55.640771
" />
<path d="M47.948934 55.640771
L47.853696 55.593152
" />
<path d="M47.853696 55.593152
L47.710839 55.593152
" />
<path d="M47.710839 55.593152
L47.615600 55.640771
" />
<path d="M47.615600 55.640771
L47.567981 55.736009
" />
<path d="M47.567981 55.736009
L47.567981 56.259819
" />
<path d="M46.377506 55.212200
L47.234648 56.497914
" />
<path d="M46.044172 55.593152
L46.044172 56.593152
" />
<path d="M46.044172 55.640771
L45.948934 55.593152
" />
<path d="M45.948934 55.593152
L45.758458 55.593152
" />
<path d="M45.758458 55.593152
L45.663220 55.640771
" />
<path d="M45.663220 55.640771
L45.615601 55.688390
" />
<path d="M45.615601 55.688390
L45.567982 55.783628
" />
<path d="M45.567982 55.783628
L45.567982 56.069342
" />
<path d="M45.567982 56.069342
L45.615601 56.164580
" />
<path d="M45.615601 56.164580
L45.663220 56.212200
" />
<path d="M45.663220 56.212200
L45.758458 56.259819
" />
<path d="M45.758458 56.259819
L45.948934 56.259819
" />
<path d="M45.948934 56.259819
L46.044172 56.212200
" />
<path d="M44.758458 56.212200
L44.853696 56.259819
" />
<path d="M44.853696 56.259819
L45.044172 56.259819
" />
<path d="M45.044172 56.259819
L45.139410 56.212200
" />
<path d="M45.139410 56.212200
L45.187029 56.116961
" />
<path d="M45.187029 56.116961
L45.187029 55.736009
" />
<path d="M45.187029 55.736009
L45.139410 55.640771
" />
<path d="M45.139410 55.640771
L45.044172 55.593152
" />
<path d="M45.044172 55.593152
L44.853696 55.593152
" />
<path d="M44.853696 55.593152
L44.758458 55.640771
" />
<path d="M44.758458 55.640771
L44.710839 55.736009
" />
<path d="M44.710839 55.736009
L44.710839 55.831247
" />
<path d="M44.710839 55.831247
L45.187029 55.926485
" />
<path d="M43.853696 56.259819
L43.853696 55.259819
" />
<path d="M43.853696 56.212200
L43.948934 56.259819
" />
<path d="M43.948934 56.259819
L44.139410 56.259819
" />
<path d="M44.139410 56.259819
L44.234648 56.212200
" />
<path d="M44.234648 56.212200
L44.282267 56.164580
" />
<path d="M44.282267 56.164580
L44.329886 56.069342
" />
<path d="M44.329886 56.069342
L44.329886 55.783628
" />
<path d="M44.329886 55.783628
L44.282267 55.688390
" />
<path d="M44.282267 55.688390
L44.234648 55.640771
" />
<path d="M44.234648 55.640771
L44.139410 55.593152
" />
<path d="M44.139410 55.593152
L43.948934 55.593152
" />
<path d="M43.948934 55.593152
L43.853696 55.640771
" />
<path d="M42.948934 56.259819
L42.948934 55.736009
" />
<path d="M42.948934 55.736009
L42.996553 55.640771
" />
<path d="M42.996553 55.640771
L43.091791 55.593152
" />
<path d="M43.091791 55.593152
L43.282267 55.593152
" />
<path d="M43.282267 55.593152
L43.377505 55.640771
" />
<path d="M42.948934 56.212200
L43.044172 56.259819
" />
<path d="M43.044172 56.259819
L43.282267 56.259819
" />
<path d="M43.282267 56.259819
L43.377505 56.212200
" />
<path d="M43.377505 56.212200
L43.425124 56.116961
" />
<path d="M43.425124 56.116961
L43.425124 56.021723
" />
<path d="M43.425124 56.021723
L43.377505 55.926485
" />
<path d="M43.377505 55.926485
L43.282267 55.878866
" />
<path d="M43.282267 55.878866
L43.044172 55.878866
" />
<path d="M43.044172 55.878866
L42.948934 55.831247
" />
<path d="M42.329886 56.259819
L42.425124 56.212200
" />
<path d="M42.425124 56.212200
L42.472743 56.116961
" />
<path d="M42.472743 56.116961
L42.472743 55.259819
" />
<path d="M41.948933 56.259819
L41.948933 55.259819
" />
<path d="M41.948933 55.640771
L41.853695 55.593152
" />
<path d="M41.853695 55.593152
L41.663219 55.593152
" />
<path d="M41.663219 55.593152
L41.567981 55.640771
" />
<path d="M41.567981 55.640771
L41.520362 55.688390
" />
<path d="M41.520362 55.688390
L41.472743 55.783628
" />
<path d="M41.472743 55.783628
L41.472743 56.069342
" />
<path d="M41.472743 56.069342
L41.520362 56.164580
" />
<path d="M41.520362 56.164580
L41.567981 56.212200
" />
<path d="M41.567981 56.212200
L41.663219 56.259819
" />
<path d="M41.663219 56.259819
L41.853695 56.259819
" />
<path d="M41.853695 56.259819
L41.948933 56.212200
" />
<path d="M40.901314 56.259819
L40.996552 56.212200
" />
<path d="M40.996552 56.212200
L41.044171 56.164580
" />
<path d="M41.044171 56.164580
L41.091790 56.069342
" />
<path d="M41.091790 56.069342
L41.091790 55.783628
" />
<path d="M41.091790 55.783628
L41.044171 55.688390
" />
<path d="M41.044171 55.688390
L40.996552 55.640771
" />
<path d="M40.996552 55.640771
L40.901314 55.593152
" />
<path d="M40.901314 55.593152
L40.758457 55.593152
" />
<path d="M40.758457 55.593152
L40.663219 55.640771
" />
<path d="M40.663219 55.640771
L40.615600 55.688390
" />
<path d="M40.615600 55.688390
L40.567981 55.783628
" />
<path d="M40.567981 55.783628
L40.567981 56.069342
" />
<path d="M40.567981 56.069342
L40.615600 56.164580
" />
<path d="M40.615600 56.164580
L40.663219 56.212200
" />
<path d="M40.663219 56.212200
L40.758457 56.259819
" />
<path d="M40.758457 56.259819
L40.901314 56.259819
" />
<path d="M39.710838 56.259819
L39.710838 55.736009
" />
<path d="M39.710838 55.736009
L39.758457 55.640771
" />
<path d="M39.758457 55.640771
L39.853695 55.593152
" />
<path d="M39.853695 55.593152
L40.044171 55.593152
" />
<path d="M40.044171 55.593152
L40.139409 55.640771
" />
<path d="M39.710838 56.212200
L39.806076 56.259819
" />
<path d="M39.806076 56.259819
L40.044171 56.259819
" />
<path d="M40.044171 56.259819
L40.139409 56.212200
" />
<path d="M40.139409 56.212200
L40.187028 56.116961
" />
<path d="M40.187028 56.116961
L40.187028 56.021723
" />
<path d="M40.187028 56.021723
L40.139409 55.926485
" />
<path d="M40.139409 55.926485
L40.044171 55.878866
" />
<path d="M40.044171 55.878866
L39.806076 55.878866
" />
<path d="M39.806076 55.878866
L39.710838 55.831247
" />
<path d="M39.234647 56.259819
L39.234647 55.593152
" />
<path d="M39.234647 55.783628
L39.187028 55.688390
" />
<path d="M39.187028 55.688390
L39.139409 55.640771
" />
<path d="M39.139409 55.640771
L39.044171 55.593152
" />
<path d="M39.044171 55.593152
L38.948933 55.593152
" />
<path d="M38.187028 56.259819
L38.187028 55.259819
" />
<path d="M38.187028 56.212200
L38.282266 56.259819
" />
<path d="M38.282266 56.259819
L38.472742 56.259819
" />
<path d="M38.472742 56.259819
L38.567980 56.212200
" />
<path d="M38.567980 56.212200
L38.615599 56.164580
" />
<path d="M38.615599 56.164580
L38.663218 56.069342
" />
<path d="M38.663218 56.069342
L38.663218 55.783628
" />
<path d="M38.663218 55.783628
L38.615599 55.688390
" />
<path d="M38.615599 55.688390
L38.567980 55.640771
" />
<path d="M38.567980 55.640771
L38.472742 55.593152
" />
<path d="M38.472742 55.593152
L38.282266 55.593152
" />
<path d="M38.282266 55.593152
L38.187028 55.640771
" />
</g><text x="62.000000" y="58.000000"
transform="scale(-1 1) translate(-124.000000 0)"
textLength="12.488094" font-size="1.333333" lengthAdjust="spacingAndGlyphs"
text-anchor="start" opacity="0">BCB: 3.0.0-RC1</text>
<g class="stroked-text"><desc>BCB: 3.0.0-RC1</desc>
<path d="M61.329887 57.346009
L61.187030 57.393628
" />
<path d="M61.187030 57.393628
L61.139411 57.441247
" />
<path d="M61.139411 57.441247
L61.091792 57.536485
" />
<path d="M61.091792 57.536485
L61.091792 57.679342
" />
<path d="M61.091792 57.679342
L61.139411 57.774580
" />
<path d="M61.139411 57.774580
L61.187030 57.822200
" />
<path d="M61.187030 57.822200
L61.282268 57.869819
" />
<path d="M61.282268 57.869819
L61.663220 57.869819
" />
<path d="M61.663220 57.869819
L61.663220 56.869819
" />
<path d="M61.663220 56.869819
L61.329887 56.869819
" />
<path d="M61.329887 56.869819
L61.234649 56.917438
" />
<path d="M61.234649 56.917438
L61.187030 56.965057
" />
<path d="M61.187030 56.965057
L61.139411 57.060295
" />
<path d="M61.139411 57.060295
L61.139411 57.155533
" />
<path d="M61.139411 57.155533
L61.187030 57.250771
" />
<path d="M61.187030 57.250771
L61.234649 57.298390
" />
<path d="M61.234649 57.298390
L61.329887 57.346009
" />
<path d="M61.329887 57.346009
L61.663220 57.346009
" />
<path d="M60.091792 57.774580
L60.139411 57.822200
" />
<path d="M60.139411 57.822200
L60.282268 57.869819
" />
<path d="M60.282268 57.869819
L60.377506 57.869819
" />
<path d="M60.377506 57.869819
L60.520363 57.822200
" />
<path d="M60.520363 57.822200
L60.615601 57.726961
" />
<path d="M60.615601 57.726961
L60.663220 57.631723
" />
<path d="M60.663220 57.631723
L60.710839 57.441247
" />
<path d="M60.710839 57.441247
L60.710839 57.298390
" />
<path d="M60.710839 57.298390
L60.663220 57.107914
" />
<path d="M60.663220 57.107914
L60.615601 57.012676
" />
<path d="M60.615601 57.012676
L60.520363 56.917438
" />
<path d="M60.520363 56.917438
L60.377506 56.869819
" />
<path d="M60.377506 56.869819
L60.282268 56.869819
" />
<path d="M60.282268 56.869819
L60.139411 56.917438
" />
<path d="M60.139411 56.917438
L60.091792 56.965057
" />
<path d="M59.329887 57.346009
L59.187030 57.393628
" />
<path d="M59.187030 57.393628
L59.139411 57.441247
" />
<path d="M59.139411 57.441247
L59.091792 57.536485
" />
<path d="M59.091792 57.536485
L59.091792 57.679342
" />
<path d="M59.091792 57.679342
L59.139411 57.774580
" />
<path d="M59.139411 57.774580
L59.187030 57.822200
" />
<path d="M59.187030 57.822200
L59.282268 57.869819
" />
<path d="M59.282268 57.869819
L59.663220 57.869819
" />
<path d="M59.663220 57.869819
L59.663220 56.869819
" />
<path d="M59.663220 56.869819
L59.329887 56.869819
" />
<path d="M59.329887 56.869819
L59.234649 56.917438
" />
<path d="M59.234649 56.917438
L59.187030 56.965057
" />
<path d="M59.187030 56.965057
L59.139411 57.060295
" />
<path d="M59.139411 57.060295
L59.139411 57.155533
" />
<path d="M59.139411 57.155533
L59.187030 57.250771
" />
<path d="M59.187030 57.250771
L59.234649 57.298390
" />
<path d="M59.234649 57.298390
L59.329887 57.346009
" />
<path d="M59.329887 57.346009
L59.663220 57.346009
" />
<path d="M58.663220 57.774580
L58.615601 57.822200
" />
<path d="M58.615601 57.822200
L58.663220 57.869819
" />
<path d="M58.663220 57.869819
L58.710839 57.822200
" />
<path d="M58.710839 57.822200
L58.663220 57.774580
" />
<path d="M58.663220 57.774580
L58.663220 57.869819
" />
<path d="M58.663220 57.250771
L58.615601 57.298390
" />
<path d="M58.615601 57.298390
L58.663220 57.346009
" />
<path d="M58.663220 57.346009
L58.710839 57.298390
" />
<path d="M58.710839 57.298390
L58.663220 57.250771
" />
<path d="M58.663220 57.250771
L58.663220 57.346009
" />
<path d="M57.520363 56.869819
L56.901316 56.869819
" />
<path d="M56.901316 56.869819
L57.234649 57.250771
" />
<path d="M57.234649 57.250771
L57.091792 57.250771
" />
<path d="M57.091792 57.250771
L56.996554 57.298390
" />
<path d="M56.996554 57.298390
L56.948935 57.346009
" />
<path d="M56.948935 57.346009
L56.901316 57.441247
" />
<path d="M56.901316 57.441247
L56.901316 57.679342
" />
<path d="M56.901316 57.679342
L56.948935 57.774580
" />
<path d="M56.948935 57.774580
L56.996554 57.822200
" />
<path d="M56.996554 57.822200
L57.091792 57.869819
" />
<path d="M57.091792 57.869819
L57.377506 57.869819
" />
<path d="M57.377506 57.869819
L57.472744 57.822200
" />
<path d="M57.472744 57.822200
L57.520363 57.774580
" />
<path d="M56.472744 57.774580
L56.425125 57.822200
" />
<path d="M56.425125 57.822200
L56.472744 57.869819
" />
<path d="M56.472744 57.869819
L56.520363 57.822200
" />
<path d="M56.520363 57.822200
L56.472744 57.774580
" />
<path d="M56.472744 57.774580
L56.472744 57.869819
" />
<path d="M55.806078 56.869819
L55.710840 56.869819
" />
<path d="M55.710840 56.869819
L55.615602 56.917438
" />
<path d="M55.615602 56.917438
L55.567983 56.965057
" />
<path d="M55.567983 56.965057
L55.520364 57.060295
" />
<path d="M55.520364 57.060295
L55.472745 57.250771
" />
<path d="M55.472745 57.250771
L55.472745 57.488866
" />
<path d="M55.472745 57.488866
L55.520364 57.679342
" />
<path d="M55.520364 57.679342
L55.567983 57.774580
" />
<path d="M55.567983 57.774580
L55.615602 57.822200
" />
<path d="M55.615602 57.822200
L55.710840 57.869819
" />
<path d="M55.710840 57.869819
L55.806078 57.869819
" />
<path d="M55.806078 57.869819
L55.901316 57.822200
" />
<path d="M55.901316 57.822200
L55.948935 57.774580
" />
<path d="M55.948935 57.774580
L55.996554 57.679342
" />
<path d="M55.996554 57.679342
L56.044173 57.488866
" />
<path d="M56.044173 57.488866
L56.044173 57.250771
" />
<path d="M56.044173 57.250771
L55.996554 57.060295
" />
<path d="M55.996554 57.060295
L55.948935 56.965057
" />
<path d="M55.948935 56.965057
L55.901316 56.917438
" />
<path d="M55.901316 56.917438
L55.806078 56.869819
" />
<path d="M55.044173 57.774580
L54.996554 57.822200
" />
<path d="M54.996554 57.822200
L55.044173 57.869819
" />
<path d="M55.044173 57.869819
L55.091792 57.822200
" />
<path d="M55.091792 57.822200
L55.044173 57.774580
" />
<path d="M55.044173 57.774580
L55.044173 57.869819
" />
<path d="M54.377507 56.869819
L54.282269 56.869819
" />
<path d="M54.282269 56.869819
L54.187031 56.917438
" />
<path d="M54.187031 56.917438
L54.139412 56.965057
" />
<path d="M54.139412 56.965057
L54.091793 57.060295
" />
<path d="M54.091793 57.060295
L54.044174 57.250771
" />
<path d="M54.044174 57.250771
L54.044174 57.488866
" />
<path d="M54.044174 57.488866
L54.091793 57.679342
" />
<path d="M54.091793 57.679342
L54.139412 57.774580
" />
<path d="M54.139412 57.774580
L54.187031 57.822200
" />
<path d="M54.187031 57.822200
L54.282269 57.869819
" />
<path d="M54.282269 57.869819
L54.377507 57.869819
" />
<path d="M54.377507 57.869819
L54.472745 57.822200
" />
<path d="M54.472745 57.822200
L54.520364 57.774580
" />
<path d="M54.520364 57.774580
L54.567983 57.679342
" />
<path d="M54.567983 57.679342
L54.615602 57.488866
" />
<path d="M54.615602 57.488866
L54.615602 57.250771
" />
<path d="M54.615602 57.250771
L54.567983 57.060295
" />
<path d="M54.567983 57.060295
L54.520364 56.965057
" />
<path d="M54.520364 56.965057
L54.472745 56.917438
" />
<path d="M54.472745 56.917438
L54.377507 56.869819
" />
<path d="M53.615602 57.488866
L52.853698 57.488866
" />
<path d="M51.806079 57.869819
L52.139412 57.393628
" />
<path d="M52.377507 57.869819
L52.377507 56.869819
" />
<path d="M52.377507 56.869819
L51.996555 56.869819
" />
<path d="M51.996555 56.869819
L51.901317 56.917438
" />
<path d="M51.901317 56.917438
L51.853698 56.965057
" />
<path d="M51.853698 56.965057
L51.806079 57.060295
" />
<path d="M51.806079 57.060295
L51.806079 57.203152
" />
<path d="M51.806079 57.203152
L51.853698 57.298390
" />
<path d="M51.853698 57.298390
L51.901317 57.346009
" />
<path d="M51.901317 57.346009
L51.996555 57.393628
" />
<path d="M51.996555 57.393628
L52.377507 57.393628
" />
<path d="M50.806079 57.774580
L50.853698 57.822200
" />
<path d="M50.853698 57.822200
L50.996555 57.869819
" />
<path d="M50.996555 57.869819
L51.091793 57.869819
" />
<path d="M51.091793 57.869819
L51.234650 57.822200
" />
<path d="M51.234650 57.822200
L51.329888 57.726961
" />
<path d="M51.329888 57.726961
L51.377507 57.631723
" />
<path d="M51.377507 57.631723
L51.425126 57.441247
" />
<path d="M51.425126 57.441247
L51.425126 57.298390
" />
<path d="M51.425126 57.298390
L51.377507 57.107914
" />
<path d="M51.377507 57.107914
L51.329888 57.012676
" />
<path d="M51.329888 57.012676
L51.234650 56.917438
" />
<path d="M51.234650 56.917438
L51.091793 56.869819
" />
<path d="M51.091793 56.869819
L50.996555 56.869819
" />
<path d="M50.996555 56.869819
L50.853698 56.917438
" />
<path d="M50.853698 56.917438
L50.806079 56.965057
" />
<path d="M49.853698 57.869819
L50.425126 57.869819
" />
<path d="M50.139412 57.869819
L50.139412 56.869819
" />
<path d="M50.139412 56.869819
L50.234650 57.012676
" />
<path d="M50.234650 57.012676
L50.329888 57.107914
" />
<path d="M50.329888 57.107914
L50.425126 57.155533
" />
</g><g transform="rotate(90.000000 38.000000 123.000000)">
<text x="38.000000" y="123.000000"
transform="scale(-1 1) translate(-76.000000 0)"
textLength="4.059524" font-size="1.333333" lengthAdjust="spacingAndGlyphs"
text-anchor="start" opacity="0">+5V </text>
</g>
<g class="stroked-text"><desc>+5V </desc>
<path d="M38.511133 122.663220
L38.511133 121.901316
" />
<path d="M38.130180 122.282268
L38.892085 122.282268
" />
<path d="M39.130180 120.948935
L39.130180 121.425125
" />
<path d="M39.130180 121.425125
L38.653990 121.472744
" />
<path d="M38.653990 121.472744
L38.701609 121.425125
" />
<path d="M38.701609 121.425125
L38.749228 121.329887
" />
<path d="M38.749228 121.329887
L38.749228 121.091792
" />
<path d="M38.749228 121.091792
L38.701609 120.996554
" />
<path d="M38.701609 120.996554
L38.653990 120.948935
" />
<path d="M38.653990 120.948935
L38.558752 120.901316
" />
<path d="M38.558752 120.901316
L38.320657 120.901316
" />
<path d="M38.320657 120.901316
L38.225419 120.948935
" />
<path d="M38.225419 120.948935
L38.177800 120.996554
" />
<path d="M38.177800 120.996554
L38.130180 121.091792
" />
<path d="M38.130180 121.091792
L38.130180 121.329887
" />
<path d="M38.130180 121.329887
L38.177800 121.425125
" />
<path d="M38.177800 121.425125
L38.225419 121.472744
" />
<path d="M39.130180 120.615601
L38.130180 120.282268
" />
<path d="M38.130180 120.282268
L39.130180 119.948935
" />
</g><text x="57.000000" y="25.000000"
transform="scale(-1 1) translate(-114.000000 0)"
textLength="4.792858" font-size="2.000000" lengthAdjust="spacingAndGlyphs"
text-anchor="start" opacity="0">MIDI</text>
<g class="stroked-text"><desc>MIDI</desc>
<path d="M56.544173 24.808628
L56.544173 23.308628
" />
<path d="M56.544173 23.308628
L56.044173 24.380057
" />
<path d="M56.044173 24.380057
L55.544173 23.308628
" />
<path d="M55.544173 23.308628
L55.544173 24.808628
" />
<path d="M54.829887 24.808628
L54.829887 23.308628
" />
<path d="M54.115601 24.808628
L54.115601 23.308628
" />
<path d="M54.115601 23.308628
L53.758458 23.308628
" />
<path d="M53.758458 23.308628
L53.544172 23.380057
" />
<path d="M53.544172 23.380057
L53.401315 23.522914
" />
<path d="M53.401315 23.522914
L53.329886 23.665771
" />
<path d="M53.329886 23.665771
L53.258458 23.951485
" />
<path d="M53.258458 23.951485
L53.258458 24.165771
" />
<path d="M53.258458 24.165771
L53.329886 24.451485
" />
<path d="M53.329886 24.451485
L53.401315 24.594342
" />
<path d="M53.401315 24.594342
L53.544172 24.737200
" />
<path d="M53.544172 24.737200
L53.758458 24.808628
" />
<path d="M53.758458 24.808628
L54.115601 24.808628
" />
<path d="M52.615601 24.808628
L52.615601 23.308628
" />
</g><text x="151.998400" y="60.690800"
transform="scale(-1 1) translate(-303.996800 0)"
textLength="1.630952" font-size="1.333333" lengthAdjust="spacingAndGlyphs"
text-anchor="start" opacity="0">in</text>
<g class="stroked-text"><desc>in</desc>
<path d="M151.661620 60.560619
L151.661620 59.893952
" />
<path d="M151.661620 59.560619
L151.709239 59.608238
" />
<path d="M151.709239 59.608238
L151.661620 59.655857
" />
<path d="M151.661620 59.655857
L151.614001 59.608238
" />
<path d="M151.614001 59.608238
L151.661620 59.560619
" />
<path d="M151.661620 59.560619
L151.661620 59.655857
" />
<path d="M151.185430 59.893952
L151.185430 60.560619
" />
<path d="M151.185430 59.989190
L151.137811 59.941571
" />
<path d="M151.137811 59.941571
L151.042573 59.893952
" />
<path d="M151.042573 59.893952
L150.899716 59.893952
" />
<path d="M150.899716 59.893952
L150.804478 59.941571
" />
<path d="M150.804478 59.941571
L150.756859 60.036809
" />
<path d="M150.756859 60.036809
L150.756859 60.560619
" />
</g><text x="53.000000" y="130.000000"
transform="scale(-1 1) translate(-106.000000 0)"
textLength="6.583334" font-size="1.333333" lengthAdjust="spacingAndGlyphs"
text-anchor="start" opacity="0">LED OUT</text>
<g class="stroked-text"><desc>LED OUT</desc>
<path d="M52.187030 129.869819
L52.663220 129.869819
" />
<path d="M52.663220 129.869819
L52.663220 128.869819
" />
<path d="M51.853696 129.346009
L51.520363 129.346009
" />
<path d="M51.377506 129.869819
L51.853696 129.869819
" />
<path d="M51.853696 129.869819
L51.853696 128.869819
" />
<path d="M51.853696 128.869819
L51.377506 128.869819
" />
<path d="M50.948934 129.869819
L50.948934 128.869819
" />
<path d="M50.948934 128.869819
L50.710839 128.869819
" />
<path d="M50.710839 128.869819
L50.567982 128.917438
" />
<path d="M50.567982 128.917438
L50.472744 129.012676
" />
<path d="M50.472744 129.012676
L50.425125 129.107914
" />
<path d="M50.425125 129.107914
L50.377506 129.298390
" />
<path d="M50.377506 129.298390
L50.377506 129.441247
" />
<path d="M50.377506 129.441247
L50.425125 129.631723
" />
<path d="M50.425125 129.631723
L50.472744 129.726961
" />
<path d="M50.472744 129.726961
L50.567982 129.822200
" />
<path d="M50.567982 129.822200
L50.710839 129.869819
" />
<path d="M50.710839 129.869819
L50.948934 129.869819
" />
<path d="M48.996553 128.869819
L48.806077 128.869819
" />
<path d="M48.806077 128.869819
L48.710839 128.917438
" />
<path d="M48.710839 128.917438
L48.615601 129.012676
" />
<path d="M48.615601 129.012676
L48.567982 129.203152
" />
<path d="M48.567982 129.203152
L48.567982 129.536485
" />
<path d="M48.567982 129.536485
L48.615601 129.726961
" />
<path d="M48.615601 129.726961
L48.710839 129.822200
" />
<path d="M48.710839 129.822200
L48.806077 129.869819
" />
<path d="M48.806077 129.869819
L48.996553 129.869819
" />
<path d="M48.996553 129.869819
L49.091791 129.822200
" />
<path d="M49.091791 129.822200
L49.187029 129.726961
" />
<path d="M49.187029 129.726961
L49.234648 129.536485
" />
<path d="M49.234648 129.536485
L49.234648 129.203152
" />
<path d="M49.234648 129.203152
L49.187029 129.012676
" />
<path d="M49.187029 129.012676
L49.091791 128.917438
" />
<path d="M49.091791 128.917438
L48.996553 128.869819
" />
<path d="M48.139410 128.869819
L48.139410 129.679342
" />
<path d="M48.139410 129.679342
L48.091791 129.774580
" />
<path d="M48.091791 129.774580
L48.044172 129.822200
" />
<path d="M48.044172 129.822200
L47.948934 129.869819
" />
<path d="M47.948934 129.869819
L47.758458 129.869819
" />
<path d="M47.758458 129.869819
L47.663220 129.822200
" />
<path d="M47.663220 129.822200
L47.615601 129.774580
" />
<path d="M47.615601 129.774580
L47.567982 129.679342
" />
<path d="M47.567982 129.679342
L47.567982 128.869819
" />
<path d="M47.234648 128.869819
L46.663220 128.869819
" />
<path d="M46.948934 129.869819
L46.948934 128.869819
" />
</g><g transform="rotate(-90.000000 182.778400 36.779200)">
<text x="182.778400" y="36.779200"
transform="scale(-1 1) translate(-365.556800 0)"
textLength="1.773809" font-size="1.333333" lengthAdjust="spacingAndGlyphs"
text-anchor="start" opacity="0">IN</text>
</g>
<g class="stroked-text"><desc>IN</desc>
<path d="M182.648219 37.115979
L181.648219 37.115979
" />
<path d="M182.648219 37.592169
L181.648219 37.592169
" />
<path d="M181.648219 37.592169
L182.648219 38.163597
" />
<path d="M182.648219 38.163597
L181.648219 38.163597
" />
</g><text x="56.000000" y="37.000000"
transform="scale(-1 1) translate(-112.000000 0)"
textLength="3.107143" font-size="1.333333" lengthAdjust="spacingAndGlyphs"
text-anchor="start" opacity="0">OUT</text>
<g class="stroked-text"><desc>OUT</desc>
<path d="M55.472744 35.869819
L55.282268 35.869819
" />
<path d="M55.282268 35.869819
L55.187030 35.917438
" />
<path d="M55.187030 35.917438
L55.091792 36.012676
" />
<path d="M55.091792 36.012676
L55.044173 36.203152
" />
<path d="M55.044173 36.203152
L55.044173 36.536485
" />
<path d="M55.044173 36.536485
L55.091792 36.726961
" />
<path d="M55.091792 36.726961
L55.187030 36.822200
" />
<path d="M55.187030 36.822200
L55.282268 36.869819
" />
<path d="M55.282268 36.869819
L55.472744 36.869819
" />
<path d="M55.472744 36.869819
L55.567982 36.822200
" />
<path d="M55.567982 36.822200
L55.663220 36.726961
" />
<path d="M55.663220 36.726961
L55.710839 36.536485
" />
<path d="M55.710839 36.536485
L55.710839 36.203152
" />
<path d="M55.710839 36.203152
L55.663220 36.012676
" />
<path d="M55.663220 36.012676
L55.567982 35.917438
" />
<path d="M55.567982 35.917438
L55.472744 35.869819
" />
<path d="M54.615601 35.869819
L54.615601 36.679342
" />
<path d="M54.615601 36.679342
L54.567982 36.774580
" />
<path d="M54.567982 36.774580
L54.520363 36.822200
" />
<path d="M54.520363 36.822200
L54.425125 36.869819
" />
<path d="M54.425125 36.869819
L54.234649 36.869819
" />
<path d="M54.234649 36.869819
L54.139411 36.822200
" />
<path d="M54.139411 36.822200
L54.091792 36.774580
" />
<path d="M54.091792 36.774580
L54.044173 36.679342
" />
<path d="M54.044173 36.679342
L54.044173 35.869819
" />
<path d="M53.710839 35.869819
L53.139411 35.869819
" />
<path d="M53.425125 36.869819
L53.425125 35.869819
" />
</g><g transform="rotate(-90.000000 176.326800 36.677600)">
<text x="176.326800" y="36.677600"
transform="scale(-1 1) translate(-352.653600 0)"
textLength="3.869048" font-size="1.333333" lengthAdjust="spacingAndGlyphs"
text-anchor="start" opacity="0">VREF</text>
</g>
<g class="stroked-text"><desc>VREF</desc>
<path d="M175.196619 36.871522
L176.196619 37.204855
" />
<path d="M176.196619 37.204855
L175.196619 37.538188
" />
<path d="M176.196619 38.442950
L175.720428 38.109617
" />
<path d="M176.196619 37.871522
L175.196619 37.871522
" />
<path d="M175.196619 37.871522
L175.196619 38.252474
" />
<path d="M175.196619 38.252474
L175.244238 38.347712
" />
<path d="M175.244238 38.347712
L175.291857 38.395331
" />
<path d="M175.291857 38.395331
L175.387095 38.442950
" />
<path d="M175.387095 38.442950
L175.529952 38.442950
" />
<path d="M175.529952 38.442950
L175.625190 38.395331
" />
<path d="M175.625190 38.395331
L175.672809 38.347712
" />
<path d="M175.672809 38.347712
L175.720428 38.252474
" />
<path d="M175.720428 38.252474
L175.720428 37.871522
" />
<path d="M175.672809 38.871522
L175.672809 39.204855
" />
<path d="M176.196619 39.347712
L176.196619 38.871522
" />
<path d="M176.196619 38.871522
L175.196619 38.871522
" />
<path d="M175.196619 38.871522
L175.196619 39.347712
" />
<path d="M175.672809 40.109617
L175.672809 39.776284
" />
<path d="M176.196619 39.776284
L175.196619 39.776284
" />
<path d="M175.196619 39.776284
L175.196619 40.252474
" />
</g><text x="152.100000" y="58.100000"
transform="scale(-1 1) translate(-304.200000 0)"
textLength="2.630953" font-size="1.333333" lengthAdjust="spacingAndGlyphs"
text-anchor="start" opacity="0">out</text>
<g class="stroked-text"><desc>out</desc>
<path d="M151.620363 57.969819
L151.715601 57.922200
" />
<path d="M151.715601 57.922200
L151.763220 57.874580
" />
<path d="M151.763220 57.874580
L151.810839 57.779342
" />
<path d="M151.810839 57.779342
L151.810839 57.493628
" />
<path d="M151.810839 57.493628
L151.763220 57.398390
" />
<path d="M151.763220 57.398390
L151.715601 57.350771
" />
<path d="M151.715601 57.350771
L151.620363 57.303152
" />
<path d="M151.620363 57.303152
L151.477506 57.303152
" />
<path d="M151.477506 57.303152
L151.382268 57.350771
" />
<path d="M151.382268 57.350771
L151.334649 57.398390
" />
<path d="M151.334649 57.398390
L151.287030 57.493628
" />
<path d="M151.287030 57.493628
L151.287030 57.779342
" />
<path d="M151.287030 57.779342
L151.334649 57.874580
" />
<path d="M151.334649 57.874580
L151.382268 57.922200
" />
<path d="M151.382268 57.922200
L151.477506 57.969819
" />
<path d="M151.477506 57.969819
L151.620363 57.969819
" />
<path d="M150.429887 57.303152
L150.429887 57.969819
" />
<path d="M150.858458 57.303152
L150.858458 57.826961
" />
<path d="M150.858458 57.826961
L150.810839 57.922200
" />
<path d="M150.810839 57.922200
L150.715601 57.969819
" />
<path d="M150.715601 57.969819
L150.572744 57.969819
" />
<path d="M150.572744 57.969819
L150.477506 57.922200
" />
<path d="M150.477506 57.922200
L150.429887 57.874580
" />
<path d="M150.096553 57.303152
L149.715601 57.303152
" />
<path d="M149.953696 56.969819
L149.953696 57.826961
" />
<path d="M149.953696 57.826961
L149.906077 57.922200
" />
<path d="M149.906077 57.922200
L149.810839 57.969819
" />
<path d="M149.810839 57.969819
L149.715601 57.969819
" />
</g><g transform="rotate(-90.000000 133.300000 57.200000)">
<text x="133.300000" y="57.700000"
transform="scale(-1 1) translate(-266.600000 0)"
textLength="2.916667" font-size="1.333333" lengthAdjust="spacingAndGlyphs"
text-anchor="middle" opacity="0">J14</text>
</g>
<g class="stroked-text"><desc>J14</desc>
<path d="M132.754819 56.390476
L133.469104 56.390476
" />
<path d="M133.469104 56.390476
L133.611961 56.342857
" />
<path d="M133.611961 56.342857
L133.707200 56.247619
" />
<path d="M133.707200 56.247619
L133.754819 56.104762
" />
<path d="M133.754819 56.104762
L133.754819 56.009524
" />
<path d="M133.754819 57.390476
L133.754819 56.819048
" />
<path d="M133.754819 57.104762
L132.754819 57.104762
" />
<path d="M132.754819 57.104762
L132.897676 57.009524
" />
<path d="M132.897676 57.009524
L132.992914 56.914286
" />
<path d="M132.992914 56.914286
L133.040533 56.819048
" />
<path d="M133.088152 58.247619
L133.754819 58.247619
" />
<path d="M132.707200 58.009524
L133.421485 57.771429
" />
<path d="M133.421485 57.771429
L133.421485 58.390476
" />
</g><text x="127.000000" y="46.440000"
transform="scale(-1 1) translate(-254.000000 0)"
textLength="1.964286" font-size="1.333333" lengthAdjust="spacingAndGlyphs"
text-anchor="middle" opacity="0">J5</text>
<g class="stroked-text"><desc>J5</desc>
<path d="M127.333333 45.394819
L127.333333 46.109104
" />
<path d="M127.333333 46.109104
L127.380952 46.251961
" />
<path d="M127.380952 46.251961
L127.476190 46.347200
" />
<path d="M127.476190 46.347200
L127.619047 46.394819
" />
<path d="M127.619047 46.394819
L127.714285 46.394819
" />
<path d="M126.380952 45.394819
L126.857142 45.394819
" />
<path d="M126.857142 45.394819
L126.904761 45.871009
" />
<path d="M126.904761 45.871009
L126.857142 45.823390
" />
<path d="M126.857142 45.823390
L126.761904 45.775771
" />
<path d="M126.761904 45.775771
L126.523809 45.775771
" />
<path d="M126.523809 45.775771
L126.428571 45.823390
" />
<path d="M126.428571 45.823390
L126.380952 45.871009
" />
<path d="M126.380952 45.871009
L126.333333 45.966247
" />
<path d="M126.333333 45.966247
L126.333333 46.204342
" />
<path d="M126.333333 46.204342
L126.380952 46.299580
" />
<path d="M126.380952 46.299580
L126.428571 46.347200
" />
<path d="M126.428571 46.347200
L126.523809 46.394819
" />
<path d="M126.523809 46.394819
L126.761904 46.394819
" />
<path d="M126.761904 46.394819
L126.857142 46.347200
" />
<path d="M126.857142 46.347200
L126.904761 46.299580
" />
</g><text x="75.488800" y="40.835200"
transform="scale(-1 1) translate(-150.977600 0)"
textLength="2.250000" font-size="1.333333" lengthAdjust="spacingAndGlyphs"
text-anchor="middle" opacity="0">U1</text>
<g class="stroked-text"><desc>U1</desc>
<path d="M76.250704 39.790019
L76.250704 40.599542
" />
<path d="M76.250704 40.599542
L76.203085 40.694780
" />
<path d="M76.203085 40.694780
L76.155466 40.742400
" />
<path d="M76.155466 40.742400
L76.060228 40.790019
" />
<path d="M76.060228 40.790019
L75.869752 40.790019
" />
<path d="M75.869752 40.790019
L75.774514 40.742400
" />
<path d="M75.774514 40.742400
L75.726895 40.694780
" />
<path d="M75.726895 40.694780
L75.679276 40.599542
" />
<path d="M75.679276 40.599542
L75.679276 39.790019
" />
<path d="M74.679276 40.790019
L75.250704 40.790019
" />
<path d="M74.964990 40.790019
L74.964990 39.790019
" />
<path d="M74.964990 39.790019
L75.060228 39.932876
" />
<path d="M75.060228 39.932876
L75.155466 40.028114
" />
<path d="M75.155466 40.028114
L75.250704 40.075733
" />
</g><text x="47.100000" y="25.425000"
transform="scale(-1 1) translate(-94.200000 0)"
textLength="2.916667" font-size="1.333333" lengthAdjust="spacingAndGlyphs"
text-anchor="middle" opacity="0">J24</text>
<g class="stroked-text"><desc>J24</desc>
<path d="M47.909523 24.379819
L47.909523 25.094104
" />
<path d="M47.909523 25.094104
L47.957142 25.236961
" />
<path d="M47.957142 25.236961
L48.052380 25.332200
" />
<path d="M48.052380 25.332200
L48.195237 25.379819
" />
<path d="M48.195237 25.379819
L48.290475 25.379819
" />
<path d="M47.480951 24.475057
L47.433332 24.427438
" />
<path d="M47.433332 24.427438
L47.338094 24.379819
" />
<path d="M47.338094 24.379819
L47.099999 24.379819
" />
<path d="M47.099999 24.379819
L47.004761 24.427438
" />
<path d="M47.004761 24.427438
L46.957142 24.475057
" />
<path d="M46.957142 24.475057
L46.909523 24.570295
" />
<path d="M46.909523 24.570295
L46.909523 24.665533
" />
<path d="M46.909523 24.665533
L46.957142 24.808390
" />
<path d="M46.957142 24.808390
L47.528570 25.379819
" />
<path d="M47.528570 25.379819
L46.909523 25.379819
" />
<path d="M46.052380 24.713152
L46.052380 25.379819
" />
<path d="M46.290475 24.332200
L46.528570 25.046485
" />
<path d="M46.528570 25.046485
L45.909523 25.046485
" />
</g><text x="47.000000" y="126.500000"
transform="scale(-1 1) translate(-94.000000 0)"
textLength="1.964286" font-size="1.333333" lengthAdjust="spacingAndGlyphs"
text-anchor="middle" opacity="0">J4</text>
<g class="stroked-text"><desc>J4</desc>
<path d="M47.333333 125.454819
L47.333333 126.169104
" />
<path d="M47.333333 126.169104
L47.380952 126.311961
" />
<path d="M47.380952 126.311961
L47.476190 126.407200
" />
<path d="M47.476190 126.407200
L47.619047 126.454819
" />
<path d="M47.619047 126.454819
L47.714285 126.454819
" />
<path d="M46.428571 125.788152
L46.428571 126.454819
" />
<path d="M46.666666 125.407200
L46.904761 126.121485
" />
<path d="M46.904761 126.121485
L46.285714 126.121485
" />
</g><text x="123.300000" y="69.000000"
transform="scale(-1 1) translate(-246.600000 0)"
textLength="1.964286" font-size="1.333333" lengthAdjust="spacingAndGlyphs"
text-anchor="middle" opacity="0">J8</text>
<g class="stroked-text"><desc>J8</desc>
<path d="M123.633333 67.954819
L123.633333 68.669104
" />
<path d="M123.633333 68.669104
L123.680952 68.811961
" />
<path d="M123.680952 68.811961
L123.776190 68.907200
" />
<path d="M123.776190 68.907200
L123.919047 68.954819
" />
<path d="M123.919047 68.954819
L124.014285 68.954819
" />
<path d="M123.014285 68.383390
L123.109523 68.335771
" />
<path d="M123.109523 68.335771
L123.157142 68.288152
" />
<path d="M123.157142 68.288152
L123.204761 68.192914
" />
<path d="M123.204761 68.192914
L123.204761 68.145295
" />
<path d="M123.204761 68.145295
L123.157142 68.050057
" />
<path d="M123.157142 68.050057
L123.109523 68.002438
" />
<path d="M123.109523 68.002438
L123.014285 67.954819
" />
<path d="M123.014285 67.954819
L122.823809 67.954819
" />
<path d="M122.823809 67.954819
L122.728571 68.002438
" />
<path d="M122.728571 68.002438
L122.680952 68.050057
" />
<path d="M122.680952 68.050057
L122.633333 68.145295
" />
<path d="M122.633333 68.145295
L122.633333 68.192914
" />
<path d="M122.633333 68.192914
L122.680952 68.288152
" />
<path d="M122.680952 68.288152
L122.728571 68.335771
" />
<path d="M122.728571 68.335771
L122.823809 68.383390
" />
<path d="M122.823809 68.383390
L123.014285 68.383390
" />
<path d="M123.014285 68.383390
L123.109523 68.431009
" />
<path d="M123.109523 68.431009
L123.157142 68.478628
" />
<path d="M123.157142 68.478628
L123.204761 68.573866
" />
<path d="M123.204761 68.573866
L123.204761 68.764342
" />
<path d="M123.204761 68.764342
L123.157142 68.859580
" />
<path d="M123.157142 68.859580
L123.109523 68.907200
" />
<path d="M123.109523 68.907200
L123.014285 68.954819
" />
<path d="M123.014285 68.954819
L122.823809 68.954819
" />
<path d="M122.823809 68.954819
L122.728571 68.907200
" />
<path d="M122.728571 68.907200
L122.680952 68.859580
" />
<path d="M122.680952 68.859580
L122.633333 68.764342
" />
<path d="M122.633333 68.764342
L122.633333 68.573866
" />
<path d="M122.633333 68.573866
L122.680952 68.478628
" />
<path d="M122.680952 68.478628
L122.728571 68.431009
" />
<path d="M122.728571 68.431009
L122.823809 68.383390
" />
</g><text x="47.100000" y="33.175000"
transform="scale(-1 1) translate(-94.200000 0)"
textLength="2.916667" font-size="1.333333" lengthAdjust="spacingAndGlyphs"
text-anchor="middle" opacity="0">J25</text>
<g class="stroked-text"><desc>J25</desc>
<path d="M47.909523 32.129819
L47.909523 32.844104
" />
<path d="M47.909523 32.844104
L47.957142 32.986961
" />
<path d="M47.957142 32.986961
L48.052380 33.082200
" />
<path d="M48.052380 33.082200
L48.195237 33.129819
" />
<path d="M48.195237 33.129819
L48.290475 33.129819
" />
<path d="M47.480951 32.225057
L47.433332 32.177438
" />
<path d="M47.433332 32.177438
L47.338094 32.129819
" />
<path d="M47.338094 32.129819
L47.099999 32.129819
" />
<path d="M47.099999 32.129819
L47.004761 32.177438
" />
<path d="M47.004761 32.177438
L46.957142 32.225057
" />
<path d="M46.957142 32.225057
L46.909523 32.320295
" />
<path d="M46.909523 32.320295
L46.909523 32.415533
" />
<path d="M46.909523 32.415533
L46.957142 32.558390
" />
<path d="M46.957142 32.558390
L47.528570 33.129819
" />
<path d="M47.528570 33.129819
L46.909523 33.129819
" />
<path d="M46.004761 32.129819
L46.480951 32.129819
" />
<path d="M46.480951 32.129819
L46.528570 32.606009
" />
<path d="M46.528570 32.606009
L46.480951 32.558390
" />
<path d="M46.480951 32.558390
L46.385713 32.510771
" />
<path d="M46.385713 32.510771
L46.147618 32.510771
" />
<path d="M46.147618 32.510771
L46.052380 32.558390
" />
<path d="M46.052380 32.558390
L46.004761 32.606009
" />
<path d="M46.004761 32.606009
L45.957142 32.701247
" />
<path d="M45.957142 32.701247
L45.957142 32.939342
" />
<path d="M45.957142 32.939342
L46.004761 33.034580
" />
<path d="M46.004761 33.034580
L46.052380 33.082200
" />
<path d="M46.052380 33.082200
L46.147618 33.129819
" />
<path d="M46.147618 33.129819
L46.385713 33.129819
" />
<path d="M46.385713 33.129819
L46.480951 33.082200
" />
<path d="M46.480951 33.082200
L46.528570 33.034580
" />
</g></g>
<g style="fill:#000000; fill-opacity:0.0; 
stroke:#000000; stroke-width:0.120000; stroke-opacity:1; 
stroke-linecap:round; stroke-linejoin:round;">
<path d="M133.805000 59.850000
L133.805000 61.120000
" />
<path d="M133.805000 61.120000
L135.075000 61.120000
" />
<path d="M136.117929 56.930000
L136.515000 56.930000
" />
<path d="M136.117929 57.690000
L136.515000 57.690000
" />
<path d="M136.185000 59.470000
L136.515000 59.470000
" />
<path d="M136.185000 60.230000
L136.515000 60.230000
" />
<path d="M136.515000 55.980000
L139.175000 55.980000
" />
<path d="M136.515000 58.580000
L139.175000 58.580000
" />
<path d="M136.515000 61.180000
L136.515000 55.980000
" />
<path d="M139.175000 55.980000
L139.175000 61.180000
" />
<path d="M139.175000 57.690000
L145.175000 57.690000
" />
<path d="M139.175000 59.570000
L145.175000 59.570000
" />
<path d="M139.175000 59.690000
L145.175000 59.690000
" />
<path d="M139.175000 59.810000
L145.175000 59.810000
" />
<path d="M139.175000 59.930000
L145.175000 59.930000
" />
<path d="M139.175000 60.050000
L145.175000 60.050000
" />
<path d="M139.175000 60.170000
L145.175000 60.170000
" />
<path d="M139.175000 60.230000
L145.175000 60.230000
" />
<path d="M139.175000 61.180000
L136.515000 61.180000
" />
<path d="M145.175000 56.930000
L139.175000 56.930000
" />
<path d="M145.175000 57.690000
L145.175000 56.930000
" />
<path d="M145.175000 59.470000
L139.175000 59.470000
" />
<path d="M145.175000 60.230000
L145.175000 59.470000
" />
</g>
<g style="fill:#000000; fill-opacity:0.0; 
stroke:#000000; stroke-width:0.100000; stroke-opacity:1; 
stroke-linecap:round; stroke-linejoin:round;">
<circle cx="127.000000" cy="50.006248" r="0.914753" /> 
<circle cx="127.000000" cy="48.000000" r="0.914400" /> 
</g>
<g style="fill:#000000; fill-opacity:0.0; 
stroke:#000000; stroke-width:0.120000; stroke-opacity:1; 
stroke-linecap:round; stroke-linejoin:round;">
<path d="M80.300000 59.500000
L79.900000 59.500000
" />
<path d="M82.900000 59.500000
L82.500000 59.500000
" />
<path d="M85.400000 59.500000
L85.000000 59.500000
" />
<path d="M87.900000 59.500000
L87.500000 59.500000
" />
<path d="M90.500000 59.500000
L90.100000 59.500000
" />
<path d="M93.000000 59.500000
L92.600000 59.500000
" />
<path d="M95.600000 59.500000
L95.200000 59.500000
" />
<path d="M98.100000 59.500000
L97.700000 59.500000
" />
<path d="M100.700000 59.500000
L100.300000 59.500000
" />
<path d="M103.200000 59.500000
L102.800000 59.500000
" />
<path d="M105.700000 59.500000
L105.300000 59.500000
" />
<path d="M108.300000 59.500000
L107.900000 59.500000
" />
<path d="M110.800000 59.500000
L110.400000 59.500000
" />
<path d="M113.400000 59.500000
L113.000000 59.500000
" />
<path d="M115.900000 59.500000
L115.500000 59.500000
" />
<path d="M118.400000 59.500000
L118.000000 59.500000
" />
<path d="M121.000000 59.500000
L120.600000 59.500000
" />
<path d="M123.500000 59.500000
L123.100000 59.500000
" />
<path d="M125.833000 59.500000
L125.833000 56.493000
" />
<path d="M126.100000 59.500000
L125.700000 59.500000
" />
<path d="M128.500000 59.500000
L128.200000 59.500000
" />
<path d="M125.833000 56.493000
L128.500000 56.493000
" />
<path d="M77.500000 52.700000
L77.500000 59.500000
" />
<path d="M77.500000 50.500000
L77.500000 50.100000
" />
<path d="M77.500000 47.900000
L77.500000 47.500000
" />
<path d="M77.500000 38.500000
L77.500000 45.300000
" />
<path d="M80.300000 38.500000
L79.900000 38.500000
" />
<path d="M82.900000 38.500000
L82.500000 38.500000
" />
<path d="M85.400000 38.500000
L85.000000 38.500000
" />
<path d="M87.900000 38.500000
L87.500000 38.500000
" />
<path d="M90.500000 38.500000
L90.100000 38.500000
" />
<path d="M93.000000 38.500000
L92.600000 38.500000
" />
<path d="M95.600000 38.500000
L95.200000 38.500000
" />
<path d="M98.100000 38.500000
L97.700000 38.500000
" />
<path d="M100.700000 38.500000
L100.300000 38.500000
" />
<path d="M103.200000 38.500000
L102.800000 38.500000
" />
<path d="M105.700000 38.500000
L105.300000 38.500000
" />
<path d="M108.300000 38.500000
L107.900000 38.500000
" />
<path d="M110.800000 38.500000
L110.400000 38.500000
" />
<path d="M113.400000 38.500000
L113.000000 38.500000
" />
<path d="M115.900000 38.500000
L115.500000 38.500000
" />
<path d="M118.400000 38.500000
L118.000000 38.500000
" />
<path d="M121.000000 38.500000
L120.600000 38.500000
" />
<path d="M123.500000 38.500000
L123.100000 38.500000
" />
<path d="M126.100000 38.500000
L125.700000 38.500000
" />
<path d="M128.500000 38.500000
L128.200000 38.500000
" />
<path d="M52.450000 25.725000
L52.450000 26.975000
" />
<path d="M52.160000 31.985000
L42.040000 31.985000
" />
<path d="M52.160000 26.015000
L52.160000 31.985000
" />
<path d="M52.150000 28.275000
L51.400000 28.275000
" />
<path d="M52.150000 26.775000
L50.350000 26.775000
" />
<path d="M52.150000 26.025000
L52.150000 26.775000
" />
<path d="M51.400000 31.225000
L47.100000 31.225000
" />
<path d="M51.400000 28.275000
L51.400000 31.225000
" />
<path d="M51.200000 25.725000
L52.450000 25.725000
" />
<path d="M50.350000 26.775000
L50.350000 26.025000
" />
<path d="M50.350000 26.025000
L52.150000 26.025000
" />
<path d="M48.850000 26.775000
L45.350000 26.775000
" />
<path d="M48.850000 26.025000
L48.850000 26.775000
" />
<path d="M45.350000 26.775000
L45.350000 26.025000
" />
<path d="M45.350000 26.025000
L48.850000 26.025000
" />
<path d="M43.850000 26.775000
L42.050000 26.775000
" />
<path d="M43.850000 26.025000
L43.850000 26.775000
" />
<path d="M42.800000 31.225000
L47.100000 31.225000
" />
<path d="M42.800000 28.275000
L42.800000 31.225000
" />
<path d="M42.050000 28.275000
L42.800000 28.275000
" />
<path d="M42.050000 26.775000
L42.050000 26.025000
" />
<path d="M42.050000 26.025000
L43.850000 26.025000
" />
<path d="M42.040000 31.985000
L42.040000 26.015000
" />
<path d="M42.040000 26.015000
L52.160000 26.015000
" />
<path d="M45.750000 124.350000
L45.750000 125.600000
" />
<path d="M45.460000 130.610000
L35.340000 130.610000
" />
<path d="M45.460000 124.640000
L45.460000 130.610000
" />
<path d="M45.450000 126.900000
L44.700000 126.900000
" />
<path d="M45.450000 125.400000
L43.650000 125.400000
" />
<path d="M45.450000 124.650000
L45.450000 125.400000
" />
<path d="M44.700000 129.850000
L40.400000 129.850000
" />
<path d="M44.700000 126.900000
L44.700000 129.850000
" />
<path d="M44.500000 124.350000
L45.750000 124.350000
" />
<path d="M43.650000 125.400000
L43.650000 124.650000
" />
<path d="M43.650000 124.650000
L45.450000 124.650000
" />
<path d="M42.150000 125.400000
L38.650000 125.400000
" />
<path d="M42.150000 124.650000
L42.150000 125.400000
" />
<path d="M38.650000 125.400000
L38.650000 124.650000
" />
<path d="M38.650000 124.650000
L42.150000 124.650000
" />
<path d="M37.150000 125.400000
L35.350000 125.400000
" />
<path d="M37.150000 124.650000
L37.150000 125.400000
" />
<path d="M36.100000 129.850000
L40.400000 129.850000
" />
<path d="M36.100000 126.900000
L36.100000 129.850000
" />
<path d="M35.350000 126.900000
L36.100000 126.900000
" />
<path d="M35.350000 125.400000
L35.350000 124.650000
" />
<path d="M35.350000 124.650000
L37.150000 124.650000
" />
<path d="M35.340000 130.610000
L35.340000 124.640000
" />
<path d="M35.340000 124.640000
L45.460000 124.640000
" />
</g>
<g style="fill:#000000; fill-opacity:0.0; 
stroke:#000000; stroke-width:0.100000; stroke-opacity:1; 
stroke-linecap:round; stroke-linejoin:round;">
<path d="M171.480000 63.505600
L171.480000 121.505600
" />
<path d="M167.730000 125.005600
L167.980000 125.005600
" />
</g>
<g style="fill:#000000; fill-opacity:0.0; 
stroke:#000000; stroke-width:0.120000; stroke-opacity:1; 
stroke-linecap:round; stroke-linejoin:round;">
<path d="M158.790000 123.020600
L158.790000 117.820600
" />
<path d="M157.885000 76.115600
L157.885000 81.255600
" />
<path d="M157.885000 73.515600
L157.885000 74.845600
" />
<path d="M156.555000 73.515600
L157.885000 73.515600
" />
<path d="M155.285000 76.115600
L157.885000 76.115600
" />
<path d="M155.285000 73.515600
L155.285000 76.115600
" />
<path d="M153.650000 120.420600
L153.650000 117.820600
" />
<path d="M153.650000 117.820600
L158.790000 117.820600
" />
<path d="M152.685000 81.255600
L157.885000 81.255600
" />
<path d="M152.685000 73.515600
L155.285000 73.515600
" />
<path d="M152.685000 73.515600
L152.685000 81.255600
" />
<path d="M151.050000 123.020600
L158.790000 123.020600
" />
<path d="M151.050000 123.020600
L151.050000 120.420600
" />
<path d="M151.050000 120.420600
L153.650000 120.420600
" />
<path d="M151.050000 119.150600
L151.050000 117.820600
" />
<path d="M151.050000 117.820600
L152.380000 117.820600
" />
<path d="M121.580000 69.645600
L121.580000 117.965600
" />
<path d="M121.580000 67.045600
L121.580000 68.375600
" />
<path d="M120.250000 67.045600
L121.580000 67.045600
" />
<path d="M118.980000 69.645600
L121.580000 69.645600
" />
<path d="M118.980000 67.045600
L118.980000 69.645600
" />
</g>
<g style="fill:#000000; fill-opacity:0.0; 
stroke:#000000; stroke-width:0.100000; stroke-opacity:1; 
stroke-linecap:round; stroke-linejoin:round;">
<path d="M118.980000 60.005600
L167.980000 60.005600
" />
<path d="M118.980000 60.005600
L118.480000 60.005243
" />
<path d="M118.230000 125.005600
L167.730000 125.005600
" />
</g>
<g style="fill:#000000; fill-opacity:0.0; 
stroke:#000000; stroke-width:0.120000; stroke-opacity:1; 
stroke-linecap:round; stroke-linejoin:round;">
<path d="M116.380000 117.965600
L121.580000 117.965600
" />
<path d="M116.380000 67.045600
L118.980000 67.045600
" />
<path d="M116.380000 67.045600
L116.380000 117.965600
" />
</g>
<g style="fill:#000000; fill-opacity:0.0; 
stroke:#000000; stroke-width:0.100000; stroke-opacity:1; 
stroke-linecap:round; stroke-linejoin:round;">
<path d="M114.980000 121.505600
L114.980000 63.555600
" />
<path d="M167.980000 125.005600 A3.499999 3.499999 0.0 0 0 171.480000 121.505600" />
<path d="M171.480000 63.505600 A3.499999 3.499999 0.0 0 0 167.980000 60.005600" />
<path d="M114.980000 121.505600 A3.500000 3.500000 0.0 0 0 118.480000 125.005600" />
<path d="M118.480000 60.005243 A3.500357 3.500357 0.0 0 0 114.980000 63.555600" />
<circle cx="167.980000" cy="121.505600" r="1.651000" /> 
<circle cx="167.980000" cy="63.505600" r="1.651000" /> 
<circle cx="118.980000" cy="121.505600" r="1.651000" /> 
<circle cx="118.980000" cy="63.505600" r="1.651000" /> 
</g>
<g style="fill:#000000; fill-opacity:0.0; 
stroke:#000000; stroke-width:0.120000; stroke-opacity:1; 
stroke-linecap:round; stroke-linejoin:round;">
<path d="M52.450000 33.475000
L52.450000 34.725000
" />
<path d="M52.160000 39.735000
L42.040000 39.735000
" />
<path d="M52.160000 33.765000
L52.160000 39.735000
" />
<path d="M52.150000 36.025000
L51.400000 36.025000
" />
<path d="M52.150000 34.525000
L50.350000 34.525000
" />
<path d="M52.150000 33.775000
L52.150000 34.525000
" />
<path d="M51.400000 38.975000
L47.100000 38.975000
" />
<path d="M51.400000 36.025000
L51.400000 38.975000
" />
<path d="M51.200000 33.475000
L52.450000 33.475000
" />
<path d="M50.350000 34.525000
L50.350000 33.775000
" />
<path d="M50.350000 33.775000
L52.150000 33.775000
" />
<path d="M48.850000 34.525000
L45.350000 34.525000
" />
<path d="M48.850000 33.775000
L48.850000 34.525000
" />
<path d="M45.350000 34.525000
L45.350000 33.775000
" />
<path d="M45.350000 33.775000
L48.850000 33.775000
" />
<path d="M43.850000 34.525000
L42.050000 34.525000
" />
<path d="M43.850000 33.775000
L43.850000 34.525000
" />
<path d="M42.800000 38.975000
L47.100000 38.975000
" />
<path d="M42.800000 36.025000
L42.800000 38.975000
" />
<path d="M42.050000 36.025000
L42.800000 36.025000
" />
<path d="M42.050000 34.525000
L42.050000 33.775000
" />
<path d="M42.050000 33.775000
L43.850000 33.775000
" />
<path d="M42.040000 39.735000
L42.040000 33.765000
" />
<path d="M42.040000 33.765000
L52.160000 33.765000
" />
<g >
</g>
<g >
</g>
<g >
</g>
<g >
</g>
<g >
</g>
<g >
</g>
<g >
</g>
<g >
</g>
<g >
</g>
<g >
</g>
<g >
</g>
<g >
</g>
<g >
</g>
<g >
</g>
<g >
</g>
<g >
</g>
<g >
</g>
<g >
</g>
<g >
</g>
<g >
</g>
<g >
</g>
<g >
</g>
<g >
</g>
<g >
</g>
<g >
</g>
<g >
</g>
<g >
</g>
<g >
</g>
<g >
</g>
<g >
</g>
<g >
</g>
<g >
</g>
<g >
</g>
<g >
</g>
<g >
</g>
<g >
</g>
<g >
</g>
<g >
</g>
<g >
</g>
<g >
</g>
<g >
</g>
<g >
</g>
<g >
</g>
<g >
</g>
<g >
</g>
<g >
</g>
<g >
</g>
<g >
</g>
<g >
</g>
<g >
</g>
<g >
</g>
<g >
</g>
<g >
</g>
<g >
</g>
<g >
</g>
<g >
</g>
<g >
</g>
<g >
</g>
<g >
</g>
<g >
</g>
<g >
</g>
<g >
</g>
<g >
</g>
<g >
</g>
<g >
</g>
<g >
</g>
<g >
</g>
<g >
</g>
<g >
</g>
<g >
</g>
<g >
</g>
<g >
</g>
<g >
</g>
<g >
</g>
<g >
</g>
<g >
</g>
<g >
</g>
<g >
</g>
<g >
</g>
<g >
</g>
<g >
</g>
<g >
</g>
<g >
</g>
<g >
</g>
<g >
</g>
<g >
</g>
<g >
</g>
<g >
</g>
<g >
</g>
<g >
</g>
<g >
</g>
<g >
</g>
<g >
</g>
</g> 
</svg>
