<?xml version="1.0" standalone="no"?>
 <!DOCTYPE svg PUBLIC "-//W3C//DTD SVG 1.1//EN" 
 "http://www.w3.org/Graphics/SVG/1.1/DTD/svg11.dtd"> 
<svg
  xmlns:svg="http://www.w3.org/2000/svg"
  xmlns="http://www.w3.org/2000/svg"
  xmlns:xlink="http://www.w3.org/1999/xlink"
  version="1.1"
  width="17.51cm" height="11.31cm" viewBox="16.95 18.95 175.1 113.1">
<title>SVG Image created as pedalboard-hw-F_Paste.svg date 2023/10/12 21:48:32 </title>
  <desc>Image generated by PCBNEW </desc>
<g style="fill:#000000; fill-opacity:1.000000;stroke:#000000; stroke-opacity:1.000000;
stroke-linecap:round; stroke-linejoin:round;"
 transform="translate(0 0) scale(1 1)">
</g>
<g style="fill:#000000; fill-opacity:0.0; 
stroke:#000000; stroke-width:0.000000; stroke-opacity:1; 
stroke-linecap:round; stroke-linejoin:round;">
<g >
</g>
<g style="fill:#000000; fill-opacity:0.0; 
stroke:#000000; stroke-width:0.000000; stroke-opacity:1; 
stroke-linecap:round; stroke-linejoin:round;">
</g>
<g style="fill:#000000; fill-opacity:1.000000; 
stroke:#000000; stroke-width:0.000000; stroke-opacity:1; 
stroke-linecap:round; stroke-linejoin:round;">
<path style="fill:#000000; fill-opacity:1.000000; 
stroke:#000000; stroke-width:0.000000; stroke-opacity:1; 
stroke-linecap:round; stroke-linejoin:round;fill-rule:evenodd;"
d="M 139.050000,43.525000
139.069030,43.429329
139.123223,43.348223
139.204329,43.294030
139.300000,43.275000
139.800000,43.275000
139.895671,43.294030
139.976777,43.348223
140.030970,43.429329
140.050000,43.525000
140.050000,44.475000
140.030970,44.570671
139.976777,44.651777
139.895671,44.705970
139.800000,44.725000
139.300000,44.725000
139.204329,44.705970
139.123223,44.651777
139.069030,44.570671
139.050000,44.475000
Z" /> 
<path style="fill:#000000; fill-opacity:1.000000; 
stroke:#000000; stroke-width:0.000000; stroke-opacity:1; 
stroke-linecap:round; stroke-linejoin:round;fill-rule:evenodd;"
d="M 140.950000,43.525000
140.969030,43.429329
141.023223,43.348223
141.104329,43.294030
141.200000,43.275000
141.700000,43.275000
141.795671,43.294030
141.876777,43.348223
141.930970,43.429329
141.950000,43.525000
141.950000,44.475000
141.930970,44.570671
141.876777,44.651777
141.795671,44.705970
141.700000,44.725000
141.200000,44.725000
141.104329,44.705970
141.023223,44.651777
140.969030,44.570671
140.950000,44.475000
Z" /> 
</g>
<g >
</g>
<g >
</g>
<g >
</g>
<g style="fill:#000000; fill-opacity:1.000000; 
stroke:#000000; stroke-width:0.000000; stroke-opacity:1; 
stroke-linecap:round; stroke-linejoin:round;">
<path style="fill:#000000; fill-opacity:1.000000; 
stroke:#000000; stroke-width:0.000000; stroke-opacity:1; 
stroke-linecap:round; stroke-linejoin:round;fill-rule:evenodd;"
d="M 157.200000,43.375000
157.219030,43.279329
157.273223,43.198223
157.354329,43.144030
157.450000,43.125000
157.950000,43.125000
158.045671,43.144030
158.126777,43.198223
158.180970,43.279329
158.200000,43.375000
158.200000,44.325000
158.180970,44.420671
158.126777,44.501777
158.045671,44.555970
157.950000,44.575000
157.450000,44.575000
157.354329,44.555970
157.273223,44.501777
157.219030,44.420671
157.200000,44.325000
Z" /> 
<path style="fill:#000000; fill-opacity:1.000000; 
stroke:#000000; stroke-width:0.000000; stroke-opacity:1; 
stroke-linecap:round; stroke-linejoin:round;fill-rule:evenodd;"
d="M 159.100000,43.375000
159.119030,43.279329
159.173223,43.198223
159.254329,43.144030
159.350000,43.125000
159.850000,43.125000
159.945671,43.144030
160.026777,43.198223
160.080970,43.279329
160.100000,43.375000
160.100000,44.325000
160.080970,44.420671
160.026777,44.501777
159.945671,44.555970
159.850000,44.575000
159.350000,44.575000
159.254329,44.555970
159.173223,44.501777
159.119030,44.420671
159.100000,44.325000
Z" /> 
</g>
<g >
</g>
<g >
</g>
<g style="fill:#000000; fill-opacity:1.000000; 
stroke:#000000; stroke-width:0.000000; stroke-opacity:1; 
stroke-linecap:round; stroke-linejoin:round;">
<circle cx="30.000000" cy="119.000000" r="2.800000" /> 
</g>
<g style="fill:#000000; fill-opacity:1.000000; 
stroke:#000000; stroke-width:0.021200; stroke-opacity:1; 
stroke-linecap:round; stroke-linejoin:round;">
</g>
<g >
</g>
<g >
</g>
<g style="fill:#000000; fill-opacity:1.000000; 
stroke:#000000; stroke-width:0.021200; stroke-opacity:1; 
stroke-linecap:round; stroke-linejoin:round;">
</g>
<g style="fill:#000000; fill-opacity:1.000000; 
stroke:#000000; stroke-width:0.000000; stroke-opacity:1; 
stroke-linecap:round; stroke-linejoin:round;">
<path style="fill:#000000; fill-opacity:1.000000; 
stroke:#000000; stroke-width:0.000000; stroke-opacity:1; 
stroke-linecap:round; stroke-linejoin:round;fill-rule:evenodd;"
d="M 128.575000,43.393750
128.591651,43.310038
128.639070,43.239070
128.710038,43.191651
128.793750,43.175000
129.231250,43.175000
129.314962,43.191651
129.385930,43.239070
129.433349,43.310038
129.450000,43.393750
129.450000,43.906250
129.433349,43.989962
129.385930,44.060930
129.314962,44.108349
129.231250,44.125000
128.793750,44.125000
128.710038,44.108349
128.639070,44.060930
128.591651,43.989962
128.575000,43.906250
Z" /> 
<path style="fill:#000000; fill-opacity:1.000000; 
stroke:#000000; stroke-width:0.000000; stroke-opacity:1; 
stroke-linecap:round; stroke-linejoin:round;fill-rule:evenodd;"
d="M 130.150000,43.393750
130.166651,43.310038
130.214070,43.239070
130.285038,43.191651
130.368750,43.175000
130.806250,43.175000
130.889962,43.191651
130.960930,43.239070
131.008349,43.310038
131.025000,43.393750
131.025000,43.906250
131.008349,43.989962
130.960930,44.060930
130.889962,44.108349
130.806250,44.125000
130.368750,44.125000
130.285038,44.108349
130.214070,44.060930
130.166651,43.989962
130.150000,43.906250
Z" /> 
</g>
<g >
</g>
<g >
</g>
<g style="fill:#000000; fill-opacity:1.000000; 
stroke:#000000; stroke-width:0.000000; stroke-opacity:1; 
stroke-linecap:round; stroke-linejoin:round;">
<path style="fill:#000000; fill-opacity:1.000000; 
stroke:#000000; stroke-width:0.000000; stroke-opacity:1; 
stroke-linecap:round; stroke-linejoin:round;fill-rule:evenodd;"
d="M 159.950000,24.975000
159.930970,25.070671
159.876777,25.151777
159.795671,25.205970
159.700000,25.225000
159.200000,25.225000
159.104329,25.205970
159.023223,25.151777
158.969030,25.070671
158.950000,24.975000
158.950000,24.025000
158.969030,23.929329
159.023223,23.848223
159.104329,23.794030
159.200000,23.775000
159.700000,23.775000
159.795671,23.794030
159.876777,23.848223
159.930970,23.929329
159.950000,24.025000
Z" /> 
<path style="fill:#000000; fill-opacity:1.000000; 
stroke:#000000; stroke-width:0.000000; stroke-opacity:1; 
stroke-linecap:round; stroke-linejoin:round;fill-rule:evenodd;"
d="M 158.050000,24.975000
158.030970,25.070671
157.976777,25.151777
157.895671,25.205970
157.800000,25.225000
157.300000,25.225000
157.204329,25.205970
157.123223,25.151777
157.069030,25.070671
157.050000,24.975000
157.050000,24.025000
157.069030,23.929329
157.123223,23.848223
157.204329,23.794030
157.300000,23.775000
157.800000,23.775000
157.895671,23.794030
157.976777,23.848223
158.030970,23.929329
158.050000,24.025000
Z" /> 
</g>
<g >
</g>
<g style="fill:#000000; fill-opacity:1.000000; 
stroke:#000000; stroke-width:0.000000; stroke-opacity:1; 
stroke-linecap:round; stroke-linejoin:round;">
<path style="fill:#000000; fill-opacity:1.000000; 
stroke:#000000; stroke-width:0.000000; stroke-opacity:1; 
stroke-linecap:round; stroke-linejoin:round;fill-rule:evenodd;"
d="M 117.300000,50.100000
117.300000,49.100000
118.800000,49.100000
118.800000,50.100000
Z" /> 
<path style="fill:#000000; fill-opacity:1.000000; 
stroke:#000000; stroke-width:0.000000; stroke-opacity:1; 
stroke-linecap:round; stroke-linejoin:round;fill-rule:evenodd;"
d="M 117.300000,46.900000
117.300000,45.900000
118.800000,45.900000
118.800000,46.900000
Z" /> 
<path style="fill:#000000; fill-opacity:1.000000; 
stroke:#000000; stroke-width:0.000000; stroke-opacity:1; 
stroke-linecap:round; stroke-linejoin:round;fill-rule:evenodd;"
d="M 112.400000,46.900000
112.400000,45.900000
113.900000,45.900000
113.900000,46.900000
Z" /> 
<path style="fill:#000000; fill-opacity:1.000000; 
stroke:#000000; stroke-width:0.000000; stroke-opacity:1; 
stroke-linecap:round; stroke-linejoin:round;fill-rule:evenodd;"
d="M 112.400000,50.100000
112.400000,49.100000
113.900000,49.100000
113.900000,50.100000
Z" /> 
</g>
<g >
</g>
<g style="fill:#000000; fill-opacity:1.000000; 
stroke:#000000; stroke-width:0.000000; stroke-opacity:1; 
stroke-linecap:round; stroke-linejoin:round;">
<circle cx="105.000000" cy="67.000000" r="2.800000" /> 
</g>
<g style="fill:#000000; fill-opacity:1.000000; 
stroke:#000000; stroke-width:0.021200; stroke-opacity:1; 
stroke-linecap:round; stroke-linejoin:round;">
</g>
<g >
</g>
<g style="fill:#000000; fill-opacity:1.000000; 
stroke:#000000; stroke-width:0.021200; stroke-opacity:1; 
stroke-linecap:round; stroke-linejoin:round;">
</g>
<g style="fill:#000000; fill-opacity:1.000000; 
stroke:#000000; stroke-width:0.000000; stroke-opacity:1; 
stroke-linecap:round; stroke-linejoin:round;">
<circle cx="30.000000" cy="67.000000" r="2.800000" /> 
</g>
<g style="fill:#000000; fill-opacity:1.000000; 
stroke:#000000; stroke-width:0.021200; stroke-opacity:1; 
stroke-linecap:round; stroke-linejoin:round;">
</g>
<g >
</g>
<g >
</g>
<g >
</g>
<g >
</g>
<g style="fill:#000000; fill-opacity:1.000000; 
stroke:#000000; stroke-width:0.021200; stroke-opacity:1; 
stroke-linecap:round; stroke-linejoin:round;">
</g>
<g style="fill:#000000; fill-opacity:1.000000; 
stroke:#000000; stroke-width:0.000000; stroke-opacity:1; 
stroke-linecap:round; stroke-linejoin:round;">
<path style="fill:#000000; fill-opacity:1.000000; 
stroke:#000000; stroke-width:0.000000; stroke-opacity:1; 
stroke-linecap:round; stroke-linejoin:round;fill-rule:evenodd;"
d="M 142.300000,50.100000
142.300000,49.100000
143.800000,49.100000
143.800000,50.100000
Z" /> 
<path style="fill:#000000; fill-opacity:1.000000; 
stroke:#000000; stroke-width:0.000000; stroke-opacity:1; 
stroke-linecap:round; stroke-linejoin:round;fill-rule:evenodd;"
d="M 142.300000,46.900000
142.300000,45.900000
143.800000,45.900000
143.800000,46.900000
Z" /> 
<path style="fill:#000000; fill-opacity:1.000000; 
stroke:#000000; stroke-width:0.000000; stroke-opacity:1; 
stroke-linecap:round; stroke-linejoin:round;fill-rule:evenodd;"
d="M 137.400000,46.900000
137.400000,45.900000
138.900000,45.900000
138.900000,46.900000
Z" /> 
<path style="fill:#000000; fill-opacity:1.000000; 
stroke:#000000; stroke-width:0.000000; stroke-opacity:1; 
stroke-linecap:round; stroke-linejoin:round;fill-rule:evenodd;"
d="M 137.400000,50.100000
137.400000,49.100000
138.900000,49.100000
138.900000,50.100000
Z" /> 
</g>
<g >
</g>
<g >
</g>
<g >
</g>
<g >
</g>
<g >
</g>
<g >
</g>
<g style="fill:#000000; fill-opacity:1.000000; 
stroke:#000000; stroke-width:0.000000; stroke-opacity:1; 
stroke-linecap:round; stroke-linejoin:round;">
<path style="fill:#000000; fill-opacity:1.000000; 
stroke:#000000; stroke-width:0.000000; stroke-opacity:1; 
stroke-linecap:round; stroke-linejoin:round;fill-rule:evenodd;"
d="M 97.000000,65.400000
97.000000,63.600000
99.000000,63.600000
99.000000,65.400000
Z" /> 
<path style="fill:#000000; fill-opacity:1.000000; 
stroke:#000000; stroke-width:0.000000; stroke-opacity:1; 
stroke-linecap:round; stroke-linejoin:round;fill-rule:evenodd;"
d="M 111.000000,65.400000
111.000000,63.600000
113.000000,63.600000
113.000000,65.400000
Z" /> 
<path style="fill:#000000; fill-opacity:1.000000; 
stroke:#000000; stroke-width:0.000000; stroke-opacity:1; 
stroke-linecap:round; stroke-linejoin:round;fill-rule:evenodd;"
d="M 97.000000,70.400000
97.000000,68.600000
99.000000,68.600000
99.000000,70.400000
Z" /> 
<path style="fill:#000000; fill-opacity:1.000000; 
stroke:#000000; stroke-width:0.000000; stroke-opacity:1; 
stroke-linecap:round; stroke-linejoin:round;fill-rule:evenodd;"
d="M 111.000000,70.400000
111.000000,68.600000
113.000000,68.600000
113.000000,70.400000
Z" /> 
</g>
<g >
</g>
<g >
</g>
<g style="fill:#000000; fill-opacity:1.000000; 
stroke:#000000; stroke-width:0.000000; stroke-opacity:1; 
stroke-linecap:round; stroke-linejoin:round;">
<path style="fill:#000000; fill-opacity:1.000000; 
stroke:#000000; stroke-width:0.000000; stroke-opacity:1; 
stroke-linecap:round; stroke-linejoin:round;fill-rule:evenodd;"
d="M 76.350000,48.100000
76.330970,48.195671
76.276777,48.276777
76.195671,48.330970
76.100000,48.350000
75.575000,48.350000
75.479329,48.330970
75.398223,48.276777
75.344030,48.195671
75.325000,48.100000
75.325000,47.200000
75.344030,47.104329
75.398223,47.023223
75.479329,46.969030
75.575000,46.950000
76.100000,46.950000
76.195671,46.969030
76.276777,47.023223
76.330970,47.104329
76.350000,47.200000
Z" /> 
<path style="fill:#000000; fill-opacity:1.000000; 
stroke:#000000; stroke-width:0.000000; stroke-opacity:1; 
stroke-linecap:round; stroke-linejoin:round;fill-rule:evenodd;"
d="M 74.525000,48.100000
74.505970,48.195671
74.451777,48.276777
74.370671,48.330970
74.275000,48.350000
73.750000,48.350000
73.654329,48.330970
73.573223,48.276777
73.519030,48.195671
73.500000,48.100000
73.500000,47.200000
73.519030,47.104329
73.573223,47.023223
73.654329,46.969030
73.750000,46.950000
74.275000,46.950000
74.370671,46.969030
74.451777,47.023223
74.505970,47.104329
74.525000,47.200000
Z" /> 
</g>
<g >
</g>
<g >
</g>
<g style="fill:#000000; fill-opacity:1.000000; 
stroke:#000000; stroke-width:0.000000; stroke-opacity:1; 
stroke-linecap:round; stroke-linejoin:round;">
<path style="fill:#000000; fill-opacity:1.000000; 
stroke:#000000; stroke-width:0.000000; stroke-opacity:1; 
stroke-linecap:round; stroke-linejoin:round;fill-rule:evenodd;"
d="M 156.375000,40.575000
156.470671,40.594030
156.551777,40.648223
156.605970,40.729329
156.625000,40.825000
156.625000,41.575000
156.605970,41.670671
156.551777,41.751777
156.470671,41.805970
156.375000,41.825000
154.225000,41.825000
154.129329,41.805970
154.048223,41.751777
153.994030,41.670671
153.975000,41.575000
153.975000,40.825000
153.994030,40.729329
154.048223,40.648223
154.129329,40.594030
154.225000,40.575000
Z" /> 
<path style="fill:#000000; fill-opacity:1.000000; 
stroke:#000000; stroke-width:0.000000; stroke-opacity:1; 
stroke-linecap:round; stroke-linejoin:round;fill-rule:evenodd;"
d="M 156.375000,43.375000
156.470671,43.394030
156.551777,43.448223
156.605970,43.529329
156.625000,43.625000
156.625000,44.375000
156.605970,44.470671
156.551777,44.551777
156.470671,44.605970
156.375000,44.625000
154.225000,44.625000
154.129329,44.605970
154.048223,44.551777
153.994030,44.470671
153.975000,44.375000
153.975000,43.625000
153.994030,43.529329
154.048223,43.448223
154.129329,43.394030
154.225000,43.375000
Z" /> 
</g>
<g >
</g>
<g >
</g>
<g style="fill:#000000; fill-opacity:1.000000; 
stroke:#000000; stroke-width:0.000000; stroke-opacity:1; 
stroke-linecap:round; stroke-linejoin:round;">
<path style="fill:#000000; fill-opacity:1.000000; 
stroke:#000000; stroke-width:0.000000; stroke-opacity:1; 
stroke-linecap:round; stroke-linejoin:round;fill-rule:evenodd;"
d="M 49.550000,26.575000
49.530970,26.670671
49.476777,26.751777
49.395671,26.805970
49.300000,26.825000
48.800000,26.825000
48.704329,26.805970
48.623223,26.751777
48.569030,26.670671
48.550000,26.575000
48.550000,25.625000
48.569030,25.529329
48.623223,25.448223
48.704329,25.394030
48.800000,25.375000
49.300000,25.375000
49.395671,25.394030
49.476777,25.448223
49.530970,25.529329
49.550000,25.625000
Z" /> 
<path style="fill:#000000; fill-opacity:1.000000; 
stroke:#000000; stroke-width:0.000000; stroke-opacity:1; 
stroke-linecap:round; stroke-linejoin:round;fill-rule:evenodd;"
d="M 47.650000,26.575000
47.630970,26.670671
47.576777,26.751777
47.495671,26.805970
47.400000,26.825000
46.900000,26.825000
46.804329,26.805970
46.723223,26.751777
46.669030,26.670671
46.650000,26.575000
46.650000,25.625000
46.669030,25.529329
46.723223,25.448223
46.804329,25.394030
46.900000,25.375000
47.400000,25.375000
47.495671,25.394030
47.576777,25.448223
47.630970,25.529329
47.650000,25.625000
Z" /> 
</g>
<g >
</g>
<g >
</g>
<g style="fill:#000000; fill-opacity:1.000000; 
stroke:#000000; stroke-width:0.000000; stroke-opacity:1; 
stroke-linecap:round; stroke-linejoin:round;">
<path style="fill:#000000; fill-opacity:1.000000; 
stroke:#000000; stroke-width:0.000000; stroke-opacity:1; 
stroke-linecap:round; stroke-linejoin:round;fill-rule:evenodd;"
d="M 92.300000,50.100000
92.300000,49.100000
93.800000,49.100000
93.800000,50.100000
Z" /> 
<path style="fill:#000000; fill-opacity:1.000000; 
stroke:#000000; stroke-width:0.000000; stroke-opacity:1; 
stroke-linecap:round; stroke-linejoin:round;fill-rule:evenodd;"
d="M 92.300000,46.900000
92.300000,45.900000
93.800000,45.900000
93.800000,46.900000
Z" /> 
<path style="fill:#000000; fill-opacity:1.000000; 
stroke:#000000; stroke-width:0.000000; stroke-opacity:1; 
stroke-linecap:round; stroke-linejoin:round;fill-rule:evenodd;"
d="M 87.400000,46.900000
87.400000,45.900000
88.900000,45.900000
88.900000,46.900000
Z" /> 
<path style="fill:#000000; fill-opacity:1.000000; 
stroke:#000000; stroke-width:0.000000; stroke-opacity:1; 
stroke-linecap:round; stroke-linejoin:round;fill-rule:evenodd;"
d="M 87.400000,50.100000
87.400000,49.100000
88.900000,49.100000
88.900000,50.100000
Z" /> 
</g>
<g >
</g>
<g >
</g>
<g style="fill:#000000; fill-opacity:1.000000; 
stroke:#000000; stroke-width:0.000000; stroke-opacity:1; 
stroke-linecap:round; stroke-linejoin:round;">
<path style="fill:#000000; fill-opacity:1.000000; 
stroke:#000000; stroke-width:0.000000; stroke-opacity:1; 
stroke-linecap:round; stroke-linejoin:round;fill-rule:evenodd;"
d="M 64.050000,43.525000
64.069030,43.429329
64.123223,43.348223
64.204329,43.294030
64.300000,43.275000
64.800000,43.275000
64.895671,43.294030
64.976777,43.348223
65.030970,43.429329
65.050000,43.525000
65.050000,44.475000
65.030970,44.570671
64.976777,44.651777
64.895671,44.705970
64.800000,44.725000
64.300000,44.725000
64.204329,44.705970
64.123223,44.651777
64.069030,44.570671
64.050000,44.475000
Z" /> 
<path style="fill:#000000; fill-opacity:1.000000; 
stroke:#000000; stroke-width:0.000000; stroke-opacity:1; 
stroke-linecap:round; stroke-linejoin:round;fill-rule:evenodd;"
d="M 65.950000,43.525000
65.969030,43.429329
66.023223,43.348223
66.104329,43.294030
66.200000,43.275000
66.700000,43.275000
66.795671,43.294030
66.876777,43.348223
66.930970,43.429329
66.950000,43.525000
66.950000,44.475000
66.930970,44.570671
66.876777,44.651777
66.795671,44.705970
66.700000,44.725000
66.200000,44.725000
66.104329,44.705970
66.023223,44.651777
65.969030,44.570671
65.950000,44.475000
Z" /> 
</g>
<g >
</g>
<g style="fill:#000000; fill-opacity:1.000000; 
stroke:#000000; stroke-width:0.000000; stroke-opacity:1; 
stroke-linecap:round; stroke-linejoin:round;">
<path style="fill:#000000; fill-opacity:1.000000; 
stroke:#000000; stroke-width:0.000000; stroke-opacity:1; 
stroke-linecap:round; stroke-linejoin:round;fill-rule:evenodd;"
d="M 163.800000,44.267500
163.895671,44.286530
163.976777,44.340723
164.030970,44.421829
164.050000,44.517500
164.050000,48.017500
164.030970,48.113171
163.976777,48.194277
163.895671,48.248470
163.800000,48.267500
161.800000,48.267500
161.704329,48.248470
161.623223,48.194277
161.569030,48.113171
161.550000,48.017500
161.550000,44.517500
161.569030,44.421829
161.623223,44.340723
161.704329,44.286530
161.800000,44.267500
Z" /> 
<path style="fill:#000000; fill-opacity:1.000000; 
stroke:#000000; stroke-width:0.000000; stroke-opacity:1; 
stroke-linecap:round; stroke-linejoin:round;fill-rule:evenodd;"
d="M 163.800000,52.267500
163.895671,52.286530
163.976777,52.340723
164.030970,52.421829
164.050000,52.517500
164.050000,56.017500
164.030970,56.113171
163.976777,56.194277
163.895671,56.248470
163.800000,56.267500
161.800000,56.267500
161.704329,56.248470
161.623223,56.194277
161.569030,56.113171
161.550000,56.017500
161.550000,52.517500
161.569030,52.421829
161.623223,52.340723
161.704329,52.286530
161.800000,52.267500
Z" /> 
</g>
<g >
</g>
<g >
</g>
<g style="fill:#000000; fill-opacity:1.000000; 
stroke:#000000; stroke-width:0.000000; stroke-opacity:1; 
stroke-linecap:round; stroke-linejoin:round;">
<circle cx="180.000000" cy="67.000000" r="2.800000" /> 
</g>
<g style="fill:#000000; fill-opacity:1.000000; 
stroke:#000000; stroke-width:0.021200; stroke-opacity:1; 
stroke-linecap:round; stroke-linejoin:round;">
</g>
<g >
</g>
<g style="fill:#000000; fill-opacity:1.000000; 
stroke:#000000; stroke-width:0.021200; stroke-opacity:1; 
stroke-linecap:round; stroke-linejoin:round;">
</g>
<g style="fill:#000000; fill-opacity:1.000000; 
stroke:#000000; stroke-width:0.000000; stroke-opacity:1; 
stroke-linecap:round; stroke-linejoin:round;">
<path style="fill:#000000; fill-opacity:1.000000; 
stroke:#000000; stroke-width:0.000000; stroke-opacity:1; 
stroke-linecap:round; stroke-linejoin:round;fill-rule:evenodd;"
d="M 39.900000,30.475000
39.919030,30.379329
39.973223,30.298223
40.054329,30.244030
40.150000,30.225000
40.675000,30.225000
40.770671,30.244030
40.851777,30.298223
40.905970,30.379329
40.925000,30.475000
40.925000,31.375000
40.905970,31.470671
40.851777,31.551777
40.770671,31.605970
40.675000,31.625000
40.150000,31.625000
40.054329,31.605970
39.973223,31.551777
39.919030,31.470671
39.900000,31.375000
Z" /> 
<path style="fill:#000000; fill-opacity:1.000000; 
stroke:#000000; stroke-width:0.000000; stroke-opacity:1; 
stroke-linecap:round; stroke-linejoin:round;fill-rule:evenodd;"
d="M 41.725000,30.475000
41.744030,30.379329
41.798223,30.298223
41.879329,30.244030
41.975000,30.225000
42.500000,30.225000
42.595671,30.244030
42.676777,30.298223
42.730970,30.379329
42.750000,30.475000
42.750000,31.375000
42.730970,31.470671
42.676777,31.551777
42.595671,31.605970
42.500000,31.625000
41.975000,31.625000
41.879329,31.605970
41.798223,31.551777
41.744030,31.470671
41.725000,31.375000
Z" /> 
</g>
<g >
</g>
<g style="fill:#000000; fill-opacity:1.000000; 
stroke:#000000; stroke-width:0.000000; stroke-opacity:1; 
stroke-linecap:round; stroke-linejoin:round;">
<path style="fill:#000000; fill-opacity:1.000000; 
stroke:#000000; stroke-width:0.000000; stroke-opacity:1; 
stroke-linecap:round; stroke-linejoin:round;fill-rule:evenodd;"
d="M 136.625000,55.475000
136.644030,55.379329
136.698223,55.298223
136.779329,55.244030
136.875000,55.225000
140.375000,55.225000
140.470671,55.244030
140.551777,55.298223
140.605970,55.379329
140.625000,55.475000
140.625000,57.475000
140.605970,57.570671
140.551777,57.651777
140.470671,57.705970
140.375000,57.725000
136.875000,57.725000
136.779329,57.705970
136.698223,57.651777
136.644030,57.570671
136.625000,57.475000
Z" /> 
<path style="fill:#000000; fill-opacity:1.000000; 
stroke:#000000; stroke-width:0.000000; stroke-opacity:1; 
stroke-linecap:round; stroke-linejoin:round;fill-rule:evenodd;"
d="M 144.625000,55.475000
144.644030,55.379329
144.698223,55.298223
144.779329,55.244030
144.875000,55.225000
148.375000,55.225000
148.470671,55.244030
148.551777,55.298223
148.605970,55.379329
148.625000,55.475000
148.625000,57.475000
148.605970,57.570671
148.551777,57.651777
148.470671,57.705970
148.375000,57.725000
144.875000,57.725000
144.779329,57.705970
144.698223,57.651777
144.644030,57.570671
144.625000,57.475000
Z" /> 
</g>
<g >
</g>
<g style="fill:#000000; fill-opacity:1.000000; 
stroke:#000000; stroke-width:0.000000; stroke-opacity:1; 
stroke-linecap:round; stroke-linejoin:round;">
<path style="fill:#000000; fill-opacity:1.000000; 
stroke:#000000; stroke-width:0.000000; stroke-opacity:1; 
stroke-linecap:round; stroke-linejoin:round;fill-rule:evenodd;"
d="M 67.300000,50.100000
67.300000,49.100000
68.800000,49.100000
68.800000,50.100000
Z" /> 
<path style="fill:#000000; fill-opacity:1.000000; 
stroke:#000000; stroke-width:0.000000; stroke-opacity:1; 
stroke-linecap:round; stroke-linejoin:round;fill-rule:evenodd;"
d="M 67.300000,46.900000
67.300000,45.900000
68.800000,45.900000
68.800000,46.900000
Z" /> 
<path style="fill:#000000; fill-opacity:1.000000; 
stroke:#000000; stroke-width:0.000000; stroke-opacity:1; 
stroke-linecap:round; stroke-linejoin:round;fill-rule:evenodd;"
d="M 62.400000,46.900000
62.400000,45.900000
63.900000,45.900000
63.900000,46.900000
Z" /> 
<path style="fill:#000000; fill-opacity:1.000000; 
stroke:#000000; stroke-width:0.000000; stroke-opacity:1; 
stroke-linecap:round; stroke-linejoin:round;fill-rule:evenodd;"
d="M 62.400000,50.100000
62.400000,49.100000
63.900000,49.100000
63.900000,50.100000
Z" /> 
</g>
<g >
</g>
<g style="fill:#000000; fill-opacity:1.000000; 
stroke:#000000; stroke-width:0.000000; stroke-opacity:1; 
stroke-linecap:round; stroke-linejoin:round;">
<path style="fill:#000000; fill-opacity:1.000000; 
stroke:#000000; stroke-width:0.000000; stroke-opacity:1; 
stroke-linecap:round; stroke-linejoin:round;fill-rule:evenodd;"
d="M 89.050000,43.525000
89.069030,43.429329
89.123223,43.348223
89.204329,43.294030
89.300000,43.275000
89.800000,43.275000
89.895671,43.294030
89.976777,43.348223
90.030970,43.429329
90.050000,43.525000
90.050000,44.475000
90.030970,44.570671
89.976777,44.651777
89.895671,44.705970
89.800000,44.725000
89.300000,44.725000
89.204329,44.705970
89.123223,44.651777
89.069030,44.570671
89.050000,44.475000
Z" /> 
<path style="fill:#000000; fill-opacity:1.000000; 
stroke:#000000; stroke-width:0.000000; stroke-opacity:1; 
stroke-linecap:round; stroke-linejoin:round;fill-rule:evenodd;"
d="M 90.950000,43.525000
90.969030,43.429329
91.023223,43.348223
91.104329,43.294030
91.200000,43.275000
91.700000,43.275000
91.795671,43.294030
91.876777,43.348223
91.930970,43.429329
91.950000,43.525000
91.950000,44.475000
91.930970,44.570671
91.876777,44.651777
91.795671,44.705970
91.700000,44.725000
91.200000,44.725000
91.104329,44.705970
91.023223,44.651777
90.969030,44.570671
90.950000,44.475000
Z" /> 
</g>
<g >
</g>
<g style="fill:#000000; fill-opacity:1.000000; 
stroke:#000000; stroke-width:0.000000; stroke-opacity:1; 
stroke-linecap:round; stroke-linejoin:round;">
<path style="fill:#000000; fill-opacity:1.000000; 
stroke:#000000; stroke-width:0.000000; stroke-opacity:1; 
stroke-linecap:round; stroke-linejoin:round;fill-rule:evenodd;"
d="M 163.740000,28.800000
163.740000,31.000000
160.590000,31.000000
160.590000,28.800000
Z" /> 
<path style="fill:#000000; fill-opacity:1.000000; 
stroke:#000000; stroke-width:0.000000; stroke-opacity:1; 
stroke-linecap:round; stroke-linejoin:round;fill-rule:evenodd;"
d="M 164.405000,31.000000
164.405000,28.800000
165.005000,28.800000
165.005000,31.000000
Z" /> 
<path style="fill:#000000; fill-opacity:1.000000; 
stroke:#000000; stroke-width:0.000000; stroke-opacity:1; 
stroke-linecap:round; stroke-linejoin:round;fill-rule:evenodd;"
d="M 165.000000,23.600000
165.000000,25.800000
160.600000,25.800000
160.600000,23.600000
Z" /> 
</g>
<g >
</g>
<g >
</g>
<g style="fill:#000000; fill-opacity:1.000000; 
stroke:#000000; stroke-width:0.000000; stroke-opacity:1; 
stroke-linecap:round; stroke-linejoin:round;">
<circle cx="105.000000" cy="119.000000" r="2.800000" /> 
</g>
<g style="fill:#000000; fill-opacity:1.000000; 
stroke:#000000; stroke-width:0.021200; stroke-opacity:1; 
stroke-linecap:round; stroke-linejoin:round;">
</g>
<g >
</g>
<g >
</g>
<g style="fill:#000000; fill-opacity:1.000000; 
stroke:#000000; stroke-width:0.021200; stroke-opacity:1; 
stroke-linecap:round; stroke-linejoin:round;">
</g>
<g style="fill:#000000; fill-opacity:1.000000; 
stroke:#000000; stroke-width:0.000000; stroke-opacity:1; 
stroke-linecap:round; stroke-linejoin:round;">
<path style="fill:#000000; fill-opacity:1.000000; 
stroke:#000000; stroke-width:0.000000; stroke-opacity:1; 
stroke-linecap:round; stroke-linejoin:round;fill-rule:evenodd;"
d="M 22.000000,65.400000
22.000000,63.600000
24.000000,63.600000
24.000000,65.400000
Z" /> 
<path style="fill:#000000; fill-opacity:1.000000; 
stroke:#000000; stroke-width:0.000000; stroke-opacity:1; 
stroke-linecap:round; stroke-linejoin:round;fill-rule:evenodd;"
d="M 36.000000,65.400000
36.000000,63.600000
38.000000,63.600000
38.000000,65.400000
Z" /> 
<path style="fill:#000000; fill-opacity:1.000000; 
stroke:#000000; stroke-width:0.000000; stroke-opacity:1; 
stroke-linecap:round; stroke-linejoin:round;fill-rule:evenodd;"
d="M 22.000000,70.400000
22.000000,68.600000
24.000000,68.600000
24.000000,70.400000
Z" /> 
<path style="fill:#000000; fill-opacity:1.000000; 
stroke:#000000; stroke-width:0.000000; stroke-opacity:1; 
stroke-linecap:round; stroke-linejoin:round;fill-rule:evenodd;"
d="M 36.000000,70.400000
36.000000,68.600000
38.000000,68.600000
38.000000,70.400000
Z" /> 
</g>
<g >
</g>
<g style="fill:#000000; fill-opacity:1.000000; 
stroke:#000000; stroke-width:0.000000; stroke-opacity:1; 
stroke-linecap:round; stroke-linejoin:round;">
<path style="fill:#000000; fill-opacity:1.000000; 
stroke:#000000; stroke-width:0.000000; stroke-opacity:1; 
stroke-linecap:round; stroke-linejoin:round;fill-rule:evenodd;"
d="M 128.550000,41.425000
128.569030,41.329329
128.623223,41.248223
128.704329,41.194030
128.800000,41.175000
129.300000,41.175000
129.395671,41.194030
129.476777,41.248223
129.530970,41.329329
129.550000,41.425000
129.550000,42.375000
129.530970,42.470671
129.476777,42.551777
129.395671,42.605970
129.300000,42.625000
128.800000,42.625000
128.704329,42.605970
128.623223,42.551777
128.569030,42.470671
128.550000,42.375000
Z" /> 
<path style="fill:#000000; fill-opacity:1.000000; 
stroke:#000000; stroke-width:0.000000; stroke-opacity:1; 
stroke-linecap:round; stroke-linejoin:round;fill-rule:evenodd;"
d="M 130.450000,41.425000
130.469030,41.329329
130.523223,41.248223
130.604329,41.194030
130.700000,41.175000
131.200000,41.175000
131.295671,41.194030
131.376777,41.248223
131.430970,41.329329
131.450000,41.425000
131.450000,42.375000
131.430970,42.470671
131.376777,42.551777
131.295671,42.605970
131.200000,42.625000
130.700000,42.625000
130.604329,42.605970
130.523223,42.551777
130.469030,42.470671
130.450000,42.375000
Z" /> 
</g>
<g >
</g>
<g style="fill:#000000; fill-opacity:1.000000; 
stroke:#000000; stroke-width:0.000000; stroke-opacity:1; 
stroke-linecap:round; stroke-linejoin:round;">
<path style="fill:#000000; fill-opacity:1.000000; 
stroke:#000000; stroke-width:0.000000; stroke-opacity:1; 
stroke-linecap:round; stroke-linejoin:round;fill-rule:evenodd;"
d="M 46.900000,31.530000
45.600000,31.530000
45.600000,30.730000
46.900000,30.730000
Z" /> 
<path style="fill:#000000; fill-opacity:1.000000; 
stroke:#000000; stroke-width:0.000000; stroke-opacity:1; 
stroke-linecap:round; stroke-linejoin:round;fill-rule:evenodd;"
d="M 46.900000,32.800000
45.600000,32.800000
45.600000,32.000000
46.900000,32.000000
Z" /> 
<path style="fill:#000000; fill-opacity:1.000000; 
stroke:#000000; stroke-width:0.000000; stroke-opacity:1; 
stroke-linecap:round; stroke-linejoin:round;fill-rule:evenodd;"
d="M 46.900000,34.070000
45.600000,34.070000
45.600000,33.270000
46.900000,33.270000
Z" /> 
<path style="fill:#000000; fill-opacity:1.000000; 
stroke:#000000; stroke-width:0.000000; stroke-opacity:1; 
stroke-linecap:round; stroke-linejoin:round;fill-rule:evenodd;"
d="M 56.400000,34.070000
55.100000,34.070000
55.100000,33.270000
56.400000,33.270000
Z" /> 
<path style="fill:#000000; fill-opacity:1.000000; 
stroke:#000000; stroke-width:0.000000; stroke-opacity:1; 
stroke-linecap:round; stroke-linejoin:round;fill-rule:evenodd;"
d="M 56.400000,32.800000
55.100000,32.800000
55.100000,32.000000
56.400000,32.000000
Z" /> 
<path style="fill:#000000; fill-opacity:1.000000; 
stroke:#000000; stroke-width:0.000000; stroke-opacity:1; 
stroke-linecap:round; stroke-linejoin:round;fill-rule:evenodd;"
d="M 56.400000,31.530000
55.100000,31.530000
55.100000,30.730000
56.400000,30.730000
Z" /> 
</g>
<g >
</g>
<g style="fill:#000000; fill-opacity:1.000000; 
stroke:#000000; stroke-width:0.000000; stroke-opacity:1; 
stroke-linecap:round; stroke-linejoin:round;">
<path style="fill:#000000; fill-opacity:1.000000; 
stroke:#000000; stroke-width:0.000000; stroke-opacity:1; 
stroke-linecap:round; stroke-linejoin:round;fill-rule:evenodd;"
d="M 57.325000,41.175000
57.305970,41.270671
57.251777,41.351777
57.170671,41.405970
57.075000,41.425000
56.550000,41.425000
56.454329,41.405970
56.373223,41.351777
56.319030,41.270671
56.300000,41.175000
56.300000,40.275000
56.319030,40.179329
56.373223,40.098223
56.454329,40.044030
56.550000,40.025000
57.075000,40.025000
57.170671,40.044030
57.251777,40.098223
57.305970,40.179329
57.325000,40.275000
Z" /> 
<path style="fill:#000000; fill-opacity:1.000000; 
stroke:#000000; stroke-width:0.000000; stroke-opacity:1; 
stroke-linecap:round; stroke-linejoin:round;fill-rule:evenodd;"
d="M 55.500000,41.175000
55.480970,41.270671
55.426777,41.351777
55.345671,41.405970
55.250000,41.425000
54.725000,41.425000
54.629329,41.405970
54.548223,41.351777
54.494030,41.270671
54.475000,41.175000
54.475000,40.275000
54.494030,40.179329
54.548223,40.098223
54.629329,40.044030
54.725000,40.025000
55.250000,40.025000
55.345671,40.044030
55.426777,40.098223
55.480970,40.179329
55.500000,40.275000
Z" /> 
</g>
<g >
</g>
<g style="fill:#000000; fill-opacity:1.000000; 
stroke:#000000; stroke-width:0.000000; stroke-opacity:1; 
stroke-linecap:round; stroke-linejoin:round;">
<path style="fill:#000000; fill-opacity:1.000000; 
stroke:#000000; stroke-width:0.000000; stroke-opacity:1; 
stroke-linecap:round; stroke-linejoin:round;fill-rule:evenodd;"
d="M 163.800000,31.467500
163.895671,31.486530
163.976777,31.540723
164.030970,31.621829
164.050000,31.717500
164.050000,35.217500
164.030970,35.313171
163.976777,35.394277
163.895671,35.448470
163.800000,35.467500
161.800000,35.467500
161.704329,35.448470
161.623223,35.394277
161.569030,35.313171
161.550000,35.217500
161.550000,31.717500
161.569030,31.621829
161.623223,31.540723
161.704329,31.486530
161.800000,31.467500
Z" /> 
<path style="fill:#000000; fill-opacity:1.000000; 
stroke:#000000; stroke-width:0.000000; stroke-opacity:1; 
stroke-linecap:round; stroke-linejoin:round;fill-rule:evenodd;"
d="M 163.800000,39.467500
163.895671,39.486530
163.976777,39.540723
164.030970,39.621829
164.050000,39.717500
164.050000,43.217500
164.030970,43.313171
163.976777,43.394277
163.895671,43.448470
163.800000,43.467500
161.800000,43.467500
161.704329,43.448470
161.623223,43.394277
161.569030,43.313171
161.550000,43.217500
161.550000,39.717500
161.569030,39.621829
161.623223,39.540723
161.704329,39.486530
161.800000,39.467500
Z" /> 
</g>
<g >
</g>
<g >
</g>
<g style="fill:#000000; fill-opacity:1.000000; 
stroke:#000000; stroke-width:0.000000; stroke-opacity:1; 
stroke-linecap:round; stroke-linejoin:round;">
<path style="fill:#000000; fill-opacity:1.000000; 
stroke:#000000; stroke-width:0.000000; stroke-opacity:1; 
stroke-linecap:round; stroke-linejoin:round;fill-rule:evenodd;"
d="M 54.475000,42.450000
54.494030,42.354329
54.548223,42.273223
54.629329,42.219030
54.725000,42.200000
55.250000,42.200000
55.345671,42.219030
55.426777,42.273223
55.480970,42.354329
55.500000,42.450000
55.500000,43.350000
55.480970,43.445671
55.426777,43.526777
55.345671,43.580970
55.250000,43.600000
54.725000,43.600000
54.629329,43.580970
54.548223,43.526777
54.494030,43.445671
54.475000,43.350000
Z" /> 
<path style="fill:#000000; fill-opacity:1.000000; 
stroke:#000000; stroke-width:0.000000; stroke-opacity:1; 
stroke-linecap:round; stroke-linejoin:round;fill-rule:evenodd;"
d="M 56.300000,42.450000
56.319030,42.354329
56.373223,42.273223
56.454329,42.219030
56.550000,42.200000
57.075000,42.200000
57.170671,42.219030
57.251777,42.273223
57.305970,42.354329
57.325000,42.450000
57.325000,43.350000
57.305970,43.445671
57.251777,43.526777
57.170671,43.580970
57.075000,43.600000
56.550000,43.600000
56.454329,43.580970
56.373223,43.526777
56.319030,43.445671
56.300000,43.350000
Z" /> 
</g>
<g >
</g>
<g style="fill:#000000; fill-opacity:1.000000; 
stroke:#000000; stroke-width:0.000000; stroke-opacity:1; 
stroke-linecap:round; stroke-linejoin:round;">
<path style="fill:#000000; fill-opacity:1.000000; 
stroke:#000000; stroke-width:0.000000; stroke-opacity:1; 
stroke-linecap:round; stroke-linejoin:round;fill-rule:evenodd;"
d="M 42.350000,32.881250
42.333349,32.964962
42.285930,33.035930
42.214962,33.083349
42.131250,33.100000
41.693750,33.100000
41.610038,33.083349
41.539070,33.035930
41.491651,32.964962
41.475000,32.881250
41.475000,32.368750
41.491651,32.285038
41.539070,32.214070
41.610038,32.166651
41.693750,32.150000
42.131250,32.150000
42.214962,32.166651
42.285930,32.214070
42.333349,32.285038
42.350000,32.368750
Z" /> 
<path style="fill:#000000; fill-opacity:1.000000; 
stroke:#000000; stroke-width:0.000000; stroke-opacity:1; 
stroke-linecap:round; stroke-linejoin:round;fill-rule:evenodd;"
d="M 40.775000,32.881250
40.758349,32.964962
40.710930,33.035930
40.639962,33.083349
40.556250,33.100000
40.118750,33.100000
40.035038,33.083349
39.964070,33.035930
39.916651,32.964962
39.900000,32.881250
39.900000,32.368750
39.916651,32.285038
39.964070,32.214070
40.035038,32.166651
40.118750,32.150000
40.556250,32.150000
40.639962,32.166651
40.710930,32.214070
40.758349,32.285038
40.775000,32.368750
Z" /> 
</g>
<g >
</g>
<g style="fill:#000000; fill-opacity:1.000000; 
stroke:#000000; stroke-width:0.000000; stroke-opacity:1; 
stroke-linecap:round; stroke-linejoin:round;">
<path style="fill:#000000; fill-opacity:1.000000; 
stroke:#000000; stroke-width:0.000000; stroke-opacity:1; 
stroke-linecap:round; stroke-linejoin:round;fill-rule:evenodd;"
d="M 157.150000,49.600000
157.130970,49.695671
157.076777,49.776777
156.995671,49.830970
156.900000,49.850000
156.250000,49.850000
156.154329,49.830970
156.073223,49.776777
156.019030,49.695671
156.000000,49.600000
156.000000,48.300000
156.019030,48.204329
156.073223,48.123223
156.154329,48.069030
156.250000,48.050000
156.900000,48.050000
156.995671,48.069030
157.076777,48.123223
157.130970,48.204329
157.150000,48.300000
Z" /> 
<path style="fill:#000000; fill-opacity:1.000000; 
stroke:#000000; stroke-width:0.000000; stroke-opacity:1; 
stroke-linecap:round; stroke-linejoin:round;fill-rule:evenodd;"
d="M 154.200000,49.600000
154.180970,49.695671
154.126777,49.776777
154.045671,49.830970
153.950000,49.850000
153.300000,49.850000
153.204329,49.830970
153.123223,49.776777
153.069030,49.695671
153.050000,49.600000
153.050000,48.300000
153.069030,48.204329
153.123223,48.123223
153.204329,48.069030
153.300000,48.050000
153.950000,48.050000
154.045671,48.069030
154.126777,48.123223
154.180970,48.204329
154.200000,48.300000
Z" /> 
</g>
<g >
</g>
<g style="fill:#000000; fill-opacity:1.000000; 
stroke:#000000; stroke-width:0.000000; stroke-opacity:1; 
stroke-linecap:round; stroke-linejoin:round;">
<path style="fill:#000000; fill-opacity:1.000000; 
stroke:#000000; stroke-width:0.000000; stroke-opacity:1; 
stroke-linecap:round; stroke-linejoin:round;fill-rule:evenodd;"
d="M 44.500000,30.450000
44.595671,30.469030
44.676777,30.523223
44.730970,30.604329
44.750000,30.700000
44.750000,31.300000
44.730970,31.395671
44.676777,31.476777
44.595671,31.530970
44.500000,31.550000
43.900000,31.550000
43.804329,31.530970
43.723223,31.476777
43.669030,31.395671
43.650000,31.300000
43.650000,30.700000
43.669030,30.604329
43.723223,30.523223
43.804329,30.469030
43.900000,30.450000
Z" /> 
<path style="fill:#000000; fill-opacity:1.000000; 
stroke:#000000; stroke-width:0.000000; stroke-opacity:1; 
stroke-linecap:round; stroke-linejoin:round;fill-rule:evenodd;"
d="M 44.500000,33.250000
44.595671,33.269030
44.676777,33.323223
44.730970,33.404329
44.750000,33.500000
44.750000,34.100000
44.730970,34.195671
44.676777,34.276777
44.595671,34.330970
44.500000,34.350000
43.900000,34.350000
43.804329,34.330970
43.723223,34.276777
43.669030,34.195671
43.650000,34.100000
43.650000,33.500000
43.669030,33.404329
43.723223,33.323223
43.804329,33.269030
43.900000,33.250000
Z" /> 
</g>
<g >
</g>
<g style="fill:#000000; fill-opacity:1.000000; 
stroke:#000000; stroke-width:0.000000; stroke-opacity:1; 
stroke-linecap:round; stroke-linejoin:round;">
<path style="fill:#000000; fill-opacity:1.000000; 
stroke:#000000; stroke-width:0.000000; stroke-opacity:1; 
stroke-linecap:round; stroke-linejoin:round;fill-rule:evenodd;"
d="M 114.050000,43.525000
114.069030,43.429329
114.123223,43.348223
114.204329,43.294030
114.300000,43.275000
114.800000,43.275000
114.895671,43.294030
114.976777,43.348223
115.030970,43.429329
115.050000,43.525000
115.050000,44.475000
115.030970,44.570671
114.976777,44.651777
114.895671,44.705970
114.800000,44.725000
114.300000,44.725000
114.204329,44.705970
114.123223,44.651777
114.069030,44.570671
114.050000,44.475000
Z" /> 
<path style="fill:#000000; fill-opacity:1.000000; 
stroke:#000000; stroke-width:0.000000; stroke-opacity:1; 
stroke-linecap:round; stroke-linejoin:round;fill-rule:evenodd;"
d="M 115.950000,43.525000
115.969030,43.429329
116.023223,43.348223
116.104329,43.294030
116.200000,43.275000
116.700000,43.275000
116.795671,43.294030
116.876777,43.348223
116.930970,43.429329
116.950000,43.525000
116.950000,44.475000
116.930970,44.570671
116.876777,44.651777
116.795671,44.705970
116.700000,44.725000
116.200000,44.725000
116.104329,44.705970
116.023223,44.651777
115.969030,44.570671
115.950000,44.475000
Z" /> 
</g>
<g >
</g>
<g style="fill:#000000; fill-opacity:1.000000; 
stroke:#000000; stroke-width:0.000000; stroke-opacity:1; 
stroke-linecap:round; stroke-linejoin:round;">
<path style="fill:#000000; fill-opacity:1.000000; 
stroke:#000000; stroke-width:0.000000; stroke-opacity:1; 
stroke-linecap:round; stroke-linejoin:round;fill-rule:evenodd;"
d="M 39.900000,33.843750
39.916651,33.760038
39.964070,33.689070
40.035038,33.641651
40.118750,33.625000
40.556250,33.625000
40.639962,33.641651
40.710930,33.689070
40.758349,33.760038
40.775000,33.843750
40.775000,34.356250
40.758349,34.439962
40.710930,34.510930
40.639962,34.558349
40.556250,34.575000
40.118750,34.575000
40.035038,34.558349
39.964070,34.510930
39.916651,34.439962
39.900000,34.356250
Z" /> 
<path style="fill:#000000; fill-opacity:1.000000; 
stroke:#000000; stroke-width:0.000000; stroke-opacity:1; 
stroke-linecap:round; stroke-linejoin:round;fill-rule:evenodd;"
d="M 41.475000,33.843750
41.491651,33.760038
41.539070,33.689070
41.610038,33.641651
41.693750,33.625000
42.131250,33.625000
42.214962,33.641651
42.285930,33.689070
42.333349,33.760038
42.350000,33.843750
42.350000,34.356250
42.333349,34.439962
42.285930,34.510930
42.214962,34.558349
42.131250,34.575000
41.693750,34.575000
41.610038,34.558349
41.539070,34.510930
41.491651,34.439962
41.475000,34.356250
Z" /> 
</g>
<g >
</g>
<g style="fill:#000000; fill-opacity:1.000000; 
stroke:#000000; stroke-width:0.000000; stroke-opacity:1; 
stroke-linecap:round; stroke-linejoin:round;">
<path style="fill:#000000; fill-opacity:1.000000; 
stroke:#000000; stroke-width:0.000000; stroke-opacity:1; 
stroke-linecap:round; stroke-linejoin:round;fill-rule:evenodd;"
d="M 172.400000,30.200000
172.380970,30.295671
172.326777,30.376777
172.245671,30.430970
172.150000,30.450000
171.525000,30.450000
171.429329,30.430970
171.348223,30.376777
171.294030,30.295671
171.275000,30.200000
171.275000,27.300000
171.294030,27.204329
171.348223,27.123223
171.429329,27.069030
171.525000,27.050000
172.150000,27.050000
172.245671,27.069030
172.326777,27.123223
172.380970,27.204329
172.400000,27.300000
Z" /> 
<path style="fill:#000000; fill-opacity:1.000000; 
stroke:#000000; stroke-width:0.000000; stroke-opacity:1; 
stroke-linecap:round; stroke-linejoin:round;fill-rule:evenodd;"
d="M 168.125000,30.200000
168.105970,30.295671
168.051777,30.376777
167.970671,30.430970
167.875000,30.450000
167.250000,30.450000
167.154329,30.430970
167.073223,30.376777
167.019030,30.295671
167.000000,30.200000
167.000000,27.300000
167.019030,27.204329
167.073223,27.123223
167.154329,27.069030
167.250000,27.050000
167.875000,27.050000
167.970671,27.069030
168.051777,27.123223
168.105970,27.204329
168.125000,27.300000
Z" /> 
</g>
<g >
</g>
<g >
</g>
<g style="fill:#000000; fill-opacity:1.000000; 
stroke:#000000; stroke-width:0.000000; stroke-opacity:1; 
stroke-linecap:round; stroke-linejoin:round;">
<path style="fill:#000000; fill-opacity:1.000000; 
stroke:#000000; stroke-width:0.000000; stroke-opacity:1; 
stroke-linecap:round; stroke-linejoin:round;fill-rule:evenodd;"
d="M 157.050000,47.275000
157.030970,47.370671
156.976777,47.451777
156.895671,47.505970
156.800000,47.525000
156.300000,47.525000
156.204329,47.505970
156.123223,47.451777
156.069030,47.370671
156.050000,47.275000
156.050000,46.325000
156.069030,46.229329
156.123223,46.148223
156.204329,46.094030
156.300000,46.075000
156.800000,46.075000
156.895671,46.094030
156.976777,46.148223
157.030970,46.229329
157.050000,46.325000
Z" /> 
<path style="fill:#000000; fill-opacity:1.000000; 
stroke:#000000; stroke-width:0.000000; stroke-opacity:1; 
stroke-linecap:round; stroke-linejoin:round;fill-rule:evenodd;"
d="M 155.150000,47.275000
155.130970,47.370671
155.076777,47.451777
154.995671,47.505970
154.900000,47.525000
154.400000,47.525000
154.304329,47.505970
154.223223,47.451777
154.169030,47.370671
154.150000,47.275000
154.150000,46.325000
154.169030,46.229329
154.223223,46.148223
154.304329,46.094030
154.400000,46.075000
154.900000,46.075000
154.995671,46.094030
155.076777,46.148223
155.130970,46.229329
155.150000,46.325000
Z" /> 
</g>
<g >
</g>
<g style="fill:#000000; fill-opacity:1.000000; 
stroke:#000000; stroke-width:0.000000; stroke-opacity:1; 
stroke-linecap:round; stroke-linejoin:round;">
<path style="fill:#000000; fill-opacity:1.000000; 
stroke:#000000; stroke-width:0.000000; stroke-opacity:1; 
stroke-linecap:round; stroke-linejoin:round;fill-rule:evenodd;"
d="M 172.000000,117.400000
172.000000,115.600000
174.000000,115.600000
174.000000,117.400000
Z" /> 
<path style="fill:#000000; fill-opacity:1.000000; 
stroke:#000000; stroke-width:0.000000; stroke-opacity:1; 
stroke-linecap:round; stroke-linejoin:round;fill-rule:evenodd;"
d="M 186.000000,117.400000
186.000000,115.600000
188.000000,115.600000
188.000000,117.400000
Z" /> 
<path style="fill:#000000; fill-opacity:1.000000; 
stroke:#000000; stroke-width:0.000000; stroke-opacity:1; 
stroke-linecap:round; stroke-linejoin:round;fill-rule:evenodd;"
d="M 172.000000,122.400000
172.000000,120.600000
174.000000,120.600000
174.000000,122.400000
Z" /> 
<path style="fill:#000000; fill-opacity:1.000000; 
stroke:#000000; stroke-width:0.000000; stroke-opacity:1; 
stroke-linecap:round; stroke-linejoin:round;fill-rule:evenodd;"
d="M 186.000000,122.400000
186.000000,120.600000
188.000000,120.600000
188.000000,122.400000
Z" /> 
</g>
<g >
</g>
<g style="fill:#000000; fill-opacity:1.000000; 
stroke:#000000; stroke-width:0.000000; stroke-opacity:1; 
stroke-linecap:round; stroke-linejoin:round;">
<circle cx="180.000000" cy="119.000000" r="2.800000" /> 
</g>
<g style="fill:#000000; fill-opacity:1.000000; 
stroke:#000000; stroke-width:0.021200; stroke-opacity:1; 
stroke-linecap:round; stroke-linejoin:round;">
</g>
<g >
</g>
<g style="fill:#000000; fill-opacity:1.000000; 
stroke:#000000; stroke-width:0.021200; stroke-opacity:1; 
stroke-linecap:round; stroke-linejoin:round;">
</g>
<g style="fill:#000000; fill-opacity:1.000000; 
stroke:#000000; stroke-width:0.000000; stroke-opacity:1; 
stroke-linecap:round; stroke-linejoin:round;">
<path style="fill:#000000; fill-opacity:1.000000; 
stroke:#000000; stroke-width:0.000000; stroke-opacity:1; 
stroke-linecap:round; stroke-linejoin:round;fill-rule:evenodd;"
d="M 172.000000,65.400000
172.000000,63.600000
174.000000,63.600000
174.000000,65.400000
Z" /> 
<path style="fill:#000000; fill-opacity:1.000000; 
stroke:#000000; stroke-width:0.000000; stroke-opacity:1; 
stroke-linecap:round; stroke-linejoin:round;fill-rule:evenodd;"
d="M 186.000000,65.400000
186.000000,63.600000
188.000000,63.600000
188.000000,65.400000
Z" /> 
<path style="fill:#000000; fill-opacity:1.000000; 
stroke:#000000; stroke-width:0.000000; stroke-opacity:1; 
stroke-linecap:round; stroke-linejoin:round;fill-rule:evenodd;"
d="M 172.000000,70.400000
172.000000,68.600000
174.000000,68.600000
174.000000,70.400000
Z" /> 
<path style="fill:#000000; fill-opacity:1.000000; 
stroke:#000000; stroke-width:0.000000; stroke-opacity:1; 
stroke-linecap:round; stroke-linejoin:round;fill-rule:evenodd;"
d="M 186.000000,70.400000
186.000000,68.600000
188.000000,68.600000
188.000000,70.400000
Z" /> 
</g>
<g >
</g>
<g style="fill:#000000; fill-opacity:1.000000; 
stroke:#000000; stroke-width:0.000000; stroke-opacity:1; 
stroke-linecap:round; stroke-linejoin:round;">
<path style="fill:#000000; fill-opacity:1.000000; 
stroke:#000000; stroke-width:0.000000; stroke-opacity:1; 
stroke-linecap:round; stroke-linejoin:round;fill-rule:evenodd;"
d="M 22.000000,117.400000
22.000000,115.600000
24.000000,115.600000
24.000000,117.400000
Z" /> 
<path style="fill:#000000; fill-opacity:1.000000; 
stroke:#000000; stroke-width:0.000000; stroke-opacity:1; 
stroke-linecap:round; stroke-linejoin:round;fill-rule:evenodd;"
d="M 36.000000,117.400000
36.000000,115.600000
38.000000,115.600000
38.000000,117.400000
Z" /> 
<path style="fill:#000000; fill-opacity:1.000000; 
stroke:#000000; stroke-width:0.000000; stroke-opacity:1; 
stroke-linecap:round; stroke-linejoin:round;fill-rule:evenodd;"
d="M 22.000000,122.400000
22.000000,120.600000
24.000000,120.600000
24.000000,122.400000
Z" /> 
<path style="fill:#000000; fill-opacity:1.000000; 
stroke:#000000; stroke-width:0.000000; stroke-opacity:1; 
stroke-linecap:round; stroke-linejoin:round;fill-rule:evenodd;"
d="M 36.000000,122.400000
36.000000,120.600000
38.000000,120.600000
38.000000,122.400000
Z" /> 
</g>
<g >
</g>
<g >
</g>
<g style="fill:#000000; fill-opacity:1.000000; 
stroke:#000000; stroke-width:0.000000; stroke-opacity:1; 
stroke-linecap:round; stroke-linejoin:round;">
<path style="fill:#000000; fill-opacity:1.000000; 
stroke:#000000; stroke-width:0.000000; stroke-opacity:1; 
stroke-linecap:round; stroke-linejoin:round;fill-rule:evenodd;"
d="M 51.475000,42.643750
51.491651,42.560038
51.539070,42.489070
51.610038,42.441651
51.693750,42.425000
52.131250,42.425000
52.214962,42.441651
52.285930,42.489070
52.333349,42.560038
52.350000,42.643750
52.350000,43.156250
52.333349,43.239962
52.285930,43.310930
52.214962,43.358349
52.131250,43.375000
51.693750,43.375000
51.610038,43.358349
51.539070,43.310930
51.491651,43.239962
51.475000,43.156250
Z" /> 
<path style="fill:#000000; fill-opacity:1.000000; 
stroke:#000000; stroke-width:0.000000; stroke-opacity:1; 
stroke-linecap:round; stroke-linejoin:round;fill-rule:evenodd;"
d="M 53.050000,42.643750
53.066651,42.560038
53.114070,42.489070
53.185038,42.441651
53.268750,42.425000
53.706250,42.425000
53.789962,42.441651
53.860930,42.489070
53.908349,42.560038
53.925000,42.643750
53.925000,43.156250
53.908349,43.239962
53.860930,43.310930
53.789962,43.358349
53.706250,43.375000
53.268750,43.375000
53.185038,43.358349
53.114070,43.310930
53.066651,43.239962
53.050000,43.156250
Z" /> 
</g>
<g >
</g>
<g style="fill:#000000; fill-opacity:1.000000; 
stroke:#000000; stroke-width:0.000000; stroke-opacity:1; 
stroke-linecap:round; stroke-linejoin:round;">
<path style="fill:#000000; fill-opacity:1.000000; 
stroke:#000000; stroke-width:0.000000; stroke-opacity:1; 
stroke-linecap:round; stroke-linejoin:round;fill-rule:evenodd;"
d="M 72.824000,47.432600
72.824000,47.788200
71.706400,47.788200
71.706400,47.432600
Z" /> 
<path style="fill:#000000; fill-opacity:1.000000; 
stroke:#000000; stroke-width:0.000000; stroke-opacity:1; 
stroke-linecap:round; stroke-linejoin:round;fill-rule:evenodd;"
d="M 72.824000,46.772200
72.824000,47.127800
71.706400,47.127800
71.706400,46.772200
Z" /> 
<path style="fill:#000000; fill-opacity:1.000000; 
stroke:#000000; stroke-width:0.000000; stroke-opacity:1; 
stroke-linecap:round; stroke-linejoin:round;fill-rule:evenodd;"
d="M 72.824000,46.111800
72.824000,46.467400
71.706400,46.467400
71.706400,46.111800
Z" /> 
<path style="fill:#000000; fill-opacity:1.000000; 
stroke:#000000; stroke-width:0.000000; stroke-opacity:1; 
stroke-linecap:round; stroke-linejoin:round;fill-rule:evenodd;"
d="M 70.893600,46.111800
70.893600,46.467400
69.776000,46.467400
69.776000,46.111800
Z" /> 
<path style="fill:#000000; fill-opacity:1.000000; 
stroke:#000000; stroke-width:0.000000; stroke-opacity:1; 
stroke-linecap:round; stroke-linejoin:round;fill-rule:evenodd;"
d="M 70.893600,47.432600
70.893600,47.788200
69.776000,47.788200
69.776000,47.432600
Z" /> 
</g>
<g >
</g>
<g >
</g>
<g style="fill:#000000; fill-opacity:1.000000; 
stroke:#000000; stroke-width:0.000000; stroke-opacity:1; 
stroke-linecap:round; stroke-linejoin:round;">
<path style="fill:#000000; fill-opacity:1.000000; 
stroke:#000000; stroke-width:0.000000; stroke-opacity:1; 
stroke-linecap:round; stroke-linejoin:round;fill-rule:evenodd;"
d="M 97.000000,117.400000
97.000000,115.600000
99.000000,115.600000
99.000000,117.400000
Z" /> 
<path style="fill:#000000; fill-opacity:1.000000; 
stroke:#000000; stroke-width:0.000000; stroke-opacity:1; 
stroke-linecap:round; stroke-linejoin:round;fill-rule:evenodd;"
d="M 111.000000,117.400000
111.000000,115.600000
113.000000,115.600000
113.000000,117.400000
Z" /> 
<path style="fill:#000000; fill-opacity:1.000000; 
stroke:#000000; stroke-width:0.000000; stroke-opacity:1; 
stroke-linecap:round; stroke-linejoin:round;fill-rule:evenodd;"
d="M 97.000000,122.400000
97.000000,120.600000
99.000000,120.600000
99.000000,122.400000
Z" /> 
<path style="fill:#000000; fill-opacity:1.000000; 
stroke:#000000; stroke-width:0.000000; stroke-opacity:1; 
stroke-linecap:round; stroke-linejoin:round;fill-rule:evenodd;"
d="M 111.000000,122.400000
111.000000,120.600000
113.000000,120.600000
113.000000,122.400000
Z" /> 
</g>
<g >
</g>
<g style="fill:#000000; fill-opacity:1.000000; 
stroke:#000000; stroke-width:0.000000; stroke-opacity:1; 
stroke-linecap:round; stroke-linejoin:round;">
<path style="fill:#000000; fill-opacity:1.000000; 
stroke:#000000; stroke-width:0.000000; stroke-opacity:1; 
stroke-linecap:round; stroke-linejoin:round;fill-rule:evenodd;"
d="M 149.175000,45.575000
149.194030,45.479329
149.248223,45.398223
149.329329,45.344030
149.425000,45.325000
150.075000,45.325000
150.170671,45.344030
150.251777,45.398223
150.305970,45.479329
150.325000,45.575000
150.325000,46.875000
150.305970,46.970671
150.251777,47.051777
150.170671,47.105970
150.075000,47.125000
149.425000,47.125000
149.329329,47.105970
149.248223,47.051777
149.194030,46.970671
149.175000,46.875000
Z" /> 
<path style="fill:#000000; fill-opacity:1.000000; 
stroke:#000000; stroke-width:0.000000; stroke-opacity:1; 
stroke-linecap:round; stroke-linejoin:round;fill-rule:evenodd;"
d="M 152.125000,45.575000
152.144030,45.479329
152.198223,45.398223
152.279329,45.344030
152.375000,45.325000
153.025000,45.325000
153.120671,45.344030
153.201777,45.398223
153.255970,45.479329
153.275000,45.575000
153.275000,46.875000
153.255970,46.970671
153.201777,47.051777
153.120671,47.105970
153.025000,47.125000
152.375000,47.125000
152.279329,47.105970
152.198223,47.051777
152.144030,46.970671
152.125000,46.875000
Z" /> 
</g>
<g >
</g>
<g >
</g>
<g style="fill:#000000; fill-opacity:1.000000; 
stroke:#000000; stroke-width:0.000000; stroke-opacity:1; 
stroke-linecap:round; stroke-linejoin:round;">
<path style="fill:#000000; fill-opacity:1.000000; 
stroke:#000000; stroke-width:0.000000; stroke-opacity:1; 
stroke-linecap:round; stroke-linejoin:round;fill-rule:evenodd;"
d="M 134.300000,46.050000
134.395671,46.069030
134.476777,46.123223
134.530970,46.204329
134.550000,46.300000
134.550000,48.300000
134.530970,48.395671
134.476777,48.476777
134.395671,48.530970
134.300000,48.550000
133.000000,48.550000
132.904329,48.530970
132.823223,48.476777
132.769030,48.395671
132.750000,48.300000
132.750000,46.300000
132.769030,46.204329
132.823223,46.123223
132.904329,46.069030
133.000000,46.050000
Z" /> 
<path style="fill:#000000; fill-opacity:1.000000; 
stroke:#000000; stroke-width:0.000000; stroke-opacity:1; 
stroke-linecap:round; stroke-linejoin:round;fill-rule:evenodd;"
d="M 134.300000,50.050000
134.395671,50.069030
134.476777,50.123223
134.530970,50.204329
134.550000,50.300000
134.550000,52.300000
134.530970,52.395671
134.476777,52.476777
134.395671,52.530970
134.300000,52.550000
133.000000,52.550000
132.904329,52.530970
132.823223,52.476777
132.769030,52.395671
132.750000,52.300000
132.750000,50.300000
132.769030,50.204329
132.823223,50.123223
132.904329,50.069030
133.000000,50.050000
Z" /> 
</g>
<g >
</g>
<g style="fill:#000000; fill-opacity:1.000000; 
stroke:#000000; stroke-width:0.000000; stroke-opacity:1; 
stroke-linecap:round; stroke-linejoin:round;">
<path style="fill:#000000; fill-opacity:1.000000; 
stroke:#000000; stroke-width:0.000000; stroke-opacity:1; 
stroke-linecap:round; stroke-linejoin:round;fill-rule:evenodd;"
d="M 51.475000,40.518750
51.491651,40.435038
51.539070,40.364070
51.610038,40.316651
51.693750,40.300000
52.131250,40.300000
52.214962,40.316651
52.285930,40.364070
52.333349,40.435038
52.350000,40.518750
52.350000,41.031250
52.333349,41.114962
52.285930,41.185930
52.214962,41.233349
52.131250,41.250000
51.693750,41.250000
51.610038,41.233349
51.539070,41.185930
51.491651,41.114962
51.475000,41.031250
Z" /> 
<path style="fill:#000000; fill-opacity:1.000000; 
stroke:#000000; stroke-width:0.000000; stroke-opacity:1; 
stroke-linecap:round; stroke-linejoin:round;fill-rule:evenodd;"
d="M 53.050000,40.518750
53.066651,40.435038
53.114070,40.364070
53.185038,40.316651
53.268750,40.300000
53.706250,40.300000
53.789962,40.316651
53.860930,40.364070
53.908349,40.435038
53.925000,40.518750
53.925000,41.031250
53.908349,41.114962
53.860930,41.185930
53.789962,41.233349
53.706250,41.250000
53.268750,41.250000
53.185038,41.233349
53.114070,41.185930
53.066651,41.114962
53.050000,41.031250
Z" /> 
</g>
<g >
</g>
<g >
</g>
<g >
</g>
<g >
</g>
<g >
</g>
<g >
</g>
<g >
</g>
<g >
</g>
<g >
</g>
<g >
</g>
<g >
</g>
<g >
</g>
<g >
</g>
<g >
</g>
</g> 
</svg>
