<?xml version="1.0" standalone="no"?>
 <!DOCTYPE svg PUBLIC "-//W3C//DTD SVG 1.1//EN" 
 "http://www.w3.org/Graphics/SVG/1.1/DTD/svg11.dtd"> 
<svg
  xmlns:svg="http://www.w3.org/2000/svg"
  xmlns="http://www.w3.org/2000/svg"
  xmlns:xlink="http://www.w3.org/1999/xlink"
  version="1.1"
  width="17.2142893cm" height="10.71cm" viewBox="18.907107 18.95 172.142893 107.1">
<title>SVG Image created as pedalboard-hw-F_Paste.svg date 2023/09/10 23:06:28 </title>
  <desc>Image generated by PCBNEW </desc>
<g style="fill:#000000; fill-opacity:1.000000;stroke:#000000; stroke-opacity:1.000000;
stroke-linecap:round; stroke-linejoin:round;"
 transform="translate(0 0) scale(1 1)">
</g>
<g style="fill:#000000; fill-opacity:0.0; 
stroke:#000000; stroke-width:0.000000; stroke-opacity:1; 
stroke-linecap:round; stroke-linejoin:round;">
<g >
</g>
<g style="fill:#000000; fill-opacity:0.0; 
stroke:#000000; stroke-width:0.000000; stroke-opacity:1; 
stroke-linecap:round; stroke-linejoin:round;">
</g>
<g style="fill:#000000; fill-opacity:1.000000; 
stroke:#000000; stroke-width:0.000000; stroke-opacity:1; 
stroke-linecap:round; stroke-linejoin:round;">
<path style="fill:#000000; fill-opacity:1.000000; 
stroke:#000000; stroke-width:0.000000; stroke-opacity:1; 
stroke-linecap:round; stroke-linejoin:round;fill-rule:evenodd;"
d="M 139.050000,43.525000
139.069030,43.429329
139.123223,43.348223
139.204329,43.294030
139.300000,43.275000
139.800000,43.275000
139.895671,43.294030
139.976777,43.348223
140.030970,43.429329
140.050000,43.525000
140.050000,44.475000
140.030970,44.570671
139.976777,44.651777
139.895671,44.705970
139.800000,44.725000
139.300000,44.725000
139.204329,44.705970
139.123223,44.651777
139.069030,44.570671
139.050000,44.475000
Z" /> 
<path style="fill:#000000; fill-opacity:1.000000; 
stroke:#000000; stroke-width:0.000000; stroke-opacity:1; 
stroke-linecap:round; stroke-linejoin:round;fill-rule:evenodd;"
d="M 140.950000,43.525000
140.969030,43.429329
141.023223,43.348223
141.104329,43.294030
141.200000,43.275000
141.700000,43.275000
141.795671,43.294030
141.876777,43.348223
141.930970,43.429329
141.950000,43.525000
141.950000,44.475000
141.930970,44.570671
141.876777,44.651777
141.795671,44.705970
141.700000,44.725000
141.200000,44.725000
141.104329,44.705970
141.023223,44.651777
140.969030,44.570671
140.950000,44.475000
Z" /> 
</g>
<g >
</g>
<g >
</g>
<g >
</g>
<g >
</g>
<g style="fill:#000000; fill-opacity:1.000000; 
stroke:#000000; stroke-width:0.000000; stroke-opacity:1; 
stroke-linecap:round; stroke-linejoin:round;">
<path style="fill:#000000; fill-opacity:1.000000; 
stroke:#000000; stroke-width:0.000000; stroke-opacity:1; 
stroke-linecap:round; stroke-linejoin:round;fill-rule:evenodd;"
d="M 157.200000,43.375000
157.219030,43.279329
157.273223,43.198223
157.354329,43.144030
157.450000,43.125000
157.950000,43.125000
158.045671,43.144030
158.126777,43.198223
158.180970,43.279329
158.200000,43.375000
158.200000,44.325000
158.180970,44.420671
158.126777,44.501777
158.045671,44.555970
157.950000,44.575000
157.450000,44.575000
157.354329,44.555970
157.273223,44.501777
157.219030,44.420671
157.200000,44.325000
Z" /> 
<path style="fill:#000000; fill-opacity:1.000000; 
stroke:#000000; stroke-width:0.000000; stroke-opacity:1; 
stroke-linecap:round; stroke-linejoin:round;fill-rule:evenodd;"
d="M 159.100000,43.375000
159.119030,43.279329
159.173223,43.198223
159.254329,43.144030
159.350000,43.125000
159.850000,43.125000
159.945671,43.144030
160.026777,43.198223
160.080970,43.279329
160.100000,43.375000
160.100000,44.325000
160.080970,44.420671
160.026777,44.501777
159.945671,44.555970
159.850000,44.575000
159.350000,44.575000
159.254329,44.555970
159.173223,44.501777
159.119030,44.420671
159.100000,44.325000
Z" /> 
</g>
<g >
</g>
<g >
</g>
<g style="fill:#000000; fill-opacity:1.000000; 
stroke:#000000; stroke-width:0.000000; stroke-opacity:1; 
stroke-linecap:round; stroke-linejoin:round;">
<circle cx="30.000000" cy="119.000000" r="2.800000" /> 
</g>
<g style="fill:#000000; fill-opacity:1.000000; 
stroke:#000000; stroke-width:0.021200; stroke-opacity:1; 
stroke-linecap:round; stroke-linejoin:round;">
</g>
<g >
</g>
<g >
</g>
<g style="fill:#000000; fill-opacity:1.000000; 
stroke:#000000; stroke-width:0.021200; stroke-opacity:1; 
stroke-linecap:round; stroke-linejoin:round;">
</g>
<g style="fill:#000000; fill-opacity:1.000000; 
stroke:#000000; stroke-width:0.000000; stroke-opacity:1; 
stroke-linecap:round; stroke-linejoin:round;">
<path style="fill:#000000; fill-opacity:1.000000; 
stroke:#000000; stroke-width:0.000000; stroke-opacity:1; 
stroke-linecap:round; stroke-linejoin:round;fill-rule:evenodd;"
d="M 129.256250,43.275000
129.339962,43.291651
129.410930,43.339070
129.458349,43.410038
129.475000,43.493750
129.475000,43.931250
129.458349,44.014962
129.410930,44.085930
129.339962,44.133349
129.256250,44.150000
128.743750,44.150000
128.660038,44.133349
128.589070,44.085930
128.541651,44.014962
128.525000,43.931250
128.525000,43.493750
128.541651,43.410038
128.589070,43.339070
128.660038,43.291651
128.743750,43.275000
Z" /> 
<path style="fill:#000000; fill-opacity:1.000000; 
stroke:#000000; stroke-width:0.000000; stroke-opacity:1; 
stroke-linecap:round; stroke-linejoin:round;fill-rule:evenodd;"
d="M 129.256250,44.850000
129.339962,44.866651
129.410930,44.914070
129.458349,44.985038
129.475000,45.068750
129.475000,45.506250
129.458349,45.589962
129.410930,45.660930
129.339962,45.708349
129.256250,45.725000
128.743750,45.725000
128.660038,45.708349
128.589070,45.660930
128.541651,45.589962
128.525000,45.506250
128.525000,45.068750
128.541651,44.985038
128.589070,44.914070
128.660038,44.866651
128.743750,44.850000
Z" /> 
</g>
<g >
</g>
<g style="fill:#000000; fill-opacity:1.000000; 
stroke:#000000; stroke-width:0.000000; stroke-opacity:1; 
stroke-linecap:round; stroke-linejoin:round;">
<path style="fill:#000000; fill-opacity:1.000000; 
stroke:#000000; stroke-width:0.000000; stroke-opacity:1; 
stroke-linecap:round; stroke-linejoin:round;fill-rule:evenodd;"
d="M 165.225000,25.750000
165.320671,25.769030
165.401777,25.823223
165.455970,25.904329
165.475000,26.000000
165.475000,26.500000
165.455970,26.595671
165.401777,26.676777
165.320671,26.730970
165.225000,26.750000
164.275000,26.750000
164.179329,26.730970
164.098223,26.676777
164.044030,26.595671
164.025000,26.500000
164.025000,26.000000
164.044030,25.904329
164.098223,25.823223
164.179329,25.769030
164.275000,25.750000
Z" /> 
<path style="fill:#000000; fill-opacity:1.000000; 
stroke:#000000; stroke-width:0.000000; stroke-opacity:1; 
stroke-linecap:round; stroke-linejoin:round;fill-rule:evenodd;"
d="M 165.225000,27.650000
165.320671,27.669030
165.401777,27.723223
165.455970,27.804329
165.475000,27.900000
165.475000,28.400000
165.455970,28.495671
165.401777,28.576777
165.320671,28.630970
165.225000,28.650000
164.275000,28.650000
164.179329,28.630970
164.098223,28.576777
164.044030,28.495671
164.025000,28.400000
164.025000,27.900000
164.044030,27.804329
164.098223,27.723223
164.179329,27.669030
164.275000,27.650000
Z" /> 
</g>
<g >
</g>
<g style="fill:#000000; fill-opacity:1.000000; 
stroke:#000000; stroke-width:0.000000; stroke-opacity:1; 
stroke-linecap:round; stroke-linejoin:round;">
<path style="fill:#000000; fill-opacity:1.000000; 
stroke:#000000; stroke-width:0.000000; stroke-opacity:1; 
stroke-linecap:round; stroke-linejoin:round;fill-rule:evenodd;"
d="M 117.300000,50.100000
117.300000,49.100000
118.800000,49.100000
118.800000,50.100000
Z" /> 
<path style="fill:#000000; fill-opacity:1.000000; 
stroke:#000000; stroke-width:0.000000; stroke-opacity:1; 
stroke-linecap:round; stroke-linejoin:round;fill-rule:evenodd;"
d="M 117.300000,46.900000
117.300000,45.900000
118.800000,45.900000
118.800000,46.900000
Z" /> 
<path style="fill:#000000; fill-opacity:1.000000; 
stroke:#000000; stroke-width:0.000000; stroke-opacity:1; 
stroke-linecap:round; stroke-linejoin:round;fill-rule:evenodd;"
d="M 112.400000,46.900000
112.400000,45.900000
113.900000,45.900000
113.900000,46.900000
Z" /> 
<path style="fill:#000000; fill-opacity:1.000000; 
stroke:#000000; stroke-width:0.000000; stroke-opacity:1; 
stroke-linecap:round; stroke-linejoin:round;fill-rule:evenodd;"
d="M 112.400000,50.100000
112.400000,49.100000
113.900000,49.100000
113.900000,50.100000
Z" /> 
</g>
<g >
</g>
<g style="fill:#000000; fill-opacity:1.000000; 
stroke:#000000; stroke-width:0.000000; stroke-opacity:1; 
stroke-linecap:round; stroke-linejoin:round;">
<circle cx="105.000000" cy="67.000000" r="2.800000" /> 
</g>
<g style="fill:#000000; fill-opacity:1.000000; 
stroke:#000000; stroke-width:0.021200; stroke-opacity:1; 
stroke-linecap:round; stroke-linejoin:round;">
</g>
<g >
</g>
<g style="fill:#000000; fill-opacity:1.000000; 
stroke:#000000; stroke-width:0.021200; stroke-opacity:1; 
stroke-linecap:round; stroke-linejoin:round;">
</g>
<g style="fill:#000000; fill-opacity:1.000000; 
stroke:#000000; stroke-width:0.000000; stroke-opacity:1; 
stroke-linecap:round; stroke-linejoin:round;">
<circle cx="30.000000" cy="67.000000" r="2.800000" /> 
</g>
<g style="fill:#000000; fill-opacity:1.000000; 
stroke:#000000; stroke-width:0.021200; stroke-opacity:1; 
stroke-linecap:round; stroke-linejoin:round;">
</g>
<g >
</g>
<g >
</g>
<g >
</g>
<g >
</g>
<g style="fill:#000000; fill-opacity:1.000000; 
stroke:#000000; stroke-width:0.021200; stroke-opacity:1; 
stroke-linecap:round; stroke-linejoin:round;">
</g>
<g style="fill:#000000; fill-opacity:1.000000; 
stroke:#000000; stroke-width:0.000000; stroke-opacity:1; 
stroke-linecap:round; stroke-linejoin:round;">
<path style="fill:#000000; fill-opacity:1.000000; 
stroke:#000000; stroke-width:0.000000; stroke-opacity:1; 
stroke-linecap:round; stroke-linejoin:round;fill-rule:evenodd;"
d="M 93.527000,112.819000
93.542839,112.710287
93.597924,112.597610
93.686610,112.508924
93.799287,112.453839
93.908000,112.438000
95.432000,112.438000
95.540713,112.453839
95.653390,112.508924
95.742076,112.597610
95.797161,112.710287
95.813000,112.819000
95.813000,113.581000
95.797161,113.689713
95.742076,113.802390
95.653390,113.891076
95.540713,113.946161
95.432000,113.962000
93.908000,113.962000
93.799287,113.946161
93.686610,113.891076
93.597924,113.802390
93.542839,113.689713
93.527000,113.581000
Z" /> 
<path style="fill:#000000; fill-opacity:1.000000; 
stroke:#000000; stroke-width:0.000000; stroke-opacity:1; 
stroke-linecap:round; stroke-linejoin:round;fill-rule:evenodd;"
d="M 96.127000,112.819000
96.142839,112.710287
96.197924,112.597610
96.286610,112.508924
96.399287,112.453839
96.508000,112.438000
98.032000,112.438000
98.140713,112.453839
98.253390,112.508924
98.342076,112.597610
98.397161,112.710287
98.413000,112.819000
98.413000,113.581000
98.397161,113.689713
98.342076,113.802390
98.253390,113.891076
98.140713,113.946161
98.032000,113.962000
96.508000,113.962000
96.399287,113.946161
96.286610,113.891076
96.197924,113.802390
96.142839,113.689713
96.127000,113.581000
Z" /> 
</g>
<g >
</g>
<g style="fill:#000000; fill-opacity:1.000000; 
stroke:#000000; stroke-width:0.000000; stroke-opacity:1; 
stroke-linecap:round; stroke-linejoin:round;">
<path style="fill:#000000; fill-opacity:1.000000; 
stroke:#000000; stroke-width:0.000000; stroke-opacity:1; 
stroke-linecap:round; stroke-linejoin:round;fill-rule:evenodd;"
d="M 142.300000,50.100000
142.300000,49.100000
143.800000,49.100000
143.800000,50.100000
Z" /> 
<path style="fill:#000000; fill-opacity:1.000000; 
stroke:#000000; stroke-width:0.000000; stroke-opacity:1; 
stroke-linecap:round; stroke-linejoin:round;fill-rule:evenodd;"
d="M 142.300000,46.900000
142.300000,45.900000
143.800000,45.900000
143.800000,46.900000
Z" /> 
<path style="fill:#000000; fill-opacity:1.000000; 
stroke:#000000; stroke-width:0.000000; stroke-opacity:1; 
stroke-linecap:round; stroke-linejoin:round;fill-rule:evenodd;"
d="M 137.400000,46.900000
137.400000,45.900000
138.900000,45.900000
138.900000,46.900000
Z" /> 
<path style="fill:#000000; fill-opacity:1.000000; 
stroke:#000000; stroke-width:0.000000; stroke-opacity:1; 
stroke-linecap:round; stroke-linejoin:round;fill-rule:evenodd;"
d="M 137.400000,50.100000
137.400000,49.100000
138.900000,49.100000
138.900000,50.100000
Z" /> 
</g>
<g >
</g>
<g >
</g>
<g >
</g>
<g >
</g>
<g >
</g>
<g >
</g>
<g style="fill:#000000; fill-opacity:1.000000; 
stroke:#000000; stroke-width:0.000000; stroke-opacity:1; 
stroke-linecap:round; stroke-linejoin:round;">
<path style="fill:#000000; fill-opacity:1.000000; 
stroke:#000000; stroke-width:0.000000; stroke-opacity:1; 
stroke-linecap:round; stroke-linejoin:round;fill-rule:evenodd;"
d="M 100.250000,65.400000
100.250000,64.100000
101.800000,64.100000
101.800000,65.400000
Z" /> 
<path style="fill:#000000; fill-opacity:1.000000; 
stroke:#000000; stroke-width:0.000000; stroke-opacity:1; 
stroke-linecap:round; stroke-linejoin:round;fill-rule:evenodd;"
d="M 108.200000,65.400000
108.200000,64.100000
109.750000,64.100000
109.750000,65.400000
Z" /> 
<path style="fill:#000000; fill-opacity:1.000000; 
stroke:#000000; stroke-width:0.000000; stroke-opacity:1; 
stroke-linecap:round; stroke-linejoin:round;fill-rule:evenodd;"
d="M 100.250000,69.900000
100.250000,68.600000
101.800000,68.600000
101.800000,69.900000
Z" /> 
<path style="fill:#000000; fill-opacity:1.000000; 
stroke:#000000; stroke-width:0.000000; stroke-opacity:1; 
stroke-linecap:round; stroke-linejoin:round;fill-rule:evenodd;"
d="M 108.200000,69.900000
108.200000,68.600000
109.750000,68.600000
109.750000,69.900000
Z" /> 
</g>
<g >
</g>
<g >
</g>
<g style="fill:#000000; fill-opacity:1.000000; 
stroke:#000000; stroke-width:0.000000; stroke-opacity:1; 
stroke-linecap:round; stroke-linejoin:round;">
<path style="fill:#000000; fill-opacity:1.000000; 
stroke:#000000; stroke-width:0.000000; stroke-opacity:1; 
stroke-linecap:round; stroke-linejoin:round;fill-rule:evenodd;"
d="M 76.275000,48.100000
76.255970,48.195671
76.201777,48.276777
76.120671,48.330970
76.025000,48.350000
75.500000,48.350000
75.404329,48.330970
75.323223,48.276777
75.269030,48.195671
75.250000,48.100000
75.250000,47.200000
75.269030,47.104329
75.323223,47.023223
75.404329,46.969030
75.500000,46.950000
76.025000,46.950000
76.120671,46.969030
76.201777,47.023223
76.255970,47.104329
76.275000,47.200000
Z" /> 
<path style="fill:#000000; fill-opacity:1.000000; 
stroke:#000000; stroke-width:0.000000; stroke-opacity:1; 
stroke-linecap:round; stroke-linejoin:round;fill-rule:evenodd;"
d="M 74.450000,48.100000
74.430970,48.195671
74.376777,48.276777
74.295671,48.330970
74.200000,48.350000
73.675000,48.350000
73.579329,48.330970
73.498223,48.276777
73.444030,48.195671
73.425000,48.100000
73.425000,47.200000
73.444030,47.104329
73.498223,47.023223
73.579329,46.969030
73.675000,46.950000
74.200000,46.950000
74.295671,46.969030
74.376777,47.023223
74.430970,47.104329
74.450000,47.200000
Z" /> 
</g>
<g >
</g>
<g >
</g>
<g style="fill:#000000; fill-opacity:1.000000; 
stroke:#000000; stroke-width:0.000000; stroke-opacity:1; 
stroke-linecap:round; stroke-linejoin:round;">
<path style="fill:#000000; fill-opacity:1.000000; 
stroke:#000000; stroke-width:0.000000; stroke-opacity:1; 
stroke-linecap:round; stroke-linejoin:round;fill-rule:evenodd;"
d="M 155.575000,42.975000
155.670671,42.994030
155.751777,43.048223
155.805970,43.129329
155.825000,43.225000
155.825000,43.975000
155.805970,44.070671
155.751777,44.151777
155.670671,44.205970
155.575000,44.225000
153.425000,44.225000
153.329329,44.205970
153.248223,44.151777
153.194030,44.070671
153.175000,43.975000
153.175000,43.225000
153.194030,43.129329
153.248223,43.048223
153.329329,42.994030
153.425000,42.975000
Z" /> 
<path style="fill:#000000; fill-opacity:1.000000; 
stroke:#000000; stroke-width:0.000000; stroke-opacity:1; 
stroke-linecap:round; stroke-linejoin:round;fill-rule:evenodd;"
d="M 155.575000,45.775000
155.670671,45.794030
155.751777,45.848223
155.805970,45.929329
155.825000,46.025000
155.825000,46.775000
155.805970,46.870671
155.751777,46.951777
155.670671,47.005970
155.575000,47.025000
153.425000,47.025000
153.329329,47.005970
153.248223,46.951777
153.194030,46.870671
153.175000,46.775000
153.175000,46.025000
153.194030,45.929329
153.248223,45.848223
153.329329,45.794030
153.425000,45.775000
Z" /> 
</g>
<g >
</g>
<g >
</g>
<g style="fill:#000000; fill-opacity:1.000000; 
stroke:#000000; stroke-width:0.000000; stroke-opacity:1; 
stroke-linecap:round; stroke-linejoin:round;">
<path style="fill:#000000; fill-opacity:1.000000; 
stroke:#000000; stroke-width:0.000000; stroke-opacity:1; 
stroke-linecap:round; stroke-linejoin:round;fill-rule:evenodd;"
d="M 66.050000,23.025000
66.069030,22.929329
66.123223,22.848223
66.204329,22.794030
66.300000,22.775000
66.800000,22.775000
66.895671,22.794030
66.976777,22.848223
67.030970,22.929329
67.050000,23.025000
67.050000,23.975000
67.030970,24.070671
66.976777,24.151777
66.895671,24.205970
66.800000,24.225000
66.300000,24.225000
66.204329,24.205970
66.123223,24.151777
66.069030,24.070671
66.050000,23.975000
Z" /> 
<path style="fill:#000000; fill-opacity:1.000000; 
stroke:#000000; stroke-width:0.000000; stroke-opacity:1; 
stroke-linecap:round; stroke-linejoin:round;fill-rule:evenodd;"
d="M 67.950000,23.025000
67.969030,22.929329
68.023223,22.848223
68.104329,22.794030
68.200000,22.775000
68.700000,22.775000
68.795671,22.794030
68.876777,22.848223
68.930970,22.929329
68.950000,23.025000
68.950000,23.975000
68.930970,24.070671
68.876777,24.151777
68.795671,24.205970
68.700000,24.225000
68.200000,24.225000
68.104329,24.205970
68.023223,24.151777
67.969030,24.070671
67.950000,23.975000
Z" /> 
</g>
<g >
</g>
<g >
</g>
<g style="fill:#000000; fill-opacity:1.000000; 
stroke:#000000; stroke-width:0.000000; stroke-opacity:1; 
stroke-linecap:round; stroke-linejoin:round;">
<path style="fill:#000000; fill-opacity:1.000000; 
stroke:#000000; stroke-width:0.000000; stroke-opacity:1; 
stroke-linecap:round; stroke-linejoin:round;fill-rule:evenodd;"
d="M 92.300000,50.100000
92.300000,49.100000
93.800000,49.100000
93.800000,50.100000
Z" /> 
<path style="fill:#000000; fill-opacity:1.000000; 
stroke:#000000; stroke-width:0.000000; stroke-opacity:1; 
stroke-linecap:round; stroke-linejoin:round;fill-rule:evenodd;"
d="M 92.300000,46.900000
92.300000,45.900000
93.800000,45.900000
93.800000,46.900000
Z" /> 
<path style="fill:#000000; fill-opacity:1.000000; 
stroke:#000000; stroke-width:0.000000; stroke-opacity:1; 
stroke-linecap:round; stroke-linejoin:round;fill-rule:evenodd;"
d="M 87.400000,46.900000
87.400000,45.900000
88.900000,45.900000
88.900000,46.900000
Z" /> 
<path style="fill:#000000; fill-opacity:1.000000; 
stroke:#000000; stroke-width:0.000000; stroke-opacity:1; 
stroke-linecap:round; stroke-linejoin:round;fill-rule:evenodd;"
d="M 87.400000,50.100000
87.400000,49.100000
88.900000,49.100000
88.900000,50.100000
Z" /> 
</g>
<g >
</g>
<g >
</g>
<g style="fill:#000000; fill-opacity:1.000000; 
stroke:#000000; stroke-width:0.000000; stroke-opacity:1; 
stroke-linecap:round; stroke-linejoin:round;">
<path style="fill:#000000; fill-opacity:1.000000; 
stroke:#000000; stroke-width:0.000000; stroke-opacity:1; 
stroke-linecap:round; stroke-linejoin:round;fill-rule:evenodd;"
d="M 64.050000,43.525000
64.069030,43.429329
64.123223,43.348223
64.204329,43.294030
64.300000,43.275000
64.800000,43.275000
64.895671,43.294030
64.976777,43.348223
65.030970,43.429329
65.050000,43.525000
65.050000,44.475000
65.030970,44.570671
64.976777,44.651777
64.895671,44.705970
64.800000,44.725000
64.300000,44.725000
64.204329,44.705970
64.123223,44.651777
64.069030,44.570671
64.050000,44.475000
Z" /> 
<path style="fill:#000000; fill-opacity:1.000000; 
stroke:#000000; stroke-width:0.000000; stroke-opacity:1; 
stroke-linecap:round; stroke-linejoin:round;fill-rule:evenodd;"
d="M 65.950000,43.525000
65.969030,43.429329
66.023223,43.348223
66.104329,43.294030
66.200000,43.275000
66.700000,43.275000
66.795671,43.294030
66.876777,43.348223
66.930970,43.429329
66.950000,43.525000
66.950000,44.475000
66.930970,44.570671
66.876777,44.651777
66.795671,44.705970
66.700000,44.725000
66.200000,44.725000
66.104329,44.705970
66.023223,44.651777
65.969030,44.570671
65.950000,44.475000
Z" /> 
</g>
<g >
</g>
<g style="fill:#000000; fill-opacity:1.000000; 
stroke:#000000; stroke-width:0.000000; stroke-opacity:1; 
stroke-linecap:round; stroke-linejoin:round;">
<path style="fill:#000000; fill-opacity:1.000000; 
stroke:#000000; stroke-width:0.000000; stroke-opacity:1; 
stroke-linecap:round; stroke-linejoin:round;fill-rule:evenodd;"
d="M 148.350000,56.150000
148.445671,56.169030
148.526777,56.223223
148.580970,56.304329
148.600000,56.400000
148.600000,59.900000
148.580970,59.995671
148.526777,60.076777
148.445671,60.130970
148.350000,60.150000
146.350000,60.150000
146.254329,60.130970
146.173223,60.076777
146.119030,59.995671
146.100000,59.900000
146.100000,56.400000
146.119030,56.304329
146.173223,56.223223
146.254329,56.169030
146.350000,56.150000
Z" /> 
<path style="fill:#000000; fill-opacity:1.000000; 
stroke:#000000; stroke-width:0.000000; stroke-opacity:1; 
stroke-linecap:round; stroke-linejoin:round;fill-rule:evenodd;"
d="M 148.350000,64.150000
148.445671,64.169030
148.526777,64.223223
148.580970,64.304329
148.600000,64.400000
148.600000,67.900000
148.580970,67.995671
148.526777,68.076777
148.445671,68.130970
148.350000,68.150000
146.350000,68.150000
146.254329,68.130970
146.173223,68.076777
146.119030,67.995671
146.100000,67.900000
146.100000,64.400000
146.119030,64.304329
146.173223,64.223223
146.254329,64.169030
146.350000,64.150000
Z" /> 
</g>
<g >
</g>
<g >
</g>
<g style="fill:#000000; fill-opacity:1.000000; 
stroke:#000000; stroke-width:0.000000; stroke-opacity:1; 
stroke-linecap:round; stroke-linejoin:round;">
<circle cx="180.000000" cy="67.000000" r="2.800000" /> 
</g>
<g style="fill:#000000; fill-opacity:1.000000; 
stroke:#000000; stroke-width:0.021200; stroke-opacity:1; 
stroke-linecap:round; stroke-linejoin:round;">
</g>
<g >
</g>
<g style="fill:#000000; fill-opacity:1.000000; 
stroke:#000000; stroke-width:0.021200; stroke-opacity:1; 
stroke-linecap:round; stroke-linejoin:round;">
</g>
<g style="fill:#000000; fill-opacity:1.000000; 
stroke:#000000; stroke-width:0.000000; stroke-opacity:1; 
stroke-linecap:round; stroke-linejoin:round;">
<path style="fill:#000000; fill-opacity:1.000000; 
stroke:#000000; stroke-width:0.000000; stroke-opacity:1; 
stroke-linecap:round; stroke-linejoin:round;fill-rule:evenodd;"
d="M 48.425000,35.450000
48.405970,35.545671
48.351777,35.626777
48.270671,35.680970
48.175000,35.700000
47.650000,35.700000
47.554329,35.680970
47.473223,35.626777
47.419030,35.545671
47.400000,35.450000
47.400000,34.550000
47.419030,34.454329
47.473223,34.373223
47.554329,34.319030
47.650000,34.300000
48.175000,34.300000
48.270671,34.319030
48.351777,34.373223
48.405970,34.454329
48.425000,34.550000
Z" /> 
<path style="fill:#000000; fill-opacity:1.000000; 
stroke:#000000; stroke-width:0.000000; stroke-opacity:1; 
stroke-linecap:round; stroke-linejoin:round;fill-rule:evenodd;"
d="M 46.600000,35.450000
46.580970,35.545671
46.526777,35.626777
46.445671,35.680970
46.350000,35.700000
45.825000,35.700000
45.729329,35.680970
45.648223,35.626777
45.594030,35.545671
45.575000,35.450000
45.575000,34.550000
45.594030,34.454329
45.648223,34.373223
45.729329,34.319030
45.825000,34.300000
46.350000,34.300000
46.445671,34.319030
46.526777,34.373223
46.580970,34.454329
46.600000,34.550000
Z" /> 
</g>
<g >
</g>
<g style="fill:#000000; fill-opacity:1.000000; 
stroke:#000000; stroke-width:0.000000; stroke-opacity:1; 
stroke-linecap:round; stroke-linejoin:round;">
<path style="fill:#000000; fill-opacity:1.000000; 
stroke:#000000; stroke-width:0.000000; stroke-opacity:1; 
stroke-linecap:round; stroke-linejoin:round;fill-rule:evenodd;"
d="M 141.600000,64.400000
141.580970,64.495671
141.526777,64.576777
141.445671,64.630970
141.350000,64.650000
137.850000,64.650000
137.754329,64.630970
137.673223,64.576777
137.619030,64.495671
137.600000,64.400000
137.600000,62.400000
137.619030,62.304329
137.673223,62.223223
137.754329,62.169030
137.850000,62.150000
141.350000,62.150000
141.445671,62.169030
141.526777,62.223223
141.580970,62.304329
141.600000,62.400000
Z" /> 
<path style="fill:#000000; fill-opacity:1.000000; 
stroke:#000000; stroke-width:0.000000; stroke-opacity:1; 
stroke-linecap:round; stroke-linejoin:round;fill-rule:evenodd;"
d="M 133.600000,64.400000
133.580970,64.495671
133.526777,64.576777
133.445671,64.630970
133.350000,64.650000
129.850000,64.650000
129.754329,64.630970
129.673223,64.576777
129.619030,64.495671
129.600000,64.400000
129.600000,62.400000
129.619030,62.304329
129.673223,62.223223
129.754329,62.169030
129.850000,62.150000
133.350000,62.150000
133.445671,62.169030
133.526777,62.223223
133.580970,62.304329
133.600000,62.400000
Z" /> 
</g>
<g >
</g>
<g style="fill:#000000; fill-opacity:1.000000; 
stroke:#000000; stroke-width:0.000000; stroke-opacity:1; 
stroke-linecap:round; stroke-linejoin:round;">
<path style="fill:#000000; fill-opacity:1.000000; 
stroke:#000000; stroke-width:0.000000; stroke-opacity:1; 
stroke-linecap:round; stroke-linejoin:round;fill-rule:evenodd;"
d="M 67.300000,50.100000
67.300000,49.100000
68.800000,49.100000
68.800000,50.100000
Z" /> 
<path style="fill:#000000; fill-opacity:1.000000; 
stroke:#000000; stroke-width:0.000000; stroke-opacity:1; 
stroke-linecap:round; stroke-linejoin:round;fill-rule:evenodd;"
d="M 67.300000,46.900000
67.300000,45.900000
68.800000,45.900000
68.800000,46.900000
Z" /> 
<path style="fill:#000000; fill-opacity:1.000000; 
stroke:#000000; stroke-width:0.000000; stroke-opacity:1; 
stroke-linecap:round; stroke-linejoin:round;fill-rule:evenodd;"
d="M 62.400000,46.900000
62.400000,45.900000
63.900000,45.900000
63.900000,46.900000
Z" /> 
<path style="fill:#000000; fill-opacity:1.000000; 
stroke:#000000; stroke-width:0.000000; stroke-opacity:1; 
stroke-linecap:round; stroke-linejoin:round;fill-rule:evenodd;"
d="M 62.400000,50.100000
62.400000,49.100000
63.900000,49.100000
63.900000,50.100000
Z" /> 
</g>
<g >
</g>
<g style="fill:#000000; fill-opacity:1.000000; 
stroke:#000000; stroke-width:0.000000; stroke-opacity:1; 
stroke-linecap:round; stroke-linejoin:round;">
<path style="fill:#000000; fill-opacity:1.000000; 
stroke:#000000; stroke-width:0.000000; stroke-opacity:1; 
stroke-linecap:round; stroke-linejoin:round;fill-rule:evenodd;"
d="M 89.050000,43.525000
89.069030,43.429329
89.123223,43.348223
89.204329,43.294030
89.300000,43.275000
89.800000,43.275000
89.895671,43.294030
89.976777,43.348223
90.030970,43.429329
90.050000,43.525000
90.050000,44.475000
90.030970,44.570671
89.976777,44.651777
89.895671,44.705970
89.800000,44.725000
89.300000,44.725000
89.204329,44.705970
89.123223,44.651777
89.069030,44.570671
89.050000,44.475000
Z" /> 
<path style="fill:#000000; fill-opacity:1.000000; 
stroke:#000000; stroke-width:0.000000; stroke-opacity:1; 
stroke-linecap:round; stroke-linejoin:round;fill-rule:evenodd;"
d="M 90.950000,43.525000
90.969030,43.429329
91.023223,43.348223
91.104329,43.294030
91.200000,43.275000
91.700000,43.275000
91.795671,43.294030
91.876777,43.348223
91.930970,43.429329
91.950000,43.525000
91.950000,44.475000
91.930970,44.570671
91.876777,44.651777
91.795671,44.705970
91.700000,44.725000
91.200000,44.725000
91.104329,44.705970
91.023223,44.651777
90.969030,44.570671
90.950000,44.475000
Z" /> 
</g>
<g >
</g>
<g style="fill:#000000; fill-opacity:1.000000; 
stroke:#000000; stroke-width:0.000000; stroke-opacity:1; 
stroke-linecap:round; stroke-linejoin:round;">
<path style="fill:#000000; fill-opacity:1.000000; 
stroke:#000000; stroke-width:0.000000; stroke-opacity:1; 
stroke-linecap:round; stroke-linejoin:round;fill-rule:evenodd;"
d="M 161.440000,28.800000
161.440000,31.000000
158.290000,31.000000
158.290000,28.800000
Z" /> 
<path style="fill:#000000; fill-opacity:1.000000; 
stroke:#000000; stroke-width:0.000000; stroke-opacity:1; 
stroke-linecap:round; stroke-linejoin:round;fill-rule:evenodd;"
d="M 162.105000,31.000000
162.105000,28.800000
162.705000,28.800000
162.705000,31.000000
Z" /> 
<path style="fill:#000000; fill-opacity:1.000000; 
stroke:#000000; stroke-width:0.000000; stroke-opacity:1; 
stroke-linecap:round; stroke-linejoin:round;fill-rule:evenodd;"
d="M 162.700000,23.600000
162.700000,25.800000
158.300000,25.800000
158.300000,23.600000
Z" /> 
</g>
<g >
</g>
<g >
</g>
<g style="fill:#000000; fill-opacity:1.000000; 
stroke:#000000; stroke-width:0.000000; stroke-opacity:1; 
stroke-linecap:round; stroke-linejoin:round;">
<circle cx="105.000000" cy="119.000000" r="2.800000" /> 
</g>
<g style="fill:#000000; fill-opacity:1.000000; 
stroke:#000000; stroke-width:0.021200; stroke-opacity:1; 
stroke-linecap:round; stroke-linejoin:round;">
</g>
<g >
</g>
<g style="fill:#000000; fill-opacity:1.000000; 
stroke:#000000; stroke-width:0.021200; stroke-opacity:1; 
stroke-linecap:round; stroke-linejoin:round;">
</g>
<g style="fill:#000000; fill-opacity:1.000000; 
stroke:#000000; stroke-width:0.000000; stroke-opacity:1; 
stroke-linecap:round; stroke-linejoin:round;">
<path style="fill:#000000; fill-opacity:1.000000; 
stroke:#000000; stroke-width:0.000000; stroke-opacity:1; 
stroke-linecap:round; stroke-linejoin:round;fill-rule:evenodd;"
d="M 25.250000,65.400000
25.250000,64.100000
26.800000,64.100000
26.800000,65.400000
Z" /> 
<path style="fill:#000000; fill-opacity:1.000000; 
stroke:#000000; stroke-width:0.000000; stroke-opacity:1; 
stroke-linecap:round; stroke-linejoin:round;fill-rule:evenodd;"
d="M 33.200000,65.400000
33.200000,64.100000
34.750000,64.100000
34.750000,65.400000
Z" /> 
<path style="fill:#000000; fill-opacity:1.000000; 
stroke:#000000; stroke-width:0.000000; stroke-opacity:1; 
stroke-linecap:round; stroke-linejoin:round;fill-rule:evenodd;"
d="M 25.250000,69.900000
25.250000,68.600000
26.800000,68.600000
26.800000,69.900000
Z" /> 
<path style="fill:#000000; fill-opacity:1.000000; 
stroke:#000000; stroke-width:0.000000; stroke-opacity:1; 
stroke-linecap:round; stroke-linejoin:round;fill-rule:evenodd;"
d="M 33.200000,69.900000
33.200000,68.600000
34.750000,68.600000
34.750000,69.900000
Z" /> 
</g>
<g >
</g>
<g style="fill:#000000; fill-opacity:1.000000; 
stroke:#000000; stroke-width:0.000000; stroke-opacity:1; 
stroke-linecap:round; stroke-linejoin:round;">
<path style="fill:#000000; fill-opacity:1.000000; 
stroke:#000000; stroke-width:0.000000; stroke-opacity:1; 
stroke-linecap:round; stroke-linejoin:round;fill-rule:evenodd;"
d="M 128.550000,41.425000
128.569030,41.329329
128.623223,41.248223
128.704329,41.194030
128.800000,41.175000
129.300000,41.175000
129.395671,41.194030
129.476777,41.248223
129.530970,41.329329
129.550000,41.425000
129.550000,42.375000
129.530970,42.470671
129.476777,42.551777
129.395671,42.605970
129.300000,42.625000
128.800000,42.625000
128.704329,42.605970
128.623223,42.551777
128.569030,42.470671
128.550000,42.375000
Z" /> 
<path style="fill:#000000; fill-opacity:1.000000; 
stroke:#000000; stroke-width:0.000000; stroke-opacity:1; 
stroke-linecap:round; stroke-linejoin:round;fill-rule:evenodd;"
d="M 130.450000,41.425000
130.469030,41.329329
130.523223,41.248223
130.604329,41.194030
130.700000,41.175000
131.200000,41.175000
131.295671,41.194030
131.376777,41.248223
131.430970,41.329329
131.450000,41.425000
131.450000,42.375000
131.430970,42.470671
131.376777,42.551777
131.295671,42.605970
131.200000,42.625000
130.700000,42.625000
130.604329,42.605970
130.523223,42.551777
130.469030,42.470671
130.450000,42.375000
Z" /> 
</g>
<g >
</g>
<g style="fill:#000000; fill-opacity:1.000000; 
stroke:#000000; stroke-width:0.000000; stroke-opacity:1; 
stroke-linecap:round; stroke-linejoin:round;">
<path style="fill:#000000; fill-opacity:1.000000; 
stroke:#000000; stroke-width:0.000000; stroke-opacity:1; 
stroke-linecap:round; stroke-linejoin:round;fill-rule:evenodd;"
d="M 44.900000,24.130000
43.600000,24.130000
43.600000,23.330000
44.900000,23.330000
Z" /> 
<path style="fill:#000000; fill-opacity:1.000000; 
stroke:#000000; stroke-width:0.000000; stroke-opacity:1; 
stroke-linecap:round; stroke-linejoin:round;fill-rule:evenodd;"
d="M 44.900000,25.400000
43.600000,25.400000
43.600000,24.600000
44.900000,24.600000
Z" /> 
<path style="fill:#000000; fill-opacity:1.000000; 
stroke:#000000; stroke-width:0.000000; stroke-opacity:1; 
stroke-linecap:round; stroke-linejoin:round;fill-rule:evenodd;"
d="M 44.900000,26.670000
43.600000,26.670000
43.600000,25.870000
44.900000,25.870000
Z" /> 
<path style="fill:#000000; fill-opacity:1.000000; 
stroke:#000000; stroke-width:0.000000; stroke-opacity:1; 
stroke-linecap:round; stroke-linejoin:round;fill-rule:evenodd;"
d="M 54.400000,26.670000
53.100000,26.670000
53.100000,25.870000
54.400000,25.870000
Z" /> 
<path style="fill:#000000; fill-opacity:1.000000; 
stroke:#000000; stroke-width:0.000000; stroke-opacity:1; 
stroke-linecap:round; stroke-linejoin:round;fill-rule:evenodd;"
d="M 54.400000,25.400000
53.100000,25.400000
53.100000,24.600000
54.400000,24.600000
Z" /> 
<path style="fill:#000000; fill-opacity:1.000000; 
stroke:#000000; stroke-width:0.000000; stroke-opacity:1; 
stroke-linecap:round; stroke-linejoin:round;fill-rule:evenodd;"
d="M 54.400000,24.130000
53.100000,24.130000
53.100000,23.330000
54.400000,23.330000
Z" /> 
</g>
<g >
</g>
<g style="fill:#000000; fill-opacity:1.000000; 
stroke:#000000; stroke-width:0.000000; stroke-opacity:1; 
stroke-linecap:round; stroke-linejoin:round;">
<path style="fill:#000000; fill-opacity:1.000000; 
stroke:#000000; stroke-width:0.000000; stroke-opacity:1; 
stroke-linecap:round; stroke-linejoin:round;fill-rule:evenodd;"
d="M 55.575000,22.550000
55.594030,22.454329
55.648223,22.373223
55.729329,22.319030
55.825000,22.300000
56.350000,22.300000
56.445671,22.319030
56.526777,22.373223
56.580970,22.454329
56.600000,22.550000
56.600000,23.450000
56.580970,23.545671
56.526777,23.626777
56.445671,23.680970
56.350000,23.700000
55.825000,23.700000
55.729329,23.680970
55.648223,23.626777
55.594030,23.545671
55.575000,23.450000
Z" /> 
<path style="fill:#000000; fill-opacity:1.000000; 
stroke:#000000; stroke-width:0.000000; stroke-opacity:1; 
stroke-linecap:round; stroke-linejoin:round;fill-rule:evenodd;"
d="M 57.400000,22.550000
57.419030,22.454329
57.473223,22.373223
57.554329,22.319030
57.650000,22.300000
58.175000,22.300000
58.270671,22.319030
58.351777,22.373223
58.405970,22.454329
58.425000,22.550000
58.425000,23.450000
58.405970,23.545671
58.351777,23.626777
58.270671,23.680970
58.175000,23.700000
57.650000,23.700000
57.554329,23.680970
57.473223,23.626777
57.419030,23.545671
57.400000,23.450000
Z" /> 
</g>
<g >
</g>
<g style="fill:#000000; fill-opacity:1.000000; 
stroke:#000000; stroke-width:0.000000; stroke-opacity:1; 
stroke-linecap:round; stroke-linejoin:round;">
<path style="fill:#000000; fill-opacity:1.000000; 
stroke:#000000; stroke-width:0.000000; stroke-opacity:1; 
stroke-linecap:round; stroke-linejoin:round;fill-rule:evenodd;"
d="M 154.532323,36.500000
154.551353,36.404329
154.605546,36.323223
154.686652,36.269030
154.782323,36.250000
158.282323,36.250000
158.377994,36.269030
158.459100,36.323223
158.513293,36.404329
158.532323,36.500000
158.532323,38.500000
158.513293,38.595671
158.459100,38.676777
158.377994,38.730970
158.282323,38.750000
154.782323,38.750000
154.686652,38.730970
154.605546,38.676777
154.551353,38.595671
154.532323,38.500000
Z" /> 
<path style="fill:#000000; fill-opacity:1.000000; 
stroke:#000000; stroke-width:0.000000; stroke-opacity:1; 
stroke-linecap:round; stroke-linejoin:round;fill-rule:evenodd;"
d="M 162.532323,36.500000
162.551353,36.404329
162.605546,36.323223
162.686652,36.269030
162.782323,36.250000
166.282323,36.250000
166.377994,36.269030
166.459100,36.323223
166.513293,36.404329
166.532323,36.500000
166.532323,38.500000
166.513293,38.595671
166.459100,38.676777
166.377994,38.730970
166.282323,38.750000
162.782323,38.750000
162.686652,38.730970
162.605546,38.676777
162.551353,38.595671
162.532323,38.500000
Z" /> 
</g>
<g >
</g>
<g >
</g>
<g style="fill:#000000; fill-opacity:1.000000; 
stroke:#000000; stroke-width:0.000000; stroke-opacity:1; 
stroke-linecap:round; stroke-linejoin:round;">
<path style="fill:#000000; fill-opacity:1.000000; 
stroke:#000000; stroke-width:0.000000; stroke-opacity:1; 
stroke-linecap:round; stroke-linejoin:round;fill-rule:evenodd;"
d="M 48.075000,31.550000
48.094030,31.454329
48.148223,31.373223
48.229329,31.319030
48.325000,31.300000
48.850000,31.300000
48.945671,31.319030
49.026777,31.373223
49.080970,31.454329
49.100000,31.550000
49.100000,32.450000
49.080970,32.545671
49.026777,32.626777
48.945671,32.680970
48.850000,32.700000
48.325000,32.700000
48.229329,32.680970
48.148223,32.626777
48.094030,32.545671
48.075000,32.450000
Z" /> 
<path style="fill:#000000; fill-opacity:1.000000; 
stroke:#000000; stroke-width:0.000000; stroke-opacity:1; 
stroke-linecap:round; stroke-linejoin:round;fill-rule:evenodd;"
d="M 49.900000,31.550000
49.919030,31.454329
49.973223,31.373223
50.054329,31.319030
50.150000,31.300000
50.675000,31.300000
50.770671,31.319030
50.851777,31.373223
50.905970,31.454329
50.925000,31.550000
50.925000,32.450000
50.905970,32.545671
50.851777,32.626777
50.770671,32.680970
50.675000,32.700000
50.150000,32.700000
50.054329,32.680970
49.973223,32.626777
49.919030,32.545671
49.900000,32.450000
Z" /> 
</g>
<g >
</g>
<g style="fill:#000000; fill-opacity:1.000000; 
stroke:#000000; stroke-width:0.000000; stroke-opacity:1; 
stroke-linecap:round; stroke-linejoin:round;">
<path style="fill:#000000; fill-opacity:1.000000; 
stroke:#000000; stroke-width:0.000000; stroke-opacity:1; 
stroke-linecap:round; stroke-linejoin:round;fill-rule:evenodd;"
d="M 54.756250,30.775000
54.839962,30.791651
54.910930,30.839070
54.958349,30.910038
54.975000,30.993750
54.975000,31.431250
54.958349,31.514962
54.910930,31.585930
54.839962,31.633349
54.756250,31.650000
54.243750,31.650000
54.160038,31.633349
54.089070,31.585930
54.041651,31.514962
54.025000,31.431250
54.025000,30.993750
54.041651,30.910038
54.089070,30.839070
54.160038,30.791651
54.243750,30.775000
Z" /> 
<path style="fill:#000000; fill-opacity:1.000000; 
stroke:#000000; stroke-width:0.000000; stroke-opacity:1; 
stroke-linecap:round; stroke-linejoin:round;fill-rule:evenodd;"
d="M 54.756250,32.350000
54.839962,32.366651
54.910930,32.414070
54.958349,32.485038
54.975000,32.568750
54.975000,33.006250
54.958349,33.089962
54.910930,33.160930
54.839962,33.208349
54.756250,33.225000
54.243750,33.225000
54.160038,33.208349
54.089070,33.160930
54.041651,33.089962
54.025000,33.006250
54.025000,32.568750
54.041651,32.485038
54.089070,32.414070
54.160038,32.366651
54.243750,32.350000
Z" /> 
</g>
<g >
</g>
<g style="fill:#000000; fill-opacity:1.000000; 
stroke:#000000; stroke-width:0.000000; stroke-opacity:1; 
stroke-linecap:round; stroke-linejoin:round;">
<path style="fill:#000000; fill-opacity:1.000000; 
stroke:#000000; stroke-width:0.000000; stroke-opacity:1; 
stroke-linecap:round; stroke-linejoin:round;fill-rule:evenodd;"
d="M 151.500000,51.400000
151.480970,51.495671
151.426777,51.576777
151.345671,51.630970
151.250000,51.650000
150.600000,51.650000
150.504329,51.630970
150.423223,51.576777
150.369030,51.495671
150.350000,51.400000
150.350000,50.100000
150.369030,50.004329
150.423223,49.923223
150.504329,49.869030
150.600000,49.850000
151.250000,49.850000
151.345671,49.869030
151.426777,49.923223
151.480970,50.004329
151.500000,50.100000
Z" /> 
<path style="fill:#000000; fill-opacity:1.000000; 
stroke:#000000; stroke-width:0.000000; stroke-opacity:1; 
stroke-linecap:round; stroke-linejoin:round;fill-rule:evenodd;"
d="M 148.550000,51.400000
148.530970,51.495671
148.476777,51.576777
148.395671,51.630970
148.300000,51.650000
147.650000,51.650000
147.554329,51.630970
147.473223,51.576777
147.419030,51.495671
147.400000,51.400000
147.400000,50.100000
147.419030,50.004329
147.473223,49.923223
147.554329,49.869030
147.650000,49.850000
148.300000,49.850000
148.395671,49.869030
148.476777,49.923223
148.530970,50.004329
148.550000,50.100000
Z" /> 
</g>
<g >
</g>
<g style="fill:#000000; fill-opacity:1.000000; 
stroke:#000000; stroke-width:0.000000; stroke-opacity:1; 
stroke-linecap:round; stroke-linejoin:round;">
<path style="fill:#000000; fill-opacity:1.000000; 
stroke:#000000; stroke-width:0.000000; stroke-opacity:1; 
stroke-linecap:round; stroke-linejoin:round;fill-rule:evenodd;"
d="M 42.700000,36.950000
42.604329,36.930970
42.523223,36.876777
42.469030,36.795671
42.450000,36.700000
42.450000,36.100000
42.469030,36.004329
42.523223,35.923223
42.604329,35.869030
42.700000,35.850000
43.300000,35.850000
43.395671,35.869030
43.476777,35.923223
43.530970,36.004329
43.550000,36.100000
43.550000,36.700000
43.530970,36.795671
43.476777,36.876777
43.395671,36.930970
43.300000,36.950000
Z" /> 
<path style="fill:#000000; fill-opacity:1.000000; 
stroke:#000000; stroke-width:0.000000; stroke-opacity:1; 
stroke-linecap:round; stroke-linejoin:round;fill-rule:evenodd;"
d="M 42.700000,34.150000
42.604329,34.130970
42.523223,34.076777
42.469030,33.995671
42.450000,33.900000
42.450000,33.300000
42.469030,33.204329
42.523223,33.123223
42.604329,33.069030
42.700000,33.050000
43.300000,33.050000
43.395671,33.069030
43.476777,33.123223
43.530970,33.204329
43.550000,33.300000
43.550000,33.900000
43.530970,33.995671
43.476777,34.076777
43.395671,34.130970
43.300000,34.150000
Z" /> 
</g>
<g >
</g>
<g style="fill:#000000; fill-opacity:1.000000; 
stroke:#000000; stroke-width:0.000000; stroke-opacity:1; 
stroke-linecap:round; stroke-linejoin:round;">
<path style="fill:#000000; fill-opacity:1.000000; 
stroke:#000000; stroke-width:0.000000; stroke-opacity:1; 
stroke-linecap:round; stroke-linejoin:round;fill-rule:evenodd;"
d="M 114.050000,43.525000
114.069030,43.429329
114.123223,43.348223
114.204329,43.294030
114.300000,43.275000
114.800000,43.275000
114.895671,43.294030
114.976777,43.348223
115.030970,43.429329
115.050000,43.525000
115.050000,44.475000
115.030970,44.570671
114.976777,44.651777
114.895671,44.705970
114.800000,44.725000
114.300000,44.725000
114.204329,44.705970
114.123223,44.651777
114.069030,44.570671
114.050000,44.475000
Z" /> 
<path style="fill:#000000; fill-opacity:1.000000; 
stroke:#000000; stroke-width:0.000000; stroke-opacity:1; 
stroke-linecap:round; stroke-linejoin:round;fill-rule:evenodd;"
d="M 115.950000,43.525000
115.969030,43.429329
116.023223,43.348223
116.104329,43.294030
116.200000,43.275000
116.700000,43.275000
116.795671,43.294030
116.876777,43.348223
116.930970,43.429329
116.950000,43.525000
116.950000,44.475000
116.930970,44.570671
116.876777,44.651777
116.795671,44.705970
116.700000,44.725000
116.200000,44.725000
116.104329,44.705970
116.023223,44.651777
115.969030,44.570671
115.950000,44.475000
Z" /> 
</g>
<g >
</g>
<g style="fill:#000000; fill-opacity:1.000000; 
stroke:#000000; stroke-width:0.000000; stroke-opacity:1; 
stroke-linecap:round; stroke-linejoin:round;">
<path style="fill:#000000; fill-opacity:1.000000; 
stroke:#000000; stroke-width:0.000000; stroke-opacity:1; 
stroke-linecap:round; stroke-linejoin:round;fill-rule:evenodd;"
d="M 52.225000,35.256250
52.208349,35.339962
52.160930,35.410930
52.089962,35.458349
52.006250,35.475000
51.568750,35.475000
51.485038,35.458349
51.414070,35.410930
51.366651,35.339962
51.350000,35.256250
51.350000,34.743750
51.366651,34.660038
51.414070,34.589070
51.485038,34.541651
51.568750,34.525000
52.006250,34.525000
52.089962,34.541651
52.160930,34.589070
52.208349,34.660038
52.225000,34.743750
Z" /> 
<path style="fill:#000000; fill-opacity:1.000000; 
stroke:#000000; stroke-width:0.000000; stroke-opacity:1; 
stroke-linecap:round; stroke-linejoin:round;fill-rule:evenodd;"
d="M 50.650000,35.256250
50.633349,35.339962
50.585930,35.410930
50.514962,35.458349
50.431250,35.475000
49.993750,35.475000
49.910038,35.458349
49.839070,35.410930
49.791651,35.339962
49.775000,35.256250
49.775000,34.743750
49.791651,34.660038
49.839070,34.589070
49.910038,34.541651
49.993750,34.525000
50.431250,34.525000
50.514962,34.541651
50.585930,34.589070
50.633349,34.660038
50.650000,34.743750
Z" /> 
</g>
<g >
</g>
<g style="fill:#000000; fill-opacity:1.000000; 
stroke:#000000; stroke-width:0.000000; stroke-opacity:1; 
stroke-linecap:round; stroke-linejoin:round;">
<path style="fill:#000000; fill-opacity:1.000000; 
stroke:#000000; stroke-width:0.000000; stroke-opacity:1; 
stroke-linecap:round; stroke-linejoin:round;fill-rule:evenodd;"
d="M 172.400000,30.200000
172.380970,30.295671
172.326777,30.376777
172.245671,30.430970
172.150000,30.450000
171.525000,30.450000
171.429329,30.430970
171.348223,30.376777
171.294030,30.295671
171.275000,30.200000
171.275000,27.300000
171.294030,27.204329
171.348223,27.123223
171.429329,27.069030
171.525000,27.050000
172.150000,27.050000
172.245671,27.069030
172.326777,27.123223
172.380970,27.204329
172.400000,27.300000
Z" /> 
<path style="fill:#000000; fill-opacity:1.000000; 
stroke:#000000; stroke-width:0.000000; stroke-opacity:1; 
stroke-linecap:round; stroke-linejoin:round;fill-rule:evenodd;"
d="M 168.125000,30.200000
168.105970,30.295671
168.051777,30.376777
167.970671,30.430970
167.875000,30.450000
167.250000,30.450000
167.154329,30.430970
167.073223,30.376777
167.019030,30.295671
167.000000,30.200000
167.000000,27.300000
167.019030,27.204329
167.073223,27.123223
167.154329,27.069030
167.250000,27.050000
167.875000,27.050000
167.970671,27.069030
168.051777,27.123223
168.105970,27.204329
168.125000,27.300000
Z" /> 
</g>
<g >
</g>
<g >
</g>
<g style="fill:#000000; fill-opacity:1.000000; 
stroke:#000000; stroke-width:0.000000; stroke-opacity:1; 
stroke-linecap:round; stroke-linejoin:round;">
<path style="fill:#000000; fill-opacity:1.000000; 
stroke:#000000; stroke-width:0.000000; stroke-opacity:1; 
stroke-linecap:round; stroke-linejoin:round;fill-rule:evenodd;"
d="M 152.175000,55.750000
152.270671,55.769030
152.351777,55.823223
152.405970,55.904329
152.425000,56.000000
152.425000,56.500000
152.405970,56.595671
152.351777,56.676777
152.270671,56.730970
152.175000,56.750000
151.225000,56.750000
151.129329,56.730970
151.048223,56.676777
150.994030,56.595671
150.975000,56.500000
150.975000,56.000000
150.994030,55.904329
151.048223,55.823223
151.129329,55.769030
151.225000,55.750000
Z" /> 
<path style="fill:#000000; fill-opacity:1.000000; 
stroke:#000000; stroke-width:0.000000; stroke-opacity:1; 
stroke-linecap:round; stroke-linejoin:round;fill-rule:evenodd;"
d="M 152.175000,57.650000
152.270671,57.669030
152.351777,57.723223
152.405970,57.804329
152.425000,57.900000
152.425000,58.400000
152.405970,58.495671
152.351777,58.576777
152.270671,58.630970
152.175000,58.650000
151.225000,58.650000
151.129329,58.630970
151.048223,58.576777
150.994030,58.495671
150.975000,58.400000
150.975000,57.900000
150.994030,57.804329
151.048223,57.723223
151.129329,57.669030
151.225000,57.650000
Z" /> 
</g>
<g >
</g>
<g style="fill:#000000; fill-opacity:1.000000; 
stroke:#000000; stroke-width:0.000000; stroke-opacity:1; 
stroke-linecap:round; stroke-linejoin:round;">
<path style="fill:#000000; fill-opacity:1.000000; 
stroke:#000000; stroke-width:0.000000; stroke-opacity:1; 
stroke-linecap:round; stroke-linejoin:round;fill-rule:evenodd;"
d="M 175.250000,117.400000
175.250000,116.100000
176.800000,116.100000
176.800000,117.400000
Z" /> 
<path style="fill:#000000; fill-opacity:1.000000; 
stroke:#000000; stroke-width:0.000000; stroke-opacity:1; 
stroke-linecap:round; stroke-linejoin:round;fill-rule:evenodd;"
d="M 183.200000,117.400000
183.200000,116.100000
184.750000,116.100000
184.750000,117.400000
Z" /> 
<path style="fill:#000000; fill-opacity:1.000000; 
stroke:#000000; stroke-width:0.000000; stroke-opacity:1; 
stroke-linecap:round; stroke-linejoin:round;fill-rule:evenodd;"
d="M 175.250000,121.900000
175.250000,120.600000
176.800000,120.600000
176.800000,121.900000
Z" /> 
<path style="fill:#000000; fill-opacity:1.000000; 
stroke:#000000; stroke-width:0.000000; stroke-opacity:1; 
stroke-linecap:round; stroke-linejoin:round;fill-rule:evenodd;"
d="M 183.200000,121.900000
183.200000,120.600000
184.750000,120.600000
184.750000,121.900000
Z" /> 
</g>
<g >
</g>
<g style="fill:#000000; fill-opacity:1.000000; 
stroke:#000000; stroke-width:0.000000; stroke-opacity:1; 
stroke-linecap:round; stroke-linejoin:round;">
<circle cx="180.000000" cy="119.000000" r="2.800000" /> 
</g>
<g style="fill:#000000; fill-opacity:1.000000; 
stroke:#000000; stroke-width:0.021200; stroke-opacity:1; 
stroke-linecap:round; stroke-linejoin:round;">
</g>
<g >
</g>
<g style="fill:#000000; fill-opacity:1.000000; 
stroke:#000000; stroke-width:0.021200; stroke-opacity:1; 
stroke-linecap:round; stroke-linejoin:round;">
</g>
<g style="fill:#000000; fill-opacity:1.000000; 
stroke:#000000; stroke-width:0.000000; stroke-opacity:1; 
stroke-linecap:round; stroke-linejoin:round;">
<path style="fill:#000000; fill-opacity:1.000000; 
stroke:#000000; stroke-width:0.000000; stroke-opacity:1; 
stroke-linecap:round; stroke-linejoin:round;fill-rule:evenodd;"
d="M 175.250000,65.400000
175.250000,64.100000
176.800000,64.100000
176.800000,65.400000
Z" /> 
<path style="fill:#000000; fill-opacity:1.000000; 
stroke:#000000; stroke-width:0.000000; stroke-opacity:1; 
stroke-linecap:round; stroke-linejoin:round;fill-rule:evenodd;"
d="M 183.200000,65.400000
183.200000,64.100000
184.750000,64.100000
184.750000,65.400000
Z" /> 
<path style="fill:#000000; fill-opacity:1.000000; 
stroke:#000000; stroke-width:0.000000; stroke-opacity:1; 
stroke-linecap:round; stroke-linejoin:round;fill-rule:evenodd;"
d="M 175.250000,69.900000
175.250000,68.600000
176.800000,68.600000
176.800000,69.900000
Z" /> 
<path style="fill:#000000; fill-opacity:1.000000; 
stroke:#000000; stroke-width:0.000000; stroke-opacity:1; 
stroke-linecap:round; stroke-linejoin:round;fill-rule:evenodd;"
d="M 183.200000,69.900000
183.200000,68.600000
184.750000,68.600000
184.750000,69.900000
Z" /> 
</g>
<g >
</g>
<g style="fill:#000000; fill-opacity:1.000000; 
stroke:#000000; stroke-width:0.000000; stroke-opacity:1; 
stroke-linecap:round; stroke-linejoin:round;">
<path style="fill:#000000; fill-opacity:1.000000; 
stroke:#000000; stroke-width:0.000000; stroke-opacity:1; 
stroke-linecap:round; stroke-linejoin:round;fill-rule:evenodd;"
d="M 25.250000,117.400000
25.250000,116.100000
26.800000,116.100000
26.800000,117.400000
Z" /> 
<path style="fill:#000000; fill-opacity:1.000000; 
stroke:#000000; stroke-width:0.000000; stroke-opacity:1; 
stroke-linecap:round; stroke-linejoin:round;fill-rule:evenodd;"
d="M 33.200000,117.400000
33.200000,116.100000
34.750000,116.100000
34.750000,117.400000
Z" /> 
<path style="fill:#000000; fill-opacity:1.000000; 
stroke:#000000; stroke-width:0.000000; stroke-opacity:1; 
stroke-linecap:round; stroke-linejoin:round;fill-rule:evenodd;"
d="M 25.250000,121.900000
25.250000,120.600000
26.800000,120.600000
26.800000,121.900000
Z" /> 
<path style="fill:#000000; fill-opacity:1.000000; 
stroke:#000000; stroke-width:0.000000; stroke-opacity:1; 
stroke-linecap:round; stroke-linejoin:round;fill-rule:evenodd;"
d="M 33.200000,121.900000
33.200000,120.600000
34.750000,120.600000
34.750000,121.900000
Z" /> 
</g>
<g >
</g>
<g >
</g>
<g style="fill:#000000; fill-opacity:1.000000; 
stroke:#000000; stroke-width:0.000000; stroke-opacity:1; 
stroke-linecap:round; stroke-linejoin:round;">
<path style="fill:#000000; fill-opacity:1.000000; 
stroke:#000000; stroke-width:0.000000; stroke-opacity:1; 
stroke-linecap:round; stroke-linejoin:round;fill-rule:evenodd;"
d="M 47.725000,29.256250
47.708349,29.339962
47.660930,29.410930
47.589962,29.458349
47.506250,29.475000
47.068750,29.475000
46.985038,29.458349
46.914070,29.410930
46.866651,29.339962
46.850000,29.256250
46.850000,28.743750
46.866651,28.660038
46.914070,28.589070
46.985038,28.541651
47.068750,28.525000
47.506250,28.525000
47.589962,28.541651
47.660930,28.589070
47.708349,28.660038
47.725000,28.743750
Z" /> 
<path style="fill:#000000; fill-opacity:1.000000; 
stroke:#000000; stroke-width:0.000000; stroke-opacity:1; 
stroke-linecap:round; stroke-linejoin:round;fill-rule:evenodd;"
d="M 46.150000,29.256250
46.133349,29.339962
46.085930,29.410930
46.014962,29.458349
45.931250,29.475000
45.493750,29.475000
45.410038,29.458349
45.339070,29.410930
45.291651,29.339962
45.275000,29.256250
45.275000,28.743750
45.291651,28.660038
45.339070,28.589070
45.410038,28.541651
45.493750,28.525000
45.931250,28.525000
46.014962,28.541651
46.085930,28.589070
46.133349,28.660038
46.150000,28.743750
Z" /> 
</g>
<g >
</g>
<g style="fill:#000000; fill-opacity:1.000000; 
stroke:#000000; stroke-width:0.000000; stroke-opacity:1; 
stroke-linecap:round; stroke-linejoin:round;">
<path style="fill:#000000; fill-opacity:1.000000; 
stroke:#000000; stroke-width:0.000000; stroke-opacity:1; 
stroke-linecap:round; stroke-linejoin:round;fill-rule:evenodd;"
d="M 72.874000,47.432600
72.874000,47.788200
71.756400,47.788200
71.756400,47.432600
Z" /> 
<path style="fill:#000000; fill-opacity:1.000000; 
stroke:#000000; stroke-width:0.000000; stroke-opacity:1; 
stroke-linecap:round; stroke-linejoin:round;fill-rule:evenodd;"
d="M 72.874000,46.772200
72.874000,47.127800
71.756400,47.127800
71.756400,46.772200
Z" /> 
<path style="fill:#000000; fill-opacity:1.000000; 
stroke:#000000; stroke-width:0.000000; stroke-opacity:1; 
stroke-linecap:round; stroke-linejoin:round;fill-rule:evenodd;"
d="M 72.874000,46.111800
72.874000,46.467400
71.756400,46.467400
71.756400,46.111800
Z" /> 
<path style="fill:#000000; fill-opacity:1.000000; 
stroke:#000000; stroke-width:0.000000; stroke-opacity:1; 
stroke-linecap:round; stroke-linejoin:round;fill-rule:evenodd;"
d="M 70.943600,46.111800
70.943600,46.467400
69.826000,46.467400
69.826000,46.111800
Z" /> 
<path style="fill:#000000; fill-opacity:1.000000; 
stroke:#000000; stroke-width:0.000000; stroke-opacity:1; 
stroke-linecap:round; stroke-linejoin:round;fill-rule:evenodd;"
d="M 70.943600,47.432600
70.943600,47.788200
69.826000,47.788200
69.826000,47.432600
Z" /> 
</g>
<g >
</g>
<g >
</g>
<g style="fill:#000000; fill-opacity:1.000000; 
stroke:#000000; stroke-width:0.000000; stroke-opacity:1; 
stroke-linecap:round; stroke-linejoin:round;">
<path style="fill:#000000; fill-opacity:1.000000; 
stroke:#000000; stroke-width:0.000000; stroke-opacity:1; 
stroke-linecap:round; stroke-linejoin:round;fill-rule:evenodd;"
d="M 100.250000,117.400000
100.250000,116.100000
101.800000,116.100000
101.800000,117.400000
Z" /> 
<path style="fill:#000000; fill-opacity:1.000000; 
stroke:#000000; stroke-width:0.000000; stroke-opacity:1; 
stroke-linecap:round; stroke-linejoin:round;fill-rule:evenodd;"
d="M 108.200000,117.400000
108.200000,116.100000
109.750000,116.100000
109.750000,117.400000
Z" /> 
<path style="fill:#000000; fill-opacity:1.000000; 
stroke:#000000; stroke-width:0.000000; stroke-opacity:1; 
stroke-linecap:round; stroke-linejoin:round;fill-rule:evenodd;"
d="M 100.250000,121.900000
100.250000,120.600000
101.800000,120.600000
101.800000,121.900000
Z" /> 
<path style="fill:#000000; fill-opacity:1.000000; 
stroke:#000000; stroke-width:0.000000; stroke-opacity:1; 
stroke-linecap:round; stroke-linejoin:round;fill-rule:evenodd;"
d="M 108.200000,121.900000
108.200000,120.600000
109.750000,120.600000
109.750000,121.900000
Z" /> 
</g>
<g >
</g>
<g style="fill:#000000; fill-opacity:1.000000; 
stroke:#000000; stroke-width:0.000000; stroke-opacity:1; 
stroke-linecap:round; stroke-linejoin:round;">
<path style="fill:#000000; fill-opacity:1.000000; 
stroke:#000000; stroke-width:0.000000; stroke-opacity:1; 
stroke-linecap:round; stroke-linejoin:round;fill-rule:evenodd;"
d="M 155.550000,66.750000
155.454329,66.730970
155.373223,66.676777
155.319030,66.595671
155.300000,66.500000
155.300000,65.850000
155.319030,65.754329
155.373223,65.673223
155.454329,65.619030
155.550000,65.600000
156.850000,65.600000
156.945671,65.619030
157.026777,65.673223
157.080970,65.754329
157.100000,65.850000
157.100000,66.500000
157.080970,66.595671
157.026777,66.676777
156.945671,66.730970
156.850000,66.750000
Z" /> 
<path style="fill:#000000; fill-opacity:1.000000; 
stroke:#000000; stroke-width:0.000000; stroke-opacity:1; 
stroke-linecap:round; stroke-linejoin:round;fill-rule:evenodd;"
d="M 155.550000,63.800000
155.454329,63.780970
155.373223,63.726777
155.319030,63.645671
155.300000,63.550000
155.300000,62.900000
155.319030,62.804329
155.373223,62.723223
155.454329,62.669030
155.550000,62.650000
156.850000,62.650000
156.945671,62.669030
157.026777,62.723223
157.080970,62.804329
157.100000,62.900000
157.100000,63.550000
157.080970,63.645671
157.026777,63.726777
156.945671,63.780970
156.850000,63.800000
Z" /> 
</g>
<g >
</g>
<g >
</g>
<g style="fill:#000000; fill-opacity:1.000000; 
stroke:#000000; stroke-width:0.000000; stroke-opacity:1; 
stroke-linecap:round; stroke-linejoin:round;">
<path style="fill:#000000; fill-opacity:1.000000; 
stroke:#000000; stroke-width:0.000000; stroke-opacity:1; 
stroke-linecap:round; stroke-linejoin:round;fill-rule:evenodd;"
d="M 189.311000,116.663000
189.419713,116.678839
189.532390,116.733924
189.621076,116.822610
189.676161,116.935287
189.692000,117.044000
189.692000,118.568000
189.676161,118.676713
189.621076,118.789390
189.532390,118.878076
189.419713,118.933161
189.311000,118.949000
188.549000,118.949000
188.440287,118.933161
188.327610,118.878076
188.238924,118.789390
188.183839,118.676713
188.168000,118.568000
188.168000,117.044000
188.183839,116.935287
188.238924,116.822610
188.327610,116.733924
188.440287,116.678839
188.549000,116.663000
Z" /> 
<path style="fill:#000000; fill-opacity:1.000000; 
stroke:#000000; stroke-width:0.000000; stroke-opacity:1; 
stroke-linecap:round; stroke-linejoin:round;fill-rule:evenodd;"
d="M 189.311000,119.263000
189.419713,119.278839
189.532390,119.333924
189.621076,119.422610
189.676161,119.535287
189.692000,119.644000
189.692000,121.168000
189.676161,121.276713
189.621076,121.389390
189.532390,121.478076
189.419713,121.533161
189.311000,121.549000
188.549000,121.549000
188.440287,121.533161
188.327610,121.478076
188.238924,121.389390
188.183839,121.276713
188.168000,121.168000
188.168000,119.644000
188.183839,119.535287
188.238924,119.422610
188.327610,119.333924
188.440287,119.278839
188.549000,119.263000
Z" /> 
</g>
<g >
</g>
<g style="fill:#000000; fill-opacity:1.000000; 
stroke:#000000; stroke-width:0.000000; stroke-opacity:1; 
stroke-linecap:round; stroke-linejoin:round;">
<path style="fill:#000000; fill-opacity:1.000000; 
stroke:#000000; stroke-width:0.000000; stroke-opacity:1; 
stroke-linecap:round; stroke-linejoin:round;fill-rule:evenodd;"
d="M 150.256000,39.828400
150.351671,39.847430
150.432777,39.901623
150.486970,39.982729
150.506000,40.078400
150.506000,42.078400
150.486970,42.174071
150.432777,42.255177
150.351671,42.309370
150.256000,42.328400
148.956000,42.328400
148.860329,42.309370
148.779223,42.255177
148.725030,42.174071
148.706000,42.078400
148.706000,40.078400
148.725030,39.982729
148.779223,39.901623
148.860329,39.847430
148.956000,39.828400
Z" /> 
<path style="fill:#000000; fill-opacity:1.000000; 
stroke:#000000; stroke-width:0.000000; stroke-opacity:1; 
stroke-linecap:round; stroke-linejoin:round;fill-rule:evenodd;"
d="M 150.256000,43.828400
150.351671,43.847430
150.432777,43.901623
150.486970,43.982729
150.506000,44.078400
150.506000,46.078400
150.486970,46.174071
150.432777,46.255177
150.351671,46.309370
150.256000,46.328400
148.956000,46.328400
148.860329,46.309370
148.779223,46.255177
148.725030,46.174071
148.706000,46.078400
148.706000,44.078400
148.725030,43.982729
148.779223,43.901623
148.860329,43.847430
148.956000,43.828400
Z" /> 
</g>
<g >
</g>
<g style="fill:#000000; fill-opacity:1.000000; 
stroke:#000000; stroke-width:0.000000; stroke-opacity:1; 
stroke-linecap:round; stroke-linejoin:round;">
<path style="fill:#000000; fill-opacity:1.000000; 
stroke:#000000; stroke-width:0.000000; stroke-opacity:1; 
stroke-linecap:round; stroke-linejoin:round;fill-rule:evenodd;"
d="M 62.256250,21.775000
62.339962,21.791651
62.410930,21.839070
62.458349,21.910038
62.475000,21.993750
62.475000,22.431250
62.458349,22.514962
62.410930,22.585930
62.339962,22.633349
62.256250,22.650000
61.743750,22.650000
61.660038,22.633349
61.589070,22.585930
61.541651,22.514962
61.525000,22.431250
61.525000,21.993750
61.541651,21.910038
61.589070,21.839070
61.660038,21.791651
61.743750,21.775000
Z" /> 
<path style="fill:#000000; fill-opacity:1.000000; 
stroke:#000000; stroke-width:0.000000; stroke-opacity:1; 
stroke-linecap:round; stroke-linejoin:round;fill-rule:evenodd;"
d="M 62.256250,23.350000
62.339962,23.366651
62.410930,23.414070
62.458349,23.485038
62.475000,23.568750
62.475000,24.006250
62.458349,24.089962
62.410930,24.160930
62.339962,24.208349
62.256250,24.225000
61.743750,24.225000
61.660038,24.208349
61.589070,24.160930
61.541651,24.089962
61.525000,24.006250
61.525000,23.568750
61.541651,23.485038
61.589070,23.414070
61.660038,23.366651
61.743750,23.350000
Z" /> 
</g>
<g >
</g>
<g >
</g>
<g >
</g>
<g >
</g>
<g >
</g>
<g >
</g>
<g >
</g>
<g >
</g>
<g >
</g>
<g >
</g>
<g >
</g>
<g >
</g>
<g >
</g>
</g> 
</svg>
