<?xml version="1.0" standalone="no"?>
 <!DOCTYPE svg PUBLIC "-//W3C//DTD SVG 1.1//EN" 
 "http://www.w3.org/Graphics/SVG/1.1/DTD/svg11.dtd"> 
<svg
  xmlns:svg="http://www.w3.org/2000/svg"
  xmlns="http://www.w3.org/2000/svg"
  xmlns:xlink="http://www.w3.org/1999/xlink"
  version="1.1"
  width="17.61cm" height="11.31cm" viewBox="16.95 18.95 176.1 113.1">
<title>SVG Image created as pedalboard-hw-F_Paste.svg date 2023/10/13 20:39:37 </title>
  <desc>Image generated by PCBNEW </desc>
<g style="fill:#000000; fill-opacity:1.000000;stroke:#000000; stroke-opacity:1.000000;
stroke-linecap:round; stroke-linejoin:round;"
 transform="translate(0 0) scale(1 1)">
</g>
<g style="fill:#000000; fill-opacity:0.0; 
stroke:#000000; stroke-width:0.000000; stroke-opacity:1; 
stroke-linecap:round; stroke-linejoin:round;">
<g >
</g>
<g style="fill:#000000; fill-opacity:0.0; 
stroke:#000000; stroke-width:0.000000; stroke-opacity:1; 
stroke-linecap:round; stroke-linejoin:round;">
</g>
<g style="fill:#000000; fill-opacity:1.000000; 
stroke:#000000; stroke-width:0.000000; stroke-opacity:1; 
stroke-linecap:round; stroke-linejoin:round;">
<path style="fill:#000000; fill-opacity:1.000000; 
stroke:#000000; stroke-width:0.000000; stroke-opacity:1; 
stroke-linecap:round; stroke-linejoin:round;fill-rule:evenodd;"
d="M 140.950000,43.775000
140.969030,43.679329
141.023223,43.598223
141.104329,43.544030
141.200000,43.525000
141.700000,43.525000
141.795671,43.544030
141.876777,43.598223
141.930970,43.679329
141.950000,43.775000
141.950000,44.725000
141.930970,44.820671
141.876777,44.901777
141.795671,44.955970
141.700000,44.975000
141.200000,44.975000
141.104329,44.955970
141.023223,44.901777
140.969030,44.820671
140.950000,44.725000
Z" /> 
<path style="fill:#000000; fill-opacity:1.000000; 
stroke:#000000; stroke-width:0.000000; stroke-opacity:1; 
stroke-linecap:round; stroke-linejoin:round;fill-rule:evenodd;"
d="M 142.850000,43.775000
142.869030,43.679329
142.923223,43.598223
143.004329,43.544030
143.100000,43.525000
143.600000,43.525000
143.695671,43.544030
143.776777,43.598223
143.830970,43.679329
143.850000,43.775000
143.850000,44.725000
143.830970,44.820671
143.776777,44.901777
143.695671,44.955970
143.600000,44.975000
143.100000,44.975000
143.004329,44.955970
142.923223,44.901777
142.869030,44.820671
142.850000,44.725000
Z" /> 
</g>
<g >
</g>
<g >
</g>
<g >
</g>
<g >
</g>
<g style="fill:#000000; fill-opacity:1.000000; 
stroke:#000000; stroke-width:0.000000; stroke-opacity:1; 
stroke-linecap:round; stroke-linejoin:round;">
<path style="fill:#000000; fill-opacity:1.000000; 
stroke:#000000; stroke-width:0.000000; stroke-opacity:1; 
stroke-linecap:round; stroke-linejoin:round;fill-rule:evenodd;"
d="M 157.200000,43.375000
157.219030,43.279329
157.273223,43.198223
157.354329,43.144030
157.450000,43.125000
157.950000,43.125000
158.045671,43.144030
158.126777,43.198223
158.180970,43.279329
158.200000,43.375000
158.200000,44.325000
158.180970,44.420671
158.126777,44.501777
158.045671,44.555970
157.950000,44.575000
157.450000,44.575000
157.354329,44.555970
157.273223,44.501777
157.219030,44.420671
157.200000,44.325000
Z" /> 
<path style="fill:#000000; fill-opacity:1.000000; 
stroke:#000000; stroke-width:0.000000; stroke-opacity:1; 
stroke-linecap:round; stroke-linejoin:round;fill-rule:evenodd;"
d="M 159.100000,43.375000
159.119030,43.279329
159.173223,43.198223
159.254329,43.144030
159.350000,43.125000
159.850000,43.125000
159.945671,43.144030
160.026777,43.198223
160.080970,43.279329
160.100000,43.375000
160.100000,44.325000
160.080970,44.420671
160.026777,44.501777
159.945671,44.555970
159.850000,44.575000
159.350000,44.575000
159.254329,44.555970
159.173223,44.501777
159.119030,44.420671
159.100000,44.325000
Z" /> 
</g>
<g >
</g>
<g >
</g>
<g style="fill:#000000; fill-opacity:1.000000; 
stroke:#000000; stroke-width:0.000000; stroke-opacity:1; 
stroke-linecap:round; stroke-linejoin:round;">
<circle cx="30.000000" cy="119.000000" r="2.800000" /> 
</g>
<g style="fill:#000000; fill-opacity:1.000000; 
stroke:#000000; stroke-width:0.021200; stroke-opacity:1; 
stroke-linecap:round; stroke-linejoin:round;">
</g>
<g >
</g>
<g >
</g>
<g style="fill:#000000; fill-opacity:1.000000; 
stroke:#000000; stroke-width:0.021200; stroke-opacity:1; 
stroke-linecap:round; stroke-linejoin:round;">
</g>
<g style="fill:#000000; fill-opacity:1.000000; 
stroke:#000000; stroke-width:0.000000; stroke-opacity:1; 
stroke-linecap:round; stroke-linejoin:round;">
<path style="fill:#000000; fill-opacity:1.000000; 
stroke:#000000; stroke-width:0.000000; stroke-opacity:1; 
stroke-linecap:round; stroke-linejoin:round;fill-rule:evenodd;"
d="M 128.575000,43.393750
128.591651,43.310038
128.639070,43.239070
128.710038,43.191651
128.793750,43.175000
129.231250,43.175000
129.314962,43.191651
129.385930,43.239070
129.433349,43.310038
129.450000,43.393750
129.450000,43.906250
129.433349,43.989962
129.385930,44.060930
129.314962,44.108349
129.231250,44.125000
128.793750,44.125000
128.710038,44.108349
128.639070,44.060930
128.591651,43.989962
128.575000,43.906250
Z" /> 
<path style="fill:#000000; fill-opacity:1.000000; 
stroke:#000000; stroke-width:0.000000; stroke-opacity:1; 
stroke-linecap:round; stroke-linejoin:round;fill-rule:evenodd;"
d="M 130.150000,43.393750
130.166651,43.310038
130.214070,43.239070
130.285038,43.191651
130.368750,43.175000
130.806250,43.175000
130.889962,43.191651
130.960930,43.239070
131.008349,43.310038
131.025000,43.393750
131.025000,43.906250
131.008349,43.989962
130.960930,44.060930
130.889962,44.108349
130.806250,44.125000
130.368750,44.125000
130.285038,44.108349
130.214070,44.060930
130.166651,43.989962
130.150000,43.906250
Z" /> 
</g>
<g >
</g>
<g >
</g>
<g style="fill:#000000; fill-opacity:1.000000; 
stroke:#000000; stroke-width:0.000000; stroke-opacity:1; 
stroke-linecap:round; stroke-linejoin:round;">
<path style="fill:#000000; fill-opacity:1.000000; 
stroke:#000000; stroke-width:0.000000; stroke-opacity:1; 
stroke-linecap:round; stroke-linejoin:round;fill-rule:evenodd;"
d="M 159.950000,24.975000
159.930970,25.070671
159.876777,25.151777
159.795671,25.205970
159.700000,25.225000
159.200000,25.225000
159.104329,25.205970
159.023223,25.151777
158.969030,25.070671
158.950000,24.975000
158.950000,24.025000
158.969030,23.929329
159.023223,23.848223
159.104329,23.794030
159.200000,23.775000
159.700000,23.775000
159.795671,23.794030
159.876777,23.848223
159.930970,23.929329
159.950000,24.025000
Z" /> 
<path style="fill:#000000; fill-opacity:1.000000; 
stroke:#000000; stroke-width:0.000000; stroke-opacity:1; 
stroke-linecap:round; stroke-linejoin:round;fill-rule:evenodd;"
d="M 158.050000,24.975000
158.030970,25.070671
157.976777,25.151777
157.895671,25.205970
157.800000,25.225000
157.300000,25.225000
157.204329,25.205970
157.123223,25.151777
157.069030,25.070671
157.050000,24.975000
157.050000,24.025000
157.069030,23.929329
157.123223,23.848223
157.204329,23.794030
157.300000,23.775000
157.800000,23.775000
157.895671,23.794030
157.976777,23.848223
158.030970,23.929329
158.050000,24.025000
Z" /> 
</g>
<g >
</g>
<g style="fill:#000000; fill-opacity:1.000000; 
stroke:#000000; stroke-width:0.000000; stroke-opacity:1; 
stroke-linecap:round; stroke-linejoin:round;">
<path style="fill:#000000; fill-opacity:1.000000; 
stroke:#000000; stroke-width:0.000000; stroke-opacity:1; 
stroke-linecap:round; stroke-linejoin:round;fill-rule:evenodd;"
d="M 119.200000,50.100000
119.200000,49.100000
120.700000,49.100000
120.700000,50.100000
Z" /> 
<path style="fill:#000000; fill-opacity:1.000000; 
stroke:#000000; stroke-width:0.000000; stroke-opacity:1; 
stroke-linecap:round; stroke-linejoin:round;fill-rule:evenodd;"
d="M 119.200000,46.900000
119.200000,45.900000
120.700000,45.900000
120.700000,46.900000
Z" /> 
<path style="fill:#000000; fill-opacity:1.000000; 
stroke:#000000; stroke-width:0.000000; stroke-opacity:1; 
stroke-linecap:round; stroke-linejoin:round;fill-rule:evenodd;"
d="M 114.300000,46.900000
114.300000,45.900000
115.800000,45.900000
115.800000,46.900000
Z" /> 
<path style="fill:#000000; fill-opacity:1.000000; 
stroke:#000000; stroke-width:0.000000; stroke-opacity:1; 
stroke-linecap:round; stroke-linejoin:round;fill-rule:evenodd;"
d="M 114.300000,50.100000
114.300000,49.100000
115.800000,49.100000
115.800000,50.100000
Z" /> 
</g>
<g >
</g>
<g style="fill:#000000; fill-opacity:1.000000; 
stroke:#000000; stroke-width:0.000000; stroke-opacity:1; 
stroke-linecap:round; stroke-linejoin:round;">
<circle cx="105.000000" cy="67.000000" r="2.800000" /> 
</g>
<g style="fill:#000000; fill-opacity:1.000000; 
stroke:#000000; stroke-width:0.021200; stroke-opacity:1; 
stroke-linecap:round; stroke-linejoin:round;">
</g>
<g >
</g>
<g style="fill:#000000; fill-opacity:1.000000; 
stroke:#000000; stroke-width:0.021200; stroke-opacity:1; 
stroke-linecap:round; stroke-linejoin:round;">
</g>
<g style="fill:#000000; fill-opacity:1.000000; 
stroke:#000000; stroke-width:0.000000; stroke-opacity:1; 
stroke-linecap:round; stroke-linejoin:round;">
<circle cx="30.000000" cy="67.000000" r="2.800000" /> 
</g>
<g style="fill:#000000; fill-opacity:1.000000; 
stroke:#000000; stroke-width:0.021200; stroke-opacity:1; 
stroke-linecap:round; stroke-linejoin:round;">
</g>
<g >
</g>
<g >
</g>
<g >
</g>
<g >
</g>
<g style="fill:#000000; fill-opacity:1.000000; 
stroke:#000000; stroke-width:0.021200; stroke-opacity:1; 
stroke-linecap:round; stroke-linejoin:round;">
</g>
<g style="fill:#000000; fill-opacity:1.000000; 
stroke:#000000; stroke-width:0.000000; stroke-opacity:1; 
stroke-linecap:round; stroke-linejoin:round;">
<path style="fill:#000000; fill-opacity:1.000000; 
stroke:#000000; stroke-width:0.000000; stroke-opacity:1; 
stroke-linecap:round; stroke-linejoin:round;fill-rule:evenodd;"
d="M 144.200000,50.100000
144.200000,49.100000
145.700000,49.100000
145.700000,50.100000
Z" /> 
<path style="fill:#000000; fill-opacity:1.000000; 
stroke:#000000; stroke-width:0.000000; stroke-opacity:1; 
stroke-linecap:round; stroke-linejoin:round;fill-rule:evenodd;"
d="M 144.200000,46.900000
144.200000,45.900000
145.700000,45.900000
145.700000,46.900000
Z" /> 
<path style="fill:#000000; fill-opacity:1.000000; 
stroke:#000000; stroke-width:0.000000; stroke-opacity:1; 
stroke-linecap:round; stroke-linejoin:round;fill-rule:evenodd;"
d="M 139.300000,46.900000
139.300000,45.900000
140.800000,45.900000
140.800000,46.900000
Z" /> 
<path style="fill:#000000; fill-opacity:1.000000; 
stroke:#000000; stroke-width:0.000000; stroke-opacity:1; 
stroke-linecap:round; stroke-linejoin:round;fill-rule:evenodd;"
d="M 139.300000,50.100000
139.300000,49.100000
140.800000,49.100000
140.800000,50.100000
Z" /> 
</g>
<g >
</g>
<g >
</g>
<g >
</g>
<g >
</g>
<g >
</g>
<g >
</g>
<g style="fill:#000000; fill-opacity:1.000000; 
stroke:#000000; stroke-width:0.000000; stroke-opacity:1; 
stroke-linecap:round; stroke-linejoin:round;">
<path style="fill:#000000; fill-opacity:1.000000; 
stroke:#000000; stroke-width:0.000000; stroke-opacity:1; 
stroke-linecap:round; stroke-linejoin:round;fill-rule:evenodd;"
d="M 97.000000,65.400000
97.000000,63.600000
99.000000,63.600000
99.000000,65.400000
Z" /> 
<path style="fill:#000000; fill-opacity:1.000000; 
stroke:#000000; stroke-width:0.000000; stroke-opacity:1; 
stroke-linecap:round; stroke-linejoin:round;fill-rule:evenodd;"
d="M 111.000000,65.400000
111.000000,63.600000
113.000000,63.600000
113.000000,65.400000
Z" /> 
<path style="fill:#000000; fill-opacity:1.000000; 
stroke:#000000; stroke-width:0.000000; stroke-opacity:1; 
stroke-linecap:round; stroke-linejoin:round;fill-rule:evenodd;"
d="M 97.000000,70.400000
97.000000,68.600000
99.000000,68.600000
99.000000,70.400000
Z" /> 
<path style="fill:#000000; fill-opacity:1.000000; 
stroke:#000000; stroke-width:0.000000; stroke-opacity:1; 
stroke-linecap:round; stroke-linejoin:round;fill-rule:evenodd;"
d="M 111.000000,70.400000
111.000000,68.600000
113.000000,68.600000
113.000000,70.400000
Z" /> 
</g>
<g >
</g>
<g >
</g>
<g style="fill:#000000; fill-opacity:1.000000; 
stroke:#000000; stroke-width:0.000000; stroke-opacity:1; 
stroke-linecap:round; stroke-linejoin:round;">
<path style="fill:#000000; fill-opacity:1.000000; 
stroke:#000000; stroke-width:0.000000; stroke-opacity:1; 
stroke-linecap:round; stroke-linejoin:round;fill-rule:evenodd;"
d="M 78.250000,48.100000
78.230970,48.195671
78.176777,48.276777
78.095671,48.330970
78.000000,48.350000
77.475000,48.350000
77.379329,48.330970
77.298223,48.276777
77.244030,48.195671
77.225000,48.100000
77.225000,47.200000
77.244030,47.104329
77.298223,47.023223
77.379329,46.969030
77.475000,46.950000
78.000000,46.950000
78.095671,46.969030
78.176777,47.023223
78.230970,47.104329
78.250000,47.200000
Z" /> 
<path style="fill:#000000; fill-opacity:1.000000; 
stroke:#000000; stroke-width:0.000000; stroke-opacity:1; 
stroke-linecap:round; stroke-linejoin:round;fill-rule:evenodd;"
d="M 76.425000,48.100000
76.405970,48.195671
76.351777,48.276777
76.270671,48.330970
76.175000,48.350000
75.650000,48.350000
75.554329,48.330970
75.473223,48.276777
75.419030,48.195671
75.400000,48.100000
75.400000,47.200000
75.419030,47.104329
75.473223,47.023223
75.554329,46.969030
75.650000,46.950000
76.175000,46.950000
76.270671,46.969030
76.351777,47.023223
76.405970,47.104329
76.425000,47.200000
Z" /> 
</g>
<g >
</g>
<g >
</g>
<g style="fill:#000000; fill-opacity:1.000000; 
stroke:#000000; stroke-width:0.000000; stroke-opacity:1; 
stroke-linecap:round; stroke-linejoin:round;">
<path style="fill:#000000; fill-opacity:1.000000; 
stroke:#000000; stroke-width:0.000000; stroke-opacity:1; 
stroke-linecap:round; stroke-linejoin:round;fill-rule:evenodd;"
d="M 156.375000,40.575000
156.470671,40.594030
156.551777,40.648223
156.605970,40.729329
156.625000,40.825000
156.625000,41.575000
156.605970,41.670671
156.551777,41.751777
156.470671,41.805970
156.375000,41.825000
154.225000,41.825000
154.129329,41.805970
154.048223,41.751777
153.994030,41.670671
153.975000,41.575000
153.975000,40.825000
153.994030,40.729329
154.048223,40.648223
154.129329,40.594030
154.225000,40.575000
Z" /> 
<path style="fill:#000000; fill-opacity:1.000000; 
stroke:#000000; stroke-width:0.000000; stroke-opacity:1; 
stroke-linecap:round; stroke-linejoin:round;fill-rule:evenodd;"
d="M 156.375000,43.375000
156.470671,43.394030
156.551777,43.448223
156.605970,43.529329
156.625000,43.625000
156.625000,44.375000
156.605970,44.470671
156.551777,44.551777
156.470671,44.605970
156.375000,44.625000
154.225000,44.625000
154.129329,44.605970
154.048223,44.551777
153.994030,44.470671
153.975000,44.375000
153.975000,43.625000
153.994030,43.529329
154.048223,43.448223
154.129329,43.394030
154.225000,43.375000
Z" /> 
</g>
<g >
</g>
<g >
</g>
<g style="fill:#000000; fill-opacity:1.000000; 
stroke:#000000; stroke-width:0.000000; stroke-opacity:1; 
stroke-linecap:round; stroke-linejoin:round;">
<path style="fill:#000000; fill-opacity:1.000000; 
stroke:#000000; stroke-width:0.000000; stroke-opacity:1; 
stroke-linecap:round; stroke-linejoin:round;fill-rule:evenodd;"
d="M 49.550000,26.575000
49.530970,26.670671
49.476777,26.751777
49.395671,26.805970
49.300000,26.825000
48.800000,26.825000
48.704329,26.805970
48.623223,26.751777
48.569030,26.670671
48.550000,26.575000
48.550000,25.625000
48.569030,25.529329
48.623223,25.448223
48.704329,25.394030
48.800000,25.375000
49.300000,25.375000
49.395671,25.394030
49.476777,25.448223
49.530970,25.529329
49.550000,25.625000
Z" /> 
<path style="fill:#000000; fill-opacity:1.000000; 
stroke:#000000; stroke-width:0.000000; stroke-opacity:1; 
stroke-linecap:round; stroke-linejoin:round;fill-rule:evenodd;"
d="M 47.650000,26.575000
47.630970,26.670671
47.576777,26.751777
47.495671,26.805970
47.400000,26.825000
46.900000,26.825000
46.804329,26.805970
46.723223,26.751777
46.669030,26.670671
46.650000,26.575000
46.650000,25.625000
46.669030,25.529329
46.723223,25.448223
46.804329,25.394030
46.900000,25.375000
47.400000,25.375000
47.495671,25.394030
47.576777,25.448223
47.630970,25.529329
47.650000,25.625000
Z" /> 
</g>
<g >
</g>
<g >
</g>
<g style="fill:#000000; fill-opacity:1.000000; 
stroke:#000000; stroke-width:0.000000; stroke-opacity:1; 
stroke-linecap:round; stroke-linejoin:round;">
<path style="fill:#000000; fill-opacity:1.000000; 
stroke:#000000; stroke-width:0.000000; stroke-opacity:1; 
stroke-linecap:round; stroke-linejoin:round;fill-rule:evenodd;"
d="M 94.200000,50.100000
94.200000,49.100000
95.700000,49.100000
95.700000,50.100000
Z" /> 
<path style="fill:#000000; fill-opacity:1.000000; 
stroke:#000000; stroke-width:0.000000; stroke-opacity:1; 
stroke-linecap:round; stroke-linejoin:round;fill-rule:evenodd;"
d="M 94.200000,46.900000
94.200000,45.900000
95.700000,45.900000
95.700000,46.900000
Z" /> 
<path style="fill:#000000; fill-opacity:1.000000; 
stroke:#000000; stroke-width:0.000000; stroke-opacity:1; 
stroke-linecap:round; stroke-linejoin:round;fill-rule:evenodd;"
d="M 89.300000,46.900000
89.300000,45.900000
90.800000,45.900000
90.800000,46.900000
Z" /> 
<path style="fill:#000000; fill-opacity:1.000000; 
stroke:#000000; stroke-width:0.000000; stroke-opacity:1; 
stroke-linecap:round; stroke-linejoin:round;fill-rule:evenodd;"
d="M 89.300000,50.100000
89.300000,49.100000
90.800000,49.100000
90.800000,50.100000
Z" /> 
</g>
<g >
</g>
<g >
</g>
<g style="fill:#000000; fill-opacity:1.000000; 
stroke:#000000; stroke-width:0.000000; stroke-opacity:1; 
stroke-linecap:round; stroke-linejoin:round;">
<path style="fill:#000000; fill-opacity:1.000000; 
stroke:#000000; stroke-width:0.000000; stroke-opacity:1; 
stroke-linecap:round; stroke-linejoin:round;fill-rule:evenodd;"
d="M 63.525000,45.500000
63.620671,45.519030
63.701777,45.573223
63.755970,45.654329
63.775000,45.750000
63.775000,46.250000
63.755970,46.345671
63.701777,46.426777
63.620671,46.480970
63.525000,46.500000
62.575000,46.500000
62.479329,46.480970
62.398223,46.426777
62.344030,46.345671
62.325000,46.250000
62.325000,45.750000
62.344030,45.654329
62.398223,45.573223
62.479329,45.519030
62.575000,45.500000
Z" /> 
<path style="fill:#000000; fill-opacity:1.000000; 
stroke:#000000; stroke-width:0.000000; stroke-opacity:1; 
stroke-linecap:round; stroke-linejoin:round;fill-rule:evenodd;"
d="M 63.525000,47.400000
63.620671,47.419030
63.701777,47.473223
63.755970,47.554329
63.775000,47.650000
63.775000,48.150000
63.755970,48.245671
63.701777,48.326777
63.620671,48.380970
63.525000,48.400000
62.575000,48.400000
62.479329,48.380970
62.398223,48.326777
62.344030,48.245671
62.325000,48.150000
62.325000,47.650000
62.344030,47.554329
62.398223,47.473223
62.479329,47.419030
62.575000,47.400000
Z" /> 
</g>
<g >
</g>
<g style="fill:#000000; fill-opacity:1.000000; 
stroke:#000000; stroke-width:0.000000; stroke-opacity:1; 
stroke-linecap:round; stroke-linejoin:round;">
<path style="fill:#000000; fill-opacity:1.000000; 
stroke:#000000; stroke-width:0.000000; stroke-opacity:1; 
stroke-linecap:round; stroke-linejoin:round;fill-rule:evenodd;"
d="M 163.800000,44.267500
163.895671,44.286530
163.976777,44.340723
164.030970,44.421829
164.050000,44.517500
164.050000,48.017500
164.030970,48.113171
163.976777,48.194277
163.895671,48.248470
163.800000,48.267500
161.800000,48.267500
161.704329,48.248470
161.623223,48.194277
161.569030,48.113171
161.550000,48.017500
161.550000,44.517500
161.569030,44.421829
161.623223,44.340723
161.704329,44.286530
161.800000,44.267500
Z" /> 
<path style="fill:#000000; fill-opacity:1.000000; 
stroke:#000000; stroke-width:0.000000; stroke-opacity:1; 
stroke-linecap:round; stroke-linejoin:round;fill-rule:evenodd;"
d="M 163.800000,52.267500
163.895671,52.286530
163.976777,52.340723
164.030970,52.421829
164.050000,52.517500
164.050000,56.017500
164.030970,56.113171
163.976777,56.194277
163.895671,56.248470
163.800000,56.267500
161.800000,56.267500
161.704329,56.248470
161.623223,56.194277
161.569030,56.113171
161.550000,56.017500
161.550000,52.517500
161.569030,52.421829
161.623223,52.340723
161.704329,52.286530
161.800000,52.267500
Z" /> 
</g>
<g >
</g>
<g >
</g>
<g style="fill:#000000; fill-opacity:1.000000; 
stroke:#000000; stroke-width:0.000000; stroke-opacity:1; 
stroke-linecap:round; stroke-linejoin:round;">
<circle cx="180.000000" cy="67.000000" r="2.800000" /> 
</g>
<g style="fill:#000000; fill-opacity:1.000000; 
stroke:#000000; stroke-width:0.021200; stroke-opacity:1; 
stroke-linecap:round; stroke-linejoin:round;">
</g>
<g >
</g>
<g style="fill:#000000; fill-opacity:1.000000; 
stroke:#000000; stroke-width:0.021200; stroke-opacity:1; 
stroke-linecap:round; stroke-linejoin:round;">
</g>
<g style="fill:#000000; fill-opacity:1.000000; 
stroke:#000000; stroke-width:0.000000; stroke-opacity:1; 
stroke-linecap:round; stroke-linejoin:round;">
<path style="fill:#000000; fill-opacity:1.000000; 
stroke:#000000; stroke-width:0.000000; stroke-opacity:1; 
stroke-linecap:round; stroke-linejoin:round;fill-rule:evenodd;"
d="M 41.450000,27.175000
41.545671,27.194030
41.626777,27.248223
41.680970,27.329329
41.700000,27.425000
41.700000,27.950000
41.680970,28.045671
41.626777,28.126777
41.545671,28.180970
41.450000,28.200000
40.550000,28.200000
40.454329,28.180970
40.373223,28.126777
40.319030,28.045671
40.300000,27.950000
40.300000,27.425000
40.319030,27.329329
40.373223,27.248223
40.454329,27.194030
40.550000,27.175000
Z" /> 
<path style="fill:#000000; fill-opacity:1.000000; 
stroke:#000000; stroke-width:0.000000; stroke-opacity:1; 
stroke-linecap:round; stroke-linejoin:round;fill-rule:evenodd;"
d="M 41.450000,29.000000
41.545671,29.019030
41.626777,29.073223
41.680970,29.154329
41.700000,29.250000
41.700000,29.775000
41.680970,29.870671
41.626777,29.951777
41.545671,30.005970
41.450000,30.025000
40.550000,30.025000
40.454329,30.005970
40.373223,29.951777
40.319030,29.870671
40.300000,29.775000
40.300000,29.250000
40.319030,29.154329
40.373223,29.073223
40.454329,29.019030
40.550000,29.000000
Z" /> 
</g>
<g >
</g>
<g style="fill:#000000; fill-opacity:1.000000; 
stroke:#000000; stroke-width:0.000000; stroke-opacity:1; 
stroke-linecap:round; stroke-linejoin:round;">
<path style="fill:#000000; fill-opacity:1.000000; 
stroke:#000000; stroke-width:0.000000; stroke-opacity:1; 
stroke-linecap:round; stroke-linejoin:round;fill-rule:evenodd;"
d="M 136.625000,55.475000
136.644030,55.379329
136.698223,55.298223
136.779329,55.244030
136.875000,55.225000
140.375000,55.225000
140.470671,55.244030
140.551777,55.298223
140.605970,55.379329
140.625000,55.475000
140.625000,57.475000
140.605970,57.570671
140.551777,57.651777
140.470671,57.705970
140.375000,57.725000
136.875000,57.725000
136.779329,57.705970
136.698223,57.651777
136.644030,57.570671
136.625000,57.475000
Z" /> 
<path style="fill:#000000; fill-opacity:1.000000; 
stroke:#000000; stroke-width:0.000000; stroke-opacity:1; 
stroke-linecap:round; stroke-linejoin:round;fill-rule:evenodd;"
d="M 144.625000,55.475000
144.644030,55.379329
144.698223,55.298223
144.779329,55.244030
144.875000,55.225000
148.375000,55.225000
148.470671,55.244030
148.551777,55.298223
148.605970,55.379329
148.625000,55.475000
148.625000,57.475000
148.605970,57.570671
148.551777,57.651777
148.470671,57.705970
148.375000,57.725000
144.875000,57.725000
144.779329,57.705970
144.698223,57.651777
144.644030,57.570671
144.625000,57.475000
Z" /> 
</g>
<g >
</g>
<g style="fill:#000000; fill-opacity:1.000000; 
stroke:#000000; stroke-width:0.000000; stroke-opacity:1; 
stroke-linecap:round; stroke-linejoin:round;">
<path style="fill:#000000; fill-opacity:1.000000; 
stroke:#000000; stroke-width:0.000000; stroke-opacity:1; 
stroke-linecap:round; stroke-linejoin:round;fill-rule:evenodd;"
d="M 69.200000,50.100000
69.200000,49.100000
70.700000,49.100000
70.700000,50.100000
Z" /> 
<path style="fill:#000000; fill-opacity:1.000000; 
stroke:#000000; stroke-width:0.000000; stroke-opacity:1; 
stroke-linecap:round; stroke-linejoin:round;fill-rule:evenodd;"
d="M 69.200000,46.900000
69.200000,45.900000
70.700000,45.900000
70.700000,46.900000
Z" /> 
<path style="fill:#000000; fill-opacity:1.000000; 
stroke:#000000; stroke-width:0.000000; stroke-opacity:1; 
stroke-linecap:round; stroke-linejoin:round;fill-rule:evenodd;"
d="M 64.300000,46.900000
64.300000,45.900000
65.800000,45.900000
65.800000,46.900000
Z" /> 
<path style="fill:#000000; fill-opacity:1.000000; 
stroke:#000000; stroke-width:0.000000; stroke-opacity:1; 
stroke-linecap:round; stroke-linejoin:round;fill-rule:evenodd;"
d="M 64.300000,50.100000
64.300000,49.100000
65.800000,49.100000
65.800000,50.100000
Z" /> 
</g>
<g >
</g>
<g style="fill:#000000; fill-opacity:1.000000; 
stroke:#000000; stroke-width:0.000000; stroke-opacity:1; 
stroke-linecap:round; stroke-linejoin:round;">
<path style="fill:#000000; fill-opacity:1.000000; 
stroke:#000000; stroke-width:0.000000; stroke-opacity:1; 
stroke-linecap:round; stroke-linejoin:round;fill-rule:evenodd;"
d="M 88.475000,45.500000
88.570671,45.519030
88.651777,45.573223
88.705970,45.654329
88.725000,45.750000
88.725000,46.250000
88.705970,46.345671
88.651777,46.426777
88.570671,46.480970
88.475000,46.500000
87.525000,46.500000
87.429329,46.480970
87.348223,46.426777
87.294030,46.345671
87.275000,46.250000
87.275000,45.750000
87.294030,45.654329
87.348223,45.573223
87.429329,45.519030
87.525000,45.500000
Z" /> 
<path style="fill:#000000; fill-opacity:1.000000; 
stroke:#000000; stroke-width:0.000000; stroke-opacity:1; 
stroke-linecap:round; stroke-linejoin:round;fill-rule:evenodd;"
d="M 88.475000,47.400000
88.570671,47.419030
88.651777,47.473223
88.705970,47.554329
88.725000,47.650000
88.725000,48.150000
88.705970,48.245671
88.651777,48.326777
88.570671,48.380970
88.475000,48.400000
87.525000,48.400000
87.429329,48.380970
87.348223,48.326777
87.294030,48.245671
87.275000,48.150000
87.275000,47.650000
87.294030,47.554329
87.348223,47.473223
87.429329,47.419030
87.525000,47.400000
Z" /> 
</g>
<g >
</g>
<g style="fill:#000000; fill-opacity:1.000000; 
stroke:#000000; stroke-width:0.000000; stroke-opacity:1; 
stroke-linecap:round; stroke-linejoin:round;">
<path style="fill:#000000; fill-opacity:1.000000; 
stroke:#000000; stroke-width:0.000000; stroke-opacity:1; 
stroke-linecap:round; stroke-linejoin:round;fill-rule:evenodd;"
d="M 163.740000,28.800000
163.740000,31.000000
160.590000,31.000000
160.590000,28.800000
Z" /> 
<path style="fill:#000000; fill-opacity:1.000000; 
stroke:#000000; stroke-width:0.000000; stroke-opacity:1; 
stroke-linecap:round; stroke-linejoin:round;fill-rule:evenodd;"
d="M 164.405000,31.000000
164.405000,28.800000
165.005000,28.800000
165.005000,31.000000
Z" /> 
<path style="fill:#000000; fill-opacity:1.000000; 
stroke:#000000; stroke-width:0.000000; stroke-opacity:1; 
stroke-linecap:round; stroke-linejoin:round;fill-rule:evenodd;"
d="M 165.000000,23.600000
165.000000,25.800000
160.600000,25.800000
160.600000,23.600000
Z" /> 
</g>
<g >
</g>
<g >
</g>
<g style="fill:#000000; fill-opacity:1.000000; 
stroke:#000000; stroke-width:0.000000; stroke-opacity:1; 
stroke-linecap:round; stroke-linejoin:round;">
<circle cx="105.000000" cy="119.000000" r="2.800000" /> 
</g>
<g style="fill:#000000; fill-opacity:1.000000; 
stroke:#000000; stroke-width:0.021200; stroke-opacity:1; 
stroke-linecap:round; stroke-linejoin:round;">
</g>
<g >
</g>
<g >
</g>
<g style="fill:#000000; fill-opacity:1.000000; 
stroke:#000000; stroke-width:0.021200; stroke-opacity:1; 
stroke-linecap:round; stroke-linejoin:round;">
</g>
<g style="fill:#000000; fill-opacity:1.000000; 
stroke:#000000; stroke-width:0.000000; stroke-opacity:1; 
stroke-linecap:round; stroke-linejoin:round;">
<path style="fill:#000000; fill-opacity:1.000000; 
stroke:#000000; stroke-width:0.000000; stroke-opacity:1; 
stroke-linecap:round; stroke-linejoin:round;fill-rule:evenodd;"
d="M 22.000000,65.400000
22.000000,63.600000
24.000000,63.600000
24.000000,65.400000
Z" /> 
<path style="fill:#000000; fill-opacity:1.000000; 
stroke:#000000; stroke-width:0.000000; stroke-opacity:1; 
stroke-linecap:round; stroke-linejoin:round;fill-rule:evenodd;"
d="M 36.000000,65.400000
36.000000,63.600000
38.000000,63.600000
38.000000,65.400000
Z" /> 
<path style="fill:#000000; fill-opacity:1.000000; 
stroke:#000000; stroke-width:0.000000; stroke-opacity:1; 
stroke-linecap:round; stroke-linejoin:round;fill-rule:evenodd;"
d="M 22.000000,70.400000
22.000000,68.600000
24.000000,68.600000
24.000000,70.400000
Z" /> 
<path style="fill:#000000; fill-opacity:1.000000; 
stroke:#000000; stroke-width:0.000000; stroke-opacity:1; 
stroke-linecap:round; stroke-linejoin:round;fill-rule:evenodd;"
d="M 36.000000,70.400000
36.000000,68.600000
38.000000,68.600000
38.000000,70.400000
Z" /> 
</g>
<g >
</g>
<g style="fill:#000000; fill-opacity:1.000000; 
stroke:#000000; stroke-width:0.000000; stroke-opacity:1; 
stroke-linecap:round; stroke-linejoin:round;">
<path style="fill:#000000; fill-opacity:1.000000; 
stroke:#000000; stroke-width:0.000000; stroke-opacity:1; 
stroke-linecap:round; stroke-linejoin:round;fill-rule:evenodd;"
d="M 128.550000,41.425000
128.569030,41.329329
128.623223,41.248223
128.704329,41.194030
128.800000,41.175000
129.300000,41.175000
129.395671,41.194030
129.476777,41.248223
129.530970,41.329329
129.550000,41.425000
129.550000,42.375000
129.530970,42.470671
129.476777,42.551777
129.395671,42.605970
129.300000,42.625000
128.800000,42.625000
128.704329,42.605970
128.623223,42.551777
128.569030,42.470671
128.550000,42.375000
Z" /> 
<path style="fill:#000000; fill-opacity:1.000000; 
stroke:#000000; stroke-width:0.000000; stroke-opacity:1; 
stroke-linecap:round; stroke-linejoin:round;fill-rule:evenodd;"
d="M 130.450000,41.425000
130.469030,41.329329
130.523223,41.248223
130.604329,41.194030
130.700000,41.175000
131.200000,41.175000
131.295671,41.194030
131.376777,41.248223
131.430970,41.329329
131.450000,41.425000
131.450000,42.375000
131.430970,42.470671
131.376777,42.551777
131.295671,42.605970
131.200000,42.625000
130.700000,42.625000
130.604329,42.605970
130.523223,42.551777
130.469030,42.470671
130.450000,42.375000
Z" /> 
</g>
<g >
</g>
<g style="fill:#000000; fill-opacity:1.000000; 
stroke:#000000; stroke-width:0.000000; stroke-opacity:1; 
stroke-linecap:round; stroke-linejoin:round;">
<path style="fill:#000000; fill-opacity:1.000000; 
stroke:#000000; stroke-width:0.000000; stroke-opacity:1; 
stroke-linecap:round; stroke-linejoin:round;fill-rule:evenodd;"
d="M 47.300000,31.530000
46.000000,31.530000
46.000000,30.730000
47.300000,30.730000
Z" /> 
<path style="fill:#000000; fill-opacity:1.000000; 
stroke:#000000; stroke-width:0.000000; stroke-opacity:1; 
stroke-linecap:round; stroke-linejoin:round;fill-rule:evenodd;"
d="M 47.300000,32.800000
46.000000,32.800000
46.000000,32.000000
47.300000,32.000000
Z" /> 
<path style="fill:#000000; fill-opacity:1.000000; 
stroke:#000000; stroke-width:0.000000; stroke-opacity:1; 
stroke-linecap:round; stroke-linejoin:round;fill-rule:evenodd;"
d="M 47.300000,34.070000
46.000000,34.070000
46.000000,33.270000
47.300000,33.270000
Z" /> 
<path style="fill:#000000; fill-opacity:1.000000; 
stroke:#000000; stroke-width:0.000000; stroke-opacity:1; 
stroke-linecap:round; stroke-linejoin:round;fill-rule:evenodd;"
d="M 56.800000,34.070000
55.500000,34.070000
55.500000,33.270000
56.800000,33.270000
Z" /> 
<path style="fill:#000000; fill-opacity:1.000000; 
stroke:#000000; stroke-width:0.000000; stroke-opacity:1; 
stroke-linecap:round; stroke-linejoin:round;fill-rule:evenodd;"
d="M 56.800000,32.800000
55.500000,32.800000
55.500000,32.000000
56.800000,32.000000
Z" /> 
<path style="fill:#000000; fill-opacity:1.000000; 
stroke:#000000; stroke-width:0.000000; stroke-opacity:1; 
stroke-linecap:round; stroke-linejoin:round;fill-rule:evenodd;"
d="M 56.800000,31.530000
55.500000,31.530000
55.500000,30.730000
56.800000,30.730000
Z" /> 
</g>
<g >
</g>
<g style="fill:#000000; fill-opacity:1.000000; 
stroke:#000000; stroke-width:0.000000; stroke-opacity:1; 
stroke-linecap:round; stroke-linejoin:round;">
<path style="fill:#000000; fill-opacity:1.000000; 
stroke:#000000; stroke-width:0.000000; stroke-opacity:1; 
stroke-linecap:round; stroke-linejoin:round;fill-rule:evenodd;"
d="M 57.325000,36.062500
57.305970,36.158171
57.251777,36.239277
57.170671,36.293470
57.075000,36.312500
56.550000,36.312500
56.454329,36.293470
56.373223,36.239277
56.319030,36.158171
56.300000,36.062500
56.300000,35.162500
56.319030,35.066829
56.373223,34.985723
56.454329,34.931530
56.550000,34.912500
57.075000,34.912500
57.170671,34.931530
57.251777,34.985723
57.305970,35.066829
57.325000,35.162500
Z" /> 
<path style="fill:#000000; fill-opacity:1.000000; 
stroke:#000000; stroke-width:0.000000; stroke-opacity:1; 
stroke-linecap:round; stroke-linejoin:round;fill-rule:evenodd;"
d="M 55.500000,36.062500
55.480970,36.158171
55.426777,36.239277
55.345671,36.293470
55.250000,36.312500
54.725000,36.312500
54.629329,36.293470
54.548223,36.239277
54.494030,36.158171
54.475000,36.062500
54.475000,35.162500
54.494030,35.066829
54.548223,34.985723
54.629329,34.931530
54.725000,34.912500
55.250000,34.912500
55.345671,34.931530
55.426777,34.985723
55.480970,35.066829
55.500000,35.162500
Z" /> 
</g>
<g >
</g>
<g style="fill:#000000; fill-opacity:1.000000; 
stroke:#000000; stroke-width:0.000000; stroke-opacity:1; 
stroke-linecap:round; stroke-linejoin:round;">
<path style="fill:#000000; fill-opacity:1.000000; 
stroke:#000000; stroke-width:0.000000; stroke-opacity:1; 
stroke-linecap:round; stroke-linejoin:round;fill-rule:evenodd;"
d="M 163.800000,31.467500
163.895671,31.486530
163.976777,31.540723
164.030970,31.621829
164.050000,31.717500
164.050000,35.217500
164.030970,35.313171
163.976777,35.394277
163.895671,35.448470
163.800000,35.467500
161.800000,35.467500
161.704329,35.448470
161.623223,35.394277
161.569030,35.313171
161.550000,35.217500
161.550000,31.717500
161.569030,31.621829
161.623223,31.540723
161.704329,31.486530
161.800000,31.467500
Z" /> 
<path style="fill:#000000; fill-opacity:1.000000; 
stroke:#000000; stroke-width:0.000000; stroke-opacity:1; 
stroke-linecap:round; stroke-linejoin:round;fill-rule:evenodd;"
d="M 163.800000,39.467500
163.895671,39.486530
163.976777,39.540723
164.030970,39.621829
164.050000,39.717500
164.050000,43.217500
164.030970,43.313171
163.976777,43.394277
163.895671,43.448470
163.800000,43.467500
161.800000,43.467500
161.704329,43.448470
161.623223,43.394277
161.569030,43.313171
161.550000,43.217500
161.550000,39.717500
161.569030,39.621829
161.623223,39.540723
161.704329,39.486530
161.800000,39.467500
Z" /> 
</g>
<g >
</g>
<g >
</g>
<g style="fill:#000000; fill-opacity:1.000000; 
stroke:#000000; stroke-width:0.000000; stroke-opacity:1; 
stroke-linecap:round; stroke-linejoin:round;">
<path style="fill:#000000; fill-opacity:1.000000; 
stroke:#000000; stroke-width:0.000000; stroke-opacity:1; 
stroke-linecap:round; stroke-linejoin:round;fill-rule:evenodd;"
d="M 54.475000,37.100000
54.494030,37.004329
54.548223,36.923223
54.629329,36.869030
54.725000,36.850000
55.250000,36.850000
55.345671,36.869030
55.426777,36.923223
55.480970,37.004329
55.500000,37.100000
55.500000,38.000000
55.480970,38.095671
55.426777,38.176777
55.345671,38.230970
55.250000,38.250000
54.725000,38.250000
54.629329,38.230970
54.548223,38.176777
54.494030,38.095671
54.475000,38.000000
Z" /> 
<path style="fill:#000000; fill-opacity:1.000000; 
stroke:#000000; stroke-width:0.000000; stroke-opacity:1; 
stroke-linecap:round; stroke-linejoin:round;fill-rule:evenodd;"
d="M 56.300000,37.100000
56.319030,37.004329
56.373223,36.923223
56.454329,36.869030
56.550000,36.850000
57.075000,36.850000
57.170671,36.869030
57.251777,36.923223
57.305970,37.004329
57.325000,37.100000
57.325000,38.000000
57.305970,38.095671
57.251777,38.176777
57.170671,38.230970
57.075000,38.250000
56.550000,38.250000
56.454329,38.230970
56.373223,38.176777
56.319030,38.095671
56.300000,38.000000
Z" /> 
</g>
<g >
</g>
<g style="fill:#000000; fill-opacity:1.000000; 
stroke:#000000; stroke-width:0.000000; stroke-opacity:1; 
stroke-linecap:round; stroke-linejoin:round;">
<path style="fill:#000000; fill-opacity:1.000000; 
stroke:#000000; stroke-width:0.000000; stroke-opacity:1; 
stroke-linecap:round; stroke-linejoin:round;fill-rule:evenodd;"
d="M 42.443750,29.725000
42.360038,29.708349
42.289070,29.660930
42.241651,29.589962
42.225000,29.506250
42.225000,29.068750
42.241651,28.985038
42.289070,28.914070
42.360038,28.866651
42.443750,28.850000
42.956250,28.850000
43.039962,28.866651
43.110930,28.914070
43.158349,28.985038
43.175000,29.068750
43.175000,29.506250
43.158349,29.589962
43.110930,29.660930
43.039962,29.708349
42.956250,29.725000
Z" /> 
<path style="fill:#000000; fill-opacity:1.000000; 
stroke:#000000; stroke-width:0.000000; stroke-opacity:1; 
stroke-linecap:round; stroke-linejoin:round;fill-rule:evenodd;"
d="M 42.443750,28.150000
42.360038,28.133349
42.289070,28.085930
42.241651,28.014962
42.225000,27.931250
42.225000,27.493750
42.241651,27.410038
42.289070,27.339070
42.360038,27.291651
42.443750,27.275000
42.956250,27.275000
43.039962,27.291651
43.110930,27.339070
43.158349,27.410038
43.175000,27.493750
43.175000,27.931250
43.158349,28.014962
43.110930,28.085930
43.039962,28.133349
42.956250,28.150000
Z" /> 
</g>
<g >
</g>
<g style="fill:#000000; fill-opacity:1.000000; 
stroke:#000000; stroke-width:0.000000; stroke-opacity:1; 
stroke-linecap:round; stroke-linejoin:round;">
<path style="fill:#000000; fill-opacity:1.000000; 
stroke:#000000; stroke-width:0.000000; stroke-opacity:1; 
stroke-linecap:round; stroke-linejoin:round;fill-rule:evenodd;"
d="M 157.150000,49.600000
157.130970,49.695671
157.076777,49.776777
156.995671,49.830970
156.900000,49.850000
156.250000,49.850000
156.154329,49.830970
156.073223,49.776777
156.019030,49.695671
156.000000,49.600000
156.000000,48.300000
156.019030,48.204329
156.073223,48.123223
156.154329,48.069030
156.250000,48.050000
156.900000,48.050000
156.995671,48.069030
157.076777,48.123223
157.130970,48.204329
157.150000,48.300000
Z" /> 
<path style="fill:#000000; fill-opacity:1.000000; 
stroke:#000000; stroke-width:0.000000; stroke-opacity:1; 
stroke-linecap:round; stroke-linejoin:round;fill-rule:evenodd;"
d="M 154.200000,49.600000
154.180970,49.695671
154.126777,49.776777
154.045671,49.830970
153.950000,49.850000
153.300000,49.850000
153.204329,49.830970
153.123223,49.776777
153.069030,49.695671
153.050000,49.600000
153.050000,48.300000
153.069030,48.204329
153.123223,48.123223
153.204329,48.069030
153.300000,48.050000
153.950000,48.050000
154.045671,48.069030
154.126777,48.123223
154.180970,48.204329
154.200000,48.300000
Z" /> 
</g>
<g >
</g>
<g style="fill:#000000; fill-opacity:1.000000; 
stroke:#000000; stroke-width:0.000000; stroke-opacity:1; 
stroke-linecap:round; stroke-linejoin:round;">
<path style="fill:#000000; fill-opacity:1.000000; 
stroke:#000000; stroke-width:0.000000; stroke-opacity:1; 
stroke-linecap:round; stroke-linejoin:round;fill-rule:evenodd;"
d="M 44.900000,30.450000
44.995671,30.469030
45.076777,30.523223
45.130970,30.604329
45.150000,30.700000
45.150000,31.300000
45.130970,31.395671
45.076777,31.476777
44.995671,31.530970
44.900000,31.550000
44.300000,31.550000
44.204329,31.530970
44.123223,31.476777
44.069030,31.395671
44.050000,31.300000
44.050000,30.700000
44.069030,30.604329
44.123223,30.523223
44.204329,30.469030
44.300000,30.450000
Z" /> 
<path style="fill:#000000; fill-opacity:1.000000; 
stroke:#000000; stroke-width:0.000000; stroke-opacity:1; 
stroke-linecap:round; stroke-linejoin:round;fill-rule:evenodd;"
d="M 44.900000,33.250000
44.995671,33.269030
45.076777,33.323223
45.130970,33.404329
45.150000,33.500000
45.150000,34.100000
45.130970,34.195671
45.076777,34.276777
44.995671,34.330970
44.900000,34.350000
44.300000,34.350000
44.204329,34.330970
44.123223,34.276777
44.069030,34.195671
44.050000,34.100000
44.050000,33.500000
44.069030,33.404329
44.123223,33.323223
44.204329,33.269030
44.300000,33.250000
Z" /> 
</g>
<g >
</g>
<g style="fill:#000000; fill-opacity:1.000000; 
stroke:#000000; stroke-width:0.000000; stroke-opacity:1; 
stroke-linecap:round; stroke-linejoin:round;">
<path style="fill:#000000; fill-opacity:1.000000; 
stroke:#000000; stroke-width:0.000000; stroke-opacity:1; 
stroke-linecap:round; stroke-linejoin:round;fill-rule:evenodd;"
d="M 113.525000,45.500000
113.620671,45.519030
113.701777,45.573223
113.755970,45.654329
113.775000,45.750000
113.775000,46.250000
113.755970,46.345671
113.701777,46.426777
113.620671,46.480970
113.525000,46.500000
112.575000,46.500000
112.479329,46.480970
112.398223,46.426777
112.344030,46.345671
112.325000,46.250000
112.325000,45.750000
112.344030,45.654329
112.398223,45.573223
112.479329,45.519030
112.575000,45.500000
Z" /> 
<path style="fill:#000000; fill-opacity:1.000000; 
stroke:#000000; stroke-width:0.000000; stroke-opacity:1; 
stroke-linecap:round; stroke-linejoin:round;fill-rule:evenodd;"
d="M 113.525000,47.400000
113.620671,47.419030
113.701777,47.473223
113.755970,47.554329
113.775000,47.650000
113.775000,48.150000
113.755970,48.245671
113.701777,48.326777
113.620671,48.380970
113.525000,48.400000
112.575000,48.400000
112.479329,48.380970
112.398223,48.326777
112.344030,48.245671
112.325000,48.150000
112.325000,47.650000
112.344030,47.554329
112.398223,47.473223
112.479329,47.419030
112.575000,47.400000
Z" /> 
</g>
<g >
</g>
<g style="fill:#000000; fill-opacity:1.000000; 
stroke:#000000; stroke-width:0.000000; stroke-opacity:1; 
stroke-linecap:round; stroke-linejoin:round;">
<path style="fill:#000000; fill-opacity:1.000000; 
stroke:#000000; stroke-width:0.000000; stroke-opacity:1; 
stroke-linecap:round; stroke-linejoin:round;fill-rule:evenodd;"
d="M 42.956250,30.525000
43.039962,30.541651
43.110930,30.589070
43.158349,30.660038
43.175000,30.743750
43.175000,31.181250
43.158349,31.264962
43.110930,31.335930
43.039962,31.383349
42.956250,31.400000
42.443750,31.400000
42.360038,31.383349
42.289070,31.335930
42.241651,31.264962
42.225000,31.181250
42.225000,30.743750
42.241651,30.660038
42.289070,30.589070
42.360038,30.541651
42.443750,30.525000
Z" /> 
<path style="fill:#000000; fill-opacity:1.000000; 
stroke:#000000; stroke-width:0.000000; stroke-opacity:1; 
stroke-linecap:round; stroke-linejoin:round;fill-rule:evenodd;"
d="M 42.956250,32.100000
43.039962,32.116651
43.110930,32.164070
43.158349,32.235038
43.175000,32.318750
43.175000,32.756250
43.158349,32.839962
43.110930,32.910930
43.039962,32.958349
42.956250,32.975000
42.443750,32.975000
42.360038,32.958349
42.289070,32.910930
42.241651,32.839962
42.225000,32.756250
42.225000,32.318750
42.241651,32.235038
42.289070,32.164070
42.360038,32.116651
42.443750,32.100000
Z" /> 
</g>
<g >
</g>
<g style="fill:#000000; fill-opacity:1.000000; 
stroke:#000000; stroke-width:0.000000; stroke-opacity:1; 
stroke-linecap:round; stroke-linejoin:round;">
<path style="fill:#000000; fill-opacity:1.000000; 
stroke:#000000; stroke-width:0.000000; stroke-opacity:1; 
stroke-linecap:round; stroke-linejoin:round;fill-rule:evenodd;"
d="M 172.400000,30.200000
172.380970,30.295671
172.326777,30.376777
172.245671,30.430970
172.150000,30.450000
171.525000,30.450000
171.429329,30.430970
171.348223,30.376777
171.294030,30.295671
171.275000,30.200000
171.275000,27.300000
171.294030,27.204329
171.348223,27.123223
171.429329,27.069030
171.525000,27.050000
172.150000,27.050000
172.245671,27.069030
172.326777,27.123223
172.380970,27.204329
172.400000,27.300000
Z" /> 
<path style="fill:#000000; fill-opacity:1.000000; 
stroke:#000000; stroke-width:0.000000; stroke-opacity:1; 
stroke-linecap:round; stroke-linejoin:round;fill-rule:evenodd;"
d="M 168.125000,30.200000
168.105970,30.295671
168.051777,30.376777
167.970671,30.430970
167.875000,30.450000
167.250000,30.450000
167.154329,30.430970
167.073223,30.376777
167.019030,30.295671
167.000000,30.200000
167.000000,27.300000
167.019030,27.204329
167.073223,27.123223
167.154329,27.069030
167.250000,27.050000
167.875000,27.050000
167.970671,27.069030
168.051777,27.123223
168.105970,27.204329
168.125000,27.300000
Z" /> 
</g>
<g >
</g>
<g >
</g>
<g style="fill:#000000; fill-opacity:1.000000; 
stroke:#000000; stroke-width:0.000000; stroke-opacity:1; 
stroke-linecap:round; stroke-linejoin:round;">
<path style="fill:#000000; fill-opacity:1.000000; 
stroke:#000000; stroke-width:0.000000; stroke-opacity:1; 
stroke-linecap:round; stroke-linejoin:round;fill-rule:evenodd;"
d="M 157.050000,47.275000
157.030970,47.370671
156.976777,47.451777
156.895671,47.505970
156.800000,47.525000
156.300000,47.525000
156.204329,47.505970
156.123223,47.451777
156.069030,47.370671
156.050000,47.275000
156.050000,46.325000
156.069030,46.229329
156.123223,46.148223
156.204329,46.094030
156.300000,46.075000
156.800000,46.075000
156.895671,46.094030
156.976777,46.148223
157.030970,46.229329
157.050000,46.325000
Z" /> 
<path style="fill:#000000; fill-opacity:1.000000; 
stroke:#000000; stroke-width:0.000000; stroke-opacity:1; 
stroke-linecap:round; stroke-linejoin:round;fill-rule:evenodd;"
d="M 155.150000,47.275000
155.130970,47.370671
155.076777,47.451777
154.995671,47.505970
154.900000,47.525000
154.400000,47.525000
154.304329,47.505970
154.223223,47.451777
154.169030,47.370671
154.150000,47.275000
154.150000,46.325000
154.169030,46.229329
154.223223,46.148223
154.304329,46.094030
154.400000,46.075000
154.900000,46.075000
154.995671,46.094030
155.076777,46.148223
155.130970,46.229329
155.150000,46.325000
Z" /> 
</g>
<g >
</g>
<g style="fill:#000000; fill-opacity:1.000000; 
stroke:#000000; stroke-width:0.000000; stroke-opacity:1; 
stroke-linecap:round; stroke-linejoin:round;">
<path style="fill:#000000; fill-opacity:1.000000; 
stroke:#000000; stroke-width:0.000000; stroke-opacity:1; 
stroke-linecap:round; stroke-linejoin:round;fill-rule:evenodd;"
d="M 172.000000,117.400000
172.000000,115.600000
174.000000,115.600000
174.000000,117.400000
Z" /> 
<path style="fill:#000000; fill-opacity:1.000000; 
stroke:#000000; stroke-width:0.000000; stroke-opacity:1; 
stroke-linecap:round; stroke-linejoin:round;fill-rule:evenodd;"
d="M 186.000000,117.400000
186.000000,115.600000
188.000000,115.600000
188.000000,117.400000
Z" /> 
<path style="fill:#000000; fill-opacity:1.000000; 
stroke:#000000; stroke-width:0.000000; stroke-opacity:1; 
stroke-linecap:round; stroke-linejoin:round;fill-rule:evenodd;"
d="M 172.000000,122.400000
172.000000,120.600000
174.000000,120.600000
174.000000,122.400000
Z" /> 
<path style="fill:#000000; fill-opacity:1.000000; 
stroke:#000000; stroke-width:0.000000; stroke-opacity:1; 
stroke-linecap:round; stroke-linejoin:round;fill-rule:evenodd;"
d="M 186.000000,122.400000
186.000000,120.600000
188.000000,120.600000
188.000000,122.400000
Z" /> 
</g>
<g >
</g>
<g style="fill:#000000; fill-opacity:1.000000; 
stroke:#000000; stroke-width:0.000000; stroke-opacity:1; 
stroke-linecap:round; stroke-linejoin:round;">
<circle cx="180.000000" cy="119.000000" r="2.800000" /> 
</g>
<g style="fill:#000000; fill-opacity:1.000000; 
stroke:#000000; stroke-width:0.021200; stroke-opacity:1; 
stroke-linecap:round; stroke-linejoin:round;">
</g>
<g >
</g>
<g style="fill:#000000; fill-opacity:1.000000; 
stroke:#000000; stroke-width:0.021200; stroke-opacity:1; 
stroke-linecap:round; stroke-linejoin:round;">
</g>
<g style="fill:#000000; fill-opacity:1.000000; 
stroke:#000000; stroke-width:0.000000; stroke-opacity:1; 
stroke-linecap:round; stroke-linejoin:round;">
<path style="fill:#000000; fill-opacity:1.000000; 
stroke:#000000; stroke-width:0.000000; stroke-opacity:1; 
stroke-linecap:round; stroke-linejoin:round;fill-rule:evenodd;"
d="M 172.000000,65.400000
172.000000,63.600000
174.000000,63.600000
174.000000,65.400000
Z" /> 
<path style="fill:#000000; fill-opacity:1.000000; 
stroke:#000000; stroke-width:0.000000; stroke-opacity:1; 
stroke-linecap:round; stroke-linejoin:round;fill-rule:evenodd;"
d="M 186.000000,65.400000
186.000000,63.600000
188.000000,63.600000
188.000000,65.400000
Z" /> 
<path style="fill:#000000; fill-opacity:1.000000; 
stroke:#000000; stroke-width:0.000000; stroke-opacity:1; 
stroke-linecap:round; stroke-linejoin:round;fill-rule:evenodd;"
d="M 172.000000,70.400000
172.000000,68.600000
174.000000,68.600000
174.000000,70.400000
Z" /> 
<path style="fill:#000000; fill-opacity:1.000000; 
stroke:#000000; stroke-width:0.000000; stroke-opacity:1; 
stroke-linecap:round; stroke-linejoin:round;fill-rule:evenodd;"
d="M 186.000000,70.400000
186.000000,68.600000
188.000000,68.600000
188.000000,70.400000
Z" /> 
</g>
<g >
</g>
<g style="fill:#000000; fill-opacity:1.000000; 
stroke:#000000; stroke-width:0.000000; stroke-opacity:1; 
stroke-linecap:round; stroke-linejoin:round;">
<path style="fill:#000000; fill-opacity:1.000000; 
stroke:#000000; stroke-width:0.000000; stroke-opacity:1; 
stroke-linecap:round; stroke-linejoin:round;fill-rule:evenodd;"
d="M 22.000000,117.400000
22.000000,115.600000
24.000000,115.600000
24.000000,117.400000
Z" /> 
<path style="fill:#000000; fill-opacity:1.000000; 
stroke:#000000; stroke-width:0.000000; stroke-opacity:1; 
stroke-linecap:round; stroke-linejoin:round;fill-rule:evenodd;"
d="M 36.000000,117.400000
36.000000,115.600000
38.000000,115.600000
38.000000,117.400000
Z" /> 
<path style="fill:#000000; fill-opacity:1.000000; 
stroke:#000000; stroke-width:0.000000; stroke-opacity:1; 
stroke-linecap:round; stroke-linejoin:round;fill-rule:evenodd;"
d="M 22.000000,122.400000
22.000000,120.600000
24.000000,120.600000
24.000000,122.400000
Z" /> 
<path style="fill:#000000; fill-opacity:1.000000; 
stroke:#000000; stroke-width:0.000000; stroke-opacity:1; 
stroke-linecap:round; stroke-linejoin:round;fill-rule:evenodd;"
d="M 36.000000,122.400000
36.000000,120.600000
38.000000,120.600000
38.000000,122.400000
Z" /> 
</g>
<g >
</g>
<g >
</g>
<g style="fill:#000000; fill-opacity:1.000000; 
stroke:#000000; stroke-width:0.000000; stroke-opacity:1; 
stroke-linecap:round; stroke-linejoin:round;">
<path style="fill:#000000; fill-opacity:1.000000; 
stroke:#000000; stroke-width:0.000000; stroke-opacity:1; 
stroke-linecap:round; stroke-linejoin:round;fill-rule:evenodd;"
d="M 51.475000,37.293750
51.491651,37.210038
51.539070,37.139070
51.610038,37.091651
51.693750,37.075000
52.131250,37.075000
52.214962,37.091651
52.285930,37.139070
52.333349,37.210038
52.350000,37.293750
52.350000,37.806250
52.333349,37.889962
52.285930,37.960930
52.214962,38.008349
52.131250,38.025000
51.693750,38.025000
51.610038,38.008349
51.539070,37.960930
51.491651,37.889962
51.475000,37.806250
Z" /> 
<path style="fill:#000000; fill-opacity:1.000000; 
stroke:#000000; stroke-width:0.000000; stroke-opacity:1; 
stroke-linecap:round; stroke-linejoin:round;fill-rule:evenodd;"
d="M 53.050000,37.293750
53.066651,37.210038
53.114070,37.139070
53.185038,37.091651
53.268750,37.075000
53.706250,37.075000
53.789962,37.091651
53.860930,37.139070
53.908349,37.210038
53.925000,37.293750
53.925000,37.806250
53.908349,37.889962
53.860930,37.960930
53.789962,38.008349
53.706250,38.025000
53.268750,38.025000
53.185038,38.008349
53.114070,37.960930
53.066651,37.889962
53.050000,37.806250
Z" /> 
</g>
<g >
</g>
<g style="fill:#000000; fill-opacity:1.000000; 
stroke:#000000; stroke-width:0.000000; stroke-opacity:1; 
stroke-linecap:round; stroke-linejoin:round;">
<path style="fill:#000000; fill-opacity:1.000000; 
stroke:#000000; stroke-width:0.000000; stroke-opacity:1; 
stroke-linecap:round; stroke-linejoin:round;fill-rule:evenodd;"
d="M 74.724000,47.432600
74.724000,47.788200
73.606400,47.788200
73.606400,47.432600
Z" /> 
<path style="fill:#000000; fill-opacity:1.000000; 
stroke:#000000; stroke-width:0.000000; stroke-opacity:1; 
stroke-linecap:round; stroke-linejoin:round;fill-rule:evenodd;"
d="M 74.724000,46.772200
74.724000,47.127800
73.606400,47.127800
73.606400,46.772200
Z" /> 
<path style="fill:#000000; fill-opacity:1.000000; 
stroke:#000000; stroke-width:0.000000; stroke-opacity:1; 
stroke-linecap:round; stroke-linejoin:round;fill-rule:evenodd;"
d="M 74.724000,46.111800
74.724000,46.467400
73.606400,46.467400
73.606400,46.111800
Z" /> 
<path style="fill:#000000; fill-opacity:1.000000; 
stroke:#000000; stroke-width:0.000000; stroke-opacity:1; 
stroke-linecap:round; stroke-linejoin:round;fill-rule:evenodd;"
d="M 72.793600,46.111800
72.793600,46.467400
71.676000,46.467400
71.676000,46.111800
Z" /> 
<path style="fill:#000000; fill-opacity:1.000000; 
stroke:#000000; stroke-width:0.000000; stroke-opacity:1; 
stroke-linecap:round; stroke-linejoin:round;fill-rule:evenodd;"
d="M 72.793600,47.432600
72.793600,47.788200
71.676000,47.788200
71.676000,47.432600
Z" /> 
</g>
<g >
</g>
<g >
</g>
<g style="fill:#000000; fill-opacity:1.000000; 
stroke:#000000; stroke-width:0.000000; stroke-opacity:1; 
stroke-linecap:round; stroke-linejoin:round;">
<path style="fill:#000000; fill-opacity:1.000000; 
stroke:#000000; stroke-width:0.000000; stroke-opacity:1; 
stroke-linecap:round; stroke-linejoin:round;fill-rule:evenodd;"
d="M 97.000000,117.400000
97.000000,115.600000
99.000000,115.600000
99.000000,117.400000
Z" /> 
<path style="fill:#000000; fill-opacity:1.000000; 
stroke:#000000; stroke-width:0.000000; stroke-opacity:1; 
stroke-linecap:round; stroke-linejoin:round;fill-rule:evenodd;"
d="M 111.000000,117.400000
111.000000,115.600000
113.000000,115.600000
113.000000,117.400000
Z" /> 
<path style="fill:#000000; fill-opacity:1.000000; 
stroke:#000000; stroke-width:0.000000; stroke-opacity:1; 
stroke-linecap:round; stroke-linejoin:round;fill-rule:evenodd;"
d="M 97.000000,122.400000
97.000000,120.600000
99.000000,120.600000
99.000000,122.400000
Z" /> 
<path style="fill:#000000; fill-opacity:1.000000; 
stroke:#000000; stroke-width:0.000000; stroke-opacity:1; 
stroke-linecap:round; stroke-linejoin:round;fill-rule:evenodd;"
d="M 111.000000,122.400000
111.000000,120.600000
113.000000,120.600000
113.000000,122.400000
Z" /> 
</g>
<g >
</g>
<g style="fill:#000000; fill-opacity:1.000000; 
stroke:#000000; stroke-width:0.000000; stroke-opacity:1; 
stroke-linecap:round; stroke-linejoin:round;">
<path style="fill:#000000; fill-opacity:1.000000; 
stroke:#000000; stroke-width:0.000000; stroke-opacity:1; 
stroke-linecap:round; stroke-linejoin:round;fill-rule:evenodd;"
d="M 149.175000,45.575000
149.194030,45.479329
149.248223,45.398223
149.329329,45.344030
149.425000,45.325000
150.075000,45.325000
150.170671,45.344030
150.251777,45.398223
150.305970,45.479329
150.325000,45.575000
150.325000,46.875000
150.305970,46.970671
150.251777,47.051777
150.170671,47.105970
150.075000,47.125000
149.425000,47.125000
149.329329,47.105970
149.248223,47.051777
149.194030,46.970671
149.175000,46.875000
Z" /> 
<path style="fill:#000000; fill-opacity:1.000000; 
stroke:#000000; stroke-width:0.000000; stroke-opacity:1; 
stroke-linecap:round; stroke-linejoin:round;fill-rule:evenodd;"
d="M 152.125000,45.575000
152.144030,45.479329
152.198223,45.398223
152.279329,45.344030
152.375000,45.325000
153.025000,45.325000
153.120671,45.344030
153.201777,45.398223
153.255970,45.479329
153.275000,45.575000
153.275000,46.875000
153.255970,46.970671
153.201777,47.051777
153.120671,47.105970
153.025000,47.125000
152.375000,47.125000
152.279329,47.105970
152.198223,47.051777
152.144030,46.970671
152.125000,46.875000
Z" /> 
</g>
<g >
</g>
<g >
</g>
<g style="fill:#000000; fill-opacity:1.000000; 
stroke:#000000; stroke-width:0.000000; stroke-opacity:1; 
stroke-linecap:round; stroke-linejoin:round;">
<path style="fill:#000000; fill-opacity:1.000000; 
stroke:#000000; stroke-width:0.000000; stroke-opacity:1; 
stroke-linecap:round; stroke-linejoin:round;fill-rule:evenodd;"
d="M 134.300000,46.050000
134.395671,46.069030
134.476777,46.123223
134.530970,46.204329
134.550000,46.300000
134.550000,48.300000
134.530970,48.395671
134.476777,48.476777
134.395671,48.530970
134.300000,48.550000
133.000000,48.550000
132.904329,48.530970
132.823223,48.476777
132.769030,48.395671
132.750000,48.300000
132.750000,46.300000
132.769030,46.204329
132.823223,46.123223
132.904329,46.069030
133.000000,46.050000
Z" /> 
<path style="fill:#000000; fill-opacity:1.000000; 
stroke:#000000; stroke-width:0.000000; stroke-opacity:1; 
stroke-linecap:round; stroke-linejoin:round;fill-rule:evenodd;"
d="M 134.300000,50.050000
134.395671,50.069030
134.476777,50.123223
134.530970,50.204329
134.550000,50.300000
134.550000,52.300000
134.530970,52.395671
134.476777,52.476777
134.395671,52.530970
134.300000,52.550000
133.000000,52.550000
132.904329,52.530970
132.823223,52.476777
132.769030,52.395671
132.750000,52.300000
132.750000,50.300000
132.769030,50.204329
132.823223,50.123223
132.904329,50.069030
133.000000,50.050000
Z" /> 
</g>
<g >
</g>
<g style="fill:#000000; fill-opacity:1.000000; 
stroke:#000000; stroke-width:0.000000; stroke-opacity:1; 
stroke-linecap:round; stroke-linejoin:round;">
<path style="fill:#000000; fill-opacity:1.000000; 
stroke:#000000; stroke-width:0.000000; stroke-opacity:1; 
stroke-linecap:round; stroke-linejoin:round;fill-rule:evenodd;"
d="M 51.475000,35.406250
51.491651,35.322538
51.539070,35.251570
51.610038,35.204151
51.693750,35.187500
52.131250,35.187500
52.214962,35.204151
52.285930,35.251570
52.333349,35.322538
52.350000,35.406250
52.350000,35.918750
52.333349,36.002462
52.285930,36.073430
52.214962,36.120849
52.131250,36.137500
51.693750,36.137500
51.610038,36.120849
51.539070,36.073430
51.491651,36.002462
51.475000,35.918750
Z" /> 
<path style="fill:#000000; fill-opacity:1.000000; 
stroke:#000000; stroke-width:0.000000; stroke-opacity:1; 
stroke-linecap:round; stroke-linejoin:round;fill-rule:evenodd;"
d="M 53.050000,35.406250
53.066651,35.322538
53.114070,35.251570
53.185038,35.204151
53.268750,35.187500
53.706250,35.187500
53.789962,35.204151
53.860930,35.251570
53.908349,35.322538
53.925000,35.406250
53.925000,35.918750
53.908349,36.002462
53.860930,36.073430
53.789962,36.120849
53.706250,36.137500
53.268750,36.137500
53.185038,36.120849
53.114070,36.073430
53.066651,36.002462
53.050000,35.918750
Z" /> 
</g>
<g >
</g>
<g >
</g>
<g >
</g>
<g >
</g>
<g >
</g>
<g >
</g>
<g >
</g>
<g >
</g>
<g >
</g>
<g >
</g>
<g >
</g>
<g >
</g>
<g >
</g>
<g >
</g>
</g> 
</svg>
