G04 #@! TF.GenerationSoftware,KiCad,Pcbnew,7.0.8-7.0.8~ubuntu23.04.1*
G04 #@! TF.CreationDate,2023-10-20T09:13:35+00:00*
G04 #@! TF.ProjectId,stencil,7374656e-6369-46c2-9e6b-696361645f70,3.0.1*
G04 #@! TF.SameCoordinates,Original*
G04 #@! TF.FileFunction,Paste,Top*
G04 #@! TF.FilePolarity,Positive*
%FSLAX46Y46*%
G04 Gerber Fmt 4.6, Leading zero omitted, Abs format (unit mm)*
G04 Created by KiCad (PCBNEW 7.0.8-7.0.8~ubuntu23.04.1) date 2023-10-20 09:13:35*
%MOMM*%
%LPD*%
G01*
G04 APERTURE LIST*
G04 Aperture macros list*
%AMRoundRect*
0 Rectangle with rounded corners*
0 $1 Rounding radius*
0 $2 $3 $4 $5 $6 $7 $8 $9 X,Y pos of 4 corners*
0 Add a 4 corners polygon primitive as box body*
4,1,4,$2,$3,$4,$5,$6,$7,$8,$9,$2,$3,0*
0 Add four circle primitives for the rounded corners*
1,1,$1+$1,$2,$3*
1,1,$1+$1,$4,$5*
1,1,$1+$1,$6,$7*
1,1,$1+$1,$8,$9*
0 Add four rect primitives between the rounded corners*
20,1,$1+$1,$2,$3,$4,$5,0*
20,1,$1+$1,$4,$5,$6,$7,0*
20,1,$1+$1,$6,$7,$8,$9,0*
20,1,$1+$1,$8,$9,$2,$3,0*%
G04 Aperture macros list end*
%ADD10C,0.500000*%
%ADD11C,1.000000*%
%ADD12C,1.050000*%
%ADD13RoundRect,0.250000X-0.250000X-0.475000X0.250000X-0.475000X0.250000X0.475000X-0.250000X0.475000X0*%
%ADD14RoundRect,0.250000X-0.262500X-0.450000X0.262500X-0.450000X0.262500X0.450000X-0.262500X0.450000X0*%
%ADD15RoundRect,0.250000X0.475000X-0.250000X0.475000X0.250000X-0.475000X0.250000X-0.475000X-0.250000X0*%
%ADD16RoundRect,0.250000X0.262500X0.450000X-0.262500X0.450000X-0.262500X-0.450000X0.262500X-0.450000X0*%
%ADD17RoundRect,0.250000X-0.650000X1.000000X-0.650000X-1.000000X0.650000X-1.000000X0.650000X1.000000X0*%
%ADD18RoundRect,0.150000X-0.150000X0.825000X-0.150000X-0.825000X0.150000X-0.825000X0.150000X0.825000X0*%
%ADD19RoundRect,0.250000X-0.475000X0.250000X-0.475000X-0.250000X0.475000X-0.250000X0.475000X0.250000X0*%
%ADD20R,2.000000X1.500000*%
%ADD21R,2.000000X3.800000*%
%ADD22C,5.600000*%
%ADD23RoundRect,0.250000X0.250000X0.475000X-0.250000X0.475000X-0.250000X-0.475000X0.250000X-0.475000X0*%
%ADD24R,1.500000X1.000000*%
%ADD25RoundRect,0.250000X0.450000X-0.262500X0.450000X0.262500X-0.450000X0.262500X-0.450000X-0.262500X0*%
%ADD26R,2.000000X1.800000*%
%ADD27R,5.500000X1.430000*%
%ADD28RoundRect,0.250000X-0.450000X0.262500X-0.450000X-0.262500X0.450000X-0.262500X0.450000X0.262500X0*%
%ADD29R,3.150000X2.200000*%
%ADD30R,0.600000X2.200000*%
%ADD31R,4.400000X2.200000*%
%ADD32R,1.300000X0.800000*%
%ADD33RoundRect,0.250000X-1.750000X-1.000000X1.750000X-1.000000X1.750000X1.000000X-1.750000X1.000000X0*%
%ADD34RoundRect,0.250000X0.292217X-0.292217X0.292217X0.292217X-0.292217X0.292217X-0.292217X-0.292217X0*%
%ADD35RoundRect,0.050000X0.050000X-0.387500X0.050000X0.387500X-0.050000X0.387500X-0.050000X-0.387500X0*%
%ADD36RoundRect,0.050000X0.387500X-0.050000X0.387500X0.050000X-0.387500X0.050000X-0.387500X-0.050000X0*%
%ADD37RoundRect,0.243750X0.243750X0.456250X-0.243750X0.456250X-0.243750X-0.456250X0.243750X-0.456250X0*%
%ADD38RoundRect,0.218750X0.256250X-0.218750X0.256250X0.218750X-0.256250X0.218750X-0.256250X-0.218750X0*%
%ADD39RoundRect,0.250000X-0.300000X0.300000X-0.300000X-0.300000X0.300000X-0.300000X0.300000X0.300000X0*%
%ADD40RoundRect,0.250000X0.650000X-1.000000X0.650000X1.000000X-0.650000X1.000000X-0.650000X-1.000000X0*%
%ADD41RoundRect,0.218750X-0.256250X0.218750X-0.256250X-0.218750X0.256250X-0.218750X0.256250X0.218750X0*%
%ADD42RoundRect,0.250000X0.312500X1.450000X-0.312500X1.450000X-0.312500X-1.450000X0.312500X-1.450000X0*%
%ADD43R,5.600000X2.100000*%
%ADD44RoundRect,0.150000X0.150000X-0.650000X0.150000X0.650000X-0.150000X0.650000X-0.150000X-0.650000X0*%
%ADD45R,0.700000X0.200000*%
%ADD46RoundRect,0.218750X-0.218750X-0.256250X0.218750X-0.256250X0.218750X0.256250X-0.218750X0.256250X0*%
%ADD47R,0.650000X0.400000*%
%ADD48R,0.400000X0.650000*%
G04 APERTURE END LIST*
D10*
X198994346Y29637246D02*
G75*
G03*
X198494385Y30137246I-499961J39D01*
G01*
X125327713Y142494357D02*
G75*
G03*
X124827713Y141994385I-28J-499972D01*
G01*
X175105489Y142494381D02*
G75*
G03*
X174605489Y141994385I-4J-499996D01*
G01*
X111383285Y141994385D02*
G75*
G03*
X110883269Y142494385I-500000J0D01*
G01*
X198494385Y93280085D02*
G75*
G03*
X198994385Y93780101I0J500000D01*
G01*
X-25005615Y44065817D02*
G75*
G03*
X-24505615Y43565817I500001J1D01*
G01*
X61105493Y-31505623D02*
G75*
G03*
X61605493Y-31005615I-8J500008D01*
G01*
X383285Y-31005615D02*
G75*
G03*
X883273Y-31505615I500000J0D01*
G01*
X198994385Y91780101D02*
X198994385Y81351530D01*
X75049985Y-31005615D02*
G75*
G03*
X75549937Y-31505615I500000J0D01*
G01*
X137272185Y-31005615D02*
G75*
G03*
X137772157Y-31505615I500000J0D01*
G01*
X198994404Y4780104D02*
G75*
G03*
X198494385Y5280104I-500019J-19D01*
G01*
D11*
X33119385Y-28255615D02*
G75*
G03*
X33119385Y-28255615I-500000J0D01*
G01*
D10*
X13327717Y142494353D02*
G75*
G03*
X12827717Y141994385I-32J-499968D01*
G01*
X12827685Y-31005615D02*
G75*
G03*
X13327717Y-31505615I500000J0D01*
G01*
X187549933Y142494385D02*
X197994377Y142494385D01*
X-25005615Y-20077038D02*
X-25005615Y-30505609D01*
D11*
X141869385Y139244385D02*
G75*
G03*
X141869385Y139244385I-500000J0D01*
G01*
D10*
X75549937Y142494385D02*
X85994381Y142494385D01*
X125327713Y142494385D02*
X135772157Y142494385D01*
X-11561171Y142494391D02*
G75*
G03*
X-12061171Y141994385I6J-500006D01*
G01*
X173105489Y-31505619D02*
G75*
G03*
X173605489Y-31005615I-4J500004D01*
G01*
D11*
X87494385Y-28255615D02*
G75*
G03*
X87494385Y-28255615I-500000J0D01*
G01*
D10*
X13327717Y-31505615D02*
X23772161Y-31505615D01*
X99938785Y-31005615D02*
G75*
G03*
X100438825Y-31505615I500000J0D01*
G01*
X883273Y142494397D02*
G75*
G03*
X383273Y141994385I12J-500012D01*
G01*
X38216605Y142494365D02*
G75*
G03*
X37716605Y141994385I-20J-499980D01*
G01*
X85994381Y-31505611D02*
G75*
G03*
X86494381Y-31005615I4J499996D01*
G01*
X198994385Y54494388D02*
X198994385Y44065817D01*
X198994417Y42065817D02*
G75*
G03*
X198494385Y42565817I-500032J-32D01*
G01*
X50661049Y-31505615D02*
X61105493Y-31505615D01*
X162661045Y-31505615D02*
X173105489Y-31505615D01*
X-24505615Y5280104D02*
G75*
G03*
X-25005615Y4780104I1J-500001D01*
G01*
X198994385Y-7648467D02*
X198994385Y-18077038D01*
X112383285Y-31005615D02*
G75*
G03*
X112883269Y-31505615I500000J0D01*
G01*
X-25005615Y-5648467D02*
G75*
G03*
X-24505615Y-6148467I500001J1D01*
G01*
D11*
X196244385Y55494385D02*
G75*
G03*
X196244385Y55494385I-500000J0D01*
G01*
D10*
X198494385Y80851485D02*
G75*
G03*
X198994385Y81351530I0J500000D01*
G01*
X198994385Y129065814D02*
X198994385Y118637243D01*
X63105493Y-31505615D02*
X73549937Y-31505615D01*
X23772161Y-31505591D02*
G75*
G03*
X24272161Y-31005615I24J499976D01*
G01*
X25272185Y-31005615D02*
G75*
G03*
X25772161Y-31505615I500000J0D01*
G01*
X-25005615Y42065817D02*
X-25005615Y31637246D01*
X-13561171Y-31505619D02*
G75*
G03*
X-13061171Y-31005615I-4J500004D01*
G01*
X74049985Y141994385D02*
G75*
G03*
X73549937Y142494385I-500000J0D01*
G01*
X112883269Y142494385D02*
X123327713Y142494385D01*
X25772161Y142494409D02*
G75*
G03*
X25272161Y141994385I24J-500024D01*
G01*
X198994385Y141494385D02*
X198994385Y131065814D01*
X-25005615Y118637243D02*
G75*
G03*
X-24505615Y118137243I500001J1D01*
G01*
X-25005615Y17208675D02*
X-25005615Y6780104D01*
X-25005615Y141494385D02*
X-25005615Y131065814D01*
X198494385Y118137285D02*
G75*
G03*
X198994385Y118637243I0J500000D01*
G01*
X-13061175Y141994385D02*
G75*
G03*
X-13561171Y142494385I-500000J0D01*
G01*
X149716585Y-31005615D02*
G75*
G03*
X150216601Y-31505615I500000J0D01*
G01*
X137772157Y142494385D02*
X148216601Y142494385D01*
X198994343Y116637243D02*
G75*
G03*
X198494385Y117137243I-499958J42D01*
G01*
X50661049Y142494385D02*
X61105493Y142494385D01*
D11*
X196244385Y97369385D02*
G75*
G03*
X196244385Y97369385I-500000J0D01*
G01*
D10*
X137772157Y142494413D02*
G75*
G03*
X137272157Y141994385I28J-500028D01*
G01*
X150216601Y-31505615D02*
X160661045Y-31505615D01*
X-25005615Y79351530D02*
X-25005615Y68922959D01*
X-25005615Y56494388D02*
G75*
G03*
X-24505615Y55994388I500001J1D01*
G01*
X198994385Y42065817D02*
X198994385Y31637246D01*
X198994359Y66922959D02*
G75*
G03*
X198494385Y67422959I-499974J26D01*
G01*
X148716585Y141994385D02*
G75*
G03*
X148216601Y142494385I-500000J0D01*
G01*
X63105493Y142494385D02*
X73549937Y142494385D01*
X11827685Y141994385D02*
G75*
G03*
X11327717Y142494385I-500000J0D01*
G01*
X174605485Y-31005615D02*
G75*
G03*
X175105489Y-31505615I500000J0D01*
G01*
X123327713Y-31505643D02*
G75*
G03*
X123827713Y-31005615I-28J500028D01*
G01*
X198494385Y55994385D02*
G75*
G03*
X198994385Y56494388I0J500000D01*
G01*
X-25005615Y104208672D02*
X-25005615Y93780101D01*
X112883269Y142494401D02*
G75*
G03*
X112383269Y141994385I16J-500016D01*
G01*
X36216605Y-31505635D02*
G75*
G03*
X36716605Y-31005615I-20J500020D01*
G01*
X50161085Y-31005615D02*
G75*
G03*
X50661049Y-31505615I500000J0D01*
G01*
X-25005615Y93780101D02*
G75*
G03*
X-24505615Y93280101I500001J1D01*
G01*
X150216601Y142494369D02*
G75*
G03*
X149716601Y141994385I-16J-499984D01*
G01*
X175105489Y142494385D02*
X185549933Y142494385D01*
X198994385Y29637246D02*
X198994385Y19208675D01*
X162161085Y-31005615D02*
G75*
G03*
X162661045Y-31505615I500000J0D01*
G01*
X198494385Y105708685D02*
G75*
G03*
X198994385Y106208672I0J500000D01*
G01*
X-25005615Y68922959D02*
G75*
G03*
X-24505615Y68422959I500001J1D01*
G01*
X198494385Y68422985D02*
G75*
G03*
X198994385Y68922959I0J500000D01*
G01*
X-25005615Y131065814D02*
G75*
G03*
X-24505615Y130565814I500001J1D01*
G01*
X-24005615Y-31505615D02*
X-13561171Y-31505615D01*
X-24505615Y104708672D02*
G75*
G03*
X-25005615Y104208672I1J-500001D01*
G01*
X87994381Y-31505615D02*
X98438825Y-31505615D01*
X162661045Y142494425D02*
G75*
G03*
X162161045Y141994385I40J-500040D01*
G01*
X148216601Y-31505631D02*
G75*
G03*
X148716601Y-31005615I-16J500016D01*
G01*
D12*
X-21230615Y-28255615D02*
G75*
G03*
X-21230615Y-28255615I-525000J0D01*
G01*
D10*
X-24505615Y129565814D02*
G75*
G03*
X-25005615Y129065814I1J-500001D01*
G01*
X-25005615Y4780104D02*
X-25005615Y-5648467D01*
X175105489Y-31505615D02*
X185549933Y-31505615D01*
X198994385Y-20077038D02*
X198994385Y-30505609D01*
X198494385Y-6148515D02*
G75*
G03*
X198994385Y-5648467I0J500000D01*
G01*
X-25005615Y19208675D02*
G75*
G03*
X-24505615Y18708675I500001J1D01*
G01*
X198994385Y17208675D02*
X198994385Y6780104D01*
X-1116727Y-31505603D02*
G75*
G03*
X-616727Y-31005615I12J499988D01*
G01*
D11*
X33119385Y139244385D02*
G75*
G03*
X33119385Y139244385I-500000J0D01*
G01*
D10*
X98938785Y141994385D02*
G75*
G03*
X98438825Y142494385I-500000J0D01*
G01*
X-24505615Y-19577038D02*
G75*
G03*
X-25005615Y-20077038I1J-500001D01*
G01*
X198994385Y66922959D02*
X198994385Y56494388D01*
X-25005615Y6780104D02*
G75*
G03*
X-24505615Y6280104I500001J1D01*
G01*
X-25005615Y54494388D02*
X-25005615Y44065817D01*
X-24505615Y92280101D02*
G75*
G03*
X-25005615Y91780101I1J-500001D01*
G01*
X61605485Y141994385D02*
G75*
G03*
X61105493Y142494385I-500000J0D01*
G01*
X186049885Y141994385D02*
G75*
G03*
X185549933Y142494385I-500000J0D01*
G01*
X-25005615Y81351530D02*
G75*
G03*
X-24505615Y80851530I500001J1D01*
G01*
X-25005615Y91780101D02*
X-25005615Y81351530D01*
X63105493Y142494377D02*
G75*
G03*
X62605493Y141994385I-8J-499992D01*
G01*
D11*
X87494385Y139244385D02*
G75*
G03*
X87494385Y139244385I-500000J0D01*
G01*
D10*
X38216605Y-31505615D02*
X48661049Y-31505615D01*
X25772161Y-31505615D02*
X36216605Y-31505615D01*
X112883269Y-31505615D02*
X123327713Y-31505615D01*
X-11561171Y-31505615D02*
X-1116727Y-31505615D01*
X-24505615Y42565817D02*
G75*
G03*
X-25005615Y42065817I1J-500001D01*
G01*
X198994385Y141494385D02*
G75*
G03*
X197994385Y142494385I-1000000J0D01*
G01*
X162661045Y142494385D02*
X173105489Y142494385D01*
X-25005615Y129065814D02*
X-25005615Y118637243D01*
X198494385Y130565785D02*
G75*
G03*
X198994385Y131065814I0J500000D01*
G01*
X-24505615Y79851530D02*
G75*
G03*
X-25005615Y79351530I1J-500001D01*
G01*
X173605485Y141994385D02*
G75*
G03*
X173105489Y142494385I-500000J0D01*
G01*
X198994372Y104208672D02*
G75*
G03*
X198494385Y104708672I-499987J13D01*
G01*
X100438825Y142494385D02*
X110883269Y142494385D01*
X-11561171Y142494385D02*
X-1116727Y142494385D01*
X198994385Y79351530D02*
X198994385Y68922959D01*
X73549937Y-31505567D02*
G75*
G03*
X74049937Y-31005615I48J499952D01*
G01*
X198994414Y129065814D02*
G75*
G03*
X198494385Y129565814I-500029J-29D01*
G01*
X75549937Y-31505615D02*
X85994381Y-31505615D01*
X124827685Y-31005615D02*
G75*
G03*
X125327713Y-31505615I500000J0D01*
G01*
D12*
X-21230615Y139244385D02*
G75*
G03*
X-21230615Y139244385I-525000J0D01*
G01*
D11*
X141869385Y-28255615D02*
G75*
G03*
X141869385Y-28255615I-500000J0D01*
G01*
D10*
X38216605Y142494385D02*
X48661049Y142494385D01*
D11*
X196244385Y13619385D02*
G75*
G03*
X196244385Y13619385I-500000J0D01*
G01*
D10*
X123827685Y141994385D02*
G75*
G03*
X123327713Y142494385I-500000J0D01*
G01*
X-24505615Y30137246D02*
G75*
G03*
X-25005615Y29637246I1J-500001D01*
G01*
X36716585Y141994385D02*
G75*
G03*
X36216605Y142494385I-500000J0D01*
G01*
X883273Y-31505615D02*
X11327717Y-31505615D01*
X24272185Y141994385D02*
G75*
G03*
X23772161Y142494385I-500000J0D01*
G01*
X-24005615Y142494385D02*
X-13561171Y142494385D01*
X62605485Y-31005615D02*
G75*
G03*
X63105493Y-31505615I500000J0D01*
G01*
X198994401Y91780101D02*
G75*
G03*
X198494385Y92280101I-500016J-16D01*
G01*
X-25005615Y-30505615D02*
G75*
G03*
X-24005615Y-31505615I999999J-1D01*
G01*
D12*
X196269385Y139244385D02*
G75*
G03*
X196269385Y139244385I-525000J0D01*
G01*
D10*
X98438825Y-31505655D02*
G75*
G03*
X98938825Y-31005615I-40J500040D01*
G01*
X-25005615Y31637246D02*
G75*
G03*
X-24505615Y31137246I500001J1D01*
G01*
X13327717Y142494385D02*
X23772161Y142494385D01*
X-12061165Y-31005615D02*
G75*
G03*
X-11561171Y-31505615I500000J0D01*
G01*
X-24505615Y17708675D02*
G75*
G03*
X-25005615Y17208675I1J-500001D01*
G01*
X187549933Y142494337D02*
G75*
G03*
X187049933Y141994385I-48J-499952D01*
G01*
X198494385Y6280085D02*
G75*
G03*
X198994385Y6780104I0J500000D01*
G01*
X87994381Y142494389D02*
G75*
G03*
X87494381Y141994385I4J-500004D01*
G01*
X197994385Y-31505615D02*
G75*
G03*
X198994385Y-30505615I0J1000000D01*
G01*
D12*
X196269385Y-28255615D02*
G75*
G03*
X196269385Y-28255615I-525000J0D01*
G01*
D10*
X100438825Y142494345D02*
G75*
G03*
X99938825Y141994385I-40J-499960D01*
G01*
X137772157Y-31505615D02*
X148216601Y-31505615D01*
X198994362Y-20077038D02*
G75*
G03*
X198494385Y-19577038I-499977J23D01*
G01*
X75549937Y142494433D02*
G75*
G03*
X75049937Y141994385I48J-500048D01*
G01*
X86494385Y141994385D02*
G75*
G03*
X85994381Y142494385I-500000J0D01*
G01*
X198994430Y79351530D02*
G75*
G03*
X198494385Y79851530I-500045J-45D01*
G01*
X-25005615Y29637246D02*
X-25005615Y19208675D01*
X198494385Y18708685D02*
G75*
G03*
X198994385Y19208675I0J500000D01*
G01*
X160661045Y-31505575D02*
G75*
G03*
X161161045Y-31005615I40J499960D01*
G01*
X150216601Y142494385D02*
X160661045Y142494385D01*
X50661049Y142494421D02*
G75*
G03*
X50161049Y141994385I36J-500036D01*
G01*
X-24505615Y-7148467D02*
G75*
G03*
X-25005615Y-7648467I1J-500001D01*
G01*
X-25005615Y-18077038D02*
G75*
G03*
X-24505615Y-18577038I500001J1D01*
G01*
X-24505615Y117137243D02*
G75*
G03*
X-25005615Y116637243I1J-500001D01*
G01*
D11*
X-21255615Y55494385D02*
G75*
G03*
X-21255615Y55494385I-500000J0D01*
G01*
D10*
X135772157Y-31505587D02*
G75*
G03*
X136272157Y-31005615I28J499972D01*
G01*
D11*
X-21255615Y13619385D02*
G75*
G03*
X-21255615Y13619385I-500000J0D01*
G01*
D10*
X100438825Y-31505615D02*
X110883269Y-31505615D01*
X187549933Y-31505615D02*
X197994377Y-31505615D01*
X125327713Y-31505615D02*
X135772157Y-31505615D01*
X49161085Y141994385D02*
G75*
G03*
X48661049Y142494385I-500000J0D01*
G01*
X87994381Y142494385D02*
X98438825Y142494385D01*
D11*
X-21255615Y97369385D02*
G75*
G03*
X-21255615Y97369385I-500000J0D01*
G01*
D10*
X87494385Y-31005615D02*
G75*
G03*
X87994381Y-31505615I500000J0D01*
G01*
X161161085Y141994385D02*
G75*
G03*
X160661045Y142494385I-500000J0D01*
G01*
X-25005615Y106208672D02*
G75*
G03*
X-24505615Y105708672I500001J1D01*
G01*
X198494385Y-18577015D02*
G75*
G03*
X198994385Y-18077038I0J500000D01*
G01*
X110883269Y-31505599D02*
G75*
G03*
X111383269Y-31005615I16J499984D01*
G01*
X198994433Y-7648467D02*
G75*
G03*
X198494385Y-7148467I-500048J-48D01*
G01*
X-24005615Y142494385D02*
G75*
G03*
X-25005615Y141494385I-1J-999999D01*
G01*
X-25005615Y-7648467D02*
X-25005615Y-18077038D01*
X-25005615Y66922959D02*
X-25005615Y56494388D01*
X25772161Y142494385D02*
X36216605Y142494385D01*
X48661049Y-31505579D02*
G75*
G03*
X49161049Y-31005615I36J499964D01*
G01*
X198994385Y116637243D02*
X198994385Y106208672D01*
X-25005615Y116637243D02*
X-25005615Y106208672D01*
X198994375Y17208675D02*
G75*
G03*
X198494385Y17708675I-499990J10D01*
G01*
X-24505615Y67422959D02*
G75*
G03*
X-25005615Y66922959I1J-500001D01*
G01*
X-616715Y141994385D02*
G75*
G03*
X-1116727Y142494385I-500000J0D01*
G01*
X11327717Y-31505647D02*
G75*
G03*
X11827717Y-31005615I-32J500032D01*
G01*
X37716585Y-31005615D02*
G75*
G03*
X38216605Y-31505615I500000J0D01*
G01*
X198494385Y43565785D02*
G75*
G03*
X198994385Y44065817I0J500000D01*
G01*
X187049885Y-31005615D02*
G75*
G03*
X187549933Y-31505615I500000J0D01*
G01*
X136272185Y141994385D02*
G75*
G03*
X135772157Y142494385I-500000J0D01*
G01*
X198994385Y104208672D02*
X198994385Y93780101D01*
X198494385Y31137285D02*
G75*
G03*
X198994385Y31637246I0J500000D01*
G01*
X198994388Y54494388D02*
G75*
G03*
X198494385Y54994388I-500003J-3D01*
G01*
X-24505615Y54994388D02*
G75*
G03*
X-25005615Y54494388I1J-500001D01*
G01*
X198994385Y4780104D02*
X198994385Y-5648467D01*
X883273Y142494385D02*
X11327717Y142494385D01*
X185549933Y-31505663D02*
G75*
G03*
X186049933Y-31005615I-48J500048D01*
G01*
D13*
G04 #@! TO.C,C22*
X123444385Y86744385D03*
X125344385Y86744385D03*
G04 #@! TD*
G04 #@! TO.C,C20*
X96794385Y86744385D03*
X98694385Y86744385D03*
G04 #@! TD*
D14*
G04 #@! TO.C,R7*
X79221885Y86534385D03*
X81046885Y86534385D03*
G04 #@! TD*
D15*
G04 #@! TO.C,C10*
X81434385Y90194385D03*
X81434385Y92094385D03*
G04 #@! TD*
D16*
G04 #@! TO.C,R12*
X139106885Y73594385D03*
X137281885Y73594385D03*
G04 #@! TD*
D17*
G04 #@! TO.C,D5*
X121894385Y76044385D03*
X121894385Y72044385D03*
G04 #@! TD*
D14*
G04 #@! TO.C,R10*
X76019385Y75144385D03*
X77844385Y75144385D03*
G04 #@! TD*
D18*
G04 #@! TO.C,U6*
X140599385Y84169385D03*
X139329385Y84169385D03*
X138059385Y84169385D03*
X136789385Y84169385D03*
X136789385Y79219385D03*
X138059385Y79219385D03*
X139329385Y79219385D03*
X140599385Y79219385D03*
G04 #@! TD*
D19*
G04 #@! TO.C,C25*
X142494385Y81544385D03*
X142494385Y79644385D03*
G04 #@! TD*
D20*
G04 #@! TO.C,U5*
X118794385Y71844385D03*
X118794385Y74144385D03*
D21*
X112494385Y74144385D03*
D20*
X118794385Y76444385D03*
G04 #@! TD*
D22*
G04 #@! TO.C,H9*
X11994385Y11994385D03*
G04 #@! TD*
D23*
G04 #@! TO.C,C19*
X115034385Y78774385D03*
X113134385Y78774385D03*
G04 #@! TD*
D14*
G04 #@! TO.C,R9*
X79221885Y84634385D03*
X81046885Y84634385D03*
G04 #@! TD*
D23*
G04 #@! TO.C,C14*
X77831885Y77144385D03*
X75931885Y77144385D03*
G04 #@! TD*
G04 #@! TO.C,C4*
X138231885Y106494385D03*
X136331885Y106494385D03*
G04 #@! TD*
D24*
G04 #@! TO.C,D4*
X101944385Y81394385D03*
X101944385Y84594385D03*
X97044385Y84594385D03*
X97044385Y81394385D03*
G04 #@! TD*
D19*
G04 #@! TO.C,C26*
X139594385Y71744385D03*
X139594385Y69844385D03*
G04 #@! TD*
D22*
G04 #@! TO.C,H6*
X86994385Y63994385D03*
G04 #@! TD*
D25*
G04 #@! TO.C,R13*
X134594385Y71681885D03*
X134594385Y73506885D03*
G04 #@! TD*
D22*
G04 #@! TO.C,H5*
X11994385Y63994385D03*
G04 #@! TD*
D14*
G04 #@! TO.C,R8*
X76019385Y79144385D03*
X77844385Y79144385D03*
G04 #@! TD*
D24*
G04 #@! TO.C,D7*
X126944385Y81394385D03*
X126944385Y84594385D03*
X122044385Y84594385D03*
X122044385Y81394385D03*
G04 #@! TD*
D13*
G04 #@! TO.C,C30*
X135444385Y86594385D03*
X137344385Y86594385D03*
G04 #@! TD*
D19*
G04 #@! TO.C,C31*
X149894385Y75744385D03*
X149894385Y73844385D03*
G04 #@! TD*
D26*
G04 #@! TO.C,SW4*
X79994385Y66494385D03*
X93994385Y66494385D03*
X79994385Y61494385D03*
X93994385Y61494385D03*
G04 #@! TD*
D16*
G04 #@! TO.C,R6*
X59731885Y83344385D03*
X57906885Y83344385D03*
G04 #@! TD*
D23*
G04 #@! TO.C,C1*
X31044385Y104894385D03*
X29144385Y104894385D03*
G04 #@! TD*
D19*
G04 #@! TO.C,C5*
X45044385Y84994385D03*
X45044385Y83094385D03*
G04 #@! TD*
D23*
G04 #@! TO.C,C29*
X141444385Y86594385D03*
X139544385Y86594385D03*
G04 #@! TD*
D27*
G04 #@! TO.C,L5*
X145194385Y77014385D03*
X145194385Y72974385D03*
G04 #@! TD*
D24*
G04 #@! TO.C,D3*
X76944385Y81394385D03*
X76944385Y84594385D03*
X72044385Y84594385D03*
X72044385Y81394385D03*
G04 #@! TD*
D22*
G04 #@! TO.C,H8*
X161994385Y63994385D03*
G04 #@! TD*
D15*
G04 #@! TO.C,C17*
X77134385Y86794385D03*
X77134385Y88694385D03*
G04 #@! TD*
D28*
G04 #@! TO.C,R3*
X22994385Y103306885D03*
X22994385Y101481885D03*
G04 #@! TD*
D24*
G04 #@! TO.C,D2*
X51944385Y81394385D03*
X51944385Y84594385D03*
X47044385Y84594385D03*
X47044385Y81394385D03*
G04 #@! TD*
D19*
G04 #@! TO.C,C6*
X69994385Y84994385D03*
X69994385Y83094385D03*
G04 #@! TD*
G04 #@! TO.C,C9*
X85444385Y79244385D03*
X85444385Y77344385D03*
G04 #@! TD*
D29*
G04 #@! TO.C,Q1*
X141219385Y100234385D03*
D30*
X143759385Y100234385D03*
D31*
X141854385Y105434385D03*
G04 #@! TD*
D14*
G04 #@! TO.C,R11*
X97781885Y78494385D03*
X99606885Y78494385D03*
G04 #@! TD*
D22*
G04 #@! TO.C,H10*
X86994385Y11994385D03*
G04 #@! TD*
D26*
G04 #@! TO.C,SW3*
X4994385Y66494385D03*
X18994385Y66494385D03*
X4994385Y61494385D03*
X18994385Y61494385D03*
G04 #@! TD*
D23*
G04 #@! TO.C,C2*
X138231885Y104394385D03*
X136331885Y104394385D03*
G04 #@! TD*
D32*
G04 #@! TO.C,U1*
X28644385Y99864385D03*
X28644385Y98594385D03*
X28644385Y97324385D03*
X38144385Y97324385D03*
X38144385Y98594385D03*
X38144385Y99864385D03*
G04 #@! TD*
D16*
G04 #@! TO.C,R1*
X38806885Y95381885D03*
X36981885Y95381885D03*
G04 #@! TD*
D14*
G04 #@! TO.C,R16*
X30631885Y59044385D03*
X32456885Y59044385D03*
G04 #@! TD*
D33*
G04 #@! TO.C,C3*
X139561885Y92994385D03*
X147561885Y92994385D03*
G04 #@! TD*
D34*
G04 #@! TO.C,U4*
X88756885Y84756885D03*
X90031885Y84756885D03*
X88756885Y86031885D03*
X90031885Y86031885D03*
D35*
X86794385Y81956885D03*
X87194385Y81956885D03*
X87594385Y81956885D03*
X87994385Y81956885D03*
X88394385Y81956885D03*
X88794385Y81956885D03*
X89194385Y81956885D03*
X89594385Y81956885D03*
X89994385Y81956885D03*
X90394385Y81956885D03*
X90794385Y81956885D03*
X91194385Y81956885D03*
X91594385Y81956885D03*
X91994385Y81956885D03*
D36*
X92831885Y82794385D03*
X92831885Y83194385D03*
X92831885Y83594385D03*
X92831885Y83994385D03*
X92831885Y84394385D03*
X92831885Y84794385D03*
X92831885Y85194385D03*
X92831885Y85594385D03*
X92831885Y85994385D03*
X92831885Y86394385D03*
X92831885Y86794385D03*
X92831885Y87194385D03*
X92831885Y87594385D03*
X92831885Y87994385D03*
D35*
X91994385Y88831885D03*
X91594385Y88831885D03*
X91194385Y88831885D03*
X90794385Y88831885D03*
X90394385Y88831885D03*
X89994385Y88831885D03*
X89594385Y88831885D03*
X89194385Y88831885D03*
X88794385Y88831885D03*
X88394385Y88831885D03*
X87994385Y88831885D03*
X87594385Y88831885D03*
X87194385Y88831885D03*
X86794385Y88831885D03*
D36*
X85956885Y87994385D03*
X85956885Y87594385D03*
X85956885Y87194385D03*
X85956885Y86794385D03*
X85956885Y86394385D03*
X85956885Y85994385D03*
X85956885Y85594385D03*
X85956885Y85194385D03*
X85956885Y84794385D03*
X85956885Y84394385D03*
X85956885Y83994385D03*
X85956885Y83594385D03*
X85956885Y83194385D03*
X85956885Y82794385D03*
G04 #@! TD*
D37*
G04 #@! TO.C,D10*
X32431885Y62994385D03*
X30556885Y62994385D03*
G04 #@! TD*
D13*
G04 #@! TO.C,C28*
X122044385Y78544385D03*
X123944385Y78544385D03*
G04 #@! TD*
D17*
G04 #@! TO.C,D8*
X125424385Y76044385D03*
X125424385Y72044385D03*
G04 #@! TD*
D13*
G04 #@! TO.C,C15*
X89494385Y92044385D03*
X91394385Y92044385D03*
G04 #@! TD*
D14*
G04 #@! TO.C,R2*
X36981885Y93444385D03*
X38806885Y93444385D03*
G04 #@! TD*
D38*
G04 #@! TO.C,L4*
X24694385Y101706885D03*
X24694385Y103281885D03*
G04 #@! TD*
D39*
G04 #@! TO.C,D1*
X26594385Y99994385D03*
X26594385Y97194385D03*
G04 #@! TD*
D40*
G04 #@! TO.C,D6*
X145394385Y80394385D03*
X145394385Y84394385D03*
G04 #@! TD*
D13*
G04 #@! TO.C,C21*
X100194385Y86794385D03*
X102094385Y86794385D03*
G04 #@! TD*
D23*
G04 #@! TO.C,C8*
X85134385Y92454385D03*
X83234385Y92454385D03*
G04 #@! TD*
D19*
G04 #@! TO.C,C27*
X137594385Y71744385D03*
X137594385Y69844385D03*
G04 #@! TD*
D14*
G04 #@! TO.C,R4*
X152181885Y100164385D03*
X154006885Y100164385D03*
G04 #@! TD*
D41*
G04 #@! TO.C,L1*
X24694385Y100031885D03*
X24694385Y98456885D03*
G04 #@! TD*
D23*
G04 #@! TO.C,C7*
X96144385Y78494385D03*
X94244385Y78494385D03*
G04 #@! TD*
D42*
G04 #@! TO.C,F1*
X150201885Y103284385D03*
X145926885Y103284385D03*
G04 #@! TD*
D25*
G04 #@! TO.C,R14*
X134894385Y76581885D03*
X134894385Y78406885D03*
G04 #@! TD*
D43*
G04 #@! TO.C,Y1*
X95494385Y74894385D03*
X104494385Y74894385D03*
G04 #@! TD*
D26*
G04 #@! TO.C,SW8*
X154994385Y14494385D03*
X168994385Y14494385D03*
X154994385Y9494385D03*
X168994385Y9494385D03*
G04 #@! TD*
D44*
G04 #@! TO.C,U3*
X79589385Y74944385D03*
X80859385Y74944385D03*
X82129385Y74944385D03*
X83399385Y74944385D03*
X83399385Y82144385D03*
X82129385Y82144385D03*
X80859385Y82144385D03*
X79589385Y82144385D03*
G04 #@! TD*
D22*
G04 #@! TO.C,H13*
X161994385Y11994385D03*
G04 #@! TD*
D45*
G04 #@! TO.C,CM1*
X72994385Y36194385D03*
X69914385Y36194385D03*
X72994385Y36594385D03*
X69914385Y36594385D03*
X72994385Y36994385D03*
X69914385Y36994385D03*
X72994385Y37394385D03*
X69914385Y37394385D03*
X72994385Y37794385D03*
X69914385Y37794385D03*
X72994385Y38194385D03*
X69914385Y38194385D03*
X72994385Y38594385D03*
X69914385Y38594385D03*
X72994385Y38994385D03*
X69914385Y38994385D03*
X72994385Y39394385D03*
X69914385Y39394385D03*
X72994385Y39794385D03*
X69914385Y39794385D03*
X72994385Y40194385D03*
X69914385Y40194385D03*
X72994385Y40594385D03*
X69914385Y40594385D03*
X72994385Y40994385D03*
X69914385Y40994385D03*
X72994385Y41394385D03*
X69914385Y41394385D03*
X72994385Y41794385D03*
X69914385Y41794385D03*
X72994385Y42194385D03*
X69914385Y42194385D03*
X72994385Y42594385D03*
X69914385Y42594385D03*
X72994385Y42994385D03*
X69914385Y42994385D03*
X72994385Y43394385D03*
X69914385Y43394385D03*
X72994385Y43794385D03*
X69914385Y43794385D03*
X72994385Y44194385D03*
X69914385Y44194385D03*
X72994385Y44594385D03*
X69914385Y44594385D03*
X72994385Y44994385D03*
X69914385Y44994385D03*
X72994385Y45394385D03*
X69914385Y45394385D03*
X72994385Y45794385D03*
X69914385Y45794385D03*
X72994385Y46194385D03*
X69914385Y46194385D03*
X72994385Y46594385D03*
X69914385Y46594385D03*
X72994385Y46994385D03*
X69914385Y46994385D03*
X72994385Y47394385D03*
X69914385Y47394385D03*
X72994385Y47794385D03*
X69914385Y47794385D03*
X72994385Y48194385D03*
X69914385Y48194385D03*
X72994385Y48594385D03*
X69914385Y48594385D03*
X72994385Y48994385D03*
X69914385Y48994385D03*
X72994385Y49394385D03*
X69914385Y49394385D03*
X72994385Y49794385D03*
X69914385Y49794385D03*
X72994385Y50194385D03*
X69914385Y50194385D03*
X72994385Y50594385D03*
X69914385Y50594385D03*
X72994385Y50994385D03*
X69914385Y50994385D03*
X72994385Y51394385D03*
X69914385Y51394385D03*
X72994385Y51794385D03*
X69914385Y51794385D03*
X72994385Y52194385D03*
X69914385Y52194385D03*
X72994385Y52594385D03*
X69914385Y52594385D03*
X72994385Y52994385D03*
X69914385Y52994385D03*
X72994385Y53394385D03*
X69914385Y53394385D03*
X72994385Y53794385D03*
X69914385Y53794385D03*
X72994385Y54194385D03*
X69914385Y54194385D03*
X72994385Y54594385D03*
X69914385Y54594385D03*
X72994385Y54994385D03*
X69914385Y54994385D03*
X72994385Y55394385D03*
X69914385Y55394385D03*
X72994385Y55794385D03*
X69914385Y55794385D03*
X39074385Y36194385D03*
X35994385Y36194385D03*
X39074385Y36594385D03*
X35994385Y36594385D03*
X39074385Y36994385D03*
X35994385Y36994385D03*
X39074385Y37394385D03*
X35994385Y37394385D03*
X39074385Y37794385D03*
X35994385Y37794385D03*
X39074385Y38194385D03*
X35994385Y38194385D03*
X39074385Y38594385D03*
X35994385Y38594385D03*
X39074385Y38994385D03*
X35994385Y38994385D03*
X39074385Y39394385D03*
X35994385Y39394385D03*
X39074385Y39794385D03*
X35994385Y39794385D03*
X39074385Y40194385D03*
X35994385Y40194385D03*
X39074385Y40594385D03*
X35994385Y40594385D03*
X39074385Y40994385D03*
X35994385Y40994385D03*
X39074385Y41394385D03*
X35994385Y41394385D03*
X39074385Y41794385D03*
X35994385Y41794385D03*
X39074385Y42194385D03*
X35994385Y42194385D03*
X39074385Y42594385D03*
X35994385Y42594385D03*
X39074385Y42994385D03*
X35994385Y42994385D03*
X39074385Y43394385D03*
X35994385Y43394385D03*
X39074385Y43794385D03*
X35994385Y43794385D03*
X39074385Y44194385D03*
X35994385Y44194385D03*
X39074385Y44594385D03*
X35994385Y44594385D03*
X39074385Y44994385D03*
X35994385Y44994385D03*
X39074385Y45394385D03*
X35994385Y45394385D03*
X39074385Y45794385D03*
X35994385Y45794385D03*
X39074385Y46194385D03*
X35994385Y46194385D03*
X39074385Y46594385D03*
X35994385Y46594385D03*
X39074385Y46994385D03*
X35994385Y46994385D03*
X39074385Y47394385D03*
X35994385Y47394385D03*
X39074385Y47794385D03*
X35994385Y47794385D03*
X39074385Y48194385D03*
X35994385Y48194385D03*
X39074385Y48594385D03*
X35994385Y48594385D03*
X39074385Y48994385D03*
X35994385Y48994385D03*
X39074385Y49394385D03*
X35994385Y49394385D03*
X39074385Y49794385D03*
X35994385Y49794385D03*
X39074385Y50194385D03*
X35994385Y50194385D03*
X39074385Y50594385D03*
X35994385Y50594385D03*
X39074385Y50994385D03*
X35994385Y50994385D03*
X39074385Y51394385D03*
X35994385Y51394385D03*
X39074385Y51794385D03*
X35994385Y51794385D03*
X39074385Y52194385D03*
X35994385Y52194385D03*
X39074385Y52594385D03*
X35994385Y52594385D03*
X39074385Y52994385D03*
X35994385Y52994385D03*
X39074385Y53394385D03*
X35994385Y53394385D03*
X39074385Y53794385D03*
X35994385Y53794385D03*
X39074385Y54194385D03*
X35994385Y54194385D03*
X39074385Y54594385D03*
X35994385Y54594385D03*
X39074385Y54994385D03*
X35994385Y54994385D03*
X39074385Y55394385D03*
X35994385Y55394385D03*
X39074385Y55794385D03*
X35994385Y55794385D03*
G04 #@! TD*
D26*
G04 #@! TO.C,SW5*
X154994385Y66494385D03*
X168994385Y66494385D03*
X154994385Y61494385D03*
X168994385Y61494385D03*
G04 #@! TD*
G04 #@! TO.C,SW6*
X4994385Y14494385D03*
X18994385Y14494385D03*
X4994385Y9494385D03*
X18994385Y9494385D03*
G04 #@! TD*
D19*
G04 #@! TO.C,C32*
X151894385Y75744385D03*
X151894385Y73844385D03*
G04 #@! TD*
D14*
G04 #@! TO.C,R15*
X30581885Y64894385D03*
X32406885Y64894385D03*
G04 #@! TD*
D19*
G04 #@! TO.C,C11*
X95044385Y84244385D03*
X95044385Y82344385D03*
G04 #@! TD*
D37*
G04 #@! TO.C,D9*
X32431885Y60994385D03*
X30556885Y60994385D03*
G04 #@! TD*
D23*
G04 #@! TO.C,C12*
X85144385Y90494385D03*
X83244385Y90494385D03*
G04 #@! TD*
D46*
G04 #@! TO.C,L3*
X33906885Y93444385D03*
X35481885Y93444385D03*
G04 #@! TD*
D16*
G04 #@! TO.C,R5*
X35966885Y91134385D03*
X34141885Y91134385D03*
G04 #@! TD*
D47*
G04 #@! TO.C,U2*
X56144385Y83394385D03*
X56144385Y84044385D03*
X56144385Y84694385D03*
X54244385Y84694385D03*
X54244385Y83394385D03*
G04 #@! TD*
D26*
G04 #@! TO.C,SW7*
X79994385Y14494385D03*
X93994385Y14494385D03*
X79994385Y9494385D03*
X93994385Y9494385D03*
G04 #@! TD*
D48*
G04 #@! TO.C,U7*
X32044385Y68443785D03*
X31394385Y68443785D03*
X30744385Y68443785D03*
X30744385Y66543785D03*
X32044385Y66543785D03*
G04 #@! TD*
D19*
G04 #@! TO.C,C16*
X90634385Y79144385D03*
X90634385Y77244385D03*
G04 #@! TD*
D13*
G04 #@! TO.C,C18*
X101144385Y78494385D03*
X103044385Y78494385D03*
G04 #@! TD*
D15*
G04 #@! TO.C,C24*
X139338135Y75300635D03*
X139338135Y77200635D03*
G04 #@! TD*
D23*
G04 #@! TO.C,C13*
X83674385Y88464385D03*
X81774385Y88464385D03*
G04 #@! TD*
D46*
G04 #@! TO.C,L2*
X33906885Y95331885D03*
X35481885Y95331885D03*
G04 #@! TD*
D15*
G04 #@! TO.C,C23*
X137238135Y75300635D03*
X137238135Y77200635D03*
G04 #@! TD*
M02*
