<?xml version="1.0" standalone="no"?>
 <!DOCTYPE svg PUBLIC "-//W3C//DTD SVG 1.1//EN" 
 "http://www.w3.org/Graphics/SVG/1.1/DTD/svg11.dtd"> 
<svg
  xmlns:svg="http://www.w3.org/2000/svg"
  xmlns="http://www.w3.org/2000/svg"
  xmlns:xlink="http://www.w3.org/1999/xlink"
  version="1.1"
  width="297.0022mm" height="210.0072mm" viewBox="0.0000 0.0000 297.0022 210.0072">
<title>SVG Image created as pedalboard-hw-User_Comments.svg date 2023/10/10 06:34:19 </title>
  <desc>Image generated by PCBNEW </desc>
<g style="fill:#000000; fill-opacity:1.0000;stroke:#000000; stroke-opacity:1.0000;
stroke-linecap:round; stroke-linejoin:round;"
 transform="translate(0 0) scale(1 1)">
</g>
<g style="fill:#000000; fill-opacity:0.0; 
stroke:#000000; stroke-width:0.0000; stroke-opacity:1; 
stroke-linecap:round; stroke-linejoin:round;">
</g>
<g style="fill:#000000; fill-opacity:0.0; 
stroke:#000000; stroke-width:0.1500; stroke-opacity:1; 
stroke-linecap:round; stroke-linejoin:round;">
<g transform="rotate(-45.000000 79.7260 36.5460)">
<text x="79.7260" y="36.9460"
textLength="3.4138" font-size="1.0667" lengthAdjust="spacingAndGlyphs"
text-anchor="middle" opacity="0">GP16</text>
</g>
<g class="stroked-text"><desc>GP16</desc>
<path d="M78.7700 36.9369
L78.6892 36.9638
" />
<path d="M78.6892 36.9638
L78.6084 37.0446
" />
<path d="M78.6084 37.0446
L78.5545 37.1524
" />
<path d="M78.5545 37.1524
L78.5545 37.2601
" />
<path d="M78.5545 37.2601
L78.5814 37.3409
" />
<path d="M78.5814 37.3409
L78.6622 37.4756
" />
<path d="M78.6622 37.4756
L78.7431 37.5564
" />
<path d="M78.7431 37.5564
L78.8777 37.6372
" />
<path d="M78.8777 37.6372
L78.9586 37.6642
" />
<path d="M78.9586 37.6642
L79.0663 37.6642
" />
<path d="M79.0663 37.6642
L79.1741 37.6103
" />
<path d="M79.1741 37.6103
L79.2279 37.5564
" />
<path d="M79.2279 37.5564
L79.2818 37.4487
" />
<path d="M79.2818 37.4487
L79.2818 37.3948
" />
<path d="M79.2818 37.3948
L79.0932 37.2062
" />
<path d="M79.0932 37.2062
L78.9855 37.3140
" />
<path d="M79.5781 37.2062
L79.0124 36.6406
" />
<path d="M79.0124 36.6406
L79.2279 36.4251
" />
<path d="M79.2279 36.4251
L79.3087 36.3981
" />
<path d="M79.3087 36.3981
L79.3626 36.3981
" />
<path d="M79.3626 36.3981
L79.4434 36.4251
" />
<path d="M79.4434 36.4251
L79.5242 36.5059
" />
<path d="M79.5242 36.5059
L79.5512 36.5867
" />
<path d="M79.5512 36.5867
L79.5512 36.6406
" />
<path d="M79.5512 36.6406
L79.5242 36.7214
" />
<path d="M79.5242 36.7214
L79.3087 36.9369
" />
<path d="M80.4401 36.3442
L80.1169 36.6675
" />
<path d="M80.2785 36.5059
L79.7128 35.9402
" />
<path d="M79.7128 35.9402
L79.7397 36.0749
" />
<path d="M79.7397 36.0749
L79.7397 36.1826
" />
<path d="M79.7397 36.1826
L79.7128 36.2634
" />
<path d="M80.3593 35.2937
L80.2516 35.4014
" />
<path d="M80.2516 35.4014
L80.2246 35.4822
" />
<path d="M80.2246 35.4822
L80.2246 35.5361
" />
<path d="M80.2246 35.5361
L80.2516 35.6708
" />
<path d="M80.2516 35.6708
L80.3324 35.8055
" />
<path d="M80.3324 35.8055
L80.5479 36.0210
" />
<path d="M80.5479 36.0210
L80.6287 36.0479
" />
<path d="M80.6287 36.0479
L80.6826 36.0479
" />
<path d="M80.6826 36.0479
L80.7634 36.0210
" />
<path d="M80.7634 36.0210
L80.8711 35.9132
" />
<path d="M80.8711 35.9132
L80.8981 35.8324
" />
<path d="M80.8981 35.8324
L80.8981 35.7786
" />
<path d="M80.8981 35.7786
L80.8711 35.6977
" />
<path d="M80.8711 35.6977
L80.7364 35.5631
" />
<path d="M80.7364 35.5631
L80.6556 35.5361
" />
<path d="M80.6556 35.5361
L80.6017 35.5361
" />
<path d="M80.6017 35.5361
L80.5209 35.5631
" />
<path d="M80.5209 35.5631
L80.4132 35.6708
" />
<path d="M80.4132 35.6708
L80.3862 35.7516
" />
<path d="M80.3862 35.7516
L80.3862 35.8055
" />
<path d="M80.3862 35.8055
L80.4132 35.8863
" />
</g><g transform="rotate(-45.000000 121.7500 61.3460)">
<text x="121.7500" y="61.7460"
textLength="2.7281" font-size="1.0667" lengthAdjust="spacingAndGlyphs"
text-anchor="middle" opacity="0">GND</text>
</g>
<g class="stroked-text"><desc>GND</desc>
<path d="M121.0364 61.4944
L120.9556 61.5214
" />
<path d="M120.9556 61.5214
L120.8748 61.6022
" />
<path d="M120.8748 61.6022
L120.8209 61.7099
" />
<path d="M120.8209 61.7099
L120.8209 61.8177
" />
<path d="M120.8209 61.8177
L120.8479 61.8985
" />
<path d="M120.8479 61.8985
L120.9287 62.0332
" />
<path d="M120.9287 62.0332
L121.0095 62.1140
" />
<path d="M121.0095 62.1140
L121.1442 62.1948
" />
<path d="M121.1442 62.1948
L121.2250 62.2217
" />
<path d="M121.2250 62.2217
L121.3327 62.2217
" />
<path d="M121.3327 62.2217
L121.4405 62.1679
" />
<path d="M121.4405 62.1679
L121.4944 62.1140
" />
<path d="M121.4944 62.1140
L121.5482 62.0062
" />
<path d="M121.5482 62.0062
L121.5482 61.9524
" />
<path d="M121.5482 61.9524
L121.3597 61.7638
" />
<path d="M121.3597 61.7638
L121.2519 61.8716
" />
<path d="M121.8446 61.7638
L121.2789 61.1981
" />
<path d="M121.2789 61.1981
L122.1678 61.4406
" />
<path d="M122.1678 61.4406
L121.6021 60.8749
" />
<path d="M122.4372 61.1712
L121.8715 60.6055
" />
<path d="M121.8715 60.6055
L122.0062 60.4708
" />
<path d="M122.0062 60.4708
L122.1139 60.4169
" />
<path d="M122.1139 60.4169
L122.2217 60.4169
" />
<path d="M122.2217 60.4169
L122.3025 60.4439
" />
<path d="M122.3025 60.4439
L122.4372 60.5247
" />
<path d="M122.4372 60.5247
L122.5180 60.6055
" />
<path d="M122.5180 60.6055
L122.5988 60.7402
" />
<path d="M122.5988 60.7402
L122.6257 60.8210
" />
<path d="M122.6257 60.8210
L122.6257 60.9287
" />
<path d="M122.6257 60.9287
L122.5719 61.0365
" />
<path d="M122.5719 61.0365
L122.4372 61.1712
" />
</g><g transform="rotate(-45.000000 83.6500 61.3460)">
<text x="83.6500" y="61.7460"
textLength="2.7281" font-size="1.0667" lengthAdjust="spacingAndGlyphs"
text-anchor="middle" opacity="0">GND</text>
</g>
<g class="stroked-text"><desc>GND</desc>
<path d="M82.9364 61.4944
L82.8556 61.5214
" />
<path d="M82.8556 61.5214
L82.7748 61.6022
" />
<path d="M82.7748 61.6022
L82.7209 61.7099
" />
<path d="M82.7209 61.7099
L82.7209 61.8177
" />
<path d="M82.7209 61.8177
L82.7479 61.8985
" />
<path d="M82.7479 61.8985
L82.8287 62.0332
" />
<path d="M82.8287 62.0332
L82.9095 62.1140
" />
<path d="M82.9095 62.1140
L83.0442 62.1948
" />
<path d="M83.0442 62.1948
L83.1250 62.2217
" />
<path d="M83.1250 62.2217
L83.2327 62.2217
" />
<path d="M83.2327 62.2217
L83.3405 62.1679
" />
<path d="M83.3405 62.1679
L83.3944 62.1140
" />
<path d="M83.3944 62.1140
L83.4482 62.0062
" />
<path d="M83.4482 62.0062
L83.4482 61.9524
" />
<path d="M83.4482 61.9524
L83.2597 61.7638
" />
<path d="M83.2597 61.7638
L83.1519 61.8716
" />
<path d="M83.7446 61.7638
L83.1789 61.1981
" />
<path d="M83.1789 61.1981
L84.0678 61.4406
" />
<path d="M84.0678 61.4406
L83.5021 60.8749
" />
<path d="M84.3372 61.1712
L83.7715 60.6055
" />
<path d="M83.7715 60.6055
L83.9062 60.4708
" />
<path d="M83.9062 60.4708
L84.0139 60.4169
" />
<path d="M84.0139 60.4169
L84.1217 60.4169
" />
<path d="M84.1217 60.4169
L84.2025 60.4439
" />
<path d="M84.2025 60.4439
L84.3372 60.5247
" />
<path d="M84.3372 60.5247
L84.4180 60.6055
" />
<path d="M84.4180 60.6055
L84.4988 60.7402
" />
<path d="M84.4988 60.7402
L84.5257 60.8210
" />
<path d="M84.5257 60.8210
L84.5257 60.9287
" />
<path d="M84.5257 60.9287
L84.4719 61.0365
" />
<path d="M84.4719 61.0365
L84.3372 61.1712
" />
</g><g transform="rotate(-45.000000 121.0560 35.9000)">
<text x="121.0560" y="36.3000"
textLength="4.6710" font-size="1.0667" lengthAdjust="spacingAndGlyphs"
text-anchor="middle" opacity="0">3V3_EN</text>
</g>
<g class="stroked-text"><desc>3V3_EN</desc>
<path d="M119.2784 37.0586
L119.6286 36.7084
" />
<path d="M119.6286 36.7084
L119.6555 37.1125
" />
<path d="M119.6555 37.1125
L119.7363 37.0316
" />
<path d="M119.7363 37.0316
L119.8172 37.0047
" />
<path d="M119.8172 37.0047
L119.8710 37.0047
" />
<path d="M119.8710 37.0047
L119.9518 37.0316
" />
<path d="M119.9518 37.0316
L120.0865 37.1663
" />
<path d="M120.0865 37.1663
L120.1135 37.2471
" />
<path d="M120.1135 37.2471
L120.1135 37.3010
" />
<path d="M120.1135 37.3010
L120.0865 37.3818
" />
<path d="M120.0865 37.3818
L119.9249 37.5435
" />
<path d="M119.9249 37.5435
L119.8441 37.5704
" />
<path d="M119.8441 37.5704
L119.7902 37.5704
" />
<path d="M119.7902 36.5468
L120.5445 36.9239
" />
<path d="M120.5445 36.9239
L120.1673 36.1696
" />
<path d="M120.3020 36.0350
L120.6522 35.6848
" />
<path d="M120.6522 35.6848
L120.6792 36.0888
" />
<path d="M120.6792 36.0888
L120.7600 36.0080
" />
<path d="M120.7600 36.0080
L120.8408 35.9811
" />
<path d="M120.8408 35.9811
L120.8947 35.9811
" />
<path d="M120.8947 35.9811
L120.9755 36.0080
" />
<path d="M120.9755 36.0080
L121.1102 36.1427
" />
<path d="M121.1102 36.1427
L121.1371 36.2235
" />
<path d="M121.1371 36.2235
L121.1371 36.2774
" />
<path d="M121.1371 36.2774
L121.1102 36.3582
" />
<path d="M121.1102 36.3582
L120.9485 36.5198
" />
<path d="M120.9485 36.5198
L120.8677 36.5468
" />
<path d="M120.8677 36.5468
L120.8138 36.5468
" />
<path d="M121.3795 36.1966
L121.8105 35.7656
" />
<path d="M121.5950 35.2807
L121.7836 35.0922
" />
<path d="M122.1607 35.3077
L121.8913 35.5770
" />
<path d="M121.8913 35.5770
L121.3256 35.0113
" />
<path d="M121.3256 35.0113
L121.5950 34.7420
" />
<path d="M122.4031 35.0652
L121.8375 34.4995
" />
<path d="M121.8375 34.4995
L122.7264 34.7420
" />
<path d="M122.7264 34.7420
L122.1607 34.1763
" />
</g><g transform="rotate(-45.000000 94.9560 36.5460)">
<text x="94.9560" y="36.9460"
textLength="3.4138" font-size="1.0667" lengthAdjust="spacingAndGlyphs"
text-anchor="middle" opacity="0">GP21</text>
</g>
<g class="stroked-text"><desc>GP21</desc>
<path d="M94.0000 36.9369
L93.9192 36.9638
" />
<path d="M93.9192 36.9638
L93.8384 37.0446
" />
<path d="M93.8384 37.0446
L93.7845 37.1524
" />
<path d="M93.7845 37.1524
L93.7845 37.2601
" />
<path d="M93.7845 37.2601
L93.8114 37.3409
" />
<path d="M93.8114 37.3409
L93.8922 37.4756
" />
<path d="M93.8922 37.4756
L93.9731 37.5564
" />
<path d="M93.9731 37.5564
L94.1077 37.6372
" />
<path d="M94.1077 37.6372
L94.1886 37.6642
" />
<path d="M94.1886 37.6642
L94.2963 37.6642
" />
<path d="M94.2963 37.6642
L94.4041 37.6103
" />
<path d="M94.4041 37.6103
L94.4579 37.5564
" />
<path d="M94.4579 37.5564
L94.5118 37.4487
" />
<path d="M94.5118 37.4487
L94.5118 37.3948
" />
<path d="M94.5118 37.3948
L94.3232 37.2062
" />
<path d="M94.3232 37.2062
L94.2155 37.3140
" />
<path d="M94.8081 37.2062
L94.2424 36.6406
" />
<path d="M94.2424 36.6406
L94.4579 36.4251
" />
<path d="M94.4579 36.4251
L94.5387 36.3981
" />
<path d="M94.5387 36.3981
L94.5926 36.3981
" />
<path d="M94.5926 36.3981
L94.6734 36.4251
" />
<path d="M94.6734 36.4251
L94.7542 36.5059
" />
<path d="M94.7542 36.5059
L94.7812 36.5867
" />
<path d="M94.7812 36.5867
L94.7812 36.6406
" />
<path d="M94.7812 36.6406
L94.7542 36.7214
" />
<path d="M94.7542 36.7214
L94.5387 36.9369
" />
<path d="M94.8351 36.1557
L94.8351 36.1018
" />
<path d="M94.8351 36.1018
L94.8620 36.0210
" />
<path d="M94.8620 36.0210
L94.9967 35.8863
" />
<path d="M94.9967 35.8863
L95.0775 35.8594
" />
<path d="M95.0775 35.8594
L95.1314 35.8594
" />
<path d="M95.1314 35.8594
L95.2122 35.8863
" />
<path d="M95.2122 35.8863
L95.2661 35.9402
" />
<path d="M95.2661 35.9402
L95.3199 36.0479
" />
<path d="M95.3199 36.0479
L95.3199 36.6944
" />
<path d="M95.3199 36.6944
L95.6701 36.3442
" />
<path d="M96.2089 35.8055
L95.8856 36.1287
" />
<path d="M96.0472 35.9671
L95.4816 35.4014
" />
<path d="M95.4816 35.4014
L95.5085 35.5361
" />
<path d="M95.5085 35.5361
L95.5085 35.6439
" />
<path d="M95.5085 35.6439
L95.4816 35.7247
" />
</g><g transform="rotate(-45.000000 122.9060 36.8000)">
<text x="122.9060" y="37.2000"
textLength="2.7281" font-size="1.0667" lengthAdjust="spacingAndGlyphs"
text-anchor="middle" opacity="0">GND</text>
</g>
<g class="stroked-text"><desc>GND</desc>
<path d="M122.1924 36.9484
L122.1116 36.9754
" />
<path d="M122.1116 36.9754
L122.0308 37.0562
" />
<path d="M122.0308 37.0562
L121.9769 37.1639
" />
<path d="M121.9769 37.1639
L121.9769 37.2717
" />
<path d="M121.9769 37.2717
L122.0039 37.3525
" />
<path d="M122.0039 37.3525
L122.0847 37.4872
" />
<path d="M122.0847 37.4872
L122.1655 37.5680
" />
<path d="M122.1655 37.5680
L122.3002 37.6488
" />
<path d="M122.3002 37.6488
L122.3810 37.6757
" />
<path d="M122.3810 37.6757
L122.4887 37.6757
" />
<path d="M122.4887 37.6757
L122.5965 37.6219
" />
<path d="M122.5965 37.6219
L122.6504 37.5680
" />
<path d="M122.6504 37.5680
L122.7042 37.4602
" />
<path d="M122.7042 37.4602
L122.7042 37.4064
" />
<path d="M122.7042 37.4064
L122.5157 37.2178
" />
<path d="M122.5157 37.2178
L122.4079 37.3256
" />
<path d="M123.0006 37.2178
L122.4349 36.6521
" />
<path d="M122.4349 36.6521
L123.3238 36.8946
" />
<path d="M123.3238 36.8946
L122.7581 36.3289
" />
<path d="M123.5932 36.6252
L123.0275 36.0595
" />
<path d="M123.0275 36.0595
L123.1622 35.9248
" />
<path d="M123.1622 35.9248
L123.2699 35.8709
" />
<path d="M123.2699 35.8709
L123.3777 35.8709
" />
<path d="M123.3777 35.8709
L123.4585 35.8979
" />
<path d="M123.4585 35.8979
L123.5932 35.9787
" />
<path d="M123.5932 35.9787
L123.6740 36.0595
" />
<path d="M123.6740 36.0595
L123.7548 36.1942
" />
<path d="M123.7548 36.1942
L123.7817 36.2750
" />
<path d="M123.7817 36.2750
L123.7817 36.3827
" />
<path d="M123.7817 36.3827
L123.7279 36.4905
" />
<path d="M123.7279 36.4905
L123.5932 36.6252
" />
</g><g transform="rotate(-45.000000 97.5060 36.8000)">
<text x="97.5060" y="37.2000"
textLength="2.7281" font-size="1.0667" lengthAdjust="spacingAndGlyphs"
text-anchor="middle" opacity="0">GND</text>
</g>
<g class="stroked-text"><desc>GND</desc>
<path d="M96.7924 36.9484
L96.7116 36.9754
" />
<path d="M96.7116 36.9754
L96.6308 37.0562
" />
<path d="M96.6308 37.0562
L96.5769 37.1639
" />
<path d="M96.5769 37.1639
L96.5769 37.2717
" />
<path d="M96.5769 37.2717
L96.6039 37.3525
" />
<path d="M96.6039 37.3525
L96.6847 37.4872
" />
<path d="M96.6847 37.4872
L96.7655 37.5680
" />
<path d="M96.7655 37.5680
L96.9002 37.6488
" />
<path d="M96.9002 37.6488
L96.9810 37.6757
" />
<path d="M96.9810 37.6757
L97.0887 37.6757
" />
<path d="M97.0887 37.6757
L97.1965 37.6219
" />
<path d="M97.1965 37.6219
L97.2504 37.5680
" />
<path d="M97.2504 37.5680
L97.3042 37.4602
" />
<path d="M97.3042 37.4602
L97.3042 37.4064
" />
<path d="M97.3042 37.4064
L97.1157 37.2178
" />
<path d="M97.1157 37.2178
L97.0079 37.3256
" />
<path d="M97.6006 37.2178
L97.0349 36.6521
" />
<path d="M97.0349 36.6521
L97.9238 36.8946
" />
<path d="M97.9238 36.8946
L97.3581 36.3289
" />
<path d="M98.1932 36.6252
L97.6275 36.0595
" />
<path d="M97.6275 36.0595
L97.7622 35.9248
" />
<path d="M97.7622 35.9248
L97.8699 35.8709
" />
<path d="M97.8699 35.8709
L97.9777 35.8709
" />
<path d="M97.9777 35.8709
L98.0585 35.8979
" />
<path d="M98.0585 35.8979
L98.1932 35.9787
" />
<path d="M98.1932 35.9787
L98.2740 36.0595
" />
<path d="M98.2740 36.0595
L98.3548 36.1942
" />
<path d="M98.3548 36.1942
L98.3817 36.2750
" />
<path d="M98.3817 36.2750
L98.3817 36.3827
" />
<path d="M98.3817 36.3827
L98.3279 36.4905
" />
<path d="M98.3279 36.4905
L98.1932 36.6252
" />
</g><g transform="rotate(-45.000000 91.2700 61.7460)">
<text x="91.2700" y="62.1460"
textLength="3.4138" font-size="1.0667" lengthAdjust="spacingAndGlyphs"
text-anchor="middle" opacity="0">GP11</text>
</g>
<g class="stroked-text"><desc>GP11</desc>
<path d="M90.3140 62.1369
L90.2332 62.1638
" />
<path d="M90.2332 62.1638
L90.1524 62.2446
" />
<path d="M90.1524 62.2446
L90.0985 62.3524
" />
<path d="M90.0985 62.3524
L90.0985 62.4601
" />
<path d="M90.0985 62.4601
L90.1254 62.5409
" />
<path d="M90.1254 62.5409
L90.2062 62.6756
" />
<path d="M90.2062 62.6756
L90.2871 62.7564
" />
<path d="M90.2871 62.7564
L90.4217 62.8372
" />
<path d="M90.4217 62.8372
L90.5026 62.8642
" />
<path d="M90.5026 62.8642
L90.6103 62.8642
" />
<path d="M90.6103 62.8642
L90.7181 62.8103
" />
<path d="M90.7181 62.8103
L90.7719 62.7564
" />
<path d="M90.7719 62.7564
L90.8258 62.6487
" />
<path d="M90.8258 62.6487
L90.8258 62.5948
" />
<path d="M90.8258 62.5948
L90.6372 62.4062
" />
<path d="M90.6372 62.4062
L90.5295 62.5140
" />
<path d="M91.1221 62.4062
L90.5564 61.8406
" />
<path d="M90.5564 61.8406
L90.7719 61.6251
" />
<path d="M90.7719 61.6251
L90.8527 61.5981
" />
<path d="M90.8527 61.5981
L90.9066 61.5981
" />
<path d="M90.9066 61.5981
L90.9874 61.6251
" />
<path d="M90.9874 61.6251
L91.0682 61.7059
" />
<path d="M91.0682 61.7059
L91.0952 61.7867
" />
<path d="M91.0952 61.7867
L91.0952 61.8406
" />
<path d="M91.0952 61.8406
L91.0682 61.9214
" />
<path d="M91.0682 61.9214
L90.8527 62.1369
" />
<path d="M91.9841 61.5442
L91.6609 61.8675
" />
<path d="M91.8225 61.7059
L91.2568 61.1402
" />
<path d="M91.2568 61.1402
L91.2837 61.2749
" />
<path d="M91.2837 61.2749
L91.2837 61.3826
" />
<path d="M91.2837 61.3826
L91.2568 61.4634
" />
<path d="M92.5229 61.0055
L92.1996 61.3287
" />
<path d="M92.3612 61.1671
L91.7956 60.6014
" />
<path d="M91.7956 60.6014
L91.8225 60.7361
" />
<path d="M91.8225 60.7361
L91.8225 60.8439
" />
<path d="M91.8225 60.8439
L91.7956 60.9247
" />
</g><g transform="rotate(-45.000000 92.4260 36.5460)">
<text x="92.4260" y="36.9460"
textLength="3.4138" font-size="1.0667" lengthAdjust="spacingAndGlyphs"
text-anchor="middle" opacity="0">GP20</text>
</g>
<g class="stroked-text"><desc>GP20</desc>
<path d="M91.4700 36.9369
L91.3892 36.9638
" />
<path d="M91.3892 36.9638
L91.3084 37.0446
" />
<path d="M91.3084 37.0446
L91.2545 37.1524
" />
<path d="M91.2545 37.1524
L91.2545 37.2601
" />
<path d="M91.2545 37.2601
L91.2814 37.3409
" />
<path d="M91.2814 37.3409
L91.3622 37.4756
" />
<path d="M91.3622 37.4756
L91.4431 37.5564
" />
<path d="M91.4431 37.5564
L91.5777 37.6372
" />
<path d="M91.5777 37.6372
L91.6586 37.6642
" />
<path d="M91.6586 37.6642
L91.7663 37.6642
" />
<path d="M91.7663 37.6642
L91.8741 37.6103
" />
<path d="M91.8741 37.6103
L91.9279 37.5564
" />
<path d="M91.9279 37.5564
L91.9818 37.4487
" />
<path d="M91.9818 37.4487
L91.9818 37.3948
" />
<path d="M91.9818 37.3948
L91.7932 37.2062
" />
<path d="M91.7932 37.2062
L91.6855 37.3140
" />
<path d="M92.2781 37.2062
L91.7124 36.6406
" />
<path d="M91.7124 36.6406
L91.9279 36.4251
" />
<path d="M91.9279 36.4251
L92.0087 36.3981
" />
<path d="M92.0087 36.3981
L92.0626 36.3981
" />
<path d="M92.0626 36.3981
L92.1434 36.4251
" />
<path d="M92.1434 36.4251
L92.2242 36.5059
" />
<path d="M92.2242 36.5059
L92.2512 36.5867
" />
<path d="M92.2512 36.5867
L92.2512 36.6406
" />
<path d="M92.2512 36.6406
L92.2242 36.7214
" />
<path d="M92.2242 36.7214
L92.0087 36.9369
" />
<path d="M92.3051 36.1557
L92.3051 36.1018
" />
<path d="M92.3051 36.1018
L92.3320 36.0210
" />
<path d="M92.3320 36.0210
L92.4667 35.8863
" />
<path d="M92.4667 35.8863
L92.5475 35.8594
" />
<path d="M92.5475 35.8594
L92.6014 35.8594
" />
<path d="M92.6014 35.8594
L92.6822 35.8863
" />
<path d="M92.6822 35.8863
L92.7361 35.9402
" />
<path d="M92.7361 35.9402
L92.7899 36.0479
" />
<path d="M92.7899 36.0479
L92.7899 36.6944
" />
<path d="M92.7899 36.6944
L93.1401 36.3442
" />
<path d="M92.9246 35.4284
L92.9785 35.3745
" />
<path d="M92.9785 35.3745
L93.0593 35.3476
" />
<path d="M93.0593 35.3476
L93.1132 35.3476
" />
<path d="M93.1132 35.3476
L93.1940 35.3745
" />
<path d="M93.1940 35.3745
L93.3287 35.4553
" />
<path d="M93.3287 35.4553
L93.4634 35.5900
" />
<path d="M93.4634 35.5900
L93.5442 35.7247
" />
<path d="M93.5442 35.7247
L93.5711 35.8055
" />
<path d="M93.5711 35.8055
L93.5711 35.8594
" />
<path d="M93.5711 35.8594
L93.5442 35.9402
" />
<path d="M93.5442 35.9402
L93.4903 35.9941
" />
<path d="M93.4903 35.9941
L93.4095 36.0210
" />
<path d="M93.4095 36.0210
L93.3556 36.0210
" />
<path d="M93.3556 36.0210
L93.2748 35.9941
" />
<path d="M93.2748 35.9941
L93.1401 35.9132
" />
<path d="M93.1401 35.9132
L93.0054 35.7786
" />
<path d="M93.0054 35.7786
L92.9246 35.6439
" />
<path d="M92.9246 35.6439
L92.8977 35.5631
" />
<path d="M92.8977 35.5631
L92.8977 35.5092
" />
<path d="M92.8977 35.5092
L92.9246 35.4284
" />
</g><g transform="rotate(-45.000000 98.8900 61.3460)">
<text x="98.8900" y="61.7460"
textLength="2.6519" font-size="1.0667" lengthAdjust="spacingAndGlyphs"
text-anchor="middle" opacity="0">GP9</text>
</g>
<g class="stroked-text"><desc>GP9</desc>
<path d="M98.2034 61.4675
L98.1226 61.4944
" />
<path d="M98.1226 61.4944
L98.0417 61.5752
" />
<path d="M98.0417 61.5752
L97.9879 61.6830
" />
<path d="M97.9879 61.6830
L97.9879 61.7907
" />
<path d="M97.9879 61.7907
L98.0148 61.8716
" />
<path d="M98.0148 61.8716
L98.0956 62.0062
" />
<path d="M98.0956 62.0062
L98.1764 62.0871
" />
<path d="M98.1764 62.0871
L98.3111 62.1679
" />
<path d="M98.3111 62.1679
L98.3919 62.1948
" />
<path d="M98.3919 62.1948
L98.4997 62.1948
" />
<path d="M98.4997 62.1948
L98.6074 62.1409
" />
<path d="M98.6074 62.1409
L98.6613 62.0871
" />
<path d="M98.6613 62.0871
L98.7152 61.9793
" />
<path d="M98.7152 61.9793
L98.7152 61.9254
" />
<path d="M98.7152 61.9254
L98.5266 61.7369
" />
<path d="M98.5266 61.7369
L98.4189 61.8446
" />
<path d="M99.0115 61.7369
L98.4458 61.1712
" />
<path d="M98.4458 61.1712
L98.6613 60.9557
" />
<path d="M98.6613 60.9557
L98.7421 60.9287
" />
<path d="M98.7421 60.9287
L98.7960 60.9287
" />
<path d="M98.7960 60.9287
L98.8768 60.9557
" />
<path d="M98.8768 60.9557
L98.9576 61.0365
" />
<path d="M98.9576 61.0365
L98.9846 61.1173
" />
<path d="M98.9846 61.1173
L98.9846 61.1712
" />
<path d="M98.9846 61.1712
L98.9576 61.2520
" />
<path d="M98.9576 61.2520
L98.7421 61.4675
" />
<path d="M99.6041 61.1442
L99.7119 61.0365
" />
<path d="M99.7119 61.0365
L99.7388 60.9557
" />
<path d="M99.7388 60.9557
L99.7388 60.9018
" />
<path d="M99.7388 60.9018
L99.7119 60.7671
" />
<path d="M99.7119 60.7671
L99.6311 60.6324
" />
<path d="M99.6311 60.6324
L99.4156 60.4169
" />
<path d="M99.4156 60.4169
L99.3347 60.3900
" />
<path d="M99.3347 60.3900
L99.2809 60.3900
" />
<path d="M99.2809 60.3900
L99.2001 60.4169
" />
<path d="M99.2001 60.4169
L99.0923 60.5247
" />
<path d="M99.0923 60.5247
L99.0654 60.6055
" />
<path d="M99.0654 60.6055
L99.0654 60.6594
" />
<path d="M99.0654 60.6594
L99.0923 60.7402
" />
<path d="M99.0923 60.7402
L99.2270 60.8749
" />
<path d="M99.2270 60.8749
L99.3078 60.9018
" />
<path d="M99.3078 60.9018
L99.3617 60.9018
" />
<path d="M99.3617 60.9018
L99.4425 60.8749
" />
<path d="M99.4425 60.8749
L99.5502 60.7671
" />
<path d="M99.5502 60.7671
L99.5772 60.6863
" />
<path d="M99.5772 60.6863
L99.5772 60.6324
" />
<path d="M99.5772 60.6324
L99.5502 60.5516
" />
</g><g transform="rotate(-45.000000 93.8100 61.6000)">
<text x="93.8100" y="62.0000"
textLength="3.4138" font-size="1.0667" lengthAdjust="spacingAndGlyphs"
text-anchor="middle" opacity="0">GP10</text>
</g>
<g class="stroked-text"><desc>GP10</desc>
<path d="M92.8540 61.9909
L92.7732 62.0178
" />
<path d="M92.7732 62.0178
L92.6924 62.0986
" />
<path d="M92.6924 62.0986
L92.6385 62.2064
" />
<path d="M92.6385 62.2064
L92.6385 62.3141
" />
<path d="M92.6385 62.3141
L92.6654 62.3949
" />
<path d="M92.6654 62.3949
L92.7462 62.5296
" />
<path d="M92.7462 62.5296
L92.8271 62.6104
" />
<path d="M92.8271 62.6104
L92.9617 62.6912
" />
<path d="M92.9617 62.6912
L93.0426 62.7182
" />
<path d="M93.0426 62.7182
L93.1503 62.7182
" />
<path d="M93.1503 62.7182
L93.2581 62.6643
" />
<path d="M93.2581 62.6643
L93.3119 62.6104
" />
<path d="M93.3119 62.6104
L93.3658 62.5027
" />
<path d="M93.3658 62.5027
L93.3658 62.4488
" />
<path d="M93.3658 62.4488
L93.1772 62.2602
" />
<path d="M93.1772 62.2602
L93.0695 62.3680
" />
<path d="M93.6621 62.2602
L93.0964 61.6946
" />
<path d="M93.0964 61.6946
L93.3119 61.4791
" />
<path d="M93.3119 61.4791
L93.3927 61.4521
" />
<path d="M93.3927 61.4521
L93.4466 61.4521
" />
<path d="M93.4466 61.4521
L93.5274 61.4791
" />
<path d="M93.5274 61.4791
L93.6082 61.5599
" />
<path d="M93.6082 61.5599
L93.6352 61.6407
" />
<path d="M93.6352 61.6407
L93.6352 61.6946
" />
<path d="M93.6352 61.6946
L93.6082 61.7754
" />
<path d="M93.6082 61.7754
L93.3927 61.9909
" />
<path d="M94.5241 61.3982
L94.2009 61.7215
" />
<path d="M94.3625 61.5599
L93.7968 60.9942
" />
<path d="M93.7968 60.9942
L93.8237 61.1289
" />
<path d="M93.8237 61.1289
L93.8237 61.2366
" />
<path d="M93.8237 61.2366
L93.7968 61.3174
" />
<path d="M94.3086 60.4824
L94.3625 60.4285
" />
<path d="M94.3625 60.4285
L94.4433 60.4016
" />
<path d="M94.4433 60.4016
L94.4972 60.4016
" />
<path d="M94.4972 60.4016
L94.5780 60.4285
" />
<path d="M94.5780 60.4285
L94.7127 60.5093
" />
<path d="M94.7127 60.5093
L94.8474 60.6440
" />
<path d="M94.8474 60.6440
L94.9282 60.7787
" />
<path d="M94.9282 60.7787
L94.9551 60.8595
" />
<path d="M94.9551 60.8595
L94.9551 60.9134
" />
<path d="M94.9551 60.9134
L94.9282 60.9942
" />
<path d="M94.9282 60.9942
L94.8743 61.0481
" />
<path d="M94.8743 61.0481
L94.7935 61.0750
" />
<path d="M94.7935 61.0750
L94.7396 61.0750
" />
<path d="M94.7396 61.0750
L94.6588 61.0481
" />
<path d="M94.6588 61.0481
L94.5241 60.9672
" />
<path d="M94.5241 60.9672
L94.3894 60.8326
" />
<path d="M94.3894 60.8326
L94.3086 60.6979
" />
<path d="M94.3086 60.6979
L94.2817 60.6171
" />
<path d="M94.2817 60.6171
L94.2817 60.5632
" />
<path d="M94.2817 60.5632
L94.3086 60.4824
" />
</g><g transform="rotate(-45.000000 107.6560 36.5460)">
<text x="107.6560" y="36.9460"
textLength="3.4138" font-size="1.0667" lengthAdjust="spacingAndGlyphs"
text-anchor="middle" opacity="0">GP27</text>
</g>
<g class="stroked-text"><desc>GP27</desc>
<path d="M106.7000 36.9369
L106.6192 36.9638
" />
<path d="M106.6192 36.9638
L106.5384 37.0446
" />
<path d="M106.5384 37.0446
L106.4845 37.1524
" />
<path d="M106.4845 37.1524
L106.4845 37.2601
" />
<path d="M106.4845 37.2601
L106.5114 37.3409
" />
<path d="M106.5114 37.3409
L106.5922 37.4756
" />
<path d="M106.5922 37.4756
L106.6731 37.5564
" />
<path d="M106.6731 37.5564
L106.8077 37.6372
" />
<path d="M106.8077 37.6372
L106.8886 37.6642
" />
<path d="M106.8886 37.6642
L106.9963 37.6642
" />
<path d="M106.9963 37.6642
L107.1041 37.6103
" />
<path d="M107.1041 37.6103
L107.1579 37.5564
" />
<path d="M107.1579 37.5564
L107.2118 37.4487
" />
<path d="M107.2118 37.4487
L107.2118 37.3948
" />
<path d="M107.2118 37.3948
L107.0232 37.2062
" />
<path d="M107.0232 37.2062
L106.9155 37.3140
" />
<path d="M107.5081 37.2062
L106.9424 36.6406
" />
<path d="M106.9424 36.6406
L107.1579 36.4251
" />
<path d="M107.1579 36.4251
L107.2387 36.3981
" />
<path d="M107.2387 36.3981
L107.2926 36.3981
" />
<path d="M107.2926 36.3981
L107.3734 36.4251
" />
<path d="M107.3734 36.4251
L107.4542 36.5059
" />
<path d="M107.4542 36.5059
L107.4812 36.5867
" />
<path d="M107.4812 36.5867
L107.4812 36.6406
" />
<path d="M107.4812 36.6406
L107.4542 36.7214
" />
<path d="M107.4542 36.7214
L107.2387 36.9369
" />
<path d="M107.5351 36.1557
L107.5351 36.1018
" />
<path d="M107.5351 36.1018
L107.5620 36.0210
" />
<path d="M107.5620 36.0210
L107.6967 35.8863
" />
<path d="M107.6967 35.8863
L107.7775 35.8594
" />
<path d="M107.7775 35.8594
L107.8314 35.8594
" />
<path d="M107.8314 35.8594
L107.9122 35.8863
" />
<path d="M107.9122 35.8863
L107.9661 35.9402
" />
<path d="M107.9661 35.9402
L108.0199 36.0479
" />
<path d="M108.0199 36.0479
L108.0199 36.6944
" />
<path d="M108.0199 36.6944
L108.3701 36.3442
" />
<path d="M107.9930 35.5900
L108.3701 35.2129
" />
<path d="M108.3701 35.2129
L108.6934 36.0210
" />
</g><g transform="rotate(-45.000000 101.4300 61.3460)">
<text x="101.4300" y="61.7460"
textLength="2.6519" font-size="1.0667" lengthAdjust="spacingAndGlyphs"
text-anchor="middle" opacity="0">GP8</text>
</g>
<g class="stroked-text"><desc>GP8</desc>
<path d="M100.7434 61.4675
L100.6626 61.4944
" />
<path d="M100.6626 61.4944
L100.5817 61.5752
" />
<path d="M100.5817 61.5752
L100.5279 61.6830
" />
<path d="M100.5279 61.6830
L100.5279 61.7907
" />
<path d="M100.5279 61.7907
L100.5548 61.8716
" />
<path d="M100.5548 61.8716
L100.6356 62.0062
" />
<path d="M100.6356 62.0062
L100.7164 62.0871
" />
<path d="M100.7164 62.0871
L100.8511 62.1679
" />
<path d="M100.8511 62.1679
L100.9319 62.1948
" />
<path d="M100.9319 62.1948
L101.0397 62.1948
" />
<path d="M101.0397 62.1948
L101.1474 62.1409
" />
<path d="M101.1474 62.1409
L101.2013 62.0871
" />
<path d="M101.2013 62.0871
L101.2552 61.9793
" />
<path d="M101.2552 61.9793
L101.2552 61.9254
" />
<path d="M101.2552 61.9254
L101.0666 61.7369
" />
<path d="M101.0666 61.7369
L100.9589 61.8446
" />
<path d="M101.5515 61.7369
L100.9858 61.1712
" />
<path d="M100.9858 61.1712
L101.2013 60.9557
" />
<path d="M101.2013 60.9557
L101.2821 60.9287
" />
<path d="M101.2821 60.9287
L101.3360 60.9287
" />
<path d="M101.3360 60.9287
L101.4168 60.9557
" />
<path d="M101.4168 60.9557
L101.4976 61.0365
" />
<path d="M101.4976 61.0365
L101.5246 61.1173
" />
<path d="M101.5246 61.1173
L101.5246 61.1712
" />
<path d="M101.5246 61.1712
L101.4976 61.2520
" />
<path d="M101.4976 61.2520
L101.2821 61.4675
" />
<path d="M101.8747 60.7671
L101.7939 60.7941
" />
<path d="M101.7939 60.7941
L101.7401 60.7941
" />
<path d="M101.7401 60.7941
L101.6592 60.7671
" />
<path d="M101.6592 60.7671
L101.6323 60.7402
" />
<path d="M101.6323 60.7402
L101.6054 60.6594
" />
<path d="M101.6054 60.6594
L101.6054 60.6055
" />
<path d="M101.6054 60.6055
L101.6323 60.5247
" />
<path d="M101.6323 60.5247
L101.7401 60.4169
" />
<path d="M101.7401 60.4169
L101.8209 60.3900
" />
<path d="M101.8209 60.3900
L101.8747 60.3900
" />
<path d="M101.8747 60.3900
L101.9556 60.4169
" />
<path d="M101.9556 60.4169
L101.9825 60.4439
" />
<path d="M101.9825 60.4439
L102.0094 60.5247
" />
<path d="M102.0094 60.5247
L102.0094 60.5786
" />
<path d="M102.0094 60.5786
L101.9825 60.6594
" />
<path d="M101.9825 60.6594
L101.8747 60.7671
" />
<path d="M101.8747 60.7671
L101.8478 60.8479
" />
<path d="M101.8478 60.8479
L101.8478 60.9018
" />
<path d="M101.8478 60.9018
L101.8747 60.9826
" />
<path d="M101.8747 60.9826
L101.9825 61.0904
" />
<path d="M101.9825 61.0904
L102.0633 61.1173
" />
<path d="M102.0633 61.1173
L102.1172 61.1173
" />
<path d="M102.1172 61.1173
L102.1980 61.0904
" />
<path d="M102.1980 61.0904
L102.3057 60.9826
" />
<path d="M102.3057 60.9826
L102.3327 60.9018
" />
<path d="M102.3327 60.9018
L102.3327 60.8479
" />
<path d="M102.3327 60.8479
L102.3057 60.7671
" />
<path d="M102.3057 60.7671
L102.1980 60.6594
" />
<path d="M102.1980 60.6594
L102.1172 60.6324
" />
<path d="M102.1172 60.6324
L102.0633 60.6324
" />
<path d="M102.0633 60.6324
L101.9825 60.6594
" />
</g><g transform="rotate(-45.000000 111.5900 61.3460)">
<text x="111.5900" y="61.7460"
textLength="2.6519" font-size="1.0667" lengthAdjust="spacingAndGlyphs"
text-anchor="middle" opacity="0">GP5</text>
</g>
<g class="stroked-text"><desc>GP5</desc>
<path d="M110.9034 61.4675
L110.8226 61.4944
" />
<path d="M110.8226 61.4944
L110.7417 61.5752
" />
<path d="M110.7417 61.5752
L110.6879 61.6830
" />
<path d="M110.6879 61.6830
L110.6879 61.7907
" />
<path d="M110.6879 61.7907
L110.7148 61.8716
" />
<path d="M110.7148 61.8716
L110.7956 62.0062
" />
<path d="M110.7956 62.0062
L110.8764 62.0871
" />
<path d="M110.8764 62.0871
L111.0111 62.1679
" />
<path d="M111.0111 62.1679
L111.0919 62.1948
" />
<path d="M111.0919 62.1948
L111.1997 62.1948
" />
<path d="M111.1997 62.1948
L111.3074 62.1409
" />
<path d="M111.3074 62.1409
L111.3613 62.0871
" />
<path d="M111.3613 62.0871
L111.4152 61.9793
" />
<path d="M111.4152 61.9793
L111.4152 61.9254
" />
<path d="M111.4152 61.9254
L111.2266 61.7369
" />
<path d="M111.2266 61.7369
L111.1189 61.8446
" />
<path d="M111.7115 61.7369
L111.1458 61.1712
" />
<path d="M111.1458 61.1712
L111.3613 60.9557
" />
<path d="M111.3613 60.9557
L111.4421 60.9287
" />
<path d="M111.4421 60.9287
L111.4960 60.9287
" />
<path d="M111.4960 60.9287
L111.5768 60.9557
" />
<path d="M111.5768 60.9557
L111.6576 61.0365
" />
<path d="M111.6576 61.0365
L111.6846 61.1173
" />
<path d="M111.6846 61.1173
L111.6846 61.1712
" />
<path d="M111.6846 61.1712
L111.6576 61.2520
" />
<path d="M111.6576 61.2520
L111.4421 61.4675
" />
<path d="M111.9809 60.3361
L111.7115 60.6055
" />
<path d="M111.7115 60.6055
L111.9539 60.9018
" />
<path d="M111.9539 60.9018
L111.9539 60.8479
" />
<path d="M111.9539 60.8479
L111.9809 60.7671
" />
<path d="M111.9809 60.7671
L112.1156 60.6324
" />
<path d="M112.1156 60.6324
L112.1964 60.6055
" />
<path d="M112.1964 60.6055
L112.2502 60.6055
" />
<path d="M112.2502 60.6055
L112.3311 60.6324
" />
<path d="M112.3311 60.6324
L112.4657 60.7671
" />
<path d="M112.4657 60.7671
L112.4927 60.8479
" />
<path d="M112.4927 60.8479
L112.4927 60.9018
" />
<path d="M112.4927 60.9018
L112.4657 60.9826
" />
<path d="M112.4657 60.9826
L112.3311 61.1173
" />
<path d="M112.3311 61.1173
L112.2502 61.1442
" />
<path d="M112.2502 61.1442
L112.1964 61.1442
" />
</g><g transform="rotate(-45.000000 116.3560 35.6000)">
<text x="116.3560" y="36.0000"
textLength="6.0805" font-size="1.0667" lengthAdjust="spacingAndGlyphs"
text-anchor="middle" opacity="0">ADC_VREF</text>
</g>
<g class="stroked-text"><desc>ADC_VREF</desc>
<path d="M114.5111 37.6340
L114.7804 37.3647
" />
<path d="M114.6188 37.8495
L114.2417 37.0953
" />
<path d="M114.2417 37.0953
L114.9959 37.4724
" />
<path d="M115.1845 37.2839
L114.6188 36.7182
" />
<path d="M114.6188 36.7182
L114.7535 36.5835
" />
<path d="M114.7535 36.5835
L114.8612 36.5296
" />
<path d="M114.8612 36.5296
L114.9690 36.5296
" />
<path d="M114.9690 36.5296
L115.0498 36.5566
" />
<path d="M115.0498 36.5566
L115.1845 36.6374
" />
<path d="M115.1845 36.6374
L115.2653 36.7182
" />
<path d="M115.2653 36.7182
L115.3461 36.8529
" />
<path d="M115.3461 36.8529
L115.3731 36.9337
" />
<path d="M115.3731 36.9337
L115.3731 37.0414
" />
<path d="M115.3731 37.0414
L115.3192 37.1492
" />
<path d="M115.3192 37.1492
L115.1845 37.2839
" />
<path d="M116.0196 36.3411
L116.0196 36.3949
" />
<path d="M116.0196 36.3949
L115.9657 36.5027
" />
<path d="M115.9657 36.5027
L115.9118 36.5566
" />
<path d="M115.9118 36.5566
L115.8041 36.6104
" />
<path d="M115.8041 36.6104
L115.6963 36.6104
" />
<path d="M115.6963 36.6104
L115.6155 36.5835
" />
<path d="M115.6155 36.5835
L115.4808 36.5027
" />
<path d="M115.4808 36.5027
L115.4000 36.4219
" />
<path d="M115.4000 36.4219
L115.3192 36.2872
" />
<path d="M115.3192 36.2872
L115.2922 36.2064
" />
<path d="M115.2922 36.2064
L115.2922 36.0986
" />
<path d="M115.2922 36.0986
L115.3461 35.9909
" />
<path d="M115.3461 35.9909
L115.4000 35.9370
" />
<path d="M115.4000 35.9370
L115.5077 35.8831
" />
<path d="M115.5077 35.8831
L115.5616 35.8831
" />
<path d="M116.2351 36.3411
L116.6661 35.9101
" />
<path d="M116.1004 35.2366
L116.8546 35.6137
" />
<path d="M116.8546 35.6137
L116.4775 34.8595
" />
<path d="M117.5550 34.9134
L117.0971 34.8326
" />
<path d="M117.2317 35.2366
L116.6661 34.6709
" />
<path d="M116.6661 34.6709
L116.8816 34.4554
" />
<path d="M116.8816 34.4554
L116.9624 34.4285
" />
<path d="M116.9624 34.4285
L117.0162 34.4285
" />
<path d="M117.0162 34.4285
L117.0971 34.4554
" />
<path d="M117.0971 34.4554
L117.1779 34.5362
" />
<path d="M117.1779 34.5362
L117.2048 34.6171
" />
<path d="M117.2048 34.6171
L117.2048 34.6709
" />
<path d="M117.2048 34.6709
L117.1779 34.7517
" />
<path d="M117.1779 34.7517
L116.9624 34.9672
" />
<path d="M117.5011 34.3746
L117.6897 34.1861
" />
<path d="M118.0668 34.4016
L117.7974 34.6709
" />
<path d="M117.7974 34.6709
L117.2317 34.1052
" />
<path d="M117.2317 34.1052
L117.5011 33.8359
" />
<path d="M118.2015 33.6743
L118.0129 33.8628
" />
<path d="M118.3092 34.1591
L117.7436 33.5934
" />
<path d="M117.7436 33.5934
L118.0129 33.3241
" />
</g><g transform="rotate(-45.000000 78.5700 61.6000)">
<text x="78.5700" y="62.0000"
textLength="3.4138" font-size="1.0667" lengthAdjust="spacingAndGlyphs"
text-anchor="middle" opacity="0">GP15</text>
</g>
<g class="stroked-text"><desc>GP15</desc>
<path d="M77.6140 61.9909
L77.5332 62.0178
" />
<path d="M77.5332 62.0178
L77.4524 62.0986
" />
<path d="M77.4524 62.0986
L77.3985 62.2064
" />
<path d="M77.3985 62.2064
L77.3985 62.3141
" />
<path d="M77.3985 62.3141
L77.4254 62.3949
" />
<path d="M77.4254 62.3949
L77.5062 62.5296
" />
<path d="M77.5062 62.5296
L77.5871 62.6104
" />
<path d="M77.5871 62.6104
L77.7217 62.6912
" />
<path d="M77.7217 62.6912
L77.8026 62.7182
" />
<path d="M77.8026 62.7182
L77.9103 62.7182
" />
<path d="M77.9103 62.7182
L78.0181 62.6643
" />
<path d="M78.0181 62.6643
L78.0719 62.6104
" />
<path d="M78.0719 62.6104
L78.1258 62.5027
" />
<path d="M78.1258 62.5027
L78.1258 62.4488
" />
<path d="M78.1258 62.4488
L77.9372 62.2602
" />
<path d="M77.9372 62.2602
L77.8295 62.3680
" />
<path d="M78.4221 62.2602
L77.8564 61.6946
" />
<path d="M77.8564 61.6946
L78.0719 61.4791
" />
<path d="M78.0719 61.4791
L78.1527 61.4521
" />
<path d="M78.1527 61.4521
L78.2066 61.4521
" />
<path d="M78.2066 61.4521
L78.2874 61.4791
" />
<path d="M78.2874 61.4791
L78.3682 61.5599
" />
<path d="M78.3682 61.5599
L78.3952 61.6407
" />
<path d="M78.3952 61.6407
L78.3952 61.6946
" />
<path d="M78.3952 61.6946
L78.3682 61.7754
" />
<path d="M78.3682 61.7754
L78.1527 61.9909
" />
<path d="M79.2841 61.3982
L78.9609 61.7215
" />
<path d="M79.1225 61.5599
L78.5568 60.9942
" />
<path d="M78.5568 60.9942
L78.5837 61.1289
" />
<path d="M78.5837 61.1289
L78.5837 61.2366
" />
<path d="M78.5837 61.2366
L78.5568 61.3174
" />
<path d="M79.2302 60.3207
L78.9609 60.5901
" />
<path d="M78.9609 60.5901
L79.2033 60.8864
" />
<path d="M79.2033 60.8864
L79.2033 60.8326
" />
<path d="M79.2033 60.8326
L79.2302 60.7517
" />
<path d="M79.2302 60.7517
L79.3649 60.6171
" />
<path d="M79.3649 60.6171
L79.4457 60.5901
" />
<path d="M79.4457 60.5901
L79.4996 60.5901
" />
<path d="M79.4996 60.5901
L79.5804 60.6171
" />
<path d="M79.5804 60.6171
L79.7151 60.7517
" />
<path d="M79.7151 60.7517
L79.7421 60.8326
" />
<path d="M79.7421 60.8326
L79.7421 60.8864
" />
<path d="M79.7421 60.8864
L79.7151 60.9672
" />
<path d="M79.7151 60.9672
L79.5804 61.1019
" />
<path d="M79.5804 61.1019
L79.4996 61.1289
" />
<path d="M79.4996 61.1289
L79.4457 61.1289
" />
</g><g transform="rotate(-45.000000 125.4460 36.4000)">
<text x="125.4460" y="36.8000"
textLength="3.1852" font-size="1.0667" lengthAdjust="spacingAndGlyphs"
text-anchor="middle" opacity="0">VSYS</text>
</g>
<g class="stroked-text"><desc>VSYS</desc>
<path d="M124.1667 37.0602
L124.9210 37.4374
" />
<path d="M124.9210 37.4374
L124.5439 36.6831
" />
<path d="M125.2442 37.0602
L125.3520 37.0064
" />
<path d="M125.3520 37.0064
L125.4867 36.8717
" />
<path d="M125.4867 36.8717
L125.5136 36.7909
" />
<path d="M125.5136 36.7909
L125.5136 36.7370
" />
<path d="M125.5136 36.7370
L125.4867 36.6562
" />
<path d="M125.4867 36.6562
L125.4328 36.6023
" />
<path d="M125.4328 36.6023
L125.3520 36.5754
" />
<path d="M125.3520 36.5754
L125.2981 36.5754
" />
<path d="M125.2981 36.5754
L125.2173 36.6023
" />
<path d="M125.2173 36.6023
L125.0826 36.6831
" />
<path d="M125.0826 36.6831
L125.0018 36.7101
" />
<path d="M125.0018 36.7101
L124.9479 36.7101
" />
<path d="M124.9479 36.7101
L124.8671 36.6831
" />
<path d="M124.8671 36.6831
L124.8132 36.6292
" />
<path d="M124.8132 36.6292
L124.7863 36.5484
" />
<path d="M124.7863 36.5484
L124.7863 36.4946
" />
<path d="M124.7863 36.4946
L124.8132 36.4137
" />
<path d="M124.8132 36.4137
L124.9479 36.2791
" />
<path d="M124.9479 36.2791
L125.0557 36.2252
" />
<path d="M125.6752 36.1444
L125.9446 36.4137
" />
<path d="M125.1904 36.0366
L125.6752 36.1444
" />
<path d="M125.6752 36.1444
L125.5675 35.6595
" />
<path d="M126.2679 36.0366
L126.3756 35.9827
" />
<path d="M126.3756 35.9827
L126.5103 35.8481
" />
<path d="M126.5103 35.8481
L126.5372 35.7672
" />
<path d="M126.5372 35.7672
L126.5372 35.7134
" />
<path d="M126.5372 35.7134
L126.5103 35.6326
" />
<path d="M126.5103 35.6326
L126.4564 35.5787
" />
<path d="M126.4564 35.5787
L126.3756 35.5517
" />
<path d="M126.3756 35.5517
L126.3217 35.5517
" />
<path d="M126.3217 35.5517
L126.2409 35.5787
" />
<path d="M126.2409 35.5787
L126.1062 35.6595
" />
<path d="M126.1062 35.6595
L126.0254 35.6864
" />
<path d="M126.0254 35.6864
L125.9716 35.6864
" />
<path d="M125.9716 35.6864
L125.8907 35.6595
" />
<path d="M125.8907 35.6595
L125.8369 35.6056
" />
<path d="M125.8369 35.6056
L125.8099 35.5248
" />
<path d="M125.8099 35.5248
L125.8099 35.4709
" />
<path d="M125.8099 35.4709
L125.8369 35.3901
" />
<path d="M125.8369 35.3901
L125.9716 35.2554
" />
<path d="M125.9716 35.2554
L126.0793 35.2016
" />
</g><g transform="rotate(-90.000000 76.8000 43.4000)">
<text x="76.8000" y="43.8000"
textLength="3.9852" font-size="1.0667" lengthAdjust="spacingAndGlyphs"
text-anchor="middle" opacity="0">SWDIO</text>
</g>
<g class="stroked-text"><desc>SWDIO</desc>
<path d="M77.1242 45.0952
L77.1623 44.9810
" />
<path d="M77.1623 44.9810
L77.1623 44.7905
" />
<path d="M77.1623 44.7905
L77.1242 44.7143
" />
<path d="M77.1242 44.7143
L77.0861 44.6762
" />
<path d="M77.0861 44.6762
L77.0099 44.6381
" />
<path d="M77.0099 44.6381
L76.9337 44.6381
" />
<path d="M76.9337 44.6381
L76.8575 44.6762
" />
<path d="M76.8575 44.6762
L76.8194 44.7143
" />
<path d="M76.8194 44.7143
L76.7813 44.7905
" />
<path d="M76.7813 44.7905
L76.7432 44.9429
" />
<path d="M76.7432 44.9429
L76.7052 45.0190
" />
<path d="M76.7052 45.0190
L76.6671 45.0571
" />
<path d="M76.6671 45.0571
L76.5909 45.0952
" />
<path d="M76.5909 45.0952
L76.5147 45.0952
" />
<path d="M76.5147 45.0952
L76.4385 45.0571
" />
<path d="M76.4385 45.0571
L76.4004 45.0190
" />
<path d="M76.4004 45.0190
L76.3623 44.9429
" />
<path d="M76.3623 44.9429
L76.3623 44.7524
" />
<path d="M76.3623 44.7524
L76.4004 44.6381
" />
<path d="M76.3623 44.3714
L77.1623 44.1810
" />
<path d="M77.1623 44.1810
L76.5909 44.0286
" />
<path d="M76.5909 44.0286
L77.1623 43.8762
" />
<path d="M77.1623 43.8762
L76.3623 43.6857
" />
<path d="M77.1623 43.3810
L76.3623 43.3810
" />
<path d="M76.3623 43.3810
L76.3623 43.1905
" />
<path d="M76.3623 43.1905
L76.4004 43.0762
" />
<path d="M76.4004 43.0762
L76.4766 43.0000
" />
<path d="M76.4766 43.0000
L76.5528 42.9619
" />
<path d="M76.5528 42.9619
L76.7052 42.9238
" />
<path d="M76.7052 42.9238
L76.8194 42.9238
" />
<path d="M76.8194 42.9238
L76.9718 42.9619
" />
<path d="M76.9718 42.9619
L77.0480 43.0000
" />
<path d="M77.0480 43.0000
L77.1242 43.0762
" />
<path d="M77.1242 43.0762
L77.1623 43.1905
" />
<path d="M77.1623 43.1905
L77.1623 43.3810
" />
<path d="M77.1623 42.5810
L76.3623 42.5810
" />
<path d="M76.3623 42.0476
L76.3623 41.8952
" />
<path d="M76.3623 41.8952
L76.4004 41.8190
" />
<path d="M76.4004 41.8190
L76.4766 41.7429
" />
<path d="M76.4766 41.7429
L76.6290 41.7048
" />
<path d="M76.6290 41.7048
L76.8956 41.7048
" />
<path d="M76.8956 41.7048
L77.0480 41.7429
" />
<path d="M77.0480 41.7429
L77.1242 41.8190
" />
<path d="M77.1242 41.8190
L77.1623 41.8952
" />
<path d="M77.1623 41.8952
L77.1623 42.0476
" />
<path d="M77.1623 42.0476
L77.1242 42.1238
" />
<path d="M77.1242 42.1238
L77.0480 42.2000
" />
<path d="M77.0480 42.2000
L76.8956 42.2381
" />
<path d="M76.8956 42.2381
L76.6290 42.2381
" />
<path d="M76.6290 42.2381
L76.4766 42.2000
" />
<path d="M76.4766 42.2000
L76.4004 42.1238
" />
<path d="M76.4004 42.1238
L76.3623 42.0476
" />
</g><g transform="rotate(-45.000000 105.1260 36.5460)">
<text x="105.1260" y="36.9460"
textLength="3.4138" font-size="1.0667" lengthAdjust="spacingAndGlyphs"
text-anchor="middle" opacity="0">GP26</text>
</g>
<g class="stroked-text"><desc>GP26</desc>
<path d="M104.1700 36.9369
L104.0892 36.9638
" />
<path d="M104.0892 36.9638
L104.0084 37.0446
" />
<path d="M104.0084 37.0446
L103.9545 37.1524
" />
<path d="M103.9545 37.1524
L103.9545 37.2601
" />
<path d="M103.9545 37.2601
L103.9814 37.3409
" />
<path d="M103.9814 37.3409
L104.0622 37.4756
" />
<path d="M104.0622 37.4756
L104.1431 37.5564
" />
<path d="M104.1431 37.5564
L104.2777 37.6372
" />
<path d="M104.2777 37.6372
L104.3586 37.6642
" />
<path d="M104.3586 37.6642
L104.4663 37.6642
" />
<path d="M104.4663 37.6642
L104.5741 37.6103
" />
<path d="M104.5741 37.6103
L104.6279 37.5564
" />
<path d="M104.6279 37.5564
L104.6818 37.4487
" />
<path d="M104.6818 37.4487
L104.6818 37.3948
" />
<path d="M104.6818 37.3948
L104.4932 37.2062
" />
<path d="M104.4932 37.2062
L104.3855 37.3140
" />
<path d="M104.9781 37.2062
L104.4124 36.6406
" />
<path d="M104.4124 36.6406
L104.6279 36.4251
" />
<path d="M104.6279 36.4251
L104.7087 36.3981
" />
<path d="M104.7087 36.3981
L104.7626 36.3981
" />
<path d="M104.7626 36.3981
L104.8434 36.4251
" />
<path d="M104.8434 36.4251
L104.9242 36.5059
" />
<path d="M104.9242 36.5059
L104.9512 36.5867
" />
<path d="M104.9512 36.5867
L104.9512 36.6406
" />
<path d="M104.9512 36.6406
L104.9242 36.7214
" />
<path d="M104.9242 36.7214
L104.7087 36.9369
" />
<path d="M105.0051 36.1557
L105.0051 36.1018
" />
<path d="M105.0051 36.1018
L105.0320 36.0210
" />
<path d="M105.0320 36.0210
L105.1667 35.8863
" />
<path d="M105.1667 35.8863
L105.2475 35.8594
" />
<path d="M105.2475 35.8594
L105.3014 35.8594
" />
<path d="M105.3014 35.8594
L105.3822 35.8863
" />
<path d="M105.3822 35.8863
L105.4361 35.9402
" />
<path d="M105.4361 35.9402
L105.4899 36.0479
" />
<path d="M105.4899 36.0479
L105.4899 36.6944
" />
<path d="M105.4899 36.6944
L105.8401 36.3442
" />
<path d="M105.7593 35.2937
L105.6516 35.4014
" />
<path d="M105.6516 35.4014
L105.6246 35.4822
" />
<path d="M105.6246 35.4822
L105.6246 35.5361
" />
<path d="M105.6246 35.5361
L105.6516 35.6708
" />
<path d="M105.6516 35.6708
L105.7324 35.8055
" />
<path d="M105.7324 35.8055
L105.9479 36.0210
" />
<path d="M105.9479 36.0210
L106.0287 36.0479
" />
<path d="M106.0287 36.0479
L106.0826 36.0479
" />
<path d="M106.0826 36.0479
L106.1634 36.0210
" />
<path d="M106.1634 36.0210
L106.2711 35.9132
" />
<path d="M106.2711 35.9132
L106.2981 35.8324
" />
<path d="M106.2981 35.8324
L106.2981 35.7786
" />
<path d="M106.2981 35.7786
L106.2711 35.6977
" />
<path d="M106.2711 35.6977
L106.1364 35.5631
" />
<path d="M106.1364 35.5631
L106.0556 35.5361
" />
<path d="M106.0556 35.5361
L106.0017 35.5361
" />
<path d="M106.0017 35.5361
L105.9209 35.5631
" />
<path d="M105.9209 35.5631
L105.8132 35.6708
" />
<path d="M105.8132 35.6708
L105.7862 35.7516
" />
<path d="M105.7862 35.7516
L105.7862 35.8055
" />
<path d="M105.7862 35.8055
L105.8132 35.8863
" />
</g><g transform="rotate(-45.000000 109.0500 61.3460)">
<text x="109.0500" y="61.7460"
textLength="2.7281" font-size="1.0667" lengthAdjust="spacingAndGlyphs"
text-anchor="middle" opacity="0">GND</text>
</g>
<g class="stroked-text"><desc>GND</desc>
<path d="M108.3364 61.4944
L108.2556 61.5214
" />
<path d="M108.2556 61.5214
L108.1748 61.6022
" />
<path d="M108.1748 61.6022
L108.1209 61.7099
" />
<path d="M108.1209 61.7099
L108.1209 61.8177
" />
<path d="M108.1209 61.8177
L108.1479 61.8985
" />
<path d="M108.1479 61.8985
L108.2287 62.0332
" />
<path d="M108.2287 62.0332
L108.3095 62.1140
" />
<path d="M108.3095 62.1140
L108.4442 62.1948
" />
<path d="M108.4442 62.1948
L108.5250 62.2217
" />
<path d="M108.5250 62.2217
L108.6327 62.2217
" />
<path d="M108.6327 62.2217
L108.7405 62.1679
" />
<path d="M108.7405 62.1679
L108.7944 62.1140
" />
<path d="M108.7944 62.1140
L108.8482 62.0062
" />
<path d="M108.8482 62.0062
L108.8482 61.9524
" />
<path d="M108.8482 61.9524
L108.6597 61.7638
" />
<path d="M108.6597 61.7638
L108.5519 61.8716
" />
<path d="M109.1446 61.7638
L108.5789 61.1981
" />
<path d="M108.5789 61.1981
L109.4678 61.4406
" />
<path d="M109.4678 61.4406
L108.9021 60.8749
" />
<path d="M109.7372 61.1712
L109.1715 60.6055
" />
<path d="M109.1715 60.6055
L109.3062 60.4708
" />
<path d="M109.3062 60.4708
L109.4139 60.4169
" />
<path d="M109.4139 60.4169
L109.5217 60.4169
" />
<path d="M109.5217 60.4169
L109.6025 60.4439
" />
<path d="M109.6025 60.4439
L109.7372 60.5247
" />
<path d="M109.7372 60.5247
L109.8180 60.6055
" />
<path d="M109.8180 60.6055
L109.8988 60.7402
" />
<path d="M109.8988 60.7402
L109.9257 60.8210
" />
<path d="M109.9257 60.8210
L109.9257 60.9287
" />
<path d="M109.9257 60.9287
L109.8719 61.0365
" />
<path d="M109.8719 61.0365
L109.7372 61.1712
" />
</g><g transform="rotate(-45.000000 128.0560 36.3000)">
<text x="128.0560" y="36.7000"
textLength="3.3757" font-size="1.0667" lengthAdjust="spacingAndGlyphs"
text-anchor="middle" opacity="0">VBUS</text>
</g>
<g class="stroked-text"><desc>VBUS</desc>
<path d="M126.7094 37.0276
L127.4637 37.4047
" />
<path d="M127.4637 37.4047
L127.0865 36.6505
" />
<path d="M127.7330 36.5427
L127.8408 36.4888
" />
<path d="M127.8408 36.4888
L127.8947 36.4888
" />
<path d="M127.8947 36.4888
L127.9755 36.5158
" />
<path d="M127.9755 36.5158
L128.0563 36.5966
" />
<path d="M128.0563 36.5966
L128.0832 36.6774
" />
<path d="M128.0832 36.6774
L128.0832 36.7313
" />
<path d="M128.0832 36.7313
L128.0563 36.8121
" />
<path d="M128.0563 36.8121
L127.8408 37.0276
" />
<path d="M127.8408 37.0276
L127.2751 36.4619
" />
<path d="M127.2751 36.4619
L127.4637 36.2733
" />
<path d="M127.4637 36.2733
L127.5445 36.2464
" />
<path d="M127.5445 36.2464
L127.5983 36.2464
" />
<path d="M127.5983 36.2464
L127.6792 36.2733
" />
<path d="M127.6792 36.2733
L127.7330 36.3272
" />
<path d="M127.7330 36.3272
L127.7600 36.4080
" />
<path d="M127.7600 36.4080
L127.7600 36.4619
" />
<path d="M127.7600 36.4619
L127.7330 36.5427
" />
<path d="M127.7330 36.5427
L127.5445 36.7313
" />
<path d="M127.8408 35.8962
L128.2987 36.3542
" />
<path d="M128.2987 36.3542
L128.3795 36.3811
" />
<path d="M128.3795 36.3811
L128.4334 36.3811
" />
<path d="M128.4334 36.3811
L128.5142 36.3542
" />
<path d="M128.5142 36.3542
L128.6220 36.2464
" />
<path d="M128.6220 36.2464
L128.6489 36.1656
" />
<path d="M128.6489 36.1656
L128.6489 36.1117
" />
<path d="M128.6489 36.1117
L128.6220 36.0309
" />
<path d="M128.6220 36.0309
L128.1640 35.5730
" />
<path d="M128.9452 35.8693
L129.0530 35.8154
" />
<path d="M129.0530 35.8154
L129.1876 35.6807
" />
<path d="M129.1876 35.6807
L129.2146 35.5999
" />
<path d="M129.2146 35.5999
L129.2146 35.5460
" />
<path d="M129.2146 35.5460
L129.1876 35.4652
" />
<path d="M129.1876 35.4652
L129.1338 35.4113
" />
<path d="M129.1338 35.4113
L129.0530 35.3844
" />
<path d="M129.0530 35.3844
L128.9991 35.3844
" />
<path d="M128.9991 35.3844
L128.9183 35.4113
" />
<path d="M128.9183 35.4113
L128.7836 35.4922
" />
<path d="M128.7836 35.4922
L128.7028 35.5191
" />
<path d="M128.7028 35.5191
L128.6489 35.5191
" />
<path d="M128.6489 35.5191
L128.5681 35.4922
" />
<path d="M128.5681 35.4922
L128.5142 35.4383
" />
<path d="M128.5142 35.4383
L128.4873 35.3575
" />
<path d="M128.4873 35.3575
L128.4873 35.3036
" />
<path d="M128.4873 35.3036
L128.5142 35.2228
" />
<path d="M128.5142 35.2228
L128.6489 35.0881
" />
<path d="M128.6489 35.0881
L128.7566 35.0342
" />
</g><g transform="rotate(-45.000000 86.1900 61.6000)">
<text x="86.1900" y="62.0000"
textLength="3.4138" font-size="1.0667" lengthAdjust="spacingAndGlyphs"
text-anchor="middle" opacity="0">GP13</text>
</g>
<g class="stroked-text"><desc>GP13</desc>
<path d="M85.2340 61.9909
L85.1532 62.0178
" />
<path d="M85.1532 62.0178
L85.0724 62.0986
" />
<path d="M85.0724 62.0986
L85.0185 62.2064
" />
<path d="M85.0185 62.2064
L85.0185 62.3141
" />
<path d="M85.0185 62.3141
L85.0454 62.3949
" />
<path d="M85.0454 62.3949
L85.1262 62.5296
" />
<path d="M85.1262 62.5296
L85.2071 62.6104
" />
<path d="M85.2071 62.6104
L85.3417 62.6912
" />
<path d="M85.3417 62.6912
L85.4226 62.7182
" />
<path d="M85.4226 62.7182
L85.5303 62.7182
" />
<path d="M85.5303 62.7182
L85.6381 62.6643
" />
<path d="M85.6381 62.6643
L85.6919 62.6104
" />
<path d="M85.6919 62.6104
L85.7458 62.5027
" />
<path d="M85.7458 62.5027
L85.7458 62.4488
" />
<path d="M85.7458 62.4488
L85.5572 62.2602
" />
<path d="M85.5572 62.2602
L85.4495 62.3680
" />
<path d="M86.0421 62.2602
L85.4764 61.6946
" />
<path d="M85.4764 61.6946
L85.6919 61.4791
" />
<path d="M85.6919 61.4791
L85.7727 61.4521
" />
<path d="M85.7727 61.4521
L85.8266 61.4521
" />
<path d="M85.8266 61.4521
L85.9074 61.4791
" />
<path d="M85.9074 61.4791
L85.9882 61.5599
" />
<path d="M85.9882 61.5599
L86.0152 61.6407
" />
<path d="M86.0152 61.6407
L86.0152 61.6946
" />
<path d="M86.0152 61.6946
L85.9882 61.7754
" />
<path d="M85.9882 61.7754
L85.7727 61.9909
" />
<path d="M86.9041 61.3982
L86.5809 61.7215
" />
<path d="M86.7425 61.5599
L86.1768 60.9942
" />
<path d="M86.1768 60.9942
L86.2037 61.1289
" />
<path d="M86.2037 61.1289
L86.2037 61.2366
" />
<path d="M86.2037 61.2366
L86.1768 61.3174
" />
<path d="M86.5270 60.6440
L86.8772 60.2938
" />
<path d="M86.8772 60.2938
L86.9041 60.6979
" />
<path d="M86.9041 60.6979
L86.9849 60.6171
" />
<path d="M86.9849 60.6171
L87.0657 60.5901
" />
<path d="M87.0657 60.5901
L87.1196 60.5901
" />
<path d="M87.1196 60.5901
L87.2004 60.6171
" />
<path d="M87.2004 60.6171
L87.3351 60.7517
" />
<path d="M87.3351 60.7517
L87.3621 60.8326
" />
<path d="M87.3621 60.8326
L87.3621 60.8864
" />
<path d="M87.3621 60.8864
L87.3351 60.9672
" />
<path d="M87.3351 60.9672
L87.1735 61.1289
" />
<path d="M87.1735 61.1289
L87.0927 61.1558
" />
<path d="M87.0927 61.1558
L87.0388 61.1558
" />
</g><g transform="rotate(-45.000000 89.8860 36.5460)">
<text x="89.8860" y="36.9460"
textLength="3.4138" font-size="1.0667" lengthAdjust="spacingAndGlyphs"
text-anchor="middle" opacity="0">GP19</text>
</g>
<g class="stroked-text"><desc>GP19</desc>
<path d="M88.9300 36.9369
L88.8492 36.9638
" />
<path d="M88.8492 36.9638
L88.7684 37.0446
" />
<path d="M88.7684 37.0446
L88.7145 37.1524
" />
<path d="M88.7145 37.1524
L88.7145 37.2601
" />
<path d="M88.7145 37.2601
L88.7414 37.3409
" />
<path d="M88.7414 37.3409
L88.8222 37.4756
" />
<path d="M88.8222 37.4756
L88.9031 37.5564
" />
<path d="M88.9031 37.5564
L89.0377 37.6372
" />
<path d="M89.0377 37.6372
L89.1186 37.6642
" />
<path d="M89.1186 37.6642
L89.2263 37.6642
" />
<path d="M89.2263 37.6642
L89.3341 37.6103
" />
<path d="M89.3341 37.6103
L89.3879 37.5564
" />
<path d="M89.3879 37.5564
L89.4418 37.4487
" />
<path d="M89.4418 37.4487
L89.4418 37.3948
" />
<path d="M89.4418 37.3948
L89.2532 37.2062
" />
<path d="M89.2532 37.2062
L89.1455 37.3140
" />
<path d="M89.7381 37.2062
L89.1724 36.6406
" />
<path d="M89.1724 36.6406
L89.3879 36.4251
" />
<path d="M89.3879 36.4251
L89.4687 36.3981
" />
<path d="M89.4687 36.3981
L89.5226 36.3981
" />
<path d="M89.5226 36.3981
L89.6034 36.4251
" />
<path d="M89.6034 36.4251
L89.6842 36.5059
" />
<path d="M89.6842 36.5059
L89.7112 36.5867
" />
<path d="M89.7112 36.5867
L89.7112 36.6406
" />
<path d="M89.7112 36.6406
L89.6842 36.7214
" />
<path d="M89.6842 36.7214
L89.4687 36.9369
" />
<path d="M90.6001 36.3442
L90.2769 36.6675
" />
<path d="M90.4385 36.5059
L89.8728 35.9402
" />
<path d="M89.8728 35.9402
L89.8997 36.0749
" />
<path d="M89.8997 36.0749
L89.8997 36.1826
" />
<path d="M89.8997 36.1826
L89.8728 36.2634
" />
<path d="M90.8695 36.0749
L90.9772 35.9671
" />
<path d="M90.9772 35.9671
L91.0042 35.8863
" />
<path d="M91.0042 35.8863
L91.0042 35.8324
" />
<path d="M91.0042 35.8324
L90.9772 35.6977
" />
<path d="M90.9772 35.6977
L90.8964 35.5631
" />
<path d="M90.8964 35.5631
L90.6809 35.3476
" />
<path d="M90.6809 35.3476
L90.6001 35.3206
" />
<path d="M90.6001 35.3206
L90.5462 35.3206
" />
<path d="M90.5462 35.3206
L90.4654 35.3476
" />
<path d="M90.4654 35.3476
L90.3577 35.4553
" />
<path d="M90.3577 35.4553
L90.3307 35.5361
" />
<path d="M90.3307 35.5361
L90.3307 35.5900
" />
<path d="M90.3307 35.5900
L90.3577 35.6708
" />
<path d="M90.3577 35.6708
L90.4924 35.8055
" />
<path d="M90.4924 35.8055
L90.5732 35.8324
" />
<path d="M90.5732 35.8324
L90.6271 35.8324
" />
<path d="M90.6271 35.8324
L90.7079 35.8055
" />
<path d="M90.7079 35.8055
L90.8156 35.6977
" />
<path d="M90.8156 35.6977
L90.8426 35.6169
" />
<path d="M90.8426 35.6169
L90.8426 35.5631
" />
<path d="M90.8426 35.5631
L90.8156 35.4822
" />
</g><g transform="rotate(-45.000000 88.7300 61.7460)">
<text x="88.7300" y="62.1460"
textLength="3.4138" font-size="1.0667" lengthAdjust="spacingAndGlyphs"
text-anchor="middle" opacity="0">GP12</text>
</g>
<g class="stroked-text"><desc>GP12</desc>
<path d="M87.7740 62.1369
L87.6932 62.1638
" />
<path d="M87.6932 62.1638
L87.6124 62.2446
" />
<path d="M87.6124 62.2446
L87.5585 62.3524
" />
<path d="M87.5585 62.3524
L87.5585 62.4601
" />
<path d="M87.5585 62.4601
L87.5854 62.5409
" />
<path d="M87.5854 62.5409
L87.6662 62.6756
" />
<path d="M87.6662 62.6756
L87.7471 62.7564
" />
<path d="M87.7471 62.7564
L87.8817 62.8372
" />
<path d="M87.8817 62.8372
L87.9626 62.8642
" />
<path d="M87.9626 62.8642
L88.0703 62.8642
" />
<path d="M88.0703 62.8642
L88.1781 62.8103
" />
<path d="M88.1781 62.8103
L88.2319 62.7564
" />
<path d="M88.2319 62.7564
L88.2858 62.6487
" />
<path d="M88.2858 62.6487
L88.2858 62.5948
" />
<path d="M88.2858 62.5948
L88.0972 62.4062
" />
<path d="M88.0972 62.4062
L87.9895 62.5140
" />
<path d="M88.5821 62.4062
L88.0164 61.8406
" />
<path d="M88.0164 61.8406
L88.2319 61.6251
" />
<path d="M88.2319 61.6251
L88.3127 61.5981
" />
<path d="M88.3127 61.5981
L88.3666 61.5981
" />
<path d="M88.3666 61.5981
L88.4474 61.6251
" />
<path d="M88.4474 61.6251
L88.5282 61.7059
" />
<path d="M88.5282 61.7059
L88.5552 61.7867
" />
<path d="M88.5552 61.7867
L88.5552 61.8406
" />
<path d="M88.5552 61.8406
L88.5282 61.9214
" />
<path d="M88.5282 61.9214
L88.3127 62.1369
" />
<path d="M89.4441 61.5442
L89.1209 61.8675
" />
<path d="M89.2825 61.7059
L88.7168 61.1402
" />
<path d="M88.7168 61.1402
L88.7437 61.2749
" />
<path d="M88.7437 61.2749
L88.7437 61.3826
" />
<path d="M88.7437 61.3826
L88.7168 61.4634
" />
<path d="M89.1478 60.8169
L89.1478 60.7631
" />
<path d="M89.1478 60.7631
L89.1747 60.6822
" />
<path d="M89.1747 60.6822
L89.3094 60.5476
" />
<path d="M89.3094 60.5476
L89.3902 60.5206
" />
<path d="M89.3902 60.5206
L89.4441 60.5206
" />
<path d="M89.4441 60.5206
L89.5249 60.5476
" />
<path d="M89.5249 60.5476
L89.5788 60.6014
" />
<path d="M89.5788 60.6014
L89.6327 60.7092
" />
<path d="M89.6327 60.7092
L89.6327 61.3557
" />
<path d="M89.6327 61.3557
L89.9829 61.0055
" />
</g><g transform="rotate(-45.000000 106.5100 61.3460)">
<text x="106.5100" y="61.7460"
textLength="2.6519" font-size="1.0667" lengthAdjust="spacingAndGlyphs"
text-anchor="middle" opacity="0">GP6</text>
</g>
<g class="stroked-text"><desc>GP6</desc>
<path d="M105.8234 61.4675
L105.7426 61.4944
" />
<path d="M105.7426 61.4944
L105.6617 61.5752
" />
<path d="M105.6617 61.5752
L105.6079 61.6830
" />
<path d="M105.6079 61.6830
L105.6079 61.7907
" />
<path d="M105.6079 61.7907
L105.6348 61.8716
" />
<path d="M105.6348 61.8716
L105.7156 62.0062
" />
<path d="M105.7156 62.0062
L105.7964 62.0871
" />
<path d="M105.7964 62.0871
L105.9311 62.1679
" />
<path d="M105.9311 62.1679
L106.0119 62.1948
" />
<path d="M106.0119 62.1948
L106.1197 62.1948
" />
<path d="M106.1197 62.1948
L106.2274 62.1409
" />
<path d="M106.2274 62.1409
L106.2813 62.0871
" />
<path d="M106.2813 62.0871
L106.3352 61.9793
" />
<path d="M106.3352 61.9793
L106.3352 61.9254
" />
<path d="M106.3352 61.9254
L106.1466 61.7369
" />
<path d="M106.1466 61.7369
L106.0389 61.8446
" />
<path d="M106.6315 61.7369
L106.0658 61.1712
" />
<path d="M106.0658 61.1712
L106.2813 60.9557
" />
<path d="M106.2813 60.9557
L106.3621 60.9287
" />
<path d="M106.3621 60.9287
L106.4160 60.9287
" />
<path d="M106.4160 60.9287
L106.4968 60.9557
" />
<path d="M106.4968 60.9557
L106.5776 61.0365
" />
<path d="M106.5776 61.0365
L106.6046 61.1173
" />
<path d="M106.6046 61.1173
L106.6046 61.1712
" />
<path d="M106.6046 61.1712
L106.5776 61.2520
" />
<path d="M106.5776 61.2520
L106.3621 61.4675
" />
<path d="M106.8739 60.3631
L106.7662 60.4708
" />
<path d="M106.7662 60.4708
L106.7392 60.5516
" />
<path d="M106.7392 60.5516
L106.7392 60.6055
" />
<path d="M106.7392 60.6055
L106.7662 60.7402
" />
<path d="M106.7662 60.7402
L106.8470 60.8749
" />
<path d="M106.8470 60.8749
L107.0625 61.0904
" />
<path d="M107.0625 61.0904
L107.1433 61.1173
" />
<path d="M107.1433 61.1173
L107.1972 61.1173
" />
<path d="M107.1972 61.1173
L107.2780 61.0904
" />
<path d="M107.2780 61.0904
L107.3857 60.9826
" />
<path d="M107.3857 60.9826
L107.4127 60.9018
" />
<path d="M107.4127 60.9018
L107.4127 60.8479
" />
<path d="M107.4127 60.8479
L107.3857 60.7671
" />
<path d="M107.3857 60.7671
L107.2511 60.6324
" />
<path d="M107.2511 60.6324
L107.1702 60.6055
" />
<path d="M107.1702 60.6055
L107.1164 60.6055
" />
<path d="M107.1164 60.6055
L107.0356 60.6324
" />
<path d="M107.0356 60.6324
L106.9278 60.7402
" />
<path d="M106.9278 60.7402
L106.9009 60.8210
" />
<path d="M106.9009 60.8210
L106.9009 60.8749
" />
<path d="M106.9009 60.8749
L106.9278 60.9557
" />
</g><g transform="rotate(-45.000000 124.3000 61.4460)">
<text x="124.3000" y="61.8460"
textLength="2.6519" font-size="1.0667" lengthAdjust="spacingAndGlyphs"
text-anchor="middle" opacity="0">GP1</text>
</g>
<g class="stroked-text"><desc>GP1</desc>
<path d="M123.6134 61.5675
L123.5326 61.5944
" />
<path d="M123.5326 61.5944
L123.4517 61.6752
" />
<path d="M123.4517 61.6752
L123.3979 61.7830
" />
<path d="M123.3979 61.7830
L123.3979 61.8907
" />
<path d="M123.3979 61.8907
L123.4248 61.9716
" />
<path d="M123.4248 61.9716
L123.5056 62.1062
" />
<path d="M123.5056 62.1062
L123.5864 62.1871
" />
<path d="M123.5864 62.1871
L123.7211 62.2679
" />
<path d="M123.7211 62.2679
L123.8019 62.2948
" />
<path d="M123.8019 62.2948
L123.9097 62.2948
" />
<path d="M123.9097 62.2948
L124.0174 62.2409
" />
<path d="M124.0174 62.2409
L124.0713 62.1871
" />
<path d="M124.0713 62.1871
L124.1252 62.0793
" />
<path d="M124.1252 62.0793
L124.1252 62.0254
" />
<path d="M124.1252 62.0254
L123.9366 61.8369
" />
<path d="M123.9366 61.8369
L123.8289 61.9446
" />
<path d="M124.4215 61.8369
L123.8558 61.2712
" />
<path d="M123.8558 61.2712
L124.0713 61.0557
" />
<path d="M124.0713 61.0557
L124.1521 61.0287
" />
<path d="M124.1521 61.0287
L124.2060 61.0287
" />
<path d="M124.2060 61.0287
L124.2868 61.0557
" />
<path d="M124.2868 61.0557
L124.3676 61.1365
" />
<path d="M124.3676 61.1365
L124.3946 61.2173
" />
<path d="M124.3946 61.2173
L124.3946 61.2712
" />
<path d="M124.3946 61.2712
L124.3676 61.3520
" />
<path d="M124.3676 61.3520
L124.1521 61.5675
" />
<path d="M125.2835 60.9749
L124.9602 61.2981
" />
<path d="M125.1219 61.1365
L124.5562 60.5708
" />
<path d="M124.5562 60.5708
L124.5831 60.7055
" />
<path d="M124.5831 60.7055
L124.5831 60.8132
" />
<path d="M124.5831 60.8132
L124.5562 60.8941
" />
</g><g transform="rotate(-45.000000 102.5860 36.6000)">
<text x="102.5860" y="37.0000"
textLength="2.7662" font-size="1.0667" lengthAdjust="spacingAndGlyphs"
text-anchor="middle" opacity="0">RUN</text>
</g>
<g class="stroked-text"><desc>RUN</desc>
<path d="M102.4247 37.2737
L101.9667 37.1929
" />
<path d="M102.1014 37.5970
L101.5357 37.0313
" />
<path d="M101.5357 37.0313
L101.7512 36.8158
" />
<path d="M101.7512 36.8158
L101.8320 36.7888
" />
<path d="M101.8320 36.7888
L101.8859 36.7888
" />
<path d="M101.8859 36.7888
L101.9667 36.8158
" />
<path d="M101.9667 36.8158
L102.0475 36.8966
" />
<path d="M102.0475 36.8966
L102.0745 36.9774
" />
<path d="M102.0745 36.9774
L102.0745 37.0313
" />
<path d="M102.0745 37.0313
L102.0475 37.1121
" />
<path d="M102.0475 37.1121
L101.8320 37.3276
" />
<path d="M102.1014 36.4656
L102.5593 36.9235
" />
<path d="M102.5593 36.9235
L102.6402 36.9505
" />
<path d="M102.6402 36.9505
L102.6940 36.9505
" />
<path d="M102.6940 36.9505
L102.7748 36.9235
" />
<path d="M102.7748 36.9235
L102.8826 36.8158
" />
<path d="M102.8826 36.8158
L102.9095 36.7350
" />
<path d="M102.9095 36.7350
L102.9095 36.6811
" />
<path d="M102.9095 36.6811
L102.8826 36.6003
" />
<path d="M102.8826 36.6003
L102.4247 36.1423
" />
<path d="M103.2597 36.4387
L102.6940 35.8730
" />
<path d="M102.6940 35.8730
L103.5830 36.1154
" />
<path d="M103.5830 36.1154
L103.0173 35.5497
" />
</g><g transform="rotate(-45.000000 87.3460 36.5460)">
<text x="87.3460" y="36.9460"
textLength="3.4138" font-size="1.0667" lengthAdjust="spacingAndGlyphs"
text-anchor="middle" opacity="0">GP18</text>
</g>
<g class="stroked-text"><desc>GP18</desc>
<path d="M86.3900 36.9369
L86.3092 36.9638
" />
<path d="M86.3092 36.9638
L86.2284 37.0446
" />
<path d="M86.2284 37.0446
L86.1745 37.1524
" />
<path d="M86.1745 37.1524
L86.1745 37.2601
" />
<path d="M86.1745 37.2601
L86.2014 37.3409
" />
<path d="M86.2014 37.3409
L86.2822 37.4756
" />
<path d="M86.2822 37.4756
L86.3631 37.5564
" />
<path d="M86.3631 37.5564
L86.4977 37.6372
" />
<path d="M86.4977 37.6372
L86.5786 37.6642
" />
<path d="M86.5786 37.6642
L86.6863 37.6642
" />
<path d="M86.6863 37.6642
L86.7941 37.6103
" />
<path d="M86.7941 37.6103
L86.8479 37.5564
" />
<path d="M86.8479 37.5564
L86.9018 37.4487
" />
<path d="M86.9018 37.4487
L86.9018 37.3948
" />
<path d="M86.9018 37.3948
L86.7132 37.2062
" />
<path d="M86.7132 37.2062
L86.6055 37.3140
" />
<path d="M87.1981 37.2062
L86.6324 36.6406
" />
<path d="M86.6324 36.6406
L86.8479 36.4251
" />
<path d="M86.8479 36.4251
L86.9287 36.3981
" />
<path d="M86.9287 36.3981
L86.9826 36.3981
" />
<path d="M86.9826 36.3981
L87.0634 36.4251
" />
<path d="M87.0634 36.4251
L87.1442 36.5059
" />
<path d="M87.1442 36.5059
L87.1712 36.5867
" />
<path d="M87.1712 36.5867
L87.1712 36.6406
" />
<path d="M87.1712 36.6406
L87.1442 36.7214
" />
<path d="M87.1442 36.7214
L86.9287 36.9369
" />
<path d="M88.0601 36.3442
L87.7369 36.6675
" />
<path d="M87.8985 36.5059
L87.3328 35.9402
" />
<path d="M87.3328 35.9402
L87.3597 36.0749
" />
<path d="M87.3597 36.0749
L87.3597 36.1826
" />
<path d="M87.3597 36.1826
L87.3328 36.2634
" />
<path d="M88.0601 35.6977
L87.9793 35.7247
" />
<path d="M87.9793 35.7247
L87.9254 35.7247
" />
<path d="M87.9254 35.7247
L87.8446 35.6977
" />
<path d="M87.8446 35.6977
L87.8177 35.6708
" />
<path d="M87.8177 35.6708
L87.7907 35.5900
" />
<path d="M87.7907 35.5900
L87.7907 35.5361
" />
<path d="M87.7907 35.5361
L87.8177 35.4553
" />
<path d="M87.8177 35.4553
L87.9254 35.3476
" />
<path d="M87.9254 35.3476
L88.0062 35.3206
" />
<path d="M88.0062 35.3206
L88.0601 35.3206
" />
<path d="M88.0601 35.3206
L88.1409 35.3476
" />
<path d="M88.1409 35.3476
L88.1679 35.3745
" />
<path d="M88.1679 35.3745
L88.1948 35.4553
" />
<path d="M88.1948 35.4553
L88.1948 35.5092
" />
<path d="M88.1948 35.5092
L88.1679 35.5900
" />
<path d="M88.1679 35.5900
L88.0601 35.6977
" />
<path d="M88.0601 35.6977
L88.0332 35.7786
" />
<path d="M88.0332 35.7786
L88.0332 35.8324
" />
<path d="M88.0332 35.8324
L88.0601 35.9132
" />
<path d="M88.0601 35.9132
L88.1679 36.0210
" />
<path d="M88.1679 36.0210
L88.2487 36.0479
" />
<path d="M88.2487 36.0479
L88.3026 36.0479
" />
<path d="M88.3026 36.0479
L88.3834 36.0210
" />
<path d="M88.3834 36.0210
L88.4911 35.9132
" />
<path d="M88.4911 35.9132
L88.5181 35.8324
" />
<path d="M88.5181 35.8324
L88.5181 35.7786
" />
<path d="M88.5181 35.7786
L88.4911 35.6977
" />
<path d="M88.4911 35.6977
L88.3834 35.5900
" />
<path d="M88.3834 35.5900
L88.3026 35.5631
" />
<path d="M88.3026 35.5631
L88.2487 35.5631
" />
<path d="M88.2487 35.5631
L88.1679 35.5900
" />
</g><g transform="rotate(-45.000000 116.6700 61.3460)">
<text x="116.6700" y="61.7460"
textLength="2.6519" font-size="1.0667" lengthAdjust="spacingAndGlyphs"
text-anchor="middle" opacity="0">GP3</text>
</g>
<g class="stroked-text"><desc>GP3</desc>
<path d="M115.9834 61.4675
L115.9026 61.4944
" />
<path d="M115.9026 61.4944
L115.8217 61.5752
" />
<path d="M115.8217 61.5752
L115.7679 61.6830
" />
<path d="M115.7679 61.6830
L115.7679 61.7907
" />
<path d="M115.7679 61.7907
L115.7948 61.8716
" />
<path d="M115.7948 61.8716
L115.8756 62.0062
" />
<path d="M115.8756 62.0062
L115.9564 62.0871
" />
<path d="M115.9564 62.0871
L116.0911 62.1679
" />
<path d="M116.0911 62.1679
L116.1719 62.1948
" />
<path d="M116.1719 62.1948
L116.2797 62.1948
" />
<path d="M116.2797 62.1948
L116.3874 62.1409
" />
<path d="M116.3874 62.1409
L116.4413 62.0871
" />
<path d="M116.4413 62.0871
L116.4952 61.9793
" />
<path d="M116.4952 61.9793
L116.4952 61.9254
" />
<path d="M116.4952 61.9254
L116.3066 61.7369
" />
<path d="M116.3066 61.7369
L116.1989 61.8446
" />
<path d="M116.7915 61.7369
L116.2258 61.1712
" />
<path d="M116.2258 61.1712
L116.4413 60.9557
" />
<path d="M116.4413 60.9557
L116.5221 60.9287
" />
<path d="M116.5221 60.9287
L116.5760 60.9287
" />
<path d="M116.5760 60.9287
L116.6568 60.9557
" />
<path d="M116.6568 60.9557
L116.7376 61.0365
" />
<path d="M116.7376 61.0365
L116.7646 61.1173
" />
<path d="M116.7646 61.1173
L116.7646 61.1712
" />
<path d="M116.7646 61.1712
L116.7376 61.2520
" />
<path d="M116.7376 61.2520
L116.5221 61.4675
" />
<path d="M116.7376 60.6594
L117.0878 60.3092
" />
<path d="M117.0878 60.3092
L117.1147 60.7132
" />
<path d="M117.1147 60.7132
L117.1956 60.6324
" />
<path d="M117.1956 60.6324
L117.2764 60.6055
" />
<path d="M117.2764 60.6055
L117.3302 60.6055
" />
<path d="M117.3302 60.6055
L117.4111 60.6324
" />
<path d="M117.4111 60.6324
L117.5457 60.7671
" />
<path d="M117.5457 60.7671
L117.5727 60.8479
" />
<path d="M117.5727 60.8479
L117.5727 60.9018
" />
<path d="M117.5727 60.9018
L117.5457 60.9826
" />
<path d="M117.5457 60.9826
L117.3841 61.1442
" />
<path d="M117.3841 61.1442
L117.3033 61.1712
" />
<path d="M117.3033 61.1712
L117.2494 61.1712
" />
</g><g transform="rotate(-45.000000 82.2660 36.5460)">
<text x="82.2660" y="36.9460"
textLength="3.4138" font-size="1.0667" lengthAdjust="spacingAndGlyphs"
text-anchor="middle" opacity="0">GP17</text>
</g>
<g class="stroked-text"><desc>GP17</desc>
<path d="M81.3100 36.9369
L81.2292 36.9638
" />
<path d="M81.2292 36.9638
L81.1484 37.0446
" />
<path d="M81.1484 37.0446
L81.0945 37.1524
" />
<path d="M81.0945 37.1524
L81.0945 37.2601
" />
<path d="M81.0945 37.2601
L81.1214 37.3409
" />
<path d="M81.1214 37.3409
L81.2022 37.4756
" />
<path d="M81.2022 37.4756
L81.2831 37.5564
" />
<path d="M81.2831 37.5564
L81.4177 37.6372
" />
<path d="M81.4177 37.6372
L81.4986 37.6642
" />
<path d="M81.4986 37.6642
L81.6063 37.6642
" />
<path d="M81.6063 37.6642
L81.7141 37.6103
" />
<path d="M81.7141 37.6103
L81.7679 37.5564
" />
<path d="M81.7679 37.5564
L81.8218 37.4487
" />
<path d="M81.8218 37.4487
L81.8218 37.3948
" />
<path d="M81.8218 37.3948
L81.6332 37.2062
" />
<path d="M81.6332 37.2062
L81.5255 37.3140
" />
<path d="M82.1181 37.2062
L81.5524 36.6406
" />
<path d="M81.5524 36.6406
L81.7679 36.4251
" />
<path d="M81.7679 36.4251
L81.8487 36.3981
" />
<path d="M81.8487 36.3981
L81.9026 36.3981
" />
<path d="M81.9026 36.3981
L81.9834 36.4251
" />
<path d="M81.9834 36.4251
L82.0642 36.5059
" />
<path d="M82.0642 36.5059
L82.0912 36.5867
" />
<path d="M82.0912 36.5867
L82.0912 36.6406
" />
<path d="M82.0912 36.6406
L82.0642 36.7214
" />
<path d="M82.0642 36.7214
L81.8487 36.9369
" />
<path d="M82.9801 36.3442
L82.6569 36.6675
" />
<path d="M82.8185 36.5059
L82.2528 35.9402
" />
<path d="M82.2528 35.9402
L82.2797 36.0749
" />
<path d="M82.2797 36.0749
L82.2797 36.1826
" />
<path d="M82.2797 36.1826
L82.2528 36.2634
" />
<path d="M82.6030 35.5900
L82.9801 35.2129
" />
<path d="M82.9801 35.2129
L83.3034 36.0210
" />
</g><g transform="rotate(-45.000000 119.2100 61.4460)">
<text x="119.2100" y="61.8460"
textLength="2.6519" font-size="1.0667" lengthAdjust="spacingAndGlyphs"
text-anchor="middle" opacity="0">GP2</text>
</g>
<g class="stroked-text"><desc>GP2</desc>
<path d="M118.5234 61.5675
L118.4426 61.5944
" />
<path d="M118.4426 61.5944
L118.3617 61.6752
" />
<path d="M118.3617 61.6752
L118.3079 61.7830
" />
<path d="M118.3079 61.7830
L118.3079 61.8907
" />
<path d="M118.3079 61.8907
L118.3348 61.9716
" />
<path d="M118.3348 61.9716
L118.4156 62.1062
" />
<path d="M118.4156 62.1062
L118.4964 62.1871
" />
<path d="M118.4964 62.1871
L118.6311 62.2679
" />
<path d="M118.6311 62.2679
L118.7119 62.2948
" />
<path d="M118.7119 62.2948
L118.8197 62.2948
" />
<path d="M118.8197 62.2948
L118.9274 62.2409
" />
<path d="M118.9274 62.2409
L118.9813 62.1871
" />
<path d="M118.9813 62.1871
L119.0352 62.0793
" />
<path d="M119.0352 62.0793
L119.0352 62.0254
" />
<path d="M119.0352 62.0254
L118.8466 61.8369
" />
<path d="M118.8466 61.8369
L118.7389 61.9446
" />
<path d="M119.3315 61.8369
L118.7658 61.2712
" />
<path d="M118.7658 61.2712
L118.9813 61.0557
" />
<path d="M118.9813 61.0557
L119.0621 61.0287
" />
<path d="M119.0621 61.0287
L119.1160 61.0287
" />
<path d="M119.1160 61.0287
L119.1968 61.0557
" />
<path d="M119.1968 61.0557
L119.2776 61.1365
" />
<path d="M119.2776 61.1365
L119.3046 61.2173
" />
<path d="M119.3046 61.2173
L119.3046 61.2712
" />
<path d="M119.3046 61.2712
L119.2776 61.3520
" />
<path d="M119.2776 61.3520
L119.0621 61.5675
" />
<path d="M119.3584 60.7863
L119.3584 60.7324
" />
<path d="M119.3584 60.7324
L119.3854 60.6516
" />
<path d="M119.3854 60.6516
L119.5201 60.5169
" />
<path d="M119.5201 60.5169
L119.6009 60.4900
" />
<path d="M119.6009 60.4900
L119.6547 60.4900
" />
<path d="M119.6547 60.4900
L119.7356 60.5169
" />
<path d="M119.7356 60.5169
L119.7894 60.5708
" />
<path d="M119.7894 60.5708
L119.8433 60.6786
" />
<path d="M119.8433 60.6786
L119.8433 61.3251
" />
<path d="M119.8433 61.3251
L120.1935 60.9749
" />
</g><g transform="rotate(-45.000000 96.9220 61.2830)">
<text x="96.9220" y="61.6830"
textLength="2.7281" font-size="1.0667" lengthAdjust="spacingAndGlyphs"
text-anchor="middle" opacity="0">GND</text>
</g>
<g class="stroked-text"><desc>GND</desc>
<path d="M96.2084 61.4314
L96.1276 61.4584
" />
<path d="M96.1276 61.4584
L96.0468 61.5392
" />
<path d="M96.0468 61.5392
L95.9929 61.6469
" />
<path d="M95.9929 61.6469
L95.9929 61.7547
" />
<path d="M95.9929 61.7547
L96.0199 61.8355
" />
<path d="M96.0199 61.8355
L96.1007 61.9702
" />
<path d="M96.1007 61.9702
L96.1815 62.0510
" />
<path d="M96.1815 62.0510
L96.3162 62.1318
" />
<path d="M96.3162 62.1318
L96.3970 62.1587
" />
<path d="M96.3970 62.1587
L96.5047 62.1587
" />
<path d="M96.5047 62.1587
L96.6125 62.1049
" />
<path d="M96.6125 62.1049
L96.6664 62.0510
" />
<path d="M96.6664 62.0510
L96.7202 61.9432
" />
<path d="M96.7202 61.9432
L96.7202 61.8894
" />
<path d="M96.7202 61.8894
L96.5317 61.7008
" />
<path d="M96.5317 61.7008
L96.4239 61.8086
" />
<path d="M97.0166 61.7008
L96.4509 61.1351
" />
<path d="M96.4509 61.1351
L97.3398 61.3776
" />
<path d="M97.3398 61.3776
L96.7741 60.8119
" />
<path d="M97.6092 61.1082
L97.0435 60.5425
" />
<path d="M97.0435 60.5425
L97.1782 60.4078
" />
<path d="M97.1782 60.4078
L97.2859 60.3539
" />
<path d="M97.2859 60.3539
L97.3937 60.3539
" />
<path d="M97.3937 60.3539
L97.4745 60.3809
" />
<path d="M97.4745 60.3809
L97.6092 60.4617
" />
<path d="M97.6092 60.4617
L97.6900 60.5425
" />
<path d="M97.6900 60.5425
L97.7708 60.6772
" />
<path d="M97.7708 60.6772
L97.7977 60.7580
" />
<path d="M97.7977 60.7580
L97.7977 60.8657
" />
<path d="M97.7977 60.8657
L97.7439 60.9735
" />
<path d="M97.7439 60.9735
L97.6092 61.1082
" />
</g><g transform="rotate(-45.000000 100.0460 36.5460)">
<text x="100.0460" y="36.9460"
textLength="3.4138" font-size="1.0667" lengthAdjust="spacingAndGlyphs"
text-anchor="middle" opacity="0">GP22</text>
</g>
<g class="stroked-text"><desc>GP22</desc>
<path d="M99.0900 36.9369
L99.0092 36.9638
" />
<path d="M99.0092 36.9638
L98.9284 37.0446
" />
<path d="M98.9284 37.0446
L98.8745 37.1524
" />
<path d="M98.8745 37.1524
L98.8745 37.2601
" />
<path d="M98.8745 37.2601
L98.9014 37.3409
" />
<path d="M98.9014 37.3409
L98.9822 37.4756
" />
<path d="M98.9822 37.4756
L99.0631 37.5564
" />
<path d="M99.0631 37.5564
L99.1977 37.6372
" />
<path d="M99.1977 37.6372
L99.2786 37.6642
" />
<path d="M99.2786 37.6642
L99.3863 37.6642
" />
<path d="M99.3863 37.6642
L99.4941 37.6103
" />
<path d="M99.4941 37.6103
L99.5479 37.5564
" />
<path d="M99.5479 37.5564
L99.6018 37.4487
" />
<path d="M99.6018 37.4487
L99.6018 37.3948
" />
<path d="M99.6018 37.3948
L99.4132 37.2062
" />
<path d="M99.4132 37.2062
L99.3055 37.3140
" />
<path d="M99.8981 37.2062
L99.3324 36.6406
" />
<path d="M99.3324 36.6406
L99.5479 36.4251
" />
<path d="M99.5479 36.4251
L99.6287 36.3981
" />
<path d="M99.6287 36.3981
L99.6826 36.3981
" />
<path d="M99.6826 36.3981
L99.7634 36.4251
" />
<path d="M99.7634 36.4251
L99.8442 36.5059
" />
<path d="M99.8442 36.5059
L99.8712 36.5867
" />
<path d="M99.8712 36.5867
L99.8712 36.6406
" />
<path d="M99.8712 36.6406
L99.8442 36.7214
" />
<path d="M99.8442 36.7214
L99.6287 36.9369
" />
<path d="M99.9251 36.1557
L99.9251 36.1018
" />
<path d="M99.9251 36.1018
L99.9520 36.0210
" />
<path d="M99.9520 36.0210
L100.0867 35.8863
" />
<path d="M100.0867 35.8863
L100.1675 35.8594
" />
<path d="M100.1675 35.8594
L100.2214 35.8594
" />
<path d="M100.2214 35.8594
L100.3022 35.8863
" />
<path d="M100.3022 35.8863
L100.3561 35.9402
" />
<path d="M100.3561 35.9402
L100.4099 36.0479
" />
<path d="M100.4099 36.0479
L100.4099 36.6944
" />
<path d="M100.4099 36.6944
L100.7601 36.3442
" />
<path d="M100.4638 35.6169
L100.4638 35.5631
" />
<path d="M100.4638 35.5631
L100.4907 35.4822
" />
<path d="M100.4907 35.4822
L100.6254 35.3476
" />
<path d="M100.6254 35.3476
L100.7062 35.3206
" />
<path d="M100.7062 35.3206
L100.7601 35.3206
" />
<path d="M100.7601 35.3206
L100.8409 35.3476
" />
<path d="M100.8409 35.3476
L100.8948 35.4014
" />
<path d="M100.8948 35.4014
L100.9487 35.5092
" />
<path d="M100.9487 35.5092
L100.9487 36.1557
" />
<path d="M100.9487 36.1557
L101.2989 35.8055
" />
</g><g transform="rotate(-45.000000 126.8300 61.3460)">
<text x="126.8300" y="61.7460"
textLength="2.6519" font-size="1.0667" lengthAdjust="spacingAndGlyphs"
text-anchor="middle" opacity="0">GP0</text>
</g>
<g class="stroked-text"><desc>GP0</desc>
<path d="M126.1434 61.4675
L126.0626 61.4944
" />
<path d="M126.0626 61.4944
L125.9817 61.5752
" />
<path d="M125.9817 61.5752
L125.9279 61.6830
" />
<path d="M125.9279 61.6830
L125.9279 61.7907
" />
<path d="M125.9279 61.7907
L125.9548 61.8716
" />
<path d="M125.9548 61.8716
L126.0356 62.0062
" />
<path d="M126.0356 62.0062
L126.1164 62.0871
" />
<path d="M126.1164 62.0871
L126.2511 62.1679
" />
<path d="M126.2511 62.1679
L126.3319 62.1948
" />
<path d="M126.3319 62.1948
L126.4397 62.1948
" />
<path d="M126.4397 62.1948
L126.5474 62.1409
" />
<path d="M126.5474 62.1409
L126.6013 62.0871
" />
<path d="M126.6013 62.0871
L126.6552 61.9793
" />
<path d="M126.6552 61.9793
L126.6552 61.9254
" />
<path d="M126.6552 61.9254
L126.4666 61.7369
" />
<path d="M126.4666 61.7369
L126.3589 61.8446
" />
<path d="M126.9515 61.7369
L126.3858 61.1712
" />
<path d="M126.3858 61.1712
L126.6013 60.9557
" />
<path d="M126.6013 60.9557
L126.6821 60.9287
" />
<path d="M126.6821 60.9287
L126.7360 60.9287
" />
<path d="M126.7360 60.9287
L126.8168 60.9557
" />
<path d="M126.8168 60.9557
L126.8976 61.0365
" />
<path d="M126.8976 61.0365
L126.9246 61.1173
" />
<path d="M126.9246 61.1173
L126.9246 61.1712
" />
<path d="M126.9246 61.1712
L126.8976 61.2520
" />
<path d="M126.8976 61.2520
L126.6821 61.4675
" />
<path d="M127.0592 60.4977
L127.1131 60.4439
" />
<path d="M127.1131 60.4439
L127.1939 60.4169
" />
<path d="M127.1939 60.4169
L127.2478 60.4169
" />
<path d="M127.2478 60.4169
L127.3286 60.4439
" />
<path d="M127.3286 60.4439
L127.4633 60.5247
" />
<path d="M127.4633 60.5247
L127.5980 60.6594
" />
<path d="M127.5980 60.6594
L127.6788 60.7941
" />
<path d="M127.6788 60.7941
L127.7057 60.8749
" />
<path d="M127.7057 60.8749
L127.7057 60.9287
" />
<path d="M127.7057 60.9287
L127.6788 61.0096
" />
<path d="M127.6788 61.0096
L127.6249 61.0634
" />
<path d="M127.6249 61.0634
L127.5441 61.0904
" />
<path d="M127.5441 61.0904
L127.4902 61.0904
" />
<path d="M127.4902 61.0904
L127.4094 61.0634
" />
<path d="M127.4094 61.0634
L127.2747 60.9826
" />
<path d="M127.2747 60.9826
L127.1401 60.8479
" />
<path d="M127.1401 60.8479
L127.0592 60.7132
" />
<path d="M127.0592 60.7132
L127.0323 60.6324
" />
<path d="M127.0323 60.6324
L127.0323 60.5786
" />
<path d="M127.0323 60.5786
L127.0592 60.4977
" />
</g><g transform="rotate(-45.000000 117.7560 36.7000)">
<text x="117.7560" y="37.1000"
textLength="2.4995" font-size="1.0667" lengthAdjust="spacingAndGlyphs"
text-anchor="middle" opacity="0">3V3</text>
</g>
<g class="stroked-text"><desc>3V3</desc>
<path d="M116.7461 37.0909
L117.0963 36.7407
" />
<path d="M117.0963 36.7407
L117.1232 37.1447
" />
<path d="M117.1232 37.1447
L117.2041 37.0639
" />
<path d="M117.2041 37.0639
L117.2849 37.0370
" />
<path d="M117.2849 37.0370
L117.3387 37.0370
" />
<path d="M117.3387 37.0370
L117.4196 37.0639
" />
<path d="M117.4196 37.0639
L117.5542 37.1986
" />
<path d="M117.5542 37.1986
L117.5812 37.2794
" />
<path d="M117.5812 37.2794
L117.5812 37.3333
" />
<path d="M117.5812 37.3333
L117.5542 37.4141
" />
<path d="M117.5542 37.4141
L117.3926 37.5757
" />
<path d="M117.3926 37.5757
L117.3118 37.6027
" />
<path d="M117.3118 37.6027
L117.2579 37.6027
" />
<path d="M117.2579 36.5791
L118.0122 36.9562
" />
<path d="M118.0122 36.9562
L117.6351 36.2019
" />
<path d="M117.7697 36.0672
L118.1199 35.7171
" />
<path d="M118.1199 35.7171
L118.1469 36.1211
" />
<path d="M118.1469 36.1211
L118.2277 36.0403
" />
<path d="M118.2277 36.0403
L118.3085 36.0134
" />
<path d="M118.3085 36.0134
L118.3624 36.0134
" />
<path d="M118.3624 36.0134
L118.4432 36.0403
" />
<path d="M118.4432 36.0403
L118.5779 36.1750
" />
<path d="M118.5779 36.1750
L118.6048 36.2558
" />
<path d="M118.6048 36.2558
L118.6048 36.3097
" />
<path d="M118.6048 36.3097
L118.5779 36.3905
" />
<path d="M118.5779 36.3905
L118.4162 36.5521
" />
<path d="M118.4162 36.5521
L118.3354 36.5791
" />
<path d="M118.3354 36.5791
L118.2816 36.5791
" />
</g><g transform="rotate(-45.000000 104.0000 61.2460)">
<text x="104.0000" y="61.6460"
textLength="2.6519" font-size="1.0667" lengthAdjust="spacingAndGlyphs"
text-anchor="middle" opacity="0">GP7</text>
</g>
<g class="stroked-text"><desc>GP7</desc>
<path d="M103.3134 61.3675
L103.2326 61.3944
" />
<path d="M103.2326 61.3944
L103.1517 61.4752
" />
<path d="M103.1517 61.4752
L103.0979 61.5830
" />
<path d="M103.0979 61.5830
L103.0979 61.6907
" />
<path d="M103.0979 61.6907
L103.1248 61.7716
" />
<path d="M103.1248 61.7716
L103.2056 61.9062
" />
<path d="M103.2056 61.9062
L103.2864 61.9871
" />
<path d="M103.2864 61.9871
L103.4211 62.0679
" />
<path d="M103.4211 62.0679
L103.5019 62.0948
" />
<path d="M103.5019 62.0948
L103.6097 62.0948
" />
<path d="M103.6097 62.0948
L103.7174 62.0409
" />
<path d="M103.7174 62.0409
L103.7713 61.9871
" />
<path d="M103.7713 61.9871
L103.8252 61.8793
" />
<path d="M103.8252 61.8793
L103.8252 61.8254
" />
<path d="M103.8252 61.8254
L103.6366 61.6369
" />
<path d="M103.6366 61.6369
L103.5289 61.7446
" />
<path d="M104.1215 61.6369
L103.5558 61.0712
" />
<path d="M103.5558 61.0712
L103.7713 60.8557
" />
<path d="M103.7713 60.8557
L103.8521 60.8287
" />
<path d="M103.8521 60.8287
L103.9060 60.8287
" />
<path d="M103.9060 60.8287
L103.9868 60.8557
" />
<path d="M103.9868 60.8557
L104.0676 60.9365
" />
<path d="M104.0676 60.9365
L104.0946 61.0173
" />
<path d="M104.0946 61.0173
L104.0946 61.0712
" />
<path d="M104.0946 61.0712
L104.0676 61.1520
" />
<path d="M104.0676 61.1520
L103.8521 61.3675
" />
<path d="M104.0676 60.5594
L104.4447 60.1822
" />
<path d="M104.4447 60.1822
L104.7680 60.9904
" />
</g><g transform="rotate(-45.000000 114.1300 61.3460)">
<text x="114.1300" y="61.7460"
textLength="2.6519" font-size="1.0667" lengthAdjust="spacingAndGlyphs"
text-anchor="middle" opacity="0">GP4</text>
</g>
<g class="stroked-text"><desc>GP4</desc>
<path d="M113.4434 61.4675
L113.3626 61.4944
" />
<path d="M113.3626 61.4944
L113.2817 61.5752
" />
<path d="M113.2817 61.5752
L113.2279 61.6830
" />
<path d="M113.2279 61.6830
L113.2279 61.7907
" />
<path d="M113.2279 61.7907
L113.2548 61.8716
" />
<path d="M113.2548 61.8716
L113.3356 62.0062
" />
<path d="M113.3356 62.0062
L113.4164 62.0871
" />
<path d="M113.4164 62.0871
L113.5511 62.1679
" />
<path d="M113.5511 62.1679
L113.6319 62.1948
" />
<path d="M113.6319 62.1948
L113.7397 62.1948
" />
<path d="M113.7397 62.1948
L113.8474 62.1409
" />
<path d="M113.8474 62.1409
L113.9013 62.0871
" />
<path d="M113.9013 62.0871
L113.9552 61.9793
" />
<path d="M113.9552 61.9793
L113.9552 61.9254
" />
<path d="M113.9552 61.9254
L113.7666 61.7369
" />
<path d="M113.7666 61.7369
L113.6589 61.8446
" />
<path d="M114.2515 61.7369
L113.6858 61.1712
" />
<path d="M113.6858 61.1712
L113.9013 60.9557
" />
<path d="M113.9013 60.9557
L113.9821 60.9287
" />
<path d="M113.9821 60.9287
L114.0360 60.9287
" />
<path d="M114.0360 60.9287
L114.1168 60.9557
" />
<path d="M114.1168 60.9557
L114.1976 61.0365
" />
<path d="M114.1976 61.0365
L114.2246 61.1173
" />
<path d="M114.2246 61.1173
L114.2246 61.1712
" />
<path d="M114.2246 61.1712
L114.1976 61.2520
" />
<path d="M114.1976 61.2520
L113.9821 61.4675
" />
<path d="M114.6825 60.5516
L115.0596 60.9287
" />
<path d="M114.3323 60.4708
L114.6017 61.0096
" />
<path d="M114.6017 61.0096
L114.9519 60.6594
" />
</g><g transform="rotate(-45.000000 110.2060 36.5460)">
<text x="110.2060" y="36.9460"
textLength="3.4138" font-size="1.0667" lengthAdjust="spacingAndGlyphs"
text-anchor="middle" opacity="0">AGND</text>
</g>
<g class="stroked-text"><desc>AGND</desc>
<path d="M109.3039 37.6372
L109.5732 37.3679
" />
<path d="M109.4116 37.8527
L109.0345 37.0985
" />
<path d="M109.0345 37.0985
L109.7887 37.4756
" />
<path d="M109.7349 36.4520
L109.6541 36.4789
" />
<path d="M109.6541 36.4789
L109.5732 36.5597
" />
<path d="M109.5732 36.5597
L109.5194 36.6675
" />
<path d="M109.5194 36.6675
L109.5194 36.7752
" />
<path d="M109.5194 36.7752
L109.5463 36.8561
" />
<path d="M109.5463 36.8561
L109.6271 36.9907
" />
<path d="M109.6271 36.9907
L109.7079 37.0716
" />
<path d="M109.7079 37.0716
L109.8426 37.1524
" />
<path d="M109.8426 37.1524
L109.9234 37.1793
" />
<path d="M109.9234 37.1793
L110.0312 37.1793
" />
<path d="M110.0312 37.1793
L110.1389 37.1254
" />
<path d="M110.1389 37.1254
L110.1928 37.0716
" />
<path d="M110.1928 37.0716
L110.2467 36.9638
" />
<path d="M110.2467 36.9638
L110.2467 36.9099
" />
<path d="M110.2467 36.9099
L110.0581 36.7214
" />
<path d="M110.0581 36.7214
L109.9504 36.8291
" />
<path d="M110.5430 36.7214
L109.9773 36.1557
" />
<path d="M109.9773 36.1557
L110.8662 36.3981
" />
<path d="M110.8662 36.3981
L110.3006 35.8324
" />
<path d="M111.1356 36.1287
L110.5699 35.5631
" />
<path d="M110.5699 35.5631
L110.7046 35.4284
" />
<path d="M110.7046 35.4284
L110.8124 35.3745
" />
<path d="M110.8124 35.3745
L110.9201 35.3745
" />
<path d="M110.9201 35.3745
L111.0009 35.4014
" />
<path d="M111.0009 35.4014
L111.1356 35.4822
" />
<path d="M111.1356 35.4822
L111.2164 35.5631
" />
<path d="M111.2164 35.5631
L111.2972 35.6977
" />
<path d="M111.2972 35.6977
L111.3242 35.7786
" />
<path d="M111.3242 35.7786
L111.3242 35.8863
" />
<path d="M111.3242 35.8863
L111.2703 35.9941
" />
<path d="M111.2703 35.9941
L111.1356 36.1287
" />
</g><g transform="rotate(-45.000000 84.8060 36.8000)">
<text x="84.8060" y="37.2000"
textLength="2.7281" font-size="1.0667" lengthAdjust="spacingAndGlyphs"
text-anchor="middle" opacity="0">GND</text>
</g>
<g class="stroked-text"><desc>GND</desc>
<path d="M84.0924 36.9484
L84.0116 36.9754
" />
<path d="M84.0116 36.9754
L83.9308 37.0562
" />
<path d="M83.9308 37.0562
L83.8769 37.1639
" />
<path d="M83.8769 37.1639
L83.8769 37.2717
" />
<path d="M83.8769 37.2717
L83.9039 37.3525
" />
<path d="M83.9039 37.3525
L83.9847 37.4872
" />
<path d="M83.9847 37.4872
L84.0655 37.5680
" />
<path d="M84.0655 37.5680
L84.2002 37.6488
" />
<path d="M84.2002 37.6488
L84.2810 37.6757
" />
<path d="M84.2810 37.6757
L84.3887 37.6757
" />
<path d="M84.3887 37.6757
L84.4965 37.6219
" />
<path d="M84.4965 37.6219
L84.5504 37.5680
" />
<path d="M84.5504 37.5680
L84.6042 37.4602
" />
<path d="M84.6042 37.4602
L84.6042 37.4064
" />
<path d="M84.6042 37.4064
L84.4157 37.2178
" />
<path d="M84.4157 37.2178
L84.3079 37.3256
" />
<path d="M84.9006 37.2178
L84.3349 36.6521
" />
<path d="M84.3349 36.6521
L85.2238 36.8946
" />
<path d="M85.2238 36.8946
L84.6581 36.3289
" />
<path d="M85.4932 36.6252
L84.9275 36.0595
" />
<path d="M84.9275 36.0595
L85.0622 35.9248
" />
<path d="M85.0622 35.9248
L85.1699 35.8709
" />
<path d="M85.1699 35.8709
L85.2777 35.8709
" />
<path d="M85.2777 35.8709
L85.3585 35.8979
" />
<path d="M85.3585 35.8979
L85.4932 35.9787
" />
<path d="M85.4932 35.9787
L85.5740 36.0595
" />
<path d="M85.5740 36.0595
L85.6548 36.1942
" />
<path d="M85.6548 36.1942
L85.6817 36.2750
" />
<path d="M85.6817 36.2750
L85.6817 36.3827
" />
<path d="M85.6817 36.3827
L85.6279 36.4905
" />
<path d="M85.6279 36.4905
L85.4932 36.6252
" />
</g><g transform="rotate(-45.000000 113.0000 36.5460)">
<text x="113.0000" y="36.9460"
textLength="3.4138" font-size="1.0667" lengthAdjust="spacingAndGlyphs"
text-anchor="middle" opacity="0">GP28</text>
</g>
<g class="stroked-text"><desc>GP28</desc>
<path d="M112.0440 36.9369
L111.9632 36.9638
" />
<path d="M111.9632 36.9638
L111.8824 37.0446
" />
<path d="M111.8824 37.0446
L111.8285 37.1524
" />
<path d="M111.8285 37.1524
L111.8285 37.2601
" />
<path d="M111.8285 37.2601
L111.8554 37.3409
" />
<path d="M111.8554 37.3409
L111.9362 37.4756
" />
<path d="M111.9362 37.4756
L112.0171 37.5564
" />
<path d="M112.0171 37.5564
L112.1517 37.6372
" />
<path d="M112.1517 37.6372
L112.2326 37.6642
" />
<path d="M112.2326 37.6642
L112.3403 37.6642
" />
<path d="M112.3403 37.6642
L112.4481 37.6103
" />
<path d="M112.4481 37.6103
L112.5019 37.5564
" />
<path d="M112.5019 37.5564
L112.5558 37.4487
" />
<path d="M112.5558 37.4487
L112.5558 37.3948
" />
<path d="M112.5558 37.3948
L112.3672 37.2062
" />
<path d="M112.3672 37.2062
L112.2595 37.3140
" />
<path d="M112.8521 37.2062
L112.2864 36.6406
" />
<path d="M112.2864 36.6406
L112.5019 36.4251
" />
<path d="M112.5019 36.4251
L112.5827 36.3981
" />
<path d="M112.5827 36.3981
L112.6366 36.3981
" />
<path d="M112.6366 36.3981
L112.7174 36.4251
" />
<path d="M112.7174 36.4251
L112.7982 36.5059
" />
<path d="M112.7982 36.5059
L112.8252 36.5867
" />
<path d="M112.8252 36.5867
L112.8252 36.6406
" />
<path d="M112.8252 36.6406
L112.7982 36.7214
" />
<path d="M112.7982 36.7214
L112.5827 36.9369
" />
<path d="M112.8791 36.1557
L112.8791 36.1018
" />
<path d="M112.8791 36.1018
L112.9060 36.0210
" />
<path d="M112.9060 36.0210
L113.0407 35.8863
" />
<path d="M113.0407 35.8863
L113.1215 35.8594
" />
<path d="M113.1215 35.8594
L113.1754 35.8594
" />
<path d="M113.1754 35.8594
L113.2562 35.8863
" />
<path d="M113.2562 35.8863
L113.3101 35.9402
" />
<path d="M113.3101 35.9402
L113.3639 36.0479
" />
<path d="M113.3639 36.0479
L113.3639 36.6944
" />
<path d="M113.3639 36.6944
L113.7141 36.3442
" />
<path d="M113.7141 35.6977
L113.6333 35.7247
" />
<path d="M113.6333 35.7247
L113.5794 35.7247
" />
<path d="M113.5794 35.7247
L113.4986 35.6977
" />
<path d="M113.4986 35.6977
L113.4717 35.6708
" />
<path d="M113.4717 35.6708
L113.4447 35.5900
" />
<path d="M113.4447 35.5900
L113.4447 35.5361
" />
<path d="M113.4447 35.5361
L113.4717 35.4553
" />
<path d="M113.4717 35.4553
L113.5794 35.3476
" />
<path d="M113.5794 35.3476
L113.6602 35.3206
" />
<path d="M113.6602 35.3206
L113.7141 35.3206
" />
<path d="M113.7141 35.3206
L113.7949 35.3476
" />
<path d="M113.7949 35.3476
L113.8219 35.3745
" />
<path d="M113.8219 35.3745
L113.8488 35.4553
" />
<path d="M113.8488 35.4553
L113.8488 35.5092
" />
<path d="M113.8488 35.5092
L113.8219 35.5900
" />
<path d="M113.8219 35.5900
L113.7141 35.6977
" />
<path d="M113.7141 35.6977
L113.6872 35.7786
" />
<path d="M113.6872 35.7786
L113.6872 35.8324
" />
<path d="M113.6872 35.8324
L113.7141 35.9132
" />
<path d="M113.7141 35.9132
L113.8219 36.0210
" />
<path d="M113.8219 36.0210
L113.9027 36.0479
" />
<path d="M113.9027 36.0479
L113.9566 36.0479
" />
<path d="M113.9566 36.0479
L114.0374 36.0210
" />
<path d="M114.0374 36.0210
L114.1451 35.9132
" />
<path d="M114.1451 35.9132
L114.1721 35.8324
" />
<path d="M114.1721 35.8324
L114.1721 35.7786
" />
<path d="M114.1721 35.7786
L114.1451 35.6977
" />
<path d="M114.1451 35.6977
L114.0374 35.5900
" />
<path d="M114.0374 35.5900
L113.9566 35.5631
" />
<path d="M113.9566 35.5631
L113.9027 35.5631
" />
<path d="M113.9027 35.5631
L113.8219 35.5900
" />
</g><g transform="rotate(-45.000000 81.1100 61.6460)">
<text x="81.1100" y="62.0460"
textLength="3.4138" font-size="1.0667" lengthAdjust="spacingAndGlyphs"
text-anchor="middle" opacity="0">GP14</text>
</g>
<g class="stroked-text"><desc>GP14</desc>
<path d="M80.1540 62.0369
L80.0732 62.0638
" />
<path d="M80.0732 62.0638
L79.9924 62.1446
" />
<path d="M79.9924 62.1446
L79.9385 62.2524
" />
<path d="M79.9385 62.2524
L79.9385 62.3601
" />
<path d="M79.9385 62.3601
L79.9654 62.4409
" />
<path d="M79.9654 62.4409
L80.0462 62.5756
" />
<path d="M80.0462 62.5756
L80.1271 62.6564
" />
<path d="M80.1271 62.6564
L80.2617 62.7372
" />
<path d="M80.2617 62.7372
L80.3426 62.7642
" />
<path d="M80.3426 62.7642
L80.4503 62.7642
" />
<path d="M80.4503 62.7642
L80.5581 62.7103
" />
<path d="M80.5581 62.7103
L80.6119 62.6564
" />
<path d="M80.6119 62.6564
L80.6658 62.5487
" />
<path d="M80.6658 62.5487
L80.6658 62.4948
" />
<path d="M80.6658 62.4948
L80.4772 62.3062
" />
<path d="M80.4772 62.3062
L80.3695 62.4140
" />
<path d="M80.9621 62.3062
L80.3964 61.7406
" />
<path d="M80.3964 61.7406
L80.6119 61.5251
" />
<path d="M80.6119 61.5251
L80.6927 61.4981
" />
<path d="M80.6927 61.4981
L80.7466 61.4981
" />
<path d="M80.7466 61.4981
L80.8274 61.5251
" />
<path d="M80.8274 61.5251
L80.9082 61.6059
" />
<path d="M80.9082 61.6059
L80.9352 61.6867
" />
<path d="M80.9352 61.6867
L80.9352 61.7406
" />
<path d="M80.9352 61.7406
L80.9082 61.8214
" />
<path d="M80.9082 61.8214
L80.6927 62.0369
" />
<path d="M81.8241 61.4442
L81.5009 61.7675
" />
<path d="M81.6625 61.6059
L81.0968 61.0402
" />
<path d="M81.0968 61.0402
L81.1237 61.1749
" />
<path d="M81.1237 61.1749
L81.1237 61.2826
" />
<path d="M81.1237 61.2826
L81.0968 61.3634
" />
<path d="M81.9319 60.5822
L82.3090 60.9594
" />
<path d="M81.5817 60.5014
L81.8511 61.0402
" />
<path d="M81.8511 61.0402
L82.2012 60.6900
" />
</g><g transform="rotate(-90.000000 76.8000 54.7000)">
<text x="76.8000" y="55.1000"
textLength="4.2138" font-size="1.0667" lengthAdjust="spacingAndGlyphs"
text-anchor="middle" opacity="0">SWCLK</text>
</g>
<g class="stroked-text"><desc>SWCLK</desc>
<path d="M77.1242 56.5095
L77.1623 56.3952
" />
<path d="M77.1623 56.3952
L77.1623 56.2048
" />
<path d="M77.1623 56.2048
L77.1242 56.1286
" />
<path d="M77.1242 56.1286
L77.0861 56.0905
" />
<path d="M77.0861 56.0905
L77.0099 56.0524
" />
<path d="M77.0099 56.0524
L76.9337 56.0524
" />
<path d="M76.9337 56.0524
L76.8575 56.0905
" />
<path d="M76.8575 56.0905
L76.8194 56.1286
" />
<path d="M76.8194 56.1286
L76.7813 56.2048
" />
<path d="M76.7813 56.2048
L76.7432 56.3571
" />
<path d="M76.7432 56.3571
L76.7052 56.4333
" />
<path d="M76.7052 56.4333
L76.6671 56.4714
" />
<path d="M76.6671 56.4714
L76.5909 56.5095
" />
<path d="M76.5909 56.5095
L76.5147 56.5095
" />
<path d="M76.5147 56.5095
L76.4385 56.4714
" />
<path d="M76.4385 56.4714
L76.4004 56.4333
" />
<path d="M76.4004 56.4333
L76.3623 56.3571
" />
<path d="M76.3623 56.3571
L76.3623 56.1667
" />
<path d="M76.3623 56.1667
L76.4004 56.0524
" />
<path d="M76.3623 55.7857
L77.1623 55.5952
" />
<path d="M77.1623 55.5952
L76.5909 55.4429
" />
<path d="M76.5909 55.4429
L77.1623 55.2905
" />
<path d="M77.1623 55.2905
L76.3623 55.1000
" />
<path d="M77.0861 54.3381
L77.1242 54.3762
" />
<path d="M77.1242 54.3762
L77.1623 54.4905
" />
<path d="M77.1623 54.4905
L77.1623 54.5667
" />
<path d="M77.1623 54.5667
L77.1242 54.6810
" />
<path d="M77.1242 54.6810
L77.0480 54.7571
" />
<path d="M77.0480 54.7571
L76.9718 54.7952
" />
<path d="M76.9718 54.7952
L76.8194 54.8333
" />
<path d="M76.8194 54.8333
L76.7052 54.8333
" />
<path d="M76.7052 54.8333
L76.5528 54.7952
" />
<path d="M76.5528 54.7952
L76.4766 54.7571
" />
<path d="M76.4766 54.7571
L76.4004 54.6810
" />
<path d="M76.4004 54.6810
L76.3623 54.5667
" />
<path d="M76.3623 54.5667
L76.3623 54.4905
" />
<path d="M76.3623 54.4905
L76.4004 54.3762
" />
<path d="M76.4004 54.3762
L76.4385 54.3381
" />
<path d="M77.1623 53.6143
L77.1623 53.9952
" />
<path d="M77.1623 53.9952
L76.3623 53.9952
" />
<path d="M77.1623 53.3476
L76.3623 53.3476
" />
<path d="M77.1623 52.8905
L76.7052 53.2333
" />
<path d="M76.3623 52.8905
L76.8194 53.3476
" />
</g><circle cx="133.0000" cy="23.0000" r="2.3500" /> 
<circle cx="30.0000" cy="119.0000" r="3.0000" /> 
<circle cx="105.0000" cy="67.0000" r="3.0000" /> 
<circle cx="30.0000" cy="67.0000" r="3.0000" /> 
<circle cx="118.9800" cy="121.5200" r="2.3500" /> 
<circle cx="77.0000" cy="23.0000" r="2.3500" /> 
<circle cx="180.0000" cy="67.0000" r="3.0000" /> 
<circle cx="105.0000" cy="119.0000" r="3.0000" /> 
<circle cx="118.9000" cy="63.5656" r="2.3500" /> 
<circle cx="180.0000" cy="119.0000" r="3.0000" /> 
<circle cx="168.0000" cy="23.0000" r="2.3500" /> 
<g >
</g>
<g >
</g>
<g >
</g>
<g >
</g>
<g >
</g>
<g >
</g>
<g >
</g>
<g >
</g>
<g >
</g>
<g >
</g>
<g >
</g>
<g >
</g>
<g >
</g>
<g >
</g>
<g >
</g>
<g >
</g>
<g >
</g>
<g >
</g>
<g >
</g>
<g >
</g>
<g >
</g>
<g >
</g>
<g >
</g>
<g >
</g>
<g >
</g>
<g >
</g>
<g >
</g>
<g >
</g>
<g >
</g>
<g >
</g>
<g >
</g>
<g >
</g>
<g >
</g>
<g >
</g>
<g >
</g>
<g >
</g>
<g >
</g>
<g >
</g>
<g >
</g>
<g >
</g>
<g >
</g>
<g >
</g>
<g >
</g>
<g >
</g>
<g >
</g>
<g >
</g>
<g >
</g>
<g >
</g>
<g >
</g>
<g >
</g>
<g >
</g>
<g >
</g>
<g >
</g>
<g >
</g>
<g >
</g>
<g >
</g>
<g >
</g>
<g >
</g>
<g >
</g>
<g >
</g>
<g >
</g>
<g >
</g>
<g >
</g>
<g >
</g>
<g >
</g>
<g >
</g>
<g >
</g>
<g >
</g>
<g >
</g>
<g >
</g>
<g >
</g>
<g >
</g>
<g >
</g>
<g >
</g>
<g >
</g>
<g >
</g>
<g >
</g>
<g >
</g>
<g >
</g>
<g >
</g>
<g >
</g>
<g >
</g>
<g >
</g>
<g >
</g>
<g >
</g>
<g >
</g>
</g> 
</svg>
