<?xml version="1.0" standalone="no"?>
 <!DOCTYPE svg PUBLIC "-//W3C//DTD SVG 1.1//EN" 
 "http://www.w3.org/Graphics/SVG/1.1/DTD/svg11.dtd"> 
<svg
  xmlns:svg="http://www.w3.org/2000/svg"
  xmlns="http://www.w3.org/2000/svg"
  xmlns:xlink="http://www.w3.org/1999/xlink"
  version="1.1"
  width="297.0022mm" height="210.0072mm" viewBox="0.0000 0.0000 297.0022 210.0072">
<title>SVG Image created as pedalboard-hw-B_Fab.svg date 2023/07/09 16:43:17 </title>
  <desc>Image generated by PCBNEW </desc>
<g style="fill:#000000; fill-opacity:1.0000;stroke:#000000; stroke-opacity:1.0000;
stroke-linecap:round; stroke-linejoin:round;"
 transform="translate(0 0) scale(1 1)">
</g>
<g style="fill:#000000; fill-opacity:0.0; 
stroke:#000000; stroke-width:0.0000; stroke-opacity:1; 
stroke-linecap:round; stroke-linejoin:round;">
</g>
<g style="fill:#000000; fill-opacity:0.0; 
stroke:#000000; stroke-width:0.1500; stroke-opacity:1; 
stroke-linecap:round; stroke-linejoin:round;">
<text x="183.3772" y="88.3300"
transform="scale(-1 1) translate(-366.754400 0)"
textLength="4.7940" font-size="1.3333" lengthAdjust="spacingAndGlyphs"
text-anchor="middle" opacity="0">USB_A</text>
<g class="stroked-text"><desc>USB_A</desc>
<path d="M181.3058 87.2848
L181.3058 88.0943
" />
<path d="M181.3058 88.0943
L181.3534 88.1896
" />
<path d="M181.3534 88.1896
L181.4010 88.2372
" />
<path d="M181.4010 88.2372
L181.4962 88.2848
" />
<path d="M181.4962 88.2848
L181.6867 88.2848
" />
<path d="M181.6867 88.2848
L181.7820 88.2372
" />
<path d="M181.7820 88.2372
L181.8296 88.1896
" />
<path d="M181.8296 88.1896
L181.8772 88.0943
" />
<path d="M181.8772 88.0943
L181.8772 87.2848
" />
<path d="M182.3058 88.2372
L182.4486 88.2848
" />
<path d="M182.4486 88.2848
L182.6867 88.2848
" />
<path d="M182.6867 88.2848
L182.7820 88.2372
" />
<path d="M182.7820 88.2372
L182.8296 88.1896
" />
<path d="M182.8296 88.1896
L182.8772 88.0943
" />
<path d="M182.8772 88.0943
L182.8772 87.9991
" />
<path d="M182.8772 87.9991
L182.8296 87.9039
" />
<path d="M182.8296 87.9039
L182.7820 87.8562
" />
<path d="M182.7820 87.8562
L182.6867 87.8086
" />
<path d="M182.6867 87.8086
L182.4962 87.7610
" />
<path d="M182.4962 87.7610
L182.4010 87.7134
" />
<path d="M182.4010 87.7134
L182.3534 87.6658
" />
<path d="M182.3534 87.6658
L182.3058 87.5705
" />
<path d="M182.3058 87.5705
L182.3058 87.4753
" />
<path d="M182.3058 87.4753
L182.3534 87.3801
" />
<path d="M182.3534 87.3801
L182.4010 87.3324
" />
<path d="M182.4010 87.3324
L182.4962 87.2848
" />
<path d="M182.4962 87.2848
L182.7343 87.2848
" />
<path d="M182.7343 87.2848
L182.8772 87.3324
" />
<path d="M183.6391 87.7610
L183.7820 87.8086
" />
<path d="M183.7820 87.8086
L183.8296 87.8562
" />
<path d="M183.8296 87.8562
L183.8772 87.9515
" />
<path d="M183.8772 87.9515
L183.8772 88.0943
" />
<path d="M183.8772 88.0943
L183.8296 88.1896
" />
<path d="M183.8296 88.1896
L183.7820 88.2372
" />
<path d="M183.7820 88.2372
L183.6867 88.2848
" />
<path d="M183.6867 88.2848
L183.3058 88.2848
" />
<path d="M183.3058 88.2848
L183.3058 87.2848
" />
<path d="M183.3058 87.2848
L183.6391 87.2848
" />
<path d="M183.6391 87.2848
L183.7343 87.3324
" />
<path d="M183.7343 87.3324
L183.7820 87.3801
" />
<path d="M183.7820 87.3801
L183.8296 87.4753
" />
<path d="M183.8296 87.4753
L183.8296 87.5705
" />
<path d="M183.8296 87.5705
L183.7820 87.6658
" />
<path d="M183.7820 87.6658
L183.7343 87.7134
" />
<path d="M183.7343 87.7134
L183.6391 87.7610
" />
<path d="M183.6391 87.7610
L183.3058 87.7610
" />
<path d="M184.0677 88.3801
L184.8296 88.3801
" />
<path d="M185.0201 87.9991
L185.4962 87.9991
" />
<path d="M184.9248 88.2848
L185.2582 87.2848
" />
<path d="M185.2582 87.2848
L185.5915 88.2848
" />
</g><g transform="rotate(-90.000000 183.3772 93.9700)">
<text x="183.3772" y="94.4700"
transform="scale(-1 1) translate(-366.754400 0)"
textLength="1.8893" font-size="1.3333" lengthAdjust="spacingAndGlyphs"
text-anchor="middle" opacity="0">J6</text>
</g>
<g class="stroked-text"><desc>J6</desc>
<path d="M183.9224 93.6367
L183.2081 93.6367
" />
<path d="M183.2081 93.6367
L183.0652 93.5890
" />
<path d="M183.0652 93.5890
L182.9700 93.4938
" />
<path d="M182.9700 93.4938
L182.9224 93.3510
" />
<path d="M182.9224 93.3510
L182.9224 93.2557
" />
<path d="M183.9224 94.5414
L183.9224 94.3510
" />
<path d="M183.9224 94.3510
L183.8748 94.2557
" />
<path d="M183.8748 94.2557
L183.8271 94.2081
" />
<path d="M183.8271 94.2081
L183.6843 94.1129
" />
<path d="M183.6843 94.1129
L183.4938 94.0652
" />
<path d="M183.4938 94.0652
L183.1129 94.0652
" />
<path d="M183.1129 94.0652
L183.0176 94.1129
" />
<path d="M183.0176 94.1129
L182.9700 94.1605
" />
<path d="M182.9700 94.1605
L182.9224 94.2557
" />
<path d="M182.9224 94.2557
L182.9224 94.4462
" />
<path d="M182.9224 94.4462
L182.9700 94.5414
" />
<path d="M182.9700 94.5414
L183.0176 94.5890
" />
<path d="M183.0176 94.5890
L183.1129 94.6367
" />
<path d="M183.1129 94.6367
L183.3510 94.6367
" />
<path d="M183.3510 94.6367
L183.4462 94.5890
" />
<path d="M183.4462 94.5890
L183.4938 94.5414
" />
<path d="M183.4938 94.5414
L183.5414 94.4462
" />
<path d="M183.5414 94.4462
L183.5414 94.2557
" />
<path d="M183.5414 94.2557
L183.4938 94.1605
" />
<path d="M183.4938 94.1605
L183.4462 94.1129
" />
<path d="M183.4462 94.1129
L183.3510 94.0652
" />
</g><g transform="rotate(-270.000000 215.5422 74.6000)">
<text x="215.5422" y="75.1000"
transform="scale(-1 1) translate(-431.084400 0)"
textLength="0.8893" font-size="1.3333" lengthAdjust="spacingAndGlyphs"
text-anchor="middle" opacity="0">~</text>
</g>
<g class="stroked-text"><desc>~</desc>
<path d="M215.6161 74.8619
L215.5684 74.8143
" />
<path d="M215.5684 74.8143
L215.5208 74.7190
" />
<path d="M215.5208 74.7190
L215.6161 74.5286
" />
<path d="M215.6161 74.5286
L215.5684 74.4333
" />
<path d="M215.5684 74.4333
L215.5208 74.3857
" />
</g><g transform="rotate(-270.000000 217.0422 74.6000)">
<text x="217.0422" y="75.1000"
transform="scale(-1 1) translate(-434.084400 0)"
textLength="1.9845" font-size="1.3333" lengthAdjust="spacingAndGlyphs"
text-anchor="middle" opacity="0">F3</text>
</g>
<g class="stroked-text"><desc>F3</desc>
<path d="M216.9732 74.9333
L216.9732 75.2667
" />
<path d="M217.4970 75.2667
L216.4970 75.2667
" />
<path d="M216.4970 75.2667
L216.4970 74.7905
" />
<path d="M216.4970 74.5048
L216.4970 73.8857
" />
<path d="M216.4970 73.8857
L216.8780 74.2190
" />
<path d="M216.8780 74.2190
L216.8780 74.0762
" />
<path d="M216.8780 74.0762
L216.9256 73.9810
" />
<path d="M216.9256 73.9810
L216.9732 73.9333
" />
<path d="M216.9732 73.9333
L217.0684 73.8857
" />
<path d="M217.0684 73.8857
L217.3065 73.8857
" />
<path d="M217.3065 73.8857
L217.4018 73.9333
" />
<path d="M217.4018 73.9333
L217.4494 73.9810
" />
<path d="M217.4494 73.9810
L217.4970 74.0762
" />
<path d="M217.4970 74.0762
L217.4970 74.3619
" />
<path d="M217.4970 74.3619
L217.4494 74.4571
" />
<path d="M217.4494 74.4571
L217.4018 74.5048
" />
</g><g transform="rotate(-90.000000 163.8122 52.7900)">
<text x="163.8122" y="53.2900"
transform="scale(-1 1) translate(-327.624400 0)"
textLength="9.2702" font-size="1.3333" lengthAdjust="spacingAndGlyphs"
text-anchor="middle" opacity="0">Conn_02x01</text>
</g>
<g class="stroked-text"><desc>Conn_02x01</desc>
<path d="M163.4526 49.0519
L163.4050 49.0043
" />
<path d="M163.4050 49.0043
L163.3574 48.8614
" />
<path d="M163.3574 48.8614
L163.3574 48.7662
" />
<path d="M163.3574 48.7662
L163.4050 48.6233
" />
<path d="M163.4050 48.6233
L163.5002 48.5281
" />
<path d="M163.5002 48.5281
L163.5955 48.4805
" />
<path d="M163.5955 48.4805
L163.7860 48.4329
" />
<path d="M163.7860 48.4329
L163.9288 48.4329
" />
<path d="M163.9288 48.4329
L164.1193 48.4805
" />
<path d="M164.1193 48.4805
L164.2145 48.5281
" />
<path d="M164.2145 48.5281
L164.3098 48.6233
" />
<path d="M164.3098 48.6233
L164.3574 48.7662
" />
<path d="M164.3574 48.7662
L164.3574 48.8614
" />
<path d="M164.3574 48.8614
L164.3098 49.0043
" />
<path d="M164.3098 49.0043
L164.2621 49.0519
" />
<path d="M163.3574 49.6233
L163.4050 49.5281
" />
<path d="M163.4050 49.5281
L163.4526 49.4805
" />
<path d="M163.4526 49.4805
L163.5479 49.4329
" />
<path d="M163.5479 49.4329
L163.8336 49.4329
" />
<path d="M163.8336 49.4329
L163.9288 49.4805
" />
<path d="M163.9288 49.4805
L163.9764 49.5281
" />
<path d="M163.9764 49.5281
L164.0240 49.6233
" />
<path d="M164.0240 49.6233
L164.0240 49.7662
" />
<path d="M164.0240 49.7662
L163.9764 49.8614
" />
<path d="M163.9764 49.8614
L163.9288 49.9090
" />
<path d="M163.9288 49.9090
L163.8336 49.9567
" />
<path d="M163.8336 49.9567
L163.5479 49.9567
" />
<path d="M163.5479 49.9567
L163.4526 49.9090
" />
<path d="M163.4526 49.9090
L163.4050 49.8614
" />
<path d="M163.4050 49.8614
L163.3574 49.7662
" />
<path d="M163.3574 49.7662
L163.3574 49.6233
" />
<path d="M164.0240 50.3852
L163.3574 50.3852
" />
<path d="M163.9288 50.3852
L163.9764 50.4329
" />
<path d="M163.9764 50.4329
L164.0240 50.5281
" />
<path d="M164.0240 50.5281
L164.0240 50.6710
" />
<path d="M164.0240 50.6710
L163.9764 50.7662
" />
<path d="M163.9764 50.7662
L163.8812 50.8138
" />
<path d="M163.8812 50.8138
L163.3574 50.8138
" />
<path d="M164.0240 51.2900
L163.3574 51.2900
" />
<path d="M163.9288 51.2900
L163.9764 51.3376
" />
<path d="M163.9764 51.3376
L164.0240 51.4329
" />
<path d="M164.0240 51.4329
L164.0240 51.5757
" />
<path d="M164.0240 51.5757
L163.9764 51.6710
" />
<path d="M163.9764 51.6710
L163.8812 51.7186
" />
<path d="M163.8812 51.7186
L163.3574 51.7186
" />
<path d="M163.2621 51.9567
L163.2621 52.7186
" />
<path d="M164.3574 53.1471
L164.3574 53.2424
" />
<path d="M164.3574 53.2424
L164.3098 53.3376
" />
<path d="M164.3098 53.3376
L164.2621 53.3852
" />
<path d="M164.2621 53.3852
L164.1669 53.4329
" />
<path d="M164.1669 53.4329
L163.9764 53.4805
" />
<path d="M163.9764 53.4805
L163.7383 53.4805
" />
<path d="M163.7383 53.4805
L163.5479 53.4329
" />
<path d="M163.5479 53.4329
L163.4526 53.3852
" />
<path d="M163.4526 53.3852
L163.4050 53.3376
" />
<path d="M163.4050 53.3376
L163.3574 53.2424
" />
<path d="M163.3574 53.2424
L163.3574 53.1471
" />
<path d="M163.3574 53.1471
L163.4050 53.0519
" />
<path d="M163.4050 53.0519
L163.4526 53.0043
" />
<path d="M163.4526 53.0043
L163.5479 52.9567
" />
<path d="M163.5479 52.9567
L163.7383 52.9090
" />
<path d="M163.7383 52.9090
L163.9764 52.9090
" />
<path d="M163.9764 52.9090
L164.1669 52.9567
" />
<path d="M164.1669 52.9567
L164.2621 53.0043
" />
<path d="M164.2621 53.0043
L164.3098 53.0519
" />
<path d="M164.3098 53.0519
L164.3574 53.1471
" />
<path d="M164.2621 53.8614
L164.3098 53.9090
" />
<path d="M164.3098 53.9090
L164.3574 54.0043
" />
<path d="M164.3574 54.0043
L164.3574 54.2424
" />
<path d="M164.3574 54.2424
L164.3098 54.3376
" />
<path d="M164.3098 54.3376
L164.2621 54.3852
" />
<path d="M164.2621 54.3852
L164.1669 54.4329
" />
<path d="M164.1669 54.4329
L164.0717 54.4329
" />
<path d="M164.0717 54.4329
L163.9288 54.3852
" />
<path d="M163.9288 54.3852
L163.3574 53.8138
" />
<path d="M163.3574 53.8138
L163.3574 54.4329
" />
<path d="M163.3574 54.7662
L164.0240 55.2900
" />
<path d="M164.0240 54.7662
L163.3574 55.2900
" />
<path d="M164.3574 55.8614
L164.3574 55.9567
" />
<path d="M164.3574 55.9567
L164.3098 56.0519
" />
<path d="M164.3098 56.0519
L164.2621 56.0995
" />
<path d="M164.2621 56.0995
L164.1669 56.1471
" />
<path d="M164.1669 56.1471
L163.9764 56.1948
" />
<path d="M163.9764 56.1948
L163.7383 56.1948
" />
<path d="M163.7383 56.1948
L163.5479 56.1471
" />
<path d="M163.5479 56.1471
L163.4526 56.0995
" />
<path d="M163.4526 56.0995
L163.4050 56.0519
" />
<path d="M163.4050 56.0519
L163.3574 55.9567
" />
<path d="M163.3574 55.9567
L163.3574 55.8614
" />
<path d="M163.3574 55.8614
L163.4050 55.7662
" />
<path d="M163.4050 55.7662
L163.4526 55.7186
" />
<path d="M163.4526 55.7186
L163.5479 55.6710
" />
<path d="M163.5479 55.6710
L163.7383 55.6233
" />
<path d="M163.7383 55.6233
L163.9764 55.6233
" />
<path d="M163.9764 55.6233
L164.1669 55.6710
" />
<path d="M164.1669 55.6710
L164.2621 55.7186
" />
<path d="M164.2621 55.7186
L164.3098 55.7662
" />
<path d="M164.3098 55.7662
L164.3574 55.8614
" />
<path d="M163.3574 57.1471
L163.3574 56.5757
" />
<path d="M163.3574 56.8614
L164.3574 56.8614
" />
<path d="M164.3574 56.8614
L164.2145 56.7662
" />
<path d="M164.2145 56.7662
L164.1193 56.6710
" />
<path d="M164.1193 56.6710
L164.0717 56.5757
" />
</g><text x="160.2722" y="54.9050"
transform="scale(-1 1) translate(-320.544400 0)"
textLength="2.8417" font-size="1.3333" lengthAdjust="spacingAndGlyphs"
text-anchor="middle" opacity="0">J14</text>
<g class="stroked-text"><desc>J14</desc>
<path d="M159.4627 53.8598
L159.4627 54.5741
" />
<path d="M159.4627 54.5741
L159.4151 54.7170
" />
<path d="M159.4151 54.7170
L159.3198 54.8122
" />
<path d="M159.3198 54.8122
L159.1770 54.8598
" />
<path d="M159.1770 54.8598
L159.0817 54.8598
" />
<path d="M160.4627 54.8598
L159.8912 54.8598
" />
<path d="M160.1770 54.8598
L160.1770 53.8598
" />
<path d="M160.1770 53.8598
L160.0817 54.0027
" />
<path d="M160.0817 54.0027
L159.9865 54.0979
" />
<path d="M159.9865 54.0979
L159.8912 54.1455
" />
<path d="M161.3198 54.1932
L161.3198 54.8598
" />
<path d="M161.0817 53.8122
L160.8436 54.5265
" />
<path d="M160.8436 54.5265
L161.4627 54.5265
" />
</g><text x="170.0530" y="56.7296"
transform="scale(-1 1) translate(-340.106000 0)"
textLength="9.6988" font-size="1.3333" lengthAdjust="spacingAndGlyphs"
text-anchor="middle" opacity="0">Pico USB TP</text>
<g class="stroked-text"><desc>Pico USB TP</desc>
<path d="M165.5292 56.6844
L165.5292 55.6844
" />
<path d="M165.5292 55.6844
L165.9101 55.6844
" />
<path d="M165.9101 55.6844
L166.0054 55.7320
" />
<path d="M166.0054 55.7320
L166.0530 55.7797
" />
<path d="M166.0530 55.7797
L166.1006 55.8749
" />
<path d="M166.1006 55.8749
L166.1006 56.0178
" />
<path d="M166.1006 56.0178
L166.0530 56.1130
" />
<path d="M166.0530 56.1130
L166.0054 56.1606
" />
<path d="M166.0054 56.1606
L165.9101 56.2082
" />
<path d="M165.9101 56.2082
L165.5292 56.2082
" />
<path d="M166.5292 56.6844
L166.5292 56.0178
" />
<path d="M166.5292 55.6844
L166.4816 55.7320
" />
<path d="M166.4816 55.7320
L166.5292 55.7797
" />
<path d="M166.5292 55.7797
L166.5768 55.7320
" />
<path d="M166.5768 55.7320
L166.5292 55.6844
" />
<path d="M166.5292 55.6844
L166.5292 55.7797
" />
<path d="M167.4340 56.6368
L167.3387 56.6844
" />
<path d="M167.3387 56.6844
L167.1482 56.6844
" />
<path d="M167.1482 56.6844
L167.0530 56.6368
" />
<path d="M167.0530 56.6368
L167.0054 56.5892
" />
<path d="M167.0054 56.5892
L166.9578 56.4939
" />
<path d="M166.9578 56.4939
L166.9578 56.2082
" />
<path d="M166.9578 56.2082
L167.0054 56.1130
" />
<path d="M167.0054 56.1130
L167.0530 56.0654
" />
<path d="M167.0530 56.0654
L167.1482 56.0178
" />
<path d="M167.1482 56.0178
L167.3387 56.0178
" />
<path d="M167.3387 56.0178
L167.4340 56.0654
" />
<path d="M168.0054 56.6844
L167.9101 56.6368
" />
<path d="M167.9101 56.6368
L167.8625 56.5892
" />
<path d="M167.8625 56.5892
L167.8149 56.4939
" />
<path d="M167.8149 56.4939
L167.8149 56.2082
" />
<path d="M167.8149 56.2082
L167.8625 56.1130
" />
<path d="M167.8625 56.1130
L167.9101 56.0654
" />
<path d="M167.9101 56.0654
L168.0054 56.0178
" />
<path d="M168.0054 56.0178
L168.1482 56.0178
" />
<path d="M168.1482 56.0178
L168.2435 56.0654
" />
<path d="M168.2435 56.0654
L168.2911 56.1130
" />
<path d="M168.2911 56.1130
L168.3387 56.2082
" />
<path d="M168.3387 56.2082
L168.3387 56.4939
" />
<path d="M168.3387 56.4939
L168.2911 56.5892
" />
<path d="M168.2911 56.5892
L168.2435 56.6368
" />
<path d="M168.2435 56.6368
L168.1482 56.6844
" />
<path d="M168.1482 56.6844
L168.0054 56.6844
" />
<path d="M169.5292 55.6844
L169.5292 56.4939
" />
<path d="M169.5292 56.4939
L169.5768 56.5892
" />
<path d="M169.5768 56.5892
L169.6244 56.6368
" />
<path d="M169.6244 56.6368
L169.7197 56.6844
" />
<path d="M169.7197 56.6844
L169.9101 56.6844
" />
<path d="M169.9101 56.6844
L170.0054 56.6368
" />
<path d="M170.0054 56.6368
L170.0530 56.5892
" />
<path d="M170.0530 56.5892
L170.1006 56.4939
" />
<path d="M170.1006 56.4939
L170.1006 55.6844
" />
<path d="M170.5292 56.6368
L170.6720 56.6844
" />
<path d="M170.6720 56.6844
L170.9101 56.6844
" />
<path d="M170.9101 56.6844
L171.0054 56.6368
" />
<path d="M171.0054 56.6368
L171.0530 56.5892
" />
<path d="M171.0530 56.5892
L171.1006 56.4939
" />
<path d="M171.1006 56.4939
L171.1006 56.3987
" />
<path d="M171.1006 56.3987
L171.0530 56.3035
" />
<path d="M171.0530 56.3035
L171.0054 56.2558
" />
<path d="M171.0054 56.2558
L170.9101 56.2082
" />
<path d="M170.9101 56.2082
L170.7197 56.1606
" />
<path d="M170.7197 56.1606
L170.6244 56.1130
" />
<path d="M170.6244 56.1130
L170.5768 56.0654
" />
<path d="M170.5768 56.0654
L170.5292 55.9701
" />
<path d="M170.5292 55.9701
L170.5292 55.8749
" />
<path d="M170.5292 55.8749
L170.5768 55.7797
" />
<path d="M170.5768 55.7797
L170.6244 55.7320
" />
<path d="M170.6244 55.7320
L170.7197 55.6844
" />
<path d="M170.7197 55.6844
L170.9578 55.6844
" />
<path d="M170.9578 55.6844
L171.1006 55.7320
" />
<path d="M171.8625 56.1606
L172.0054 56.2082
" />
<path d="M172.0054 56.2082
L172.0530 56.2558
" />
<path d="M172.0530 56.2558
L172.1006 56.3511
" />
<path d="M172.1006 56.3511
L172.1006 56.4939
" />
<path d="M172.1006 56.4939
L172.0530 56.5892
" />
<path d="M172.0530 56.5892
L172.0054 56.6368
" />
<path d="M172.0054 56.6368
L171.9101 56.6844
" />
<path d="M171.9101 56.6844
L171.5292 56.6844
" />
<path d="M171.5292 56.6844
L171.5292 55.6844
" />
<path d="M171.5292 55.6844
L171.8625 55.6844
" />
<path d="M171.8625 55.6844
L171.9578 55.7320
" />
<path d="M171.9578 55.7320
L172.0054 55.7797
" />
<path d="M172.0054 55.7797
L172.0530 55.8749
" />
<path d="M172.0530 55.8749
L172.0530 55.9701
" />
<path d="M172.0530 55.9701
L172.0054 56.0654
" />
<path d="M172.0054 56.0654
L171.9578 56.1130
" />
<path d="M171.9578 56.1130
L171.8625 56.1606
" />
<path d="M171.8625 56.1606
L171.5292 56.1606
" />
<path d="M173.1482 55.6844
L173.7197 55.6844
" />
<path d="M173.4340 56.6844
L173.4340 55.6844
" />
<path d="M174.0530 56.6844
L174.0530 55.6844
" />
<path d="M174.0530 55.6844
L174.4340 55.6844
" />
<path d="M174.4340 55.6844
L174.5292 55.7320
" />
<path d="M174.5292 55.7320
L174.5768 55.7797
" />
<path d="M174.5768 55.7797
L174.6244 55.8749
" />
<path d="M174.6244 55.8749
L174.6244 56.0178
" />
<path d="M174.6244 56.0178
L174.5768 56.1130
" />
<path d="M174.5768 56.1130
L174.5292 56.1606
" />
<path d="M174.5292 56.1606
L174.4340 56.2082
" />
<path d="M174.4340 56.2082
L174.0530 56.2082
" />
</g><g transform="rotate(-90.000000 170.0022 49.0000)">
<text x="170.0022" y="49.5000"
transform="scale(-1 1) translate(-340.004400 0)"
textLength="1.8893" font-size="1.3333" lengthAdjust="spacingAndGlyphs"
text-anchor="middle" opacity="0">J5</text>
</g>
<g class="stroked-text"><desc>J5</desc>
<path d="M170.5474 48.6667
L169.8331 48.6667
" />
<path d="M169.8331 48.6667
L169.6902 48.6190
" />
<path d="M169.6902 48.6190
L169.5950 48.5238
" />
<path d="M169.5950 48.5238
L169.5474 48.3810
" />
<path d="M169.5474 48.3810
L169.5474 48.2857
" />
<path d="M170.5474 49.6190
L170.5474 49.1429
" />
<path d="M170.5474 49.1429
L170.0712 49.0952
" />
<path d="M170.0712 49.0952
L170.1188 49.1429
" />
<path d="M170.1188 49.1429
L170.1664 49.2381
" />
<path d="M170.1664 49.2381
L170.1664 49.4762
" />
<path d="M170.1664 49.4762
L170.1188 49.5714
" />
<path d="M170.1188 49.5714
L170.0712 49.6190
" />
<path d="M170.0712 49.6190
L169.9760 49.6667
" />
<path d="M169.9760 49.6667
L169.7379 49.6667
" />
<path d="M169.7379 49.6667
L169.6426 49.6190
" />
<path d="M169.6426 49.6190
L169.5950 49.5714
" />
<path d="M169.5950 49.5714
L169.5474 49.4762
" />
<path d="M169.5474 49.4762
L169.5474 49.2381
" />
<path d="M169.5474 49.2381
L169.5950 49.1429
" />
<path d="M169.5950 49.1429
L169.6426 49.0952
" />
</g><g transform="rotate(-90.000000 196.1612 49.0000)">
<text x="196.1612" y="49.5000"
transform="scale(-1 1) translate(-392.322400 0)"
textLength="3.4131" font-size="1.3333" lengthAdjust="spacingAndGlyphs"
text-anchor="middle" opacity="0">Pico</text>
</g>
<g class="stroked-text"><desc>Pico</desc>
<path d="M195.7064 47.6190
L196.7064 47.6190
" />
<path d="M196.7064 47.6190
L196.7064 48.0000
" />
<path d="M196.7064 48.0000
L196.6588 48.0952
" />
<path d="M196.6588 48.0952
L196.6111 48.1429
" />
<path d="M196.6111 48.1429
L196.5159 48.1905
" />
<path d="M196.5159 48.1905
L196.3730 48.1905
" />
<path d="M196.3730 48.1905
L196.2778 48.1429
" />
<path d="M196.2778 48.1429
L196.2302 48.0952
" />
<path d="M196.2302 48.0952
L196.1826 48.0000
" />
<path d="M196.1826 48.0000
L196.1826 47.6190
" />
<path d="M195.7064 48.6190
L196.3730 48.6190
" />
<path d="M196.7064 48.6190
L196.6588 48.5714
" />
<path d="M196.6588 48.5714
L196.6111 48.6190
" />
<path d="M196.6111 48.6190
L196.6588 48.6667
" />
<path d="M196.6588 48.6667
L196.7064 48.6190
" />
<path d="M196.7064 48.6190
L196.6111 48.6190
" />
<path d="M195.7540 49.5238
L195.7064 49.4286
" />
<path d="M195.7064 49.4286
L195.7064 49.2381
" />
<path d="M195.7064 49.2381
L195.7540 49.1429
" />
<path d="M195.7540 49.1429
L195.8016 49.0952
" />
<path d="M195.8016 49.0952
L195.8969 49.0476
" />
<path d="M195.8969 49.0476
L196.1826 49.0476
" />
<path d="M196.1826 49.0476
L196.2778 49.0952
" />
<path d="M196.2778 49.0952
L196.3254 49.1429
" />
<path d="M196.3254 49.1429
L196.3730 49.2381
" />
<path d="M196.3730 49.2381
L196.3730 49.4286
" />
<path d="M196.3730 49.4286
L196.3254 49.5238
" />
<path d="M195.7064 50.0952
L195.7540 50.0000
" />
<path d="M195.7540 50.0000
L195.8016 49.9524
" />
<path d="M195.8016 49.9524
L195.8969 49.9048
" />
<path d="M195.8969 49.9048
L196.1826 49.9048
" />
<path d="M196.1826 49.9048
L196.2778 49.9524
" />
<path d="M196.2778 49.9524
L196.3254 50.0000
" />
<path d="M196.3254 50.0000
L196.3730 50.0952
" />
<path d="M196.3730 50.0952
L196.3730 50.2381
" />
<path d="M196.3730 50.2381
L196.3254 50.3333
" />
<path d="M196.3254 50.3333
L196.2778 50.3810
" />
<path d="M196.2778 50.3810
L196.1826 50.4286
" />
<path d="M196.1826 50.4286
L195.8969 50.4286
" />
<path d="M195.8969 50.4286
L195.8016 50.3810
" />
<path d="M195.8016 50.3810
L195.7540 50.3333
" />
<path d="M195.7540 50.3333
L195.7064 50.2381
" />
<path d="M195.7064 50.2381
L195.7064 50.0952
" />
</g><g transform="rotate(-90.000000 194.0022 49.0000)">
<text x="194.0022" y="49.5000"
transform="scale(-1 1) translate(-388.004400 0)"
textLength="2.1750" font-size="1.3333" lengthAdjust="spacingAndGlyphs"
text-anchor="middle" opacity="0">U1</text>
</g>
<g class="stroked-text"><desc>U1</desc>
<path d="M194.5474 48.2381
L193.7379 48.2381
" />
<path d="M193.7379 48.2381
L193.6426 48.2857
" />
<path d="M193.6426 48.2857
L193.5950 48.3333
" />
<path d="M193.5950 48.3333
L193.5474 48.4286
" />
<path d="M193.5474 48.4286
L193.5474 48.6190
" />
<path d="M193.5474 48.6190
L193.5950 48.7143
" />
<path d="M193.5950 48.7143
L193.6426 48.7619
" />
<path d="M193.6426 48.7619
L193.7379 48.8095
" />
<path d="M193.7379 48.8095
L194.5474 48.8095
" />
<path d="M193.5474 49.8095
L193.5474 49.2381
" />
<path d="M193.5474 49.5238
L194.5474 49.5238
" />
<path d="M194.5474 49.5238
L194.4045 49.4286
" />
<path d="M194.4045 49.4286
L194.3093 49.3333
" />
<path d="M194.3093 49.3333
L194.2617 49.2381
" />
</g><text x="243.0622" y="71.9976"
transform="scale(-1 1) translate(-486.124400 0)"
textLength="10.0321" font-size="1.3333" lengthAdjust="spacingAndGlyphs"
text-anchor="middle" opacity="0">RGB_LED_EXT</text>
<g class="stroked-text"><desc>RGB_LED_EXT</desc>
<path d="M238.9432 71.9524
L238.6098 71.4762
" />
<path d="M238.3717 71.9524
L238.3717 70.9524
" />
<path d="M238.3717 70.9524
L238.7527 70.9524
" />
<path d="M238.7527 70.9524
L238.8479 71.0000
" />
<path d="M238.8479 71.0000
L238.8955 71.0477
" />
<path d="M238.8955 71.0477
L238.9432 71.1429
" />
<path d="M238.9432 71.1429
L238.9432 71.2858
" />
<path d="M238.9432 71.2858
L238.8955 71.3810
" />
<path d="M238.8955 71.3810
L238.8479 71.4286
" />
<path d="M238.8479 71.4286
L238.7527 71.4762
" />
<path d="M238.7527 71.4762
L238.3717 71.4762
" />
<path d="M239.8955 71.0000
L239.8003 70.9524
" />
<path d="M239.8003 70.9524
L239.6574 70.9524
" />
<path d="M239.6574 70.9524
L239.5146 71.0000
" />
<path d="M239.5146 71.0000
L239.4193 71.0953
" />
<path d="M239.4193 71.0953
L239.3717 71.1905
" />
<path d="M239.3717 71.1905
L239.3241 71.3810
" />
<path d="M239.3241 71.3810
L239.3241 71.5238
" />
<path d="M239.3241 71.5238
L239.3717 71.7143
" />
<path d="M239.3717 71.7143
L239.4193 71.8096
" />
<path d="M239.4193 71.8096
L239.5146 71.9048
" />
<path d="M239.5146 71.9048
L239.6574 71.9524
" />
<path d="M239.6574 71.9524
L239.7527 71.9524
" />
<path d="M239.7527 71.9524
L239.8955 71.9048
" />
<path d="M239.8955 71.9048
L239.9432 71.8572
" />
<path d="M239.9432 71.8572
L239.9432 71.5238
" />
<path d="M239.9432 71.5238
L239.7527 71.5238
" />
<path d="M240.7051 71.4286
L240.8479 71.4762
" />
<path d="M240.8479 71.4762
L240.8955 71.5238
" />
<path d="M240.8955 71.5238
L240.9432 71.6191
" />
<path d="M240.9432 71.6191
L240.9432 71.7619
" />
<path d="M240.9432 71.7619
L240.8955 71.8572
" />
<path d="M240.8955 71.8572
L240.8479 71.9048
" />
<path d="M240.8479 71.9048
L240.7527 71.9524
" />
<path d="M240.7527 71.9524
L240.3717 71.9524
" />
<path d="M240.3717 71.9524
L240.3717 70.9524
" />
<path d="M240.3717 70.9524
L240.7051 70.9524
" />
<path d="M240.7051 70.9524
L240.8003 71.0000
" />
<path d="M240.8003 71.0000
L240.8479 71.0477
" />
<path d="M240.8479 71.0477
L240.8955 71.1429
" />
<path d="M240.8955 71.1429
L240.8955 71.2381
" />
<path d="M240.8955 71.2381
L240.8479 71.3334
" />
<path d="M240.8479 71.3334
L240.8003 71.3810
" />
<path d="M240.8003 71.3810
L240.7051 71.4286
" />
<path d="M240.7051 71.4286
L240.3717 71.4286
" />
<path d="M241.1336 72.0477
L241.8955 72.0477
" />
<path d="M242.6098 71.9524
L242.1336 71.9524
" />
<path d="M242.1336 71.9524
L242.1336 70.9524
" />
<path d="M242.9432 71.4286
L243.2765 71.4286
" />
<path d="M243.4193 71.9524
L242.9432 71.9524
" />
<path d="M242.9432 71.9524
L242.9432 70.9524
" />
<path d="M242.9432 70.9524
L243.4193 70.9524
" />
<path d="M243.8479 71.9524
L243.8479 70.9524
" />
<path d="M243.8479 70.9524
L244.0860 70.9524
" />
<path d="M244.0860 70.9524
L244.2289 71.0000
" />
<path d="M244.2289 71.0000
L244.3241 71.0953
" />
<path d="M244.3241 71.0953
L244.3717 71.1905
" />
<path d="M244.3717 71.1905
L244.4193 71.3810
" />
<path d="M244.4193 71.3810
L244.4193 71.5238
" />
<path d="M244.4193 71.5238
L244.3717 71.7143
" />
<path d="M244.3717 71.7143
L244.3241 71.8096
" />
<path d="M244.3241 71.8096
L244.2289 71.9048
" />
<path d="M244.2289 71.9048
L244.0860 71.9524
" />
<path d="M244.0860 71.9524
L243.8479 71.9524
" />
<path d="M244.6098 72.0477
L245.3717 72.0477
" />
<path d="M245.6098 71.4286
L245.9432 71.4286
" />
<path d="M246.0860 71.9524
L245.6098 71.9524
" />
<path d="M245.6098 71.9524
L245.6098 70.9524
" />
<path d="M245.6098 70.9524
L246.0860 70.9524
" />
<path d="M246.4193 70.9524
L247.0860 71.9524
" />
<path d="M247.0860 70.9524
L246.4193 71.9524
" />
<path d="M247.3241 70.9524
L247.8955 70.9524
" />
<path d="M247.6098 71.9524
L247.6098 70.9524
" />
</g><text x="243.7172" y="80.7626"
transform="scale(-1 1) translate(-487.434400 0)"
textLength="1.8893" font-size="1.3333" lengthAdjust="spacingAndGlyphs"
text-anchor="middle" opacity="0">J4</text>
<g class="stroked-text"><desc>J4</desc>
<path d="M243.3839 79.7174
L243.3839 80.4317
" />
<path d="M243.3839 80.4317
L243.3362 80.5746
" />
<path d="M243.3362 80.5746
L243.2410 80.6698
" />
<path d="M243.2410 80.6698
L243.0982 80.7174
" />
<path d="M243.0982 80.7174
L243.0029 80.7174
" />
<path d="M244.2886 80.0508
L244.2886 80.7174
" />
<path d="M244.0505 79.6698
L243.8124 80.3841
" />
<path d="M243.8124 80.3841
L244.4315 80.3841
" />
</g><g transform="rotate(-90.000000 173.3022 93.7756)">
<text x="173.3022" y="94.2756"
transform="scale(-1 1) translate(-346.604400 0)"
textLength="7.6512" font-size="1.3333" lengthAdjust="spacingAndGlyphs"
text-anchor="middle" opacity="0">HiFi Berry</text>
</g>
<g class="stroked-text"><desc>HiFi Berry</desc>
<path d="M172.8474 90.2756
L173.8474 90.2756
" />
<path d="M173.3712 90.2756
L173.3712 90.8470
" />
<path d="M172.8474 90.8470
L173.8474 90.8470
" />
<path d="M172.8474 91.3232
L173.5140 91.3232
" />
<path d="M173.8474 91.3232
L173.7998 91.2756
" />
<path d="M173.7998 91.2756
L173.7521 91.3232
" />
<path d="M173.7521 91.3232
L173.7998 91.3708
" />
<path d="M173.7998 91.3708
L173.8474 91.3232
" />
<path d="M173.8474 91.3232
L173.7521 91.3232
" />
<path d="M173.3712 92.1327
L173.3712 91.7994
" />
<path d="M172.8474 91.7994
L173.8474 91.7994
" />
<path d="M173.8474 91.7994
L173.8474 92.2756
" />
<path d="M172.8474 92.6566
L173.5140 92.6566
" />
<path d="M173.8474 92.6566
L173.7998 92.6089
" />
<path d="M173.7998 92.6089
L173.7521 92.6566
" />
<path d="M173.7521 92.6566
L173.7998 92.7042
" />
<path d="M173.7998 92.7042
L173.8474 92.6566
" />
<path d="M173.8474 92.6566
L173.7521 92.6566
" />
<path d="M173.3712 94.2280
L173.3236 94.3708
" />
<path d="M173.3236 94.3708
L173.2760 94.4185
" />
<path d="M173.2760 94.4185
L173.1807 94.4661
" />
<path d="M173.1807 94.4661
L173.0379 94.4661
" />
<path d="M173.0379 94.4661
L172.9426 94.4185
" />
<path d="M172.9426 94.4185
L172.8950 94.3708
" />
<path d="M172.8950 94.3708
L172.8474 94.2756
" />
<path d="M172.8474 94.2756
L172.8474 93.8946
" />
<path d="M172.8474 93.8946
L173.8474 93.8946
" />
<path d="M173.8474 93.8946
L173.8474 94.2280
" />
<path d="M173.8474 94.2280
L173.7998 94.3232
" />
<path d="M173.7998 94.3232
L173.7521 94.3708
" />
<path d="M173.7521 94.3708
L173.6569 94.4185
" />
<path d="M173.6569 94.4185
L173.5617 94.4185
" />
<path d="M173.5617 94.4185
L173.4664 94.3708
" />
<path d="M173.4664 94.3708
L173.4188 94.3232
" />
<path d="M173.4188 94.3232
L173.3712 94.2280
" />
<path d="M173.3712 94.2280
L173.3712 93.8946
" />
<path d="M172.8950 95.2756
L172.8474 95.1804
" />
<path d="M172.8474 95.1804
L172.8474 94.9899
" />
<path d="M172.8474 94.9899
L172.8950 94.8946
" />
<path d="M172.8950 94.8946
L172.9902 94.8470
" />
<path d="M172.9902 94.8470
L173.3712 94.8470
" />
<path d="M173.3712 94.8470
L173.4664 94.8946
" />
<path d="M173.4664 94.8946
L173.5140 94.9899
" />
<path d="M173.5140 94.9899
L173.5140 95.1804
" />
<path d="M173.5140 95.1804
L173.4664 95.2756
" />
<path d="M173.4664 95.2756
L173.3712 95.3232
" />
<path d="M173.3712 95.3232
L173.2760 95.3232
" />
<path d="M173.2760 95.3232
L173.1807 94.8470
" />
<path d="M172.8474 95.7518
L173.5140 95.7518
" />
<path d="M173.3236 95.7518
L173.4188 95.7994
" />
<path d="M173.4188 95.7994
L173.4664 95.8470
" />
<path d="M173.4664 95.8470
L173.5140 95.9423
" />
<path d="M173.5140 95.9423
L173.5140 96.0375
" />
<path d="M172.8474 96.3708
L173.5140 96.3708
" />
<path d="M173.3236 96.3708
L173.4188 96.4185
" />
<path d="M173.4188 96.4185
L173.4664 96.4661
" />
<path d="M173.4664 96.4661
L173.5140 96.5613
" />
<path d="M173.5140 96.5613
L173.5140 96.6566
" />
<path d="M173.5140 96.8946
L172.8474 97.1327
" />
<path d="M173.5140 97.3708
L172.8474 97.1327
" />
<path d="M172.8474 97.1327
L172.6093 97.0375
" />
<path d="M172.6093 97.0375
L172.5617 96.9899
" />
<path d="M172.5617 96.9899
L172.5140 96.8946
" />
</g><g transform="rotate(-270.000000 213.6122 74.5900)">
<text x="213.6122" y="75.0900"
transform="scale(-1 1) translate(-427.224400 0)"
textLength="0.8893" font-size="1.3333" lengthAdjust="spacingAndGlyphs"
text-anchor="middle" opacity="0">~</text>
</g>
<g class="stroked-text"><desc>~</desc>
<path d="M213.6861 74.8519
L213.6384 74.8043
" />
<path d="M213.6384 74.8043
L213.5908 74.7090
" />
<path d="M213.5908 74.7090
L213.6861 74.5186
" />
<path d="M213.6861 74.5186
L213.6384 74.4233
" />
<path d="M213.6384 74.4233
L213.5908 74.3757
" />
</g><g transform="rotate(-270.000000 215.1122 74.5900)">
<text x="215.1122" y="75.0900"
transform="scale(-1 1) translate(-430.224400 0)"
textLength="1.9845" font-size="1.3333" lengthAdjust="spacingAndGlyphs"
text-anchor="middle" opacity="0">F2</text>
</g>
<g class="stroked-text"><desc>F2</desc>
<path d="M215.0432 74.9233
L215.0432 75.2567
" />
<path d="M215.5670 75.2567
L214.5670 75.2567
" />
<path d="M214.5670 75.2567
L214.5670 74.7805
" />
<path d="M214.6623 74.4471
L214.6146 74.3995
" />
<path d="M214.6146 74.3995
L214.5670 74.3043
" />
<path d="M214.5670 74.3043
L214.5670 74.0662
" />
<path d="M214.5670 74.0662
L214.6146 73.9710
" />
<path d="M214.6146 73.9710
L214.6623 73.9233
" />
<path d="M214.6623 73.9233
L214.7575 73.8757
" />
<path d="M214.7575 73.8757
L214.8527 73.8757
" />
<path d="M214.8527 73.8757
L214.9956 73.9233
" />
<path d="M214.9956 73.9233
L215.5670 74.4948
" />
<path d="M215.5670 74.4948
L215.5670 73.8757
" />
</g><g transform="rotate(-90.000000 239.9322 55.8350)">
<text x="239.9322" y="56.3350"
transform="scale(-1 1) translate(-479.864400 0)"
textLength="9.4607" font-size="1.3333" lengthAdjust="spacingAndGlyphs"
text-anchor="middle" opacity="0">MIDI IN/OUT</text>
</g>
<g class="stroked-text"><desc>MIDI IN/OUT</desc>
<path d="M239.4774 51.4302
L240.4774 51.4302
" />
<path d="M240.4774 51.4302
L239.7631 51.7636
" />
<path d="M239.7631 51.7636
L240.4774 52.0969
" />
<path d="M240.4774 52.0969
L239.4774 52.0969
" />
<path d="M239.4774 52.5731
L240.4774 52.5731
" />
<path d="M239.4774 53.0493
L240.4774 53.0493
" />
<path d="M240.4774 53.0493
L240.4774 53.2874
" />
<path d="M240.4774 53.2874
L240.4298 53.4302
" />
<path d="M240.4298 53.4302
L240.3345 53.5255
" />
<path d="M240.3345 53.5255
L240.2393 53.5731
" />
<path d="M240.2393 53.5731
L240.0488 53.6207
" />
<path d="M240.0488 53.6207
L239.9060 53.6207
" />
<path d="M239.9060 53.6207
L239.7155 53.5731
" />
<path d="M239.7155 53.5731
L239.6202 53.5255
" />
<path d="M239.6202 53.5255
L239.5250 53.4302
" />
<path d="M239.5250 53.4302
L239.4774 53.2874
" />
<path d="M239.4774 53.2874
L239.4774 53.0493
" />
<path d="M239.4774 54.0493
L240.4774 54.0493
" />
<path d="M239.4774 55.2874
L240.4774 55.2874
" />
<path d="M239.4774 55.7636
L240.4774 55.7636
" />
<path d="M240.4774 55.7636
L239.4774 56.3350
" />
<path d="M239.4774 56.3350
L240.4774 56.3350
" />
<path d="M240.5250 57.5255
L239.2393 56.6683
" />
<path d="M240.4774 58.0493
L240.4774 58.2398
" />
<path d="M240.4774 58.2398
L240.4298 58.3350
" />
<path d="M240.4298 58.3350
L240.3345 58.4302
" />
<path d="M240.3345 58.4302
L240.1440 58.4779
" />
<path d="M240.1440 58.4779
L239.8107 58.4779
" />
<path d="M239.8107 58.4779
L239.6202 58.4302
" />
<path d="M239.6202 58.4302
L239.5250 58.3350
" />
<path d="M239.5250 58.3350
L239.4774 58.2398
" />
<path d="M239.4774 58.2398
L239.4774 58.0493
" />
<path d="M239.4774 58.0493
L239.5250 57.9540
" />
<path d="M239.5250 57.9540
L239.6202 57.8588
" />
<path d="M239.6202 57.8588
L239.8107 57.8112
" />
<path d="M239.8107 57.8112
L240.1440 57.8112
" />
<path d="M240.1440 57.8112
L240.3345 57.8588
" />
<path d="M240.3345 57.8588
L240.4298 57.9540
" />
<path d="M240.4298 57.9540
L240.4774 58.0493
" />
<path d="M240.4774 58.9064
L239.6679 58.9064
" />
<path d="M239.6679 58.9064
L239.5726 58.9540
" />
<path d="M239.5726 58.9540
L239.5250 59.0017
" />
<path d="M239.5250 59.0017
L239.4774 59.0969
" />
<path d="M239.4774 59.0969
L239.4774 59.2874
" />
<path d="M239.4774 59.2874
L239.5250 59.3826
" />
<path d="M239.5250 59.3826
L239.5726 59.4302
" />
<path d="M239.5726 59.4302
L239.6679 59.4779
" />
<path d="M239.6679 59.4779
L240.4774 59.4779
" />
<path d="M240.4774 59.8112
L240.4774 60.3826
" />
<path d="M239.4774 60.0969
L240.4774 60.0969
" />
</g><g transform="rotate(-90.000000 231.3122 55.3900)">
<text x="231.3122" y="55.8900"
transform="scale(-1 1) translate(-462.624400 0)"
textLength="2.8417" font-size="1.3333" lengthAdjust="spacingAndGlyphs"
text-anchor="middle" opacity="0">J15</text>
</g>
<g class="stroked-text"><desc>J15</desc>
<path d="M231.8574 54.5805
L231.1431 54.5805
" />
<path d="M231.1431 54.5805
L231.0002 54.5329
" />
<path d="M231.0002 54.5329
L230.9050 54.4376
" />
<path d="M230.9050 54.4376
L230.8574 54.2948
" />
<path d="M230.8574 54.2948
L230.8574 54.1995
" />
<path d="M230.8574 55.5805
L230.8574 55.0090
" />
<path d="M230.8574 55.2948
L231.8574 55.2948
" />
<path d="M231.8574 55.2948
L231.7145 55.1995
" />
<path d="M231.7145 55.1995
L231.6193 55.1043
" />
<path d="M231.6193 55.1043
L231.5717 55.0090
" />
<path d="M231.8574 56.4852
L231.8574 56.0090
" />
<path d="M231.8574 56.0090
L231.3812 55.9614
" />
<path d="M231.3812 55.9614
L231.4288 56.0090
" />
<path d="M231.4288 56.0090
L231.4764 56.1043
" />
<path d="M231.4764 56.1043
L231.4764 56.3424
" />
<path d="M231.4764 56.3424
L231.4288 56.4376
" />
<path d="M231.4288 56.4376
L231.3812 56.4852
" />
<path d="M231.3812 56.4852
L231.2860 56.5329
" />
<path d="M231.2860 56.5329
L231.0479 56.5329
" />
<path d="M231.0479 56.5329
L230.9526 56.4852
" />
<path d="M230.9526 56.4852
L230.9050 56.4376
" />
<path d="M230.9050 56.4376
L230.8574 56.3424
" />
<path d="M230.8574 56.3424
L230.8574 56.1043
" />
<path d="M230.8574 56.1043
L230.9050 56.0090
" />
<path d="M230.9050 56.0090
L230.9526 55.9614
" />
</g></g>
<g style="fill:#000000; fill-opacity:0.0; 
stroke:#000000; stroke-width:0.1000; stroke-opacity:1; 
stroke-linecap:round; stroke-linejoin:round;">
<path d="M247.4122 107.5900
L248.6822 106.3200
" />
<path d="M197.8822 107.5900
L247.4122 107.5900
" />
<path d="M248.6822 106.3200
L248.6822 102.5100
" />
<path d="M248.6822 102.5100
L197.8822 102.5100
" />
<path d="M197.8822 102.5100
L197.8822 107.5900
" />
<path d="M184.6472 88.8900
L184.6472 98.4150
" />
<path d="M184.6472 98.4150
L184.0122 99.0500
" />
<path d="M184.0122 99.0500
L182.1072 99.0500
" />
<path d="M182.1072 88.8900
L184.6472 88.8900
" />
<path d="M182.1072 99.0500
L182.1072 88.8900
" />
<path d="M161.8622 57.4950
L161.8622 55.6750
" />
<path d="M161.2222 57.4950
L161.8622 57.4950
" />
<path d="M161.2222 57.4950
L161.2222 55.6750
" />
<path d="M159.3222 57.4950
L159.3222 55.6750
" />
<path d="M158.6822 57.4950
L159.3222 57.4950
" />
<path d="M158.6822 57.4950
L158.6822 55.6750
" />
<path d="M162.8122 55.6750
L158.3672 55.6750
" />
<path d="M158.3672 55.6750
L157.7322 55.0400
" />
<path d="M157.7322 55.0400
L157.7322 53.1350
" />
<path d="M162.8122 53.1350
L162.8122 55.6750
" />
<path d="M161.8622 53.1350
L161.8622 47.1350
" />
<path d="M161.2222 53.1350
L161.2222 47.1350
" />
<path d="M159.3222 53.1350
L159.3222 47.1350
" />
<path d="M158.6822 53.1350
L158.6822 47.1350
" />
<path d="M157.7322 53.1350
L162.8122 53.1350
" />
<path d="M161.2222 47.1350
L161.8622 47.1350
" />
<path d="M158.6822 47.1350
L159.3222 47.1350
" />
</g>
<g style="fill:#000000; fill-opacity:0.0; 
stroke:#000000; stroke-width:0.1200; stroke-opacity:1; 
stroke-linecap:round; stroke-linejoin:round;">
<path d="M219.5022 59.5000
L168.5022 59.5000
" />
<path d="M169.8022 59.5000
L168.5022 58.2000
" />
<path d="M168.5022 59.5000
L168.5022 38.5000
" />
<path d="M219.5022 38.5000
L219.5022 59.5000
" />
<path d="M168.5022 38.5000
L219.5022 38.5000
" />
</g>
<g style="fill:#000000; fill-opacity:0.0; 
stroke:#000000; stroke-width:0.1000; stroke-opacity:1; 
stroke-linecap:round; stroke-linejoin:round;">
<path d="M246.5372 83.2826
L246.5372 81.4626
" />
<path d="M245.8972 83.2826
L246.5372 83.2826
" />
<path d="M245.8972 83.2826
L245.8972 81.4626
" />
<path d="M243.9972 83.2826
L243.9972 81.4626
" />
<path d="M243.3572 83.2826
L243.9972 83.2826
" />
<path d="M243.3572 83.2826
L243.3572 81.4626
" />
<path d="M241.4572 83.2826
L241.4572 81.4626
" />
<path d="M240.8172 83.2826
L241.4572 83.2826
" />
<path d="M240.8172 83.2826
L240.8172 81.4626
" />
<path d="M247.4872 81.4626
L240.5022 81.4626
" />
<path d="M240.5022 81.4626
L239.8672 80.8276
" />
<path d="M239.8672 80.8276
L239.8672 78.9226
" />
<path d="M247.4872 78.9226
L247.4872 81.4626
" />
<path d="M246.5372 78.9226
L246.5372 72.9226
" />
<path d="M245.8972 78.9226
L245.8972 72.9226
" />
<path d="M243.9972 78.9226
L243.9972 72.9226
" />
<path d="M243.3572 78.9226
L243.3572 72.9226
" />
<path d="M241.4572 78.9226
L241.4572 72.9226
" />
<path d="M240.8172 78.9226
L240.8172 72.9226
" />
<path d="M239.8672 78.9226
L247.4872 78.9226
" />
<path d="M245.8972 72.9226
L246.5372 72.9226
" />
<path d="M243.3572 72.9226
L243.9972 72.9226
" />
<path d="M240.8172 72.9226
L241.4572 72.9226
" />
<path d="M138.2722 122.9606
L145.8922 122.9606
" />
<path d="M138.2722 117.8806
L138.2722 122.9606
" />
<path d="M139.1772 81.1956
L144.2572 81.1956
" />
<path d="M139.1772 74.5756
L139.1772 81.1956
" />
<path d="M140.1772 73.5756
L139.1772 74.5756
" />
<path d="M144.2572 81.1956
L144.2572 73.5756
" />
<path d="M144.2572 73.5756
L140.1772 73.5756
" />
<path d="M144.8922 117.8806
L138.2722 117.8806
" />
<path d="M145.8922 122.9606
L145.8922 118.8806
" />
<path d="M145.8922 118.8806
L144.8922 117.8806
" />
<path d="M175.4822 117.9056
L180.5622 117.9056
" />
<path d="M175.4822 68.1056
L175.4822 117.9056
" />
<path d="M176.4822 67.1056
L175.4822 68.1056
" />
<path d="M180.5622 117.9056
L180.5622 67.1056
" />
<path d="M180.5622 67.1056
L176.4822 67.1056
" />
<path d="M225.6822 58.2500
L230.0422 58.2500
" />
<path d="M225.6822 57.6100
L225.6822 58.2500
" />
<path d="M225.6822 57.6100
L230.0422 57.6100
" />
<path d="M225.6822 55.7100
L230.0422 55.7100
" />
<path d="M225.6822 55.0700
L225.6822 55.7100
" />
<path d="M225.6822 55.0700
L230.0422 55.0700
" />
<path d="M225.6822 53.1700
L230.0422 53.1700
" />
<path d="M225.6822 52.5300
L225.6822 53.1700
" />
<path d="M225.6822 52.5300
L230.0422 52.5300
" />
<path d="M230.0422 59.2000
L230.0422 52.2150
" />
<path d="M230.0422 52.2150
L230.6772 51.5800
" />
<path d="M230.6772 51.5800
L232.5822 51.5800
" />
<path d="M232.5822 59.2000
L230.0422 59.2000
" />
<path d="M232.5822 58.2500
L238.5822 58.2500
" />
<path d="M232.5822 57.6100
L238.5822 57.6100
" />
<path d="M232.5822 55.7100
L238.5822 55.7100
" />
<path d="M232.5822 55.0700
L238.5822 55.0700
" />
<path d="M232.5822 53.1700
L238.5822 53.1700
" />
<path d="M232.5822 52.5300
L238.5822 52.5300
" />
<path d="M232.5822 51.5800
L232.5822 59.2000
" />
<path d="M238.5822 57.6100
L238.5822 58.2500
" />
<path d="M238.5822 55.0700
L238.5822 55.7100
" />
<path d="M238.5822 52.5300
L238.5822 53.1700
" />
<g >
</g>
<g >
</g>
<g >
</g>
<g >
</g>
<g >
</g>
<g >
</g>
<g >
</g>
<g >
</g>
<g >
</g>
<g >
</g>
<g >
</g>
<g >
</g>
<g >
</g>
<g >
</g>
<g >
</g>
<g >
</g>
<g >
</g>
<g >
</g>
<g >
</g>
<g >
</g>
<g >
</g>
<g >
</g>
<g >
</g>
<g >
</g>
<g >
</g>
<g >
</g>
<g >
</g>
<g >
</g>
<g >
</g>
<g >
</g>
<g >
</g>
<g >
</g>
<g >
</g>
<g >
</g>
<g >
</g>
<g >
</g>
<g >
</g>
<g >
</g>
<g >
</g>
<g >
</g>
<g >
</g>
<g >
</g>
<g >
</g>
<g >
</g>
<g >
</g>
<g >
</g>
<g >
</g>
<g >
</g>
<g >
</g>
<g >
</g>
<g >
</g>
<g >
</g>
<g >
</g>
<g >
</g>
<g >
</g>
<g >
</g>
<g >
</g>
<g >
</g>
<g >
</g>
<g >
</g>
<g >
</g>
<g >
</g>
<g >
</g>
<g >
</g>
<g >
</g>
<g >
</g>
<g >
</g>
<g >
</g>
<g >
</g>
<g >
</g>
<g >
</g>
<g >
</g>
<g >
</g>
<g >
</g>
<g >
</g>
<g >
</g>
<g >
</g>
<g >
</g>
<g >
</g>
<g >
</g>
<g >
</g>
<g >
</g>
<g >
</g>
<g >
</g>
<g >
</g>
<g >
</g>
<g >
</g>
<g >
</g>
<g >
</g>
<g >
</g>
<g >
</g>
<g >
</g>
<g >
</g>
<g >
</g>
<g >
</g>
<g >
</g>
<g >
</g>
</g> 
</svg>
