<?xml version="1.0" standalone="no"?>
 <!DOCTYPE svg PUBLIC "-//W3C//DTD SVG 1.1//EN" 
 "http://www.w3.org/Graphics/SVG/1.1/DTD/svg11.dtd"> 
<svg
  xmlns:svg="http://www.w3.org/2000/svg"
  xmlns="http://www.w3.org/2000/svg"
  xmlns:xlink="http://www.w3.org/1999/xlink"
  version="1.1"
  width="297.0022mm" height="210.0072mm" viewBox="0.0000 0.0000 297.0022 210.0072">
<title>SVG Image created as pedalboard-hw-B_Courtyard.svg date 2023/03/26 08:02:31 </title>
  <desc>Image generated by PCBNEW </desc>
<g style="fill:#000000; fill-opacity:1.0000;stroke:#000000; stroke-opacity:1.0000;
stroke-linecap:round; stroke-linejoin:round;"
 transform="translate(0 0) scale(1 1)">
</g>
<g style="fill:#000000; fill-opacity:0.0; 
stroke:#000000; stroke-width:0.0000; stroke-opacity:1; 
stroke-linecap:round; stroke-linejoin:round;">
</g>
<g style="fill:#000000; fill-opacity:0.0; 
stroke:#000000; stroke-width:0.0500; stroke-opacity:1; 
stroke-linecap:round; stroke-linejoin:round;">
<path d="M181.5772 99.3850
L185.1772 99.3850
" />
<path d="M181.5772 88.1850
L181.5772 99.3850
" />
<path d="M185.1772 99.3850
L185.1772 88.1850
" />
<path d="M185.1772 88.1850
L181.5772 88.1850
" />
<circle cx="170.0003" cy="50.0066" r="0.9652" /> 
<circle cx="170.0022" cy="48.0000" r="0.9655" /> 
</g>
<g style="fill:#000000; fill-opacity:0.0; 
stroke:#000000; stroke-width:0.1200; stroke-opacity:1; 
stroke-linecap:round; stroke-linejoin:round;">
<path d="M220.0022 60.0000
L168.0022 60.0000
" />
<path d="M168.0022 60.0000
L168.0022 38.0000
" />
<path d="M220.0022 38.0000
L220.0022 60.0000
" />
<path d="M168.0022 38.0000
L220.0022 38.0000
" />
</g>
<g style="fill:#000000; fill-opacity:0.0; 
stroke:#000000; stroke-width:0.0500; stroke-opacity:1; 
stroke-linecap:round; stroke-linejoin:round;">
<path d="M251.5872 89.6400
L263.9372 89.6400
" />
<path d="M251.5872 80.9900
L251.5872 89.6400
" />
<path d="M263.9372 89.6400
L263.9372 80.9900
" />
<path d="M263.9372 80.9900
L251.5872 80.9900
" />
<path d="M137.7722 123.4906
L146.4222 123.4906
" />
<path d="M137.7722 117.3906
L137.7722 123.4906
" />
<path d="M138.6872 81.6956
L144.7872 81.6956
" />
<path d="M138.6872 73.0456
L138.6872 81.6956
" />
<path d="M144.7872 81.6956
L144.7872 73.0456
" />
<path d="M144.7872 73.0456
L138.6872 73.0456
" />
<path d="M146.4222 123.4906
L146.4222 117.3906
" />
<path d="M146.4222 117.3906
L137.7722 117.3906
" />
<path d="M174.9922 118.3756
L181.0922 118.3756
" />
<path d="M174.9922 66.5756
L174.9922 118.3756
" />
<path d="M181.0922 118.3756
L181.0922 66.5756
" />
<path d="M181.0922 66.5756
L174.9922 66.5756
" />
<path d="M224.2022 59.7000
L239.1022 59.7000
" />
<path d="M224.2022 51.0500
L224.2022 59.7000
" />
<path d="M239.1022 59.7000
L239.1022 51.0500
" />
<path d="M239.1022 51.0500
L224.2022 51.0500
" />
<g >
</g>
<g >
</g>
<g >
</g>
<g >
</g>
<g >
</g>
<g >
</g>
<g >
</g>
<g >
</g>
<g >
</g>
<g >
</g>
<g >
</g>
<g >
</g>
<g >
</g>
<g >
</g>
<g >
</g>
<g >
</g>
<g >
</g>
<g >
</g>
<g >
</g>
<g >
</g>
<g >
</g>
<g >
</g>
<g >
</g>
<g >
</g>
<g >
</g>
<g >
</g>
<g >
</g>
<g >
</g>
<g >
</g>
<g >
</g>
<g >
</g>
<g >
</g>
<g >
</g>
<g >
</g>
<g >
</g>
<g >
</g>
<g >
</g>
<g >
</g>
<g >
</g>
<g >
</g>
<g >
</g>
<g >
</g>
<g >
</g>
<g >
</g>
<g >
</g>
<g >
</g>
<g >
</g>
<g >
</g>
<g >
</g>
<g >
</g>
<g >
</g>
<g >
</g>
<g >
</g>
<g >
</g>
<g >
</g>
<g >
</g>
<g >
</g>
<g >
</g>
<g >
</g>
<g >
</g>
<g >
</g>
<g >
</g>
<g >
</g>
<g >
</g>
<g >
</g>
<g >
</g>
<g >
</g>
<g >
</g>
<g >
</g>
<g >
</g>
</g> 
</svg>
