  0
SECTION
  2
HEADER
  9
$ANGBASE
  50
0.0
  9
$ANGDIR
  70
1
  9
$MEASUREMENT
  70
1
  0
ENDSEC
  0
SECTION
  2
TABLES
  0
TABLE
  2
LTYPE
  70
4
  0
LTYPE
  5
40F
  2
CONTINUOUS
  70
0
  3
Solid line
  72
65
  73
0
  40
0.0
  0
LTYPE
  5
410
  2
DASHDOT
 70
0
  3
Dash Dot ____ _ ____ _
 72
65
 73
4
 40
2.0
 49
1.25
 49
-0.25
 49
0.25
 49
-0.25
  0
LTYPE
  5
411
  2
DASHED
 70
0
  3
Dashed __ __ __ __ __
 72
65
 73
2
 40
0.75
 49
0.5
 49
-0.25
  0
LTYPE
  5
43B
  2
DOTTED
 70
0
  3
Dotted .  .  .  .
 72
65
 73
2
 40
0.2
 49
0.0
 49
-0.2
  0
ENDTAB
  0
TABLE
  2
STYLE
  70
4
  0
STYLE
  2
KICAD
  70
0
  40
0
  41
1
  42
1
  50
0
  71
0
  3
isocp.shx
  0
STYLE
  2
KICADB
  70
0
  40
0
  41
1
  42
1
  50
0
  71
0
  3
isocp.shx
  0
STYLE
  2
KICADI
  70
0
  40
0
  41
1
  42
1
  50
15
  71
0
  3
isocp.shx
  0
STYLE
  2
KICADBI
  70
0
  40
0
  41
1
  42
1
  50
15
  71
0
  3
isocp.shx
  0
ENDTAB
  0
TABLE
  2
LAYER
  70
1
  0
LAYER
  2
BLACK
  70
0
  62
7
  6
CONTINUOUS
  0
ENDTAB
  0
ENDSEC
  0
SECTION
  2
ENTITIES
0
LINE
8
BLACK
6
CONTINUOUS
10
30.4862149999999978
20
-116.2425379999999961
11
30.8030489999999979
21
-116.3176289999999966
0
LINE
8
BLACK
6
CONTINUOUS
10
30.8030489999999979
20
-116.3176289999999966
11
31.109022999999997
21
-116.4289950000000005
0
LINE
8
BLACK
6
CONTINUOUS
10
31.109022999999997
20
-116.4289950000000005
11
31.3999999999999986
21
-116.5751289999999898
0
LINE
8
BLACK
6
CONTINUOUS
10
31.3999999999999986
20
-116.5751289999999898
11
31.6720439999999996
21
-116.7540549999999939
0
LINE
8
BLACK
6
CONTINUOUS
10
31.6720439999999996
20
-116.7540549999999939
11
31.9214769999999994
21
-116.9633539999999954
0
LINE
8
BLACK
6
CONTINUOUS
10
31.9214769999999994
20
-116.9633539999999954
11
32.1449239999999961
21
-117.2001949999999937
0
LINE
8
BLACK
6
CONTINUOUS
10
32.1449239999999961
20
-117.2001949999999937
11
32.3393659999999983
21
-117.4613749999999897
0
LINE
8
BLACK
6
CONTINUOUS
10
32.3393659999999983
20
-117.4613749999999897
11
32.502170999999997
21
-117.7433619999999905
0
LINE
8
BLACK
6
CONTINUOUS
10
32.502170999999997
20
-117.7433619999999905
11
32.6311389999999975
21
-118.0423439999999999
0
LINE
8
BLACK
6
CONTINUOUS
10
32.6311389999999975
20
-118.0423439999999999
11
32.7245259999999973
21
-118.3542759999999987
0
LINE
8
BLACK
6
CONTINUOUS
10
32.7245259999999973
20
-118.3542759999999987
11
32.7810670000000002
21
-118.6749399999999923
0
LINE
8
BLACK
6
CONTINUOUS
10
32.7810670000000002
20
-118.6749399999999923
11
32.7999999999999972
21
-119.
0
LINE
8
BLACK
6
CONTINUOUS
10
32.7999999999999972
20
-119.
11
32.7810670000000002
21
-119.3250599999999935
0
LINE
8
BLACK
6
CONTINUOUS
10
32.7810670000000002
20
-119.3250599999999935
11
32.7245259999999973
21
-119.6457240000000013
0
LINE
8
BLACK
6
CONTINUOUS
10
32.7245259999999973
20
-119.6457240000000013
11
32.6311389999999975
21
-119.9576560000000001
0
LINE
8
BLACK
6
CONTINUOUS
10
32.6311389999999975
20
-119.9576560000000001
11
32.502170999999997
21
-120.2566379999999953
0
LINE
8
BLACK
6
CONTINUOUS
10
32.502170999999997
20
-120.2566379999999953
11
32.3393659999999983
21
-120.5386249999999961
0
LINE
8
BLACK
6
CONTINUOUS
10
32.3393659999999983
20
-120.5386249999999961
11
32.1449239999999961
21
-120.7998049999999921
0
LINE
8
BLACK
6
CONTINUOUS
10
32.1449239999999961
20
-120.7998049999999921
11
31.9214769999999994
21
-121.0366459999999904
0
LINE
8
BLACK
6
CONTINUOUS
10
31.9214769999999994
20
-121.0366459999999904
11
31.6720439999999996
21
-121.2459449999999919
0
LINE
8
BLACK
6
CONTINUOUS
10
31.6720439999999996
20
-121.2459449999999919
11
31.3999999999999986
21
-121.424870999999996
0
LINE
8
BLACK
6
CONTINUOUS
10
31.3999999999999986
20
-121.424870999999996
11
31.109022999999997
21
-121.5710049999999995
0
LINE
8
BLACK
6
CONTINUOUS
10
31.109022999999997
20
-121.5710049999999995
11
30.8030489999999979
21
-121.6823709999999892
0
LINE
8
BLACK
6
CONTINUOUS
10
30.8030489999999979
20
-121.6823709999999892
11
30.4862149999999978
21
-121.7574619999999896
0
LINE
8
BLACK
6
CONTINUOUS
10
30.4862149999999978
20
-121.7574619999999896
11
30.1628059999999998
21
-121.7952629999999914
0
LINE
8
BLACK
6
CONTINUOUS
10
30.1628059999999998
20
-121.7952629999999914
11
29.8371940000000002
21
-121.7952629999999914
0
LINE
8
BLACK
6
CONTINUOUS
10
29.8371940000000002
20
-121.7952629999999914
11
29.5137849999999986
21
-121.7574619999999896
0
LINE
8
BLACK
6
CONTINUOUS
10
29.5137849999999986
20
-121.7574619999999896
11
29.1969509999999985
21
-121.6823709999999892
0
LINE
8
BLACK
6
CONTINUOUS
10
29.1969509999999985
20
-121.6823709999999892
11
28.8909769999999995
21
-121.5710049999999995
0
LINE
8
BLACK
6
CONTINUOUS
10
28.8909769999999995
20
-121.5710049999999995
11
28.5999999999999979
21
-121.424870999999996
0
LINE
8
BLACK
6
CONTINUOUS
10
28.5999999999999979
20
-121.424870999999996
11
28.3279560000000004
21
-121.2459449999999919
0
LINE
8
BLACK
6
CONTINUOUS
10
28.3279560000000004
20
-121.2459449999999919
11
28.078522999999997
21
-121.0366459999999904
0
LINE
8
BLACK
6
CONTINUOUS
10
28.078522999999997
20
-121.0366459999999904
11
27.8550760000000004
21
-120.7998049999999921
0
LINE
8
BLACK
6
CONTINUOUS
10
27.8550760000000004
20
-120.7998049999999921
11
27.6606339999999982
21
-120.5386249999999961
0
LINE
8
BLACK
6
CONTINUOUS
10
27.6606339999999982
20
-120.5386249999999961
11
27.4978289999999994
21
-120.2566379999999953
0
LINE
8
BLACK
6
CONTINUOUS
10
27.4978289999999994
20
-120.2566379999999953
11
27.368860999999999
21
-119.9576560000000001
0
LINE
8
BLACK
6
CONTINUOUS
10
27.368860999999999
20
-119.9576560000000001
11
27.2754739999999991
21
-119.6457240000000013
0
LINE
8
BLACK
6
CONTINUOUS
10
27.2754739999999991
20
-119.6457240000000013
11
27.2189329999999998
21
-119.3250599999999935
0
LINE
8
BLACK
6
CONTINUOUS
10
27.2189329999999998
20
-119.3250599999999935
11
27.1999999999999993
21
-119.
0
LINE
8
BLACK
6
CONTINUOUS
10
27.1999999999999993
20
-119.
11
27.2189329999999998
21
-118.6749399999999923
0
LINE
8
BLACK
6
CONTINUOUS
10
27.2189329999999998
20
-118.6749399999999923
11
27.2754739999999991
21
-118.3542759999999987
0
LINE
8
BLACK
6
CONTINUOUS
10
27.2754739999999991
20
-118.3542759999999987
11
27.368860999999999
21
-118.0423439999999999
0
LINE
8
BLACK
6
CONTINUOUS
10
27.368860999999999
20
-118.0423439999999999
11
27.4978289999999994
21
-117.7433619999999905
0
LINE
8
BLACK
6
CONTINUOUS
10
27.4978289999999994
20
-117.7433619999999905
11
27.6606339999999982
21
-117.4613749999999897
0
LINE
8
BLACK
6
CONTINUOUS
10
27.6606339999999982
20
-117.4613749999999897
11
27.8550760000000004
21
-117.2001949999999937
0
LINE
8
BLACK
6
CONTINUOUS
10
27.8550760000000004
20
-117.2001949999999937
11
28.078522999999997
21
-116.9633539999999954
0
LINE
8
BLACK
6
CONTINUOUS
10
28.078522999999997
20
-116.9633539999999954
11
28.3279560000000004
21
-116.7540549999999939
0
LINE
8
BLACK
6
CONTINUOUS
10
28.3279560000000004
20
-116.7540549999999939
11
28.5999999999999979
21
-116.5751289999999898
0
LINE
8
BLACK
6
CONTINUOUS
10
28.5999999999999979
20
-116.5751289999999898
11
28.8909769999999995
21
-116.4289950000000005
0
LINE
8
BLACK
6
CONTINUOUS
10
28.8909769999999995
20
-116.4289950000000005
11
29.1969509999999985
21
-116.3176289999999966
0
LINE
8
BLACK
6
CONTINUOUS
10
29.1969509999999985
20
-116.3176289999999966
11
29.5137849999999986
21
-116.2425379999999961
0
LINE
8
BLACK
6
CONTINUOUS
10
29.5137849999999986
20
-116.2425379999999961
11
29.8371940000000002
21
-116.2047369999999944
0
LINE
8
BLACK
6
CONTINUOUS
10
29.8371940000000002
20
-116.2047369999999944
11
30.1628059999999998
21
-116.2047369999999944
0
LINE
8
BLACK
6
CONTINUOUS
10
30.1628059999999998
20
-116.2047369999999944
11
30.4862149999999978
21
-116.2425379999999961
0
LINE
8
BLACK
6
CONTINUOUS
10
105.4862150000000014
20
-116.2425379999999961
11
105.8030490000000015
21
-116.3176289999999966
0
LINE
8
BLACK
6
CONTINUOUS
10
105.8030490000000015
20
-116.3176289999999966
11
106.1090229999999934
21
-116.4289950000000005
0
LINE
8
BLACK
6
CONTINUOUS
10
106.1090229999999934
20
-116.4289950000000005
11
106.3999999999999915
21
-116.5751289999999898
0
LINE
8
BLACK
6
CONTINUOUS
10
106.3999999999999915
20
-116.5751289999999898
11
106.6720439999999996
21
-116.7540549999999939
0
LINE
8
BLACK
6
CONTINUOUS
10
106.6720439999999996
20
-116.7540549999999939
11
106.9214769999999959
21
-116.9633539999999954
0
LINE
8
BLACK
6
CONTINUOUS
10
106.9214769999999959
20
-116.9633539999999954
11
107.144923999999989
21
-117.2001949999999937
0
LINE
8
BLACK
6
CONTINUOUS
10
107.144923999999989
20
-117.2001949999999937
11
107.3393659999999983
21
-117.4613749999999897
0
LINE
8
BLACK
6
CONTINUOUS
10
107.3393659999999983
20
-117.4613749999999897
11
107.5021709999999899
21
-117.7433619999999905
0
LINE
8
BLACK
6
CONTINUOUS
10
107.5021709999999899
20
-117.7433619999999905
11
107.6311389999999903
21
-118.0423439999999999
0
LINE
8
BLACK
6
CONTINUOUS
10
107.6311389999999903
20
-118.0423439999999999
11
107.7245259999999973
21
-118.3542759999999987
0
LINE
8
BLACK
6
CONTINUOUS
10
107.7245259999999973
20
-118.3542759999999987
11
107.7810669999999931
21
-118.6749399999999923
0
LINE
8
BLACK
6
CONTINUOUS
10
107.7810669999999931
20
-118.6749399999999923
11
107.7999999999999972
21
-119.
0
LINE
8
BLACK
6
CONTINUOUS
10
107.7999999999999972
20
-119.
11
107.7810669999999931
21
-119.3250599999999935
0
LINE
8
BLACK
6
CONTINUOUS
10
107.7810669999999931
20
-119.3250599999999935
11
107.7245259999999973
21
-119.6457240000000013
0
LINE
8
BLACK
6
CONTINUOUS
10
107.7245259999999973
20
-119.6457240000000013
11
107.6311389999999903
21
-119.9576560000000001
0
LINE
8
BLACK
6
CONTINUOUS
10
107.6311389999999903
20
-119.9576560000000001
11
107.5021709999999899
21
-120.2566379999999953
0
LINE
8
BLACK
6
CONTINUOUS
10
107.5021709999999899
20
-120.2566379999999953
11
107.3393659999999983
21
-120.5386249999999961
0
LINE
8
BLACK
6
CONTINUOUS
10
107.3393659999999983
20
-120.5386249999999961
11
107.144923999999989
21
-120.7998049999999921
0
LINE
8
BLACK
6
CONTINUOUS
10
107.144923999999989
20
-120.7998049999999921
11
106.9214769999999959
21
-121.0366459999999904
0
LINE
8
BLACK
6
CONTINUOUS
10
106.9214769999999959
20
-121.0366459999999904
11
106.6720439999999996
21
-121.2459449999999919
0
LINE
8
BLACK
6
CONTINUOUS
10
106.6720439999999996
20
-121.2459449999999919
11
106.3999999999999915
21
-121.424870999999996
0
LINE
8
BLACK
6
CONTINUOUS
10
106.3999999999999915
20
-121.424870999999996
11
106.1090229999999934
21
-121.5710049999999995
0
LINE
8
BLACK
6
CONTINUOUS
10
106.1090229999999934
20
-121.5710049999999995
11
105.8030490000000015
21
-121.6823709999999892
0
LINE
8
BLACK
6
CONTINUOUS
10
105.8030490000000015
20
-121.6823709999999892
11
105.4862150000000014
21
-121.7574619999999896
0
LINE
8
BLACK
6
CONTINUOUS
10
105.4862150000000014
20
-121.7574619999999896
11
105.1628059999999891
21
-121.7952629999999914
0
LINE
8
BLACK
6
CONTINUOUS
10
105.1628059999999891
20
-121.7952629999999914
11
104.8371939999999967
21
-121.7952629999999914
0
LINE
8
BLACK
6
CONTINUOUS
10
104.8371939999999967
20
-121.7952629999999914
11
104.5137849999999986
21
-121.7574619999999896
0
LINE
8
BLACK
6
CONTINUOUS
10
104.5137849999999986
20
-121.7574619999999896
11
104.1969509999999985
21
-121.6823709999999892
0
LINE
8
BLACK
6
CONTINUOUS
10
104.1969509999999985
20
-121.6823709999999892
11
103.8909769999999924
21
-121.5710049999999995
0
LINE
8
BLACK
6
CONTINUOUS
10
103.8909769999999924
20
-121.5710049999999995
11
103.5999999999999943
21
-121.424870999999996
0
LINE
8
BLACK
6
CONTINUOUS
10
103.5999999999999943
20
-121.424870999999996
11
103.3279560000000004
21
-121.2459449999999919
0
LINE
8
BLACK
6
CONTINUOUS
10
103.3279560000000004
20
-121.2459449999999919
11
103.0785229999999899
21
-121.0366459999999904
0
LINE
8
BLACK
6
CONTINUOUS
10
103.0785229999999899
20
-121.0366459999999904
11
102.8550759999999968
21
-120.7998049999999921
0
LINE
8
BLACK
6
CONTINUOUS
10
102.8550759999999968
20
-120.7998049999999921
11
102.6606340000000017
21
-120.5386249999999961
0
LINE
8
BLACK
6
CONTINUOUS
10
102.6606340000000017
20
-120.5386249999999961
11
102.4978289999999959
21
-120.2566379999999953
0
LINE
8
BLACK
6
CONTINUOUS
10
102.4978289999999959
20
-120.2566379999999953
11
102.3688609999999954
21
-119.9576560000000001
0
LINE
8
BLACK
6
CONTINUOUS
10
102.3688609999999954
20
-119.9576560000000001
11
102.2754739999999885
21
-119.6457240000000013
0
LINE
8
BLACK
6
CONTINUOUS
10
102.2754739999999885
20
-119.6457240000000013
11
102.2189329999999927
21
-119.3250599999999935
0
LINE
8
BLACK
6
CONTINUOUS
10
102.2189329999999927
20
-119.3250599999999935
11
102.1999999999999886
21
-119.
0
LINE
8
BLACK
6
CONTINUOUS
10
102.1999999999999886
20
-119.
11
102.2189329999999927
21
-118.6749399999999923
0
LINE
8
BLACK
6
CONTINUOUS
10
102.2189329999999927
20
-118.6749399999999923
11
102.2754739999999885
21
-118.3542759999999987
0
LINE
8
BLACK
6
CONTINUOUS
10
102.2754739999999885
20
-118.3542759999999987
11
102.3688609999999954
21
-118.0423439999999999
0
LINE
8
BLACK
6
CONTINUOUS
10
102.3688609999999954
20
-118.0423439999999999
11
102.4978289999999959
21
-117.7433619999999905
0
LINE
8
BLACK
6
CONTINUOUS
10
102.4978289999999959
20
-117.7433619999999905
11
102.6606340000000017
21
-117.4613749999999897
0
LINE
8
BLACK
6
CONTINUOUS
10
102.6606340000000017
20
-117.4613749999999897
11
102.8550759999999968
21
-117.2001949999999937
0
LINE
8
BLACK
6
CONTINUOUS
10
102.8550759999999968
20
-117.2001949999999937
11
103.0785229999999899
21
-116.9633539999999954
0
LINE
8
BLACK
6
CONTINUOUS
10
103.0785229999999899
20
-116.9633539999999954
11
103.3279560000000004
21
-116.7540549999999939
0
LINE
8
BLACK
6
CONTINUOUS
10
103.3279560000000004
20
-116.7540549999999939
11
103.5999999999999943
21
-116.5751289999999898
0
LINE
8
BLACK
6
CONTINUOUS
10
103.5999999999999943
20
-116.5751289999999898
11
103.8909769999999924
21
-116.4289950000000005
0
LINE
8
BLACK
6
CONTINUOUS
10
103.8909769999999924
20
-116.4289950000000005
11
104.1969509999999985
21
-116.3176289999999966
0
LINE
8
BLACK
6
CONTINUOUS
10
104.1969509999999985
20
-116.3176289999999966
11
104.5137849999999986
21
-116.2425379999999961
0
LINE
8
BLACK
6
CONTINUOUS
10
104.5137849999999986
20
-116.2425379999999961
11
104.8371939999999967
21
-116.2047369999999944
0
LINE
8
BLACK
6
CONTINUOUS
10
104.8371939999999967
20
-116.2047369999999944
11
105.1628059999999891
21
-116.2047369999999944
0
LINE
8
BLACK
6
CONTINUOUS
10
105.1628059999999891
20
-116.2047369999999944
11
105.4862150000000014
21
-116.2425379999999961
0
LINE
8
BLACK
6
CONTINUOUS
10
180.4862149999999872
20
-116.2425379999999961
11
180.8030489999999872
21
-116.3176289999999966
0
LINE
8
BLACK
6
CONTINUOUS
10
180.8030489999999872
20
-116.3176289999999966
11
181.1090229999999792
21
-116.4289950000000005
0
LINE
8
BLACK
6
CONTINUOUS
10
181.1090229999999792
20
-116.4289950000000005
11
181.4000000000000057
21
-116.5751289999999898
0
LINE
8
BLACK
6
CONTINUOUS
10
181.4000000000000057
20
-116.5751289999999898
11
181.6720439999999996
21
-116.7540549999999939
0
LINE
8
BLACK
6
CONTINUOUS
10
181.6720439999999996
20
-116.7540549999999939
11
181.9214769999999817
21
-116.9633539999999954
0
LINE
8
BLACK
6
CONTINUOUS
10
181.9214769999999817
20
-116.9633539999999954
11
182.1449240000000032
21
-117.2001949999999937
0
LINE
8
BLACK
6
CONTINUOUS
10
182.1449240000000032
20
-117.2001949999999937
11
182.3393659999999841
21
-117.4613749999999897
0
LINE
8
BLACK
6
CONTINUOUS
10
182.3393659999999841
20
-117.4613749999999897
11
182.5021710000000041
21
-117.7433619999999905
0
LINE
8
BLACK
6
CONTINUOUS
10
182.5021710000000041
20
-117.7433619999999905
11
182.6311389999999903
21
-118.0423439999999999
0
LINE
8
BLACK
6
CONTINUOUS
10
182.6311389999999903
20
-118.0423439999999999
11
182.7245259999999973
21
-118.3542759999999987
0
LINE
8
BLACK
6
CONTINUOUS
10
182.7245259999999973
20
-118.3542759999999987
11
182.7810669999999789
21
-118.6749399999999923
0
LINE
8
BLACK
6
CONTINUOUS
10
182.7810669999999789
20
-118.6749399999999923
11
182.7999999999999829
21
-119.
0
LINE
8
BLACK
6
CONTINUOUS
10
182.7999999999999829
20
-119.
11
182.7810669999999789
21
-119.3250599999999935
0
LINE
8
BLACK
6
CONTINUOUS
10
182.7810669999999789
20
-119.3250599999999935
11
182.7245259999999973
21
-119.6457240000000013
0
LINE
8
BLACK
6
CONTINUOUS
10
182.7245259999999973
20
-119.6457240000000013
11
182.6311389999999903
21
-119.9576560000000001
0
LINE
8
BLACK
6
CONTINUOUS
10
182.6311389999999903
20
-119.9576560000000001
11
182.5021710000000041
21
-120.2566379999999953
0
LINE
8
BLACK
6
CONTINUOUS
10
182.5021710000000041
20
-120.2566379999999953
11
182.3393659999999841
21
-120.5386249999999961
0
LINE
8
BLACK
6
CONTINUOUS
10
182.3393659999999841
20
-120.5386249999999961
11
182.1449240000000032
21
-120.7998049999999921
0
LINE
8
BLACK
6
CONTINUOUS
10
182.1449240000000032
20
-120.7998049999999921
11
181.9214769999999817
21
-121.0366459999999904
0
LINE
8
BLACK
6
CONTINUOUS
10
181.9214769999999817
20
-121.0366459999999904
11
181.6720439999999996
21
-121.2459449999999919
0
LINE
8
BLACK
6
CONTINUOUS
10
181.6720439999999996
20
-121.2459449999999919
11
181.4000000000000057
21
-121.424870999999996
0
LINE
8
BLACK
6
CONTINUOUS
10
181.4000000000000057
20
-121.424870999999996
11
181.1090229999999792
21
-121.5710049999999995
0
LINE
8
BLACK
6
CONTINUOUS
10
181.1090229999999792
20
-121.5710049999999995
11
180.8030489999999872
21
-121.6823709999999892
0
LINE
8
BLACK
6
CONTINUOUS
10
180.8030489999999872
20
-121.6823709999999892
11
180.4862149999999872
21
-121.7574619999999896
0
LINE
8
BLACK
6
CONTINUOUS
10
180.4862149999999872
20
-121.7574619999999896
11
180.1628059999999891
21
-121.7952629999999914
0
LINE
8
BLACK
6
CONTINUOUS
10
180.1628059999999891
20
-121.7952629999999914
11
179.8371939999999825
21
-121.7952629999999914
0
LINE
8
BLACK
6
CONTINUOUS
10
179.8371939999999825
20
-121.7952629999999914
11
179.5137849999999844
21
-121.7574619999999896
0
LINE
8
BLACK
6
CONTINUOUS
10
179.5137849999999844
20
-121.7574619999999896
11
179.1969509999999843
21
-121.6823709999999892
0
LINE
8
BLACK
6
CONTINUOUS
10
179.1969509999999843
20
-121.6823709999999892
11
178.8909769999999924
21
-121.5710049999999995
0
LINE
8
BLACK
6
CONTINUOUS
10
178.8909769999999924
20
-121.5710049999999995
11
178.5999999999999943
21
-121.424870999999996
0
LINE
8
BLACK
6
CONTINUOUS
10
178.5999999999999943
20
-121.424870999999996
11
178.3279560000000004
21
-121.2459449999999919
0
LINE
8
BLACK
6
CONTINUOUS
10
178.3279560000000004
20
-121.2459449999999919
11
178.0785229999999899
21
-121.0366459999999904
0
LINE
8
BLACK
6
CONTINUOUS
10
178.0785229999999899
20
-121.0366459999999904
11
177.8550759999999968
21
-120.7998049999999921
0
LINE
8
BLACK
6
CONTINUOUS
10
177.8550759999999968
20
-120.7998049999999921
11
177.6606339999999875
21
-120.5386249999999961
0
LINE
8
BLACK
6
CONTINUOUS
10
177.6606339999999875
20
-120.5386249999999961
11
177.4978289999999959
21
-120.2566379999999953
0
LINE
8
BLACK
6
CONTINUOUS
10
177.4978289999999959
20
-120.2566379999999953
11
177.3688609999999812
21
-119.9576560000000001
0
LINE
8
BLACK
6
CONTINUOUS
10
177.3688609999999812
20
-119.9576560000000001
11
177.2754740000000027
21
-119.6457240000000013
0
LINE
8
BLACK
6
CONTINUOUS
10
177.2754740000000027
20
-119.6457240000000013
11
177.2189329999999927
21
-119.3250599999999935
0
LINE
8
BLACK
6
CONTINUOUS
10
177.2189329999999927
20
-119.3250599999999935
11
177.1999999999999886
21
-119.
0
LINE
8
BLACK
6
CONTINUOUS
10
177.1999999999999886
20
-119.
11
177.2189329999999927
21
-118.6749399999999923
0
LINE
8
BLACK
6
CONTINUOUS
10
177.2189329999999927
20
-118.6749399999999923
11
177.2754740000000027
21
-118.3542759999999987
0
LINE
8
BLACK
6
CONTINUOUS
10
177.2754740000000027
20
-118.3542759999999987
11
177.3688609999999812
21
-118.0423439999999999
0
LINE
8
BLACK
6
CONTINUOUS
10
177.3688609999999812
20
-118.0423439999999999
11
177.4978289999999959
21
-117.7433619999999905
0
LINE
8
BLACK
6
CONTINUOUS
10
177.4978289999999959
20
-117.7433619999999905
11
177.6606339999999875
21
-117.4613749999999897
0
LINE
8
BLACK
6
CONTINUOUS
10
177.6606339999999875
20
-117.4613749999999897
11
177.8550759999999968
21
-117.2001949999999937
0
LINE
8
BLACK
6
CONTINUOUS
10
177.8550759999999968
20
-117.2001949999999937
11
178.0785229999999899
21
-116.9633539999999954
0
LINE
8
BLACK
6
CONTINUOUS
10
178.0785229999999899
20
-116.9633539999999954
11
178.3279560000000004
21
-116.7540549999999939
0
LINE
8
BLACK
6
CONTINUOUS
10
178.3279560000000004
20
-116.7540549999999939
11
178.5999999999999943
21
-116.5751289999999898
0
LINE
8
BLACK
6
CONTINUOUS
10
178.5999999999999943
20
-116.5751289999999898
11
178.8909769999999924
21
-116.4289950000000005
0
LINE
8
BLACK
6
CONTINUOUS
10
178.8909769999999924
20
-116.4289950000000005
11
179.1969509999999843
21
-116.3176289999999966
0
LINE
8
BLACK
6
CONTINUOUS
10
179.1969509999999843
20
-116.3176289999999966
11
179.5137849999999844
21
-116.2425379999999961
0
LINE
8
BLACK
6
CONTINUOUS
10
179.5137849999999844
20
-116.2425379999999961
11
179.8371939999999825
21
-116.2047369999999944
0
LINE
8
BLACK
6
CONTINUOUS
10
179.8371939999999825
20
-116.2047369999999944
11
180.1628059999999891
21
-116.2047369999999944
0
LINE
8
BLACK
6
CONTINUOUS
10
180.1628059999999891
20
-116.2047369999999944
11
180.4862149999999872
21
-116.2425379999999961
0
LINE
8
BLACK
6
CONTINUOUS
10
30.4862149999999978
20
-64.2425379999999961
11
30.8030489999999979
21
-64.3176289999999966
0
LINE
8
BLACK
6
CONTINUOUS
10
30.8030489999999979
20
-64.3176289999999966
11
31.109022999999997
21
-64.4289950000000005
0
LINE
8
BLACK
6
CONTINUOUS
10
31.109022999999997
20
-64.4289950000000005
11
31.3999999999999986
21
-64.575129000000004
0
LINE
8
BLACK
6
CONTINUOUS
10
31.3999999999999986
20
-64.575129000000004
11
31.6720439999999996
21
-64.7540549999999939
0
LINE
8
BLACK
6
CONTINUOUS
10
31.6720439999999996
20
-64.7540549999999939
11
31.9214769999999994
21
-64.9633539999999954
0
LINE
8
BLACK
6
CONTINUOUS
10
31.9214769999999994
20
-64.9633539999999954
11
32.1449239999999961
21
-65.2001949999999937
0
LINE
8
BLACK
6
CONTINUOUS
10
32.1449239999999961
20
-65.2001949999999937
11
32.3393659999999983
21
-65.4613750000000039
0
LINE
8
BLACK
6
CONTINUOUS
10
32.3393659999999983
20
-65.4613750000000039
11
32.502170999999997
21
-65.7433619999999905
0
LINE
8
BLACK
6
CONTINUOUS
10
32.502170999999997
20
-65.7433619999999905
11
32.6311389999999975
21
-66.0423439999999999
0
LINE
8
BLACK
6
CONTINUOUS
10
32.6311389999999975
20
-66.0423439999999999
11
32.7245259999999973
21
-66.3542759999999987
0
LINE
8
BLACK
6
CONTINUOUS
10
32.7245259999999973
20
-66.3542759999999987
11
32.7810670000000002
21
-66.6749399999999923
0
LINE
8
BLACK
6
CONTINUOUS
10
32.7810670000000002
20
-66.6749399999999923
11
32.7999999999999972
21
-67.
0
LINE
8
BLACK
6
CONTINUOUS
10
32.7999999999999972
20
-67.
11
32.7810670000000002
21
-67.3250599999999935
0
LINE
8
BLACK
6
CONTINUOUS
10
32.7810670000000002
20
-67.3250599999999935
11
32.7245259999999973
21
-67.6457240000000013
0
LINE
8
BLACK
6
CONTINUOUS
10
32.7245259999999973
20
-67.6457240000000013
11
32.6311389999999975
21
-67.9576560000000001
0
LINE
8
BLACK
6
CONTINUOUS
10
32.6311389999999975
20
-67.9576560000000001
11
32.502170999999997
21
-68.2566379999999953
0
LINE
8
BLACK
6
CONTINUOUS
10
32.502170999999997
20
-68.2566379999999953
11
32.3393659999999983
21
-68.5386249999999961
0
LINE
8
BLACK
6
CONTINUOUS
10
32.3393659999999983
20
-68.5386249999999961
11
32.1449239999999961
21
-68.7998049999999921
0
LINE
8
BLACK
6
CONTINUOUS
10
32.1449239999999961
20
-68.7998049999999921
11
31.9214769999999994
21
-69.0366459999999904
0
LINE
8
BLACK
6
CONTINUOUS
10
31.9214769999999994
20
-69.0366459999999904
11
31.6720439999999996
21
-69.2459449999999919
0
LINE
8
BLACK
6
CONTINUOUS
10
31.6720439999999996
20
-69.2459449999999919
11
31.3999999999999986
21
-69.424870999999996
0
LINE
8
BLACK
6
CONTINUOUS
10
31.3999999999999986
20
-69.424870999999996
11
31.109022999999997
21
-69.5710049999999995
0
LINE
8
BLACK
6
CONTINUOUS
10
31.109022999999997
20
-69.5710049999999995
11
30.8030489999999979
21
-69.6823710000000034
0
LINE
8
BLACK
6
CONTINUOUS
10
30.8030489999999979
20
-69.6823710000000034
11
30.4862149999999978
21
-69.7574620000000039
0
LINE
8
BLACK
6
CONTINUOUS
10
30.4862149999999978
20
-69.7574620000000039
11
30.1628059999999998
21
-69.7952629999999914
0
LINE
8
BLACK
6
CONTINUOUS
10
30.1628059999999998
20
-69.7952629999999914
11
29.8371940000000002
21
-69.7952629999999914
0
LINE
8
BLACK
6
CONTINUOUS
10
29.8371940000000002
20
-69.7952629999999914
11
29.5137849999999986
21
-69.7574620000000039
0
LINE
8
BLACK
6
CONTINUOUS
10
29.5137849999999986
20
-69.7574620000000039
11
29.1969509999999985
21
-69.6823710000000034
0
LINE
8
BLACK
6
CONTINUOUS
10
29.1969509999999985
20
-69.6823710000000034
11
28.8909769999999995
21
-69.5710049999999995
0
LINE
8
BLACK
6
CONTINUOUS
10
28.8909769999999995
20
-69.5710049999999995
11
28.5999999999999979
21
-69.424870999999996
0
LINE
8
BLACK
6
CONTINUOUS
10
28.5999999999999979
20
-69.424870999999996
11
28.3279560000000004
21
-69.2459449999999919
0
LINE
8
BLACK
6
CONTINUOUS
10
28.3279560000000004
20
-69.2459449999999919
11
28.078522999999997
21
-69.0366459999999904
0
LINE
8
BLACK
6
CONTINUOUS
10
28.078522999999997
20
-69.0366459999999904
11
27.8550760000000004
21
-68.7998049999999921
0
LINE
8
BLACK
6
CONTINUOUS
10
27.8550760000000004
20
-68.7998049999999921
11
27.6606339999999982
21
-68.5386249999999961
0
LINE
8
BLACK
6
CONTINUOUS
10
27.6606339999999982
20
-68.5386249999999961
11
27.4978289999999994
21
-68.2566379999999953
0
LINE
8
BLACK
6
CONTINUOUS
10
27.4978289999999994
20
-68.2566379999999953
11
27.368860999999999
21
-67.9576560000000001
0
LINE
8
BLACK
6
CONTINUOUS
10
27.368860999999999
20
-67.9576560000000001
11
27.2754739999999991
21
-67.6457240000000013
0
LINE
8
BLACK
6
CONTINUOUS
10
27.2754739999999991
20
-67.6457240000000013
11
27.2189329999999998
21
-67.3250599999999935
0
LINE
8
BLACK
6
CONTINUOUS
10
27.2189329999999998
20
-67.3250599999999935
11
27.1999999999999993
21
-67.
0
LINE
8
BLACK
6
CONTINUOUS
10
27.1999999999999993
20
-67.
11
27.2189329999999998
21
-66.6749399999999923
0
LINE
8
BLACK
6
CONTINUOUS
10
27.2189329999999998
20
-66.6749399999999923
11
27.2754739999999991
21
-66.3542759999999987
0
LINE
8
BLACK
6
CONTINUOUS
10
27.2754739999999991
20
-66.3542759999999987
11
27.368860999999999
21
-66.0423439999999999
0
LINE
8
BLACK
6
CONTINUOUS
10
27.368860999999999
20
-66.0423439999999999
11
27.4978289999999994
21
-65.7433619999999905
0
LINE
8
BLACK
6
CONTINUOUS
10
27.4978289999999994
20
-65.7433619999999905
11
27.6606339999999982
21
-65.4613750000000039
0
LINE
8
BLACK
6
CONTINUOUS
10
27.6606339999999982
20
-65.4613750000000039
11
27.8550760000000004
21
-65.2001949999999937
0
LINE
8
BLACK
6
CONTINUOUS
10
27.8550760000000004
20
-65.2001949999999937
11
28.078522999999997
21
-64.9633539999999954
0
LINE
8
BLACK
6
CONTINUOUS
10
28.078522999999997
20
-64.9633539999999954
11
28.3279560000000004
21
-64.7540549999999939
0
LINE
8
BLACK
6
CONTINUOUS
10
28.3279560000000004
20
-64.7540549999999939
11
28.5999999999999979
21
-64.575129000000004
0
LINE
8
BLACK
6
CONTINUOUS
10
28.5999999999999979
20
-64.575129000000004
11
28.8909769999999995
21
-64.4289950000000005
0
LINE
8
BLACK
6
CONTINUOUS
10
28.8909769999999995
20
-64.4289950000000005
11
29.1969509999999985
21
-64.3176289999999966
0
LINE
8
BLACK
6
CONTINUOUS
10
29.1969509999999985
20
-64.3176289999999966
11
29.5137849999999986
21
-64.2425379999999961
0
LINE
8
BLACK
6
CONTINUOUS
10
29.5137849999999986
20
-64.2425379999999961
11
29.8371940000000002
21
-64.2047369999999944
0
LINE
8
BLACK
6
CONTINUOUS
10
29.8371940000000002
20
-64.2047369999999944
11
30.1628059999999998
21
-64.2047369999999944
0
LINE
8
BLACK
6
CONTINUOUS
10
30.1628059999999998
20
-64.2047369999999944
11
30.4862149999999978
21
-64.2425379999999961
0
LINE
8
BLACK
6
CONTINUOUS
10
105.4862150000000014
20
-64.2425379999999961
11
105.8030490000000015
21
-64.3176289999999966
0
LINE
8
BLACK
6
CONTINUOUS
10
105.8030490000000015
20
-64.3176289999999966
11
106.1090229999999934
21
-64.4289950000000005
0
LINE
8
BLACK
6
CONTINUOUS
10
106.1090229999999934
20
-64.4289950000000005
11
106.3999999999999915
21
-64.575129000000004
0
LINE
8
BLACK
6
CONTINUOUS
10
106.3999999999999915
20
-64.575129000000004
11
106.6720439999999996
21
-64.7540549999999939
0
LINE
8
BLACK
6
CONTINUOUS
10
106.6720439999999996
20
-64.7540549999999939
11
106.9214769999999959
21
-64.9633539999999954
0
LINE
8
BLACK
6
CONTINUOUS
10
106.9214769999999959
20
-64.9633539999999954
11
107.144923999999989
21
-65.2001949999999937
0
LINE
8
BLACK
6
CONTINUOUS
10
107.144923999999989
20
-65.2001949999999937
11
107.3393659999999983
21
-65.4613750000000039
0
LINE
8
BLACK
6
CONTINUOUS
10
107.3393659999999983
20
-65.4613750000000039
11
107.5021709999999899
21
-65.7433619999999905
0
LINE
8
BLACK
6
CONTINUOUS
10
107.5021709999999899
20
-65.7433619999999905
11
107.6311389999999903
21
-66.0423439999999999
0
LINE
8
BLACK
6
CONTINUOUS
10
107.6311389999999903
20
-66.0423439999999999
11
107.7245259999999973
21
-66.3542759999999987
0
LINE
8
BLACK
6
CONTINUOUS
10
107.7245259999999973
20
-66.3542759999999987
11
107.7810669999999931
21
-66.6749399999999923
0
LINE
8
BLACK
6
CONTINUOUS
10
107.7810669999999931
20
-66.6749399999999923
11
107.7999999999999972
21
-67.
0
LINE
8
BLACK
6
CONTINUOUS
10
107.7999999999999972
20
-67.
11
107.7810669999999931
21
-67.3250599999999935
0
LINE
8
BLACK
6
CONTINUOUS
10
107.7810669999999931
20
-67.3250599999999935
11
107.7245259999999973
21
-67.6457240000000013
0
LINE
8
BLACK
6
CONTINUOUS
10
107.7245259999999973
20
-67.6457240000000013
11
107.6311389999999903
21
-67.9576560000000001
0
LINE
8
BLACK
6
CONTINUOUS
10
107.6311389999999903
20
-67.9576560000000001
11
107.5021709999999899
21
-68.2566379999999953
0
LINE
8
BLACK
6
CONTINUOUS
10
107.5021709999999899
20
-68.2566379999999953
11
107.3393659999999983
21
-68.5386249999999961
0
LINE
8
BLACK
6
CONTINUOUS
10
107.3393659999999983
20
-68.5386249999999961
11
107.144923999999989
21
-68.7998049999999921
0
LINE
8
BLACK
6
CONTINUOUS
10
107.144923999999989
20
-68.7998049999999921
11
106.9214769999999959
21
-69.0366459999999904
0
LINE
8
BLACK
6
CONTINUOUS
10
106.9214769999999959
20
-69.0366459999999904
11
106.6720439999999996
21
-69.2459449999999919
0
LINE
8
BLACK
6
CONTINUOUS
10
106.6720439999999996
20
-69.2459449999999919
11
106.3999999999999915
21
-69.424870999999996
0
LINE
8
BLACK
6
CONTINUOUS
10
106.3999999999999915
20
-69.424870999999996
11
106.1090229999999934
21
-69.5710049999999995
0
LINE
8
BLACK
6
CONTINUOUS
10
106.1090229999999934
20
-69.5710049999999995
11
105.8030490000000015
21
-69.6823710000000034
0
LINE
8
BLACK
6
CONTINUOUS
10
105.8030490000000015
20
-69.6823710000000034
11
105.4862150000000014
21
-69.7574620000000039
0
LINE
8
BLACK
6
CONTINUOUS
10
105.4862150000000014
20
-69.7574620000000039
11
105.1628059999999891
21
-69.7952629999999914
0
LINE
8
BLACK
6
CONTINUOUS
10
105.1628059999999891
20
-69.7952629999999914
11
104.8371939999999967
21
-69.7952629999999914
0
LINE
8
BLACK
6
CONTINUOUS
10
104.8371939999999967
20
-69.7952629999999914
11
104.5137849999999986
21
-69.7574620000000039
0
LINE
8
BLACK
6
CONTINUOUS
10
104.5137849999999986
20
-69.7574620000000039
11
104.1969509999999985
21
-69.6823710000000034
0
LINE
8
BLACK
6
CONTINUOUS
10
104.1969509999999985
20
-69.6823710000000034
11
103.8909769999999924
21
-69.5710049999999995
0
LINE
8
BLACK
6
CONTINUOUS
10
103.8909769999999924
20
-69.5710049999999995
11
103.5999999999999943
21
-69.424870999999996
0
LINE
8
BLACK
6
CONTINUOUS
10
103.5999999999999943
20
-69.424870999999996
11
103.3279560000000004
21
-69.2459449999999919
0
LINE
8
BLACK
6
CONTINUOUS
10
103.3279560000000004
20
-69.2459449999999919
11
103.0785229999999899
21
-69.0366459999999904
0
LINE
8
BLACK
6
CONTINUOUS
10
103.0785229999999899
20
-69.0366459999999904
11
102.8550759999999968
21
-68.7998049999999921
0
LINE
8
BLACK
6
CONTINUOUS
10
102.8550759999999968
20
-68.7998049999999921
11
102.6606340000000017
21
-68.5386249999999961
0
LINE
8
BLACK
6
CONTINUOUS
10
102.6606340000000017
20
-68.5386249999999961
11
102.4978289999999959
21
-68.2566379999999953
0
LINE
8
BLACK
6
CONTINUOUS
10
102.4978289999999959
20
-68.2566379999999953
11
102.3688609999999954
21
-67.9576560000000001
0
LINE
8
BLACK
6
CONTINUOUS
10
102.3688609999999954
20
-67.9576560000000001
11
102.2754739999999885
21
-67.6457240000000013
0
LINE
8
BLACK
6
CONTINUOUS
10
102.2754739999999885
20
-67.6457240000000013
11
102.2189329999999927
21
-67.3250599999999935
0
LINE
8
BLACK
6
CONTINUOUS
10
102.2189329999999927
20
-67.3250599999999935
11
102.1999999999999886
21
-67.
0
LINE
8
BLACK
6
CONTINUOUS
10
102.1999999999999886
20
-67.
11
102.2189329999999927
21
-66.6749399999999923
0
LINE
8
BLACK
6
CONTINUOUS
10
102.2189329999999927
20
-66.6749399999999923
11
102.2754739999999885
21
-66.3542759999999987
0
LINE
8
BLACK
6
CONTINUOUS
10
102.2754739999999885
20
-66.3542759999999987
11
102.3688609999999954
21
-66.0423439999999999
0
LINE
8
BLACK
6
CONTINUOUS
10
102.3688609999999954
20
-66.0423439999999999
11
102.4978289999999959
21
-65.7433619999999905
0
LINE
8
BLACK
6
CONTINUOUS
10
102.4978289999999959
20
-65.7433619999999905
11
102.6606340000000017
21
-65.4613750000000039
0
LINE
8
BLACK
6
CONTINUOUS
10
102.6606340000000017
20
-65.4613750000000039
11
102.8550759999999968
21
-65.2001949999999937
0
LINE
8
BLACK
6
CONTINUOUS
10
102.8550759999999968
20
-65.2001949999999937
11
103.0785229999999899
21
-64.9633539999999954
0
LINE
8
BLACK
6
CONTINUOUS
10
103.0785229999999899
20
-64.9633539999999954
11
103.3279560000000004
21
-64.7540549999999939
0
LINE
8
BLACK
6
CONTINUOUS
10
103.3279560000000004
20
-64.7540549999999939
11
103.5999999999999943
21
-64.575129000000004
0
LINE
8
BLACK
6
CONTINUOUS
10
103.5999999999999943
20
-64.575129000000004
11
103.8909769999999924
21
-64.4289950000000005
0
LINE
8
BLACK
6
CONTINUOUS
10
103.8909769999999924
20
-64.4289950000000005
11
104.1969509999999985
21
-64.3176289999999966
0
LINE
8
BLACK
6
CONTINUOUS
10
104.1969509999999985
20
-64.3176289999999966
11
104.5137849999999986
21
-64.2425379999999961
0
LINE
8
BLACK
6
CONTINUOUS
10
104.5137849999999986
20
-64.2425379999999961
11
104.8371939999999967
21
-64.2047369999999944
0
LINE
8
BLACK
6
CONTINUOUS
10
104.8371939999999967
20
-64.2047369999999944
11
105.1628059999999891
21
-64.2047369999999944
0
LINE
8
BLACK
6
CONTINUOUS
10
105.1628059999999891
20
-64.2047369999999944
11
105.4862150000000014
21
-64.2425379999999961
0
LINE
8
BLACK
6
CONTINUOUS
10
180.4862149999999872
20
-64.2425379999999961
11
180.8030489999999872
21
-64.3176289999999966
0
LINE
8
BLACK
6
CONTINUOUS
10
180.8030489999999872
20
-64.3176289999999966
11
181.1090229999999792
21
-64.4289950000000005
0
LINE
8
BLACK
6
CONTINUOUS
10
181.1090229999999792
20
-64.4289950000000005
11
181.4000000000000057
21
-64.575129000000004
0
LINE
8
BLACK
6
CONTINUOUS
10
181.4000000000000057
20
-64.575129000000004
11
181.6720439999999996
21
-64.7540549999999939
0
LINE
8
BLACK
6
CONTINUOUS
10
181.6720439999999996
20
-64.7540549999999939
11
181.9214769999999817
21
-64.9633539999999954
0
LINE
8
BLACK
6
CONTINUOUS
10
181.9214769999999817
20
-64.9633539999999954
11
182.1449240000000032
21
-65.2001949999999937
0
LINE
8
BLACK
6
CONTINUOUS
10
182.1449240000000032
20
-65.2001949999999937
11
182.3393659999999841
21
-65.4613750000000039
0
LINE
8
BLACK
6
CONTINUOUS
10
182.3393659999999841
20
-65.4613750000000039
11
182.5021710000000041
21
-65.7433619999999905
0
LINE
8
BLACK
6
CONTINUOUS
10
182.5021710000000041
20
-65.7433619999999905
11
182.6311389999999903
21
-66.0423439999999999
0
LINE
8
BLACK
6
CONTINUOUS
10
182.6311389999999903
20
-66.0423439999999999
11
182.7245259999999973
21
-66.3542759999999987
0
LINE
8
BLACK
6
CONTINUOUS
10
182.7245259999999973
20
-66.3542759999999987
11
182.7810669999999789
21
-66.6749399999999923
0
LINE
8
BLACK
6
CONTINUOUS
10
182.7810669999999789
20
-66.6749399999999923
11
182.7999999999999829
21
-67.
0
LINE
8
BLACK
6
CONTINUOUS
10
182.7999999999999829
20
-67.
11
182.7810669999999789
21
-67.3250599999999935
0
LINE
8
BLACK
6
CONTINUOUS
10
182.7810669999999789
20
-67.3250599999999935
11
182.7245259999999973
21
-67.6457240000000013
0
LINE
8
BLACK
6
CONTINUOUS
10
182.7245259999999973
20
-67.6457240000000013
11
182.6311389999999903
21
-67.9576560000000001
0
LINE
8
BLACK
6
CONTINUOUS
10
182.6311389999999903
20
-67.9576560000000001
11
182.5021710000000041
21
-68.2566379999999953
0
LINE
8
BLACK
6
CONTINUOUS
10
182.5021710000000041
20
-68.2566379999999953
11
182.3393659999999841
21
-68.5386249999999961
0
LINE
8
BLACK
6
CONTINUOUS
10
182.3393659999999841
20
-68.5386249999999961
11
182.1449240000000032
21
-68.7998049999999921
0
LINE
8
BLACK
6
CONTINUOUS
10
182.1449240000000032
20
-68.7998049999999921
11
181.9214769999999817
21
-69.0366459999999904
0
LINE
8
BLACK
6
CONTINUOUS
10
181.9214769999999817
20
-69.0366459999999904
11
181.6720439999999996
21
-69.2459449999999919
0
LINE
8
BLACK
6
CONTINUOUS
10
181.6720439999999996
20
-69.2459449999999919
11
181.4000000000000057
21
-69.424870999999996
0
LINE
8
BLACK
6
CONTINUOUS
10
181.4000000000000057
20
-69.424870999999996
11
181.1090229999999792
21
-69.5710049999999995
0
LINE
8
BLACK
6
CONTINUOUS
10
181.1090229999999792
20
-69.5710049999999995
11
180.8030489999999872
21
-69.6823710000000034
0
LINE
8
BLACK
6
CONTINUOUS
10
180.8030489999999872
20
-69.6823710000000034
11
180.4862149999999872
21
-69.7574620000000039
0
LINE
8
BLACK
6
CONTINUOUS
10
180.4862149999999872
20
-69.7574620000000039
11
180.1628059999999891
21
-69.7952629999999914
0
LINE
8
BLACK
6
CONTINUOUS
10
180.1628059999999891
20
-69.7952629999999914
11
179.8371939999999825
21
-69.7952629999999914
0
LINE
8
BLACK
6
CONTINUOUS
10
179.8371939999999825
20
-69.7952629999999914
11
179.5137849999999844
21
-69.7574620000000039
0
LINE
8
BLACK
6
CONTINUOUS
10
179.5137849999999844
20
-69.7574620000000039
11
179.1969509999999843
21
-69.6823710000000034
0
LINE
8
BLACK
6
CONTINUOUS
10
179.1969509999999843
20
-69.6823710000000034
11
178.8909769999999924
21
-69.5710049999999995
0
LINE
8
BLACK
6
CONTINUOUS
10
178.8909769999999924
20
-69.5710049999999995
11
178.5999999999999943
21
-69.424870999999996
0
LINE
8
BLACK
6
CONTINUOUS
10
178.5999999999999943
20
-69.424870999999996
11
178.3279560000000004
21
-69.2459449999999919
0
LINE
8
BLACK
6
CONTINUOUS
10
178.3279560000000004
20
-69.2459449999999919
11
178.0785229999999899
21
-69.0366459999999904
0
LINE
8
BLACK
6
CONTINUOUS
10
178.0785229999999899
20
-69.0366459999999904
11
177.8550759999999968
21
-68.7998049999999921
0
LINE
8
BLACK
6
CONTINUOUS
10
177.8550759999999968
20
-68.7998049999999921
11
177.6606339999999875
21
-68.5386249999999961
0
LINE
8
BLACK
6
CONTINUOUS
10
177.6606339999999875
20
-68.5386249999999961
11
177.4978289999999959
21
-68.2566379999999953
0
LINE
8
BLACK
6
CONTINUOUS
10
177.4978289999999959
20
-68.2566379999999953
11
177.3688609999999812
21
-67.9576560000000001
0
LINE
8
BLACK
6
CONTINUOUS
10
177.3688609999999812
20
-67.9576560000000001
11
177.2754740000000027
21
-67.6457240000000013
0
LINE
8
BLACK
6
CONTINUOUS
10
177.2754740000000027
20
-67.6457240000000013
11
177.2189329999999927
21
-67.3250599999999935
0
LINE
8
BLACK
6
CONTINUOUS
10
177.2189329999999927
20
-67.3250599999999935
11
177.1999999999999886
21
-67.
0
LINE
8
BLACK
6
CONTINUOUS
10
177.1999999999999886
20
-67.
11
177.2189329999999927
21
-66.6749399999999923
0
LINE
8
BLACK
6
CONTINUOUS
10
177.2189329999999927
20
-66.6749399999999923
11
177.2754740000000027
21
-66.3542759999999987
0
LINE
8
BLACK
6
CONTINUOUS
10
177.2754740000000027
20
-66.3542759999999987
11
177.3688609999999812
21
-66.0423439999999999
0
LINE
8
BLACK
6
CONTINUOUS
10
177.3688609999999812
20
-66.0423439999999999
11
177.4978289999999959
21
-65.7433619999999905
0
LINE
8
BLACK
6
CONTINUOUS
10
177.4978289999999959
20
-65.7433619999999905
11
177.6606339999999875
21
-65.4613750000000039
0
LINE
8
BLACK
6
CONTINUOUS
10
177.6606339999999875
20
-65.4613750000000039
11
177.8550759999999968
21
-65.2001949999999937
0
LINE
8
BLACK
6
CONTINUOUS
10
177.8550759999999968
20
-65.2001949999999937
11
178.0785229999999899
21
-64.9633539999999954
0
LINE
8
BLACK
6
CONTINUOUS
10
178.0785229999999899
20
-64.9633539999999954
11
178.3279560000000004
21
-64.7540549999999939
0
LINE
8
BLACK
6
CONTINUOUS
10
178.3279560000000004
20
-64.7540549999999939
11
178.5999999999999943
21
-64.575129000000004
0
LINE
8
BLACK
6
CONTINUOUS
10
178.5999999999999943
20
-64.575129000000004
11
178.8909769999999924
21
-64.4289950000000005
0
LINE
8
BLACK
6
CONTINUOUS
10
178.8909769999999924
20
-64.4289950000000005
11
179.1969509999999843
21
-64.3176289999999966
0
LINE
8
BLACK
6
CONTINUOUS
10
179.1969509999999843
20
-64.3176289999999966
11
179.5137849999999844
21
-64.2425379999999961
0
LINE
8
BLACK
6
CONTINUOUS
10
179.5137849999999844
20
-64.2425379999999961
11
179.8371939999999825
21
-64.2047369999999944
0
LINE
8
BLACK
6
CONTINUOUS
10
179.8371939999999825
20
-64.2047369999999944
11
180.1628059999999891
21
-64.2047369999999944
0
LINE
8
BLACK
6
CONTINUOUS
10
180.1628059999999891
20
-64.2047369999999944
11
180.4862149999999872
21
-64.2425379999999961
  0
ENDSEC
  0
EOF
