G04 #@! TF.GenerationSoftware,KiCad,Pcbnew,7.0.7-7.0.7~ubuntu23.04.1*
G04 #@! TF.CreationDate,2023-09-09T12:21:15+00:00*
G04 #@! TF.ProjectId,pedalboard-hw,70656461-6c62-46f6-9172-642d68772e6b,2.0.0*
G04 #@! TF.SameCoordinates,Original*
G04 #@! TF.FileFunction,Legend,Bot*
G04 #@! TF.FilePolarity,Positive*
%FSLAX46Y46*%
G04 Gerber Fmt 4.6, Leading zero omitted, Abs format (unit mm)*
G04 Created by KiCad (PCBNEW 7.0.7-7.0.7~ubuntu23.04.1) date 2023-09-09 12:21:15*
%MOMM*%
%LPD*%
G01*
G04 APERTURE LIST*
%ADD10C,0.150000*%
%ADD11C,0.100000*%
%ADD12C,0.120000*%
%ADD13C,1.600000*%
%ADD14O,1.200000X2.200000*%
%ADD15O,2.200000X1.200000*%
%ADD16C,2.700000*%
%ADD17C,3.000000*%
%ADD18R,4.400000X1.800000*%
%ADD19O,4.000000X1.800000*%
%ADD20O,1.800000X4.000000*%
%ADD21C,6.000000*%
%ADD22R,1.350000X1.350000*%
%ADD23O,1.350000X1.350000*%
%ADD24O,1.600000X1.600000*%
%ADD25R,1.000000X2.000000*%
%ADD26O,1.000000X2.000000*%
%ADD27R,2.250000X2.250000*%
%ADD28C,2.250000*%
%ADD29R,1.700000X1.700000*%
%ADD30O,1.700000X1.700000*%
%ADD31C,0.600000*%
%ADD32O,3.000000X2.500000*%
%ADD33R,2.400000X1.600000*%
%ADD34O,2.400000X1.600000*%
%ADD35C,2.600000*%
%ADD36R,2.000000X2.000000*%
%ADD37C,2.000000*%
%ADD38C,3.200000*%
%ADD39R,1.600000X1.600000*%
%ADD40R,3.200000X3.200000*%
%ADD41O,3.200000X3.200000*%
%ADD42R,2.200000X2.200000*%
%ADD43O,2.200000X2.200000*%
%ADD44C,1.350000*%
G04 APERTURE END LIST*
D10*
X56403761Y-70615011D02*
X56451380Y-70710249D01*
X56451380Y-70710249D02*
X56451380Y-70853106D01*
X56451380Y-70853106D02*
X56403761Y-70995963D01*
X56403761Y-70995963D02*
X56308523Y-71091201D01*
X56308523Y-71091201D02*
X56213285Y-71138820D01*
X56213285Y-71138820D02*
X56022809Y-71186439D01*
X56022809Y-71186439D02*
X55879952Y-71186439D01*
X55879952Y-71186439D02*
X55689476Y-71138820D01*
X55689476Y-71138820D02*
X55594238Y-71091201D01*
X55594238Y-71091201D02*
X55499000Y-70995963D01*
X55499000Y-70995963D02*
X55451380Y-70853106D01*
X55451380Y-70853106D02*
X55451380Y-70757868D01*
X55451380Y-70757868D02*
X55499000Y-70615011D01*
X55499000Y-70615011D02*
X55546619Y-70567392D01*
X55546619Y-70567392D02*
X55879952Y-70567392D01*
X55879952Y-70567392D02*
X55879952Y-70757868D01*
X55451380Y-70138820D02*
X56451380Y-70138820D01*
X56451380Y-70138820D02*
X55451380Y-69567392D01*
X55451380Y-69567392D02*
X56451380Y-69567392D01*
X55451380Y-69091201D02*
X56451380Y-69091201D01*
X56451380Y-69091201D02*
X56451380Y-68853106D01*
X56451380Y-68853106D02*
X56403761Y-68710249D01*
X56403761Y-68710249D02*
X56308523Y-68615011D01*
X56308523Y-68615011D02*
X56213285Y-68567392D01*
X56213285Y-68567392D02*
X56022809Y-68519773D01*
X56022809Y-68519773D02*
X55879952Y-68519773D01*
X55879952Y-68519773D02*
X55689476Y-68567392D01*
X55689476Y-68567392D02*
X55594238Y-68615011D01*
X55594238Y-68615011D02*
X55499000Y-68710249D01*
X55499000Y-68710249D02*
X55451380Y-68853106D01*
X55451380Y-68853106D02*
X55451380Y-69091201D01*
X53012980Y-71037220D02*
X54012980Y-71037220D01*
X54012980Y-71037220D02*
X54012980Y-70799125D01*
X54012980Y-70799125D02*
X53965361Y-70656268D01*
X53965361Y-70656268D02*
X53870123Y-70561030D01*
X53870123Y-70561030D02*
X53774885Y-70513411D01*
X53774885Y-70513411D02*
X53584409Y-70465792D01*
X53584409Y-70465792D02*
X53441552Y-70465792D01*
X53441552Y-70465792D02*
X53251076Y-70513411D01*
X53251076Y-70513411D02*
X53155838Y-70561030D01*
X53155838Y-70561030D02*
X53060600Y-70656268D01*
X53060600Y-70656268D02*
X53012980Y-70799125D01*
X53012980Y-70799125D02*
X53012980Y-71037220D01*
X53012980Y-69608649D02*
X53536790Y-69608649D01*
X53536790Y-69608649D02*
X53632028Y-69656268D01*
X53632028Y-69656268D02*
X53679647Y-69751506D01*
X53679647Y-69751506D02*
X53679647Y-69941982D01*
X53679647Y-69941982D02*
X53632028Y-70037220D01*
X53060600Y-69608649D02*
X53012980Y-69703887D01*
X53012980Y-69703887D02*
X53012980Y-69941982D01*
X53012980Y-69941982D02*
X53060600Y-70037220D01*
X53060600Y-70037220D02*
X53155838Y-70084839D01*
X53155838Y-70084839D02*
X53251076Y-70084839D01*
X53251076Y-70084839D02*
X53346314Y-70037220D01*
X53346314Y-70037220D02*
X53393933Y-69941982D01*
X53393933Y-69941982D02*
X53393933Y-69703887D01*
X53393933Y-69703887D02*
X53441552Y-69608649D01*
X53679647Y-69275315D02*
X53679647Y-68894363D01*
X54012980Y-69132458D02*
X53155838Y-69132458D01*
X53155838Y-69132458D02*
X53060600Y-69084839D01*
X53060600Y-69084839D02*
X53012980Y-68989601D01*
X53012980Y-68989601D02*
X53012980Y-68894363D01*
X53012980Y-68132458D02*
X53536790Y-68132458D01*
X53536790Y-68132458D02*
X53632028Y-68180077D01*
X53632028Y-68180077D02*
X53679647Y-68275315D01*
X53679647Y-68275315D02*
X53679647Y-68465791D01*
X53679647Y-68465791D02*
X53632028Y-68561029D01*
X53060600Y-68132458D02*
X53012980Y-68227696D01*
X53012980Y-68227696D02*
X53012980Y-68465791D01*
X53012980Y-68465791D02*
X53060600Y-68561029D01*
X53060600Y-68561029D02*
X53155838Y-68608648D01*
X53155838Y-68608648D02*
X53251076Y-68608648D01*
X53251076Y-68608648D02*
X53346314Y-68561029D01*
X53346314Y-68561029D02*
X53393933Y-68465791D01*
X53393933Y-68465791D02*
X53393933Y-68227696D01*
X53393933Y-68227696D02*
X53441552Y-68132458D01*
X53012980Y-66751505D02*
X53060600Y-66846743D01*
X53060600Y-66846743D02*
X53108219Y-66894362D01*
X53108219Y-66894362D02*
X53203457Y-66941981D01*
X53203457Y-66941981D02*
X53489171Y-66941981D01*
X53489171Y-66941981D02*
X53584409Y-66894362D01*
X53584409Y-66894362D02*
X53632028Y-66846743D01*
X53632028Y-66846743D02*
X53679647Y-66751505D01*
X53679647Y-66751505D02*
X53679647Y-66608648D01*
X53679647Y-66608648D02*
X53632028Y-66513410D01*
X53632028Y-66513410D02*
X53584409Y-66465791D01*
X53584409Y-66465791D02*
X53489171Y-66418172D01*
X53489171Y-66418172D02*
X53203457Y-66418172D01*
X53203457Y-66418172D02*
X53108219Y-66465791D01*
X53108219Y-66465791D02*
X53060600Y-66513410D01*
X53060600Y-66513410D02*
X53012980Y-66608648D01*
X53012980Y-66608648D02*
X53012980Y-66751505D01*
X53679647Y-65561029D02*
X53012980Y-65561029D01*
X53679647Y-65989600D02*
X53155838Y-65989600D01*
X53155838Y-65989600D02*
X53060600Y-65941981D01*
X53060600Y-65941981D02*
X53012980Y-65846743D01*
X53012980Y-65846743D02*
X53012980Y-65703886D01*
X53012980Y-65703886D02*
X53060600Y-65608648D01*
X53060600Y-65608648D02*
X53108219Y-65561029D01*
X53679647Y-65227695D02*
X53679647Y-64846743D01*
X54012980Y-65084838D02*
X53155838Y-65084838D01*
X53155838Y-65084838D02*
X53060600Y-65037219D01*
X53060600Y-65037219D02*
X53012980Y-64941981D01*
X53012980Y-64941981D02*
X53012980Y-64846743D01*
X71802619Y-50069979D02*
X70802619Y-50069979D01*
X71802619Y-50546169D02*
X70802619Y-50546169D01*
X70802619Y-50546169D02*
X71802619Y-51117597D01*
X71802619Y-51117597D02*
X70802619Y-51117597D01*
X188147438Y-37436588D02*
X188099819Y-37341350D01*
X188099819Y-37341350D02*
X188099819Y-37198493D01*
X188099819Y-37198493D02*
X188147438Y-37055636D01*
X188147438Y-37055636D02*
X188242676Y-36960398D01*
X188242676Y-36960398D02*
X188337914Y-36912779D01*
X188337914Y-36912779D02*
X188528390Y-36865160D01*
X188528390Y-36865160D02*
X188671247Y-36865160D01*
X188671247Y-36865160D02*
X188861723Y-36912779D01*
X188861723Y-36912779D02*
X188956961Y-36960398D01*
X188956961Y-36960398D02*
X189052200Y-37055636D01*
X189052200Y-37055636D02*
X189099819Y-37198493D01*
X189099819Y-37198493D02*
X189099819Y-37293731D01*
X189099819Y-37293731D02*
X189052200Y-37436588D01*
X189052200Y-37436588D02*
X189004580Y-37484207D01*
X189004580Y-37484207D02*
X188671247Y-37484207D01*
X188671247Y-37484207D02*
X188671247Y-37293731D01*
X189099819Y-37912779D02*
X188099819Y-37912779D01*
X188099819Y-37912779D02*
X189099819Y-38484207D01*
X189099819Y-38484207D02*
X188099819Y-38484207D01*
X189099819Y-38960398D02*
X188099819Y-38960398D01*
X188099819Y-38960398D02*
X188099819Y-39198493D01*
X188099819Y-39198493D02*
X188147438Y-39341350D01*
X188147438Y-39341350D02*
X188242676Y-39436588D01*
X188242676Y-39436588D02*
X188337914Y-39484207D01*
X188337914Y-39484207D02*
X188528390Y-39531826D01*
X188528390Y-39531826D02*
X188671247Y-39531826D01*
X188671247Y-39531826D02*
X188861723Y-39484207D01*
X188861723Y-39484207D02*
X188956961Y-39436588D01*
X188956961Y-39436588D02*
X189052200Y-39341350D01*
X189052200Y-39341350D02*
X189099819Y-39198493D01*
X189099819Y-39198493D02*
X189099819Y-38960398D01*
X132329819Y-50872969D02*
X132329819Y-50396779D01*
X132329819Y-50396779D02*
X132806009Y-50349160D01*
X132806009Y-50349160D02*
X132758390Y-50396779D01*
X132758390Y-50396779D02*
X132710771Y-50492017D01*
X132710771Y-50492017D02*
X132710771Y-50730112D01*
X132710771Y-50730112D02*
X132758390Y-50825350D01*
X132758390Y-50825350D02*
X132806009Y-50872969D01*
X132806009Y-50872969D02*
X132901247Y-50920588D01*
X132901247Y-50920588D02*
X133139342Y-50920588D01*
X133139342Y-50920588D02*
X133234580Y-50872969D01*
X133234580Y-50872969D02*
X133282200Y-50825350D01*
X133282200Y-50825350D02*
X133329819Y-50730112D01*
X133329819Y-50730112D02*
X133329819Y-50492017D01*
X133329819Y-50492017D02*
X133282200Y-50396779D01*
X133282200Y-50396779D02*
X133234580Y-50349160D01*
X132329819Y-51206303D02*
X133329819Y-51539636D01*
X133329819Y-51539636D02*
X132329819Y-51872969D01*
X133329819Y-52968208D02*
X132329819Y-52968208D01*
X132329819Y-52968208D02*
X132329819Y-53349160D01*
X132329819Y-53349160D02*
X132377438Y-53444398D01*
X132377438Y-53444398D02*
X132425057Y-53492017D01*
X132425057Y-53492017D02*
X132520295Y-53539636D01*
X132520295Y-53539636D02*
X132663152Y-53539636D01*
X132663152Y-53539636D02*
X132758390Y-53492017D01*
X132758390Y-53492017D02*
X132806009Y-53444398D01*
X132806009Y-53444398D02*
X132853628Y-53349160D01*
X132853628Y-53349160D02*
X132853628Y-52968208D01*
X133282200Y-53920589D02*
X133329819Y-54063446D01*
X133329819Y-54063446D02*
X133329819Y-54301541D01*
X133329819Y-54301541D02*
X133282200Y-54396779D01*
X133282200Y-54396779D02*
X133234580Y-54444398D01*
X133234580Y-54444398D02*
X133139342Y-54492017D01*
X133139342Y-54492017D02*
X133044104Y-54492017D01*
X133044104Y-54492017D02*
X132948866Y-54444398D01*
X132948866Y-54444398D02*
X132901247Y-54396779D01*
X132901247Y-54396779D02*
X132853628Y-54301541D01*
X132853628Y-54301541D02*
X132806009Y-54111065D01*
X132806009Y-54111065D02*
X132758390Y-54015827D01*
X132758390Y-54015827D02*
X132710771Y-53968208D01*
X132710771Y-53968208D02*
X132615533Y-53920589D01*
X132615533Y-53920589D02*
X132520295Y-53920589D01*
X132520295Y-53920589D02*
X132425057Y-53968208D01*
X132425057Y-53968208D02*
X132377438Y-54015827D01*
X132377438Y-54015827D02*
X132329819Y-54111065D01*
X132329819Y-54111065D02*
X132329819Y-54349160D01*
X132329819Y-54349160D02*
X132377438Y-54492017D01*
X132329819Y-54920589D02*
X133139342Y-54920589D01*
X133139342Y-54920589D02*
X133234580Y-54968208D01*
X133234580Y-54968208D02*
X133282200Y-55015827D01*
X133282200Y-55015827D02*
X133329819Y-55111065D01*
X133329819Y-55111065D02*
X133329819Y-55301541D01*
X133329819Y-55301541D02*
X133282200Y-55396779D01*
X133282200Y-55396779D02*
X133234580Y-55444398D01*
X133234580Y-55444398D02*
X133139342Y-55492017D01*
X133139342Y-55492017D02*
X132329819Y-55492017D01*
X82572744Y-77399819D02*
X82382268Y-77399819D01*
X82382268Y-77399819D02*
X82287030Y-77447438D01*
X82287030Y-77447438D02*
X82191792Y-77542676D01*
X82191792Y-77542676D02*
X82144173Y-77733152D01*
X82144173Y-77733152D02*
X82144173Y-78066485D01*
X82144173Y-78066485D02*
X82191792Y-78256961D01*
X82191792Y-78256961D02*
X82287030Y-78352200D01*
X82287030Y-78352200D02*
X82382268Y-78399819D01*
X82382268Y-78399819D02*
X82572744Y-78399819D01*
X82572744Y-78399819D02*
X82667982Y-78352200D01*
X82667982Y-78352200D02*
X82763220Y-78256961D01*
X82763220Y-78256961D02*
X82810839Y-78066485D01*
X82810839Y-78066485D02*
X82810839Y-77733152D01*
X82810839Y-77733152D02*
X82763220Y-77542676D01*
X82763220Y-77542676D02*
X82667982Y-77447438D01*
X82667982Y-77447438D02*
X82572744Y-77399819D01*
X81715601Y-77733152D02*
X81715601Y-78733152D01*
X81715601Y-77780771D02*
X81620363Y-77733152D01*
X81620363Y-77733152D02*
X81429887Y-77733152D01*
X81429887Y-77733152D02*
X81334649Y-77780771D01*
X81334649Y-77780771D02*
X81287030Y-77828390D01*
X81287030Y-77828390D02*
X81239411Y-77923628D01*
X81239411Y-77923628D02*
X81239411Y-78209342D01*
X81239411Y-78209342D02*
X81287030Y-78304580D01*
X81287030Y-78304580D02*
X81334649Y-78352200D01*
X81334649Y-78352200D02*
X81429887Y-78399819D01*
X81429887Y-78399819D02*
X81620363Y-78399819D01*
X81620363Y-78399819D02*
X81715601Y-78352200D01*
X80429887Y-78352200D02*
X80525125Y-78399819D01*
X80525125Y-78399819D02*
X80715601Y-78399819D01*
X80715601Y-78399819D02*
X80810839Y-78352200D01*
X80810839Y-78352200D02*
X80858458Y-78256961D01*
X80858458Y-78256961D02*
X80858458Y-77876009D01*
X80858458Y-77876009D02*
X80810839Y-77780771D01*
X80810839Y-77780771D02*
X80715601Y-77733152D01*
X80715601Y-77733152D02*
X80525125Y-77733152D01*
X80525125Y-77733152D02*
X80429887Y-77780771D01*
X80429887Y-77780771D02*
X80382268Y-77876009D01*
X80382268Y-77876009D02*
X80382268Y-77971247D01*
X80382268Y-77971247D02*
X80858458Y-78066485D01*
X79953696Y-77733152D02*
X79953696Y-78399819D01*
X79953696Y-77828390D02*
X79906077Y-77780771D01*
X79906077Y-77780771D02*
X79810839Y-77733152D01*
X79810839Y-77733152D02*
X79667982Y-77733152D01*
X79667982Y-77733152D02*
X79572744Y-77780771D01*
X79572744Y-77780771D02*
X79525125Y-77876009D01*
X79525125Y-77876009D02*
X79525125Y-78399819D01*
X78287029Y-78399819D02*
X78287029Y-77399819D01*
X78287029Y-77399819D02*
X77906077Y-77399819D01*
X77906077Y-77399819D02*
X77810839Y-77447438D01*
X77810839Y-77447438D02*
X77763220Y-77495057D01*
X77763220Y-77495057D02*
X77715601Y-77590295D01*
X77715601Y-77590295D02*
X77715601Y-77733152D01*
X77715601Y-77733152D02*
X77763220Y-77828390D01*
X77763220Y-77828390D02*
X77810839Y-77876009D01*
X77810839Y-77876009D02*
X77906077Y-77923628D01*
X77906077Y-77923628D02*
X78287029Y-77923628D01*
X76906077Y-78352200D02*
X77001315Y-78399819D01*
X77001315Y-78399819D02*
X77191791Y-78399819D01*
X77191791Y-78399819D02*
X77287029Y-78352200D01*
X77287029Y-78352200D02*
X77334648Y-78256961D01*
X77334648Y-78256961D02*
X77334648Y-77876009D01*
X77334648Y-77876009D02*
X77287029Y-77780771D01*
X77287029Y-77780771D02*
X77191791Y-77733152D01*
X77191791Y-77733152D02*
X77001315Y-77733152D01*
X77001315Y-77733152D02*
X76906077Y-77780771D01*
X76906077Y-77780771D02*
X76858458Y-77876009D01*
X76858458Y-77876009D02*
X76858458Y-77971247D01*
X76858458Y-77971247D02*
X77334648Y-78066485D01*
X76001315Y-78399819D02*
X76001315Y-77399819D01*
X76001315Y-78352200D02*
X76096553Y-78399819D01*
X76096553Y-78399819D02*
X76287029Y-78399819D01*
X76287029Y-78399819D02*
X76382267Y-78352200D01*
X76382267Y-78352200D02*
X76429886Y-78304580D01*
X76429886Y-78304580D02*
X76477505Y-78209342D01*
X76477505Y-78209342D02*
X76477505Y-77923628D01*
X76477505Y-77923628D02*
X76429886Y-77828390D01*
X76429886Y-77828390D02*
X76382267Y-77780771D01*
X76382267Y-77780771D02*
X76287029Y-77733152D01*
X76287029Y-77733152D02*
X76096553Y-77733152D01*
X76096553Y-77733152D02*
X76001315Y-77780771D01*
X75096553Y-78399819D02*
X75096553Y-77876009D01*
X75096553Y-77876009D02*
X75144172Y-77780771D01*
X75144172Y-77780771D02*
X75239410Y-77733152D01*
X75239410Y-77733152D02*
X75429886Y-77733152D01*
X75429886Y-77733152D02*
X75525124Y-77780771D01*
X75096553Y-78352200D02*
X75191791Y-78399819D01*
X75191791Y-78399819D02*
X75429886Y-78399819D01*
X75429886Y-78399819D02*
X75525124Y-78352200D01*
X75525124Y-78352200D02*
X75572743Y-78256961D01*
X75572743Y-78256961D02*
X75572743Y-78161723D01*
X75572743Y-78161723D02*
X75525124Y-78066485D01*
X75525124Y-78066485D02*
X75429886Y-78018866D01*
X75429886Y-78018866D02*
X75191791Y-78018866D01*
X75191791Y-78018866D02*
X75096553Y-77971247D01*
X74477505Y-78399819D02*
X74572743Y-78352200D01*
X74572743Y-78352200D02*
X74620362Y-78256961D01*
X74620362Y-78256961D02*
X74620362Y-77399819D01*
X74096552Y-78399819D02*
X74096552Y-77399819D01*
X74096552Y-77780771D02*
X74001314Y-77733152D01*
X74001314Y-77733152D02*
X73810838Y-77733152D01*
X73810838Y-77733152D02*
X73715600Y-77780771D01*
X73715600Y-77780771D02*
X73667981Y-77828390D01*
X73667981Y-77828390D02*
X73620362Y-77923628D01*
X73620362Y-77923628D02*
X73620362Y-78209342D01*
X73620362Y-78209342D02*
X73667981Y-78304580D01*
X73667981Y-78304580D02*
X73715600Y-78352200D01*
X73715600Y-78352200D02*
X73810838Y-78399819D01*
X73810838Y-78399819D02*
X74001314Y-78399819D01*
X74001314Y-78399819D02*
X74096552Y-78352200D01*
X73048933Y-78399819D02*
X73144171Y-78352200D01*
X73144171Y-78352200D02*
X73191790Y-78304580D01*
X73191790Y-78304580D02*
X73239409Y-78209342D01*
X73239409Y-78209342D02*
X73239409Y-77923628D01*
X73239409Y-77923628D02*
X73191790Y-77828390D01*
X73191790Y-77828390D02*
X73144171Y-77780771D01*
X73144171Y-77780771D02*
X73048933Y-77733152D01*
X73048933Y-77733152D02*
X72906076Y-77733152D01*
X72906076Y-77733152D02*
X72810838Y-77780771D01*
X72810838Y-77780771D02*
X72763219Y-77828390D01*
X72763219Y-77828390D02*
X72715600Y-77923628D01*
X72715600Y-77923628D02*
X72715600Y-78209342D01*
X72715600Y-78209342D02*
X72763219Y-78304580D01*
X72763219Y-78304580D02*
X72810838Y-78352200D01*
X72810838Y-78352200D02*
X72906076Y-78399819D01*
X72906076Y-78399819D02*
X73048933Y-78399819D01*
X71858457Y-78399819D02*
X71858457Y-77876009D01*
X71858457Y-77876009D02*
X71906076Y-77780771D01*
X71906076Y-77780771D02*
X72001314Y-77733152D01*
X72001314Y-77733152D02*
X72191790Y-77733152D01*
X72191790Y-77733152D02*
X72287028Y-77780771D01*
X71858457Y-78352200D02*
X71953695Y-78399819D01*
X71953695Y-78399819D02*
X72191790Y-78399819D01*
X72191790Y-78399819D02*
X72287028Y-78352200D01*
X72287028Y-78352200D02*
X72334647Y-78256961D01*
X72334647Y-78256961D02*
X72334647Y-78161723D01*
X72334647Y-78161723D02*
X72287028Y-78066485D01*
X72287028Y-78066485D02*
X72191790Y-78018866D01*
X72191790Y-78018866D02*
X71953695Y-78018866D01*
X71953695Y-78018866D02*
X71858457Y-77971247D01*
X71382266Y-78399819D02*
X71382266Y-77733152D01*
X71382266Y-77923628D02*
X71334647Y-77828390D01*
X71334647Y-77828390D02*
X71287028Y-77780771D01*
X71287028Y-77780771D02*
X71191790Y-77733152D01*
X71191790Y-77733152D02*
X71096552Y-77733152D01*
X70334647Y-78399819D02*
X70334647Y-77399819D01*
X70334647Y-78352200D02*
X70429885Y-78399819D01*
X70429885Y-78399819D02*
X70620361Y-78399819D01*
X70620361Y-78399819D02*
X70715599Y-78352200D01*
X70715599Y-78352200D02*
X70763218Y-78304580D01*
X70763218Y-78304580D02*
X70810837Y-78209342D01*
X70810837Y-78209342D02*
X70810837Y-77923628D01*
X70810837Y-77923628D02*
X70763218Y-77828390D01*
X70763218Y-77828390D02*
X70715599Y-77780771D01*
X70715599Y-77780771D02*
X70620361Y-77733152D01*
X70620361Y-77733152D02*
X70429885Y-77733152D01*
X70429885Y-77733152D02*
X70334647Y-77780771D01*
X82763220Y-80009819D02*
X82763220Y-79009819D01*
X82334649Y-80009819D02*
X82334649Y-79486009D01*
X82334649Y-79486009D02*
X82382268Y-79390771D01*
X82382268Y-79390771D02*
X82477506Y-79343152D01*
X82477506Y-79343152D02*
X82620363Y-79343152D01*
X82620363Y-79343152D02*
X82715601Y-79390771D01*
X82715601Y-79390771D02*
X82763220Y-79438390D01*
X82001315Y-79343152D02*
X81620363Y-79343152D01*
X81858458Y-79009819D02*
X81858458Y-79866961D01*
X81858458Y-79866961D02*
X81810839Y-79962200D01*
X81810839Y-79962200D02*
X81715601Y-80009819D01*
X81715601Y-80009819D02*
X81620363Y-80009819D01*
X81429886Y-79343152D02*
X81048934Y-79343152D01*
X81287029Y-79009819D02*
X81287029Y-79866961D01*
X81287029Y-79866961D02*
X81239410Y-79962200D01*
X81239410Y-79962200D02*
X81144172Y-80009819D01*
X81144172Y-80009819D02*
X81048934Y-80009819D01*
X80715600Y-79343152D02*
X80715600Y-80343152D01*
X80715600Y-79390771D02*
X80620362Y-79343152D01*
X80620362Y-79343152D02*
X80429886Y-79343152D01*
X80429886Y-79343152D02*
X80334648Y-79390771D01*
X80334648Y-79390771D02*
X80287029Y-79438390D01*
X80287029Y-79438390D02*
X80239410Y-79533628D01*
X80239410Y-79533628D02*
X80239410Y-79819342D01*
X80239410Y-79819342D02*
X80287029Y-79914580D01*
X80287029Y-79914580D02*
X80334648Y-79962200D01*
X80334648Y-79962200D02*
X80429886Y-80009819D01*
X80429886Y-80009819D02*
X80620362Y-80009819D01*
X80620362Y-80009819D02*
X80715600Y-79962200D01*
X79858457Y-79962200D02*
X79763219Y-80009819D01*
X79763219Y-80009819D02*
X79572743Y-80009819D01*
X79572743Y-80009819D02*
X79477505Y-79962200D01*
X79477505Y-79962200D02*
X79429886Y-79866961D01*
X79429886Y-79866961D02*
X79429886Y-79819342D01*
X79429886Y-79819342D02*
X79477505Y-79724104D01*
X79477505Y-79724104D02*
X79572743Y-79676485D01*
X79572743Y-79676485D02*
X79715600Y-79676485D01*
X79715600Y-79676485D02*
X79810838Y-79628866D01*
X79810838Y-79628866D02*
X79858457Y-79533628D01*
X79858457Y-79533628D02*
X79858457Y-79486009D01*
X79858457Y-79486009D02*
X79810838Y-79390771D01*
X79810838Y-79390771D02*
X79715600Y-79343152D01*
X79715600Y-79343152D02*
X79572743Y-79343152D01*
X79572743Y-79343152D02*
X79477505Y-79390771D01*
X79001314Y-79914580D02*
X78953695Y-79962200D01*
X78953695Y-79962200D02*
X79001314Y-80009819D01*
X79001314Y-80009819D02*
X79048933Y-79962200D01*
X79048933Y-79962200D02*
X79001314Y-79914580D01*
X79001314Y-79914580D02*
X79001314Y-80009819D01*
X79001314Y-79390771D02*
X78953695Y-79438390D01*
X78953695Y-79438390D02*
X79001314Y-79486009D01*
X79001314Y-79486009D02*
X79048933Y-79438390D01*
X79048933Y-79438390D02*
X79001314Y-79390771D01*
X79001314Y-79390771D02*
X79001314Y-79486009D01*
X77810839Y-78962200D02*
X78667981Y-80247914D01*
X76763220Y-78962200D02*
X77620362Y-80247914D01*
X76001315Y-79343152D02*
X76001315Y-80152676D01*
X76001315Y-80152676D02*
X76048934Y-80247914D01*
X76048934Y-80247914D02*
X76096553Y-80295533D01*
X76096553Y-80295533D02*
X76191791Y-80343152D01*
X76191791Y-80343152D02*
X76334648Y-80343152D01*
X76334648Y-80343152D02*
X76429886Y-80295533D01*
X76001315Y-79962200D02*
X76096553Y-80009819D01*
X76096553Y-80009819D02*
X76287029Y-80009819D01*
X76287029Y-80009819D02*
X76382267Y-79962200D01*
X76382267Y-79962200D02*
X76429886Y-79914580D01*
X76429886Y-79914580D02*
X76477505Y-79819342D01*
X76477505Y-79819342D02*
X76477505Y-79533628D01*
X76477505Y-79533628D02*
X76429886Y-79438390D01*
X76429886Y-79438390D02*
X76382267Y-79390771D01*
X76382267Y-79390771D02*
X76287029Y-79343152D01*
X76287029Y-79343152D02*
X76096553Y-79343152D01*
X76096553Y-79343152D02*
X76001315Y-79390771D01*
X75525124Y-80009819D02*
X75525124Y-79343152D01*
X75525124Y-79009819D02*
X75572743Y-79057438D01*
X75572743Y-79057438D02*
X75525124Y-79105057D01*
X75525124Y-79105057D02*
X75477505Y-79057438D01*
X75477505Y-79057438D02*
X75525124Y-79009819D01*
X75525124Y-79009819D02*
X75525124Y-79105057D01*
X75191791Y-79343152D02*
X74810839Y-79343152D01*
X75048934Y-79009819D02*
X75048934Y-79866961D01*
X75048934Y-79866961D02*
X75001315Y-79962200D01*
X75001315Y-79962200D02*
X74906077Y-80009819D01*
X74906077Y-80009819D02*
X74810839Y-80009819D01*
X74477505Y-80009819D02*
X74477505Y-79009819D01*
X74048934Y-80009819D02*
X74048934Y-79486009D01*
X74048934Y-79486009D02*
X74096553Y-79390771D01*
X74096553Y-79390771D02*
X74191791Y-79343152D01*
X74191791Y-79343152D02*
X74334648Y-79343152D01*
X74334648Y-79343152D02*
X74429886Y-79390771D01*
X74429886Y-79390771D02*
X74477505Y-79438390D01*
X73144172Y-79343152D02*
X73144172Y-80009819D01*
X73572743Y-79343152D02*
X73572743Y-79866961D01*
X73572743Y-79866961D02*
X73525124Y-79962200D01*
X73525124Y-79962200D02*
X73429886Y-80009819D01*
X73429886Y-80009819D02*
X73287029Y-80009819D01*
X73287029Y-80009819D02*
X73191791Y-79962200D01*
X73191791Y-79962200D02*
X73144172Y-79914580D01*
X72667981Y-80009819D02*
X72667981Y-79009819D01*
X72667981Y-79390771D02*
X72572743Y-79343152D01*
X72572743Y-79343152D02*
X72382267Y-79343152D01*
X72382267Y-79343152D02*
X72287029Y-79390771D01*
X72287029Y-79390771D02*
X72239410Y-79438390D01*
X72239410Y-79438390D02*
X72191791Y-79533628D01*
X72191791Y-79533628D02*
X72191791Y-79819342D01*
X72191791Y-79819342D02*
X72239410Y-79914580D01*
X72239410Y-79914580D02*
X72287029Y-79962200D01*
X72287029Y-79962200D02*
X72382267Y-80009819D01*
X72382267Y-80009819D02*
X72572743Y-80009819D01*
X72572743Y-80009819D02*
X72667981Y-79962200D01*
X71763219Y-79914580D02*
X71715600Y-79962200D01*
X71715600Y-79962200D02*
X71763219Y-80009819D01*
X71763219Y-80009819D02*
X71810838Y-79962200D01*
X71810838Y-79962200D02*
X71763219Y-79914580D01*
X71763219Y-79914580D02*
X71763219Y-80009819D01*
X70858458Y-79962200D02*
X70953696Y-80009819D01*
X70953696Y-80009819D02*
X71144172Y-80009819D01*
X71144172Y-80009819D02*
X71239410Y-79962200D01*
X71239410Y-79962200D02*
X71287029Y-79914580D01*
X71287029Y-79914580D02*
X71334648Y-79819342D01*
X71334648Y-79819342D02*
X71334648Y-79533628D01*
X71334648Y-79533628D02*
X71287029Y-79438390D01*
X71287029Y-79438390D02*
X71239410Y-79390771D01*
X71239410Y-79390771D02*
X71144172Y-79343152D01*
X71144172Y-79343152D02*
X70953696Y-79343152D01*
X70953696Y-79343152D02*
X70858458Y-79390771D01*
X70287029Y-80009819D02*
X70382267Y-79962200D01*
X70382267Y-79962200D02*
X70429886Y-79914580D01*
X70429886Y-79914580D02*
X70477505Y-79819342D01*
X70477505Y-79819342D02*
X70477505Y-79533628D01*
X70477505Y-79533628D02*
X70429886Y-79438390D01*
X70429886Y-79438390D02*
X70382267Y-79390771D01*
X70382267Y-79390771D02*
X70287029Y-79343152D01*
X70287029Y-79343152D02*
X70144172Y-79343152D01*
X70144172Y-79343152D02*
X70048934Y-79390771D01*
X70048934Y-79390771D02*
X70001315Y-79438390D01*
X70001315Y-79438390D02*
X69953696Y-79533628D01*
X69953696Y-79533628D02*
X69953696Y-79819342D01*
X69953696Y-79819342D02*
X70001315Y-79914580D01*
X70001315Y-79914580D02*
X70048934Y-79962200D01*
X70048934Y-79962200D02*
X70144172Y-80009819D01*
X70144172Y-80009819D02*
X70287029Y-80009819D01*
X69525124Y-80009819D02*
X69525124Y-79343152D01*
X69525124Y-79438390D02*
X69477505Y-79390771D01*
X69477505Y-79390771D02*
X69382267Y-79343152D01*
X69382267Y-79343152D02*
X69239410Y-79343152D01*
X69239410Y-79343152D02*
X69144172Y-79390771D01*
X69144172Y-79390771D02*
X69096553Y-79486009D01*
X69096553Y-79486009D02*
X69096553Y-80009819D01*
X69096553Y-79486009D02*
X69048934Y-79390771D01*
X69048934Y-79390771D02*
X68953696Y-79343152D01*
X68953696Y-79343152D02*
X68810839Y-79343152D01*
X68810839Y-79343152D02*
X68715600Y-79390771D01*
X68715600Y-79390771D02*
X68667981Y-79486009D01*
X68667981Y-79486009D02*
X68667981Y-80009819D01*
X67477506Y-78962200D02*
X68334648Y-80247914D01*
X67144172Y-79343152D02*
X67144172Y-80343152D01*
X67144172Y-79390771D02*
X67048934Y-79343152D01*
X67048934Y-79343152D02*
X66858458Y-79343152D01*
X66858458Y-79343152D02*
X66763220Y-79390771D01*
X66763220Y-79390771D02*
X66715601Y-79438390D01*
X66715601Y-79438390D02*
X66667982Y-79533628D01*
X66667982Y-79533628D02*
X66667982Y-79819342D01*
X66667982Y-79819342D02*
X66715601Y-79914580D01*
X66715601Y-79914580D02*
X66763220Y-79962200D01*
X66763220Y-79962200D02*
X66858458Y-80009819D01*
X66858458Y-80009819D02*
X67048934Y-80009819D01*
X67048934Y-80009819D02*
X67144172Y-79962200D01*
X65858458Y-79962200D02*
X65953696Y-80009819D01*
X65953696Y-80009819D02*
X66144172Y-80009819D01*
X66144172Y-80009819D02*
X66239410Y-79962200D01*
X66239410Y-79962200D02*
X66287029Y-79866961D01*
X66287029Y-79866961D02*
X66287029Y-79486009D01*
X66287029Y-79486009D02*
X66239410Y-79390771D01*
X66239410Y-79390771D02*
X66144172Y-79343152D01*
X66144172Y-79343152D02*
X65953696Y-79343152D01*
X65953696Y-79343152D02*
X65858458Y-79390771D01*
X65858458Y-79390771D02*
X65810839Y-79486009D01*
X65810839Y-79486009D02*
X65810839Y-79581247D01*
X65810839Y-79581247D02*
X66287029Y-79676485D01*
X64953696Y-80009819D02*
X64953696Y-79009819D01*
X64953696Y-79962200D02*
X65048934Y-80009819D01*
X65048934Y-80009819D02*
X65239410Y-80009819D01*
X65239410Y-80009819D02*
X65334648Y-79962200D01*
X65334648Y-79962200D02*
X65382267Y-79914580D01*
X65382267Y-79914580D02*
X65429886Y-79819342D01*
X65429886Y-79819342D02*
X65429886Y-79533628D01*
X65429886Y-79533628D02*
X65382267Y-79438390D01*
X65382267Y-79438390D02*
X65334648Y-79390771D01*
X65334648Y-79390771D02*
X65239410Y-79343152D01*
X65239410Y-79343152D02*
X65048934Y-79343152D01*
X65048934Y-79343152D02*
X64953696Y-79390771D01*
X64048934Y-80009819D02*
X64048934Y-79486009D01*
X64048934Y-79486009D02*
X64096553Y-79390771D01*
X64096553Y-79390771D02*
X64191791Y-79343152D01*
X64191791Y-79343152D02*
X64382267Y-79343152D01*
X64382267Y-79343152D02*
X64477505Y-79390771D01*
X64048934Y-79962200D02*
X64144172Y-80009819D01*
X64144172Y-80009819D02*
X64382267Y-80009819D01*
X64382267Y-80009819D02*
X64477505Y-79962200D01*
X64477505Y-79962200D02*
X64525124Y-79866961D01*
X64525124Y-79866961D02*
X64525124Y-79771723D01*
X64525124Y-79771723D02*
X64477505Y-79676485D01*
X64477505Y-79676485D02*
X64382267Y-79628866D01*
X64382267Y-79628866D02*
X64144172Y-79628866D01*
X64144172Y-79628866D02*
X64048934Y-79581247D01*
X63429886Y-80009819D02*
X63525124Y-79962200D01*
X63525124Y-79962200D02*
X63572743Y-79866961D01*
X63572743Y-79866961D02*
X63572743Y-79009819D01*
X63048933Y-80009819D02*
X63048933Y-79009819D01*
X63048933Y-79390771D02*
X62953695Y-79343152D01*
X62953695Y-79343152D02*
X62763219Y-79343152D01*
X62763219Y-79343152D02*
X62667981Y-79390771D01*
X62667981Y-79390771D02*
X62620362Y-79438390D01*
X62620362Y-79438390D02*
X62572743Y-79533628D01*
X62572743Y-79533628D02*
X62572743Y-79819342D01*
X62572743Y-79819342D02*
X62620362Y-79914580D01*
X62620362Y-79914580D02*
X62667981Y-79962200D01*
X62667981Y-79962200D02*
X62763219Y-80009819D01*
X62763219Y-80009819D02*
X62953695Y-80009819D01*
X62953695Y-80009819D02*
X63048933Y-79962200D01*
X62001314Y-80009819D02*
X62096552Y-79962200D01*
X62096552Y-79962200D02*
X62144171Y-79914580D01*
X62144171Y-79914580D02*
X62191790Y-79819342D01*
X62191790Y-79819342D02*
X62191790Y-79533628D01*
X62191790Y-79533628D02*
X62144171Y-79438390D01*
X62144171Y-79438390D02*
X62096552Y-79390771D01*
X62096552Y-79390771D02*
X62001314Y-79343152D01*
X62001314Y-79343152D02*
X61858457Y-79343152D01*
X61858457Y-79343152D02*
X61763219Y-79390771D01*
X61763219Y-79390771D02*
X61715600Y-79438390D01*
X61715600Y-79438390D02*
X61667981Y-79533628D01*
X61667981Y-79533628D02*
X61667981Y-79819342D01*
X61667981Y-79819342D02*
X61715600Y-79914580D01*
X61715600Y-79914580D02*
X61763219Y-79962200D01*
X61763219Y-79962200D02*
X61858457Y-80009819D01*
X61858457Y-80009819D02*
X62001314Y-80009819D01*
X60810838Y-80009819D02*
X60810838Y-79486009D01*
X60810838Y-79486009D02*
X60858457Y-79390771D01*
X60858457Y-79390771D02*
X60953695Y-79343152D01*
X60953695Y-79343152D02*
X61144171Y-79343152D01*
X61144171Y-79343152D02*
X61239409Y-79390771D01*
X60810838Y-79962200D02*
X60906076Y-80009819D01*
X60906076Y-80009819D02*
X61144171Y-80009819D01*
X61144171Y-80009819D02*
X61239409Y-79962200D01*
X61239409Y-79962200D02*
X61287028Y-79866961D01*
X61287028Y-79866961D02*
X61287028Y-79771723D01*
X61287028Y-79771723D02*
X61239409Y-79676485D01*
X61239409Y-79676485D02*
X61144171Y-79628866D01*
X61144171Y-79628866D02*
X60906076Y-79628866D01*
X60906076Y-79628866D02*
X60810838Y-79581247D01*
X60334647Y-80009819D02*
X60334647Y-79343152D01*
X60334647Y-79533628D02*
X60287028Y-79438390D01*
X60287028Y-79438390D02*
X60239409Y-79390771D01*
X60239409Y-79390771D02*
X60144171Y-79343152D01*
X60144171Y-79343152D02*
X60048933Y-79343152D01*
X59287028Y-80009819D02*
X59287028Y-79009819D01*
X59287028Y-79962200D02*
X59382266Y-80009819D01*
X59382266Y-80009819D02*
X59572742Y-80009819D01*
X59572742Y-80009819D02*
X59667980Y-79962200D01*
X59667980Y-79962200D02*
X59715599Y-79914580D01*
X59715599Y-79914580D02*
X59763218Y-79819342D01*
X59763218Y-79819342D02*
X59763218Y-79533628D01*
X59763218Y-79533628D02*
X59715599Y-79438390D01*
X59715599Y-79438390D02*
X59667980Y-79390771D01*
X59667980Y-79390771D02*
X59572742Y-79343152D01*
X59572742Y-79343152D02*
X59382266Y-79343152D01*
X59382266Y-79343152D02*
X59287028Y-79390771D01*
X82429887Y-81096009D02*
X82287030Y-81143628D01*
X82287030Y-81143628D02*
X82239411Y-81191247D01*
X82239411Y-81191247D02*
X82191792Y-81286485D01*
X82191792Y-81286485D02*
X82191792Y-81429342D01*
X82191792Y-81429342D02*
X82239411Y-81524580D01*
X82239411Y-81524580D02*
X82287030Y-81572200D01*
X82287030Y-81572200D02*
X82382268Y-81619819D01*
X82382268Y-81619819D02*
X82763220Y-81619819D01*
X82763220Y-81619819D02*
X82763220Y-80619819D01*
X82763220Y-80619819D02*
X82429887Y-80619819D01*
X82429887Y-80619819D02*
X82334649Y-80667438D01*
X82334649Y-80667438D02*
X82287030Y-80715057D01*
X82287030Y-80715057D02*
X82239411Y-80810295D01*
X82239411Y-80810295D02*
X82239411Y-80905533D01*
X82239411Y-80905533D02*
X82287030Y-81000771D01*
X82287030Y-81000771D02*
X82334649Y-81048390D01*
X82334649Y-81048390D02*
X82429887Y-81096009D01*
X82429887Y-81096009D02*
X82763220Y-81096009D01*
X81191792Y-81524580D02*
X81239411Y-81572200D01*
X81239411Y-81572200D02*
X81382268Y-81619819D01*
X81382268Y-81619819D02*
X81477506Y-81619819D01*
X81477506Y-81619819D02*
X81620363Y-81572200D01*
X81620363Y-81572200D02*
X81715601Y-81476961D01*
X81715601Y-81476961D02*
X81763220Y-81381723D01*
X81763220Y-81381723D02*
X81810839Y-81191247D01*
X81810839Y-81191247D02*
X81810839Y-81048390D01*
X81810839Y-81048390D02*
X81763220Y-80857914D01*
X81763220Y-80857914D02*
X81715601Y-80762676D01*
X81715601Y-80762676D02*
X81620363Y-80667438D01*
X81620363Y-80667438D02*
X81477506Y-80619819D01*
X81477506Y-80619819D02*
X81382268Y-80619819D01*
X81382268Y-80619819D02*
X81239411Y-80667438D01*
X81239411Y-80667438D02*
X81191792Y-80715057D01*
X80429887Y-81096009D02*
X80287030Y-81143628D01*
X80287030Y-81143628D02*
X80239411Y-81191247D01*
X80239411Y-81191247D02*
X80191792Y-81286485D01*
X80191792Y-81286485D02*
X80191792Y-81429342D01*
X80191792Y-81429342D02*
X80239411Y-81524580D01*
X80239411Y-81524580D02*
X80287030Y-81572200D01*
X80287030Y-81572200D02*
X80382268Y-81619819D01*
X80382268Y-81619819D02*
X80763220Y-81619819D01*
X80763220Y-81619819D02*
X80763220Y-80619819D01*
X80763220Y-80619819D02*
X80429887Y-80619819D01*
X80429887Y-80619819D02*
X80334649Y-80667438D01*
X80334649Y-80667438D02*
X80287030Y-80715057D01*
X80287030Y-80715057D02*
X80239411Y-80810295D01*
X80239411Y-80810295D02*
X80239411Y-80905533D01*
X80239411Y-80905533D02*
X80287030Y-81000771D01*
X80287030Y-81000771D02*
X80334649Y-81048390D01*
X80334649Y-81048390D02*
X80429887Y-81096009D01*
X80429887Y-81096009D02*
X80763220Y-81096009D01*
X79763220Y-81524580D02*
X79715601Y-81572200D01*
X79715601Y-81572200D02*
X79763220Y-81619819D01*
X79763220Y-81619819D02*
X79810839Y-81572200D01*
X79810839Y-81572200D02*
X79763220Y-81524580D01*
X79763220Y-81524580D02*
X79763220Y-81619819D01*
X79763220Y-81000771D02*
X79715601Y-81048390D01*
X79715601Y-81048390D02*
X79763220Y-81096009D01*
X79763220Y-81096009D02*
X79810839Y-81048390D01*
X79810839Y-81048390D02*
X79763220Y-81000771D01*
X79763220Y-81000771D02*
X79763220Y-81096009D01*
X78572744Y-80715057D02*
X78525125Y-80667438D01*
X78525125Y-80667438D02*
X78429887Y-80619819D01*
X78429887Y-80619819D02*
X78191792Y-80619819D01*
X78191792Y-80619819D02*
X78096554Y-80667438D01*
X78096554Y-80667438D02*
X78048935Y-80715057D01*
X78048935Y-80715057D02*
X78001316Y-80810295D01*
X78001316Y-80810295D02*
X78001316Y-80905533D01*
X78001316Y-80905533D02*
X78048935Y-81048390D01*
X78048935Y-81048390D02*
X78620363Y-81619819D01*
X78620363Y-81619819D02*
X78001316Y-81619819D01*
X77572744Y-81524580D02*
X77525125Y-81572200D01*
X77525125Y-81572200D02*
X77572744Y-81619819D01*
X77572744Y-81619819D02*
X77620363Y-81572200D01*
X77620363Y-81572200D02*
X77572744Y-81524580D01*
X77572744Y-81524580D02*
X77572744Y-81619819D01*
X76906078Y-80619819D02*
X76810840Y-80619819D01*
X76810840Y-80619819D02*
X76715602Y-80667438D01*
X76715602Y-80667438D02*
X76667983Y-80715057D01*
X76667983Y-80715057D02*
X76620364Y-80810295D01*
X76620364Y-80810295D02*
X76572745Y-81000771D01*
X76572745Y-81000771D02*
X76572745Y-81238866D01*
X76572745Y-81238866D02*
X76620364Y-81429342D01*
X76620364Y-81429342D02*
X76667983Y-81524580D01*
X76667983Y-81524580D02*
X76715602Y-81572200D01*
X76715602Y-81572200D02*
X76810840Y-81619819D01*
X76810840Y-81619819D02*
X76906078Y-81619819D01*
X76906078Y-81619819D02*
X77001316Y-81572200D01*
X77001316Y-81572200D02*
X77048935Y-81524580D01*
X77048935Y-81524580D02*
X77096554Y-81429342D01*
X77096554Y-81429342D02*
X77144173Y-81238866D01*
X77144173Y-81238866D02*
X77144173Y-81000771D01*
X77144173Y-81000771D02*
X77096554Y-80810295D01*
X77096554Y-80810295D02*
X77048935Y-80715057D01*
X77048935Y-80715057D02*
X77001316Y-80667438D01*
X77001316Y-80667438D02*
X76906078Y-80619819D01*
X76144173Y-81524580D02*
X76096554Y-81572200D01*
X76096554Y-81572200D02*
X76144173Y-81619819D01*
X76144173Y-81619819D02*
X76191792Y-81572200D01*
X76191792Y-81572200D02*
X76144173Y-81524580D01*
X76144173Y-81524580D02*
X76144173Y-81619819D01*
X75477507Y-80619819D02*
X75382269Y-80619819D01*
X75382269Y-80619819D02*
X75287031Y-80667438D01*
X75287031Y-80667438D02*
X75239412Y-80715057D01*
X75239412Y-80715057D02*
X75191793Y-80810295D01*
X75191793Y-80810295D02*
X75144174Y-81000771D01*
X75144174Y-81000771D02*
X75144174Y-81238866D01*
X75144174Y-81238866D02*
X75191793Y-81429342D01*
X75191793Y-81429342D02*
X75239412Y-81524580D01*
X75239412Y-81524580D02*
X75287031Y-81572200D01*
X75287031Y-81572200D02*
X75382269Y-81619819D01*
X75382269Y-81619819D02*
X75477507Y-81619819D01*
X75477507Y-81619819D02*
X75572745Y-81572200D01*
X75572745Y-81572200D02*
X75620364Y-81524580D01*
X75620364Y-81524580D02*
X75667983Y-81429342D01*
X75667983Y-81429342D02*
X75715602Y-81238866D01*
X75715602Y-81238866D02*
X75715602Y-81000771D01*
X75715602Y-81000771D02*
X75667983Y-80810295D01*
X75667983Y-80810295D02*
X75620364Y-80715057D01*
X75620364Y-80715057D02*
X75572745Y-80667438D01*
X75572745Y-80667438D02*
X75477507Y-80619819D01*
X50511133Y-70986420D02*
X50511133Y-70224516D01*
X50130180Y-70605468D02*
X50892085Y-70605468D01*
X51130180Y-69272135D02*
X51130180Y-69748325D01*
X51130180Y-69748325D02*
X50653990Y-69795944D01*
X50653990Y-69795944D02*
X50701609Y-69748325D01*
X50701609Y-69748325D02*
X50749228Y-69653087D01*
X50749228Y-69653087D02*
X50749228Y-69414992D01*
X50749228Y-69414992D02*
X50701609Y-69319754D01*
X50701609Y-69319754D02*
X50653990Y-69272135D01*
X50653990Y-69272135D02*
X50558752Y-69224516D01*
X50558752Y-69224516D02*
X50320657Y-69224516D01*
X50320657Y-69224516D02*
X50225419Y-69272135D01*
X50225419Y-69272135D02*
X50177800Y-69319754D01*
X50177800Y-69319754D02*
X50130180Y-69414992D01*
X50130180Y-69414992D02*
X50130180Y-69653087D01*
X50130180Y-69653087D02*
X50177800Y-69748325D01*
X50177800Y-69748325D02*
X50225419Y-69795944D01*
X51130180Y-68938801D02*
X50130180Y-68605468D01*
X50130180Y-68605468D02*
X51130180Y-68272135D01*
X65454173Y-50858628D02*
X65454173Y-49358628D01*
X65454173Y-49358628D02*
X64954173Y-50430057D01*
X64954173Y-50430057D02*
X64454173Y-49358628D01*
X64454173Y-49358628D02*
X64454173Y-50858628D01*
X63739887Y-50858628D02*
X63739887Y-49358628D01*
X63025601Y-50858628D02*
X63025601Y-49358628D01*
X63025601Y-49358628D02*
X62668458Y-49358628D01*
X62668458Y-49358628D02*
X62454172Y-49430057D01*
X62454172Y-49430057D02*
X62311315Y-49572914D01*
X62311315Y-49572914D02*
X62239886Y-49715771D01*
X62239886Y-49715771D02*
X62168458Y-50001485D01*
X62168458Y-50001485D02*
X62168458Y-50215771D01*
X62168458Y-50215771D02*
X62239886Y-50501485D01*
X62239886Y-50501485D02*
X62311315Y-50644342D01*
X62311315Y-50644342D02*
X62454172Y-50787200D01*
X62454172Y-50787200D02*
X62668458Y-50858628D01*
X62668458Y-50858628D02*
X63025601Y-50858628D01*
X61525601Y-50858628D02*
X61525601Y-49358628D01*
X135004180Y-45332420D02*
X135670847Y-45332420D01*
X136004180Y-45332420D02*
X135956561Y-45380039D01*
X135956561Y-45380039D02*
X135908942Y-45332420D01*
X135908942Y-45332420D02*
X135956561Y-45284801D01*
X135956561Y-45284801D02*
X136004180Y-45332420D01*
X136004180Y-45332420D02*
X135908942Y-45332420D01*
X135670847Y-44856230D02*
X135004180Y-44856230D01*
X135575609Y-44856230D02*
X135623228Y-44808611D01*
X135623228Y-44808611D02*
X135670847Y-44713373D01*
X135670847Y-44713373D02*
X135670847Y-44570516D01*
X135670847Y-44570516D02*
X135623228Y-44475278D01*
X135623228Y-44475278D02*
X135527990Y-44427659D01*
X135527990Y-44427659D02*
X135004180Y-44427659D01*
X48412230Y-83435819D02*
X48888420Y-83435819D01*
X48888420Y-83435819D02*
X48888420Y-82435819D01*
X48078896Y-82912009D02*
X47745563Y-82912009D01*
X47602706Y-83435819D02*
X48078896Y-83435819D01*
X48078896Y-83435819D02*
X48078896Y-82435819D01*
X48078896Y-82435819D02*
X47602706Y-82435819D01*
X47174134Y-83435819D02*
X47174134Y-82435819D01*
X47174134Y-82435819D02*
X46936039Y-82435819D01*
X46936039Y-82435819D02*
X46793182Y-82483438D01*
X46793182Y-82483438D02*
X46697944Y-82578676D01*
X46697944Y-82578676D02*
X46650325Y-82673914D01*
X46650325Y-82673914D02*
X46602706Y-82864390D01*
X46602706Y-82864390D02*
X46602706Y-83007247D01*
X46602706Y-83007247D02*
X46650325Y-83197723D01*
X46650325Y-83197723D02*
X46697944Y-83292961D01*
X46697944Y-83292961D02*
X46793182Y-83388200D01*
X46793182Y-83388200D02*
X46936039Y-83435819D01*
X46936039Y-83435819D02*
X47174134Y-83435819D01*
X45221753Y-82435819D02*
X45031277Y-82435819D01*
X45031277Y-82435819D02*
X44936039Y-82483438D01*
X44936039Y-82483438D02*
X44840801Y-82578676D01*
X44840801Y-82578676D02*
X44793182Y-82769152D01*
X44793182Y-82769152D02*
X44793182Y-83102485D01*
X44793182Y-83102485D02*
X44840801Y-83292961D01*
X44840801Y-83292961D02*
X44936039Y-83388200D01*
X44936039Y-83388200D02*
X45031277Y-83435819D01*
X45031277Y-83435819D02*
X45221753Y-83435819D01*
X45221753Y-83435819D02*
X45316991Y-83388200D01*
X45316991Y-83388200D02*
X45412229Y-83292961D01*
X45412229Y-83292961D02*
X45459848Y-83102485D01*
X45459848Y-83102485D02*
X45459848Y-82769152D01*
X45459848Y-82769152D02*
X45412229Y-82578676D01*
X45412229Y-82578676D02*
X45316991Y-82483438D01*
X45316991Y-82483438D02*
X45221753Y-82435819D01*
X44364610Y-82435819D02*
X44364610Y-83245342D01*
X44364610Y-83245342D02*
X44316991Y-83340580D01*
X44316991Y-83340580D02*
X44269372Y-83388200D01*
X44269372Y-83388200D02*
X44174134Y-83435819D01*
X44174134Y-83435819D02*
X43983658Y-83435819D01*
X43983658Y-83435819D02*
X43888420Y-83388200D01*
X43888420Y-83388200D02*
X43840801Y-83340580D01*
X43840801Y-83340580D02*
X43793182Y-83245342D01*
X43793182Y-83245342D02*
X43793182Y-82435819D01*
X43459848Y-82435819D02*
X42888420Y-82435819D01*
X43174134Y-83435819D02*
X43174134Y-82435819D01*
X182648219Y-37115979D02*
X181648219Y-37115979D01*
X182648219Y-37592169D02*
X181648219Y-37592169D01*
X181648219Y-37592169D02*
X182648219Y-38163597D01*
X182648219Y-38163597D02*
X181648219Y-38163597D01*
X68795780Y-51339544D02*
X68795780Y-51149068D01*
X68795780Y-51149068D02*
X68748161Y-51053830D01*
X68748161Y-51053830D02*
X68652923Y-50958592D01*
X68652923Y-50958592D02*
X68462447Y-50910973D01*
X68462447Y-50910973D02*
X68129114Y-50910973D01*
X68129114Y-50910973D02*
X67938638Y-50958592D01*
X67938638Y-50958592D02*
X67843400Y-51053830D01*
X67843400Y-51053830D02*
X67795780Y-51149068D01*
X67795780Y-51149068D02*
X67795780Y-51339544D01*
X67795780Y-51339544D02*
X67843400Y-51434782D01*
X67843400Y-51434782D02*
X67938638Y-51530020D01*
X67938638Y-51530020D02*
X68129114Y-51577639D01*
X68129114Y-51577639D02*
X68462447Y-51577639D01*
X68462447Y-51577639D02*
X68652923Y-51530020D01*
X68652923Y-51530020D02*
X68748161Y-51434782D01*
X68748161Y-51434782D02*
X68795780Y-51339544D01*
X68795780Y-50482401D02*
X67986257Y-50482401D01*
X67986257Y-50482401D02*
X67891019Y-50434782D01*
X67891019Y-50434782D02*
X67843400Y-50387163D01*
X67843400Y-50387163D02*
X67795780Y-50291925D01*
X67795780Y-50291925D02*
X67795780Y-50101449D01*
X67795780Y-50101449D02*
X67843400Y-50006211D01*
X67843400Y-50006211D02*
X67891019Y-49958592D01*
X67891019Y-49958592D02*
X67986257Y-49910973D01*
X67986257Y-49910973D02*
X68795780Y-49910973D01*
X68795780Y-49577639D02*
X68795780Y-49006211D01*
X67795780Y-49291925D02*
X68795780Y-49291925D01*
X175196619Y-36871522D02*
X176196619Y-37204855D01*
X176196619Y-37204855D02*
X175196619Y-37538188D01*
X176196619Y-38442950D02*
X175720428Y-38109617D01*
X176196619Y-37871522D02*
X175196619Y-37871522D01*
X175196619Y-37871522D02*
X175196619Y-38252474D01*
X175196619Y-38252474D02*
X175244238Y-38347712D01*
X175244238Y-38347712D02*
X175291857Y-38395331D01*
X175291857Y-38395331D02*
X175387095Y-38442950D01*
X175387095Y-38442950D02*
X175529952Y-38442950D01*
X175529952Y-38442950D02*
X175625190Y-38395331D01*
X175625190Y-38395331D02*
X175672809Y-38347712D01*
X175672809Y-38347712D02*
X175720428Y-38252474D01*
X175720428Y-38252474D02*
X175720428Y-37871522D01*
X175672809Y-38871522D02*
X175672809Y-39204855D01*
X176196619Y-39347712D02*
X176196619Y-38871522D01*
X176196619Y-38871522D02*
X175196619Y-38871522D01*
X175196619Y-38871522D02*
X175196619Y-39347712D01*
X175672809Y-40109617D02*
X175672809Y-39776284D01*
X176196619Y-39776284D02*
X175196619Y-39776284D01*
X175196619Y-39776284D02*
X175196619Y-40252474D01*
X137594980Y-45291163D02*
X137642600Y-45386401D01*
X137642600Y-45386401D02*
X137690219Y-45434020D01*
X137690219Y-45434020D02*
X137785457Y-45481639D01*
X137785457Y-45481639D02*
X138071171Y-45481639D01*
X138071171Y-45481639D02*
X138166409Y-45434020D01*
X138166409Y-45434020D02*
X138214028Y-45386401D01*
X138214028Y-45386401D02*
X138261647Y-45291163D01*
X138261647Y-45291163D02*
X138261647Y-45148306D01*
X138261647Y-45148306D02*
X138214028Y-45053068D01*
X138214028Y-45053068D02*
X138166409Y-45005449D01*
X138166409Y-45005449D02*
X138071171Y-44957830D01*
X138071171Y-44957830D02*
X137785457Y-44957830D01*
X137785457Y-44957830D02*
X137690219Y-45005449D01*
X137690219Y-45005449D02*
X137642600Y-45053068D01*
X137642600Y-45053068D02*
X137594980Y-45148306D01*
X137594980Y-45148306D02*
X137594980Y-45291163D01*
X138261647Y-44100687D02*
X137594980Y-44100687D01*
X138261647Y-44529258D02*
X137737838Y-44529258D01*
X137737838Y-44529258D02*
X137642600Y-44481639D01*
X137642600Y-44481639D02*
X137594980Y-44386401D01*
X137594980Y-44386401D02*
X137594980Y-44243544D01*
X137594980Y-44243544D02*
X137642600Y-44148306D01*
X137642600Y-44148306D02*
X137690219Y-44100687D01*
X138261647Y-43767353D02*
X138261647Y-43386401D01*
X138594980Y-43624496D02*
X137737838Y-43624496D01*
X137737838Y-43624496D02*
X137642600Y-43576877D01*
X137642600Y-43576877D02*
X137594980Y-43481639D01*
X137594980Y-43481639D02*
X137594980Y-43386401D01*
X50033333Y-109054819D02*
X50033333Y-109769104D01*
X50033333Y-109769104D02*
X50080952Y-109911961D01*
X50080952Y-109911961D02*
X50176190Y-110007200D01*
X50176190Y-110007200D02*
X50319047Y-110054819D01*
X50319047Y-110054819D02*
X50414285Y-110054819D01*
X49652380Y-109054819D02*
X48985714Y-109054819D01*
X48985714Y-109054819D02*
X49414285Y-110054819D01*
X113958333Y-99564819D02*
X113958333Y-100279104D01*
X113958333Y-100279104D02*
X114005952Y-100421961D01*
X114005952Y-100421961D02*
X114101190Y-100517200D01*
X114101190Y-100517200D02*
X114244047Y-100564819D01*
X114244047Y-100564819D02*
X114339285Y-100564819D01*
X113053571Y-99564819D02*
X113244047Y-99564819D01*
X113244047Y-99564819D02*
X113339285Y-99612438D01*
X113339285Y-99612438D02*
X113386904Y-99660057D01*
X113386904Y-99660057D02*
X113482142Y-99802914D01*
X113482142Y-99802914D02*
X113529761Y-99993390D01*
X113529761Y-99993390D02*
X113529761Y-100374342D01*
X113529761Y-100374342D02*
X113482142Y-100469580D01*
X113482142Y-100469580D02*
X113434523Y-100517200D01*
X113434523Y-100517200D02*
X113339285Y-100564819D01*
X113339285Y-100564819D02*
X113148809Y-100564819D01*
X113148809Y-100564819D02*
X113053571Y-100517200D01*
X113053571Y-100517200D02*
X113005952Y-100469580D01*
X113005952Y-100469580D02*
X112958333Y-100374342D01*
X112958333Y-100374342D02*
X112958333Y-100136247D01*
X112958333Y-100136247D02*
X113005952Y-100041009D01*
X113005952Y-100041009D02*
X113053571Y-99993390D01*
X113053571Y-99993390D02*
X113148809Y-99945771D01*
X113148809Y-99945771D02*
X113339285Y-99945771D01*
X113339285Y-99945771D02*
X113434523Y-99993390D01*
X113434523Y-99993390D02*
X113482142Y-100041009D01*
X113482142Y-100041009D02*
X113529761Y-100136247D01*
D11*
X83066390Y-74973333D02*
X83066390Y-75306666D01*
X82542580Y-75306666D02*
X83542580Y-75306666D01*
X83542580Y-75306666D02*
X83542580Y-74830476D01*
X83542580Y-74544761D02*
X83542580Y-73925714D01*
X83542580Y-73925714D02*
X83161628Y-74259047D01*
X83161628Y-74259047D02*
X83161628Y-74116190D01*
X83161628Y-74116190D02*
X83114009Y-74020952D01*
X83114009Y-74020952D02*
X83066390Y-73973333D01*
X83066390Y-73973333D02*
X82971152Y-73925714D01*
X82971152Y-73925714D02*
X82733057Y-73925714D01*
X82733057Y-73925714D02*
X82637819Y-73973333D01*
X82637819Y-73973333D02*
X82590200Y-74020952D01*
X82590200Y-74020952D02*
X82542580Y-74116190D01*
X82542580Y-74116190D02*
X82542580Y-74401904D01*
X82542580Y-74401904D02*
X82590200Y-74497142D01*
X82590200Y-74497142D02*
X82637819Y-74544761D01*
D10*
X141569523Y-58244819D02*
X141569523Y-58959104D01*
X141569523Y-58959104D02*
X141617142Y-59101961D01*
X141617142Y-59101961D02*
X141712380Y-59197200D01*
X141712380Y-59197200D02*
X141855237Y-59244819D01*
X141855237Y-59244819D02*
X141950475Y-59244819D01*
X140569523Y-59244819D02*
X141140951Y-59244819D01*
X140855237Y-59244819D02*
X140855237Y-58244819D01*
X140855237Y-58244819D02*
X140950475Y-58387676D01*
X140950475Y-58387676D02*
X141045713Y-58482914D01*
X141045713Y-58482914D02*
X141140951Y-58530533D01*
X139712380Y-58578152D02*
X139712380Y-59244819D01*
X139950475Y-58197200D02*
X140188570Y-58911485D01*
X140188570Y-58911485D02*
X139569523Y-58911485D01*
X127333333Y-45394819D02*
X127333333Y-46109104D01*
X127333333Y-46109104D02*
X127380952Y-46251961D01*
X127380952Y-46251961D02*
X127476190Y-46347200D01*
X127476190Y-46347200D02*
X127619047Y-46394819D01*
X127619047Y-46394819D02*
X127714285Y-46394819D01*
X126380952Y-45394819D02*
X126857142Y-45394819D01*
X126857142Y-45394819D02*
X126904761Y-45871009D01*
X126904761Y-45871009D02*
X126857142Y-45823390D01*
X126857142Y-45823390D02*
X126761904Y-45775771D01*
X126761904Y-45775771D02*
X126523809Y-45775771D01*
X126523809Y-45775771D02*
X126428571Y-45823390D01*
X126428571Y-45823390D02*
X126380952Y-45871009D01*
X126380952Y-45871009D02*
X126333333Y-45966247D01*
X126333333Y-45966247D02*
X126333333Y-46204342D01*
X126333333Y-46204342D02*
X126380952Y-46299580D01*
X126380952Y-46299580D02*
X126428571Y-46347200D01*
X126428571Y-46347200D02*
X126523809Y-46394819D01*
X126523809Y-46394819D02*
X126761904Y-46394819D01*
X126761904Y-46394819D02*
X126857142Y-46347200D01*
X126857142Y-46347200D02*
X126904761Y-46299580D01*
X76250704Y-39790019D02*
X76250704Y-40599542D01*
X76250704Y-40599542D02*
X76203085Y-40694780D01*
X76203085Y-40694780D02*
X76155466Y-40742400D01*
X76155466Y-40742400D02*
X76060228Y-40790019D01*
X76060228Y-40790019D02*
X75869752Y-40790019D01*
X75869752Y-40790019D02*
X75774514Y-40742400D01*
X75774514Y-40742400D02*
X75726895Y-40694780D01*
X75726895Y-40694780D02*
X75679276Y-40599542D01*
X75679276Y-40599542D02*
X75679276Y-39790019D01*
X74679276Y-40790019D02*
X75250704Y-40790019D01*
X74964990Y-40790019D02*
X74964990Y-39790019D01*
X74964990Y-39790019D02*
X75060228Y-39932876D01*
X75060228Y-39932876D02*
X75155466Y-40028114D01*
X75155466Y-40028114D02*
X75250704Y-40075733D01*
X58956533Y-82919219D02*
X58956533Y-83633504D01*
X58956533Y-83633504D02*
X59004152Y-83776361D01*
X59004152Y-83776361D02*
X59099390Y-83871600D01*
X59099390Y-83871600D02*
X59242247Y-83919219D01*
X59242247Y-83919219D02*
X59337485Y-83919219D01*
X58051771Y-83252552D02*
X58051771Y-83919219D01*
X58289866Y-82871600D02*
X58527961Y-83585885D01*
X58527961Y-83585885D02*
X57908914Y-83585885D01*
X123633333Y-67954819D02*
X123633333Y-68669104D01*
X123633333Y-68669104D02*
X123680952Y-68811961D01*
X123680952Y-68811961D02*
X123776190Y-68907200D01*
X123776190Y-68907200D02*
X123919047Y-68954819D01*
X123919047Y-68954819D02*
X124014285Y-68954819D01*
X123014285Y-68383390D02*
X123109523Y-68335771D01*
X123109523Y-68335771D02*
X123157142Y-68288152D01*
X123157142Y-68288152D02*
X123204761Y-68192914D01*
X123204761Y-68192914D02*
X123204761Y-68145295D01*
X123204761Y-68145295D02*
X123157142Y-68050057D01*
X123157142Y-68050057D02*
X123109523Y-68002438D01*
X123109523Y-68002438D02*
X123014285Y-67954819D01*
X123014285Y-67954819D02*
X122823809Y-67954819D01*
X122823809Y-67954819D02*
X122728571Y-68002438D01*
X122728571Y-68002438D02*
X122680952Y-68050057D01*
X122680952Y-68050057D02*
X122633333Y-68145295D01*
X122633333Y-68145295D02*
X122633333Y-68192914D01*
X122633333Y-68192914D02*
X122680952Y-68288152D01*
X122680952Y-68288152D02*
X122728571Y-68335771D01*
X122728571Y-68335771D02*
X122823809Y-68383390D01*
X122823809Y-68383390D02*
X123014285Y-68383390D01*
X123014285Y-68383390D02*
X123109523Y-68431009D01*
X123109523Y-68431009D02*
X123157142Y-68478628D01*
X123157142Y-68478628D02*
X123204761Y-68573866D01*
X123204761Y-68573866D02*
X123204761Y-68764342D01*
X123204761Y-68764342D02*
X123157142Y-68859580D01*
X123157142Y-68859580D02*
X123109523Y-68907200D01*
X123109523Y-68907200D02*
X123014285Y-68954819D01*
X123014285Y-68954819D02*
X122823809Y-68954819D01*
X122823809Y-68954819D02*
X122728571Y-68907200D01*
X122728571Y-68907200D02*
X122680952Y-68859580D01*
X122680952Y-68859580D02*
X122633333Y-68764342D01*
X122633333Y-68764342D02*
X122633333Y-68573866D01*
X122633333Y-68573866D02*
X122680952Y-68478628D01*
X122680952Y-68478628D02*
X122728571Y-68431009D01*
X122728571Y-68431009D02*
X122823809Y-68383390D01*
D11*
X89076390Y-74973333D02*
X89076390Y-75306666D01*
X88552580Y-75306666D02*
X89552580Y-75306666D01*
X89552580Y-75306666D02*
X89552580Y-74830476D01*
X89457342Y-74497142D02*
X89504961Y-74449523D01*
X89504961Y-74449523D02*
X89552580Y-74354285D01*
X89552580Y-74354285D02*
X89552580Y-74116190D01*
X89552580Y-74116190D02*
X89504961Y-74020952D01*
X89504961Y-74020952D02*
X89457342Y-73973333D01*
X89457342Y-73973333D02*
X89362104Y-73925714D01*
X89362104Y-73925714D02*
X89266866Y-73925714D01*
X89266866Y-73925714D02*
X89124009Y-73973333D01*
X89124009Y-73973333D02*
X88552580Y-74544761D01*
X88552580Y-74544761D02*
X88552580Y-73925714D01*
D10*
X66646323Y-59754419D02*
X66646323Y-60468704D01*
X66646323Y-60468704D02*
X66693942Y-60611561D01*
X66693942Y-60611561D02*
X66789180Y-60706800D01*
X66789180Y-60706800D02*
X66932037Y-60754419D01*
X66932037Y-60754419D02*
X67027275Y-60754419D01*
X65646323Y-60754419D02*
X66217751Y-60754419D01*
X65932037Y-60754419D02*
X65932037Y-59754419D01*
X65932037Y-59754419D02*
X66027275Y-59897276D01*
X66027275Y-59897276D02*
X66122513Y-59992514D01*
X66122513Y-59992514D02*
X66217751Y-60040133D01*
X64741561Y-59754419D02*
X65217751Y-59754419D01*
X65217751Y-59754419D02*
X65265370Y-60230609D01*
X65265370Y-60230609D02*
X65217751Y-60182990D01*
X65217751Y-60182990D02*
X65122513Y-60135371D01*
X65122513Y-60135371D02*
X64884418Y-60135371D01*
X64884418Y-60135371D02*
X64789180Y-60182990D01*
X64789180Y-60182990D02*
X64741561Y-60230609D01*
X64741561Y-60230609D02*
X64693942Y-60325847D01*
X64693942Y-60325847D02*
X64693942Y-60563942D01*
X64693942Y-60563942D02*
X64741561Y-60659180D01*
X64741561Y-60659180D02*
X64789180Y-60706800D01*
X64789180Y-60706800D02*
X64884418Y-60754419D01*
X64884418Y-60754419D02*
X65122513Y-60754419D01*
X65122513Y-60754419D02*
X65217751Y-60706800D01*
X65217751Y-60706800D02*
X65265370Y-60659180D01*
D12*
X48260000Y-107650000D02*
X48260000Y-106320000D01*
X49590000Y-107650000D02*
X48260000Y-107650000D01*
X50860000Y-107650000D02*
X99180000Y-107650000D01*
X50860000Y-107650000D02*
X50860000Y-105050000D01*
X99180000Y-107650000D02*
X99180000Y-102450000D01*
X48260000Y-105050000D02*
X48260000Y-102450000D01*
X50860000Y-105050000D02*
X48260000Y-105050000D01*
X48260000Y-102450000D02*
X99180000Y-102450000D01*
D11*
X46220000Y-125050000D02*
X101220000Y-125050000D01*
X101220000Y-125050000D02*
X101220000Y-85050000D01*
X101220000Y-85050000D02*
X46220000Y-85050000D01*
X46220000Y-85050000D02*
X46220000Y-125050000D01*
D12*
X112295000Y-88830000D02*
X114955000Y-88830000D01*
X112295000Y-96510000D02*
X112295000Y-88830000D01*
X112295000Y-96510000D02*
X114955000Y-96510000D01*
X112295000Y-97780000D02*
X112295000Y-99110000D01*
X112295000Y-99110000D02*
X113625000Y-99110000D01*
X114955000Y-96510000D02*
X114955000Y-88830000D01*
X138000000Y-58445000D02*
X139270000Y-58445000D01*
X139270000Y-58445000D02*
X139270000Y-57175000D01*
X135080000Y-56132071D02*
X135080000Y-55735000D01*
X135840000Y-56132071D02*
X135840000Y-55735000D01*
X137620000Y-56065000D02*
X137620000Y-55735000D01*
X138380000Y-56065000D02*
X138380000Y-55735000D01*
X134130000Y-55735000D02*
X134130000Y-53075000D01*
X136730000Y-55735000D02*
X136730000Y-53075000D01*
X139330000Y-55735000D02*
X134130000Y-55735000D01*
X134130000Y-53075000D02*
X139330000Y-53075000D01*
X135840000Y-53075000D02*
X135840000Y-47075000D01*
X137720000Y-53075000D02*
X137720000Y-47075000D01*
X137840000Y-53075000D02*
X137840000Y-47075000D01*
X137960000Y-53075000D02*
X137960000Y-47075000D01*
X138080000Y-53075000D02*
X138080000Y-47075000D01*
X138200000Y-53075000D02*
X138200000Y-47075000D01*
X138320000Y-53075000D02*
X138320000Y-47075000D01*
X138380000Y-53075000D02*
X138380000Y-47075000D01*
X139330000Y-53075000D02*
X139330000Y-55735000D01*
X135080000Y-47075000D02*
X135080000Y-53075000D01*
X135840000Y-47075000D02*
X135080000Y-47075000D01*
X137620000Y-47075000D02*
X137620000Y-53075000D01*
X138380000Y-47075000D02*
X137620000Y-47075000D01*
D11*
X127914753Y-50006248D02*
G75*
G03*
X127914753Y-50006248I-914753J0D01*
G01*
X127914400Y-48000000D02*
G75*
G03*
X127914400Y-48000000I-914400J0D01*
G01*
D12*
X80300000Y-59500000D02*
X79900000Y-59500000D01*
X82900000Y-59500000D02*
X82500000Y-59500000D01*
X85400000Y-59500000D02*
X85000000Y-59500000D01*
X87900000Y-59500000D02*
X87500000Y-59500000D01*
X90500000Y-59500000D02*
X90100000Y-59500000D01*
X93000000Y-59500000D02*
X92600000Y-59500000D01*
X95600000Y-59500000D02*
X95200000Y-59500000D01*
X98100000Y-59500000D02*
X97700000Y-59500000D01*
X100700000Y-59500000D02*
X100300000Y-59500000D01*
X103200000Y-59500000D02*
X102800000Y-59500000D01*
X105700000Y-59500000D02*
X105300000Y-59500000D01*
X108300000Y-59500000D02*
X107900000Y-59500000D01*
X110800000Y-59500000D02*
X110400000Y-59500000D01*
X113400000Y-59500000D02*
X113000000Y-59500000D01*
X115900000Y-59500000D02*
X115500000Y-59500000D01*
X118400000Y-59500000D02*
X118000000Y-59500000D01*
X121000000Y-59500000D02*
X120600000Y-59500000D01*
X123500000Y-59500000D02*
X123100000Y-59500000D01*
X125833000Y-59500000D02*
X125833000Y-56493000D01*
X126100000Y-59500000D02*
X125700000Y-59500000D01*
X128500000Y-59500000D02*
X128200000Y-59500000D01*
X125833000Y-56493000D02*
X128500000Y-56493000D01*
X77500000Y-52700000D02*
X77500000Y-59500000D01*
X77500000Y-50500000D02*
X77500000Y-50100000D01*
X77500000Y-47900000D02*
X77500000Y-47500000D01*
X77500000Y-38500000D02*
X77500000Y-45300000D01*
X80300000Y-38500000D02*
X79900000Y-38500000D01*
X82900000Y-38500000D02*
X82500000Y-38500000D01*
X85400000Y-38500000D02*
X85000000Y-38500000D01*
X87900000Y-38500000D02*
X87500000Y-38500000D01*
X90500000Y-38500000D02*
X90100000Y-38500000D01*
X93000000Y-38500000D02*
X92600000Y-38500000D01*
X95600000Y-38500000D02*
X95200000Y-38500000D01*
X98100000Y-38500000D02*
X97700000Y-38500000D01*
X100700000Y-38500000D02*
X100300000Y-38500000D01*
X103200000Y-38500000D02*
X102800000Y-38500000D01*
X105700000Y-38500000D02*
X105300000Y-38500000D01*
X108300000Y-38500000D02*
X107900000Y-38500000D01*
X110800000Y-38500000D02*
X110400000Y-38500000D01*
X113400000Y-38500000D02*
X113000000Y-38500000D01*
X115900000Y-38500000D02*
X115500000Y-38500000D01*
X118400000Y-38500000D02*
X118000000Y-38500000D01*
X121000000Y-38500000D02*
X120600000Y-38500000D01*
X123500000Y-38500000D02*
X123100000Y-38500000D01*
X126100000Y-38500000D02*
X125700000Y-38500000D01*
X128500000Y-38500000D02*
X128200000Y-38500000D01*
X55865000Y-84232600D02*
X57135000Y-84232600D01*
X57135000Y-84232600D02*
X57135000Y-82962600D01*
X50405000Y-81919671D02*
X50405000Y-81522600D01*
X51165000Y-81919671D02*
X51165000Y-81522600D01*
X52945000Y-81919671D02*
X52945000Y-81522600D01*
X53705000Y-81919671D02*
X53705000Y-81522600D01*
X55485000Y-81852600D02*
X55485000Y-81522600D01*
X56245000Y-81852600D02*
X56245000Y-81522600D01*
X49455000Y-81522600D02*
X49455000Y-78862600D01*
X52055000Y-81522600D02*
X52055000Y-78862600D01*
X54595000Y-81522600D02*
X54595000Y-78862600D01*
X57195000Y-81522600D02*
X49455000Y-81522600D01*
X49455000Y-78862600D02*
X57195000Y-78862600D01*
X51165000Y-78862600D02*
X51165000Y-72862600D01*
X53705000Y-78862600D02*
X53705000Y-72862600D01*
X55585000Y-78862600D02*
X55585000Y-72862600D01*
X55705000Y-78862600D02*
X55705000Y-72862600D01*
X55825000Y-78862600D02*
X55825000Y-72862600D01*
X55945000Y-78862600D02*
X55945000Y-72862600D01*
X56065000Y-78862600D02*
X56065000Y-72862600D01*
X56185000Y-78862600D02*
X56185000Y-72862600D01*
X56245000Y-78862600D02*
X56245000Y-72862600D01*
X57195000Y-78862600D02*
X57195000Y-81522600D01*
X50405000Y-72862600D02*
X50405000Y-78862600D01*
X51165000Y-72862600D02*
X50405000Y-72862600D01*
X52945000Y-72862600D02*
X52945000Y-78862600D01*
X53705000Y-72862600D02*
X52945000Y-72862600D01*
X55485000Y-72862600D02*
X55485000Y-78862600D01*
X56245000Y-72862600D02*
X55485000Y-72862600D01*
D11*
X171480000Y-63505600D02*
X171480000Y-121505600D01*
X167730000Y-125005600D02*
X167980000Y-125005600D01*
D12*
X158790000Y-123020600D02*
X158790000Y-117820600D01*
X157885000Y-76115600D02*
X157885000Y-81255600D01*
X157885000Y-73515600D02*
X157885000Y-74845600D01*
X156555000Y-73515600D02*
X157885000Y-73515600D01*
X155285000Y-76115600D02*
X157885000Y-76115600D01*
X155285000Y-73515600D02*
X155285000Y-76115600D01*
X153650000Y-120420600D02*
X153650000Y-117820600D01*
X153650000Y-117820600D02*
X158790000Y-117820600D01*
X152685000Y-81255600D02*
X157885000Y-81255600D01*
X152685000Y-73515600D02*
X155285000Y-73515600D01*
X152685000Y-73515600D02*
X152685000Y-81255600D01*
X151050000Y-123020600D02*
X158790000Y-123020600D01*
X151050000Y-123020600D02*
X151050000Y-120420600D01*
X151050000Y-120420600D02*
X153650000Y-120420600D01*
X151050000Y-119150600D02*
X151050000Y-117820600D01*
X151050000Y-117820600D02*
X152380000Y-117820600D01*
X121580000Y-69645600D02*
X121580000Y-117965600D01*
X121580000Y-67045600D02*
X121580000Y-68375600D01*
X120250000Y-67045600D02*
X121580000Y-67045600D01*
X118980000Y-69645600D02*
X121580000Y-69645600D01*
X118980000Y-67045600D02*
X118980000Y-69645600D01*
D11*
X118980000Y-60005600D02*
X167980000Y-60005600D01*
X118980000Y-60005600D02*
X118480000Y-60005243D01*
X118230000Y-125005600D02*
X167730000Y-125005600D01*
D12*
X116380000Y-117965600D02*
X121580000Y-117965600D01*
X116380000Y-67045600D02*
X118980000Y-67045600D01*
X116380000Y-67045600D02*
X116380000Y-117965600D01*
D11*
X114980000Y-121505600D02*
X114980000Y-63555600D01*
X167980000Y-125005600D02*
G75*
G03*
X171480000Y-121505600I1J3499999D01*
G01*
X171480000Y-63505600D02*
G75*
G03*
X167980000Y-60005600I-3499999J1D01*
G01*
X114980000Y-121505600D02*
G75*
G03*
X118480000Y-125005600I3500000J0D01*
G01*
X118480000Y-60005243D02*
G75*
G03*
X114980000Y-63555600I0J-3500357D01*
G01*
X169631000Y-121505600D02*
G75*
G03*
X169631000Y-121505600I-1651000J0D01*
G01*
X169631000Y-63505600D02*
G75*
G03*
X169631000Y-63505600I-1651000J0D01*
G01*
X120631000Y-121505600D02*
G75*
G03*
X120631000Y-121505600I-1651000J0D01*
G01*
X120631000Y-63505600D02*
G75*
G03*
X120631000Y-63505600I-1651000J0D01*
G01*
D12*
X72270000Y-52850000D02*
X72270000Y-51580000D01*
X72270000Y-51580000D02*
X71000000Y-51580000D01*
X69957071Y-58310000D02*
X69502929Y-58310000D01*
X69957071Y-57550000D02*
X69502929Y-57550000D01*
X69957071Y-55770000D02*
X69502929Y-55770000D01*
X69957071Y-55010000D02*
X69502929Y-55010000D01*
X69890000Y-53230000D02*
X69502929Y-53230000D01*
X69890000Y-52470000D02*
X69502929Y-52470000D01*
X67417071Y-58310000D02*
X67020000Y-58310000D01*
X67417071Y-57550000D02*
X67020000Y-57550000D01*
X67417071Y-55770000D02*
X67020000Y-55770000D01*
X67417071Y-55010000D02*
X67020000Y-55010000D01*
X67417071Y-53230000D02*
X67020000Y-53230000D01*
X67417071Y-52470000D02*
X67020000Y-52470000D01*
X67020000Y-59260000D02*
X64360000Y-59260000D01*
X67020000Y-56660000D02*
X64360000Y-56660000D01*
X67020000Y-54120000D02*
X64360000Y-54120000D01*
X67020000Y-51520000D02*
X67020000Y-59260000D01*
X64360000Y-59260000D02*
X64360000Y-51520000D01*
X64360000Y-57550000D02*
X58360000Y-57550000D01*
X64360000Y-55010000D02*
X58360000Y-55010000D01*
X64360000Y-53130000D02*
X58360000Y-53130000D01*
X64360000Y-53010000D02*
X58360000Y-53010000D01*
X64360000Y-52890000D02*
X58360000Y-52890000D01*
X64360000Y-52770000D02*
X58360000Y-52770000D01*
X64360000Y-52650000D02*
X58360000Y-52650000D01*
X64360000Y-52530000D02*
X58360000Y-52530000D01*
X64360000Y-52470000D02*
X58360000Y-52470000D01*
X64360000Y-51520000D02*
X67020000Y-51520000D01*
X58360000Y-58310000D02*
X64360000Y-58310000D01*
X58360000Y-57550000D02*
X58360000Y-58310000D01*
X58360000Y-55770000D02*
X64360000Y-55770000D01*
X58360000Y-55010000D02*
X58360000Y-55770000D01*
X58360000Y-53230000D02*
X64360000Y-53230000D01*
X58360000Y-52470000D02*
X58360000Y-53230000D01*
%LPC*%
D13*
X146800000Y-46700000D03*
X146800000Y-49200000D03*
D14*
X121000000Y-29500000D03*
X118500000Y-29500000D03*
D15*
X116000000Y-24500000D03*
D14*
X111000000Y-29500000D03*
X113500000Y-29500000D03*
D16*
X133000000Y-23000000D03*
D17*
X28050000Y-111200000D03*
X28050000Y-94970000D03*
X21700000Y-111200000D03*
X21700000Y-94970000D03*
X34400000Y-111200000D03*
X34400000Y-94970000D03*
D13*
X158637600Y-44600000D03*
X163637600Y-44600000D03*
D18*
X179400000Y-30400000D03*
D19*
X179400000Y-24600000D03*
D20*
X174600000Y-27400000D03*
D21*
X30000000Y-119000000D03*
D22*
X41000000Y-66000000D03*
D23*
X41000000Y-68000000D03*
X39000000Y-66000000D03*
X39000000Y-68000000D03*
D13*
X130700000Y-46820000D03*
D24*
X130700000Y-56980000D03*
D25*
X115600000Y-48000000D03*
D26*
X116870000Y-48000000D03*
X118140000Y-48000000D03*
X119410000Y-48000000D03*
D21*
X105000000Y-67000000D03*
X30000000Y-67000000D03*
D17*
X28085000Y-91000000D03*
X28085000Y-74770000D03*
X21735000Y-91000000D03*
X21735000Y-74770000D03*
X34435000Y-91000000D03*
X34435000Y-74770000D03*
D27*
X144960000Y-71520000D03*
D28*
X137340000Y-71520000D03*
X132260000Y-71520000D03*
X124640000Y-91840000D03*
X134800000Y-91840000D03*
X144960000Y-91840000D03*
D17*
X181950000Y-94995000D03*
X181950000Y-111225000D03*
X188300000Y-94995000D03*
X188300000Y-111225000D03*
X175600000Y-94995000D03*
X175600000Y-111225000D03*
D25*
X140600000Y-48000000D03*
D26*
X141870000Y-48000000D03*
X143140000Y-48000000D03*
X144410000Y-48000000D03*
D13*
X109310000Y-104930000D03*
X109310000Y-107430000D03*
D25*
X103100000Y-106000000D03*
D26*
X104370000Y-106000000D03*
X105640000Y-106000000D03*
X106910000Y-106000000D03*
D16*
X118980000Y-121520000D03*
D22*
X169000000Y-120000000D03*
D23*
X169000000Y-118000000D03*
X171000000Y-120000000D03*
X171000000Y-118000000D03*
D29*
X49590000Y-106320000D03*
D30*
X49590000Y-103780000D03*
X52130000Y-106320000D03*
X52130000Y-103780000D03*
X54670000Y-106320000D03*
X54670000Y-103780000D03*
X57210000Y-106320000D03*
X57210000Y-103780000D03*
X59750000Y-106320000D03*
X59750000Y-103780000D03*
X62290000Y-106320000D03*
X62290000Y-103780000D03*
X64830000Y-106320000D03*
X64830000Y-103780000D03*
X67370000Y-106320000D03*
X67370000Y-103780000D03*
X69910000Y-106320000D03*
X69910000Y-103780000D03*
X72450000Y-106320000D03*
X72450000Y-103780000D03*
X74990000Y-106320000D03*
X74990000Y-103780000D03*
X77530000Y-106320000D03*
X77530000Y-103780000D03*
X80070000Y-106320000D03*
X80070000Y-103780000D03*
X82610000Y-106320000D03*
X82610000Y-103780000D03*
X85150000Y-106320000D03*
X85150000Y-103780000D03*
X87690000Y-106320000D03*
X87690000Y-103780000D03*
X90230000Y-106320000D03*
X90230000Y-103780000D03*
X92770000Y-106320000D03*
X92770000Y-103780000D03*
X95310000Y-106320000D03*
X95310000Y-103780000D03*
X97850000Y-106320000D03*
X97850000Y-103780000D03*
D13*
X161620000Y-107300000D03*
X161620000Y-104800000D03*
D31*
X80100000Y-21075000D03*
X80100000Y-22075000D03*
X80100000Y-23075000D03*
X80100000Y-24075000D03*
X80100000Y-25075000D03*
X80100000Y-26075000D03*
X80100000Y-30075000D03*
X80100000Y-31075000D03*
X80100000Y-32075000D03*
X80100000Y-33075000D03*
X80100000Y-34075000D03*
X80100000Y-35075000D03*
X80100000Y-36075000D03*
X81100000Y-36075000D03*
X82100000Y-36075000D03*
X83100000Y-36075000D03*
X84100000Y-36075000D03*
X85100000Y-36075000D03*
X86100000Y-36075000D03*
X87100000Y-36075000D03*
X88100000Y-36075000D03*
X90100000Y-36075000D03*
X91100000Y-36075000D03*
X92100000Y-36075000D03*
X93100000Y-36075000D03*
X94100000Y-36075000D03*
X95100000Y-36075000D03*
X96100000Y-36075000D03*
X97100000Y-36075000D03*
X98100000Y-36075000D03*
X100100000Y-36075000D03*
X101100000Y-36075000D03*
X102100000Y-36075000D03*
X103100000Y-36075000D03*
X104100000Y-36075000D03*
X105100000Y-36075000D03*
X106100000Y-36075000D03*
X107100000Y-36075000D03*
X108100000Y-36075000D03*
X109100000Y-36075000D03*
X110100000Y-36075000D03*
X112100000Y-36075000D03*
X113100000Y-36075000D03*
X114100000Y-36075000D03*
X115100000Y-36075000D03*
X116100000Y-36075000D03*
X117100000Y-36075000D03*
X118100000Y-36075000D03*
X119100000Y-36075000D03*
X120100000Y-36075000D03*
X122100000Y-36075000D03*
X123100000Y-36075000D03*
X124100000Y-36075000D03*
X125100000Y-36075000D03*
X126100000Y-36075000D03*
X127100000Y-36075000D03*
X128100000Y-36075000D03*
X129100000Y-36075000D03*
X130100000Y-21075000D03*
X130100000Y-22075000D03*
X130100000Y-23075000D03*
X130100000Y-24075000D03*
X130100000Y-25075000D03*
X130100000Y-26075000D03*
X130100000Y-27075000D03*
X130100000Y-28075000D03*
X130100000Y-29075000D03*
X130100000Y-30075000D03*
X130100000Y-31075000D03*
X130100000Y-32075000D03*
X130100000Y-33075000D03*
X130100000Y-34075000D03*
X130100000Y-35075000D03*
X130100000Y-36075000D03*
D22*
X41000000Y-118000000D03*
D23*
X41000000Y-120000000D03*
X39000000Y-118000000D03*
X39000000Y-120000000D03*
D13*
X44155000Y-101700000D03*
X44155000Y-99200000D03*
D32*
X98750000Y-64500000D03*
X111250000Y-64500000D03*
X98750000Y-69500000D03*
X111250000Y-69500000D03*
D25*
X42100000Y-79000000D03*
D26*
X43370000Y-79000000D03*
X44640000Y-79000000D03*
X45910000Y-79000000D03*
D22*
X94000000Y-68000000D03*
D23*
X94000000Y-66000000D03*
X96000000Y-68000000D03*
X96000000Y-66000000D03*
D13*
X74575000Y-53105000D03*
D24*
X74575000Y-42945000D03*
D33*
X69475000Y-65800000D03*
D34*
X69475000Y-63260000D03*
X69475000Y-60720000D03*
X61855000Y-60720000D03*
X61855000Y-63260000D03*
X61855000Y-65800000D03*
D16*
X77000000Y-23000000D03*
D35*
X161900000Y-50300000D03*
X161900000Y-55300000D03*
D17*
X181965000Y-33800000D03*
X181965000Y-50030000D03*
X188315000Y-33800000D03*
X188315000Y-50030000D03*
X175615000Y-33800000D03*
X175615000Y-50030000D03*
D13*
X63475000Y-43700000D03*
X65975000Y-43700000D03*
G36*
X107946312Y-33285921D02*
G01*
X107214079Y-32553688D01*
X107199200Y-32517767D01*
X107199200Y-31482233D01*
X107214079Y-31446312D01*
X107946312Y-30714079D01*
X107982233Y-30699200D01*
X109017767Y-30699200D01*
X109053688Y-30714079D01*
X109785921Y-31446312D01*
X109800800Y-31482233D01*
X109800800Y-32517767D01*
X109785921Y-32553688D01*
X109053688Y-33285921D01*
X109017767Y-33300800D01*
X107982233Y-33300800D01*
X107946312Y-33285921D01*
G37*
G36*
X117285921Y-32553688D02*
G01*
X116553688Y-33285921D01*
X116517767Y-33300800D01*
X115482233Y-33300800D01*
X115446312Y-33285921D01*
X114714079Y-32553688D01*
X114699200Y-32517767D01*
X114699200Y-31482233D01*
X114714079Y-31446312D01*
X115446312Y-30714079D01*
X115482233Y-30699200D01*
X116517767Y-30699200D01*
X116553688Y-30714079D01*
X117285921Y-31446312D01*
X117300800Y-31482233D01*
X117300800Y-32517767D01*
X117285921Y-32553688D01*
G37*
G36*
X122946312Y-33285921D02*
G01*
X122214079Y-32553688D01*
X122199200Y-32517767D01*
X122199200Y-31482233D01*
X122214079Y-31446312D01*
X122946312Y-30714079D01*
X122982233Y-30699200D01*
X124017767Y-30699200D01*
X124053688Y-30714079D01*
X124785921Y-31446312D01*
X124800800Y-31482233D01*
X124800800Y-32517767D01*
X124785921Y-32553688D01*
X124053688Y-33285921D01*
X124017767Y-33300800D01*
X122982233Y-33300800D01*
X122946312Y-33285921D01*
G37*
G36*
X110446312Y-35785921D02*
G01*
X109714079Y-35053688D01*
X109699200Y-35017767D01*
X109699200Y-33982233D01*
X109714079Y-33946312D01*
X110446312Y-33214079D01*
X110482233Y-33199200D01*
X111517767Y-33199200D01*
X111553688Y-33214079D01*
X112285921Y-33946312D01*
X112300800Y-33982233D01*
X112300800Y-35017767D01*
X112285921Y-35053688D01*
X111553688Y-35785921D01*
X111517767Y-35800800D01*
X110482233Y-35800800D01*
X110446312Y-35785921D01*
G37*
G36*
X120446312Y-35785921D02*
G01*
X119714079Y-35053688D01*
X119699200Y-35017767D01*
X119699200Y-33982233D01*
X119714079Y-33946312D01*
X120446312Y-33214079D01*
X120482233Y-33199200D01*
X121517767Y-33199200D01*
X121553688Y-33214079D01*
X122285921Y-33946312D01*
X122300800Y-33982233D01*
X122300800Y-35017767D01*
X122285921Y-35053688D01*
X121553688Y-35785921D01*
X121517767Y-35800800D01*
X120482233Y-35800800D01*
X120446312Y-35785921D01*
G37*
G36*
X117564079Y-23035921D02*
G01*
X117549200Y-23000000D01*
X117549200Y-21900000D01*
X117564079Y-21864079D01*
X118464079Y-20964079D01*
X118500000Y-20949200D01*
X119400000Y-20949200D01*
X119435921Y-20964079D01*
X119450800Y-21000000D01*
X119450800Y-23000000D01*
X119435921Y-23035921D01*
X119400000Y-23050800D01*
X117600000Y-23050800D01*
X117564079Y-23035921D01*
G37*
G36*
G01*
X121950800Y-21000000D02*
X121950800Y-23000000D01*
G75*
G02*
X121900000Y-23050800I-50800J0D01*
G01*
X120100000Y-23050800D01*
G75*
G02*
X120049200Y-23000000I0J50800D01*
G01*
X120049200Y-21000000D01*
G75*
G02*
X120100000Y-20949200I50800J0D01*
G01*
X121900000Y-20949200D01*
G75*
G02*
X121950800Y-21000000I0J-50800D01*
G01*
G37*
G36*
G01*
X111950800Y-21000000D02*
X111950800Y-23000000D01*
G75*
G02*
X111900000Y-23050800I-50800J0D01*
G01*
X110100000Y-23050800D01*
G75*
G02*
X110049200Y-23000000I0J50800D01*
G01*
X110049200Y-21000000D01*
G75*
G02*
X110100000Y-20949200I50800J0D01*
G01*
X111900000Y-20949200D01*
G75*
G02*
X111950800Y-21000000I0J-50800D01*
G01*
G37*
G36*
X112564079Y-23035921D02*
G01*
X112549200Y-23000000D01*
X112549200Y-21000000D01*
X112564079Y-20964079D01*
X112600000Y-20949200D01*
X113500000Y-20949200D01*
X113535921Y-20964079D01*
X114435921Y-21864079D01*
X114450800Y-21900000D01*
X114450800Y-23000000D01*
X114435921Y-23035921D01*
X114400000Y-23050800D01*
X112600000Y-23050800D01*
X112564079Y-23035921D01*
G37*
D25*
X90600000Y-48000000D03*
D26*
X91870000Y-48000000D03*
X93140000Y-48000000D03*
X94410000Y-48000000D03*
D36*
X60250000Y-31500000D03*
D37*
X60250000Y-36500000D03*
X60250000Y-34000000D03*
D38*
X67750000Y-28400000D03*
X67750000Y-39600000D03*
D37*
X74750000Y-36500000D03*
X74750000Y-31500000D03*
D13*
X68750000Y-43675000D03*
X71250000Y-43675000D03*
X164570000Y-83300000D03*
X167070000Y-83300000D03*
D36*
X144100000Y-60932323D03*
D37*
X144100000Y-65932323D03*
D22*
X169000000Y-68000000D03*
D23*
X169000000Y-66000000D03*
X171000000Y-68000000D03*
X171000000Y-66000000D03*
D21*
X180000000Y-67000000D03*
D13*
X78280000Y-68980000D03*
D24*
X68120000Y-68980000D03*
D36*
X135600000Y-63400000D03*
D37*
X130600000Y-63400000D03*
D25*
X65600000Y-48000000D03*
D26*
X66870000Y-48000000D03*
X68140000Y-48000000D03*
X69410000Y-48000000D03*
D13*
X91250000Y-52400000D03*
X93750000Y-52400000D03*
D17*
X181950000Y-74780000D03*
X181950000Y-91010000D03*
X188300000Y-74780000D03*
X188300000Y-91010000D03*
X175600000Y-74780000D03*
X175600000Y-91010000D03*
D21*
X105000000Y-119000000D03*
D32*
X23750000Y-64500000D03*
X36250000Y-64500000D03*
X23750000Y-69500000D03*
X36250000Y-69500000D03*
D13*
X129650000Y-43470000D03*
X132150000Y-43470000D03*
X47695000Y-63050000D03*
D24*
X57855000Y-63050000D03*
D36*
X160532323Y-37500000D03*
D37*
X165532323Y-37500000D03*
D22*
X104000000Y-108000000D03*
D23*
X106000000Y-108000000D03*
X104000000Y-110000000D03*
X106000000Y-110000000D03*
D25*
X164100000Y-79000000D03*
D26*
X165370000Y-79000000D03*
X166640000Y-79000000D03*
X167910000Y-79000000D03*
D13*
X81190000Y-69340000D03*
D24*
X91350000Y-69340000D03*
D25*
X42100000Y-106000000D03*
D26*
X43370000Y-106000000D03*
X44640000Y-106000000D03*
X45910000Y-106000000D03*
D13*
X76600000Y-55270000D03*
D24*
X76600000Y-65430000D03*
D13*
X146500000Y-55700000D03*
X141500000Y-55700000D03*
D39*
X73700000Y-65775000D03*
D24*
X73700000Y-58155000D03*
D13*
X116150000Y-52300000D03*
X118650000Y-52300000D03*
D40*
X154700000Y-45900000D03*
D41*
X154700000Y-30660000D03*
D13*
X91280000Y-62575000D03*
D24*
X81120000Y-62575000D03*
D13*
X171900000Y-29800000D03*
X166900000Y-29800000D03*
D16*
X118900000Y-63565600D03*
D13*
X151700000Y-57200000D03*
X151700000Y-62200000D03*
D25*
X164100000Y-106000000D03*
D26*
X165370000Y-106000000D03*
X166640000Y-106000000D03*
X167910000Y-106000000D03*
D32*
X173750000Y-116500000D03*
X186250000Y-116500000D03*
X173750000Y-121500000D03*
X186250000Y-121500000D03*
D21*
X180000000Y-119000000D03*
D32*
X173750000Y-64500000D03*
X186250000Y-64500000D03*
X173750000Y-69500000D03*
X186250000Y-69500000D03*
D13*
X103200000Y-74700000D03*
X105700000Y-74700000D03*
D32*
X23750000Y-116500000D03*
X36250000Y-116500000D03*
X23750000Y-121500000D03*
X36250000Y-121500000D03*
D16*
X168000000Y-23000000D03*
D13*
X91350000Y-65980000D03*
D24*
X81190000Y-65980000D03*
D36*
X135250000Y-31500000D03*
D37*
X135250000Y-36500000D03*
X135250000Y-34000000D03*
D38*
X142750000Y-28400000D03*
X142750000Y-39600000D03*
D37*
X149750000Y-36500000D03*
X149750000Y-31500000D03*
D13*
X47695000Y-66050000D03*
D24*
X57855000Y-66050000D03*
D32*
X98750000Y-116500000D03*
X111250000Y-116500000D03*
X98750000Y-121500000D03*
X111250000Y-121500000D03*
D13*
X156200000Y-64700000D03*
X156200000Y-59700000D03*
G36*
X85951812Y-33285921D02*
G01*
X85219579Y-32553688D01*
X85204700Y-32517767D01*
X85204700Y-31482233D01*
X85219579Y-31446312D01*
X85951812Y-30714079D01*
X85987733Y-30699200D01*
X87023267Y-30699200D01*
X87059188Y-30714079D01*
X87791421Y-31446312D01*
X87806300Y-31482233D01*
X87806300Y-32517767D01*
X87791421Y-32553688D01*
X87059188Y-33285921D01*
X87023267Y-33300800D01*
X85987733Y-33300800D01*
X85951812Y-33285921D01*
G37*
G36*
X95291421Y-32553688D02*
G01*
X94559188Y-33285921D01*
X94523267Y-33300800D01*
X93487733Y-33300800D01*
X93451812Y-33285921D01*
X92719579Y-32553688D01*
X92704700Y-32517767D01*
X92704700Y-31482233D01*
X92719579Y-31446312D01*
X93451812Y-30714079D01*
X93487733Y-30699200D01*
X94523267Y-30699200D01*
X94559188Y-30714079D01*
X95291421Y-31446312D01*
X95306300Y-31482233D01*
X95306300Y-32517767D01*
X95291421Y-32553688D01*
G37*
G36*
X100951812Y-33285921D02*
G01*
X100219579Y-32553688D01*
X100204700Y-32517767D01*
X100204700Y-31482233D01*
X100219579Y-31446312D01*
X100951812Y-30714079D01*
X100987733Y-30699200D01*
X102023267Y-30699200D01*
X102059188Y-30714079D01*
X102791421Y-31446312D01*
X102806300Y-31482233D01*
X102806300Y-32517767D01*
X102791421Y-32553688D01*
X102059188Y-33285921D01*
X102023267Y-33300800D01*
X100987733Y-33300800D01*
X100951812Y-33285921D01*
G37*
G36*
X88451812Y-35785921D02*
G01*
X87719579Y-35053688D01*
X87704700Y-35017767D01*
X87704700Y-33982233D01*
X87719579Y-33946312D01*
X88451812Y-33214079D01*
X88487733Y-33199200D01*
X89523267Y-33199200D01*
X89559188Y-33214079D01*
X90291421Y-33946312D01*
X90306300Y-33982233D01*
X90306300Y-35017767D01*
X90291421Y-35053688D01*
X89559188Y-35785921D01*
X89523267Y-35800800D01*
X88487733Y-35800800D01*
X88451812Y-35785921D01*
G37*
G36*
X98451812Y-35785921D02*
G01*
X97719579Y-35053688D01*
X97704700Y-35017767D01*
X97704700Y-33982233D01*
X97719579Y-33946312D01*
X98451812Y-33214079D01*
X98487733Y-33199200D01*
X99523267Y-33199200D01*
X99559188Y-33214079D01*
X100291421Y-33946312D01*
X100306300Y-33982233D01*
X100306300Y-35017767D01*
X100291421Y-35053688D01*
X99559188Y-35785921D01*
X99523267Y-35800800D01*
X98487733Y-35800800D01*
X98451812Y-35785921D01*
G37*
G36*
X95569579Y-23035921D02*
G01*
X95554700Y-23000000D01*
X95554700Y-21900000D01*
X95569579Y-21864079D01*
X96469579Y-20964079D01*
X96505500Y-20949200D01*
X97405500Y-20949200D01*
X97441421Y-20964079D01*
X97456300Y-21000000D01*
X97456300Y-23000000D01*
X97441421Y-23035921D01*
X97405500Y-23050800D01*
X95605500Y-23050800D01*
X95569579Y-23035921D01*
G37*
G36*
G01*
X99956300Y-21000000D02*
X99956300Y-23000000D01*
G75*
G02*
X99905500Y-23050800I-50800J0D01*
G01*
X98105500Y-23050800D01*
G75*
G02*
X98054700Y-23000000I0J50800D01*
G01*
X98054700Y-21000000D01*
G75*
G02*
X98105500Y-20949200I50800J0D01*
G01*
X99905500Y-20949200D01*
G75*
G02*
X99956300Y-21000000I0J-50800D01*
G01*
G37*
G36*
G01*
X89956300Y-21000000D02*
X89956300Y-23000000D01*
G75*
G02*
X89905500Y-23050800I-50800J0D01*
G01*
X88105500Y-23050800D01*
G75*
G02*
X88054700Y-23000000I0J50800D01*
G01*
X88054700Y-21000000D01*
G75*
G02*
X88105500Y-20949200I50800J0D01*
G01*
X89905500Y-20949200D01*
G75*
G02*
X89956300Y-21000000I0J-50800D01*
G01*
G37*
G36*
X90569579Y-23035921D02*
G01*
X90554700Y-23000000D01*
X90554700Y-21000000D01*
X90569579Y-20964079D01*
X90605500Y-20949200D01*
X91505500Y-20949200D01*
X91541421Y-20964079D01*
X92441421Y-21864079D01*
X92456300Y-21900000D01*
X92456300Y-23000000D01*
X92441421Y-23035921D01*
X92405500Y-23050800D01*
X90605500Y-23050800D01*
X90569579Y-23035921D01*
G37*
X44355000Y-72200000D03*
X44355000Y-74700000D03*
D42*
X149606000Y-43078400D03*
D43*
X149606000Y-53238400D03*
D25*
X103100000Y-79000000D03*
D26*
X104370000Y-79000000D03*
X105640000Y-79000000D03*
X106910000Y-79000000D03*
D13*
X59500000Y-40445000D03*
D24*
X59500000Y-50605000D03*
D14*
X99000000Y-29500000D03*
X96500000Y-29500000D03*
D15*
X94000000Y-24500000D03*
D14*
X89000000Y-29500000D03*
X91500000Y-29500000D03*
D29*
X113625000Y-97780000D03*
D30*
X113625000Y-95240000D03*
X113625000Y-92700000D03*
X113625000Y-90160000D03*
G36*
G01*
X85441000Y-77143000D02*
X84679000Y-77143000D01*
G75*
G02*
X84298000Y-76762000I0J381000D01*
G01*
X84298000Y-75238000D01*
G75*
G02*
X84679000Y-74857000I381000J0D01*
G01*
X85441000Y-74857000D01*
G75*
G02*
X85822000Y-75238000I0J-381000D01*
G01*
X85822000Y-76762000D01*
G75*
G02*
X85441000Y-77143000I-381000J0D01*
G01*
G37*
G36*
G01*
X85441000Y-74543000D02*
X84679000Y-74543000D01*
G75*
G02*
X84298000Y-74162000I0J381000D01*
G01*
X84298000Y-72638000D01*
G75*
G02*
X84679000Y-72257000I381000J0D01*
G01*
X85441000Y-72257000D01*
G75*
G02*
X85822000Y-72638000I0J-381000D01*
G01*
X85822000Y-74162000D01*
G75*
G02*
X85441000Y-74543000I-381000J0D01*
G01*
G37*
D29*
X138000000Y-57175000D03*
D30*
X135460000Y-57175000D03*
D44*
X127000000Y-48000000D03*
D23*
X127000000Y-50000000D03*
D30*
X127130000Y-57890000D03*
X124590000Y-57890000D03*
D29*
X122050000Y-57890000D03*
D30*
X119510000Y-57890000D03*
X116970000Y-57890000D03*
X114430000Y-57890000D03*
X111890000Y-57890000D03*
D29*
X109350000Y-57890000D03*
D30*
X106810000Y-57890000D03*
X104270000Y-57890000D03*
X101730000Y-57890000D03*
X99190000Y-57890000D03*
D29*
X96650000Y-57890000D03*
D30*
X94110000Y-57890000D03*
X91570000Y-57890000D03*
X89030000Y-57890000D03*
X86490000Y-57890000D03*
D29*
X83950000Y-57890000D03*
D30*
X81410000Y-57890000D03*
X78870000Y-57890000D03*
X78870000Y-40110000D03*
X81410000Y-40110000D03*
D29*
X83950000Y-40110000D03*
D30*
X86490000Y-40110000D03*
X89030000Y-40110000D03*
X91570000Y-40110000D03*
X94110000Y-40110000D03*
D29*
X96650000Y-40110000D03*
D30*
X99190000Y-40110000D03*
X101730000Y-40110000D03*
X104270000Y-40110000D03*
X106810000Y-40110000D03*
D29*
X109350000Y-40110000D03*
D30*
X111890000Y-40110000D03*
X114430000Y-40110000D03*
X116970000Y-40110000D03*
X119510000Y-40110000D03*
D29*
X122050000Y-40110000D03*
D30*
X124590000Y-40110000D03*
X127130000Y-40110000D03*
D29*
X55865000Y-82962600D03*
D30*
X53325000Y-82962600D03*
X50785000Y-82962600D03*
D29*
X120250000Y-68375600D03*
D30*
X117710000Y-68375600D03*
X120250000Y-70915600D03*
X117710000Y-70915600D03*
X120250000Y-73455600D03*
X117710000Y-73455600D03*
X120250000Y-75995600D03*
X117710000Y-75995600D03*
X120250000Y-78535600D03*
X117710000Y-78535600D03*
X120250000Y-81075600D03*
X117710000Y-81075600D03*
X120250000Y-83615600D03*
X117710000Y-83615600D03*
X120250000Y-86155600D03*
X117710000Y-86155600D03*
X120250000Y-88695600D03*
X117710000Y-88695600D03*
X120250000Y-91235600D03*
X117710000Y-91235600D03*
X120250000Y-93775600D03*
X117710000Y-93775600D03*
X120250000Y-96315600D03*
X117710000Y-96315600D03*
X120250000Y-98855600D03*
X117710000Y-98855600D03*
X120250000Y-101395600D03*
X117710000Y-101395600D03*
X120250000Y-103935600D03*
X117710000Y-103935600D03*
X120250000Y-106475600D03*
X117710000Y-106475600D03*
X120250000Y-109015600D03*
X117710000Y-109015600D03*
X120250000Y-111555600D03*
X117710000Y-111555600D03*
X120250000Y-114095600D03*
X117710000Y-114095600D03*
X120250000Y-116635600D03*
X117710000Y-116635600D03*
D29*
X156555000Y-74845600D03*
D30*
X154015000Y-74845600D03*
X156555000Y-77385600D03*
X154015000Y-77385600D03*
X156555000Y-79925600D03*
X154015000Y-79925600D03*
D29*
X152380000Y-119150600D03*
D30*
X152380000Y-121690600D03*
X154920000Y-119150600D03*
X154920000Y-121690600D03*
X157460000Y-119150600D03*
X157460000Y-121690600D03*
G36*
G01*
X87371000Y-77133000D02*
X86609000Y-77133000D01*
G75*
G02*
X86228000Y-76752000I0J381000D01*
G01*
X86228000Y-75228000D01*
G75*
G02*
X86609000Y-74847000I381000J0D01*
G01*
X87371000Y-74847000D01*
G75*
G02*
X87752000Y-75228000I0J-381000D01*
G01*
X87752000Y-76752000D01*
G75*
G02*
X87371000Y-77133000I-381000J0D01*
G01*
G37*
G36*
G01*
X87371000Y-74533000D02*
X86609000Y-74533000D01*
G75*
G02*
X86228000Y-74152000I0J381000D01*
G01*
X86228000Y-72628000D01*
G75*
G02*
X86609000Y-72247000I381000J0D01*
G01*
X87371000Y-72247000D01*
G75*
G02*
X87752000Y-72628000I0J-381000D01*
G01*
X87752000Y-74152000D01*
G75*
G02*
X87371000Y-74533000I-381000J0D01*
G01*
G37*
D29*
X71000000Y-52850000D03*
D30*
X68460000Y-52850000D03*
X71000000Y-55390000D03*
X68460000Y-55390000D03*
X71000000Y-57930000D03*
X68460000Y-57930000D03*
%LPD*%
M02*
