<?xml version="1.0" standalone="no"?>
 <!DOCTYPE svg PUBLIC "-//W3C//DTD SVG 1.1//EN" 
 "http://www.w3.org/Graphics/SVG/1.1/DTD/svg11.dtd"> 
<svg
  xmlns:svg="http://www.w3.org/2000/svg"
  xmlns="http://www.w3.org/2000/svg"
  xmlns:xlink="http://www.w3.org/1999/xlink"
  version="1.1"
  width="297.0022mm" height="210.0072mm" viewBox="0.0000 0.0000 297.0022 210.0072">
<title>SVG Image created as pedalboard-hw-B_Fab.svg date 2023/12/04 21:50:31 </title>
  <desc>Image generated by PCBNEW </desc>
<g style="fill:#000000; fill-opacity:1.0000;stroke:#000000; stroke-opacity:1.0000;
stroke-linecap:round; stroke-linejoin:round;"
 transform="translate(0 0) scale(1 1)">
</g>
<g style="fill:#000000; fill-opacity:0.0; 
stroke:#000000; stroke-width:0.0000; stroke-opacity:1; 
stroke-linecap:round; stroke-linejoin:round;">
</g>
<g style="fill:#000000; fill-opacity:0.0; 
stroke:#000000; stroke-width:0.1500; stroke-opacity:1; 
stroke-linecap:round; stroke-linejoin:round;">
<text x="267.0022" y="123.2000"
transform="scale(-1 1) translate(-534.004400 0)"
textLength="5.3452" font-size="1.3333" lengthAdjust="spacingAndGlyphs"
text-anchor="middle" opacity="0">Spacer</text>
<g class="stroked-text"><desc>Spacer</desc>
<path d="M264.6451 123.1072
L264.7879 123.1548
" />
<path d="M264.7879 123.1548
L265.0260 123.1548
" />
<path d="M265.0260 123.1548
L265.1212 123.1072
" />
<path d="M265.1212 123.1072
L265.1689 123.0596
" />
<path d="M265.1689 123.0596
L265.2165 122.9643
" />
<path d="M265.2165 122.9643
L265.2165 122.8691
" />
<path d="M265.2165 122.8691
L265.1689 122.7739
" />
<path d="M265.1689 122.7739
L265.1212 122.7262
" />
<path d="M265.1212 122.7262
L265.0260 122.6786
" />
<path d="M265.0260 122.6786
L264.8355 122.6310
" />
<path d="M264.8355 122.6310
L264.7403 122.5834
" />
<path d="M264.7403 122.5834
L264.6927 122.5358
" />
<path d="M264.6927 122.5358
L264.6451 122.4405
" />
<path d="M264.6451 122.4405
L264.6451 122.3453
" />
<path d="M264.6451 122.3453
L264.6927 122.2501
" />
<path d="M264.6927 122.2501
L264.7403 122.2024
" />
<path d="M264.7403 122.2024
L264.8355 122.1548
" />
<path d="M264.8355 122.1548
L265.0736 122.1548
" />
<path d="M265.0736 122.1548
L265.2165 122.2024
" />
<path d="M265.6451 122.4882
L265.6451 123.4882
" />
<path d="M265.6451 122.5358
L265.7403 122.4882
" />
<path d="M265.7403 122.4882
L265.9308 122.4882
" />
<path d="M265.9308 122.4882
L266.0260 122.5358
" />
<path d="M266.0260 122.5358
L266.0736 122.5834
" />
<path d="M266.0736 122.5834
L266.1212 122.6786
" />
<path d="M266.1212 122.6786
L266.1212 122.9643
" />
<path d="M266.1212 122.9643
L266.0736 123.0596
" />
<path d="M266.0736 123.0596
L266.0260 123.1072
" />
<path d="M266.0260 123.1072
L265.9308 123.1548
" />
<path d="M265.9308 123.1548
L265.7403 123.1548
" />
<path d="M265.7403 123.1548
L265.6451 123.1072
" />
<path d="M266.9784 123.1548
L266.9784 122.6310
" />
<path d="M266.9784 122.6310
L266.9308 122.5358
" />
<path d="M266.9308 122.5358
L266.8355 122.4882
" />
<path d="M266.8355 122.4882
L266.6451 122.4882
" />
<path d="M266.6451 122.4882
L266.5498 122.5358
" />
<path d="M266.9784 123.1072
L266.8832 123.1548
" />
<path d="M266.8832 123.1548
L266.6451 123.1548
" />
<path d="M266.6451 123.1548
L266.5498 123.1072
" />
<path d="M266.5498 123.1072
L266.5022 123.0120
" />
<path d="M266.5022 123.0120
L266.5022 122.9167
" />
<path d="M266.5022 122.9167
L266.5498 122.8215
" />
<path d="M266.5498 122.8215
L266.6451 122.7739
" />
<path d="M266.6451 122.7739
L266.8832 122.7739
" />
<path d="M266.8832 122.7739
L266.9784 122.7262
" />
<path d="M267.8832 123.1072
L267.7879 123.1548
" />
<path d="M267.7879 123.1548
L267.5974 123.1548
" />
<path d="M267.5974 123.1548
L267.5022 123.1072
" />
<path d="M267.5022 123.1072
L267.4546 123.0596
" />
<path d="M267.4546 123.0596
L267.4070 122.9643
" />
<path d="M267.4070 122.9643
L267.4070 122.6786
" />
<path d="M267.4070 122.6786
L267.4546 122.5834
" />
<path d="M267.4546 122.5834
L267.5022 122.5358
" />
<path d="M267.5022 122.5358
L267.5974 122.4882
" />
<path d="M267.5974 122.4882
L267.7879 122.4882
" />
<path d="M267.7879 122.4882
L267.8832 122.5358
" />
<path d="M268.6927 123.1072
L268.5974 123.1548
" />
<path d="M268.5974 123.1548
L268.4070 123.1548
" />
<path d="M268.4070 123.1548
L268.3117 123.1072
" />
<path d="M268.3117 123.1072
L268.2641 123.0120
" />
<path d="M268.2641 123.0120
L268.2641 122.6310
" />
<path d="M268.2641 122.6310
L268.3117 122.5358
" />
<path d="M268.3117 122.5358
L268.4070 122.4882
" />
<path d="M268.4070 122.4882
L268.5974 122.4882
" />
<path d="M268.5974 122.4882
L268.6927 122.5358
" />
<path d="M268.6927 122.5358
L268.7403 122.6310
" />
<path d="M268.7403 122.6310
L268.7403 122.7262
" />
<path d="M268.7403 122.7262
L268.2641 122.8215
" />
<path d="M269.1689 123.1548
L269.1689 122.4882
" />
<path d="M269.1689 122.6786
L269.2165 122.5834
" />
<path d="M269.2165 122.5834
L269.2641 122.5358
" />
<path d="M269.2641 122.5358
L269.3593 122.4882
" />
<path d="M269.3593 122.4882
L269.4546 122.4882
" />
</g><text x="267.0022" y="119.5000"
transform="scale(-1 1) translate(-534.004400 0)"
textLength="3.2024" font-size="1.3333" lengthAdjust="spacingAndGlyphs"
text-anchor="middle" opacity="0">H13</text>
<g class="stroked-text"><desc>H13</desc>
<path d="M265.7641 119.4548
L265.7641 118.4548
" />
<path d="M265.7641 118.9310
L266.3355 118.9310
" />
<path d="M266.3355 119.4548
L266.3355 118.4548
" />
<path d="M267.3355 119.4548
L266.7641 119.4548
" />
<path d="M267.0498 119.4548
L267.0498 118.4548
" />
<path d="M267.0498 118.4548
L266.9546 118.5977
" />
<path d="M266.9546 118.5977
L266.8593 118.6929
" />
<path d="M266.8593 118.6929
L266.7641 118.7405
" />
<path d="M267.6689 118.4548
L268.2879 118.4548
" />
<path d="M268.2879 118.4548
L267.9546 118.8358
" />
<path d="M267.9546 118.8358
L268.0974 118.8358
" />
<path d="M268.0974 118.8358
L268.1927 118.8834
" />
<path d="M268.1927 118.8834
L268.2403 118.9310
" />
<path d="M268.2403 118.9310
L268.2879 119.0262
" />
<path d="M268.2879 119.0262
L268.2879 119.2643
" />
<path d="M268.2879 119.2643
L268.2403 119.3596
" />
<path d="M268.2403 119.3596
L268.1927 119.4072
" />
<path d="M268.1927 119.4072
L268.0974 119.4548
" />
<path d="M268.0974 119.4548
L267.8117 119.4548
" />
<path d="M267.8117 119.4548
L267.7165 119.4072
" />
<path d="M267.7165 119.4072
L267.6689 119.3596
" />
</g><text x="192.0022" y="71.2000"
transform="scale(-1 1) translate(-384.004400 0)"
textLength="5.3452" font-size="1.3333" lengthAdjust="spacingAndGlyphs"
text-anchor="middle" opacity="0">Spacer</text>
<g class="stroked-text"><desc>Spacer</desc>
<path d="M189.6451 71.1072
L189.7879 71.1548
" />
<path d="M189.7879 71.1548
L190.0260 71.1548
" />
<path d="M190.0260 71.1548
L190.1212 71.1072
" />
<path d="M190.1212 71.1072
L190.1689 71.0596
" />
<path d="M190.1689 71.0596
L190.2165 70.9643
" />
<path d="M190.2165 70.9643
L190.2165 70.8691
" />
<path d="M190.2165 70.8691
L190.1689 70.7739
" />
<path d="M190.1689 70.7739
L190.1212 70.7262
" />
<path d="M190.1212 70.7262
L190.0260 70.6786
" />
<path d="M190.0260 70.6786
L189.8355 70.6310
" />
<path d="M189.8355 70.6310
L189.7403 70.5834
" />
<path d="M189.7403 70.5834
L189.6927 70.5358
" />
<path d="M189.6927 70.5358
L189.6451 70.4405
" />
<path d="M189.6451 70.4405
L189.6451 70.3453
" />
<path d="M189.6451 70.3453
L189.6927 70.2501
" />
<path d="M189.6927 70.2501
L189.7403 70.2024
" />
<path d="M189.7403 70.2024
L189.8355 70.1548
" />
<path d="M189.8355 70.1548
L190.0736 70.1548
" />
<path d="M190.0736 70.1548
L190.2165 70.2024
" />
<path d="M190.6451 70.4882
L190.6451 71.4882
" />
<path d="M190.6451 70.5358
L190.7403 70.4882
" />
<path d="M190.7403 70.4882
L190.9308 70.4882
" />
<path d="M190.9308 70.4882
L191.0260 70.5358
" />
<path d="M191.0260 70.5358
L191.0736 70.5834
" />
<path d="M191.0736 70.5834
L191.1212 70.6786
" />
<path d="M191.1212 70.6786
L191.1212 70.9643
" />
<path d="M191.1212 70.9643
L191.0736 71.0596
" />
<path d="M191.0736 71.0596
L191.0260 71.1072
" />
<path d="M191.0260 71.1072
L190.9308 71.1548
" />
<path d="M190.9308 71.1548
L190.7403 71.1548
" />
<path d="M190.7403 71.1548
L190.6451 71.1072
" />
<path d="M191.9784 71.1548
L191.9784 70.6310
" />
<path d="M191.9784 70.6310
L191.9308 70.5358
" />
<path d="M191.9308 70.5358
L191.8355 70.4882
" />
<path d="M191.8355 70.4882
L191.6451 70.4882
" />
<path d="M191.6451 70.4882
L191.5498 70.5358
" />
<path d="M191.9784 71.1072
L191.8832 71.1548
" />
<path d="M191.8832 71.1548
L191.6451 71.1548
" />
<path d="M191.6451 71.1548
L191.5498 71.1072
" />
<path d="M191.5498 71.1072
L191.5022 71.0120
" />
<path d="M191.5022 71.0120
L191.5022 70.9167
" />
<path d="M191.5022 70.9167
L191.5498 70.8215
" />
<path d="M191.5498 70.8215
L191.6451 70.7739
" />
<path d="M191.6451 70.7739
L191.8832 70.7739
" />
<path d="M191.8832 70.7739
L191.9784 70.7262
" />
<path d="M192.8832 71.1072
L192.7879 71.1548
" />
<path d="M192.7879 71.1548
L192.5974 71.1548
" />
<path d="M192.5974 71.1548
L192.5022 71.1072
" />
<path d="M192.5022 71.1072
L192.4546 71.0596
" />
<path d="M192.4546 71.0596
L192.4070 70.9643
" />
<path d="M192.4070 70.9643
L192.4070 70.6786
" />
<path d="M192.4070 70.6786
L192.4546 70.5834
" />
<path d="M192.4546 70.5834
L192.5022 70.5358
" />
<path d="M192.5022 70.5358
L192.5974 70.4882
" />
<path d="M192.5974 70.4882
L192.7879 70.4882
" />
<path d="M192.7879 70.4882
L192.8832 70.5358
" />
<path d="M193.6927 71.1072
L193.5974 71.1548
" />
<path d="M193.5974 71.1548
L193.4070 71.1548
" />
<path d="M193.4070 71.1548
L193.3117 71.1072
" />
<path d="M193.3117 71.1072
L193.2641 71.0120
" />
<path d="M193.2641 71.0120
L193.2641 70.6310
" />
<path d="M193.2641 70.6310
L193.3117 70.5358
" />
<path d="M193.3117 70.5358
L193.4070 70.4882
" />
<path d="M193.4070 70.4882
L193.5974 70.4882
" />
<path d="M193.5974 70.4882
L193.6927 70.5358
" />
<path d="M193.6927 70.5358
L193.7403 70.6310
" />
<path d="M193.7403 70.6310
L193.7403 70.7262
" />
<path d="M193.7403 70.7262
L193.2641 70.8215
" />
<path d="M194.1689 71.1548
L194.1689 70.4882
" />
<path d="M194.1689 70.6786
L194.2165 70.5834
" />
<path d="M194.2165 70.5834
L194.2641 70.5358
" />
<path d="M194.2641 70.5358
L194.3593 70.4882
" />
<path d="M194.3593 70.4882
L194.4546 70.4882
" />
</g><text x="192.0022" y="67.5000"
transform="scale(-1 1) translate(-384.004400 0)"
textLength="2.2500" font-size="1.3333" lengthAdjust="spacingAndGlyphs"
text-anchor="middle" opacity="0">H9</text>
<g class="stroked-text"><desc>H9</desc>
<path d="M191.2403 67.4548
L191.2403 66.4548
" />
<path d="M191.2403 66.9310
L191.8117 66.9310
" />
<path d="M191.8117 67.4548
L191.8117 66.4548
" />
<path d="M192.3355 67.4548
L192.5260 67.4548
" />
<path d="M192.5260 67.4548
L192.6212 67.4072
" />
<path d="M192.6212 67.4072
L192.6689 67.3596
" />
<path d="M192.6689 67.3596
L192.7641 67.2167
" />
<path d="M192.7641 67.2167
L192.8117 67.0262
" />
<path d="M192.8117 67.0262
L192.8117 66.6453
" />
<path d="M192.8117 66.6453
L192.7641 66.5501
" />
<path d="M192.7641 66.5501
L192.7165 66.5024
" />
<path d="M192.7165 66.5024
L192.6212 66.4548
" />
<path d="M192.6212 66.4548
L192.4308 66.4548
" />
<path d="M192.4308 66.4548
L192.3355 66.5024
" />
<path d="M192.3355 66.5024
L192.2879 66.5501
" />
<path d="M192.2879 66.5501
L192.2403 66.6453
" />
<path d="M192.2403 66.6453
L192.2403 66.8834
" />
<path d="M192.2403 66.8834
L192.2879 66.9786
" />
<path d="M192.2879 66.9786
L192.3355 67.0262
" />
<path d="M192.3355 67.0262
L192.4308 67.0739
" />
<path d="M192.4308 67.0739
L192.6212 67.0739
" />
<path d="M192.6212 67.0739
L192.7165 67.0262
" />
<path d="M192.7165 67.0262
L192.7641 66.9786
" />
<path d="M192.7641 66.9786
L192.8117 66.8834
" />
</g><text x="267.0022" y="71.2000"
transform="scale(-1 1) translate(-534.004400 0)"
textLength="5.3452" font-size="1.3333" lengthAdjust="spacingAndGlyphs"
text-anchor="middle" opacity="0">Spacer</text>
<g class="stroked-text"><desc>Spacer</desc>
<path d="M264.6451 71.1072
L264.7879 71.1548
" />
<path d="M264.7879 71.1548
L265.0260 71.1548
" />
<path d="M265.0260 71.1548
L265.1212 71.1072
" />
<path d="M265.1212 71.1072
L265.1689 71.0596
" />
<path d="M265.1689 71.0596
L265.2165 70.9643
" />
<path d="M265.2165 70.9643
L265.2165 70.8691
" />
<path d="M265.2165 70.8691
L265.1689 70.7739
" />
<path d="M265.1689 70.7739
L265.1212 70.7262
" />
<path d="M265.1212 70.7262
L265.0260 70.6786
" />
<path d="M265.0260 70.6786
L264.8355 70.6310
" />
<path d="M264.8355 70.6310
L264.7403 70.5834
" />
<path d="M264.7403 70.5834
L264.6927 70.5358
" />
<path d="M264.6927 70.5358
L264.6451 70.4405
" />
<path d="M264.6451 70.4405
L264.6451 70.3453
" />
<path d="M264.6451 70.3453
L264.6927 70.2501
" />
<path d="M264.6927 70.2501
L264.7403 70.2024
" />
<path d="M264.7403 70.2024
L264.8355 70.1548
" />
<path d="M264.8355 70.1548
L265.0736 70.1548
" />
<path d="M265.0736 70.1548
L265.2165 70.2024
" />
<path d="M265.6451 70.4882
L265.6451 71.4882
" />
<path d="M265.6451 70.5358
L265.7403 70.4882
" />
<path d="M265.7403 70.4882
L265.9308 70.4882
" />
<path d="M265.9308 70.4882
L266.0260 70.5358
" />
<path d="M266.0260 70.5358
L266.0736 70.5834
" />
<path d="M266.0736 70.5834
L266.1212 70.6786
" />
<path d="M266.1212 70.6786
L266.1212 70.9643
" />
<path d="M266.1212 70.9643
L266.0736 71.0596
" />
<path d="M266.0736 71.0596
L266.0260 71.1072
" />
<path d="M266.0260 71.1072
L265.9308 71.1548
" />
<path d="M265.9308 71.1548
L265.7403 71.1548
" />
<path d="M265.7403 71.1548
L265.6451 71.1072
" />
<path d="M266.9784 71.1548
L266.9784 70.6310
" />
<path d="M266.9784 70.6310
L266.9308 70.5358
" />
<path d="M266.9308 70.5358
L266.8355 70.4882
" />
<path d="M266.8355 70.4882
L266.6451 70.4882
" />
<path d="M266.6451 70.4882
L266.5498 70.5358
" />
<path d="M266.9784 71.1072
L266.8832 71.1548
" />
<path d="M266.8832 71.1548
L266.6451 71.1548
" />
<path d="M266.6451 71.1548
L266.5498 71.1072
" />
<path d="M266.5498 71.1072
L266.5022 71.0120
" />
<path d="M266.5022 71.0120
L266.5022 70.9167
" />
<path d="M266.5022 70.9167
L266.5498 70.8215
" />
<path d="M266.5498 70.8215
L266.6451 70.7739
" />
<path d="M266.6451 70.7739
L266.8832 70.7739
" />
<path d="M266.8832 70.7739
L266.9784 70.7262
" />
<path d="M267.8832 71.1072
L267.7879 71.1548
" />
<path d="M267.7879 71.1548
L267.5974 71.1548
" />
<path d="M267.5974 71.1548
L267.5022 71.1072
" />
<path d="M267.5022 71.1072
L267.4546 71.0596
" />
<path d="M267.4546 71.0596
L267.4070 70.9643
" />
<path d="M267.4070 70.9643
L267.4070 70.6786
" />
<path d="M267.4070 70.6786
L267.4546 70.5834
" />
<path d="M267.4546 70.5834
L267.5022 70.5358
" />
<path d="M267.5022 70.5358
L267.5974 70.4882
" />
<path d="M267.5974 70.4882
L267.7879 70.4882
" />
<path d="M267.7879 70.4882
L267.8832 70.5358
" />
<path d="M268.6927 71.1072
L268.5974 71.1548
" />
<path d="M268.5974 71.1548
L268.4070 71.1548
" />
<path d="M268.4070 71.1548
L268.3117 71.1072
" />
<path d="M268.3117 71.1072
L268.2641 71.0120
" />
<path d="M268.2641 71.0120
L268.2641 70.6310
" />
<path d="M268.2641 70.6310
L268.3117 70.5358
" />
<path d="M268.3117 70.5358
L268.4070 70.4882
" />
<path d="M268.4070 70.4882
L268.5974 70.4882
" />
<path d="M268.5974 70.4882
L268.6927 70.5358
" />
<path d="M268.6927 70.5358
L268.7403 70.6310
" />
<path d="M268.7403 70.6310
L268.7403 70.7262
" />
<path d="M268.7403 70.7262
L268.2641 70.8215
" />
<path d="M269.1689 71.1548
L269.1689 70.4882
" />
<path d="M269.1689 70.6786
L269.2165 70.5834
" />
<path d="M269.2165 70.5834
L269.2641 70.5358
" />
<path d="M269.2641 70.5358
L269.3593 70.4882
" />
<path d="M269.3593 70.4882
L269.4546 70.4882
" />
</g><text x="267.0022" y="67.5000"
transform="scale(-1 1) translate(-534.004400 0)"
textLength="3.2024" font-size="1.3333" lengthAdjust="spacingAndGlyphs"
text-anchor="middle" opacity="0">H10</text>
<g class="stroked-text"><desc>H10</desc>
<path d="M265.7641 67.4548
L265.7641 66.4548
" />
<path d="M265.7641 66.9310
L266.3355 66.9310
" />
<path d="M266.3355 67.4548
L266.3355 66.4548
" />
<path d="M267.3355 67.4548
L266.7641 67.4548
" />
<path d="M267.0498 67.4548
L267.0498 66.4548
" />
<path d="M267.0498 66.4548
L266.9546 66.5977
" />
<path d="M266.9546 66.5977
L266.8593 66.6929
" />
<path d="M266.8593 66.6929
L266.7641 66.7405
" />
<path d="M267.9546 66.4548
L268.0498 66.4548
" />
<path d="M268.0498 66.4548
L268.1451 66.5024
" />
<path d="M268.1451 66.5024
L268.1927 66.5501
" />
<path d="M268.1927 66.5501
L268.2403 66.6453
" />
<path d="M268.2403 66.6453
L268.2879 66.8358
" />
<path d="M268.2879 66.8358
L268.2879 67.0739
" />
<path d="M268.2879 67.0739
L268.2403 67.2643
" />
<path d="M268.2403 67.2643
L268.1927 67.3596
" />
<path d="M268.1927 67.3596
L268.1451 67.4072
" />
<path d="M268.1451 67.4072
L268.0498 67.4548
" />
<path d="M268.0498 67.4548
L267.9546 67.4548
" />
<path d="M267.9546 67.4548
L267.8593 67.4072
" />
<path d="M267.8593 67.4072
L267.8117 67.3596
" />
<path d="M267.8117 67.3596
L267.7641 67.2643
" />
<path d="M267.7641 67.2643
L267.7165 67.0739
" />
<path d="M267.7165 67.0739
L267.7165 66.8358
" />
<path d="M267.7165 66.8358
L267.7641 66.6453
" />
<path d="M267.7641 66.6453
L267.8117 66.5501
" />
<path d="M267.8117 66.5501
L267.8593 66.5024
" />
<path d="M267.8593 66.5024
L267.9546 66.4548
" />
</g><text x="117.0022" y="71.2000"
transform="scale(-1 1) translate(-234.004400 0)"
textLength="5.3452" font-size="1.3333" lengthAdjust="spacingAndGlyphs"
text-anchor="middle" opacity="0">Spacer</text>
<g class="stroked-text"><desc>Spacer</desc>
<path d="M114.6451 71.1072
L114.7879 71.1548
" />
<path d="M114.7879 71.1548
L115.0260 71.1548
" />
<path d="M115.0260 71.1548
L115.1212 71.1072
" />
<path d="M115.1212 71.1072
L115.1689 71.0596
" />
<path d="M115.1689 71.0596
L115.2165 70.9643
" />
<path d="M115.2165 70.9643
L115.2165 70.8691
" />
<path d="M115.2165 70.8691
L115.1689 70.7739
" />
<path d="M115.1689 70.7739
L115.1212 70.7262
" />
<path d="M115.1212 70.7262
L115.0260 70.6786
" />
<path d="M115.0260 70.6786
L114.8355 70.6310
" />
<path d="M114.8355 70.6310
L114.7403 70.5834
" />
<path d="M114.7403 70.5834
L114.6927 70.5358
" />
<path d="M114.6927 70.5358
L114.6451 70.4405
" />
<path d="M114.6451 70.4405
L114.6451 70.3453
" />
<path d="M114.6451 70.3453
L114.6927 70.2501
" />
<path d="M114.6927 70.2501
L114.7403 70.2024
" />
<path d="M114.7403 70.2024
L114.8355 70.1548
" />
<path d="M114.8355 70.1548
L115.0736 70.1548
" />
<path d="M115.0736 70.1548
L115.2165 70.2024
" />
<path d="M115.6451 70.4882
L115.6451 71.4882
" />
<path d="M115.6451 70.5358
L115.7403 70.4882
" />
<path d="M115.7403 70.4882
L115.9308 70.4882
" />
<path d="M115.9308 70.4882
L116.0260 70.5358
" />
<path d="M116.0260 70.5358
L116.0736 70.5834
" />
<path d="M116.0736 70.5834
L116.1212 70.6786
" />
<path d="M116.1212 70.6786
L116.1212 70.9643
" />
<path d="M116.1212 70.9643
L116.0736 71.0596
" />
<path d="M116.0736 71.0596
L116.0260 71.1072
" />
<path d="M116.0260 71.1072
L115.9308 71.1548
" />
<path d="M115.9308 71.1548
L115.7403 71.1548
" />
<path d="M115.7403 71.1548
L115.6451 71.1072
" />
<path d="M116.9784 71.1548
L116.9784 70.6310
" />
<path d="M116.9784 70.6310
L116.9308 70.5358
" />
<path d="M116.9308 70.5358
L116.8355 70.4882
" />
<path d="M116.8355 70.4882
L116.6451 70.4882
" />
<path d="M116.6451 70.4882
L116.5498 70.5358
" />
<path d="M116.9784 71.1072
L116.8832 71.1548
" />
<path d="M116.8832 71.1548
L116.6451 71.1548
" />
<path d="M116.6451 71.1548
L116.5498 71.1072
" />
<path d="M116.5498 71.1072
L116.5022 71.0120
" />
<path d="M116.5022 71.0120
L116.5022 70.9167
" />
<path d="M116.5022 70.9167
L116.5498 70.8215
" />
<path d="M116.5498 70.8215
L116.6451 70.7739
" />
<path d="M116.6451 70.7739
L116.8832 70.7739
" />
<path d="M116.8832 70.7739
L116.9784 70.7262
" />
<path d="M117.8832 71.1072
L117.7879 71.1548
" />
<path d="M117.7879 71.1548
L117.5974 71.1548
" />
<path d="M117.5974 71.1548
L117.5022 71.1072
" />
<path d="M117.5022 71.1072
L117.4546 71.0596
" />
<path d="M117.4546 71.0596
L117.4070 70.9643
" />
<path d="M117.4070 70.9643
L117.4070 70.6786
" />
<path d="M117.4070 70.6786
L117.4546 70.5834
" />
<path d="M117.4546 70.5834
L117.5022 70.5358
" />
<path d="M117.5022 70.5358
L117.5974 70.4882
" />
<path d="M117.5974 70.4882
L117.7879 70.4882
" />
<path d="M117.7879 70.4882
L117.8832 70.5358
" />
<path d="M118.6927 71.1072
L118.5974 71.1548
" />
<path d="M118.5974 71.1548
L118.4070 71.1548
" />
<path d="M118.4070 71.1548
L118.3117 71.1072
" />
<path d="M118.3117 71.1072
L118.2641 71.0120
" />
<path d="M118.2641 71.0120
L118.2641 70.6310
" />
<path d="M118.2641 70.6310
L118.3117 70.5358
" />
<path d="M118.3117 70.5358
L118.4070 70.4882
" />
<path d="M118.4070 70.4882
L118.5974 70.4882
" />
<path d="M118.5974 70.4882
L118.6927 70.5358
" />
<path d="M118.6927 70.5358
L118.7403 70.6310
" />
<path d="M118.7403 70.6310
L118.7403 70.7262
" />
<path d="M118.7403 70.7262
L118.2641 70.8215
" />
<path d="M119.1689 71.1548
L119.1689 70.4882
" />
<path d="M119.1689 70.6786
L119.2165 70.5834
" />
<path d="M119.2165 70.5834
L119.2641 70.5358
" />
<path d="M119.2641 70.5358
L119.3593 70.4882
" />
<path d="M119.3593 70.4882
L119.4546 70.4882
" />
</g><text x="117.0022" y="67.5000"
transform="scale(-1 1) translate(-234.004400 0)"
textLength="2.2500" font-size="1.3333" lengthAdjust="spacingAndGlyphs"
text-anchor="middle" opacity="0">H8</text>
<g class="stroked-text"><desc>H8</desc>
<path d="M116.2403 67.4548
L116.2403 66.4548
" />
<path d="M116.2403 66.9310
L116.8117 66.9310
" />
<path d="M116.8117 67.4548
L116.8117 66.4548
" />
<path d="M117.4308 66.8834
L117.3355 66.8358
" />
<path d="M117.3355 66.8358
L117.2879 66.7882
" />
<path d="M117.2879 66.7882
L117.2403 66.6929
" />
<path d="M117.2403 66.6929
L117.2403 66.6453
" />
<path d="M117.2403 66.6453
L117.2879 66.5501
" />
<path d="M117.2879 66.5501
L117.3355 66.5024
" />
<path d="M117.3355 66.5024
L117.4308 66.4548
" />
<path d="M117.4308 66.4548
L117.6212 66.4548
" />
<path d="M117.6212 66.4548
L117.7165 66.5024
" />
<path d="M117.7165 66.5024
L117.7641 66.5501
" />
<path d="M117.7641 66.5501
L117.8117 66.6453
" />
<path d="M117.8117 66.6453
L117.8117 66.6929
" />
<path d="M117.8117 66.6929
L117.7641 66.7882
" />
<path d="M117.7641 66.7882
L117.7165 66.8358
" />
<path d="M117.7165 66.8358
L117.6212 66.8834
" />
<path d="M117.6212 66.8834
L117.4308 66.8834
" />
<path d="M117.4308 66.8834
L117.3355 66.9310
" />
<path d="M117.3355 66.9310
L117.2879 66.9786
" />
<path d="M117.2879 66.9786
L117.2403 67.0739
" />
<path d="M117.2403 67.0739
L117.2403 67.2643
" />
<path d="M117.2403 67.2643
L117.2879 67.3596
" />
<path d="M117.2879 67.3596
L117.3355 67.4072
" />
<path d="M117.3355 67.4072
L117.4308 67.4548
" />
<path d="M117.4308 67.4548
L117.6212 67.4548
" />
<path d="M117.6212 67.4548
L117.7165 67.4072
" />
<path d="M117.7165 67.4072
L117.7641 67.3596
" />
<path d="M117.7641 67.3596
L117.8117 67.2643
" />
<path d="M117.8117 67.2643
L117.8117 67.0739
" />
<path d="M117.8117 67.0739
L117.7641 66.9786
" />
<path d="M117.7641 66.9786
L117.7165 66.9310
" />
<path d="M117.7165 66.9310
L117.6212 66.8834
" />
</g><text x="192.0022" y="123.2000"
transform="scale(-1 1) translate(-384.004400 0)"
textLength="5.3452" font-size="1.3333" lengthAdjust="spacingAndGlyphs"
text-anchor="middle" opacity="0">Spacer</text>
<g class="stroked-text"><desc>Spacer</desc>
<path d="M189.6451 123.1072
L189.7879 123.1548
" />
<path d="M189.7879 123.1548
L190.0260 123.1548
" />
<path d="M190.0260 123.1548
L190.1212 123.1072
" />
<path d="M190.1212 123.1072
L190.1689 123.0596
" />
<path d="M190.1689 123.0596
L190.2165 122.9643
" />
<path d="M190.2165 122.9643
L190.2165 122.8691
" />
<path d="M190.2165 122.8691
L190.1689 122.7739
" />
<path d="M190.1689 122.7739
L190.1212 122.7262
" />
<path d="M190.1212 122.7262
L190.0260 122.6786
" />
<path d="M190.0260 122.6786
L189.8355 122.6310
" />
<path d="M189.8355 122.6310
L189.7403 122.5834
" />
<path d="M189.7403 122.5834
L189.6927 122.5358
" />
<path d="M189.6927 122.5358
L189.6451 122.4405
" />
<path d="M189.6451 122.4405
L189.6451 122.3453
" />
<path d="M189.6451 122.3453
L189.6927 122.2501
" />
<path d="M189.6927 122.2501
L189.7403 122.2024
" />
<path d="M189.7403 122.2024
L189.8355 122.1548
" />
<path d="M189.8355 122.1548
L190.0736 122.1548
" />
<path d="M190.0736 122.1548
L190.2165 122.2024
" />
<path d="M190.6451 122.4882
L190.6451 123.4882
" />
<path d="M190.6451 122.5358
L190.7403 122.4882
" />
<path d="M190.7403 122.4882
L190.9308 122.4882
" />
<path d="M190.9308 122.4882
L191.0260 122.5358
" />
<path d="M191.0260 122.5358
L191.0736 122.5834
" />
<path d="M191.0736 122.5834
L191.1212 122.6786
" />
<path d="M191.1212 122.6786
L191.1212 122.9643
" />
<path d="M191.1212 122.9643
L191.0736 123.0596
" />
<path d="M191.0736 123.0596
L191.0260 123.1072
" />
<path d="M191.0260 123.1072
L190.9308 123.1548
" />
<path d="M190.9308 123.1548
L190.7403 123.1548
" />
<path d="M190.7403 123.1548
L190.6451 123.1072
" />
<path d="M191.9784 123.1548
L191.9784 122.6310
" />
<path d="M191.9784 122.6310
L191.9308 122.5358
" />
<path d="M191.9308 122.5358
L191.8355 122.4882
" />
<path d="M191.8355 122.4882
L191.6451 122.4882
" />
<path d="M191.6451 122.4882
L191.5498 122.5358
" />
<path d="M191.9784 123.1072
L191.8832 123.1548
" />
<path d="M191.8832 123.1548
L191.6451 123.1548
" />
<path d="M191.6451 123.1548
L191.5498 123.1072
" />
<path d="M191.5498 123.1072
L191.5022 123.0120
" />
<path d="M191.5022 123.0120
L191.5022 122.9167
" />
<path d="M191.5022 122.9167
L191.5498 122.8215
" />
<path d="M191.5498 122.8215
L191.6451 122.7739
" />
<path d="M191.6451 122.7739
L191.8832 122.7739
" />
<path d="M191.8832 122.7739
L191.9784 122.7262
" />
<path d="M192.8832 123.1072
L192.7879 123.1548
" />
<path d="M192.7879 123.1548
L192.5974 123.1548
" />
<path d="M192.5974 123.1548
L192.5022 123.1072
" />
<path d="M192.5022 123.1072
L192.4546 123.0596
" />
<path d="M192.4546 123.0596
L192.4070 122.9643
" />
<path d="M192.4070 122.9643
L192.4070 122.6786
" />
<path d="M192.4070 122.6786
L192.4546 122.5834
" />
<path d="M192.4546 122.5834
L192.5022 122.5358
" />
<path d="M192.5022 122.5358
L192.5974 122.4882
" />
<path d="M192.5974 122.4882
L192.7879 122.4882
" />
<path d="M192.7879 122.4882
L192.8832 122.5358
" />
<path d="M193.6927 123.1072
L193.5974 123.1548
" />
<path d="M193.5974 123.1548
L193.4070 123.1548
" />
<path d="M193.4070 123.1548
L193.3117 123.1072
" />
<path d="M193.3117 123.1072
L193.2641 123.0120
" />
<path d="M193.2641 123.0120
L193.2641 122.6310
" />
<path d="M193.2641 122.6310
L193.3117 122.5358
" />
<path d="M193.3117 122.5358
L193.4070 122.4882
" />
<path d="M193.4070 122.4882
L193.5974 122.4882
" />
<path d="M193.5974 122.4882
L193.6927 122.5358
" />
<path d="M193.6927 122.5358
L193.7403 122.6310
" />
<path d="M193.7403 122.6310
L193.7403 122.7262
" />
<path d="M193.7403 122.7262
L193.2641 122.8215
" />
<path d="M194.1689 123.1548
L194.1689 122.4882
" />
<path d="M194.1689 122.6786
L194.2165 122.5834
" />
<path d="M194.2165 122.5834
L194.2641 122.5358
" />
<path d="M194.2641 122.5358
L194.3593 122.4882
" />
<path d="M194.3593 122.4882
L194.4546 122.4882
" />
</g><text x="192.0022" y="119.5000"
transform="scale(-1 1) translate(-384.004400 0)"
textLength="3.2024" font-size="1.3333" lengthAdjust="spacingAndGlyphs"
text-anchor="middle" opacity="0">H12</text>
<g class="stroked-text"><desc>H12</desc>
<path d="M190.7641 119.4548
L190.7641 118.4548
" />
<path d="M190.7641 118.9310
L191.3355 118.9310
" />
<path d="M191.3355 119.4548
L191.3355 118.4548
" />
<path d="M192.3355 119.4548
L191.7641 119.4548
" />
<path d="M192.0498 119.4548
L192.0498 118.4548
" />
<path d="M192.0498 118.4548
L191.9546 118.5977
" />
<path d="M191.9546 118.5977
L191.8593 118.6929
" />
<path d="M191.8593 118.6929
L191.7641 118.7405
" />
<path d="M192.7165 118.5501
L192.7641 118.5024
" />
<path d="M192.7641 118.5024
L192.8593 118.4548
" />
<path d="M192.8593 118.4548
L193.0974 118.4548
" />
<path d="M193.0974 118.4548
L193.1927 118.5024
" />
<path d="M193.1927 118.5024
L193.2403 118.5501
" />
<path d="M193.2403 118.5501
L193.2879 118.6453
" />
<path d="M193.2879 118.6453
L193.2879 118.7405
" />
<path d="M193.2879 118.7405
L193.2403 118.8834
" />
<path d="M193.2403 118.8834
L192.6689 119.4548
" />
<path d="M192.6689 119.4548
L193.2879 119.4548
" />
</g><text x="222.0422" y="19.9900"
transform="scale(-1 1) translate(-444.084400 0)"
textLength="7.2500" font-size="1.3333" lengthAdjust="spacingAndGlyphs"
text-anchor="middle" opacity="0">JST PH 3</text>
<g class="stroked-text"><desc>JST PH 3</desc>
<path d="M219.0660 18.9448
L219.0660 19.6591
" />
<path d="M219.0660 19.6591
L219.0184 19.8020
" />
<path d="M219.0184 19.8020
L218.9232 19.8972
" />
<path d="M218.9232 19.8972
L218.7803 19.9448
" />
<path d="M218.7803 19.9448
L218.6851 19.9448
" />
<path d="M219.4946 19.8972
L219.6374 19.9448
" />
<path d="M219.6374 19.9448
L219.8755 19.9448
" />
<path d="M219.8755 19.9448
L219.9708 19.8972
" />
<path d="M219.9708 19.8972
L220.0184 19.8496
" />
<path d="M220.0184 19.8496
L220.0660 19.7543
" />
<path d="M220.0660 19.7543
L220.0660 19.6591
" />
<path d="M220.0660 19.6591
L220.0184 19.5639
" />
<path d="M220.0184 19.5639
L219.9708 19.5162
" />
<path d="M219.9708 19.5162
L219.8755 19.4686
" />
<path d="M219.8755 19.4686
L219.6851 19.4210
" />
<path d="M219.6851 19.4210
L219.5898 19.3734
" />
<path d="M219.5898 19.3734
L219.5422 19.3258
" />
<path d="M219.5422 19.3258
L219.4946 19.2305
" />
<path d="M219.4946 19.2305
L219.4946 19.1353
" />
<path d="M219.4946 19.1353
L219.5422 19.0401
" />
<path d="M219.5422 19.0401
L219.5898 18.9924
" />
<path d="M219.5898 18.9924
L219.6851 18.9448
" />
<path d="M219.6851 18.9448
L219.9232 18.9448
" />
<path d="M219.9232 18.9448
L220.0660 18.9924
" />
<path d="M220.3517 18.9448
L220.9232 18.9448
" />
<path d="M220.6374 19.9448
L220.6374 18.9448
" />
<path d="M222.0184 19.9448
L222.0184 18.9448
" />
<path d="M222.0184 18.9448
L222.3993 18.9448
" />
<path d="M222.3993 18.9448
L222.4946 18.9924
" />
<path d="M222.4946 18.9924
L222.5422 19.0401
" />
<path d="M222.5422 19.0401
L222.5898 19.1353
" />
<path d="M222.5898 19.1353
L222.5898 19.2782
" />
<path d="M222.5898 19.2782
L222.5422 19.3734
" />
<path d="M222.5422 19.3734
L222.4946 19.4210
" />
<path d="M222.4946 19.4210
L222.3993 19.4686
" />
<path d="M222.3993 19.4686
L222.0184 19.4686
" />
<path d="M223.0184 19.9448
L223.0184 18.9448
" />
<path d="M223.0184 19.4210
L223.5898 19.4210
" />
<path d="M223.5898 19.9448
L223.5898 18.9448
" />
<path d="M224.7327 18.9448
L225.3517 18.9448
" />
<path d="M225.3517 18.9448
L225.0184 19.3258
" />
<path d="M225.0184 19.3258
L225.1612 19.3258
" />
<path d="M225.1612 19.3258
L225.2565 19.3734
" />
<path d="M225.2565 19.3734
L225.3041 19.4210
" />
<path d="M225.3041 19.4210
L225.3517 19.5162
" />
<path d="M225.3517 19.5162
L225.3517 19.7543
" />
<path d="M225.3517 19.7543
L225.3041 19.8496
" />
<path d="M225.3041 19.8496
L225.2565 19.8972
" />
<path d="M225.2565 19.8972
L225.1612 19.9448
" />
<path d="M225.1612 19.9448
L224.8755 19.9448
" />
<path d="M224.8755 19.9448
L224.7803 19.8972
" />
<path d="M224.7803 19.8972
L224.7327 19.8496
" />
</g><text x="222.0422" y="22.4900"
transform="scale(-1 1) translate(-444.084400 0)"
textLength="2.9167" font-size="1.3333" lengthAdjust="spacingAndGlyphs"
text-anchor="middle" opacity="0">J25</text>
<g class="stroked-text"><desc>J25</desc>
<path d="M221.2327 21.4448
L221.2327 22.1591
" />
<path d="M221.2327 22.1591
L221.1851 22.3020
" />
<path d="M221.1851 22.3020
L221.0898 22.3972
" />
<path d="M221.0898 22.3972
L220.9470 22.4448
" />
<path d="M220.9470 22.4448
L220.8517 22.4448
" />
<path d="M221.6612 21.5401
L221.7089 21.4924
" />
<path d="M221.7089 21.4924
L221.8041 21.4448
" />
<path d="M221.8041 21.4448
L222.0422 21.4448
" />
<path d="M222.0422 21.4448
L222.1374 21.4924
" />
<path d="M222.1374 21.4924
L222.1851 21.5401
" />
<path d="M222.1851 21.5401
L222.2327 21.6353
" />
<path d="M222.2327 21.6353
L222.2327 21.7305
" />
<path d="M222.2327 21.7305
L222.1851 21.8734
" />
<path d="M222.1851 21.8734
L221.6136 22.4448
" />
<path d="M221.6136 22.4448
L222.2327 22.4448
" />
<path d="M223.1374 21.4448
L222.6612 21.4448
" />
<path d="M222.6612 21.4448
L222.6136 21.9210
" />
<path d="M222.6136 21.9210
L222.6612 21.8734
" />
<path d="M222.6612 21.8734
L222.7565 21.8258
" />
<path d="M222.7565 21.8258
L222.9946 21.8258
" />
<path d="M222.9946 21.8258
L223.0898 21.8734
" />
<path d="M223.0898 21.8734
L223.1374 21.9210
" />
<path d="M223.1374 21.9210
L223.1851 22.0162
" />
<path d="M223.1851 22.0162
L223.1851 22.2543
" />
<path d="M223.1851 22.2543
L223.1374 22.3496
" />
<path d="M223.1374 22.3496
L223.0898 22.3972
" />
<path d="M223.0898 22.3972
L222.9946 22.4448
" />
<path d="M222.9946 22.4448
L222.7565 22.4448
" />
<path d="M222.7565 22.4448
L222.6612 22.3972
" />
<path d="M222.6612 22.3972
L222.6136 22.3496
" />
</g><text x="252.2422" y="132.3300"
transform="scale(-1 1) translate(-504.484400 0)"
textLength="7.2500" font-size="1.3333" lengthAdjust="spacingAndGlyphs"
text-anchor="middle" opacity="0">JST PH 3</text>
<g class="stroked-text"><desc>JST PH 3</desc>
<path d="M249.2660 131.2848
L249.2660 131.9991
" />
<path d="M249.2660 131.9991
L249.2184 132.1420
" />
<path d="M249.2184 132.1420
L249.1232 132.2372
" />
<path d="M249.1232 132.2372
L248.9803 132.2848
" />
<path d="M248.9803 132.2848
L248.8851 132.2848
" />
<path d="M249.6946 132.2372
L249.8374 132.2848
" />
<path d="M249.8374 132.2848
L250.0755 132.2848
" />
<path d="M250.0755 132.2848
L250.1708 132.2372
" />
<path d="M250.1708 132.2372
L250.2184 132.1896
" />
<path d="M250.2184 132.1896
L250.2660 132.0943
" />
<path d="M250.2660 132.0943
L250.2660 131.9991
" />
<path d="M250.2660 131.9991
L250.2184 131.9039
" />
<path d="M250.2184 131.9039
L250.1708 131.8562
" />
<path d="M250.1708 131.8562
L250.0755 131.8086
" />
<path d="M250.0755 131.8086
L249.8851 131.7610
" />
<path d="M249.8851 131.7610
L249.7898 131.7134
" />
<path d="M249.7898 131.7134
L249.7422 131.6658
" />
<path d="M249.7422 131.6658
L249.6946 131.5705
" />
<path d="M249.6946 131.5705
L249.6946 131.4753
" />
<path d="M249.6946 131.4753
L249.7422 131.3801
" />
<path d="M249.7422 131.3801
L249.7898 131.3324
" />
<path d="M249.7898 131.3324
L249.8851 131.2848
" />
<path d="M249.8851 131.2848
L250.1232 131.2848
" />
<path d="M250.1232 131.2848
L250.2660 131.3324
" />
<path d="M250.5517 131.2848
L251.1232 131.2848
" />
<path d="M250.8374 132.2848
L250.8374 131.2848
" />
<path d="M252.2184 132.2848
L252.2184 131.2848
" />
<path d="M252.2184 131.2848
L252.5993 131.2848
" />
<path d="M252.5993 131.2848
L252.6946 131.3324
" />
<path d="M252.6946 131.3324
L252.7422 131.3801
" />
<path d="M252.7422 131.3801
L252.7898 131.4753
" />
<path d="M252.7898 131.4753
L252.7898 131.6182
" />
<path d="M252.7898 131.6182
L252.7422 131.7134
" />
<path d="M252.7422 131.7134
L252.6946 131.7610
" />
<path d="M252.6946 131.7610
L252.5993 131.8086
" />
<path d="M252.5993 131.8086
L252.2184 131.8086
" />
<path d="M253.2184 132.2848
L253.2184 131.2848
" />
<path d="M253.2184 131.7610
L253.7898 131.7610
" />
<path d="M253.7898 132.2848
L253.7898 131.2848
" />
<path d="M254.9327 131.2848
L255.5517 131.2848
" />
<path d="M255.5517 131.2848
L255.2184 131.6658
" />
<path d="M255.2184 131.6658
L255.3612 131.6658
" />
<path d="M255.3612 131.6658
L255.4565 131.7134
" />
<path d="M255.4565 131.7134
L255.5041 131.7610
" />
<path d="M255.5041 131.7610
L255.5517 131.8562
" />
<path d="M255.5517 131.8562
L255.5517 132.0943
" />
<path d="M255.5517 132.0943
L255.5041 132.1896
" />
<path d="M255.5041 132.1896
L255.4565 132.2372
" />
<path d="M255.4565 132.2372
L255.3612 132.2848
" />
<path d="M255.3612 132.2848
L255.0755 132.2848
" />
<path d="M255.0755 132.2848
L254.9803 132.2372
" />
<path d="M254.9803 132.2372
L254.9327 132.1896
" />
</g><text x="252.2422" y="129.8300"
transform="scale(-1 1) translate(-504.484400 0)"
textLength="2.9167" font-size="1.3333" lengthAdjust="spacingAndGlyphs"
text-anchor="middle" opacity="0">J28</text>
<g class="stroked-text"><desc>J28</desc>
<path d="M251.4327 128.7848
L251.4327 129.4991
" />
<path d="M251.4327 129.4991
L251.3851 129.6420
" />
<path d="M251.3851 129.6420
L251.2898 129.7372
" />
<path d="M251.2898 129.7372
L251.1470 129.7848
" />
<path d="M251.1470 129.7848
L251.0517 129.7848
" />
<path d="M251.8612 128.8801
L251.9089 128.8324
" />
<path d="M251.9089 128.8324
L252.0041 128.7848
" />
<path d="M252.0041 128.7848
L252.2422 128.7848
" />
<path d="M252.2422 128.7848
L252.3374 128.8324
" />
<path d="M252.3374 128.8324
L252.3851 128.8801
" />
<path d="M252.3851 128.8801
L252.4327 128.9753
" />
<path d="M252.4327 128.9753
L252.4327 129.0705
" />
<path d="M252.4327 129.0705
L252.3851 129.2134
" />
<path d="M252.3851 129.2134
L251.8136 129.7848
" />
<path d="M251.8136 129.7848
L252.4327 129.7848
" />
<path d="M253.0041 129.2134
L252.9089 129.1658
" />
<path d="M252.9089 129.1658
L252.8612 129.1182
" />
<path d="M252.8612 129.1182
L252.8136 129.0229
" />
<path d="M252.8136 129.0229
L252.8136 128.9753
" />
<path d="M252.8136 128.9753
L252.8612 128.8801
" />
<path d="M252.8612 128.8801
L252.9089 128.8324
" />
<path d="M252.9089 128.8324
L253.0041 128.7848
" />
<path d="M253.0041 128.7848
L253.1946 128.7848
" />
<path d="M253.1946 128.7848
L253.2898 128.8324
" />
<path d="M253.2898 128.8324
L253.3374 128.8801
" />
<path d="M253.3374 128.8801
L253.3851 128.9753
" />
<path d="M253.3851 128.9753
L253.3851 129.0229
" />
<path d="M253.3851 129.0229
L253.3374 129.1182
" />
<path d="M253.3374 129.1182
L253.2898 129.1658
" />
<path d="M253.2898 129.1658
L253.1946 129.2134
" />
<path d="M253.1946 129.2134
L253.0041 129.2134
" />
<path d="M253.0041 129.2134
L252.9089 129.2610
" />
<path d="M252.9089 129.2610
L252.8612 129.3086
" />
<path d="M252.8612 129.3086
L252.8136 129.4039
" />
<path d="M252.8136 129.4039
L252.8136 129.5943
" />
<path d="M252.8136 129.5943
L252.8612 129.6896
" />
<path d="M252.8612 129.6896
L252.9089 129.7372
" />
<path d="M252.9089 129.7372
L253.0041 129.7848
" />
<path d="M253.0041 129.7848
L253.1946 129.7848
" />
<path d="M253.1946 129.7848
L253.2898 129.7372
" />
<path d="M253.2898 129.7372
L253.3374 129.6896
" />
<path d="M253.3374 129.6896
L253.3851 129.5943
" />
<path d="M253.3851 129.5943
L253.3851 129.4039
" />
<path d="M253.3851 129.4039
L253.3374 129.3086
" />
<path d="M253.3374 129.3086
L253.2898 129.2610
" />
<path d="M253.2898 129.2610
L253.1946 129.2134
" />
</g><text x="117.0022" y="123.2000"
transform="scale(-1 1) translate(-234.004400 0)"
textLength="5.3452" font-size="1.3333" lengthAdjust="spacingAndGlyphs"
text-anchor="middle" opacity="0">Spacer</text>
<g class="stroked-text"><desc>Spacer</desc>
<path d="M114.6451 123.1072
L114.7879 123.1548
" />
<path d="M114.7879 123.1548
L115.0260 123.1548
" />
<path d="M115.0260 123.1548
L115.1212 123.1072
" />
<path d="M115.1212 123.1072
L115.1689 123.0596
" />
<path d="M115.1689 123.0596
L115.2165 122.9643
" />
<path d="M115.2165 122.9643
L115.2165 122.8691
" />
<path d="M115.2165 122.8691
L115.1689 122.7739
" />
<path d="M115.1689 122.7739
L115.1212 122.7262
" />
<path d="M115.1212 122.7262
L115.0260 122.6786
" />
<path d="M115.0260 122.6786
L114.8355 122.6310
" />
<path d="M114.8355 122.6310
L114.7403 122.5834
" />
<path d="M114.7403 122.5834
L114.6927 122.5358
" />
<path d="M114.6927 122.5358
L114.6451 122.4405
" />
<path d="M114.6451 122.4405
L114.6451 122.3453
" />
<path d="M114.6451 122.3453
L114.6927 122.2501
" />
<path d="M114.6927 122.2501
L114.7403 122.2024
" />
<path d="M114.7403 122.2024
L114.8355 122.1548
" />
<path d="M114.8355 122.1548
L115.0736 122.1548
" />
<path d="M115.0736 122.1548
L115.2165 122.2024
" />
<path d="M115.6451 122.4882
L115.6451 123.4882
" />
<path d="M115.6451 122.5358
L115.7403 122.4882
" />
<path d="M115.7403 122.4882
L115.9308 122.4882
" />
<path d="M115.9308 122.4882
L116.0260 122.5358
" />
<path d="M116.0260 122.5358
L116.0736 122.5834
" />
<path d="M116.0736 122.5834
L116.1212 122.6786
" />
<path d="M116.1212 122.6786
L116.1212 122.9643
" />
<path d="M116.1212 122.9643
L116.0736 123.0596
" />
<path d="M116.0736 123.0596
L116.0260 123.1072
" />
<path d="M116.0260 123.1072
L115.9308 123.1548
" />
<path d="M115.9308 123.1548
L115.7403 123.1548
" />
<path d="M115.7403 123.1548
L115.6451 123.1072
" />
<path d="M116.9784 123.1548
L116.9784 122.6310
" />
<path d="M116.9784 122.6310
L116.9308 122.5358
" />
<path d="M116.9308 122.5358
L116.8355 122.4882
" />
<path d="M116.8355 122.4882
L116.6451 122.4882
" />
<path d="M116.6451 122.4882
L116.5498 122.5358
" />
<path d="M116.9784 123.1072
L116.8832 123.1548
" />
<path d="M116.8832 123.1548
L116.6451 123.1548
" />
<path d="M116.6451 123.1548
L116.5498 123.1072
" />
<path d="M116.5498 123.1072
L116.5022 123.0120
" />
<path d="M116.5022 123.0120
L116.5022 122.9167
" />
<path d="M116.5022 122.9167
L116.5498 122.8215
" />
<path d="M116.5498 122.8215
L116.6451 122.7739
" />
<path d="M116.6451 122.7739
L116.8832 122.7739
" />
<path d="M116.8832 122.7739
L116.9784 122.7262
" />
<path d="M117.8832 123.1072
L117.7879 123.1548
" />
<path d="M117.7879 123.1548
L117.5974 123.1548
" />
<path d="M117.5974 123.1548
L117.5022 123.1072
" />
<path d="M117.5022 123.1072
L117.4546 123.0596
" />
<path d="M117.4546 123.0596
L117.4070 122.9643
" />
<path d="M117.4070 122.9643
L117.4070 122.6786
" />
<path d="M117.4070 122.6786
L117.4546 122.5834
" />
<path d="M117.4546 122.5834
L117.5022 122.5358
" />
<path d="M117.5022 122.5358
L117.5974 122.4882
" />
<path d="M117.5974 122.4882
L117.7879 122.4882
" />
<path d="M117.7879 122.4882
L117.8832 122.5358
" />
<path d="M118.6927 123.1072
L118.5974 123.1548
" />
<path d="M118.5974 123.1548
L118.4070 123.1548
" />
<path d="M118.4070 123.1548
L118.3117 123.1072
" />
<path d="M118.3117 123.1072
L118.2641 123.0120
" />
<path d="M118.2641 123.0120
L118.2641 122.6310
" />
<path d="M118.2641 122.6310
L118.3117 122.5358
" />
<path d="M118.3117 122.5358
L118.4070 122.4882
" />
<path d="M118.4070 122.4882
L118.5974 122.4882
" />
<path d="M118.5974 122.4882
L118.6927 122.5358
" />
<path d="M118.6927 122.5358
L118.7403 122.6310
" />
<path d="M118.7403 122.6310
L118.7403 122.7262
" />
<path d="M118.7403 122.7262
L118.2641 122.8215
" />
<path d="M119.1689 123.1548
L119.1689 122.4882
" />
<path d="M119.1689 122.6786
L119.2165 122.5834
" />
<path d="M119.2165 122.5834
L119.2641 122.5358
" />
<path d="M119.2641 122.5358
L119.3593 122.4882
" />
<path d="M119.3593 122.4882
L119.4546 122.4882
" />
</g><text x="117.0022" y="119.5000"
transform="scale(-1 1) translate(-234.004400 0)"
textLength="3.2024" font-size="1.3333" lengthAdjust="spacingAndGlyphs"
text-anchor="middle" opacity="0">H11</text>
<g class="stroked-text"><desc>H11</desc>
<path d="M115.7641 119.4548
L115.7641 118.4548
" />
<path d="M115.7641 118.9310
L116.3355 118.9310
" />
<path d="M116.3355 119.4548
L116.3355 118.4548
" />
<path d="M117.3355 119.4548
L116.7641 119.4548
" />
<path d="M117.0498 119.4548
L117.0498 118.4548
" />
<path d="M117.0498 118.4548
L116.9546 118.5977
" />
<path d="M116.9546 118.5977
L116.8593 118.6929
" />
<path d="M116.8593 118.6929
L116.7641 118.7405
" />
<path d="M118.2879 119.4548
L117.7165 119.4548
" />
<path d="M118.0022 119.4548
L118.0022 118.4548
" />
<path d="M118.0022 118.4548
L117.9070 118.5977
" />
<path d="M117.9070 118.5977
L117.8117 118.6929
" />
<path d="M117.8117 118.6929
L117.7165 118.7405
" />
</g><g transform="rotate(-90.000000 173.3022 93.7756)">
<text x="173.3022" y="94.2756"
transform="scale(-1 1) translate(-346.604400 0)"
textLength="7.7262" font-size="1.3333" lengthAdjust="spacingAndGlyphs"
text-anchor="middle" opacity="0">HiFi Berry</text>
</g>
<g class="stroked-text"><desc>HiFi Berry</desc>
<path d="M172.8474 90.2756
L173.8474 90.2756
" />
<path d="M173.3712 90.2756
L173.3712 90.8470
" />
<path d="M172.8474 90.8470
L173.8474 90.8470
" />
<path d="M172.8474 91.3232
L173.5140 91.3232
" />
<path d="M173.8474 91.3232
L173.7998 91.2756
" />
<path d="M173.7998 91.2756
L173.7521 91.3232
" />
<path d="M173.7521 91.3232
L173.7998 91.3708
" />
<path d="M173.7998 91.3708
L173.8474 91.3232
" />
<path d="M173.8474 91.3232
L173.7521 91.3232
" />
<path d="M173.3712 92.1327
L173.3712 91.7994
" />
<path d="M172.8474 91.7994
L173.8474 91.7994
" />
<path d="M173.8474 91.7994
L173.8474 92.2756
" />
<path d="M172.8474 92.6566
L173.5140 92.6566
" />
<path d="M173.8474 92.6566
L173.7998 92.6089
" />
<path d="M173.7998 92.6089
L173.7521 92.6566
" />
<path d="M173.7521 92.6566
L173.7998 92.7042
" />
<path d="M173.7998 92.7042
L173.8474 92.6566
" />
<path d="M173.8474 92.6566
L173.7521 92.6566
" />
<path d="M173.3712 94.2280
L173.3236 94.3708
" />
<path d="M173.3236 94.3708
L173.2760 94.4185
" />
<path d="M173.2760 94.4185
L173.1807 94.4661
" />
<path d="M173.1807 94.4661
L173.0379 94.4661
" />
<path d="M173.0379 94.4661
L172.9426 94.4185
" />
<path d="M172.9426 94.4185
L172.8950 94.3708
" />
<path d="M172.8950 94.3708
L172.8474 94.2756
" />
<path d="M172.8474 94.2756
L172.8474 93.8946
" />
<path d="M172.8474 93.8946
L173.8474 93.8946
" />
<path d="M173.8474 93.8946
L173.8474 94.2280
" />
<path d="M173.8474 94.2280
L173.7998 94.3232
" />
<path d="M173.7998 94.3232
L173.7521 94.3708
" />
<path d="M173.7521 94.3708
L173.6569 94.4185
" />
<path d="M173.6569 94.4185
L173.5617 94.4185
" />
<path d="M173.5617 94.4185
L173.4664 94.3708
" />
<path d="M173.4664 94.3708
L173.4188 94.3232
" />
<path d="M173.4188 94.3232
L173.3712 94.2280
" />
<path d="M173.3712 94.2280
L173.3712 93.8946
" />
<path d="M172.8950 95.2756
L172.8474 95.1804
" />
<path d="M172.8474 95.1804
L172.8474 94.9899
" />
<path d="M172.8474 94.9899
L172.8950 94.8946
" />
<path d="M172.8950 94.8946
L172.9902 94.8470
" />
<path d="M172.9902 94.8470
L173.3712 94.8470
" />
<path d="M173.3712 94.8470
L173.4664 94.8946
" />
<path d="M173.4664 94.8946
L173.5140 94.9899
" />
<path d="M173.5140 94.9899
L173.5140 95.1804
" />
<path d="M173.5140 95.1804
L173.4664 95.2756
" />
<path d="M173.4664 95.2756
L173.3712 95.3232
" />
<path d="M173.3712 95.3232
L173.2760 95.3232
" />
<path d="M173.2760 95.3232
L173.1807 94.8470
" />
<path d="M172.8474 95.7518
L173.5140 95.7518
" />
<path d="M173.3236 95.7518
L173.4188 95.7994
" />
<path d="M173.4188 95.7994
L173.4664 95.8470
" />
<path d="M173.4664 95.8470
L173.5140 95.9423
" />
<path d="M173.5140 95.9423
L173.5140 96.0375
" />
<path d="M172.8474 96.3708
L173.5140 96.3708
" />
<path d="M173.3236 96.3708
L173.4188 96.4185
" />
<path d="M173.4188 96.4185
L173.4664 96.4661
" />
<path d="M173.4664 96.4661
L173.5140 96.5613
" />
<path d="M173.5140 96.5613
L173.5140 96.6566
" />
<path d="M173.5140 96.8946
L172.8474 97.1327
" />
<path d="M173.5140 97.3708
L172.8474 97.1327
" />
<path d="M172.8474 97.1327
L172.6093 97.0375
" />
<path d="M172.6093 97.0375
L172.5617 96.9899
" />
<path d="M172.5617 96.9899
L172.5140 96.8946
" />
</g><text x="230.9722" y="20.0000"
transform="scale(-1 1) translate(-461.944400 0)"
textLength="7.2500" font-size="1.3333" lengthAdjust="spacingAndGlyphs"
text-anchor="middle" opacity="0">JST PH 3</text>
<g class="stroked-text"><desc>JST PH 3</desc>
<path d="M227.9960 18.9548
L227.9960 19.6691
" />
<path d="M227.9960 19.6691
L227.9484 19.8120
" />
<path d="M227.9484 19.8120
L227.8532 19.9072
" />
<path d="M227.8532 19.9072
L227.7103 19.9548
" />
<path d="M227.7103 19.9548
L227.6151 19.9548
" />
<path d="M228.4246 19.9072
L228.5674 19.9548
" />
<path d="M228.5674 19.9548
L228.8055 19.9548
" />
<path d="M228.8055 19.9548
L228.9008 19.9072
" />
<path d="M228.9008 19.9072
L228.9484 19.8596
" />
<path d="M228.9484 19.8596
L228.9960 19.7643
" />
<path d="M228.9960 19.7643
L228.9960 19.6691
" />
<path d="M228.9960 19.6691
L228.9484 19.5739
" />
<path d="M228.9484 19.5739
L228.9008 19.5262
" />
<path d="M228.9008 19.5262
L228.8055 19.4786
" />
<path d="M228.8055 19.4786
L228.6151 19.4310
" />
<path d="M228.6151 19.4310
L228.5198 19.3834
" />
<path d="M228.5198 19.3834
L228.4722 19.3358
" />
<path d="M228.4722 19.3358
L228.4246 19.2405
" />
<path d="M228.4246 19.2405
L228.4246 19.1453
" />
<path d="M228.4246 19.1453
L228.4722 19.0501
" />
<path d="M228.4722 19.0501
L228.5198 19.0024
" />
<path d="M228.5198 19.0024
L228.6151 18.9548
" />
<path d="M228.6151 18.9548
L228.8532 18.9548
" />
<path d="M228.8532 18.9548
L228.9960 19.0024
" />
<path d="M229.2817 18.9548
L229.8532 18.9548
" />
<path d="M229.5674 19.9548
L229.5674 18.9548
" />
<path d="M230.9484 19.9548
L230.9484 18.9548
" />
<path d="M230.9484 18.9548
L231.3293 18.9548
" />
<path d="M231.3293 18.9548
L231.4246 19.0024
" />
<path d="M231.4246 19.0024
L231.4722 19.0501
" />
<path d="M231.4722 19.0501
L231.5198 19.1453
" />
<path d="M231.5198 19.1453
L231.5198 19.2882
" />
<path d="M231.5198 19.2882
L231.4722 19.3834
" />
<path d="M231.4722 19.3834
L231.4246 19.4310
" />
<path d="M231.4246 19.4310
L231.3293 19.4786
" />
<path d="M231.3293 19.4786
L230.9484 19.4786
" />
<path d="M231.9484 19.9548
L231.9484 18.9548
" />
<path d="M231.9484 19.4310
L232.5198 19.4310
" />
<path d="M232.5198 19.9548
L232.5198 18.9548
" />
<path d="M233.6627 18.9548
L234.2817 18.9548
" />
<path d="M234.2817 18.9548
L233.9484 19.3358
" />
<path d="M233.9484 19.3358
L234.0912 19.3358
" />
<path d="M234.0912 19.3358
L234.1865 19.3834
" />
<path d="M234.1865 19.3834
L234.2341 19.4310
" />
<path d="M234.2341 19.4310
L234.2817 19.5262
" />
<path d="M234.2817 19.5262
L234.2817 19.7643
" />
<path d="M234.2817 19.7643
L234.2341 19.8596
" />
<path d="M234.2341 19.8596
L234.1865 19.9072
" />
<path d="M234.1865 19.9072
L234.0912 19.9548
" />
<path d="M234.0912 19.9548
L233.8055 19.9548
" />
<path d="M233.8055 19.9548
L233.7103 19.9072
" />
<path d="M233.7103 19.9072
L233.6627 19.8596
" />
</g><text x="230.9722" y="22.5000"
transform="scale(-1 1) translate(-461.944400 0)"
textLength="2.9167" font-size="1.3333" lengthAdjust="spacingAndGlyphs"
text-anchor="middle" opacity="0">J26</text>
<g class="stroked-text"><desc>J26</desc>
<path d="M230.1627 21.4548
L230.1627 22.1691
" />
<path d="M230.1627 22.1691
L230.1151 22.3120
" />
<path d="M230.1151 22.3120
L230.0198 22.4072
" />
<path d="M230.0198 22.4072
L229.8770 22.4548
" />
<path d="M229.8770 22.4548
L229.7817 22.4548
" />
<path d="M230.5912 21.5501
L230.6389 21.5024
" />
<path d="M230.6389 21.5024
L230.7341 21.4548
" />
<path d="M230.7341 21.4548
L230.9722 21.4548
" />
<path d="M230.9722 21.4548
L231.0674 21.5024
" />
<path d="M231.0674 21.5024
L231.1151 21.5501
" />
<path d="M231.1151 21.5501
L231.1627 21.6453
" />
<path d="M231.1627 21.6453
L231.1627 21.7405
" />
<path d="M231.1627 21.7405
L231.1151 21.8834
" />
<path d="M231.1151 21.8834
L230.5436 22.4548
" />
<path d="M230.5436 22.4548
L231.1627 22.4548
" />
<path d="M232.0198 21.4548
L231.8293 21.4548
" />
<path d="M231.8293 21.4548
L231.7341 21.5024
" />
<path d="M231.7341 21.5024
L231.6865 21.5501
" />
<path d="M231.6865 21.5501
L231.5912 21.6929
" />
<path d="M231.5912 21.6929
L231.5436 21.8834
" />
<path d="M231.5436 21.8834
L231.5436 22.2643
" />
<path d="M231.5436 22.2643
L231.5912 22.3596
" />
<path d="M231.5912 22.3596
L231.6389 22.4072
" />
<path d="M231.6389 22.4072
L231.7341 22.4548
" />
<path d="M231.7341 22.4548
L231.9246 22.4548
" />
<path d="M231.9246 22.4548
L232.0198 22.4072
" />
<path d="M232.0198 22.4072
L232.0674 22.3596
" />
<path d="M232.0674 22.3596
L232.1151 22.2643
" />
<path d="M232.1151 22.2643
L232.1151 22.0262
" />
<path d="M232.1151 22.0262
L232.0674 21.9310
" />
<path d="M232.0674 21.9310
L232.0198 21.8834
" />
<path d="M232.0198 21.8834
L231.9246 21.8358
" />
<path d="M231.9246 21.8358
L231.7341 21.8358
" />
<path d="M231.7341 21.8358
L231.6389 21.8834
" />
<path d="M231.6389 21.8834
L231.5912 21.9310
" />
<path d="M231.5912 21.9310
L231.5436 22.0262
" />
</g></g>
<g style="fill:#000000; fill-opacity:0.0; 
stroke:#000000; stroke-width:0.1000; stroke-opacity:1; 
stroke-linecap:round; stroke-linejoin:round;">
<path d="M226.4022 25.6000
L226.4022 24.3500
" />
<path d="M225.9922 20.6900
L218.0922 20.6900
" />
<path d="M225.9922 25.1900
L225.9922 20.6900
" />
<path d="M225.1522 25.6000
L226.4022 25.6000
" />
<path d="M218.0922 20.6900
L218.0922 25.1900
" />
<path d="M218.0922 25.1900
L225.9922 25.1900
" />
<path d="M247.8822 125.7200
L247.8822 126.9700
" />
<path d="M248.2922 130.6300
L256.1922 130.6300
" />
<path d="M248.2922 126.1300
L248.2922 130.6300
" />
<path d="M249.1322 125.7200
L247.8822 125.7200
" />
<path d="M256.1922 130.6300
L256.1922 126.1300
" />
<path d="M256.1922 126.1300
L248.2922 126.1300
" />
<path d="M138.2722 122.9606
L145.8922 122.9606
" />
<path d="M138.2722 117.8806
L138.2722 122.9606
" />
<path d="M139.1772 81.1956
L144.2572 81.1956
" />
<path d="M139.1772 74.5756
L139.1772 81.1956
" />
<path d="M140.1772 73.5756
L139.1772 74.5756
" />
<path d="M144.2572 81.1956
L144.2572 73.5756
" />
<path d="M144.2572 73.5756
L140.1772 73.5756
" />
<path d="M144.8922 117.8806
L138.2722 117.8806
" />
<path d="M145.8922 122.9606
L145.8922 118.8806
" />
<path d="M145.8922 118.8806
L144.8922 117.8806
" />
<path d="M175.4822 117.9056
L180.5622 117.9056
" />
<path d="M175.4822 68.1056
L175.4822 117.9056
" />
<path d="M176.4822 67.1056
L175.4822 68.1056
" />
<path d="M180.5622 117.9056
L180.5622 67.1056
" />
<path d="M180.5622 67.1056
L176.4822 67.1056
" />
<path d="M235.3322 25.6100
L235.3322 24.3600
" />
<path d="M234.9222 20.7000
L227.0222 20.7000
" />
<path d="M234.9222 25.2000
L234.9222 20.7000
" />
<path d="M234.0822 25.6100
L235.3322 25.6100
" />
<path d="M227.0222 20.7000
L227.0222 25.2000
" />
<path d="M227.0222 25.2000
L234.9222 25.2000
" />
<g >
</g>
<g >
</g>
<g >
</g>
<g >
</g>
<g >
</g>
<g >
</g>
<g >
</g>
<g >
</g>
<g >
</g>
<g >
</g>
<g >
</g>
<g >
</g>
<g >
</g>
<g >
</g>
<g >
</g>
<g >
</g>
<g >
</g>
<g >
</g>
<g >
</g>
<g >
</g>
<g >
</g>
<g >
</g>
<g >
</g>
<g >
</g>
<g >
</g>
<g >
</g>
<g >
</g>
<g >
</g>
<g >
</g>
<g >
</g>
<g >
</g>
<g >
</g>
<g >
</g>
<g >
</g>
<g >
</g>
<g >
</g>
<g >
</g>
<g >
</g>
<g >
</g>
<g >
</g>
<g >
</g>
<g >
</g>
<g >
</g>
<g >
</g>
<g >
</g>
<g >
</g>
<g >
</g>
<g >
</g>
<g >
</g>
<g >
</g>
<g >
</g>
<g >
</g>
<g >
</g>
<g >
</g>
<g >
</g>
<g >
</g>
<g >
</g>
<g >
</g>
<g >
</g>
<g >
</g>
<g >
</g>
<g >
</g>
<g >
</g>
<g >
</g>
<g >
</g>
<g >
</g>
<g >
</g>
<g >
</g>
<g >
</g>
<g >
</g>
<g >
</g>
<g >
</g>
<g >
</g>
<g >
</g>
<g >
</g>
<g >
</g>
<g >
</g>
<g >
</g>
<g >
</g>
<g >
</g>
<g >
</g>
<g >
</g>
<g >
</g>
<g >
</g>
<g >
</g>
<g >
</g>
<g >
</g>
<g >
</g>
<g >
</g>
<g >
</g>
<g >
</g>
<g >
</g>
<g >
</g>
<g >
</g>
<g >
</g>
<g >
</g>
<g >
</g>
<g >
</g>
<g >
</g>
<g >
</g>
<g >
</g>
<g >
</g>
<g >
</g>
<g >
</g>
<g >
</g>
<g >
</g>
<g >
</g>
<g >
</g>
<g >
</g>
<g >
</g>
<g >
</g>
<g >
</g>
<g >
</g>
<g >
</g>
<g >
</g>
<g >
</g>
<g >
</g>
<g >
</g>
<g >
</g>
<g >
</g>
<g >
</g>
<g >
</g>
<g >
</g>
<g >
</g>
<g >
</g>
<g >
</g>
<g >
</g>
<g >
</g>
<g >
</g>
<g >
</g>
<g >
</g>
<g >
</g>
<g >
</g>
<g >
</g>
<g >
</g>
<g >
</g>
<g >
</g>
<g >
</g>
<g >
</g>
<g >
</g>
<g >
</g>
<g >
</g>
</g> 
</svg>
