G04 #@! TF.GenerationSoftware,KiCad,Pcbnew,7.0.9-7.0.9~ubuntu23.04.1*
G04 #@! TF.CreationDate,2024-01-07T15:09:49+00:00*
G04 #@! TF.ProjectId,pedalboard-hw,70656461-6c62-46f6-9172-642d68772e6b,3.2.0-RC1*
G04 #@! TF.SameCoordinates,Original*
G04 #@! TF.FileFunction,Legend,Bot*
G04 #@! TF.FilePolarity,Positive*
%FSLAX46Y46*%
G04 Gerber Fmt 4.6, Leading zero omitted, Abs format (unit mm)*
G04 Created by KiCad (PCBNEW 7.0.9-7.0.9~ubuntu23.04.1) date 2024-01-07 15:09:49*
%MOMM*%
%LPD*%
G01*
G04 APERTURE LIST*
%ADD10C,0.150000*%
%ADD11C,0.120000*%
%ADD12C,0.100000*%
G04 APERTURE END LIST*
D10*
G36*
X4159204Y84114062D02*
G01*
X4121033Y83999550D01*
X4046919Y83925437D01*
X3969932Y83886943D01*
X3796398Y83843559D01*
X3672009Y83843559D01*
X3498475Y83886943D01*
X3421488Y83925436D01*
X3347375Y83999549D01*
X3309204Y84114063D01*
X3309204Y84264987D01*
X4159204Y84264987D01*
X4159204Y84114062D01*
G37*
G36*
X4452061Y83550702D02*
G01*
X3016347Y83550702D01*
X3016347Y84101892D01*
X3159204Y84101892D01*
X3159764Y84100354D01*
X3163053Y84078175D01*
X3210672Y83935318D01*
X3213459Y83931806D01*
X3213850Y83927339D01*
X3228790Y83906002D01*
X3324028Y83810764D01*
X3325509Y83810074D01*
X3343520Y83796715D01*
X3438758Y83749096D01*
X3442286Y83748690D01*
X3454109Y83743417D01*
X3644585Y83695798D01*
X3648033Y83696159D01*
X3662775Y83693559D01*
X3805632Y83693559D01*
X3808889Y83694745D01*
X3823822Y83695798D01*
X4014298Y83743417D01*
X4017242Y83745406D01*
X4029649Y83749096D01*
X4124887Y83796715D01*
X4126010Y83797902D01*
X4144379Y83810764D01*
X4239618Y83906002D01*
X4241513Y83910067D01*
X4245333Y83912413D01*
X4257736Y83935318D01*
X4305355Y84078174D01*
X4305310Y84079810D01*
X4309204Y84101892D01*
X4309204Y84339987D01*
X4302540Y84358296D01*
X4299156Y84377487D01*
X4293971Y84381838D01*
X4291657Y84388196D01*
X4274783Y84397939D01*
X4259856Y84410464D01*
X4250113Y84412182D01*
X4247228Y84413848D01*
X4243945Y84413270D01*
X4234204Y84414987D01*
X3234204Y84414987D01*
X3215895Y84408324D01*
X3196704Y84404939D01*
X3192353Y84399755D01*
X3185995Y84397440D01*
X3176252Y84380567D01*
X3163727Y84365639D01*
X3162009Y84355897D01*
X3160343Y84353011D01*
X3160921Y84349729D01*
X3159204Y84339987D01*
X3159204Y84101892D01*
X3016347Y84101892D01*
X3016347Y85387272D01*
X3159205Y85387272D01*
X3165895Y85369141D01*
X3169252Y85350106D01*
X3174564Y85345649D01*
X3176965Y85339142D01*
X3196994Y85322488D01*
X3951787Y84891178D01*
X3234204Y84891178D01*
X3185995Y84873631D01*
X3160343Y84829202D01*
X3169252Y84778678D01*
X3208552Y84745701D01*
X3234204Y84741178D01*
X4234204Y84741178D01*
X4240721Y84743551D01*
X4247557Y84742376D01*
X4264254Y84752116D01*
X4282413Y84758725D01*
X4285880Y84764730D01*
X4291872Y84768225D01*
X4298401Y84786417D01*
X4308065Y84803154D01*
X4306860Y84809986D01*
X4309203Y84816512D01*
X4302512Y84834644D01*
X4299156Y84853678D01*
X4293843Y84858136D01*
X4291443Y84864642D01*
X4271415Y84881296D01*
X3516621Y85312606D01*
X4234204Y85312606D01*
X4282413Y85330153D01*
X4308065Y85374582D01*
X4299156Y85425106D01*
X4259856Y85458083D01*
X4234204Y85462606D01*
X3234204Y85462606D01*
X3227687Y85460235D01*
X3220852Y85461408D01*
X3204154Y85451669D01*
X3185995Y85445059D01*
X3182527Y85439054D01*
X3176536Y85435559D01*
X3170006Y85417368D01*
X3160343Y85400630D01*
X3161547Y85393799D01*
X3159205Y85387272D01*
X3016347Y85387272D01*
X3016347Y85959035D01*
X3159204Y85959035D01*
X3160737Y85954822D01*
X3159696Y85950461D01*
X3167122Y85925494D01*
X3214741Y85830256D01*
X3251995Y85794984D01*
X3303205Y85791909D01*
X3344411Y85822473D01*
X3356331Y85872372D01*
X3348905Y85897338D01*
X3309204Y85976740D01*
X3309204Y86089722D01*
X3347375Y86204236D01*
X3421488Y86278348D01*
X3498475Y86316842D01*
X3672009Y86360225D01*
X3796398Y86360225D01*
X3969932Y86316842D01*
X4046919Y86278348D01*
X4121033Y86204235D01*
X4159204Y86089722D01*
X4159204Y86018824D01*
X4121033Y85904312D01*
X4107899Y85891178D01*
X3880632Y85891178D01*
X3880632Y86006654D01*
X3863085Y86054863D01*
X3818656Y86080515D01*
X3768132Y86071606D01*
X3735155Y86032306D01*
X3730632Y86006654D01*
X3730632Y85816178D01*
X3737295Y85797870D01*
X3740680Y85778678D01*
X3745864Y85774328D01*
X3748179Y85767969D01*
X3765052Y85758227D01*
X3779980Y85745701D01*
X3789722Y85743984D01*
X3792608Y85742317D01*
X3795890Y85742896D01*
X3805632Y85741178D01*
X4138965Y85741178D01*
X4154348Y85746778D01*
X4170660Y85748204D01*
X4184074Y85757597D01*
X4187174Y85758725D01*
X4188183Y85760475D01*
X4191997Y85763144D01*
X4239617Y85810763D01*
X4241512Y85814828D01*
X4245333Y85817175D01*
X4257736Y85840080D01*
X4305355Y85982936D01*
X4305310Y85984572D01*
X4309204Y86006654D01*
X4309204Y86101892D01*
X4308644Y86103430D01*
X4305355Y86125610D01*
X4257736Y86268466D01*
X4254949Y86271977D01*
X4254559Y86276445D01*
X4239618Y86297782D01*
X4144379Y86393020D01*
X4142897Y86393711D01*
X4124887Y86407069D01*
X4029649Y86454688D01*
X4026120Y86455095D01*
X4014298Y86460367D01*
X3823822Y86507986D01*
X3820373Y86507626D01*
X3805632Y86510225D01*
X3662775Y86510225D01*
X3659517Y86509040D01*
X3644585Y86507986D01*
X3454109Y86460367D01*
X3451164Y86458379D01*
X3438758Y86454688D01*
X3343520Y86407069D01*
X3342396Y86405883D01*
X3324028Y86393020D01*
X3228790Y86297782D01*
X3226895Y86293719D01*
X3223074Y86291371D01*
X3210672Y86268466D01*
X3163053Y86125609D01*
X3163097Y86123975D01*
X3159204Y86101892D01*
X3159204Y85959035D01*
X3016347Y85959035D01*
X3016347Y86653082D01*
X4452061Y86653082D01*
X4452061Y83550702D01*
G37*
G36*
X60895462Y103826710D02*
G01*
X59412130Y103826710D01*
X59412130Y104044566D01*
X59554987Y104044566D01*
X59557358Y104038050D01*
X59556185Y104031214D01*
X59565924Y104014517D01*
X59572534Y103996357D01*
X59578539Y103992890D01*
X59582034Y103986898D01*
X59600225Y103980369D01*
X59616963Y103970705D01*
X59623794Y103971910D01*
X59630321Y103969567D01*
X59648452Y103976258D01*
X59667487Y103979614D01*
X59671944Y103984927D01*
X59678451Y103987327D01*
X59695105Y104007356D01*
X60126415Y104762150D01*
X60126415Y104044566D01*
X60143962Y103996357D01*
X60188391Y103970705D01*
X60238915Y103979614D01*
X60271892Y104018914D01*
X60276415Y104044566D01*
X60602605Y104044566D01*
X60620152Y103996357D01*
X60664581Y103970705D01*
X60715105Y103979614D01*
X60748082Y104018914D01*
X60752605Y104044566D01*
X60752605Y105044566D01*
X60735058Y105092775D01*
X60690629Y105118427D01*
X60640105Y105109518D01*
X60607128Y105070218D01*
X60602605Y105044566D01*
X60602605Y104044566D01*
X60276415Y104044566D01*
X60276415Y105044566D01*
X60274042Y105051084D01*
X60275217Y105057919D01*
X60265477Y105074617D01*
X60258868Y105092775D01*
X60252863Y105096243D01*
X60249368Y105102234D01*
X60231176Y105108764D01*
X60214439Y105118427D01*
X60207607Y105117223D01*
X60201081Y105119565D01*
X60182949Y105112875D01*
X60163915Y105109518D01*
X60159457Y105104206D01*
X60152951Y105101805D01*
X60136297Y105081777D01*
X59704987Y104326983D01*
X59704987Y105044566D01*
X59687440Y105092775D01*
X59643011Y105118427D01*
X59592487Y105109518D01*
X59559510Y105070218D01*
X59554987Y105044566D01*
X59554987Y104044566D01*
X59412130Y104044566D01*
X59412130Y105262422D01*
X60895462Y105262422D01*
X60895462Y103826710D01*
G37*
G36*
X170779204Y92094062D02*
G01*
X170741033Y91979550D01*
X170666919Y91905437D01*
X170589932Y91866943D01*
X170416398Y91823559D01*
X170292009Y91823559D01*
X170118475Y91866943D01*
X170041488Y91905436D01*
X169967375Y91979549D01*
X169929204Y92094063D01*
X169929204Y92244987D01*
X170779204Y92244987D01*
X170779204Y92094062D01*
G37*
G36*
X171072061Y91530702D02*
G01*
X169636347Y91530702D01*
X169636347Y92081892D01*
X169779204Y92081892D01*
X169779764Y92080354D01*
X169783053Y92058175D01*
X169830672Y91915318D01*
X169833459Y91911806D01*
X169833850Y91907339D01*
X169848790Y91886002D01*
X169944028Y91790764D01*
X169945509Y91790074D01*
X169963520Y91776715D01*
X170058758Y91729096D01*
X170062286Y91728690D01*
X170074109Y91723417D01*
X170264585Y91675798D01*
X170268033Y91676159D01*
X170282775Y91673559D01*
X170425632Y91673559D01*
X170428889Y91674745D01*
X170443822Y91675798D01*
X170634298Y91723417D01*
X170637242Y91725406D01*
X170649649Y91729096D01*
X170744887Y91776715D01*
X170746010Y91777902D01*
X170764379Y91790764D01*
X170859618Y91886002D01*
X170861513Y91890067D01*
X170865333Y91892413D01*
X170877736Y91915318D01*
X170925355Y92058174D01*
X170925310Y92059810D01*
X170929204Y92081892D01*
X170929204Y92319987D01*
X170922540Y92338296D01*
X170919156Y92357487D01*
X170913971Y92361838D01*
X170911657Y92368196D01*
X170894783Y92377939D01*
X170879856Y92390464D01*
X170870113Y92392182D01*
X170867228Y92393848D01*
X170863945Y92393270D01*
X170854204Y92394987D01*
X169854204Y92394987D01*
X169835895Y92388324D01*
X169816704Y92384939D01*
X169812353Y92379755D01*
X169805995Y92377440D01*
X169796252Y92360567D01*
X169783727Y92345639D01*
X169782009Y92335897D01*
X169780343Y92333011D01*
X169780921Y92329729D01*
X169779204Y92319987D01*
X169779204Y92081892D01*
X169636347Y92081892D01*
X169636347Y93367272D01*
X169779205Y93367272D01*
X169785895Y93349141D01*
X169789252Y93330106D01*
X169794564Y93325649D01*
X169796965Y93319142D01*
X169816994Y93302488D01*
X170571787Y92871178D01*
X169854204Y92871178D01*
X169805995Y92853631D01*
X169780343Y92809202D01*
X169789252Y92758678D01*
X169828552Y92725701D01*
X169854204Y92721178D01*
X170854204Y92721178D01*
X170860721Y92723551D01*
X170867557Y92722376D01*
X170884254Y92732116D01*
X170902413Y92738725D01*
X170905880Y92744730D01*
X170911872Y92748225D01*
X170918401Y92766417D01*
X170928065Y92783154D01*
X170926860Y92789986D01*
X170929203Y92796512D01*
X170922512Y92814644D01*
X170919156Y92833678D01*
X170913843Y92838136D01*
X170911443Y92844642D01*
X170891415Y92861296D01*
X170136621Y93292606D01*
X170854204Y93292606D01*
X170902413Y93310153D01*
X170928065Y93354582D01*
X170919156Y93405106D01*
X170879856Y93438083D01*
X170854204Y93442606D01*
X169854204Y93442606D01*
X169847687Y93440235D01*
X169840852Y93441408D01*
X169824154Y93431669D01*
X169805995Y93425059D01*
X169802527Y93419054D01*
X169796536Y93415559D01*
X169790006Y93397368D01*
X169780343Y93380630D01*
X169781547Y93373799D01*
X169779205Y93367272D01*
X169636347Y93367272D01*
X169636347Y93939035D01*
X169779204Y93939035D01*
X169780737Y93934822D01*
X169779696Y93930461D01*
X169787122Y93905494D01*
X169834741Y93810256D01*
X169871995Y93774984D01*
X169923205Y93771909D01*
X169964411Y93802473D01*
X169976331Y93852372D01*
X169968905Y93877338D01*
X169929204Y93956740D01*
X169929204Y94069722D01*
X169967375Y94184236D01*
X170041488Y94258348D01*
X170118475Y94296842D01*
X170292009Y94340225D01*
X170416398Y94340225D01*
X170589932Y94296842D01*
X170666919Y94258348D01*
X170741033Y94184235D01*
X170779204Y94069722D01*
X170779204Y93998824D01*
X170741033Y93884312D01*
X170727899Y93871178D01*
X170500632Y93871178D01*
X170500632Y93986654D01*
X170483085Y94034863D01*
X170438656Y94060515D01*
X170388132Y94051606D01*
X170355155Y94012306D01*
X170350632Y93986654D01*
X170350632Y93796178D01*
X170357295Y93777870D01*
X170360680Y93758678D01*
X170365864Y93754328D01*
X170368179Y93747969D01*
X170385052Y93738227D01*
X170399980Y93725701D01*
X170409722Y93723984D01*
X170412608Y93722317D01*
X170415890Y93722896D01*
X170425632Y93721178D01*
X170758965Y93721178D01*
X170774348Y93726778D01*
X170790660Y93728204D01*
X170804074Y93737597D01*
X170807174Y93738725D01*
X170808183Y93740475D01*
X170811997Y93743144D01*
X170859617Y93790763D01*
X170861512Y93794828D01*
X170865333Y93797175D01*
X170877736Y93820080D01*
X170925355Y93962936D01*
X170925310Y93964572D01*
X170929204Y93986654D01*
X170929204Y94081892D01*
X170928644Y94083430D01*
X170925355Y94105610D01*
X170877736Y94248466D01*
X170874949Y94251977D01*
X170874559Y94256445D01*
X170859618Y94277782D01*
X170764379Y94373020D01*
X170762897Y94373711D01*
X170744887Y94387069D01*
X170649649Y94434688D01*
X170646120Y94435095D01*
X170634298Y94440367D01*
X170443822Y94487986D01*
X170440373Y94487626D01*
X170425632Y94490225D01*
X170282775Y94490225D01*
X170279517Y94489040D01*
X170264585Y94487986D01*
X170074109Y94440367D01*
X170071164Y94438379D01*
X170058758Y94434688D01*
X169963520Y94387069D01*
X169962396Y94385883D01*
X169944028Y94373020D01*
X169848790Y94277782D01*
X169846895Y94273719D01*
X169843074Y94271371D01*
X169830672Y94248466D01*
X169783053Y94105609D01*
X169783097Y94103975D01*
X169779204Y94081892D01*
X169779204Y93939035D01*
X169636347Y93939035D01*
X169636347Y94633082D01*
X171072061Y94633082D01*
X171072061Y91530702D01*
G37*
X43467129Y77344566D02*
X43276653Y77344566D01*
X43276653Y77344566D02*
X43181415Y77296947D01*
X43181415Y77296947D02*
X43086177Y77201709D01*
X43086177Y77201709D02*
X43038558Y77011233D01*
X43038558Y77011233D02*
X43038558Y76677900D01*
X43038558Y76677900D02*
X43086177Y76487424D01*
X43086177Y76487424D02*
X43181415Y76392185D01*
X43181415Y76392185D02*
X43276653Y76344566D01*
X43276653Y76344566D02*
X43467129Y76344566D01*
X43467129Y76344566D02*
X43562367Y76392185D01*
X43562367Y76392185D02*
X43657605Y76487424D01*
X43657605Y76487424D02*
X43705224Y76677900D01*
X43705224Y76677900D02*
X43705224Y77011233D01*
X43705224Y77011233D02*
X43657605Y77201709D01*
X43657605Y77201709D02*
X43562367Y77296947D01*
X43562367Y77296947D02*
X43467129Y77344566D01*
X42609986Y77011233D02*
X42609986Y76011233D01*
X42609986Y76963614D02*
X42514748Y77011233D01*
X42514748Y77011233D02*
X42324272Y77011233D01*
X42324272Y77011233D02*
X42229034Y76963614D01*
X42229034Y76963614D02*
X42181415Y76915995D01*
X42181415Y76915995D02*
X42133796Y76820757D01*
X42133796Y76820757D02*
X42133796Y76535043D01*
X42133796Y76535043D02*
X42181415Y76439805D01*
X42181415Y76439805D02*
X42229034Y76392185D01*
X42229034Y76392185D02*
X42324272Y76344566D01*
X42324272Y76344566D02*
X42514748Y76344566D01*
X42514748Y76344566D02*
X42609986Y76392185D01*
X41324272Y76392185D02*
X41419510Y76344566D01*
X41419510Y76344566D02*
X41609986Y76344566D01*
X41609986Y76344566D02*
X41705224Y76392185D01*
X41705224Y76392185D02*
X41752843Y76487424D01*
X41752843Y76487424D02*
X41752843Y76868376D01*
X41752843Y76868376D02*
X41705224Y76963614D01*
X41705224Y76963614D02*
X41609986Y77011233D01*
X41609986Y77011233D02*
X41419510Y77011233D01*
X41419510Y77011233D02*
X41324272Y76963614D01*
X41324272Y76963614D02*
X41276653Y76868376D01*
X41276653Y76868376D02*
X41276653Y76773138D01*
X41276653Y76773138D02*
X41752843Y76677900D01*
X40848081Y77011233D02*
X40848081Y76344566D01*
X40848081Y76915995D02*
X40800462Y76963614D01*
X40800462Y76963614D02*
X40705224Y77011233D01*
X40705224Y77011233D02*
X40562367Y77011233D01*
X40562367Y77011233D02*
X40467129Y76963614D01*
X40467129Y76963614D02*
X40419510Y76868376D01*
X40419510Y76868376D02*
X40419510Y76344566D01*
X39181414Y76344566D02*
X39181414Y77344566D01*
X39181414Y77344566D02*
X38800462Y77344566D01*
X38800462Y77344566D02*
X38705224Y77296947D01*
X38705224Y77296947D02*
X38657605Y77249328D01*
X38657605Y77249328D02*
X38609986Y77154090D01*
X38609986Y77154090D02*
X38609986Y77011233D01*
X38609986Y77011233D02*
X38657605Y76915995D01*
X38657605Y76915995D02*
X38705224Y76868376D01*
X38705224Y76868376D02*
X38800462Y76820757D01*
X38800462Y76820757D02*
X39181414Y76820757D01*
X37800462Y76392185D02*
X37895700Y76344566D01*
X37895700Y76344566D02*
X38086176Y76344566D01*
X38086176Y76344566D02*
X38181414Y76392185D01*
X38181414Y76392185D02*
X38229033Y76487424D01*
X38229033Y76487424D02*
X38229033Y76868376D01*
X38229033Y76868376D02*
X38181414Y76963614D01*
X38181414Y76963614D02*
X38086176Y77011233D01*
X38086176Y77011233D02*
X37895700Y77011233D01*
X37895700Y77011233D02*
X37800462Y76963614D01*
X37800462Y76963614D02*
X37752843Y76868376D01*
X37752843Y76868376D02*
X37752843Y76773138D01*
X37752843Y76773138D02*
X38229033Y76677900D01*
X36895700Y76344566D02*
X36895700Y77344566D01*
X36895700Y76392185D02*
X36990938Y76344566D01*
X36990938Y76344566D02*
X37181414Y76344566D01*
X37181414Y76344566D02*
X37276652Y76392185D01*
X37276652Y76392185D02*
X37324271Y76439805D01*
X37324271Y76439805D02*
X37371890Y76535043D01*
X37371890Y76535043D02*
X37371890Y76820757D01*
X37371890Y76820757D02*
X37324271Y76915995D01*
X37324271Y76915995D02*
X37276652Y76963614D01*
X37276652Y76963614D02*
X37181414Y77011233D01*
X37181414Y77011233D02*
X36990938Y77011233D01*
X36990938Y77011233D02*
X36895700Y76963614D01*
X35990938Y76344566D02*
X35990938Y76868376D01*
X35990938Y76868376D02*
X36038557Y76963614D01*
X36038557Y76963614D02*
X36133795Y77011233D01*
X36133795Y77011233D02*
X36324271Y77011233D01*
X36324271Y77011233D02*
X36419509Y76963614D01*
X35990938Y76392185D02*
X36086176Y76344566D01*
X36086176Y76344566D02*
X36324271Y76344566D01*
X36324271Y76344566D02*
X36419509Y76392185D01*
X36419509Y76392185D02*
X36467128Y76487424D01*
X36467128Y76487424D02*
X36467128Y76582662D01*
X36467128Y76582662D02*
X36419509Y76677900D01*
X36419509Y76677900D02*
X36324271Y76725519D01*
X36324271Y76725519D02*
X36086176Y76725519D01*
X36086176Y76725519D02*
X35990938Y76773138D01*
X35371890Y76344566D02*
X35467128Y76392185D01*
X35467128Y76392185D02*
X35514747Y76487424D01*
X35514747Y76487424D02*
X35514747Y77344566D01*
X34990937Y76344566D02*
X34990937Y77344566D01*
X34990937Y76963614D02*
X34895699Y77011233D01*
X34895699Y77011233D02*
X34705223Y77011233D01*
X34705223Y77011233D02*
X34609985Y76963614D01*
X34609985Y76963614D02*
X34562366Y76915995D01*
X34562366Y76915995D02*
X34514747Y76820757D01*
X34514747Y76820757D02*
X34514747Y76535043D01*
X34514747Y76535043D02*
X34562366Y76439805D01*
X34562366Y76439805D02*
X34609985Y76392185D01*
X34609985Y76392185D02*
X34705223Y76344566D01*
X34705223Y76344566D02*
X34895699Y76344566D01*
X34895699Y76344566D02*
X34990937Y76392185D01*
X33943318Y76344566D02*
X34038556Y76392185D01*
X34038556Y76392185D02*
X34086175Y76439805D01*
X34086175Y76439805D02*
X34133794Y76535043D01*
X34133794Y76535043D02*
X34133794Y76820757D01*
X34133794Y76820757D02*
X34086175Y76915995D01*
X34086175Y76915995D02*
X34038556Y76963614D01*
X34038556Y76963614D02*
X33943318Y77011233D01*
X33943318Y77011233D02*
X33800461Y77011233D01*
X33800461Y77011233D02*
X33705223Y76963614D01*
X33705223Y76963614D02*
X33657604Y76915995D01*
X33657604Y76915995D02*
X33609985Y76820757D01*
X33609985Y76820757D02*
X33609985Y76535043D01*
X33609985Y76535043D02*
X33657604Y76439805D01*
X33657604Y76439805D02*
X33705223Y76392185D01*
X33705223Y76392185D02*
X33800461Y76344566D01*
X33800461Y76344566D02*
X33943318Y76344566D01*
X32752842Y76344566D02*
X32752842Y76868376D01*
X32752842Y76868376D02*
X32800461Y76963614D01*
X32800461Y76963614D02*
X32895699Y77011233D01*
X32895699Y77011233D02*
X33086175Y77011233D01*
X33086175Y77011233D02*
X33181413Y76963614D01*
X32752842Y76392185D02*
X32848080Y76344566D01*
X32848080Y76344566D02*
X33086175Y76344566D01*
X33086175Y76344566D02*
X33181413Y76392185D01*
X33181413Y76392185D02*
X33229032Y76487424D01*
X33229032Y76487424D02*
X33229032Y76582662D01*
X33229032Y76582662D02*
X33181413Y76677900D01*
X33181413Y76677900D02*
X33086175Y76725519D01*
X33086175Y76725519D02*
X32848080Y76725519D01*
X32848080Y76725519D02*
X32752842Y76773138D01*
X32276651Y76344566D02*
X32276651Y77011233D01*
X32276651Y76820757D02*
X32229032Y76915995D01*
X32229032Y76915995D02*
X32181413Y76963614D01*
X32181413Y76963614D02*
X32086175Y77011233D01*
X32086175Y77011233D02*
X31990937Y77011233D01*
X31229032Y76344566D02*
X31229032Y77344566D01*
X31229032Y76392185D02*
X31324270Y76344566D01*
X31324270Y76344566D02*
X31514746Y76344566D01*
X31514746Y76344566D02*
X31609984Y76392185D01*
X31609984Y76392185D02*
X31657603Y76439805D01*
X31657603Y76439805D02*
X31705222Y76535043D01*
X31705222Y76535043D02*
X31705222Y76820757D01*
X31705222Y76820757D02*
X31657603Y76915995D01*
X31657603Y76915995D02*
X31609984Y76963614D01*
X31609984Y76963614D02*
X31514746Y77011233D01*
X31514746Y77011233D02*
X31324270Y77011233D01*
X31324270Y77011233D02*
X31229032Y76963614D01*
X29990936Y76344566D02*
X29990936Y77344566D01*
X29990936Y77344566D02*
X29657603Y76630281D01*
X29657603Y76630281D02*
X29324270Y77344566D01*
X29324270Y77344566D02*
X29324270Y76344566D01*
X28419508Y76344566D02*
X28419508Y76868376D01*
X28419508Y76868376D02*
X28467127Y76963614D01*
X28467127Y76963614D02*
X28562365Y77011233D01*
X28562365Y77011233D02*
X28752841Y77011233D01*
X28752841Y77011233D02*
X28848079Y76963614D01*
X28419508Y76392185D02*
X28514746Y76344566D01*
X28514746Y76344566D02*
X28752841Y76344566D01*
X28752841Y76344566D02*
X28848079Y76392185D01*
X28848079Y76392185D02*
X28895698Y76487424D01*
X28895698Y76487424D02*
X28895698Y76582662D01*
X28895698Y76582662D02*
X28848079Y76677900D01*
X28848079Y76677900D02*
X28752841Y76725519D01*
X28752841Y76725519D02*
X28514746Y76725519D01*
X28514746Y76725519D02*
X28419508Y76773138D01*
X27943317Y76344566D02*
X27943317Y77011233D01*
X27943317Y77344566D02*
X27990936Y77296947D01*
X27990936Y77296947D02*
X27943317Y77249328D01*
X27943317Y77249328D02*
X27895698Y77296947D01*
X27895698Y77296947D02*
X27943317Y77344566D01*
X27943317Y77344566D02*
X27943317Y77249328D01*
X27467127Y77011233D02*
X27467127Y76344566D01*
X27467127Y76915995D02*
X27419508Y76963614D01*
X27419508Y76963614D02*
X27324270Y77011233D01*
X27324270Y77011233D02*
X27181413Y77011233D01*
X27181413Y77011233D02*
X27086175Y76963614D01*
X27086175Y76963614D02*
X27038556Y76868376D01*
X27038556Y76868376D02*
X27038556Y76344566D01*
X26562365Y76344566D02*
X26562365Y77344566D01*
X26562365Y76963614D02*
X26467127Y77011233D01*
X26467127Y77011233D02*
X26276651Y77011233D01*
X26276651Y77011233D02*
X26181413Y76963614D01*
X26181413Y76963614D02*
X26133794Y76915995D01*
X26133794Y76915995D02*
X26086175Y76820757D01*
X26086175Y76820757D02*
X26086175Y76535043D01*
X26086175Y76535043D02*
X26133794Y76439805D01*
X26133794Y76439805D02*
X26181413Y76392185D01*
X26181413Y76392185D02*
X26276651Y76344566D01*
X26276651Y76344566D02*
X26467127Y76344566D01*
X26467127Y76344566D02*
X26562365Y76392185D01*
X25514746Y76344566D02*
X25609984Y76392185D01*
X25609984Y76392185D02*
X25657603Y76439805D01*
X25657603Y76439805D02*
X25705222Y76535043D01*
X25705222Y76535043D02*
X25705222Y76820757D01*
X25705222Y76820757D02*
X25657603Y76915995D01*
X25657603Y76915995D02*
X25609984Y76963614D01*
X25609984Y76963614D02*
X25514746Y77011233D01*
X25514746Y77011233D02*
X25371889Y77011233D01*
X25371889Y77011233D02*
X25276651Y76963614D01*
X25276651Y76963614D02*
X25229032Y76915995D01*
X25229032Y76915995D02*
X25181413Y76820757D01*
X25181413Y76820757D02*
X25181413Y76535043D01*
X25181413Y76535043D02*
X25229032Y76439805D01*
X25229032Y76439805D02*
X25276651Y76392185D01*
X25276651Y76392185D02*
X25371889Y76344566D01*
X25371889Y76344566D02*
X25514746Y76344566D01*
X24324270Y76344566D02*
X24324270Y76868376D01*
X24324270Y76868376D02*
X24371889Y76963614D01*
X24371889Y76963614D02*
X24467127Y77011233D01*
X24467127Y77011233D02*
X24657603Y77011233D01*
X24657603Y77011233D02*
X24752841Y76963614D01*
X24324270Y76392185D02*
X24419508Y76344566D01*
X24419508Y76344566D02*
X24657603Y76344566D01*
X24657603Y76344566D02*
X24752841Y76392185D01*
X24752841Y76392185D02*
X24800460Y76487424D01*
X24800460Y76487424D02*
X24800460Y76582662D01*
X24800460Y76582662D02*
X24752841Y76677900D01*
X24752841Y76677900D02*
X24657603Y76725519D01*
X24657603Y76725519D02*
X24419508Y76725519D01*
X24419508Y76725519D02*
X24324270Y76773138D01*
X23848079Y76344566D02*
X23848079Y77011233D01*
X23848079Y76820757D02*
X23800460Y76915995D01*
X23800460Y76915995D02*
X23752841Y76963614D01*
X23752841Y76963614D02*
X23657603Y77011233D01*
X23657603Y77011233D02*
X23562365Y77011233D01*
X22800460Y76344566D02*
X22800460Y77344566D01*
X22800460Y76392185D02*
X22895698Y76344566D01*
X22895698Y76344566D02*
X23086174Y76344566D01*
X23086174Y76344566D02*
X23181412Y76392185D01*
X23181412Y76392185D02*
X23229031Y76439805D01*
X23229031Y76439805D02*
X23276650Y76535043D01*
X23276650Y76535043D02*
X23276650Y76820757D01*
X23276650Y76820757D02*
X23229031Y76915995D01*
X23229031Y76915995D02*
X23181412Y76963614D01*
X23181412Y76963614D02*
X23086174Y77011233D01*
X23086174Y77011233D02*
X22895698Y77011233D01*
X22895698Y77011233D02*
X22800460Y76963614D01*
X43657605Y74734566D02*
X43657605Y75734566D01*
X43229034Y74734566D02*
X43229034Y75258376D01*
X43229034Y75258376D02*
X43276653Y75353614D01*
X43276653Y75353614D02*
X43371891Y75401233D01*
X43371891Y75401233D02*
X43514748Y75401233D01*
X43514748Y75401233D02*
X43609986Y75353614D01*
X43609986Y75353614D02*
X43657605Y75305995D01*
X42895700Y75401233D02*
X42514748Y75401233D01*
X42752843Y75734566D02*
X42752843Y74877424D01*
X42752843Y74877424D02*
X42705224Y74782185D01*
X42705224Y74782185D02*
X42609986Y74734566D01*
X42609986Y74734566D02*
X42514748Y74734566D01*
X42324271Y75401233D02*
X41943319Y75401233D01*
X42181414Y75734566D02*
X42181414Y74877424D01*
X42181414Y74877424D02*
X42133795Y74782185D01*
X42133795Y74782185D02*
X42038557Y74734566D01*
X42038557Y74734566D02*
X41943319Y74734566D01*
X41609985Y75401233D02*
X41609985Y74401233D01*
X41609985Y75353614D02*
X41514747Y75401233D01*
X41514747Y75401233D02*
X41324271Y75401233D01*
X41324271Y75401233D02*
X41229033Y75353614D01*
X41229033Y75353614D02*
X41181414Y75305995D01*
X41181414Y75305995D02*
X41133795Y75210757D01*
X41133795Y75210757D02*
X41133795Y74925043D01*
X41133795Y74925043D02*
X41181414Y74829805D01*
X41181414Y74829805D02*
X41229033Y74782185D01*
X41229033Y74782185D02*
X41324271Y74734566D01*
X41324271Y74734566D02*
X41514747Y74734566D01*
X41514747Y74734566D02*
X41609985Y74782185D01*
X40752842Y74782185D02*
X40657604Y74734566D01*
X40657604Y74734566D02*
X40467128Y74734566D01*
X40467128Y74734566D02*
X40371890Y74782185D01*
X40371890Y74782185D02*
X40324271Y74877424D01*
X40324271Y74877424D02*
X40324271Y74925043D01*
X40324271Y74925043D02*
X40371890Y75020281D01*
X40371890Y75020281D02*
X40467128Y75067900D01*
X40467128Y75067900D02*
X40609985Y75067900D01*
X40609985Y75067900D02*
X40705223Y75115519D01*
X40705223Y75115519D02*
X40752842Y75210757D01*
X40752842Y75210757D02*
X40752842Y75258376D01*
X40752842Y75258376D02*
X40705223Y75353614D01*
X40705223Y75353614D02*
X40609985Y75401233D01*
X40609985Y75401233D02*
X40467128Y75401233D01*
X40467128Y75401233D02*
X40371890Y75353614D01*
X39895699Y74829805D02*
X39848080Y74782185D01*
X39848080Y74782185D02*
X39895699Y74734566D01*
X39895699Y74734566D02*
X39943318Y74782185D01*
X39943318Y74782185D02*
X39895699Y74829805D01*
X39895699Y74829805D02*
X39895699Y74734566D01*
X39895699Y75353614D02*
X39848080Y75305995D01*
X39848080Y75305995D02*
X39895699Y75258376D01*
X39895699Y75258376D02*
X39943318Y75305995D01*
X39943318Y75305995D02*
X39895699Y75353614D01*
X39895699Y75353614D02*
X39895699Y75258376D01*
X38705224Y75782185D02*
X39562366Y74496471D01*
X37657605Y75782185D02*
X38514747Y74496471D01*
X36895700Y75401233D02*
X36895700Y74591709D01*
X36895700Y74591709D02*
X36943319Y74496471D01*
X36943319Y74496471D02*
X36990938Y74448852D01*
X36990938Y74448852D02*
X37086176Y74401233D01*
X37086176Y74401233D02*
X37229033Y74401233D01*
X37229033Y74401233D02*
X37324271Y74448852D01*
X36895700Y74782185D02*
X36990938Y74734566D01*
X36990938Y74734566D02*
X37181414Y74734566D01*
X37181414Y74734566D02*
X37276652Y74782185D01*
X37276652Y74782185D02*
X37324271Y74829805D01*
X37324271Y74829805D02*
X37371890Y74925043D01*
X37371890Y74925043D02*
X37371890Y75210757D01*
X37371890Y75210757D02*
X37324271Y75305995D01*
X37324271Y75305995D02*
X37276652Y75353614D01*
X37276652Y75353614D02*
X37181414Y75401233D01*
X37181414Y75401233D02*
X36990938Y75401233D01*
X36990938Y75401233D02*
X36895700Y75353614D01*
X36419509Y74734566D02*
X36419509Y75401233D01*
X36419509Y75734566D02*
X36467128Y75686947D01*
X36467128Y75686947D02*
X36419509Y75639328D01*
X36419509Y75639328D02*
X36371890Y75686947D01*
X36371890Y75686947D02*
X36419509Y75734566D01*
X36419509Y75734566D02*
X36419509Y75639328D01*
X36086176Y75401233D02*
X35705224Y75401233D01*
X35943319Y75734566D02*
X35943319Y74877424D01*
X35943319Y74877424D02*
X35895700Y74782185D01*
X35895700Y74782185D02*
X35800462Y74734566D01*
X35800462Y74734566D02*
X35705224Y74734566D01*
X35371890Y74734566D02*
X35371890Y75734566D01*
X34943319Y74734566D02*
X34943319Y75258376D01*
X34943319Y75258376D02*
X34990938Y75353614D01*
X34990938Y75353614D02*
X35086176Y75401233D01*
X35086176Y75401233D02*
X35229033Y75401233D01*
X35229033Y75401233D02*
X35324271Y75353614D01*
X35324271Y75353614D02*
X35371890Y75305995D01*
X34038557Y75401233D02*
X34038557Y74734566D01*
X34467128Y75401233D02*
X34467128Y74877424D01*
X34467128Y74877424D02*
X34419509Y74782185D01*
X34419509Y74782185D02*
X34324271Y74734566D01*
X34324271Y74734566D02*
X34181414Y74734566D01*
X34181414Y74734566D02*
X34086176Y74782185D01*
X34086176Y74782185D02*
X34038557Y74829805D01*
X33562366Y74734566D02*
X33562366Y75734566D01*
X33562366Y75353614D02*
X33467128Y75401233D01*
X33467128Y75401233D02*
X33276652Y75401233D01*
X33276652Y75401233D02*
X33181414Y75353614D01*
X33181414Y75353614D02*
X33133795Y75305995D01*
X33133795Y75305995D02*
X33086176Y75210757D01*
X33086176Y75210757D02*
X33086176Y74925043D01*
X33086176Y74925043D02*
X33133795Y74829805D01*
X33133795Y74829805D02*
X33181414Y74782185D01*
X33181414Y74782185D02*
X33276652Y74734566D01*
X33276652Y74734566D02*
X33467128Y74734566D01*
X33467128Y74734566D02*
X33562366Y74782185D01*
X32657604Y74829805D02*
X32609985Y74782185D01*
X32609985Y74782185D02*
X32657604Y74734566D01*
X32657604Y74734566D02*
X32705223Y74782185D01*
X32705223Y74782185D02*
X32657604Y74829805D01*
X32657604Y74829805D02*
X32657604Y74734566D01*
X31752843Y74782185D02*
X31848081Y74734566D01*
X31848081Y74734566D02*
X32038557Y74734566D01*
X32038557Y74734566D02*
X32133795Y74782185D01*
X32133795Y74782185D02*
X32181414Y74829805D01*
X32181414Y74829805D02*
X32229033Y74925043D01*
X32229033Y74925043D02*
X32229033Y75210757D01*
X32229033Y75210757D02*
X32181414Y75305995D01*
X32181414Y75305995D02*
X32133795Y75353614D01*
X32133795Y75353614D02*
X32038557Y75401233D01*
X32038557Y75401233D02*
X31848081Y75401233D01*
X31848081Y75401233D02*
X31752843Y75353614D01*
X31181414Y74734566D02*
X31276652Y74782185D01*
X31276652Y74782185D02*
X31324271Y74829805D01*
X31324271Y74829805D02*
X31371890Y74925043D01*
X31371890Y74925043D02*
X31371890Y75210757D01*
X31371890Y75210757D02*
X31324271Y75305995D01*
X31324271Y75305995D02*
X31276652Y75353614D01*
X31276652Y75353614D02*
X31181414Y75401233D01*
X31181414Y75401233D02*
X31038557Y75401233D01*
X31038557Y75401233D02*
X30943319Y75353614D01*
X30943319Y75353614D02*
X30895700Y75305995D01*
X30895700Y75305995D02*
X30848081Y75210757D01*
X30848081Y75210757D02*
X30848081Y74925043D01*
X30848081Y74925043D02*
X30895700Y74829805D01*
X30895700Y74829805D02*
X30943319Y74782185D01*
X30943319Y74782185D02*
X31038557Y74734566D01*
X31038557Y74734566D02*
X31181414Y74734566D01*
X30419509Y74734566D02*
X30419509Y75401233D01*
X30419509Y75305995D02*
X30371890Y75353614D01*
X30371890Y75353614D02*
X30276652Y75401233D01*
X30276652Y75401233D02*
X30133795Y75401233D01*
X30133795Y75401233D02*
X30038557Y75353614D01*
X30038557Y75353614D02*
X29990938Y75258376D01*
X29990938Y75258376D02*
X29990938Y74734566D01*
X29990938Y75258376D02*
X29943319Y75353614D01*
X29943319Y75353614D02*
X29848081Y75401233D01*
X29848081Y75401233D02*
X29705224Y75401233D01*
X29705224Y75401233D02*
X29609985Y75353614D01*
X29609985Y75353614D02*
X29562366Y75258376D01*
X29562366Y75258376D02*
X29562366Y74734566D01*
X28371891Y75782185D02*
X29229033Y74496471D01*
X28038557Y75401233D02*
X28038557Y74401233D01*
X28038557Y75353614D02*
X27943319Y75401233D01*
X27943319Y75401233D02*
X27752843Y75401233D01*
X27752843Y75401233D02*
X27657605Y75353614D01*
X27657605Y75353614D02*
X27609986Y75305995D01*
X27609986Y75305995D02*
X27562367Y75210757D01*
X27562367Y75210757D02*
X27562367Y74925043D01*
X27562367Y74925043D02*
X27609986Y74829805D01*
X27609986Y74829805D02*
X27657605Y74782185D01*
X27657605Y74782185D02*
X27752843Y74734566D01*
X27752843Y74734566D02*
X27943319Y74734566D01*
X27943319Y74734566D02*
X28038557Y74782185D01*
X26752843Y74782185D02*
X26848081Y74734566D01*
X26848081Y74734566D02*
X27038557Y74734566D01*
X27038557Y74734566D02*
X27133795Y74782185D01*
X27133795Y74782185D02*
X27181414Y74877424D01*
X27181414Y74877424D02*
X27181414Y75258376D01*
X27181414Y75258376D02*
X27133795Y75353614D01*
X27133795Y75353614D02*
X27038557Y75401233D01*
X27038557Y75401233D02*
X26848081Y75401233D01*
X26848081Y75401233D02*
X26752843Y75353614D01*
X26752843Y75353614D02*
X26705224Y75258376D01*
X26705224Y75258376D02*
X26705224Y75163138D01*
X26705224Y75163138D02*
X27181414Y75067900D01*
X25848081Y74734566D02*
X25848081Y75734566D01*
X25848081Y74782185D02*
X25943319Y74734566D01*
X25943319Y74734566D02*
X26133795Y74734566D01*
X26133795Y74734566D02*
X26229033Y74782185D01*
X26229033Y74782185D02*
X26276652Y74829805D01*
X26276652Y74829805D02*
X26324271Y74925043D01*
X26324271Y74925043D02*
X26324271Y75210757D01*
X26324271Y75210757D02*
X26276652Y75305995D01*
X26276652Y75305995D02*
X26229033Y75353614D01*
X26229033Y75353614D02*
X26133795Y75401233D01*
X26133795Y75401233D02*
X25943319Y75401233D01*
X25943319Y75401233D02*
X25848081Y75353614D01*
X24943319Y74734566D02*
X24943319Y75258376D01*
X24943319Y75258376D02*
X24990938Y75353614D01*
X24990938Y75353614D02*
X25086176Y75401233D01*
X25086176Y75401233D02*
X25276652Y75401233D01*
X25276652Y75401233D02*
X25371890Y75353614D01*
X24943319Y74782185D02*
X25038557Y74734566D01*
X25038557Y74734566D02*
X25276652Y74734566D01*
X25276652Y74734566D02*
X25371890Y74782185D01*
X25371890Y74782185D02*
X25419509Y74877424D01*
X25419509Y74877424D02*
X25419509Y74972662D01*
X25419509Y74972662D02*
X25371890Y75067900D01*
X25371890Y75067900D02*
X25276652Y75115519D01*
X25276652Y75115519D02*
X25038557Y75115519D01*
X25038557Y75115519D02*
X24943319Y75163138D01*
X24324271Y74734566D02*
X24419509Y74782185D01*
X24419509Y74782185D02*
X24467128Y74877424D01*
X24467128Y74877424D02*
X24467128Y75734566D01*
X23943318Y74734566D02*
X23943318Y75734566D01*
X23943318Y75353614D02*
X23848080Y75401233D01*
X23848080Y75401233D02*
X23657604Y75401233D01*
X23657604Y75401233D02*
X23562366Y75353614D01*
X23562366Y75353614D02*
X23514747Y75305995D01*
X23514747Y75305995D02*
X23467128Y75210757D01*
X23467128Y75210757D02*
X23467128Y74925043D01*
X23467128Y74925043D02*
X23514747Y74829805D01*
X23514747Y74829805D02*
X23562366Y74782185D01*
X23562366Y74782185D02*
X23657604Y74734566D01*
X23657604Y74734566D02*
X23848080Y74734566D01*
X23848080Y74734566D02*
X23943318Y74782185D01*
X22895699Y74734566D02*
X22990937Y74782185D01*
X22990937Y74782185D02*
X23038556Y74829805D01*
X23038556Y74829805D02*
X23086175Y74925043D01*
X23086175Y74925043D02*
X23086175Y75210757D01*
X23086175Y75210757D02*
X23038556Y75305995D01*
X23038556Y75305995D02*
X22990937Y75353614D01*
X22990937Y75353614D02*
X22895699Y75401233D01*
X22895699Y75401233D02*
X22752842Y75401233D01*
X22752842Y75401233D02*
X22657604Y75353614D01*
X22657604Y75353614D02*
X22609985Y75305995D01*
X22609985Y75305995D02*
X22562366Y75210757D01*
X22562366Y75210757D02*
X22562366Y74925043D01*
X22562366Y74925043D02*
X22609985Y74829805D01*
X22609985Y74829805D02*
X22657604Y74782185D01*
X22657604Y74782185D02*
X22752842Y74734566D01*
X22752842Y74734566D02*
X22895699Y74734566D01*
X21705223Y74734566D02*
X21705223Y75258376D01*
X21705223Y75258376D02*
X21752842Y75353614D01*
X21752842Y75353614D02*
X21848080Y75401233D01*
X21848080Y75401233D02*
X22038556Y75401233D01*
X22038556Y75401233D02*
X22133794Y75353614D01*
X21705223Y74782185D02*
X21800461Y74734566D01*
X21800461Y74734566D02*
X22038556Y74734566D01*
X22038556Y74734566D02*
X22133794Y74782185D01*
X22133794Y74782185D02*
X22181413Y74877424D01*
X22181413Y74877424D02*
X22181413Y74972662D01*
X22181413Y74972662D02*
X22133794Y75067900D01*
X22133794Y75067900D02*
X22038556Y75115519D01*
X22038556Y75115519D02*
X21800461Y75115519D01*
X21800461Y75115519D02*
X21705223Y75163138D01*
X21229032Y74734566D02*
X21229032Y75401233D01*
X21229032Y75210757D02*
X21181413Y75305995D01*
X21181413Y75305995D02*
X21133794Y75353614D01*
X21133794Y75353614D02*
X21038556Y75401233D01*
X21038556Y75401233D02*
X20943318Y75401233D01*
X20181413Y74734566D02*
X20181413Y75734566D01*
X20181413Y74782185D02*
X20276651Y74734566D01*
X20276651Y74734566D02*
X20467127Y74734566D01*
X20467127Y74734566D02*
X20562365Y74782185D01*
X20562365Y74782185D02*
X20609984Y74829805D01*
X20609984Y74829805D02*
X20657603Y74925043D01*
X20657603Y74925043D02*
X20657603Y75210757D01*
X20657603Y75210757D02*
X20609984Y75305995D01*
X20609984Y75305995D02*
X20562365Y75353614D01*
X20562365Y75353614D02*
X20467127Y75401233D01*
X20467127Y75401233D02*
X20276651Y75401233D01*
X20276651Y75401233D02*
X20181413Y75353614D01*
X43324272Y73648376D02*
X43181415Y73600757D01*
X43181415Y73600757D02*
X43133796Y73553138D01*
X43133796Y73553138D02*
X43086177Y73457900D01*
X43086177Y73457900D02*
X43086177Y73315043D01*
X43086177Y73315043D02*
X43133796Y73219805D01*
X43133796Y73219805D02*
X43181415Y73172185D01*
X43181415Y73172185D02*
X43276653Y73124566D01*
X43276653Y73124566D02*
X43657605Y73124566D01*
X43657605Y73124566D02*
X43657605Y74124566D01*
X43657605Y74124566D02*
X43324272Y74124566D01*
X43324272Y74124566D02*
X43229034Y74076947D01*
X43229034Y74076947D02*
X43181415Y74029328D01*
X43181415Y74029328D02*
X43133796Y73934090D01*
X43133796Y73934090D02*
X43133796Y73838852D01*
X43133796Y73838852D02*
X43181415Y73743614D01*
X43181415Y73743614D02*
X43229034Y73695995D01*
X43229034Y73695995D02*
X43324272Y73648376D01*
X43324272Y73648376D02*
X43657605Y73648376D01*
X42086177Y73219805D02*
X42133796Y73172185D01*
X42133796Y73172185D02*
X42276653Y73124566D01*
X42276653Y73124566D02*
X42371891Y73124566D01*
X42371891Y73124566D02*
X42514748Y73172185D01*
X42514748Y73172185D02*
X42609986Y73267424D01*
X42609986Y73267424D02*
X42657605Y73362662D01*
X42657605Y73362662D02*
X42705224Y73553138D01*
X42705224Y73553138D02*
X42705224Y73695995D01*
X42705224Y73695995D02*
X42657605Y73886471D01*
X42657605Y73886471D02*
X42609986Y73981709D01*
X42609986Y73981709D02*
X42514748Y74076947D01*
X42514748Y74076947D02*
X42371891Y74124566D01*
X42371891Y74124566D02*
X42276653Y74124566D01*
X42276653Y74124566D02*
X42133796Y74076947D01*
X42133796Y74076947D02*
X42086177Y74029328D01*
X41324272Y73648376D02*
X41181415Y73600757D01*
X41181415Y73600757D02*
X41133796Y73553138D01*
X41133796Y73553138D02*
X41086177Y73457900D01*
X41086177Y73457900D02*
X41086177Y73315043D01*
X41086177Y73315043D02*
X41133796Y73219805D01*
X41133796Y73219805D02*
X41181415Y73172185D01*
X41181415Y73172185D02*
X41276653Y73124566D01*
X41276653Y73124566D02*
X41657605Y73124566D01*
X41657605Y73124566D02*
X41657605Y74124566D01*
X41657605Y74124566D02*
X41324272Y74124566D01*
X41324272Y74124566D02*
X41229034Y74076947D01*
X41229034Y74076947D02*
X41181415Y74029328D01*
X41181415Y74029328D02*
X41133796Y73934090D01*
X41133796Y73934090D02*
X41133796Y73838852D01*
X41133796Y73838852D02*
X41181415Y73743614D01*
X41181415Y73743614D02*
X41229034Y73695995D01*
X41229034Y73695995D02*
X41324272Y73648376D01*
X41324272Y73648376D02*
X41657605Y73648376D01*
X40657605Y73219805D02*
X40609986Y73172185D01*
X40609986Y73172185D02*
X40657605Y73124566D01*
X40657605Y73124566D02*
X40705224Y73172185D01*
X40705224Y73172185D02*
X40657605Y73219805D01*
X40657605Y73219805D02*
X40657605Y73124566D01*
X40657605Y73743614D02*
X40609986Y73695995D01*
X40609986Y73695995D02*
X40657605Y73648376D01*
X40657605Y73648376D02*
X40705224Y73695995D01*
X40705224Y73695995D02*
X40657605Y73743614D01*
X40657605Y73743614D02*
X40657605Y73648376D01*
X39514748Y74124566D02*
X38895701Y74124566D01*
X38895701Y74124566D02*
X39229034Y73743614D01*
X39229034Y73743614D02*
X39086177Y73743614D01*
X39086177Y73743614D02*
X38990939Y73695995D01*
X38990939Y73695995D02*
X38943320Y73648376D01*
X38943320Y73648376D02*
X38895701Y73553138D01*
X38895701Y73553138D02*
X38895701Y73315043D01*
X38895701Y73315043D02*
X38943320Y73219805D01*
X38943320Y73219805D02*
X38990939Y73172185D01*
X38990939Y73172185D02*
X39086177Y73124566D01*
X39086177Y73124566D02*
X39371891Y73124566D01*
X39371891Y73124566D02*
X39467129Y73172185D01*
X39467129Y73172185D02*
X39514748Y73219805D01*
X38467129Y73219805D02*
X38419510Y73172185D01*
X38419510Y73172185D02*
X38467129Y73124566D01*
X38467129Y73124566D02*
X38514748Y73172185D01*
X38514748Y73172185D02*
X38467129Y73219805D01*
X38467129Y73219805D02*
X38467129Y73124566D01*
X38038558Y74029328D02*
X37990939Y74076947D01*
X37990939Y74076947D02*
X37895701Y74124566D01*
X37895701Y74124566D02*
X37657606Y74124566D01*
X37657606Y74124566D02*
X37562368Y74076947D01*
X37562368Y74076947D02*
X37514749Y74029328D01*
X37514749Y74029328D02*
X37467130Y73934090D01*
X37467130Y73934090D02*
X37467130Y73838852D01*
X37467130Y73838852D02*
X37514749Y73695995D01*
X37514749Y73695995D02*
X38086177Y73124566D01*
X38086177Y73124566D02*
X37467130Y73124566D01*
X37038558Y73219805D02*
X36990939Y73172185D01*
X36990939Y73172185D02*
X37038558Y73124566D01*
X37038558Y73124566D02*
X37086177Y73172185D01*
X37086177Y73172185D02*
X37038558Y73219805D01*
X37038558Y73219805D02*
X37038558Y73124566D01*
X36371892Y74124566D02*
X36276654Y74124566D01*
X36276654Y74124566D02*
X36181416Y74076947D01*
X36181416Y74076947D02*
X36133797Y74029328D01*
X36133797Y74029328D02*
X36086178Y73934090D01*
X36086178Y73934090D02*
X36038559Y73743614D01*
X36038559Y73743614D02*
X36038559Y73505519D01*
X36038559Y73505519D02*
X36086178Y73315043D01*
X36086178Y73315043D02*
X36133797Y73219805D01*
X36133797Y73219805D02*
X36181416Y73172185D01*
X36181416Y73172185D02*
X36276654Y73124566D01*
X36276654Y73124566D02*
X36371892Y73124566D01*
X36371892Y73124566D02*
X36467130Y73172185D01*
X36467130Y73172185D02*
X36514749Y73219805D01*
X36514749Y73219805D02*
X36562368Y73315043D01*
X36562368Y73315043D02*
X36609987Y73505519D01*
X36609987Y73505519D02*
X36609987Y73743614D01*
X36609987Y73743614D02*
X36562368Y73934090D01*
X36562368Y73934090D02*
X36514749Y74029328D01*
X36514749Y74029328D02*
X36467130Y74076947D01*
X36467130Y74076947D02*
X36371892Y74124566D01*
X35609987Y73505519D02*
X34848083Y73505519D01*
X33800464Y73124566D02*
X34133797Y73600757D01*
X34371892Y73124566D02*
X34371892Y74124566D01*
X34371892Y74124566D02*
X33990940Y74124566D01*
X33990940Y74124566D02*
X33895702Y74076947D01*
X33895702Y74076947D02*
X33848083Y74029328D01*
X33848083Y74029328D02*
X33800464Y73934090D01*
X33800464Y73934090D02*
X33800464Y73791233D01*
X33800464Y73791233D02*
X33848083Y73695995D01*
X33848083Y73695995D02*
X33895702Y73648376D01*
X33895702Y73648376D02*
X33990940Y73600757D01*
X33990940Y73600757D02*
X34371892Y73600757D01*
X32800464Y73219805D02*
X32848083Y73172185D01*
X32848083Y73172185D02*
X32990940Y73124566D01*
X32990940Y73124566D02*
X33086178Y73124566D01*
X33086178Y73124566D02*
X33229035Y73172185D01*
X33229035Y73172185D02*
X33324273Y73267424D01*
X33324273Y73267424D02*
X33371892Y73362662D01*
X33371892Y73362662D02*
X33419511Y73553138D01*
X33419511Y73553138D02*
X33419511Y73695995D01*
X33419511Y73695995D02*
X33371892Y73886471D01*
X33371892Y73886471D02*
X33324273Y73981709D01*
X33324273Y73981709D02*
X33229035Y74076947D01*
X33229035Y74076947D02*
X33086178Y74124566D01*
X33086178Y74124566D02*
X32990940Y74124566D01*
X32990940Y74124566D02*
X32848083Y74076947D01*
X32848083Y74076947D02*
X32800464Y74029328D01*
X31848083Y73124566D02*
X32419511Y73124566D01*
X32133797Y73124566D02*
X32133797Y74124566D01*
X32133797Y74124566D02*
X32229035Y73981709D01*
X32229035Y73981709D02*
X32324273Y73886471D01*
X32324273Y73886471D02*
X32419511Y73838852D01*
G36*
X16433013Y85597216D02*
G01*
X16398755Y85528700D01*
X16368348Y85498293D01*
X16299832Y85464035D01*
X16192385Y85464035D01*
X16123869Y85498293D01*
X16093462Y85528700D01*
X16059204Y85597216D01*
X16059204Y85885463D01*
X16433013Y85885463D01*
X16433013Y85597216D01*
G37*
G36*
X17202061Y83362793D02*
G01*
X15766347Y83362793D01*
X15766347Y83579511D01*
X15909204Y83579511D01*
X15926751Y83531302D01*
X15971180Y83505650D01*
X16021704Y83514559D01*
X16054681Y83553859D01*
X16059204Y83579511D01*
X16059204Y83980701D01*
X16385394Y83980701D01*
X16385394Y83722368D01*
X16402941Y83674159D01*
X16447370Y83648507D01*
X16497894Y83657416D01*
X16530871Y83696716D01*
X16535394Y83722368D01*
X16535394Y83980701D01*
X16984204Y83980701D01*
X17032413Y83998248D01*
X17058065Y84042677D01*
X17049156Y84093201D01*
X17009856Y84126178D01*
X16984204Y84130701D01*
X15984204Y84130701D01*
X15965895Y84124038D01*
X15946704Y84120653D01*
X15942353Y84115469D01*
X15935995Y84113154D01*
X15926252Y84096281D01*
X15913727Y84081353D01*
X15912009Y84071611D01*
X15910343Y84068725D01*
X15910921Y84065443D01*
X15909204Y84055701D01*
X15909204Y83579511D01*
X15766347Y83579511D01*
X15766347Y84484273D01*
X15909204Y84484273D01*
X15926751Y84436064D01*
X15971180Y84410412D01*
X16021704Y84419321D01*
X16054681Y84458621D01*
X16059204Y84484273D01*
X16059204Y84885463D01*
X16385394Y84885463D01*
X16385394Y84627130D01*
X16402941Y84578921D01*
X16447370Y84553269D01*
X16497894Y84562178D01*
X16530871Y84601478D01*
X16535394Y84627130D01*
X16535394Y84885463D01*
X16909204Y84885463D01*
X16909204Y84484273D01*
X16926751Y84436064D01*
X16971180Y84410412D01*
X17021704Y84419321D01*
X17054681Y84458621D01*
X17059204Y84484273D01*
X17059204Y84960463D01*
X17052540Y84978772D01*
X17049156Y84997963D01*
X17043971Y85002314D01*
X17041657Y85008672D01*
X17024783Y85018415D01*
X17009856Y85030940D01*
X17000113Y85032658D01*
X16997228Y85034324D01*
X16993945Y85033746D01*
X16984204Y85035463D01*
X15984204Y85035463D01*
X15965895Y85028800D01*
X15946704Y85025415D01*
X15942353Y85020231D01*
X15935995Y85017916D01*
X15926252Y85001043D01*
X15913727Y84986115D01*
X15912009Y84976373D01*
X15910343Y84973487D01*
X15910921Y84970205D01*
X15909204Y84960463D01*
X15909204Y84484273D01*
X15766347Y84484273D01*
X15766347Y85579511D01*
X15909204Y85579511D01*
X15910737Y85575298D01*
X15909696Y85570937D01*
X15917122Y85545970D01*
X15964741Y85450732D01*
X15965930Y85449607D01*
X15978790Y85431240D01*
X16026409Y85383621D01*
X16027890Y85382930D01*
X16045901Y85369572D01*
X16141139Y85321953D01*
X16145592Y85321441D01*
X16149028Y85318558D01*
X16174680Y85314035D01*
X16317537Y85314035D01*
X16321750Y85315569D01*
X16326111Y85314527D01*
X16351078Y85321953D01*
X16446316Y85369572D01*
X16447441Y85370762D01*
X16465808Y85383621D01*
X16513427Y85431240D01*
X16514118Y85432722D01*
X16527476Y85450732D01*
X16575095Y85545970D01*
X16575607Y85550424D01*
X16578490Y85553859D01*
X16582825Y85578451D01*
X16941195Y85327592D01*
X16990751Y85314322D01*
X17037245Y85336009D01*
X17058920Y85382509D01*
X17045635Y85432061D01*
X17027214Y85450477D01*
X16583013Y85761418D01*
X16583013Y85885463D01*
X16984204Y85885463D01*
X17032413Y85903010D01*
X17058065Y85947439D01*
X17049156Y85997963D01*
X17009856Y86030940D01*
X16984204Y86035463D01*
X15984204Y86035463D01*
X15965895Y86028800D01*
X15946704Y86025415D01*
X15942353Y86020231D01*
X15935995Y86017916D01*
X15926252Y86001043D01*
X15913727Y85986115D01*
X15912009Y85976373D01*
X15910343Y85973487D01*
X15910921Y85970205D01*
X15909204Y85960463D01*
X15909204Y85579511D01*
X15766347Y85579511D01*
X15766347Y86282796D01*
X15910015Y86282796D01*
X15934444Y86237682D01*
X15982155Y86218825D01*
X16007921Y86222646D01*
X17007921Y86555979D01*
X17009612Y86557322D01*
X17011770Y86557380D01*
X17029522Y86573122D01*
X17048107Y86587870D01*
X17048539Y86589985D01*
X17050156Y86591418D01*
X17053635Y86614887D01*
X17058393Y86638131D01*
X17057364Y86640031D01*
X17057681Y86642166D01*
X17045260Y86662384D01*
X17033964Y86683245D01*
X17031956Y86684039D01*
X17030826Y86685879D01*
X17007921Y86698281D01*
X16007921Y87031614D01*
X15956637Y87030213D01*
X15918252Y86996176D01*
X15910727Y86945427D01*
X15937582Y86901715D01*
X15960487Y86889312D01*
X16747033Y86627130D01*
X15960487Y86364948D01*
X15920301Y86333057D01*
X15910015Y86282796D01*
X15766347Y86282796D01*
X15766347Y87174471D01*
X17202061Y87174471D01*
X17202061Y83362793D01*
G37*
G36*
X25800294Y7524210D02*
G01*
X25877281Y7485716D01*
X25951394Y7411603D01*
X25989565Y7297090D01*
X25989565Y7146165D01*
X25139565Y7146165D01*
X25139565Y7297089D01*
X25177736Y7411603D01*
X25251850Y7485716D01*
X25328837Y7524210D01*
X25502371Y7567593D01*
X25626760Y7567593D01*
X25800294Y7524210D01*
G37*
G36*
X25827394Y8261641D02*
G01*
X25425280Y8127603D01*
X25425280Y8395680D01*
X25827394Y8261641D01*
G37*
G36*
X29020294Y9571829D02*
G01*
X29097281Y9533335D01*
X29171394Y9459222D01*
X29209565Y9344709D01*
X29209565Y9193784D01*
X28359565Y9193784D01*
X28359565Y9344708D01*
X28397736Y9459222D01*
X28471850Y9533335D01*
X28548837Y9571829D01*
X28722371Y9615212D01*
X28846760Y9615212D01*
X29020294Y9571829D01*
G37*
G36*
X25827394Y9880689D02*
G01*
X25425280Y9746651D01*
X25425280Y10014728D01*
X25827394Y9880689D01*
G37*
G36*
X29502422Y6805689D02*
G01*
X24846708Y6805689D01*
X24846708Y7071165D01*
X24989565Y7071165D01*
X24996228Y7052857D01*
X24999613Y7033665D01*
X25004797Y7029315D01*
X25007112Y7022956D01*
X25023985Y7013214D01*
X25038913Y7000688D01*
X25048655Y6998971D01*
X25051541Y6997304D01*
X25054823Y6997883D01*
X25064565Y6996165D01*
X26064565Y6996165D01*
X26082873Y7002829D01*
X26102065Y7006213D01*
X26106415Y7011398D01*
X26112774Y7013712D01*
X26122516Y7030586D01*
X26135042Y7045513D01*
X26136759Y7055256D01*
X26138426Y7058141D01*
X26137847Y7061424D01*
X26139565Y7071165D01*
X26139565Y7309260D01*
X26139005Y7310798D01*
X26135716Y7332978D01*
X26091661Y7465141D01*
X26600704Y7465141D01*
X26609613Y7414617D01*
X26648913Y7381640D01*
X26674565Y7377117D01*
X26980518Y7377117D01*
X26980518Y7071165D01*
X26998065Y7022956D01*
X27042494Y6997304D01*
X27093018Y7006213D01*
X27125995Y7045513D01*
X27130518Y7071165D01*
X27130518Y7356879D01*
X28209565Y7356879D01*
X28210124Y7355342D01*
X28213414Y7333161D01*
X28261034Y7190304D01*
X28263821Y7186792D01*
X28264212Y7182326D01*
X28279152Y7160989D01*
X28374390Y7065751D01*
X28375871Y7065061D01*
X28393882Y7051702D01*
X28489120Y7004083D01*
X28492648Y7003677D01*
X28504471Y6998404D01*
X28694947Y6950785D01*
X28698395Y6951146D01*
X28713137Y6948546D01*
X28855994Y6948546D01*
X28859251Y6949732D01*
X28874184Y6950785D01*
X29064660Y6998404D01*
X29067604Y7000393D01*
X29080011Y7004083D01*
X29175249Y7051702D01*
X29176374Y7052892D01*
X29194741Y7065751D01*
X29289979Y7160989D01*
X29291874Y7165054D01*
X29295694Y7167400D01*
X29308097Y7190305D01*
X29355716Y7333161D01*
X29355671Y7334797D01*
X29359565Y7356879D01*
X29359565Y7499736D01*
X29358031Y7503950D01*
X29359073Y7508311D01*
X29351647Y7533277D01*
X29304028Y7628515D01*
X29266774Y7663787D01*
X29215563Y7666862D01*
X29174358Y7636298D01*
X29162438Y7586400D01*
X29169864Y7561433D01*
X29209565Y7482031D01*
X29209565Y7369049D01*
X29171394Y7254536D01*
X29097281Y7180423D01*
X29020294Y7141930D01*
X28846760Y7098546D01*
X28722371Y7098546D01*
X28548837Y7141930D01*
X28471850Y7180423D01*
X28397736Y7254537D01*
X28359565Y7369051D01*
X28359565Y7439946D01*
X28397736Y7554460D01*
X28410870Y7567593D01*
X28638137Y7567593D01*
X28638137Y7452117D01*
X28655684Y7403908D01*
X28700113Y7378256D01*
X28750637Y7387165D01*
X28783614Y7426465D01*
X28788137Y7452117D01*
X28788137Y7642593D01*
X28781473Y7660902D01*
X28778089Y7680093D01*
X28772904Y7684444D01*
X28770590Y7690802D01*
X28753716Y7700545D01*
X28738789Y7713070D01*
X28729046Y7714788D01*
X28726161Y7716454D01*
X28722878Y7715876D01*
X28713137Y7717593D01*
X28379804Y7717593D01*
X28364418Y7711993D01*
X28348108Y7710566D01*
X28334695Y7701175D01*
X28331595Y7700046D01*
X28330584Y7698297D01*
X28326771Y7695626D01*
X28279152Y7648007D01*
X28277257Y7643945D01*
X28273437Y7641597D01*
X28261034Y7618692D01*
X28213414Y7475835D01*
X28213458Y7474200D01*
X28209565Y7452117D01*
X28209565Y7356879D01*
X27130518Y7356879D01*
X27130518Y7377117D01*
X27436470Y7377117D01*
X27484679Y7394664D01*
X27510331Y7439093D01*
X27501422Y7489617D01*
X27462122Y7522594D01*
X27436470Y7527117D01*
X27130518Y7527117D01*
X27130518Y7833069D01*
X27112971Y7881278D01*
X27068542Y7906930D01*
X27018018Y7898021D01*
X26985041Y7858721D01*
X26980518Y7833069D01*
X26980518Y7527117D01*
X26674565Y7527117D01*
X26626356Y7509570D01*
X26600704Y7465141D01*
X26091661Y7465141D01*
X26088097Y7475834D01*
X26085310Y7479345D01*
X26084920Y7483813D01*
X26069979Y7505150D01*
X25974741Y7600388D01*
X25973259Y7601079D01*
X25955249Y7614437D01*
X25860011Y7662056D01*
X25856482Y7662463D01*
X25844660Y7667735D01*
X25654184Y7715354D01*
X25650735Y7714994D01*
X25635994Y7717593D01*
X25493137Y7717593D01*
X25489879Y7716408D01*
X25474947Y7715354D01*
X25284471Y7667735D01*
X25281526Y7665747D01*
X25269120Y7662056D01*
X25173882Y7614437D01*
X25172758Y7613251D01*
X25154390Y7600388D01*
X25059152Y7505150D01*
X25057257Y7501088D01*
X25053437Y7498740D01*
X25041034Y7475835D01*
X24993414Y7332978D01*
X24993458Y7331343D01*
X24989565Y7309260D01*
X24989565Y7071165D01*
X24846708Y7071165D01*
X24846708Y7917307D01*
X24990376Y7917307D01*
X25014805Y7872193D01*
X25062516Y7853336D01*
X25088282Y7857157D01*
X26088282Y8190490D01*
X26089973Y8191833D01*
X26092131Y8191891D01*
X26109883Y8207633D01*
X26128468Y8222381D01*
X26128900Y8224496D01*
X26130517Y8225929D01*
X26133996Y8249398D01*
X26138754Y8272642D01*
X26137725Y8274542D01*
X26138042Y8276677D01*
X26125621Y8296895D01*
X26114325Y8317756D01*
X26112317Y8318550D01*
X26111187Y8320390D01*
X26088282Y8332792D01*
X25873164Y8404498D01*
X26599565Y8404498D01*
X26601098Y8400285D01*
X26600057Y8395923D01*
X26607483Y8370956D01*
X26655103Y8275718D01*
X26656294Y8274591D01*
X26669152Y8256227D01*
X26716771Y8208608D01*
X26763267Y8186927D01*
X26812822Y8200204D01*
X26842248Y8242230D01*
X26837777Y8293337D01*
X26822837Y8314674D01*
X26783823Y8353688D01*
X26749565Y8422205D01*
X26749565Y8624887D01*
X26783823Y8693404D01*
X26814231Y8723811D01*
X26882747Y8758069D01*
X27085432Y8758069D01*
X27153948Y8723811D01*
X27184355Y8693404D01*
X27218613Y8624888D01*
X27218613Y8422203D01*
X27184355Y8353687D01*
X27145342Y8314674D01*
X27145133Y8314227D01*
X27144688Y8314012D01*
X27134294Y8290981D01*
X27123661Y8268177D01*
X27123788Y8267702D01*
X27123585Y8267251D01*
X27130409Y8242990D01*
X27136938Y8218623D01*
X27137343Y8218340D01*
X27137477Y8217864D01*
X27158317Y8203653D01*
X27178964Y8189196D01*
X27179455Y8189239D01*
X27179863Y8188961D01*
X27205838Y8187013D01*
X27682028Y8234632D01*
X27696379Y8241543D01*
X27712065Y8244308D01*
X27718804Y8252341D01*
X27728252Y8256889D01*
X27734803Y8271407D01*
X27745042Y8283608D01*
X27748076Y8300817D01*
X27749355Y8303650D01*
X27748876Y8305353D01*
X27749565Y8309260D01*
X27749565Y8642259D01*
X28209566Y8642259D01*
X28216256Y8624128D01*
X28219613Y8605093D01*
X28224925Y8600636D01*
X28227326Y8594129D01*
X28247355Y8577475D01*
X29002148Y8146165D01*
X28284565Y8146165D01*
X28236356Y8128618D01*
X28210704Y8084189D01*
X28219613Y8033665D01*
X28258913Y8000688D01*
X28284565Y7996165D01*
X29284565Y7996165D01*
X29291082Y7998538D01*
X29297918Y7997363D01*
X29314615Y8007103D01*
X29332774Y8013712D01*
X29336241Y8019717D01*
X29342233Y8023212D01*
X29348762Y8041404D01*
X29358426Y8058141D01*
X29357221Y8064973D01*
X29359564Y8071499D01*
X29352873Y8089631D01*
X29349517Y8108665D01*
X29344204Y8113123D01*
X29341804Y8119629D01*
X29321776Y8136283D01*
X28566982Y8567593D01*
X29284565Y8567593D01*
X29332774Y8585140D01*
X29358426Y8629569D01*
X29349517Y8680093D01*
X29310217Y8713070D01*
X29284565Y8717593D01*
X28284565Y8717593D01*
X28278048Y8715222D01*
X28271213Y8716395D01*
X28254515Y8706656D01*
X28236356Y8700046D01*
X28232888Y8694041D01*
X28226897Y8690546D01*
X28220367Y8672355D01*
X28210704Y8655617D01*
X28211908Y8648786D01*
X28209566Y8642259D01*
X27749565Y8642259D01*
X27749565Y8785450D01*
X27732018Y8833659D01*
X27687589Y8859311D01*
X27637065Y8850402D01*
X27604088Y8811102D01*
X27599565Y8785450D01*
X27599565Y8377135D01*
X27351374Y8352316D01*
X27360695Y8370957D01*
X27361207Y8375411D01*
X27364090Y8378846D01*
X27368613Y8404498D01*
X27368613Y8642593D01*
X27367079Y8646807D01*
X27368121Y8651168D01*
X27360695Y8676134D01*
X27313076Y8771372D01*
X27311886Y8772498D01*
X27299027Y8790864D01*
X27251408Y8838483D01*
X27249926Y8839174D01*
X27231916Y8852532D01*
X27136678Y8900151D01*
X27132224Y8900664D01*
X27128789Y8903546D01*
X27103137Y8908069D01*
X26865042Y8908069D01*
X26860828Y8906536D01*
X26856467Y8907577D01*
X26831501Y8900151D01*
X26736263Y8852532D01*
X26735137Y8851343D01*
X26716771Y8838483D01*
X26669152Y8790864D01*
X26668460Y8789382D01*
X26655103Y8771373D01*
X26607483Y8676135D01*
X26606970Y8671681D01*
X26604088Y8668245D01*
X26599565Y8642593D01*
X26599565Y8404498D01*
X25873164Y8404498D01*
X25088282Y8666125D01*
X25036998Y8664724D01*
X24998613Y8630687D01*
X24991088Y8579938D01*
X25017943Y8536226D01*
X25040848Y8523823D01*
X25275280Y8445680D01*
X25275280Y8077603D01*
X25040848Y7999459D01*
X25000662Y7967568D01*
X24990376Y7917307D01*
X24846708Y7917307D01*
X24846708Y9084189D01*
X24990704Y9084189D01*
X24999613Y9033665D01*
X25038913Y9000688D01*
X25064565Y8996165D01*
X25989565Y8996165D01*
X25989565Y8785451D01*
X26007112Y8737242D01*
X26051541Y8711590D01*
X26102065Y8720499D01*
X26135042Y8759799D01*
X26139565Y8785451D01*
X26139565Y9356879D01*
X26122018Y9405088D01*
X26077589Y9430740D01*
X26027065Y9421831D01*
X25994088Y9382531D01*
X25989565Y9356879D01*
X25989565Y9146165D01*
X25064565Y9146165D01*
X25016356Y9128618D01*
X24990704Y9084189D01*
X24846708Y9084189D01*
X24846708Y9441116D01*
X26600376Y9441116D01*
X26601404Y9439217D01*
X26601088Y9437081D01*
X26613506Y9416868D01*
X26624805Y9396002D01*
X26626812Y9395209D01*
X26627943Y9393369D01*
X26650848Y9380966D01*
X27650848Y9047633D01*
X27702131Y9049034D01*
X27740517Y9083072D01*
X27745812Y9118784D01*
X28209565Y9118784D01*
X28216228Y9100476D01*
X28219613Y9081284D01*
X28224797Y9076934D01*
X28227112Y9070575D01*
X28243985Y9060833D01*
X28258913Y9048307D01*
X28268655Y9046590D01*
X28271541Y9044923D01*
X28274823Y9045502D01*
X28284565Y9043784D01*
X29284565Y9043784D01*
X29302873Y9050448D01*
X29322065Y9053832D01*
X29326415Y9059017D01*
X29332774Y9061331D01*
X29342516Y9078205D01*
X29355042Y9093132D01*
X29356759Y9102875D01*
X29358426Y9105760D01*
X29357847Y9109043D01*
X29359565Y9118784D01*
X29359565Y9356879D01*
X29359005Y9358417D01*
X29355716Y9380597D01*
X29308097Y9523453D01*
X29305310Y9526964D01*
X29304920Y9531432D01*
X29289979Y9552769D01*
X29194741Y9648007D01*
X29193259Y9648698D01*
X29175249Y9662056D01*
X29080011Y9709675D01*
X29076482Y9710082D01*
X29064660Y9715354D01*
X28874184Y9762973D01*
X28870735Y9762613D01*
X28855994Y9765212D01*
X28713137Y9765212D01*
X28709879Y9764027D01*
X28694947Y9762973D01*
X28504471Y9715354D01*
X28501526Y9713366D01*
X28489120Y9709675D01*
X28393882Y9662056D01*
X28392758Y9660870D01*
X28374390Y9648007D01*
X28279152Y9552769D01*
X28277257Y9548707D01*
X28273437Y9546359D01*
X28261034Y9523454D01*
X28213414Y9380597D01*
X28213458Y9378962D01*
X28209565Y9356879D01*
X28209565Y9118784D01*
X27745812Y9118784D01*
X27748042Y9133820D01*
X27721187Y9177533D01*
X27698282Y9189935D01*
X26911735Y9452117D01*
X27698282Y9714299D01*
X27738468Y9746190D01*
X27748754Y9796451D01*
X27724325Y9841565D01*
X27676613Y9860422D01*
X27650848Y9856601D01*
X26650848Y9523268D01*
X26649156Y9521926D01*
X26646998Y9521867D01*
X26629236Y9506118D01*
X26610662Y9491377D01*
X26610229Y9489264D01*
X26608613Y9487830D01*
X26605132Y9464360D01*
X26600376Y9441116D01*
X24846708Y9441116D01*
X24846708Y9536355D01*
X24990376Y9536355D01*
X25014805Y9491241D01*
X25062516Y9472384D01*
X25088282Y9476205D01*
X26088282Y9809538D01*
X26089973Y9810881D01*
X26092131Y9810939D01*
X26109883Y9826681D01*
X26128468Y9841429D01*
X26128900Y9843544D01*
X26130517Y9844977D01*
X26133996Y9868446D01*
X26138754Y9891690D01*
X26137725Y9893590D01*
X26138042Y9895725D01*
X26125621Y9915943D01*
X26114325Y9936804D01*
X26112317Y9937598D01*
X26111187Y9939438D01*
X26088282Y9951840D01*
X25088282Y10285173D01*
X25036998Y10283772D01*
X24998613Y10249735D01*
X24991088Y10198986D01*
X25017943Y10155274D01*
X25040848Y10142871D01*
X25275280Y10064728D01*
X25275280Y9696651D01*
X25040848Y9618507D01*
X25000662Y9586616D01*
X24990376Y9536355D01*
X24846708Y9536355D01*
X24846708Y10428030D01*
X29502422Y10428030D01*
X29502422Y6805689D01*
G37*
G36*
X39914986Y107960757D02*
G01*
X39645013Y107960757D01*
X39459071Y108022738D01*
X39337338Y108144470D01*
X39275035Y108269077D01*
X39207843Y108537848D01*
X39207843Y108733667D01*
X39275035Y109002438D01*
X39337338Y109127044D01*
X39459071Y109248777D01*
X39645013Y109310757D01*
X39914986Y109310757D01*
X39914986Y107960757D01*
G37*
G36*
X42707844Y107596471D02*
G01*
X38200700Y107596471D01*
X38200700Y107885757D01*
X38414986Y107885757D01*
X38432533Y107837548D01*
X38476962Y107811896D01*
X38527486Y107820805D01*
X38560463Y107860105D01*
X38564986Y107885757D01*
X38564986Y108528614D01*
X39057843Y108528614D01*
X39059028Y108525357D01*
X39060082Y108510424D01*
X39131510Y108224710D01*
X39133498Y108221766D01*
X39137189Y108209359D01*
X39208618Y108066502D01*
X39209804Y108065379D01*
X39222667Y108047010D01*
X39365524Y107904152D01*
X39369587Y107902258D01*
X39371935Y107898436D01*
X39394840Y107886034D01*
X39609126Y107814606D01*
X39610760Y107814651D01*
X39632843Y107810757D01*
X39989986Y107810757D01*
X40008294Y107817421D01*
X40027486Y107820805D01*
X40031836Y107825990D01*
X40038195Y107828304D01*
X40047937Y107845178D01*
X40060463Y107860105D01*
X40062180Y107869848D01*
X40063847Y107872733D01*
X40063268Y107876016D01*
X40064986Y107885757D01*
X40629272Y107885757D01*
X40646819Y107837548D01*
X40691248Y107811896D01*
X40741772Y107820805D01*
X40774749Y107860105D01*
X40779272Y107885757D01*
X41343558Y107885757D01*
X41361105Y107837548D01*
X41405534Y107811896D01*
X41456058Y107820805D01*
X41489035Y107860105D01*
X41493558Y107885757D01*
X41493558Y109047690D01*
X41850594Y108282611D01*
X41864361Y108268852D01*
X41875521Y108252904D01*
X41882079Y108251145D01*
X41886882Y108246345D01*
X41906275Y108244654D01*
X41925073Y108239611D01*
X41931225Y108242478D01*
X41937991Y108241888D01*
X41953935Y108253060D01*
X41971575Y108261279D01*
X41977272Y108269412D01*
X41980007Y108271327D01*
X41980867Y108274542D01*
X41986522Y108282612D01*
X42343558Y109047690D01*
X42343558Y107885757D01*
X42361105Y107837548D01*
X42405534Y107811896D01*
X42456058Y107820805D01*
X42489035Y107860105D01*
X42493558Y107885757D01*
X42493558Y109385757D01*
X42490132Y109395170D01*
X42491008Y109405147D01*
X42481614Y109418572D01*
X42476011Y109433966D01*
X42467338Y109438974D01*
X42461595Y109447181D01*
X42445769Y109451427D01*
X42431582Y109459618D01*
X42421718Y109457879D01*
X42412044Y109460474D01*
X42397192Y109453555D01*
X42381058Y109450709D01*
X42374619Y109443037D01*
X42365541Y109438806D01*
X42350594Y109417474D01*
X41918557Y108491682D01*
X41486522Y109417473D01*
X41479436Y109424554D01*
X41476011Y109433966D01*
X41461821Y109442159D01*
X41450234Y109453739D01*
X41440257Y109454610D01*
X41431582Y109459618D01*
X41415446Y109456773D01*
X41399125Y109458196D01*
X41390921Y109452449D01*
X41381058Y109450709D01*
X41370526Y109438159D01*
X41357109Y109428757D01*
X41354519Y109419083D01*
X41348081Y109411409D01*
X41343558Y109385757D01*
X41343558Y107885757D01*
X40779272Y107885757D01*
X40779272Y109385757D01*
X40761725Y109433966D01*
X40717296Y109459618D01*
X40666772Y109450709D01*
X40633795Y109411409D01*
X40629272Y109385757D01*
X40629272Y107885757D01*
X40064986Y107885757D01*
X40064986Y109385757D01*
X40058322Y109404066D01*
X40054938Y109423257D01*
X40049753Y109427608D01*
X40047439Y109433966D01*
X40030565Y109443709D01*
X40015638Y109456234D01*
X40005895Y109457952D01*
X40003010Y109459618D01*
X39999727Y109459040D01*
X39989986Y109460757D01*
X39632843Y109460757D01*
X39631305Y109460198D01*
X39609125Y109456908D01*
X39394840Y109385479D01*
X39391327Y109382692D01*
X39386861Y109382301D01*
X39365524Y109367361D01*
X39222667Y109224504D01*
X39221976Y109223023D01*
X39208618Y109205012D01*
X39137189Y109062155D01*
X39136782Y109058627D01*
X39131510Y109046804D01*
X39060082Y108761090D01*
X39060442Y108757642D01*
X39057843Y108742900D01*
X39057843Y108528614D01*
X38564986Y108528614D01*
X38564986Y109385757D01*
X38547439Y109433966D01*
X38503010Y109459618D01*
X38452486Y109450709D01*
X38419509Y109411409D01*
X38414986Y109385757D01*
X38414986Y107885757D01*
X38200700Y107885757D01*
X38200700Y109675043D01*
X42707844Y109675043D01*
X42707844Y107596471D01*
G37*
X116305004Y73806006D02*
X115638337Y73806006D01*
X115305004Y73806006D02*
X115352623Y73853625D01*
X115352623Y73853625D02*
X115400242Y73806006D01*
X115400242Y73806006D02*
X115352623Y73758387D01*
X115352623Y73758387D02*
X115305004Y73806006D01*
X115305004Y73806006D02*
X115400242Y73806006D01*
X115638337Y73329816D02*
X116305004Y73329816D01*
X115733575Y73329816D02*
X115685956Y73282197D01*
X115685956Y73282197D02*
X115638337Y73186959D01*
X115638337Y73186959D02*
X115638337Y73044102D01*
X115638337Y73044102D02*
X115685956Y72948864D01*
X115685956Y72948864D02*
X115781194Y72901245D01*
X115781194Y72901245D02*
X116305004Y72901245D01*
G36*
X26536749Y6295308D02*
G01*
X26608691Y6223366D01*
X26649033Y6061999D01*
X26649033Y5747134D01*
X26608691Y5585768D01*
X26536748Y5513824D01*
X26468233Y5479566D01*
X26313167Y5479566D01*
X26244651Y5513824D01*
X26172708Y5585768D01*
X26132367Y5747134D01*
X26132367Y6061999D01*
X26172708Y6223366D01*
X26244651Y6295308D01*
X26313167Y6329566D01*
X26468233Y6329566D01*
X26536749Y6295308D01*
G37*
G36*
X28363319Y5479566D02*
G01*
X28212394Y5479566D01*
X28097881Y5517737D01*
X28023768Y5591851D01*
X27985274Y5668838D01*
X27941891Y5842372D01*
X27941891Y5966761D01*
X27985274Y6140295D01*
X28023768Y6217282D01*
X28097881Y6291395D01*
X28212394Y6329566D01*
X28363319Y6329566D01*
X28363319Y5479566D01*
G37*
G36*
X30370462Y5186709D02*
G01*
X23935887Y5186709D01*
X23935887Y6417590D01*
X24078744Y6417590D01*
X24087653Y6367066D01*
X24126953Y6334089D01*
X24152605Y6329566D01*
X24363319Y6329566D01*
X24363319Y5404566D01*
X24380866Y5356357D01*
X24425295Y5330705D01*
X24475819Y5339614D01*
X24508796Y5378914D01*
X24513319Y5404566D01*
X24513319Y5595043D01*
X24982367Y5595043D01*
X24983900Y5590830D01*
X24982859Y5586469D01*
X24990285Y5561502D01*
X25037904Y5466264D01*
X25039092Y5465139D01*
X25051952Y5446773D01*
X25099571Y5399153D01*
X25101052Y5398463D01*
X25119064Y5385103D01*
X25214302Y5337484D01*
X25218755Y5336972D01*
X25222191Y5334089D01*
X25247843Y5329566D01*
X25438319Y5329566D01*
X25442532Y5331100D01*
X25446893Y5330058D01*
X25471860Y5337484D01*
X25567098Y5385103D01*
X25568222Y5386291D01*
X25586591Y5399153D01*
X25634209Y5446772D01*
X25634899Y5448254D01*
X25648258Y5466264D01*
X25695877Y5561502D01*
X25696389Y5565956D01*
X25699272Y5569391D01*
X25703795Y5595043D01*
X25703795Y5737900D01*
X25982367Y5737900D01*
X25983552Y5734643D01*
X25984606Y5719710D01*
X26032225Y5529234D01*
X26036367Y5523102D01*
X26037012Y5515728D01*
X26051953Y5494391D01*
X26147191Y5399152D01*
X26148673Y5398461D01*
X26166683Y5385103D01*
X26261921Y5337484D01*
X26266374Y5336972D01*
X26269810Y5334089D01*
X26295462Y5329566D01*
X26485938Y5329566D01*
X26490151Y5331100D01*
X26494512Y5330058D01*
X26519479Y5337484D01*
X26614717Y5385103D01*
X26615842Y5386293D01*
X26634209Y5399152D01*
X26729448Y5494392D01*
X26732575Y5501100D01*
X26738565Y5505445D01*
X26749175Y5529234D01*
X26796794Y5719710D01*
X26796433Y5723159D01*
X26799033Y5737900D01*
X26799033Y5833138D01*
X27791891Y5833138D01*
X27793076Y5829881D01*
X27794130Y5814948D01*
X27841749Y5624472D01*
X27843737Y5621528D01*
X27847428Y5609121D01*
X27895047Y5513883D01*
X27896233Y5512760D01*
X27909096Y5494391D01*
X28004334Y5399152D01*
X28008398Y5397257D01*
X28010745Y5393437D01*
X28033650Y5381034D01*
X28176506Y5333415D01*
X28178141Y5333460D01*
X28200224Y5329566D01*
X28438319Y5329566D01*
X28456627Y5336230D01*
X28475819Y5339614D01*
X28480169Y5344799D01*
X28486528Y5347113D01*
X28496270Y5363987D01*
X28508796Y5378914D01*
X28510513Y5388657D01*
X28512180Y5391542D01*
X28511601Y5394825D01*
X28513319Y5404566D01*
X28513319Y5417590D01*
X28793030Y5417590D01*
X28801939Y5367066D01*
X28841239Y5334089D01*
X28866891Y5329566D01*
X29343081Y5329566D01*
X29361389Y5336230D01*
X29380581Y5339614D01*
X29384931Y5344799D01*
X29391290Y5347113D01*
X29401032Y5363987D01*
X29413558Y5378914D01*
X29415275Y5388657D01*
X29416942Y5391542D01*
X29416363Y5394825D01*
X29418081Y5404566D01*
X29418081Y5417590D01*
X29602554Y5417590D01*
X29611463Y5367066D01*
X29650763Y5334089D01*
X29676415Y5329566D01*
X30152605Y5329566D01*
X30170913Y5336230D01*
X30190105Y5339614D01*
X30194455Y5344799D01*
X30200814Y5347113D01*
X30210556Y5363987D01*
X30223082Y5378914D01*
X30224799Y5388657D01*
X30226466Y5391542D01*
X30225887Y5394825D01*
X30227605Y5404566D01*
X30227605Y6404566D01*
X30210058Y6452775D01*
X30165629Y6478427D01*
X30115105Y6469518D01*
X30082128Y6430218D01*
X30077605Y6404566D01*
X30077605Y5479566D01*
X29676415Y5479566D01*
X29628206Y5462019D01*
X29602554Y5417590D01*
X29418081Y5417590D01*
X29418081Y6404566D01*
X29411417Y6422875D01*
X29408033Y6442066D01*
X29402848Y6446417D01*
X29400534Y6452775D01*
X29383660Y6462518D01*
X29368733Y6475043D01*
X29358990Y6476761D01*
X29356105Y6478427D01*
X29352822Y6477849D01*
X29343081Y6479566D01*
X28866891Y6479566D01*
X28818682Y6462019D01*
X28793030Y6417590D01*
X28801939Y6367066D01*
X28841239Y6334089D01*
X28866891Y6329566D01*
X29268081Y6329566D01*
X29268081Y6003376D01*
X29009748Y6003376D01*
X28961539Y5985829D01*
X28935887Y5941400D01*
X28944796Y5890876D01*
X28984096Y5857899D01*
X29009748Y5853376D01*
X29268081Y5853376D01*
X29268081Y5479566D01*
X28866891Y5479566D01*
X28818682Y5462019D01*
X28793030Y5417590D01*
X28513319Y5417590D01*
X28513319Y6404566D01*
X28506655Y6422875D01*
X28503271Y6442066D01*
X28498086Y6446417D01*
X28495772Y6452775D01*
X28478898Y6462518D01*
X28463971Y6475043D01*
X28454228Y6476761D01*
X28451343Y6478427D01*
X28448060Y6477849D01*
X28438319Y6479566D01*
X28200224Y6479566D01*
X28198686Y6479007D01*
X28176506Y6475717D01*
X28033650Y6428098D01*
X28030139Y6425312D01*
X28025671Y6424921D01*
X28004334Y6409980D01*
X27909096Y6314742D01*
X27908405Y6313261D01*
X27895047Y6295250D01*
X27847428Y6200012D01*
X27847021Y6196484D01*
X27841749Y6184661D01*
X27794130Y5994185D01*
X27794490Y5990737D01*
X27791891Y5975995D01*
X27791891Y5833138D01*
X26799033Y5833138D01*
X26799033Y6071233D01*
X26797847Y6074491D01*
X26796794Y6089423D01*
X26749175Y6279899D01*
X26745033Y6286032D01*
X26744388Y6293405D01*
X26729447Y6314742D01*
X26634209Y6409980D01*
X26632727Y6410671D01*
X26614717Y6424029D01*
X26519479Y6471648D01*
X26515025Y6472161D01*
X26511590Y6475043D01*
X26485938Y6479566D01*
X26295462Y6479566D01*
X26291248Y6478033D01*
X26286887Y6479074D01*
X26261921Y6471648D01*
X26166683Y6424029D01*
X26165559Y6422843D01*
X26147191Y6409980D01*
X26051953Y6314742D01*
X26048825Y6308035D01*
X26042835Y6303688D01*
X26032225Y6279899D01*
X25984606Y6089423D01*
X25984966Y6085975D01*
X25982367Y6071233D01*
X25982367Y5737900D01*
X25703795Y5737900D01*
X25703795Y6404566D01*
X25686248Y6452775D01*
X25641819Y6478427D01*
X25591295Y6469518D01*
X25558318Y6430218D01*
X25553795Y6404566D01*
X25553795Y5612748D01*
X25519536Y5544232D01*
X25489129Y5513824D01*
X25420614Y5479566D01*
X25265548Y5479566D01*
X25197032Y5513824D01*
X25166625Y5544232D01*
X25132367Y5612748D01*
X25132367Y6404566D01*
X25114820Y6452775D01*
X25070391Y6478427D01*
X25019867Y6469518D01*
X24986890Y6430218D01*
X24982367Y6404566D01*
X24982367Y5595043D01*
X24513319Y5595043D01*
X24513319Y6329566D01*
X24724033Y6329566D01*
X24772242Y6347113D01*
X24797894Y6391542D01*
X24788985Y6442066D01*
X24749685Y6475043D01*
X24724033Y6479566D01*
X24152605Y6479566D01*
X24104396Y6462019D01*
X24078744Y6417590D01*
X23935887Y6417590D01*
X23935887Y6622423D01*
X30370462Y6622423D01*
X30370462Y5186709D01*
G37*
G36*
X164632060Y93302131D02*
G01*
X163196348Y93302131D01*
X163196348Y94091082D01*
X163339205Y94091082D01*
X163345895Y94072951D01*
X163349252Y94053916D01*
X163354564Y94049459D01*
X163356965Y94042952D01*
X163376994Y94026298D01*
X164131787Y93594988D01*
X163414204Y93594988D01*
X163365995Y93577441D01*
X163340343Y93533012D01*
X163349252Y93482488D01*
X163388552Y93449511D01*
X163414204Y93444988D01*
X164414204Y93444988D01*
X164420721Y93447361D01*
X164427557Y93446186D01*
X164444254Y93455926D01*
X164462413Y93462535D01*
X164465880Y93468540D01*
X164471872Y93472035D01*
X164478401Y93490227D01*
X164488065Y93506964D01*
X164486860Y93513796D01*
X164489203Y93520322D01*
X164482512Y93538454D01*
X164479156Y93557488D01*
X164473843Y93561946D01*
X164471443Y93568452D01*
X164451415Y93585106D01*
X163696621Y94016416D01*
X164414204Y94016416D01*
X164462413Y94033963D01*
X164488065Y94078392D01*
X164479156Y94128916D01*
X164439856Y94161893D01*
X164414204Y94166416D01*
X163414204Y94166416D01*
X163407687Y94164045D01*
X163400852Y94165218D01*
X163384154Y94155479D01*
X163365995Y94148869D01*
X163362527Y94142864D01*
X163356536Y94139369D01*
X163350006Y94121178D01*
X163340343Y94104440D01*
X163341547Y94097609D01*
X163339205Y94091082D01*
X163196348Y94091082D01*
X163196348Y94580630D01*
X163340343Y94580630D01*
X163349252Y94530106D01*
X163388552Y94497129D01*
X163414204Y94492606D01*
X164414204Y94492606D01*
X164462413Y94510153D01*
X164488065Y94554582D01*
X164479156Y94605106D01*
X164439856Y94638083D01*
X164414204Y94642606D01*
X163414204Y94642606D01*
X163365995Y94625059D01*
X163340343Y94580630D01*
X163196348Y94580630D01*
X163196348Y94785463D01*
X164632060Y94785463D01*
X164632060Y93302131D01*
G37*
G36*
X46107940Y104695308D02*
G01*
X46179882Y104623366D01*
X46220224Y104461999D01*
X46220224Y104147134D01*
X46179882Y103985768D01*
X46107939Y103913824D01*
X46039424Y103879566D01*
X45884358Y103879566D01*
X45815842Y103913824D01*
X45743899Y103985768D01*
X45703558Y104147134D01*
X45703558Y104461999D01*
X45743899Y104623366D01*
X45815842Y104695308D01*
X45884358Y104729566D01*
X46039424Y104729566D01*
X46107940Y104695308D01*
G37*
G36*
X46513081Y103586709D02*
G01*
X43507078Y103586709D01*
X43507078Y104817590D01*
X43649935Y104817590D01*
X43658844Y104767066D01*
X43698144Y104734089D01*
X43723796Y104729566D01*
X43934510Y104729566D01*
X43934510Y103804566D01*
X43952057Y103756357D01*
X43996486Y103730705D01*
X44047010Y103739614D01*
X44079987Y103778914D01*
X44084510Y103804566D01*
X44084510Y103995043D01*
X44553558Y103995043D01*
X44555091Y103990830D01*
X44554050Y103986469D01*
X44561476Y103961502D01*
X44609095Y103866264D01*
X44610283Y103865139D01*
X44623143Y103846773D01*
X44670762Y103799153D01*
X44672243Y103798463D01*
X44690255Y103785103D01*
X44785493Y103737484D01*
X44789946Y103736972D01*
X44793382Y103734089D01*
X44819034Y103729566D01*
X45009510Y103729566D01*
X45013723Y103731100D01*
X45018084Y103730058D01*
X45043051Y103737484D01*
X45138289Y103785103D01*
X45139413Y103786291D01*
X45157782Y103799153D01*
X45205400Y103846772D01*
X45206090Y103848254D01*
X45219449Y103866264D01*
X45267068Y103961502D01*
X45267580Y103965956D01*
X45270463Y103969391D01*
X45274986Y103995043D01*
X45274986Y104137900D01*
X45553558Y104137900D01*
X45554743Y104134643D01*
X45555797Y104119710D01*
X45603416Y103929234D01*
X45607558Y103923102D01*
X45608203Y103915728D01*
X45623144Y103894391D01*
X45718382Y103799152D01*
X45719864Y103798461D01*
X45737874Y103785103D01*
X45833112Y103737484D01*
X45837565Y103736972D01*
X45841001Y103734089D01*
X45866653Y103729566D01*
X46057129Y103729566D01*
X46061342Y103731100D01*
X46065703Y103730058D01*
X46090670Y103737484D01*
X46185908Y103785103D01*
X46187033Y103786293D01*
X46205400Y103799152D01*
X46300639Y103894392D01*
X46303766Y103901100D01*
X46309756Y103905445D01*
X46320366Y103929234D01*
X46367985Y104119710D01*
X46367624Y104123159D01*
X46370224Y104137900D01*
X46370224Y104471233D01*
X46369038Y104474491D01*
X46367985Y104489423D01*
X46320366Y104679899D01*
X46316224Y104686032D01*
X46315579Y104693405D01*
X46300638Y104714742D01*
X46205400Y104809980D01*
X46203918Y104810671D01*
X46185908Y104824029D01*
X46090670Y104871648D01*
X46086216Y104872161D01*
X46082781Y104875043D01*
X46057129Y104879566D01*
X45866653Y104879566D01*
X45862439Y104878033D01*
X45858078Y104879074D01*
X45833112Y104871648D01*
X45737874Y104824029D01*
X45736750Y104822843D01*
X45718382Y104809980D01*
X45623144Y104714742D01*
X45620016Y104708035D01*
X45614026Y104703688D01*
X45603416Y104679899D01*
X45555797Y104489423D01*
X45556157Y104485975D01*
X45553558Y104471233D01*
X45553558Y104137900D01*
X45274986Y104137900D01*
X45274986Y104804566D01*
X45257439Y104852775D01*
X45213010Y104878427D01*
X45162486Y104869518D01*
X45129509Y104830218D01*
X45124986Y104804566D01*
X45124986Y104012748D01*
X45090727Y103944232D01*
X45060320Y103913824D01*
X44991805Y103879566D01*
X44836739Y103879566D01*
X44768223Y103913824D01*
X44737816Y103944232D01*
X44703558Y104012748D01*
X44703558Y104804566D01*
X44686011Y104852775D01*
X44641582Y104878427D01*
X44591058Y104869518D01*
X44558081Y104830218D01*
X44553558Y104804566D01*
X44553558Y103995043D01*
X44084510Y103995043D01*
X44084510Y104729566D01*
X44295224Y104729566D01*
X44343433Y104747113D01*
X44369085Y104791542D01*
X44360176Y104842066D01*
X44320876Y104875043D01*
X44295224Y104879566D01*
X43723796Y104879566D01*
X43675587Y104862019D01*
X43649935Y104817590D01*
X43507078Y104817590D01*
X43507078Y105022423D01*
X46513081Y105022423D01*
X46513081Y103586709D01*
G37*
G36*
X10772060Y83542131D02*
G01*
X9336348Y83542131D01*
X9336348Y84331082D01*
X9479205Y84331082D01*
X9485895Y84312951D01*
X9489252Y84293916D01*
X9494564Y84289459D01*
X9496965Y84282952D01*
X9516994Y84266298D01*
X10271787Y83834988D01*
X9554204Y83834988D01*
X9505995Y83817441D01*
X9480343Y83773012D01*
X9489252Y83722488D01*
X9528552Y83689511D01*
X9554204Y83684988D01*
X10554204Y83684988D01*
X10560721Y83687361D01*
X10567557Y83686186D01*
X10584254Y83695926D01*
X10602413Y83702535D01*
X10605880Y83708540D01*
X10611872Y83712035D01*
X10618401Y83730227D01*
X10628065Y83746964D01*
X10626860Y83753796D01*
X10629203Y83760322D01*
X10622512Y83778454D01*
X10619156Y83797488D01*
X10613843Y83801946D01*
X10611443Y83808452D01*
X10591415Y83825106D01*
X9836621Y84256416D01*
X10554204Y84256416D01*
X10602413Y84273963D01*
X10628065Y84318392D01*
X10619156Y84368916D01*
X10579856Y84401893D01*
X10554204Y84406416D01*
X9554204Y84406416D01*
X9547687Y84404045D01*
X9540852Y84405218D01*
X9524154Y84395479D01*
X9505995Y84388869D01*
X9502527Y84382864D01*
X9496536Y84379369D01*
X9490006Y84361178D01*
X9480343Y84344440D01*
X9481547Y84337609D01*
X9479205Y84331082D01*
X9336348Y84331082D01*
X9336348Y84820630D01*
X9480343Y84820630D01*
X9489252Y84770106D01*
X9528552Y84737129D01*
X9554204Y84732606D01*
X10554204Y84732606D01*
X10602413Y84750153D01*
X10628065Y84794582D01*
X10619156Y84845106D01*
X10579856Y84878083D01*
X10554204Y84882606D01*
X9554204Y84882606D01*
X9505995Y84865059D01*
X9480343Y84820630D01*
X9336348Y84820630D01*
X9336348Y85025463D01*
X10772060Y85025463D01*
X10772060Y83542131D01*
G37*
G36*
X157413013Y93347216D02*
G01*
X157378755Y93278700D01*
X157348348Y93248293D01*
X157279832Y93214035D01*
X157172385Y93214035D01*
X157103869Y93248293D01*
X157073462Y93278700D01*
X157039204Y93347216D01*
X157039204Y93635463D01*
X157413013Y93635463D01*
X157413013Y93347216D01*
G37*
G36*
X158182061Y91112793D02*
G01*
X156746347Y91112793D01*
X156746347Y91329511D01*
X156889204Y91329511D01*
X156906751Y91281302D01*
X156951180Y91255650D01*
X157001704Y91264559D01*
X157034681Y91303859D01*
X157039204Y91329511D01*
X157039204Y91730701D01*
X157365394Y91730701D01*
X157365394Y91472368D01*
X157382941Y91424159D01*
X157427370Y91398507D01*
X157477894Y91407416D01*
X157510871Y91446716D01*
X157515394Y91472368D01*
X157515394Y91730701D01*
X157964204Y91730701D01*
X158012413Y91748248D01*
X158038065Y91792677D01*
X158029156Y91843201D01*
X157989856Y91876178D01*
X157964204Y91880701D01*
X156964204Y91880701D01*
X156945895Y91874038D01*
X156926704Y91870653D01*
X156922353Y91865469D01*
X156915995Y91863154D01*
X156906252Y91846281D01*
X156893727Y91831353D01*
X156892009Y91821611D01*
X156890343Y91818725D01*
X156890921Y91815443D01*
X156889204Y91805701D01*
X156889204Y91329511D01*
X156746347Y91329511D01*
X156746347Y92234273D01*
X156889204Y92234273D01*
X156906751Y92186064D01*
X156951180Y92160412D01*
X157001704Y92169321D01*
X157034681Y92208621D01*
X157039204Y92234273D01*
X157039204Y92635463D01*
X157365394Y92635463D01*
X157365394Y92377130D01*
X157382941Y92328921D01*
X157427370Y92303269D01*
X157477894Y92312178D01*
X157510871Y92351478D01*
X157515394Y92377130D01*
X157515394Y92635463D01*
X157889204Y92635463D01*
X157889204Y92234273D01*
X157906751Y92186064D01*
X157951180Y92160412D01*
X158001704Y92169321D01*
X158034681Y92208621D01*
X158039204Y92234273D01*
X158039204Y92710463D01*
X158032540Y92728772D01*
X158029156Y92747963D01*
X158023971Y92752314D01*
X158021657Y92758672D01*
X158004783Y92768415D01*
X157989856Y92780940D01*
X157980113Y92782658D01*
X157977228Y92784324D01*
X157973945Y92783746D01*
X157964204Y92785463D01*
X156964204Y92785463D01*
X156945895Y92778800D01*
X156926704Y92775415D01*
X156922353Y92770231D01*
X156915995Y92767916D01*
X156906252Y92751043D01*
X156893727Y92736115D01*
X156892009Y92726373D01*
X156890343Y92723487D01*
X156890921Y92720205D01*
X156889204Y92710463D01*
X156889204Y92234273D01*
X156746347Y92234273D01*
X156746347Y93329511D01*
X156889204Y93329511D01*
X156890737Y93325298D01*
X156889696Y93320937D01*
X156897122Y93295970D01*
X156944741Y93200732D01*
X156945930Y93199607D01*
X156958790Y93181240D01*
X157006409Y93133621D01*
X157007890Y93132930D01*
X157025901Y93119572D01*
X157121139Y93071953D01*
X157125592Y93071441D01*
X157129028Y93068558D01*
X157154680Y93064035D01*
X157297537Y93064035D01*
X157301750Y93065569D01*
X157306111Y93064527D01*
X157331078Y93071953D01*
X157426316Y93119572D01*
X157427441Y93120762D01*
X157445808Y93133621D01*
X157493427Y93181240D01*
X157494118Y93182722D01*
X157507476Y93200732D01*
X157555095Y93295970D01*
X157555607Y93300424D01*
X157558490Y93303859D01*
X157562825Y93328451D01*
X157921195Y93077592D01*
X157970751Y93064322D01*
X158017245Y93086009D01*
X158038920Y93132509D01*
X158025635Y93182061D01*
X158007214Y93200477D01*
X157563013Y93511418D01*
X157563013Y93635463D01*
X157964204Y93635463D01*
X158012413Y93653010D01*
X158038065Y93697439D01*
X158029156Y93747963D01*
X157989856Y93780940D01*
X157964204Y93785463D01*
X156964204Y93785463D01*
X156945895Y93778800D01*
X156926704Y93775415D01*
X156922353Y93770231D01*
X156915995Y93767916D01*
X156906252Y93751043D01*
X156893727Y93736115D01*
X156892009Y93726373D01*
X156890343Y93723487D01*
X156890921Y93720205D01*
X156889204Y93710463D01*
X156889204Y93329511D01*
X156746347Y93329511D01*
X156746347Y94032796D01*
X156890015Y94032796D01*
X156914444Y93987682D01*
X156962155Y93968825D01*
X156987921Y93972646D01*
X157987921Y94305979D01*
X157989612Y94307322D01*
X157991770Y94307380D01*
X158009522Y94323122D01*
X158028107Y94337870D01*
X158028539Y94339985D01*
X158030156Y94341418D01*
X158033635Y94364887D01*
X158038393Y94388131D01*
X158037364Y94390031D01*
X158037681Y94392166D01*
X158025260Y94412384D01*
X158013964Y94433245D01*
X158011956Y94434039D01*
X158010826Y94435879D01*
X157987921Y94448281D01*
X156987921Y94781614D01*
X156936637Y94780213D01*
X156898252Y94746176D01*
X156890727Y94695427D01*
X156917582Y94651715D01*
X156940487Y94639312D01*
X157727033Y94377130D01*
X156940487Y94114948D01*
X156900301Y94083057D01*
X156890015Y94032796D01*
X156746347Y94032796D01*
X156746347Y94924471D01*
X158182061Y94924471D01*
X158182061Y91112793D01*
G37*
X13242479Y8179566D02*
X13242479Y9179566D01*
X13242479Y8703376D02*
X12671051Y8703376D01*
X12671051Y8179566D02*
X12671051Y9179566D01*
X11671051Y8179566D02*
X12242479Y8179566D01*
X11956765Y8179566D02*
X11956765Y9179566D01*
X11956765Y9179566D02*
X12052003Y9036709D01*
X12052003Y9036709D02*
X12147241Y8941471D01*
X12147241Y8941471D02*
X12242479Y8893852D01*
X11337717Y9179566D02*
X10718670Y9179566D01*
X10718670Y9179566D02*
X11052003Y8798614D01*
X11052003Y8798614D02*
X10909146Y8798614D01*
X10909146Y8798614D02*
X10813908Y8750995D01*
X10813908Y8750995D02*
X10766289Y8703376D01*
X10766289Y8703376D02*
X10718670Y8608138D01*
X10718670Y8608138D02*
X10718670Y8370043D01*
X10718670Y8370043D02*
X10766289Y8274805D01*
X10766289Y8274805D02*
X10813908Y8227185D01*
X10813908Y8227185D02*
X10909146Y8179566D01*
X10909146Y8179566D02*
X11194860Y8179566D01*
X11194860Y8179566D02*
X11290098Y8227185D01*
X11290098Y8227185D02*
X11337717Y8274805D01*
X87676289Y60559566D02*
X87676289Y61559566D01*
X87676289Y61083376D02*
X87104861Y61083376D01*
X87104861Y60559566D02*
X87104861Y61559566D01*
X86581051Y60559566D02*
X86390575Y60559566D01*
X86390575Y60559566D02*
X86295337Y60607185D01*
X86295337Y60607185D02*
X86247718Y60654805D01*
X86247718Y60654805D02*
X86152480Y60797662D01*
X86152480Y60797662D02*
X86104861Y60988138D01*
X86104861Y60988138D02*
X86104861Y61369090D01*
X86104861Y61369090D02*
X86152480Y61464328D01*
X86152480Y61464328D02*
X86200099Y61511947D01*
X86200099Y61511947D02*
X86295337Y61559566D01*
X86295337Y61559566D02*
X86485813Y61559566D01*
X86485813Y61559566D02*
X86581051Y61511947D01*
X86581051Y61511947D02*
X86628670Y61464328D01*
X86628670Y61464328D02*
X86676289Y61369090D01*
X86676289Y61369090D02*
X86676289Y61130995D01*
X86676289Y61130995D02*
X86628670Y61035757D01*
X86628670Y61035757D02*
X86581051Y60988138D01*
X86581051Y60988138D02*
X86485813Y60940519D01*
X86485813Y60940519D02*
X86295337Y60940519D01*
X86295337Y60940519D02*
X86200099Y60988138D01*
X86200099Y60988138D02*
X86152480Y61035757D01*
X86152480Y61035757D02*
X86104861Y61130995D01*
X13272479Y60139566D02*
X13272479Y61139566D01*
X13272479Y60663376D02*
X12701051Y60663376D01*
X12701051Y60139566D02*
X12701051Y61139566D01*
X11701051Y60139566D02*
X12272479Y60139566D01*
X11986765Y60139566D02*
X11986765Y61139566D01*
X11986765Y61139566D02*
X12082003Y60996709D01*
X12082003Y60996709D02*
X12177241Y60901471D01*
X12177241Y60901471D02*
X12272479Y60853852D01*
X11082003Y61139566D02*
X10986765Y61139566D01*
X10986765Y61139566D02*
X10891527Y61091947D01*
X10891527Y61091947D02*
X10843908Y61044328D01*
X10843908Y61044328D02*
X10796289Y60949090D01*
X10796289Y60949090D02*
X10748670Y60758614D01*
X10748670Y60758614D02*
X10748670Y60520519D01*
X10748670Y60520519D02*
X10796289Y60330043D01*
X10796289Y60330043D02*
X10843908Y60234805D01*
X10843908Y60234805D02*
X10891527Y60187185D01*
X10891527Y60187185D02*
X10986765Y60139566D01*
X10986765Y60139566D02*
X11082003Y60139566D01*
X11082003Y60139566D02*
X11177241Y60187185D01*
X11177241Y60187185D02*
X11224860Y60234805D01*
X11224860Y60234805D02*
X11272479Y60330043D01*
X11272479Y60330043D02*
X11320098Y60520519D01*
X11320098Y60520519D02*
X11320098Y60758614D01*
X11320098Y60758614D02*
X11272479Y60949090D01*
X11272479Y60949090D02*
X11224860Y61044328D01*
X11224860Y61044328D02*
X11177241Y61091947D01*
X11177241Y61091947D02*
X11082003Y61139566D01*
X162596289Y60449566D02*
X162596289Y61449566D01*
X162596289Y60973376D02*
X162024861Y60973376D01*
X162024861Y60449566D02*
X162024861Y61449566D01*
X161405813Y61020995D02*
X161501051Y61068614D01*
X161501051Y61068614D02*
X161548670Y61116233D01*
X161548670Y61116233D02*
X161596289Y61211471D01*
X161596289Y61211471D02*
X161596289Y61259090D01*
X161596289Y61259090D02*
X161548670Y61354328D01*
X161548670Y61354328D02*
X161501051Y61401947D01*
X161501051Y61401947D02*
X161405813Y61449566D01*
X161405813Y61449566D02*
X161215337Y61449566D01*
X161215337Y61449566D02*
X161120099Y61401947D01*
X161120099Y61401947D02*
X161072480Y61354328D01*
X161072480Y61354328D02*
X161024861Y61259090D01*
X161024861Y61259090D02*
X161024861Y61211471D01*
X161024861Y61211471D02*
X161072480Y61116233D01*
X161072480Y61116233D02*
X161120099Y61068614D01*
X161120099Y61068614D02*
X161215337Y61020995D01*
X161215337Y61020995D02*
X161405813Y61020995D01*
X161405813Y61020995D02*
X161501051Y60973376D01*
X161501051Y60973376D02*
X161548670Y60925757D01*
X161548670Y60925757D02*
X161596289Y60830519D01*
X161596289Y60830519D02*
X161596289Y60640043D01*
X161596289Y60640043D02*
X161548670Y60544805D01*
X161548670Y60544805D02*
X161501051Y60497185D01*
X161501051Y60497185D02*
X161405813Y60449566D01*
X161405813Y60449566D02*
X161215337Y60449566D01*
X161215337Y60449566D02*
X161120099Y60497185D01*
X161120099Y60497185D02*
X161072480Y60544805D01*
X161072480Y60544805D02*
X161024861Y60640043D01*
X161024861Y60640043D02*
X161024861Y60830519D01*
X161024861Y60830519D02*
X161072480Y60925757D01*
X161072480Y60925757D02*
X161120099Y60973376D01*
X161120099Y60973376D02*
X161215337Y61020995D01*
X88202479Y8589566D02*
X88202479Y9589566D01*
X88202479Y9113376D02*
X87631051Y9113376D01*
X87631051Y8589566D02*
X87631051Y9589566D01*
X86631051Y8589566D02*
X87202479Y8589566D01*
X86916765Y8589566D02*
X86916765Y9589566D01*
X86916765Y9589566D02*
X87012003Y9446709D01*
X87012003Y9446709D02*
X87107241Y9351471D01*
X87107241Y9351471D02*
X87202479Y9303852D01*
X86250098Y9494328D02*
X86202479Y9541947D01*
X86202479Y9541947D02*
X86107241Y9589566D01*
X86107241Y9589566D02*
X85869146Y9589566D01*
X85869146Y9589566D02*
X85773908Y9541947D01*
X85773908Y9541947D02*
X85726289Y9494328D01*
X85726289Y9494328D02*
X85678670Y9399090D01*
X85678670Y9399090D02*
X85678670Y9303852D01*
X85678670Y9303852D02*
X85726289Y9160995D01*
X85726289Y9160995D02*
X86297717Y8589566D01*
X86297717Y8589566D02*
X85678670Y8589566D01*
X56963908Y105469566D02*
X56963908Y104755281D01*
X56963908Y104755281D02*
X57011527Y104612424D01*
X57011527Y104612424D02*
X57106765Y104517185D01*
X57106765Y104517185D02*
X57249622Y104469566D01*
X57249622Y104469566D02*
X57344860Y104469566D01*
X56535336Y105374328D02*
X56487717Y105421947D01*
X56487717Y105421947D02*
X56392479Y105469566D01*
X56392479Y105469566D02*
X56154384Y105469566D01*
X56154384Y105469566D02*
X56059146Y105421947D01*
X56059146Y105421947D02*
X56011527Y105374328D01*
X56011527Y105374328D02*
X55963908Y105279090D01*
X55963908Y105279090D02*
X55963908Y105183852D01*
X55963908Y105183852D02*
X56011527Y105040995D01*
X56011527Y105040995D02*
X56582955Y104469566D01*
X56582955Y104469566D02*
X55963908Y104469566D01*
X55059146Y105469566D02*
X55535336Y105469566D01*
X55535336Y105469566D02*
X55582955Y104993376D01*
X55582955Y104993376D02*
X55535336Y105040995D01*
X55535336Y105040995D02*
X55440098Y105088614D01*
X55440098Y105088614D02*
X55202003Y105088614D01*
X55202003Y105088614D02*
X55106765Y105040995D01*
X55106765Y105040995D02*
X55059146Y104993376D01*
X55059146Y104993376D02*
X55011527Y104898138D01*
X55011527Y104898138D02*
X55011527Y104660043D01*
X55011527Y104660043D02*
X55059146Y104564805D01*
X55059146Y104564805D02*
X55106765Y104517185D01*
X55106765Y104517185D02*
X55202003Y104469566D01*
X55202003Y104469566D02*
X55440098Y104469566D01*
X55440098Y104469566D02*
X55535336Y104517185D01*
X55535336Y104517185D02*
X55582955Y104564805D01*
X21883908Y2109566D02*
X21883908Y1395281D01*
X21883908Y1395281D02*
X21931527Y1252424D01*
X21931527Y1252424D02*
X22026765Y1157185D01*
X22026765Y1157185D02*
X22169622Y1109566D01*
X22169622Y1109566D02*
X22264860Y1109566D01*
X21455336Y2014328D02*
X21407717Y2061947D01*
X21407717Y2061947D02*
X21312479Y2109566D01*
X21312479Y2109566D02*
X21074384Y2109566D01*
X21074384Y2109566D02*
X20979146Y2061947D01*
X20979146Y2061947D02*
X20931527Y2014328D01*
X20931527Y2014328D02*
X20883908Y1919090D01*
X20883908Y1919090D02*
X20883908Y1823852D01*
X20883908Y1823852D02*
X20931527Y1680995D01*
X20931527Y1680995D02*
X21502955Y1109566D01*
X21502955Y1109566D02*
X20883908Y1109566D01*
X20312479Y1680995D02*
X20407717Y1728614D01*
X20407717Y1728614D02*
X20455336Y1776233D01*
X20455336Y1776233D02*
X20502955Y1871471D01*
X20502955Y1871471D02*
X20502955Y1919090D01*
X20502955Y1919090D02*
X20455336Y2014328D01*
X20455336Y2014328D02*
X20407717Y2061947D01*
X20407717Y2061947D02*
X20312479Y2109566D01*
X20312479Y2109566D02*
X20122003Y2109566D01*
X20122003Y2109566D02*
X20026765Y2061947D01*
X20026765Y2061947D02*
X19979146Y2014328D01*
X19979146Y2014328D02*
X19931527Y1919090D01*
X19931527Y1919090D02*
X19931527Y1871471D01*
X19931527Y1871471D02*
X19979146Y1776233D01*
X19979146Y1776233D02*
X20026765Y1728614D01*
X20026765Y1728614D02*
X20122003Y1680995D01*
X20122003Y1680995D02*
X20312479Y1680995D01*
X20312479Y1680995D02*
X20407717Y1633376D01*
X20407717Y1633376D02*
X20455336Y1585757D01*
X20455336Y1585757D02*
X20502955Y1490519D01*
X20502955Y1490519D02*
X20502955Y1300043D01*
X20502955Y1300043D02*
X20455336Y1204805D01*
X20455336Y1204805D02*
X20407717Y1157185D01*
X20407717Y1157185D02*
X20312479Y1109566D01*
X20312479Y1109566D02*
X20122003Y1109566D01*
X20122003Y1109566D02*
X20026765Y1157185D01*
X20026765Y1157185D02*
X19979146Y1204805D01*
X19979146Y1204805D02*
X19931527Y1300043D01*
X19931527Y1300043D02*
X19931527Y1490519D01*
X19931527Y1490519D02*
X19979146Y1585757D01*
X19979146Y1585757D02*
X20026765Y1633376D01*
X20026765Y1633376D02*
X20122003Y1680995D01*
X163272479Y8479566D02*
X163272479Y9479566D01*
X163272479Y9003376D02*
X162701051Y9003376D01*
X162701051Y8479566D02*
X162701051Y9479566D01*
X161701051Y8479566D02*
X162272479Y8479566D01*
X161986765Y8479566D02*
X161986765Y9479566D01*
X161986765Y9479566D02*
X162082003Y9336709D01*
X162082003Y9336709D02*
X162177241Y9241471D01*
X162177241Y9241471D02*
X162272479Y9193852D01*
X160748670Y8479566D02*
X161320098Y8479566D01*
X161034384Y8479566D02*
X161034384Y9479566D01*
X161034384Y9479566D02*
X161129622Y9336709D01*
X161129622Y9336709D02*
X161224860Y9241471D01*
X161224860Y9241471D02*
X161320098Y9193852D01*
X106103908Y63039566D02*
X106103908Y62325281D01*
X106103908Y62325281D02*
X106151527Y62182424D01*
X106151527Y62182424D02*
X106246765Y62087185D01*
X106246765Y62087185D02*
X106389622Y62039566D01*
X106389622Y62039566D02*
X106484860Y62039566D01*
X105675336Y62944328D02*
X105627717Y62991947D01*
X105627717Y62991947D02*
X105532479Y63039566D01*
X105532479Y63039566D02*
X105294384Y63039566D01*
X105294384Y63039566D02*
X105199146Y62991947D01*
X105199146Y62991947D02*
X105151527Y62944328D01*
X105151527Y62944328D02*
X105103908Y62849090D01*
X105103908Y62849090D02*
X105103908Y62753852D01*
X105103908Y62753852D02*
X105151527Y62610995D01*
X105151527Y62610995D02*
X105722955Y62039566D01*
X105722955Y62039566D02*
X105103908Y62039566D01*
X104770574Y63039566D02*
X104103908Y63039566D01*
X104103908Y63039566D02*
X104532479Y62039566D01*
X51723908Y105509566D02*
X51723908Y104795281D01*
X51723908Y104795281D02*
X51771527Y104652424D01*
X51771527Y104652424D02*
X51866765Y104557185D01*
X51866765Y104557185D02*
X52009622Y104509566D01*
X52009622Y104509566D02*
X52104860Y104509566D01*
X51295336Y105414328D02*
X51247717Y105461947D01*
X51247717Y105461947D02*
X51152479Y105509566D01*
X51152479Y105509566D02*
X50914384Y105509566D01*
X50914384Y105509566D02*
X50819146Y105461947D01*
X50819146Y105461947D02*
X50771527Y105414328D01*
X50771527Y105414328D02*
X50723908Y105319090D01*
X50723908Y105319090D02*
X50723908Y105223852D01*
X50723908Y105223852D02*
X50771527Y105080995D01*
X50771527Y105080995D02*
X51342955Y104509566D01*
X51342955Y104509566D02*
X50723908Y104509566D01*
X49866765Y105509566D02*
X50057241Y105509566D01*
X50057241Y105509566D02*
X50152479Y105461947D01*
X50152479Y105461947D02*
X50200098Y105414328D01*
X50200098Y105414328D02*
X50295336Y105271471D01*
X50295336Y105271471D02*
X50342955Y105080995D01*
X50342955Y105080995D02*
X50342955Y104700043D01*
X50342955Y104700043D02*
X50295336Y104604805D01*
X50295336Y104604805D02*
X50247717Y104557185D01*
X50247717Y104557185D02*
X50152479Y104509566D01*
X50152479Y104509566D02*
X49962003Y104509566D01*
X49962003Y104509566D02*
X49866765Y104557185D01*
X49866765Y104557185D02*
X49819146Y104604805D01*
X49819146Y104604805D02*
X49771527Y104700043D01*
X49771527Y104700043D02*
X49771527Y104938138D01*
X49771527Y104938138D02*
X49819146Y105033376D01*
X49819146Y105033376D02*
X49866765Y105080995D01*
X49866765Y105080995D02*
X49962003Y105128614D01*
X49962003Y105128614D02*
X50152479Y105128614D01*
X50152479Y105128614D02*
X50247717Y105080995D01*
X50247717Y105080995D02*
X50295336Y105033376D01*
X50295336Y105033376D02*
X50342955Y104938138D01*
D11*
X52594385Y105394385D02*
X52594385Y106644385D01*
X52894385Y110414385D02*
X61014385Y110414385D01*
X52894385Y108304385D02*
X53504385Y108304385D01*
X52894385Y107004385D02*
X53504385Y107004385D01*
X52894385Y105694385D02*
X52894385Y110414385D01*
X53504385Y109804385D02*
X60404385Y109804385D01*
X53504385Y106304385D02*
X53504385Y109804385D01*
X53844385Y105394385D02*
X52594385Y105394385D01*
X54354385Y105494385D02*
X54354385Y105694385D01*
X54654385Y105694385D02*
X54654385Y105494385D01*
X54654385Y105594385D02*
X54354385Y105594385D01*
X54654385Y105494385D02*
X54354385Y105494385D01*
X55454385Y106304385D02*
X53504385Y106304385D01*
X55454385Y105694385D02*
X55454385Y106304385D01*
X55854385Y109804385D02*
X55854385Y109304385D01*
X55854385Y109304385D02*
X56054385Y109304385D01*
X55954385Y109804385D02*
X55954385Y109304385D01*
X56054385Y109304385D02*
X56054385Y109804385D01*
X57854385Y109804385D02*
X57854385Y109304385D01*
X57854385Y109304385D02*
X58054385Y109304385D01*
X57954385Y109804385D02*
X57954385Y109304385D01*
X58054385Y109304385D02*
X58054385Y109804385D01*
X58454385Y106304385D02*
X58454385Y105694385D01*
X60404385Y109804385D02*
X60404385Y106304385D01*
X60404385Y106304385D02*
X58454385Y106304385D01*
X61014385Y110414385D02*
X61014385Y105694385D01*
X61014385Y108304385D02*
X60404385Y108304385D01*
X61014385Y107004385D02*
X60404385Y107004385D01*
X61014385Y105694385D02*
X52894385Y105694385D01*
X31114385Y5274385D02*
X31114385Y4024385D01*
X30814385Y254385D02*
X22694385Y254385D01*
X30814385Y2364385D02*
X30204385Y2364385D01*
X30814385Y3664385D02*
X30204385Y3664385D01*
X30814385Y4974385D02*
X30814385Y254385D01*
X30204385Y864385D02*
X23304385Y864385D01*
X30204385Y4364385D02*
X30204385Y864385D01*
X29864385Y5274385D02*
X31114385Y5274385D01*
X29354385Y5174385D02*
X29354385Y4974385D01*
X29054385Y4974385D02*
X29054385Y5174385D01*
X29054385Y5074385D02*
X29354385Y5074385D01*
X29054385Y5174385D02*
X29354385Y5174385D01*
X28254385Y4364385D02*
X30204385Y4364385D01*
X28254385Y4974385D02*
X28254385Y4364385D01*
X27854385Y864385D02*
X27854385Y1364385D01*
X27854385Y1364385D02*
X27654385Y1364385D01*
X27754385Y864385D02*
X27754385Y1364385D01*
X27654385Y1364385D02*
X27654385Y864385D01*
X25854385Y864385D02*
X25854385Y1364385D01*
X25854385Y1364385D02*
X25654385Y1364385D01*
X25754385Y864385D02*
X25754385Y1364385D01*
X25654385Y1364385D02*
X25654385Y864385D01*
X25254385Y4364385D02*
X25254385Y4974385D01*
X23304385Y864385D02*
X23304385Y4364385D01*
X23304385Y4364385D02*
X25254385Y4364385D01*
X22694385Y254385D02*
X22694385Y4974385D01*
X22694385Y2364385D02*
X23304385Y2364385D01*
X22694385Y3664385D02*
X23304385Y3664385D01*
X22694385Y4974385D02*
X30814385Y4974385D01*
D12*
X153474385Y67488785D02*
X153474385Y9488785D01*
X149724385Y5988785D02*
X149974385Y5988785D01*
D11*
X140784385Y7973785D02*
X140784385Y13173785D01*
X139879385Y54878785D02*
X139879385Y49738785D01*
X139879385Y57478785D02*
X139879385Y56148785D01*
X138549385Y57478785D02*
X139879385Y57478785D01*
X137279385Y54878785D02*
X139879385Y54878785D01*
X137279385Y57478785D02*
X137279385Y54878785D01*
X135644385Y10573785D02*
X135644385Y13173785D01*
X135644385Y13173785D02*
X140784385Y13173785D01*
X134679385Y49738785D02*
X139879385Y49738785D01*
X134679385Y57478785D02*
X137279385Y57478785D01*
X134679385Y57478785D02*
X134679385Y49738785D01*
X133044385Y7973785D02*
X140784385Y7973785D01*
X133044385Y7973785D02*
X133044385Y10573785D01*
X133044385Y10573785D02*
X135644385Y10573785D01*
X133044385Y11843785D02*
X133044385Y13173785D01*
X133044385Y13173785D02*
X134374385Y13173785D01*
X103574385Y61348785D02*
X103574385Y13028785D01*
X103574385Y63948785D02*
X103574385Y62618785D01*
X102244385Y63948785D02*
X103574385Y63948785D01*
X100974385Y61348785D02*
X103574385Y61348785D01*
X100974385Y63948785D02*
X100974385Y61348785D01*
D12*
X100974385Y70988785D02*
X149974385Y70988785D01*
X100974385Y70988785D02*
X100474385Y70989142D01*
X100224385Y5988785D02*
X149724385Y5988785D01*
D11*
X98374385Y13028785D02*
X103574385Y13028785D01*
X98374385Y63948785D02*
X100974385Y63948785D01*
X98374385Y63948785D02*
X98374385Y13028785D01*
D12*
X96974385Y9488785D02*
X96974385Y67438785D01*
X149974385Y5988785D02*
G75*
G03*
X153474385Y9488785I1J3499999D01*
G01*
X153474385Y67488785D02*
G75*
G03*
X149974385Y70988785I-3499999J1D01*
G01*
X96974385Y9488785D02*
G75*
G03*
X100474385Y5988785I3500000J0D01*
G01*
X100474385Y70989142D02*
G75*
G03*
X96974385Y67438785I0J-3500357D01*
G01*
X151625385Y9488785D02*
G75*
G03*
X151625385Y9488785I-1651000J0D01*
G01*
X151625385Y67488785D02*
G75*
G03*
X151625385Y67488785I-1651000J0D01*
G01*
X102625385Y9488785D02*
G75*
G03*
X102625385Y9488785I-1651000J0D01*
G01*
X102625385Y67488785D02*
G75*
G03*
X102625385Y67488785I-1651000J0D01*
G01*
D11*
X43664385Y105384385D02*
X43664385Y106634385D01*
X43964385Y110404385D02*
X52084385Y110404385D01*
X43964385Y108294385D02*
X44574385Y108294385D01*
X43964385Y106994385D02*
X44574385Y106994385D01*
X43964385Y105684385D02*
X43964385Y110404385D01*
X44574385Y109794385D02*
X51474385Y109794385D01*
X44574385Y106294385D02*
X44574385Y109794385D01*
X44914385Y105384385D02*
X43664385Y105384385D01*
X45424385Y105484385D02*
X45424385Y105684385D01*
X45724385Y105684385D02*
X45724385Y105484385D01*
X45724385Y105584385D02*
X45424385Y105584385D01*
X45724385Y105484385D02*
X45424385Y105484385D01*
X46524385Y106294385D02*
X44574385Y106294385D01*
X46524385Y105684385D02*
X46524385Y106294385D01*
X46924385Y109794385D02*
X46924385Y109294385D01*
X46924385Y109294385D02*
X47124385Y109294385D01*
X47024385Y109794385D02*
X47024385Y109294385D01*
X47124385Y109294385D02*
X47124385Y109794385D01*
X48924385Y109794385D02*
X48924385Y109294385D01*
X48924385Y109294385D02*
X49124385Y109294385D01*
X49024385Y109794385D02*
X49024385Y109294385D01*
X49124385Y109294385D02*
X49124385Y109794385D01*
X49524385Y106294385D02*
X49524385Y105684385D01*
X51474385Y109794385D02*
X51474385Y106294385D01*
X51474385Y106294385D02*
X49524385Y106294385D01*
X52084385Y110404385D02*
X52084385Y105684385D01*
X52084385Y108294385D02*
X51474385Y108294385D01*
X52084385Y106994385D02*
X51474385Y106994385D01*
X52084385Y105684385D02*
X43964385Y105684385D01*
M02*
