G04 #@! TF.GenerationSoftware,KiCad,Pcbnew,7.0.7-7.0.7~ubuntu23.04.1*
G04 #@! TF.CreationDate,2023-10-12T20:18:36+00:00*
G04 #@! TF.ProjectId,pedalboard-hw,70656461-6c62-46f6-9172-642d68772e6b,3.0.0-RC1*
G04 #@! TF.SameCoordinates,Original*
G04 #@! TF.FileFunction,Soldermask,Bot*
G04 #@! TF.FilePolarity,Negative*
%FSLAX46Y46*%
G04 Gerber Fmt 4.6, Leading zero omitted, Abs format (unit mm)*
G04 Created by KiCad (PCBNEW 7.0.7-7.0.7~ubuntu23.04.1) date 2023-10-12 20:18:36*
%MOMM*%
%LPD*%
G01*
G04 APERTURE LIST*
%ADD10O,1.200000X2.200000*%
%ADD11O,2.200000X1.200000*%
%ADD12C,2.700000*%
%ADD13C,3.000000*%
%ADD14R,4.400000X1.800000*%
%ADD15O,4.000000X1.800000*%
%ADD16O,1.800000X4.000000*%
%ADD17C,6.000000*%
%ADD18R,1.350000X1.350000*%
%ADD19O,1.350000X1.350000*%
%ADD20R,2.250000X2.250000*%
%ADD21C,2.250000*%
%ADD22R,1.700000X1.700000*%
%ADD23O,1.700000X1.700000*%
%ADD24C,0.600000*%
%ADD25R,2.000000X2.000000*%
%ADD26C,2.000000*%
%ADD27C,3.200000*%
%ADD28C,1.350000*%
G04 APERTURE END LIST*
D10*
X101000000Y95500000D03*
X98500000Y95500000D03*
D11*
X96000000Y100500000D03*
D10*
X91000000Y95500000D03*
X93500000Y95500000D03*
D12*
X113000000Y102000000D03*
D13*
X8050000Y13800000D03*
X8050000Y30030000D03*
X1700000Y13800000D03*
X1700000Y30030000D03*
X14400000Y13800000D03*
X14400000Y30030000D03*
D14*
X159400000Y94600000D03*
D15*
X159400000Y100400000D03*
D16*
X154600000Y97600000D03*
D17*
X10000000Y6000000D03*
D18*
X9000000Y69000000D03*
D19*
X11000000Y69000000D03*
X9000000Y67000000D03*
X11000000Y67000000D03*
D17*
X85000000Y58000000D03*
X10000000Y58000000D03*
D13*
X8085000Y34000000D03*
X8085000Y50230000D03*
X1735000Y34000000D03*
X1735000Y50230000D03*
X14435000Y34000000D03*
X14435000Y50230000D03*
D20*
X125530000Y38844251D03*
D21*
X125530000Y46464251D03*
X125530000Y51544251D03*
X105210000Y59164251D03*
X105210000Y49004251D03*
X105210000Y38844251D03*
D13*
X161950000Y30005000D03*
X161950000Y13775000D03*
X168300000Y30005000D03*
X168300000Y13775000D03*
X155600000Y30005000D03*
X155600000Y13775000D03*
D12*
X98980000Y3480000D03*
D18*
X161000000Y-5000000D03*
D19*
X159000000Y-5000000D03*
X161000000Y-3000000D03*
X159000000Y-3000000D03*
D22*
X29590000Y18680000D03*
D23*
X29590000Y21220000D03*
X32130000Y18680000D03*
X32130000Y21220000D03*
X34670000Y18680000D03*
X34670000Y21220000D03*
X37210000Y18680000D03*
X37210000Y21220000D03*
X39750000Y18680000D03*
X39750000Y21220000D03*
X42290000Y18680000D03*
X42290000Y21220000D03*
X44830000Y18680000D03*
X44830000Y21220000D03*
X47370000Y18680000D03*
X47370000Y21220000D03*
X49910000Y18680000D03*
X49910000Y21220000D03*
X52450000Y18680000D03*
X52450000Y21220000D03*
X54990000Y18680000D03*
X54990000Y21220000D03*
X57530000Y18680000D03*
X57530000Y21220000D03*
X60070000Y18680000D03*
X60070000Y21220000D03*
X62610000Y18680000D03*
X62610000Y21220000D03*
X65150000Y18680000D03*
X65150000Y21220000D03*
X67690000Y18680000D03*
X67690000Y21220000D03*
X70230000Y18680000D03*
X70230000Y21220000D03*
X72770000Y18680000D03*
X72770000Y21220000D03*
X75310000Y18680000D03*
X75310000Y21220000D03*
X77850000Y18680000D03*
X77850000Y21220000D03*
D24*
X60100000Y103925000D03*
X60100000Y102925000D03*
X60100000Y101925000D03*
X60100000Y100925000D03*
X60100000Y99925000D03*
X60100000Y98925000D03*
X60100000Y94925000D03*
X60100000Y93925000D03*
X60100000Y92925000D03*
X60100000Y91925000D03*
X60100000Y90925000D03*
X60100000Y89925000D03*
X60100000Y88925000D03*
X61100000Y88925000D03*
X62100000Y88925000D03*
X63100000Y88925000D03*
X64100000Y88925000D03*
X65100000Y88925000D03*
X66100000Y88925000D03*
X67100000Y88925000D03*
X68100000Y88925000D03*
X70100000Y88925000D03*
X71100000Y88925000D03*
X72100000Y88925000D03*
X73100000Y88925000D03*
X74100000Y88925000D03*
X75100000Y88925000D03*
X76100000Y88925000D03*
X77100000Y88925000D03*
X78100000Y88925000D03*
X80100000Y88925000D03*
X81100000Y88925000D03*
X82100000Y88925000D03*
X83100000Y88925000D03*
X84100000Y88925000D03*
X85100000Y88925000D03*
X86100000Y88925000D03*
X87100000Y88925000D03*
X88100000Y88925000D03*
X89100000Y88925000D03*
X90100000Y88925000D03*
X92100000Y88925000D03*
X93100000Y88925000D03*
X94100000Y88925000D03*
X95100000Y88925000D03*
X96100000Y88925000D03*
X97100000Y88925000D03*
X98100000Y88925000D03*
X99100000Y88925000D03*
X100100000Y88925000D03*
X102100000Y88925000D03*
X103100000Y88925000D03*
X104100000Y88925000D03*
X105100000Y88925000D03*
X106100000Y88925000D03*
X107100000Y88925000D03*
X108100000Y88925000D03*
X109100000Y88925000D03*
X110100000Y103925000D03*
X110100000Y102925000D03*
X110100000Y101925000D03*
X110100000Y100925000D03*
X110100000Y99925000D03*
X110100000Y98925000D03*
X110100000Y97925000D03*
X110100000Y96925000D03*
X110100000Y95925000D03*
X110100000Y94925000D03*
X110100000Y93925000D03*
X110100000Y92925000D03*
X110100000Y91925000D03*
X110100000Y90925000D03*
X110100000Y89925000D03*
X110100000Y88925000D03*
D18*
X11000000Y-5000000D03*
D19*
X9000000Y-5000000D03*
X11000000Y-3000000D03*
X9000000Y-3000000D03*
D18*
X86000000Y47000000D03*
D19*
X84000000Y47000000D03*
X86000000Y49000000D03*
X84000000Y49000000D03*
D12*
X57000000Y102000000D03*
D13*
X161965000Y91200000D03*
X161965000Y74970000D03*
X168315000Y91200000D03*
X168315000Y74970000D03*
X155615000Y91200000D03*
X155615000Y74970000D03*
G36*
X87946312Y91714079D02*
G01*
X87214079Y92446312D01*
X87199200Y92482233D01*
X87199200Y93517767D01*
X87214079Y93553688D01*
X87946312Y94285921D01*
X87982233Y94300800D01*
X89017767Y94300800D01*
X89053688Y94285921D01*
X89785921Y93553688D01*
X89800800Y93517767D01*
X89800800Y92482233D01*
X89785921Y92446312D01*
X89053688Y91714079D01*
X89017767Y91699200D01*
X87982233Y91699200D01*
X87946312Y91714079D01*
G37*
G36*
X97285921Y92446312D02*
G01*
X96553688Y91714079D01*
X96517767Y91699200D01*
X95482233Y91699200D01*
X95446312Y91714079D01*
X94714079Y92446312D01*
X94699200Y92482233D01*
X94699200Y93517767D01*
X94714079Y93553688D01*
X95446312Y94285921D01*
X95482233Y94300800D01*
X96517767Y94300800D01*
X96553688Y94285921D01*
X97285921Y93553688D01*
X97300800Y93517767D01*
X97300800Y92482233D01*
X97285921Y92446312D01*
G37*
G36*
X102946312Y91714079D02*
G01*
X102214079Y92446312D01*
X102199200Y92482233D01*
X102199200Y93517767D01*
X102214079Y93553688D01*
X102946312Y94285921D01*
X102982233Y94300800D01*
X104017767Y94300800D01*
X104053688Y94285921D01*
X104785921Y93553688D01*
X104800800Y93517767D01*
X104800800Y92482233D01*
X104785921Y92446312D01*
X104053688Y91714079D01*
X104017767Y91699200D01*
X102982233Y91699200D01*
X102946312Y91714079D01*
G37*
G36*
X90446312Y89214079D02*
G01*
X89714079Y89946312D01*
X89699200Y89982233D01*
X89699200Y91017767D01*
X89714079Y91053688D01*
X90446312Y91785921D01*
X90482233Y91800800D01*
X91517767Y91800800D01*
X91553688Y91785921D01*
X92285921Y91053688D01*
X92300800Y91017767D01*
X92300800Y89982233D01*
X92285921Y89946312D01*
X91553688Y89214079D01*
X91517767Y89199200D01*
X90482233Y89199200D01*
X90446312Y89214079D01*
G37*
G36*
X100446312Y89214079D02*
G01*
X99714079Y89946312D01*
X99699200Y89982233D01*
X99699200Y91017767D01*
X99714079Y91053688D01*
X100446312Y91785921D01*
X100482233Y91800800D01*
X101517767Y91800800D01*
X101553688Y91785921D01*
X102285921Y91053688D01*
X102300800Y91017767D01*
X102300800Y89982233D01*
X102285921Y89946312D01*
X101553688Y89214079D01*
X101517767Y89199200D01*
X100482233Y89199200D01*
X100446312Y89214079D01*
G37*
G36*
X97564079Y101964079D02*
G01*
X97549200Y102000000D01*
X97549200Y103100000D01*
X97564079Y103135921D01*
X98464079Y104035921D01*
X98500000Y104050800D01*
X99400000Y104050800D01*
X99435921Y104035921D01*
X99450800Y104000000D01*
X99450800Y102000000D01*
X99435921Y101964079D01*
X99400000Y101949200D01*
X97600000Y101949200D01*
X97564079Y101964079D01*
G37*
G36*
G01*
X101950800Y104000000D02*
X101950800Y102000000D01*
G75*
G02*
X101900000Y101949200I-50800J0D01*
G01*
X100100000Y101949200D01*
G75*
G02*
X100049200Y102000000I0J50800D01*
G01*
X100049200Y104000000D01*
G75*
G02*
X100100000Y104050800I50800J0D01*
G01*
X101900000Y104050800D01*
G75*
G02*
X101950800Y104000000I0J-50800D01*
G01*
G37*
G36*
G01*
X91950800Y104000000D02*
X91950800Y102000000D01*
G75*
G02*
X91900000Y101949200I-50800J0D01*
G01*
X90100000Y101949200D01*
G75*
G02*
X90049200Y102000000I0J50800D01*
G01*
X90049200Y104000000D01*
G75*
G02*
X90100000Y104050800I50800J0D01*
G01*
X91900000Y104050800D01*
G75*
G02*
X91950800Y104000000I0J-50800D01*
G01*
G37*
G36*
X92564079Y101964079D02*
G01*
X92549200Y102000000D01*
X92549200Y104000000D01*
X92564079Y104035921D01*
X92600000Y104050800D01*
X93500000Y104050800D01*
X93535921Y104035921D01*
X94435921Y103135921D01*
X94450800Y103100000D01*
X94450800Y102000000D01*
X94435921Y101964079D01*
X94400000Y101949200D01*
X92600000Y101949200D01*
X92564079Y101964079D01*
G37*
D25*
X40250000Y93500000D03*
D26*
X40250000Y88500000D03*
X40250000Y91000000D03*
D27*
X47750000Y96600000D03*
X47750000Y85400000D03*
D26*
X54750000Y88500000D03*
X54750000Y93500000D03*
D18*
X159000000Y69000000D03*
D19*
X161000000Y69000000D03*
X159000000Y67000000D03*
X161000000Y67000000D03*
D17*
X160000000Y58000000D03*
D13*
X161950000Y50220000D03*
X161950000Y33990000D03*
X168300000Y50220000D03*
X168300000Y33990000D03*
X155600000Y50220000D03*
X155600000Y33990000D03*
D17*
X85000000Y6000000D03*
D18*
X84000000Y17000000D03*
D19*
X86000000Y17000000D03*
X84000000Y15000000D03*
X86000000Y15000000D03*
D12*
X98900000Y61434400D03*
D17*
X160000000Y6000000D03*
D12*
X148000000Y102000000D03*
D25*
X115250000Y93500000D03*
D26*
X115250000Y88500000D03*
X115250000Y91000000D03*
D27*
X122750000Y96600000D03*
X122750000Y85400000D03*
D26*
X129750000Y88500000D03*
X129750000Y93500000D03*
G36*
X65951812Y91714079D02*
G01*
X65219579Y92446312D01*
X65204700Y92482233D01*
X65204700Y93517767D01*
X65219579Y93553688D01*
X65951812Y94285921D01*
X65987733Y94300800D01*
X67023267Y94300800D01*
X67059188Y94285921D01*
X67791421Y93553688D01*
X67806300Y93517767D01*
X67806300Y92482233D01*
X67791421Y92446312D01*
X67059188Y91714079D01*
X67023267Y91699200D01*
X65987733Y91699200D01*
X65951812Y91714079D01*
G37*
G36*
X75291421Y92446312D02*
G01*
X74559188Y91714079D01*
X74523267Y91699200D01*
X73487733Y91699200D01*
X73451812Y91714079D01*
X72719579Y92446312D01*
X72704700Y92482233D01*
X72704700Y93517767D01*
X72719579Y93553688D01*
X73451812Y94285921D01*
X73487733Y94300800D01*
X74523267Y94300800D01*
X74559188Y94285921D01*
X75291421Y93553688D01*
X75306300Y93517767D01*
X75306300Y92482233D01*
X75291421Y92446312D01*
G37*
G36*
X80951812Y91714079D02*
G01*
X80219579Y92446312D01*
X80204700Y92482233D01*
X80204700Y93517767D01*
X80219579Y93553688D01*
X80951812Y94285921D01*
X80987733Y94300800D01*
X82023267Y94300800D01*
X82059188Y94285921D01*
X82791421Y93553688D01*
X82806300Y93517767D01*
X82806300Y92482233D01*
X82791421Y92446312D01*
X82059188Y91714079D01*
X82023267Y91699200D01*
X80987733Y91699200D01*
X80951812Y91714079D01*
G37*
G36*
X68451812Y89214079D02*
G01*
X67719579Y89946312D01*
X67704700Y89982233D01*
X67704700Y91017767D01*
X67719579Y91053688D01*
X68451812Y91785921D01*
X68487733Y91800800D01*
X69523267Y91800800D01*
X69559188Y91785921D01*
X70291421Y91053688D01*
X70306300Y91017767D01*
X70306300Y89982233D01*
X70291421Y89946312D01*
X69559188Y89214079D01*
X69523267Y89199200D01*
X68487733Y89199200D01*
X68451812Y89214079D01*
G37*
G36*
X78451812Y89214079D02*
G01*
X77719579Y89946312D01*
X77704700Y89982233D01*
X77704700Y91017767D01*
X77719579Y91053688D01*
X78451812Y91785921D01*
X78487733Y91800800D01*
X79523267Y91800800D01*
X79559188Y91785921D01*
X80291421Y91053688D01*
X80306300Y91017767D01*
X80306300Y89982233D01*
X80291421Y89946312D01*
X79559188Y89214079D01*
X79523267Y89199200D01*
X78487733Y89199200D01*
X78451812Y89214079D01*
G37*
G36*
X75569579Y101964079D02*
G01*
X75554700Y102000000D01*
X75554700Y103100000D01*
X75569579Y103135921D01*
X76469579Y104035921D01*
X76505500Y104050800D01*
X77405500Y104050800D01*
X77441421Y104035921D01*
X77456300Y104000000D01*
X77456300Y102000000D01*
X77441421Y101964079D01*
X77405500Y101949200D01*
X75605500Y101949200D01*
X75569579Y101964079D01*
G37*
G36*
G01*
X79956300Y104000000D02*
X79956300Y102000000D01*
G75*
G02*
X79905500Y101949200I-50800J0D01*
G01*
X78105500Y101949200D01*
G75*
G02*
X78054700Y102000000I0J50800D01*
G01*
X78054700Y104000000D01*
G75*
G02*
X78105500Y104050800I50800J0D01*
G01*
X79905500Y104050800D01*
G75*
G02*
X79956300Y104000000I0J-50800D01*
G01*
G37*
G36*
G01*
X69956300Y104000000D02*
X69956300Y102000000D01*
G75*
G02*
X69905500Y101949200I-50800J0D01*
G01*
X68105500Y101949200D01*
G75*
G02*
X68054700Y102000000I0J50800D01*
G01*
X68054700Y104000000D01*
G75*
G02*
X68105500Y104050800I50800J0D01*
G01*
X69905500Y104050800D01*
G75*
G02*
X69956300Y104000000I0J-50800D01*
G01*
G37*
G36*
X70569579Y101964079D02*
G01*
X70554700Y102000000D01*
X70554700Y104000000D01*
X70569579Y104035921D01*
X70605500Y104050800D01*
X71505500Y104050800D01*
X71541421Y104035921D01*
X72441421Y103135921D01*
X72456300Y103100000D01*
X72456300Y102000000D01*
X72441421Y101964079D01*
X72405500Y101949200D01*
X70605500Y101949200D01*
X70569579Y101964079D01*
G37*
D10*
X79000000Y95500000D03*
X76500000Y95500000D03*
D11*
X74000000Y100500000D03*
D10*
X69000000Y95500000D03*
X71500000Y95500000D03*
D22*
X93625000Y27220000D03*
D23*
X93625000Y29760000D03*
X93625000Y32300000D03*
X93625000Y34840000D03*
D22*
X115075000Y65150000D03*
D23*
X115075000Y67690000D03*
D28*
X107000000Y77000000D03*
D19*
X107000000Y75000000D03*
G36*
X67750000Y49950000D02*
G01*
X67750000Y49450000D01*
X67744911Y49450000D01*
X67744911Y49378843D01*
X67704816Y49242292D01*
X67627875Y49122570D01*
X67520320Y49029373D01*
X67390866Y48970254D01*
X67250000Y48950000D01*
X66750000Y48950000D01*
X66609134Y48970254D01*
X66479680Y49029373D01*
X66372125Y49122570D01*
X66295184Y49242292D01*
X66255089Y49378843D01*
X66255089Y49450000D01*
X66250000Y49450000D01*
X66250000Y49950000D01*
X67750000Y49950000D01*
G37*
G36*
X66255089Y50750000D02*
G01*
X66255089Y50821157D01*
X66295184Y50957708D01*
X66372125Y51077430D01*
X66479680Y51170627D01*
X66609134Y51229746D01*
X66750000Y51250000D01*
X67250000Y51250000D01*
X67390866Y51229746D01*
X67520320Y51170627D01*
X67627875Y51077430D01*
X67704816Y50957708D01*
X67744911Y50821157D01*
X67744911Y50750000D01*
X67750000Y50750000D01*
X67750000Y50250000D01*
X66250000Y50250000D01*
X66250000Y50750000D01*
X66255089Y50750000D01*
G37*
D23*
X107130000Y67110000D03*
X104590000Y67110000D03*
D22*
X102050000Y67110000D03*
D23*
X99510000Y67110000D03*
X96970000Y67110000D03*
X94430000Y67110000D03*
X91890000Y67110000D03*
D22*
X89350000Y67110000D03*
D23*
X86810000Y67110000D03*
X84270000Y67110000D03*
X81730000Y67110000D03*
X79190000Y67110000D03*
D22*
X76650000Y67110000D03*
D23*
X74110000Y67110000D03*
X71570000Y67110000D03*
X69030000Y67110000D03*
X66490000Y67110000D03*
D22*
X63950000Y67110000D03*
D23*
X61410000Y67110000D03*
X58870000Y67110000D03*
X58870000Y84890000D03*
X61410000Y84890000D03*
D22*
X63950000Y84890000D03*
D23*
X66490000Y84890000D03*
X69030000Y84890000D03*
X71570000Y84890000D03*
X74110000Y84890000D03*
D22*
X76650000Y84890000D03*
D23*
X79190000Y84890000D03*
X81730000Y84890000D03*
X84270000Y84890000D03*
X86810000Y84890000D03*
D22*
X89350000Y84890000D03*
D23*
X91890000Y84890000D03*
X94430000Y84890000D03*
X96970000Y84890000D03*
X99510000Y84890000D03*
D22*
X102050000Y84890000D03*
D23*
X104590000Y84890000D03*
X107130000Y84890000D03*
G36*
X65250000Y49950000D02*
G01*
X65250000Y49450000D01*
X65244911Y49450000D01*
X65244911Y49378843D01*
X65204816Y49242292D01*
X65127875Y49122570D01*
X65020320Y49029373D01*
X64890866Y48970254D01*
X64750000Y48950000D01*
X64250000Y48950000D01*
X64109134Y48970254D01*
X63979680Y49029373D01*
X63872125Y49122570D01*
X63795184Y49242292D01*
X63755089Y49378843D01*
X63755089Y49450000D01*
X63750000Y49450000D01*
X63750000Y49950000D01*
X65250000Y49950000D01*
G37*
G36*
X63755089Y50750000D02*
G01*
X63755089Y50821157D01*
X63795184Y50957708D01*
X63872125Y51077430D01*
X63979680Y51170627D01*
X64109134Y51229746D01*
X64250000Y51250000D01*
X64750000Y51250000D01*
X64890866Y51229746D01*
X65020320Y51170627D01*
X65127875Y51077430D01*
X65204816Y50957708D01*
X65244911Y50821157D01*
X65244911Y50750000D01*
X65250000Y50750000D01*
X65250000Y50250000D01*
X63750000Y50250000D01*
X63750000Y50750000D01*
X63755089Y50750000D01*
G37*
D22*
X18900000Y-4225000D03*
D23*
X18900000Y-1685000D03*
X18900000Y855000D03*
D22*
X100250000Y56624400D03*
D23*
X97710000Y56624400D03*
X100250000Y54084400D03*
X97710000Y54084400D03*
X100250000Y51544400D03*
X97710000Y51544400D03*
X100250000Y49004400D03*
X97710000Y49004400D03*
X100250000Y46464400D03*
X97710000Y46464400D03*
X100250000Y43924400D03*
X97710000Y43924400D03*
X100250000Y41384400D03*
X97710000Y41384400D03*
X100250000Y38844400D03*
X97710000Y38844400D03*
X100250000Y36304400D03*
X97710000Y36304400D03*
X100250000Y33764400D03*
X97710000Y33764400D03*
X100250000Y31224400D03*
X97710000Y31224400D03*
X100250000Y28684400D03*
X97710000Y28684400D03*
X100250000Y26144400D03*
X97710000Y26144400D03*
X100250000Y23604400D03*
X97710000Y23604400D03*
X100250000Y21064400D03*
X97710000Y21064400D03*
X100250000Y18524400D03*
X97710000Y18524400D03*
X100250000Y15984400D03*
X97710000Y15984400D03*
X100250000Y13444400D03*
X97710000Y13444400D03*
X100250000Y10904400D03*
X97710000Y10904400D03*
X100250000Y8364400D03*
X97710000Y8364400D03*
D22*
X136555000Y50154400D03*
D23*
X134015000Y50154400D03*
X136555000Y47614400D03*
X134015000Y47614400D03*
X136555000Y45074400D03*
X134015000Y45074400D03*
D22*
X132380000Y5849400D03*
D23*
X132380000Y3309400D03*
X134920000Y5849400D03*
X134920000Y3309400D03*
X137460000Y5849400D03*
X137460000Y3309400D03*
D22*
X24850000Y80075000D03*
D23*
X27390000Y80075000D03*
X24850000Y82615000D03*
X27390000Y82615000D03*
X24850000Y85155000D03*
X27390000Y85155000D03*
M02*
