G04 #@! TF.GenerationSoftware,KiCad,Pcbnew,7.0.7-7.0.7~ubuntu23.04.1*
G04 #@! TF.CreationDate,2023-10-10T06:33:12+00:00*
G04 #@! TF.ProjectId,pedalboard-hw,70656461-6c62-46f6-9172-642d68772e6b,3.0.0-RC1*
G04 #@! TF.SameCoordinates,Original*
G04 #@! TF.FileFunction,Legend,Bot*
G04 #@! TF.FilePolarity,Positive*
%FSLAX46Y46*%
G04 Gerber Fmt 4.6, Leading zero omitted, Abs format (unit mm)*
G04 Created by KiCad (PCBNEW 7.0.7-7.0.7~ubuntu23.04.1) date 2023-10-10 06:33:12*
%MOMM*%
%LPD*%
G01*
G04 APERTURE LIST*
%ADD10C,0.150000*%
%ADD11C,0.120000*%
%ADD12C,0.100000*%
G04 APERTURE END LIST*
D10*
X36403761Y54384989D02*
X36451380Y54289751D01*
X36451380Y54289751D02*
X36451380Y54146894D01*
X36451380Y54146894D02*
X36403761Y54004037D01*
X36403761Y54004037D02*
X36308523Y53908799D01*
X36308523Y53908799D02*
X36213285Y53861180D01*
X36213285Y53861180D02*
X36022809Y53813561D01*
X36022809Y53813561D02*
X35879952Y53813561D01*
X35879952Y53813561D02*
X35689476Y53861180D01*
X35689476Y53861180D02*
X35594238Y53908799D01*
X35594238Y53908799D02*
X35499000Y54004037D01*
X35499000Y54004037D02*
X35451380Y54146894D01*
X35451380Y54146894D02*
X35451380Y54242132D01*
X35451380Y54242132D02*
X35499000Y54384989D01*
X35499000Y54384989D02*
X35546619Y54432608D01*
X35546619Y54432608D02*
X35879952Y54432608D01*
X35879952Y54432608D02*
X35879952Y54242132D01*
X35451380Y54861180D02*
X36451380Y54861180D01*
X36451380Y54861180D02*
X35451380Y55432608D01*
X35451380Y55432608D02*
X36451380Y55432608D01*
X35451380Y55908799D02*
X36451380Y55908799D01*
X36451380Y55908799D02*
X36451380Y56146894D01*
X36451380Y56146894D02*
X36403761Y56289751D01*
X36403761Y56289751D02*
X36308523Y56384989D01*
X36308523Y56384989D02*
X36213285Y56432608D01*
X36213285Y56432608D02*
X36022809Y56480227D01*
X36022809Y56480227D02*
X35879952Y56480227D01*
X35879952Y56480227D02*
X35689476Y56432608D01*
X35689476Y56432608D02*
X35594238Y56384989D01*
X35594238Y56384989D02*
X35499000Y56289751D01*
X35499000Y56289751D02*
X35451380Y56146894D01*
X35451380Y56146894D02*
X35451380Y55908799D01*
X33012980Y53962780D02*
X34012980Y53962780D01*
X34012980Y53962780D02*
X34012980Y54200875D01*
X34012980Y54200875D02*
X33965361Y54343732D01*
X33965361Y54343732D02*
X33870123Y54438970D01*
X33870123Y54438970D02*
X33774885Y54486589D01*
X33774885Y54486589D02*
X33584409Y54534208D01*
X33584409Y54534208D02*
X33441552Y54534208D01*
X33441552Y54534208D02*
X33251076Y54486589D01*
X33251076Y54486589D02*
X33155838Y54438970D01*
X33155838Y54438970D02*
X33060600Y54343732D01*
X33060600Y54343732D02*
X33012980Y54200875D01*
X33012980Y54200875D02*
X33012980Y53962780D01*
X33012980Y55391351D02*
X33536790Y55391351D01*
X33536790Y55391351D02*
X33632028Y55343732D01*
X33632028Y55343732D02*
X33679647Y55248494D01*
X33679647Y55248494D02*
X33679647Y55058018D01*
X33679647Y55058018D02*
X33632028Y54962780D01*
X33060600Y55391351D02*
X33012980Y55296113D01*
X33012980Y55296113D02*
X33012980Y55058018D01*
X33012980Y55058018D02*
X33060600Y54962780D01*
X33060600Y54962780D02*
X33155838Y54915161D01*
X33155838Y54915161D02*
X33251076Y54915161D01*
X33251076Y54915161D02*
X33346314Y54962780D01*
X33346314Y54962780D02*
X33393933Y55058018D01*
X33393933Y55058018D02*
X33393933Y55296113D01*
X33393933Y55296113D02*
X33441552Y55391351D01*
X33679647Y55724685D02*
X33679647Y56105637D01*
X34012980Y55867542D02*
X33155838Y55867542D01*
X33155838Y55867542D02*
X33060600Y55915161D01*
X33060600Y55915161D02*
X33012980Y56010399D01*
X33012980Y56010399D02*
X33012980Y56105637D01*
X33012980Y56867542D02*
X33536790Y56867542D01*
X33536790Y56867542D02*
X33632028Y56819923D01*
X33632028Y56819923D02*
X33679647Y56724685D01*
X33679647Y56724685D02*
X33679647Y56534209D01*
X33679647Y56534209D02*
X33632028Y56438971D01*
X33060600Y56867542D02*
X33012980Y56772304D01*
X33012980Y56772304D02*
X33012980Y56534209D01*
X33012980Y56534209D02*
X33060600Y56438971D01*
X33060600Y56438971D02*
X33155838Y56391352D01*
X33155838Y56391352D02*
X33251076Y56391352D01*
X33251076Y56391352D02*
X33346314Y56438971D01*
X33346314Y56438971D02*
X33393933Y56534209D01*
X33393933Y56534209D02*
X33393933Y56772304D01*
X33393933Y56772304D02*
X33441552Y56867542D01*
X33012980Y58248495D02*
X33060600Y58153257D01*
X33060600Y58153257D02*
X33108219Y58105638D01*
X33108219Y58105638D02*
X33203457Y58058019D01*
X33203457Y58058019D02*
X33489171Y58058019D01*
X33489171Y58058019D02*
X33584409Y58105638D01*
X33584409Y58105638D02*
X33632028Y58153257D01*
X33632028Y58153257D02*
X33679647Y58248495D01*
X33679647Y58248495D02*
X33679647Y58391352D01*
X33679647Y58391352D02*
X33632028Y58486590D01*
X33632028Y58486590D02*
X33584409Y58534209D01*
X33584409Y58534209D02*
X33489171Y58581828D01*
X33489171Y58581828D02*
X33203457Y58581828D01*
X33203457Y58581828D02*
X33108219Y58534209D01*
X33108219Y58534209D02*
X33060600Y58486590D01*
X33060600Y58486590D02*
X33012980Y58391352D01*
X33012980Y58391352D02*
X33012980Y58248495D01*
X33679647Y59438971D02*
X33012980Y59438971D01*
X33679647Y59010400D02*
X33155838Y59010400D01*
X33155838Y59010400D02*
X33060600Y59058019D01*
X33060600Y59058019D02*
X33012980Y59153257D01*
X33012980Y59153257D02*
X33012980Y59296114D01*
X33012980Y59296114D02*
X33060600Y59391352D01*
X33060600Y59391352D02*
X33108219Y59438971D01*
X33679647Y59772305D02*
X33679647Y60153257D01*
X34012980Y59915162D02*
X33155838Y59915162D01*
X33155838Y59915162D02*
X33060600Y59962781D01*
X33060600Y59962781D02*
X33012980Y60058019D01*
X33012980Y60058019D02*
X33012980Y60153257D01*
X51802619Y74930021D02*
X50802619Y74930021D01*
X51802619Y74453831D02*
X50802619Y74453831D01*
X50802619Y74453831D02*
X51802619Y73882403D01*
X51802619Y73882403D02*
X50802619Y73882403D01*
X168147438Y87563412D02*
X168099819Y87658650D01*
X168099819Y87658650D02*
X168099819Y87801507D01*
X168099819Y87801507D02*
X168147438Y87944364D01*
X168147438Y87944364D02*
X168242676Y88039602D01*
X168242676Y88039602D02*
X168337914Y88087221D01*
X168337914Y88087221D02*
X168528390Y88134840D01*
X168528390Y88134840D02*
X168671247Y88134840D01*
X168671247Y88134840D02*
X168861723Y88087221D01*
X168861723Y88087221D02*
X168956961Y88039602D01*
X168956961Y88039602D02*
X169052200Y87944364D01*
X169052200Y87944364D02*
X169099819Y87801507D01*
X169099819Y87801507D02*
X169099819Y87706269D01*
X169099819Y87706269D02*
X169052200Y87563412D01*
X169052200Y87563412D02*
X169004580Y87515793D01*
X169004580Y87515793D02*
X168671247Y87515793D01*
X168671247Y87515793D02*
X168671247Y87706269D01*
X169099819Y87087221D02*
X168099819Y87087221D01*
X168099819Y87087221D02*
X169099819Y86515793D01*
X169099819Y86515793D02*
X168099819Y86515793D01*
X169099819Y86039602D02*
X168099819Y86039602D01*
X168099819Y86039602D02*
X168099819Y85801507D01*
X168099819Y85801507D02*
X168147438Y85658650D01*
X168147438Y85658650D02*
X168242676Y85563412D01*
X168242676Y85563412D02*
X168337914Y85515793D01*
X168337914Y85515793D02*
X168528390Y85468174D01*
X168528390Y85468174D02*
X168671247Y85468174D01*
X168671247Y85468174D02*
X168861723Y85515793D01*
X168861723Y85515793D02*
X168956961Y85563412D01*
X168956961Y85563412D02*
X169052200Y85658650D01*
X169052200Y85658650D02*
X169099819Y85801507D01*
X169099819Y85801507D02*
X169099819Y86039602D01*
X112329819Y74127031D02*
X112329819Y74603221D01*
X112329819Y74603221D02*
X112806009Y74650840D01*
X112806009Y74650840D02*
X112758390Y74603221D01*
X112758390Y74603221D02*
X112710771Y74507983D01*
X112710771Y74507983D02*
X112710771Y74269888D01*
X112710771Y74269888D02*
X112758390Y74174650D01*
X112758390Y74174650D02*
X112806009Y74127031D01*
X112806009Y74127031D02*
X112901247Y74079412D01*
X112901247Y74079412D02*
X113139342Y74079412D01*
X113139342Y74079412D02*
X113234580Y74127031D01*
X113234580Y74127031D02*
X113282200Y74174650D01*
X113282200Y74174650D02*
X113329819Y74269888D01*
X113329819Y74269888D02*
X113329819Y74507983D01*
X113329819Y74507983D02*
X113282200Y74603221D01*
X113282200Y74603221D02*
X113234580Y74650840D01*
X112329819Y73793697D02*
X113329819Y73460364D01*
X113329819Y73460364D02*
X112329819Y73127031D01*
X113329819Y72031792D02*
X112329819Y72031792D01*
X112329819Y72031792D02*
X112329819Y71650840D01*
X112329819Y71650840D02*
X112377438Y71555602D01*
X112377438Y71555602D02*
X112425057Y71507983D01*
X112425057Y71507983D02*
X112520295Y71460364D01*
X112520295Y71460364D02*
X112663152Y71460364D01*
X112663152Y71460364D02*
X112758390Y71507983D01*
X112758390Y71507983D02*
X112806009Y71555602D01*
X112806009Y71555602D02*
X112853628Y71650840D01*
X112853628Y71650840D02*
X112853628Y72031792D01*
X113282200Y71079411D02*
X113329819Y70936554D01*
X113329819Y70936554D02*
X113329819Y70698459D01*
X113329819Y70698459D02*
X113282200Y70603221D01*
X113282200Y70603221D02*
X113234580Y70555602D01*
X113234580Y70555602D02*
X113139342Y70507983D01*
X113139342Y70507983D02*
X113044104Y70507983D01*
X113044104Y70507983D02*
X112948866Y70555602D01*
X112948866Y70555602D02*
X112901247Y70603221D01*
X112901247Y70603221D02*
X112853628Y70698459D01*
X112853628Y70698459D02*
X112806009Y70888935D01*
X112806009Y70888935D02*
X112758390Y70984173D01*
X112758390Y70984173D02*
X112710771Y71031792D01*
X112710771Y71031792D02*
X112615533Y71079411D01*
X112615533Y71079411D02*
X112520295Y71079411D01*
X112520295Y71079411D02*
X112425057Y71031792D01*
X112425057Y71031792D02*
X112377438Y70984173D01*
X112377438Y70984173D02*
X112329819Y70888935D01*
X112329819Y70888935D02*
X112329819Y70650840D01*
X112329819Y70650840D02*
X112377438Y70507983D01*
X112329819Y70079411D02*
X113139342Y70079411D01*
X113139342Y70079411D02*
X113234580Y70031792D01*
X113234580Y70031792D02*
X113282200Y69984173D01*
X113282200Y69984173D02*
X113329819Y69888935D01*
X113329819Y69888935D02*
X113329819Y69698459D01*
X113329819Y69698459D02*
X113282200Y69603221D01*
X113282200Y69603221D02*
X113234580Y69555602D01*
X113234580Y69555602D02*
X113139342Y69507983D01*
X113139342Y69507983D02*
X112329819Y69507983D01*
X62572744Y47600181D02*
X62382268Y47600181D01*
X62382268Y47600181D02*
X62287030Y47552562D01*
X62287030Y47552562D02*
X62191792Y47457324D01*
X62191792Y47457324D02*
X62144173Y47266848D01*
X62144173Y47266848D02*
X62144173Y46933515D01*
X62144173Y46933515D02*
X62191792Y46743039D01*
X62191792Y46743039D02*
X62287030Y46647800D01*
X62287030Y46647800D02*
X62382268Y46600181D01*
X62382268Y46600181D02*
X62572744Y46600181D01*
X62572744Y46600181D02*
X62667982Y46647800D01*
X62667982Y46647800D02*
X62763220Y46743039D01*
X62763220Y46743039D02*
X62810839Y46933515D01*
X62810839Y46933515D02*
X62810839Y47266848D01*
X62810839Y47266848D02*
X62763220Y47457324D01*
X62763220Y47457324D02*
X62667982Y47552562D01*
X62667982Y47552562D02*
X62572744Y47600181D01*
X61715601Y47266848D02*
X61715601Y46266848D01*
X61715601Y47219229D02*
X61620363Y47266848D01*
X61620363Y47266848D02*
X61429887Y47266848D01*
X61429887Y47266848D02*
X61334649Y47219229D01*
X61334649Y47219229D02*
X61287030Y47171610D01*
X61287030Y47171610D02*
X61239411Y47076372D01*
X61239411Y47076372D02*
X61239411Y46790658D01*
X61239411Y46790658D02*
X61287030Y46695420D01*
X61287030Y46695420D02*
X61334649Y46647800D01*
X61334649Y46647800D02*
X61429887Y46600181D01*
X61429887Y46600181D02*
X61620363Y46600181D01*
X61620363Y46600181D02*
X61715601Y46647800D01*
X60429887Y46647800D02*
X60525125Y46600181D01*
X60525125Y46600181D02*
X60715601Y46600181D01*
X60715601Y46600181D02*
X60810839Y46647800D01*
X60810839Y46647800D02*
X60858458Y46743039D01*
X60858458Y46743039D02*
X60858458Y47123991D01*
X60858458Y47123991D02*
X60810839Y47219229D01*
X60810839Y47219229D02*
X60715601Y47266848D01*
X60715601Y47266848D02*
X60525125Y47266848D01*
X60525125Y47266848D02*
X60429887Y47219229D01*
X60429887Y47219229D02*
X60382268Y47123991D01*
X60382268Y47123991D02*
X60382268Y47028753D01*
X60382268Y47028753D02*
X60858458Y46933515D01*
X59953696Y47266848D02*
X59953696Y46600181D01*
X59953696Y47171610D02*
X59906077Y47219229D01*
X59906077Y47219229D02*
X59810839Y47266848D01*
X59810839Y47266848D02*
X59667982Y47266848D01*
X59667982Y47266848D02*
X59572744Y47219229D01*
X59572744Y47219229D02*
X59525125Y47123991D01*
X59525125Y47123991D02*
X59525125Y46600181D01*
X58287029Y46600181D02*
X58287029Y47600181D01*
X58287029Y47600181D02*
X57906077Y47600181D01*
X57906077Y47600181D02*
X57810839Y47552562D01*
X57810839Y47552562D02*
X57763220Y47504943D01*
X57763220Y47504943D02*
X57715601Y47409705D01*
X57715601Y47409705D02*
X57715601Y47266848D01*
X57715601Y47266848D02*
X57763220Y47171610D01*
X57763220Y47171610D02*
X57810839Y47123991D01*
X57810839Y47123991D02*
X57906077Y47076372D01*
X57906077Y47076372D02*
X58287029Y47076372D01*
X56906077Y46647800D02*
X57001315Y46600181D01*
X57001315Y46600181D02*
X57191791Y46600181D01*
X57191791Y46600181D02*
X57287029Y46647800D01*
X57287029Y46647800D02*
X57334648Y46743039D01*
X57334648Y46743039D02*
X57334648Y47123991D01*
X57334648Y47123991D02*
X57287029Y47219229D01*
X57287029Y47219229D02*
X57191791Y47266848D01*
X57191791Y47266848D02*
X57001315Y47266848D01*
X57001315Y47266848D02*
X56906077Y47219229D01*
X56906077Y47219229D02*
X56858458Y47123991D01*
X56858458Y47123991D02*
X56858458Y47028753D01*
X56858458Y47028753D02*
X57334648Y46933515D01*
X56001315Y46600181D02*
X56001315Y47600181D01*
X56001315Y46647800D02*
X56096553Y46600181D01*
X56096553Y46600181D02*
X56287029Y46600181D01*
X56287029Y46600181D02*
X56382267Y46647800D01*
X56382267Y46647800D02*
X56429886Y46695420D01*
X56429886Y46695420D02*
X56477505Y46790658D01*
X56477505Y46790658D02*
X56477505Y47076372D01*
X56477505Y47076372D02*
X56429886Y47171610D01*
X56429886Y47171610D02*
X56382267Y47219229D01*
X56382267Y47219229D02*
X56287029Y47266848D01*
X56287029Y47266848D02*
X56096553Y47266848D01*
X56096553Y47266848D02*
X56001315Y47219229D01*
X55096553Y46600181D02*
X55096553Y47123991D01*
X55096553Y47123991D02*
X55144172Y47219229D01*
X55144172Y47219229D02*
X55239410Y47266848D01*
X55239410Y47266848D02*
X55429886Y47266848D01*
X55429886Y47266848D02*
X55525124Y47219229D01*
X55096553Y46647800D02*
X55191791Y46600181D01*
X55191791Y46600181D02*
X55429886Y46600181D01*
X55429886Y46600181D02*
X55525124Y46647800D01*
X55525124Y46647800D02*
X55572743Y46743039D01*
X55572743Y46743039D02*
X55572743Y46838277D01*
X55572743Y46838277D02*
X55525124Y46933515D01*
X55525124Y46933515D02*
X55429886Y46981134D01*
X55429886Y46981134D02*
X55191791Y46981134D01*
X55191791Y46981134D02*
X55096553Y47028753D01*
X54477505Y46600181D02*
X54572743Y46647800D01*
X54572743Y46647800D02*
X54620362Y46743039D01*
X54620362Y46743039D02*
X54620362Y47600181D01*
X54096552Y46600181D02*
X54096552Y47600181D01*
X54096552Y47219229D02*
X54001314Y47266848D01*
X54001314Y47266848D02*
X53810838Y47266848D01*
X53810838Y47266848D02*
X53715600Y47219229D01*
X53715600Y47219229D02*
X53667981Y47171610D01*
X53667981Y47171610D02*
X53620362Y47076372D01*
X53620362Y47076372D02*
X53620362Y46790658D01*
X53620362Y46790658D02*
X53667981Y46695420D01*
X53667981Y46695420D02*
X53715600Y46647800D01*
X53715600Y46647800D02*
X53810838Y46600181D01*
X53810838Y46600181D02*
X54001314Y46600181D01*
X54001314Y46600181D02*
X54096552Y46647800D01*
X53048933Y46600181D02*
X53144171Y46647800D01*
X53144171Y46647800D02*
X53191790Y46695420D01*
X53191790Y46695420D02*
X53239409Y46790658D01*
X53239409Y46790658D02*
X53239409Y47076372D01*
X53239409Y47076372D02*
X53191790Y47171610D01*
X53191790Y47171610D02*
X53144171Y47219229D01*
X53144171Y47219229D02*
X53048933Y47266848D01*
X53048933Y47266848D02*
X52906076Y47266848D01*
X52906076Y47266848D02*
X52810838Y47219229D01*
X52810838Y47219229D02*
X52763219Y47171610D01*
X52763219Y47171610D02*
X52715600Y47076372D01*
X52715600Y47076372D02*
X52715600Y46790658D01*
X52715600Y46790658D02*
X52763219Y46695420D01*
X52763219Y46695420D02*
X52810838Y46647800D01*
X52810838Y46647800D02*
X52906076Y46600181D01*
X52906076Y46600181D02*
X53048933Y46600181D01*
X51858457Y46600181D02*
X51858457Y47123991D01*
X51858457Y47123991D02*
X51906076Y47219229D01*
X51906076Y47219229D02*
X52001314Y47266848D01*
X52001314Y47266848D02*
X52191790Y47266848D01*
X52191790Y47266848D02*
X52287028Y47219229D01*
X51858457Y46647800D02*
X51953695Y46600181D01*
X51953695Y46600181D02*
X52191790Y46600181D01*
X52191790Y46600181D02*
X52287028Y46647800D01*
X52287028Y46647800D02*
X52334647Y46743039D01*
X52334647Y46743039D02*
X52334647Y46838277D01*
X52334647Y46838277D02*
X52287028Y46933515D01*
X52287028Y46933515D02*
X52191790Y46981134D01*
X52191790Y46981134D02*
X51953695Y46981134D01*
X51953695Y46981134D02*
X51858457Y47028753D01*
X51382266Y46600181D02*
X51382266Y47266848D01*
X51382266Y47076372D02*
X51334647Y47171610D01*
X51334647Y47171610D02*
X51287028Y47219229D01*
X51287028Y47219229D02*
X51191790Y47266848D01*
X51191790Y47266848D02*
X51096552Y47266848D01*
X50334647Y46600181D02*
X50334647Y47600181D01*
X50334647Y46647800D02*
X50429885Y46600181D01*
X50429885Y46600181D02*
X50620361Y46600181D01*
X50620361Y46600181D02*
X50715599Y46647800D01*
X50715599Y46647800D02*
X50763218Y46695420D01*
X50763218Y46695420D02*
X50810837Y46790658D01*
X50810837Y46790658D02*
X50810837Y47076372D01*
X50810837Y47076372D02*
X50763218Y47171610D01*
X50763218Y47171610D02*
X50715599Y47219229D01*
X50715599Y47219229D02*
X50620361Y47266848D01*
X50620361Y47266848D02*
X50429885Y47266848D01*
X50429885Y47266848D02*
X50334647Y47219229D01*
X62763220Y44990181D02*
X62763220Y45990181D01*
X62334649Y44990181D02*
X62334649Y45513991D01*
X62334649Y45513991D02*
X62382268Y45609229D01*
X62382268Y45609229D02*
X62477506Y45656848D01*
X62477506Y45656848D02*
X62620363Y45656848D01*
X62620363Y45656848D02*
X62715601Y45609229D01*
X62715601Y45609229D02*
X62763220Y45561610D01*
X62001315Y45656848D02*
X61620363Y45656848D01*
X61858458Y45990181D02*
X61858458Y45133039D01*
X61858458Y45133039D02*
X61810839Y45037800D01*
X61810839Y45037800D02*
X61715601Y44990181D01*
X61715601Y44990181D02*
X61620363Y44990181D01*
X61429886Y45656848D02*
X61048934Y45656848D01*
X61287029Y45990181D02*
X61287029Y45133039D01*
X61287029Y45133039D02*
X61239410Y45037800D01*
X61239410Y45037800D02*
X61144172Y44990181D01*
X61144172Y44990181D02*
X61048934Y44990181D01*
X60715600Y45656848D02*
X60715600Y44656848D01*
X60715600Y45609229D02*
X60620362Y45656848D01*
X60620362Y45656848D02*
X60429886Y45656848D01*
X60429886Y45656848D02*
X60334648Y45609229D01*
X60334648Y45609229D02*
X60287029Y45561610D01*
X60287029Y45561610D02*
X60239410Y45466372D01*
X60239410Y45466372D02*
X60239410Y45180658D01*
X60239410Y45180658D02*
X60287029Y45085420D01*
X60287029Y45085420D02*
X60334648Y45037800D01*
X60334648Y45037800D02*
X60429886Y44990181D01*
X60429886Y44990181D02*
X60620362Y44990181D01*
X60620362Y44990181D02*
X60715600Y45037800D01*
X59858457Y45037800D02*
X59763219Y44990181D01*
X59763219Y44990181D02*
X59572743Y44990181D01*
X59572743Y44990181D02*
X59477505Y45037800D01*
X59477505Y45037800D02*
X59429886Y45133039D01*
X59429886Y45133039D02*
X59429886Y45180658D01*
X59429886Y45180658D02*
X59477505Y45275896D01*
X59477505Y45275896D02*
X59572743Y45323515D01*
X59572743Y45323515D02*
X59715600Y45323515D01*
X59715600Y45323515D02*
X59810838Y45371134D01*
X59810838Y45371134D02*
X59858457Y45466372D01*
X59858457Y45466372D02*
X59858457Y45513991D01*
X59858457Y45513991D02*
X59810838Y45609229D01*
X59810838Y45609229D02*
X59715600Y45656848D01*
X59715600Y45656848D02*
X59572743Y45656848D01*
X59572743Y45656848D02*
X59477505Y45609229D01*
X59001314Y45085420D02*
X58953695Y45037800D01*
X58953695Y45037800D02*
X59001314Y44990181D01*
X59001314Y44990181D02*
X59048933Y45037800D01*
X59048933Y45037800D02*
X59001314Y45085420D01*
X59001314Y45085420D02*
X59001314Y44990181D01*
X59001314Y45609229D02*
X58953695Y45561610D01*
X58953695Y45561610D02*
X59001314Y45513991D01*
X59001314Y45513991D02*
X59048933Y45561610D01*
X59048933Y45561610D02*
X59001314Y45609229D01*
X59001314Y45609229D02*
X59001314Y45513991D01*
X57810839Y46037800D02*
X58667981Y44752086D01*
X56763220Y46037800D02*
X57620362Y44752086D01*
X56001315Y45656848D02*
X56001315Y44847324D01*
X56001315Y44847324D02*
X56048934Y44752086D01*
X56048934Y44752086D02*
X56096553Y44704467D01*
X56096553Y44704467D02*
X56191791Y44656848D01*
X56191791Y44656848D02*
X56334648Y44656848D01*
X56334648Y44656848D02*
X56429886Y44704467D01*
X56001315Y45037800D02*
X56096553Y44990181D01*
X56096553Y44990181D02*
X56287029Y44990181D01*
X56287029Y44990181D02*
X56382267Y45037800D01*
X56382267Y45037800D02*
X56429886Y45085420D01*
X56429886Y45085420D02*
X56477505Y45180658D01*
X56477505Y45180658D02*
X56477505Y45466372D01*
X56477505Y45466372D02*
X56429886Y45561610D01*
X56429886Y45561610D02*
X56382267Y45609229D01*
X56382267Y45609229D02*
X56287029Y45656848D01*
X56287029Y45656848D02*
X56096553Y45656848D01*
X56096553Y45656848D02*
X56001315Y45609229D01*
X55525124Y44990181D02*
X55525124Y45656848D01*
X55525124Y45990181D02*
X55572743Y45942562D01*
X55572743Y45942562D02*
X55525124Y45894943D01*
X55525124Y45894943D02*
X55477505Y45942562D01*
X55477505Y45942562D02*
X55525124Y45990181D01*
X55525124Y45990181D02*
X55525124Y45894943D01*
X55191791Y45656848D02*
X54810839Y45656848D01*
X55048934Y45990181D02*
X55048934Y45133039D01*
X55048934Y45133039D02*
X55001315Y45037800D01*
X55001315Y45037800D02*
X54906077Y44990181D01*
X54906077Y44990181D02*
X54810839Y44990181D01*
X54477505Y44990181D02*
X54477505Y45990181D01*
X54048934Y44990181D02*
X54048934Y45513991D01*
X54048934Y45513991D02*
X54096553Y45609229D01*
X54096553Y45609229D02*
X54191791Y45656848D01*
X54191791Y45656848D02*
X54334648Y45656848D01*
X54334648Y45656848D02*
X54429886Y45609229D01*
X54429886Y45609229D02*
X54477505Y45561610D01*
X53144172Y45656848D02*
X53144172Y44990181D01*
X53572743Y45656848D02*
X53572743Y45133039D01*
X53572743Y45133039D02*
X53525124Y45037800D01*
X53525124Y45037800D02*
X53429886Y44990181D01*
X53429886Y44990181D02*
X53287029Y44990181D01*
X53287029Y44990181D02*
X53191791Y45037800D01*
X53191791Y45037800D02*
X53144172Y45085420D01*
X52667981Y44990181D02*
X52667981Y45990181D01*
X52667981Y45609229D02*
X52572743Y45656848D01*
X52572743Y45656848D02*
X52382267Y45656848D01*
X52382267Y45656848D02*
X52287029Y45609229D01*
X52287029Y45609229D02*
X52239410Y45561610D01*
X52239410Y45561610D02*
X52191791Y45466372D01*
X52191791Y45466372D02*
X52191791Y45180658D01*
X52191791Y45180658D02*
X52239410Y45085420D01*
X52239410Y45085420D02*
X52287029Y45037800D01*
X52287029Y45037800D02*
X52382267Y44990181D01*
X52382267Y44990181D02*
X52572743Y44990181D01*
X52572743Y44990181D02*
X52667981Y45037800D01*
X51763219Y45085420D02*
X51715600Y45037800D01*
X51715600Y45037800D02*
X51763219Y44990181D01*
X51763219Y44990181D02*
X51810838Y45037800D01*
X51810838Y45037800D02*
X51763219Y45085420D01*
X51763219Y45085420D02*
X51763219Y44990181D01*
X50858458Y45037800D02*
X50953696Y44990181D01*
X50953696Y44990181D02*
X51144172Y44990181D01*
X51144172Y44990181D02*
X51239410Y45037800D01*
X51239410Y45037800D02*
X51287029Y45085420D01*
X51287029Y45085420D02*
X51334648Y45180658D01*
X51334648Y45180658D02*
X51334648Y45466372D01*
X51334648Y45466372D02*
X51287029Y45561610D01*
X51287029Y45561610D02*
X51239410Y45609229D01*
X51239410Y45609229D02*
X51144172Y45656848D01*
X51144172Y45656848D02*
X50953696Y45656848D01*
X50953696Y45656848D02*
X50858458Y45609229D01*
X50287029Y44990181D02*
X50382267Y45037800D01*
X50382267Y45037800D02*
X50429886Y45085420D01*
X50429886Y45085420D02*
X50477505Y45180658D01*
X50477505Y45180658D02*
X50477505Y45466372D01*
X50477505Y45466372D02*
X50429886Y45561610D01*
X50429886Y45561610D02*
X50382267Y45609229D01*
X50382267Y45609229D02*
X50287029Y45656848D01*
X50287029Y45656848D02*
X50144172Y45656848D01*
X50144172Y45656848D02*
X50048934Y45609229D01*
X50048934Y45609229D02*
X50001315Y45561610D01*
X50001315Y45561610D02*
X49953696Y45466372D01*
X49953696Y45466372D02*
X49953696Y45180658D01*
X49953696Y45180658D02*
X50001315Y45085420D01*
X50001315Y45085420D02*
X50048934Y45037800D01*
X50048934Y45037800D02*
X50144172Y44990181D01*
X50144172Y44990181D02*
X50287029Y44990181D01*
X49525124Y44990181D02*
X49525124Y45656848D01*
X49525124Y45561610D02*
X49477505Y45609229D01*
X49477505Y45609229D02*
X49382267Y45656848D01*
X49382267Y45656848D02*
X49239410Y45656848D01*
X49239410Y45656848D02*
X49144172Y45609229D01*
X49144172Y45609229D02*
X49096553Y45513991D01*
X49096553Y45513991D02*
X49096553Y44990181D01*
X49096553Y45513991D02*
X49048934Y45609229D01*
X49048934Y45609229D02*
X48953696Y45656848D01*
X48953696Y45656848D02*
X48810839Y45656848D01*
X48810839Y45656848D02*
X48715600Y45609229D01*
X48715600Y45609229D02*
X48667981Y45513991D01*
X48667981Y45513991D02*
X48667981Y44990181D01*
X47477506Y46037800D02*
X48334648Y44752086D01*
X47144172Y45656848D02*
X47144172Y44656848D01*
X47144172Y45609229D02*
X47048934Y45656848D01*
X47048934Y45656848D02*
X46858458Y45656848D01*
X46858458Y45656848D02*
X46763220Y45609229D01*
X46763220Y45609229D02*
X46715601Y45561610D01*
X46715601Y45561610D02*
X46667982Y45466372D01*
X46667982Y45466372D02*
X46667982Y45180658D01*
X46667982Y45180658D02*
X46715601Y45085420D01*
X46715601Y45085420D02*
X46763220Y45037800D01*
X46763220Y45037800D02*
X46858458Y44990181D01*
X46858458Y44990181D02*
X47048934Y44990181D01*
X47048934Y44990181D02*
X47144172Y45037800D01*
X45858458Y45037800D02*
X45953696Y44990181D01*
X45953696Y44990181D02*
X46144172Y44990181D01*
X46144172Y44990181D02*
X46239410Y45037800D01*
X46239410Y45037800D02*
X46287029Y45133039D01*
X46287029Y45133039D02*
X46287029Y45513991D01*
X46287029Y45513991D02*
X46239410Y45609229D01*
X46239410Y45609229D02*
X46144172Y45656848D01*
X46144172Y45656848D02*
X45953696Y45656848D01*
X45953696Y45656848D02*
X45858458Y45609229D01*
X45858458Y45609229D02*
X45810839Y45513991D01*
X45810839Y45513991D02*
X45810839Y45418753D01*
X45810839Y45418753D02*
X46287029Y45323515D01*
X44953696Y44990181D02*
X44953696Y45990181D01*
X44953696Y45037800D02*
X45048934Y44990181D01*
X45048934Y44990181D02*
X45239410Y44990181D01*
X45239410Y44990181D02*
X45334648Y45037800D01*
X45334648Y45037800D02*
X45382267Y45085420D01*
X45382267Y45085420D02*
X45429886Y45180658D01*
X45429886Y45180658D02*
X45429886Y45466372D01*
X45429886Y45466372D02*
X45382267Y45561610D01*
X45382267Y45561610D02*
X45334648Y45609229D01*
X45334648Y45609229D02*
X45239410Y45656848D01*
X45239410Y45656848D02*
X45048934Y45656848D01*
X45048934Y45656848D02*
X44953696Y45609229D01*
X44048934Y44990181D02*
X44048934Y45513991D01*
X44048934Y45513991D02*
X44096553Y45609229D01*
X44096553Y45609229D02*
X44191791Y45656848D01*
X44191791Y45656848D02*
X44382267Y45656848D01*
X44382267Y45656848D02*
X44477505Y45609229D01*
X44048934Y45037800D02*
X44144172Y44990181D01*
X44144172Y44990181D02*
X44382267Y44990181D01*
X44382267Y44990181D02*
X44477505Y45037800D01*
X44477505Y45037800D02*
X44525124Y45133039D01*
X44525124Y45133039D02*
X44525124Y45228277D01*
X44525124Y45228277D02*
X44477505Y45323515D01*
X44477505Y45323515D02*
X44382267Y45371134D01*
X44382267Y45371134D02*
X44144172Y45371134D01*
X44144172Y45371134D02*
X44048934Y45418753D01*
X43429886Y44990181D02*
X43525124Y45037800D01*
X43525124Y45037800D02*
X43572743Y45133039D01*
X43572743Y45133039D02*
X43572743Y45990181D01*
X43048933Y44990181D02*
X43048933Y45990181D01*
X43048933Y45609229D02*
X42953695Y45656848D01*
X42953695Y45656848D02*
X42763219Y45656848D01*
X42763219Y45656848D02*
X42667981Y45609229D01*
X42667981Y45609229D02*
X42620362Y45561610D01*
X42620362Y45561610D02*
X42572743Y45466372D01*
X42572743Y45466372D02*
X42572743Y45180658D01*
X42572743Y45180658D02*
X42620362Y45085420D01*
X42620362Y45085420D02*
X42667981Y45037800D01*
X42667981Y45037800D02*
X42763219Y44990181D01*
X42763219Y44990181D02*
X42953695Y44990181D01*
X42953695Y44990181D02*
X43048933Y45037800D01*
X42001314Y44990181D02*
X42096552Y45037800D01*
X42096552Y45037800D02*
X42144171Y45085420D01*
X42144171Y45085420D02*
X42191790Y45180658D01*
X42191790Y45180658D02*
X42191790Y45466372D01*
X42191790Y45466372D02*
X42144171Y45561610D01*
X42144171Y45561610D02*
X42096552Y45609229D01*
X42096552Y45609229D02*
X42001314Y45656848D01*
X42001314Y45656848D02*
X41858457Y45656848D01*
X41858457Y45656848D02*
X41763219Y45609229D01*
X41763219Y45609229D02*
X41715600Y45561610D01*
X41715600Y45561610D02*
X41667981Y45466372D01*
X41667981Y45466372D02*
X41667981Y45180658D01*
X41667981Y45180658D02*
X41715600Y45085420D01*
X41715600Y45085420D02*
X41763219Y45037800D01*
X41763219Y45037800D02*
X41858457Y44990181D01*
X41858457Y44990181D02*
X42001314Y44990181D01*
X40810838Y44990181D02*
X40810838Y45513991D01*
X40810838Y45513991D02*
X40858457Y45609229D01*
X40858457Y45609229D02*
X40953695Y45656848D01*
X40953695Y45656848D02*
X41144171Y45656848D01*
X41144171Y45656848D02*
X41239409Y45609229D01*
X40810838Y45037800D02*
X40906076Y44990181D01*
X40906076Y44990181D02*
X41144171Y44990181D01*
X41144171Y44990181D02*
X41239409Y45037800D01*
X41239409Y45037800D02*
X41287028Y45133039D01*
X41287028Y45133039D02*
X41287028Y45228277D01*
X41287028Y45228277D02*
X41239409Y45323515D01*
X41239409Y45323515D02*
X41144171Y45371134D01*
X41144171Y45371134D02*
X40906076Y45371134D01*
X40906076Y45371134D02*
X40810838Y45418753D01*
X40334647Y44990181D02*
X40334647Y45656848D01*
X40334647Y45466372D02*
X40287028Y45561610D01*
X40287028Y45561610D02*
X40239409Y45609229D01*
X40239409Y45609229D02*
X40144171Y45656848D01*
X40144171Y45656848D02*
X40048933Y45656848D01*
X39287028Y44990181D02*
X39287028Y45990181D01*
X39287028Y45037800D02*
X39382266Y44990181D01*
X39382266Y44990181D02*
X39572742Y44990181D01*
X39572742Y44990181D02*
X39667980Y45037800D01*
X39667980Y45037800D02*
X39715599Y45085420D01*
X39715599Y45085420D02*
X39763218Y45180658D01*
X39763218Y45180658D02*
X39763218Y45466372D01*
X39763218Y45466372D02*
X39715599Y45561610D01*
X39715599Y45561610D02*
X39667980Y45609229D01*
X39667980Y45609229D02*
X39572742Y45656848D01*
X39572742Y45656848D02*
X39382266Y45656848D01*
X39382266Y45656848D02*
X39287028Y45609229D01*
X62429887Y43903991D02*
X62287030Y43856372D01*
X62287030Y43856372D02*
X62239411Y43808753D01*
X62239411Y43808753D02*
X62191792Y43713515D01*
X62191792Y43713515D02*
X62191792Y43570658D01*
X62191792Y43570658D02*
X62239411Y43475420D01*
X62239411Y43475420D02*
X62287030Y43427800D01*
X62287030Y43427800D02*
X62382268Y43380181D01*
X62382268Y43380181D02*
X62763220Y43380181D01*
X62763220Y43380181D02*
X62763220Y44380181D01*
X62763220Y44380181D02*
X62429887Y44380181D01*
X62429887Y44380181D02*
X62334649Y44332562D01*
X62334649Y44332562D02*
X62287030Y44284943D01*
X62287030Y44284943D02*
X62239411Y44189705D01*
X62239411Y44189705D02*
X62239411Y44094467D01*
X62239411Y44094467D02*
X62287030Y43999229D01*
X62287030Y43999229D02*
X62334649Y43951610D01*
X62334649Y43951610D02*
X62429887Y43903991D01*
X62429887Y43903991D02*
X62763220Y43903991D01*
X61191792Y43475420D02*
X61239411Y43427800D01*
X61239411Y43427800D02*
X61382268Y43380181D01*
X61382268Y43380181D02*
X61477506Y43380181D01*
X61477506Y43380181D02*
X61620363Y43427800D01*
X61620363Y43427800D02*
X61715601Y43523039D01*
X61715601Y43523039D02*
X61763220Y43618277D01*
X61763220Y43618277D02*
X61810839Y43808753D01*
X61810839Y43808753D02*
X61810839Y43951610D01*
X61810839Y43951610D02*
X61763220Y44142086D01*
X61763220Y44142086D02*
X61715601Y44237324D01*
X61715601Y44237324D02*
X61620363Y44332562D01*
X61620363Y44332562D02*
X61477506Y44380181D01*
X61477506Y44380181D02*
X61382268Y44380181D01*
X61382268Y44380181D02*
X61239411Y44332562D01*
X61239411Y44332562D02*
X61191792Y44284943D01*
X60429887Y43903991D02*
X60287030Y43856372D01*
X60287030Y43856372D02*
X60239411Y43808753D01*
X60239411Y43808753D02*
X60191792Y43713515D01*
X60191792Y43713515D02*
X60191792Y43570658D01*
X60191792Y43570658D02*
X60239411Y43475420D01*
X60239411Y43475420D02*
X60287030Y43427800D01*
X60287030Y43427800D02*
X60382268Y43380181D01*
X60382268Y43380181D02*
X60763220Y43380181D01*
X60763220Y43380181D02*
X60763220Y44380181D01*
X60763220Y44380181D02*
X60429887Y44380181D01*
X60429887Y44380181D02*
X60334649Y44332562D01*
X60334649Y44332562D02*
X60287030Y44284943D01*
X60287030Y44284943D02*
X60239411Y44189705D01*
X60239411Y44189705D02*
X60239411Y44094467D01*
X60239411Y44094467D02*
X60287030Y43999229D01*
X60287030Y43999229D02*
X60334649Y43951610D01*
X60334649Y43951610D02*
X60429887Y43903991D01*
X60429887Y43903991D02*
X60763220Y43903991D01*
X59763220Y43475420D02*
X59715601Y43427800D01*
X59715601Y43427800D02*
X59763220Y43380181D01*
X59763220Y43380181D02*
X59810839Y43427800D01*
X59810839Y43427800D02*
X59763220Y43475420D01*
X59763220Y43475420D02*
X59763220Y43380181D01*
X59763220Y43999229D02*
X59715601Y43951610D01*
X59715601Y43951610D02*
X59763220Y43903991D01*
X59763220Y43903991D02*
X59810839Y43951610D01*
X59810839Y43951610D02*
X59763220Y43999229D01*
X59763220Y43999229D02*
X59763220Y43903991D01*
X58620363Y44380181D02*
X58001316Y44380181D01*
X58001316Y44380181D02*
X58334649Y43999229D01*
X58334649Y43999229D02*
X58191792Y43999229D01*
X58191792Y43999229D02*
X58096554Y43951610D01*
X58096554Y43951610D02*
X58048935Y43903991D01*
X58048935Y43903991D02*
X58001316Y43808753D01*
X58001316Y43808753D02*
X58001316Y43570658D01*
X58001316Y43570658D02*
X58048935Y43475420D01*
X58048935Y43475420D02*
X58096554Y43427800D01*
X58096554Y43427800D02*
X58191792Y43380181D01*
X58191792Y43380181D02*
X58477506Y43380181D01*
X58477506Y43380181D02*
X58572744Y43427800D01*
X58572744Y43427800D02*
X58620363Y43475420D01*
X57572744Y43475420D02*
X57525125Y43427800D01*
X57525125Y43427800D02*
X57572744Y43380181D01*
X57572744Y43380181D02*
X57620363Y43427800D01*
X57620363Y43427800D02*
X57572744Y43475420D01*
X57572744Y43475420D02*
X57572744Y43380181D01*
X56906078Y44380181D02*
X56810840Y44380181D01*
X56810840Y44380181D02*
X56715602Y44332562D01*
X56715602Y44332562D02*
X56667983Y44284943D01*
X56667983Y44284943D02*
X56620364Y44189705D01*
X56620364Y44189705D02*
X56572745Y43999229D01*
X56572745Y43999229D02*
X56572745Y43761134D01*
X56572745Y43761134D02*
X56620364Y43570658D01*
X56620364Y43570658D02*
X56667983Y43475420D01*
X56667983Y43475420D02*
X56715602Y43427800D01*
X56715602Y43427800D02*
X56810840Y43380181D01*
X56810840Y43380181D02*
X56906078Y43380181D01*
X56906078Y43380181D02*
X57001316Y43427800D01*
X57001316Y43427800D02*
X57048935Y43475420D01*
X57048935Y43475420D02*
X57096554Y43570658D01*
X57096554Y43570658D02*
X57144173Y43761134D01*
X57144173Y43761134D02*
X57144173Y43999229D01*
X57144173Y43999229D02*
X57096554Y44189705D01*
X57096554Y44189705D02*
X57048935Y44284943D01*
X57048935Y44284943D02*
X57001316Y44332562D01*
X57001316Y44332562D02*
X56906078Y44380181D01*
X56144173Y43475420D02*
X56096554Y43427800D01*
X56096554Y43427800D02*
X56144173Y43380181D01*
X56144173Y43380181D02*
X56191792Y43427800D01*
X56191792Y43427800D02*
X56144173Y43475420D01*
X56144173Y43475420D02*
X56144173Y43380181D01*
X55477507Y44380181D02*
X55382269Y44380181D01*
X55382269Y44380181D02*
X55287031Y44332562D01*
X55287031Y44332562D02*
X55239412Y44284943D01*
X55239412Y44284943D02*
X55191793Y44189705D01*
X55191793Y44189705D02*
X55144174Y43999229D01*
X55144174Y43999229D02*
X55144174Y43761134D01*
X55144174Y43761134D02*
X55191793Y43570658D01*
X55191793Y43570658D02*
X55239412Y43475420D01*
X55239412Y43475420D02*
X55287031Y43427800D01*
X55287031Y43427800D02*
X55382269Y43380181D01*
X55382269Y43380181D02*
X55477507Y43380181D01*
X55477507Y43380181D02*
X55572745Y43427800D01*
X55572745Y43427800D02*
X55620364Y43475420D01*
X55620364Y43475420D02*
X55667983Y43570658D01*
X55667983Y43570658D02*
X55715602Y43761134D01*
X55715602Y43761134D02*
X55715602Y43999229D01*
X55715602Y43999229D02*
X55667983Y44189705D01*
X55667983Y44189705D02*
X55620364Y44284943D01*
X55620364Y44284943D02*
X55572745Y44332562D01*
X55572745Y44332562D02*
X55477507Y44380181D01*
X54715602Y43761134D02*
X53953698Y43761134D01*
X52906079Y43380181D02*
X53239412Y43856372D01*
X53477507Y43380181D02*
X53477507Y44380181D01*
X53477507Y44380181D02*
X53096555Y44380181D01*
X53096555Y44380181D02*
X53001317Y44332562D01*
X53001317Y44332562D02*
X52953698Y44284943D01*
X52953698Y44284943D02*
X52906079Y44189705D01*
X52906079Y44189705D02*
X52906079Y44046848D01*
X52906079Y44046848D02*
X52953698Y43951610D01*
X52953698Y43951610D02*
X53001317Y43903991D01*
X53001317Y43903991D02*
X53096555Y43856372D01*
X53096555Y43856372D02*
X53477507Y43856372D01*
X51906079Y43475420D02*
X51953698Y43427800D01*
X51953698Y43427800D02*
X52096555Y43380181D01*
X52096555Y43380181D02*
X52191793Y43380181D01*
X52191793Y43380181D02*
X52334650Y43427800D01*
X52334650Y43427800D02*
X52429888Y43523039D01*
X52429888Y43523039D02*
X52477507Y43618277D01*
X52477507Y43618277D02*
X52525126Y43808753D01*
X52525126Y43808753D02*
X52525126Y43951610D01*
X52525126Y43951610D02*
X52477507Y44142086D01*
X52477507Y44142086D02*
X52429888Y44237324D01*
X52429888Y44237324D02*
X52334650Y44332562D01*
X52334650Y44332562D02*
X52191793Y44380181D01*
X52191793Y44380181D02*
X52096555Y44380181D01*
X52096555Y44380181D02*
X51953698Y44332562D01*
X51953698Y44332562D02*
X51906079Y44284943D01*
X50953698Y43380181D02*
X51525126Y43380181D01*
X51239412Y43380181D02*
X51239412Y44380181D01*
X51239412Y44380181D02*
X51334650Y44237324D01*
X51334650Y44237324D02*
X51429888Y44142086D01*
X51429888Y44142086D02*
X51525126Y44094467D01*
X30511133Y54013580D02*
X30511133Y54775484D01*
X30130180Y54394532D02*
X30892085Y54394532D01*
X31130180Y55727865D02*
X31130180Y55251675D01*
X31130180Y55251675D02*
X30653990Y55204056D01*
X30653990Y55204056D02*
X30701609Y55251675D01*
X30701609Y55251675D02*
X30749228Y55346913D01*
X30749228Y55346913D02*
X30749228Y55585008D01*
X30749228Y55585008D02*
X30701609Y55680246D01*
X30701609Y55680246D02*
X30653990Y55727865D01*
X30653990Y55727865D02*
X30558752Y55775484D01*
X30558752Y55775484D02*
X30320657Y55775484D01*
X30320657Y55775484D02*
X30225419Y55727865D01*
X30225419Y55727865D02*
X30177800Y55680246D01*
X30177800Y55680246D02*
X30130180Y55585008D01*
X30130180Y55585008D02*
X30130180Y55346913D01*
X30130180Y55346913D02*
X30177800Y55251675D01*
X30177800Y55251675D02*
X30225419Y55204056D01*
X31130180Y56061199D02*
X30130180Y56394532D01*
X30130180Y56394532D02*
X31130180Y56727865D01*
X45454173Y74141372D02*
X45454173Y75641372D01*
X45454173Y75641372D02*
X44954173Y74569943D01*
X44954173Y74569943D02*
X44454173Y75641372D01*
X44454173Y75641372D02*
X44454173Y74141372D01*
X43739887Y74141372D02*
X43739887Y75641372D01*
X43025601Y74141372D02*
X43025601Y75641372D01*
X43025601Y75641372D02*
X42668458Y75641372D01*
X42668458Y75641372D02*
X42454172Y75569943D01*
X42454172Y75569943D02*
X42311315Y75427086D01*
X42311315Y75427086D02*
X42239886Y75284229D01*
X42239886Y75284229D02*
X42168458Y74998515D01*
X42168458Y74998515D02*
X42168458Y74784229D01*
X42168458Y74784229D02*
X42239886Y74498515D01*
X42239886Y74498515D02*
X42311315Y74355658D01*
X42311315Y74355658D02*
X42454172Y74212800D01*
X42454172Y74212800D02*
X42668458Y74141372D01*
X42668458Y74141372D02*
X43025601Y74141372D01*
X41525601Y74141372D02*
X41525601Y75641372D01*
X115004180Y79667580D02*
X115670847Y79667580D01*
X116004180Y79667580D02*
X115956561Y79619961D01*
X115956561Y79619961D02*
X115908942Y79667580D01*
X115908942Y79667580D02*
X115956561Y79715199D01*
X115956561Y79715199D02*
X116004180Y79667580D01*
X116004180Y79667580D02*
X115908942Y79667580D01*
X115670847Y80143770D02*
X115004180Y80143770D01*
X115575609Y80143770D02*
X115623228Y80191389D01*
X115623228Y80191389D02*
X115670847Y80286627D01*
X115670847Y80286627D02*
X115670847Y80429484D01*
X115670847Y80429484D02*
X115623228Y80524722D01*
X115623228Y80524722D02*
X115527990Y80572341D01*
X115527990Y80572341D02*
X115004180Y80572341D01*
X28412230Y41564181D02*
X28888420Y41564181D01*
X28888420Y41564181D02*
X28888420Y42564181D01*
X28078896Y42087991D02*
X27745563Y42087991D01*
X27602706Y41564181D02*
X28078896Y41564181D01*
X28078896Y41564181D02*
X28078896Y42564181D01*
X28078896Y42564181D02*
X27602706Y42564181D01*
X27174134Y41564181D02*
X27174134Y42564181D01*
X27174134Y42564181D02*
X26936039Y42564181D01*
X26936039Y42564181D02*
X26793182Y42516562D01*
X26793182Y42516562D02*
X26697944Y42421324D01*
X26697944Y42421324D02*
X26650325Y42326086D01*
X26650325Y42326086D02*
X26602706Y42135610D01*
X26602706Y42135610D02*
X26602706Y41992753D01*
X26602706Y41992753D02*
X26650325Y41802277D01*
X26650325Y41802277D02*
X26697944Y41707039D01*
X26697944Y41707039D02*
X26793182Y41611800D01*
X26793182Y41611800D02*
X26936039Y41564181D01*
X26936039Y41564181D02*
X27174134Y41564181D01*
X25221753Y42564181D02*
X25031277Y42564181D01*
X25031277Y42564181D02*
X24936039Y42516562D01*
X24936039Y42516562D02*
X24840801Y42421324D01*
X24840801Y42421324D02*
X24793182Y42230848D01*
X24793182Y42230848D02*
X24793182Y41897515D01*
X24793182Y41897515D02*
X24840801Y41707039D01*
X24840801Y41707039D02*
X24936039Y41611800D01*
X24936039Y41611800D02*
X25031277Y41564181D01*
X25031277Y41564181D02*
X25221753Y41564181D01*
X25221753Y41564181D02*
X25316991Y41611800D01*
X25316991Y41611800D02*
X25412229Y41707039D01*
X25412229Y41707039D02*
X25459848Y41897515D01*
X25459848Y41897515D02*
X25459848Y42230848D01*
X25459848Y42230848D02*
X25412229Y42421324D01*
X25412229Y42421324D02*
X25316991Y42516562D01*
X25316991Y42516562D02*
X25221753Y42564181D01*
X24364610Y42564181D02*
X24364610Y41754658D01*
X24364610Y41754658D02*
X24316991Y41659420D01*
X24316991Y41659420D02*
X24269372Y41611800D01*
X24269372Y41611800D02*
X24174134Y41564181D01*
X24174134Y41564181D02*
X23983658Y41564181D01*
X23983658Y41564181D02*
X23888420Y41611800D01*
X23888420Y41611800D02*
X23840801Y41659420D01*
X23840801Y41659420D02*
X23793182Y41754658D01*
X23793182Y41754658D02*
X23793182Y42564181D01*
X23459848Y42564181D02*
X22888420Y42564181D01*
X23174134Y41564181D02*
X23174134Y42564181D01*
X162648219Y87884021D02*
X161648219Y87884021D01*
X162648219Y87407831D02*
X161648219Y87407831D01*
X161648219Y87407831D02*
X162648219Y86836403D01*
X162648219Y86836403D02*
X161648219Y86836403D01*
X48795780Y73660456D02*
X48795780Y73850932D01*
X48795780Y73850932D02*
X48748161Y73946170D01*
X48748161Y73946170D02*
X48652923Y74041408D01*
X48652923Y74041408D02*
X48462447Y74089027D01*
X48462447Y74089027D02*
X48129114Y74089027D01*
X48129114Y74089027D02*
X47938638Y74041408D01*
X47938638Y74041408D02*
X47843400Y73946170D01*
X47843400Y73946170D02*
X47795780Y73850932D01*
X47795780Y73850932D02*
X47795780Y73660456D01*
X47795780Y73660456D02*
X47843400Y73565218D01*
X47843400Y73565218D02*
X47938638Y73469980D01*
X47938638Y73469980D02*
X48129114Y73422361D01*
X48129114Y73422361D02*
X48462447Y73422361D01*
X48462447Y73422361D02*
X48652923Y73469980D01*
X48652923Y73469980D02*
X48748161Y73565218D01*
X48748161Y73565218D02*
X48795780Y73660456D01*
X48795780Y74517599D02*
X47986257Y74517599D01*
X47986257Y74517599D02*
X47891019Y74565218D01*
X47891019Y74565218D02*
X47843400Y74612837D01*
X47843400Y74612837D02*
X47795780Y74708075D01*
X47795780Y74708075D02*
X47795780Y74898551D01*
X47795780Y74898551D02*
X47843400Y74993789D01*
X47843400Y74993789D02*
X47891019Y75041408D01*
X47891019Y75041408D02*
X47986257Y75089027D01*
X47986257Y75089027D02*
X48795780Y75089027D01*
X48795780Y75422361D02*
X48795780Y75993789D01*
X47795780Y75708075D02*
X48795780Y75708075D01*
X155196619Y88128478D02*
X156196619Y87795145D01*
X156196619Y87795145D02*
X155196619Y87461812D01*
X156196619Y86557050D02*
X155720428Y86890383D01*
X156196619Y87128478D02*
X155196619Y87128478D01*
X155196619Y87128478D02*
X155196619Y86747526D01*
X155196619Y86747526D02*
X155244238Y86652288D01*
X155244238Y86652288D02*
X155291857Y86604669D01*
X155291857Y86604669D02*
X155387095Y86557050D01*
X155387095Y86557050D02*
X155529952Y86557050D01*
X155529952Y86557050D02*
X155625190Y86604669D01*
X155625190Y86604669D02*
X155672809Y86652288D01*
X155672809Y86652288D02*
X155720428Y86747526D01*
X155720428Y86747526D02*
X155720428Y87128478D01*
X155672809Y86128478D02*
X155672809Y85795145D01*
X156196619Y85652288D02*
X156196619Y86128478D01*
X156196619Y86128478D02*
X155196619Y86128478D01*
X155196619Y86128478D02*
X155196619Y85652288D01*
X155672809Y84890383D02*
X155672809Y85223716D01*
X156196619Y85223716D02*
X155196619Y85223716D01*
X155196619Y85223716D02*
X155196619Y84747526D01*
X117594980Y79708837D02*
X117642600Y79613599D01*
X117642600Y79613599D02*
X117690219Y79565980D01*
X117690219Y79565980D02*
X117785457Y79518361D01*
X117785457Y79518361D02*
X118071171Y79518361D01*
X118071171Y79518361D02*
X118166409Y79565980D01*
X118166409Y79565980D02*
X118214028Y79613599D01*
X118214028Y79613599D02*
X118261647Y79708837D01*
X118261647Y79708837D02*
X118261647Y79851694D01*
X118261647Y79851694D02*
X118214028Y79946932D01*
X118214028Y79946932D02*
X118166409Y79994551D01*
X118166409Y79994551D02*
X118071171Y80042170D01*
X118071171Y80042170D02*
X117785457Y80042170D01*
X117785457Y80042170D02*
X117690219Y79994551D01*
X117690219Y79994551D02*
X117642600Y79946932D01*
X117642600Y79946932D02*
X117594980Y79851694D01*
X117594980Y79851694D02*
X117594980Y79708837D01*
X118261647Y80899313D02*
X117594980Y80899313D01*
X118261647Y80470742D02*
X117737838Y80470742D01*
X117737838Y80470742D02*
X117642600Y80518361D01*
X117642600Y80518361D02*
X117594980Y80613599D01*
X117594980Y80613599D02*
X117594980Y80756456D01*
X117594980Y80756456D02*
X117642600Y80851694D01*
X117642600Y80851694D02*
X117690219Y80899313D01*
X118261647Y81232647D02*
X118261647Y81613599D01*
X118594980Y81375504D02*
X117737838Y81375504D01*
X117737838Y81375504D02*
X117642600Y81423123D01*
X117642600Y81423123D02*
X117594980Y81518361D01*
X117594980Y81518361D02*
X117594980Y81613599D01*
X30033333Y15945181D02*
X30033333Y15230896D01*
X30033333Y15230896D02*
X30080952Y15088039D01*
X30080952Y15088039D02*
X30176190Y14992800D01*
X30176190Y14992800D02*
X30319047Y14945181D01*
X30319047Y14945181D02*
X30414285Y14945181D01*
X29652380Y15945181D02*
X28985714Y15945181D01*
X28985714Y15945181D02*
X29414285Y14945181D01*
X93958333Y25435181D02*
X93958333Y24720896D01*
X93958333Y24720896D02*
X94005952Y24578039D01*
X94005952Y24578039D02*
X94101190Y24482800D01*
X94101190Y24482800D02*
X94244047Y24435181D01*
X94244047Y24435181D02*
X94339285Y24435181D01*
X93053571Y25435181D02*
X93244047Y25435181D01*
X93244047Y25435181D02*
X93339285Y25387562D01*
X93339285Y25387562D02*
X93386904Y25339943D01*
X93386904Y25339943D02*
X93482142Y25197086D01*
X93482142Y25197086D02*
X93529761Y25006610D01*
X93529761Y25006610D02*
X93529761Y24625658D01*
X93529761Y24625658D02*
X93482142Y24530420D01*
X93482142Y24530420D02*
X93434523Y24482800D01*
X93434523Y24482800D02*
X93339285Y24435181D01*
X93339285Y24435181D02*
X93148809Y24435181D01*
X93148809Y24435181D02*
X93053571Y24482800D01*
X93053571Y24482800D02*
X93005952Y24530420D01*
X93005952Y24530420D02*
X92958333Y24625658D01*
X92958333Y24625658D02*
X92958333Y24863753D01*
X92958333Y24863753D02*
X93005952Y24958991D01*
X93005952Y24958991D02*
X93053571Y25006610D01*
X93053571Y25006610D02*
X93148809Y25054229D01*
X93148809Y25054229D02*
X93339285Y25054229D01*
X93339285Y25054229D02*
X93434523Y25006610D01*
X93434523Y25006610D02*
X93482142Y24958991D01*
X93482142Y24958991D02*
X93529761Y24863753D01*
X112914819Y63199524D02*
X113629104Y63199524D01*
X113629104Y63199524D02*
X113771961Y63247143D01*
X113771961Y63247143D02*
X113867200Y63342381D01*
X113867200Y63342381D02*
X113914819Y63485238D01*
X113914819Y63485238D02*
X113914819Y63580476D01*
X113914819Y62199524D02*
X113914819Y62770952D01*
X113914819Y62485238D02*
X112914819Y62485238D01*
X112914819Y62485238D02*
X113057676Y62580476D01*
X113057676Y62580476D02*
X113152914Y62675714D01*
X113152914Y62675714D02*
X113200533Y62770952D01*
X113248152Y61342381D02*
X113914819Y61342381D01*
X112867200Y61580476D02*
X113581485Y61818571D01*
X113581485Y61818571D02*
X113581485Y61199524D01*
X107333333Y79605181D02*
X107333333Y78890896D01*
X107333333Y78890896D02*
X107380952Y78748039D01*
X107380952Y78748039D02*
X107476190Y78652800D01*
X107476190Y78652800D02*
X107619047Y78605181D01*
X107619047Y78605181D02*
X107714285Y78605181D01*
X106380952Y79605181D02*
X106857142Y79605181D01*
X106857142Y79605181D02*
X106904761Y79128991D01*
X106904761Y79128991D02*
X106857142Y79176610D01*
X106857142Y79176610D02*
X106761904Y79224229D01*
X106761904Y79224229D02*
X106523809Y79224229D01*
X106523809Y79224229D02*
X106428571Y79176610D01*
X106428571Y79176610D02*
X106380952Y79128991D01*
X106380952Y79128991D02*
X106333333Y79033753D01*
X106333333Y79033753D02*
X106333333Y78795658D01*
X106333333Y78795658D02*
X106380952Y78700420D01*
X106380952Y78700420D02*
X106428571Y78652800D01*
X106428571Y78652800D02*
X106523809Y78605181D01*
X106523809Y78605181D02*
X106761904Y78605181D01*
X106761904Y78605181D02*
X106857142Y78652800D01*
X106857142Y78652800D02*
X106904761Y78700420D01*
X62154819Y50933334D02*
X62869104Y50933334D01*
X62869104Y50933334D02*
X63011961Y50980953D01*
X63011961Y50980953D02*
X63107200Y51076191D01*
X63107200Y51076191D02*
X63154819Y51219048D01*
X63154819Y51219048D02*
X63154819Y51314286D01*
X63154819Y50457143D02*
X62154819Y50457143D01*
X62154819Y50457143D02*
X62154819Y50076191D01*
X62154819Y50076191D02*
X62202438Y49980953D01*
X62202438Y49980953D02*
X62250057Y49933334D01*
X62250057Y49933334D02*
X62345295Y49885715D01*
X62345295Y49885715D02*
X62488152Y49885715D01*
X62488152Y49885715D02*
X62583390Y49933334D01*
X62583390Y49933334D02*
X62631009Y49980953D01*
X62631009Y49980953D02*
X62678628Y50076191D01*
X62678628Y50076191D02*
X62678628Y50457143D01*
X62154819Y49552381D02*
X62154819Y48933334D01*
X62154819Y48933334D02*
X62535771Y49266667D01*
X62535771Y49266667D02*
X62535771Y49123810D01*
X62535771Y49123810D02*
X62583390Y49028572D01*
X62583390Y49028572D02*
X62631009Y48980953D01*
X62631009Y48980953D02*
X62726247Y48933334D01*
X62726247Y48933334D02*
X62964342Y48933334D01*
X62964342Y48933334D02*
X63059580Y48980953D01*
X63059580Y48980953D02*
X63107200Y49028572D01*
X63107200Y49028572D02*
X63154819Y49123810D01*
X63154819Y49123810D02*
X63154819Y49409524D01*
X63154819Y49409524D02*
X63107200Y49504762D01*
X63107200Y49504762D02*
X63059580Y49552381D01*
X56250704Y85209981D02*
X56250704Y84400458D01*
X56250704Y84400458D02*
X56203085Y84305220D01*
X56203085Y84305220D02*
X56155466Y84257600D01*
X56155466Y84257600D02*
X56060228Y84209981D01*
X56060228Y84209981D02*
X55869752Y84209981D01*
X55869752Y84209981D02*
X55774514Y84257600D01*
X55774514Y84257600D02*
X55726895Y84305220D01*
X55726895Y84305220D02*
X55679276Y84400458D01*
X55679276Y84400458D02*
X55679276Y85209981D01*
X54679276Y84209981D02*
X55250704Y84209981D01*
X54964990Y84209981D02*
X54964990Y85209981D01*
X54964990Y85209981D02*
X55060228Y85067124D01*
X55060228Y85067124D02*
X55155466Y84971886D01*
X55155466Y84971886D02*
X55250704Y84924267D01*
X68454819Y50933334D02*
X69169104Y50933334D01*
X69169104Y50933334D02*
X69311961Y50980953D01*
X69311961Y50980953D02*
X69407200Y51076191D01*
X69407200Y51076191D02*
X69454819Y51219048D01*
X69454819Y51219048D02*
X69454819Y51314286D01*
X69454819Y50457143D02*
X68454819Y50457143D01*
X68454819Y50457143D02*
X68454819Y50076191D01*
X68454819Y50076191D02*
X68502438Y49980953D01*
X68502438Y49980953D02*
X68550057Y49933334D01*
X68550057Y49933334D02*
X68645295Y49885715D01*
X68645295Y49885715D02*
X68788152Y49885715D01*
X68788152Y49885715D02*
X68883390Y49933334D01*
X68883390Y49933334D02*
X68931009Y49980953D01*
X68931009Y49980953D02*
X68978628Y50076191D01*
X68978628Y50076191D02*
X68978628Y50457143D01*
X68788152Y49028572D02*
X69454819Y49028572D01*
X68407200Y49266667D02*
X69121485Y49504762D01*
X69121485Y49504762D02*
X69121485Y48885715D01*
X22478019Y-449866D02*
X23192304Y-449866D01*
X23192304Y-449866D02*
X23335161Y-402247D01*
X23335161Y-402247D02*
X23430400Y-307009D01*
X23430400Y-307009D02*
X23478019Y-164152D01*
X23478019Y-164152D02*
X23478019Y-68914D01*
X22811352Y-1354628D02*
X23478019Y-1354628D01*
X22430400Y-1116533D02*
X23144685Y-878438D01*
X23144685Y-878438D02*
X23144685Y-1497485D01*
X103633333Y57045181D02*
X103633333Y56330896D01*
X103633333Y56330896D02*
X103680952Y56188039D01*
X103680952Y56188039D02*
X103776190Y56092800D01*
X103776190Y56092800D02*
X103919047Y56045181D01*
X103919047Y56045181D02*
X104014285Y56045181D01*
X103014285Y56616610D02*
X103109523Y56664229D01*
X103109523Y56664229D02*
X103157142Y56711848D01*
X103157142Y56711848D02*
X103204761Y56807086D01*
X103204761Y56807086D02*
X103204761Y56854705D01*
X103204761Y56854705D02*
X103157142Y56949943D01*
X103157142Y56949943D02*
X103109523Y56997562D01*
X103109523Y56997562D02*
X103014285Y57045181D01*
X103014285Y57045181D02*
X102823809Y57045181D01*
X102823809Y57045181D02*
X102728571Y56997562D01*
X102728571Y56997562D02*
X102680952Y56949943D01*
X102680952Y56949943D02*
X102633333Y56854705D01*
X102633333Y56854705D02*
X102633333Y56807086D01*
X102633333Y56807086D02*
X102680952Y56711848D01*
X102680952Y56711848D02*
X102728571Y56664229D01*
X102728571Y56664229D02*
X102823809Y56616610D01*
X102823809Y56616610D02*
X103014285Y56616610D01*
X103014285Y56616610D02*
X103109523Y56568991D01*
X103109523Y56568991D02*
X103157142Y56521372D01*
X103157142Y56521372D02*
X103204761Y56426134D01*
X103204761Y56426134D02*
X103204761Y56235658D01*
X103204761Y56235658D02*
X103157142Y56140420D01*
X103157142Y56140420D02*
X103109523Y56092800D01*
X103109523Y56092800D02*
X103014285Y56045181D01*
X103014285Y56045181D02*
X102823809Y56045181D01*
X102823809Y56045181D02*
X102728571Y56092800D01*
X102728571Y56092800D02*
X102680952Y56140420D01*
X102680952Y56140420D02*
X102633333Y56235658D01*
X102633333Y56235658D02*
X102633333Y56426134D01*
X102633333Y56426134D02*
X102680952Y56521372D01*
X102680952Y56521372D02*
X102728571Y56568991D01*
X102728571Y56568991D02*
X102823809Y56616610D01*
X30822723Y88069781D02*
X30822723Y87355496D01*
X30822723Y87355496D02*
X30870342Y87212639D01*
X30870342Y87212639D02*
X30965580Y87117400D01*
X30965580Y87117400D02*
X31108437Y87069781D01*
X31108437Y87069781D02*
X31203675Y87069781D01*
X29822723Y87069781D02*
X30394151Y87069781D01*
X30108437Y87069781D02*
X30108437Y88069781D01*
X30108437Y88069781D02*
X30203675Y87926924D01*
X30203675Y87926924D02*
X30298913Y87831686D01*
X30298913Y87831686D02*
X30394151Y87784067D01*
X28917961Y88069781D02*
X29394151Y88069781D01*
X29394151Y88069781D02*
X29441770Y87593591D01*
X29441770Y87593591D02*
X29394151Y87641210D01*
X29394151Y87641210D02*
X29298913Y87688829D01*
X29298913Y87688829D02*
X29060818Y87688829D01*
X29060818Y87688829D02*
X28965580Y87641210D01*
X28965580Y87641210D02*
X28917961Y87593591D01*
X28917961Y87593591D02*
X28870342Y87498353D01*
X28870342Y87498353D02*
X28870342Y87260258D01*
X28870342Y87260258D02*
X28917961Y87165020D01*
X28917961Y87165020D02*
X28965580Y87117400D01*
X28965580Y87117400D02*
X29060818Y87069781D01*
X29060818Y87069781D02*
X29298913Y87069781D01*
X29298913Y87069781D02*
X29394151Y87117400D01*
X29394151Y87117400D02*
X29441770Y87165020D01*
D11*
X28260000Y17350000D02*
X28260000Y18680000D01*
X29590000Y17350000D02*
X28260000Y17350000D01*
X30860000Y17350000D02*
X79180000Y17350000D01*
X30860000Y17350000D02*
X30860000Y19950000D01*
X79180000Y17350000D02*
X79180000Y22550000D01*
X28260000Y19950000D02*
X28260000Y22550000D01*
X30860000Y19950000D02*
X28260000Y19950000D01*
X28260000Y22550000D02*
X79180000Y22550000D01*
D12*
X26220000Y-50000D02*
X81220000Y-50000D01*
X81220000Y-50000D02*
X81220000Y39950000D01*
X81220000Y39950000D02*
X26220000Y39950000D01*
X26220000Y39950000D02*
X26220000Y-50000D01*
D11*
X92295000Y36170000D02*
X94955000Y36170000D01*
X92295000Y28490000D02*
X92295000Y36170000D01*
X92295000Y28490000D02*
X94955000Y28490000D01*
X92295000Y27220000D02*
X92295000Y25890000D01*
X92295000Y25890000D02*
X93625000Y25890000D01*
X94955000Y28490000D02*
X94955000Y36170000D01*
X113805000Y65150000D02*
X113805000Y63880000D01*
X113805000Y63880000D02*
X115075000Y63880000D01*
X116117929Y68070000D02*
X116515000Y68070000D01*
X116117929Y67310000D02*
X116515000Y67310000D01*
X116185000Y65530000D02*
X116515000Y65530000D01*
X116185000Y64770000D02*
X116515000Y64770000D01*
X116515000Y69020000D02*
X119175000Y69020000D01*
X116515000Y66420000D02*
X119175000Y66420000D01*
X116515000Y63820000D02*
X116515000Y69020000D01*
X119175000Y69020000D02*
X119175000Y63820000D01*
X119175000Y67310000D02*
X125175000Y67310000D01*
X119175000Y65430000D02*
X125175000Y65430000D01*
X119175000Y65310000D02*
X125175000Y65310000D01*
X119175000Y65190000D02*
X125175000Y65190000D01*
X119175000Y65070000D02*
X125175000Y65070000D01*
X119175000Y64950000D02*
X125175000Y64950000D01*
X119175000Y64830000D02*
X125175000Y64830000D01*
X119175000Y64770000D02*
X125175000Y64770000D01*
X119175000Y63820000D02*
X116515000Y63820000D01*
X125175000Y68070000D02*
X119175000Y68070000D01*
X125175000Y67310000D02*
X125175000Y68070000D01*
X125175000Y65530000D02*
X119175000Y65530000D01*
X125175000Y64770000D02*
X125175000Y65530000D01*
D12*
X107914753Y74993752D02*
G75*
G03*
X107914753Y74993752I-914753J0D01*
G01*
X107914400Y77000000D02*
G75*
G03*
X107914400Y77000000I-914400J0D01*
G01*
D11*
X66700000Y48700000D02*
X67300000Y48700000D01*
X68000000Y49400000D02*
X68000000Y50800000D01*
X66000000Y50800000D02*
X66000000Y49400000D01*
X67300000Y51500000D02*
X66700000Y51500000D01*
X66000000Y49400000D02*
G75*
G03*
X66700000Y48700000I699999J-1D01*
G01*
X67300000Y48700000D02*
G75*
G03*
X68000000Y49400000I1J699999D01*
G01*
X66700000Y51500000D02*
G75*
G03*
X66000000Y50800000I0J-700000D01*
G01*
X68000000Y50800000D02*
G75*
G03*
X67300000Y51500000I-700000J0D01*
G01*
X60300000Y65500000D02*
X59900000Y65500000D01*
X62900000Y65500000D02*
X62500000Y65500000D01*
X65400000Y65500000D02*
X65000000Y65500000D01*
X67900000Y65500000D02*
X67500000Y65500000D01*
X70500000Y65500000D02*
X70100000Y65500000D01*
X73000000Y65500000D02*
X72600000Y65500000D01*
X75600000Y65500000D02*
X75200000Y65500000D01*
X78100000Y65500000D02*
X77700000Y65500000D01*
X80700000Y65500000D02*
X80300000Y65500000D01*
X83200000Y65500000D02*
X82800000Y65500000D01*
X85700000Y65500000D02*
X85300000Y65500000D01*
X88300000Y65500000D02*
X87900000Y65500000D01*
X90800000Y65500000D02*
X90400000Y65500000D01*
X93400000Y65500000D02*
X93000000Y65500000D01*
X95900000Y65500000D02*
X95500000Y65500000D01*
X98400000Y65500000D02*
X98000000Y65500000D01*
X101000000Y65500000D02*
X100600000Y65500000D01*
X103500000Y65500000D02*
X103100000Y65500000D01*
X105833000Y65500000D02*
X105833000Y68507000D01*
X106100000Y65500000D02*
X105700000Y65500000D01*
X108500000Y65500000D02*
X108200000Y65500000D01*
X105833000Y68507000D02*
X108500000Y68507000D01*
X57500000Y72300000D02*
X57500000Y65500000D01*
X57500000Y74500000D02*
X57500000Y74900000D01*
X57500000Y77100000D02*
X57500000Y77500000D01*
X57500000Y86500000D02*
X57500000Y79700000D01*
X60300000Y86500000D02*
X59900000Y86500000D01*
X62900000Y86500000D02*
X62500000Y86500000D01*
X65400000Y86500000D02*
X65000000Y86500000D01*
X67900000Y86500000D02*
X67500000Y86500000D01*
X70500000Y86500000D02*
X70100000Y86500000D01*
X73000000Y86500000D02*
X72600000Y86500000D01*
X75600000Y86500000D02*
X75200000Y86500000D01*
X78100000Y86500000D02*
X77700000Y86500000D01*
X80700000Y86500000D02*
X80300000Y86500000D01*
X83200000Y86500000D02*
X82800000Y86500000D01*
X85700000Y86500000D02*
X85300000Y86500000D01*
X88300000Y86500000D02*
X87900000Y86500000D01*
X90800000Y86500000D02*
X90400000Y86500000D01*
X93400000Y86500000D02*
X93000000Y86500000D01*
X95900000Y86500000D02*
X95500000Y86500000D01*
X98400000Y86500000D02*
X98000000Y86500000D01*
X101000000Y86500000D02*
X100600000Y86500000D01*
X103500000Y86500000D02*
X103100000Y86500000D01*
X106100000Y86500000D02*
X105700000Y86500000D01*
X108500000Y86500000D02*
X108200000Y86500000D01*
X64200000Y48700000D02*
X64800000Y48700000D01*
X65500000Y49400000D02*
X65500000Y50800000D01*
X63500000Y50800000D02*
X63500000Y49400000D01*
X64800000Y51500000D02*
X64200000Y51500000D01*
X63500000Y49400000D02*
G75*
G03*
X64200000Y48700000I699999J-1D01*
G01*
X64800000Y48700000D02*
G75*
G03*
X65500000Y49400000I1J699999D01*
G01*
X64200000Y51500000D02*
G75*
G03*
X63500000Y50800000I0J-700000D01*
G01*
X65500000Y50800000D02*
G75*
G03*
X64800000Y51500000I-700000J0D01*
G01*
X22255000Y1975000D02*
X22255000Y705000D01*
X22255000Y705000D02*
X23525000Y705000D01*
X24567929Y7435000D02*
X24965000Y7435000D01*
X24567929Y6675000D02*
X24965000Y6675000D01*
X24567929Y4895000D02*
X24965000Y4895000D01*
X24567929Y4135000D02*
X24965000Y4135000D01*
X24635000Y2355000D02*
X24965000Y2355000D01*
X24635000Y1595000D02*
X24965000Y1595000D01*
X24965000Y8385000D02*
X27625000Y8385000D01*
X24965000Y5785000D02*
X27625000Y5785000D01*
X24965000Y3245000D02*
X27625000Y3245000D01*
X24965000Y645000D02*
X24965000Y8385000D01*
X27625000Y8385000D02*
X27625000Y645000D01*
X27625000Y6675000D02*
X33625000Y6675000D01*
X27625000Y4135000D02*
X33625000Y4135000D01*
X27625000Y2255000D02*
X33625000Y2255000D01*
X27625000Y2135000D02*
X33625000Y2135000D01*
X27625000Y2015000D02*
X33625000Y2015000D01*
X27625000Y1895000D02*
X33625000Y1895000D01*
X27625000Y1775000D02*
X33625000Y1775000D01*
X27625000Y1655000D02*
X33625000Y1655000D01*
X27625000Y1595000D02*
X33625000Y1595000D01*
X27625000Y645000D02*
X24965000Y645000D01*
X33625000Y7435000D02*
X27625000Y7435000D01*
X33625000Y6675000D02*
X33625000Y7435000D01*
X33625000Y4895000D02*
X27625000Y4895000D01*
X33625000Y4135000D02*
X33625000Y4895000D01*
X33625000Y2355000D02*
X27625000Y2355000D01*
X33625000Y1595000D02*
X33625000Y2355000D01*
D12*
X151480000Y61494400D02*
X151480000Y3494400D01*
X147730000Y-5600D02*
X147980000Y-5600D01*
D11*
X138790000Y1979400D02*
X138790000Y7179400D01*
X137885000Y48884400D02*
X137885000Y43744400D01*
X137885000Y51484400D02*
X137885000Y50154400D01*
X136555000Y51484400D02*
X137885000Y51484400D01*
X135285000Y48884400D02*
X137885000Y48884400D01*
X135285000Y51484400D02*
X135285000Y48884400D01*
X133650000Y4579400D02*
X133650000Y7179400D01*
X133650000Y7179400D02*
X138790000Y7179400D01*
X132685000Y43744400D02*
X137885000Y43744400D01*
X132685000Y51484400D02*
X135285000Y51484400D01*
X132685000Y51484400D02*
X132685000Y43744400D01*
X131050000Y1979400D02*
X138790000Y1979400D01*
X131050000Y1979400D02*
X131050000Y4579400D01*
X131050000Y4579400D02*
X133650000Y4579400D01*
X131050000Y5849400D02*
X131050000Y7179400D01*
X131050000Y7179400D02*
X132380000Y7179400D01*
X101580000Y55354400D02*
X101580000Y7034400D01*
X101580000Y57954400D02*
X101580000Y56624400D01*
X100250000Y57954400D02*
X101580000Y57954400D01*
X98980000Y55354400D02*
X101580000Y55354400D01*
X98980000Y57954400D02*
X98980000Y55354400D01*
D12*
X98980000Y64994400D02*
X147980000Y64994400D01*
X98980000Y64994400D02*
X98480000Y64994757D01*
X98230000Y-5600D02*
X147730000Y-5600D01*
D11*
X96380000Y7034400D02*
X101580000Y7034400D01*
X96380000Y57954400D02*
X98980000Y57954400D01*
X96380000Y57954400D02*
X96380000Y7034400D01*
D12*
X94980000Y3494400D02*
X94980000Y61444400D01*
X147980000Y-5600D02*
G75*
G03*
X151480000Y3494400I1J3499999D01*
G01*
X151480000Y61494400D02*
G75*
G03*
X147980000Y64994400I-3499999J1D01*
G01*
X94980000Y3494400D02*
G75*
G03*
X98480000Y-5600I3500000J0D01*
G01*
X98480000Y64994757D02*
G75*
G03*
X94980000Y61444400I0J-3500357D01*
G01*
X149631000Y3494400D02*
G75*
G03*
X149631000Y3494400I-1651000J0D01*
G01*
X149631000Y61494400D02*
G75*
G03*
X149631000Y61494400I-1651000J0D01*
G01*
X100631000Y3494400D02*
G75*
G03*
X100631000Y3494400I-1651000J0D01*
G01*
X100631000Y61494400D02*
G75*
G03*
X100631000Y61494400I-1651000J0D01*
G01*
D11*
X23580000Y80075000D02*
X23580000Y78805000D01*
X23580000Y78805000D02*
X24850000Y78805000D01*
X25892929Y85535000D02*
X26347071Y85535000D01*
X25892929Y84775000D02*
X26347071Y84775000D01*
X25892929Y82995000D02*
X26347071Y82995000D01*
X25892929Y82235000D02*
X26347071Y82235000D01*
X25960000Y80455000D02*
X26347071Y80455000D01*
X25960000Y79695000D02*
X26347071Y79695000D01*
X28432929Y85535000D02*
X28830000Y85535000D01*
X28432929Y84775000D02*
X28830000Y84775000D01*
X28432929Y82995000D02*
X28830000Y82995000D01*
X28432929Y82235000D02*
X28830000Y82235000D01*
X28432929Y80455000D02*
X28830000Y80455000D01*
X28432929Y79695000D02*
X28830000Y79695000D01*
X28830000Y86485000D02*
X31490000Y86485000D01*
X28830000Y83885000D02*
X31490000Y83885000D01*
X28830000Y81345000D02*
X31490000Y81345000D01*
X28830000Y78745000D02*
X28830000Y86485000D01*
X31490000Y86485000D02*
X31490000Y78745000D01*
X31490000Y84775000D02*
X37490000Y84775000D01*
X31490000Y82235000D02*
X37490000Y82235000D01*
X31490000Y80355000D02*
X37490000Y80355000D01*
X31490000Y80235000D02*
X37490000Y80235000D01*
X31490000Y80115000D02*
X37490000Y80115000D01*
X31490000Y79995000D02*
X37490000Y79995000D01*
X31490000Y79875000D02*
X37490000Y79875000D01*
X31490000Y79755000D02*
X37490000Y79755000D01*
X31490000Y79695000D02*
X37490000Y79695000D01*
X31490000Y78745000D02*
X28830000Y78745000D01*
X37490000Y85535000D02*
X31490000Y85535000D01*
X37490000Y84775000D02*
X37490000Y85535000D01*
X37490000Y82995000D02*
X31490000Y82995000D01*
X37490000Y82235000D02*
X37490000Y82995000D01*
X37490000Y80455000D02*
X31490000Y80455000D01*
X37490000Y79695000D02*
X37490000Y80455000D01*
M02*
