G04 #@! TF.GenerationSoftware,KiCad,Pcbnew,7.0.7-7.0.7~ubuntu23.04.1*
G04 #@! TF.CreationDate,2023-10-12T21:24:16+00:00*
G04 #@! TF.ProjectId,pedalboard-hw,70656461-6c62-46f6-9172-642d68772e6b,3.0.0-RC1*
G04 #@! TF.SameCoordinates,Original*
G04 #@! TF.FileFunction,Legend,Bot*
G04 #@! TF.FilePolarity,Positive*
%FSLAX46Y46*%
G04 Gerber Fmt 4.6, Leading zero omitted, Abs format (unit mm)*
G04 Created by KiCad (PCBNEW 7.0.7-7.0.7~ubuntu23.04.1) date 2023-10-12 21:24:16*
%MOMM*%
%LPD*%
G01*
G04 APERTURE LIST*
%ADD10C,0.150000*%
%ADD11C,0.120000*%
%ADD12C,0.100000*%
G04 APERTURE END LIST*
D10*
X35258988Y1279039D02*
X35163750Y1231420D01*
X35163750Y1231420D02*
X35020893Y1231420D01*
X35020893Y1231420D02*
X34878036Y1279039D01*
X34878036Y1279039D02*
X34782798Y1374277D01*
X34782798Y1374277D02*
X34735179Y1469515D01*
X34735179Y1469515D02*
X34687560Y1659991D01*
X34687560Y1659991D02*
X34687560Y1802848D01*
X34687560Y1802848D02*
X34735179Y1993324D01*
X34735179Y1993324D02*
X34782798Y2088562D01*
X34782798Y2088562D02*
X34878036Y2183800D01*
X34878036Y2183800D02*
X35020893Y2231420D01*
X35020893Y2231420D02*
X35116131Y2231420D01*
X35116131Y2231420D02*
X35258988Y2183800D01*
X35258988Y2183800D02*
X35306607Y2136181D01*
X35306607Y2136181D02*
X35306607Y1802848D01*
X35306607Y1802848D02*
X35116131Y1802848D01*
X35735179Y2231420D02*
X35735179Y1231420D01*
X35735179Y1231420D02*
X36306607Y2231420D01*
X36306607Y2231420D02*
X36306607Y1231420D01*
X36782798Y2231420D02*
X36782798Y1231420D01*
X36782798Y1231420D02*
X37020893Y1231420D01*
X37020893Y1231420D02*
X37163750Y1279039D01*
X37163750Y1279039D02*
X37258988Y1374277D01*
X37258988Y1374277D02*
X37306607Y1469515D01*
X37306607Y1469515D02*
X37354226Y1659991D01*
X37354226Y1659991D02*
X37354226Y1802848D01*
X37354226Y1802848D02*
X37306607Y1993324D01*
X37306607Y1993324D02*
X37258988Y2088562D01*
X37258988Y2088562D02*
X37163750Y2183800D01*
X37163750Y2183800D02*
X37020893Y2231420D01*
X37020893Y2231420D02*
X36782798Y2231420D01*
X34836779Y4669820D02*
X34836779Y3669820D01*
X34836779Y3669820D02*
X35074874Y3669820D01*
X35074874Y3669820D02*
X35217731Y3717439D01*
X35217731Y3717439D02*
X35312969Y3812677D01*
X35312969Y3812677D02*
X35360588Y3907915D01*
X35360588Y3907915D02*
X35408207Y4098391D01*
X35408207Y4098391D02*
X35408207Y4241248D01*
X35408207Y4241248D02*
X35360588Y4431724D01*
X35360588Y4431724D02*
X35312969Y4526962D01*
X35312969Y4526962D02*
X35217731Y4622200D01*
X35217731Y4622200D02*
X35074874Y4669820D01*
X35074874Y4669820D02*
X34836779Y4669820D01*
X36265350Y4669820D02*
X36265350Y4146010D01*
X36265350Y4146010D02*
X36217731Y4050772D01*
X36217731Y4050772D02*
X36122493Y4003153D01*
X36122493Y4003153D02*
X35932017Y4003153D01*
X35932017Y4003153D02*
X35836779Y4050772D01*
X36265350Y4622200D02*
X36170112Y4669820D01*
X36170112Y4669820D02*
X35932017Y4669820D01*
X35932017Y4669820D02*
X35836779Y4622200D01*
X35836779Y4622200D02*
X35789160Y4526962D01*
X35789160Y4526962D02*
X35789160Y4431724D01*
X35789160Y4431724D02*
X35836779Y4336486D01*
X35836779Y4336486D02*
X35932017Y4288867D01*
X35932017Y4288867D02*
X36170112Y4288867D01*
X36170112Y4288867D02*
X36265350Y4241248D01*
X36598684Y4003153D02*
X36979636Y4003153D01*
X36741541Y3669820D02*
X36741541Y4526962D01*
X36741541Y4526962D02*
X36789160Y4622200D01*
X36789160Y4622200D02*
X36884398Y4669820D01*
X36884398Y4669820D02*
X36979636Y4669820D01*
X37741541Y4669820D02*
X37741541Y4146010D01*
X37741541Y4146010D02*
X37693922Y4050772D01*
X37693922Y4050772D02*
X37598684Y4003153D01*
X37598684Y4003153D02*
X37408208Y4003153D01*
X37408208Y4003153D02*
X37312970Y4050772D01*
X37741541Y4622200D02*
X37646303Y4669820D01*
X37646303Y4669820D02*
X37408208Y4669820D01*
X37408208Y4669820D02*
X37312970Y4622200D01*
X37312970Y4622200D02*
X37265351Y4526962D01*
X37265351Y4526962D02*
X37265351Y4431724D01*
X37265351Y4431724D02*
X37312970Y4336486D01*
X37312970Y4336486D02*
X37408208Y4288867D01*
X37408208Y4288867D02*
X37646303Y4288867D01*
X37646303Y4288867D02*
X37741541Y4241248D01*
X39122494Y4669820D02*
X39027256Y4622200D01*
X39027256Y4622200D02*
X38979637Y4574581D01*
X38979637Y4574581D02*
X38932018Y4479343D01*
X38932018Y4479343D02*
X38932018Y4193629D01*
X38932018Y4193629D02*
X38979637Y4098391D01*
X38979637Y4098391D02*
X39027256Y4050772D01*
X39027256Y4050772D02*
X39122494Y4003153D01*
X39122494Y4003153D02*
X39265351Y4003153D01*
X39265351Y4003153D02*
X39360589Y4050772D01*
X39360589Y4050772D02*
X39408208Y4098391D01*
X39408208Y4098391D02*
X39455827Y4193629D01*
X39455827Y4193629D02*
X39455827Y4479343D01*
X39455827Y4479343D02*
X39408208Y4574581D01*
X39408208Y4574581D02*
X39360589Y4622200D01*
X39360589Y4622200D02*
X39265351Y4669820D01*
X39265351Y4669820D02*
X39122494Y4669820D01*
X40312970Y4003153D02*
X40312970Y4669820D01*
X39884399Y4003153D02*
X39884399Y4526962D01*
X39884399Y4526962D02*
X39932018Y4622200D01*
X39932018Y4622200D02*
X40027256Y4669820D01*
X40027256Y4669820D02*
X40170113Y4669820D01*
X40170113Y4669820D02*
X40265351Y4622200D01*
X40265351Y4622200D02*
X40312970Y4574581D01*
X40646304Y4003153D02*
X41027256Y4003153D01*
X40789161Y3669820D02*
X40789161Y4526962D01*
X40789161Y4526962D02*
X40836780Y4622200D01*
X40836780Y4622200D02*
X40932018Y4669820D01*
X40932018Y4669820D02*
X41027256Y4669820D01*
X51802619Y74930021D02*
X50802619Y74930021D01*
X51802619Y74453831D02*
X50802619Y74453831D01*
X50802619Y74453831D02*
X51802619Y73882403D01*
X51802619Y73882403D02*
X50802619Y73882403D01*
X168147438Y87563412D02*
X168099819Y87658650D01*
X168099819Y87658650D02*
X168099819Y87801507D01*
X168099819Y87801507D02*
X168147438Y87944364D01*
X168147438Y87944364D02*
X168242676Y88039602D01*
X168242676Y88039602D02*
X168337914Y88087221D01*
X168337914Y88087221D02*
X168528390Y88134840D01*
X168528390Y88134840D02*
X168671247Y88134840D01*
X168671247Y88134840D02*
X168861723Y88087221D01*
X168861723Y88087221D02*
X168956961Y88039602D01*
X168956961Y88039602D02*
X169052200Y87944364D01*
X169052200Y87944364D02*
X169099819Y87801507D01*
X169099819Y87801507D02*
X169099819Y87706269D01*
X169099819Y87706269D02*
X169052200Y87563412D01*
X169052200Y87563412D02*
X169004580Y87515793D01*
X169004580Y87515793D02*
X168671247Y87515793D01*
X168671247Y87515793D02*
X168671247Y87706269D01*
X169099819Y87087221D02*
X168099819Y87087221D01*
X168099819Y87087221D02*
X169099819Y86515793D01*
X169099819Y86515793D02*
X168099819Y86515793D01*
X169099819Y86039602D02*
X168099819Y86039602D01*
X168099819Y86039602D02*
X168099819Y85801507D01*
X168099819Y85801507D02*
X168147438Y85658650D01*
X168147438Y85658650D02*
X168242676Y85563412D01*
X168242676Y85563412D02*
X168337914Y85515793D01*
X168337914Y85515793D02*
X168528390Y85468174D01*
X168528390Y85468174D02*
X168671247Y85468174D01*
X168671247Y85468174D02*
X168861723Y85515793D01*
X168861723Y85515793D02*
X168956961Y85563412D01*
X168956961Y85563412D02*
X169052200Y85658650D01*
X169052200Y85658650D02*
X169099819Y85801507D01*
X169099819Y85801507D02*
X169099819Y86039602D01*
X121987030Y71230181D02*
X122463220Y71230181D01*
X122463220Y71230181D02*
X122510839Y70753991D01*
X122510839Y70753991D02*
X122463220Y70801610D01*
X122463220Y70801610D02*
X122367982Y70849229D01*
X122367982Y70849229D02*
X122129887Y70849229D01*
X122129887Y70849229D02*
X122034649Y70801610D01*
X122034649Y70801610D02*
X121987030Y70753991D01*
X121987030Y70753991D02*
X121939411Y70658753D01*
X121939411Y70658753D02*
X121939411Y70420658D01*
X121939411Y70420658D02*
X121987030Y70325420D01*
X121987030Y70325420D02*
X122034649Y70277800D01*
X122034649Y70277800D02*
X122129887Y70230181D01*
X122129887Y70230181D02*
X122367982Y70230181D01*
X122367982Y70230181D02*
X122463220Y70277800D01*
X122463220Y70277800D02*
X122510839Y70325420D01*
X121653696Y71230181D02*
X121320363Y70230181D01*
X121320363Y70230181D02*
X120987030Y71230181D01*
X119891791Y70230181D02*
X119891791Y71230181D01*
X119891791Y71230181D02*
X119510839Y71230181D01*
X119510839Y71230181D02*
X119415601Y71182562D01*
X119415601Y71182562D02*
X119367982Y71134943D01*
X119367982Y71134943D02*
X119320363Y71039705D01*
X119320363Y71039705D02*
X119320363Y70896848D01*
X119320363Y70896848D02*
X119367982Y70801610D01*
X119367982Y70801610D02*
X119415601Y70753991D01*
X119415601Y70753991D02*
X119510839Y70706372D01*
X119510839Y70706372D02*
X119891791Y70706372D01*
X118939410Y70277800D02*
X118796553Y70230181D01*
X118796553Y70230181D02*
X118558458Y70230181D01*
X118558458Y70230181D02*
X118463220Y70277800D01*
X118463220Y70277800D02*
X118415601Y70325420D01*
X118415601Y70325420D02*
X118367982Y70420658D01*
X118367982Y70420658D02*
X118367982Y70515896D01*
X118367982Y70515896D02*
X118415601Y70611134D01*
X118415601Y70611134D02*
X118463220Y70658753D01*
X118463220Y70658753D02*
X118558458Y70706372D01*
X118558458Y70706372D02*
X118748934Y70753991D01*
X118748934Y70753991D02*
X118844172Y70801610D01*
X118844172Y70801610D02*
X118891791Y70849229D01*
X118891791Y70849229D02*
X118939410Y70944467D01*
X118939410Y70944467D02*
X118939410Y71039705D01*
X118939410Y71039705D02*
X118891791Y71134943D01*
X118891791Y71134943D02*
X118844172Y71182562D01*
X118844172Y71182562D02*
X118748934Y71230181D01*
X118748934Y71230181D02*
X118510839Y71230181D01*
X118510839Y71230181D02*
X118367982Y71182562D01*
X117939410Y71230181D02*
X117939410Y70420658D01*
X117939410Y70420658D02*
X117891791Y70325420D01*
X117891791Y70325420D02*
X117844172Y70277800D01*
X117844172Y70277800D02*
X117748934Y70230181D01*
X117748934Y70230181D02*
X117558458Y70230181D01*
X117558458Y70230181D02*
X117463220Y70277800D01*
X117463220Y70277800D02*
X117415601Y70325420D01*
X117415601Y70325420D02*
X117367982Y70420658D01*
X117367982Y70420658D02*
X117367982Y71230181D01*
X62572744Y47600181D02*
X62382268Y47600181D01*
X62382268Y47600181D02*
X62287030Y47552562D01*
X62287030Y47552562D02*
X62191792Y47457324D01*
X62191792Y47457324D02*
X62144173Y47266848D01*
X62144173Y47266848D02*
X62144173Y46933515D01*
X62144173Y46933515D02*
X62191792Y46743039D01*
X62191792Y46743039D02*
X62287030Y46647800D01*
X62287030Y46647800D02*
X62382268Y46600181D01*
X62382268Y46600181D02*
X62572744Y46600181D01*
X62572744Y46600181D02*
X62667982Y46647800D01*
X62667982Y46647800D02*
X62763220Y46743039D01*
X62763220Y46743039D02*
X62810839Y46933515D01*
X62810839Y46933515D02*
X62810839Y47266848D01*
X62810839Y47266848D02*
X62763220Y47457324D01*
X62763220Y47457324D02*
X62667982Y47552562D01*
X62667982Y47552562D02*
X62572744Y47600181D01*
X61715601Y47266848D02*
X61715601Y46266848D01*
X61715601Y47219229D02*
X61620363Y47266848D01*
X61620363Y47266848D02*
X61429887Y47266848D01*
X61429887Y47266848D02*
X61334649Y47219229D01*
X61334649Y47219229D02*
X61287030Y47171610D01*
X61287030Y47171610D02*
X61239411Y47076372D01*
X61239411Y47076372D02*
X61239411Y46790658D01*
X61239411Y46790658D02*
X61287030Y46695420D01*
X61287030Y46695420D02*
X61334649Y46647800D01*
X61334649Y46647800D02*
X61429887Y46600181D01*
X61429887Y46600181D02*
X61620363Y46600181D01*
X61620363Y46600181D02*
X61715601Y46647800D01*
X60429887Y46647800D02*
X60525125Y46600181D01*
X60525125Y46600181D02*
X60715601Y46600181D01*
X60715601Y46600181D02*
X60810839Y46647800D01*
X60810839Y46647800D02*
X60858458Y46743039D01*
X60858458Y46743039D02*
X60858458Y47123991D01*
X60858458Y47123991D02*
X60810839Y47219229D01*
X60810839Y47219229D02*
X60715601Y47266848D01*
X60715601Y47266848D02*
X60525125Y47266848D01*
X60525125Y47266848D02*
X60429887Y47219229D01*
X60429887Y47219229D02*
X60382268Y47123991D01*
X60382268Y47123991D02*
X60382268Y47028753D01*
X60382268Y47028753D02*
X60858458Y46933515D01*
X59953696Y47266848D02*
X59953696Y46600181D01*
X59953696Y47171610D02*
X59906077Y47219229D01*
X59906077Y47219229D02*
X59810839Y47266848D01*
X59810839Y47266848D02*
X59667982Y47266848D01*
X59667982Y47266848D02*
X59572744Y47219229D01*
X59572744Y47219229D02*
X59525125Y47123991D01*
X59525125Y47123991D02*
X59525125Y46600181D01*
X58287029Y46600181D02*
X58287029Y47600181D01*
X58287029Y47600181D02*
X57906077Y47600181D01*
X57906077Y47600181D02*
X57810839Y47552562D01*
X57810839Y47552562D02*
X57763220Y47504943D01*
X57763220Y47504943D02*
X57715601Y47409705D01*
X57715601Y47409705D02*
X57715601Y47266848D01*
X57715601Y47266848D02*
X57763220Y47171610D01*
X57763220Y47171610D02*
X57810839Y47123991D01*
X57810839Y47123991D02*
X57906077Y47076372D01*
X57906077Y47076372D02*
X58287029Y47076372D01*
X56906077Y46647800D02*
X57001315Y46600181D01*
X57001315Y46600181D02*
X57191791Y46600181D01*
X57191791Y46600181D02*
X57287029Y46647800D01*
X57287029Y46647800D02*
X57334648Y46743039D01*
X57334648Y46743039D02*
X57334648Y47123991D01*
X57334648Y47123991D02*
X57287029Y47219229D01*
X57287029Y47219229D02*
X57191791Y47266848D01*
X57191791Y47266848D02*
X57001315Y47266848D01*
X57001315Y47266848D02*
X56906077Y47219229D01*
X56906077Y47219229D02*
X56858458Y47123991D01*
X56858458Y47123991D02*
X56858458Y47028753D01*
X56858458Y47028753D02*
X57334648Y46933515D01*
X56001315Y46600181D02*
X56001315Y47600181D01*
X56001315Y46647800D02*
X56096553Y46600181D01*
X56096553Y46600181D02*
X56287029Y46600181D01*
X56287029Y46600181D02*
X56382267Y46647800D01*
X56382267Y46647800D02*
X56429886Y46695420D01*
X56429886Y46695420D02*
X56477505Y46790658D01*
X56477505Y46790658D02*
X56477505Y47076372D01*
X56477505Y47076372D02*
X56429886Y47171610D01*
X56429886Y47171610D02*
X56382267Y47219229D01*
X56382267Y47219229D02*
X56287029Y47266848D01*
X56287029Y47266848D02*
X56096553Y47266848D01*
X56096553Y47266848D02*
X56001315Y47219229D01*
X55096553Y46600181D02*
X55096553Y47123991D01*
X55096553Y47123991D02*
X55144172Y47219229D01*
X55144172Y47219229D02*
X55239410Y47266848D01*
X55239410Y47266848D02*
X55429886Y47266848D01*
X55429886Y47266848D02*
X55525124Y47219229D01*
X55096553Y46647800D02*
X55191791Y46600181D01*
X55191791Y46600181D02*
X55429886Y46600181D01*
X55429886Y46600181D02*
X55525124Y46647800D01*
X55525124Y46647800D02*
X55572743Y46743039D01*
X55572743Y46743039D02*
X55572743Y46838277D01*
X55572743Y46838277D02*
X55525124Y46933515D01*
X55525124Y46933515D02*
X55429886Y46981134D01*
X55429886Y46981134D02*
X55191791Y46981134D01*
X55191791Y46981134D02*
X55096553Y47028753D01*
X54477505Y46600181D02*
X54572743Y46647800D01*
X54572743Y46647800D02*
X54620362Y46743039D01*
X54620362Y46743039D02*
X54620362Y47600181D01*
X54096552Y46600181D02*
X54096552Y47600181D01*
X54096552Y47219229D02*
X54001314Y47266848D01*
X54001314Y47266848D02*
X53810838Y47266848D01*
X53810838Y47266848D02*
X53715600Y47219229D01*
X53715600Y47219229D02*
X53667981Y47171610D01*
X53667981Y47171610D02*
X53620362Y47076372D01*
X53620362Y47076372D02*
X53620362Y46790658D01*
X53620362Y46790658D02*
X53667981Y46695420D01*
X53667981Y46695420D02*
X53715600Y46647800D01*
X53715600Y46647800D02*
X53810838Y46600181D01*
X53810838Y46600181D02*
X54001314Y46600181D01*
X54001314Y46600181D02*
X54096552Y46647800D01*
X53048933Y46600181D02*
X53144171Y46647800D01*
X53144171Y46647800D02*
X53191790Y46695420D01*
X53191790Y46695420D02*
X53239409Y46790658D01*
X53239409Y46790658D02*
X53239409Y47076372D01*
X53239409Y47076372D02*
X53191790Y47171610D01*
X53191790Y47171610D02*
X53144171Y47219229D01*
X53144171Y47219229D02*
X53048933Y47266848D01*
X53048933Y47266848D02*
X52906076Y47266848D01*
X52906076Y47266848D02*
X52810838Y47219229D01*
X52810838Y47219229D02*
X52763219Y47171610D01*
X52763219Y47171610D02*
X52715600Y47076372D01*
X52715600Y47076372D02*
X52715600Y46790658D01*
X52715600Y46790658D02*
X52763219Y46695420D01*
X52763219Y46695420D02*
X52810838Y46647800D01*
X52810838Y46647800D02*
X52906076Y46600181D01*
X52906076Y46600181D02*
X53048933Y46600181D01*
X51858457Y46600181D02*
X51858457Y47123991D01*
X51858457Y47123991D02*
X51906076Y47219229D01*
X51906076Y47219229D02*
X52001314Y47266848D01*
X52001314Y47266848D02*
X52191790Y47266848D01*
X52191790Y47266848D02*
X52287028Y47219229D01*
X51858457Y46647800D02*
X51953695Y46600181D01*
X51953695Y46600181D02*
X52191790Y46600181D01*
X52191790Y46600181D02*
X52287028Y46647800D01*
X52287028Y46647800D02*
X52334647Y46743039D01*
X52334647Y46743039D02*
X52334647Y46838277D01*
X52334647Y46838277D02*
X52287028Y46933515D01*
X52287028Y46933515D02*
X52191790Y46981134D01*
X52191790Y46981134D02*
X51953695Y46981134D01*
X51953695Y46981134D02*
X51858457Y47028753D01*
X51382266Y46600181D02*
X51382266Y47266848D01*
X51382266Y47076372D02*
X51334647Y47171610D01*
X51334647Y47171610D02*
X51287028Y47219229D01*
X51287028Y47219229D02*
X51191790Y47266848D01*
X51191790Y47266848D02*
X51096552Y47266848D01*
X50334647Y46600181D02*
X50334647Y47600181D01*
X50334647Y46647800D02*
X50429885Y46600181D01*
X50429885Y46600181D02*
X50620361Y46600181D01*
X50620361Y46600181D02*
X50715599Y46647800D01*
X50715599Y46647800D02*
X50763218Y46695420D01*
X50763218Y46695420D02*
X50810837Y46790658D01*
X50810837Y46790658D02*
X50810837Y47076372D01*
X50810837Y47076372D02*
X50763218Y47171610D01*
X50763218Y47171610D02*
X50715599Y47219229D01*
X50715599Y47219229D02*
X50620361Y47266848D01*
X50620361Y47266848D02*
X50429885Y47266848D01*
X50429885Y47266848D02*
X50334647Y47219229D01*
X62763220Y44990181D02*
X62763220Y45990181D01*
X62334649Y44990181D02*
X62334649Y45513991D01*
X62334649Y45513991D02*
X62382268Y45609229D01*
X62382268Y45609229D02*
X62477506Y45656848D01*
X62477506Y45656848D02*
X62620363Y45656848D01*
X62620363Y45656848D02*
X62715601Y45609229D01*
X62715601Y45609229D02*
X62763220Y45561610D01*
X62001315Y45656848D02*
X61620363Y45656848D01*
X61858458Y45990181D02*
X61858458Y45133039D01*
X61858458Y45133039D02*
X61810839Y45037800D01*
X61810839Y45037800D02*
X61715601Y44990181D01*
X61715601Y44990181D02*
X61620363Y44990181D01*
X61429886Y45656848D02*
X61048934Y45656848D01*
X61287029Y45990181D02*
X61287029Y45133039D01*
X61287029Y45133039D02*
X61239410Y45037800D01*
X61239410Y45037800D02*
X61144172Y44990181D01*
X61144172Y44990181D02*
X61048934Y44990181D01*
X60715600Y45656848D02*
X60715600Y44656848D01*
X60715600Y45609229D02*
X60620362Y45656848D01*
X60620362Y45656848D02*
X60429886Y45656848D01*
X60429886Y45656848D02*
X60334648Y45609229D01*
X60334648Y45609229D02*
X60287029Y45561610D01*
X60287029Y45561610D02*
X60239410Y45466372D01*
X60239410Y45466372D02*
X60239410Y45180658D01*
X60239410Y45180658D02*
X60287029Y45085420D01*
X60287029Y45085420D02*
X60334648Y45037800D01*
X60334648Y45037800D02*
X60429886Y44990181D01*
X60429886Y44990181D02*
X60620362Y44990181D01*
X60620362Y44990181D02*
X60715600Y45037800D01*
X59858457Y45037800D02*
X59763219Y44990181D01*
X59763219Y44990181D02*
X59572743Y44990181D01*
X59572743Y44990181D02*
X59477505Y45037800D01*
X59477505Y45037800D02*
X59429886Y45133039D01*
X59429886Y45133039D02*
X59429886Y45180658D01*
X59429886Y45180658D02*
X59477505Y45275896D01*
X59477505Y45275896D02*
X59572743Y45323515D01*
X59572743Y45323515D02*
X59715600Y45323515D01*
X59715600Y45323515D02*
X59810838Y45371134D01*
X59810838Y45371134D02*
X59858457Y45466372D01*
X59858457Y45466372D02*
X59858457Y45513991D01*
X59858457Y45513991D02*
X59810838Y45609229D01*
X59810838Y45609229D02*
X59715600Y45656848D01*
X59715600Y45656848D02*
X59572743Y45656848D01*
X59572743Y45656848D02*
X59477505Y45609229D01*
X59001314Y45085420D02*
X58953695Y45037800D01*
X58953695Y45037800D02*
X59001314Y44990181D01*
X59001314Y44990181D02*
X59048933Y45037800D01*
X59048933Y45037800D02*
X59001314Y45085420D01*
X59001314Y45085420D02*
X59001314Y44990181D01*
X59001314Y45609229D02*
X58953695Y45561610D01*
X58953695Y45561610D02*
X59001314Y45513991D01*
X59001314Y45513991D02*
X59048933Y45561610D01*
X59048933Y45561610D02*
X59001314Y45609229D01*
X59001314Y45609229D02*
X59001314Y45513991D01*
X57810839Y46037800D02*
X58667981Y44752086D01*
X56763220Y46037800D02*
X57620362Y44752086D01*
X56001315Y45656848D02*
X56001315Y44847324D01*
X56001315Y44847324D02*
X56048934Y44752086D01*
X56048934Y44752086D02*
X56096553Y44704467D01*
X56096553Y44704467D02*
X56191791Y44656848D01*
X56191791Y44656848D02*
X56334648Y44656848D01*
X56334648Y44656848D02*
X56429886Y44704467D01*
X56001315Y45037800D02*
X56096553Y44990181D01*
X56096553Y44990181D02*
X56287029Y44990181D01*
X56287029Y44990181D02*
X56382267Y45037800D01*
X56382267Y45037800D02*
X56429886Y45085420D01*
X56429886Y45085420D02*
X56477505Y45180658D01*
X56477505Y45180658D02*
X56477505Y45466372D01*
X56477505Y45466372D02*
X56429886Y45561610D01*
X56429886Y45561610D02*
X56382267Y45609229D01*
X56382267Y45609229D02*
X56287029Y45656848D01*
X56287029Y45656848D02*
X56096553Y45656848D01*
X56096553Y45656848D02*
X56001315Y45609229D01*
X55525124Y44990181D02*
X55525124Y45656848D01*
X55525124Y45990181D02*
X55572743Y45942562D01*
X55572743Y45942562D02*
X55525124Y45894943D01*
X55525124Y45894943D02*
X55477505Y45942562D01*
X55477505Y45942562D02*
X55525124Y45990181D01*
X55525124Y45990181D02*
X55525124Y45894943D01*
X55191791Y45656848D02*
X54810839Y45656848D01*
X55048934Y45990181D02*
X55048934Y45133039D01*
X55048934Y45133039D02*
X55001315Y45037800D01*
X55001315Y45037800D02*
X54906077Y44990181D01*
X54906077Y44990181D02*
X54810839Y44990181D01*
X54477505Y44990181D02*
X54477505Y45990181D01*
X54048934Y44990181D02*
X54048934Y45513991D01*
X54048934Y45513991D02*
X54096553Y45609229D01*
X54096553Y45609229D02*
X54191791Y45656848D01*
X54191791Y45656848D02*
X54334648Y45656848D01*
X54334648Y45656848D02*
X54429886Y45609229D01*
X54429886Y45609229D02*
X54477505Y45561610D01*
X53144172Y45656848D02*
X53144172Y44990181D01*
X53572743Y45656848D02*
X53572743Y45133039D01*
X53572743Y45133039D02*
X53525124Y45037800D01*
X53525124Y45037800D02*
X53429886Y44990181D01*
X53429886Y44990181D02*
X53287029Y44990181D01*
X53287029Y44990181D02*
X53191791Y45037800D01*
X53191791Y45037800D02*
X53144172Y45085420D01*
X52667981Y44990181D02*
X52667981Y45990181D01*
X52667981Y45609229D02*
X52572743Y45656848D01*
X52572743Y45656848D02*
X52382267Y45656848D01*
X52382267Y45656848D02*
X52287029Y45609229D01*
X52287029Y45609229D02*
X52239410Y45561610D01*
X52239410Y45561610D02*
X52191791Y45466372D01*
X52191791Y45466372D02*
X52191791Y45180658D01*
X52191791Y45180658D02*
X52239410Y45085420D01*
X52239410Y45085420D02*
X52287029Y45037800D01*
X52287029Y45037800D02*
X52382267Y44990181D01*
X52382267Y44990181D02*
X52572743Y44990181D01*
X52572743Y44990181D02*
X52667981Y45037800D01*
X51763219Y45085420D02*
X51715600Y45037800D01*
X51715600Y45037800D02*
X51763219Y44990181D01*
X51763219Y44990181D02*
X51810838Y45037800D01*
X51810838Y45037800D02*
X51763219Y45085420D01*
X51763219Y45085420D02*
X51763219Y44990181D01*
X50858458Y45037800D02*
X50953696Y44990181D01*
X50953696Y44990181D02*
X51144172Y44990181D01*
X51144172Y44990181D02*
X51239410Y45037800D01*
X51239410Y45037800D02*
X51287029Y45085420D01*
X51287029Y45085420D02*
X51334648Y45180658D01*
X51334648Y45180658D02*
X51334648Y45466372D01*
X51334648Y45466372D02*
X51287029Y45561610D01*
X51287029Y45561610D02*
X51239410Y45609229D01*
X51239410Y45609229D02*
X51144172Y45656848D01*
X51144172Y45656848D02*
X50953696Y45656848D01*
X50953696Y45656848D02*
X50858458Y45609229D01*
X50287029Y44990181D02*
X50382267Y45037800D01*
X50382267Y45037800D02*
X50429886Y45085420D01*
X50429886Y45085420D02*
X50477505Y45180658D01*
X50477505Y45180658D02*
X50477505Y45466372D01*
X50477505Y45466372D02*
X50429886Y45561610D01*
X50429886Y45561610D02*
X50382267Y45609229D01*
X50382267Y45609229D02*
X50287029Y45656848D01*
X50287029Y45656848D02*
X50144172Y45656848D01*
X50144172Y45656848D02*
X50048934Y45609229D01*
X50048934Y45609229D02*
X50001315Y45561610D01*
X50001315Y45561610D02*
X49953696Y45466372D01*
X49953696Y45466372D02*
X49953696Y45180658D01*
X49953696Y45180658D02*
X50001315Y45085420D01*
X50001315Y45085420D02*
X50048934Y45037800D01*
X50048934Y45037800D02*
X50144172Y44990181D01*
X50144172Y44990181D02*
X50287029Y44990181D01*
X49525124Y44990181D02*
X49525124Y45656848D01*
X49525124Y45561610D02*
X49477505Y45609229D01*
X49477505Y45609229D02*
X49382267Y45656848D01*
X49382267Y45656848D02*
X49239410Y45656848D01*
X49239410Y45656848D02*
X49144172Y45609229D01*
X49144172Y45609229D02*
X49096553Y45513991D01*
X49096553Y45513991D02*
X49096553Y44990181D01*
X49096553Y45513991D02*
X49048934Y45609229D01*
X49048934Y45609229D02*
X48953696Y45656848D01*
X48953696Y45656848D02*
X48810839Y45656848D01*
X48810839Y45656848D02*
X48715600Y45609229D01*
X48715600Y45609229D02*
X48667981Y45513991D01*
X48667981Y45513991D02*
X48667981Y44990181D01*
X47477506Y46037800D02*
X48334648Y44752086D01*
X47144172Y45656848D02*
X47144172Y44656848D01*
X47144172Y45609229D02*
X47048934Y45656848D01*
X47048934Y45656848D02*
X46858458Y45656848D01*
X46858458Y45656848D02*
X46763220Y45609229D01*
X46763220Y45609229D02*
X46715601Y45561610D01*
X46715601Y45561610D02*
X46667982Y45466372D01*
X46667982Y45466372D02*
X46667982Y45180658D01*
X46667982Y45180658D02*
X46715601Y45085420D01*
X46715601Y45085420D02*
X46763220Y45037800D01*
X46763220Y45037800D02*
X46858458Y44990181D01*
X46858458Y44990181D02*
X47048934Y44990181D01*
X47048934Y44990181D02*
X47144172Y45037800D01*
X45858458Y45037800D02*
X45953696Y44990181D01*
X45953696Y44990181D02*
X46144172Y44990181D01*
X46144172Y44990181D02*
X46239410Y45037800D01*
X46239410Y45037800D02*
X46287029Y45133039D01*
X46287029Y45133039D02*
X46287029Y45513991D01*
X46287029Y45513991D02*
X46239410Y45609229D01*
X46239410Y45609229D02*
X46144172Y45656848D01*
X46144172Y45656848D02*
X45953696Y45656848D01*
X45953696Y45656848D02*
X45858458Y45609229D01*
X45858458Y45609229D02*
X45810839Y45513991D01*
X45810839Y45513991D02*
X45810839Y45418753D01*
X45810839Y45418753D02*
X46287029Y45323515D01*
X44953696Y44990181D02*
X44953696Y45990181D01*
X44953696Y45037800D02*
X45048934Y44990181D01*
X45048934Y44990181D02*
X45239410Y44990181D01*
X45239410Y44990181D02*
X45334648Y45037800D01*
X45334648Y45037800D02*
X45382267Y45085420D01*
X45382267Y45085420D02*
X45429886Y45180658D01*
X45429886Y45180658D02*
X45429886Y45466372D01*
X45429886Y45466372D02*
X45382267Y45561610D01*
X45382267Y45561610D02*
X45334648Y45609229D01*
X45334648Y45609229D02*
X45239410Y45656848D01*
X45239410Y45656848D02*
X45048934Y45656848D01*
X45048934Y45656848D02*
X44953696Y45609229D01*
X44048934Y44990181D02*
X44048934Y45513991D01*
X44048934Y45513991D02*
X44096553Y45609229D01*
X44096553Y45609229D02*
X44191791Y45656848D01*
X44191791Y45656848D02*
X44382267Y45656848D01*
X44382267Y45656848D02*
X44477505Y45609229D01*
X44048934Y45037800D02*
X44144172Y44990181D01*
X44144172Y44990181D02*
X44382267Y44990181D01*
X44382267Y44990181D02*
X44477505Y45037800D01*
X44477505Y45037800D02*
X44525124Y45133039D01*
X44525124Y45133039D02*
X44525124Y45228277D01*
X44525124Y45228277D02*
X44477505Y45323515D01*
X44477505Y45323515D02*
X44382267Y45371134D01*
X44382267Y45371134D02*
X44144172Y45371134D01*
X44144172Y45371134D02*
X44048934Y45418753D01*
X43429886Y44990181D02*
X43525124Y45037800D01*
X43525124Y45037800D02*
X43572743Y45133039D01*
X43572743Y45133039D02*
X43572743Y45990181D01*
X43048933Y44990181D02*
X43048933Y45990181D01*
X43048933Y45609229D02*
X42953695Y45656848D01*
X42953695Y45656848D02*
X42763219Y45656848D01*
X42763219Y45656848D02*
X42667981Y45609229D01*
X42667981Y45609229D02*
X42620362Y45561610D01*
X42620362Y45561610D02*
X42572743Y45466372D01*
X42572743Y45466372D02*
X42572743Y45180658D01*
X42572743Y45180658D02*
X42620362Y45085420D01*
X42620362Y45085420D02*
X42667981Y45037800D01*
X42667981Y45037800D02*
X42763219Y44990181D01*
X42763219Y44990181D02*
X42953695Y44990181D01*
X42953695Y44990181D02*
X43048933Y45037800D01*
X42001314Y44990181D02*
X42096552Y45037800D01*
X42096552Y45037800D02*
X42144171Y45085420D01*
X42144171Y45085420D02*
X42191790Y45180658D01*
X42191790Y45180658D02*
X42191790Y45466372D01*
X42191790Y45466372D02*
X42144171Y45561610D01*
X42144171Y45561610D02*
X42096552Y45609229D01*
X42096552Y45609229D02*
X42001314Y45656848D01*
X42001314Y45656848D02*
X41858457Y45656848D01*
X41858457Y45656848D02*
X41763219Y45609229D01*
X41763219Y45609229D02*
X41715600Y45561610D01*
X41715600Y45561610D02*
X41667981Y45466372D01*
X41667981Y45466372D02*
X41667981Y45180658D01*
X41667981Y45180658D02*
X41715600Y45085420D01*
X41715600Y45085420D02*
X41763219Y45037800D01*
X41763219Y45037800D02*
X41858457Y44990181D01*
X41858457Y44990181D02*
X42001314Y44990181D01*
X40810838Y44990181D02*
X40810838Y45513991D01*
X40810838Y45513991D02*
X40858457Y45609229D01*
X40858457Y45609229D02*
X40953695Y45656848D01*
X40953695Y45656848D02*
X41144171Y45656848D01*
X41144171Y45656848D02*
X41239409Y45609229D01*
X40810838Y45037800D02*
X40906076Y44990181D01*
X40906076Y44990181D02*
X41144171Y44990181D01*
X41144171Y44990181D02*
X41239409Y45037800D01*
X41239409Y45037800D02*
X41287028Y45133039D01*
X41287028Y45133039D02*
X41287028Y45228277D01*
X41287028Y45228277D02*
X41239409Y45323515D01*
X41239409Y45323515D02*
X41144171Y45371134D01*
X41144171Y45371134D02*
X40906076Y45371134D01*
X40906076Y45371134D02*
X40810838Y45418753D01*
X40334647Y44990181D02*
X40334647Y45656848D01*
X40334647Y45466372D02*
X40287028Y45561610D01*
X40287028Y45561610D02*
X40239409Y45609229D01*
X40239409Y45609229D02*
X40144171Y45656848D01*
X40144171Y45656848D02*
X40048933Y45656848D01*
X39287028Y44990181D02*
X39287028Y45990181D01*
X39287028Y45037800D02*
X39382266Y44990181D01*
X39382266Y44990181D02*
X39572742Y44990181D01*
X39572742Y44990181D02*
X39667980Y45037800D01*
X39667980Y45037800D02*
X39715599Y45085420D01*
X39715599Y45085420D02*
X39763218Y45180658D01*
X39763218Y45180658D02*
X39763218Y45466372D01*
X39763218Y45466372D02*
X39715599Y45561610D01*
X39715599Y45561610D02*
X39667980Y45609229D01*
X39667980Y45609229D02*
X39572742Y45656848D01*
X39572742Y45656848D02*
X39382266Y45656848D01*
X39382266Y45656848D02*
X39287028Y45609229D01*
X62429887Y43903991D02*
X62287030Y43856372D01*
X62287030Y43856372D02*
X62239411Y43808753D01*
X62239411Y43808753D02*
X62191792Y43713515D01*
X62191792Y43713515D02*
X62191792Y43570658D01*
X62191792Y43570658D02*
X62239411Y43475420D01*
X62239411Y43475420D02*
X62287030Y43427800D01*
X62287030Y43427800D02*
X62382268Y43380181D01*
X62382268Y43380181D02*
X62763220Y43380181D01*
X62763220Y43380181D02*
X62763220Y44380181D01*
X62763220Y44380181D02*
X62429887Y44380181D01*
X62429887Y44380181D02*
X62334649Y44332562D01*
X62334649Y44332562D02*
X62287030Y44284943D01*
X62287030Y44284943D02*
X62239411Y44189705D01*
X62239411Y44189705D02*
X62239411Y44094467D01*
X62239411Y44094467D02*
X62287030Y43999229D01*
X62287030Y43999229D02*
X62334649Y43951610D01*
X62334649Y43951610D02*
X62429887Y43903991D01*
X62429887Y43903991D02*
X62763220Y43903991D01*
X61191792Y43475420D02*
X61239411Y43427800D01*
X61239411Y43427800D02*
X61382268Y43380181D01*
X61382268Y43380181D02*
X61477506Y43380181D01*
X61477506Y43380181D02*
X61620363Y43427800D01*
X61620363Y43427800D02*
X61715601Y43523039D01*
X61715601Y43523039D02*
X61763220Y43618277D01*
X61763220Y43618277D02*
X61810839Y43808753D01*
X61810839Y43808753D02*
X61810839Y43951610D01*
X61810839Y43951610D02*
X61763220Y44142086D01*
X61763220Y44142086D02*
X61715601Y44237324D01*
X61715601Y44237324D02*
X61620363Y44332562D01*
X61620363Y44332562D02*
X61477506Y44380181D01*
X61477506Y44380181D02*
X61382268Y44380181D01*
X61382268Y44380181D02*
X61239411Y44332562D01*
X61239411Y44332562D02*
X61191792Y44284943D01*
X60429887Y43903991D02*
X60287030Y43856372D01*
X60287030Y43856372D02*
X60239411Y43808753D01*
X60239411Y43808753D02*
X60191792Y43713515D01*
X60191792Y43713515D02*
X60191792Y43570658D01*
X60191792Y43570658D02*
X60239411Y43475420D01*
X60239411Y43475420D02*
X60287030Y43427800D01*
X60287030Y43427800D02*
X60382268Y43380181D01*
X60382268Y43380181D02*
X60763220Y43380181D01*
X60763220Y43380181D02*
X60763220Y44380181D01*
X60763220Y44380181D02*
X60429887Y44380181D01*
X60429887Y44380181D02*
X60334649Y44332562D01*
X60334649Y44332562D02*
X60287030Y44284943D01*
X60287030Y44284943D02*
X60239411Y44189705D01*
X60239411Y44189705D02*
X60239411Y44094467D01*
X60239411Y44094467D02*
X60287030Y43999229D01*
X60287030Y43999229D02*
X60334649Y43951610D01*
X60334649Y43951610D02*
X60429887Y43903991D01*
X60429887Y43903991D02*
X60763220Y43903991D01*
X59763220Y43475420D02*
X59715601Y43427800D01*
X59715601Y43427800D02*
X59763220Y43380181D01*
X59763220Y43380181D02*
X59810839Y43427800D01*
X59810839Y43427800D02*
X59763220Y43475420D01*
X59763220Y43475420D02*
X59763220Y43380181D01*
X59763220Y43999229D02*
X59715601Y43951610D01*
X59715601Y43951610D02*
X59763220Y43903991D01*
X59763220Y43903991D02*
X59810839Y43951610D01*
X59810839Y43951610D02*
X59763220Y43999229D01*
X59763220Y43999229D02*
X59763220Y43903991D01*
X58620363Y44380181D02*
X58001316Y44380181D01*
X58001316Y44380181D02*
X58334649Y43999229D01*
X58334649Y43999229D02*
X58191792Y43999229D01*
X58191792Y43999229D02*
X58096554Y43951610D01*
X58096554Y43951610D02*
X58048935Y43903991D01*
X58048935Y43903991D02*
X58001316Y43808753D01*
X58001316Y43808753D02*
X58001316Y43570658D01*
X58001316Y43570658D02*
X58048935Y43475420D01*
X58048935Y43475420D02*
X58096554Y43427800D01*
X58096554Y43427800D02*
X58191792Y43380181D01*
X58191792Y43380181D02*
X58477506Y43380181D01*
X58477506Y43380181D02*
X58572744Y43427800D01*
X58572744Y43427800D02*
X58620363Y43475420D01*
X57572744Y43475420D02*
X57525125Y43427800D01*
X57525125Y43427800D02*
X57572744Y43380181D01*
X57572744Y43380181D02*
X57620363Y43427800D01*
X57620363Y43427800D02*
X57572744Y43475420D01*
X57572744Y43475420D02*
X57572744Y43380181D01*
X56906078Y44380181D02*
X56810840Y44380181D01*
X56810840Y44380181D02*
X56715602Y44332562D01*
X56715602Y44332562D02*
X56667983Y44284943D01*
X56667983Y44284943D02*
X56620364Y44189705D01*
X56620364Y44189705D02*
X56572745Y43999229D01*
X56572745Y43999229D02*
X56572745Y43761134D01*
X56572745Y43761134D02*
X56620364Y43570658D01*
X56620364Y43570658D02*
X56667983Y43475420D01*
X56667983Y43475420D02*
X56715602Y43427800D01*
X56715602Y43427800D02*
X56810840Y43380181D01*
X56810840Y43380181D02*
X56906078Y43380181D01*
X56906078Y43380181D02*
X57001316Y43427800D01*
X57001316Y43427800D02*
X57048935Y43475420D01*
X57048935Y43475420D02*
X57096554Y43570658D01*
X57096554Y43570658D02*
X57144173Y43761134D01*
X57144173Y43761134D02*
X57144173Y43999229D01*
X57144173Y43999229D02*
X57096554Y44189705D01*
X57096554Y44189705D02*
X57048935Y44284943D01*
X57048935Y44284943D02*
X57001316Y44332562D01*
X57001316Y44332562D02*
X56906078Y44380181D01*
X56144173Y43475420D02*
X56096554Y43427800D01*
X56096554Y43427800D02*
X56144173Y43380181D01*
X56144173Y43380181D02*
X56191792Y43427800D01*
X56191792Y43427800D02*
X56144173Y43475420D01*
X56144173Y43475420D02*
X56144173Y43380181D01*
X55477507Y44380181D02*
X55382269Y44380181D01*
X55382269Y44380181D02*
X55287031Y44332562D01*
X55287031Y44332562D02*
X55239412Y44284943D01*
X55239412Y44284943D02*
X55191793Y44189705D01*
X55191793Y44189705D02*
X55144174Y43999229D01*
X55144174Y43999229D02*
X55144174Y43761134D01*
X55144174Y43761134D02*
X55191793Y43570658D01*
X55191793Y43570658D02*
X55239412Y43475420D01*
X55239412Y43475420D02*
X55287031Y43427800D01*
X55287031Y43427800D02*
X55382269Y43380181D01*
X55382269Y43380181D02*
X55477507Y43380181D01*
X55477507Y43380181D02*
X55572745Y43427800D01*
X55572745Y43427800D02*
X55620364Y43475420D01*
X55620364Y43475420D02*
X55667983Y43570658D01*
X55667983Y43570658D02*
X55715602Y43761134D01*
X55715602Y43761134D02*
X55715602Y43999229D01*
X55715602Y43999229D02*
X55667983Y44189705D01*
X55667983Y44189705D02*
X55620364Y44284943D01*
X55620364Y44284943D02*
X55572745Y44332562D01*
X55572745Y44332562D02*
X55477507Y44380181D01*
X54715602Y43761134D02*
X53953698Y43761134D01*
X52906079Y43380181D02*
X53239412Y43856372D01*
X53477507Y43380181D02*
X53477507Y44380181D01*
X53477507Y44380181D02*
X53096555Y44380181D01*
X53096555Y44380181D02*
X53001317Y44332562D01*
X53001317Y44332562D02*
X52953698Y44284943D01*
X52953698Y44284943D02*
X52906079Y44189705D01*
X52906079Y44189705D02*
X52906079Y44046848D01*
X52906079Y44046848D02*
X52953698Y43951610D01*
X52953698Y43951610D02*
X53001317Y43903991D01*
X53001317Y43903991D02*
X53096555Y43856372D01*
X53096555Y43856372D02*
X53477507Y43856372D01*
X51906079Y43475420D02*
X51953698Y43427800D01*
X51953698Y43427800D02*
X52096555Y43380181D01*
X52096555Y43380181D02*
X52191793Y43380181D01*
X52191793Y43380181D02*
X52334650Y43427800D01*
X52334650Y43427800D02*
X52429888Y43523039D01*
X52429888Y43523039D02*
X52477507Y43618277D01*
X52477507Y43618277D02*
X52525126Y43808753D01*
X52525126Y43808753D02*
X52525126Y43951610D01*
X52525126Y43951610D02*
X52477507Y44142086D01*
X52477507Y44142086D02*
X52429888Y44237324D01*
X52429888Y44237324D02*
X52334650Y44332562D01*
X52334650Y44332562D02*
X52191793Y44380181D01*
X52191793Y44380181D02*
X52096555Y44380181D01*
X52096555Y44380181D02*
X51953698Y44332562D01*
X51953698Y44332562D02*
X51906079Y44284943D01*
X50953698Y43380181D02*
X51525126Y43380181D01*
X51239412Y43380181D02*
X51239412Y44380181D01*
X51239412Y44380181D02*
X51334650Y44237324D01*
X51334650Y44237324D02*
X51429888Y44142086D01*
X51429888Y44142086D02*
X51525126Y44094467D01*
X34887579Y7171667D02*
X35649484Y7171667D01*
X35268531Y7552620D02*
X35268531Y6790715D01*
X36601864Y6552620D02*
X36125674Y6552620D01*
X36125674Y6552620D02*
X36078055Y7028810D01*
X36078055Y7028810D02*
X36125674Y6981191D01*
X36125674Y6981191D02*
X36220912Y6933572D01*
X36220912Y6933572D02*
X36459007Y6933572D01*
X36459007Y6933572D02*
X36554245Y6981191D01*
X36554245Y6981191D02*
X36601864Y7028810D01*
X36601864Y7028810D02*
X36649483Y7124048D01*
X36649483Y7124048D02*
X36649483Y7362143D01*
X36649483Y7362143D02*
X36601864Y7457381D01*
X36601864Y7457381D02*
X36554245Y7505000D01*
X36554245Y7505000D02*
X36459007Y7552620D01*
X36459007Y7552620D02*
X36220912Y7552620D01*
X36220912Y7552620D02*
X36125674Y7505000D01*
X36125674Y7505000D02*
X36078055Y7457381D01*
X36935198Y6552620D02*
X37268531Y7552620D01*
X37268531Y7552620D02*
X37601864Y6552620D01*
X36244173Y76691372D02*
X36244173Y78191372D01*
X36244173Y78191372D02*
X35744173Y77119943D01*
X35744173Y77119943D02*
X35244173Y78191372D01*
X35244173Y78191372D02*
X35244173Y76691372D01*
X34529887Y76691372D02*
X34529887Y78191372D01*
X33815601Y76691372D02*
X33815601Y78191372D01*
X33815601Y78191372D02*
X33458458Y78191372D01*
X33458458Y78191372D02*
X33244172Y78119943D01*
X33244172Y78119943D02*
X33101315Y77977086D01*
X33101315Y77977086D02*
X33029886Y77834229D01*
X33029886Y77834229D02*
X32958458Y77548515D01*
X32958458Y77548515D02*
X32958458Y77334229D01*
X32958458Y77334229D02*
X33029886Y77048515D01*
X33029886Y77048515D02*
X33101315Y76905658D01*
X33101315Y76905658D02*
X33244172Y76762800D01*
X33244172Y76762800D02*
X33458458Y76691372D01*
X33458458Y76691372D02*
X33815601Y76691372D01*
X32315601Y76691372D02*
X32315601Y78191372D01*
X131661620Y64439381D02*
X131661620Y65106048D01*
X131661620Y65439381D02*
X131709239Y65391762D01*
X131709239Y65391762D02*
X131661620Y65344143D01*
X131661620Y65344143D02*
X131614001Y65391762D01*
X131614001Y65391762D02*
X131661620Y65439381D01*
X131661620Y65439381D02*
X131661620Y65344143D01*
X131185430Y65106048D02*
X131185430Y64439381D01*
X131185430Y65010810D02*
X131137811Y65058429D01*
X131137811Y65058429D02*
X131042573Y65106048D01*
X131042573Y65106048D02*
X130899716Y65106048D01*
X130899716Y65106048D02*
X130804478Y65058429D01*
X130804478Y65058429D02*
X130756859Y64963191D01*
X130756859Y64963191D02*
X130756859Y64439381D01*
X31987030Y-2569819D02*
X32463220Y-2569819D01*
X32463220Y-2569819D02*
X32463220Y-1569819D01*
X31653696Y-2046009D02*
X31320363Y-2046009D01*
X31177506Y-2569819D02*
X31653696Y-2569819D01*
X31653696Y-2569819D02*
X31653696Y-1569819D01*
X31653696Y-1569819D02*
X31177506Y-1569819D01*
X30748934Y-2569819D02*
X30748934Y-1569819D01*
X30748934Y-1569819D02*
X30510839Y-1569819D01*
X30510839Y-1569819D02*
X30367982Y-1617438D01*
X30367982Y-1617438D02*
X30272744Y-1712676D01*
X30272744Y-1712676D02*
X30225125Y-1807914D01*
X30225125Y-1807914D02*
X30177506Y-1998390D01*
X30177506Y-1998390D02*
X30177506Y-2141247D01*
X30177506Y-2141247D02*
X30225125Y-2331723D01*
X30225125Y-2331723D02*
X30272744Y-2426961D01*
X30272744Y-2426961D02*
X30367982Y-2522200D01*
X30367982Y-2522200D02*
X30510839Y-2569819D01*
X30510839Y-2569819D02*
X30748934Y-2569819D01*
X28796553Y-1569819D02*
X28606077Y-1569819D01*
X28606077Y-1569819D02*
X28510839Y-1617438D01*
X28510839Y-1617438D02*
X28415601Y-1712676D01*
X28415601Y-1712676D02*
X28367982Y-1903152D01*
X28367982Y-1903152D02*
X28367982Y-2236485D01*
X28367982Y-2236485D02*
X28415601Y-2426961D01*
X28415601Y-2426961D02*
X28510839Y-2522200D01*
X28510839Y-2522200D02*
X28606077Y-2569819D01*
X28606077Y-2569819D02*
X28796553Y-2569819D01*
X28796553Y-2569819D02*
X28891791Y-2522200D01*
X28891791Y-2522200D02*
X28987029Y-2426961D01*
X28987029Y-2426961D02*
X29034648Y-2236485D01*
X29034648Y-2236485D02*
X29034648Y-1903152D01*
X29034648Y-1903152D02*
X28987029Y-1712676D01*
X28987029Y-1712676D02*
X28891791Y-1617438D01*
X28891791Y-1617438D02*
X28796553Y-1569819D01*
X27939410Y-1569819D02*
X27939410Y-2379342D01*
X27939410Y-2379342D02*
X27891791Y-2474580D01*
X27891791Y-2474580D02*
X27844172Y-2522200D01*
X27844172Y-2522200D02*
X27748934Y-2569819D01*
X27748934Y-2569819D02*
X27558458Y-2569819D01*
X27558458Y-2569819D02*
X27463220Y-2522200D01*
X27463220Y-2522200D02*
X27415601Y-2474580D01*
X27415601Y-2474580D02*
X27367982Y-2379342D01*
X27367982Y-2379342D02*
X27367982Y-1569819D01*
X27034648Y-1569819D02*
X26463220Y-1569819D01*
X26748934Y-2569819D02*
X26748934Y-1569819D01*
X162648219Y87884021D02*
X161648219Y87884021D01*
X162648219Y87407831D02*
X161648219Y87407831D01*
X161648219Y87407831D02*
X162648219Y86836403D01*
X162648219Y86836403D02*
X161648219Y86836403D01*
X48795780Y73660456D02*
X48795780Y73850932D01*
X48795780Y73850932D02*
X48748161Y73946170D01*
X48748161Y73946170D02*
X48652923Y74041408D01*
X48652923Y74041408D02*
X48462447Y74089027D01*
X48462447Y74089027D02*
X48129114Y74089027D01*
X48129114Y74089027D02*
X47938638Y74041408D01*
X47938638Y74041408D02*
X47843400Y73946170D01*
X47843400Y73946170D02*
X47795780Y73850932D01*
X47795780Y73850932D02*
X47795780Y73660456D01*
X47795780Y73660456D02*
X47843400Y73565218D01*
X47843400Y73565218D02*
X47938638Y73469980D01*
X47938638Y73469980D02*
X48129114Y73422361D01*
X48129114Y73422361D02*
X48462447Y73422361D01*
X48462447Y73422361D02*
X48652923Y73469980D01*
X48652923Y73469980D02*
X48748161Y73565218D01*
X48748161Y73565218D02*
X48795780Y73660456D01*
X48795780Y74517599D02*
X47986257Y74517599D01*
X47986257Y74517599D02*
X47891019Y74565218D01*
X47891019Y74565218D02*
X47843400Y74612837D01*
X47843400Y74612837D02*
X47795780Y74708075D01*
X47795780Y74708075D02*
X47795780Y74898551D01*
X47795780Y74898551D02*
X47843400Y74993789D01*
X47843400Y74993789D02*
X47891019Y75041408D01*
X47891019Y75041408D02*
X47986257Y75089027D01*
X47986257Y75089027D02*
X48795780Y75089027D01*
X48795780Y75422361D02*
X48795780Y75993789D01*
X47795780Y75708075D02*
X48795780Y75708075D01*
X155196619Y88128478D02*
X156196619Y87795145D01*
X156196619Y87795145D02*
X155196619Y87461812D01*
X156196619Y86557050D02*
X155720428Y86890383D01*
X156196619Y87128478D02*
X155196619Y87128478D01*
X155196619Y87128478D02*
X155196619Y86747526D01*
X155196619Y86747526D02*
X155244238Y86652288D01*
X155244238Y86652288D02*
X155291857Y86604669D01*
X155291857Y86604669D02*
X155387095Y86557050D01*
X155387095Y86557050D02*
X155529952Y86557050D01*
X155529952Y86557050D02*
X155625190Y86604669D01*
X155625190Y86604669D02*
X155672809Y86652288D01*
X155672809Y86652288D02*
X155720428Y86747526D01*
X155720428Y86747526D02*
X155720428Y87128478D01*
X155672809Y86128478D02*
X155672809Y85795145D01*
X156196619Y85652288D02*
X156196619Y86128478D01*
X156196619Y86128478D02*
X155196619Y86128478D01*
X155196619Y86128478D02*
X155196619Y85652288D01*
X155672809Y84890383D02*
X155672809Y85223716D01*
X156196619Y85223716D02*
X155196619Y85223716D01*
X155196619Y85223716D02*
X155196619Y84747526D01*
X131620363Y67030181D02*
X131715601Y67077800D01*
X131715601Y67077800D02*
X131763220Y67125420D01*
X131763220Y67125420D02*
X131810839Y67220658D01*
X131810839Y67220658D02*
X131810839Y67506372D01*
X131810839Y67506372D02*
X131763220Y67601610D01*
X131763220Y67601610D02*
X131715601Y67649229D01*
X131715601Y67649229D02*
X131620363Y67696848D01*
X131620363Y67696848D02*
X131477506Y67696848D01*
X131477506Y67696848D02*
X131382268Y67649229D01*
X131382268Y67649229D02*
X131334649Y67601610D01*
X131334649Y67601610D02*
X131287030Y67506372D01*
X131287030Y67506372D02*
X131287030Y67220658D01*
X131287030Y67220658D02*
X131334649Y67125420D01*
X131334649Y67125420D02*
X131382268Y67077800D01*
X131382268Y67077800D02*
X131477506Y67030181D01*
X131477506Y67030181D02*
X131620363Y67030181D01*
X130429887Y67696848D02*
X130429887Y67030181D01*
X130858458Y67696848D02*
X130858458Y67173039D01*
X130858458Y67173039D02*
X130810839Y67077800D01*
X130810839Y67077800D02*
X130715601Y67030181D01*
X130715601Y67030181D02*
X130572744Y67030181D01*
X130572744Y67030181D02*
X130477506Y67077800D01*
X130477506Y67077800D02*
X130429887Y67125420D01*
X130096553Y67696848D02*
X129715601Y67696848D01*
X129953696Y68030181D02*
X129953696Y67173039D01*
X129953696Y67173039D02*
X129906077Y67077800D01*
X129906077Y67077800D02*
X129810839Y67030181D01*
X129810839Y67030181D02*
X129715601Y67030181D01*
X30033333Y15945181D02*
X30033333Y15230896D01*
X30033333Y15230896D02*
X30080952Y15088039D01*
X30080952Y15088039D02*
X30176190Y14992800D01*
X30176190Y14992800D02*
X30319047Y14945181D01*
X30319047Y14945181D02*
X30414285Y14945181D01*
X29652380Y15945181D02*
X28985714Y15945181D01*
X28985714Y15945181D02*
X29414285Y14945181D01*
X93958333Y25435181D02*
X93958333Y24720896D01*
X93958333Y24720896D02*
X94005952Y24578039D01*
X94005952Y24578039D02*
X94101190Y24482800D01*
X94101190Y24482800D02*
X94244047Y24435181D01*
X94244047Y24435181D02*
X94339285Y24435181D01*
X93053571Y25435181D02*
X93244047Y25435181D01*
X93244047Y25435181D02*
X93339285Y25387562D01*
X93339285Y25387562D02*
X93386904Y25339943D01*
X93386904Y25339943D02*
X93482142Y25197086D01*
X93482142Y25197086D02*
X93529761Y25006610D01*
X93529761Y25006610D02*
X93529761Y24625658D01*
X93529761Y24625658D02*
X93482142Y24530420D01*
X93482142Y24530420D02*
X93434523Y24482800D01*
X93434523Y24482800D02*
X93339285Y24435181D01*
X93339285Y24435181D02*
X93148809Y24435181D01*
X93148809Y24435181D02*
X93053571Y24482800D01*
X93053571Y24482800D02*
X93005952Y24530420D01*
X93005952Y24530420D02*
X92958333Y24625658D01*
X92958333Y24625658D02*
X92958333Y24863753D01*
X92958333Y24863753D02*
X93005952Y24958991D01*
X93005952Y24958991D02*
X93053571Y25006610D01*
X93053571Y25006610D02*
X93148809Y25054229D01*
X93148809Y25054229D02*
X93339285Y25054229D01*
X93339285Y25054229D02*
X93434523Y25006610D01*
X93434523Y25006610D02*
X93482142Y24958991D01*
X93482142Y24958991D02*
X93529761Y24863753D01*
X112754819Y68609524D02*
X113469104Y68609524D01*
X113469104Y68609524D02*
X113611961Y68657143D01*
X113611961Y68657143D02*
X113707200Y68752381D01*
X113707200Y68752381D02*
X113754819Y68895238D01*
X113754819Y68895238D02*
X113754819Y68990476D01*
X113754819Y67609524D02*
X113754819Y68180952D01*
X113754819Y67895238D02*
X112754819Y67895238D01*
X112754819Y67895238D02*
X112897676Y67990476D01*
X112897676Y67990476D02*
X112992914Y68085714D01*
X112992914Y68085714D02*
X113040533Y68180952D01*
X113088152Y66752381D02*
X113754819Y66752381D01*
X112707200Y66990476D02*
X113421485Y67228571D01*
X113421485Y67228571D02*
X113421485Y66609524D01*
X107333333Y79605181D02*
X107333333Y78890896D01*
X107333333Y78890896D02*
X107380952Y78748039D01*
X107380952Y78748039D02*
X107476190Y78652800D01*
X107476190Y78652800D02*
X107619047Y78605181D01*
X107619047Y78605181D02*
X107714285Y78605181D01*
X106380952Y79605181D02*
X106857142Y79605181D01*
X106857142Y79605181D02*
X106904761Y79128991D01*
X106904761Y79128991D02*
X106857142Y79176610D01*
X106857142Y79176610D02*
X106761904Y79224229D01*
X106761904Y79224229D02*
X106523809Y79224229D01*
X106523809Y79224229D02*
X106428571Y79176610D01*
X106428571Y79176610D02*
X106380952Y79128991D01*
X106380952Y79128991D02*
X106333333Y79033753D01*
X106333333Y79033753D02*
X106333333Y78795658D01*
X106333333Y78795658D02*
X106380952Y78700420D01*
X106380952Y78700420D02*
X106428571Y78652800D01*
X106428571Y78652800D02*
X106523809Y78605181D01*
X106523809Y78605181D02*
X106761904Y78605181D01*
X106761904Y78605181D02*
X106857142Y78652800D01*
X106857142Y78652800D02*
X106904761Y78700420D01*
X62154819Y50933334D02*
X62869104Y50933334D01*
X62869104Y50933334D02*
X63011961Y50980953D01*
X63011961Y50980953D02*
X63107200Y51076191D01*
X63107200Y51076191D02*
X63154819Y51219048D01*
X63154819Y51219048D02*
X63154819Y51314286D01*
X63154819Y50457143D02*
X62154819Y50457143D01*
X62154819Y50457143D02*
X62154819Y50076191D01*
X62154819Y50076191D02*
X62202438Y49980953D01*
X62202438Y49980953D02*
X62250057Y49933334D01*
X62250057Y49933334D02*
X62345295Y49885715D01*
X62345295Y49885715D02*
X62488152Y49885715D01*
X62488152Y49885715D02*
X62583390Y49933334D01*
X62583390Y49933334D02*
X62631009Y49980953D01*
X62631009Y49980953D02*
X62678628Y50076191D01*
X62678628Y50076191D02*
X62678628Y50457143D01*
X62154819Y49552381D02*
X62154819Y48933334D01*
X62154819Y48933334D02*
X62535771Y49266667D01*
X62535771Y49266667D02*
X62535771Y49123810D01*
X62535771Y49123810D02*
X62583390Y49028572D01*
X62583390Y49028572D02*
X62631009Y48980953D01*
X62631009Y48980953D02*
X62726247Y48933334D01*
X62726247Y48933334D02*
X62964342Y48933334D01*
X62964342Y48933334D02*
X63059580Y48980953D01*
X63059580Y48980953D02*
X63107200Y49028572D01*
X63107200Y49028572D02*
X63154819Y49123810D01*
X63154819Y49123810D02*
X63154819Y49409524D01*
X63154819Y49409524D02*
X63107200Y49504762D01*
X63107200Y49504762D02*
X63059580Y49552381D01*
X56250704Y85209981D02*
X56250704Y84400458D01*
X56250704Y84400458D02*
X56203085Y84305220D01*
X56203085Y84305220D02*
X56155466Y84257600D01*
X56155466Y84257600D02*
X56060228Y84209981D01*
X56060228Y84209981D02*
X55869752Y84209981D01*
X55869752Y84209981D02*
X55774514Y84257600D01*
X55774514Y84257600D02*
X55726895Y84305220D01*
X55726895Y84305220D02*
X55679276Y84400458D01*
X55679276Y84400458D02*
X55679276Y85209981D01*
X54679276Y84209981D02*
X55250704Y84209981D01*
X54964990Y84209981D02*
X54964990Y85209981D01*
X54964990Y85209981D02*
X55060228Y85067124D01*
X55060228Y85067124D02*
X55155466Y84971886D01*
X55155466Y84971886D02*
X55250704Y84924267D01*
X68454819Y50933334D02*
X69169104Y50933334D01*
X69169104Y50933334D02*
X69311961Y50980953D01*
X69311961Y50980953D02*
X69407200Y51076191D01*
X69407200Y51076191D02*
X69454819Y51219048D01*
X69454819Y51219048D02*
X69454819Y51314286D01*
X69454819Y50457143D02*
X68454819Y50457143D01*
X68454819Y50457143D02*
X68454819Y50076191D01*
X68454819Y50076191D02*
X68502438Y49980953D01*
X68502438Y49980953D02*
X68550057Y49933334D01*
X68550057Y49933334D02*
X68645295Y49885715D01*
X68645295Y49885715D02*
X68788152Y49885715D01*
X68788152Y49885715D02*
X68883390Y49933334D01*
X68883390Y49933334D02*
X68931009Y49980953D01*
X68931009Y49980953D02*
X68978628Y50076191D01*
X68978628Y50076191D02*
X68978628Y50457143D01*
X68788152Y49028572D02*
X69454819Y49028572D01*
X68407200Y49266667D02*
X69121485Y49504762D01*
X69121485Y49504762D02*
X69121485Y48885715D01*
X30354819Y-4391666D02*
X31069104Y-4391666D01*
X31069104Y-4391666D02*
X31211961Y-4344047D01*
X31211961Y-4344047D02*
X31307200Y-4248809D01*
X31307200Y-4248809D02*
X31354819Y-4105952D01*
X31354819Y-4105952D02*
X31354819Y-4010714D01*
X30688152Y-5296428D02*
X31354819Y-5296428D01*
X30307200Y-5058333D02*
X31021485Y-4820238D01*
X31021485Y-4820238D02*
X31021485Y-5439285D01*
X103633333Y57045181D02*
X103633333Y56330896D01*
X103633333Y56330896D02*
X103680952Y56188039D01*
X103680952Y56188039D02*
X103776190Y56092800D01*
X103776190Y56092800D02*
X103919047Y56045181D01*
X103919047Y56045181D02*
X104014285Y56045181D01*
X103014285Y56616610D02*
X103109523Y56664229D01*
X103109523Y56664229D02*
X103157142Y56711848D01*
X103157142Y56711848D02*
X103204761Y56807086D01*
X103204761Y56807086D02*
X103204761Y56854705D01*
X103204761Y56854705D02*
X103157142Y56949943D01*
X103157142Y56949943D02*
X103109523Y56997562D01*
X103109523Y56997562D02*
X103014285Y57045181D01*
X103014285Y57045181D02*
X102823809Y57045181D01*
X102823809Y57045181D02*
X102728571Y56997562D01*
X102728571Y56997562D02*
X102680952Y56949943D01*
X102680952Y56949943D02*
X102633333Y56854705D01*
X102633333Y56854705D02*
X102633333Y56807086D01*
X102633333Y56807086D02*
X102680952Y56711848D01*
X102680952Y56711848D02*
X102728571Y56664229D01*
X102728571Y56664229D02*
X102823809Y56616610D01*
X102823809Y56616610D02*
X103014285Y56616610D01*
X103014285Y56616610D02*
X103109523Y56568991D01*
X103109523Y56568991D02*
X103157142Y56521372D01*
X103157142Y56521372D02*
X103204761Y56426134D01*
X103204761Y56426134D02*
X103204761Y56235658D01*
X103204761Y56235658D02*
X103157142Y56140420D01*
X103157142Y56140420D02*
X103109523Y56092800D01*
X103109523Y56092800D02*
X103014285Y56045181D01*
X103014285Y56045181D02*
X102823809Y56045181D01*
X102823809Y56045181D02*
X102728571Y56092800D01*
X102728571Y56092800D02*
X102680952Y56140420D01*
X102680952Y56140420D02*
X102633333Y56235658D01*
X102633333Y56235658D02*
X102633333Y56426134D01*
X102633333Y56426134D02*
X102680952Y56521372D01*
X102680952Y56521372D02*
X102728571Y56568991D01*
X102728571Y56568991D02*
X102823809Y56616610D01*
X30822723Y88069781D02*
X30822723Y87355496D01*
X30822723Y87355496D02*
X30870342Y87212639D01*
X30870342Y87212639D02*
X30965580Y87117400D01*
X30965580Y87117400D02*
X31108437Y87069781D01*
X31108437Y87069781D02*
X31203675Y87069781D01*
X29822723Y87069781D02*
X30394151Y87069781D01*
X30108437Y87069781D02*
X30108437Y88069781D01*
X30108437Y88069781D02*
X30203675Y87926924D01*
X30203675Y87926924D02*
X30298913Y87831686D01*
X30298913Y87831686D02*
X30394151Y87784067D01*
X28917961Y88069781D02*
X29394151Y88069781D01*
X29394151Y88069781D02*
X29441770Y87593591D01*
X29441770Y87593591D02*
X29394151Y87641210D01*
X29394151Y87641210D02*
X29298913Y87688829D01*
X29298913Y87688829D02*
X29060818Y87688829D01*
X29060818Y87688829D02*
X28965580Y87641210D01*
X28965580Y87641210D02*
X28917961Y87593591D01*
X28917961Y87593591D02*
X28870342Y87498353D01*
X28870342Y87498353D02*
X28870342Y87260258D01*
X28870342Y87260258D02*
X28917961Y87165020D01*
X28917961Y87165020D02*
X28965580Y87117400D01*
X28965580Y87117400D02*
X29060818Y87069781D01*
X29060818Y87069781D02*
X29298913Y87069781D01*
X29298913Y87069781D02*
X29394151Y87117400D01*
X29394151Y87117400D02*
X29441770Y87165020D01*
D11*
X28260000Y17350000D02*
X28260000Y18680000D01*
X29590000Y17350000D02*
X28260000Y17350000D01*
X30860000Y17350000D02*
X79180000Y17350000D01*
X30860000Y17350000D02*
X30860000Y19950000D01*
X79180000Y17350000D02*
X79180000Y22550000D01*
X28260000Y19950000D02*
X28260000Y22550000D01*
X30860000Y19950000D02*
X28260000Y19950000D01*
X28260000Y22550000D02*
X79180000Y22550000D01*
D12*
X26220000Y-50000D02*
X81220000Y-50000D01*
X81220000Y-50000D02*
X81220000Y39950000D01*
X81220000Y39950000D02*
X26220000Y39950000D01*
X26220000Y39950000D02*
X26220000Y-50000D01*
D11*
X92295000Y36170000D02*
X94955000Y36170000D01*
X92295000Y28490000D02*
X92295000Y36170000D01*
X92295000Y28490000D02*
X94955000Y28490000D01*
X92295000Y27220000D02*
X92295000Y25890000D01*
X92295000Y25890000D02*
X93625000Y25890000D01*
X94955000Y28490000D02*
X94955000Y36170000D01*
X113805000Y65150000D02*
X113805000Y63880000D01*
X113805000Y63880000D02*
X115075000Y63880000D01*
X116117929Y68070000D02*
X116515000Y68070000D01*
X116117929Y67310000D02*
X116515000Y67310000D01*
X116185000Y65530000D02*
X116515000Y65530000D01*
X116185000Y64770000D02*
X116515000Y64770000D01*
X116515000Y69020000D02*
X119175000Y69020000D01*
X116515000Y66420000D02*
X119175000Y66420000D01*
X116515000Y63820000D02*
X116515000Y69020000D01*
X119175000Y69020000D02*
X119175000Y63820000D01*
X119175000Y67310000D02*
X125175000Y67310000D01*
X119175000Y65430000D02*
X125175000Y65430000D01*
X119175000Y65310000D02*
X125175000Y65310000D01*
X119175000Y65190000D02*
X125175000Y65190000D01*
X119175000Y65070000D02*
X125175000Y65070000D01*
X119175000Y64950000D02*
X125175000Y64950000D01*
X119175000Y64830000D02*
X125175000Y64830000D01*
X119175000Y64770000D02*
X125175000Y64770000D01*
X119175000Y63820000D02*
X116515000Y63820000D01*
X125175000Y68070000D02*
X119175000Y68070000D01*
X125175000Y67310000D02*
X125175000Y68070000D01*
X125175000Y65530000D02*
X119175000Y65530000D01*
X125175000Y64770000D02*
X125175000Y65530000D01*
D12*
X107914753Y74993752D02*
G75*
G03*
X107914753Y74993752I-914753J0D01*
G01*
X107914400Y77000000D02*
G75*
G03*
X107914400Y77000000I-914400J0D01*
G01*
D11*
X66700000Y48700000D02*
X67300000Y48700000D01*
X68000000Y49400000D02*
X68000000Y50800000D01*
X66000000Y50800000D02*
X66000000Y49400000D01*
X67300000Y51500000D02*
X66700000Y51500000D01*
X66000000Y49400000D02*
G75*
G03*
X66700000Y48700000I699999J-1D01*
G01*
X67300000Y48700000D02*
G75*
G03*
X68000000Y49400000I1J699999D01*
G01*
X66700000Y51500000D02*
G75*
G03*
X66000000Y50800000I0J-700000D01*
G01*
X68000000Y50800000D02*
G75*
G03*
X67300000Y51500000I-700000J0D01*
G01*
X60300000Y65500000D02*
X59900000Y65500000D01*
X62900000Y65500000D02*
X62500000Y65500000D01*
X65400000Y65500000D02*
X65000000Y65500000D01*
X67900000Y65500000D02*
X67500000Y65500000D01*
X70500000Y65500000D02*
X70100000Y65500000D01*
X73000000Y65500000D02*
X72600000Y65500000D01*
X75600000Y65500000D02*
X75200000Y65500000D01*
X78100000Y65500000D02*
X77700000Y65500000D01*
X80700000Y65500000D02*
X80300000Y65500000D01*
X83200000Y65500000D02*
X82800000Y65500000D01*
X85700000Y65500000D02*
X85300000Y65500000D01*
X88300000Y65500000D02*
X87900000Y65500000D01*
X90800000Y65500000D02*
X90400000Y65500000D01*
X93400000Y65500000D02*
X93000000Y65500000D01*
X95900000Y65500000D02*
X95500000Y65500000D01*
X98400000Y65500000D02*
X98000000Y65500000D01*
X101000000Y65500000D02*
X100600000Y65500000D01*
X103500000Y65500000D02*
X103100000Y65500000D01*
X105833000Y65500000D02*
X105833000Y68507000D01*
X106100000Y65500000D02*
X105700000Y65500000D01*
X108500000Y65500000D02*
X108200000Y65500000D01*
X105833000Y68507000D02*
X108500000Y68507000D01*
X57500000Y72300000D02*
X57500000Y65500000D01*
X57500000Y74500000D02*
X57500000Y74900000D01*
X57500000Y77100000D02*
X57500000Y77500000D01*
X57500000Y86500000D02*
X57500000Y79700000D01*
X60300000Y86500000D02*
X59900000Y86500000D01*
X62900000Y86500000D02*
X62500000Y86500000D01*
X65400000Y86500000D02*
X65000000Y86500000D01*
X67900000Y86500000D02*
X67500000Y86500000D01*
X70500000Y86500000D02*
X70100000Y86500000D01*
X73000000Y86500000D02*
X72600000Y86500000D01*
X75600000Y86500000D02*
X75200000Y86500000D01*
X78100000Y86500000D02*
X77700000Y86500000D01*
X80700000Y86500000D02*
X80300000Y86500000D01*
X83200000Y86500000D02*
X82800000Y86500000D01*
X85700000Y86500000D02*
X85300000Y86500000D01*
X88300000Y86500000D02*
X87900000Y86500000D01*
X90800000Y86500000D02*
X90400000Y86500000D01*
X93400000Y86500000D02*
X93000000Y86500000D01*
X95900000Y86500000D02*
X95500000Y86500000D01*
X98400000Y86500000D02*
X98000000Y86500000D01*
X101000000Y86500000D02*
X100600000Y86500000D01*
X103500000Y86500000D02*
X103100000Y86500000D01*
X106100000Y86500000D02*
X105700000Y86500000D01*
X108500000Y86500000D02*
X108200000Y86500000D01*
X64200000Y48700000D02*
X64800000Y48700000D01*
X65500000Y49400000D02*
X65500000Y50800000D01*
X63500000Y50800000D02*
X63500000Y49400000D01*
X64800000Y51500000D02*
X64200000Y51500000D01*
X63500000Y49400000D02*
G75*
G03*
X64200000Y48700000I699999J-1D01*
G01*
X64800000Y48700000D02*
G75*
G03*
X65500000Y49400000I1J699999D01*
G01*
X64200000Y51500000D02*
G75*
G03*
X63500000Y50800000I0J-700000D01*
G01*
X65500000Y50800000D02*
G75*
G03*
X64800000Y51500000I-700000J0D01*
G01*
X17630000Y-4225000D02*
X17630000Y-5495000D01*
X17630000Y-5495000D02*
X18900000Y-5495000D01*
X19942929Y1235000D02*
X20340000Y1235000D01*
X19942929Y475000D02*
X20340000Y475000D01*
X19942929Y-1305000D02*
X20340000Y-1305000D01*
X19942929Y-2065000D02*
X20340000Y-2065000D01*
X20010000Y-3845000D02*
X20340000Y-3845000D01*
X20010000Y-4605000D02*
X20340000Y-4605000D01*
X20340000Y2185000D02*
X23000000Y2185000D01*
X20340000Y-415000D02*
X23000000Y-415000D01*
X20340000Y-2955000D02*
X23000000Y-2955000D01*
X20340000Y-5555000D02*
X20340000Y2185000D01*
X23000000Y2185000D02*
X23000000Y-5555000D01*
X23000000Y475000D02*
X29000000Y475000D01*
X23000000Y-2065000D02*
X29000000Y-2065000D01*
X23000000Y-3945000D02*
X29000000Y-3945000D01*
X23000000Y-4065000D02*
X29000000Y-4065000D01*
X23000000Y-4185000D02*
X29000000Y-4185000D01*
X23000000Y-4305000D02*
X29000000Y-4305000D01*
X23000000Y-4425000D02*
X29000000Y-4425000D01*
X23000000Y-4545000D02*
X29000000Y-4545000D01*
X23000000Y-4605000D02*
X29000000Y-4605000D01*
X23000000Y-5555000D02*
X20340000Y-5555000D01*
X29000000Y1235000D02*
X23000000Y1235000D01*
X29000000Y475000D02*
X29000000Y1235000D01*
X29000000Y-1305000D02*
X23000000Y-1305000D01*
X29000000Y-2065000D02*
X29000000Y-1305000D01*
X29000000Y-3845000D02*
X23000000Y-3845000D01*
X29000000Y-4605000D02*
X29000000Y-3845000D01*
D12*
X151480000Y61494400D02*
X151480000Y3494400D01*
X147730000Y-5600D02*
X147980000Y-5600D01*
D11*
X138790000Y1979400D02*
X138790000Y7179400D01*
X137885000Y48884400D02*
X137885000Y43744400D01*
X137885000Y51484400D02*
X137885000Y50154400D01*
X136555000Y51484400D02*
X137885000Y51484400D01*
X135285000Y48884400D02*
X137885000Y48884400D01*
X135285000Y51484400D02*
X135285000Y48884400D01*
X133650000Y4579400D02*
X133650000Y7179400D01*
X133650000Y7179400D02*
X138790000Y7179400D01*
X132685000Y43744400D02*
X137885000Y43744400D01*
X132685000Y51484400D02*
X135285000Y51484400D01*
X132685000Y51484400D02*
X132685000Y43744400D01*
X131050000Y1979400D02*
X138790000Y1979400D01*
X131050000Y1979400D02*
X131050000Y4579400D01*
X131050000Y4579400D02*
X133650000Y4579400D01*
X131050000Y5849400D02*
X131050000Y7179400D01*
X131050000Y7179400D02*
X132380000Y7179400D01*
X101580000Y55354400D02*
X101580000Y7034400D01*
X101580000Y57954400D02*
X101580000Y56624400D01*
X100250000Y57954400D02*
X101580000Y57954400D01*
X98980000Y55354400D02*
X101580000Y55354400D01*
X98980000Y57954400D02*
X98980000Y55354400D01*
D12*
X98980000Y64994400D02*
X147980000Y64994400D01*
X98980000Y64994400D02*
X98480000Y64994757D01*
X98230000Y-5600D02*
X147730000Y-5600D01*
D11*
X96380000Y7034400D02*
X101580000Y7034400D01*
X96380000Y57954400D02*
X98980000Y57954400D01*
X96380000Y57954400D02*
X96380000Y7034400D01*
D12*
X94980000Y3494400D02*
X94980000Y61444400D01*
X147980000Y-5600D02*
G75*
G03*
X151480000Y3494400I1J3499999D01*
G01*
X151480000Y61494400D02*
G75*
G03*
X147980000Y64994400I-3499999J1D01*
G01*
X94980000Y3494400D02*
G75*
G03*
X98480000Y-5600I3500000J0D01*
G01*
X98480000Y64994757D02*
G75*
G03*
X94980000Y61444400I0J-3500357D01*
G01*
X149631000Y3494400D02*
G75*
G03*
X149631000Y3494400I-1651000J0D01*
G01*
X149631000Y61494400D02*
G75*
G03*
X149631000Y61494400I-1651000J0D01*
G01*
X100631000Y3494400D02*
G75*
G03*
X100631000Y3494400I-1651000J0D01*
G01*
X100631000Y61494400D02*
G75*
G03*
X100631000Y61494400I-1651000J0D01*
G01*
D11*
X23580000Y80075000D02*
X23580000Y78805000D01*
X23580000Y78805000D02*
X24850000Y78805000D01*
X25892929Y85535000D02*
X26347071Y85535000D01*
X25892929Y84775000D02*
X26347071Y84775000D01*
X25892929Y82995000D02*
X26347071Y82995000D01*
X25892929Y82235000D02*
X26347071Y82235000D01*
X25960000Y80455000D02*
X26347071Y80455000D01*
X25960000Y79695000D02*
X26347071Y79695000D01*
X28432929Y85535000D02*
X28830000Y85535000D01*
X28432929Y84775000D02*
X28830000Y84775000D01*
X28432929Y82995000D02*
X28830000Y82995000D01*
X28432929Y82235000D02*
X28830000Y82235000D01*
X28432929Y80455000D02*
X28830000Y80455000D01*
X28432929Y79695000D02*
X28830000Y79695000D01*
X28830000Y86485000D02*
X31490000Y86485000D01*
X28830000Y83885000D02*
X31490000Y83885000D01*
X28830000Y81345000D02*
X31490000Y81345000D01*
X28830000Y78745000D02*
X28830000Y86485000D01*
X31490000Y86485000D02*
X31490000Y78745000D01*
X31490000Y84775000D02*
X37490000Y84775000D01*
X31490000Y82235000D02*
X37490000Y82235000D01*
X31490000Y80355000D02*
X37490000Y80355000D01*
X31490000Y80235000D02*
X37490000Y80235000D01*
X31490000Y80115000D02*
X37490000Y80115000D01*
X31490000Y79995000D02*
X37490000Y79995000D01*
X31490000Y79875000D02*
X37490000Y79875000D01*
X31490000Y79755000D02*
X37490000Y79755000D01*
X31490000Y79695000D02*
X37490000Y79695000D01*
X31490000Y78745000D02*
X28830000Y78745000D01*
X37490000Y85535000D02*
X31490000Y85535000D01*
X37490000Y84775000D02*
X37490000Y85535000D01*
X37490000Y82995000D02*
X31490000Y82995000D01*
X37490000Y82235000D02*
X37490000Y82995000D01*
X37490000Y80455000D02*
X31490000Y80455000D01*
X37490000Y79695000D02*
X37490000Y80455000D01*
M02*
