G04 #@! TF.GenerationSoftware,KiCad,Pcbnew,7.0.7-7.0.7~ubuntu23.04.1*
G04 #@! TF.CreationDate,2023-10-12T21:24:16+00:00*
G04 #@! TF.ProjectId,pedalboard-hw,70656461-6c62-46f6-9172-642d68772e6b,3.0.0-RC1*
G04 #@! TF.SameCoordinates,Original*
G04 #@! TF.FileFunction,Profile,NP*
%FSLAX46Y46*%
G04 Gerber Fmt 4.6, Leading zero omitted, Abs format (unit mm)*
G04 Created by KiCad (PCBNEW 7.0.7-7.0.7~ubuntu23.04.1) date 2023-10-12 21:24:16*
%MOMM*%
%LPD*%
G01*
G04 APERTURE LIST*
G04 #@! TA.AperFunction,Profile*
%ADD10C,0.100000*%
G04 #@! TD*
G04 APERTURE END LIST*
D10*
X98200000Y105000000D02*
X170000000Y105000000D01*
X-2000000Y-5000000D02*
X-2000000Y104000000D01*
X-1000000Y-6000000D02*
X170000000Y-6000000D01*
X-1000000Y104999999D02*
G75*
G03*
X-1999999Y104000000I50900J-1050899D01*
G01*
X93800000Y104000000D02*
G75*
G03*
X94200000Y103600000I400000J0D01*
G01*
X-2000000Y-5000000D02*
G75*
G03*
X-1000000Y-6000000I1000000J0D01*
G01*
X71800000Y104000000D02*
G75*
G03*
X72200000Y103600000I400000J0D01*
G01*
X94200000Y103600000D02*
X97799998Y103599998D01*
X171000000Y104000000D02*
X171000000Y-5000000D01*
X93800000Y105000000D02*
X93800000Y104000000D01*
X76200000Y104000000D02*
X76200000Y105000000D01*
X76200000Y105000000D02*
X93800000Y105000000D01*
X171000000Y104000000D02*
G75*
G03*
X170000000Y105000000I-1000000J0D01*
G01*
X75800000Y103600000D02*
G75*
G03*
X76200000Y104000000I0J400000D01*
G01*
X71800000Y105000000D02*
X71800000Y104000000D01*
X72200000Y103600000D02*
X75800000Y103600000D01*
X71800000Y105000000D02*
X-1000000Y105000000D01*
X170000000Y-6000000D02*
G75*
G03*
X171000000Y-5000000I0J1000000D01*
G01*
X97799998Y103600000D02*
G75*
G03*
X98200000Y104000000I2J400000D01*
G01*
X98200000Y104000000D02*
X98200000Y105000000D01*
M02*
