M48
; DRILL file {KiCad 7.0.7-7.0.7~ubuntu23.04.1} date Thu Oct 12 22:39:50 2023
; FORMAT={-:-/ absolute / metric / decimal}
; #@! TF.CreationDate,2023-10-12T22:39:50+00:00
; #@! TF.GenerationSoftware,Kicad,Pcbnew,7.0.7-7.0.7~ubuntu23.04.1
; #@! TF.FileFunction,MixedPlating,1,2
FMAT,2
METRIC
; #@! TA.AperFunction,Plated,PTH,ViaDrill
T1C0.400
; #@! TA.AperFunction,Plated,PTH,ComponentDrill
T2C0.400
; #@! TA.AperFunction,Plated,PTH,ComponentDrill
T3C0.508
; #@! TA.AperFunction,Plated,PTH,ViaDrill
T4C0.800
; #@! TA.AperFunction,Plated,PTH,ComponentDrill
T5C0.800
; #@! TA.AperFunction,Plated,PTH,ComponentDrill
T6C0.950
; #@! TA.AperFunction,Plated,PTH,ComponentDrill
T7C1.000
; #@! TA.AperFunction,Plated,PTH,ComponentDrill
T8C1.020
; #@! TA.AperFunction,Plated,PTH,ComponentDrill
T9C1.321
; #@! TA.AperFunction,Plated,PTH,ComponentDrill
T10C1.400
; #@! TA.AperFunction,Plated,PTH,ComponentDrill
T11C1.500
; #@! TA.AperFunction,Plated,PTH,ComponentDrill
T12C2.600
; #@! TA.AperFunction,NonPlated,NPTH,ComponentDrill
T13C0.500
; #@! TA.AperFunction,NonPlated,NPTH,ComponentDrill
T14C1.200
; #@! TA.AperFunction,NonPlated,NPTH,ComponentDrill
T15C2.700
; #@! TA.AperFunction,NonPlated,NPTH,ComponentDrill
T16C3.700
%
G90
G05
T1
X6.194Y61.494
X6.194Y9.494
X17.794Y61.494
X18.994Y8.394
X21.094Y5.294
X25.094Y15.794
X25.794Y9.494
X26.645Y29.194
X27.37Y30.794
X28.394Y104.894
X30.244Y104.894
X38.544Y97.369
X49.194Y86.994
X50.994Y81.394
X54.994Y84.794
X57.49Y82.049
X61.107Y84.207
X74.094Y86.994
X75.994Y81.394
X81.194Y61.394
X81.194Y9.494
X91.544Y15.194
X92.794Y61.094
X92.794Y9.494
X96.794Y14.094
X99.194Y86.994
X100.994Y81.394
X113.494Y88.294
X113.519Y89.869
X124.244Y86.994
X125.994Y81.394
X126.394Y74.494
X128.594Y75.994
X128.594Y73.094
X130.794Y74.494
X131.694Y85.894
X131.694Y83.594
X152.582Y13.482
X156.194Y61.594
X156.194Y9.494
X160.794Y37.194
X167.794Y61.494
X167.794Y9.544
T3
X108.994Y82.994
X108.994Y80.994
T4
X60.194Y80.994
X63.494Y84.694
X109.994Y67.994
X112.594Y85.394
T5
X10.994Y74.994
X10.994Y72.994
X10.994Y2.994
X10.994Y0.994
X12.994Y74.994
X12.994Y72.994
X12.994Y2.994
X12.994Y0.994
X85.994Y54.994
X85.994Y52.994
X85.994Y22.994
X85.994Y20.994
X87.994Y54.994
X87.994Y52.994
X87.994Y22.994
X87.994Y20.994
X160.994Y74.994
X160.994Y72.994
X160.994Y2.994
X160.994Y0.994
X162.994Y74.994
X162.994Y72.994
X162.994Y2.994
X162.994Y0.994
T6
X19.894Y3.894
X22.394Y3.894
X24.894Y3.894
X26.594Y102.519
X26.594Y94.769
X29.094Y102.519
X29.094Y94.769
X31.594Y102.519
X31.594Y94.769
T7
X31.584Y27.214
X31.584Y24.674
X34.124Y27.214
X34.124Y24.674
X36.664Y27.214
X36.664Y24.674
X39.204Y27.214
X39.204Y24.674
X41.744Y27.214
X41.744Y24.674
X42.244Y99.494
X42.244Y96.994
X42.244Y94.494
X44.284Y27.214
X44.284Y24.674
X46.824Y27.214
X46.824Y24.674
X49.364Y27.214
X49.364Y24.674
X51.904Y27.214
X51.904Y24.674
X54.444Y27.214
X54.444Y24.674
X56.744Y99.494
X56.744Y94.494
X56.984Y27.214
X56.984Y24.674
X59.524Y27.214
X59.524Y24.674
X62.064Y27.214
X62.064Y24.674
X64.604Y27.214
X64.604Y24.674
X67.144Y27.214
X67.144Y24.674
X69.684Y27.214
X69.684Y24.674
X72.224Y27.214
X72.224Y24.674
X74.764Y27.214
X74.764Y24.674
X77.304Y27.214
X77.304Y24.674
X79.844Y27.214
X79.844Y24.674
X95.619Y40.834
X95.619Y38.294
X95.619Y35.754
X95.619Y33.214
X99.704Y62.619
X99.704Y60.079
X99.704Y57.539
X99.704Y54.999
X99.704Y52.459
X99.704Y49.919
X99.704Y47.379
X99.704Y44.839
X99.704Y42.299
X99.704Y39.759
X99.704Y37.219
X99.704Y34.679
X99.704Y32.139
X99.704Y29.599
X99.704Y27.059
X99.704Y24.519
X99.704Y21.979
X99.704Y19.439
X99.704Y16.899
X99.704Y14.359
X102.244Y62.619
X102.244Y60.079
X102.244Y57.539
X102.244Y54.999
X102.244Y52.459
X102.244Y49.919
X102.244Y47.379
X102.244Y44.839
X102.244Y42.299
X102.244Y39.759
X102.244Y37.219
X102.244Y34.679
X102.244Y32.139
X102.244Y29.599
X102.244Y27.059
X102.244Y24.519
X102.244Y21.979
X102.244Y19.439
X102.244Y16.899
X102.244Y14.359
X117.069Y73.684
X117.069Y71.144
X117.244Y99.494
X117.244Y96.994
X117.244Y94.494
X131.744Y99.494
X131.744Y94.494
X134.374Y11.844
X134.374Y9.304
X136.009Y56.149
X136.009Y53.609
X136.009Y51.069
X136.914Y11.844
X136.914Y9.304
X138.549Y56.149
X138.549Y53.609
X138.549Y51.069
X139.454Y11.844
X139.454Y9.304
T8
X60.864Y90.884
X60.864Y73.104
X63.404Y90.884
X63.404Y73.104
X65.944Y90.884
X65.944Y73.104
X68.484Y90.884
X68.484Y73.104
X71.024Y90.884
X71.024Y73.104
X73.564Y90.884
X73.564Y73.104
X76.104Y90.884
X76.104Y73.104
X78.644Y90.884
X78.644Y73.104
X81.184Y90.884
X81.184Y73.104
X83.724Y90.884
X83.724Y73.104
X86.264Y90.884
X86.264Y73.104
X88.804Y90.884
X88.804Y73.104
X91.344Y90.884
X91.344Y73.104
X93.884Y90.884
X93.884Y73.104
X96.424Y90.884
X96.424Y73.104
X98.964Y90.884
X98.964Y73.104
X101.504Y90.884
X101.504Y73.104
X104.044Y90.884
X104.044Y73.104
X106.584Y90.884
X106.584Y73.104
X109.124Y90.884
X109.124Y73.104
T9
X68.5Y98.994
X71.0Y108.994
X71.0Y96.494
X73.5Y108.994
X76.0Y98.994
X78.5Y108.994
X81.0Y108.994
X81.0Y96.494
X83.5Y98.994
X90.494Y98.994
X92.994Y108.994
X92.994Y96.494
X95.494Y108.994
X97.994Y98.994
X100.494Y108.994
X102.994Y108.994
X102.994Y96.494
X105.494Y98.994
T10
X3.694Y36.024
X3.694Y19.794
X3.729Y56.224
X3.729Y39.994
X10.044Y36.024
X10.044Y19.794
X10.079Y56.224
X10.079Y39.994
X16.394Y36.024
X16.394Y19.794
X16.429Y56.224
X16.429Y39.994
X157.594Y56.214
X157.594Y39.984
X157.594Y35.999
X157.594Y19.769
X157.609Y97.194
X157.609Y80.964
X163.944Y56.214
X163.944Y39.984
X163.944Y35.999
X163.944Y19.769
X163.959Y97.194
X163.959Y80.964
X170.294Y56.214
X170.294Y39.984
X170.294Y35.999
X170.294Y19.769
X170.309Y97.194
X170.309Y80.964
T11
X107.204Y65.159
X107.204Y54.999
X107.204Y44.839
X127.524Y57.539
X127.524Y52.459
X127.524Y44.839
T12
X49.744Y102.594
X49.744Y91.394
X124.744Y102.594
X124.744Y91.394
T13
X62.094Y109.919
X62.094Y108.919
X62.094Y107.919
X62.094Y106.919
X62.094Y105.919
X62.094Y104.919
X62.094Y100.919
X62.094Y99.919
X62.094Y98.919
X62.094Y97.919
X62.094Y96.919
X62.094Y95.919
X62.094Y94.919
X63.094Y94.919
X64.094Y94.919
X65.094Y94.919
X66.094Y94.919
X67.094Y94.919
X68.094Y94.919
X69.094Y94.919
X70.094Y94.919
X72.094Y94.919
X73.094Y94.919
X74.094Y94.919
X75.094Y94.919
X76.094Y94.919
X77.094Y94.919
X78.094Y94.919
X79.094Y94.919
X80.094Y94.919
X82.094Y94.919
X83.094Y94.919
X84.094Y94.919
X85.094Y94.919
X86.094Y94.919
X87.094Y94.919
X88.094Y94.919
X89.094Y94.919
X90.094Y94.919
X91.094Y94.919
X92.094Y94.919
X94.094Y94.919
X95.094Y94.919
X96.094Y94.919
X97.094Y94.919
X98.094Y94.919
X99.094Y94.919
X100.094Y94.919
X101.094Y94.919
X102.094Y94.919
X104.094Y94.919
X105.094Y94.919
X106.094Y94.919
X107.094Y94.919
X108.094Y94.919
X109.094Y94.919
X110.094Y94.919
X111.094Y94.919
X112.094Y109.919
X112.094Y108.919
X112.094Y107.919
X112.094Y106.919
X112.094Y105.919
X112.094Y104.919
X112.094Y103.919
X112.094Y102.919
X112.094Y101.919
X112.094Y100.919
X112.094Y99.919
X112.094Y98.919
X112.094Y97.919
X112.094Y96.919
X112.094Y95.919
X112.094Y94.919
T14
X70.994Y106.494
X75.994Y101.494
X80.994Y106.494
X92.994Y106.494
X97.994Y101.494
X102.994Y106.494
T15
X3.144Y107.994
X100.894Y67.429
X100.974Y9.474
X170.994Y107.994
T16
X11.994Y63.994
X11.994Y11.994
X86.994Y63.994
X86.994Y11.994
X161.994Y63.994
X161.994Y11.994
T2
G00X70.994Y101.994
M15
G01X70.994Y100.994
M16
G05
G00X73.494Y101.994
M15
G01X73.494Y100.994
M16
G05
G00X76.494Y106.494
M15
G01X75.494Y106.494
M16
G05
G00X78.494Y100.994
M15
G01X78.494Y101.994
M16
G05
G00X80.994Y100.994
M15
G01X80.994Y101.994
M16
G05
G00X92.994Y101.994
M15
G01X92.994Y100.994
M16
G05
G00X95.494Y101.994
M15
G01X95.494Y100.994
M16
G05
G00X98.494Y106.494
M15
G01X97.494Y106.494
M16
G05
G00X100.494Y100.994
M15
G01X100.494Y101.994
M16
G05
G00X102.994Y100.994
M15
G01X102.994Y101.994
M16
G05
T5
G00X156.594Y104.694
M15
G01X156.594Y102.494
M16
G05
G00X162.494Y106.394
M15
G01X160.294Y106.394
M16
G05
G00X162.694Y100.594
M15
G01X160.094Y100.594
M16
G05
T0
M30
