M48
; DRILL file {KiCad 7.0.7-7.0.7~ubuntu23.04.1} date Thu Oct 12 20:18:36 2023
; FORMAT={-:-/ absolute / metric / decimal}
; #@! TF.CreationDate,2023-10-12T20:18:36+00:00
; #@! TF.GenerationSoftware,Kicad,Pcbnew,7.0.7-7.0.7~ubuntu23.04.1
; #@! TF.FileFunction,MixedPlating,1,2
FMAT,2
METRIC
; #@! TA.AperFunction,Plated,PTH,ViaDrill
T1C0.400
; #@! TA.AperFunction,Plated,PTH,ComponentDrill
T2C0.400
; #@! TA.AperFunction,Plated,PTH,ComponentDrill
T3C0.508
; #@! TA.AperFunction,Plated,PTH,ViaDrill
T4C0.800
; #@! TA.AperFunction,Plated,PTH,ComponentDrill
T5C0.800
; #@! TA.AperFunction,Plated,PTH,ComponentDrill
T6C1.000
; #@! TA.AperFunction,Plated,PTH,ComponentDrill
T7C1.020
; #@! TA.AperFunction,Plated,PTH,ComponentDrill
T8C1.321
; #@! TA.AperFunction,Plated,PTH,ComponentDrill
T9C1.400
; #@! TA.AperFunction,Plated,PTH,ComponentDrill
T10C1.500
; #@! TA.AperFunction,Plated,PTH,ComponentDrill
T11C2.600
; #@! TA.AperFunction,NonPlated,NPTH,ComponentDrill
T12C0.500
; #@! TA.AperFunction,NonPlated,NPTH,ComponentDrill
T13C1.200
; #@! TA.AperFunction,NonPlated,NPTH,ComponentDrill
T14C2.700
; #@! TA.AperFunction,NonPlated,NPTH,ComponentDrill
T15C3.700
%
G90
G05
T1
X4.2Y55.5
X4.2Y3.5
X15.8Y55.5
X17.0Y2.4
X20.0Y83.2
X21.4Y-1.7
X23.1Y9.8
X23.8Y3.5
X24.175Y22.728
X24.9Y24.4
X36.55Y91.375
X47.2Y81.0
X49.0Y75.4
X53.0Y78.8
X55.496Y76.054
X59.112Y78.212
X72.1Y81.0
X74.0Y75.4
X79.2Y55.4
X79.2Y3.5
X89.55Y9.2
X90.8Y55.1
X90.8Y3.5
X91.9Y6.8
X97.2Y81.0
X99.0Y75.4
X111.5Y82.3
X111.525Y83.875
X122.25Y81.0
X124.0Y75.4
X124.4Y68.5
X126.6Y70.0
X126.6Y67.1
X128.8Y68.5
X129.7Y79.9
X129.7Y77.6
X150.588Y7.488
X154.2Y55.6
X154.2Y3.5
X158.8Y31.2
X165.8Y55.5
X165.8Y3.55
T3
X107.0Y77.0
X107.0Y75.0
T4
X58.2Y75.0
X61.5Y78.7
X79.1Y13.4
X108.0Y62.0
X110.6Y79.4
T5
X9.0Y69.0
X9.0Y67.0
X9.0Y-3.0
X9.0Y-5.0
X11.0Y69.0
X11.0Y67.0
X11.0Y-3.0
X11.0Y-5.0
X84.0Y49.0
X84.0Y47.0
X84.0Y17.0
X84.0Y15.0
X86.0Y49.0
X86.0Y47.0
X86.0Y17.0
X86.0Y15.0
X159.0Y69.0
X159.0Y67.0
X159.0Y-3.0
X159.0Y-5.0
X161.0Y69.0
X161.0Y67.0
X161.0Y-3.0
X161.0Y-5.0
T6
X18.9Y0.855
X18.9Y-1.685
X18.9Y-4.225
X24.85Y85.155
X24.85Y82.615
X24.85Y80.075
X27.39Y85.155
X27.39Y82.615
X27.39Y80.075
X29.59Y21.22
X29.59Y18.68
X32.13Y21.22
X32.13Y18.68
X34.67Y21.22
X34.67Y18.68
X37.21Y21.22
X37.21Y18.68
X39.75Y21.22
X39.75Y18.68
X40.25Y93.5
X40.25Y91.0
X40.25Y88.5
X42.29Y21.22
X42.29Y18.68
X44.83Y21.22
X44.83Y18.68
X47.37Y21.22
X47.37Y18.68
X49.91Y21.22
X49.91Y18.68
X52.45Y21.22
X52.45Y18.68
X54.75Y93.5
X54.75Y88.5
X54.99Y21.22
X54.99Y18.68
X57.53Y21.22
X57.53Y18.68
X60.07Y21.22
X60.07Y18.68
X62.61Y21.22
X62.61Y18.68
X65.15Y21.22
X65.15Y18.68
X67.69Y21.22
X67.69Y18.68
X70.23Y21.22
X70.23Y18.68
X72.77Y21.22
X72.77Y18.68
X75.31Y21.22
X75.31Y18.68
X77.85Y21.22
X77.85Y18.68
X93.625Y34.84
X93.625Y32.3
X93.625Y29.76
X93.625Y27.22
X97.71Y56.624
X97.71Y54.084
X97.71Y51.544
X97.71Y49.004
X97.71Y46.464
X97.71Y43.924
X97.71Y41.384
X97.71Y38.844
X97.71Y36.304
X97.71Y33.764
X97.71Y31.224
X97.71Y28.684
X97.71Y26.144
X97.71Y23.604
X97.71Y21.064
X97.71Y18.524
X97.71Y15.984
X97.71Y13.444
X97.71Y10.904
X97.71Y8.364
X100.25Y56.624
X100.25Y54.084
X100.25Y51.544
X100.25Y49.004
X100.25Y46.464
X100.25Y43.924
X100.25Y41.384
X100.25Y38.844
X100.25Y36.304
X100.25Y33.764
X100.25Y31.224
X100.25Y28.684
X100.25Y26.144
X100.25Y23.604
X100.25Y21.064
X100.25Y18.524
X100.25Y15.984
X100.25Y13.444
X100.25Y10.904
X100.25Y8.364
X115.075Y67.69
X115.075Y65.15
X115.25Y93.5
X115.25Y91.0
X115.25Y88.5
X129.75Y93.5
X129.75Y88.5
X132.38Y5.849
X132.38Y3.309
X134.015Y50.154
X134.015Y47.614
X134.015Y45.074
X134.92Y5.849
X134.92Y3.309
X136.555Y50.154
X136.555Y47.614
X136.555Y45.074
X137.46Y5.849
X137.46Y3.309
T7
X58.87Y84.89
X58.87Y67.11
X61.41Y84.89
X61.41Y67.11
X63.95Y84.89
X63.95Y67.11
X66.49Y84.89
X66.49Y67.11
X69.03Y84.89
X69.03Y67.11
X71.57Y84.89
X71.57Y67.11
X74.11Y84.89
X74.11Y67.11
X76.65Y84.89
X76.65Y67.11
X79.19Y84.89
X79.19Y67.11
X81.73Y84.89
X81.73Y67.11
X84.27Y84.89
X84.27Y67.11
X86.81Y84.89
X86.81Y67.11
X89.35Y84.89
X89.35Y67.11
X91.89Y84.89
X91.89Y67.11
X94.43Y84.89
X94.43Y67.11
X96.97Y84.89
X96.97Y67.11
X99.51Y84.89
X99.51Y67.11
X102.05Y84.89
X102.05Y67.11
X104.59Y84.89
X104.59Y67.11
X107.13Y84.89
X107.13Y67.11
T8
X66.505Y93.0
X69.005Y103.0
X69.005Y90.5
X71.505Y103.0
X74.005Y93.0
X76.505Y103.0
X79.005Y103.0
X79.005Y90.5
X81.505Y93.0
X88.5Y93.0
X91.0Y103.0
X91.0Y90.5
X93.5Y103.0
X96.0Y93.0
X98.5Y103.0
X101.0Y103.0
X101.0Y90.5
X103.5Y93.0
T9
X1.7Y30.03
X1.7Y13.8
X1.735Y50.23
X1.735Y34.0
X8.05Y30.03
X8.05Y13.8
X8.085Y50.23
X8.085Y34.0
X14.4Y30.03
X14.4Y13.8
X14.435Y50.23
X14.435Y34.0
X155.6Y50.22
X155.6Y33.99
X155.6Y30.005
X155.6Y13.775
X155.615Y91.2
X155.615Y74.97
X161.95Y50.22
X161.95Y33.99
X161.95Y30.005
X161.95Y13.775
X161.965Y91.2
X161.965Y74.97
X168.3Y50.22
X168.3Y33.99
X168.3Y30.005
X168.3Y13.775
X168.315Y91.2
X168.315Y74.97
T10
X105.21Y59.164
X105.21Y49.004
X105.21Y38.844
X125.53Y51.544
X125.53Y46.464
X125.53Y38.844
T11
X47.75Y96.6
X47.75Y85.4
X122.75Y96.6
X122.75Y85.4
T12
X60.1Y103.925
X60.1Y102.925
X60.1Y101.925
X60.1Y100.925
X60.1Y99.925
X60.1Y98.925
X60.1Y94.925
X60.1Y93.925
X60.1Y92.925
X60.1Y91.925
X60.1Y90.925
X60.1Y89.925
X60.1Y88.925
X61.1Y88.925
X62.1Y88.925
X63.1Y88.925
X64.1Y88.925
X65.1Y88.925
X66.1Y88.925
X67.1Y88.925
X68.1Y88.925
X70.1Y88.925
X71.1Y88.925
X72.1Y88.925
X73.1Y88.925
X74.1Y88.925
X75.1Y88.925
X76.1Y88.925
X77.1Y88.925
X78.1Y88.925
X80.1Y88.925
X81.1Y88.925
X82.1Y88.925
X83.1Y88.925
X84.1Y88.925
X85.1Y88.925
X86.1Y88.925
X87.1Y88.925
X88.1Y88.925
X89.1Y88.925
X90.1Y88.925
X92.1Y88.925
X93.1Y88.925
X94.1Y88.925
X95.1Y88.925
X96.1Y88.925
X97.1Y88.925
X98.1Y88.925
X99.1Y88.925
X100.1Y88.925
X102.1Y88.925
X103.1Y88.925
X104.1Y88.925
X105.1Y88.925
X106.1Y88.925
X107.1Y88.925
X108.1Y88.925
X109.1Y88.925
X110.1Y103.925
X110.1Y102.925
X110.1Y101.925
X110.1Y100.925
X110.1Y99.925
X110.1Y98.925
X110.1Y97.925
X110.1Y96.925
X110.1Y95.925
X110.1Y94.925
X110.1Y93.925
X110.1Y92.925
X110.1Y91.925
X110.1Y90.925
X110.1Y89.925
X110.1Y88.925
T13
X69.0Y100.5
X74.0Y95.5
X79.0Y100.5
X91.0Y100.5
X96.0Y95.5
X101.0Y100.5
T14
X57.0Y102.0
X98.9Y61.434
X98.98Y3.48
X113.0Y102.0
X148.0Y102.0
T15
X10.0Y58.0
X10.0Y6.0
X85.0Y58.0
X85.0Y6.0
X160.0Y58.0
X160.0Y6.0
T2
G00X69.0Y96.0
M15
G01X69.0Y95.0
M16
G05
G00X71.5Y96.0
M15
G01X71.5Y95.0
M16
G05
G00X74.5Y100.5
M15
G01X73.5Y100.5
M16
G05
G00X76.5Y95.0
M15
G01X76.5Y96.0
M16
G05
G00X79.0Y95.0
M15
G01X79.0Y96.0
M16
G05
G00X91.0Y96.0
M15
G01X91.0Y95.0
M16
G05
G00X93.5Y96.0
M15
G01X93.5Y95.0
M16
G05
G00X96.5Y100.5
M15
G01X95.5Y100.5
M16
G05
G00X98.5Y95.0
M15
G01X98.5Y96.0
M16
G05
G00X101.0Y95.0
M15
G01X101.0Y96.0
M16
G05
T5
G00X154.6Y98.7
M15
G01X154.6Y96.5
M16
G05
G00X160.5Y100.4
M15
G01X158.3Y100.4
M16
G05
G00X160.7Y94.6
M15
G01X158.1Y94.6
M16
G05
T0
M30
