G04 #@! TF.GenerationSoftware,KiCad,Pcbnew,7.0.7-7.0.7~ubuntu23.04.1*
G04 #@! TF.CreationDate,2023-10-13T21:05:22+00:00*
G04 #@! TF.ProjectId,pedalboard-hw,70656461-6c62-46f6-9172-642d68772e6b,3.0.0-RC1*
G04 #@! TF.SameCoordinates,Original*
G04 #@! TF.FileFunction,Soldermask,Top*
G04 #@! TF.FilePolarity,Negative*
%FSLAX46Y46*%
G04 Gerber Fmt 4.6, Leading zero omitted, Abs format (unit mm)*
G04 Created by KiCad (PCBNEW 7.0.7-7.0.7~ubuntu23.04.1) date 2023-10-13 21:05:22*
%MOMM*%
%LPD*%
G01*
G04 APERTURE LIST*
%ADD10C,0.010000*%
%ADD11O,1.200000X2.200000*%
%ADD12O,2.200000X1.200000*%
%ADD13C,3.000000*%
%ADD14R,4.400000X1.800000*%
%ADD15O,4.000000X1.800000*%
%ADD16O,1.800000X4.000000*%
%ADD17C,6.000000*%
%ADD18R,1.350000X1.350000*%
%ADD19O,1.350000X1.350000*%
%ADD20R,1.500000X1.000000*%
%ADD21R,2.250000X2.250000*%
%ADD22C,2.250000*%
%ADD23C,2.700000*%
%ADD24R,1.700000X1.700000*%
%ADD25O,1.700000X1.700000*%
%ADD26C,0.600000*%
%ADD27R,2.000000X1.800000*%
%ADD28R,2.000000X2.000000*%
%ADD29C,2.000000*%
%ADD30C,3.200000*%
%ADD31R,1.300000X0.800000*%
%ADD32C,1.350000*%
%ADD33O,1.700000X1.950000*%
G04 APERTURE END LIST*
D10*
X143294385Y105096015D02*
X142491705Y105096015D01*
X142491705Y107494385D01*
X143294385Y107494385D01*
X143294385Y105096015D01*
G36*
X143294385Y105096015D02*
G01*
X142491705Y105096015D01*
X142491705Y107494385D01*
X143294385Y107494385D01*
X143294385Y105096015D01*
G37*
X143294385Y99892945D02*
X142493515Y99892945D01*
X142493515Y102294385D01*
X143294385Y102294385D01*
X143294385Y99892945D01*
G36*
X143294385Y99892945D02*
G01*
X142493515Y99892945D01*
X142493515Y102294385D01*
X143294385Y102294385D01*
X143294385Y99892945D01*
G37*
X144544385Y105096945D02*
X143742465Y105096945D01*
X143742465Y107494385D01*
X144544385Y107494385D01*
X144544385Y105096945D01*
G36*
X144544385Y105096945D02*
G01*
X143742465Y105096945D01*
X143742465Y107494385D01*
X144544385Y107494385D01*
X144544385Y105096945D01*
G37*
X144544385Y99891595D02*
X143743615Y99891595D01*
X143743615Y102294385D01*
X144544385Y102294385D01*
X144544385Y99891595D01*
G36*
X144544385Y99891595D02*
G01*
X143743615Y99891595D01*
X143743615Y102294385D01*
X144544385Y102294385D01*
X144544385Y99891595D01*
G37*
X145844385Y105096385D02*
X145044742Y105096385D01*
X145044742Y107494385D01*
X145844385Y107494385D01*
X145844385Y105096385D01*
G36*
X145844385Y105096385D02*
G01*
X145044742Y105096385D01*
X145044742Y107494385D01*
X145844385Y107494385D01*
X145844385Y105096385D01*
G37*
X145844385Y99886925D02*
X145044875Y99886925D01*
X145044875Y102294385D01*
X145844385Y102294385D01*
X145844385Y99886925D01*
G36*
X145844385Y99886925D02*
G01*
X145044875Y99886925D01*
X145044875Y102294385D01*
X145844385Y102294385D01*
X145844385Y99886925D01*
G37*
X147094385Y105096105D02*
X146296225Y105096105D01*
X146296225Y107494385D01*
X147094385Y107494385D01*
X147094385Y105096105D01*
G36*
X147094385Y105096105D02*
G01*
X146296225Y105096105D01*
X146296225Y107494385D01*
X147094385Y107494385D01*
X147094385Y105096105D01*
G37*
G36*
G01*
X122944385Y86269385D02*
X122944385Y87219385D01*
G75*
G02*
X123194385Y87469385I250000J0D01*
G01*
X123694385Y87469385D01*
G75*
G02*
X123944385Y87219385I0J-250000D01*
G01*
X123944385Y86269385D01*
G75*
G02*
X123694385Y86019385I-250000J0D01*
G01*
X123194385Y86019385D01*
G75*
G02*
X122944385Y86269385I0J250000D01*
G01*
G37*
G36*
G01*
X124844385Y86269385D02*
X124844385Y87219385D01*
G75*
G02*
X125094385Y87469385I250000J0D01*
G01*
X125594385Y87469385D01*
G75*
G02*
X125844385Y87219385I0J-250000D01*
G01*
X125844385Y86269385D01*
G75*
G02*
X125594385Y86019385I-250000J0D01*
G01*
X125094385Y86019385D01*
G75*
G02*
X124844385Y86269385I0J250000D01*
G01*
G37*
D11*
X106994385Y101494385D03*
X104494385Y101494385D03*
D12*
X101994385Y106494385D03*
D11*
X96994385Y101494385D03*
X99494385Y101494385D03*
D13*
X10044385Y80994385D03*
X10044385Y97224385D03*
X3694385Y80994385D03*
X3694385Y97224385D03*
X16394385Y80994385D03*
X16394385Y97224385D03*
X10044385Y19794385D03*
X10044385Y36024385D03*
X3694385Y19794385D03*
X3694385Y36024385D03*
X16394385Y19794385D03*
X16394385Y36024385D03*
G36*
G01*
X139194385Y86669385D02*
X139194385Y87619385D01*
G75*
G02*
X139444385Y87869385I250000J0D01*
G01*
X139944385Y87869385D01*
G75*
G02*
X140194385Y87619385I0J-250000D01*
G01*
X140194385Y86669385D01*
G75*
G02*
X139944385Y86419385I-250000J0D01*
G01*
X139444385Y86419385D01*
G75*
G02*
X139194385Y86669385I0J250000D01*
G01*
G37*
G36*
G01*
X141094385Y86669385D02*
X141094385Y87619385D01*
G75*
G02*
X141344385Y87869385I250000J0D01*
G01*
X141844385Y87869385D01*
G75*
G02*
X142094385Y87619385I0J-250000D01*
G01*
X142094385Y86669385D01*
G75*
G02*
X141844385Y86419385I-250000J0D01*
G01*
X141344385Y86419385D01*
G75*
G02*
X141094385Y86669385I0J250000D01*
G01*
G37*
D14*
X161394385Y100594385D03*
D15*
X161394385Y106394385D03*
D16*
X156594385Y103594385D03*
D17*
X11994385Y11994385D03*
D18*
X10994385Y74994385D03*
D19*
X12994385Y74994385D03*
X10994385Y72994385D03*
X12994385Y72994385D03*
G36*
G01*
X110569385Y87088135D02*
X110569385Y87600635D01*
G75*
G02*
X110788135Y87819385I218750J0D01*
G01*
X111225635Y87819385D01*
G75*
G02*
X111444385Y87600635I0J-218750D01*
G01*
X111444385Y87088135D01*
G75*
G02*
X111225635Y86869385I-218750J0D01*
G01*
X110788135Y86869385D01*
G75*
G02*
X110569385Y87088135I0J218750D01*
G01*
G37*
G36*
G01*
X112144385Y87088135D02*
X112144385Y87600635D01*
G75*
G02*
X112363135Y87819385I218750J0D01*
G01*
X112800635Y87819385D01*
G75*
G02*
X113019385Y87600635I0J-218750D01*
G01*
X113019385Y87088135D01*
G75*
G02*
X112800635Y86869385I-218750J0D01*
G01*
X112363135Y86869385D01*
G75*
G02*
X112144385Y87088135I0J218750D01*
G01*
G37*
G36*
X72844385Y15144385D02*
G01*
X72344385Y15144385D01*
X72344385Y15149474D01*
X72273228Y15149474D01*
X72136677Y15189569D01*
X72016955Y15266510D01*
X71923758Y15374065D01*
X71864639Y15503519D01*
X71844385Y15644385D01*
X71844385Y16144385D01*
X71864639Y16285251D01*
X71923758Y16414705D01*
X72016955Y16522260D01*
X72136677Y16599201D01*
X72273228Y16639296D01*
X72344385Y16639296D01*
X72344385Y16644385D01*
X72844385Y16644385D01*
X72844385Y15144385D01*
G37*
G36*
X73644385Y16639296D02*
G01*
X73715542Y16639296D01*
X73852093Y16599201D01*
X73971815Y16522260D01*
X74065012Y16414705D01*
X74124131Y16285251D01*
X74144385Y16144385D01*
X74144385Y15644385D01*
X74124131Y15503519D01*
X74065012Y15374065D01*
X73971815Y15266510D01*
X73852093Y15189569D01*
X73715542Y15149474D01*
X73644385Y15149474D01*
X73644385Y15144385D01*
X73144385Y15144385D01*
X73144385Y16644385D01*
X73644385Y16644385D01*
X73644385Y16639296D01*
G37*
G36*
G01*
X141944385Y106969385D02*
X141944385Y106019385D01*
G75*
G02*
X141694385Y105769385I-250000J0D01*
G01*
X141194385Y105769385D01*
G75*
G02*
X140944385Y106019385I0J250000D01*
G01*
X140944385Y106969385D01*
G75*
G02*
X141194385Y107219385I250000J0D01*
G01*
X141694385Y107219385D01*
G75*
G02*
X141944385Y106969385I0J-250000D01*
G01*
G37*
G36*
G01*
X140044385Y106969385D02*
X140044385Y106019385D01*
G75*
G02*
X139794385Y105769385I-250000J0D01*
G01*
X139294385Y105769385D01*
G75*
G02*
X139044385Y106019385I0J250000D01*
G01*
X139044385Y106969385D01*
G75*
G02*
X139294385Y107219385I250000J0D01*
G01*
X139794385Y107219385D01*
G75*
G02*
X140044385Y106969385I0J-250000D01*
G01*
G37*
D20*
X101944385Y81394385D03*
X101944385Y84594385D03*
X97044385Y84594385D03*
X97044385Y81394385D03*
D17*
X86994385Y63994385D03*
X11994385Y63994385D03*
D13*
X10044385Y39994385D03*
X10044385Y56224385D03*
X3694385Y39994385D03*
X3694385Y56224385D03*
X16394385Y39994385D03*
X16394385Y56224385D03*
D21*
X127524385Y44838636D03*
D22*
X127524385Y52458636D03*
X127524385Y57538636D03*
X107204385Y65158636D03*
X107204385Y54998636D03*
X107204385Y44838636D03*
D13*
X163944385Y35999385D03*
X163944385Y19769385D03*
X170294385Y35999385D03*
X170294385Y19769385D03*
X157594385Y35999385D03*
X157594385Y19769385D03*
D20*
X126944385Y81394385D03*
X126944385Y84594385D03*
X122044385Y84594385D03*
X122044385Y81394385D03*
D23*
X100974385Y9474385D03*
D18*
X162994385Y994385D03*
D19*
X160994385Y994385D03*
X162994385Y2994385D03*
X160994385Y2994385D03*
D24*
X31584385Y24674385D03*
D25*
X31584385Y27214385D03*
X34124385Y24674385D03*
X34124385Y27214385D03*
X36664385Y24674385D03*
X36664385Y27214385D03*
X39204385Y24674385D03*
X39204385Y27214385D03*
X41744385Y24674385D03*
X41744385Y27214385D03*
X44284385Y24674385D03*
X44284385Y27214385D03*
X46824385Y24674385D03*
X46824385Y27214385D03*
X49364385Y24674385D03*
X49364385Y27214385D03*
X51904385Y24674385D03*
X51904385Y27214385D03*
X54444385Y24674385D03*
X54444385Y27214385D03*
X56984385Y24674385D03*
X56984385Y27214385D03*
X59524385Y24674385D03*
X59524385Y27214385D03*
X62064385Y24674385D03*
X62064385Y27214385D03*
X64604385Y24674385D03*
X64604385Y27214385D03*
X67144385Y24674385D03*
X67144385Y27214385D03*
X69684385Y24674385D03*
X69684385Y27214385D03*
X72224385Y24674385D03*
X72224385Y27214385D03*
X74764385Y24674385D03*
X74764385Y27214385D03*
X77304385Y24674385D03*
X77304385Y27214385D03*
X79844385Y24674385D03*
X79844385Y27214385D03*
D26*
X62094385Y109919385D03*
X62094385Y108919385D03*
X62094385Y107919385D03*
X62094385Y106919385D03*
X62094385Y105919385D03*
X62094385Y104919385D03*
X62094385Y100919385D03*
X62094385Y99919385D03*
X62094385Y98919385D03*
X62094385Y97919385D03*
X62094385Y96919385D03*
X62094385Y95919385D03*
X62094385Y94919385D03*
X63094385Y94919385D03*
X64094385Y94919385D03*
X65094385Y94919385D03*
X66094385Y94919385D03*
X67094385Y94919385D03*
X68094385Y94919385D03*
X69094385Y94919385D03*
X70094385Y94919385D03*
X72094385Y94919385D03*
X73094385Y94919385D03*
X74094385Y94919385D03*
X75094385Y94919385D03*
X76094385Y94919385D03*
X77094385Y94919385D03*
X78094385Y94919385D03*
X79094385Y94919385D03*
X80094385Y94919385D03*
X82094385Y94919385D03*
X83094385Y94919385D03*
X84094385Y94919385D03*
X85094385Y94919385D03*
X86094385Y94919385D03*
X87094385Y94919385D03*
X88094385Y94919385D03*
X89094385Y94919385D03*
X90094385Y94919385D03*
X91094385Y94919385D03*
X92094385Y94919385D03*
X94094385Y94919385D03*
X95094385Y94919385D03*
X96094385Y94919385D03*
X97094385Y94919385D03*
X98094385Y94919385D03*
X99094385Y94919385D03*
X100094385Y94919385D03*
X101094385Y94919385D03*
X102094385Y94919385D03*
X104094385Y94919385D03*
X105094385Y94919385D03*
X106094385Y94919385D03*
X107094385Y94919385D03*
X108094385Y94919385D03*
X109094385Y94919385D03*
X110094385Y94919385D03*
X111094385Y94919385D03*
X112094385Y109919385D03*
X112094385Y108919385D03*
X112094385Y107919385D03*
X112094385Y106919385D03*
X112094385Y105919385D03*
X112094385Y104919385D03*
X112094385Y103919385D03*
X112094385Y102919385D03*
X112094385Y101919385D03*
X112094385Y100919385D03*
X112094385Y99919385D03*
X112094385Y98919385D03*
X112094385Y97919385D03*
X112094385Y96919385D03*
X112094385Y95919385D03*
X112094385Y94919385D03*
D18*
X12994385Y994385D03*
D19*
X10994385Y994385D03*
X12994385Y2994385D03*
X10994385Y2994385D03*
D27*
X79994385Y66494385D03*
X93994385Y66494385D03*
X79994385Y61494385D03*
X93994385Y61494385D03*
D18*
X87994385Y52994385D03*
D19*
X85994385Y52994385D03*
X87994385Y54994385D03*
X85994385Y54994385D03*
G36*
G01*
X60244385Y83794385D02*
X60244385Y82894385D01*
G75*
G02*
X59994385Y82644385I-250000J0D01*
G01*
X59469385Y82644385D01*
G75*
G02*
X59219385Y82894385I0J250000D01*
G01*
X59219385Y83794385D01*
G75*
G02*
X59469385Y84044385I250000J0D01*
G01*
X59994385Y84044385D01*
G75*
G02*
X60244385Y83794385I0J-250000D01*
G01*
G37*
G36*
G01*
X58419385Y83794385D02*
X58419385Y82894385D01*
G75*
G02*
X58169385Y82644385I-250000J0D01*
G01*
X57644385Y82644385D01*
G75*
G02*
X57394385Y82894385I0J250000D01*
G01*
X57394385Y83794385D01*
G75*
G02*
X57644385Y84044385I250000J0D01*
G01*
X58169385Y84044385D01*
G75*
G02*
X58419385Y83794385I0J-250000D01*
G01*
G37*
D23*
X23994385Y107994385D03*
G36*
G01*
X136219385Y90419385D02*
X138369385Y90419385D01*
G75*
G02*
X138619385Y90169385I0J-250000D01*
G01*
X138619385Y89419385D01*
G75*
G02*
X138369385Y89169385I-250000J0D01*
G01*
X136219385Y89169385D01*
G75*
G02*
X135969385Y89419385I0J250000D01*
G01*
X135969385Y90169385D01*
G75*
G02*
X136219385Y90419385I250000J0D01*
G01*
G37*
G36*
G01*
X136219385Y87619385D02*
X138369385Y87619385D01*
G75*
G02*
X138619385Y87369385I0J-250000D01*
G01*
X138619385Y86619385D01*
G75*
G02*
X138369385Y86369385I-250000J0D01*
G01*
X136219385Y86369385D01*
G75*
G02*
X135969385Y86619385I0J250000D01*
G01*
X135969385Y87369385D01*
G75*
G02*
X136219385Y87619385I250000J0D01*
G01*
G37*
D13*
X163959385Y97194385D03*
X163959385Y80964385D03*
X170309385Y97194385D03*
X170309385Y80964385D03*
X157609385Y97194385D03*
X157609385Y80964385D03*
G36*
G01*
X31544385Y105369385D02*
X31544385Y104419385D01*
G75*
G02*
X31294385Y104169385I-250000J0D01*
G01*
X30794385Y104169385D01*
G75*
G02*
X30544385Y104419385I0J250000D01*
G01*
X30544385Y105369385D01*
G75*
G02*
X30794385Y105619385I250000J0D01*
G01*
X31294385Y105619385D01*
G75*
G02*
X31544385Y105369385I0J-250000D01*
G01*
G37*
G36*
G01*
X29644385Y105369385D02*
X29644385Y104419385D01*
G75*
G02*
X29394385Y104169385I-250000J0D01*
G01*
X28894385Y104169385D01*
G75*
G02*
X28644385Y104419385I0J250000D01*
G01*
X28644385Y105369385D01*
G75*
G02*
X28894385Y105619385I250000J0D01*
G01*
X29394385Y105619385D01*
G75*
G02*
X29644385Y105369385I0J-250000D01*
G01*
G37*
G36*
X93940697Y97708464D02*
G01*
X93208464Y98440697D01*
X93193585Y98476618D01*
X93193585Y99512152D01*
X93208464Y99548073D01*
X93940697Y100280306D01*
X93976618Y100295185D01*
X95012152Y100295185D01*
X95048073Y100280306D01*
X95780306Y99548073D01*
X95795185Y99512152D01*
X95795185Y98476618D01*
X95780306Y98440697D01*
X95048073Y97708464D01*
X95012152Y97693585D01*
X93976618Y97693585D01*
X93940697Y97708464D01*
G37*
G36*
X103280306Y98440697D02*
G01*
X102548073Y97708464D01*
X102512152Y97693585D01*
X101476618Y97693585D01*
X101440697Y97708464D01*
X100708464Y98440697D01*
X100693585Y98476618D01*
X100693585Y99512152D01*
X100708464Y99548073D01*
X101440697Y100280306D01*
X101476618Y100295185D01*
X102512152Y100295185D01*
X102548073Y100280306D01*
X103280306Y99548073D01*
X103295185Y99512152D01*
X103295185Y98476618D01*
X103280306Y98440697D01*
G37*
G36*
X108940697Y97708464D02*
G01*
X108208464Y98440697D01*
X108193585Y98476618D01*
X108193585Y99512152D01*
X108208464Y99548073D01*
X108940697Y100280306D01*
X108976618Y100295185D01*
X110012152Y100295185D01*
X110048073Y100280306D01*
X110780306Y99548073D01*
X110795185Y99512152D01*
X110795185Y98476618D01*
X110780306Y98440697D01*
X110048073Y97708464D01*
X110012152Y97693585D01*
X108976618Y97693585D01*
X108940697Y97708464D01*
G37*
G36*
X96440697Y95208464D02*
G01*
X95708464Y95940697D01*
X95693585Y95976618D01*
X95693585Y97012152D01*
X95708464Y97048073D01*
X96440697Y97780306D01*
X96476618Y97795185D01*
X97512152Y97795185D01*
X97548073Y97780306D01*
X98280306Y97048073D01*
X98295185Y97012152D01*
X98295185Y95976618D01*
X98280306Y95940697D01*
X97548073Y95208464D01*
X97512152Y95193585D01*
X96476618Y95193585D01*
X96440697Y95208464D01*
G37*
G36*
X106440697Y95208464D02*
G01*
X105708464Y95940697D01*
X105693585Y95976618D01*
X105693585Y97012152D01*
X105708464Y97048073D01*
X106440697Y97780306D01*
X106476618Y97795185D01*
X107512152Y97795185D01*
X107548073Y97780306D01*
X108280306Y97048073D01*
X108295185Y97012152D01*
X108295185Y95976618D01*
X108280306Y95940697D01*
X107548073Y95208464D01*
X107512152Y95193585D01*
X106476618Y95193585D01*
X106440697Y95208464D01*
G37*
G36*
X103558464Y107958464D02*
G01*
X103543585Y107994385D01*
X103543585Y109094385D01*
X103558464Y109130306D01*
X104458464Y110030306D01*
X104494385Y110045185D01*
X105394385Y110045185D01*
X105430306Y110030306D01*
X105445185Y109994385D01*
X105445185Y107994385D01*
X105430306Y107958464D01*
X105394385Y107943585D01*
X103594385Y107943585D01*
X103558464Y107958464D01*
G37*
G36*
G01*
X107945185Y109994385D02*
X107945185Y107994385D01*
G75*
G02*
X107894385Y107943585I-50800J0D01*
G01*
X106094385Y107943585D01*
G75*
G02*
X106043585Y107994385I0J50800D01*
G01*
X106043585Y109994385D01*
G75*
G02*
X106094385Y110045185I50800J0D01*
G01*
X107894385Y110045185D01*
G75*
G02*
X107945185Y109994385I0J-50800D01*
G01*
G37*
G36*
G01*
X97945185Y109994385D02*
X97945185Y107994385D01*
G75*
G02*
X97894385Y107943585I-50800J0D01*
G01*
X96094385Y107943585D01*
G75*
G02*
X96043585Y107994385I0J50800D01*
G01*
X96043585Y109994385D01*
G75*
G02*
X96094385Y110045185I50800J0D01*
G01*
X97894385Y110045185D01*
G75*
G02*
X97945185Y109994385I0J-50800D01*
G01*
G37*
G36*
X98558464Y107958464D02*
G01*
X98543585Y107994385D01*
X98543585Y109994385D01*
X98558464Y110030306D01*
X98594385Y110045185D01*
X99494385Y110045185D01*
X99530306Y110030306D01*
X100430306Y109130306D01*
X100445185Y109094385D01*
X100445185Y107994385D01*
X100430306Y107958464D01*
X100394385Y107943585D01*
X98594385Y107943585D01*
X98558464Y107958464D01*
G37*
D20*
X76944385Y81394385D03*
X76944385Y84594385D03*
X72044385Y84594385D03*
X72044385Y81394385D03*
D28*
X42244385Y99494385D03*
D29*
X42244385Y94494385D03*
X42244385Y96994385D03*
D30*
X49744385Y102594385D03*
X49744385Y91394385D03*
D29*
X56744385Y94494385D03*
X56744385Y99494385D03*
G36*
G01*
X44569385Y85494385D02*
X45519385Y85494385D01*
G75*
G02*
X45769385Y85244385I0J-250000D01*
G01*
X45769385Y84744385D01*
G75*
G02*
X45519385Y84494385I-250000J0D01*
G01*
X44569385Y84494385D01*
G75*
G02*
X44319385Y84744385I0J250000D01*
G01*
X44319385Y85244385D01*
G75*
G02*
X44569385Y85494385I250000J0D01*
G01*
G37*
G36*
G01*
X44569385Y83594385D02*
X45519385Y83594385D01*
G75*
G02*
X45769385Y83344385I0J-250000D01*
G01*
X45769385Y82844385D01*
G75*
G02*
X45519385Y82594385I-250000J0D01*
G01*
X44569385Y82594385D01*
G75*
G02*
X44319385Y82844385I0J250000D01*
G01*
X44319385Y83344385D01*
G75*
G02*
X44569385Y83594385I250000J0D01*
G01*
G37*
G36*
G01*
X143794385Y86726885D02*
X145794385Y86726885D01*
G75*
G02*
X146044385Y86476885I0J-250000D01*
G01*
X146044385Y82976885D01*
G75*
G02*
X145794385Y82726885I-250000J0D01*
G01*
X143794385Y82726885D01*
G75*
G02*
X143544385Y82976885I0J250000D01*
G01*
X143544385Y86476885D01*
G75*
G02*
X143794385Y86726885I250000J0D01*
G01*
G37*
G36*
G01*
X143794385Y78726885D02*
X145794385Y78726885D01*
G75*
G02*
X146044385Y78476885I0J-250000D01*
G01*
X146044385Y74976885D01*
G75*
G02*
X145794385Y74726885I-250000J0D01*
G01*
X143794385Y74726885D01*
G75*
G02*
X143544385Y74976885I0J250000D01*
G01*
X143544385Y78476885D01*
G75*
G02*
X143794385Y78726885I250000J0D01*
G01*
G37*
D18*
X160994385Y74994385D03*
D19*
X162994385Y74994385D03*
X160994385Y72994385D03*
X162994385Y72994385D03*
D17*
X161994385Y63994385D03*
G36*
G01*
X22544385Y103819385D02*
X23444385Y103819385D01*
G75*
G02*
X23694385Y103569385I0J-250000D01*
G01*
X23694385Y103044385D01*
G75*
G02*
X23444385Y102794385I-250000J0D01*
G01*
X22544385Y102794385D01*
G75*
G02*
X22294385Y103044385I0J250000D01*
G01*
X22294385Y103569385D01*
G75*
G02*
X22544385Y103819385I250000J0D01*
G01*
G37*
G36*
G01*
X22544385Y101994385D02*
X23444385Y101994385D01*
G75*
G02*
X23694385Y101744385I0J-250000D01*
G01*
X23694385Y101219385D01*
G75*
G02*
X23444385Y100969385I-250000J0D01*
G01*
X22544385Y100969385D01*
G75*
G02*
X22294385Y101219385I0J250000D01*
G01*
X22294385Y101744385D01*
G75*
G02*
X22544385Y101994385I250000J0D01*
G01*
G37*
G36*
G01*
X118619385Y73519385D02*
X118619385Y75519385D01*
G75*
G02*
X118869385Y75769385I250000J0D01*
G01*
X122369385Y75769385D01*
G75*
G02*
X122619385Y75519385I0J-250000D01*
G01*
X122619385Y73519385D01*
G75*
G02*
X122369385Y73269385I-250000J0D01*
G01*
X118869385Y73269385D01*
G75*
G02*
X118619385Y73519385I0J250000D01*
G01*
G37*
G36*
G01*
X126619385Y73519385D02*
X126619385Y75519385D01*
G75*
G02*
X126869385Y75769385I250000J0D01*
G01*
X130369385Y75769385D01*
G75*
G02*
X130619385Y75519385I0J-250000D01*
G01*
X130619385Y73519385D01*
G75*
G02*
X130369385Y73269385I-250000J0D01*
G01*
X126869385Y73269385D01*
G75*
G02*
X126619385Y73519385I0J250000D01*
G01*
G37*
D20*
X51944385Y81394385D03*
X51944385Y84594385D03*
X47044385Y84594385D03*
X47044385Y81394385D03*
G36*
G01*
X69519385Y85494385D02*
X70469385Y85494385D01*
G75*
G02*
X70719385Y85244385I0J-250000D01*
G01*
X70719385Y84744385D01*
G75*
G02*
X70469385Y84494385I-250000J0D01*
G01*
X69519385Y84494385D01*
G75*
G02*
X69269385Y84744385I0J250000D01*
G01*
X69269385Y85244385D01*
G75*
G02*
X69519385Y85494385I250000J0D01*
G01*
G37*
G36*
G01*
X69519385Y83594385D02*
X70469385Y83594385D01*
G75*
G02*
X70719385Y83344385I0J-250000D01*
G01*
X70719385Y82844385D01*
G75*
G02*
X70469385Y82594385I-250000J0D01*
G01*
X69519385Y82594385D01*
G75*
G02*
X69269385Y82844385I0J250000D01*
G01*
X69269385Y83344385D01*
G75*
G02*
X69519385Y83594385I250000J0D01*
G01*
G37*
G36*
G01*
X146297385Y99994385D02*
X146297385Y102194385D01*
G75*
G02*
X146399385Y102296385I102000J0D01*
G01*
X146999385Y102296385D01*
G75*
G02*
X147101385Y102194385I0J-102000D01*
G01*
X147101385Y99994385D01*
G75*
G02*
X146999385Y99892385I-102000J0D01*
G01*
X146399385Y99892385D01*
G75*
G02*
X146297385Y99994385I0J102000D01*
G01*
G37*
D13*
X163944385Y56214385D03*
X163944385Y39984385D03*
X170294385Y56214385D03*
X170294385Y39984385D03*
X157594385Y56214385D03*
X157594385Y39984385D03*
D17*
X86994385Y11994385D03*
G36*
X151644385Y15844385D02*
G01*
X151644385Y15344385D01*
X151639296Y15344385D01*
X151639296Y15273228D01*
X151599201Y15136677D01*
X151522260Y15016955D01*
X151414705Y14923758D01*
X151285251Y14864639D01*
X151144385Y14844385D01*
X150644385Y14844385D01*
X150503519Y14864639D01*
X150374065Y14923758D01*
X150266510Y15016955D01*
X150189569Y15136677D01*
X150149474Y15273228D01*
X150149474Y15344385D01*
X150144385Y15344385D01*
X150144385Y15844385D01*
X151644385Y15844385D01*
G37*
G36*
X150149474Y16644385D02*
G01*
X150149474Y16715542D01*
X150189569Y16852093D01*
X150266510Y16971815D01*
X150374065Y17065012D01*
X150503519Y17124131D01*
X150644385Y17144385D01*
X151144385Y17144385D01*
X151285251Y17124131D01*
X151414705Y17065012D01*
X151522260Y16971815D01*
X151599201Y16852093D01*
X151639296Y16715542D01*
X151639296Y16644385D01*
X151644385Y16644385D01*
X151644385Y16144385D01*
X150144385Y16144385D01*
X150144385Y16644385D01*
X150149474Y16644385D01*
G37*
D27*
X4994385Y66494385D03*
X18994385Y66494385D03*
X4994385Y61494385D03*
X18994385Y61494385D03*
G36*
G01*
X110544385Y88619385D02*
X110544385Y89569385D01*
G75*
G02*
X110794385Y89819385I250000J0D01*
G01*
X111294385Y89819385D01*
G75*
G02*
X111544385Y89569385I0J-250000D01*
G01*
X111544385Y88619385D01*
G75*
G02*
X111294385Y88369385I-250000J0D01*
G01*
X110794385Y88369385D01*
G75*
G02*
X110544385Y88619385I0J250000D01*
G01*
G37*
G36*
G01*
X112444385Y88619385D02*
X112444385Y89569385D01*
G75*
G02*
X112694385Y89819385I250000J0D01*
G01*
X113194385Y89819385D01*
G75*
G02*
X113444385Y89569385I0J-250000D01*
G01*
X113444385Y88619385D01*
G75*
G02*
X113194385Y88369385I-250000J0D01*
G01*
X112694385Y88369385D01*
G75*
G02*
X112444385Y88619385I0J250000D01*
G01*
G37*
D31*
X28644385Y99864385D03*
X28644385Y98594385D03*
X28644385Y97324385D03*
X38144385Y97324385D03*
X38144385Y98594385D03*
X38144385Y99864385D03*
G36*
G01*
X39319385Y95831885D02*
X39319385Y94931885D01*
G75*
G02*
X39069385Y94681885I-250000J0D01*
G01*
X38544385Y94681885D01*
G75*
G02*
X38294385Y94931885I0J250000D01*
G01*
X38294385Y95831885D01*
G75*
G02*
X38544385Y96081885I250000J0D01*
G01*
X39069385Y96081885D01*
G75*
G02*
X39319385Y95831885I0J-250000D01*
G01*
G37*
G36*
G01*
X37494385Y95831885D02*
X37494385Y94931885D01*
G75*
G02*
X37244385Y94681885I-250000J0D01*
G01*
X36719385Y94681885D01*
G75*
G02*
X36469385Y94931885I0J250000D01*
G01*
X36469385Y95831885D01*
G75*
G02*
X36719385Y96081885I250000J0D01*
G01*
X37244385Y96081885D01*
G75*
G02*
X37494385Y95831885I0J-250000D01*
G01*
G37*
G36*
G01*
X143794385Y99526885D02*
X145794385Y99526885D01*
G75*
G02*
X146044385Y99276885I0J-250000D01*
G01*
X146044385Y95776885D01*
G75*
G02*
X145794385Y95526885I-250000J0D01*
G01*
X143794385Y95526885D01*
G75*
G02*
X143544385Y95776885I0J250000D01*
G01*
X143544385Y99276885D01*
G75*
G02*
X143794385Y99526885I250000J0D01*
G01*
G37*
G36*
G01*
X143794385Y91526885D02*
X145794385Y91526885D01*
G75*
G02*
X146044385Y91276885I0J-250000D01*
G01*
X146044385Y87776885D01*
G75*
G02*
X145794385Y87526885I-250000J0D01*
G01*
X143794385Y87526885D01*
G75*
G02*
X143544385Y87776885I0J250000D01*
G01*
X143544385Y91276885D01*
G75*
G02*
X143794385Y91526885I250000J0D01*
G01*
G37*
D18*
X85994385Y22994385D03*
D19*
X87994385Y22994385D03*
X85994385Y20994385D03*
X87994385Y20994385D03*
G36*
G01*
X36469385Y92994385D02*
X36469385Y93894385D01*
G75*
G02*
X36719385Y94144385I250000J0D01*
G01*
X37244385Y94144385D01*
G75*
G02*
X37494385Y93894385I0J-250000D01*
G01*
X37494385Y92994385D01*
G75*
G02*
X37244385Y92744385I-250000J0D01*
G01*
X36719385Y92744385D01*
G75*
G02*
X36469385Y92994385I0J250000D01*
G01*
G37*
G36*
G01*
X38294385Y92994385D02*
X38294385Y93894385D01*
G75*
G02*
X38544385Y94144385I250000J0D01*
G01*
X39069385Y94144385D01*
G75*
G02*
X39319385Y93894385I0J-250000D01*
G01*
X39319385Y92994385D01*
G75*
G02*
X39069385Y92744385I-250000J0D01*
G01*
X38544385Y92744385D01*
G75*
G02*
X38294385Y92994385I0J250000D01*
G01*
G37*
G36*
G01*
X24950635Y101269385D02*
X24438135Y101269385D01*
G75*
G02*
X24219385Y101488135I0J218750D01*
G01*
X24219385Y101925635D01*
G75*
G02*
X24438135Y102144385I218750J0D01*
G01*
X24950635Y102144385D01*
G75*
G02*
X25169385Y101925635I0J-218750D01*
G01*
X25169385Y101488135D01*
G75*
G02*
X24950635Y101269385I-218750J0D01*
G01*
G37*
G36*
G01*
X24950635Y102844385D02*
X24438135Y102844385D01*
G75*
G02*
X24219385Y103063135I0J218750D01*
G01*
X24219385Y103500635D01*
G75*
G02*
X24438135Y103719385I218750J0D01*
G01*
X24950635Y103719385D01*
G75*
G02*
X25169385Y103500635I0J-218750D01*
G01*
X25169385Y103063135D01*
G75*
G02*
X24950635Y102844385I-218750J0D01*
G01*
G37*
G36*
G01*
X139144385Y82694385D02*
X139144385Y81394385D01*
G75*
G02*
X138894385Y81144385I-250000J0D01*
G01*
X138244385Y81144385D01*
G75*
G02*
X137994385Y81394385I0J250000D01*
G01*
X137994385Y82694385D01*
G75*
G02*
X138244385Y82944385I250000J0D01*
G01*
X138894385Y82944385D01*
G75*
G02*
X139144385Y82694385I0J-250000D01*
G01*
G37*
G36*
G01*
X136194385Y82694385D02*
X136194385Y81394385D01*
G75*
G02*
X135944385Y81144385I-250000J0D01*
G01*
X135294385Y81144385D01*
G75*
G02*
X135044385Y81394385I0J250000D01*
G01*
X135044385Y82694385D01*
G75*
G02*
X135294385Y82944385I250000J0D01*
G01*
X135944385Y82944385D01*
G75*
G02*
X136194385Y82694385I0J-250000D01*
G01*
G37*
G36*
G01*
X26294385Y100544385D02*
X26894385Y100544385D01*
G75*
G02*
X27144385Y100294385I0J-250000D01*
G01*
X27144385Y99694385D01*
G75*
G02*
X26894385Y99444385I-250000J0D01*
G01*
X26294385Y99444385D01*
G75*
G02*
X26044385Y99694385I0J250000D01*
G01*
X26044385Y100294385D01*
G75*
G02*
X26294385Y100544385I250000J0D01*
G01*
G37*
G36*
G01*
X26294385Y97744385D02*
X26894385Y97744385D01*
G75*
G02*
X27144385Y97494385I0J-250000D01*
G01*
X27144385Y96894385D01*
G75*
G02*
X26894385Y96644385I-250000J0D01*
G01*
X26294385Y96644385D01*
G75*
G02*
X26044385Y96894385I0J250000D01*
G01*
X26044385Y97494385D01*
G75*
G02*
X26294385Y97744385I250000J0D01*
G01*
G37*
G36*
G01*
X94569385Y85494385D02*
X95519385Y85494385D01*
G75*
G02*
X95769385Y85244385I0J-250000D01*
G01*
X95769385Y84744385D01*
G75*
G02*
X95519385Y84494385I-250000J0D01*
G01*
X94569385Y84494385D01*
G75*
G02*
X94319385Y84744385I0J250000D01*
G01*
X94319385Y85244385D01*
G75*
G02*
X94569385Y85494385I250000J0D01*
G01*
G37*
G36*
G01*
X94569385Y83594385D02*
X95519385Y83594385D01*
G75*
G02*
X95769385Y83344385I0J-250000D01*
G01*
X95769385Y82844385D01*
G75*
G02*
X95519385Y82594385I-250000J0D01*
G01*
X94569385Y82594385D01*
G75*
G02*
X94319385Y82844385I0J250000D01*
G01*
X94319385Y83344385D01*
G75*
G02*
X94569385Y83594385I250000J0D01*
G01*
G37*
G36*
G01*
X24438135Y100469385D02*
X24950635Y100469385D01*
G75*
G02*
X25169385Y100250635I0J-218750D01*
G01*
X25169385Y99813135D01*
G75*
G02*
X24950635Y99594385I-218750J0D01*
G01*
X24438135Y99594385D01*
G75*
G02*
X24219385Y99813135I0J218750D01*
G01*
X24219385Y100250635D01*
G75*
G02*
X24438135Y100469385I218750J0D01*
G01*
G37*
G36*
G01*
X24438135Y98894385D02*
X24950635Y98894385D01*
G75*
G02*
X25169385Y98675635I0J-218750D01*
G01*
X25169385Y98238135D01*
G75*
G02*
X24950635Y98019385I-218750J0D01*
G01*
X24438135Y98019385D01*
G75*
G02*
X24219385Y98238135I0J218750D01*
G01*
X24219385Y98675635D01*
G75*
G02*
X24438135Y98894385I218750J0D01*
G01*
G37*
G36*
G01*
X154394385Y103694385D02*
X154394385Y100794385D01*
G75*
G02*
X154144385Y100544385I-250000J0D01*
G01*
X153519385Y100544385D01*
G75*
G02*
X153269385Y100794385I0J250000D01*
G01*
X153269385Y103694385D01*
G75*
G02*
X153519385Y103944385I250000J0D01*
G01*
X154144385Y103944385D01*
G75*
G02*
X154394385Y103694385I0J-250000D01*
G01*
G37*
G36*
G01*
X150119385Y103694385D02*
X150119385Y100794385D01*
G75*
G02*
X149869385Y100544385I-250000J0D01*
G01*
X149244385Y100544385D01*
G75*
G02*
X148994385Y100794385I0J250000D01*
G01*
X148994385Y103694385D01*
G75*
G02*
X149244385Y103944385I250000J0D01*
G01*
X149869385Y103944385D01*
G75*
G02*
X150119385Y103694385I0J-250000D01*
G01*
G37*
D23*
X100894385Y67428785D03*
G36*
G01*
X139044385Y84669385D02*
X139044385Y83719385D01*
G75*
G02*
X138794385Y83469385I-250000J0D01*
G01*
X138294385Y83469385D01*
G75*
G02*
X138044385Y83719385I0J250000D01*
G01*
X138044385Y84669385D01*
G75*
G02*
X138294385Y84919385I250000J0D01*
G01*
X138794385Y84919385D01*
G75*
G02*
X139044385Y84669385I0J-250000D01*
G01*
G37*
G36*
G01*
X137144385Y84669385D02*
X137144385Y83719385D01*
G75*
G02*
X136894385Y83469385I-250000J0D01*
G01*
X136394385Y83469385D01*
G75*
G02*
X136144385Y83719385I0J250000D01*
G01*
X136144385Y84669385D01*
G75*
G02*
X136394385Y84919385I250000J0D01*
G01*
X136894385Y84919385D01*
G75*
G02*
X137144385Y84669385I0J-250000D01*
G01*
G37*
D27*
X154994385Y14494385D03*
X168994385Y14494385D03*
X154994385Y9494385D03*
X168994385Y9494385D03*
D17*
X161994385Y11994385D03*
D27*
X154994385Y66494385D03*
X168994385Y66494385D03*
X154994385Y61494385D03*
X168994385Y61494385D03*
X4994385Y14494385D03*
X18994385Y14494385D03*
X4994385Y9494385D03*
X18994385Y9494385D03*
D23*
X149994385Y107994385D03*
G36*
G01*
X33469385Y93188135D02*
X33469385Y93700635D01*
G75*
G02*
X33688135Y93919385I218750J0D01*
G01*
X34125635Y93919385D01*
G75*
G02*
X34344385Y93700635I0J-218750D01*
G01*
X34344385Y93188135D01*
G75*
G02*
X34125635Y92969385I-218750J0D01*
G01*
X33688135Y92969385D01*
G75*
G02*
X33469385Y93188135I0J218750D01*
G01*
G37*
G36*
G01*
X35044385Y93188135D02*
X35044385Y93700635D01*
G75*
G02*
X35263135Y93919385I218750J0D01*
G01*
X35700635Y93919385D01*
G75*
G02*
X35919385Y93700635I0J-218750D01*
G01*
X35919385Y93188135D01*
G75*
G02*
X35700635Y92969385I-218750J0D01*
G01*
X35263135Y92969385D01*
G75*
G02*
X35044385Y93188135I0J218750D01*
G01*
G37*
G36*
G01*
X56820385Y83561785D02*
X56820385Y83206185D01*
G75*
G02*
X56718385Y83104185I-102000J0D01*
G01*
X55600785Y83104185D01*
G75*
G02*
X55498785Y83206185I0J102000D01*
G01*
X55498785Y83561785D01*
G75*
G02*
X55600785Y83663785I102000J0D01*
G01*
X56718385Y83663785D01*
G75*
G02*
X56820385Y83561785I0J-102000D01*
G01*
G37*
G36*
G01*
X56820385Y84222185D02*
X56820385Y83866585D01*
G75*
G02*
X56718385Y83764585I-102000J0D01*
G01*
X55600785Y83764585D01*
G75*
G02*
X55498785Y83866585I0J102000D01*
G01*
X55498785Y84222185D01*
G75*
G02*
X55600785Y84324185I102000J0D01*
G01*
X56718385Y84324185D01*
G75*
G02*
X56820385Y84222185I0J-102000D01*
G01*
G37*
G36*
G01*
X56820385Y84882585D02*
X56820385Y84526985D01*
G75*
G02*
X56718385Y84424985I-102000J0D01*
G01*
X55600785Y84424985D01*
G75*
G02*
X55498785Y84526985I0J102000D01*
G01*
X55498785Y84882585D01*
G75*
G02*
X55600785Y84984585I102000J0D01*
G01*
X56718385Y84984585D01*
G75*
G02*
X56820385Y84882585I0J-102000D01*
G01*
G37*
G36*
G01*
X54889985Y84882585D02*
X54889985Y84526985D01*
G75*
G02*
X54787985Y84424985I-102000J0D01*
G01*
X53670385Y84424985D01*
G75*
G02*
X53568385Y84526985I0J102000D01*
G01*
X53568385Y84882585D01*
G75*
G02*
X53670385Y84984585I102000J0D01*
G01*
X54787985Y84984585D01*
G75*
G02*
X54889985Y84882585I0J-102000D01*
G01*
G37*
G36*
G01*
X54889985Y83561785D02*
X54889985Y83206185D01*
G75*
G02*
X54787985Y83104185I-102000J0D01*
G01*
X53670385Y83104185D01*
G75*
G02*
X53568385Y83206185I0J102000D01*
G01*
X53568385Y83561785D01*
G75*
G02*
X53670385Y83663785I102000J0D01*
G01*
X54787985Y83663785D01*
G75*
G02*
X54889985Y83561785I0J-102000D01*
G01*
G37*
D28*
X117244385Y99494385D03*
D29*
X117244385Y94494385D03*
X117244385Y96994385D03*
D30*
X124744385Y102594385D03*
X124744385Y91394385D03*
D29*
X131744385Y94494385D03*
X131744385Y99494385D03*
D27*
X79994385Y14494385D03*
X93994385Y14494385D03*
X79994385Y9494385D03*
X93994385Y9494385D03*
G36*
G01*
X131169385Y84119385D02*
X131169385Y85419385D01*
G75*
G02*
X131419385Y85669385I250000J0D01*
G01*
X132069385Y85669385D01*
G75*
G02*
X132319385Y85419385I0J-250000D01*
G01*
X132319385Y84119385D01*
G75*
G02*
X132069385Y83869385I-250000J0D01*
G01*
X131419385Y83869385D01*
G75*
G02*
X131169385Y84119385I0J250000D01*
G01*
G37*
G36*
G01*
X134119385Y84119385D02*
X134119385Y85419385D01*
G75*
G02*
X134369385Y85669385I250000J0D01*
G01*
X135019385Y85669385D01*
G75*
G02*
X135269385Y85419385I0J-250000D01*
G01*
X135269385Y84119385D01*
G75*
G02*
X135019385Y83869385I-250000J0D01*
G01*
X134369385Y83869385D01*
G75*
G02*
X134119385Y84119385I0J250000D01*
G01*
G37*
G36*
X63940697Y97708464D02*
G01*
X63208464Y98440697D01*
X63193585Y98476618D01*
X63193585Y99512152D01*
X63208464Y99548073D01*
X63940697Y100280306D01*
X63976618Y100295185D01*
X65012152Y100295185D01*
X65048073Y100280306D01*
X65780306Y99548073D01*
X65795185Y99512152D01*
X65795185Y98476618D01*
X65780306Y98440697D01*
X65048073Y97708464D01*
X65012152Y97693585D01*
X63976618Y97693585D01*
X63940697Y97708464D01*
G37*
G36*
X73280306Y98440697D02*
G01*
X72548073Y97708464D01*
X72512152Y97693585D01*
X71476618Y97693585D01*
X71440697Y97708464D01*
X70708464Y98440697D01*
X70693585Y98476618D01*
X70693585Y99512152D01*
X70708464Y99548073D01*
X71440697Y100280306D01*
X71476618Y100295185D01*
X72512152Y100295185D01*
X72548073Y100280306D01*
X73280306Y99548073D01*
X73295185Y99512152D01*
X73295185Y98476618D01*
X73280306Y98440697D01*
G37*
G36*
X78940697Y97708464D02*
G01*
X78208464Y98440697D01*
X78193585Y98476618D01*
X78193585Y99512152D01*
X78208464Y99548073D01*
X78940697Y100280306D01*
X78976618Y100295185D01*
X80012152Y100295185D01*
X80048073Y100280306D01*
X80780306Y99548073D01*
X80795185Y99512152D01*
X80795185Y98476618D01*
X80780306Y98440697D01*
X80048073Y97708464D01*
X80012152Y97693585D01*
X78976618Y97693585D01*
X78940697Y97708464D01*
G37*
G36*
X66440697Y95208464D02*
G01*
X65708464Y95940697D01*
X65693585Y95976618D01*
X65693585Y97012152D01*
X65708464Y97048073D01*
X66440697Y97780306D01*
X66476618Y97795185D01*
X67512152Y97795185D01*
X67548073Y97780306D01*
X68280306Y97048073D01*
X68295185Y97012152D01*
X68295185Y95976618D01*
X68280306Y95940697D01*
X67548073Y95208464D01*
X67512152Y95193585D01*
X66476618Y95193585D01*
X66440697Y95208464D01*
G37*
G36*
X76440697Y95208464D02*
G01*
X75708464Y95940697D01*
X75693585Y95976618D01*
X75693585Y97012152D01*
X75708464Y97048073D01*
X76440697Y97780306D01*
X76476618Y97795185D01*
X77512152Y97795185D01*
X77548073Y97780306D01*
X78280306Y97048073D01*
X78295185Y97012152D01*
X78295185Y95976618D01*
X78280306Y95940697D01*
X77548073Y95208464D01*
X77512152Y95193585D01*
X76476618Y95193585D01*
X76440697Y95208464D01*
G37*
G36*
X73558464Y107958464D02*
G01*
X73543585Y107994385D01*
X73543585Y109094385D01*
X73558464Y109130306D01*
X74458464Y110030306D01*
X74494385Y110045185D01*
X75394385Y110045185D01*
X75430306Y110030306D01*
X75445185Y109994385D01*
X75445185Y107994385D01*
X75430306Y107958464D01*
X75394385Y107943585D01*
X73594385Y107943585D01*
X73558464Y107958464D01*
G37*
G36*
G01*
X77945185Y109994385D02*
X77945185Y107994385D01*
G75*
G02*
X77894385Y107943585I-50800J0D01*
G01*
X76094385Y107943585D01*
G75*
G02*
X76043585Y107994385I0J50800D01*
G01*
X76043585Y109994385D01*
G75*
G02*
X76094385Y110045185I50800J0D01*
G01*
X77894385Y110045185D01*
G75*
G02*
X77945185Y109994385I0J-50800D01*
G01*
G37*
G36*
G01*
X67945185Y109994385D02*
X67945185Y107994385D01*
G75*
G02*
X67894385Y107943585I-50800J0D01*
G01*
X66094385Y107943585D01*
G75*
G02*
X66043585Y107994385I0J50800D01*
G01*
X66043585Y109994385D01*
G75*
G02*
X66094385Y110045185I50800J0D01*
G01*
X67894385Y110045185D01*
G75*
G02*
X67945185Y109994385I0J-50800D01*
G01*
G37*
G36*
X68558464Y107958464D02*
G01*
X68543585Y107994385D01*
X68543585Y109994385D01*
X68558464Y110030306D01*
X68594385Y110045185D01*
X69494385Y110045185D01*
X69530306Y110030306D01*
X70430306Y109130306D01*
X70445185Y109094385D01*
X70445185Y107994385D01*
X70430306Y107958464D01*
X70394385Y107943585D01*
X68594385Y107943585D01*
X68558464Y107958464D01*
G37*
G36*
G01*
X114994385Y84944385D02*
X116294385Y84944385D01*
G75*
G02*
X116544385Y84694385I0J-250000D01*
G01*
X116544385Y82694385D01*
G75*
G02*
X116294385Y82444385I-250000J0D01*
G01*
X114994385Y82444385D01*
G75*
G02*
X114744385Y82694385I0J250000D01*
G01*
X114744385Y84694385D01*
G75*
G02*
X114994385Y84944385I250000J0D01*
G01*
G37*
G36*
G01*
X114994385Y80944385D02*
X116294385Y80944385D01*
G75*
G02*
X116544385Y80694385I0J-250000D01*
G01*
X116544385Y78694385D01*
G75*
G02*
X116294385Y78444385I-250000J0D01*
G01*
X114994385Y78444385D01*
G75*
G02*
X114744385Y78694385I0J250000D01*
G01*
X114744385Y80694385D01*
G75*
G02*
X114994385Y80944385I250000J0D01*
G01*
G37*
G36*
G01*
X33469385Y95075635D02*
X33469385Y95588135D01*
G75*
G02*
X33688135Y95806885I218750J0D01*
G01*
X34125635Y95806885D01*
G75*
G02*
X34344385Y95588135I0J-218750D01*
G01*
X34344385Y95075635D01*
G75*
G02*
X34125635Y94856885I-218750J0D01*
G01*
X33688135Y94856885D01*
G75*
G02*
X33469385Y95075635I0J218750D01*
G01*
G37*
G36*
G01*
X35044385Y95075635D02*
X35044385Y95588135D01*
G75*
G02*
X35263135Y95806885I218750J0D01*
G01*
X35700635Y95806885D01*
G75*
G02*
X35919385Y95588135I0J-218750D01*
G01*
X35919385Y95075635D01*
G75*
G02*
X35700635Y94856885I-218750J0D01*
G01*
X35263135Y94856885D01*
G75*
G02*
X35044385Y95075635I0J218750D01*
G01*
G37*
D11*
X76988885Y101494385D03*
X74488885Y101494385D03*
D12*
X71988885Y106494385D03*
D11*
X66988885Y101494385D03*
X69488885Y101494385D03*
D24*
X95619385Y33214385D03*
D25*
X95619385Y35754385D03*
X95619385Y38294385D03*
X95619385Y40834385D03*
D24*
X117069385Y71144385D03*
D25*
X117069385Y73684385D03*
D32*
X108994385Y82994385D03*
D19*
X108994385Y80994385D03*
D25*
X109124385Y73104385D03*
X106584385Y73104385D03*
D24*
X104044385Y73104385D03*
D25*
X101504385Y73104385D03*
X98964385Y73104385D03*
X96424385Y73104385D03*
X93884385Y73104385D03*
D24*
X91344385Y73104385D03*
D25*
X88804385Y73104385D03*
X86264385Y73104385D03*
X83724385Y73104385D03*
X81184385Y73104385D03*
D24*
X78644385Y73104385D03*
D25*
X76104385Y73104385D03*
X73564385Y73104385D03*
X71024385Y73104385D03*
X68484385Y73104385D03*
D24*
X65944385Y73104385D03*
D25*
X63404385Y73104385D03*
X60864385Y73104385D03*
X60864385Y90884385D03*
X63404385Y90884385D03*
D24*
X65944385Y90884385D03*
D25*
X68484385Y90884385D03*
X71024385Y90884385D03*
X73564385Y90884385D03*
X76104385Y90884385D03*
D24*
X78644385Y90884385D03*
D25*
X81184385Y90884385D03*
X83724385Y90884385D03*
X86264385Y90884385D03*
X88804385Y90884385D03*
D24*
X91344385Y90884385D03*
D25*
X93884385Y90884385D03*
X96424385Y90884385D03*
X98964385Y90884385D03*
X101504385Y90884385D03*
D24*
X104044385Y90884385D03*
D25*
X106584385Y90884385D03*
X109124385Y90884385D03*
G36*
G01*
X32444385Y103244385D02*
X32444385Y101794385D01*
G75*
G02*
X32194385Y101544385I-250000J0D01*
G01*
X30994385Y101544385D01*
G75*
G02*
X30744385Y101794385I0J250000D01*
G01*
X30744385Y103244385D01*
G75*
G02*
X30994385Y103494385I250000J0D01*
G01*
X32194385Y103494385D01*
G75*
G02*
X32444385Y103244385I0J-250000D01*
G01*
G37*
D33*
X29094385Y102519385D03*
X26594385Y102519385D03*
G36*
G01*
X25744385Y4619385D02*
X25744385Y3169385D01*
G75*
G02*
X25494385Y2919385I-250000J0D01*
G01*
X24294385Y2919385D01*
G75*
G02*
X24044385Y3169385I0J250000D01*
G01*
X24044385Y4619385D01*
G75*
G02*
X24294385Y4869385I250000J0D01*
G01*
X25494385Y4869385D01*
G75*
G02*
X25744385Y4619385I0J-250000D01*
G01*
G37*
X22394385Y3894385D03*
X19894385Y3894385D03*
D24*
X102244385Y62618785D03*
D25*
X99704385Y62618785D03*
X102244385Y60078785D03*
X99704385Y60078785D03*
X102244385Y57538785D03*
X99704385Y57538785D03*
X102244385Y54998785D03*
X99704385Y54998785D03*
X102244385Y52458785D03*
X99704385Y52458785D03*
X102244385Y49918785D03*
X99704385Y49918785D03*
X102244385Y47378785D03*
X99704385Y47378785D03*
X102244385Y44838785D03*
X99704385Y44838785D03*
X102244385Y42298785D03*
X99704385Y42298785D03*
X102244385Y39758785D03*
X99704385Y39758785D03*
X102244385Y37218785D03*
X99704385Y37218785D03*
X102244385Y34678785D03*
X99704385Y34678785D03*
X102244385Y32138785D03*
X99704385Y32138785D03*
X102244385Y29598785D03*
X99704385Y29598785D03*
X102244385Y27058785D03*
X99704385Y27058785D03*
X102244385Y24518785D03*
X99704385Y24518785D03*
X102244385Y21978785D03*
X99704385Y21978785D03*
X102244385Y19438785D03*
X99704385Y19438785D03*
X102244385Y16898785D03*
X99704385Y16898785D03*
X102244385Y14358785D03*
X99704385Y14358785D03*
D24*
X138549385Y56148785D03*
D25*
X136009385Y56148785D03*
X138549385Y53608785D03*
X136009385Y53608785D03*
X138549385Y51068785D03*
X136009385Y51068785D03*
D24*
X134374385Y11843785D03*
D25*
X134374385Y9303785D03*
X136914385Y11843785D03*
X136914385Y9303785D03*
X139454385Y11843785D03*
X139454385Y9303785D03*
G36*
G01*
X32444385Y95494385D02*
X32444385Y94044385D01*
G75*
G02*
X32194385Y93794385I-250000J0D01*
G01*
X30994385Y93794385D01*
G75*
G02*
X30744385Y94044385I0J250000D01*
G01*
X30744385Y95494385D01*
G75*
G02*
X30994385Y95744385I250000J0D01*
G01*
X32194385Y95744385D01*
G75*
G02*
X32444385Y95494385I0J-250000D01*
G01*
G37*
D33*
X29094385Y94769385D03*
X26594385Y94769385D03*
M02*
