G04 #@! TF.GenerationSoftware,KiCad,Pcbnew,7.0.7-7.0.7~ubuntu23.04.1*
G04 #@! TF.CreationDate,2023-10-14T07:54:02+00:00*
G04 #@! TF.ProjectId,pedalboard-hw,70656461-6c62-46f6-9172-642d68772e6b,3.0.0-RC1*
G04 #@! TF.SameCoordinates,Original*
G04 #@! TF.FileFunction,Soldermask,Bot*
G04 #@! TF.FilePolarity,Negative*
%FSLAX46Y46*%
G04 Gerber Fmt 4.6, Leading zero omitted, Abs format (unit mm)*
G04 Created by KiCad (PCBNEW 7.0.7-7.0.7~ubuntu23.04.1) date 2023-10-14 07:54:02*
%MOMM*%
%LPD*%
G01*
G04 APERTURE LIST*
%ADD10O,1.200000X2.200000*%
%ADD11O,2.200000X1.200000*%
%ADD12C,3.000000*%
%ADD13R,4.400000X1.800000*%
%ADD14O,4.000000X1.800000*%
%ADD15O,1.800000X4.000000*%
%ADD16C,6.000000*%
%ADD17R,1.350000X1.350000*%
%ADD18O,1.350000X1.350000*%
%ADD19R,2.250000X2.250000*%
%ADD20C,2.250000*%
%ADD21C,2.700000*%
%ADD22R,1.700000X1.700000*%
%ADD23O,1.700000X1.700000*%
%ADD24C,0.600000*%
%ADD25R,2.000000X2.000000*%
%ADD26C,2.000000*%
%ADD27C,3.200000*%
%ADD28C,1.350000*%
%ADD29O,1.700000X1.950000*%
G04 APERTURE END LIST*
D10*
X106994385Y101494385D03*
X104494385Y101494385D03*
D11*
X101994385Y106494385D03*
D10*
X96994385Y101494385D03*
X99494385Y101494385D03*
D12*
X10044385Y80994385D03*
X10044385Y97224385D03*
X3694385Y80994385D03*
X3694385Y97224385D03*
X16394385Y80994385D03*
X16394385Y97224385D03*
X10044385Y19794385D03*
X10044385Y36024385D03*
X3694385Y19794385D03*
X3694385Y36024385D03*
X16394385Y19794385D03*
X16394385Y36024385D03*
D13*
X161394385Y100594385D03*
D14*
X161394385Y106394385D03*
D15*
X156594385Y103594385D03*
D16*
X11994385Y11994385D03*
D17*
X10994385Y74994385D03*
D18*
X12994385Y74994385D03*
X10994385Y72994385D03*
X12994385Y72994385D03*
D16*
X86994385Y63994385D03*
X11994385Y63994385D03*
D12*
X10044385Y39994385D03*
X10044385Y56224385D03*
X3694385Y39994385D03*
X3694385Y56224385D03*
X16394385Y39994385D03*
X16394385Y56224385D03*
D19*
X127524385Y44838636D03*
D20*
X127524385Y52458636D03*
X127524385Y57538636D03*
X107204385Y65158636D03*
X107204385Y54998636D03*
X107204385Y44838636D03*
D12*
X163944385Y35999385D03*
X163944385Y19769385D03*
X170294385Y35999385D03*
X170294385Y19769385D03*
X157594385Y35999385D03*
X157594385Y19769385D03*
D21*
X100974385Y9474385D03*
D17*
X162994385Y994385D03*
D18*
X160994385Y994385D03*
X162994385Y2994385D03*
X160994385Y2994385D03*
D22*
X31584385Y24674385D03*
D23*
X31584385Y27214385D03*
X34124385Y24674385D03*
X34124385Y27214385D03*
X36664385Y24674385D03*
X36664385Y27214385D03*
X39204385Y24674385D03*
X39204385Y27214385D03*
X41744385Y24674385D03*
X41744385Y27214385D03*
X44284385Y24674385D03*
X44284385Y27214385D03*
X46824385Y24674385D03*
X46824385Y27214385D03*
X49364385Y24674385D03*
X49364385Y27214385D03*
X51904385Y24674385D03*
X51904385Y27214385D03*
X54444385Y24674385D03*
X54444385Y27214385D03*
X56984385Y24674385D03*
X56984385Y27214385D03*
X59524385Y24674385D03*
X59524385Y27214385D03*
X62064385Y24674385D03*
X62064385Y27214385D03*
X64604385Y24674385D03*
X64604385Y27214385D03*
X67144385Y24674385D03*
X67144385Y27214385D03*
X69684385Y24674385D03*
X69684385Y27214385D03*
X72224385Y24674385D03*
X72224385Y27214385D03*
X74764385Y24674385D03*
X74764385Y27214385D03*
X77304385Y24674385D03*
X77304385Y27214385D03*
X79844385Y24674385D03*
X79844385Y27214385D03*
D24*
X62094385Y109919385D03*
X62094385Y108919385D03*
X62094385Y107919385D03*
X62094385Y106919385D03*
X62094385Y105919385D03*
X62094385Y104919385D03*
X62094385Y100919385D03*
X62094385Y99919385D03*
X62094385Y98919385D03*
X62094385Y97919385D03*
X62094385Y96919385D03*
X62094385Y95919385D03*
X62094385Y94919385D03*
X63094385Y94919385D03*
X64094385Y94919385D03*
X65094385Y94919385D03*
X66094385Y94919385D03*
X67094385Y94919385D03*
X68094385Y94919385D03*
X69094385Y94919385D03*
X70094385Y94919385D03*
X72094385Y94919385D03*
X73094385Y94919385D03*
X74094385Y94919385D03*
X75094385Y94919385D03*
X76094385Y94919385D03*
X77094385Y94919385D03*
X78094385Y94919385D03*
X79094385Y94919385D03*
X80094385Y94919385D03*
X82094385Y94919385D03*
X83094385Y94919385D03*
X84094385Y94919385D03*
X85094385Y94919385D03*
X86094385Y94919385D03*
X87094385Y94919385D03*
X88094385Y94919385D03*
X89094385Y94919385D03*
X90094385Y94919385D03*
X91094385Y94919385D03*
X92094385Y94919385D03*
X94094385Y94919385D03*
X95094385Y94919385D03*
X96094385Y94919385D03*
X97094385Y94919385D03*
X98094385Y94919385D03*
X99094385Y94919385D03*
X100094385Y94919385D03*
X101094385Y94919385D03*
X102094385Y94919385D03*
X104094385Y94919385D03*
X105094385Y94919385D03*
X106094385Y94919385D03*
X107094385Y94919385D03*
X108094385Y94919385D03*
X109094385Y94919385D03*
X110094385Y94919385D03*
X111094385Y94919385D03*
X112094385Y109919385D03*
X112094385Y108919385D03*
X112094385Y107919385D03*
X112094385Y106919385D03*
X112094385Y105919385D03*
X112094385Y104919385D03*
X112094385Y103919385D03*
X112094385Y102919385D03*
X112094385Y101919385D03*
X112094385Y100919385D03*
X112094385Y99919385D03*
X112094385Y98919385D03*
X112094385Y97919385D03*
X112094385Y96919385D03*
X112094385Y95919385D03*
X112094385Y94919385D03*
D17*
X12994385Y994385D03*
D18*
X10994385Y994385D03*
X12994385Y2994385D03*
X10994385Y2994385D03*
D17*
X87994385Y52994385D03*
D18*
X85994385Y52994385D03*
X87994385Y54994385D03*
X85994385Y54994385D03*
D21*
X23994385Y107994385D03*
D12*
X163959385Y97194385D03*
X163959385Y80964385D03*
X170309385Y97194385D03*
X170309385Y80964385D03*
X157609385Y97194385D03*
X157609385Y80964385D03*
G36*
X93940697Y97708464D02*
G01*
X93208464Y98440697D01*
X93193585Y98476618D01*
X93193585Y99512152D01*
X93208464Y99548073D01*
X93940697Y100280306D01*
X93976618Y100295185D01*
X95012152Y100295185D01*
X95048073Y100280306D01*
X95780306Y99548073D01*
X95795185Y99512152D01*
X95795185Y98476618D01*
X95780306Y98440697D01*
X95048073Y97708464D01*
X95012152Y97693585D01*
X93976618Y97693585D01*
X93940697Y97708464D01*
G37*
G36*
X103280306Y98440697D02*
G01*
X102548073Y97708464D01*
X102512152Y97693585D01*
X101476618Y97693585D01*
X101440697Y97708464D01*
X100708464Y98440697D01*
X100693585Y98476618D01*
X100693585Y99512152D01*
X100708464Y99548073D01*
X101440697Y100280306D01*
X101476618Y100295185D01*
X102512152Y100295185D01*
X102548073Y100280306D01*
X103280306Y99548073D01*
X103295185Y99512152D01*
X103295185Y98476618D01*
X103280306Y98440697D01*
G37*
G36*
X108940697Y97708464D02*
G01*
X108208464Y98440697D01*
X108193585Y98476618D01*
X108193585Y99512152D01*
X108208464Y99548073D01*
X108940697Y100280306D01*
X108976618Y100295185D01*
X110012152Y100295185D01*
X110048073Y100280306D01*
X110780306Y99548073D01*
X110795185Y99512152D01*
X110795185Y98476618D01*
X110780306Y98440697D01*
X110048073Y97708464D01*
X110012152Y97693585D01*
X108976618Y97693585D01*
X108940697Y97708464D01*
G37*
G36*
X96440697Y95208464D02*
G01*
X95708464Y95940697D01*
X95693585Y95976618D01*
X95693585Y97012152D01*
X95708464Y97048073D01*
X96440697Y97780306D01*
X96476618Y97795185D01*
X97512152Y97795185D01*
X97548073Y97780306D01*
X98280306Y97048073D01*
X98295185Y97012152D01*
X98295185Y95976618D01*
X98280306Y95940697D01*
X97548073Y95208464D01*
X97512152Y95193585D01*
X96476618Y95193585D01*
X96440697Y95208464D01*
G37*
G36*
X106440697Y95208464D02*
G01*
X105708464Y95940697D01*
X105693585Y95976618D01*
X105693585Y97012152D01*
X105708464Y97048073D01*
X106440697Y97780306D01*
X106476618Y97795185D01*
X107512152Y97795185D01*
X107548073Y97780306D01*
X108280306Y97048073D01*
X108295185Y97012152D01*
X108295185Y95976618D01*
X108280306Y95940697D01*
X107548073Y95208464D01*
X107512152Y95193585D01*
X106476618Y95193585D01*
X106440697Y95208464D01*
G37*
G36*
X103558464Y107958464D02*
G01*
X103543585Y107994385D01*
X103543585Y109094385D01*
X103558464Y109130306D01*
X104458464Y110030306D01*
X104494385Y110045185D01*
X105394385Y110045185D01*
X105430306Y110030306D01*
X105445185Y109994385D01*
X105445185Y107994385D01*
X105430306Y107958464D01*
X105394385Y107943585D01*
X103594385Y107943585D01*
X103558464Y107958464D01*
G37*
G36*
G01*
X107945185Y109994385D02*
X107945185Y107994385D01*
G75*
G02*
X107894385Y107943585I-50800J0D01*
G01*
X106094385Y107943585D01*
G75*
G02*
X106043585Y107994385I0J50800D01*
G01*
X106043585Y109994385D01*
G75*
G02*
X106094385Y110045185I50800J0D01*
G01*
X107894385Y110045185D01*
G75*
G02*
X107945185Y109994385I0J-50800D01*
G01*
G37*
G36*
G01*
X97945185Y109994385D02*
X97945185Y107994385D01*
G75*
G02*
X97894385Y107943585I-50800J0D01*
G01*
X96094385Y107943585D01*
G75*
G02*
X96043585Y107994385I0J50800D01*
G01*
X96043585Y109994385D01*
G75*
G02*
X96094385Y110045185I50800J0D01*
G01*
X97894385Y110045185D01*
G75*
G02*
X97945185Y109994385I0J-50800D01*
G01*
G37*
G36*
X98558464Y107958464D02*
G01*
X98543585Y107994385D01*
X98543585Y109994385D01*
X98558464Y110030306D01*
X98594385Y110045185D01*
X99494385Y110045185D01*
X99530306Y110030306D01*
X100430306Y109130306D01*
X100445185Y109094385D01*
X100445185Y107994385D01*
X100430306Y107958464D01*
X100394385Y107943585D01*
X98594385Y107943585D01*
X98558464Y107958464D01*
G37*
D25*
X42244385Y99494385D03*
D26*
X42244385Y94494385D03*
X42244385Y96994385D03*
D27*
X49744385Y102594385D03*
X49744385Y91394385D03*
D26*
X56744385Y94494385D03*
X56744385Y99494385D03*
D17*
X160994385Y74994385D03*
D18*
X162994385Y74994385D03*
X160994385Y72994385D03*
X162994385Y72994385D03*
D16*
X161994385Y63994385D03*
D12*
X163944385Y56214385D03*
X163944385Y39984385D03*
X170294385Y56214385D03*
X170294385Y39984385D03*
X157594385Y56214385D03*
X157594385Y39984385D03*
D16*
X86994385Y11994385D03*
D17*
X85994385Y22994385D03*
D18*
X87994385Y22994385D03*
X85994385Y20994385D03*
X87994385Y20994385D03*
D21*
X100894385Y67428785D03*
D16*
X161994385Y11994385D03*
D21*
X149994385Y107994385D03*
D25*
X117244385Y99494385D03*
D26*
X117244385Y94494385D03*
X117244385Y96994385D03*
D27*
X124744385Y102594385D03*
X124744385Y91394385D03*
D26*
X131744385Y94494385D03*
X131744385Y99494385D03*
G36*
X63940697Y97708464D02*
G01*
X63208464Y98440697D01*
X63193585Y98476618D01*
X63193585Y99512152D01*
X63208464Y99548073D01*
X63940697Y100280306D01*
X63976618Y100295185D01*
X65012152Y100295185D01*
X65048073Y100280306D01*
X65780306Y99548073D01*
X65795185Y99512152D01*
X65795185Y98476618D01*
X65780306Y98440697D01*
X65048073Y97708464D01*
X65012152Y97693585D01*
X63976618Y97693585D01*
X63940697Y97708464D01*
G37*
G36*
X73280306Y98440697D02*
G01*
X72548073Y97708464D01*
X72512152Y97693585D01*
X71476618Y97693585D01*
X71440697Y97708464D01*
X70708464Y98440697D01*
X70693585Y98476618D01*
X70693585Y99512152D01*
X70708464Y99548073D01*
X71440697Y100280306D01*
X71476618Y100295185D01*
X72512152Y100295185D01*
X72548073Y100280306D01*
X73280306Y99548073D01*
X73295185Y99512152D01*
X73295185Y98476618D01*
X73280306Y98440697D01*
G37*
G36*
X78940697Y97708464D02*
G01*
X78208464Y98440697D01*
X78193585Y98476618D01*
X78193585Y99512152D01*
X78208464Y99548073D01*
X78940697Y100280306D01*
X78976618Y100295185D01*
X80012152Y100295185D01*
X80048073Y100280306D01*
X80780306Y99548073D01*
X80795185Y99512152D01*
X80795185Y98476618D01*
X80780306Y98440697D01*
X80048073Y97708464D01*
X80012152Y97693585D01*
X78976618Y97693585D01*
X78940697Y97708464D01*
G37*
G36*
X66440697Y95208464D02*
G01*
X65708464Y95940697D01*
X65693585Y95976618D01*
X65693585Y97012152D01*
X65708464Y97048073D01*
X66440697Y97780306D01*
X66476618Y97795185D01*
X67512152Y97795185D01*
X67548073Y97780306D01*
X68280306Y97048073D01*
X68295185Y97012152D01*
X68295185Y95976618D01*
X68280306Y95940697D01*
X67548073Y95208464D01*
X67512152Y95193585D01*
X66476618Y95193585D01*
X66440697Y95208464D01*
G37*
G36*
X76440697Y95208464D02*
G01*
X75708464Y95940697D01*
X75693585Y95976618D01*
X75693585Y97012152D01*
X75708464Y97048073D01*
X76440697Y97780306D01*
X76476618Y97795185D01*
X77512152Y97795185D01*
X77548073Y97780306D01*
X78280306Y97048073D01*
X78295185Y97012152D01*
X78295185Y95976618D01*
X78280306Y95940697D01*
X77548073Y95208464D01*
X77512152Y95193585D01*
X76476618Y95193585D01*
X76440697Y95208464D01*
G37*
G36*
X73558464Y107958464D02*
G01*
X73543585Y107994385D01*
X73543585Y109094385D01*
X73558464Y109130306D01*
X74458464Y110030306D01*
X74494385Y110045185D01*
X75394385Y110045185D01*
X75430306Y110030306D01*
X75445185Y109994385D01*
X75445185Y107994385D01*
X75430306Y107958464D01*
X75394385Y107943585D01*
X73594385Y107943585D01*
X73558464Y107958464D01*
G37*
G36*
G01*
X77945185Y109994385D02*
X77945185Y107994385D01*
G75*
G02*
X77894385Y107943585I-50800J0D01*
G01*
X76094385Y107943585D01*
G75*
G02*
X76043585Y107994385I0J50800D01*
G01*
X76043585Y109994385D01*
G75*
G02*
X76094385Y110045185I50800J0D01*
G01*
X77894385Y110045185D01*
G75*
G02*
X77945185Y109994385I0J-50800D01*
G01*
G37*
G36*
G01*
X67945185Y109994385D02*
X67945185Y107994385D01*
G75*
G02*
X67894385Y107943585I-50800J0D01*
G01*
X66094385Y107943585D01*
G75*
G02*
X66043585Y107994385I0J50800D01*
G01*
X66043585Y109994385D01*
G75*
G02*
X66094385Y110045185I50800J0D01*
G01*
X67894385Y110045185D01*
G75*
G02*
X67945185Y109994385I0J-50800D01*
G01*
G37*
G36*
X68558464Y107958464D02*
G01*
X68543585Y107994385D01*
X68543585Y109994385D01*
X68558464Y110030306D01*
X68594385Y110045185D01*
X69494385Y110045185D01*
X69530306Y110030306D01*
X70430306Y109130306D01*
X70445185Y109094385D01*
X70445185Y107994385D01*
X70430306Y107958464D01*
X70394385Y107943585D01*
X68594385Y107943585D01*
X68558464Y107958464D01*
G37*
D10*
X76988885Y101494385D03*
X74488885Y101494385D03*
D11*
X71988885Y106494385D03*
D10*
X66988885Y101494385D03*
X69488885Y101494385D03*
D22*
X95619385Y33214385D03*
D23*
X95619385Y35754385D03*
X95619385Y38294385D03*
X95619385Y40834385D03*
D22*
X117069385Y71144385D03*
D23*
X117069385Y73684385D03*
D28*
X108994385Y82994385D03*
D18*
X108994385Y80994385D03*
G36*
X69744385Y55944385D02*
G01*
X69744385Y55444385D01*
X69739296Y55444385D01*
X69739296Y55373228D01*
X69699201Y55236677D01*
X69622260Y55116955D01*
X69514705Y55023758D01*
X69385251Y54964639D01*
X69244385Y54944385D01*
X68744385Y54944385D01*
X68603519Y54964639D01*
X68474065Y55023758D01*
X68366510Y55116955D01*
X68289569Y55236677D01*
X68249474Y55373228D01*
X68249474Y55444385D01*
X68244385Y55444385D01*
X68244385Y55944385D01*
X69744385Y55944385D01*
G37*
G36*
X68249474Y56744385D02*
G01*
X68249474Y56815542D01*
X68289569Y56952093D01*
X68366510Y57071815D01*
X68474065Y57165012D01*
X68603519Y57224131D01*
X68744385Y57244385D01*
X69244385Y57244385D01*
X69385251Y57224131D01*
X69514705Y57165012D01*
X69622260Y57071815D01*
X69699201Y56952093D01*
X69739296Y56815542D01*
X69739296Y56744385D01*
X69744385Y56744385D01*
X69744385Y56244385D01*
X68244385Y56244385D01*
X68244385Y56744385D01*
X68249474Y56744385D01*
G37*
D23*
X109124385Y73104385D03*
X106584385Y73104385D03*
D22*
X104044385Y73104385D03*
D23*
X101504385Y73104385D03*
X98964385Y73104385D03*
X96424385Y73104385D03*
X93884385Y73104385D03*
D22*
X91344385Y73104385D03*
D23*
X88804385Y73104385D03*
X86264385Y73104385D03*
X83724385Y73104385D03*
X81184385Y73104385D03*
D22*
X78644385Y73104385D03*
D23*
X76104385Y73104385D03*
X73564385Y73104385D03*
X71024385Y73104385D03*
X68484385Y73104385D03*
D22*
X65944385Y73104385D03*
D23*
X63404385Y73104385D03*
X60864385Y73104385D03*
X60864385Y90884385D03*
X63404385Y90884385D03*
D22*
X65944385Y90884385D03*
D23*
X68484385Y90884385D03*
X71024385Y90884385D03*
X73564385Y90884385D03*
X76104385Y90884385D03*
D22*
X78644385Y90884385D03*
D23*
X81184385Y90884385D03*
X83724385Y90884385D03*
X86264385Y90884385D03*
X88804385Y90884385D03*
D22*
X91344385Y90884385D03*
D23*
X93884385Y90884385D03*
X96424385Y90884385D03*
X98964385Y90884385D03*
X101504385Y90884385D03*
D22*
X104044385Y90884385D03*
D23*
X106584385Y90884385D03*
X109124385Y90884385D03*
G36*
G01*
X32444385Y103244385D02*
X32444385Y101794385D01*
G75*
G02*
X32194385Y101544385I-250000J0D01*
G01*
X30994385Y101544385D01*
G75*
G02*
X30744385Y101794385I0J250000D01*
G01*
X30744385Y103244385D01*
G75*
G02*
X30994385Y103494385I250000J0D01*
G01*
X32194385Y103494385D01*
G75*
G02*
X32444385Y103244385I0J-250000D01*
G01*
G37*
D29*
X29094385Y102519385D03*
X26594385Y102519385D03*
G36*
X67244385Y55944385D02*
G01*
X67244385Y55444385D01*
X67239296Y55444385D01*
X67239296Y55373228D01*
X67199201Y55236677D01*
X67122260Y55116955D01*
X67014705Y55023758D01*
X66885251Y54964639D01*
X66744385Y54944385D01*
X66244385Y54944385D01*
X66103519Y54964639D01*
X65974065Y55023758D01*
X65866510Y55116955D01*
X65789569Y55236677D01*
X65749474Y55373228D01*
X65749474Y55444385D01*
X65744385Y55444385D01*
X65744385Y55944385D01*
X67244385Y55944385D01*
G37*
G36*
X65749474Y56744385D02*
G01*
X65749474Y56815542D01*
X65789569Y56952093D01*
X65866510Y57071815D01*
X65974065Y57165012D01*
X66103519Y57224131D01*
X66244385Y57244385D01*
X66744385Y57244385D01*
X66885251Y57224131D01*
X67014705Y57165012D01*
X67122260Y57071815D01*
X67199201Y56952093D01*
X67239296Y56815542D01*
X67239296Y56744385D01*
X67244385Y56744385D01*
X67244385Y56244385D01*
X65744385Y56244385D01*
X65744385Y56744385D01*
X65749474Y56744385D01*
G37*
G36*
G01*
X25744385Y4619385D02*
X25744385Y3169385D01*
G75*
G02*
X25494385Y2919385I-250000J0D01*
G01*
X24294385Y2919385D01*
G75*
G02*
X24044385Y3169385I0J250000D01*
G01*
X24044385Y4619385D01*
G75*
G02*
X24294385Y4869385I250000J0D01*
G01*
X25494385Y4869385D01*
G75*
G02*
X25744385Y4619385I0J-250000D01*
G01*
G37*
X22394385Y3894385D03*
X19894385Y3894385D03*
D22*
X102244385Y62618785D03*
D23*
X99704385Y62618785D03*
X102244385Y60078785D03*
X99704385Y60078785D03*
X102244385Y57538785D03*
X99704385Y57538785D03*
X102244385Y54998785D03*
X99704385Y54998785D03*
X102244385Y52458785D03*
X99704385Y52458785D03*
X102244385Y49918785D03*
X99704385Y49918785D03*
X102244385Y47378785D03*
X99704385Y47378785D03*
X102244385Y44838785D03*
X99704385Y44838785D03*
X102244385Y42298785D03*
X99704385Y42298785D03*
X102244385Y39758785D03*
X99704385Y39758785D03*
X102244385Y37218785D03*
X99704385Y37218785D03*
X102244385Y34678785D03*
X99704385Y34678785D03*
X102244385Y32138785D03*
X99704385Y32138785D03*
X102244385Y29598785D03*
X99704385Y29598785D03*
X102244385Y27058785D03*
X99704385Y27058785D03*
X102244385Y24518785D03*
X99704385Y24518785D03*
X102244385Y21978785D03*
X99704385Y21978785D03*
X102244385Y19438785D03*
X99704385Y19438785D03*
X102244385Y16898785D03*
X99704385Y16898785D03*
X102244385Y14358785D03*
X99704385Y14358785D03*
D22*
X138549385Y56148785D03*
D23*
X136009385Y56148785D03*
X138549385Y53608785D03*
X136009385Y53608785D03*
X138549385Y51068785D03*
X136009385Y51068785D03*
D22*
X134374385Y11843785D03*
D23*
X134374385Y9303785D03*
X136914385Y11843785D03*
X136914385Y9303785D03*
X139454385Y11843785D03*
X139454385Y9303785D03*
G36*
G01*
X32444385Y95494385D02*
X32444385Y94044385D01*
G75*
G02*
X32194385Y93794385I-250000J0D01*
G01*
X30994385Y93794385D01*
G75*
G02*
X30744385Y94044385I0J250000D01*
G01*
X30744385Y95494385D01*
G75*
G02*
X30994385Y95744385I250000J0D01*
G01*
X32194385Y95744385D01*
G75*
G02*
X32444385Y95494385I0J-250000D01*
G01*
G37*
D29*
X29094385Y94769385D03*
X26594385Y94769385D03*
M02*
