G04 #@! TF.GenerationSoftware,KiCad,Pcbnew,7.0.9-7.0.9~ubuntu23.04.1*
G04 #@! TF.CreationDate,2023-12-04T17:08:18+00:00*
G04 #@! TF.ProjectId,pedalboard-hw,70656461-6c62-46f6-9172-642d68772e6b,3.1.0-RC*
G04 #@! TF.SameCoordinates,Original*
G04 #@! TF.FileFunction,Legend,Bot*
G04 #@! TF.FilePolarity,Positive*
%FSLAX46Y46*%
G04 Gerber Fmt 4.6, Leading zero omitted, Abs format (unit mm)*
G04 Created by KiCad (PCBNEW 7.0.9-7.0.9~ubuntu23.04.1) date 2023-12-04 17:08:18*
%MOMM*%
%LPD*%
G01*
G04 APERTURE LIST*
%ADD10C,0.150000*%
%ADD11C,0.120000*%
%ADD12C,0.100000*%
G04 APERTURE END LIST*
D10*
X2811823Y86553797D02*
X2764204Y86649035D01*
X2764204Y86649035D02*
X2764204Y86791892D01*
X2764204Y86791892D02*
X2811823Y86934749D01*
X2811823Y86934749D02*
X2907061Y87029987D01*
X2907061Y87029987D02*
X3002299Y87077606D01*
X3002299Y87077606D02*
X3192775Y87125225D01*
X3192775Y87125225D02*
X3335632Y87125225D01*
X3335632Y87125225D02*
X3526108Y87077606D01*
X3526108Y87077606D02*
X3621346Y87029987D01*
X3621346Y87029987D02*
X3716585Y86934749D01*
X3716585Y86934749D02*
X3764204Y86791892D01*
X3764204Y86791892D02*
X3764204Y86696654D01*
X3764204Y86696654D02*
X3716585Y86553797D01*
X3716585Y86553797D02*
X3668965Y86506178D01*
X3668965Y86506178D02*
X3335632Y86506178D01*
X3335632Y86506178D02*
X3335632Y86696654D01*
X3764204Y86077606D02*
X2764204Y86077606D01*
X2764204Y86077606D02*
X3764204Y85506178D01*
X3764204Y85506178D02*
X2764204Y85506178D01*
X3764204Y85029987D02*
X2764204Y85029987D01*
X2764204Y85029987D02*
X2764204Y84791892D01*
X2764204Y84791892D02*
X2811823Y84649035D01*
X2811823Y84649035D02*
X2907061Y84553797D01*
X2907061Y84553797D02*
X3002299Y84506178D01*
X3002299Y84506178D02*
X3192775Y84458559D01*
X3192775Y84458559D02*
X3335632Y84458559D01*
X3335632Y84458559D02*
X3526108Y84506178D01*
X3526108Y84506178D02*
X3621346Y84553797D01*
X3621346Y84553797D02*
X3716585Y84649035D01*
X3716585Y84649035D02*
X3764204Y84791892D01*
X3764204Y84791892D02*
X3764204Y85029987D01*
X25076946Y8854974D02*
X25124565Y8759736D01*
X25124565Y8759736D02*
X25124565Y8616879D01*
X25124565Y8616879D02*
X25076946Y8474022D01*
X25076946Y8474022D02*
X24981708Y8378784D01*
X24981708Y8378784D02*
X24886470Y8331165D01*
X24886470Y8331165D02*
X24695994Y8283546D01*
X24695994Y8283546D02*
X24553137Y8283546D01*
X24553137Y8283546D02*
X24362661Y8331165D01*
X24362661Y8331165D02*
X24267423Y8378784D01*
X24267423Y8378784D02*
X24172185Y8474022D01*
X24172185Y8474022D02*
X24124565Y8616879D01*
X24124565Y8616879D02*
X24124565Y8712117D01*
X24124565Y8712117D02*
X24172185Y8854974D01*
X24172185Y8854974D02*
X24219804Y8902593D01*
X24219804Y8902593D02*
X24553137Y8902593D01*
X24553137Y8902593D02*
X24553137Y8712117D01*
X24124565Y9331165D02*
X25124565Y9331165D01*
X25124565Y9331165D02*
X24124565Y9902593D01*
X24124565Y9902593D02*
X25124565Y9902593D01*
X24124565Y10378784D02*
X25124565Y10378784D01*
X25124565Y10378784D02*
X25124565Y10616879D01*
X25124565Y10616879D02*
X25076946Y10759736D01*
X25076946Y10759736D02*
X24981708Y10854974D01*
X24981708Y10854974D02*
X24886470Y10902593D01*
X24886470Y10902593D02*
X24695994Y10950212D01*
X24695994Y10950212D02*
X24553137Y10950212D01*
X24553137Y10950212D02*
X24362661Y10902593D01*
X24362661Y10902593D02*
X24267423Y10854974D01*
X24267423Y10854974D02*
X24172185Y10759736D01*
X24172185Y10759736D02*
X24124565Y10616879D01*
X24124565Y10616879D02*
X24124565Y10378784D01*
X22007365Y8331165D02*
X23007365Y8331165D01*
X23007365Y8331165D02*
X23007365Y8569260D01*
X23007365Y8569260D02*
X22959746Y8712117D01*
X22959746Y8712117D02*
X22864508Y8807355D01*
X22864508Y8807355D02*
X22769270Y8854974D01*
X22769270Y8854974D02*
X22578794Y8902593D01*
X22578794Y8902593D02*
X22435937Y8902593D01*
X22435937Y8902593D02*
X22245461Y8854974D01*
X22245461Y8854974D02*
X22150223Y8807355D01*
X22150223Y8807355D02*
X22054985Y8712117D01*
X22054985Y8712117D02*
X22007365Y8569260D01*
X22007365Y8569260D02*
X22007365Y8331165D01*
X22007365Y9759736D02*
X22531175Y9759736D01*
X22531175Y9759736D02*
X22626413Y9712117D01*
X22626413Y9712117D02*
X22674032Y9616879D01*
X22674032Y9616879D02*
X22674032Y9426403D01*
X22674032Y9426403D02*
X22626413Y9331165D01*
X22054985Y9759736D02*
X22007365Y9664498D01*
X22007365Y9664498D02*
X22007365Y9426403D01*
X22007365Y9426403D02*
X22054985Y9331165D01*
X22054985Y9331165D02*
X22150223Y9283546D01*
X22150223Y9283546D02*
X22245461Y9283546D01*
X22245461Y9283546D02*
X22340699Y9331165D01*
X22340699Y9331165D02*
X22388318Y9426403D01*
X22388318Y9426403D02*
X22388318Y9664498D01*
X22388318Y9664498D02*
X22435937Y9759736D01*
X22674032Y10093070D02*
X22674032Y10474022D01*
X23007365Y10235927D02*
X22150223Y10235927D01*
X22150223Y10235927D02*
X22054985Y10283546D01*
X22054985Y10283546D02*
X22007365Y10378784D01*
X22007365Y10378784D02*
X22007365Y10474022D01*
X22007365Y11235927D02*
X22531175Y11235927D01*
X22531175Y11235927D02*
X22626413Y11188308D01*
X22626413Y11188308D02*
X22674032Y11093070D01*
X22674032Y11093070D02*
X22674032Y10902594D01*
X22674032Y10902594D02*
X22626413Y10807356D01*
X22054985Y11235927D02*
X22007365Y11140689D01*
X22007365Y11140689D02*
X22007365Y10902594D01*
X22007365Y10902594D02*
X22054985Y10807356D01*
X22054985Y10807356D02*
X22150223Y10759737D01*
X22150223Y10759737D02*
X22245461Y10759737D01*
X22245461Y10759737D02*
X22340699Y10807356D01*
X22340699Y10807356D02*
X22388318Y10902594D01*
X22388318Y10902594D02*
X22388318Y11140689D01*
X22388318Y11140689D02*
X22435937Y11235927D01*
X22007365Y12616880D02*
X22054985Y12521642D01*
X22054985Y12521642D02*
X22102604Y12474023D01*
X22102604Y12474023D02*
X22197842Y12426404D01*
X22197842Y12426404D02*
X22483556Y12426404D01*
X22483556Y12426404D02*
X22578794Y12474023D01*
X22578794Y12474023D02*
X22626413Y12521642D01*
X22626413Y12521642D02*
X22674032Y12616880D01*
X22674032Y12616880D02*
X22674032Y12759737D01*
X22674032Y12759737D02*
X22626413Y12854975D01*
X22626413Y12854975D02*
X22578794Y12902594D01*
X22578794Y12902594D02*
X22483556Y12950213D01*
X22483556Y12950213D02*
X22197842Y12950213D01*
X22197842Y12950213D02*
X22102604Y12902594D01*
X22102604Y12902594D02*
X22054985Y12854975D01*
X22054985Y12854975D02*
X22007365Y12759737D01*
X22007365Y12759737D02*
X22007365Y12616880D01*
X22674032Y13807356D02*
X22007365Y13807356D01*
X22674032Y13378785D02*
X22150223Y13378785D01*
X22150223Y13378785D02*
X22054985Y13426404D01*
X22054985Y13426404D02*
X22007365Y13521642D01*
X22007365Y13521642D02*
X22007365Y13664499D01*
X22007365Y13664499D02*
X22054985Y13759737D01*
X22054985Y13759737D02*
X22102604Y13807356D01*
X22674032Y14140690D02*
X22674032Y14521642D01*
X23007365Y14283547D02*
X22150223Y14283547D01*
X22150223Y14283547D02*
X22054985Y14331166D01*
X22054985Y14331166D02*
X22007365Y14426404D01*
X22007365Y14426404D02*
X22007365Y14521642D01*
X60917605Y103564566D02*
X60917605Y104564566D01*
X60441415Y103564566D02*
X60441415Y104564566D01*
X60441415Y104564566D02*
X59869987Y103564566D01*
X59869987Y103564566D02*
X59869987Y104564566D01*
X170141823Y93557797D02*
X170094204Y93653035D01*
X170094204Y93653035D02*
X170094204Y93795892D01*
X170094204Y93795892D02*
X170141823Y93938749D01*
X170141823Y93938749D02*
X170237061Y94033987D01*
X170237061Y94033987D02*
X170332299Y94081606D01*
X170332299Y94081606D02*
X170522775Y94129225D01*
X170522775Y94129225D02*
X170665632Y94129225D01*
X170665632Y94129225D02*
X170856108Y94081606D01*
X170856108Y94081606D02*
X170951346Y94033987D01*
X170951346Y94033987D02*
X171046585Y93938749D01*
X171046585Y93938749D02*
X171094204Y93795892D01*
X171094204Y93795892D02*
X171094204Y93700654D01*
X171094204Y93700654D02*
X171046585Y93557797D01*
X171046585Y93557797D02*
X170998965Y93510178D01*
X170998965Y93510178D02*
X170665632Y93510178D01*
X170665632Y93510178D02*
X170665632Y93700654D01*
X171094204Y93081606D02*
X170094204Y93081606D01*
X170094204Y93081606D02*
X171094204Y92510178D01*
X171094204Y92510178D02*
X170094204Y92510178D01*
X171094204Y92033987D02*
X170094204Y92033987D01*
X170094204Y92033987D02*
X170094204Y91795892D01*
X170094204Y91795892D02*
X170141823Y91653035D01*
X170141823Y91653035D02*
X170237061Y91557797D01*
X170237061Y91557797D02*
X170332299Y91510178D01*
X170332299Y91510178D02*
X170522775Y91462559D01*
X170522775Y91462559D02*
X170665632Y91462559D01*
X170665632Y91462559D02*
X170856108Y91510178D01*
X170856108Y91510178D02*
X170951346Y91557797D01*
X170951346Y91557797D02*
X171046585Y91653035D01*
X171046585Y91653035D02*
X171094204Y91795892D01*
X171094204Y91795892D02*
X171094204Y92033987D01*
X43467129Y77344566D02*
X43276653Y77344566D01*
X43276653Y77344566D02*
X43181415Y77296947D01*
X43181415Y77296947D02*
X43086177Y77201709D01*
X43086177Y77201709D02*
X43038558Y77011233D01*
X43038558Y77011233D02*
X43038558Y76677900D01*
X43038558Y76677900D02*
X43086177Y76487424D01*
X43086177Y76487424D02*
X43181415Y76392185D01*
X43181415Y76392185D02*
X43276653Y76344566D01*
X43276653Y76344566D02*
X43467129Y76344566D01*
X43467129Y76344566D02*
X43562367Y76392185D01*
X43562367Y76392185D02*
X43657605Y76487424D01*
X43657605Y76487424D02*
X43705224Y76677900D01*
X43705224Y76677900D02*
X43705224Y77011233D01*
X43705224Y77011233D02*
X43657605Y77201709D01*
X43657605Y77201709D02*
X43562367Y77296947D01*
X43562367Y77296947D02*
X43467129Y77344566D01*
X42609986Y77011233D02*
X42609986Y76011233D01*
X42609986Y76963614D02*
X42514748Y77011233D01*
X42514748Y77011233D02*
X42324272Y77011233D01*
X42324272Y77011233D02*
X42229034Y76963614D01*
X42229034Y76963614D02*
X42181415Y76915995D01*
X42181415Y76915995D02*
X42133796Y76820757D01*
X42133796Y76820757D02*
X42133796Y76535043D01*
X42133796Y76535043D02*
X42181415Y76439805D01*
X42181415Y76439805D02*
X42229034Y76392185D01*
X42229034Y76392185D02*
X42324272Y76344566D01*
X42324272Y76344566D02*
X42514748Y76344566D01*
X42514748Y76344566D02*
X42609986Y76392185D01*
X41324272Y76392185D02*
X41419510Y76344566D01*
X41419510Y76344566D02*
X41609986Y76344566D01*
X41609986Y76344566D02*
X41705224Y76392185D01*
X41705224Y76392185D02*
X41752843Y76487424D01*
X41752843Y76487424D02*
X41752843Y76868376D01*
X41752843Y76868376D02*
X41705224Y76963614D01*
X41705224Y76963614D02*
X41609986Y77011233D01*
X41609986Y77011233D02*
X41419510Y77011233D01*
X41419510Y77011233D02*
X41324272Y76963614D01*
X41324272Y76963614D02*
X41276653Y76868376D01*
X41276653Y76868376D02*
X41276653Y76773138D01*
X41276653Y76773138D02*
X41752843Y76677900D01*
X40848081Y77011233D02*
X40848081Y76344566D01*
X40848081Y76915995D02*
X40800462Y76963614D01*
X40800462Y76963614D02*
X40705224Y77011233D01*
X40705224Y77011233D02*
X40562367Y77011233D01*
X40562367Y77011233D02*
X40467129Y76963614D01*
X40467129Y76963614D02*
X40419510Y76868376D01*
X40419510Y76868376D02*
X40419510Y76344566D01*
X39181414Y76344566D02*
X39181414Y77344566D01*
X39181414Y77344566D02*
X38800462Y77344566D01*
X38800462Y77344566D02*
X38705224Y77296947D01*
X38705224Y77296947D02*
X38657605Y77249328D01*
X38657605Y77249328D02*
X38609986Y77154090D01*
X38609986Y77154090D02*
X38609986Y77011233D01*
X38609986Y77011233D02*
X38657605Y76915995D01*
X38657605Y76915995D02*
X38705224Y76868376D01*
X38705224Y76868376D02*
X38800462Y76820757D01*
X38800462Y76820757D02*
X39181414Y76820757D01*
X37800462Y76392185D02*
X37895700Y76344566D01*
X37895700Y76344566D02*
X38086176Y76344566D01*
X38086176Y76344566D02*
X38181414Y76392185D01*
X38181414Y76392185D02*
X38229033Y76487424D01*
X38229033Y76487424D02*
X38229033Y76868376D01*
X38229033Y76868376D02*
X38181414Y76963614D01*
X38181414Y76963614D02*
X38086176Y77011233D01*
X38086176Y77011233D02*
X37895700Y77011233D01*
X37895700Y77011233D02*
X37800462Y76963614D01*
X37800462Y76963614D02*
X37752843Y76868376D01*
X37752843Y76868376D02*
X37752843Y76773138D01*
X37752843Y76773138D02*
X38229033Y76677900D01*
X36895700Y76344566D02*
X36895700Y77344566D01*
X36895700Y76392185D02*
X36990938Y76344566D01*
X36990938Y76344566D02*
X37181414Y76344566D01*
X37181414Y76344566D02*
X37276652Y76392185D01*
X37276652Y76392185D02*
X37324271Y76439805D01*
X37324271Y76439805D02*
X37371890Y76535043D01*
X37371890Y76535043D02*
X37371890Y76820757D01*
X37371890Y76820757D02*
X37324271Y76915995D01*
X37324271Y76915995D02*
X37276652Y76963614D01*
X37276652Y76963614D02*
X37181414Y77011233D01*
X37181414Y77011233D02*
X36990938Y77011233D01*
X36990938Y77011233D02*
X36895700Y76963614D01*
X35990938Y76344566D02*
X35990938Y76868376D01*
X35990938Y76868376D02*
X36038557Y76963614D01*
X36038557Y76963614D02*
X36133795Y77011233D01*
X36133795Y77011233D02*
X36324271Y77011233D01*
X36324271Y77011233D02*
X36419509Y76963614D01*
X35990938Y76392185D02*
X36086176Y76344566D01*
X36086176Y76344566D02*
X36324271Y76344566D01*
X36324271Y76344566D02*
X36419509Y76392185D01*
X36419509Y76392185D02*
X36467128Y76487424D01*
X36467128Y76487424D02*
X36467128Y76582662D01*
X36467128Y76582662D02*
X36419509Y76677900D01*
X36419509Y76677900D02*
X36324271Y76725519D01*
X36324271Y76725519D02*
X36086176Y76725519D01*
X36086176Y76725519D02*
X35990938Y76773138D01*
X35371890Y76344566D02*
X35467128Y76392185D01*
X35467128Y76392185D02*
X35514747Y76487424D01*
X35514747Y76487424D02*
X35514747Y77344566D01*
X34990937Y76344566D02*
X34990937Y77344566D01*
X34990937Y76963614D02*
X34895699Y77011233D01*
X34895699Y77011233D02*
X34705223Y77011233D01*
X34705223Y77011233D02*
X34609985Y76963614D01*
X34609985Y76963614D02*
X34562366Y76915995D01*
X34562366Y76915995D02*
X34514747Y76820757D01*
X34514747Y76820757D02*
X34514747Y76535043D01*
X34514747Y76535043D02*
X34562366Y76439805D01*
X34562366Y76439805D02*
X34609985Y76392185D01*
X34609985Y76392185D02*
X34705223Y76344566D01*
X34705223Y76344566D02*
X34895699Y76344566D01*
X34895699Y76344566D02*
X34990937Y76392185D01*
X33943318Y76344566D02*
X34038556Y76392185D01*
X34038556Y76392185D02*
X34086175Y76439805D01*
X34086175Y76439805D02*
X34133794Y76535043D01*
X34133794Y76535043D02*
X34133794Y76820757D01*
X34133794Y76820757D02*
X34086175Y76915995D01*
X34086175Y76915995D02*
X34038556Y76963614D01*
X34038556Y76963614D02*
X33943318Y77011233D01*
X33943318Y77011233D02*
X33800461Y77011233D01*
X33800461Y77011233D02*
X33705223Y76963614D01*
X33705223Y76963614D02*
X33657604Y76915995D01*
X33657604Y76915995D02*
X33609985Y76820757D01*
X33609985Y76820757D02*
X33609985Y76535043D01*
X33609985Y76535043D02*
X33657604Y76439805D01*
X33657604Y76439805D02*
X33705223Y76392185D01*
X33705223Y76392185D02*
X33800461Y76344566D01*
X33800461Y76344566D02*
X33943318Y76344566D01*
X32752842Y76344566D02*
X32752842Y76868376D01*
X32752842Y76868376D02*
X32800461Y76963614D01*
X32800461Y76963614D02*
X32895699Y77011233D01*
X32895699Y77011233D02*
X33086175Y77011233D01*
X33086175Y77011233D02*
X33181413Y76963614D01*
X32752842Y76392185D02*
X32848080Y76344566D01*
X32848080Y76344566D02*
X33086175Y76344566D01*
X33086175Y76344566D02*
X33181413Y76392185D01*
X33181413Y76392185D02*
X33229032Y76487424D01*
X33229032Y76487424D02*
X33229032Y76582662D01*
X33229032Y76582662D02*
X33181413Y76677900D01*
X33181413Y76677900D02*
X33086175Y76725519D01*
X33086175Y76725519D02*
X32848080Y76725519D01*
X32848080Y76725519D02*
X32752842Y76773138D01*
X32276651Y76344566D02*
X32276651Y77011233D01*
X32276651Y76820757D02*
X32229032Y76915995D01*
X32229032Y76915995D02*
X32181413Y76963614D01*
X32181413Y76963614D02*
X32086175Y77011233D01*
X32086175Y77011233D02*
X31990937Y77011233D01*
X31229032Y76344566D02*
X31229032Y77344566D01*
X31229032Y76392185D02*
X31324270Y76344566D01*
X31324270Y76344566D02*
X31514746Y76344566D01*
X31514746Y76344566D02*
X31609984Y76392185D01*
X31609984Y76392185D02*
X31657603Y76439805D01*
X31657603Y76439805D02*
X31705222Y76535043D01*
X31705222Y76535043D02*
X31705222Y76820757D01*
X31705222Y76820757D02*
X31657603Y76915995D01*
X31657603Y76915995D02*
X31609984Y76963614D01*
X31609984Y76963614D02*
X31514746Y77011233D01*
X31514746Y77011233D02*
X31324270Y77011233D01*
X31324270Y77011233D02*
X31229032Y76963614D01*
X43657605Y74734566D02*
X43657605Y75734566D01*
X43229034Y74734566D02*
X43229034Y75258376D01*
X43229034Y75258376D02*
X43276653Y75353614D01*
X43276653Y75353614D02*
X43371891Y75401233D01*
X43371891Y75401233D02*
X43514748Y75401233D01*
X43514748Y75401233D02*
X43609986Y75353614D01*
X43609986Y75353614D02*
X43657605Y75305995D01*
X42895700Y75401233D02*
X42514748Y75401233D01*
X42752843Y75734566D02*
X42752843Y74877424D01*
X42752843Y74877424D02*
X42705224Y74782185D01*
X42705224Y74782185D02*
X42609986Y74734566D01*
X42609986Y74734566D02*
X42514748Y74734566D01*
X42324271Y75401233D02*
X41943319Y75401233D01*
X42181414Y75734566D02*
X42181414Y74877424D01*
X42181414Y74877424D02*
X42133795Y74782185D01*
X42133795Y74782185D02*
X42038557Y74734566D01*
X42038557Y74734566D02*
X41943319Y74734566D01*
X41609985Y75401233D02*
X41609985Y74401233D01*
X41609985Y75353614D02*
X41514747Y75401233D01*
X41514747Y75401233D02*
X41324271Y75401233D01*
X41324271Y75401233D02*
X41229033Y75353614D01*
X41229033Y75353614D02*
X41181414Y75305995D01*
X41181414Y75305995D02*
X41133795Y75210757D01*
X41133795Y75210757D02*
X41133795Y74925043D01*
X41133795Y74925043D02*
X41181414Y74829805D01*
X41181414Y74829805D02*
X41229033Y74782185D01*
X41229033Y74782185D02*
X41324271Y74734566D01*
X41324271Y74734566D02*
X41514747Y74734566D01*
X41514747Y74734566D02*
X41609985Y74782185D01*
X40752842Y74782185D02*
X40657604Y74734566D01*
X40657604Y74734566D02*
X40467128Y74734566D01*
X40467128Y74734566D02*
X40371890Y74782185D01*
X40371890Y74782185D02*
X40324271Y74877424D01*
X40324271Y74877424D02*
X40324271Y74925043D01*
X40324271Y74925043D02*
X40371890Y75020281D01*
X40371890Y75020281D02*
X40467128Y75067900D01*
X40467128Y75067900D02*
X40609985Y75067900D01*
X40609985Y75067900D02*
X40705223Y75115519D01*
X40705223Y75115519D02*
X40752842Y75210757D01*
X40752842Y75210757D02*
X40752842Y75258376D01*
X40752842Y75258376D02*
X40705223Y75353614D01*
X40705223Y75353614D02*
X40609985Y75401233D01*
X40609985Y75401233D02*
X40467128Y75401233D01*
X40467128Y75401233D02*
X40371890Y75353614D01*
X39895699Y74829805D02*
X39848080Y74782185D01*
X39848080Y74782185D02*
X39895699Y74734566D01*
X39895699Y74734566D02*
X39943318Y74782185D01*
X39943318Y74782185D02*
X39895699Y74829805D01*
X39895699Y74829805D02*
X39895699Y74734566D01*
X39895699Y75353614D02*
X39848080Y75305995D01*
X39848080Y75305995D02*
X39895699Y75258376D01*
X39895699Y75258376D02*
X39943318Y75305995D01*
X39943318Y75305995D02*
X39895699Y75353614D01*
X39895699Y75353614D02*
X39895699Y75258376D01*
X38705224Y75782185D02*
X39562366Y74496471D01*
X37657605Y75782185D02*
X38514747Y74496471D01*
X36895700Y75401233D02*
X36895700Y74591709D01*
X36895700Y74591709D02*
X36943319Y74496471D01*
X36943319Y74496471D02*
X36990938Y74448852D01*
X36990938Y74448852D02*
X37086176Y74401233D01*
X37086176Y74401233D02*
X37229033Y74401233D01*
X37229033Y74401233D02*
X37324271Y74448852D01*
X36895700Y74782185D02*
X36990938Y74734566D01*
X36990938Y74734566D02*
X37181414Y74734566D01*
X37181414Y74734566D02*
X37276652Y74782185D01*
X37276652Y74782185D02*
X37324271Y74829805D01*
X37324271Y74829805D02*
X37371890Y74925043D01*
X37371890Y74925043D02*
X37371890Y75210757D01*
X37371890Y75210757D02*
X37324271Y75305995D01*
X37324271Y75305995D02*
X37276652Y75353614D01*
X37276652Y75353614D02*
X37181414Y75401233D01*
X37181414Y75401233D02*
X36990938Y75401233D01*
X36990938Y75401233D02*
X36895700Y75353614D01*
X36419509Y74734566D02*
X36419509Y75401233D01*
X36419509Y75734566D02*
X36467128Y75686947D01*
X36467128Y75686947D02*
X36419509Y75639328D01*
X36419509Y75639328D02*
X36371890Y75686947D01*
X36371890Y75686947D02*
X36419509Y75734566D01*
X36419509Y75734566D02*
X36419509Y75639328D01*
X36086176Y75401233D02*
X35705224Y75401233D01*
X35943319Y75734566D02*
X35943319Y74877424D01*
X35943319Y74877424D02*
X35895700Y74782185D01*
X35895700Y74782185D02*
X35800462Y74734566D01*
X35800462Y74734566D02*
X35705224Y74734566D01*
X35371890Y74734566D02*
X35371890Y75734566D01*
X34943319Y74734566D02*
X34943319Y75258376D01*
X34943319Y75258376D02*
X34990938Y75353614D01*
X34990938Y75353614D02*
X35086176Y75401233D01*
X35086176Y75401233D02*
X35229033Y75401233D01*
X35229033Y75401233D02*
X35324271Y75353614D01*
X35324271Y75353614D02*
X35371890Y75305995D01*
X34038557Y75401233D02*
X34038557Y74734566D01*
X34467128Y75401233D02*
X34467128Y74877424D01*
X34467128Y74877424D02*
X34419509Y74782185D01*
X34419509Y74782185D02*
X34324271Y74734566D01*
X34324271Y74734566D02*
X34181414Y74734566D01*
X34181414Y74734566D02*
X34086176Y74782185D01*
X34086176Y74782185D02*
X34038557Y74829805D01*
X33562366Y74734566D02*
X33562366Y75734566D01*
X33562366Y75353614D02*
X33467128Y75401233D01*
X33467128Y75401233D02*
X33276652Y75401233D01*
X33276652Y75401233D02*
X33181414Y75353614D01*
X33181414Y75353614D02*
X33133795Y75305995D01*
X33133795Y75305995D02*
X33086176Y75210757D01*
X33086176Y75210757D02*
X33086176Y74925043D01*
X33086176Y74925043D02*
X33133795Y74829805D01*
X33133795Y74829805D02*
X33181414Y74782185D01*
X33181414Y74782185D02*
X33276652Y74734566D01*
X33276652Y74734566D02*
X33467128Y74734566D01*
X33467128Y74734566D02*
X33562366Y74782185D01*
X32657604Y74829805D02*
X32609985Y74782185D01*
X32609985Y74782185D02*
X32657604Y74734566D01*
X32657604Y74734566D02*
X32705223Y74782185D01*
X32705223Y74782185D02*
X32657604Y74829805D01*
X32657604Y74829805D02*
X32657604Y74734566D01*
X31752843Y74782185D02*
X31848081Y74734566D01*
X31848081Y74734566D02*
X32038557Y74734566D01*
X32038557Y74734566D02*
X32133795Y74782185D01*
X32133795Y74782185D02*
X32181414Y74829805D01*
X32181414Y74829805D02*
X32229033Y74925043D01*
X32229033Y74925043D02*
X32229033Y75210757D01*
X32229033Y75210757D02*
X32181414Y75305995D01*
X32181414Y75305995D02*
X32133795Y75353614D01*
X32133795Y75353614D02*
X32038557Y75401233D01*
X32038557Y75401233D02*
X31848081Y75401233D01*
X31848081Y75401233D02*
X31752843Y75353614D01*
X31181414Y74734566D02*
X31276652Y74782185D01*
X31276652Y74782185D02*
X31324271Y74829805D01*
X31324271Y74829805D02*
X31371890Y74925043D01*
X31371890Y74925043D02*
X31371890Y75210757D01*
X31371890Y75210757D02*
X31324271Y75305995D01*
X31324271Y75305995D02*
X31276652Y75353614D01*
X31276652Y75353614D02*
X31181414Y75401233D01*
X31181414Y75401233D02*
X31038557Y75401233D01*
X31038557Y75401233D02*
X30943319Y75353614D01*
X30943319Y75353614D02*
X30895700Y75305995D01*
X30895700Y75305995D02*
X30848081Y75210757D01*
X30848081Y75210757D02*
X30848081Y74925043D01*
X30848081Y74925043D02*
X30895700Y74829805D01*
X30895700Y74829805D02*
X30943319Y74782185D01*
X30943319Y74782185D02*
X31038557Y74734566D01*
X31038557Y74734566D02*
X31181414Y74734566D01*
X30419509Y74734566D02*
X30419509Y75401233D01*
X30419509Y75305995D02*
X30371890Y75353614D01*
X30371890Y75353614D02*
X30276652Y75401233D01*
X30276652Y75401233D02*
X30133795Y75401233D01*
X30133795Y75401233D02*
X30038557Y75353614D01*
X30038557Y75353614D02*
X29990938Y75258376D01*
X29990938Y75258376D02*
X29990938Y74734566D01*
X29990938Y75258376D02*
X29943319Y75353614D01*
X29943319Y75353614D02*
X29848081Y75401233D01*
X29848081Y75401233D02*
X29705224Y75401233D01*
X29705224Y75401233D02*
X29609985Y75353614D01*
X29609985Y75353614D02*
X29562366Y75258376D01*
X29562366Y75258376D02*
X29562366Y74734566D01*
X28371891Y75782185D02*
X29229033Y74496471D01*
X28038557Y75401233D02*
X28038557Y74401233D01*
X28038557Y75353614D02*
X27943319Y75401233D01*
X27943319Y75401233D02*
X27752843Y75401233D01*
X27752843Y75401233D02*
X27657605Y75353614D01*
X27657605Y75353614D02*
X27609986Y75305995D01*
X27609986Y75305995D02*
X27562367Y75210757D01*
X27562367Y75210757D02*
X27562367Y74925043D01*
X27562367Y74925043D02*
X27609986Y74829805D01*
X27609986Y74829805D02*
X27657605Y74782185D01*
X27657605Y74782185D02*
X27752843Y74734566D01*
X27752843Y74734566D02*
X27943319Y74734566D01*
X27943319Y74734566D02*
X28038557Y74782185D01*
X26752843Y74782185D02*
X26848081Y74734566D01*
X26848081Y74734566D02*
X27038557Y74734566D01*
X27038557Y74734566D02*
X27133795Y74782185D01*
X27133795Y74782185D02*
X27181414Y74877424D01*
X27181414Y74877424D02*
X27181414Y75258376D01*
X27181414Y75258376D02*
X27133795Y75353614D01*
X27133795Y75353614D02*
X27038557Y75401233D01*
X27038557Y75401233D02*
X26848081Y75401233D01*
X26848081Y75401233D02*
X26752843Y75353614D01*
X26752843Y75353614D02*
X26705224Y75258376D01*
X26705224Y75258376D02*
X26705224Y75163138D01*
X26705224Y75163138D02*
X27181414Y75067900D01*
X25848081Y74734566D02*
X25848081Y75734566D01*
X25848081Y74782185D02*
X25943319Y74734566D01*
X25943319Y74734566D02*
X26133795Y74734566D01*
X26133795Y74734566D02*
X26229033Y74782185D01*
X26229033Y74782185D02*
X26276652Y74829805D01*
X26276652Y74829805D02*
X26324271Y74925043D01*
X26324271Y74925043D02*
X26324271Y75210757D01*
X26324271Y75210757D02*
X26276652Y75305995D01*
X26276652Y75305995D02*
X26229033Y75353614D01*
X26229033Y75353614D02*
X26133795Y75401233D01*
X26133795Y75401233D02*
X25943319Y75401233D01*
X25943319Y75401233D02*
X25848081Y75353614D01*
X24943319Y74734566D02*
X24943319Y75258376D01*
X24943319Y75258376D02*
X24990938Y75353614D01*
X24990938Y75353614D02*
X25086176Y75401233D01*
X25086176Y75401233D02*
X25276652Y75401233D01*
X25276652Y75401233D02*
X25371890Y75353614D01*
X24943319Y74782185D02*
X25038557Y74734566D01*
X25038557Y74734566D02*
X25276652Y74734566D01*
X25276652Y74734566D02*
X25371890Y74782185D01*
X25371890Y74782185D02*
X25419509Y74877424D01*
X25419509Y74877424D02*
X25419509Y74972662D01*
X25419509Y74972662D02*
X25371890Y75067900D01*
X25371890Y75067900D02*
X25276652Y75115519D01*
X25276652Y75115519D02*
X25038557Y75115519D01*
X25038557Y75115519D02*
X24943319Y75163138D01*
X24324271Y74734566D02*
X24419509Y74782185D01*
X24419509Y74782185D02*
X24467128Y74877424D01*
X24467128Y74877424D02*
X24467128Y75734566D01*
X23943318Y74734566D02*
X23943318Y75734566D01*
X23943318Y75353614D02*
X23848080Y75401233D01*
X23848080Y75401233D02*
X23657604Y75401233D01*
X23657604Y75401233D02*
X23562366Y75353614D01*
X23562366Y75353614D02*
X23514747Y75305995D01*
X23514747Y75305995D02*
X23467128Y75210757D01*
X23467128Y75210757D02*
X23467128Y74925043D01*
X23467128Y74925043D02*
X23514747Y74829805D01*
X23514747Y74829805D02*
X23562366Y74782185D01*
X23562366Y74782185D02*
X23657604Y74734566D01*
X23657604Y74734566D02*
X23848080Y74734566D01*
X23848080Y74734566D02*
X23943318Y74782185D01*
X22895699Y74734566D02*
X22990937Y74782185D01*
X22990937Y74782185D02*
X23038556Y74829805D01*
X23038556Y74829805D02*
X23086175Y74925043D01*
X23086175Y74925043D02*
X23086175Y75210757D01*
X23086175Y75210757D02*
X23038556Y75305995D01*
X23038556Y75305995D02*
X22990937Y75353614D01*
X22990937Y75353614D02*
X22895699Y75401233D01*
X22895699Y75401233D02*
X22752842Y75401233D01*
X22752842Y75401233D02*
X22657604Y75353614D01*
X22657604Y75353614D02*
X22609985Y75305995D01*
X22609985Y75305995D02*
X22562366Y75210757D01*
X22562366Y75210757D02*
X22562366Y74925043D01*
X22562366Y74925043D02*
X22609985Y74829805D01*
X22609985Y74829805D02*
X22657604Y74782185D01*
X22657604Y74782185D02*
X22752842Y74734566D01*
X22752842Y74734566D02*
X22895699Y74734566D01*
X21705223Y74734566D02*
X21705223Y75258376D01*
X21705223Y75258376D02*
X21752842Y75353614D01*
X21752842Y75353614D02*
X21848080Y75401233D01*
X21848080Y75401233D02*
X22038556Y75401233D01*
X22038556Y75401233D02*
X22133794Y75353614D01*
X21705223Y74782185D02*
X21800461Y74734566D01*
X21800461Y74734566D02*
X22038556Y74734566D01*
X22038556Y74734566D02*
X22133794Y74782185D01*
X22133794Y74782185D02*
X22181413Y74877424D01*
X22181413Y74877424D02*
X22181413Y74972662D01*
X22181413Y74972662D02*
X22133794Y75067900D01*
X22133794Y75067900D02*
X22038556Y75115519D01*
X22038556Y75115519D02*
X21800461Y75115519D01*
X21800461Y75115519D02*
X21705223Y75163138D01*
X21229032Y74734566D02*
X21229032Y75401233D01*
X21229032Y75210757D02*
X21181413Y75305995D01*
X21181413Y75305995D02*
X21133794Y75353614D01*
X21133794Y75353614D02*
X21038556Y75401233D01*
X21038556Y75401233D02*
X20943318Y75401233D01*
X20181413Y74734566D02*
X20181413Y75734566D01*
X20181413Y74782185D02*
X20276651Y74734566D01*
X20276651Y74734566D02*
X20467127Y74734566D01*
X20467127Y74734566D02*
X20562365Y74782185D01*
X20562365Y74782185D02*
X20609984Y74829805D01*
X20609984Y74829805D02*
X20657603Y74925043D01*
X20657603Y74925043D02*
X20657603Y75210757D01*
X20657603Y75210757D02*
X20609984Y75305995D01*
X20609984Y75305995D02*
X20562365Y75353614D01*
X20562365Y75353614D02*
X20467127Y75401233D01*
X20467127Y75401233D02*
X20276651Y75401233D01*
X20276651Y75401233D02*
X20181413Y75353614D01*
X43324272Y73648376D02*
X43181415Y73600757D01*
X43181415Y73600757D02*
X43133796Y73553138D01*
X43133796Y73553138D02*
X43086177Y73457900D01*
X43086177Y73457900D02*
X43086177Y73315043D01*
X43086177Y73315043D02*
X43133796Y73219805D01*
X43133796Y73219805D02*
X43181415Y73172185D01*
X43181415Y73172185D02*
X43276653Y73124566D01*
X43276653Y73124566D02*
X43657605Y73124566D01*
X43657605Y73124566D02*
X43657605Y74124566D01*
X43657605Y74124566D02*
X43324272Y74124566D01*
X43324272Y74124566D02*
X43229034Y74076947D01*
X43229034Y74076947D02*
X43181415Y74029328D01*
X43181415Y74029328D02*
X43133796Y73934090D01*
X43133796Y73934090D02*
X43133796Y73838852D01*
X43133796Y73838852D02*
X43181415Y73743614D01*
X43181415Y73743614D02*
X43229034Y73695995D01*
X43229034Y73695995D02*
X43324272Y73648376D01*
X43324272Y73648376D02*
X43657605Y73648376D01*
X42086177Y73219805D02*
X42133796Y73172185D01*
X42133796Y73172185D02*
X42276653Y73124566D01*
X42276653Y73124566D02*
X42371891Y73124566D01*
X42371891Y73124566D02*
X42514748Y73172185D01*
X42514748Y73172185D02*
X42609986Y73267424D01*
X42609986Y73267424D02*
X42657605Y73362662D01*
X42657605Y73362662D02*
X42705224Y73553138D01*
X42705224Y73553138D02*
X42705224Y73695995D01*
X42705224Y73695995D02*
X42657605Y73886471D01*
X42657605Y73886471D02*
X42609986Y73981709D01*
X42609986Y73981709D02*
X42514748Y74076947D01*
X42514748Y74076947D02*
X42371891Y74124566D01*
X42371891Y74124566D02*
X42276653Y74124566D01*
X42276653Y74124566D02*
X42133796Y74076947D01*
X42133796Y74076947D02*
X42086177Y74029328D01*
X41324272Y73648376D02*
X41181415Y73600757D01*
X41181415Y73600757D02*
X41133796Y73553138D01*
X41133796Y73553138D02*
X41086177Y73457900D01*
X41086177Y73457900D02*
X41086177Y73315043D01*
X41086177Y73315043D02*
X41133796Y73219805D01*
X41133796Y73219805D02*
X41181415Y73172185D01*
X41181415Y73172185D02*
X41276653Y73124566D01*
X41276653Y73124566D02*
X41657605Y73124566D01*
X41657605Y73124566D02*
X41657605Y74124566D01*
X41657605Y74124566D02*
X41324272Y74124566D01*
X41324272Y74124566D02*
X41229034Y74076947D01*
X41229034Y74076947D02*
X41181415Y74029328D01*
X41181415Y74029328D02*
X41133796Y73934090D01*
X41133796Y73934090D02*
X41133796Y73838852D01*
X41133796Y73838852D02*
X41181415Y73743614D01*
X41181415Y73743614D02*
X41229034Y73695995D01*
X41229034Y73695995D02*
X41324272Y73648376D01*
X41324272Y73648376D02*
X41657605Y73648376D01*
X40657605Y73219805D02*
X40609986Y73172185D01*
X40609986Y73172185D02*
X40657605Y73124566D01*
X40657605Y73124566D02*
X40705224Y73172185D01*
X40705224Y73172185D02*
X40657605Y73219805D01*
X40657605Y73219805D02*
X40657605Y73124566D01*
X40657605Y73743614D02*
X40609986Y73695995D01*
X40609986Y73695995D02*
X40657605Y73648376D01*
X40657605Y73648376D02*
X40705224Y73695995D01*
X40705224Y73695995D02*
X40657605Y73743614D01*
X40657605Y73743614D02*
X40657605Y73648376D01*
X39514748Y74124566D02*
X38895701Y74124566D01*
X38895701Y74124566D02*
X39229034Y73743614D01*
X39229034Y73743614D02*
X39086177Y73743614D01*
X39086177Y73743614D02*
X38990939Y73695995D01*
X38990939Y73695995D02*
X38943320Y73648376D01*
X38943320Y73648376D02*
X38895701Y73553138D01*
X38895701Y73553138D02*
X38895701Y73315043D01*
X38895701Y73315043D02*
X38943320Y73219805D01*
X38943320Y73219805D02*
X38990939Y73172185D01*
X38990939Y73172185D02*
X39086177Y73124566D01*
X39086177Y73124566D02*
X39371891Y73124566D01*
X39371891Y73124566D02*
X39467129Y73172185D01*
X39467129Y73172185D02*
X39514748Y73219805D01*
X38467129Y73219805D02*
X38419510Y73172185D01*
X38419510Y73172185D02*
X38467129Y73124566D01*
X38467129Y73124566D02*
X38514748Y73172185D01*
X38514748Y73172185D02*
X38467129Y73219805D01*
X38467129Y73219805D02*
X38467129Y73124566D01*
X37467130Y73124566D02*
X38038558Y73124566D01*
X37752844Y73124566D02*
X37752844Y74124566D01*
X37752844Y74124566D02*
X37848082Y73981709D01*
X37848082Y73981709D02*
X37943320Y73886471D01*
X37943320Y73886471D02*
X38038558Y73838852D01*
X37038558Y73219805D02*
X36990939Y73172185D01*
X36990939Y73172185D02*
X37038558Y73124566D01*
X37038558Y73124566D02*
X37086177Y73172185D01*
X37086177Y73172185D02*
X37038558Y73219805D01*
X37038558Y73219805D02*
X37038558Y73124566D01*
X36371892Y74124566D02*
X36276654Y74124566D01*
X36276654Y74124566D02*
X36181416Y74076947D01*
X36181416Y74076947D02*
X36133797Y74029328D01*
X36133797Y74029328D02*
X36086178Y73934090D01*
X36086178Y73934090D02*
X36038559Y73743614D01*
X36038559Y73743614D02*
X36038559Y73505519D01*
X36038559Y73505519D02*
X36086178Y73315043D01*
X36086178Y73315043D02*
X36133797Y73219805D01*
X36133797Y73219805D02*
X36181416Y73172185D01*
X36181416Y73172185D02*
X36276654Y73124566D01*
X36276654Y73124566D02*
X36371892Y73124566D01*
X36371892Y73124566D02*
X36467130Y73172185D01*
X36467130Y73172185D02*
X36514749Y73219805D01*
X36514749Y73219805D02*
X36562368Y73315043D01*
X36562368Y73315043D02*
X36609987Y73505519D01*
X36609987Y73505519D02*
X36609987Y73743614D01*
X36609987Y73743614D02*
X36562368Y73934090D01*
X36562368Y73934090D02*
X36514749Y74029328D01*
X36514749Y74029328D02*
X36467130Y74076947D01*
X36467130Y74076947D02*
X36371892Y74124566D01*
X35609987Y73505519D02*
X34848083Y73505519D01*
X33800464Y73124566D02*
X34133797Y73600757D01*
X34371892Y73124566D02*
X34371892Y74124566D01*
X34371892Y74124566D02*
X33990940Y74124566D01*
X33990940Y74124566D02*
X33895702Y74076947D01*
X33895702Y74076947D02*
X33848083Y74029328D01*
X33848083Y74029328D02*
X33800464Y73934090D01*
X33800464Y73934090D02*
X33800464Y73791233D01*
X33800464Y73791233D02*
X33848083Y73695995D01*
X33848083Y73695995D02*
X33895702Y73648376D01*
X33895702Y73648376D02*
X33990940Y73600757D01*
X33990940Y73600757D02*
X34371892Y73600757D01*
X32800464Y73219805D02*
X32848083Y73172185D01*
X32848083Y73172185D02*
X32990940Y73124566D01*
X32990940Y73124566D02*
X33086178Y73124566D01*
X33086178Y73124566D02*
X33229035Y73172185D01*
X33229035Y73172185D02*
X33324273Y73267424D01*
X33324273Y73267424D02*
X33371892Y73362662D01*
X33371892Y73362662D02*
X33419511Y73553138D01*
X33419511Y73553138D02*
X33419511Y73695995D01*
X33419511Y73695995D02*
X33371892Y73886471D01*
X33371892Y73886471D02*
X33324273Y73981709D01*
X33324273Y73981709D02*
X33229035Y74076947D01*
X33229035Y74076947D02*
X33086178Y74124566D01*
X33086178Y74124566D02*
X32990940Y74124566D01*
X32990940Y74124566D02*
X32848083Y74076947D01*
X32848083Y74076947D02*
X32800464Y74029328D01*
X16074204Y87660463D02*
X17074204Y87327130D01*
X17074204Y87327130D02*
X16074204Y86993797D01*
X17074204Y86089035D02*
X16598013Y86422368D01*
X17074204Y86660463D02*
X16074204Y86660463D01*
X16074204Y86660463D02*
X16074204Y86279511D01*
X16074204Y86279511D02*
X16121823Y86184273D01*
X16121823Y86184273D02*
X16169442Y86136654D01*
X16169442Y86136654D02*
X16264680Y86089035D01*
X16264680Y86089035D02*
X16407537Y86089035D01*
X16407537Y86089035D02*
X16502775Y86136654D01*
X16502775Y86136654D02*
X16550394Y86184273D01*
X16550394Y86184273D02*
X16598013Y86279511D01*
X16598013Y86279511D02*
X16598013Y86660463D01*
X16550394Y85660463D02*
X16550394Y85327130D01*
X17074204Y85184273D02*
X17074204Y85660463D01*
X17074204Y85660463D02*
X16074204Y85660463D01*
X16074204Y85660463D02*
X16074204Y85184273D01*
X16550394Y84422368D02*
X16550394Y84755701D01*
X17074204Y84755701D02*
X16074204Y84755701D01*
X16074204Y84755701D02*
X16074204Y84279511D01*
X20505518Y8331165D02*
X20505518Y9093069D01*
X20124565Y8712117D02*
X20886470Y8712117D01*
X21124565Y10045450D02*
X21124565Y9569260D01*
X21124565Y9569260D02*
X20648375Y9521641D01*
X20648375Y9521641D02*
X20695994Y9569260D01*
X20695994Y9569260D02*
X20743613Y9664498D01*
X20743613Y9664498D02*
X20743613Y9902593D01*
X20743613Y9902593D02*
X20695994Y9997831D01*
X20695994Y9997831D02*
X20648375Y10045450D01*
X20648375Y10045450D02*
X20553137Y10093069D01*
X20553137Y10093069D02*
X20315042Y10093069D01*
X20315042Y10093069D02*
X20219804Y10045450D01*
X20219804Y10045450D02*
X20172185Y9997831D01*
X20172185Y9997831D02*
X20124565Y9902593D01*
X20124565Y9902593D02*
X20124565Y9664498D01*
X20124565Y9664498D02*
X20172185Y9569260D01*
X20172185Y9569260D02*
X20219804Y9521641D01*
X21124565Y10378784D02*
X20124565Y10712117D01*
X20124565Y10712117D02*
X21124565Y11045450D01*
X37848558Y107565757D02*
X37848558Y109065757D01*
X37848558Y109065757D02*
X37348558Y107994328D01*
X37348558Y107994328D02*
X36848558Y109065757D01*
X36848558Y109065757D02*
X36848558Y107565757D01*
X36134272Y107565757D02*
X36134272Y109065757D01*
X35419986Y107565757D02*
X35419986Y109065757D01*
X35419986Y109065757D02*
X35062843Y109065757D01*
X35062843Y109065757D02*
X34848557Y108994328D01*
X34848557Y108994328D02*
X34705700Y108851471D01*
X34705700Y108851471D02*
X34634271Y108708614D01*
X34634271Y108708614D02*
X34562843Y108422900D01*
X34562843Y108422900D02*
X34562843Y108208614D01*
X34562843Y108208614D02*
X34634271Y107922900D01*
X34634271Y107922900D02*
X34705700Y107780043D01*
X34705700Y107780043D02*
X34848557Y107637185D01*
X34848557Y107637185D02*
X35062843Y107565757D01*
X35062843Y107565757D02*
X35419986Y107565757D01*
X33919986Y107565757D02*
X33919986Y109065757D01*
X116305004Y73806006D02*
X115638337Y73806006D01*
X115305004Y73806006D02*
X115352623Y73853625D01*
X115352623Y73853625D02*
X115400242Y73806006D01*
X115400242Y73806006D02*
X115352623Y73758387D01*
X115352623Y73758387D02*
X115305004Y73806006D01*
X115305004Y73806006D02*
X115400242Y73806006D01*
X115638337Y73329816D02*
X116305004Y73329816D01*
X115733575Y73329816D02*
X115685956Y73282197D01*
X115685956Y73282197D02*
X115638337Y73186959D01*
X115638337Y73186959D02*
X115638337Y73044102D01*
X115638337Y73044102D02*
X115685956Y72948864D01*
X115685956Y72948864D02*
X115781194Y72901245D01*
X115781194Y72901245D02*
X116305004Y72901245D01*
X34181415Y1124566D02*
X34657605Y1124566D01*
X34657605Y1124566D02*
X34657605Y2124566D01*
X33848081Y1648376D02*
X33514748Y1648376D01*
X33371891Y1124566D02*
X33848081Y1124566D01*
X33848081Y1124566D02*
X33848081Y2124566D01*
X33848081Y2124566D02*
X33371891Y2124566D01*
X32943319Y1124566D02*
X32943319Y2124566D01*
X32943319Y2124566D02*
X32705224Y2124566D01*
X32705224Y2124566D02*
X32562367Y2076947D01*
X32562367Y2076947D02*
X32467129Y1981709D01*
X32467129Y1981709D02*
X32419510Y1886471D01*
X32419510Y1886471D02*
X32371891Y1695995D01*
X32371891Y1695995D02*
X32371891Y1553138D01*
X32371891Y1553138D02*
X32419510Y1362662D01*
X32419510Y1362662D02*
X32467129Y1267424D01*
X32467129Y1267424D02*
X32562367Y1172185D01*
X32562367Y1172185D02*
X32705224Y1124566D01*
X32705224Y1124566D02*
X32943319Y1124566D01*
X30990938Y2124566D02*
X30800462Y2124566D01*
X30800462Y2124566D02*
X30705224Y2076947D01*
X30705224Y2076947D02*
X30609986Y1981709D01*
X30609986Y1981709D02*
X30562367Y1791233D01*
X30562367Y1791233D02*
X30562367Y1457900D01*
X30562367Y1457900D02*
X30609986Y1267424D01*
X30609986Y1267424D02*
X30705224Y1172185D01*
X30705224Y1172185D02*
X30800462Y1124566D01*
X30800462Y1124566D02*
X30990938Y1124566D01*
X30990938Y1124566D02*
X31086176Y1172185D01*
X31086176Y1172185D02*
X31181414Y1267424D01*
X31181414Y1267424D02*
X31229033Y1457900D01*
X31229033Y1457900D02*
X31229033Y1791233D01*
X31229033Y1791233D02*
X31181414Y1981709D01*
X31181414Y1981709D02*
X31086176Y2076947D01*
X31086176Y2076947D02*
X30990938Y2124566D01*
X30133795Y2124566D02*
X30133795Y1315043D01*
X30133795Y1315043D02*
X30086176Y1219805D01*
X30086176Y1219805D02*
X30038557Y1172185D01*
X30038557Y1172185D02*
X29943319Y1124566D01*
X29943319Y1124566D02*
X29752843Y1124566D01*
X29752843Y1124566D02*
X29657605Y1172185D01*
X29657605Y1172185D02*
X29609986Y1219805D01*
X29609986Y1219805D02*
X29562367Y1315043D01*
X29562367Y1315043D02*
X29562367Y2124566D01*
X29229033Y2124566D02*
X28657605Y2124566D01*
X28943319Y1124566D02*
X28943319Y2124566D01*
X164642604Y93878406D02*
X163642604Y93878406D01*
X164642604Y93402216D02*
X163642604Y93402216D01*
X163642604Y93402216D02*
X164642604Y92830788D01*
X164642604Y92830788D02*
X163642604Y92830788D01*
X39687129Y104304566D02*
X39496653Y104304566D01*
X39496653Y104304566D02*
X39401415Y104256947D01*
X39401415Y104256947D02*
X39306177Y104161709D01*
X39306177Y104161709D02*
X39258558Y103971233D01*
X39258558Y103971233D02*
X39258558Y103637900D01*
X39258558Y103637900D02*
X39306177Y103447424D01*
X39306177Y103447424D02*
X39401415Y103352185D01*
X39401415Y103352185D02*
X39496653Y103304566D01*
X39496653Y103304566D02*
X39687129Y103304566D01*
X39687129Y103304566D02*
X39782367Y103352185D01*
X39782367Y103352185D02*
X39877605Y103447424D01*
X39877605Y103447424D02*
X39925224Y103637900D01*
X39925224Y103637900D02*
X39925224Y103971233D01*
X39925224Y103971233D02*
X39877605Y104161709D01*
X39877605Y104161709D02*
X39782367Y104256947D01*
X39782367Y104256947D02*
X39687129Y104304566D01*
X38829986Y104304566D02*
X38829986Y103495043D01*
X38829986Y103495043D02*
X38782367Y103399805D01*
X38782367Y103399805D02*
X38734748Y103352185D01*
X38734748Y103352185D02*
X38639510Y103304566D01*
X38639510Y103304566D02*
X38449034Y103304566D01*
X38449034Y103304566D02*
X38353796Y103352185D01*
X38353796Y103352185D02*
X38306177Y103399805D01*
X38306177Y103399805D02*
X38258558Y103495043D01*
X38258558Y103495043D02*
X38258558Y104304566D01*
X37925224Y104304566D02*
X37353796Y104304566D01*
X37639510Y103304566D02*
X37639510Y104304566D01*
X10844204Y87257606D02*
X9844204Y87257606D01*
X10844204Y86781416D02*
X9844204Y86781416D01*
X9844204Y86781416D02*
X10844204Y86209988D01*
X10844204Y86209988D02*
X9844204Y86209988D01*
X157191004Y94122863D02*
X158191004Y93789530D01*
X158191004Y93789530D02*
X157191004Y93456197D01*
X158191004Y92551435D02*
X157714813Y92884768D01*
X158191004Y93122863D02*
X157191004Y93122863D01*
X157191004Y93122863D02*
X157191004Y92741911D01*
X157191004Y92741911D02*
X157238623Y92646673D01*
X157238623Y92646673D02*
X157286242Y92599054D01*
X157286242Y92599054D02*
X157381480Y92551435D01*
X157381480Y92551435D02*
X157524337Y92551435D01*
X157524337Y92551435D02*
X157619575Y92599054D01*
X157619575Y92599054D02*
X157667194Y92646673D01*
X157667194Y92646673D02*
X157714813Y92741911D01*
X157714813Y92741911D02*
X157714813Y93122863D01*
X157667194Y92122863D02*
X157667194Y91789530D01*
X158191004Y91646673D02*
X158191004Y92122863D01*
X158191004Y92122863D02*
X157191004Y92122863D01*
X157191004Y92122863D02*
X157191004Y91646673D01*
X157667194Y90884768D02*
X157667194Y91218101D01*
X158191004Y91218101D02*
X157191004Y91218101D01*
X157191004Y91218101D02*
X157191004Y90741911D01*
X98387242Y88044805D02*
X98434861Y87997185D01*
X98434861Y87997185D02*
X98577718Y87949566D01*
X98577718Y87949566D02*
X98672956Y87949566D01*
X98672956Y87949566D02*
X98815813Y87997185D01*
X98815813Y87997185D02*
X98911051Y88092424D01*
X98911051Y88092424D02*
X98958670Y88187662D01*
X98958670Y88187662D02*
X99006289Y88378138D01*
X99006289Y88378138D02*
X99006289Y88520995D01*
X99006289Y88520995D02*
X98958670Y88711471D01*
X98958670Y88711471D02*
X98911051Y88806709D01*
X98911051Y88806709D02*
X98815813Y88901947D01*
X98815813Y88901947D02*
X98672956Y88949566D01*
X98672956Y88949566D02*
X98577718Y88949566D01*
X98577718Y88949566D02*
X98434861Y88901947D01*
X98434861Y88901947D02*
X98387242Y88854328D01*
X98006289Y88854328D02*
X97958670Y88901947D01*
X97958670Y88901947D02*
X97863432Y88949566D01*
X97863432Y88949566D02*
X97625337Y88949566D01*
X97625337Y88949566D02*
X97530099Y88901947D01*
X97530099Y88901947D02*
X97482480Y88854328D01*
X97482480Y88854328D02*
X97434861Y88759090D01*
X97434861Y88759090D02*
X97434861Y88663852D01*
X97434861Y88663852D02*
X97482480Y88520995D01*
X97482480Y88520995D02*
X98053908Y87949566D01*
X98053908Y87949566D02*
X97434861Y87949566D01*
X97101527Y88949566D02*
X96434861Y88949566D01*
X96434861Y88949566D02*
X96863432Y87949566D01*
X8732479Y7039566D02*
X8732479Y8039566D01*
X8732479Y7563376D02*
X8161051Y7563376D01*
X8161051Y7039566D02*
X8161051Y8039566D01*
X7161051Y7039566D02*
X7732479Y7039566D01*
X7446765Y7039566D02*
X7446765Y8039566D01*
X7446765Y8039566D02*
X7542003Y7896709D01*
X7542003Y7896709D02*
X7637241Y7801471D01*
X7637241Y7801471D02*
X7732479Y7753852D01*
X6827717Y8039566D02*
X6208670Y8039566D01*
X6208670Y8039566D02*
X6542003Y7658614D01*
X6542003Y7658614D02*
X6399146Y7658614D01*
X6399146Y7658614D02*
X6303908Y7610995D01*
X6303908Y7610995D02*
X6256289Y7563376D01*
X6256289Y7563376D02*
X6208670Y7468138D01*
X6208670Y7468138D02*
X6208670Y7230043D01*
X6208670Y7230043D02*
X6256289Y7134805D01*
X6256289Y7134805D02*
X6303908Y7087185D01*
X6303908Y7087185D02*
X6399146Y7039566D01*
X6399146Y7039566D02*
X6684860Y7039566D01*
X6684860Y7039566D02*
X6780098Y7087185D01*
X6780098Y7087185D02*
X6827717Y7134805D01*
X83256289Y58939566D02*
X83256289Y59939566D01*
X83256289Y59463376D02*
X82684861Y59463376D01*
X82684861Y58939566D02*
X82684861Y59939566D01*
X82161051Y58939566D02*
X81970575Y58939566D01*
X81970575Y58939566D02*
X81875337Y58987185D01*
X81875337Y58987185D02*
X81827718Y59034805D01*
X81827718Y59034805D02*
X81732480Y59177662D01*
X81732480Y59177662D02*
X81684861Y59368138D01*
X81684861Y59368138D02*
X81684861Y59749090D01*
X81684861Y59749090D02*
X81732480Y59844328D01*
X81732480Y59844328D02*
X81780099Y59891947D01*
X81780099Y59891947D02*
X81875337Y59939566D01*
X81875337Y59939566D02*
X82065813Y59939566D01*
X82065813Y59939566D02*
X82161051Y59891947D01*
X82161051Y59891947D02*
X82208670Y59844328D01*
X82208670Y59844328D02*
X82256289Y59749090D01*
X82256289Y59749090D02*
X82256289Y59510995D01*
X82256289Y59510995D02*
X82208670Y59415757D01*
X82208670Y59415757D02*
X82161051Y59368138D01*
X82161051Y59368138D02*
X82065813Y59320519D01*
X82065813Y59320519D02*
X81875337Y59320519D01*
X81875337Y59320519D02*
X81780099Y59368138D01*
X81780099Y59368138D02*
X81732480Y59415757D01*
X81732480Y59415757D02*
X81684861Y59510995D01*
X8732479Y58539566D02*
X8732479Y59539566D01*
X8732479Y59063376D02*
X8161051Y59063376D01*
X8161051Y58539566D02*
X8161051Y59539566D01*
X7161051Y58539566D02*
X7732479Y58539566D01*
X7446765Y58539566D02*
X7446765Y59539566D01*
X7446765Y59539566D02*
X7542003Y59396709D01*
X7542003Y59396709D02*
X7637241Y59301471D01*
X7637241Y59301471D02*
X7732479Y59253852D01*
X6542003Y59539566D02*
X6446765Y59539566D01*
X6446765Y59539566D02*
X6351527Y59491947D01*
X6351527Y59491947D02*
X6303908Y59444328D01*
X6303908Y59444328D02*
X6256289Y59349090D01*
X6256289Y59349090D02*
X6208670Y59158614D01*
X6208670Y59158614D02*
X6208670Y58920519D01*
X6208670Y58920519D02*
X6256289Y58730043D01*
X6256289Y58730043D02*
X6303908Y58634805D01*
X6303908Y58634805D02*
X6351527Y58587185D01*
X6351527Y58587185D02*
X6446765Y58539566D01*
X6446765Y58539566D02*
X6542003Y58539566D01*
X6542003Y58539566D02*
X6637241Y58587185D01*
X6637241Y58587185D02*
X6684860Y58634805D01*
X6684860Y58634805D02*
X6732479Y58730043D01*
X6732479Y58730043D02*
X6780098Y58920519D01*
X6780098Y58920519D02*
X6780098Y59158614D01*
X6780098Y59158614D02*
X6732479Y59349090D01*
X6732479Y59349090D02*
X6684860Y59444328D01*
X6684860Y59444328D02*
X6637241Y59491947D01*
X6637241Y59491947D02*
X6542003Y59539566D01*
X158756289Y59039566D02*
X158756289Y60039566D01*
X158756289Y59563376D02*
X158184861Y59563376D01*
X158184861Y59039566D02*
X158184861Y60039566D01*
X157565813Y59610995D02*
X157661051Y59658614D01*
X157661051Y59658614D02*
X157708670Y59706233D01*
X157708670Y59706233D02*
X157756289Y59801471D01*
X157756289Y59801471D02*
X157756289Y59849090D01*
X157756289Y59849090D02*
X157708670Y59944328D01*
X157708670Y59944328D02*
X157661051Y59991947D01*
X157661051Y59991947D02*
X157565813Y60039566D01*
X157565813Y60039566D02*
X157375337Y60039566D01*
X157375337Y60039566D02*
X157280099Y59991947D01*
X157280099Y59991947D02*
X157232480Y59944328D01*
X157232480Y59944328D02*
X157184861Y59849090D01*
X157184861Y59849090D02*
X157184861Y59801471D01*
X157184861Y59801471D02*
X157232480Y59706233D01*
X157232480Y59706233D02*
X157280099Y59658614D01*
X157280099Y59658614D02*
X157375337Y59610995D01*
X157375337Y59610995D02*
X157565813Y59610995D01*
X157565813Y59610995D02*
X157661051Y59563376D01*
X157661051Y59563376D02*
X157708670Y59515757D01*
X157708670Y59515757D02*
X157756289Y59420519D01*
X157756289Y59420519D02*
X157756289Y59230043D01*
X157756289Y59230043D02*
X157708670Y59134805D01*
X157708670Y59134805D02*
X157661051Y59087185D01*
X157661051Y59087185D02*
X157565813Y59039566D01*
X157565813Y59039566D02*
X157375337Y59039566D01*
X157375337Y59039566D02*
X157280099Y59087185D01*
X157280099Y59087185D02*
X157232480Y59134805D01*
X157232480Y59134805D02*
X157184861Y59230043D01*
X157184861Y59230043D02*
X157184861Y59420519D01*
X157184861Y59420519D02*
X157232480Y59515757D01*
X157232480Y59515757D02*
X157280099Y59563376D01*
X157280099Y59563376D02*
X157375337Y59610995D01*
X84232479Y7039566D02*
X84232479Y8039566D01*
X84232479Y7563376D02*
X83661051Y7563376D01*
X83661051Y7039566D02*
X83661051Y8039566D01*
X82661051Y7039566D02*
X83232479Y7039566D01*
X82946765Y7039566D02*
X82946765Y8039566D01*
X82946765Y8039566D02*
X83042003Y7896709D01*
X83042003Y7896709D02*
X83137241Y7801471D01*
X83137241Y7801471D02*
X83232479Y7753852D01*
X82280098Y7944328D02*
X82232479Y7991947D01*
X82232479Y7991947D02*
X82137241Y8039566D01*
X82137241Y8039566D02*
X81899146Y8039566D01*
X81899146Y8039566D02*
X81803908Y7991947D01*
X81803908Y7991947D02*
X81756289Y7944328D01*
X81756289Y7944328D02*
X81708670Y7849090D01*
X81708670Y7849090D02*
X81708670Y7753852D01*
X81708670Y7753852D02*
X81756289Y7610995D01*
X81756289Y7610995D02*
X82327717Y7039566D01*
X82327717Y7039566D02*
X81708670Y7039566D01*
X55943908Y104389566D02*
X55943908Y103675281D01*
X55943908Y103675281D02*
X55991527Y103532424D01*
X55991527Y103532424D02*
X56086765Y103437185D01*
X56086765Y103437185D02*
X56229622Y103389566D01*
X56229622Y103389566D02*
X56324860Y103389566D01*
X55515336Y104294328D02*
X55467717Y104341947D01*
X55467717Y104341947D02*
X55372479Y104389566D01*
X55372479Y104389566D02*
X55134384Y104389566D01*
X55134384Y104389566D02*
X55039146Y104341947D01*
X55039146Y104341947D02*
X54991527Y104294328D01*
X54991527Y104294328D02*
X54943908Y104199090D01*
X54943908Y104199090D02*
X54943908Y104103852D01*
X54943908Y104103852D02*
X54991527Y103960995D01*
X54991527Y103960995D02*
X55562955Y103389566D01*
X55562955Y103389566D02*
X54943908Y103389566D01*
X54610574Y104389566D02*
X53991527Y104389566D01*
X53991527Y104389566D02*
X54324860Y104008614D01*
X54324860Y104008614D02*
X54182003Y104008614D01*
X54182003Y104008614D02*
X54086765Y103960995D01*
X54086765Y103960995D02*
X54039146Y103913376D01*
X54039146Y103913376D02*
X53991527Y103818138D01*
X53991527Y103818138D02*
X53991527Y103580043D01*
X53991527Y103580043D02*
X54039146Y103484805D01*
X54039146Y103484805D02*
X54086765Y103437185D01*
X54086765Y103437185D02*
X54182003Y103389566D01*
X54182003Y103389566D02*
X54467717Y103389566D01*
X54467717Y103389566D02*
X54562955Y103437185D01*
X54562955Y103437185D02*
X54610574Y103484805D01*
X29803908Y5539566D02*
X29803908Y4825281D01*
X29803908Y4825281D02*
X29851527Y4682424D01*
X29851527Y4682424D02*
X29946765Y4587185D01*
X29946765Y4587185D02*
X30089622Y4539566D01*
X30089622Y4539566D02*
X30184860Y4539566D01*
X29375336Y5444328D02*
X29327717Y5491947D01*
X29327717Y5491947D02*
X29232479Y5539566D01*
X29232479Y5539566D02*
X28994384Y5539566D01*
X28994384Y5539566D02*
X28899146Y5491947D01*
X28899146Y5491947D02*
X28851527Y5444328D01*
X28851527Y5444328D02*
X28803908Y5349090D01*
X28803908Y5349090D02*
X28803908Y5253852D01*
X28803908Y5253852D02*
X28851527Y5110995D01*
X28851527Y5110995D02*
X29422955Y4539566D01*
X29422955Y4539566D02*
X28803908Y4539566D01*
X27946765Y5539566D02*
X28137241Y5539566D01*
X28137241Y5539566D02*
X28232479Y5491947D01*
X28232479Y5491947D02*
X28280098Y5444328D01*
X28280098Y5444328D02*
X28375336Y5301471D01*
X28375336Y5301471D02*
X28422955Y5110995D01*
X28422955Y5110995D02*
X28422955Y4730043D01*
X28422955Y4730043D02*
X28375336Y4634805D01*
X28375336Y4634805D02*
X28327717Y4587185D01*
X28327717Y4587185D02*
X28232479Y4539566D01*
X28232479Y4539566D02*
X28042003Y4539566D01*
X28042003Y4539566D02*
X27946765Y4587185D01*
X27946765Y4587185D02*
X27899146Y4634805D01*
X27899146Y4634805D02*
X27851527Y4730043D01*
X27851527Y4730043D02*
X27851527Y4968138D01*
X27851527Y4968138D02*
X27899146Y5063376D01*
X27899146Y5063376D02*
X27946765Y5110995D01*
X27946765Y5110995D02*
X28042003Y5158614D01*
X28042003Y5158614D02*
X28232479Y5158614D01*
X28232479Y5158614D02*
X28327717Y5110995D01*
X28327717Y5110995D02*
X28375336Y5063376D01*
X28375336Y5063376D02*
X28422955Y4968138D01*
X158732479Y7039566D02*
X158732479Y8039566D01*
X158732479Y7563376D02*
X158161051Y7563376D01*
X158161051Y7039566D02*
X158161051Y8039566D01*
X157161051Y7039566D02*
X157732479Y7039566D01*
X157446765Y7039566D02*
X157446765Y8039566D01*
X157446765Y8039566D02*
X157542003Y7896709D01*
X157542003Y7896709D02*
X157637241Y7801471D01*
X157637241Y7801471D02*
X157732479Y7753852D01*
X156208670Y7039566D02*
X156780098Y7039566D01*
X156494384Y7039566D02*
X156494384Y8039566D01*
X156494384Y8039566D02*
X156589622Y7896709D01*
X156589622Y7896709D02*
X156684860Y7801471D01*
X156684860Y7801471D02*
X156780098Y7753852D01*
X106103908Y63039566D02*
X106103908Y62325281D01*
X106103908Y62325281D02*
X106151527Y62182424D01*
X106151527Y62182424D02*
X106246765Y62087185D01*
X106246765Y62087185D02*
X106389622Y62039566D01*
X106389622Y62039566D02*
X106484860Y62039566D01*
X105675336Y62944328D02*
X105627717Y62991947D01*
X105627717Y62991947D02*
X105532479Y63039566D01*
X105532479Y63039566D02*
X105294384Y63039566D01*
X105294384Y63039566D02*
X105199146Y62991947D01*
X105199146Y62991947D02*
X105151527Y62944328D01*
X105151527Y62944328D02*
X105103908Y62849090D01*
X105103908Y62849090D02*
X105103908Y62753852D01*
X105103908Y62753852D02*
X105151527Y62610995D01*
X105151527Y62610995D02*
X105722955Y62039566D01*
X105722955Y62039566D02*
X105103908Y62039566D01*
X104199146Y63039566D02*
X104675336Y63039566D01*
X104675336Y63039566D02*
X104722955Y62563376D01*
X104722955Y62563376D02*
X104675336Y62610995D01*
X104675336Y62610995D02*
X104580098Y62658614D01*
X104580098Y62658614D02*
X104342003Y62658614D01*
X104342003Y62658614D02*
X104246765Y62610995D01*
X104246765Y62610995D02*
X104199146Y62563376D01*
X104199146Y62563376D02*
X104151527Y62468138D01*
X104151527Y62468138D02*
X104151527Y62230043D01*
X104151527Y62230043D02*
X104199146Y62134805D01*
X104199146Y62134805D02*
X104246765Y62087185D01*
X104246765Y62087185D02*
X104342003Y62039566D01*
X104342003Y62039566D02*
X104580098Y62039566D01*
X104580098Y62039566D02*
X104675336Y62087185D01*
X104675336Y62087185D02*
X104722955Y62134805D01*
X45043908Y104384566D02*
X45043908Y103670281D01*
X45043908Y103670281D02*
X45091527Y103527424D01*
X45091527Y103527424D02*
X45186765Y103432185D01*
X45186765Y103432185D02*
X45329622Y103384566D01*
X45329622Y103384566D02*
X45424860Y103384566D01*
X44615336Y104289328D02*
X44567717Y104336947D01*
X44567717Y104336947D02*
X44472479Y104384566D01*
X44472479Y104384566D02*
X44234384Y104384566D01*
X44234384Y104384566D02*
X44139146Y104336947D01*
X44139146Y104336947D02*
X44091527Y104289328D01*
X44091527Y104289328D02*
X44043908Y104194090D01*
X44043908Y104194090D02*
X44043908Y104098852D01*
X44043908Y104098852D02*
X44091527Y103955995D01*
X44091527Y103955995D02*
X44662955Y103384566D01*
X44662955Y103384566D02*
X44043908Y103384566D01*
X43186765Y104051233D02*
X43186765Y103384566D01*
X43424860Y104432185D02*
X43662955Y103717900D01*
X43662955Y103717900D02*
X43043908Y103717900D01*
D11*
X49784385Y104644385D02*
X49784385Y105894385D01*
X50074385Y110904385D02*
X60194385Y110904385D01*
X50074385Y104934385D02*
X50074385Y110904385D01*
X50084385Y107194385D02*
X50834385Y107194385D01*
X50084385Y105694385D02*
X51884385Y105694385D01*
X50084385Y104944385D02*
X50084385Y105694385D01*
X50834385Y110144385D02*
X55134385Y110144385D01*
X50834385Y107194385D02*
X50834385Y110144385D01*
X51034385Y104644385D02*
X49784385Y104644385D01*
X51884385Y105694385D02*
X51884385Y104944385D01*
X51884385Y104944385D02*
X50084385Y104944385D01*
X53384385Y105694385D02*
X56884385Y105694385D01*
X53384385Y104944385D02*
X53384385Y105694385D01*
X56884385Y105694385D02*
X56884385Y104944385D01*
X56884385Y104944385D02*
X53384385Y104944385D01*
X58384385Y105694385D02*
X60184385Y105694385D01*
X58384385Y104944385D02*
X58384385Y105694385D01*
X59434385Y110144385D02*
X55134385Y110144385D01*
X59434385Y107194385D02*
X59434385Y110144385D01*
X60184385Y107194385D02*
X59434385Y107194385D01*
X60184385Y105694385D02*
X60184385Y104944385D01*
X60184385Y104944385D02*
X58384385Y104944385D01*
X60194385Y110904385D02*
X60194385Y104934385D01*
X60194385Y104934385D02*
X50074385Y104934385D01*
X27744385Y6644385D02*
X27744385Y5394385D01*
X27454385Y384385D02*
X17334385Y384385D01*
X27454385Y6354385D02*
X27454385Y384385D01*
X27444385Y4094385D02*
X26694385Y4094385D01*
X27444385Y5594385D02*
X25644385Y5594385D01*
X27444385Y6344385D02*
X27444385Y5594385D01*
X26694385Y1144385D02*
X22394385Y1144385D01*
X26694385Y4094385D02*
X26694385Y1144385D01*
X26494385Y6644385D02*
X27744385Y6644385D01*
X25644385Y5594385D02*
X25644385Y6344385D01*
X25644385Y6344385D02*
X27444385Y6344385D01*
X24144385Y5594385D02*
X20644385Y5594385D01*
X24144385Y6344385D02*
X24144385Y5594385D01*
X20644385Y5594385D02*
X20644385Y6344385D01*
X20644385Y6344385D02*
X24144385Y6344385D01*
X19144385Y5594385D02*
X17344385Y5594385D01*
X19144385Y6344385D02*
X19144385Y5594385D01*
X18094385Y1144385D02*
X22394385Y1144385D01*
X18094385Y4094385D02*
X18094385Y1144385D01*
X17344385Y4094385D02*
X18094385Y4094385D01*
X17344385Y5594385D02*
X17344385Y6344385D01*
X17344385Y6344385D02*
X19144385Y6344385D01*
X17334385Y384385D02*
X17334385Y6354385D01*
X17334385Y6354385D02*
X27454385Y6354385D01*
D12*
X153474385Y67488785D02*
X153474385Y9488785D01*
X149724385Y5988785D02*
X149974385Y5988785D01*
D11*
X140784385Y7973785D02*
X140784385Y13173785D01*
X139879385Y54878785D02*
X139879385Y49738785D01*
X139879385Y57478785D02*
X139879385Y56148785D01*
X138549385Y57478785D02*
X139879385Y57478785D01*
X137279385Y54878785D02*
X139879385Y54878785D01*
X137279385Y57478785D02*
X137279385Y54878785D01*
X135644385Y10573785D02*
X135644385Y13173785D01*
X135644385Y13173785D02*
X140784385Y13173785D01*
X134679385Y49738785D02*
X139879385Y49738785D01*
X134679385Y57478785D02*
X137279385Y57478785D01*
X134679385Y57478785D02*
X134679385Y49738785D01*
X133044385Y7973785D02*
X140784385Y7973785D01*
X133044385Y7973785D02*
X133044385Y10573785D01*
X133044385Y10573785D02*
X135644385Y10573785D01*
X133044385Y11843785D02*
X133044385Y13173785D01*
X133044385Y13173785D02*
X134374385Y13173785D01*
X103574385Y61348785D02*
X103574385Y13028785D01*
X103574385Y63948785D02*
X103574385Y62618785D01*
X102244385Y63948785D02*
X103574385Y63948785D01*
X100974385Y61348785D02*
X103574385Y61348785D01*
X100974385Y63948785D02*
X100974385Y61348785D01*
D12*
X100974385Y70988785D02*
X149974385Y70988785D01*
X100974385Y70988785D02*
X100474385Y70989142D01*
X100224385Y5988785D02*
X149724385Y5988785D01*
D11*
X98374385Y13028785D02*
X103574385Y13028785D01*
X98374385Y63948785D02*
X100974385Y63948785D01*
X98374385Y63948785D02*
X98374385Y13028785D01*
D12*
X96974385Y9488785D02*
X96974385Y67438785D01*
X149974385Y5988785D02*
G75*
G03*
X153474385Y9488785I1J3499999D01*
G01*
X153474385Y67488785D02*
G75*
G03*
X149974385Y70988785I-3499999J1D01*
G01*
X96974385Y9488785D02*
G75*
G03*
X100474385Y5988785I3500000J0D01*
G01*
X100474385Y70989142D02*
G75*
G03*
X96974385Y67438785I0J-3500357D01*
G01*
X151625385Y9488785D02*
G75*
G03*
X151625385Y9488785I-1651000J0D01*
G01*
X151625385Y67488785D02*
G75*
G03*
X151625385Y67488785I-1651000J0D01*
G01*
X102625385Y9488785D02*
G75*
G03*
X102625385Y9488785I-1651000J0D01*
G01*
X102625385Y67488785D02*
G75*
G03*
X102625385Y67488785I-1651000J0D01*
G01*
D11*
X38884385Y104639385D02*
X38884385Y105889385D01*
X39174385Y110899385D02*
X49294385Y110899385D01*
X39174385Y104929385D02*
X39174385Y110899385D01*
X39184385Y107189385D02*
X39934385Y107189385D01*
X39184385Y105689385D02*
X40984385Y105689385D01*
X39184385Y104939385D02*
X39184385Y105689385D01*
X39934385Y110139385D02*
X44234385Y110139385D01*
X39934385Y107189385D02*
X39934385Y110139385D01*
X40134385Y104639385D02*
X38884385Y104639385D01*
X40984385Y105689385D02*
X40984385Y104939385D01*
X40984385Y104939385D02*
X39184385Y104939385D01*
X42484385Y105689385D02*
X45984385Y105689385D01*
X42484385Y104939385D02*
X42484385Y105689385D01*
X45984385Y105689385D02*
X45984385Y104939385D01*
X45984385Y104939385D02*
X42484385Y104939385D01*
X47484385Y105689385D02*
X49284385Y105689385D01*
X47484385Y104939385D02*
X47484385Y105689385D01*
X48534385Y110139385D02*
X44234385Y110139385D01*
X48534385Y107189385D02*
X48534385Y110139385D01*
X49284385Y107189385D02*
X48534385Y107189385D01*
X49284385Y105689385D02*
X49284385Y104939385D01*
X49284385Y104939385D02*
X47484385Y104939385D01*
X49294385Y110899385D02*
X49294385Y104929385D01*
X49294385Y104929385D02*
X39174385Y104929385D01*
M02*
