G04 #@! TF.GenerationSoftware,KiCad,Pcbnew,7.0.8-7.0.8~ubuntu23.04.1*
G04 #@! TF.CreationDate,2023-10-22T12:56:06+00:00*
G04 #@! TF.ProjectId,pedalboard-hw,70656461-6c62-46f6-9172-642d68772e6b,3.0.2-RC*
G04 #@! TF.SameCoordinates,Original*
G04 #@! TF.FileFunction,Soldermask,Top*
G04 #@! TF.FilePolarity,Negative*
%FSLAX46Y46*%
G04 Gerber Fmt 4.6, Leading zero omitted, Abs format (unit mm)*
G04 Created by KiCad (PCBNEW 7.0.8-7.0.8~ubuntu23.04.1) date 2023-10-22 12:56:06*
%MOMM*%
%LPD*%
G01*
G04 APERTURE LIST*
%ADD10C,0.010000*%
%ADD11C,2.700000*%
%ADD12C,3.000000*%
%ADD13O,1.200000X2.200000*%
%ADD14O,2.200000X1.200000*%
%ADD15R,4.400000X1.800000*%
%ADD16O,4.000000X1.800000*%
%ADD17O,1.800000X4.000000*%
%ADD18R,2.000000X1.500000*%
%ADD19R,2.000000X3.800000*%
%ADD20R,2.600000X2.600000*%
%ADD21C,2.600000*%
%ADD22C,6.000000*%
%ADD23R,1.350000X1.350000*%
%ADD24O,1.350000X1.350000*%
%ADD25R,1.500000X1.000000*%
%ADD26R,1.700000X1.700000*%
%ADD27O,1.700000X1.700000*%
%ADD28C,0.600000*%
%ADD29R,2.000000X1.800000*%
%ADD30R,0.840000X0.840000*%
%ADD31C,0.840000*%
%ADD32O,0.850000X1.850000*%
%ADD33R,2.000000X2.000000*%
%ADD34C,2.000000*%
%ADD35C,3.200000*%
%ADD36R,5.500000X1.430000*%
%ADD37R,1.300000X0.800000*%
%ADD38R,5.600000X2.100000*%
%ADD39C,6.100000*%
%ADD40R,0.700000X0.200000*%
%ADD41R,0.650000X0.400000*%
%ADD42R,0.400000X0.650000*%
%ADD43O,1.700000X1.950000*%
G04 APERTURE END LIST*
D10*
X140354385Y104236015D02*
X139551705Y104236015D01*
X139551705Y106634385D01*
X140354385Y106634385D01*
X140354385Y104236015D01*
G36*
X140354385Y104236015D02*
G01*
X139551705Y104236015D01*
X139551705Y106634385D01*
X140354385Y106634385D01*
X140354385Y104236015D01*
G37*
X140354385Y99032945D02*
X139553515Y99032945D01*
X139553515Y101434385D01*
X140354385Y101434385D01*
X140354385Y99032945D01*
G36*
X140354385Y99032945D02*
G01*
X139553515Y99032945D01*
X139553515Y101434385D01*
X140354385Y101434385D01*
X140354385Y99032945D01*
G37*
X141604385Y104236945D02*
X140802465Y104236945D01*
X140802465Y106634385D01*
X141604385Y106634385D01*
X141604385Y104236945D01*
G36*
X141604385Y104236945D02*
G01*
X140802465Y104236945D01*
X140802465Y106634385D01*
X141604385Y106634385D01*
X141604385Y104236945D01*
G37*
X141604385Y99031595D02*
X140803615Y99031595D01*
X140803615Y101434385D01*
X141604385Y101434385D01*
X141604385Y99031595D01*
G36*
X141604385Y99031595D02*
G01*
X140803615Y99031595D01*
X140803615Y101434385D01*
X141604385Y101434385D01*
X141604385Y99031595D01*
G37*
X142904385Y104236385D02*
X142104742Y104236385D01*
X142104742Y106634385D01*
X142904385Y106634385D01*
X142904385Y104236385D01*
G36*
X142904385Y104236385D02*
G01*
X142104742Y104236385D01*
X142104742Y106634385D01*
X142904385Y106634385D01*
X142904385Y104236385D01*
G37*
X142904385Y99026925D02*
X142104875Y99026925D01*
X142104875Y101434385D01*
X142904385Y101434385D01*
X142904385Y99026925D01*
G36*
X142904385Y99026925D02*
G01*
X142104875Y99026925D01*
X142104875Y101434385D01*
X142904385Y101434385D01*
X142904385Y99026925D01*
G37*
X144154385Y104236105D02*
X143356225Y104236105D01*
X143356225Y106634385D01*
X144154385Y106634385D01*
X144154385Y104236105D01*
G36*
X144154385Y104236105D02*
G01*
X143356225Y104236105D01*
X143356225Y106634385D01*
X144154385Y106634385D01*
X144154385Y104236105D01*
G37*
G36*
G01*
X122944385Y86269385D02*
X122944385Y87219385D01*
G75*
G02*
X123194385Y87469385I250000J0D01*
G01*
X123694385Y87469385D01*
G75*
G02*
X123944385Y87219385I0J-250000D01*
G01*
X123944385Y86269385D01*
G75*
G02*
X123694385Y86019385I-250000J0D01*
G01*
X123194385Y86019385D01*
G75*
G02*
X122944385Y86269385I0J250000D01*
G01*
G37*
G36*
G01*
X124844385Y86269385D02*
X124844385Y87219385D01*
G75*
G02*
X125094385Y87469385I250000J0D01*
G01*
X125594385Y87469385D01*
G75*
G02*
X125844385Y87219385I0J-250000D01*
G01*
X125844385Y86269385D01*
G75*
G02*
X125594385Y86019385I-250000J0D01*
G01*
X125094385Y86019385D01*
G75*
G02*
X124844385Y86269385I0J250000D01*
G01*
G37*
G36*
G01*
X96294385Y86269385D02*
X96294385Y87219385D01*
G75*
G02*
X96544385Y87469385I250000J0D01*
G01*
X97044385Y87469385D01*
G75*
G02*
X97294385Y87219385I0J-250000D01*
G01*
X97294385Y86269385D01*
G75*
G02*
X97044385Y86019385I-250000J0D01*
G01*
X96544385Y86019385D01*
G75*
G02*
X96294385Y86269385I0J250000D01*
G01*
G37*
G36*
G01*
X98194385Y86269385D02*
X98194385Y87219385D01*
G75*
G02*
X98444385Y87469385I250000J0D01*
G01*
X98944385Y87469385D01*
G75*
G02*
X99194385Y87219385I0J-250000D01*
G01*
X99194385Y86269385D01*
G75*
G02*
X98944385Y86019385I-250000J0D01*
G01*
X98444385Y86019385D01*
G75*
G02*
X98194385Y86269385I0J250000D01*
G01*
G37*
D11*
X149994385Y9494385D03*
D12*
X6994385Y107994385D03*
G36*
G01*
X78709385Y86084385D02*
X78709385Y86984385D01*
G75*
G02*
X78959385Y87234385I250000J0D01*
G01*
X79484385Y87234385D01*
G75*
G02*
X79734385Y86984385I0J-250000D01*
G01*
X79734385Y86084385D01*
G75*
G02*
X79484385Y85834385I-250000J0D01*
G01*
X78959385Y85834385D01*
G75*
G02*
X78709385Y86084385I0J250000D01*
G01*
G37*
G36*
G01*
X80534385Y86084385D02*
X80534385Y86984385D01*
G75*
G02*
X80784385Y87234385I250000J0D01*
G01*
X81309385Y87234385D01*
G75*
G02*
X81559385Y86984385I0J-250000D01*
G01*
X81559385Y86084385D01*
G75*
G02*
X81309385Y85834385I-250000J0D01*
G01*
X80784385Y85834385D01*
G75*
G02*
X80534385Y86084385I0J250000D01*
G01*
G37*
D13*
X106994385Y101494385D03*
X104494385Y101494385D03*
D14*
X101994385Y106494385D03*
D13*
X96994385Y101494385D03*
X99494385Y101494385D03*
G36*
G01*
X81909385Y89694385D02*
X80959385Y89694385D01*
G75*
G02*
X80709385Y89944385I0J250000D01*
G01*
X80709385Y90444385D01*
G75*
G02*
X80959385Y90694385I250000J0D01*
G01*
X81909385Y90694385D01*
G75*
G02*
X82159385Y90444385I0J-250000D01*
G01*
X82159385Y89944385D01*
G75*
G02*
X81909385Y89694385I-250000J0D01*
G01*
G37*
G36*
G01*
X81909385Y91594385D02*
X80959385Y91594385D01*
G75*
G02*
X80709385Y91844385I0J250000D01*
G01*
X80709385Y92344385D01*
G75*
G02*
X80959385Y92594385I250000J0D01*
G01*
X81909385Y92594385D01*
G75*
G02*
X82159385Y92344385I0J-250000D01*
G01*
X82159385Y91844385D01*
G75*
G02*
X81909385Y91594385I-250000J0D01*
G01*
G37*
G36*
G01*
X139619385Y74044385D02*
X139619385Y73144385D01*
G75*
G02*
X139369385Y72894385I-250000J0D01*
G01*
X138844385Y72894385D01*
G75*
G02*
X138594385Y73144385I0J250000D01*
G01*
X138594385Y74044385D01*
G75*
G02*
X138844385Y74294385I250000J0D01*
G01*
X139369385Y74294385D01*
G75*
G02*
X139619385Y74044385I0J-250000D01*
G01*
G37*
G36*
G01*
X137794385Y74044385D02*
X137794385Y73144385D01*
G75*
G02*
X137544385Y72894385I-250000J0D01*
G01*
X137019385Y72894385D01*
G75*
G02*
X136769385Y73144385I0J250000D01*
G01*
X136769385Y74044385D01*
G75*
G02*
X137019385Y74294385I250000J0D01*
G01*
X137544385Y74294385D01*
G75*
G02*
X137794385Y74044385I0J-250000D01*
G01*
G37*
D12*
X171994385Y101994385D03*
G36*
G01*
X121244385Y77294385D02*
X122544385Y77294385D01*
G75*
G02*
X122794385Y77044385I0J-250000D01*
G01*
X122794385Y75044385D01*
G75*
G02*
X122544385Y74794385I-250000J0D01*
G01*
X121244385Y74794385D01*
G75*
G02*
X120994385Y75044385I0J250000D01*
G01*
X120994385Y77044385D01*
G75*
G02*
X121244385Y77294385I250000J0D01*
G01*
G37*
G36*
G01*
X121244385Y73294385D02*
X122544385Y73294385D01*
G75*
G02*
X122794385Y73044385I0J-250000D01*
G01*
X122794385Y71044385D01*
G75*
G02*
X122544385Y70794385I-250000J0D01*
G01*
X121244385Y70794385D01*
G75*
G02*
X120994385Y71044385I0J250000D01*
G01*
X120994385Y73044385D01*
G75*
G02*
X121244385Y73294385I250000J0D01*
G01*
G37*
G36*
G01*
X75506885Y74694385D02*
X75506885Y75594385D01*
G75*
G02*
X75756885Y75844385I250000J0D01*
G01*
X76281885Y75844385D01*
G75*
G02*
X76531885Y75594385I0J-250000D01*
G01*
X76531885Y74694385D01*
G75*
G02*
X76281885Y74444385I-250000J0D01*
G01*
X75756885Y74444385D01*
G75*
G02*
X75506885Y74694385I0J250000D01*
G01*
G37*
G36*
G01*
X77331885Y74694385D02*
X77331885Y75594385D01*
G75*
G02*
X77581885Y75844385I250000J0D01*
G01*
X78106885Y75844385D01*
G75*
G02*
X78356885Y75594385I0J-250000D01*
G01*
X78356885Y74694385D01*
G75*
G02*
X78106885Y74444385I-250000J0D01*
G01*
X77581885Y74444385D01*
G75*
G02*
X77331885Y74694385I0J250000D01*
G01*
G37*
X10044385Y80994385D03*
X10044385Y97224385D03*
X3694385Y80994385D03*
X3694385Y97224385D03*
X16394385Y80994385D03*
X16394385Y97224385D03*
X10044385Y19794385D03*
X10044385Y36024385D03*
X3694385Y19794385D03*
X3694385Y36024385D03*
X16394385Y19794385D03*
X16394385Y36024385D03*
G36*
G01*
X140449385Y85144385D02*
X140749385Y85144385D01*
G75*
G02*
X140899385Y84994385I0J-150000D01*
G01*
X140899385Y83344385D01*
G75*
G02*
X140749385Y83194385I-150000J0D01*
G01*
X140449385Y83194385D01*
G75*
G02*
X140299385Y83344385I0J150000D01*
G01*
X140299385Y84994385D01*
G75*
G02*
X140449385Y85144385I150000J0D01*
G01*
G37*
G36*
G01*
X139179385Y85144385D02*
X139479385Y85144385D01*
G75*
G02*
X139629385Y84994385I0J-150000D01*
G01*
X139629385Y83344385D01*
G75*
G02*
X139479385Y83194385I-150000J0D01*
G01*
X139179385Y83194385D01*
G75*
G02*
X139029385Y83344385I0J150000D01*
G01*
X139029385Y84994385D01*
G75*
G02*
X139179385Y85144385I150000J0D01*
G01*
G37*
G36*
G01*
X137909385Y85144385D02*
X138209385Y85144385D01*
G75*
G02*
X138359385Y84994385I0J-150000D01*
G01*
X138359385Y83344385D01*
G75*
G02*
X138209385Y83194385I-150000J0D01*
G01*
X137909385Y83194385D01*
G75*
G02*
X137759385Y83344385I0J150000D01*
G01*
X137759385Y84994385D01*
G75*
G02*
X137909385Y85144385I150000J0D01*
G01*
G37*
G36*
G01*
X136639385Y85144385D02*
X136939385Y85144385D01*
G75*
G02*
X137089385Y84994385I0J-150000D01*
G01*
X137089385Y83344385D01*
G75*
G02*
X136939385Y83194385I-150000J0D01*
G01*
X136639385Y83194385D01*
G75*
G02*
X136489385Y83344385I0J150000D01*
G01*
X136489385Y84994385D01*
G75*
G02*
X136639385Y85144385I150000J0D01*
G01*
G37*
G36*
G01*
X136639385Y80194385D02*
X136939385Y80194385D01*
G75*
G02*
X137089385Y80044385I0J-150000D01*
G01*
X137089385Y78394385D01*
G75*
G02*
X136939385Y78244385I-150000J0D01*
G01*
X136639385Y78244385D01*
G75*
G02*
X136489385Y78394385I0J150000D01*
G01*
X136489385Y80044385D01*
G75*
G02*
X136639385Y80194385I150000J0D01*
G01*
G37*
G36*
G01*
X137909385Y80194385D02*
X138209385Y80194385D01*
G75*
G02*
X138359385Y80044385I0J-150000D01*
G01*
X138359385Y78394385D01*
G75*
G02*
X138209385Y78244385I-150000J0D01*
G01*
X137909385Y78244385D01*
G75*
G02*
X137759385Y78394385I0J150000D01*
G01*
X137759385Y80044385D01*
G75*
G02*
X137909385Y80194385I150000J0D01*
G01*
G37*
G36*
G01*
X139179385Y80194385D02*
X139479385Y80194385D01*
G75*
G02*
X139629385Y80044385I0J-150000D01*
G01*
X139629385Y78394385D01*
G75*
G02*
X139479385Y78244385I-150000J0D01*
G01*
X139179385Y78244385D01*
G75*
G02*
X139029385Y78394385I0J150000D01*
G01*
X139029385Y80044385D01*
G75*
G02*
X139179385Y80194385I150000J0D01*
G01*
G37*
G36*
G01*
X140449385Y80194385D02*
X140749385Y80194385D01*
G75*
G02*
X140899385Y80044385I0J-150000D01*
G01*
X140899385Y78394385D01*
G75*
G02*
X140749385Y78244385I-150000J0D01*
G01*
X140449385Y78244385D01*
G75*
G02*
X140299385Y78394385I0J150000D01*
G01*
X140299385Y80044385D01*
G75*
G02*
X140449385Y80194385I150000J0D01*
G01*
G37*
D15*
X161394385Y100594385D03*
D16*
X161394385Y106394385D03*
D17*
X156594385Y103594385D03*
G36*
G01*
X142019385Y82044385D02*
X142969385Y82044385D01*
G75*
G02*
X143219385Y81794385I0J-250000D01*
G01*
X143219385Y81294385D01*
G75*
G02*
X142969385Y81044385I-250000J0D01*
G01*
X142019385Y81044385D01*
G75*
G02*
X141769385Y81294385I0J250000D01*
G01*
X141769385Y81794385D01*
G75*
G02*
X142019385Y82044385I250000J0D01*
G01*
G37*
G36*
G01*
X142019385Y80144385D02*
X142969385Y80144385D01*
G75*
G02*
X143219385Y79894385I0J-250000D01*
G01*
X143219385Y79394385D01*
G75*
G02*
X142969385Y79144385I-250000J0D01*
G01*
X142019385Y79144385D01*
G75*
G02*
X141769385Y79394385I0J250000D01*
G01*
X141769385Y79894385D01*
G75*
G02*
X142019385Y80144385I250000J0D01*
G01*
G37*
D18*
X118794385Y71844385D03*
X118794385Y74144385D03*
D19*
X112494385Y74144385D03*
D18*
X118794385Y76444385D03*
D20*
X160494385Y102784385D03*
D21*
X160494385Y107784385D03*
D22*
X11994385Y11994385D03*
G36*
G01*
X115534385Y79249385D02*
X115534385Y78299385D01*
G75*
G02*
X115284385Y78049385I-250000J0D01*
G01*
X114784385Y78049385D01*
G75*
G02*
X114534385Y78299385I0J250000D01*
G01*
X114534385Y79249385D01*
G75*
G02*
X114784385Y79499385I250000J0D01*
G01*
X115284385Y79499385D01*
G75*
G02*
X115534385Y79249385I0J-250000D01*
G01*
G37*
G36*
G01*
X113634385Y79249385D02*
X113634385Y78299385D01*
G75*
G02*
X113384385Y78049385I-250000J0D01*
G01*
X112884385Y78049385D01*
G75*
G02*
X112634385Y78299385I0J250000D01*
G01*
X112634385Y79249385D01*
G75*
G02*
X112884385Y79499385I250000J0D01*
G01*
X113384385Y79499385D01*
G75*
G02*
X113634385Y79249385I0J-250000D01*
G01*
G37*
D23*
X10994385Y74994385D03*
D24*
X12994385Y74994385D03*
X10994385Y72994385D03*
X12994385Y72994385D03*
G36*
G01*
X78709385Y84184385D02*
X78709385Y85084385D01*
G75*
G02*
X78959385Y85334385I250000J0D01*
G01*
X79484385Y85334385D01*
G75*
G02*
X79734385Y85084385I0J-250000D01*
G01*
X79734385Y84184385D01*
G75*
G02*
X79484385Y83934385I-250000J0D01*
G01*
X78959385Y83934385D01*
G75*
G02*
X78709385Y84184385I0J250000D01*
G01*
G37*
G36*
G01*
X80534385Y84184385D02*
X80534385Y85084385D01*
G75*
G02*
X80784385Y85334385I250000J0D01*
G01*
X81309385Y85334385D01*
G75*
G02*
X81559385Y85084385I0J-250000D01*
G01*
X81559385Y84184385D01*
G75*
G02*
X81309385Y83934385I-250000J0D01*
G01*
X80784385Y83934385D01*
G75*
G02*
X80534385Y84184385I0J250000D01*
G01*
G37*
G36*
G01*
X78331885Y77619385D02*
X78331885Y76669385D01*
G75*
G02*
X78081885Y76419385I-250000J0D01*
G01*
X77581885Y76419385D01*
G75*
G02*
X77331885Y76669385I0J250000D01*
G01*
X77331885Y77619385D01*
G75*
G02*
X77581885Y77869385I250000J0D01*
G01*
X78081885Y77869385D01*
G75*
G02*
X78331885Y77619385I0J-250000D01*
G01*
G37*
G36*
G01*
X76431885Y77619385D02*
X76431885Y76669385D01*
G75*
G02*
X76181885Y76419385I-250000J0D01*
G01*
X75681885Y76419385D01*
G75*
G02*
X75431885Y76669385I0J250000D01*
G01*
X75431885Y77619385D01*
G75*
G02*
X75681885Y77869385I250000J0D01*
G01*
X76181885Y77869385D01*
G75*
G02*
X76431885Y77619385I0J-250000D01*
G01*
G37*
G36*
X31394385Y27594385D02*
G01*
X30894385Y27594385D01*
X30894385Y27599474D01*
X30823228Y27599474D01*
X30686677Y27639569D01*
X30566955Y27716510D01*
X30473758Y27824065D01*
X30414639Y27953519D01*
X30394385Y28094385D01*
X30394385Y28594385D01*
X30414639Y28735251D01*
X30473758Y28864705D01*
X30566955Y28972260D01*
X30686677Y29049201D01*
X30823228Y29089296D01*
X30894385Y29089296D01*
X30894385Y29094385D01*
X31394385Y29094385D01*
X31394385Y27594385D01*
G37*
G36*
X32194385Y29089296D02*
G01*
X32265542Y29089296D01*
X32402093Y29049201D01*
X32521815Y28972260D01*
X32615012Y28864705D01*
X32674131Y28735251D01*
X32694385Y28594385D01*
X32694385Y28094385D01*
X32674131Y27953519D01*
X32615012Y27824065D01*
X32521815Y27716510D01*
X32402093Y27639569D01*
X32265542Y27599474D01*
X32194385Y27599474D01*
X32194385Y27594385D01*
X31694385Y27594385D01*
X31694385Y29094385D01*
X32194385Y29094385D01*
X32194385Y29089296D01*
G37*
G36*
G01*
X138731885Y106969385D02*
X138731885Y106019385D01*
G75*
G02*
X138481885Y105769385I-250000J0D01*
G01*
X137981885Y105769385D01*
G75*
G02*
X137731885Y106019385I0J250000D01*
G01*
X137731885Y106969385D01*
G75*
G02*
X137981885Y107219385I250000J0D01*
G01*
X138481885Y107219385D01*
G75*
G02*
X138731885Y106969385I0J-250000D01*
G01*
G37*
G36*
G01*
X136831885Y106969385D02*
X136831885Y106019385D01*
G75*
G02*
X136581885Y105769385I-250000J0D01*
G01*
X136081885Y105769385D01*
G75*
G02*
X135831885Y106019385I0J250000D01*
G01*
X135831885Y106969385D01*
G75*
G02*
X136081885Y107219385I250000J0D01*
G01*
X136581885Y107219385D01*
G75*
G02*
X136831885Y106969385I0J-250000D01*
G01*
G37*
D25*
X101944385Y81394385D03*
X101944385Y84594385D03*
X97044385Y84594385D03*
X97044385Y81394385D03*
G36*
G01*
X139119385Y72244385D02*
X140069385Y72244385D01*
G75*
G02*
X140319385Y71994385I0J-250000D01*
G01*
X140319385Y71494385D01*
G75*
G02*
X140069385Y71244385I-250000J0D01*
G01*
X139119385Y71244385D01*
G75*
G02*
X138869385Y71494385I0J250000D01*
G01*
X138869385Y71994385D01*
G75*
G02*
X139119385Y72244385I250000J0D01*
G01*
G37*
G36*
G01*
X139119385Y70344385D02*
X140069385Y70344385D01*
G75*
G02*
X140319385Y70094385I0J-250000D01*
G01*
X140319385Y69594385D01*
G75*
G02*
X140069385Y69344385I-250000J0D01*
G01*
X139119385Y69344385D01*
G75*
G02*
X138869385Y69594385I0J250000D01*
G01*
X138869385Y70094385D01*
G75*
G02*
X139119385Y70344385I250000J0D01*
G01*
G37*
D22*
X86994385Y63994385D03*
G36*
G01*
X135044385Y71169385D02*
X134144385Y71169385D01*
G75*
G02*
X133894385Y71419385I0J250000D01*
G01*
X133894385Y71944385D01*
G75*
G02*
X134144385Y72194385I250000J0D01*
G01*
X135044385Y72194385D01*
G75*
G02*
X135294385Y71944385I0J-250000D01*
G01*
X135294385Y71419385D01*
G75*
G02*
X135044385Y71169385I-250000J0D01*
G01*
G37*
G36*
G01*
X135044385Y72994385D02*
X134144385Y72994385D01*
G75*
G02*
X133894385Y73244385I0J250000D01*
G01*
X133894385Y73769385D01*
G75*
G02*
X134144385Y74019385I250000J0D01*
G01*
X135044385Y74019385D01*
G75*
G02*
X135294385Y73769385I0J-250000D01*
G01*
X135294385Y73244385D01*
G75*
G02*
X135044385Y72994385I-250000J0D01*
G01*
G37*
X11994385Y63994385D03*
G36*
G01*
X75506885Y78694385D02*
X75506885Y79594385D01*
G75*
G02*
X75756885Y79844385I250000J0D01*
G01*
X76281885Y79844385D01*
G75*
G02*
X76531885Y79594385I0J-250000D01*
G01*
X76531885Y78694385D01*
G75*
G02*
X76281885Y78444385I-250000J0D01*
G01*
X75756885Y78444385D01*
G75*
G02*
X75506885Y78694385I0J250000D01*
G01*
G37*
G36*
G01*
X77331885Y78694385D02*
X77331885Y79594385D01*
G75*
G02*
X77581885Y79844385I250000J0D01*
G01*
X78106885Y79844385D01*
G75*
G02*
X78356885Y79594385I0J-250000D01*
G01*
X78356885Y78694385D01*
G75*
G02*
X78106885Y78444385I-250000J0D01*
G01*
X77581885Y78444385D01*
G75*
G02*
X77331885Y78694385I0J250000D01*
G01*
G37*
D12*
X10044385Y39994385D03*
X10044385Y56224385D03*
X3694385Y39994385D03*
X3694385Y56224385D03*
X16394385Y39994385D03*
X16394385Y56224385D03*
X163944385Y35999385D03*
X163944385Y19769385D03*
X170294385Y35999385D03*
X170294385Y19769385D03*
X157594385Y35999385D03*
X157594385Y19769385D03*
D26*
X107854385Y86694385D03*
D27*
X110394385Y86694385D03*
X112934385Y86694385D03*
D25*
X126944385Y81394385D03*
X126944385Y84594385D03*
X122044385Y84594385D03*
X122044385Y81394385D03*
D11*
X100974385Y9474385D03*
G36*
G01*
X134944385Y86119385D02*
X134944385Y87069385D01*
G75*
G02*
X135194385Y87319385I250000J0D01*
G01*
X135694385Y87319385D01*
G75*
G02*
X135944385Y87069385I0J-250000D01*
G01*
X135944385Y86119385D01*
G75*
G02*
X135694385Y85869385I-250000J0D01*
G01*
X135194385Y85869385D01*
G75*
G02*
X134944385Y86119385I0J250000D01*
G01*
G37*
G36*
G01*
X136844385Y86119385D02*
X136844385Y87069385D01*
G75*
G02*
X137094385Y87319385I250000J0D01*
G01*
X137594385Y87319385D01*
G75*
G02*
X137844385Y87069385I0J-250000D01*
G01*
X137844385Y86119385D01*
G75*
G02*
X137594385Y85869385I-250000J0D01*
G01*
X137094385Y85869385D01*
G75*
G02*
X136844385Y86119385I0J250000D01*
G01*
G37*
D23*
X162994385Y994385D03*
D24*
X160994385Y994385D03*
X162994385Y2994385D03*
X160994385Y2994385D03*
G36*
G01*
X149419385Y76244385D02*
X150369385Y76244385D01*
G75*
G02*
X150619385Y75994385I0J-250000D01*
G01*
X150619385Y75494385D01*
G75*
G02*
X150369385Y75244385I-250000J0D01*
G01*
X149419385Y75244385D01*
G75*
G02*
X149169385Y75494385I0J250000D01*
G01*
X149169385Y75994385D01*
G75*
G02*
X149419385Y76244385I250000J0D01*
G01*
G37*
G36*
G01*
X149419385Y74344385D02*
X150369385Y74344385D01*
G75*
G02*
X150619385Y74094385I0J-250000D01*
G01*
X150619385Y73594385D01*
G75*
G02*
X150369385Y73344385I-250000J0D01*
G01*
X149419385Y73344385D01*
G75*
G02*
X149169385Y73594385I0J250000D01*
G01*
X149169385Y74094385D01*
G75*
G02*
X149419385Y74344385I250000J0D01*
G01*
G37*
D28*
X62094385Y109919385D03*
X62094385Y108919385D03*
X62094385Y107919385D03*
X62094385Y106919385D03*
X62094385Y105919385D03*
X62094385Y104919385D03*
X62094385Y100919385D03*
X62094385Y99919385D03*
X62094385Y98919385D03*
X62094385Y97919385D03*
X62094385Y96919385D03*
X62094385Y95919385D03*
X62094385Y94919385D03*
X63094385Y94919385D03*
X64094385Y94919385D03*
X65094385Y94919385D03*
X66094385Y94919385D03*
X67094385Y94919385D03*
X68094385Y94919385D03*
X69094385Y94919385D03*
X70094385Y94919385D03*
X71094385Y94919385D03*
X72094385Y94919385D03*
X73094385Y94919385D03*
X74094385Y94919385D03*
X75094385Y94919385D03*
X76094385Y94919385D03*
X77094385Y94919385D03*
X78094385Y94919385D03*
X79094385Y94919385D03*
X80094385Y94919385D03*
X81094385Y94919385D03*
X82094385Y94919385D03*
X83094385Y94919385D03*
X84094385Y94919385D03*
X85094385Y94919385D03*
X86094385Y94919385D03*
X87094385Y94919385D03*
X88094385Y94919385D03*
X89094385Y94919385D03*
X90094385Y94919385D03*
X91094385Y94919385D03*
X92094385Y94919385D03*
X93094385Y94919385D03*
X94094385Y94919385D03*
X95094385Y94919385D03*
X96094385Y94919385D03*
X97094385Y94919385D03*
X98094385Y94919385D03*
X99094385Y94919385D03*
X100094385Y94919385D03*
X101094385Y94919385D03*
X102094385Y94919385D03*
X103094385Y94919385D03*
X104094385Y94919385D03*
X105094385Y94919385D03*
X106094385Y94919385D03*
X107094385Y94919385D03*
X108094385Y94919385D03*
X109094385Y94919385D03*
X110094385Y94919385D03*
X111094385Y94919385D03*
X112094385Y109919385D03*
X112094385Y108919385D03*
X112094385Y107919385D03*
X112094385Y106919385D03*
X112094385Y105919385D03*
X112094385Y104919385D03*
X112094385Y103919385D03*
X112094385Y102919385D03*
X112094385Y101919385D03*
X112094385Y100919385D03*
X112094385Y99919385D03*
X112094385Y98919385D03*
X112094385Y97919385D03*
X112094385Y96919385D03*
X112094385Y95919385D03*
X112094385Y94919385D03*
D23*
X12994385Y994385D03*
D24*
X10994385Y994385D03*
X12994385Y2994385D03*
X10994385Y2994385D03*
D29*
X79994385Y66494385D03*
X93994385Y66494385D03*
X79994385Y61494385D03*
X93994385Y61494385D03*
D12*
X166994385Y2994385D03*
D23*
X87994385Y52994385D03*
D24*
X85994385Y52994385D03*
X87994385Y54994385D03*
X85994385Y54994385D03*
G36*
G01*
X60244385Y83794385D02*
X60244385Y82894385D01*
G75*
G02*
X59994385Y82644385I-250000J0D01*
G01*
X59469385Y82644385D01*
G75*
G02*
X59219385Y82894385I0J250000D01*
G01*
X59219385Y83794385D01*
G75*
G02*
X59469385Y84044385I250000J0D01*
G01*
X59994385Y84044385D01*
G75*
G02*
X60244385Y83794385I0J-250000D01*
G01*
G37*
G36*
G01*
X58419385Y83794385D02*
X58419385Y82894385D01*
G75*
G02*
X58169385Y82644385I-250000J0D01*
G01*
X57644385Y82644385D01*
G75*
G02*
X57394385Y82894385I0J250000D01*
G01*
X57394385Y83794385D01*
G75*
G02*
X57644385Y84044385I250000J0D01*
G01*
X58169385Y84044385D01*
G75*
G02*
X58419385Y83794385I0J-250000D01*
G01*
G37*
D30*
X63534385Y74704385D03*
D31*
X62884385Y75704385D03*
X62234385Y74704385D03*
X61584385Y75704385D03*
X60934385Y74704385D03*
D32*
X65809385Y74924385D03*
X58659385Y74924385D03*
D11*
X23994385Y107994385D03*
D12*
X163959385Y97194385D03*
X163959385Y80964385D03*
X170309385Y97194385D03*
X170309385Y80964385D03*
X157609385Y97194385D03*
X157609385Y80964385D03*
G36*
G01*
X31544385Y105369385D02*
X31544385Y104419385D01*
G75*
G02*
X31294385Y104169385I-250000J0D01*
G01*
X30794385Y104169385D01*
G75*
G02*
X30544385Y104419385I0J250000D01*
G01*
X30544385Y105369385D01*
G75*
G02*
X30794385Y105619385I250000J0D01*
G01*
X31294385Y105619385D01*
G75*
G02*
X31544385Y105369385I0J-250000D01*
G01*
G37*
G36*
G01*
X29644385Y105369385D02*
X29644385Y104419385D01*
G75*
G02*
X29394385Y104169385I-250000J0D01*
G01*
X28894385Y104169385D01*
G75*
G02*
X28644385Y104419385I0J250000D01*
G01*
X28644385Y105369385D01*
G75*
G02*
X28894385Y105619385I250000J0D01*
G01*
X29394385Y105619385D01*
G75*
G02*
X29644385Y105369385I0J-250000D01*
G01*
G37*
D11*
X149994385Y67494385D03*
G36*
X93940697Y97708464D02*
G01*
X93208464Y98440697D01*
X93193585Y98476618D01*
X93193585Y99512152D01*
X93208464Y99548073D01*
X93940697Y100280306D01*
X93976618Y100295185D01*
X95012152Y100295185D01*
X95048073Y100280306D01*
X95780306Y99548073D01*
X95795185Y99512152D01*
X95795185Y98476618D01*
X95780306Y98440697D01*
X95048073Y97708464D01*
X95012152Y97693585D01*
X93976618Y97693585D01*
X93940697Y97708464D01*
G37*
G36*
X103280306Y98440697D02*
G01*
X102548073Y97708464D01*
X102512152Y97693585D01*
X101476618Y97693585D01*
X101440697Y97708464D01*
X100708464Y98440697D01*
X100693585Y98476618D01*
X100693585Y99512152D01*
X100708464Y99548073D01*
X101440697Y100280306D01*
X101476618Y100295185D01*
X102512152Y100295185D01*
X102548073Y100280306D01*
X103280306Y99548073D01*
X103295185Y99512152D01*
X103295185Y98476618D01*
X103280306Y98440697D01*
G37*
G36*
X108940697Y97708464D02*
G01*
X108208464Y98440697D01*
X108193585Y98476618D01*
X108193585Y99512152D01*
X108208464Y99548073D01*
X108940697Y100280306D01*
X108976618Y100295185D01*
X110012152Y100295185D01*
X110048073Y100280306D01*
X110780306Y99548073D01*
X110795185Y99512152D01*
X110795185Y98476618D01*
X110780306Y98440697D01*
X110048073Y97708464D01*
X110012152Y97693585D01*
X108976618Y97693585D01*
X108940697Y97708464D01*
G37*
G36*
X96440697Y95208464D02*
G01*
X95708464Y95940697D01*
X95693585Y95976618D01*
X95693585Y97012152D01*
X95708464Y97048073D01*
X96440697Y97780306D01*
X96476618Y97795185D01*
X97512152Y97795185D01*
X97548073Y97780306D01*
X98280306Y97048073D01*
X98295185Y97012152D01*
X98295185Y95976618D01*
X98280306Y95940697D01*
X97548073Y95208464D01*
X97512152Y95193585D01*
X96476618Y95193585D01*
X96440697Y95208464D01*
G37*
G36*
X106440697Y95208464D02*
G01*
X105708464Y95940697D01*
X105693585Y95976618D01*
X105693585Y97012152D01*
X105708464Y97048073D01*
X106440697Y97780306D01*
X106476618Y97795185D01*
X107512152Y97795185D01*
X107548073Y97780306D01*
X108280306Y97048073D01*
X108295185Y97012152D01*
X108295185Y95976618D01*
X108280306Y95940697D01*
X107548073Y95208464D01*
X107512152Y95193585D01*
X106476618Y95193585D01*
X106440697Y95208464D01*
G37*
G36*
X103558464Y107958464D02*
G01*
X103543585Y107994385D01*
X103543585Y109094385D01*
X103558464Y109130306D01*
X104458464Y110030306D01*
X104494385Y110045185D01*
X105394385Y110045185D01*
X105430306Y110030306D01*
X105445185Y109994385D01*
X105445185Y107994385D01*
X105430306Y107958464D01*
X105394385Y107943585D01*
X103594385Y107943585D01*
X103558464Y107958464D01*
G37*
G36*
G01*
X107945185Y109994385D02*
X107945185Y107994385D01*
G75*
G02*
X107894385Y107943585I-50800J0D01*
G01*
X106094385Y107943585D01*
G75*
G02*
X106043585Y107994385I0J50800D01*
G01*
X106043585Y109994385D01*
G75*
G02*
X106094385Y110045185I50800J0D01*
G01*
X107894385Y110045185D01*
G75*
G02*
X107945185Y109994385I0J-50800D01*
G01*
G37*
G36*
G01*
X97945185Y109994385D02*
X97945185Y107994385D01*
G75*
G02*
X97894385Y107943585I-50800J0D01*
G01*
X96094385Y107943585D01*
G75*
G02*
X96043585Y107994385I0J50800D01*
G01*
X96043585Y109994385D01*
G75*
G02*
X96094385Y110045185I50800J0D01*
G01*
X97894385Y110045185D01*
G75*
G02*
X97945185Y109994385I0J-50800D01*
G01*
G37*
G36*
X98558464Y107958464D02*
G01*
X98543585Y107994385D01*
X98543585Y109994385D01*
X98558464Y110030306D01*
X98594385Y110045185D01*
X99494385Y110045185D01*
X99530306Y110030306D01*
X100430306Y109130306D01*
X100445185Y109094385D01*
X100445185Y107994385D01*
X100430306Y107958464D01*
X100394385Y107943585D01*
X98594385Y107943585D01*
X98558464Y107958464D01*
G37*
D33*
X42244385Y99494385D03*
D34*
X42244385Y94494385D03*
X42244385Y96994385D03*
D35*
X49744385Y102594385D03*
X49744385Y91394385D03*
D34*
X56744385Y94494385D03*
X56744385Y99494385D03*
G36*
G01*
X44569385Y85494385D02*
X45519385Y85494385D01*
G75*
G02*
X45769385Y85244385I0J-250000D01*
G01*
X45769385Y84744385D01*
G75*
G02*
X45519385Y84494385I-250000J0D01*
G01*
X44569385Y84494385D01*
G75*
G02*
X44319385Y84744385I0J250000D01*
G01*
X44319385Y85244385D01*
G75*
G02*
X44569385Y85494385I250000J0D01*
G01*
G37*
G36*
G01*
X44569385Y83594385D02*
X45519385Y83594385D01*
G75*
G02*
X45769385Y83344385I0J-250000D01*
G01*
X45769385Y82844385D01*
G75*
G02*
X45519385Y82594385I-250000J0D01*
G01*
X44569385Y82594385D01*
G75*
G02*
X44319385Y82844385I0J250000D01*
G01*
X44319385Y83344385D01*
G75*
G02*
X44569385Y83594385I250000J0D01*
G01*
G37*
G36*
G01*
X141944385Y87069385D02*
X141944385Y86119385D01*
G75*
G02*
X141694385Y85869385I-250000J0D01*
G01*
X141194385Y85869385D01*
G75*
G02*
X140944385Y86119385I0J250000D01*
G01*
X140944385Y87069385D01*
G75*
G02*
X141194385Y87319385I250000J0D01*
G01*
X141694385Y87319385D01*
G75*
G02*
X141944385Y87069385I0J-250000D01*
G01*
G37*
G36*
G01*
X140044385Y87069385D02*
X140044385Y86119385D01*
G75*
G02*
X139794385Y85869385I-250000J0D01*
G01*
X139294385Y85869385D01*
G75*
G02*
X139044385Y86119385I0J250000D01*
G01*
X139044385Y87069385D01*
G75*
G02*
X139294385Y87319385I250000J0D01*
G01*
X139794385Y87319385D01*
G75*
G02*
X140044385Y87069385I0J-250000D01*
G01*
G37*
D36*
X145194385Y77014385D03*
X145194385Y72974385D03*
D25*
X76944385Y81394385D03*
X76944385Y84594385D03*
X72044385Y84594385D03*
X72044385Y81394385D03*
D23*
X160994385Y74994385D03*
D24*
X162994385Y74994385D03*
X160994385Y72994385D03*
X162994385Y72994385D03*
D22*
X161994385Y63994385D03*
G36*
G01*
X77609385Y86294385D02*
X76659385Y86294385D01*
G75*
G02*
X76409385Y86544385I0J250000D01*
G01*
X76409385Y87044385D01*
G75*
G02*
X76659385Y87294385I250000J0D01*
G01*
X77609385Y87294385D01*
G75*
G02*
X77859385Y87044385I0J-250000D01*
G01*
X77859385Y86544385D01*
G75*
G02*
X77609385Y86294385I-250000J0D01*
G01*
G37*
G36*
G01*
X77609385Y88194385D02*
X76659385Y88194385D01*
G75*
G02*
X76409385Y88444385I0J250000D01*
G01*
X76409385Y88944385D01*
G75*
G02*
X76659385Y89194385I250000J0D01*
G01*
X77609385Y89194385D01*
G75*
G02*
X77859385Y88944385I0J-250000D01*
G01*
X77859385Y88444385D01*
G75*
G02*
X77609385Y88194385I-250000J0D01*
G01*
G37*
G36*
G01*
X22544385Y103819385D02*
X23444385Y103819385D01*
G75*
G02*
X23694385Y103569385I0J-250000D01*
G01*
X23694385Y103044385D01*
G75*
G02*
X23444385Y102794385I-250000J0D01*
G01*
X22544385Y102794385D01*
G75*
G02*
X22294385Y103044385I0J250000D01*
G01*
X22294385Y103569385D01*
G75*
G02*
X22544385Y103819385I250000J0D01*
G01*
G37*
G36*
G01*
X22544385Y101994385D02*
X23444385Y101994385D01*
G75*
G02*
X23694385Y101744385I0J-250000D01*
G01*
X23694385Y101219385D01*
G75*
G02*
X23444385Y100969385I-250000J0D01*
G01*
X22544385Y100969385D01*
G75*
G02*
X22294385Y101219385I0J250000D01*
G01*
X22294385Y101744385D01*
G75*
G02*
X22544385Y101994385I250000J0D01*
G01*
G37*
D25*
X51944385Y81394385D03*
X51944385Y84594385D03*
X47044385Y84594385D03*
X47044385Y81394385D03*
G36*
G01*
X69519385Y85494385D02*
X70469385Y85494385D01*
G75*
G02*
X70719385Y85244385I0J-250000D01*
G01*
X70719385Y84744385D01*
G75*
G02*
X70469385Y84494385I-250000J0D01*
G01*
X69519385Y84494385D01*
G75*
G02*
X69269385Y84744385I0J250000D01*
G01*
X69269385Y85244385D01*
G75*
G02*
X69519385Y85494385I250000J0D01*
G01*
G37*
G36*
G01*
X69519385Y83594385D02*
X70469385Y83594385D01*
G75*
G02*
X70719385Y83344385I0J-250000D01*
G01*
X70719385Y82844385D01*
G75*
G02*
X70469385Y82594385I-250000J0D01*
G01*
X69519385Y82594385D01*
G75*
G02*
X69269385Y82844385I0J250000D01*
G01*
X69269385Y83344385D01*
G75*
G02*
X69519385Y83594385I250000J0D01*
G01*
G37*
G36*
G01*
X84969385Y79744385D02*
X85919385Y79744385D01*
G75*
G02*
X86169385Y79494385I0J-250000D01*
G01*
X86169385Y78994385D01*
G75*
G02*
X85919385Y78744385I-250000J0D01*
G01*
X84969385Y78744385D01*
G75*
G02*
X84719385Y78994385I0J250000D01*
G01*
X84719385Y79494385D01*
G75*
G02*
X84969385Y79744385I250000J0D01*
G01*
G37*
G36*
G01*
X84969385Y77844385D02*
X85919385Y77844385D01*
G75*
G02*
X86169385Y77594385I0J-250000D01*
G01*
X86169385Y77094385D01*
G75*
G02*
X85919385Y76844385I-250000J0D01*
G01*
X84969385Y76844385D01*
G75*
G02*
X84719385Y77094385I0J250000D01*
G01*
X84719385Y77594385D01*
G75*
G02*
X84969385Y77844385I250000J0D01*
G01*
G37*
G36*
G01*
X143357385Y99134385D02*
X143357385Y101334385D01*
G75*
G02*
X143459385Y101436385I102000J0D01*
G01*
X144059385Y101436385D01*
G75*
G02*
X144161385Y101334385I0J-102000D01*
G01*
X144161385Y99134385D01*
G75*
G02*
X144059385Y99032385I-102000J0D01*
G01*
X143459385Y99032385D01*
G75*
G02*
X143357385Y99134385I0J102000D01*
G01*
G37*
G36*
G01*
X97269385Y78044385D02*
X97269385Y78944385D01*
G75*
G02*
X97519385Y79194385I250000J0D01*
G01*
X98044385Y79194385D01*
G75*
G02*
X98294385Y78944385I0J-250000D01*
G01*
X98294385Y78044385D01*
G75*
G02*
X98044385Y77794385I-250000J0D01*
G01*
X97519385Y77794385D01*
G75*
G02*
X97269385Y78044385I0J250000D01*
G01*
G37*
G36*
G01*
X99094385Y78044385D02*
X99094385Y78944385D01*
G75*
G02*
X99344385Y79194385I250000J0D01*
G01*
X99869385Y79194385D01*
G75*
G02*
X100119385Y78944385I0J-250000D01*
G01*
X100119385Y78044385D01*
G75*
G02*
X99869385Y77794385I-250000J0D01*
G01*
X99344385Y77794385D01*
G75*
G02*
X99094385Y78044385I0J250000D01*
G01*
G37*
D26*
X89219385Y49694385D03*
D27*
X86679385Y49694385D03*
X84139385Y49694385D03*
D12*
X163944385Y56214385D03*
X163944385Y39984385D03*
X170294385Y56214385D03*
X170294385Y39984385D03*
X157594385Y56214385D03*
X157594385Y39984385D03*
D22*
X86994385Y11994385D03*
G36*
X151644385Y15844385D02*
G01*
X151644385Y15344385D01*
X151639296Y15344385D01*
X151639296Y15273228D01*
X151599201Y15136677D01*
X151522260Y15016955D01*
X151414705Y14923758D01*
X151285251Y14864639D01*
X151144385Y14844385D01*
X150644385Y14844385D01*
X150503519Y14864639D01*
X150374065Y14923758D01*
X150266510Y15016955D01*
X150189569Y15136677D01*
X150149474Y15273228D01*
X150149474Y15344385D01*
X150144385Y15344385D01*
X150144385Y15844385D01*
X151644385Y15844385D01*
G37*
G36*
X150149474Y16644385D02*
G01*
X150149474Y16715542D01*
X150189569Y16852093D01*
X150266510Y16971815D01*
X150374065Y17065012D01*
X150503519Y17124131D01*
X150644385Y17144385D01*
X151144385Y17144385D01*
X151285251Y17124131D01*
X151414705Y17065012D01*
X151522260Y16971815D01*
X151599201Y16852093D01*
X151639296Y16715542D01*
X151639296Y16644385D01*
X151644385Y16644385D01*
X151644385Y16144385D01*
X150144385Y16144385D01*
X150144385Y16644385D01*
X150149474Y16644385D01*
G37*
D29*
X4994385Y66494385D03*
X18994385Y66494385D03*
X4994385Y61494385D03*
X18994385Y61494385D03*
G36*
G01*
X138731885Y104869385D02*
X138731885Y103919385D01*
G75*
G02*
X138481885Y103669385I-250000J0D01*
G01*
X137981885Y103669385D01*
G75*
G02*
X137731885Y103919385I0J250000D01*
G01*
X137731885Y104869385D01*
G75*
G02*
X137981885Y105119385I250000J0D01*
G01*
X138481885Y105119385D01*
G75*
G02*
X138731885Y104869385I0J-250000D01*
G01*
G37*
G36*
G01*
X136831885Y104869385D02*
X136831885Y103919385D01*
G75*
G02*
X136581885Y103669385I-250000J0D01*
G01*
X136081885Y103669385D01*
G75*
G02*
X135831885Y103919385I0J250000D01*
G01*
X135831885Y104869385D01*
G75*
G02*
X136081885Y105119385I250000J0D01*
G01*
X136581885Y105119385D01*
G75*
G02*
X136831885Y104869385I0J-250000D01*
G01*
G37*
D26*
X70594385Y76994385D03*
D27*
X73134385Y76994385D03*
D37*
X28644385Y99864385D03*
X28644385Y98594385D03*
X28644385Y97324385D03*
X38144385Y97324385D03*
X38144385Y98594385D03*
X38144385Y99864385D03*
G36*
G01*
X39319385Y95831885D02*
X39319385Y94931885D01*
G75*
G02*
X39069385Y94681885I-250000J0D01*
G01*
X38544385Y94681885D01*
G75*
G02*
X38294385Y94931885I0J250000D01*
G01*
X38294385Y95831885D01*
G75*
G02*
X38544385Y96081885I250000J0D01*
G01*
X39069385Y96081885D01*
G75*
G02*
X39319385Y95831885I0J-250000D01*
G01*
G37*
G36*
G01*
X37494385Y95831885D02*
X37494385Y94931885D01*
G75*
G02*
X37244385Y94681885I-250000J0D01*
G01*
X36719385Y94681885D01*
G75*
G02*
X36469385Y94931885I0J250000D01*
G01*
X36469385Y95831885D01*
G75*
G02*
X36719385Y96081885I250000J0D01*
G01*
X37244385Y96081885D01*
G75*
G02*
X37494385Y95831885I0J-250000D01*
G01*
G37*
G36*
G01*
X30119385Y58594385D02*
X30119385Y59494385D01*
G75*
G02*
X30369385Y59744385I250000J0D01*
G01*
X30894385Y59744385D01*
G75*
G02*
X31144385Y59494385I0J-250000D01*
G01*
X31144385Y58594385D01*
G75*
G02*
X30894385Y58344385I-250000J0D01*
G01*
X30369385Y58344385D01*
G75*
G02*
X30119385Y58594385I0J250000D01*
G01*
G37*
G36*
G01*
X31944385Y58594385D02*
X31944385Y59494385D01*
G75*
G02*
X32194385Y59744385I250000J0D01*
G01*
X32719385Y59744385D01*
G75*
G02*
X32969385Y59494385I0J-250000D01*
G01*
X32969385Y58594385D01*
G75*
G02*
X32719385Y58344385I-250000J0D01*
G01*
X32194385Y58344385D01*
G75*
G02*
X31944385Y58594385I0J250000D01*
G01*
G37*
G36*
G01*
X137561885Y91994385D02*
X137561885Y93994385D01*
G75*
G02*
X137811885Y94244385I250000J0D01*
G01*
X141311885Y94244385D01*
G75*
G02*
X141561885Y93994385I0J-250000D01*
G01*
X141561885Y91994385D01*
G75*
G02*
X141311885Y91744385I-250000J0D01*
G01*
X137811885Y91744385D01*
G75*
G02*
X137561885Y91994385I0J250000D01*
G01*
G37*
G36*
G01*
X145561885Y91994385D02*
X145561885Y93994385D01*
G75*
G02*
X145811885Y94244385I250000J0D01*
G01*
X149311885Y94244385D01*
G75*
G02*
X149561885Y93994385I0J-250000D01*
G01*
X149561885Y91994385D01*
G75*
G02*
X149311885Y91744385I-250000J0D01*
G01*
X145811885Y91744385D01*
G75*
G02*
X145561885Y91994385I0J250000D01*
G01*
G37*
G36*
X79544385Y55344385D02*
G01*
X79544385Y54844385D01*
X79539296Y54844385D01*
X79539296Y54773228D01*
X79499201Y54636677D01*
X79422260Y54516955D01*
X79314705Y54423758D01*
X79185251Y54364639D01*
X79044385Y54344385D01*
X78544385Y54344385D01*
X78403519Y54364639D01*
X78274065Y54423758D01*
X78166510Y54516955D01*
X78089569Y54636677D01*
X78049474Y54773228D01*
X78049474Y54844385D01*
X78044385Y54844385D01*
X78044385Y55344385D01*
X79544385Y55344385D01*
G37*
G36*
X78049474Y56144385D02*
G01*
X78049474Y56215542D01*
X78089569Y56352093D01*
X78166510Y56471815D01*
X78274065Y56565012D01*
X78403519Y56624131D01*
X78544385Y56644385D01*
X79044385Y56644385D01*
X79185251Y56624131D01*
X79314705Y56565012D01*
X79422260Y56471815D01*
X79499201Y56352093D01*
X79539296Y56215542D01*
X79539296Y56144385D01*
X79544385Y56144385D01*
X79544385Y55644385D01*
X78044385Y55644385D01*
X78044385Y56144385D01*
X78049474Y56144385D01*
G37*
G36*
X77044385Y55344385D02*
G01*
X77044385Y54844385D01*
X77039296Y54844385D01*
X77039296Y54773228D01*
X76999201Y54636677D01*
X76922260Y54516955D01*
X76814705Y54423758D01*
X76685251Y54364639D01*
X76544385Y54344385D01*
X76044385Y54344385D01*
X75903519Y54364639D01*
X75774065Y54423758D01*
X75666510Y54516955D01*
X75589569Y54636677D01*
X75549474Y54773228D01*
X75549474Y54844385D01*
X75544385Y54844385D01*
X75544385Y55344385D01*
X77044385Y55344385D01*
G37*
G36*
X75549474Y56144385D02*
G01*
X75549474Y56215542D01*
X75589569Y56352093D01*
X75666510Y56471815D01*
X75774065Y56565012D01*
X75903519Y56624131D01*
X76044385Y56644385D01*
X76544385Y56644385D01*
X76685251Y56624131D01*
X76814705Y56565012D01*
X76922260Y56471815D01*
X76999201Y56352093D01*
X77039296Y56215542D01*
X77039296Y56144385D01*
X77044385Y56144385D01*
X77044385Y55644385D01*
X75544385Y55644385D01*
X75544385Y56144385D01*
X75549474Y56144385D01*
G37*
G36*
G01*
X86844385Y81519385D02*
X86744385Y81519385D01*
G75*
G02*
X86694385Y81569385I0J50000D01*
G01*
X86694385Y82344385D01*
G75*
G02*
X86744385Y82394385I50000J0D01*
G01*
X86844385Y82394385D01*
G75*
G02*
X86894385Y82344385I0J-50000D01*
G01*
X86894385Y81569385D01*
G75*
G02*
X86844385Y81519385I-50000J0D01*
G01*
G37*
G36*
G01*
X87244385Y81519385D02*
X87144385Y81519385D01*
G75*
G02*
X87094385Y81569385I0J50000D01*
G01*
X87094385Y82344385D01*
G75*
G02*
X87144385Y82394385I50000J0D01*
G01*
X87244385Y82394385D01*
G75*
G02*
X87294385Y82344385I0J-50000D01*
G01*
X87294385Y81569385D01*
G75*
G02*
X87244385Y81519385I-50000J0D01*
G01*
G37*
G36*
G01*
X87644385Y81519385D02*
X87544385Y81519385D01*
G75*
G02*
X87494385Y81569385I0J50000D01*
G01*
X87494385Y82344385D01*
G75*
G02*
X87544385Y82394385I50000J0D01*
G01*
X87644385Y82394385D01*
G75*
G02*
X87694385Y82344385I0J-50000D01*
G01*
X87694385Y81569385D01*
G75*
G02*
X87644385Y81519385I-50000J0D01*
G01*
G37*
G36*
G01*
X88044385Y81519385D02*
X87944385Y81519385D01*
G75*
G02*
X87894385Y81569385I0J50000D01*
G01*
X87894385Y82344385D01*
G75*
G02*
X87944385Y82394385I50000J0D01*
G01*
X88044385Y82394385D01*
G75*
G02*
X88094385Y82344385I0J-50000D01*
G01*
X88094385Y81569385D01*
G75*
G02*
X88044385Y81519385I-50000J0D01*
G01*
G37*
G36*
G01*
X88444385Y81519385D02*
X88344385Y81519385D01*
G75*
G02*
X88294385Y81569385I0J50000D01*
G01*
X88294385Y82344385D01*
G75*
G02*
X88344385Y82394385I50000J0D01*
G01*
X88444385Y82394385D01*
G75*
G02*
X88494385Y82344385I0J-50000D01*
G01*
X88494385Y81569385D01*
G75*
G02*
X88444385Y81519385I-50000J0D01*
G01*
G37*
G36*
G01*
X88844385Y81519385D02*
X88744385Y81519385D01*
G75*
G02*
X88694385Y81569385I0J50000D01*
G01*
X88694385Y82344385D01*
G75*
G02*
X88744385Y82394385I50000J0D01*
G01*
X88844385Y82394385D01*
G75*
G02*
X88894385Y82344385I0J-50000D01*
G01*
X88894385Y81569385D01*
G75*
G02*
X88844385Y81519385I-50000J0D01*
G01*
G37*
G36*
G01*
X89244385Y81519385D02*
X89144385Y81519385D01*
G75*
G02*
X89094385Y81569385I0J50000D01*
G01*
X89094385Y82344385D01*
G75*
G02*
X89144385Y82394385I50000J0D01*
G01*
X89244385Y82394385D01*
G75*
G02*
X89294385Y82344385I0J-50000D01*
G01*
X89294385Y81569385D01*
G75*
G02*
X89244385Y81519385I-50000J0D01*
G01*
G37*
G36*
G01*
X89644385Y81519385D02*
X89544385Y81519385D01*
G75*
G02*
X89494385Y81569385I0J50000D01*
G01*
X89494385Y82344385D01*
G75*
G02*
X89544385Y82394385I50000J0D01*
G01*
X89644385Y82394385D01*
G75*
G02*
X89694385Y82344385I0J-50000D01*
G01*
X89694385Y81569385D01*
G75*
G02*
X89644385Y81519385I-50000J0D01*
G01*
G37*
G36*
G01*
X90044385Y81519385D02*
X89944385Y81519385D01*
G75*
G02*
X89894385Y81569385I0J50000D01*
G01*
X89894385Y82344385D01*
G75*
G02*
X89944385Y82394385I50000J0D01*
G01*
X90044385Y82394385D01*
G75*
G02*
X90094385Y82344385I0J-50000D01*
G01*
X90094385Y81569385D01*
G75*
G02*
X90044385Y81519385I-50000J0D01*
G01*
G37*
G36*
G01*
X90444385Y81519385D02*
X90344385Y81519385D01*
G75*
G02*
X90294385Y81569385I0J50000D01*
G01*
X90294385Y82344385D01*
G75*
G02*
X90344385Y82394385I50000J0D01*
G01*
X90444385Y82394385D01*
G75*
G02*
X90494385Y82344385I0J-50000D01*
G01*
X90494385Y81569385D01*
G75*
G02*
X90444385Y81519385I-50000J0D01*
G01*
G37*
G36*
G01*
X90844385Y81519385D02*
X90744385Y81519385D01*
G75*
G02*
X90694385Y81569385I0J50000D01*
G01*
X90694385Y82344385D01*
G75*
G02*
X90744385Y82394385I50000J0D01*
G01*
X90844385Y82394385D01*
G75*
G02*
X90894385Y82344385I0J-50000D01*
G01*
X90894385Y81569385D01*
G75*
G02*
X90844385Y81519385I-50000J0D01*
G01*
G37*
G36*
G01*
X91244385Y81519385D02*
X91144385Y81519385D01*
G75*
G02*
X91094385Y81569385I0J50000D01*
G01*
X91094385Y82344385D01*
G75*
G02*
X91144385Y82394385I50000J0D01*
G01*
X91244385Y82394385D01*
G75*
G02*
X91294385Y82344385I0J-50000D01*
G01*
X91294385Y81569385D01*
G75*
G02*
X91244385Y81519385I-50000J0D01*
G01*
G37*
G36*
G01*
X91644385Y81519385D02*
X91544385Y81519385D01*
G75*
G02*
X91494385Y81569385I0J50000D01*
G01*
X91494385Y82344385D01*
G75*
G02*
X91544385Y82394385I50000J0D01*
G01*
X91644385Y82394385D01*
G75*
G02*
X91694385Y82344385I0J-50000D01*
G01*
X91694385Y81569385D01*
G75*
G02*
X91644385Y81519385I-50000J0D01*
G01*
G37*
G36*
G01*
X92044385Y81519385D02*
X91944385Y81519385D01*
G75*
G02*
X91894385Y81569385I0J50000D01*
G01*
X91894385Y82344385D01*
G75*
G02*
X91944385Y82394385I50000J0D01*
G01*
X92044385Y82394385D01*
G75*
G02*
X92094385Y82344385I0J-50000D01*
G01*
X92094385Y81569385D01*
G75*
G02*
X92044385Y81519385I-50000J0D01*
G01*
G37*
G36*
G01*
X93219385Y82694385D02*
X92444385Y82694385D01*
G75*
G02*
X92394385Y82744385I0J50000D01*
G01*
X92394385Y82844385D01*
G75*
G02*
X92444385Y82894385I50000J0D01*
G01*
X93219385Y82894385D01*
G75*
G02*
X93269385Y82844385I0J-50000D01*
G01*
X93269385Y82744385D01*
G75*
G02*
X93219385Y82694385I-50000J0D01*
G01*
G37*
G36*
G01*
X93219385Y83094385D02*
X92444385Y83094385D01*
G75*
G02*
X92394385Y83144385I0J50000D01*
G01*
X92394385Y83244385D01*
G75*
G02*
X92444385Y83294385I50000J0D01*
G01*
X93219385Y83294385D01*
G75*
G02*
X93269385Y83244385I0J-50000D01*
G01*
X93269385Y83144385D01*
G75*
G02*
X93219385Y83094385I-50000J0D01*
G01*
G37*
G36*
G01*
X93219385Y83494385D02*
X92444385Y83494385D01*
G75*
G02*
X92394385Y83544385I0J50000D01*
G01*
X92394385Y83644385D01*
G75*
G02*
X92444385Y83694385I50000J0D01*
G01*
X93219385Y83694385D01*
G75*
G02*
X93269385Y83644385I0J-50000D01*
G01*
X93269385Y83544385D01*
G75*
G02*
X93219385Y83494385I-50000J0D01*
G01*
G37*
G36*
G01*
X93219385Y83894385D02*
X92444385Y83894385D01*
G75*
G02*
X92394385Y83944385I0J50000D01*
G01*
X92394385Y84044385D01*
G75*
G02*
X92444385Y84094385I50000J0D01*
G01*
X93219385Y84094385D01*
G75*
G02*
X93269385Y84044385I0J-50000D01*
G01*
X93269385Y83944385D01*
G75*
G02*
X93219385Y83894385I-50000J0D01*
G01*
G37*
G36*
G01*
X93219385Y84294385D02*
X92444385Y84294385D01*
G75*
G02*
X92394385Y84344385I0J50000D01*
G01*
X92394385Y84444385D01*
G75*
G02*
X92444385Y84494385I50000J0D01*
G01*
X93219385Y84494385D01*
G75*
G02*
X93269385Y84444385I0J-50000D01*
G01*
X93269385Y84344385D01*
G75*
G02*
X93219385Y84294385I-50000J0D01*
G01*
G37*
G36*
G01*
X93219385Y84694385D02*
X92444385Y84694385D01*
G75*
G02*
X92394385Y84744385I0J50000D01*
G01*
X92394385Y84844385D01*
G75*
G02*
X92444385Y84894385I50000J0D01*
G01*
X93219385Y84894385D01*
G75*
G02*
X93269385Y84844385I0J-50000D01*
G01*
X93269385Y84744385D01*
G75*
G02*
X93219385Y84694385I-50000J0D01*
G01*
G37*
G36*
G01*
X93219385Y85094385D02*
X92444385Y85094385D01*
G75*
G02*
X92394385Y85144385I0J50000D01*
G01*
X92394385Y85244385D01*
G75*
G02*
X92444385Y85294385I50000J0D01*
G01*
X93219385Y85294385D01*
G75*
G02*
X93269385Y85244385I0J-50000D01*
G01*
X93269385Y85144385D01*
G75*
G02*
X93219385Y85094385I-50000J0D01*
G01*
G37*
G36*
G01*
X93219385Y85494385D02*
X92444385Y85494385D01*
G75*
G02*
X92394385Y85544385I0J50000D01*
G01*
X92394385Y85644385D01*
G75*
G02*
X92444385Y85694385I50000J0D01*
G01*
X93219385Y85694385D01*
G75*
G02*
X93269385Y85644385I0J-50000D01*
G01*
X93269385Y85544385D01*
G75*
G02*
X93219385Y85494385I-50000J0D01*
G01*
G37*
G36*
G01*
X93219385Y85894385D02*
X92444385Y85894385D01*
G75*
G02*
X92394385Y85944385I0J50000D01*
G01*
X92394385Y86044385D01*
G75*
G02*
X92444385Y86094385I50000J0D01*
G01*
X93219385Y86094385D01*
G75*
G02*
X93269385Y86044385I0J-50000D01*
G01*
X93269385Y85944385D01*
G75*
G02*
X93219385Y85894385I-50000J0D01*
G01*
G37*
G36*
G01*
X93219385Y86294385D02*
X92444385Y86294385D01*
G75*
G02*
X92394385Y86344385I0J50000D01*
G01*
X92394385Y86444385D01*
G75*
G02*
X92444385Y86494385I50000J0D01*
G01*
X93219385Y86494385D01*
G75*
G02*
X93269385Y86444385I0J-50000D01*
G01*
X93269385Y86344385D01*
G75*
G02*
X93219385Y86294385I-50000J0D01*
G01*
G37*
G36*
G01*
X93219385Y86694385D02*
X92444385Y86694385D01*
G75*
G02*
X92394385Y86744385I0J50000D01*
G01*
X92394385Y86844385D01*
G75*
G02*
X92444385Y86894385I50000J0D01*
G01*
X93219385Y86894385D01*
G75*
G02*
X93269385Y86844385I0J-50000D01*
G01*
X93269385Y86744385D01*
G75*
G02*
X93219385Y86694385I-50000J0D01*
G01*
G37*
G36*
G01*
X93219385Y87094385D02*
X92444385Y87094385D01*
G75*
G02*
X92394385Y87144385I0J50000D01*
G01*
X92394385Y87244385D01*
G75*
G02*
X92444385Y87294385I50000J0D01*
G01*
X93219385Y87294385D01*
G75*
G02*
X93269385Y87244385I0J-50000D01*
G01*
X93269385Y87144385D01*
G75*
G02*
X93219385Y87094385I-50000J0D01*
G01*
G37*
G36*
G01*
X93219385Y87494385D02*
X92444385Y87494385D01*
G75*
G02*
X92394385Y87544385I0J50000D01*
G01*
X92394385Y87644385D01*
G75*
G02*
X92444385Y87694385I50000J0D01*
G01*
X93219385Y87694385D01*
G75*
G02*
X93269385Y87644385I0J-50000D01*
G01*
X93269385Y87544385D01*
G75*
G02*
X93219385Y87494385I-50000J0D01*
G01*
G37*
G36*
G01*
X93219385Y87894385D02*
X92444385Y87894385D01*
G75*
G02*
X92394385Y87944385I0J50000D01*
G01*
X92394385Y88044385D01*
G75*
G02*
X92444385Y88094385I50000J0D01*
G01*
X93219385Y88094385D01*
G75*
G02*
X93269385Y88044385I0J-50000D01*
G01*
X93269385Y87944385D01*
G75*
G02*
X93219385Y87894385I-50000J0D01*
G01*
G37*
G36*
G01*
X92044385Y88394385D02*
X91944385Y88394385D01*
G75*
G02*
X91894385Y88444385I0J50000D01*
G01*
X91894385Y89219385D01*
G75*
G02*
X91944385Y89269385I50000J0D01*
G01*
X92044385Y89269385D01*
G75*
G02*
X92094385Y89219385I0J-50000D01*
G01*
X92094385Y88444385D01*
G75*
G02*
X92044385Y88394385I-50000J0D01*
G01*
G37*
G36*
G01*
X91644385Y88394385D02*
X91544385Y88394385D01*
G75*
G02*
X91494385Y88444385I0J50000D01*
G01*
X91494385Y89219385D01*
G75*
G02*
X91544385Y89269385I50000J0D01*
G01*
X91644385Y89269385D01*
G75*
G02*
X91694385Y89219385I0J-50000D01*
G01*
X91694385Y88444385D01*
G75*
G02*
X91644385Y88394385I-50000J0D01*
G01*
G37*
G36*
G01*
X91244385Y88394385D02*
X91144385Y88394385D01*
G75*
G02*
X91094385Y88444385I0J50000D01*
G01*
X91094385Y89219385D01*
G75*
G02*
X91144385Y89269385I50000J0D01*
G01*
X91244385Y89269385D01*
G75*
G02*
X91294385Y89219385I0J-50000D01*
G01*
X91294385Y88444385D01*
G75*
G02*
X91244385Y88394385I-50000J0D01*
G01*
G37*
G36*
G01*
X90844385Y88394385D02*
X90744385Y88394385D01*
G75*
G02*
X90694385Y88444385I0J50000D01*
G01*
X90694385Y89219385D01*
G75*
G02*
X90744385Y89269385I50000J0D01*
G01*
X90844385Y89269385D01*
G75*
G02*
X90894385Y89219385I0J-50000D01*
G01*
X90894385Y88444385D01*
G75*
G02*
X90844385Y88394385I-50000J0D01*
G01*
G37*
G36*
G01*
X90444385Y88394385D02*
X90344385Y88394385D01*
G75*
G02*
X90294385Y88444385I0J50000D01*
G01*
X90294385Y89219385D01*
G75*
G02*
X90344385Y89269385I50000J0D01*
G01*
X90444385Y89269385D01*
G75*
G02*
X90494385Y89219385I0J-50000D01*
G01*
X90494385Y88444385D01*
G75*
G02*
X90444385Y88394385I-50000J0D01*
G01*
G37*
G36*
G01*
X90044385Y88394385D02*
X89944385Y88394385D01*
G75*
G02*
X89894385Y88444385I0J50000D01*
G01*
X89894385Y89219385D01*
G75*
G02*
X89944385Y89269385I50000J0D01*
G01*
X90044385Y89269385D01*
G75*
G02*
X90094385Y89219385I0J-50000D01*
G01*
X90094385Y88444385D01*
G75*
G02*
X90044385Y88394385I-50000J0D01*
G01*
G37*
G36*
G01*
X89644385Y88394385D02*
X89544385Y88394385D01*
G75*
G02*
X89494385Y88444385I0J50000D01*
G01*
X89494385Y89219385D01*
G75*
G02*
X89544385Y89269385I50000J0D01*
G01*
X89644385Y89269385D01*
G75*
G02*
X89694385Y89219385I0J-50000D01*
G01*
X89694385Y88444385D01*
G75*
G02*
X89644385Y88394385I-50000J0D01*
G01*
G37*
G36*
G01*
X89244385Y88394385D02*
X89144385Y88394385D01*
G75*
G02*
X89094385Y88444385I0J50000D01*
G01*
X89094385Y89219385D01*
G75*
G02*
X89144385Y89269385I50000J0D01*
G01*
X89244385Y89269385D01*
G75*
G02*
X89294385Y89219385I0J-50000D01*
G01*
X89294385Y88444385D01*
G75*
G02*
X89244385Y88394385I-50000J0D01*
G01*
G37*
G36*
G01*
X88844385Y88394385D02*
X88744385Y88394385D01*
G75*
G02*
X88694385Y88444385I0J50000D01*
G01*
X88694385Y89219385D01*
G75*
G02*
X88744385Y89269385I50000J0D01*
G01*
X88844385Y89269385D01*
G75*
G02*
X88894385Y89219385I0J-50000D01*
G01*
X88894385Y88444385D01*
G75*
G02*
X88844385Y88394385I-50000J0D01*
G01*
G37*
G36*
G01*
X88444385Y88394385D02*
X88344385Y88394385D01*
G75*
G02*
X88294385Y88444385I0J50000D01*
G01*
X88294385Y89219385D01*
G75*
G02*
X88344385Y89269385I50000J0D01*
G01*
X88444385Y89269385D01*
G75*
G02*
X88494385Y89219385I0J-50000D01*
G01*
X88494385Y88444385D01*
G75*
G02*
X88444385Y88394385I-50000J0D01*
G01*
G37*
G36*
G01*
X88044385Y88394385D02*
X87944385Y88394385D01*
G75*
G02*
X87894385Y88444385I0J50000D01*
G01*
X87894385Y89219385D01*
G75*
G02*
X87944385Y89269385I50000J0D01*
G01*
X88044385Y89269385D01*
G75*
G02*
X88094385Y89219385I0J-50000D01*
G01*
X88094385Y88444385D01*
G75*
G02*
X88044385Y88394385I-50000J0D01*
G01*
G37*
G36*
G01*
X87644385Y88394385D02*
X87544385Y88394385D01*
G75*
G02*
X87494385Y88444385I0J50000D01*
G01*
X87494385Y89219385D01*
G75*
G02*
X87544385Y89269385I50000J0D01*
G01*
X87644385Y89269385D01*
G75*
G02*
X87694385Y89219385I0J-50000D01*
G01*
X87694385Y88444385D01*
G75*
G02*
X87644385Y88394385I-50000J0D01*
G01*
G37*
G36*
G01*
X87244385Y88394385D02*
X87144385Y88394385D01*
G75*
G02*
X87094385Y88444385I0J50000D01*
G01*
X87094385Y89219385D01*
G75*
G02*
X87144385Y89269385I50000J0D01*
G01*
X87244385Y89269385D01*
G75*
G02*
X87294385Y89219385I0J-50000D01*
G01*
X87294385Y88444385D01*
G75*
G02*
X87244385Y88394385I-50000J0D01*
G01*
G37*
G36*
G01*
X86844385Y88394385D02*
X86744385Y88394385D01*
G75*
G02*
X86694385Y88444385I0J50000D01*
G01*
X86694385Y89219385D01*
G75*
G02*
X86744385Y89269385I50000J0D01*
G01*
X86844385Y89269385D01*
G75*
G02*
X86894385Y89219385I0J-50000D01*
G01*
X86894385Y88444385D01*
G75*
G02*
X86844385Y88394385I-50000J0D01*
G01*
G37*
G36*
G01*
X86344385Y87894385D02*
X85569385Y87894385D01*
G75*
G02*
X85519385Y87944385I0J50000D01*
G01*
X85519385Y88044385D01*
G75*
G02*
X85569385Y88094385I50000J0D01*
G01*
X86344385Y88094385D01*
G75*
G02*
X86394385Y88044385I0J-50000D01*
G01*
X86394385Y87944385D01*
G75*
G02*
X86344385Y87894385I-50000J0D01*
G01*
G37*
G36*
G01*
X86344385Y87494385D02*
X85569385Y87494385D01*
G75*
G02*
X85519385Y87544385I0J50000D01*
G01*
X85519385Y87644385D01*
G75*
G02*
X85569385Y87694385I50000J0D01*
G01*
X86344385Y87694385D01*
G75*
G02*
X86394385Y87644385I0J-50000D01*
G01*
X86394385Y87544385D01*
G75*
G02*
X86344385Y87494385I-50000J0D01*
G01*
G37*
G36*
G01*
X86344385Y87094385D02*
X85569385Y87094385D01*
G75*
G02*
X85519385Y87144385I0J50000D01*
G01*
X85519385Y87244385D01*
G75*
G02*
X85569385Y87294385I50000J0D01*
G01*
X86344385Y87294385D01*
G75*
G02*
X86394385Y87244385I0J-50000D01*
G01*
X86394385Y87144385D01*
G75*
G02*
X86344385Y87094385I-50000J0D01*
G01*
G37*
G36*
G01*
X86344385Y86694385D02*
X85569385Y86694385D01*
G75*
G02*
X85519385Y86744385I0J50000D01*
G01*
X85519385Y86844385D01*
G75*
G02*
X85569385Y86894385I50000J0D01*
G01*
X86344385Y86894385D01*
G75*
G02*
X86394385Y86844385I0J-50000D01*
G01*
X86394385Y86744385D01*
G75*
G02*
X86344385Y86694385I-50000J0D01*
G01*
G37*
G36*
G01*
X86344385Y86294385D02*
X85569385Y86294385D01*
G75*
G02*
X85519385Y86344385I0J50000D01*
G01*
X85519385Y86444385D01*
G75*
G02*
X85569385Y86494385I50000J0D01*
G01*
X86344385Y86494385D01*
G75*
G02*
X86394385Y86444385I0J-50000D01*
G01*
X86394385Y86344385D01*
G75*
G02*
X86344385Y86294385I-50000J0D01*
G01*
G37*
G36*
G01*
X86344385Y85894385D02*
X85569385Y85894385D01*
G75*
G02*
X85519385Y85944385I0J50000D01*
G01*
X85519385Y86044385D01*
G75*
G02*
X85569385Y86094385I50000J0D01*
G01*
X86344385Y86094385D01*
G75*
G02*
X86394385Y86044385I0J-50000D01*
G01*
X86394385Y85944385D01*
G75*
G02*
X86344385Y85894385I-50000J0D01*
G01*
G37*
G36*
G01*
X86344385Y85494385D02*
X85569385Y85494385D01*
G75*
G02*
X85519385Y85544385I0J50000D01*
G01*
X85519385Y85644385D01*
G75*
G02*
X85569385Y85694385I50000J0D01*
G01*
X86344385Y85694385D01*
G75*
G02*
X86394385Y85644385I0J-50000D01*
G01*
X86394385Y85544385D01*
G75*
G02*
X86344385Y85494385I-50000J0D01*
G01*
G37*
G36*
G01*
X86344385Y85094385D02*
X85569385Y85094385D01*
G75*
G02*
X85519385Y85144385I0J50000D01*
G01*
X85519385Y85244385D01*
G75*
G02*
X85569385Y85294385I50000J0D01*
G01*
X86344385Y85294385D01*
G75*
G02*
X86394385Y85244385I0J-50000D01*
G01*
X86394385Y85144385D01*
G75*
G02*
X86344385Y85094385I-50000J0D01*
G01*
G37*
G36*
G01*
X86344385Y84694385D02*
X85569385Y84694385D01*
G75*
G02*
X85519385Y84744385I0J50000D01*
G01*
X85519385Y84844385D01*
G75*
G02*
X85569385Y84894385I50000J0D01*
G01*
X86344385Y84894385D01*
G75*
G02*
X86394385Y84844385I0J-50000D01*
G01*
X86394385Y84744385D01*
G75*
G02*
X86344385Y84694385I-50000J0D01*
G01*
G37*
G36*
G01*
X86344385Y84294385D02*
X85569385Y84294385D01*
G75*
G02*
X85519385Y84344385I0J50000D01*
G01*
X85519385Y84444385D01*
G75*
G02*
X85569385Y84494385I50000J0D01*
G01*
X86344385Y84494385D01*
G75*
G02*
X86394385Y84444385I0J-50000D01*
G01*
X86394385Y84344385D01*
G75*
G02*
X86344385Y84294385I-50000J0D01*
G01*
G37*
G36*
G01*
X86344385Y83894385D02*
X85569385Y83894385D01*
G75*
G02*
X85519385Y83944385I0J50000D01*
G01*
X85519385Y84044385D01*
G75*
G02*
X85569385Y84094385I50000J0D01*
G01*
X86344385Y84094385D01*
G75*
G02*
X86394385Y84044385I0J-50000D01*
G01*
X86394385Y83944385D01*
G75*
G02*
X86344385Y83894385I-50000J0D01*
G01*
G37*
G36*
G01*
X86344385Y83494385D02*
X85569385Y83494385D01*
G75*
G02*
X85519385Y83544385I0J50000D01*
G01*
X85519385Y83644385D01*
G75*
G02*
X85569385Y83694385I50000J0D01*
G01*
X86344385Y83694385D01*
G75*
G02*
X86394385Y83644385I0J-50000D01*
G01*
X86394385Y83544385D01*
G75*
G02*
X86344385Y83494385I-50000J0D01*
G01*
G37*
G36*
G01*
X86344385Y83094385D02*
X85569385Y83094385D01*
G75*
G02*
X85519385Y83144385I0J50000D01*
G01*
X85519385Y83244385D01*
G75*
G02*
X85569385Y83294385I50000J0D01*
G01*
X86344385Y83294385D01*
G75*
G02*
X86394385Y83244385I0J-50000D01*
G01*
X86394385Y83144385D01*
G75*
G02*
X86344385Y83094385I-50000J0D01*
G01*
G37*
G36*
G01*
X86344385Y82694385D02*
X85569385Y82694385D01*
G75*
G02*
X85519385Y82744385I0J50000D01*
G01*
X85519385Y82844385D01*
G75*
G02*
X85569385Y82894385I50000J0D01*
G01*
X86344385Y82894385D01*
G75*
G02*
X86394385Y82844385I0J-50000D01*
G01*
X86394385Y82744385D01*
G75*
G02*
X86344385Y82694385I-50000J0D01*
G01*
G37*
G36*
G01*
X90850385Y83794385D02*
X87938385Y83794385D01*
G75*
G02*
X87794385Y83938385I0J144000D01*
G01*
X87794385Y86850385D01*
G75*
G02*
X87938385Y86994385I144000J0D01*
G01*
X90850385Y86994385D01*
G75*
G02*
X90994385Y86850385I0J-144000D01*
G01*
X90994385Y83938385D01*
G75*
G02*
X90850385Y83794385I-144000J0D01*
G01*
G37*
G36*
G01*
X32919385Y63450635D02*
X32919385Y62538135D01*
G75*
G02*
X32675635Y62294385I-243750J0D01*
G01*
X32188135Y62294385D01*
G75*
G02*
X31944385Y62538135I0J243750D01*
G01*
X31944385Y63450635D01*
G75*
G02*
X32188135Y63694385I243750J0D01*
G01*
X32675635Y63694385D01*
G75*
G02*
X32919385Y63450635I0J-243750D01*
G01*
G37*
G36*
G01*
X31044385Y63450635D02*
X31044385Y62538135D01*
G75*
G02*
X30800635Y62294385I-243750J0D01*
G01*
X30313135Y62294385D01*
G75*
G02*
X30069385Y62538135I0J243750D01*
G01*
X30069385Y63450635D01*
G75*
G02*
X30313135Y63694385I243750J0D01*
G01*
X30800635Y63694385D01*
G75*
G02*
X31044385Y63450635I0J-243750D01*
G01*
G37*
G36*
G01*
X121544385Y78069385D02*
X121544385Y79019385D01*
G75*
G02*
X121794385Y79269385I250000J0D01*
G01*
X122294385Y79269385D01*
G75*
G02*
X122544385Y79019385I0J-250000D01*
G01*
X122544385Y78069385D01*
G75*
G02*
X122294385Y77819385I-250000J0D01*
G01*
X121794385Y77819385D01*
G75*
G02*
X121544385Y78069385I0J250000D01*
G01*
G37*
G36*
G01*
X123444385Y78069385D02*
X123444385Y79019385D01*
G75*
G02*
X123694385Y79269385I250000J0D01*
G01*
X124194385Y79269385D01*
G75*
G02*
X124444385Y79019385I0J-250000D01*
G01*
X124444385Y78069385D01*
G75*
G02*
X124194385Y77819385I-250000J0D01*
G01*
X123694385Y77819385D01*
G75*
G02*
X123444385Y78069385I0J250000D01*
G01*
G37*
D23*
X85994385Y22994385D03*
D24*
X87994385Y22994385D03*
X85994385Y20994385D03*
X87994385Y20994385D03*
G36*
G01*
X124774385Y77294385D02*
X126074385Y77294385D01*
G75*
G02*
X126324385Y77044385I0J-250000D01*
G01*
X126324385Y75044385D01*
G75*
G02*
X126074385Y74794385I-250000J0D01*
G01*
X124774385Y74794385D01*
G75*
G02*
X124524385Y75044385I0J250000D01*
G01*
X124524385Y77044385D01*
G75*
G02*
X124774385Y77294385I250000J0D01*
G01*
G37*
G36*
G01*
X124774385Y73294385D02*
X126074385Y73294385D01*
G75*
G02*
X126324385Y73044385I0J-250000D01*
G01*
X126324385Y71044385D01*
G75*
G02*
X126074385Y70794385I-250000J0D01*
G01*
X124774385Y70794385D01*
G75*
G02*
X124524385Y71044385I0J250000D01*
G01*
X124524385Y73044385D01*
G75*
G02*
X124774385Y73294385I250000J0D01*
G01*
G37*
G36*
G01*
X88994385Y91569385D02*
X88994385Y92519385D01*
G75*
G02*
X89244385Y92769385I250000J0D01*
G01*
X89744385Y92769385D01*
G75*
G02*
X89994385Y92519385I0J-250000D01*
G01*
X89994385Y91569385D01*
G75*
G02*
X89744385Y91319385I-250000J0D01*
G01*
X89244385Y91319385D01*
G75*
G02*
X88994385Y91569385I0J250000D01*
G01*
G37*
G36*
G01*
X90894385Y91569385D02*
X90894385Y92519385D01*
G75*
G02*
X91144385Y92769385I250000J0D01*
G01*
X91644385Y92769385D01*
G75*
G02*
X91894385Y92519385I0J-250000D01*
G01*
X91894385Y91569385D01*
G75*
G02*
X91644385Y91319385I-250000J0D01*
G01*
X91144385Y91319385D01*
G75*
G02*
X90894385Y91569385I0J250000D01*
G01*
G37*
G36*
G01*
X36469385Y92994385D02*
X36469385Y93894385D01*
G75*
G02*
X36719385Y94144385I250000J0D01*
G01*
X37244385Y94144385D01*
G75*
G02*
X37494385Y93894385I0J-250000D01*
G01*
X37494385Y92994385D01*
G75*
G02*
X37244385Y92744385I-250000J0D01*
G01*
X36719385Y92744385D01*
G75*
G02*
X36469385Y92994385I0J250000D01*
G01*
G37*
G36*
G01*
X38294385Y92994385D02*
X38294385Y93894385D01*
G75*
G02*
X38544385Y94144385I250000J0D01*
G01*
X39069385Y94144385D01*
G75*
G02*
X39319385Y93894385I0J-250000D01*
G01*
X39319385Y92994385D01*
G75*
G02*
X39069385Y92744385I-250000J0D01*
G01*
X38544385Y92744385D01*
G75*
G02*
X38294385Y92994385I0J250000D01*
G01*
G37*
G36*
G01*
X24950635Y101269385D02*
X24438135Y101269385D01*
G75*
G02*
X24219385Y101488135I0J218750D01*
G01*
X24219385Y101925635D01*
G75*
G02*
X24438135Y102144385I218750J0D01*
G01*
X24950635Y102144385D01*
G75*
G02*
X25169385Y101925635I0J-218750D01*
G01*
X25169385Y101488135D01*
G75*
G02*
X24950635Y101269385I-218750J0D01*
G01*
G37*
G36*
G01*
X24950635Y102844385D02*
X24438135Y102844385D01*
G75*
G02*
X24219385Y103063135I0J218750D01*
G01*
X24219385Y103500635D01*
G75*
G02*
X24438135Y103719385I218750J0D01*
G01*
X24950635Y103719385D01*
G75*
G02*
X25169385Y103500635I0J-218750D01*
G01*
X25169385Y103063135D01*
G75*
G02*
X24950635Y102844385I-218750J0D01*
G01*
G37*
G36*
G01*
X26294385Y100544385D02*
X26894385Y100544385D01*
G75*
G02*
X27144385Y100294385I0J-250000D01*
G01*
X27144385Y99694385D01*
G75*
G02*
X26894385Y99444385I-250000J0D01*
G01*
X26294385Y99444385D01*
G75*
G02*
X26044385Y99694385I0J250000D01*
G01*
X26044385Y100294385D01*
G75*
G02*
X26294385Y100544385I250000J0D01*
G01*
G37*
G36*
G01*
X26294385Y97744385D02*
X26894385Y97744385D01*
G75*
G02*
X27144385Y97494385I0J-250000D01*
G01*
X27144385Y96894385D01*
G75*
G02*
X26894385Y96644385I-250000J0D01*
G01*
X26294385Y96644385D01*
G75*
G02*
X26044385Y96894385I0J250000D01*
G01*
X26044385Y97494385D01*
G75*
G02*
X26294385Y97744385I250000J0D01*
G01*
G37*
G36*
G01*
X146044385Y79144385D02*
X144744385Y79144385D01*
G75*
G02*
X144494385Y79394385I0J250000D01*
G01*
X144494385Y81394385D01*
G75*
G02*
X144744385Y81644385I250000J0D01*
G01*
X146044385Y81644385D01*
G75*
G02*
X146294385Y81394385I0J-250000D01*
G01*
X146294385Y79394385D01*
G75*
G02*
X146044385Y79144385I-250000J0D01*
G01*
G37*
G36*
G01*
X146044385Y83144385D02*
X144744385Y83144385D01*
G75*
G02*
X144494385Y83394385I0J250000D01*
G01*
X144494385Y85394385D01*
G75*
G02*
X144744385Y85644385I250000J0D01*
G01*
X146044385Y85644385D01*
G75*
G02*
X146294385Y85394385I0J-250000D01*
G01*
X146294385Y83394385D01*
G75*
G02*
X146044385Y83144385I-250000J0D01*
G01*
G37*
G36*
G01*
X99694385Y86319385D02*
X99694385Y87269385D01*
G75*
G02*
X99944385Y87519385I250000J0D01*
G01*
X100444385Y87519385D01*
G75*
G02*
X100694385Y87269385I0J-250000D01*
G01*
X100694385Y86319385D01*
G75*
G02*
X100444385Y86069385I-250000J0D01*
G01*
X99944385Y86069385D01*
G75*
G02*
X99694385Y86319385I0J250000D01*
G01*
G37*
G36*
G01*
X101594385Y86319385D02*
X101594385Y87269385D01*
G75*
G02*
X101844385Y87519385I250000J0D01*
G01*
X102344385Y87519385D01*
G75*
G02*
X102594385Y87269385I0J-250000D01*
G01*
X102594385Y86319385D01*
G75*
G02*
X102344385Y86069385I-250000J0D01*
G01*
X101844385Y86069385D01*
G75*
G02*
X101594385Y86319385I0J250000D01*
G01*
G37*
G36*
G01*
X85634385Y92929385D02*
X85634385Y91979385D01*
G75*
G02*
X85384385Y91729385I-250000J0D01*
G01*
X84884385Y91729385D01*
G75*
G02*
X84634385Y91979385I0J250000D01*
G01*
X84634385Y92929385D01*
G75*
G02*
X84884385Y93179385I250000J0D01*
G01*
X85384385Y93179385D01*
G75*
G02*
X85634385Y92929385I0J-250000D01*
G01*
G37*
G36*
G01*
X83734385Y92929385D02*
X83734385Y91979385D01*
G75*
G02*
X83484385Y91729385I-250000J0D01*
G01*
X82984385Y91729385D01*
G75*
G02*
X82734385Y91979385I0J250000D01*
G01*
X82734385Y92929385D01*
G75*
G02*
X82984385Y93179385I250000J0D01*
G01*
X83484385Y93179385D01*
G75*
G02*
X83734385Y92929385I0J-250000D01*
G01*
G37*
G36*
G01*
X137119385Y72244385D02*
X138069385Y72244385D01*
G75*
G02*
X138319385Y71994385I0J-250000D01*
G01*
X138319385Y71494385D01*
G75*
G02*
X138069385Y71244385I-250000J0D01*
G01*
X137119385Y71244385D01*
G75*
G02*
X136869385Y71494385I0J250000D01*
G01*
X136869385Y71994385D01*
G75*
G02*
X137119385Y72244385I250000J0D01*
G01*
G37*
G36*
G01*
X137119385Y70344385D02*
X138069385Y70344385D01*
G75*
G02*
X138319385Y70094385I0J-250000D01*
G01*
X138319385Y69594385D01*
G75*
G02*
X138069385Y69344385I-250000J0D01*
G01*
X137119385Y69344385D01*
G75*
G02*
X136869385Y69594385I0J250000D01*
G01*
X136869385Y70094385D01*
G75*
G02*
X137119385Y70344385I250000J0D01*
G01*
G37*
G36*
G01*
X151669385Y99714385D02*
X151669385Y100614385D01*
G75*
G02*
X151919385Y100864385I250000J0D01*
G01*
X152444385Y100864385D01*
G75*
G02*
X152694385Y100614385I0J-250000D01*
G01*
X152694385Y99714385D01*
G75*
G02*
X152444385Y99464385I-250000J0D01*
G01*
X151919385Y99464385D01*
G75*
G02*
X151669385Y99714385I0J250000D01*
G01*
G37*
G36*
G01*
X153494385Y99714385D02*
X153494385Y100614385D01*
G75*
G02*
X153744385Y100864385I250000J0D01*
G01*
X154269385Y100864385D01*
G75*
G02*
X154519385Y100614385I0J-250000D01*
G01*
X154519385Y99714385D01*
G75*
G02*
X154269385Y99464385I-250000J0D01*
G01*
X153744385Y99464385D01*
G75*
G02*
X153494385Y99714385I0J250000D01*
G01*
G37*
G36*
G01*
X24438135Y100469385D02*
X24950635Y100469385D01*
G75*
G02*
X25169385Y100250635I0J-218750D01*
G01*
X25169385Y99813135D01*
G75*
G02*
X24950635Y99594385I-218750J0D01*
G01*
X24438135Y99594385D01*
G75*
G02*
X24219385Y99813135I0J218750D01*
G01*
X24219385Y100250635D01*
G75*
G02*
X24438135Y100469385I218750J0D01*
G01*
G37*
G36*
G01*
X24438135Y98894385D02*
X24950635Y98894385D01*
G75*
G02*
X25169385Y98675635I0J-218750D01*
G01*
X25169385Y98238135D01*
G75*
G02*
X24950635Y98019385I-218750J0D01*
G01*
X24438135Y98019385D01*
G75*
G02*
X24219385Y98238135I0J218750D01*
G01*
X24219385Y98675635D01*
G75*
G02*
X24438135Y98894385I218750J0D01*
G01*
G37*
G36*
G01*
X96644385Y78969385D02*
X96644385Y78019385D01*
G75*
G02*
X96394385Y77769385I-250000J0D01*
G01*
X95894385Y77769385D01*
G75*
G02*
X95644385Y78019385I0J250000D01*
G01*
X95644385Y78969385D01*
G75*
G02*
X95894385Y79219385I250000J0D01*
G01*
X96394385Y79219385D01*
G75*
G02*
X96644385Y78969385I0J-250000D01*
G01*
G37*
G36*
G01*
X94744385Y78969385D02*
X94744385Y78019385D01*
G75*
G02*
X94494385Y77769385I-250000J0D01*
G01*
X93994385Y77769385D01*
G75*
G02*
X93744385Y78019385I0J250000D01*
G01*
X93744385Y78969385D01*
G75*
G02*
X93994385Y79219385I250000J0D01*
G01*
X94494385Y79219385D01*
G75*
G02*
X94744385Y78969385I0J-250000D01*
G01*
G37*
G36*
G01*
X150764385Y104734385D02*
X150764385Y101834385D01*
G75*
G02*
X150514385Y101584385I-250000J0D01*
G01*
X149889385Y101584385D01*
G75*
G02*
X149639385Y101834385I0J250000D01*
G01*
X149639385Y104734385D01*
G75*
G02*
X149889385Y104984385I250000J0D01*
G01*
X150514385Y104984385D01*
G75*
G02*
X150764385Y104734385I0J-250000D01*
G01*
G37*
G36*
G01*
X146489385Y104734385D02*
X146489385Y101834385D01*
G75*
G02*
X146239385Y101584385I-250000J0D01*
G01*
X145614385Y101584385D01*
G75*
G02*
X145364385Y101834385I0J250000D01*
G01*
X145364385Y104734385D01*
G75*
G02*
X145614385Y104984385I250000J0D01*
G01*
X146239385Y104984385D01*
G75*
G02*
X146489385Y104734385I0J-250000D01*
G01*
G37*
G36*
G01*
X135344385Y76069385D02*
X134444385Y76069385D01*
G75*
G02*
X134194385Y76319385I0J250000D01*
G01*
X134194385Y76844385D01*
G75*
G02*
X134444385Y77094385I250000J0D01*
G01*
X135344385Y77094385D01*
G75*
G02*
X135594385Y76844385I0J-250000D01*
G01*
X135594385Y76319385D01*
G75*
G02*
X135344385Y76069385I-250000J0D01*
G01*
G37*
G36*
G01*
X135344385Y77894385D02*
X134444385Y77894385D01*
G75*
G02*
X134194385Y78144385I0J250000D01*
G01*
X134194385Y78669385D01*
G75*
G02*
X134444385Y78919385I250000J0D01*
G01*
X135344385Y78919385D01*
G75*
G02*
X135594385Y78669385I0J-250000D01*
G01*
X135594385Y78144385D01*
G75*
G02*
X135344385Y77894385I-250000J0D01*
G01*
G37*
D11*
X100894385Y67428785D03*
D38*
X95494385Y74894385D03*
X104494385Y74894385D03*
D29*
X154994385Y14494385D03*
X168994385Y14494385D03*
X154994385Y9494385D03*
X168994385Y9494385D03*
G36*
G01*
X79739385Y74144385D02*
X79439385Y74144385D01*
G75*
G02*
X79289385Y74294385I0J150000D01*
G01*
X79289385Y75594385D01*
G75*
G02*
X79439385Y75744385I150000J0D01*
G01*
X79739385Y75744385D01*
G75*
G02*
X79889385Y75594385I0J-150000D01*
G01*
X79889385Y74294385D01*
G75*
G02*
X79739385Y74144385I-150000J0D01*
G01*
G37*
G36*
G01*
X81009385Y74144385D02*
X80709385Y74144385D01*
G75*
G02*
X80559385Y74294385I0J150000D01*
G01*
X80559385Y75594385D01*
G75*
G02*
X80709385Y75744385I150000J0D01*
G01*
X81009385Y75744385D01*
G75*
G02*
X81159385Y75594385I0J-150000D01*
G01*
X81159385Y74294385D01*
G75*
G02*
X81009385Y74144385I-150000J0D01*
G01*
G37*
G36*
G01*
X82279385Y74144385D02*
X81979385Y74144385D01*
G75*
G02*
X81829385Y74294385I0J150000D01*
G01*
X81829385Y75594385D01*
G75*
G02*
X81979385Y75744385I150000J0D01*
G01*
X82279385Y75744385D01*
G75*
G02*
X82429385Y75594385I0J-150000D01*
G01*
X82429385Y74294385D01*
G75*
G02*
X82279385Y74144385I-150000J0D01*
G01*
G37*
G36*
G01*
X83549385Y74144385D02*
X83249385Y74144385D01*
G75*
G02*
X83099385Y74294385I0J150000D01*
G01*
X83099385Y75594385D01*
G75*
G02*
X83249385Y75744385I150000J0D01*
G01*
X83549385Y75744385D01*
G75*
G02*
X83699385Y75594385I0J-150000D01*
G01*
X83699385Y74294385D01*
G75*
G02*
X83549385Y74144385I-150000J0D01*
G01*
G37*
G36*
G01*
X83549385Y81344385D02*
X83249385Y81344385D01*
G75*
G02*
X83099385Y81494385I0J150000D01*
G01*
X83099385Y82794385D01*
G75*
G02*
X83249385Y82944385I150000J0D01*
G01*
X83549385Y82944385D01*
G75*
G02*
X83699385Y82794385I0J-150000D01*
G01*
X83699385Y81494385D01*
G75*
G02*
X83549385Y81344385I-150000J0D01*
G01*
G37*
G36*
G01*
X82279385Y81344385D02*
X81979385Y81344385D01*
G75*
G02*
X81829385Y81494385I0J150000D01*
G01*
X81829385Y82794385D01*
G75*
G02*
X81979385Y82944385I150000J0D01*
G01*
X82279385Y82944385D01*
G75*
G02*
X82429385Y82794385I0J-150000D01*
G01*
X82429385Y81494385D01*
G75*
G02*
X82279385Y81344385I-150000J0D01*
G01*
G37*
G36*
G01*
X81009385Y81344385D02*
X80709385Y81344385D01*
G75*
G02*
X80559385Y81494385I0J150000D01*
G01*
X80559385Y82794385D01*
G75*
G02*
X80709385Y82944385I150000J0D01*
G01*
X81009385Y82944385D01*
G75*
G02*
X81159385Y82794385I0J-150000D01*
G01*
X81159385Y81494385D01*
G75*
G02*
X81009385Y81344385I-150000J0D01*
G01*
G37*
G36*
G01*
X79739385Y81344385D02*
X79439385Y81344385D01*
G75*
G02*
X79289385Y81494385I0J150000D01*
G01*
X79289385Y82794385D01*
G75*
G02*
X79439385Y82944385I150000J0D01*
G01*
X79739385Y82944385D01*
G75*
G02*
X79889385Y82794385I0J-150000D01*
G01*
X79889385Y81494385D01*
G75*
G02*
X79739385Y81344385I-150000J0D01*
G01*
G37*
D22*
X161994385Y11994385D03*
D39*
X70994385Y19494385D03*
X70994385Y67494385D03*
X37994385Y19494385D03*
X37994385Y67494385D03*
D40*
X72994385Y36194385D03*
X69914385Y36194385D03*
X72994385Y36594385D03*
X69914385Y36594385D03*
X72994385Y36994385D03*
X69914385Y36994385D03*
X72994385Y37394385D03*
X69914385Y37394385D03*
X72994385Y37794385D03*
X69914385Y37794385D03*
X72994385Y38194385D03*
X69914385Y38194385D03*
X72994385Y38594385D03*
X69914385Y38594385D03*
X72994385Y38994385D03*
X69914385Y38994385D03*
X72994385Y39394385D03*
X69914385Y39394385D03*
X72994385Y39794385D03*
X69914385Y39794385D03*
X72994385Y40194385D03*
X69914385Y40194385D03*
X72994385Y40594385D03*
X69914385Y40594385D03*
X72994385Y40994385D03*
X69914385Y40994385D03*
X72994385Y41394385D03*
X69914385Y41394385D03*
X72994385Y41794385D03*
X69914385Y41794385D03*
X72994385Y42194385D03*
X69914385Y42194385D03*
X72994385Y42594385D03*
X69914385Y42594385D03*
X72994385Y42994385D03*
X69914385Y42994385D03*
X72994385Y43394385D03*
X69914385Y43394385D03*
X72994385Y43794385D03*
X69914385Y43794385D03*
X72994385Y44194385D03*
X69914385Y44194385D03*
X72994385Y44594385D03*
X69914385Y44594385D03*
X72994385Y44994385D03*
X69914385Y44994385D03*
X72994385Y45394385D03*
X69914385Y45394385D03*
X72994385Y45794385D03*
X69914385Y45794385D03*
X72994385Y46194385D03*
X69914385Y46194385D03*
X72994385Y46594385D03*
X69914385Y46594385D03*
X72994385Y46994385D03*
X69914385Y46994385D03*
X72994385Y47394385D03*
X69914385Y47394385D03*
X72994385Y47794385D03*
X69914385Y47794385D03*
X72994385Y48194385D03*
X69914385Y48194385D03*
X72994385Y48594385D03*
X69914385Y48594385D03*
X72994385Y48994385D03*
X69914385Y48994385D03*
X72994385Y49394385D03*
X69914385Y49394385D03*
X72994385Y49794385D03*
X69914385Y49794385D03*
X72994385Y50194385D03*
X69914385Y50194385D03*
X72994385Y50594385D03*
X69914385Y50594385D03*
X72994385Y50994385D03*
X69914385Y50994385D03*
X72994385Y51394385D03*
X69914385Y51394385D03*
X72994385Y51794385D03*
X69914385Y51794385D03*
X72994385Y52194385D03*
X69914385Y52194385D03*
X72994385Y52594385D03*
X69914385Y52594385D03*
X72994385Y52994385D03*
X69914385Y52994385D03*
X72994385Y53394385D03*
X69914385Y53394385D03*
X72994385Y53794385D03*
X69914385Y53794385D03*
X72994385Y54194385D03*
X69914385Y54194385D03*
X72994385Y54594385D03*
X69914385Y54594385D03*
X72994385Y54994385D03*
X69914385Y54994385D03*
X72994385Y55394385D03*
X69914385Y55394385D03*
X72994385Y55794385D03*
X69914385Y55794385D03*
X39074385Y36194385D03*
X35994385Y36194385D03*
X39074385Y36594385D03*
X35994385Y36594385D03*
X39074385Y36994385D03*
X35994385Y36994385D03*
X39074385Y37394385D03*
X35994385Y37394385D03*
X39074385Y37794385D03*
X35994385Y37794385D03*
X39074385Y38194385D03*
X35994385Y38194385D03*
X39074385Y38594385D03*
X35994385Y38594385D03*
X39074385Y38994385D03*
X35994385Y38994385D03*
X39074385Y39394385D03*
X35994385Y39394385D03*
X39074385Y39794385D03*
X35994385Y39794385D03*
X39074385Y40194385D03*
X35994385Y40194385D03*
X39074385Y40594385D03*
X35994385Y40594385D03*
X39074385Y40994385D03*
X35994385Y40994385D03*
X39074385Y41394385D03*
X35994385Y41394385D03*
X39074385Y41794385D03*
X35994385Y41794385D03*
X39074385Y42194385D03*
X35994385Y42194385D03*
X39074385Y42594385D03*
X35994385Y42594385D03*
X39074385Y42994385D03*
X35994385Y42994385D03*
X39074385Y43394385D03*
X35994385Y43394385D03*
X39074385Y43794385D03*
X35994385Y43794385D03*
X39074385Y44194385D03*
X35994385Y44194385D03*
X39074385Y44594385D03*
X35994385Y44594385D03*
X39074385Y44994385D03*
X35994385Y44994385D03*
X39074385Y45394385D03*
X35994385Y45394385D03*
X39074385Y45794385D03*
X35994385Y45794385D03*
X39074385Y46194385D03*
X35994385Y46194385D03*
X39074385Y46594385D03*
X35994385Y46594385D03*
X39074385Y46994385D03*
X35994385Y46994385D03*
X39074385Y47394385D03*
X35994385Y47394385D03*
X39074385Y47794385D03*
X35994385Y47794385D03*
X39074385Y48194385D03*
X35994385Y48194385D03*
X39074385Y48594385D03*
X35994385Y48594385D03*
X39074385Y48994385D03*
X35994385Y48994385D03*
X39074385Y49394385D03*
X35994385Y49394385D03*
X39074385Y49794385D03*
X35994385Y49794385D03*
X39074385Y50194385D03*
X35994385Y50194385D03*
X39074385Y50594385D03*
X35994385Y50594385D03*
X39074385Y50994385D03*
X35994385Y50994385D03*
X39074385Y51394385D03*
X35994385Y51394385D03*
X39074385Y51794385D03*
X35994385Y51794385D03*
X39074385Y52194385D03*
X35994385Y52194385D03*
X39074385Y52594385D03*
X35994385Y52594385D03*
X39074385Y52994385D03*
X35994385Y52994385D03*
X39074385Y53394385D03*
X35994385Y53394385D03*
X39074385Y53794385D03*
X35994385Y53794385D03*
X39074385Y54194385D03*
X35994385Y54194385D03*
X39074385Y54594385D03*
X35994385Y54594385D03*
X39074385Y54994385D03*
X35994385Y54994385D03*
X39074385Y55394385D03*
X35994385Y55394385D03*
X39074385Y55794385D03*
X35994385Y55794385D03*
D12*
X6494385Y2494385D03*
D29*
X154994385Y66494385D03*
X168994385Y66494385D03*
X154994385Y61494385D03*
X168994385Y61494385D03*
X4994385Y14494385D03*
X18994385Y14494385D03*
X4994385Y9494385D03*
X18994385Y9494385D03*
G36*
G01*
X151419385Y76244385D02*
X152369385Y76244385D01*
G75*
G02*
X152619385Y75994385I0J-250000D01*
G01*
X152619385Y75494385D01*
G75*
G02*
X152369385Y75244385I-250000J0D01*
G01*
X151419385Y75244385D01*
G75*
G02*
X151169385Y75494385I0J250000D01*
G01*
X151169385Y75994385D01*
G75*
G02*
X151419385Y76244385I250000J0D01*
G01*
G37*
G36*
G01*
X151419385Y74344385D02*
X152369385Y74344385D01*
G75*
G02*
X152619385Y74094385I0J-250000D01*
G01*
X152619385Y73594385D01*
G75*
G02*
X152369385Y73344385I-250000J0D01*
G01*
X151419385Y73344385D01*
G75*
G02*
X151169385Y73594385I0J250000D01*
G01*
X151169385Y74094385D01*
G75*
G02*
X151419385Y74344385I250000J0D01*
G01*
G37*
G36*
G01*
X30069385Y64444385D02*
X30069385Y65344385D01*
G75*
G02*
X30319385Y65594385I250000J0D01*
G01*
X30844385Y65594385D01*
G75*
G02*
X31094385Y65344385I0J-250000D01*
G01*
X31094385Y64444385D01*
G75*
G02*
X30844385Y64194385I-250000J0D01*
G01*
X30319385Y64194385D01*
G75*
G02*
X30069385Y64444385I0J250000D01*
G01*
G37*
G36*
G01*
X31894385Y64444385D02*
X31894385Y65344385D01*
G75*
G02*
X32144385Y65594385I250000J0D01*
G01*
X32669385Y65594385D01*
G75*
G02*
X32919385Y65344385I0J-250000D01*
G01*
X32919385Y64444385D01*
G75*
G02*
X32669385Y64194385I-250000J0D01*
G01*
X32144385Y64194385D01*
G75*
G02*
X31894385Y64444385I0J250000D01*
G01*
G37*
G36*
G01*
X94569385Y84744385D02*
X95519385Y84744385D01*
G75*
G02*
X95769385Y84494385I0J-250000D01*
G01*
X95769385Y83994385D01*
G75*
G02*
X95519385Y83744385I-250000J0D01*
G01*
X94569385Y83744385D01*
G75*
G02*
X94319385Y83994385I0J250000D01*
G01*
X94319385Y84494385D01*
G75*
G02*
X94569385Y84744385I250000J0D01*
G01*
G37*
G36*
G01*
X94569385Y82844385D02*
X95519385Y82844385D01*
G75*
G02*
X95769385Y82594385I0J-250000D01*
G01*
X95769385Y82094385D01*
G75*
G02*
X95519385Y81844385I-250000J0D01*
G01*
X94569385Y81844385D01*
G75*
G02*
X94319385Y82094385I0J250000D01*
G01*
X94319385Y82594385D01*
G75*
G02*
X94569385Y82844385I250000J0D01*
G01*
G37*
D11*
X149994385Y107994385D03*
G36*
G01*
X32919385Y61450635D02*
X32919385Y60538135D01*
G75*
G02*
X32675635Y60294385I-243750J0D01*
G01*
X32188135Y60294385D01*
G75*
G02*
X31944385Y60538135I0J243750D01*
G01*
X31944385Y61450635D01*
G75*
G02*
X32188135Y61694385I243750J0D01*
G01*
X32675635Y61694385D01*
G75*
G02*
X32919385Y61450635I0J-243750D01*
G01*
G37*
G36*
G01*
X31044385Y61450635D02*
X31044385Y60538135D01*
G75*
G02*
X30800635Y60294385I-243750J0D01*
G01*
X30313135Y60294385D01*
G75*
G02*
X30069385Y60538135I0J243750D01*
G01*
X30069385Y61450635D01*
G75*
G02*
X30313135Y61694385I243750J0D01*
G01*
X30800635Y61694385D01*
G75*
G02*
X31044385Y61450635I0J-243750D01*
G01*
G37*
G36*
G01*
X85644385Y90969385D02*
X85644385Y90019385D01*
G75*
G02*
X85394385Y89769385I-250000J0D01*
G01*
X84894385Y89769385D01*
G75*
G02*
X84644385Y90019385I0J250000D01*
G01*
X84644385Y90969385D01*
G75*
G02*
X84894385Y91219385I250000J0D01*
G01*
X85394385Y91219385D01*
G75*
G02*
X85644385Y90969385I0J-250000D01*
G01*
G37*
G36*
G01*
X83744385Y90969385D02*
X83744385Y90019385D01*
G75*
G02*
X83494385Y89769385I-250000J0D01*
G01*
X82994385Y89769385D01*
G75*
G02*
X82744385Y90019385I0J250000D01*
G01*
X82744385Y90969385D01*
G75*
G02*
X82994385Y91219385I250000J0D01*
G01*
X83494385Y91219385D01*
G75*
G02*
X83744385Y90969385I0J-250000D01*
G01*
G37*
G36*
G01*
X33469385Y93188135D02*
X33469385Y93700635D01*
G75*
G02*
X33688135Y93919385I218750J0D01*
G01*
X34125635Y93919385D01*
G75*
G02*
X34344385Y93700635I0J-218750D01*
G01*
X34344385Y93188135D01*
G75*
G02*
X34125635Y92969385I-218750J0D01*
G01*
X33688135Y92969385D01*
G75*
G02*
X33469385Y93188135I0J218750D01*
G01*
G37*
G36*
G01*
X35044385Y93188135D02*
X35044385Y93700635D01*
G75*
G02*
X35263135Y93919385I218750J0D01*
G01*
X35700635Y93919385D01*
G75*
G02*
X35919385Y93700635I0J-218750D01*
G01*
X35919385Y93188135D01*
G75*
G02*
X35700635Y92969385I-218750J0D01*
G01*
X35263135Y92969385D01*
G75*
G02*
X35044385Y93188135I0J218750D01*
G01*
G37*
G36*
G01*
X36479385Y91584385D02*
X36479385Y90684385D01*
G75*
G02*
X36229385Y90434385I-250000J0D01*
G01*
X35704385Y90434385D01*
G75*
G02*
X35454385Y90684385I0J250000D01*
G01*
X35454385Y91584385D01*
G75*
G02*
X35704385Y91834385I250000J0D01*
G01*
X36229385Y91834385D01*
G75*
G02*
X36479385Y91584385I0J-250000D01*
G01*
G37*
G36*
G01*
X34654385Y91584385D02*
X34654385Y90684385D01*
G75*
G02*
X34404385Y90434385I-250000J0D01*
G01*
X33879385Y90434385D01*
G75*
G02*
X33629385Y90684385I0J250000D01*
G01*
X33629385Y91584385D01*
G75*
G02*
X33879385Y91834385I250000J0D01*
G01*
X34404385Y91834385D01*
G75*
G02*
X34654385Y91584385I0J-250000D01*
G01*
G37*
D41*
X56144385Y83394385D03*
X56144385Y84044385D03*
X56144385Y84694385D03*
X54244385Y84694385D03*
X54244385Y83394385D03*
D33*
X117244385Y99494385D03*
D34*
X117244385Y94494385D03*
X117244385Y96994385D03*
D35*
X124744385Y102594385D03*
X124744385Y91394385D03*
D34*
X131744385Y94494385D03*
X131744385Y99494385D03*
D29*
X79994385Y14494385D03*
X93994385Y14494385D03*
X79994385Y9494385D03*
X93994385Y9494385D03*
D42*
X32044385Y68443785D03*
X31394385Y68443785D03*
X30744385Y68443785D03*
X30744385Y66543785D03*
X32044385Y66543785D03*
G36*
G01*
X90159385Y79644385D02*
X91109385Y79644385D01*
G75*
G02*
X91359385Y79394385I0J-250000D01*
G01*
X91359385Y78894385D01*
G75*
G02*
X91109385Y78644385I-250000J0D01*
G01*
X90159385Y78644385D01*
G75*
G02*
X89909385Y78894385I0J250000D01*
G01*
X89909385Y79394385D01*
G75*
G02*
X90159385Y79644385I250000J0D01*
G01*
G37*
G36*
G01*
X90159385Y77744385D02*
X91109385Y77744385D01*
G75*
G02*
X91359385Y77494385I0J-250000D01*
G01*
X91359385Y76994385D01*
G75*
G02*
X91109385Y76744385I-250000J0D01*
G01*
X90159385Y76744385D01*
G75*
G02*
X89909385Y76994385I0J250000D01*
G01*
X89909385Y77494385D01*
G75*
G02*
X90159385Y77744385I250000J0D01*
G01*
G37*
G36*
G01*
X100644385Y78019385D02*
X100644385Y78969385D01*
G75*
G02*
X100894385Y79219385I250000J0D01*
G01*
X101394385Y79219385D01*
G75*
G02*
X101644385Y78969385I0J-250000D01*
G01*
X101644385Y78019385D01*
G75*
G02*
X101394385Y77769385I-250000J0D01*
G01*
X100894385Y77769385D01*
G75*
G02*
X100644385Y78019385I0J250000D01*
G01*
G37*
G36*
G01*
X102544385Y78019385D02*
X102544385Y78969385D01*
G75*
G02*
X102794385Y79219385I250000J0D01*
G01*
X103294385Y79219385D01*
G75*
G02*
X103544385Y78969385I0J-250000D01*
G01*
X103544385Y78019385D01*
G75*
G02*
X103294385Y77769385I-250000J0D01*
G01*
X102794385Y77769385D01*
G75*
G02*
X102544385Y78019385I0J250000D01*
G01*
G37*
G36*
X63940697Y97708464D02*
G01*
X63208464Y98440697D01*
X63193585Y98476618D01*
X63193585Y99512152D01*
X63208464Y99548073D01*
X63940697Y100280306D01*
X63976618Y100295185D01*
X65012152Y100295185D01*
X65048073Y100280306D01*
X65780306Y99548073D01*
X65795185Y99512152D01*
X65795185Y98476618D01*
X65780306Y98440697D01*
X65048073Y97708464D01*
X65012152Y97693585D01*
X63976618Y97693585D01*
X63940697Y97708464D01*
G37*
G36*
X73280306Y98440697D02*
G01*
X72548073Y97708464D01*
X72512152Y97693585D01*
X71476618Y97693585D01*
X71440697Y97708464D01*
X70708464Y98440697D01*
X70693585Y98476618D01*
X70693585Y99512152D01*
X70708464Y99548073D01*
X71440697Y100280306D01*
X71476618Y100295185D01*
X72512152Y100295185D01*
X72548073Y100280306D01*
X73280306Y99548073D01*
X73295185Y99512152D01*
X73295185Y98476618D01*
X73280306Y98440697D01*
G37*
G36*
X78940697Y97708464D02*
G01*
X78208464Y98440697D01*
X78193585Y98476618D01*
X78193585Y99512152D01*
X78208464Y99548073D01*
X78940697Y100280306D01*
X78976618Y100295185D01*
X80012152Y100295185D01*
X80048073Y100280306D01*
X80780306Y99548073D01*
X80795185Y99512152D01*
X80795185Y98476618D01*
X80780306Y98440697D01*
X80048073Y97708464D01*
X80012152Y97693585D01*
X78976618Y97693585D01*
X78940697Y97708464D01*
G37*
G36*
X66440697Y95208464D02*
G01*
X65708464Y95940697D01*
X65693585Y95976618D01*
X65693585Y97012152D01*
X65708464Y97048073D01*
X66440697Y97780306D01*
X66476618Y97795185D01*
X67512152Y97795185D01*
X67548073Y97780306D01*
X68280306Y97048073D01*
X68295185Y97012152D01*
X68295185Y95976618D01*
X68280306Y95940697D01*
X67548073Y95208464D01*
X67512152Y95193585D01*
X66476618Y95193585D01*
X66440697Y95208464D01*
G37*
G36*
X76440697Y95208464D02*
G01*
X75708464Y95940697D01*
X75693585Y95976618D01*
X75693585Y97012152D01*
X75708464Y97048073D01*
X76440697Y97780306D01*
X76476618Y97795185D01*
X77512152Y97795185D01*
X77548073Y97780306D01*
X78280306Y97048073D01*
X78295185Y97012152D01*
X78295185Y95976618D01*
X78280306Y95940697D01*
X77548073Y95208464D01*
X77512152Y95193585D01*
X76476618Y95193585D01*
X76440697Y95208464D01*
G37*
G36*
X73558464Y107958464D02*
G01*
X73543585Y107994385D01*
X73543585Y109094385D01*
X73558464Y109130306D01*
X74458464Y110030306D01*
X74494385Y110045185D01*
X75394385Y110045185D01*
X75430306Y110030306D01*
X75445185Y109994385D01*
X75445185Y107994385D01*
X75430306Y107958464D01*
X75394385Y107943585D01*
X73594385Y107943585D01*
X73558464Y107958464D01*
G37*
G36*
G01*
X77945185Y109994385D02*
X77945185Y107994385D01*
G75*
G02*
X77894385Y107943585I-50800J0D01*
G01*
X76094385Y107943585D01*
G75*
G02*
X76043585Y107994385I0J50800D01*
G01*
X76043585Y109994385D01*
G75*
G02*
X76094385Y110045185I50800J0D01*
G01*
X77894385Y110045185D01*
G75*
G02*
X77945185Y109994385I0J-50800D01*
G01*
G37*
G36*
G01*
X67945185Y109994385D02*
X67945185Y107994385D01*
G75*
G02*
X67894385Y107943585I-50800J0D01*
G01*
X66094385Y107943585D01*
G75*
G02*
X66043585Y107994385I0J50800D01*
G01*
X66043585Y109994385D01*
G75*
G02*
X66094385Y110045185I50800J0D01*
G01*
X67894385Y110045185D01*
G75*
G02*
X67945185Y109994385I0J-50800D01*
G01*
G37*
G36*
X68558464Y107958464D02*
G01*
X68543585Y107994385D01*
X68543585Y109994385D01*
X68558464Y110030306D01*
X68594385Y110045185D01*
X69494385Y110045185D01*
X69530306Y110030306D01*
X70430306Y109130306D01*
X70445185Y109094385D01*
X70445185Y107994385D01*
X70430306Y107958464D01*
X70394385Y107943585D01*
X68594385Y107943585D01*
X68558464Y107958464D01*
G37*
G36*
G01*
X139813135Y74800635D02*
X138863135Y74800635D01*
G75*
G02*
X138613135Y75050635I0J250000D01*
G01*
X138613135Y75550635D01*
G75*
G02*
X138863135Y75800635I250000J0D01*
G01*
X139813135Y75800635D01*
G75*
G02*
X140063135Y75550635I0J-250000D01*
G01*
X140063135Y75050635D01*
G75*
G02*
X139813135Y74800635I-250000J0D01*
G01*
G37*
G36*
G01*
X139813135Y76700635D02*
X138863135Y76700635D01*
G75*
G02*
X138613135Y76950635I0J250000D01*
G01*
X138613135Y77450635D01*
G75*
G02*
X138863135Y77700635I250000J0D01*
G01*
X139813135Y77700635D01*
G75*
G02*
X140063135Y77450635I0J-250000D01*
G01*
X140063135Y76950635D01*
G75*
G02*
X139813135Y76700635I-250000J0D01*
G01*
G37*
G36*
G01*
X84174385Y88939385D02*
X84174385Y87989385D01*
G75*
G02*
X83924385Y87739385I-250000J0D01*
G01*
X83424385Y87739385D01*
G75*
G02*
X83174385Y87989385I0J250000D01*
G01*
X83174385Y88939385D01*
G75*
G02*
X83424385Y89189385I250000J0D01*
G01*
X83924385Y89189385D01*
G75*
G02*
X84174385Y88939385I0J-250000D01*
G01*
G37*
G36*
G01*
X82274385Y88939385D02*
X82274385Y87989385D01*
G75*
G02*
X82024385Y87739385I-250000J0D01*
G01*
X81524385Y87739385D01*
G75*
G02*
X81274385Y87989385I0J250000D01*
G01*
X81274385Y88939385D01*
G75*
G02*
X81524385Y89189385I250000J0D01*
G01*
X82024385Y89189385D01*
G75*
G02*
X82274385Y88939385I0J-250000D01*
G01*
G37*
G36*
G01*
X33469385Y95075635D02*
X33469385Y95588135D01*
G75*
G02*
X33688135Y95806885I218750J0D01*
G01*
X34125635Y95806885D01*
G75*
G02*
X34344385Y95588135I0J-218750D01*
G01*
X34344385Y95075635D01*
G75*
G02*
X34125635Y94856885I-218750J0D01*
G01*
X33688135Y94856885D01*
G75*
G02*
X33469385Y95075635I0J218750D01*
G01*
G37*
G36*
G01*
X35044385Y95075635D02*
X35044385Y95588135D01*
G75*
G02*
X35263135Y95806885I218750J0D01*
G01*
X35700635Y95806885D01*
G75*
G02*
X35919385Y95588135I0J-218750D01*
G01*
X35919385Y95075635D01*
G75*
G02*
X35700635Y94856885I-218750J0D01*
G01*
X35263135Y94856885D01*
G75*
G02*
X35044385Y95075635I0J218750D01*
G01*
G37*
D13*
X76988885Y101494385D03*
X74488885Y101494385D03*
D14*
X71988885Y106494385D03*
D13*
X66988885Y101494385D03*
X69488885Y101494385D03*
G36*
G01*
X137713135Y74800635D02*
X136763135Y74800635D01*
G75*
G02*
X136513135Y75050635I0J250000D01*
G01*
X136513135Y75550635D01*
G75*
G02*
X136763135Y75800635I250000J0D01*
G01*
X137713135Y75800635D01*
G75*
G02*
X137963135Y75550635I0J-250000D01*
G01*
X137963135Y75050635D01*
G75*
G02*
X137713135Y74800635I-250000J0D01*
G01*
G37*
G36*
G01*
X137713135Y76700635D02*
X136763135Y76700635D01*
G75*
G02*
X136513135Y76950635I0J250000D01*
G01*
X136513135Y77450635D01*
G75*
G02*
X136763135Y77700635I250000J0D01*
G01*
X137713135Y77700635D01*
G75*
G02*
X137963135Y77450635I0J-250000D01*
G01*
X137963135Y76950635D01*
G75*
G02*
X137713135Y76700635I-250000J0D01*
G01*
G37*
G36*
G01*
X32444385Y103244385D02*
X32444385Y101794385D01*
G75*
G02*
X32194385Y101544385I-250000J0D01*
G01*
X30994385Y101544385D01*
G75*
G02*
X30744385Y101794385I0J250000D01*
G01*
X30744385Y103244385D01*
G75*
G02*
X30994385Y103494385I250000J0D01*
G01*
X32194385Y103494385D01*
G75*
G02*
X32444385Y103244385I0J-250000D01*
G01*
G37*
D43*
X29094385Y102519385D03*
X26594385Y102519385D03*
G36*
G01*
X25744385Y4619385D02*
X25744385Y3169385D01*
G75*
G02*
X25494385Y2919385I-250000J0D01*
G01*
X24294385Y2919385D01*
G75*
G02*
X24044385Y3169385I0J250000D01*
G01*
X24044385Y4619385D01*
G75*
G02*
X24294385Y4869385I250000J0D01*
G01*
X25494385Y4869385D01*
G75*
G02*
X25744385Y4619385I0J-250000D01*
G01*
G37*
X22394385Y3894385D03*
X19894385Y3894385D03*
D26*
X102244385Y62618785D03*
D27*
X99704385Y62618785D03*
X102244385Y60078785D03*
X99704385Y60078785D03*
X102244385Y57538785D03*
X99704385Y57538785D03*
X102244385Y54998785D03*
X99704385Y54998785D03*
X102244385Y52458785D03*
X99704385Y52458785D03*
X102244385Y49918785D03*
X99704385Y49918785D03*
X102244385Y47378785D03*
X99704385Y47378785D03*
X102244385Y44838785D03*
X99704385Y44838785D03*
X102244385Y42298785D03*
X99704385Y42298785D03*
X102244385Y39758785D03*
X99704385Y39758785D03*
X102244385Y37218785D03*
X99704385Y37218785D03*
X102244385Y34678785D03*
X99704385Y34678785D03*
X102244385Y32138785D03*
X99704385Y32138785D03*
X102244385Y29598785D03*
X99704385Y29598785D03*
X102244385Y27058785D03*
X99704385Y27058785D03*
X102244385Y24518785D03*
X99704385Y24518785D03*
X102244385Y21978785D03*
X99704385Y21978785D03*
X102244385Y19438785D03*
X99704385Y19438785D03*
X102244385Y16898785D03*
X99704385Y16898785D03*
X102244385Y14358785D03*
X99704385Y14358785D03*
D26*
X138549385Y56148785D03*
D27*
X136009385Y56148785D03*
X138549385Y53608785D03*
X136009385Y53608785D03*
X138549385Y51068785D03*
X136009385Y51068785D03*
D26*
X134374385Y11843785D03*
D27*
X134374385Y9303785D03*
X136914385Y11843785D03*
X136914385Y9303785D03*
X139454385Y11843785D03*
X139454385Y9303785D03*
G36*
G01*
X32444385Y95494385D02*
X32444385Y94044385D01*
G75*
G02*
X32194385Y93794385I-250000J0D01*
G01*
X30994385Y93794385D01*
G75*
G02*
X30744385Y94044385I0J250000D01*
G01*
X30744385Y95494385D01*
G75*
G02*
X30994385Y95744385I250000J0D01*
G01*
X32194385Y95744385D01*
G75*
G02*
X32444385Y95494385I0J-250000D01*
G01*
G37*
D43*
X29094385Y94769385D03*
X26594385Y94769385D03*
M02*
