M48
; DRILL file {KiCad 7.0.8-7.0.8~ubuntu23.04.1} date Thu Oct 19 17:28:52 2023
; FORMAT={-:-/ absolute / metric / decimal}
; #@! TF.CreationDate,2023-10-19T17:28:52+00:00
; #@! TF.GenerationSoftware,Kicad,Pcbnew,7.0.8-7.0.8~ubuntu23.04.1
; #@! TF.FileFunction,MixedPlating,1,2
FMAT,2
METRIC
; #@! TA.AperFunction,Plated,PTH,ViaDrill
T1C0.300
; #@! TA.AperFunction,Plated,PTH,ComponentDrill
T2C0.350
; #@! TA.AperFunction,Plated,PTH,ViaDrill
T3C0.400
; #@! TA.AperFunction,Plated,PTH,ComponentDrill
T4C0.400
; #@! TA.AperFunction,Plated,PTH,ComponentDrill
T5C0.440
; #@! TA.AperFunction,Plated,PTH,ViaDrill
T6C0.800
; #@! TA.AperFunction,Plated,PTH,ComponentDrill
T7C0.800
; #@! TA.AperFunction,Plated,PTH,ComponentDrill
T8C0.950
; #@! TA.AperFunction,Plated,PTH,ComponentDrill
T9C1.000
; #@! TA.AperFunction,Plated,PTH,ComponentDrill
T10C1.300
; #@! TA.AperFunction,Plated,PTH,ComponentDrill
T11C1.321
; #@! TA.AperFunction,Plated,PTH,ComponentDrill
T12C1.400
; #@! TA.AperFunction,Plated,PTH,ComponentDrill
T13C2.600
; #@! TA.AperFunction,NonPlated,NPTH,ComponentDrill
T14C0.500
; #@! TA.AperFunction,NonPlated,NPTH,ComponentDrill
T15C1.200
; #@! TA.AperFunction,NonPlated,NPTH,ComponentDrill
T16C2.700
; #@! TA.AperFunction,NonPlated,NPTH,ComponentDrill
T17C3.700
%
G90
G05
T1
X83.654Y87.584
X83.794Y85.434
X90.674Y80.531
X91.949Y85.508
T2
X88.119Y86.669
X88.119Y85.394
X88.119Y84.119
X89.394Y86.669
X89.394Y85.394
X89.394Y84.119
X90.669Y86.669
X90.669Y85.394
X90.669Y84.119
T3
X6.194Y61.494
X6.194Y9.494
X17.794Y61.494
X18.994Y8.394
X21.094Y5.294
X23.794Y14.894
X25.794Y9.494
X26.604Y30.994
X27.344Y31.804
X28.394Y104.894
X30.094Y68.494
X30.244Y104.894
X33.194Y62.894
X36.564Y91.214
X37.294Y97.344
X37.494Y55.994
X37.494Y52.994
X37.494Y50.494
X37.494Y47.994
X37.494Y45.494
X37.494Y42.994
X37.494Y40.494
X37.494Y37.994
X37.494Y35.494
X38.144Y36.994
X39.054Y91.234
X40.644Y37.894
X45.044Y82.294
X52.894Y81.394
X56.418Y75.474
X56.894Y84.794
X60.494Y42.294
X60.744Y90.884
X64.694Y40.594
X64.994Y39.294
X65.194Y45.594
X65.294Y44.207
X65.344Y41.744
X65.394Y42.894
X65.52Y38.281
X65.793Y40.607
X65.994Y47.894
X66.069Y46.307
X66.128Y44.907
X66.494Y43.395
X66.695Y47.095
X67.294Y53.494
X67.294Y52.494
X67.894Y44.295
X68.594Y50.694
X68.694Y55.394
X69.094Y83.094
X71.494Y49.494
X71.494Y43.394
X71.494Y37.494
X71.494Y34.994
X74.894Y36.694
X76.019Y44.069
X76.094Y81.194
X76.294Y56.844
X76.604Y53.794
X76.804Y50.624
X77.134Y89.434
X77.297Y37.332
X77.532Y45.101
X77.811Y38.189
X77.894Y48.694
X78.053Y47.395
X78.294Y41.395
X78.394Y50.294
X78.694Y87.044
X78.794Y56.844
X78.964Y85.281
X79.094Y43.894
X79.394Y47.994
X79.494Y46.194
X79.506Y38.612
X79.678Y40.595
X79.884Y90.634
X80.443Y48.753
X80.551Y38.795
X80.912Y43.195
X81.034Y88.594
X81.194Y61.394
X81.194Y9.494
X81.794Y39.794
X82.635Y90.885
X83.454Y76.084
X85.024Y72.945
X85.514Y76.774
X86.114Y69.105
X86.34Y71.559
X87.194Y74.624
X87.704Y71.404
X87.734Y68.154
X87.975Y75.344
X87.994Y90.794
X88.404Y72.291
X89.69Y71.355
X89.696Y89.967
X89.796Y70.122
X90.544Y77.794
X90.694Y73.707
X91.194Y71.694
X91.395Y74.42
X91.544Y15.194
X91.559Y73.206
X92.074Y92.044
X92.794Y61.094
X92.794Y9.494
X93.594Y78.494
X93.724Y71.994
X93.874Y88.345
X94.428Y85.974
X95.038Y88.238
X95.304Y81.644
X95.745Y88.945
X96.255Y51.194
X96.794Y14.094
X98.784Y87.774
X102.744Y86.794
X102.894Y81.394
X103.314Y85.784
X103.544Y91.944
X103.544Y70.294
X103.694Y78.394
X104.382Y70.907
X106.535Y70.904
X112.404Y78.774
X118.794Y70.994
X124.544Y78.594
X124.752Y98.062
X126.144Y86.744
X127.894Y81.394
X134.894Y88.994
X135.194Y81.594
X135.994Y72.694
X136.324Y107.534
X136.334Y103.094
X138.094Y81.594
X140.494Y73.594
X140.794Y81.594
X142.694Y84.494
X143.594Y92.894
X145.394Y87.094
X147.494Y89.994
X147.594Y95.694
X148.394Y84.194
X150.794Y77.594
X152.094Y64.094
X152.582Y13.482
X154.494Y16.494
X156.194Y61.594
X156.194Y9.494
X160.794Y37.194
X167.794Y61.494
X167.794Y9.544
T5
X60.934Y74.704
X61.584Y75.704
X62.234Y74.704
X62.884Y75.704
X63.534Y74.704
T6
X36.384Y87.364
X40.844Y87.384
X46.924Y69.244
X46.994Y73.184
X78.864Y81.244
X86.095Y90.444
X109.994Y76.094
X109.994Y67.994
X148.934Y96.79
T7
X10.994Y74.994
X10.994Y72.994
X10.994Y2.994
X10.994Y0.994
X12.994Y74.994
X12.994Y72.994
X12.994Y2.994
X12.994Y0.994
X85.994Y54.994
X85.994Y52.994
X85.994Y22.994
X85.994Y20.994
X87.994Y54.994
X87.994Y52.994
X87.994Y22.994
X87.994Y20.994
X160.994Y74.994
X160.994Y72.994
X160.994Y2.994
X160.994Y0.994
X162.994Y74.994
X162.994Y72.994
X162.994Y2.994
X162.994Y0.994
T8
X19.894Y3.894
X22.394Y3.894
X24.894Y3.894
X26.594Y102.519
X26.594Y94.769
X29.094Y102.519
X29.094Y94.769
X31.594Y102.519
X31.594Y94.769
T9
X42.244Y99.494
X42.244Y96.994
X42.244Y94.494
X56.744Y99.494
X56.744Y94.494
X70.594Y76.994
X73.134Y76.994
X84.139Y49.694
X86.679Y49.694
X89.219Y49.694
X99.704Y62.619
X99.704Y60.079
X99.704Y57.539
X99.704Y54.999
X99.704Y52.459
X99.704Y49.919
X99.704Y47.379
X99.704Y44.839
X99.704Y42.299
X99.704Y39.759
X99.704Y37.219
X99.704Y34.679
X99.704Y32.139
X99.704Y29.599
X99.704Y27.059
X99.704Y24.519
X99.704Y21.979
X99.704Y19.439
X99.704Y16.899
X99.704Y14.359
X102.244Y62.619
X102.244Y60.079
X102.244Y57.539
X102.244Y54.999
X102.244Y52.459
X102.244Y49.919
X102.244Y47.379
X102.244Y44.839
X102.244Y42.299
X102.244Y39.759
X102.244Y37.219
X102.244Y34.679
X102.244Y32.139
X102.244Y29.599
X102.244Y27.059
X102.244Y24.519
X102.244Y21.979
X102.244Y19.439
X102.244Y16.899
X102.244Y14.359
X107.854Y86.694
X110.394Y86.694
X112.934Y86.694
X117.244Y99.494
X117.244Y96.994
X117.244Y94.494
X131.744Y99.494
X131.744Y94.494
X134.374Y11.844
X134.374Y9.304
X136.009Y56.149
X136.009Y53.609
X136.009Y51.069
X136.914Y11.844
X136.914Y9.304
X138.549Y56.149
X138.549Y53.609
X138.549Y51.069
X139.454Y11.844
X139.454Y9.304
T10
X160.494Y107.784
X160.494Y102.784
T11
X64.494Y98.994
X66.994Y108.994
X66.994Y96.494
X69.494Y108.994
X71.994Y98.994
X74.494Y108.994
X76.994Y108.994
X76.994Y96.494
X79.494Y98.994
X94.494Y98.994
X96.994Y108.994
X96.994Y96.494
X99.494Y108.994
X101.994Y98.994
X104.494Y108.994
X106.994Y108.994
X106.994Y96.494
X109.494Y98.994
T12
X3.694Y97.224
X3.694Y80.994
X3.694Y56.224
X3.694Y39.994
X3.694Y36.024
X3.694Y19.794
X10.044Y97.224
X10.044Y80.994
X10.044Y56.224
X10.044Y39.994
X10.044Y36.024
X10.044Y19.794
X16.394Y97.224
X16.394Y80.994
X16.394Y56.224
X16.394Y39.994
X16.394Y36.024
X16.394Y19.794
X157.594Y56.214
X157.594Y39.984
X157.594Y35.999
X157.594Y19.769
X157.609Y97.194
X157.609Y80.964
X163.944Y56.214
X163.944Y39.984
X163.944Y35.999
X163.944Y19.769
X163.959Y97.194
X163.959Y80.964
X170.294Y56.214
X170.294Y39.984
X170.294Y35.999
X170.294Y19.769
X170.309Y97.194
X170.309Y80.964
T13
X49.744Y102.594
X49.744Y91.394
X124.744Y102.594
X124.744Y91.394
T14
X62.094Y109.919
X62.094Y108.919
X62.094Y107.919
X62.094Y106.919
X62.094Y105.919
X62.094Y104.919
X62.094Y100.919
X62.094Y99.919
X62.094Y98.919
X62.094Y97.919
X62.094Y96.919
X62.094Y95.919
X62.094Y94.919
X63.094Y94.919
X64.094Y94.919
X65.094Y94.919
X66.094Y94.919
X67.094Y94.919
X68.094Y94.919
X69.094Y94.919
X70.094Y94.919
X71.094Y94.919
X72.094Y94.919
X73.094Y94.919
X74.094Y94.919
X75.094Y94.919
X76.094Y94.919
X77.094Y94.919
X78.094Y94.919
X79.094Y94.919
X80.094Y94.919
X81.094Y94.919
X82.094Y94.919
X83.094Y94.919
X84.094Y94.919
X85.094Y94.919
X86.094Y94.919
X87.094Y94.919
X88.094Y94.919
X89.094Y94.919
X90.094Y94.919
X91.094Y94.919
X92.094Y94.919
X93.094Y94.919
X94.094Y94.919
X95.094Y94.919
X96.094Y94.919
X97.094Y94.919
X98.094Y94.919
X99.094Y94.919
X100.094Y94.919
X101.094Y94.919
X102.094Y94.919
X103.094Y94.919
X104.094Y94.919
X105.094Y94.919
X106.094Y94.919
X107.094Y94.919
X108.094Y94.919
X109.094Y94.919
X110.094Y94.919
X111.094Y94.919
X112.094Y109.919
X112.094Y108.919
X112.094Y107.919
X112.094Y106.919
X112.094Y105.919
X112.094Y104.919
X112.094Y103.919
X112.094Y102.919
X112.094Y101.919
X112.094Y100.919
X112.094Y99.919
X112.094Y98.919
X112.094Y97.919
X112.094Y96.919
X112.094Y95.919
X112.094Y94.919
T15
X66.989Y106.494
X71.989Y101.494
X76.989Y106.494
X96.994Y106.494
X101.994Y101.494
X106.994Y106.494
T16
X23.994Y107.994
X37.994Y67.494
X37.994Y19.494
X70.994Y67.494
X70.994Y19.494
X100.894Y67.429
X100.974Y9.474
X149.994Y107.994
X149.994Y67.494
X149.994Y9.494
T17
X11.994Y63.994
X11.994Y11.994
X86.994Y63.994
X86.994Y11.994
X161.994Y63.994
X161.994Y11.994
T2
G00X58.659Y74.424
M15
G01X58.659Y75.424
M16
G05
G00X65.809Y74.424
M15
G01X65.809Y75.424
M16
G05
T4
G00X66.989Y101.994
M15
G01X66.989Y100.994
M16
G05
G00X69.489Y101.994
M15
G01X69.489Y100.994
M16
G05
G00X72.489Y106.494
M15
G01X71.489Y106.494
M16
G05
G00X74.489Y100.994
M15
G01X74.489Y101.994
M16
G05
G00X76.989Y100.994
M15
G01X76.989Y101.994
M16
G05
G00X96.994Y101.994
M15
G01X96.994Y100.994
M16
G05
G00X99.494Y101.994
M15
G01X99.494Y100.994
M16
G05
G00X102.494Y106.494
M15
G01X101.494Y106.494
M16
G05
G00X104.494Y100.994
M15
G01X104.494Y101.994
M16
G05
G00X106.994Y100.994
M15
G01X106.994Y101.994
M16
G05
T7
G00X156.594Y104.694
M15
G01X156.594Y102.494
M16
G05
G00X162.494Y106.394
M15
G01X160.294Y106.394
M16
G05
G00X162.694Y100.594
M15
G01X160.094Y100.594
M16
G05
T0
M30
