G04 #@! TF.GenerationSoftware,KiCad,Pcbnew,7.0.7-7.0.7~ubuntu23.04.1*
G04 #@! TF.CreationDate,2023-10-13T09:25:39+00:00*
G04 #@! TF.ProjectId,pedalboard-hw,70656461-6c62-46f6-9172-642d68772e6b,3.0.0-RC1*
G04 #@! TF.SameCoordinates,Original*
G04 #@! TF.FileFunction,Profile,NP*
%FSLAX46Y46*%
G04 Gerber Fmt 4.6, Leading zero omitted, Abs format (unit mm)*
G04 Created by KiCad (PCBNEW 7.0.7-7.0.7~ubuntu23.04.1) date 2023-10-13 09:25:39*
%MOMM*%
%LPD*%
G01*
G04 APERTURE LIST*
G04 #@! TA.AperFunction,Profile*
%ADD10C,0.100000*%
G04 #@! TD*
G04 APERTURE END LIST*
D10*
X100194385Y110994385D02*
X167994385Y110994385D01*
X-5615Y5994385D02*
X-5615Y104994385D01*
X4994385Y994385D02*
G75*
G03*
X5994385Y-5615I1000000J0D01*
G01*
X5994385Y-5615D02*
X81994385Y-5615D01*
X95794385Y109994385D02*
G75*
G03*
X96194385Y109594385I400000J0D01*
G01*
X82994385Y109994385D02*
G75*
G03*
X90994385Y109994385I4000000J0D01*
G01*
X994385Y105994385D02*
G75*
G03*
X4994385Y109994385I0J4000000D01*
G01*
X73794385Y109994385D02*
G75*
G03*
X74194385Y109594385I400000J0D01*
G01*
X167994385Y-5615D02*
G75*
G03*
X168994385Y994385I0J1000000D01*
G01*
X-5615Y5994385D02*
G75*
G03*
X994385Y4994385I1000000J0D01*
G01*
X96194385Y109594385D02*
X99794383Y109594383D01*
X5994385Y110994385D02*
G75*
G03*
X4994385Y109994385I0J-1000000D01*
G01*
X82994385Y110994385D02*
X82994385Y109994385D01*
X172994385Y4994385D02*
G75*
G03*
X168994385Y994385I0J-4000000D01*
G01*
X994385Y105994385D02*
G75*
G03*
X-5615Y104994385I0J-1000000D01*
G01*
X173994385Y104994385D02*
G75*
G03*
X172994385Y105994385I-1000000J0D01*
G01*
X90994385Y110994385D02*
X95794385Y110994385D01*
X173994385Y104994385D02*
X173994385Y5994385D01*
X95794385Y110994385D02*
X95794385Y109994385D01*
X78194385Y109994385D02*
X78194385Y110994385D01*
X78194385Y110994385D02*
X82994385Y110994385D01*
X77794385Y109594385D02*
G75*
G03*
X78194385Y109994385I0J400000D01*
G01*
X73794385Y110994385D02*
X73794385Y109994385D01*
X4994385Y994385D02*
G75*
G03*
X994385Y4994385I-4000000J0D01*
G01*
X74194385Y109594385D02*
X77794385Y109594385D01*
X90994385Y110994385D02*
X90994385Y109994385D01*
X73794385Y110994385D02*
X5994385Y110994385D01*
X99794383Y109594385D02*
G75*
G03*
X100194385Y109994385I2J400000D01*
G01*
X172994385Y4994385D02*
G75*
G03*
X173994385Y5994385I0J1000000D01*
G01*
X100194385Y109994385D02*
X100194385Y110994385D01*
X90994385Y994385D02*
G75*
G03*
X91994385Y-5615I1000000J0D01*
G01*
X91994385Y-5615D02*
X167994385Y-5615D01*
X81994385Y-5615D02*
G75*
G03*
X82994385Y994385I0J1000000D01*
G01*
X168994385Y109994385D02*
G75*
G03*
X172994385Y105994385I4000000J0D01*
G01*
X168994385Y109994385D02*
G75*
G03*
X167994385Y110994385I-1000000J0D01*
G01*
X90994385Y994385D02*
G75*
G03*
X82994385Y994385I-4000000J0D01*
G01*
M02*
