G04 #@! TF.GenerationSoftware,KiCad,Pcbnew,7.0.9-7.0.9~ubuntu23.04.1*
G04 #@! TF.CreationDate,2023-12-04T19:50:33+00:00*
G04 #@! TF.ProjectId,pedalboard-hw,70656461-6c62-46f6-9172-642d68772e6b,3.1.0-RC*
G04 #@! TF.SameCoordinates,Original*
G04 #@! TF.FileFunction,Soldermask,Top*
G04 #@! TF.FilePolarity,Negative*
%FSLAX46Y46*%
G04 Gerber Fmt 4.6, Leading zero omitted, Abs format (unit mm)*
G04 Created by KiCad (PCBNEW 7.0.9-7.0.9~ubuntu23.04.1) date 2023-12-04 19:50:33*
%MOMM*%
%LPD*%
G01*
G04 APERTURE LIST*
%ADD10C,0.010000*%
%ADD11R,2.000000X2.000000*%
%ADD12C,2.700000*%
%ADD13C,3.000000*%
%ADD14O,1.200000X2.200000*%
%ADD15O,2.200000X1.200000*%
%ADD16R,4.400000X1.800000*%
%ADD17O,4.000000X1.800000*%
%ADD18O,1.800000X4.000000*%
%ADD19R,2.000000X1.500000*%
%ADD20R,2.000000X3.800000*%
%ADD21R,2.600000X2.600000*%
%ADD22C,2.600000*%
%ADD23R,1.350000X1.350000*%
%ADD24O,1.350000X1.350000*%
%ADD25R,1.700000X0.900000*%
%ADD26R,1.500000X1.000000*%
%ADD27R,1.700000X1.700000*%
%ADD28O,1.700000X1.700000*%
%ADD29C,0.600000*%
%ADD30R,2.000000X1.800000*%
%ADD31R,0.840000X0.840000*%
%ADD32C,0.840000*%
%ADD33O,1.850000X0.850000*%
%ADD34C,2.000000*%
%ADD35C,3.200000*%
%ADD36R,3.400000X2.710000*%
%ADD37R,0.800000X1.300000*%
%ADD38R,5.600000X2.100000*%
%ADD39C,6.100000*%
%ADD40R,0.700000X0.200000*%
%ADD41R,0.400000X0.650000*%
%ADD42R,5.100000X2.350000*%
%ADD43C,6.000000*%
%ADD44O,1.200000X1.750000*%
G04 APERTURE END LIST*
D10*
X140354385Y104236015D02*
X139551705Y104236015D01*
X139551705Y106634385D01*
X140354385Y106634385D01*
X140354385Y104236015D01*
G36*
X140354385Y104236015D02*
G01*
X139551705Y104236015D01*
X139551705Y106634385D01*
X140354385Y106634385D01*
X140354385Y104236015D01*
G37*
X140354385Y99032945D02*
X139553515Y99032945D01*
X139553515Y101434385D01*
X140354385Y101434385D01*
X140354385Y99032945D01*
G36*
X140354385Y99032945D02*
G01*
X139553515Y99032945D01*
X139553515Y101434385D01*
X140354385Y101434385D01*
X140354385Y99032945D01*
G37*
X141604385Y104236945D02*
X140802465Y104236945D01*
X140802465Y106634385D01*
X141604385Y106634385D01*
X141604385Y104236945D01*
G36*
X141604385Y104236945D02*
G01*
X140802465Y104236945D01*
X140802465Y106634385D01*
X141604385Y106634385D01*
X141604385Y104236945D01*
G37*
X141604385Y99031595D02*
X140803615Y99031595D01*
X140803615Y101434385D01*
X141604385Y101434385D01*
X141604385Y99031595D01*
G36*
X141604385Y99031595D02*
G01*
X140803615Y99031595D01*
X140803615Y101434385D01*
X141604385Y101434385D01*
X141604385Y99031595D01*
G37*
X142904385Y104236385D02*
X142104742Y104236385D01*
X142104742Y106634385D01*
X142904385Y106634385D01*
X142904385Y104236385D01*
G36*
X142904385Y104236385D02*
G01*
X142104742Y104236385D01*
X142104742Y106634385D01*
X142904385Y106634385D01*
X142904385Y104236385D01*
G37*
X142904385Y99026925D02*
X142104875Y99026925D01*
X142104875Y101434385D01*
X142904385Y101434385D01*
X142904385Y99026925D01*
G36*
X142904385Y99026925D02*
G01*
X142104875Y99026925D01*
X142104875Y101434385D01*
X142904385Y101434385D01*
X142904385Y99026925D01*
G37*
X144154385Y104236105D02*
X143356225Y104236105D01*
X143356225Y106634385D01*
X144154385Y106634385D01*
X144154385Y104236105D01*
G36*
X144154385Y104236105D02*
G01*
X143356225Y104236105D01*
X143356225Y106634385D01*
X144154385Y106634385D01*
X144154385Y104236105D01*
G37*
D11*
X146754385Y74134385D03*
G36*
G01*
X96294385Y86249385D02*
X96294385Y87199385D01*
G75*
G02*
X96544385Y87449385I250000J0D01*
G01*
X97044385Y87449385D01*
G75*
G02*
X97294385Y87199385I0J-250000D01*
G01*
X97294385Y86249385D01*
G75*
G02*
X97044385Y85999385I-250000J0D01*
G01*
X96544385Y85999385D01*
G75*
G02*
X96294385Y86249385I0J250000D01*
G01*
G37*
G36*
G01*
X98194385Y86249385D02*
X98194385Y87199385D01*
G75*
G02*
X98444385Y87449385I250000J0D01*
G01*
X98944385Y87449385D01*
G75*
G02*
X99194385Y87199385I0J-250000D01*
G01*
X99194385Y86249385D01*
G75*
G02*
X98944385Y85999385I-250000J0D01*
G01*
X98444385Y85999385D01*
G75*
G02*
X98194385Y86249385I0J250000D01*
G01*
G37*
D12*
X149994385Y9494385D03*
D13*
X6994385Y107994385D03*
G36*
G01*
X78709385Y86084385D02*
X78709385Y86984385D01*
G75*
G02*
X78959385Y87234385I250000J0D01*
G01*
X79484385Y87234385D01*
G75*
G02*
X79734385Y86984385I0J-250000D01*
G01*
X79734385Y86084385D01*
G75*
G02*
X79484385Y85834385I-250000J0D01*
G01*
X78959385Y85834385D01*
G75*
G02*
X78709385Y86084385I0J250000D01*
G01*
G37*
G36*
G01*
X80534385Y86084385D02*
X80534385Y86984385D01*
G75*
G02*
X80784385Y87234385I250000J0D01*
G01*
X81309385Y87234385D01*
G75*
G02*
X81559385Y86984385I0J-250000D01*
G01*
X81559385Y86084385D01*
G75*
G02*
X81309385Y85834385I-250000J0D01*
G01*
X80784385Y85834385D01*
G75*
G02*
X80534385Y86084385I0J250000D01*
G01*
G37*
D14*
X106994385Y101494385D03*
X104494385Y101494385D03*
D15*
X101994385Y106494385D03*
D14*
X96994385Y101494385D03*
X99494385Y101494385D03*
G36*
G01*
X81909385Y89694385D02*
X80959385Y89694385D01*
G75*
G02*
X80709385Y89944385I0J250000D01*
G01*
X80709385Y90444385D01*
G75*
G02*
X80959385Y90694385I250000J0D01*
G01*
X81909385Y90694385D01*
G75*
G02*
X82159385Y90444385I0J-250000D01*
G01*
X82159385Y89944385D01*
G75*
G02*
X81909385Y89694385I-250000J0D01*
G01*
G37*
G36*
G01*
X81909385Y91594385D02*
X80959385Y91594385D01*
G75*
G02*
X80709385Y91844385I0J250000D01*
G01*
X80709385Y92344385D01*
G75*
G02*
X80959385Y92594385I250000J0D01*
G01*
X81909385Y92594385D01*
G75*
G02*
X82159385Y92344385I0J-250000D01*
G01*
X82159385Y91844385D01*
G75*
G02*
X81909385Y91594385I-250000J0D01*
G01*
G37*
G36*
G01*
X138309385Y82384385D02*
X137359385Y82384385D01*
G75*
G02*
X137109385Y82634385I0J250000D01*
G01*
X137109385Y83134385D01*
G75*
G02*
X137359385Y83384385I250000J0D01*
G01*
X138309385Y83384385D01*
G75*
G02*
X138559385Y83134385I0J-250000D01*
G01*
X138559385Y82634385D01*
G75*
G02*
X138309385Y82384385I-250000J0D01*
G01*
G37*
G36*
G01*
X138309385Y84284385D02*
X137359385Y84284385D01*
G75*
G02*
X137109385Y84534385I0J250000D01*
G01*
X137109385Y85034385D01*
G75*
G02*
X137359385Y85284385I250000J0D01*
G01*
X138309385Y85284385D01*
G75*
G02*
X138559385Y85034385I0J-250000D01*
G01*
X138559385Y84534385D01*
G75*
G02*
X138309385Y84284385I-250000J0D01*
G01*
G37*
D13*
X171994385Y101994385D03*
D11*
X135214385Y98064385D03*
G36*
G01*
X120674385Y77144385D02*
X121974385Y77144385D01*
G75*
G02*
X122224385Y76894385I0J-250000D01*
G01*
X122224385Y74894385D01*
G75*
G02*
X121974385Y74644385I-250000J0D01*
G01*
X120674385Y74644385D01*
G75*
G02*
X120424385Y74894385I0J250000D01*
G01*
X120424385Y76894385D01*
G75*
G02*
X120674385Y77144385I250000J0D01*
G01*
G37*
G36*
G01*
X120674385Y73144385D02*
X121974385Y73144385D01*
G75*
G02*
X122224385Y72894385I0J-250000D01*
G01*
X122224385Y70894385D01*
G75*
G02*
X121974385Y70644385I-250000J0D01*
G01*
X120674385Y70644385D01*
G75*
G02*
X120424385Y70894385I0J250000D01*
G01*
X120424385Y72894385D01*
G75*
G02*
X120674385Y73144385I250000J0D01*
G01*
G37*
G36*
G01*
X75506885Y74694385D02*
X75506885Y75594385D01*
G75*
G02*
X75756885Y75844385I250000J0D01*
G01*
X76281885Y75844385D01*
G75*
G02*
X76531885Y75594385I0J-250000D01*
G01*
X76531885Y74694385D01*
G75*
G02*
X76281885Y74444385I-250000J0D01*
G01*
X75756885Y74444385D01*
G75*
G02*
X75506885Y74694385I0J250000D01*
G01*
G37*
G36*
G01*
X77331885Y74694385D02*
X77331885Y75594385D01*
G75*
G02*
X77581885Y75844385I250000J0D01*
G01*
X78106885Y75844385D01*
G75*
G02*
X78356885Y75594385I0J-250000D01*
G01*
X78356885Y74694385D01*
G75*
G02*
X78106885Y74444385I-250000J0D01*
G01*
X77581885Y74444385D01*
G75*
G02*
X77331885Y74694385I0J250000D01*
G01*
G37*
D13*
X10044385Y80994385D03*
X10044385Y97224385D03*
X3694385Y80994385D03*
X3694385Y97224385D03*
X16394385Y80994385D03*
X16394385Y97224385D03*
X10044385Y19794385D03*
X10044385Y36024385D03*
X3694385Y19794385D03*
X3694385Y36024385D03*
X16394385Y19794385D03*
X16394385Y36024385D03*
G36*
G01*
X139119385Y76324385D02*
X138169385Y76324385D01*
G75*
G02*
X137919385Y76574385I0J250000D01*
G01*
X137919385Y77074385D01*
G75*
G02*
X138169385Y77324385I250000J0D01*
G01*
X139119385Y77324385D01*
G75*
G02*
X139369385Y77074385I0J-250000D01*
G01*
X139369385Y76574385D01*
G75*
G02*
X139119385Y76324385I-250000J0D01*
G01*
G37*
G36*
G01*
X139119385Y78224385D02*
X138169385Y78224385D01*
G75*
G02*
X137919385Y78474385I0J250000D01*
G01*
X137919385Y78974385D01*
G75*
G02*
X138169385Y79224385I250000J0D01*
G01*
X139119385Y79224385D01*
G75*
G02*
X139369385Y78974385I0J-250000D01*
G01*
X139369385Y78474385D01*
G75*
G02*
X139119385Y78224385I-250000J0D01*
G01*
G37*
D16*
X161394385Y100594385D03*
D17*
X161394385Y106394385D03*
D18*
X156594385Y103594385D03*
D19*
X118314385Y71844385D03*
X118314385Y74144385D03*
D20*
X112014385Y74144385D03*
D19*
X118314385Y76444385D03*
D21*
X160494385Y102784385D03*
D22*
X160494385Y107784385D03*
G36*
G01*
X115534385Y79249385D02*
X115534385Y78299385D01*
G75*
G02*
X115284385Y78049385I-250000J0D01*
G01*
X114784385Y78049385D01*
G75*
G02*
X114534385Y78299385I0J250000D01*
G01*
X114534385Y79249385D01*
G75*
G02*
X114784385Y79499385I250000J0D01*
G01*
X115284385Y79499385D01*
G75*
G02*
X115534385Y79249385I0J-250000D01*
G01*
G37*
G36*
G01*
X113634385Y79249385D02*
X113634385Y78299385D01*
G75*
G02*
X113384385Y78049385I-250000J0D01*
G01*
X112884385Y78049385D01*
G75*
G02*
X112634385Y78299385I0J250000D01*
G01*
X112634385Y79249385D01*
G75*
G02*
X112884385Y79499385I250000J0D01*
G01*
X113384385Y79499385D01*
G75*
G02*
X113634385Y79249385I0J-250000D01*
G01*
G37*
D23*
X10994385Y74994385D03*
D24*
X12994385Y74994385D03*
X10994385Y72994385D03*
X12994385Y72994385D03*
D25*
X106004385Y84434385D03*
X106004385Y87834385D03*
G36*
G01*
X78709385Y84184385D02*
X78709385Y85084385D01*
G75*
G02*
X78959385Y85334385I250000J0D01*
G01*
X79484385Y85334385D01*
G75*
G02*
X79734385Y85084385I0J-250000D01*
G01*
X79734385Y84184385D01*
G75*
G02*
X79484385Y83934385I-250000J0D01*
G01*
X78959385Y83934385D01*
G75*
G02*
X78709385Y84184385I0J250000D01*
G01*
G37*
G36*
G01*
X80534385Y84184385D02*
X80534385Y85084385D01*
G75*
G02*
X80784385Y85334385I250000J0D01*
G01*
X81309385Y85334385D01*
G75*
G02*
X81559385Y85084385I0J-250000D01*
G01*
X81559385Y84184385D01*
G75*
G02*
X81309385Y83934385I-250000J0D01*
G01*
X80784385Y83934385D01*
G75*
G02*
X80534385Y84184385I0J250000D01*
G01*
G37*
G36*
G01*
X78331885Y77619385D02*
X78331885Y76669385D01*
G75*
G02*
X78081885Y76419385I-250000J0D01*
G01*
X77581885Y76419385D01*
G75*
G02*
X77331885Y76669385I0J250000D01*
G01*
X77331885Y77619385D01*
G75*
G02*
X77581885Y77869385I250000J0D01*
G01*
X78081885Y77869385D01*
G75*
G02*
X78331885Y77619385I0J-250000D01*
G01*
G37*
G36*
G01*
X76431885Y77619385D02*
X76431885Y76669385D01*
G75*
G02*
X76181885Y76419385I-250000J0D01*
G01*
X75681885Y76419385D01*
G75*
G02*
X75431885Y76669385I0J250000D01*
G01*
X75431885Y77619385D01*
G75*
G02*
X75681885Y77869385I250000J0D01*
G01*
X76181885Y77869385D01*
G75*
G02*
X76431885Y77619385I0J-250000D01*
G01*
G37*
G36*
X31394385Y27594385D02*
G01*
X30894385Y27594385D01*
X30894385Y27599474D01*
X30823228Y27599474D01*
X30686677Y27639569D01*
X30566955Y27716510D01*
X30473758Y27824065D01*
X30414639Y27953519D01*
X30394385Y28094385D01*
X30394385Y28594385D01*
X30414639Y28735251D01*
X30473758Y28864705D01*
X30566955Y28972260D01*
X30686677Y29049201D01*
X30823228Y29089296D01*
X30894385Y29089296D01*
X30894385Y29094385D01*
X31394385Y29094385D01*
X31394385Y27594385D01*
G37*
G36*
X32194385Y29089296D02*
G01*
X32265542Y29089296D01*
X32402093Y29049201D01*
X32521815Y28972260D01*
X32615012Y28864705D01*
X32674131Y28735251D01*
X32694385Y28594385D01*
X32694385Y28094385D01*
X32674131Y27953519D01*
X32615012Y27824065D01*
X32521815Y27716510D01*
X32402093Y27639569D01*
X32265542Y27599474D01*
X32194385Y27599474D01*
X32194385Y27594385D01*
X31694385Y27594385D01*
X31694385Y29094385D01*
X32194385Y29094385D01*
X32194385Y29089296D01*
G37*
D26*
X101944385Y81394385D03*
X101944385Y84594385D03*
X97044385Y84594385D03*
X97044385Y81394385D03*
G36*
G01*
X136289385Y71714385D02*
X134239385Y71714385D01*
G75*
G02*
X133989385Y71964385I0J250000D01*
G01*
X133989385Y73539385D01*
G75*
G02*
X134239385Y73789385I250000J0D01*
G01*
X136289385Y73789385D01*
G75*
G02*
X136539385Y73539385I0J-250000D01*
G01*
X136539385Y71964385D01*
G75*
G02*
X136289385Y71714385I-250000J0D01*
G01*
G37*
G36*
G01*
X136289385Y77939385D02*
X134239385Y77939385D01*
G75*
G02*
X133989385Y78189385I0J250000D01*
G01*
X133989385Y79764385D01*
G75*
G02*
X134239385Y80014385I250000J0D01*
G01*
X136289385Y80014385D01*
G75*
G02*
X136539385Y79764385I0J-250000D01*
G01*
X136539385Y78189385D01*
G75*
G02*
X136289385Y77939385I-250000J0D01*
G01*
G37*
G36*
G01*
X75506885Y78694385D02*
X75506885Y79594385D01*
G75*
G02*
X75756885Y79844385I250000J0D01*
G01*
X76281885Y79844385D01*
G75*
G02*
X76531885Y79594385I0J-250000D01*
G01*
X76531885Y78694385D01*
G75*
G02*
X76281885Y78444385I-250000J0D01*
G01*
X75756885Y78444385D01*
G75*
G02*
X75506885Y78694385I0J250000D01*
G01*
G37*
G36*
G01*
X77331885Y78694385D02*
X77331885Y79594385D01*
G75*
G02*
X77581885Y79844385I250000J0D01*
G01*
X78106885Y79844385D01*
G75*
G02*
X78356885Y79594385I0J-250000D01*
G01*
X78356885Y78694385D01*
G75*
G02*
X78106885Y78444385I-250000J0D01*
G01*
X77581885Y78444385D01*
G75*
G02*
X77331885Y78694385I0J250000D01*
G01*
G37*
D13*
X10044385Y39994385D03*
X10044385Y56224385D03*
X3694385Y39994385D03*
X3694385Y56224385D03*
X16394385Y39994385D03*
X16394385Y56224385D03*
X163944385Y35999385D03*
X163944385Y19769385D03*
X170294385Y35999385D03*
X170294385Y19769385D03*
X157594385Y35999385D03*
X157594385Y19769385D03*
D27*
X111309385Y86544385D03*
D28*
X113849385Y86544385D03*
X116389385Y86544385D03*
G36*
G01*
X140184385Y83409385D02*
X140184385Y84359385D01*
G75*
G02*
X140434385Y84609385I250000J0D01*
G01*
X140934385Y84609385D01*
G75*
G02*
X141184385Y84359385I0J-250000D01*
G01*
X141184385Y83409385D01*
G75*
G02*
X140934385Y83159385I-250000J0D01*
G01*
X140434385Y83159385D01*
G75*
G02*
X140184385Y83409385I0J250000D01*
G01*
G37*
G36*
G01*
X142084385Y83409385D02*
X142084385Y84359385D01*
G75*
G02*
X142334385Y84609385I250000J0D01*
G01*
X142834385Y84609385D01*
G75*
G02*
X143084385Y84359385I0J-250000D01*
G01*
X143084385Y83409385D01*
G75*
G02*
X142834385Y83159385I-250000J0D01*
G01*
X142334385Y83159385D01*
G75*
G02*
X142084385Y83409385I0J250000D01*
G01*
G37*
D12*
X100974385Y9474385D03*
G36*
G01*
X138274385Y85799385D02*
X137374385Y85799385D01*
G75*
G02*
X137124385Y86049385I0J250000D01*
G01*
X137124385Y86574385D01*
G75*
G02*
X137374385Y86824385I250000J0D01*
G01*
X138274385Y86824385D01*
G75*
G02*
X138524385Y86574385I0J-250000D01*
G01*
X138524385Y86049385D01*
G75*
G02*
X138274385Y85799385I-250000J0D01*
G01*
G37*
G36*
G01*
X138274385Y87624385D02*
X137374385Y87624385D01*
G75*
G02*
X137124385Y87874385I0J250000D01*
G01*
X137124385Y88399385D01*
G75*
G02*
X137374385Y88649385I250000J0D01*
G01*
X138274385Y88649385D01*
G75*
G02*
X138524385Y88399385I0J-250000D01*
G01*
X138524385Y87874385D01*
G75*
G02*
X138274385Y87624385I-250000J0D01*
G01*
G37*
D23*
X162994385Y994385D03*
D24*
X160994385Y994385D03*
X162994385Y2994385D03*
X160994385Y2994385D03*
D29*
X62094385Y109919385D03*
X62094385Y108919385D03*
X62094385Y107919385D03*
X62094385Y106919385D03*
X62094385Y105919385D03*
X62094385Y104919385D03*
X62094385Y100919385D03*
X62094385Y99919385D03*
X62094385Y98919385D03*
X62094385Y97919385D03*
X62094385Y96919385D03*
X62094385Y95919385D03*
X62094385Y94919385D03*
X63094385Y94919385D03*
X64094385Y94919385D03*
X65094385Y94919385D03*
X66094385Y94919385D03*
X67094385Y94919385D03*
X68094385Y94919385D03*
X69094385Y94919385D03*
X70094385Y94919385D03*
X71094385Y94919385D03*
X72094385Y94919385D03*
X73094385Y94919385D03*
X74094385Y94919385D03*
X75094385Y94919385D03*
X76094385Y94919385D03*
X77094385Y94919385D03*
X78094385Y94919385D03*
X79094385Y94919385D03*
X80094385Y94919385D03*
X81094385Y94919385D03*
X82094385Y94919385D03*
X83094385Y94919385D03*
X84094385Y94919385D03*
X85094385Y94919385D03*
X86094385Y94919385D03*
X87094385Y94919385D03*
X88094385Y94919385D03*
X89094385Y94919385D03*
X90094385Y94919385D03*
X91094385Y94919385D03*
X92094385Y94919385D03*
X93094385Y94919385D03*
X94094385Y94919385D03*
X95094385Y94919385D03*
X96094385Y94919385D03*
X97094385Y94919385D03*
X98094385Y94919385D03*
X99094385Y94919385D03*
X100094385Y94919385D03*
X101094385Y94919385D03*
X102094385Y94919385D03*
X103094385Y94919385D03*
X104094385Y94919385D03*
X105094385Y94919385D03*
X106094385Y94919385D03*
X107094385Y94919385D03*
X108094385Y94919385D03*
X109094385Y94919385D03*
X110094385Y94919385D03*
X111094385Y94919385D03*
X112094385Y109919385D03*
X112094385Y108919385D03*
X112094385Y107919385D03*
X112094385Y106919385D03*
X112094385Y105919385D03*
X112094385Y104919385D03*
X112094385Y103919385D03*
X112094385Y102919385D03*
X112094385Y101919385D03*
X112094385Y100919385D03*
X112094385Y99919385D03*
X112094385Y98919385D03*
X112094385Y97919385D03*
X112094385Y96919385D03*
X112094385Y95919385D03*
X112094385Y94919385D03*
D23*
X12994385Y994385D03*
D24*
X10994385Y994385D03*
X12994385Y2994385D03*
X10994385Y2994385D03*
D30*
X79994385Y66494385D03*
X93994385Y66494385D03*
X79994385Y61494385D03*
X93994385Y61494385D03*
D13*
X166994385Y2994385D03*
G36*
G01*
X136889385Y99874385D02*
X135939385Y99874385D01*
G75*
G02*
X135689385Y100124385I0J250000D01*
G01*
X135689385Y100624385D01*
G75*
G02*
X135939385Y100874385I250000J0D01*
G01*
X136889385Y100874385D01*
G75*
G02*
X137139385Y100624385I0J-250000D01*
G01*
X137139385Y100124385D01*
G75*
G02*
X136889385Y99874385I-250000J0D01*
G01*
G37*
G36*
G01*
X136889385Y101774385D02*
X135939385Y101774385D01*
G75*
G02*
X135689385Y102024385I0J250000D01*
G01*
X135689385Y102524385D01*
G75*
G02*
X135939385Y102774385I250000J0D01*
G01*
X136889385Y102774385D01*
G75*
G02*
X137139385Y102524385I0J-250000D01*
G01*
X137139385Y102024385D01*
G75*
G02*
X136889385Y101774385I-250000J0D01*
G01*
G37*
G36*
G01*
X151599385Y75814385D02*
X150649385Y75814385D01*
G75*
G02*
X150399385Y76064385I0J250000D01*
G01*
X150399385Y76564385D01*
G75*
G02*
X150649385Y76814385I250000J0D01*
G01*
X151599385Y76814385D01*
G75*
G02*
X151849385Y76564385I0J-250000D01*
G01*
X151849385Y76064385D01*
G75*
G02*
X151599385Y75814385I-250000J0D01*
G01*
G37*
G36*
G01*
X151599385Y77714385D02*
X150649385Y77714385D01*
G75*
G02*
X150399385Y77964385I0J250000D01*
G01*
X150399385Y78464385D01*
G75*
G02*
X150649385Y78714385I250000J0D01*
G01*
X151599385Y78714385D01*
G75*
G02*
X151849385Y78464385I0J-250000D01*
G01*
X151849385Y77964385D01*
G75*
G02*
X151599385Y77714385I-250000J0D01*
G01*
G37*
D23*
X87994385Y52994385D03*
D24*
X85994385Y52994385D03*
X87994385Y54994385D03*
X85994385Y54994385D03*
G36*
G01*
X71354385Y73939385D02*
X70454385Y73939385D01*
G75*
G02*
X70204385Y74189385I0J250000D01*
G01*
X70204385Y74714385D01*
G75*
G02*
X70454385Y74964385I250000J0D01*
G01*
X71354385Y74964385D01*
G75*
G02*
X71604385Y74714385I0J-250000D01*
G01*
X71604385Y74189385D01*
G75*
G02*
X71354385Y73939385I-250000J0D01*
G01*
G37*
G36*
G01*
X71354385Y75764385D02*
X70454385Y75764385D01*
G75*
G02*
X70204385Y76014385I0J250000D01*
G01*
X70204385Y76539385D01*
G75*
G02*
X70454385Y76789385I250000J0D01*
G01*
X71354385Y76789385D01*
G75*
G02*
X71604385Y76539385I0J-250000D01*
G01*
X71604385Y76014385D01*
G75*
G02*
X71354385Y75764385I-250000J0D01*
G01*
G37*
D31*
X53734385Y75964385D03*
D32*
X54734385Y76614385D03*
X53734385Y77264385D03*
X54734385Y77914385D03*
X53734385Y78564385D03*
D33*
X53954385Y73689385D03*
X53954385Y80839385D03*
D25*
X73504385Y75644385D03*
X73504385Y79044385D03*
G36*
G01*
X145654385Y85439385D02*
X144754385Y85439385D01*
G75*
G02*
X144504385Y85689385I0J250000D01*
G01*
X144504385Y86214385D01*
G75*
G02*
X144754385Y86464385I250000J0D01*
G01*
X145654385Y86464385D01*
G75*
G02*
X145904385Y86214385I0J-250000D01*
G01*
X145904385Y85689385D01*
G75*
G02*
X145654385Y85439385I-250000J0D01*
G01*
G37*
G36*
G01*
X145654385Y87264385D02*
X144754385Y87264385D01*
G75*
G02*
X144504385Y87514385I0J250000D01*
G01*
X144504385Y88039385D01*
G75*
G02*
X144754385Y88289385I250000J0D01*
G01*
X145654385Y88289385D01*
G75*
G02*
X145904385Y88039385I0J-250000D01*
G01*
X145904385Y87514385D01*
G75*
G02*
X145654385Y87264385I-250000J0D01*
G01*
G37*
D12*
X23994385Y107994385D03*
G36*
G01*
X143089385Y76324385D02*
X142139385Y76324385D01*
G75*
G02*
X141889385Y76574385I0J250000D01*
G01*
X141889385Y77074385D01*
G75*
G02*
X142139385Y77324385I250000J0D01*
G01*
X143089385Y77324385D01*
G75*
G02*
X143339385Y77074385I0J-250000D01*
G01*
X143339385Y76574385D01*
G75*
G02*
X143089385Y76324385I-250000J0D01*
G01*
G37*
G36*
G01*
X143089385Y78224385D02*
X142139385Y78224385D01*
G75*
G02*
X141889385Y78474385I0J250000D01*
G01*
X141889385Y78974385D01*
G75*
G02*
X142139385Y79224385I250000J0D01*
G01*
X143089385Y79224385D01*
G75*
G02*
X143339385Y78974385I0J-250000D01*
G01*
X143339385Y78474385D01*
G75*
G02*
X143089385Y78224385I-250000J0D01*
G01*
G37*
D13*
X163959385Y97194385D03*
X163959385Y80964385D03*
X170309385Y97194385D03*
X170309385Y80964385D03*
X157609385Y97194385D03*
X157609385Y80964385D03*
G36*
G01*
X145679385Y88824385D02*
X144729385Y88824385D01*
G75*
G02*
X144479385Y89074385I0J250000D01*
G01*
X144479385Y89574385D01*
G75*
G02*
X144729385Y89824385I250000J0D01*
G01*
X145679385Y89824385D01*
G75*
G02*
X145929385Y89574385I0J-250000D01*
G01*
X145929385Y89074385D01*
G75*
G02*
X145679385Y88824385I-250000J0D01*
G01*
G37*
G36*
G01*
X145679385Y90724385D02*
X144729385Y90724385D01*
G75*
G02*
X144479385Y90974385I0J250000D01*
G01*
X144479385Y91474385D01*
G75*
G02*
X144729385Y91724385I250000J0D01*
G01*
X145679385Y91724385D01*
G75*
G02*
X145929385Y91474385I0J-250000D01*
G01*
X145929385Y90974385D01*
G75*
G02*
X145679385Y90724385I-250000J0D01*
G01*
G37*
D23*
X125494385Y85994385D03*
D24*
X123494385Y85994385D03*
X125494385Y87994385D03*
X123494385Y87994385D03*
D12*
X149994385Y67494385D03*
G36*
X93940697Y97708464D02*
G01*
X93208464Y98440697D01*
X93193585Y98476618D01*
X93193585Y99512152D01*
X93208464Y99548073D01*
X93940697Y100280306D01*
X93976618Y100295185D01*
X95012152Y100295185D01*
X95048073Y100280306D01*
X95780306Y99548073D01*
X95795185Y99512152D01*
X95795185Y98476618D01*
X95780306Y98440697D01*
X95048073Y97708464D01*
X95012152Y97693585D01*
X93976618Y97693585D01*
X93940697Y97708464D01*
G37*
G36*
X103280306Y98440697D02*
G01*
X102548073Y97708464D01*
X102512152Y97693585D01*
X101476618Y97693585D01*
X101440697Y97708464D01*
X100708464Y98440697D01*
X100693585Y98476618D01*
X100693585Y99512152D01*
X100708464Y99548073D01*
X101440697Y100280306D01*
X101476618Y100295185D01*
X102512152Y100295185D01*
X102548073Y100280306D01*
X103280306Y99548073D01*
X103295185Y99512152D01*
X103295185Y98476618D01*
X103280306Y98440697D01*
G37*
G36*
X108940697Y97708464D02*
G01*
X108208464Y98440697D01*
X108193585Y98476618D01*
X108193585Y99512152D01*
X108208464Y99548073D01*
X108940697Y100280306D01*
X108976618Y100295185D01*
X110012152Y100295185D01*
X110048073Y100280306D01*
X110780306Y99548073D01*
X110795185Y99512152D01*
X110795185Y98476618D01*
X110780306Y98440697D01*
X110048073Y97708464D01*
X110012152Y97693585D01*
X108976618Y97693585D01*
X108940697Y97708464D01*
G37*
G36*
X96440697Y95208464D02*
G01*
X95708464Y95940697D01*
X95693585Y95976618D01*
X95693585Y97012152D01*
X95708464Y97048073D01*
X96440697Y97780306D01*
X96476618Y97795185D01*
X97512152Y97795185D01*
X97548073Y97780306D01*
X98280306Y97048073D01*
X98295185Y97012152D01*
X98295185Y95976618D01*
X98280306Y95940697D01*
X97548073Y95208464D01*
X97512152Y95193585D01*
X96476618Y95193585D01*
X96440697Y95208464D01*
G37*
G36*
X106440697Y95208464D02*
G01*
X105708464Y95940697D01*
X105693585Y95976618D01*
X105693585Y97012152D01*
X105708464Y97048073D01*
X106440697Y97780306D01*
X106476618Y97795185D01*
X107512152Y97795185D01*
X107548073Y97780306D01*
X108280306Y97048073D01*
X108295185Y97012152D01*
X108295185Y95976618D01*
X108280306Y95940697D01*
X107548073Y95208464D01*
X107512152Y95193585D01*
X106476618Y95193585D01*
X106440697Y95208464D01*
G37*
G36*
X103558464Y107958464D02*
G01*
X103543585Y107994385D01*
X103543585Y109094385D01*
X103558464Y109130306D01*
X104458464Y110030306D01*
X104494385Y110045185D01*
X105394385Y110045185D01*
X105430306Y110030306D01*
X105445185Y109994385D01*
X105445185Y107994385D01*
X105430306Y107958464D01*
X105394385Y107943585D01*
X103594385Y107943585D01*
X103558464Y107958464D01*
G37*
G36*
G01*
X107945185Y109994385D02*
X107945185Y107994385D01*
G75*
G02*
X107894385Y107943585I-50800J0D01*
G01*
X106094385Y107943585D01*
G75*
G02*
X106043585Y107994385I0J50800D01*
G01*
X106043585Y109994385D01*
G75*
G02*
X106094385Y110045185I50800J0D01*
G01*
X107894385Y110045185D01*
G75*
G02*
X107945185Y109994385I0J-50800D01*
G01*
G37*
G36*
G01*
X97945185Y109994385D02*
X97945185Y107994385D01*
G75*
G02*
X97894385Y107943585I-50800J0D01*
G01*
X96094385Y107943585D01*
G75*
G02*
X96043585Y107994385I0J50800D01*
G01*
X96043585Y109994385D01*
G75*
G02*
X96094385Y110045185I50800J0D01*
G01*
X97894385Y110045185D01*
G75*
G02*
X97945185Y109994385I0J-50800D01*
G01*
G37*
G36*
X98558464Y107958464D02*
G01*
X98543585Y107994385D01*
X98543585Y109994385D01*
X98558464Y110030306D01*
X98594385Y110045185D01*
X99494385Y110045185D01*
X99530306Y110030306D01*
X100430306Y109130306D01*
X100445185Y109094385D01*
X100445185Y107994385D01*
X100430306Y107958464D01*
X100394385Y107943585D01*
X98594385Y107943585D01*
X98558464Y107958464D01*
G37*
G36*
G01*
X137359385Y92074385D02*
X138309385Y92074385D01*
G75*
G02*
X138559385Y91824385I0J-250000D01*
G01*
X138559385Y91324385D01*
G75*
G02*
X138309385Y91074385I-250000J0D01*
G01*
X137359385Y91074385D01*
G75*
G02*
X137109385Y91324385I0J250000D01*
G01*
X137109385Y91824385D01*
G75*
G02*
X137359385Y92074385I250000J0D01*
G01*
G37*
G36*
G01*
X137359385Y90174385D02*
X138309385Y90174385D01*
G75*
G02*
X138559385Y89924385I0J-250000D01*
G01*
X138559385Y89424385D01*
G75*
G02*
X138309385Y89174385I-250000J0D01*
G01*
X137359385Y89174385D01*
G75*
G02*
X137109385Y89424385I0J250000D01*
G01*
X137109385Y89924385D01*
G75*
G02*
X137359385Y90174385I250000J0D01*
G01*
G37*
D11*
X42244385Y99494385D03*
D34*
X42244385Y94494385D03*
X42244385Y96994385D03*
D35*
X49744385Y102594385D03*
X49744385Y91394385D03*
D34*
X56744385Y94494385D03*
X56744385Y99494385D03*
G36*
G01*
X141244385Y95779385D02*
X141244385Y94829385D01*
G75*
G02*
X140994385Y94579385I-250000J0D01*
G01*
X140494385Y94579385D01*
G75*
G02*
X140244385Y94829385I0J250000D01*
G01*
X140244385Y95779385D01*
G75*
G02*
X140494385Y96029385I250000J0D01*
G01*
X140994385Y96029385D01*
G75*
G02*
X141244385Y95779385I0J-250000D01*
G01*
G37*
G36*
G01*
X139344385Y95779385D02*
X139344385Y94829385D01*
G75*
G02*
X139094385Y94579385I-250000J0D01*
G01*
X138594385Y94579385D01*
G75*
G02*
X138344385Y94829385I0J250000D01*
G01*
X138344385Y95779385D01*
G75*
G02*
X138594385Y96029385I250000J0D01*
G01*
X139094385Y96029385D01*
G75*
G02*
X139344385Y95779385I0J-250000D01*
G01*
G37*
D36*
X141514385Y88594385D03*
G36*
G01*
X143269385Y92044385D02*
X143569385Y92044385D01*
G75*
G02*
X143719385Y91894385I0J-150000D01*
G01*
X143719385Y90419385D01*
G75*
G02*
X143569385Y90269385I-150000J0D01*
G01*
X143269385Y90269385D01*
G75*
G02*
X143119385Y90419385I0J150000D01*
G01*
X143119385Y91894385D01*
G75*
G02*
X143269385Y92044385I150000J0D01*
G01*
G37*
G36*
G01*
X141999385Y92044385D02*
X142299385Y92044385D01*
G75*
G02*
X142449385Y91894385I0J-150000D01*
G01*
X142449385Y90419385D01*
G75*
G02*
X142299385Y90269385I-150000J0D01*
G01*
X141999385Y90269385D01*
G75*
G02*
X141849385Y90419385I0J150000D01*
G01*
X141849385Y91894385D01*
G75*
G02*
X141999385Y92044385I150000J0D01*
G01*
G37*
G36*
G01*
X140729385Y92044385D02*
X141029385Y92044385D01*
G75*
G02*
X141179385Y91894385I0J-150000D01*
G01*
X141179385Y90419385D01*
G75*
G02*
X141029385Y90269385I-150000J0D01*
G01*
X140729385Y90269385D01*
G75*
G02*
X140579385Y90419385I0J150000D01*
G01*
X140579385Y91894385D01*
G75*
G02*
X140729385Y92044385I150000J0D01*
G01*
G37*
G36*
G01*
X139459385Y92044385D02*
X139759385Y92044385D01*
G75*
G02*
X139909385Y91894385I0J-150000D01*
G01*
X139909385Y90419385D01*
G75*
G02*
X139759385Y90269385I-150000J0D01*
G01*
X139459385Y90269385D01*
G75*
G02*
X139309385Y90419385I0J150000D01*
G01*
X139309385Y91894385D01*
G75*
G02*
X139459385Y92044385I150000J0D01*
G01*
G37*
G36*
G01*
X139459385Y86919385D02*
X139759385Y86919385D01*
G75*
G02*
X139909385Y86769385I0J-150000D01*
G01*
X139909385Y85294385D01*
G75*
G02*
X139759385Y85144385I-150000J0D01*
G01*
X139459385Y85144385D01*
G75*
G02*
X139309385Y85294385I0J150000D01*
G01*
X139309385Y86769385D01*
G75*
G02*
X139459385Y86919385I150000J0D01*
G01*
G37*
G36*
G01*
X140729385Y86919385D02*
X141029385Y86919385D01*
G75*
G02*
X141179385Y86769385I0J-150000D01*
G01*
X141179385Y85294385D01*
G75*
G02*
X141029385Y85144385I-150000J0D01*
G01*
X140729385Y85144385D01*
G75*
G02*
X140579385Y85294385I0J150000D01*
G01*
X140579385Y86769385D01*
G75*
G02*
X140729385Y86919385I150000J0D01*
G01*
G37*
G36*
G01*
X141999385Y86919385D02*
X142299385Y86919385D01*
G75*
G02*
X142449385Y86769385I0J-150000D01*
G01*
X142449385Y85294385D01*
G75*
G02*
X142299385Y85144385I-150000J0D01*
G01*
X141999385Y85144385D01*
G75*
G02*
X141849385Y85294385I0J150000D01*
G01*
X141849385Y86769385D01*
G75*
G02*
X141999385Y86919385I150000J0D01*
G01*
G37*
G36*
G01*
X143269385Y86919385D02*
X143569385Y86919385D01*
G75*
G02*
X143719385Y86769385I0J-150000D01*
G01*
X143719385Y85294385D01*
G75*
G02*
X143569385Y85144385I-150000J0D01*
G01*
X143269385Y85144385D01*
G75*
G02*
X143119385Y85294385I0J150000D01*
G01*
X143119385Y86769385D01*
G75*
G02*
X143269385Y86919385I150000J0D01*
G01*
G37*
D26*
X76944385Y81394385D03*
X76944385Y84594385D03*
X72044385Y84594385D03*
X72044385Y81394385D03*
D23*
X160994385Y74994385D03*
D24*
X162994385Y74994385D03*
X160994385Y72994385D03*
X162994385Y72994385D03*
G36*
G01*
X77609385Y86294385D02*
X76659385Y86294385D01*
G75*
G02*
X76409385Y86544385I0J250000D01*
G01*
X76409385Y87044385D01*
G75*
G02*
X76659385Y87294385I250000J0D01*
G01*
X77609385Y87294385D01*
G75*
G02*
X77859385Y87044385I0J-250000D01*
G01*
X77859385Y86544385D01*
G75*
G02*
X77609385Y86294385I-250000J0D01*
G01*
G37*
G36*
G01*
X77609385Y88194385D02*
X76659385Y88194385D01*
G75*
G02*
X76409385Y88444385I0J250000D01*
G01*
X76409385Y88944385D01*
G75*
G02*
X76659385Y89194385I250000J0D01*
G01*
X77609385Y89194385D01*
G75*
G02*
X77859385Y88944385I0J-250000D01*
G01*
X77859385Y88444385D01*
G75*
G02*
X77609385Y88194385I-250000J0D01*
G01*
G37*
D23*
X50494385Y85994385D03*
D24*
X48494385Y85994385D03*
X50494385Y87994385D03*
X48494385Y87994385D03*
G36*
G01*
X68709385Y91464385D02*
X68709385Y90564385D01*
G75*
G02*
X68459385Y90314385I-250000J0D01*
G01*
X67934385Y90314385D01*
G75*
G02*
X67684385Y90564385I0J250000D01*
G01*
X67684385Y91464385D01*
G75*
G02*
X67934385Y91714385I250000J0D01*
G01*
X68459385Y91714385D01*
G75*
G02*
X68709385Y91464385I0J-250000D01*
G01*
G37*
G36*
G01*
X66884385Y91464385D02*
X66884385Y90564385D01*
G75*
G02*
X66634385Y90314385I-250000J0D01*
G01*
X66109385Y90314385D01*
G75*
G02*
X65859385Y90564385I0J250000D01*
G01*
X65859385Y91464385D01*
G75*
G02*
X66109385Y91714385I250000J0D01*
G01*
X66634385Y91714385D01*
G75*
G02*
X66884385Y91464385I0J-250000D01*
G01*
G37*
G36*
G01*
X69519385Y83834385D02*
X70469385Y83834385D01*
G75*
G02*
X70719385Y83584385I0J-250000D01*
G01*
X70719385Y83084385D01*
G75*
G02*
X70469385Y82834385I-250000J0D01*
G01*
X69519385Y82834385D01*
G75*
G02*
X69269385Y83084385I0J250000D01*
G01*
X69269385Y83584385D01*
G75*
G02*
X69519385Y83834385I250000J0D01*
G01*
G37*
G36*
G01*
X69519385Y81934385D02*
X70469385Y81934385D01*
G75*
G02*
X70719385Y81684385I0J-250000D01*
G01*
X70719385Y81184385D01*
G75*
G02*
X70469385Y80934385I-250000J0D01*
G01*
X69519385Y80934385D01*
G75*
G02*
X69269385Y81184385I0J250000D01*
G01*
X69269385Y81684385D01*
G75*
G02*
X69519385Y81934385I250000J0D01*
G01*
G37*
G36*
G01*
X84969385Y79744385D02*
X85919385Y79744385D01*
G75*
G02*
X86169385Y79494385I0J-250000D01*
G01*
X86169385Y78994385D01*
G75*
G02*
X85919385Y78744385I-250000J0D01*
G01*
X84969385Y78744385D01*
G75*
G02*
X84719385Y78994385I0J250000D01*
G01*
X84719385Y79494385D01*
G75*
G02*
X84969385Y79744385I250000J0D01*
G01*
G37*
G36*
G01*
X84969385Y77844385D02*
X85919385Y77844385D01*
G75*
G02*
X86169385Y77594385I0J-250000D01*
G01*
X86169385Y77094385D01*
G75*
G02*
X85919385Y76844385I-250000J0D01*
G01*
X84969385Y76844385D01*
G75*
G02*
X84719385Y77094385I0J250000D01*
G01*
X84719385Y77594385D01*
G75*
G02*
X84969385Y77844385I250000J0D01*
G01*
G37*
G36*
G01*
X143357385Y99134385D02*
X143357385Y101334385D01*
G75*
G02*
X143459385Y101436385I102000J0D01*
G01*
X144059385Y101436385D01*
G75*
G02*
X144161385Y101334385I0J-102000D01*
G01*
X144161385Y99134385D01*
G75*
G02*
X144059385Y99032385I-102000J0D01*
G01*
X143459385Y99032385D01*
G75*
G02*
X143357385Y99134385I0J102000D01*
G01*
G37*
G36*
G01*
X97269385Y78044385D02*
X97269385Y78944385D01*
G75*
G02*
X97519385Y79194385I250000J0D01*
G01*
X98044385Y79194385D01*
G75*
G02*
X98294385Y78944385I0J-250000D01*
G01*
X98294385Y78044385D01*
G75*
G02*
X98044385Y77794385I-250000J0D01*
G01*
X97519385Y77794385D01*
G75*
G02*
X97269385Y78044385I0J250000D01*
G01*
G37*
G36*
G01*
X99094385Y78044385D02*
X99094385Y78944385D01*
G75*
G02*
X99344385Y79194385I250000J0D01*
G01*
X99869385Y79194385D01*
G75*
G02*
X100119385Y78944385I0J-250000D01*
G01*
X100119385Y78044385D01*
G75*
G02*
X99869385Y77794385I-250000J0D01*
G01*
X99344385Y77794385D01*
G75*
G02*
X99094385Y78044385I0J250000D01*
G01*
G37*
G36*
G01*
X59319385Y100244385D02*
X60269385Y100244385D01*
G75*
G02*
X60519385Y99994385I0J-250000D01*
G01*
X60519385Y99494385D01*
G75*
G02*
X60269385Y99244385I-250000J0D01*
G01*
X59319385Y99244385D01*
G75*
G02*
X59069385Y99494385I0J250000D01*
G01*
X59069385Y99994385D01*
G75*
G02*
X59319385Y100244385I250000J0D01*
G01*
G37*
G36*
G01*
X59319385Y98344385D02*
X60269385Y98344385D01*
G75*
G02*
X60519385Y98094385I0J-250000D01*
G01*
X60519385Y97594385D01*
G75*
G02*
X60269385Y97344385I-250000J0D01*
G01*
X59319385Y97344385D01*
G75*
G02*
X59069385Y97594385I0J250000D01*
G01*
X59069385Y98094385D01*
G75*
G02*
X59319385Y98344385I250000J0D01*
G01*
G37*
G36*
G01*
X141774385Y96789385D02*
X141774385Y97739385D01*
G75*
G02*
X142024385Y97989385I250000J0D01*
G01*
X142524385Y97989385D01*
G75*
G02*
X142774385Y97739385I0J-250000D01*
G01*
X142774385Y96789385D01*
G75*
G02*
X142524385Y96539385I-250000J0D01*
G01*
X142024385Y96539385D01*
G75*
G02*
X141774385Y96789385I0J250000D01*
G01*
G37*
G36*
G01*
X143674385Y96789385D02*
X143674385Y97739385D01*
G75*
G02*
X143924385Y97989385I250000J0D01*
G01*
X144424385Y97989385D01*
G75*
G02*
X144674385Y97739385I0J-250000D01*
G01*
X144674385Y96789385D01*
G75*
G02*
X144424385Y96539385I-250000J0D01*
G01*
X143924385Y96539385D01*
G75*
G02*
X143674385Y96789385I0J250000D01*
G01*
G37*
D27*
X89219385Y49694385D03*
D28*
X86679385Y49694385D03*
X84139385Y49694385D03*
G36*
G01*
X148274385Y100739385D02*
X148274385Y99789385D01*
G75*
G02*
X148024385Y99539385I-250000J0D01*
G01*
X147524385Y99539385D01*
G75*
G02*
X147274385Y99789385I0J250000D01*
G01*
X147274385Y100739385D01*
G75*
G02*
X147524385Y100989385I250000J0D01*
G01*
X148024385Y100989385D01*
G75*
G02*
X148274385Y100739385I0J-250000D01*
G01*
G37*
G36*
G01*
X146374385Y100739385D02*
X146374385Y99789385D01*
G75*
G02*
X146124385Y99539385I-250000J0D01*
G01*
X145624385Y99539385D01*
G75*
G02*
X145374385Y99789385I0J250000D01*
G01*
X145374385Y100739385D01*
G75*
G02*
X145624385Y100989385I250000J0D01*
G01*
X146124385Y100989385D01*
G75*
G02*
X146374385Y100739385I0J-250000D01*
G01*
G37*
D13*
X163944385Y56214385D03*
X163944385Y39984385D03*
X170294385Y56214385D03*
X170294385Y39984385D03*
X157594385Y56214385D03*
X157594385Y39984385D03*
G36*
G01*
X146639385Y105514385D02*
X145689385Y105514385D01*
G75*
G02*
X145439385Y105764385I0J250000D01*
G01*
X145439385Y106264385D01*
G75*
G02*
X145689385Y106514385I250000J0D01*
G01*
X146639385Y106514385D01*
G75*
G02*
X146889385Y106264385I0J-250000D01*
G01*
X146889385Y105764385D01*
G75*
G02*
X146639385Y105514385I-250000J0D01*
G01*
G37*
G36*
G01*
X146639385Y107414385D02*
X145689385Y107414385D01*
G75*
G02*
X145439385Y107664385I0J250000D01*
G01*
X145439385Y108164385D01*
G75*
G02*
X145689385Y108414385I250000J0D01*
G01*
X146639385Y108414385D01*
G75*
G02*
X146889385Y108164385I0J-250000D01*
G01*
X146889385Y107664385D01*
G75*
G02*
X146639385Y107414385I-250000J0D01*
G01*
G37*
G36*
G01*
X141099385Y76314385D02*
X140149385Y76314385D01*
G75*
G02*
X139899385Y76564385I0J250000D01*
G01*
X139899385Y77064385D01*
G75*
G02*
X140149385Y77314385I250000J0D01*
G01*
X141099385Y77314385D01*
G75*
G02*
X141349385Y77064385I0J-250000D01*
G01*
X141349385Y76564385D01*
G75*
G02*
X141099385Y76314385I-250000J0D01*
G01*
G37*
G36*
G01*
X141099385Y78214385D02*
X140149385Y78214385D01*
G75*
G02*
X139899385Y78464385I0J250000D01*
G01*
X139899385Y78964385D01*
G75*
G02*
X140149385Y79214385I250000J0D01*
G01*
X141099385Y79214385D01*
G75*
G02*
X141349385Y78964385I0J-250000D01*
G01*
X141349385Y78464385D01*
G75*
G02*
X141099385Y78214385I-250000J0D01*
G01*
G37*
G36*
X151644385Y15844385D02*
G01*
X151644385Y15344385D01*
X151639296Y15344385D01*
X151639296Y15273228D01*
X151599201Y15136677D01*
X151522260Y15016955D01*
X151414705Y14923758D01*
X151285251Y14864639D01*
X151144385Y14844385D01*
X150644385Y14844385D01*
X150503519Y14864639D01*
X150374065Y14923758D01*
X150266510Y15016955D01*
X150189569Y15136677D01*
X150149474Y15273228D01*
X150149474Y15344385D01*
X150144385Y15344385D01*
X150144385Y15844385D01*
X151644385Y15844385D01*
G37*
G36*
X150149474Y16644385D02*
G01*
X150149474Y16715542D01*
X150189569Y16852093D01*
X150266510Y16971815D01*
X150374065Y17065012D01*
X150503519Y17124131D01*
X150644385Y17144385D01*
X151144385Y17144385D01*
X151285251Y17124131D01*
X151414705Y17065012D01*
X151522260Y16971815D01*
X151599201Y16852093D01*
X151639296Y16715542D01*
X151639296Y16644385D01*
X151644385Y16644385D01*
X151644385Y16144385D01*
X150144385Y16144385D01*
X150144385Y16644385D01*
X150149474Y16644385D01*
G37*
D30*
X4994385Y66494385D03*
X18994385Y66494385D03*
X4994385Y61494385D03*
X18994385Y61494385D03*
D37*
X67014385Y85404385D03*
X65744385Y85404385D03*
X64474385Y85404385D03*
X64474385Y75904385D03*
X65744385Y75904385D03*
X67014385Y75904385D03*
G36*
G01*
X63074385Y74729385D02*
X62174385Y74729385D01*
G75*
G02*
X61924385Y74979385I0J250000D01*
G01*
X61924385Y75504385D01*
G75*
G02*
X62174385Y75754385I250000J0D01*
G01*
X63074385Y75754385D01*
G75*
G02*
X63324385Y75504385I0J-250000D01*
G01*
X63324385Y74979385D01*
G75*
G02*
X63074385Y74729385I-250000J0D01*
G01*
G37*
G36*
G01*
X63074385Y76554385D02*
X62174385Y76554385D01*
G75*
G02*
X61924385Y76804385I0J250000D01*
G01*
X61924385Y77329385D01*
G75*
G02*
X62174385Y77579385I250000J0D01*
G01*
X63074385Y77579385D01*
G75*
G02*
X63324385Y77329385I0J-250000D01*
G01*
X63324385Y76804385D01*
G75*
G02*
X63074385Y76554385I-250000J0D01*
G01*
G37*
G36*
G01*
X30119385Y58594385D02*
X30119385Y59494385D01*
G75*
G02*
X30369385Y59744385I250000J0D01*
G01*
X30894385Y59744385D01*
G75*
G02*
X31144385Y59494385I0J-250000D01*
G01*
X31144385Y58594385D01*
G75*
G02*
X30894385Y58344385I-250000J0D01*
G01*
X30369385Y58344385D01*
G75*
G02*
X30119385Y58594385I0J250000D01*
G01*
G37*
G36*
G01*
X31944385Y58594385D02*
X31944385Y59494385D01*
G75*
G02*
X32194385Y59744385I250000J0D01*
G01*
X32719385Y59744385D01*
G75*
G02*
X32969385Y59494385I0J-250000D01*
G01*
X32969385Y58594385D01*
G75*
G02*
X32719385Y58344385I-250000J0D01*
G01*
X32194385Y58344385D01*
G75*
G02*
X31944385Y58594385I0J250000D01*
G01*
G37*
G36*
X79544385Y55344385D02*
G01*
X79544385Y54844385D01*
X79539296Y54844385D01*
X79539296Y54773228D01*
X79499201Y54636677D01*
X79422260Y54516955D01*
X79314705Y54423758D01*
X79185251Y54364639D01*
X79044385Y54344385D01*
X78544385Y54344385D01*
X78403519Y54364639D01*
X78274065Y54423758D01*
X78166510Y54516955D01*
X78089569Y54636677D01*
X78049474Y54773228D01*
X78049474Y54844385D01*
X78044385Y54844385D01*
X78044385Y55344385D01*
X79544385Y55344385D01*
G37*
G36*
X78049474Y56144385D02*
G01*
X78049474Y56215542D01*
X78089569Y56352093D01*
X78166510Y56471815D01*
X78274065Y56565012D01*
X78403519Y56624131D01*
X78544385Y56644385D01*
X79044385Y56644385D01*
X79185251Y56624131D01*
X79314705Y56565012D01*
X79422260Y56471815D01*
X79499201Y56352093D01*
X79539296Y56215542D01*
X79539296Y56144385D01*
X79544385Y56144385D01*
X79544385Y55644385D01*
X78044385Y55644385D01*
X78044385Y56144385D01*
X78049474Y56144385D01*
G37*
G36*
X77044385Y55344385D02*
G01*
X77044385Y54844385D01*
X77039296Y54844385D01*
X77039296Y54773228D01*
X76999201Y54636677D01*
X76922260Y54516955D01*
X76814705Y54423758D01*
X76685251Y54364639D01*
X76544385Y54344385D01*
X76044385Y54344385D01*
X75903519Y54364639D01*
X75774065Y54423758D01*
X75666510Y54516955D01*
X75589569Y54636677D01*
X75549474Y54773228D01*
X75549474Y54844385D01*
X75544385Y54844385D01*
X75544385Y55344385D01*
X77044385Y55344385D01*
G37*
G36*
X75549474Y56144385D02*
G01*
X75549474Y56215542D01*
X75589569Y56352093D01*
X75666510Y56471815D01*
X75774065Y56565012D01*
X75903519Y56624131D01*
X76044385Y56644385D01*
X76544385Y56644385D01*
X76685251Y56624131D01*
X76814705Y56565012D01*
X76922260Y56471815D01*
X76999201Y56352093D01*
X77039296Y56215542D01*
X77039296Y56144385D01*
X77044385Y56144385D01*
X77044385Y55644385D01*
X75544385Y55644385D01*
X75544385Y56144385D01*
X75549474Y56144385D01*
G37*
G36*
G01*
X86844385Y81519385D02*
X86744385Y81519385D01*
G75*
G02*
X86694385Y81569385I0J50000D01*
G01*
X86694385Y82344385D01*
G75*
G02*
X86744385Y82394385I50000J0D01*
G01*
X86844385Y82394385D01*
G75*
G02*
X86894385Y82344385I0J-50000D01*
G01*
X86894385Y81569385D01*
G75*
G02*
X86844385Y81519385I-50000J0D01*
G01*
G37*
G36*
G01*
X87244385Y81519385D02*
X87144385Y81519385D01*
G75*
G02*
X87094385Y81569385I0J50000D01*
G01*
X87094385Y82344385D01*
G75*
G02*
X87144385Y82394385I50000J0D01*
G01*
X87244385Y82394385D01*
G75*
G02*
X87294385Y82344385I0J-50000D01*
G01*
X87294385Y81569385D01*
G75*
G02*
X87244385Y81519385I-50000J0D01*
G01*
G37*
G36*
G01*
X87644385Y81519385D02*
X87544385Y81519385D01*
G75*
G02*
X87494385Y81569385I0J50000D01*
G01*
X87494385Y82344385D01*
G75*
G02*
X87544385Y82394385I50000J0D01*
G01*
X87644385Y82394385D01*
G75*
G02*
X87694385Y82344385I0J-50000D01*
G01*
X87694385Y81569385D01*
G75*
G02*
X87644385Y81519385I-50000J0D01*
G01*
G37*
G36*
G01*
X88044385Y81519385D02*
X87944385Y81519385D01*
G75*
G02*
X87894385Y81569385I0J50000D01*
G01*
X87894385Y82344385D01*
G75*
G02*
X87944385Y82394385I50000J0D01*
G01*
X88044385Y82394385D01*
G75*
G02*
X88094385Y82344385I0J-50000D01*
G01*
X88094385Y81569385D01*
G75*
G02*
X88044385Y81519385I-50000J0D01*
G01*
G37*
G36*
G01*
X88444385Y81519385D02*
X88344385Y81519385D01*
G75*
G02*
X88294385Y81569385I0J50000D01*
G01*
X88294385Y82344385D01*
G75*
G02*
X88344385Y82394385I50000J0D01*
G01*
X88444385Y82394385D01*
G75*
G02*
X88494385Y82344385I0J-50000D01*
G01*
X88494385Y81569385D01*
G75*
G02*
X88444385Y81519385I-50000J0D01*
G01*
G37*
G36*
G01*
X88844385Y81519385D02*
X88744385Y81519385D01*
G75*
G02*
X88694385Y81569385I0J50000D01*
G01*
X88694385Y82344385D01*
G75*
G02*
X88744385Y82394385I50000J0D01*
G01*
X88844385Y82394385D01*
G75*
G02*
X88894385Y82344385I0J-50000D01*
G01*
X88894385Y81569385D01*
G75*
G02*
X88844385Y81519385I-50000J0D01*
G01*
G37*
G36*
G01*
X89244385Y81519385D02*
X89144385Y81519385D01*
G75*
G02*
X89094385Y81569385I0J50000D01*
G01*
X89094385Y82344385D01*
G75*
G02*
X89144385Y82394385I50000J0D01*
G01*
X89244385Y82394385D01*
G75*
G02*
X89294385Y82344385I0J-50000D01*
G01*
X89294385Y81569385D01*
G75*
G02*
X89244385Y81519385I-50000J0D01*
G01*
G37*
G36*
G01*
X89644385Y81519385D02*
X89544385Y81519385D01*
G75*
G02*
X89494385Y81569385I0J50000D01*
G01*
X89494385Y82344385D01*
G75*
G02*
X89544385Y82394385I50000J0D01*
G01*
X89644385Y82394385D01*
G75*
G02*
X89694385Y82344385I0J-50000D01*
G01*
X89694385Y81569385D01*
G75*
G02*
X89644385Y81519385I-50000J0D01*
G01*
G37*
G36*
G01*
X90044385Y81519385D02*
X89944385Y81519385D01*
G75*
G02*
X89894385Y81569385I0J50000D01*
G01*
X89894385Y82344385D01*
G75*
G02*
X89944385Y82394385I50000J0D01*
G01*
X90044385Y82394385D01*
G75*
G02*
X90094385Y82344385I0J-50000D01*
G01*
X90094385Y81569385D01*
G75*
G02*
X90044385Y81519385I-50000J0D01*
G01*
G37*
G36*
G01*
X90444385Y81519385D02*
X90344385Y81519385D01*
G75*
G02*
X90294385Y81569385I0J50000D01*
G01*
X90294385Y82344385D01*
G75*
G02*
X90344385Y82394385I50000J0D01*
G01*
X90444385Y82394385D01*
G75*
G02*
X90494385Y82344385I0J-50000D01*
G01*
X90494385Y81569385D01*
G75*
G02*
X90444385Y81519385I-50000J0D01*
G01*
G37*
G36*
G01*
X90844385Y81519385D02*
X90744385Y81519385D01*
G75*
G02*
X90694385Y81569385I0J50000D01*
G01*
X90694385Y82344385D01*
G75*
G02*
X90744385Y82394385I50000J0D01*
G01*
X90844385Y82394385D01*
G75*
G02*
X90894385Y82344385I0J-50000D01*
G01*
X90894385Y81569385D01*
G75*
G02*
X90844385Y81519385I-50000J0D01*
G01*
G37*
G36*
G01*
X91244385Y81519385D02*
X91144385Y81519385D01*
G75*
G02*
X91094385Y81569385I0J50000D01*
G01*
X91094385Y82344385D01*
G75*
G02*
X91144385Y82394385I50000J0D01*
G01*
X91244385Y82394385D01*
G75*
G02*
X91294385Y82344385I0J-50000D01*
G01*
X91294385Y81569385D01*
G75*
G02*
X91244385Y81519385I-50000J0D01*
G01*
G37*
G36*
G01*
X91644385Y81519385D02*
X91544385Y81519385D01*
G75*
G02*
X91494385Y81569385I0J50000D01*
G01*
X91494385Y82344385D01*
G75*
G02*
X91544385Y82394385I50000J0D01*
G01*
X91644385Y82394385D01*
G75*
G02*
X91694385Y82344385I0J-50000D01*
G01*
X91694385Y81569385D01*
G75*
G02*
X91644385Y81519385I-50000J0D01*
G01*
G37*
G36*
G01*
X92044385Y81519385D02*
X91944385Y81519385D01*
G75*
G02*
X91894385Y81569385I0J50000D01*
G01*
X91894385Y82344385D01*
G75*
G02*
X91944385Y82394385I50000J0D01*
G01*
X92044385Y82394385D01*
G75*
G02*
X92094385Y82344385I0J-50000D01*
G01*
X92094385Y81569385D01*
G75*
G02*
X92044385Y81519385I-50000J0D01*
G01*
G37*
G36*
G01*
X93219385Y82694385D02*
X92444385Y82694385D01*
G75*
G02*
X92394385Y82744385I0J50000D01*
G01*
X92394385Y82844385D01*
G75*
G02*
X92444385Y82894385I50000J0D01*
G01*
X93219385Y82894385D01*
G75*
G02*
X93269385Y82844385I0J-50000D01*
G01*
X93269385Y82744385D01*
G75*
G02*
X93219385Y82694385I-50000J0D01*
G01*
G37*
G36*
G01*
X93219385Y83094385D02*
X92444385Y83094385D01*
G75*
G02*
X92394385Y83144385I0J50000D01*
G01*
X92394385Y83244385D01*
G75*
G02*
X92444385Y83294385I50000J0D01*
G01*
X93219385Y83294385D01*
G75*
G02*
X93269385Y83244385I0J-50000D01*
G01*
X93269385Y83144385D01*
G75*
G02*
X93219385Y83094385I-50000J0D01*
G01*
G37*
G36*
G01*
X93219385Y83494385D02*
X92444385Y83494385D01*
G75*
G02*
X92394385Y83544385I0J50000D01*
G01*
X92394385Y83644385D01*
G75*
G02*
X92444385Y83694385I50000J0D01*
G01*
X93219385Y83694385D01*
G75*
G02*
X93269385Y83644385I0J-50000D01*
G01*
X93269385Y83544385D01*
G75*
G02*
X93219385Y83494385I-50000J0D01*
G01*
G37*
G36*
G01*
X93219385Y83894385D02*
X92444385Y83894385D01*
G75*
G02*
X92394385Y83944385I0J50000D01*
G01*
X92394385Y84044385D01*
G75*
G02*
X92444385Y84094385I50000J0D01*
G01*
X93219385Y84094385D01*
G75*
G02*
X93269385Y84044385I0J-50000D01*
G01*
X93269385Y83944385D01*
G75*
G02*
X93219385Y83894385I-50000J0D01*
G01*
G37*
G36*
G01*
X93219385Y84294385D02*
X92444385Y84294385D01*
G75*
G02*
X92394385Y84344385I0J50000D01*
G01*
X92394385Y84444385D01*
G75*
G02*
X92444385Y84494385I50000J0D01*
G01*
X93219385Y84494385D01*
G75*
G02*
X93269385Y84444385I0J-50000D01*
G01*
X93269385Y84344385D01*
G75*
G02*
X93219385Y84294385I-50000J0D01*
G01*
G37*
G36*
G01*
X93219385Y84694385D02*
X92444385Y84694385D01*
G75*
G02*
X92394385Y84744385I0J50000D01*
G01*
X92394385Y84844385D01*
G75*
G02*
X92444385Y84894385I50000J0D01*
G01*
X93219385Y84894385D01*
G75*
G02*
X93269385Y84844385I0J-50000D01*
G01*
X93269385Y84744385D01*
G75*
G02*
X93219385Y84694385I-50000J0D01*
G01*
G37*
G36*
G01*
X93219385Y85094385D02*
X92444385Y85094385D01*
G75*
G02*
X92394385Y85144385I0J50000D01*
G01*
X92394385Y85244385D01*
G75*
G02*
X92444385Y85294385I50000J0D01*
G01*
X93219385Y85294385D01*
G75*
G02*
X93269385Y85244385I0J-50000D01*
G01*
X93269385Y85144385D01*
G75*
G02*
X93219385Y85094385I-50000J0D01*
G01*
G37*
G36*
G01*
X93219385Y85494385D02*
X92444385Y85494385D01*
G75*
G02*
X92394385Y85544385I0J50000D01*
G01*
X92394385Y85644385D01*
G75*
G02*
X92444385Y85694385I50000J0D01*
G01*
X93219385Y85694385D01*
G75*
G02*
X93269385Y85644385I0J-50000D01*
G01*
X93269385Y85544385D01*
G75*
G02*
X93219385Y85494385I-50000J0D01*
G01*
G37*
G36*
G01*
X93219385Y85894385D02*
X92444385Y85894385D01*
G75*
G02*
X92394385Y85944385I0J50000D01*
G01*
X92394385Y86044385D01*
G75*
G02*
X92444385Y86094385I50000J0D01*
G01*
X93219385Y86094385D01*
G75*
G02*
X93269385Y86044385I0J-50000D01*
G01*
X93269385Y85944385D01*
G75*
G02*
X93219385Y85894385I-50000J0D01*
G01*
G37*
G36*
G01*
X93219385Y86294385D02*
X92444385Y86294385D01*
G75*
G02*
X92394385Y86344385I0J50000D01*
G01*
X92394385Y86444385D01*
G75*
G02*
X92444385Y86494385I50000J0D01*
G01*
X93219385Y86494385D01*
G75*
G02*
X93269385Y86444385I0J-50000D01*
G01*
X93269385Y86344385D01*
G75*
G02*
X93219385Y86294385I-50000J0D01*
G01*
G37*
G36*
G01*
X93219385Y86694385D02*
X92444385Y86694385D01*
G75*
G02*
X92394385Y86744385I0J50000D01*
G01*
X92394385Y86844385D01*
G75*
G02*
X92444385Y86894385I50000J0D01*
G01*
X93219385Y86894385D01*
G75*
G02*
X93269385Y86844385I0J-50000D01*
G01*
X93269385Y86744385D01*
G75*
G02*
X93219385Y86694385I-50000J0D01*
G01*
G37*
G36*
G01*
X93219385Y87094385D02*
X92444385Y87094385D01*
G75*
G02*
X92394385Y87144385I0J50000D01*
G01*
X92394385Y87244385D01*
G75*
G02*
X92444385Y87294385I50000J0D01*
G01*
X93219385Y87294385D01*
G75*
G02*
X93269385Y87244385I0J-50000D01*
G01*
X93269385Y87144385D01*
G75*
G02*
X93219385Y87094385I-50000J0D01*
G01*
G37*
G36*
G01*
X93219385Y87494385D02*
X92444385Y87494385D01*
G75*
G02*
X92394385Y87544385I0J50000D01*
G01*
X92394385Y87644385D01*
G75*
G02*
X92444385Y87694385I50000J0D01*
G01*
X93219385Y87694385D01*
G75*
G02*
X93269385Y87644385I0J-50000D01*
G01*
X93269385Y87544385D01*
G75*
G02*
X93219385Y87494385I-50000J0D01*
G01*
G37*
G36*
G01*
X93219385Y87894385D02*
X92444385Y87894385D01*
G75*
G02*
X92394385Y87944385I0J50000D01*
G01*
X92394385Y88044385D01*
G75*
G02*
X92444385Y88094385I50000J0D01*
G01*
X93219385Y88094385D01*
G75*
G02*
X93269385Y88044385I0J-50000D01*
G01*
X93269385Y87944385D01*
G75*
G02*
X93219385Y87894385I-50000J0D01*
G01*
G37*
G36*
G01*
X92044385Y88394385D02*
X91944385Y88394385D01*
G75*
G02*
X91894385Y88444385I0J50000D01*
G01*
X91894385Y89219385D01*
G75*
G02*
X91944385Y89269385I50000J0D01*
G01*
X92044385Y89269385D01*
G75*
G02*
X92094385Y89219385I0J-50000D01*
G01*
X92094385Y88444385D01*
G75*
G02*
X92044385Y88394385I-50000J0D01*
G01*
G37*
G36*
G01*
X91644385Y88394385D02*
X91544385Y88394385D01*
G75*
G02*
X91494385Y88444385I0J50000D01*
G01*
X91494385Y89219385D01*
G75*
G02*
X91544385Y89269385I50000J0D01*
G01*
X91644385Y89269385D01*
G75*
G02*
X91694385Y89219385I0J-50000D01*
G01*
X91694385Y88444385D01*
G75*
G02*
X91644385Y88394385I-50000J0D01*
G01*
G37*
G36*
G01*
X91244385Y88394385D02*
X91144385Y88394385D01*
G75*
G02*
X91094385Y88444385I0J50000D01*
G01*
X91094385Y89219385D01*
G75*
G02*
X91144385Y89269385I50000J0D01*
G01*
X91244385Y89269385D01*
G75*
G02*
X91294385Y89219385I0J-50000D01*
G01*
X91294385Y88444385D01*
G75*
G02*
X91244385Y88394385I-50000J0D01*
G01*
G37*
G36*
G01*
X90844385Y88394385D02*
X90744385Y88394385D01*
G75*
G02*
X90694385Y88444385I0J50000D01*
G01*
X90694385Y89219385D01*
G75*
G02*
X90744385Y89269385I50000J0D01*
G01*
X90844385Y89269385D01*
G75*
G02*
X90894385Y89219385I0J-50000D01*
G01*
X90894385Y88444385D01*
G75*
G02*
X90844385Y88394385I-50000J0D01*
G01*
G37*
G36*
G01*
X90444385Y88394385D02*
X90344385Y88394385D01*
G75*
G02*
X90294385Y88444385I0J50000D01*
G01*
X90294385Y89219385D01*
G75*
G02*
X90344385Y89269385I50000J0D01*
G01*
X90444385Y89269385D01*
G75*
G02*
X90494385Y89219385I0J-50000D01*
G01*
X90494385Y88444385D01*
G75*
G02*
X90444385Y88394385I-50000J0D01*
G01*
G37*
G36*
G01*
X90044385Y88394385D02*
X89944385Y88394385D01*
G75*
G02*
X89894385Y88444385I0J50000D01*
G01*
X89894385Y89219385D01*
G75*
G02*
X89944385Y89269385I50000J0D01*
G01*
X90044385Y89269385D01*
G75*
G02*
X90094385Y89219385I0J-50000D01*
G01*
X90094385Y88444385D01*
G75*
G02*
X90044385Y88394385I-50000J0D01*
G01*
G37*
G36*
G01*
X89644385Y88394385D02*
X89544385Y88394385D01*
G75*
G02*
X89494385Y88444385I0J50000D01*
G01*
X89494385Y89219385D01*
G75*
G02*
X89544385Y89269385I50000J0D01*
G01*
X89644385Y89269385D01*
G75*
G02*
X89694385Y89219385I0J-50000D01*
G01*
X89694385Y88444385D01*
G75*
G02*
X89644385Y88394385I-50000J0D01*
G01*
G37*
G36*
G01*
X89244385Y88394385D02*
X89144385Y88394385D01*
G75*
G02*
X89094385Y88444385I0J50000D01*
G01*
X89094385Y89219385D01*
G75*
G02*
X89144385Y89269385I50000J0D01*
G01*
X89244385Y89269385D01*
G75*
G02*
X89294385Y89219385I0J-50000D01*
G01*
X89294385Y88444385D01*
G75*
G02*
X89244385Y88394385I-50000J0D01*
G01*
G37*
G36*
G01*
X88844385Y88394385D02*
X88744385Y88394385D01*
G75*
G02*
X88694385Y88444385I0J50000D01*
G01*
X88694385Y89219385D01*
G75*
G02*
X88744385Y89269385I50000J0D01*
G01*
X88844385Y89269385D01*
G75*
G02*
X88894385Y89219385I0J-50000D01*
G01*
X88894385Y88444385D01*
G75*
G02*
X88844385Y88394385I-50000J0D01*
G01*
G37*
G36*
G01*
X88444385Y88394385D02*
X88344385Y88394385D01*
G75*
G02*
X88294385Y88444385I0J50000D01*
G01*
X88294385Y89219385D01*
G75*
G02*
X88344385Y89269385I50000J0D01*
G01*
X88444385Y89269385D01*
G75*
G02*
X88494385Y89219385I0J-50000D01*
G01*
X88494385Y88444385D01*
G75*
G02*
X88444385Y88394385I-50000J0D01*
G01*
G37*
G36*
G01*
X88044385Y88394385D02*
X87944385Y88394385D01*
G75*
G02*
X87894385Y88444385I0J50000D01*
G01*
X87894385Y89219385D01*
G75*
G02*
X87944385Y89269385I50000J0D01*
G01*
X88044385Y89269385D01*
G75*
G02*
X88094385Y89219385I0J-50000D01*
G01*
X88094385Y88444385D01*
G75*
G02*
X88044385Y88394385I-50000J0D01*
G01*
G37*
G36*
G01*
X87644385Y88394385D02*
X87544385Y88394385D01*
G75*
G02*
X87494385Y88444385I0J50000D01*
G01*
X87494385Y89219385D01*
G75*
G02*
X87544385Y89269385I50000J0D01*
G01*
X87644385Y89269385D01*
G75*
G02*
X87694385Y89219385I0J-50000D01*
G01*
X87694385Y88444385D01*
G75*
G02*
X87644385Y88394385I-50000J0D01*
G01*
G37*
G36*
G01*
X87244385Y88394385D02*
X87144385Y88394385D01*
G75*
G02*
X87094385Y88444385I0J50000D01*
G01*
X87094385Y89219385D01*
G75*
G02*
X87144385Y89269385I50000J0D01*
G01*
X87244385Y89269385D01*
G75*
G02*
X87294385Y89219385I0J-50000D01*
G01*
X87294385Y88444385D01*
G75*
G02*
X87244385Y88394385I-50000J0D01*
G01*
G37*
G36*
G01*
X86844385Y88394385D02*
X86744385Y88394385D01*
G75*
G02*
X86694385Y88444385I0J50000D01*
G01*
X86694385Y89219385D01*
G75*
G02*
X86744385Y89269385I50000J0D01*
G01*
X86844385Y89269385D01*
G75*
G02*
X86894385Y89219385I0J-50000D01*
G01*
X86894385Y88444385D01*
G75*
G02*
X86844385Y88394385I-50000J0D01*
G01*
G37*
G36*
G01*
X86344385Y87894385D02*
X85569385Y87894385D01*
G75*
G02*
X85519385Y87944385I0J50000D01*
G01*
X85519385Y88044385D01*
G75*
G02*
X85569385Y88094385I50000J0D01*
G01*
X86344385Y88094385D01*
G75*
G02*
X86394385Y88044385I0J-50000D01*
G01*
X86394385Y87944385D01*
G75*
G02*
X86344385Y87894385I-50000J0D01*
G01*
G37*
G36*
G01*
X86344385Y87494385D02*
X85569385Y87494385D01*
G75*
G02*
X85519385Y87544385I0J50000D01*
G01*
X85519385Y87644385D01*
G75*
G02*
X85569385Y87694385I50000J0D01*
G01*
X86344385Y87694385D01*
G75*
G02*
X86394385Y87644385I0J-50000D01*
G01*
X86394385Y87544385D01*
G75*
G02*
X86344385Y87494385I-50000J0D01*
G01*
G37*
G36*
G01*
X86344385Y87094385D02*
X85569385Y87094385D01*
G75*
G02*
X85519385Y87144385I0J50000D01*
G01*
X85519385Y87244385D01*
G75*
G02*
X85569385Y87294385I50000J0D01*
G01*
X86344385Y87294385D01*
G75*
G02*
X86394385Y87244385I0J-50000D01*
G01*
X86394385Y87144385D01*
G75*
G02*
X86344385Y87094385I-50000J0D01*
G01*
G37*
G36*
G01*
X86344385Y86694385D02*
X85569385Y86694385D01*
G75*
G02*
X85519385Y86744385I0J50000D01*
G01*
X85519385Y86844385D01*
G75*
G02*
X85569385Y86894385I50000J0D01*
G01*
X86344385Y86894385D01*
G75*
G02*
X86394385Y86844385I0J-50000D01*
G01*
X86394385Y86744385D01*
G75*
G02*
X86344385Y86694385I-50000J0D01*
G01*
G37*
G36*
G01*
X86344385Y86294385D02*
X85569385Y86294385D01*
G75*
G02*
X85519385Y86344385I0J50000D01*
G01*
X85519385Y86444385D01*
G75*
G02*
X85569385Y86494385I50000J0D01*
G01*
X86344385Y86494385D01*
G75*
G02*
X86394385Y86444385I0J-50000D01*
G01*
X86394385Y86344385D01*
G75*
G02*
X86344385Y86294385I-50000J0D01*
G01*
G37*
G36*
G01*
X86344385Y85894385D02*
X85569385Y85894385D01*
G75*
G02*
X85519385Y85944385I0J50000D01*
G01*
X85519385Y86044385D01*
G75*
G02*
X85569385Y86094385I50000J0D01*
G01*
X86344385Y86094385D01*
G75*
G02*
X86394385Y86044385I0J-50000D01*
G01*
X86394385Y85944385D01*
G75*
G02*
X86344385Y85894385I-50000J0D01*
G01*
G37*
G36*
G01*
X86344385Y85494385D02*
X85569385Y85494385D01*
G75*
G02*
X85519385Y85544385I0J50000D01*
G01*
X85519385Y85644385D01*
G75*
G02*
X85569385Y85694385I50000J0D01*
G01*
X86344385Y85694385D01*
G75*
G02*
X86394385Y85644385I0J-50000D01*
G01*
X86394385Y85544385D01*
G75*
G02*
X86344385Y85494385I-50000J0D01*
G01*
G37*
G36*
G01*
X86344385Y85094385D02*
X85569385Y85094385D01*
G75*
G02*
X85519385Y85144385I0J50000D01*
G01*
X85519385Y85244385D01*
G75*
G02*
X85569385Y85294385I50000J0D01*
G01*
X86344385Y85294385D01*
G75*
G02*
X86394385Y85244385I0J-50000D01*
G01*
X86394385Y85144385D01*
G75*
G02*
X86344385Y85094385I-50000J0D01*
G01*
G37*
G36*
G01*
X86344385Y84694385D02*
X85569385Y84694385D01*
G75*
G02*
X85519385Y84744385I0J50000D01*
G01*
X85519385Y84844385D01*
G75*
G02*
X85569385Y84894385I50000J0D01*
G01*
X86344385Y84894385D01*
G75*
G02*
X86394385Y84844385I0J-50000D01*
G01*
X86394385Y84744385D01*
G75*
G02*
X86344385Y84694385I-50000J0D01*
G01*
G37*
G36*
G01*
X86344385Y84294385D02*
X85569385Y84294385D01*
G75*
G02*
X85519385Y84344385I0J50000D01*
G01*
X85519385Y84444385D01*
G75*
G02*
X85569385Y84494385I50000J0D01*
G01*
X86344385Y84494385D01*
G75*
G02*
X86394385Y84444385I0J-50000D01*
G01*
X86394385Y84344385D01*
G75*
G02*
X86344385Y84294385I-50000J0D01*
G01*
G37*
G36*
G01*
X86344385Y83894385D02*
X85569385Y83894385D01*
G75*
G02*
X85519385Y83944385I0J50000D01*
G01*
X85519385Y84044385D01*
G75*
G02*
X85569385Y84094385I50000J0D01*
G01*
X86344385Y84094385D01*
G75*
G02*
X86394385Y84044385I0J-50000D01*
G01*
X86394385Y83944385D01*
G75*
G02*
X86344385Y83894385I-50000J0D01*
G01*
G37*
G36*
G01*
X86344385Y83494385D02*
X85569385Y83494385D01*
G75*
G02*
X85519385Y83544385I0J50000D01*
G01*
X85519385Y83644385D01*
G75*
G02*
X85569385Y83694385I50000J0D01*
G01*
X86344385Y83694385D01*
G75*
G02*
X86394385Y83644385I0J-50000D01*
G01*
X86394385Y83544385D01*
G75*
G02*
X86344385Y83494385I-50000J0D01*
G01*
G37*
G36*
G01*
X86344385Y83094385D02*
X85569385Y83094385D01*
G75*
G02*
X85519385Y83144385I0J50000D01*
G01*
X85519385Y83244385D01*
G75*
G02*
X85569385Y83294385I50000J0D01*
G01*
X86344385Y83294385D01*
G75*
G02*
X86394385Y83244385I0J-50000D01*
G01*
X86394385Y83144385D01*
G75*
G02*
X86344385Y83094385I-50000J0D01*
G01*
G37*
G36*
G01*
X86344385Y82694385D02*
X85569385Y82694385D01*
G75*
G02*
X85519385Y82744385I0J50000D01*
G01*
X85519385Y82844385D01*
G75*
G02*
X85569385Y82894385I50000J0D01*
G01*
X86344385Y82894385D01*
G75*
G02*
X86394385Y82844385I0J-50000D01*
G01*
X86394385Y82744385D01*
G75*
G02*
X86344385Y82694385I-50000J0D01*
G01*
G37*
G36*
G01*
X90850385Y83794385D02*
X87938385Y83794385D01*
G75*
G02*
X87794385Y83938385I0J144000D01*
G01*
X87794385Y86850385D01*
G75*
G02*
X87938385Y86994385I144000J0D01*
G01*
X90850385Y86994385D01*
G75*
G02*
X90994385Y86850385I0J-144000D01*
G01*
X90994385Y83938385D01*
G75*
G02*
X90850385Y83794385I-144000J0D01*
G01*
G37*
G36*
G01*
X32919385Y63450635D02*
X32919385Y62538135D01*
G75*
G02*
X32675635Y62294385I-243750J0D01*
G01*
X32188135Y62294385D01*
G75*
G02*
X31944385Y62538135I0J243750D01*
G01*
X31944385Y63450635D01*
G75*
G02*
X32188135Y63694385I243750J0D01*
G01*
X32675635Y63694385D01*
G75*
G02*
X32919385Y63450635I0J-243750D01*
G01*
G37*
G36*
G01*
X31044385Y63450635D02*
X31044385Y62538135D01*
G75*
G02*
X30800635Y62294385I-243750J0D01*
G01*
X30313135Y62294385D01*
G75*
G02*
X30069385Y62538135I0J243750D01*
G01*
X30069385Y63450635D01*
G75*
G02*
X30313135Y63694385I243750J0D01*
G01*
X30800635Y63694385D01*
G75*
G02*
X31044385Y63450635I0J-243750D01*
G01*
G37*
G36*
G01*
X118954385Y79219385D02*
X118954385Y78269385D01*
G75*
G02*
X118704385Y78019385I-250000J0D01*
G01*
X118204385Y78019385D01*
G75*
G02*
X117954385Y78269385I0J250000D01*
G01*
X117954385Y79219385D01*
G75*
G02*
X118204385Y79469385I250000J0D01*
G01*
X118704385Y79469385D01*
G75*
G02*
X118954385Y79219385I0J-250000D01*
G01*
G37*
G36*
G01*
X117054385Y79219385D02*
X117054385Y78269385D01*
G75*
G02*
X116804385Y78019385I-250000J0D01*
G01*
X116304385Y78019385D01*
G75*
G02*
X116054385Y78269385I0J250000D01*
G01*
X116054385Y79219385D01*
G75*
G02*
X116304385Y79469385I250000J0D01*
G01*
X116804385Y79469385D01*
G75*
G02*
X117054385Y79219385I0J-250000D01*
G01*
G37*
G36*
G01*
X141754385Y94809385D02*
X141754385Y95759385D01*
G75*
G02*
X142004385Y96009385I250000J0D01*
G01*
X142504385Y96009385D01*
G75*
G02*
X142754385Y95759385I0J-250000D01*
G01*
X142754385Y94809385D01*
G75*
G02*
X142504385Y94559385I-250000J0D01*
G01*
X142004385Y94559385D01*
G75*
G02*
X141754385Y94809385I0J250000D01*
G01*
G37*
G36*
G01*
X143654385Y94809385D02*
X143654385Y95759385D01*
G75*
G02*
X143904385Y96009385I250000J0D01*
G01*
X144404385Y96009385D01*
G75*
G02*
X144654385Y95759385I0J-250000D01*
G01*
X144654385Y94809385D01*
G75*
G02*
X144404385Y94559385I-250000J0D01*
G01*
X143904385Y94559385D01*
G75*
G02*
X143654385Y94809385I0J250000D01*
G01*
G37*
D23*
X85994385Y22994385D03*
D24*
X87994385Y22994385D03*
X85994385Y20994385D03*
X87994385Y20994385D03*
G36*
G01*
X121984385Y77716885D02*
X120684385Y77716885D01*
G75*
G02*
X120434385Y77966885I0J250000D01*
G01*
X120434385Y79966885D01*
G75*
G02*
X120684385Y80216885I250000J0D01*
G01*
X121984385Y80216885D01*
G75*
G02*
X122234385Y79966885I0J-250000D01*
G01*
X122234385Y77966885D01*
G75*
G02*
X121984385Y77716885I-250000J0D01*
G01*
G37*
G36*
G01*
X121984385Y81716885D02*
X120684385Y81716885D01*
G75*
G02*
X120434385Y81966885I0J250000D01*
G01*
X120434385Y83966885D01*
G75*
G02*
X120684385Y84216885I250000J0D01*
G01*
X121984385Y84216885D01*
G75*
G02*
X122234385Y83966885I0J-250000D01*
G01*
X122234385Y81966885D01*
G75*
G02*
X121984385Y81716885I-250000J0D01*
G01*
G37*
G36*
G01*
X136354385Y82439385D02*
X135454385Y82439385D01*
G75*
G02*
X135204385Y82689385I0J250000D01*
G01*
X135204385Y83214385D01*
G75*
G02*
X135454385Y83464385I250000J0D01*
G01*
X136354385Y83464385D01*
G75*
G02*
X136604385Y83214385I0J-250000D01*
G01*
X136604385Y82689385D01*
G75*
G02*
X136354385Y82439385I-250000J0D01*
G01*
G37*
G36*
G01*
X136354385Y84264385D02*
X135454385Y84264385D01*
G75*
G02*
X135204385Y84514385I0J250000D01*
G01*
X135204385Y85039385D01*
G75*
G02*
X135454385Y85289385I250000J0D01*
G01*
X136354385Y85289385D01*
G75*
G02*
X136604385Y85039385I0J-250000D01*
G01*
X136604385Y84514385D01*
G75*
G02*
X136354385Y84264385I-250000J0D01*
G01*
G37*
G36*
G01*
X89284385Y91059385D02*
X89284385Y92009385D01*
G75*
G02*
X89534385Y92259385I250000J0D01*
G01*
X90034385Y92259385D01*
G75*
G02*
X90284385Y92009385I0J-250000D01*
G01*
X90284385Y91059385D01*
G75*
G02*
X90034385Y90809385I-250000J0D01*
G01*
X89534385Y90809385D01*
G75*
G02*
X89284385Y91059385I0J250000D01*
G01*
G37*
G36*
G01*
X91184385Y91059385D02*
X91184385Y92009385D01*
G75*
G02*
X91434385Y92259385I250000J0D01*
G01*
X91934385Y92259385D01*
G75*
G02*
X92184385Y92009385I0J-250000D01*
G01*
X92184385Y91059385D01*
G75*
G02*
X91934385Y90809385I-250000J0D01*
G01*
X91434385Y90809385D01*
G75*
G02*
X91184385Y91059385I0J250000D01*
G01*
G37*
G36*
G01*
X60274385Y77579385D02*
X61174385Y77579385D01*
G75*
G02*
X61424385Y77329385I0J-250000D01*
G01*
X61424385Y76804385D01*
G75*
G02*
X61174385Y76554385I-250000J0D01*
G01*
X60274385Y76554385D01*
G75*
G02*
X60024385Y76804385I0J250000D01*
G01*
X60024385Y77329385D01*
G75*
G02*
X60274385Y77579385I250000J0D01*
G01*
G37*
G36*
G01*
X60274385Y75754385D02*
X61174385Y75754385D01*
G75*
G02*
X61424385Y75504385I0J-250000D01*
G01*
X61424385Y74979385D01*
G75*
G02*
X61174385Y74729385I-250000J0D01*
G01*
X60274385Y74729385D01*
G75*
G02*
X60024385Y74979385I0J250000D01*
G01*
X60024385Y75504385D01*
G75*
G02*
X60274385Y75754385I250000J0D01*
G01*
G37*
G36*
G01*
X66259385Y89078135D02*
X66259385Y89590635D01*
G75*
G02*
X66478135Y89809385I218750J0D01*
G01*
X66915635Y89809385D01*
G75*
G02*
X67134385Y89590635I0J-218750D01*
G01*
X67134385Y89078135D01*
G75*
G02*
X66915635Y88859385I-218750J0D01*
G01*
X66478135Y88859385D01*
G75*
G02*
X66259385Y89078135I0J218750D01*
G01*
G37*
G36*
G01*
X67834385Y89078135D02*
X67834385Y89590635D01*
G75*
G02*
X68053135Y89809385I218750J0D01*
G01*
X68490635Y89809385D01*
G75*
G02*
X68709385Y89590635I0J-218750D01*
G01*
X68709385Y89078135D01*
G75*
G02*
X68490635Y88859385I-218750J0D01*
G01*
X68053135Y88859385D01*
G75*
G02*
X67834385Y89078135I0J218750D01*
G01*
G37*
G36*
G01*
X67694385Y87754385D02*
X67694385Y87154385D01*
G75*
G02*
X67444385Y86904385I-250000J0D01*
G01*
X66844385Y86904385D01*
G75*
G02*
X66594385Y87154385I0J250000D01*
G01*
X66594385Y87754385D01*
G75*
G02*
X66844385Y88004385I250000J0D01*
G01*
X67444385Y88004385D01*
G75*
G02*
X67694385Y87754385I0J-250000D01*
G01*
G37*
G36*
G01*
X64894385Y87754385D02*
X64894385Y87154385D01*
G75*
G02*
X64644385Y86904385I-250000J0D01*
G01*
X64044385Y86904385D01*
G75*
G02*
X63794385Y87154385I0J250000D01*
G01*
X63794385Y87754385D01*
G75*
G02*
X64044385Y88004385I250000J0D01*
G01*
X64644385Y88004385D01*
G75*
G02*
X64894385Y87754385I0J-250000D01*
G01*
G37*
G36*
G01*
X99694385Y86249385D02*
X99694385Y87199385D01*
G75*
G02*
X99944385Y87449385I250000J0D01*
G01*
X100444385Y87449385D01*
G75*
G02*
X100694385Y87199385I0J-250000D01*
G01*
X100694385Y86249385D01*
G75*
G02*
X100444385Y85999385I-250000J0D01*
G01*
X99944385Y85999385D01*
G75*
G02*
X99694385Y86249385I0J250000D01*
G01*
G37*
G36*
G01*
X101594385Y86249385D02*
X101594385Y87199385D01*
G75*
G02*
X101844385Y87449385I250000J0D01*
G01*
X102344385Y87449385D01*
G75*
G02*
X102594385Y87199385I0J-250000D01*
G01*
X102594385Y86249385D01*
G75*
G02*
X102344385Y85999385I-250000J0D01*
G01*
X101844385Y85999385D01*
G75*
G02*
X101594385Y86249385I0J250000D01*
G01*
G37*
G36*
G01*
X85634385Y92929385D02*
X85634385Y91979385D01*
G75*
G02*
X85384385Y91729385I-250000J0D01*
G01*
X84884385Y91729385D01*
G75*
G02*
X84634385Y91979385I0J250000D01*
G01*
X84634385Y92929385D01*
G75*
G02*
X84884385Y93179385I250000J0D01*
G01*
X85384385Y93179385D01*
G75*
G02*
X85634385Y92929385I0J-250000D01*
G01*
G37*
G36*
G01*
X83734385Y92929385D02*
X83734385Y91979385D01*
G75*
G02*
X83484385Y91729385I-250000J0D01*
G01*
X82984385Y91729385D01*
G75*
G02*
X82734385Y91979385I0J250000D01*
G01*
X82734385Y92929385D01*
G75*
G02*
X82984385Y93179385I250000J0D01*
G01*
X83484385Y93179385D01*
G75*
G02*
X83734385Y92929385I0J-250000D01*
G01*
G37*
G36*
G01*
X151669385Y99714385D02*
X151669385Y100614385D01*
G75*
G02*
X151919385Y100864385I250000J0D01*
G01*
X152444385Y100864385D01*
G75*
G02*
X152694385Y100614385I0J-250000D01*
G01*
X152694385Y99714385D01*
G75*
G02*
X152444385Y99464385I-250000J0D01*
G01*
X151919385Y99464385D01*
G75*
G02*
X151669385Y99714385I0J250000D01*
G01*
G37*
G36*
G01*
X153494385Y99714385D02*
X153494385Y100614385D01*
G75*
G02*
X153744385Y100864385I250000J0D01*
G01*
X154269385Y100864385D01*
G75*
G02*
X154519385Y100614385I0J-250000D01*
G01*
X154519385Y99714385D01*
G75*
G02*
X154269385Y99464385I-250000J0D01*
G01*
X153744385Y99464385D01*
G75*
G02*
X153494385Y99714385I0J250000D01*
G01*
G37*
G36*
G01*
X65469385Y89590635D02*
X65469385Y89078135D01*
G75*
G02*
X65250635Y88859385I-218750J0D01*
G01*
X64813135Y88859385D01*
G75*
G02*
X64594385Y89078135I0J218750D01*
G01*
X64594385Y89590635D01*
G75*
G02*
X64813135Y89809385I218750J0D01*
G01*
X65250635Y89809385D01*
G75*
G02*
X65469385Y89590635I0J-218750D01*
G01*
G37*
G36*
G01*
X63894385Y89590635D02*
X63894385Y89078135D01*
G75*
G02*
X63675635Y88859385I-218750J0D01*
G01*
X63238135Y88859385D01*
G75*
G02*
X63019385Y89078135I0J218750D01*
G01*
X63019385Y89590635D01*
G75*
G02*
X63238135Y89809385I218750J0D01*
G01*
X63675635Y89809385D01*
G75*
G02*
X63894385Y89590635I0J-218750D01*
G01*
G37*
G36*
G01*
X96644385Y78969385D02*
X96644385Y78019385D01*
G75*
G02*
X96394385Y77769385I-250000J0D01*
G01*
X95894385Y77769385D01*
G75*
G02*
X95644385Y78019385I0J250000D01*
G01*
X95644385Y78969385D01*
G75*
G02*
X95894385Y79219385I250000J0D01*
G01*
X96394385Y79219385D01*
G75*
G02*
X96644385Y78969385I0J-250000D01*
G01*
G37*
G36*
G01*
X94744385Y78969385D02*
X94744385Y78019385D01*
G75*
G02*
X94494385Y77769385I-250000J0D01*
G01*
X93994385Y77769385D01*
G75*
G02*
X93744385Y78019385I0J250000D01*
G01*
X93744385Y78969385D01*
G75*
G02*
X93994385Y79219385I250000J0D01*
G01*
X94494385Y79219385D01*
G75*
G02*
X94744385Y78969385I0J-250000D01*
G01*
G37*
G36*
G01*
X150764385Y104734385D02*
X150764385Y101834385D01*
G75*
G02*
X150514385Y101584385I-250000J0D01*
G01*
X149889385Y101584385D01*
G75*
G02*
X149639385Y101834385I0J250000D01*
G01*
X149639385Y104734385D01*
G75*
G02*
X149889385Y104984385I250000J0D01*
G01*
X150514385Y104984385D01*
G75*
G02*
X150764385Y104734385I0J-250000D01*
G01*
G37*
G36*
G01*
X146489385Y104734385D02*
X146489385Y101834385D01*
G75*
G02*
X146239385Y101584385I-250000J0D01*
G01*
X145614385Y101584385D01*
G75*
G02*
X145364385Y101834385I0J250000D01*
G01*
X145364385Y104734385D01*
G75*
G02*
X145614385Y104984385I250000J0D01*
G01*
X146239385Y104984385D01*
G75*
G02*
X146489385Y104734385I0J-250000D01*
G01*
G37*
D12*
X100894385Y67428785D03*
D38*
X95494385Y74894385D03*
X104494385Y74894385D03*
D30*
X154994385Y14494385D03*
X168994385Y14494385D03*
X154994385Y9494385D03*
X168994385Y9494385D03*
G36*
G01*
X79739385Y74144385D02*
X79439385Y74144385D01*
G75*
G02*
X79289385Y74294385I0J150000D01*
G01*
X79289385Y75594385D01*
G75*
G02*
X79439385Y75744385I150000J0D01*
G01*
X79739385Y75744385D01*
G75*
G02*
X79889385Y75594385I0J-150000D01*
G01*
X79889385Y74294385D01*
G75*
G02*
X79739385Y74144385I-150000J0D01*
G01*
G37*
G36*
G01*
X81009385Y74144385D02*
X80709385Y74144385D01*
G75*
G02*
X80559385Y74294385I0J150000D01*
G01*
X80559385Y75594385D01*
G75*
G02*
X80709385Y75744385I150000J0D01*
G01*
X81009385Y75744385D01*
G75*
G02*
X81159385Y75594385I0J-150000D01*
G01*
X81159385Y74294385D01*
G75*
G02*
X81009385Y74144385I-150000J0D01*
G01*
G37*
G36*
G01*
X82279385Y74144385D02*
X81979385Y74144385D01*
G75*
G02*
X81829385Y74294385I0J150000D01*
G01*
X81829385Y75594385D01*
G75*
G02*
X81979385Y75744385I150000J0D01*
G01*
X82279385Y75744385D01*
G75*
G02*
X82429385Y75594385I0J-150000D01*
G01*
X82429385Y74294385D01*
G75*
G02*
X82279385Y74144385I-150000J0D01*
G01*
G37*
G36*
G01*
X83549385Y74144385D02*
X83249385Y74144385D01*
G75*
G02*
X83099385Y74294385I0J150000D01*
G01*
X83099385Y75594385D01*
G75*
G02*
X83249385Y75744385I150000J0D01*
G01*
X83549385Y75744385D01*
G75*
G02*
X83699385Y75594385I0J-150000D01*
G01*
X83699385Y74294385D01*
G75*
G02*
X83549385Y74144385I-150000J0D01*
G01*
G37*
G36*
G01*
X83549385Y81344385D02*
X83249385Y81344385D01*
G75*
G02*
X83099385Y81494385I0J150000D01*
G01*
X83099385Y82794385D01*
G75*
G02*
X83249385Y82944385I150000J0D01*
G01*
X83549385Y82944385D01*
G75*
G02*
X83699385Y82794385I0J-150000D01*
G01*
X83699385Y81494385D01*
G75*
G02*
X83549385Y81344385I-150000J0D01*
G01*
G37*
G36*
G01*
X82279385Y81344385D02*
X81979385Y81344385D01*
G75*
G02*
X81829385Y81494385I0J150000D01*
G01*
X81829385Y82794385D01*
G75*
G02*
X81979385Y82944385I150000J0D01*
G01*
X82279385Y82944385D01*
G75*
G02*
X82429385Y82794385I0J-150000D01*
G01*
X82429385Y81494385D01*
G75*
G02*
X82279385Y81344385I-150000J0D01*
G01*
G37*
G36*
G01*
X81009385Y81344385D02*
X80709385Y81344385D01*
G75*
G02*
X80559385Y81494385I0J150000D01*
G01*
X80559385Y82794385D01*
G75*
G02*
X80709385Y82944385I150000J0D01*
G01*
X81009385Y82944385D01*
G75*
G02*
X81159385Y82794385I0J-150000D01*
G01*
X81159385Y81494385D01*
G75*
G02*
X81009385Y81344385I-150000J0D01*
G01*
G37*
G36*
G01*
X79739385Y81344385D02*
X79439385Y81344385D01*
G75*
G02*
X79289385Y81494385I0J150000D01*
G01*
X79289385Y82794385D01*
G75*
G02*
X79439385Y82944385I150000J0D01*
G01*
X79739385Y82944385D01*
G75*
G02*
X79889385Y82794385I0J-150000D01*
G01*
X79889385Y81494385D01*
G75*
G02*
X79739385Y81344385I-150000J0D01*
G01*
G37*
D39*
X70994385Y19494385D03*
X70994385Y67494385D03*
X37994385Y19494385D03*
X37994385Y67494385D03*
D40*
X72994385Y36194385D03*
X69914385Y36194385D03*
X72994385Y36594385D03*
X69914385Y36594385D03*
X72994385Y36994385D03*
X69914385Y36994385D03*
X72994385Y37394385D03*
X69914385Y37394385D03*
X72994385Y37794385D03*
X69914385Y37794385D03*
X72994385Y38194385D03*
X69914385Y38194385D03*
X72994385Y38594385D03*
X69914385Y38594385D03*
X72994385Y38994385D03*
X69914385Y38994385D03*
X72994385Y39394385D03*
X69914385Y39394385D03*
X72994385Y39794385D03*
X69914385Y39794385D03*
X72994385Y40194385D03*
X69914385Y40194385D03*
X72994385Y40594385D03*
X69914385Y40594385D03*
X72994385Y40994385D03*
X69914385Y40994385D03*
X72994385Y41394385D03*
X69914385Y41394385D03*
X72994385Y41794385D03*
X69914385Y41794385D03*
X72994385Y42194385D03*
X69914385Y42194385D03*
X72994385Y42594385D03*
X69914385Y42594385D03*
X72994385Y42994385D03*
X69914385Y42994385D03*
X72994385Y43394385D03*
X69914385Y43394385D03*
X72994385Y43794385D03*
X69914385Y43794385D03*
X72994385Y44194385D03*
X69914385Y44194385D03*
X72994385Y44594385D03*
X69914385Y44594385D03*
X72994385Y44994385D03*
X69914385Y44994385D03*
X72994385Y45394385D03*
X69914385Y45394385D03*
X72994385Y45794385D03*
X69914385Y45794385D03*
X72994385Y46194385D03*
X69914385Y46194385D03*
X72994385Y46594385D03*
X69914385Y46594385D03*
X72994385Y46994385D03*
X69914385Y46994385D03*
X72994385Y47394385D03*
X69914385Y47394385D03*
X72994385Y47794385D03*
X69914385Y47794385D03*
X72994385Y48194385D03*
X69914385Y48194385D03*
X72994385Y48594385D03*
X69914385Y48594385D03*
X72994385Y48994385D03*
X69914385Y48994385D03*
X72994385Y49394385D03*
X69914385Y49394385D03*
X72994385Y49794385D03*
X69914385Y49794385D03*
X72994385Y50194385D03*
X69914385Y50194385D03*
X72994385Y50594385D03*
X69914385Y50594385D03*
X72994385Y50994385D03*
X69914385Y50994385D03*
X72994385Y51394385D03*
X69914385Y51394385D03*
X72994385Y51794385D03*
X69914385Y51794385D03*
X72994385Y52194385D03*
X69914385Y52194385D03*
X72994385Y52594385D03*
X69914385Y52594385D03*
X72994385Y52994385D03*
X69914385Y52994385D03*
X72994385Y53394385D03*
X69914385Y53394385D03*
X72994385Y53794385D03*
X69914385Y53794385D03*
X72994385Y54194385D03*
X69914385Y54194385D03*
X72994385Y54594385D03*
X69914385Y54594385D03*
X72994385Y54994385D03*
X69914385Y54994385D03*
X72994385Y55394385D03*
X69914385Y55394385D03*
X72994385Y55794385D03*
X69914385Y55794385D03*
X39074385Y36194385D03*
X35994385Y36194385D03*
X39074385Y36594385D03*
X35994385Y36594385D03*
X39074385Y36994385D03*
X35994385Y36994385D03*
X39074385Y37394385D03*
X35994385Y37394385D03*
X39074385Y37794385D03*
X35994385Y37794385D03*
X39074385Y38194385D03*
X35994385Y38194385D03*
X39074385Y38594385D03*
X35994385Y38594385D03*
X39074385Y38994385D03*
X35994385Y38994385D03*
X39074385Y39394385D03*
X35994385Y39394385D03*
X39074385Y39794385D03*
X35994385Y39794385D03*
X39074385Y40194385D03*
X35994385Y40194385D03*
X39074385Y40594385D03*
X35994385Y40594385D03*
X39074385Y40994385D03*
X35994385Y40994385D03*
X39074385Y41394385D03*
X35994385Y41394385D03*
X39074385Y41794385D03*
X35994385Y41794385D03*
X39074385Y42194385D03*
X35994385Y42194385D03*
X39074385Y42594385D03*
X35994385Y42594385D03*
X39074385Y42994385D03*
X35994385Y42994385D03*
X39074385Y43394385D03*
X35994385Y43394385D03*
X39074385Y43794385D03*
X35994385Y43794385D03*
X39074385Y44194385D03*
X35994385Y44194385D03*
X39074385Y44594385D03*
X35994385Y44594385D03*
X39074385Y44994385D03*
X35994385Y44994385D03*
X39074385Y45394385D03*
X35994385Y45394385D03*
X39074385Y45794385D03*
X35994385Y45794385D03*
X39074385Y46194385D03*
X35994385Y46194385D03*
X39074385Y46594385D03*
X35994385Y46594385D03*
X39074385Y46994385D03*
X35994385Y46994385D03*
X39074385Y47394385D03*
X35994385Y47394385D03*
X39074385Y47794385D03*
X35994385Y47794385D03*
X39074385Y48194385D03*
X35994385Y48194385D03*
X39074385Y48594385D03*
X35994385Y48594385D03*
X39074385Y48994385D03*
X35994385Y48994385D03*
X39074385Y49394385D03*
X35994385Y49394385D03*
X39074385Y49794385D03*
X35994385Y49794385D03*
X39074385Y50194385D03*
X35994385Y50194385D03*
X39074385Y50594385D03*
X35994385Y50594385D03*
X39074385Y50994385D03*
X35994385Y50994385D03*
X39074385Y51394385D03*
X35994385Y51394385D03*
X39074385Y51794385D03*
X35994385Y51794385D03*
X39074385Y52194385D03*
X35994385Y52194385D03*
X39074385Y52594385D03*
X35994385Y52594385D03*
X39074385Y52994385D03*
X35994385Y52994385D03*
X39074385Y53394385D03*
X35994385Y53394385D03*
X39074385Y53794385D03*
X35994385Y53794385D03*
X39074385Y54194385D03*
X35994385Y54194385D03*
X39074385Y54594385D03*
X35994385Y54594385D03*
X39074385Y54994385D03*
X35994385Y54994385D03*
X39074385Y55394385D03*
X35994385Y55394385D03*
X39074385Y55794385D03*
X35994385Y55794385D03*
D13*
X6494385Y2494385D03*
D30*
X154994385Y66494385D03*
X168994385Y66494385D03*
X154994385Y61494385D03*
X168994385Y61494385D03*
G36*
G01*
X141234385Y93799385D02*
X141234385Y92849385D01*
G75*
G02*
X140984385Y92599385I-250000J0D01*
G01*
X140484385Y92599385D01*
G75*
G02*
X140234385Y92849385I0J250000D01*
G01*
X140234385Y93799385D01*
G75*
G02*
X140484385Y94049385I250000J0D01*
G01*
X140984385Y94049385D01*
G75*
G02*
X141234385Y93799385I0J-250000D01*
G01*
G37*
G36*
G01*
X139334385Y93799385D02*
X139334385Y92849385D01*
G75*
G02*
X139084385Y92599385I-250000J0D01*
G01*
X138584385Y92599385D01*
G75*
G02*
X138334385Y92849385I0J250000D01*
G01*
X138334385Y93799385D01*
G75*
G02*
X138584385Y94049385I250000J0D01*
G01*
X139084385Y94049385D01*
G75*
G02*
X139334385Y93799385I0J-250000D01*
G01*
G37*
G36*
G01*
X141264385Y97739385D02*
X141264385Y96789385D01*
G75*
G02*
X141014385Y96539385I-250000J0D01*
G01*
X140514385Y96539385D01*
G75*
G02*
X140264385Y96789385I0J250000D01*
G01*
X140264385Y97739385D01*
G75*
G02*
X140514385Y97989385I250000J0D01*
G01*
X141014385Y97989385D01*
G75*
G02*
X141264385Y97739385I0J-250000D01*
G01*
G37*
G36*
G01*
X139364385Y97739385D02*
X139364385Y96789385D01*
G75*
G02*
X139114385Y96539385I-250000J0D01*
G01*
X138614385Y96539385D01*
G75*
G02*
X138364385Y96789385I0J250000D01*
G01*
X138364385Y97739385D01*
G75*
G02*
X138614385Y97989385I250000J0D01*
G01*
X139114385Y97989385D01*
G75*
G02*
X139364385Y97739385I0J-250000D01*
G01*
G37*
X4994385Y14494385D03*
X18994385Y14494385D03*
X4994385Y9494385D03*
X18994385Y9494385D03*
G36*
G01*
X141744385Y92839385D02*
X141744385Y93789385D01*
G75*
G02*
X141994385Y94039385I250000J0D01*
G01*
X142494385Y94039385D01*
G75*
G02*
X142744385Y93789385I0J-250000D01*
G01*
X142744385Y92839385D01*
G75*
G02*
X142494385Y92589385I-250000J0D01*
G01*
X141994385Y92589385D01*
G75*
G02*
X141744385Y92839385I0J250000D01*
G01*
G37*
G36*
G01*
X143644385Y92839385D02*
X143644385Y93789385D01*
G75*
G02*
X143894385Y94039385I250000J0D01*
G01*
X144394385Y94039385D01*
G75*
G02*
X144644385Y93789385I0J-250000D01*
G01*
X144644385Y92839385D01*
G75*
G02*
X144394385Y92589385I-250000J0D01*
G01*
X143894385Y92589385D01*
G75*
G02*
X143644385Y92839385I0J250000D01*
G01*
G37*
G36*
G01*
X30069385Y64444385D02*
X30069385Y65344385D01*
G75*
G02*
X30319385Y65594385I250000J0D01*
G01*
X30844385Y65594385D01*
G75*
G02*
X31094385Y65344385I0J-250000D01*
G01*
X31094385Y64444385D01*
G75*
G02*
X30844385Y64194385I-250000J0D01*
G01*
X30319385Y64194385D01*
G75*
G02*
X30069385Y64444385I0J250000D01*
G01*
G37*
G36*
G01*
X31894385Y64444385D02*
X31894385Y65344385D01*
G75*
G02*
X32144385Y65594385I250000J0D01*
G01*
X32669385Y65594385D01*
G75*
G02*
X32919385Y65344385I0J-250000D01*
G01*
X32919385Y64444385D01*
G75*
G02*
X32669385Y64194385I-250000J0D01*
G01*
X32144385Y64194385D01*
G75*
G02*
X31894385Y64444385I0J250000D01*
G01*
G37*
G36*
G01*
X94569385Y84744385D02*
X95519385Y84744385D01*
G75*
G02*
X95769385Y84494385I0J-250000D01*
G01*
X95769385Y83994385D01*
G75*
G02*
X95519385Y83744385I-250000J0D01*
G01*
X94569385Y83744385D01*
G75*
G02*
X94319385Y83994385I0J250000D01*
G01*
X94319385Y84494385D01*
G75*
G02*
X94569385Y84744385I250000J0D01*
G01*
G37*
G36*
G01*
X94569385Y82844385D02*
X95519385Y82844385D01*
G75*
G02*
X95769385Y82594385I0J-250000D01*
G01*
X95769385Y82094385D01*
G75*
G02*
X95519385Y81844385I-250000J0D01*
G01*
X94569385Y81844385D01*
G75*
G02*
X94319385Y82094385I0J250000D01*
G01*
X94319385Y82594385D01*
G75*
G02*
X94569385Y82844385I250000J0D01*
G01*
G37*
G36*
G01*
X140214385Y82619385D02*
X141114385Y82619385D01*
G75*
G02*
X141364385Y82369385I0J-250000D01*
G01*
X141364385Y81844385D01*
G75*
G02*
X141114385Y81594385I-250000J0D01*
G01*
X140214385Y81594385D01*
G75*
G02*
X139964385Y81844385I0J250000D01*
G01*
X139964385Y82369385D01*
G75*
G02*
X140214385Y82619385I250000J0D01*
G01*
G37*
G36*
G01*
X140214385Y80794385D02*
X141114385Y80794385D01*
G75*
G02*
X141364385Y80544385I0J-250000D01*
G01*
X141364385Y80019385D01*
G75*
G02*
X141114385Y79769385I-250000J0D01*
G01*
X140214385Y79769385D01*
G75*
G02*
X139964385Y80019385I0J250000D01*
G01*
X139964385Y80544385D01*
G75*
G02*
X140214385Y80794385I250000J0D01*
G01*
G37*
D12*
X149994385Y107994385D03*
G36*
G01*
X32919385Y61450635D02*
X32919385Y60538135D01*
G75*
G02*
X32675635Y60294385I-243750J0D01*
G01*
X32188135Y60294385D01*
G75*
G02*
X31944385Y60538135I0J243750D01*
G01*
X31944385Y61450635D01*
G75*
G02*
X32188135Y61694385I243750J0D01*
G01*
X32675635Y61694385D01*
G75*
G02*
X32919385Y61450635I0J-243750D01*
G01*
G37*
G36*
G01*
X31044385Y61450635D02*
X31044385Y60538135D01*
G75*
G02*
X30800635Y60294385I-243750J0D01*
G01*
X30313135Y60294385D01*
G75*
G02*
X30069385Y60538135I0J243750D01*
G01*
X30069385Y61450635D01*
G75*
G02*
X30313135Y61694385I243750J0D01*
G01*
X30800635Y61694385D01*
G75*
G02*
X31044385Y61450635I0J-243750D01*
G01*
G37*
G36*
G01*
X85644385Y90969385D02*
X85644385Y90019385D01*
G75*
G02*
X85394385Y89769385I-250000J0D01*
G01*
X84894385Y89769385D01*
G75*
G02*
X84644385Y90019385I0J250000D01*
G01*
X84644385Y90969385D01*
G75*
G02*
X84894385Y91219385I250000J0D01*
G01*
X85394385Y91219385D01*
G75*
G02*
X85644385Y90969385I0J-250000D01*
G01*
G37*
G36*
G01*
X83744385Y90969385D02*
X83744385Y90019385D01*
G75*
G02*
X83494385Y89769385I-250000J0D01*
G01*
X82994385Y89769385D01*
G75*
G02*
X82744385Y90019385I0J250000D01*
G01*
X82744385Y90969385D01*
G75*
G02*
X82994385Y91219385I250000J0D01*
G01*
X83494385Y91219385D01*
G75*
G02*
X83744385Y90969385I0J-250000D01*
G01*
G37*
G36*
G01*
X60668135Y80579385D02*
X61180635Y80579385D01*
G75*
G02*
X61399385Y80360635I0J-218750D01*
G01*
X61399385Y79923135D01*
G75*
G02*
X61180635Y79704385I-218750J0D01*
G01*
X60668135Y79704385D01*
G75*
G02*
X60449385Y79923135I0J218750D01*
G01*
X60449385Y80360635D01*
G75*
G02*
X60668135Y80579385I218750J0D01*
G01*
G37*
G36*
G01*
X60668135Y79004385D02*
X61180635Y79004385D01*
G75*
G02*
X61399385Y78785635I0J-218750D01*
G01*
X61399385Y78348135D01*
G75*
G02*
X61180635Y78129385I-218750J0D01*
G01*
X60668135Y78129385D01*
G75*
G02*
X60449385Y78348135I0J218750D01*
G01*
X60449385Y78785635D01*
G75*
G02*
X60668135Y79004385I218750J0D01*
G01*
G37*
D11*
X136224385Y105054385D03*
G36*
G01*
X24244385Y84959385D02*
X25144385Y84959385D01*
G75*
G02*
X25394385Y84709385I0J-250000D01*
G01*
X25394385Y84184385D01*
G75*
G02*
X25144385Y83934385I-250000J0D01*
G01*
X24244385Y83934385D01*
G75*
G02*
X23994385Y84184385I0J250000D01*
G01*
X23994385Y84709385D01*
G75*
G02*
X24244385Y84959385I250000J0D01*
G01*
G37*
G36*
G01*
X24244385Y83134385D02*
X25144385Y83134385D01*
G75*
G02*
X25394385Y82884385I0J-250000D01*
G01*
X25394385Y82359385D01*
G75*
G02*
X25144385Y82109385I-250000J0D01*
G01*
X24244385Y82109385D01*
G75*
G02*
X23994385Y82359385I0J250000D01*
G01*
X23994385Y82884385D01*
G75*
G02*
X24244385Y83134385I250000J0D01*
G01*
G37*
D41*
X69804385Y77694385D03*
X70454385Y77694385D03*
X71104385Y77694385D03*
X71104385Y79594385D03*
X69804385Y79594385D03*
D11*
X117244385Y99494385D03*
D34*
X117244385Y94494385D03*
X117244385Y96994385D03*
D35*
X124744385Y102594385D03*
X124744385Y91394385D03*
D34*
X131744385Y94494385D03*
X131744385Y99494385D03*
D30*
X79994385Y14494385D03*
X93994385Y14494385D03*
X79994385Y9494385D03*
X93994385Y9494385D03*
D41*
X32044385Y68443785D03*
X31394385Y68443785D03*
X30744385Y68443785D03*
X30744385Y66543785D03*
X32044385Y66543785D03*
G36*
G01*
X90159385Y79644385D02*
X91109385Y79644385D01*
G75*
G02*
X91359385Y79394385I0J-250000D01*
G01*
X91359385Y78894385D01*
G75*
G02*
X91109385Y78644385I-250000J0D01*
G01*
X90159385Y78644385D01*
G75*
G02*
X89909385Y78894385I0J250000D01*
G01*
X89909385Y79394385D01*
G75*
G02*
X90159385Y79644385I250000J0D01*
G01*
G37*
G36*
G01*
X90159385Y77744385D02*
X91109385Y77744385D01*
G75*
G02*
X91359385Y77494385I0J-250000D01*
G01*
X91359385Y76994385D01*
G75*
G02*
X91109385Y76744385I-250000J0D01*
G01*
X90159385Y76744385D01*
G75*
G02*
X89909385Y76994385I0J250000D01*
G01*
X89909385Y77494385D01*
G75*
G02*
X90159385Y77744385I250000J0D01*
G01*
G37*
G36*
G01*
X100644385Y78019385D02*
X100644385Y78969385D01*
G75*
G02*
X100894385Y79219385I250000J0D01*
G01*
X101394385Y79219385D01*
G75*
G02*
X101644385Y78969385I0J-250000D01*
G01*
X101644385Y78019385D01*
G75*
G02*
X101394385Y77769385I-250000J0D01*
G01*
X100894385Y77769385D01*
G75*
G02*
X100644385Y78019385I0J250000D01*
G01*
G37*
G36*
G01*
X102544385Y78019385D02*
X102544385Y78969385D01*
G75*
G02*
X102794385Y79219385I250000J0D01*
G01*
X103294385Y79219385D01*
G75*
G02*
X103544385Y78969385I0J-250000D01*
G01*
X103544385Y78019385D01*
G75*
G02*
X103294385Y77769385I-250000J0D01*
G01*
X102794385Y77769385D01*
G75*
G02*
X102544385Y78019385I0J250000D01*
G01*
G37*
G36*
G01*
X143139385Y79724385D02*
X142189385Y79724385D01*
G75*
G02*
X141939385Y79974385I0J250000D01*
G01*
X141939385Y80474385D01*
G75*
G02*
X142189385Y80724385I250000J0D01*
G01*
X143139385Y80724385D01*
G75*
G02*
X143389385Y80474385I0J-250000D01*
G01*
X143389385Y79974385D01*
G75*
G02*
X143139385Y79724385I-250000J0D01*
G01*
G37*
G36*
G01*
X143139385Y81624385D02*
X142189385Y81624385D01*
G75*
G02*
X141939385Y81874385I0J250000D01*
G01*
X141939385Y82374385D01*
G75*
G02*
X142189385Y82624385I250000J0D01*
G01*
X143139385Y82624385D01*
G75*
G02*
X143389385Y82374385I0J-250000D01*
G01*
X143389385Y81874385D01*
G75*
G02*
X143139385Y81624385I-250000J0D01*
G01*
G37*
G36*
X63940697Y97708464D02*
G01*
X63208464Y98440697D01*
X63193585Y98476618D01*
X63193585Y99512152D01*
X63208464Y99548073D01*
X63940697Y100280306D01*
X63976618Y100295185D01*
X65012152Y100295185D01*
X65048073Y100280306D01*
X65780306Y99548073D01*
X65795185Y99512152D01*
X65795185Y98476618D01*
X65780306Y98440697D01*
X65048073Y97708464D01*
X65012152Y97693585D01*
X63976618Y97693585D01*
X63940697Y97708464D01*
G37*
G36*
X73280306Y98440697D02*
G01*
X72548073Y97708464D01*
X72512152Y97693585D01*
X71476618Y97693585D01*
X71440697Y97708464D01*
X70708464Y98440697D01*
X70693585Y98476618D01*
X70693585Y99512152D01*
X70708464Y99548073D01*
X71440697Y100280306D01*
X71476618Y100295185D01*
X72512152Y100295185D01*
X72548073Y100280306D01*
X73280306Y99548073D01*
X73295185Y99512152D01*
X73295185Y98476618D01*
X73280306Y98440697D01*
G37*
G36*
X78940697Y97708464D02*
G01*
X78208464Y98440697D01*
X78193585Y98476618D01*
X78193585Y99512152D01*
X78208464Y99548073D01*
X78940697Y100280306D01*
X78976618Y100295185D01*
X80012152Y100295185D01*
X80048073Y100280306D01*
X80780306Y99548073D01*
X80795185Y99512152D01*
X80795185Y98476618D01*
X80780306Y98440697D01*
X80048073Y97708464D01*
X80012152Y97693585D01*
X78976618Y97693585D01*
X78940697Y97708464D01*
G37*
G36*
X66440697Y95208464D02*
G01*
X65708464Y95940697D01*
X65693585Y95976618D01*
X65693585Y97012152D01*
X65708464Y97048073D01*
X66440697Y97780306D01*
X66476618Y97795185D01*
X67512152Y97795185D01*
X67548073Y97780306D01*
X68280306Y97048073D01*
X68295185Y97012152D01*
X68295185Y95976618D01*
X68280306Y95940697D01*
X67548073Y95208464D01*
X67512152Y95193585D01*
X66476618Y95193585D01*
X66440697Y95208464D01*
G37*
G36*
X76440697Y95208464D02*
G01*
X75708464Y95940697D01*
X75693585Y95976618D01*
X75693585Y97012152D01*
X75708464Y97048073D01*
X76440697Y97780306D01*
X76476618Y97795185D01*
X77512152Y97795185D01*
X77548073Y97780306D01*
X78280306Y97048073D01*
X78295185Y97012152D01*
X78295185Y95976618D01*
X78280306Y95940697D01*
X77548073Y95208464D01*
X77512152Y95193585D01*
X76476618Y95193585D01*
X76440697Y95208464D01*
G37*
G36*
X73558464Y107958464D02*
G01*
X73543585Y107994385D01*
X73543585Y109094385D01*
X73558464Y109130306D01*
X74458464Y110030306D01*
X74494385Y110045185D01*
X75394385Y110045185D01*
X75430306Y110030306D01*
X75445185Y109994385D01*
X75445185Y107994385D01*
X75430306Y107958464D01*
X75394385Y107943585D01*
X73594385Y107943585D01*
X73558464Y107958464D01*
G37*
G36*
G01*
X77945185Y109994385D02*
X77945185Y107994385D01*
G75*
G02*
X77894385Y107943585I-50800J0D01*
G01*
X76094385Y107943585D01*
G75*
G02*
X76043585Y107994385I0J50800D01*
G01*
X76043585Y109994385D01*
G75*
G02*
X76094385Y110045185I50800J0D01*
G01*
X77894385Y110045185D01*
G75*
G02*
X77945185Y109994385I0J-50800D01*
G01*
G37*
G36*
G01*
X67945185Y109994385D02*
X67945185Y107994385D01*
G75*
G02*
X67894385Y107943585I-50800J0D01*
G01*
X66094385Y107943585D01*
G75*
G02*
X66043585Y107994385I0J50800D01*
G01*
X66043585Y109994385D01*
G75*
G02*
X66094385Y110045185I50800J0D01*
G01*
X67894385Y110045185D01*
G75*
G02*
X67945185Y109994385I0J-50800D01*
G01*
G37*
G36*
X68558464Y107958464D02*
G01*
X68543585Y107994385D01*
X68543585Y109994385D01*
X68558464Y110030306D01*
X68594385Y110045185D01*
X69494385Y110045185D01*
X69530306Y110030306D01*
X70430306Y109130306D01*
X70445185Y109094385D01*
X70445185Y107994385D01*
X70430306Y107958464D01*
X70394385Y107943585D01*
X68594385Y107943585D01*
X68558464Y107958464D01*
G37*
D42*
X146894385Y82929385D03*
X146894385Y78779385D03*
G36*
G01*
X84174385Y88939385D02*
X84174385Y87989385D01*
G75*
G02*
X83924385Y87739385I-250000J0D01*
G01*
X83424385Y87739385D01*
G75*
G02*
X83174385Y87989385I0J250000D01*
G01*
X83174385Y88939385D01*
G75*
G02*
X83424385Y89189385I250000J0D01*
G01*
X83924385Y89189385D01*
G75*
G02*
X84174385Y88939385I0J-250000D01*
G01*
G37*
G36*
G01*
X82274385Y88939385D02*
X82274385Y87989385D01*
G75*
G02*
X82024385Y87739385I-250000J0D01*
G01*
X81524385Y87739385D01*
G75*
G02*
X81274385Y87989385I0J250000D01*
G01*
X81274385Y88939385D01*
G75*
G02*
X81524385Y89189385I250000J0D01*
G01*
X82024385Y89189385D01*
G75*
G02*
X82274385Y88939385I0J-250000D01*
G01*
G37*
G36*
G01*
X130864385Y73684385D02*
X125864385Y73684385D01*
G75*
G02*
X125614385Y73934385I0J250000D01*
G01*
X125614385Y74434385D01*
G75*
G02*
X125864385Y74684385I250000J0D01*
G01*
X130864385Y74684385D01*
G75*
G02*
X131114385Y74434385I0J-250000D01*
G01*
X131114385Y73934385D01*
G75*
G02*
X130864385Y73684385I-250000J0D01*
G01*
G37*
G36*
G01*
X130864385Y75684385D02*
X125864385Y75684385D01*
G75*
G02*
X125614385Y75934385I0J250000D01*
G01*
X125614385Y76434385D01*
G75*
G02*
X125864385Y76684385I250000J0D01*
G01*
X130864385Y76684385D01*
G75*
G02*
X131114385Y76434385I0J-250000D01*
G01*
X131114385Y75934385D01*
G75*
G02*
X130864385Y75684385I-250000J0D01*
G01*
G37*
G36*
G01*
X130864385Y77684385D02*
X125864385Y77684385D01*
G75*
G02*
X125614385Y77934385I0J250000D01*
G01*
X125614385Y78434385D01*
G75*
G02*
X125864385Y78684385I250000J0D01*
G01*
X130864385Y78684385D01*
G75*
G02*
X131114385Y78434385I0J-250000D01*
G01*
X131114385Y77934385D01*
G75*
G02*
X130864385Y77684385I-250000J0D01*
G01*
G37*
G36*
G01*
X130864385Y79684385D02*
X125864385Y79684385D01*
G75*
G02*
X125614385Y79934385I0J250000D01*
G01*
X125614385Y80434385D01*
G75*
G02*
X125864385Y80684385I250000J0D01*
G01*
X130864385Y80684385D01*
G75*
G02*
X131114385Y80434385I0J-250000D01*
G01*
X131114385Y79934385D01*
G75*
G02*
X130864385Y79684385I-250000J0D01*
G01*
G37*
G36*
G01*
X127364385Y70984385D02*
X124864385Y70984385D01*
G75*
G02*
X124614385Y71234385I0J250000D01*
G01*
X124614385Y72334385D01*
G75*
G02*
X124864385Y72584385I250000J0D01*
G01*
X127364385Y72584385D01*
G75*
G02*
X127614385Y72334385I0J-250000D01*
G01*
X127614385Y71234385D01*
G75*
G02*
X127364385Y70984385I-250000J0D01*
G01*
G37*
G36*
G01*
X127364385Y81784385D02*
X124864385Y81784385D01*
G75*
G02*
X124614385Y82034385I0J250000D01*
G01*
X124614385Y83134385D01*
G75*
G02*
X124864385Y83384385I250000J0D01*
G01*
X127364385Y83384385D01*
G75*
G02*
X127614385Y83134385I0J-250000D01*
G01*
X127614385Y82034385D01*
G75*
G02*
X127364385Y81784385I-250000J0D01*
G01*
G37*
G36*
G01*
X62128135Y80579385D02*
X62640635Y80579385D01*
G75*
G02*
X62859385Y80360635I0J-218750D01*
G01*
X62859385Y79923135D01*
G75*
G02*
X62640635Y79704385I-218750J0D01*
G01*
X62128135Y79704385D01*
G75*
G02*
X61909385Y79923135I0J218750D01*
G01*
X61909385Y80360635D01*
G75*
G02*
X62128135Y80579385I218750J0D01*
G01*
G37*
G36*
G01*
X62128135Y79004385D02*
X62640635Y79004385D01*
G75*
G02*
X62859385Y78785635I0J-218750D01*
G01*
X62859385Y78348135D01*
G75*
G02*
X62640635Y78129385I-218750J0D01*
G01*
X62128135Y78129385D01*
G75*
G02*
X61909385Y78348135I0J218750D01*
G01*
X61909385Y78785635D01*
G75*
G02*
X62128135Y79004385I218750J0D01*
G01*
G37*
D14*
X76988885Y101494385D03*
X74488885Y101494385D03*
D15*
X71988885Y106494385D03*
D14*
X66988885Y101494385D03*
X69488885Y101494385D03*
D43*
X11994385Y11994385D03*
X86994385Y63994385D03*
X11994385Y63994385D03*
X161994385Y63994385D03*
X86994385Y11994385D03*
G36*
G01*
X54354385Y106879385D02*
X54354385Y108129385D01*
G75*
G02*
X54604385Y108379385I250000J0D01*
G01*
X55304385Y108379385D01*
G75*
G02*
X55554385Y108129385I0J-250000D01*
G01*
X55554385Y106879385D01*
G75*
G02*
X55304385Y106629385I-250000J0D01*
G01*
X54604385Y106629385D01*
G75*
G02*
X54354385Y106879385I0J250000D01*
G01*
G37*
D44*
X56954385Y107504385D03*
X58954385Y107504385D03*
G36*
G01*
X29354385Y3789385D02*
X29354385Y2539385D01*
G75*
G02*
X29104385Y2289385I-250000J0D01*
G01*
X28404385Y2289385D01*
G75*
G02*
X28154385Y2539385I0J250000D01*
G01*
X28154385Y3789385D01*
G75*
G02*
X28404385Y4039385I250000J0D01*
G01*
X29104385Y4039385D01*
G75*
G02*
X29354385Y3789385I0J-250000D01*
G01*
G37*
X26754385Y3164385D03*
X24754385Y3164385D03*
D43*
X161994385Y11994385D03*
D27*
X102244385Y62618785D03*
D28*
X99704385Y62618785D03*
X102244385Y60078785D03*
X99704385Y60078785D03*
X102244385Y57538785D03*
X99704385Y57538785D03*
X102244385Y54998785D03*
X99704385Y54998785D03*
X102244385Y52458785D03*
X99704385Y52458785D03*
X102244385Y49918785D03*
X99704385Y49918785D03*
X102244385Y47378785D03*
X99704385Y47378785D03*
X102244385Y44838785D03*
X99704385Y44838785D03*
X102244385Y42298785D03*
X99704385Y42298785D03*
X102244385Y39758785D03*
X99704385Y39758785D03*
X102244385Y37218785D03*
X99704385Y37218785D03*
X102244385Y34678785D03*
X99704385Y34678785D03*
X102244385Y32138785D03*
X99704385Y32138785D03*
X102244385Y29598785D03*
X99704385Y29598785D03*
X102244385Y27058785D03*
X99704385Y27058785D03*
X102244385Y24518785D03*
X99704385Y24518785D03*
X102244385Y21978785D03*
X99704385Y21978785D03*
X102244385Y19438785D03*
X99704385Y19438785D03*
X102244385Y16898785D03*
X99704385Y16898785D03*
X102244385Y14358785D03*
X99704385Y14358785D03*
D27*
X138549385Y56148785D03*
D28*
X136009385Y56148785D03*
X138549385Y53608785D03*
X136009385Y53608785D03*
X138549385Y51068785D03*
X136009385Y51068785D03*
D27*
X134374385Y11843785D03*
D28*
X134374385Y9303785D03*
X136914385Y11843785D03*
X136914385Y9303785D03*
X139454385Y11843785D03*
X139454385Y9303785D03*
G36*
G01*
X45424385Y106869385D02*
X45424385Y108119385D01*
G75*
G02*
X45674385Y108369385I250000J0D01*
G01*
X46374385Y108369385D01*
G75*
G02*
X46624385Y108119385I0J-250000D01*
G01*
X46624385Y106869385D01*
G75*
G02*
X46374385Y106619385I-250000J0D01*
G01*
X45674385Y106619385D01*
G75*
G02*
X45424385Y106869385I0J250000D01*
G01*
G37*
D44*
X48024385Y107494385D03*
X50024385Y107494385D03*
M02*
