G04 #@! TF.GenerationSoftware,KiCad,Pcbnew,7.0.7-7.0.7~ubuntu23.04.1*
G04 #@! TF.CreationDate,2023-10-13T09:25:39+00:00*
G04 #@! TF.ProjectId,pedalboard-hw,70656461-6c62-46f6-9172-642d68772e6b,3.0.0-RC1*
G04 #@! TF.SameCoordinates,Original*
G04 #@! TF.FileFunction,Legend,Bot*
G04 #@! TF.FilePolarity,Positive*
%FSLAX46Y46*%
G04 Gerber Fmt 4.6, Leading zero omitted, Abs format (unit mm)*
G04 Created by KiCad (PCBNEW 7.0.7-7.0.7~ubuntu23.04.1) date 2023-10-13 09:25:39*
%MOMM*%
%LPD*%
G01*
G04 APERTURE LIST*
%ADD10C,0.150000*%
%ADD11C,0.120000*%
%ADD12C,0.100000*%
G04 APERTURE END LIST*
D10*
X25076946Y8854974D02*
X25124565Y8759736D01*
X25124565Y8759736D02*
X25124565Y8616879D01*
X25124565Y8616879D02*
X25076946Y8474022D01*
X25076946Y8474022D02*
X24981708Y8378784D01*
X24981708Y8378784D02*
X24886470Y8331165D01*
X24886470Y8331165D02*
X24695994Y8283546D01*
X24695994Y8283546D02*
X24553137Y8283546D01*
X24553137Y8283546D02*
X24362661Y8331165D01*
X24362661Y8331165D02*
X24267423Y8378784D01*
X24267423Y8378784D02*
X24172185Y8474022D01*
X24172185Y8474022D02*
X24124565Y8616879D01*
X24124565Y8616879D02*
X24124565Y8712117D01*
X24124565Y8712117D02*
X24172185Y8854974D01*
X24172185Y8854974D02*
X24219804Y8902593D01*
X24219804Y8902593D02*
X24553137Y8902593D01*
X24553137Y8902593D02*
X24553137Y8712117D01*
X24124565Y9331165D02*
X25124565Y9331165D01*
X25124565Y9331165D02*
X24124565Y9902593D01*
X24124565Y9902593D02*
X25124565Y9902593D01*
X24124565Y10378784D02*
X25124565Y10378784D01*
X25124565Y10378784D02*
X25124565Y10616879D01*
X25124565Y10616879D02*
X25076946Y10759736D01*
X25076946Y10759736D02*
X24981708Y10854974D01*
X24981708Y10854974D02*
X24886470Y10902593D01*
X24886470Y10902593D02*
X24695994Y10950212D01*
X24695994Y10950212D02*
X24553137Y10950212D01*
X24553137Y10950212D02*
X24362661Y10902593D01*
X24362661Y10902593D02*
X24267423Y10854974D01*
X24267423Y10854974D02*
X24172185Y10759736D01*
X24172185Y10759736D02*
X24124565Y10616879D01*
X24124565Y10616879D02*
X24124565Y10378784D01*
X22007365Y8331165D02*
X23007365Y8331165D01*
X23007365Y8331165D02*
X23007365Y8569260D01*
X23007365Y8569260D02*
X22959746Y8712117D01*
X22959746Y8712117D02*
X22864508Y8807355D01*
X22864508Y8807355D02*
X22769270Y8854974D01*
X22769270Y8854974D02*
X22578794Y8902593D01*
X22578794Y8902593D02*
X22435937Y8902593D01*
X22435937Y8902593D02*
X22245461Y8854974D01*
X22245461Y8854974D02*
X22150223Y8807355D01*
X22150223Y8807355D02*
X22054985Y8712117D01*
X22054985Y8712117D02*
X22007365Y8569260D01*
X22007365Y8569260D02*
X22007365Y8331165D01*
X22007365Y9759736D02*
X22531175Y9759736D01*
X22531175Y9759736D02*
X22626413Y9712117D01*
X22626413Y9712117D02*
X22674032Y9616879D01*
X22674032Y9616879D02*
X22674032Y9426403D01*
X22674032Y9426403D02*
X22626413Y9331165D01*
X22054985Y9759736D02*
X22007365Y9664498D01*
X22007365Y9664498D02*
X22007365Y9426403D01*
X22007365Y9426403D02*
X22054985Y9331165D01*
X22054985Y9331165D02*
X22150223Y9283546D01*
X22150223Y9283546D02*
X22245461Y9283546D01*
X22245461Y9283546D02*
X22340699Y9331165D01*
X22340699Y9331165D02*
X22388318Y9426403D01*
X22388318Y9426403D02*
X22388318Y9664498D01*
X22388318Y9664498D02*
X22435937Y9759736D01*
X22674032Y10093070D02*
X22674032Y10474022D01*
X23007365Y10235927D02*
X22150223Y10235927D01*
X22150223Y10235927D02*
X22054985Y10283546D01*
X22054985Y10283546D02*
X22007365Y10378784D01*
X22007365Y10378784D02*
X22007365Y10474022D01*
X22007365Y11235927D02*
X22531175Y11235927D01*
X22531175Y11235927D02*
X22626413Y11188308D01*
X22626413Y11188308D02*
X22674032Y11093070D01*
X22674032Y11093070D02*
X22674032Y10902594D01*
X22674032Y10902594D02*
X22626413Y10807356D01*
X22054985Y11235927D02*
X22007365Y11140689D01*
X22007365Y11140689D02*
X22007365Y10902594D01*
X22007365Y10902594D02*
X22054985Y10807356D01*
X22054985Y10807356D02*
X22150223Y10759737D01*
X22150223Y10759737D02*
X22245461Y10759737D01*
X22245461Y10759737D02*
X22340699Y10807356D01*
X22340699Y10807356D02*
X22388318Y10902594D01*
X22388318Y10902594D02*
X22388318Y11140689D01*
X22388318Y11140689D02*
X22435937Y11235927D01*
X22007365Y12616880D02*
X22054985Y12521642D01*
X22054985Y12521642D02*
X22102604Y12474023D01*
X22102604Y12474023D02*
X22197842Y12426404D01*
X22197842Y12426404D02*
X22483556Y12426404D01*
X22483556Y12426404D02*
X22578794Y12474023D01*
X22578794Y12474023D02*
X22626413Y12521642D01*
X22626413Y12521642D02*
X22674032Y12616880D01*
X22674032Y12616880D02*
X22674032Y12759737D01*
X22674032Y12759737D02*
X22626413Y12854975D01*
X22626413Y12854975D02*
X22578794Y12902594D01*
X22578794Y12902594D02*
X22483556Y12950213D01*
X22483556Y12950213D02*
X22197842Y12950213D01*
X22197842Y12950213D02*
X22102604Y12902594D01*
X22102604Y12902594D02*
X22054985Y12854975D01*
X22054985Y12854975D02*
X22007365Y12759737D01*
X22007365Y12759737D02*
X22007365Y12616880D01*
X22674032Y13807356D02*
X22007365Y13807356D01*
X22674032Y13378785D02*
X22150223Y13378785D01*
X22150223Y13378785D02*
X22054985Y13426404D01*
X22054985Y13426404D02*
X22007365Y13521642D01*
X22007365Y13521642D02*
X22007365Y13664499D01*
X22007365Y13664499D02*
X22054985Y13759737D01*
X22054985Y13759737D02*
X22102604Y13807356D01*
X22674032Y14140690D02*
X22674032Y14521642D01*
X23007365Y14283547D02*
X22150223Y14283547D01*
X22150223Y14283547D02*
X22054985Y14331166D01*
X22054985Y14331166D02*
X22007365Y14426404D01*
X22007365Y14426404D02*
X22007365Y14521642D01*
X36657605Y102124566D02*
X36657605Y103124566D01*
X36181415Y102124566D02*
X36181415Y103124566D01*
X36181415Y103124566D02*
X35609987Y102124566D01*
X35609987Y102124566D02*
X35609987Y103124566D01*
X170141823Y93557797D02*
X170094204Y93653035D01*
X170094204Y93653035D02*
X170094204Y93795892D01*
X170094204Y93795892D02*
X170141823Y93938749D01*
X170141823Y93938749D02*
X170237061Y94033987D01*
X170237061Y94033987D02*
X170332299Y94081606D01*
X170332299Y94081606D02*
X170522775Y94129225D01*
X170522775Y94129225D02*
X170665632Y94129225D01*
X170665632Y94129225D02*
X170856108Y94081606D01*
X170856108Y94081606D02*
X170951346Y94033987D01*
X170951346Y94033987D02*
X171046585Y93938749D01*
X171046585Y93938749D02*
X171094204Y93795892D01*
X171094204Y93795892D02*
X171094204Y93700654D01*
X171094204Y93700654D02*
X171046585Y93557797D01*
X171046585Y93557797D02*
X170998965Y93510178D01*
X170998965Y93510178D02*
X170665632Y93510178D01*
X170665632Y93510178D02*
X170665632Y93700654D01*
X171094204Y93081606D02*
X170094204Y93081606D01*
X170094204Y93081606D02*
X171094204Y92510178D01*
X171094204Y92510178D02*
X170094204Y92510178D01*
X171094204Y92033987D02*
X170094204Y92033987D01*
X170094204Y92033987D02*
X170094204Y91795892D01*
X170094204Y91795892D02*
X170141823Y91653035D01*
X170141823Y91653035D02*
X170237061Y91557797D01*
X170237061Y91557797D02*
X170332299Y91510178D01*
X170332299Y91510178D02*
X170522775Y91462559D01*
X170522775Y91462559D02*
X170665632Y91462559D01*
X170665632Y91462559D02*
X170856108Y91510178D01*
X170856108Y91510178D02*
X170951346Y91557797D01*
X170951346Y91557797D02*
X171046585Y91653035D01*
X171046585Y91653035D02*
X171094204Y91795892D01*
X171094204Y91795892D02*
X171094204Y92033987D01*
X123981415Y77224566D02*
X124457605Y77224566D01*
X124457605Y77224566D02*
X124505224Y76748376D01*
X124505224Y76748376D02*
X124457605Y76795995D01*
X124457605Y76795995D02*
X124362367Y76843614D01*
X124362367Y76843614D02*
X124124272Y76843614D01*
X124124272Y76843614D02*
X124029034Y76795995D01*
X124029034Y76795995D02*
X123981415Y76748376D01*
X123981415Y76748376D02*
X123933796Y76653138D01*
X123933796Y76653138D02*
X123933796Y76415043D01*
X123933796Y76415043D02*
X123981415Y76319805D01*
X123981415Y76319805D02*
X124029034Y76272185D01*
X124029034Y76272185D02*
X124124272Y76224566D01*
X124124272Y76224566D02*
X124362367Y76224566D01*
X124362367Y76224566D02*
X124457605Y76272185D01*
X124457605Y76272185D02*
X124505224Y76319805D01*
X123648081Y77224566D02*
X123314748Y76224566D01*
X123314748Y76224566D02*
X122981415Y77224566D01*
X121886176Y76224566D02*
X121886176Y77224566D01*
X121886176Y77224566D02*
X121505224Y77224566D01*
X121505224Y77224566D02*
X121409986Y77176947D01*
X121409986Y77176947D02*
X121362367Y77129328D01*
X121362367Y77129328D02*
X121314748Y77034090D01*
X121314748Y77034090D02*
X121314748Y76891233D01*
X121314748Y76891233D02*
X121362367Y76795995D01*
X121362367Y76795995D02*
X121409986Y76748376D01*
X121409986Y76748376D02*
X121505224Y76700757D01*
X121505224Y76700757D02*
X121886176Y76700757D01*
X120933795Y76272185D02*
X120790938Y76224566D01*
X120790938Y76224566D02*
X120552843Y76224566D01*
X120552843Y76224566D02*
X120457605Y76272185D01*
X120457605Y76272185D02*
X120409986Y76319805D01*
X120409986Y76319805D02*
X120362367Y76415043D01*
X120362367Y76415043D02*
X120362367Y76510281D01*
X120362367Y76510281D02*
X120409986Y76605519D01*
X120409986Y76605519D02*
X120457605Y76653138D01*
X120457605Y76653138D02*
X120552843Y76700757D01*
X120552843Y76700757D02*
X120743319Y76748376D01*
X120743319Y76748376D02*
X120838557Y76795995D01*
X120838557Y76795995D02*
X120886176Y76843614D01*
X120886176Y76843614D02*
X120933795Y76938852D01*
X120933795Y76938852D02*
X120933795Y77034090D01*
X120933795Y77034090D02*
X120886176Y77129328D01*
X120886176Y77129328D02*
X120838557Y77176947D01*
X120838557Y77176947D02*
X120743319Y77224566D01*
X120743319Y77224566D02*
X120505224Y77224566D01*
X120505224Y77224566D02*
X120362367Y77176947D01*
X119933795Y77224566D02*
X119933795Y76415043D01*
X119933795Y76415043D02*
X119886176Y76319805D01*
X119886176Y76319805D02*
X119838557Y76272185D01*
X119838557Y76272185D02*
X119743319Y76224566D01*
X119743319Y76224566D02*
X119552843Y76224566D01*
X119552843Y76224566D02*
X119457605Y76272185D01*
X119457605Y76272185D02*
X119409986Y76319805D01*
X119409986Y76319805D02*
X119362367Y76415043D01*
X119362367Y76415043D02*
X119362367Y77224566D01*
X64567129Y53594566D02*
X64376653Y53594566D01*
X64376653Y53594566D02*
X64281415Y53546947D01*
X64281415Y53546947D02*
X64186177Y53451709D01*
X64186177Y53451709D02*
X64138558Y53261233D01*
X64138558Y53261233D02*
X64138558Y52927900D01*
X64138558Y52927900D02*
X64186177Y52737424D01*
X64186177Y52737424D02*
X64281415Y52642185D01*
X64281415Y52642185D02*
X64376653Y52594566D01*
X64376653Y52594566D02*
X64567129Y52594566D01*
X64567129Y52594566D02*
X64662367Y52642185D01*
X64662367Y52642185D02*
X64757605Y52737424D01*
X64757605Y52737424D02*
X64805224Y52927900D01*
X64805224Y52927900D02*
X64805224Y53261233D01*
X64805224Y53261233D02*
X64757605Y53451709D01*
X64757605Y53451709D02*
X64662367Y53546947D01*
X64662367Y53546947D02*
X64567129Y53594566D01*
X63709986Y53261233D02*
X63709986Y52261233D01*
X63709986Y53213614D02*
X63614748Y53261233D01*
X63614748Y53261233D02*
X63424272Y53261233D01*
X63424272Y53261233D02*
X63329034Y53213614D01*
X63329034Y53213614D02*
X63281415Y53165995D01*
X63281415Y53165995D02*
X63233796Y53070757D01*
X63233796Y53070757D02*
X63233796Y52785043D01*
X63233796Y52785043D02*
X63281415Y52689805D01*
X63281415Y52689805D02*
X63329034Y52642185D01*
X63329034Y52642185D02*
X63424272Y52594566D01*
X63424272Y52594566D02*
X63614748Y52594566D01*
X63614748Y52594566D02*
X63709986Y52642185D01*
X62424272Y52642185D02*
X62519510Y52594566D01*
X62519510Y52594566D02*
X62709986Y52594566D01*
X62709986Y52594566D02*
X62805224Y52642185D01*
X62805224Y52642185D02*
X62852843Y52737424D01*
X62852843Y52737424D02*
X62852843Y53118376D01*
X62852843Y53118376D02*
X62805224Y53213614D01*
X62805224Y53213614D02*
X62709986Y53261233D01*
X62709986Y53261233D02*
X62519510Y53261233D01*
X62519510Y53261233D02*
X62424272Y53213614D01*
X62424272Y53213614D02*
X62376653Y53118376D01*
X62376653Y53118376D02*
X62376653Y53023138D01*
X62376653Y53023138D02*
X62852843Y52927900D01*
X61948081Y53261233D02*
X61948081Y52594566D01*
X61948081Y53165995D02*
X61900462Y53213614D01*
X61900462Y53213614D02*
X61805224Y53261233D01*
X61805224Y53261233D02*
X61662367Y53261233D01*
X61662367Y53261233D02*
X61567129Y53213614D01*
X61567129Y53213614D02*
X61519510Y53118376D01*
X61519510Y53118376D02*
X61519510Y52594566D01*
X60281414Y52594566D02*
X60281414Y53594566D01*
X60281414Y53594566D02*
X59900462Y53594566D01*
X59900462Y53594566D02*
X59805224Y53546947D01*
X59805224Y53546947D02*
X59757605Y53499328D01*
X59757605Y53499328D02*
X59709986Y53404090D01*
X59709986Y53404090D02*
X59709986Y53261233D01*
X59709986Y53261233D02*
X59757605Y53165995D01*
X59757605Y53165995D02*
X59805224Y53118376D01*
X59805224Y53118376D02*
X59900462Y53070757D01*
X59900462Y53070757D02*
X60281414Y53070757D01*
X58900462Y52642185D02*
X58995700Y52594566D01*
X58995700Y52594566D02*
X59186176Y52594566D01*
X59186176Y52594566D02*
X59281414Y52642185D01*
X59281414Y52642185D02*
X59329033Y52737424D01*
X59329033Y52737424D02*
X59329033Y53118376D01*
X59329033Y53118376D02*
X59281414Y53213614D01*
X59281414Y53213614D02*
X59186176Y53261233D01*
X59186176Y53261233D02*
X58995700Y53261233D01*
X58995700Y53261233D02*
X58900462Y53213614D01*
X58900462Y53213614D02*
X58852843Y53118376D01*
X58852843Y53118376D02*
X58852843Y53023138D01*
X58852843Y53023138D02*
X59329033Y52927900D01*
X57995700Y52594566D02*
X57995700Y53594566D01*
X57995700Y52642185D02*
X58090938Y52594566D01*
X58090938Y52594566D02*
X58281414Y52594566D01*
X58281414Y52594566D02*
X58376652Y52642185D01*
X58376652Y52642185D02*
X58424271Y52689805D01*
X58424271Y52689805D02*
X58471890Y52785043D01*
X58471890Y52785043D02*
X58471890Y53070757D01*
X58471890Y53070757D02*
X58424271Y53165995D01*
X58424271Y53165995D02*
X58376652Y53213614D01*
X58376652Y53213614D02*
X58281414Y53261233D01*
X58281414Y53261233D02*
X58090938Y53261233D01*
X58090938Y53261233D02*
X57995700Y53213614D01*
X57090938Y52594566D02*
X57090938Y53118376D01*
X57090938Y53118376D02*
X57138557Y53213614D01*
X57138557Y53213614D02*
X57233795Y53261233D01*
X57233795Y53261233D02*
X57424271Y53261233D01*
X57424271Y53261233D02*
X57519509Y53213614D01*
X57090938Y52642185D02*
X57186176Y52594566D01*
X57186176Y52594566D02*
X57424271Y52594566D01*
X57424271Y52594566D02*
X57519509Y52642185D01*
X57519509Y52642185D02*
X57567128Y52737424D01*
X57567128Y52737424D02*
X57567128Y52832662D01*
X57567128Y52832662D02*
X57519509Y52927900D01*
X57519509Y52927900D02*
X57424271Y52975519D01*
X57424271Y52975519D02*
X57186176Y52975519D01*
X57186176Y52975519D02*
X57090938Y53023138D01*
X56471890Y52594566D02*
X56567128Y52642185D01*
X56567128Y52642185D02*
X56614747Y52737424D01*
X56614747Y52737424D02*
X56614747Y53594566D01*
X56090937Y52594566D02*
X56090937Y53594566D01*
X56090937Y53213614D02*
X55995699Y53261233D01*
X55995699Y53261233D02*
X55805223Y53261233D01*
X55805223Y53261233D02*
X55709985Y53213614D01*
X55709985Y53213614D02*
X55662366Y53165995D01*
X55662366Y53165995D02*
X55614747Y53070757D01*
X55614747Y53070757D02*
X55614747Y52785043D01*
X55614747Y52785043D02*
X55662366Y52689805D01*
X55662366Y52689805D02*
X55709985Y52642185D01*
X55709985Y52642185D02*
X55805223Y52594566D01*
X55805223Y52594566D02*
X55995699Y52594566D01*
X55995699Y52594566D02*
X56090937Y52642185D01*
X55043318Y52594566D02*
X55138556Y52642185D01*
X55138556Y52642185D02*
X55186175Y52689805D01*
X55186175Y52689805D02*
X55233794Y52785043D01*
X55233794Y52785043D02*
X55233794Y53070757D01*
X55233794Y53070757D02*
X55186175Y53165995D01*
X55186175Y53165995D02*
X55138556Y53213614D01*
X55138556Y53213614D02*
X55043318Y53261233D01*
X55043318Y53261233D02*
X54900461Y53261233D01*
X54900461Y53261233D02*
X54805223Y53213614D01*
X54805223Y53213614D02*
X54757604Y53165995D01*
X54757604Y53165995D02*
X54709985Y53070757D01*
X54709985Y53070757D02*
X54709985Y52785043D01*
X54709985Y52785043D02*
X54757604Y52689805D01*
X54757604Y52689805D02*
X54805223Y52642185D01*
X54805223Y52642185D02*
X54900461Y52594566D01*
X54900461Y52594566D02*
X55043318Y52594566D01*
X53852842Y52594566D02*
X53852842Y53118376D01*
X53852842Y53118376D02*
X53900461Y53213614D01*
X53900461Y53213614D02*
X53995699Y53261233D01*
X53995699Y53261233D02*
X54186175Y53261233D01*
X54186175Y53261233D02*
X54281413Y53213614D01*
X53852842Y52642185D02*
X53948080Y52594566D01*
X53948080Y52594566D02*
X54186175Y52594566D01*
X54186175Y52594566D02*
X54281413Y52642185D01*
X54281413Y52642185D02*
X54329032Y52737424D01*
X54329032Y52737424D02*
X54329032Y52832662D01*
X54329032Y52832662D02*
X54281413Y52927900D01*
X54281413Y52927900D02*
X54186175Y52975519D01*
X54186175Y52975519D02*
X53948080Y52975519D01*
X53948080Y52975519D02*
X53852842Y53023138D01*
X53376651Y52594566D02*
X53376651Y53261233D01*
X53376651Y53070757D02*
X53329032Y53165995D01*
X53329032Y53165995D02*
X53281413Y53213614D01*
X53281413Y53213614D02*
X53186175Y53261233D01*
X53186175Y53261233D02*
X53090937Y53261233D01*
X52329032Y52594566D02*
X52329032Y53594566D01*
X52329032Y52642185D02*
X52424270Y52594566D01*
X52424270Y52594566D02*
X52614746Y52594566D01*
X52614746Y52594566D02*
X52709984Y52642185D01*
X52709984Y52642185D02*
X52757603Y52689805D01*
X52757603Y52689805D02*
X52805222Y52785043D01*
X52805222Y52785043D02*
X52805222Y53070757D01*
X52805222Y53070757D02*
X52757603Y53165995D01*
X52757603Y53165995D02*
X52709984Y53213614D01*
X52709984Y53213614D02*
X52614746Y53261233D01*
X52614746Y53261233D02*
X52424270Y53261233D01*
X52424270Y53261233D02*
X52329032Y53213614D01*
X64757605Y50984566D02*
X64757605Y51984566D01*
X64329034Y50984566D02*
X64329034Y51508376D01*
X64329034Y51508376D02*
X64376653Y51603614D01*
X64376653Y51603614D02*
X64471891Y51651233D01*
X64471891Y51651233D02*
X64614748Y51651233D01*
X64614748Y51651233D02*
X64709986Y51603614D01*
X64709986Y51603614D02*
X64757605Y51555995D01*
X63995700Y51651233D02*
X63614748Y51651233D01*
X63852843Y51984566D02*
X63852843Y51127424D01*
X63852843Y51127424D02*
X63805224Y51032185D01*
X63805224Y51032185D02*
X63709986Y50984566D01*
X63709986Y50984566D02*
X63614748Y50984566D01*
X63424271Y51651233D02*
X63043319Y51651233D01*
X63281414Y51984566D02*
X63281414Y51127424D01*
X63281414Y51127424D02*
X63233795Y51032185D01*
X63233795Y51032185D02*
X63138557Y50984566D01*
X63138557Y50984566D02*
X63043319Y50984566D01*
X62709985Y51651233D02*
X62709985Y50651233D01*
X62709985Y51603614D02*
X62614747Y51651233D01*
X62614747Y51651233D02*
X62424271Y51651233D01*
X62424271Y51651233D02*
X62329033Y51603614D01*
X62329033Y51603614D02*
X62281414Y51555995D01*
X62281414Y51555995D02*
X62233795Y51460757D01*
X62233795Y51460757D02*
X62233795Y51175043D01*
X62233795Y51175043D02*
X62281414Y51079805D01*
X62281414Y51079805D02*
X62329033Y51032185D01*
X62329033Y51032185D02*
X62424271Y50984566D01*
X62424271Y50984566D02*
X62614747Y50984566D01*
X62614747Y50984566D02*
X62709985Y51032185D01*
X61852842Y51032185D02*
X61757604Y50984566D01*
X61757604Y50984566D02*
X61567128Y50984566D01*
X61567128Y50984566D02*
X61471890Y51032185D01*
X61471890Y51032185D02*
X61424271Y51127424D01*
X61424271Y51127424D02*
X61424271Y51175043D01*
X61424271Y51175043D02*
X61471890Y51270281D01*
X61471890Y51270281D02*
X61567128Y51317900D01*
X61567128Y51317900D02*
X61709985Y51317900D01*
X61709985Y51317900D02*
X61805223Y51365519D01*
X61805223Y51365519D02*
X61852842Y51460757D01*
X61852842Y51460757D02*
X61852842Y51508376D01*
X61852842Y51508376D02*
X61805223Y51603614D01*
X61805223Y51603614D02*
X61709985Y51651233D01*
X61709985Y51651233D02*
X61567128Y51651233D01*
X61567128Y51651233D02*
X61471890Y51603614D01*
X60995699Y51079805D02*
X60948080Y51032185D01*
X60948080Y51032185D02*
X60995699Y50984566D01*
X60995699Y50984566D02*
X61043318Y51032185D01*
X61043318Y51032185D02*
X60995699Y51079805D01*
X60995699Y51079805D02*
X60995699Y50984566D01*
X60995699Y51603614D02*
X60948080Y51555995D01*
X60948080Y51555995D02*
X60995699Y51508376D01*
X60995699Y51508376D02*
X61043318Y51555995D01*
X61043318Y51555995D02*
X60995699Y51603614D01*
X60995699Y51603614D02*
X60995699Y51508376D01*
X59805224Y52032185D02*
X60662366Y50746471D01*
X58757605Y52032185D02*
X59614747Y50746471D01*
X57995700Y51651233D02*
X57995700Y50841709D01*
X57995700Y50841709D02*
X58043319Y50746471D01*
X58043319Y50746471D02*
X58090938Y50698852D01*
X58090938Y50698852D02*
X58186176Y50651233D01*
X58186176Y50651233D02*
X58329033Y50651233D01*
X58329033Y50651233D02*
X58424271Y50698852D01*
X57995700Y51032185D02*
X58090938Y50984566D01*
X58090938Y50984566D02*
X58281414Y50984566D01*
X58281414Y50984566D02*
X58376652Y51032185D01*
X58376652Y51032185D02*
X58424271Y51079805D01*
X58424271Y51079805D02*
X58471890Y51175043D01*
X58471890Y51175043D02*
X58471890Y51460757D01*
X58471890Y51460757D02*
X58424271Y51555995D01*
X58424271Y51555995D02*
X58376652Y51603614D01*
X58376652Y51603614D02*
X58281414Y51651233D01*
X58281414Y51651233D02*
X58090938Y51651233D01*
X58090938Y51651233D02*
X57995700Y51603614D01*
X57519509Y50984566D02*
X57519509Y51651233D01*
X57519509Y51984566D02*
X57567128Y51936947D01*
X57567128Y51936947D02*
X57519509Y51889328D01*
X57519509Y51889328D02*
X57471890Y51936947D01*
X57471890Y51936947D02*
X57519509Y51984566D01*
X57519509Y51984566D02*
X57519509Y51889328D01*
X57186176Y51651233D02*
X56805224Y51651233D01*
X57043319Y51984566D02*
X57043319Y51127424D01*
X57043319Y51127424D02*
X56995700Y51032185D01*
X56995700Y51032185D02*
X56900462Y50984566D01*
X56900462Y50984566D02*
X56805224Y50984566D01*
X56471890Y50984566D02*
X56471890Y51984566D01*
X56043319Y50984566D02*
X56043319Y51508376D01*
X56043319Y51508376D02*
X56090938Y51603614D01*
X56090938Y51603614D02*
X56186176Y51651233D01*
X56186176Y51651233D02*
X56329033Y51651233D01*
X56329033Y51651233D02*
X56424271Y51603614D01*
X56424271Y51603614D02*
X56471890Y51555995D01*
X55138557Y51651233D02*
X55138557Y50984566D01*
X55567128Y51651233D02*
X55567128Y51127424D01*
X55567128Y51127424D02*
X55519509Y51032185D01*
X55519509Y51032185D02*
X55424271Y50984566D01*
X55424271Y50984566D02*
X55281414Y50984566D01*
X55281414Y50984566D02*
X55186176Y51032185D01*
X55186176Y51032185D02*
X55138557Y51079805D01*
X54662366Y50984566D02*
X54662366Y51984566D01*
X54662366Y51603614D02*
X54567128Y51651233D01*
X54567128Y51651233D02*
X54376652Y51651233D01*
X54376652Y51651233D02*
X54281414Y51603614D01*
X54281414Y51603614D02*
X54233795Y51555995D01*
X54233795Y51555995D02*
X54186176Y51460757D01*
X54186176Y51460757D02*
X54186176Y51175043D01*
X54186176Y51175043D02*
X54233795Y51079805D01*
X54233795Y51079805D02*
X54281414Y51032185D01*
X54281414Y51032185D02*
X54376652Y50984566D01*
X54376652Y50984566D02*
X54567128Y50984566D01*
X54567128Y50984566D02*
X54662366Y51032185D01*
X53757604Y51079805D02*
X53709985Y51032185D01*
X53709985Y51032185D02*
X53757604Y50984566D01*
X53757604Y50984566D02*
X53805223Y51032185D01*
X53805223Y51032185D02*
X53757604Y51079805D01*
X53757604Y51079805D02*
X53757604Y50984566D01*
X52852843Y51032185D02*
X52948081Y50984566D01*
X52948081Y50984566D02*
X53138557Y50984566D01*
X53138557Y50984566D02*
X53233795Y51032185D01*
X53233795Y51032185D02*
X53281414Y51079805D01*
X53281414Y51079805D02*
X53329033Y51175043D01*
X53329033Y51175043D02*
X53329033Y51460757D01*
X53329033Y51460757D02*
X53281414Y51555995D01*
X53281414Y51555995D02*
X53233795Y51603614D01*
X53233795Y51603614D02*
X53138557Y51651233D01*
X53138557Y51651233D02*
X52948081Y51651233D01*
X52948081Y51651233D02*
X52852843Y51603614D01*
X52281414Y50984566D02*
X52376652Y51032185D01*
X52376652Y51032185D02*
X52424271Y51079805D01*
X52424271Y51079805D02*
X52471890Y51175043D01*
X52471890Y51175043D02*
X52471890Y51460757D01*
X52471890Y51460757D02*
X52424271Y51555995D01*
X52424271Y51555995D02*
X52376652Y51603614D01*
X52376652Y51603614D02*
X52281414Y51651233D01*
X52281414Y51651233D02*
X52138557Y51651233D01*
X52138557Y51651233D02*
X52043319Y51603614D01*
X52043319Y51603614D02*
X51995700Y51555995D01*
X51995700Y51555995D02*
X51948081Y51460757D01*
X51948081Y51460757D02*
X51948081Y51175043D01*
X51948081Y51175043D02*
X51995700Y51079805D01*
X51995700Y51079805D02*
X52043319Y51032185D01*
X52043319Y51032185D02*
X52138557Y50984566D01*
X52138557Y50984566D02*
X52281414Y50984566D01*
X51519509Y50984566D02*
X51519509Y51651233D01*
X51519509Y51555995D02*
X51471890Y51603614D01*
X51471890Y51603614D02*
X51376652Y51651233D01*
X51376652Y51651233D02*
X51233795Y51651233D01*
X51233795Y51651233D02*
X51138557Y51603614D01*
X51138557Y51603614D02*
X51090938Y51508376D01*
X51090938Y51508376D02*
X51090938Y50984566D01*
X51090938Y51508376D02*
X51043319Y51603614D01*
X51043319Y51603614D02*
X50948081Y51651233D01*
X50948081Y51651233D02*
X50805224Y51651233D01*
X50805224Y51651233D02*
X50709985Y51603614D01*
X50709985Y51603614D02*
X50662366Y51508376D01*
X50662366Y51508376D02*
X50662366Y50984566D01*
X49471891Y52032185D02*
X50329033Y50746471D01*
X49138557Y51651233D02*
X49138557Y50651233D01*
X49138557Y51603614D02*
X49043319Y51651233D01*
X49043319Y51651233D02*
X48852843Y51651233D01*
X48852843Y51651233D02*
X48757605Y51603614D01*
X48757605Y51603614D02*
X48709986Y51555995D01*
X48709986Y51555995D02*
X48662367Y51460757D01*
X48662367Y51460757D02*
X48662367Y51175043D01*
X48662367Y51175043D02*
X48709986Y51079805D01*
X48709986Y51079805D02*
X48757605Y51032185D01*
X48757605Y51032185D02*
X48852843Y50984566D01*
X48852843Y50984566D02*
X49043319Y50984566D01*
X49043319Y50984566D02*
X49138557Y51032185D01*
X47852843Y51032185D02*
X47948081Y50984566D01*
X47948081Y50984566D02*
X48138557Y50984566D01*
X48138557Y50984566D02*
X48233795Y51032185D01*
X48233795Y51032185D02*
X48281414Y51127424D01*
X48281414Y51127424D02*
X48281414Y51508376D01*
X48281414Y51508376D02*
X48233795Y51603614D01*
X48233795Y51603614D02*
X48138557Y51651233D01*
X48138557Y51651233D02*
X47948081Y51651233D01*
X47948081Y51651233D02*
X47852843Y51603614D01*
X47852843Y51603614D02*
X47805224Y51508376D01*
X47805224Y51508376D02*
X47805224Y51413138D01*
X47805224Y51413138D02*
X48281414Y51317900D01*
X46948081Y50984566D02*
X46948081Y51984566D01*
X46948081Y51032185D02*
X47043319Y50984566D01*
X47043319Y50984566D02*
X47233795Y50984566D01*
X47233795Y50984566D02*
X47329033Y51032185D01*
X47329033Y51032185D02*
X47376652Y51079805D01*
X47376652Y51079805D02*
X47424271Y51175043D01*
X47424271Y51175043D02*
X47424271Y51460757D01*
X47424271Y51460757D02*
X47376652Y51555995D01*
X47376652Y51555995D02*
X47329033Y51603614D01*
X47329033Y51603614D02*
X47233795Y51651233D01*
X47233795Y51651233D02*
X47043319Y51651233D01*
X47043319Y51651233D02*
X46948081Y51603614D01*
X46043319Y50984566D02*
X46043319Y51508376D01*
X46043319Y51508376D02*
X46090938Y51603614D01*
X46090938Y51603614D02*
X46186176Y51651233D01*
X46186176Y51651233D02*
X46376652Y51651233D01*
X46376652Y51651233D02*
X46471890Y51603614D01*
X46043319Y51032185D02*
X46138557Y50984566D01*
X46138557Y50984566D02*
X46376652Y50984566D01*
X46376652Y50984566D02*
X46471890Y51032185D01*
X46471890Y51032185D02*
X46519509Y51127424D01*
X46519509Y51127424D02*
X46519509Y51222662D01*
X46519509Y51222662D02*
X46471890Y51317900D01*
X46471890Y51317900D02*
X46376652Y51365519D01*
X46376652Y51365519D02*
X46138557Y51365519D01*
X46138557Y51365519D02*
X46043319Y51413138D01*
X45424271Y50984566D02*
X45519509Y51032185D01*
X45519509Y51032185D02*
X45567128Y51127424D01*
X45567128Y51127424D02*
X45567128Y51984566D01*
X45043318Y50984566D02*
X45043318Y51984566D01*
X45043318Y51603614D02*
X44948080Y51651233D01*
X44948080Y51651233D02*
X44757604Y51651233D01*
X44757604Y51651233D02*
X44662366Y51603614D01*
X44662366Y51603614D02*
X44614747Y51555995D01*
X44614747Y51555995D02*
X44567128Y51460757D01*
X44567128Y51460757D02*
X44567128Y51175043D01*
X44567128Y51175043D02*
X44614747Y51079805D01*
X44614747Y51079805D02*
X44662366Y51032185D01*
X44662366Y51032185D02*
X44757604Y50984566D01*
X44757604Y50984566D02*
X44948080Y50984566D01*
X44948080Y50984566D02*
X45043318Y51032185D01*
X43995699Y50984566D02*
X44090937Y51032185D01*
X44090937Y51032185D02*
X44138556Y51079805D01*
X44138556Y51079805D02*
X44186175Y51175043D01*
X44186175Y51175043D02*
X44186175Y51460757D01*
X44186175Y51460757D02*
X44138556Y51555995D01*
X44138556Y51555995D02*
X44090937Y51603614D01*
X44090937Y51603614D02*
X43995699Y51651233D01*
X43995699Y51651233D02*
X43852842Y51651233D01*
X43852842Y51651233D02*
X43757604Y51603614D01*
X43757604Y51603614D02*
X43709985Y51555995D01*
X43709985Y51555995D02*
X43662366Y51460757D01*
X43662366Y51460757D02*
X43662366Y51175043D01*
X43662366Y51175043D02*
X43709985Y51079805D01*
X43709985Y51079805D02*
X43757604Y51032185D01*
X43757604Y51032185D02*
X43852842Y50984566D01*
X43852842Y50984566D02*
X43995699Y50984566D01*
X42805223Y50984566D02*
X42805223Y51508376D01*
X42805223Y51508376D02*
X42852842Y51603614D01*
X42852842Y51603614D02*
X42948080Y51651233D01*
X42948080Y51651233D02*
X43138556Y51651233D01*
X43138556Y51651233D02*
X43233794Y51603614D01*
X42805223Y51032185D02*
X42900461Y50984566D01*
X42900461Y50984566D02*
X43138556Y50984566D01*
X43138556Y50984566D02*
X43233794Y51032185D01*
X43233794Y51032185D02*
X43281413Y51127424D01*
X43281413Y51127424D02*
X43281413Y51222662D01*
X43281413Y51222662D02*
X43233794Y51317900D01*
X43233794Y51317900D02*
X43138556Y51365519D01*
X43138556Y51365519D02*
X42900461Y51365519D01*
X42900461Y51365519D02*
X42805223Y51413138D01*
X42329032Y50984566D02*
X42329032Y51651233D01*
X42329032Y51460757D02*
X42281413Y51555995D01*
X42281413Y51555995D02*
X42233794Y51603614D01*
X42233794Y51603614D02*
X42138556Y51651233D01*
X42138556Y51651233D02*
X42043318Y51651233D01*
X41281413Y50984566D02*
X41281413Y51984566D01*
X41281413Y51032185D02*
X41376651Y50984566D01*
X41376651Y50984566D02*
X41567127Y50984566D01*
X41567127Y50984566D02*
X41662365Y51032185D01*
X41662365Y51032185D02*
X41709984Y51079805D01*
X41709984Y51079805D02*
X41757603Y51175043D01*
X41757603Y51175043D02*
X41757603Y51460757D01*
X41757603Y51460757D02*
X41709984Y51555995D01*
X41709984Y51555995D02*
X41662365Y51603614D01*
X41662365Y51603614D02*
X41567127Y51651233D01*
X41567127Y51651233D02*
X41376651Y51651233D01*
X41376651Y51651233D02*
X41281413Y51603614D01*
X64424272Y49898376D02*
X64281415Y49850757D01*
X64281415Y49850757D02*
X64233796Y49803138D01*
X64233796Y49803138D02*
X64186177Y49707900D01*
X64186177Y49707900D02*
X64186177Y49565043D01*
X64186177Y49565043D02*
X64233796Y49469805D01*
X64233796Y49469805D02*
X64281415Y49422185D01*
X64281415Y49422185D02*
X64376653Y49374566D01*
X64376653Y49374566D02*
X64757605Y49374566D01*
X64757605Y49374566D02*
X64757605Y50374566D01*
X64757605Y50374566D02*
X64424272Y50374566D01*
X64424272Y50374566D02*
X64329034Y50326947D01*
X64329034Y50326947D02*
X64281415Y50279328D01*
X64281415Y50279328D02*
X64233796Y50184090D01*
X64233796Y50184090D02*
X64233796Y50088852D01*
X64233796Y50088852D02*
X64281415Y49993614D01*
X64281415Y49993614D02*
X64329034Y49945995D01*
X64329034Y49945995D02*
X64424272Y49898376D01*
X64424272Y49898376D02*
X64757605Y49898376D01*
X63186177Y49469805D02*
X63233796Y49422185D01*
X63233796Y49422185D02*
X63376653Y49374566D01*
X63376653Y49374566D02*
X63471891Y49374566D01*
X63471891Y49374566D02*
X63614748Y49422185D01*
X63614748Y49422185D02*
X63709986Y49517424D01*
X63709986Y49517424D02*
X63757605Y49612662D01*
X63757605Y49612662D02*
X63805224Y49803138D01*
X63805224Y49803138D02*
X63805224Y49945995D01*
X63805224Y49945995D02*
X63757605Y50136471D01*
X63757605Y50136471D02*
X63709986Y50231709D01*
X63709986Y50231709D02*
X63614748Y50326947D01*
X63614748Y50326947D02*
X63471891Y50374566D01*
X63471891Y50374566D02*
X63376653Y50374566D01*
X63376653Y50374566D02*
X63233796Y50326947D01*
X63233796Y50326947D02*
X63186177Y50279328D01*
X62424272Y49898376D02*
X62281415Y49850757D01*
X62281415Y49850757D02*
X62233796Y49803138D01*
X62233796Y49803138D02*
X62186177Y49707900D01*
X62186177Y49707900D02*
X62186177Y49565043D01*
X62186177Y49565043D02*
X62233796Y49469805D01*
X62233796Y49469805D02*
X62281415Y49422185D01*
X62281415Y49422185D02*
X62376653Y49374566D01*
X62376653Y49374566D02*
X62757605Y49374566D01*
X62757605Y49374566D02*
X62757605Y50374566D01*
X62757605Y50374566D02*
X62424272Y50374566D01*
X62424272Y50374566D02*
X62329034Y50326947D01*
X62329034Y50326947D02*
X62281415Y50279328D01*
X62281415Y50279328D02*
X62233796Y50184090D01*
X62233796Y50184090D02*
X62233796Y50088852D01*
X62233796Y50088852D02*
X62281415Y49993614D01*
X62281415Y49993614D02*
X62329034Y49945995D01*
X62329034Y49945995D02*
X62424272Y49898376D01*
X62424272Y49898376D02*
X62757605Y49898376D01*
X61757605Y49469805D02*
X61709986Y49422185D01*
X61709986Y49422185D02*
X61757605Y49374566D01*
X61757605Y49374566D02*
X61805224Y49422185D01*
X61805224Y49422185D02*
X61757605Y49469805D01*
X61757605Y49469805D02*
X61757605Y49374566D01*
X61757605Y49993614D02*
X61709986Y49945995D01*
X61709986Y49945995D02*
X61757605Y49898376D01*
X61757605Y49898376D02*
X61805224Y49945995D01*
X61805224Y49945995D02*
X61757605Y49993614D01*
X61757605Y49993614D02*
X61757605Y49898376D01*
X60614748Y50374566D02*
X59995701Y50374566D01*
X59995701Y50374566D02*
X60329034Y49993614D01*
X60329034Y49993614D02*
X60186177Y49993614D01*
X60186177Y49993614D02*
X60090939Y49945995D01*
X60090939Y49945995D02*
X60043320Y49898376D01*
X60043320Y49898376D02*
X59995701Y49803138D01*
X59995701Y49803138D02*
X59995701Y49565043D01*
X59995701Y49565043D02*
X60043320Y49469805D01*
X60043320Y49469805D02*
X60090939Y49422185D01*
X60090939Y49422185D02*
X60186177Y49374566D01*
X60186177Y49374566D02*
X60471891Y49374566D01*
X60471891Y49374566D02*
X60567129Y49422185D01*
X60567129Y49422185D02*
X60614748Y49469805D01*
X59567129Y49469805D02*
X59519510Y49422185D01*
X59519510Y49422185D02*
X59567129Y49374566D01*
X59567129Y49374566D02*
X59614748Y49422185D01*
X59614748Y49422185D02*
X59567129Y49469805D01*
X59567129Y49469805D02*
X59567129Y49374566D01*
X58900463Y50374566D02*
X58805225Y50374566D01*
X58805225Y50374566D02*
X58709987Y50326947D01*
X58709987Y50326947D02*
X58662368Y50279328D01*
X58662368Y50279328D02*
X58614749Y50184090D01*
X58614749Y50184090D02*
X58567130Y49993614D01*
X58567130Y49993614D02*
X58567130Y49755519D01*
X58567130Y49755519D02*
X58614749Y49565043D01*
X58614749Y49565043D02*
X58662368Y49469805D01*
X58662368Y49469805D02*
X58709987Y49422185D01*
X58709987Y49422185D02*
X58805225Y49374566D01*
X58805225Y49374566D02*
X58900463Y49374566D01*
X58900463Y49374566D02*
X58995701Y49422185D01*
X58995701Y49422185D02*
X59043320Y49469805D01*
X59043320Y49469805D02*
X59090939Y49565043D01*
X59090939Y49565043D02*
X59138558Y49755519D01*
X59138558Y49755519D02*
X59138558Y49993614D01*
X59138558Y49993614D02*
X59090939Y50184090D01*
X59090939Y50184090D02*
X59043320Y50279328D01*
X59043320Y50279328D02*
X58995701Y50326947D01*
X58995701Y50326947D02*
X58900463Y50374566D01*
X58138558Y49469805D02*
X58090939Y49422185D01*
X58090939Y49422185D02*
X58138558Y49374566D01*
X58138558Y49374566D02*
X58186177Y49422185D01*
X58186177Y49422185D02*
X58138558Y49469805D01*
X58138558Y49469805D02*
X58138558Y49374566D01*
X57471892Y50374566D02*
X57376654Y50374566D01*
X57376654Y50374566D02*
X57281416Y50326947D01*
X57281416Y50326947D02*
X57233797Y50279328D01*
X57233797Y50279328D02*
X57186178Y50184090D01*
X57186178Y50184090D02*
X57138559Y49993614D01*
X57138559Y49993614D02*
X57138559Y49755519D01*
X57138559Y49755519D02*
X57186178Y49565043D01*
X57186178Y49565043D02*
X57233797Y49469805D01*
X57233797Y49469805D02*
X57281416Y49422185D01*
X57281416Y49422185D02*
X57376654Y49374566D01*
X57376654Y49374566D02*
X57471892Y49374566D01*
X57471892Y49374566D02*
X57567130Y49422185D01*
X57567130Y49422185D02*
X57614749Y49469805D01*
X57614749Y49469805D02*
X57662368Y49565043D01*
X57662368Y49565043D02*
X57709987Y49755519D01*
X57709987Y49755519D02*
X57709987Y49993614D01*
X57709987Y49993614D02*
X57662368Y50184090D01*
X57662368Y50184090D02*
X57614749Y50279328D01*
X57614749Y50279328D02*
X57567130Y50326947D01*
X57567130Y50326947D02*
X57471892Y50374566D01*
X56709987Y49755519D02*
X55948083Y49755519D01*
X54900464Y49374566D02*
X55233797Y49850757D01*
X55471892Y49374566D02*
X55471892Y50374566D01*
X55471892Y50374566D02*
X55090940Y50374566D01*
X55090940Y50374566D02*
X54995702Y50326947D01*
X54995702Y50326947D02*
X54948083Y50279328D01*
X54948083Y50279328D02*
X54900464Y50184090D01*
X54900464Y50184090D02*
X54900464Y50041233D01*
X54900464Y50041233D02*
X54948083Y49945995D01*
X54948083Y49945995D02*
X54995702Y49898376D01*
X54995702Y49898376D02*
X55090940Y49850757D01*
X55090940Y49850757D02*
X55471892Y49850757D01*
X53900464Y49469805D02*
X53948083Y49422185D01*
X53948083Y49422185D02*
X54090940Y49374566D01*
X54090940Y49374566D02*
X54186178Y49374566D01*
X54186178Y49374566D02*
X54329035Y49422185D01*
X54329035Y49422185D02*
X54424273Y49517424D01*
X54424273Y49517424D02*
X54471892Y49612662D01*
X54471892Y49612662D02*
X54519511Y49803138D01*
X54519511Y49803138D02*
X54519511Y49945995D01*
X54519511Y49945995D02*
X54471892Y50136471D01*
X54471892Y50136471D02*
X54424273Y50231709D01*
X54424273Y50231709D02*
X54329035Y50326947D01*
X54329035Y50326947D02*
X54186178Y50374566D01*
X54186178Y50374566D02*
X54090940Y50374566D01*
X54090940Y50374566D02*
X53948083Y50326947D01*
X53948083Y50326947D02*
X53900464Y50279328D01*
X52948083Y49374566D02*
X53519511Y49374566D01*
X53233797Y49374566D02*
X53233797Y50374566D01*
X53233797Y50374566D02*
X53329035Y50231709D01*
X53329035Y50231709D02*
X53424273Y50136471D01*
X53424273Y50136471D02*
X53519511Y50088852D01*
X20505518Y8331165D02*
X20505518Y9093069D01*
X20124565Y8712117D02*
X20886470Y8712117D01*
X21124565Y10045450D02*
X21124565Y9569260D01*
X21124565Y9569260D02*
X20648375Y9521641D01*
X20648375Y9521641D02*
X20695994Y9569260D01*
X20695994Y9569260D02*
X20743613Y9664498D01*
X20743613Y9664498D02*
X20743613Y9902593D01*
X20743613Y9902593D02*
X20695994Y9997831D01*
X20695994Y9997831D02*
X20648375Y10045450D01*
X20648375Y10045450D02*
X20553137Y10093069D01*
X20553137Y10093069D02*
X20315042Y10093069D01*
X20315042Y10093069D02*
X20219804Y10045450D01*
X20219804Y10045450D02*
X20172185Y9997831D01*
X20172185Y9997831D02*
X20124565Y9902593D01*
X20124565Y9902593D02*
X20124565Y9664498D01*
X20124565Y9664498D02*
X20172185Y9569260D01*
X20172185Y9569260D02*
X20219804Y9521641D01*
X21124565Y10378784D02*
X20124565Y10712117D01*
X20124565Y10712117D02*
X21124565Y11045450D01*
X38538558Y106185757D02*
X38538558Y107685757D01*
X38538558Y107685757D02*
X38038558Y106614328D01*
X38038558Y106614328D02*
X37538558Y107685757D01*
X37538558Y107685757D02*
X37538558Y106185757D01*
X36824272Y106185757D02*
X36824272Y107685757D01*
X36109986Y106185757D02*
X36109986Y107685757D01*
X36109986Y107685757D02*
X35752843Y107685757D01*
X35752843Y107685757D02*
X35538557Y107614328D01*
X35538557Y107614328D02*
X35395700Y107471471D01*
X35395700Y107471471D02*
X35324271Y107328614D01*
X35324271Y107328614D02*
X35252843Y107042900D01*
X35252843Y107042900D02*
X35252843Y106828614D01*
X35252843Y106828614D02*
X35324271Y106542900D01*
X35324271Y106542900D02*
X35395700Y106400043D01*
X35395700Y106400043D02*
X35538557Y106257185D01*
X35538557Y106257185D02*
X35752843Y106185757D01*
X35752843Y106185757D02*
X36109986Y106185757D01*
X34609986Y106185757D02*
X34609986Y107685757D01*
X133656005Y70433766D02*
X133656005Y71100433D01*
X133656005Y71433766D02*
X133703624Y71386147D01*
X133703624Y71386147D02*
X133656005Y71338528D01*
X133656005Y71338528D02*
X133608386Y71386147D01*
X133608386Y71386147D02*
X133656005Y71433766D01*
X133656005Y71433766D02*
X133656005Y71338528D01*
X133179815Y71100433D02*
X133179815Y70433766D01*
X133179815Y71005195D02*
X133132196Y71052814D01*
X133132196Y71052814D02*
X133036958Y71100433D01*
X133036958Y71100433D02*
X132894101Y71100433D01*
X132894101Y71100433D02*
X132798863Y71052814D01*
X132798863Y71052814D02*
X132751244Y70957576D01*
X132751244Y70957576D02*
X132751244Y70433766D01*
X34181415Y1124566D02*
X34657605Y1124566D01*
X34657605Y1124566D02*
X34657605Y2124566D01*
X33848081Y1648376D02*
X33514748Y1648376D01*
X33371891Y1124566D02*
X33848081Y1124566D01*
X33848081Y1124566D02*
X33848081Y2124566D01*
X33848081Y2124566D02*
X33371891Y2124566D01*
X32943319Y1124566D02*
X32943319Y2124566D01*
X32943319Y2124566D02*
X32705224Y2124566D01*
X32705224Y2124566D02*
X32562367Y2076947D01*
X32562367Y2076947D02*
X32467129Y1981709D01*
X32467129Y1981709D02*
X32419510Y1886471D01*
X32419510Y1886471D02*
X32371891Y1695995D01*
X32371891Y1695995D02*
X32371891Y1553138D01*
X32371891Y1553138D02*
X32419510Y1362662D01*
X32419510Y1362662D02*
X32467129Y1267424D01*
X32467129Y1267424D02*
X32562367Y1172185D01*
X32562367Y1172185D02*
X32705224Y1124566D01*
X32705224Y1124566D02*
X32943319Y1124566D01*
X30990938Y2124566D02*
X30800462Y2124566D01*
X30800462Y2124566D02*
X30705224Y2076947D01*
X30705224Y2076947D02*
X30609986Y1981709D01*
X30609986Y1981709D02*
X30562367Y1791233D01*
X30562367Y1791233D02*
X30562367Y1457900D01*
X30562367Y1457900D02*
X30609986Y1267424D01*
X30609986Y1267424D02*
X30705224Y1172185D01*
X30705224Y1172185D02*
X30800462Y1124566D01*
X30800462Y1124566D02*
X30990938Y1124566D01*
X30990938Y1124566D02*
X31086176Y1172185D01*
X31086176Y1172185D02*
X31181414Y1267424D01*
X31181414Y1267424D02*
X31229033Y1457900D01*
X31229033Y1457900D02*
X31229033Y1791233D01*
X31229033Y1791233D02*
X31181414Y1981709D01*
X31181414Y1981709D02*
X31086176Y2076947D01*
X31086176Y2076947D02*
X30990938Y2124566D01*
X30133795Y2124566D02*
X30133795Y1315043D01*
X30133795Y1315043D02*
X30086176Y1219805D01*
X30086176Y1219805D02*
X30038557Y1172185D01*
X30038557Y1172185D02*
X29943319Y1124566D01*
X29943319Y1124566D02*
X29752843Y1124566D01*
X29752843Y1124566D02*
X29657605Y1172185D01*
X29657605Y1172185D02*
X29609986Y1219805D01*
X29609986Y1219805D02*
X29562367Y1315043D01*
X29562367Y1315043D02*
X29562367Y2124566D01*
X29229033Y2124566D02*
X28657605Y2124566D01*
X28943319Y1124566D02*
X28943319Y2124566D01*
X164642604Y93878406D02*
X163642604Y93878406D01*
X164642604Y93402216D02*
X163642604Y93402216D01*
X163642604Y93402216D02*
X164642604Y92830788D01*
X164642604Y92830788D02*
X163642604Y92830788D01*
X37467129Y95124566D02*
X37276653Y95124566D01*
X37276653Y95124566D02*
X37181415Y95076947D01*
X37181415Y95076947D02*
X37086177Y94981709D01*
X37086177Y94981709D02*
X37038558Y94791233D01*
X37038558Y94791233D02*
X37038558Y94457900D01*
X37038558Y94457900D02*
X37086177Y94267424D01*
X37086177Y94267424D02*
X37181415Y94172185D01*
X37181415Y94172185D02*
X37276653Y94124566D01*
X37276653Y94124566D02*
X37467129Y94124566D01*
X37467129Y94124566D02*
X37562367Y94172185D01*
X37562367Y94172185D02*
X37657605Y94267424D01*
X37657605Y94267424D02*
X37705224Y94457900D01*
X37705224Y94457900D02*
X37705224Y94791233D01*
X37705224Y94791233D02*
X37657605Y94981709D01*
X37657605Y94981709D02*
X37562367Y95076947D01*
X37562367Y95076947D02*
X37467129Y95124566D01*
X36609986Y95124566D02*
X36609986Y94315043D01*
X36609986Y94315043D02*
X36562367Y94219805D01*
X36562367Y94219805D02*
X36514748Y94172185D01*
X36514748Y94172185D02*
X36419510Y94124566D01*
X36419510Y94124566D02*
X36229034Y94124566D01*
X36229034Y94124566D02*
X36133796Y94172185D01*
X36133796Y94172185D02*
X36086177Y94219805D01*
X36086177Y94219805D02*
X36038558Y94315043D01*
X36038558Y94315043D02*
X36038558Y95124566D01*
X35705224Y95124566D02*
X35133796Y95124566D01*
X35419510Y94124566D02*
X35419510Y95124566D01*
X157191004Y94122863D02*
X158191004Y93789530D01*
X158191004Y93789530D02*
X157191004Y93456197D01*
X158191004Y92551435D02*
X157714813Y92884768D01*
X158191004Y93122863D02*
X157191004Y93122863D01*
X157191004Y93122863D02*
X157191004Y92741911D01*
X157191004Y92741911D02*
X157238623Y92646673D01*
X157238623Y92646673D02*
X157286242Y92599054D01*
X157286242Y92599054D02*
X157381480Y92551435D01*
X157381480Y92551435D02*
X157524337Y92551435D01*
X157524337Y92551435D02*
X157619575Y92599054D01*
X157619575Y92599054D02*
X157667194Y92646673D01*
X157667194Y92646673D02*
X157714813Y92741911D01*
X157714813Y92741911D02*
X157714813Y93122863D01*
X157667194Y92122863D02*
X157667194Y91789530D01*
X158191004Y91646673D02*
X158191004Y92122863D01*
X158191004Y92122863D02*
X157191004Y92122863D01*
X157191004Y92122863D02*
X157191004Y91646673D01*
X157667194Y90884768D02*
X157667194Y91218101D01*
X158191004Y91218101D02*
X157191004Y91218101D01*
X157191004Y91218101D02*
X157191004Y90741911D01*
X133614748Y73024566D02*
X133709986Y73072185D01*
X133709986Y73072185D02*
X133757605Y73119805D01*
X133757605Y73119805D02*
X133805224Y73215043D01*
X133805224Y73215043D02*
X133805224Y73500757D01*
X133805224Y73500757D02*
X133757605Y73595995D01*
X133757605Y73595995D02*
X133709986Y73643614D01*
X133709986Y73643614D02*
X133614748Y73691233D01*
X133614748Y73691233D02*
X133471891Y73691233D01*
X133471891Y73691233D02*
X133376653Y73643614D01*
X133376653Y73643614D02*
X133329034Y73595995D01*
X133329034Y73595995D02*
X133281415Y73500757D01*
X133281415Y73500757D02*
X133281415Y73215043D01*
X133281415Y73215043D02*
X133329034Y73119805D01*
X133329034Y73119805D02*
X133376653Y73072185D01*
X133376653Y73072185D02*
X133471891Y73024566D01*
X133471891Y73024566D02*
X133614748Y73024566D01*
X132424272Y73691233D02*
X132424272Y73024566D01*
X132852843Y73691233D02*
X132852843Y73167424D01*
X132852843Y73167424D02*
X132805224Y73072185D01*
X132805224Y73072185D02*
X132709986Y73024566D01*
X132709986Y73024566D02*
X132567129Y73024566D01*
X132567129Y73024566D02*
X132471891Y73072185D01*
X132471891Y73072185D02*
X132424272Y73119805D01*
X132090938Y73691233D02*
X131709986Y73691233D01*
X131948081Y74024566D02*
X131948081Y73167424D01*
X131948081Y73167424D02*
X131900462Y73072185D01*
X131900462Y73072185D02*
X131805224Y73024566D01*
X131805224Y73024566D02*
X131709986Y73024566D01*
X32027718Y21939566D02*
X32027718Y21225281D01*
X32027718Y21225281D02*
X32075337Y21082424D01*
X32075337Y21082424D02*
X32170575Y20987185D01*
X32170575Y20987185D02*
X32313432Y20939566D01*
X32313432Y20939566D02*
X32408670Y20939566D01*
X31646765Y21939566D02*
X30980099Y21939566D01*
X30980099Y21939566D02*
X31408670Y20939566D01*
X95952718Y31429566D02*
X95952718Y30715281D01*
X95952718Y30715281D02*
X96000337Y30572424D01*
X96000337Y30572424D02*
X96095575Y30477185D01*
X96095575Y30477185D02*
X96238432Y30429566D01*
X96238432Y30429566D02*
X96333670Y30429566D01*
X95047956Y31429566D02*
X95238432Y31429566D01*
X95238432Y31429566D02*
X95333670Y31381947D01*
X95333670Y31381947D02*
X95381289Y31334328D01*
X95381289Y31334328D02*
X95476527Y31191471D01*
X95476527Y31191471D02*
X95524146Y31000995D01*
X95524146Y31000995D02*
X95524146Y30620043D01*
X95524146Y30620043D02*
X95476527Y30524805D01*
X95476527Y30524805D02*
X95428908Y30477185D01*
X95428908Y30477185D02*
X95333670Y30429566D01*
X95333670Y30429566D02*
X95143194Y30429566D01*
X95143194Y30429566D02*
X95047956Y30477185D01*
X95047956Y30477185D02*
X95000337Y30524805D01*
X95000337Y30524805D02*
X94952718Y30620043D01*
X94952718Y30620043D02*
X94952718Y30858138D01*
X94952718Y30858138D02*
X95000337Y30953376D01*
X95000337Y30953376D02*
X95047956Y31000995D01*
X95047956Y31000995D02*
X95143194Y31048614D01*
X95143194Y31048614D02*
X95333670Y31048614D01*
X95333670Y31048614D02*
X95428908Y31000995D01*
X95428908Y31000995D02*
X95476527Y30953376D01*
X95476527Y30953376D02*
X95524146Y30858138D01*
X114749204Y74603909D02*
X115463489Y74603909D01*
X115463489Y74603909D02*
X115606346Y74651528D01*
X115606346Y74651528D02*
X115701585Y74746766D01*
X115701585Y74746766D02*
X115749204Y74889623D01*
X115749204Y74889623D02*
X115749204Y74984861D01*
X115749204Y73603909D02*
X115749204Y74175337D01*
X115749204Y73889623D02*
X114749204Y73889623D01*
X114749204Y73889623D02*
X114892061Y73984861D01*
X114892061Y73984861D02*
X114987299Y74080099D01*
X114987299Y74080099D02*
X115034918Y74175337D01*
X115082537Y72746766D02*
X115749204Y72746766D01*
X114701585Y72984861D02*
X115415870Y73222956D01*
X115415870Y73222956D02*
X115415870Y72603909D01*
X109327718Y85599566D02*
X109327718Y84885281D01*
X109327718Y84885281D02*
X109375337Y84742424D01*
X109375337Y84742424D02*
X109470575Y84647185D01*
X109470575Y84647185D02*
X109613432Y84599566D01*
X109613432Y84599566D02*
X109708670Y84599566D01*
X108375337Y85599566D02*
X108851527Y85599566D01*
X108851527Y85599566D02*
X108899146Y85123376D01*
X108899146Y85123376D02*
X108851527Y85170995D01*
X108851527Y85170995D02*
X108756289Y85218614D01*
X108756289Y85218614D02*
X108518194Y85218614D01*
X108518194Y85218614D02*
X108422956Y85170995D01*
X108422956Y85170995D02*
X108375337Y85123376D01*
X108375337Y85123376D02*
X108327718Y85028138D01*
X108327718Y85028138D02*
X108327718Y84790043D01*
X108327718Y84790043D02*
X108375337Y84694805D01*
X108375337Y84694805D02*
X108422956Y84647185D01*
X108422956Y84647185D02*
X108518194Y84599566D01*
X108518194Y84599566D02*
X108756289Y84599566D01*
X108756289Y84599566D02*
X108851527Y84647185D01*
X108851527Y84647185D02*
X108899146Y84694805D01*
X64149204Y56927719D02*
X64863489Y56927719D01*
X64863489Y56927719D02*
X65006346Y56975338D01*
X65006346Y56975338D02*
X65101585Y57070576D01*
X65101585Y57070576D02*
X65149204Y57213433D01*
X65149204Y57213433D02*
X65149204Y57308671D01*
X65149204Y56451528D02*
X64149204Y56451528D01*
X64149204Y56451528D02*
X64149204Y56070576D01*
X64149204Y56070576D02*
X64196823Y55975338D01*
X64196823Y55975338D02*
X64244442Y55927719D01*
X64244442Y55927719D02*
X64339680Y55880100D01*
X64339680Y55880100D02*
X64482537Y55880100D01*
X64482537Y55880100D02*
X64577775Y55927719D01*
X64577775Y55927719D02*
X64625394Y55975338D01*
X64625394Y55975338D02*
X64673013Y56070576D01*
X64673013Y56070576D02*
X64673013Y56451528D01*
X64149204Y55546766D02*
X64149204Y54927719D01*
X64149204Y54927719D02*
X64530156Y55261052D01*
X64530156Y55261052D02*
X64530156Y55118195D01*
X64530156Y55118195D02*
X64577775Y55022957D01*
X64577775Y55022957D02*
X64625394Y54975338D01*
X64625394Y54975338D02*
X64720632Y54927719D01*
X64720632Y54927719D02*
X64958727Y54927719D01*
X64958727Y54927719D02*
X65053965Y54975338D01*
X65053965Y54975338D02*
X65101585Y55022957D01*
X65101585Y55022957D02*
X65149204Y55118195D01*
X65149204Y55118195D02*
X65149204Y55403909D01*
X65149204Y55403909D02*
X65101585Y55499147D01*
X65101585Y55499147D02*
X65053965Y55546766D01*
X58245089Y91204366D02*
X58245089Y90394843D01*
X58245089Y90394843D02*
X58197470Y90299605D01*
X58197470Y90299605D02*
X58149851Y90251985D01*
X58149851Y90251985D02*
X58054613Y90204366D01*
X58054613Y90204366D02*
X57864137Y90204366D01*
X57864137Y90204366D02*
X57768899Y90251985D01*
X57768899Y90251985D02*
X57721280Y90299605D01*
X57721280Y90299605D02*
X57673661Y90394843D01*
X57673661Y90394843D02*
X57673661Y91204366D01*
X56673661Y90204366D02*
X57245089Y90204366D01*
X56959375Y90204366D02*
X56959375Y91204366D01*
X56959375Y91204366D02*
X57054613Y91061509D01*
X57054613Y91061509D02*
X57149851Y90966271D01*
X57149851Y90966271D02*
X57245089Y90918652D01*
X29903908Y106614566D02*
X29903908Y105900281D01*
X29903908Y105900281D02*
X29951527Y105757424D01*
X29951527Y105757424D02*
X30046765Y105662185D01*
X30046765Y105662185D02*
X30189622Y105614566D01*
X30189622Y105614566D02*
X30284860Y105614566D01*
X29475336Y106519328D02*
X29427717Y106566947D01*
X29427717Y106566947D02*
X29332479Y106614566D01*
X29332479Y106614566D02*
X29094384Y106614566D01*
X29094384Y106614566D02*
X28999146Y106566947D01*
X28999146Y106566947D02*
X28951527Y106519328D01*
X28951527Y106519328D02*
X28903908Y106424090D01*
X28903908Y106424090D02*
X28903908Y106328852D01*
X28903908Y106328852D02*
X28951527Y106185995D01*
X28951527Y106185995D02*
X29522955Y105614566D01*
X29522955Y105614566D02*
X28903908Y105614566D01*
X28046765Y106281233D02*
X28046765Y105614566D01*
X28284860Y106662185D02*
X28522955Y105947900D01*
X28522955Y105947900D02*
X27903908Y105947900D01*
X70449204Y56927719D02*
X71163489Y56927719D01*
X71163489Y56927719D02*
X71306346Y56975338D01*
X71306346Y56975338D02*
X71401585Y57070576D01*
X71401585Y57070576D02*
X71449204Y57213433D01*
X71449204Y57213433D02*
X71449204Y57308671D01*
X71449204Y56451528D02*
X70449204Y56451528D01*
X70449204Y56451528D02*
X70449204Y56070576D01*
X70449204Y56070576D02*
X70496823Y55975338D01*
X70496823Y55975338D02*
X70544442Y55927719D01*
X70544442Y55927719D02*
X70639680Y55880100D01*
X70639680Y55880100D02*
X70782537Y55880100D01*
X70782537Y55880100D02*
X70877775Y55927719D01*
X70877775Y55927719D02*
X70925394Y55975338D01*
X70925394Y55975338D02*
X70973013Y56070576D01*
X70973013Y56070576D02*
X70973013Y56451528D01*
X70782537Y55022957D02*
X71449204Y55022957D01*
X70401585Y55261052D02*
X71115870Y55499147D01*
X71115870Y55499147D02*
X71115870Y54880100D01*
X29327718Y5539566D02*
X29327718Y4825281D01*
X29327718Y4825281D02*
X29375337Y4682424D01*
X29375337Y4682424D02*
X29470575Y4587185D01*
X29470575Y4587185D02*
X29613432Y4539566D01*
X29613432Y4539566D02*
X29708670Y4539566D01*
X28422956Y5206233D02*
X28422956Y4539566D01*
X28661051Y5587185D02*
X28899146Y4872900D01*
X28899146Y4872900D02*
X28280099Y4872900D01*
X105627718Y63039566D02*
X105627718Y62325281D01*
X105627718Y62325281D02*
X105675337Y62182424D01*
X105675337Y62182424D02*
X105770575Y62087185D01*
X105770575Y62087185D02*
X105913432Y62039566D01*
X105913432Y62039566D02*
X106008670Y62039566D01*
X105008670Y62610995D02*
X105103908Y62658614D01*
X105103908Y62658614D02*
X105151527Y62706233D01*
X105151527Y62706233D02*
X105199146Y62801471D01*
X105199146Y62801471D02*
X105199146Y62849090D01*
X105199146Y62849090D02*
X105151527Y62944328D01*
X105151527Y62944328D02*
X105103908Y62991947D01*
X105103908Y62991947D02*
X105008670Y63039566D01*
X105008670Y63039566D02*
X104818194Y63039566D01*
X104818194Y63039566D02*
X104722956Y62991947D01*
X104722956Y62991947D02*
X104675337Y62944328D01*
X104675337Y62944328D02*
X104627718Y62849090D01*
X104627718Y62849090D02*
X104627718Y62801471D01*
X104627718Y62801471D02*
X104675337Y62706233D01*
X104675337Y62706233D02*
X104722956Y62658614D01*
X104722956Y62658614D02*
X104818194Y62610995D01*
X104818194Y62610995D02*
X105008670Y62610995D01*
X105008670Y62610995D02*
X105103908Y62563376D01*
X105103908Y62563376D02*
X105151527Y62515757D01*
X105151527Y62515757D02*
X105199146Y62420519D01*
X105199146Y62420519D02*
X105199146Y62230043D01*
X105199146Y62230043D02*
X105151527Y62134805D01*
X105151527Y62134805D02*
X105103908Y62087185D01*
X105103908Y62087185D02*
X105008670Y62039566D01*
X105008670Y62039566D02*
X104818194Y62039566D01*
X104818194Y62039566D02*
X104722956Y62087185D01*
X104722956Y62087185D02*
X104675337Y62134805D01*
X104675337Y62134805D02*
X104627718Y62230043D01*
X104627718Y62230043D02*
X104627718Y62420519D01*
X104627718Y62420519D02*
X104675337Y62515757D01*
X104675337Y62515757D02*
X104722956Y62563376D01*
X104722956Y62563376D02*
X104818194Y62610995D01*
X29903908Y98864566D02*
X29903908Y98150281D01*
X29903908Y98150281D02*
X29951527Y98007424D01*
X29951527Y98007424D02*
X30046765Y97912185D01*
X30046765Y97912185D02*
X30189622Y97864566D01*
X30189622Y97864566D02*
X30284860Y97864566D01*
X29475336Y98769328D02*
X29427717Y98816947D01*
X29427717Y98816947D02*
X29332479Y98864566D01*
X29332479Y98864566D02*
X29094384Y98864566D01*
X29094384Y98864566D02*
X28999146Y98816947D01*
X28999146Y98816947D02*
X28951527Y98769328D01*
X28951527Y98769328D02*
X28903908Y98674090D01*
X28903908Y98674090D02*
X28903908Y98578852D01*
X28903908Y98578852D02*
X28951527Y98435995D01*
X28951527Y98435995D02*
X29522955Y97864566D01*
X29522955Y97864566D02*
X28903908Y97864566D01*
X27999146Y98864566D02*
X28475336Y98864566D01*
X28475336Y98864566D02*
X28522955Y98388376D01*
X28522955Y98388376D02*
X28475336Y98435995D01*
X28475336Y98435995D02*
X28380098Y98483614D01*
X28380098Y98483614D02*
X28142003Y98483614D01*
X28142003Y98483614D02*
X28046765Y98435995D01*
X28046765Y98435995D02*
X27999146Y98388376D01*
X27999146Y98388376D02*
X27951527Y98293138D01*
X27951527Y98293138D02*
X27951527Y98055043D01*
X27951527Y98055043D02*
X27999146Y97959805D01*
X27999146Y97959805D02*
X28046765Y97912185D01*
X28046765Y97912185D02*
X28142003Y97864566D01*
X28142003Y97864566D02*
X28380098Y97864566D01*
X28380098Y97864566D02*
X28475336Y97912185D01*
X28475336Y97912185D02*
X28522955Y97959805D01*
D11*
X30254385Y23344385D02*
X30254385Y24674385D01*
X31584385Y23344385D02*
X30254385Y23344385D01*
X32854385Y23344385D02*
X81174385Y23344385D01*
X32854385Y23344385D02*
X32854385Y25944385D01*
X81174385Y23344385D02*
X81174385Y28544385D01*
X30254385Y25944385D02*
X30254385Y28544385D01*
X32854385Y25944385D02*
X30254385Y25944385D01*
X30254385Y28544385D02*
X81174385Y28544385D01*
D12*
X28214385Y5944385D02*
X83214385Y5944385D01*
X83214385Y5944385D02*
X83214385Y45944385D01*
X83214385Y45944385D02*
X28214385Y45944385D01*
X28214385Y45944385D02*
X28214385Y5944385D01*
D11*
X94289385Y42164385D02*
X96949385Y42164385D01*
X94289385Y34484385D02*
X94289385Y42164385D01*
X94289385Y34484385D02*
X96949385Y34484385D01*
X94289385Y33214385D02*
X94289385Y31884385D01*
X94289385Y31884385D02*
X95619385Y31884385D01*
X96949385Y34484385D02*
X96949385Y42164385D01*
X115799385Y71144385D02*
X115799385Y69874385D01*
X115799385Y69874385D02*
X117069385Y69874385D01*
X118112314Y74064385D02*
X118509385Y74064385D01*
X118112314Y73304385D02*
X118509385Y73304385D01*
X118179385Y71524385D02*
X118509385Y71524385D01*
X118179385Y70764385D02*
X118509385Y70764385D01*
X118509385Y75014385D02*
X121169385Y75014385D01*
X118509385Y72414385D02*
X121169385Y72414385D01*
X118509385Y69814385D02*
X118509385Y75014385D01*
X121169385Y75014385D02*
X121169385Y69814385D01*
X121169385Y73304385D02*
X127169385Y73304385D01*
X121169385Y71424385D02*
X127169385Y71424385D01*
X121169385Y71304385D02*
X127169385Y71304385D01*
X121169385Y71184385D02*
X127169385Y71184385D01*
X121169385Y71064385D02*
X127169385Y71064385D01*
X121169385Y70944385D02*
X127169385Y70944385D01*
X121169385Y70824385D02*
X127169385Y70824385D01*
X121169385Y70764385D02*
X127169385Y70764385D01*
X121169385Y69814385D02*
X118509385Y69814385D01*
X127169385Y74064385D02*
X121169385Y74064385D01*
X127169385Y73304385D02*
X127169385Y74064385D01*
X127169385Y71524385D02*
X121169385Y71524385D01*
X127169385Y70764385D02*
X127169385Y71524385D01*
D12*
X109909138Y80988137D02*
G75*
G03*
X109909138Y80988137I-914753J0D01*
G01*
X109908785Y82994385D02*
G75*
G03*
X109908785Y82994385I-914400J0D01*
G01*
D11*
X68694385Y54694385D02*
X69294385Y54694385D01*
X69994385Y55394385D02*
X69994385Y56794385D01*
X67994385Y56794385D02*
X67994385Y55394385D01*
X69294385Y57494385D02*
X68694385Y57494385D01*
X67994385Y55394385D02*
G75*
G03*
X68694385Y54694385I699999J-1D01*
G01*
X69294385Y54694385D02*
G75*
G03*
X69994385Y55394385I1J699999D01*
G01*
X68694385Y57494385D02*
G75*
G03*
X67994385Y56794385I0J-700000D01*
G01*
X69994385Y56794385D02*
G75*
G03*
X69294385Y57494385I-700000J0D01*
G01*
X62294385Y71494385D02*
X61894385Y71494385D01*
X64894385Y71494385D02*
X64494385Y71494385D01*
X67394385Y71494385D02*
X66994385Y71494385D01*
X69894385Y71494385D02*
X69494385Y71494385D01*
X72494385Y71494385D02*
X72094385Y71494385D01*
X74994385Y71494385D02*
X74594385Y71494385D01*
X77594385Y71494385D02*
X77194385Y71494385D01*
X80094385Y71494385D02*
X79694385Y71494385D01*
X82694385Y71494385D02*
X82294385Y71494385D01*
X85194385Y71494385D02*
X84794385Y71494385D01*
X87694385Y71494385D02*
X87294385Y71494385D01*
X90294385Y71494385D02*
X89894385Y71494385D01*
X92794385Y71494385D02*
X92394385Y71494385D01*
X95394385Y71494385D02*
X94994385Y71494385D01*
X97894385Y71494385D02*
X97494385Y71494385D01*
X100394385Y71494385D02*
X99994385Y71494385D01*
X102994385Y71494385D02*
X102594385Y71494385D01*
X105494385Y71494385D02*
X105094385Y71494385D01*
X107827385Y71494385D02*
X107827385Y74501385D01*
X108094385Y71494385D02*
X107694385Y71494385D01*
X110494385Y71494385D02*
X110194385Y71494385D01*
X107827385Y74501385D02*
X110494385Y74501385D01*
X59494385Y78294385D02*
X59494385Y71494385D01*
X59494385Y80494385D02*
X59494385Y80894385D01*
X59494385Y83094385D02*
X59494385Y83494385D01*
X59494385Y92494385D02*
X59494385Y85694385D01*
X62294385Y92494385D02*
X61894385Y92494385D01*
X64894385Y92494385D02*
X64494385Y92494385D01*
X67394385Y92494385D02*
X66994385Y92494385D01*
X69894385Y92494385D02*
X69494385Y92494385D01*
X72494385Y92494385D02*
X72094385Y92494385D01*
X74994385Y92494385D02*
X74594385Y92494385D01*
X77594385Y92494385D02*
X77194385Y92494385D01*
X80094385Y92494385D02*
X79694385Y92494385D01*
X82694385Y92494385D02*
X82294385Y92494385D01*
X85194385Y92494385D02*
X84794385Y92494385D01*
X87694385Y92494385D02*
X87294385Y92494385D01*
X90294385Y92494385D02*
X89894385Y92494385D01*
X92794385Y92494385D02*
X92394385Y92494385D01*
X95394385Y92494385D02*
X94994385Y92494385D01*
X97894385Y92494385D02*
X97494385Y92494385D01*
X100394385Y92494385D02*
X99994385Y92494385D01*
X102994385Y92494385D02*
X102594385Y92494385D01*
X105494385Y92494385D02*
X105094385Y92494385D01*
X108094385Y92494385D02*
X107694385Y92494385D01*
X110494385Y92494385D02*
X110194385Y92494385D01*
X34444385Y105269385D02*
X34444385Y104019385D01*
X34154385Y99009385D02*
X24034385Y99009385D01*
X34154385Y104979385D02*
X34154385Y99009385D01*
X34144385Y102719385D02*
X33394385Y102719385D01*
X34144385Y104219385D02*
X32344385Y104219385D01*
X34144385Y104969385D02*
X34144385Y104219385D01*
X33394385Y99769385D02*
X29094385Y99769385D01*
X33394385Y102719385D02*
X33394385Y99769385D01*
X33194385Y105269385D02*
X34444385Y105269385D01*
X32344385Y104219385D02*
X32344385Y104969385D01*
X32344385Y104969385D02*
X34144385Y104969385D01*
X30844385Y104219385D02*
X27344385Y104219385D01*
X30844385Y104969385D02*
X30844385Y104219385D01*
X27344385Y104219385D02*
X27344385Y104969385D01*
X27344385Y104969385D02*
X30844385Y104969385D01*
X25844385Y104219385D02*
X24044385Y104219385D01*
X25844385Y104969385D02*
X25844385Y104219385D01*
X24794385Y99769385D02*
X29094385Y99769385D01*
X24794385Y102719385D02*
X24794385Y99769385D01*
X24044385Y102719385D02*
X24794385Y102719385D01*
X24044385Y104219385D02*
X24044385Y104969385D01*
X24044385Y104969385D02*
X25844385Y104969385D01*
X24034385Y99009385D02*
X24034385Y104979385D01*
X24034385Y104979385D02*
X34154385Y104979385D01*
X66194385Y54694385D02*
X66794385Y54694385D01*
X67494385Y55394385D02*
X67494385Y56794385D01*
X65494385Y56794385D02*
X65494385Y55394385D01*
X66794385Y57494385D02*
X66194385Y57494385D01*
X65494385Y55394385D02*
G75*
G03*
X66194385Y54694385I699999J-1D01*
G01*
X66794385Y54694385D02*
G75*
G03*
X67494385Y55394385I1J699999D01*
G01*
X66194385Y57494385D02*
G75*
G03*
X65494385Y56794385I0J-700000D01*
G01*
X67494385Y56794385D02*
G75*
G03*
X66794385Y57494385I-700000J0D01*
G01*
X27744385Y6644385D02*
X27744385Y5394385D01*
X27454385Y384385D02*
X17334385Y384385D01*
X27454385Y6354385D02*
X27454385Y384385D01*
X27444385Y4094385D02*
X26694385Y4094385D01*
X27444385Y5594385D02*
X25644385Y5594385D01*
X27444385Y6344385D02*
X27444385Y5594385D01*
X26694385Y1144385D02*
X22394385Y1144385D01*
X26694385Y4094385D02*
X26694385Y1144385D01*
X26494385Y6644385D02*
X27744385Y6644385D01*
X25644385Y5594385D02*
X25644385Y6344385D01*
X25644385Y6344385D02*
X27444385Y6344385D01*
X24144385Y5594385D02*
X20644385Y5594385D01*
X24144385Y6344385D02*
X24144385Y5594385D01*
X20644385Y5594385D02*
X20644385Y6344385D01*
X20644385Y6344385D02*
X24144385Y6344385D01*
X19144385Y5594385D02*
X17344385Y5594385D01*
X19144385Y6344385D02*
X19144385Y5594385D01*
X18094385Y1144385D02*
X22394385Y1144385D01*
X18094385Y4094385D02*
X18094385Y1144385D01*
X17344385Y4094385D02*
X18094385Y4094385D01*
X17344385Y5594385D02*
X17344385Y6344385D01*
X17344385Y6344385D02*
X19144385Y6344385D01*
X17334385Y384385D02*
X17334385Y6354385D01*
X17334385Y6354385D02*
X27454385Y6354385D01*
D12*
X153474385Y67488785D02*
X153474385Y9488785D01*
X149724385Y5988785D02*
X149974385Y5988785D01*
D11*
X140784385Y7973785D02*
X140784385Y13173785D01*
X139879385Y54878785D02*
X139879385Y49738785D01*
X139879385Y57478785D02*
X139879385Y56148785D01*
X138549385Y57478785D02*
X139879385Y57478785D01*
X137279385Y54878785D02*
X139879385Y54878785D01*
X137279385Y57478785D02*
X137279385Y54878785D01*
X135644385Y10573785D02*
X135644385Y13173785D01*
X135644385Y13173785D02*
X140784385Y13173785D01*
X134679385Y49738785D02*
X139879385Y49738785D01*
X134679385Y57478785D02*
X137279385Y57478785D01*
X134679385Y57478785D02*
X134679385Y49738785D01*
X133044385Y7973785D02*
X140784385Y7973785D01*
X133044385Y7973785D02*
X133044385Y10573785D01*
X133044385Y10573785D02*
X135644385Y10573785D01*
X133044385Y11843785D02*
X133044385Y13173785D01*
X133044385Y13173785D02*
X134374385Y13173785D01*
X103574385Y61348785D02*
X103574385Y13028785D01*
X103574385Y63948785D02*
X103574385Y62618785D01*
X102244385Y63948785D02*
X103574385Y63948785D01*
X100974385Y61348785D02*
X103574385Y61348785D01*
X100974385Y63948785D02*
X100974385Y61348785D01*
D12*
X100974385Y70988785D02*
X149974385Y70988785D01*
X100974385Y70988785D02*
X100474385Y70989142D01*
X100224385Y5988785D02*
X149724385Y5988785D01*
D11*
X98374385Y13028785D02*
X103574385Y13028785D01*
X98374385Y63948785D02*
X100974385Y63948785D01*
X98374385Y63948785D02*
X98374385Y13028785D01*
D12*
X96974385Y9488785D02*
X96974385Y67438785D01*
X149974385Y5988785D02*
G75*
G03*
X153474385Y9488785I1J3499999D01*
G01*
X153474385Y67488785D02*
G75*
G03*
X149974385Y70988785I-3499999J1D01*
G01*
X96974385Y9488785D02*
G75*
G03*
X100474385Y5988785I3500000J0D01*
G01*
X100474385Y70989142D02*
G75*
G03*
X96974385Y67438785I0J-3500357D01*
G01*
X151625385Y9488785D02*
G75*
G03*
X151625385Y9488785I-1651000J0D01*
G01*
X151625385Y67488785D02*
G75*
G03*
X151625385Y67488785I-1651000J0D01*
G01*
X102625385Y9488785D02*
G75*
G03*
X102625385Y9488785I-1651000J0D01*
G01*
X102625385Y67488785D02*
G75*
G03*
X102625385Y67488785I-1651000J0D01*
G01*
D11*
X34444385Y97519385D02*
X34444385Y96269385D01*
X34154385Y91259385D02*
X24034385Y91259385D01*
X34154385Y97229385D02*
X34154385Y91259385D01*
X34144385Y94969385D02*
X33394385Y94969385D01*
X34144385Y96469385D02*
X32344385Y96469385D01*
X34144385Y97219385D02*
X34144385Y96469385D01*
X33394385Y92019385D02*
X29094385Y92019385D01*
X33394385Y94969385D02*
X33394385Y92019385D01*
X33194385Y97519385D02*
X34444385Y97519385D01*
X32344385Y96469385D02*
X32344385Y97219385D01*
X32344385Y97219385D02*
X34144385Y97219385D01*
X30844385Y96469385D02*
X27344385Y96469385D01*
X30844385Y97219385D02*
X30844385Y96469385D01*
X27344385Y96469385D02*
X27344385Y97219385D01*
X27344385Y97219385D02*
X30844385Y97219385D01*
X25844385Y96469385D02*
X24044385Y96469385D01*
X25844385Y97219385D02*
X25844385Y96469385D01*
X24794385Y92019385D02*
X29094385Y92019385D01*
X24794385Y94969385D02*
X24794385Y92019385D01*
X24044385Y94969385D02*
X24794385Y94969385D01*
X24044385Y96469385D02*
X24044385Y97219385D01*
X24044385Y97219385D02*
X25844385Y97219385D01*
X24034385Y91259385D02*
X24034385Y97229385D01*
X24034385Y97229385D02*
X34154385Y97229385D01*
M02*
