%TF.GenerationSoftware,KiCad,Pcbnew,7.0.9-7.0.9~ubuntu23.04.1*%
%TF.CreationDate,2023-12-03T19:42:26+00:00*%
%TF.ProjectId,pedalboard-hw,70656461-6c62-46f6-9172-642d68772e6b,3.0.2-RC*%
%TF.SameCoordinates,Original*%
%TF.FileFunction,Legend,Bot*%
%TF.FilePolarity,Positive*%
%FSLAX46Y46*%
G04 Gerber Fmt 4.6, Leading zero omitted, Abs format (unit mm)*
G04 Created by KiCad (PCBNEW 7.0.9-7.0.9~ubuntu23.04.1) date 2023-12-03 19:42:26*
%MOMM*%
%LPD*%
G01*
G04 APERTURE LIST*
%ADD10C,0.150000*%
%ADD11C,0.120000*%
%ADD12C,0.100000*%
G04 APERTURE END LIST*
D10*
X20817438Y-44440588D02*
X20769819Y-44345350D01*
X20769819Y-44345350D02*
X20769819Y-44202493D01*
X20769819Y-44202493D02*
X20817438Y-44059636D01*
X20817438Y-44059636D02*
X20912676Y-43964398D01*
X20912676Y-43964398D02*
X21007914Y-43916779D01*
X21007914Y-43916779D02*
X21198390Y-43869160D01*
X21198390Y-43869160D02*
X21341247Y-43869160D01*
X21341247Y-43869160D02*
X21531723Y-43916779D01*
X21531723Y-43916779D02*
X21626961Y-43964398D01*
X21626961Y-43964398D02*
X21722200Y-44059636D01*
X21722200Y-44059636D02*
X21769819Y-44202493D01*
X21769819Y-44202493D02*
X21769819Y-44297731D01*
X21769819Y-44297731D02*
X21722200Y-44440588D01*
X21722200Y-44440588D02*
X21674580Y-44488207D01*
X21674580Y-44488207D02*
X21341247Y-44488207D01*
X21341247Y-44488207D02*
X21341247Y-44297731D01*
X21769819Y-44916779D02*
X20769819Y-44916779D01*
X20769819Y-44916779D02*
X21769819Y-45488207D01*
X21769819Y-45488207D02*
X20769819Y-45488207D01*
X21769819Y-45964398D02*
X20769819Y-45964398D01*
X20769819Y-45964398D02*
X20769819Y-46202493D01*
X20769819Y-46202493D02*
X20817438Y-46345350D01*
X20817438Y-46345350D02*
X20912676Y-46440588D01*
X20912676Y-46440588D02*
X21007914Y-46488207D01*
X21007914Y-46488207D02*
X21198390Y-46535826D01*
X21198390Y-46535826D02*
X21341247Y-46535826D01*
X21341247Y-46535826D02*
X21531723Y-46488207D01*
X21531723Y-46488207D02*
X21626961Y-46440588D01*
X21626961Y-46440588D02*
X21722200Y-46345350D01*
X21722200Y-46345350D02*
X21769819Y-46202493D01*
X21769819Y-46202493D02*
X21769819Y-45964398D01*
X43082561Y-122139411D02*
X43130180Y-122234649D01*
X43130180Y-122234649D02*
X43130180Y-122377506D01*
X43130180Y-122377506D02*
X43082561Y-122520363D01*
X43082561Y-122520363D02*
X42987323Y-122615601D01*
X42987323Y-122615601D02*
X42892085Y-122663220D01*
X42892085Y-122663220D02*
X42701609Y-122710839D01*
X42701609Y-122710839D02*
X42558752Y-122710839D01*
X42558752Y-122710839D02*
X42368276Y-122663220D01*
X42368276Y-122663220D02*
X42273038Y-122615601D01*
X42273038Y-122615601D02*
X42177800Y-122520363D01*
X42177800Y-122520363D02*
X42130180Y-122377506D01*
X42130180Y-122377506D02*
X42130180Y-122282268D01*
X42130180Y-122282268D02*
X42177800Y-122139411D01*
X42177800Y-122139411D02*
X42225419Y-122091792D01*
X42225419Y-122091792D02*
X42558752Y-122091792D01*
X42558752Y-122091792D02*
X42558752Y-122282268D01*
X42130180Y-121663220D02*
X43130180Y-121663220D01*
X43130180Y-121663220D02*
X42130180Y-121091792D01*
X42130180Y-121091792D02*
X43130180Y-121091792D01*
X42130180Y-120615601D02*
X43130180Y-120615601D01*
X43130180Y-120615601D02*
X43130180Y-120377506D01*
X43130180Y-120377506D02*
X43082561Y-120234649D01*
X43082561Y-120234649D02*
X42987323Y-120139411D01*
X42987323Y-120139411D02*
X42892085Y-120091792D01*
X42892085Y-120091792D02*
X42701609Y-120044173D01*
X42701609Y-120044173D02*
X42558752Y-120044173D01*
X42558752Y-120044173D02*
X42368276Y-120091792D01*
X42368276Y-120091792D02*
X42273038Y-120139411D01*
X42273038Y-120139411D02*
X42177800Y-120234649D01*
X42177800Y-120234649D02*
X42130180Y-120377506D01*
X42130180Y-120377506D02*
X42130180Y-120615601D01*
X40012980Y-122663220D02*
X41012980Y-122663220D01*
X41012980Y-122663220D02*
X41012980Y-122425125D01*
X41012980Y-122425125D02*
X40965361Y-122282268D01*
X40965361Y-122282268D02*
X40870123Y-122187030D01*
X40870123Y-122187030D02*
X40774885Y-122139411D01*
X40774885Y-122139411D02*
X40584409Y-122091792D01*
X40584409Y-122091792D02*
X40441552Y-122091792D01*
X40441552Y-122091792D02*
X40251076Y-122139411D01*
X40251076Y-122139411D02*
X40155838Y-122187030D01*
X40155838Y-122187030D02*
X40060600Y-122282268D01*
X40060600Y-122282268D02*
X40012980Y-122425125D01*
X40012980Y-122425125D02*
X40012980Y-122663220D01*
X40012980Y-121234649D02*
X40536790Y-121234649D01*
X40536790Y-121234649D02*
X40632028Y-121282268D01*
X40632028Y-121282268D02*
X40679647Y-121377506D01*
X40679647Y-121377506D02*
X40679647Y-121567982D01*
X40679647Y-121567982D02*
X40632028Y-121663220D01*
X40060600Y-121234649D02*
X40012980Y-121329887D01*
X40012980Y-121329887D02*
X40012980Y-121567982D01*
X40012980Y-121567982D02*
X40060600Y-121663220D01*
X40060600Y-121663220D02*
X40155838Y-121710839D01*
X40155838Y-121710839D02*
X40251076Y-121710839D01*
X40251076Y-121710839D02*
X40346314Y-121663220D01*
X40346314Y-121663220D02*
X40393933Y-121567982D01*
X40393933Y-121567982D02*
X40393933Y-121329887D01*
X40393933Y-121329887D02*
X40441552Y-121234649D01*
X40679647Y-120901315D02*
X40679647Y-120520363D01*
X41012980Y-120758458D02*
X40155838Y-120758458D01*
X40155838Y-120758458D02*
X40060600Y-120710839D01*
X40060600Y-120710839D02*
X40012980Y-120615601D01*
X40012980Y-120615601D02*
X40012980Y-120520363D01*
X40012980Y-119758458D02*
X40536790Y-119758458D01*
X40536790Y-119758458D02*
X40632028Y-119806077D01*
X40632028Y-119806077D02*
X40679647Y-119901315D01*
X40679647Y-119901315D02*
X40679647Y-120091791D01*
X40679647Y-120091791D02*
X40632028Y-120187029D01*
X40060600Y-119758458D02*
X40012980Y-119853696D01*
X40012980Y-119853696D02*
X40012980Y-120091791D01*
X40012980Y-120091791D02*
X40060600Y-120187029D01*
X40060600Y-120187029D02*
X40155838Y-120234648D01*
X40155838Y-120234648D02*
X40251076Y-120234648D01*
X40251076Y-120234648D02*
X40346314Y-120187029D01*
X40346314Y-120187029D02*
X40393933Y-120091791D01*
X40393933Y-120091791D02*
X40393933Y-119853696D01*
X40393933Y-119853696D02*
X40441552Y-119758458D01*
X40012980Y-118377505D02*
X40060600Y-118472743D01*
X40060600Y-118472743D02*
X40108219Y-118520362D01*
X40108219Y-118520362D02*
X40203457Y-118567981D01*
X40203457Y-118567981D02*
X40489171Y-118567981D01*
X40489171Y-118567981D02*
X40584409Y-118520362D01*
X40584409Y-118520362D02*
X40632028Y-118472743D01*
X40632028Y-118472743D02*
X40679647Y-118377505D01*
X40679647Y-118377505D02*
X40679647Y-118234648D01*
X40679647Y-118234648D02*
X40632028Y-118139410D01*
X40632028Y-118139410D02*
X40584409Y-118091791D01*
X40584409Y-118091791D02*
X40489171Y-118044172D01*
X40489171Y-118044172D02*
X40203457Y-118044172D01*
X40203457Y-118044172D02*
X40108219Y-118091791D01*
X40108219Y-118091791D02*
X40060600Y-118139410D01*
X40060600Y-118139410D02*
X40012980Y-118234648D01*
X40012980Y-118234648D02*
X40012980Y-118377505D01*
X40679647Y-117187029D02*
X40012980Y-117187029D01*
X40679647Y-117615600D02*
X40155838Y-117615600D01*
X40155838Y-117615600D02*
X40060600Y-117567981D01*
X40060600Y-117567981D02*
X40012980Y-117472743D01*
X40012980Y-117472743D02*
X40012980Y-117329886D01*
X40012980Y-117329886D02*
X40060600Y-117234648D01*
X40060600Y-117234648D02*
X40108219Y-117187029D01*
X40679647Y-116853695D02*
X40679647Y-116472743D01*
X41012980Y-116710838D02*
X40155838Y-116710838D01*
X40155838Y-116710838D02*
X40060600Y-116663219D01*
X40060600Y-116663219D02*
X40012980Y-116567981D01*
X40012980Y-116567981D02*
X40012980Y-116472743D01*
X78923220Y-27429819D02*
X78923220Y-26429819D01*
X78447030Y-27429819D02*
X78447030Y-26429819D01*
X78447030Y-26429819D02*
X77875602Y-27429819D01*
X77875602Y-27429819D02*
X77875602Y-26429819D01*
X188147438Y-37436588D02*
X188099819Y-37341350D01*
X188099819Y-37341350D02*
X188099819Y-37198493D01*
X188099819Y-37198493D02*
X188147438Y-37055636D01*
X188147438Y-37055636D02*
X188242676Y-36960398D01*
X188242676Y-36960398D02*
X188337914Y-36912779D01*
X188337914Y-36912779D02*
X188528390Y-36865160D01*
X188528390Y-36865160D02*
X188671247Y-36865160D01*
X188671247Y-36865160D02*
X188861723Y-36912779D01*
X188861723Y-36912779D02*
X188956961Y-36960398D01*
X188956961Y-36960398D02*
X189052200Y-37055636D01*
X189052200Y-37055636D02*
X189099819Y-37198493D01*
X189099819Y-37198493D02*
X189099819Y-37293731D01*
X189099819Y-37293731D02*
X189052200Y-37436588D01*
X189052200Y-37436588D02*
X189004580Y-37484207D01*
X189004580Y-37484207D02*
X188671247Y-37484207D01*
X188671247Y-37484207D02*
X188671247Y-37293731D01*
X189099819Y-37912779D02*
X188099819Y-37912779D01*
X188099819Y-37912779D02*
X189099819Y-38484207D01*
X189099819Y-38484207D02*
X188099819Y-38484207D01*
X189099819Y-38960398D02*
X188099819Y-38960398D01*
X188099819Y-38960398D02*
X188099819Y-39198493D01*
X188099819Y-39198493D02*
X188147438Y-39341350D01*
X188147438Y-39341350D02*
X188242676Y-39436588D01*
X188242676Y-39436588D02*
X188337914Y-39484207D01*
X188337914Y-39484207D02*
X188528390Y-39531826D01*
X188528390Y-39531826D02*
X188671247Y-39531826D01*
X188671247Y-39531826D02*
X188861723Y-39484207D01*
X188861723Y-39484207D02*
X188956961Y-39436588D01*
X188956961Y-39436588D02*
X189052200Y-39341350D01*
X189052200Y-39341350D02*
X189099819Y-39198493D01*
X189099819Y-39198493D02*
X189099819Y-38960398D01*
X61472744Y-53649819D02*
X61282268Y-53649819D01*
X61282268Y-53649819D02*
X61187030Y-53697438D01*
X61187030Y-53697438D02*
X61091792Y-53792676D01*
X61091792Y-53792676D02*
X61044173Y-53983152D01*
X61044173Y-53983152D02*
X61044173Y-54316485D01*
X61044173Y-54316485D02*
X61091792Y-54506961D01*
X61091792Y-54506961D02*
X61187030Y-54602200D01*
X61187030Y-54602200D02*
X61282268Y-54649819D01*
X61282268Y-54649819D02*
X61472744Y-54649819D01*
X61472744Y-54649819D02*
X61567982Y-54602200D01*
X61567982Y-54602200D02*
X61663220Y-54506961D01*
X61663220Y-54506961D02*
X61710839Y-54316485D01*
X61710839Y-54316485D02*
X61710839Y-53983152D01*
X61710839Y-53983152D02*
X61663220Y-53792676D01*
X61663220Y-53792676D02*
X61567982Y-53697438D01*
X61567982Y-53697438D02*
X61472744Y-53649819D01*
X60615601Y-53983152D02*
X60615601Y-54983152D01*
X60615601Y-54030771D02*
X60520363Y-53983152D01*
X60520363Y-53983152D02*
X60329887Y-53983152D01*
X60329887Y-53983152D02*
X60234649Y-54030771D01*
X60234649Y-54030771D02*
X60187030Y-54078390D01*
X60187030Y-54078390D02*
X60139411Y-54173628D01*
X60139411Y-54173628D02*
X60139411Y-54459342D01*
X60139411Y-54459342D02*
X60187030Y-54554580D01*
X60187030Y-54554580D02*
X60234649Y-54602200D01*
X60234649Y-54602200D02*
X60329887Y-54649819D01*
X60329887Y-54649819D02*
X60520363Y-54649819D01*
X60520363Y-54649819D02*
X60615601Y-54602200D01*
X59329887Y-54602200D02*
X59425125Y-54649819D01*
X59425125Y-54649819D02*
X59615601Y-54649819D01*
X59615601Y-54649819D02*
X59710839Y-54602200D01*
X59710839Y-54602200D02*
X59758458Y-54506961D01*
X59758458Y-54506961D02*
X59758458Y-54126009D01*
X59758458Y-54126009D02*
X59710839Y-54030771D01*
X59710839Y-54030771D02*
X59615601Y-53983152D01*
X59615601Y-53983152D02*
X59425125Y-53983152D01*
X59425125Y-53983152D02*
X59329887Y-54030771D01*
X59329887Y-54030771D02*
X59282268Y-54126009D01*
X59282268Y-54126009D02*
X59282268Y-54221247D01*
X59282268Y-54221247D02*
X59758458Y-54316485D01*
X58853696Y-53983152D02*
X58853696Y-54649819D01*
X58853696Y-54078390D02*
X58806077Y-54030771D01*
X58806077Y-54030771D02*
X58710839Y-53983152D01*
X58710839Y-53983152D02*
X58567982Y-53983152D01*
X58567982Y-53983152D02*
X58472744Y-54030771D01*
X58472744Y-54030771D02*
X58425125Y-54126009D01*
X58425125Y-54126009D02*
X58425125Y-54649819D01*
X57187029Y-54649819D02*
X57187029Y-53649819D01*
X57187029Y-53649819D02*
X56806077Y-53649819D01*
X56806077Y-53649819D02*
X56710839Y-53697438D01*
X56710839Y-53697438D02*
X56663220Y-53745057D01*
X56663220Y-53745057D02*
X56615601Y-53840295D01*
X56615601Y-53840295D02*
X56615601Y-53983152D01*
X56615601Y-53983152D02*
X56663220Y-54078390D01*
X56663220Y-54078390D02*
X56710839Y-54126009D01*
X56710839Y-54126009D02*
X56806077Y-54173628D01*
X56806077Y-54173628D02*
X57187029Y-54173628D01*
X55806077Y-54602200D02*
X55901315Y-54649819D01*
X55901315Y-54649819D02*
X56091791Y-54649819D01*
X56091791Y-54649819D02*
X56187029Y-54602200D01*
X56187029Y-54602200D02*
X56234648Y-54506961D01*
X56234648Y-54506961D02*
X56234648Y-54126009D01*
X56234648Y-54126009D02*
X56187029Y-54030771D01*
X56187029Y-54030771D02*
X56091791Y-53983152D01*
X56091791Y-53983152D02*
X55901315Y-53983152D01*
X55901315Y-53983152D02*
X55806077Y-54030771D01*
X55806077Y-54030771D02*
X55758458Y-54126009D01*
X55758458Y-54126009D02*
X55758458Y-54221247D01*
X55758458Y-54221247D02*
X56234648Y-54316485D01*
X54901315Y-54649819D02*
X54901315Y-53649819D01*
X54901315Y-54602200D02*
X54996553Y-54649819D01*
X54996553Y-54649819D02*
X55187029Y-54649819D01*
X55187029Y-54649819D02*
X55282267Y-54602200D01*
X55282267Y-54602200D02*
X55329886Y-54554580D01*
X55329886Y-54554580D02*
X55377505Y-54459342D01*
X55377505Y-54459342D02*
X55377505Y-54173628D01*
X55377505Y-54173628D02*
X55329886Y-54078390D01*
X55329886Y-54078390D02*
X55282267Y-54030771D01*
X55282267Y-54030771D02*
X55187029Y-53983152D01*
X55187029Y-53983152D02*
X54996553Y-53983152D01*
X54996553Y-53983152D02*
X54901315Y-54030771D01*
X53996553Y-54649819D02*
X53996553Y-54126009D01*
X53996553Y-54126009D02*
X54044172Y-54030771D01*
X54044172Y-54030771D02*
X54139410Y-53983152D01*
X54139410Y-53983152D02*
X54329886Y-53983152D01*
X54329886Y-53983152D02*
X54425124Y-54030771D01*
X53996553Y-54602200D02*
X54091791Y-54649819D01*
X54091791Y-54649819D02*
X54329886Y-54649819D01*
X54329886Y-54649819D02*
X54425124Y-54602200D01*
X54425124Y-54602200D02*
X54472743Y-54506961D01*
X54472743Y-54506961D02*
X54472743Y-54411723D01*
X54472743Y-54411723D02*
X54425124Y-54316485D01*
X54425124Y-54316485D02*
X54329886Y-54268866D01*
X54329886Y-54268866D02*
X54091791Y-54268866D01*
X54091791Y-54268866D02*
X53996553Y-54221247D01*
X53377505Y-54649819D02*
X53472743Y-54602200D01*
X53472743Y-54602200D02*
X53520362Y-54506961D01*
X53520362Y-54506961D02*
X53520362Y-53649819D01*
X52996552Y-54649819D02*
X52996552Y-53649819D01*
X52996552Y-54030771D02*
X52901314Y-53983152D01*
X52901314Y-53983152D02*
X52710838Y-53983152D01*
X52710838Y-53983152D02*
X52615600Y-54030771D01*
X52615600Y-54030771D02*
X52567981Y-54078390D01*
X52567981Y-54078390D02*
X52520362Y-54173628D01*
X52520362Y-54173628D02*
X52520362Y-54459342D01*
X52520362Y-54459342D02*
X52567981Y-54554580D01*
X52567981Y-54554580D02*
X52615600Y-54602200D01*
X52615600Y-54602200D02*
X52710838Y-54649819D01*
X52710838Y-54649819D02*
X52901314Y-54649819D01*
X52901314Y-54649819D02*
X52996552Y-54602200D01*
X51948933Y-54649819D02*
X52044171Y-54602200D01*
X52044171Y-54602200D02*
X52091790Y-54554580D01*
X52091790Y-54554580D02*
X52139409Y-54459342D01*
X52139409Y-54459342D02*
X52139409Y-54173628D01*
X52139409Y-54173628D02*
X52091790Y-54078390D01*
X52091790Y-54078390D02*
X52044171Y-54030771D01*
X52044171Y-54030771D02*
X51948933Y-53983152D01*
X51948933Y-53983152D02*
X51806076Y-53983152D01*
X51806076Y-53983152D02*
X51710838Y-54030771D01*
X51710838Y-54030771D02*
X51663219Y-54078390D01*
X51663219Y-54078390D02*
X51615600Y-54173628D01*
X51615600Y-54173628D02*
X51615600Y-54459342D01*
X51615600Y-54459342D02*
X51663219Y-54554580D01*
X51663219Y-54554580D02*
X51710838Y-54602200D01*
X51710838Y-54602200D02*
X51806076Y-54649819D01*
X51806076Y-54649819D02*
X51948933Y-54649819D01*
X50758457Y-54649819D02*
X50758457Y-54126009D01*
X50758457Y-54126009D02*
X50806076Y-54030771D01*
X50806076Y-54030771D02*
X50901314Y-53983152D01*
X50901314Y-53983152D02*
X51091790Y-53983152D01*
X51091790Y-53983152D02*
X51187028Y-54030771D01*
X50758457Y-54602200D02*
X50853695Y-54649819D01*
X50853695Y-54649819D02*
X51091790Y-54649819D01*
X51091790Y-54649819D02*
X51187028Y-54602200D01*
X51187028Y-54602200D02*
X51234647Y-54506961D01*
X51234647Y-54506961D02*
X51234647Y-54411723D01*
X51234647Y-54411723D02*
X51187028Y-54316485D01*
X51187028Y-54316485D02*
X51091790Y-54268866D01*
X51091790Y-54268866D02*
X50853695Y-54268866D01*
X50853695Y-54268866D02*
X50758457Y-54221247D01*
X50282266Y-54649819D02*
X50282266Y-53983152D01*
X50282266Y-54173628D02*
X50234647Y-54078390D01*
X50234647Y-54078390D02*
X50187028Y-54030771D01*
X50187028Y-54030771D02*
X50091790Y-53983152D01*
X50091790Y-53983152D02*
X49996552Y-53983152D01*
X49234647Y-54649819D02*
X49234647Y-53649819D01*
X49234647Y-54602200D02*
X49329885Y-54649819D01*
X49329885Y-54649819D02*
X49520361Y-54649819D01*
X49520361Y-54649819D02*
X49615599Y-54602200D01*
X49615599Y-54602200D02*
X49663218Y-54554580D01*
X49663218Y-54554580D02*
X49710837Y-54459342D01*
X49710837Y-54459342D02*
X49710837Y-54173628D01*
X49710837Y-54173628D02*
X49663218Y-54078390D01*
X49663218Y-54078390D02*
X49615599Y-54030771D01*
X49615599Y-54030771D02*
X49520361Y-53983152D01*
X49520361Y-53983152D02*
X49329885Y-53983152D01*
X49329885Y-53983152D02*
X49234647Y-54030771D01*
X61663220Y-56259819D02*
X61663220Y-55259819D01*
X61234649Y-56259819D02*
X61234649Y-55736009D01*
X61234649Y-55736009D02*
X61282268Y-55640771D01*
X61282268Y-55640771D02*
X61377506Y-55593152D01*
X61377506Y-55593152D02*
X61520363Y-55593152D01*
X61520363Y-55593152D02*
X61615601Y-55640771D01*
X61615601Y-55640771D02*
X61663220Y-55688390D01*
X60901315Y-55593152D02*
X60520363Y-55593152D01*
X60758458Y-55259819D02*
X60758458Y-56116961D01*
X60758458Y-56116961D02*
X60710839Y-56212200D01*
X60710839Y-56212200D02*
X60615601Y-56259819D01*
X60615601Y-56259819D02*
X60520363Y-56259819D01*
X60329886Y-55593152D02*
X59948934Y-55593152D01*
X60187029Y-55259819D02*
X60187029Y-56116961D01*
X60187029Y-56116961D02*
X60139410Y-56212200D01*
X60139410Y-56212200D02*
X60044172Y-56259819D01*
X60044172Y-56259819D02*
X59948934Y-56259819D01*
X59615600Y-55593152D02*
X59615600Y-56593152D01*
X59615600Y-55640771D02*
X59520362Y-55593152D01*
X59520362Y-55593152D02*
X59329886Y-55593152D01*
X59329886Y-55593152D02*
X59234648Y-55640771D01*
X59234648Y-55640771D02*
X59187029Y-55688390D01*
X59187029Y-55688390D02*
X59139410Y-55783628D01*
X59139410Y-55783628D02*
X59139410Y-56069342D01*
X59139410Y-56069342D02*
X59187029Y-56164580D01*
X59187029Y-56164580D02*
X59234648Y-56212200D01*
X59234648Y-56212200D02*
X59329886Y-56259819D01*
X59329886Y-56259819D02*
X59520362Y-56259819D01*
X59520362Y-56259819D02*
X59615600Y-56212200D01*
X58758457Y-56212200D02*
X58663219Y-56259819D01*
X58663219Y-56259819D02*
X58472743Y-56259819D01*
X58472743Y-56259819D02*
X58377505Y-56212200D01*
X58377505Y-56212200D02*
X58329886Y-56116961D01*
X58329886Y-56116961D02*
X58329886Y-56069342D01*
X58329886Y-56069342D02*
X58377505Y-55974104D01*
X58377505Y-55974104D02*
X58472743Y-55926485D01*
X58472743Y-55926485D02*
X58615600Y-55926485D01*
X58615600Y-55926485D02*
X58710838Y-55878866D01*
X58710838Y-55878866D02*
X58758457Y-55783628D01*
X58758457Y-55783628D02*
X58758457Y-55736009D01*
X58758457Y-55736009D02*
X58710838Y-55640771D01*
X58710838Y-55640771D02*
X58615600Y-55593152D01*
X58615600Y-55593152D02*
X58472743Y-55593152D01*
X58472743Y-55593152D02*
X58377505Y-55640771D01*
X57901314Y-56164580D02*
X57853695Y-56212200D01*
X57853695Y-56212200D02*
X57901314Y-56259819D01*
X57901314Y-56259819D02*
X57948933Y-56212200D01*
X57948933Y-56212200D02*
X57901314Y-56164580D01*
X57901314Y-56164580D02*
X57901314Y-56259819D01*
X57901314Y-55640771D02*
X57853695Y-55688390D01*
X57853695Y-55688390D02*
X57901314Y-55736009D01*
X57901314Y-55736009D02*
X57948933Y-55688390D01*
X57948933Y-55688390D02*
X57901314Y-55640771D01*
X57901314Y-55640771D02*
X57901314Y-55736009D01*
X56710839Y-55212200D02*
X57567981Y-56497914D01*
X55663220Y-55212200D02*
X56520362Y-56497914D01*
X54901315Y-55593152D02*
X54901315Y-56402676D01*
X54901315Y-56402676D02*
X54948934Y-56497914D01*
X54948934Y-56497914D02*
X54996553Y-56545533D01*
X54996553Y-56545533D02*
X55091791Y-56593152D01*
X55091791Y-56593152D02*
X55234648Y-56593152D01*
X55234648Y-56593152D02*
X55329886Y-56545533D01*
X54901315Y-56212200D02*
X54996553Y-56259819D01*
X54996553Y-56259819D02*
X55187029Y-56259819D01*
X55187029Y-56259819D02*
X55282267Y-56212200D01*
X55282267Y-56212200D02*
X55329886Y-56164580D01*
X55329886Y-56164580D02*
X55377505Y-56069342D01*
X55377505Y-56069342D02*
X55377505Y-55783628D01*
X55377505Y-55783628D02*
X55329886Y-55688390D01*
X55329886Y-55688390D02*
X55282267Y-55640771D01*
X55282267Y-55640771D02*
X55187029Y-55593152D01*
X55187029Y-55593152D02*
X54996553Y-55593152D01*
X54996553Y-55593152D02*
X54901315Y-55640771D01*
X54425124Y-56259819D02*
X54425124Y-55593152D01*
X54425124Y-55259819D02*
X54472743Y-55307438D01*
X54472743Y-55307438D02*
X54425124Y-55355057D01*
X54425124Y-55355057D02*
X54377505Y-55307438D01*
X54377505Y-55307438D02*
X54425124Y-55259819D01*
X54425124Y-55259819D02*
X54425124Y-55355057D01*
X54091791Y-55593152D02*
X53710839Y-55593152D01*
X53948934Y-55259819D02*
X53948934Y-56116961D01*
X53948934Y-56116961D02*
X53901315Y-56212200D01*
X53901315Y-56212200D02*
X53806077Y-56259819D01*
X53806077Y-56259819D02*
X53710839Y-56259819D01*
X53377505Y-56259819D02*
X53377505Y-55259819D01*
X52948934Y-56259819D02*
X52948934Y-55736009D01*
X52948934Y-55736009D02*
X52996553Y-55640771D01*
X52996553Y-55640771D02*
X53091791Y-55593152D01*
X53091791Y-55593152D02*
X53234648Y-55593152D01*
X53234648Y-55593152D02*
X53329886Y-55640771D01*
X53329886Y-55640771D02*
X53377505Y-55688390D01*
X52044172Y-55593152D02*
X52044172Y-56259819D01*
X52472743Y-55593152D02*
X52472743Y-56116961D01*
X52472743Y-56116961D02*
X52425124Y-56212200D01*
X52425124Y-56212200D02*
X52329886Y-56259819D01*
X52329886Y-56259819D02*
X52187029Y-56259819D01*
X52187029Y-56259819D02*
X52091791Y-56212200D01*
X52091791Y-56212200D02*
X52044172Y-56164580D01*
X51567981Y-56259819D02*
X51567981Y-55259819D01*
X51567981Y-55640771D02*
X51472743Y-55593152D01*
X51472743Y-55593152D02*
X51282267Y-55593152D01*
X51282267Y-55593152D02*
X51187029Y-55640771D01*
X51187029Y-55640771D02*
X51139410Y-55688390D01*
X51139410Y-55688390D02*
X51091791Y-55783628D01*
X51091791Y-55783628D02*
X51091791Y-56069342D01*
X51091791Y-56069342D02*
X51139410Y-56164580D01*
X51139410Y-56164580D02*
X51187029Y-56212200D01*
X51187029Y-56212200D02*
X51282267Y-56259819D01*
X51282267Y-56259819D02*
X51472743Y-56259819D01*
X51472743Y-56259819D02*
X51567981Y-56212200D01*
X50663219Y-56164580D02*
X50615600Y-56212200D01*
X50615600Y-56212200D02*
X50663219Y-56259819D01*
X50663219Y-56259819D02*
X50710838Y-56212200D01*
X50710838Y-56212200D02*
X50663219Y-56164580D01*
X50663219Y-56164580D02*
X50663219Y-56259819D01*
X49758458Y-56212200D02*
X49853696Y-56259819D01*
X49853696Y-56259819D02*
X50044172Y-56259819D01*
X50044172Y-56259819D02*
X50139410Y-56212200D01*
X50139410Y-56212200D02*
X50187029Y-56164580D01*
X50187029Y-56164580D02*
X50234648Y-56069342D01*
X50234648Y-56069342D02*
X50234648Y-55783628D01*
X50234648Y-55783628D02*
X50187029Y-55688390D01*
X50187029Y-55688390D02*
X50139410Y-55640771D01*
X50139410Y-55640771D02*
X50044172Y-55593152D01*
X50044172Y-55593152D02*
X49853696Y-55593152D01*
X49853696Y-55593152D02*
X49758458Y-55640771D01*
X49187029Y-56259819D02*
X49282267Y-56212200D01*
X49282267Y-56212200D02*
X49329886Y-56164580D01*
X49329886Y-56164580D02*
X49377505Y-56069342D01*
X49377505Y-56069342D02*
X49377505Y-55783628D01*
X49377505Y-55783628D02*
X49329886Y-55688390D01*
X49329886Y-55688390D02*
X49282267Y-55640771D01*
X49282267Y-55640771D02*
X49187029Y-55593152D01*
X49187029Y-55593152D02*
X49044172Y-55593152D01*
X49044172Y-55593152D02*
X48948934Y-55640771D01*
X48948934Y-55640771D02*
X48901315Y-55688390D01*
X48901315Y-55688390D02*
X48853696Y-55783628D01*
X48853696Y-55783628D02*
X48853696Y-56069342D01*
X48853696Y-56069342D02*
X48901315Y-56164580D01*
X48901315Y-56164580D02*
X48948934Y-56212200D01*
X48948934Y-56212200D02*
X49044172Y-56259819D01*
X49044172Y-56259819D02*
X49187029Y-56259819D01*
X48425124Y-56259819D02*
X48425124Y-55593152D01*
X48425124Y-55688390D02*
X48377505Y-55640771D01*
X48377505Y-55640771D02*
X48282267Y-55593152D01*
X48282267Y-55593152D02*
X48139410Y-55593152D01*
X48139410Y-55593152D02*
X48044172Y-55640771D01*
X48044172Y-55640771D02*
X47996553Y-55736009D01*
X47996553Y-55736009D02*
X47996553Y-56259819D01*
X47996553Y-55736009D02*
X47948934Y-55640771D01*
X47948934Y-55640771D02*
X47853696Y-55593152D01*
X47853696Y-55593152D02*
X47710839Y-55593152D01*
X47710839Y-55593152D02*
X47615600Y-55640771D01*
X47615600Y-55640771D02*
X47567981Y-55736009D01*
X47567981Y-55736009D02*
X47567981Y-56259819D01*
X46377506Y-55212200D02*
X47234648Y-56497914D01*
X46044172Y-55593152D02*
X46044172Y-56593152D01*
X46044172Y-55640771D02*
X45948934Y-55593152D01*
X45948934Y-55593152D02*
X45758458Y-55593152D01*
X45758458Y-55593152D02*
X45663220Y-55640771D01*
X45663220Y-55640771D02*
X45615601Y-55688390D01*
X45615601Y-55688390D02*
X45567982Y-55783628D01*
X45567982Y-55783628D02*
X45567982Y-56069342D01*
X45567982Y-56069342D02*
X45615601Y-56164580D01*
X45615601Y-56164580D02*
X45663220Y-56212200D01*
X45663220Y-56212200D02*
X45758458Y-56259819D01*
X45758458Y-56259819D02*
X45948934Y-56259819D01*
X45948934Y-56259819D02*
X46044172Y-56212200D01*
X44758458Y-56212200D02*
X44853696Y-56259819D01*
X44853696Y-56259819D02*
X45044172Y-56259819D01*
X45044172Y-56259819D02*
X45139410Y-56212200D01*
X45139410Y-56212200D02*
X45187029Y-56116961D01*
X45187029Y-56116961D02*
X45187029Y-55736009D01*
X45187029Y-55736009D02*
X45139410Y-55640771D01*
X45139410Y-55640771D02*
X45044172Y-55593152D01*
X45044172Y-55593152D02*
X44853696Y-55593152D01*
X44853696Y-55593152D02*
X44758458Y-55640771D01*
X44758458Y-55640771D02*
X44710839Y-55736009D01*
X44710839Y-55736009D02*
X44710839Y-55831247D01*
X44710839Y-55831247D02*
X45187029Y-55926485D01*
X43853696Y-56259819D02*
X43853696Y-55259819D01*
X43853696Y-56212200D02*
X43948934Y-56259819D01*
X43948934Y-56259819D02*
X44139410Y-56259819D01*
X44139410Y-56259819D02*
X44234648Y-56212200D01*
X44234648Y-56212200D02*
X44282267Y-56164580D01*
X44282267Y-56164580D02*
X44329886Y-56069342D01*
X44329886Y-56069342D02*
X44329886Y-55783628D01*
X44329886Y-55783628D02*
X44282267Y-55688390D01*
X44282267Y-55688390D02*
X44234648Y-55640771D01*
X44234648Y-55640771D02*
X44139410Y-55593152D01*
X44139410Y-55593152D02*
X43948934Y-55593152D01*
X43948934Y-55593152D02*
X43853696Y-55640771D01*
X42948934Y-56259819D02*
X42948934Y-55736009D01*
X42948934Y-55736009D02*
X42996553Y-55640771D01*
X42996553Y-55640771D02*
X43091791Y-55593152D01*
X43091791Y-55593152D02*
X43282267Y-55593152D01*
X43282267Y-55593152D02*
X43377505Y-55640771D01*
X42948934Y-56212200D02*
X43044172Y-56259819D01*
X43044172Y-56259819D02*
X43282267Y-56259819D01*
X43282267Y-56259819D02*
X43377505Y-56212200D01*
X43377505Y-56212200D02*
X43425124Y-56116961D01*
X43425124Y-56116961D02*
X43425124Y-56021723D01*
X43425124Y-56021723D02*
X43377505Y-55926485D01*
X43377505Y-55926485D02*
X43282267Y-55878866D01*
X43282267Y-55878866D02*
X43044172Y-55878866D01*
X43044172Y-55878866D02*
X42948934Y-55831247D01*
X42329886Y-56259819D02*
X42425124Y-56212200D01*
X42425124Y-56212200D02*
X42472743Y-56116961D01*
X42472743Y-56116961D02*
X42472743Y-55259819D01*
X41948933Y-56259819D02*
X41948933Y-55259819D01*
X41948933Y-55640771D02*
X41853695Y-55593152D01*
X41853695Y-55593152D02*
X41663219Y-55593152D01*
X41663219Y-55593152D02*
X41567981Y-55640771D01*
X41567981Y-55640771D02*
X41520362Y-55688390D01*
X41520362Y-55688390D02*
X41472743Y-55783628D01*
X41472743Y-55783628D02*
X41472743Y-56069342D01*
X41472743Y-56069342D02*
X41520362Y-56164580D01*
X41520362Y-56164580D02*
X41567981Y-56212200D01*
X41567981Y-56212200D02*
X41663219Y-56259819D01*
X41663219Y-56259819D02*
X41853695Y-56259819D01*
X41853695Y-56259819D02*
X41948933Y-56212200D01*
X40901314Y-56259819D02*
X40996552Y-56212200D01*
X40996552Y-56212200D02*
X41044171Y-56164580D01*
X41044171Y-56164580D02*
X41091790Y-56069342D01*
X41091790Y-56069342D02*
X41091790Y-55783628D01*
X41091790Y-55783628D02*
X41044171Y-55688390D01*
X41044171Y-55688390D02*
X40996552Y-55640771D01*
X40996552Y-55640771D02*
X40901314Y-55593152D01*
X40901314Y-55593152D02*
X40758457Y-55593152D01*
X40758457Y-55593152D02*
X40663219Y-55640771D01*
X40663219Y-55640771D02*
X40615600Y-55688390D01*
X40615600Y-55688390D02*
X40567981Y-55783628D01*
X40567981Y-55783628D02*
X40567981Y-56069342D01*
X40567981Y-56069342D02*
X40615600Y-56164580D01*
X40615600Y-56164580D02*
X40663219Y-56212200D01*
X40663219Y-56212200D02*
X40758457Y-56259819D01*
X40758457Y-56259819D02*
X40901314Y-56259819D01*
X39710838Y-56259819D02*
X39710838Y-55736009D01*
X39710838Y-55736009D02*
X39758457Y-55640771D01*
X39758457Y-55640771D02*
X39853695Y-55593152D01*
X39853695Y-55593152D02*
X40044171Y-55593152D01*
X40044171Y-55593152D02*
X40139409Y-55640771D01*
X39710838Y-56212200D02*
X39806076Y-56259819D01*
X39806076Y-56259819D02*
X40044171Y-56259819D01*
X40044171Y-56259819D02*
X40139409Y-56212200D01*
X40139409Y-56212200D02*
X40187028Y-56116961D01*
X40187028Y-56116961D02*
X40187028Y-56021723D01*
X40187028Y-56021723D02*
X40139409Y-55926485D01*
X40139409Y-55926485D02*
X40044171Y-55878866D01*
X40044171Y-55878866D02*
X39806076Y-55878866D01*
X39806076Y-55878866D02*
X39710838Y-55831247D01*
X39234647Y-56259819D02*
X39234647Y-55593152D01*
X39234647Y-55783628D02*
X39187028Y-55688390D01*
X39187028Y-55688390D02*
X39139409Y-55640771D01*
X39139409Y-55640771D02*
X39044171Y-55593152D01*
X39044171Y-55593152D02*
X38948933Y-55593152D01*
X38187028Y-56259819D02*
X38187028Y-55259819D01*
X38187028Y-56212200D02*
X38282266Y-56259819D01*
X38282266Y-56259819D02*
X38472742Y-56259819D01*
X38472742Y-56259819D02*
X38567980Y-56212200D01*
X38567980Y-56212200D02*
X38615599Y-56164580D01*
X38615599Y-56164580D02*
X38663218Y-56069342D01*
X38663218Y-56069342D02*
X38663218Y-55783628D01*
X38663218Y-55783628D02*
X38615599Y-55688390D01*
X38615599Y-55688390D02*
X38567980Y-55640771D01*
X38567980Y-55640771D02*
X38472742Y-55593152D01*
X38472742Y-55593152D02*
X38282266Y-55593152D01*
X38282266Y-55593152D02*
X38187028Y-55640771D01*
X61329887Y-57346009D02*
X61187030Y-57393628D01*
X61187030Y-57393628D02*
X61139411Y-57441247D01*
X61139411Y-57441247D02*
X61091792Y-57536485D01*
X61091792Y-57536485D02*
X61091792Y-57679342D01*
X61091792Y-57679342D02*
X61139411Y-57774580D01*
X61139411Y-57774580D02*
X61187030Y-57822200D01*
X61187030Y-57822200D02*
X61282268Y-57869819D01*
X61282268Y-57869819D02*
X61663220Y-57869819D01*
X61663220Y-57869819D02*
X61663220Y-56869819D01*
X61663220Y-56869819D02*
X61329887Y-56869819D01*
X61329887Y-56869819D02*
X61234649Y-56917438D01*
X61234649Y-56917438D02*
X61187030Y-56965057D01*
X61187030Y-56965057D02*
X61139411Y-57060295D01*
X61139411Y-57060295D02*
X61139411Y-57155533D01*
X61139411Y-57155533D02*
X61187030Y-57250771D01*
X61187030Y-57250771D02*
X61234649Y-57298390D01*
X61234649Y-57298390D02*
X61329887Y-57346009D01*
X61329887Y-57346009D02*
X61663220Y-57346009D01*
X60091792Y-57774580D02*
X60139411Y-57822200D01*
X60139411Y-57822200D02*
X60282268Y-57869819D01*
X60282268Y-57869819D02*
X60377506Y-57869819D01*
X60377506Y-57869819D02*
X60520363Y-57822200D01*
X60520363Y-57822200D02*
X60615601Y-57726961D01*
X60615601Y-57726961D02*
X60663220Y-57631723D01*
X60663220Y-57631723D02*
X60710839Y-57441247D01*
X60710839Y-57441247D02*
X60710839Y-57298390D01*
X60710839Y-57298390D02*
X60663220Y-57107914D01*
X60663220Y-57107914D02*
X60615601Y-57012676D01*
X60615601Y-57012676D02*
X60520363Y-56917438D01*
X60520363Y-56917438D02*
X60377506Y-56869819D01*
X60377506Y-56869819D02*
X60282268Y-56869819D01*
X60282268Y-56869819D02*
X60139411Y-56917438D01*
X60139411Y-56917438D02*
X60091792Y-56965057D01*
X59329887Y-57346009D02*
X59187030Y-57393628D01*
X59187030Y-57393628D02*
X59139411Y-57441247D01*
X59139411Y-57441247D02*
X59091792Y-57536485D01*
X59091792Y-57536485D02*
X59091792Y-57679342D01*
X59091792Y-57679342D02*
X59139411Y-57774580D01*
X59139411Y-57774580D02*
X59187030Y-57822200D01*
X59187030Y-57822200D02*
X59282268Y-57869819D01*
X59282268Y-57869819D02*
X59663220Y-57869819D01*
X59663220Y-57869819D02*
X59663220Y-56869819D01*
X59663220Y-56869819D02*
X59329887Y-56869819D01*
X59329887Y-56869819D02*
X59234649Y-56917438D01*
X59234649Y-56917438D02*
X59187030Y-56965057D01*
X59187030Y-56965057D02*
X59139411Y-57060295D01*
X59139411Y-57060295D02*
X59139411Y-57155533D01*
X59139411Y-57155533D02*
X59187030Y-57250771D01*
X59187030Y-57250771D02*
X59234649Y-57298390D01*
X59234649Y-57298390D02*
X59329887Y-57346009D01*
X59329887Y-57346009D02*
X59663220Y-57346009D01*
X58663220Y-57774580D02*
X58615601Y-57822200D01*
X58615601Y-57822200D02*
X58663220Y-57869819D01*
X58663220Y-57869819D02*
X58710839Y-57822200D01*
X58710839Y-57822200D02*
X58663220Y-57774580D01*
X58663220Y-57774580D02*
X58663220Y-57869819D01*
X58663220Y-57250771D02*
X58615601Y-57298390D01*
X58615601Y-57298390D02*
X58663220Y-57346009D01*
X58663220Y-57346009D02*
X58710839Y-57298390D01*
X58710839Y-57298390D02*
X58663220Y-57250771D01*
X58663220Y-57250771D02*
X58663220Y-57346009D01*
X57520363Y-56869819D02*
X56901316Y-56869819D01*
X56901316Y-56869819D02*
X57234649Y-57250771D01*
X57234649Y-57250771D02*
X57091792Y-57250771D01*
X57091792Y-57250771D02*
X56996554Y-57298390D01*
X56996554Y-57298390D02*
X56948935Y-57346009D01*
X56948935Y-57346009D02*
X56901316Y-57441247D01*
X56901316Y-57441247D02*
X56901316Y-57679342D01*
X56901316Y-57679342D02*
X56948935Y-57774580D01*
X56948935Y-57774580D02*
X56996554Y-57822200D01*
X56996554Y-57822200D02*
X57091792Y-57869819D01*
X57091792Y-57869819D02*
X57377506Y-57869819D01*
X57377506Y-57869819D02*
X57472744Y-57822200D01*
X57472744Y-57822200D02*
X57520363Y-57774580D01*
X56472744Y-57774580D02*
X56425125Y-57822200D01*
X56425125Y-57822200D02*
X56472744Y-57869819D01*
X56472744Y-57869819D02*
X56520363Y-57822200D01*
X56520363Y-57822200D02*
X56472744Y-57774580D01*
X56472744Y-57774580D02*
X56472744Y-57869819D01*
X55806078Y-56869819D02*
X55710840Y-56869819D01*
X55710840Y-56869819D02*
X55615602Y-56917438D01*
X55615602Y-56917438D02*
X55567983Y-56965057D01*
X55567983Y-56965057D02*
X55520364Y-57060295D01*
X55520364Y-57060295D02*
X55472745Y-57250771D01*
X55472745Y-57250771D02*
X55472745Y-57488866D01*
X55472745Y-57488866D02*
X55520364Y-57679342D01*
X55520364Y-57679342D02*
X55567983Y-57774580D01*
X55567983Y-57774580D02*
X55615602Y-57822200D01*
X55615602Y-57822200D02*
X55710840Y-57869819D01*
X55710840Y-57869819D02*
X55806078Y-57869819D01*
X55806078Y-57869819D02*
X55901316Y-57822200D01*
X55901316Y-57822200D02*
X55948935Y-57774580D01*
X55948935Y-57774580D02*
X55996554Y-57679342D01*
X55996554Y-57679342D02*
X56044173Y-57488866D01*
X56044173Y-57488866D02*
X56044173Y-57250771D01*
X56044173Y-57250771D02*
X55996554Y-57060295D01*
X55996554Y-57060295D02*
X55948935Y-56965057D01*
X55948935Y-56965057D02*
X55901316Y-56917438D01*
X55901316Y-56917438D02*
X55806078Y-56869819D01*
X55044173Y-57774580D02*
X54996554Y-57822200D01*
X54996554Y-57822200D02*
X55044173Y-57869819D01*
X55044173Y-57869819D02*
X55091792Y-57822200D01*
X55091792Y-57822200D02*
X55044173Y-57774580D01*
X55044173Y-57774580D02*
X55044173Y-57869819D01*
X54615602Y-56965057D02*
X54567983Y-56917438D01*
X54567983Y-56917438D02*
X54472745Y-56869819D01*
X54472745Y-56869819D02*
X54234650Y-56869819D01*
X54234650Y-56869819D02*
X54139412Y-56917438D01*
X54139412Y-56917438D02*
X54091793Y-56965057D01*
X54091793Y-56965057D02*
X54044174Y-57060295D01*
X54044174Y-57060295D02*
X54044174Y-57155533D01*
X54044174Y-57155533D02*
X54091793Y-57298390D01*
X54091793Y-57298390D02*
X54663221Y-57869819D01*
X54663221Y-57869819D02*
X54044174Y-57869819D01*
X53615602Y-57488866D02*
X52853698Y-57488866D01*
X51806079Y-57869819D02*
X52139412Y-57393628D01*
X52377507Y-57869819D02*
X52377507Y-56869819D01*
X52377507Y-56869819D02*
X51996555Y-56869819D01*
X51996555Y-56869819D02*
X51901317Y-56917438D01*
X51901317Y-56917438D02*
X51853698Y-56965057D01*
X51853698Y-56965057D02*
X51806079Y-57060295D01*
X51806079Y-57060295D02*
X51806079Y-57203152D01*
X51806079Y-57203152D02*
X51853698Y-57298390D01*
X51853698Y-57298390D02*
X51901317Y-57346009D01*
X51901317Y-57346009D02*
X51996555Y-57393628D01*
X51996555Y-57393628D02*
X52377507Y-57393628D01*
X50806079Y-57774580D02*
X50853698Y-57822200D01*
X50853698Y-57822200D02*
X50996555Y-57869819D01*
X50996555Y-57869819D02*
X51091793Y-57869819D01*
X51091793Y-57869819D02*
X51234650Y-57822200D01*
X51234650Y-57822200D02*
X51329888Y-57726961D01*
X51329888Y-57726961D02*
X51377507Y-57631723D01*
X51377507Y-57631723D02*
X51425126Y-57441247D01*
X51425126Y-57441247D02*
X51425126Y-57298390D01*
X51425126Y-57298390D02*
X51377507Y-57107914D01*
X51377507Y-57107914D02*
X51329888Y-57012676D01*
X51329888Y-57012676D02*
X51234650Y-56917438D01*
X51234650Y-56917438D02*
X51091793Y-56869819D01*
X51091793Y-56869819D02*
X50996555Y-56869819D01*
X50996555Y-56869819D02*
X50853698Y-56917438D01*
X50853698Y-56917438D02*
X50806079Y-56965057D01*
X34079819Y-43333922D02*
X35079819Y-43667255D01*
X35079819Y-43667255D02*
X34079819Y-44000588D01*
X35079819Y-44905350D02*
X34603628Y-44572017D01*
X35079819Y-44333922D02*
X34079819Y-44333922D01*
X34079819Y-44333922D02*
X34079819Y-44714874D01*
X34079819Y-44714874D02*
X34127438Y-44810112D01*
X34127438Y-44810112D02*
X34175057Y-44857731D01*
X34175057Y-44857731D02*
X34270295Y-44905350D01*
X34270295Y-44905350D02*
X34413152Y-44905350D01*
X34413152Y-44905350D02*
X34508390Y-44857731D01*
X34508390Y-44857731D02*
X34556009Y-44810112D01*
X34556009Y-44810112D02*
X34603628Y-44714874D01*
X34603628Y-44714874D02*
X34603628Y-44333922D01*
X34556009Y-45333922D02*
X34556009Y-45667255D01*
X35079819Y-45810112D02*
X35079819Y-45333922D01*
X35079819Y-45333922D02*
X34079819Y-45333922D01*
X34079819Y-45333922D02*
X34079819Y-45810112D01*
X34556009Y-46572017D02*
X34556009Y-46238684D01*
X35079819Y-46238684D02*
X34079819Y-46238684D01*
X34079819Y-46238684D02*
X34079819Y-46714874D01*
X38511133Y-122663220D02*
X38511133Y-121901316D01*
X38130180Y-122282268D02*
X38892085Y-122282268D01*
X39130180Y-120948935D02*
X39130180Y-121425125D01*
X39130180Y-121425125D02*
X38653990Y-121472744D01*
X38653990Y-121472744D02*
X38701609Y-121425125D01*
X38701609Y-121425125D02*
X38749228Y-121329887D01*
X38749228Y-121329887D02*
X38749228Y-121091792D01*
X38749228Y-121091792D02*
X38701609Y-120996554D01*
X38701609Y-120996554D02*
X38653990Y-120948935D01*
X38653990Y-120948935D02*
X38558752Y-120901316D01*
X38558752Y-120901316D02*
X38320657Y-120901316D01*
X38320657Y-120901316D02*
X38225419Y-120948935D01*
X38225419Y-120948935D02*
X38177800Y-120996554D01*
X38177800Y-120996554D02*
X38130180Y-121091792D01*
X38130180Y-121091792D02*
X38130180Y-121329887D01*
X38130180Y-121329887D02*
X38177800Y-121425125D01*
X38177800Y-121425125D02*
X38225419Y-121472744D01*
X39130180Y-120615601D02*
X38130180Y-120282268D01*
X38130180Y-120282268D02*
X39130180Y-119948935D01*
X55854173Y-23428628D02*
X55854173Y-21928628D01*
X55854173Y-21928628D02*
X55354173Y-23000057D01*
X55354173Y-23000057D02*
X54854173Y-21928628D01*
X54854173Y-21928628D02*
X54854173Y-23428628D01*
X54139887Y-23428628D02*
X54139887Y-21928628D01*
X53425601Y-23428628D02*
X53425601Y-21928628D01*
X53425601Y-21928628D02*
X53068458Y-21928628D01*
X53068458Y-21928628D02*
X52854172Y-22000057D01*
X52854172Y-22000057D02*
X52711315Y-22142914D01*
X52711315Y-22142914D02*
X52639886Y-22285771D01*
X52639886Y-22285771D02*
X52568458Y-22571485D01*
X52568458Y-22571485D02*
X52568458Y-22785771D01*
X52568458Y-22785771D02*
X52639886Y-23071485D01*
X52639886Y-23071485D02*
X52711315Y-23214342D01*
X52711315Y-23214342D02*
X52854172Y-23357200D01*
X52854172Y-23357200D02*
X53068458Y-23428628D01*
X53068458Y-23428628D02*
X53425601Y-23428628D01*
X51925601Y-23428628D02*
X51925601Y-21928628D01*
X134310619Y-57188379D02*
X133643952Y-57188379D01*
X133310619Y-57188379D02*
X133358238Y-57140760D01*
X133358238Y-57140760D02*
X133405857Y-57188379D01*
X133405857Y-57188379D02*
X133358238Y-57235998D01*
X133358238Y-57235998D02*
X133310619Y-57188379D01*
X133310619Y-57188379D02*
X133405857Y-57188379D01*
X133643952Y-57664569D02*
X134310619Y-57664569D01*
X133739190Y-57664569D02*
X133691571Y-57712188D01*
X133691571Y-57712188D02*
X133643952Y-57807426D01*
X133643952Y-57807426D02*
X133643952Y-57950283D01*
X133643952Y-57950283D02*
X133691571Y-58045521D01*
X133691571Y-58045521D02*
X133786809Y-58093140D01*
X133786809Y-58093140D02*
X134310619Y-58093140D01*
X52187030Y-129869819D02*
X52663220Y-129869819D01*
X52663220Y-129869819D02*
X52663220Y-128869819D01*
X51853696Y-129346009D02*
X51520363Y-129346009D01*
X51377506Y-129869819D02*
X51853696Y-129869819D01*
X51853696Y-129869819D02*
X51853696Y-128869819D01*
X51853696Y-128869819D02*
X51377506Y-128869819D01*
X50948934Y-129869819D02*
X50948934Y-128869819D01*
X50948934Y-128869819D02*
X50710839Y-128869819D01*
X50710839Y-128869819D02*
X50567982Y-128917438D01*
X50567982Y-128917438D02*
X50472744Y-129012676D01*
X50472744Y-129012676D02*
X50425125Y-129107914D01*
X50425125Y-129107914D02*
X50377506Y-129298390D01*
X50377506Y-129298390D02*
X50377506Y-129441247D01*
X50377506Y-129441247D02*
X50425125Y-129631723D01*
X50425125Y-129631723D02*
X50472744Y-129726961D01*
X50472744Y-129726961D02*
X50567982Y-129822200D01*
X50567982Y-129822200D02*
X50710839Y-129869819D01*
X50710839Y-129869819D02*
X50948934Y-129869819D01*
X48996553Y-128869819D02*
X48806077Y-128869819D01*
X48806077Y-128869819D02*
X48710839Y-128917438D01*
X48710839Y-128917438D02*
X48615601Y-129012676D01*
X48615601Y-129012676D02*
X48567982Y-129203152D01*
X48567982Y-129203152D02*
X48567982Y-129536485D01*
X48567982Y-129536485D02*
X48615601Y-129726961D01*
X48615601Y-129726961D02*
X48710839Y-129822200D01*
X48710839Y-129822200D02*
X48806077Y-129869819D01*
X48806077Y-129869819D02*
X48996553Y-129869819D01*
X48996553Y-129869819D02*
X49091791Y-129822200D01*
X49091791Y-129822200D02*
X49187029Y-129726961D01*
X49187029Y-129726961D02*
X49234648Y-129536485D01*
X49234648Y-129536485D02*
X49234648Y-129203152D01*
X49234648Y-129203152D02*
X49187029Y-129012676D01*
X49187029Y-129012676D02*
X49091791Y-128917438D01*
X49091791Y-128917438D02*
X48996553Y-128869819D01*
X48139410Y-128869819D02*
X48139410Y-129679342D01*
X48139410Y-129679342D02*
X48091791Y-129774580D01*
X48091791Y-129774580D02*
X48044172Y-129822200D01*
X48044172Y-129822200D02*
X47948934Y-129869819D01*
X47948934Y-129869819D02*
X47758458Y-129869819D01*
X47758458Y-129869819D02*
X47663220Y-129822200D01*
X47663220Y-129822200D02*
X47615601Y-129774580D01*
X47615601Y-129774580D02*
X47567982Y-129679342D01*
X47567982Y-129679342D02*
X47567982Y-128869819D01*
X47234648Y-128869819D02*
X46663220Y-128869819D01*
X46948934Y-129869819D02*
X46948934Y-128869819D01*
X182648219Y-37115979D02*
X181648219Y-37115979D01*
X182648219Y-37592169D02*
X181648219Y-37592169D01*
X181648219Y-37592169D02*
X182648219Y-38163597D01*
X182648219Y-38163597D02*
X181648219Y-38163597D01*
X57692744Y-26689819D02*
X57502268Y-26689819D01*
X57502268Y-26689819D02*
X57407030Y-26737438D01*
X57407030Y-26737438D02*
X57311792Y-26832676D01*
X57311792Y-26832676D02*
X57264173Y-27023152D01*
X57264173Y-27023152D02*
X57264173Y-27356485D01*
X57264173Y-27356485D02*
X57311792Y-27546961D01*
X57311792Y-27546961D02*
X57407030Y-27642200D01*
X57407030Y-27642200D02*
X57502268Y-27689819D01*
X57502268Y-27689819D02*
X57692744Y-27689819D01*
X57692744Y-27689819D02*
X57787982Y-27642200D01*
X57787982Y-27642200D02*
X57883220Y-27546961D01*
X57883220Y-27546961D02*
X57930839Y-27356485D01*
X57930839Y-27356485D02*
X57930839Y-27023152D01*
X57930839Y-27023152D02*
X57883220Y-26832676D01*
X57883220Y-26832676D02*
X57787982Y-26737438D01*
X57787982Y-26737438D02*
X57692744Y-26689819D01*
X56835601Y-26689819D02*
X56835601Y-27499342D01*
X56835601Y-27499342D02*
X56787982Y-27594580D01*
X56787982Y-27594580D02*
X56740363Y-27642200D01*
X56740363Y-27642200D02*
X56645125Y-27689819D01*
X56645125Y-27689819D02*
X56454649Y-27689819D01*
X56454649Y-27689819D02*
X56359411Y-27642200D01*
X56359411Y-27642200D02*
X56311792Y-27594580D01*
X56311792Y-27594580D02*
X56264173Y-27499342D01*
X56264173Y-27499342D02*
X56264173Y-26689819D01*
X55930839Y-26689819D02*
X55359411Y-26689819D01*
X55645125Y-27689819D02*
X55645125Y-26689819D01*
X28849819Y-43736779D02*
X27849819Y-43736779D01*
X28849819Y-44212969D02*
X27849819Y-44212969D01*
X27849819Y-44212969D02*
X28849819Y-44784397D01*
X28849819Y-44784397D02*
X27849819Y-44784397D01*
X175196619Y-36871522D02*
X176196619Y-37204855D01*
X176196619Y-37204855D02*
X175196619Y-37538188D01*
X176196619Y-38442950D02*
X175720428Y-38109617D01*
X176196619Y-37871522D02*
X175196619Y-37871522D01*
X175196619Y-37871522D02*
X175196619Y-38252474D01*
X175196619Y-38252474D02*
X175244238Y-38347712D01*
X175244238Y-38347712D02*
X175291857Y-38395331D01*
X175291857Y-38395331D02*
X175387095Y-38442950D01*
X175387095Y-38442950D02*
X175529952Y-38442950D01*
X175529952Y-38442950D02*
X175625190Y-38395331D01*
X175625190Y-38395331D02*
X175672809Y-38347712D01*
X175672809Y-38347712D02*
X175720428Y-38252474D01*
X175720428Y-38252474D02*
X175720428Y-37871522D01*
X175672809Y-38871522D02*
X175672809Y-39204855D01*
X176196619Y-39347712D02*
X176196619Y-38871522D01*
X176196619Y-38871522D02*
X175196619Y-38871522D01*
X175196619Y-38871522D02*
X175196619Y-39347712D01*
X175672809Y-40109617D02*
X175672809Y-39776284D01*
X176196619Y-39776284D02*
X175196619Y-39776284D01*
X175196619Y-39776284D02*
X175196619Y-40252474D01*
X116392857Y-42949580D02*
X116440476Y-42997200D01*
X116440476Y-42997200D02*
X116583333Y-43044819D01*
X116583333Y-43044819D02*
X116678571Y-43044819D01*
X116678571Y-43044819D02*
X116821428Y-42997200D01*
X116821428Y-42997200D02*
X116916666Y-42901961D01*
X116916666Y-42901961D02*
X116964285Y-42806723D01*
X116964285Y-42806723D02*
X117011904Y-42616247D01*
X117011904Y-42616247D02*
X117011904Y-42473390D01*
X117011904Y-42473390D02*
X116964285Y-42282914D01*
X116964285Y-42282914D02*
X116916666Y-42187676D01*
X116916666Y-42187676D02*
X116821428Y-42092438D01*
X116821428Y-42092438D02*
X116678571Y-42044819D01*
X116678571Y-42044819D02*
X116583333Y-42044819D01*
X116583333Y-42044819D02*
X116440476Y-42092438D01*
X116440476Y-42092438D02*
X116392857Y-42140057D01*
X116011904Y-42140057D02*
X115964285Y-42092438D01*
X115964285Y-42092438D02*
X115869047Y-42044819D01*
X115869047Y-42044819D02*
X115630952Y-42044819D01*
X115630952Y-42044819D02*
X115535714Y-42092438D01*
X115535714Y-42092438D02*
X115488095Y-42140057D01*
X115488095Y-42140057D02*
X115440476Y-42235295D01*
X115440476Y-42235295D02*
X115440476Y-42330533D01*
X115440476Y-42330533D02*
X115488095Y-42473390D01*
X115488095Y-42473390D02*
X116059523Y-43044819D01*
X116059523Y-43044819D02*
X115440476Y-43044819D01*
X115107142Y-42044819D02*
X114440476Y-42044819D01*
X114440476Y-42044819D02*
X114869047Y-43044819D01*
X26738094Y-123954819D02*
X26738094Y-122954819D01*
X26738094Y-123431009D02*
X26166666Y-123431009D01*
X26166666Y-123954819D02*
X26166666Y-122954819D01*
X25166666Y-123954819D02*
X25738094Y-123954819D01*
X25452380Y-123954819D02*
X25452380Y-122954819D01*
X25452380Y-122954819D02*
X25547618Y-123097676D01*
X25547618Y-123097676D02*
X25642856Y-123192914D01*
X25642856Y-123192914D02*
X25738094Y-123240533D01*
X24833332Y-122954819D02*
X24214285Y-122954819D01*
X24214285Y-122954819D02*
X24547618Y-123335771D01*
X24547618Y-123335771D02*
X24404761Y-123335771D01*
X24404761Y-123335771D02*
X24309523Y-123383390D01*
X24309523Y-123383390D02*
X24261904Y-123431009D01*
X24261904Y-123431009D02*
X24214285Y-123526247D01*
X24214285Y-123526247D02*
X24214285Y-123764342D01*
X24214285Y-123764342D02*
X24261904Y-123859580D01*
X24261904Y-123859580D02*
X24309523Y-123907200D01*
X24309523Y-123907200D02*
X24404761Y-123954819D01*
X24404761Y-123954819D02*
X24690475Y-123954819D01*
X24690475Y-123954819D02*
X24785713Y-123907200D01*
X24785713Y-123907200D02*
X24833332Y-123859580D01*
X101261904Y-72054819D02*
X101261904Y-71054819D01*
X101261904Y-71531009D02*
X100690476Y-71531009D01*
X100690476Y-72054819D02*
X100690476Y-71054819D01*
X100166666Y-72054819D02*
X99976190Y-72054819D01*
X99976190Y-72054819D02*
X99880952Y-72007200D01*
X99880952Y-72007200D02*
X99833333Y-71959580D01*
X99833333Y-71959580D02*
X99738095Y-71816723D01*
X99738095Y-71816723D02*
X99690476Y-71626247D01*
X99690476Y-71626247D02*
X99690476Y-71245295D01*
X99690476Y-71245295D02*
X99738095Y-71150057D01*
X99738095Y-71150057D02*
X99785714Y-71102438D01*
X99785714Y-71102438D02*
X99880952Y-71054819D01*
X99880952Y-71054819D02*
X100071428Y-71054819D01*
X100071428Y-71054819D02*
X100166666Y-71102438D01*
X100166666Y-71102438D02*
X100214285Y-71150057D01*
X100214285Y-71150057D02*
X100261904Y-71245295D01*
X100261904Y-71245295D02*
X100261904Y-71483390D01*
X100261904Y-71483390D02*
X100214285Y-71578628D01*
X100214285Y-71578628D02*
X100166666Y-71626247D01*
X100166666Y-71626247D02*
X100071428Y-71673866D01*
X100071428Y-71673866D02*
X99880952Y-71673866D01*
X99880952Y-71673866D02*
X99785714Y-71626247D01*
X99785714Y-71626247D02*
X99738095Y-71578628D01*
X99738095Y-71578628D02*
X99690476Y-71483390D01*
X26738094Y-72454819D02*
X26738094Y-71454819D01*
X26738094Y-71931009D02*
X26166666Y-71931009D01*
X26166666Y-72454819D02*
X26166666Y-71454819D01*
X25166666Y-72454819D02*
X25738094Y-72454819D01*
X25452380Y-72454819D02*
X25452380Y-71454819D01*
X25452380Y-71454819D02*
X25547618Y-71597676D01*
X25547618Y-71597676D02*
X25642856Y-71692914D01*
X25642856Y-71692914D02*
X25738094Y-71740533D01*
X24547618Y-71454819D02*
X24452380Y-71454819D01*
X24452380Y-71454819D02*
X24357142Y-71502438D01*
X24357142Y-71502438D02*
X24309523Y-71550057D01*
X24309523Y-71550057D02*
X24261904Y-71645295D01*
X24261904Y-71645295D02*
X24214285Y-71835771D01*
X24214285Y-71835771D02*
X24214285Y-72073866D01*
X24214285Y-72073866D02*
X24261904Y-72264342D01*
X24261904Y-72264342D02*
X24309523Y-72359580D01*
X24309523Y-72359580D02*
X24357142Y-72407200D01*
X24357142Y-72407200D02*
X24452380Y-72454819D01*
X24452380Y-72454819D02*
X24547618Y-72454819D01*
X24547618Y-72454819D02*
X24642856Y-72407200D01*
X24642856Y-72407200D02*
X24690475Y-72359580D01*
X24690475Y-72359580D02*
X24738094Y-72264342D01*
X24738094Y-72264342D02*
X24785713Y-72073866D01*
X24785713Y-72073866D02*
X24785713Y-71835771D01*
X24785713Y-71835771D02*
X24738094Y-71645295D01*
X24738094Y-71645295D02*
X24690475Y-71550057D01*
X24690475Y-71550057D02*
X24642856Y-71502438D01*
X24642856Y-71502438D02*
X24547618Y-71454819D01*
X176761904Y-71954819D02*
X176761904Y-70954819D01*
X176761904Y-71431009D02*
X176190476Y-71431009D01*
X176190476Y-71954819D02*
X176190476Y-70954819D01*
X175571428Y-71383390D02*
X175666666Y-71335771D01*
X175666666Y-71335771D02*
X175714285Y-71288152D01*
X175714285Y-71288152D02*
X175761904Y-71192914D01*
X175761904Y-71192914D02*
X175761904Y-71145295D01*
X175761904Y-71145295D02*
X175714285Y-71050057D01*
X175714285Y-71050057D02*
X175666666Y-71002438D01*
X175666666Y-71002438D02*
X175571428Y-70954819D01*
X175571428Y-70954819D02*
X175380952Y-70954819D01*
X175380952Y-70954819D02*
X175285714Y-71002438D01*
X175285714Y-71002438D02*
X175238095Y-71050057D01*
X175238095Y-71050057D02*
X175190476Y-71145295D01*
X175190476Y-71145295D02*
X175190476Y-71192914D01*
X175190476Y-71192914D02*
X175238095Y-71288152D01*
X175238095Y-71288152D02*
X175285714Y-71335771D01*
X175285714Y-71335771D02*
X175380952Y-71383390D01*
X175380952Y-71383390D02*
X175571428Y-71383390D01*
X175571428Y-71383390D02*
X175666666Y-71431009D01*
X175666666Y-71431009D02*
X175714285Y-71478628D01*
X175714285Y-71478628D02*
X175761904Y-71573866D01*
X175761904Y-71573866D02*
X175761904Y-71764342D01*
X175761904Y-71764342D02*
X175714285Y-71859580D01*
X175714285Y-71859580D02*
X175666666Y-71907200D01*
X175666666Y-71907200D02*
X175571428Y-71954819D01*
X175571428Y-71954819D02*
X175380952Y-71954819D01*
X175380952Y-71954819D02*
X175285714Y-71907200D01*
X175285714Y-71907200D02*
X175238095Y-71859580D01*
X175238095Y-71859580D02*
X175190476Y-71764342D01*
X175190476Y-71764342D02*
X175190476Y-71573866D01*
X175190476Y-71573866D02*
X175238095Y-71478628D01*
X175238095Y-71478628D02*
X175285714Y-71431009D01*
X175285714Y-71431009D02*
X175380952Y-71383390D01*
X102238094Y-123954819D02*
X102238094Y-122954819D01*
X102238094Y-123431009D02*
X101666666Y-123431009D01*
X101666666Y-123954819D02*
X101666666Y-122954819D01*
X100666666Y-123954819D02*
X101238094Y-123954819D01*
X100952380Y-123954819D02*
X100952380Y-122954819D01*
X100952380Y-122954819D02*
X101047618Y-123097676D01*
X101047618Y-123097676D02*
X101142856Y-123192914D01*
X101142856Y-123192914D02*
X101238094Y-123240533D01*
X100285713Y-123050057D02*
X100238094Y-123002438D01*
X100238094Y-123002438D02*
X100142856Y-122954819D01*
X100142856Y-122954819D02*
X99904761Y-122954819D01*
X99904761Y-122954819D02*
X99809523Y-123002438D01*
X99809523Y-123002438D02*
X99761904Y-123050057D01*
X99761904Y-123050057D02*
X99714285Y-123145295D01*
X99714285Y-123145295D02*
X99714285Y-123240533D01*
X99714285Y-123240533D02*
X99761904Y-123383390D01*
X99761904Y-123383390D02*
X100333332Y-123954819D01*
X100333332Y-123954819D02*
X99714285Y-123954819D01*
X73949523Y-26604819D02*
X73949523Y-27319104D01*
X73949523Y-27319104D02*
X73997142Y-27461961D01*
X73997142Y-27461961D02*
X74092380Y-27557200D01*
X74092380Y-27557200D02*
X74235237Y-27604819D01*
X74235237Y-27604819D02*
X74330475Y-27604819D01*
X73520951Y-26700057D02*
X73473332Y-26652438D01*
X73473332Y-26652438D02*
X73378094Y-26604819D01*
X73378094Y-26604819D02*
X73139999Y-26604819D01*
X73139999Y-26604819D02*
X73044761Y-26652438D01*
X73044761Y-26652438D02*
X72997142Y-26700057D01*
X72997142Y-26700057D02*
X72949523Y-26795295D01*
X72949523Y-26795295D02*
X72949523Y-26890533D01*
X72949523Y-26890533D02*
X72997142Y-27033390D01*
X72997142Y-27033390D02*
X73568570Y-27604819D01*
X73568570Y-27604819D02*
X72949523Y-27604819D01*
X72616189Y-26604819D02*
X71997142Y-26604819D01*
X71997142Y-26604819D02*
X72330475Y-26985771D01*
X72330475Y-26985771D02*
X72187618Y-26985771D01*
X72187618Y-26985771D02*
X72092380Y-27033390D01*
X72092380Y-27033390D02*
X72044761Y-27081009D01*
X72044761Y-27081009D02*
X71997142Y-27176247D01*
X71997142Y-27176247D02*
X71997142Y-27414342D01*
X71997142Y-27414342D02*
X72044761Y-27509580D01*
X72044761Y-27509580D02*
X72092380Y-27557200D01*
X72092380Y-27557200D02*
X72187618Y-27604819D01*
X72187618Y-27604819D02*
X72473332Y-27604819D01*
X72473332Y-27604819D02*
X72568570Y-27557200D01*
X72568570Y-27557200D02*
X72616189Y-27509580D01*
X47809523Y-125454819D02*
X47809523Y-126169104D01*
X47809523Y-126169104D02*
X47857142Y-126311961D01*
X47857142Y-126311961D02*
X47952380Y-126407200D01*
X47952380Y-126407200D02*
X48095237Y-126454819D01*
X48095237Y-126454819D02*
X48190475Y-126454819D01*
X47380951Y-125550057D02*
X47333332Y-125502438D01*
X47333332Y-125502438D02*
X47238094Y-125454819D01*
X47238094Y-125454819D02*
X46999999Y-125454819D01*
X46999999Y-125454819D02*
X46904761Y-125502438D01*
X46904761Y-125502438D02*
X46857142Y-125550057D01*
X46857142Y-125550057D02*
X46809523Y-125645295D01*
X46809523Y-125645295D02*
X46809523Y-125740533D01*
X46809523Y-125740533D02*
X46857142Y-125883390D01*
X46857142Y-125883390D02*
X47428570Y-126454819D01*
X47428570Y-126454819D02*
X46809523Y-126454819D01*
X45952380Y-125454819D02*
X46142856Y-125454819D01*
X46142856Y-125454819D02*
X46238094Y-125502438D01*
X46238094Y-125502438D02*
X46285713Y-125550057D01*
X46285713Y-125550057D02*
X46380951Y-125692914D01*
X46380951Y-125692914D02*
X46428570Y-125883390D01*
X46428570Y-125883390D02*
X46428570Y-126264342D01*
X46428570Y-126264342D02*
X46380951Y-126359580D01*
X46380951Y-126359580D02*
X46333332Y-126407200D01*
X46333332Y-126407200D02*
X46238094Y-126454819D01*
X46238094Y-126454819D02*
X46047618Y-126454819D01*
X46047618Y-126454819D02*
X45952380Y-126407200D01*
X45952380Y-126407200D02*
X45904761Y-126359580D01*
X45904761Y-126359580D02*
X45857142Y-126264342D01*
X45857142Y-126264342D02*
X45857142Y-126026247D01*
X45857142Y-126026247D02*
X45904761Y-125931009D01*
X45904761Y-125931009D02*
X45952380Y-125883390D01*
X45952380Y-125883390D02*
X46047618Y-125835771D01*
X46047618Y-125835771D02*
X46238094Y-125835771D01*
X46238094Y-125835771D02*
X46333332Y-125883390D01*
X46333332Y-125883390D02*
X46380951Y-125931009D01*
X46380951Y-125931009D02*
X46428570Y-126026247D01*
X176738094Y-123954819D02*
X176738094Y-122954819D01*
X176738094Y-123431009D02*
X176166666Y-123431009D01*
X176166666Y-123954819D02*
X176166666Y-122954819D01*
X175166666Y-123954819D02*
X175738094Y-123954819D01*
X175452380Y-123954819D02*
X175452380Y-122954819D01*
X175452380Y-122954819D02*
X175547618Y-123097676D01*
X175547618Y-123097676D02*
X175642856Y-123192914D01*
X175642856Y-123192914D02*
X175738094Y-123240533D01*
X174214285Y-123954819D02*
X174785713Y-123954819D01*
X174499999Y-123954819D02*
X174499999Y-122954819D01*
X174499999Y-122954819D02*
X174595237Y-123097676D01*
X174595237Y-123097676D02*
X174690475Y-123192914D01*
X174690475Y-123192914D02*
X174785713Y-123240533D01*
X124109523Y-67954819D02*
X124109523Y-68669104D01*
X124109523Y-68669104D02*
X124157142Y-68811961D01*
X124157142Y-68811961D02*
X124252380Y-68907200D01*
X124252380Y-68907200D02*
X124395237Y-68954819D01*
X124395237Y-68954819D02*
X124490475Y-68954819D01*
X123680951Y-68050057D02*
X123633332Y-68002438D01*
X123633332Y-68002438D02*
X123538094Y-67954819D01*
X123538094Y-67954819D02*
X123299999Y-67954819D01*
X123299999Y-67954819D02*
X123204761Y-68002438D01*
X123204761Y-68002438D02*
X123157142Y-68050057D01*
X123157142Y-68050057D02*
X123109523Y-68145295D01*
X123109523Y-68145295D02*
X123109523Y-68240533D01*
X123109523Y-68240533D02*
X123157142Y-68383390D01*
X123157142Y-68383390D02*
X123728570Y-68954819D01*
X123728570Y-68954819D02*
X123109523Y-68954819D01*
X122204761Y-67954819D02*
X122680951Y-67954819D01*
X122680951Y-67954819D02*
X122728570Y-68431009D01*
X122728570Y-68431009D02*
X122680951Y-68383390D01*
X122680951Y-68383390D02*
X122585713Y-68335771D01*
X122585713Y-68335771D02*
X122347618Y-68335771D01*
X122347618Y-68335771D02*
X122252380Y-68383390D01*
X122252380Y-68383390D02*
X122204761Y-68431009D01*
X122204761Y-68431009D02*
X122157142Y-68526247D01*
X122157142Y-68526247D02*
X122157142Y-68764342D01*
X122157142Y-68764342D02*
X122204761Y-68859580D01*
X122204761Y-68859580D02*
X122252380Y-68907200D01*
X122252380Y-68907200D02*
X122347618Y-68954819D01*
X122347618Y-68954819D02*
X122585713Y-68954819D01*
X122585713Y-68954819D02*
X122680951Y-68907200D01*
X122680951Y-68907200D02*
X122728570Y-68859580D01*
X63049523Y-26609819D02*
X63049523Y-27324104D01*
X63049523Y-27324104D02*
X63097142Y-27466961D01*
X63097142Y-27466961D02*
X63192380Y-27562200D01*
X63192380Y-27562200D02*
X63335237Y-27609819D01*
X63335237Y-27609819D02*
X63430475Y-27609819D01*
X62620951Y-26705057D02*
X62573332Y-26657438D01*
X62573332Y-26657438D02*
X62478094Y-26609819D01*
X62478094Y-26609819D02*
X62239999Y-26609819D01*
X62239999Y-26609819D02*
X62144761Y-26657438D01*
X62144761Y-26657438D02*
X62097142Y-26705057D01*
X62097142Y-26705057D02*
X62049523Y-26800295D01*
X62049523Y-26800295D02*
X62049523Y-26895533D01*
X62049523Y-26895533D02*
X62097142Y-27038390D01*
X62097142Y-27038390D02*
X62668570Y-27609819D01*
X62668570Y-27609819D02*
X62049523Y-27609819D01*
X61192380Y-26943152D02*
X61192380Y-27609819D01*
X61430475Y-26562200D02*
X61668570Y-27276485D01*
X61668570Y-27276485D02*
X61049523Y-27276485D01*
D11*
%TO.C,J23*%
X67790000Y-26350000D02*
X67790000Y-25100000D01*
X68080000Y-20090000D02*
X78200000Y-20090000D01*
X68080000Y-26060000D02*
X68080000Y-20090000D01*
X68090000Y-23800000D02*
X68840000Y-23800000D01*
X68090000Y-25300000D02*
X69890000Y-25300000D01*
X68090000Y-26050000D02*
X68090000Y-25300000D01*
X68840000Y-20850000D02*
X73140000Y-20850000D01*
X68840000Y-23800000D02*
X68840000Y-20850000D01*
X69040000Y-26350000D02*
X67790000Y-26350000D01*
X69890000Y-25300000D02*
X69890000Y-26050000D01*
X69890000Y-26050000D02*
X68090000Y-26050000D01*
X71390000Y-25300000D02*
X74890000Y-25300000D01*
X71390000Y-26050000D02*
X71390000Y-25300000D01*
X74890000Y-25300000D02*
X74890000Y-26050000D01*
X74890000Y-26050000D02*
X71390000Y-26050000D01*
X76390000Y-25300000D02*
X78190000Y-25300000D01*
X76390000Y-26050000D02*
X76390000Y-25300000D01*
X77440000Y-20850000D02*
X73140000Y-20850000D01*
X77440000Y-23800000D02*
X77440000Y-20850000D01*
X78190000Y-23800000D02*
X77440000Y-23800000D01*
X78190000Y-25300000D02*
X78190000Y-26050000D01*
X78190000Y-26050000D02*
X76390000Y-26050000D01*
X78200000Y-20090000D02*
X78200000Y-26060000D01*
X78200000Y-26060000D02*
X68080000Y-26060000D01*
%TO.C,J26*%
X45750000Y-124350000D02*
X45750000Y-125600000D01*
X45460000Y-130610000D02*
X35340000Y-130610000D01*
X45460000Y-124640000D02*
X45460000Y-130610000D01*
X45450000Y-126900000D02*
X44700000Y-126900000D01*
X45450000Y-125400000D02*
X43650000Y-125400000D01*
X45450000Y-124650000D02*
X45450000Y-125400000D01*
X44700000Y-129850000D02*
X40400000Y-129850000D01*
X44700000Y-126900000D02*
X44700000Y-129850000D01*
X44500000Y-124350000D02*
X45750000Y-124350000D01*
X43650000Y-125400000D02*
X43650000Y-124650000D01*
X43650000Y-124650000D02*
X45450000Y-124650000D01*
X42150000Y-125400000D02*
X38650000Y-125400000D01*
X42150000Y-124650000D02*
X42150000Y-125400000D01*
X38650000Y-125400000D02*
X38650000Y-124650000D01*
X38650000Y-124650000D02*
X42150000Y-124650000D01*
X37150000Y-125400000D02*
X35350000Y-125400000D01*
X37150000Y-124650000D02*
X37150000Y-125400000D01*
X36100000Y-129850000D02*
X40400000Y-129850000D01*
X36100000Y-126900000D02*
X36100000Y-129850000D01*
X35350000Y-126900000D02*
X36100000Y-126900000D01*
X35350000Y-125400000D02*
X35350000Y-124650000D01*
X35350000Y-124650000D02*
X37150000Y-124650000D01*
X35340000Y-130610000D02*
X35340000Y-124640000D01*
X35340000Y-124640000D02*
X45460000Y-124640000D01*
D12*
%TO.C,J25*%
X171480000Y-63505600D02*
X171480000Y-121505600D01*
X167730000Y-125005600D02*
X167980000Y-125005600D01*
D11*
X158790000Y-123020600D02*
X158790000Y-117820600D01*
X157885000Y-76115600D02*
X157885000Y-81255600D01*
X157885000Y-73515600D02*
X157885000Y-74845600D01*
X156555000Y-73515600D02*
X157885000Y-73515600D01*
X155285000Y-76115600D02*
X157885000Y-76115600D01*
X155285000Y-73515600D02*
X155285000Y-76115600D01*
X153650000Y-120420600D02*
X153650000Y-117820600D01*
X153650000Y-117820600D02*
X158790000Y-117820600D01*
X152685000Y-81255600D02*
X157885000Y-81255600D01*
X152685000Y-73515600D02*
X155285000Y-73515600D01*
X152685000Y-73515600D02*
X152685000Y-81255600D01*
X151050000Y-123020600D02*
X158790000Y-123020600D01*
X151050000Y-123020600D02*
X151050000Y-120420600D01*
X151050000Y-120420600D02*
X153650000Y-120420600D01*
X151050000Y-119150600D02*
X151050000Y-117820600D01*
X151050000Y-117820600D02*
X152380000Y-117820600D01*
X121580000Y-69645600D02*
X121580000Y-117965600D01*
X121580000Y-67045600D02*
X121580000Y-68375600D01*
X120250000Y-67045600D02*
X121580000Y-67045600D01*
X118980000Y-69645600D02*
X121580000Y-69645600D01*
X118980000Y-67045600D02*
X118980000Y-69645600D01*
D12*
X118980000Y-60005600D02*
X167980000Y-60005600D01*
X118980000Y-60005600D02*
X118480000Y-60005243D01*
X118230000Y-125005600D02*
X167730000Y-125005600D01*
D11*
X116380000Y-117965600D02*
X121580000Y-117965600D01*
X116380000Y-67045600D02*
X118980000Y-67045600D01*
X116380000Y-67045600D02*
X116380000Y-117965600D01*
D12*
X114980000Y-121505600D02*
X114980000Y-63555600D01*
X167980000Y-125005600D02*
G75*
G03*
X171480000Y-121505600I1J3499999D01*
G01*
X171480000Y-63505600D02*
G75*
G03*
X167980000Y-60005600I-3499999J1D01*
G01*
X114980000Y-121505600D02*
G75*
G03*
X118480000Y-125005600I3500000J0D01*
G01*
X118480000Y-60005243D02*
G75*
G03*
X114980000Y-63555600I0J-3500357D01*
G01*
X169631000Y-121505600D02*
G75*
G03*
X169631000Y-121505600I-1651000J0D01*
G01*
X169631000Y-63505600D02*
G75*
G03*
X169631000Y-63505600I-1651000J0D01*
G01*
X120631000Y-121505600D02*
G75*
G03*
X120631000Y-121505600I-1651000J0D01*
G01*
X120631000Y-63505600D02*
G75*
G03*
X120631000Y-63505600I-1651000J0D01*
G01*
D11*
%TO.C,J24*%
X56890000Y-26355000D02*
X56890000Y-25105000D01*
X57180000Y-20095000D02*
X67300000Y-20095000D01*
X57180000Y-26065000D02*
X57180000Y-20095000D01*
X57190000Y-23805000D02*
X57940000Y-23805000D01*
X57190000Y-25305000D02*
X58990000Y-25305000D01*
X57190000Y-26055000D02*
X57190000Y-25305000D01*
X57940000Y-20855000D02*
X62240000Y-20855000D01*
X57940000Y-23805000D02*
X57940000Y-20855000D01*
X58140000Y-26355000D02*
X56890000Y-26355000D01*
X58990000Y-25305000D02*
X58990000Y-26055000D01*
X58990000Y-26055000D02*
X57190000Y-26055000D01*
X60490000Y-25305000D02*
X63990000Y-25305000D01*
X60490000Y-26055000D02*
X60490000Y-25305000D01*
X63990000Y-25305000D02*
X63990000Y-26055000D01*
X63990000Y-26055000D02*
X60490000Y-26055000D01*
X65490000Y-25305000D02*
X67290000Y-25305000D01*
X65490000Y-26055000D02*
X65490000Y-25305000D01*
X66540000Y-20855000D02*
X62240000Y-20855000D01*
X66540000Y-23805000D02*
X66540000Y-20855000D01*
X67290000Y-23805000D02*
X66540000Y-23805000D01*
X67290000Y-25305000D02*
X67290000Y-26055000D01*
X67290000Y-26055000D02*
X65490000Y-26055000D01*
X67300000Y-20095000D02*
X67300000Y-26065000D01*
X67300000Y-26065000D02*
X57180000Y-26065000D01*
%TD*%
M02*
