M48
; DRILL file {KiCad 7.0.8-7.0.8~ubuntu23.04.1} date Mon Oct 23 16:21:35 2023
; FORMAT={-:-/ absolute / metric / decimal}
; #@! TF.CreationDate,2023-10-23T16:21:35+00:00
; #@! TF.GenerationSoftware,Kicad,Pcbnew,7.0.8-7.0.8~ubuntu23.04.1
; #@! TF.FileFunction,MixedPlating,1,2
FMAT,2
METRIC
; #@! TA.AperFunction,Plated,PTH,ViaDrill
T1C0.300
; #@! TA.AperFunction,Plated,PTH,ComponentDrill
T2C0.350
; #@! TA.AperFunction,Plated,PTH,ViaDrill
T3C0.400
; #@! TA.AperFunction,Plated,PTH,ComponentDrill
T4C0.440
; #@! TA.AperFunction,Plated,PTH,ComponentDrill
T5C0.450
; #@! TA.AperFunction,Plated,PTH,ViaDrill
T6C0.800
; #@! TA.AperFunction,Plated,PTH,ComponentDrill
T7C0.800
; #@! TA.AperFunction,Plated,PTH,ComponentDrill
T8C0.950
; #@! TA.AperFunction,Plated,PTH,ComponentDrill
T9C1.000
; #@! TA.AperFunction,Plated,PTH,ComponentDrill
T10C1.300
; #@! TA.AperFunction,Plated,PTH,ComponentDrill
T11C1.321
; #@! TA.AperFunction,Plated,PTH,ComponentDrill
T12C1.400
; #@! TA.AperFunction,Plated,PTH,ComponentDrill
T13C2.600
; #@! TA.AperFunction,NonPlated,NPTH,ComponentDrill
T14C0.500
; #@! TA.AperFunction,NonPlated,NPTH,ComponentDrill
T15C1.200
; #@! TA.AperFunction,NonPlated,NPTH,ComponentDrill
T16C2.700
; #@! TA.AperFunction,NonPlated,NPTH,ComponentDrill
T17C3.700
%
G90
G05
T1
X101.66Y-43.41
X101.8Y-45.56
X108.68Y-50.463
X109.955Y-45.487
T2
X106.125Y-44.325
X106.125Y-45.6
X106.125Y-46.875
X107.4Y-44.325
X107.4Y-45.6
X107.4Y-46.875
X108.675Y-44.325
X108.675Y-45.6
X108.675Y-46.875
T3
X24.2Y-69.5
X24.2Y-121.5
X35.8Y-69.5
X37.0Y-122.6
X39.1Y-125.7
X41.8Y-116.1
X43.8Y-121.5
X44.61Y-100.0
X45.35Y-99.19
X46.4Y-26.1
X48.1Y-62.501
X48.249Y-26.1
X51.2Y-68.1
X54.57Y-39.78
X55.3Y-33.65
X55.5Y-75.0
X55.5Y-78.0
X55.5Y-80.5
X55.5Y-83.0
X55.5Y-85.5
X55.5Y-88.0
X55.5Y-90.5
X55.5Y-93.0
X55.5Y-95.5
X56.15Y-94.0
X57.06Y-39.76
X58.65Y-93.1
X63.05Y-48.7
X70.9Y-49.6
X74.423Y-55.52
X74.9Y-46.2
X78.5Y-88.7
X78.75Y-40.11
X82.7Y-90.4
X83.0Y-91.7
X83.2Y-85.4
X83.3Y-86.787
X83.35Y-89.25
X83.4Y-88.1
X83.526Y-92.714
X83.799Y-90.387
X84.0Y-83.1
X84.075Y-84.688
X84.134Y-86.087
X84.5Y-87.599
X84.7Y-83.9
X85.3Y-77.5
X85.3Y-78.5
X85.9Y-86.7
X86.6Y-80.3
X86.7Y-75.6
X87.1Y-47.9
X89.5Y-81.5
X89.5Y-87.6
X89.5Y-93.5
X89.5Y-96.0
X92.9Y-94.3
X94.025Y-86.925
X94.1Y-49.8
X94.3Y-74.15
X94.61Y-77.2
X94.81Y-80.37
X95.14Y-41.56
X95.302Y-93.663
X95.538Y-85.894
X95.816Y-92.806
X95.9Y-82.3
X96.059Y-83.599
X96.3Y-89.599
X96.4Y-80.7
X96.7Y-43.95
X96.8Y-74.15
X96.97Y-45.714
X97.1Y-87.1
X97.4Y-83.001
X97.5Y-84.8
X97.511Y-92.382
X97.684Y-90.399
X97.89Y-40.36
X98.449Y-82.241
X98.557Y-92.2
X98.917Y-87.799
X99.04Y-42.4
X99.2Y-69.6
X99.2Y-121.5
X99.8Y-91.2
X100.641Y-40.109
X101.459Y-54.91
X103.03Y-58.049
X103.52Y-54.22
X104.12Y-61.889
X104.345Y-59.435
X105.2Y-56.37
X105.71Y-59.59
X105.74Y-62.84
X105.981Y-55.651
X106.0Y-40.2
X106.409Y-58.703
X107.695Y-59.639
X107.702Y-41.027
X107.801Y-60.872
X108.55Y-53.2
X108.7Y-57.287
X109.2Y-59.3
X109.401Y-56.575
X109.55Y-115.8
X109.565Y-57.788
X110.08Y-38.95
X110.8Y-69.9
X110.8Y-121.5
X111.6Y-52.5
X111.73Y-59.0
X111.88Y-42.649
X112.434Y-45.02
X113.044Y-42.756
X113.31Y-49.35
X113.751Y-42.05
X114.26Y-79.8
X114.8Y-116.9
X116.79Y-43.22
X120.75Y-44.2
X120.9Y-49.6
X121.32Y-45.21
X121.55Y-39.05
X121.55Y-60.7
X121.7Y-52.6
X122.387Y-60.087
X124.54Y-60.09
X130.41Y-52.22
X136.8Y-60.0
X142.55Y-52.4
X142.757Y-32.933
X144.15Y-44.25
X145.9Y-49.6
X152.9Y-42.0
X153.2Y-49.4
X154.0Y-58.3
X154.33Y-23.46
X154.34Y-27.9
X156.1Y-49.4
X158.5Y-57.4
X158.8Y-49.4
X160.7Y-46.5
X161.6Y-38.1
X163.4Y-43.9
X165.5Y-41.0
X165.6Y-35.3
X166.4Y-46.8
X168.8Y-53.4
X170.1Y-66.9
X170.588Y-117.512
X172.5Y-114.5
X174.2Y-69.4
X174.2Y-121.5
X178.8Y-93.8
X185.8Y-69.5
X185.8Y-121.45
T4
X78.94Y-56.29
X79.59Y-55.29
X80.24Y-56.29
X80.89Y-55.29
X81.54Y-56.29
T6
X54.39Y-43.63
X58.85Y-43.61
X64.93Y-61.75
X65.0Y-57.81
X96.87Y-49.75
X104.1Y-40.55
X128.0Y-54.9
X128.0Y-63.0
X166.94Y-34.204
T7
X29.0Y-56.0
X29.0Y-58.0
X29.0Y-128.0
X29.0Y-130.0
X31.0Y-56.0
X31.0Y-58.0
X31.0Y-128.0
X31.0Y-130.0
X104.0Y-76.0
X104.0Y-78.0
X104.0Y-108.0
X104.0Y-110.0
X106.0Y-76.0
X106.0Y-78.0
X106.0Y-108.0
X106.0Y-110.0
X179.0Y-56.0
X179.0Y-58.0
X179.0Y-128.0
X179.0Y-130.0
X181.0Y-56.0
X181.0Y-58.0
X181.0Y-128.0
X181.0Y-130.0
T8
X37.9Y-127.1
X40.4Y-127.1
X42.9Y-127.1
X44.6Y-28.475
X44.6Y-36.225
X47.1Y-28.475
X47.1Y-36.225
X49.6Y-28.475
X49.6Y-36.225
T9
X60.25Y-31.5
X60.25Y-34.0
X60.25Y-36.5
X74.75Y-31.5
X74.75Y-36.5
X88.6Y-54.0
X91.14Y-54.0
X102.145Y-81.3
X104.685Y-81.3
X107.225Y-81.3
X117.71Y-68.376
X117.71Y-70.916
X117.71Y-73.456
X117.71Y-75.996
X117.71Y-78.536
X117.71Y-81.076
X117.71Y-83.616
X117.71Y-86.156
X117.71Y-88.696
X117.71Y-91.236
X117.71Y-93.776
X117.71Y-96.316
X117.71Y-98.856
X117.71Y-101.396
X117.71Y-103.936
X117.71Y-106.476
X117.71Y-109.016
X117.71Y-111.556
X117.71Y-114.096
X117.71Y-116.636
X120.25Y-68.376
X120.25Y-70.916
X120.25Y-73.456
X120.25Y-75.996
X120.25Y-78.536
X120.25Y-81.076
X120.25Y-83.616
X120.25Y-86.156
X120.25Y-88.696
X120.25Y-91.236
X120.25Y-93.776
X120.25Y-96.316
X120.25Y-98.856
X120.25Y-101.396
X120.25Y-103.936
X120.25Y-106.476
X120.25Y-109.016
X120.25Y-111.556
X120.25Y-114.096
X120.25Y-116.636
X125.86Y-44.3
X128.4Y-44.3
X130.94Y-44.3
X135.25Y-31.5
X135.25Y-34.0
X135.25Y-36.5
X149.75Y-31.5
X149.75Y-36.5
X152.38Y-119.151
X152.38Y-121.691
X154.015Y-74.846
X154.015Y-77.386
X154.015Y-79.926
X154.92Y-119.151
X154.92Y-121.691
X156.555Y-74.846
X156.555Y-77.386
X156.555Y-79.926
X157.46Y-119.151
X157.46Y-121.691
T10
X178.5Y-23.21
X178.5Y-28.21
T11
X82.5Y-32.0
X85.0Y-22.0
X85.0Y-34.5
X87.5Y-22.0
X90.0Y-32.0
X92.5Y-22.0
X95.0Y-22.0
X95.0Y-34.5
X97.5Y-32.0
X112.5Y-32.0
X115.0Y-22.0
X115.0Y-34.5
X117.5Y-22.0
X120.0Y-32.0
X122.5Y-22.0
X125.0Y-22.0
X125.0Y-34.5
X127.5Y-32.0
T12
X21.7Y-33.77
X21.7Y-50.0
X21.7Y-74.77
X21.7Y-91.0
X21.7Y-94.97
X21.7Y-111.2
X28.05Y-33.77
X28.05Y-50.0
X28.05Y-74.77
X28.05Y-91.0
X28.05Y-94.97
X28.05Y-111.2
X34.4Y-33.77
X34.4Y-50.0
X34.4Y-74.77
X34.4Y-91.0
X34.4Y-94.97
X34.4Y-111.2
X175.6Y-74.78
X175.6Y-91.01
X175.6Y-94.995
X175.6Y-111.225
X175.615Y-33.8
X175.615Y-50.03
X181.95Y-74.78
X181.95Y-91.01
X181.95Y-94.995
X181.95Y-111.225
X181.965Y-33.8
X181.965Y-50.03
X188.3Y-74.78
X188.3Y-91.01
X188.3Y-94.995
X188.3Y-111.225
X188.315Y-33.8
X188.315Y-50.03
T13
X67.75Y-28.4
X67.75Y-39.6
X142.75Y-28.4
X142.75Y-39.6
T14
X80.1Y-21.075
X80.1Y-22.075
X80.1Y-23.075
X80.1Y-24.075
X80.1Y-25.075
X80.1Y-26.075
X80.1Y-30.075
X80.1Y-31.075
X80.1Y-32.075
X80.1Y-33.075
X80.1Y-34.075
X80.1Y-35.075
X80.1Y-36.075
X81.1Y-36.075
X82.1Y-36.075
X83.1Y-36.075
X84.1Y-36.075
X85.1Y-36.075
X86.1Y-36.075
X87.1Y-36.075
X88.1Y-36.075
X89.1Y-36.075
X90.1Y-36.075
X91.1Y-36.075
X92.1Y-36.075
X93.1Y-36.075
X94.1Y-36.075
X95.1Y-36.075
X96.1Y-36.075
X97.1Y-36.075
X98.1Y-36.075
X99.1Y-36.075
X100.1Y-36.075
X101.1Y-36.075
X102.1Y-36.075
X103.1Y-36.075
X104.1Y-36.075
X105.1Y-36.075
X106.1Y-36.075
X107.1Y-36.075
X108.1Y-36.075
X109.1Y-36.075
X110.1Y-36.075
X111.1Y-36.075
X112.1Y-36.075
X113.1Y-36.075
X114.1Y-36.075
X115.1Y-36.075
X116.1Y-36.075
X117.1Y-36.075
X118.1Y-36.075
X119.1Y-36.075
X120.1Y-36.075
X121.1Y-36.075
X122.1Y-36.075
X123.1Y-36.075
X124.1Y-36.075
X125.1Y-36.075
X126.1Y-36.075
X127.1Y-36.075
X128.1Y-36.075
X129.1Y-36.075
X130.1Y-21.075
X130.1Y-22.075
X130.1Y-23.075
X130.1Y-24.075
X130.1Y-25.075
X130.1Y-26.075
X130.1Y-27.075
X130.1Y-28.075
X130.1Y-29.075
X130.1Y-30.075
X130.1Y-31.075
X130.1Y-32.075
X130.1Y-33.075
X130.1Y-34.075
X130.1Y-35.075
X130.1Y-36.075
T15
X84.995Y-24.5
X89.995Y-29.5
X94.995Y-24.5
X115.0Y-24.5
X120.0Y-29.5
X125.0Y-24.5
T16
X42.0Y-23.0
X56.0Y-63.5
X56.0Y-111.5
X89.0Y-63.5
X89.0Y-111.5
X118.9Y-63.566
X118.98Y-121.52
X168.0Y-23.0
X168.0Y-63.5
X168.0Y-121.5
T17
X30.0Y-67.0
X30.0Y-119.0
X105.0Y-67.0
X105.0Y-119.0
X180.0Y-67.0
X180.0Y-119.0
T2
G00X76.665Y-56.57
M15
G01X76.665Y-55.57
M16
G05
G00X83.815Y-56.57
M15
G01X83.815Y-55.57
M16
G05
T5
G00X84.995Y-29.025
M15
G01X84.995Y-29.975
M16
G05
G00X87.495Y-29.025
M15
G01X87.495Y-29.975
M16
G05
G00X90.469Y-24.5
M15
G01X89.519Y-24.5
M16
G05
G00X92.495Y-29.975
M15
G01X92.495Y-29.025
M16
G05
G00X94.995Y-29.975
M15
G01X94.995Y-29.025
M16
G05
G00X115.0Y-29.025
M15
G01X115.0Y-29.975
M16
G05
G00X117.5Y-29.025
M15
G01X117.5Y-29.975
M16
G05
G00X120.475Y-24.5
M15
G01X119.525Y-24.5
M16
G05
G00X122.5Y-29.975
M15
G01X122.5Y-29.025
M16
G05
G00X125.0Y-29.975
M15
G01X125.0Y-29.025
M16
G05
T7
G00X174.6Y-26.3
M15
G01X174.6Y-28.5
M16
G05
G00X180.5Y-24.6
M15
G01X178.3Y-24.6
M16
G05
G00X180.7Y-30.4
M15
G01X178.1Y-30.4
M16
G05
T0
M30
