%TF.GenerationSoftware,KiCad,Pcbnew,7.0.7-7.0.7~ubuntu23.04.1*%
%TF.CreationDate,2023-10-09T21:31:03+00:00*%
%TF.ProjectId,pedalboard-hw,70656461-6c62-46f6-9172-642d68772e6b,3.0.0-RC1*%
%TF.SameCoordinates,Original*%
%TF.FileFunction,Profile,NP*%
%FSLAX46Y46*%
G04 Gerber Fmt 4.6, Leading zero omitted, Abs format (unit mm)*
G04 Created by KiCad (PCBNEW 7.0.7-7.0.7~ubuntu23.04.1) date 2023-10-09 21:31:03*
%MOMM*%
%LPD*%
G01*
G04 APERTURE LIST*
%TA.AperFunction,Profile*%
%ADD10C,0.100000*%
%TD*%
G04 APERTURE END LIST*
D10*
X118200000Y-20000000D02*
X190000000Y-20000000D01*
X18000000Y-130000000D02*
X18000000Y-21000000D01*
X19000000Y-131000000D02*
X190000000Y-131000000D01*
X19000000Y-20000001D02*
G75*
G03*
X18000001Y-21000000I50900J-1050899D01*
G01*
X113800000Y-21000000D02*
G75*
G03*
X114200000Y-21400000I400000J0D01*
G01*
X18000000Y-130000000D02*
G75*
G03*
X19000000Y-131000000I1000000J0D01*
G01*
X91800000Y-21000000D02*
G75*
G03*
X92200000Y-21400000I400000J0D01*
G01*
X114200000Y-21400000D02*
X117799998Y-21400002D01*
X191000000Y-21000000D02*
X191000000Y-130000000D01*
X113800000Y-20000000D02*
X113800000Y-21000000D01*
X96200000Y-21000000D02*
X96200000Y-20000000D01*
X96200000Y-20000000D02*
X113800000Y-20000000D01*
X191000000Y-21000000D02*
G75*
G03*
X190000000Y-20000000I-1000000J0D01*
G01*
X95800000Y-21400000D02*
G75*
G03*
X96200000Y-21000000I0J400000D01*
G01*
X91800000Y-20000000D02*
X91800000Y-21000000D01*
X92200000Y-21400000D02*
X95800000Y-21400000D01*
X91800000Y-20000000D02*
X19000000Y-20000000D01*
X190000000Y-131000000D02*
G75*
G03*
X191000000Y-130000000I0J1000000D01*
G01*
X117799998Y-21400000D02*
G75*
G03*
X118200000Y-21000000I2J400000D01*
G01*
X118200000Y-21000000D02*
X118200000Y-20000000D01*
M02*
