%TF.GenerationSoftware,KiCad,Pcbnew,7.0.7-7.0.7~ubuntu23.04.1*%
%TF.CreationDate,2023-10-16T20:04:06+00:00*%
%TF.ProjectId,pedalboard-hw,70656461-6c62-46f6-9172-642d68772e6b,3.0.0-RC1*%
%TF.SameCoordinates,Original*%
%TF.FileFunction,Soldermask,Top*%
%TF.FilePolarity,Negative*%
%FSLAX46Y46*%
G04 Gerber Fmt 4.6, Leading zero omitted, Abs format (unit mm)*
G04 Created by KiCad (PCBNEW 7.0.7-7.0.7~ubuntu23.04.1) date 2023-10-16 20:04:06*
%MOMM*%
%LPD*%
G01*
G04 APERTURE LIST*
G04 Aperture macros list*
%AMRoundRect*
0 Rectangle with rounded corners*
0 $1 Rounding radius*
0 $2 $3 $4 $5 $6 $7 $8 $9 X,Y pos of 4 corners*
0 Add a 4 corners polygon primitive as box body*
4,1,4,$2,$3,$4,$5,$6,$7,$8,$9,$2,$3,0*
0 Add four circle primitives for the rounded corners*
1,1,$1+$1,$2,$3*
1,1,$1+$1,$4,$5*
1,1,$1+$1,$6,$7*
1,1,$1+$1,$8,$9*
0 Add four rect primitives between the rounded corners*
20,1,$1+$1,$2,$3,$4,$5,0*
20,1,$1+$1,$4,$5,$6,$7,0*
20,1,$1+$1,$6,$7,$8,$9,0*
20,1,$1+$1,$8,$9,$2,$3,0*%
%AMFreePoly0*
4,1,19,0.500000,-0.750000,0.000000,-0.750000,0.000000,-0.744911,-0.071157,-0.744911,-0.207708,-0.704816,-0.327430,-0.627875,-0.420627,-0.520320,-0.479746,-0.390866,-0.500000,-0.250000,-0.500000,0.250000,-0.479746,0.390866,-0.420627,0.520320,-0.327430,0.627875,-0.207708,0.704816,-0.071157,0.744911,0.000000,0.744911,0.000000,0.750000,0.500000,0.750000,0.500000,-0.750000,0.500000,-0.750000,
$1*%
%AMFreePoly1*
4,1,19,0.000000,0.744911,0.071157,0.744911,0.207708,0.704816,0.327430,0.627875,0.420627,0.520320,0.479746,0.390866,0.500000,0.250000,0.500000,-0.250000,0.479746,-0.390866,0.420627,-0.520320,0.327430,-0.627875,0.207708,-0.704816,0.071157,-0.744911,0.000000,-0.744911,0.000000,-0.750000,-0.500000,-0.750000,-0.500000,0.750000,0.000000,0.750000,0.000000,0.744911,0.000000,0.744911,
$1*%
%AMFreePoly2*
4,1,17,0.553688,1.285921,1.285921,0.553688,1.300800,0.517767,1.300800,-0.517767,1.285921,-0.553688,0.553688,-1.285921,0.517767,-1.300800,-0.517767,-1.300800,-0.553688,-1.285921,-1.285921,-0.553688,-1.300800,-0.517767,-1.300800,0.517767,-1.285921,0.553688,-0.553688,1.285921,-0.517767,1.300800,0.517767,1.300800,0.553688,1.285921,0.553688,1.285921,$1*%
%AMFreePoly3*
4,1,14,0.935921,1.035921,0.950800,1.000000,0.950800,-0.100000,0.935921,-0.135921,0.035921,-1.035921,0.000000,-1.050800,-0.900000,-1.050800,-0.935921,-1.035921,-0.950800,-1.000000,-0.950800,1.000000,-0.935921,1.035921,-0.900000,1.050800,0.900000,1.050800,0.935921,1.035921,0.935921,1.035921,$1*%
%AMFreePoly4*
4,1,14,0.935921,1.035921,0.950800,1.000000,0.950800,-1.000000,0.935921,-1.035921,0.900000,-1.050800,0.000000,-1.050800,-0.035921,-1.035921,-0.935921,-0.135921,-0.950800,-0.100000,-0.950800,1.000000,-0.935921,1.035921,-0.900000,1.050800,0.900000,1.050800,0.935921,1.035921,0.935921,1.035921,$1*%
G04 Aperture macros list end*
%ADD10C,0.010000*%
%ADD11RoundRect,0.250000X-0.250000X-0.475000X0.250000X-0.475000X0.250000X0.475000X-0.250000X0.475000X0*%
%ADD12C,2.700000*%
%ADD13C,3.000000*%
%ADD14O,1.200000X2.200000*%
%ADD15O,2.200000X1.200000*%
%ADD16R,4.400000X1.800000*%
%ADD17O,4.000000X1.800000*%
%ADD18O,1.800000X4.000000*%
%ADD19C,6.000000*%
%ADD20R,1.350000X1.350000*%
%ADD21O,1.350000X1.350000*%
%ADD22FreePoly0,0.000000*%
%ADD23FreePoly1,0.000000*%
%ADD24RoundRect,0.250000X0.250000X0.475000X-0.250000X0.475000X-0.250000X-0.475000X0.250000X-0.475000X0*%
%ADD25R,1.500000X1.000000*%
%ADD26R,2.250000X2.250000*%
%ADD27C,2.250000*%
%ADD28C,0.600000*%
%ADD29R,2.000000X1.800000*%
%ADD30RoundRect,0.250000X0.262500X0.450000X-0.262500X0.450000X-0.262500X-0.450000X0.262500X-0.450000X0*%
%ADD31RoundRect,0.250000X-1.075000X0.375000X-1.075000X-0.375000X1.075000X-0.375000X1.075000X0.375000X0*%
%ADD32FreePoly2,180.000000*%
%ADD33FreePoly2,270.000000*%
%ADD34FreePoly3,180.000000*%
%ADD35RoundRect,0.050800X0.900000X1.000000X-0.900000X1.000000X-0.900000X-1.000000X0.900000X-1.000000X0*%
%ADD36FreePoly4,180.000000*%
%ADD37R,2.000000X2.000000*%
%ADD38C,2.000000*%
%ADD39C,3.200000*%
%ADD40RoundRect,0.250000X-0.475000X0.250000X-0.475000X-0.250000X0.475000X-0.250000X0.475000X0.250000X0*%
%ADD41RoundRect,0.250000X-1.000000X1.750000X-1.000000X-1.750000X1.000000X-1.750000X1.000000X1.750000X0*%
%ADD42RoundRect,0.250000X-0.450000X0.262500X-0.450000X-0.262500X0.450000X-0.262500X0.450000X0.262500X0*%
%ADD43FreePoly0,90.000000*%
%ADD44FreePoly1,90.000000*%
%ADD45RoundRect,0.250000X-1.750000X-1.000000X1.750000X-1.000000X1.750000X1.000000X-1.750000X1.000000X0*%
%ADD46RoundRect,0.102000X-0.300000X-1.100000X0.300000X-1.100000X0.300000X1.100000X-0.300000X1.100000X0*%
%ADD47R,1.300000X0.800000*%
%ADD48RoundRect,0.250000X-0.262500X-0.450000X0.262500X-0.450000X0.262500X0.450000X-0.262500X0.450000X0*%
%ADD49RoundRect,0.243750X0.243750X0.456250X-0.243750X0.456250X-0.243750X-0.456250X0.243750X-0.456250X0*%
%ADD50RoundRect,0.218750X0.256250X-0.218750X0.256250X0.218750X-0.256250X0.218750X-0.256250X-0.218750X0*%
%ADD51RoundRect,0.250000X0.325000X0.650000X-0.325000X0.650000X-0.325000X-0.650000X0.325000X-0.650000X0*%
%ADD52RoundRect,0.250000X-0.300000X0.300000X-0.300000X-0.300000X0.300000X-0.300000X0.300000X0.300000X0*%
%ADD53RoundRect,0.218750X-0.256250X0.218750X-0.256250X-0.218750X0.256250X-0.218750X0.256250X0.218750X0*%
%ADD54RoundRect,0.250000X0.312500X1.450000X-0.312500X1.450000X-0.312500X-1.450000X0.312500X-1.450000X0*%
%ADD55C,6.100000*%
%ADD56R,0.700000X0.200000*%
%ADD57RoundRect,0.218750X-0.218750X-0.256250X0.218750X-0.256250X0.218750X0.256250X-0.218750X0.256250X0*%
%ADD58R,0.650000X0.400000*%
%ADD59R,0.400000X0.650000*%
%ADD60RoundRect,0.250000X-0.325000X-0.650000X0.325000X-0.650000X0.325000X0.650000X-0.325000X0.650000X0*%
%ADD61RoundRect,0.250000X-0.650000X1.000000X-0.650000X-1.000000X0.650000X-1.000000X0.650000X1.000000X0*%
%ADD62R,1.700000X1.700000*%
%ADD63O,1.700000X1.700000*%
%ADD64C,1.350000*%
%ADD65RoundRect,0.250000X0.600000X0.725000X-0.600000X0.725000X-0.600000X-0.725000X0.600000X-0.725000X0*%
%ADD66O,1.700000X1.950000*%
G04 APERTURE END LIST*
%TO.C,Q1*%
D10*
X161300000Y-25898370D02*
X160497320Y-25898370D01*
X160497320Y-23500000D01*
X161300000Y-23500000D01*
X161300000Y-25898370D01*
G36*
X161300000Y-25898370D02*
G01*
X160497320Y-25898370D01*
X160497320Y-23500000D01*
X161300000Y-23500000D01*
X161300000Y-25898370D01*
G37*
X161300000Y-31101440D02*
X160499130Y-31101440D01*
X160499130Y-28700000D01*
X161300000Y-28700000D01*
X161300000Y-31101440D01*
G36*
X161300000Y-31101440D02*
G01*
X160499130Y-31101440D01*
X160499130Y-28700000D01*
X161300000Y-28700000D01*
X161300000Y-31101440D01*
G37*
X162550000Y-25897440D02*
X161748080Y-25897440D01*
X161748080Y-23500000D01*
X162550000Y-23500000D01*
X162550000Y-25897440D01*
G36*
X162550000Y-25897440D02*
G01*
X161748080Y-25897440D01*
X161748080Y-23500000D01*
X162550000Y-23500000D01*
X162550000Y-25897440D01*
G37*
X162550000Y-31102790D02*
X161749230Y-31102790D01*
X161749230Y-28700000D01*
X162550000Y-28700000D01*
X162550000Y-31102790D01*
G36*
X162550000Y-31102790D02*
G01*
X161749230Y-31102790D01*
X161749230Y-28700000D01*
X162550000Y-28700000D01*
X162550000Y-31102790D01*
G37*
X163850000Y-25898000D02*
X163050357Y-25898000D01*
X163050357Y-23500000D01*
X163850000Y-23500000D01*
X163850000Y-25898000D01*
G36*
X163850000Y-25898000D02*
G01*
X163050357Y-25898000D01*
X163050357Y-23500000D01*
X163850000Y-23500000D01*
X163850000Y-25898000D01*
G37*
X163850000Y-31107460D02*
X163050490Y-31107460D01*
X163050490Y-28700000D01*
X163850000Y-28700000D01*
X163850000Y-31107460D01*
G36*
X163850000Y-31107460D02*
G01*
X163050490Y-31107460D01*
X163050490Y-28700000D01*
X163850000Y-28700000D01*
X163850000Y-31107460D01*
G37*
X165100000Y-25898280D02*
X164301840Y-25898280D01*
X164301840Y-23500000D01*
X165100000Y-23500000D01*
X165100000Y-25898280D01*
G36*
X165100000Y-25898280D02*
G01*
X164301840Y-25898280D01*
X164301840Y-23500000D01*
X165100000Y-23500000D01*
X165100000Y-25898280D01*
G37*
%TD*%
D11*
%TO.C,C5*%
X141450000Y-44250000D03*
X143350000Y-44250000D03*
%TD*%
D12*
%TO.C,H13*%
X168000000Y-121500000D03*
%TD*%
D13*
%TO.C,FID1*%
X25000000Y-23000000D03*
%TD*%
D14*
%TO.C,J16*%
X125000000Y-29500000D03*
X122500000Y-29500000D03*
D15*
X120000000Y-24500000D03*
D14*
X115000000Y-29500000D03*
X117500000Y-29500000D03*
%TD*%
D13*
%TO.C,J15*%
X28050000Y-50000000D03*
X28050000Y-33770000D03*
X21700000Y-50000000D03*
X21700000Y-33770000D03*
X34400000Y-50000000D03*
X34400000Y-33770000D03*
%TD*%
%TO.C,J12*%
X28050000Y-111200000D03*
X28050000Y-94970000D03*
X21700000Y-111200000D03*
X21700000Y-94970000D03*
X34400000Y-111200000D03*
X34400000Y-94970000D03*
%TD*%
D11*
%TO.C,C16*%
X157700000Y-43850000D03*
X159600000Y-43850000D03*
%TD*%
D16*
%TO.C,J13*%
X179400000Y-30400000D03*
D17*
X179400000Y-24600000D03*
D18*
X174600000Y-27400000D03*
%TD*%
D19*
%TO.C,H4*%
X30000000Y-119000000D03*
%TD*%
D20*
%TO.C,J22*%
X29000000Y-56000000D03*
D21*
X31000000Y-56000000D03*
X29000000Y-58000000D03*
X31000000Y-58000000D03*
%TD*%
D22*
%TO.C,JP1*%
X48900000Y-102650000D03*
D23*
X50200000Y-102650000D03*
%TD*%
D24*
%TO.C,C20*%
X159450000Y-24500000D03*
X157550000Y-24500000D03*
%TD*%
D25*
%TO.C,D3*%
X119950000Y-49600000D03*
X119950000Y-46400000D03*
X115050000Y-46400000D03*
X115050000Y-49600000D03*
%TD*%
D19*
%TO.C,H2*%
X105000000Y-67000000D03*
%TD*%
%TO.C,H1*%
X30000000Y-67000000D03*
%TD*%
D13*
%TO.C,J11*%
X28050000Y-91000000D03*
X28050000Y-74770000D03*
X21700000Y-91000000D03*
X21700000Y-74770000D03*
X34400000Y-91000000D03*
X34400000Y-74770000D03*
%TD*%
D26*
%TO.C,PS1*%
X145530000Y-86155749D03*
D27*
X145530000Y-78535749D03*
X145530000Y-73455749D03*
X125210000Y-65835749D03*
X125210000Y-75995749D03*
X125210000Y-86155749D03*
%TD*%
D13*
%TO.C,J10*%
X181950000Y-94995000D03*
X181950000Y-111225000D03*
X188300000Y-94995000D03*
X188300000Y-111225000D03*
X175600000Y-94995000D03*
X175600000Y-111225000D03*
%TD*%
D25*
%TO.C,D4*%
X144950000Y-49600000D03*
X144950000Y-46400000D03*
X140050000Y-46400000D03*
X140050000Y-49600000D03*
%TD*%
D12*
%TO.C,H11*%
X118980000Y-121520000D03*
%TD*%
D20*
%TO.C,J19*%
X181000000Y-130000000D03*
D21*
X179000000Y-130000000D03*
X181000000Y-128000000D03*
X179000000Y-128000000D03*
%TD*%
D28*
%TO.C,H12*%
X80100000Y-21075000D03*
X80100000Y-22075000D03*
X80100000Y-23075000D03*
X80100000Y-24075000D03*
X80100000Y-25075000D03*
X80100000Y-26075000D03*
X80100000Y-30075000D03*
X80100000Y-31075000D03*
X80100000Y-32075000D03*
X80100000Y-33075000D03*
X80100000Y-34075000D03*
X80100000Y-35075000D03*
X80100000Y-36075000D03*
X81100000Y-36075000D03*
X82100000Y-36075000D03*
X83100000Y-36075000D03*
X84100000Y-36075000D03*
X85100000Y-36075000D03*
X86100000Y-36075000D03*
X87100000Y-36075000D03*
X88100000Y-36075000D03*
X90100000Y-36075000D03*
X91100000Y-36075000D03*
X92100000Y-36075000D03*
X93100000Y-36075000D03*
X94100000Y-36075000D03*
X95100000Y-36075000D03*
X96100000Y-36075000D03*
X97100000Y-36075000D03*
X98100000Y-36075000D03*
X100100000Y-36075000D03*
X101100000Y-36075000D03*
X102100000Y-36075000D03*
X103100000Y-36075000D03*
X104100000Y-36075000D03*
X105100000Y-36075000D03*
X106100000Y-36075000D03*
X107100000Y-36075000D03*
X108100000Y-36075000D03*
X109100000Y-36075000D03*
X110100000Y-36075000D03*
X112100000Y-36075000D03*
X113100000Y-36075000D03*
X114100000Y-36075000D03*
X115100000Y-36075000D03*
X116100000Y-36075000D03*
X117100000Y-36075000D03*
X118100000Y-36075000D03*
X119100000Y-36075000D03*
X120100000Y-36075000D03*
X122100000Y-36075000D03*
X123100000Y-36075000D03*
X124100000Y-36075000D03*
X125100000Y-36075000D03*
X126100000Y-36075000D03*
X127100000Y-36075000D03*
X128100000Y-36075000D03*
X129100000Y-36075000D03*
X130100000Y-21075000D03*
X130100000Y-22075000D03*
X130100000Y-23075000D03*
X130100000Y-24075000D03*
X130100000Y-25075000D03*
X130100000Y-26075000D03*
X130100000Y-27075000D03*
X130100000Y-28075000D03*
X130100000Y-29075000D03*
X130100000Y-30075000D03*
X130100000Y-31075000D03*
X130100000Y-32075000D03*
X130100000Y-33075000D03*
X130100000Y-34075000D03*
X130100000Y-35075000D03*
X130100000Y-36075000D03*
%TD*%
D20*
%TO.C,J23*%
X31000000Y-130000000D03*
D21*
X29000000Y-130000000D03*
X31000000Y-128000000D03*
X29000000Y-128000000D03*
%TD*%
D29*
%TO.C,SW2*%
X98000000Y-64500000D03*
X112000000Y-64500000D03*
X98000000Y-69500000D03*
X112000000Y-69500000D03*
%TD*%
D13*
%TO.C,FID2*%
X185000000Y-128000000D03*
%TD*%
D20*
%TO.C,J21*%
X106000000Y-78000000D03*
D21*
X104000000Y-78000000D03*
X106000000Y-76000000D03*
X104000000Y-76000000D03*
%TD*%
D30*
%TO.C,R5*%
X77737500Y-47650000D03*
X75912500Y-47650000D03*
%TD*%
D12*
%TO.C,H7*%
X42000000Y-23000000D03*
%TD*%
D31*
%TO.C,L6*%
X155300000Y-41200000D03*
X155300000Y-44000000D03*
%TD*%
D13*
%TO.C,J3*%
X181965000Y-33800000D03*
X181965000Y-50030000D03*
X188315000Y-33800000D03*
X188315000Y-50030000D03*
X175615000Y-33800000D03*
X175615000Y-50030000D03*
%TD*%
D24*
%TO.C,C1*%
X49050000Y-26100000D03*
X47150000Y-26100000D03*
%TD*%
D12*
%TO.C,H8*%
X168000000Y-63500000D03*
%TD*%
D32*
%TO.C,J1*%
X112500000Y-32000000D03*
D33*
X120000000Y-32000000D03*
D32*
X127500000Y-32000000D03*
X115000000Y-34500000D03*
X125000000Y-34500000D03*
D34*
X122500000Y-22000000D03*
D35*
X125000000Y-22000000D03*
X115000000Y-22000000D03*
D36*
X117500000Y-22000000D03*
%TD*%
D25*
%TO.C,D2*%
X94950000Y-49600000D03*
X94950000Y-46400000D03*
X90050000Y-46400000D03*
X90050000Y-49600000D03*
%TD*%
D37*
%TO.C,SW7*%
X60250000Y-31500000D03*
D38*
X60250000Y-36500000D03*
X60250000Y-34000000D03*
D39*
X67750000Y-28400000D03*
X67750000Y-39600000D03*
D38*
X74750000Y-36500000D03*
X74750000Y-31500000D03*
%TD*%
D40*
%TO.C,C2*%
X63050000Y-46000000D03*
X63050000Y-47900000D03*
%TD*%
D41*
%TO.C,C14*%
X162800000Y-46267500D03*
X162800000Y-54267500D03*
%TD*%
D20*
%TO.C,J18*%
X179000000Y-56000000D03*
D21*
X181000000Y-56000000D03*
X179000000Y-58000000D03*
X181000000Y-58000000D03*
%TD*%
D19*
%TO.C,H3*%
X180000000Y-67000000D03*
%TD*%
D42*
%TO.C,R1*%
X41000000Y-27687500D03*
X41000000Y-29512500D03*
%TD*%
D43*
%TO.C,JP3*%
X96800000Y-75450000D03*
D44*
X96800000Y-74150000D03*
%TD*%
D45*
%TO.C,C15*%
X138625000Y-56475000D03*
X146625000Y-56475000D03*
%TD*%
D25*
%TO.C,D1*%
X69950000Y-49600000D03*
X69950000Y-46400000D03*
X65050000Y-46400000D03*
X65050000Y-49600000D03*
%TD*%
D40*
%TO.C,C3*%
X88000000Y-46000000D03*
X88000000Y-47900000D03*
%TD*%
D46*
%TO.C,Q1*%
X164705000Y-29900000D03*
%TD*%
D13*
%TO.C,J9*%
X181950000Y-74780000D03*
X181950000Y-91010000D03*
X188300000Y-74780000D03*
X188300000Y-91010000D03*
X175600000Y-74780000D03*
X175600000Y-91010000D03*
%TD*%
D19*
%TO.C,H5*%
X105000000Y-119000000D03*
%TD*%
D43*
%TO.C,JP2*%
X168900000Y-115650000D03*
D44*
X168900000Y-114350000D03*
%TD*%
D29*
%TO.C,SW1*%
X23000000Y-64500000D03*
X37000000Y-64500000D03*
X23000000Y-69500000D03*
X37000000Y-69500000D03*
%TD*%
D47*
%TO.C,U2*%
X46650000Y-31130000D03*
X46650000Y-32400000D03*
X46650000Y-33670000D03*
X56150000Y-33670000D03*
X56150000Y-32400000D03*
X56150000Y-31130000D03*
%TD*%
D30*
%TO.C,R3*%
X56812500Y-35612500D03*
X54987500Y-35612500D03*
%TD*%
D48*
%TO.C,R2*%
X48637500Y-71950000D03*
X50462500Y-71950000D03*
%TD*%
D41*
%TO.C,C13*%
X162800000Y-33467500D03*
X162800000Y-41467500D03*
%TD*%
D49*
%TO.C,D6*%
X50437500Y-68000000D03*
X48562500Y-68000000D03*
%TD*%
D20*
%TO.C,J20*%
X104000000Y-108000000D03*
D21*
X106000000Y-108000000D03*
X104000000Y-110000000D03*
X106000000Y-110000000D03*
%TD*%
D48*
%TO.C,R4*%
X54987500Y-37550000D03*
X56812500Y-37550000D03*
%TD*%
D50*
%TO.C,L1*%
X42700000Y-29287500D03*
X42700000Y-27712500D03*
%TD*%
D51*
%TO.C,C18*%
X156575000Y-48950000D03*
X153625000Y-48950000D03*
%TD*%
D52*
%TO.C,D11*%
X44600000Y-31000000D03*
X44600000Y-33800000D03*
%TD*%
D40*
%TO.C,C4*%
X113050000Y-46000000D03*
X113050000Y-47900000D03*
%TD*%
D53*
%TO.C,L2*%
X42700000Y-30962500D03*
X42700000Y-32537500D03*
%TD*%
D54*
%TO.C,F1*%
X171837500Y-28750000D03*
X167562500Y-28750000D03*
%TD*%
D43*
%TO.C,JP4*%
X94300000Y-75450000D03*
D44*
X94300000Y-74150000D03*
%TD*%
D12*
%TO.C,H10*%
X118900000Y-63565600D03*
%TD*%
D24*
%TO.C,C17*%
X156550000Y-46800000D03*
X154650000Y-46800000D03*
%TD*%
D29*
%TO.C,SW6*%
X173000000Y-116500000D03*
X187000000Y-116500000D03*
X173000000Y-121500000D03*
X187000000Y-121500000D03*
%TD*%
D19*
%TO.C,H6*%
X180000000Y-119000000D03*
%TD*%
D55*
%TO.C,CM4*%
X89000000Y-111500000D03*
X89000000Y-63500000D03*
X56000000Y-111500000D03*
X56000000Y-63500000D03*
D56*
X91000000Y-94800000D03*
X87920000Y-94800000D03*
X91000000Y-94400000D03*
X87920000Y-94400000D03*
X91000000Y-94000000D03*
X87920000Y-94000000D03*
X91000000Y-93600000D03*
X87920000Y-93600000D03*
X91000000Y-93200000D03*
X87920000Y-93200000D03*
X91000000Y-92800000D03*
X87920000Y-92800000D03*
X91000000Y-92400000D03*
X87920000Y-92400000D03*
X91000000Y-92000000D03*
X87920000Y-92000000D03*
X91000000Y-91600000D03*
X87920000Y-91600000D03*
X91000000Y-91200000D03*
X87920000Y-91200000D03*
X91000000Y-90800000D03*
X87920000Y-90800000D03*
X91000000Y-90400000D03*
X87920000Y-90400000D03*
X91000000Y-90000000D03*
X87920000Y-90000000D03*
X91000000Y-89600000D03*
X87920000Y-89600000D03*
X91000000Y-89200000D03*
X87920000Y-89200000D03*
X91000000Y-88800000D03*
X87920000Y-88800000D03*
X91000000Y-88400000D03*
X87920000Y-88400000D03*
X91000000Y-88000000D03*
X87920000Y-88000000D03*
X91000000Y-87600000D03*
X87920000Y-87600000D03*
X91000000Y-87200000D03*
X87920000Y-87200000D03*
X91000000Y-86800000D03*
X87920000Y-86800000D03*
X91000000Y-86400000D03*
X87920000Y-86400000D03*
X91000000Y-86000000D03*
X87920000Y-86000000D03*
X91000000Y-85600000D03*
X87920000Y-85600000D03*
X91000000Y-85200000D03*
X87920000Y-85200000D03*
X91000000Y-84800000D03*
X87920000Y-84800000D03*
X91000000Y-84400000D03*
X87920000Y-84400000D03*
X91000000Y-84000000D03*
X87920000Y-84000000D03*
X91000000Y-83600000D03*
X87920000Y-83600000D03*
X91000000Y-83200000D03*
X87920000Y-83200000D03*
X91000000Y-82800000D03*
X87920000Y-82800000D03*
X91000000Y-82400000D03*
X87920000Y-82400000D03*
X91000000Y-82000000D03*
X87920000Y-82000000D03*
X91000000Y-81600000D03*
X87920000Y-81600000D03*
X91000000Y-81200000D03*
X87920000Y-81200000D03*
X91000000Y-80800000D03*
X87920000Y-80800000D03*
X91000000Y-80400000D03*
X87920000Y-80400000D03*
X91000000Y-80000000D03*
X87920000Y-80000000D03*
X91000000Y-79600000D03*
X87920000Y-79600000D03*
X91000000Y-79200000D03*
X87920000Y-79200000D03*
X91000000Y-78800000D03*
X87920000Y-78800000D03*
X91000000Y-78400000D03*
X87920000Y-78400000D03*
X91000000Y-78000000D03*
X87920000Y-78000000D03*
X91000000Y-77600000D03*
X87920000Y-77600000D03*
X91000000Y-77200000D03*
X87920000Y-77200000D03*
X91000000Y-76800000D03*
X87920000Y-76800000D03*
X91000000Y-76400000D03*
X87920000Y-76400000D03*
X91000000Y-76000000D03*
X87920000Y-76000000D03*
X91000000Y-75600000D03*
X87920000Y-75600000D03*
X91000000Y-75200000D03*
X87920000Y-75200000D03*
X57080000Y-94800000D03*
X54000000Y-94800000D03*
X57080000Y-94400000D03*
X54000000Y-94400000D03*
X57080000Y-94000000D03*
X54000000Y-94000000D03*
X57080000Y-93600000D03*
X54000000Y-93600000D03*
X57080000Y-93200000D03*
X54000000Y-93200000D03*
X57080000Y-92800000D03*
X54000000Y-92800000D03*
X57080000Y-92400000D03*
X54000000Y-92400000D03*
X57080000Y-92000000D03*
X54000000Y-92000000D03*
X57080000Y-91600000D03*
X54000000Y-91600000D03*
X57080000Y-91200000D03*
X54000000Y-91200000D03*
X57080000Y-90800000D03*
X54000000Y-90800000D03*
X57080000Y-90400000D03*
X54000000Y-90400000D03*
X57080000Y-90000000D03*
X54000000Y-90000000D03*
X57080000Y-89600000D03*
X54000000Y-89600000D03*
X57080000Y-89200000D03*
X54000000Y-89200000D03*
X57080000Y-88800000D03*
X54000000Y-88800000D03*
X57080000Y-88400000D03*
X54000000Y-88400000D03*
X57080000Y-88000000D03*
X54000000Y-88000000D03*
X57080000Y-87600000D03*
X54000000Y-87600000D03*
X57080000Y-87200000D03*
X54000000Y-87200000D03*
X57080000Y-86800000D03*
X54000000Y-86800000D03*
X57080000Y-86400000D03*
X54000000Y-86400000D03*
X57080000Y-86000000D03*
X54000000Y-86000000D03*
X57080000Y-85600000D03*
X54000000Y-85600000D03*
X57080000Y-85200000D03*
X54000000Y-85200000D03*
X57080000Y-84800000D03*
X54000000Y-84800000D03*
X57080000Y-84400000D03*
X54000000Y-84400000D03*
X57080000Y-84000000D03*
X54000000Y-84000000D03*
X57080000Y-83600000D03*
X54000000Y-83600000D03*
X57080000Y-83200000D03*
X54000000Y-83200000D03*
X57080000Y-82800000D03*
X54000000Y-82800000D03*
X57080000Y-82400000D03*
X54000000Y-82400000D03*
X57080000Y-82000000D03*
X54000000Y-82000000D03*
X57080000Y-81600000D03*
X54000000Y-81600000D03*
X57080000Y-81200000D03*
X54000000Y-81200000D03*
X57080000Y-80800000D03*
X54000000Y-80800000D03*
X57080000Y-80400000D03*
X54000000Y-80400000D03*
X57080000Y-80000000D03*
X54000000Y-80000000D03*
X57080000Y-79600000D03*
X54000000Y-79600000D03*
X57080000Y-79200000D03*
X54000000Y-79200000D03*
X57080000Y-78800000D03*
X54000000Y-78800000D03*
X57080000Y-78400000D03*
X54000000Y-78400000D03*
X57080000Y-78000000D03*
X54000000Y-78000000D03*
X57080000Y-77600000D03*
X54000000Y-77600000D03*
X57080000Y-77200000D03*
X54000000Y-77200000D03*
X57080000Y-76800000D03*
X54000000Y-76800000D03*
X57080000Y-76400000D03*
X54000000Y-76400000D03*
X57080000Y-76000000D03*
X54000000Y-76000000D03*
X57080000Y-75600000D03*
X54000000Y-75600000D03*
X57080000Y-75200000D03*
X54000000Y-75200000D03*
%TD*%
D29*
%TO.C,SW3*%
X173000000Y-64500000D03*
X187000000Y-64500000D03*
X173000000Y-69500000D03*
X187000000Y-69500000D03*
%TD*%
%TO.C,SW4*%
X23000000Y-116500000D03*
X37000000Y-116500000D03*
X23000000Y-121500000D03*
X37000000Y-121500000D03*
%TD*%
D48*
%TO.C,R6*%
X48587500Y-66100000D03*
X50412500Y-66100000D03*
%TD*%
D12*
%TO.C,H9*%
X168000000Y-23000000D03*
%TD*%
D49*
%TO.C,D5*%
X50437500Y-70000000D03*
X48562500Y-70000000D03*
%TD*%
D57*
%TO.C,L4*%
X51912500Y-37550000D03*
X53487500Y-37550000D03*
%TD*%
D58*
%TO.C,U3*%
X74150000Y-47600000D03*
X74150000Y-46950000D03*
X74150000Y-46300000D03*
X72250000Y-46300000D03*
X72250000Y-47600000D03*
%TD*%
D37*
%TO.C,SW8*%
X135250000Y-31500000D03*
D38*
X135250000Y-36500000D03*
X135250000Y-34000000D03*
D39*
X142750000Y-28400000D03*
X142750000Y-39600000D03*
D38*
X149750000Y-36500000D03*
X149750000Y-31500000D03*
%TD*%
D29*
%TO.C,SW5*%
X98000000Y-116500000D03*
X112000000Y-116500000D03*
X98000000Y-121500000D03*
X112000000Y-121500000D03*
%TD*%
D59*
%TO.C,U4*%
X50050000Y-62550600D03*
X49400000Y-62550600D03*
X48750000Y-62550600D03*
X48750000Y-64450600D03*
X50050000Y-64450600D03*
%TD*%
D60*
%TO.C,C19*%
X149750000Y-46225000D03*
X152700000Y-46225000D03*
%TD*%
D32*
%TO.C,J2*%
X82500000Y-32000000D03*
D33*
X90000000Y-32000000D03*
D32*
X97500000Y-32000000D03*
X85000000Y-34500000D03*
X95000000Y-34500000D03*
D34*
X92500000Y-22000000D03*
D35*
X95000000Y-22000000D03*
X85000000Y-22000000D03*
D36*
X87500000Y-22000000D03*
%TD*%
D61*
%TO.C,D13*%
X133650000Y-47300000D03*
X133650000Y-51300000D03*
%TD*%
D57*
%TO.C,L3*%
X51912500Y-35662500D03*
X53487500Y-35662500D03*
%TD*%
D14*
%TO.C,J17*%
X94994500Y-29500000D03*
X92494500Y-29500000D03*
D15*
X89994500Y-24500000D03*
D14*
X84994500Y-29500000D03*
X87494500Y-29500000D03*
%TD*%
D62*
%TO.C,J14*%
X135075000Y-59850000D03*
D63*
X135075000Y-57310000D03*
%TD*%
D64*
%TO.C,J5*%
X127000000Y-48000000D03*
D21*
X127000000Y-50000000D03*
%TD*%
D63*
%TO.C,U1*%
X127130000Y-57890000D03*
X124590000Y-57890000D03*
D62*
X122050000Y-57890000D03*
D63*
X119510000Y-57890000D03*
X116970000Y-57890000D03*
X114430000Y-57890000D03*
X111890000Y-57890000D03*
D62*
X109350000Y-57890000D03*
D63*
X106810000Y-57890000D03*
X104270000Y-57890000D03*
X101730000Y-57890000D03*
X99190000Y-57890000D03*
D62*
X96650000Y-57890000D03*
D63*
X94110000Y-57890000D03*
X91570000Y-57890000D03*
X89030000Y-57890000D03*
X86490000Y-57890000D03*
D62*
X83950000Y-57890000D03*
D63*
X81410000Y-57890000D03*
X78870000Y-57890000D03*
X78870000Y-40110000D03*
X81410000Y-40110000D03*
D62*
X83950000Y-40110000D03*
D63*
X86490000Y-40110000D03*
X89030000Y-40110000D03*
X91570000Y-40110000D03*
X94110000Y-40110000D03*
D62*
X96650000Y-40110000D03*
D63*
X99190000Y-40110000D03*
X101730000Y-40110000D03*
X104270000Y-40110000D03*
X106810000Y-40110000D03*
D62*
X109350000Y-40110000D03*
D63*
X111890000Y-40110000D03*
X114430000Y-40110000D03*
X116970000Y-40110000D03*
X119510000Y-40110000D03*
D62*
X122050000Y-40110000D03*
D63*
X124590000Y-40110000D03*
X127130000Y-40110000D03*
%TD*%
D65*
%TO.C,J24*%
X49600000Y-28475000D03*
D66*
X47100000Y-28475000D03*
X44600000Y-28475000D03*
%TD*%
D65*
%TO.C,J4*%
X42900000Y-127100000D03*
D66*
X40400000Y-127100000D03*
X37900000Y-127100000D03*
%TD*%
D62*
%TO.C,J8*%
X120250000Y-68375600D03*
D63*
X117710000Y-68375600D03*
X120250000Y-70915600D03*
X117710000Y-70915600D03*
X120250000Y-73455600D03*
X117710000Y-73455600D03*
X120250000Y-75995600D03*
X117710000Y-75995600D03*
X120250000Y-78535600D03*
X117710000Y-78535600D03*
X120250000Y-81075600D03*
X117710000Y-81075600D03*
X120250000Y-83615600D03*
X117710000Y-83615600D03*
X120250000Y-86155600D03*
X117710000Y-86155600D03*
X120250000Y-88695600D03*
X117710000Y-88695600D03*
X120250000Y-91235600D03*
X117710000Y-91235600D03*
X120250000Y-93775600D03*
X117710000Y-93775600D03*
X120250000Y-96315600D03*
X117710000Y-96315600D03*
X120250000Y-98855600D03*
X117710000Y-98855600D03*
X120250000Y-101395600D03*
X117710000Y-101395600D03*
X120250000Y-103935600D03*
X117710000Y-103935600D03*
X120250000Y-106475600D03*
X117710000Y-106475600D03*
X120250000Y-109015600D03*
X117710000Y-109015600D03*
X120250000Y-111555600D03*
X117710000Y-111555600D03*
X120250000Y-114095600D03*
X117710000Y-114095600D03*
X120250000Y-116635600D03*
X117710000Y-116635600D03*
D62*
X156555000Y-74845600D03*
D63*
X154015000Y-74845600D03*
X156555000Y-77385600D03*
X154015000Y-77385600D03*
X156555000Y-79925600D03*
X154015000Y-79925600D03*
D62*
X152380000Y-119150600D03*
D63*
X152380000Y-121690600D03*
X154920000Y-119150600D03*
X154920000Y-121690600D03*
X157460000Y-119150600D03*
X157460000Y-121690600D03*
%TD*%
D65*
%TO.C,J25*%
X49600000Y-36225000D03*
D66*
X47100000Y-36225000D03*
X44600000Y-36225000D03*
%TD*%
M02*
