M48
; DRILL file {KiCad 7.0.7-7.0.7~ubuntu23.04.1} date Tue Oct 17 09:42:53 2023
; FORMAT={-:-/ absolute / metric / decimal}
; #@! TF.CreationDate,2023-10-17T09:42:53+00:00
; #@! TF.GenerationSoftware,Kicad,Pcbnew,7.0.7-7.0.7~ubuntu23.04.1
; #@! TF.FileFunction,MixedPlating,1,2
FMAT,2
METRIC
; #@! TA.AperFunction,Plated,PTH,ViaDrill
T1C0.400
; #@! TA.AperFunction,Plated,PTH,ComponentDrill
T2C0.400
; #@! TA.AperFunction,Plated,PTH,ComponentDrill
T3C0.508
; #@! TA.AperFunction,Plated,PTH,ViaDrill
T4C0.800
; #@! TA.AperFunction,Plated,PTH,ComponentDrill
T5C0.800
; #@! TA.AperFunction,Plated,PTH,ComponentDrill
T6C0.950
; #@! TA.AperFunction,Plated,PTH,ComponentDrill
T7C1.000
; #@! TA.AperFunction,Plated,PTH,ComponentDrill
T8C1.020
; #@! TA.AperFunction,Plated,PTH,ComponentDrill
T9C1.321
; #@! TA.AperFunction,Plated,PTH,ComponentDrill
T10C1.400
; #@! TA.AperFunction,Plated,PTH,ComponentDrill
T11C2.600
; #@! TA.AperFunction,NonPlated,NPTH,ComponentDrill
T12C0.500
; #@! TA.AperFunction,NonPlated,NPTH,ComponentDrill
T13C1.200
; #@! TA.AperFunction,NonPlated,NPTH,ComponentDrill
T14C2.700
; #@! TA.AperFunction,NonPlated,NPTH,ComponentDrill
T15C3.700
%
G90
G05
T1
X24.2Y-69.5
X24.2Y-121.5
X35.8Y-69.5
X37.0Y-122.6
X39.1Y-125.7
X41.8Y-116.1
X43.8Y-121.5
X44.651Y-101.8
X45.375Y-100.2
X46.4Y-26.1
X48.1Y-62.501
X48.249Y-26.1
X51.2Y-68.1
X55.3Y-33.65
X55.5Y-75.0
X55.5Y-78.0
X55.5Y-80.5
X55.5Y-83.0
X55.5Y-85.5
X55.5Y-88.0
X55.5Y-90.5
X55.5Y-93.0
X55.5Y-95.5
X56.15Y-94.0
X58.65Y-93.1
X63.05Y-48.7
X70.9Y-49.6
X74.9Y-46.2
X77.2Y-48.946
X78.5Y-88.7
X80.305Y-46.199
X82.7Y-90.4
X83.0Y-91.7
X83.2Y-85.4
X83.3Y-86.787
X83.35Y-89.25
X83.4Y-88.1
X83.526Y-92.714
X83.799Y-90.387
X84.0Y-83.1
X84.075Y-84.688
X84.134Y-86.087
X84.5Y-87.599
X84.7Y-83.9
X85.3Y-77.5
X85.3Y-78.5
X85.9Y-86.7
X86.6Y-80.3
X86.7Y-75.6
X87.1Y-47.9
X89.5Y-81.5
X89.5Y-87.6
X89.5Y-93.5
X89.5Y-96.0
X92.9Y-94.3
X94.025Y-86.925
X94.3Y-74.15
X95.001Y-77.3
X95.001Y-80.4
X95.302Y-93.663
X95.538Y-85.894
X95.816Y-92.806
X95.9Y-49.6
X95.9Y-82.3
X96.059Y-83.599
X96.3Y-89.599
X96.4Y-80.7
X96.8Y-74.15
X97.1Y-87.1
X97.4Y-83.001
X97.5Y-84.8
X97.511Y-92.382
X97.684Y-90.399
X98.449Y-82.241
X98.557Y-92.2
X98.917Y-87.799
X99.2Y-69.6
X99.2Y-121.5
X99.8Y-91.2
X109.55Y-115.8
X110.8Y-69.9
X110.8Y-121.5
X112.15Y-47.9
X114.26Y-79.8
X114.8Y-116.9
X120.9Y-49.6
X122.1Y-44.25
X144.15Y-44.25
X145.9Y-49.6
X152.9Y-42.0
X153.2Y-49.4
X154.0Y-58.3
X155.9Y-24.5
X155.9Y-26.6
X156.1Y-49.4
X158.5Y-57.4
X158.8Y-49.4
X160.7Y-46.5
X161.6Y-38.1
X163.4Y-43.9
X165.5Y-41.0
X165.6Y-35.3
X166.4Y-46.8
X168.8Y-53.4
X170.1Y-66.9
X170.588Y-117.512
X172.5Y-114.5
X174.2Y-69.4
X174.2Y-121.5
X178.8Y-93.8
X185.8Y-69.5
X185.8Y-121.45
T3
X127.0Y-48.0
X127.0Y-50.0
T4
X70.2Y-57.1
X70.2Y-62.1
X80.2Y-49.9
X83.1Y-45.65
X128.0Y-63.0
T5
X29.0Y-56.0
X29.0Y-58.0
X29.0Y-128.0
X29.0Y-130.0
X31.0Y-56.0
X31.0Y-58.0
X31.0Y-128.0
X31.0Y-130.0
X104.0Y-76.0
X104.0Y-78.0
X104.0Y-108.0
X104.0Y-110.0
X106.0Y-76.0
X106.0Y-78.0
X106.0Y-108.0
X106.0Y-110.0
X179.0Y-56.0
X179.0Y-58.0
X179.0Y-128.0
X179.0Y-130.0
X181.0Y-56.0
X181.0Y-58.0
X181.0Y-128.0
X181.0Y-130.0
T6
X37.9Y-127.1
X40.4Y-127.1
X42.9Y-127.1
X44.6Y-28.475
X44.6Y-36.225
X47.1Y-28.475
X47.1Y-36.225
X49.6Y-28.475
X49.6Y-36.225
T7
X60.25Y-31.5
X60.25Y-34.0
X60.25Y-36.5
X74.75Y-31.5
X74.75Y-36.5
X102.145Y-81.3
X104.685Y-81.3
X107.225Y-81.3
X117.71Y-68.376
X117.71Y-70.916
X117.71Y-73.456
X117.71Y-75.996
X117.71Y-78.536
X117.71Y-81.076
X117.71Y-83.616
X117.71Y-86.156
X117.71Y-88.696
X117.71Y-91.236
X117.71Y-93.776
X117.71Y-96.316
X117.71Y-98.856
X117.71Y-101.396
X117.71Y-103.936
X117.71Y-106.476
X117.71Y-109.016
X117.71Y-111.556
X117.71Y-114.096
X117.71Y-116.636
X120.25Y-68.376
X120.25Y-70.916
X120.25Y-73.456
X120.25Y-75.996
X120.25Y-78.536
X120.25Y-81.076
X120.25Y-83.616
X120.25Y-86.156
X120.25Y-88.696
X120.25Y-91.236
X120.25Y-93.776
X120.25Y-96.316
X120.25Y-98.856
X120.25Y-101.396
X120.25Y-103.936
X120.25Y-106.476
X120.25Y-109.016
X120.25Y-111.556
X120.25Y-114.096
X120.25Y-116.636
X135.25Y-31.5
X135.25Y-34.0
X135.25Y-36.5
X149.75Y-31.5
X149.75Y-36.5
X152.38Y-119.151
X152.38Y-121.691
X154.015Y-74.846
X154.015Y-77.386
X154.015Y-79.926
X154.92Y-119.151
X154.92Y-121.691
X156.555Y-74.846
X156.555Y-77.386
X156.555Y-79.926
X157.46Y-119.151
X157.46Y-121.691
T8
X78.87Y-40.11
X78.87Y-57.89
X81.41Y-40.11
X81.41Y-57.89
X83.95Y-40.11
X83.95Y-57.89
X86.49Y-40.11
X86.49Y-57.89
X89.03Y-40.11
X89.03Y-57.89
X91.57Y-40.11
X91.57Y-57.89
X94.11Y-40.11
X94.11Y-57.89
X96.65Y-40.11
X96.65Y-57.89
X99.19Y-40.11
X99.19Y-57.89
X101.73Y-40.11
X101.73Y-57.89
X104.27Y-40.11
X104.27Y-57.89
X106.81Y-40.11
X106.81Y-57.89
X109.35Y-40.11
X109.35Y-57.89
X111.89Y-40.11
X111.89Y-57.89
X114.43Y-40.11
X114.43Y-57.89
X116.97Y-40.11
X116.97Y-57.89
X119.51Y-40.11
X119.51Y-57.89
X122.05Y-40.11
X122.05Y-57.89
X124.59Y-40.11
X124.59Y-57.89
X127.13Y-40.11
X127.13Y-57.89
T9
X82.5Y-32.0
X85.0Y-22.0
X85.0Y-34.5
X87.5Y-22.0
X90.0Y-32.0
X92.5Y-22.0
X95.0Y-22.0
X95.0Y-34.5
X97.5Y-32.0
X112.5Y-32.0
X115.0Y-22.0
X115.0Y-34.5
X117.5Y-22.0
X120.0Y-32.0
X122.5Y-22.0
X125.0Y-22.0
X125.0Y-34.5
X127.5Y-32.0
T10
X21.7Y-33.77
X21.7Y-50.0
X21.7Y-74.77
X21.7Y-91.0
X21.7Y-94.97
X21.7Y-111.2
X28.05Y-33.77
X28.05Y-50.0
X28.05Y-74.77
X28.05Y-91.0
X28.05Y-94.97
X28.05Y-111.2
X34.4Y-33.77
X34.4Y-50.0
X34.4Y-74.77
X34.4Y-91.0
X34.4Y-94.97
X34.4Y-111.2
X175.6Y-74.78
X175.6Y-91.01
X175.6Y-94.995
X175.6Y-111.225
X175.615Y-33.8
X175.615Y-50.03
X181.95Y-74.78
X181.95Y-91.01
X181.95Y-94.995
X181.95Y-111.225
X181.965Y-33.8
X181.965Y-50.03
X188.3Y-74.78
X188.3Y-91.01
X188.3Y-94.995
X188.3Y-111.225
X188.315Y-33.8
X188.315Y-50.03
T11
X67.75Y-28.4
X67.75Y-39.6
X142.75Y-28.4
X142.75Y-39.6
T12
X80.1Y-21.075
X80.1Y-22.075
X80.1Y-23.075
X80.1Y-24.075
X80.1Y-25.075
X80.1Y-26.075
X80.1Y-30.075
X80.1Y-31.075
X80.1Y-32.075
X80.1Y-33.075
X80.1Y-34.075
X80.1Y-35.075
X80.1Y-36.075
X81.1Y-36.075
X82.1Y-36.075
X83.1Y-36.075
X84.1Y-36.075
X85.1Y-36.075
X86.1Y-36.075
X87.1Y-36.075
X88.1Y-36.075
X90.1Y-36.075
X91.1Y-36.075
X92.1Y-36.075
X93.1Y-36.075
X94.1Y-36.075
X95.1Y-36.075
X96.1Y-36.075
X97.1Y-36.075
X98.1Y-36.075
X100.1Y-36.075
X101.1Y-36.075
X102.1Y-36.075
X103.1Y-36.075
X104.1Y-36.075
X105.1Y-36.075
X106.1Y-36.075
X107.1Y-36.075
X108.1Y-36.075
X109.1Y-36.075
X110.1Y-36.075
X112.1Y-36.075
X113.1Y-36.075
X114.1Y-36.075
X115.1Y-36.075
X116.1Y-36.075
X117.1Y-36.075
X118.1Y-36.075
X119.1Y-36.075
X120.1Y-36.075
X122.1Y-36.075
X123.1Y-36.075
X124.1Y-36.075
X125.1Y-36.075
X126.1Y-36.075
X127.1Y-36.075
X128.1Y-36.075
X129.1Y-36.075
X130.1Y-21.075
X130.1Y-22.075
X130.1Y-23.075
X130.1Y-24.075
X130.1Y-25.075
X130.1Y-26.075
X130.1Y-27.075
X130.1Y-28.075
X130.1Y-29.075
X130.1Y-30.075
X130.1Y-31.075
X130.1Y-32.075
X130.1Y-33.075
X130.1Y-34.075
X130.1Y-35.075
X130.1Y-36.075
T13
X84.995Y-24.5
X89.995Y-29.5
X94.995Y-24.5
X115.0Y-24.5
X120.0Y-29.5
X125.0Y-24.5
T14
X42.0Y-23.0
X56.0Y-63.5
X56.0Y-111.5
X89.0Y-63.5
X89.0Y-111.5
X118.9Y-63.566
X118.98Y-121.52
X168.0Y-23.0
X168.0Y-63.5
X168.0Y-121.5
T15
X30.0Y-67.0
X30.0Y-119.0
X105.0Y-67.0
X105.0Y-119.0
X180.0Y-67.0
X180.0Y-119.0
T2
G00X84.995Y-29.0
M15
G01X84.995Y-30.0
M16
G05
G00X87.495Y-29.0
M15
G01X87.495Y-30.0
M16
G05
G00X90.495Y-24.5
M15
G01X89.495Y-24.5
M16
G05
G00X92.495Y-30.0
M15
G01X92.495Y-29.0
M16
G05
G00X94.995Y-30.0
M15
G01X94.995Y-29.0
M16
G05
G00X115.0Y-29.0
M15
G01X115.0Y-30.0
M16
G05
G00X117.5Y-29.0
M15
G01X117.5Y-30.0
M16
G05
G00X120.5Y-24.5
M15
G01X119.5Y-24.5
M16
G05
G00X122.5Y-30.0
M15
G01X122.5Y-29.0
M16
G05
G00X125.0Y-30.0
M15
G01X125.0Y-29.0
M16
G05
T5
G00X174.6Y-26.3
M15
G01X174.6Y-28.5
M16
G05
G00X180.5Y-24.6
M15
G01X178.3Y-24.6
M16
G05
G00X180.7Y-30.4
M15
G01X178.1Y-30.4
M16
G05
T0
M30
