%TF.GenerationSoftware,KiCad,Pcbnew,7.0.8-7.0.8~ubuntu23.04.1*%
%TF.CreationDate,2023-10-22T16:57:25+00:00*%
%TF.ProjectId,pedalboard-hw,70656461-6c62-46f6-9172-642d68772e6b,3.0.2-RC*%
%TF.SameCoordinates,Original*%
%TF.FileFunction,AssemblyDrawing,Bot*%
%FSLAX46Y46*%
G04 Gerber Fmt 4.6, Leading zero omitted, Abs format (unit mm)*
G04 Created by KiCad (PCBNEW 7.0.8-7.0.8~ubuntu23.04.1) date 2023-10-22 16:57:25*
%MOMM*%
%LPD*%
G01*
G04 APERTURE LIST*
%ADD10C,0.150000*%
%ADD11C,0.100000*%
G04 APERTURE END LIST*
D10*
X50052381Y-32529819D02*
X50052381Y-33244104D01*
X50052381Y-33244104D02*
X50100000Y-33386961D01*
X50100000Y-33386961D02*
X50195238Y-33482200D01*
X50195238Y-33482200D02*
X50338095Y-33529819D01*
X50338095Y-33529819D02*
X50433333Y-33529819D01*
X49623809Y-33482200D02*
X49480952Y-33529819D01*
X49480952Y-33529819D02*
X49242857Y-33529819D01*
X49242857Y-33529819D02*
X49147619Y-33482200D01*
X49147619Y-33482200D02*
X49100000Y-33434580D01*
X49100000Y-33434580D02*
X49052381Y-33339342D01*
X49052381Y-33339342D02*
X49052381Y-33244104D01*
X49052381Y-33244104D02*
X49100000Y-33148866D01*
X49100000Y-33148866D02*
X49147619Y-33101247D01*
X49147619Y-33101247D02*
X49242857Y-33053628D01*
X49242857Y-33053628D02*
X49433333Y-33006009D01*
X49433333Y-33006009D02*
X49528571Y-32958390D01*
X49528571Y-32958390D02*
X49576190Y-32910771D01*
X49576190Y-32910771D02*
X49623809Y-32815533D01*
X49623809Y-32815533D02*
X49623809Y-32720295D01*
X49623809Y-32720295D02*
X49576190Y-32625057D01*
X49576190Y-32625057D02*
X49528571Y-32577438D01*
X49528571Y-32577438D02*
X49433333Y-32529819D01*
X49433333Y-32529819D02*
X49195238Y-32529819D01*
X49195238Y-32529819D02*
X49052381Y-32577438D01*
X48766666Y-32529819D02*
X48195238Y-32529819D01*
X48480952Y-33529819D02*
X48480952Y-32529819D01*
X47195237Y-32529819D02*
X46528571Y-33529819D01*
X46528571Y-32529819D02*
X47195237Y-33529819D01*
X46147618Y-33529819D02*
X46147618Y-32529819D01*
X46147618Y-33006009D02*
X45576190Y-33006009D01*
X45576190Y-33529819D02*
X45576190Y-32529819D01*
X44433332Y-32529819D02*
X43814285Y-32529819D01*
X43814285Y-32529819D02*
X44147618Y-32910771D01*
X44147618Y-32910771D02*
X44004761Y-32910771D01*
X44004761Y-32910771D02*
X43909523Y-32958390D01*
X43909523Y-32958390D02*
X43861904Y-33006009D01*
X43861904Y-33006009D02*
X43814285Y-33101247D01*
X43814285Y-33101247D02*
X43814285Y-33339342D01*
X43814285Y-33339342D02*
X43861904Y-33434580D01*
X43861904Y-33434580D02*
X43909523Y-33482200D01*
X43909523Y-33482200D02*
X44004761Y-33529819D01*
X44004761Y-33529819D02*
X44290475Y-33529819D01*
X44290475Y-33529819D02*
X44385713Y-33482200D01*
X44385713Y-33482200D02*
X44433332Y-33434580D01*
X47909523Y-30629819D02*
X47909523Y-31344104D01*
X47909523Y-31344104D02*
X47957142Y-31486961D01*
X47957142Y-31486961D02*
X48052380Y-31582200D01*
X48052380Y-31582200D02*
X48195237Y-31629819D01*
X48195237Y-31629819D02*
X48290475Y-31629819D01*
X47480951Y-30725057D02*
X47433332Y-30677438D01*
X47433332Y-30677438D02*
X47338094Y-30629819D01*
X47338094Y-30629819D02*
X47099999Y-30629819D01*
X47099999Y-30629819D02*
X47004761Y-30677438D01*
X47004761Y-30677438D02*
X46957142Y-30725057D01*
X46957142Y-30725057D02*
X46909523Y-30820295D01*
X46909523Y-30820295D02*
X46909523Y-30915533D01*
X46909523Y-30915533D02*
X46957142Y-31058390D01*
X46957142Y-31058390D02*
X47528570Y-31629819D01*
X47528570Y-31629819D02*
X46909523Y-31629819D01*
X46576189Y-30629819D02*
X45957142Y-30629819D01*
X45957142Y-30629819D02*
X46290475Y-31010771D01*
X46290475Y-31010771D02*
X46147618Y-31010771D01*
X46147618Y-31010771D02*
X46052380Y-31058390D01*
X46052380Y-31058390D02*
X46004761Y-31106009D01*
X46004761Y-31106009D02*
X45957142Y-31201247D01*
X45957142Y-31201247D02*
X45957142Y-31439342D01*
X45957142Y-31439342D02*
X46004761Y-31534580D01*
X46004761Y-31534580D02*
X46052380Y-31582200D01*
X46052380Y-31582200D02*
X46147618Y-31629819D01*
X46147618Y-31629819D02*
X46433332Y-31629819D01*
X46433332Y-31629819D02*
X46528570Y-31582200D01*
X46528570Y-31582200D02*
X46576189Y-31534580D01*
X43352381Y-131154819D02*
X43352381Y-131869104D01*
X43352381Y-131869104D02*
X43400000Y-132011961D01*
X43400000Y-132011961D02*
X43495238Y-132107200D01*
X43495238Y-132107200D02*
X43638095Y-132154819D01*
X43638095Y-132154819D02*
X43733333Y-132154819D01*
X42923809Y-132107200D02*
X42780952Y-132154819D01*
X42780952Y-132154819D02*
X42542857Y-132154819D01*
X42542857Y-132154819D02*
X42447619Y-132107200D01*
X42447619Y-132107200D02*
X42400000Y-132059580D01*
X42400000Y-132059580D02*
X42352381Y-131964342D01*
X42352381Y-131964342D02*
X42352381Y-131869104D01*
X42352381Y-131869104D02*
X42400000Y-131773866D01*
X42400000Y-131773866D02*
X42447619Y-131726247D01*
X42447619Y-131726247D02*
X42542857Y-131678628D01*
X42542857Y-131678628D02*
X42733333Y-131631009D01*
X42733333Y-131631009D02*
X42828571Y-131583390D01*
X42828571Y-131583390D02*
X42876190Y-131535771D01*
X42876190Y-131535771D02*
X42923809Y-131440533D01*
X42923809Y-131440533D02*
X42923809Y-131345295D01*
X42923809Y-131345295D02*
X42876190Y-131250057D01*
X42876190Y-131250057D02*
X42828571Y-131202438D01*
X42828571Y-131202438D02*
X42733333Y-131154819D01*
X42733333Y-131154819D02*
X42495238Y-131154819D01*
X42495238Y-131154819D02*
X42352381Y-131202438D01*
X42066666Y-131154819D02*
X41495238Y-131154819D01*
X41780952Y-132154819D02*
X41780952Y-131154819D01*
X40495237Y-131154819D02*
X39828571Y-132154819D01*
X39828571Y-131154819D02*
X40495237Y-132154819D01*
X39447618Y-132154819D02*
X39447618Y-131154819D01*
X39447618Y-131631009D02*
X38876190Y-131631009D01*
X38876190Y-132154819D02*
X38876190Y-131154819D01*
X37733332Y-131154819D02*
X37114285Y-131154819D01*
X37114285Y-131154819D02*
X37447618Y-131535771D01*
X37447618Y-131535771D02*
X37304761Y-131535771D01*
X37304761Y-131535771D02*
X37209523Y-131583390D01*
X37209523Y-131583390D02*
X37161904Y-131631009D01*
X37161904Y-131631009D02*
X37114285Y-131726247D01*
X37114285Y-131726247D02*
X37114285Y-131964342D01*
X37114285Y-131964342D02*
X37161904Y-132059580D01*
X37161904Y-132059580D02*
X37209523Y-132107200D01*
X37209523Y-132107200D02*
X37304761Y-132154819D01*
X37304761Y-132154819D02*
X37590475Y-132154819D01*
X37590475Y-132154819D02*
X37685713Y-132107200D01*
X37685713Y-132107200D02*
X37733332Y-132059580D01*
X41209523Y-129254819D02*
X41209523Y-129969104D01*
X41209523Y-129969104D02*
X41257142Y-130111961D01*
X41257142Y-130111961D02*
X41352380Y-130207200D01*
X41352380Y-130207200D02*
X41495237Y-130254819D01*
X41495237Y-130254819D02*
X41590475Y-130254819D01*
X40780951Y-129350057D02*
X40733332Y-129302438D01*
X40733332Y-129302438D02*
X40638094Y-129254819D01*
X40638094Y-129254819D02*
X40399999Y-129254819D01*
X40399999Y-129254819D02*
X40304761Y-129302438D01*
X40304761Y-129302438D02*
X40257142Y-129350057D01*
X40257142Y-129350057D02*
X40209523Y-129445295D01*
X40209523Y-129445295D02*
X40209523Y-129540533D01*
X40209523Y-129540533D02*
X40257142Y-129683390D01*
X40257142Y-129683390D02*
X40828570Y-130254819D01*
X40828570Y-130254819D02*
X40209523Y-130254819D01*
X39352380Y-129254819D02*
X39542856Y-129254819D01*
X39542856Y-129254819D02*
X39638094Y-129302438D01*
X39638094Y-129302438D02*
X39685713Y-129350057D01*
X39685713Y-129350057D02*
X39780951Y-129492914D01*
X39780951Y-129492914D02*
X39828570Y-129683390D01*
X39828570Y-129683390D02*
X39828570Y-130064342D01*
X39828570Y-130064342D02*
X39780951Y-130159580D01*
X39780951Y-130159580D02*
X39733332Y-130207200D01*
X39733332Y-130207200D02*
X39638094Y-130254819D01*
X39638094Y-130254819D02*
X39447618Y-130254819D01*
X39447618Y-130254819D02*
X39352380Y-130207200D01*
X39352380Y-130207200D02*
X39304761Y-130159580D01*
X39304761Y-130159580D02*
X39257142Y-130064342D01*
X39257142Y-130064342D02*
X39257142Y-129826247D01*
X39257142Y-129826247D02*
X39304761Y-129731009D01*
X39304761Y-129731009D02*
X39352380Y-129683390D01*
X39352380Y-129683390D02*
X39447618Y-129635771D01*
X39447618Y-129635771D02*
X39638094Y-129635771D01*
X39638094Y-129635771D02*
X39733332Y-129683390D01*
X39733332Y-129683390D02*
X39780951Y-129731009D01*
X39780951Y-129731009D02*
X39828570Y-129826247D01*
X124154819Y-90275600D02*
X123154819Y-90275600D01*
X123631009Y-90275600D02*
X123631009Y-90847028D01*
X124154819Y-90847028D02*
X123154819Y-90847028D01*
X124154819Y-91323219D02*
X123488152Y-91323219D01*
X123154819Y-91323219D02*
X123202438Y-91275600D01*
X123202438Y-91275600D02*
X123250057Y-91323219D01*
X123250057Y-91323219D02*
X123202438Y-91370838D01*
X123202438Y-91370838D02*
X123154819Y-91323219D01*
X123154819Y-91323219D02*
X123250057Y-91323219D01*
X123631009Y-92132742D02*
X123631009Y-91799409D01*
X124154819Y-91799409D02*
X123154819Y-91799409D01*
X123154819Y-91799409D02*
X123154819Y-92275599D01*
X124154819Y-92656552D02*
X123488152Y-92656552D01*
X123154819Y-92656552D02*
X123202438Y-92608933D01*
X123202438Y-92608933D02*
X123250057Y-92656552D01*
X123250057Y-92656552D02*
X123202438Y-92704171D01*
X123202438Y-92704171D02*
X123154819Y-92656552D01*
X123154819Y-92656552D02*
X123250057Y-92656552D01*
X123631009Y-94227980D02*
X123678628Y-94370837D01*
X123678628Y-94370837D02*
X123726247Y-94418456D01*
X123726247Y-94418456D02*
X123821485Y-94466075D01*
X123821485Y-94466075D02*
X123964342Y-94466075D01*
X123964342Y-94466075D02*
X124059580Y-94418456D01*
X124059580Y-94418456D02*
X124107200Y-94370837D01*
X124107200Y-94370837D02*
X124154819Y-94275599D01*
X124154819Y-94275599D02*
X124154819Y-93894647D01*
X124154819Y-93894647D02*
X123154819Y-93894647D01*
X123154819Y-93894647D02*
X123154819Y-94227980D01*
X123154819Y-94227980D02*
X123202438Y-94323218D01*
X123202438Y-94323218D02*
X123250057Y-94370837D01*
X123250057Y-94370837D02*
X123345295Y-94418456D01*
X123345295Y-94418456D02*
X123440533Y-94418456D01*
X123440533Y-94418456D02*
X123535771Y-94370837D01*
X123535771Y-94370837D02*
X123583390Y-94323218D01*
X123583390Y-94323218D02*
X123631009Y-94227980D01*
X123631009Y-94227980D02*
X123631009Y-93894647D01*
X124107200Y-95275599D02*
X124154819Y-95180361D01*
X124154819Y-95180361D02*
X124154819Y-94989885D01*
X124154819Y-94989885D02*
X124107200Y-94894647D01*
X124107200Y-94894647D02*
X124011961Y-94847028D01*
X124011961Y-94847028D02*
X123631009Y-94847028D01*
X123631009Y-94847028D02*
X123535771Y-94894647D01*
X123535771Y-94894647D02*
X123488152Y-94989885D01*
X123488152Y-94989885D02*
X123488152Y-95180361D01*
X123488152Y-95180361D02*
X123535771Y-95275599D01*
X123535771Y-95275599D02*
X123631009Y-95323218D01*
X123631009Y-95323218D02*
X123726247Y-95323218D01*
X123726247Y-95323218D02*
X123821485Y-94847028D01*
X124154819Y-95751790D02*
X123488152Y-95751790D01*
X123678628Y-95751790D02*
X123583390Y-95799409D01*
X123583390Y-95799409D02*
X123535771Y-95847028D01*
X123535771Y-95847028D02*
X123488152Y-95942266D01*
X123488152Y-95942266D02*
X123488152Y-96037504D01*
X124154819Y-96370838D02*
X123488152Y-96370838D01*
X123678628Y-96370838D02*
X123583390Y-96418457D01*
X123583390Y-96418457D02*
X123535771Y-96466076D01*
X123535771Y-96466076D02*
X123488152Y-96561314D01*
X123488152Y-96561314D02*
X123488152Y-96656552D01*
X123488152Y-96894648D02*
X124154819Y-97132743D01*
X123488152Y-97370838D02*
X124154819Y-97132743D01*
X124154819Y-97132743D02*
X124392914Y-97037505D01*
X124392914Y-97037505D02*
X124440533Y-96989886D01*
X124440533Y-96989886D02*
X124488152Y-96894648D01*
X50052381Y-40279819D02*
X50052381Y-40994104D01*
X50052381Y-40994104D02*
X50100000Y-41136961D01*
X50100000Y-41136961D02*
X50195238Y-41232200D01*
X50195238Y-41232200D02*
X50338095Y-41279819D01*
X50338095Y-41279819D02*
X50433333Y-41279819D01*
X49623809Y-41232200D02*
X49480952Y-41279819D01*
X49480952Y-41279819D02*
X49242857Y-41279819D01*
X49242857Y-41279819D02*
X49147619Y-41232200D01*
X49147619Y-41232200D02*
X49100000Y-41184580D01*
X49100000Y-41184580D02*
X49052381Y-41089342D01*
X49052381Y-41089342D02*
X49052381Y-40994104D01*
X49052381Y-40994104D02*
X49100000Y-40898866D01*
X49100000Y-40898866D02*
X49147619Y-40851247D01*
X49147619Y-40851247D02*
X49242857Y-40803628D01*
X49242857Y-40803628D02*
X49433333Y-40756009D01*
X49433333Y-40756009D02*
X49528571Y-40708390D01*
X49528571Y-40708390D02*
X49576190Y-40660771D01*
X49576190Y-40660771D02*
X49623809Y-40565533D01*
X49623809Y-40565533D02*
X49623809Y-40470295D01*
X49623809Y-40470295D02*
X49576190Y-40375057D01*
X49576190Y-40375057D02*
X49528571Y-40327438D01*
X49528571Y-40327438D02*
X49433333Y-40279819D01*
X49433333Y-40279819D02*
X49195238Y-40279819D01*
X49195238Y-40279819D02*
X49052381Y-40327438D01*
X48766666Y-40279819D02*
X48195238Y-40279819D01*
X48480952Y-41279819D02*
X48480952Y-40279819D01*
X47195237Y-40279819D02*
X46528571Y-41279819D01*
X46528571Y-40279819D02*
X47195237Y-41279819D01*
X46147618Y-41279819D02*
X46147618Y-40279819D01*
X46147618Y-40756009D02*
X45576190Y-40756009D01*
X45576190Y-41279819D02*
X45576190Y-40279819D01*
X44433332Y-40279819D02*
X43814285Y-40279819D01*
X43814285Y-40279819D02*
X44147618Y-40660771D01*
X44147618Y-40660771D02*
X44004761Y-40660771D01*
X44004761Y-40660771D02*
X43909523Y-40708390D01*
X43909523Y-40708390D02*
X43861904Y-40756009D01*
X43861904Y-40756009D02*
X43814285Y-40851247D01*
X43814285Y-40851247D02*
X43814285Y-41089342D01*
X43814285Y-41089342D02*
X43861904Y-41184580D01*
X43861904Y-41184580D02*
X43909523Y-41232200D01*
X43909523Y-41232200D02*
X44004761Y-41279819D01*
X44004761Y-41279819D02*
X44290475Y-41279819D01*
X44290475Y-41279819D02*
X44385713Y-41232200D01*
X44385713Y-41232200D02*
X44433332Y-41184580D01*
X47909523Y-38379819D02*
X47909523Y-39094104D01*
X47909523Y-39094104D02*
X47957142Y-39236961D01*
X47957142Y-39236961D02*
X48052380Y-39332200D01*
X48052380Y-39332200D02*
X48195237Y-39379819D01*
X48195237Y-39379819D02*
X48290475Y-39379819D01*
X47480951Y-38475057D02*
X47433332Y-38427438D01*
X47433332Y-38427438D02*
X47338094Y-38379819D01*
X47338094Y-38379819D02*
X47099999Y-38379819D01*
X47099999Y-38379819D02*
X47004761Y-38427438D01*
X47004761Y-38427438D02*
X46957142Y-38475057D01*
X46957142Y-38475057D02*
X46909523Y-38570295D01*
X46909523Y-38570295D02*
X46909523Y-38665533D01*
X46909523Y-38665533D02*
X46957142Y-38808390D01*
X46957142Y-38808390D02*
X47528570Y-39379819D01*
X47528570Y-39379819D02*
X46909523Y-39379819D01*
X46052380Y-38713152D02*
X46052380Y-39379819D01*
X46290475Y-38332200D02*
X46528570Y-39046485D01*
X46528570Y-39046485D02*
X45909523Y-39046485D01*
D11*
%TO.C,J23*%
X52050000Y-31875000D02*
X42150000Y-31875000D01*
X52050000Y-26125000D02*
X52050000Y-31875000D01*
X50225000Y-26125000D02*
X49600000Y-27125000D01*
X49600000Y-27125000D02*
X48975000Y-26125000D01*
X42150000Y-31875000D02*
X42150000Y-26125000D01*
X42150000Y-26125000D02*
X52050000Y-26125000D01*
%TO.C,J26*%
X45350000Y-130500000D02*
X35450000Y-130500000D01*
X45350000Y-124750000D02*
X45350000Y-130500000D01*
X43525000Y-124750000D02*
X42900000Y-125750000D01*
X42900000Y-125750000D02*
X42275000Y-124750000D01*
X35450000Y-130500000D02*
X35450000Y-124750000D01*
X35450000Y-124750000D02*
X45350000Y-124750000D01*
%TO.C,J25*%
X158730000Y-122960600D02*
X151110000Y-122960600D01*
X158730000Y-117880600D02*
X158730000Y-122960600D01*
X157825000Y-81195600D02*
X152745000Y-81195600D01*
X157825000Y-74575600D02*
X157825000Y-81195600D01*
X156825000Y-73575600D02*
X157825000Y-74575600D01*
X152745000Y-81195600D02*
X152745000Y-73575600D01*
X152745000Y-73575600D02*
X156825000Y-73575600D01*
X152110000Y-117880600D02*
X158730000Y-117880600D01*
X151110000Y-122960600D02*
X151110000Y-118880600D01*
X151110000Y-118880600D02*
X152110000Y-117880600D01*
X121520000Y-117905600D02*
X116440000Y-117905600D01*
X121520000Y-68105600D02*
X121520000Y-117905600D01*
X120520000Y-67105600D02*
X121520000Y-68105600D01*
X116440000Y-117905600D02*
X116440000Y-67105600D01*
X116440000Y-67105600D02*
X120520000Y-67105600D01*
%TO.C,J24*%
X52050000Y-39625000D02*
X42150000Y-39625000D01*
X52050000Y-33875000D02*
X52050000Y-39625000D01*
X50225000Y-33875000D02*
X49600000Y-34875000D01*
X49600000Y-34875000D02*
X48975000Y-33875000D01*
X42150000Y-39625000D02*
X42150000Y-33875000D01*
X42150000Y-33875000D02*
X52050000Y-33875000D01*
%TD*%
M02*
