%TF.GenerationSoftware,KiCad,Pcbnew,7.0.7-7.0.7~ubuntu23.04.1*%
%TF.CreationDate,2023-10-18T10:41:40+00:00*%
%TF.ProjectId,pedalboard-hw,70656461-6c62-46f6-9172-642d68772e6b,3.0.0-RC1*%
%TF.SameCoordinates,Original*%
%TF.FileFunction,Other,User*%
%FSLAX46Y46*%
G04 Gerber Fmt 4.6, Leading zero omitted, Abs format (unit mm)*
G04 Created by KiCad (PCBNEW 7.0.7-7.0.7~ubuntu23.04.1) date 2023-10-18 10:41:40*
%MOMM*%
%LPD*%
G01*
G04 APERTURE LIST*
%ADD10C,0.050000*%
%ADD11C,0.120000*%
G04 APERTURE END LIST*
D10*
%TO.C,J5*%
X127967078Y-50006600D02*
G75*
G03*
X127967078Y-50006600I-965200J0D01*
G01*
X127965534Y-48000000D02*
G75*
G03*
X127965534Y-48000000I-965534J0D01*
G01*
D11*
%TO.C,U1*%
X77000000Y-60000000D02*
X129000000Y-60000000D01*
X129000000Y-60000000D02*
X129000000Y-38000000D01*
X77000000Y-38000000D02*
X77000000Y-60000000D01*
X129000000Y-38000000D02*
X77000000Y-38000000D01*
D10*
%TO.C,J24*%
X52550000Y-32375000D02*
X41650000Y-32375000D01*
X52550000Y-25625000D02*
X52550000Y-32375000D01*
X41650000Y-32375000D02*
X41650000Y-25625000D01*
X41650000Y-25625000D02*
X52550000Y-25625000D01*
%TO.C,J4*%
X45850000Y-131000000D02*
X34950000Y-131000000D01*
X45850000Y-124250000D02*
X45850000Y-131000000D01*
X34950000Y-131000000D02*
X34950000Y-124250000D01*
X34950000Y-124250000D02*
X45850000Y-124250000D01*
%TO.C,J8*%
X159230000Y-123490600D02*
X150580000Y-123490600D01*
X159230000Y-117390600D02*
X159230000Y-123490600D01*
X158315000Y-81695600D02*
X152215000Y-81695600D01*
X158315000Y-73045600D02*
X158315000Y-81695600D01*
X152215000Y-81695600D02*
X152215000Y-73045600D01*
X152215000Y-73045600D02*
X158315000Y-73045600D01*
X150580000Y-123490600D02*
X150580000Y-117390600D01*
X150580000Y-117390600D02*
X159230000Y-117390600D01*
X122010000Y-118375600D02*
X115910000Y-118375600D01*
X122010000Y-66575600D02*
X122010000Y-118375600D01*
X115910000Y-118375600D02*
X115910000Y-66575600D01*
X115910000Y-66575600D02*
X122010000Y-66575600D01*
%TO.C,J25*%
X52550000Y-40125000D02*
X41650000Y-40125000D01*
X52550000Y-33375000D02*
X52550000Y-40125000D01*
X41650000Y-40125000D02*
X41650000Y-33375000D01*
X41650000Y-33375000D02*
X52550000Y-33375000D01*
%TD*%
M02*
