%TF.GenerationSoftware,KiCad,Pcbnew,7.0.7-7.0.7~ubuntu23.04.1*%
%TF.CreationDate,2023-10-12T21:24:15+00:00*%
%TF.ProjectId,pedalboard-hw,70656461-6c62-46f6-9172-642d68772e6b,3.0.0-RC1*%
%TF.SameCoordinates,Original*%
%TF.FileFunction,AssemblyDrawing,Bot*%
%FSLAX46Y46*%
G04 Gerber Fmt 4.6, Leading zero omitted, Abs format (unit mm)*
G04 Created by KiCad (PCBNEW 7.0.7-7.0.7~ubuntu23.04.1) date 2023-10-12 21:24:15*
%MOMM*%
%LPD*%
G01*
G04 APERTURE LIST*
%ADD10C,0.150000*%
%ADD11C,0.100000*%
%ADD12C,0.120000*%
G04 APERTURE END LIST*
D10*
X115696428Y-87284819D02*
X115696428Y-88094342D01*
X115696428Y-88094342D02*
X115648809Y-88189580D01*
X115648809Y-88189580D02*
X115601190Y-88237200D01*
X115601190Y-88237200D02*
X115505952Y-88284819D01*
X115505952Y-88284819D02*
X115315476Y-88284819D01*
X115315476Y-88284819D02*
X115220238Y-88237200D01*
X115220238Y-88237200D02*
X115172619Y-88189580D01*
X115172619Y-88189580D02*
X115125000Y-88094342D01*
X115125000Y-88094342D02*
X115125000Y-87284819D01*
X114696428Y-88237200D02*
X114553571Y-88284819D01*
X114553571Y-88284819D02*
X114315476Y-88284819D01*
X114315476Y-88284819D02*
X114220238Y-88237200D01*
X114220238Y-88237200D02*
X114172619Y-88189580D01*
X114172619Y-88189580D02*
X114125000Y-88094342D01*
X114125000Y-88094342D02*
X114125000Y-87999104D01*
X114125000Y-87999104D02*
X114172619Y-87903866D01*
X114172619Y-87903866D02*
X114220238Y-87856247D01*
X114220238Y-87856247D02*
X114315476Y-87808628D01*
X114315476Y-87808628D02*
X114505952Y-87761009D01*
X114505952Y-87761009D02*
X114601190Y-87713390D01*
X114601190Y-87713390D02*
X114648809Y-87665771D01*
X114648809Y-87665771D02*
X114696428Y-87570533D01*
X114696428Y-87570533D02*
X114696428Y-87475295D01*
X114696428Y-87475295D02*
X114648809Y-87380057D01*
X114648809Y-87380057D02*
X114601190Y-87332438D01*
X114601190Y-87332438D02*
X114505952Y-87284819D01*
X114505952Y-87284819D02*
X114267857Y-87284819D01*
X114267857Y-87284819D02*
X114125000Y-87332438D01*
X113363095Y-87761009D02*
X113220238Y-87808628D01*
X113220238Y-87808628D02*
X113172619Y-87856247D01*
X113172619Y-87856247D02*
X113125000Y-87951485D01*
X113125000Y-87951485D02*
X113125000Y-88094342D01*
X113125000Y-88094342D02*
X113172619Y-88189580D01*
X113172619Y-88189580D02*
X113220238Y-88237200D01*
X113220238Y-88237200D02*
X113315476Y-88284819D01*
X113315476Y-88284819D02*
X113696428Y-88284819D01*
X113696428Y-88284819D02*
X113696428Y-87284819D01*
X113696428Y-87284819D02*
X113363095Y-87284819D01*
X113363095Y-87284819D02*
X113267857Y-87332438D01*
X113267857Y-87332438D02*
X113220238Y-87380057D01*
X113220238Y-87380057D02*
X113172619Y-87475295D01*
X113172619Y-87475295D02*
X113172619Y-87570533D01*
X113172619Y-87570533D02*
X113220238Y-87665771D01*
X113220238Y-87665771D02*
X113267857Y-87713390D01*
X113267857Y-87713390D02*
X113363095Y-87761009D01*
X113363095Y-87761009D02*
X113696428Y-87761009D01*
X112934524Y-88380057D02*
X112172619Y-88380057D01*
X111982142Y-87999104D02*
X111505952Y-87999104D01*
X112077380Y-88284819D02*
X111744047Y-87284819D01*
X111744047Y-87284819D02*
X111410714Y-88284819D01*
X113079819Y-93636666D02*
X113794104Y-93636666D01*
X113794104Y-93636666D02*
X113936961Y-93589047D01*
X113936961Y-93589047D02*
X114032200Y-93493809D01*
X114032200Y-93493809D02*
X114079819Y-93350952D01*
X114079819Y-93350952D02*
X114079819Y-93255714D01*
X113079819Y-94541428D02*
X113079819Y-94350952D01*
X113079819Y-94350952D02*
X113127438Y-94255714D01*
X113127438Y-94255714D02*
X113175057Y-94208095D01*
X113175057Y-94208095D02*
X113317914Y-94112857D01*
X113317914Y-94112857D02*
X113508390Y-94065238D01*
X113508390Y-94065238D02*
X113889342Y-94065238D01*
X113889342Y-94065238D02*
X113984580Y-94112857D01*
X113984580Y-94112857D02*
X114032200Y-94160476D01*
X114032200Y-94160476D02*
X114079819Y-94255714D01*
X114079819Y-94255714D02*
X114079819Y-94446190D01*
X114079819Y-94446190D02*
X114032200Y-94541428D01*
X114032200Y-94541428D02*
X113984580Y-94589047D01*
X113984580Y-94589047D02*
X113889342Y-94636666D01*
X113889342Y-94636666D02*
X113651247Y-94636666D01*
X113651247Y-94636666D02*
X113556009Y-94589047D01*
X113556009Y-94589047D02*
X113508390Y-94541428D01*
X113508390Y-94541428D02*
X113460771Y-94446190D01*
X113460771Y-94446190D02*
X113460771Y-94255714D01*
X113460771Y-94255714D02*
X113508390Y-94160476D01*
X113508390Y-94160476D02*
X113556009Y-94112857D01*
X113556009Y-94112857D02*
X113651247Y-94065238D01*
X143198095Y-55399580D02*
X143245714Y-55447200D01*
X143245714Y-55447200D02*
X143388571Y-55494819D01*
X143388571Y-55494819D02*
X143483809Y-55494819D01*
X143483809Y-55494819D02*
X143626666Y-55447200D01*
X143626666Y-55447200D02*
X143721904Y-55351961D01*
X143721904Y-55351961D02*
X143769523Y-55256723D01*
X143769523Y-55256723D02*
X143817142Y-55066247D01*
X143817142Y-55066247D02*
X143817142Y-54923390D01*
X143817142Y-54923390D02*
X143769523Y-54732914D01*
X143769523Y-54732914D02*
X143721904Y-54637676D01*
X143721904Y-54637676D02*
X143626666Y-54542438D01*
X143626666Y-54542438D02*
X143483809Y-54494819D01*
X143483809Y-54494819D02*
X143388571Y-54494819D01*
X143388571Y-54494819D02*
X143245714Y-54542438D01*
X143245714Y-54542438D02*
X143198095Y-54590057D01*
X142626666Y-55494819D02*
X142721904Y-55447200D01*
X142721904Y-55447200D02*
X142769523Y-55399580D01*
X142769523Y-55399580D02*
X142817142Y-55304342D01*
X142817142Y-55304342D02*
X142817142Y-55018628D01*
X142817142Y-55018628D02*
X142769523Y-54923390D01*
X142769523Y-54923390D02*
X142721904Y-54875771D01*
X142721904Y-54875771D02*
X142626666Y-54828152D01*
X142626666Y-54828152D02*
X142483809Y-54828152D01*
X142483809Y-54828152D02*
X142388571Y-54875771D01*
X142388571Y-54875771D02*
X142340952Y-54923390D01*
X142340952Y-54923390D02*
X142293333Y-55018628D01*
X142293333Y-55018628D02*
X142293333Y-55304342D01*
X142293333Y-55304342D02*
X142340952Y-55399580D01*
X142340952Y-55399580D02*
X142388571Y-55447200D01*
X142388571Y-55447200D02*
X142483809Y-55494819D01*
X142483809Y-55494819D02*
X142626666Y-55494819D01*
X141864761Y-54828152D02*
X141864761Y-55494819D01*
X141864761Y-54923390D02*
X141817142Y-54875771D01*
X141817142Y-54875771D02*
X141721904Y-54828152D01*
X141721904Y-54828152D02*
X141579047Y-54828152D01*
X141579047Y-54828152D02*
X141483809Y-54875771D01*
X141483809Y-54875771D02*
X141436190Y-54971009D01*
X141436190Y-54971009D02*
X141436190Y-55494819D01*
X140959999Y-54828152D02*
X140959999Y-55494819D01*
X140959999Y-54923390D02*
X140912380Y-54875771D01*
X140912380Y-54875771D02*
X140817142Y-54828152D01*
X140817142Y-54828152D02*
X140674285Y-54828152D01*
X140674285Y-54828152D02*
X140579047Y-54875771D01*
X140579047Y-54875771D02*
X140531428Y-54971009D01*
X140531428Y-54971009D02*
X140531428Y-55494819D01*
X140293333Y-55590057D02*
X139531428Y-55590057D01*
X139102856Y-54494819D02*
X139007618Y-54494819D01*
X139007618Y-54494819D02*
X138912380Y-54542438D01*
X138912380Y-54542438D02*
X138864761Y-54590057D01*
X138864761Y-54590057D02*
X138817142Y-54685295D01*
X138817142Y-54685295D02*
X138769523Y-54875771D01*
X138769523Y-54875771D02*
X138769523Y-55113866D01*
X138769523Y-55113866D02*
X138817142Y-55304342D01*
X138817142Y-55304342D02*
X138864761Y-55399580D01*
X138864761Y-55399580D02*
X138912380Y-55447200D01*
X138912380Y-55447200D02*
X139007618Y-55494819D01*
X139007618Y-55494819D02*
X139102856Y-55494819D01*
X139102856Y-55494819D02*
X139198094Y-55447200D01*
X139198094Y-55447200D02*
X139245713Y-55399580D01*
X139245713Y-55399580D02*
X139293332Y-55304342D01*
X139293332Y-55304342D02*
X139340951Y-55113866D01*
X139340951Y-55113866D02*
X139340951Y-54875771D01*
X139340951Y-54875771D02*
X139293332Y-54685295D01*
X139293332Y-54685295D02*
X139245713Y-54590057D01*
X139245713Y-54590057D02*
X139198094Y-54542438D01*
X139198094Y-54542438D02*
X139102856Y-54494819D01*
X138388570Y-54590057D02*
X138340951Y-54542438D01*
X138340951Y-54542438D02*
X138245713Y-54494819D01*
X138245713Y-54494819D02*
X138007618Y-54494819D01*
X138007618Y-54494819D02*
X137912380Y-54542438D01*
X137912380Y-54542438D02*
X137864761Y-54590057D01*
X137864761Y-54590057D02*
X137817142Y-54685295D01*
X137817142Y-54685295D02*
X137817142Y-54780533D01*
X137817142Y-54780533D02*
X137864761Y-54923390D01*
X137864761Y-54923390D02*
X138436189Y-55494819D01*
X138436189Y-55494819D02*
X137817142Y-55494819D01*
X137483808Y-55494819D02*
X136959999Y-54828152D01*
X137483808Y-54828152D02*
X136959999Y-55494819D01*
X136388570Y-54494819D02*
X136293332Y-54494819D01*
X136293332Y-54494819D02*
X136198094Y-54542438D01*
X136198094Y-54542438D02*
X136150475Y-54590057D01*
X136150475Y-54590057D02*
X136102856Y-54685295D01*
X136102856Y-54685295D02*
X136055237Y-54875771D01*
X136055237Y-54875771D02*
X136055237Y-55113866D01*
X136055237Y-55113866D02*
X136102856Y-55304342D01*
X136102856Y-55304342D02*
X136150475Y-55399580D01*
X136150475Y-55399580D02*
X136198094Y-55447200D01*
X136198094Y-55447200D02*
X136293332Y-55494819D01*
X136293332Y-55494819D02*
X136388570Y-55494819D01*
X136388570Y-55494819D02*
X136483808Y-55447200D01*
X136483808Y-55447200D02*
X136531427Y-55399580D01*
X136531427Y-55399580D02*
X136579046Y-55304342D01*
X136579046Y-55304342D02*
X136626665Y-55113866D01*
X136626665Y-55113866D02*
X136626665Y-54875771D01*
X136626665Y-54875771D02*
X136579046Y-54685295D01*
X136579046Y-54685295D02*
X136531427Y-54590057D01*
X136531427Y-54590057D02*
X136483808Y-54542438D01*
X136483808Y-54542438D02*
X136388570Y-54494819D01*
X135102856Y-55494819D02*
X135674284Y-55494819D01*
X135388570Y-55494819D02*
X135388570Y-54494819D01*
X135388570Y-54494819D02*
X135483808Y-54637676D01*
X135483808Y-54637676D02*
X135579046Y-54732914D01*
X135579046Y-54732914D02*
X135674284Y-54780533D01*
X137299819Y-57770476D02*
X138014104Y-57770476D01*
X138014104Y-57770476D02*
X138156961Y-57722857D01*
X138156961Y-57722857D02*
X138252200Y-57627619D01*
X138252200Y-57627619D02*
X138299819Y-57484762D01*
X138299819Y-57484762D02*
X138299819Y-57389524D01*
X138299819Y-58770476D02*
X138299819Y-58199048D01*
X138299819Y-58484762D02*
X137299819Y-58484762D01*
X137299819Y-58484762D02*
X137442676Y-58389524D01*
X137442676Y-58389524D02*
X137537914Y-58294286D01*
X137537914Y-58294286D02*
X137585533Y-58199048D01*
X137633152Y-59627619D02*
X138299819Y-59627619D01*
X137252200Y-59389524D02*
X137966485Y-59151429D01*
X137966485Y-59151429D02*
X137966485Y-59770476D01*
X131473009Y-56684419D02*
X131473009Y-55684419D01*
X131473009Y-55684419D02*
X131092057Y-55684419D01*
X131092057Y-55684419D02*
X130996819Y-55732038D01*
X130996819Y-55732038D02*
X130949200Y-55779657D01*
X130949200Y-55779657D02*
X130901581Y-55874895D01*
X130901581Y-55874895D02*
X130901581Y-56017752D01*
X130901581Y-56017752D02*
X130949200Y-56112990D01*
X130949200Y-56112990D02*
X130996819Y-56160609D01*
X130996819Y-56160609D02*
X131092057Y-56208228D01*
X131092057Y-56208228D02*
X131473009Y-56208228D01*
X130473009Y-56684419D02*
X130473009Y-56017752D01*
X130473009Y-55684419D02*
X130520628Y-55732038D01*
X130520628Y-55732038D02*
X130473009Y-55779657D01*
X130473009Y-55779657D02*
X130425390Y-55732038D01*
X130425390Y-55732038D02*
X130473009Y-55684419D01*
X130473009Y-55684419D02*
X130473009Y-55779657D01*
X129568248Y-56636800D02*
X129663486Y-56684419D01*
X129663486Y-56684419D02*
X129853962Y-56684419D01*
X129853962Y-56684419D02*
X129949200Y-56636800D01*
X129949200Y-56636800D02*
X129996819Y-56589180D01*
X129996819Y-56589180D02*
X130044438Y-56493942D01*
X130044438Y-56493942D02*
X130044438Y-56208228D01*
X130044438Y-56208228D02*
X129996819Y-56112990D01*
X129996819Y-56112990D02*
X129949200Y-56065371D01*
X129949200Y-56065371D02*
X129853962Y-56017752D01*
X129853962Y-56017752D02*
X129663486Y-56017752D01*
X129663486Y-56017752D02*
X129568248Y-56065371D01*
X128996819Y-56684419D02*
X129092057Y-56636800D01*
X129092057Y-56636800D02*
X129139676Y-56589180D01*
X129139676Y-56589180D02*
X129187295Y-56493942D01*
X129187295Y-56493942D02*
X129187295Y-56208228D01*
X129187295Y-56208228D02*
X129139676Y-56112990D01*
X129139676Y-56112990D02*
X129092057Y-56065371D01*
X129092057Y-56065371D02*
X128996819Y-56017752D01*
X128996819Y-56017752D02*
X128853962Y-56017752D01*
X128853962Y-56017752D02*
X128758724Y-56065371D01*
X128758724Y-56065371D02*
X128711105Y-56112990D01*
X128711105Y-56112990D02*
X128663486Y-56208228D01*
X128663486Y-56208228D02*
X128663486Y-56493942D01*
X128663486Y-56493942D02*
X128711105Y-56589180D01*
X128711105Y-56589180D02*
X128758724Y-56636800D01*
X128758724Y-56636800D02*
X128853962Y-56684419D01*
X128853962Y-56684419D02*
X128996819Y-56684419D01*
X127473009Y-55684419D02*
X127473009Y-56493942D01*
X127473009Y-56493942D02*
X127425390Y-56589180D01*
X127425390Y-56589180D02*
X127377771Y-56636800D01*
X127377771Y-56636800D02*
X127282533Y-56684419D01*
X127282533Y-56684419D02*
X127092057Y-56684419D01*
X127092057Y-56684419D02*
X126996819Y-56636800D01*
X126996819Y-56636800D02*
X126949200Y-56589180D01*
X126949200Y-56589180D02*
X126901581Y-56493942D01*
X126901581Y-56493942D02*
X126901581Y-55684419D01*
X126473009Y-56636800D02*
X126330152Y-56684419D01*
X126330152Y-56684419D02*
X126092057Y-56684419D01*
X126092057Y-56684419D02*
X125996819Y-56636800D01*
X125996819Y-56636800D02*
X125949200Y-56589180D01*
X125949200Y-56589180D02*
X125901581Y-56493942D01*
X125901581Y-56493942D02*
X125901581Y-56398704D01*
X125901581Y-56398704D02*
X125949200Y-56303466D01*
X125949200Y-56303466D02*
X125996819Y-56255847D01*
X125996819Y-56255847D02*
X126092057Y-56208228D01*
X126092057Y-56208228D02*
X126282533Y-56160609D01*
X126282533Y-56160609D02*
X126377771Y-56112990D01*
X126377771Y-56112990D02*
X126425390Y-56065371D01*
X126425390Y-56065371D02*
X126473009Y-55970133D01*
X126473009Y-55970133D02*
X126473009Y-55874895D01*
X126473009Y-55874895D02*
X126425390Y-55779657D01*
X126425390Y-55779657D02*
X126377771Y-55732038D01*
X126377771Y-55732038D02*
X126282533Y-55684419D01*
X126282533Y-55684419D02*
X126044438Y-55684419D01*
X126044438Y-55684419D02*
X125901581Y-55732038D01*
X125139676Y-56160609D02*
X124996819Y-56208228D01*
X124996819Y-56208228D02*
X124949200Y-56255847D01*
X124949200Y-56255847D02*
X124901581Y-56351085D01*
X124901581Y-56351085D02*
X124901581Y-56493942D01*
X124901581Y-56493942D02*
X124949200Y-56589180D01*
X124949200Y-56589180D02*
X124996819Y-56636800D01*
X124996819Y-56636800D02*
X125092057Y-56684419D01*
X125092057Y-56684419D02*
X125473009Y-56684419D01*
X125473009Y-56684419D02*
X125473009Y-55684419D01*
X125473009Y-55684419D02*
X125139676Y-55684419D01*
X125139676Y-55684419D02*
X125044438Y-55732038D01*
X125044438Y-55732038D02*
X124996819Y-55779657D01*
X124996819Y-55779657D02*
X124949200Y-55874895D01*
X124949200Y-55874895D02*
X124949200Y-55970133D01*
X124949200Y-55970133D02*
X124996819Y-56065371D01*
X124996819Y-56065371D02*
X125044438Y-56112990D01*
X125044438Y-56112990D02*
X125139676Y-56160609D01*
X125139676Y-56160609D02*
X125473009Y-56160609D01*
X123853961Y-55684419D02*
X123282533Y-55684419D01*
X123568247Y-56684419D02*
X123568247Y-55684419D01*
X122949199Y-56684419D02*
X122949199Y-55684419D01*
X122949199Y-55684419D02*
X122568247Y-55684419D01*
X122568247Y-55684419D02*
X122473009Y-55732038D01*
X122473009Y-55732038D02*
X122425390Y-55779657D01*
X122425390Y-55779657D02*
X122377771Y-55874895D01*
X122377771Y-55874895D02*
X122377771Y-56017752D01*
X122377771Y-56017752D02*
X122425390Y-56112990D01*
X122425390Y-56112990D02*
X122473009Y-56160609D01*
X122473009Y-56160609D02*
X122568247Y-56208228D01*
X122568247Y-56208228D02*
X122949199Y-56208228D01*
X126454819Y-48666666D02*
X127169104Y-48666666D01*
X127169104Y-48666666D02*
X127311961Y-48619047D01*
X127311961Y-48619047D02*
X127407200Y-48523809D01*
X127407200Y-48523809D02*
X127454819Y-48380952D01*
X127454819Y-48380952D02*
X127454819Y-48285714D01*
X126454819Y-49619047D02*
X126454819Y-49142857D01*
X126454819Y-49142857D02*
X126931009Y-49095238D01*
X126931009Y-49095238D02*
X126883390Y-49142857D01*
X126883390Y-49142857D02*
X126835771Y-49238095D01*
X126835771Y-49238095D02*
X126835771Y-49476190D01*
X126835771Y-49476190D02*
X126883390Y-49571428D01*
X126883390Y-49571428D02*
X126931009Y-49619047D01*
X126931009Y-49619047D02*
X127026247Y-49666666D01*
X127026247Y-49666666D02*
X127264342Y-49666666D01*
X127264342Y-49666666D02*
X127359580Y-49619047D01*
X127359580Y-49619047D02*
X127407200Y-49571428D01*
X127407200Y-49571428D02*
X127454819Y-49476190D01*
X127454819Y-49476190D02*
X127454819Y-49238095D01*
X127454819Y-49238095D02*
X127407200Y-49142857D01*
X127407200Y-49142857D02*
X127359580Y-49095238D01*
X85507200Y-73733333D02*
X85554819Y-73876190D01*
X85554819Y-73876190D02*
X85554819Y-74114285D01*
X85554819Y-74114285D02*
X85507200Y-74209523D01*
X85507200Y-74209523D02*
X85459580Y-74257142D01*
X85459580Y-74257142D02*
X85364342Y-74304761D01*
X85364342Y-74304761D02*
X85269104Y-74304761D01*
X85269104Y-74304761D02*
X85173866Y-74257142D01*
X85173866Y-74257142D02*
X85126247Y-74209523D01*
X85126247Y-74209523D02*
X85078628Y-74114285D01*
X85078628Y-74114285D02*
X85031009Y-73923809D01*
X85031009Y-73923809D02*
X84983390Y-73828571D01*
X84983390Y-73828571D02*
X84935771Y-73780952D01*
X84935771Y-73780952D02*
X84840533Y-73733333D01*
X84840533Y-73733333D02*
X84745295Y-73733333D01*
X84745295Y-73733333D02*
X84650057Y-73780952D01*
X84650057Y-73780952D02*
X84602438Y-73828571D01*
X84602438Y-73828571D02*
X84554819Y-73923809D01*
X84554819Y-73923809D02*
X84554819Y-74161904D01*
X84554819Y-74161904D02*
X84602438Y-74304761D01*
X84554819Y-75019047D02*
X85269104Y-75019047D01*
X85269104Y-75019047D02*
X85411961Y-74971428D01*
X85411961Y-74971428D02*
X85507200Y-74876190D01*
X85507200Y-74876190D02*
X85554819Y-74733333D01*
X85554819Y-74733333D02*
X85554819Y-74638095D01*
X85554819Y-75495238D02*
X84554819Y-75495238D01*
X84554819Y-75495238D02*
X84554819Y-75876190D01*
X84554819Y-75876190D02*
X84602438Y-75971428D01*
X84602438Y-75971428D02*
X84650057Y-76019047D01*
X84650057Y-76019047D02*
X84745295Y-76066666D01*
X84745295Y-76066666D02*
X84888152Y-76066666D01*
X84888152Y-76066666D02*
X84983390Y-76019047D01*
X84983390Y-76019047D02*
X85031009Y-75971428D01*
X85031009Y-75971428D02*
X85078628Y-75876190D01*
X85078628Y-75876190D02*
X85078628Y-75495238D01*
X101295819Y-47619048D02*
X100295819Y-47619048D01*
X100295819Y-47619048D02*
X100295819Y-48000000D01*
X100295819Y-48000000D02*
X100343438Y-48095238D01*
X100343438Y-48095238D02*
X100391057Y-48142857D01*
X100391057Y-48142857D02*
X100486295Y-48190476D01*
X100486295Y-48190476D02*
X100629152Y-48190476D01*
X100629152Y-48190476D02*
X100724390Y-48142857D01*
X100724390Y-48142857D02*
X100772009Y-48095238D01*
X100772009Y-48095238D02*
X100819628Y-48000000D01*
X100819628Y-48000000D02*
X100819628Y-47619048D01*
X101295819Y-48619048D02*
X100629152Y-48619048D01*
X100295819Y-48619048D02*
X100343438Y-48571429D01*
X100343438Y-48571429D02*
X100391057Y-48619048D01*
X100391057Y-48619048D02*
X100343438Y-48666667D01*
X100343438Y-48666667D02*
X100295819Y-48619048D01*
X100295819Y-48619048D02*
X100391057Y-48619048D01*
X101248200Y-49523809D02*
X101295819Y-49428571D01*
X101295819Y-49428571D02*
X101295819Y-49238095D01*
X101295819Y-49238095D02*
X101248200Y-49142857D01*
X101248200Y-49142857D02*
X101200580Y-49095238D01*
X101200580Y-49095238D02*
X101105342Y-49047619D01*
X101105342Y-49047619D02*
X100819628Y-49047619D01*
X100819628Y-49047619D02*
X100724390Y-49095238D01*
X100724390Y-49095238D02*
X100676771Y-49142857D01*
X100676771Y-49142857D02*
X100629152Y-49238095D01*
X100629152Y-49238095D02*
X100629152Y-49428571D01*
X100629152Y-49428571D02*
X100676771Y-49523809D01*
X101295819Y-50095238D02*
X101248200Y-50000000D01*
X101248200Y-50000000D02*
X101200580Y-49952381D01*
X101200580Y-49952381D02*
X101105342Y-49904762D01*
X101105342Y-49904762D02*
X100819628Y-49904762D01*
X100819628Y-49904762D02*
X100724390Y-49952381D01*
X100724390Y-49952381D02*
X100676771Y-50000000D01*
X100676771Y-50000000D02*
X100629152Y-50095238D01*
X100629152Y-50095238D02*
X100629152Y-50238095D01*
X100629152Y-50238095D02*
X100676771Y-50333333D01*
X100676771Y-50333333D02*
X100724390Y-50380952D01*
X100724390Y-50380952D02*
X100819628Y-50428571D01*
X100819628Y-50428571D02*
X101105342Y-50428571D01*
X101105342Y-50428571D02*
X101200580Y-50380952D01*
X101200580Y-50380952D02*
X101248200Y-50333333D01*
X101248200Y-50333333D02*
X101295819Y-50238095D01*
X101295819Y-50238095D02*
X101295819Y-50095238D01*
X102454819Y-48238095D02*
X103264342Y-48238095D01*
X103264342Y-48238095D02*
X103359580Y-48285714D01*
X103359580Y-48285714D02*
X103407200Y-48333333D01*
X103407200Y-48333333D02*
X103454819Y-48428571D01*
X103454819Y-48428571D02*
X103454819Y-48619047D01*
X103454819Y-48619047D02*
X103407200Y-48714285D01*
X103407200Y-48714285D02*
X103359580Y-48761904D01*
X103359580Y-48761904D02*
X103264342Y-48809523D01*
X103264342Y-48809523D02*
X102454819Y-48809523D01*
X103454819Y-49809523D02*
X103454819Y-49238095D01*
X103454819Y-49523809D02*
X102454819Y-49523809D01*
X102454819Y-49523809D02*
X102597676Y-49428571D01*
X102597676Y-49428571D02*
X102692914Y-49333333D01*
X102692914Y-49333333D02*
X102740533Y-49238095D01*
X83007200Y-73733333D02*
X83054819Y-73876190D01*
X83054819Y-73876190D02*
X83054819Y-74114285D01*
X83054819Y-74114285D02*
X83007200Y-74209523D01*
X83007200Y-74209523D02*
X82959580Y-74257142D01*
X82959580Y-74257142D02*
X82864342Y-74304761D01*
X82864342Y-74304761D02*
X82769104Y-74304761D01*
X82769104Y-74304761D02*
X82673866Y-74257142D01*
X82673866Y-74257142D02*
X82626247Y-74209523D01*
X82626247Y-74209523D02*
X82578628Y-74114285D01*
X82578628Y-74114285D02*
X82531009Y-73923809D01*
X82531009Y-73923809D02*
X82483390Y-73828571D01*
X82483390Y-73828571D02*
X82435771Y-73780952D01*
X82435771Y-73780952D02*
X82340533Y-73733333D01*
X82340533Y-73733333D02*
X82245295Y-73733333D01*
X82245295Y-73733333D02*
X82150057Y-73780952D01*
X82150057Y-73780952D02*
X82102438Y-73828571D01*
X82102438Y-73828571D02*
X82054819Y-73923809D01*
X82054819Y-73923809D02*
X82054819Y-74161904D01*
X82054819Y-74161904D02*
X82102438Y-74304761D01*
X82054819Y-75019047D02*
X82769104Y-75019047D01*
X82769104Y-75019047D02*
X82911961Y-74971428D01*
X82911961Y-74971428D02*
X83007200Y-74876190D01*
X83007200Y-74876190D02*
X83054819Y-74733333D01*
X83054819Y-74733333D02*
X83054819Y-74638095D01*
X83054819Y-75495238D02*
X82054819Y-75495238D01*
X82054819Y-75495238D02*
X82054819Y-75876190D01*
X82054819Y-75876190D02*
X82102438Y-75971428D01*
X82102438Y-75971428D02*
X82150057Y-76019047D01*
X82150057Y-76019047D02*
X82245295Y-76066666D01*
X82245295Y-76066666D02*
X82388152Y-76066666D01*
X82388152Y-76066666D02*
X82483390Y-76019047D01*
X82483390Y-76019047D02*
X82531009Y-75971428D01*
X82531009Y-75971428D02*
X82578628Y-75876190D01*
X82578628Y-75876190D02*
X82578628Y-75495238D01*
X50819819Y-123180951D02*
X50343628Y-122847618D01*
X50819819Y-122609523D02*
X49819819Y-122609523D01*
X49819819Y-122609523D02*
X49819819Y-122990475D01*
X49819819Y-122990475D02*
X49867438Y-123085713D01*
X49867438Y-123085713D02*
X49915057Y-123133332D01*
X49915057Y-123133332D02*
X50010295Y-123180951D01*
X50010295Y-123180951D02*
X50153152Y-123180951D01*
X50153152Y-123180951D02*
X50248390Y-123133332D01*
X50248390Y-123133332D02*
X50296009Y-123085713D01*
X50296009Y-123085713D02*
X50343628Y-122990475D01*
X50343628Y-122990475D02*
X50343628Y-122609523D01*
X49867438Y-124133332D02*
X49819819Y-124038094D01*
X49819819Y-124038094D02*
X49819819Y-123895237D01*
X49819819Y-123895237D02*
X49867438Y-123752380D01*
X49867438Y-123752380D02*
X49962676Y-123657142D01*
X49962676Y-123657142D02*
X50057914Y-123609523D01*
X50057914Y-123609523D02*
X50248390Y-123561904D01*
X50248390Y-123561904D02*
X50391247Y-123561904D01*
X50391247Y-123561904D02*
X50581723Y-123609523D01*
X50581723Y-123609523D02*
X50676961Y-123657142D01*
X50676961Y-123657142D02*
X50772200Y-123752380D01*
X50772200Y-123752380D02*
X50819819Y-123895237D01*
X50819819Y-123895237D02*
X50819819Y-123990475D01*
X50819819Y-123990475D02*
X50772200Y-124133332D01*
X50772200Y-124133332D02*
X50724580Y-124180951D01*
X50724580Y-124180951D02*
X50391247Y-124180951D01*
X50391247Y-124180951D02*
X50391247Y-123990475D01*
X50296009Y-124942856D02*
X50343628Y-125085713D01*
X50343628Y-125085713D02*
X50391247Y-125133332D01*
X50391247Y-125133332D02*
X50486485Y-125180951D01*
X50486485Y-125180951D02*
X50629342Y-125180951D01*
X50629342Y-125180951D02*
X50724580Y-125133332D01*
X50724580Y-125133332D02*
X50772200Y-125085713D01*
X50772200Y-125085713D02*
X50819819Y-124990475D01*
X50819819Y-124990475D02*
X50819819Y-124609523D01*
X50819819Y-124609523D02*
X49819819Y-124609523D01*
X49819819Y-124609523D02*
X49819819Y-124942856D01*
X49819819Y-124942856D02*
X49867438Y-125038094D01*
X49867438Y-125038094D02*
X49915057Y-125085713D01*
X49915057Y-125085713D02*
X50010295Y-125133332D01*
X50010295Y-125133332D02*
X50105533Y-125133332D01*
X50105533Y-125133332D02*
X50200771Y-125085713D01*
X50200771Y-125085713D02*
X50248390Y-125038094D01*
X50248390Y-125038094D02*
X50296009Y-124942856D01*
X50296009Y-124942856D02*
X50296009Y-124609523D01*
X50915057Y-125371428D02*
X50915057Y-126133332D01*
X50819819Y-126847618D02*
X50819819Y-126371428D01*
X50819819Y-126371428D02*
X49819819Y-126371428D01*
X50296009Y-127180952D02*
X50296009Y-127514285D01*
X50819819Y-127657142D02*
X50819819Y-127180952D01*
X50819819Y-127180952D02*
X49819819Y-127180952D01*
X49819819Y-127180952D02*
X49819819Y-127657142D01*
X50819819Y-128085714D02*
X49819819Y-128085714D01*
X49819819Y-128085714D02*
X49819819Y-128323809D01*
X49819819Y-128323809D02*
X49867438Y-128466666D01*
X49867438Y-128466666D02*
X49962676Y-128561904D01*
X49962676Y-128561904D02*
X50057914Y-128609523D01*
X50057914Y-128609523D02*
X50248390Y-128657142D01*
X50248390Y-128657142D02*
X50391247Y-128657142D01*
X50391247Y-128657142D02*
X50581723Y-128609523D01*
X50581723Y-128609523D02*
X50676961Y-128561904D01*
X50676961Y-128561904D02*
X50772200Y-128466666D01*
X50772200Y-128466666D02*
X50819819Y-128323809D01*
X50819819Y-128323809D02*
X50819819Y-128085714D01*
X50915057Y-128847619D02*
X50915057Y-129609523D01*
X50296009Y-129847619D02*
X50296009Y-130180952D01*
X50819819Y-130323809D02*
X50819819Y-129847619D01*
X50819819Y-129847619D02*
X49819819Y-129847619D01*
X49819819Y-129847619D02*
X49819819Y-130323809D01*
X49819819Y-130657143D02*
X50819819Y-131323809D01*
X49819819Y-131323809D02*
X50819819Y-130657143D01*
X49819819Y-131561905D02*
X49819819Y-132133333D01*
X50819819Y-131847619D02*
X49819819Y-131847619D01*
X41054819Y-126311666D02*
X41769104Y-126311666D01*
X41769104Y-126311666D02*
X41911961Y-126264047D01*
X41911961Y-126264047D02*
X42007200Y-126168809D01*
X42007200Y-126168809D02*
X42054819Y-126025952D01*
X42054819Y-126025952D02*
X42054819Y-125930714D01*
X41388152Y-127216428D02*
X42054819Y-127216428D01*
X41007200Y-126978333D02*
X41721485Y-126740238D01*
X41721485Y-126740238D02*
X41721485Y-127359285D01*
X124154819Y-90275600D02*
X123154819Y-90275600D01*
X123631009Y-90275600D02*
X123631009Y-90847028D01*
X124154819Y-90847028D02*
X123154819Y-90847028D01*
X124154819Y-91323219D02*
X123488152Y-91323219D01*
X123154819Y-91323219D02*
X123202438Y-91275600D01*
X123202438Y-91275600D02*
X123250057Y-91323219D01*
X123250057Y-91323219D02*
X123202438Y-91370838D01*
X123202438Y-91370838D02*
X123154819Y-91323219D01*
X123154819Y-91323219D02*
X123250057Y-91323219D01*
X123631009Y-92132742D02*
X123631009Y-91799409D01*
X124154819Y-91799409D02*
X123154819Y-91799409D01*
X123154819Y-91799409D02*
X123154819Y-92275599D01*
X124154819Y-92656552D02*
X123488152Y-92656552D01*
X123154819Y-92656552D02*
X123202438Y-92608933D01*
X123202438Y-92608933D02*
X123250057Y-92656552D01*
X123250057Y-92656552D02*
X123202438Y-92704171D01*
X123202438Y-92704171D02*
X123154819Y-92656552D01*
X123154819Y-92656552D02*
X123250057Y-92656552D01*
X123631009Y-94227980D02*
X123678628Y-94370837D01*
X123678628Y-94370837D02*
X123726247Y-94418456D01*
X123726247Y-94418456D02*
X123821485Y-94466075D01*
X123821485Y-94466075D02*
X123964342Y-94466075D01*
X123964342Y-94466075D02*
X124059580Y-94418456D01*
X124059580Y-94418456D02*
X124107200Y-94370837D01*
X124107200Y-94370837D02*
X124154819Y-94275599D01*
X124154819Y-94275599D02*
X124154819Y-93894647D01*
X124154819Y-93894647D02*
X123154819Y-93894647D01*
X123154819Y-93894647D02*
X123154819Y-94227980D01*
X123154819Y-94227980D02*
X123202438Y-94323218D01*
X123202438Y-94323218D02*
X123250057Y-94370837D01*
X123250057Y-94370837D02*
X123345295Y-94418456D01*
X123345295Y-94418456D02*
X123440533Y-94418456D01*
X123440533Y-94418456D02*
X123535771Y-94370837D01*
X123535771Y-94370837D02*
X123583390Y-94323218D01*
X123583390Y-94323218D02*
X123631009Y-94227980D01*
X123631009Y-94227980D02*
X123631009Y-93894647D01*
X124107200Y-95275599D02*
X124154819Y-95180361D01*
X124154819Y-95180361D02*
X124154819Y-94989885D01*
X124154819Y-94989885D02*
X124107200Y-94894647D01*
X124107200Y-94894647D02*
X124011961Y-94847028D01*
X124011961Y-94847028D02*
X123631009Y-94847028D01*
X123631009Y-94847028D02*
X123535771Y-94894647D01*
X123535771Y-94894647D02*
X123488152Y-94989885D01*
X123488152Y-94989885D02*
X123488152Y-95180361D01*
X123488152Y-95180361D02*
X123535771Y-95275599D01*
X123535771Y-95275599D02*
X123631009Y-95323218D01*
X123631009Y-95323218D02*
X123726247Y-95323218D01*
X123726247Y-95323218D02*
X123821485Y-94847028D01*
X124154819Y-95751790D02*
X123488152Y-95751790D01*
X123678628Y-95751790D02*
X123583390Y-95799409D01*
X123583390Y-95799409D02*
X123535771Y-95847028D01*
X123535771Y-95847028D02*
X123488152Y-95942266D01*
X123488152Y-95942266D02*
X123488152Y-96037504D01*
X124154819Y-96370838D02*
X123488152Y-96370838D01*
X123678628Y-96370838D02*
X123583390Y-96418457D01*
X123583390Y-96418457D02*
X123535771Y-96466076D01*
X123535771Y-96466076D02*
X123488152Y-96561314D01*
X123488152Y-96561314D02*
X123488152Y-96656552D01*
X123488152Y-96894648D02*
X124154819Y-97132743D01*
X123488152Y-97370838D02*
X124154819Y-97132743D01*
X124154819Y-97132743D02*
X124392914Y-97037505D01*
X124392914Y-97037505D02*
X124440533Y-96989886D01*
X124440533Y-96989886D02*
X124488152Y-96894648D01*
X59234819Y-37535239D02*
X58234819Y-37535239D01*
X58234819Y-37535239D02*
X58949104Y-37868572D01*
X58949104Y-37868572D02*
X58234819Y-38201905D01*
X58234819Y-38201905D02*
X59234819Y-38201905D01*
X59234819Y-38678096D02*
X58234819Y-38678096D01*
X59234819Y-39154286D02*
X58234819Y-39154286D01*
X58234819Y-39154286D02*
X58234819Y-39392381D01*
X58234819Y-39392381D02*
X58282438Y-39535238D01*
X58282438Y-39535238D02*
X58377676Y-39630476D01*
X58377676Y-39630476D02*
X58472914Y-39678095D01*
X58472914Y-39678095D02*
X58663390Y-39725714D01*
X58663390Y-39725714D02*
X58806247Y-39725714D01*
X58806247Y-39725714D02*
X58996723Y-39678095D01*
X58996723Y-39678095D02*
X59091961Y-39630476D01*
X59091961Y-39630476D02*
X59187200Y-39535238D01*
X59187200Y-39535238D02*
X59234819Y-39392381D01*
X59234819Y-39392381D02*
X59234819Y-39154286D01*
X59234819Y-40154286D02*
X58234819Y-40154286D01*
X59234819Y-41392381D02*
X58234819Y-41392381D01*
X59234819Y-41868571D02*
X58234819Y-41868571D01*
X58234819Y-41868571D02*
X59234819Y-42439999D01*
X59234819Y-42439999D02*
X58234819Y-42439999D01*
X58187200Y-43630475D02*
X59472914Y-42773333D01*
X58234819Y-44154285D02*
X58234819Y-44344761D01*
X58234819Y-44344761D02*
X58282438Y-44439999D01*
X58282438Y-44439999D02*
X58377676Y-44535237D01*
X58377676Y-44535237D02*
X58568152Y-44582856D01*
X58568152Y-44582856D02*
X58901485Y-44582856D01*
X58901485Y-44582856D02*
X59091961Y-44535237D01*
X59091961Y-44535237D02*
X59187200Y-44439999D01*
X59187200Y-44439999D02*
X59234819Y-44344761D01*
X59234819Y-44344761D02*
X59234819Y-44154285D01*
X59234819Y-44154285D02*
X59187200Y-44059047D01*
X59187200Y-44059047D02*
X59091961Y-43963809D01*
X59091961Y-43963809D02*
X58901485Y-43916190D01*
X58901485Y-43916190D02*
X58568152Y-43916190D01*
X58568152Y-43916190D02*
X58377676Y-43963809D01*
X58377676Y-43963809D02*
X58282438Y-44059047D01*
X58282438Y-44059047D02*
X58234819Y-44154285D01*
X58234819Y-45011428D02*
X59044342Y-45011428D01*
X59044342Y-45011428D02*
X59139580Y-45059047D01*
X59139580Y-45059047D02*
X59187200Y-45106666D01*
X59187200Y-45106666D02*
X59234819Y-45201904D01*
X59234819Y-45201904D02*
X59234819Y-45392380D01*
X59234819Y-45392380D02*
X59187200Y-45487618D01*
X59187200Y-45487618D02*
X59139580Y-45535237D01*
X59139580Y-45535237D02*
X59044342Y-45582856D01*
X59044342Y-45582856D02*
X58234819Y-45582856D01*
X58234819Y-45916190D02*
X58234819Y-46487618D01*
X59234819Y-46201904D02*
X58234819Y-46201904D01*
X49614819Y-41575476D02*
X50329104Y-41575476D01*
X50329104Y-41575476D02*
X50471961Y-41527857D01*
X50471961Y-41527857D02*
X50567200Y-41432619D01*
X50567200Y-41432619D02*
X50614819Y-41289762D01*
X50614819Y-41289762D02*
X50614819Y-41194524D01*
X50614819Y-42575476D02*
X50614819Y-42004048D01*
X50614819Y-42289762D02*
X49614819Y-42289762D01*
X49614819Y-42289762D02*
X49757676Y-42194524D01*
X49757676Y-42194524D02*
X49852914Y-42099286D01*
X49852914Y-42099286D02*
X49900533Y-42004048D01*
X49614819Y-43480238D02*
X49614819Y-43004048D01*
X49614819Y-43004048D02*
X50091009Y-42956429D01*
X50091009Y-42956429D02*
X50043390Y-43004048D01*
X50043390Y-43004048D02*
X49995771Y-43099286D01*
X49995771Y-43099286D02*
X49995771Y-43337381D01*
X49995771Y-43337381D02*
X50043390Y-43432619D01*
X50043390Y-43432619D02*
X50091009Y-43480238D01*
X50091009Y-43480238D02*
X50186247Y-43527857D01*
X50186247Y-43527857D02*
X50424342Y-43527857D01*
X50424342Y-43527857D02*
X50519580Y-43480238D01*
X50519580Y-43480238D02*
X50567200Y-43432619D01*
X50567200Y-43432619D02*
X50614819Y-43337381D01*
X50614819Y-43337381D02*
X50614819Y-43099286D01*
X50614819Y-43099286D02*
X50567200Y-43004048D01*
X50567200Y-43004048D02*
X50519580Y-42956429D01*
D11*
%TO.C,J7*%
X49590000Y-107590000D02*
X48320000Y-106320000D01*
X99120000Y-107590000D02*
X49590000Y-107590000D01*
X48320000Y-106320000D02*
X48320000Y-102510000D01*
X48320000Y-102510000D02*
X99120000Y-102510000D01*
X99120000Y-102510000D02*
X99120000Y-107590000D01*
%TO.C,J6*%
X112355000Y-88890000D02*
X112355000Y-98415000D01*
X112355000Y-98415000D02*
X112990000Y-99050000D01*
X112990000Y-99050000D02*
X114895000Y-99050000D01*
X114895000Y-88890000D02*
X112355000Y-88890000D01*
X114895000Y-99050000D02*
X114895000Y-88890000D01*
%TO.C,J14*%
X134755000Y-56990000D02*
X136575000Y-56990000D01*
X134755000Y-57630000D02*
X134755000Y-56990000D01*
X134755000Y-57630000D02*
X136575000Y-57630000D01*
X134755000Y-59530000D02*
X136575000Y-59530000D01*
X134755000Y-60170000D02*
X134755000Y-59530000D01*
X134755000Y-60170000D02*
X136575000Y-60170000D01*
X136575000Y-56040000D02*
X136575000Y-60485000D01*
X136575000Y-60485000D02*
X137210000Y-61120000D01*
X137210000Y-61120000D02*
X139115000Y-61120000D01*
X139115000Y-56040000D02*
X136575000Y-56040000D01*
X139115000Y-56990000D02*
X145115000Y-56990000D01*
X139115000Y-57630000D02*
X145115000Y-57630000D01*
X139115000Y-59530000D02*
X145115000Y-59530000D01*
X139115000Y-60170000D02*
X145115000Y-60170000D01*
X139115000Y-61120000D02*
X139115000Y-56040000D01*
X145115000Y-57630000D02*
X145115000Y-56990000D01*
X145115000Y-60170000D02*
X145115000Y-59530000D01*
D12*
%TO.C,U1*%
X77500000Y-59500000D02*
X128500000Y-59500000D01*
X127200000Y-59500000D02*
X128500000Y-58200000D01*
X128500000Y-59500000D02*
X128500000Y-38500000D01*
X77500000Y-38500000D02*
X77500000Y-59500000D01*
X128500000Y-38500000D02*
X77500000Y-38500000D01*
D11*
%TO.C,J4*%
X38580000Y-123825000D02*
X40400000Y-123825000D01*
X38580000Y-124465000D02*
X38580000Y-123825000D01*
X38580000Y-124465000D02*
X40400000Y-124465000D01*
X38580000Y-126365000D02*
X40400000Y-126365000D01*
X38580000Y-127005000D02*
X38580000Y-126365000D01*
X38580000Y-127005000D02*
X40400000Y-127005000D01*
X38580000Y-128905000D02*
X40400000Y-128905000D01*
X38580000Y-129545000D02*
X38580000Y-128905000D01*
X38580000Y-129545000D02*
X40400000Y-129545000D01*
X40400000Y-122875000D02*
X40400000Y-129860000D01*
X40400000Y-129860000D02*
X41035000Y-130495000D01*
X41035000Y-130495000D02*
X42940000Y-130495000D01*
X42940000Y-122875000D02*
X40400000Y-122875000D01*
X42940000Y-123825000D02*
X48940000Y-123825000D01*
X42940000Y-124465000D02*
X48940000Y-124465000D01*
X42940000Y-126365000D02*
X48940000Y-126365000D01*
X42940000Y-127005000D02*
X48940000Y-127005000D01*
X42940000Y-128905000D02*
X48940000Y-128905000D01*
X42940000Y-129545000D02*
X48940000Y-129545000D01*
X42940000Y-130495000D02*
X42940000Y-122875000D01*
X48940000Y-124465000D02*
X48940000Y-123825000D01*
X48940000Y-127005000D02*
X48940000Y-126365000D01*
X48940000Y-129545000D02*
X48940000Y-128905000D01*
%TO.C,J8*%
X158730000Y-122960600D02*
X151110000Y-122960600D01*
X158730000Y-117880600D02*
X158730000Y-122960600D01*
X157825000Y-81195600D02*
X152745000Y-81195600D01*
X157825000Y-74575600D02*
X157825000Y-81195600D01*
X156825000Y-73575600D02*
X157825000Y-74575600D01*
X152745000Y-81195600D02*
X152745000Y-73575600D01*
X152745000Y-73575600D02*
X156825000Y-73575600D01*
X152110000Y-117880600D02*
X158730000Y-117880600D01*
X151110000Y-122960600D02*
X151110000Y-118880600D01*
X151110000Y-118880600D02*
X152110000Y-117880600D01*
X121520000Y-117905600D02*
X116440000Y-117905600D01*
X121520000Y-68105600D02*
X121520000Y-117905600D01*
X120520000Y-67105600D02*
X121520000Y-68105600D01*
X116440000Y-117905600D02*
X116440000Y-67105600D01*
X116440000Y-67105600D02*
X120520000Y-67105600D01*
%TO.C,J15*%
X44530000Y-39525000D02*
X48890000Y-39525000D01*
X44530000Y-40165000D02*
X44530000Y-39525000D01*
X44530000Y-40165000D02*
X48890000Y-40165000D01*
X44530000Y-42065000D02*
X48890000Y-42065000D01*
X44530000Y-42705000D02*
X44530000Y-42065000D01*
X44530000Y-42705000D02*
X48890000Y-42705000D01*
X44530000Y-44605000D02*
X48890000Y-44605000D01*
X44530000Y-45245000D02*
X44530000Y-44605000D01*
X44530000Y-45245000D02*
X48890000Y-45245000D01*
X48890000Y-38575000D02*
X48890000Y-45560000D01*
X48890000Y-45560000D02*
X49525000Y-46195000D01*
X49525000Y-46195000D02*
X51430000Y-46195000D01*
X51430000Y-38575000D02*
X48890000Y-38575000D01*
X51430000Y-39525000D02*
X57430000Y-39525000D01*
X51430000Y-40165000D02*
X57430000Y-40165000D01*
X51430000Y-42065000D02*
X57430000Y-42065000D01*
X51430000Y-42705000D02*
X57430000Y-42705000D01*
X51430000Y-44605000D02*
X57430000Y-44605000D01*
X51430000Y-45245000D02*
X57430000Y-45245000D01*
X51430000Y-46195000D02*
X51430000Y-38575000D01*
X57430000Y-40165000D02*
X57430000Y-39525000D01*
X57430000Y-42705000D02*
X57430000Y-42065000D01*
X57430000Y-45245000D02*
X57430000Y-44605000D01*
%TD*%
M02*
