%TF.GenerationSoftware,KiCad,Pcbnew,7.0.7-7.0.7~ubuntu23.04.1*%
%TF.CreationDate,2023-10-12T16:34:02+00:00*%
%TF.ProjectId,pedalboard-hw,70656461-6c62-46f6-9172-642d68772e6b,3.0.0-RC1*%
%TF.SameCoordinates,Original*%
%TF.FileFunction,Plated,1,2,PTH,Mixed*%
%TF.FilePolarity,Positive*%
%FSLAX46Y46*%
G04 Gerber Fmt 4.6, Leading zero omitted, Abs format (unit mm)*
G04 Created by KiCad (PCBNEW 7.0.7-7.0.7~ubuntu23.04.1) date 2023-10-12 16:34:02*
%MOMM*%
%LPD*%
G01*
G04 APERTURE LIST*
%TA.AperFunction,ViaDrill*%
%ADD10C,0.400000*%
%TD*%
G04 aperture for slot hole*
%TA.AperFunction,ComponentDrill*%
%ADD11O,0.400000X1.400000*%
%TD*%
G04 aperture for slot hole*
%TA.AperFunction,ComponentDrill*%
%ADD12O,1.400000X0.400000*%
%TD*%
%TA.AperFunction,ComponentDrill*%
%ADD13C,0.508000*%
%TD*%
%TA.AperFunction,ViaDrill*%
%ADD14C,0.800000*%
%TD*%
%TA.AperFunction,ComponentDrill*%
%ADD15C,0.800000*%
%TD*%
G04 aperture for slot hole*
%TA.AperFunction,ComponentDrill*%
%ADD16O,0.800000X3.000000*%
%TD*%
G04 aperture for slot hole*
%TA.AperFunction,ComponentDrill*%
%ADD17O,3.000000X0.800000*%
%TD*%
G04 aperture for slot hole*
%TA.AperFunction,ComponentDrill*%
%ADD18O,3.400000X0.800000*%
%TD*%
%TA.AperFunction,ComponentDrill*%
%ADD19C,1.000000*%
%TD*%
%TA.AperFunction,ComponentDrill*%
%ADD20C,1.020000*%
%TD*%
%TA.AperFunction,ComponentDrill*%
%ADD21C,1.320800*%
%TD*%
%TA.AperFunction,ComponentDrill*%
%ADD22C,1.400000*%
%TD*%
%TA.AperFunction,ComponentDrill*%
%ADD23C,1.500000*%
%TD*%
%TA.AperFunction,ComponentDrill*%
%ADD24C,2.600000*%
%TD*%
G04 APERTURE END LIST*
D10*
X24200000Y-69500000D03*
X24200000Y-121500000D03*
X35800000Y-69500000D03*
X35800000Y-121400000D03*
X40000000Y-41800000D03*
X43100000Y-115200000D03*
X44175500Y-102271985D03*
X44900000Y-100600000D03*
X56550000Y-33625000D03*
X67200000Y-44000000D03*
X69000000Y-49600000D03*
X73000000Y-46200000D03*
X75495707Y-48945792D03*
X79112299Y-46787701D03*
X92100000Y-44000000D03*
X94000000Y-49600000D03*
X99200000Y-68950000D03*
X99200000Y-121500000D03*
X109550000Y-115800000D03*
X110800000Y-69500000D03*
X110800000Y-121500000D03*
X117200000Y-44000000D03*
X119000000Y-49600000D03*
X131500000Y-42700000D03*
X131525000Y-41125000D03*
X142250000Y-44000000D03*
X144000000Y-49600000D03*
X144400000Y-56500000D03*
X146600000Y-55000000D03*
X146600000Y-57900000D03*
X148800000Y-56500000D03*
X149700000Y-45100000D03*
X149700000Y-47400000D03*
X163100000Y-67275500D03*
X171000000Y-114000000D03*
X174200000Y-69400000D03*
X174200000Y-121500000D03*
X178800000Y-93800000D03*
X185800000Y-69500000D03*
X185800000Y-121450000D03*
D11*
%TO.C,J17*%
X89000000Y-29500000D03*
X91500000Y-29500000D03*
D12*
X94000000Y-24500000D03*
D11*
X96500000Y-29500000D03*
X99000000Y-29500000D03*
%TO.C,J16*%
X111000000Y-29500000D03*
X113500000Y-29500000D03*
D12*
X116000000Y-24500000D03*
D11*
X118500000Y-29500000D03*
X121000000Y-29500000D03*
D13*
%TO.C,J5*%
X127000000Y-48000000D03*
X127000000Y-50000000D03*
%TD*%
D14*
X45824195Y-105700000D03*
X78200000Y-50000000D03*
X81500000Y-46300000D03*
X91000000Y-71000000D03*
X94950000Y-61700000D03*
X99100000Y-111600000D03*
X128000000Y-63000000D03*
X130600000Y-45600000D03*
X164650000Y-64350000D03*
X167000000Y-124000000D03*
D15*
%TO.C,J22*%
X39000000Y-66000000D03*
X39000000Y-68000000D03*
%TO.C,J23*%
X39000000Y-118000000D03*
X39000000Y-120000000D03*
%TO.C,J22*%
X41000000Y-66000000D03*
X41000000Y-68000000D03*
%TO.C,J23*%
X41000000Y-118000000D03*
X41000000Y-120000000D03*
%TO.C,J21*%
X94000000Y-66000000D03*
X94000000Y-68000000D03*
X96000000Y-66000000D03*
X96000000Y-68000000D03*
%TO.C,J20*%
X104000000Y-108000000D03*
X104000000Y-110000000D03*
X106000000Y-108000000D03*
X106000000Y-110000000D03*
%TO.C,J18*%
X169000000Y-66000000D03*
X169000000Y-68000000D03*
%TO.C,J19*%
X169000000Y-118000000D03*
X169000000Y-120000000D03*
%TO.C,J18*%
X171000000Y-66000000D03*
X171000000Y-68000000D03*
%TO.C,J19*%
X171000000Y-118000000D03*
X171000000Y-120000000D03*
D16*
%TO.C,J13*%
X174600000Y-27400000D03*
D17*
X179400000Y-24600000D03*
D18*
X179400000Y-30400000D03*
D19*
%TO.C,J4*%
X43525000Y-117945000D03*
X43525000Y-120485000D03*
X43525000Y-123025000D03*
%TO.C,J15*%
X44850000Y-39845000D03*
X44850000Y-42385000D03*
X44850000Y-44925000D03*
X47390000Y-39845000D03*
X47390000Y-42385000D03*
X47390000Y-44925000D03*
%TO.C,J7*%
X49590000Y-103780000D03*
X49590000Y-106320000D03*
X52130000Y-103780000D03*
X52130000Y-106320000D03*
X54670000Y-103780000D03*
X54670000Y-106320000D03*
X57210000Y-103780000D03*
X57210000Y-106320000D03*
X59750000Y-103780000D03*
X59750000Y-106320000D03*
%TO.C,SW7*%
X60250000Y-31500000D03*
X60250000Y-34000000D03*
X60250000Y-36500000D03*
%TO.C,J7*%
X62290000Y-103780000D03*
X62290000Y-106320000D03*
X64830000Y-103780000D03*
X64830000Y-106320000D03*
X67370000Y-103780000D03*
X67370000Y-106320000D03*
X69910000Y-103780000D03*
X69910000Y-106320000D03*
X72450000Y-103780000D03*
X72450000Y-106320000D03*
%TO.C,SW7*%
X74750000Y-31500000D03*
X74750000Y-36500000D03*
%TO.C,J7*%
X74990000Y-103780000D03*
X74990000Y-106320000D03*
X77530000Y-103780000D03*
X77530000Y-106320000D03*
X80070000Y-103780000D03*
X80070000Y-106320000D03*
X82610000Y-103780000D03*
X82610000Y-106320000D03*
X85150000Y-103780000D03*
X85150000Y-106320000D03*
X87690000Y-103780000D03*
X87690000Y-106320000D03*
X90230000Y-103780000D03*
X90230000Y-106320000D03*
X92770000Y-103780000D03*
X92770000Y-106320000D03*
X95310000Y-103780000D03*
X95310000Y-106320000D03*
X97850000Y-103780000D03*
X97850000Y-106320000D03*
%TO.C,J6*%
X113625000Y-90160000D03*
X113625000Y-92700000D03*
X113625000Y-95240000D03*
X113625000Y-97780000D03*
%TO.C,J8*%
X117710000Y-68375600D03*
X117710000Y-70915600D03*
X117710000Y-73455600D03*
X117710000Y-75995600D03*
X117710000Y-78535600D03*
X117710000Y-81075600D03*
X117710000Y-83615600D03*
X117710000Y-86155600D03*
X117710000Y-88695600D03*
X117710000Y-91235600D03*
X117710000Y-93775600D03*
X117710000Y-96315600D03*
X117710000Y-98855600D03*
X117710000Y-101395600D03*
X117710000Y-103935600D03*
X117710000Y-106475600D03*
X117710000Y-109015600D03*
X117710000Y-111555600D03*
X117710000Y-114095600D03*
X117710000Y-116635600D03*
X120250000Y-68375600D03*
X120250000Y-70915600D03*
X120250000Y-73455600D03*
X120250000Y-75995600D03*
X120250000Y-78535600D03*
X120250000Y-81075600D03*
X120250000Y-83615600D03*
X120250000Y-86155600D03*
X120250000Y-88695600D03*
X120250000Y-91235600D03*
X120250000Y-93775600D03*
X120250000Y-96315600D03*
X120250000Y-98855600D03*
X120250000Y-101395600D03*
X120250000Y-103935600D03*
X120250000Y-106475600D03*
X120250000Y-109015600D03*
X120250000Y-111555600D03*
X120250000Y-114095600D03*
X120250000Y-116635600D03*
%TO.C,J14*%
X135075000Y-57310000D03*
X135075000Y-59850000D03*
%TO.C,SW8*%
X135250000Y-31500000D03*
X135250000Y-34000000D03*
X135250000Y-36500000D03*
X149750000Y-31500000D03*
X149750000Y-36500000D03*
%TO.C,J8*%
X152380000Y-119150600D03*
X152380000Y-121690600D03*
X154015000Y-74845600D03*
X154015000Y-77385600D03*
X154015000Y-79925600D03*
X154920000Y-119150600D03*
X154920000Y-121690600D03*
X156555000Y-74845600D03*
X156555000Y-77385600D03*
X156555000Y-79925600D03*
X157460000Y-119150600D03*
X157460000Y-121690600D03*
D20*
%TO.C,U1*%
X78870000Y-40110000D03*
X78870000Y-57890000D03*
X81410000Y-40110000D03*
X81410000Y-57890000D03*
X83950000Y-40110000D03*
X83950000Y-57890000D03*
X86490000Y-40110000D03*
X86490000Y-57890000D03*
X89030000Y-40110000D03*
X89030000Y-57890000D03*
X91570000Y-40110000D03*
X91570000Y-57890000D03*
X94110000Y-40110000D03*
X94110000Y-57890000D03*
X96650000Y-40110000D03*
X96650000Y-57890000D03*
X99190000Y-40110000D03*
X99190000Y-57890000D03*
X101730000Y-40110000D03*
X101730000Y-57890000D03*
X104270000Y-40110000D03*
X104270000Y-57890000D03*
X106810000Y-40110000D03*
X106810000Y-57890000D03*
X109350000Y-40110000D03*
X109350000Y-57890000D03*
X111890000Y-40110000D03*
X111890000Y-57890000D03*
X114430000Y-40110000D03*
X114430000Y-57890000D03*
X116970000Y-40110000D03*
X116970000Y-57890000D03*
X119510000Y-40110000D03*
X119510000Y-57890000D03*
X122050000Y-40110000D03*
X122050000Y-57890000D03*
X124590000Y-40110000D03*
X124590000Y-57890000D03*
X127130000Y-40110000D03*
X127130000Y-57890000D03*
D21*
%TO.C,J2*%
X86505500Y-32000000D03*
X89005500Y-22000000D03*
X89005500Y-34500000D03*
X91505500Y-22000000D03*
X94005500Y-32000000D03*
X96505500Y-22000000D03*
X99005500Y-22000000D03*
X99005500Y-34500000D03*
X101505500Y-32000000D03*
%TO.C,J1*%
X108500000Y-32000000D03*
X111000000Y-22000000D03*
X111000000Y-34500000D03*
X113500000Y-22000000D03*
X116000000Y-32000000D03*
X118500000Y-22000000D03*
X121000000Y-22000000D03*
X121000000Y-34500000D03*
X123500000Y-32000000D03*
D22*
%TO.C,J12*%
X21700000Y-94970000D03*
X21700000Y-111200000D03*
%TO.C,J11*%
X21735000Y-74770000D03*
X21735000Y-91000000D03*
%TO.C,J12*%
X28050000Y-94970000D03*
X28050000Y-111200000D03*
%TO.C,J11*%
X28085000Y-74770000D03*
X28085000Y-91000000D03*
%TO.C,J12*%
X34400000Y-94970000D03*
X34400000Y-111200000D03*
%TO.C,J11*%
X34435000Y-74770000D03*
X34435000Y-91000000D03*
%TO.C,J9*%
X175600000Y-74780000D03*
X175600000Y-91010000D03*
%TO.C,J10*%
X175600000Y-94995000D03*
X175600000Y-111225000D03*
%TO.C,J3*%
X175615000Y-33800000D03*
X175615000Y-50030000D03*
%TO.C,J9*%
X181950000Y-74780000D03*
X181950000Y-91010000D03*
%TO.C,J10*%
X181950000Y-94995000D03*
X181950000Y-111225000D03*
%TO.C,J3*%
X181965000Y-33800000D03*
X181965000Y-50030000D03*
%TO.C,J9*%
X188300000Y-74780000D03*
X188300000Y-91010000D03*
%TO.C,J10*%
X188300000Y-94995000D03*
X188300000Y-111225000D03*
%TO.C,J3*%
X188315000Y-33800000D03*
X188315000Y-50030000D03*
D23*
%TO.C,PS1*%
X125210000Y-65835749D03*
X125210000Y-75995749D03*
X125210000Y-86155749D03*
X145530000Y-73455749D03*
X145530000Y-78535749D03*
X145530000Y-86155749D03*
D24*
%TO.C,SW7*%
X67750000Y-28400000D03*
X67750000Y-39600000D03*
%TO.C,SW8*%
X142750000Y-28400000D03*
X142750000Y-39600000D03*
M02*
