%TF.GenerationSoftware,KiCad,Pcbnew,7.0.8-7.0.8~ubuntu23.04.1*%
%TF.CreationDate,2023-10-23T17:11:55+00:00*%
%TF.ProjectId,pedalboard-hw,70656461-6c62-46f6-9172-642d68772e6b,3.0.2-RC*%
%TF.SameCoordinates,Original*%
%TF.FileFunction,Soldermask,Top*%
%TF.FilePolarity,Negative*%
%FSLAX46Y46*%
G04 Gerber Fmt 4.6, Leading zero omitted, Abs format (unit mm)*
G04 Created by KiCad (PCBNEW 7.0.8-7.0.8~ubuntu23.04.1) date 2023-10-23 17:11:55*
%MOMM*%
%LPD*%
G01*
G04 APERTURE LIST*
G04 Aperture macros list*
%AMRoundRect*
0 Rectangle with rounded corners*
0 $1 Rounding radius*
0 $2 $3 $4 $5 $6 $7 $8 $9 X,Y pos of 4 corners*
0 Add a 4 corners polygon primitive as box body*
4,1,4,$2,$3,$4,$5,$6,$7,$8,$9,$2,$3,0*
0 Add four circle primitives for the rounded corners*
1,1,$1+$1,$2,$3*
1,1,$1+$1,$4,$5*
1,1,$1+$1,$6,$7*
1,1,$1+$1,$8,$9*
0 Add four rect primitives between the rounded corners*
20,1,$1+$1,$2,$3,$4,$5,0*
20,1,$1+$1,$4,$5,$6,$7,0*
20,1,$1+$1,$6,$7,$8,$9,0*
20,1,$1+$1,$8,$9,$2,$3,0*%
%AMFreePoly0*
4,1,19,0.500000,-0.750000,0.000000,-0.750000,0.000000,-0.744911,-0.071157,-0.744911,-0.207708,-0.704816,-0.327430,-0.627875,-0.420627,-0.520320,-0.479746,-0.390866,-0.500000,-0.250000,-0.500000,0.250000,-0.479746,0.390866,-0.420627,0.520320,-0.327430,0.627875,-0.207708,0.704816,-0.071157,0.744911,0.000000,0.744911,0.000000,0.750000,0.500000,0.750000,0.500000,-0.750000,0.500000,-0.750000,
$1*%
%AMFreePoly1*
4,1,19,0.000000,0.744911,0.071157,0.744911,0.207708,0.704816,0.327430,0.627875,0.420627,0.520320,0.479746,0.390866,0.500000,0.250000,0.500000,-0.250000,0.479746,-0.390866,0.420627,-0.520320,0.327430,-0.627875,0.207708,-0.704816,0.071157,-0.744911,0.000000,-0.744911,0.000000,-0.750000,-0.500000,-0.750000,-0.500000,0.750000,0.000000,0.750000,0.000000,0.744911,0.000000,0.744911,
$1*%
%AMFreePoly2*
4,1,17,0.553688,1.285921,1.285921,0.553688,1.300800,0.517767,1.300800,-0.517767,1.285921,-0.553688,0.553688,-1.285921,0.517767,-1.300800,-0.517767,-1.300800,-0.553688,-1.285921,-1.285921,-0.553688,-1.300800,-0.517767,-1.300800,0.517767,-1.285921,0.553688,-0.553688,1.285921,-0.517767,1.300800,0.517767,1.300800,0.553688,1.285921,0.553688,1.285921,$1*%
%AMFreePoly3*
4,1,14,0.935921,1.035921,0.950800,1.000000,0.950800,-0.100000,0.935921,-0.135921,0.035921,-1.035921,0.000000,-1.050800,-0.900000,-1.050800,-0.935921,-1.035921,-0.950800,-1.000000,-0.950800,1.000000,-0.935921,1.035921,-0.900000,1.050800,0.900000,1.050800,0.935921,1.035921,0.935921,1.035921,$1*%
%AMFreePoly4*
4,1,14,0.935921,1.035921,0.950800,1.000000,0.950800,-1.000000,0.935921,-1.035921,0.900000,-1.050800,0.000000,-1.050800,-0.035921,-1.035921,-0.935921,-0.135921,-0.950800,-0.100000,-0.950800,1.000000,-0.935921,1.035921,-0.900000,1.050800,0.900000,1.050800,0.935921,1.035921,0.935921,1.035921,$1*%
G04 Aperture macros list end*
%ADD10C,0.010000*%
%ADD11RoundRect,0.250000X-0.250000X-0.475000X0.250000X-0.475000X0.250000X0.475000X-0.250000X0.475000X0*%
%ADD12C,2.700000*%
%ADD13C,3.000000*%
%ADD14RoundRect,0.250000X-0.262500X-0.450000X0.262500X-0.450000X0.262500X0.450000X-0.262500X0.450000X0*%
%ADD15O,1.200000X2.200000*%
%ADD16O,2.200000X1.200000*%
%ADD17RoundRect,0.250000X0.475000X-0.250000X0.475000X0.250000X-0.475000X0.250000X-0.475000X-0.250000X0*%
%ADD18RoundRect,0.250000X0.262500X0.450000X-0.262500X0.450000X-0.262500X-0.450000X0.262500X-0.450000X0*%
%ADD19RoundRect,0.250000X-0.650000X1.000000X-0.650000X-1.000000X0.650000X-1.000000X0.650000X1.000000X0*%
%ADD20RoundRect,0.150000X-0.150000X0.825000X-0.150000X-0.825000X0.150000X-0.825000X0.150000X0.825000X0*%
%ADD21R,4.400000X1.800000*%
%ADD22O,4.000000X1.800000*%
%ADD23O,1.800000X4.000000*%
%ADD24RoundRect,0.250000X-0.475000X0.250000X-0.475000X-0.250000X0.475000X-0.250000X0.475000X0.250000X0*%
%ADD25R,2.000000X1.500000*%
%ADD26R,2.000000X3.800000*%
%ADD27R,2.600000X2.600000*%
%ADD28C,2.600000*%
%ADD29RoundRect,0.250000X0.250000X0.475000X-0.250000X0.475000X-0.250000X-0.475000X0.250000X-0.475000X0*%
%ADD30R,1.350000X1.350000*%
%ADD31O,1.350000X1.350000*%
%ADD32FreePoly0,0.000000*%
%ADD33FreePoly1,0.000000*%
%ADD34R,1.500000X1.000000*%
%ADD35RoundRect,0.250000X0.450000X-0.262500X0.450000X0.262500X-0.450000X0.262500X-0.450000X-0.262500X0*%
%ADD36R,1.700000X1.700000*%
%ADD37O,1.700000X1.700000*%
%ADD38C,0.600000*%
%ADD39R,2.000000X1.800000*%
%ADD40R,0.840000X0.840000*%
%ADD41C,0.840000*%
%ADD42O,0.850000X1.850000*%
%ADD43FreePoly2,180.000000*%
%ADD44FreePoly2,270.000000*%
%ADD45FreePoly3,180.000000*%
%ADD46RoundRect,0.050800X0.900000X1.000000X-0.900000X1.000000X-0.900000X-1.000000X0.900000X-1.000000X0*%
%ADD47FreePoly4,180.000000*%
%ADD48R,2.000000X2.000000*%
%ADD49C,2.000000*%
%ADD50C,3.200000*%
%ADD51R,5.500000X1.430000*%
%ADD52RoundRect,0.250000X-0.450000X0.262500X-0.450000X-0.262500X0.450000X-0.262500X0.450000X0.262500X0*%
%ADD53RoundRect,0.102000X-0.300000X-1.100000X0.300000X-1.100000X0.300000X1.100000X-0.300000X1.100000X0*%
%ADD54FreePoly0,90.000000*%
%ADD55FreePoly1,90.000000*%
%ADD56R,1.300000X0.800000*%
%ADD57RoundRect,0.250000X-1.750000X-1.000000X1.750000X-1.000000X1.750000X1.000000X-1.750000X1.000000X0*%
%ADD58RoundRect,0.050000X0.050000X-0.387500X0.050000X0.387500X-0.050000X0.387500X-0.050000X-0.387500X0*%
%ADD59RoundRect,0.050000X0.387500X-0.050000X0.387500X0.050000X-0.387500X0.050000X-0.387500X-0.050000X0*%
%ADD60RoundRect,0.144000X1.456000X-1.456000X1.456000X1.456000X-1.456000X1.456000X-1.456000X-1.456000X0*%
%ADD61RoundRect,0.243750X0.243750X0.456250X-0.243750X0.456250X-0.243750X-0.456250X0.243750X-0.456250X0*%
%ADD62RoundRect,0.218750X0.256250X-0.218750X0.256250X0.218750X-0.256250X0.218750X-0.256250X-0.218750X0*%
%ADD63RoundRect,0.250000X-0.300000X0.300000X-0.300000X-0.300000X0.300000X-0.300000X0.300000X0.300000X0*%
%ADD64RoundRect,0.250000X0.650000X-1.000000X0.650000X1.000000X-0.650000X1.000000X-0.650000X-1.000000X0*%
%ADD65RoundRect,0.218750X-0.256250X0.218750X-0.256250X-0.218750X0.256250X-0.218750X0.256250X0.218750X0*%
%ADD66RoundRect,0.250000X0.312500X1.450000X-0.312500X1.450000X-0.312500X-1.450000X0.312500X-1.450000X0*%
%ADD67R,5.600000X2.100000*%
%ADD68RoundRect,0.150000X0.150000X-0.650000X0.150000X0.650000X-0.150000X0.650000X-0.150000X-0.650000X0*%
%ADD69C,6.100000*%
%ADD70R,0.700000X0.200000*%
%ADD71RoundRect,0.218750X-0.218750X-0.256250X0.218750X-0.256250X0.218750X0.256250X-0.218750X0.256250X0*%
%ADD72R,0.650000X0.400000*%
%ADD73R,0.400000X0.650000*%
%ADD74C,6.000000*%
%ADD75RoundRect,0.250000X0.600000X0.725000X-0.600000X0.725000X-0.600000X-0.725000X0.600000X-0.725000X0*%
%ADD76O,1.700000X1.950000*%
G04 APERTURE END LIST*
%TO.C,Q1*%
D10*
X158360000Y-26758370D02*
X157557320Y-26758370D01*
X157557320Y-24360000D01*
X158360000Y-24360000D01*
X158360000Y-26758370D01*
G36*
X158360000Y-26758370D02*
G01*
X157557320Y-26758370D01*
X157557320Y-24360000D01*
X158360000Y-24360000D01*
X158360000Y-26758370D01*
G37*
X158360000Y-31961440D02*
X157559130Y-31961440D01*
X157559130Y-29560000D01*
X158360000Y-29560000D01*
X158360000Y-31961440D01*
G36*
X158360000Y-31961440D02*
G01*
X157559130Y-31961440D01*
X157559130Y-29560000D01*
X158360000Y-29560000D01*
X158360000Y-31961440D01*
G37*
X159610000Y-26757440D02*
X158808080Y-26757440D01*
X158808080Y-24360000D01*
X159610000Y-24360000D01*
X159610000Y-26757440D01*
G36*
X159610000Y-26757440D02*
G01*
X158808080Y-26757440D01*
X158808080Y-24360000D01*
X159610000Y-24360000D01*
X159610000Y-26757440D01*
G37*
X159610000Y-31962790D02*
X158809230Y-31962790D01*
X158809230Y-29560000D01*
X159610000Y-29560000D01*
X159610000Y-31962790D01*
G36*
X159610000Y-31962790D02*
G01*
X158809230Y-31962790D01*
X158809230Y-29560000D01*
X159610000Y-29560000D01*
X159610000Y-31962790D01*
G37*
X160910000Y-26758000D02*
X160110357Y-26758000D01*
X160110357Y-24360000D01*
X160910000Y-24360000D01*
X160910000Y-26758000D01*
G36*
X160910000Y-26758000D02*
G01*
X160110357Y-26758000D01*
X160110357Y-24360000D01*
X160910000Y-24360000D01*
X160910000Y-26758000D01*
G37*
X160910000Y-31967460D02*
X160110490Y-31967460D01*
X160110490Y-29560000D01*
X160910000Y-29560000D01*
X160910000Y-31967460D01*
G36*
X160910000Y-31967460D02*
G01*
X160110490Y-31967460D01*
X160110490Y-29560000D01*
X160910000Y-29560000D01*
X160910000Y-31967460D01*
G37*
X162160000Y-26758280D02*
X161361840Y-26758280D01*
X161361840Y-24360000D01*
X162160000Y-24360000D01*
X162160000Y-26758280D01*
G36*
X162160000Y-26758280D02*
G01*
X161361840Y-26758280D01*
X161361840Y-24360000D01*
X162160000Y-24360000D01*
X162160000Y-26758280D01*
G37*
%TD*%
D11*
%TO.C,C22*%
X141450000Y-44250000D03*
X143350000Y-44250000D03*
%TD*%
%TO.C,C20*%
X114800000Y-44250000D03*
X116700000Y-44250000D03*
%TD*%
D12*
%TO.C,H12*%
X168000000Y-121500000D03*
%TD*%
D13*
%TO.C,FID1*%
X25000000Y-23000000D03*
%TD*%
D14*
%TO.C,R7*%
X97227500Y-44460000D03*
X99052500Y-44460000D03*
%TD*%
D15*
%TO.C,J4*%
X125000000Y-29500000D03*
X122500000Y-29500000D03*
D16*
X120000000Y-24500000D03*
D15*
X115000000Y-29500000D03*
X117500000Y-29500000D03*
%TD*%
D17*
%TO.C,C10*%
X99440000Y-40800000D03*
X99440000Y-38900000D03*
%TD*%
D18*
%TO.C,R12*%
X157112500Y-57400000D03*
X155287500Y-57400000D03*
%TD*%
D13*
%TO.C,FID3*%
X190000000Y-29000000D03*
%TD*%
D19*
%TO.C,D5*%
X139900000Y-54950000D03*
X139900000Y-58950000D03*
%TD*%
D14*
%TO.C,R10*%
X94025000Y-55850000D03*
X95850000Y-55850000D03*
%TD*%
D13*
%TO.C,J9*%
X28050000Y-50000000D03*
X28050000Y-33770000D03*
X21700000Y-50000000D03*
X21700000Y-33770000D03*
X34400000Y-50000000D03*
X34400000Y-33770000D03*
%TD*%
%TO.C,J18*%
X28050000Y-111200000D03*
X28050000Y-94970000D03*
X21700000Y-111200000D03*
X21700000Y-94970000D03*
X34400000Y-111200000D03*
X34400000Y-94970000D03*
%TD*%
D20*
%TO.C,U6*%
X158605000Y-46825000D03*
X157335000Y-46825000D03*
X156065000Y-46825000D03*
X154795000Y-46825000D03*
X154795000Y-51775000D03*
X156065000Y-51775000D03*
X157335000Y-51775000D03*
X158605000Y-51775000D03*
%TD*%
D21*
%TO.C,J6*%
X179400000Y-30400000D03*
D22*
X179400000Y-24600000D03*
D23*
X174600000Y-27400000D03*
%TD*%
D24*
%TO.C,C25*%
X160500000Y-49450000D03*
X160500000Y-51350000D03*
%TD*%
D25*
%TO.C,U5*%
X136800000Y-59150000D03*
X136800000Y-56850000D03*
D26*
X130500000Y-56850000D03*
D25*
X136800000Y-54550000D03*
%TD*%
D27*
%TO.C,J5*%
X178500000Y-28210000D03*
D28*
X178500000Y-23210000D03*
%TD*%
D29*
%TO.C,C19*%
X133040000Y-52220000D03*
X131140000Y-52220000D03*
%TD*%
D30*
%TO.C,J8*%
X29000000Y-56000000D03*
D31*
X31000000Y-56000000D03*
X29000000Y-58000000D03*
X31000000Y-58000000D03*
%TD*%
D14*
%TO.C,R9*%
X97227500Y-46360000D03*
X99052500Y-46360000D03*
%TD*%
D29*
%TO.C,C14*%
X95837500Y-53850000D03*
X93937500Y-53850000D03*
%TD*%
D32*
%TO.C,JP3*%
X48900000Y-102650000D03*
D33*
X50200000Y-102650000D03*
%TD*%
D29*
%TO.C,C4*%
X156237500Y-24500000D03*
X154337500Y-24500000D03*
%TD*%
D34*
%TO.C,D4*%
X119950000Y-49600000D03*
X119950000Y-46400000D03*
X115050000Y-46400000D03*
X115050000Y-49600000D03*
%TD*%
D24*
%TO.C,C26*%
X157600000Y-59250000D03*
X157600000Y-61150000D03*
%TD*%
D35*
%TO.C,R13*%
X152600000Y-59312500D03*
X152600000Y-57487500D03*
%TD*%
D14*
%TO.C,R8*%
X94025000Y-51850000D03*
X95850000Y-51850000D03*
%TD*%
D13*
%TO.C,J17*%
X28050000Y-91000000D03*
X28050000Y-74770000D03*
X21700000Y-91000000D03*
X21700000Y-74770000D03*
X34400000Y-91000000D03*
X34400000Y-74770000D03*
%TD*%
%TO.C,J20*%
X181950000Y-94995000D03*
X181950000Y-111225000D03*
X188300000Y-94995000D03*
X188300000Y-111225000D03*
X175600000Y-94995000D03*
X175600000Y-111225000D03*
%TD*%
D36*
%TO.C,J12*%
X125860000Y-44300000D03*
D37*
X128400000Y-44300000D03*
X130940000Y-44300000D03*
%TD*%
D34*
%TO.C,D7*%
X144950000Y-49600000D03*
X144950000Y-46400000D03*
X140050000Y-46400000D03*
X140050000Y-49600000D03*
%TD*%
D12*
%TO.C,H11*%
X118980000Y-121520000D03*
%TD*%
D11*
%TO.C,C30*%
X153450000Y-44400000D03*
X155350000Y-44400000D03*
%TD*%
D30*
%TO.C,J22*%
X181000000Y-130000000D03*
D31*
X179000000Y-130000000D03*
X181000000Y-128000000D03*
X179000000Y-128000000D03*
%TD*%
D24*
%TO.C,C31*%
X167900000Y-55250000D03*
X167900000Y-57150000D03*
%TD*%
D38*
%TO.C,H2*%
X80100000Y-21075000D03*
X80100000Y-22075000D03*
X80100000Y-23075000D03*
X80100000Y-24075000D03*
X80100000Y-25075000D03*
X80100000Y-26075000D03*
X80100000Y-30075000D03*
X80100000Y-31075000D03*
X80100000Y-32075000D03*
X80100000Y-33075000D03*
X80100000Y-34075000D03*
X80100000Y-35075000D03*
X80100000Y-36075000D03*
X81100000Y-36075000D03*
X82100000Y-36075000D03*
X83100000Y-36075000D03*
X84100000Y-36075000D03*
X85100000Y-36075000D03*
X86100000Y-36075000D03*
X87100000Y-36075000D03*
X88100000Y-36075000D03*
X89100000Y-36075000D03*
X90100000Y-36075000D03*
X91100000Y-36075000D03*
X92100000Y-36075000D03*
X93100000Y-36075000D03*
X94100000Y-36075000D03*
X95100000Y-36075000D03*
X96100000Y-36075000D03*
X97100000Y-36075000D03*
X98100000Y-36075000D03*
X99100000Y-36075000D03*
X100100000Y-36075000D03*
X101100000Y-36075000D03*
X102100000Y-36075000D03*
X103100000Y-36075000D03*
X104100000Y-36075000D03*
X105100000Y-36075000D03*
X106100000Y-36075000D03*
X107100000Y-36075000D03*
X108100000Y-36075000D03*
X109100000Y-36075000D03*
X110100000Y-36075000D03*
X111100000Y-36075000D03*
X112100000Y-36075000D03*
X113100000Y-36075000D03*
X114100000Y-36075000D03*
X115100000Y-36075000D03*
X116100000Y-36075000D03*
X117100000Y-36075000D03*
X118100000Y-36075000D03*
X119100000Y-36075000D03*
X120100000Y-36075000D03*
X121100000Y-36075000D03*
X122100000Y-36075000D03*
X123100000Y-36075000D03*
X124100000Y-36075000D03*
X125100000Y-36075000D03*
X126100000Y-36075000D03*
X127100000Y-36075000D03*
X128100000Y-36075000D03*
X129100000Y-36075000D03*
X130100000Y-21075000D03*
X130100000Y-22075000D03*
X130100000Y-23075000D03*
X130100000Y-24075000D03*
X130100000Y-25075000D03*
X130100000Y-26075000D03*
X130100000Y-27075000D03*
X130100000Y-28075000D03*
X130100000Y-29075000D03*
X130100000Y-30075000D03*
X130100000Y-31075000D03*
X130100000Y-32075000D03*
X130100000Y-33075000D03*
X130100000Y-34075000D03*
X130100000Y-35075000D03*
X130100000Y-36075000D03*
%TD*%
D30*
%TO.C,J21*%
X31000000Y-130000000D03*
D31*
X29000000Y-130000000D03*
X31000000Y-128000000D03*
X29000000Y-128000000D03*
%TD*%
D39*
%TO.C,SW4*%
X98000000Y-64500000D03*
X112000000Y-64500000D03*
X98000000Y-69500000D03*
X112000000Y-69500000D03*
%TD*%
D13*
%TO.C,FID2*%
X185000000Y-128000000D03*
%TD*%
D30*
%TO.C,J14*%
X106000000Y-78000000D03*
D31*
X104000000Y-78000000D03*
X106000000Y-76000000D03*
X104000000Y-76000000D03*
%TD*%
D18*
%TO.C,R6*%
X77737500Y-47650000D03*
X75912500Y-47650000D03*
%TD*%
D40*
%TO.C,J10*%
X81540000Y-56290000D03*
D41*
X80890000Y-55290000D03*
X80240000Y-56290000D03*
X79590000Y-55290000D03*
X78940000Y-56290000D03*
D42*
X83815000Y-56070000D03*
X76665000Y-56070000D03*
%TD*%
D12*
%TO.C,H1*%
X42000000Y-23000000D03*
%TD*%
D13*
%TO.C,J7*%
X181965000Y-33800000D03*
X181965000Y-50030000D03*
X188315000Y-33800000D03*
X188315000Y-50030000D03*
X175615000Y-33800000D03*
X175615000Y-50030000D03*
%TD*%
D29*
%TO.C,C1*%
X49050000Y-26100000D03*
X47150000Y-26100000D03*
%TD*%
D12*
%TO.C,H4*%
X168000000Y-63500000D03*
%TD*%
D43*
%TO.C,J3*%
X112500000Y-32000000D03*
D44*
X120000000Y-32000000D03*
D43*
X127500000Y-32000000D03*
X115000000Y-34500000D03*
X125000000Y-34500000D03*
D45*
X122500000Y-22000000D03*
D46*
X125000000Y-22000000D03*
X115000000Y-22000000D03*
D47*
X117500000Y-22000000D03*
%TD*%
D48*
%TO.C,SW1*%
X60250000Y-31500000D03*
D49*
X60250000Y-36500000D03*
X60250000Y-34000000D03*
D50*
X67750000Y-28400000D03*
X67750000Y-39600000D03*
D49*
X74750000Y-36500000D03*
X74750000Y-31500000D03*
%TD*%
D24*
%TO.C,C5*%
X63050000Y-46000000D03*
X63050000Y-47900000D03*
%TD*%
D29*
%TO.C,C29*%
X159450000Y-44400000D03*
X157550000Y-44400000D03*
%TD*%
D51*
%TO.C,L5*%
X163200000Y-53980000D03*
X163200000Y-58020000D03*
%TD*%
D34*
%TO.C,D3*%
X94950000Y-49600000D03*
X94950000Y-46400000D03*
X90050000Y-46400000D03*
X90050000Y-49600000D03*
%TD*%
D30*
%TO.C,J13*%
X179000000Y-56000000D03*
D31*
X181000000Y-56000000D03*
X179000000Y-58000000D03*
X181000000Y-58000000D03*
%TD*%
D17*
%TO.C,C17*%
X95140000Y-44200000D03*
X95140000Y-42300000D03*
%TD*%
D52*
%TO.C,R3*%
X41000000Y-27687500D03*
X41000000Y-29512500D03*
%TD*%
D34*
%TO.C,D2*%
X69950000Y-49600000D03*
X69950000Y-46400000D03*
X65050000Y-46400000D03*
X65050000Y-49600000D03*
%TD*%
D24*
%TO.C,C6*%
X88000000Y-46000000D03*
X88000000Y-47900000D03*
%TD*%
%TO.C,C9*%
X103450000Y-51750000D03*
X103450000Y-53650000D03*
%TD*%
D53*
%TO.C,Q1*%
X161765000Y-30760000D03*
%TD*%
D14*
%TO.C,R11*%
X115787500Y-52500000D03*
X117612500Y-52500000D03*
%TD*%
D36*
%TO.C,J15*%
X107225000Y-81300000D03*
D37*
X104685000Y-81300000D03*
X102145000Y-81300000D03*
%TD*%
D13*
%TO.C,J16*%
X181950000Y-74780000D03*
X181950000Y-91010000D03*
X188300000Y-74780000D03*
X188300000Y-91010000D03*
X175600000Y-74780000D03*
X175600000Y-91010000D03*
%TD*%
D54*
%TO.C,JP4*%
X168900000Y-115650000D03*
D55*
X168900000Y-114350000D03*
%TD*%
D39*
%TO.C,SW3*%
X23000000Y-64500000D03*
X37000000Y-64500000D03*
X23000000Y-69500000D03*
X37000000Y-69500000D03*
%TD*%
D29*
%TO.C,C2*%
X156237500Y-26600000D03*
X154337500Y-26600000D03*
%TD*%
D36*
%TO.C,J11*%
X88600000Y-54000000D03*
D37*
X91140000Y-54000000D03*
%TD*%
D56*
%TO.C,U1*%
X46650000Y-31130000D03*
X46650000Y-32400000D03*
X46650000Y-33670000D03*
X56150000Y-33670000D03*
X56150000Y-32400000D03*
X56150000Y-31130000D03*
%TD*%
D18*
%TO.C,R1*%
X56812500Y-35612500D03*
X54987500Y-35612500D03*
%TD*%
D14*
%TO.C,R16*%
X48637500Y-71950000D03*
X50462500Y-71950000D03*
%TD*%
D57*
%TO.C,C3*%
X157567500Y-38000000D03*
X165567500Y-38000000D03*
%TD*%
D54*
%TO.C,JP1*%
X96800000Y-76150000D03*
D55*
X96800000Y-74850000D03*
%TD*%
D54*
%TO.C,JP2*%
X94300000Y-76150000D03*
D55*
X94300000Y-74850000D03*
%TD*%
D58*
%TO.C,U4*%
X104800000Y-49037500D03*
X105200000Y-49037500D03*
X105600000Y-49037500D03*
X106000000Y-49037500D03*
X106400000Y-49037500D03*
X106800000Y-49037500D03*
X107200000Y-49037500D03*
X107600000Y-49037500D03*
X108000000Y-49037500D03*
X108400000Y-49037500D03*
X108800000Y-49037500D03*
X109200000Y-49037500D03*
X109600000Y-49037500D03*
X110000000Y-49037500D03*
D59*
X110837500Y-48200000D03*
X110837500Y-47800000D03*
X110837500Y-47400000D03*
X110837500Y-47000000D03*
X110837500Y-46600000D03*
X110837500Y-46200000D03*
X110837500Y-45800000D03*
X110837500Y-45400000D03*
X110837500Y-45000000D03*
X110837500Y-44600000D03*
X110837500Y-44200000D03*
X110837500Y-43800000D03*
X110837500Y-43400000D03*
X110837500Y-43000000D03*
D58*
X110000000Y-42162500D03*
X109600000Y-42162500D03*
X109200000Y-42162500D03*
X108800000Y-42162500D03*
X108400000Y-42162500D03*
X108000000Y-42162500D03*
X107600000Y-42162500D03*
X107200000Y-42162500D03*
X106800000Y-42162500D03*
X106400000Y-42162500D03*
X106000000Y-42162500D03*
X105600000Y-42162500D03*
X105200000Y-42162500D03*
X104800000Y-42162500D03*
D59*
X103962500Y-43000000D03*
X103962500Y-43400000D03*
X103962500Y-43800000D03*
X103962500Y-44200000D03*
X103962500Y-44600000D03*
X103962500Y-45000000D03*
X103962500Y-45400000D03*
X103962500Y-45800000D03*
X103962500Y-46200000D03*
X103962500Y-46600000D03*
X103962500Y-47000000D03*
X103962500Y-47400000D03*
X103962500Y-47800000D03*
X103962500Y-48200000D03*
D60*
X107400000Y-45600000D03*
%TD*%
D61*
%TO.C,D10*%
X50437500Y-68000000D03*
X48562500Y-68000000D03*
%TD*%
D11*
%TO.C,C28*%
X140050000Y-52450000D03*
X141950000Y-52450000D03*
%TD*%
D30*
%TO.C,J19*%
X104000000Y-108000000D03*
D31*
X106000000Y-108000000D03*
X104000000Y-110000000D03*
X106000000Y-110000000D03*
%TD*%
D19*
%TO.C,D8*%
X143430000Y-54950000D03*
X143430000Y-58950000D03*
%TD*%
D11*
%TO.C,C15*%
X107500000Y-38950000D03*
X109400000Y-38950000D03*
%TD*%
D14*
%TO.C,R2*%
X54987500Y-37550000D03*
X56812500Y-37550000D03*
%TD*%
D62*
%TO.C,L4*%
X42700000Y-29287500D03*
X42700000Y-27712500D03*
%TD*%
D63*
%TO.C,D1*%
X44600000Y-31000000D03*
X44600000Y-33800000D03*
%TD*%
D64*
%TO.C,D6*%
X163400000Y-50600000D03*
X163400000Y-46600000D03*
%TD*%
D11*
%TO.C,C21*%
X118200000Y-44200000D03*
X120100000Y-44200000D03*
%TD*%
D29*
%TO.C,C8*%
X103140000Y-38540000D03*
X101240000Y-38540000D03*
%TD*%
D24*
%TO.C,C27*%
X155600000Y-59250000D03*
X155600000Y-61150000D03*
%TD*%
D14*
%TO.C,R4*%
X170187500Y-30830000D03*
X172012500Y-30830000D03*
%TD*%
D65*
%TO.C,L1*%
X42700000Y-30962500D03*
X42700000Y-32537500D03*
%TD*%
D29*
%TO.C,C7*%
X114150000Y-52500000D03*
X112250000Y-52500000D03*
%TD*%
D66*
%TO.C,F1*%
X168207500Y-27710000D03*
X163932500Y-27710000D03*
%TD*%
D35*
%TO.C,R14*%
X152900000Y-54412500D03*
X152900000Y-52587500D03*
%TD*%
D12*
%TO.C,H7*%
X118900000Y-63565600D03*
%TD*%
D67*
%TO.C,Y1*%
X113500000Y-56100000D03*
X122500000Y-56100000D03*
%TD*%
D39*
%TO.C,SW8*%
X173000000Y-116500000D03*
X187000000Y-116500000D03*
X173000000Y-121500000D03*
X187000000Y-121500000D03*
%TD*%
D68*
%TO.C,U3*%
X97595000Y-56050000D03*
X98865000Y-56050000D03*
X100135000Y-56050000D03*
X101405000Y-56050000D03*
X101405000Y-48850000D03*
X100135000Y-48850000D03*
X98865000Y-48850000D03*
X97595000Y-48850000D03*
%TD*%
D69*
%TO.C,CM1*%
X89000000Y-111500000D03*
X89000000Y-63500000D03*
X56000000Y-111500000D03*
X56000000Y-63500000D03*
D70*
X91000000Y-94800000D03*
X87920000Y-94800000D03*
X91000000Y-94400000D03*
X87920000Y-94400000D03*
X91000000Y-94000000D03*
X87920000Y-94000000D03*
X91000000Y-93600000D03*
X87920000Y-93600000D03*
X91000000Y-93200000D03*
X87920000Y-93200000D03*
X91000000Y-92800000D03*
X87920000Y-92800000D03*
X91000000Y-92400000D03*
X87920000Y-92400000D03*
X91000000Y-92000000D03*
X87920000Y-92000000D03*
X91000000Y-91600000D03*
X87920000Y-91600000D03*
X91000000Y-91200000D03*
X87920000Y-91200000D03*
X91000000Y-90800000D03*
X87920000Y-90800000D03*
X91000000Y-90400000D03*
X87920000Y-90400000D03*
X91000000Y-90000000D03*
X87920000Y-90000000D03*
X91000000Y-89600000D03*
X87920000Y-89600000D03*
X91000000Y-89200000D03*
X87920000Y-89200000D03*
X91000000Y-88800000D03*
X87920000Y-88800000D03*
X91000000Y-88400000D03*
X87920000Y-88400000D03*
X91000000Y-88000000D03*
X87920000Y-88000000D03*
X91000000Y-87600000D03*
X87920000Y-87600000D03*
X91000000Y-87200000D03*
X87920000Y-87200000D03*
X91000000Y-86800000D03*
X87920000Y-86800000D03*
X91000000Y-86400000D03*
X87920000Y-86400000D03*
X91000000Y-86000000D03*
X87920000Y-86000000D03*
X91000000Y-85600000D03*
X87920000Y-85600000D03*
X91000000Y-85200000D03*
X87920000Y-85200000D03*
X91000000Y-84800000D03*
X87920000Y-84800000D03*
X91000000Y-84400000D03*
X87920000Y-84400000D03*
X91000000Y-84000000D03*
X87920000Y-84000000D03*
X91000000Y-83600000D03*
X87920000Y-83600000D03*
X91000000Y-83200000D03*
X87920000Y-83200000D03*
X91000000Y-82800000D03*
X87920000Y-82800000D03*
X91000000Y-82400000D03*
X87920000Y-82400000D03*
X91000000Y-82000000D03*
X87920000Y-82000000D03*
X91000000Y-81600000D03*
X87920000Y-81600000D03*
X91000000Y-81200000D03*
X87920000Y-81200000D03*
X91000000Y-80800000D03*
X87920000Y-80800000D03*
X91000000Y-80400000D03*
X87920000Y-80400000D03*
X91000000Y-80000000D03*
X87920000Y-80000000D03*
X91000000Y-79600000D03*
X87920000Y-79600000D03*
X91000000Y-79200000D03*
X87920000Y-79200000D03*
X91000000Y-78800000D03*
X87920000Y-78800000D03*
X91000000Y-78400000D03*
X87920000Y-78400000D03*
X91000000Y-78000000D03*
X87920000Y-78000000D03*
X91000000Y-77600000D03*
X87920000Y-77600000D03*
X91000000Y-77200000D03*
X87920000Y-77200000D03*
X91000000Y-76800000D03*
X87920000Y-76800000D03*
X91000000Y-76400000D03*
X87920000Y-76400000D03*
X91000000Y-76000000D03*
X87920000Y-76000000D03*
X91000000Y-75600000D03*
X87920000Y-75600000D03*
X91000000Y-75200000D03*
X87920000Y-75200000D03*
X57080000Y-94800000D03*
X54000000Y-94800000D03*
X57080000Y-94400000D03*
X54000000Y-94400000D03*
X57080000Y-94000000D03*
X54000000Y-94000000D03*
X57080000Y-93600000D03*
X54000000Y-93600000D03*
X57080000Y-93200000D03*
X54000000Y-93200000D03*
X57080000Y-92800000D03*
X54000000Y-92800000D03*
X57080000Y-92400000D03*
X54000000Y-92400000D03*
X57080000Y-92000000D03*
X54000000Y-92000000D03*
X57080000Y-91600000D03*
X54000000Y-91600000D03*
X57080000Y-91200000D03*
X54000000Y-91200000D03*
X57080000Y-90800000D03*
X54000000Y-90800000D03*
X57080000Y-90400000D03*
X54000000Y-90400000D03*
X57080000Y-90000000D03*
X54000000Y-90000000D03*
X57080000Y-89600000D03*
X54000000Y-89600000D03*
X57080000Y-89200000D03*
X54000000Y-89200000D03*
X57080000Y-88800000D03*
X54000000Y-88800000D03*
X57080000Y-88400000D03*
X54000000Y-88400000D03*
X57080000Y-88000000D03*
X54000000Y-88000000D03*
X57080000Y-87600000D03*
X54000000Y-87600000D03*
X57080000Y-87200000D03*
X54000000Y-87200000D03*
X57080000Y-86800000D03*
X54000000Y-86800000D03*
X57080000Y-86400000D03*
X54000000Y-86400000D03*
X57080000Y-86000000D03*
X54000000Y-86000000D03*
X57080000Y-85600000D03*
X54000000Y-85600000D03*
X57080000Y-85200000D03*
X54000000Y-85200000D03*
X57080000Y-84800000D03*
X54000000Y-84800000D03*
X57080000Y-84400000D03*
X54000000Y-84400000D03*
X57080000Y-84000000D03*
X54000000Y-84000000D03*
X57080000Y-83600000D03*
X54000000Y-83600000D03*
X57080000Y-83200000D03*
X54000000Y-83200000D03*
X57080000Y-82800000D03*
X54000000Y-82800000D03*
X57080000Y-82400000D03*
X54000000Y-82400000D03*
X57080000Y-82000000D03*
X54000000Y-82000000D03*
X57080000Y-81600000D03*
X54000000Y-81600000D03*
X57080000Y-81200000D03*
X54000000Y-81200000D03*
X57080000Y-80800000D03*
X54000000Y-80800000D03*
X57080000Y-80400000D03*
X54000000Y-80400000D03*
X57080000Y-80000000D03*
X54000000Y-80000000D03*
X57080000Y-79600000D03*
X54000000Y-79600000D03*
X57080000Y-79200000D03*
X54000000Y-79200000D03*
X57080000Y-78800000D03*
X54000000Y-78800000D03*
X57080000Y-78400000D03*
X54000000Y-78400000D03*
X57080000Y-78000000D03*
X54000000Y-78000000D03*
X57080000Y-77600000D03*
X54000000Y-77600000D03*
X57080000Y-77200000D03*
X54000000Y-77200000D03*
X57080000Y-76800000D03*
X54000000Y-76800000D03*
X57080000Y-76400000D03*
X54000000Y-76400000D03*
X57080000Y-76000000D03*
X54000000Y-76000000D03*
X57080000Y-75600000D03*
X54000000Y-75600000D03*
X57080000Y-75200000D03*
X54000000Y-75200000D03*
%TD*%
D13*
%TO.C,FID4*%
X24500000Y-128500000D03*
%TD*%
D39*
%TO.C,SW5*%
X173000000Y-64500000D03*
X187000000Y-64500000D03*
X173000000Y-69500000D03*
X187000000Y-69500000D03*
%TD*%
%TO.C,SW6*%
X23000000Y-116500000D03*
X37000000Y-116500000D03*
X23000000Y-121500000D03*
X37000000Y-121500000D03*
%TD*%
D24*
%TO.C,C32*%
X169900000Y-55250000D03*
X169900000Y-57150000D03*
%TD*%
D14*
%TO.C,R15*%
X48587500Y-66100000D03*
X50412500Y-66100000D03*
%TD*%
D24*
%TO.C,C11*%
X113050000Y-46750000D03*
X113050000Y-48650000D03*
%TD*%
D12*
%TO.C,H3*%
X168000000Y-23000000D03*
%TD*%
D61*
%TO.C,D9*%
X50437500Y-70000000D03*
X48562500Y-70000000D03*
%TD*%
D29*
%TO.C,C12*%
X103150000Y-40500000D03*
X101250000Y-40500000D03*
%TD*%
D71*
%TO.C,L3*%
X51912500Y-37550000D03*
X53487500Y-37550000D03*
%TD*%
D18*
%TO.C,R5*%
X53972500Y-39860000D03*
X52147500Y-39860000D03*
%TD*%
D72*
%TO.C,U2*%
X74150000Y-47600000D03*
X74150000Y-46950000D03*
X74150000Y-46300000D03*
X72250000Y-46300000D03*
X72250000Y-47600000D03*
%TD*%
D48*
%TO.C,SW2*%
X135250000Y-31500000D03*
D49*
X135250000Y-36500000D03*
X135250000Y-34000000D03*
D50*
X142750000Y-28400000D03*
X142750000Y-39600000D03*
D49*
X149750000Y-36500000D03*
X149750000Y-31500000D03*
%TD*%
D39*
%TO.C,SW7*%
X98000000Y-116500000D03*
X112000000Y-116500000D03*
X98000000Y-121500000D03*
X112000000Y-121500000D03*
%TD*%
D73*
%TO.C,U7*%
X50050000Y-62550600D03*
X49400000Y-62550600D03*
X48750000Y-62550600D03*
X48750000Y-64450600D03*
X50050000Y-64450600D03*
%TD*%
D24*
%TO.C,C16*%
X108640000Y-51850000D03*
X108640000Y-53750000D03*
%TD*%
D11*
%TO.C,C18*%
X119150000Y-52500000D03*
X121050000Y-52500000D03*
%TD*%
D43*
%TO.C,J1*%
X82500000Y-32000000D03*
D44*
X90000000Y-32000000D03*
D43*
X97500000Y-32000000D03*
X85000000Y-34500000D03*
X95000000Y-34500000D03*
D45*
X92500000Y-22000000D03*
D46*
X95000000Y-22000000D03*
X85000000Y-22000000D03*
D47*
X87500000Y-22000000D03*
%TD*%
D17*
%TO.C,C24*%
X157343750Y-55693750D03*
X157343750Y-53793750D03*
%TD*%
D29*
%TO.C,C13*%
X101680000Y-42530000D03*
X99780000Y-42530000D03*
%TD*%
D71*
%TO.C,L2*%
X51912500Y-35662500D03*
X53487500Y-35662500D03*
%TD*%
D15*
%TO.C,J2*%
X94994500Y-29500000D03*
X92494500Y-29500000D03*
D16*
X89994500Y-24500000D03*
D15*
X84994500Y-29500000D03*
X87494500Y-29500000D03*
%TD*%
D17*
%TO.C,C23*%
X155243750Y-55693750D03*
X155243750Y-53793750D03*
%TD*%
D74*
%TO.C,H9*%
X30000000Y-119000000D03*
%TD*%
%TO.C,H6*%
X105000000Y-67000000D03*
%TD*%
%TO.C,H5*%
X30000000Y-67000000D03*
%TD*%
%TO.C,H8*%
X180000000Y-67000000D03*
%TD*%
%TO.C,H10*%
X105000000Y-119000000D03*
%TD*%
D75*
%TO.C,J23*%
X49600000Y-28475000D03*
D76*
X47100000Y-28475000D03*
X44600000Y-28475000D03*
%TD*%
D75*
%TO.C,J26*%
X42900000Y-127100000D03*
D76*
X40400000Y-127100000D03*
X37900000Y-127100000D03*
%TD*%
D74*
%TO.C,H13*%
X180000000Y-119000000D03*
%TD*%
D36*
%TO.C,J25*%
X120250000Y-68375600D03*
D37*
X117710000Y-68375600D03*
X120250000Y-70915600D03*
X117710000Y-70915600D03*
X120250000Y-73455600D03*
X117710000Y-73455600D03*
X120250000Y-75995600D03*
X117710000Y-75995600D03*
X120250000Y-78535600D03*
X117710000Y-78535600D03*
X120250000Y-81075600D03*
X117710000Y-81075600D03*
X120250000Y-83615600D03*
X117710000Y-83615600D03*
X120250000Y-86155600D03*
X117710000Y-86155600D03*
X120250000Y-88695600D03*
X117710000Y-88695600D03*
X120250000Y-91235600D03*
X117710000Y-91235600D03*
X120250000Y-93775600D03*
X117710000Y-93775600D03*
X120250000Y-96315600D03*
X117710000Y-96315600D03*
X120250000Y-98855600D03*
X117710000Y-98855600D03*
X120250000Y-101395600D03*
X117710000Y-101395600D03*
X120250000Y-103935600D03*
X117710000Y-103935600D03*
X120250000Y-106475600D03*
X117710000Y-106475600D03*
X120250000Y-109015600D03*
X117710000Y-109015600D03*
X120250000Y-111555600D03*
X117710000Y-111555600D03*
X120250000Y-114095600D03*
X117710000Y-114095600D03*
X120250000Y-116635600D03*
X117710000Y-116635600D03*
D36*
X156555000Y-74845600D03*
D37*
X154015000Y-74845600D03*
X156555000Y-77385600D03*
X154015000Y-77385600D03*
X156555000Y-79925600D03*
X154015000Y-79925600D03*
D36*
X152380000Y-119150600D03*
D37*
X152380000Y-121690600D03*
X154920000Y-119150600D03*
X154920000Y-121690600D03*
X157460000Y-119150600D03*
X157460000Y-121690600D03*
%TD*%
D75*
%TO.C,J24*%
X49600000Y-36225000D03*
D76*
X47100000Y-36225000D03*
X44600000Y-36225000D03*
%TD*%
M02*
