%TF.GenerationSoftware,KiCad,Pcbnew,7.0.9-7.0.9~ubuntu23.04.1*%
%TF.CreationDate,2024-01-07T15:09:49+00:00*%
%TF.ProjectId,pedalboard-hw,70656461-6c62-46f6-9172-642d68772e6b,3.2.0-RC1*%
%TF.SameCoordinates,Original*%
%TF.FileFunction,Other,User*%
%FSLAX46Y46*%
G04 Gerber Fmt 4.6, Leading zero omitted, Abs format (unit mm)*
G04 Created by KiCad (PCBNEW 7.0.9-7.0.9~ubuntu23.04.1) date 2024-01-07 15:09:49*
%MOMM*%
%LPD*%
G01*
G04 APERTURE LIST*
%ADD10C,0.050000*%
%ADD11C,0.120000*%
G04 APERTURE END LIST*
D10*
%TO.C,TP3*%
X163260000Y-55360000D02*
X163260000Y-58360000D01*
X163260000Y-55360000D02*
X166260000Y-55360000D01*
X166260000Y-58360000D02*
X163260000Y-58360000D01*
X166260000Y-58360000D02*
X166260000Y-55360000D01*
%TO.C,C23*%
X114050000Y-43290000D02*
X117450000Y-43290000D01*
X114050000Y-45250000D02*
X114050000Y-43290000D01*
X117450000Y-43290000D02*
X117450000Y-45250000D01*
X117450000Y-45250000D02*
X114050000Y-45250000D01*
%TO.C,H7*%
X170600000Y-121500000D02*
G75*
G03*
X170600000Y-121500000I-2600000J0D01*
G01*
%TO.C,FID1*%
X26750000Y-23000000D02*
G75*
G03*
X26750000Y-23000000I-1750000J0D01*
G01*
%TO.C,R10*%
X96460000Y-43510000D02*
X99820000Y-43510000D01*
X96460000Y-45410000D02*
X96460000Y-43510000D01*
X99820000Y-43510000D02*
X99820000Y-45410000D01*
X99820000Y-45410000D02*
X96460000Y-45410000D01*
%TO.C,J3*%
X126250000Y-32450000D02*
X126250000Y-19750000D01*
X126250000Y-19750000D02*
X123250000Y-19750000D01*
X123250000Y-19750000D02*
X123250000Y-17950000D01*
X123250000Y-17950000D02*
X116750000Y-17950000D01*
X116750000Y-19750000D02*
X113750000Y-19750000D01*
X116750000Y-17950000D02*
X116750000Y-19750000D01*
X113750000Y-32450000D02*
X126250000Y-32450000D01*
X113750000Y-20000000D02*
X113750000Y-32450000D01*
X113750000Y-19750000D02*
X113750000Y-20000000D01*
%TO.C,C21*%
X98460000Y-41550000D02*
X98460000Y-38150000D01*
X100420000Y-41550000D02*
X98460000Y-41550000D01*
X98460000Y-38150000D02*
X100420000Y-38150000D01*
X100420000Y-38150000D02*
X100420000Y-41550000D01*
%TO.C,C29*%
X154860000Y-48860000D02*
X154860000Y-45460000D01*
X156820000Y-48860000D02*
X154860000Y-48860000D01*
X154860000Y-45460000D02*
X156820000Y-45460000D01*
X156820000Y-45460000D02*
X156820000Y-48860000D01*
%TO.C,FID2*%
X191750000Y-29000000D02*
G75*
G03*
X191750000Y-29000000I-1750000J0D01*
G01*
%TO.C,TP1*%
X151720000Y-31430000D02*
X151720000Y-34430000D01*
X151720000Y-31430000D02*
X154720000Y-31430000D01*
X154720000Y-34430000D02*
X151720000Y-34430000D01*
X154720000Y-34430000D02*
X154720000Y-31430000D01*
%TO.C,D4*%
X141080000Y-53600000D02*
X141080000Y-60600000D01*
X137580000Y-53600000D02*
X141080000Y-53600000D01*
X141080000Y-60600000D02*
X137580000Y-60600000D01*
X137580000Y-60600000D02*
X137580000Y-53600000D01*
%TO.C,R9*%
X93257500Y-54900000D02*
X96617500Y-54900000D01*
X93257500Y-56800000D02*
X93257500Y-54900000D01*
X96617500Y-54900000D02*
X96617500Y-56800000D01*
X96617500Y-56800000D02*
X93257500Y-56800000D01*
%TO.C,J8*%
X41730000Y-31770000D02*
X41730000Y-52000000D01*
X41730000Y-31770000D02*
X14200000Y-31770000D01*
X14200000Y-52000000D02*
X41730000Y-52000000D01*
X14200000Y-31770000D02*
X14200000Y-52000000D01*
%TO.C,J19*%
X41730000Y-92970000D02*
X41730000Y-113200000D01*
X41730000Y-92970000D02*
X14200000Y-92970000D01*
X14200000Y-113200000D02*
X41730000Y-113200000D01*
X14200000Y-92970000D02*
X14200000Y-113200000D01*
%TO.C,C28*%
X155670000Y-54920000D02*
X155670000Y-51520000D01*
X157630000Y-54920000D02*
X155670000Y-54920000D01*
X155670000Y-51520000D02*
X157630000Y-51520000D01*
X157630000Y-51520000D02*
X157630000Y-54920000D01*
%TO.C,J7*%
X184400000Y-31800000D02*
X184400000Y-16300000D01*
X184400000Y-16300000D02*
X174400000Y-16300000D01*
X174400000Y-31800000D02*
X184400000Y-31800000D01*
X174400000Y-29900000D02*
X174400000Y-31800000D01*
X174400000Y-16300000D02*
X174400000Y-24900000D01*
X173200000Y-29900000D02*
X174400000Y-29900000D01*
X173200000Y-29900000D02*
X173200000Y-24900000D01*
X173200000Y-24900000D02*
X174400000Y-24900000D01*
%TO.C,U5*%
X137570000Y-60450000D02*
X137570000Y-53250000D01*
X137570000Y-53250000D02*
X128770000Y-53250000D01*
X128770000Y-60450000D02*
X137570000Y-60450000D01*
X128770000Y-53250000D02*
X128770000Y-60450000D01*
%TO.C,J6*%
X172790000Y-31210000D02*
X183600000Y-31210000D01*
X183600000Y-31210000D02*
X183600000Y-20210000D01*
X172790000Y-20210000D02*
X172790000Y-31210000D01*
X183600000Y-20210000D02*
X172790000Y-20210000D01*
%TO.C,C24*%
X133790000Y-53200000D02*
X130390000Y-53200000D01*
X133790000Y-51240000D02*
X133790000Y-53200000D01*
X130390000Y-53200000D02*
X130390000Y-51240000D01*
X130390000Y-51240000D02*
X133790000Y-51240000D01*
%TO.C,J9*%
X27500000Y-54500000D02*
X27500000Y-59500000D01*
X27500000Y-59500000D02*
X32500000Y-59500000D01*
X32500000Y-54500000D02*
X27500000Y-54500000D01*
X32500000Y-59500000D02*
X32500000Y-54500000D01*
%TO.C,SW4*%
X122360000Y-47260000D02*
X125660000Y-47260000D01*
X125660000Y-47260000D02*
X125660000Y-42460000D01*
X122360000Y-42460000D02*
X122360000Y-47260000D01*
X125660000Y-42460000D02*
X122360000Y-42460000D01*
%TO.C,R6*%
X96460000Y-45410000D02*
X99820000Y-45410000D01*
X96460000Y-47310000D02*
X96460000Y-45410000D01*
X99820000Y-45410000D02*
X99820000Y-47310000D01*
X99820000Y-47310000D02*
X96460000Y-47310000D01*
%TO.C,C15*%
X96587500Y-54830000D02*
X93187500Y-54830000D01*
X96587500Y-52870000D02*
X96587500Y-54830000D01*
X93187500Y-54830000D02*
X93187500Y-52870000D01*
X93187500Y-52870000D02*
X96587500Y-52870000D01*
%TO.C,JP3*%
X47900000Y-101400000D02*
X47900000Y-103900000D01*
X47900000Y-101400000D02*
X51200000Y-101400000D01*
X51200000Y-103900000D02*
X47900000Y-103900000D01*
X51200000Y-103900000D02*
X51200000Y-101400000D01*
%TO.C,D3*%
X114050000Y-45250000D02*
X114050000Y-50750000D01*
X114050000Y-50750000D02*
X120950000Y-50750000D01*
X120950000Y-45250000D02*
X114050000Y-45250000D01*
X120950000Y-50750000D02*
X120950000Y-45250000D01*
%TO.C,C33*%
X150870000Y-59530000D02*
X150870000Y-50730000D01*
X155670000Y-59530000D02*
X150870000Y-59530000D01*
X150870000Y-50730000D02*
X155670000Y-50730000D01*
X155670000Y-50730000D02*
X155670000Y-59530000D01*
%TO.C,R8*%
X93257500Y-50900000D02*
X96617500Y-50900000D01*
X93257500Y-52800000D02*
X93257500Y-50900000D01*
X96617500Y-50900000D02*
X96617500Y-52800000D01*
X96617500Y-52800000D02*
X93257500Y-52800000D01*
%TO.C,J20*%
X41730000Y-72770000D02*
X41730000Y-93000000D01*
X41730000Y-72770000D02*
X14200000Y-72770000D01*
X14200000Y-93000000D02*
X41730000Y-93000000D01*
X14200000Y-72770000D02*
X14200000Y-93000000D01*
%TO.C,J22*%
X168270000Y-113225000D02*
X168270000Y-92995000D01*
X168270000Y-113225000D02*
X195800000Y-113225000D01*
X195800000Y-92995000D02*
X168270000Y-92995000D01*
X195800000Y-113225000D02*
X195800000Y-92995000D01*
%TO.C,J12*%
X127515000Y-46250000D02*
X136165000Y-46250000D01*
X136165000Y-46250000D02*
X136165000Y-42650000D01*
X127515000Y-42650000D02*
X127515000Y-46250000D01*
X136165000Y-42650000D02*
X127515000Y-42650000D01*
%TO.C,C34*%
X157940000Y-46130000D02*
X161340000Y-46130000D01*
X157940000Y-48090000D02*
X157940000Y-46130000D01*
X161340000Y-46130000D02*
X161340000Y-48090000D01*
X161340000Y-48090000D02*
X157940000Y-48090000D01*
%TO.C,H6*%
X121580000Y-121520000D02*
G75*
G03*
X121580000Y-121520000I-2600000J0D01*
G01*
%TO.C,R15*%
X154880000Y-45450000D02*
X154880000Y-42090000D01*
X156780000Y-45450000D02*
X154880000Y-45450000D01*
X154880000Y-42090000D02*
X156780000Y-42090000D01*
X156780000Y-42090000D02*
X156780000Y-45450000D01*
%TO.C,J24*%
X182500000Y-131500000D02*
X182500000Y-126500000D01*
X182500000Y-126500000D02*
X177500000Y-126500000D01*
X177500000Y-131500000D02*
X182500000Y-131500000D01*
X177500000Y-126500000D02*
X177500000Y-131500000D01*
%TO.C,J23*%
X32500000Y-131500000D02*
X32500000Y-126500000D01*
X32500000Y-126500000D02*
X27500000Y-126500000D01*
X27500000Y-131500000D02*
X32500000Y-131500000D01*
X27500000Y-126500000D02*
X27500000Y-131500000D01*
%TO.C,SW6*%
X97000000Y-60750000D02*
X97000000Y-73250000D01*
X97000000Y-73250000D02*
X113000000Y-73250000D01*
X113000000Y-60750000D02*
X97000000Y-60750000D01*
X113000000Y-73250000D02*
X113000000Y-60750000D01*
%TO.C,FID4*%
X186750000Y-128000000D02*
G75*
G03*
X186750000Y-128000000I-1750000J0D01*
G01*
%TO.C,C8*%
X153440000Y-31370000D02*
X153440000Y-27970000D01*
X155400000Y-31370000D02*
X153440000Y-31370000D01*
X153440000Y-27970000D02*
X155400000Y-27970000D01*
X155400000Y-27970000D02*
X155400000Y-31370000D01*
%TO.C,C37*%
X168150000Y-55430000D02*
X168150000Y-52030000D01*
X170110000Y-55430000D02*
X168150000Y-55430000D01*
X168150000Y-52030000D02*
X170110000Y-52030000D01*
X170110000Y-52030000D02*
X170110000Y-55430000D01*
%TO.C,J17*%
X107500000Y-79500000D02*
X107500000Y-74500000D01*
X107500000Y-74500000D02*
X102500000Y-74500000D01*
X102500000Y-79500000D02*
X107500000Y-79500000D01*
X102500000Y-74500000D02*
X102500000Y-79500000D01*
%TO.C,R7*%
X87960000Y-57310000D02*
X87960000Y-53950000D01*
X89860000Y-57310000D02*
X87960000Y-57310000D01*
X87960000Y-53950000D02*
X89860000Y-53950000D01*
X89860000Y-53950000D02*
X89860000Y-57310000D01*
%TO.C,J11*%
X70010000Y-58230000D02*
X73910000Y-58230000D01*
X73910000Y-58230000D02*
X73910000Y-49230000D01*
X70010000Y-49230000D02*
X70010000Y-58230000D01*
X73910000Y-49230000D02*
X70010000Y-49230000D01*
%TO.C,SW3*%
X89860000Y-56050000D02*
X93160000Y-56050000D01*
X93160000Y-56050000D02*
X93160000Y-51250000D01*
X89860000Y-51250000D02*
X89860000Y-56050000D01*
X93160000Y-51250000D02*
X89860000Y-51250000D01*
%TO.C,R13*%
X162260000Y-45810000D02*
X162260000Y-42450000D01*
X164160000Y-45810000D02*
X162260000Y-45810000D01*
X162260000Y-42450000D02*
X164160000Y-42450000D01*
X164160000Y-42450000D02*
X164160000Y-45810000D01*
%TO.C,H1*%
X44600000Y-23000000D02*
G75*
G03*
X44600000Y-23000000I-2600000J0D01*
G01*
%TO.C,C32*%
X159640000Y-54920000D02*
X159640000Y-51520000D01*
X161600000Y-54920000D02*
X159640000Y-54920000D01*
X159640000Y-51520000D02*
X161600000Y-51520000D01*
X161600000Y-51520000D02*
X161600000Y-54920000D01*
%TO.C,J5*%
X168285000Y-52030000D02*
X168285000Y-31800000D01*
X168285000Y-52030000D02*
X195815000Y-52030000D01*
X195815000Y-31800000D02*
X168285000Y-31800000D01*
X195815000Y-52030000D02*
X195815000Y-31800000D01*
%TO.C,C30*%
X162230000Y-42420000D02*
X162230000Y-39020000D01*
X164190000Y-42420000D02*
X162230000Y-42420000D01*
X162230000Y-39020000D02*
X164190000Y-39020000D01*
X164190000Y-39020000D02*
X164190000Y-42420000D01*
%TO.C,J13*%
X145000000Y-46500000D02*
X145000000Y-41500000D01*
X145000000Y-41500000D02*
X140000000Y-41500000D01*
X140000000Y-46500000D02*
X145000000Y-46500000D01*
X140000000Y-41500000D02*
X140000000Y-46500000D01*
%TO.C,H4*%
X170600000Y-63500000D02*
G75*
G03*
X170600000Y-63500000I-2600000J0D01*
G01*
%TO.C,C35*%
X156820000Y-38670000D02*
X156820000Y-42070000D01*
X154860000Y-38670000D02*
X156820000Y-38670000D01*
X156820000Y-42070000D02*
X154860000Y-42070000D01*
X154860000Y-42070000D02*
X154860000Y-38670000D01*
%TO.C,SW1*%
X58750000Y-26300000D02*
X58750000Y-41700000D01*
X58750000Y-26300000D02*
X76250000Y-26300000D01*
X76250000Y-41700000D02*
X58750000Y-41700000D01*
X76250000Y-41700000D02*
X76250000Y-26300000D01*
%TO.C,C9*%
X159500000Y-36670000D02*
X156100000Y-36670000D01*
X159500000Y-34710000D02*
X159500000Y-36670000D01*
X156100000Y-36670000D02*
X156100000Y-34710000D01*
X156100000Y-34710000D02*
X159500000Y-34710000D01*
%TO.C,U6*%
X162220000Y-38700000D02*
X156820000Y-38700000D01*
X156820000Y-38700000D02*
X156820000Y-46100000D01*
X162220000Y-46100000D02*
X162220000Y-38700000D01*
X156820000Y-46100000D02*
X162220000Y-46100000D01*
%TO.C,D2*%
X89050000Y-45250000D02*
X89050000Y-50750000D01*
X89050000Y-50750000D02*
X95950000Y-50750000D01*
X95950000Y-45250000D02*
X89050000Y-45250000D01*
X95950000Y-50750000D02*
X95950000Y-45250000D01*
%TO.C,J15*%
X177500000Y-54500000D02*
X177500000Y-59500000D01*
X177500000Y-59500000D02*
X182500000Y-59500000D01*
X182500000Y-54500000D02*
X177500000Y-54500000D01*
X182500000Y-59500000D02*
X182500000Y-54500000D01*
%TO.C,C18*%
X94160000Y-44950000D02*
X94160000Y-41550000D01*
X96120000Y-44950000D02*
X94160000Y-44950000D01*
X94160000Y-41550000D02*
X96120000Y-41550000D01*
X96120000Y-41550000D02*
X96120000Y-44950000D01*
%TO.C,J10*%
X70000000Y-46500000D02*
X70000000Y-41500000D01*
X70000000Y-41500000D02*
X65000000Y-41500000D01*
X65000000Y-46500000D02*
X70000000Y-46500000D01*
X65000000Y-41500000D02*
X65000000Y-46500000D01*
%TO.C,R3*%
X86970000Y-40930000D02*
X83610000Y-40930000D01*
X86970000Y-39030000D02*
X86970000Y-40930000D01*
X83610000Y-40930000D02*
X83610000Y-39030000D01*
X83610000Y-39030000D02*
X86970000Y-39030000D01*
%TO.C,C11*%
X88980000Y-46910000D02*
X88980000Y-50310000D01*
X87020000Y-46910000D02*
X88980000Y-46910000D01*
X88980000Y-50310000D02*
X87020000Y-50310000D01*
X87020000Y-50310000D02*
X87020000Y-46910000D01*
%TO.C,C19*%
X104430000Y-51000000D02*
X104430000Y-54400000D01*
X102470000Y-51000000D02*
X104430000Y-51000000D01*
X104430000Y-54400000D02*
X102470000Y-54400000D01*
X102470000Y-54400000D02*
X102470000Y-51000000D01*
%TO.C,R11*%
X115020000Y-51550000D02*
X118380000Y-51550000D01*
X115020000Y-53450000D02*
X115020000Y-51550000D01*
X118380000Y-51550000D02*
X118380000Y-53450000D01*
X118380000Y-53450000D02*
X115020000Y-53450000D01*
%TO.C,C1*%
X78780000Y-30500000D02*
X78780000Y-33900000D01*
X76820000Y-30500000D02*
X78780000Y-30500000D01*
X78780000Y-33900000D02*
X76820000Y-33900000D01*
X76820000Y-33900000D02*
X76820000Y-30500000D01*
%TO.C,C3*%
X159530000Y-32750000D02*
X162930000Y-32750000D01*
X159530000Y-34710000D02*
X159530000Y-32750000D01*
X162930000Y-32750000D02*
X162930000Y-34710000D01*
X162930000Y-34710000D02*
X159530000Y-34710000D01*
%TO.C,J16*%
X109025000Y-79500000D02*
X100375000Y-79500000D01*
X100375000Y-79500000D02*
X100375000Y-83100000D01*
X109025000Y-83100000D02*
X109025000Y-79500000D01*
X100375000Y-83100000D02*
X109025000Y-83100000D01*
%TO.C,C2*%
X166530000Y-31710000D02*
X163130000Y-31710000D01*
X166530000Y-29750000D02*
X166530000Y-31710000D01*
X163130000Y-31710000D02*
X163130000Y-29750000D01*
X163130000Y-29750000D02*
X166530000Y-29750000D01*
%TO.C,J18*%
X168270000Y-93010000D02*
X168270000Y-72780000D01*
X168270000Y-93010000D02*
X195800000Y-93010000D01*
X195800000Y-72780000D02*
X168270000Y-72780000D01*
X195800000Y-93010000D02*
X195800000Y-72780000D01*
%TO.C,C4*%
X163190000Y-25730000D02*
X163190000Y-22330000D01*
X165150000Y-25730000D02*
X163190000Y-25730000D01*
X163190000Y-22330000D02*
X165150000Y-22330000D01*
X165150000Y-22330000D02*
X165150000Y-25730000D01*
%TO.C,C36*%
X157650000Y-54930000D02*
X157650000Y-51530000D01*
X159610000Y-54930000D02*
X157650000Y-54930000D01*
X157650000Y-51530000D02*
X159610000Y-51530000D01*
X159610000Y-51530000D02*
X159610000Y-54930000D01*
%TO.C,JP4*%
X167650000Y-116650000D02*
X170150000Y-116650000D01*
X167650000Y-116650000D02*
X167650000Y-113350000D01*
X170150000Y-113350000D02*
X170150000Y-116650000D01*
X170150000Y-113350000D02*
X167650000Y-113350000D01*
%TO.C,SW5*%
X22000000Y-60750000D02*
X22000000Y-73250000D01*
X22000000Y-73250000D02*
X38000000Y-73250000D01*
X38000000Y-60750000D02*
X22000000Y-60750000D01*
X38000000Y-73250000D02*
X38000000Y-60750000D01*
%TO.C,U2*%
X85920000Y-44690000D02*
X81580000Y-44690000D01*
X81580000Y-44690000D02*
X81580000Y-55990000D01*
X85920000Y-55990000D02*
X85920000Y-44690000D01*
X81580000Y-55990000D02*
X85920000Y-55990000D01*
%TO.C,R4*%
X79680000Y-56520000D02*
X79680000Y-53160000D01*
X81580000Y-56520000D02*
X79680000Y-56520000D01*
X79680000Y-53160000D02*
X81580000Y-53160000D01*
X81580000Y-53160000D02*
X81580000Y-56520000D01*
%TO.C,R16*%
X47870000Y-71000000D02*
X51230000Y-71000000D01*
X47870000Y-72900000D02*
X47870000Y-71000000D01*
X51230000Y-71000000D02*
X51230000Y-72900000D01*
X51230000Y-72900000D02*
X47870000Y-72900000D01*
%TO.C,JP2*%
X95550000Y-77150000D02*
X98050000Y-77150000D01*
X95550000Y-77150000D02*
X95550000Y-73850000D01*
X98050000Y-73850000D02*
X98050000Y-77150000D01*
X98050000Y-73850000D02*
X95550000Y-73850000D01*
%TO.C,JP1*%
X93050000Y-77150000D02*
X95550000Y-77150000D01*
X93050000Y-77150000D02*
X93050000Y-73850000D01*
X95550000Y-73850000D02*
X95550000Y-77150000D01*
X95550000Y-73850000D02*
X93050000Y-73850000D01*
%TO.C,U3*%
X103280000Y-49720000D02*
X111520000Y-49720000D01*
X111520000Y-49720000D02*
X111520000Y-41480000D01*
X103280000Y-41480000D02*
X103280000Y-49720000D01*
X111520000Y-41480000D02*
X103280000Y-41480000D01*
%TO.C,D7*%
X51180000Y-68950000D02*
X47820000Y-68950000D01*
X51180000Y-67050000D02*
X51180000Y-68950000D01*
X47820000Y-68950000D02*
X47820000Y-67050000D01*
X47820000Y-67050000D02*
X51180000Y-67050000D01*
%TO.C,C27*%
X137210000Y-53230000D02*
X133810000Y-53230000D01*
X137210000Y-51270000D02*
X137210000Y-53230000D01*
X133810000Y-53230000D02*
X133810000Y-51270000D01*
X133810000Y-51270000D02*
X137210000Y-51270000D01*
%TO.C,C10*%
X159510000Y-34730000D02*
X162910000Y-34730000D01*
X159510000Y-36690000D02*
X159510000Y-34730000D01*
X162910000Y-34730000D02*
X162910000Y-36690000D01*
X162910000Y-36690000D02*
X159510000Y-36690000D01*
%TO.C,J21*%
X102500000Y-106500000D02*
X102500000Y-111500000D01*
X102500000Y-111500000D02*
X107500000Y-111500000D01*
X107500000Y-106500000D02*
X102500000Y-106500000D01*
X107500000Y-111500000D02*
X107500000Y-106500000D01*
%TO.C,D5*%
X137590000Y-53527500D02*
X137590000Y-46527500D01*
X141090000Y-53527500D02*
X137590000Y-53527500D01*
X137590000Y-46527500D02*
X141090000Y-46527500D01*
X141090000Y-46527500D02*
X141090000Y-53527500D01*
%TO.C,R12*%
X152960000Y-48810000D02*
X152960000Y-45450000D01*
X154860000Y-48810000D02*
X152960000Y-48810000D01*
X152960000Y-45450000D02*
X154860000Y-45450000D01*
X154860000Y-45450000D02*
X154860000Y-48810000D01*
%TO.C,C13*%
X107040000Y-38480000D02*
X110440000Y-38480000D01*
X107040000Y-40440000D02*
X107040000Y-38480000D01*
X110440000Y-38480000D02*
X110440000Y-40440000D01*
X110440000Y-40440000D02*
X107040000Y-40440000D01*
%TO.C,R5*%
X79680000Y-53160000D02*
X79680000Y-56520000D01*
X77780000Y-53160000D02*
X79680000Y-53160000D01*
X79680000Y-56520000D02*
X77780000Y-56520000D01*
X77780000Y-56520000D02*
X77780000Y-53160000D01*
%TO.C,L4*%
X84010000Y-40930000D02*
X86970000Y-40930000D01*
X84010000Y-42390000D02*
X84010000Y-40930000D01*
X86970000Y-40930000D02*
X86970000Y-42390000D01*
X86970000Y-42390000D02*
X84010000Y-42390000D01*
%TO.C,D1*%
X85950000Y-44690000D02*
X85950000Y-42390000D01*
X85950000Y-44690000D02*
X81550000Y-44690000D01*
X81550000Y-44690000D02*
X81550000Y-42390000D01*
X81550000Y-42390000D02*
X85950000Y-42390000D01*
%TO.C,C25*%
X117450000Y-43290000D02*
X120850000Y-43290000D01*
X117450000Y-45250000D02*
X117450000Y-43290000D01*
X120850000Y-43290000D02*
X120850000Y-45250000D01*
X120850000Y-45250000D02*
X117450000Y-45250000D01*
%TO.C,C17*%
X103890000Y-39520000D02*
X100490000Y-39520000D01*
X103890000Y-37560000D02*
X103890000Y-39520000D01*
X100490000Y-39520000D02*
X100490000Y-37560000D01*
X100490000Y-37560000D02*
X103890000Y-37560000D01*
%TO.C,R1*%
X169420000Y-29880000D02*
X172780000Y-29880000D01*
X169420000Y-31780000D02*
X169420000Y-29880000D01*
X172780000Y-29880000D02*
X172780000Y-31780000D01*
X172780000Y-31780000D02*
X169420000Y-31780000D01*
%TO.C,L1*%
X83730000Y-42390000D02*
X80770000Y-42390000D01*
X83730000Y-40930000D02*
X83730000Y-42390000D01*
X80770000Y-42390000D02*
X80770000Y-40930000D01*
X80770000Y-40930000D02*
X83730000Y-40930000D01*
%TO.C,C22*%
X114900000Y-53480000D02*
X111500000Y-53480000D01*
X114900000Y-51520000D02*
X114900000Y-53480000D01*
X111500000Y-53480000D02*
X111500000Y-51520000D01*
X111500000Y-51520000D02*
X114900000Y-51520000D01*
%TO.C,F1*%
X169020000Y-29660000D02*
X163120000Y-29660000D01*
X169020000Y-25760000D02*
X169020000Y-29660000D01*
X163120000Y-29660000D02*
X163120000Y-25760000D01*
X163120000Y-25760000D02*
X169020000Y-25760000D01*
%TO.C,H5*%
X121500000Y-63565600D02*
G75*
G03*
X121500000Y-63565600I-2600000J0D01*
G01*
%TO.C,Y1*%
X111200000Y-53500000D02*
X111200000Y-58700000D01*
X111200000Y-58700000D02*
X124800000Y-58700000D01*
X124800000Y-53500000D02*
X111200000Y-53500000D01*
X124800000Y-58700000D02*
X124800000Y-53500000D01*
%TO.C,SW10*%
X172000000Y-112750000D02*
X172000000Y-125250000D01*
X172000000Y-125250000D02*
X188000000Y-125250000D01*
X188000000Y-112750000D02*
X172000000Y-112750000D01*
X188000000Y-125250000D02*
X188000000Y-112750000D01*
%TO.C,U4*%
X96640000Y-57100000D02*
X102360000Y-57100000D01*
X102360000Y-57100000D02*
X102360000Y-47800000D01*
X96640000Y-47800000D02*
X96640000Y-57100000D01*
X102360000Y-47800000D02*
X96640000Y-47800000D01*
D11*
%TO.C,CM1*%
X91350000Y-96400000D02*
X87570000Y-96400000D01*
X91350000Y-73600000D02*
X91350000Y-96400000D01*
X87570000Y-96400000D02*
X87570000Y-73600000D01*
X87570000Y-73600000D02*
X91350000Y-73600000D01*
X57430000Y-96400000D02*
X53650000Y-96400000D01*
X57430000Y-73600000D02*
X57430000Y-96400000D01*
X53650000Y-96400000D02*
X53650000Y-73600000D01*
X53650000Y-73600000D02*
X57430000Y-73600000D01*
D10*
%TO.C,FID3*%
X26250000Y-128500000D02*
G75*
G03*
X26250000Y-128500000I-1750000J0D01*
G01*
%TO.C,SW7*%
X172000000Y-60750000D02*
X172000000Y-73250000D01*
X172000000Y-73250000D02*
X188000000Y-73250000D01*
X188000000Y-60750000D02*
X172000000Y-60750000D01*
X188000000Y-73250000D02*
X188000000Y-60750000D01*
%TO.C,C5*%
X159490000Y-38650000D02*
X156090000Y-38650000D01*
X159490000Y-36690000D02*
X159490000Y-38650000D01*
X156090000Y-38650000D02*
X156090000Y-36690000D01*
X156090000Y-36690000D02*
X159490000Y-36690000D01*
%TO.C,C6*%
X159520000Y-34710000D02*
X156120000Y-34710000D01*
X159520000Y-32750000D02*
X159520000Y-34710000D01*
X156120000Y-34710000D02*
X156120000Y-32750000D01*
X156120000Y-32750000D02*
X159520000Y-32750000D01*
%TO.C,SW8*%
X22000000Y-112750000D02*
X22000000Y-125250000D01*
X22000000Y-125250000D02*
X38000000Y-125250000D01*
X38000000Y-112750000D02*
X22000000Y-112750000D01*
X38000000Y-125250000D02*
X38000000Y-112750000D01*
%TO.C,C7*%
X159500000Y-36700000D02*
X162900000Y-36700000D01*
X159500000Y-38660000D02*
X159500000Y-36700000D01*
X162900000Y-36700000D02*
X162900000Y-38660000D01*
X162900000Y-38660000D02*
X159500000Y-38660000D01*
%TO.C,R17*%
X47820000Y-65150000D02*
X51180000Y-65150000D01*
X47820000Y-67050000D02*
X47820000Y-65150000D01*
X51180000Y-65150000D02*
X51180000Y-67050000D01*
X51180000Y-67050000D02*
X47820000Y-67050000D01*
%TO.C,C16*%
X114030000Y-46000000D02*
X114030000Y-49400000D01*
X112070000Y-46000000D02*
X114030000Y-46000000D01*
X114030000Y-49400000D02*
X112070000Y-49400000D01*
X112070000Y-49400000D02*
X112070000Y-46000000D01*
%TO.C,R14*%
X159620000Y-48120000D02*
X159620000Y-51480000D01*
X157720000Y-48120000D02*
X159620000Y-48120000D01*
X159620000Y-51480000D02*
X157720000Y-51480000D01*
X157720000Y-51480000D02*
X157720000Y-48120000D01*
%TO.C,H3*%
X170600000Y-23000000D02*
G75*
G03*
X170600000Y-23000000I-2600000J0D01*
G01*
%TO.C,D6*%
X51180000Y-70950000D02*
X47820000Y-70950000D01*
X51180000Y-69050000D02*
X51180000Y-70950000D01*
X47820000Y-70950000D02*
X47820000Y-69050000D01*
X47820000Y-69050000D02*
X51180000Y-69050000D01*
%TO.C,C14*%
X103900000Y-41480000D02*
X100500000Y-41480000D01*
X103900000Y-39520000D02*
X103900000Y-41480000D01*
X100500000Y-41480000D02*
X100500000Y-39520000D01*
X100500000Y-39520000D02*
X103900000Y-39520000D01*
%TO.C,L2*%
X79660000Y-50160000D02*
X79660000Y-53120000D01*
X78200000Y-50160000D02*
X79660000Y-50160000D01*
X79660000Y-53120000D02*
X78200000Y-53120000D01*
X78200000Y-53120000D02*
X78200000Y-50160000D01*
%TO.C,TP2*%
X152730000Y-24440000D02*
X152730000Y-27440000D01*
X152730000Y-24440000D02*
X155730000Y-24440000D01*
X155730000Y-27440000D02*
X152730000Y-27440000D01*
X155730000Y-27440000D02*
X155730000Y-24440000D01*
%TO.C,R2*%
X43650000Y-45780000D02*
X43650000Y-49140000D01*
X41750000Y-45780000D02*
X43650000Y-45780000D01*
X43650000Y-49140000D02*
X41750000Y-49140000D01*
X41750000Y-49140000D02*
X41750000Y-45780000D01*
%TO.C,U1*%
X87060000Y-53950000D02*
X89860000Y-53950000D01*
X87060000Y-53950000D02*
X87060000Y-50750000D01*
X89860000Y-53950000D02*
X89860000Y-50750000D01*
X89860000Y-50750000D02*
X87060000Y-50750000D01*
%TO.C,SW2*%
X133750000Y-26300000D02*
X133750000Y-41700000D01*
X133750000Y-26300000D02*
X151250000Y-26300000D01*
X151250000Y-41700000D02*
X133750000Y-41700000D01*
X151250000Y-41700000D02*
X151250000Y-26300000D01*
%TO.C,SW9*%
X97000000Y-112750000D02*
X97000000Y-125250000D01*
X97000000Y-125250000D02*
X113000000Y-125250000D01*
X113000000Y-112750000D02*
X97000000Y-112750000D01*
X113000000Y-125250000D02*
X113000000Y-112750000D01*
%TO.C,U7*%
X50800000Y-61900600D02*
X48000000Y-61900600D01*
X50800000Y-61900600D02*
X50800000Y-65100600D01*
X48000000Y-61900600D02*
X48000000Y-65100600D01*
X48000000Y-65100600D02*
X50800000Y-65100600D01*
%TO.C,C20*%
X109620000Y-51100000D02*
X109620000Y-54500000D01*
X107660000Y-51100000D02*
X109620000Y-51100000D01*
X109620000Y-54500000D02*
X107660000Y-54500000D01*
X107660000Y-54500000D02*
X107660000Y-51100000D01*
%TO.C,C26*%
X118400000Y-51520000D02*
X121800000Y-51520000D01*
X118400000Y-53480000D02*
X118400000Y-51520000D01*
X121800000Y-51520000D02*
X121800000Y-53480000D01*
X121800000Y-53480000D02*
X118400000Y-53480000D01*
%TO.C,C31*%
X159690000Y-51520000D02*
X159690000Y-48120000D01*
X161650000Y-51520000D02*
X159690000Y-51520000D01*
X159690000Y-48120000D02*
X161650000Y-48120000D01*
X161650000Y-48120000D02*
X161650000Y-51520000D01*
%TO.C,L5*%
X168150000Y-46640000D02*
X161650000Y-46640000D01*
X161650000Y-46640000D02*
X161650000Y-53640000D01*
X168150000Y-53640000D02*
X168150000Y-46640000D01*
X161650000Y-53640000D02*
X168150000Y-53640000D01*
%TO.C,C12*%
X102430000Y-43510000D02*
X99030000Y-43510000D01*
X102430000Y-41550000D02*
X102430000Y-43510000D01*
X99030000Y-43510000D02*
X99030000Y-41550000D01*
X99030000Y-41550000D02*
X102430000Y-41550000D01*
%TO.C,J14*%
X141120000Y-60510000D02*
X149620000Y-60510000D01*
X149620000Y-60510000D02*
X149620000Y-47110000D01*
X141120000Y-47110000D02*
X141120000Y-60510000D01*
X149620000Y-47110000D02*
X141120000Y-47110000D01*
%TO.C,L3*%
X81120000Y-50160000D02*
X81120000Y-53120000D01*
X79660000Y-50160000D02*
X81120000Y-50160000D01*
X81120000Y-53120000D02*
X79660000Y-53120000D01*
X79660000Y-53120000D02*
X79660000Y-50160000D01*
%TO.C,J1*%
X96244500Y-32450000D02*
X96244500Y-19750000D01*
X96244500Y-19750000D02*
X93244500Y-19750000D01*
X93244500Y-19750000D02*
X93244500Y-17950000D01*
X93244500Y-17950000D02*
X86744500Y-17950000D01*
X86744500Y-19750000D02*
X83744500Y-19750000D01*
X86744500Y-17950000D02*
X86744500Y-19750000D01*
X83744500Y-32450000D02*
X96244500Y-32450000D01*
X83744500Y-20000000D02*
X83744500Y-32450000D01*
X83744500Y-19750000D02*
X83744500Y-20000000D01*
%TD*%
M02*
