%TF.GenerationSoftware,KiCad,Pcbnew,7.0.9-7.0.9~ubuntu23.04.1*%
%TF.CreationDate,2023-11-29T20:55:24+00:00*%
%TF.ProjectId,pedalboard-hw,70656461-6c62-46f6-9172-642d68772e6b,3.0.2-RC*%
%TF.SameCoordinates,Original*%
%TF.FileFunction,Other,User*%
%FSLAX46Y46*%
G04 Gerber Fmt 4.6, Leading zero omitted, Abs format (unit mm)*
G04 Created by KiCad (PCBNEW 7.0.9-7.0.9~ubuntu23.04.1) date 2023-11-29 20:55:24*
%MOMM*%
%LPD*%
G01*
G04 APERTURE LIST*
%ADD10C,0.050000*%
%ADD11C,0.120000*%
G04 APERTURE END LIST*
D10*
%TO.C,TP3*%
X159510000Y-60480000D02*
X159510000Y-63480000D01*
X159510000Y-60480000D02*
X162510000Y-60480000D01*
X162510000Y-63480000D02*
X159510000Y-63480000D01*
X162510000Y-63480000D02*
X162510000Y-60480000D01*
%TO.C,C28*%
X140700000Y-43270000D02*
X144100000Y-43270000D01*
X140700000Y-45230000D02*
X140700000Y-43270000D01*
X144100000Y-43270000D02*
X144100000Y-45230000D01*
X144100000Y-45230000D02*
X140700000Y-45230000D01*
%TO.C,C27*%
X114050000Y-43270000D02*
X117450000Y-43270000D01*
X114050000Y-45230000D02*
X114050000Y-43270000D01*
X117450000Y-43270000D02*
X117450000Y-45230000D01*
X117450000Y-45230000D02*
X114050000Y-45230000D01*
%TO.C,H7*%
X170600000Y-121500000D02*
G75*
G03*
X170600000Y-121500000I-2600000J0D01*
G01*
%TO.C,FID1*%
X26750000Y-23000000D02*
G75*
G03*
X26750000Y-23000000I-1750000J0D01*
G01*
%TO.C,R9*%
X96460000Y-43510000D02*
X99820000Y-43510000D01*
X96460000Y-45410000D02*
X96460000Y-43510000D01*
X99820000Y-43510000D02*
X99820000Y-45410000D01*
X99820000Y-45410000D02*
X96460000Y-45410000D01*
%TO.C,J3*%
X126250000Y-32450000D02*
X126250000Y-19750000D01*
X126250000Y-19750000D02*
X123250000Y-19750000D01*
X123250000Y-19750000D02*
X123250000Y-17950000D01*
X123250000Y-17950000D02*
X116750000Y-17950000D01*
X116750000Y-19750000D02*
X113750000Y-19750000D01*
X116750000Y-17950000D02*
X116750000Y-19750000D01*
X113750000Y-32450000D02*
X126250000Y-32450000D01*
X113750000Y-20000000D02*
X113750000Y-32450000D01*
X113750000Y-19750000D02*
X113750000Y-20000000D01*
%TO.C,C22*%
X98460000Y-41550000D02*
X98460000Y-38150000D01*
X100420000Y-41550000D02*
X98460000Y-41550000D01*
X98460000Y-38150000D02*
X100420000Y-38150000D01*
X100420000Y-38150000D02*
X100420000Y-41550000D01*
%TO.C,C34*%
X154860000Y-48860000D02*
X154860000Y-45460000D01*
X156820000Y-48860000D02*
X154860000Y-48860000D01*
X154860000Y-45460000D02*
X156820000Y-45460000D01*
X156820000Y-45460000D02*
X156820000Y-48860000D01*
%TO.C,FID2*%
X191750000Y-29000000D02*
G75*
G03*
X191750000Y-29000000I-1750000J0D01*
G01*
%TO.C,TP2*%
X151720000Y-31430000D02*
X151720000Y-34430000D01*
X151720000Y-31430000D02*
X154720000Y-31430000D01*
X154720000Y-34430000D02*
X151720000Y-34430000D01*
X154720000Y-34430000D02*
X154720000Y-31430000D01*
%TO.C,D5*%
X141650000Y-53450000D02*
X141650000Y-60450000D01*
X138150000Y-53450000D02*
X141650000Y-53450000D01*
X141650000Y-60450000D02*
X138150000Y-60450000D01*
X138150000Y-60450000D02*
X138150000Y-53450000D01*
%TO.C,R7*%
X93257500Y-54900000D02*
X96617500Y-54900000D01*
X93257500Y-56800000D02*
X93257500Y-54900000D01*
X96617500Y-54900000D02*
X96617500Y-56800000D01*
X96617500Y-56800000D02*
X93257500Y-56800000D01*
%TO.C,J9*%
X41730000Y-31770000D02*
X41730000Y-52000000D01*
X41730000Y-31770000D02*
X14200000Y-31770000D01*
X14200000Y-52000000D02*
X41730000Y-52000000D01*
X14200000Y-31770000D02*
X14200000Y-52000000D01*
%TO.C,J17*%
X41730000Y-92970000D02*
X41730000Y-113200000D01*
X41730000Y-92970000D02*
X14200000Y-92970000D01*
X14200000Y-113200000D02*
X41730000Y-113200000D01*
X14200000Y-92970000D02*
X14200000Y-113200000D01*
%TO.C,C38*%
X156930000Y-57320000D02*
X156930000Y-53920000D01*
X158890000Y-57320000D02*
X156930000Y-57320000D01*
X156930000Y-53920000D02*
X158890000Y-53920000D01*
X158890000Y-53920000D02*
X158890000Y-57320000D01*
%TO.C,J7*%
X184400000Y-31800000D02*
X184400000Y-16300000D01*
X184400000Y-16300000D02*
X174400000Y-16300000D01*
X174400000Y-31800000D02*
X184400000Y-31800000D01*
X174400000Y-29900000D02*
X174400000Y-31800000D01*
X174400000Y-16300000D02*
X174400000Y-24900000D01*
X173200000Y-29900000D02*
X174400000Y-29900000D01*
X173200000Y-29900000D02*
X173200000Y-24900000D01*
X173200000Y-24900000D02*
X174400000Y-24900000D01*
%TO.C,U5*%
X138050000Y-60450000D02*
X138050000Y-53250000D01*
X138050000Y-53250000D02*
X129250000Y-53250000D01*
X129250000Y-60450000D02*
X138050000Y-60450000D01*
X129250000Y-53250000D02*
X129250000Y-60450000D01*
%TO.C,J6*%
X172790000Y-31210000D02*
X183600000Y-31210000D01*
X183600000Y-31210000D02*
X183600000Y-20210000D01*
X172790000Y-20210000D02*
X172790000Y-31210000D01*
X183600000Y-20210000D02*
X172790000Y-20210000D01*
%TO.C,C24*%
X133790000Y-53200000D02*
X130390000Y-53200000D01*
X133790000Y-51240000D02*
X133790000Y-53200000D01*
X130390000Y-53200000D02*
X130390000Y-51240000D01*
X130390000Y-51240000D02*
X133790000Y-51240000D01*
%TO.C,J8*%
X27500000Y-54500000D02*
X27500000Y-59500000D01*
X27500000Y-59500000D02*
X32500000Y-59500000D01*
X32500000Y-54500000D02*
X27500000Y-54500000D01*
X32500000Y-59500000D02*
X32500000Y-54500000D01*
%TO.C,R8*%
X96460000Y-45410000D02*
X99820000Y-45410000D01*
X96460000Y-47310000D02*
X96460000Y-45410000D01*
X99820000Y-45410000D02*
X99820000Y-47310000D01*
X99820000Y-47310000D02*
X96460000Y-47310000D01*
%TO.C,C14*%
X96587500Y-54830000D02*
X93187500Y-54830000D01*
X96587500Y-52870000D02*
X96587500Y-54830000D01*
X93187500Y-54830000D02*
X93187500Y-52870000D01*
X93187500Y-52870000D02*
X96587500Y-52870000D01*
%TO.C,JP3*%
X47900000Y-101400000D02*
X47900000Y-103900000D01*
X47900000Y-101400000D02*
X51200000Y-101400000D01*
X51200000Y-103900000D02*
X47900000Y-103900000D01*
X51200000Y-103900000D02*
X51200000Y-101400000D01*
%TO.C,D4*%
X114050000Y-45250000D02*
X114050000Y-50750000D01*
X114050000Y-50750000D02*
X120950000Y-50750000D01*
X120950000Y-45250000D02*
X114050000Y-45250000D01*
X120950000Y-50750000D02*
X120950000Y-45250000D01*
%TO.C,C37*%
X151860000Y-59530000D02*
X151860000Y-50730000D01*
X156660000Y-59530000D02*
X151860000Y-59530000D01*
X151860000Y-50730000D02*
X156660000Y-50730000D01*
X156660000Y-50730000D02*
X156660000Y-59530000D01*
%TO.C,R10*%
X93257500Y-50900000D02*
X96617500Y-50900000D01*
X93257500Y-52800000D02*
X93257500Y-50900000D01*
X96617500Y-50900000D02*
X96617500Y-52800000D01*
X96617500Y-52800000D02*
X93257500Y-52800000D01*
%TO.C,J18*%
X41730000Y-72770000D02*
X41730000Y-93000000D01*
X41730000Y-72770000D02*
X14200000Y-72770000D01*
X14200000Y-93000000D02*
X41730000Y-93000000D01*
X14200000Y-72770000D02*
X14200000Y-93000000D01*
%TO.C,J20*%
X168270000Y-113225000D02*
X168270000Y-92995000D01*
X168270000Y-113225000D02*
X195800000Y-113225000D01*
X195800000Y-92995000D02*
X168270000Y-92995000D01*
X195800000Y-113225000D02*
X195800000Y-92995000D01*
%TO.C,J12*%
X124060000Y-46100000D02*
X132710000Y-46100000D01*
X132710000Y-46100000D02*
X132710000Y-42500000D01*
X124060000Y-42500000D02*
X124060000Y-46100000D01*
X132710000Y-42500000D02*
X124060000Y-42500000D01*
%TO.C,C32*%
X157940000Y-46130000D02*
X161340000Y-46130000D01*
X157940000Y-48090000D02*
X157940000Y-46130000D01*
X161340000Y-46130000D02*
X161340000Y-48090000D01*
X161340000Y-48090000D02*
X157940000Y-48090000D01*
%TO.C,D6*%
X139050000Y-45250000D02*
X139050000Y-50750000D01*
X139050000Y-50750000D02*
X145950000Y-50750000D01*
X145950000Y-45250000D02*
X139050000Y-45250000D01*
X145950000Y-50750000D02*
X145950000Y-45250000D01*
%TO.C,H6*%
X121580000Y-121520000D02*
G75*
G03*
X121580000Y-121520000I-2600000J0D01*
G01*
%TO.C,R14*%
X154880000Y-45450000D02*
X154880000Y-42090000D01*
X156780000Y-45450000D02*
X154880000Y-45450000D01*
X154880000Y-42090000D02*
X156780000Y-42090000D01*
X156780000Y-42090000D02*
X156780000Y-45450000D01*
%TO.C,J22*%
X182500000Y-131500000D02*
X182500000Y-126500000D01*
X182500000Y-126500000D02*
X177500000Y-126500000D01*
X177500000Y-131500000D02*
X182500000Y-131500000D01*
X177500000Y-126500000D02*
X177500000Y-131500000D01*
%TO.C,J21*%
X32500000Y-131500000D02*
X32500000Y-126500000D01*
X32500000Y-126500000D02*
X27500000Y-126500000D01*
X27500000Y-131500000D02*
X32500000Y-131500000D01*
X27500000Y-126500000D02*
X27500000Y-131500000D01*
%TO.C,SW4*%
X97000000Y-60750000D02*
X97000000Y-73250000D01*
X97000000Y-73250000D02*
X113000000Y-73250000D01*
X113000000Y-60750000D02*
X97000000Y-60750000D01*
X113000000Y-73250000D02*
X113000000Y-60750000D01*
%TO.C,FID4*%
X186750000Y-128000000D02*
G75*
G03*
X186750000Y-128000000I-1750000J0D01*
G01*
%TO.C,C3*%
X153440000Y-31370000D02*
X153440000Y-27970000D01*
X155400000Y-31370000D02*
X153440000Y-31370000D01*
X153440000Y-27970000D02*
X155400000Y-27970000D01*
X155400000Y-27970000D02*
X155400000Y-31370000D01*
%TO.C,C35*%
X162890000Y-57320000D02*
X162890000Y-53920000D01*
X164850000Y-57320000D02*
X162890000Y-57320000D01*
X162890000Y-53920000D02*
X164850000Y-53920000D01*
X164850000Y-53920000D02*
X164850000Y-57320000D01*
%TO.C,J14*%
X107500000Y-79500000D02*
X107500000Y-74500000D01*
X107500000Y-74500000D02*
X102500000Y-74500000D01*
X102500000Y-79500000D02*
X107500000Y-79500000D01*
X102500000Y-74500000D02*
X102500000Y-79500000D01*
%TO.C,R6*%
X78505000Y-48600000D02*
X75145000Y-48600000D01*
X78505000Y-46700000D02*
X78505000Y-48600000D01*
X75145000Y-48600000D02*
X75145000Y-46700000D01*
X75145000Y-46700000D02*
X78505000Y-46700000D01*
%TO.C,J10*%
X84740000Y-58020000D02*
X84740000Y-54120000D01*
X84740000Y-54120000D02*
X75740000Y-54120000D01*
X75740000Y-58020000D02*
X84740000Y-58020000D01*
X75740000Y-54120000D02*
X75740000Y-58020000D01*
%TO.C,R12*%
X162260000Y-45810000D02*
X162260000Y-42450000D01*
X164160000Y-45810000D02*
X162260000Y-45810000D01*
X162260000Y-42450000D02*
X164160000Y-42450000D01*
X164160000Y-42450000D02*
X164160000Y-45810000D01*
%TO.C,H1*%
X44600000Y-23000000D02*
G75*
G03*
X44600000Y-23000000I-2600000J0D01*
G01*
%TO.C,C30*%
X160910000Y-57320000D02*
X160910000Y-53920000D01*
X162870000Y-57320000D02*
X160910000Y-57320000D01*
X160910000Y-53920000D02*
X162870000Y-53920000D01*
X162870000Y-53920000D02*
X162870000Y-57320000D01*
%TO.C,J5*%
X168285000Y-52030000D02*
X168285000Y-31800000D01*
X168285000Y-52030000D02*
X195815000Y-52030000D01*
X195815000Y-31800000D02*
X168285000Y-31800000D01*
X195815000Y-52030000D02*
X195815000Y-31800000D01*
%TO.C,C1*%
X49800000Y-27080000D02*
X46400000Y-27080000D01*
X49800000Y-25120000D02*
X49800000Y-27080000D01*
X46400000Y-27080000D02*
X46400000Y-25120000D01*
X46400000Y-25120000D02*
X49800000Y-25120000D01*
%TO.C,C36*%
X162230000Y-42420000D02*
X162230000Y-39020000D01*
X164190000Y-42420000D02*
X162230000Y-42420000D01*
X162230000Y-39020000D02*
X164190000Y-39020000D01*
X164190000Y-39020000D02*
X164190000Y-42420000D01*
%TO.C,H4*%
X170600000Y-63500000D02*
G75*
G03*
X170600000Y-63500000I-2600000J0D01*
G01*
%TO.C,C39*%
X156820000Y-38670000D02*
X156820000Y-42070000D01*
X154860000Y-38670000D02*
X156820000Y-38670000D01*
X156820000Y-42070000D02*
X154860000Y-42070000D01*
X154860000Y-42070000D02*
X154860000Y-38670000D01*
%TO.C,SW1*%
X58750000Y-26300000D02*
X58750000Y-41700000D01*
X58750000Y-26300000D02*
X76250000Y-26300000D01*
X76250000Y-41700000D02*
X58750000Y-41700000D01*
X76250000Y-41700000D02*
X76250000Y-26300000D01*
%TO.C,C4*%
X159500000Y-36670000D02*
X156100000Y-36670000D01*
X159500000Y-34710000D02*
X159500000Y-36670000D01*
X156100000Y-36670000D02*
X156100000Y-34710000D01*
X156100000Y-34710000D02*
X159500000Y-34710000D01*
%TO.C,C11*%
X64030000Y-45250000D02*
X64030000Y-48650000D01*
X62070000Y-45250000D02*
X64030000Y-45250000D01*
X64030000Y-48650000D02*
X62070000Y-48650000D01*
X62070000Y-48650000D02*
X62070000Y-45250000D01*
%TO.C,U6*%
X162220000Y-38700000D02*
X156820000Y-38700000D01*
X156820000Y-38700000D02*
X156820000Y-46100000D01*
X162220000Y-46100000D02*
X162220000Y-38700000D01*
X156820000Y-46100000D02*
X162220000Y-46100000D01*
%TO.C,D3*%
X89050000Y-45250000D02*
X89050000Y-50750000D01*
X89050000Y-50750000D02*
X95950000Y-50750000D01*
X95950000Y-45250000D02*
X89050000Y-45250000D01*
X95950000Y-50750000D02*
X95950000Y-45250000D01*
%TO.C,J13*%
X177500000Y-54500000D02*
X177500000Y-59500000D01*
X177500000Y-59500000D02*
X182500000Y-59500000D01*
X182500000Y-54500000D02*
X177500000Y-54500000D01*
X182500000Y-59500000D02*
X182500000Y-54500000D01*
%TO.C,C18*%
X94160000Y-44950000D02*
X94160000Y-41550000D01*
X96120000Y-44950000D02*
X94160000Y-44950000D01*
X94160000Y-41550000D02*
X96120000Y-41550000D01*
X96120000Y-41550000D02*
X96120000Y-44950000D01*
%TO.C,R1*%
X41950000Y-26920000D02*
X41950000Y-30280000D01*
X40050000Y-26920000D02*
X41950000Y-26920000D01*
X41950000Y-30280000D02*
X40050000Y-30280000D01*
X40050000Y-30280000D02*
X40050000Y-26920000D01*
%TO.C,D2*%
X64050000Y-45250000D02*
X64050000Y-50750000D01*
X64050000Y-50750000D02*
X70950000Y-50750000D01*
X70950000Y-45250000D02*
X64050000Y-45250000D01*
X70950000Y-50750000D02*
X70950000Y-45250000D01*
%TO.C,C12*%
X88980000Y-45250000D02*
X88980000Y-48650000D01*
X87020000Y-45250000D02*
X88980000Y-45250000D01*
X88980000Y-48650000D02*
X87020000Y-48650000D01*
X87020000Y-48650000D02*
X87020000Y-45250000D01*
%TO.C,C20*%
X104430000Y-51000000D02*
X104430000Y-54400000D01*
X102470000Y-51000000D02*
X104430000Y-51000000D01*
X104430000Y-54400000D02*
X102470000Y-54400000D01*
X102470000Y-54400000D02*
X102470000Y-51000000D01*
%TO.C,R11*%
X115020000Y-51550000D02*
X118380000Y-51550000D01*
X115020000Y-53450000D02*
X115020000Y-51550000D01*
X118380000Y-51550000D02*
X118380000Y-53450000D01*
X118380000Y-53450000D02*
X115020000Y-53450000D01*
%TO.C,C8*%
X159530000Y-32750000D02*
X162930000Y-32750000D01*
X159530000Y-34710000D02*
X159530000Y-32750000D01*
X162930000Y-32750000D02*
X162930000Y-34710000D01*
X162930000Y-34710000D02*
X159530000Y-34710000D01*
%TO.C,J15*%
X109025000Y-79500000D02*
X100375000Y-79500000D01*
X100375000Y-79500000D02*
X100375000Y-83100000D01*
X109025000Y-83100000D02*
X109025000Y-79500000D01*
X100375000Y-83100000D02*
X109025000Y-83100000D01*
%TO.C,C9*%
X166530000Y-31710000D02*
X163130000Y-31710000D01*
X166530000Y-29750000D02*
X166530000Y-31710000D01*
X163130000Y-31710000D02*
X163130000Y-29750000D01*
X163130000Y-29750000D02*
X166530000Y-29750000D01*
%TO.C,J16*%
X168270000Y-93010000D02*
X168270000Y-72780000D01*
X168270000Y-93010000D02*
X195800000Y-93010000D01*
X195800000Y-72780000D02*
X168270000Y-72780000D01*
X195800000Y-93010000D02*
X195800000Y-72780000D01*
%TO.C,C10*%
X163190000Y-25730000D02*
X163190000Y-22330000D01*
X165150000Y-25730000D02*
X163190000Y-25730000D01*
X163190000Y-22330000D02*
X165150000Y-22330000D01*
X165150000Y-22330000D02*
X165150000Y-25730000D01*
%TO.C,C33*%
X158940000Y-57300000D02*
X158940000Y-53900000D01*
X160900000Y-57300000D02*
X158940000Y-57300000D01*
X158940000Y-53900000D02*
X160900000Y-53900000D01*
X160900000Y-53900000D02*
X160900000Y-57300000D01*
%TO.C,JP4*%
X167650000Y-116650000D02*
X170150000Y-116650000D01*
X167650000Y-116650000D02*
X167650000Y-113350000D01*
X170150000Y-113350000D02*
X170150000Y-116650000D01*
X170150000Y-113350000D02*
X167650000Y-113350000D01*
%TO.C,SW3*%
X22000000Y-60750000D02*
X22000000Y-73250000D01*
X22000000Y-73250000D02*
X38000000Y-73250000D01*
X38000000Y-60750000D02*
X22000000Y-60750000D01*
X38000000Y-73250000D02*
X38000000Y-60750000D01*
%TO.C,J11*%
X86800000Y-55800000D02*
X92950000Y-55800000D01*
X92950000Y-55800000D02*
X92950000Y-52200000D01*
X86800000Y-52200000D02*
X86800000Y-55800000D01*
X92950000Y-52200000D02*
X86800000Y-52200000D01*
%TO.C,U1*%
X45750000Y-30230000D02*
X45750000Y-34570000D01*
X45750000Y-34570000D02*
X57050000Y-34570000D01*
X57050000Y-30230000D02*
X45750000Y-30230000D01*
X57050000Y-34570000D02*
X57050000Y-30230000D01*
%TO.C,R3*%
X57580000Y-36562500D02*
X54220000Y-36562500D01*
X57580000Y-34662500D02*
X57580000Y-36562500D01*
X54220000Y-36562500D02*
X54220000Y-34662500D01*
X54220000Y-34662500D02*
X57580000Y-34662500D01*
%TO.C,R16*%
X47870000Y-71000000D02*
X51230000Y-71000000D01*
X47870000Y-72900000D02*
X47870000Y-71000000D01*
X51230000Y-71000000D02*
X51230000Y-72900000D01*
X51230000Y-72900000D02*
X47870000Y-72900000D01*
%TO.C,JP2*%
X95550000Y-77150000D02*
X98050000Y-77150000D01*
X95550000Y-77150000D02*
X95550000Y-73850000D01*
X98050000Y-73850000D02*
X98050000Y-77150000D01*
X98050000Y-73850000D02*
X95550000Y-73850000D01*
%TO.C,JP1*%
X93050000Y-77150000D02*
X95550000Y-77150000D01*
X93050000Y-77150000D02*
X93050000Y-73850000D01*
X95550000Y-73850000D02*
X95550000Y-77150000D01*
X95550000Y-73850000D02*
X93050000Y-73850000D01*
%TO.C,U4*%
X103280000Y-49720000D02*
X111520000Y-49720000D01*
X111520000Y-49720000D02*
X111520000Y-41480000D01*
X103280000Y-41480000D02*
X103280000Y-49720000D01*
X111520000Y-41480000D02*
X103280000Y-41480000D01*
%TO.C,D9*%
X51180000Y-68950000D02*
X47820000Y-68950000D01*
X51180000Y-67050000D02*
X51180000Y-68950000D01*
X47820000Y-68950000D02*
X47820000Y-67050000D01*
X47820000Y-67050000D02*
X51180000Y-67050000D01*
%TO.C,C29*%
X139300000Y-51470000D02*
X142700000Y-51470000D01*
X139300000Y-53430000D02*
X139300000Y-51470000D01*
X142700000Y-51470000D02*
X142700000Y-53430000D01*
X142700000Y-53430000D02*
X139300000Y-53430000D01*
%TO.C,C2*%
X159510000Y-34730000D02*
X162910000Y-34730000D01*
X159510000Y-36690000D02*
X159510000Y-34730000D01*
X162910000Y-34730000D02*
X162910000Y-36690000D01*
X162910000Y-36690000D02*
X159510000Y-36690000D01*
%TO.C,J19*%
X102500000Y-106500000D02*
X102500000Y-111500000D01*
X102500000Y-111500000D02*
X107500000Y-111500000D01*
X107500000Y-106500000D02*
X102500000Y-106500000D01*
X107500000Y-111500000D02*
X107500000Y-106500000D01*
%TO.C,D7*%
X145180000Y-53450000D02*
X145180000Y-60450000D01*
X141680000Y-53450000D02*
X145180000Y-53450000D01*
X145180000Y-60450000D02*
X141680000Y-60450000D01*
X141680000Y-60450000D02*
X141680000Y-53450000D01*
%TO.C,R13*%
X152960000Y-48810000D02*
X152960000Y-45450000D01*
X154860000Y-48810000D02*
X152960000Y-48810000D01*
X152960000Y-45450000D02*
X154860000Y-45450000D01*
X154860000Y-45450000D02*
X154860000Y-48810000D01*
%TO.C,C19*%
X106750000Y-37970000D02*
X110150000Y-37970000D01*
X106750000Y-39930000D02*
X106750000Y-37970000D01*
X110150000Y-37970000D02*
X110150000Y-39930000D01*
X110150000Y-39930000D02*
X106750000Y-39930000D01*
%TO.C,R2*%
X54220000Y-36600000D02*
X57580000Y-36600000D01*
X54220000Y-38500000D02*
X54220000Y-36600000D01*
X57580000Y-36600000D02*
X57580000Y-38500000D01*
X57580000Y-38500000D02*
X54220000Y-38500000D01*
%TO.C,L2*%
X41970000Y-29980000D02*
X41970000Y-27020000D01*
X43430000Y-29980000D02*
X41970000Y-29980000D01*
X41970000Y-27020000D02*
X43430000Y-27020000D01*
X43430000Y-27020000D02*
X43430000Y-29980000D01*
%TO.C,D1*%
X45750000Y-30200000D02*
X43450000Y-30200000D01*
X45750000Y-30200000D02*
X45750000Y-34600000D01*
X45750000Y-34600000D02*
X43450000Y-34600000D01*
X43450000Y-34600000D02*
X43450000Y-30200000D01*
%TO.C,C25*%
X117450000Y-43220000D02*
X120850000Y-43220000D01*
X117450000Y-45180000D02*
X117450000Y-43220000D01*
X120850000Y-43220000D02*
X120850000Y-45180000D01*
X120850000Y-45180000D02*
X117450000Y-45180000D01*
%TO.C,C21*%
X103890000Y-39520000D02*
X100490000Y-39520000D01*
X103890000Y-37560000D02*
X103890000Y-39520000D01*
X100490000Y-39520000D02*
X100490000Y-37560000D01*
X100490000Y-37560000D02*
X103890000Y-37560000D01*
%TO.C,R4*%
X169420000Y-29880000D02*
X172780000Y-29880000D01*
X169420000Y-31780000D02*
X169420000Y-29880000D01*
X172780000Y-29880000D02*
X172780000Y-31780000D01*
X172780000Y-31780000D02*
X169420000Y-31780000D01*
%TO.C,L4*%
X43430000Y-30270000D02*
X43430000Y-33230000D01*
X41970000Y-30270000D02*
X43430000Y-30270000D01*
X43430000Y-33230000D02*
X41970000Y-33230000D01*
X41970000Y-33230000D02*
X41970000Y-30270000D01*
%TO.C,C23*%
X114900000Y-53480000D02*
X111500000Y-53480000D01*
X114900000Y-51520000D02*
X114900000Y-53480000D01*
X111500000Y-53480000D02*
X111500000Y-51520000D01*
X111500000Y-51520000D02*
X114900000Y-51520000D01*
%TO.C,F1*%
X169020000Y-29660000D02*
X163120000Y-29660000D01*
X169020000Y-25760000D02*
X169020000Y-29660000D01*
X163120000Y-29660000D02*
X163120000Y-25760000D01*
X163120000Y-25760000D02*
X169020000Y-25760000D01*
%TO.C,H5*%
X121500000Y-63565600D02*
G75*
G03*
X121500000Y-63565600I-2600000J0D01*
G01*
%TO.C,Y1*%
X111200000Y-53500000D02*
X111200000Y-58700000D01*
X111200000Y-58700000D02*
X124800000Y-58700000D01*
X124800000Y-53500000D02*
X111200000Y-53500000D01*
X124800000Y-58700000D02*
X124800000Y-53500000D01*
%TO.C,SW8*%
X172000000Y-112750000D02*
X172000000Y-125250000D01*
X172000000Y-125250000D02*
X188000000Y-125250000D01*
X188000000Y-112750000D02*
X172000000Y-112750000D01*
X188000000Y-125250000D02*
X188000000Y-112750000D01*
%TO.C,U3*%
X96640000Y-57100000D02*
X102360000Y-57100000D01*
X102360000Y-57100000D02*
X102360000Y-47800000D01*
X96640000Y-47800000D02*
X96640000Y-57100000D01*
X102360000Y-47800000D02*
X96640000Y-47800000D01*
D11*
%TO.C,CM1*%
X91350000Y-96400000D02*
X87570000Y-96400000D01*
X91350000Y-73600000D02*
X91350000Y-96400000D01*
X87570000Y-96400000D02*
X87570000Y-73600000D01*
X87570000Y-73600000D02*
X91350000Y-73600000D01*
X57430000Y-96400000D02*
X53650000Y-96400000D01*
X57430000Y-73600000D02*
X57430000Y-96400000D01*
X53650000Y-96400000D02*
X53650000Y-73600000D01*
X53650000Y-73600000D02*
X57430000Y-73600000D01*
D10*
%TO.C,FID3*%
X26250000Y-128500000D02*
G75*
G03*
X26250000Y-128500000I-1750000J0D01*
G01*
%TO.C,SW5*%
X172000000Y-60750000D02*
X172000000Y-73250000D01*
X172000000Y-73250000D02*
X188000000Y-73250000D01*
X188000000Y-60750000D02*
X172000000Y-60750000D01*
X188000000Y-73250000D02*
X188000000Y-60750000D01*
%TO.C,C7*%
X159490000Y-38650000D02*
X156090000Y-38650000D01*
X159490000Y-36690000D02*
X159490000Y-38650000D01*
X156090000Y-38650000D02*
X156090000Y-36690000D01*
X156090000Y-36690000D02*
X159490000Y-36690000D01*
%TO.C,C6*%
X159520000Y-34710000D02*
X156120000Y-34710000D01*
X159520000Y-32750000D02*
X159520000Y-34710000D01*
X156120000Y-34710000D02*
X156120000Y-32750000D01*
X156120000Y-32750000D02*
X159520000Y-32750000D01*
%TO.C,SW6*%
X22000000Y-112750000D02*
X22000000Y-125250000D01*
X22000000Y-125250000D02*
X38000000Y-125250000D01*
X38000000Y-112750000D02*
X22000000Y-112750000D01*
X38000000Y-125250000D02*
X38000000Y-112750000D01*
%TO.C,C5*%
X159500000Y-36700000D02*
X162900000Y-36700000D01*
X159500000Y-38660000D02*
X159500000Y-36700000D01*
X162900000Y-36700000D02*
X162900000Y-38660000D01*
X162900000Y-38660000D02*
X159500000Y-38660000D01*
%TO.C,R17*%
X47820000Y-65150000D02*
X51180000Y-65150000D01*
X47820000Y-67050000D02*
X47820000Y-65150000D01*
X51180000Y-65150000D02*
X51180000Y-67050000D01*
X51180000Y-67050000D02*
X47820000Y-67050000D01*
%TO.C,C16*%
X114030000Y-46000000D02*
X114030000Y-49400000D01*
X112070000Y-46000000D02*
X114030000Y-46000000D01*
X114030000Y-49400000D02*
X112070000Y-49400000D01*
X112070000Y-49400000D02*
X112070000Y-46000000D01*
%TO.C,R15*%
X159620000Y-48120000D02*
X159620000Y-51480000D01*
X157720000Y-48120000D02*
X159620000Y-48120000D01*
X159620000Y-51480000D02*
X157720000Y-51480000D01*
X157720000Y-51480000D02*
X157720000Y-48120000D01*
%TO.C,H3*%
X170600000Y-23000000D02*
G75*
G03*
X170600000Y-23000000I-2600000J0D01*
G01*
%TO.C,D8*%
X51180000Y-70950000D02*
X47820000Y-70950000D01*
X51180000Y-69050000D02*
X51180000Y-70950000D01*
X47820000Y-70950000D02*
X47820000Y-69050000D01*
X47820000Y-69050000D02*
X51180000Y-69050000D01*
%TO.C,C15*%
X103900000Y-41480000D02*
X100500000Y-41480000D01*
X103900000Y-39520000D02*
X103900000Y-41480000D01*
X100500000Y-41480000D02*
X100500000Y-39520000D01*
X100500000Y-39520000D02*
X103900000Y-39520000D01*
%TO.C,L3*%
X51220000Y-36820000D02*
X54180000Y-36820000D01*
X51220000Y-38280000D02*
X51220000Y-36820000D01*
X54180000Y-36820000D02*
X54180000Y-38280000D01*
X54180000Y-38280000D02*
X51220000Y-38280000D01*
%TO.C,TP1*%
X151680000Y-24470000D02*
X151680000Y-27470000D01*
X151680000Y-24470000D02*
X154680000Y-24470000D01*
X154680000Y-27470000D02*
X151680000Y-27470000D01*
X154680000Y-27470000D02*
X154680000Y-24470000D01*
%TO.C,R5*%
X54740000Y-40810000D02*
X51380000Y-40810000D01*
X54740000Y-38910000D02*
X54740000Y-40810000D01*
X51380000Y-40810000D02*
X51380000Y-38910000D01*
X51380000Y-38910000D02*
X54740000Y-38910000D01*
%TO.C,U2*%
X74800000Y-48350000D02*
X74800000Y-45550000D01*
X74800000Y-48350000D02*
X71600000Y-48350000D01*
X74800000Y-45550000D02*
X71600000Y-45550000D01*
X71600000Y-45550000D02*
X71600000Y-48350000D01*
%TO.C,SW2*%
X133750000Y-26300000D02*
X133750000Y-41700000D01*
X133750000Y-26300000D02*
X151250000Y-26300000D01*
X151250000Y-41700000D02*
X133750000Y-41700000D01*
X151250000Y-41700000D02*
X151250000Y-26300000D01*
%TO.C,SW7*%
X97000000Y-112750000D02*
X97000000Y-125250000D01*
X97000000Y-125250000D02*
X113000000Y-125250000D01*
X113000000Y-112750000D02*
X97000000Y-112750000D01*
X113000000Y-125250000D02*
X113000000Y-112750000D01*
%TO.C,U7*%
X50800000Y-61900600D02*
X48000000Y-61900600D01*
X50800000Y-61900600D02*
X50800000Y-65100600D01*
X48000000Y-61900600D02*
X48000000Y-65100600D01*
X48000000Y-65100600D02*
X50800000Y-65100600D01*
%TO.C,C13*%
X109620000Y-51100000D02*
X109620000Y-54500000D01*
X107660000Y-51100000D02*
X109620000Y-51100000D01*
X109620000Y-54500000D02*
X107660000Y-54500000D01*
X107660000Y-54500000D02*
X107660000Y-51100000D01*
%TO.C,C26*%
X118400000Y-51520000D02*
X121800000Y-51520000D01*
X118400000Y-53480000D02*
X118400000Y-51520000D01*
X121800000Y-51520000D02*
X121800000Y-53480000D01*
X121800000Y-53480000D02*
X118400000Y-53480000D01*
%TO.C,C31*%
X159690000Y-51520000D02*
X159690000Y-48120000D01*
X161650000Y-51520000D02*
X159690000Y-51520000D01*
X159690000Y-48120000D02*
X161650000Y-48120000D01*
X161650000Y-48120000D02*
X161650000Y-51520000D01*
%TO.C,L5*%
X168150000Y-46640000D02*
X161650000Y-46640000D01*
X161650000Y-46640000D02*
X161650000Y-53640000D01*
X168150000Y-53640000D02*
X168150000Y-46640000D01*
X161650000Y-53640000D02*
X168150000Y-53640000D01*
%TO.C,C17*%
X102430000Y-43510000D02*
X99030000Y-43510000D01*
X102430000Y-41550000D02*
X102430000Y-43510000D01*
X99030000Y-43510000D02*
X99030000Y-41550000D01*
X99030000Y-41550000D02*
X102430000Y-41550000D01*
%TO.C,L1*%
X51220000Y-34932500D02*
X54180000Y-34932500D01*
X51220000Y-36392500D02*
X51220000Y-34932500D01*
X54180000Y-34932500D02*
X54180000Y-36392500D01*
X54180000Y-36392500D02*
X51220000Y-36392500D01*
%TO.C,J1*%
X96244500Y-32450000D02*
X96244500Y-19750000D01*
X96244500Y-19750000D02*
X93244500Y-19750000D01*
X93244500Y-19750000D02*
X93244500Y-17950000D01*
X93244500Y-17950000D02*
X86744500Y-17950000D01*
X86744500Y-19750000D02*
X83744500Y-19750000D01*
X86744500Y-17950000D02*
X86744500Y-19750000D01*
X83744500Y-32450000D02*
X96244500Y-32450000D01*
X83744500Y-20000000D02*
X83744500Y-32450000D01*
X83744500Y-19750000D02*
X83744500Y-20000000D01*
%TD*%
M02*
