%TF.GenerationSoftware,KiCad,Pcbnew,8.0.4+1*%
%TF.CreationDate,2024-10-13T10:59:30+00:00*%
%TF.ProjectId,pedalboard-hw,70656461-6c62-46f6-9172-642d68772e6b,4.0.0-RC1*%
%TF.SameCoordinates,Original*%
%TF.FileFunction,Plated,1,2,PTH,Mixed*%
%TF.FilePolarity,Positive*%
%FSLAX46Y46*%
G04 Gerber Fmt 4.6, Leading zero omitted, Abs format (unit mm)*
G04 Created by KiCad (PCBNEW 8.0.4+1) date 2024-10-13 10:59:30*
%MOMM*%
%LPD*%
G01*
G04 APERTURE LIST*
%TA.AperFunction,ViaDrill*%
%ADD10C,0.300000*%
%TD*%
%TA.AperFunction,ComponentDrill*%
%ADD11C,0.300000*%
%TD*%
%TA.AperFunction,ComponentDrill*%
%ADD12C,0.350000*%
%TD*%
%TA.AperFunction,ViaDrill*%
%ADD13C,0.400000*%
%TD*%
G04 aperture for slot hole*
%TA.AperFunction,ComponentDrill*%
%ADD14C,0.450000*%
%TD*%
G04 aperture for slot hole*
%TA.AperFunction,ComponentDrill*%
%ADD15C,0.650000*%
%TD*%
G04 aperture for slot hole*
%TA.AperFunction,ComponentDrill*%
%ADD16C,0.700000*%
%TD*%
%TA.AperFunction,ComponentDrill*%
%ADD17C,0.750000*%
%TD*%
%TA.AperFunction,ViaDrill*%
%ADD18C,0.800000*%
%TD*%
G04 aperture for slot hole*
%TA.AperFunction,ComponentDrill*%
%ADD19C,0.800000*%
%TD*%
%TA.AperFunction,ComponentDrill*%
%ADD20C,0.950000*%
%TD*%
%TA.AperFunction,ComponentDrill*%
%ADD21C,1.000000*%
%TD*%
%TA.AperFunction,ComponentDrill*%
%ADD22C,1.300000*%
%TD*%
%TA.AperFunction,ComponentDrill*%
%ADD23C,1.320800*%
%TD*%
%TA.AperFunction,ComponentDrill*%
%ADD24C,1.400000*%
%TD*%
%TA.AperFunction,ComponentDrill*%
%ADD25C,2.300000*%
%TD*%
%TA.AperFunction,ComponentDrill*%
%ADD26C,2.600000*%
%TD*%
G04 APERTURE END LIST*
D10*
X101660000Y-43410000D03*
X101800000Y-45560000D03*
X109954871Y-45486615D03*
X149600000Y-45890000D03*
D11*
%TO.C,U6*%
X157570000Y-41750000D03*
X157570000Y-43050000D03*
X158870000Y-41750000D03*
X158870000Y-43050000D03*
X160170000Y-41750000D03*
X160170000Y-43050000D03*
X161470000Y-41750000D03*
X161470000Y-43050000D03*
D12*
%TO.C,U3*%
X106125000Y-44325000D03*
X106125000Y-45600000D03*
X106125000Y-46875000D03*
X107400000Y-44325000D03*
X107400000Y-45600000D03*
X107400000Y-46875000D03*
X108675000Y-44325000D03*
X108675000Y-45600000D03*
X108675000Y-46875000D03*
%TD*%
D13*
X23280000Y-29990000D03*
X23310000Y-27050000D03*
X24200000Y-69500000D03*
X24200000Y-121500000D03*
X28740000Y-21300000D03*
X31640000Y-21980000D03*
X32970000Y-30120000D03*
X33670000Y-21930000D03*
X35080000Y-29080000D03*
X35800000Y-69500000D03*
X36340000Y-21270000D03*
X37000000Y-122600000D03*
X40150000Y-54490000D03*
X40190000Y-58120000D03*
X40540000Y-25700000D03*
X41650000Y-116070000D03*
X42230183Y-116884488D03*
X43610000Y-46430000D03*
X43640000Y-58380000D03*
X46660000Y-49410000D03*
X47010000Y-46140000D03*
X47020000Y-41220000D03*
X47865000Y-43640000D03*
X47890000Y-54230000D03*
X49325000Y-41865000D03*
X49660000Y-38600000D03*
X49830000Y-54220000D03*
X50189975Y-108519975D03*
X50220599Y-107520441D03*
X50550000Y-61290000D03*
X51720000Y-54270000D03*
X52250000Y-46020000D03*
X53137971Y-58490000D03*
X54100000Y-51930000D03*
X54360000Y-53550000D03*
X54415000Y-41785000D03*
X55310000Y-50760000D03*
X55500000Y-75000000D03*
X55500000Y-78000000D03*
X55500000Y-80500000D03*
X55500000Y-83000000D03*
X55500000Y-85500000D03*
X55500000Y-88000000D03*
X55500000Y-90500000D03*
X55500000Y-93000000D03*
X55500000Y-95500000D03*
X55580000Y-48770000D03*
X56000000Y-41871662D03*
X57553750Y-58913750D03*
X59050000Y-55700000D03*
X59230000Y-48730000D03*
X59450000Y-44832500D03*
X59990000Y-50760000D03*
X61670000Y-48910000D03*
X62010000Y-44020000D03*
X62340000Y-58790000D03*
X63920000Y-44640000D03*
X63980000Y-51570000D03*
X65250000Y-53930000D03*
X77044500Y-27714500D03*
X77355500Y-40049500D03*
X77494500Y-28646472D03*
X77780000Y-33850000D03*
X78655500Y-29791388D03*
X79436653Y-29121550D03*
X82690000Y-54240000D03*
X82700000Y-90400000D03*
X83000000Y-91700000D03*
X83200000Y-85400000D03*
X83300000Y-86787142D03*
X83350000Y-89250000D03*
X83400000Y-88100000D03*
X83525685Y-92713715D03*
X83798953Y-90387491D03*
X84000000Y-83100000D03*
X84074635Y-84687642D03*
X84133755Y-86087142D03*
X84500000Y-87599500D03*
X84700353Y-83899647D03*
X85300000Y-77500000D03*
X85300000Y-78500000D03*
X85900000Y-86699500D03*
X86600000Y-80300000D03*
X86700000Y-75600000D03*
X89500000Y-81500000D03*
X89500000Y-87600000D03*
X89500000Y-93500000D03*
X89500000Y-96000000D03*
X93160000Y-54210000D03*
X93210000Y-77100000D03*
X93300000Y-49800000D03*
X93700861Y-95522181D03*
X94024728Y-86925400D03*
X94300000Y-77300000D03*
X94810000Y-80370000D03*
X95302419Y-93662808D03*
X95537944Y-85893736D03*
X95816257Y-92805501D03*
X95900000Y-82300000D03*
X96058879Y-83599500D03*
X96300000Y-89599000D03*
X96400000Y-80700000D03*
X96521970Y-77768030D03*
X97100000Y-87100000D03*
X97200000Y-40050000D03*
X97400000Y-83000500D03*
X97500000Y-84800000D03*
X97511449Y-92382343D03*
X97683894Y-90399000D03*
X97900000Y-46260000D03*
X97957085Y-44784342D03*
X98115000Y-40750000D03*
X98448690Y-82241159D03*
X98557000Y-92199500D03*
X98917395Y-87799500D03*
X99040000Y-42400000D03*
X99160000Y-68910000D03*
X99200000Y-121500000D03*
X99625400Y-79002500D03*
X99800000Y-91200000D03*
X101459500Y-54910000D03*
X101860000Y-41205500D03*
X103520000Y-54220000D03*
X103675000Y-51200000D03*
X105890000Y-39649500D03*
X105970000Y-58440000D03*
X105980588Y-55650500D03*
X106100500Y-56713551D03*
X106100500Y-59431451D03*
X106750000Y-75890000D03*
X107880000Y-96680000D03*
X108121284Y-41128021D03*
X108550000Y-53200000D03*
X108620000Y-95999500D03*
X108660379Y-51182165D03*
X108700500Y-59573605D03*
X109173071Y-58692312D03*
X109515930Y-57752923D03*
X109650000Y-95599500D03*
X110215930Y-56869697D03*
X110380000Y-39114500D03*
X110800000Y-68960000D03*
X110800000Y-121500000D03*
X111474976Y-78235026D03*
X111881321Y-42649500D03*
X112792822Y-45433603D03*
X112852102Y-42411614D03*
X112874975Y-78190000D03*
X112900000Y-51387700D03*
X113012499Y-77062526D03*
X113648543Y-41806390D03*
X113900000Y-49100000D03*
X114260000Y-79709949D03*
X116760000Y-45120000D03*
X117187000Y-55636200D03*
X117400000Y-47000000D03*
X120870000Y-50300000D03*
X124000000Y-47200000D03*
X124270000Y-50430000D03*
X124800000Y-56700000D03*
X127300000Y-56700000D03*
X133787535Y-28647535D03*
X134763800Y-54800000D03*
X138700800Y-55483800D03*
X139234200Y-44460200D03*
X140783600Y-54848800D03*
X143033791Y-33883085D03*
X143349000Y-52842200D03*
X143501400Y-50302200D03*
X144034800Y-52105600D03*
X147850000Y-50200000D03*
X152650000Y-49670000D03*
X153250000Y-50860000D03*
X153270000Y-53210000D03*
X153500000Y-35500000D03*
X153500000Y-37000000D03*
X153500000Y-38500000D03*
X153500000Y-40000000D03*
X153500000Y-41500000D03*
X153500000Y-43000000D03*
X153500000Y-44500000D03*
X154340000Y-27900000D03*
X154650000Y-49670000D03*
X155000000Y-35500000D03*
X155000000Y-37000000D03*
X155480000Y-52260000D03*
X155500000Y-23000000D03*
X155500000Y-25000000D03*
X155500000Y-27000000D03*
X155500000Y-32000000D03*
X157000000Y-32000000D03*
X157000000Y-49670000D03*
X157500000Y-23000000D03*
X157600000Y-52250000D03*
X159500000Y-23000000D03*
X159640000Y-52290000D03*
X161500000Y-23000000D03*
X161500000Y-47000000D03*
X161500000Y-49000000D03*
X161520000Y-52290000D03*
X164000000Y-32000000D03*
X164000000Y-35500000D03*
X164000000Y-37500000D03*
X165500000Y-35500000D03*
X165500000Y-37500000D03*
X165500000Y-39500000D03*
X165500000Y-41500000D03*
X165500000Y-43500000D03*
X165500000Y-45500000D03*
X167000000Y-30500000D03*
X167000000Y-32000000D03*
X167000000Y-35500000D03*
X167000000Y-37500000D03*
X167000000Y-39500000D03*
X167000000Y-41500000D03*
X167000000Y-43500000D03*
X167000000Y-45500000D03*
X168500000Y-30500000D03*
X168960000Y-52060000D03*
X169000000Y-50000000D03*
X170000000Y-26000000D03*
X171500000Y-22500000D03*
X174200000Y-69400000D03*
X174200000Y-121500000D03*
X178800000Y-93800000D03*
X185800000Y-69500000D03*
X185800000Y-121450000D03*
D14*
%TO.C,J1*%
X84994500Y-29975000D02*
X84994500Y-29025000D01*
X87494500Y-29975000D02*
X87494500Y-29025000D01*
X89519500Y-24500000D02*
X90469500Y-24500000D01*
X92494500Y-29025000D02*
X92494500Y-29975000D01*
X94994500Y-29025000D02*
X94994500Y-29975000D01*
%TO.C,J3*%
X115000000Y-29975000D02*
X115000000Y-29025000D01*
X117500000Y-29975000D02*
X117500000Y-29025000D01*
X119525000Y-24500000D02*
X120475000Y-24500000D01*
X122500000Y-29025000D02*
X122500000Y-29975000D01*
X125000000Y-29025000D02*
X125000000Y-29975000D01*
D15*
%TO.C,J9*%
X22755000Y-54055000D02*
X22355000Y-54055000D01*
X22755000Y-58895000D02*
X22355000Y-58895000D01*
D16*
X19805000Y-53745000D02*
X19305000Y-53745000D01*
X19805000Y-59205000D02*
X19305000Y-59205000D01*
D17*
%TO.C,J26*%
X64030000Y-23500000D03*
X66030000Y-23500000D03*
X68030000Y-23500000D03*
%TO.C,J25*%
X72960000Y-23490000D03*
X74960000Y-23490000D03*
X76960000Y-23490000D03*
%TD*%
D18*
X36350000Y-23400000D03*
X79850000Y-72470000D03*
X89680000Y-72420000D03*
X91130000Y-72460000D03*
X92640000Y-72420000D03*
X94060000Y-72480000D03*
X103925000Y-41175000D03*
X121174800Y-52918400D03*
X124300000Y-60410000D03*
X125920000Y-60410000D03*
X127520000Y-60400000D03*
X129120000Y-60400000D03*
X170180000Y-34104500D03*
D19*
%TO.C,J7*%
X174600000Y-28500000D02*
X174600000Y-26300000D01*
X178300000Y-24600000D02*
X180500000Y-24600000D01*
X178100000Y-30400000D02*
X180700000Y-30400000D01*
D20*
%TO.C,J10*%
X46080000Y-31750000D03*
X48580000Y-31750000D03*
X50580000Y-31750000D03*
X53080000Y-31750000D03*
D21*
%TO.C,SW1*%
X60250000Y-31500000D03*
X60250000Y-34000000D03*
X60250000Y-36500000D03*
X74750000Y-31500000D03*
X74750000Y-36500000D03*
%TO.C,J16*%
X102145000Y-81300000D03*
X104685000Y-81300000D03*
X107225000Y-81300000D03*
%TO.C,J27*%
X117710000Y-68375600D03*
X117710000Y-70915600D03*
X117710000Y-73455600D03*
X117710000Y-75995600D03*
X117710000Y-78535600D03*
X117710000Y-81075600D03*
X117710000Y-83615600D03*
X117710000Y-86155600D03*
X117710000Y-88695600D03*
X117710000Y-91235600D03*
X117710000Y-93775600D03*
X117710000Y-96315600D03*
X117710000Y-98855600D03*
X117710000Y-101395600D03*
X117710000Y-103935600D03*
X117710000Y-106475600D03*
X117710000Y-109015600D03*
X117710000Y-111555600D03*
X117710000Y-114095600D03*
X117710000Y-116635600D03*
X120250000Y-68375600D03*
X120250000Y-70915600D03*
X120250000Y-73455600D03*
X120250000Y-75995600D03*
X120250000Y-78535600D03*
X120250000Y-81075600D03*
X120250000Y-83615600D03*
X120250000Y-86155600D03*
X120250000Y-88695600D03*
X120250000Y-91235600D03*
X120250000Y-93775600D03*
X120250000Y-96315600D03*
X120250000Y-98855600D03*
X120250000Y-101395600D03*
X120250000Y-103935600D03*
X120250000Y-106475600D03*
X120250000Y-109015600D03*
X120250000Y-111555600D03*
X120250000Y-114095600D03*
X120250000Y-116635600D03*
%TO.C,J12*%
X129315000Y-44450000D03*
X131855000Y-44450000D03*
X134395000Y-44450000D03*
%TO.C,SW2*%
X135250000Y-31500000D03*
X135250000Y-34000000D03*
X135250000Y-36500000D03*
X149750000Y-31500000D03*
X149750000Y-36500000D03*
%TO.C,J27*%
X152380000Y-119150600D03*
X152380000Y-121690600D03*
X154015000Y-74845600D03*
X154015000Y-77385600D03*
X154015000Y-79925600D03*
X154920000Y-119150600D03*
X154920000Y-121690600D03*
X156555000Y-74845600D03*
X156555000Y-77385600D03*
X156555000Y-79925600D03*
X157460000Y-119150600D03*
X157460000Y-121690600D03*
D22*
%TO.C,J6*%
X178500000Y-23210000D03*
X178500000Y-28210000D03*
D23*
%TO.C,J2*%
X82500000Y-32000000D03*
X85000000Y-22000000D03*
X85000000Y-34500000D03*
X87500000Y-22000000D03*
X90000000Y-32000000D03*
X92500000Y-22000000D03*
X95000000Y-22000000D03*
X95000000Y-34500000D03*
X97500000Y-32000000D03*
%TO.C,J4*%
X112500000Y-32000000D03*
X115000000Y-22000000D03*
X115000000Y-34500000D03*
X117500000Y-22000000D03*
X120000000Y-32000000D03*
X122500000Y-22000000D03*
X125000000Y-22000000D03*
X125000000Y-34500000D03*
X127500000Y-32000000D03*
D24*
%TO.C,J8*%
X21700000Y-33770000D03*
X21700000Y-50000000D03*
%TO.C,J20*%
X21700000Y-74770000D03*
X21700000Y-91000000D03*
%TO.C,J19*%
X21700000Y-94970000D03*
X21700000Y-111200000D03*
%TO.C,J8*%
X28050000Y-33770000D03*
X28050000Y-50000000D03*
%TO.C,J20*%
X28050000Y-74770000D03*
X28050000Y-91000000D03*
%TO.C,J19*%
X28050000Y-94970000D03*
X28050000Y-111200000D03*
%TO.C,J8*%
X34400000Y-33770000D03*
X34400000Y-50000000D03*
%TO.C,J20*%
X34400000Y-74770000D03*
X34400000Y-91000000D03*
%TO.C,J19*%
X34400000Y-94970000D03*
X34400000Y-111200000D03*
%TO.C,J18*%
X175600000Y-74780000D03*
X175600000Y-91010000D03*
%TO.C,J22*%
X175600000Y-94995000D03*
X175600000Y-111225000D03*
%TO.C,J5*%
X175615000Y-33800000D03*
X175615000Y-50030000D03*
%TO.C,J18*%
X181950000Y-74780000D03*
X181950000Y-91010000D03*
%TO.C,J22*%
X181950000Y-94995000D03*
X181950000Y-111225000D03*
%TO.C,J5*%
X181965000Y-33800000D03*
X181965000Y-50030000D03*
%TO.C,J18*%
X188300000Y-74780000D03*
X188300000Y-91010000D03*
%TO.C,J22*%
X188300000Y-94995000D03*
X188300000Y-111225000D03*
%TO.C,J5*%
X188315000Y-33800000D03*
X188315000Y-50030000D03*
D25*
%TO.C,J10*%
X43010000Y-29040000D03*
X56150000Y-29040000D03*
D26*
%TO.C,SW1*%
X67750000Y-28400000D03*
X67750000Y-39600000D03*
%TO.C,SW2*%
X142750000Y-28400000D03*
X142750000Y-39600000D03*
M02*
