%TF.GenerationSoftware,KiCad,Pcbnew,7.0.7-7.0.7~ubuntu23.04.1*%
%TF.CreationDate,2023-10-12T20:52:01+00:00*%
%TF.ProjectId,pedalboard-hw,70656461-6c62-46f6-9172-642d68772e6b,3.0.0-RC1*%
%TF.SameCoordinates,Original*%
%TF.FileFunction,Soldermask,Bot*%
%TF.FilePolarity,Negative*%
%FSLAX46Y46*%
G04 Gerber Fmt 4.6, Leading zero omitted, Abs format (unit mm)*
G04 Created by KiCad (PCBNEW 7.0.7-7.0.7~ubuntu23.04.1) date 2023-10-12 20:52:01*
%MOMM*%
%LPD*%
G01*
G04 APERTURE LIST*
G04 Aperture macros list*
%AMRoundRect*
0 Rectangle with rounded corners*
0 $1 Rounding radius*
0 $2 $3 $4 $5 $6 $7 $8 $9 X,Y pos of 4 corners*
0 Add a 4 corners polygon primitive as box body*
4,1,4,$2,$3,$4,$5,$6,$7,$8,$9,$2,$3,0*
0 Add four circle primitives for the rounded corners*
1,1,$1+$1,$2,$3*
1,1,$1+$1,$4,$5*
1,1,$1+$1,$6,$7*
1,1,$1+$1,$8,$9*
0 Add four rect primitives between the rounded corners*
20,1,$1+$1,$2,$3,$4,$5,0*
20,1,$1+$1,$4,$5,$6,$7,0*
20,1,$1+$1,$6,$7,$8,$9,0*
20,1,$1+$1,$8,$9,$2,$3,0*%
%AMFreePoly0*
4,1,17,0.553688,1.285921,1.285921,0.553688,1.300800,0.517767,1.300800,-0.517767,1.285921,-0.553688,0.553688,-1.285921,0.517767,-1.300800,-0.517767,-1.300800,-0.553688,-1.285921,-1.285921,-0.553688,-1.300800,-0.517767,-1.300800,0.517767,-1.285921,0.553688,-0.553688,1.285921,-0.517767,1.300800,0.517767,1.300800,0.553688,1.285921,0.553688,1.285921,$1*%
%AMFreePoly1*
4,1,14,0.935921,1.035921,0.950800,1.000000,0.950800,-0.100000,0.935921,-0.135921,0.035921,-1.035921,0.000000,-1.050800,-0.900000,-1.050800,-0.935921,-1.035921,-0.950800,-1.000000,-0.950800,1.000000,-0.935921,1.035921,-0.900000,1.050800,0.900000,1.050800,0.935921,1.035921,0.935921,1.035921,$1*%
%AMFreePoly2*
4,1,14,0.935921,1.035921,0.950800,1.000000,0.950800,-1.000000,0.935921,-1.035921,0.900000,-1.050800,0.000000,-1.050800,-0.035921,-1.035921,-0.935921,-0.135921,-0.950800,-0.100000,-0.950800,1.000000,-0.935921,1.035921,-0.900000,1.050800,0.900000,1.050800,0.935921,1.035921,0.935921,1.035921,$1*%
%AMFreePoly3*
4,1,19,0.500000,-0.750000,0.000000,-0.750000,0.000000,-0.744911,-0.071157,-0.744911,-0.207708,-0.704816,-0.327430,-0.627875,-0.420627,-0.520320,-0.479746,-0.390866,-0.500000,-0.250000,-0.500000,0.250000,-0.479746,0.390866,-0.420627,0.520320,-0.327430,0.627875,-0.207708,0.704816,-0.071157,0.744911,0.000000,0.744911,0.000000,0.750000,0.500000,0.750000,0.500000,-0.750000,0.500000,-0.750000,
$1*%
%AMFreePoly4*
4,1,19,0.000000,0.744911,0.071157,0.744911,0.207708,0.704816,0.327430,0.627875,0.420627,0.520320,0.479746,0.390866,0.500000,0.250000,0.500000,-0.250000,0.479746,-0.390866,0.420627,-0.520320,0.327430,-0.627875,0.207708,-0.704816,0.071157,-0.744911,0.000000,-0.744911,0.000000,-0.750000,-0.500000,-0.750000,-0.500000,0.750000,0.000000,0.750000,0.000000,0.744911,0.000000,0.744911,
$1*%
G04 Aperture macros list end*
%ADD10O,1.200000X2.200000*%
%ADD11O,2.200000X1.200000*%
%ADD12C,3.000000*%
%ADD13R,4.400000X1.800000*%
%ADD14O,4.000000X1.800000*%
%ADD15O,1.800000X4.000000*%
%ADD16C,6.000000*%
%ADD17R,1.350000X1.350000*%
%ADD18O,1.350000X1.350000*%
%ADD19R,2.250000X2.250000*%
%ADD20C,2.250000*%
%ADD21C,2.700000*%
%ADD22R,1.700000X1.700000*%
%ADD23O,1.700000X1.700000*%
%ADD24C,0.600000*%
%ADD25FreePoly0,180.000000*%
%ADD26FreePoly0,270.000000*%
%ADD27FreePoly1,180.000000*%
%ADD28RoundRect,0.050800X0.900000X1.000000X-0.900000X1.000000X-0.900000X-1.000000X0.900000X-1.000000X0*%
%ADD29FreePoly2,180.000000*%
%ADD30R,2.000000X2.000000*%
%ADD31C,2.000000*%
%ADD32C,3.200000*%
%ADD33C,1.350000*%
%ADD34FreePoly3,90.000000*%
%ADD35FreePoly4,90.000000*%
G04 APERTURE END LIST*
D10*
%TO.C,J16*%
X121000000Y-29500000D03*
X118500000Y-29500000D03*
D11*
X116000000Y-24500000D03*
D10*
X111000000Y-29500000D03*
X113500000Y-29500000D03*
%TD*%
D12*
%TO.C,J12*%
X28050000Y-111200000D03*
X28050000Y-94970000D03*
X21700000Y-111200000D03*
X21700000Y-94970000D03*
X34400000Y-111200000D03*
X34400000Y-94970000D03*
%TD*%
D13*
%TO.C,J13*%
X179400000Y-30400000D03*
D14*
X179400000Y-24600000D03*
D15*
X174600000Y-27400000D03*
%TD*%
D16*
%TO.C,H4*%
X30000000Y-119000000D03*
%TD*%
D17*
%TO.C,J22*%
X29000000Y-56000000D03*
D18*
X31000000Y-56000000D03*
X29000000Y-58000000D03*
X31000000Y-58000000D03*
%TD*%
D16*
%TO.C,H2*%
X105000000Y-67000000D03*
%TD*%
%TO.C,H1*%
X30000000Y-67000000D03*
%TD*%
D12*
%TO.C,J11*%
X28085000Y-91000000D03*
X28085000Y-74770000D03*
X21735000Y-91000000D03*
X21735000Y-74770000D03*
X34435000Y-91000000D03*
X34435000Y-74770000D03*
%TD*%
D19*
%TO.C,PS1*%
X145530000Y-86155749D03*
D20*
X145530000Y-78535749D03*
X145530000Y-73455749D03*
X125210000Y-65835749D03*
X125210000Y-75995749D03*
X125210000Y-86155749D03*
%TD*%
D12*
%TO.C,J10*%
X181950000Y-94995000D03*
X181950000Y-111225000D03*
X188300000Y-94995000D03*
X188300000Y-111225000D03*
X175600000Y-94995000D03*
X175600000Y-111225000D03*
%TD*%
D21*
%TO.C,H11*%
X118980000Y-121520000D03*
%TD*%
D17*
%TO.C,J19*%
X181000000Y-130000000D03*
D18*
X179000000Y-130000000D03*
X181000000Y-128000000D03*
X179000000Y-128000000D03*
%TD*%
D22*
%TO.C,J7*%
X49590000Y-106320000D03*
D23*
X49590000Y-103780000D03*
X52130000Y-106320000D03*
X52130000Y-103780000D03*
X54670000Y-106320000D03*
X54670000Y-103780000D03*
X57210000Y-106320000D03*
X57210000Y-103780000D03*
X59750000Y-106320000D03*
X59750000Y-103780000D03*
X62290000Y-106320000D03*
X62290000Y-103780000D03*
X64830000Y-106320000D03*
X64830000Y-103780000D03*
X67370000Y-106320000D03*
X67370000Y-103780000D03*
X69910000Y-106320000D03*
X69910000Y-103780000D03*
X72450000Y-106320000D03*
X72450000Y-103780000D03*
X74990000Y-106320000D03*
X74990000Y-103780000D03*
X77530000Y-106320000D03*
X77530000Y-103780000D03*
X80070000Y-106320000D03*
X80070000Y-103780000D03*
X82610000Y-106320000D03*
X82610000Y-103780000D03*
X85150000Y-106320000D03*
X85150000Y-103780000D03*
X87690000Y-106320000D03*
X87690000Y-103780000D03*
X90230000Y-106320000D03*
X90230000Y-103780000D03*
X92770000Y-106320000D03*
X92770000Y-103780000D03*
X95310000Y-106320000D03*
X95310000Y-103780000D03*
X97850000Y-106320000D03*
X97850000Y-103780000D03*
%TD*%
D24*
%TO.C,H12*%
X80100000Y-21075000D03*
X80100000Y-22075000D03*
X80100000Y-23075000D03*
X80100000Y-24075000D03*
X80100000Y-25075000D03*
X80100000Y-26075000D03*
X80100000Y-30075000D03*
X80100000Y-31075000D03*
X80100000Y-32075000D03*
X80100000Y-33075000D03*
X80100000Y-34075000D03*
X80100000Y-35075000D03*
X80100000Y-36075000D03*
X81100000Y-36075000D03*
X82100000Y-36075000D03*
X83100000Y-36075000D03*
X84100000Y-36075000D03*
X85100000Y-36075000D03*
X86100000Y-36075000D03*
X87100000Y-36075000D03*
X88100000Y-36075000D03*
X90100000Y-36075000D03*
X91100000Y-36075000D03*
X92100000Y-36075000D03*
X93100000Y-36075000D03*
X94100000Y-36075000D03*
X95100000Y-36075000D03*
X96100000Y-36075000D03*
X97100000Y-36075000D03*
X98100000Y-36075000D03*
X100100000Y-36075000D03*
X101100000Y-36075000D03*
X102100000Y-36075000D03*
X103100000Y-36075000D03*
X104100000Y-36075000D03*
X105100000Y-36075000D03*
X106100000Y-36075000D03*
X107100000Y-36075000D03*
X108100000Y-36075000D03*
X109100000Y-36075000D03*
X110100000Y-36075000D03*
X112100000Y-36075000D03*
X113100000Y-36075000D03*
X114100000Y-36075000D03*
X115100000Y-36075000D03*
X116100000Y-36075000D03*
X117100000Y-36075000D03*
X118100000Y-36075000D03*
X119100000Y-36075000D03*
X120100000Y-36075000D03*
X122100000Y-36075000D03*
X123100000Y-36075000D03*
X124100000Y-36075000D03*
X125100000Y-36075000D03*
X126100000Y-36075000D03*
X127100000Y-36075000D03*
X128100000Y-36075000D03*
X129100000Y-36075000D03*
X130100000Y-21075000D03*
X130100000Y-22075000D03*
X130100000Y-23075000D03*
X130100000Y-24075000D03*
X130100000Y-25075000D03*
X130100000Y-26075000D03*
X130100000Y-27075000D03*
X130100000Y-28075000D03*
X130100000Y-29075000D03*
X130100000Y-30075000D03*
X130100000Y-31075000D03*
X130100000Y-32075000D03*
X130100000Y-33075000D03*
X130100000Y-34075000D03*
X130100000Y-35075000D03*
X130100000Y-36075000D03*
%TD*%
D17*
%TO.C,J23*%
X31000000Y-130000000D03*
D18*
X29000000Y-130000000D03*
X31000000Y-128000000D03*
X29000000Y-128000000D03*
%TD*%
D17*
%TO.C,J21*%
X106000000Y-78000000D03*
D18*
X104000000Y-78000000D03*
X106000000Y-76000000D03*
X104000000Y-76000000D03*
%TD*%
D21*
%TO.C,H7*%
X21150000Y-23000000D03*
%TD*%
D12*
%TO.C,J3*%
X181965000Y-33800000D03*
X181965000Y-50030000D03*
X188315000Y-33800000D03*
X188315000Y-50030000D03*
X175615000Y-33800000D03*
X175615000Y-50030000D03*
%TD*%
D25*
%TO.C,J1*%
X108500000Y-32000000D03*
D26*
X116000000Y-32000000D03*
D25*
X123500000Y-32000000D03*
X111000000Y-34500000D03*
X121000000Y-34500000D03*
D27*
X118500000Y-22000000D03*
D28*
X121000000Y-22000000D03*
X111000000Y-22000000D03*
D29*
X113500000Y-22000000D03*
%TD*%
D30*
%TO.C,SW7*%
X60250000Y-31500000D03*
D31*
X60250000Y-36500000D03*
X60250000Y-34000000D03*
D32*
X67750000Y-28400000D03*
X67750000Y-39600000D03*
D31*
X74750000Y-36500000D03*
X74750000Y-31500000D03*
%TD*%
D17*
%TO.C,J18*%
X179000000Y-56000000D03*
D18*
X181000000Y-56000000D03*
X179000000Y-58000000D03*
X181000000Y-58000000D03*
%TD*%
D16*
%TO.C,H3*%
X180000000Y-67000000D03*
%TD*%
D12*
%TO.C,J9*%
X181950000Y-74780000D03*
X181950000Y-91010000D03*
X188300000Y-74780000D03*
X188300000Y-91010000D03*
X175600000Y-74780000D03*
X175600000Y-91010000D03*
%TD*%
D16*
%TO.C,H5*%
X105000000Y-119000000D03*
%TD*%
D17*
%TO.C,J20*%
X104000000Y-108000000D03*
D18*
X106000000Y-108000000D03*
X104000000Y-110000000D03*
X106000000Y-110000000D03*
%TD*%
D21*
%TO.C,H10*%
X118900000Y-63565600D03*
%TD*%
D16*
%TO.C,H6*%
X180000000Y-119000000D03*
%TD*%
D21*
%TO.C,H9*%
X188000000Y-23000000D03*
%TD*%
D30*
%TO.C,SW8*%
X135250000Y-31500000D03*
D31*
X135250000Y-36500000D03*
X135250000Y-34000000D03*
D32*
X142750000Y-28400000D03*
X142750000Y-39600000D03*
D31*
X149750000Y-36500000D03*
X149750000Y-31500000D03*
%TD*%
D25*
%TO.C,J2*%
X86505500Y-32000000D03*
D26*
X94005500Y-32000000D03*
D25*
X101505500Y-32000000D03*
X89005500Y-34500000D03*
X99005500Y-34500000D03*
D27*
X96505500Y-22000000D03*
D28*
X99005500Y-22000000D03*
X89005500Y-22000000D03*
D29*
X91505500Y-22000000D03*
%TD*%
D10*
%TO.C,J17*%
X99000000Y-29500000D03*
X96500000Y-29500000D03*
D11*
X94000000Y-24500000D03*
D10*
X89000000Y-29500000D03*
X91500000Y-29500000D03*
%TD*%
D22*
%TO.C,J6*%
X113625000Y-97780000D03*
D23*
X113625000Y-95240000D03*
X113625000Y-92700000D03*
X113625000Y-90160000D03*
%TD*%
D22*
%TO.C,J14*%
X135075000Y-59850000D03*
D23*
X135075000Y-57310000D03*
%TD*%
D33*
%TO.C,J5*%
X127000000Y-48000000D03*
D18*
X127000000Y-50000000D03*
%TD*%
D34*
%TO.C,JP3*%
X87000000Y-75550000D03*
D35*
X87000000Y-74250000D03*
%TD*%
D23*
%TO.C,U1*%
X127130000Y-57890000D03*
X124590000Y-57890000D03*
D22*
X122050000Y-57890000D03*
D23*
X119510000Y-57890000D03*
X116970000Y-57890000D03*
X114430000Y-57890000D03*
X111890000Y-57890000D03*
D22*
X109350000Y-57890000D03*
D23*
X106810000Y-57890000D03*
X104270000Y-57890000D03*
X101730000Y-57890000D03*
X99190000Y-57890000D03*
D22*
X96650000Y-57890000D03*
D23*
X94110000Y-57890000D03*
X91570000Y-57890000D03*
X89030000Y-57890000D03*
X86490000Y-57890000D03*
D22*
X83950000Y-57890000D03*
D23*
X81410000Y-57890000D03*
X78870000Y-57890000D03*
X78870000Y-40110000D03*
X81410000Y-40110000D03*
D22*
X83950000Y-40110000D03*
D23*
X86490000Y-40110000D03*
X89030000Y-40110000D03*
X91570000Y-40110000D03*
X94110000Y-40110000D03*
D22*
X96650000Y-40110000D03*
D23*
X99190000Y-40110000D03*
X101730000Y-40110000D03*
X104270000Y-40110000D03*
X106810000Y-40110000D03*
D22*
X109350000Y-40110000D03*
D23*
X111890000Y-40110000D03*
X114430000Y-40110000D03*
X116970000Y-40110000D03*
X119510000Y-40110000D03*
D22*
X122050000Y-40110000D03*
D23*
X124590000Y-40110000D03*
X127130000Y-40110000D03*
%TD*%
D34*
%TO.C,JP4*%
X84500000Y-75550000D03*
D35*
X84500000Y-74250000D03*
%TD*%
D22*
%TO.C,J4*%
X38900000Y-129225000D03*
D23*
X38900000Y-126685000D03*
X38900000Y-124145000D03*
%TD*%
D22*
%TO.C,J8*%
X120250000Y-68375600D03*
D23*
X117710000Y-68375600D03*
X120250000Y-70915600D03*
X117710000Y-70915600D03*
X120250000Y-73455600D03*
X117710000Y-73455600D03*
X120250000Y-75995600D03*
X117710000Y-75995600D03*
X120250000Y-78535600D03*
X117710000Y-78535600D03*
X120250000Y-81075600D03*
X117710000Y-81075600D03*
X120250000Y-83615600D03*
X117710000Y-83615600D03*
X120250000Y-86155600D03*
X117710000Y-86155600D03*
X120250000Y-88695600D03*
X117710000Y-88695600D03*
X120250000Y-91235600D03*
X117710000Y-91235600D03*
X120250000Y-93775600D03*
X117710000Y-93775600D03*
X120250000Y-96315600D03*
X117710000Y-96315600D03*
X120250000Y-98855600D03*
X117710000Y-98855600D03*
X120250000Y-101395600D03*
X117710000Y-101395600D03*
X120250000Y-103935600D03*
X117710000Y-103935600D03*
X120250000Y-106475600D03*
X117710000Y-106475600D03*
X120250000Y-109015600D03*
X117710000Y-109015600D03*
X120250000Y-111555600D03*
X117710000Y-111555600D03*
X120250000Y-114095600D03*
X117710000Y-114095600D03*
X120250000Y-116635600D03*
X117710000Y-116635600D03*
D22*
X156555000Y-74845600D03*
D23*
X154015000Y-74845600D03*
X156555000Y-77385600D03*
X154015000Y-77385600D03*
X156555000Y-79925600D03*
X154015000Y-79925600D03*
D22*
X152380000Y-119150600D03*
D23*
X152380000Y-121690600D03*
X154920000Y-119150600D03*
X154920000Y-121690600D03*
X157460000Y-119150600D03*
X157460000Y-121690600D03*
%TD*%
D22*
%TO.C,J15*%
X44850000Y-44925000D03*
D23*
X47390000Y-44925000D03*
X44850000Y-42385000D03*
X47390000Y-42385000D03*
X44850000Y-39845000D03*
X47390000Y-39845000D03*
%TD*%
M02*
