%TF.GenerationSoftware,KiCad,Pcbnew,7.0.7-7.0.7~ubuntu23.04.1*%
%TF.CreationDate,2023-10-12T20:52:01+00:00*%
%TF.ProjectId,pedalboard-hw,70656461-6c62-46f6-9172-642d68772e6b,3.0.0-RC1*%
%TF.SameCoordinates,Original*%
%TF.FileFunction,Other,User*%
%FSLAX46Y46*%
G04 Gerber Fmt 4.6, Leading zero omitted, Abs format (unit mm)*
G04 Created by KiCad (PCBNEW 7.0.7-7.0.7~ubuntu23.04.1) date 2023-10-12 20:52:01*
%MOMM*%
%LPD*%
G01*
G04 APERTURE LIST*
%ADD10C,0.050000*%
G04 APERTURE END LIST*
D10*
%TO.C,C5*%
X138800000Y-43020000D02*
X142200000Y-43020000D01*
X138800000Y-44980000D02*
X138800000Y-43020000D01*
X142200000Y-43020000D02*
X142200000Y-44980000D01*
X142200000Y-44980000D02*
X138800000Y-44980000D01*
%TO.C,J16*%
X122250000Y-32450000D02*
X122250000Y-19750000D01*
X122250000Y-19750000D02*
X119250000Y-19750000D01*
X119250000Y-19750000D02*
X119250000Y-17950000D01*
X119250000Y-17950000D02*
X112750000Y-17950000D01*
X112750000Y-19750000D02*
X109750000Y-19750000D01*
X112750000Y-17950000D02*
X112750000Y-19750000D01*
X109750000Y-32450000D02*
X122250000Y-32450000D01*
X109750000Y-20000000D02*
X109750000Y-32450000D01*
X109750000Y-19750000D02*
X109750000Y-20000000D01*
%TO.C,J12*%
X41730000Y-92970000D02*
X41730000Y-113200000D01*
X41730000Y-92970000D02*
X14200000Y-92970000D01*
X14200000Y-113200000D02*
X41730000Y-113200000D01*
X14200000Y-92970000D02*
X14200000Y-113200000D01*
%TO.C,C16*%
X156950000Y-42870000D02*
X160350000Y-42870000D01*
X156950000Y-44830000D02*
X156950000Y-42870000D01*
X160350000Y-42870000D02*
X160350000Y-44830000D01*
X160350000Y-44830000D02*
X156950000Y-44830000D01*
%TO.C,J13*%
X184400000Y-31800000D02*
X184400000Y-16300000D01*
X184400000Y-16300000D02*
X174400000Y-16300000D01*
X174400000Y-31800000D02*
X184400000Y-31800000D01*
X174400000Y-29900000D02*
X174400000Y-31800000D01*
X174400000Y-16300000D02*
X174400000Y-24900000D01*
X173200000Y-29900000D02*
X174400000Y-29900000D01*
X173200000Y-29900000D02*
X173200000Y-24900000D01*
X173200000Y-24900000D02*
X174400000Y-24900000D01*
%TO.C,H4*%
X33200000Y-119000000D02*
G75*
G03*
X33200000Y-119000000I-3200000J0D01*
G01*
%TO.C,J22*%
X27500000Y-54500000D02*
X27500000Y-59500000D01*
X27500000Y-59500000D02*
X32500000Y-59500000D01*
X32500000Y-54500000D02*
X27500000Y-54500000D01*
X32500000Y-59500000D02*
X32500000Y-54500000D01*
%TO.C,L5*%
X128320000Y-42920000D02*
X131280000Y-42920000D01*
X128320000Y-44380000D02*
X128320000Y-42920000D01*
X131280000Y-42920000D02*
X131280000Y-44380000D01*
X131280000Y-44380000D02*
X128320000Y-44380000D01*
%TO.C,JP1*%
X89350000Y-113850000D02*
X89350000Y-116350000D01*
X89350000Y-113850000D02*
X92650000Y-113850000D01*
X92650000Y-116350000D02*
X89350000Y-116350000D01*
X92650000Y-116350000D02*
X92650000Y-113850000D01*
%TO.C,C20*%
X160200000Y-25480000D02*
X156800000Y-25480000D01*
X160200000Y-23520000D02*
X160200000Y-25480000D01*
X156800000Y-25480000D02*
X156800000Y-23520000D01*
X156800000Y-23520000D02*
X160200000Y-23520000D01*
%TO.C,D3*%
X112150000Y-45250000D02*
X112150000Y-50750000D01*
X112150000Y-50750000D02*
X119050000Y-50750000D01*
X119050000Y-45250000D02*
X112150000Y-45250000D01*
X119050000Y-50750000D02*
X119050000Y-45250000D01*
%TO.C,H2*%
X108200000Y-67000000D02*
G75*
G03*
X108200000Y-67000000I-3200000J0D01*
G01*
%TO.C,H1*%
X33200000Y-67000000D02*
G75*
G03*
X33200000Y-67000000I-3200000J0D01*
G01*
%TO.C,J11*%
X41765000Y-72770000D02*
X41765000Y-93000000D01*
X41765000Y-72770000D02*
X14235000Y-72770000D01*
X14235000Y-93000000D02*
X41765000Y-93000000D01*
X14235000Y-72770000D02*
X14235000Y-93000000D01*
%TO.C,PS1*%
X148320000Y-88945749D02*
X148320000Y-63045749D01*
X148320000Y-63045749D02*
X122420000Y-63045749D01*
X122420000Y-88945749D02*
X148320000Y-88945749D01*
X122420000Y-63045749D02*
X122420000Y-88945749D01*
%TO.C,J10*%
X168270000Y-113225000D02*
X168270000Y-92995000D01*
X168270000Y-113225000D02*
X195800000Y-113225000D01*
X195800000Y-92995000D02*
X168270000Y-92995000D01*
X195800000Y-113225000D02*
X195800000Y-92995000D01*
%TO.C,D4*%
X137150000Y-45250000D02*
X137150000Y-50750000D01*
X137150000Y-50750000D02*
X144050000Y-50750000D01*
X144050000Y-45250000D02*
X137150000Y-45250000D01*
X144050000Y-50750000D02*
X144050000Y-45250000D01*
%TO.C,H11*%
X121580000Y-121520000D02*
G75*
G03*
X121580000Y-121520000I-2600000J0D01*
G01*
%TO.C,J19*%
X182500000Y-131500000D02*
X182500000Y-126500000D01*
X182500000Y-126500000D02*
X177500000Y-126500000D01*
X177500000Y-131500000D02*
X182500000Y-131500000D01*
X177500000Y-126500000D02*
X177500000Y-131500000D01*
%TO.C,J23*%
X32500000Y-131500000D02*
X32500000Y-126500000D01*
X32500000Y-126500000D02*
X27500000Y-126500000D01*
X27500000Y-131500000D02*
X32500000Y-131500000D01*
X27500000Y-126500000D02*
X27500000Y-131500000D01*
%TO.C,SW2*%
X97000000Y-60750000D02*
X97000000Y-73250000D01*
X97000000Y-73250000D02*
X113000000Y-73250000D01*
X113000000Y-60750000D02*
X97000000Y-60750000D01*
X113000000Y-73250000D02*
X113000000Y-60750000D01*
%TO.C,J21*%
X107500000Y-79500000D02*
X107500000Y-74500000D01*
X107500000Y-74500000D02*
X102500000Y-74500000D01*
X102500000Y-79500000D02*
X107500000Y-79500000D01*
X102500000Y-74500000D02*
X102500000Y-79500000D01*
%TO.C,R5*%
X76605000Y-48600000D02*
X73245000Y-48600000D01*
X76605000Y-46700000D02*
X76605000Y-48600000D01*
X73245000Y-48600000D02*
X73245000Y-46700000D01*
X73245000Y-46700000D02*
X76605000Y-46700000D01*
%TO.C,H7*%
X23750000Y-23000000D02*
G75*
G03*
X23750000Y-23000000I-2600000J0D01*
G01*
%TO.C,L6*%
X156880000Y-40320000D02*
X156880000Y-44880000D01*
X153720000Y-40320000D02*
X156880000Y-40320000D01*
X156880000Y-44880000D02*
X153720000Y-44880000D01*
X153720000Y-44880000D02*
X153720000Y-40320000D01*
%TO.C,J3*%
X168285000Y-52030000D02*
X168285000Y-31800000D01*
X168285000Y-52030000D02*
X195815000Y-52030000D01*
X195815000Y-31800000D02*
X168285000Y-31800000D01*
X195815000Y-52030000D02*
X195815000Y-31800000D01*
%TO.C,C1*%
X40280000Y-38600000D02*
X40280000Y-42000000D01*
X38320000Y-38600000D02*
X40280000Y-38600000D01*
X40280000Y-42000000D02*
X38320000Y-42000000D01*
X38320000Y-42000000D02*
X38320000Y-38600000D01*
%TO.C,D2*%
X87150000Y-45250000D02*
X87150000Y-50750000D01*
X87150000Y-50750000D02*
X94050000Y-50750000D01*
X94050000Y-45250000D02*
X87150000Y-45250000D01*
X94050000Y-50750000D02*
X94050000Y-45250000D01*
%TO.C,SW7*%
X58750000Y-26300000D02*
X58750000Y-41700000D01*
X58750000Y-26300000D02*
X76250000Y-26300000D01*
X76250000Y-41700000D02*
X58750000Y-41700000D01*
X76250000Y-41700000D02*
X76250000Y-26300000D01*
%TO.C,C2*%
X63800000Y-43020000D02*
X67200000Y-43020000D01*
X63800000Y-44980000D02*
X63800000Y-43020000D01*
X67200000Y-43020000D02*
X67200000Y-44980000D01*
X67200000Y-44980000D02*
X63800000Y-44980000D01*
%TO.C,C14*%
X164300000Y-44017500D02*
X161300000Y-44017500D01*
X161300000Y-44017500D02*
X161300000Y-44867500D01*
X167050000Y-44867500D02*
X164300000Y-44867500D01*
X167050000Y-44867500D02*
X168200000Y-46017500D01*
X164300000Y-44867500D02*
X164300000Y-44017500D01*
X161300000Y-44867500D02*
X158550000Y-44867500D01*
X158550000Y-44867500D02*
X157400000Y-46017500D01*
X168200000Y-46017500D02*
X168200000Y-55667500D01*
X157400000Y-46017500D02*
X157400000Y-55667500D01*
X168200000Y-55667500D02*
X164300000Y-55667500D01*
X164300000Y-55667500D02*
X164300000Y-56517500D01*
X161300000Y-55667500D02*
X157400000Y-55667500D01*
X164300000Y-56517500D02*
X161300000Y-56517500D01*
X161300000Y-56517500D02*
X161300000Y-55667500D01*
%TO.C,J18*%
X177500000Y-54500000D02*
X177500000Y-59500000D01*
X177500000Y-59500000D02*
X182500000Y-59500000D01*
X182500000Y-54500000D02*
X177500000Y-54500000D01*
X182500000Y-59500000D02*
X182500000Y-54500000D01*
%TO.C,H3*%
X183200000Y-67000000D02*
G75*
G03*
X183200000Y-67000000I-3200000J0D01*
G01*
%TO.C,R1*%
X39645000Y-29975000D02*
X43005000Y-29975000D01*
X39645000Y-31875000D02*
X39645000Y-29975000D01*
X43005000Y-29975000D02*
X43005000Y-31875000D01*
X43005000Y-31875000D02*
X39645000Y-31875000D01*
%TO.C,C15*%
X136375000Y-54975000D02*
X136375000Y-57975000D01*
X136375000Y-57975000D02*
X137225000Y-57975000D01*
X137225000Y-52225000D02*
X137225000Y-54975000D01*
X137225000Y-52225000D02*
X138375000Y-51075000D01*
X137225000Y-54975000D02*
X136375000Y-54975000D01*
X137225000Y-57975000D02*
X137225000Y-60725000D01*
X137225000Y-60725000D02*
X138375000Y-61875000D01*
X138375000Y-51075000D02*
X148025000Y-51075000D01*
X138375000Y-61875000D02*
X148025000Y-61875000D01*
X148025000Y-51075000D02*
X148025000Y-54975000D01*
X148025000Y-54975000D02*
X148875000Y-54975000D01*
X148025000Y-57975000D02*
X148025000Y-61875000D01*
X148875000Y-54975000D02*
X148875000Y-57975000D01*
X148875000Y-57975000D02*
X148025000Y-57975000D01*
%TO.C,D1*%
X62150000Y-45250000D02*
X62150000Y-50750000D01*
X62150000Y-50750000D02*
X69050000Y-50750000D01*
X69050000Y-45250000D02*
X62150000Y-45250000D01*
X69050000Y-50750000D02*
X69050000Y-45250000D01*
%TO.C,C3*%
X88800000Y-43020000D02*
X92200000Y-43020000D01*
X88800000Y-44980000D02*
X88800000Y-43020000D01*
X92200000Y-43020000D02*
X92200000Y-44980000D01*
X92200000Y-44980000D02*
X88800000Y-44980000D01*
%TO.C,J9*%
X168270000Y-93010000D02*
X168270000Y-72780000D01*
X168270000Y-93010000D02*
X195800000Y-93010000D01*
X195800000Y-72780000D02*
X168270000Y-72780000D01*
X195800000Y-93010000D02*
X195800000Y-72780000D01*
%TO.C,H5*%
X108200000Y-119000000D02*
G75*
G03*
X108200000Y-119000000I-3200000J0D01*
G01*
%TO.C,JP2*%
X191050000Y-117850000D02*
X188550000Y-117850000D01*
X191050000Y-117850000D02*
X191050000Y-121150000D01*
X188550000Y-121150000D02*
X188550000Y-117850000D01*
X188550000Y-121150000D02*
X191050000Y-121150000D01*
%TO.C,SW1*%
X22000000Y-60750000D02*
X22000000Y-73250000D01*
X22000000Y-73250000D02*
X38000000Y-73250000D01*
X38000000Y-60750000D02*
X22000000Y-60750000D01*
X38000000Y-73250000D02*
X38000000Y-60750000D01*
%TO.C,C12*%
X128300000Y-40920000D02*
X131700000Y-40920000D01*
X128300000Y-42880000D02*
X128300000Y-40920000D01*
X131700000Y-40920000D02*
X131700000Y-42880000D01*
X131700000Y-42880000D02*
X128300000Y-42880000D01*
%TO.C,U2*%
X45350000Y-30230000D02*
X45350000Y-34570000D01*
X45350000Y-34570000D02*
X56650000Y-34570000D01*
X56650000Y-30230000D02*
X45350000Y-30230000D01*
X56650000Y-34570000D02*
X56650000Y-30230000D01*
%TO.C,R3*%
X56680000Y-41675000D02*
X53320000Y-41675000D01*
X56680000Y-39775000D02*
X56680000Y-41675000D01*
X53320000Y-41675000D02*
X53320000Y-39775000D01*
X53320000Y-39775000D02*
X56680000Y-39775000D01*
%TO.C,C13*%
X164300000Y-31217500D02*
X161300000Y-31217500D01*
X161300000Y-31217500D02*
X161300000Y-32067500D01*
X167050000Y-32067500D02*
X164300000Y-32067500D01*
X167050000Y-32067500D02*
X168200000Y-33217500D01*
X164300000Y-32067500D02*
X164300000Y-31217500D01*
X161300000Y-32067500D02*
X158550000Y-32067500D01*
X158550000Y-32067500D02*
X157400000Y-33217500D01*
X168200000Y-33217500D02*
X168200000Y-42867500D01*
X157400000Y-33217500D02*
X157400000Y-42867500D01*
X168200000Y-42867500D02*
X164300000Y-42867500D01*
X164300000Y-42867500D02*
X164300000Y-43717500D01*
X161300000Y-42867500D02*
X157400000Y-42867500D01*
X164300000Y-43717500D02*
X161300000Y-43717500D01*
X161300000Y-43717500D02*
X161300000Y-42867500D01*
%TO.C,J20*%
X102500000Y-106500000D02*
X102500000Y-111500000D01*
X102500000Y-111500000D02*
X107500000Y-111500000D01*
X107500000Y-106500000D02*
X102500000Y-106500000D01*
X107500000Y-111500000D02*
X107500000Y-106500000D01*
%TO.C,R4*%
X53320000Y-41950000D02*
X56680000Y-41950000D01*
X53320000Y-43850000D02*
X53320000Y-41950000D01*
X56680000Y-41950000D02*
X56680000Y-43850000D01*
X56680000Y-43850000D02*
X53320000Y-43850000D01*
%TO.C,L1*%
X42605000Y-33355000D02*
X39645000Y-33355000D01*
X42605000Y-31895000D02*
X42605000Y-33355000D01*
X39645000Y-33355000D02*
X39645000Y-31895000D01*
X39645000Y-31895000D02*
X42605000Y-31895000D01*
%TO.C,C18*%
X157400000Y-50100000D02*
X152800000Y-50100000D01*
X157400000Y-47800000D02*
X157400000Y-50100000D01*
X152800000Y-50100000D02*
X152800000Y-47800000D01*
X152800000Y-47800000D02*
X157400000Y-47800000D01*
%TO.C,D11*%
X45350000Y-30200000D02*
X43050000Y-30200000D01*
X45350000Y-30200000D02*
X45350000Y-34600000D01*
X45350000Y-34600000D02*
X43050000Y-34600000D01*
X43050000Y-34600000D02*
X43050000Y-30200000D01*
%TO.C,C4*%
X113800000Y-43020000D02*
X117200000Y-43020000D01*
X113800000Y-44980000D02*
X113800000Y-43020000D01*
X117200000Y-43020000D02*
X117200000Y-44980000D01*
X117200000Y-44980000D02*
X113800000Y-44980000D01*
%TO.C,L2*%
X39645000Y-33370000D02*
X42605000Y-33370000D01*
X39645000Y-34830000D02*
X39645000Y-33370000D01*
X42605000Y-33370000D02*
X42605000Y-34830000D01*
X42605000Y-34830000D02*
X39645000Y-34830000D01*
%TO.C,F1*%
X172650000Y-30700000D02*
X166750000Y-30700000D01*
X172650000Y-26800000D02*
X172650000Y-30700000D01*
X166750000Y-30700000D02*
X166750000Y-26800000D01*
X166750000Y-26800000D02*
X172650000Y-26800000D01*
%TO.C,H10*%
X121500000Y-63565600D02*
G75*
G03*
X121500000Y-63565600I-2600000J0D01*
G01*
%TO.C,C17*%
X157300000Y-47780000D02*
X153900000Y-47780000D01*
X157300000Y-45820000D02*
X157300000Y-47780000D01*
X153900000Y-47780000D02*
X153900000Y-45820000D01*
X153900000Y-45820000D02*
X157300000Y-45820000D01*
%TO.C,SW6*%
X172000000Y-112750000D02*
X172000000Y-125250000D01*
X172000000Y-125250000D02*
X188000000Y-125250000D01*
X188000000Y-112750000D02*
X172000000Y-112750000D01*
X188000000Y-125250000D02*
X188000000Y-112750000D01*
%TO.C,H6*%
X183200000Y-119000000D02*
G75*
G03*
X183200000Y-119000000I-3200000J0D01*
G01*
%TO.C,SW3*%
X172000000Y-60750000D02*
X172000000Y-73250000D01*
X172000000Y-73250000D02*
X188000000Y-73250000D01*
X188000000Y-60750000D02*
X172000000Y-60750000D01*
X188000000Y-73250000D02*
X188000000Y-60750000D01*
%TO.C,SW4*%
X22000000Y-112750000D02*
X22000000Y-125250000D01*
X22000000Y-125250000D02*
X38000000Y-125250000D01*
X38000000Y-112750000D02*
X22000000Y-112750000D01*
X38000000Y-125250000D02*
X38000000Y-112750000D01*
%TO.C,H9*%
X190600000Y-23000000D02*
G75*
G03*
X190600000Y-23000000I-2600000J0D01*
G01*
%TO.C,L4*%
X50320000Y-42170000D02*
X53280000Y-42170000D01*
X50320000Y-43630000D02*
X50320000Y-42170000D01*
X53280000Y-42170000D02*
X53280000Y-43630000D01*
X53280000Y-43630000D02*
X50320000Y-43630000D01*
%TO.C,SW8*%
X133750000Y-26300000D02*
X133750000Y-41700000D01*
X133750000Y-26300000D02*
X151250000Y-26300000D01*
X151250000Y-41700000D02*
X133750000Y-41700000D01*
X151250000Y-41700000D02*
X151250000Y-26300000D01*
%TO.C,SW5*%
X97000000Y-112750000D02*
X97000000Y-125250000D01*
X97000000Y-125250000D02*
X113000000Y-125250000D01*
X113000000Y-112750000D02*
X97000000Y-112750000D01*
X113000000Y-125250000D02*
X113000000Y-112750000D01*
%TO.C,C19*%
X148925000Y-45075000D02*
X153525000Y-45075000D01*
X148925000Y-47375000D02*
X148925000Y-45075000D01*
X153525000Y-45075000D02*
X153525000Y-47375000D01*
X153525000Y-47375000D02*
X148925000Y-47375000D01*
%TO.C,D13*%
X135400000Y-45800000D02*
X135400000Y-52800000D01*
X131900000Y-45800000D02*
X135400000Y-45800000D01*
X135400000Y-52800000D02*
X131900000Y-52800000D01*
X131900000Y-52800000D02*
X131900000Y-45800000D01*
%TO.C,L3*%
X50220000Y-40045000D02*
X53180000Y-40045000D01*
X50220000Y-41505000D02*
X50220000Y-40045000D01*
X53180000Y-40045000D02*
X53180000Y-41505000D01*
X53180000Y-41505000D02*
X50220000Y-41505000D01*
%TO.C,J17*%
X100250000Y-32450000D02*
X100250000Y-19750000D01*
X100250000Y-19750000D02*
X97250000Y-19750000D01*
X97250000Y-19750000D02*
X97250000Y-17950000D01*
X97250000Y-17950000D02*
X90750000Y-17950000D01*
X90750000Y-19750000D02*
X87750000Y-19750000D01*
X90750000Y-17950000D02*
X90750000Y-19750000D01*
X87750000Y-32450000D02*
X100250000Y-32450000D01*
X87750000Y-20000000D02*
X87750000Y-32450000D01*
X87750000Y-19750000D02*
X87750000Y-20000000D01*
%TD*%
M02*
