%TF.GenerationSoftware,KiCad,Pcbnew,7.0.7-7.0.7~ubuntu23.04.1*%
%TF.CreationDate,2023-10-16T16:46:27+00:00*%
%TF.ProjectId,pedalboard-hw,70656461-6c62-46f6-9172-642d68772e6b,3.0.0-RC1*%
%TF.SameCoordinates,Original*%
%TF.FileFunction,Other,User*%
%FSLAX46Y46*%
G04 Gerber Fmt 4.6, Leading zero omitted, Abs format (unit mm)*
G04 Created by KiCad (PCBNEW 7.0.7-7.0.7~ubuntu23.04.1) date 2023-10-16 16:46:27*
%MOMM*%
%LPD*%
G01*
G04 APERTURE LIST*
%ADD10C,0.050000*%
%ADD11C,0.120000*%
G04 APERTURE END LIST*
D10*
%TO.C,C5*%
X140700000Y-43270000D02*
X144100000Y-43270000D01*
X140700000Y-45230000D02*
X140700000Y-43270000D01*
X144100000Y-43270000D02*
X144100000Y-45230000D01*
X144100000Y-45230000D02*
X140700000Y-45230000D01*
%TO.C,H13*%
X170600000Y-121500000D02*
G75*
G03*
X170600000Y-121500000I-2600000J0D01*
G01*
%TO.C,FID1*%
X26750000Y-23000000D02*
G75*
G03*
X26750000Y-23000000I-1750000J0D01*
G01*
%TO.C,J16*%
X126250000Y-32450000D02*
X126250000Y-19750000D01*
X126250000Y-19750000D02*
X123250000Y-19750000D01*
X123250000Y-19750000D02*
X123250000Y-17950000D01*
X123250000Y-17950000D02*
X116750000Y-17950000D01*
X116750000Y-19750000D02*
X113750000Y-19750000D01*
X116750000Y-17950000D02*
X116750000Y-19750000D01*
X113750000Y-32450000D02*
X126250000Y-32450000D01*
X113750000Y-20000000D02*
X113750000Y-32450000D01*
X113750000Y-19750000D02*
X113750000Y-20000000D01*
%TO.C,J15*%
X41730000Y-31770000D02*
X41730000Y-52000000D01*
X41730000Y-31770000D02*
X14200000Y-31770000D01*
X14200000Y-52000000D02*
X41730000Y-52000000D01*
X14200000Y-31770000D02*
X14200000Y-52000000D01*
%TO.C,J12*%
X41730000Y-92970000D02*
X41730000Y-113200000D01*
X41730000Y-92970000D02*
X14200000Y-92970000D01*
X14200000Y-113200000D02*
X41730000Y-113200000D01*
X14200000Y-92970000D02*
X14200000Y-113200000D01*
%TO.C,C16*%
X156950000Y-42870000D02*
X160350000Y-42870000D01*
X156950000Y-44830000D02*
X156950000Y-42870000D01*
X160350000Y-42870000D02*
X160350000Y-44830000D01*
X160350000Y-44830000D02*
X156950000Y-44830000D01*
%TO.C,J13*%
X184400000Y-31800000D02*
X184400000Y-16300000D01*
X184400000Y-16300000D02*
X174400000Y-16300000D01*
X174400000Y-31800000D02*
X184400000Y-31800000D01*
X174400000Y-29900000D02*
X174400000Y-31800000D01*
X174400000Y-16300000D02*
X174400000Y-24900000D01*
X173200000Y-29900000D02*
X174400000Y-29900000D01*
X173200000Y-29900000D02*
X173200000Y-24900000D01*
X173200000Y-24900000D02*
X174400000Y-24900000D01*
%TO.C,H4*%
X33200000Y-119000000D02*
G75*
G03*
X33200000Y-119000000I-3200000J0D01*
G01*
%TO.C,J22*%
X27500000Y-54500000D02*
X27500000Y-59500000D01*
X27500000Y-59500000D02*
X32500000Y-59500000D01*
X32500000Y-54500000D02*
X27500000Y-54500000D01*
X32500000Y-59500000D02*
X32500000Y-54500000D01*
%TO.C,JP1*%
X47900000Y-101400000D02*
X47900000Y-103900000D01*
X47900000Y-101400000D02*
X51200000Y-101400000D01*
X51200000Y-103900000D02*
X47900000Y-103900000D01*
X51200000Y-103900000D02*
X51200000Y-101400000D01*
%TO.C,C20*%
X160200000Y-25480000D02*
X156800000Y-25480000D01*
X160200000Y-23520000D02*
X160200000Y-25480000D01*
X156800000Y-25480000D02*
X156800000Y-23520000D01*
X156800000Y-23520000D02*
X160200000Y-23520000D01*
%TO.C,D3*%
X114050000Y-45250000D02*
X114050000Y-50750000D01*
X114050000Y-50750000D02*
X120950000Y-50750000D01*
X120950000Y-45250000D02*
X114050000Y-45250000D01*
X120950000Y-50750000D02*
X120950000Y-45250000D01*
%TO.C,H2*%
X108200000Y-67000000D02*
G75*
G03*
X108200000Y-67000000I-3200000J0D01*
G01*
%TO.C,H1*%
X33200000Y-67000000D02*
G75*
G03*
X33200000Y-67000000I-3200000J0D01*
G01*
%TO.C,J11*%
X41730000Y-72770000D02*
X41730000Y-93000000D01*
X41730000Y-72770000D02*
X14200000Y-72770000D01*
X14200000Y-93000000D02*
X41730000Y-93000000D01*
X14200000Y-72770000D02*
X14200000Y-93000000D01*
%TO.C,PS1*%
X148320000Y-88945749D02*
X148320000Y-63045749D01*
X148320000Y-63045749D02*
X122420000Y-63045749D01*
X122420000Y-88945749D02*
X148320000Y-88945749D01*
X122420000Y-63045749D02*
X122420000Y-88945749D01*
%TO.C,J10*%
X168270000Y-113225000D02*
X168270000Y-92995000D01*
X168270000Y-113225000D02*
X195800000Y-113225000D01*
X195800000Y-92995000D02*
X168270000Y-92995000D01*
X195800000Y-113225000D02*
X195800000Y-92995000D01*
%TO.C,D4*%
X139050000Y-45250000D02*
X139050000Y-50750000D01*
X139050000Y-50750000D02*
X145950000Y-50750000D01*
X145950000Y-45250000D02*
X139050000Y-45250000D01*
X145950000Y-50750000D02*
X145950000Y-45250000D01*
%TO.C,H11*%
X121580000Y-121520000D02*
G75*
G03*
X121580000Y-121520000I-2600000J0D01*
G01*
%TO.C,J19*%
X182500000Y-131500000D02*
X182500000Y-126500000D01*
X182500000Y-126500000D02*
X177500000Y-126500000D01*
X177500000Y-131500000D02*
X182500000Y-131500000D01*
X177500000Y-126500000D02*
X177500000Y-131500000D01*
%TO.C,J23*%
X32500000Y-131500000D02*
X32500000Y-126500000D01*
X32500000Y-126500000D02*
X27500000Y-126500000D01*
X27500000Y-131500000D02*
X32500000Y-131500000D01*
X27500000Y-126500000D02*
X27500000Y-131500000D01*
%TO.C,SW2*%
X97000000Y-60750000D02*
X97000000Y-73250000D01*
X97000000Y-73250000D02*
X113000000Y-73250000D01*
X113000000Y-60750000D02*
X97000000Y-60750000D01*
X113000000Y-73250000D02*
X113000000Y-60750000D01*
%TO.C,FID2*%
X186750000Y-128000000D02*
G75*
G03*
X186750000Y-128000000I-1750000J0D01*
G01*
%TO.C,J21*%
X107500000Y-79500000D02*
X107500000Y-74500000D01*
X107500000Y-74500000D02*
X102500000Y-74500000D01*
X102500000Y-79500000D02*
X107500000Y-79500000D01*
X102500000Y-74500000D02*
X102500000Y-79500000D01*
%TO.C,R5*%
X78505000Y-48600000D02*
X75145000Y-48600000D01*
X78505000Y-46700000D02*
X78505000Y-48600000D01*
X75145000Y-48600000D02*
X75145000Y-46700000D01*
X75145000Y-46700000D02*
X78505000Y-46700000D01*
%TO.C,H7*%
X44600000Y-23000000D02*
G75*
G03*
X44600000Y-23000000I-2600000J0D01*
G01*
%TO.C,L6*%
X156880000Y-40320000D02*
X156880000Y-44880000D01*
X153720000Y-40320000D02*
X156880000Y-40320000D01*
X156880000Y-44880000D02*
X153720000Y-44880000D01*
X153720000Y-44880000D02*
X153720000Y-40320000D01*
%TO.C,J3*%
X168285000Y-52030000D02*
X168285000Y-31800000D01*
X168285000Y-52030000D02*
X195815000Y-52030000D01*
X195815000Y-31800000D02*
X168285000Y-31800000D01*
X195815000Y-52030000D02*
X195815000Y-31800000D01*
%TO.C,C1*%
X49800000Y-27080000D02*
X46400000Y-27080000D01*
X49800000Y-25120000D02*
X49800000Y-27080000D01*
X46400000Y-27080000D02*
X46400000Y-25120000D01*
X46400000Y-25120000D02*
X49800000Y-25120000D01*
%TO.C,H8*%
X170600000Y-63500000D02*
G75*
G03*
X170600000Y-63500000I-2600000J0D01*
G01*
%TO.C,D2*%
X89050000Y-45250000D02*
X89050000Y-50750000D01*
X89050000Y-50750000D02*
X95950000Y-50750000D01*
X95950000Y-45250000D02*
X89050000Y-45250000D01*
X95950000Y-50750000D02*
X95950000Y-45250000D01*
%TO.C,SW7*%
X58750000Y-26300000D02*
X58750000Y-41700000D01*
X58750000Y-26300000D02*
X76250000Y-26300000D01*
X76250000Y-41700000D02*
X58750000Y-41700000D01*
X76250000Y-41700000D02*
X76250000Y-26300000D01*
%TO.C,C2*%
X64030000Y-45250000D02*
X64030000Y-48650000D01*
X62070000Y-45250000D02*
X64030000Y-45250000D01*
X64030000Y-48650000D02*
X62070000Y-48650000D01*
X62070000Y-48650000D02*
X62070000Y-45250000D01*
%TO.C,C14*%
X164300000Y-44017500D02*
X161300000Y-44017500D01*
X161300000Y-44017500D02*
X161300000Y-44867500D01*
X167050000Y-44867500D02*
X164300000Y-44867500D01*
X167050000Y-44867500D02*
X168200000Y-46017500D01*
X164300000Y-44867500D02*
X164300000Y-44017500D01*
X161300000Y-44867500D02*
X158550000Y-44867500D01*
X158550000Y-44867500D02*
X157400000Y-46017500D01*
X168200000Y-46017500D02*
X168200000Y-55667500D01*
X157400000Y-46017500D02*
X157400000Y-55667500D01*
X168200000Y-55667500D02*
X164300000Y-55667500D01*
X164300000Y-55667500D02*
X164300000Y-56517500D01*
X161300000Y-55667500D02*
X157400000Y-55667500D01*
X164300000Y-56517500D02*
X161300000Y-56517500D01*
X161300000Y-56517500D02*
X161300000Y-55667500D01*
%TO.C,J18*%
X177500000Y-54500000D02*
X177500000Y-59500000D01*
X177500000Y-59500000D02*
X182500000Y-59500000D01*
X182500000Y-54500000D02*
X177500000Y-54500000D01*
X182500000Y-59500000D02*
X182500000Y-54500000D01*
%TO.C,H3*%
X183200000Y-67000000D02*
G75*
G03*
X183200000Y-67000000I-3200000J0D01*
G01*
%TO.C,R1*%
X41950000Y-26920000D02*
X41950000Y-30280000D01*
X40050000Y-26920000D02*
X41950000Y-26920000D01*
X41950000Y-30280000D02*
X40050000Y-30280000D01*
X40050000Y-30280000D02*
X40050000Y-26920000D01*
%TO.C,JP3*%
X95550000Y-76450000D02*
X98050000Y-76450000D01*
X95550000Y-76450000D02*
X95550000Y-73150000D01*
X98050000Y-73150000D02*
X98050000Y-76450000D01*
X98050000Y-73150000D02*
X95550000Y-73150000D01*
%TO.C,C15*%
X136375000Y-54975000D02*
X136375000Y-57975000D01*
X136375000Y-57975000D02*
X137225000Y-57975000D01*
X137225000Y-52225000D02*
X137225000Y-54975000D01*
X137225000Y-52225000D02*
X138375000Y-51075000D01*
X137225000Y-54975000D02*
X136375000Y-54975000D01*
X137225000Y-57975000D02*
X137225000Y-60725000D01*
X137225000Y-60725000D02*
X138375000Y-61875000D01*
X138375000Y-51075000D02*
X148025000Y-51075000D01*
X138375000Y-61875000D02*
X148025000Y-61875000D01*
X148025000Y-51075000D02*
X148025000Y-54975000D01*
X148025000Y-54975000D02*
X148875000Y-54975000D01*
X148025000Y-57975000D02*
X148025000Y-61875000D01*
X148875000Y-54975000D02*
X148875000Y-57975000D01*
X148875000Y-57975000D02*
X148025000Y-57975000D01*
%TO.C,D1*%
X64050000Y-45250000D02*
X64050000Y-50750000D01*
X64050000Y-50750000D02*
X70950000Y-50750000D01*
X70950000Y-45250000D02*
X64050000Y-45250000D01*
X70950000Y-50750000D02*
X70950000Y-45250000D01*
%TO.C,C3*%
X88980000Y-45250000D02*
X88980000Y-48650000D01*
X87020000Y-45250000D02*
X88980000Y-45250000D01*
X88980000Y-48650000D02*
X87020000Y-48650000D01*
X87020000Y-48650000D02*
X87020000Y-45250000D01*
%TO.C,J9*%
X168270000Y-93010000D02*
X168270000Y-72780000D01*
X168270000Y-93010000D02*
X195800000Y-93010000D01*
X195800000Y-72780000D02*
X168270000Y-72780000D01*
X195800000Y-93010000D02*
X195800000Y-72780000D01*
%TO.C,H5*%
X108200000Y-119000000D02*
G75*
G03*
X108200000Y-119000000I-3200000J0D01*
G01*
%TO.C,JP2*%
X167650000Y-116650000D02*
X170150000Y-116650000D01*
X167650000Y-116650000D02*
X167650000Y-113350000D01*
X170150000Y-113350000D02*
X170150000Y-116650000D01*
X170150000Y-113350000D02*
X167650000Y-113350000D01*
%TO.C,SW1*%
X22000000Y-60750000D02*
X22000000Y-73250000D01*
X22000000Y-73250000D02*
X38000000Y-73250000D01*
X38000000Y-60750000D02*
X22000000Y-60750000D01*
X38000000Y-73250000D02*
X38000000Y-60750000D01*
%TO.C,U2*%
X45750000Y-30230000D02*
X45750000Y-34570000D01*
X45750000Y-34570000D02*
X57050000Y-34570000D01*
X57050000Y-30230000D02*
X45750000Y-30230000D01*
X57050000Y-34570000D02*
X57050000Y-30230000D01*
%TO.C,R3*%
X57580000Y-36562500D02*
X54220000Y-36562500D01*
X57580000Y-34662500D02*
X57580000Y-36562500D01*
X54220000Y-36562500D02*
X54220000Y-34662500D01*
X54220000Y-34662500D02*
X57580000Y-34662500D01*
%TO.C,R2*%
X47870000Y-71000000D02*
X51230000Y-71000000D01*
X47870000Y-72900000D02*
X47870000Y-71000000D01*
X51230000Y-71000000D02*
X51230000Y-72900000D01*
X51230000Y-72900000D02*
X47870000Y-72900000D01*
%TO.C,C13*%
X164300000Y-31217500D02*
X161300000Y-31217500D01*
X161300000Y-31217500D02*
X161300000Y-32067500D01*
X167050000Y-32067500D02*
X164300000Y-32067500D01*
X167050000Y-32067500D02*
X168200000Y-33217500D01*
X164300000Y-32067500D02*
X164300000Y-31217500D01*
X161300000Y-32067500D02*
X158550000Y-32067500D01*
X158550000Y-32067500D02*
X157400000Y-33217500D01*
X168200000Y-33217500D02*
X168200000Y-42867500D01*
X157400000Y-33217500D02*
X157400000Y-42867500D01*
X168200000Y-42867500D02*
X164300000Y-42867500D01*
X164300000Y-42867500D02*
X164300000Y-43717500D01*
X161300000Y-42867500D02*
X157400000Y-42867500D01*
X164300000Y-43717500D02*
X161300000Y-43717500D01*
X161300000Y-43717500D02*
X161300000Y-42867500D01*
%TO.C,D6*%
X51180000Y-68950000D02*
X47820000Y-68950000D01*
X51180000Y-67050000D02*
X51180000Y-68950000D01*
X47820000Y-68950000D02*
X47820000Y-67050000D01*
X47820000Y-67050000D02*
X51180000Y-67050000D01*
%TO.C,J20*%
X102500000Y-106500000D02*
X102500000Y-111500000D01*
X102500000Y-111500000D02*
X107500000Y-111500000D01*
X107500000Y-106500000D02*
X102500000Y-106500000D01*
X107500000Y-111500000D02*
X107500000Y-106500000D01*
%TO.C,R4*%
X54220000Y-36600000D02*
X57580000Y-36600000D01*
X54220000Y-38500000D02*
X54220000Y-36600000D01*
X57580000Y-36600000D02*
X57580000Y-38500000D01*
X57580000Y-38500000D02*
X54220000Y-38500000D01*
%TO.C,L1*%
X41970000Y-29980000D02*
X41970000Y-27020000D01*
X43430000Y-29980000D02*
X41970000Y-29980000D01*
X41970000Y-27020000D02*
X43430000Y-27020000D01*
X43430000Y-27020000D02*
X43430000Y-29980000D01*
%TO.C,C18*%
X157400000Y-50100000D02*
X152800000Y-50100000D01*
X157400000Y-47800000D02*
X157400000Y-50100000D01*
X152800000Y-50100000D02*
X152800000Y-47800000D01*
X152800000Y-47800000D02*
X157400000Y-47800000D01*
%TO.C,D11*%
X45750000Y-30200000D02*
X43450000Y-30200000D01*
X45750000Y-30200000D02*
X45750000Y-34600000D01*
X45750000Y-34600000D02*
X43450000Y-34600000D01*
X43450000Y-34600000D02*
X43450000Y-30200000D01*
%TO.C,C4*%
X114030000Y-45250000D02*
X114030000Y-48650000D01*
X112070000Y-45250000D02*
X114030000Y-45250000D01*
X114030000Y-48650000D02*
X112070000Y-48650000D01*
X112070000Y-48650000D02*
X112070000Y-45250000D01*
%TO.C,L2*%
X43430000Y-30270000D02*
X43430000Y-33230000D01*
X41970000Y-30270000D02*
X43430000Y-30270000D01*
X43430000Y-33230000D02*
X41970000Y-33230000D01*
X41970000Y-33230000D02*
X41970000Y-30270000D01*
%TO.C,F1*%
X172650000Y-30700000D02*
X166750000Y-30700000D01*
X172650000Y-26800000D02*
X172650000Y-30700000D01*
X166750000Y-30700000D02*
X166750000Y-26800000D01*
X166750000Y-26800000D02*
X172650000Y-26800000D01*
%TO.C,JP4*%
X93050000Y-76450000D02*
X95550000Y-76450000D01*
X93050000Y-76450000D02*
X93050000Y-73150000D01*
X95550000Y-73150000D02*
X95550000Y-76450000D01*
X95550000Y-73150000D02*
X93050000Y-73150000D01*
%TO.C,H10*%
X121500000Y-63565600D02*
G75*
G03*
X121500000Y-63565600I-2600000J0D01*
G01*
%TO.C,C17*%
X157300000Y-47780000D02*
X153900000Y-47780000D01*
X157300000Y-45820000D02*
X157300000Y-47780000D01*
X153900000Y-47780000D02*
X153900000Y-45820000D01*
X153900000Y-45820000D02*
X157300000Y-45820000D01*
%TO.C,SW6*%
X172000000Y-112750000D02*
X172000000Y-125250000D01*
X172000000Y-125250000D02*
X188000000Y-125250000D01*
X188000000Y-112750000D02*
X172000000Y-112750000D01*
X188000000Y-125250000D02*
X188000000Y-112750000D01*
%TO.C,H6*%
X183200000Y-119000000D02*
G75*
G03*
X183200000Y-119000000I-3200000J0D01*
G01*
D11*
%TO.C,CM4*%
X91350000Y-96400000D02*
X87570000Y-96400000D01*
X91350000Y-73600000D02*
X91350000Y-96400000D01*
X87570000Y-96400000D02*
X87570000Y-73600000D01*
X87570000Y-73600000D02*
X91350000Y-73600000D01*
X57430000Y-96400000D02*
X53650000Y-96400000D01*
X57430000Y-73600000D02*
X57430000Y-96400000D01*
X53650000Y-96400000D02*
X53650000Y-73600000D01*
X53650000Y-73600000D02*
X57430000Y-73600000D01*
D10*
%TO.C,SW3*%
X172000000Y-60750000D02*
X172000000Y-73250000D01*
X172000000Y-73250000D02*
X188000000Y-73250000D01*
X188000000Y-60750000D02*
X172000000Y-60750000D01*
X188000000Y-73250000D02*
X188000000Y-60750000D01*
%TO.C,SW4*%
X22000000Y-112750000D02*
X22000000Y-125250000D01*
X22000000Y-125250000D02*
X38000000Y-125250000D01*
X38000000Y-112750000D02*
X22000000Y-112750000D01*
X38000000Y-125250000D02*
X38000000Y-112750000D01*
%TO.C,R6*%
X47820000Y-65150000D02*
X51180000Y-65150000D01*
X47820000Y-67050000D02*
X47820000Y-65150000D01*
X51180000Y-65150000D02*
X51180000Y-67050000D01*
X51180000Y-67050000D02*
X47820000Y-67050000D01*
%TO.C,H9*%
X170600000Y-23000000D02*
G75*
G03*
X170600000Y-23000000I-2600000J0D01*
G01*
%TO.C,D5*%
X51180000Y-70950000D02*
X47820000Y-70950000D01*
X51180000Y-69050000D02*
X51180000Y-70950000D01*
X47820000Y-70950000D02*
X47820000Y-69050000D01*
X47820000Y-69050000D02*
X51180000Y-69050000D01*
%TO.C,L4*%
X51220000Y-36820000D02*
X54180000Y-36820000D01*
X51220000Y-38280000D02*
X51220000Y-36820000D01*
X54180000Y-36820000D02*
X54180000Y-38280000D01*
X54180000Y-38280000D02*
X51220000Y-38280000D01*
%TO.C,U3*%
X74800000Y-48350000D02*
X74800000Y-45550000D01*
X74800000Y-48350000D02*
X71600000Y-48350000D01*
X74800000Y-45550000D02*
X71600000Y-45550000D01*
X71600000Y-45550000D02*
X71600000Y-48350000D01*
%TO.C,SW8*%
X133750000Y-26300000D02*
X133750000Y-41700000D01*
X133750000Y-26300000D02*
X151250000Y-26300000D01*
X151250000Y-41700000D02*
X133750000Y-41700000D01*
X151250000Y-41700000D02*
X151250000Y-26300000D01*
%TO.C,SW5*%
X97000000Y-112750000D02*
X97000000Y-125250000D01*
X97000000Y-125250000D02*
X113000000Y-125250000D01*
X113000000Y-112750000D02*
X97000000Y-112750000D01*
X113000000Y-125250000D02*
X113000000Y-112750000D01*
%TO.C,U4*%
X50800000Y-61900600D02*
X48000000Y-61900600D01*
X50800000Y-61900600D02*
X50800000Y-65100600D01*
X48000000Y-61900600D02*
X48000000Y-65100600D01*
X48000000Y-65100600D02*
X50800000Y-65100600D01*
%TO.C,C19*%
X148925000Y-45075000D02*
X153525000Y-45075000D01*
X148925000Y-47375000D02*
X148925000Y-45075000D01*
X153525000Y-45075000D02*
X153525000Y-47375000D01*
X153525000Y-47375000D02*
X148925000Y-47375000D01*
%TO.C,D13*%
X135400000Y-45800000D02*
X135400000Y-52800000D01*
X131900000Y-45800000D02*
X135400000Y-45800000D01*
X135400000Y-52800000D02*
X131900000Y-52800000D01*
X131900000Y-52800000D02*
X131900000Y-45800000D01*
%TO.C,L3*%
X51220000Y-34932500D02*
X54180000Y-34932500D01*
X51220000Y-36392500D02*
X51220000Y-34932500D01*
X54180000Y-34932500D02*
X54180000Y-36392500D01*
X54180000Y-36392500D02*
X51220000Y-36392500D01*
%TO.C,J17*%
X96244500Y-32450000D02*
X96244500Y-19750000D01*
X96244500Y-19750000D02*
X93244500Y-19750000D01*
X93244500Y-19750000D02*
X93244500Y-17950000D01*
X93244500Y-17950000D02*
X86744500Y-17950000D01*
X86744500Y-19750000D02*
X83744500Y-19750000D01*
X86744500Y-17950000D02*
X86744500Y-19750000D01*
X83744500Y-32450000D02*
X96244500Y-32450000D01*
X83744500Y-20000000D02*
X83744500Y-32450000D01*
X83744500Y-19750000D02*
X83744500Y-20000000D01*
%TD*%
M02*
