%TF.GenerationSoftware,KiCad,Pcbnew,7.0.7-7.0.7~ubuntu23.04.1*%
%TF.CreationDate,2023-10-12T16:34:02+00:00*%
%TF.ProjectId,pedalboard-hw,70656461-6c62-46f6-9172-642d68772e6b,3.0.0-RC1*%
%TF.SameCoordinates,Original*%
%TF.FileFunction,Soldermask,Top*%
%TF.FilePolarity,Negative*%
%FSLAX46Y46*%
G04 Gerber Fmt 4.6, Leading zero omitted, Abs format (unit mm)*
G04 Created by KiCad (PCBNEW 7.0.7-7.0.7~ubuntu23.04.1) date 2023-10-12 16:34:02*
%MOMM*%
%LPD*%
G01*
G04 APERTURE LIST*
G04 Aperture macros list*
%AMRoundRect*
0 Rectangle with rounded corners*
0 $1 Rounding radius*
0 $2 $3 $4 $5 $6 $7 $8 $9 X,Y pos of 4 corners*
0 Add a 4 corners polygon primitive as box body*
4,1,4,$2,$3,$4,$5,$6,$7,$8,$9,$2,$3,0*
0 Add four circle primitives for the rounded corners*
1,1,$1+$1,$2,$3*
1,1,$1+$1,$4,$5*
1,1,$1+$1,$6,$7*
1,1,$1+$1,$8,$9*
0 Add four rect primitives between the rounded corners*
20,1,$1+$1,$2,$3,$4,$5,0*
20,1,$1+$1,$4,$5,$6,$7,0*
20,1,$1+$1,$6,$7,$8,$9,0*
20,1,$1+$1,$8,$9,$2,$3,0*%
%AMFreePoly0*
4,1,19,0.500000,-0.750000,0.000000,-0.750000,0.000000,-0.744911,-0.071157,-0.744911,-0.207708,-0.704816,-0.327430,-0.627875,-0.420627,-0.520320,-0.479746,-0.390866,-0.500000,-0.250000,-0.500000,0.250000,-0.479746,0.390866,-0.420627,0.520320,-0.327430,0.627875,-0.207708,0.704816,-0.071157,0.744911,0.000000,0.744911,0.000000,0.750000,0.500000,0.750000,0.500000,-0.750000,0.500000,-0.750000,
$1*%
%AMFreePoly1*
4,1,19,0.000000,0.744911,0.071157,0.744911,0.207708,0.704816,0.327430,0.627875,0.420627,0.520320,0.479746,0.390866,0.500000,0.250000,0.500000,-0.250000,0.479746,-0.390866,0.420627,-0.520320,0.327430,-0.627875,0.207708,-0.704816,0.071157,-0.744911,0.000000,-0.744911,0.000000,-0.750000,-0.500000,-0.750000,-0.500000,0.750000,0.000000,0.750000,0.000000,0.744911,0.000000,0.744911,
$1*%
%AMFreePoly2*
4,1,17,0.553688,1.285921,1.285921,0.553688,1.300800,0.517767,1.300800,-0.517767,1.285921,-0.553688,0.553688,-1.285921,0.517767,-1.300800,-0.517767,-1.300800,-0.553688,-1.285921,-1.285921,-0.553688,-1.300800,-0.517767,-1.300800,0.517767,-1.285921,0.553688,-0.553688,1.285921,-0.517767,1.300800,0.517767,1.300800,0.553688,1.285921,0.553688,1.285921,$1*%
%AMFreePoly3*
4,1,14,0.935921,1.035921,0.950800,1.000000,0.950800,-0.100000,0.935921,-0.135921,0.035921,-1.035921,0.000000,-1.050800,-0.900000,-1.050800,-0.935921,-1.035921,-0.950800,-1.000000,-0.950800,1.000000,-0.935921,1.035921,-0.900000,1.050800,0.900000,1.050800,0.935921,1.035921,0.935921,1.035921,$1*%
%AMFreePoly4*
4,1,14,0.935921,1.035921,0.950800,1.000000,0.950800,-1.000000,0.935921,-1.035921,0.900000,-1.050800,0.000000,-1.050800,-0.035921,-1.035921,-0.935921,-0.135921,-0.950800,-0.100000,-0.950800,1.000000,-0.935921,1.035921,-0.900000,1.050800,0.900000,1.050800,0.935921,1.035921,0.935921,1.035921,$1*%
G04 Aperture macros list end*
%ADD10C,0.010000*%
%ADD11RoundRect,0.250000X-0.250000X-0.475000X0.250000X-0.475000X0.250000X0.475000X-0.250000X0.475000X0*%
%ADD12O,1.200000X2.200000*%
%ADD13O,2.200000X1.200000*%
%ADD14C,2.700000*%
%ADD15C,3.000000*%
%ADD16R,4.400000X1.800000*%
%ADD17O,4.000000X1.800000*%
%ADD18O,1.800000X4.000000*%
%ADD19C,6.000000*%
%ADD20R,1.350000X1.350000*%
%ADD21O,1.350000X1.350000*%
%ADD22RoundRect,0.218750X-0.218750X-0.256250X0.218750X-0.256250X0.218750X0.256250X-0.218750X0.256250X0*%
%ADD23FreePoly0,0.000000*%
%ADD24FreePoly1,0.000000*%
%ADD25RoundRect,0.250000X0.250000X0.475000X-0.250000X0.475000X-0.250000X-0.475000X0.250000X-0.475000X0*%
%ADD26R,1.500000X1.000000*%
%ADD27R,2.250000X2.250000*%
%ADD28C,2.250000*%
%ADD29R,1.700000X1.700000*%
%ADD30O,1.700000X1.700000*%
%ADD31C,0.600000*%
%ADD32R,2.000000X1.800000*%
%ADD33RoundRect,0.250000X0.262500X0.450000X-0.262500X0.450000X-0.262500X-0.450000X0.262500X-0.450000X0*%
%ADD34RoundRect,0.250000X-1.075000X0.375000X-1.075000X-0.375000X1.075000X-0.375000X1.075000X0.375000X0*%
%ADD35RoundRect,0.250000X-0.475000X0.250000X-0.475000X-0.250000X0.475000X-0.250000X0.475000X0.250000X0*%
%ADD36FreePoly2,180.000000*%
%ADD37FreePoly2,270.000000*%
%ADD38FreePoly3,180.000000*%
%ADD39RoundRect,0.050800X0.900000X1.000000X-0.900000X1.000000X-0.900000X-1.000000X0.900000X-1.000000X0*%
%ADD40FreePoly4,180.000000*%
%ADD41R,2.000000X2.000000*%
%ADD42C,2.000000*%
%ADD43C,3.200000*%
%ADD44RoundRect,0.250000X-1.000000X1.750000X-1.000000X-1.750000X1.000000X-1.750000X1.000000X1.750000X0*%
%ADD45RoundRect,0.250000X-0.262500X-0.450000X0.262500X-0.450000X0.262500X0.450000X-0.262500X0.450000X0*%
%ADD46RoundRect,0.250000X-1.750000X-1.000000X1.750000X-1.000000X1.750000X1.000000X-1.750000X1.000000X0*%
%ADD47RoundRect,0.102000X-0.300000X-1.100000X0.300000X-1.100000X0.300000X1.100000X-0.300000X1.100000X0*%
%ADD48FreePoly0,270.000000*%
%ADD49FreePoly1,270.000000*%
%ADD50R,1.300000X0.800000*%
%ADD51RoundRect,0.218750X0.218750X0.256250X-0.218750X0.256250X-0.218750X-0.256250X0.218750X-0.256250X0*%
%ADD52RoundRect,0.250000X0.325000X0.650000X-0.325000X0.650000X-0.325000X-0.650000X0.325000X-0.650000X0*%
%ADD53RoundRect,0.250000X-0.300000X0.300000X-0.300000X-0.300000X0.300000X-0.300000X0.300000X0.300000X0*%
%ADD54RoundRect,0.250000X0.312500X1.450000X-0.312500X1.450000X-0.312500X-1.450000X0.312500X-1.450000X0*%
%ADD55RoundRect,0.102000X0.558800X0.177800X-0.558800X0.177800X-0.558800X-0.177800X0.558800X-0.177800X0*%
%ADD56RoundRect,0.250000X-0.325000X-0.650000X0.325000X-0.650000X0.325000X0.650000X-0.325000X0.650000X0*%
%ADD57RoundRect,0.250000X-0.650000X1.000000X-0.650000X-1.000000X0.650000X-1.000000X0.650000X1.000000X0*%
%ADD58C,1.350000*%
G04 APERTURE END LIST*
%TO.C,Q1*%
D10*
X161300000Y-25898370D02*
X160497320Y-25898370D01*
X160497320Y-23500000D01*
X161300000Y-23500000D01*
X161300000Y-25898370D01*
G36*
X161300000Y-25898370D02*
G01*
X160497320Y-25898370D01*
X160497320Y-23500000D01*
X161300000Y-23500000D01*
X161300000Y-25898370D01*
G37*
X161300000Y-31101440D02*
X160499130Y-31101440D01*
X160499130Y-28700000D01*
X161300000Y-28700000D01*
X161300000Y-31101440D01*
G36*
X161300000Y-31101440D02*
G01*
X160499130Y-31101440D01*
X160499130Y-28700000D01*
X161300000Y-28700000D01*
X161300000Y-31101440D01*
G37*
X162550000Y-25897440D02*
X161748080Y-25897440D01*
X161748080Y-23500000D01*
X162550000Y-23500000D01*
X162550000Y-25897440D01*
G36*
X162550000Y-25897440D02*
G01*
X161748080Y-25897440D01*
X161748080Y-23500000D01*
X162550000Y-23500000D01*
X162550000Y-25897440D01*
G37*
X162550000Y-31102790D02*
X161749230Y-31102790D01*
X161749230Y-28700000D01*
X162550000Y-28700000D01*
X162550000Y-31102790D01*
G36*
X162550000Y-31102790D02*
G01*
X161749230Y-31102790D01*
X161749230Y-28700000D01*
X162550000Y-28700000D01*
X162550000Y-31102790D01*
G37*
X163850000Y-25898000D02*
X163050357Y-25898000D01*
X163050357Y-23500000D01*
X163850000Y-23500000D01*
X163850000Y-25898000D01*
G36*
X163850000Y-25898000D02*
G01*
X163050357Y-25898000D01*
X163050357Y-23500000D01*
X163850000Y-23500000D01*
X163850000Y-25898000D01*
G37*
X163850000Y-31107460D02*
X163050490Y-31107460D01*
X163050490Y-28700000D01*
X163850000Y-28700000D01*
X163850000Y-31107460D01*
G36*
X163850000Y-31107460D02*
G01*
X163050490Y-31107460D01*
X163050490Y-28700000D01*
X163850000Y-28700000D01*
X163850000Y-31107460D01*
G37*
X165100000Y-25898280D02*
X164301840Y-25898280D01*
X164301840Y-23500000D01*
X165100000Y-23500000D01*
X165100000Y-25898280D01*
G36*
X165100000Y-25898280D02*
G01*
X164301840Y-25898280D01*
X164301840Y-23500000D01*
X165100000Y-23500000D01*
X165100000Y-25898280D01*
G37*
%TD*%
D11*
%TO.C,C5*%
X139550000Y-44000000D03*
X141450000Y-44000000D03*
%TD*%
D12*
%TO.C,J16*%
X121000000Y-29500000D03*
X118500000Y-29500000D03*
D13*
X116000000Y-24500000D03*
D12*
X111000000Y-29500000D03*
X113500000Y-29500000D03*
%TD*%
D14*
%TO.C,H8*%
X133000000Y-23000000D03*
%TD*%
D15*
%TO.C,J12*%
X28050000Y-111200000D03*
X28050000Y-94970000D03*
X21700000Y-111200000D03*
X21700000Y-94970000D03*
X34400000Y-111200000D03*
X34400000Y-94970000D03*
%TD*%
D11*
%TO.C,C16*%
X157700000Y-43850000D03*
X159600000Y-43850000D03*
%TD*%
D16*
%TO.C,J13*%
X179400000Y-30400000D03*
D17*
X179400000Y-24600000D03*
D18*
X174600000Y-27400000D03*
%TD*%
D19*
%TO.C,H4*%
X30000000Y-119000000D03*
%TD*%
D20*
%TO.C,J22*%
X41000000Y-66000000D03*
D21*
X41000000Y-68000000D03*
X39000000Y-66000000D03*
X39000000Y-68000000D03*
%TD*%
D22*
%TO.C,L5*%
X129012500Y-43650000D03*
X130587500Y-43650000D03*
%TD*%
D23*
%TO.C,JP1*%
X90350000Y-115100000D03*
D24*
X91650000Y-115100000D03*
%TD*%
D25*
%TO.C,C20*%
X159450000Y-24500000D03*
X157550000Y-24500000D03*
%TD*%
D26*
%TO.C,D3*%
X118050000Y-49600000D03*
X118050000Y-46400000D03*
X113150000Y-46400000D03*
X113150000Y-49600000D03*
%TD*%
D19*
%TO.C,H2*%
X105000000Y-67000000D03*
%TD*%
%TO.C,H1*%
X30000000Y-67000000D03*
%TD*%
D15*
%TO.C,J11*%
X28085000Y-91000000D03*
X28085000Y-74770000D03*
X21735000Y-91000000D03*
X21735000Y-74770000D03*
X34435000Y-91000000D03*
X34435000Y-74770000D03*
%TD*%
D27*
%TO.C,PS1*%
X145530000Y-86155749D03*
D28*
X145530000Y-78535749D03*
X145530000Y-73455749D03*
X125210000Y-65835749D03*
X125210000Y-75995749D03*
X125210000Y-86155749D03*
%TD*%
D15*
%TO.C,J10*%
X181950000Y-94995000D03*
X181950000Y-111225000D03*
X188300000Y-94995000D03*
X188300000Y-111225000D03*
X175600000Y-94995000D03*
X175600000Y-111225000D03*
%TD*%
D26*
%TO.C,D4*%
X143050000Y-49600000D03*
X143050000Y-46400000D03*
X138150000Y-46400000D03*
X138150000Y-49600000D03*
%TD*%
D14*
%TO.C,H11*%
X118980000Y-121520000D03*
%TD*%
D20*
%TO.C,J19*%
X169000000Y-120000000D03*
D21*
X169000000Y-118000000D03*
X171000000Y-120000000D03*
X171000000Y-118000000D03*
%TD*%
D29*
%TO.C,J7*%
X49590000Y-106320000D03*
D30*
X49590000Y-103780000D03*
X52130000Y-106320000D03*
X52130000Y-103780000D03*
X54670000Y-106320000D03*
X54670000Y-103780000D03*
X57210000Y-106320000D03*
X57210000Y-103780000D03*
X59750000Y-106320000D03*
X59750000Y-103780000D03*
X62290000Y-106320000D03*
X62290000Y-103780000D03*
X64830000Y-106320000D03*
X64830000Y-103780000D03*
X67370000Y-106320000D03*
X67370000Y-103780000D03*
X69910000Y-106320000D03*
X69910000Y-103780000D03*
X72450000Y-106320000D03*
X72450000Y-103780000D03*
X74990000Y-106320000D03*
X74990000Y-103780000D03*
X77530000Y-106320000D03*
X77530000Y-103780000D03*
X80070000Y-106320000D03*
X80070000Y-103780000D03*
X82610000Y-106320000D03*
X82610000Y-103780000D03*
X85150000Y-106320000D03*
X85150000Y-103780000D03*
X87690000Y-106320000D03*
X87690000Y-103780000D03*
X90230000Y-106320000D03*
X90230000Y-103780000D03*
X92770000Y-106320000D03*
X92770000Y-103780000D03*
X95310000Y-106320000D03*
X95310000Y-103780000D03*
X97850000Y-106320000D03*
X97850000Y-103780000D03*
%TD*%
D31*
%TO.C,H12*%
X80100000Y-21075000D03*
X80100000Y-22075000D03*
X80100000Y-23075000D03*
X80100000Y-24075000D03*
X80100000Y-25075000D03*
X80100000Y-26075000D03*
X80100000Y-30075000D03*
X80100000Y-31075000D03*
X80100000Y-32075000D03*
X80100000Y-33075000D03*
X80100000Y-34075000D03*
X80100000Y-35075000D03*
X80100000Y-36075000D03*
X81100000Y-36075000D03*
X82100000Y-36075000D03*
X83100000Y-36075000D03*
X84100000Y-36075000D03*
X85100000Y-36075000D03*
X86100000Y-36075000D03*
X87100000Y-36075000D03*
X88100000Y-36075000D03*
X90100000Y-36075000D03*
X91100000Y-36075000D03*
X92100000Y-36075000D03*
X93100000Y-36075000D03*
X94100000Y-36075000D03*
X95100000Y-36075000D03*
X96100000Y-36075000D03*
X97100000Y-36075000D03*
X98100000Y-36075000D03*
X100100000Y-36075000D03*
X101100000Y-36075000D03*
X102100000Y-36075000D03*
X103100000Y-36075000D03*
X104100000Y-36075000D03*
X105100000Y-36075000D03*
X106100000Y-36075000D03*
X107100000Y-36075000D03*
X108100000Y-36075000D03*
X109100000Y-36075000D03*
X110100000Y-36075000D03*
X112100000Y-36075000D03*
X113100000Y-36075000D03*
X114100000Y-36075000D03*
X115100000Y-36075000D03*
X116100000Y-36075000D03*
X117100000Y-36075000D03*
X118100000Y-36075000D03*
X119100000Y-36075000D03*
X120100000Y-36075000D03*
X122100000Y-36075000D03*
X123100000Y-36075000D03*
X124100000Y-36075000D03*
X125100000Y-36075000D03*
X126100000Y-36075000D03*
X127100000Y-36075000D03*
X128100000Y-36075000D03*
X129100000Y-36075000D03*
X130100000Y-21075000D03*
X130100000Y-22075000D03*
X130100000Y-23075000D03*
X130100000Y-24075000D03*
X130100000Y-25075000D03*
X130100000Y-26075000D03*
X130100000Y-27075000D03*
X130100000Y-28075000D03*
X130100000Y-29075000D03*
X130100000Y-30075000D03*
X130100000Y-31075000D03*
X130100000Y-32075000D03*
X130100000Y-33075000D03*
X130100000Y-34075000D03*
X130100000Y-35075000D03*
X130100000Y-36075000D03*
%TD*%
D20*
%TO.C,J23*%
X41000000Y-118000000D03*
D21*
X41000000Y-120000000D03*
X39000000Y-118000000D03*
X39000000Y-120000000D03*
%TD*%
D32*
%TO.C,SW2*%
X98000000Y-64500000D03*
X112000000Y-64500000D03*
X98000000Y-69500000D03*
X112000000Y-69500000D03*
%TD*%
D20*
%TO.C,J21*%
X94000000Y-68000000D03*
D21*
X94000000Y-66000000D03*
X96000000Y-68000000D03*
X96000000Y-66000000D03*
%TD*%
D33*
%TO.C,R5*%
X75837500Y-47650000D03*
X74012500Y-47650000D03*
%TD*%
D14*
%TO.C,H7*%
X77000000Y-23000000D03*
%TD*%
D34*
%TO.C,L6*%
X155300000Y-41200000D03*
X155300000Y-44000000D03*
%TD*%
D15*
%TO.C,J3*%
X181965000Y-33800000D03*
X181965000Y-50030000D03*
X188315000Y-33800000D03*
X188315000Y-50030000D03*
X175615000Y-33800000D03*
X175615000Y-50030000D03*
%TD*%
D35*
%TO.C,C1*%
X39300000Y-39350000D03*
X39300000Y-41250000D03*
%TD*%
D36*
%TO.C,J1*%
X108500000Y-32000000D03*
D37*
X116000000Y-32000000D03*
D36*
X123500000Y-32000000D03*
X111000000Y-34500000D03*
X121000000Y-34500000D03*
D38*
X118500000Y-22000000D03*
D39*
X121000000Y-22000000D03*
X111000000Y-22000000D03*
D40*
X113500000Y-22000000D03*
%TD*%
D26*
%TO.C,D2*%
X93050000Y-49600000D03*
X93050000Y-46400000D03*
X88150000Y-46400000D03*
X88150000Y-49600000D03*
%TD*%
D41*
%TO.C,SW7*%
X60250000Y-31500000D03*
D42*
X60250000Y-36500000D03*
X60250000Y-34000000D03*
D43*
X67750000Y-28400000D03*
X67750000Y-39600000D03*
D42*
X74750000Y-36500000D03*
X74750000Y-31500000D03*
%TD*%
D11*
%TO.C,C2*%
X64550000Y-44000000D03*
X66450000Y-44000000D03*
%TD*%
D44*
%TO.C,C14*%
X162800000Y-46267500D03*
X162800000Y-54267500D03*
%TD*%
D20*
%TO.C,J18*%
X169000000Y-68000000D03*
D21*
X169000000Y-66000000D03*
X171000000Y-68000000D03*
X171000000Y-66000000D03*
%TD*%
D19*
%TO.C,H3*%
X180000000Y-67000000D03*
%TD*%
D45*
%TO.C,R1*%
X40412500Y-30925000D03*
X42237500Y-30925000D03*
%TD*%
D46*
%TO.C,C15*%
X138625000Y-56475000D03*
X146625000Y-56475000D03*
%TD*%
D26*
%TO.C,D1*%
X68050000Y-49600000D03*
X68050000Y-46400000D03*
X63150000Y-46400000D03*
X63150000Y-49600000D03*
%TD*%
D11*
%TO.C,C3*%
X89550000Y-44000000D03*
X91450000Y-44000000D03*
%TD*%
D47*
%TO.C,Q1*%
X164705000Y-29900000D03*
%TD*%
D15*
%TO.C,J9*%
X181950000Y-74780000D03*
X181950000Y-91010000D03*
X188300000Y-74780000D03*
X188300000Y-91010000D03*
X175600000Y-74780000D03*
X175600000Y-91010000D03*
%TD*%
D19*
%TO.C,H5*%
X105000000Y-119000000D03*
%TD*%
D48*
%TO.C,JP2*%
X189800000Y-118850000D03*
D49*
X189800000Y-120150000D03*
%TD*%
D32*
%TO.C,SW1*%
X23000000Y-64500000D03*
X37000000Y-64500000D03*
X23000000Y-69500000D03*
X37000000Y-69500000D03*
%TD*%
D11*
%TO.C,C12*%
X129050000Y-41900000D03*
X130950000Y-41900000D03*
%TD*%
D50*
%TO.C,U2*%
X46250000Y-31130000D03*
X46250000Y-32400000D03*
X46250000Y-33670000D03*
X55750000Y-33670000D03*
X55750000Y-32400000D03*
X55750000Y-31130000D03*
%TD*%
D33*
%TO.C,R3*%
X55912500Y-40725000D03*
X54087500Y-40725000D03*
%TD*%
D44*
%TO.C,C13*%
X162800000Y-33467500D03*
X162800000Y-41467500D03*
%TD*%
D20*
%TO.C,J20*%
X104000000Y-108000000D03*
D21*
X106000000Y-108000000D03*
X104000000Y-110000000D03*
X106000000Y-110000000D03*
%TD*%
D45*
%TO.C,R4*%
X54087500Y-42900000D03*
X55912500Y-42900000D03*
%TD*%
D51*
%TO.C,L1*%
X41912500Y-32625000D03*
X40337500Y-32625000D03*
%TD*%
D52*
%TO.C,C18*%
X156575000Y-48950000D03*
X153625000Y-48950000D03*
%TD*%
D53*
%TO.C,D11*%
X44200000Y-31000000D03*
X44200000Y-33800000D03*
%TD*%
D11*
%TO.C,C4*%
X114550000Y-44000000D03*
X116450000Y-44000000D03*
%TD*%
D22*
%TO.C,L2*%
X40337500Y-34100000D03*
X41912500Y-34100000D03*
%TD*%
D54*
%TO.C,F1*%
X171837500Y-28750000D03*
X167562500Y-28750000D03*
%TD*%
D14*
%TO.C,H10*%
X118900000Y-63565600D03*
%TD*%
D25*
%TO.C,C17*%
X156550000Y-46800000D03*
X154650000Y-46800000D03*
%TD*%
D32*
%TO.C,SW6*%
X173000000Y-116500000D03*
X187000000Y-116500000D03*
X173000000Y-121500000D03*
X187000000Y-121500000D03*
%TD*%
D19*
%TO.C,H6*%
X180000000Y-119000000D03*
%TD*%
D32*
%TO.C,SW3*%
X173000000Y-64500000D03*
X187000000Y-64500000D03*
X173000000Y-69500000D03*
X187000000Y-69500000D03*
%TD*%
%TO.C,SW4*%
X23000000Y-116500000D03*
X37000000Y-116500000D03*
X23000000Y-121500000D03*
X37000000Y-121500000D03*
%TD*%
D14*
%TO.C,H9*%
X168000000Y-23000000D03*
%TD*%
D22*
%TO.C,L4*%
X51012500Y-42900000D03*
X52587500Y-42900000D03*
%TD*%
D55*
%TO.C,U3*%
X72265200Y-47610400D03*
X72265200Y-46950000D03*
X72265200Y-46289600D03*
X70334800Y-46289600D03*
X70334800Y-47610400D03*
%TD*%
D41*
%TO.C,SW8*%
X135250000Y-31500000D03*
D42*
X135250000Y-36500000D03*
X135250000Y-34000000D03*
D43*
X142750000Y-28400000D03*
X142750000Y-39600000D03*
D42*
X149750000Y-36500000D03*
X149750000Y-31500000D03*
%TD*%
D32*
%TO.C,SW5*%
X98000000Y-116500000D03*
X112000000Y-116500000D03*
X98000000Y-121500000D03*
X112000000Y-121500000D03*
%TD*%
D56*
%TO.C,C19*%
X149750000Y-46225000D03*
X152700000Y-46225000D03*
%TD*%
D36*
%TO.C,J2*%
X86505500Y-32000000D03*
D37*
X94005500Y-32000000D03*
D36*
X101505500Y-32000000D03*
X89005500Y-34500000D03*
X99005500Y-34500000D03*
D38*
X96505500Y-22000000D03*
D39*
X99005500Y-22000000D03*
X89005500Y-22000000D03*
D40*
X91505500Y-22000000D03*
%TD*%
D57*
%TO.C,D13*%
X133650000Y-47300000D03*
X133650000Y-51300000D03*
%TD*%
D22*
%TO.C,L3*%
X50912500Y-40775000D03*
X52487500Y-40775000D03*
%TD*%
D12*
%TO.C,J17*%
X99000000Y-29500000D03*
X96500000Y-29500000D03*
D13*
X94000000Y-24500000D03*
D12*
X89000000Y-29500000D03*
X91500000Y-29500000D03*
%TD*%
D29*
%TO.C,J6*%
X113625000Y-97780000D03*
D30*
X113625000Y-95240000D03*
X113625000Y-92700000D03*
X113625000Y-90160000D03*
%TD*%
D29*
%TO.C,J14*%
X135075000Y-59850000D03*
D30*
X135075000Y-57310000D03*
%TD*%
D58*
%TO.C,J5*%
X127000000Y-48000000D03*
D21*
X127000000Y-50000000D03*
%TD*%
D30*
%TO.C,U1*%
X127130000Y-57890000D03*
X124590000Y-57890000D03*
D29*
X122050000Y-57890000D03*
D30*
X119510000Y-57890000D03*
X116970000Y-57890000D03*
X114430000Y-57890000D03*
X111890000Y-57890000D03*
D29*
X109350000Y-57890000D03*
D30*
X106810000Y-57890000D03*
X104270000Y-57890000D03*
X101730000Y-57890000D03*
X99190000Y-57890000D03*
D29*
X96650000Y-57890000D03*
D30*
X94110000Y-57890000D03*
X91570000Y-57890000D03*
X89030000Y-57890000D03*
X86490000Y-57890000D03*
D29*
X83950000Y-57890000D03*
D30*
X81410000Y-57890000D03*
X78870000Y-57890000D03*
X78870000Y-40110000D03*
X81410000Y-40110000D03*
D29*
X83950000Y-40110000D03*
D30*
X86490000Y-40110000D03*
X89030000Y-40110000D03*
X91570000Y-40110000D03*
X94110000Y-40110000D03*
D29*
X96650000Y-40110000D03*
D30*
X99190000Y-40110000D03*
X101730000Y-40110000D03*
X104270000Y-40110000D03*
X106810000Y-40110000D03*
D29*
X109350000Y-40110000D03*
D30*
X111890000Y-40110000D03*
X114430000Y-40110000D03*
X116970000Y-40110000D03*
X119510000Y-40110000D03*
D29*
X122050000Y-40110000D03*
D30*
X124590000Y-40110000D03*
X127130000Y-40110000D03*
%TD*%
D29*
%TO.C,J4*%
X43525000Y-123025000D03*
D30*
X43525000Y-120485000D03*
X43525000Y-117945000D03*
%TD*%
D29*
%TO.C,J8*%
X120250000Y-68375600D03*
D30*
X117710000Y-68375600D03*
X120250000Y-70915600D03*
X117710000Y-70915600D03*
X120250000Y-73455600D03*
X117710000Y-73455600D03*
X120250000Y-75995600D03*
X117710000Y-75995600D03*
X120250000Y-78535600D03*
X117710000Y-78535600D03*
X120250000Y-81075600D03*
X117710000Y-81075600D03*
X120250000Y-83615600D03*
X117710000Y-83615600D03*
X120250000Y-86155600D03*
X117710000Y-86155600D03*
X120250000Y-88695600D03*
X117710000Y-88695600D03*
X120250000Y-91235600D03*
X117710000Y-91235600D03*
X120250000Y-93775600D03*
X117710000Y-93775600D03*
X120250000Y-96315600D03*
X117710000Y-96315600D03*
X120250000Y-98855600D03*
X117710000Y-98855600D03*
X120250000Y-101395600D03*
X117710000Y-101395600D03*
X120250000Y-103935600D03*
X117710000Y-103935600D03*
X120250000Y-106475600D03*
X117710000Y-106475600D03*
X120250000Y-109015600D03*
X117710000Y-109015600D03*
X120250000Y-111555600D03*
X117710000Y-111555600D03*
X120250000Y-114095600D03*
X117710000Y-114095600D03*
X120250000Y-116635600D03*
X117710000Y-116635600D03*
D29*
X156555000Y-74845600D03*
D30*
X154015000Y-74845600D03*
X156555000Y-77385600D03*
X154015000Y-77385600D03*
X156555000Y-79925600D03*
X154015000Y-79925600D03*
D29*
X152380000Y-119150600D03*
D30*
X152380000Y-121690600D03*
X154920000Y-119150600D03*
X154920000Y-121690600D03*
X157460000Y-119150600D03*
X157460000Y-121690600D03*
%TD*%
D29*
%TO.C,J15*%
X44850000Y-44925000D03*
D30*
X47390000Y-44925000D03*
X44850000Y-42385000D03*
X47390000Y-42385000D03*
X44850000Y-39845000D03*
X47390000Y-39845000D03*
%TD*%
M02*
