<?xml version="1.0" standalone="no"?>
 <!DOCTYPE svg PUBLIC "-//W3C//DTD SVG 1.1//EN" 
 "http://www.w3.org/Graphics/SVG/1.1/DTD/svg11.dtd"> 
<svg
  xmlns:svg="http://www.w3.org/2000/svg"
  xmlns="http://www.w3.org/2000/svg"
  xmlns:xlink="http://www.w3.org/1999/xlink"
  version="1.1"
  width="297.0022mm" height="210.0072mm" viewBox="0.0000 0.0000 297.0022 210.0072">
<title>SVG Image created as pedalboard-hw-Edge_Cuts.svg date 2023/06/09 15:10:57 </title>
  <desc>Image generated by PCBNEW </desc>
<g style="fill:#000000; fill-opacity:1.0000;stroke:#000000; stroke-opacity:1.0000;
stroke-linecap:round; stroke-linejoin:round;"
 transform="translate(0 0) scale(1 1)">
</g>
<g style="fill:#000000; fill-opacity:0.0; 
stroke:#000000; stroke-width:0.0000; stroke-opacity:1; 
stroke-linecap:round; stroke-linejoin:round;">
</g>
<g style="fill:#000000; fill-opacity:0.0; 
stroke:#000000; stroke-width:0.1000; stroke-opacity:1; 
stroke-linecap:round; stroke-linejoin:round;">
<path d="M118.2000 20.0000
L189.0000 20.0000
" />
<path d="M20.0000 124.0000
L20.0000 61.0000
" />
<path d="M21.0000 125.0000
L189.0000 125.0000
" />
<path d="M74.0000 21.0000
L74.0000 25.0000
" />
<path d="M75.0000 20.0000 A1.0000 1.0000 0.0 0 0 74.0000 21.0000" />
<path d="M113.8000 21.0000 A0.4000 0.4000 0.0 0 0 114.2000 21.4000" />
<path d="M20.0000 124.0000 A1.0000 1.0000 0.0 0 0 21.0000 125.0000" />
<path d="M91.8000 21.0000 A0.4000 0.4000 0.0 0 0 92.2000 21.4000" />
<path d="M114.2000 21.4000
L117.8000 21.4000
" />
<path d="M58.0000 59.0000
L58.0000 27.0000
" />
<path d="M21.0000 60.0000
L57.0000 60.0000
" />
<path d="M59.0000 26.0000 A1.0000 1.0000 0.0 0 0 58.0000 27.0000" />
<path d="M190.0000 21.0000
L190.0000 124.0000
" />
<path d="M113.8000 20.0000
L113.8000 21.0000
" />
<path d="M96.2000 21.0000
L96.2000 20.0000
" />
<path d="M96.2000 20.0000
L113.8000 20.0000
" />
<path d="M190.0000 21.0000 A1.0000 1.0000 0.0 0 0 189.0000 20.0000" />
<path d="M95.8000 21.4000 A0.4000 0.4000 0.0 0 0 96.2000 21.0000" />
<path d="M73.0000 26.0000
L59.0000 26.0000
" />
<path d="M91.8000 20.0000
L91.8000 21.0000
" />
<path d="M21.0000 60.0000 A1.0000 1.0000 0.0 0 0 20.0000 61.0000" />
<path d="M73.0000 26.0000 A1.0000 1.0000 0.0 0 0 74.0000 25.0000" />
<path d="M92.2000 21.4000
L95.8000 21.4000
" />
<path d="M57.0000 60.0000 A1.0000 1.0000 0.0 0 0 58.0000 59.0000" />
<path d="M91.8000 20.0000
L75.0000 20.0000
" />
<path d="M189.0000 125.0000 A1.0000 1.0000 0.0 0 0 190.0000 124.0000" />
<path d="M117.8000 21.4000 A0.4000 0.4000 0.0 0 0 118.2000 21.0000" />
<path d="M118.2000 21.0000
L118.2000 20.0000
" />
<g >
</g>
<g >
</g>
<g >
</g>
<g >
</g>
<g >
</g>
<g >
</g>
<g >
</g>
<g >
</g>
<g >
</g>
<g >
</g>
<g >
</g>
<g >
</g>
<g >
</g>
<g >
</g>
<g >
</g>
<g >
</g>
<g >
</g>
<g >
</g>
<g >
</g>
<g >
</g>
<g >
</g>
<g >
</g>
<g >
</g>
<g >
</g>
<g >
</g>
<g >
</g>
<g >
</g>
<g >
</g>
<g >
</g>
<g >
</g>
<g >
</g>
<g >
</g>
<g >
</g>
<g >
</g>
<g >
</g>
<g >
</g>
<g >
</g>
<g >
</g>
<g >
</g>
<g >
</g>
<g >
</g>
<g >
</g>
<g >
</g>
<g >
</g>
<g >
</g>
<g >
</g>
<g >
</g>
<g >
</g>
<g >
</g>
<g >
</g>
<g >
</g>
<g >
</g>
<g >
</g>
<g >
</g>
<g >
</g>
<g >
</g>
<g >
</g>
<g >
</g>
<g >
</g>
<g >
</g>
<g >
</g>
<g >
</g>
<g >
</g>
<g >
</g>
<g >
</g>
<g >
</g>
<g >
</g>
<g >
</g>
<g >
</g>
<g >
</g>
<g >
</g>
<g >
</g>
<g >
</g>
<g >
</g>
<g >
</g>
<g >
</g>
<g >
</g>
<g >
</g>
<g >
</g>
<g >
</g>
<g >
</g>
<g >
</g>
<g >
</g>
<g >
</g>
<g >
</g>
<g >
</g>
<g >
</g>
<g >
</g>
<g >
</g>
<g >
</g>
<g >
</g>
<g >
</g>
<g >
</g>
<g >
</g>
<g >
</g>
<g >
</g>
<g >
</g>
</g> 
</svg>
