M48
; DRILL file {KiCad 7.0.7-7.0.7~ubuntu23.04.1} date Sun Sep 10 23:30:33 2023
; FORMAT={-:-/ absolute / metric / decimal}
; #@! TF.CreationDate,2023-09-10T23:30:33+00:00
; #@! TF.GenerationSoftware,Kicad,Pcbnew,7.0.7-7.0.7~ubuntu23.04.1
; #@! TF.FileFunction,Plated,1,4,PTH
FMAT,2
METRIC
; #@! TA.AperFunction,Plated,PTH,ViaDrill
T1C0.400
; #@! TA.AperFunction,Plated,PTH,ComponentDrill
T2C0.400
; #@! TA.AperFunction,Plated,PTH,ComponentDrill
T3C0.508
; #@! TA.AperFunction,Plated,PTH,ComponentDrill
T4C0.800
; #@! TA.AperFunction,Plated,PTH,ComponentDrill
T5C1.000
; #@! TA.AperFunction,Plated,PTH,ComponentDrill
T6C1.020
; #@! TA.AperFunction,Plated,PTH,ComponentDrill
T7C1.321
; #@! TA.AperFunction,Plated,PTH,ComponentDrill
T8C1.400
; #@! TA.AperFunction,Plated,PTH,ComponentDrill
T9C1.500
; #@! TA.AperFunction,Plated,PTH,ComponentDrill
T10C2.600
%
G90
G05
T1
X40.0Y-105.9
X46.3Y-109.0
X47.1Y-116.3
X178.8Y-93.8
T3
X127.0Y-48.0
X127.0Y-50.0
T4
X39.0Y-66.0
X39.0Y-68.0
X39.0Y-118.0
X39.0Y-120.0
X41.0Y-66.0
X41.0Y-68.0
X41.0Y-118.0
X41.0Y-120.0
X94.0Y-66.0
X94.0Y-68.0
X96.0Y-66.0
X96.0Y-68.0
X104.0Y-108.0
X104.0Y-110.0
X106.0Y-108.0
X106.0Y-110.0
X169.0Y-66.0
X169.0Y-68.0
X169.0Y-118.0
X169.0Y-120.0
X171.0Y-66.0
X171.0Y-68.0
X171.0Y-118.0
X171.0Y-120.0
T5
X33.11Y-30.975
X33.11Y-33.515
X33.11Y-36.055
X35.65Y-30.975
X35.65Y-33.515
X35.65Y-36.055
X49.59Y-103.78
X49.59Y-106.32
X50.785Y-82.963
X52.13Y-103.78
X52.13Y-106.32
X53.325Y-82.963
X54.67Y-103.78
X54.67Y-106.32
X55.865Y-82.963
X57.21Y-103.78
X57.21Y-106.32
X59.75Y-103.78
X59.75Y-106.32
X60.25Y-31.5
X60.25Y-34.0
X60.25Y-36.5
X62.29Y-103.78
X62.29Y-106.32
X64.83Y-103.78
X64.83Y-106.32
X67.37Y-103.78
X67.37Y-106.32
X69.91Y-103.78
X69.91Y-106.32
X72.45Y-103.78
X72.45Y-106.32
X74.75Y-31.5
X74.75Y-36.5
X74.99Y-103.78
X74.99Y-106.32
X77.53Y-103.78
X77.53Y-106.32
X80.07Y-103.78
X80.07Y-106.32
X82.61Y-103.78
X82.61Y-106.32
X85.15Y-103.78
X85.15Y-106.32
X87.69Y-103.78
X87.69Y-106.32
X90.23Y-103.78
X90.23Y-106.32
X92.77Y-103.78
X92.77Y-106.32
X95.31Y-103.78
X95.31Y-106.32
X97.85Y-103.78
X97.85Y-106.32
X113.625Y-90.16
X113.625Y-92.7
X113.625Y-95.24
X113.625Y-97.78
X117.71Y-68.376
X117.71Y-70.916
X117.71Y-73.456
X117.71Y-75.996
X117.71Y-78.536
X117.71Y-81.076
X117.71Y-83.616
X117.71Y-86.156
X117.71Y-88.696
X117.71Y-91.236
X117.71Y-93.776
X117.71Y-96.316
X117.71Y-98.856
X117.71Y-101.396
X117.71Y-103.936
X117.71Y-106.476
X117.71Y-109.016
X117.71Y-111.556
X117.71Y-114.096
X117.71Y-116.636
X120.25Y-68.376
X120.25Y-70.916
X120.25Y-73.456
X120.25Y-75.996
X120.25Y-78.536
X120.25Y-81.076
X120.25Y-83.616
X120.25Y-86.156
X120.25Y-88.696
X120.25Y-91.236
X120.25Y-93.776
X120.25Y-96.316
X120.25Y-98.856
X120.25Y-101.396
X120.25Y-103.936
X120.25Y-106.476
X120.25Y-109.016
X120.25Y-111.556
X120.25Y-114.096
X120.25Y-116.636
X135.25Y-31.5
X135.25Y-34.0
X135.25Y-36.5
X135.46Y-57.175
X138.0Y-57.175
X149.75Y-31.5
X149.75Y-36.5
X152.38Y-119.151
X152.38Y-121.691
X154.015Y-74.846
X154.015Y-77.386
X154.015Y-79.926
X154.92Y-119.151
X154.92Y-121.691
X156.555Y-74.846
X156.555Y-77.386
X156.555Y-79.926
X157.46Y-119.151
X157.46Y-121.691
T6
X78.87Y-40.11
X78.87Y-57.89
X81.41Y-40.11
X81.41Y-57.89
X83.95Y-40.11
X83.95Y-57.89
X86.49Y-40.11
X86.49Y-57.89
X89.03Y-40.11
X89.03Y-57.89
X91.57Y-40.11
X91.57Y-57.89
X94.11Y-40.11
X94.11Y-57.89
X96.65Y-40.11
X96.65Y-57.89
X99.19Y-40.11
X99.19Y-57.89
X101.73Y-40.11
X101.73Y-57.89
X104.27Y-40.11
X104.27Y-57.89
X106.81Y-40.11
X106.81Y-57.89
X109.35Y-40.11
X109.35Y-57.89
X111.89Y-40.11
X111.89Y-57.89
X114.43Y-40.11
X114.43Y-57.89
X116.97Y-40.11
X116.97Y-57.89
X119.51Y-40.11
X119.51Y-57.89
X122.05Y-40.11
X122.05Y-57.89
X124.59Y-40.11
X124.59Y-57.89
X127.13Y-40.11
X127.13Y-57.89
T7
X86.505Y-32.0
X89.005Y-22.0
X89.005Y-34.5
X91.505Y-22.0
X94.005Y-32.0
X96.505Y-22.0
X99.005Y-22.0
X99.005Y-34.5
X101.505Y-32.0
X108.5Y-32.0
X111.0Y-22.0
X111.0Y-34.5
X113.5Y-22.0
X116.0Y-32.0
X118.5Y-22.0
X121.0Y-22.0
X121.0Y-34.5
X123.5Y-32.0
T8
X21.7Y-94.97
X21.7Y-111.2
X21.735Y-74.77
X21.735Y-91.0
X28.05Y-94.97
X28.05Y-111.2
X28.085Y-74.77
X28.085Y-91.0
X34.4Y-94.97
X34.4Y-111.2
X34.435Y-74.77
X34.435Y-91.0
X175.6Y-74.78
X175.6Y-91.01
X175.6Y-94.995
X175.6Y-111.225
X175.615Y-33.8
X175.615Y-50.03
X181.95Y-74.78
X181.95Y-91.01
X181.95Y-94.995
X181.95Y-111.225
X181.965Y-33.8
X181.965Y-50.03
X188.3Y-74.78
X188.3Y-91.01
X188.3Y-94.995
X188.3Y-111.225
X188.315Y-33.8
X188.315Y-50.03
T9
X124.64Y-91.84
X132.26Y-71.52
X134.8Y-91.84
X137.34Y-71.52
X144.96Y-71.52
X144.96Y-91.84
T10
X67.75Y-28.4
X67.75Y-39.6
X142.75Y-28.4
X142.75Y-39.6
T2
G00X89.0Y-29.0
M15
G01X89.0Y-30.0
M16
G05
G00X91.5Y-29.0
M15
G01X91.5Y-30.0
M16
G05
G00X94.5Y-24.5
M15
G01X93.5Y-24.5
M16
G05
G00X96.5Y-30.0
M15
G01X96.5Y-29.0
M16
G05
G00X99.0Y-30.0
M15
G01X99.0Y-29.0
M16
G05
G00X111.0Y-29.0
M15
G01X111.0Y-30.0
M16
G05
G00X113.5Y-29.0
M15
G01X113.5Y-30.0
M16
G05
G00X116.5Y-24.5
M15
G01X115.5Y-24.5
M16
G05
G00X118.5Y-30.0
M15
G01X118.5Y-29.0
M16
G05
G00X121.0Y-30.0
M15
G01X121.0Y-29.0
M16
G05
T4
G00X174.6Y-26.3
M15
G01X174.6Y-28.5
M16
G05
G00X180.5Y-24.6
M15
G01X178.3Y-24.6
M16
G05
G00X180.7Y-30.4
M15
G01X178.1Y-30.4
M16
G05
T0
M30
