G04 #@! TF.GenerationSoftware,KiCad,Pcbnew,7.0.9-7.0.9~ubuntu23.04.1*
G04 #@! TF.CreationDate,2023-12-04T18:04:45+00:00*
G04 #@! TF.ProjectId,pedalboard-hw,70656461-6c62-46f6-9172-642d68772e6b,3.1.0-RC*
G04 #@! TF.SameCoordinates,Original*
G04 #@! TF.FileFunction,Legend,Bot*
G04 #@! TF.FilePolarity,Positive*
%FSLAX46Y46*%
G04 Gerber Fmt 4.6, Leading zero omitted, Abs format (unit mm)*
G04 Created by KiCad (PCBNEW 7.0.9-7.0.9~ubuntu23.04.1) date 2023-12-04 18:04:45*
%MOMM*%
%LPD*%
G01*
G04 APERTURE LIST*
%ADD10C,0.150000*%
%ADD11C,0.120000*%
%ADD12C,0.100000*%
%ADD13C,2.700000*%
%ADD14O,1.200000X2.200000*%
%ADD15O,2.200000X1.200000*%
%ADD16C,3.000000*%
%ADD17R,4.400000X1.800000*%
%ADD18O,4.000000X1.800000*%
%ADD19O,1.800000X4.000000*%
%ADD20R,2.600000X2.600000*%
%ADD21C,2.600000*%
%ADD22R,1.350000X1.350000*%
%ADD23O,1.350000X1.350000*%
%ADD24R,1.700000X1.700000*%
%ADD25O,1.700000X1.700000*%
%ADD26C,0.600000*%
%ADD27R,0.840000X0.840000*%
%ADD28C,0.840000*%
%ADD29O,1.850000X0.850000*%
%ADD30R,2.000000X2.000000*%
%ADD31C,2.000000*%
%ADD32C,3.200000*%
%ADD33C,6.100000*%
%ADD34C,6.000000*%
%ADD35O,1.200000X1.750000*%
G04 APERTURE END LIST*
D10*
X20817438Y-44440588D02*
X20769819Y-44345350D01*
X20769819Y-44345350D02*
X20769819Y-44202493D01*
X20769819Y-44202493D02*
X20817438Y-44059636D01*
X20817438Y-44059636D02*
X20912676Y-43964398D01*
X20912676Y-43964398D02*
X21007914Y-43916779D01*
X21007914Y-43916779D02*
X21198390Y-43869160D01*
X21198390Y-43869160D02*
X21341247Y-43869160D01*
X21341247Y-43869160D02*
X21531723Y-43916779D01*
X21531723Y-43916779D02*
X21626961Y-43964398D01*
X21626961Y-43964398D02*
X21722200Y-44059636D01*
X21722200Y-44059636D02*
X21769819Y-44202493D01*
X21769819Y-44202493D02*
X21769819Y-44297731D01*
X21769819Y-44297731D02*
X21722200Y-44440588D01*
X21722200Y-44440588D02*
X21674580Y-44488207D01*
X21674580Y-44488207D02*
X21341247Y-44488207D01*
X21341247Y-44488207D02*
X21341247Y-44297731D01*
X21769819Y-44916779D02*
X20769819Y-44916779D01*
X20769819Y-44916779D02*
X21769819Y-45488207D01*
X21769819Y-45488207D02*
X20769819Y-45488207D01*
X21769819Y-45964398D02*
X20769819Y-45964398D01*
X20769819Y-45964398D02*
X20769819Y-46202493D01*
X20769819Y-46202493D02*
X20817438Y-46345350D01*
X20817438Y-46345350D02*
X20912676Y-46440588D01*
X20912676Y-46440588D02*
X21007914Y-46488207D01*
X21007914Y-46488207D02*
X21198390Y-46535826D01*
X21198390Y-46535826D02*
X21341247Y-46535826D01*
X21341247Y-46535826D02*
X21531723Y-46488207D01*
X21531723Y-46488207D02*
X21626961Y-46440588D01*
X21626961Y-46440588D02*
X21722200Y-46345350D01*
X21722200Y-46345350D02*
X21769819Y-46202493D01*
X21769819Y-46202493D02*
X21769819Y-45964398D01*
X47962561Y-123029411D02*
X48010180Y-123124649D01*
X48010180Y-123124649D02*
X48010180Y-123267506D01*
X48010180Y-123267506D02*
X47962561Y-123410363D01*
X47962561Y-123410363D02*
X47867323Y-123505601D01*
X47867323Y-123505601D02*
X47772085Y-123553220D01*
X47772085Y-123553220D02*
X47581609Y-123600839D01*
X47581609Y-123600839D02*
X47438752Y-123600839D01*
X47438752Y-123600839D02*
X47248276Y-123553220D01*
X47248276Y-123553220D02*
X47153038Y-123505601D01*
X47153038Y-123505601D02*
X47057800Y-123410363D01*
X47057800Y-123410363D02*
X47010180Y-123267506D01*
X47010180Y-123267506D02*
X47010180Y-123172268D01*
X47010180Y-123172268D02*
X47057800Y-123029411D01*
X47057800Y-123029411D02*
X47105419Y-122981792D01*
X47105419Y-122981792D02*
X47438752Y-122981792D01*
X47438752Y-122981792D02*
X47438752Y-123172268D01*
X47010180Y-122553220D02*
X48010180Y-122553220D01*
X48010180Y-122553220D02*
X47010180Y-121981792D01*
X47010180Y-121981792D02*
X48010180Y-121981792D01*
X47010180Y-121505601D02*
X48010180Y-121505601D01*
X48010180Y-121505601D02*
X48010180Y-121267506D01*
X48010180Y-121267506D02*
X47962561Y-121124649D01*
X47962561Y-121124649D02*
X47867323Y-121029411D01*
X47867323Y-121029411D02*
X47772085Y-120981792D01*
X47772085Y-120981792D02*
X47581609Y-120934173D01*
X47581609Y-120934173D02*
X47438752Y-120934173D01*
X47438752Y-120934173D02*
X47248276Y-120981792D01*
X47248276Y-120981792D02*
X47153038Y-121029411D01*
X47153038Y-121029411D02*
X47057800Y-121124649D01*
X47057800Y-121124649D02*
X47010180Y-121267506D01*
X47010180Y-121267506D02*
X47010180Y-121505601D01*
X41840180Y-123723220D02*
X42840180Y-123723220D01*
X42840180Y-123723220D02*
X42840180Y-123485125D01*
X42840180Y-123485125D02*
X42792561Y-123342268D01*
X42792561Y-123342268D02*
X42697323Y-123247030D01*
X42697323Y-123247030D02*
X42602085Y-123199411D01*
X42602085Y-123199411D02*
X42411609Y-123151792D01*
X42411609Y-123151792D02*
X42268752Y-123151792D01*
X42268752Y-123151792D02*
X42078276Y-123199411D01*
X42078276Y-123199411D02*
X41983038Y-123247030D01*
X41983038Y-123247030D02*
X41887800Y-123342268D01*
X41887800Y-123342268D02*
X41840180Y-123485125D01*
X41840180Y-123485125D02*
X41840180Y-123723220D01*
X41840180Y-122294649D02*
X42363990Y-122294649D01*
X42363990Y-122294649D02*
X42459228Y-122342268D01*
X42459228Y-122342268D02*
X42506847Y-122437506D01*
X42506847Y-122437506D02*
X42506847Y-122627982D01*
X42506847Y-122627982D02*
X42459228Y-122723220D01*
X41887800Y-122294649D02*
X41840180Y-122389887D01*
X41840180Y-122389887D02*
X41840180Y-122627982D01*
X41840180Y-122627982D02*
X41887800Y-122723220D01*
X41887800Y-122723220D02*
X41983038Y-122770839D01*
X41983038Y-122770839D02*
X42078276Y-122770839D01*
X42078276Y-122770839D02*
X42173514Y-122723220D01*
X42173514Y-122723220D02*
X42221133Y-122627982D01*
X42221133Y-122627982D02*
X42221133Y-122389887D01*
X42221133Y-122389887D02*
X42268752Y-122294649D01*
X42506847Y-121961315D02*
X42506847Y-121580363D01*
X42840180Y-121818458D02*
X41983038Y-121818458D01*
X41983038Y-121818458D02*
X41887800Y-121770839D01*
X41887800Y-121770839D02*
X41840180Y-121675601D01*
X41840180Y-121675601D02*
X41840180Y-121580363D01*
X41840180Y-120818458D02*
X42363990Y-120818458D01*
X42363990Y-120818458D02*
X42459228Y-120866077D01*
X42459228Y-120866077D02*
X42506847Y-120961315D01*
X42506847Y-120961315D02*
X42506847Y-121151791D01*
X42506847Y-121151791D02*
X42459228Y-121247029D01*
X41887800Y-120818458D02*
X41840180Y-120913696D01*
X41840180Y-120913696D02*
X41840180Y-121151791D01*
X41840180Y-121151791D02*
X41887800Y-121247029D01*
X41887800Y-121247029D02*
X41983038Y-121294648D01*
X41983038Y-121294648D02*
X42078276Y-121294648D01*
X42078276Y-121294648D02*
X42173514Y-121247029D01*
X42173514Y-121247029D02*
X42221133Y-121151791D01*
X42221133Y-121151791D02*
X42221133Y-120913696D01*
X42221133Y-120913696D02*
X42268752Y-120818458D01*
X41840180Y-119437505D02*
X41887800Y-119532743D01*
X41887800Y-119532743D02*
X41935419Y-119580362D01*
X41935419Y-119580362D02*
X42030657Y-119627981D01*
X42030657Y-119627981D02*
X42316371Y-119627981D01*
X42316371Y-119627981D02*
X42411609Y-119580362D01*
X42411609Y-119580362D02*
X42459228Y-119532743D01*
X42459228Y-119532743D02*
X42506847Y-119437505D01*
X42506847Y-119437505D02*
X42506847Y-119294648D01*
X42506847Y-119294648D02*
X42459228Y-119199410D01*
X42459228Y-119199410D02*
X42411609Y-119151791D01*
X42411609Y-119151791D02*
X42316371Y-119104172D01*
X42316371Y-119104172D02*
X42030657Y-119104172D01*
X42030657Y-119104172D02*
X41935419Y-119151791D01*
X41935419Y-119151791D02*
X41887800Y-119199410D01*
X41887800Y-119199410D02*
X41840180Y-119294648D01*
X41840180Y-119294648D02*
X41840180Y-119437505D01*
X42506847Y-118247029D02*
X41840180Y-118247029D01*
X42506847Y-118675600D02*
X41983038Y-118675600D01*
X41983038Y-118675600D02*
X41887800Y-118627981D01*
X41887800Y-118627981D02*
X41840180Y-118532743D01*
X41840180Y-118532743D02*
X41840180Y-118389886D01*
X41840180Y-118389886D02*
X41887800Y-118294648D01*
X41887800Y-118294648D02*
X41935419Y-118247029D01*
X42506847Y-117913695D02*
X42506847Y-117532743D01*
X42840180Y-117770838D02*
X41983038Y-117770838D01*
X41983038Y-117770838D02*
X41887800Y-117723219D01*
X41887800Y-117723219D02*
X41840180Y-117627981D01*
X41840180Y-117627981D02*
X41840180Y-117532743D01*
X78923220Y-27429819D02*
X78923220Y-26429819D01*
X78447030Y-27429819D02*
X78447030Y-26429819D01*
X78447030Y-26429819D02*
X77875602Y-27429819D01*
X77875602Y-27429819D02*
X77875602Y-26429819D01*
X188147438Y-37436588D02*
X188099819Y-37341350D01*
X188099819Y-37341350D02*
X188099819Y-37198493D01*
X188099819Y-37198493D02*
X188147438Y-37055636D01*
X188147438Y-37055636D02*
X188242676Y-36960398D01*
X188242676Y-36960398D02*
X188337914Y-36912779D01*
X188337914Y-36912779D02*
X188528390Y-36865160D01*
X188528390Y-36865160D02*
X188671247Y-36865160D01*
X188671247Y-36865160D02*
X188861723Y-36912779D01*
X188861723Y-36912779D02*
X188956961Y-36960398D01*
X188956961Y-36960398D02*
X189052200Y-37055636D01*
X189052200Y-37055636D02*
X189099819Y-37198493D01*
X189099819Y-37198493D02*
X189099819Y-37293731D01*
X189099819Y-37293731D02*
X189052200Y-37436588D01*
X189052200Y-37436588D02*
X189004580Y-37484207D01*
X189004580Y-37484207D02*
X188671247Y-37484207D01*
X188671247Y-37484207D02*
X188671247Y-37293731D01*
X189099819Y-37912779D02*
X188099819Y-37912779D01*
X188099819Y-37912779D02*
X189099819Y-38484207D01*
X189099819Y-38484207D02*
X188099819Y-38484207D01*
X189099819Y-38960398D02*
X188099819Y-38960398D01*
X188099819Y-38960398D02*
X188099819Y-39198493D01*
X188099819Y-39198493D02*
X188147438Y-39341350D01*
X188147438Y-39341350D02*
X188242676Y-39436588D01*
X188242676Y-39436588D02*
X188337914Y-39484207D01*
X188337914Y-39484207D02*
X188528390Y-39531826D01*
X188528390Y-39531826D02*
X188671247Y-39531826D01*
X188671247Y-39531826D02*
X188861723Y-39484207D01*
X188861723Y-39484207D02*
X188956961Y-39436588D01*
X188956961Y-39436588D02*
X189052200Y-39341350D01*
X189052200Y-39341350D02*
X189099819Y-39198493D01*
X189099819Y-39198493D02*
X189099819Y-38960398D01*
X61472744Y-53649819D02*
X61282268Y-53649819D01*
X61282268Y-53649819D02*
X61187030Y-53697438D01*
X61187030Y-53697438D02*
X61091792Y-53792676D01*
X61091792Y-53792676D02*
X61044173Y-53983152D01*
X61044173Y-53983152D02*
X61044173Y-54316485D01*
X61044173Y-54316485D02*
X61091792Y-54506961D01*
X61091792Y-54506961D02*
X61187030Y-54602200D01*
X61187030Y-54602200D02*
X61282268Y-54649819D01*
X61282268Y-54649819D02*
X61472744Y-54649819D01*
X61472744Y-54649819D02*
X61567982Y-54602200D01*
X61567982Y-54602200D02*
X61663220Y-54506961D01*
X61663220Y-54506961D02*
X61710839Y-54316485D01*
X61710839Y-54316485D02*
X61710839Y-53983152D01*
X61710839Y-53983152D02*
X61663220Y-53792676D01*
X61663220Y-53792676D02*
X61567982Y-53697438D01*
X61567982Y-53697438D02*
X61472744Y-53649819D01*
X60615601Y-53983152D02*
X60615601Y-54983152D01*
X60615601Y-54030771D02*
X60520363Y-53983152D01*
X60520363Y-53983152D02*
X60329887Y-53983152D01*
X60329887Y-53983152D02*
X60234649Y-54030771D01*
X60234649Y-54030771D02*
X60187030Y-54078390D01*
X60187030Y-54078390D02*
X60139411Y-54173628D01*
X60139411Y-54173628D02*
X60139411Y-54459342D01*
X60139411Y-54459342D02*
X60187030Y-54554580D01*
X60187030Y-54554580D02*
X60234649Y-54602200D01*
X60234649Y-54602200D02*
X60329887Y-54649819D01*
X60329887Y-54649819D02*
X60520363Y-54649819D01*
X60520363Y-54649819D02*
X60615601Y-54602200D01*
X59329887Y-54602200D02*
X59425125Y-54649819D01*
X59425125Y-54649819D02*
X59615601Y-54649819D01*
X59615601Y-54649819D02*
X59710839Y-54602200D01*
X59710839Y-54602200D02*
X59758458Y-54506961D01*
X59758458Y-54506961D02*
X59758458Y-54126009D01*
X59758458Y-54126009D02*
X59710839Y-54030771D01*
X59710839Y-54030771D02*
X59615601Y-53983152D01*
X59615601Y-53983152D02*
X59425125Y-53983152D01*
X59425125Y-53983152D02*
X59329887Y-54030771D01*
X59329887Y-54030771D02*
X59282268Y-54126009D01*
X59282268Y-54126009D02*
X59282268Y-54221247D01*
X59282268Y-54221247D02*
X59758458Y-54316485D01*
X58853696Y-53983152D02*
X58853696Y-54649819D01*
X58853696Y-54078390D02*
X58806077Y-54030771D01*
X58806077Y-54030771D02*
X58710839Y-53983152D01*
X58710839Y-53983152D02*
X58567982Y-53983152D01*
X58567982Y-53983152D02*
X58472744Y-54030771D01*
X58472744Y-54030771D02*
X58425125Y-54126009D01*
X58425125Y-54126009D02*
X58425125Y-54649819D01*
X57187029Y-54649819D02*
X57187029Y-53649819D01*
X57187029Y-53649819D02*
X56806077Y-53649819D01*
X56806077Y-53649819D02*
X56710839Y-53697438D01*
X56710839Y-53697438D02*
X56663220Y-53745057D01*
X56663220Y-53745057D02*
X56615601Y-53840295D01*
X56615601Y-53840295D02*
X56615601Y-53983152D01*
X56615601Y-53983152D02*
X56663220Y-54078390D01*
X56663220Y-54078390D02*
X56710839Y-54126009D01*
X56710839Y-54126009D02*
X56806077Y-54173628D01*
X56806077Y-54173628D02*
X57187029Y-54173628D01*
X55806077Y-54602200D02*
X55901315Y-54649819D01*
X55901315Y-54649819D02*
X56091791Y-54649819D01*
X56091791Y-54649819D02*
X56187029Y-54602200D01*
X56187029Y-54602200D02*
X56234648Y-54506961D01*
X56234648Y-54506961D02*
X56234648Y-54126009D01*
X56234648Y-54126009D02*
X56187029Y-54030771D01*
X56187029Y-54030771D02*
X56091791Y-53983152D01*
X56091791Y-53983152D02*
X55901315Y-53983152D01*
X55901315Y-53983152D02*
X55806077Y-54030771D01*
X55806077Y-54030771D02*
X55758458Y-54126009D01*
X55758458Y-54126009D02*
X55758458Y-54221247D01*
X55758458Y-54221247D02*
X56234648Y-54316485D01*
X54901315Y-54649819D02*
X54901315Y-53649819D01*
X54901315Y-54602200D02*
X54996553Y-54649819D01*
X54996553Y-54649819D02*
X55187029Y-54649819D01*
X55187029Y-54649819D02*
X55282267Y-54602200D01*
X55282267Y-54602200D02*
X55329886Y-54554580D01*
X55329886Y-54554580D02*
X55377505Y-54459342D01*
X55377505Y-54459342D02*
X55377505Y-54173628D01*
X55377505Y-54173628D02*
X55329886Y-54078390D01*
X55329886Y-54078390D02*
X55282267Y-54030771D01*
X55282267Y-54030771D02*
X55187029Y-53983152D01*
X55187029Y-53983152D02*
X54996553Y-53983152D01*
X54996553Y-53983152D02*
X54901315Y-54030771D01*
X53996553Y-54649819D02*
X53996553Y-54126009D01*
X53996553Y-54126009D02*
X54044172Y-54030771D01*
X54044172Y-54030771D02*
X54139410Y-53983152D01*
X54139410Y-53983152D02*
X54329886Y-53983152D01*
X54329886Y-53983152D02*
X54425124Y-54030771D01*
X53996553Y-54602200D02*
X54091791Y-54649819D01*
X54091791Y-54649819D02*
X54329886Y-54649819D01*
X54329886Y-54649819D02*
X54425124Y-54602200D01*
X54425124Y-54602200D02*
X54472743Y-54506961D01*
X54472743Y-54506961D02*
X54472743Y-54411723D01*
X54472743Y-54411723D02*
X54425124Y-54316485D01*
X54425124Y-54316485D02*
X54329886Y-54268866D01*
X54329886Y-54268866D02*
X54091791Y-54268866D01*
X54091791Y-54268866D02*
X53996553Y-54221247D01*
X53377505Y-54649819D02*
X53472743Y-54602200D01*
X53472743Y-54602200D02*
X53520362Y-54506961D01*
X53520362Y-54506961D02*
X53520362Y-53649819D01*
X52996552Y-54649819D02*
X52996552Y-53649819D01*
X52996552Y-54030771D02*
X52901314Y-53983152D01*
X52901314Y-53983152D02*
X52710838Y-53983152D01*
X52710838Y-53983152D02*
X52615600Y-54030771D01*
X52615600Y-54030771D02*
X52567981Y-54078390D01*
X52567981Y-54078390D02*
X52520362Y-54173628D01*
X52520362Y-54173628D02*
X52520362Y-54459342D01*
X52520362Y-54459342D02*
X52567981Y-54554580D01*
X52567981Y-54554580D02*
X52615600Y-54602200D01*
X52615600Y-54602200D02*
X52710838Y-54649819D01*
X52710838Y-54649819D02*
X52901314Y-54649819D01*
X52901314Y-54649819D02*
X52996552Y-54602200D01*
X51948933Y-54649819D02*
X52044171Y-54602200D01*
X52044171Y-54602200D02*
X52091790Y-54554580D01*
X52091790Y-54554580D02*
X52139409Y-54459342D01*
X52139409Y-54459342D02*
X52139409Y-54173628D01*
X52139409Y-54173628D02*
X52091790Y-54078390D01*
X52091790Y-54078390D02*
X52044171Y-54030771D01*
X52044171Y-54030771D02*
X51948933Y-53983152D01*
X51948933Y-53983152D02*
X51806076Y-53983152D01*
X51806076Y-53983152D02*
X51710838Y-54030771D01*
X51710838Y-54030771D02*
X51663219Y-54078390D01*
X51663219Y-54078390D02*
X51615600Y-54173628D01*
X51615600Y-54173628D02*
X51615600Y-54459342D01*
X51615600Y-54459342D02*
X51663219Y-54554580D01*
X51663219Y-54554580D02*
X51710838Y-54602200D01*
X51710838Y-54602200D02*
X51806076Y-54649819D01*
X51806076Y-54649819D02*
X51948933Y-54649819D01*
X50758457Y-54649819D02*
X50758457Y-54126009D01*
X50758457Y-54126009D02*
X50806076Y-54030771D01*
X50806076Y-54030771D02*
X50901314Y-53983152D01*
X50901314Y-53983152D02*
X51091790Y-53983152D01*
X51091790Y-53983152D02*
X51187028Y-54030771D01*
X50758457Y-54602200D02*
X50853695Y-54649819D01*
X50853695Y-54649819D02*
X51091790Y-54649819D01*
X51091790Y-54649819D02*
X51187028Y-54602200D01*
X51187028Y-54602200D02*
X51234647Y-54506961D01*
X51234647Y-54506961D02*
X51234647Y-54411723D01*
X51234647Y-54411723D02*
X51187028Y-54316485D01*
X51187028Y-54316485D02*
X51091790Y-54268866D01*
X51091790Y-54268866D02*
X50853695Y-54268866D01*
X50853695Y-54268866D02*
X50758457Y-54221247D01*
X50282266Y-54649819D02*
X50282266Y-53983152D01*
X50282266Y-54173628D02*
X50234647Y-54078390D01*
X50234647Y-54078390D02*
X50187028Y-54030771D01*
X50187028Y-54030771D02*
X50091790Y-53983152D01*
X50091790Y-53983152D02*
X49996552Y-53983152D01*
X49234647Y-54649819D02*
X49234647Y-53649819D01*
X49234647Y-54602200D02*
X49329885Y-54649819D01*
X49329885Y-54649819D02*
X49520361Y-54649819D01*
X49520361Y-54649819D02*
X49615599Y-54602200D01*
X49615599Y-54602200D02*
X49663218Y-54554580D01*
X49663218Y-54554580D02*
X49710837Y-54459342D01*
X49710837Y-54459342D02*
X49710837Y-54173628D01*
X49710837Y-54173628D02*
X49663218Y-54078390D01*
X49663218Y-54078390D02*
X49615599Y-54030771D01*
X49615599Y-54030771D02*
X49520361Y-53983152D01*
X49520361Y-53983152D02*
X49329885Y-53983152D01*
X49329885Y-53983152D02*
X49234647Y-54030771D01*
X61663220Y-56259819D02*
X61663220Y-55259819D01*
X61234649Y-56259819D02*
X61234649Y-55736009D01*
X61234649Y-55736009D02*
X61282268Y-55640771D01*
X61282268Y-55640771D02*
X61377506Y-55593152D01*
X61377506Y-55593152D02*
X61520363Y-55593152D01*
X61520363Y-55593152D02*
X61615601Y-55640771D01*
X61615601Y-55640771D02*
X61663220Y-55688390D01*
X60901315Y-55593152D02*
X60520363Y-55593152D01*
X60758458Y-55259819D02*
X60758458Y-56116961D01*
X60758458Y-56116961D02*
X60710839Y-56212200D01*
X60710839Y-56212200D02*
X60615601Y-56259819D01*
X60615601Y-56259819D02*
X60520363Y-56259819D01*
X60329886Y-55593152D02*
X59948934Y-55593152D01*
X60187029Y-55259819D02*
X60187029Y-56116961D01*
X60187029Y-56116961D02*
X60139410Y-56212200D01*
X60139410Y-56212200D02*
X60044172Y-56259819D01*
X60044172Y-56259819D02*
X59948934Y-56259819D01*
X59615600Y-55593152D02*
X59615600Y-56593152D01*
X59615600Y-55640771D02*
X59520362Y-55593152D01*
X59520362Y-55593152D02*
X59329886Y-55593152D01*
X59329886Y-55593152D02*
X59234648Y-55640771D01*
X59234648Y-55640771D02*
X59187029Y-55688390D01*
X59187029Y-55688390D02*
X59139410Y-55783628D01*
X59139410Y-55783628D02*
X59139410Y-56069342D01*
X59139410Y-56069342D02*
X59187029Y-56164580D01*
X59187029Y-56164580D02*
X59234648Y-56212200D01*
X59234648Y-56212200D02*
X59329886Y-56259819D01*
X59329886Y-56259819D02*
X59520362Y-56259819D01*
X59520362Y-56259819D02*
X59615600Y-56212200D01*
X58758457Y-56212200D02*
X58663219Y-56259819D01*
X58663219Y-56259819D02*
X58472743Y-56259819D01*
X58472743Y-56259819D02*
X58377505Y-56212200D01*
X58377505Y-56212200D02*
X58329886Y-56116961D01*
X58329886Y-56116961D02*
X58329886Y-56069342D01*
X58329886Y-56069342D02*
X58377505Y-55974104D01*
X58377505Y-55974104D02*
X58472743Y-55926485D01*
X58472743Y-55926485D02*
X58615600Y-55926485D01*
X58615600Y-55926485D02*
X58710838Y-55878866D01*
X58710838Y-55878866D02*
X58758457Y-55783628D01*
X58758457Y-55783628D02*
X58758457Y-55736009D01*
X58758457Y-55736009D02*
X58710838Y-55640771D01*
X58710838Y-55640771D02*
X58615600Y-55593152D01*
X58615600Y-55593152D02*
X58472743Y-55593152D01*
X58472743Y-55593152D02*
X58377505Y-55640771D01*
X57901314Y-56164580D02*
X57853695Y-56212200D01*
X57853695Y-56212200D02*
X57901314Y-56259819D01*
X57901314Y-56259819D02*
X57948933Y-56212200D01*
X57948933Y-56212200D02*
X57901314Y-56164580D01*
X57901314Y-56164580D02*
X57901314Y-56259819D01*
X57901314Y-55640771D02*
X57853695Y-55688390D01*
X57853695Y-55688390D02*
X57901314Y-55736009D01*
X57901314Y-55736009D02*
X57948933Y-55688390D01*
X57948933Y-55688390D02*
X57901314Y-55640771D01*
X57901314Y-55640771D02*
X57901314Y-55736009D01*
X56710839Y-55212200D02*
X57567981Y-56497914D01*
X55663220Y-55212200D02*
X56520362Y-56497914D01*
X54901315Y-55593152D02*
X54901315Y-56402676D01*
X54901315Y-56402676D02*
X54948934Y-56497914D01*
X54948934Y-56497914D02*
X54996553Y-56545533D01*
X54996553Y-56545533D02*
X55091791Y-56593152D01*
X55091791Y-56593152D02*
X55234648Y-56593152D01*
X55234648Y-56593152D02*
X55329886Y-56545533D01*
X54901315Y-56212200D02*
X54996553Y-56259819D01*
X54996553Y-56259819D02*
X55187029Y-56259819D01*
X55187029Y-56259819D02*
X55282267Y-56212200D01*
X55282267Y-56212200D02*
X55329886Y-56164580D01*
X55329886Y-56164580D02*
X55377505Y-56069342D01*
X55377505Y-56069342D02*
X55377505Y-55783628D01*
X55377505Y-55783628D02*
X55329886Y-55688390D01*
X55329886Y-55688390D02*
X55282267Y-55640771D01*
X55282267Y-55640771D02*
X55187029Y-55593152D01*
X55187029Y-55593152D02*
X54996553Y-55593152D01*
X54996553Y-55593152D02*
X54901315Y-55640771D01*
X54425124Y-56259819D02*
X54425124Y-55593152D01*
X54425124Y-55259819D02*
X54472743Y-55307438D01*
X54472743Y-55307438D02*
X54425124Y-55355057D01*
X54425124Y-55355057D02*
X54377505Y-55307438D01*
X54377505Y-55307438D02*
X54425124Y-55259819D01*
X54425124Y-55259819D02*
X54425124Y-55355057D01*
X54091791Y-55593152D02*
X53710839Y-55593152D01*
X53948934Y-55259819D02*
X53948934Y-56116961D01*
X53948934Y-56116961D02*
X53901315Y-56212200D01*
X53901315Y-56212200D02*
X53806077Y-56259819D01*
X53806077Y-56259819D02*
X53710839Y-56259819D01*
X53377505Y-56259819D02*
X53377505Y-55259819D01*
X52948934Y-56259819D02*
X52948934Y-55736009D01*
X52948934Y-55736009D02*
X52996553Y-55640771D01*
X52996553Y-55640771D02*
X53091791Y-55593152D01*
X53091791Y-55593152D02*
X53234648Y-55593152D01*
X53234648Y-55593152D02*
X53329886Y-55640771D01*
X53329886Y-55640771D02*
X53377505Y-55688390D01*
X52044172Y-55593152D02*
X52044172Y-56259819D01*
X52472743Y-55593152D02*
X52472743Y-56116961D01*
X52472743Y-56116961D02*
X52425124Y-56212200D01*
X52425124Y-56212200D02*
X52329886Y-56259819D01*
X52329886Y-56259819D02*
X52187029Y-56259819D01*
X52187029Y-56259819D02*
X52091791Y-56212200D01*
X52091791Y-56212200D02*
X52044172Y-56164580D01*
X51567981Y-56259819D02*
X51567981Y-55259819D01*
X51567981Y-55640771D02*
X51472743Y-55593152D01*
X51472743Y-55593152D02*
X51282267Y-55593152D01*
X51282267Y-55593152D02*
X51187029Y-55640771D01*
X51187029Y-55640771D02*
X51139410Y-55688390D01*
X51139410Y-55688390D02*
X51091791Y-55783628D01*
X51091791Y-55783628D02*
X51091791Y-56069342D01*
X51091791Y-56069342D02*
X51139410Y-56164580D01*
X51139410Y-56164580D02*
X51187029Y-56212200D01*
X51187029Y-56212200D02*
X51282267Y-56259819D01*
X51282267Y-56259819D02*
X51472743Y-56259819D01*
X51472743Y-56259819D02*
X51567981Y-56212200D01*
X50663219Y-56164580D02*
X50615600Y-56212200D01*
X50615600Y-56212200D02*
X50663219Y-56259819D01*
X50663219Y-56259819D02*
X50710838Y-56212200D01*
X50710838Y-56212200D02*
X50663219Y-56164580D01*
X50663219Y-56164580D02*
X50663219Y-56259819D01*
X49758458Y-56212200D02*
X49853696Y-56259819D01*
X49853696Y-56259819D02*
X50044172Y-56259819D01*
X50044172Y-56259819D02*
X50139410Y-56212200D01*
X50139410Y-56212200D02*
X50187029Y-56164580D01*
X50187029Y-56164580D02*
X50234648Y-56069342D01*
X50234648Y-56069342D02*
X50234648Y-55783628D01*
X50234648Y-55783628D02*
X50187029Y-55688390D01*
X50187029Y-55688390D02*
X50139410Y-55640771D01*
X50139410Y-55640771D02*
X50044172Y-55593152D01*
X50044172Y-55593152D02*
X49853696Y-55593152D01*
X49853696Y-55593152D02*
X49758458Y-55640771D01*
X49187029Y-56259819D02*
X49282267Y-56212200D01*
X49282267Y-56212200D02*
X49329886Y-56164580D01*
X49329886Y-56164580D02*
X49377505Y-56069342D01*
X49377505Y-56069342D02*
X49377505Y-55783628D01*
X49377505Y-55783628D02*
X49329886Y-55688390D01*
X49329886Y-55688390D02*
X49282267Y-55640771D01*
X49282267Y-55640771D02*
X49187029Y-55593152D01*
X49187029Y-55593152D02*
X49044172Y-55593152D01*
X49044172Y-55593152D02*
X48948934Y-55640771D01*
X48948934Y-55640771D02*
X48901315Y-55688390D01*
X48901315Y-55688390D02*
X48853696Y-55783628D01*
X48853696Y-55783628D02*
X48853696Y-56069342D01*
X48853696Y-56069342D02*
X48901315Y-56164580D01*
X48901315Y-56164580D02*
X48948934Y-56212200D01*
X48948934Y-56212200D02*
X49044172Y-56259819D01*
X49044172Y-56259819D02*
X49187029Y-56259819D01*
X48425124Y-56259819D02*
X48425124Y-55593152D01*
X48425124Y-55688390D02*
X48377505Y-55640771D01*
X48377505Y-55640771D02*
X48282267Y-55593152D01*
X48282267Y-55593152D02*
X48139410Y-55593152D01*
X48139410Y-55593152D02*
X48044172Y-55640771D01*
X48044172Y-55640771D02*
X47996553Y-55736009D01*
X47996553Y-55736009D02*
X47996553Y-56259819D01*
X47996553Y-55736009D02*
X47948934Y-55640771D01*
X47948934Y-55640771D02*
X47853696Y-55593152D01*
X47853696Y-55593152D02*
X47710839Y-55593152D01*
X47710839Y-55593152D02*
X47615600Y-55640771D01*
X47615600Y-55640771D02*
X47567981Y-55736009D01*
X47567981Y-55736009D02*
X47567981Y-56259819D01*
X46377506Y-55212200D02*
X47234648Y-56497914D01*
X46044172Y-55593152D02*
X46044172Y-56593152D01*
X46044172Y-55640771D02*
X45948934Y-55593152D01*
X45948934Y-55593152D02*
X45758458Y-55593152D01*
X45758458Y-55593152D02*
X45663220Y-55640771D01*
X45663220Y-55640771D02*
X45615601Y-55688390D01*
X45615601Y-55688390D02*
X45567982Y-55783628D01*
X45567982Y-55783628D02*
X45567982Y-56069342D01*
X45567982Y-56069342D02*
X45615601Y-56164580D01*
X45615601Y-56164580D02*
X45663220Y-56212200D01*
X45663220Y-56212200D02*
X45758458Y-56259819D01*
X45758458Y-56259819D02*
X45948934Y-56259819D01*
X45948934Y-56259819D02*
X46044172Y-56212200D01*
X44758458Y-56212200D02*
X44853696Y-56259819D01*
X44853696Y-56259819D02*
X45044172Y-56259819D01*
X45044172Y-56259819D02*
X45139410Y-56212200D01*
X45139410Y-56212200D02*
X45187029Y-56116961D01*
X45187029Y-56116961D02*
X45187029Y-55736009D01*
X45187029Y-55736009D02*
X45139410Y-55640771D01*
X45139410Y-55640771D02*
X45044172Y-55593152D01*
X45044172Y-55593152D02*
X44853696Y-55593152D01*
X44853696Y-55593152D02*
X44758458Y-55640771D01*
X44758458Y-55640771D02*
X44710839Y-55736009D01*
X44710839Y-55736009D02*
X44710839Y-55831247D01*
X44710839Y-55831247D02*
X45187029Y-55926485D01*
X43853696Y-56259819D02*
X43853696Y-55259819D01*
X43853696Y-56212200D02*
X43948934Y-56259819D01*
X43948934Y-56259819D02*
X44139410Y-56259819D01*
X44139410Y-56259819D02*
X44234648Y-56212200D01*
X44234648Y-56212200D02*
X44282267Y-56164580D01*
X44282267Y-56164580D02*
X44329886Y-56069342D01*
X44329886Y-56069342D02*
X44329886Y-55783628D01*
X44329886Y-55783628D02*
X44282267Y-55688390D01*
X44282267Y-55688390D02*
X44234648Y-55640771D01*
X44234648Y-55640771D02*
X44139410Y-55593152D01*
X44139410Y-55593152D02*
X43948934Y-55593152D01*
X43948934Y-55593152D02*
X43853696Y-55640771D01*
X42948934Y-56259819D02*
X42948934Y-55736009D01*
X42948934Y-55736009D02*
X42996553Y-55640771D01*
X42996553Y-55640771D02*
X43091791Y-55593152D01*
X43091791Y-55593152D02*
X43282267Y-55593152D01*
X43282267Y-55593152D02*
X43377505Y-55640771D01*
X42948934Y-56212200D02*
X43044172Y-56259819D01*
X43044172Y-56259819D02*
X43282267Y-56259819D01*
X43282267Y-56259819D02*
X43377505Y-56212200D01*
X43377505Y-56212200D02*
X43425124Y-56116961D01*
X43425124Y-56116961D02*
X43425124Y-56021723D01*
X43425124Y-56021723D02*
X43377505Y-55926485D01*
X43377505Y-55926485D02*
X43282267Y-55878866D01*
X43282267Y-55878866D02*
X43044172Y-55878866D01*
X43044172Y-55878866D02*
X42948934Y-55831247D01*
X42329886Y-56259819D02*
X42425124Y-56212200D01*
X42425124Y-56212200D02*
X42472743Y-56116961D01*
X42472743Y-56116961D02*
X42472743Y-55259819D01*
X41948933Y-56259819D02*
X41948933Y-55259819D01*
X41948933Y-55640771D02*
X41853695Y-55593152D01*
X41853695Y-55593152D02*
X41663219Y-55593152D01*
X41663219Y-55593152D02*
X41567981Y-55640771D01*
X41567981Y-55640771D02*
X41520362Y-55688390D01*
X41520362Y-55688390D02*
X41472743Y-55783628D01*
X41472743Y-55783628D02*
X41472743Y-56069342D01*
X41472743Y-56069342D02*
X41520362Y-56164580D01*
X41520362Y-56164580D02*
X41567981Y-56212200D01*
X41567981Y-56212200D02*
X41663219Y-56259819D01*
X41663219Y-56259819D02*
X41853695Y-56259819D01*
X41853695Y-56259819D02*
X41948933Y-56212200D01*
X40901314Y-56259819D02*
X40996552Y-56212200D01*
X40996552Y-56212200D02*
X41044171Y-56164580D01*
X41044171Y-56164580D02*
X41091790Y-56069342D01*
X41091790Y-56069342D02*
X41091790Y-55783628D01*
X41091790Y-55783628D02*
X41044171Y-55688390D01*
X41044171Y-55688390D02*
X40996552Y-55640771D01*
X40996552Y-55640771D02*
X40901314Y-55593152D01*
X40901314Y-55593152D02*
X40758457Y-55593152D01*
X40758457Y-55593152D02*
X40663219Y-55640771D01*
X40663219Y-55640771D02*
X40615600Y-55688390D01*
X40615600Y-55688390D02*
X40567981Y-55783628D01*
X40567981Y-55783628D02*
X40567981Y-56069342D01*
X40567981Y-56069342D02*
X40615600Y-56164580D01*
X40615600Y-56164580D02*
X40663219Y-56212200D01*
X40663219Y-56212200D02*
X40758457Y-56259819D01*
X40758457Y-56259819D02*
X40901314Y-56259819D01*
X39710838Y-56259819D02*
X39710838Y-55736009D01*
X39710838Y-55736009D02*
X39758457Y-55640771D01*
X39758457Y-55640771D02*
X39853695Y-55593152D01*
X39853695Y-55593152D02*
X40044171Y-55593152D01*
X40044171Y-55593152D02*
X40139409Y-55640771D01*
X39710838Y-56212200D02*
X39806076Y-56259819D01*
X39806076Y-56259819D02*
X40044171Y-56259819D01*
X40044171Y-56259819D02*
X40139409Y-56212200D01*
X40139409Y-56212200D02*
X40187028Y-56116961D01*
X40187028Y-56116961D02*
X40187028Y-56021723D01*
X40187028Y-56021723D02*
X40139409Y-55926485D01*
X40139409Y-55926485D02*
X40044171Y-55878866D01*
X40044171Y-55878866D02*
X39806076Y-55878866D01*
X39806076Y-55878866D02*
X39710838Y-55831247D01*
X39234647Y-56259819D02*
X39234647Y-55593152D01*
X39234647Y-55783628D02*
X39187028Y-55688390D01*
X39187028Y-55688390D02*
X39139409Y-55640771D01*
X39139409Y-55640771D02*
X39044171Y-55593152D01*
X39044171Y-55593152D02*
X38948933Y-55593152D01*
X38187028Y-56259819D02*
X38187028Y-55259819D01*
X38187028Y-56212200D02*
X38282266Y-56259819D01*
X38282266Y-56259819D02*
X38472742Y-56259819D01*
X38472742Y-56259819D02*
X38567980Y-56212200D01*
X38567980Y-56212200D02*
X38615599Y-56164580D01*
X38615599Y-56164580D02*
X38663218Y-56069342D01*
X38663218Y-56069342D02*
X38663218Y-55783628D01*
X38663218Y-55783628D02*
X38615599Y-55688390D01*
X38615599Y-55688390D02*
X38567980Y-55640771D01*
X38567980Y-55640771D02*
X38472742Y-55593152D01*
X38472742Y-55593152D02*
X38282266Y-55593152D01*
X38282266Y-55593152D02*
X38187028Y-55640771D01*
X61329887Y-57346009D02*
X61187030Y-57393628D01*
X61187030Y-57393628D02*
X61139411Y-57441247D01*
X61139411Y-57441247D02*
X61091792Y-57536485D01*
X61091792Y-57536485D02*
X61091792Y-57679342D01*
X61091792Y-57679342D02*
X61139411Y-57774580D01*
X61139411Y-57774580D02*
X61187030Y-57822200D01*
X61187030Y-57822200D02*
X61282268Y-57869819D01*
X61282268Y-57869819D02*
X61663220Y-57869819D01*
X61663220Y-57869819D02*
X61663220Y-56869819D01*
X61663220Y-56869819D02*
X61329887Y-56869819D01*
X61329887Y-56869819D02*
X61234649Y-56917438D01*
X61234649Y-56917438D02*
X61187030Y-56965057D01*
X61187030Y-56965057D02*
X61139411Y-57060295D01*
X61139411Y-57060295D02*
X61139411Y-57155533D01*
X61139411Y-57155533D02*
X61187030Y-57250771D01*
X61187030Y-57250771D02*
X61234649Y-57298390D01*
X61234649Y-57298390D02*
X61329887Y-57346009D01*
X61329887Y-57346009D02*
X61663220Y-57346009D01*
X60091792Y-57774580D02*
X60139411Y-57822200D01*
X60139411Y-57822200D02*
X60282268Y-57869819D01*
X60282268Y-57869819D02*
X60377506Y-57869819D01*
X60377506Y-57869819D02*
X60520363Y-57822200D01*
X60520363Y-57822200D02*
X60615601Y-57726961D01*
X60615601Y-57726961D02*
X60663220Y-57631723D01*
X60663220Y-57631723D02*
X60710839Y-57441247D01*
X60710839Y-57441247D02*
X60710839Y-57298390D01*
X60710839Y-57298390D02*
X60663220Y-57107914D01*
X60663220Y-57107914D02*
X60615601Y-57012676D01*
X60615601Y-57012676D02*
X60520363Y-56917438D01*
X60520363Y-56917438D02*
X60377506Y-56869819D01*
X60377506Y-56869819D02*
X60282268Y-56869819D01*
X60282268Y-56869819D02*
X60139411Y-56917438D01*
X60139411Y-56917438D02*
X60091792Y-56965057D01*
X59329887Y-57346009D02*
X59187030Y-57393628D01*
X59187030Y-57393628D02*
X59139411Y-57441247D01*
X59139411Y-57441247D02*
X59091792Y-57536485D01*
X59091792Y-57536485D02*
X59091792Y-57679342D01*
X59091792Y-57679342D02*
X59139411Y-57774580D01*
X59139411Y-57774580D02*
X59187030Y-57822200D01*
X59187030Y-57822200D02*
X59282268Y-57869819D01*
X59282268Y-57869819D02*
X59663220Y-57869819D01*
X59663220Y-57869819D02*
X59663220Y-56869819D01*
X59663220Y-56869819D02*
X59329887Y-56869819D01*
X59329887Y-56869819D02*
X59234649Y-56917438D01*
X59234649Y-56917438D02*
X59187030Y-56965057D01*
X59187030Y-56965057D02*
X59139411Y-57060295D01*
X59139411Y-57060295D02*
X59139411Y-57155533D01*
X59139411Y-57155533D02*
X59187030Y-57250771D01*
X59187030Y-57250771D02*
X59234649Y-57298390D01*
X59234649Y-57298390D02*
X59329887Y-57346009D01*
X59329887Y-57346009D02*
X59663220Y-57346009D01*
X58663220Y-57774580D02*
X58615601Y-57822200D01*
X58615601Y-57822200D02*
X58663220Y-57869819D01*
X58663220Y-57869819D02*
X58710839Y-57822200D01*
X58710839Y-57822200D02*
X58663220Y-57774580D01*
X58663220Y-57774580D02*
X58663220Y-57869819D01*
X58663220Y-57250771D02*
X58615601Y-57298390D01*
X58615601Y-57298390D02*
X58663220Y-57346009D01*
X58663220Y-57346009D02*
X58710839Y-57298390D01*
X58710839Y-57298390D02*
X58663220Y-57250771D01*
X58663220Y-57250771D02*
X58663220Y-57346009D01*
X57520363Y-56869819D02*
X56901316Y-56869819D01*
X56901316Y-56869819D02*
X57234649Y-57250771D01*
X57234649Y-57250771D02*
X57091792Y-57250771D01*
X57091792Y-57250771D02*
X56996554Y-57298390D01*
X56996554Y-57298390D02*
X56948935Y-57346009D01*
X56948935Y-57346009D02*
X56901316Y-57441247D01*
X56901316Y-57441247D02*
X56901316Y-57679342D01*
X56901316Y-57679342D02*
X56948935Y-57774580D01*
X56948935Y-57774580D02*
X56996554Y-57822200D01*
X56996554Y-57822200D02*
X57091792Y-57869819D01*
X57091792Y-57869819D02*
X57377506Y-57869819D01*
X57377506Y-57869819D02*
X57472744Y-57822200D01*
X57472744Y-57822200D02*
X57520363Y-57774580D01*
X56472744Y-57774580D02*
X56425125Y-57822200D01*
X56425125Y-57822200D02*
X56472744Y-57869819D01*
X56472744Y-57869819D02*
X56520363Y-57822200D01*
X56520363Y-57822200D02*
X56472744Y-57774580D01*
X56472744Y-57774580D02*
X56472744Y-57869819D01*
X55472745Y-57869819D02*
X56044173Y-57869819D01*
X55758459Y-57869819D02*
X55758459Y-56869819D01*
X55758459Y-56869819D02*
X55853697Y-57012676D01*
X55853697Y-57012676D02*
X55948935Y-57107914D01*
X55948935Y-57107914D02*
X56044173Y-57155533D01*
X55044173Y-57774580D02*
X54996554Y-57822200D01*
X54996554Y-57822200D02*
X55044173Y-57869819D01*
X55044173Y-57869819D02*
X55091792Y-57822200D01*
X55091792Y-57822200D02*
X55044173Y-57774580D01*
X55044173Y-57774580D02*
X55044173Y-57869819D01*
X54377507Y-56869819D02*
X54282269Y-56869819D01*
X54282269Y-56869819D02*
X54187031Y-56917438D01*
X54187031Y-56917438D02*
X54139412Y-56965057D01*
X54139412Y-56965057D02*
X54091793Y-57060295D01*
X54091793Y-57060295D02*
X54044174Y-57250771D01*
X54044174Y-57250771D02*
X54044174Y-57488866D01*
X54044174Y-57488866D02*
X54091793Y-57679342D01*
X54091793Y-57679342D02*
X54139412Y-57774580D01*
X54139412Y-57774580D02*
X54187031Y-57822200D01*
X54187031Y-57822200D02*
X54282269Y-57869819D01*
X54282269Y-57869819D02*
X54377507Y-57869819D01*
X54377507Y-57869819D02*
X54472745Y-57822200D01*
X54472745Y-57822200D02*
X54520364Y-57774580D01*
X54520364Y-57774580D02*
X54567983Y-57679342D01*
X54567983Y-57679342D02*
X54615602Y-57488866D01*
X54615602Y-57488866D02*
X54615602Y-57250771D01*
X54615602Y-57250771D02*
X54567983Y-57060295D01*
X54567983Y-57060295D02*
X54520364Y-56965057D01*
X54520364Y-56965057D02*
X54472745Y-56917438D01*
X54472745Y-56917438D02*
X54377507Y-56869819D01*
X53615602Y-57488866D02*
X52853698Y-57488866D01*
X51806079Y-57869819D02*
X52139412Y-57393628D01*
X52377507Y-57869819D02*
X52377507Y-56869819D01*
X52377507Y-56869819D02*
X51996555Y-56869819D01*
X51996555Y-56869819D02*
X51901317Y-56917438D01*
X51901317Y-56917438D02*
X51853698Y-56965057D01*
X51853698Y-56965057D02*
X51806079Y-57060295D01*
X51806079Y-57060295D02*
X51806079Y-57203152D01*
X51806079Y-57203152D02*
X51853698Y-57298390D01*
X51853698Y-57298390D02*
X51901317Y-57346009D01*
X51901317Y-57346009D02*
X51996555Y-57393628D01*
X51996555Y-57393628D02*
X52377507Y-57393628D01*
X50806079Y-57774580D02*
X50853698Y-57822200D01*
X50853698Y-57822200D02*
X50996555Y-57869819D01*
X50996555Y-57869819D02*
X51091793Y-57869819D01*
X51091793Y-57869819D02*
X51234650Y-57822200D01*
X51234650Y-57822200D02*
X51329888Y-57726961D01*
X51329888Y-57726961D02*
X51377507Y-57631723D01*
X51377507Y-57631723D02*
X51425126Y-57441247D01*
X51425126Y-57441247D02*
X51425126Y-57298390D01*
X51425126Y-57298390D02*
X51377507Y-57107914D01*
X51377507Y-57107914D02*
X51329888Y-57012676D01*
X51329888Y-57012676D02*
X51234650Y-56917438D01*
X51234650Y-56917438D02*
X51091793Y-56869819D01*
X51091793Y-56869819D02*
X50996555Y-56869819D01*
X50996555Y-56869819D02*
X50853698Y-56917438D01*
X50853698Y-56917438D02*
X50806079Y-56965057D01*
X34079819Y-43333922D02*
X35079819Y-43667255D01*
X35079819Y-43667255D02*
X34079819Y-44000588D01*
X35079819Y-44905350D02*
X34603628Y-44572017D01*
X35079819Y-44333922D02*
X34079819Y-44333922D01*
X34079819Y-44333922D02*
X34079819Y-44714874D01*
X34079819Y-44714874D02*
X34127438Y-44810112D01*
X34127438Y-44810112D02*
X34175057Y-44857731D01*
X34175057Y-44857731D02*
X34270295Y-44905350D01*
X34270295Y-44905350D02*
X34413152Y-44905350D01*
X34413152Y-44905350D02*
X34508390Y-44857731D01*
X34508390Y-44857731D02*
X34556009Y-44810112D01*
X34556009Y-44810112D02*
X34603628Y-44714874D01*
X34603628Y-44714874D02*
X34603628Y-44333922D01*
X34556009Y-45333922D02*
X34556009Y-45667255D01*
X35079819Y-45810112D02*
X35079819Y-45333922D01*
X35079819Y-45333922D02*
X34079819Y-45333922D01*
X34079819Y-45333922D02*
X34079819Y-45810112D01*
X34556009Y-46572017D02*
X34556009Y-46238684D01*
X35079819Y-46238684D02*
X34079819Y-46238684D01*
X34079819Y-46238684D02*
X34079819Y-46714874D01*
X44851133Y-123663220D02*
X44851133Y-122901316D01*
X44470180Y-123282268D02*
X45232085Y-123282268D01*
X45470180Y-121948935D02*
X45470180Y-122425125D01*
X45470180Y-122425125D02*
X44993990Y-122472744D01*
X44993990Y-122472744D02*
X45041609Y-122425125D01*
X45041609Y-122425125D02*
X45089228Y-122329887D01*
X45089228Y-122329887D02*
X45089228Y-122091792D01*
X45089228Y-122091792D02*
X45041609Y-121996554D01*
X45041609Y-121996554D02*
X44993990Y-121948935D01*
X44993990Y-121948935D02*
X44898752Y-121901316D01*
X44898752Y-121901316D02*
X44660657Y-121901316D01*
X44660657Y-121901316D02*
X44565419Y-121948935D01*
X44565419Y-121948935D02*
X44517800Y-121996554D01*
X44517800Y-121996554D02*
X44470180Y-122091792D01*
X44470180Y-122091792D02*
X44470180Y-122329887D01*
X44470180Y-122329887D02*
X44517800Y-122425125D01*
X44517800Y-122425125D02*
X44565419Y-122472744D01*
X45470180Y-121615601D02*
X44470180Y-121282268D01*
X44470180Y-121282268D02*
X45470180Y-120948935D01*
X58414173Y-22488628D02*
X58414173Y-20988628D01*
X58414173Y-20988628D02*
X57914173Y-22060057D01*
X57914173Y-22060057D02*
X57414173Y-20988628D01*
X57414173Y-20988628D02*
X57414173Y-22488628D01*
X56699887Y-22488628D02*
X56699887Y-20988628D01*
X55985601Y-22488628D02*
X55985601Y-20988628D01*
X55985601Y-20988628D02*
X55628458Y-20988628D01*
X55628458Y-20988628D02*
X55414172Y-21060057D01*
X55414172Y-21060057D02*
X55271315Y-21202914D01*
X55271315Y-21202914D02*
X55199886Y-21345771D01*
X55199886Y-21345771D02*
X55128458Y-21631485D01*
X55128458Y-21631485D02*
X55128458Y-21845771D01*
X55128458Y-21845771D02*
X55199886Y-22131485D01*
X55199886Y-22131485D02*
X55271315Y-22274342D01*
X55271315Y-22274342D02*
X55414172Y-22417200D01*
X55414172Y-22417200D02*
X55628458Y-22488628D01*
X55628458Y-22488628D02*
X55985601Y-22488628D01*
X54485601Y-22488628D02*
X54485601Y-20988628D01*
X134310619Y-57188379D02*
X133643952Y-57188379D01*
X133310619Y-57188379D02*
X133358238Y-57140760D01*
X133358238Y-57140760D02*
X133405857Y-57188379D01*
X133405857Y-57188379D02*
X133358238Y-57235998D01*
X133358238Y-57235998D02*
X133310619Y-57188379D01*
X133310619Y-57188379D02*
X133405857Y-57188379D01*
X133643952Y-57664569D02*
X134310619Y-57664569D01*
X133739190Y-57664569D02*
X133691571Y-57712188D01*
X133691571Y-57712188D02*
X133643952Y-57807426D01*
X133643952Y-57807426D02*
X133643952Y-57950283D01*
X133643952Y-57950283D02*
X133691571Y-58045521D01*
X133691571Y-58045521D02*
X133786809Y-58093140D01*
X133786809Y-58093140D02*
X134310619Y-58093140D01*
X47057030Y-125589819D02*
X47533220Y-125589819D01*
X47533220Y-125589819D02*
X47533220Y-124589819D01*
X46723696Y-125066009D02*
X46390363Y-125066009D01*
X46247506Y-125589819D02*
X46723696Y-125589819D01*
X46723696Y-125589819D02*
X46723696Y-124589819D01*
X46723696Y-124589819D02*
X46247506Y-124589819D01*
X45818934Y-125589819D02*
X45818934Y-124589819D01*
X45818934Y-124589819D02*
X45580839Y-124589819D01*
X45580839Y-124589819D02*
X45437982Y-124637438D01*
X45437982Y-124637438D02*
X45342744Y-124732676D01*
X45342744Y-124732676D02*
X45295125Y-124827914D01*
X45295125Y-124827914D02*
X45247506Y-125018390D01*
X45247506Y-125018390D02*
X45247506Y-125161247D01*
X45247506Y-125161247D02*
X45295125Y-125351723D01*
X45295125Y-125351723D02*
X45342744Y-125446961D01*
X45342744Y-125446961D02*
X45437982Y-125542200D01*
X45437982Y-125542200D02*
X45580839Y-125589819D01*
X45580839Y-125589819D02*
X45818934Y-125589819D01*
X43866553Y-124589819D02*
X43676077Y-124589819D01*
X43676077Y-124589819D02*
X43580839Y-124637438D01*
X43580839Y-124637438D02*
X43485601Y-124732676D01*
X43485601Y-124732676D02*
X43437982Y-124923152D01*
X43437982Y-124923152D02*
X43437982Y-125256485D01*
X43437982Y-125256485D02*
X43485601Y-125446961D01*
X43485601Y-125446961D02*
X43580839Y-125542200D01*
X43580839Y-125542200D02*
X43676077Y-125589819D01*
X43676077Y-125589819D02*
X43866553Y-125589819D01*
X43866553Y-125589819D02*
X43961791Y-125542200D01*
X43961791Y-125542200D02*
X44057029Y-125446961D01*
X44057029Y-125446961D02*
X44104648Y-125256485D01*
X44104648Y-125256485D02*
X44104648Y-124923152D01*
X44104648Y-124923152D02*
X44057029Y-124732676D01*
X44057029Y-124732676D02*
X43961791Y-124637438D01*
X43961791Y-124637438D02*
X43866553Y-124589819D01*
X43009410Y-124589819D02*
X43009410Y-125399342D01*
X43009410Y-125399342D02*
X42961791Y-125494580D01*
X42961791Y-125494580D02*
X42914172Y-125542200D01*
X42914172Y-125542200D02*
X42818934Y-125589819D01*
X42818934Y-125589819D02*
X42628458Y-125589819D01*
X42628458Y-125589819D02*
X42533220Y-125542200D01*
X42533220Y-125542200D02*
X42485601Y-125494580D01*
X42485601Y-125494580D02*
X42437982Y-125399342D01*
X42437982Y-125399342D02*
X42437982Y-124589819D01*
X42104648Y-124589819D02*
X41533220Y-124589819D01*
X41818934Y-125589819D02*
X41818934Y-124589819D01*
X182648219Y-37115979D02*
X181648219Y-37115979D01*
X182648219Y-37592169D02*
X181648219Y-37592169D01*
X181648219Y-37592169D02*
X182648219Y-38163597D01*
X182648219Y-38163597D02*
X181648219Y-38163597D01*
X64062744Y-26189819D02*
X63872268Y-26189819D01*
X63872268Y-26189819D02*
X63777030Y-26237438D01*
X63777030Y-26237438D02*
X63681792Y-26332676D01*
X63681792Y-26332676D02*
X63634173Y-26523152D01*
X63634173Y-26523152D02*
X63634173Y-26856485D01*
X63634173Y-26856485D02*
X63681792Y-27046961D01*
X63681792Y-27046961D02*
X63777030Y-27142200D01*
X63777030Y-27142200D02*
X63872268Y-27189819D01*
X63872268Y-27189819D02*
X64062744Y-27189819D01*
X64062744Y-27189819D02*
X64157982Y-27142200D01*
X64157982Y-27142200D02*
X64253220Y-27046961D01*
X64253220Y-27046961D02*
X64300839Y-26856485D01*
X64300839Y-26856485D02*
X64300839Y-26523152D01*
X64300839Y-26523152D02*
X64253220Y-26332676D01*
X64253220Y-26332676D02*
X64157982Y-26237438D01*
X64157982Y-26237438D02*
X64062744Y-26189819D01*
X63205601Y-26189819D02*
X63205601Y-26999342D01*
X63205601Y-26999342D02*
X63157982Y-27094580D01*
X63157982Y-27094580D02*
X63110363Y-27142200D01*
X63110363Y-27142200D02*
X63015125Y-27189819D01*
X63015125Y-27189819D02*
X62824649Y-27189819D01*
X62824649Y-27189819D02*
X62729411Y-27142200D01*
X62729411Y-27142200D02*
X62681792Y-27094580D01*
X62681792Y-27094580D02*
X62634173Y-26999342D01*
X62634173Y-26999342D02*
X62634173Y-26189819D01*
X62300839Y-26189819D02*
X61729411Y-26189819D01*
X62015125Y-27189819D02*
X62015125Y-26189819D01*
X28849819Y-43736779D02*
X27849819Y-43736779D01*
X28849819Y-44212969D02*
X27849819Y-44212969D01*
X27849819Y-44212969D02*
X28849819Y-44784397D01*
X28849819Y-44784397D02*
X27849819Y-44784397D01*
X175196619Y-36871522D02*
X176196619Y-37204855D01*
X176196619Y-37204855D02*
X175196619Y-37538188D01*
X176196619Y-38442950D02*
X175720428Y-38109617D01*
X176196619Y-37871522D02*
X175196619Y-37871522D01*
X175196619Y-37871522D02*
X175196619Y-38252474D01*
X175196619Y-38252474D02*
X175244238Y-38347712D01*
X175244238Y-38347712D02*
X175291857Y-38395331D01*
X175291857Y-38395331D02*
X175387095Y-38442950D01*
X175387095Y-38442950D02*
X175529952Y-38442950D01*
X175529952Y-38442950D02*
X175625190Y-38395331D01*
X175625190Y-38395331D02*
X175672809Y-38347712D01*
X175672809Y-38347712D02*
X175720428Y-38252474D01*
X175720428Y-38252474D02*
X175720428Y-37871522D01*
X175672809Y-38871522D02*
X175672809Y-39204855D01*
X176196619Y-39347712D02*
X176196619Y-38871522D01*
X176196619Y-38871522D02*
X175196619Y-38871522D01*
X175196619Y-38871522D02*
X175196619Y-39347712D01*
X175672809Y-40109617D02*
X175672809Y-39776284D01*
X176196619Y-39776284D02*
X175196619Y-39776284D01*
X175196619Y-39776284D02*
X175196619Y-40252474D01*
X116392857Y-42949580D02*
X116440476Y-42997200D01*
X116440476Y-42997200D02*
X116583333Y-43044819D01*
X116583333Y-43044819D02*
X116678571Y-43044819D01*
X116678571Y-43044819D02*
X116821428Y-42997200D01*
X116821428Y-42997200D02*
X116916666Y-42901961D01*
X116916666Y-42901961D02*
X116964285Y-42806723D01*
X116964285Y-42806723D02*
X117011904Y-42616247D01*
X117011904Y-42616247D02*
X117011904Y-42473390D01*
X117011904Y-42473390D02*
X116964285Y-42282914D01*
X116964285Y-42282914D02*
X116916666Y-42187676D01*
X116916666Y-42187676D02*
X116821428Y-42092438D01*
X116821428Y-42092438D02*
X116678571Y-42044819D01*
X116678571Y-42044819D02*
X116583333Y-42044819D01*
X116583333Y-42044819D02*
X116440476Y-42092438D01*
X116440476Y-42092438D02*
X116392857Y-42140057D01*
X116011904Y-42140057D02*
X115964285Y-42092438D01*
X115964285Y-42092438D02*
X115869047Y-42044819D01*
X115869047Y-42044819D02*
X115630952Y-42044819D01*
X115630952Y-42044819D02*
X115535714Y-42092438D01*
X115535714Y-42092438D02*
X115488095Y-42140057D01*
X115488095Y-42140057D02*
X115440476Y-42235295D01*
X115440476Y-42235295D02*
X115440476Y-42330533D01*
X115440476Y-42330533D02*
X115488095Y-42473390D01*
X115488095Y-42473390D02*
X116059523Y-43044819D01*
X116059523Y-43044819D02*
X115440476Y-43044819D01*
X115107142Y-42044819D02*
X114440476Y-42044819D01*
X114440476Y-42044819D02*
X114869047Y-43044819D01*
X26738094Y-123954819D02*
X26738094Y-122954819D01*
X26738094Y-123431009D02*
X26166666Y-123431009D01*
X26166666Y-123954819D02*
X26166666Y-122954819D01*
X25166666Y-123954819D02*
X25738094Y-123954819D01*
X25452380Y-123954819D02*
X25452380Y-122954819D01*
X25452380Y-122954819D02*
X25547618Y-123097676D01*
X25547618Y-123097676D02*
X25642856Y-123192914D01*
X25642856Y-123192914D02*
X25738094Y-123240533D01*
X24833332Y-122954819D02*
X24214285Y-122954819D01*
X24214285Y-122954819D02*
X24547618Y-123335771D01*
X24547618Y-123335771D02*
X24404761Y-123335771D01*
X24404761Y-123335771D02*
X24309523Y-123383390D01*
X24309523Y-123383390D02*
X24261904Y-123431009D01*
X24261904Y-123431009D02*
X24214285Y-123526247D01*
X24214285Y-123526247D02*
X24214285Y-123764342D01*
X24214285Y-123764342D02*
X24261904Y-123859580D01*
X24261904Y-123859580D02*
X24309523Y-123907200D01*
X24309523Y-123907200D02*
X24404761Y-123954819D01*
X24404761Y-123954819D02*
X24690475Y-123954819D01*
X24690475Y-123954819D02*
X24785713Y-123907200D01*
X24785713Y-123907200D02*
X24833332Y-123859580D01*
X101261904Y-72054819D02*
X101261904Y-71054819D01*
X101261904Y-71531009D02*
X100690476Y-71531009D01*
X100690476Y-72054819D02*
X100690476Y-71054819D01*
X100166666Y-72054819D02*
X99976190Y-72054819D01*
X99976190Y-72054819D02*
X99880952Y-72007200D01*
X99880952Y-72007200D02*
X99833333Y-71959580D01*
X99833333Y-71959580D02*
X99738095Y-71816723D01*
X99738095Y-71816723D02*
X99690476Y-71626247D01*
X99690476Y-71626247D02*
X99690476Y-71245295D01*
X99690476Y-71245295D02*
X99738095Y-71150057D01*
X99738095Y-71150057D02*
X99785714Y-71102438D01*
X99785714Y-71102438D02*
X99880952Y-71054819D01*
X99880952Y-71054819D02*
X100071428Y-71054819D01*
X100071428Y-71054819D02*
X100166666Y-71102438D01*
X100166666Y-71102438D02*
X100214285Y-71150057D01*
X100214285Y-71150057D02*
X100261904Y-71245295D01*
X100261904Y-71245295D02*
X100261904Y-71483390D01*
X100261904Y-71483390D02*
X100214285Y-71578628D01*
X100214285Y-71578628D02*
X100166666Y-71626247D01*
X100166666Y-71626247D02*
X100071428Y-71673866D01*
X100071428Y-71673866D02*
X99880952Y-71673866D01*
X99880952Y-71673866D02*
X99785714Y-71626247D01*
X99785714Y-71626247D02*
X99738095Y-71578628D01*
X99738095Y-71578628D02*
X99690476Y-71483390D01*
X26738094Y-72454819D02*
X26738094Y-71454819D01*
X26738094Y-71931009D02*
X26166666Y-71931009D01*
X26166666Y-72454819D02*
X26166666Y-71454819D01*
X25166666Y-72454819D02*
X25738094Y-72454819D01*
X25452380Y-72454819D02*
X25452380Y-71454819D01*
X25452380Y-71454819D02*
X25547618Y-71597676D01*
X25547618Y-71597676D02*
X25642856Y-71692914D01*
X25642856Y-71692914D02*
X25738094Y-71740533D01*
X24547618Y-71454819D02*
X24452380Y-71454819D01*
X24452380Y-71454819D02*
X24357142Y-71502438D01*
X24357142Y-71502438D02*
X24309523Y-71550057D01*
X24309523Y-71550057D02*
X24261904Y-71645295D01*
X24261904Y-71645295D02*
X24214285Y-71835771D01*
X24214285Y-71835771D02*
X24214285Y-72073866D01*
X24214285Y-72073866D02*
X24261904Y-72264342D01*
X24261904Y-72264342D02*
X24309523Y-72359580D01*
X24309523Y-72359580D02*
X24357142Y-72407200D01*
X24357142Y-72407200D02*
X24452380Y-72454819D01*
X24452380Y-72454819D02*
X24547618Y-72454819D01*
X24547618Y-72454819D02*
X24642856Y-72407200D01*
X24642856Y-72407200D02*
X24690475Y-72359580D01*
X24690475Y-72359580D02*
X24738094Y-72264342D01*
X24738094Y-72264342D02*
X24785713Y-72073866D01*
X24785713Y-72073866D02*
X24785713Y-71835771D01*
X24785713Y-71835771D02*
X24738094Y-71645295D01*
X24738094Y-71645295D02*
X24690475Y-71550057D01*
X24690475Y-71550057D02*
X24642856Y-71502438D01*
X24642856Y-71502438D02*
X24547618Y-71454819D01*
X176761904Y-71954819D02*
X176761904Y-70954819D01*
X176761904Y-71431009D02*
X176190476Y-71431009D01*
X176190476Y-71954819D02*
X176190476Y-70954819D01*
X175571428Y-71383390D02*
X175666666Y-71335771D01*
X175666666Y-71335771D02*
X175714285Y-71288152D01*
X175714285Y-71288152D02*
X175761904Y-71192914D01*
X175761904Y-71192914D02*
X175761904Y-71145295D01*
X175761904Y-71145295D02*
X175714285Y-71050057D01*
X175714285Y-71050057D02*
X175666666Y-71002438D01*
X175666666Y-71002438D02*
X175571428Y-70954819D01*
X175571428Y-70954819D02*
X175380952Y-70954819D01*
X175380952Y-70954819D02*
X175285714Y-71002438D01*
X175285714Y-71002438D02*
X175238095Y-71050057D01*
X175238095Y-71050057D02*
X175190476Y-71145295D01*
X175190476Y-71145295D02*
X175190476Y-71192914D01*
X175190476Y-71192914D02*
X175238095Y-71288152D01*
X175238095Y-71288152D02*
X175285714Y-71335771D01*
X175285714Y-71335771D02*
X175380952Y-71383390D01*
X175380952Y-71383390D02*
X175571428Y-71383390D01*
X175571428Y-71383390D02*
X175666666Y-71431009D01*
X175666666Y-71431009D02*
X175714285Y-71478628D01*
X175714285Y-71478628D02*
X175761904Y-71573866D01*
X175761904Y-71573866D02*
X175761904Y-71764342D01*
X175761904Y-71764342D02*
X175714285Y-71859580D01*
X175714285Y-71859580D02*
X175666666Y-71907200D01*
X175666666Y-71907200D02*
X175571428Y-71954819D01*
X175571428Y-71954819D02*
X175380952Y-71954819D01*
X175380952Y-71954819D02*
X175285714Y-71907200D01*
X175285714Y-71907200D02*
X175238095Y-71859580D01*
X175238095Y-71859580D02*
X175190476Y-71764342D01*
X175190476Y-71764342D02*
X175190476Y-71573866D01*
X175190476Y-71573866D02*
X175238095Y-71478628D01*
X175238095Y-71478628D02*
X175285714Y-71431009D01*
X175285714Y-71431009D02*
X175380952Y-71383390D01*
X102238094Y-123954819D02*
X102238094Y-122954819D01*
X102238094Y-123431009D02*
X101666666Y-123431009D01*
X101666666Y-123954819D02*
X101666666Y-122954819D01*
X100666666Y-123954819D02*
X101238094Y-123954819D01*
X100952380Y-123954819D02*
X100952380Y-122954819D01*
X100952380Y-122954819D02*
X101047618Y-123097676D01*
X101047618Y-123097676D02*
X101142856Y-123192914D01*
X101142856Y-123192914D02*
X101238094Y-123240533D01*
X100285713Y-123050057D02*
X100238094Y-123002438D01*
X100238094Y-123002438D02*
X100142856Y-122954819D01*
X100142856Y-122954819D02*
X99904761Y-122954819D01*
X99904761Y-122954819D02*
X99809523Y-123002438D01*
X99809523Y-123002438D02*
X99761904Y-123050057D01*
X99761904Y-123050057D02*
X99714285Y-123145295D01*
X99714285Y-123145295D02*
X99714285Y-123240533D01*
X99714285Y-123240533D02*
X99761904Y-123383390D01*
X99761904Y-123383390D02*
X100333332Y-123954819D01*
X100333332Y-123954819D02*
X99714285Y-123954819D01*
X75769523Y-25844819D02*
X75769523Y-26559104D01*
X75769523Y-26559104D02*
X75817142Y-26701961D01*
X75817142Y-26701961D02*
X75912380Y-26797200D01*
X75912380Y-26797200D02*
X76055237Y-26844819D01*
X76055237Y-26844819D02*
X76150475Y-26844819D01*
X75340951Y-25940057D02*
X75293332Y-25892438D01*
X75293332Y-25892438D02*
X75198094Y-25844819D01*
X75198094Y-25844819D02*
X74959999Y-25844819D01*
X74959999Y-25844819D02*
X74864761Y-25892438D01*
X74864761Y-25892438D02*
X74817142Y-25940057D01*
X74817142Y-25940057D02*
X74769523Y-26035295D01*
X74769523Y-26035295D02*
X74769523Y-26130533D01*
X74769523Y-26130533D02*
X74817142Y-26273390D01*
X74817142Y-26273390D02*
X75388570Y-26844819D01*
X75388570Y-26844819D02*
X74769523Y-26844819D01*
X74436189Y-25844819D02*
X73817142Y-25844819D01*
X73817142Y-25844819D02*
X74150475Y-26225771D01*
X74150475Y-26225771D02*
X74007618Y-26225771D01*
X74007618Y-26225771D02*
X73912380Y-26273390D01*
X73912380Y-26273390D02*
X73864761Y-26321009D01*
X73864761Y-26321009D02*
X73817142Y-26416247D01*
X73817142Y-26416247D02*
X73817142Y-26654342D01*
X73817142Y-26654342D02*
X73864761Y-26749580D01*
X73864761Y-26749580D02*
X73912380Y-26797200D01*
X73912380Y-26797200D02*
X74007618Y-26844819D01*
X74007618Y-26844819D02*
X74293332Y-26844819D01*
X74293332Y-26844819D02*
X74388570Y-26797200D01*
X74388570Y-26797200D02*
X74436189Y-26749580D01*
X39889523Y-128884819D02*
X39889523Y-129599104D01*
X39889523Y-129599104D02*
X39937142Y-129741961D01*
X39937142Y-129741961D02*
X40032380Y-129837200D01*
X40032380Y-129837200D02*
X40175237Y-129884819D01*
X40175237Y-129884819D02*
X40270475Y-129884819D01*
X39460951Y-128980057D02*
X39413332Y-128932438D01*
X39413332Y-128932438D02*
X39318094Y-128884819D01*
X39318094Y-128884819D02*
X39079999Y-128884819D01*
X39079999Y-128884819D02*
X38984761Y-128932438D01*
X38984761Y-128932438D02*
X38937142Y-128980057D01*
X38937142Y-128980057D02*
X38889523Y-129075295D01*
X38889523Y-129075295D02*
X38889523Y-129170533D01*
X38889523Y-129170533D02*
X38937142Y-129313390D01*
X38937142Y-129313390D02*
X39508570Y-129884819D01*
X39508570Y-129884819D02*
X38889523Y-129884819D01*
X38032380Y-128884819D02*
X38222856Y-128884819D01*
X38222856Y-128884819D02*
X38318094Y-128932438D01*
X38318094Y-128932438D02*
X38365713Y-128980057D01*
X38365713Y-128980057D02*
X38460951Y-129122914D01*
X38460951Y-129122914D02*
X38508570Y-129313390D01*
X38508570Y-129313390D02*
X38508570Y-129694342D01*
X38508570Y-129694342D02*
X38460951Y-129789580D01*
X38460951Y-129789580D02*
X38413332Y-129837200D01*
X38413332Y-129837200D02*
X38318094Y-129884819D01*
X38318094Y-129884819D02*
X38127618Y-129884819D01*
X38127618Y-129884819D02*
X38032380Y-129837200D01*
X38032380Y-129837200D02*
X37984761Y-129789580D01*
X37984761Y-129789580D02*
X37937142Y-129694342D01*
X37937142Y-129694342D02*
X37937142Y-129456247D01*
X37937142Y-129456247D02*
X37984761Y-129361009D01*
X37984761Y-129361009D02*
X38032380Y-129313390D01*
X38032380Y-129313390D02*
X38127618Y-129265771D01*
X38127618Y-129265771D02*
X38318094Y-129265771D01*
X38318094Y-129265771D02*
X38413332Y-129313390D01*
X38413332Y-129313390D02*
X38460951Y-129361009D01*
X38460951Y-129361009D02*
X38508570Y-129456247D01*
X176738094Y-123954819D02*
X176738094Y-122954819D01*
X176738094Y-123431009D02*
X176166666Y-123431009D01*
X176166666Y-123954819D02*
X176166666Y-122954819D01*
X175166666Y-123954819D02*
X175738094Y-123954819D01*
X175452380Y-123954819D02*
X175452380Y-122954819D01*
X175452380Y-122954819D02*
X175547618Y-123097676D01*
X175547618Y-123097676D02*
X175642856Y-123192914D01*
X175642856Y-123192914D02*
X175738094Y-123240533D01*
X174214285Y-123954819D02*
X174785713Y-123954819D01*
X174499999Y-123954819D02*
X174499999Y-122954819D01*
X174499999Y-122954819D02*
X174595237Y-123097676D01*
X174595237Y-123097676D02*
X174690475Y-123192914D01*
X174690475Y-123192914D02*
X174785713Y-123240533D01*
X124109523Y-67954819D02*
X124109523Y-68669104D01*
X124109523Y-68669104D02*
X124157142Y-68811961D01*
X124157142Y-68811961D02*
X124252380Y-68907200D01*
X124252380Y-68907200D02*
X124395237Y-68954819D01*
X124395237Y-68954819D02*
X124490475Y-68954819D01*
X123680951Y-68050057D02*
X123633332Y-68002438D01*
X123633332Y-68002438D02*
X123538094Y-67954819D01*
X123538094Y-67954819D02*
X123299999Y-67954819D01*
X123299999Y-67954819D02*
X123204761Y-68002438D01*
X123204761Y-68002438D02*
X123157142Y-68050057D01*
X123157142Y-68050057D02*
X123109523Y-68145295D01*
X123109523Y-68145295D02*
X123109523Y-68240533D01*
X123109523Y-68240533D02*
X123157142Y-68383390D01*
X123157142Y-68383390D02*
X123728570Y-68954819D01*
X123728570Y-68954819D02*
X123109523Y-68954819D01*
X122204761Y-67954819D02*
X122680951Y-67954819D01*
X122680951Y-67954819D02*
X122728570Y-68431009D01*
X122728570Y-68431009D02*
X122680951Y-68383390D01*
X122680951Y-68383390D02*
X122585713Y-68335771D01*
X122585713Y-68335771D02*
X122347618Y-68335771D01*
X122347618Y-68335771D02*
X122252380Y-68383390D01*
X122252380Y-68383390D02*
X122204761Y-68431009D01*
X122204761Y-68431009D02*
X122157142Y-68526247D01*
X122157142Y-68526247D02*
X122157142Y-68764342D01*
X122157142Y-68764342D02*
X122204761Y-68859580D01*
X122204761Y-68859580D02*
X122252380Y-68907200D01*
X122252380Y-68907200D02*
X122347618Y-68954819D01*
X122347618Y-68954819D02*
X122585713Y-68954819D01*
X122585713Y-68954819D02*
X122680951Y-68907200D01*
X122680951Y-68907200D02*
X122728570Y-68859580D01*
X66839523Y-25854819D02*
X66839523Y-26569104D01*
X66839523Y-26569104D02*
X66887142Y-26711961D01*
X66887142Y-26711961D02*
X66982380Y-26807200D01*
X66982380Y-26807200D02*
X67125237Y-26854819D01*
X67125237Y-26854819D02*
X67220475Y-26854819D01*
X66410951Y-25950057D02*
X66363332Y-25902438D01*
X66363332Y-25902438D02*
X66268094Y-25854819D01*
X66268094Y-25854819D02*
X66029999Y-25854819D01*
X66029999Y-25854819D02*
X65934761Y-25902438D01*
X65934761Y-25902438D02*
X65887142Y-25950057D01*
X65887142Y-25950057D02*
X65839523Y-26045295D01*
X65839523Y-26045295D02*
X65839523Y-26140533D01*
X65839523Y-26140533D02*
X65887142Y-26283390D01*
X65887142Y-26283390D02*
X66458570Y-26854819D01*
X66458570Y-26854819D02*
X65839523Y-26854819D01*
X64982380Y-26188152D02*
X64982380Y-26854819D01*
X65220475Y-25807200D02*
X65458570Y-26521485D01*
X65458570Y-26521485D02*
X64839523Y-26521485D01*
D11*
X70600000Y-25600000D02*
X70600000Y-24350000D01*
X70900000Y-20580000D02*
X79020000Y-20580000D01*
X70900000Y-22690000D02*
X71510000Y-22690000D01*
X70900000Y-23990000D02*
X71510000Y-23990000D01*
X70900000Y-25300000D02*
X70900000Y-20580000D01*
X71510000Y-21190000D02*
X78410000Y-21190000D01*
X71510000Y-24690000D02*
X71510000Y-21190000D01*
X71850000Y-25600000D02*
X70600000Y-25600000D01*
X72360000Y-25500000D02*
X72360000Y-25300000D01*
X72660000Y-25300000D02*
X72660000Y-25500000D01*
X72660000Y-25400000D02*
X72360000Y-25400000D01*
X72660000Y-25500000D02*
X72360000Y-25500000D01*
X73460000Y-24690000D02*
X71510000Y-24690000D01*
X73460000Y-25300000D02*
X73460000Y-24690000D01*
X73860000Y-21190000D02*
X73860000Y-21690000D01*
X73860000Y-21690000D02*
X74060000Y-21690000D01*
X73960000Y-21190000D02*
X73960000Y-21690000D01*
X74060000Y-21690000D02*
X74060000Y-21190000D01*
X75860000Y-21190000D02*
X75860000Y-21690000D01*
X75860000Y-21690000D02*
X76060000Y-21690000D01*
X75960000Y-21190000D02*
X75960000Y-21690000D01*
X76060000Y-21690000D02*
X76060000Y-21190000D01*
X76460000Y-24690000D02*
X76460000Y-25300000D01*
X78410000Y-21190000D02*
X78410000Y-24690000D01*
X78410000Y-24690000D02*
X76460000Y-24690000D01*
X79020000Y-20580000D02*
X79020000Y-25300000D01*
X79020000Y-22690000D02*
X78410000Y-22690000D01*
X79020000Y-23990000D02*
X78410000Y-23990000D01*
X79020000Y-25300000D02*
X70900000Y-25300000D01*
X49120000Y-125720000D02*
X49120000Y-126970000D01*
X48820000Y-130740000D02*
X40700000Y-130740000D01*
X48820000Y-128630000D02*
X48210000Y-128630000D01*
X48820000Y-127330000D02*
X48210000Y-127330000D01*
X48820000Y-126020000D02*
X48820000Y-130740000D01*
X48210000Y-130130000D02*
X41310000Y-130130000D01*
X48210000Y-126630000D02*
X48210000Y-130130000D01*
X47870000Y-125720000D02*
X49120000Y-125720000D01*
X47360000Y-125820000D02*
X47360000Y-126020000D01*
X47060000Y-126020000D02*
X47060000Y-125820000D01*
X47060000Y-125920000D02*
X47360000Y-125920000D01*
X47060000Y-125820000D02*
X47360000Y-125820000D01*
X46260000Y-126630000D02*
X48210000Y-126630000D01*
X46260000Y-126020000D02*
X46260000Y-126630000D01*
X45860000Y-130130000D02*
X45860000Y-129630000D01*
X45860000Y-129630000D02*
X45660000Y-129630000D01*
X45760000Y-130130000D02*
X45760000Y-129630000D01*
X45660000Y-129630000D02*
X45660000Y-130130000D01*
X43860000Y-130130000D02*
X43860000Y-129630000D01*
X43860000Y-129630000D02*
X43660000Y-129630000D01*
X43760000Y-130130000D02*
X43760000Y-129630000D01*
X43660000Y-129630000D02*
X43660000Y-130130000D01*
X43260000Y-126630000D02*
X43260000Y-126020000D01*
X41310000Y-130130000D02*
X41310000Y-126630000D01*
X41310000Y-126630000D02*
X43260000Y-126630000D01*
X40700000Y-130740000D02*
X40700000Y-126020000D01*
X40700000Y-128630000D02*
X41310000Y-128630000D01*
X40700000Y-127330000D02*
X41310000Y-127330000D01*
X40700000Y-126020000D02*
X48820000Y-126020000D01*
D12*
X171480000Y-63505600D02*
X171480000Y-121505600D01*
X167730000Y-125005600D02*
X167980000Y-125005600D01*
D11*
X158790000Y-123020600D02*
X158790000Y-117820600D01*
X157885000Y-76115600D02*
X157885000Y-81255600D01*
X157885000Y-73515600D02*
X157885000Y-74845600D01*
X156555000Y-73515600D02*
X157885000Y-73515600D01*
X155285000Y-76115600D02*
X157885000Y-76115600D01*
X155285000Y-73515600D02*
X155285000Y-76115600D01*
X153650000Y-120420600D02*
X153650000Y-117820600D01*
X153650000Y-117820600D02*
X158790000Y-117820600D01*
X152685000Y-81255600D02*
X157885000Y-81255600D01*
X152685000Y-73515600D02*
X155285000Y-73515600D01*
X152685000Y-73515600D02*
X152685000Y-81255600D01*
X151050000Y-123020600D02*
X158790000Y-123020600D01*
X151050000Y-123020600D02*
X151050000Y-120420600D01*
X151050000Y-120420600D02*
X153650000Y-120420600D01*
X151050000Y-119150600D02*
X151050000Y-117820600D01*
X151050000Y-117820600D02*
X152380000Y-117820600D01*
X121580000Y-69645600D02*
X121580000Y-117965600D01*
X121580000Y-67045600D02*
X121580000Y-68375600D01*
X120250000Y-67045600D02*
X121580000Y-67045600D01*
X118980000Y-69645600D02*
X121580000Y-69645600D01*
X118980000Y-67045600D02*
X118980000Y-69645600D01*
D12*
X118980000Y-60005600D02*
X167980000Y-60005600D01*
X118980000Y-60005600D02*
X118480000Y-60005243D01*
X118230000Y-125005600D02*
X167730000Y-125005600D01*
D11*
X116380000Y-117965600D02*
X121580000Y-117965600D01*
X116380000Y-67045600D02*
X118980000Y-67045600D01*
X116380000Y-67045600D02*
X116380000Y-117965600D01*
D12*
X114980000Y-121505600D02*
X114980000Y-63555600D01*
X167980000Y-125005600D02*
G75*
G03*
X171480000Y-121505600I1J3499999D01*
G01*
X171480000Y-63505600D02*
G75*
G03*
X167980000Y-60005600I-3499999J1D01*
G01*
X114980000Y-121505600D02*
G75*
G03*
X118480000Y-125005600I3500000J0D01*
G01*
X118480000Y-60005243D02*
G75*
G03*
X114980000Y-63555600I0J-3500357D01*
G01*
X169631000Y-121505600D02*
G75*
G03*
X169631000Y-121505600I-1651000J0D01*
G01*
X169631000Y-63505600D02*
G75*
G03*
X169631000Y-63505600I-1651000J0D01*
G01*
X120631000Y-121505600D02*
G75*
G03*
X120631000Y-121505600I-1651000J0D01*
G01*
X120631000Y-63505600D02*
G75*
G03*
X120631000Y-63505600I-1651000J0D01*
G01*
D11*
X61670000Y-25610000D02*
X61670000Y-24360000D01*
X61970000Y-20590000D02*
X70090000Y-20590000D01*
X61970000Y-22700000D02*
X62580000Y-22700000D01*
X61970000Y-24000000D02*
X62580000Y-24000000D01*
X61970000Y-25310000D02*
X61970000Y-20590000D01*
X62580000Y-21200000D02*
X69480000Y-21200000D01*
X62580000Y-24700000D02*
X62580000Y-21200000D01*
X62920000Y-25610000D02*
X61670000Y-25610000D01*
X63430000Y-25510000D02*
X63430000Y-25310000D01*
X63730000Y-25310000D02*
X63730000Y-25510000D01*
X63730000Y-25410000D02*
X63430000Y-25410000D01*
X63730000Y-25510000D02*
X63430000Y-25510000D01*
X64530000Y-24700000D02*
X62580000Y-24700000D01*
X64530000Y-25310000D02*
X64530000Y-24700000D01*
X64930000Y-21200000D02*
X64930000Y-21700000D01*
X64930000Y-21700000D02*
X65130000Y-21700000D01*
X65030000Y-21200000D02*
X65030000Y-21700000D01*
X65130000Y-21700000D02*
X65130000Y-21200000D01*
X66930000Y-21200000D02*
X66930000Y-21700000D01*
X66930000Y-21700000D02*
X67130000Y-21700000D01*
X67030000Y-21200000D02*
X67030000Y-21700000D01*
X67130000Y-21700000D02*
X67130000Y-21200000D01*
X67530000Y-24700000D02*
X67530000Y-25310000D01*
X69480000Y-21200000D02*
X69480000Y-24700000D01*
X69480000Y-24700000D02*
X67530000Y-24700000D01*
X70090000Y-20590000D02*
X70090000Y-25310000D01*
X70090000Y-22700000D02*
X69480000Y-22700000D01*
X70090000Y-24000000D02*
X69480000Y-24000000D01*
X70090000Y-25310000D02*
X61970000Y-25310000D01*
%LPC*%
D13*
X168000000Y-121500000D03*
D14*
X125000000Y-29500000D03*
X122500000Y-29500000D03*
D15*
X120000000Y-24500000D03*
D14*
X115000000Y-29500000D03*
X117500000Y-29500000D03*
D16*
X28050000Y-50000000D03*
X28050000Y-33770000D03*
X21700000Y-50000000D03*
X21700000Y-33770000D03*
X34400000Y-50000000D03*
X34400000Y-33770000D03*
X28050000Y-111200000D03*
X28050000Y-94970000D03*
X21700000Y-111200000D03*
X21700000Y-94970000D03*
X34400000Y-111200000D03*
X34400000Y-94970000D03*
D17*
X179400000Y-30400000D03*
D18*
X179400000Y-24600000D03*
D19*
X174600000Y-27400000D03*
D20*
X178500000Y-28210000D03*
D21*
X178500000Y-23210000D03*
D22*
X29000000Y-56000000D03*
D23*
X31000000Y-56000000D03*
X29000000Y-58000000D03*
X31000000Y-58000000D03*
D16*
X28050000Y-91000000D03*
X28050000Y-74770000D03*
X21700000Y-91000000D03*
X21700000Y-74770000D03*
X34400000Y-91000000D03*
X34400000Y-74770000D03*
X181950000Y-94995000D03*
X181950000Y-111225000D03*
X188300000Y-94995000D03*
X188300000Y-111225000D03*
X175600000Y-94995000D03*
X175600000Y-111225000D03*
D24*
X129315000Y-44450000D03*
D25*
X131855000Y-44450000D03*
X134395000Y-44450000D03*
D13*
X118980000Y-121520000D03*
D22*
X181000000Y-130000000D03*
D23*
X179000000Y-130000000D03*
X181000000Y-128000000D03*
X179000000Y-128000000D03*
D26*
X80100000Y-21075000D03*
X80100000Y-22075000D03*
X80100000Y-23075000D03*
X80100000Y-24075000D03*
X80100000Y-25075000D03*
X80100000Y-26075000D03*
X80100000Y-30075000D03*
X80100000Y-31075000D03*
X80100000Y-32075000D03*
X80100000Y-33075000D03*
X80100000Y-34075000D03*
X80100000Y-35075000D03*
X80100000Y-36075000D03*
X81100000Y-36075000D03*
X82100000Y-36075000D03*
X83100000Y-36075000D03*
X84100000Y-36075000D03*
X85100000Y-36075000D03*
X86100000Y-36075000D03*
X87100000Y-36075000D03*
X88100000Y-36075000D03*
X89100000Y-36075000D03*
X90100000Y-36075000D03*
X91100000Y-36075000D03*
X92100000Y-36075000D03*
X93100000Y-36075000D03*
X94100000Y-36075000D03*
X95100000Y-36075000D03*
X96100000Y-36075000D03*
X97100000Y-36075000D03*
X98100000Y-36075000D03*
X99100000Y-36075000D03*
X100100000Y-36075000D03*
X101100000Y-36075000D03*
X102100000Y-36075000D03*
X103100000Y-36075000D03*
X104100000Y-36075000D03*
X105100000Y-36075000D03*
X106100000Y-36075000D03*
X107100000Y-36075000D03*
X108100000Y-36075000D03*
X109100000Y-36075000D03*
X110100000Y-36075000D03*
X111100000Y-36075000D03*
X112100000Y-36075000D03*
X113100000Y-36075000D03*
X114100000Y-36075000D03*
X115100000Y-36075000D03*
X116100000Y-36075000D03*
X117100000Y-36075000D03*
X118100000Y-36075000D03*
X119100000Y-36075000D03*
X120100000Y-36075000D03*
X121100000Y-36075000D03*
X122100000Y-36075000D03*
X123100000Y-36075000D03*
X124100000Y-36075000D03*
X125100000Y-36075000D03*
X126100000Y-36075000D03*
X127100000Y-36075000D03*
X128100000Y-36075000D03*
X129100000Y-36075000D03*
X130100000Y-21075000D03*
X130100000Y-22075000D03*
X130100000Y-23075000D03*
X130100000Y-24075000D03*
X130100000Y-25075000D03*
X130100000Y-26075000D03*
X130100000Y-27075000D03*
X130100000Y-28075000D03*
X130100000Y-29075000D03*
X130100000Y-30075000D03*
X130100000Y-31075000D03*
X130100000Y-32075000D03*
X130100000Y-33075000D03*
X130100000Y-34075000D03*
X130100000Y-35075000D03*
X130100000Y-36075000D03*
D22*
X31000000Y-130000000D03*
D23*
X29000000Y-130000000D03*
X31000000Y-128000000D03*
X29000000Y-128000000D03*
D22*
X106000000Y-78000000D03*
D23*
X104000000Y-78000000D03*
X106000000Y-76000000D03*
X104000000Y-76000000D03*
D27*
X71740000Y-55030000D03*
D28*
X72740000Y-54380000D03*
X71740000Y-53730000D03*
X72740000Y-53080000D03*
X71740000Y-52430000D03*
D29*
X71960000Y-57305000D03*
X71960000Y-50155000D03*
D13*
X42000000Y-23000000D03*
D16*
X181965000Y-33800000D03*
X181965000Y-50030000D03*
X188315000Y-33800000D03*
X188315000Y-50030000D03*
X175615000Y-33800000D03*
X175615000Y-50030000D03*
D22*
X143500000Y-45000000D03*
D23*
X141500000Y-45000000D03*
X143500000Y-43000000D03*
X141500000Y-43000000D03*
D13*
X168000000Y-63500000D03*
G36*
X111946312Y-33285921D02*
G01*
X111214079Y-32553688D01*
X111199200Y-32517767D01*
X111199200Y-31482233D01*
X111214079Y-31446312D01*
X111946312Y-30714079D01*
X111982233Y-30699200D01*
X113017767Y-30699200D01*
X113053688Y-30714079D01*
X113785921Y-31446312D01*
X113800800Y-31482233D01*
X113800800Y-32517767D01*
X113785921Y-32553688D01*
X113053688Y-33285921D01*
X113017767Y-33300800D01*
X111982233Y-33300800D01*
X111946312Y-33285921D01*
G37*
G36*
X121285921Y-32553688D02*
G01*
X120553688Y-33285921D01*
X120517767Y-33300800D01*
X119482233Y-33300800D01*
X119446312Y-33285921D01*
X118714079Y-32553688D01*
X118699200Y-32517767D01*
X118699200Y-31482233D01*
X118714079Y-31446312D01*
X119446312Y-30714079D01*
X119482233Y-30699200D01*
X120517767Y-30699200D01*
X120553688Y-30714079D01*
X121285921Y-31446312D01*
X121300800Y-31482233D01*
X121300800Y-32517767D01*
X121285921Y-32553688D01*
G37*
G36*
X126946312Y-33285921D02*
G01*
X126214079Y-32553688D01*
X126199200Y-32517767D01*
X126199200Y-31482233D01*
X126214079Y-31446312D01*
X126946312Y-30714079D01*
X126982233Y-30699200D01*
X128017767Y-30699200D01*
X128053688Y-30714079D01*
X128785921Y-31446312D01*
X128800800Y-31482233D01*
X128800800Y-32517767D01*
X128785921Y-32553688D01*
X128053688Y-33285921D01*
X128017767Y-33300800D01*
X126982233Y-33300800D01*
X126946312Y-33285921D01*
G37*
G36*
X114446312Y-35785921D02*
G01*
X113714079Y-35053688D01*
X113699200Y-35017767D01*
X113699200Y-33982233D01*
X113714079Y-33946312D01*
X114446312Y-33214079D01*
X114482233Y-33199200D01*
X115517767Y-33199200D01*
X115553688Y-33214079D01*
X116285921Y-33946312D01*
X116300800Y-33982233D01*
X116300800Y-35017767D01*
X116285921Y-35053688D01*
X115553688Y-35785921D01*
X115517767Y-35800800D01*
X114482233Y-35800800D01*
X114446312Y-35785921D01*
G37*
G36*
X124446312Y-35785921D02*
G01*
X123714079Y-35053688D01*
X123699200Y-35017767D01*
X123699200Y-33982233D01*
X123714079Y-33946312D01*
X124446312Y-33214079D01*
X124482233Y-33199200D01*
X125517767Y-33199200D01*
X125553688Y-33214079D01*
X126285921Y-33946312D01*
X126300800Y-33982233D01*
X126300800Y-35017767D01*
X126285921Y-35053688D01*
X125553688Y-35785921D01*
X125517767Y-35800800D01*
X124482233Y-35800800D01*
X124446312Y-35785921D01*
G37*
G36*
X121564079Y-23035921D02*
G01*
X121549200Y-23000000D01*
X121549200Y-21900000D01*
X121564079Y-21864079D01*
X122464079Y-20964079D01*
X122500000Y-20949200D01*
X123400000Y-20949200D01*
X123435921Y-20964079D01*
X123450800Y-21000000D01*
X123450800Y-23000000D01*
X123435921Y-23035921D01*
X123400000Y-23050800D01*
X121600000Y-23050800D01*
X121564079Y-23035921D01*
G37*
G36*
G01*
X125950800Y-21000000D02*
X125950800Y-23000000D01*
G75*
G02*
X125900000Y-23050800I-50800J0D01*
G01*
X124100000Y-23050800D01*
G75*
G02*
X124049200Y-23000000I0J50800D01*
G01*
X124049200Y-21000000D01*
G75*
G02*
X124100000Y-20949200I50800J0D01*
G01*
X125900000Y-20949200D01*
G75*
G02*
X125950800Y-21000000I0J-50800D01*
G01*
G37*
G36*
G01*
X115950800Y-21000000D02*
X115950800Y-23000000D01*
G75*
G02*
X115900000Y-23050800I-50800J0D01*
G01*
X114100000Y-23050800D01*
G75*
G02*
X114049200Y-23000000I0J50800D01*
G01*
X114049200Y-21000000D01*
G75*
G02*
X114100000Y-20949200I50800J0D01*
G01*
X115900000Y-20949200D01*
G75*
G02*
X115950800Y-21000000I0J-50800D01*
G01*
G37*
G36*
X116564079Y-23035921D02*
G01*
X116549200Y-23000000D01*
X116549200Y-21000000D01*
X116564079Y-20964079D01*
X116600000Y-20949200D01*
X117500000Y-20949200D01*
X117535921Y-20964079D01*
X118435921Y-21864079D01*
X118450800Y-21900000D01*
X118450800Y-23000000D01*
X118435921Y-23035921D01*
X118400000Y-23050800D01*
X116600000Y-23050800D01*
X116564079Y-23035921D01*
G37*
D30*
X60250000Y-31500000D03*
D31*
X60250000Y-36500000D03*
X60250000Y-34000000D03*
D32*
X67750000Y-28400000D03*
X67750000Y-39600000D03*
D31*
X74750000Y-36500000D03*
X74750000Y-31500000D03*
D22*
X179000000Y-56000000D03*
D23*
X181000000Y-56000000D03*
X179000000Y-58000000D03*
X181000000Y-58000000D03*
D22*
X68500000Y-45000000D03*
D23*
X66500000Y-45000000D03*
X68500000Y-43000000D03*
X66500000Y-43000000D03*
D24*
X107225000Y-81300000D03*
D25*
X104685000Y-81300000D03*
X102145000Y-81300000D03*
D16*
X181950000Y-74780000D03*
X181950000Y-91010000D03*
X188300000Y-74780000D03*
X188300000Y-91010000D03*
X175600000Y-74780000D03*
X175600000Y-91010000D03*
D22*
X104000000Y-108000000D03*
D23*
X106000000Y-108000000D03*
X104000000Y-110000000D03*
X106000000Y-110000000D03*
D13*
X118900000Y-63565600D03*
D33*
X89000000Y-111500000D03*
X89000000Y-63500000D03*
X56000000Y-111500000D03*
X56000000Y-63500000D03*
D13*
X168000000Y-23000000D03*
D30*
X135250000Y-31500000D03*
D31*
X135250000Y-36500000D03*
X135250000Y-34000000D03*
D32*
X142750000Y-28400000D03*
X142750000Y-39600000D03*
D31*
X149750000Y-36500000D03*
X149750000Y-31500000D03*
G36*
X81946312Y-33285921D02*
G01*
X81214079Y-32553688D01*
X81199200Y-32517767D01*
X81199200Y-31482233D01*
X81214079Y-31446312D01*
X81946312Y-30714079D01*
X81982233Y-30699200D01*
X83017767Y-30699200D01*
X83053688Y-30714079D01*
X83785921Y-31446312D01*
X83800800Y-31482233D01*
X83800800Y-32517767D01*
X83785921Y-32553688D01*
X83053688Y-33285921D01*
X83017767Y-33300800D01*
X81982233Y-33300800D01*
X81946312Y-33285921D01*
G37*
G36*
X91285921Y-32553688D02*
G01*
X90553688Y-33285921D01*
X90517767Y-33300800D01*
X89482233Y-33300800D01*
X89446312Y-33285921D01*
X88714079Y-32553688D01*
X88699200Y-32517767D01*
X88699200Y-31482233D01*
X88714079Y-31446312D01*
X89446312Y-30714079D01*
X89482233Y-30699200D01*
X90517767Y-30699200D01*
X90553688Y-30714079D01*
X91285921Y-31446312D01*
X91300800Y-31482233D01*
X91300800Y-32517767D01*
X91285921Y-32553688D01*
G37*
G36*
X96946312Y-33285921D02*
G01*
X96214079Y-32553688D01*
X96199200Y-32517767D01*
X96199200Y-31482233D01*
X96214079Y-31446312D01*
X96946312Y-30714079D01*
X96982233Y-30699200D01*
X98017767Y-30699200D01*
X98053688Y-30714079D01*
X98785921Y-31446312D01*
X98800800Y-31482233D01*
X98800800Y-32517767D01*
X98785921Y-32553688D01*
X98053688Y-33285921D01*
X98017767Y-33300800D01*
X96982233Y-33300800D01*
X96946312Y-33285921D01*
G37*
G36*
X84446312Y-35785921D02*
G01*
X83714079Y-35053688D01*
X83699200Y-35017767D01*
X83699200Y-33982233D01*
X83714079Y-33946312D01*
X84446312Y-33214079D01*
X84482233Y-33199200D01*
X85517767Y-33199200D01*
X85553688Y-33214079D01*
X86285921Y-33946312D01*
X86300800Y-33982233D01*
X86300800Y-35017767D01*
X86285921Y-35053688D01*
X85553688Y-35785921D01*
X85517767Y-35800800D01*
X84482233Y-35800800D01*
X84446312Y-35785921D01*
G37*
G36*
X94446312Y-35785921D02*
G01*
X93714079Y-35053688D01*
X93699200Y-35017767D01*
X93699200Y-33982233D01*
X93714079Y-33946312D01*
X94446312Y-33214079D01*
X94482233Y-33199200D01*
X95517767Y-33199200D01*
X95553688Y-33214079D01*
X96285921Y-33946312D01*
X96300800Y-33982233D01*
X96300800Y-35017767D01*
X96285921Y-35053688D01*
X95553688Y-35785921D01*
X95517767Y-35800800D01*
X94482233Y-35800800D01*
X94446312Y-35785921D01*
G37*
G36*
X91564079Y-23035921D02*
G01*
X91549200Y-23000000D01*
X91549200Y-21900000D01*
X91564079Y-21864079D01*
X92464079Y-20964079D01*
X92500000Y-20949200D01*
X93400000Y-20949200D01*
X93435921Y-20964079D01*
X93450800Y-21000000D01*
X93450800Y-23000000D01*
X93435921Y-23035921D01*
X93400000Y-23050800D01*
X91600000Y-23050800D01*
X91564079Y-23035921D01*
G37*
G36*
G01*
X95950800Y-21000000D02*
X95950800Y-23000000D01*
G75*
G02*
X95900000Y-23050800I-50800J0D01*
G01*
X94100000Y-23050800D01*
G75*
G02*
X94049200Y-23000000I0J50800D01*
G01*
X94049200Y-21000000D01*
G75*
G02*
X94100000Y-20949200I50800J0D01*
G01*
X95900000Y-20949200D01*
G75*
G02*
X95950800Y-21000000I0J-50800D01*
G01*
G37*
G36*
G01*
X85950800Y-21000000D02*
X85950800Y-23000000D01*
G75*
G02*
X85900000Y-23050800I-50800J0D01*
G01*
X84100000Y-23050800D01*
G75*
G02*
X84049200Y-23000000I0J50800D01*
G01*
X84049200Y-21000000D01*
G75*
G02*
X84100000Y-20949200I50800J0D01*
G01*
X85900000Y-20949200D01*
G75*
G02*
X85950800Y-21000000I0J-50800D01*
G01*
G37*
G36*
X86564079Y-23035921D02*
G01*
X86549200Y-23000000D01*
X86549200Y-21000000D01*
X86564079Y-20964079D01*
X86600000Y-20949200D01*
X87500000Y-20949200D01*
X87535921Y-20964079D01*
X88435921Y-21864079D01*
X88450800Y-21900000D01*
X88450800Y-23000000D01*
X88435921Y-23035921D01*
X88400000Y-23050800D01*
X86600000Y-23050800D01*
X86564079Y-23035921D01*
G37*
D14*
X94994500Y-29500000D03*
X92494500Y-29500000D03*
D15*
X89994500Y-24500000D03*
D14*
X84994500Y-29500000D03*
X87494500Y-29500000D03*
D34*
X30000000Y-119000000D03*
X105000000Y-67000000D03*
X30000000Y-67000000D03*
X180000000Y-67000000D03*
X105000000Y-119000000D03*
G36*
G01*
X72360000Y-24115000D02*
X72360000Y-22865000D01*
G75*
G02*
X72610000Y-22615000I250000J0D01*
G01*
X73310000Y-22615000D01*
G75*
G02*
X73560000Y-22865000I0J-250000D01*
G01*
X73560000Y-24115000D01*
G75*
G02*
X73310000Y-24365000I-250000J0D01*
G01*
X72610000Y-24365000D01*
G75*
G02*
X72360000Y-24115000I0J250000D01*
G01*
G37*
D35*
X74960000Y-23490000D03*
X76960000Y-23490000D03*
G36*
G01*
X47360000Y-127205000D02*
X47360000Y-128455000D01*
G75*
G02*
X47110000Y-128705000I-250000J0D01*
G01*
X46410000Y-128705000D01*
G75*
G02*
X46160000Y-128455000I0J250000D01*
G01*
X46160000Y-127205000D01*
G75*
G02*
X46410000Y-126955000I250000J0D01*
G01*
X47110000Y-126955000D01*
G75*
G02*
X47360000Y-127205000I0J-250000D01*
G01*
G37*
X44760000Y-127830000D03*
X42760000Y-127830000D03*
D34*
X180000000Y-119000000D03*
D24*
X120250000Y-68375600D03*
D25*
X117710000Y-68375600D03*
X120250000Y-70915600D03*
X117710000Y-70915600D03*
X120250000Y-73455600D03*
X117710000Y-73455600D03*
X120250000Y-75995600D03*
X117710000Y-75995600D03*
X120250000Y-78535600D03*
X117710000Y-78535600D03*
X120250000Y-81075600D03*
X117710000Y-81075600D03*
X120250000Y-83615600D03*
X117710000Y-83615600D03*
X120250000Y-86155600D03*
X117710000Y-86155600D03*
X120250000Y-88695600D03*
X117710000Y-88695600D03*
X120250000Y-91235600D03*
X117710000Y-91235600D03*
X120250000Y-93775600D03*
X117710000Y-93775600D03*
X120250000Y-96315600D03*
X117710000Y-96315600D03*
X120250000Y-98855600D03*
X117710000Y-98855600D03*
X120250000Y-101395600D03*
X117710000Y-101395600D03*
X120250000Y-103935600D03*
X117710000Y-103935600D03*
X120250000Y-106475600D03*
X117710000Y-106475600D03*
X120250000Y-109015600D03*
X117710000Y-109015600D03*
X120250000Y-111555600D03*
X117710000Y-111555600D03*
X120250000Y-114095600D03*
X117710000Y-114095600D03*
X120250000Y-116635600D03*
X117710000Y-116635600D03*
D24*
X156555000Y-74845600D03*
D25*
X154015000Y-74845600D03*
X156555000Y-77385600D03*
X154015000Y-77385600D03*
X156555000Y-79925600D03*
X154015000Y-79925600D03*
D24*
X152380000Y-119150600D03*
D25*
X152380000Y-121690600D03*
X154920000Y-119150600D03*
X154920000Y-121690600D03*
X157460000Y-119150600D03*
X157460000Y-121690600D03*
G36*
G01*
X63430000Y-24125000D02*
X63430000Y-22875000D01*
G75*
G02*
X63680000Y-22625000I250000J0D01*
G01*
X64380000Y-22625000D01*
G75*
G02*
X64630000Y-22875000I0J-250000D01*
G01*
X64630000Y-24125000D01*
G75*
G02*
X64380000Y-24375000I-250000J0D01*
G01*
X63680000Y-24375000D01*
G75*
G02*
X63430000Y-24125000I0J250000D01*
G01*
G37*
D35*
X66030000Y-23500000D03*
X68030000Y-23500000D03*
%LPD*%
M02*
