M48
; DRILL file {KiCad 8.0.4+1} date 2024-10-13T10:14:25+0000
; FORMAT={-:-/ absolute / metric / decimal}
; #@! TF.CreationDate,2024-10-13T10:14:25+00:00
; #@! TF.GenerationSoftware,Kicad,Pcbnew,8.0.4+1
; #@! TF.FileFunction,Plated,1,2,PTH
FMAT,2
METRIC
; #@! TA.AperFunction,Plated,PTH,ViaDrill
T1C0.300
; #@! TA.AperFunction,Plated,PTH,ComponentDrill
T2C0.300
; #@! TA.AperFunction,Plated,PTH,ComponentDrill
T3C0.350
; #@! TA.AperFunction,Plated,PTH,ViaDrill
T4C0.400
; #@! TA.AperFunction,Plated,PTH,ComponentDrill
T5C0.450
; #@! TA.AperFunction,Plated,PTH,ComponentDrill
T6C0.650
; #@! TA.AperFunction,Plated,PTH,ComponentDrill
T7C0.700
; #@! TA.AperFunction,Plated,PTH,ComponentDrill
T8C0.750
; #@! TA.AperFunction,Plated,PTH,ViaDrill
T9C0.800
; #@! TA.AperFunction,Plated,PTH,ComponentDrill
T10C0.800
; #@! TA.AperFunction,Plated,PTH,ComponentDrill
T11C0.950
; #@! TA.AperFunction,Plated,PTH,ComponentDrill
T12C1.000
; #@! TA.AperFunction,Plated,PTH,ComponentDrill
T13C1.300
; #@! TA.AperFunction,Plated,PTH,ComponentDrill
T14C1.321
; #@! TA.AperFunction,Plated,PTH,ComponentDrill
T15C1.400
; #@! TA.AperFunction,Plated,PTH,ComponentDrill
T16C2.300
; #@! TA.AperFunction,Plated,PTH,ComponentDrill
T17C2.600
%
G90
G05
T1
X101.66Y-43.41
X101.8Y-45.56
X109.955Y-45.487
X149.6Y-45.89
T2
X157.57Y-41.75
X157.57Y-43.05
X158.87Y-41.75
X158.87Y-43.05
X160.17Y-41.75
X160.17Y-43.05
X161.47Y-41.75
X161.47Y-43.05
T3
X106.125Y-44.325
X106.125Y-45.6
X106.125Y-46.875
X107.4Y-44.325
X107.4Y-45.6
X107.4Y-46.875
X108.675Y-44.325
X108.675Y-45.6
X108.675Y-46.875
T4
X23.28Y-29.99
X23.31Y-27.05
X24.2Y-69.5
X24.2Y-121.5
X28.74Y-21.3
X31.64Y-21.98
X32.97Y-30.12
X33.67Y-21.93
X35.08Y-29.08
X35.8Y-69.5
X36.34Y-21.27
X37.0Y-122.6
X40.15Y-54.49
X40.19Y-58.12
X40.54Y-25.7
X41.65Y-116.07
X42.23Y-116.884
X43.61Y-46.43
X43.64Y-58.38
X46.66Y-49.41
X47.01Y-46.14
X47.02Y-41.22
X47.865Y-43.64
X47.89Y-54.23
X49.325Y-41.865
X49.66Y-38.6
X49.83Y-54.22
X50.19Y-108.52
X50.221Y-107.52
X50.55Y-61.29
X51.72Y-54.27
X52.25Y-46.02
X53.138Y-58.49
X54.1Y-51.93
X54.36Y-53.55
X54.415Y-41.785
X55.31Y-50.76
X55.5Y-75.0
X55.5Y-78.0
X55.5Y-80.5
X55.5Y-83.0
X55.5Y-85.5
X55.5Y-88.0
X55.5Y-90.5
X55.5Y-93.0
X55.5Y-95.5
X55.58Y-48.77
X56.0Y-41.872
X57.554Y-58.914
X59.05Y-55.7
X59.23Y-48.73
X59.45Y-44.832
X59.99Y-50.76
X61.67Y-48.91
X62.01Y-44.02
X62.34Y-58.79
X63.92Y-44.64
X63.98Y-51.57
X65.25Y-53.93
X77.044Y-27.714
X77.355Y-40.049
X77.495Y-28.646
X77.78Y-33.85
X78.656Y-29.791
X79.437Y-29.122
X82.69Y-54.24
X82.7Y-90.4
X83.0Y-91.7
X83.2Y-85.4
X83.3Y-86.787
X83.35Y-89.25
X83.4Y-88.1
X83.526Y-92.714
X83.799Y-90.387
X84.0Y-83.1
X84.075Y-84.688
X84.134Y-86.087
X84.5Y-87.599
X84.7Y-83.9
X85.3Y-77.5
X85.3Y-78.5
X85.9Y-86.7
X86.6Y-80.3
X86.7Y-75.6
X89.5Y-81.5
X89.5Y-87.6
X89.5Y-93.5
X89.5Y-96.0
X93.16Y-54.21
X93.21Y-77.1
X93.3Y-49.8
X93.701Y-95.522
X94.025Y-86.925
X94.3Y-77.3
X94.81Y-80.37
X95.302Y-93.663
X95.538Y-85.894
X95.816Y-92.806
X95.9Y-82.3
X96.059Y-83.599
X96.3Y-89.599
X96.4Y-80.7
X96.522Y-77.768
X97.1Y-87.1
X97.2Y-40.05
X97.4Y-83.001
X97.5Y-84.8
X97.511Y-92.382
X97.684Y-90.399
X97.9Y-46.26
X97.957Y-44.784
X98.115Y-40.75
X98.449Y-82.241
X98.557Y-92.2
X98.917Y-87.799
X99.04Y-42.4
X99.16Y-68.91
X99.2Y-121.5
X99.625Y-79.002
X99.8Y-91.2
X101.459Y-54.91
X101.86Y-41.206
X103.52Y-54.22
X103.675Y-51.2
X104.112Y-57.632
X105.89Y-39.649
X105.97Y-58.44
X105.981Y-55.651
X106.1Y-56.714
X106.1Y-59.431
X106.75Y-75.89
X107.88Y-96.68
X108.121Y-41.128
X108.55Y-53.2
X108.62Y-95.999
X108.66Y-51.182
X108.7Y-59.574
X109.173Y-58.692
X109.5Y-57.106
X109.65Y-95.599
X110.0Y-58.13
X110.38Y-39.114
X110.8Y-68.96
X110.8Y-121.5
X111.041Y-57.301
X111.475Y-78.235
X111.881Y-42.649
X112.793Y-45.434
X112.852Y-42.412
X112.875Y-78.19
X112.9Y-51.388
X113.012Y-77.063
X113.649Y-41.806
X113.9Y-49.1
X114.26Y-79.71
X116.76Y-45.12
X117.4Y-47.0
X117.8Y-55.388
X120.87Y-50.3
X124.0Y-47.2
X124.27Y-50.43
X124.8Y-56.7
X127.3Y-56.7
X133.788Y-28.648
X143.034Y-33.883
X143.626Y-52.17
X147.85Y-50.2
X152.65Y-49.67
X153.25Y-50.86
X153.27Y-53.21
X153.5Y-35.5
X153.5Y-37.0
X153.5Y-38.5
X153.5Y-40.0
X153.5Y-41.5
X153.5Y-43.0
X153.5Y-44.5
X154.34Y-27.9
X154.65Y-49.67
X155.0Y-35.5
X155.0Y-37.0
X155.48Y-52.26
X155.5Y-23.0
X155.5Y-25.0
X155.5Y-27.0
X155.5Y-32.0
X157.0Y-32.0
X157.0Y-49.67
X157.5Y-23.0
X157.6Y-52.25
X159.5Y-23.0
X159.64Y-52.29
X161.5Y-23.0
X161.5Y-47.0
X161.5Y-49.0
X161.52Y-52.29
X164.0Y-32.0
X164.0Y-35.5
X164.0Y-37.5
X165.5Y-35.5
X165.5Y-37.5
X165.5Y-39.5
X165.5Y-41.5
X165.5Y-43.5
X165.5Y-45.5
X167.0Y-30.5
X167.0Y-32.0
X167.0Y-35.5
X167.0Y-37.5
X167.0Y-39.5
X167.0Y-41.5
X167.0Y-43.5
X167.0Y-45.5
X168.5Y-30.5
X168.96Y-52.06
X169.0Y-50.0
X170.0Y-26.0
X171.5Y-22.5
X174.2Y-69.4
X174.2Y-121.5
X178.8Y-93.8
X185.8Y-69.5
X185.8Y-121.45
T8
X64.03Y-23.5
X66.03Y-23.5
X68.03Y-23.5
X72.96Y-23.49
X74.96Y-23.49
X76.96Y-23.49
T9
X36.35Y-23.4
X79.85Y-72.47
X89.68Y-72.42
X91.13Y-72.46
X92.64Y-72.42
X94.06Y-72.48
X103.925Y-41.175
X121.5Y-54.4
X124.3Y-60.41
X125.92Y-60.41
X127.52Y-60.4
X129.12Y-60.4
X170.18Y-34.105
T11
X46.08Y-31.75
X48.58Y-31.75
X50.58Y-31.75
X53.08Y-31.75
T12
X60.25Y-31.5
X60.25Y-34.0
X60.25Y-36.5
X74.75Y-31.5
X74.75Y-36.5
X102.145Y-81.3
X104.685Y-81.3
X107.225Y-81.3
X117.71Y-68.376
X117.71Y-70.916
X117.71Y-73.456
X117.71Y-75.996
X117.71Y-78.536
X117.71Y-81.076
X117.71Y-83.616
X117.71Y-86.156
X117.71Y-88.696
X117.71Y-91.236
X117.71Y-93.776
X117.71Y-96.316
X117.71Y-98.856
X117.71Y-101.396
X117.71Y-103.936
X117.71Y-106.476
X117.71Y-109.016
X117.71Y-111.556
X117.71Y-114.096
X117.71Y-116.636
X120.25Y-68.376
X120.25Y-70.916
X120.25Y-73.456
X120.25Y-75.996
X120.25Y-78.536
X120.25Y-81.076
X120.25Y-83.616
X120.25Y-86.156
X120.25Y-88.696
X120.25Y-91.236
X120.25Y-93.776
X120.25Y-96.316
X120.25Y-98.856
X120.25Y-101.396
X120.25Y-103.936
X120.25Y-106.476
X120.25Y-109.016
X120.25Y-111.556
X120.25Y-114.096
X120.25Y-116.636
X129.315Y-44.45
X131.855Y-44.45
X134.395Y-44.45
X135.25Y-31.5
X135.25Y-34.0
X135.25Y-36.5
X149.75Y-31.5
X149.75Y-36.5
X152.38Y-119.151
X152.38Y-121.691
X154.015Y-74.846
X154.015Y-77.386
X154.015Y-79.926
X154.92Y-119.151
X154.92Y-121.691
X156.555Y-74.846
X156.555Y-77.386
X156.555Y-79.926
X157.46Y-119.151
X157.46Y-121.691
T13
X178.5Y-23.21
X178.5Y-28.21
T14
X82.5Y-32.0
X85.0Y-22.0
X85.0Y-34.5
X87.5Y-22.0
X90.0Y-32.0
X92.5Y-22.0
X95.0Y-22.0
X95.0Y-34.5
X97.5Y-32.0
X112.5Y-32.0
X115.0Y-22.0
X115.0Y-34.5
X117.5Y-22.0
X120.0Y-32.0
X122.5Y-22.0
X125.0Y-22.0
X125.0Y-34.5
X127.5Y-32.0
T15
X21.7Y-33.77
X21.7Y-50.0
X21.7Y-74.77
X21.7Y-91.0
X21.7Y-94.97
X21.7Y-111.2
X28.05Y-33.77
X28.05Y-50.0
X28.05Y-74.77
X28.05Y-91.0
X28.05Y-94.97
X28.05Y-111.2
X34.4Y-33.77
X34.4Y-50.0
X34.4Y-74.77
X34.4Y-91.0
X34.4Y-94.97
X34.4Y-111.2
X175.6Y-74.78
X175.6Y-91.01
X175.6Y-94.995
X175.6Y-111.225
X175.615Y-33.8
X175.615Y-50.03
X181.95Y-74.78
X181.95Y-91.01
X181.95Y-94.995
X181.95Y-111.225
X181.965Y-33.8
X181.965Y-50.03
X188.3Y-74.78
X188.3Y-91.01
X188.3Y-94.995
X188.3Y-111.225
X188.315Y-33.8
X188.315Y-50.03
T16
X43.01Y-29.04
X56.15Y-29.04
T17
X67.75Y-28.4
X67.75Y-39.6
X142.75Y-28.4
X142.75Y-39.6
T5
G00X84.995Y-29.025
M15
G01X84.995Y-29.975
M16
G05
G00X87.495Y-29.025
M15
G01X87.495Y-29.975
M16
G05
G00X90.469Y-24.5
M15
G01X89.519Y-24.5
M16
G05
G00X92.495Y-29.975
M15
G01X92.495Y-29.025
M16
G05
G00X94.995Y-29.975
M15
G01X94.995Y-29.025
M16
G05
G00X115.0Y-29.025
M15
G01X115.0Y-29.975
M16
G05
G00X117.5Y-29.025
M15
G01X117.5Y-29.975
M16
G05
G00X120.475Y-24.5
M15
G01X119.525Y-24.5
M16
G05
G00X122.5Y-29.975
M15
G01X122.5Y-29.025
M16
G05
G00X125.0Y-29.975
M15
G01X125.0Y-29.025
M16
G05
T6
G00X22.355Y-54.055
M15
G01X22.755Y-54.055
M16
G05
G00X22.355Y-58.895
M15
G01X22.755Y-58.895
M16
G05
T7
G00X19.305Y-53.745
M15
G01X19.805Y-53.745
M16
G05
G00X19.305Y-59.205
M15
G01X19.805Y-59.205
M16
G05
T10
G00X174.6Y-26.3
M15
G01X174.6Y-28.5
M16
G05
G00X180.5Y-24.6
M15
G01X178.3Y-24.6
M16
G05
G00X180.7Y-30.4
M15
G01X178.1Y-30.4
M16
G05
M30
