G04 #@! TF.GenerationSoftware,KiCad,Pcbnew,7.0.9-7.0.9~ubuntu23.04.1*
G04 #@! TF.CreationDate,2023-12-02T21:00:20+00:00*
G04 #@! TF.ProjectId,pedalboard-hw,70656461-6c62-46f6-9172-642d68772e6b,3.0.2-RC*
G04 #@! TF.SameCoordinates,Original*
G04 #@! TF.FileFunction,Legend,Bot*
G04 #@! TF.FilePolarity,Positive*
%FSLAX46Y46*%
G04 Gerber Fmt 4.6, Leading zero omitted, Abs format (unit mm)*
G04 Created by KiCad (PCBNEW 7.0.9-7.0.9~ubuntu23.04.1) date 2023-12-02 21:00:20*
%MOMM*%
%LPD*%
G01*
G04 APERTURE LIST*
%ADD10C,0.150000*%
%ADD11C,0.120000*%
%ADD12C,0.100000*%
%ADD13C,2.700000*%
%ADD14O,1.200000X2.200000*%
%ADD15O,2.200000X1.200000*%
%ADD16C,3.000000*%
%ADD17R,4.400000X1.800000*%
%ADD18O,4.000000X1.800000*%
%ADD19O,1.800000X4.000000*%
%ADD20R,2.600000X2.600000*%
%ADD21C,2.600000*%
%ADD22R,1.350000X1.350000*%
%ADD23O,1.350000X1.350000*%
%ADD24R,1.700000X1.700000*%
%ADD25O,1.700000X1.700000*%
%ADD26C,0.600000*%
%ADD27R,0.840000X0.840000*%
%ADD28C,0.840000*%
%ADD29O,0.850000X1.850000*%
%ADD30R,2.000000X2.000000*%
%ADD31C,2.000000*%
%ADD32C,3.200000*%
%ADD33C,6.100000*%
%ADD34C,6.000000*%
%ADD35O,1.700000X1.950000*%
G04 APERTURE END LIST*
D10*
X43082561Y-122139411D02*
X43130180Y-122234649D01*
X43130180Y-122234649D02*
X43130180Y-122377506D01*
X43130180Y-122377506D02*
X43082561Y-122520363D01*
X43082561Y-122520363D02*
X42987323Y-122615601D01*
X42987323Y-122615601D02*
X42892085Y-122663220D01*
X42892085Y-122663220D02*
X42701609Y-122710839D01*
X42701609Y-122710839D02*
X42558752Y-122710839D01*
X42558752Y-122710839D02*
X42368276Y-122663220D01*
X42368276Y-122663220D02*
X42273038Y-122615601D01*
X42273038Y-122615601D02*
X42177800Y-122520363D01*
X42177800Y-122520363D02*
X42130180Y-122377506D01*
X42130180Y-122377506D02*
X42130180Y-122282268D01*
X42130180Y-122282268D02*
X42177800Y-122139411D01*
X42177800Y-122139411D02*
X42225419Y-122091792D01*
X42225419Y-122091792D02*
X42558752Y-122091792D01*
X42558752Y-122091792D02*
X42558752Y-122282268D01*
X42130180Y-121663220D02*
X43130180Y-121663220D01*
X43130180Y-121663220D02*
X42130180Y-121091792D01*
X42130180Y-121091792D02*
X43130180Y-121091792D01*
X42130180Y-120615601D02*
X43130180Y-120615601D01*
X43130180Y-120615601D02*
X43130180Y-120377506D01*
X43130180Y-120377506D02*
X43082561Y-120234649D01*
X43082561Y-120234649D02*
X42987323Y-120139411D01*
X42987323Y-120139411D02*
X42892085Y-120091792D01*
X42892085Y-120091792D02*
X42701609Y-120044173D01*
X42701609Y-120044173D02*
X42558752Y-120044173D01*
X42558752Y-120044173D02*
X42368276Y-120091792D01*
X42368276Y-120091792D02*
X42273038Y-120139411D01*
X42273038Y-120139411D02*
X42177800Y-120234649D01*
X42177800Y-120234649D02*
X42130180Y-120377506D01*
X42130180Y-120377506D02*
X42130180Y-120615601D01*
X40012980Y-122663220D02*
X41012980Y-122663220D01*
X41012980Y-122663220D02*
X41012980Y-122425125D01*
X41012980Y-122425125D02*
X40965361Y-122282268D01*
X40965361Y-122282268D02*
X40870123Y-122187030D01*
X40870123Y-122187030D02*
X40774885Y-122139411D01*
X40774885Y-122139411D02*
X40584409Y-122091792D01*
X40584409Y-122091792D02*
X40441552Y-122091792D01*
X40441552Y-122091792D02*
X40251076Y-122139411D01*
X40251076Y-122139411D02*
X40155838Y-122187030D01*
X40155838Y-122187030D02*
X40060600Y-122282268D01*
X40060600Y-122282268D02*
X40012980Y-122425125D01*
X40012980Y-122425125D02*
X40012980Y-122663220D01*
X40012980Y-121234649D02*
X40536790Y-121234649D01*
X40536790Y-121234649D02*
X40632028Y-121282268D01*
X40632028Y-121282268D02*
X40679647Y-121377506D01*
X40679647Y-121377506D02*
X40679647Y-121567982D01*
X40679647Y-121567982D02*
X40632028Y-121663220D01*
X40060600Y-121234649D02*
X40012980Y-121329887D01*
X40012980Y-121329887D02*
X40012980Y-121567982D01*
X40012980Y-121567982D02*
X40060600Y-121663220D01*
X40060600Y-121663220D02*
X40155838Y-121710839D01*
X40155838Y-121710839D02*
X40251076Y-121710839D01*
X40251076Y-121710839D02*
X40346314Y-121663220D01*
X40346314Y-121663220D02*
X40393933Y-121567982D01*
X40393933Y-121567982D02*
X40393933Y-121329887D01*
X40393933Y-121329887D02*
X40441552Y-121234649D01*
X40679647Y-120901315D02*
X40679647Y-120520363D01*
X41012980Y-120758458D02*
X40155838Y-120758458D01*
X40155838Y-120758458D02*
X40060600Y-120710839D01*
X40060600Y-120710839D02*
X40012980Y-120615601D01*
X40012980Y-120615601D02*
X40012980Y-120520363D01*
X40012980Y-119758458D02*
X40536790Y-119758458D01*
X40536790Y-119758458D02*
X40632028Y-119806077D01*
X40632028Y-119806077D02*
X40679647Y-119901315D01*
X40679647Y-119901315D02*
X40679647Y-120091791D01*
X40679647Y-120091791D02*
X40632028Y-120187029D01*
X40060600Y-119758458D02*
X40012980Y-119853696D01*
X40012980Y-119853696D02*
X40012980Y-120091791D01*
X40012980Y-120091791D02*
X40060600Y-120187029D01*
X40060600Y-120187029D02*
X40155838Y-120234648D01*
X40155838Y-120234648D02*
X40251076Y-120234648D01*
X40251076Y-120234648D02*
X40346314Y-120187029D01*
X40346314Y-120187029D02*
X40393933Y-120091791D01*
X40393933Y-120091791D02*
X40393933Y-119853696D01*
X40393933Y-119853696D02*
X40441552Y-119758458D01*
X40012980Y-118377505D02*
X40060600Y-118472743D01*
X40060600Y-118472743D02*
X40108219Y-118520362D01*
X40108219Y-118520362D02*
X40203457Y-118567981D01*
X40203457Y-118567981D02*
X40489171Y-118567981D01*
X40489171Y-118567981D02*
X40584409Y-118520362D01*
X40584409Y-118520362D02*
X40632028Y-118472743D01*
X40632028Y-118472743D02*
X40679647Y-118377505D01*
X40679647Y-118377505D02*
X40679647Y-118234648D01*
X40679647Y-118234648D02*
X40632028Y-118139410D01*
X40632028Y-118139410D02*
X40584409Y-118091791D01*
X40584409Y-118091791D02*
X40489171Y-118044172D01*
X40489171Y-118044172D02*
X40203457Y-118044172D01*
X40203457Y-118044172D02*
X40108219Y-118091791D01*
X40108219Y-118091791D02*
X40060600Y-118139410D01*
X40060600Y-118139410D02*
X40012980Y-118234648D01*
X40012980Y-118234648D02*
X40012980Y-118377505D01*
X40679647Y-117187029D02*
X40012980Y-117187029D01*
X40679647Y-117615600D02*
X40155838Y-117615600D01*
X40155838Y-117615600D02*
X40060600Y-117567981D01*
X40060600Y-117567981D02*
X40012980Y-117472743D01*
X40012980Y-117472743D02*
X40012980Y-117329886D01*
X40012980Y-117329886D02*
X40060600Y-117234648D01*
X40060600Y-117234648D02*
X40108219Y-117187029D01*
X40679647Y-116853695D02*
X40679647Y-116472743D01*
X41012980Y-116710838D02*
X40155838Y-116710838D01*
X40155838Y-116710838D02*
X40060600Y-116663219D01*
X40060600Y-116663219D02*
X40012980Y-116567981D01*
X40012980Y-116567981D02*
X40012980Y-116472743D01*
X54663220Y-28869819D02*
X54663220Y-27869819D01*
X54187030Y-28869819D02*
X54187030Y-27869819D01*
X54187030Y-27869819D02*
X53615602Y-28869819D01*
X53615602Y-28869819D02*
X53615602Y-27869819D01*
X188147438Y-37436588D02*
X188099819Y-37341350D01*
X188099819Y-37341350D02*
X188099819Y-37198493D01*
X188099819Y-37198493D02*
X188147438Y-37055636D01*
X188147438Y-37055636D02*
X188242676Y-36960398D01*
X188242676Y-36960398D02*
X188337914Y-36912779D01*
X188337914Y-36912779D02*
X188528390Y-36865160D01*
X188528390Y-36865160D02*
X188671247Y-36865160D01*
X188671247Y-36865160D02*
X188861723Y-36912779D01*
X188861723Y-36912779D02*
X188956961Y-36960398D01*
X188956961Y-36960398D02*
X189052200Y-37055636D01*
X189052200Y-37055636D02*
X189099819Y-37198493D01*
X189099819Y-37198493D02*
X189099819Y-37293731D01*
X189099819Y-37293731D02*
X189052200Y-37436588D01*
X189052200Y-37436588D02*
X189004580Y-37484207D01*
X189004580Y-37484207D02*
X188671247Y-37484207D01*
X188671247Y-37484207D02*
X188671247Y-37293731D01*
X189099819Y-37912779D02*
X188099819Y-37912779D01*
X188099819Y-37912779D02*
X189099819Y-38484207D01*
X189099819Y-38484207D02*
X188099819Y-38484207D01*
X189099819Y-38960398D02*
X188099819Y-38960398D01*
X188099819Y-38960398D02*
X188099819Y-39198493D01*
X188099819Y-39198493D02*
X188147438Y-39341350D01*
X188147438Y-39341350D02*
X188242676Y-39436588D01*
X188242676Y-39436588D02*
X188337914Y-39484207D01*
X188337914Y-39484207D02*
X188528390Y-39531826D01*
X188528390Y-39531826D02*
X188671247Y-39531826D01*
X188671247Y-39531826D02*
X188861723Y-39484207D01*
X188861723Y-39484207D02*
X188956961Y-39436588D01*
X188956961Y-39436588D02*
X189052200Y-39341350D01*
X189052200Y-39341350D02*
X189099819Y-39198493D01*
X189099819Y-39198493D02*
X189099819Y-38960398D01*
X61472744Y-53649819D02*
X61282268Y-53649819D01*
X61282268Y-53649819D02*
X61187030Y-53697438D01*
X61187030Y-53697438D02*
X61091792Y-53792676D01*
X61091792Y-53792676D02*
X61044173Y-53983152D01*
X61044173Y-53983152D02*
X61044173Y-54316485D01*
X61044173Y-54316485D02*
X61091792Y-54506961D01*
X61091792Y-54506961D02*
X61187030Y-54602200D01*
X61187030Y-54602200D02*
X61282268Y-54649819D01*
X61282268Y-54649819D02*
X61472744Y-54649819D01*
X61472744Y-54649819D02*
X61567982Y-54602200D01*
X61567982Y-54602200D02*
X61663220Y-54506961D01*
X61663220Y-54506961D02*
X61710839Y-54316485D01*
X61710839Y-54316485D02*
X61710839Y-53983152D01*
X61710839Y-53983152D02*
X61663220Y-53792676D01*
X61663220Y-53792676D02*
X61567982Y-53697438D01*
X61567982Y-53697438D02*
X61472744Y-53649819D01*
X60615601Y-53983152D02*
X60615601Y-54983152D01*
X60615601Y-54030771D02*
X60520363Y-53983152D01*
X60520363Y-53983152D02*
X60329887Y-53983152D01*
X60329887Y-53983152D02*
X60234649Y-54030771D01*
X60234649Y-54030771D02*
X60187030Y-54078390D01*
X60187030Y-54078390D02*
X60139411Y-54173628D01*
X60139411Y-54173628D02*
X60139411Y-54459342D01*
X60139411Y-54459342D02*
X60187030Y-54554580D01*
X60187030Y-54554580D02*
X60234649Y-54602200D01*
X60234649Y-54602200D02*
X60329887Y-54649819D01*
X60329887Y-54649819D02*
X60520363Y-54649819D01*
X60520363Y-54649819D02*
X60615601Y-54602200D01*
X59329887Y-54602200D02*
X59425125Y-54649819D01*
X59425125Y-54649819D02*
X59615601Y-54649819D01*
X59615601Y-54649819D02*
X59710839Y-54602200D01*
X59710839Y-54602200D02*
X59758458Y-54506961D01*
X59758458Y-54506961D02*
X59758458Y-54126009D01*
X59758458Y-54126009D02*
X59710839Y-54030771D01*
X59710839Y-54030771D02*
X59615601Y-53983152D01*
X59615601Y-53983152D02*
X59425125Y-53983152D01*
X59425125Y-53983152D02*
X59329887Y-54030771D01*
X59329887Y-54030771D02*
X59282268Y-54126009D01*
X59282268Y-54126009D02*
X59282268Y-54221247D01*
X59282268Y-54221247D02*
X59758458Y-54316485D01*
X58853696Y-53983152D02*
X58853696Y-54649819D01*
X58853696Y-54078390D02*
X58806077Y-54030771D01*
X58806077Y-54030771D02*
X58710839Y-53983152D01*
X58710839Y-53983152D02*
X58567982Y-53983152D01*
X58567982Y-53983152D02*
X58472744Y-54030771D01*
X58472744Y-54030771D02*
X58425125Y-54126009D01*
X58425125Y-54126009D02*
X58425125Y-54649819D01*
X57187029Y-54649819D02*
X57187029Y-53649819D01*
X57187029Y-53649819D02*
X56806077Y-53649819D01*
X56806077Y-53649819D02*
X56710839Y-53697438D01*
X56710839Y-53697438D02*
X56663220Y-53745057D01*
X56663220Y-53745057D02*
X56615601Y-53840295D01*
X56615601Y-53840295D02*
X56615601Y-53983152D01*
X56615601Y-53983152D02*
X56663220Y-54078390D01*
X56663220Y-54078390D02*
X56710839Y-54126009D01*
X56710839Y-54126009D02*
X56806077Y-54173628D01*
X56806077Y-54173628D02*
X57187029Y-54173628D01*
X55806077Y-54602200D02*
X55901315Y-54649819D01*
X55901315Y-54649819D02*
X56091791Y-54649819D01*
X56091791Y-54649819D02*
X56187029Y-54602200D01*
X56187029Y-54602200D02*
X56234648Y-54506961D01*
X56234648Y-54506961D02*
X56234648Y-54126009D01*
X56234648Y-54126009D02*
X56187029Y-54030771D01*
X56187029Y-54030771D02*
X56091791Y-53983152D01*
X56091791Y-53983152D02*
X55901315Y-53983152D01*
X55901315Y-53983152D02*
X55806077Y-54030771D01*
X55806077Y-54030771D02*
X55758458Y-54126009D01*
X55758458Y-54126009D02*
X55758458Y-54221247D01*
X55758458Y-54221247D02*
X56234648Y-54316485D01*
X54901315Y-54649819D02*
X54901315Y-53649819D01*
X54901315Y-54602200D02*
X54996553Y-54649819D01*
X54996553Y-54649819D02*
X55187029Y-54649819D01*
X55187029Y-54649819D02*
X55282267Y-54602200D01*
X55282267Y-54602200D02*
X55329886Y-54554580D01*
X55329886Y-54554580D02*
X55377505Y-54459342D01*
X55377505Y-54459342D02*
X55377505Y-54173628D01*
X55377505Y-54173628D02*
X55329886Y-54078390D01*
X55329886Y-54078390D02*
X55282267Y-54030771D01*
X55282267Y-54030771D02*
X55187029Y-53983152D01*
X55187029Y-53983152D02*
X54996553Y-53983152D01*
X54996553Y-53983152D02*
X54901315Y-54030771D01*
X53996553Y-54649819D02*
X53996553Y-54126009D01*
X53996553Y-54126009D02*
X54044172Y-54030771D01*
X54044172Y-54030771D02*
X54139410Y-53983152D01*
X54139410Y-53983152D02*
X54329886Y-53983152D01*
X54329886Y-53983152D02*
X54425124Y-54030771D01*
X53996553Y-54602200D02*
X54091791Y-54649819D01*
X54091791Y-54649819D02*
X54329886Y-54649819D01*
X54329886Y-54649819D02*
X54425124Y-54602200D01*
X54425124Y-54602200D02*
X54472743Y-54506961D01*
X54472743Y-54506961D02*
X54472743Y-54411723D01*
X54472743Y-54411723D02*
X54425124Y-54316485D01*
X54425124Y-54316485D02*
X54329886Y-54268866D01*
X54329886Y-54268866D02*
X54091791Y-54268866D01*
X54091791Y-54268866D02*
X53996553Y-54221247D01*
X53377505Y-54649819D02*
X53472743Y-54602200D01*
X53472743Y-54602200D02*
X53520362Y-54506961D01*
X53520362Y-54506961D02*
X53520362Y-53649819D01*
X52996552Y-54649819D02*
X52996552Y-53649819D01*
X52996552Y-54030771D02*
X52901314Y-53983152D01*
X52901314Y-53983152D02*
X52710838Y-53983152D01*
X52710838Y-53983152D02*
X52615600Y-54030771D01*
X52615600Y-54030771D02*
X52567981Y-54078390D01*
X52567981Y-54078390D02*
X52520362Y-54173628D01*
X52520362Y-54173628D02*
X52520362Y-54459342D01*
X52520362Y-54459342D02*
X52567981Y-54554580D01*
X52567981Y-54554580D02*
X52615600Y-54602200D01*
X52615600Y-54602200D02*
X52710838Y-54649819D01*
X52710838Y-54649819D02*
X52901314Y-54649819D01*
X52901314Y-54649819D02*
X52996552Y-54602200D01*
X51948933Y-54649819D02*
X52044171Y-54602200D01*
X52044171Y-54602200D02*
X52091790Y-54554580D01*
X52091790Y-54554580D02*
X52139409Y-54459342D01*
X52139409Y-54459342D02*
X52139409Y-54173628D01*
X52139409Y-54173628D02*
X52091790Y-54078390D01*
X52091790Y-54078390D02*
X52044171Y-54030771D01*
X52044171Y-54030771D02*
X51948933Y-53983152D01*
X51948933Y-53983152D02*
X51806076Y-53983152D01*
X51806076Y-53983152D02*
X51710838Y-54030771D01*
X51710838Y-54030771D02*
X51663219Y-54078390D01*
X51663219Y-54078390D02*
X51615600Y-54173628D01*
X51615600Y-54173628D02*
X51615600Y-54459342D01*
X51615600Y-54459342D02*
X51663219Y-54554580D01*
X51663219Y-54554580D02*
X51710838Y-54602200D01*
X51710838Y-54602200D02*
X51806076Y-54649819D01*
X51806076Y-54649819D02*
X51948933Y-54649819D01*
X50758457Y-54649819D02*
X50758457Y-54126009D01*
X50758457Y-54126009D02*
X50806076Y-54030771D01*
X50806076Y-54030771D02*
X50901314Y-53983152D01*
X50901314Y-53983152D02*
X51091790Y-53983152D01*
X51091790Y-53983152D02*
X51187028Y-54030771D01*
X50758457Y-54602200D02*
X50853695Y-54649819D01*
X50853695Y-54649819D02*
X51091790Y-54649819D01*
X51091790Y-54649819D02*
X51187028Y-54602200D01*
X51187028Y-54602200D02*
X51234647Y-54506961D01*
X51234647Y-54506961D02*
X51234647Y-54411723D01*
X51234647Y-54411723D02*
X51187028Y-54316485D01*
X51187028Y-54316485D02*
X51091790Y-54268866D01*
X51091790Y-54268866D02*
X50853695Y-54268866D01*
X50853695Y-54268866D02*
X50758457Y-54221247D01*
X50282266Y-54649819D02*
X50282266Y-53983152D01*
X50282266Y-54173628D02*
X50234647Y-54078390D01*
X50234647Y-54078390D02*
X50187028Y-54030771D01*
X50187028Y-54030771D02*
X50091790Y-53983152D01*
X50091790Y-53983152D02*
X49996552Y-53983152D01*
X49234647Y-54649819D02*
X49234647Y-53649819D01*
X49234647Y-54602200D02*
X49329885Y-54649819D01*
X49329885Y-54649819D02*
X49520361Y-54649819D01*
X49520361Y-54649819D02*
X49615599Y-54602200D01*
X49615599Y-54602200D02*
X49663218Y-54554580D01*
X49663218Y-54554580D02*
X49710837Y-54459342D01*
X49710837Y-54459342D02*
X49710837Y-54173628D01*
X49710837Y-54173628D02*
X49663218Y-54078390D01*
X49663218Y-54078390D02*
X49615599Y-54030771D01*
X49615599Y-54030771D02*
X49520361Y-53983152D01*
X49520361Y-53983152D02*
X49329885Y-53983152D01*
X49329885Y-53983152D02*
X49234647Y-54030771D01*
X61663220Y-56259819D02*
X61663220Y-55259819D01*
X61234649Y-56259819D02*
X61234649Y-55736009D01*
X61234649Y-55736009D02*
X61282268Y-55640771D01*
X61282268Y-55640771D02*
X61377506Y-55593152D01*
X61377506Y-55593152D02*
X61520363Y-55593152D01*
X61520363Y-55593152D02*
X61615601Y-55640771D01*
X61615601Y-55640771D02*
X61663220Y-55688390D01*
X60901315Y-55593152D02*
X60520363Y-55593152D01*
X60758458Y-55259819D02*
X60758458Y-56116961D01*
X60758458Y-56116961D02*
X60710839Y-56212200D01*
X60710839Y-56212200D02*
X60615601Y-56259819D01*
X60615601Y-56259819D02*
X60520363Y-56259819D01*
X60329886Y-55593152D02*
X59948934Y-55593152D01*
X60187029Y-55259819D02*
X60187029Y-56116961D01*
X60187029Y-56116961D02*
X60139410Y-56212200D01*
X60139410Y-56212200D02*
X60044172Y-56259819D01*
X60044172Y-56259819D02*
X59948934Y-56259819D01*
X59615600Y-55593152D02*
X59615600Y-56593152D01*
X59615600Y-55640771D02*
X59520362Y-55593152D01*
X59520362Y-55593152D02*
X59329886Y-55593152D01*
X59329886Y-55593152D02*
X59234648Y-55640771D01*
X59234648Y-55640771D02*
X59187029Y-55688390D01*
X59187029Y-55688390D02*
X59139410Y-55783628D01*
X59139410Y-55783628D02*
X59139410Y-56069342D01*
X59139410Y-56069342D02*
X59187029Y-56164580D01*
X59187029Y-56164580D02*
X59234648Y-56212200D01*
X59234648Y-56212200D02*
X59329886Y-56259819D01*
X59329886Y-56259819D02*
X59520362Y-56259819D01*
X59520362Y-56259819D02*
X59615600Y-56212200D01*
X58758457Y-56212200D02*
X58663219Y-56259819D01*
X58663219Y-56259819D02*
X58472743Y-56259819D01*
X58472743Y-56259819D02*
X58377505Y-56212200D01*
X58377505Y-56212200D02*
X58329886Y-56116961D01*
X58329886Y-56116961D02*
X58329886Y-56069342D01*
X58329886Y-56069342D02*
X58377505Y-55974104D01*
X58377505Y-55974104D02*
X58472743Y-55926485D01*
X58472743Y-55926485D02*
X58615600Y-55926485D01*
X58615600Y-55926485D02*
X58710838Y-55878866D01*
X58710838Y-55878866D02*
X58758457Y-55783628D01*
X58758457Y-55783628D02*
X58758457Y-55736009D01*
X58758457Y-55736009D02*
X58710838Y-55640771D01*
X58710838Y-55640771D02*
X58615600Y-55593152D01*
X58615600Y-55593152D02*
X58472743Y-55593152D01*
X58472743Y-55593152D02*
X58377505Y-55640771D01*
X57901314Y-56164580D02*
X57853695Y-56212200D01*
X57853695Y-56212200D02*
X57901314Y-56259819D01*
X57901314Y-56259819D02*
X57948933Y-56212200D01*
X57948933Y-56212200D02*
X57901314Y-56164580D01*
X57901314Y-56164580D02*
X57901314Y-56259819D01*
X57901314Y-55640771D02*
X57853695Y-55688390D01*
X57853695Y-55688390D02*
X57901314Y-55736009D01*
X57901314Y-55736009D02*
X57948933Y-55688390D01*
X57948933Y-55688390D02*
X57901314Y-55640771D01*
X57901314Y-55640771D02*
X57901314Y-55736009D01*
X56710839Y-55212200D02*
X57567981Y-56497914D01*
X55663220Y-55212200D02*
X56520362Y-56497914D01*
X54901315Y-55593152D02*
X54901315Y-56402676D01*
X54901315Y-56402676D02*
X54948934Y-56497914D01*
X54948934Y-56497914D02*
X54996553Y-56545533D01*
X54996553Y-56545533D02*
X55091791Y-56593152D01*
X55091791Y-56593152D02*
X55234648Y-56593152D01*
X55234648Y-56593152D02*
X55329886Y-56545533D01*
X54901315Y-56212200D02*
X54996553Y-56259819D01*
X54996553Y-56259819D02*
X55187029Y-56259819D01*
X55187029Y-56259819D02*
X55282267Y-56212200D01*
X55282267Y-56212200D02*
X55329886Y-56164580D01*
X55329886Y-56164580D02*
X55377505Y-56069342D01*
X55377505Y-56069342D02*
X55377505Y-55783628D01*
X55377505Y-55783628D02*
X55329886Y-55688390D01*
X55329886Y-55688390D02*
X55282267Y-55640771D01*
X55282267Y-55640771D02*
X55187029Y-55593152D01*
X55187029Y-55593152D02*
X54996553Y-55593152D01*
X54996553Y-55593152D02*
X54901315Y-55640771D01*
X54425124Y-56259819D02*
X54425124Y-55593152D01*
X54425124Y-55259819D02*
X54472743Y-55307438D01*
X54472743Y-55307438D02*
X54425124Y-55355057D01*
X54425124Y-55355057D02*
X54377505Y-55307438D01*
X54377505Y-55307438D02*
X54425124Y-55259819D01*
X54425124Y-55259819D02*
X54425124Y-55355057D01*
X54091791Y-55593152D02*
X53710839Y-55593152D01*
X53948934Y-55259819D02*
X53948934Y-56116961D01*
X53948934Y-56116961D02*
X53901315Y-56212200D01*
X53901315Y-56212200D02*
X53806077Y-56259819D01*
X53806077Y-56259819D02*
X53710839Y-56259819D01*
X53377505Y-56259819D02*
X53377505Y-55259819D01*
X52948934Y-56259819D02*
X52948934Y-55736009D01*
X52948934Y-55736009D02*
X52996553Y-55640771D01*
X52996553Y-55640771D02*
X53091791Y-55593152D01*
X53091791Y-55593152D02*
X53234648Y-55593152D01*
X53234648Y-55593152D02*
X53329886Y-55640771D01*
X53329886Y-55640771D02*
X53377505Y-55688390D01*
X52044172Y-55593152D02*
X52044172Y-56259819D01*
X52472743Y-55593152D02*
X52472743Y-56116961D01*
X52472743Y-56116961D02*
X52425124Y-56212200D01*
X52425124Y-56212200D02*
X52329886Y-56259819D01*
X52329886Y-56259819D02*
X52187029Y-56259819D01*
X52187029Y-56259819D02*
X52091791Y-56212200D01*
X52091791Y-56212200D02*
X52044172Y-56164580D01*
X51567981Y-56259819D02*
X51567981Y-55259819D01*
X51567981Y-55640771D02*
X51472743Y-55593152D01*
X51472743Y-55593152D02*
X51282267Y-55593152D01*
X51282267Y-55593152D02*
X51187029Y-55640771D01*
X51187029Y-55640771D02*
X51139410Y-55688390D01*
X51139410Y-55688390D02*
X51091791Y-55783628D01*
X51091791Y-55783628D02*
X51091791Y-56069342D01*
X51091791Y-56069342D02*
X51139410Y-56164580D01*
X51139410Y-56164580D02*
X51187029Y-56212200D01*
X51187029Y-56212200D02*
X51282267Y-56259819D01*
X51282267Y-56259819D02*
X51472743Y-56259819D01*
X51472743Y-56259819D02*
X51567981Y-56212200D01*
X50663219Y-56164580D02*
X50615600Y-56212200D01*
X50615600Y-56212200D02*
X50663219Y-56259819D01*
X50663219Y-56259819D02*
X50710838Y-56212200D01*
X50710838Y-56212200D02*
X50663219Y-56164580D01*
X50663219Y-56164580D02*
X50663219Y-56259819D01*
X49758458Y-56212200D02*
X49853696Y-56259819D01*
X49853696Y-56259819D02*
X50044172Y-56259819D01*
X50044172Y-56259819D02*
X50139410Y-56212200D01*
X50139410Y-56212200D02*
X50187029Y-56164580D01*
X50187029Y-56164580D02*
X50234648Y-56069342D01*
X50234648Y-56069342D02*
X50234648Y-55783628D01*
X50234648Y-55783628D02*
X50187029Y-55688390D01*
X50187029Y-55688390D02*
X50139410Y-55640771D01*
X50139410Y-55640771D02*
X50044172Y-55593152D01*
X50044172Y-55593152D02*
X49853696Y-55593152D01*
X49853696Y-55593152D02*
X49758458Y-55640771D01*
X49187029Y-56259819D02*
X49282267Y-56212200D01*
X49282267Y-56212200D02*
X49329886Y-56164580D01*
X49329886Y-56164580D02*
X49377505Y-56069342D01*
X49377505Y-56069342D02*
X49377505Y-55783628D01*
X49377505Y-55783628D02*
X49329886Y-55688390D01*
X49329886Y-55688390D02*
X49282267Y-55640771D01*
X49282267Y-55640771D02*
X49187029Y-55593152D01*
X49187029Y-55593152D02*
X49044172Y-55593152D01*
X49044172Y-55593152D02*
X48948934Y-55640771D01*
X48948934Y-55640771D02*
X48901315Y-55688390D01*
X48901315Y-55688390D02*
X48853696Y-55783628D01*
X48853696Y-55783628D02*
X48853696Y-56069342D01*
X48853696Y-56069342D02*
X48901315Y-56164580D01*
X48901315Y-56164580D02*
X48948934Y-56212200D01*
X48948934Y-56212200D02*
X49044172Y-56259819D01*
X49044172Y-56259819D02*
X49187029Y-56259819D01*
X48425124Y-56259819D02*
X48425124Y-55593152D01*
X48425124Y-55688390D02*
X48377505Y-55640771D01*
X48377505Y-55640771D02*
X48282267Y-55593152D01*
X48282267Y-55593152D02*
X48139410Y-55593152D01*
X48139410Y-55593152D02*
X48044172Y-55640771D01*
X48044172Y-55640771D02*
X47996553Y-55736009D01*
X47996553Y-55736009D02*
X47996553Y-56259819D01*
X47996553Y-55736009D02*
X47948934Y-55640771D01*
X47948934Y-55640771D02*
X47853696Y-55593152D01*
X47853696Y-55593152D02*
X47710839Y-55593152D01*
X47710839Y-55593152D02*
X47615600Y-55640771D01*
X47615600Y-55640771D02*
X47567981Y-55736009D01*
X47567981Y-55736009D02*
X47567981Y-56259819D01*
X46377506Y-55212200D02*
X47234648Y-56497914D01*
X46044172Y-55593152D02*
X46044172Y-56593152D01*
X46044172Y-55640771D02*
X45948934Y-55593152D01*
X45948934Y-55593152D02*
X45758458Y-55593152D01*
X45758458Y-55593152D02*
X45663220Y-55640771D01*
X45663220Y-55640771D02*
X45615601Y-55688390D01*
X45615601Y-55688390D02*
X45567982Y-55783628D01*
X45567982Y-55783628D02*
X45567982Y-56069342D01*
X45567982Y-56069342D02*
X45615601Y-56164580D01*
X45615601Y-56164580D02*
X45663220Y-56212200D01*
X45663220Y-56212200D02*
X45758458Y-56259819D01*
X45758458Y-56259819D02*
X45948934Y-56259819D01*
X45948934Y-56259819D02*
X46044172Y-56212200D01*
X44758458Y-56212200D02*
X44853696Y-56259819D01*
X44853696Y-56259819D02*
X45044172Y-56259819D01*
X45044172Y-56259819D02*
X45139410Y-56212200D01*
X45139410Y-56212200D02*
X45187029Y-56116961D01*
X45187029Y-56116961D02*
X45187029Y-55736009D01*
X45187029Y-55736009D02*
X45139410Y-55640771D01*
X45139410Y-55640771D02*
X45044172Y-55593152D01*
X45044172Y-55593152D02*
X44853696Y-55593152D01*
X44853696Y-55593152D02*
X44758458Y-55640771D01*
X44758458Y-55640771D02*
X44710839Y-55736009D01*
X44710839Y-55736009D02*
X44710839Y-55831247D01*
X44710839Y-55831247D02*
X45187029Y-55926485D01*
X43853696Y-56259819D02*
X43853696Y-55259819D01*
X43853696Y-56212200D02*
X43948934Y-56259819D01*
X43948934Y-56259819D02*
X44139410Y-56259819D01*
X44139410Y-56259819D02*
X44234648Y-56212200D01*
X44234648Y-56212200D02*
X44282267Y-56164580D01*
X44282267Y-56164580D02*
X44329886Y-56069342D01*
X44329886Y-56069342D02*
X44329886Y-55783628D01*
X44329886Y-55783628D02*
X44282267Y-55688390D01*
X44282267Y-55688390D02*
X44234648Y-55640771D01*
X44234648Y-55640771D02*
X44139410Y-55593152D01*
X44139410Y-55593152D02*
X43948934Y-55593152D01*
X43948934Y-55593152D02*
X43853696Y-55640771D01*
X42948934Y-56259819D02*
X42948934Y-55736009D01*
X42948934Y-55736009D02*
X42996553Y-55640771D01*
X42996553Y-55640771D02*
X43091791Y-55593152D01*
X43091791Y-55593152D02*
X43282267Y-55593152D01*
X43282267Y-55593152D02*
X43377505Y-55640771D01*
X42948934Y-56212200D02*
X43044172Y-56259819D01*
X43044172Y-56259819D02*
X43282267Y-56259819D01*
X43282267Y-56259819D02*
X43377505Y-56212200D01*
X43377505Y-56212200D02*
X43425124Y-56116961D01*
X43425124Y-56116961D02*
X43425124Y-56021723D01*
X43425124Y-56021723D02*
X43377505Y-55926485D01*
X43377505Y-55926485D02*
X43282267Y-55878866D01*
X43282267Y-55878866D02*
X43044172Y-55878866D01*
X43044172Y-55878866D02*
X42948934Y-55831247D01*
X42329886Y-56259819D02*
X42425124Y-56212200D01*
X42425124Y-56212200D02*
X42472743Y-56116961D01*
X42472743Y-56116961D02*
X42472743Y-55259819D01*
X41948933Y-56259819D02*
X41948933Y-55259819D01*
X41948933Y-55640771D02*
X41853695Y-55593152D01*
X41853695Y-55593152D02*
X41663219Y-55593152D01*
X41663219Y-55593152D02*
X41567981Y-55640771D01*
X41567981Y-55640771D02*
X41520362Y-55688390D01*
X41520362Y-55688390D02*
X41472743Y-55783628D01*
X41472743Y-55783628D02*
X41472743Y-56069342D01*
X41472743Y-56069342D02*
X41520362Y-56164580D01*
X41520362Y-56164580D02*
X41567981Y-56212200D01*
X41567981Y-56212200D02*
X41663219Y-56259819D01*
X41663219Y-56259819D02*
X41853695Y-56259819D01*
X41853695Y-56259819D02*
X41948933Y-56212200D01*
X40901314Y-56259819D02*
X40996552Y-56212200D01*
X40996552Y-56212200D02*
X41044171Y-56164580D01*
X41044171Y-56164580D02*
X41091790Y-56069342D01*
X41091790Y-56069342D02*
X41091790Y-55783628D01*
X41091790Y-55783628D02*
X41044171Y-55688390D01*
X41044171Y-55688390D02*
X40996552Y-55640771D01*
X40996552Y-55640771D02*
X40901314Y-55593152D01*
X40901314Y-55593152D02*
X40758457Y-55593152D01*
X40758457Y-55593152D02*
X40663219Y-55640771D01*
X40663219Y-55640771D02*
X40615600Y-55688390D01*
X40615600Y-55688390D02*
X40567981Y-55783628D01*
X40567981Y-55783628D02*
X40567981Y-56069342D01*
X40567981Y-56069342D02*
X40615600Y-56164580D01*
X40615600Y-56164580D02*
X40663219Y-56212200D01*
X40663219Y-56212200D02*
X40758457Y-56259819D01*
X40758457Y-56259819D02*
X40901314Y-56259819D01*
X39710838Y-56259819D02*
X39710838Y-55736009D01*
X39710838Y-55736009D02*
X39758457Y-55640771D01*
X39758457Y-55640771D02*
X39853695Y-55593152D01*
X39853695Y-55593152D02*
X40044171Y-55593152D01*
X40044171Y-55593152D02*
X40139409Y-55640771D01*
X39710838Y-56212200D02*
X39806076Y-56259819D01*
X39806076Y-56259819D02*
X40044171Y-56259819D01*
X40044171Y-56259819D02*
X40139409Y-56212200D01*
X40139409Y-56212200D02*
X40187028Y-56116961D01*
X40187028Y-56116961D02*
X40187028Y-56021723D01*
X40187028Y-56021723D02*
X40139409Y-55926485D01*
X40139409Y-55926485D02*
X40044171Y-55878866D01*
X40044171Y-55878866D02*
X39806076Y-55878866D01*
X39806076Y-55878866D02*
X39710838Y-55831247D01*
X39234647Y-56259819D02*
X39234647Y-55593152D01*
X39234647Y-55783628D02*
X39187028Y-55688390D01*
X39187028Y-55688390D02*
X39139409Y-55640771D01*
X39139409Y-55640771D02*
X39044171Y-55593152D01*
X39044171Y-55593152D02*
X38948933Y-55593152D01*
X38187028Y-56259819D02*
X38187028Y-55259819D01*
X38187028Y-56212200D02*
X38282266Y-56259819D01*
X38282266Y-56259819D02*
X38472742Y-56259819D01*
X38472742Y-56259819D02*
X38567980Y-56212200D01*
X38567980Y-56212200D02*
X38615599Y-56164580D01*
X38615599Y-56164580D02*
X38663218Y-56069342D01*
X38663218Y-56069342D02*
X38663218Y-55783628D01*
X38663218Y-55783628D02*
X38615599Y-55688390D01*
X38615599Y-55688390D02*
X38567980Y-55640771D01*
X38567980Y-55640771D02*
X38472742Y-55593152D01*
X38472742Y-55593152D02*
X38282266Y-55593152D01*
X38282266Y-55593152D02*
X38187028Y-55640771D01*
X61329887Y-57346009D02*
X61187030Y-57393628D01*
X61187030Y-57393628D02*
X61139411Y-57441247D01*
X61139411Y-57441247D02*
X61091792Y-57536485D01*
X61091792Y-57536485D02*
X61091792Y-57679342D01*
X61091792Y-57679342D02*
X61139411Y-57774580D01*
X61139411Y-57774580D02*
X61187030Y-57822200D01*
X61187030Y-57822200D02*
X61282268Y-57869819D01*
X61282268Y-57869819D02*
X61663220Y-57869819D01*
X61663220Y-57869819D02*
X61663220Y-56869819D01*
X61663220Y-56869819D02*
X61329887Y-56869819D01*
X61329887Y-56869819D02*
X61234649Y-56917438D01*
X61234649Y-56917438D02*
X61187030Y-56965057D01*
X61187030Y-56965057D02*
X61139411Y-57060295D01*
X61139411Y-57060295D02*
X61139411Y-57155533D01*
X61139411Y-57155533D02*
X61187030Y-57250771D01*
X61187030Y-57250771D02*
X61234649Y-57298390D01*
X61234649Y-57298390D02*
X61329887Y-57346009D01*
X61329887Y-57346009D02*
X61663220Y-57346009D01*
X60091792Y-57774580D02*
X60139411Y-57822200D01*
X60139411Y-57822200D02*
X60282268Y-57869819D01*
X60282268Y-57869819D02*
X60377506Y-57869819D01*
X60377506Y-57869819D02*
X60520363Y-57822200D01*
X60520363Y-57822200D02*
X60615601Y-57726961D01*
X60615601Y-57726961D02*
X60663220Y-57631723D01*
X60663220Y-57631723D02*
X60710839Y-57441247D01*
X60710839Y-57441247D02*
X60710839Y-57298390D01*
X60710839Y-57298390D02*
X60663220Y-57107914D01*
X60663220Y-57107914D02*
X60615601Y-57012676D01*
X60615601Y-57012676D02*
X60520363Y-56917438D01*
X60520363Y-56917438D02*
X60377506Y-56869819D01*
X60377506Y-56869819D02*
X60282268Y-56869819D01*
X60282268Y-56869819D02*
X60139411Y-56917438D01*
X60139411Y-56917438D02*
X60091792Y-56965057D01*
X59329887Y-57346009D02*
X59187030Y-57393628D01*
X59187030Y-57393628D02*
X59139411Y-57441247D01*
X59139411Y-57441247D02*
X59091792Y-57536485D01*
X59091792Y-57536485D02*
X59091792Y-57679342D01*
X59091792Y-57679342D02*
X59139411Y-57774580D01*
X59139411Y-57774580D02*
X59187030Y-57822200D01*
X59187030Y-57822200D02*
X59282268Y-57869819D01*
X59282268Y-57869819D02*
X59663220Y-57869819D01*
X59663220Y-57869819D02*
X59663220Y-56869819D01*
X59663220Y-56869819D02*
X59329887Y-56869819D01*
X59329887Y-56869819D02*
X59234649Y-56917438D01*
X59234649Y-56917438D02*
X59187030Y-56965057D01*
X59187030Y-56965057D02*
X59139411Y-57060295D01*
X59139411Y-57060295D02*
X59139411Y-57155533D01*
X59139411Y-57155533D02*
X59187030Y-57250771D01*
X59187030Y-57250771D02*
X59234649Y-57298390D01*
X59234649Y-57298390D02*
X59329887Y-57346009D01*
X59329887Y-57346009D02*
X59663220Y-57346009D01*
X58663220Y-57774580D02*
X58615601Y-57822200D01*
X58615601Y-57822200D02*
X58663220Y-57869819D01*
X58663220Y-57869819D02*
X58710839Y-57822200D01*
X58710839Y-57822200D02*
X58663220Y-57774580D01*
X58663220Y-57774580D02*
X58663220Y-57869819D01*
X58663220Y-57250771D02*
X58615601Y-57298390D01*
X58615601Y-57298390D02*
X58663220Y-57346009D01*
X58663220Y-57346009D02*
X58710839Y-57298390D01*
X58710839Y-57298390D02*
X58663220Y-57250771D01*
X58663220Y-57250771D02*
X58663220Y-57346009D01*
X57520363Y-56869819D02*
X56901316Y-56869819D01*
X56901316Y-56869819D02*
X57234649Y-57250771D01*
X57234649Y-57250771D02*
X57091792Y-57250771D01*
X57091792Y-57250771D02*
X56996554Y-57298390D01*
X56996554Y-57298390D02*
X56948935Y-57346009D01*
X56948935Y-57346009D02*
X56901316Y-57441247D01*
X56901316Y-57441247D02*
X56901316Y-57679342D01*
X56901316Y-57679342D02*
X56948935Y-57774580D01*
X56948935Y-57774580D02*
X56996554Y-57822200D01*
X56996554Y-57822200D02*
X57091792Y-57869819D01*
X57091792Y-57869819D02*
X57377506Y-57869819D01*
X57377506Y-57869819D02*
X57472744Y-57822200D01*
X57472744Y-57822200D02*
X57520363Y-57774580D01*
X56472744Y-57774580D02*
X56425125Y-57822200D01*
X56425125Y-57822200D02*
X56472744Y-57869819D01*
X56472744Y-57869819D02*
X56520363Y-57822200D01*
X56520363Y-57822200D02*
X56472744Y-57774580D01*
X56472744Y-57774580D02*
X56472744Y-57869819D01*
X55806078Y-56869819D02*
X55710840Y-56869819D01*
X55710840Y-56869819D02*
X55615602Y-56917438D01*
X55615602Y-56917438D02*
X55567983Y-56965057D01*
X55567983Y-56965057D02*
X55520364Y-57060295D01*
X55520364Y-57060295D02*
X55472745Y-57250771D01*
X55472745Y-57250771D02*
X55472745Y-57488866D01*
X55472745Y-57488866D02*
X55520364Y-57679342D01*
X55520364Y-57679342D02*
X55567983Y-57774580D01*
X55567983Y-57774580D02*
X55615602Y-57822200D01*
X55615602Y-57822200D02*
X55710840Y-57869819D01*
X55710840Y-57869819D02*
X55806078Y-57869819D01*
X55806078Y-57869819D02*
X55901316Y-57822200D01*
X55901316Y-57822200D02*
X55948935Y-57774580D01*
X55948935Y-57774580D02*
X55996554Y-57679342D01*
X55996554Y-57679342D02*
X56044173Y-57488866D01*
X56044173Y-57488866D02*
X56044173Y-57250771D01*
X56044173Y-57250771D02*
X55996554Y-57060295D01*
X55996554Y-57060295D02*
X55948935Y-56965057D01*
X55948935Y-56965057D02*
X55901316Y-56917438D01*
X55901316Y-56917438D02*
X55806078Y-56869819D01*
X55044173Y-57774580D02*
X54996554Y-57822200D01*
X54996554Y-57822200D02*
X55044173Y-57869819D01*
X55044173Y-57869819D02*
X55091792Y-57822200D01*
X55091792Y-57822200D02*
X55044173Y-57774580D01*
X55044173Y-57774580D02*
X55044173Y-57869819D01*
X54615602Y-56965057D02*
X54567983Y-56917438D01*
X54567983Y-56917438D02*
X54472745Y-56869819D01*
X54472745Y-56869819D02*
X54234650Y-56869819D01*
X54234650Y-56869819D02*
X54139412Y-56917438D01*
X54139412Y-56917438D02*
X54091793Y-56965057D01*
X54091793Y-56965057D02*
X54044174Y-57060295D01*
X54044174Y-57060295D02*
X54044174Y-57155533D01*
X54044174Y-57155533D02*
X54091793Y-57298390D01*
X54091793Y-57298390D02*
X54663221Y-57869819D01*
X54663221Y-57869819D02*
X54044174Y-57869819D01*
X53615602Y-57488866D02*
X52853698Y-57488866D01*
X51806079Y-57869819D02*
X52139412Y-57393628D01*
X52377507Y-57869819D02*
X52377507Y-56869819D01*
X52377507Y-56869819D02*
X51996555Y-56869819D01*
X51996555Y-56869819D02*
X51901317Y-56917438D01*
X51901317Y-56917438D02*
X51853698Y-56965057D01*
X51853698Y-56965057D02*
X51806079Y-57060295D01*
X51806079Y-57060295D02*
X51806079Y-57203152D01*
X51806079Y-57203152D02*
X51853698Y-57298390D01*
X51853698Y-57298390D02*
X51901317Y-57346009D01*
X51901317Y-57346009D02*
X51996555Y-57393628D01*
X51996555Y-57393628D02*
X52377507Y-57393628D01*
X50806079Y-57774580D02*
X50853698Y-57822200D01*
X50853698Y-57822200D02*
X50996555Y-57869819D01*
X50996555Y-57869819D02*
X51091793Y-57869819D01*
X51091793Y-57869819D02*
X51234650Y-57822200D01*
X51234650Y-57822200D02*
X51329888Y-57726961D01*
X51329888Y-57726961D02*
X51377507Y-57631723D01*
X51377507Y-57631723D02*
X51425126Y-57441247D01*
X51425126Y-57441247D02*
X51425126Y-57298390D01*
X51425126Y-57298390D02*
X51377507Y-57107914D01*
X51377507Y-57107914D02*
X51329888Y-57012676D01*
X51329888Y-57012676D02*
X51234650Y-56917438D01*
X51234650Y-56917438D02*
X51091793Y-56869819D01*
X51091793Y-56869819D02*
X50996555Y-56869819D01*
X50996555Y-56869819D02*
X50853698Y-56917438D01*
X50853698Y-56917438D02*
X50806079Y-56965057D01*
X38511133Y-122663220D02*
X38511133Y-121901316D01*
X38130180Y-122282268D02*
X38892085Y-122282268D01*
X39130180Y-120948935D02*
X39130180Y-121425125D01*
X39130180Y-121425125D02*
X38653990Y-121472744D01*
X38653990Y-121472744D02*
X38701609Y-121425125D01*
X38701609Y-121425125D02*
X38749228Y-121329887D01*
X38749228Y-121329887D02*
X38749228Y-121091792D01*
X38749228Y-121091792D02*
X38701609Y-120996554D01*
X38701609Y-120996554D02*
X38653990Y-120948935D01*
X38653990Y-120948935D02*
X38558752Y-120901316D01*
X38558752Y-120901316D02*
X38320657Y-120901316D01*
X38320657Y-120901316D02*
X38225419Y-120948935D01*
X38225419Y-120948935D02*
X38177800Y-120996554D01*
X38177800Y-120996554D02*
X38130180Y-121091792D01*
X38130180Y-121091792D02*
X38130180Y-121329887D01*
X38130180Y-121329887D02*
X38177800Y-121425125D01*
X38177800Y-121425125D02*
X38225419Y-121472744D01*
X39130180Y-120615601D02*
X38130180Y-120282268D01*
X38130180Y-120282268D02*
X39130180Y-119948935D01*
X56544173Y-24808628D02*
X56544173Y-23308628D01*
X56544173Y-23308628D02*
X56044173Y-24380057D01*
X56044173Y-24380057D02*
X55544173Y-23308628D01*
X55544173Y-23308628D02*
X55544173Y-24808628D01*
X54829887Y-24808628D02*
X54829887Y-23308628D01*
X54115601Y-24808628D02*
X54115601Y-23308628D01*
X54115601Y-23308628D02*
X53758458Y-23308628D01*
X53758458Y-23308628D02*
X53544172Y-23380057D01*
X53544172Y-23380057D02*
X53401315Y-23522914D01*
X53401315Y-23522914D02*
X53329886Y-23665771D01*
X53329886Y-23665771D02*
X53258458Y-23951485D01*
X53258458Y-23951485D02*
X53258458Y-24165771D01*
X53258458Y-24165771D02*
X53329886Y-24451485D01*
X53329886Y-24451485D02*
X53401315Y-24594342D01*
X53401315Y-24594342D02*
X53544172Y-24737200D01*
X53544172Y-24737200D02*
X53758458Y-24808628D01*
X53758458Y-24808628D02*
X54115601Y-24808628D01*
X52615601Y-24808628D02*
X52615601Y-23308628D01*
X134310619Y-57188379D02*
X133643952Y-57188379D01*
X133310619Y-57188379D02*
X133358238Y-57140760D01*
X133358238Y-57140760D02*
X133405857Y-57188379D01*
X133405857Y-57188379D02*
X133358238Y-57235998D01*
X133358238Y-57235998D02*
X133310619Y-57188379D01*
X133310619Y-57188379D02*
X133405857Y-57188379D01*
X133643952Y-57664569D02*
X134310619Y-57664569D01*
X133739190Y-57664569D02*
X133691571Y-57712188D01*
X133691571Y-57712188D02*
X133643952Y-57807426D01*
X133643952Y-57807426D02*
X133643952Y-57950283D01*
X133643952Y-57950283D02*
X133691571Y-58045521D01*
X133691571Y-58045521D02*
X133786809Y-58093140D01*
X133786809Y-58093140D02*
X134310619Y-58093140D01*
X52187030Y-129869819D02*
X52663220Y-129869819D01*
X52663220Y-129869819D02*
X52663220Y-128869819D01*
X51853696Y-129346009D02*
X51520363Y-129346009D01*
X51377506Y-129869819D02*
X51853696Y-129869819D01*
X51853696Y-129869819D02*
X51853696Y-128869819D01*
X51853696Y-128869819D02*
X51377506Y-128869819D01*
X50948934Y-129869819D02*
X50948934Y-128869819D01*
X50948934Y-128869819D02*
X50710839Y-128869819D01*
X50710839Y-128869819D02*
X50567982Y-128917438D01*
X50567982Y-128917438D02*
X50472744Y-129012676D01*
X50472744Y-129012676D02*
X50425125Y-129107914D01*
X50425125Y-129107914D02*
X50377506Y-129298390D01*
X50377506Y-129298390D02*
X50377506Y-129441247D01*
X50377506Y-129441247D02*
X50425125Y-129631723D01*
X50425125Y-129631723D02*
X50472744Y-129726961D01*
X50472744Y-129726961D02*
X50567982Y-129822200D01*
X50567982Y-129822200D02*
X50710839Y-129869819D01*
X50710839Y-129869819D02*
X50948934Y-129869819D01*
X48996553Y-128869819D02*
X48806077Y-128869819D01*
X48806077Y-128869819D02*
X48710839Y-128917438D01*
X48710839Y-128917438D02*
X48615601Y-129012676D01*
X48615601Y-129012676D02*
X48567982Y-129203152D01*
X48567982Y-129203152D02*
X48567982Y-129536485D01*
X48567982Y-129536485D02*
X48615601Y-129726961D01*
X48615601Y-129726961D02*
X48710839Y-129822200D01*
X48710839Y-129822200D02*
X48806077Y-129869819D01*
X48806077Y-129869819D02*
X48996553Y-129869819D01*
X48996553Y-129869819D02*
X49091791Y-129822200D01*
X49091791Y-129822200D02*
X49187029Y-129726961D01*
X49187029Y-129726961D02*
X49234648Y-129536485D01*
X49234648Y-129536485D02*
X49234648Y-129203152D01*
X49234648Y-129203152D02*
X49187029Y-129012676D01*
X49187029Y-129012676D02*
X49091791Y-128917438D01*
X49091791Y-128917438D02*
X48996553Y-128869819D01*
X48139410Y-128869819D02*
X48139410Y-129679342D01*
X48139410Y-129679342D02*
X48091791Y-129774580D01*
X48091791Y-129774580D02*
X48044172Y-129822200D01*
X48044172Y-129822200D02*
X47948934Y-129869819D01*
X47948934Y-129869819D02*
X47758458Y-129869819D01*
X47758458Y-129869819D02*
X47663220Y-129822200D01*
X47663220Y-129822200D02*
X47615601Y-129774580D01*
X47615601Y-129774580D02*
X47567982Y-129679342D01*
X47567982Y-129679342D02*
X47567982Y-128869819D01*
X47234648Y-128869819D02*
X46663220Y-128869819D01*
X46948934Y-129869819D02*
X46948934Y-128869819D01*
X182648219Y-37115979D02*
X181648219Y-37115979D01*
X182648219Y-37592169D02*
X181648219Y-37592169D01*
X181648219Y-37592169D02*
X182648219Y-38163597D01*
X182648219Y-38163597D02*
X181648219Y-38163597D01*
X55472744Y-35869819D02*
X55282268Y-35869819D01*
X55282268Y-35869819D02*
X55187030Y-35917438D01*
X55187030Y-35917438D02*
X55091792Y-36012676D01*
X55091792Y-36012676D02*
X55044173Y-36203152D01*
X55044173Y-36203152D02*
X55044173Y-36536485D01*
X55044173Y-36536485D02*
X55091792Y-36726961D01*
X55091792Y-36726961D02*
X55187030Y-36822200D01*
X55187030Y-36822200D02*
X55282268Y-36869819D01*
X55282268Y-36869819D02*
X55472744Y-36869819D01*
X55472744Y-36869819D02*
X55567982Y-36822200D01*
X55567982Y-36822200D02*
X55663220Y-36726961D01*
X55663220Y-36726961D02*
X55710839Y-36536485D01*
X55710839Y-36536485D02*
X55710839Y-36203152D01*
X55710839Y-36203152D02*
X55663220Y-36012676D01*
X55663220Y-36012676D02*
X55567982Y-35917438D01*
X55567982Y-35917438D02*
X55472744Y-35869819D01*
X54615601Y-35869819D02*
X54615601Y-36679342D01*
X54615601Y-36679342D02*
X54567982Y-36774580D01*
X54567982Y-36774580D02*
X54520363Y-36822200D01*
X54520363Y-36822200D02*
X54425125Y-36869819D01*
X54425125Y-36869819D02*
X54234649Y-36869819D01*
X54234649Y-36869819D02*
X54139411Y-36822200D01*
X54139411Y-36822200D02*
X54091792Y-36774580D01*
X54091792Y-36774580D02*
X54044173Y-36679342D01*
X54044173Y-36679342D02*
X54044173Y-35869819D01*
X53710839Y-35869819D02*
X53139411Y-35869819D01*
X53425125Y-36869819D02*
X53425125Y-35869819D01*
X175196619Y-36871522D02*
X176196619Y-37204855D01*
X176196619Y-37204855D02*
X175196619Y-37538188D01*
X176196619Y-38442950D02*
X175720428Y-38109617D01*
X176196619Y-37871522D02*
X175196619Y-37871522D01*
X175196619Y-37871522D02*
X175196619Y-38252474D01*
X175196619Y-38252474D02*
X175244238Y-38347712D01*
X175244238Y-38347712D02*
X175291857Y-38395331D01*
X175291857Y-38395331D02*
X175387095Y-38442950D01*
X175387095Y-38442950D02*
X175529952Y-38442950D01*
X175529952Y-38442950D02*
X175625190Y-38395331D01*
X175625190Y-38395331D02*
X175672809Y-38347712D01*
X175672809Y-38347712D02*
X175720428Y-38252474D01*
X175720428Y-38252474D02*
X175720428Y-37871522D01*
X175672809Y-38871522D02*
X175672809Y-39204855D01*
X176196619Y-39347712D02*
X176196619Y-38871522D01*
X176196619Y-38871522D02*
X175196619Y-38871522D01*
X175196619Y-38871522D02*
X175196619Y-39347712D01*
X175672809Y-40109617D02*
X175672809Y-39776284D01*
X176196619Y-39776284D02*
X175196619Y-39776284D01*
X175196619Y-39776284D02*
X175196619Y-40252474D01*
X116392857Y-42929580D02*
X116440476Y-42977200D01*
X116440476Y-42977200D02*
X116583333Y-43024819D01*
X116583333Y-43024819D02*
X116678571Y-43024819D01*
X116678571Y-43024819D02*
X116821428Y-42977200D01*
X116821428Y-42977200D02*
X116916666Y-42881961D01*
X116916666Y-42881961D02*
X116964285Y-42786723D01*
X116964285Y-42786723D02*
X117011904Y-42596247D01*
X117011904Y-42596247D02*
X117011904Y-42453390D01*
X117011904Y-42453390D02*
X116964285Y-42262914D01*
X116964285Y-42262914D02*
X116916666Y-42167676D01*
X116916666Y-42167676D02*
X116821428Y-42072438D01*
X116821428Y-42072438D02*
X116678571Y-42024819D01*
X116678571Y-42024819D02*
X116583333Y-42024819D01*
X116583333Y-42024819D02*
X116440476Y-42072438D01*
X116440476Y-42072438D02*
X116392857Y-42120057D01*
X116011904Y-42120057D02*
X115964285Y-42072438D01*
X115964285Y-42072438D02*
X115869047Y-42024819D01*
X115869047Y-42024819D02*
X115630952Y-42024819D01*
X115630952Y-42024819D02*
X115535714Y-42072438D01*
X115535714Y-42072438D02*
X115488095Y-42120057D01*
X115488095Y-42120057D02*
X115440476Y-42215295D01*
X115440476Y-42215295D02*
X115440476Y-42310533D01*
X115440476Y-42310533D02*
X115488095Y-42453390D01*
X115488095Y-42453390D02*
X116059523Y-43024819D01*
X116059523Y-43024819D02*
X115440476Y-43024819D01*
X115107142Y-42024819D02*
X114440476Y-42024819D01*
X114440476Y-42024819D02*
X114869047Y-43024819D01*
X26738094Y-123954819D02*
X26738094Y-122954819D01*
X26738094Y-123431009D02*
X26166666Y-123431009D01*
X26166666Y-123954819D02*
X26166666Y-122954819D01*
X25166666Y-123954819D02*
X25738094Y-123954819D01*
X25452380Y-123954819D02*
X25452380Y-122954819D01*
X25452380Y-122954819D02*
X25547618Y-123097676D01*
X25547618Y-123097676D02*
X25642856Y-123192914D01*
X25642856Y-123192914D02*
X25738094Y-123240533D01*
X24833332Y-122954819D02*
X24214285Y-122954819D01*
X24214285Y-122954819D02*
X24547618Y-123335771D01*
X24547618Y-123335771D02*
X24404761Y-123335771D01*
X24404761Y-123335771D02*
X24309523Y-123383390D01*
X24309523Y-123383390D02*
X24261904Y-123431009D01*
X24261904Y-123431009D02*
X24214285Y-123526247D01*
X24214285Y-123526247D02*
X24214285Y-123764342D01*
X24214285Y-123764342D02*
X24261904Y-123859580D01*
X24261904Y-123859580D02*
X24309523Y-123907200D01*
X24309523Y-123907200D02*
X24404761Y-123954819D01*
X24404761Y-123954819D02*
X24690475Y-123954819D01*
X24690475Y-123954819D02*
X24785713Y-123907200D01*
X24785713Y-123907200D02*
X24833332Y-123859580D01*
X101261904Y-72054819D02*
X101261904Y-71054819D01*
X101261904Y-71531009D02*
X100690476Y-71531009D01*
X100690476Y-72054819D02*
X100690476Y-71054819D01*
X100166666Y-72054819D02*
X99976190Y-72054819D01*
X99976190Y-72054819D02*
X99880952Y-72007200D01*
X99880952Y-72007200D02*
X99833333Y-71959580D01*
X99833333Y-71959580D02*
X99738095Y-71816723D01*
X99738095Y-71816723D02*
X99690476Y-71626247D01*
X99690476Y-71626247D02*
X99690476Y-71245295D01*
X99690476Y-71245295D02*
X99738095Y-71150057D01*
X99738095Y-71150057D02*
X99785714Y-71102438D01*
X99785714Y-71102438D02*
X99880952Y-71054819D01*
X99880952Y-71054819D02*
X100071428Y-71054819D01*
X100071428Y-71054819D02*
X100166666Y-71102438D01*
X100166666Y-71102438D02*
X100214285Y-71150057D01*
X100214285Y-71150057D02*
X100261904Y-71245295D01*
X100261904Y-71245295D02*
X100261904Y-71483390D01*
X100261904Y-71483390D02*
X100214285Y-71578628D01*
X100214285Y-71578628D02*
X100166666Y-71626247D01*
X100166666Y-71626247D02*
X100071428Y-71673866D01*
X100071428Y-71673866D02*
X99880952Y-71673866D01*
X99880952Y-71673866D02*
X99785714Y-71626247D01*
X99785714Y-71626247D02*
X99738095Y-71578628D01*
X99738095Y-71578628D02*
X99690476Y-71483390D01*
X26738094Y-72454819D02*
X26738094Y-71454819D01*
X26738094Y-71931009D02*
X26166666Y-71931009D01*
X26166666Y-72454819D02*
X26166666Y-71454819D01*
X25166666Y-72454819D02*
X25738094Y-72454819D01*
X25452380Y-72454819D02*
X25452380Y-71454819D01*
X25452380Y-71454819D02*
X25547618Y-71597676D01*
X25547618Y-71597676D02*
X25642856Y-71692914D01*
X25642856Y-71692914D02*
X25738094Y-71740533D01*
X24547618Y-71454819D02*
X24452380Y-71454819D01*
X24452380Y-71454819D02*
X24357142Y-71502438D01*
X24357142Y-71502438D02*
X24309523Y-71550057D01*
X24309523Y-71550057D02*
X24261904Y-71645295D01*
X24261904Y-71645295D02*
X24214285Y-71835771D01*
X24214285Y-71835771D02*
X24214285Y-72073866D01*
X24214285Y-72073866D02*
X24261904Y-72264342D01*
X24261904Y-72264342D02*
X24309523Y-72359580D01*
X24309523Y-72359580D02*
X24357142Y-72407200D01*
X24357142Y-72407200D02*
X24452380Y-72454819D01*
X24452380Y-72454819D02*
X24547618Y-72454819D01*
X24547618Y-72454819D02*
X24642856Y-72407200D01*
X24642856Y-72407200D02*
X24690475Y-72359580D01*
X24690475Y-72359580D02*
X24738094Y-72264342D01*
X24738094Y-72264342D02*
X24785713Y-72073866D01*
X24785713Y-72073866D02*
X24785713Y-71835771D01*
X24785713Y-71835771D02*
X24738094Y-71645295D01*
X24738094Y-71645295D02*
X24690475Y-71550057D01*
X24690475Y-71550057D02*
X24642856Y-71502438D01*
X24642856Y-71502438D02*
X24547618Y-71454819D01*
X176761904Y-71954819D02*
X176761904Y-70954819D01*
X176761904Y-71431009D02*
X176190476Y-71431009D01*
X176190476Y-71954819D02*
X176190476Y-70954819D01*
X175571428Y-71383390D02*
X175666666Y-71335771D01*
X175666666Y-71335771D02*
X175714285Y-71288152D01*
X175714285Y-71288152D02*
X175761904Y-71192914D01*
X175761904Y-71192914D02*
X175761904Y-71145295D01*
X175761904Y-71145295D02*
X175714285Y-71050057D01*
X175714285Y-71050057D02*
X175666666Y-71002438D01*
X175666666Y-71002438D02*
X175571428Y-70954819D01*
X175571428Y-70954819D02*
X175380952Y-70954819D01*
X175380952Y-70954819D02*
X175285714Y-71002438D01*
X175285714Y-71002438D02*
X175238095Y-71050057D01*
X175238095Y-71050057D02*
X175190476Y-71145295D01*
X175190476Y-71145295D02*
X175190476Y-71192914D01*
X175190476Y-71192914D02*
X175238095Y-71288152D01*
X175238095Y-71288152D02*
X175285714Y-71335771D01*
X175285714Y-71335771D02*
X175380952Y-71383390D01*
X175380952Y-71383390D02*
X175571428Y-71383390D01*
X175571428Y-71383390D02*
X175666666Y-71431009D01*
X175666666Y-71431009D02*
X175714285Y-71478628D01*
X175714285Y-71478628D02*
X175761904Y-71573866D01*
X175761904Y-71573866D02*
X175761904Y-71764342D01*
X175761904Y-71764342D02*
X175714285Y-71859580D01*
X175714285Y-71859580D02*
X175666666Y-71907200D01*
X175666666Y-71907200D02*
X175571428Y-71954819D01*
X175571428Y-71954819D02*
X175380952Y-71954819D01*
X175380952Y-71954819D02*
X175285714Y-71907200D01*
X175285714Y-71907200D02*
X175238095Y-71859580D01*
X175238095Y-71859580D02*
X175190476Y-71764342D01*
X175190476Y-71764342D02*
X175190476Y-71573866D01*
X175190476Y-71573866D02*
X175238095Y-71478628D01*
X175238095Y-71478628D02*
X175285714Y-71431009D01*
X175285714Y-71431009D02*
X175380952Y-71383390D01*
X102238094Y-123954819D02*
X102238094Y-122954819D01*
X102238094Y-123431009D02*
X101666666Y-123431009D01*
X101666666Y-123954819D02*
X101666666Y-122954819D01*
X100666666Y-123954819D02*
X101238094Y-123954819D01*
X100952380Y-123954819D02*
X100952380Y-122954819D01*
X100952380Y-122954819D02*
X101047618Y-123097676D01*
X101047618Y-123097676D02*
X101142856Y-123192914D01*
X101142856Y-123192914D02*
X101238094Y-123240533D01*
X100285713Y-123050057D02*
X100238094Y-123002438D01*
X100238094Y-123002438D02*
X100142856Y-122954819D01*
X100142856Y-122954819D02*
X99904761Y-122954819D01*
X99904761Y-122954819D02*
X99809523Y-123002438D01*
X99809523Y-123002438D02*
X99761904Y-123050057D01*
X99761904Y-123050057D02*
X99714285Y-123145295D01*
X99714285Y-123145295D02*
X99714285Y-123240533D01*
X99714285Y-123240533D02*
X99761904Y-123383390D01*
X99761904Y-123383390D02*
X100333332Y-123954819D01*
X100333332Y-123954819D02*
X99714285Y-123954819D01*
X47909523Y-24379819D02*
X47909523Y-25094104D01*
X47909523Y-25094104D02*
X47957142Y-25236961D01*
X47957142Y-25236961D02*
X48052380Y-25332200D01*
X48052380Y-25332200D02*
X48195237Y-25379819D01*
X48195237Y-25379819D02*
X48290475Y-25379819D01*
X47480951Y-24475057D02*
X47433332Y-24427438D01*
X47433332Y-24427438D02*
X47338094Y-24379819D01*
X47338094Y-24379819D02*
X47099999Y-24379819D01*
X47099999Y-24379819D02*
X47004761Y-24427438D01*
X47004761Y-24427438D02*
X46957142Y-24475057D01*
X46957142Y-24475057D02*
X46909523Y-24570295D01*
X46909523Y-24570295D02*
X46909523Y-24665533D01*
X46909523Y-24665533D02*
X46957142Y-24808390D01*
X46957142Y-24808390D02*
X47528570Y-25379819D01*
X47528570Y-25379819D02*
X46909523Y-25379819D01*
X46576189Y-24379819D02*
X45957142Y-24379819D01*
X45957142Y-24379819D02*
X46290475Y-24760771D01*
X46290475Y-24760771D02*
X46147618Y-24760771D01*
X46147618Y-24760771D02*
X46052380Y-24808390D01*
X46052380Y-24808390D02*
X46004761Y-24856009D01*
X46004761Y-24856009D02*
X45957142Y-24951247D01*
X45957142Y-24951247D02*
X45957142Y-25189342D01*
X45957142Y-25189342D02*
X46004761Y-25284580D01*
X46004761Y-25284580D02*
X46052380Y-25332200D01*
X46052380Y-25332200D02*
X46147618Y-25379819D01*
X46147618Y-25379819D02*
X46433332Y-25379819D01*
X46433332Y-25379819D02*
X46528570Y-25332200D01*
X46528570Y-25332200D02*
X46576189Y-25284580D01*
X47809523Y-125454819D02*
X47809523Y-126169104D01*
X47809523Y-126169104D02*
X47857142Y-126311961D01*
X47857142Y-126311961D02*
X47952380Y-126407200D01*
X47952380Y-126407200D02*
X48095237Y-126454819D01*
X48095237Y-126454819D02*
X48190475Y-126454819D01*
X47380951Y-125550057D02*
X47333332Y-125502438D01*
X47333332Y-125502438D02*
X47238094Y-125454819D01*
X47238094Y-125454819D02*
X46999999Y-125454819D01*
X46999999Y-125454819D02*
X46904761Y-125502438D01*
X46904761Y-125502438D02*
X46857142Y-125550057D01*
X46857142Y-125550057D02*
X46809523Y-125645295D01*
X46809523Y-125645295D02*
X46809523Y-125740533D01*
X46809523Y-125740533D02*
X46857142Y-125883390D01*
X46857142Y-125883390D02*
X47428570Y-126454819D01*
X47428570Y-126454819D02*
X46809523Y-126454819D01*
X45952380Y-125454819D02*
X46142856Y-125454819D01*
X46142856Y-125454819D02*
X46238094Y-125502438D01*
X46238094Y-125502438D02*
X46285713Y-125550057D01*
X46285713Y-125550057D02*
X46380951Y-125692914D01*
X46380951Y-125692914D02*
X46428570Y-125883390D01*
X46428570Y-125883390D02*
X46428570Y-126264342D01*
X46428570Y-126264342D02*
X46380951Y-126359580D01*
X46380951Y-126359580D02*
X46333332Y-126407200D01*
X46333332Y-126407200D02*
X46238094Y-126454819D01*
X46238094Y-126454819D02*
X46047618Y-126454819D01*
X46047618Y-126454819D02*
X45952380Y-126407200D01*
X45952380Y-126407200D02*
X45904761Y-126359580D01*
X45904761Y-126359580D02*
X45857142Y-126264342D01*
X45857142Y-126264342D02*
X45857142Y-126026247D01*
X45857142Y-126026247D02*
X45904761Y-125931009D01*
X45904761Y-125931009D02*
X45952380Y-125883390D01*
X45952380Y-125883390D02*
X46047618Y-125835771D01*
X46047618Y-125835771D02*
X46238094Y-125835771D01*
X46238094Y-125835771D02*
X46333332Y-125883390D01*
X46333332Y-125883390D02*
X46380951Y-125931009D01*
X46380951Y-125931009D02*
X46428570Y-126026247D01*
X176738094Y-123954819D02*
X176738094Y-122954819D01*
X176738094Y-123431009D02*
X176166666Y-123431009D01*
X176166666Y-123954819D02*
X176166666Y-122954819D01*
X175166666Y-123954819D02*
X175738094Y-123954819D01*
X175452380Y-123954819D02*
X175452380Y-122954819D01*
X175452380Y-122954819D02*
X175547618Y-123097676D01*
X175547618Y-123097676D02*
X175642856Y-123192914D01*
X175642856Y-123192914D02*
X175738094Y-123240533D01*
X174214285Y-123954819D02*
X174785713Y-123954819D01*
X174499999Y-123954819D02*
X174499999Y-122954819D01*
X174499999Y-122954819D02*
X174595237Y-123097676D01*
X174595237Y-123097676D02*
X174690475Y-123192914D01*
X174690475Y-123192914D02*
X174785713Y-123240533D01*
X124109523Y-67954819D02*
X124109523Y-68669104D01*
X124109523Y-68669104D02*
X124157142Y-68811961D01*
X124157142Y-68811961D02*
X124252380Y-68907200D01*
X124252380Y-68907200D02*
X124395237Y-68954819D01*
X124395237Y-68954819D02*
X124490475Y-68954819D01*
X123680951Y-68050057D02*
X123633332Y-68002438D01*
X123633332Y-68002438D02*
X123538094Y-67954819D01*
X123538094Y-67954819D02*
X123299999Y-67954819D01*
X123299999Y-67954819D02*
X123204761Y-68002438D01*
X123204761Y-68002438D02*
X123157142Y-68050057D01*
X123157142Y-68050057D02*
X123109523Y-68145295D01*
X123109523Y-68145295D02*
X123109523Y-68240533D01*
X123109523Y-68240533D02*
X123157142Y-68383390D01*
X123157142Y-68383390D02*
X123728570Y-68954819D01*
X123728570Y-68954819D02*
X123109523Y-68954819D01*
X122204761Y-67954819D02*
X122680951Y-67954819D01*
X122680951Y-67954819D02*
X122728570Y-68431009D01*
X122728570Y-68431009D02*
X122680951Y-68383390D01*
X122680951Y-68383390D02*
X122585713Y-68335771D01*
X122585713Y-68335771D02*
X122347618Y-68335771D01*
X122347618Y-68335771D02*
X122252380Y-68383390D01*
X122252380Y-68383390D02*
X122204761Y-68431009D01*
X122204761Y-68431009D02*
X122157142Y-68526247D01*
X122157142Y-68526247D02*
X122157142Y-68764342D01*
X122157142Y-68764342D02*
X122204761Y-68859580D01*
X122204761Y-68859580D02*
X122252380Y-68907200D01*
X122252380Y-68907200D02*
X122347618Y-68954819D01*
X122347618Y-68954819D02*
X122585713Y-68954819D01*
X122585713Y-68954819D02*
X122680951Y-68907200D01*
X122680951Y-68907200D02*
X122728570Y-68859580D01*
X47909523Y-32129819D02*
X47909523Y-32844104D01*
X47909523Y-32844104D02*
X47957142Y-32986961D01*
X47957142Y-32986961D02*
X48052380Y-33082200D01*
X48052380Y-33082200D02*
X48195237Y-33129819D01*
X48195237Y-33129819D02*
X48290475Y-33129819D01*
X47480951Y-32225057D02*
X47433332Y-32177438D01*
X47433332Y-32177438D02*
X47338094Y-32129819D01*
X47338094Y-32129819D02*
X47099999Y-32129819D01*
X47099999Y-32129819D02*
X47004761Y-32177438D01*
X47004761Y-32177438D02*
X46957142Y-32225057D01*
X46957142Y-32225057D02*
X46909523Y-32320295D01*
X46909523Y-32320295D02*
X46909523Y-32415533D01*
X46909523Y-32415533D02*
X46957142Y-32558390D01*
X46957142Y-32558390D02*
X47528570Y-33129819D01*
X47528570Y-33129819D02*
X46909523Y-33129819D01*
X46052380Y-32463152D02*
X46052380Y-33129819D01*
X46290475Y-32082200D02*
X46528570Y-32796485D01*
X46528570Y-32796485D02*
X45909523Y-32796485D01*
D11*
X52450000Y-25725000D02*
X52450000Y-26975000D01*
X52160000Y-31985000D02*
X42040000Y-31985000D01*
X52160000Y-26015000D02*
X52160000Y-31985000D01*
X52150000Y-28275000D02*
X51400000Y-28275000D01*
X52150000Y-26775000D02*
X50350000Y-26775000D01*
X52150000Y-26025000D02*
X52150000Y-26775000D01*
X51400000Y-31225000D02*
X47100000Y-31225000D01*
X51400000Y-28275000D02*
X51400000Y-31225000D01*
X51200000Y-25725000D02*
X52450000Y-25725000D01*
X50350000Y-26775000D02*
X50350000Y-26025000D01*
X50350000Y-26025000D02*
X52150000Y-26025000D01*
X48850000Y-26775000D02*
X45350000Y-26775000D01*
X48850000Y-26025000D02*
X48850000Y-26775000D01*
X45350000Y-26775000D02*
X45350000Y-26025000D01*
X45350000Y-26025000D02*
X48850000Y-26025000D01*
X43850000Y-26775000D02*
X42050000Y-26775000D01*
X43850000Y-26025000D02*
X43850000Y-26775000D01*
X42800000Y-31225000D02*
X47100000Y-31225000D01*
X42800000Y-28275000D02*
X42800000Y-31225000D01*
X42050000Y-28275000D02*
X42800000Y-28275000D01*
X42050000Y-26775000D02*
X42050000Y-26025000D01*
X42050000Y-26025000D02*
X43850000Y-26025000D01*
X42040000Y-31985000D02*
X42040000Y-26015000D01*
X42040000Y-26015000D02*
X52160000Y-26015000D01*
X45750000Y-124350000D02*
X45750000Y-125600000D01*
X45460000Y-130610000D02*
X35340000Y-130610000D01*
X45460000Y-124640000D02*
X45460000Y-130610000D01*
X45450000Y-126900000D02*
X44700000Y-126900000D01*
X45450000Y-125400000D02*
X43650000Y-125400000D01*
X45450000Y-124650000D02*
X45450000Y-125400000D01*
X44700000Y-129850000D02*
X40400000Y-129850000D01*
X44700000Y-126900000D02*
X44700000Y-129850000D01*
X44500000Y-124350000D02*
X45750000Y-124350000D01*
X43650000Y-125400000D02*
X43650000Y-124650000D01*
X43650000Y-124650000D02*
X45450000Y-124650000D01*
X42150000Y-125400000D02*
X38650000Y-125400000D01*
X42150000Y-124650000D02*
X42150000Y-125400000D01*
X38650000Y-125400000D02*
X38650000Y-124650000D01*
X38650000Y-124650000D02*
X42150000Y-124650000D01*
X37150000Y-125400000D02*
X35350000Y-125400000D01*
X37150000Y-124650000D02*
X37150000Y-125400000D01*
X36100000Y-129850000D02*
X40400000Y-129850000D01*
X36100000Y-126900000D02*
X36100000Y-129850000D01*
X35350000Y-126900000D02*
X36100000Y-126900000D01*
X35350000Y-125400000D02*
X35350000Y-124650000D01*
X35350000Y-124650000D02*
X37150000Y-124650000D01*
X35340000Y-130610000D02*
X35340000Y-124640000D01*
X35340000Y-124640000D02*
X45460000Y-124640000D01*
D12*
X171480000Y-63505600D02*
X171480000Y-121505600D01*
X167730000Y-125005600D02*
X167980000Y-125005600D01*
D11*
X158790000Y-123020600D02*
X158790000Y-117820600D01*
X157885000Y-76115600D02*
X157885000Y-81255600D01*
X157885000Y-73515600D02*
X157885000Y-74845600D01*
X156555000Y-73515600D02*
X157885000Y-73515600D01*
X155285000Y-76115600D02*
X157885000Y-76115600D01*
X155285000Y-73515600D02*
X155285000Y-76115600D01*
X153650000Y-120420600D02*
X153650000Y-117820600D01*
X153650000Y-117820600D02*
X158790000Y-117820600D01*
X152685000Y-81255600D02*
X157885000Y-81255600D01*
X152685000Y-73515600D02*
X155285000Y-73515600D01*
X152685000Y-73515600D02*
X152685000Y-81255600D01*
X151050000Y-123020600D02*
X158790000Y-123020600D01*
X151050000Y-123020600D02*
X151050000Y-120420600D01*
X151050000Y-120420600D02*
X153650000Y-120420600D01*
X151050000Y-119150600D02*
X151050000Y-117820600D01*
X151050000Y-117820600D02*
X152380000Y-117820600D01*
X121580000Y-69645600D02*
X121580000Y-117965600D01*
X121580000Y-67045600D02*
X121580000Y-68375600D01*
X120250000Y-67045600D02*
X121580000Y-67045600D01*
X118980000Y-69645600D02*
X121580000Y-69645600D01*
X118980000Y-67045600D02*
X118980000Y-69645600D01*
D12*
X118980000Y-60005600D02*
X167980000Y-60005600D01*
X118980000Y-60005600D02*
X118480000Y-60005243D01*
X118230000Y-125005600D02*
X167730000Y-125005600D01*
D11*
X116380000Y-117965600D02*
X121580000Y-117965600D01*
X116380000Y-67045600D02*
X118980000Y-67045600D01*
X116380000Y-67045600D02*
X116380000Y-117965600D01*
D12*
X114980000Y-121505600D02*
X114980000Y-63555600D01*
X167980000Y-125005600D02*
G75*
G03*
X171480000Y-121505600I1J3499999D01*
G01*
X171480000Y-63505600D02*
G75*
G03*
X167980000Y-60005600I-3499999J1D01*
G01*
X114980000Y-121505600D02*
G75*
G03*
X118480000Y-125005600I3500000J0D01*
G01*
X118480000Y-60005243D02*
G75*
G03*
X114980000Y-63555600I0J-3500357D01*
G01*
X169631000Y-121505600D02*
G75*
G03*
X169631000Y-121505600I-1651000J0D01*
G01*
X169631000Y-63505600D02*
G75*
G03*
X169631000Y-63505600I-1651000J0D01*
G01*
X120631000Y-121505600D02*
G75*
G03*
X120631000Y-121505600I-1651000J0D01*
G01*
X120631000Y-63505600D02*
G75*
G03*
X120631000Y-63505600I-1651000J0D01*
G01*
D11*
X52450000Y-33475000D02*
X52450000Y-34725000D01*
X52160000Y-39735000D02*
X42040000Y-39735000D01*
X52160000Y-33765000D02*
X52160000Y-39735000D01*
X52150000Y-36025000D02*
X51400000Y-36025000D01*
X52150000Y-34525000D02*
X50350000Y-34525000D01*
X52150000Y-33775000D02*
X52150000Y-34525000D01*
X51400000Y-38975000D02*
X47100000Y-38975000D01*
X51400000Y-36025000D02*
X51400000Y-38975000D01*
X51200000Y-33475000D02*
X52450000Y-33475000D01*
X50350000Y-34525000D02*
X50350000Y-33775000D01*
X50350000Y-33775000D02*
X52150000Y-33775000D01*
X48850000Y-34525000D02*
X45350000Y-34525000D01*
X48850000Y-33775000D02*
X48850000Y-34525000D01*
X45350000Y-34525000D02*
X45350000Y-33775000D01*
X45350000Y-33775000D02*
X48850000Y-33775000D01*
X43850000Y-34525000D02*
X42050000Y-34525000D01*
X43850000Y-33775000D02*
X43850000Y-34525000D01*
X42800000Y-38975000D02*
X47100000Y-38975000D01*
X42800000Y-36025000D02*
X42800000Y-38975000D01*
X42050000Y-36025000D02*
X42800000Y-36025000D01*
X42050000Y-34525000D02*
X42050000Y-33775000D01*
X42050000Y-33775000D02*
X43850000Y-33775000D01*
X42040000Y-39735000D02*
X42040000Y-33765000D01*
X42040000Y-33765000D02*
X52160000Y-33765000D01*
%LPC*%
D13*
X168000000Y-121500000D03*
D14*
X125000000Y-29500000D03*
X122500000Y-29500000D03*
D15*
X120000000Y-24500000D03*
D14*
X115000000Y-29500000D03*
X117500000Y-29500000D03*
D16*
X28050000Y-50000000D03*
X28050000Y-33770000D03*
X21700000Y-50000000D03*
X21700000Y-33770000D03*
X34400000Y-50000000D03*
X34400000Y-33770000D03*
X28050000Y-111200000D03*
X28050000Y-94970000D03*
X21700000Y-111200000D03*
X21700000Y-94970000D03*
X34400000Y-111200000D03*
X34400000Y-94970000D03*
D17*
X179400000Y-30400000D03*
D18*
X179400000Y-24600000D03*
D19*
X174600000Y-27400000D03*
D20*
X178500000Y-28210000D03*
D21*
X178500000Y-23210000D03*
D22*
X29000000Y-56000000D03*
D23*
X31000000Y-56000000D03*
X29000000Y-58000000D03*
X31000000Y-58000000D03*
D16*
X28050000Y-91000000D03*
X28050000Y-74770000D03*
X21700000Y-91000000D03*
X21700000Y-74770000D03*
X34400000Y-91000000D03*
X34400000Y-74770000D03*
X181950000Y-94995000D03*
X181950000Y-111225000D03*
X188300000Y-94995000D03*
X188300000Y-111225000D03*
X175600000Y-94995000D03*
X175600000Y-111225000D03*
D24*
X129315000Y-44450000D03*
D25*
X131855000Y-44450000D03*
X134395000Y-44450000D03*
D13*
X118980000Y-121520000D03*
D22*
X181000000Y-130000000D03*
D23*
X179000000Y-130000000D03*
X181000000Y-128000000D03*
X179000000Y-128000000D03*
D26*
X80100000Y-21075000D03*
X80100000Y-22075000D03*
X80100000Y-23075000D03*
X80100000Y-24075000D03*
X80100000Y-25075000D03*
X80100000Y-26075000D03*
X80100000Y-30075000D03*
X80100000Y-31075000D03*
X80100000Y-32075000D03*
X80100000Y-33075000D03*
X80100000Y-34075000D03*
X80100000Y-35075000D03*
X80100000Y-36075000D03*
X81100000Y-36075000D03*
X82100000Y-36075000D03*
X83100000Y-36075000D03*
X84100000Y-36075000D03*
X85100000Y-36075000D03*
X86100000Y-36075000D03*
X87100000Y-36075000D03*
X88100000Y-36075000D03*
X89100000Y-36075000D03*
X90100000Y-36075000D03*
X91100000Y-36075000D03*
X92100000Y-36075000D03*
X93100000Y-36075000D03*
X94100000Y-36075000D03*
X95100000Y-36075000D03*
X96100000Y-36075000D03*
X97100000Y-36075000D03*
X98100000Y-36075000D03*
X99100000Y-36075000D03*
X100100000Y-36075000D03*
X101100000Y-36075000D03*
X102100000Y-36075000D03*
X103100000Y-36075000D03*
X104100000Y-36075000D03*
X105100000Y-36075000D03*
X106100000Y-36075000D03*
X107100000Y-36075000D03*
X108100000Y-36075000D03*
X109100000Y-36075000D03*
X110100000Y-36075000D03*
X111100000Y-36075000D03*
X112100000Y-36075000D03*
X113100000Y-36075000D03*
X114100000Y-36075000D03*
X115100000Y-36075000D03*
X116100000Y-36075000D03*
X117100000Y-36075000D03*
X118100000Y-36075000D03*
X119100000Y-36075000D03*
X120100000Y-36075000D03*
X121100000Y-36075000D03*
X122100000Y-36075000D03*
X123100000Y-36075000D03*
X124100000Y-36075000D03*
X125100000Y-36075000D03*
X126100000Y-36075000D03*
X127100000Y-36075000D03*
X128100000Y-36075000D03*
X129100000Y-36075000D03*
X130100000Y-21075000D03*
X130100000Y-22075000D03*
X130100000Y-23075000D03*
X130100000Y-24075000D03*
X130100000Y-25075000D03*
X130100000Y-26075000D03*
X130100000Y-27075000D03*
X130100000Y-28075000D03*
X130100000Y-29075000D03*
X130100000Y-30075000D03*
X130100000Y-31075000D03*
X130100000Y-32075000D03*
X130100000Y-33075000D03*
X130100000Y-34075000D03*
X130100000Y-35075000D03*
X130100000Y-36075000D03*
D22*
X31000000Y-130000000D03*
D23*
X29000000Y-130000000D03*
X31000000Y-128000000D03*
X29000000Y-128000000D03*
D22*
X106000000Y-78000000D03*
D23*
X104000000Y-78000000D03*
X106000000Y-76000000D03*
X104000000Y-76000000D03*
D27*
X81540000Y-56290000D03*
D28*
X80890000Y-55290000D03*
X80240000Y-56290000D03*
X79590000Y-55290000D03*
X78940000Y-56290000D03*
D29*
X83815000Y-56070000D03*
X76665000Y-56070000D03*
D13*
X42000000Y-23000000D03*
D16*
X181965000Y-33800000D03*
X181965000Y-50030000D03*
X188315000Y-33800000D03*
X188315000Y-50030000D03*
X175615000Y-33800000D03*
X175615000Y-50030000D03*
D13*
X168000000Y-63500000D03*
G36*
X111946312Y-33285921D02*
G01*
X111214079Y-32553688D01*
X111199200Y-32517767D01*
X111199200Y-31482233D01*
X111214079Y-31446312D01*
X111946312Y-30714079D01*
X111982233Y-30699200D01*
X113017767Y-30699200D01*
X113053688Y-30714079D01*
X113785921Y-31446312D01*
X113800800Y-31482233D01*
X113800800Y-32517767D01*
X113785921Y-32553688D01*
X113053688Y-33285921D01*
X113017767Y-33300800D01*
X111982233Y-33300800D01*
X111946312Y-33285921D01*
G37*
G36*
X121285921Y-32553688D02*
G01*
X120553688Y-33285921D01*
X120517767Y-33300800D01*
X119482233Y-33300800D01*
X119446312Y-33285921D01*
X118714079Y-32553688D01*
X118699200Y-32517767D01*
X118699200Y-31482233D01*
X118714079Y-31446312D01*
X119446312Y-30714079D01*
X119482233Y-30699200D01*
X120517767Y-30699200D01*
X120553688Y-30714079D01*
X121285921Y-31446312D01*
X121300800Y-31482233D01*
X121300800Y-32517767D01*
X121285921Y-32553688D01*
G37*
G36*
X126946312Y-33285921D02*
G01*
X126214079Y-32553688D01*
X126199200Y-32517767D01*
X126199200Y-31482233D01*
X126214079Y-31446312D01*
X126946312Y-30714079D01*
X126982233Y-30699200D01*
X128017767Y-30699200D01*
X128053688Y-30714079D01*
X128785921Y-31446312D01*
X128800800Y-31482233D01*
X128800800Y-32517767D01*
X128785921Y-32553688D01*
X128053688Y-33285921D01*
X128017767Y-33300800D01*
X126982233Y-33300800D01*
X126946312Y-33285921D01*
G37*
G36*
X114446312Y-35785921D02*
G01*
X113714079Y-35053688D01*
X113699200Y-35017767D01*
X113699200Y-33982233D01*
X113714079Y-33946312D01*
X114446312Y-33214079D01*
X114482233Y-33199200D01*
X115517767Y-33199200D01*
X115553688Y-33214079D01*
X116285921Y-33946312D01*
X116300800Y-33982233D01*
X116300800Y-35017767D01*
X116285921Y-35053688D01*
X115553688Y-35785921D01*
X115517767Y-35800800D01*
X114482233Y-35800800D01*
X114446312Y-35785921D01*
G37*
G36*
X124446312Y-35785921D02*
G01*
X123714079Y-35053688D01*
X123699200Y-35017767D01*
X123699200Y-33982233D01*
X123714079Y-33946312D01*
X124446312Y-33214079D01*
X124482233Y-33199200D01*
X125517767Y-33199200D01*
X125553688Y-33214079D01*
X126285921Y-33946312D01*
X126300800Y-33982233D01*
X126300800Y-35017767D01*
X126285921Y-35053688D01*
X125553688Y-35785921D01*
X125517767Y-35800800D01*
X124482233Y-35800800D01*
X124446312Y-35785921D01*
G37*
G36*
X121564079Y-23035921D02*
G01*
X121549200Y-23000000D01*
X121549200Y-21900000D01*
X121564079Y-21864079D01*
X122464079Y-20964079D01*
X122500000Y-20949200D01*
X123400000Y-20949200D01*
X123435921Y-20964079D01*
X123450800Y-21000000D01*
X123450800Y-23000000D01*
X123435921Y-23035921D01*
X123400000Y-23050800D01*
X121600000Y-23050800D01*
X121564079Y-23035921D01*
G37*
G36*
G01*
X125950800Y-21000000D02*
X125950800Y-23000000D01*
G75*
G02*
X125900000Y-23050800I-50800J0D01*
G01*
X124100000Y-23050800D01*
G75*
G02*
X124049200Y-23000000I0J50800D01*
G01*
X124049200Y-21000000D01*
G75*
G02*
X124100000Y-20949200I50800J0D01*
G01*
X125900000Y-20949200D01*
G75*
G02*
X125950800Y-21000000I0J-50800D01*
G01*
G37*
G36*
G01*
X115950800Y-21000000D02*
X115950800Y-23000000D01*
G75*
G02*
X115900000Y-23050800I-50800J0D01*
G01*
X114100000Y-23050800D01*
G75*
G02*
X114049200Y-23000000I0J50800D01*
G01*
X114049200Y-21000000D01*
G75*
G02*
X114100000Y-20949200I50800J0D01*
G01*
X115900000Y-20949200D01*
G75*
G02*
X115950800Y-21000000I0J-50800D01*
G01*
G37*
G36*
X116564079Y-23035921D02*
G01*
X116549200Y-23000000D01*
X116549200Y-21000000D01*
X116564079Y-20964079D01*
X116600000Y-20949200D01*
X117500000Y-20949200D01*
X117535921Y-20964079D01*
X118435921Y-21864079D01*
X118450800Y-21900000D01*
X118450800Y-23000000D01*
X118435921Y-23035921D01*
X118400000Y-23050800D01*
X116600000Y-23050800D01*
X116564079Y-23035921D01*
G37*
D30*
X60250000Y-31500000D03*
D31*
X60250000Y-36500000D03*
X60250000Y-34000000D03*
D32*
X67750000Y-28400000D03*
X67750000Y-39600000D03*
D31*
X74750000Y-36500000D03*
X74750000Y-31500000D03*
D22*
X179000000Y-56000000D03*
D23*
X181000000Y-56000000D03*
X179000000Y-58000000D03*
X181000000Y-58000000D03*
D24*
X107225000Y-81300000D03*
D25*
X104685000Y-81300000D03*
X102145000Y-81300000D03*
D16*
X181950000Y-74780000D03*
X181950000Y-91010000D03*
X188300000Y-74780000D03*
X188300000Y-91010000D03*
X175600000Y-74780000D03*
X175600000Y-91010000D03*
D22*
X104000000Y-108000000D03*
D23*
X106000000Y-108000000D03*
X104000000Y-110000000D03*
X106000000Y-110000000D03*
D13*
X118900000Y-63565600D03*
D33*
X89000000Y-111500000D03*
X89000000Y-63500000D03*
X56000000Y-111500000D03*
X56000000Y-63500000D03*
D13*
X168000000Y-23000000D03*
D30*
X135250000Y-31500000D03*
D31*
X135250000Y-36500000D03*
X135250000Y-34000000D03*
D32*
X142750000Y-28400000D03*
X142750000Y-39600000D03*
D31*
X149750000Y-36500000D03*
X149750000Y-31500000D03*
G36*
X81946312Y-33285921D02*
G01*
X81214079Y-32553688D01*
X81199200Y-32517767D01*
X81199200Y-31482233D01*
X81214079Y-31446312D01*
X81946312Y-30714079D01*
X81982233Y-30699200D01*
X83017767Y-30699200D01*
X83053688Y-30714079D01*
X83785921Y-31446312D01*
X83800800Y-31482233D01*
X83800800Y-32517767D01*
X83785921Y-32553688D01*
X83053688Y-33285921D01*
X83017767Y-33300800D01*
X81982233Y-33300800D01*
X81946312Y-33285921D01*
G37*
G36*
X91285921Y-32553688D02*
G01*
X90553688Y-33285921D01*
X90517767Y-33300800D01*
X89482233Y-33300800D01*
X89446312Y-33285921D01*
X88714079Y-32553688D01*
X88699200Y-32517767D01*
X88699200Y-31482233D01*
X88714079Y-31446312D01*
X89446312Y-30714079D01*
X89482233Y-30699200D01*
X90517767Y-30699200D01*
X90553688Y-30714079D01*
X91285921Y-31446312D01*
X91300800Y-31482233D01*
X91300800Y-32517767D01*
X91285921Y-32553688D01*
G37*
G36*
X96946312Y-33285921D02*
G01*
X96214079Y-32553688D01*
X96199200Y-32517767D01*
X96199200Y-31482233D01*
X96214079Y-31446312D01*
X96946312Y-30714079D01*
X96982233Y-30699200D01*
X98017767Y-30699200D01*
X98053688Y-30714079D01*
X98785921Y-31446312D01*
X98800800Y-31482233D01*
X98800800Y-32517767D01*
X98785921Y-32553688D01*
X98053688Y-33285921D01*
X98017767Y-33300800D01*
X96982233Y-33300800D01*
X96946312Y-33285921D01*
G37*
G36*
X84446312Y-35785921D02*
G01*
X83714079Y-35053688D01*
X83699200Y-35017767D01*
X83699200Y-33982233D01*
X83714079Y-33946312D01*
X84446312Y-33214079D01*
X84482233Y-33199200D01*
X85517767Y-33199200D01*
X85553688Y-33214079D01*
X86285921Y-33946312D01*
X86300800Y-33982233D01*
X86300800Y-35017767D01*
X86285921Y-35053688D01*
X85553688Y-35785921D01*
X85517767Y-35800800D01*
X84482233Y-35800800D01*
X84446312Y-35785921D01*
G37*
G36*
X94446312Y-35785921D02*
G01*
X93714079Y-35053688D01*
X93699200Y-35017767D01*
X93699200Y-33982233D01*
X93714079Y-33946312D01*
X94446312Y-33214079D01*
X94482233Y-33199200D01*
X95517767Y-33199200D01*
X95553688Y-33214079D01*
X96285921Y-33946312D01*
X96300800Y-33982233D01*
X96300800Y-35017767D01*
X96285921Y-35053688D01*
X95553688Y-35785921D01*
X95517767Y-35800800D01*
X94482233Y-35800800D01*
X94446312Y-35785921D01*
G37*
G36*
X91564079Y-23035921D02*
G01*
X91549200Y-23000000D01*
X91549200Y-21900000D01*
X91564079Y-21864079D01*
X92464079Y-20964079D01*
X92500000Y-20949200D01*
X93400000Y-20949200D01*
X93435921Y-20964079D01*
X93450800Y-21000000D01*
X93450800Y-23000000D01*
X93435921Y-23035921D01*
X93400000Y-23050800D01*
X91600000Y-23050800D01*
X91564079Y-23035921D01*
G37*
G36*
G01*
X95950800Y-21000000D02*
X95950800Y-23000000D01*
G75*
G02*
X95900000Y-23050800I-50800J0D01*
G01*
X94100000Y-23050800D01*
G75*
G02*
X94049200Y-23000000I0J50800D01*
G01*
X94049200Y-21000000D01*
G75*
G02*
X94100000Y-20949200I50800J0D01*
G01*
X95900000Y-20949200D01*
G75*
G02*
X95950800Y-21000000I0J-50800D01*
G01*
G37*
G36*
G01*
X85950800Y-21000000D02*
X85950800Y-23000000D01*
G75*
G02*
X85900000Y-23050800I-50800J0D01*
G01*
X84100000Y-23050800D01*
G75*
G02*
X84049200Y-23000000I0J50800D01*
G01*
X84049200Y-21000000D01*
G75*
G02*
X84100000Y-20949200I50800J0D01*
G01*
X85900000Y-20949200D01*
G75*
G02*
X85950800Y-21000000I0J-50800D01*
G01*
G37*
G36*
X86564079Y-23035921D02*
G01*
X86549200Y-23000000D01*
X86549200Y-21000000D01*
X86564079Y-20964079D01*
X86600000Y-20949200D01*
X87500000Y-20949200D01*
X87535921Y-20964079D01*
X88435921Y-21864079D01*
X88450800Y-21900000D01*
X88450800Y-23000000D01*
X88435921Y-23035921D01*
X88400000Y-23050800D01*
X86600000Y-23050800D01*
X86564079Y-23035921D01*
G37*
D14*
X94994500Y-29500000D03*
X92494500Y-29500000D03*
D15*
X89994500Y-24500000D03*
D14*
X84994500Y-29500000D03*
X87494500Y-29500000D03*
D34*
X30000000Y-119000000D03*
X105000000Y-67000000D03*
X30000000Y-67000000D03*
X180000000Y-67000000D03*
X105000000Y-119000000D03*
G36*
G01*
X50450000Y-27750000D02*
X50450000Y-29200000D01*
G75*
G02*
X50200000Y-29450000I-250000J0D01*
G01*
X49000000Y-29450000D01*
G75*
G02*
X48750000Y-29200000I0J250000D01*
G01*
X48750000Y-27750000D01*
G75*
G02*
X49000000Y-27500000I250000J0D01*
G01*
X50200000Y-27500000D01*
G75*
G02*
X50450000Y-27750000I0J-250000D01*
G01*
G37*
D35*
X47100000Y-28475000D03*
X44600000Y-28475000D03*
G36*
G01*
X43750000Y-126375000D02*
X43750000Y-127825000D01*
G75*
G02*
X43500000Y-128075000I-250000J0D01*
G01*
X42300000Y-128075000D01*
G75*
G02*
X42050000Y-127825000I0J250000D01*
G01*
X42050000Y-126375000D01*
G75*
G02*
X42300000Y-126125000I250000J0D01*
G01*
X43500000Y-126125000D01*
G75*
G02*
X43750000Y-126375000I0J-250000D01*
G01*
G37*
X40400000Y-127100000D03*
X37900000Y-127100000D03*
D34*
X180000000Y-119000000D03*
D24*
X120250000Y-68375600D03*
D25*
X117710000Y-68375600D03*
X120250000Y-70915600D03*
X117710000Y-70915600D03*
X120250000Y-73455600D03*
X117710000Y-73455600D03*
X120250000Y-75995600D03*
X117710000Y-75995600D03*
X120250000Y-78535600D03*
X117710000Y-78535600D03*
X120250000Y-81075600D03*
X117710000Y-81075600D03*
X120250000Y-83615600D03*
X117710000Y-83615600D03*
X120250000Y-86155600D03*
X117710000Y-86155600D03*
X120250000Y-88695600D03*
X117710000Y-88695600D03*
X120250000Y-91235600D03*
X117710000Y-91235600D03*
X120250000Y-93775600D03*
X117710000Y-93775600D03*
X120250000Y-96315600D03*
X117710000Y-96315600D03*
X120250000Y-98855600D03*
X117710000Y-98855600D03*
X120250000Y-101395600D03*
X117710000Y-101395600D03*
X120250000Y-103935600D03*
X117710000Y-103935600D03*
X120250000Y-106475600D03*
X117710000Y-106475600D03*
X120250000Y-109015600D03*
X117710000Y-109015600D03*
X120250000Y-111555600D03*
X117710000Y-111555600D03*
X120250000Y-114095600D03*
X117710000Y-114095600D03*
X120250000Y-116635600D03*
X117710000Y-116635600D03*
D24*
X156555000Y-74845600D03*
D25*
X154015000Y-74845600D03*
X156555000Y-77385600D03*
X154015000Y-77385600D03*
X156555000Y-79925600D03*
X154015000Y-79925600D03*
D24*
X152380000Y-119150600D03*
D25*
X152380000Y-121690600D03*
X154920000Y-119150600D03*
X154920000Y-121690600D03*
X157460000Y-119150600D03*
X157460000Y-121690600D03*
G36*
G01*
X50450000Y-35500000D02*
X50450000Y-36950000D01*
G75*
G02*
X50200000Y-37200000I-250000J0D01*
G01*
X49000000Y-37200000D01*
G75*
G02*
X48750000Y-36950000I0J250000D01*
G01*
X48750000Y-35500000D01*
G75*
G02*
X49000000Y-35250000I250000J0D01*
G01*
X50200000Y-35250000D01*
G75*
G02*
X50450000Y-35500000I0J-250000D01*
G01*
G37*
D35*
X47100000Y-36225000D03*
X44600000Y-36225000D03*
%LPD*%
M02*
