G04 #@! TF.GenerationSoftware,KiCad,Pcbnew,7.0.7-7.0.7~ubuntu23.04.1*
G04 #@! TF.CreationDate,2023-09-10T23:30:33+00:00*
G04 #@! TF.ProjectId,pedalboard-hw,70656461-6c62-46f6-9172-642d68772e6b,3.0.0-RC1*
G04 #@! TF.SameCoordinates,Original*
G04 #@! TF.FileFunction,Profile,NP*
%FSLAX46Y46*%
G04 Gerber Fmt 4.6, Leading zero omitted, Abs format (unit mm)*
G04 Created by KiCad (PCBNEW 7.0.7-7.0.7~ubuntu23.04.1) date 2023-09-10 23:30:33*
%MOMM*%
%LPD*%
G01*
G04 APERTURE LIST*
G04 #@! TA.AperFunction,Profile*
%ADD10C,0.100000*%
G04 #@! TD*
G04 APERTURE END LIST*
D10*
X118200000Y-20000000D02*
X189000000Y-20000000D01*
X20000000Y-124000000D02*
X19957107Y-21000000D01*
X21000000Y-125000000D02*
X189000000Y-125000000D01*
X20957107Y-20000007D02*
G75*
G03*
X19957107Y-21000000I-7J-999993D01*
G01*
X113800000Y-21000000D02*
G75*
G03*
X114200000Y-21400000I400000J0D01*
G01*
X20000000Y-124000000D02*
G75*
G03*
X21000000Y-125000000I1000000J0D01*
G01*
X91800000Y-21000000D02*
G75*
G03*
X92200000Y-21400000I400000J0D01*
G01*
X114200000Y-21400000D02*
X117800000Y-21400000D01*
X190000000Y-21000000D02*
X190000000Y-124000000D01*
X113800000Y-20000000D02*
X113800000Y-21000000D01*
X96200000Y-21000000D02*
X96200000Y-20000000D01*
X96200000Y-20000000D02*
X113800000Y-20000000D01*
X190000000Y-21000000D02*
G75*
G03*
X189000000Y-20000000I-1000000J0D01*
G01*
X95800000Y-21400000D02*
G75*
G03*
X96200000Y-21000000I0J400000D01*
G01*
X91800000Y-20000000D02*
X91800000Y-21000000D01*
X92200000Y-21400000D02*
X95800000Y-21400000D01*
X91800000Y-20000000D02*
X20957107Y-20000000D01*
X189000000Y-125000000D02*
G75*
G03*
X190000000Y-124000000I0J1000000D01*
G01*
X117799998Y-21400000D02*
G75*
G03*
X118200000Y-21000000I2J400000D01*
G01*
X118200000Y-21000000D02*
X118200000Y-20000000D01*
M02*
