<?xml version="1.0" standalone="no"?>
 <!DOCTYPE svg PUBLIC "-//W3C//DTD SVG 1.1//EN" 
 "http://www.w3.org/Graphics/SVG/1.1/DTD/svg11.dtd"> 
<svg
  xmlns:svg="http://www.w3.org/2000/svg"
  xmlns="http://www.w3.org/2000/svg"
  xmlns:xlink="http://www.w3.org/1999/xlink"
  version="1.1"
  width="297.0022mm" height="210.0072mm" viewBox="0.0000 0.0000 297.0022 210.0072">
<title>SVG Image created as pedalboard-hw-User_Comments.svg date 2023/10/13 09:27:02 </title>
  <desc>Image generated by PCBNEW </desc>
<g style="fill:#000000; fill-opacity:1.0000;stroke:#000000; stroke-opacity:1.0000;
stroke-linecap:round; stroke-linejoin:round;"
 transform="translate(0 0) scale(1 1)">
</g>
<g style="fill:#000000; fill-opacity:0.0; 
stroke:#000000; stroke-width:0.0000; stroke-opacity:1; 
stroke-linecap:round; stroke-linejoin:round;">
</g>
<g style="fill:#000000; fill-opacity:0.0; 
stroke:#000000; stroke-width:0.1500; stroke-opacity:1; 
stroke-linecap:round; stroke-linejoin:round;">
<g transform="rotate(-45.000000 217.2762 36.5460)">
<text x="217.2762" y="36.9460"
textLength="3.4138" font-size="1.0667" lengthAdjust="spacingAndGlyphs"
text-anchor="middle" opacity="0">GP16</text>
</g>
<g class="stroked-text"><desc>GP16</desc>
<path d="M218.2322 36.9369
L218.3130 36.9638
" />
<path d="M218.3130 36.9638
L218.3938 37.0446
" />
<path d="M218.3938 37.0446
L218.4477 37.1524
" />
<path d="M218.4477 37.1524
L218.4477 37.2601
" />
<path d="M218.4477 37.2601
L218.4208 37.3409
" />
<path d="M218.4208 37.3409
L218.3400 37.4756
" />
<path d="M218.3400 37.4756
L218.2591 37.5564
" />
<path d="M218.2591 37.5564
L218.1245 37.6372
" />
<path d="M218.1245 37.6372
L218.0436 37.6642
" />
<path d="M218.0436 37.6642
L217.9359 37.6642
" />
<path d="M217.9359 37.6642
L217.8281 37.6103
" />
<path d="M217.8281 37.6103
L217.7743 37.5564
" />
<path d="M217.7743 37.5564
L217.7204 37.4487
" />
<path d="M217.7204 37.4487
L217.7204 37.3948
" />
<path d="M217.7204 37.3948
L217.9090 37.2062
" />
<path d="M217.9090 37.2062
L218.0167 37.3140
" />
<path d="M217.4241 37.2062
L217.9898 36.6406
" />
<path d="M217.9898 36.6406
L217.7743 36.4251
" />
<path d="M217.7743 36.4251
L217.6935 36.3981
" />
<path d="M217.6935 36.3981
L217.6396 36.3981
" />
<path d="M217.6396 36.3981
L217.5588 36.4251
" />
<path d="M217.5588 36.4251
L217.4780 36.5059
" />
<path d="M217.4780 36.5059
L217.4510 36.5867
" />
<path d="M217.4510 36.5867
L217.4510 36.6406
" />
<path d="M217.4510 36.6406
L217.4780 36.7214
" />
<path d="M217.4780 36.7214
L217.6935 36.9369
" />
<path d="M216.5621 36.3442
L216.8853 36.6675
" />
<path d="M216.7237 36.5059
L217.2894 35.9402
" />
<path d="M217.2894 35.9402
L217.2625 36.0749
" />
<path d="M217.2625 36.0749
L217.2625 36.1826
" />
<path d="M217.2625 36.1826
L217.2894 36.2634
" />
<path d="M216.6429 35.2937
L216.7506 35.4014
" />
<path d="M216.7506 35.4014
L216.7776 35.4822
" />
<path d="M216.7776 35.4822
L216.7776 35.5361
" />
<path d="M216.7776 35.5361
L216.7506 35.6708
" />
<path d="M216.7506 35.6708
L216.6698 35.8055
" />
<path d="M216.6698 35.8055
L216.4543 36.0210
" />
<path d="M216.4543 36.0210
L216.3735 36.0479
" />
<path d="M216.3735 36.0479
L216.3196 36.0479
" />
<path d="M216.3196 36.0479
L216.2388 36.0210
" />
<path d="M216.2388 36.0210
L216.1311 35.9132
" />
<path d="M216.1311 35.9132
L216.1041 35.8324
" />
<path d="M216.1041 35.8324
L216.1041 35.7786
" />
<path d="M216.1041 35.7786
L216.1311 35.6977
" />
<path d="M216.1311 35.6977
L216.2658 35.5631
" />
<path d="M216.2658 35.5631
L216.3466 35.5361
" />
<path d="M216.3466 35.5361
L216.4005 35.5361
" />
<path d="M216.4005 35.5361
L216.4813 35.5631
" />
<path d="M216.4813 35.5631
L216.5890 35.6708
" />
<path d="M216.5890 35.6708
L216.6160 35.7516
" />
<path d="M216.6160 35.7516
L216.6160 35.8055
" />
<path d="M216.6160 35.8055
L216.5890 35.8863
" />
</g><g transform="rotate(-45.000000 175.2522 61.3460)">
<text x="175.2522" y="61.7460"
textLength="2.7281" font-size="1.0667" lengthAdjust="spacingAndGlyphs"
text-anchor="middle" opacity="0">GND</text>
</g>
<g class="stroked-text"><desc>GND</desc>
<path d="M175.9658 61.4944
L176.0466 61.5214
" />
<path d="M176.0466 61.5214
L176.1274 61.6022
" />
<path d="M176.1274 61.6022
L176.1813 61.7099
" />
<path d="M176.1813 61.7099
L176.1813 61.8177
" />
<path d="M176.1813 61.8177
L176.1543 61.8985
" />
<path d="M176.1543 61.8985
L176.0735 62.0332
" />
<path d="M176.0735 62.0332
L175.9927 62.1140
" />
<path d="M175.9927 62.1140
L175.8580 62.1948
" />
<path d="M175.8580 62.1948
L175.7772 62.2217
" />
<path d="M175.7772 62.2217
L175.6695 62.2217
" />
<path d="M175.6695 62.2217
L175.5617 62.1679
" />
<path d="M175.5617 62.1679
L175.5078 62.1140
" />
<path d="M175.5078 62.1140
L175.4540 62.0062
" />
<path d="M175.4540 62.0062
L175.4540 61.9524
" />
<path d="M175.4540 61.9524
L175.6425 61.7638
" />
<path d="M175.6425 61.7638
L175.7503 61.8716
" />
<path d="M175.1576 61.7638
L175.7233 61.1981
" />
<path d="M175.7233 61.1981
L174.8344 61.4406
" />
<path d="M174.8344 61.4406
L175.4001 60.8749
" />
<path d="M174.5650 61.1712
L175.1307 60.6055
" />
<path d="M175.1307 60.6055
L174.9960 60.4708
" />
<path d="M174.9960 60.4708
L174.8883 60.4169
" />
<path d="M174.8883 60.4169
L174.7805 60.4169
" />
<path d="M174.7805 60.4169
L174.6997 60.4439
" />
<path d="M174.6997 60.4439
L174.5650 60.5247
" />
<path d="M174.5650 60.5247
L174.4842 60.6055
" />
<path d="M174.4842 60.6055
L174.4034 60.7402
" />
<path d="M174.4034 60.7402
L174.3765 60.8210
" />
<path d="M174.3765 60.8210
L174.3765 60.9287
" />
<path d="M174.3765 60.9287
L174.4303 61.0365
" />
<path d="M174.4303 61.0365
L174.5650 61.1712
" />
</g><g transform="rotate(-45.000000 213.3522 61.3460)">
<text x="213.3522" y="61.7460"
textLength="2.7281" font-size="1.0667" lengthAdjust="spacingAndGlyphs"
text-anchor="middle" opacity="0">GND</text>
</g>
<g class="stroked-text"><desc>GND</desc>
<path d="M214.0658 61.4944
L214.1466 61.5214
" />
<path d="M214.1466 61.5214
L214.2274 61.6022
" />
<path d="M214.2274 61.6022
L214.2813 61.7099
" />
<path d="M214.2813 61.7099
L214.2813 61.8177
" />
<path d="M214.2813 61.8177
L214.2543 61.8985
" />
<path d="M214.2543 61.8985
L214.1735 62.0332
" />
<path d="M214.1735 62.0332
L214.0927 62.1140
" />
<path d="M214.0927 62.1140
L213.9580 62.1948
" />
<path d="M213.9580 62.1948
L213.8772 62.2217
" />
<path d="M213.8772 62.2217
L213.7695 62.2217
" />
<path d="M213.7695 62.2217
L213.6617 62.1679
" />
<path d="M213.6617 62.1679
L213.6078 62.1140
" />
<path d="M213.6078 62.1140
L213.5540 62.0062
" />
<path d="M213.5540 62.0062
L213.5540 61.9524
" />
<path d="M213.5540 61.9524
L213.7425 61.7638
" />
<path d="M213.7425 61.7638
L213.8503 61.8716
" />
<path d="M213.2576 61.7638
L213.8233 61.1981
" />
<path d="M213.8233 61.1981
L212.9344 61.4406
" />
<path d="M212.9344 61.4406
L213.5001 60.8749
" />
<path d="M212.6650 61.1712
L213.2307 60.6055
" />
<path d="M213.2307 60.6055
L213.0960 60.4708
" />
<path d="M213.0960 60.4708
L212.9883 60.4169
" />
<path d="M212.9883 60.4169
L212.8805 60.4169
" />
<path d="M212.8805 60.4169
L212.7997 60.4439
" />
<path d="M212.7997 60.4439
L212.6650 60.5247
" />
<path d="M212.6650 60.5247
L212.5842 60.6055
" />
<path d="M212.5842 60.6055
L212.5034 60.7402
" />
<path d="M212.5034 60.7402
L212.4765 60.8210
" />
<path d="M212.4765 60.8210
L212.4765 60.9287
" />
<path d="M212.4765 60.9287
L212.5303 61.0365
" />
<path d="M212.5303 61.0365
L212.6650 61.1712
" />
</g><g transform="rotate(-45.000000 175.9462 35.9000)">
<text x="175.9462" y="36.3000"
textLength="4.6710" font-size="1.0667" lengthAdjust="spacingAndGlyphs"
text-anchor="middle" opacity="0">3V3_EN</text>
</g>
<g class="stroked-text"><desc>3V3_EN</desc>
<path d="M177.7238 37.0586
L177.3736 36.7084
" />
<path d="M177.3736 36.7084
L177.3467 37.1125
" />
<path d="M177.3467 37.1125
L177.2659 37.0316
" />
<path d="M177.2659 37.0316
L177.1850 37.0047
" />
<path d="M177.1850 37.0047
L177.1312 37.0047
" />
<path d="M177.1312 37.0047
L177.0504 37.0316
" />
<path d="M177.0504 37.0316
L176.9157 37.1663
" />
<path d="M176.9157 37.1663
L176.8887 37.2471
" />
<path d="M176.8887 37.2471
L176.8887 37.3010
" />
<path d="M176.8887 37.3010
L176.9157 37.3818
" />
<path d="M176.9157 37.3818
L177.0773 37.5435
" />
<path d="M177.0773 37.5435
L177.1581 37.5704
" />
<path d="M177.1581 37.5704
L177.2120 37.5704
" />
<path d="M177.2120 36.5468
L176.4577 36.9239
" />
<path d="M176.4577 36.9239
L176.8349 36.1696
" />
<path d="M176.7002 36.0350
L176.3500 35.6848
" />
<path d="M176.3500 35.6848
L176.3230 36.0888
" />
<path d="M176.3230 36.0888
L176.2422 36.0080
" />
<path d="M176.2422 36.0080
L176.1614 35.9811
" />
<path d="M176.1614 35.9811
L176.1075 35.9811
" />
<path d="M176.1075 35.9811
L176.0267 36.0080
" />
<path d="M176.0267 36.0080
L175.8920 36.1427
" />
<path d="M175.8920 36.1427
L175.8651 36.2235
" />
<path d="M175.8651 36.2235
L175.8651 36.2774
" />
<path d="M175.8651 36.2774
L175.8920 36.3582
" />
<path d="M175.8920 36.3582
L176.0537 36.5198
" />
<path d="M176.0537 36.5198
L176.1345 36.5468
" />
<path d="M176.1345 36.5468
L176.1884 36.5468
" />
<path d="M175.6227 36.1966
L175.1917 35.7656
" />
<path d="M175.4072 35.2807
L175.2186 35.0922
" />
<path d="M174.8415 35.3077
L175.1109 35.5770
" />
<path d="M175.1109 35.5770
L175.6765 35.0113
" />
<path d="M175.6765 35.0113
L175.4072 34.7420
" />
<path d="M174.5991 35.0652
L175.1647 34.4995
" />
<path d="M175.1647 34.4995
L174.2758 34.7420
" />
<path d="M174.2758 34.7420
L174.8415 34.1763
" />
</g><g transform="rotate(-45.000000 202.0462 36.5460)">
<text x="202.0462" y="36.9460"
textLength="3.4138" font-size="1.0667" lengthAdjust="spacingAndGlyphs"
text-anchor="middle" opacity="0">GP21</text>
</g>
<g class="stroked-text"><desc>GP21</desc>
<path d="M203.0022 36.9369
L203.0830 36.9638
" />
<path d="M203.0830 36.9638
L203.1638 37.0446
" />
<path d="M203.1638 37.0446
L203.2177 37.1524
" />
<path d="M203.2177 37.1524
L203.2177 37.2601
" />
<path d="M203.2177 37.2601
L203.1908 37.3409
" />
<path d="M203.1908 37.3409
L203.1100 37.4756
" />
<path d="M203.1100 37.4756
L203.0291 37.5564
" />
<path d="M203.0291 37.5564
L202.8945 37.6372
" />
<path d="M202.8945 37.6372
L202.8136 37.6642
" />
<path d="M202.8136 37.6642
L202.7059 37.6642
" />
<path d="M202.7059 37.6642
L202.5981 37.6103
" />
<path d="M202.5981 37.6103
L202.5443 37.5564
" />
<path d="M202.5443 37.5564
L202.4904 37.4487
" />
<path d="M202.4904 37.4487
L202.4904 37.3948
" />
<path d="M202.4904 37.3948
L202.6790 37.2062
" />
<path d="M202.6790 37.2062
L202.7867 37.3140
" />
<path d="M202.1941 37.2062
L202.7598 36.6406
" />
<path d="M202.7598 36.6406
L202.5443 36.4251
" />
<path d="M202.5443 36.4251
L202.4635 36.3981
" />
<path d="M202.4635 36.3981
L202.4096 36.3981
" />
<path d="M202.4096 36.3981
L202.3288 36.4251
" />
<path d="M202.3288 36.4251
L202.2480 36.5059
" />
<path d="M202.2480 36.5059
L202.2210 36.5867
" />
<path d="M202.2210 36.5867
L202.2210 36.6406
" />
<path d="M202.2210 36.6406
L202.2480 36.7214
" />
<path d="M202.2480 36.7214
L202.4635 36.9369
" />
<path d="M202.1671 36.1557
L202.1671 36.1018
" />
<path d="M202.1671 36.1018
L202.1402 36.0210
" />
<path d="M202.1402 36.0210
L202.0055 35.8863
" />
<path d="M202.0055 35.8863
L201.9247 35.8594
" />
<path d="M201.9247 35.8594
L201.8708 35.8594
" />
<path d="M201.8708 35.8594
L201.7900 35.8863
" />
<path d="M201.7900 35.8863
L201.7361 35.9402
" />
<path d="M201.7361 35.9402
L201.6823 36.0479
" />
<path d="M201.6823 36.0479
L201.6823 36.6944
" />
<path d="M201.6823 36.6944
L201.3321 36.3442
" />
<path d="M200.7933 35.8055
L201.1166 36.1287
" />
<path d="M200.9550 35.9671
L201.5206 35.4014
" />
<path d="M201.5206 35.4014
L201.4937 35.5361
" />
<path d="M201.4937 35.5361
L201.4937 35.6439
" />
<path d="M201.4937 35.6439
L201.5206 35.7247
" />
</g><g transform="rotate(-45.000000 174.0962 36.8000)">
<text x="174.0962" y="37.2000"
textLength="2.7281" font-size="1.0667" lengthAdjust="spacingAndGlyphs"
text-anchor="middle" opacity="0">GND</text>
</g>
<g class="stroked-text"><desc>GND</desc>
<path d="M174.8098 36.9484
L174.8906 36.9754
" />
<path d="M174.8906 36.9754
L174.9714 37.0562
" />
<path d="M174.9714 37.0562
L175.0253 37.1639
" />
<path d="M175.0253 37.1639
L175.0253 37.2717
" />
<path d="M175.0253 37.2717
L174.9983 37.3525
" />
<path d="M174.9983 37.3525
L174.9175 37.4872
" />
<path d="M174.9175 37.4872
L174.8367 37.5680
" />
<path d="M174.8367 37.5680
L174.7020 37.6488
" />
<path d="M174.7020 37.6488
L174.6212 37.6757
" />
<path d="M174.6212 37.6757
L174.5135 37.6757
" />
<path d="M174.5135 37.6757
L174.4057 37.6219
" />
<path d="M174.4057 37.6219
L174.3518 37.5680
" />
<path d="M174.3518 37.5680
L174.2980 37.4602
" />
<path d="M174.2980 37.4602
L174.2980 37.4064
" />
<path d="M174.2980 37.4064
L174.4865 37.2178
" />
<path d="M174.4865 37.2178
L174.5943 37.3256
" />
<path d="M174.0016 37.2178
L174.5673 36.6521
" />
<path d="M174.5673 36.6521
L173.6784 36.8946
" />
<path d="M173.6784 36.8946
L174.2441 36.3289
" />
<path d="M173.4090 36.6252
L173.9747 36.0595
" />
<path d="M173.9747 36.0595
L173.8400 35.9248
" />
<path d="M173.8400 35.9248
L173.7323 35.8709
" />
<path d="M173.7323 35.8709
L173.6245 35.8709
" />
<path d="M173.6245 35.8709
L173.5437 35.8979
" />
<path d="M173.5437 35.8979
L173.4090 35.9787
" />
<path d="M173.4090 35.9787
L173.3282 36.0595
" />
<path d="M173.3282 36.0595
L173.2474 36.1942
" />
<path d="M173.2474 36.1942
L173.2205 36.2750
" />
<path d="M173.2205 36.2750
L173.2205 36.3827
" />
<path d="M173.2205 36.3827
L173.2743 36.4905
" />
<path d="M173.2743 36.4905
L173.4090 36.6252
" />
</g><g transform="rotate(-45.000000 199.4962 36.8000)">
<text x="199.4962" y="37.2000"
textLength="2.7281" font-size="1.0667" lengthAdjust="spacingAndGlyphs"
text-anchor="middle" opacity="0">GND</text>
</g>
<g class="stroked-text"><desc>GND</desc>
<path d="M200.2098 36.9484
L200.2906 36.9754
" />
<path d="M200.2906 36.9754
L200.3714 37.0562
" />
<path d="M200.3714 37.0562
L200.4253 37.1639
" />
<path d="M200.4253 37.1639
L200.4253 37.2717
" />
<path d="M200.4253 37.2717
L200.3983 37.3525
" />
<path d="M200.3983 37.3525
L200.3175 37.4872
" />
<path d="M200.3175 37.4872
L200.2367 37.5680
" />
<path d="M200.2367 37.5680
L200.1020 37.6488
" />
<path d="M200.1020 37.6488
L200.0212 37.6757
" />
<path d="M200.0212 37.6757
L199.9135 37.6757
" />
<path d="M199.9135 37.6757
L199.8057 37.6219
" />
<path d="M199.8057 37.6219
L199.7518 37.5680
" />
<path d="M199.7518 37.5680
L199.6980 37.4602
" />
<path d="M199.6980 37.4602
L199.6980 37.4064
" />
<path d="M199.6980 37.4064
L199.8865 37.2178
" />
<path d="M199.8865 37.2178
L199.9943 37.3256
" />
<path d="M199.4016 37.2178
L199.9673 36.6521
" />
<path d="M199.9673 36.6521
L199.0784 36.8946
" />
<path d="M199.0784 36.8946
L199.6441 36.3289
" />
<path d="M198.8090 36.6252
L199.3747 36.0595
" />
<path d="M199.3747 36.0595
L199.2400 35.9248
" />
<path d="M199.2400 35.9248
L199.1323 35.8709
" />
<path d="M199.1323 35.8709
L199.0245 35.8709
" />
<path d="M199.0245 35.8709
L198.9437 35.8979
" />
<path d="M198.9437 35.8979
L198.8090 35.9787
" />
<path d="M198.8090 35.9787
L198.7282 36.0595
" />
<path d="M198.7282 36.0595
L198.6474 36.1942
" />
<path d="M198.6474 36.1942
L198.6205 36.2750
" />
<path d="M198.6205 36.2750
L198.6205 36.3827
" />
<path d="M198.6205 36.3827
L198.6743 36.4905
" />
<path d="M198.6743 36.4905
L198.8090 36.6252
" />
</g><g transform="rotate(-45.000000 205.7322 61.7460)">
<text x="205.7322" y="62.1460"
textLength="3.4138" font-size="1.0667" lengthAdjust="spacingAndGlyphs"
text-anchor="middle" opacity="0">GP11</text>
</g>
<g class="stroked-text"><desc>GP11</desc>
<path d="M206.6882 62.1369
L206.7690 62.1638
" />
<path d="M206.7690 62.1638
L206.8498 62.2446
" />
<path d="M206.8498 62.2446
L206.9037 62.3524
" />
<path d="M206.9037 62.3524
L206.9037 62.4601
" />
<path d="M206.9037 62.4601
L206.8768 62.5409
" />
<path d="M206.8768 62.5409
L206.7960 62.6756
" />
<path d="M206.7960 62.6756
L206.7151 62.7564
" />
<path d="M206.7151 62.7564
L206.5805 62.8372
" />
<path d="M206.5805 62.8372
L206.4996 62.8642
" />
<path d="M206.4996 62.8642
L206.3919 62.8642
" />
<path d="M206.3919 62.8642
L206.2841 62.8103
" />
<path d="M206.2841 62.8103
L206.2303 62.7564
" />
<path d="M206.2303 62.7564
L206.1764 62.6487
" />
<path d="M206.1764 62.6487
L206.1764 62.5948
" />
<path d="M206.1764 62.5948
L206.3650 62.4062
" />
<path d="M206.3650 62.4062
L206.4727 62.5140
" />
<path d="M205.8801 62.4062
L206.4458 61.8406
" />
<path d="M206.4458 61.8406
L206.2303 61.6251
" />
<path d="M206.2303 61.6251
L206.1495 61.5981
" />
<path d="M206.1495 61.5981
L206.0956 61.5981
" />
<path d="M206.0956 61.5981
L206.0148 61.6251
" />
<path d="M206.0148 61.6251
L205.9340 61.7059
" />
<path d="M205.9340 61.7059
L205.9070 61.7867
" />
<path d="M205.9070 61.7867
L205.9070 61.8406
" />
<path d="M205.9070 61.8406
L205.9340 61.9214
" />
<path d="M205.9340 61.9214
L206.1495 62.1369
" />
<path d="M205.0181 61.5442
L205.3413 61.8675
" />
<path d="M205.1797 61.7059
L205.7454 61.1402
" />
<path d="M205.7454 61.1402
L205.7185 61.2749
" />
<path d="M205.7185 61.2749
L205.7185 61.3826
" />
<path d="M205.7185 61.3826
L205.7454 61.4634
" />
<path d="M204.4793 61.0055
L204.8026 61.3287
" />
<path d="M204.6410 61.1671
L205.2066 60.6014
" />
<path d="M205.2066 60.6014
L205.1797 60.7361
" />
<path d="M205.1797 60.7361
L205.1797 60.8439
" />
<path d="M205.1797 60.8439
L205.2066 60.9247
" />
</g><g transform="rotate(-45.000000 204.5762 36.5460)">
<text x="204.5762" y="36.9460"
textLength="3.4138" font-size="1.0667" lengthAdjust="spacingAndGlyphs"
text-anchor="middle" opacity="0">GP20</text>
</g>
<g class="stroked-text"><desc>GP20</desc>
<path d="M205.5322 36.9369
L205.6130 36.9638
" />
<path d="M205.6130 36.9638
L205.6938 37.0446
" />
<path d="M205.6938 37.0446
L205.7477 37.1524
" />
<path d="M205.7477 37.1524
L205.7477 37.2601
" />
<path d="M205.7477 37.2601
L205.7208 37.3409
" />
<path d="M205.7208 37.3409
L205.6400 37.4756
" />
<path d="M205.6400 37.4756
L205.5591 37.5564
" />
<path d="M205.5591 37.5564
L205.4245 37.6372
" />
<path d="M205.4245 37.6372
L205.3436 37.6642
" />
<path d="M205.3436 37.6642
L205.2359 37.6642
" />
<path d="M205.2359 37.6642
L205.1281 37.6103
" />
<path d="M205.1281 37.6103
L205.0743 37.5564
" />
<path d="M205.0743 37.5564
L205.0204 37.4487
" />
<path d="M205.0204 37.4487
L205.0204 37.3948
" />
<path d="M205.0204 37.3948
L205.2090 37.2062
" />
<path d="M205.2090 37.2062
L205.3167 37.3140
" />
<path d="M204.7241 37.2062
L205.2898 36.6406
" />
<path d="M205.2898 36.6406
L205.0743 36.4251
" />
<path d="M205.0743 36.4251
L204.9935 36.3981
" />
<path d="M204.9935 36.3981
L204.9396 36.3981
" />
<path d="M204.9396 36.3981
L204.8588 36.4251
" />
<path d="M204.8588 36.4251
L204.7780 36.5059
" />
<path d="M204.7780 36.5059
L204.7510 36.5867
" />
<path d="M204.7510 36.5867
L204.7510 36.6406
" />
<path d="M204.7510 36.6406
L204.7780 36.7214
" />
<path d="M204.7780 36.7214
L204.9935 36.9369
" />
<path d="M204.6971 36.1557
L204.6971 36.1018
" />
<path d="M204.6971 36.1018
L204.6702 36.0210
" />
<path d="M204.6702 36.0210
L204.5355 35.8863
" />
<path d="M204.5355 35.8863
L204.4547 35.8594
" />
<path d="M204.4547 35.8594
L204.4008 35.8594
" />
<path d="M204.4008 35.8594
L204.3200 35.8863
" />
<path d="M204.3200 35.8863
L204.2661 35.9402
" />
<path d="M204.2661 35.9402
L204.2123 36.0479
" />
<path d="M204.2123 36.0479
L204.2123 36.6944
" />
<path d="M204.2123 36.6944
L203.8621 36.3442
" />
<path d="M204.0776 35.4284
L204.0237 35.3745
" />
<path d="M204.0237 35.3745
L203.9429 35.3476
" />
<path d="M203.9429 35.3476
L203.8890 35.3476
" />
<path d="M203.8890 35.3476
L203.8082 35.3745
" />
<path d="M203.8082 35.3745
L203.6735 35.4553
" />
<path d="M203.6735 35.4553
L203.5388 35.5900
" />
<path d="M203.5388 35.5900
L203.4580 35.7247
" />
<path d="M203.4580 35.7247
L203.4311 35.8055
" />
<path d="M203.4311 35.8055
L203.4311 35.8594
" />
<path d="M203.4311 35.8594
L203.4580 35.9402
" />
<path d="M203.4580 35.9402
L203.5119 35.9941
" />
<path d="M203.5119 35.9941
L203.5927 36.0210
" />
<path d="M203.5927 36.0210
L203.6466 36.0210
" />
<path d="M203.6466 36.0210
L203.7274 35.9941
" />
<path d="M203.7274 35.9941
L203.8621 35.9132
" />
<path d="M203.8621 35.9132
L203.9968 35.7786
" />
<path d="M203.9968 35.7786
L204.0776 35.6439
" />
<path d="M204.0776 35.6439
L204.1045 35.5631
" />
<path d="M204.1045 35.5631
L204.1045 35.5092
" />
<path d="M204.1045 35.5092
L204.0776 35.4284
" />
</g><g transform="rotate(-45.000000 198.1122 61.3460)">
<text x="198.1122" y="61.7460"
textLength="2.6519" font-size="1.0667" lengthAdjust="spacingAndGlyphs"
text-anchor="middle" opacity="0">GP9</text>
</g>
<g class="stroked-text"><desc>GP9</desc>
<path d="M198.7988 61.4675
L198.8796 61.4944
" />
<path d="M198.8796 61.4944
L198.9605 61.5752
" />
<path d="M198.9605 61.5752
L199.0143 61.6830
" />
<path d="M199.0143 61.6830
L199.0143 61.7907
" />
<path d="M199.0143 61.7907
L198.9874 61.8716
" />
<path d="M198.9874 61.8716
L198.9066 62.0062
" />
<path d="M198.9066 62.0062
L198.8258 62.0871
" />
<path d="M198.8258 62.0871
L198.6911 62.1679
" />
<path d="M198.6911 62.1679
L198.6103 62.1948
" />
<path d="M198.6103 62.1948
L198.5025 62.1948
" />
<path d="M198.5025 62.1948
L198.3948 62.1409
" />
<path d="M198.3948 62.1409
L198.3409 62.0871
" />
<path d="M198.3409 62.0871
L198.2870 61.9793
" />
<path d="M198.2870 61.9793
L198.2870 61.9254
" />
<path d="M198.2870 61.9254
L198.4756 61.7369
" />
<path d="M198.4756 61.7369
L198.5833 61.8446
" />
<path d="M197.9907 61.7369
L198.5564 61.1712
" />
<path d="M198.5564 61.1712
L198.3409 60.9557
" />
<path d="M198.3409 60.9557
L198.2601 60.9287
" />
<path d="M198.2601 60.9287
L198.2062 60.9287
" />
<path d="M198.2062 60.9287
L198.1254 60.9557
" />
<path d="M198.1254 60.9557
L198.0446 61.0365
" />
<path d="M198.0446 61.0365
L198.0176 61.1173
" />
<path d="M198.0176 61.1173
L198.0176 61.1712
" />
<path d="M198.0176 61.1712
L198.0446 61.2520
" />
<path d="M198.0446 61.2520
L198.2601 61.4675
" />
<path d="M197.3981 61.1442
L197.2903 61.0365
" />
<path d="M197.2903 61.0365
L197.2634 60.9557
" />
<path d="M197.2634 60.9557
L197.2634 60.9018
" />
<path d="M197.2634 60.9018
L197.2903 60.7671
" />
<path d="M197.2903 60.7671
L197.3711 60.6324
" />
<path d="M197.3711 60.6324
L197.5866 60.4169
" />
<path d="M197.5866 60.4169
L197.6675 60.3900
" />
<path d="M197.6675 60.3900
L197.7213 60.3900
" />
<path d="M197.7213 60.3900
L197.8021 60.4169
" />
<path d="M197.8021 60.4169
L197.9099 60.5247
" />
<path d="M197.9099 60.5247
L197.9368 60.6055
" />
<path d="M197.9368 60.6055
L197.9368 60.6594
" />
<path d="M197.9368 60.6594
L197.9099 60.7402
" />
<path d="M197.9099 60.7402
L197.7752 60.8749
" />
<path d="M197.7752 60.8749
L197.6944 60.9018
" />
<path d="M197.6944 60.9018
L197.6405 60.9018
" />
<path d="M197.6405 60.9018
L197.5597 60.8749
" />
<path d="M197.5597 60.8749
L197.4520 60.7671
" />
<path d="M197.4520 60.7671
L197.4250 60.6863
" />
<path d="M197.4250 60.6863
L197.4250 60.6324
" />
<path d="M197.4250 60.6324
L197.4520 60.5516
" />
</g><g transform="rotate(-45.000000 203.1922 61.6000)">
<text x="203.1922" y="62.0000"
textLength="3.4138" font-size="1.0667" lengthAdjust="spacingAndGlyphs"
text-anchor="middle" opacity="0">GP10</text>
</g>
<g class="stroked-text"><desc>GP10</desc>
<path d="M204.1482 61.9909
L204.2290 62.0178
" />
<path d="M204.2290 62.0178
L204.3098 62.0986
" />
<path d="M204.3098 62.0986
L204.3637 62.2064
" />
<path d="M204.3637 62.2064
L204.3637 62.3141
" />
<path d="M204.3637 62.3141
L204.3368 62.3949
" />
<path d="M204.3368 62.3949
L204.2560 62.5296
" />
<path d="M204.2560 62.5296
L204.1751 62.6104
" />
<path d="M204.1751 62.6104
L204.0405 62.6912
" />
<path d="M204.0405 62.6912
L203.9596 62.7182
" />
<path d="M203.9596 62.7182
L203.8519 62.7182
" />
<path d="M203.8519 62.7182
L203.7441 62.6643
" />
<path d="M203.7441 62.6643
L203.6903 62.6104
" />
<path d="M203.6903 62.6104
L203.6364 62.5027
" />
<path d="M203.6364 62.5027
L203.6364 62.4488
" />
<path d="M203.6364 62.4488
L203.8250 62.2602
" />
<path d="M203.8250 62.2602
L203.9327 62.3680
" />
<path d="M203.3401 62.2602
L203.9058 61.6946
" />
<path d="M203.9058 61.6946
L203.6903 61.4791
" />
<path d="M203.6903 61.4791
L203.6095 61.4521
" />
<path d="M203.6095 61.4521
L203.5556 61.4521
" />
<path d="M203.5556 61.4521
L203.4748 61.4791
" />
<path d="M203.4748 61.4791
L203.3940 61.5599
" />
<path d="M203.3940 61.5599
L203.3670 61.6407
" />
<path d="M203.3670 61.6407
L203.3670 61.6946
" />
<path d="M203.3670 61.6946
L203.3940 61.7754
" />
<path d="M203.3940 61.7754
L203.6095 61.9909
" />
<path d="M202.4781 61.3982
L202.8013 61.7215
" />
<path d="M202.6397 61.5599
L203.2054 60.9942
" />
<path d="M203.2054 60.9942
L203.1785 61.1289
" />
<path d="M203.1785 61.1289
L203.1785 61.2366
" />
<path d="M203.1785 61.2366
L203.2054 61.3174
" />
<path d="M202.6936 60.4824
L202.6397 60.4285
" />
<path d="M202.6397 60.4285
L202.5589 60.4016
" />
<path d="M202.5589 60.4016
L202.5050 60.4016
" />
<path d="M202.5050 60.4016
L202.4242 60.4285
" />
<path d="M202.4242 60.4285
L202.2895 60.5093
" />
<path d="M202.2895 60.5093
L202.1548 60.6440
" />
<path d="M202.1548 60.6440
L202.0740 60.7787
" />
<path d="M202.0740 60.7787
L202.0471 60.8595
" />
<path d="M202.0471 60.8595
L202.0471 60.9134
" />
<path d="M202.0471 60.9134
L202.0740 60.9942
" />
<path d="M202.0740 60.9942
L202.1279 61.0481
" />
<path d="M202.1279 61.0481
L202.2087 61.0750
" />
<path d="M202.2087 61.0750
L202.2626 61.0750
" />
<path d="M202.2626 61.0750
L202.3434 61.0481
" />
<path d="M202.3434 61.0481
L202.4781 60.9672
" />
<path d="M202.4781 60.9672
L202.6128 60.8326
" />
<path d="M202.6128 60.8326
L202.6936 60.6979
" />
<path d="M202.6936 60.6979
L202.7205 60.6171
" />
<path d="M202.7205 60.6171
L202.7205 60.5632
" />
<path d="M202.7205 60.5632
L202.6936 60.4824
" />
</g><g transform="rotate(-45.000000 189.3462 36.5460)">
<text x="189.3462" y="36.9460"
textLength="3.4138" font-size="1.0667" lengthAdjust="spacingAndGlyphs"
text-anchor="middle" opacity="0">GP27</text>
</g>
<g class="stroked-text"><desc>GP27</desc>
<path d="M190.3022 36.9369
L190.3830 36.9638
" />
<path d="M190.3830 36.9638
L190.4638 37.0446
" />
<path d="M190.4638 37.0446
L190.5177 37.1524
" />
<path d="M190.5177 37.1524
L190.5177 37.2601
" />
<path d="M190.5177 37.2601
L190.4908 37.3409
" />
<path d="M190.4908 37.3409
L190.4100 37.4756
" />
<path d="M190.4100 37.4756
L190.3291 37.5564
" />
<path d="M190.3291 37.5564
L190.1945 37.6372
" />
<path d="M190.1945 37.6372
L190.1136 37.6642
" />
<path d="M190.1136 37.6642
L190.0059 37.6642
" />
<path d="M190.0059 37.6642
L189.8981 37.6103
" />
<path d="M189.8981 37.6103
L189.8443 37.5564
" />
<path d="M189.8443 37.5564
L189.7904 37.4487
" />
<path d="M189.7904 37.4487
L189.7904 37.3948
" />
<path d="M189.7904 37.3948
L189.9790 37.2062
" />
<path d="M189.9790 37.2062
L190.0867 37.3140
" />
<path d="M189.4941 37.2062
L190.0598 36.6406
" />
<path d="M190.0598 36.6406
L189.8443 36.4251
" />
<path d="M189.8443 36.4251
L189.7635 36.3981
" />
<path d="M189.7635 36.3981
L189.7096 36.3981
" />
<path d="M189.7096 36.3981
L189.6288 36.4251
" />
<path d="M189.6288 36.4251
L189.5480 36.5059
" />
<path d="M189.5480 36.5059
L189.5210 36.5867
" />
<path d="M189.5210 36.5867
L189.5210 36.6406
" />
<path d="M189.5210 36.6406
L189.5480 36.7214
" />
<path d="M189.5480 36.7214
L189.7635 36.9369
" />
<path d="M189.4671 36.1557
L189.4671 36.1018
" />
<path d="M189.4671 36.1018
L189.4402 36.0210
" />
<path d="M189.4402 36.0210
L189.3055 35.8863
" />
<path d="M189.3055 35.8863
L189.2247 35.8594
" />
<path d="M189.2247 35.8594
L189.1708 35.8594
" />
<path d="M189.1708 35.8594
L189.0900 35.8863
" />
<path d="M189.0900 35.8863
L189.0361 35.9402
" />
<path d="M189.0361 35.9402
L188.9823 36.0479
" />
<path d="M188.9823 36.0479
L188.9823 36.6944
" />
<path d="M188.9823 36.6944
L188.6321 36.3442
" />
<path d="M189.0092 35.5900
L188.6321 35.2129
" />
<path d="M188.6321 35.2129
L188.3088 36.0210
" />
</g><g transform="rotate(-45.000000 195.5722 61.3460)">
<text x="195.5722" y="61.7460"
textLength="2.6519" font-size="1.0667" lengthAdjust="spacingAndGlyphs"
text-anchor="middle" opacity="0">GP8</text>
</g>
<g class="stroked-text"><desc>GP8</desc>
<path d="M196.2588 61.4675
L196.3396 61.4944
" />
<path d="M196.3396 61.4944
L196.4205 61.5752
" />
<path d="M196.4205 61.5752
L196.4743 61.6830
" />
<path d="M196.4743 61.6830
L196.4743 61.7907
" />
<path d="M196.4743 61.7907
L196.4474 61.8716
" />
<path d="M196.4474 61.8716
L196.3666 62.0062
" />
<path d="M196.3666 62.0062
L196.2858 62.0871
" />
<path d="M196.2858 62.0871
L196.1511 62.1679
" />
<path d="M196.1511 62.1679
L196.0703 62.1948
" />
<path d="M196.0703 62.1948
L195.9625 62.1948
" />
<path d="M195.9625 62.1948
L195.8548 62.1409
" />
<path d="M195.8548 62.1409
L195.8009 62.0871
" />
<path d="M195.8009 62.0871
L195.7470 61.9793
" />
<path d="M195.7470 61.9793
L195.7470 61.9254
" />
<path d="M195.7470 61.9254
L195.9356 61.7369
" />
<path d="M195.9356 61.7369
L196.0433 61.8446
" />
<path d="M195.4507 61.7369
L196.0164 61.1712
" />
<path d="M196.0164 61.1712
L195.8009 60.9557
" />
<path d="M195.8009 60.9557
L195.7201 60.9287
" />
<path d="M195.7201 60.9287
L195.6662 60.9287
" />
<path d="M195.6662 60.9287
L195.5854 60.9557
" />
<path d="M195.5854 60.9557
L195.5046 61.0365
" />
<path d="M195.5046 61.0365
L195.4776 61.1173
" />
<path d="M195.4776 61.1173
L195.4776 61.1712
" />
<path d="M195.4776 61.1712
L195.5046 61.2520
" />
<path d="M195.5046 61.2520
L195.7201 61.4675
" />
<path d="M195.1275 60.7671
L195.2083 60.7941
" />
<path d="M195.2083 60.7941
L195.2621 60.7941
" />
<path d="M195.2621 60.7941
L195.3430 60.7671
" />
<path d="M195.3430 60.7671
L195.3699 60.7402
" />
<path d="M195.3699 60.7402
L195.3968 60.6594
" />
<path d="M195.3968 60.6594
L195.3968 60.6055
" />
<path d="M195.3968 60.6055
L195.3699 60.5247
" />
<path d="M195.3699 60.5247
L195.2621 60.4169
" />
<path d="M195.2621 60.4169
L195.1813 60.3900
" />
<path d="M195.1813 60.3900
L195.1275 60.3900
" />
<path d="M195.1275 60.3900
L195.0466 60.4169
" />
<path d="M195.0466 60.4169
L195.0197 60.4439
" />
<path d="M195.0197 60.4439
L194.9928 60.5247
" />
<path d="M194.9928 60.5247
L194.9928 60.5786
" />
<path d="M194.9928 60.5786
L195.0197 60.6594
" />
<path d="M195.0197 60.6594
L195.1275 60.7671
" />
<path d="M195.1275 60.7671
L195.1544 60.8479
" />
<path d="M195.1544 60.8479
L195.1544 60.9018
" />
<path d="M195.1544 60.9018
L195.1275 60.9826
" />
<path d="M195.1275 60.9826
L195.0197 61.0904
" />
<path d="M195.0197 61.0904
L194.9389 61.1173
" />
<path d="M194.9389 61.1173
L194.8850 61.1173
" />
<path d="M194.8850 61.1173
L194.8042 61.0904
" />
<path d="M194.8042 61.0904
L194.6965 60.9826
" />
<path d="M194.6965 60.9826
L194.6695 60.9018
" />
<path d="M194.6695 60.9018
L194.6695 60.8479
" />
<path d="M194.6695 60.8479
L194.6965 60.7671
" />
<path d="M194.6965 60.7671
L194.8042 60.6594
" />
<path d="M194.8042 60.6594
L194.8850 60.6324
" />
<path d="M194.8850 60.6324
L194.9389 60.6324
" />
<path d="M194.9389 60.6324
L195.0197 60.6594
" />
</g><g transform="rotate(-45.000000 185.4122 61.3460)">
<text x="185.4122" y="61.7460"
textLength="2.6519" font-size="1.0667" lengthAdjust="spacingAndGlyphs"
text-anchor="middle" opacity="0">GP5</text>
</g>
<g class="stroked-text"><desc>GP5</desc>
<path d="M186.0988 61.4675
L186.1796 61.4944
" />
<path d="M186.1796 61.4944
L186.2605 61.5752
" />
<path d="M186.2605 61.5752
L186.3143 61.6830
" />
<path d="M186.3143 61.6830
L186.3143 61.7907
" />
<path d="M186.3143 61.7907
L186.2874 61.8716
" />
<path d="M186.2874 61.8716
L186.2066 62.0062
" />
<path d="M186.2066 62.0062
L186.1258 62.0871
" />
<path d="M186.1258 62.0871
L185.9911 62.1679
" />
<path d="M185.9911 62.1679
L185.9103 62.1948
" />
<path d="M185.9103 62.1948
L185.8025 62.1948
" />
<path d="M185.8025 62.1948
L185.6948 62.1409
" />
<path d="M185.6948 62.1409
L185.6409 62.0871
" />
<path d="M185.6409 62.0871
L185.5870 61.9793
" />
<path d="M185.5870 61.9793
L185.5870 61.9254
" />
<path d="M185.5870 61.9254
L185.7756 61.7369
" />
<path d="M185.7756 61.7369
L185.8833 61.8446
" />
<path d="M185.2907 61.7369
L185.8564 61.1712
" />
<path d="M185.8564 61.1712
L185.6409 60.9557
" />
<path d="M185.6409 60.9557
L185.5601 60.9287
" />
<path d="M185.5601 60.9287
L185.5062 60.9287
" />
<path d="M185.5062 60.9287
L185.4254 60.9557
" />
<path d="M185.4254 60.9557
L185.3446 61.0365
" />
<path d="M185.3446 61.0365
L185.3176 61.1173
" />
<path d="M185.3176 61.1173
L185.3176 61.1712
" />
<path d="M185.3176 61.1712
L185.3446 61.2520
" />
<path d="M185.3446 61.2520
L185.5601 61.4675
" />
<path d="M185.0213 60.3361
L185.2907 60.6055
" />
<path d="M185.2907 60.6055
L185.0483 60.9018
" />
<path d="M185.0483 60.9018
L185.0483 60.8479
" />
<path d="M185.0483 60.8479
L185.0213 60.7671
" />
<path d="M185.0213 60.7671
L184.8866 60.6324
" />
<path d="M184.8866 60.6324
L184.8058 60.6055
" />
<path d="M184.8058 60.6055
L184.7520 60.6055
" />
<path d="M184.7520 60.6055
L184.6711 60.6324
" />
<path d="M184.6711 60.6324
L184.5365 60.7671
" />
<path d="M184.5365 60.7671
L184.5095 60.8479
" />
<path d="M184.5095 60.8479
L184.5095 60.9018
" />
<path d="M184.5095 60.9018
L184.5365 60.9826
" />
<path d="M184.5365 60.9826
L184.6711 61.1173
" />
<path d="M184.6711 61.1173
L184.7520 61.1442
" />
<path d="M184.7520 61.1442
L184.8058 61.1442
" />
</g><g transform="rotate(-45.000000 180.6462 35.6000)">
<text x="180.6462" y="36.0000"
textLength="6.0805" font-size="1.0667" lengthAdjust="spacingAndGlyphs"
text-anchor="middle" opacity="0">ADC_VREF</text>
</g>
<g class="stroked-text"><desc>ADC_VREF</desc>
<path d="M182.4911 37.6340
L182.2218 37.3647
" />
<path d="M182.3834 37.8495
L182.7605 37.0953
" />
<path d="M182.7605 37.0953
L182.0063 37.4724
" />
<path d="M181.8177 37.2839
L182.3834 36.7182
" />
<path d="M182.3834 36.7182
L182.2487 36.5835
" />
<path d="M182.2487 36.5835
L182.1410 36.5296
" />
<path d="M182.1410 36.5296
L182.0332 36.5296
" />
<path d="M182.0332 36.5296
L181.9524 36.5566
" />
<path d="M181.9524 36.5566
L181.8177 36.6374
" />
<path d="M181.8177 36.6374
L181.7369 36.7182
" />
<path d="M181.7369 36.7182
L181.6561 36.8529
" />
<path d="M181.6561 36.8529
L181.6291 36.9337
" />
<path d="M181.6291 36.9337
L181.6291 37.0414
" />
<path d="M181.6291 37.0414
L181.6830 37.1492
" />
<path d="M181.6830 37.1492
L181.8177 37.2839
" />
<path d="M180.9826 36.3411
L180.9826 36.3949
" />
<path d="M180.9826 36.3949
L181.0365 36.5027
" />
<path d="M181.0365 36.5027
L181.0904 36.5566
" />
<path d="M181.0904 36.5566
L181.1981 36.6104
" />
<path d="M181.1981 36.6104
L181.3059 36.6104
" />
<path d="M181.3059 36.6104
L181.3867 36.5835
" />
<path d="M181.3867 36.5835
L181.5214 36.5027
" />
<path d="M181.5214 36.5027
L181.6022 36.4219
" />
<path d="M181.6022 36.4219
L181.6830 36.2872
" />
<path d="M181.6830 36.2872
L181.7100 36.2064
" />
<path d="M181.7100 36.2064
L181.7100 36.0986
" />
<path d="M181.7100 36.0986
L181.6561 35.9909
" />
<path d="M181.6561 35.9909
L181.6022 35.9370
" />
<path d="M181.6022 35.9370
L181.4945 35.8831
" />
<path d="M181.4945 35.8831
L181.4406 35.8831
" />
<path d="M180.7671 36.3411
L180.3361 35.9101
" />
<path d="M180.9018 35.2366
L180.1476 35.6137
" />
<path d="M180.1476 35.6137
L180.5247 34.8595
" />
<path d="M179.4472 34.9134
L179.9051 34.8326
" />
<path d="M179.7705 35.2366
L180.3361 34.6709
" />
<path d="M180.3361 34.6709
L180.1206 34.4554
" />
<path d="M180.1206 34.4554
L180.0398 34.4285
" />
<path d="M180.0398 34.4285
L179.9860 34.4285
" />
<path d="M179.9860 34.4285
L179.9051 34.4554
" />
<path d="M179.9051 34.4554
L179.8243 34.5362
" />
<path d="M179.8243 34.5362
L179.7974 34.6171
" />
<path d="M179.7974 34.6171
L179.7974 34.6709
" />
<path d="M179.7974 34.6709
L179.8243 34.7517
" />
<path d="M179.8243 34.7517
L180.0398 34.9672
" />
<path d="M179.5011 34.3746
L179.3125 34.1861
" />
<path d="M178.9354 34.4016
L179.2048 34.6709
" />
<path d="M179.2048 34.6709
L179.7705 34.1052
" />
<path d="M179.7705 34.1052
L179.5011 33.8359
" />
<path d="M178.8007 33.6743
L178.9893 33.8628
" />
<path d="M178.6930 34.1591
L179.2586 33.5934
" />
<path d="M179.2586 33.5934
L178.9893 33.3241
" />
</g><g transform="rotate(-45.000000 218.4322 61.6000)">
<text x="218.4322" y="62.0000"
textLength="3.4138" font-size="1.0667" lengthAdjust="spacingAndGlyphs"
text-anchor="middle" opacity="0">GP15</text>
</g>
<g class="stroked-text"><desc>GP15</desc>
<path d="M219.3882 61.9909
L219.4690 62.0178
" />
<path d="M219.4690 62.0178
L219.5498 62.0986
" />
<path d="M219.5498 62.0986
L219.6037 62.2064
" />
<path d="M219.6037 62.2064
L219.6037 62.3141
" />
<path d="M219.6037 62.3141
L219.5768 62.3949
" />
<path d="M219.5768 62.3949
L219.4960 62.5296
" />
<path d="M219.4960 62.5296
L219.4151 62.6104
" />
<path d="M219.4151 62.6104
L219.2805 62.6912
" />
<path d="M219.2805 62.6912
L219.1996 62.7182
" />
<path d="M219.1996 62.7182
L219.0919 62.7182
" />
<path d="M219.0919 62.7182
L218.9841 62.6643
" />
<path d="M218.9841 62.6643
L218.9303 62.6104
" />
<path d="M218.9303 62.6104
L218.8764 62.5027
" />
<path d="M218.8764 62.5027
L218.8764 62.4488
" />
<path d="M218.8764 62.4488
L219.0650 62.2602
" />
<path d="M219.0650 62.2602
L219.1727 62.3680
" />
<path d="M218.5801 62.2602
L219.1458 61.6946
" />
<path d="M219.1458 61.6946
L218.9303 61.4791
" />
<path d="M218.9303 61.4791
L218.8495 61.4521
" />
<path d="M218.8495 61.4521
L218.7956 61.4521
" />
<path d="M218.7956 61.4521
L218.7148 61.4791
" />
<path d="M218.7148 61.4791
L218.6340 61.5599
" />
<path d="M218.6340 61.5599
L218.6070 61.6407
" />
<path d="M218.6070 61.6407
L218.6070 61.6946
" />
<path d="M218.6070 61.6946
L218.6340 61.7754
" />
<path d="M218.6340 61.7754
L218.8495 61.9909
" />
<path d="M217.7181 61.3982
L218.0413 61.7215
" />
<path d="M217.8797 61.5599
L218.4454 60.9942
" />
<path d="M218.4454 60.9942
L218.4185 61.1289
" />
<path d="M218.4185 61.1289
L218.4185 61.2366
" />
<path d="M218.4185 61.2366
L218.4454 61.3174
" />
<path d="M217.7720 60.3207
L218.0413 60.5901
" />
<path d="M218.0413 60.5901
L217.7989 60.8864
" />
<path d="M217.7989 60.8864
L217.7989 60.8326
" />
<path d="M217.7989 60.8326
L217.7720 60.7517
" />
<path d="M217.7720 60.7517
L217.6373 60.6171
" />
<path d="M217.6373 60.6171
L217.5565 60.5901
" />
<path d="M217.5565 60.5901
L217.5026 60.5901
" />
<path d="M217.5026 60.5901
L217.4218 60.6171
" />
<path d="M217.4218 60.6171
L217.2871 60.7517
" />
<path d="M217.2871 60.7517
L217.2601 60.8326
" />
<path d="M217.2601 60.8326
L217.2601 60.8864
" />
<path d="M217.2601 60.8864
L217.2871 60.9672
" />
<path d="M217.2871 60.9672
L217.4218 61.1019
" />
<path d="M217.4218 61.1019
L217.5026 61.1289
" />
<path d="M217.5026 61.1289
L217.5565 61.1289
" />
</g><g transform="rotate(-45.000000 171.5562 36.4000)">
<text x="171.5562" y="36.8000"
textLength="3.1852" font-size="1.0667" lengthAdjust="spacingAndGlyphs"
text-anchor="middle" opacity="0">VSYS</text>
</g>
<g class="stroked-text"><desc>VSYS</desc>
<path d="M172.8355 37.0602
L172.0812 37.4374
" />
<path d="M172.0812 37.4374
L172.4583 36.6831
" />
<path d="M171.7580 37.0602
L171.6502 37.0064
" />
<path d="M171.6502 37.0064
L171.5155 36.8717
" />
<path d="M171.5155 36.8717
L171.4886 36.7909
" />
<path d="M171.4886 36.7909
L171.4886 36.7370
" />
<path d="M171.4886 36.7370
L171.5155 36.6562
" />
<path d="M171.5155 36.6562
L171.5694 36.6023
" />
<path d="M171.5694 36.6023
L171.6502 36.5754
" />
<path d="M171.6502 36.5754
L171.7041 36.5754
" />
<path d="M171.7041 36.5754
L171.7849 36.6023
" />
<path d="M171.7849 36.6023
L171.9196 36.6831
" />
<path d="M171.9196 36.6831
L172.0004 36.7101
" />
<path d="M172.0004 36.7101
L172.0543 36.7101
" />
<path d="M172.0543 36.7101
L172.1351 36.6831
" />
<path d="M172.1351 36.6831
L172.1890 36.6292
" />
<path d="M172.1890 36.6292
L172.2159 36.5484
" />
<path d="M172.2159 36.5484
L172.2159 36.4946
" />
<path d="M172.2159 36.4946
L172.1890 36.4137
" />
<path d="M172.1890 36.4137
L172.0543 36.2791
" />
<path d="M172.0543 36.2791
L171.9465 36.2252
" />
<path d="M171.3270 36.1444
L171.0576 36.4137
" />
<path d="M171.8118 36.0366
L171.3270 36.1444
" />
<path d="M171.3270 36.1444
L171.4347 35.6595
" />
<path d="M170.7343 36.0366
L170.6266 35.9827
" />
<path d="M170.6266 35.9827
L170.4919 35.8481
" />
<path d="M170.4919 35.8481
L170.4650 35.7672
" />
<path d="M170.4650 35.7672
L170.4650 35.7134
" />
<path d="M170.4650 35.7134
L170.4919 35.6326
" />
<path d="M170.4919 35.6326
L170.5458 35.5787
" />
<path d="M170.5458 35.5787
L170.6266 35.5517
" />
<path d="M170.6266 35.5517
L170.6805 35.5517
" />
<path d="M170.6805 35.5517
L170.7613 35.5787
" />
<path d="M170.7613 35.5787
L170.8960 35.6595
" />
<path d="M170.8960 35.6595
L170.9768 35.6864
" />
<path d="M170.9768 35.6864
L171.0306 35.6864
" />
<path d="M171.0306 35.6864
L171.1115 35.6595
" />
<path d="M171.1115 35.6595
L171.1653 35.6056
" />
<path d="M171.1653 35.6056
L171.1923 35.5248
" />
<path d="M171.1923 35.5248
L171.1923 35.4709
" />
<path d="M171.1923 35.4709
L171.1653 35.3901
" />
<path d="M171.1653 35.3901
L171.0306 35.2554
" />
<path d="M171.0306 35.2554
L170.9229 35.2016
" />
</g><g transform="rotate(-90.000000 220.2022 43.4000)">
<text x="220.2022" y="43.8000"
textLength="3.9852" font-size="1.0667" lengthAdjust="spacingAndGlyphs"
text-anchor="middle" opacity="0">SWDIO</text>
</g>
<g class="stroked-text"><desc>SWDIO</desc>
<path d="M219.8780 45.0952
L219.8399 44.9810
" />
<path d="M219.8399 44.9810
L219.8399 44.7905
" />
<path d="M219.8399 44.7905
L219.8780 44.7143
" />
<path d="M219.8780 44.7143
L219.9161 44.6762
" />
<path d="M219.9161 44.6762
L219.9923 44.6381
" />
<path d="M219.9923 44.6381
L220.0685 44.6381
" />
<path d="M220.0685 44.6381
L220.1447 44.6762
" />
<path d="M220.1447 44.6762
L220.1828 44.7143
" />
<path d="M220.1828 44.7143
L220.2209 44.7905
" />
<path d="M220.2209 44.7905
L220.2590 44.9429
" />
<path d="M220.2590 44.9429
L220.2970 45.0190
" />
<path d="M220.2970 45.0190
L220.3351 45.0571
" />
<path d="M220.3351 45.0571
L220.4113 45.0952
" />
<path d="M220.4113 45.0952
L220.4875 45.0952
" />
<path d="M220.4875 45.0952
L220.5637 45.0571
" />
<path d="M220.5637 45.0571
L220.6018 45.0190
" />
<path d="M220.6018 45.0190
L220.6399 44.9429
" />
<path d="M220.6399 44.9429
L220.6399 44.7524
" />
<path d="M220.6399 44.7524
L220.6018 44.6381
" />
<path d="M220.6399 44.3714
L219.8399 44.1810
" />
<path d="M219.8399 44.1810
L220.4113 44.0286
" />
<path d="M220.4113 44.0286
L219.8399 43.8762
" />
<path d="M219.8399 43.8762
L220.6399 43.6857
" />
<path d="M219.8399 43.3810
L220.6399 43.3810
" />
<path d="M220.6399 43.3810
L220.6399 43.1905
" />
<path d="M220.6399 43.1905
L220.6018 43.0762
" />
<path d="M220.6018 43.0762
L220.5256 43.0000
" />
<path d="M220.5256 43.0000
L220.4494 42.9619
" />
<path d="M220.4494 42.9619
L220.2970 42.9238
" />
<path d="M220.2970 42.9238
L220.1828 42.9238
" />
<path d="M220.1828 42.9238
L220.0304 42.9619
" />
<path d="M220.0304 42.9619
L219.9542 43.0000
" />
<path d="M219.9542 43.0000
L219.8780 43.0762
" />
<path d="M219.8780 43.0762
L219.8399 43.1905
" />
<path d="M219.8399 43.1905
L219.8399 43.3810
" />
<path d="M219.8399 42.5810
L220.6399 42.5810
" />
<path d="M220.6399 42.0476
L220.6399 41.8952
" />
<path d="M220.6399 41.8952
L220.6018 41.8190
" />
<path d="M220.6018 41.8190
L220.5256 41.7429
" />
<path d="M220.5256 41.7429
L220.3732 41.7048
" />
<path d="M220.3732 41.7048
L220.1066 41.7048
" />
<path d="M220.1066 41.7048
L219.9542 41.7429
" />
<path d="M219.9542 41.7429
L219.8780 41.8190
" />
<path d="M219.8780 41.8190
L219.8399 41.8952
" />
<path d="M219.8399 41.8952
L219.8399 42.0476
" />
<path d="M219.8399 42.0476
L219.8780 42.1238
" />
<path d="M219.8780 42.1238
L219.9542 42.2000
" />
<path d="M219.9542 42.2000
L220.1066 42.2381
" />
<path d="M220.1066 42.2381
L220.3732 42.2381
" />
<path d="M220.3732 42.2381
L220.5256 42.2000
" />
<path d="M220.5256 42.2000
L220.6018 42.1238
" />
<path d="M220.6018 42.1238
L220.6399 42.0476
" />
</g><g transform="rotate(-45.000000 191.8762 36.5460)">
<text x="191.8762" y="36.9460"
textLength="3.4138" font-size="1.0667" lengthAdjust="spacingAndGlyphs"
text-anchor="middle" opacity="0">GP26</text>
</g>
<g class="stroked-text"><desc>GP26</desc>
<path d="M192.8322 36.9369
L192.9130 36.9638
" />
<path d="M192.9130 36.9638
L192.9938 37.0446
" />
<path d="M192.9938 37.0446
L193.0477 37.1524
" />
<path d="M193.0477 37.1524
L193.0477 37.2601
" />
<path d="M193.0477 37.2601
L193.0208 37.3409
" />
<path d="M193.0208 37.3409
L192.9400 37.4756
" />
<path d="M192.9400 37.4756
L192.8591 37.5564
" />
<path d="M192.8591 37.5564
L192.7245 37.6372
" />
<path d="M192.7245 37.6372
L192.6436 37.6642
" />
<path d="M192.6436 37.6642
L192.5359 37.6642
" />
<path d="M192.5359 37.6642
L192.4281 37.6103
" />
<path d="M192.4281 37.6103
L192.3743 37.5564
" />
<path d="M192.3743 37.5564
L192.3204 37.4487
" />
<path d="M192.3204 37.4487
L192.3204 37.3948
" />
<path d="M192.3204 37.3948
L192.5090 37.2062
" />
<path d="M192.5090 37.2062
L192.6167 37.3140
" />
<path d="M192.0241 37.2062
L192.5898 36.6406
" />
<path d="M192.5898 36.6406
L192.3743 36.4251
" />
<path d="M192.3743 36.4251
L192.2935 36.3981
" />
<path d="M192.2935 36.3981
L192.2396 36.3981
" />
<path d="M192.2396 36.3981
L192.1588 36.4251
" />
<path d="M192.1588 36.4251
L192.0780 36.5059
" />
<path d="M192.0780 36.5059
L192.0510 36.5867
" />
<path d="M192.0510 36.5867
L192.0510 36.6406
" />
<path d="M192.0510 36.6406
L192.0780 36.7214
" />
<path d="M192.0780 36.7214
L192.2935 36.9369
" />
<path d="M191.9971 36.1557
L191.9971 36.1018
" />
<path d="M191.9971 36.1018
L191.9702 36.0210
" />
<path d="M191.9702 36.0210
L191.8355 35.8863
" />
<path d="M191.8355 35.8863
L191.7547 35.8594
" />
<path d="M191.7547 35.8594
L191.7008 35.8594
" />
<path d="M191.7008 35.8594
L191.6200 35.8863
" />
<path d="M191.6200 35.8863
L191.5661 35.9402
" />
<path d="M191.5661 35.9402
L191.5123 36.0479
" />
<path d="M191.5123 36.0479
L191.5123 36.6944
" />
<path d="M191.5123 36.6944
L191.1621 36.3442
" />
<path d="M191.2429 35.2937
L191.3506 35.4014
" />
<path d="M191.3506 35.4014
L191.3776 35.4822
" />
<path d="M191.3776 35.4822
L191.3776 35.5361
" />
<path d="M191.3776 35.5361
L191.3506 35.6708
" />
<path d="M191.3506 35.6708
L191.2698 35.8055
" />
<path d="M191.2698 35.8055
L191.0543 36.0210
" />
<path d="M191.0543 36.0210
L190.9735 36.0479
" />
<path d="M190.9735 36.0479
L190.9196 36.0479
" />
<path d="M190.9196 36.0479
L190.8388 36.0210
" />
<path d="M190.8388 36.0210
L190.7311 35.9132
" />
<path d="M190.7311 35.9132
L190.7041 35.8324
" />
<path d="M190.7041 35.8324
L190.7041 35.7786
" />
<path d="M190.7041 35.7786
L190.7311 35.6977
" />
<path d="M190.7311 35.6977
L190.8658 35.5631
" />
<path d="M190.8658 35.5631
L190.9466 35.5361
" />
<path d="M190.9466 35.5361
L191.0005 35.5361
" />
<path d="M191.0005 35.5361
L191.0813 35.5631
" />
<path d="M191.0813 35.5631
L191.1890 35.6708
" />
<path d="M191.1890 35.6708
L191.2160 35.7516
" />
<path d="M191.2160 35.7516
L191.2160 35.8055
" />
<path d="M191.2160 35.8055
L191.1890 35.8863
" />
</g><g transform="rotate(-45.000000 187.9522 61.3460)">
<text x="187.9522" y="61.7460"
textLength="2.7281" font-size="1.0667" lengthAdjust="spacingAndGlyphs"
text-anchor="middle" opacity="0">GND</text>
</g>
<g class="stroked-text"><desc>GND</desc>
<path d="M188.6658 61.4944
L188.7466 61.5214
" />
<path d="M188.7466 61.5214
L188.8274 61.6022
" />
<path d="M188.8274 61.6022
L188.8813 61.7099
" />
<path d="M188.8813 61.7099
L188.8813 61.8177
" />
<path d="M188.8813 61.8177
L188.8543 61.8985
" />
<path d="M188.8543 61.8985
L188.7735 62.0332
" />
<path d="M188.7735 62.0332
L188.6927 62.1140
" />
<path d="M188.6927 62.1140
L188.5580 62.1948
" />
<path d="M188.5580 62.1948
L188.4772 62.2217
" />
<path d="M188.4772 62.2217
L188.3695 62.2217
" />
<path d="M188.3695 62.2217
L188.2617 62.1679
" />
<path d="M188.2617 62.1679
L188.2078 62.1140
" />
<path d="M188.2078 62.1140
L188.1540 62.0062
" />
<path d="M188.1540 62.0062
L188.1540 61.9524
" />
<path d="M188.1540 61.9524
L188.3425 61.7638
" />
<path d="M188.3425 61.7638
L188.4503 61.8716
" />
<path d="M187.8576 61.7638
L188.4233 61.1981
" />
<path d="M188.4233 61.1981
L187.5344 61.4406
" />
<path d="M187.5344 61.4406
L188.1001 60.8749
" />
<path d="M187.2650 61.1712
L187.8307 60.6055
" />
<path d="M187.8307 60.6055
L187.6960 60.4708
" />
<path d="M187.6960 60.4708
L187.5883 60.4169
" />
<path d="M187.5883 60.4169
L187.4805 60.4169
" />
<path d="M187.4805 60.4169
L187.3997 60.4439
" />
<path d="M187.3997 60.4439
L187.2650 60.5247
" />
<path d="M187.2650 60.5247
L187.1842 60.6055
" />
<path d="M187.1842 60.6055
L187.1034 60.7402
" />
<path d="M187.1034 60.7402
L187.0765 60.8210
" />
<path d="M187.0765 60.8210
L187.0765 60.9287
" />
<path d="M187.0765 60.9287
L187.1303 61.0365
" />
<path d="M187.1303 61.0365
L187.2650 61.1712
" />
</g><g transform="rotate(-45.000000 168.9462 36.3000)">
<text x="168.9462" y="36.7000"
textLength="3.3757" font-size="1.0667" lengthAdjust="spacingAndGlyphs"
text-anchor="middle" opacity="0">VBUS</text>
</g>
<g class="stroked-text"><desc>VBUS</desc>
<path d="M170.2928 37.0276
L169.5385 37.4047
" />
<path d="M169.5385 37.4047
L169.9157 36.6505
" />
<path d="M169.2692 36.5427
L169.1614 36.4888
" />
<path d="M169.1614 36.4888
L169.1075 36.4888
" />
<path d="M169.1075 36.4888
L169.0267 36.5158
" />
<path d="M169.0267 36.5158
L168.9459 36.5966
" />
<path d="M168.9459 36.5966
L168.9190 36.6774
" />
<path d="M168.9190 36.6774
L168.9190 36.7313
" />
<path d="M168.9190 36.7313
L168.9459 36.8121
" />
<path d="M168.9459 36.8121
L169.1614 37.0276
" />
<path d="M169.1614 37.0276
L169.7271 36.4619
" />
<path d="M169.7271 36.4619
L169.5385 36.2733
" />
<path d="M169.5385 36.2733
L169.4577 36.2464
" />
<path d="M169.4577 36.2464
L169.4039 36.2464
" />
<path d="M169.4039 36.2464
L169.3230 36.2733
" />
<path d="M169.3230 36.2733
L169.2692 36.3272
" />
<path d="M169.2692 36.3272
L169.2422 36.4080
" />
<path d="M169.2422 36.4080
L169.2422 36.4619
" />
<path d="M169.2422 36.4619
L169.2692 36.5427
" />
<path d="M169.2692 36.5427
L169.4577 36.7313
" />
<path d="M169.1614 35.8962
L168.7035 36.3542
" />
<path d="M168.7035 36.3542
L168.6227 36.3811
" />
<path d="M168.6227 36.3811
L168.5688 36.3811
" />
<path d="M168.5688 36.3811
L168.4880 36.3542
" />
<path d="M168.4880 36.3542
L168.3802 36.2464
" />
<path d="M168.3802 36.2464
L168.3533 36.1656
" />
<path d="M168.3533 36.1656
L168.3533 36.1117
" />
<path d="M168.3533 36.1117
L168.3802 36.0309
" />
<path d="M168.3802 36.0309
L168.8382 35.5730
" />
<path d="M168.0570 35.8693
L167.9492 35.8154
" />
<path d="M167.9492 35.8154
L167.8146 35.6807
" />
<path d="M167.8146 35.6807
L167.7876 35.5999
" />
<path d="M167.7876 35.5999
L167.7876 35.5460
" />
<path d="M167.7876 35.5460
L167.8146 35.4652
" />
<path d="M167.8146 35.4652
L167.8684 35.4113
" />
<path d="M167.8684 35.4113
L167.9492 35.3844
" />
<path d="M167.9492 35.3844
L168.0031 35.3844
" />
<path d="M168.0031 35.3844
L168.0839 35.4113
" />
<path d="M168.0839 35.4113
L168.2186 35.4922
" />
<path d="M168.2186 35.4922
L168.2994 35.5191
" />
<path d="M168.2994 35.5191
L168.3533 35.5191
" />
<path d="M168.3533 35.5191
L168.4341 35.4922
" />
<path d="M168.4341 35.4922
L168.4880 35.4383
" />
<path d="M168.4880 35.4383
L168.5149 35.3575
" />
<path d="M168.5149 35.3575
L168.5149 35.3036
" />
<path d="M168.5149 35.3036
L168.4880 35.2228
" />
<path d="M168.4880 35.2228
L168.3533 35.0881
" />
<path d="M168.3533 35.0881
L168.2456 35.0342
" />
</g><g transform="rotate(-45.000000 210.8122 61.6000)">
<text x="210.8122" y="62.0000"
textLength="3.4138" font-size="1.0667" lengthAdjust="spacingAndGlyphs"
text-anchor="middle" opacity="0">GP13</text>
</g>
<g class="stroked-text"><desc>GP13</desc>
<path d="M211.7682 61.9909
L211.8490 62.0178
" />
<path d="M211.8490 62.0178
L211.9298 62.0986
" />
<path d="M211.9298 62.0986
L211.9837 62.2064
" />
<path d="M211.9837 62.2064
L211.9837 62.3141
" />
<path d="M211.9837 62.3141
L211.9568 62.3949
" />
<path d="M211.9568 62.3949
L211.8760 62.5296
" />
<path d="M211.8760 62.5296
L211.7951 62.6104
" />
<path d="M211.7951 62.6104
L211.6605 62.6912
" />
<path d="M211.6605 62.6912
L211.5796 62.7182
" />
<path d="M211.5796 62.7182
L211.4719 62.7182
" />
<path d="M211.4719 62.7182
L211.3641 62.6643
" />
<path d="M211.3641 62.6643
L211.3103 62.6104
" />
<path d="M211.3103 62.6104
L211.2564 62.5027
" />
<path d="M211.2564 62.5027
L211.2564 62.4488
" />
<path d="M211.2564 62.4488
L211.4450 62.2602
" />
<path d="M211.4450 62.2602
L211.5527 62.3680
" />
<path d="M210.9601 62.2602
L211.5258 61.6946
" />
<path d="M211.5258 61.6946
L211.3103 61.4791
" />
<path d="M211.3103 61.4791
L211.2295 61.4521
" />
<path d="M211.2295 61.4521
L211.1756 61.4521
" />
<path d="M211.1756 61.4521
L211.0948 61.4791
" />
<path d="M211.0948 61.4791
L211.0140 61.5599
" />
<path d="M211.0140 61.5599
L210.9870 61.6407
" />
<path d="M210.9870 61.6407
L210.9870 61.6946
" />
<path d="M210.9870 61.6946
L211.0140 61.7754
" />
<path d="M211.0140 61.7754
L211.2295 61.9909
" />
<path d="M210.0981 61.3982
L210.4213 61.7215
" />
<path d="M210.2597 61.5599
L210.8254 60.9942
" />
<path d="M210.8254 60.9942
L210.7985 61.1289
" />
<path d="M210.7985 61.1289
L210.7985 61.2366
" />
<path d="M210.7985 61.2366
L210.8254 61.3174
" />
<path d="M210.4752 60.6440
L210.1250 60.2938
" />
<path d="M210.1250 60.2938
L210.0981 60.6979
" />
<path d="M210.0981 60.6979
L210.0173 60.6171
" />
<path d="M210.0173 60.6171
L209.9365 60.5901
" />
<path d="M209.9365 60.5901
L209.8826 60.5901
" />
<path d="M209.8826 60.5901
L209.8018 60.6171
" />
<path d="M209.8018 60.6171
L209.6671 60.7517
" />
<path d="M209.6671 60.7517
L209.6401 60.8326
" />
<path d="M209.6401 60.8326
L209.6401 60.8864
" />
<path d="M209.6401 60.8864
L209.6671 60.9672
" />
<path d="M209.6671 60.9672
L209.8287 61.1289
" />
<path d="M209.8287 61.1289
L209.9095 61.1558
" />
<path d="M209.9095 61.1558
L209.9634 61.1558
" />
</g><g transform="rotate(-45.000000 207.1162 36.5460)">
<text x="207.1162" y="36.9460"
textLength="3.4138" font-size="1.0667" lengthAdjust="spacingAndGlyphs"
text-anchor="middle" opacity="0">GP19</text>
</g>
<g class="stroked-text"><desc>GP19</desc>
<path d="M208.0722 36.9369
L208.1530 36.9638
" />
<path d="M208.1530 36.9638
L208.2338 37.0446
" />
<path d="M208.2338 37.0446
L208.2877 37.1524
" />
<path d="M208.2877 37.1524
L208.2877 37.2601
" />
<path d="M208.2877 37.2601
L208.2608 37.3409
" />
<path d="M208.2608 37.3409
L208.1800 37.4756
" />
<path d="M208.1800 37.4756
L208.0991 37.5564
" />
<path d="M208.0991 37.5564
L207.9645 37.6372
" />
<path d="M207.9645 37.6372
L207.8836 37.6642
" />
<path d="M207.8836 37.6642
L207.7759 37.6642
" />
<path d="M207.7759 37.6642
L207.6681 37.6103
" />
<path d="M207.6681 37.6103
L207.6143 37.5564
" />
<path d="M207.6143 37.5564
L207.5604 37.4487
" />
<path d="M207.5604 37.4487
L207.5604 37.3948
" />
<path d="M207.5604 37.3948
L207.7490 37.2062
" />
<path d="M207.7490 37.2062
L207.8567 37.3140
" />
<path d="M207.2641 37.2062
L207.8298 36.6406
" />
<path d="M207.8298 36.6406
L207.6143 36.4251
" />
<path d="M207.6143 36.4251
L207.5335 36.3981
" />
<path d="M207.5335 36.3981
L207.4796 36.3981
" />
<path d="M207.4796 36.3981
L207.3988 36.4251
" />
<path d="M207.3988 36.4251
L207.3180 36.5059
" />
<path d="M207.3180 36.5059
L207.2910 36.5867
" />
<path d="M207.2910 36.5867
L207.2910 36.6406
" />
<path d="M207.2910 36.6406
L207.3180 36.7214
" />
<path d="M207.3180 36.7214
L207.5335 36.9369
" />
<path d="M206.4021 36.3442
L206.7253 36.6675
" />
<path d="M206.5637 36.5059
L207.1294 35.9402
" />
<path d="M207.1294 35.9402
L207.1025 36.0749
" />
<path d="M207.1025 36.0749
L207.1025 36.1826
" />
<path d="M207.1025 36.1826
L207.1294 36.2634
" />
<path d="M206.1327 36.0749
L206.0250 35.9671
" />
<path d="M206.0250 35.9671
L205.9980 35.8863
" />
<path d="M205.9980 35.8863
L205.9980 35.8324
" />
<path d="M205.9980 35.8324
L206.0250 35.6977
" />
<path d="M206.0250 35.6977
L206.1058 35.5631
" />
<path d="M206.1058 35.5631
L206.3213 35.3476
" />
<path d="M206.3213 35.3476
L206.4021 35.3206
" />
<path d="M206.4021 35.3206
L206.4560 35.3206
" />
<path d="M206.4560 35.3206
L206.5368 35.3476
" />
<path d="M206.5368 35.3476
L206.6445 35.4553
" />
<path d="M206.6445 35.4553
L206.6715 35.5361
" />
<path d="M206.6715 35.5361
L206.6715 35.5900
" />
<path d="M206.6715 35.5900
L206.6445 35.6708
" />
<path d="M206.6445 35.6708
L206.5098 35.8055
" />
<path d="M206.5098 35.8055
L206.4290 35.8324
" />
<path d="M206.4290 35.8324
L206.3751 35.8324
" />
<path d="M206.3751 35.8324
L206.2943 35.8055
" />
<path d="M206.2943 35.8055
L206.1866 35.6977
" />
<path d="M206.1866 35.6977
L206.1596 35.6169
" />
<path d="M206.1596 35.6169
L206.1596 35.5631
" />
<path d="M206.1596 35.5631
L206.1866 35.4822
" />
</g><g transform="rotate(-45.000000 208.2722 61.7460)">
<text x="208.2722" y="62.1460"
textLength="3.4138" font-size="1.0667" lengthAdjust="spacingAndGlyphs"
text-anchor="middle" opacity="0">GP12</text>
</g>
<g class="stroked-text"><desc>GP12</desc>
<path d="M209.2282 62.1369
L209.3090 62.1638
" />
<path d="M209.3090 62.1638
L209.3898 62.2446
" />
<path d="M209.3898 62.2446
L209.4437 62.3524
" />
<path d="M209.4437 62.3524
L209.4437 62.4601
" />
<path d="M209.4437 62.4601
L209.4168 62.5409
" />
<path d="M209.4168 62.5409
L209.3360 62.6756
" />
<path d="M209.3360 62.6756
L209.2551 62.7564
" />
<path d="M209.2551 62.7564
L209.1205 62.8372
" />
<path d="M209.1205 62.8372
L209.0396 62.8642
" />
<path d="M209.0396 62.8642
L208.9319 62.8642
" />
<path d="M208.9319 62.8642
L208.8241 62.8103
" />
<path d="M208.8241 62.8103
L208.7703 62.7564
" />
<path d="M208.7703 62.7564
L208.7164 62.6487
" />
<path d="M208.7164 62.6487
L208.7164 62.5948
" />
<path d="M208.7164 62.5948
L208.9050 62.4062
" />
<path d="M208.9050 62.4062
L209.0127 62.5140
" />
<path d="M208.4201 62.4062
L208.9858 61.8406
" />
<path d="M208.9858 61.8406
L208.7703 61.6251
" />
<path d="M208.7703 61.6251
L208.6895 61.5981
" />
<path d="M208.6895 61.5981
L208.6356 61.5981
" />
<path d="M208.6356 61.5981
L208.5548 61.6251
" />
<path d="M208.5548 61.6251
L208.4740 61.7059
" />
<path d="M208.4740 61.7059
L208.4470 61.7867
" />
<path d="M208.4470 61.7867
L208.4470 61.8406
" />
<path d="M208.4470 61.8406
L208.4740 61.9214
" />
<path d="M208.4740 61.9214
L208.6895 62.1369
" />
<path d="M207.5581 61.5442
L207.8813 61.8675
" />
<path d="M207.7197 61.7059
L208.2854 61.1402
" />
<path d="M208.2854 61.1402
L208.2585 61.2749
" />
<path d="M208.2585 61.2749
L208.2585 61.3826
" />
<path d="M208.2585 61.3826
L208.2854 61.4634
" />
<path d="M207.8544 60.8169
L207.8544 60.7631
" />
<path d="M207.8544 60.7631
L207.8275 60.6822
" />
<path d="M207.8275 60.6822
L207.6928 60.5476
" />
<path d="M207.6928 60.5476
L207.6120 60.5206
" />
<path d="M207.6120 60.5206
L207.5581 60.5206
" />
<path d="M207.5581 60.5206
L207.4773 60.5476
" />
<path d="M207.4773 60.5476
L207.4234 60.6014
" />
<path d="M207.4234 60.6014
L207.3695 60.7092
" />
<path d="M207.3695 60.7092
L207.3695 61.3557
" />
<path d="M207.3695 61.3557
L207.0193 61.0055
" />
</g><g transform="rotate(-45.000000 190.4922 61.3460)">
<text x="190.4922" y="61.7460"
textLength="2.6519" font-size="1.0667" lengthAdjust="spacingAndGlyphs"
text-anchor="middle" opacity="0">GP6</text>
</g>
<g class="stroked-text"><desc>GP6</desc>
<path d="M191.1788 61.4675
L191.2596 61.4944
" />
<path d="M191.2596 61.4944
L191.3405 61.5752
" />
<path d="M191.3405 61.5752
L191.3943 61.6830
" />
<path d="M191.3943 61.6830
L191.3943 61.7907
" />
<path d="M191.3943 61.7907
L191.3674 61.8716
" />
<path d="M191.3674 61.8716
L191.2866 62.0062
" />
<path d="M191.2866 62.0062
L191.2058 62.0871
" />
<path d="M191.2058 62.0871
L191.0711 62.1679
" />
<path d="M191.0711 62.1679
L190.9903 62.1948
" />
<path d="M190.9903 62.1948
L190.8825 62.1948
" />
<path d="M190.8825 62.1948
L190.7748 62.1409
" />
<path d="M190.7748 62.1409
L190.7209 62.0871
" />
<path d="M190.7209 62.0871
L190.6670 61.9793
" />
<path d="M190.6670 61.9793
L190.6670 61.9254
" />
<path d="M190.6670 61.9254
L190.8556 61.7369
" />
<path d="M190.8556 61.7369
L190.9633 61.8446
" />
<path d="M190.3707 61.7369
L190.9364 61.1712
" />
<path d="M190.9364 61.1712
L190.7209 60.9557
" />
<path d="M190.7209 60.9557
L190.6401 60.9287
" />
<path d="M190.6401 60.9287
L190.5862 60.9287
" />
<path d="M190.5862 60.9287
L190.5054 60.9557
" />
<path d="M190.5054 60.9557
L190.4246 61.0365
" />
<path d="M190.4246 61.0365
L190.3976 61.1173
" />
<path d="M190.3976 61.1173
L190.3976 61.1712
" />
<path d="M190.3976 61.1712
L190.4246 61.2520
" />
<path d="M190.4246 61.2520
L190.6401 61.4675
" />
<path d="M190.1283 60.3631
L190.2360 60.4708
" />
<path d="M190.2360 60.4708
L190.2630 60.5516
" />
<path d="M190.2630 60.5516
L190.2630 60.6055
" />
<path d="M190.2630 60.6055
L190.2360 60.7402
" />
<path d="M190.2360 60.7402
L190.1552 60.8749
" />
<path d="M190.1552 60.8749
L189.9397 61.0904
" />
<path d="M189.9397 61.0904
L189.8589 61.1173
" />
<path d="M189.8589 61.1173
L189.8050 61.1173
" />
<path d="M189.8050 61.1173
L189.7242 61.0904
" />
<path d="M189.7242 61.0904
L189.6165 60.9826
" />
<path d="M189.6165 60.9826
L189.5895 60.9018
" />
<path d="M189.5895 60.9018
L189.5895 60.8479
" />
<path d="M189.5895 60.8479
L189.6165 60.7671
" />
<path d="M189.6165 60.7671
L189.7511 60.6324
" />
<path d="M189.7511 60.6324
L189.8320 60.6055
" />
<path d="M189.8320 60.6055
L189.8858 60.6055
" />
<path d="M189.8858 60.6055
L189.9666 60.6324
" />
<path d="M189.9666 60.6324
L190.0744 60.7402
" />
<path d="M190.0744 60.7402
L190.1013 60.8210
" />
<path d="M190.1013 60.8210
L190.1013 60.8749
" />
<path d="M190.1013 60.8749
L190.0744 60.9557
" />
</g><g transform="rotate(-45.000000 172.7022 61.4460)">
<text x="172.7022" y="61.8460"
textLength="2.6519" font-size="1.0667" lengthAdjust="spacingAndGlyphs"
text-anchor="middle" opacity="0">GP1</text>
</g>
<g class="stroked-text"><desc>GP1</desc>
<path d="M173.3888 61.5675
L173.4696 61.5944
" />
<path d="M173.4696 61.5944
L173.5505 61.6752
" />
<path d="M173.5505 61.6752
L173.6043 61.7830
" />
<path d="M173.6043 61.7830
L173.6043 61.8907
" />
<path d="M173.6043 61.8907
L173.5774 61.9716
" />
<path d="M173.5774 61.9716
L173.4966 62.1062
" />
<path d="M173.4966 62.1062
L173.4158 62.1871
" />
<path d="M173.4158 62.1871
L173.2811 62.2679
" />
<path d="M173.2811 62.2679
L173.2003 62.2948
" />
<path d="M173.2003 62.2948
L173.0925 62.2948
" />
<path d="M173.0925 62.2948
L172.9848 62.2409
" />
<path d="M172.9848 62.2409
L172.9309 62.1871
" />
<path d="M172.9309 62.1871
L172.8770 62.0793
" />
<path d="M172.8770 62.0793
L172.8770 62.0254
" />
<path d="M172.8770 62.0254
L173.0656 61.8369
" />
<path d="M173.0656 61.8369
L173.1733 61.9446
" />
<path d="M172.5807 61.8369
L173.1464 61.2712
" />
<path d="M173.1464 61.2712
L172.9309 61.0557
" />
<path d="M172.9309 61.0557
L172.8501 61.0287
" />
<path d="M172.8501 61.0287
L172.7962 61.0287
" />
<path d="M172.7962 61.0287
L172.7154 61.0557
" />
<path d="M172.7154 61.0557
L172.6346 61.1365
" />
<path d="M172.6346 61.1365
L172.6076 61.2173
" />
<path d="M172.6076 61.2173
L172.6076 61.2712
" />
<path d="M172.6076 61.2712
L172.6346 61.3520
" />
<path d="M172.6346 61.3520
L172.8501 61.5675
" />
<path d="M171.7187 60.9749
L172.0420 61.2981
" />
<path d="M171.8803 61.1365
L172.4460 60.5708
" />
<path d="M172.4460 60.5708
L172.4191 60.7055
" />
<path d="M172.4191 60.7055
L172.4191 60.8132
" />
<path d="M172.4191 60.8132
L172.4460 60.8941
" />
</g><g transform="rotate(-45.000000 194.4162 36.6000)">
<text x="194.4162" y="37.0000"
textLength="2.7662" font-size="1.0667" lengthAdjust="spacingAndGlyphs"
text-anchor="middle" opacity="0">RUN</text>
</g>
<g class="stroked-text"><desc>RUN</desc>
<path d="M194.5775 37.2737
L195.0355 37.1929
" />
<path d="M194.9008 37.5970
L195.4665 37.0313
" />
<path d="M195.4665 37.0313
L195.2510 36.8158
" />
<path d="M195.2510 36.8158
L195.1702 36.7888
" />
<path d="M195.1702 36.7888
L195.1163 36.7888
" />
<path d="M195.1163 36.7888
L195.0355 36.8158
" />
<path d="M195.0355 36.8158
L194.9547 36.8966
" />
<path d="M194.9547 36.8966
L194.9277 36.9774
" />
<path d="M194.9277 36.9774
L194.9277 37.0313
" />
<path d="M194.9277 37.0313
L194.9547 37.1121
" />
<path d="M194.9547 37.1121
L195.1702 37.3276
" />
<path d="M194.9008 36.4656
L194.4429 36.9235
" />
<path d="M194.4429 36.9235
L194.3620 36.9505
" />
<path d="M194.3620 36.9505
L194.3082 36.9505
" />
<path d="M194.3082 36.9505
L194.2274 36.9235
" />
<path d="M194.2274 36.9235
L194.1196 36.8158
" />
<path d="M194.1196 36.8158
L194.0927 36.7350
" />
<path d="M194.0927 36.7350
L194.0927 36.6811
" />
<path d="M194.0927 36.6811
L194.1196 36.6003
" />
<path d="M194.1196 36.6003
L194.5775 36.1423
" />
<path d="M193.7425 36.4387
L194.3082 35.8730
" />
<path d="M194.3082 35.8730
L193.4192 36.1154
" />
<path d="M193.4192 36.1154
L193.9849 35.5497
" />
</g><g transform="rotate(-45.000000 209.6562 36.5460)">
<text x="209.6562" y="36.9460"
textLength="3.4138" font-size="1.0667" lengthAdjust="spacingAndGlyphs"
text-anchor="middle" opacity="0">GP18</text>
</g>
<g class="stroked-text"><desc>GP18</desc>
<path d="M210.6122 36.9369
L210.6930 36.9638
" />
<path d="M210.6930 36.9638
L210.7738 37.0446
" />
<path d="M210.7738 37.0446
L210.8277 37.1524
" />
<path d="M210.8277 37.1524
L210.8277 37.2601
" />
<path d="M210.8277 37.2601
L210.8008 37.3409
" />
<path d="M210.8008 37.3409
L210.7200 37.4756
" />
<path d="M210.7200 37.4756
L210.6391 37.5564
" />
<path d="M210.6391 37.5564
L210.5045 37.6372
" />
<path d="M210.5045 37.6372
L210.4236 37.6642
" />
<path d="M210.4236 37.6642
L210.3159 37.6642
" />
<path d="M210.3159 37.6642
L210.2081 37.6103
" />
<path d="M210.2081 37.6103
L210.1543 37.5564
" />
<path d="M210.1543 37.5564
L210.1004 37.4487
" />
<path d="M210.1004 37.4487
L210.1004 37.3948
" />
<path d="M210.1004 37.3948
L210.2890 37.2062
" />
<path d="M210.2890 37.2062
L210.3967 37.3140
" />
<path d="M209.8041 37.2062
L210.3698 36.6406
" />
<path d="M210.3698 36.6406
L210.1543 36.4251
" />
<path d="M210.1543 36.4251
L210.0735 36.3981
" />
<path d="M210.0735 36.3981
L210.0196 36.3981
" />
<path d="M210.0196 36.3981
L209.9388 36.4251
" />
<path d="M209.9388 36.4251
L209.8580 36.5059
" />
<path d="M209.8580 36.5059
L209.8310 36.5867
" />
<path d="M209.8310 36.5867
L209.8310 36.6406
" />
<path d="M209.8310 36.6406
L209.8580 36.7214
" />
<path d="M209.8580 36.7214
L210.0735 36.9369
" />
<path d="M208.9421 36.3442
L209.2653 36.6675
" />
<path d="M209.1037 36.5059
L209.6694 35.9402
" />
<path d="M209.6694 35.9402
L209.6425 36.0749
" />
<path d="M209.6425 36.0749
L209.6425 36.1826
" />
<path d="M209.6425 36.1826
L209.6694 36.2634
" />
<path d="M208.9421 35.6977
L209.0229 35.7247
" />
<path d="M209.0229 35.7247
L209.0768 35.7247
" />
<path d="M209.0768 35.7247
L209.1576 35.6977
" />
<path d="M209.1576 35.6977
L209.1845 35.6708
" />
<path d="M209.1845 35.6708
L209.2115 35.5900
" />
<path d="M209.2115 35.5900
L209.2115 35.5361
" />
<path d="M209.2115 35.5361
L209.1845 35.4553
" />
<path d="M209.1845 35.4553
L209.0768 35.3476
" />
<path d="M209.0768 35.3476
L208.9960 35.3206
" />
<path d="M208.9960 35.3206
L208.9421 35.3206
" />
<path d="M208.9421 35.3206
L208.8613 35.3476
" />
<path d="M208.8613 35.3476
L208.8343 35.3745
" />
<path d="M208.8343 35.3745
L208.8074 35.4553
" />
<path d="M208.8074 35.4553
L208.8074 35.5092
" />
<path d="M208.8074 35.5092
L208.8343 35.5900
" />
<path d="M208.8343 35.5900
L208.9421 35.6977
" />
<path d="M208.9421 35.6977
L208.9690 35.7786
" />
<path d="M208.9690 35.7786
L208.9690 35.8324
" />
<path d="M208.9690 35.8324
L208.9421 35.9132
" />
<path d="M208.9421 35.9132
L208.8343 36.0210
" />
<path d="M208.8343 36.0210
L208.7535 36.0479
" />
<path d="M208.7535 36.0479
L208.6996 36.0479
" />
<path d="M208.6996 36.0479
L208.6188 36.0210
" />
<path d="M208.6188 36.0210
L208.5111 35.9132
" />
<path d="M208.5111 35.9132
L208.4841 35.8324
" />
<path d="M208.4841 35.8324
L208.4841 35.7786
" />
<path d="M208.4841 35.7786
L208.5111 35.6977
" />
<path d="M208.5111 35.6977
L208.6188 35.5900
" />
<path d="M208.6188 35.5900
L208.6996 35.5631
" />
<path d="M208.6996 35.5631
L208.7535 35.5631
" />
<path d="M208.7535 35.5631
L208.8343 35.5900
" />
</g><g transform="rotate(-45.000000 180.3322 61.3460)">
<text x="180.3322" y="61.7460"
textLength="2.6519" font-size="1.0667" lengthAdjust="spacingAndGlyphs"
text-anchor="middle" opacity="0">GP3</text>
</g>
<g class="stroked-text"><desc>GP3</desc>
<path d="M181.0188 61.4675
L181.0996 61.4944
" />
<path d="M181.0996 61.4944
L181.1805 61.5752
" />
<path d="M181.1805 61.5752
L181.2343 61.6830
" />
<path d="M181.2343 61.6830
L181.2343 61.7907
" />
<path d="M181.2343 61.7907
L181.2074 61.8716
" />
<path d="M181.2074 61.8716
L181.1266 62.0062
" />
<path d="M181.1266 62.0062
L181.0458 62.0871
" />
<path d="M181.0458 62.0871
L180.9111 62.1679
" />
<path d="M180.9111 62.1679
L180.8303 62.1948
" />
<path d="M180.8303 62.1948
L180.7225 62.1948
" />
<path d="M180.7225 62.1948
L180.6148 62.1409
" />
<path d="M180.6148 62.1409
L180.5609 62.0871
" />
<path d="M180.5609 62.0871
L180.5070 61.9793
" />
<path d="M180.5070 61.9793
L180.5070 61.9254
" />
<path d="M180.5070 61.9254
L180.6956 61.7369
" />
<path d="M180.6956 61.7369
L180.8033 61.8446
" />
<path d="M180.2107 61.7369
L180.7764 61.1712
" />
<path d="M180.7764 61.1712
L180.5609 60.9557
" />
<path d="M180.5609 60.9557
L180.4801 60.9287
" />
<path d="M180.4801 60.9287
L180.4262 60.9287
" />
<path d="M180.4262 60.9287
L180.3454 60.9557
" />
<path d="M180.3454 60.9557
L180.2646 61.0365
" />
<path d="M180.2646 61.0365
L180.2376 61.1173
" />
<path d="M180.2376 61.1173
L180.2376 61.1712
" />
<path d="M180.2376 61.1712
L180.2646 61.2520
" />
<path d="M180.2646 61.2520
L180.4801 61.4675
" />
<path d="M180.2646 60.6594
L179.9144 60.3092
" />
<path d="M179.9144 60.3092
L179.8875 60.7132
" />
<path d="M179.8875 60.7132
L179.8066 60.6324
" />
<path d="M179.8066 60.6324
L179.7258 60.6055
" />
<path d="M179.7258 60.6055
L179.6720 60.6055
" />
<path d="M179.6720 60.6055
L179.5911 60.6324
" />
<path d="M179.5911 60.6324
L179.4565 60.7671
" />
<path d="M179.4565 60.7671
L179.4295 60.8479
" />
<path d="M179.4295 60.8479
L179.4295 60.9018
" />
<path d="M179.4295 60.9018
L179.4565 60.9826
" />
<path d="M179.4565 60.9826
L179.6181 61.1442
" />
<path d="M179.6181 61.1442
L179.6989 61.1712
" />
<path d="M179.6989 61.1712
L179.7528 61.1712
" />
</g><g transform="rotate(-45.000000 214.7362 36.5460)">
<text x="214.7362" y="36.9460"
textLength="3.4138" font-size="1.0667" lengthAdjust="spacingAndGlyphs"
text-anchor="middle" opacity="0">GP17</text>
</g>
<g class="stroked-text"><desc>GP17</desc>
<path d="M215.6922 36.9369
L215.7730 36.9638
" />
<path d="M215.7730 36.9638
L215.8538 37.0446
" />
<path d="M215.8538 37.0446
L215.9077 37.1524
" />
<path d="M215.9077 37.1524
L215.9077 37.2601
" />
<path d="M215.9077 37.2601
L215.8808 37.3409
" />
<path d="M215.8808 37.3409
L215.8000 37.4756
" />
<path d="M215.8000 37.4756
L215.7191 37.5564
" />
<path d="M215.7191 37.5564
L215.5845 37.6372
" />
<path d="M215.5845 37.6372
L215.5036 37.6642
" />
<path d="M215.5036 37.6642
L215.3959 37.6642
" />
<path d="M215.3959 37.6642
L215.2881 37.6103
" />
<path d="M215.2881 37.6103
L215.2343 37.5564
" />
<path d="M215.2343 37.5564
L215.1804 37.4487
" />
<path d="M215.1804 37.4487
L215.1804 37.3948
" />
<path d="M215.1804 37.3948
L215.3690 37.2062
" />
<path d="M215.3690 37.2062
L215.4767 37.3140
" />
<path d="M214.8841 37.2062
L215.4498 36.6406
" />
<path d="M215.4498 36.6406
L215.2343 36.4251
" />
<path d="M215.2343 36.4251
L215.1535 36.3981
" />
<path d="M215.1535 36.3981
L215.0996 36.3981
" />
<path d="M215.0996 36.3981
L215.0188 36.4251
" />
<path d="M215.0188 36.4251
L214.9380 36.5059
" />
<path d="M214.9380 36.5059
L214.9110 36.5867
" />
<path d="M214.9110 36.5867
L214.9110 36.6406
" />
<path d="M214.9110 36.6406
L214.9380 36.7214
" />
<path d="M214.9380 36.7214
L215.1535 36.9369
" />
<path d="M214.0221 36.3442
L214.3453 36.6675
" />
<path d="M214.1837 36.5059
L214.7494 35.9402
" />
<path d="M214.7494 35.9402
L214.7225 36.0749
" />
<path d="M214.7225 36.0749
L214.7225 36.1826
" />
<path d="M214.7225 36.1826
L214.7494 36.2634
" />
<path d="M214.3992 35.5900
L214.0221 35.2129
" />
<path d="M214.0221 35.2129
L213.6988 36.0210
" />
</g><g transform="rotate(-45.000000 177.7922 61.4460)">
<text x="177.7922" y="61.8460"
textLength="2.6519" font-size="1.0667" lengthAdjust="spacingAndGlyphs"
text-anchor="middle" opacity="0">GP2</text>
</g>
<g class="stroked-text"><desc>GP2</desc>
<path d="M178.4788 61.5675
L178.5596 61.5944
" />
<path d="M178.5596 61.5944
L178.6405 61.6752
" />
<path d="M178.6405 61.6752
L178.6943 61.7830
" />
<path d="M178.6943 61.7830
L178.6943 61.8907
" />
<path d="M178.6943 61.8907
L178.6674 61.9716
" />
<path d="M178.6674 61.9716
L178.5866 62.1062
" />
<path d="M178.5866 62.1062
L178.5058 62.1871
" />
<path d="M178.5058 62.1871
L178.3711 62.2679
" />
<path d="M178.3711 62.2679
L178.2903 62.2948
" />
<path d="M178.2903 62.2948
L178.1825 62.2948
" />
<path d="M178.1825 62.2948
L178.0748 62.2409
" />
<path d="M178.0748 62.2409
L178.0209 62.1871
" />
<path d="M178.0209 62.1871
L177.9670 62.0793
" />
<path d="M177.9670 62.0793
L177.9670 62.0254
" />
<path d="M177.9670 62.0254
L178.1556 61.8369
" />
<path d="M178.1556 61.8369
L178.2633 61.9446
" />
<path d="M177.6707 61.8369
L178.2364 61.2712
" />
<path d="M178.2364 61.2712
L178.0209 61.0557
" />
<path d="M178.0209 61.0557
L177.9401 61.0287
" />
<path d="M177.9401 61.0287
L177.8862 61.0287
" />
<path d="M177.8862 61.0287
L177.8054 61.0557
" />
<path d="M177.8054 61.0557
L177.7246 61.1365
" />
<path d="M177.7246 61.1365
L177.6976 61.2173
" />
<path d="M177.6976 61.2173
L177.6976 61.2712
" />
<path d="M177.6976 61.2712
L177.7246 61.3520
" />
<path d="M177.7246 61.3520
L177.9401 61.5675
" />
<path d="M177.6438 60.7863
L177.6438 60.7324
" />
<path d="M177.6438 60.7324
L177.6168 60.6516
" />
<path d="M177.6168 60.6516
L177.4821 60.5169
" />
<path d="M177.4821 60.5169
L177.4013 60.4900
" />
<path d="M177.4013 60.4900
L177.3475 60.4900
" />
<path d="M177.3475 60.4900
L177.2666 60.5169
" />
<path d="M177.2666 60.5169
L177.2128 60.5708
" />
<path d="M177.2128 60.5708
L177.1589 60.6786
" />
<path d="M177.1589 60.6786
L177.1589 61.3251
" />
<path d="M177.1589 61.3251
L176.8087 60.9749
" />
</g><g transform="rotate(-45.000000 200.0802 61.2830)">
<text x="200.0802" y="61.6830"
textLength="2.7281" font-size="1.0667" lengthAdjust="spacingAndGlyphs"
text-anchor="middle" opacity="0">GND</text>
</g>
<g class="stroked-text"><desc>GND</desc>
<path d="M200.7938 61.4314
L200.8746 61.4584
" />
<path d="M200.8746 61.4584
L200.9554 61.5392
" />
<path d="M200.9554 61.5392
L201.0093 61.6469
" />
<path d="M201.0093 61.6469
L201.0093 61.7547
" />
<path d="M201.0093 61.7547
L200.9823 61.8355
" />
<path d="M200.9823 61.8355
L200.9015 61.9702
" />
<path d="M200.9015 61.9702
L200.8207 62.0510
" />
<path d="M200.8207 62.0510
L200.6860 62.1318
" />
<path d="M200.6860 62.1318
L200.6052 62.1587
" />
<path d="M200.6052 62.1587
L200.4975 62.1587
" />
<path d="M200.4975 62.1587
L200.3897 62.1049
" />
<path d="M200.3897 62.1049
L200.3358 62.0510
" />
<path d="M200.3358 62.0510
L200.2820 61.9432
" />
<path d="M200.2820 61.9432
L200.2820 61.8894
" />
<path d="M200.2820 61.8894
L200.4705 61.7008
" />
<path d="M200.4705 61.7008
L200.5783 61.8086
" />
<path d="M199.9856 61.7008
L200.5513 61.1351
" />
<path d="M200.5513 61.1351
L199.6624 61.3776
" />
<path d="M199.6624 61.3776
L200.2281 60.8119
" />
<path d="M199.3930 61.1082
L199.9587 60.5425
" />
<path d="M199.9587 60.5425
L199.8240 60.4078
" />
<path d="M199.8240 60.4078
L199.7163 60.3539
" />
<path d="M199.7163 60.3539
L199.6085 60.3539
" />
<path d="M199.6085 60.3539
L199.5277 60.3809
" />
<path d="M199.5277 60.3809
L199.3930 60.4617
" />
<path d="M199.3930 60.4617
L199.3122 60.5425
" />
<path d="M199.3122 60.5425
L199.2314 60.6772
" />
<path d="M199.2314 60.6772
L199.2045 60.7580
" />
<path d="M199.2045 60.7580
L199.2045 60.8657
" />
<path d="M199.2045 60.8657
L199.2583 60.9735
" />
<path d="M199.2583 60.9735
L199.3930 61.1082
" />
</g><g transform="rotate(-45.000000 196.9562 36.5460)">
<text x="196.9562" y="36.9460"
textLength="3.4138" font-size="1.0667" lengthAdjust="spacingAndGlyphs"
text-anchor="middle" opacity="0">GP22</text>
</g>
<g class="stroked-text"><desc>GP22</desc>
<path d="M197.9122 36.9369
L197.9930 36.9638
" />
<path d="M197.9930 36.9638
L198.0738 37.0446
" />
<path d="M198.0738 37.0446
L198.1277 37.1524
" />
<path d="M198.1277 37.1524
L198.1277 37.2601
" />
<path d="M198.1277 37.2601
L198.1008 37.3409
" />
<path d="M198.1008 37.3409
L198.0200 37.4756
" />
<path d="M198.0200 37.4756
L197.9391 37.5564
" />
<path d="M197.9391 37.5564
L197.8045 37.6372
" />
<path d="M197.8045 37.6372
L197.7236 37.6642
" />
<path d="M197.7236 37.6642
L197.6159 37.6642
" />
<path d="M197.6159 37.6642
L197.5081 37.6103
" />
<path d="M197.5081 37.6103
L197.4543 37.5564
" />
<path d="M197.4543 37.5564
L197.4004 37.4487
" />
<path d="M197.4004 37.4487
L197.4004 37.3948
" />
<path d="M197.4004 37.3948
L197.5890 37.2062
" />
<path d="M197.5890 37.2062
L197.6967 37.3140
" />
<path d="M197.1041 37.2062
L197.6698 36.6406
" />
<path d="M197.6698 36.6406
L197.4543 36.4251
" />
<path d="M197.4543 36.4251
L197.3735 36.3981
" />
<path d="M197.3735 36.3981
L197.3196 36.3981
" />
<path d="M197.3196 36.3981
L197.2388 36.4251
" />
<path d="M197.2388 36.4251
L197.1580 36.5059
" />
<path d="M197.1580 36.5059
L197.1310 36.5867
" />
<path d="M197.1310 36.5867
L197.1310 36.6406
" />
<path d="M197.1310 36.6406
L197.1580 36.7214
" />
<path d="M197.1580 36.7214
L197.3735 36.9369
" />
<path d="M197.0771 36.1557
L197.0771 36.1018
" />
<path d="M197.0771 36.1018
L197.0502 36.0210
" />
<path d="M197.0502 36.0210
L196.9155 35.8863
" />
<path d="M196.9155 35.8863
L196.8347 35.8594
" />
<path d="M196.8347 35.8594
L196.7808 35.8594
" />
<path d="M196.7808 35.8594
L196.7000 35.8863
" />
<path d="M196.7000 35.8863
L196.6461 35.9402
" />
<path d="M196.6461 35.9402
L196.5923 36.0479
" />
<path d="M196.5923 36.0479
L196.5923 36.6944
" />
<path d="M196.5923 36.6944
L196.2421 36.3442
" />
<path d="M196.5384 35.6169
L196.5384 35.5631
" />
<path d="M196.5384 35.5631
L196.5115 35.4822
" />
<path d="M196.5115 35.4822
L196.3768 35.3476
" />
<path d="M196.3768 35.3476
L196.2960 35.3206
" />
<path d="M196.2960 35.3206
L196.2421 35.3206
" />
<path d="M196.2421 35.3206
L196.1613 35.3476
" />
<path d="M196.1613 35.3476
L196.1074 35.4014
" />
<path d="M196.1074 35.4014
L196.0535 35.5092
" />
<path d="M196.0535 35.5092
L196.0535 36.1557
" />
<path d="M196.0535 36.1557
L195.7033 35.8055
" />
</g><g transform="rotate(-45.000000 170.1722 61.3460)">
<text x="170.1722" y="61.7460"
textLength="2.6519" font-size="1.0667" lengthAdjust="spacingAndGlyphs"
text-anchor="middle" opacity="0">GP0</text>
</g>
<g class="stroked-text"><desc>GP0</desc>
<path d="M170.8588 61.4675
L170.9396 61.4944
" />
<path d="M170.9396 61.4944
L171.0205 61.5752
" />
<path d="M171.0205 61.5752
L171.0743 61.6830
" />
<path d="M171.0743 61.6830
L171.0743 61.7907
" />
<path d="M171.0743 61.7907
L171.0474 61.8716
" />
<path d="M171.0474 61.8716
L170.9666 62.0062
" />
<path d="M170.9666 62.0062
L170.8858 62.0871
" />
<path d="M170.8858 62.0871
L170.7511 62.1679
" />
<path d="M170.7511 62.1679
L170.6703 62.1948
" />
<path d="M170.6703 62.1948
L170.5625 62.1948
" />
<path d="M170.5625 62.1948
L170.4548 62.1409
" />
<path d="M170.4548 62.1409
L170.4009 62.0871
" />
<path d="M170.4009 62.0871
L170.3470 61.9793
" />
<path d="M170.3470 61.9793
L170.3470 61.9254
" />
<path d="M170.3470 61.9254
L170.5356 61.7369
" />
<path d="M170.5356 61.7369
L170.6433 61.8446
" />
<path d="M170.0507 61.7369
L170.6164 61.1712
" />
<path d="M170.6164 61.1712
L170.4009 60.9557
" />
<path d="M170.4009 60.9557
L170.3201 60.9287
" />
<path d="M170.3201 60.9287
L170.2662 60.9287
" />
<path d="M170.2662 60.9287
L170.1854 60.9557
" />
<path d="M170.1854 60.9557
L170.1046 61.0365
" />
<path d="M170.1046 61.0365
L170.0776 61.1173
" />
<path d="M170.0776 61.1173
L170.0776 61.1712
" />
<path d="M170.0776 61.1712
L170.1046 61.2520
" />
<path d="M170.1046 61.2520
L170.3201 61.4675
" />
<path d="M169.9430 60.4977
L169.8891 60.4439
" />
<path d="M169.8891 60.4439
L169.8083 60.4169
" />
<path d="M169.8083 60.4169
L169.7544 60.4169
" />
<path d="M169.7544 60.4169
L169.6736 60.4439
" />
<path d="M169.6736 60.4439
L169.5389 60.5247
" />
<path d="M169.5389 60.5247
L169.4042 60.6594
" />
<path d="M169.4042 60.6594
L169.3234 60.7941
" />
<path d="M169.3234 60.7941
L169.2965 60.8749
" />
<path d="M169.2965 60.8749
L169.2965 60.9287
" />
<path d="M169.2965 60.9287
L169.3234 61.0096
" />
<path d="M169.3234 61.0096
L169.3773 61.0634
" />
<path d="M169.3773 61.0634
L169.4581 61.0904
" />
<path d="M169.4581 61.0904
L169.5120 61.0904
" />
<path d="M169.5120 61.0904
L169.5928 61.0634
" />
<path d="M169.5928 61.0634
L169.7275 60.9826
" />
<path d="M169.7275 60.9826
L169.8621 60.8479
" />
<path d="M169.8621 60.8479
L169.9430 60.7132
" />
<path d="M169.9430 60.7132
L169.9699 60.6324
" />
<path d="M169.9699 60.6324
L169.9699 60.5786
" />
<path d="M169.9699 60.5786
L169.9430 60.4977
" />
</g><g transform="rotate(-45.000000 179.2462 36.7000)">
<text x="179.2462" y="37.1000"
textLength="2.4995" font-size="1.0667" lengthAdjust="spacingAndGlyphs"
text-anchor="middle" opacity="0">3V3</text>
</g>
<g class="stroked-text"><desc>3V3</desc>
<path d="M180.2561 37.0909
L179.9059 36.7407
" />
<path d="M179.9059 36.7407
L179.8790 37.1447
" />
<path d="M179.8790 37.1447
L179.7981 37.0639
" />
<path d="M179.7981 37.0639
L179.7173 37.0370
" />
<path d="M179.7173 37.0370
L179.6635 37.0370
" />
<path d="M179.6635 37.0370
L179.5826 37.0639
" />
<path d="M179.5826 37.0639
L179.4480 37.1986
" />
<path d="M179.4480 37.1986
L179.4210 37.2794
" />
<path d="M179.4210 37.2794
L179.4210 37.3333
" />
<path d="M179.4210 37.3333
L179.4480 37.4141
" />
<path d="M179.4480 37.4141
L179.6096 37.5757
" />
<path d="M179.6096 37.5757
L179.6904 37.6027
" />
<path d="M179.6904 37.6027
L179.7443 37.6027
" />
<path d="M179.7443 36.5791
L178.9900 36.9562
" />
<path d="M178.9900 36.9562
L179.3671 36.2019
" />
<path d="M179.2325 36.0672
L178.8823 35.7171
" />
<path d="M178.8823 35.7171
L178.8553 36.1211
" />
<path d="M178.8553 36.1211
L178.7745 36.0403
" />
<path d="M178.7745 36.0403
L178.6937 36.0134
" />
<path d="M178.6937 36.0134
L178.6398 36.0134
" />
<path d="M178.6398 36.0134
L178.5590 36.0403
" />
<path d="M178.5590 36.0403
L178.4243 36.1750
" />
<path d="M178.4243 36.1750
L178.3974 36.2558
" />
<path d="M178.3974 36.2558
L178.3974 36.3097
" />
<path d="M178.3974 36.3097
L178.4243 36.3905
" />
<path d="M178.4243 36.3905
L178.5860 36.5521
" />
<path d="M178.5860 36.5521
L178.6668 36.5791
" />
<path d="M178.6668 36.5791
L178.7206 36.5791
" />
</g><g transform="rotate(-45.000000 193.0022 61.2460)">
<text x="193.0022" y="61.6460"
textLength="2.6519" font-size="1.0667" lengthAdjust="spacingAndGlyphs"
text-anchor="middle" opacity="0">GP7</text>
</g>
<g class="stroked-text"><desc>GP7</desc>
<path d="M193.6888 61.3675
L193.7696 61.3944
" />
<path d="M193.7696 61.3944
L193.8505 61.4752
" />
<path d="M193.8505 61.4752
L193.9043 61.5830
" />
<path d="M193.9043 61.5830
L193.9043 61.6907
" />
<path d="M193.9043 61.6907
L193.8774 61.7716
" />
<path d="M193.8774 61.7716
L193.7966 61.9062
" />
<path d="M193.7966 61.9062
L193.7158 61.9871
" />
<path d="M193.7158 61.9871
L193.5811 62.0679
" />
<path d="M193.5811 62.0679
L193.5003 62.0948
" />
<path d="M193.5003 62.0948
L193.3925 62.0948
" />
<path d="M193.3925 62.0948
L193.2848 62.0409
" />
<path d="M193.2848 62.0409
L193.2309 61.9871
" />
<path d="M193.2309 61.9871
L193.1770 61.8793
" />
<path d="M193.1770 61.8793
L193.1770 61.8254
" />
<path d="M193.1770 61.8254
L193.3656 61.6369
" />
<path d="M193.3656 61.6369
L193.4733 61.7446
" />
<path d="M192.8807 61.6369
L193.4464 61.0712
" />
<path d="M193.4464 61.0712
L193.2309 60.8557
" />
<path d="M193.2309 60.8557
L193.1501 60.8287
" />
<path d="M193.1501 60.8287
L193.0962 60.8287
" />
<path d="M193.0962 60.8287
L193.0154 60.8557
" />
<path d="M193.0154 60.8557
L192.9346 60.9365
" />
<path d="M192.9346 60.9365
L192.9076 61.0173
" />
<path d="M192.9076 61.0173
L192.9076 61.0712
" />
<path d="M192.9076 61.0712
L192.9346 61.1520
" />
<path d="M192.9346 61.1520
L193.1501 61.3675
" />
<path d="M192.9346 60.5594
L192.5575 60.1822
" />
<path d="M192.5575 60.1822
L192.2342 60.9904
" />
</g><g transform="rotate(-45.000000 182.8722 61.3460)">
<text x="182.8722" y="61.7460"
textLength="2.6519" font-size="1.0667" lengthAdjust="spacingAndGlyphs"
text-anchor="middle" opacity="0">GP4</text>
</g>
<g class="stroked-text"><desc>GP4</desc>
<path d="M183.5588 61.4675
L183.6396 61.4944
" />
<path d="M183.6396 61.4944
L183.7205 61.5752
" />
<path d="M183.7205 61.5752
L183.7743 61.6830
" />
<path d="M183.7743 61.6830
L183.7743 61.7907
" />
<path d="M183.7743 61.7907
L183.7474 61.8716
" />
<path d="M183.7474 61.8716
L183.6666 62.0062
" />
<path d="M183.6666 62.0062
L183.5858 62.0871
" />
<path d="M183.5858 62.0871
L183.4511 62.1679
" />
<path d="M183.4511 62.1679
L183.3703 62.1948
" />
<path d="M183.3703 62.1948
L183.2625 62.1948
" />
<path d="M183.2625 62.1948
L183.1548 62.1409
" />
<path d="M183.1548 62.1409
L183.1009 62.0871
" />
<path d="M183.1009 62.0871
L183.0470 61.9793
" />
<path d="M183.0470 61.9793
L183.0470 61.9254
" />
<path d="M183.0470 61.9254
L183.2356 61.7369
" />
<path d="M183.2356 61.7369
L183.3433 61.8446
" />
<path d="M182.7507 61.7369
L183.3164 61.1712
" />
<path d="M183.3164 61.1712
L183.1009 60.9557
" />
<path d="M183.1009 60.9557
L183.0201 60.9287
" />
<path d="M183.0201 60.9287
L182.9662 60.9287
" />
<path d="M182.9662 60.9287
L182.8854 60.9557
" />
<path d="M182.8854 60.9557
L182.8046 61.0365
" />
<path d="M182.8046 61.0365
L182.7776 61.1173
" />
<path d="M182.7776 61.1173
L182.7776 61.1712
" />
<path d="M182.7776 61.1712
L182.8046 61.2520
" />
<path d="M182.8046 61.2520
L183.0201 61.4675
" />
<path d="M182.3197 60.5516
L181.9426 60.9287
" />
<path d="M182.6699 60.4708
L182.4005 61.0096
" />
<path d="M182.4005 61.0096
L182.0503 60.6594
" />
</g><g transform="rotate(-45.000000 186.7962 36.5460)">
<text x="186.7962" y="36.9460"
textLength="3.4138" font-size="1.0667" lengthAdjust="spacingAndGlyphs"
text-anchor="middle" opacity="0">AGND</text>
</g>
<g class="stroked-text"><desc>AGND</desc>
<path d="M187.6983 37.6372
L187.4290 37.3679
" />
<path d="M187.5906 37.8527
L187.9677 37.0985
" />
<path d="M187.9677 37.0985
L187.2135 37.4756
" />
<path d="M187.2673 36.4520
L187.3481 36.4789
" />
<path d="M187.3481 36.4789
L187.4290 36.5597
" />
<path d="M187.4290 36.5597
L187.4828 36.6675
" />
<path d="M187.4828 36.6675
L187.4828 36.7752
" />
<path d="M187.4828 36.7752
L187.4559 36.8561
" />
<path d="M187.4559 36.8561
L187.3751 36.9907
" />
<path d="M187.3751 36.9907
L187.2943 37.0716
" />
<path d="M187.2943 37.0716
L187.1596 37.1524
" />
<path d="M187.1596 37.1524
L187.0788 37.1793
" />
<path d="M187.0788 37.1793
L186.9710 37.1793
" />
<path d="M186.9710 37.1793
L186.8633 37.1254
" />
<path d="M186.8633 37.1254
L186.8094 37.0716
" />
<path d="M186.8094 37.0716
L186.7555 36.9638
" />
<path d="M186.7555 36.9638
L186.7555 36.9099
" />
<path d="M186.7555 36.9099
L186.9441 36.7214
" />
<path d="M186.9441 36.7214
L187.0518 36.8291
" />
<path d="M186.4592 36.7214
L187.0249 36.1557
" />
<path d="M187.0249 36.1557
L186.1360 36.3981
" />
<path d="M186.1360 36.3981
L186.7016 35.8324
" />
<path d="M185.8666 36.1287
L186.4323 35.5631
" />
<path d="M186.4323 35.5631
L186.2976 35.4284
" />
<path d="M186.2976 35.4284
L186.1898 35.3745
" />
<path d="M186.1898 35.3745
L186.0821 35.3745
" />
<path d="M186.0821 35.3745
L186.0013 35.4014
" />
<path d="M186.0013 35.4014
L185.8666 35.4822
" />
<path d="M185.8666 35.4822
L185.7858 35.5631
" />
<path d="M185.7858 35.5631
L185.7050 35.6977
" />
<path d="M185.7050 35.6977
L185.6780 35.7786
" />
<path d="M185.6780 35.7786
L185.6780 35.8863
" />
<path d="M185.6780 35.8863
L185.7319 35.9941
" />
<path d="M185.7319 35.9941
L185.8666 36.1287
" />
</g><g transform="rotate(-45.000000 212.1962 36.8000)">
<text x="212.1962" y="37.2000"
textLength="2.7281" font-size="1.0667" lengthAdjust="spacingAndGlyphs"
text-anchor="middle" opacity="0">GND</text>
</g>
<g class="stroked-text"><desc>GND</desc>
<path d="M212.9098 36.9484
L212.9906 36.9754
" />
<path d="M212.9906 36.9754
L213.0714 37.0562
" />
<path d="M213.0714 37.0562
L213.1253 37.1639
" />
<path d="M213.1253 37.1639
L213.1253 37.2717
" />
<path d="M213.1253 37.2717
L213.0983 37.3525
" />
<path d="M213.0983 37.3525
L213.0175 37.4872
" />
<path d="M213.0175 37.4872
L212.9367 37.5680
" />
<path d="M212.9367 37.5680
L212.8020 37.6488
" />
<path d="M212.8020 37.6488
L212.7212 37.6757
" />
<path d="M212.7212 37.6757
L212.6135 37.6757
" />
<path d="M212.6135 37.6757
L212.5057 37.6219
" />
<path d="M212.5057 37.6219
L212.4518 37.5680
" />
<path d="M212.4518 37.5680
L212.3980 37.4602
" />
<path d="M212.3980 37.4602
L212.3980 37.4064
" />
<path d="M212.3980 37.4064
L212.5865 37.2178
" />
<path d="M212.5865 37.2178
L212.6943 37.3256
" />
<path d="M212.1016 37.2178
L212.6673 36.6521
" />
<path d="M212.6673 36.6521
L211.7784 36.8946
" />
<path d="M211.7784 36.8946
L212.3441 36.3289
" />
<path d="M211.5090 36.6252
L212.0747 36.0595
" />
<path d="M212.0747 36.0595
L211.9400 35.9248
" />
<path d="M211.9400 35.9248
L211.8323 35.8709
" />
<path d="M211.8323 35.8709
L211.7245 35.8709
" />
<path d="M211.7245 35.8709
L211.6437 35.8979
" />
<path d="M211.6437 35.8979
L211.5090 35.9787
" />
<path d="M211.5090 35.9787
L211.4282 36.0595
" />
<path d="M211.4282 36.0595
L211.3474 36.1942
" />
<path d="M211.3474 36.1942
L211.3205 36.2750
" />
<path d="M211.3205 36.2750
L211.3205 36.3827
" />
<path d="M211.3205 36.3827
L211.3743 36.4905
" />
<path d="M211.3743 36.4905
L211.5090 36.6252
" />
</g><g transform="rotate(-45.000000 184.0022 36.5460)">
<text x="184.0022" y="36.9460"
textLength="3.4138" font-size="1.0667" lengthAdjust="spacingAndGlyphs"
text-anchor="middle" opacity="0">GP28</text>
</g>
<g class="stroked-text"><desc>GP28</desc>
<path d="M184.9582 36.9369
L185.0390 36.9638
" />
<path d="M185.0390 36.9638
L185.1198 37.0446
" />
<path d="M185.1198 37.0446
L185.1737 37.1524
" />
<path d="M185.1737 37.1524
L185.1737 37.2601
" />
<path d="M185.1737 37.2601
L185.1468 37.3409
" />
<path d="M185.1468 37.3409
L185.0660 37.4756
" />
<path d="M185.0660 37.4756
L184.9851 37.5564
" />
<path d="M184.9851 37.5564
L184.8505 37.6372
" />
<path d="M184.8505 37.6372
L184.7696 37.6642
" />
<path d="M184.7696 37.6642
L184.6619 37.6642
" />
<path d="M184.6619 37.6642
L184.5541 37.6103
" />
<path d="M184.5541 37.6103
L184.5003 37.5564
" />
<path d="M184.5003 37.5564
L184.4464 37.4487
" />
<path d="M184.4464 37.4487
L184.4464 37.3948
" />
<path d="M184.4464 37.3948
L184.6350 37.2062
" />
<path d="M184.6350 37.2062
L184.7427 37.3140
" />
<path d="M184.1501 37.2062
L184.7158 36.6406
" />
<path d="M184.7158 36.6406
L184.5003 36.4251
" />
<path d="M184.5003 36.4251
L184.4195 36.3981
" />
<path d="M184.4195 36.3981
L184.3656 36.3981
" />
<path d="M184.3656 36.3981
L184.2848 36.4251
" />
<path d="M184.2848 36.4251
L184.2040 36.5059
" />
<path d="M184.2040 36.5059
L184.1770 36.5867
" />
<path d="M184.1770 36.5867
L184.1770 36.6406
" />
<path d="M184.1770 36.6406
L184.2040 36.7214
" />
<path d="M184.2040 36.7214
L184.4195 36.9369
" />
<path d="M184.1231 36.1557
L184.1231 36.1018
" />
<path d="M184.1231 36.1018
L184.0962 36.0210
" />
<path d="M184.0962 36.0210
L183.9615 35.8863
" />
<path d="M183.9615 35.8863
L183.8807 35.8594
" />
<path d="M183.8807 35.8594
L183.8268 35.8594
" />
<path d="M183.8268 35.8594
L183.7460 35.8863
" />
<path d="M183.7460 35.8863
L183.6921 35.9402
" />
<path d="M183.6921 35.9402
L183.6383 36.0479
" />
<path d="M183.6383 36.0479
L183.6383 36.6944
" />
<path d="M183.6383 36.6944
L183.2881 36.3442
" />
<path d="M183.2881 35.6977
L183.3689 35.7247
" />
<path d="M183.3689 35.7247
L183.4228 35.7247
" />
<path d="M183.4228 35.7247
L183.5036 35.6977
" />
<path d="M183.5036 35.6977
L183.5305 35.6708
" />
<path d="M183.5305 35.6708
L183.5575 35.5900
" />
<path d="M183.5575 35.5900
L183.5575 35.5361
" />
<path d="M183.5575 35.5361
L183.5305 35.4553
" />
<path d="M183.5305 35.4553
L183.4228 35.3476
" />
<path d="M183.4228 35.3476
L183.3420 35.3206
" />
<path d="M183.3420 35.3206
L183.2881 35.3206
" />
<path d="M183.2881 35.3206
L183.2073 35.3476
" />
<path d="M183.2073 35.3476
L183.1803 35.3745
" />
<path d="M183.1803 35.3745
L183.1534 35.4553
" />
<path d="M183.1534 35.4553
L183.1534 35.5092
" />
<path d="M183.1534 35.5092
L183.1803 35.5900
" />
<path d="M183.1803 35.5900
L183.2881 35.6977
" />
<path d="M183.2881 35.6977
L183.3150 35.7786
" />
<path d="M183.3150 35.7786
L183.3150 35.8324
" />
<path d="M183.3150 35.8324
L183.2881 35.9132
" />
<path d="M183.2881 35.9132
L183.1803 36.0210
" />
<path d="M183.1803 36.0210
L183.0995 36.0479
" />
<path d="M183.0995 36.0479
L183.0456 36.0479
" />
<path d="M183.0456 36.0479
L182.9648 36.0210
" />
<path d="M182.9648 36.0210
L182.8571 35.9132
" />
<path d="M182.8571 35.9132
L182.8301 35.8324
" />
<path d="M182.8301 35.8324
L182.8301 35.7786
" />
<path d="M182.8301 35.7786
L182.8571 35.6977
" />
<path d="M182.8571 35.6977
L182.9648 35.5900
" />
<path d="M182.9648 35.5900
L183.0456 35.5631
" />
<path d="M183.0456 35.5631
L183.0995 35.5631
" />
<path d="M183.0995 35.5631
L183.1803 35.5900
" />
</g><g transform="rotate(-45.000000 215.8922 61.6460)">
<text x="215.8922" y="62.0460"
textLength="3.4138" font-size="1.0667" lengthAdjust="spacingAndGlyphs"
text-anchor="middle" opacity="0">GP14</text>
</g>
<g class="stroked-text"><desc>GP14</desc>
<path d="M216.8482 62.0369
L216.9290 62.0638
" />
<path d="M216.9290 62.0638
L217.0098 62.1446
" />
<path d="M217.0098 62.1446
L217.0637 62.2524
" />
<path d="M217.0637 62.2524
L217.0637 62.3601
" />
<path d="M217.0637 62.3601
L217.0368 62.4409
" />
<path d="M217.0368 62.4409
L216.9560 62.5756
" />
<path d="M216.9560 62.5756
L216.8751 62.6564
" />
<path d="M216.8751 62.6564
L216.7405 62.7372
" />
<path d="M216.7405 62.7372
L216.6596 62.7642
" />
<path d="M216.6596 62.7642
L216.5519 62.7642
" />
<path d="M216.5519 62.7642
L216.4441 62.7103
" />
<path d="M216.4441 62.7103
L216.3903 62.6564
" />
<path d="M216.3903 62.6564
L216.3364 62.5487
" />
<path d="M216.3364 62.5487
L216.3364 62.4948
" />
<path d="M216.3364 62.4948
L216.5250 62.3062
" />
<path d="M216.5250 62.3062
L216.6327 62.4140
" />
<path d="M216.0401 62.3062
L216.6058 61.7406
" />
<path d="M216.6058 61.7406
L216.3903 61.5251
" />
<path d="M216.3903 61.5251
L216.3095 61.4981
" />
<path d="M216.3095 61.4981
L216.2556 61.4981
" />
<path d="M216.2556 61.4981
L216.1748 61.5251
" />
<path d="M216.1748 61.5251
L216.0940 61.6059
" />
<path d="M216.0940 61.6059
L216.0670 61.6867
" />
<path d="M216.0670 61.6867
L216.0670 61.7406
" />
<path d="M216.0670 61.7406
L216.0940 61.8214
" />
<path d="M216.0940 61.8214
L216.3095 62.0369
" />
<path d="M215.1781 61.4442
L215.5013 61.7675
" />
<path d="M215.3397 61.6059
L215.9054 61.0402
" />
<path d="M215.9054 61.0402
L215.8785 61.1749
" />
<path d="M215.8785 61.1749
L215.8785 61.2826
" />
<path d="M215.8785 61.2826
L215.9054 61.3634
" />
<path d="M215.0703 60.5822
L214.6932 60.9594
" />
<path d="M215.4205 60.5014
L215.1511 61.0402
" />
<path d="M215.1511 61.0402
L214.8010 60.6900
" />
</g><g transform="rotate(-90.000000 220.2022 54.7000)">
<text x="220.2022" y="55.1000"
textLength="4.2138" font-size="1.0667" lengthAdjust="spacingAndGlyphs"
text-anchor="middle" opacity="0">SWCLK</text>
</g>
<g class="stroked-text"><desc>SWCLK</desc>
<path d="M219.8780 56.5095
L219.8399 56.3952
" />
<path d="M219.8399 56.3952
L219.8399 56.2048
" />
<path d="M219.8399 56.2048
L219.8780 56.1286
" />
<path d="M219.8780 56.1286
L219.9161 56.0905
" />
<path d="M219.9161 56.0905
L219.9923 56.0524
" />
<path d="M219.9923 56.0524
L220.0685 56.0524
" />
<path d="M220.0685 56.0524
L220.1447 56.0905
" />
<path d="M220.1447 56.0905
L220.1828 56.1286
" />
<path d="M220.1828 56.1286
L220.2209 56.2048
" />
<path d="M220.2209 56.2048
L220.2590 56.3571
" />
<path d="M220.2590 56.3571
L220.2970 56.4333
" />
<path d="M220.2970 56.4333
L220.3351 56.4714
" />
<path d="M220.3351 56.4714
L220.4113 56.5095
" />
<path d="M220.4113 56.5095
L220.4875 56.5095
" />
<path d="M220.4875 56.5095
L220.5637 56.4714
" />
<path d="M220.5637 56.4714
L220.6018 56.4333
" />
<path d="M220.6018 56.4333
L220.6399 56.3571
" />
<path d="M220.6399 56.3571
L220.6399 56.1667
" />
<path d="M220.6399 56.1667
L220.6018 56.0524
" />
<path d="M220.6399 55.7857
L219.8399 55.5952
" />
<path d="M219.8399 55.5952
L220.4113 55.4429
" />
<path d="M220.4113 55.4429
L219.8399 55.2905
" />
<path d="M219.8399 55.2905
L220.6399 55.1000
" />
<path d="M219.9161 54.3381
L219.8780 54.3762
" />
<path d="M219.8780 54.3762
L219.8399 54.4905
" />
<path d="M219.8399 54.4905
L219.8399 54.5667
" />
<path d="M219.8399 54.5667
L219.8780 54.6810
" />
<path d="M219.8780 54.6810
L219.9542 54.7571
" />
<path d="M219.9542 54.7571
L220.0304 54.7952
" />
<path d="M220.0304 54.7952
L220.1828 54.8333
" />
<path d="M220.1828 54.8333
L220.2970 54.8333
" />
<path d="M220.2970 54.8333
L220.4494 54.7952
" />
<path d="M220.4494 54.7952
L220.5256 54.7571
" />
<path d="M220.5256 54.7571
L220.6018 54.6810
" />
<path d="M220.6018 54.6810
L220.6399 54.5667
" />
<path d="M220.6399 54.5667
L220.6399 54.4905
" />
<path d="M220.6399 54.4905
L220.6018 54.3762
" />
<path d="M220.6018 54.3762
L220.5637 54.3381
" />
<path d="M219.8399 53.6143
L219.8399 53.9952
" />
<path d="M219.8399 53.9952
L220.6399 53.9952
" />
<path d="M219.8399 53.3476
L220.6399 53.3476
" />
<path d="M219.8399 52.8905
L220.2970 53.2333
" />
<path d="M220.6399 52.8905
L220.1828 53.3476
" />
</g><circle cx="267.0022" cy="119.0000" r="3.0000" /> 
<circle cx="192.0022" cy="67.0000" r="3.0000" /> 
<circle cx="267.0022" cy="67.0000" r="3.0000" /> 
<circle cx="178.0222" cy="121.5200" r="2.3500" /> 
<circle cx="255.0022" cy="23.0000" r="2.3500" /> 
<circle cx="117.0022" cy="67.0000" r="3.0000" /> 
<circle cx="192.0022" cy="119.0000" r="3.0000" /> 
<circle cx="178.1022" cy="63.5656" r="2.3500" /> 
<circle cx="117.0022" cy="119.0000" r="3.0000" /> 
<circle cx="129.0022" cy="23.0000" r="2.3500" /> 
<g >
</g>
<g >
</g>
<g >
</g>
<g >
</g>
<g >
</g>
<g >
</g>
<g >
</g>
<g >
</g>
<g >
</g>
<g >
</g>
<g >
</g>
<g >
</g>
<g >
</g>
<g >
</g>
<g >
</g>
<g >
</g>
<g >
</g>
<g >
</g>
<g >
</g>
<g >
</g>
<g >
</g>
<g >
</g>
<g >
</g>
<g >
</g>
<g >
</g>
<g >
</g>
<g >
</g>
<g >
</g>
<g >
</g>
<g >
</g>
<g >
</g>
<g >
</g>
<g >
</g>
<g >
</g>
<g >
</g>
<g >
</g>
<g >
</g>
<g >
</g>
<g >
</g>
<g >
</g>
<g >
</g>
<g >
</g>
<g >
</g>
<g >
</g>
<g >
</g>
<g >
</g>
<g >
</g>
<g >
</g>
<g >
</g>
<g >
</g>
<g >
</g>
<g >
</g>
<g >
</g>
<g >
</g>
<g >
</g>
<g >
</g>
<g >
</g>
<g >
</g>
<g >
</g>
<g >
</g>
<g >
</g>
<g >
</g>
<g >
</g>
<g >
</g>
<g >
</g>
<g >
</g>
<g >
</g>
<g >
</g>
<g >
</g>
<g >
</g>
<g >
</g>
<g >
</g>
<g >
</g>
<g >
</g>
<g >
</g>
<g >
</g>
<g >
</g>
<g >
</g>
<g >
</g>
<g >
</g>
<g >
</g>
<g >
</g>
<g >
</g>
<g >
</g>
<g >
</g>
<g >
</g>
</g> 
</svg>
