<?xml version="1.0" standalone="no"?>
 <!DOCTYPE svg PUBLIC "-//W3C//DTD SVG 1.1//EN" 
 "http://www.w3.org/Graphics/SVG/1.1/DTD/svg11.dtd"> 
<svg
  xmlns:svg="http://www.w3.org/2000/svg"
  xmlns="http://www.w3.org/2000/svg"
  xmlns:xlink="http://www.w3.org/1999/xlink"
  version="1.1"
  width="297.0022mm" height="210.0072mm" viewBox="0.0000 0.0000 297.0022 210.0072">
<title>SVG Image created as pedalboard-hw-B_Courtyard.svg date 2023/09/10 10:51:09 </title>
  <desc>Image generated by PCBNEW </desc>
<g style="fill:#000000; fill-opacity:1.0000;stroke:#000000; stroke-opacity:1.0000;
stroke-linecap:round; stroke-linejoin:round;"
 transform="translate(0 0) scale(1 1)">
</g>
<g style="fill:#000000; fill-opacity:0.0; 
stroke:#000000; stroke-width:0.0000; stroke-opacity:1; 
stroke-linecap:round; stroke-linejoin:round;">
</g>
<g style="fill:#000000; fill-opacity:0.0; 
stroke:#000000; stroke-width:0.0500; stroke-opacity:1; 
stroke-linecap:round; stroke-linejoin:round;">
<path d="M47.7900 108.1200
L99.6400 108.1200
" />
<path d="M99.6400 108.1200
L99.6400 101.9700
" />
<path d="M47.7900 101.9700
L47.7900 108.1200
" />
<path d="M99.6400 101.9700
L47.7900 101.9700
" />
<path d="M111.8250 88.3800
L115.4250 88.3800
" />
<path d="M111.8250 99.5800
L111.8250 88.3800
" />
<path d="M115.4250 88.3800
L115.4250 99.5800
" />
<path d="M115.4250 99.5800
L111.8250 99.5800
" />
<path d="M133.6500 58.9750
L133.6500 46.6250
" />
<path d="M139.8000 58.9750
L133.6500 58.9750
" />
<path d="M133.6500 46.6250
L139.8000 46.6250
" />
<path d="M139.8000 46.6250
L139.8000 58.9750
" />
<circle cx="127.0019" cy="50.0066" r="0.9652" /> 
<circle cx="127.0000" cy="48.0000" r="0.9655" /> 
</g>
<g style="fill:#000000; fill-opacity:0.0; 
stroke:#000000; stroke-width:0.1200; stroke-opacity:1; 
stroke-linecap:round; stroke-linejoin:round;">
<path d="M77.0000 60.0000
L129.0000 60.0000
" />
<path d="M129.0000 60.0000
L129.0000 38.0000
" />
<path d="M77.0000 38.0000
L77.0000 60.0000
" />
<path d="M129.0000 38.0000
L77.0000 38.0000
" />
</g>
<g style="fill:#000000; fill-opacity:0.0; 
stroke:#000000; stroke-width:0.0500; stroke-opacity:1; 
stroke-linecap:round; stroke-linejoin:round;">
<path d="M49.0150 84.7626
L49.0150 72.4126
" />
<path d="M57.6650 84.7626
L49.0150 84.7626
" />
<path d="M49.0150 72.4126
L57.6650 72.4126
" />
<path d="M57.6650 72.4126
L57.6650 84.7626
" />
<path d="M159.2300 123.4906
L150.5800 123.4906
" />
<path d="M159.2300 117.3906
L159.2300 123.4906
" />
<path d="M158.3150 81.6956
L152.2150 81.6956
" />
<path d="M158.3150 73.0456
L158.3150 81.6956
" />
<path d="M152.2150 81.6956
L152.2150 73.0456
" />
<path d="M152.2150 73.0456
L158.3150 73.0456
" />
<path d="M150.5800 123.4906
L150.5800 117.3906
" />
<path d="M150.5800 117.3906
L159.2300 117.3906
" />
<path d="M122.0100 118.3756
L115.9100 118.3756
" />
<path d="M122.0100 66.5756
L122.0100 118.3756
" />
<path d="M115.9100 118.3756
L115.9100 66.5756
" />
<path d="M115.9100 66.5756
L122.0100 66.5756
" />
<path d="M72.8000 59.7000
L57.9000 59.7000
" />
<path d="M72.8000 51.0500
L72.8000 59.7000
" />
<path d="M57.9000 59.7000
L57.9000 51.0500
" />
<path d="M57.9000 51.0500
L72.8000 51.0500
" />
<g >
</g>
<g >
</g>
<g >
</g>
<g >
</g>
<g >
</g>
<g >
</g>
<g >
</g>
<g >
</g>
<g >
</g>
<g >
</g>
<g >
</g>
<g >
</g>
<g >
</g>
<g >
</g>
<g >
</g>
<g >
</g>
<g >
</g>
<g >
</g>
<g >
</g>
<g >
</g>
<g >
</g>
<g >
</g>
<g >
</g>
<g >
</g>
<g >
</g>
<g >
</g>
<g >
</g>
<g >
</g>
<g >
</g>
<g >
</g>
<g >
</g>
<g >
</g>
<g >
</g>
<g >
</g>
<g >
</g>
<g >
</g>
<g >
</g>
<g >
</g>
<g >
</g>
<g >
</g>
<g >
</g>
<g >
</g>
<g >
</g>
<g >
</g>
<g >
</g>
<g >
</g>
<g >
</g>
<g >
</g>
<g >
</g>
<g >
</g>
<g >
</g>
<g >
</g>
<g >
</g>
<g >
</g>
<g >
</g>
<g >
</g>
<g >
</g>
<g >
</g>
<g >
</g>
<g >
</g>
<g >
</g>
<g >
</g>
<g >
</g>
<g >
</g>
<g >
</g>
<g >
</g>
<g >
</g>
<g >
</g>
<g >
</g>
<g >
</g>
<g >
</g>
<g >
</g>
<g >
</g>
<g >
</g>
<g >
</g>
<g >
</g>
<g >
</g>
<g >
</g>
<g >
</g>
<g >
</g>
<g >
</g>
<g >
</g>
<g >
</g>
<g >
</g>
<g >
</g>
<g >
</g>
<g >
</g>
<g >
</g>
<g >
</g>
<g >
</g>
<g >
</g>
<g >
</g>
<g >
</g>
<g >
</g>
<g >
</g>
<g >
</g>
<g >
</g>
<g >
</g>
</g> 
</svg>
