<?xml version="1.0" standalone="no"?>
 <!DOCTYPE svg PUBLIC "-//W3C//DTD SVG 1.1//EN" 
 "http://www.w3.org/Graphics/SVG/1.1/DTD/svg11.dtd"> 
<svg
  xmlns:svg="http://www.w3.org/2000/svg"
  xmlns="http://www.w3.org/2000/svg"
  xmlns:xlink="http://www.w3.org/1999/xlink"
  version="1.1"
  width="297.0022mm" height="210.0072mm" viewBox="0.0000 0.0000 297.0022 210.0072">
<title>SVG Image created as pedalboard-hw-B_Fab.svg date 2023/10/22 16:58:08 </title>
  <desc>Image generated by PCBNEW </desc>
<g style="fill:#000000; fill-opacity:1.0000;stroke:#000000; stroke-opacity:1.0000;
stroke-linecap:round; stroke-linejoin:round;"
 transform="translate(0 0) scale(1 1)">
</g>
<g style="fill:#000000; fill-opacity:0.0; 
stroke:#000000; stroke-width:0.0000; stroke-opacity:1; 
stroke-linecap:round; stroke-linejoin:round;">
</g>
<g style="fill:#000000; fill-opacity:0.0; 
stroke:#000000; stroke-width:0.1500; stroke-opacity:1; 
stroke-linecap:round; stroke-linejoin:round;">
<text x="249.9022" y="33.5750"
transform="scale(-1 1) translate(-499.804400 0)"
textLength="7.2024" font-size="1.3333" lengthAdjust="spacingAndGlyphs"
text-anchor="middle" opacity="0">JST XH 3</text>
<g class="stroked-text"><desc>JST XH 3</desc>
<path d="M246.9498 32.5298
L246.9498 33.2441
" />
<path d="M246.9498 33.2441
L246.9022 33.3870
" />
<path d="M246.9022 33.3870
L246.8070 33.4822
" />
<path d="M246.8070 33.4822
L246.6641 33.5298
" />
<path d="M246.6641 33.5298
L246.5689 33.5298
" />
<path d="M247.3784 33.4822
L247.5212 33.5298
" />
<path d="M247.5212 33.5298
L247.7593 33.5298
" />
<path d="M247.7593 33.5298
L247.8546 33.4822
" />
<path d="M247.8546 33.4822
L247.9022 33.4346
" />
<path d="M247.9022 33.4346
L247.9498 33.3393
" />
<path d="M247.9498 33.3393
L247.9498 33.2441
" />
<path d="M247.9498 33.2441
L247.9022 33.1489
" />
<path d="M247.9022 33.1489
L247.8546 33.1012
" />
<path d="M247.8546 33.1012
L247.7593 33.0536
" />
<path d="M247.7593 33.0536
L247.5689 33.0060
" />
<path d="M247.5689 33.0060
L247.4736 32.9584
" />
<path d="M247.4736 32.9584
L247.4260 32.9108
" />
<path d="M247.4260 32.9108
L247.3784 32.8155
" />
<path d="M247.3784 32.8155
L247.3784 32.7203
" />
<path d="M247.3784 32.7203
L247.4260 32.6251
" />
<path d="M247.4260 32.6251
L247.4736 32.5774
" />
<path d="M247.4736 32.5774
L247.5689 32.5298
" />
<path d="M247.5689 32.5298
L247.8070 32.5298
" />
<path d="M247.8070 32.5298
L247.9498 32.5774
" />
<path d="M248.2355 32.5298
L248.8070 32.5298
" />
<path d="M248.5212 33.5298
L248.5212 32.5298
" />
<path d="M249.8070 32.5298
L250.4736 33.5298
" />
<path d="M250.4736 32.5298
L249.8070 33.5298
" />
<path d="M250.8546 33.5298
L250.8546 32.5298
" />
<path d="M250.8546 33.0060
L251.4260 33.0060
" />
<path d="M251.4260 33.5298
L251.4260 32.5298
" />
<path d="M252.5689 32.5298
L253.1879 32.5298
" />
<path d="M253.1879 32.5298
L252.8546 32.9108
" />
<path d="M252.8546 32.9108
L252.9974 32.9108
" />
<path d="M252.9974 32.9108
L253.0927 32.9584
" />
<path d="M253.0927 32.9584
L253.1403 33.0060
" />
<path d="M253.1403 33.0060
L253.1879 33.1012
" />
<path d="M253.1879 33.1012
L253.1879 33.3393
" />
<path d="M253.1879 33.3393
L253.1403 33.4346
" />
<path d="M253.1403 33.4346
L253.0927 33.4822
" />
<path d="M253.0927 33.4822
L252.9974 33.5298
" />
<path d="M252.9974 33.5298
L252.7117 33.5298
" />
<path d="M252.7117 33.5298
L252.6165 33.4822
" />
<path d="M252.6165 33.4822
L252.5689 33.4346
" />
</g><text x="249.9022" y="31.6750"
transform="scale(-1 1) translate(-499.804400 0)"
textLength="2.9167" font-size="1.3333" lengthAdjust="spacingAndGlyphs"
text-anchor="middle" opacity="0">J23</text>
<g class="stroked-text"><desc>J23</desc>
<path d="M249.0927 30.6298
L249.0927 31.3441
" />
<path d="M249.0927 31.3441
L249.0451 31.4870
" />
<path d="M249.0451 31.4870
L248.9498 31.5822
" />
<path d="M248.9498 31.5822
L248.8070 31.6298
" />
<path d="M248.8070 31.6298
L248.7117 31.6298
" />
<path d="M249.5212 30.7251
L249.5689 30.6774
" />
<path d="M249.5689 30.6774
L249.6641 30.6298
" />
<path d="M249.6641 30.6298
L249.9022 30.6298
" />
<path d="M249.9022 30.6298
L249.9974 30.6774
" />
<path d="M249.9974 30.6774
L250.0451 30.7251
" />
<path d="M250.0451 30.7251
L250.0927 30.8203
" />
<path d="M250.0927 30.8203
L250.0927 30.9155
" />
<path d="M250.0927 30.9155
L250.0451 31.0584
" />
<path d="M250.0451 31.0584
L249.4736 31.6298
" />
<path d="M249.4736 31.6298
L250.0927 31.6298
" />
<path d="M250.4260 30.6298
L251.0451 30.6298
" />
<path d="M251.0451 30.6298
L250.7117 31.0108
" />
<path d="M250.7117 31.0108
L250.8546 31.0108
" />
<path d="M250.8546 31.0108
L250.9498 31.0584
" />
<path d="M250.9498 31.0584
L250.9974 31.1060
" />
<path d="M250.9974 31.1060
L251.0451 31.2012
" />
<path d="M251.0451 31.2012
L251.0451 31.4393
" />
<path d="M251.0451 31.4393
L250.9974 31.5346
" />
<path d="M250.9974 31.5346
L250.9498 31.5822
" />
<path d="M250.9498 31.5822
L250.8546 31.6298
" />
<path d="M250.8546 31.6298
L250.5689 31.6298
" />
<path d="M250.5689 31.6298
L250.4736 31.5822
" />
<path d="M250.4736 31.5822
L250.4260 31.5346
" />
</g><text x="256.6022" y="132.2000"
transform="scale(-1 1) translate(-513.204400 0)"
textLength="7.2024" font-size="1.3333" lengthAdjust="spacingAndGlyphs"
text-anchor="middle" opacity="0">JST XH 3</text>
<g class="stroked-text"><desc>JST XH 3</desc>
<path d="M253.6498 131.1548
L253.6498 131.8691
" />
<path d="M253.6498 131.8691
L253.6022 132.0120
" />
<path d="M253.6022 132.0120
L253.5070 132.1072
" />
<path d="M253.5070 132.1072
L253.3641 132.1548
" />
<path d="M253.3641 132.1548
L253.2689 132.1548
" />
<path d="M254.0784 132.1072
L254.2212 132.1548
" />
<path d="M254.2212 132.1548
L254.4593 132.1548
" />
<path d="M254.4593 132.1548
L254.5546 132.1072
" />
<path d="M254.5546 132.1072
L254.6022 132.0596
" />
<path d="M254.6022 132.0596
L254.6498 131.9643
" />
<path d="M254.6498 131.9643
L254.6498 131.8691
" />
<path d="M254.6498 131.8691
L254.6022 131.7739
" />
<path d="M254.6022 131.7739
L254.5546 131.7262
" />
<path d="M254.5546 131.7262
L254.4593 131.6786
" />
<path d="M254.4593 131.6786
L254.2689 131.6310
" />
<path d="M254.2689 131.6310
L254.1736 131.5834
" />
<path d="M254.1736 131.5834
L254.1260 131.5358
" />
<path d="M254.1260 131.5358
L254.0784 131.4405
" />
<path d="M254.0784 131.4405
L254.0784 131.3453
" />
<path d="M254.0784 131.3453
L254.1260 131.2501
" />
<path d="M254.1260 131.2501
L254.1736 131.2024
" />
<path d="M254.1736 131.2024
L254.2689 131.1548
" />
<path d="M254.2689 131.1548
L254.5070 131.1548
" />
<path d="M254.5070 131.1548
L254.6498 131.2024
" />
<path d="M254.9355 131.1548
L255.5070 131.1548
" />
<path d="M255.2212 132.1548
L255.2212 131.1548
" />
<path d="M256.5070 131.1548
L257.1736 132.1548
" />
<path d="M257.1736 131.1548
L256.5070 132.1548
" />
<path d="M257.5546 132.1548
L257.5546 131.1548
" />
<path d="M257.5546 131.6310
L258.1260 131.6310
" />
<path d="M258.1260 132.1548
L258.1260 131.1548
" />
<path d="M259.2689 131.1548
L259.8879 131.1548
" />
<path d="M259.8879 131.1548
L259.5546 131.5358
" />
<path d="M259.5546 131.5358
L259.6974 131.5358
" />
<path d="M259.6974 131.5358
L259.7927 131.5834
" />
<path d="M259.7927 131.5834
L259.8403 131.6310
" />
<path d="M259.8403 131.6310
L259.8879 131.7262
" />
<path d="M259.8879 131.7262
L259.8879 131.9643
" />
<path d="M259.8879 131.9643
L259.8403 132.0596
" />
<path d="M259.8403 132.0596
L259.7927 132.1072
" />
<path d="M259.7927 132.1072
L259.6974 132.1548
" />
<path d="M259.6974 132.1548
L259.4117 132.1548
" />
<path d="M259.4117 132.1548
L259.3165 132.1072
" />
<path d="M259.3165 132.1072
L259.2689 132.0596
" />
</g><text x="256.6022" y="130.3000"
transform="scale(-1 1) translate(-513.204400 0)"
textLength="2.9167" font-size="1.3333" lengthAdjust="spacingAndGlyphs"
text-anchor="middle" opacity="0">J26</text>
<g class="stroked-text"><desc>J26</desc>
<path d="M255.7927 129.2548
L255.7927 129.9691
" />
<path d="M255.7927 129.9691
L255.7451 130.1120
" />
<path d="M255.7451 130.1120
L255.6498 130.2072
" />
<path d="M255.6498 130.2072
L255.5070 130.2548
" />
<path d="M255.5070 130.2548
L255.4117 130.2548
" />
<path d="M256.2212 129.3501
L256.2689 129.3024
" />
<path d="M256.2689 129.3024
L256.3641 129.2548
" />
<path d="M256.3641 129.2548
L256.6022 129.2548
" />
<path d="M256.6022 129.2548
L256.6974 129.3024
" />
<path d="M256.6974 129.3024
L256.7451 129.3501
" />
<path d="M256.7451 129.3501
L256.7927 129.4453
" />
<path d="M256.7927 129.4453
L256.7927 129.5405
" />
<path d="M256.7927 129.5405
L256.7451 129.6834
" />
<path d="M256.7451 129.6834
L256.1736 130.2548
" />
<path d="M256.1736 130.2548
L256.7927 130.2548
" />
<path d="M257.6498 129.2548
L257.4593 129.2548
" />
<path d="M257.4593 129.2548
L257.3641 129.3024
" />
<path d="M257.3641 129.3024
L257.3165 129.3501
" />
<path d="M257.3165 129.3501
L257.2212 129.4929
" />
<path d="M257.2212 129.4929
L257.1736 129.6834
" />
<path d="M257.1736 129.6834
L257.1736 130.0643
" />
<path d="M257.1736 130.0643
L257.2212 130.1596
" />
<path d="M257.2212 130.1596
L257.2689 130.2072
" />
<path d="M257.2689 130.2072
L257.3641 130.2548
" />
<path d="M257.3641 130.2548
L257.5546 130.2548
" />
<path d="M257.5546 130.2548
L257.6498 130.2072
" />
<path d="M257.6498 130.2072
L257.6974 130.1596
" />
<path d="M257.6974 130.1596
L257.7451 130.0643
" />
<path d="M257.7451 130.0643
L257.7451 129.8262
" />
<path d="M257.7451 129.8262
L257.6974 129.7310
" />
<path d="M257.6974 129.7310
L257.6498 129.6834
" />
<path d="M257.6498 129.6834
L257.5546 129.6358
" />
<path d="M257.5546 129.6358
L257.3641 129.6358
" />
<path d="M257.3641 129.6358
L257.2689 129.6834
" />
<path d="M257.2689 129.6834
L257.2212 129.7310
" />
<path d="M257.2212 129.7310
L257.1736 129.8262
" />
</g><g transform="rotate(-90.000000 173.3022 93.7756)">
<text x="173.3022" y="94.2756"
transform="scale(-1 1) translate(-346.604400 0)"
textLength="7.7262" font-size="1.3333" lengthAdjust="spacingAndGlyphs"
text-anchor="middle" opacity="0">HiFi Berry</text>
</g>
<g class="stroked-text"><desc>HiFi Berry</desc>
<path d="M172.8474 90.2756
L173.8474 90.2756
" />
<path d="M173.3712 90.2756
L173.3712 90.8470
" />
<path d="M172.8474 90.8470
L173.8474 90.8470
" />
<path d="M172.8474 91.3232
L173.5140 91.3232
" />
<path d="M173.8474 91.3232
L173.7998 91.2756
" />
<path d="M173.7998 91.2756
L173.7521 91.3232
" />
<path d="M173.7521 91.3232
L173.7998 91.3708
" />
<path d="M173.7998 91.3708
L173.8474 91.3232
" />
<path d="M173.8474 91.3232
L173.7521 91.3232
" />
<path d="M173.3712 92.1327
L173.3712 91.7994
" />
<path d="M172.8474 91.7994
L173.8474 91.7994
" />
<path d="M173.8474 91.7994
L173.8474 92.2756
" />
<path d="M172.8474 92.6566
L173.5140 92.6566
" />
<path d="M173.8474 92.6566
L173.7998 92.6089
" />
<path d="M173.7998 92.6089
L173.7521 92.6566
" />
<path d="M173.7521 92.6566
L173.7998 92.7042
" />
<path d="M173.7998 92.7042
L173.8474 92.6566
" />
<path d="M173.8474 92.6566
L173.7521 92.6566
" />
<path d="M173.3712 94.2280
L173.3236 94.3708
" />
<path d="M173.3236 94.3708
L173.2760 94.4185
" />
<path d="M173.2760 94.4185
L173.1807 94.4661
" />
<path d="M173.1807 94.4661
L173.0379 94.4661
" />
<path d="M173.0379 94.4661
L172.9426 94.4185
" />
<path d="M172.9426 94.4185
L172.8950 94.3708
" />
<path d="M172.8950 94.3708
L172.8474 94.2756
" />
<path d="M172.8474 94.2756
L172.8474 93.8946
" />
<path d="M172.8474 93.8946
L173.8474 93.8946
" />
<path d="M173.8474 93.8946
L173.8474 94.2280
" />
<path d="M173.8474 94.2280
L173.7998 94.3232
" />
<path d="M173.7998 94.3232
L173.7521 94.3708
" />
<path d="M173.7521 94.3708
L173.6569 94.4185
" />
<path d="M173.6569 94.4185
L173.5617 94.4185
" />
<path d="M173.5617 94.4185
L173.4664 94.3708
" />
<path d="M173.4664 94.3708
L173.4188 94.3232
" />
<path d="M173.4188 94.3232
L173.3712 94.2280
" />
<path d="M173.3712 94.2280
L173.3712 93.8946
" />
<path d="M172.8950 95.2756
L172.8474 95.1804
" />
<path d="M172.8474 95.1804
L172.8474 94.9899
" />
<path d="M172.8474 94.9899
L172.8950 94.8946
" />
<path d="M172.8950 94.8946
L172.9902 94.8470
" />
<path d="M172.9902 94.8470
L173.3712 94.8470
" />
<path d="M173.3712 94.8470
L173.4664 94.8946
" />
<path d="M173.4664 94.8946
L173.5140 94.9899
" />
<path d="M173.5140 94.9899
L173.5140 95.1804
" />
<path d="M173.5140 95.1804
L173.4664 95.2756
" />
<path d="M173.4664 95.2756
L173.3712 95.3232
" />
<path d="M173.3712 95.3232
L173.2760 95.3232
" />
<path d="M173.2760 95.3232
L173.1807 94.8470
" />
<path d="M172.8474 95.7518
L173.5140 95.7518
" />
<path d="M173.3236 95.7518
L173.4188 95.7994
" />
<path d="M173.4188 95.7994
L173.4664 95.8470
" />
<path d="M173.4664 95.8470
L173.5140 95.9423
" />
<path d="M173.5140 95.9423
L173.5140 96.0375
" />
<path d="M172.8474 96.3708
L173.5140 96.3708
" />
<path d="M173.3236 96.3708
L173.4188 96.4185
" />
<path d="M173.4188 96.4185
L173.4664 96.4661
" />
<path d="M173.4664 96.4661
L173.5140 96.5613
" />
<path d="M173.5140 96.5613
L173.5140 96.6566
" />
<path d="M173.5140 96.8946
L172.8474 97.1327
" />
<path d="M173.5140 97.3708
L172.8474 97.1327
" />
<path d="M172.8474 97.1327
L172.6093 97.0375
" />
<path d="M172.6093 97.0375
L172.5617 96.9899
" />
<path d="M172.5617 96.9899
L172.5140 96.8946
" />
</g><text x="249.9022" y="41.3250"
transform="scale(-1 1) translate(-499.804400 0)"
textLength="7.2024" font-size="1.3333" lengthAdjust="spacingAndGlyphs"
text-anchor="middle" opacity="0">JST XH 3</text>
<g class="stroked-text"><desc>JST XH 3</desc>
<path d="M246.9498 40.2798
L246.9498 40.9941
" />
<path d="M246.9498 40.9941
L246.9022 41.1370
" />
<path d="M246.9022 41.1370
L246.8070 41.2322
" />
<path d="M246.8070 41.2322
L246.6641 41.2798
" />
<path d="M246.6641 41.2798
L246.5689 41.2798
" />
<path d="M247.3784 41.2322
L247.5212 41.2798
" />
<path d="M247.5212 41.2798
L247.7593 41.2798
" />
<path d="M247.7593 41.2798
L247.8546 41.2322
" />
<path d="M247.8546 41.2322
L247.9022 41.1846
" />
<path d="M247.9022 41.1846
L247.9498 41.0893
" />
<path d="M247.9498 41.0893
L247.9498 40.9941
" />
<path d="M247.9498 40.9941
L247.9022 40.8989
" />
<path d="M247.9022 40.8989
L247.8546 40.8512
" />
<path d="M247.8546 40.8512
L247.7593 40.8036
" />
<path d="M247.7593 40.8036
L247.5689 40.7560
" />
<path d="M247.5689 40.7560
L247.4736 40.7084
" />
<path d="M247.4736 40.7084
L247.4260 40.6608
" />
<path d="M247.4260 40.6608
L247.3784 40.5655
" />
<path d="M247.3784 40.5655
L247.3784 40.4703
" />
<path d="M247.3784 40.4703
L247.4260 40.3751
" />
<path d="M247.4260 40.3751
L247.4736 40.3274
" />
<path d="M247.4736 40.3274
L247.5689 40.2798
" />
<path d="M247.5689 40.2798
L247.8070 40.2798
" />
<path d="M247.8070 40.2798
L247.9498 40.3274
" />
<path d="M248.2355 40.2798
L248.8070 40.2798
" />
<path d="M248.5212 41.2798
L248.5212 40.2798
" />
<path d="M249.8070 40.2798
L250.4736 41.2798
" />
<path d="M250.4736 40.2798
L249.8070 41.2798
" />
<path d="M250.8546 41.2798
L250.8546 40.2798
" />
<path d="M250.8546 40.7560
L251.4260 40.7560
" />
<path d="M251.4260 41.2798
L251.4260 40.2798
" />
<path d="M252.5689 40.2798
L253.1879 40.2798
" />
<path d="M253.1879 40.2798
L252.8546 40.6608
" />
<path d="M252.8546 40.6608
L252.9974 40.6608
" />
<path d="M252.9974 40.6608
L253.0927 40.7084
" />
<path d="M253.0927 40.7084
L253.1403 40.7560
" />
<path d="M253.1403 40.7560
L253.1879 40.8512
" />
<path d="M253.1879 40.8512
L253.1879 41.0893
" />
<path d="M253.1879 41.0893
L253.1403 41.1846
" />
<path d="M253.1403 41.1846
L253.0927 41.2322
" />
<path d="M253.0927 41.2322
L252.9974 41.2798
" />
<path d="M252.9974 41.2798
L252.7117 41.2798
" />
<path d="M252.7117 41.2798
L252.6165 41.2322
" />
<path d="M252.6165 41.2322
L252.5689 41.1846
" />
</g><text x="249.9022" y="39.4250"
transform="scale(-1 1) translate(-499.804400 0)"
textLength="2.9167" font-size="1.3333" lengthAdjust="spacingAndGlyphs"
text-anchor="middle" opacity="0">J24</text>
<g class="stroked-text"><desc>J24</desc>
<path d="M249.0927 38.3798
L249.0927 39.0941
" />
<path d="M249.0927 39.0941
L249.0451 39.2370
" />
<path d="M249.0451 39.2370
L248.9498 39.3322
" />
<path d="M248.9498 39.3322
L248.8070 39.3798
" />
<path d="M248.8070 39.3798
L248.7117 39.3798
" />
<path d="M249.5212 38.4751
L249.5689 38.4274
" />
<path d="M249.5689 38.4274
L249.6641 38.3798
" />
<path d="M249.6641 38.3798
L249.9022 38.3798
" />
<path d="M249.9022 38.3798
L249.9974 38.4274
" />
<path d="M249.9974 38.4274
L250.0451 38.4751
" />
<path d="M250.0451 38.4751
L250.0927 38.5703
" />
<path d="M250.0927 38.5703
L250.0927 38.6655
" />
<path d="M250.0927 38.6655
L250.0451 38.8084
" />
<path d="M250.0451 38.8084
L249.4736 39.3798
" />
<path d="M249.4736 39.3798
L250.0927 39.3798
" />
<path d="M250.9498 38.7132
L250.9498 39.3798
" />
<path d="M250.7117 38.3322
L250.4736 39.0465
" />
<path d="M250.4736 39.0465
L251.0927 39.0465
" />
</g></g>
<g style="fill:#000000; fill-opacity:0.0; 
stroke:#000000; stroke-width:0.1000; stroke-opacity:1; 
stroke-linecap:round; stroke-linejoin:round;">
<path d="M244.9522 31.8750
L254.8522 31.8750
" />
<path d="M244.9522 26.1250
L244.9522 31.8750
" />
<path d="M246.7772 26.1250
L247.4022 27.1250
" />
<path d="M247.4022 27.1250
L248.0272 26.1250
" />
<path d="M254.8522 31.8750
L254.8522 26.1250
" />
<path d="M254.8522 26.1250
L244.9522 26.1250
" />
<path d="M251.6522 130.5000
L261.5522 130.5000
" />
<path d="M251.6522 124.7500
L251.6522 130.5000
" />
<path d="M253.4772 124.7500
L254.1022 125.7500
" />
<path d="M254.1022 125.7500
L254.7272 124.7500
" />
<path d="M261.5522 130.5000
L261.5522 124.7500
" />
<path d="M261.5522 124.7500
L251.6522 124.7500
" />
<path d="M138.2722 122.9606
L145.8922 122.9606
" />
<path d="M138.2722 117.8806
L138.2722 122.9606
" />
<path d="M139.1772 81.1956
L144.2572 81.1956
" />
<path d="M139.1772 74.5756
L139.1772 81.1956
" />
<path d="M140.1772 73.5756
L139.1772 74.5756
" />
<path d="M144.2572 81.1956
L144.2572 73.5756
" />
<path d="M144.2572 73.5756
L140.1772 73.5756
" />
<path d="M144.8922 117.8806
L138.2722 117.8806
" />
<path d="M145.8922 122.9606
L145.8922 118.8806
" />
<path d="M145.8922 118.8806
L144.8922 117.8806
" />
<path d="M175.4822 117.9056
L180.5622 117.9056
" />
<path d="M175.4822 68.1056
L175.4822 117.9056
" />
<path d="M176.4822 67.1056
L175.4822 68.1056
" />
<path d="M180.5622 117.9056
L180.5622 67.1056
" />
<path d="M180.5622 67.1056
L176.4822 67.1056
" />
<path d="M244.9522 39.6250
L254.8522 39.6250
" />
<path d="M244.9522 33.8750
L244.9522 39.6250
" />
<path d="M246.7772 33.8750
L247.4022 34.8750
" />
<path d="M247.4022 34.8750
L248.0272 33.8750
" />
<path d="M254.8522 39.6250
L254.8522 33.8750
" />
<path d="M254.8522 33.8750
L244.9522 33.8750
" />
<g >
</g>
<g >
</g>
<g >
</g>
<g >
</g>
<g >
</g>
<g >
</g>
<g >
</g>
<g >
</g>
<g >
</g>
<g >
</g>
<g >
</g>
<g >
</g>
<g >
</g>
<g >
</g>
<g >
</g>
<g >
</g>
<g >
</g>
<g >
</g>
<g >
</g>
<g >
</g>
<g >
</g>
<g >
</g>
<g >
</g>
<g >
</g>
<g >
</g>
<g >
</g>
<g >
</g>
<g >
</g>
<g >
</g>
<g >
</g>
<g >
</g>
<g >
</g>
<g >
</g>
<g >
</g>
<g >
</g>
<g >
</g>
<g >
</g>
<g >
</g>
<g >
</g>
<g >
</g>
<g >
</g>
<g >
</g>
<g >
</g>
<g >
</g>
<g >
</g>
<g >
</g>
<g >
</g>
<g >
</g>
<g >
</g>
<g >
</g>
<g >
</g>
<g >
</g>
<g >
</g>
<g >
</g>
<g >
</g>
<g >
</g>
<g >
</g>
<g >
</g>
<g >
</g>
<g >
</g>
<g >
</g>
<g >
</g>
<g >
</g>
<g >
</g>
<g >
</g>
<g >
</g>
<g >
</g>
<g >
</g>
<g >
</g>
<g >
</g>
<g >
</g>
<g >
</g>
<g >
</g>
<g >
</g>
<g >
</g>
<g >
</g>
<g >
</g>
<g >
</g>
<g >
</g>
<g >
</g>
<g >
</g>
<g >
</g>
<g >
</g>
<g >
</g>
<g >
</g>
<g >
</g>
<g >
</g>
<g >
</g>
<g >
</g>
<g >
</g>
<g >
</g>
<g >
</g>
<g >
</g>
<g >
</g>
<g >
</g>
<g >
</g>
<g >
</g>
<g >
</g>
<g >
</g>
<g >
</g>
<g >
</g>
<g >
</g>
<g >
</g>
<g >
</g>
<g >
</g>
<g >
</g>
<g >
</g>
<g >
</g>
<g >
</g>
<g >
</g>
<g >
</g>
<g >
</g>
<g >
</g>
<g >
</g>
<g >
</g>
<g >
</g>
<g >
</g>
<g >
</g>
<g >
</g>
<g >
</g>
<g >
</g>
<g >
</g>
<g >
</g>
<g >
</g>
<g >
</g>
<g >
</g>
<g >
</g>
<g >
</g>
<g >
</g>
<g >
</g>
<g >
</g>
<g >
</g>
</g> 
</svg>
