<?xml version="1.0" standalone="no"?>
 <!DOCTYPE svg PUBLIC "-//W3C//DTD SVG 1.1//EN" 
 "http://www.w3.org/Graphics/SVG/1.1/DTD/svg11.dtd"> 
<svg
  xmlns:svg="http://www.w3.org/2000/svg"
  xmlns="http://www.w3.org/2000/svg"
  xmlns:xlink="http://www.w3.org/1999/xlink"
  version="1.1"
  width="297.0022mm" height="210.0072mm" viewBox="0.0000 0.0000 297.0022 210.0072">
<title>SVG Image created as pedalboard-hw-B_Fab.svg date 2023/10/12 16:34:36 </title>
  <desc>Image generated by PCBNEW </desc>
<g style="fill:#000000; fill-opacity:1.0000;stroke:#000000; stroke-opacity:1.0000;
stroke-linecap:round; stroke-linejoin:round;"
 transform="translate(0 0) scale(1 1)">
</g>
<g style="fill:#000000; fill-opacity:0.0; 
stroke:#000000; stroke-width:0.0000; stroke-opacity:1; 
stroke-linecap:round; stroke-linejoin:round;">
</g>
<g style="fill:#000000; fill-opacity:0.0; 
stroke:#000000; stroke-width:0.1500; stroke-opacity:1; 
stroke-linecap:round; stroke-linejoin:round;">
<text x="183.3772" y="88.3300"
transform="scale(-1 1) translate(-366.754400 0)"
textLength="4.8690" font-size="1.3333" lengthAdjust="spacingAndGlyphs"
text-anchor="middle" opacity="0">USB_A</text>
<g class="stroked-text"><desc>USB_A</desc>
<path d="M181.3058 87.2848
L181.3058 88.0943
" />
<path d="M181.3058 88.0943
L181.3534 88.1896
" />
<path d="M181.3534 88.1896
L181.4010 88.2372
" />
<path d="M181.4010 88.2372
L181.4962 88.2848
" />
<path d="M181.4962 88.2848
L181.6867 88.2848
" />
<path d="M181.6867 88.2848
L181.7820 88.2372
" />
<path d="M181.7820 88.2372
L181.8296 88.1896
" />
<path d="M181.8296 88.1896
L181.8772 88.0943
" />
<path d="M181.8772 88.0943
L181.8772 87.2848
" />
<path d="M182.3058 88.2372
L182.4486 88.2848
" />
<path d="M182.4486 88.2848
L182.6867 88.2848
" />
<path d="M182.6867 88.2848
L182.7820 88.2372
" />
<path d="M182.7820 88.2372
L182.8296 88.1896
" />
<path d="M182.8296 88.1896
L182.8772 88.0943
" />
<path d="M182.8772 88.0943
L182.8772 87.9991
" />
<path d="M182.8772 87.9991
L182.8296 87.9039
" />
<path d="M182.8296 87.9039
L182.7820 87.8562
" />
<path d="M182.7820 87.8562
L182.6867 87.8086
" />
<path d="M182.6867 87.8086
L182.4962 87.7610
" />
<path d="M182.4962 87.7610
L182.4010 87.7134
" />
<path d="M182.4010 87.7134
L182.3534 87.6658
" />
<path d="M182.3534 87.6658
L182.3058 87.5705
" />
<path d="M182.3058 87.5705
L182.3058 87.4753
" />
<path d="M182.3058 87.4753
L182.3534 87.3801
" />
<path d="M182.3534 87.3801
L182.4010 87.3324
" />
<path d="M182.4010 87.3324
L182.4962 87.2848
" />
<path d="M182.4962 87.2848
L182.7343 87.2848
" />
<path d="M182.7343 87.2848
L182.8772 87.3324
" />
<path d="M183.6391 87.7610
L183.7820 87.8086
" />
<path d="M183.7820 87.8086
L183.8296 87.8562
" />
<path d="M183.8296 87.8562
L183.8772 87.9515
" />
<path d="M183.8772 87.9515
L183.8772 88.0943
" />
<path d="M183.8772 88.0943
L183.8296 88.1896
" />
<path d="M183.8296 88.1896
L183.7820 88.2372
" />
<path d="M183.7820 88.2372
L183.6867 88.2848
" />
<path d="M183.6867 88.2848
L183.3058 88.2848
" />
<path d="M183.3058 88.2848
L183.3058 87.2848
" />
<path d="M183.3058 87.2848
L183.6391 87.2848
" />
<path d="M183.6391 87.2848
L183.7343 87.3324
" />
<path d="M183.7343 87.3324
L183.7820 87.3801
" />
<path d="M183.7820 87.3801
L183.8296 87.4753
" />
<path d="M183.8296 87.4753
L183.8296 87.5705
" />
<path d="M183.8296 87.5705
L183.7820 87.6658
" />
<path d="M183.7820 87.6658
L183.7343 87.7134
" />
<path d="M183.7343 87.7134
L183.6391 87.7610
" />
<path d="M183.6391 87.7610
L183.3058 87.7610
" />
<path d="M184.0677 88.3801
L184.8296 88.3801
" />
<path d="M185.0201 87.9991
L185.4962 87.9991
" />
<path d="M184.9248 88.2848
L185.2582 87.2848
" />
<path d="M185.2582 87.2848
L185.5915 88.2848
" />
</g><g transform="rotate(-90.000000 183.3772 93.9700)">
<text x="183.3772" y="94.4700"
transform="scale(-1 1) translate(-366.754400 0)"
textLength="1.9643" font-size="1.3333" lengthAdjust="spacingAndGlyphs"
text-anchor="middle" opacity="0">J6</text>
</g>
<g class="stroked-text"><desc>J6</desc>
<path d="M183.9224 93.6367
L183.2081 93.6367
" />
<path d="M183.2081 93.6367
L183.0652 93.5890
" />
<path d="M183.0652 93.5890
L182.9700 93.4938
" />
<path d="M182.9700 93.4938
L182.9224 93.3510
" />
<path d="M182.9224 93.3510
L182.9224 93.2557
" />
<path d="M183.9224 94.5414
L183.9224 94.3510
" />
<path d="M183.9224 94.3510
L183.8748 94.2557
" />
<path d="M183.8748 94.2557
L183.8271 94.2081
" />
<path d="M183.8271 94.2081
L183.6843 94.1129
" />
<path d="M183.6843 94.1129
L183.4938 94.0652
" />
<path d="M183.4938 94.0652
L183.1129 94.0652
" />
<path d="M183.1129 94.0652
L183.0176 94.1129
" />
<path d="M183.0176 94.1129
L182.9700 94.1605
" />
<path d="M182.9700 94.1605
L182.9224 94.2557
" />
<path d="M182.9224 94.2557
L182.9224 94.4462
" />
<path d="M182.9224 94.4462
L182.9700 94.5414
" />
<path d="M182.9700 94.5414
L183.0176 94.5890
" />
<path d="M183.0176 94.5890
L183.1129 94.6367
" />
<path d="M183.1129 94.6367
L183.3510 94.6367
" />
<path d="M183.3510 94.6367
L183.4462 94.5890
" />
<path d="M183.4462 94.5890
L183.4938 94.5414
" />
<path d="M183.4938 94.5414
L183.5414 94.4462
" />
<path d="M183.5414 94.4462
L183.5414 94.2557
" />
<path d="M183.5414 94.2557
L183.4938 94.1605
" />
<path d="M183.4938 94.1605
L183.4462 94.1129
" />
<path d="M183.4462 94.1129
L183.3510 94.0652
" />
</g><text x="157.5422" y="55.5400"
transform="scale(-1 1) translate(-315.084400 0)"
textLength="9.3452" font-size="1.3333" lengthAdjust="spacingAndGlyphs"
text-anchor="middle" opacity="0">Conn_02x01</text>
<g class="stroked-text"><desc>Conn_02x01</desc>
<path d="M153.8041 55.3996
L153.7565 55.4472
" />
<path d="M153.7565 55.4472
L153.6136 55.4948
" />
<path d="M153.6136 55.4948
L153.5184 55.4948
" />
<path d="M153.5184 55.4948
L153.3755 55.4472
" />
<path d="M153.3755 55.4472
L153.2803 55.3520
" />
<path d="M153.2803 55.3520
L153.2327 55.2567
" />
<path d="M153.2327 55.2567
L153.1851 55.0662
" />
<path d="M153.1851 55.0662
L153.1851 54.9234
" />
<path d="M153.1851 54.9234
L153.2327 54.7329
" />
<path d="M153.2327 54.7329
L153.2803 54.6377
" />
<path d="M153.2803 54.6377
L153.3755 54.5424
" />
<path d="M153.3755 54.5424
L153.5184 54.4948
" />
<path d="M153.5184 54.4948
L153.6136 54.4948
" />
<path d="M153.6136 54.4948
L153.7565 54.5424
" />
<path d="M153.7565 54.5424
L153.8041 54.5901
" />
<path d="M154.3755 55.4948
L154.2803 55.4472
" />
<path d="M154.2803 55.4472
L154.2327 55.3996
" />
<path d="M154.2327 55.3996
L154.1851 55.3043
" />
<path d="M154.1851 55.3043
L154.1851 55.0186
" />
<path d="M154.1851 55.0186
L154.2327 54.9234
" />
<path d="M154.2327 54.9234
L154.2803 54.8758
" />
<path d="M154.2803 54.8758
L154.3755 54.8282
" />
<path d="M154.3755 54.8282
L154.5184 54.8282
" />
<path d="M154.5184 54.8282
L154.6136 54.8758
" />
<path d="M154.6136 54.8758
L154.6612 54.9234
" />
<path d="M154.6612 54.9234
L154.7089 55.0186
" />
<path d="M154.7089 55.0186
L154.7089 55.3043
" />
<path d="M154.7089 55.3043
L154.6612 55.3996
" />
<path d="M154.6612 55.3996
L154.6136 55.4472
" />
<path d="M154.6136 55.4472
L154.5184 55.4948
" />
<path d="M154.5184 55.4948
L154.3755 55.4948
" />
<path d="M155.1374 54.8282
L155.1374 55.4948
" />
<path d="M155.1374 54.9234
L155.1851 54.8758
" />
<path d="M155.1851 54.8758
L155.2803 54.8282
" />
<path d="M155.2803 54.8282
L155.4232 54.8282
" />
<path d="M155.4232 54.8282
L155.5184 54.8758
" />
<path d="M155.5184 54.8758
L155.5660 54.9710
" />
<path d="M155.5660 54.9710
L155.5660 55.4948
" />
<path d="M156.0422 54.8282
L156.0422 55.4948
" />
<path d="M156.0422 54.9234
L156.0898 54.8758
" />
<path d="M156.0898 54.8758
L156.1851 54.8282
" />
<path d="M156.1851 54.8282
L156.3279 54.8282
" />
<path d="M156.3279 54.8282
L156.4232 54.8758
" />
<path d="M156.4232 54.8758
L156.4708 54.9710
" />
<path d="M156.4708 54.9710
L156.4708 55.4948
" />
<path d="M156.7089 55.5901
L157.4708 55.5901
" />
<path d="M157.8993 54.4948
L157.9946 54.4948
" />
<path d="M157.9946 54.4948
L158.0898 54.5424
" />
<path d="M158.0898 54.5424
L158.1374 54.5901
" />
<path d="M158.1374 54.5901
L158.1851 54.6853
" />
<path d="M158.1851 54.6853
L158.2327 54.8758
" />
<path d="M158.2327 54.8758
L158.2327 55.1139
" />
<path d="M158.2327 55.1139
L158.1851 55.3043
" />
<path d="M158.1851 55.3043
L158.1374 55.3996
" />
<path d="M158.1374 55.3996
L158.0898 55.4472
" />
<path d="M158.0898 55.4472
L157.9946 55.4948
" />
<path d="M157.9946 55.4948
L157.8993 55.4948
" />
<path d="M157.8993 55.4948
L157.8041 55.4472
" />
<path d="M157.8041 55.4472
L157.7565 55.3996
" />
<path d="M157.7565 55.3996
L157.7089 55.3043
" />
<path d="M157.7089 55.3043
L157.6612 55.1139
" />
<path d="M157.6612 55.1139
L157.6612 54.8758
" />
<path d="M157.6612 54.8758
L157.7089 54.6853
" />
<path d="M157.7089 54.6853
L157.7565 54.5901
" />
<path d="M157.7565 54.5901
L157.8041 54.5424
" />
<path d="M157.8041 54.5424
L157.8993 54.4948
" />
<path d="M158.6136 54.5901
L158.6612 54.5424
" />
<path d="M158.6612 54.5424
L158.7565 54.4948
" />
<path d="M158.7565 54.4948
L158.9946 54.4948
" />
<path d="M158.9946 54.4948
L159.0898 54.5424
" />
<path d="M159.0898 54.5424
L159.1374 54.5901
" />
<path d="M159.1374 54.5901
L159.1851 54.6853
" />
<path d="M159.1851 54.6853
L159.1851 54.7805
" />
<path d="M159.1851 54.7805
L159.1374 54.9234
" />
<path d="M159.1374 54.9234
L158.5660 55.4948
" />
<path d="M158.5660 55.4948
L159.1851 55.4948
" />
<path d="M159.5184 55.4948
L160.0422 54.8282
" />
<path d="M159.5184 54.8282
L160.0422 55.4948
" />
<path d="M160.6136 54.4948
L160.7089 54.4948
" />
<path d="M160.7089 54.4948
L160.8041 54.5424
" />
<path d="M160.8041 54.5424
L160.8517 54.5901
" />
<path d="M160.8517 54.5901
L160.8993 54.6853
" />
<path d="M160.8993 54.6853
L160.9470 54.8758
" />
<path d="M160.9470 54.8758
L160.9470 55.1139
" />
<path d="M160.9470 55.1139
L160.8993 55.3043
" />
<path d="M160.8993 55.3043
L160.8517 55.3996
" />
<path d="M160.8517 55.3996
L160.8041 55.4472
" />
<path d="M160.8041 55.4472
L160.7089 55.4948
" />
<path d="M160.7089 55.4948
L160.6136 55.4948
" />
<path d="M160.6136 55.4948
L160.5184 55.4472
" />
<path d="M160.5184 55.4472
L160.4708 55.3996
" />
<path d="M160.4708 55.3996
L160.4232 55.3043
" />
<path d="M160.4232 55.3043
L160.3755 55.1139
" />
<path d="M160.3755 55.1139
L160.3755 54.8758
" />
<path d="M160.3755 54.8758
L160.4232 54.6853
" />
<path d="M160.4232 54.6853
L160.4708 54.5901
" />
<path d="M160.4708 54.5901
L160.5184 54.5424
" />
<path d="M160.5184 54.5424
L160.6136 54.4948
" />
<path d="M161.8993 55.4948
L161.3279 55.4948
" />
<path d="M161.6136 55.4948
L161.6136 54.4948
" />
<path d="M161.6136 54.4948
L161.5184 54.6377
" />
<path d="M161.5184 54.6377
L161.4232 54.7329
" />
<path d="M161.4232 54.7329
L161.3279 54.7805
" />
</g><g transform="rotate(-90.000000 159.1572 58.5800)">
<text x="159.1572" y="59.0800"
transform="scale(-1 1) translate(-318.314400 0)"
textLength="2.9167" font-size="1.3333" lengthAdjust="spacingAndGlyphs"
text-anchor="middle" opacity="0">J14</text>
</g>
<g class="stroked-text"><desc>J14</desc>
<path d="M159.7024 57.7705
L158.9881 57.7705
" />
<path d="M158.9881 57.7705
L158.8452 57.7229
" />
<path d="M158.8452 57.7229
L158.7500 57.6276
" />
<path d="M158.7500 57.6276
L158.7024 57.4848
" />
<path d="M158.7024 57.4848
L158.7024 57.3895
" />
<path d="M158.7024 58.7705
L158.7024 58.1990
" />
<path d="M158.7024 58.4848
L159.7024 58.4848
" />
<path d="M159.7024 58.4848
L159.5595 58.3895
" />
<path d="M159.5595 58.3895
L159.4643 58.2943
" />
<path d="M159.4643 58.2943
L159.4167 58.1990
" />
<path d="M159.3690 59.6276
L158.7024 59.6276
" />
<path d="M159.7500 59.3895
L159.0357 59.1514
" />
<path d="M159.0357 59.1514
L159.0357 59.7705
" />
</g><text x="170.0530" y="56.7296"
transform="scale(-1 1) translate(-340.106000 0)"
textLength="9.7738" font-size="1.3333" lengthAdjust="spacingAndGlyphs"
text-anchor="middle" opacity="0">Pico USB TP</text>
<g class="stroked-text"><desc>Pico USB TP</desc>
<path d="M165.5292 56.6844
L165.5292 55.6844
" />
<path d="M165.5292 55.6844
L165.9101 55.6844
" />
<path d="M165.9101 55.6844
L166.0054 55.7320
" />
<path d="M166.0054 55.7320
L166.0530 55.7797
" />
<path d="M166.0530 55.7797
L166.1006 55.8749
" />
<path d="M166.1006 55.8749
L166.1006 56.0178
" />
<path d="M166.1006 56.0178
L166.0530 56.1130
" />
<path d="M166.0530 56.1130
L166.0054 56.1606
" />
<path d="M166.0054 56.1606
L165.9101 56.2082
" />
<path d="M165.9101 56.2082
L165.5292 56.2082
" />
<path d="M166.5292 56.6844
L166.5292 56.0178
" />
<path d="M166.5292 55.6844
L166.4816 55.7320
" />
<path d="M166.4816 55.7320
L166.5292 55.7797
" />
<path d="M166.5292 55.7797
L166.5768 55.7320
" />
<path d="M166.5768 55.7320
L166.5292 55.6844
" />
<path d="M166.5292 55.6844
L166.5292 55.7797
" />
<path d="M167.4340 56.6368
L167.3387 56.6844
" />
<path d="M167.3387 56.6844
L167.1482 56.6844
" />
<path d="M167.1482 56.6844
L167.0530 56.6368
" />
<path d="M167.0530 56.6368
L167.0054 56.5892
" />
<path d="M167.0054 56.5892
L166.9578 56.4939
" />
<path d="M166.9578 56.4939
L166.9578 56.2082
" />
<path d="M166.9578 56.2082
L167.0054 56.1130
" />
<path d="M167.0054 56.1130
L167.0530 56.0654
" />
<path d="M167.0530 56.0654
L167.1482 56.0178
" />
<path d="M167.1482 56.0178
L167.3387 56.0178
" />
<path d="M167.3387 56.0178
L167.4340 56.0654
" />
<path d="M168.0054 56.6844
L167.9101 56.6368
" />
<path d="M167.9101 56.6368
L167.8625 56.5892
" />
<path d="M167.8625 56.5892
L167.8149 56.4939
" />
<path d="M167.8149 56.4939
L167.8149 56.2082
" />
<path d="M167.8149 56.2082
L167.8625 56.1130
" />
<path d="M167.8625 56.1130
L167.9101 56.0654
" />
<path d="M167.9101 56.0654
L168.0054 56.0178
" />
<path d="M168.0054 56.0178
L168.1482 56.0178
" />
<path d="M168.1482 56.0178
L168.2435 56.0654
" />
<path d="M168.2435 56.0654
L168.2911 56.1130
" />
<path d="M168.2911 56.1130
L168.3387 56.2082
" />
<path d="M168.3387 56.2082
L168.3387 56.4939
" />
<path d="M168.3387 56.4939
L168.2911 56.5892
" />
<path d="M168.2911 56.5892
L168.2435 56.6368
" />
<path d="M168.2435 56.6368
L168.1482 56.6844
" />
<path d="M168.1482 56.6844
L168.0054 56.6844
" />
<path d="M169.5292 55.6844
L169.5292 56.4939
" />
<path d="M169.5292 56.4939
L169.5768 56.5892
" />
<path d="M169.5768 56.5892
L169.6244 56.6368
" />
<path d="M169.6244 56.6368
L169.7197 56.6844
" />
<path d="M169.7197 56.6844
L169.9101 56.6844
" />
<path d="M169.9101 56.6844
L170.0054 56.6368
" />
<path d="M170.0054 56.6368
L170.0530 56.5892
" />
<path d="M170.0530 56.5892
L170.1006 56.4939
" />
<path d="M170.1006 56.4939
L170.1006 55.6844
" />
<path d="M170.5292 56.6368
L170.6720 56.6844
" />
<path d="M170.6720 56.6844
L170.9101 56.6844
" />
<path d="M170.9101 56.6844
L171.0054 56.6368
" />
<path d="M171.0054 56.6368
L171.0530 56.5892
" />
<path d="M171.0530 56.5892
L171.1006 56.4939
" />
<path d="M171.1006 56.4939
L171.1006 56.3987
" />
<path d="M171.1006 56.3987
L171.0530 56.3035
" />
<path d="M171.0530 56.3035
L171.0054 56.2558
" />
<path d="M171.0054 56.2558
L170.9101 56.2082
" />
<path d="M170.9101 56.2082
L170.7197 56.1606
" />
<path d="M170.7197 56.1606
L170.6244 56.1130
" />
<path d="M170.6244 56.1130
L170.5768 56.0654
" />
<path d="M170.5768 56.0654
L170.5292 55.9701
" />
<path d="M170.5292 55.9701
L170.5292 55.8749
" />
<path d="M170.5292 55.8749
L170.5768 55.7797
" />
<path d="M170.5768 55.7797
L170.6244 55.7320
" />
<path d="M170.6244 55.7320
L170.7197 55.6844
" />
<path d="M170.7197 55.6844
L170.9578 55.6844
" />
<path d="M170.9578 55.6844
L171.1006 55.7320
" />
<path d="M171.8625 56.1606
L172.0054 56.2082
" />
<path d="M172.0054 56.2082
L172.0530 56.2558
" />
<path d="M172.0530 56.2558
L172.1006 56.3511
" />
<path d="M172.1006 56.3511
L172.1006 56.4939
" />
<path d="M172.1006 56.4939
L172.0530 56.5892
" />
<path d="M172.0530 56.5892
L172.0054 56.6368
" />
<path d="M172.0054 56.6368
L171.9101 56.6844
" />
<path d="M171.9101 56.6844
L171.5292 56.6844
" />
<path d="M171.5292 56.6844
L171.5292 55.6844
" />
<path d="M171.5292 55.6844
L171.8625 55.6844
" />
<path d="M171.8625 55.6844
L171.9578 55.7320
" />
<path d="M171.9578 55.7320
L172.0054 55.7797
" />
<path d="M172.0054 55.7797
L172.0530 55.8749
" />
<path d="M172.0530 55.8749
L172.0530 55.9701
" />
<path d="M172.0530 55.9701
L172.0054 56.0654
" />
<path d="M172.0054 56.0654
L171.9578 56.1130
" />
<path d="M171.9578 56.1130
L171.8625 56.1606
" />
<path d="M171.8625 56.1606
L171.5292 56.1606
" />
<path d="M173.1482 55.6844
L173.7197 55.6844
" />
<path d="M173.4340 56.6844
L173.4340 55.6844
" />
<path d="M174.0530 56.6844
L174.0530 55.6844
" />
<path d="M174.0530 55.6844
L174.4340 55.6844
" />
<path d="M174.4340 55.6844
L174.5292 55.7320
" />
<path d="M174.5292 55.7320
L174.5768 55.7797
" />
<path d="M174.5768 55.7797
L174.6244 55.8749
" />
<path d="M174.6244 55.8749
L174.6244 56.0178
" />
<path d="M174.6244 56.0178
L174.5768 56.1130
" />
<path d="M174.5768 56.1130
L174.5292 56.1606
" />
<path d="M174.5292 56.1606
L174.4340 56.2082
" />
<path d="M174.4340 56.2082
L174.0530 56.2082
" />
</g><g transform="rotate(-90.000000 170.0022 49.0000)">
<text x="170.0022" y="49.5000"
transform="scale(-1 1) translate(-340.004400 0)"
textLength="1.9643" font-size="1.3333" lengthAdjust="spacingAndGlyphs"
text-anchor="middle" opacity="0">J5</text>
</g>
<g class="stroked-text"><desc>J5</desc>
<path d="M170.5474 48.6667
L169.8331 48.6667
" />
<path d="M169.8331 48.6667
L169.6902 48.6190
" />
<path d="M169.6902 48.6190
L169.5950 48.5238
" />
<path d="M169.5950 48.5238
L169.5474 48.3810
" />
<path d="M169.5474 48.3810
L169.5474 48.2857
" />
<path d="M170.5474 49.6190
L170.5474 49.1429
" />
<path d="M170.5474 49.1429
L170.0712 49.0952
" />
<path d="M170.0712 49.0952
L170.1188 49.1429
" />
<path d="M170.1188 49.1429
L170.1664 49.2381
" />
<path d="M170.1664 49.2381
L170.1664 49.4762
" />
<path d="M170.1664 49.4762
L170.1188 49.5714
" />
<path d="M170.1188 49.5714
L170.0712 49.6190
" />
<path d="M170.0712 49.6190
L169.9760 49.6667
" />
<path d="M169.9760 49.6667
L169.7379 49.6667
" />
<path d="M169.7379 49.6667
L169.6426 49.6190
" />
<path d="M169.6426 49.6190
L169.5950 49.5714
" />
<path d="M169.5950 49.5714
L169.5474 49.4762
" />
<path d="M169.5474 49.4762
L169.5474 49.2381
" />
<path d="M169.5474 49.2381
L169.5950 49.1429
" />
<path d="M169.5950 49.1429
L169.6426 49.0952
" />
</g><g transform="rotate(-90.000000 211.9022 74.9000)">
<text x="211.9022" y="75.4000"
transform="scale(-1 1) translate(-423.804400 0)"
textLength="2.9643" font-size="1.3333" lengthAdjust="spacingAndGlyphs"
text-anchor="middle" opacity="0">SJP</text>
</g>
<g class="stroked-text"><desc>SJP</desc>
<path d="M211.4950 73.7333
L211.4474 73.8762
" />
<path d="M211.4474 73.8762
L211.4474 74.1143
" />
<path d="M211.4474 74.1143
L211.4950 74.2095
" />
<path d="M211.4950 74.2095
L211.5426 74.2571
" />
<path d="M211.5426 74.2571
L211.6379 74.3048
" />
<path d="M211.6379 74.3048
L211.7331 74.3048
" />
<path d="M211.7331 74.3048
L211.8283 74.2571
" />
<path d="M211.8283 74.2571
L211.8760 74.2095
" />
<path d="M211.8760 74.2095
L211.9236 74.1143
" />
<path d="M211.9236 74.1143
L211.9712 73.9238
" />
<path d="M211.9712 73.9238
L212.0188 73.8286
" />
<path d="M212.0188 73.8286
L212.0664 73.7810
" />
<path d="M212.0664 73.7810
L212.1617 73.7333
" />
<path d="M212.1617 73.7333
L212.2569 73.7333
" />
<path d="M212.2569 73.7333
L212.3521 73.7810
" />
<path d="M212.3521 73.7810
L212.3998 73.8286
" />
<path d="M212.3998 73.8286
L212.4474 73.9238
" />
<path d="M212.4474 73.9238
L212.4474 74.1619
" />
<path d="M212.4474 74.1619
L212.3998 74.3048
" />
<path d="M212.4474 75.0190
L211.7331 75.0190
" />
<path d="M211.7331 75.0190
L211.5902 74.9714
" />
<path d="M211.5902 74.9714
L211.4950 74.8762
" />
<path d="M211.4950 74.8762
L211.4474 74.7333
" />
<path d="M211.4474 74.7333
L211.4474 74.6381
" />
<path d="M211.4474 75.4952
L212.4474 75.4952
" />
<path d="M212.4474 75.4952
L212.4474 75.8762
" />
<path d="M212.4474 75.8762
L212.3998 75.9714
" />
<path d="M212.3998 75.9714
L212.3521 76.0190
" />
<path d="M212.3521 76.0190
L212.2569 76.0667
" />
<path d="M212.2569 76.0667
L212.1140 76.0667
" />
<path d="M212.1140 76.0667
L212.0188 76.0190
" />
<path d="M212.0188 76.0190
L211.9712 75.9714
" />
<path d="M211.9712 75.9714
L211.9236 75.8762
" />
<path d="M211.9236 75.8762
L211.9236 75.4952
" />
</g><g transform="rotate(-90.000000 196.1612 49.0000)">
<text x="196.1612" y="49.5000"
transform="scale(-1 1) translate(-392.322400 0)"
textLength="3.4881" font-size="1.3333" lengthAdjust="spacingAndGlyphs"
text-anchor="middle" opacity="0">Pico</text>
</g>
<g class="stroked-text"><desc>Pico</desc>
<path d="M195.7064 47.6190
L196.7064 47.6190
" />
<path d="M196.7064 47.6190
L196.7064 48.0000
" />
<path d="M196.7064 48.0000
L196.6588 48.0952
" />
<path d="M196.6588 48.0952
L196.6111 48.1429
" />
<path d="M196.6111 48.1429
L196.5159 48.1905
" />
<path d="M196.5159 48.1905
L196.3730 48.1905
" />
<path d="M196.3730 48.1905
L196.2778 48.1429
" />
<path d="M196.2778 48.1429
L196.2302 48.0952
" />
<path d="M196.2302 48.0952
L196.1826 48.0000
" />
<path d="M196.1826 48.0000
L196.1826 47.6190
" />
<path d="M195.7064 48.6190
L196.3730 48.6190
" />
<path d="M196.7064 48.6190
L196.6588 48.5714
" />
<path d="M196.6588 48.5714
L196.6111 48.6190
" />
<path d="M196.6111 48.6190
L196.6588 48.6667
" />
<path d="M196.6588 48.6667
L196.7064 48.6190
" />
<path d="M196.7064 48.6190
L196.6111 48.6190
" />
<path d="M195.7540 49.5238
L195.7064 49.4286
" />
<path d="M195.7064 49.4286
L195.7064 49.2381
" />
<path d="M195.7064 49.2381
L195.7540 49.1429
" />
<path d="M195.7540 49.1429
L195.8016 49.0952
" />
<path d="M195.8016 49.0952
L195.8969 49.0476
" />
<path d="M195.8969 49.0476
L196.1826 49.0476
" />
<path d="M196.1826 49.0476
L196.2778 49.0952
" />
<path d="M196.2778 49.0952
L196.3254 49.1429
" />
<path d="M196.3254 49.1429
L196.3730 49.2381
" />
<path d="M196.3730 49.2381
L196.3730 49.4286
" />
<path d="M196.3730 49.4286
L196.3254 49.5238
" />
<path d="M195.7064 50.0952
L195.7540 50.0000
" />
<path d="M195.7540 50.0000
L195.8016 49.9524
" />
<path d="M195.8016 49.9524
L195.8969 49.9048
" />
<path d="M195.8969 49.9048
L196.1826 49.9048
" />
<path d="M196.1826 49.9048
L196.2778 49.9524
" />
<path d="M196.2778 49.9524
L196.3254 50.0000
" />
<path d="M196.3254 50.0000
L196.3730 50.0952
" />
<path d="M196.3730 50.0952
L196.3730 50.2381
" />
<path d="M196.3730 50.2381
L196.3254 50.3333
" />
<path d="M196.3254 50.3333
L196.2778 50.3810
" />
<path d="M196.2778 50.3810
L196.1826 50.4286
" />
<path d="M196.1826 50.4286
L195.8969 50.4286
" />
<path d="M195.8969 50.4286
L195.8016 50.3810
" />
<path d="M195.8016 50.3810
L195.7540 50.3333
" />
<path d="M195.7540 50.3333
L195.7064 50.2381
" />
<path d="M195.7064 50.2381
L195.7064 50.0952
" />
</g><g transform="rotate(-90.000000 194.0022 49.0000)">
<text x="194.0022" y="49.5000"
transform="scale(-1 1) translate(-388.004400 0)"
textLength="2.2500" font-size="1.3333" lengthAdjust="spacingAndGlyphs"
text-anchor="middle" opacity="0">U1</text>
</g>
<g class="stroked-text"><desc>U1</desc>
<path d="M194.5474 48.2381
L193.7379 48.2381
" />
<path d="M193.7379 48.2381
L193.6426 48.2857
" />
<path d="M193.6426 48.2857
L193.5950 48.3333
" />
<path d="M193.5950 48.3333
L193.5474 48.4286
" />
<path d="M193.5474 48.4286
L193.5474 48.6190
" />
<path d="M193.5474 48.6190
L193.5950 48.7143
" />
<path d="M193.5950 48.7143
L193.6426 48.7619
" />
<path d="M193.6426 48.7619
L193.7379 48.8095
" />
<path d="M193.7379 48.8095
L194.5474 48.8095
" />
<path d="M193.5474 49.8095
L193.5474 49.2381
" />
<path d="M193.5474 49.5238
L194.5474 49.5238
" />
<path d="M194.5474 49.5238
L194.4045 49.4286
" />
<path d="M194.4045 49.4286
L194.3093 49.3333
" />
<path d="M194.3093 49.3333
L194.2617 49.2381
" />
</g><g transform="rotate(-90.000000 214.4022 74.9000)">
<text x="214.4022" y="75.4000"
transform="scale(-1 1) translate(-428.804400 0)"
textLength="2.9643" font-size="1.3333" lengthAdjust="spacingAndGlyphs"
text-anchor="middle" opacity="0">SJP</text>
</g>
<g class="stroked-text"><desc>SJP</desc>
<path d="M213.9950 73.7333
L213.9474 73.8762
" />
<path d="M213.9474 73.8762
L213.9474 74.1143
" />
<path d="M213.9474 74.1143
L213.9950 74.2095
" />
<path d="M213.9950 74.2095
L214.0426 74.2571
" />
<path d="M214.0426 74.2571
L214.1379 74.3048
" />
<path d="M214.1379 74.3048
L214.2331 74.3048
" />
<path d="M214.2331 74.3048
L214.3283 74.2571
" />
<path d="M214.3283 74.2571
L214.3760 74.2095
" />
<path d="M214.3760 74.2095
L214.4236 74.1143
" />
<path d="M214.4236 74.1143
L214.4712 73.9238
" />
<path d="M214.4712 73.9238
L214.5188 73.8286
" />
<path d="M214.5188 73.8286
L214.5664 73.7810
" />
<path d="M214.5664 73.7810
L214.6617 73.7333
" />
<path d="M214.6617 73.7333
L214.7569 73.7333
" />
<path d="M214.7569 73.7333
L214.8521 73.7810
" />
<path d="M214.8521 73.7810
L214.8998 73.8286
" />
<path d="M214.8998 73.8286
L214.9474 73.9238
" />
<path d="M214.9474 73.9238
L214.9474 74.1619
" />
<path d="M214.9474 74.1619
L214.8998 74.3048
" />
<path d="M214.9474 75.0190
L214.2331 75.0190
" />
<path d="M214.2331 75.0190
L214.0902 74.9714
" />
<path d="M214.0902 74.9714
L213.9950 74.8762
" />
<path d="M213.9950 74.8762
L213.9474 74.7333
" />
<path d="M213.9474 74.7333
L213.9474 74.6381
" />
<path d="M213.9474 75.4952
L214.9474 75.4952
" />
<path d="M214.9474 75.4952
L214.9474 75.8762
" />
<path d="M214.9474 75.8762
L214.8998 75.9714
" />
<path d="M214.8998 75.9714
L214.8521 76.0190
" />
<path d="M214.8521 76.0190
L214.7569 76.0667
" />
<path d="M214.7569 76.0667
L214.6140 76.0667
" />
<path d="M214.6140 76.0667
L214.5188 76.0190
" />
<path d="M214.5188 76.0190
L214.4712 75.9714
" />
<path d="M214.4712 75.9714
L214.4236 75.8762
" />
<path d="M214.4236 75.8762
L214.4236 75.4952
" />
</g><g transform="rotate(-90.000000 242.0122 121.1000)">
<text x="242.0122" y="121.6000"
transform="scale(-1 1) translate(-484.024400 0)"
textLength="10.1071" font-size="1.3333" lengthAdjust="spacingAndGlyphs"
text-anchor="middle" opacity="0">RGB_LED_EXT</text>
</g>
<g class="stroked-text"><desc>RGB_LED_EXT</desc>
<path d="M241.5574 116.9810
L242.0336 116.6476
" />
<path d="M241.5574 116.4095
L242.5574 116.4095
" />
<path d="M242.5574 116.4095
L242.5574 116.7905
" />
<path d="M242.5574 116.7905
L242.5098 116.8857
" />
<path d="M242.5098 116.8857
L242.4621 116.9333
" />
<path d="M242.4621 116.9333
L242.3669 116.9810
" />
<path d="M242.3669 116.9810
L242.2240 116.9810
" />
<path d="M242.2240 116.9810
L242.1288 116.9333
" />
<path d="M242.1288 116.9333
L242.0812 116.8857
" />
<path d="M242.0812 116.8857
L242.0336 116.7905
" />
<path d="M242.0336 116.7905
L242.0336 116.4095
" />
<path d="M242.5098 117.9333
L242.5574 117.8381
" />
<path d="M242.5574 117.8381
L242.5574 117.6952
" />
<path d="M242.5574 117.6952
L242.5098 117.5524
" />
<path d="M242.5098 117.5524
L242.4145 117.4571
" />
<path d="M242.4145 117.4571
L242.3193 117.4095
" />
<path d="M242.3193 117.4095
L242.1288 117.3619
" />
<path d="M242.1288 117.3619
L241.9860 117.3619
" />
<path d="M241.9860 117.3619
L241.7955 117.4095
" />
<path d="M241.7955 117.4095
L241.7002 117.4571
" />
<path d="M241.7002 117.4571
L241.6050 117.5524
" />
<path d="M241.6050 117.5524
L241.5574 117.6952
" />
<path d="M241.5574 117.6952
L241.5574 117.7905
" />
<path d="M241.5574 117.7905
L241.6050 117.9333
" />
<path d="M241.6050 117.9333
L241.6526 117.9810
" />
<path d="M241.6526 117.9810
L241.9860 117.9810
" />
<path d="M241.9860 117.9810
L241.9860 117.7905
" />
<path d="M242.0812 118.7429
L242.0336 118.8857
" />
<path d="M242.0336 118.8857
L241.9860 118.9333
" />
<path d="M241.9860 118.9333
L241.8907 118.9810
" />
<path d="M241.8907 118.9810
L241.7479 118.9810
" />
<path d="M241.7479 118.9810
L241.6526 118.9333
" />
<path d="M241.6526 118.9333
L241.6050 118.8857
" />
<path d="M241.6050 118.8857
L241.5574 118.7905
" />
<path d="M241.5574 118.7905
L241.5574 118.4095
" />
<path d="M241.5574 118.4095
L242.5574 118.4095
" />
<path d="M242.5574 118.4095
L242.5574 118.7429
" />
<path d="M242.5574 118.7429
L242.5098 118.8381
" />
<path d="M242.5098 118.8381
L242.4621 118.8857
" />
<path d="M242.4621 118.8857
L242.3669 118.9333
" />
<path d="M242.3669 118.9333
L242.2717 118.9333
" />
<path d="M242.2717 118.9333
L242.1764 118.8857
" />
<path d="M242.1764 118.8857
L242.1288 118.8381
" />
<path d="M242.1288 118.8381
L242.0812 118.7429
" />
<path d="M242.0812 118.7429
L242.0812 118.4095
" />
<path d="M241.4621 119.1714
L241.4621 119.9333
" />
<path d="M241.5574 120.6476
L241.5574 120.1714
" />
<path d="M241.5574 120.1714
L242.5574 120.1714
" />
<path d="M242.0812 120.9810
L242.0812 121.3143
" />
<path d="M241.5574 121.4571
L241.5574 120.9810
" />
<path d="M241.5574 120.9810
L242.5574 120.9810
" />
<path d="M242.5574 120.9810
L242.5574 121.4571
" />
<path d="M241.5574 121.8857
L242.5574 121.8857
" />
<path d="M242.5574 121.8857
L242.5574 122.1238
" />
<path d="M242.5574 122.1238
L242.5098 122.2667
" />
<path d="M242.5098 122.2667
L242.4145 122.3619
" />
<path d="M242.4145 122.3619
L242.3193 122.4095
" />
<path d="M242.3193 122.4095
L242.1288 122.4571
" />
<path d="M242.1288 122.4571
L241.9860 122.4571
" />
<path d="M241.9860 122.4571
L241.7955 122.4095
" />
<path d="M241.7955 122.4095
L241.7002 122.3619
" />
<path d="M241.7002 122.3619
L241.6050 122.2667
" />
<path d="M241.6050 122.2667
L241.5574 122.1238
" />
<path d="M241.5574 122.1238
L241.5574 121.8857
" />
<path d="M241.4621 122.6476
L241.4621 123.4095
" />
<path d="M242.0812 123.6476
L242.0812 123.9810
" />
<path d="M241.5574 124.1238
L241.5574 123.6476
" />
<path d="M241.5574 123.6476
L242.5574 123.6476
" />
<path d="M242.5574 123.6476
L242.5574 124.1238
" />
<path d="M242.5574 124.4571
L241.5574 125.1238
" />
<path d="M242.5574 125.1238
L241.5574 124.4571
" />
<path d="M242.5574 125.3619
L242.5574 125.9333
" />
<path d="M241.5574 125.6476
L242.5574 125.6476
" />
</g><g transform="rotate(-90.000000 250.7772 120.4450)">
<text x="250.7772" y="120.9450"
transform="scale(-1 1) translate(-501.554400 0)"
textLength="1.9643" font-size="1.3333" lengthAdjust="spacingAndGlyphs"
text-anchor="middle" opacity="0">J4</text>
</g>
<g class="stroked-text"><desc>J4</desc>
<path d="M251.3224 120.1117
L250.6081 120.1117
" />
<path d="M250.6081 120.1117
L250.4652 120.0640
" />
<path d="M250.4652 120.0640
L250.3700 119.9688
" />
<path d="M250.3700 119.9688
L250.3224 119.8260
" />
<path d="M250.3224 119.8260
L250.3224 119.7307
" />
<path d="M250.9890 121.0164
L250.3224 121.0164
" />
<path d="M251.3700 120.7783
L250.6557 120.5402
" />
<path d="M250.6557 120.5402
L250.6557 121.1593
" />
</g><g transform="rotate(-90.000000 173.3022 93.7756)">
<text x="173.3022" y="94.2756"
transform="scale(-1 1) translate(-346.604400 0)"
textLength="7.7262" font-size="1.3333" lengthAdjust="spacingAndGlyphs"
text-anchor="middle" opacity="0">HiFi Berry</text>
</g>
<g class="stroked-text"><desc>HiFi Berry</desc>
<path d="M172.8474 90.2756
L173.8474 90.2756
" />
<path d="M173.3712 90.2756
L173.3712 90.8470
" />
<path d="M172.8474 90.8470
L173.8474 90.8470
" />
<path d="M172.8474 91.3232
L173.5140 91.3232
" />
<path d="M173.8474 91.3232
L173.7998 91.2756
" />
<path d="M173.7998 91.2756
L173.7521 91.3232
" />
<path d="M173.7521 91.3232
L173.7998 91.3708
" />
<path d="M173.7998 91.3708
L173.8474 91.3232
" />
<path d="M173.8474 91.3232
L173.7521 91.3232
" />
<path d="M173.3712 92.1327
L173.3712 91.7994
" />
<path d="M172.8474 91.7994
L173.8474 91.7994
" />
<path d="M173.8474 91.7994
L173.8474 92.2756
" />
<path d="M172.8474 92.6566
L173.5140 92.6566
" />
<path d="M173.8474 92.6566
L173.7998 92.6089
" />
<path d="M173.7998 92.6089
L173.7521 92.6566
" />
<path d="M173.7521 92.6566
L173.7998 92.7042
" />
<path d="M173.7998 92.7042
L173.8474 92.6566
" />
<path d="M173.8474 92.6566
L173.7521 92.6566
" />
<path d="M173.3712 94.2280
L173.3236 94.3708
" />
<path d="M173.3236 94.3708
L173.2760 94.4185
" />
<path d="M173.2760 94.4185
L173.1807 94.4661
" />
<path d="M173.1807 94.4661
L173.0379 94.4661
" />
<path d="M173.0379 94.4661
L172.9426 94.4185
" />
<path d="M172.9426 94.4185
L172.8950 94.3708
" />
<path d="M172.8950 94.3708
L172.8474 94.2756
" />
<path d="M172.8474 94.2756
L172.8474 93.8946
" />
<path d="M172.8474 93.8946
L173.8474 93.8946
" />
<path d="M173.8474 93.8946
L173.8474 94.2280
" />
<path d="M173.8474 94.2280
L173.7998 94.3232
" />
<path d="M173.7998 94.3232
L173.7521 94.3708
" />
<path d="M173.7521 94.3708
L173.6569 94.4185
" />
<path d="M173.6569 94.4185
L173.5617 94.4185
" />
<path d="M173.5617 94.4185
L173.4664 94.3708
" />
<path d="M173.4664 94.3708
L173.4188 94.3232
" />
<path d="M173.4188 94.3232
L173.3712 94.2280
" />
<path d="M173.3712 94.2280
L173.3712 93.8946
" />
<path d="M172.8950 95.2756
L172.8474 95.1804
" />
<path d="M172.8474 95.1804
L172.8474 94.9899
" />
<path d="M172.8474 94.9899
L172.8950 94.8946
" />
<path d="M172.8950 94.8946
L172.9902 94.8470
" />
<path d="M172.9902 94.8470
L173.3712 94.8470
" />
<path d="M173.3712 94.8470
L173.4664 94.8946
" />
<path d="M173.4664 94.8946
L173.5140 94.9899
" />
<path d="M173.5140 94.9899
L173.5140 95.1804
" />
<path d="M173.5140 95.1804
L173.4664 95.2756
" />
<path d="M173.4664 95.2756
L173.3712 95.3232
" />
<path d="M173.3712 95.3232
L173.2760 95.3232
" />
<path d="M173.2760 95.3232
L173.1807 94.8470
" />
<path d="M172.8474 95.7518
L173.5140 95.7518
" />
<path d="M173.3236 95.7518
L173.4188 95.7994
" />
<path d="M173.4188 95.7994
L173.4664 95.8470
" />
<path d="M173.4664 95.8470
L173.5140 95.9423
" />
<path d="M173.5140 95.9423
L173.5140 96.0375
" />
<path d="M172.8474 96.3708
L173.5140 96.3708
" />
<path d="M173.3236 96.3708
L173.4188 96.4185
" />
<path d="M173.4188 96.4185
L173.4664 96.4661
" />
<path d="M173.4664 96.4661
L173.5140 96.5613
" />
<path d="M173.5140 96.5613
L173.5140 96.6566
" />
<path d="M173.5140 96.8946
L172.8474 97.1327
" />
<path d="M173.5140 97.3708
L172.8474 97.1327
" />
<path d="M172.8474 97.1327
L172.6093 97.0375
" />
<path d="M172.6093 97.0375
L172.5617 96.9899
" />
<path d="M172.5617 96.9899
L172.5140 96.8946
" />
</g><g transform="rotate(-90.000000 238.2222 41.9400)">
<text x="238.2222" y="42.4400"
transform="scale(-1 1) translate(-476.444400 0)"
textLength="9.5357" font-size="1.3333" lengthAdjust="spacingAndGlyphs"
text-anchor="middle" opacity="0">MIDI IN/OUT</text>
</g>
<g class="stroked-text"><desc>MIDI IN/OUT</desc>
<path d="M237.7674 37.5352
L238.7674 37.5352
" />
<path d="M238.7674 37.5352
L238.0531 37.8686
" />
<path d="M238.0531 37.8686
L238.7674 38.2019
" />
<path d="M238.7674 38.2019
L237.7674 38.2019
" />
<path d="M237.7674 38.6781
L238.7674 38.6781
" />
<path d="M237.7674 39.1543
L238.7674 39.1543
" />
<path d="M238.7674 39.1543
L238.7674 39.3924
" />
<path d="M238.7674 39.3924
L238.7198 39.5352
" />
<path d="M238.7198 39.5352
L238.6245 39.6305
" />
<path d="M238.6245 39.6305
L238.5293 39.6781
" />
<path d="M238.5293 39.6781
L238.3388 39.7257
" />
<path d="M238.3388 39.7257
L238.1960 39.7257
" />
<path d="M238.1960 39.7257
L238.0055 39.6781
" />
<path d="M238.0055 39.6781
L237.9102 39.6305
" />
<path d="M237.9102 39.6305
L237.8150 39.5352
" />
<path d="M237.8150 39.5352
L237.7674 39.3924
" />
<path d="M237.7674 39.3924
L237.7674 39.1543
" />
<path d="M237.7674 40.1543
L238.7674 40.1543
" />
<path d="M237.7674 41.3924
L238.7674 41.3924
" />
<path d="M237.7674 41.8686
L238.7674 41.8686
" />
<path d="M238.7674 41.8686
L237.7674 42.4400
" />
<path d="M237.7674 42.4400
L238.7674 42.4400
" />
<path d="M238.8150 43.6305
L237.5293 42.7733
" />
<path d="M238.7674 44.1543
L238.7674 44.3448
" />
<path d="M238.7674 44.3448
L238.7198 44.4400
" />
<path d="M238.7198 44.4400
L238.6245 44.5352
" />
<path d="M238.6245 44.5352
L238.4340 44.5829
" />
<path d="M238.4340 44.5829
L238.1007 44.5829
" />
<path d="M238.1007 44.5829
L237.9102 44.5352
" />
<path d="M237.9102 44.5352
L237.8150 44.4400
" />
<path d="M237.8150 44.4400
L237.7674 44.3448
" />
<path d="M237.7674 44.3448
L237.7674 44.1543
" />
<path d="M237.7674 44.1543
L237.8150 44.0590
" />
<path d="M237.8150 44.0590
L237.9102 43.9638
" />
<path d="M237.9102 43.9638
L238.1007 43.9162
" />
<path d="M238.1007 43.9162
L238.4340 43.9162
" />
<path d="M238.4340 43.9162
L238.6245 43.9638
" />
<path d="M238.6245 43.9638
L238.7198 44.0590
" />
<path d="M238.7198 44.0590
L238.7674 44.1543
" />
<path d="M238.7674 45.0114
L237.9579 45.0114
" />
<path d="M237.9579 45.0114
L237.8626 45.0590
" />
<path d="M237.8626 45.0590
L237.8150 45.1067
" />
<path d="M237.8150 45.1067
L237.7674 45.2019
" />
<path d="M237.7674 45.2019
L237.7674 45.3924
" />
<path d="M237.7674 45.3924
L237.8150 45.4876
" />
<path d="M237.8150 45.4876
L237.8626 45.5352
" />
<path d="M237.8626 45.5352
L237.9579 45.5829
" />
<path d="M237.9579 45.5829
L238.7674 45.5829
" />
<path d="M238.7674 45.9162
L238.7674 46.4876
" />
<path d="M237.7674 46.2019
L238.7674 46.2019
" />
</g><g transform="rotate(-90.000000 246.8422 42.3850)">
<text x="246.8422" y="42.8850"
transform="scale(-1 1) translate(-493.684400 0)"
textLength="2.9167" font-size="1.3333" lengthAdjust="spacingAndGlyphs"
text-anchor="middle" opacity="0">J15</text>
</g>
<g class="stroked-text"><desc>J15</desc>
<path d="M247.3874 41.5755
L246.6731 41.5755
" />
<path d="M246.6731 41.5755
L246.5302 41.5279
" />
<path d="M246.5302 41.5279
L246.4350 41.4326
" />
<path d="M246.4350 41.4326
L246.3874 41.2898
" />
<path d="M246.3874 41.2898
L246.3874 41.1945
" />
<path d="M246.3874 42.5755
L246.3874 42.0040
" />
<path d="M246.3874 42.2898
L247.3874 42.2898
" />
<path d="M247.3874 42.2898
L247.2445 42.1945
" />
<path d="M247.2445 42.1945
L247.1493 42.0993
" />
<path d="M247.1493 42.0993
L247.1017 42.0040
" />
<path d="M247.3874 43.4802
L247.3874 43.0040
" />
<path d="M247.3874 43.0040
L246.9112 42.9564
" />
<path d="M246.9112 42.9564
L246.9588 43.0040
" />
<path d="M246.9588 43.0040
L247.0064 43.0993
" />
<path d="M247.0064 43.0993
L247.0064 43.3374
" />
<path d="M247.0064 43.3374
L246.9588 43.4326
" />
<path d="M246.9588 43.4326
L246.9112 43.4802
" />
<path d="M246.9112 43.4802
L246.8160 43.5279
" />
<path d="M246.8160 43.5279
L246.5779 43.5279
" />
<path d="M246.5779 43.5279
L246.4826 43.4802
" />
<path d="M246.4826 43.4802
L246.4350 43.4326
" />
<path d="M246.4350 43.4326
L246.3874 43.3374
" />
<path d="M246.3874 43.3374
L246.3874 43.0993
" />
<path d="M246.3874 43.0993
L246.4350 43.0040
" />
<path d="M246.4350 43.0040
L246.4826 42.9564
" />
</g></g>
<g style="fill:#000000; fill-opacity:0.0; 
stroke:#000000; stroke-width:0.1000; stroke-opacity:1; 
stroke-linecap:round; stroke-linejoin:round;">
<path d="M247.4122 107.5900
L248.6822 106.3200
" />
<path d="M197.8822 107.5900
L247.4122 107.5900
" />
<path d="M248.6822 106.3200
L248.6822 102.5100
" />
<path d="M248.6822 102.5100
L197.8822 102.5100
" />
<path d="M197.8822 102.5100
L197.8822 107.5900
" />
<path d="M184.6472 88.8900
L184.6472 98.4150
" />
<path d="M184.6472 98.4150
L184.0122 99.0500
" />
<path d="M184.0122 99.0500
L182.1072 99.0500
" />
<path d="M182.1072 88.8900
L184.6472 88.8900
" />
<path d="M182.1072 99.0500
L182.1072 88.8900
" />
<path d="M162.2472 56.9900
L160.4272 56.9900
" />
<path d="M162.2472 57.6300
L162.2472 56.9900
" />
<path d="M162.2472 57.6300
L160.4272 57.6300
" />
<path d="M162.2472 59.5300
L160.4272 59.5300
" />
<path d="M162.2472 60.1700
L162.2472 59.5300
" />
<path d="M162.2472 60.1700
L160.4272 60.1700
" />
<path d="M160.4272 56.0400
L160.4272 60.4850
" />
<path d="M160.4272 60.4850
L159.7922 61.1200
" />
<path d="M159.7922 61.1200
L157.8872 61.1200
" />
<path d="M157.8872 56.0400
L160.4272 56.0400
" />
<path d="M157.8872 56.9900
L151.8872 56.9900
" />
<path d="M157.8872 57.6300
L151.8872 57.6300
" />
<path d="M157.8872 59.5300
L151.8872 59.5300
" />
<path d="M157.8872 60.1700
L151.8872 60.1700
" />
<path d="M157.8872 61.1200
L157.8872 56.0400
" />
<path d="M151.8872 57.6300
L151.8872 56.9900
" />
<path d="M151.8872 60.1700
L151.8872 59.5300
" />
</g>
<g style="fill:#000000; fill-opacity:0.0; 
stroke:#000000; stroke-width:0.1200; stroke-opacity:1; 
stroke-linecap:round; stroke-linejoin:round;">
<path d="M219.5022 59.5000
L168.5022 59.5000
" />
<path d="M169.8022 59.5000
L168.5022 58.2000
" />
<path d="M168.5022 59.5000
L168.5022 38.5000
" />
<path d="M219.5022 38.5000
L219.5022 59.5000
" />
<path d="M168.5022 38.5000
L219.5022 38.5000
" />
</g>
<g style="fill:#000000; fill-opacity:0.0; 
stroke:#000000; stroke-width:0.1000; stroke-opacity:1; 
stroke-linecap:round; stroke-linejoin:round;">
<path d="M253.7972 117.6250
L251.9772 117.6250
" />
<path d="M253.7972 118.2650
L253.7972 117.6250
" />
<path d="M253.7972 118.2650
L251.9772 118.2650
" />
<path d="M253.7972 120.1650
L251.9772 120.1650
" />
<path d="M253.7972 120.8050
L253.7972 120.1650
" />
<path d="M253.7972 120.8050
L251.9772 120.8050
" />
<path d="M253.7972 122.7050
L251.9772 122.7050
" />
<path d="M253.7972 123.3450
L253.7972 122.7050
" />
<path d="M253.7972 123.3450
L251.9772 123.3450
" />
<path d="M251.9772 116.6750
L251.9772 123.6600
" />
<path d="M251.9772 123.6600
L251.3422 124.2950
" />
<path d="M251.3422 124.2950
L249.4372 124.2950
" />
<path d="M249.4372 116.6750
L251.9772 116.6750
" />
<path d="M249.4372 117.6250
L243.4372 117.6250
" />
<path d="M249.4372 118.2650
L243.4372 118.2650
" />
<path d="M249.4372 120.1650
L243.4372 120.1650
" />
<path d="M249.4372 120.8050
L243.4372 120.8050
" />
<path d="M249.4372 122.7050
L243.4372 122.7050
" />
<path d="M249.4372 123.3450
L243.4372 123.3450
" />
<path d="M249.4372 124.2950
L249.4372 116.6750
" />
<path d="M243.4372 118.2650
L243.4372 117.6250
" />
<path d="M243.4372 120.8050
L243.4372 120.1650
" />
<path d="M243.4372 123.3450
L243.4372 122.7050
" />
<path d="M138.2722 122.9606
L145.8922 122.9606
" />
<path d="M138.2722 117.8806
L138.2722 122.9606
" />
<path d="M139.1772 81.1956
L144.2572 81.1956
" />
<path d="M139.1772 74.5756
L139.1772 81.1956
" />
<path d="M140.1772 73.5756
L139.1772 74.5756
" />
<path d="M144.2572 81.1956
L144.2572 73.5756
" />
<path d="M144.2572 73.5756
L140.1772 73.5756
" />
<path d="M144.8922 117.8806
L138.2722 117.8806
" />
<path d="M145.8922 122.9606
L145.8922 118.8806
" />
<path d="M145.8922 118.8806
L144.8922 117.8806
" />
<path d="M175.4822 117.9056
L180.5622 117.9056
" />
<path d="M175.4822 68.1056
L175.4822 117.9056
" />
<path d="M176.4822 67.1056
L175.4822 68.1056
" />
<path d="M180.5622 117.9056
L180.5622 67.1056
" />
<path d="M180.5622 67.1056
L176.4822 67.1056
" />
<path d="M252.4722 39.5250
L248.1122 39.5250
" />
<path d="M252.4722 40.1650
L252.4722 39.5250
" />
<path d="M252.4722 40.1650
L248.1122 40.1650
" />
<path d="M252.4722 42.0650
L248.1122 42.0650
" />
<path d="M252.4722 42.7050
L252.4722 42.0650
" />
<path d="M252.4722 42.7050
L248.1122 42.7050
" />
<path d="M252.4722 44.6050
L248.1122 44.6050
" />
<path d="M252.4722 45.2450
L252.4722 44.6050
" />
<path d="M252.4722 45.2450
L248.1122 45.2450
" />
<path d="M248.1122 38.5750
L248.1122 45.5600
" />
<path d="M248.1122 45.5600
L247.4772 46.1950
" />
<path d="M247.4772 46.1950
L245.5722 46.1950
" />
<path d="M245.5722 38.5750
L248.1122 38.5750
" />
<path d="M245.5722 39.5250
L239.5722 39.5250
" />
<path d="M245.5722 40.1650
L239.5722 40.1650
" />
<path d="M245.5722 42.0650
L239.5722 42.0650
" />
<path d="M245.5722 42.7050
L239.5722 42.7050
" />
<path d="M245.5722 44.6050
L239.5722 44.6050
" />
<path d="M245.5722 45.2450
L239.5722 45.2450
" />
<path d="M245.5722 46.1950
L245.5722 38.5750
" />
<path d="M239.5722 40.1650
L239.5722 39.5250
" />
<path d="M239.5722 42.7050
L239.5722 42.0650
" />
<path d="M239.5722 45.2450
L239.5722 44.6050
" />
<g >
</g>
<g >
</g>
<g >
</g>
<g >
</g>
<g >
</g>
<g >
</g>
<g >
</g>
<g >
</g>
<g >
</g>
<g >
</g>
<g >
</g>
<g >
</g>
<g >
</g>
<g >
</g>
<g >
</g>
<g >
</g>
<g >
</g>
<g >
</g>
<g >
</g>
<g >
</g>
<g >
</g>
<g >
</g>
<g >
</g>
<g >
</g>
<g >
</g>
<g >
</g>
<g >
</g>
<g >
</g>
<g >
</g>
<g >
</g>
<g >
</g>
<g >
</g>
<g >
</g>
<g >
</g>
<g >
</g>
<g >
</g>
<g >
</g>
<g >
</g>
<g >
</g>
<g >
</g>
<g >
</g>
<g >
</g>
<g >
</g>
<g >
</g>
<g >
</g>
<g >
</g>
<g >
</g>
<g >
</g>
<g >
</g>
<g >
</g>
<g >
</g>
<g >
</g>
<g >
</g>
<g >
</g>
<g >
</g>
<g >
</g>
<g >
</g>
<g >
</g>
<g >
</g>
<g >
</g>
<g >
</g>
<g >
</g>
<g >
</g>
<g >
</g>
<g >
</g>
<g >
</g>
<g >
</g>
<g >
</g>
<g >
</g>
<g >
</g>
<g >
</g>
<g >
</g>
<g >
</g>
<g >
</g>
<g >
</g>
<g >
</g>
<g >
</g>
<g >
</g>
<g >
</g>
<g >
</g>
<g >
</g>
<g >
</g>
<g >
</g>
<g >
</g>
<g >
</g>
<g >
</g>
</g> 
</svg>
