<?xml version="1.0" standalone="no"?>
 <!DOCTYPE svg PUBLIC "-//W3C//DTD SVG 1.1//EN" 
 "http://www.w3.org/Graphics/SVG/1.1/DTD/svg11.dtd"> 
<svg
  xmlns:svg="http://www.w3.org/2000/svg"
  xmlns="http://www.w3.org/2000/svg"
  xmlns:xlink="http://www.w3.org/1999/xlink"
  version="1.1"
  width="297.0022mm" height="210.0072mm" viewBox="0.0000 0.0000 297.0022 210.0072">
<title>SVG Image created as pedalboard-hw-Edge_Cuts.svg date 2023/10/12 20:52:38 </title>
  <desc>Image generated by PCBNEW </desc>
<g style="fill:#000000; fill-opacity:1.0000;stroke:#000000; stroke-opacity:1.0000;
stroke-linecap:round; stroke-linejoin:round;"
 transform="translate(0 0) scale(1 1)">
</g>
<g style="fill:#000000; fill-opacity:0.0; 
stroke:#000000; stroke-width:0.0000; stroke-opacity:1; 
stroke-linecap:round; stroke-linejoin:round;">
</g>
<g style="fill:#000000; fill-opacity:0.0; 
stroke:#000000; stroke-width:0.1000; stroke-opacity:1; 
stroke-linecap:round; stroke-linejoin:round;">
<path d="M178.8022 20.0000
L107.0022 20.0000
" />
<path d="M279.0022 130.0000
L279.0022 21.0000
" />
<path d="M278.0022 131.0000
L107.0022 131.0000
" />
<path d="M279.0022 21.0000 A1.0521 1.0521 0.0 0 0 278.0022 20.0000" />
<path d="M182.8022 21.4000 A0.4000 0.4000 0.0 0 0 183.2022 21.0000" />
<path d="M278.0022 131.0000 A1.0000 1.0000 0.0 0 0 279.0022 130.0000" />
<path d="M204.8022 21.4000 A0.4000 0.4000 0.0 0 0 205.2022 21.0000" />
<path d="M182.8022 21.4000
L179.2022 21.4000
" />
<path d="M106.0022 21.0000
L106.0022 130.0000
" />
<path d="M183.2022 20.0000
L183.2022 21.0000
" />
<path d="M200.8022 21.0000
L200.8022 20.0000
" />
<path d="M200.8022 20.0000
L183.2022 20.0000
" />
<path d="M107.0022 20.0000 A1.0000 1.0000 0.0 0 0 106.0022 21.0000" />
<path d="M200.8022 21.0000 A0.4000 0.4000 0.0 0 0 201.2022 21.4000" />
<path d="M205.2022 20.0000
L205.2022 21.0000
" />
<path d="M204.8022 21.4000
L201.2022 21.4000
" />
<path d="M205.2022 20.0000
L278.0022 20.0000
" />
<path d="M106.0022 130.0000 A1.0000 1.0000 0.0 0 0 107.0022 131.0000" />
<path d="M178.8022 21.0000 A0.4000 0.4000 0.0 0 0 179.2022 21.4000" />
<path d="M178.8022 21.0000
L178.8022 20.0000
" />
<g >
</g>
<g >
</g>
<g >
</g>
<g >
</g>
<g >
</g>
<g >
</g>
<g >
</g>
<g >
</g>
<g >
</g>
<g >
</g>
<g >
</g>
<g >
</g>
<g >
</g>
<g >
</g>
<g >
</g>
<g >
</g>
<g >
</g>
<g >
</g>
<g >
</g>
<g >
</g>
<g >
</g>
<g >
</g>
<g >
</g>
<g >
</g>
<g >
</g>
<g >
</g>
<g >
</g>
<g >
</g>
<g >
</g>
<g >
</g>
<g >
</g>
<g >
</g>
<g >
</g>
<g >
</g>
<g >
</g>
<g >
</g>
<g >
</g>
<g >
</g>
<g >
</g>
<g >
</g>
<g >
</g>
<g >
</g>
<g >
</g>
<g >
</g>
<g >
</g>
<g >
</g>
<g >
</g>
<g >
</g>
<g >
</g>
<g >
</g>
<g >
</g>
<g >
</g>
<g >
</g>
<g >
</g>
<g >
</g>
<g >
</g>
<g >
</g>
<g >
</g>
<g >
</g>
<g >
</g>
<g >
</g>
<g >
</g>
<g >
</g>
<g >
</g>
<g >
</g>
<g >
</g>
<g >
</g>
<g >
</g>
<g >
</g>
<g >
</g>
<g >
</g>
<g >
</g>
<g >
</g>
<g >
</g>
<g >
</g>
<g >
</g>
<g >
</g>
<g >
</g>
<g >
</g>
<g >
</g>
<g >
</g>
<g >
</g>
<g >
</g>
<g >
</g>
<g >
</g>
</g> 
</svg>
