  0
SECTION
  2
HEADER
  9
$ANGBASE
  50
0.0
  9
$ANGDIR
  70
1
  9
$MEASUREMENT
  70
0
  0
ENDSEC
  0
SECTION
  2
TABLES
  0
TABLE
  2
LTYPE
  70
4
  0
LTYPE
  5
40F
  2
CONTINUOUS
  70
0
  3
Solid line
  72
65
  73
0
  40
0.0
  0
LTYPE
  5
410
  2
DASHDOT
 70
0
  3
Dash Dot ____ _ ____ _
 72
65
 73
4
 40
2.0
 49
1.25
 49
-0.25
 49
0.25
 49
-0.25
  0
LTYPE
  5
411
  2
DASHED
 70
0
  3
Dashed __ __ __ __ __
 72
65
 73
2
 40
0.75
 49
0.5
 49
-0.25
  0
LTYPE
  5
43B
  2
DOTTED
 70
0
  3
Dotted .  .  .  .
 72
65
 73
2
 40
0.2
 49
0.0
 49
-0.2
  0
ENDTAB
  0
TABLE
  2
STYLE
  70
4
  0
STYLE
  2
KICAD
  70
0
  40
0
  41
1
  42
1
  50
0
  71
0
  3
isocp.shx
  0
STYLE
  2
KICADB
  70
0
  40
0
  41
1
  42
1
  50
0
  71
0
  3
isocp.shx
  0
STYLE
  2
KICADI
  70
0
  40
0
  41
1
  42
1
  50
15
  71
0
  3
isocp.shx
  0
STYLE
  2
KICADBI
  70
0
  40
0
  41
1
  42
1
  50
15
  71
0
  3
isocp.shx
  0
ENDTAB
  0
TABLE
  2
LAYER
  70
1
  0
LAYER
  2
BLACK
  70
0
  62
7
  6
CONTINUOUS
  0
ENDTAB
  0
ENDSEC
  0
SECTION
  2
ENTITIES
0
LINE
8
BLACK
6
CONTINUOUS
10
4.7021417322834642
20
-4.6904705905511808
11
4.7137545669291336
21
-4.6934522834645671
0
LINE
8
BLACK
6
CONTINUOUS
10
4.7137545669291336
20
-4.6934522834645671
11
4.7249021653543304
21
-4.6978659055118106
0
LINE
8
BLACK
6
CONTINUOUS
10
4.7249021653543304
20
-4.6978659055118106
11
4.7354086614173223
21
-4.703641929133858
0
LINE
8
BLACK
6
CONTINUOUS
10
4.7354086614173223
20
-4.703641929133858
11
4.7451083858267715
21
-4.7106891732283467
0
LINE
8
BLACK
6
CONTINUOUS
10
4.7451083858267715
20
-4.7106891732283467
11
4.7538483858267719
21
-4.7188965748031491
0
LINE
8
BLACK
6
CONTINUOUS
10
4.7538483858267719
20
-4.7188965748031491
11
4.7614907874015744
21
-4.72813468503937
0
LINE
8
BLACK
6
CONTINUOUS
10
4.7614907874015744
20
-4.72813468503937
11
4.7679151181102357
21
-4.7382577559055115
0
LINE
8
BLACK
6
CONTINUOUS
10
4.7679151181102357
20
-4.7382577559055115
11
4.7730199999999998
21
-4.7491062204724406
0
LINE
8
BLACK
6
CONTINUOUS
10
4.7730199999999998
20
-4.7491062204724406
11
4.7767249606299211
21
-4.7605089370078737
0
LINE
8
BLACK
6
CONTINUOUS
10
4.7767249606299211
20
-4.7605089370078737
11
4.7789715748031494
21
-4.7722861023622043
0
LINE
8
BLACK
6
CONTINUOUS
10
4.7789715748031494
20
-4.7722861023622043
11
4.7797244094488187
21
-4.7842519685039369
0
LINE
8
BLACK
6
CONTINUOUS
10
4.7797244094488187
20
-4.7842519685039369
11
4.7789715748031494
21
-4.7962178346456694
0
LINE
8
BLACK
6
CONTINUOUS
10
4.7789715748031494
20
-4.7962178346456694
11
4.7767249606299211
21
-4.807995
0
LINE
8
BLACK
6
CONTINUOUS
10
4.7767249606299211
20
-4.807995
11
4.7730199999999998
21
-4.8193977165354331
0
LINE
8
BLACK
6
CONTINUOUS
10
4.7730199999999998
20
-4.8193977165354331
11
4.7679151181102357
21
-4.8302461811023623
0
LINE
8
BLACK
6
CONTINUOUS
10
4.7679151181102357
20
-4.8302461811023623
11
4.7614907874015744
21
-4.8403692519685038
0
LINE
8
BLACK
6
CONTINUOUS
10
4.7614907874015744
20
-4.8403692519685038
11
4.7538483858267719
21
-4.8496073622047247
0
LINE
8
BLACK
6
CONTINUOUS
10
4.7538483858267719
20
-4.8496073622047247
11
4.7451083858267715
21
-4.857814763779527
0
LINE
8
BLACK
6
CONTINUOUS
10
4.7451083858267715
20
-4.857814763779527
11
4.7354086614173223
21
-4.8648620078740157
0
LINE
8
BLACK
6
CONTINUOUS
10
4.7354086614173223
20
-4.8648620078740157
11
4.7249021653543304
21
-4.8706380314960631
0
LINE
8
BLACK
6
CONTINUOUS
10
4.7249021653543304
20
-4.8706380314960631
11
4.7137545669291336
21
-4.8750516535433066
0
LINE
8
BLACK
6
CONTINUOUS
10
4.7137545669291336
20
-4.8750516535433066
11
4.7021417322834642
21
-4.878033346456693
0
LINE
8
BLACK
6
CONTINUOUS
10
4.7021417322834642
20
-4.878033346456693
11
4.6902467322834642
21
-4.8795360236220473
0
LINE
8
BLACK
6
CONTINUOUS
10
4.6902467322834642
20
-4.8795360236220473
11
4.6782572047244093
21
-4.8795360236220473
0
LINE
8
BLACK
6
CONTINUOUS
10
4.6782572047244093
20
-4.8795360236220473
11
4.6663622047244093
21
-4.878033346456693
0
LINE
8
BLACK
6
CONTINUOUS
10
4.6663622047244093
20
-4.878033346456693
11
4.6547493700787399
21
-4.8750516535433066
0
LINE
8
BLACK
6
CONTINUOUS
10
4.6547493700787399
20
-4.8750516535433066
11
4.6436017716535432
21
-4.8706380314960631
0
LINE
8
BLACK
6
CONTINUOUS
10
4.6436017716535432
20
-4.8706380314960631
11
4.6330952755905512
21
-4.8648620078740157
0
LINE
8
BLACK
6
CONTINUOUS
10
4.6330952755905512
20
-4.8648620078740157
11
4.623395551181102
21
-4.857814763779527
0
LINE
8
BLACK
6
CONTINUOUS
10
4.623395551181102
20
-4.857814763779527
11
4.6146555511811025
21
-4.8496073622047247
0
LINE
8
BLACK
6
CONTINUOUS
10
4.6146555511811025
20
-4.8496073622047247
11
4.6070131496062992
21
-4.8403692519685038
0
LINE
8
BLACK
6
CONTINUOUS
10
4.6070131496062992
20
-4.8403692519685038
11
4.6005888188976378
21
-4.8302461811023623
0
LINE
8
BLACK
6
CONTINUOUS
10
4.6005888188976378
20
-4.8302461811023623
11
4.5954839370078737
21
-4.8193977165354331
0
LINE
8
BLACK
6
CONTINUOUS
10
4.5954839370078737
20
-4.8193977165354331
11
4.5917789763779524
21
-4.807995
0
LINE
8
BLACK
6
CONTINUOUS
10
4.5917789763779524
20
-4.807995
11
4.5895323622047242
21
-4.7962178346456694
0
LINE
8
BLACK
6
CONTINUOUS
10
4.5895323622047242
20
-4.7962178346456694
11
4.5887795275590548
21
-4.7842519685039369
0
LINE
8
BLACK
6
CONTINUOUS
10
4.5887795275590548
20
-4.7842519685039369
11
4.5895323622047242
21
-4.7722861023622043
0
LINE
8
BLACK
6
CONTINUOUS
10
4.5895323622047242
20
-4.7722861023622043
11
4.5917789763779524
21
-4.7605089370078737
0
LINE
8
BLACK
6
CONTINUOUS
10
4.5917789763779524
20
-4.7605089370078737
11
4.5954839370078737
21
-4.7491062204724406
0
LINE
8
BLACK
6
CONTINUOUS
10
4.5954839370078737
20
-4.7491062204724406
11
4.6005888188976378
21
-4.7382577559055115
0
LINE
8
BLACK
6
CONTINUOUS
10
4.6005888188976378
20
-4.7382577559055115
11
4.6070131496062992
21
-4.72813468503937
0
LINE
8
BLACK
6
CONTINUOUS
10
4.6070131496062992
20
-4.72813468503937
11
4.6146555511811025
21
-4.7188965748031491
0
LINE
8
BLACK
6
CONTINUOUS
10
4.6146555511811025
20
-4.7188965748031491
11
4.623395551181102
21
-4.7106891732283467
0
LINE
8
BLACK
6
CONTINUOUS
10
4.623395551181102
20
-4.7106891732283467
11
4.6330952755905512
21
-4.703641929133858
0
LINE
8
BLACK
6
CONTINUOUS
10
4.6330952755905512
20
-4.703641929133858
11
4.6436017716535432
21
-4.6978659055118106
0
LINE
8
BLACK
6
CONTINUOUS
10
4.6436017716535432
20
-4.6978659055118106
11
4.6547493700787399
21
-4.6934522834645671
0
LINE
8
BLACK
6
CONTINUOUS
10
4.6547493700787399
20
-4.6934522834645671
11
4.6663622047244093
21
-4.6904705905511808
0
LINE
8
BLACK
6
CONTINUOUS
10
4.6663622047244093
20
-4.6904705905511808
11
4.6782572047244093
21
-4.6889679133858264
0
LINE
8
BLACK
6
CONTINUOUS
10
4.6782572047244093
20
-4.6889679133858264
11
4.6902467322834642
21
-4.6889679133858264
0
LINE
8
BLACK
6
CONTINUOUS
10
4.6902467322834642
20
-4.6889679133858264
11
4.7021417322834642
21
-4.6904705905511808
0
LINE
8
BLACK
6
CONTINUOUS
10
4.5952607874015747
20
-4.7959678740157479
11
4.5975513385826767
21
-4.8074833464566931
0
LINE
8
BLACK
6
CONTINUOUS
10
4.5975513385826767
20
-4.8074833464566931
11
4.6013253937007876
21
-4.8186012992125979
0
LINE
8
BLACK
6
CONTINUOUS
10
4.6013253937007876
20
-4.8186012992125979
11
4.6065183070866143
21
-4.8291315354330706
0
LINE
8
BLACK
6
CONTINUOUS
10
4.6065183070866143
20
-4.8291315354330706
11
4.6130412992125986
21
-4.8388938582677161
0
LINE
8
BLACK
6
CONTINUOUS
10
4.6130412992125986
20
-4.8388938582677161
11
4.6207827165354329
21
-4.8477212204724411
0
LINE
8
BLACK
6
CONTINUOUS
10
4.6207827165354329
20
-4.8477212204724411
11
4.6296100787401571
21
-4.8554626377952754
0
LINE
8
BLACK
6
CONTINUOUS
10
4.6296100787401571
20
-4.8554626377952754
11
4.6393724015748035
21
-4.8619856299212598
0
LINE
8
BLACK
6
CONTINUOUS
10
4.6393724015748035
20
-4.8619856299212598
11
4.6499026377952752
21
-4.8671785433070864
0
LINE
8
BLACK
6
CONTINUOUS
10
4.6499026377952752
20
-4.8671785433070864
11
4.661020590551181
21
-4.8709525984251965
0
LINE
8
BLACK
6
CONTINUOUS
10
4.661020590551181
20
-4.8709525984251965
11
4.6725360629921262
21
-4.8732431496062993
0
LINE
8
BLACK
6
CONTINUOUS
10
4.6725360629921262
20
-4.8732431496062993
11
4.6842519685039372
21
-4.8740110629921256
0
LINE
8
BLACK
6
CONTINUOUS
10
4.6842519685039372
20
-4.8740110629921256
11
4.6959678740157482
21
-4.8732431496062993
0
LINE
8
BLACK
6
CONTINUOUS
10
4.6959678740157482
20
-4.8732431496062993
11
4.7074833464566925
21
-4.8709525984251965
0
LINE
8
BLACK
6
CONTINUOUS
10
4.7074833464566925
20
-4.8709525984251965
11
4.7186012992125983
21
-4.8671785433070864
0
LINE
8
BLACK
6
CONTINUOUS
10
4.7186012992125983
20
-4.8671785433070864
11
4.729131535433071
21
-4.8619856299212598
0
LINE
8
BLACK
6
CONTINUOUS
10
4.729131535433071
20
-4.8619856299212598
11
4.7388938582677165
21
-4.8554626377952754
0
LINE
8
BLACK
6
CONTINUOUS
10
4.7388938582677165
20
-4.8554626377952754
11
4.7477212204724406
21
-4.8477212204724411
0
LINE
8
BLACK
6
CONTINUOUS
10
4.7477212204724406
20
-4.8477212204724411
11
4.7554626377952758
21
-4.8388938582677161
0
LINE
8
BLACK
6
CONTINUOUS
10
4.7554626377952758
20
-4.8388938582677161
11
4.7619856299212602
21
-4.8291315354330706
0
LINE
8
BLACK
6
CONTINUOUS
10
4.7619856299212602
20
-4.8291315354330706
11
4.7671785433070868
21
-4.8186012992125979
0
LINE
8
BLACK
6
CONTINUOUS
10
4.7671785433070868
20
-4.8186012992125979
11
4.7709525984251968
21
-4.8074833464566931
0
LINE
8
BLACK
6
CONTINUOUS
10
4.7709525984251968
20
-4.8074833464566931
11
4.7732431496062988
21
-4.7959678740157479
0
LINE
8
BLACK
6
CONTINUOUS
10
4.7732431496062988
20
-4.7959678740157479
11
4.774011062992126
21
-4.7842519685039369
0
LINE
8
BLACK
6
CONTINUOUS
10
4.774011062992126
20
-4.7842519685039369
11
4.7732431496062988
21
-4.7725360629921258
0
LINE
8
BLACK
6
CONTINUOUS
10
4.7732431496062988
20
-4.7725360629921258
11
4.7709525984251968
21
-4.7610205905511807
0
LINE
8
BLACK
6
CONTINUOUS
10
4.7709525984251968
20
-4.7610205905511807
11
4.7671785433070868
21
-4.7499026377952758
0
LINE
8
BLACK
6
CONTINUOUS
10
4.7671785433070868
20
-4.7499026377952758
11
4.7619856299212602
21
-4.7393724409448819
0
LINE
8
BLACK
6
CONTINUOUS
10
4.7619856299212602
20
-4.7393724409448819
11
4.7554626377952758
21
-4.7296100787401576
0
LINE
8
BLACK
6
CONTINUOUS
10
4.7554626377952758
20
-4.7296100787401576
11
4.7477212204724406
21
-4.7207827165354326
0
LINE
8
BLACK
6
CONTINUOUS
10
4.7477212204724406
20
-4.7207827165354326
11
4.7388938582677165
21
-4.7130412992125983
0
LINE
8
BLACK
6
CONTINUOUS
10
4.7388938582677165
20
-4.7130412992125983
11
4.729131535433071
21
-4.7065183070866139
0
LINE
8
BLACK
6
CONTINUOUS
10
4.729131535433071
20
-4.7065183070866139
11
4.7186012992125983
21
-4.7013253937007873
0
LINE
8
BLACK
6
CONTINUOUS
10
4.7186012992125983
20
-4.7013253937007873
11
4.7074833464566925
21
-4.6975513385826773
0
LINE
8
BLACK
6
CONTINUOUS
10
4.7074833464566925
20
-4.6975513385826773
11
4.6959678740157482
21
-4.6952607874015744
0
LINE
8
BLACK
6
CONTINUOUS
10
4.6959678740157482
20
-4.6952607874015744
11
4.6842519685039372
21
-4.6944928740157481
0
LINE
8
BLACK
6
CONTINUOUS
10
4.6842519685039372
20
-4.6944928740157481
11
4.6725360629921262
21
-4.6952607874015744
0
LINE
8
BLACK
6
CONTINUOUS
10
4.6725360629921262
20
-4.6952607874015744
11
4.661020590551181
21
-4.6975513385826773
0
LINE
8
BLACK
6
CONTINUOUS
10
4.661020590551181
20
-4.6975513385826773
11
4.6499026377952752
21
-4.7013253937007873
0
LINE
8
BLACK
6
CONTINUOUS
10
4.6499026377952752
20
-4.7013253937007873
11
4.6393724409448822
21
-4.7065183070866139
0
LINE
8
BLACK
6
CONTINUOUS
10
4.6393724409448822
20
-4.7065183070866139
11
4.6296100787401571
21
-4.7130412992125983
0
LINE
8
BLACK
6
CONTINUOUS
10
4.6296100787401571
20
-4.7130412992125983
11
4.6207827165354329
21
-4.7207827165354326
0
LINE
8
BLACK
6
CONTINUOUS
10
4.6207827165354329
20
-4.7207827165354326
11
4.6130412992125986
21
-4.7296100787401576
0
LINE
8
BLACK
6
CONTINUOUS
10
4.6130412992125986
20
-4.7296100787401576
11
4.6065183070866143
21
-4.7393724409448819
0
LINE
8
BLACK
6
CONTINUOUS
10
4.6065183070866143
20
-4.7393724409448819
11
4.6013253937007876
21
-4.7499026377952758
0
LINE
8
BLACK
6
CONTINUOUS
10
4.6013253937007876
20
-4.7499026377952758
11
4.5975513385826767
21
-4.7610205905511807
0
LINE
8
BLACK
6
CONTINUOUS
10
4.5975513385826767
20
-4.7610205905511807
11
4.5952607874015747
21
-4.7725360629921258
0
LINE
8
BLACK
6
CONTINUOUS
10
4.5952607874015747
20
-4.7725360629921258
11
4.5944928740157476
21
-4.7842519685039369
0
LINE
8
BLACK
6
CONTINUOUS
10
4.5944928740157476
20
-4.7842519685039369
11
4.5952607874015747
21
-4.7959678740157479
0
LINE
8
BLACK
6
CONTINUOUS
10
6.6320629921259844
20
-4.6896831889763781
11
6.6436758267716538
21
-4.6926648818897636
0
LINE
8
BLACK
6
CONTINUOUS
10
6.6436758267716538
20
-4.6926648818897636
11
6.6548234251968506
21
-4.697078503937008
0
LINE
8
BLACK
6
CONTINUOUS
10
6.6548234251968506
20
-4.697078503937008
11
6.6653299212598425
21
-4.7028545275590554
0
LINE
8
BLACK
6
CONTINUOUS
10
6.6653299212598425
20
-4.7028545275590554
11
6.6750296456692908
21
-4.7099017716535432
0
LINE
8
BLACK
6
CONTINUOUS
10
6.6750296456692908
20
-4.7099017716535432
11
6.6837696456692912
21
-4.7181091732283464
0
LINE
8
BLACK
6
CONTINUOUS
10
6.6837696456692912
20
-4.7181091732283464
11
6.6914120472440946
21
-4.7273472834645665
0
LINE
8
BLACK
6
CONTINUOUS
10
6.6914120472440946
20
-4.7273472834645665
11
6.6978363779527559
21
-4.7374703543307088
0
LINE
8
BLACK
6
CONTINUOUS
10
6.6978363779527559
20
-4.7374703543307088
11
6.7029412598425191
21
-4.748318818897638
0
LINE
8
BLACK
6
CONTINUOUS
10
6.7029412598425191
20
-4.748318818897638
11
6.7066462204724404
21
-4.7597215354330711
0
LINE
8
BLACK
6
CONTINUOUS
10
6.7066462204724404
20
-4.7597215354330711
11
6.7088928346456695
21
-4.7714987007874017
0
LINE
8
BLACK
6
CONTINUOUS
10
6.7088928346456695
20
-4.7714987007874017
11
6.709645669291338
21
-4.7834645669291334
0
LINE
8
BLACK
6
CONTINUOUS
10
6.709645669291338
20
-4.7834645669291334
11
6.7088928346456695
21
-4.7954304330708659
0
LINE
8
BLACK
6
CONTINUOUS
10
6.7088928346456695
20
-4.7954304330708659
11
6.7066462204724404
21
-4.8072075984251965
0
LINE
8
BLACK
6
CONTINUOUS
10
6.7066462204724404
20
-4.8072075984251965
11
6.7029412598425191
21
-4.8186103149606296
0
LINE
8
BLACK
6
CONTINUOUS
10
6.7029412598425191
20
-4.8186103149606296
11
6.6978363779527559
21
-4.8294587795275588
0
LINE
8
BLACK
6
CONTINUOUS
10
6.6978363779527559
20
-4.8294587795275588
11
6.6914120472440946
21
-4.8395818503937003
0
LINE
8
BLACK
6
CONTINUOUS
10
6.6914120472440946
20
-4.8395818503937003
11
6.6837696456692912
21
-4.8488199606299212
0
LINE
8
BLACK
6
CONTINUOUS
10
6.6837696456692912
20
-4.8488199606299212
11
6.6750296456692908
21
-4.8570273622047244
0
LINE
8
BLACK
6
CONTINUOUS
10
6.6750296456692908
20
-4.8570273622047244
11
6.6653299212598425
21
-4.8640746062992122
0
LINE
8
BLACK
6
CONTINUOUS
10
6.6653299212598425
20
-4.8640746062992122
11
6.6548234251968506
21
-4.8698506299212596
0
LINE
8
BLACK
6
CONTINUOUS
10
6.6548234251968506
20
-4.8698506299212596
11
6.6436758267716538
21
-4.874264251968504
0
LINE
8
BLACK
6
CONTINUOUS
10
6.6436758267716538
20
-4.874264251968504
11
6.6320629921259844
21
-4.8772459448818895
0
LINE
8
BLACK
6
CONTINUOUS
10
6.6320629921259844
20
-4.8772459448818895
11
6.6201679921259844
21
-4.8787486220472438
0
LINE
8
BLACK
6
CONTINUOUS
10
6.6201679921259844
20
-4.8787486220472438
11
6.6081784645669286
21
-4.8787486220472438
0
LINE
8
BLACK
6
CONTINUOUS
10
6.6081784645669286
20
-4.8787486220472438
11
6.5962834645669286
21
-4.8772459448818895
0
LINE
8
BLACK
6
CONTINUOUS
10
6.5962834645669286
20
-4.8772459448818895
11
6.5846706299212601
21
-4.874264251968504
0
LINE
8
BLACK
6
CONTINUOUS
10
6.5846706299212601
20
-4.874264251968504
11
6.5735230314960624
21
-4.8698506299212596
0
LINE
8
BLACK
6
CONTINUOUS
10
6.5735230314960624
20
-4.8698506299212596
11
6.5630165354330705
21
-4.8640746062992122
0
LINE
8
BLACK
6
CONTINUOUS
10
6.5630165354330705
20
-4.8640746062992122
11
6.5533168110236222
21
-4.8570273622047244
0
LINE
8
BLACK
6
CONTINUOUS
10
6.5533168110236222
20
-4.8570273622047244
11
6.5445768110236218
21
-4.8488199606299212
0
LINE
8
BLACK
6
CONTINUOUS
10
6.5445768110236218
20
-4.8488199606299212
11
6.5369344094488184
21
-4.8395818503937003
0
LINE
8
BLACK
6
CONTINUOUS
10
6.5369344094488184
20
-4.8395818503937003
11
6.5305100787401571
21
-4.8294587795275588
0
LINE
8
BLACK
6
CONTINUOUS
10
6.5305100787401571
20
-4.8294587795275588
11
6.5254051968503939
21
-4.8186103149606296
0
LINE
8
BLACK
6
CONTINUOUS
10
6.5254051968503939
20
-4.8186103149606296
11
6.5217002362204726
21
-4.8072075984251965
0
LINE
8
BLACK
6
CONTINUOUS
10
6.5217002362204726
20
-4.8072075984251965
11
6.5194536220472443
21
-4.7954304330708659
0
LINE
8
BLACK
6
CONTINUOUS
10
6.5194536220472443
20
-4.7954304330708659
11
6.518700787401575
21
-4.7834645669291334
0
LINE
8
BLACK
6
CONTINUOUS
10
6.518700787401575
20
-4.7834645669291334
11
6.5194536220472443
21
-4.7714987007874017
0
LINE
8
BLACK
6
CONTINUOUS
10
6.5194536220472443
20
-4.7714987007874017
11
6.5217002362204726
21
-4.7597215354330711
0
LINE
8
BLACK
6
CONTINUOUS
10
6.5217002362204726
20
-4.7597215354330711
11
6.5254051968503939
21
-4.748318818897638
0
LINE
8
BLACK
6
CONTINUOUS
10
6.5254051968503939
20
-4.748318818897638
11
6.5305100787401571
21
-4.7374703543307088
0
LINE
8
BLACK
6
CONTINUOUS
10
6.5305100787401571
20
-4.7374703543307088
11
6.5369344094488184
21
-4.7273472834645665
0
LINE
8
BLACK
6
CONTINUOUS
10
6.5369344094488184
20
-4.7273472834645665
11
6.5445768110236218
21
-4.7181091732283464
0
LINE
8
BLACK
6
CONTINUOUS
10
6.5445768110236218
20
-4.7181091732283464
11
6.5533168110236222
21
-4.7099017716535432
0
LINE
8
BLACK
6
CONTINUOUS
10
6.5533168110236222
20
-4.7099017716535432
11
6.5630165354330705
21
-4.7028545275590554
0
LINE
8
BLACK
6
CONTINUOUS
10
6.5630165354330705
20
-4.7028545275590554
11
6.5735230314960624
21
-4.697078503937008
0
LINE
8
BLACK
6
CONTINUOUS
10
6.5735230314960624
20
-4.697078503937008
11
6.5846706299212601
21
-4.6926648818897636
0
LINE
8
BLACK
6
CONTINUOUS
10
6.5846706299212601
20
-4.6926648818897636
11
6.5962834645669286
21
-4.6896831889763781
0
LINE
8
BLACK
6
CONTINUOUS
10
6.5962834645669286
20
-4.6896831889763781
11
6.6081784645669286
21
-4.6881805118110238
0
LINE
8
BLACK
6
CONTINUOUS
10
6.6081784645669286
20
-4.6881805118110238
11
6.6201679921259844
21
-4.6881805118110238
0
LINE
8
BLACK
6
CONTINUOUS
10
6.6201679921259844
20
-4.6881805118110238
11
6.6320629921259844
21
-4.6896831889763781
0
LINE
8
BLACK
6
CONTINUOUS
10
6.525182047244094
20
-4.7951804724409444
11
6.5274725984251969
21
-4.8066959448818896
0
LINE
8
BLACK
6
CONTINUOUS
10
6.5274725984251969
20
-4.8066959448818896
11
6.5312466535433069
21
-4.8178138976377953
0
LINE
8
BLACK
6
CONTINUOUS
10
6.5312466535433069
20
-4.8178138976377953
11
6.5364395669291335
21
-4.828344133858268
0
LINE
8
BLACK
6
CONTINUOUS
10
6.5364395669291335
20
-4.828344133858268
11
6.5429625590551179
21
-4.8381064566929135
0
LINE
8
BLACK
6
CONTINUOUS
10
6.5429625590551179
20
-4.8381064566929135
11
6.5507039763779522
21
-4.8469338188976376
0
LINE
8
BLACK
6
CONTINUOUS
10
6.5507039763779522
20
-4.8469338188976376
11
6.5595313385826772
21
-4.8546752362204719
0
LINE
8
BLACK
6
CONTINUOUS
10
6.5595313385826772
20
-4.8546752362204719
11
6.5692936614173227
21
-4.8611982283464563
0
LINE
8
BLACK
6
CONTINUOUS
10
6.5692936614173227
20
-4.8611982283464563
11
6.5798238976377954
21
-4.8663911417322829
0
LINE
8
BLACK
6
CONTINUOUS
10
6.5798238976377954
20
-4.8663911417322829
11
6.5909418503937003
21
-4.8701651968503938
0
LINE
8
BLACK
6
CONTINUOUS
10
6.5909418503937003
20
-4.8701651968503938
11
6.6024573228346455
21
-4.8724557480314958
0
LINE
8
BLACK
6
CONTINUOUS
10
6.6024573228346455
20
-4.8724557480314958
11
6.6141732283464565
21
-4.873223661417323
0
LINE
8
BLACK
6
CONTINUOUS
10
6.6141732283464565
20
-4.873223661417323
11
6.6258891338582675
21
-4.8724557480314958
0
LINE
8
BLACK
6
CONTINUOUS
10
6.6258891338582675
20
-4.8724557480314958
11
6.6374046062992127
21
-4.8701651968503938
0
LINE
8
BLACK
6
CONTINUOUS
10
6.6374046062992127
20
-4.8701651968503938
11
6.6485225590551176
21
-4.8663911417322829
0
LINE
8
BLACK
6
CONTINUOUS
10
6.6485225590551176
20
-4.8663911417322829
11
6.6590527952755902
21
-4.8611982283464563
0
LINE
8
BLACK
6
CONTINUOUS
10
6.6590527952755902
20
-4.8611982283464563
11
6.6688151181102358
21
-4.8546752362204719
0
LINE
8
BLACK
6
CONTINUOUS
10
6.6688151181102358
20
-4.8546752362204719
11
6.6776424803149608
21
-4.8469338188976376
0
LINE
8
BLACK
6
CONTINUOUS
10
6.6776424803149608
20
-4.8469338188976376
11
6.6853838976377951
21
-4.8381064566929135
0
LINE
8
BLACK
6
CONTINUOUS
10
6.6853838976377951
20
-4.8381064566929135
11
6.6919068897637795
21
-4.828344133858268
0
LINE
8
BLACK
6
CONTINUOUS
10
6.6919068897637795
20
-4.828344133858268
11
6.6970998031496061
21
-4.8178138976377953
0
LINE
8
BLACK
6
CONTINUOUS
10
6.6970998031496061
20
-4.8178138976377953
11
6.7008738582677161
21
-4.8066959448818896
0
LINE
8
BLACK
6
CONTINUOUS
10
6.7008738582677161
20
-4.8066959448818896
11
6.703164409448819
21
-4.7951804724409444
0
LINE
8
BLACK
6
CONTINUOUS
10
6.703164409448819
20
-4.7951804724409444
11
6.7039323228346452
21
-4.7834645669291334
0
LINE
8
BLACK
6
CONTINUOUS
10
6.7039323228346452
20
-4.7834645669291334
11
6.703164409448819
21
-4.7717486614173223
0
LINE
8
BLACK
6
CONTINUOUS
10
6.703164409448819
20
-4.7717486614173223
11
6.7008738582677161
21
-4.760233188976378
0
LINE
8
BLACK
6
CONTINUOUS
10
6.7008738582677161
20
-4.760233188976378
11
6.6970998031496061
21
-4.7491152362204723
0
LINE
8
BLACK
6
CONTINUOUS
10
6.6970998031496061
20
-4.7491152362204723
11
6.6919068897637795
21
-4.7385850393700784
0
LINE
8
BLACK
6
CONTINUOUS
10
6.6919068897637795
20
-4.7385850393700784
11
6.6853838976377951
21
-4.7288226771653541
0
LINE
8
BLACK
6
CONTINUOUS
10
6.6853838976377951
20
-4.7288226771653541
11
6.6776424803149608
21
-4.71999531496063
0
LINE
8
BLACK
6
CONTINUOUS
10
6.6776424803149608
20
-4.71999531496063
11
6.6688151181102358
21
-4.7122538976377948
0
LINE
8
BLACK
6
CONTINUOUS
10
6.6688151181102358
20
-4.7122538976377948
11
6.6590527952755902
21
-4.7057309055118113
0
LINE
8
BLACK
6
CONTINUOUS
10
6.6590527952755902
20
-4.7057309055118113
11
6.6485225590551176
21
-4.7005379921259838
0
LINE
8
BLACK
6
CONTINUOUS
10
6.6485225590551176
20
-4.7005379921259838
11
6.6374046062992127
21
-4.6967639370078738
0
LINE
8
BLACK
6
CONTINUOUS
10
6.6374046062992127
20
-4.6967639370078738
11
6.6258891338582675
21
-4.6944733858267718
0
LINE
8
BLACK
6
CONTINUOUS
10
6.6258891338582675
20
-4.6944733858267718
11
6.6141732283464565
21
-4.6937054724409446
0
LINE
8
BLACK
6
CONTINUOUS
10
6.6141732283464565
20
-4.6937054724409446
11
6.6024573228346455
21
-4.6944733858267718
0
LINE
8
BLACK
6
CONTINUOUS
10
6.6024573228346455
20
-4.6944733858267718
11
6.5909418503937003
21
-4.6967639370078738
0
LINE
8
BLACK
6
CONTINUOUS
10
6.5909418503937003
20
-4.6967639370078738
11
6.5798238976377954
21
-4.7005379921259838
0
LINE
8
BLACK
6
CONTINUOUS
10
6.5798238976377954
20
-4.7005379921259838
11
6.5692937007874015
21
-4.7057309055118113
0
LINE
8
BLACK
6
CONTINUOUS
10
6.5692937007874015
20
-4.7057309055118113
11
6.5595313385826772
21
-4.7122538976377948
0
LINE
8
BLACK
6
CONTINUOUS
10
6.5595313385826772
20
-4.7122538976377948
11
6.5507039763779522
21
-4.71999531496063
0
LINE
8
BLACK
6
CONTINUOUS
10
6.5507039763779522
20
-4.71999531496063
11
6.5429625590551179
21
-4.7288226771653541
0
LINE
8
BLACK
6
CONTINUOUS
10
6.5429625590551179
20
-4.7288226771653541
11
6.5364395669291335
21
-4.7385850393700784
0
LINE
8
BLACK
6
CONTINUOUS
10
6.5364395669291335
20
-4.7385850393700784
11
6.5312466535433069
21
-4.7491152362204723
0
LINE
8
BLACK
6
CONTINUOUS
10
6.5312466535433069
20
-4.7491152362204723
11
6.5274725984251969
21
-4.760233188976378
0
LINE
8
BLACK
6
CONTINUOUS
10
6.5274725984251969
20
-4.760233188976378
11
6.525182047244094
21
-4.7717486614173223
0
LINE
8
BLACK
6
CONTINUOUS
10
6.525182047244094
20
-4.7717486614173223
11
6.5244141338582677
21
-4.7834645669291334
0
LINE
8
BLACK
6
CONTINUOUS
10
6.5244141338582677
20
-4.7834645669291334
11
6.525182047244094
21
-4.7951804724409444
0
LINE
8
BLACK
6
CONTINUOUS
10
1.194657125984252
20
-4.5647375984251966
11
1.2080414173228347
21
-4.5670116929133862
0
LINE
8
BLACK
6
CONTINUOUS
10
1.2080414173228347
20
-4.5670116929133862
11
1.2210869291338582
21
-4.5707700393700783
0
LINE
8
BLACK
6
CONTINUOUS
10
1.2210869291338582
20
-4.5707700393700783
11
1.2336296062992125
21
-4.5759653937007876
0
LINE
8
BLACK
6
CONTINUOUS
10
1.2336296062992125
20
-4.5759653937007876
11
1.2455117716535433
21
-4.5825324015748032
0
LINE
8
BLACK
6
CONTINUOUS
10
1.2455117716535433
20
-4.5825324015748032
11
1.2565838976377952
21
-4.5903885039370076
0
LINE
8
BLACK
6
CONTINUOUS
10
1.2565838976377952
20
-4.5903885039370076
11
1.2667068110236219
21
-4.5994349212598422
0
LINE
8
BLACK
6
CONTINUOUS
10
1.2667068110236219
20
-4.5994349212598422
11
1.2757532283464568
21
-4.6095578346456696
0
LINE
8
BLACK
6
CONTINUOUS
10
1.2757532283464568
20
-4.6095578346456696
11
1.2836093307086613
21
-4.6206299606299215
0
LINE
8
BLACK
6
CONTINUOUS
10
1.2836093307086613
20
-4.6206299606299215
11
1.2901763385826772
21
-4.6325121259842517
0
LINE
8
BLACK
6
CONTINUOUS
10
1.2901763385826772
20
-4.6325121259842517
11
1.2953716929133858
21
-4.6450548031496064
0
LINE
8
BLACK
6
CONTINUOUS
10
1.2953716929133858
20
-4.6450548031496064
11
1.2991300393700786
21
-4.6581003149606302
0
LINE
8
BLACK
6
CONTINUOUS
10
1.2991300393700786
20
-4.6581003149606302
11
1.3014041338582676
21
-4.6714846062992121
0
LINE
8
BLACK
6
CONTINUOUS
10
1.3014041338582676
20
-4.6714846062992121
11
1.3021653543307086
21
-4.6850393700787398
0
LINE
8
BLACK
6
CONTINUOUS
10
1.3021653543307086
20
-4.6850393700787398
11
1.3014041338582676
21
-4.6985941338582675
0
LINE
8
BLACK
6
CONTINUOUS
10
1.3014041338582676
20
-4.6985941338582675
11
1.2991300393700786
21
-4.7119784251968504
0
LINE
8
BLACK
6
CONTINUOUS
10
1.2991300393700786
20
-4.7119784251968504
11
1.2953716929133858
21
-4.7250239370078742
0
LINE
8
BLACK
6
CONTINUOUS
10
1.2953716929133858
20
-4.7250239370078742
11
1.2901763385826772
21
-4.737566614173228
0
LINE
8
BLACK
6
CONTINUOUS
10
1.2901763385826772
20
-4.737566614173228
11
1.2836093307086613
21
-4.7494487795275591
0
LINE
8
BLACK
6
CONTINUOUS
10
1.2836093307086613
20
-4.7494487795275591
11
1.2757532283464568
21
-4.760520905511811
0
LINE
8
BLACK
6
CONTINUOUS
10
1.2757532283464568
20
-4.760520905511811
11
1.2667068110236219
21
-4.7706438188976374
0
LINE
8
BLACK
6
CONTINUOUS
10
1.2667068110236219
20
-4.7706438188976374
11
1.2565838976377952
21
-4.7796902362204721
0
LINE
8
BLACK
6
CONTINUOUS
10
1.2565838976377952
20
-4.7796902362204721
11
1.2455117716535433
21
-4.7875463385826773
0
LINE
8
BLACK
6
CONTINUOUS
10
1.2455117716535433
20
-4.7875463385826773
11
1.2336296062992125
21
-4.794113346456693
0
LINE
8
BLACK
6
CONTINUOUS
10
1.2336296062992125
20
-4.794113346456693
11
1.2210869291338582
21
-4.7993087007874013
0
LINE
8
BLACK
6
CONTINUOUS
10
1.2210869291338582
20
-4.7993087007874013
11
1.2080414173228347
21
-4.8030670472440944
0
LINE
8
BLACK
6
CONTINUOUS
10
1.2080414173228347
20
-4.8030670472440944
11
1.194657125984252
21
-4.8053411417322831
0
LINE
8
BLACK
6
CONTINUOUS
10
1.194657125984252
20
-4.8053411417322831
11
1.1811023622047243
21
-4.8061023622047241
0
LINE
8
BLACK
6
CONTINUOUS
10
1.1811023622047243
20
-4.8061023622047241
11
1.1675475984251968
21
-4.8053411417322831
0
LINE
8
BLACK
6
CONTINUOUS
10
1.1675475984251968
20
-4.8053411417322831
11
1.1541633070866142
21
-4.8030670472440944
0
LINE
8
BLACK
6
CONTINUOUS
10
1.1541633070866142
20
-4.8030670472440944
11
1.1411177952755904
21
-4.7993087007874013
0
LINE
8
BLACK
6
CONTINUOUS
10
1.1411177952755904
20
-4.7993087007874013
11
1.1285751181102361
21
-4.794113346456693
0
LINE
8
BLACK
6
CONTINUOUS
10
1.1285751181102361
20
-4.794113346456693
11
1.1166929527559055
21
-4.7875463385826773
0
LINE
8
BLACK
6
CONTINUOUS
10
1.1166929527559055
20
-4.7875463385826773
11
1.1056208267716534
21
-4.7796902362204721
0
LINE
8
BLACK
6
CONTINUOUS
10
1.1056208267716534
20
-4.7796902362204721
11
1.0954979133858267
21
-4.7706438188976374
0
LINE
8
BLACK
6
CONTINUOUS
10
1.0954979133858267
20
-4.7706438188976374
11
1.0864514960629921
21
-4.760520905511811
0
LINE
8
BLACK
6
CONTINUOUS
10
1.0864514960629921
20
-4.760520905511811
11
1.0785953937007873
21
-4.7494487795275591
0
LINE
8
BLACK
6
CONTINUOUS
10
1.0785953937007873
20
-4.7494487795275591
11
1.0720283858267716
21
-4.737566614173228
0
LINE
8
BLACK
6
CONTINUOUS
10
1.0720283858267716
20
-4.737566614173228
11
1.066833031496063
21
-4.7250239370078742
0
LINE
8
BLACK
6
CONTINUOUS
10
1.066833031496063
20
-4.7250239370078742
11
1.06307468503937
21
-4.7119784251968504
0
LINE
8
BLACK
6
CONTINUOUS
10
1.06307468503937
20
-4.7119784251968504
11
1.060800590551181
21
-4.6985941338582675
0
LINE
8
BLACK
6
CONTINUOUS
10
1.060800590551181
20
-4.6985941338582675
11
1.0600393700787401
21
-4.6850393700787398
0
LINE
8
BLACK
6
CONTINUOUS
10
1.0600393700787401
20
-4.6850393700787398
11
1.060800590551181
21
-4.6714846062992121
0
LINE
8
BLACK
6
CONTINUOUS
10
1.060800590551181
20
-4.6714846062992121
11
1.06307468503937
21
-4.6581003149606302
0
LINE
8
BLACK
6
CONTINUOUS
10
1.06307468503937
20
-4.6581003149606302
11
1.066833031496063
21
-4.6450548031496064
0
LINE
8
BLACK
6
CONTINUOUS
10
1.066833031496063
20
-4.6450548031496064
11
1.0720283858267716
21
-4.6325121259842517
0
LINE
8
BLACK
6
CONTINUOUS
10
1.0720283858267716
20
-4.6325121259842517
11
1.0785953937007873
21
-4.6206299606299215
0
LINE
8
BLACK
6
CONTINUOUS
10
1.0785953937007873
20
-4.6206299606299215
11
1.0864514960629921
21
-4.6095578346456696
0
LINE
8
BLACK
6
CONTINUOUS
10
1.0864514960629921
20
-4.6095578346456696
11
1.0954979133858267
21
-4.5994349212598422
0
LINE
8
BLACK
6
CONTINUOUS
10
1.0954979133858267
20
-4.5994349212598422
11
1.1056208267716534
21
-4.5903885039370076
0
LINE
8
BLACK
6
CONTINUOUS
10
1.1056208267716534
20
-4.5903885039370076
11
1.1166929527559055
21
-4.5825324015748032
0
LINE
8
BLACK
6
CONTINUOUS
10
1.1166929527559055
20
-4.5825324015748032
11
1.1285751181102361
21
-4.5759653937007876
0
LINE
8
BLACK
6
CONTINUOUS
10
1.1285751181102361
20
-4.5759653937007876
11
1.1411177952755904
21
-4.5707700393700783
0
LINE
8
BLACK
6
CONTINUOUS
10
1.1411177952755904
20
-4.5707700393700783
11
1.1541633070866142
21
-4.5670116929133862
0
LINE
8
BLACK
6
CONTINUOUS
10
1.1541633070866142
20
-4.5670116929133862
11
1.1675475984251968
21
-4.5647375984251966
0
LINE
8
BLACK
6
CONTINUOUS
10
1.1675475984251968
20
-4.5647375984251966
11
1.1811023622047243
21
-4.5639763779527556
0
LINE
8
BLACK
6
CONTINUOUS
10
1.1811023622047243
20
-4.5639763779527556
11
1.194657125984252
21
-4.5647375984251966
0
LINE
8
BLACK
6
CONTINUOUS
10
1.06652968503937
20
-4.698430984251968
11
1.0688590551181103
21
-4.7116415354330705
0
LINE
8
BLACK
6
CONTINUOUS
10
1.0688590551181103
20
-4.7116415354330705
11
1.0727063385826772
21
-4.7244922834645671
0
LINE
8
BLACK
6
CONTINUOUS
10
1.0727063385826772
20
-4.7244922834645671
11
1.0780194881889764
21
-4.7368095275590552
0
LINE
8
BLACK
6
CONTINUOUS
10
1.0780194881889764
20
-4.7368095275590552
11
1.0847266535433071
21
-4.7484266929133856
0
LINE
8
BLACK
6
CONTINUOUS
10
1.0847266535433071
20
-4.7484266929133856
11
1.092737125984252
21
-4.7591866141732284
0
LINE
8
BLACK
6
CONTINUOUS
10
1.092737125984252
20
-4.7591866141732284
11
1.1019425984251969
21
-4.7689438188976379
0
LINE
8
BLACK
6
CONTINUOUS
10
1.1019425984251969
20
-4.7689438188976379
11
1.1122185433070866
21
-4.7775663779527555
0
LINE
8
BLACK
6
CONTINUOUS
10
1.1122185433070866
20
-4.7775663779527555
11
1.1234260236220472
21
-4.7849376771653542
0
LINE
8
BLACK
6
CONTINUOUS
10
1.1234260236220472
20
-4.7849376771653542
11
1.1354135039370079
21
-4.7909580314960625
0
LINE
8
BLACK
6
CONTINUOUS
10
1.1354135039370079
20
-4.7909580314960625
11
1.1480188582677164
21
-4.7955459842519685
0
LINE
8
BLACK
6
CONTINUOUS
10
1.1480188582677164
20
-4.7955459842519685
11
1.1610715748031495
21
-4.7986395275590548
0
LINE
8
BLACK
6
CONTINUOUS
10
1.1610715748031495
20
-4.7986395275590548
11
1.1743951968503936
21
-4.8001968503937009
0
LINE
8
BLACK
6
CONTINUOUS
10
1.1743951968503936
20
-4.8001968503937009
11
1.187809527559055
21
-4.8001968503937009
0
LINE
8
BLACK
6
CONTINUOUS
10
1.187809527559055
20
-4.8001968503937009
11
1.2011331496062991
21
-4.7986395275590548
0
LINE
8
BLACK
6
CONTINUOUS
10
1.2011331496062991
20
-4.7986395275590548
11
1.2141858661417322
21
-4.7955459842519685
0
LINE
8
BLACK
6
CONTINUOUS
10
1.2141858661417322
20
-4.7955459842519685
11
1.2267912204724409
21
-4.7909580314960625
0
LINE
8
BLACK
6
CONTINUOUS
10
1.2267912204724409
20
-4.7909580314960625
11
1.2387787007874016
21
-4.7849376771653542
0
LINE
8
BLACK
6
CONTINUOUS
10
1.2387787007874016
20
-4.7849376771653542
11
1.2499861811023623
21
-4.7775663779527555
0
LINE
8
BLACK
6
CONTINUOUS
10
1.2499861811023623
20
-4.7775663779527555
11
1.2602621259842519
21
-4.7689438188976379
0
LINE
8
BLACK
6
CONTINUOUS
10
1.2602621259842519
20
-4.7689438188976379
11
1.2694675984251969
21
-4.7591866141732284
0
LINE
8
BLACK
6
CONTINUOUS
10
1.2694675984251969
20
-4.7591866141732284
11
1.2774780708661417
21
-4.7484266929133856
0
LINE
8
BLACK
6
CONTINUOUS
10
1.2774780708661417
20
-4.7484266929133856
11
1.2841852362204724
21
-4.7368095275590552
0
LINE
8
BLACK
6
CONTINUOUS
10
1.2841852362204724
20
-4.7368095275590552
11
1.2894983858267717
21
-4.7244922834645671
0
LINE
8
BLACK
6
CONTINUOUS
10
1.2894983858267717
20
-4.7244922834645671
11
1.2933456692913385
21
-4.7116415354330705
0
LINE
8
BLACK
6
CONTINUOUS
10
1.2933456692913385
20
-4.7116415354330705
11
1.2956750393700787
21
-4.698430984251968
0
LINE
8
BLACK
6
CONTINUOUS
10
1.2956750393700787
20
-4.698430984251968
11
1.2964549999999999
21
-4.6850393700787398
0
LINE
8
BLACK
6
CONTINUOUS
10
1.2964549999999999
20
-4.6850393700787398
11
1.2956750393700787
21
-4.6716477559055116
0
LINE
8
BLACK
6
CONTINUOUS
10
1.2956750393700787
20
-4.6716477559055116
11
1.2933456692913385
21
-4.6584372047244091
0
LINE
8
BLACK
6
CONTINUOUS
10
1.2933456692913385
20
-4.6584372047244091
11
1.2894983858267717
21
-4.6455864566929135
0
LINE
8
BLACK
6
CONTINUOUS
10
1.2894983858267717
20
-4.6455864566929135
11
1.2841852362204724
21
-4.6332692125984254
0
LINE
8
BLACK
6
CONTINUOUS
10
1.2841852362204724
20
-4.6332692125984254
11
1.2774780708661417
21
-4.6216520472440941
0
LINE
8
BLACK
6
CONTINUOUS
10
1.2774780708661417
20
-4.6216520472440941
11
1.2694675984251969
21
-4.6108921259842521
0
LINE
8
BLACK
6
CONTINUOUS
10
1.2694675984251969
20
-4.6108921259842521
11
1.2602621259842519
21
-4.6011349212598427
0
LINE
8
BLACK
6
CONTINUOUS
10
1.2602621259842519
20
-4.6011349212598427
11
1.2499861811023623
21
-4.5925123622047241
0
LINE
8
BLACK
6
CONTINUOUS
10
1.2499861811023623
20
-4.5925123622047241
11
1.2387787007874016
21
-4.5851410629921263
0
LINE
8
BLACK
6
CONTINUOUS
10
1.2387787007874016
20
-4.5851410629921263
11
1.2267912204724409
21
-4.5791207086614172
0
LINE
8
BLACK
6
CONTINUOUS
10
1.2267912204724409
20
-4.5791207086614172
11
1.2141858661417322
21
-4.574532755905512
0
LINE
8
BLACK
6
CONTINUOUS
10
1.2141858661417322
20
-4.574532755905512
11
1.2011331496062991
21
-4.5714392125984249
0
LINE
8
BLACK
6
CONTINUOUS
10
1.2011331496062991
20
-4.5714392125984249
11
1.187809527559055
21
-4.5698818897637796
0
LINE
8
BLACK
6
CONTINUOUS
10
1.187809527559055
20
-4.5698818897637796
11
1.1743951968503936
21
-4.5698818897637796
0
LINE
8
BLACK
6
CONTINUOUS
10
1.1743951968503936
20
-4.5698818897637796
11
1.1610715748031495
21
-4.5714392125984249
0
LINE
8
BLACK
6
CONTINUOUS
10
1.1610715748031495
20
-4.5714392125984249
11
1.1480188582677164
21
-4.574532755905512
0
LINE
8
BLACK
6
CONTINUOUS
10
1.1480188582677164
20
-4.574532755905512
11
1.1354135039370079
21
-4.5791207086614172
0
LINE
8
BLACK
6
CONTINUOUS
10
1.1354135039370079
20
-4.5791207086614172
11
1.1234260236220472
21
-4.5851410629921263
0
LINE
8
BLACK
6
CONTINUOUS
10
1.1234260236220472
20
-4.5851410629921263
11
1.1122185433070866
21
-4.5925123622047241
0
LINE
8
BLACK
6
CONTINUOUS
10
1.1122185433070866
20
-4.5925123622047241
11
1.1019425984251969
21
-4.6011349212598427
0
LINE
8
BLACK
6
CONTINUOUS
10
1.1019425984251969
20
-4.6011349212598427
11
1.092737125984252
21
-4.6108921259842521
0
LINE
8
BLACK
6
CONTINUOUS
10
1.092737125984252
20
-4.6108921259842521
11
1.0847266535433071
21
-4.6216520472440941
0
LINE
8
BLACK
6
CONTINUOUS
10
1.0847266535433071
20
-4.6216520472440941
11
1.0780194881889764
21
-4.6332692125984254
0
LINE
8
BLACK
6
CONTINUOUS
10
1.0780194881889764
20
-4.6332692125984254
11
1.0727063385826772
21
-4.6455864566929135
0
LINE
8
BLACK
6
CONTINUOUS
10
1.0727063385826772
20
-4.6455864566929135
11
1.0688590551181103
21
-4.6584372047244091
0
LINE
8
BLACK
6
CONTINUOUS
10
1.0688590551181103
20
-4.6584372047244091
11
1.06652968503937
21
-4.6716477559055116
0
LINE
8
BLACK
6
CONTINUOUS
10
1.06652968503937
20
-4.6716477559055116
11
1.0657497244094487
21
-4.6850393700787398
0
LINE
8
BLACK
6
CONTINUOUS
10
1.0657497244094487
20
-4.6850393700787398
11
1.06652968503937
21
-4.698430984251968
0
LINE
8
BLACK
6
CONTINUOUS
10
4.1474130314960629
20
-4.5647375984251966
11
4.1607973228346458
21
-4.5670116929133862
0
LINE
8
BLACK
6
CONTINUOUS
10
4.1607973228346458
20
-4.5670116929133862
11
4.1738428346456695
21
-4.5707700393700783
0
LINE
8
BLACK
6
CONTINUOUS
10
4.1738428346456695
20
-4.5707700393700783
11
4.1863855118110234
21
-4.5759653937007876
0
LINE
8
BLACK
6
CONTINUOUS
10
4.1863855118110234
20
-4.5759653937007876
11
4.1982676771653544
21
-4.5825324015748032
0
LINE
8
BLACK
6
CONTINUOUS
10
4.1982676771653544
20
-4.5825324015748032
11
4.2093398031496063
21
-4.5903885039370076
0
LINE
8
BLACK
6
CONTINUOUS
10
4.2093398031496063
20
-4.5903885039370076
11
4.2194627165354328
21
-4.5994349212598422
0
LINE
8
BLACK
6
CONTINUOUS
10
4.2194627165354328
20
-4.5994349212598422
11
4.2285091338582674
21
-4.6095578346456696
0
LINE
8
BLACK
6
CONTINUOUS
10
4.2285091338582674
20
-4.6095578346456696
11
4.2363652362204727
21
-4.6206299606299215
0
LINE
8
BLACK
6
CONTINUOUS
10
4.2363652362204727
20
-4.6206299606299215
11
4.2429322440944883
21
-4.6325121259842517
0
LINE
8
BLACK
6
CONTINUOUS
10
4.2429322440944883
20
-4.6325121259842517
11
4.2481275984251967
21
-4.6450548031496064
0
LINE
8
BLACK
6
CONTINUOUS
10
4.2481275984251967
20
-4.6450548031496064
11
4.2518859448818898
21
-4.6581003149606302
0
LINE
8
BLACK
6
CONTINUOUS
10
4.2518859448818898
20
-4.6581003149606302
11
4.2541600393700785
21
-4.6714846062992121
0
LINE
8
BLACK
6
CONTINUOUS
10
4.2541600393700785
20
-4.6714846062992121
11
4.2549212598425195
21
-4.6850393700787398
0
LINE
8
BLACK
6
CONTINUOUS
10
4.2549212598425195
20
-4.6850393700787398
11
4.2541600393700785
21
-4.6985941338582675
0
LINE
8
BLACK
6
CONTINUOUS
10
4.2541600393700785
20
-4.6985941338582675
11
4.2518859448818898
21
-4.7119784251968504
0
LINE
8
BLACK
6
CONTINUOUS
10
4.2518859448818898
20
-4.7119784251968504
11
4.2481275984251967
21
-4.7250239370078742
0
LINE
8
BLACK
6
CONTINUOUS
10
4.2481275984251967
20
-4.7250239370078742
11
4.2429322440944883
21
-4.737566614173228
0
LINE
8
BLACK
6
CONTINUOUS
10
4.2429322440944883
20
-4.737566614173228
11
4.2363652362204727
21
-4.7494487795275591
0
LINE
8
BLACK
6
CONTINUOUS
10
4.2363652362204727
20
-4.7494487795275591
11
4.2285091338582674
21
-4.760520905511811
0
LINE
8
BLACK
6
CONTINUOUS
10
4.2285091338582674
20
-4.760520905511811
11
4.2194627165354328
21
-4.7706438188976374
0
LINE
8
BLACK
6
CONTINUOUS
10
4.2194627165354328
20
-4.7706438188976374
11
4.2093398031496063
21
-4.7796902362204721
0
LINE
8
BLACK
6
CONTINUOUS
10
4.2093398031496063
20
-4.7796902362204721
11
4.1982676771653544
21
-4.7875463385826773
0
LINE
8
BLACK
6
CONTINUOUS
10
4.1982676771653544
20
-4.7875463385826773
11
4.1863855118110234
21
-4.794113346456693
0
LINE
8
BLACK
6
CONTINUOUS
10
4.1863855118110234
20
-4.794113346456693
11
4.1738428346456695
21
-4.7993087007874013
0
LINE
8
BLACK
6
CONTINUOUS
10
4.1738428346456695
20
-4.7993087007874013
11
4.1607973228346458
21
-4.8030670472440944
0
LINE
8
BLACK
6
CONTINUOUS
10
4.1607973228346458
20
-4.8030670472440944
11
4.1474130314960629
21
-4.8053411417322831
0
LINE
8
BLACK
6
CONTINUOUS
10
4.1474130314960629
20
-4.8053411417322831
11
4.1338582677165352
21
-4.8061023622047241
0
LINE
8
BLACK
6
CONTINUOUS
10
4.1338582677165352
20
-4.8061023622047241
11
4.1203035039370075
21
-4.8053411417322831
0
LINE
8
BLACK
6
CONTINUOUS
10
4.1203035039370075
20
-4.8053411417322831
11
4.1069192125984255
21
-4.8030670472440944
0
LINE
8
BLACK
6
CONTINUOUS
10
4.1069192125984255
20
-4.8030670472440944
11
4.0938737007874018
21
-4.7993087007874013
0
LINE
8
BLACK
6
CONTINUOUS
10
4.0938737007874018
20
-4.7993087007874013
11
4.081331023622047
21
-4.794113346456693
0
LINE
8
BLACK
6
CONTINUOUS
10
4.081331023622047
20
-4.794113346456693
11
4.0694488582677169
21
-4.7875463385826773
0
LINE
8
BLACK
6
CONTINUOUS
10
4.0694488582677169
20
-4.7875463385826773
11
4.0583767322834641
21
-4.7796902362204721
0
LINE
8
BLACK
6
CONTINUOUS
10
4.0583767322834641
20
-4.7796902362204721
11
4.0482538188976376
21
-4.7706438188976374
0
LINE
8
BLACK
6
CONTINUOUS
10
4.0482538188976376
20
-4.7706438188976374
11
4.039207401574803
21
-4.760520905511811
0
LINE
8
BLACK
6
CONTINUOUS
10
4.039207401574803
20
-4.760520905511811
11
4.0313512992125986
21
-4.7494487795275591
0
LINE
8
BLACK
6
CONTINUOUS
10
4.0313512992125986
20
-4.7494487795275591
11
4.024784291338583
21
-4.737566614173228
0
LINE
8
BLACK
6
CONTINUOUS
10
4.024784291338583
20
-4.737566614173228
11
4.0195889370078737
21
-4.7250239370078742
0
LINE
8
BLACK
6
CONTINUOUS
10
4.0195889370078737
20
-4.7250239370078742
11
4.0158305905511806
21
-4.7119784251968504
0
LINE
8
BLACK
6
CONTINUOUS
10
4.0158305905511806
20
-4.7119784251968504
11
4.0135564960629919
21
-4.6985941338582675
0
LINE
8
BLACK
6
CONTINUOUS
10
4.0135564960629919
20
-4.6985941338582675
11
4.0127952755905509
21
-4.6850393700787398
0
LINE
8
BLACK
6
CONTINUOUS
10
4.0127952755905509
20
-4.6850393700787398
11
4.0135564960629919
21
-4.6714846062992121
0
LINE
8
BLACK
6
CONTINUOUS
10
4.0135564960629919
20
-4.6714846062992121
11
4.0158305905511806
21
-4.6581003149606302
0
LINE
8
BLACK
6
CONTINUOUS
10
4.0158305905511806
20
-4.6581003149606302
11
4.0195889370078737
21
-4.6450548031496064
0
LINE
8
BLACK
6
CONTINUOUS
10
4.0195889370078737
20
-4.6450548031496064
11
4.024784291338583
21
-4.6325121259842517
0
LINE
8
BLACK
6
CONTINUOUS
10
4.024784291338583
20
-4.6325121259842517
11
4.0313512992125986
21
-4.6206299606299215
0
LINE
8
BLACK
6
CONTINUOUS
10
4.0313512992125986
20
-4.6206299606299215
11
4.039207401574803
21
-4.6095578346456696
0
LINE
8
BLACK
6
CONTINUOUS
10
4.039207401574803
20
-4.6095578346456696
11
4.0482538188976376
21
-4.5994349212598422
0
LINE
8
BLACK
6
CONTINUOUS
10
4.0482538188976376
20
-4.5994349212598422
11
4.0583767322834641
21
-4.5903885039370076
0
LINE
8
BLACK
6
CONTINUOUS
10
4.0583767322834641
20
-4.5903885039370076
11
4.0694488582677169
21
-4.5825324015748032
0
LINE
8
BLACK
6
CONTINUOUS
10
4.0694488582677169
20
-4.5825324015748032
11
4.081331023622047
21
-4.5759653937007876
0
LINE
8
BLACK
6
CONTINUOUS
10
4.081331023622047
20
-4.5759653937007876
11
4.0938737007874018
21
-4.5707700393700783
0
LINE
8
BLACK
6
CONTINUOUS
10
4.0938737007874018
20
-4.5707700393700783
11
4.1069192125984255
21
-4.5670116929133862
0
LINE
8
BLACK
6
CONTINUOUS
10
4.1069192125984255
20
-4.5670116929133862
11
4.1203035039370075
21
-4.5647375984251966
0
LINE
8
BLACK
6
CONTINUOUS
10
4.1203035039370075
20
-4.5647375984251966
11
4.1338582677165352
21
-4.5639763779527556
0
LINE
8
BLACK
6
CONTINUOUS
10
4.1338582677165352
20
-4.5639763779527556
11
4.1474130314960629
21
-4.5647375984251966
0
LINE
8
BLACK
6
CONTINUOUS
10
4.0192855905511813
20
-4.698430984251968
11
4.021614960629921
21
-4.7116415354330705
0
LINE
8
BLACK
6
CONTINUOUS
10
4.021614960629921
20
-4.7116415354330705
11
4.0254622440944878
21
-4.7244922834645671
0
LINE
8
BLACK
6
CONTINUOUS
10
4.0254622440944878
20
-4.7244922834645671
11
4.0307753937007877
21
-4.7368095275590552
0
LINE
8
BLACK
6
CONTINUOUS
10
4.0307753937007877
20
-4.7368095275590552
11
4.0374825590551184
21
-4.7484266929133856
0
LINE
8
BLACK
6
CONTINUOUS
10
4.0374825590551184
20
-4.7484266929133856
11
4.0454930314960631
21
-4.7591866141732284
0
LINE
8
BLACK
6
CONTINUOUS
10
4.0454930314960631
20
-4.7591866141732284
11
4.0546985039370078
21
-4.7689438188976379
0
LINE
8
BLACK
6
CONTINUOUS
10
4.0546985039370078
20
-4.7689438188976379
11
4.0649744488188979
21
-4.7775663779527555
0
LINE
8
BLACK
6
CONTINUOUS
10
4.0649744488188979
20
-4.7775663779527555
11
4.0761819291338579
21
-4.7849376771653542
0
LINE
8
BLACK
6
CONTINUOUS
10
4.0761819291338579
20
-4.7849376771653542
11
4.0881694094488186
21
-4.7909580314960625
0
LINE
8
BLACK
6
CONTINUOUS
10
4.0881694094488186
20
-4.7909580314960625
11
4.1007747637795271
21
-4.7955459842519685
0
LINE
8
BLACK
6
CONTINUOUS
10
4.1007747637795271
20
-4.7955459842519685
11
4.1138274803149608
21
-4.7986395275590548
0
LINE
8
BLACK
6
CONTINUOUS
10
4.1138274803149608
20
-4.7986395275590548
11
4.1271511023622045
21
-4.8001968503937009
0
LINE
8
BLACK
6
CONTINUOUS
10
4.1271511023622045
20
-4.8001968503937009
11
4.1405654330708659
21
-4.8001968503937009
0
LINE
8
BLACK
6
CONTINUOUS
10
4.1405654330708659
20
-4.8001968503937009
11
4.1538890551181105
21
-4.7986395275590548
0
LINE
8
BLACK
6
CONTINUOUS
10
4.1538890551181105
20
-4.7986395275590548
11
4.1669417716535433
21
-4.7955459842519685
0
LINE
8
BLACK
6
CONTINUOUS
10
4.1669417716535433
20
-4.7955459842519685
11
4.1795471259842518
21
-4.7909580314960625
0
LINE
8
BLACK
6
CONTINUOUS
10
4.1795471259842518
20
-4.7909580314960625
11
4.1915346062992125
21
-4.7849376771653542
0
LINE
8
BLACK
6
CONTINUOUS
10
4.1915346062992125
20
-4.7849376771653542
11
4.2027420866141734
21
-4.7775663779527555
0
LINE
8
BLACK
6
CONTINUOUS
10
4.2027420866141734
20
-4.7775663779527555
11
4.2130180314960626
21
-4.7689438188976379
0
LINE
8
BLACK
6
CONTINUOUS
10
4.2130180314960626
20
-4.7689438188976379
11
4.2222235039370082
21
-4.7591866141732284
0
LINE
8
BLACK
6
CONTINUOUS
10
4.2222235039370082
20
-4.7591866141732284
11
4.2302339763779528
21
-4.7484266929133856
0
LINE
8
BLACK
6
CONTINUOUS
10
4.2302339763779528
20
-4.7484266929133856
11
4.2369411417322835
21
-4.7368095275590552
0
LINE
8
BLACK
6
CONTINUOUS
10
4.2369411417322835
20
-4.7368095275590552
11
4.2422542913385826
21
-4.7244922834645671
0
LINE
8
BLACK
6
CONTINUOUS
10
4.2422542913385826
20
-4.7244922834645671
11
4.2461015748031494
21
-4.7116415354330705
0
LINE
8
BLACK
6
CONTINUOUS
10
4.2461015748031494
20
-4.7116415354330705
11
4.24843094488189
21
-4.698430984251968
0
LINE
8
BLACK
6
CONTINUOUS
10
4.24843094488189
20
-4.698430984251968
11
4.249210905511811
21
-4.6850393700787398
0
LINE
8
BLACK
6
CONTINUOUS
10
4.249210905511811
20
-4.6850393700787398
11
4.24843094488189
21
-4.6716477559055116
0
LINE
8
BLACK
6
CONTINUOUS
10
4.24843094488189
20
-4.6716477559055116
11
4.2461015748031494
21
-4.6584372047244091
0
LINE
8
BLACK
6
CONTINUOUS
10
4.2461015748031494
20
-4.6584372047244091
11
4.2422542913385826
21
-4.6455864566929135
0
LINE
8
BLACK
6
CONTINUOUS
10
4.2422542913385826
20
-4.6455864566929135
11
4.2369411417322835
21
-4.6332692125984254
0
LINE
8
BLACK
6
CONTINUOUS
10
4.2369411417322835
20
-4.6332692125984254
11
4.2302339763779528
21
-4.6216520472440941
0
LINE
8
BLACK
6
CONTINUOUS
10
4.2302339763779528
20
-4.6216520472440941
11
4.2222235039370082
21
-4.6108921259842521
0
LINE
8
BLACK
6
CONTINUOUS
10
4.2222235039370082
20
-4.6108921259842521
11
4.2130180314960626
21
-4.6011349212598427
0
LINE
8
BLACK
6
CONTINUOUS
10
4.2130180314960626
20
-4.6011349212598427
11
4.2027420866141734
21
-4.5925123622047241
0
LINE
8
BLACK
6
CONTINUOUS
10
4.2027420866141734
20
-4.5925123622047241
11
4.1915346062992125
21
-4.5851410629921263
0
LINE
8
BLACK
6
CONTINUOUS
10
4.1915346062992125
20
-4.5851410629921263
11
4.1795471259842518
21
-4.5791207086614172
0
LINE
8
BLACK
6
CONTINUOUS
10
4.1795471259842518
20
-4.5791207086614172
11
4.1669417716535433
21
-4.574532755905512
0
LINE
8
BLACK
6
CONTINUOUS
10
4.1669417716535433
20
-4.574532755905512
11
4.1538890551181105
21
-4.5714392125984249
0
LINE
8
BLACK
6
CONTINUOUS
10
4.1538890551181105
20
-4.5714392125984249
11
4.1405654330708659
21
-4.5698818897637796
0
LINE
8
BLACK
6
CONTINUOUS
10
4.1405654330708659
20
-4.5698818897637796
11
4.1271511023622045
21
-4.5698818897637796
0
LINE
8
BLACK
6
CONTINUOUS
10
4.1271511023622045
20
-4.5698818897637796
11
4.1138274803149608
21
-4.5714392125984249
0
LINE
8
BLACK
6
CONTINUOUS
10
4.1138274803149608
20
-4.5714392125984249
11
4.1007747637795271
21
-4.574532755905512
0
LINE
8
BLACK
6
CONTINUOUS
10
4.1007747637795271
20
-4.574532755905512
11
4.0881694094488186
21
-4.5791207086614172
0
LINE
8
BLACK
6
CONTINUOUS
10
4.0881694094488186
20
-4.5791207086614172
11
4.0761819291338579
21
-4.5851410629921263
0
LINE
8
BLACK
6
CONTINUOUS
10
4.0761819291338579
20
-4.5851410629921263
11
4.0649744488188979
21
-4.5925123622047241
0
LINE
8
BLACK
6
CONTINUOUS
10
4.0649744488188979
20
-4.5925123622047241
11
4.0546985039370078
21
-4.6011349212598427
0
LINE
8
BLACK
6
CONTINUOUS
10
4.0546985039370078
20
-4.6011349212598427
11
4.0454930314960631
21
-4.6108921259842521
0
LINE
8
BLACK
6
CONTINUOUS
10
4.0454930314960631
20
-4.6108921259842521
11
4.0374825590551184
21
-4.6216520472440941
0
LINE
8
BLACK
6
CONTINUOUS
10
4.0374825590551184
20
-4.6216520472440941
11
4.0307753937007877
21
-4.6332692125984254
0
LINE
8
BLACK
6
CONTINUOUS
10
4.0307753937007877
20
-4.6332692125984254
11
4.0254622440944878
21
-4.6455864566929135
0
LINE
8
BLACK
6
CONTINUOUS
10
4.0254622440944878
20
-4.6455864566929135
11
4.021614960629921
21
-4.6584372047244091
0
LINE
8
BLACK
6
CONTINUOUS
10
4.021614960629921
20
-4.6584372047244091
11
4.0192855905511813
21
-4.6716477559055116
0
LINE
8
BLACK
6
CONTINUOUS
10
4.0192855905511813
20
-4.6716477559055116
11
4.0185056299212594
21
-4.6850393700787398
0
LINE
8
BLACK
6
CONTINUOUS
10
4.0185056299212594
20
-4.6850393700787398
11
4.0192855905511813
21
-4.698430984251968
0
LINE
8
BLACK
6
CONTINUOUS
10
7.100168937007874
20
-4.5647375984251966
11
7.1135532283464569
21
-4.5670116929133862
0
LINE
8
BLACK
6
CONTINUOUS
10
7.1135532283464569
20
-4.5670116929133862
11
7.1265987401574797
21
-4.5707700393700783
0
LINE
8
BLACK
6
CONTINUOUS
10
7.1265987401574797
20
-4.5707700393700783
11
7.1391414173228345
21
-4.5759653937007876
0
LINE
8
BLACK
6
CONTINUOUS
10
7.1391414173228345
20
-4.5759653937007876
11
7.1510235826771655
21
-4.5825324015748032
0
LINE
8
BLACK
6
CONTINUOUS
10
7.1510235826771655
20
-4.5825324015748032
11
7.1620957086614174
21
-4.5903885039370076
0
LINE
8
BLACK
6
CONTINUOUS
10
7.1620957086614174
20
-4.5903885039370076
11
7.1722186220472439
21
-4.5994349212598422
0
LINE
8
BLACK
6
CONTINUOUS
10
7.1722186220472439
20
-4.5994349212598422
11
7.1812650393700785
21
-4.6095578346456696
0
LINE
8
BLACK
6
CONTINUOUS
10
7.1812650393700785
20
-4.6095578346456696
11
7.1891211417322829
21
-4.6206299606299215
0
LINE
8
BLACK
6
CONTINUOUS
10
7.1891211417322829
20
-4.6206299606299215
11
7.1956881496062994
21
-4.6325121259842517
0
LINE
8
BLACK
6
CONTINUOUS
10
7.1956881496062994
20
-4.6325121259842517
11
7.2008835039370078
21
-4.6450548031496064
0
LINE
8
BLACK
6
CONTINUOUS
10
7.2008835039370078
20
-4.6450548031496064
11
7.2046418503937009
21
-4.6581003149606302
0
LINE
8
BLACK
6
CONTINUOUS
10
7.2046418503937009
20
-4.6581003149606302
11
7.2069159448818896
21
-4.6714846062992121
0
LINE
8
BLACK
6
CONTINUOUS
10
7.2069159448818896
20
-4.6714846062992121
11
7.2076771653543306
21
-4.6850393700787398
0
LINE
8
BLACK
6
CONTINUOUS
10
7.2076771653543306
20
-4.6850393700787398
11
7.2069159448818896
21
-4.6985941338582675
0
LINE
8
BLACK
6
CONTINUOUS
10
7.2069159448818896
20
-4.6985941338582675
11
7.2046418503937009
21
-4.7119784251968504
0
LINE
8
BLACK
6
CONTINUOUS
10
7.2046418503937009
20
-4.7119784251968504
11
7.2008835039370078
21
-4.7250239370078742
0
LINE
8
BLACK
6
CONTINUOUS
10
7.2008835039370078
20
-4.7250239370078742
11
7.1956881496062994
21
-4.737566614173228
0
LINE
8
BLACK
6
CONTINUOUS
10
7.1956881496062994
20
-4.737566614173228
11
7.1891211417322829
21
-4.7494487795275591
0
LINE
8
BLACK
6
CONTINUOUS
10
7.1891211417322829
20
-4.7494487795275591
11
7.1812650393700785
21
-4.760520905511811
0
LINE
8
BLACK
6
CONTINUOUS
10
7.1812650393700785
20
-4.760520905511811
11
7.1722186220472439
21
-4.7706438188976374
0
LINE
8
BLACK
6
CONTINUOUS
10
7.1722186220472439
20
-4.7706438188976374
11
7.1620957086614174
21
-4.7796902362204721
0
LINE
8
BLACK
6
CONTINUOUS
10
7.1620957086614174
20
-4.7796902362204721
11
7.1510235826771655
21
-4.7875463385826773
0
LINE
8
BLACK
6
CONTINUOUS
10
7.1510235826771655
20
-4.7875463385826773
11
7.1391414173228345
21
-4.794113346456693
0
LINE
8
BLACK
6
CONTINUOUS
10
7.1391414173228345
20
-4.794113346456693
11
7.1265987401574797
21
-4.7993087007874013
0
LINE
8
BLACK
6
CONTINUOUS
10
7.1265987401574797
20
-4.7993087007874013
11
7.1135532283464569
21
-4.8030670472440944
0
LINE
8
BLACK
6
CONTINUOUS
10
7.1135532283464569
20
-4.8030670472440944
11
7.100168937007874
21
-4.8053411417322831
0
LINE
8
BLACK
6
CONTINUOUS
10
7.100168937007874
20
-4.8053411417322831
11
7.0866141732283463
21
-4.8061023622047241
0
LINE
8
BLACK
6
CONTINUOUS
10
7.0866141732283463
20
-4.8061023622047241
11
7.0730594094488186
21
-4.8053411417322831
0
LINE
8
BLACK
6
CONTINUOUS
10
7.0730594094488186
20
-4.8053411417322831
11
7.0596751181102357
21
-4.8030670472440944
0
LINE
8
BLACK
6
CONTINUOUS
10
7.0596751181102357
20
-4.8030670472440944
11
7.0466296062992129
21
-4.7993087007874013
0
LINE
8
BLACK
6
CONTINUOUS
10
7.0466296062992129
20
-4.7993087007874013
11
7.0340869291338581
21
-4.794113346456693
0
LINE
8
BLACK
6
CONTINUOUS
10
7.0340869291338581
20
-4.794113346456693
11
7.0222047637795271
21
-4.7875463385826773
0
LINE
8
BLACK
6
CONTINUOUS
10
7.0222047637795271
20
-4.7875463385826773
11
7.0111326377952752
21
-4.7796902362204721
0
LINE
8
BLACK
6
CONTINUOUS
10
7.0111326377952752
20
-4.7796902362204721
11
7.0010097244094487
21
-4.7706438188976374
0
LINE
8
BLACK
6
CONTINUOUS
10
7.0010097244094487
20
-4.7706438188976374
11
6.9919633070866141
21
-4.760520905511811
0
LINE
8
BLACK
6
CONTINUOUS
10
6.9919633070866141
20
-4.760520905511811
11
6.9841072047244097
21
-4.7494487795275591
0
LINE
8
BLACK
6
CONTINUOUS
10
6.9841072047244097
20
-4.7494487795275591
11
6.9775401968503932
21
-4.737566614173228
0
LINE
8
BLACK
6
CONTINUOUS
10
6.9775401968503932
20
-4.737566614173228
11
6.9723448425196848
21
-4.7250239370078742
0
LINE
8
BLACK
6
CONTINUOUS
10
6.9723448425196848
20
-4.7250239370078742
11
6.9685864960629917
21
-4.7119784251968504
0
LINE
8
BLACK
6
CONTINUOUS
10
6.9685864960629917
20
-4.7119784251968504
11
6.966312401574803
21
-4.6985941338582675
0
LINE
8
BLACK
6
CONTINUOUS
10
6.966312401574803
20
-4.6985941338582675
11
6.965551181102362
21
-4.6850393700787398
0
LINE
8
BLACK
6
CONTINUOUS
10
6.965551181102362
20
-4.6850393700787398
11
6.966312401574803
21
-4.6714846062992121
0
LINE
8
BLACK
6
CONTINUOUS
10
6.966312401574803
20
-4.6714846062992121
11
6.9685864960629917
21
-4.6581003149606302
0
LINE
8
BLACK
6
CONTINUOUS
10
6.9685864960629917
20
-4.6581003149606302
11
6.9723448425196848
21
-4.6450548031496064
0
LINE
8
BLACK
6
CONTINUOUS
10
6.9723448425196848
20
-4.6450548031496064
11
6.9775401968503932
21
-4.6325121259842517
0
LINE
8
BLACK
6
CONTINUOUS
10
6.9775401968503932
20
-4.6325121259842517
11
6.9841072047244097
21
-4.6206299606299215
0
LINE
8
BLACK
6
CONTINUOUS
10
6.9841072047244097
20
-4.6206299606299215
11
6.9919633070866141
21
-4.6095578346456696
0
LINE
8
BLACK
6
CONTINUOUS
10
6.9919633070866141
20
-4.6095578346456696
11
7.0010097244094487
21
-4.5994349212598422
0
LINE
8
BLACK
6
CONTINUOUS
10
7.0010097244094487
20
-4.5994349212598422
11
7.0111326377952752
21
-4.5903885039370076
0
LINE
8
BLACK
6
CONTINUOUS
10
7.0111326377952752
20
-4.5903885039370076
11
7.0222047637795271
21
-4.5825324015748032
0
LINE
8
BLACK
6
CONTINUOUS
10
7.0222047637795271
20
-4.5825324015748032
11
7.0340869291338581
21
-4.5759653937007876
0
LINE
8
BLACK
6
CONTINUOUS
10
7.0340869291338581
20
-4.5759653937007876
11
7.0466296062992129
21
-4.5707700393700783
0
LINE
8
BLACK
6
CONTINUOUS
10
7.0466296062992129
20
-4.5707700393700783
11
7.0596751181102357
21
-4.5670116929133862
0
LINE
8
BLACK
6
CONTINUOUS
10
7.0596751181102357
20
-4.5670116929133862
11
7.0730594094488186
21
-4.5647375984251966
0
LINE
8
BLACK
6
CONTINUOUS
10
7.0730594094488186
20
-4.5647375984251966
11
7.0866141732283463
21
-4.5639763779527556
0
LINE
8
BLACK
6
CONTINUOUS
10
7.0866141732283463
20
-4.5639763779527556
11
7.100168937007874
21
-4.5647375984251966
0
LINE
8
BLACK
6
CONTINUOUS
10
6.9720414960629924
20
-4.698430984251968
11
6.9743708661417321
21
-4.7116415354330705
0
LINE
8
BLACK
6
CONTINUOUS
10
6.9743708661417321
20
-4.7116415354330705
11
6.9782181496062989
21
-4.7244922834645671
0
LINE
8
BLACK
6
CONTINUOUS
10
6.9782181496062989
20
-4.7244922834645671
11
6.983531299212598
21
-4.7368095275590552
0
LINE
8
BLACK
6
CONTINUOUS
10
6.983531299212598
20
-4.7368095275590552
11
6.9902384645669287
21
-4.7484266929133856
0
LINE
8
BLACK
6
CONTINUOUS
10
6.9902384645669287
20
-4.7484266929133856
11
6.9982489370078742
21
-4.7591866141732284
0
LINE
8
BLACK
6
CONTINUOUS
10
6.9982489370078742
20
-4.7591866141732284
11
7.0074544094488189
21
-4.7689438188976379
0
LINE
8
BLACK
6
CONTINUOUS
10
7.0074544094488189
20
-4.7689438188976379
11
7.0177303543307081
21
-4.7775663779527555
0
LINE
8
BLACK
6
CONTINUOUS
10
7.0177303543307081
20
-4.7775663779527555
11
7.028937834645669
21
-4.7849376771653542
0
LINE
8
BLACK
6
CONTINUOUS
10
7.028937834645669
20
-4.7849376771653542
11
7.0409253149606297
21
-4.7909580314960625
0
LINE
8
BLACK
6
CONTINUOUS
10
7.0409253149606297
20
-4.7909580314960625
11
7.0535306692913382
21
-4.7955459842519685
0
LINE
8
BLACK
6
CONTINUOUS
10
7.0535306692913382
20
-4.7955459842519685
11
7.0665833858267719
21
-4.7986395275590548
0
LINE
8
BLACK
6
CONTINUOUS
10
7.0665833858267719
20
-4.7986395275590548
11
7.0799070078740156
21
-4.8001968503937009
0
LINE
8
BLACK
6
CONTINUOUS
10
7.0799070078740156
20
-4.8001968503937009
11
7.093321338582677
21
-4.8001968503937009
0
LINE
8
BLACK
6
CONTINUOUS
10
7.093321338582677
20
-4.8001968503937009
11
7.1066449606299207
21
-4.7986395275590548
0
LINE
8
BLACK
6
CONTINUOUS
10
7.1066449606299207
20
-4.7986395275590548
11
7.1196976771653544
21
-4.7955459842519685
0
LINE
8
BLACK
6
CONTINUOUS
10
7.1196976771653544
20
-4.7955459842519685
11
7.1323030314960629
21
-4.7909580314960625
0
LINE
8
BLACK
6
CONTINUOUS
10
7.1323030314960629
20
-4.7909580314960625
11
7.1442905118110236
21
-4.7849376771653542
0
LINE
8
BLACK
6
CONTINUOUS
10
7.1442905118110236
20
-4.7849376771653542
11
7.1554979921259845
21
-4.7775663779527555
0
LINE
8
BLACK
6
CONTINUOUS
10
7.1554979921259845
20
-4.7775663779527555
11
7.1657739370078737
21
-4.7689438188976379
0
LINE
8
BLACK
6
CONTINUOUS
10
7.1657739370078737
20
-4.7689438188976379
11
7.1749794094488184
21
-4.7591866141732284
0
LINE
8
BLACK
6
CONTINUOUS
10
7.1749794094488184
20
-4.7591866141732284
11
7.182989881889764
21
-4.7484266929133856
0
LINE
8
BLACK
6
CONTINUOUS
10
7.182989881889764
20
-4.7484266929133856
11
7.1896970472440946
21
-4.7368095275590552
0
LINE
8
BLACK
6
CONTINUOUS
10
7.1896970472440946
20
-4.7368095275590552
11
7.1950101968503937
21
-4.7244922834645671
0
LINE
8
BLACK
6
CONTINUOUS
10
7.1950101968503937
20
-4.7244922834645671
11
7.1988574803149605
21
-4.7116415354330705
0
LINE
8
BLACK
6
CONTINUOUS
10
7.1988574803149605
20
-4.7116415354330705
11
7.2011868503937002
21
-4.698430984251968
0
LINE
8
BLACK
6
CONTINUOUS
10
7.2011868503937002
20
-4.698430984251968
11
7.2019668110236221
21
-4.6850393700787398
0
LINE
8
BLACK
6
CONTINUOUS
10
7.2019668110236221
20
-4.6850393700787398
11
7.2011868503937002
21
-4.6716477559055116
0
LINE
8
BLACK
6
CONTINUOUS
10
7.2011868503937002
20
-4.6716477559055116
11
7.1988574803149605
21
-4.6584372047244091
0
LINE
8
BLACK
6
CONTINUOUS
10
7.1988574803149605
20
-4.6584372047244091
11
7.1950101968503937
21
-4.6455864566929135
0
LINE
8
BLACK
6
CONTINUOUS
10
7.1950101968503937
20
-4.6455864566929135
11
7.1896970472440946
21
-4.6332692125984254
0
LINE
8
BLACK
6
CONTINUOUS
10
7.1896970472440946
20
-4.6332692125984254
11
7.182989881889764
21
-4.6216520472440941
0
LINE
8
BLACK
6
CONTINUOUS
10
7.182989881889764
20
-4.6216520472440941
11
7.1749794094488184
21
-4.6108921259842521
0
LINE
8
BLACK
6
CONTINUOUS
10
7.1749794094488184
20
-4.6108921259842521
11
7.1657739370078737
21
-4.6011349212598427
0
LINE
8
BLACK
6
CONTINUOUS
10
7.1657739370078737
20
-4.6011349212598427
11
7.1554979921259845
21
-4.5925123622047241
0
LINE
8
BLACK
6
CONTINUOUS
10
7.1554979921259845
20
-4.5925123622047241
11
7.1442905118110236
21
-4.5851410629921263
0
LINE
8
BLACK
6
CONTINUOUS
10
7.1442905118110236
20
-4.5851410629921263
11
7.1323030314960629
21
-4.5791207086614172
0
LINE
8
BLACK
6
CONTINUOUS
10
7.1323030314960629
20
-4.5791207086614172
11
7.1196976771653544
21
-4.574532755905512
0
LINE
8
BLACK
6
CONTINUOUS
10
7.1196976771653544
20
-4.574532755905512
11
7.1066449606299207
21
-4.5714392125984249
0
LINE
8
BLACK
6
CONTINUOUS
10
7.1066449606299207
20
-4.5714392125984249
11
7.093321338582677
21
-4.5698818897637796
0
LINE
8
BLACK
6
CONTINUOUS
10
7.093321338582677
20
-4.5698818897637796
11
7.0799070078740156
21
-4.5698818897637796
0
LINE
8
BLACK
6
CONTINUOUS
10
7.0799070078740156
20
-4.5698818897637796
11
7.0665833858267719
21
-4.5714392125984249
0
LINE
8
BLACK
6
CONTINUOUS
10
7.0665833858267719
20
-4.5714392125984249
11
7.0535306692913382
21
-4.574532755905512
0
LINE
8
BLACK
6
CONTINUOUS
10
7.0535306692913382
20
-4.574532755905512
11
7.0409253149606297
21
-4.5791207086614172
0
LINE
8
BLACK
6
CONTINUOUS
10
7.0409253149606297
20
-4.5791207086614172
11
7.028937834645669
21
-4.5851410629921263
0
LINE
8
BLACK
6
CONTINUOUS
10
7.028937834645669
20
-4.5851410629921263
11
7.0177303543307081
21
-4.5925123622047241
0
LINE
8
BLACK
6
CONTINUOUS
10
7.0177303543307081
20
-4.5925123622047241
11
7.0074544094488189
21
-4.6011349212598427
0
LINE
8
BLACK
6
CONTINUOUS
10
7.0074544094488189
20
-4.6011349212598427
11
6.9982489370078742
21
-4.6108921259842521
0
LINE
8
BLACK
6
CONTINUOUS
10
6.9982489370078742
20
-4.6108921259842521
11
6.9902384645669287
21
-4.6216520472440941
0
LINE
8
BLACK
6
CONTINUOUS
10
6.9902384645669287
20
-4.6216520472440941
11
6.983531299212598
21
-4.6332692125984254
0
LINE
8
BLACK
6
CONTINUOUS
10
6.983531299212598
20
-4.6332692125984254
11
6.9782181496062989
21
-4.6455864566929135
0
LINE
8
BLACK
6
CONTINUOUS
10
6.9782181496062989
20
-4.6455864566929135
11
6.9743708661417321
21
-4.6584372047244091
0
LINE
8
BLACK
6
CONTINUOUS
10
6.9743708661417321
20
-4.6584372047244091
11
6.9720414960629924
21
-4.6716477559055116
0
LINE
8
BLACK
6
CONTINUOUS
10
6.9720414960629924
20
-4.6716477559055116
11
6.9712615354330705
21
-4.6850393700787398
0
LINE
8
BLACK
6
CONTINUOUS
10
6.9712615354330705
20
-4.6850393700787398
11
6.9720414960629924
21
-4.698430984251968
0
LINE
8
BLACK
6
CONTINUOUS
10
1.194657125984252
20
-2.5174935039370077
11
1.2080414173228347
21
-2.5197675984251968
0
LINE
8
BLACK
6
CONTINUOUS
10
1.2080414173228347
20
-2.5197675984251968
11
1.2210869291338582
21
-2.5235259448818899
0
LINE
8
BLACK
6
CONTINUOUS
10
1.2210869291338582
20
-2.5235259448818899
11
1.2336296062992125
21
-2.5287212992125983
0
LINE
8
BLACK
6
CONTINUOUS
10
1.2336296062992125
20
-2.5287212992125983
11
1.2455117716535433
21
-2.5352883070866139
0
LINE
8
BLACK
6
CONTINUOUS
10
1.2455117716535433
20
-2.5352883070866139
11
1.2565838976377952
21
-2.5431444094488187
0
LINE
8
BLACK
6
CONTINUOUS
10
1.2565838976377952
20
-2.5431444094488187
11
1.2667068110236219
21
-2.5521908267716533
0
LINE
8
BLACK
6
CONTINUOUS
10
1.2667068110236219
20
-2.5521908267716533
11
1.2757532283464568
21
-2.5623137401574803
0
LINE
8
BLACK
6
CONTINUOUS
10
1.2757532283464568
20
-2.5623137401574803
11
1.2836093307086613
21
-2.5733858661417321
0
LINE
8
BLACK
6
CONTINUOUS
10
1.2836093307086613
20
-2.5733858661417321
11
1.2901763385826772
21
-2.5852680314960628
0
LINE
8
BLACK
6
CONTINUOUS
10
1.2901763385826772
20
-2.5852680314960628
11
1.2953716929133858
21
-2.5978107086614171
0
LINE
8
BLACK
6
CONTINUOUS
10
1.2953716929133858
20
-2.5978107086614171
11
1.2991300393700786
21
-2.6108562204724408
0
LINE
8
BLACK
6
CONTINUOUS
10
1.2991300393700786
20
-2.6108562204724408
11
1.3014041338582676
21
-2.6242405118110237
0
LINE
8
BLACK
6
CONTINUOUS
10
1.3014041338582676
20
-2.6242405118110237
11
1.3021653543307086
21
-2.6377952755905509
0
LINE
8
BLACK
6
CONTINUOUS
10
1.3021653543307086
20
-2.6377952755905509
11
1.3014041338582676
21
-2.6513500393700786
0
LINE
8
BLACK
6
CONTINUOUS
10
1.3014041338582676
20
-2.6513500393700786
11
1.2991300393700786
21
-2.6647343307086615
0
LINE
8
BLACK
6
CONTINUOUS
10
1.2991300393700786
20
-2.6647343307086615
11
1.2953716929133858
21
-2.6777798425196848
0
LINE
8
BLACK
6
CONTINUOUS
10
1.2953716929133858
20
-2.6777798425196848
11
1.2901763385826772
21
-2.6903225196850391
0
LINE
8
BLACK
6
CONTINUOUS
10
1.2901763385826772
20
-2.6903225196850391
11
1.2836093307086613
21
-2.7022046850393702
0
LINE
8
BLACK
6
CONTINUOUS
10
1.2836093307086613
20
-2.7022046850393702
11
1.2757532283464568
21
-2.7132768110236221
0
LINE
8
BLACK
6
CONTINUOUS
10
1.2757532283464568
20
-2.7132768110236221
11
1.2667068110236219
21
-2.7233997244094486
0
LINE
8
BLACK
6
CONTINUOUS
10
1.2667068110236219
20
-2.7233997244094486
11
1.2565838976377952
21
-2.7324461417322836
0
LINE
8
BLACK
6
CONTINUOUS
10
1.2565838976377952
20
-2.7324461417322836
11
1.2455117716535433
21
-2.740302244094488
0
LINE
8
BLACK
6
CONTINUOUS
10
1.2455117716535433
20
-2.740302244094488
11
1.2336296062992125
21
-2.7468692519685041
0
LINE
8
BLACK
6
CONTINUOUS
10
1.2336296062992125
20
-2.7468692519685041
11
1.2210869291338582
21
-2.7520646062992125
0
LINE
8
BLACK
6
CONTINUOUS
10
1.2210869291338582
20
-2.7520646062992125
11
1.2080414173228347
21
-2.7558229527559055
0
LINE
8
BLACK
6
CONTINUOUS
10
1.2080414173228347
20
-2.7558229527559055
11
1.194657125984252
21
-2.7580970472440942
0
LINE
8
BLACK
6
CONTINUOUS
10
1.194657125984252
20
-2.7580970472440942
11
1.1811023622047243
21
-2.7588582677165352
0
LINE
8
BLACK
6
CONTINUOUS
10
1.1811023622047243
20
-2.7588582677165352
11
1.1675475984251968
21
-2.7580970472440942
0
LINE
8
BLACK
6
CONTINUOUS
10
1.1675475984251968
20
-2.7580970472440942
11
1.1541633070866142
21
-2.7558229527559055
0
LINE
8
BLACK
6
CONTINUOUS
10
1.1541633070866142
20
-2.7558229527559055
11
1.1411177952755904
21
-2.7520646062992125
0
LINE
8
BLACK
6
CONTINUOUS
10
1.1411177952755904
20
-2.7520646062992125
11
1.1285751181102361
21
-2.7468692519685041
0
LINE
8
BLACK
6
CONTINUOUS
10
1.1285751181102361
20
-2.7468692519685041
11
1.1166929527559055
21
-2.740302244094488
0
LINE
8
BLACK
6
CONTINUOUS
10
1.1166929527559055
20
-2.740302244094488
11
1.1056208267716534
21
-2.7324461417322836
0
LINE
8
BLACK
6
CONTINUOUS
10
1.1056208267716534
20
-2.7324461417322836
11
1.0954979133858267
21
-2.7233997244094486
0
LINE
8
BLACK
6
CONTINUOUS
10
1.0954979133858267
20
-2.7233997244094486
11
1.0864514960629921
21
-2.7132768110236221
0
LINE
8
BLACK
6
CONTINUOUS
10
1.0864514960629921
20
-2.7132768110236221
11
1.0785953937007873
21
-2.7022046850393702
0
LINE
8
BLACK
6
CONTINUOUS
10
1.0785953937007873
20
-2.7022046850393702
11
1.0720283858267716
21
-2.6903225196850391
0
LINE
8
BLACK
6
CONTINUOUS
10
1.0720283858267716
20
-2.6903225196850391
11
1.066833031496063
21
-2.6777798425196848
0
LINE
8
BLACK
6
CONTINUOUS
10
1.066833031496063
20
-2.6777798425196848
11
1.06307468503937
21
-2.6647343307086615
0
LINE
8
BLACK
6
CONTINUOUS
10
1.06307468503937
20
-2.6647343307086615
11
1.060800590551181
21
-2.6513500393700786
0
LINE
8
BLACK
6
CONTINUOUS
10
1.060800590551181
20
-2.6513500393700786
11
1.0600393700787401
21
-2.6377952755905509
0
LINE
8
BLACK
6
CONTINUOUS
10
1.0600393700787401
20
-2.6377952755905509
11
1.060800590551181
21
-2.6242405118110237
0
LINE
8
BLACK
6
CONTINUOUS
10
1.060800590551181
20
-2.6242405118110237
11
1.06307468503937
21
-2.6108562204724408
0
LINE
8
BLACK
6
CONTINUOUS
10
1.06307468503937
20
-2.6108562204724408
11
1.066833031496063
21
-2.5978107086614171
0
LINE
8
BLACK
6
CONTINUOUS
10
1.066833031496063
20
-2.5978107086614171
11
1.0720283858267716
21
-2.5852680314960628
0
LINE
8
BLACK
6
CONTINUOUS
10
1.0720283858267716
20
-2.5852680314960628
11
1.0785953937007873
21
-2.5733858661417321
0
LINE
8
BLACK
6
CONTINUOUS
10
1.0785953937007873
20
-2.5733858661417321
11
1.0864514960629921
21
-2.5623137401574803
0
LINE
8
BLACK
6
CONTINUOUS
10
1.0864514960629921
20
-2.5623137401574803
11
1.0954979133858267
21
-2.5521908267716533
0
LINE
8
BLACK
6
CONTINUOUS
10
1.0954979133858267
20
-2.5521908267716533
11
1.1056208267716534
21
-2.5431444094488187
0
LINE
8
BLACK
6
CONTINUOUS
10
1.1056208267716534
20
-2.5431444094488187
11
1.1166929527559055
21
-2.5352883070866139
0
LINE
8
BLACK
6
CONTINUOUS
10
1.1166929527559055
20
-2.5352883070866139
11
1.1285751181102361
21
-2.5287212992125983
0
LINE
8
BLACK
6
CONTINUOUS
10
1.1285751181102361
20
-2.5287212992125983
11
1.1411177952755904
21
-2.5235259448818899
0
LINE
8
BLACK
6
CONTINUOUS
10
1.1411177952755904
20
-2.5235259448818899
11
1.1541633070866142
21
-2.5197675984251968
0
LINE
8
BLACK
6
CONTINUOUS
10
1.1541633070866142
20
-2.5197675984251968
11
1.1675475984251968
21
-2.5174935039370077
0
LINE
8
BLACK
6
CONTINUOUS
10
1.1675475984251968
20
-2.5174935039370077
11
1.1811023622047243
21
-2.5167322834645667
0
LINE
8
BLACK
6
CONTINUOUS
10
1.1811023622047243
20
-2.5167322834645667
11
1.194657125984252
21
-2.5174935039370077
0
LINE
8
BLACK
6
CONTINUOUS
10
1.06652968503937
20
-2.6511868897637796
11
1.0688590551181103
21
-2.6643974409448816
0
LINE
8
BLACK
6
CONTINUOUS
10
1.0688590551181103
20
-2.6643974409448816
11
1.0727063385826772
21
-2.6772481889763777
0
LINE
8
BLACK
6
CONTINUOUS
10
1.0727063385826772
20
-2.6772481889763777
11
1.0780194881889764
21
-2.6895654330708663
0
LINE
8
BLACK
6
CONTINUOUS
10
1.0780194881889764
20
-2.6895654330708663
11
1.0847266535433071
21
-2.7011825984251967
0
LINE
8
BLACK
6
CONTINUOUS
10
1.0847266535433071
20
-2.7011825984251967
11
1.092737125984252
21
-2.7119425196850395
0
LINE
8
BLACK
6
CONTINUOUS
10
1.092737125984252
20
-2.7119425196850395
11
1.1019425984251969
21
-2.721699724409449
0
LINE
8
BLACK
6
CONTINUOUS
10
1.1019425984251969
20
-2.721699724409449
11
1.1122185433070866
21
-2.7303222834645671
0
LINE
8
BLACK
6
CONTINUOUS
10
1.1122185433070866
20
-2.7303222834645671
11
1.1234260236220472
21
-2.7376935826771653
0
LINE
8
BLACK
6
CONTINUOUS
10
1.1234260236220472
20
-2.7376935826771653
11
1.1354135039370079
21
-2.743713937007874
0
LINE
8
BLACK
6
CONTINUOUS
10
1.1354135039370079
20
-2.743713937007874
11
1.1480188582677164
21
-2.7483018897637796
0
LINE
8
BLACK
6
CONTINUOUS
10
1.1480188582677164
20
-2.7483018897637796
11
1.1610715748031495
21
-2.7513954330708659
0
LINE
8
BLACK
6
CONTINUOUS
10
1.1610715748031495
20
-2.7513954330708659
11
1.1743951968503936
21
-2.7529527559055116
0
LINE
8
BLACK
6
CONTINUOUS
10
1.1743951968503936
20
-2.7529527559055116
11
1.187809527559055
21
-2.7529527559055116
0
LINE
8
BLACK
6
CONTINUOUS
10
1.187809527559055
20
-2.7529527559055116
11
1.2011331496062991
21
-2.7513954330708659
0
LINE
8
BLACK
6
CONTINUOUS
10
1.2011331496062991
20
-2.7513954330708659
11
1.2141858661417322
21
-2.7483018897637796
0
LINE
8
BLACK
6
CONTINUOUS
10
1.2141858661417322
20
-2.7483018897637796
11
1.2267912204724409
21
-2.743713937007874
0
LINE
8
BLACK
6
CONTINUOUS
10
1.2267912204724409
20
-2.743713937007874
11
1.2387787007874016
21
-2.7376935826771653
0
LINE
8
BLACK
6
CONTINUOUS
10
1.2387787007874016
20
-2.7376935826771653
11
1.2499861811023623
21
-2.7303222834645671
0
LINE
8
BLACK
6
CONTINUOUS
10
1.2499861811023623
20
-2.7303222834645671
11
1.2602621259842519
21
-2.721699724409449
0
LINE
8
BLACK
6
CONTINUOUS
10
1.2602621259842519
20
-2.721699724409449
11
1.2694675984251969
21
-2.7119425196850395
0
LINE
8
BLACK
6
CONTINUOUS
10
1.2694675984251969
20
-2.7119425196850395
11
1.2774780708661417
21
-2.7011825984251967
0
LINE
8
BLACK
6
CONTINUOUS
10
1.2774780708661417
20
-2.7011825984251967
11
1.2841852362204724
21
-2.6895654330708663
0
LINE
8
BLACK
6
CONTINUOUS
10
1.2841852362204724
20
-2.6895654330708663
11
1.2894983858267717
21
-2.6772481889763777
0
LINE
8
BLACK
6
CONTINUOUS
10
1.2894983858267717
20
-2.6772481889763777
11
1.2933456692913385
21
-2.6643974409448816
0
LINE
8
BLACK
6
CONTINUOUS
10
1.2933456692913385
20
-2.6643974409448816
11
1.2956750393700787
21
-2.6511868897637796
0
LINE
8
BLACK
6
CONTINUOUS
10
1.2956750393700787
20
-2.6511868897637796
11
1.2964549999999999
21
-2.6377952755905509
0
LINE
8
BLACK
6
CONTINUOUS
10
1.2964549999999999
20
-2.6377952755905509
11
1.2956750393700787
21
-2.6244036614173227
0
LINE
8
BLACK
6
CONTINUOUS
10
1.2956750393700787
20
-2.6244036614173227
11
1.2933456692913385
21
-2.6111931102362202
0
LINE
8
BLACK
6
CONTINUOUS
10
1.2933456692913385
20
-2.6111931102362202
11
1.2894983858267717
21
-2.5983423622047241
0
LINE
8
BLACK
6
CONTINUOUS
10
1.2894983858267717
20
-2.5983423622047241
11
1.2841852362204724
21
-2.5860251181102361
0
LINE
8
BLACK
6
CONTINUOUS
10
1.2841852362204724
20
-2.5860251181102361
11
1.2774780708661417
21
-2.5744079527559056
0
LINE
8
BLACK
6
CONTINUOUS
10
1.2774780708661417
20
-2.5744079527559056
11
1.2694675984251969
21
-2.5636480314960628
0
LINE
8
BLACK
6
CONTINUOUS
10
1.2694675984251969
20
-2.5636480314960628
11
1.2602621259842519
21
-2.5538908267716534
0
LINE
8
BLACK
6
CONTINUOUS
10
1.2602621259842519
20
-2.5538908267716534
11
1.2499861811023623
21
-2.5452682677165352
0
LINE
8
BLACK
6
CONTINUOUS
10
1.2499861811023623
20
-2.5452682677165352
11
1.2387787007874016
21
-2.537896968503937
0
LINE
8
BLACK
6
CONTINUOUS
10
1.2387787007874016
20
-2.537896968503937
11
1.2267912204724409
21
-2.5318766141732283
0
LINE
8
BLACK
6
CONTINUOUS
10
1.2267912204724409
20
-2.5318766141732283
11
1.2141858661417322
21
-2.5272886614173227
0
LINE
8
BLACK
6
CONTINUOUS
10
1.2141858661417322
20
-2.5272886614173227
11
1.2011331496062991
21
-2.524195118110236
0
LINE
8
BLACK
6
CONTINUOUS
10
1.2011331496062991
20
-2.524195118110236
11
1.187809527559055
21
-2.5226377952755903
0
LINE
8
BLACK
6
CONTINUOUS
10
1.187809527559055
20
-2.5226377952755903
11
1.1743951968503936
21
-2.5226377952755903
0
LINE
8
BLACK
6
CONTINUOUS
10
1.1743951968503936
20
-2.5226377952755903
11
1.1610715748031495
21
-2.524195118110236
0
LINE
8
BLACK
6
CONTINUOUS
10
1.1610715748031495
20
-2.524195118110236
11
1.1480188582677164
21
-2.5272886614173227
0
LINE
8
BLACK
6
CONTINUOUS
10
1.1480188582677164
20
-2.5272886614173227
11
1.1354135039370079
21
-2.5318766141732283
0
LINE
8
BLACK
6
CONTINUOUS
10
1.1354135039370079
20
-2.5318766141732283
11
1.1234260236220472
21
-2.537896968503937
0
LINE
8
BLACK
6
CONTINUOUS
10
1.1234260236220472
20
-2.537896968503937
11
1.1122185433070866
21
-2.5452682677165352
0
LINE
8
BLACK
6
CONTINUOUS
10
1.1122185433070866
20
-2.5452682677165352
11
1.1019425984251969
21
-2.5538908267716534
0
LINE
8
BLACK
6
CONTINUOUS
10
1.1019425984251969
20
-2.5538908267716534
11
1.092737125984252
21
-2.5636480314960628
0
LINE
8
BLACK
6
CONTINUOUS
10
1.092737125984252
20
-2.5636480314960628
11
1.0847266535433071
21
-2.5744079527559056
0
LINE
8
BLACK
6
CONTINUOUS
10
1.0847266535433071
20
-2.5744079527559056
11
1.0780194881889764
21
-2.5860251181102361
0
LINE
8
BLACK
6
CONTINUOUS
10
1.0780194881889764
20
-2.5860251181102361
11
1.0727063385826772
21
-2.5983423622047241
0
LINE
8
BLACK
6
CONTINUOUS
10
1.0727063385826772
20
-2.5983423622047241
11
1.0688590551181103
21
-2.6111931102362202
0
LINE
8
BLACK
6
CONTINUOUS
10
1.0688590551181103
20
-2.6111931102362202
11
1.06652968503937
21
-2.6244036614173227
0
LINE
8
BLACK
6
CONTINUOUS
10
1.06652968503937
20
-2.6244036614173227
11
1.0657497244094487
21
-2.6377952755905509
0
LINE
8
BLACK
6
CONTINUOUS
10
1.0657497244094487
20
-2.6377952755905509
11
1.06652968503937
21
-2.6511868897637796
0
LINE
8
BLACK
6
CONTINUOUS
10
4.1474130314960629
20
-2.5174935039370077
11
4.1607973228346458
21
-2.5197675984251968
0
LINE
8
BLACK
6
CONTINUOUS
10
4.1607973228346458
20
-2.5197675984251968
11
4.1738428346456695
21
-2.5235259448818899
0
LINE
8
BLACK
6
CONTINUOUS
10
4.1738428346456695
20
-2.5235259448818899
11
4.1863855118110234
21
-2.5287212992125983
0
LINE
8
BLACK
6
CONTINUOUS
10
4.1863855118110234
20
-2.5287212992125983
11
4.1982676771653544
21
-2.5352883070866139
0
LINE
8
BLACK
6
CONTINUOUS
10
4.1982676771653544
20
-2.5352883070866139
11
4.2093398031496063
21
-2.5431444094488187
0
LINE
8
BLACK
6
CONTINUOUS
10
4.2093398031496063
20
-2.5431444094488187
11
4.2194627165354328
21
-2.5521908267716533
0
LINE
8
BLACK
6
CONTINUOUS
10
4.2194627165354328
20
-2.5521908267716533
11
4.2285091338582674
21
-2.5623137401574803
0
LINE
8
BLACK
6
CONTINUOUS
10
4.2285091338582674
20
-2.5623137401574803
11
4.2363652362204727
21
-2.5733858661417321
0
LINE
8
BLACK
6
CONTINUOUS
10
4.2363652362204727
20
-2.5733858661417321
11
4.2429322440944883
21
-2.5852680314960628
0
LINE
8
BLACK
6
CONTINUOUS
10
4.2429322440944883
20
-2.5852680314960628
11
4.2481275984251967
21
-2.5978107086614171
0
LINE
8
BLACK
6
CONTINUOUS
10
4.2481275984251967
20
-2.5978107086614171
11
4.2518859448818898
21
-2.6108562204724408
0
LINE
8
BLACK
6
CONTINUOUS
10
4.2518859448818898
20
-2.6108562204724408
11
4.2541600393700785
21
-2.6242405118110237
0
LINE
8
BLACK
6
CONTINUOUS
10
4.2541600393700785
20
-2.6242405118110237
11
4.2549212598425195
21
-2.6377952755905509
0
LINE
8
BLACK
6
CONTINUOUS
10
4.2549212598425195
20
-2.6377952755905509
11
4.2541600393700785
21
-2.6513500393700786
0
LINE
8
BLACK
6
CONTINUOUS
10
4.2541600393700785
20
-2.6513500393700786
11
4.2518859448818898
21
-2.6647343307086615
0
LINE
8
BLACK
6
CONTINUOUS
10
4.2518859448818898
20
-2.6647343307086615
11
4.2481275984251967
21
-2.6777798425196848
0
LINE
8
BLACK
6
CONTINUOUS
10
4.2481275984251967
20
-2.6777798425196848
11
4.2429322440944883
21
-2.6903225196850391
0
LINE
8
BLACK
6
CONTINUOUS
10
4.2429322440944883
20
-2.6903225196850391
11
4.2363652362204727
21
-2.7022046850393702
0
LINE
8
BLACK
6
CONTINUOUS
10
4.2363652362204727
20
-2.7022046850393702
11
4.2285091338582674
21
-2.7132768110236221
0
LINE
8
BLACK
6
CONTINUOUS
10
4.2285091338582674
20
-2.7132768110236221
11
4.2194627165354328
21
-2.7233997244094486
0
LINE
8
BLACK
6
CONTINUOUS
10
4.2194627165354328
20
-2.7233997244094486
11
4.2093398031496063
21
-2.7324461417322836
0
LINE
8
BLACK
6
CONTINUOUS
10
4.2093398031496063
20
-2.7324461417322836
11
4.1982676771653544
21
-2.740302244094488
0
LINE
8
BLACK
6
CONTINUOUS
10
4.1982676771653544
20
-2.740302244094488
11
4.1863855118110234
21
-2.7468692519685041
0
LINE
8
BLACK
6
CONTINUOUS
10
4.1863855118110234
20
-2.7468692519685041
11
4.1738428346456695
21
-2.7520646062992125
0
LINE
8
BLACK
6
CONTINUOUS
10
4.1738428346456695
20
-2.7520646062992125
11
4.1607973228346458
21
-2.7558229527559055
0
LINE
8
BLACK
6
CONTINUOUS
10
4.1607973228346458
20
-2.7558229527559055
11
4.1474130314960629
21
-2.7580970472440942
0
LINE
8
BLACK
6
CONTINUOUS
10
4.1474130314960629
20
-2.7580970472440942
11
4.1338582677165352
21
-2.7588582677165352
0
LINE
8
BLACK
6
CONTINUOUS
10
4.1338582677165352
20
-2.7588582677165352
11
4.1203035039370075
21
-2.7580970472440942
0
LINE
8
BLACK
6
CONTINUOUS
10
4.1203035039370075
20
-2.7580970472440942
11
4.1069192125984255
21
-2.7558229527559055
0
LINE
8
BLACK
6
CONTINUOUS
10
4.1069192125984255
20
-2.7558229527559055
11
4.0938737007874018
21
-2.7520646062992125
0
LINE
8
BLACK
6
CONTINUOUS
10
4.0938737007874018
20
-2.7520646062992125
11
4.081331023622047
21
-2.7468692519685041
0
LINE
8
BLACK
6
CONTINUOUS
10
4.081331023622047
20
-2.7468692519685041
11
4.0694488582677169
21
-2.740302244094488
0
LINE
8
BLACK
6
CONTINUOUS
10
4.0694488582677169
20
-2.740302244094488
11
4.0583767322834641
21
-2.7324461417322836
0
LINE
8
BLACK
6
CONTINUOUS
10
4.0583767322834641
20
-2.7324461417322836
11
4.0482538188976376
21
-2.7233997244094486
0
LINE
8
BLACK
6
CONTINUOUS
10
4.0482538188976376
20
-2.7233997244094486
11
4.039207401574803
21
-2.7132768110236221
0
LINE
8
BLACK
6
CONTINUOUS
10
4.039207401574803
20
-2.7132768110236221
11
4.0313512992125986
21
-2.7022046850393702
0
LINE
8
BLACK
6
CONTINUOUS
10
4.0313512992125986
20
-2.7022046850393702
11
4.024784291338583
21
-2.6903225196850391
0
LINE
8
BLACK
6
CONTINUOUS
10
4.024784291338583
20
-2.6903225196850391
11
4.0195889370078737
21
-2.6777798425196848
0
LINE
8
BLACK
6
CONTINUOUS
10
4.0195889370078737
20
-2.6777798425196848
11
4.0158305905511806
21
-2.6647343307086615
0
LINE
8
BLACK
6
CONTINUOUS
10
4.0158305905511806
20
-2.6647343307086615
11
4.0135564960629919
21
-2.6513500393700786
0
LINE
8
BLACK
6
CONTINUOUS
10
4.0135564960629919
20
-2.6513500393700786
11
4.0127952755905509
21
-2.6377952755905509
0
LINE
8
BLACK
6
CONTINUOUS
10
4.0127952755905509
20
-2.6377952755905509
11
4.0135564960629919
21
-2.6242405118110237
0
LINE
8
BLACK
6
CONTINUOUS
10
4.0135564960629919
20
-2.6242405118110237
11
4.0158305905511806
21
-2.6108562204724408
0
LINE
8
BLACK
6
CONTINUOUS
10
4.0158305905511806
20
-2.6108562204724408
11
4.0195889370078737
21
-2.5978107086614171
0
LINE
8
BLACK
6
CONTINUOUS
10
4.0195889370078737
20
-2.5978107086614171
11
4.024784291338583
21
-2.5852680314960628
0
LINE
8
BLACK
6
CONTINUOUS
10
4.024784291338583
20
-2.5852680314960628
11
4.0313512992125986
21
-2.5733858661417321
0
LINE
8
BLACK
6
CONTINUOUS
10
4.0313512992125986
20
-2.5733858661417321
11
4.039207401574803
21
-2.5623137401574803
0
LINE
8
BLACK
6
CONTINUOUS
10
4.039207401574803
20
-2.5623137401574803
11
4.0482538188976376
21
-2.5521908267716533
0
LINE
8
BLACK
6
CONTINUOUS
10
4.0482538188976376
20
-2.5521908267716533
11
4.0583767322834641
21
-2.5431444094488187
0
LINE
8
BLACK
6
CONTINUOUS
10
4.0583767322834641
20
-2.5431444094488187
11
4.0694488582677169
21
-2.5352883070866139
0
LINE
8
BLACK
6
CONTINUOUS
10
4.0694488582677169
20
-2.5352883070866139
11
4.081331023622047
21
-2.5287212992125983
0
LINE
8
BLACK
6
CONTINUOUS
10
4.081331023622047
20
-2.5287212992125983
11
4.0938737007874018
21
-2.5235259448818899
0
LINE
8
BLACK
6
CONTINUOUS
10
4.0938737007874018
20
-2.5235259448818899
11
4.1069192125984255
21
-2.5197675984251968
0
LINE
8
BLACK
6
CONTINUOUS
10
4.1069192125984255
20
-2.5197675984251968
11
4.1203035039370075
21
-2.5174935039370077
0
LINE
8
BLACK
6
CONTINUOUS
10
4.1203035039370075
20
-2.5174935039370077
11
4.1338582677165352
21
-2.5167322834645667
0
LINE
8
BLACK
6
CONTINUOUS
10
4.1338582677165352
20
-2.5167322834645667
11
4.1474130314960629
21
-2.5174935039370077
0
LINE
8
BLACK
6
CONTINUOUS
10
4.0192855905511813
20
-2.6511868897637796
11
4.021614960629921
21
-2.6643974409448816
0
LINE
8
BLACK
6
CONTINUOUS
10
4.021614960629921
20
-2.6643974409448816
11
4.0254622440944878
21
-2.6772481889763777
0
LINE
8
BLACK
6
CONTINUOUS
10
4.0254622440944878
20
-2.6772481889763777
11
4.0307753937007877
21
-2.6895654330708663
0
LINE
8
BLACK
6
CONTINUOUS
10
4.0307753937007877
20
-2.6895654330708663
11
4.0374825590551184
21
-2.7011825984251967
0
LINE
8
BLACK
6
CONTINUOUS
10
4.0374825590551184
20
-2.7011825984251967
11
4.0454930314960631
21
-2.7119425196850395
0
LINE
8
BLACK
6
CONTINUOUS
10
4.0454930314960631
20
-2.7119425196850395
11
4.0546985039370078
21
-2.721699724409449
0
LINE
8
BLACK
6
CONTINUOUS
10
4.0546985039370078
20
-2.721699724409449
11
4.0649744488188979
21
-2.7303222834645671
0
LINE
8
BLACK
6
CONTINUOUS
10
4.0649744488188979
20
-2.7303222834645671
11
4.0761819291338579
21
-2.7376935826771653
0
LINE
8
BLACK
6
CONTINUOUS
10
4.0761819291338579
20
-2.7376935826771653
11
4.0881694094488186
21
-2.743713937007874
0
LINE
8
BLACK
6
CONTINUOUS
10
4.0881694094488186
20
-2.743713937007874
11
4.1007747637795271
21
-2.7483018897637796
0
LINE
8
BLACK
6
CONTINUOUS
10
4.1007747637795271
20
-2.7483018897637796
11
4.1138274803149608
21
-2.7513954330708659
0
LINE
8
BLACK
6
CONTINUOUS
10
4.1138274803149608
20
-2.7513954330708659
11
4.1271511023622045
21
-2.7529527559055116
0
LINE
8
BLACK
6
CONTINUOUS
10
4.1271511023622045
20
-2.7529527559055116
11
4.1405654330708659
21
-2.7529527559055116
0
LINE
8
BLACK
6
CONTINUOUS
10
4.1405654330708659
20
-2.7529527559055116
11
4.1538890551181105
21
-2.7513954330708659
0
LINE
8
BLACK
6
CONTINUOUS
10
4.1538890551181105
20
-2.7513954330708659
11
4.1669417716535433
21
-2.7483018897637796
0
LINE
8
BLACK
6
CONTINUOUS
10
4.1669417716535433
20
-2.7483018897637796
11
4.1795471259842518
21
-2.743713937007874
0
LINE
8
BLACK
6
CONTINUOUS
10
4.1795471259842518
20
-2.743713937007874
11
4.1915346062992125
21
-2.7376935826771653
0
LINE
8
BLACK
6
CONTINUOUS
10
4.1915346062992125
20
-2.7376935826771653
11
4.2027420866141734
21
-2.7303222834645671
0
LINE
8
BLACK
6
CONTINUOUS
10
4.2027420866141734
20
-2.7303222834645671
11
4.2130180314960626
21
-2.721699724409449
0
LINE
8
BLACK
6
CONTINUOUS
10
4.2130180314960626
20
-2.721699724409449
11
4.2222235039370082
21
-2.7119425196850395
0
LINE
8
BLACK
6
CONTINUOUS
10
4.2222235039370082
20
-2.7119425196850395
11
4.2302339763779528
21
-2.7011825984251967
0
LINE
8
BLACK
6
CONTINUOUS
10
4.2302339763779528
20
-2.7011825984251967
11
4.2369411417322835
21
-2.6895654330708663
0
LINE
8
BLACK
6
CONTINUOUS
10
4.2369411417322835
20
-2.6895654330708663
11
4.2422542913385826
21
-2.6772481889763777
0
LINE
8
BLACK
6
CONTINUOUS
10
4.2422542913385826
20
-2.6772481889763777
11
4.2461015748031494
21
-2.6643974409448816
0
LINE
8
BLACK
6
CONTINUOUS
10
4.2461015748031494
20
-2.6643974409448816
11
4.24843094488189
21
-2.6511868897637796
0
LINE
8
BLACK
6
CONTINUOUS
10
4.24843094488189
20
-2.6511868897637796
11
4.249210905511811
21
-2.6377952755905509
0
LINE
8
BLACK
6
CONTINUOUS
10
4.249210905511811
20
-2.6377952755905509
11
4.24843094488189
21
-2.6244036614173227
0
LINE
8
BLACK
6
CONTINUOUS
10
4.24843094488189
20
-2.6244036614173227
11
4.2461015748031494
21
-2.6111931102362202
0
LINE
8
BLACK
6
CONTINUOUS
10
4.2461015748031494
20
-2.6111931102362202
11
4.2422542913385826
21
-2.5983423622047241
0
LINE
8
BLACK
6
CONTINUOUS
10
4.2422542913385826
20
-2.5983423622047241
11
4.2369411417322835
21
-2.5860251181102361
0
LINE
8
BLACK
6
CONTINUOUS
10
4.2369411417322835
20
-2.5860251181102361
11
4.2302339763779528
21
-2.5744079527559056
0
LINE
8
BLACK
6
CONTINUOUS
10
4.2302339763779528
20
-2.5744079527559056
11
4.2222235039370082
21
-2.5636480314960628
0
LINE
8
BLACK
6
CONTINUOUS
10
4.2222235039370082
20
-2.5636480314960628
11
4.2130180314960626
21
-2.5538908267716534
0
LINE
8
BLACK
6
CONTINUOUS
10
4.2130180314960626
20
-2.5538908267716534
11
4.2027420866141734
21
-2.5452682677165352
0
LINE
8
BLACK
6
CONTINUOUS
10
4.2027420866141734
20
-2.5452682677165352
11
4.1915346062992125
21
-2.537896968503937
0
LINE
8
BLACK
6
CONTINUOUS
10
4.1915346062992125
20
-2.537896968503937
11
4.1795471259842518
21
-2.5318766141732283
0
LINE
8
BLACK
6
CONTINUOUS
10
4.1795471259842518
20
-2.5318766141732283
11
4.1669417716535433
21
-2.5272886614173227
0
LINE
8
BLACK
6
CONTINUOUS
10
4.1669417716535433
20
-2.5272886614173227
11
4.1538890551181105
21
-2.524195118110236
0
LINE
8
BLACK
6
CONTINUOUS
10
4.1538890551181105
20
-2.524195118110236
11
4.1405654330708659
21
-2.5226377952755903
0
LINE
8
BLACK
6
CONTINUOUS
10
4.1405654330708659
20
-2.5226377952755903
11
4.1271511023622045
21
-2.5226377952755903
0
LINE
8
BLACK
6
CONTINUOUS
10
4.1271511023622045
20
-2.5226377952755903
11
4.1138274803149608
21
-2.524195118110236
0
LINE
8
BLACK
6
CONTINUOUS
10
4.1138274803149608
20
-2.524195118110236
11
4.1007747637795271
21
-2.5272886614173227
0
LINE
8
BLACK
6
CONTINUOUS
10
4.1007747637795271
20
-2.5272886614173227
11
4.0881694094488186
21
-2.5318766141732283
0
LINE
8
BLACK
6
CONTINUOUS
10
4.0881694094488186
20
-2.5318766141732283
11
4.0761819291338579
21
-2.537896968503937
0
LINE
8
BLACK
6
CONTINUOUS
10
4.0761819291338579
20
-2.537896968503937
11
4.0649744488188979
21
-2.5452682677165352
0
LINE
8
BLACK
6
CONTINUOUS
10
4.0649744488188979
20
-2.5452682677165352
11
4.0546985039370078
21
-2.5538908267716534
0
LINE
8
BLACK
6
CONTINUOUS
10
4.0546985039370078
20
-2.5538908267716534
11
4.0454930314960631
21
-2.5636480314960628
0
LINE
8
BLACK
6
CONTINUOUS
10
4.0454930314960631
20
-2.5636480314960628
11
4.0374825590551184
21
-2.5744079527559056
0
LINE
8
BLACK
6
CONTINUOUS
10
4.0374825590551184
20
-2.5744079527559056
11
4.0307753937007877
21
-2.5860251181102361
0
LINE
8
BLACK
6
CONTINUOUS
10
4.0307753937007877
20
-2.5860251181102361
11
4.0254622440944878
21
-2.5983423622047241
0
LINE
8
BLACK
6
CONTINUOUS
10
4.0254622440944878
20
-2.5983423622047241
11
4.021614960629921
21
-2.6111931102362202
0
LINE
8
BLACK
6
CONTINUOUS
10
4.021614960629921
20
-2.6111931102362202
11
4.0192855905511813
21
-2.6244036614173227
0
LINE
8
BLACK
6
CONTINUOUS
10
4.0192855905511813
20
-2.6244036614173227
11
4.0185056299212594
21
-2.6377952755905509
0
LINE
8
BLACK
6
CONTINUOUS
10
4.0185056299212594
20
-2.6377952755905509
11
4.0192855905511813
21
-2.6511868897637796
0
LINE
8
BLACK
6
CONTINUOUS
10
7.100168937007874
20
-2.5174935039370077
11
7.1135532283464569
21
-2.5197675984251968
0
LINE
8
BLACK
6
CONTINUOUS
10
7.1135532283464569
20
-2.5197675984251968
11
7.1265987401574797
21
-2.5235259448818899
0
LINE
8
BLACK
6
CONTINUOUS
10
7.1265987401574797
20
-2.5235259448818899
11
7.1391414173228345
21
-2.5287212992125983
0
LINE
8
BLACK
6
CONTINUOUS
10
7.1391414173228345
20
-2.5287212992125983
11
7.1510235826771655
21
-2.5352883070866139
0
LINE
8
BLACK
6
CONTINUOUS
10
7.1510235826771655
20
-2.5352883070866139
11
7.1620957086614174
21
-2.5431444094488187
0
LINE
8
BLACK
6
CONTINUOUS
10
7.1620957086614174
20
-2.5431444094488187
11
7.1722186220472439
21
-2.5521908267716533
0
LINE
8
BLACK
6
CONTINUOUS
10
7.1722186220472439
20
-2.5521908267716533
11
7.1812650393700785
21
-2.5623137401574803
0
LINE
8
BLACK
6
CONTINUOUS
10
7.1812650393700785
20
-2.5623137401574803
11
7.1891211417322829
21
-2.5733858661417321
0
LINE
8
BLACK
6
CONTINUOUS
10
7.1891211417322829
20
-2.5733858661417321
11
7.1956881496062994
21
-2.5852680314960628
0
LINE
8
BLACK
6
CONTINUOUS
10
7.1956881496062994
20
-2.5852680314960628
11
7.2008835039370078
21
-2.5978107086614171
0
LINE
8
BLACK
6
CONTINUOUS
10
7.2008835039370078
20
-2.5978107086614171
11
7.2046418503937009
21
-2.6108562204724408
0
LINE
8
BLACK
6
CONTINUOUS
10
7.2046418503937009
20
-2.6108562204724408
11
7.2069159448818896
21
-2.6242405118110237
0
LINE
8
BLACK
6
CONTINUOUS
10
7.2069159448818896
20
-2.6242405118110237
11
7.2076771653543306
21
-2.6377952755905509
0
LINE
8
BLACK
6
CONTINUOUS
10
7.2076771653543306
20
-2.6377952755905509
11
7.2069159448818896
21
-2.6513500393700786
0
LINE
8
BLACK
6
CONTINUOUS
10
7.2069159448818896
20
-2.6513500393700786
11
7.2046418503937009
21
-2.6647343307086615
0
LINE
8
BLACK
6
CONTINUOUS
10
7.2046418503937009
20
-2.6647343307086615
11
7.2008835039370078
21
-2.6777798425196848
0
LINE
8
BLACK
6
CONTINUOUS
10
7.2008835039370078
20
-2.6777798425196848
11
7.1956881496062994
21
-2.6903225196850391
0
LINE
8
BLACK
6
CONTINUOUS
10
7.1956881496062994
20
-2.6903225196850391
11
7.1891211417322829
21
-2.7022046850393702
0
LINE
8
BLACK
6
CONTINUOUS
10
7.1891211417322829
20
-2.7022046850393702
11
7.1812650393700785
21
-2.7132768110236221
0
LINE
8
BLACK
6
CONTINUOUS
10
7.1812650393700785
20
-2.7132768110236221
11
7.1722186220472439
21
-2.7233997244094486
0
LINE
8
BLACK
6
CONTINUOUS
10
7.1722186220472439
20
-2.7233997244094486
11
7.1620957086614174
21
-2.7324461417322836
0
LINE
8
BLACK
6
CONTINUOUS
10
7.1620957086614174
20
-2.7324461417322836
11
7.1510235826771655
21
-2.740302244094488
0
LINE
8
BLACK
6
CONTINUOUS
10
7.1510235826771655
20
-2.740302244094488
11
7.1391414173228345
21
-2.7468692519685041
0
LINE
8
BLACK
6
CONTINUOUS
10
7.1391414173228345
20
-2.7468692519685041
11
7.1265987401574797
21
-2.7520646062992125
0
LINE
8
BLACK
6
CONTINUOUS
10
7.1265987401574797
20
-2.7520646062992125
11
7.1135532283464569
21
-2.7558229527559055
0
LINE
8
BLACK
6
CONTINUOUS
10
7.1135532283464569
20
-2.7558229527559055
11
7.100168937007874
21
-2.7580970472440942
0
LINE
8
BLACK
6
CONTINUOUS
10
7.100168937007874
20
-2.7580970472440942
11
7.0866141732283463
21
-2.7588582677165352
0
LINE
8
BLACK
6
CONTINUOUS
10
7.0866141732283463
20
-2.7588582677165352
11
7.0730594094488186
21
-2.7580970472440942
0
LINE
8
BLACK
6
CONTINUOUS
10
7.0730594094488186
20
-2.7580970472440942
11
7.0596751181102357
21
-2.7558229527559055
0
LINE
8
BLACK
6
CONTINUOUS
10
7.0596751181102357
20
-2.7558229527559055
11
7.0466296062992129
21
-2.7520646062992125
0
LINE
8
BLACK
6
CONTINUOUS
10
7.0466296062992129
20
-2.7520646062992125
11
7.0340869291338581
21
-2.7468692519685041
0
LINE
8
BLACK
6
CONTINUOUS
10
7.0340869291338581
20
-2.7468692519685041
11
7.0222047637795271
21
-2.740302244094488
0
LINE
8
BLACK
6
CONTINUOUS
10
7.0222047637795271
20
-2.740302244094488
11
7.0111326377952752
21
-2.7324461417322836
0
LINE
8
BLACK
6
CONTINUOUS
10
7.0111326377952752
20
-2.7324461417322836
11
7.0010097244094487
21
-2.7233997244094486
0
LINE
8
BLACK
6
CONTINUOUS
10
7.0010097244094487
20
-2.7233997244094486
11
6.9919633070866141
21
-2.7132768110236221
0
LINE
8
BLACK
6
CONTINUOUS
10
6.9919633070866141
20
-2.7132768110236221
11
6.9841072047244097
21
-2.7022046850393702
0
LINE
8
BLACK
6
CONTINUOUS
10
6.9841072047244097
20
-2.7022046850393702
11
6.9775401968503932
21
-2.6903225196850391
0
LINE
8
BLACK
6
CONTINUOUS
10
6.9775401968503932
20
-2.6903225196850391
11
6.9723448425196848
21
-2.6777798425196848
0
LINE
8
BLACK
6
CONTINUOUS
10
6.9723448425196848
20
-2.6777798425196848
11
6.9685864960629917
21
-2.6647343307086615
0
LINE
8
BLACK
6
CONTINUOUS
10
6.9685864960629917
20
-2.6647343307086615
11
6.966312401574803
21
-2.6513500393700786
0
LINE
8
BLACK
6
CONTINUOUS
10
6.966312401574803
20
-2.6513500393700786
11
6.965551181102362
21
-2.6377952755905509
0
LINE
8
BLACK
6
CONTINUOUS
10
6.965551181102362
20
-2.6377952755905509
11
6.966312401574803
21
-2.6242405118110237
0
LINE
8
BLACK
6
CONTINUOUS
10
6.966312401574803
20
-2.6242405118110237
11
6.9685864960629917
21
-2.6108562204724408
0
LINE
8
BLACK
6
CONTINUOUS
10
6.9685864960629917
20
-2.6108562204724408
11
6.9723448425196848
21
-2.5978107086614171
0
LINE
8
BLACK
6
CONTINUOUS
10
6.9723448425196848
20
-2.5978107086614171
11
6.9775401968503932
21
-2.5852680314960628
0
LINE
8
BLACK
6
CONTINUOUS
10
6.9775401968503932
20
-2.5852680314960628
11
6.9841072047244097
21
-2.5733858661417321
0
LINE
8
BLACK
6
CONTINUOUS
10
6.9841072047244097
20
-2.5733858661417321
11
6.9919633070866141
21
-2.5623137401574803
0
LINE
8
BLACK
6
CONTINUOUS
10
6.9919633070866141
20
-2.5623137401574803
11
7.0010097244094487
21
-2.5521908267716533
0
LINE
8
BLACK
6
CONTINUOUS
10
7.0010097244094487
20
-2.5521908267716533
11
7.0111326377952752
21
-2.5431444094488187
0
LINE
8
BLACK
6
CONTINUOUS
10
7.0111326377952752
20
-2.5431444094488187
11
7.0222047637795271
21
-2.5352883070866139
0
LINE
8
BLACK
6
CONTINUOUS
10
7.0222047637795271
20
-2.5352883070866139
11
7.0340869291338581
21
-2.5287212992125983
0
LINE
8
BLACK
6
CONTINUOUS
10
7.0340869291338581
20
-2.5287212992125983
11
7.0466296062992129
21
-2.5235259448818899
0
LINE
8
BLACK
6
CONTINUOUS
10
7.0466296062992129
20
-2.5235259448818899
11
7.0596751181102357
21
-2.5197675984251968
0
LINE
8
BLACK
6
CONTINUOUS
10
7.0596751181102357
20
-2.5197675984251968
11
7.0730594094488186
21
-2.5174935039370077
0
LINE
8
BLACK
6
CONTINUOUS
10
7.0730594094488186
20
-2.5174935039370077
11
7.0866141732283463
21
-2.5167322834645667
0
LINE
8
BLACK
6
CONTINUOUS
10
7.0866141732283463
20
-2.5167322834645667
11
7.100168937007874
21
-2.5174935039370077
0
LINE
8
BLACK
6
CONTINUOUS
10
6.9720414960629924
20
-2.6511868897637796
11
6.9743708661417321
21
-2.6643974409448816
0
LINE
8
BLACK
6
CONTINUOUS
10
6.9743708661417321
20
-2.6643974409448816
11
6.9782181496062989
21
-2.6772481889763777
0
LINE
8
BLACK
6
CONTINUOUS
10
6.9782181496062989
20
-2.6772481889763777
11
6.983531299212598
21
-2.6895654330708663
0
LINE
8
BLACK
6
CONTINUOUS
10
6.983531299212598
20
-2.6895654330708663
11
6.9902384645669287
21
-2.7011825984251967
0
LINE
8
BLACK
6
CONTINUOUS
10
6.9902384645669287
20
-2.7011825984251967
11
6.9982489370078742
21
-2.7119425196850395
0
LINE
8
BLACK
6
CONTINUOUS
10
6.9982489370078742
20
-2.7119425196850395
11
7.0074544094488189
21
-2.721699724409449
0
LINE
8
BLACK
6
CONTINUOUS
10
7.0074544094488189
20
-2.721699724409449
11
7.0177303543307081
21
-2.7303222834645671
0
LINE
8
BLACK
6
CONTINUOUS
10
7.0177303543307081
20
-2.7303222834645671
11
7.028937834645669
21
-2.7376935826771653
0
LINE
8
BLACK
6
CONTINUOUS
10
7.028937834645669
20
-2.7376935826771653
11
7.0409253149606297
21
-2.743713937007874
0
LINE
8
BLACK
6
CONTINUOUS
10
7.0409253149606297
20
-2.743713937007874
11
7.0535306692913382
21
-2.7483018897637796
0
LINE
8
BLACK
6
CONTINUOUS
10
7.0535306692913382
20
-2.7483018897637796
11
7.0665833858267719
21
-2.7513954330708659
0
LINE
8
BLACK
6
CONTINUOUS
10
7.0665833858267719
20
-2.7513954330708659
11
7.0799070078740156
21
-2.7529527559055116
0
LINE
8
BLACK
6
CONTINUOUS
10
7.0799070078740156
20
-2.7529527559055116
11
7.093321338582677
21
-2.7529527559055116
0
LINE
8
BLACK
6
CONTINUOUS
10
7.093321338582677
20
-2.7529527559055116
11
7.1066449606299207
21
-2.7513954330708659
0
LINE
8
BLACK
6
CONTINUOUS
10
7.1066449606299207
20
-2.7513954330708659
11
7.1196976771653544
21
-2.7483018897637796
0
LINE
8
BLACK
6
CONTINUOUS
10
7.1196976771653544
20
-2.7483018897637796
11
7.1323030314960629
21
-2.743713937007874
0
LINE
8
BLACK
6
CONTINUOUS
10
7.1323030314960629
20
-2.743713937007874
11
7.1442905118110236
21
-2.7376935826771653
0
LINE
8
BLACK
6
CONTINUOUS
10
7.1442905118110236
20
-2.7376935826771653
11
7.1554979921259845
21
-2.7303222834645671
0
LINE
8
BLACK
6
CONTINUOUS
10
7.1554979921259845
20
-2.7303222834645671
11
7.1657739370078737
21
-2.721699724409449
0
LINE
8
BLACK
6
CONTINUOUS
10
7.1657739370078737
20
-2.721699724409449
11
7.1749794094488184
21
-2.7119425196850395
0
LINE
8
BLACK
6
CONTINUOUS
10
7.1749794094488184
20
-2.7119425196850395
11
7.182989881889764
21
-2.7011825984251967
0
LINE
8
BLACK
6
CONTINUOUS
10
7.182989881889764
20
-2.7011825984251967
11
7.1896970472440946
21
-2.6895654330708663
0
LINE
8
BLACK
6
CONTINUOUS
10
7.1896970472440946
20
-2.6895654330708663
11
7.1950101968503937
21
-2.6772481889763777
0
LINE
8
BLACK
6
CONTINUOUS
10
7.1950101968503937
20
-2.6772481889763777
11
7.1988574803149605
21
-2.6643974409448816
0
LINE
8
BLACK
6
CONTINUOUS
10
7.1988574803149605
20
-2.6643974409448816
11
7.2011868503937002
21
-2.6511868897637796
0
LINE
8
BLACK
6
CONTINUOUS
10
7.2011868503937002
20
-2.6511868897637796
11
7.2019668110236221
21
-2.6377952755905509
0
LINE
8
BLACK
6
CONTINUOUS
10
7.2019668110236221
20
-2.6377952755905509
11
7.2011868503937002
21
-2.6244036614173227
0
LINE
8
BLACK
6
CONTINUOUS
10
7.2011868503937002
20
-2.6244036614173227
11
7.1988574803149605
21
-2.6111931102362202
0
LINE
8
BLACK
6
CONTINUOUS
10
7.1988574803149605
20
-2.6111931102362202
11
7.1950101968503937
21
-2.5983423622047241
0
LINE
8
BLACK
6
CONTINUOUS
10
7.1950101968503937
20
-2.5983423622047241
11
7.1896970472440946
21
-2.5860251181102361
0
LINE
8
BLACK
6
CONTINUOUS
10
7.1896970472440946
20
-2.5860251181102361
11
7.182989881889764
21
-2.5744079527559056
0
LINE
8
BLACK
6
CONTINUOUS
10
7.182989881889764
20
-2.5744079527559056
11
7.1749794094488184
21
-2.5636480314960628
0
LINE
8
BLACK
6
CONTINUOUS
10
7.1749794094488184
20
-2.5636480314960628
11
7.1657739370078737
21
-2.5538908267716534
0
LINE
8
BLACK
6
CONTINUOUS
10
7.1657739370078737
20
-2.5538908267716534
11
7.1554979921259845
21
-2.5452682677165352
0
LINE
8
BLACK
6
CONTINUOUS
10
7.1554979921259845
20
-2.5452682677165352
11
7.1442905118110236
21
-2.537896968503937
0
LINE
8
BLACK
6
CONTINUOUS
10
7.1442905118110236
20
-2.537896968503937
11
7.1323030314960629
21
-2.5318766141732283
0
LINE
8
BLACK
6
CONTINUOUS
10
7.1323030314960629
20
-2.5318766141732283
11
7.1196976771653544
21
-2.5272886614173227
0
LINE
8
BLACK
6
CONTINUOUS
10
7.1196976771653544
20
-2.5272886614173227
11
7.1066449606299207
21
-2.524195118110236
0
LINE
8
BLACK
6
CONTINUOUS
10
7.1066449606299207
20
-2.524195118110236
11
7.093321338582677
21
-2.5226377952755903
0
LINE
8
BLACK
6
CONTINUOUS
10
7.093321338582677
20
-2.5226377952755903
11
7.0799070078740156
21
-2.5226377952755903
0
LINE
8
BLACK
6
CONTINUOUS
10
7.0799070078740156
20
-2.5226377952755903
11
7.0665833858267719
21
-2.524195118110236
0
LINE
8
BLACK
6
CONTINUOUS
10
7.0665833858267719
20
-2.524195118110236
11
7.0535306692913382
21
-2.5272886614173227
0
LINE
8
BLACK
6
CONTINUOUS
10
7.0535306692913382
20
-2.5272886614173227
11
7.0409253149606297
21
-2.5318766141732283
0
LINE
8
BLACK
6
CONTINUOUS
10
7.0409253149606297
20
-2.5318766141732283
11
7.028937834645669
21
-2.537896968503937
0
LINE
8
BLACK
6
CONTINUOUS
10
7.028937834645669
20
-2.537896968503937
11
7.0177303543307081
21
-2.5452682677165352
0
LINE
8
BLACK
6
CONTINUOUS
10
7.0177303543307081
20
-2.5452682677165352
11
7.0074544094488189
21
-2.5538908267716534
0
LINE
8
BLACK
6
CONTINUOUS
10
7.0074544094488189
20
-2.5538908267716534
11
6.9982489370078742
21
-2.5636480314960628
0
LINE
8
BLACK
6
CONTINUOUS
10
6.9982489370078742
20
-2.5636480314960628
11
6.9902384645669287
21
-2.5744079527559056
0
LINE
8
BLACK
6
CONTINUOUS
10
6.9902384645669287
20
-2.5744079527559056
11
6.983531299212598
21
-2.5860251181102361
0
LINE
8
BLACK
6
CONTINUOUS
10
6.983531299212598
20
-2.5860251181102361
11
6.9782181496062989
21
-2.5983423622047241
0
LINE
8
BLACK
6
CONTINUOUS
10
6.9782181496062989
20
-2.5983423622047241
11
6.9743708661417321
21
-2.6111931102362202
0
LINE
8
BLACK
6
CONTINUOUS
10
6.9743708661417321
20
-2.6111931102362202
11
6.9720414960629924
21
-2.6244036614173227
0
LINE
8
BLACK
6
CONTINUOUS
10
6.9720414960629924
20
-2.6244036614173227
11
6.9712615354330705
21
-2.6377952755905509
0
LINE
8
BLACK
6
CONTINUOUS
10
6.9712615354330705
20
-2.6377952755905509
11
6.9720414960629924
21
-2.6511868897637796
0
LINE
8
BLACK
6
CONTINUOUS
10
4.698992125984252
20
-2.4088012992125982
11
4.7106049606299214
21
-2.4117829921259841
0
LINE
8
BLACK
6
CONTINUOUS
10
4.7106049606299214
20
-2.4117829921259841
11
4.7217525590551181
21
-2.4161966141732285
0
LINE
8
BLACK
6
CONTINUOUS
10
4.7217525590551181
20
-2.4161966141732285
11
4.7322590551181101
21
-2.4219726377952755
0
LINE
8
BLACK
6
CONTINUOUS
10
4.7322590551181101
20
-2.4219726377952755
11
4.7419587795275593
21
-2.4290198818897637
0
LINE
8
BLACK
6
CONTINUOUS
10
4.7419587795275593
20
-2.4290198818897637
11
4.7506987795275588
21
-2.437227283464567
0
LINE
8
BLACK
6
CONTINUOUS
10
4.7506987795275588
20
-2.437227283464567
11
4.7583411811023621
21
-2.4464653937007874
0
LINE
8
BLACK
6
CONTINUOUS
10
4.7583411811023621
20
-2.4464653937007874
11
4.7647655118110235
21
-2.4565884645669289
0
LINE
8
BLACK
6
CONTINUOUS
10
4.7647655118110235
20
-2.4565884645669289
11
4.7698703937007876
21
-2.467436929133858
0
LINE
8
BLACK
6
CONTINUOUS
10
4.7698703937007876
20
-2.467436929133858
11
4.7735753543307089
21
-2.4788396456692912
0
LINE
8
BLACK
6
CONTINUOUS
10
4.7735753543307089
20
-2.4788396456692912
11
4.7758219685039371
21
-2.4906168110236222
0
LINE
8
BLACK
6
CONTINUOUS
10
4.7758219685039371
20
-2.4906168110236222
11
4.7765748031496065
21
-2.5025826771653543
0
LINE
8
BLACK
6
CONTINUOUS
10
4.7765748031496065
20
-2.5025826771653543
11
4.7758219685039371
21
-2.5145485433070864
0
LINE
8
BLACK
6
CONTINUOUS
10
4.7758219685039371
20
-2.5145485433070864
11
4.7735753543307089
21
-2.5263257086614175
0
LINE
8
BLACK
6
CONTINUOUS
10
4.7735753543307089
20
-2.5263257086614175
11
4.7698703937007876
21
-2.5377284251968502
0
LINE
8
BLACK
6
CONTINUOUS
10
4.7698703937007876
20
-2.5377284251968502
11
4.7647655118110235
21
-2.5485768897637793
0
LINE
8
BLACK
6
CONTINUOUS
10
4.7647655118110235
20
-2.5485768897637793
11
4.7583411811023621
21
-2.5586999606299212
0
LINE
8
BLACK
6
CONTINUOUS
10
4.7583411811023621
20
-2.5586999606299212
11
4.7506987795275588
21
-2.5679380708661417
0
LINE
8
BLACK
6
CONTINUOUS
10
4.7506987795275588
20
-2.5679380708661417
11
4.7419587795275593
21
-2.5761454724409449
0
LINE
8
BLACK
6
CONTINUOUS
10
4.7419587795275593
20
-2.5761454724409449
11
4.7322590551181101
21
-2.5831927165354331
0
LINE
8
BLACK
6
CONTINUOUS
10
4.7322590551181101
20
-2.5831927165354331
11
4.7217525590551181
21
-2.5889687401574801
0
LINE
8
BLACK
6
CONTINUOUS
10
4.7217525590551181
20
-2.5889687401574801
11
4.7106049606299214
21
-2.5933823622047245
0
LINE
8
BLACK
6
CONTINUOUS
10
4.7106049606299214
20
-2.5933823622047245
11
4.698992125984252
21
-2.59636405511811
0
LINE
8
BLACK
6
CONTINUOUS
10
4.698992125984252
20
-2.59636405511811
11
4.687097125984252
21
-2.5978667322834643
0
LINE
8
BLACK
6
CONTINUOUS
10
4.687097125984252
20
-2.5978667322834643
11
4.6751075984251971
21
-2.5978667322834643
0
LINE
8
BLACK
6
CONTINUOUS
10
4.6751075984251971
20
-2.5978667322834643
11
4.6632125984251971
21
-2.59636405511811
0
LINE
8
BLACK
6
CONTINUOUS
10
4.6632125984251971
20
-2.59636405511811
11
4.6515997637795277
21
-2.5933823622047245
0
LINE
8
BLACK
6
CONTINUOUS
10
4.6515997637795277
20
-2.5933823622047245
11
4.6404521653543309
21
-2.5889687401574801
0
LINE
8
BLACK
6
CONTINUOUS
10
4.6404521653543309
20
-2.5889687401574801
11
4.6299456692913381
21
-2.5831927165354331
0
LINE
8
BLACK
6
CONTINUOUS
10
4.6299456692913381
20
-2.5831927165354331
11
4.6202459448818898
21
-2.5761454724409449
0
LINE
8
BLACK
6
CONTINUOUS
10
4.6202459448818898
20
-2.5761454724409449
11
4.6115059448818894
21
-2.5679380708661417
0
LINE
8
BLACK
6
CONTINUOUS
10
4.6115059448818894
20
-2.5679380708661417
11
4.6038635433070869
21
-2.5586999606299212
0
LINE
8
BLACK
6
CONTINUOUS
10
4.6038635433070869
20
-2.5586999606299212
11
4.5974392125984247
21
-2.5485768897637793
0
LINE
8
BLACK
6
CONTINUOUS
10
4.5974392125984247
20
-2.5485768897637793
11
4.5923343307086615
21
-2.5377284251968502
0
LINE
8
BLACK
6
CONTINUOUS
10
4.5923343307086615
20
-2.5377284251968502
11
4.5886293700787402
21
-2.5263257086614175
0
LINE
8
BLACK
6
CONTINUOUS
10
4.5886293700787402
20
-2.5263257086614175
11
4.5863827559055119
21
-2.5145485433070864
0
LINE
8
BLACK
6
CONTINUOUS
10
4.5863827559055119
20
-2.5145485433070864
11
4.5856299212598426
21
-2.5025826771653543
0
LINE
8
BLACK
6
CONTINUOUS
10
4.5856299212598426
20
-2.5025826771653543
11
4.5863827559055119
21
-2.4906168110236222
0
LINE
8
BLACK
6
CONTINUOUS
10
4.5863827559055119
20
-2.4906168110236222
11
4.5886293700787402
21
-2.4788396456692912
0
LINE
8
BLACK
6
CONTINUOUS
10
4.5886293700787402
20
-2.4788396456692912
11
4.5923343307086615
21
-2.467436929133858
0
LINE
8
BLACK
6
CONTINUOUS
10
4.5923343307086615
20
-2.467436929133858
11
4.5974392125984247
21
-2.4565884645669289
0
LINE
8
BLACK
6
CONTINUOUS
10
4.5974392125984247
20
-2.4565884645669289
11
4.6038635433070869
21
-2.4464653937007874
0
LINE
8
BLACK
6
CONTINUOUS
10
4.6038635433070869
20
-2.4464653937007874
11
4.6115059448818894
21
-2.437227283464567
0
LINE
8
BLACK
6
CONTINUOUS
10
4.6115059448818894
20
-2.437227283464567
11
4.6202459448818898
21
-2.4290198818897637
0
LINE
8
BLACK
6
CONTINUOUS
10
4.6202459448818898
20
-2.4290198818897637
11
4.6299456692913381
21
-2.4219726377952755
0
LINE
8
BLACK
6
CONTINUOUS
10
4.6299456692913381
20
-2.4219726377952755
11
4.6404521653543309
21
-2.4161966141732285
0
LINE
8
BLACK
6
CONTINUOUS
10
4.6404521653543309
20
-2.4161966141732285
11
4.6515997637795277
21
-2.4117829921259841
0
LINE
8
BLACK
6
CONTINUOUS
10
4.6515997637795277
20
-2.4117829921259841
11
4.6632125984251971
21
-2.4088012992125982
0
LINE
8
BLACK
6
CONTINUOUS
10
4.6632125984251971
20
-2.4088012992125982
11
4.6751075984251971
21
-2.4072986220472439
0
LINE
8
BLACK
6
CONTINUOUS
10
4.6751075984251971
20
-2.4072986220472439
11
4.687097125984252
21
-2.4072986220472439
0
LINE
8
BLACK
6
CONTINUOUS
10
4.687097125984252
20
-2.4072986220472439
11
4.698992125984252
21
-2.4088012992125982
0
LINE
8
BLACK
6
CONTINUOUS
10
4.5921111811023625
20
-2.5142985826771653
11
4.5944017322834645
21
-2.5258140551181101
0
LINE
8
BLACK
6
CONTINUOUS
10
4.5944017322834645
20
-2.5258140551181101
11
4.5981757874015745
21
-2.5369320078740158
0
LINE
8
BLACK
6
CONTINUOUS
10
4.5981757874015745
20
-2.5369320078740158
11
4.6033687007874011
21
-2.5474622440944881
0
LINE
8
BLACK
6
CONTINUOUS
10
4.6033687007874011
20
-2.5474622440944881
11
4.6098916929133855
21
-2.5572245669291336
0
LINE
8
BLACK
6
CONTINUOUS
10
4.6098916929133855
20
-2.5572245669291336
11
4.6176331102362207
21
-2.5660519291338582
0
LINE
8
BLACK
6
CONTINUOUS
10
4.6176331102362207
20
-2.5660519291338582
11
4.6264604724409448
21
-2.5737933464566929
0
LINE
8
BLACK
6
CONTINUOUS
10
4.6264604724409448
20
-2.5737933464566929
11
4.6362227952755903
21
-2.5803163385826773
0
LINE
8
BLACK
6
CONTINUOUS
10
4.6362227952755903
20
-2.5803163385826773
11
4.646753031496063
21
-2.5855092519685039
0
LINE
8
BLACK
6
CONTINUOUS
10
4.646753031496063
20
-2.5855092519685039
11
4.6578709842519688
21
-2.5892833070866139
0
LINE
8
BLACK
6
CONTINUOUS
10
4.6578709842519688
20
-2.5892833070866139
11
4.6693864566929131
21
-2.5915738582677164
0
LINE
8
BLACK
6
CONTINUOUS
10
4.6693864566929131
20
-2.5915738582677164
11
4.6811023622047241
21
-2.5923417716535431
0
LINE
8
BLACK
6
CONTINUOUS
10
4.6811023622047241
20
-2.5923417716535431
11
4.6928182677165351
21
-2.5915738582677164
0
LINE
8
BLACK
6
CONTINUOUS
10
4.6928182677165351
20
-2.5915738582677164
11
4.7043337401574803
21
-2.5892833070866139
0
LINE
8
BLACK
6
CONTINUOUS
10
4.7043337401574803
20
-2.5892833070866139
11
4.7154516929133861
21
-2.5855092519685039
0
LINE
8
BLACK
6
CONTINUOUS
10
4.7154516929133861
20
-2.5855092519685039
11
4.7259819291338578
21
-2.5803163385826773
0
LINE
8
BLACK
6
CONTINUOUS
10
4.7259819291338578
20
-2.5803163385826773
11
4.7357442519685042
21
-2.5737933464566929
0
LINE
8
BLACK
6
CONTINUOUS
10
4.7357442519685042
20
-2.5737933464566929
11
4.7445716141732284
21
-2.5660519291338582
0
LINE
8
BLACK
6
CONTINUOUS
10
4.7445716141732284
20
-2.5660519291338582
11
4.7523130314960627
21
-2.5572245669291336
0
LINE
8
BLACK
6
CONTINUOUS
10
4.7523130314960627
20
-2.5572245669291336
11
4.7588360236220471
21
-2.5474622440944881
0
LINE
8
BLACK
6
CONTINUOUS
10
4.7588360236220471
20
-2.5474622440944881
11
4.7640289370078737
21
-2.5369320078740158
0
LINE
8
BLACK
6
CONTINUOUS
10
4.7640289370078737
20
-2.5369320078740158
11
4.7678029921259846
21
-2.5258140551181101
0
LINE
8
BLACK
6
CONTINUOUS
10
4.7678029921259846
20
-2.5258140551181101
11
4.7700935433070866
21
-2.5142985826771653
0
LINE
8
BLACK
6
CONTINUOUS
10
4.7700935433070866
20
-2.5142985826771653
11
4.7708614566929128
21
-2.5025826771653543
0
LINE
8
BLACK
6
CONTINUOUS
10
4.7708614566929128
20
-2.5025826771653543
11
4.7700935433070866
21
-2.4908667716535433
0
LINE
8
BLACK
6
CONTINUOUS
10
4.7700935433070866
20
-2.4908667716535433
11
4.7678029921259846
21
-2.4793512992125986
0
LINE
8
BLACK
6
CONTINUOUS
10
4.7678029921259846
20
-2.4793512992125986
11
4.7640289370078737
21
-2.4682333464566928
0
LINE
8
BLACK
6
CONTINUOUS
10
4.7640289370078737
20
-2.4682333464566928
11
4.7588360236220471
21
-2.4577031496062993
0
LINE
8
BLACK
6
CONTINUOUS
10
4.7588360236220471
20
-2.4577031496062993
11
4.7523130314960627
21
-2.4479407874015746
0
LINE
8
BLACK
6
CONTINUOUS
10
4.7523130314960627
20
-2.4479407874015746
11
4.7445716141732284
21
-2.4391134251968505
0
LINE
8
BLACK
6
CONTINUOUS
10
4.7445716141732284
20
-2.4391134251968505
11
4.7357442519685042
21
-2.4313720078740158
0
LINE
8
BLACK
6
CONTINUOUS
10
4.7357442519685042
20
-2.4313720078740158
11
4.7259819291338578
21
-2.4248490157480314
0
LINE
8
BLACK
6
CONTINUOUS
10
4.7259819291338578
20
-2.4248490157480314
11
4.7154516929133861
21
-2.4196561023622047
0
LINE
8
BLACK
6
CONTINUOUS
10
4.7154516929133861
20
-2.4196561023622047
11
4.7043337401574803
21
-2.4158820472440943
0
LINE
8
BLACK
6
CONTINUOUS
10
4.7043337401574803
20
-2.4158820472440943
11
4.6928182677165351
21
-2.4135914960629923
0
LINE
8
BLACK
6
CONTINUOUS
10
4.6928182677165351
20
-2.4135914960629923
11
4.6811023622047241
21
-2.4128235826771651
0
LINE
8
BLACK
6
CONTINUOUS
10
4.6811023622047241
20
-2.4128235826771651
11
4.6693864566929131
21
-2.4135914960629923
0
LINE
8
BLACK
6
CONTINUOUS
10
4.6693864566929131
20
-2.4135914960629923
11
4.6578709842519688
21
-2.4158820472440943
0
LINE
8
BLACK
6
CONTINUOUS
10
4.6578709842519688
20
-2.4158820472440943
11
4.646753031496063
21
-2.4196561023622047
0
LINE
8
BLACK
6
CONTINUOUS
10
4.646753031496063
20
-2.4196561023622047
11
4.6362228346456691
21
-2.4248490157480314
0
LINE
8
BLACK
6
CONTINUOUS
10
4.6362228346456691
20
-2.4248490157480314
11
4.6264604724409448
21
-2.4313720078740158
0
LINE
8
BLACK
6
CONTINUOUS
10
4.6264604724409448
20
-2.4313720078740158
11
4.6176331102362207
21
-2.4391134251968505
0
LINE
8
BLACK
6
CONTINUOUS
10
4.6176331102362207
20
-2.4391134251968505
11
4.6098916929133855
21
-2.4479407874015746
0
LINE
8
BLACK
6
CONTINUOUS
10
4.6098916929133855
20
-2.4479407874015746
11
4.6033687007874011
21
-2.4577031496062993
0
LINE
8
BLACK
6
CONTINUOUS
10
4.6033687007874011
20
-2.4577031496062993
11
4.5981757874015745
21
-2.4682333464566928
0
LINE
8
BLACK
6
CONTINUOUS
10
4.5981757874015745
20
-2.4682333464566928
11
4.5944017322834645
21
-2.4793512992125986
0
LINE
8
BLACK
6
CONTINUOUS
10
4.5944017322834645
20
-2.4793512992125986
11
4.5921111811023625
21
-2.4908667716535433
0
LINE
8
BLACK
6
CONTINUOUS
10
4.5921111811023625
20
-2.4908667716535433
11
4.5913432677165353
21
-2.5025826771653543
0
LINE
8
BLACK
6
CONTINUOUS
10
4.5913432677165353
20
-2.5025826771653543
11
4.5921111811023625
21
-2.5142985826771653
0
LINE
8
BLACK
6
CONTINUOUS
10
6.6320629921259844
20
-2.4062186220472439
11
6.6436758267716538
21
-2.4092003149606298
0
LINE
8
BLACK
6
CONTINUOUS
10
6.6436758267716538
20
-2.4092003149606298
11
6.6548234251968506
21
-2.4136139370078737
0
LINE
8
BLACK
6
CONTINUOUS
10
6.6548234251968506
20
-2.4136139370078737
11
6.6653299212598425
21
-2.4193899606299212
0
LINE
8
BLACK
6
CONTINUOUS
10
6.6653299212598425
20
-2.4193899606299212
11
6.6750296456692908
21
-2.4264372047244094
0
LINE
8
BLACK
6
CONTINUOUS
10
6.6750296456692908
20
-2.4264372047244094
11
6.6837696456692912
21
-2.4346446062992126
0
LINE
8
BLACK
6
CONTINUOUS
10
6.6837696456692912
20
-2.4346446062992126
11
6.6914120472440946
21
-2.4438827165354331
0
LINE
8
BLACK
6
CONTINUOUS
10
6.6914120472440946
20
-2.4438827165354331
11
6.6978363779527559
21
-2.4540057874015746
0
LINE
8
BLACK
6
CONTINUOUS
10
6.6978363779527559
20
-2.4540057874015746
11
6.7029412598425191
21
-2.4648542519685037
0
LINE
8
BLACK
6
CONTINUOUS
10
6.7029412598425191
20
-2.4648542519685037
11
6.7066462204724404
21
-2.4762569685039368
0
LINE
8
BLACK
6
CONTINUOUS
10
6.7066462204724404
20
-2.4762569685039368
11
6.7088928346456695
21
-2.4880341338582674
0
LINE
8
BLACK
6
CONTINUOUS
10
6.7088928346456695
20
-2.4880341338582674
11
6.709645669291338
21
-2.5
0
LINE
8
BLACK
6
CONTINUOUS
10
6.709645669291338
20
-2.5
11
6.7088928346456695
21
-2.5119658661417321
0
LINE
8
BLACK
6
CONTINUOUS
10
6.7088928346456695
20
-2.5119658661417321
11
6.7066462204724404
21
-2.5237430314960627
0
LINE
8
BLACK
6
CONTINUOUS
10
6.7066462204724404
20
-2.5237430314960627
11
6.7029412598425191
21
-2.5351457480314958
0
LINE
8
BLACK
6
CONTINUOUS
10
6.7029412598425191
20
-2.5351457480314958
11
6.6978363779527559
21
-2.545994212598425
0
LINE
8
BLACK
6
CONTINUOUS
10
6.6978363779527559
20
-2.545994212598425
11
6.6914120472440946
21
-2.5561172834645669
0
LINE
8
BLACK
6
CONTINUOUS
10
6.6914120472440946
20
-2.5561172834645669
11
6.6837696456692912
21
-2.5653553937007874
0
LINE
8
BLACK
6
CONTINUOUS
10
6.6837696456692912
20
-2.5653553937007874
11
6.6750296456692908
21
-2.5735627952755906
0
LINE
8
BLACK
6
CONTINUOUS
10
6.6750296456692908
20
-2.5735627952755906
11
6.6653299212598425
21
-2.5806100393700788
0
LINE
8
BLACK
6
CONTINUOUS
10
6.6653299212598425
20
-2.5806100393700788
11
6.6548234251968506
21
-2.5863860629921258
0
LINE
8
BLACK
6
CONTINUOUS
10
6.6548234251968506
20
-2.5863860629921258
11
6.6436758267716538
21
-2.5907996850393702
0
LINE
8
BLACK
6
CONTINUOUS
10
6.6436758267716538
20
-2.5907996850393702
11
6.6320629921259844
21
-2.5937813779527557
0
LINE
8
BLACK
6
CONTINUOUS
10
6.6320629921259844
20
-2.5937813779527557
11
6.6201679921259844
21
-2.59528405511811
0
LINE
8
BLACK
6
CONTINUOUS
10
6.6201679921259844
20
-2.59528405511811
11
6.6081784645669286
21
-2.59528405511811
0
LINE
8
BLACK
6
CONTINUOUS
10
6.6081784645669286
20
-2.59528405511811
11
6.5962834645669286
21
-2.5937813779527557
0
LINE
8
BLACK
6
CONTINUOUS
10
6.5962834645669286
20
-2.5937813779527557
11
6.5846706299212601
21
-2.5907996850393702
0
LINE
8
BLACK
6
CONTINUOUS
10
6.5846706299212601
20
-2.5907996850393702
11
6.5735230314960624
21
-2.5863860629921258
0
LINE
8
BLACK
6
CONTINUOUS
10
6.5735230314960624
20
-2.5863860629921258
11
6.5630165354330705
21
-2.5806100393700788
0
LINE
8
BLACK
6
CONTINUOUS
10
6.5630165354330705
20
-2.5806100393700788
11
6.5533168110236222
21
-2.5735627952755906
0
LINE
8
BLACK
6
CONTINUOUS
10
6.5533168110236222
20
-2.5735627952755906
11
6.5445768110236218
21
-2.5653553937007874
0
LINE
8
BLACK
6
CONTINUOUS
10
6.5445768110236218
20
-2.5653553937007874
11
6.5369344094488184
21
-2.5561172834645669
0
LINE
8
BLACK
6
CONTINUOUS
10
6.5369344094488184
20
-2.5561172834645669
11
6.5305100787401571
21
-2.545994212598425
0
LINE
8
BLACK
6
CONTINUOUS
10
6.5305100787401571
20
-2.545994212598425
11
6.5254051968503939
21
-2.5351457480314958
0
LINE
8
BLACK
6
CONTINUOUS
10
6.5254051968503939
20
-2.5351457480314958
11
6.5217002362204726
21
-2.5237430314960627
0
LINE
8
BLACK
6
CONTINUOUS
10
6.5217002362204726
20
-2.5237430314960627
11
6.5194536220472443
21
-2.5119658661417321
0
LINE
8
BLACK
6
CONTINUOUS
10
6.5194536220472443
20
-2.5119658661417321
11
6.518700787401575
21
-2.5
0
LINE
8
BLACK
6
CONTINUOUS
10
6.518700787401575
20
-2.5
11
6.5194536220472443
21
-2.4880341338582674
0
LINE
8
BLACK
6
CONTINUOUS
10
6.5194536220472443
20
-2.4880341338582674
11
6.5217002362204726
21
-2.4762569685039368
0
LINE
8
BLACK
6
CONTINUOUS
10
6.5217002362204726
20
-2.4762569685039368
11
6.5254051968503939
21
-2.4648542519685037
0
LINE
8
BLACK
6
CONTINUOUS
10
6.5254051968503939
20
-2.4648542519685037
11
6.5305100787401571
21
-2.4540057874015746
0
LINE
8
BLACK
6
CONTINUOUS
10
6.5305100787401571
20
-2.4540057874015746
11
6.5369344094488184
21
-2.4438827165354331
0
LINE
8
BLACK
6
CONTINUOUS
10
6.5369344094488184
20
-2.4438827165354331
11
6.5445768110236218
21
-2.4346446062992126
0
LINE
8
BLACK
6
CONTINUOUS
10
6.5445768110236218
20
-2.4346446062992126
11
6.5533168110236222
21
-2.4264372047244094
0
LINE
8
BLACK
6
CONTINUOUS
10
6.5533168110236222
20
-2.4264372047244094
11
6.5630165354330705
21
-2.4193899606299212
0
LINE
8
BLACK
6
CONTINUOUS
10
6.5630165354330705
20
-2.4193899606299212
11
6.5735230314960624
21
-2.4136139370078737
0
LINE
8
BLACK
6
CONTINUOUS
10
6.5735230314960624
20
-2.4136139370078737
11
6.5846706299212601
21
-2.4092003149606298
0
LINE
8
BLACK
6
CONTINUOUS
10
6.5846706299212601
20
-2.4092003149606298
11
6.5962834645669286
21
-2.4062186220472439
0
LINE
8
BLACK
6
CONTINUOUS
10
6.5962834645669286
20
-2.4062186220472439
11
6.6081784645669286
21
-2.4047159448818896
0
LINE
8
BLACK
6
CONTINUOUS
10
6.6081784645669286
20
-2.4047159448818896
11
6.6201679921259844
21
-2.4047159448818896
0
LINE
8
BLACK
6
CONTINUOUS
10
6.6201679921259844
20
-2.4047159448818896
11
6.6320629921259844
21
-2.4062186220472439
0
LINE
8
BLACK
6
CONTINUOUS
10
6.525182047244094
20
-2.511715905511811
11
6.5274725984251969
21
-2.5232313779527558
0
LINE
8
BLACK
6
CONTINUOUS
10
6.5274725984251969
20
-2.5232313779527558
11
6.5312466535433069
21
-2.5343493307086615
0
LINE
8
BLACK
6
CONTINUOUS
10
6.5312466535433069
20
-2.5343493307086615
11
6.5364395669291335
21
-2.5448795669291338
0
LINE
8
BLACK
6
CONTINUOUS
10
6.5364395669291335
20
-2.5448795669291338
11
6.5429625590551179
21
-2.5546418897637793
0
LINE
8
BLACK
6
CONTINUOUS
10
6.5429625590551179
20
-2.5546418897637793
11
6.5507039763779522
21
-2.5634692519685038
0
LINE
8
BLACK
6
CONTINUOUS
10
6.5507039763779522
20
-2.5634692519685038
11
6.5595313385826772
21
-2.5712106692913386
0
LINE
8
BLACK
6
CONTINUOUS
10
6.5595313385826772
20
-2.5712106692913386
11
6.5692936614173227
21
-2.577733661417323
0
LINE
8
BLACK
6
CONTINUOUS
10
6.5692936614173227
20
-2.577733661417323
11
6.5798238976377954
21
-2.5829265748031496
0
LINE
8
BLACK
6
CONTINUOUS
10
6.5798238976377954
20
-2.5829265748031496
11
6.5909418503937003
21
-2.5867006299212596
0
LINE
8
BLACK
6
CONTINUOUS
10
6.5909418503937003
20
-2.5867006299212596
11
6.6024573228346455
21
-2.588991181102362
0
LINE
8
BLACK
6
CONTINUOUS
10
6.6024573228346455
20
-2.588991181102362
11
6.6141732283464565
21
-2.5897590944881888
0
LINE
8
BLACK
6
CONTINUOUS
10
6.6141732283464565
20
-2.5897590944881888
11
6.6258891338582675
21
-2.588991181102362
0
LINE
8
BLACK
6
CONTINUOUS
10
6.6258891338582675
20
-2.588991181102362
11
6.6374046062992127
21
-2.5867006299212596
0
LINE
8
BLACK
6
CONTINUOUS
10
6.6374046062992127
20
-2.5867006299212596
11
6.6485225590551176
21
-2.5829265748031496
0
LINE
8
BLACK
6
CONTINUOUS
10
6.6485225590551176
20
-2.5829265748031496
11
6.6590527952755902
21
-2.577733661417323
0
LINE
8
BLACK
6
CONTINUOUS
10
6.6590527952755902
20
-2.577733661417323
11
6.6688151181102358
21
-2.5712106692913386
0
LINE
8
BLACK
6
CONTINUOUS
10
6.6688151181102358
20
-2.5712106692913386
11
6.6776424803149608
21
-2.5634692519685038
0
LINE
8
BLACK
6
CONTINUOUS
10
6.6776424803149608
20
-2.5634692519685038
11
6.6853838976377951
21
-2.5546418897637793
0
LINE
8
BLACK
6
CONTINUOUS
10
6.6853838976377951
20
-2.5546418897637793
11
6.6919068897637795
21
-2.5448795669291338
0
LINE
8
BLACK
6
CONTINUOUS
10
6.6919068897637795
20
-2.5448795669291338
11
6.6970998031496061
21
-2.5343493307086615
0
LINE
8
BLACK
6
CONTINUOUS
10
6.6970998031496061
20
-2.5343493307086615
11
6.7008738582677161
21
-2.5232313779527558
0
LINE
8
BLACK
6
CONTINUOUS
10
6.7008738582677161
20
-2.5232313779527558
11
6.703164409448819
21
-2.511715905511811
0
LINE
8
BLACK
6
CONTINUOUS
10
6.703164409448819
20
-2.511715905511811
11
6.7039323228346452
21
-2.5
0
LINE
8
BLACK
6
CONTINUOUS
10
6.7039323228346452
20
-2.5
11
6.703164409448819
21
-2.488284094488189
0
LINE
8
BLACK
6
CONTINUOUS
10
6.703164409448819
20
-2.488284094488189
11
6.7008738582677161
21
-2.4767686220472442
0
LINE
8
BLACK
6
CONTINUOUS
10
6.7008738582677161
20
-2.4767686220472442
11
6.6970998031496061
21
-2.4656506692913385
0
LINE
8
BLACK
6
CONTINUOUS
10
6.6970998031496061
20
-2.4656506692913385
11
6.6919068897637795
21
-2.455120472440945
0
LINE
8
BLACK
6
CONTINUOUS
10
6.6919068897637795
20
-2.455120472440945
11
6.6853838976377951
21
-2.4453581102362203
0
LINE
8
BLACK
6
CONTINUOUS
10
6.6853838976377951
20
-2.4453581102362203
11
6.6776424803149608
21
-2.4365307480314962
0
LINE
8
BLACK
6
CONTINUOUS
10
6.6776424803149608
20
-2.4365307480314962
11
6.6688151181102358
21
-2.4287893307086614
0
LINE
8
BLACK
6
CONTINUOUS
10
6.6688151181102358
20
-2.4287893307086614
11
6.6590527952755902
21
-2.422266338582677
0
LINE
8
BLACK
6
CONTINUOUS
10
6.6590527952755902
20
-2.422266338582677
11
6.6485225590551176
21
-2.4170734251968504
0
LINE
8
BLACK
6
CONTINUOUS
10
6.6485225590551176
20
-2.4170734251968504
11
6.6374046062992127
21
-2.41329937007874
0
LINE
8
BLACK
6
CONTINUOUS
10
6.6374046062992127
20
-2.41329937007874
11
6.6258891338582675
21
-2.411008818897638
0
LINE
8
BLACK
6
CONTINUOUS
10
6.6258891338582675
20
-2.411008818897638
11
6.6141732283464565
21
-2.4102409055118108
0
LINE
8
BLACK
6
CONTINUOUS
10
6.6141732283464565
20
-2.4102409055118108
11
6.6024573228346455
21
-2.411008818897638
0
LINE
8
BLACK
6
CONTINUOUS
10
6.6024573228346455
20
-2.411008818897638
11
6.5909418503937003
21
-2.41329937007874
0
LINE
8
BLACK
6
CONTINUOUS
10
6.5909418503937003
20
-2.41329937007874
11
6.5798238976377954
21
-2.4170734251968504
0
LINE
8
BLACK
6
CONTINUOUS
10
6.5798238976377954
20
-2.4170734251968504
11
6.5692937007874015
21
-2.422266338582677
0
LINE
8
BLACK
6
CONTINUOUS
10
6.5692937007874015
20
-2.422266338582677
11
6.5595313385826772
21
-2.4287893307086614
0
LINE
8
BLACK
6
CONTINUOUS
10
6.5595313385826772
20
-2.4287893307086614
11
6.5507039763779522
21
-2.4365307480314962
0
LINE
8
BLACK
6
CONTINUOUS
10
6.5507039763779522
20
-2.4365307480314962
11
6.5429625590551179
21
-2.4453581102362203
0
LINE
8
BLACK
6
CONTINUOUS
10
6.5429625590551179
20
-2.4453581102362203
11
6.5364395669291335
21
-2.455120472440945
0
LINE
8
BLACK
6
CONTINUOUS
10
6.5364395669291335
20
-2.455120472440945
11
6.5312466535433069
21
-2.4656506692913385
0
LINE
8
BLACK
6
CONTINUOUS
10
6.5312466535433069
20
-2.4656506692913385
11
6.5274725984251969
21
-2.4767686220472442
0
LINE
8
BLACK
6
CONTINUOUS
10
6.5274725984251969
20
-2.4767686220472442
11
6.525182047244094
21
-2.488284094488189
0
LINE
8
BLACK
6
CONTINUOUS
10
6.525182047244094
20
-2.488284094488189
11
6.5244141338582677
21
-2.5
0
LINE
8
BLACK
6
CONTINUOUS
10
6.5244141338582677
20
-2.5
11
6.525182047244094
21
-2.511715905511811
0
LINE
8
BLACK
6
CONTINUOUS
10
1.6714330708661418
20
-0.8117304330708661
11
1.683045905511811
21
-0.8147121259842519
0
LINE
8
BLACK
6
CONTINUOUS
10
1.683045905511811
20
-0.8147121259842519
11
1.6941935039370077
21
-0.8191257480314961
0
LINE
8
BLACK
6
CONTINUOUS
10
1.6941935039370077
20
-0.8191257480314961
11
1.7046999999999999
21
-0.8249017716535433
0
LINE
8
BLACK
6
CONTINUOUS
10
1.7046999999999999
20
-0.8249017716535433
11
1.7143997244094489
21
-0.8319490157480315
0
LINE
8
BLACK
6
CONTINUOUS
10
1.7143997244094489
20
-0.8319490157480315
11
1.7231397244094488
21
-0.8401564173228346
0
LINE
8
BLACK
6
CONTINUOUS
10
1.7231397244094488
20
-0.8401564173228346
11
1.730782125984252
21
-0.8493945275590551
0
LINE
8
BLACK
6
CONTINUOUS
10
1.730782125984252
20
-0.8493945275590551
11
1.7372064566929133
21
-0.8595175984251968
0
LINE
8
BLACK
6
CONTINUOUS
10
1.7372064566929133
20
-0.8595175984251968
11
1.7423113385826772
21
-0.8703660629921259
0
LINE
8
BLACK
6
CONTINUOUS
10
1.7423113385826772
20
-0.8703660629921259
11
1.7460162992125985
21
-0.8817687795275591
0
LINE
8
BLACK
6
CONTINUOUS
10
1.7460162992125985
20
-0.8817687795275591
11
1.7482629133858267
21
-0.8935459448818898
0
LINE
8
BLACK
6
CONTINUOUS
10
1.7482629133858267
20
-0.8935459448818898
11
1.7490157480314961
21
-0.905511811023622
0
LINE
8
BLACK
6
CONTINUOUS
10
1.7490157480314961
20
-0.905511811023622
11
1.7482629133858267
21
-0.9174776771653543
0
LINE
8
BLACK
6
CONTINUOUS
10
1.7482629133858267
20
-0.9174776771653543
11
1.7460162992125985
21
-0.929254842519685
0
LINE
8
BLACK
6
CONTINUOUS
10
1.7460162992125985
20
-0.929254842519685
11
1.7423113385826772
21
-0.9406575590551181
0
LINE
8
BLACK
6
CONTINUOUS
10
1.7423113385826772
20
-0.9406575590551181
11
1.7372064566929133
21
-0.9515060236220472
0
LINE
8
BLACK
6
CONTINUOUS
10
1.7372064566929133
20
-0.9515060236220472
11
1.730782125984252
21
-0.961629094488189
0
LINE
8
BLACK
6
CONTINUOUS
10
1.730782125984252
20
-0.961629094488189
11
1.7231397244094488
21
-0.9708672047244095
0
LINE
8
BLACK
6
CONTINUOUS
10
1.7231397244094488
20
-0.9708672047244095
11
1.7143997244094489
21
-0.9790746062992126
0
LINE
8
BLACK
6
CONTINUOUS
10
1.7143997244094489
20
-0.9790746062992126
11
1.7046999999999999
21
-0.9861218503937008
0
LINE
8
BLACK
6
CONTINUOUS
10
1.7046999999999999
20
-0.9861218503937008
11
1.6941935039370077
21
-0.991897874015748
0
LINE
8
BLACK
6
CONTINUOUS
10
1.6941935039370077
20
-0.991897874015748
11
1.683045905511811
21
-0.9963114960629921
0
LINE
8
BLACK
6
CONTINUOUS
10
1.683045905511811
20
-0.9963114960629921
11
1.6714330708661418
21
-0.999293188976378
0
LINE
8
BLACK
6
CONTINUOUS
10
1.6714330708661418
20
-0.999293188976378
11
1.6595380708661418
21
-1.0007958661417322
0
LINE
8
BLACK
6
CONTINUOUS
10
1.6595380708661418
20
-1.0007958661417322
11
1.6475485433070867
21
-1.0007958661417322
0
LINE
8
BLACK
6
CONTINUOUS
10
1.6475485433070867
20
-1.0007958661417322
11
1.6356535433070867
21
-0.999293188976378
0
LINE
8
BLACK
6
CONTINUOUS
10
1.6356535433070867
20
-0.999293188976378
11
1.6240407086614173
21
-0.9963114960629921
0
LINE
8
BLACK
6
CONTINUOUS
10
1.6240407086614173
20
-0.9963114960629921
11
1.6128931102362205
21
-0.991897874015748
0
LINE
8
BLACK
6
CONTINUOUS
10
1.6128931102362205
20
-0.991897874015748
11
1.6023866141732284
21
-0.9861218503937008
0
LINE
8
BLACK
6
CONTINUOUS
10
1.6023866141732284
20
-0.9861218503937008
11
1.5926868897637796
21
-0.9790746062992126
0
LINE
8
BLACK
6
CONTINUOUS
10
1.5926868897637796
20
-0.9790746062992126
11
1.5839468897637794
21
-0.9708672047244095
0
LINE
8
BLACK
6
CONTINUOUS
10
1.5839468897637794
20
-0.9708672047244095
11
1.5763044881889763
21
-0.961629094488189
0
LINE
8
BLACK
6
CONTINUOUS
10
1.5763044881889763
20
-0.961629094488189
11
1.569880157480315
21
-0.9515060236220472
0
LINE
8
BLACK
6
CONTINUOUS
10
1.569880157480315
20
-0.9515060236220472
11
1.5647752755905511
21
-0.9406575590551181
0
LINE
8
BLACK
6
CONTINUOUS
10
1.5647752755905511
20
-0.9406575590551181
11
1.56107031496063
21
-0.929254842519685
0
LINE
8
BLACK
6
CONTINUOUS
10
1.56107031496063
20
-0.929254842519685
11
1.5588237007874015
21
-0.9174776771653543
0
LINE
8
BLACK
6
CONTINUOUS
10
1.5588237007874015
20
-0.9174776771653543
11
1.5580708661417322
21
-0.905511811023622
0
LINE
8
BLACK
6
CONTINUOUS
10
1.5580708661417322
20
-0.905511811023622
11
1.5588237007874015
21
-0.8935459448818898
0
LINE
8
BLACK
6
CONTINUOUS
10
1.5588237007874015
20
-0.8935459448818898
11
1.56107031496063
21
-0.8817687795275591
0
LINE
8
BLACK
6
CONTINUOUS
10
1.56107031496063
20
-0.8817687795275591
11
1.5647752755905511
21
-0.8703660629921259
0
LINE
8
BLACK
6
CONTINUOUS
10
1.5647752755905511
20
-0.8703660629921259
11
1.569880157480315
21
-0.8595175984251968
0
LINE
8
BLACK
6
CONTINUOUS
10
1.569880157480315
20
-0.8595175984251968
11
1.5763044881889763
21
-0.8493945275590551
0
LINE
8
BLACK
6
CONTINUOUS
10
1.5763044881889763
20
-0.8493945275590551
11
1.5839468897637794
21
-0.8401564173228346
0
LINE
8
BLACK
6
CONTINUOUS
10
1.5839468897637794
20
-0.8401564173228346
11
1.5926868897637796
21
-0.8319490157480315
0
LINE
8
BLACK
6
CONTINUOUS
10
1.5926868897637796
20
-0.8319490157480315
11
1.6023866141732284
21
-0.8249017716535433
0
LINE
8
BLACK
6
CONTINUOUS
10
1.6023866141732284
20
-0.8249017716535433
11
1.6128931102362205
21
-0.8191257480314961
0
LINE
8
BLACK
6
CONTINUOUS
10
1.6128931102362205
20
-0.8191257480314961
11
1.6240407086614173
21
-0.8147121259842519
0
LINE
8
BLACK
6
CONTINUOUS
10
1.6240407086614173
20
-0.8147121259842519
11
1.6356535433070867
21
-0.8117304330708661
0
LINE
8
BLACK
6
CONTINUOUS
10
1.6356535433070867
20
-0.8117304330708661
11
1.6475485433070867
21
-0.8102277559055118
0
LINE
8
BLACK
6
CONTINUOUS
10
1.6475485433070867
20
-0.8102277559055118
11
1.6595380708661418
21
-0.8102277559055118
0
LINE
8
BLACK
6
CONTINUOUS
10
1.6595380708661418
20
-0.8102277559055118
11
1.6714330708661418
21
-0.8117304330708661
0
LINE
8
BLACK
6
CONTINUOUS
10
1.5645521259842519
20
-0.917227716535433
11
1.5668426771653543
21
-0.928743188976378
0
LINE
8
BLACK
6
CONTINUOUS
10
1.5668426771653543
20
-0.928743188976378
11
1.5706167322834645
21
-0.9398611417322834
0
LINE
8
BLACK
6
CONTINUOUS
10
1.5706167322834645
20
-0.9398611417322834
11
1.5758096456692914
21
-0.9503913779527559
0
LINE
8
BLACK
6
CONTINUOUS
10
1.5758096456692914
20
-0.9503913779527559
11
1.5823326377952756
21
-0.9601537007874016
0
LINE
8
BLACK
6
CONTINUOUS
10
1.5823326377952756
20
-0.9601537007874016
11
1.5900740551181103
21
-0.9689810629921259
0
LINE
8
BLACK
6
CONTINUOUS
10
1.5900740551181103
20
-0.9689810629921259
11
1.5989014173228346
21
-0.9767224803149606
0
LINE
8
BLACK
6
CONTINUOUS
10
1.5989014173228346
20
-0.9767224803149606
11
1.6086637401574804
21
-0.9832454724409448
0
LINE
8
BLACK
6
CONTINUOUS
10
1.6086637401574804
20
-0.9832454724409448
11
1.6191939763779528
21
-0.9884383858267717
0
LINE
8
BLACK
6
CONTINUOUS
10
1.6191939763779528
20
-0.9884383858267717
11
1.6303119291338581
21
-0.9922124409448818
0
LINE
8
BLACK
6
CONTINUOUS
10
1.6303119291338581
20
-0.9922124409448818
11
1.6418274015748031
21
-0.9945029921259843
0
LINE
8
BLACK
6
CONTINUOUS
10
1.6418274015748031
20
-0.9945029921259843
11
1.6535433070866141
21
-0.995270905511811
0
LINE
8
BLACK
6
CONTINUOUS
10
1.6535433070866141
20
-0.995270905511811
11
1.6652592125984251
21
-0.9945029921259843
0
LINE
8
BLACK
6
CONTINUOUS
10
1.6652592125984251
20
-0.9945029921259843
11
1.6767746850393701
21
-0.9922124409448818
0
LINE
8
BLACK
6
CONTINUOUS
10
1.6767746850393701
20
-0.9922124409448818
11
1.6878926377952757
21
-0.9884383858267717
0
LINE
8
BLACK
6
CONTINUOUS
10
1.6878926377952757
20
-0.9884383858267717
11
1.6984228740157481
21
-0.9832454724409448
0
LINE
8
BLACK
6
CONTINUOUS
10
1.6984228740157481
20
-0.9832454724409448
11
1.7081851968503936
21
-0.9767224803149606
0
LINE
8
BLACK
6
CONTINUOUS
10
1.7081851968503936
20
-0.9767224803149606
11
1.7170125590551182
21
-0.9689810629921259
0
LINE
8
BLACK
6
CONTINUOUS
10
1.7170125590551182
20
-0.9689810629921259
11
1.7247539763779527
21
-0.9601537007874016
0
LINE
8
BLACK
6
CONTINUOUS
10
1.7247539763779527
20
-0.9601537007874016
11
1.7312769685039369
21
-0.9503913779527559
0
LINE
8
BLACK
6
CONTINUOUS
10
1.7312769685039369
20
-0.9503913779527559
11
1.7364698818897637
21
-0.9398611417322834
0
LINE
8
BLACK
6
CONTINUOUS
10
1.7364698818897637
20
-0.9398611417322834
11
1.7402439370078739
21
-0.928743188976378
0
LINE
8
BLACK
6
CONTINUOUS
10
1.7402439370078739
20
-0.928743188976378
11
1.7425344881889764
21
-0.917227716535433
0
LINE
8
BLACK
6
CONTINUOUS
10
1.7425344881889764
20
-0.917227716535433
11
1.7433024015748031
21
-0.905511811023622
0
LINE
8
BLACK
6
CONTINUOUS
10
1.7433024015748031
20
-0.905511811023622
11
1.7425344881889764
21
-0.893795905511811
0
LINE
8
BLACK
6
CONTINUOUS
10
1.7425344881889764
20
-0.893795905511811
11
1.7402439370078739
21
-0.8822804330708661
0
LINE
8
BLACK
6
CONTINUOUS
10
1.7402439370078739
20
-0.8822804330708661
11
1.7364698818897637
21
-0.8711624803149606
0
LINE
8
BLACK
6
CONTINUOUS
10
1.7364698818897637
20
-0.8711624803149606
11
1.7312769685039369
21
-0.8606322834645669
0
LINE
8
BLACK
6
CONTINUOUS
10
1.7312769685039369
20
-0.8606322834645669
11
1.7247539763779527
21
-0.8508699212598425
0
LINE
8
BLACK
6
CONTINUOUS
10
1.7247539763779527
20
-0.8508699212598425
11
1.7170125590551182
21
-0.842042559055118
0
LINE
8
BLACK
6
CONTINUOUS
10
1.7170125590551182
20
-0.842042559055118
11
1.7081851968503936
21
-0.8343011417322834
0
LINE
8
BLACK
6
CONTINUOUS
10
1.7081851968503936
20
-0.8343011417322834
11
1.6984228740157481
21
-0.8277781496062991
0
LINE
8
BLACK
6
CONTINUOUS
10
1.6984228740157481
20
-0.8277781496062991
11
1.6878926377952757
21
-0.8225852362204724
0
LINE
8
BLACK
6
CONTINUOUS
10
1.6878926377952757
20
-0.8225852362204724
11
1.6767746850393701
21
-0.8188111811023622
0
LINE
8
BLACK
6
CONTINUOUS
10
1.6767746850393701
20
-0.8188111811023622
11
1.6652592125984251
21
-0.8165206299212598
0
LINE
8
BLACK
6
CONTINUOUS
10
1.6652592125984251
20
-0.8165206299212598
11
1.6535433070866141
21
-0.815752716535433
0
LINE
8
BLACK
6
CONTINUOUS
10
1.6535433070866141
20
-0.815752716535433
11
1.6418274015748031
21
-0.8165206299212598
0
LINE
8
BLACK
6
CONTINUOUS
10
1.6418274015748031
20
-0.8165206299212598
11
1.6303119291338581
21
-0.8188111811023622
0
LINE
8
BLACK
6
CONTINUOUS
10
1.6303119291338581
20
-0.8188111811023622
11
1.6191939763779528
21
-0.8225852362204724
0
LINE
8
BLACK
6
CONTINUOUS
10
1.6191939763779528
20
-0.8225852362204724
11
1.6086637795275591
21
-0.8277781496062991
0
LINE
8
BLACK
6
CONTINUOUS
10
1.6086637795275591
20
-0.8277781496062991
11
1.5989014173228346
21
-0.8343011417322834
0
LINE
8
BLACK
6
CONTINUOUS
10
1.5989014173228346
20
-0.8343011417322834
11
1.5900740551181103
21
-0.842042559055118
0
LINE
8
BLACK
6
CONTINUOUS
10
1.5900740551181103
20
-0.842042559055118
11
1.5823326377952756
21
-0.8508699212598425
0
LINE
8
BLACK
6
CONTINUOUS
10
1.5823326377952756
20
-0.8508699212598425
11
1.5758096456692914
21
-0.8606322834645669
0
LINE
8
BLACK
6
CONTINUOUS
10
1.5758096456692914
20
-0.8606322834645669
11
1.5706167322834645
21
-0.8711624803149606
0
LINE
8
BLACK
6
CONTINUOUS
10
1.5706167322834645
20
-0.8711624803149606
11
1.5668426771653543
21
-0.8822804330708661
0
LINE
8
BLACK
6
CONTINUOUS
10
1.5668426771653543
20
-0.8822804330708661
11
1.5645521259842519
21
-0.893795905511811
0
LINE
8
BLACK
6
CONTINUOUS
10
1.5645521259842519
20
-0.893795905511811
11
1.5637842125984251
21
-0.905511811023622
0
LINE
8
BLACK
6
CONTINUOUS
10
1.5637842125984251
20
-0.905511811023622
11
1.5645521259842519
21
-0.917227716535433
0
LINE
8
BLACK
6
CONTINUOUS
10
6.6320629921259844
20
-0.8117304330708661
11
6.6436758267716538
21
-0.8147121259842519
0
LINE
8
BLACK
6
CONTINUOUS
10
6.6436758267716538
20
-0.8147121259842519
11
6.6548234251968506
21
-0.8191257480314961
0
LINE
8
BLACK
6
CONTINUOUS
10
6.6548234251968506
20
-0.8191257480314961
11
6.6653299212598425
21
-0.8249017716535433
0
LINE
8
BLACK
6
CONTINUOUS
10
6.6653299212598425
20
-0.8249017716535433
11
6.6750296456692908
21
-0.8319490157480315
0
LINE
8
BLACK
6
CONTINUOUS
10
6.6750296456692908
20
-0.8319490157480315
11
6.6837696456692912
21
-0.8401564173228346
0
LINE
8
BLACK
6
CONTINUOUS
10
6.6837696456692912
20
-0.8401564173228346
11
6.6914120472440946
21
-0.8493945275590551
0
LINE
8
BLACK
6
CONTINUOUS
10
6.6914120472440946
20
-0.8493945275590551
11
6.6978363779527559
21
-0.8595175984251968
0
LINE
8
BLACK
6
CONTINUOUS
10
6.6978363779527559
20
-0.8595175984251968
11
6.7029412598425191
21
-0.8703660629921259
0
LINE
8
BLACK
6
CONTINUOUS
10
6.7029412598425191
20
-0.8703660629921259
11
6.7066462204724404
21
-0.8817687795275591
0
LINE
8
BLACK
6
CONTINUOUS
10
6.7066462204724404
20
-0.8817687795275591
11
6.7088928346456695
21
-0.8935459448818898
0
LINE
8
BLACK
6
CONTINUOUS
10
6.7088928346456695
20
-0.8935459448818898
11
6.709645669291338
21
-0.905511811023622
0
LINE
8
BLACK
6
CONTINUOUS
10
6.709645669291338
20
-0.905511811023622
11
6.7088928346456695
21
-0.9174776771653543
0
LINE
8
BLACK
6
CONTINUOUS
10
6.7088928346456695
20
-0.9174776771653543
11
6.7066462204724404
21
-0.929254842519685
0
LINE
8
BLACK
6
CONTINUOUS
10
6.7066462204724404
20
-0.929254842519685
11
6.7029412598425191
21
-0.9406575590551181
0
LINE
8
BLACK
6
CONTINUOUS
10
6.7029412598425191
20
-0.9406575590551181
11
6.6978363779527559
21
-0.9515060236220472
0
LINE
8
BLACK
6
CONTINUOUS
10
6.6978363779527559
20
-0.9515060236220472
11
6.6914120472440946
21
-0.961629094488189
0
LINE
8
BLACK
6
CONTINUOUS
10
6.6914120472440946
20
-0.961629094488189
11
6.6837696456692912
21
-0.9708672047244095
0
LINE
8
BLACK
6
CONTINUOUS
10
6.6837696456692912
20
-0.9708672047244095
11
6.6750296456692908
21
-0.9790746062992126
0
LINE
8
BLACK
6
CONTINUOUS
10
6.6750296456692908
20
-0.9790746062992126
11
6.6653299212598425
21
-0.9861218503937008
0
LINE
8
BLACK
6
CONTINUOUS
10
6.6653299212598425
20
-0.9861218503937008
11
6.6548234251968506
21
-0.991897874015748
0
LINE
8
BLACK
6
CONTINUOUS
10
6.6548234251968506
20
-0.991897874015748
11
6.6436758267716538
21
-0.9963114960629921
0
LINE
8
BLACK
6
CONTINUOUS
10
6.6436758267716538
20
-0.9963114960629921
11
6.6320629921259844
21
-0.999293188976378
0
LINE
8
BLACK
6
CONTINUOUS
10
6.6320629921259844
20
-0.999293188976378
11
6.6201679921259844
21
-1.0007958661417322
0
LINE
8
BLACK
6
CONTINUOUS
10
6.6201679921259844
20
-1.0007958661417322
11
6.6081784645669286
21
-1.0007958661417322
0
LINE
8
BLACK
6
CONTINUOUS
10
6.6081784645669286
20
-1.0007958661417322
11
6.5962834645669286
21
-0.999293188976378
0
LINE
8
BLACK
6
CONTINUOUS
10
6.5962834645669286
20
-0.999293188976378
11
6.5846706299212601
21
-0.9963114960629921
0
LINE
8
BLACK
6
CONTINUOUS
10
6.5846706299212601
20
-0.9963114960629921
11
6.5735230314960624
21
-0.991897874015748
0
LINE
8
BLACK
6
CONTINUOUS
10
6.5735230314960624
20
-0.991897874015748
11
6.5630165354330705
21
-0.9861218503937008
0
LINE
8
BLACK
6
CONTINUOUS
10
6.5630165354330705
20
-0.9861218503937008
11
6.5533168110236222
21
-0.9790746062992126
0
LINE
8
BLACK
6
CONTINUOUS
10
6.5533168110236222
20
-0.9790746062992126
11
6.5445768110236218
21
-0.9708672047244095
0
LINE
8
BLACK
6
CONTINUOUS
10
6.5445768110236218
20
-0.9708672047244095
11
6.5369344094488184
21
-0.961629094488189
0
LINE
8
BLACK
6
CONTINUOUS
10
6.5369344094488184
20
-0.961629094488189
11
6.5305100787401571
21
-0.9515060236220472
0
LINE
8
BLACK
6
CONTINUOUS
10
6.5305100787401571
20
-0.9515060236220472
11
6.5254051968503939
21
-0.9406575590551181
0
LINE
8
BLACK
6
CONTINUOUS
10
6.5254051968503939
20
-0.9406575590551181
11
6.5217002362204726
21
-0.929254842519685
0
LINE
8
BLACK
6
CONTINUOUS
10
6.5217002362204726
20
-0.929254842519685
11
6.5194536220472443
21
-0.9174776771653543
0
LINE
8
BLACK
6
CONTINUOUS
10
6.5194536220472443
20
-0.9174776771653543
11
6.518700787401575
21
-0.905511811023622
0
LINE
8
BLACK
6
CONTINUOUS
10
6.518700787401575
20
-0.905511811023622
11
6.5194536220472443
21
-0.8935459448818898
0
LINE
8
BLACK
6
CONTINUOUS
10
6.5194536220472443
20
-0.8935459448818898
11
6.5217002362204726
21
-0.8817687795275591
0
LINE
8
BLACK
6
CONTINUOUS
10
6.5217002362204726
20
-0.8817687795275591
11
6.5254051968503939
21
-0.8703660629921259
0
LINE
8
BLACK
6
CONTINUOUS
10
6.5254051968503939
20
-0.8703660629921259
11
6.5305100787401571
21
-0.8595175984251968
0
LINE
8
BLACK
6
CONTINUOUS
10
6.5305100787401571
20
-0.8595175984251968
11
6.5369344094488184
21
-0.8493945275590551
0
LINE
8
BLACK
6
CONTINUOUS
10
6.5369344094488184
20
-0.8493945275590551
11
6.5445768110236218
21
-0.8401564173228346
0
LINE
8
BLACK
6
CONTINUOUS
10
6.5445768110236218
20
-0.8401564173228346
11
6.5533168110236222
21
-0.8319490157480315
0
LINE
8
BLACK
6
CONTINUOUS
10
6.5533168110236222
20
-0.8319490157480315
11
6.5630165354330705
21
-0.8249017716535433
0
LINE
8
BLACK
6
CONTINUOUS
10
6.5630165354330705
20
-0.8249017716535433
11
6.5735230314960624
21
-0.8191257480314961
0
LINE
8
BLACK
6
CONTINUOUS
10
6.5735230314960624
20
-0.8191257480314961
11
6.5846706299212601
21
-0.8147121259842519
0
LINE
8
BLACK
6
CONTINUOUS
10
6.5846706299212601
20
-0.8147121259842519
11
6.5962834645669286
21
-0.8117304330708661
0
LINE
8
BLACK
6
CONTINUOUS
10
6.5962834645669286
20
-0.8117304330708661
11
6.6081784645669286
21
-0.8102277559055118
0
LINE
8
BLACK
6
CONTINUOUS
10
6.6081784645669286
20
-0.8102277559055118
11
6.6201679921259844
21
-0.8102277559055118
0
LINE
8
BLACK
6
CONTINUOUS
10
6.6201679921259844
20
-0.8102277559055118
11
6.6320629921259844
21
-0.8117304330708661
0
LINE
8
BLACK
6
CONTINUOUS
10
6.525182047244094
20
-0.917227716535433
11
6.5274725984251969
21
-0.928743188976378
0
LINE
8
BLACK
6
CONTINUOUS
10
6.5274725984251969
20
-0.928743188976378
11
6.5312466535433069
21
-0.9398611417322834
0
LINE
8
BLACK
6
CONTINUOUS
10
6.5312466535433069
20
-0.9398611417322834
11
6.5364395669291335
21
-0.9503913779527559
0
LINE
8
BLACK
6
CONTINUOUS
10
6.5364395669291335
20
-0.9503913779527559
11
6.5429625590551179
21
-0.9601537007874016
0
LINE
8
BLACK
6
CONTINUOUS
10
6.5429625590551179
20
-0.9601537007874016
11
6.5507039763779522
21
-0.9689810629921259
0
LINE
8
BLACK
6
CONTINUOUS
10
6.5507039763779522
20
-0.9689810629921259
11
6.5595313385826772
21
-0.9767224803149606
0
LINE
8
BLACK
6
CONTINUOUS
10
6.5595313385826772
20
-0.9767224803149606
11
6.5692936614173227
21
-0.9832454724409448
0
LINE
8
BLACK
6
CONTINUOUS
10
6.5692936614173227
20
-0.9832454724409448
11
6.5798238976377954
21
-0.9884383858267717
0
LINE
8
BLACK
6
CONTINUOUS
10
6.5798238976377954
20
-0.9884383858267717
11
6.5909418503937003
21
-0.9922124409448818
0
LINE
8
BLACK
6
CONTINUOUS
10
6.5909418503937003
20
-0.9922124409448818
11
6.6024573228346455
21
-0.9945029921259843
0
LINE
8
BLACK
6
CONTINUOUS
10
6.6024573228346455
20
-0.9945029921259843
11
6.6141732283464565
21
-0.995270905511811
0
LINE
8
BLACK
6
CONTINUOUS
10
6.6141732283464565
20
-0.995270905511811
11
6.6258891338582675
21
-0.9945029921259843
0
LINE
8
BLACK
6
CONTINUOUS
10
6.6258891338582675
20
-0.9945029921259843
11
6.6374046062992127
21
-0.9922124409448818
0
LINE
8
BLACK
6
CONTINUOUS
10
6.6374046062992127
20
-0.9922124409448818
11
6.6485225590551176
21
-0.9884383858267717
0
LINE
8
BLACK
6
CONTINUOUS
10
6.6485225590551176
20
-0.9884383858267717
11
6.6590527952755902
21
-0.9832454724409448
0
LINE
8
BLACK
6
CONTINUOUS
10
6.6590527952755902
20
-0.9832454724409448
11
6.6688151181102358
21
-0.9767224803149606
0
LINE
8
BLACK
6
CONTINUOUS
10
6.6688151181102358
20
-0.9767224803149606
11
6.6776424803149608
21
-0.9689810629921259
0
LINE
8
BLACK
6
CONTINUOUS
10
6.6776424803149608
20
-0.9689810629921259
11
6.6853838976377951
21
-0.9601537007874016
0
LINE
8
BLACK
6
CONTINUOUS
10
6.6853838976377951
20
-0.9601537007874016
11
6.6919068897637795
21
-0.9503913779527559
0
LINE
8
BLACK
6
CONTINUOUS
10
6.6919068897637795
20
-0.9503913779527559
11
6.6970998031496061
21
-0.9398611417322834
0
LINE
8
BLACK
6
CONTINUOUS
10
6.6970998031496061
20
-0.9398611417322834
11
6.7008738582677161
21
-0.928743188976378
0
LINE
8
BLACK
6
CONTINUOUS
10
6.7008738582677161
20
-0.928743188976378
11
6.703164409448819
21
-0.917227716535433
0
LINE
8
BLACK
6
CONTINUOUS
10
6.703164409448819
20
-0.917227716535433
11
6.7039323228346452
21
-0.905511811023622
0
LINE
8
BLACK
6
CONTINUOUS
10
6.7039323228346452
20
-0.905511811023622
11
6.703164409448819
21
-0.893795905511811
0
LINE
8
BLACK
6
CONTINUOUS
10
6.703164409448819
20
-0.893795905511811
11
6.7008738582677161
21
-0.8822804330708661
0
LINE
8
BLACK
6
CONTINUOUS
10
6.7008738582677161
20
-0.8822804330708661
11
6.6970998031496061
21
-0.8711624803149606
0
LINE
8
BLACK
6
CONTINUOUS
10
6.6970998031496061
20
-0.8711624803149606
11
6.6919068897637795
21
-0.8606322834645669
0
LINE
8
BLACK
6
CONTINUOUS
10
6.6919068897637795
20
-0.8606322834645669
11
6.6853838976377951
21
-0.8508699212598425
0
LINE
8
BLACK
6
CONTINUOUS
10
6.6853838976377951
20
-0.8508699212598425
11
6.6776424803149608
21
-0.842042559055118
0
LINE
8
BLACK
6
CONTINUOUS
10
6.6776424803149608
20
-0.842042559055118
11
6.6688151181102358
21
-0.8343011417322834
0
LINE
8
BLACK
6
CONTINUOUS
10
6.6688151181102358
20
-0.8343011417322834
11
6.6590527952755902
21
-0.8277781496062991
0
LINE
8
BLACK
6
CONTINUOUS
10
6.6590527952755902
20
-0.8277781496062991
11
6.6485225590551176
21
-0.8225852362204724
0
LINE
8
BLACK
6
CONTINUOUS
10
6.6485225590551176
20
-0.8225852362204724
11
6.6374046062992127
21
-0.8188111811023622
0
LINE
8
BLACK
6
CONTINUOUS
10
6.6374046062992127
20
-0.8188111811023622
11
6.6258891338582675
21
-0.8165206299212598
0
LINE
8
BLACK
6
CONTINUOUS
10
6.6258891338582675
20
-0.8165206299212598
11
6.6141732283464565
21
-0.815752716535433
0
LINE
8
BLACK
6
CONTINUOUS
10
6.6141732283464565
20
-0.815752716535433
11
6.6024573228346455
21
-0.8165206299212598
0
LINE
8
BLACK
6
CONTINUOUS
10
6.6024573228346455
20
-0.8165206299212598
11
6.5909418503937003
21
-0.8188111811023622
0
LINE
8
BLACK
6
CONTINUOUS
10
6.5909418503937003
20
-0.8188111811023622
11
6.5798238976377954
21
-0.8225852362204724
0
LINE
8
BLACK
6
CONTINUOUS
10
6.5798238976377954
20
-0.8225852362204724
11
6.5692937007874015
21
-0.8277781496062991
0
LINE
8
BLACK
6
CONTINUOUS
10
6.5692937007874015
20
-0.8277781496062991
11
6.5595313385826772
21
-0.8343011417322834
0
LINE
8
BLACK
6
CONTINUOUS
10
6.5595313385826772
20
-0.8343011417322834
11
6.5507039763779522
21
-0.842042559055118
0
LINE
8
BLACK
6
CONTINUOUS
10
6.5507039763779522
20
-0.842042559055118
11
6.5429625590551179
21
-0.8508699212598425
0
LINE
8
BLACK
6
CONTINUOUS
10
6.5429625590551179
20
-0.8508699212598425
11
6.5364395669291335
21
-0.8606322834645669
0
LINE
8
BLACK
6
CONTINUOUS
10
6.5364395669291335
20
-0.8606322834645669
11
6.5312466535433069
21
-0.8711624803149606
0
LINE
8
BLACK
6
CONTINUOUS
10
6.5312466535433069
20
-0.8711624803149606
11
6.5274725984251969
21
-0.8822804330708661
0
LINE
8
BLACK
6
CONTINUOUS
10
6.5274725984251969
20
-0.8822804330708661
11
6.525182047244094
21
-0.893795905511811
0
LINE
8
BLACK
6
CONTINUOUS
10
6.525182047244094
20
-0.893795905511811
11
6.5244141338582677
21
-0.905511811023622
0
LINE
8
BLACK
6
CONTINUOUS
10
6.5244141338582677
20
-0.905511811023622
11
6.525182047244094
21
-0.917227716535433
  0
ENDSEC
  0
EOF
