  0
SECTION
  2
HEADER
  9
$ANGBASE
  50
0.0
  9
$ANGDIR
  70
1
  9
$MEASUREMENT
  70
1
  0
ENDSEC
  0
SECTION
  2
TABLES
  0
TABLE
  2
LTYPE
  70
4
  0
LTYPE
  5
40F
  2
CONTINUOUS
  70
0
  3
Solid line
  72
65
  73
0
  40
0.0
  0
LTYPE
  5
410
  2
DASHDOT
 70
0
  3
Dash Dot ____ _ ____ _
 72
65
 73
4
 40
2.0
 49
1.25
 49
-0.25
 49
0.25
 49
-0.25
  0
LTYPE
  5
411
  2
DASHED
 70
0
  3
Dashed __ __ __ __ __
 72
65
 73
2
 40
0.75
 49
0.5
 49
-0.25
  0
LTYPE
  5
43B
  2
DOTTED
 70
0
  3
Dotted .  .  .  .
 72
65
 73
2
 40
0.2
 49
0.0
 49
-0.2
  0
ENDTAB
  0
TABLE
  2
STYLE
  70
4
  0
STYLE
  2
KICAD
  70
0
  40
0
  41
1
  42
1
  50
0
  71
0
  3
isocp.shx
  0
STYLE
  2
KICADB
  70
0
  40
0
  41
1
  42
1
  50
0
  71
0
  3
isocp.shx
  0
STYLE
  2
KICADI
  70
0
  40
0
  41
1
  42
1
  50
15
  71
0
  3
isocp.shx
  0
STYLE
  2
KICADBI
  70
0
  40
0
  41
1
  42
1
  50
15
  71
0
  3
isocp.shx
  0
ENDTAB
  0
TABLE
  2
LAYER
  70
1
  0
LAYER
  2
BLACK
  70
0
  62
7
  6
CONTINUOUS
  0
ENDTAB
  0
ENDSEC
  0
SECTION
  2
ENTITIES
0
LINE
8
BLACK
6
CONTINUOUS
10
30.4862
20
-116.243
11
30.803
21
-116.318
0
LINE
8
BLACK
6
CONTINUOUS
10
30.803
20
-116.318
11
31.109
21
-116.429
0
LINE
8
BLACK
6
CONTINUOUS
10
31.109
20
-116.429
11
31.4
21
-116.575
0
LINE
8
BLACK
6
CONTINUOUS
10
31.4
20
-116.575
11
31.672
21
-116.754
0
LINE
8
BLACK
6
CONTINUOUS
10
31.672
20
-116.754
11
31.9215
21
-116.963
0
LINE
8
BLACK
6
CONTINUOUS
10
31.9215
20
-116.963
11
32.1449
21
-117.2
0
LINE
8
BLACK
6
CONTINUOUS
10
32.1449
20
-117.2
11
32.3394
21
-117.461
0
LINE
8
BLACK
6
CONTINUOUS
10
32.3394
20
-117.461
11
32.5022
21
-117.743
0
LINE
8
BLACK
6
CONTINUOUS
10
32.5022
20
-117.743
11
32.6311
21
-118.042
0
LINE
8
BLACK
6
CONTINUOUS
10
32.6311
20
-118.042
11
32.7245
21
-118.354
0
LINE
8
BLACK
6
CONTINUOUS
10
32.7245
20
-118.354
11
32.7811
21
-118.675
0
LINE
8
BLACK
6
CONTINUOUS
10
32.7811
20
-118.675
11
32.8
21
-119
0
LINE
8
BLACK
6
CONTINUOUS
10
32.8
20
-119
11
32.7811
21
-119.325
0
LINE
8
BLACK
6
CONTINUOUS
10
32.7811
20
-119.325
11
32.7245
21
-119.646
0
LINE
8
BLACK
6
CONTINUOUS
10
32.7245
20
-119.646
11
32.6311
21
-119.958
0
LINE
8
BLACK
6
CONTINUOUS
10
32.6311
20
-119.958
11
32.5022
21
-120.257
0
LINE
8
BLACK
6
CONTINUOUS
10
32.5022
20
-120.257
11
32.3394
21
-120.539
0
LINE
8
BLACK
6
CONTINUOUS
10
32.3394
20
-120.539
11
32.1449
21
-120.8
0
LINE
8
BLACK
6
CONTINUOUS
10
32.1449
20
-120.8
11
31.9215
21
-121.037
0
LINE
8
BLACK
6
CONTINUOUS
10
31.9215
20
-121.037
11
31.672
21
-121.246
0
LINE
8
BLACK
6
CONTINUOUS
10
31.672
20
-121.246
11
31.4
21
-121.425
0
LINE
8
BLACK
6
CONTINUOUS
10
31.4
20
-121.425
11
31.109
21
-121.571
0
LINE
8
BLACK
6
CONTINUOUS
10
31.109
20
-121.571
11
30.803
21
-121.682
0
LINE
8
BLACK
6
CONTINUOUS
10
30.803
20
-121.682
11
30.4862
21
-121.757
0
LINE
8
BLACK
6
CONTINUOUS
10
30.4862
20
-121.757
11
30.1628
21
-121.795
0
LINE
8
BLACK
6
CONTINUOUS
10
30.1628
20
-121.795
11
29.8372
21
-121.795
0
LINE
8
BLACK
6
CONTINUOUS
10
29.8372
20
-121.795
11
29.5138
21
-121.757
0
LINE
8
BLACK
6
CONTINUOUS
10
29.5138
20
-121.757
11
29.197
21
-121.682
0
LINE
8
BLACK
6
CONTINUOUS
10
29.197
20
-121.682
11
28.891
21
-121.571
0
LINE
8
BLACK
6
CONTINUOUS
10
28.891
20
-121.571
11
28.6
21
-121.425
0
LINE
8
BLACK
6
CONTINUOUS
10
28.6
20
-121.425
11
28.328
21
-121.246
0
LINE
8
BLACK
6
CONTINUOUS
10
28.328
20
-121.246
11
28.0785
21
-121.037
0
LINE
8
BLACK
6
CONTINUOUS
10
28.0785
20
-121.037
11
27.8551
21
-120.8
0
LINE
8
BLACK
6
CONTINUOUS
10
27.8551
20
-120.8
11
27.6606
21
-120.539
0
LINE
8
BLACK
6
CONTINUOUS
10
27.6606
20
-120.539
11
27.4978
21
-120.257
0
LINE
8
BLACK
6
CONTINUOUS
10
27.4978
20
-120.257
11
27.3689
21
-119.958
0
LINE
8
BLACK
6
CONTINUOUS
10
27.3689
20
-119.958
11
27.2755
21
-119.646
0
LINE
8
BLACK
6
CONTINUOUS
10
27.2755
20
-119.646
11
27.2189
21
-119.325
0
LINE
8
BLACK
6
CONTINUOUS
10
27.2189
20
-119.325
11
27.2
21
-119
0
LINE
8
BLACK
6
CONTINUOUS
10
27.2
20
-119
11
27.2189
21
-118.675
0
LINE
8
BLACK
6
CONTINUOUS
10
27.2189
20
-118.675
11
27.2755
21
-118.354
0
LINE
8
BLACK
6
CONTINUOUS
10
27.2755
20
-118.354
11
27.3689
21
-118.042
0
LINE
8
BLACK
6
CONTINUOUS
10
27.3689
20
-118.042
11
27.4978
21
-117.743
0
LINE
8
BLACK
6
CONTINUOUS
10
27.4978
20
-117.743
11
27.6606
21
-117.461
0
LINE
8
BLACK
6
CONTINUOUS
10
27.6606
20
-117.461
11
27.8551
21
-117.2
0
LINE
8
BLACK
6
CONTINUOUS
10
27.8551
20
-117.2
11
28.0785
21
-116.963
0
LINE
8
BLACK
6
CONTINUOUS
10
28.0785
20
-116.963
11
28.328
21
-116.754
0
LINE
8
BLACK
6
CONTINUOUS
10
28.328
20
-116.754
11
28.6
21
-116.575
0
LINE
8
BLACK
6
CONTINUOUS
10
28.6
20
-116.575
11
28.891
21
-116.429
0
LINE
8
BLACK
6
CONTINUOUS
10
28.891
20
-116.429
11
29.197
21
-116.318
0
LINE
8
BLACK
6
CONTINUOUS
10
29.197
20
-116.318
11
29.5138
21
-116.243
0
LINE
8
BLACK
6
CONTINUOUS
10
29.5138
20
-116.243
11
29.8372
21
-116.205
0
LINE
8
BLACK
6
CONTINUOUS
10
29.8372
20
-116.205
11
30.1628
21
-116.205
0
LINE
8
BLACK
6
CONTINUOUS
10
30.1628
20
-116.205
11
30.4862
21
-116.243
0
LINE
8
BLACK
6
CONTINUOUS
10
105.486
20
-116.243
11
105.803
21
-116.318
0
LINE
8
BLACK
6
CONTINUOUS
10
105.803
20
-116.318
11
106.109
21
-116.429
0
LINE
8
BLACK
6
CONTINUOUS
10
106.109
20
-116.429
11
106.4
21
-116.575
0
LINE
8
BLACK
6
CONTINUOUS
10
106.4
20
-116.575
11
106.672
21
-116.754
0
LINE
8
BLACK
6
CONTINUOUS
10
106.672
20
-116.754
11
106.921
21
-116.963
0
LINE
8
BLACK
6
CONTINUOUS
10
106.921
20
-116.963
11
107.145
21
-117.2
0
LINE
8
BLACK
6
CONTINUOUS
10
107.145
20
-117.2
11
107.339
21
-117.461
0
LINE
8
BLACK
6
CONTINUOUS
10
107.339
20
-117.461
11
107.502
21
-117.743
0
LINE
8
BLACK
6
CONTINUOUS
10
107.502
20
-117.743
11
107.631
21
-118.042
0
LINE
8
BLACK
6
CONTINUOUS
10
107.631
20
-118.042
11
107.725
21
-118.354
0
LINE
8
BLACK
6
CONTINUOUS
10
107.725
20
-118.354
11
107.781
21
-118.675
0
LINE
8
BLACK
6
CONTINUOUS
10
107.781
20
-118.675
11
107.8
21
-119
0
LINE
8
BLACK
6
CONTINUOUS
10
107.8
20
-119
11
107.781
21
-119.325
0
LINE
8
BLACK
6
CONTINUOUS
10
107.781
20
-119.325
11
107.725
21
-119.646
0
LINE
8
BLACK
6
CONTINUOUS
10
107.725
20
-119.646
11
107.631
21
-119.958
0
LINE
8
BLACK
6
CONTINUOUS
10
107.631
20
-119.958
11
107.502
21
-120.257
0
LINE
8
BLACK
6
CONTINUOUS
10
107.502
20
-120.257
11
107.339
21
-120.539
0
LINE
8
BLACK
6
CONTINUOUS
10
107.339
20
-120.539
11
107.145
21
-120.8
0
LINE
8
BLACK
6
CONTINUOUS
10
107.145
20
-120.8
11
106.921
21
-121.037
0
LINE
8
BLACK
6
CONTINUOUS
10
106.921
20
-121.037
11
106.672
21
-121.246
0
LINE
8
BLACK
6
CONTINUOUS
10
106.672
20
-121.246
11
106.4
21
-121.425
0
LINE
8
BLACK
6
CONTINUOUS
10
106.4
20
-121.425
11
106.109
21
-121.571
0
LINE
8
BLACK
6
CONTINUOUS
10
106.109
20
-121.571
11
105.803
21
-121.682
0
LINE
8
BLACK
6
CONTINUOUS
10
105.803
20
-121.682
11
105.486
21
-121.757
0
LINE
8
BLACK
6
CONTINUOUS
10
105.486
20
-121.757
11
105.163
21
-121.795
0
LINE
8
BLACK
6
CONTINUOUS
10
105.163
20
-121.795
11
104.837
21
-121.795
0
LINE
8
BLACK
6
CONTINUOUS
10
104.837
20
-121.795
11
104.514
21
-121.757
0
LINE
8
BLACK
6
CONTINUOUS
10
104.514
20
-121.757
11
104.197
21
-121.682
0
LINE
8
BLACK
6
CONTINUOUS
10
104.197
20
-121.682
11
103.891
21
-121.571
0
LINE
8
BLACK
6
CONTINUOUS
10
103.891
20
-121.571
11
103.6
21
-121.425
0
LINE
8
BLACK
6
CONTINUOUS
10
103.6
20
-121.425
11
103.328
21
-121.246
0
LINE
8
BLACK
6
CONTINUOUS
10
103.328
20
-121.246
11
103.079
21
-121.037
0
LINE
8
BLACK
6
CONTINUOUS
10
103.079
20
-121.037
11
102.855
21
-120.8
0
LINE
8
BLACK
6
CONTINUOUS
10
102.855
20
-120.8
11
102.661
21
-120.539
0
LINE
8
BLACK
6
CONTINUOUS
10
102.661
20
-120.539
11
102.498
21
-120.257
0
LINE
8
BLACK
6
CONTINUOUS
10
102.498
20
-120.257
11
102.369
21
-119.958
0
LINE
8
BLACK
6
CONTINUOUS
10
102.369
20
-119.958
11
102.275
21
-119.646
0
LINE
8
BLACK
6
CONTINUOUS
10
102.275
20
-119.646
11
102.219
21
-119.325
0
LINE
8
BLACK
6
CONTINUOUS
10
102.219
20
-119.325
11
102.2
21
-119
0
LINE
8
BLACK
6
CONTINUOUS
10
102.2
20
-119
11
102.219
21
-118.675
0
LINE
8
BLACK
6
CONTINUOUS
10
102.219
20
-118.675
11
102.275
21
-118.354
0
LINE
8
BLACK
6
CONTINUOUS
10
102.275
20
-118.354
11
102.369
21
-118.042
0
LINE
8
BLACK
6
CONTINUOUS
10
102.369
20
-118.042
11
102.498
21
-117.743
0
LINE
8
BLACK
6
CONTINUOUS
10
102.498
20
-117.743
11
102.661
21
-117.461
0
LINE
8
BLACK
6
CONTINUOUS
10
102.661
20
-117.461
11
102.855
21
-117.2
0
LINE
8
BLACK
6
CONTINUOUS
10
102.855
20
-117.2
11
103.079
21
-116.963
0
LINE
8
BLACK
6
CONTINUOUS
10
103.079
20
-116.963
11
103.328
21
-116.754
0
LINE
8
BLACK
6
CONTINUOUS
10
103.328
20
-116.754
11
103.6
21
-116.575
0
LINE
8
BLACK
6
CONTINUOUS
10
103.6
20
-116.575
11
103.891
21
-116.429
0
LINE
8
BLACK
6
CONTINUOUS
10
103.891
20
-116.429
11
104.197
21
-116.318
0
LINE
8
BLACK
6
CONTINUOUS
10
104.197
20
-116.318
11
104.514
21
-116.243
0
LINE
8
BLACK
6
CONTINUOUS
10
104.514
20
-116.243
11
104.837
21
-116.205
0
LINE
8
BLACK
6
CONTINUOUS
10
104.837
20
-116.205
11
105.163
21
-116.205
0
LINE
8
BLACK
6
CONTINUOUS
10
105.163
20
-116.205
11
105.486
21
-116.243
0
LINE
8
BLACK
6
CONTINUOUS
10
180.486
20
-116.243
11
180.803
21
-116.318
0
LINE
8
BLACK
6
CONTINUOUS
10
180.803
20
-116.318
11
181.109
21
-116.429
0
LINE
8
BLACK
6
CONTINUOUS
10
181.109
20
-116.429
11
181.4
21
-116.575
0
LINE
8
BLACK
6
CONTINUOUS
10
181.4
20
-116.575
11
181.672
21
-116.754
0
LINE
8
BLACK
6
CONTINUOUS
10
181.672
20
-116.754
11
181.921
21
-116.963
0
LINE
8
BLACK
6
CONTINUOUS
10
181.921
20
-116.963
11
182.145
21
-117.2
0
LINE
8
BLACK
6
CONTINUOUS
10
182.145
20
-117.2
11
182.339
21
-117.461
0
LINE
8
BLACK
6
CONTINUOUS
10
182.339
20
-117.461
11
182.502
21
-117.743
0
LINE
8
BLACK
6
CONTINUOUS
10
182.502
20
-117.743
11
182.631
21
-118.042
0
LINE
8
BLACK
6
CONTINUOUS
10
182.631
20
-118.042
11
182.725
21
-118.354
0
LINE
8
BLACK
6
CONTINUOUS
10
182.725
20
-118.354
11
182.781
21
-118.675
0
LINE
8
BLACK
6
CONTINUOUS
10
182.781
20
-118.675
11
182.8
21
-119
0
LINE
8
BLACK
6
CONTINUOUS
10
182.8
20
-119
11
182.781
21
-119.325
0
LINE
8
BLACK
6
CONTINUOUS
10
182.781
20
-119.325
11
182.725
21
-119.646
0
LINE
8
BLACK
6
CONTINUOUS
10
182.725
20
-119.646
11
182.631
21
-119.958
0
LINE
8
BLACK
6
CONTINUOUS
10
182.631
20
-119.958
11
182.502
21
-120.257
0
LINE
8
BLACK
6
CONTINUOUS
10
182.502
20
-120.257
11
182.339
21
-120.539
0
LINE
8
BLACK
6
CONTINUOUS
10
182.339
20
-120.539
11
182.145
21
-120.8
0
LINE
8
BLACK
6
CONTINUOUS
10
182.145
20
-120.8
11
181.921
21
-121.037
0
LINE
8
BLACK
6
CONTINUOUS
10
181.921
20
-121.037
11
181.672
21
-121.246
0
LINE
8
BLACK
6
CONTINUOUS
10
181.672
20
-121.246
11
181.4
21
-121.425
0
LINE
8
BLACK
6
CONTINUOUS
10
181.4
20
-121.425
11
181.109
21
-121.571
0
LINE
8
BLACK
6
CONTINUOUS
10
181.109
20
-121.571
11
180.803
21
-121.682
0
LINE
8
BLACK
6
CONTINUOUS
10
180.803
20
-121.682
11
180.486
21
-121.757
0
LINE
8
BLACK
6
CONTINUOUS
10
180.486
20
-121.757
11
180.163
21
-121.795
0
LINE
8
BLACK
6
CONTINUOUS
10
180.163
20
-121.795
11
179.837
21
-121.795
0
LINE
8
BLACK
6
CONTINUOUS
10
179.837
20
-121.795
11
179.514
21
-121.757
0
LINE
8
BLACK
6
CONTINUOUS
10
179.514
20
-121.757
11
179.197
21
-121.682
0
LINE
8
BLACK
6
CONTINUOUS
10
179.197
20
-121.682
11
178.891
21
-121.571
0
LINE
8
BLACK
6
CONTINUOUS
10
178.891
20
-121.571
11
178.6
21
-121.425
0
LINE
8
BLACK
6
CONTINUOUS
10
178.6
20
-121.425
11
178.328
21
-121.246
0
LINE
8
BLACK
6
CONTINUOUS
10
178.328
20
-121.246
11
178.079
21
-121.037
0
LINE
8
BLACK
6
CONTINUOUS
10
178.079
20
-121.037
11
177.855
21
-120.8
0
LINE
8
BLACK
6
CONTINUOUS
10
177.855
20
-120.8
11
177.661
21
-120.539
0
LINE
8
BLACK
6
CONTINUOUS
10
177.661
20
-120.539
11
177.498
21
-120.257
0
LINE
8
BLACK
6
CONTINUOUS
10
177.498
20
-120.257
11
177.369
21
-119.958
0
LINE
8
BLACK
6
CONTINUOUS
10
177.369
20
-119.958
11
177.275
21
-119.646
0
LINE
8
BLACK
6
CONTINUOUS
10
177.275
20
-119.646
11
177.219
21
-119.325
0
LINE
8
BLACK
6
CONTINUOUS
10
177.219
20
-119.325
11
177.2
21
-119
0
LINE
8
BLACK
6
CONTINUOUS
10
177.2
20
-119
11
177.219
21
-118.675
0
LINE
8
BLACK
6
CONTINUOUS
10
177.219
20
-118.675
11
177.275
21
-118.354
0
LINE
8
BLACK
6
CONTINUOUS
10
177.275
20
-118.354
11
177.369
21
-118.042
0
LINE
8
BLACK
6
CONTINUOUS
10
177.369
20
-118.042
11
177.498
21
-117.743
0
LINE
8
BLACK
6
CONTINUOUS
10
177.498
20
-117.743
11
177.661
21
-117.461
0
LINE
8
BLACK
6
CONTINUOUS
10
177.661
20
-117.461
11
177.855
21
-117.2
0
LINE
8
BLACK
6
CONTINUOUS
10
177.855
20
-117.2
11
178.079
21
-116.963
0
LINE
8
BLACK
6
CONTINUOUS
10
178.079
20
-116.963
11
178.328
21
-116.754
0
LINE
8
BLACK
6
CONTINUOUS
10
178.328
20
-116.754
11
178.6
21
-116.575
0
LINE
8
BLACK
6
CONTINUOUS
10
178.6
20
-116.575
11
178.891
21
-116.429
0
LINE
8
BLACK
6
CONTINUOUS
10
178.891
20
-116.429
11
179.197
21
-116.318
0
LINE
8
BLACK
6
CONTINUOUS
10
179.197
20
-116.318
11
179.514
21
-116.243
0
LINE
8
BLACK
6
CONTINUOUS
10
179.514
20
-116.243
11
179.837
21
-116.205
0
LINE
8
BLACK
6
CONTINUOUS
10
179.837
20
-116.205
11
180.163
21
-116.205
0
LINE
8
BLACK
6
CONTINUOUS
10
180.163
20
-116.205
11
180.486
21
-116.243
0
LINE
8
BLACK
6
CONTINUOUS
10
30.4862
20
-64.2425
11
30.803
21
-64.3176
0
LINE
8
BLACK
6
CONTINUOUS
10
30.803
20
-64.3176
11
31.109
21
-64.429
0
LINE
8
BLACK
6
CONTINUOUS
10
31.109
20
-64.429
11
31.4
21
-64.5751
0
LINE
8
BLACK
6
CONTINUOUS
10
31.4
20
-64.5751
11
31.672
21
-64.7541
0
LINE
8
BLACK
6
CONTINUOUS
10
31.672
20
-64.7541
11
31.9215
21
-64.9634
0
LINE
8
BLACK
6
CONTINUOUS
10
31.9215
20
-64.9634
11
32.1449
21
-65.2002
0
LINE
8
BLACK
6
CONTINUOUS
10
32.1449
20
-65.2002
11
32.3394
21
-65.4614
0
LINE
8
BLACK
6
CONTINUOUS
10
32.3394
20
-65.4614
11
32.5022
21
-65.7434
0
LINE
8
BLACK
6
CONTINUOUS
10
32.5022
20
-65.7434
11
32.6311
21
-66.0423
0
LINE
8
BLACK
6
CONTINUOUS
10
32.6311
20
-66.0423
11
32.7245
21
-66.3543
0
LINE
8
BLACK
6
CONTINUOUS
10
32.7245
20
-66.3543
11
32.7811
21
-66.6749
0
LINE
8
BLACK
6
CONTINUOUS
10
32.7811
20
-66.6749
11
32.8
21
-67
0
LINE
8
BLACK
6
CONTINUOUS
10
32.8
20
-67
11
32.7811
21
-67.3251
0
LINE
8
BLACK
6
CONTINUOUS
10
32.7811
20
-67.3251
11
32.7245
21
-67.6457
0
LINE
8
BLACK
6
CONTINUOUS
10
32.7245
20
-67.6457
11
32.6311
21
-67.9577
0
LINE
8
BLACK
6
CONTINUOUS
10
32.6311
20
-67.9577
11
32.5022
21
-68.2566
0
LINE
8
BLACK
6
CONTINUOUS
10
32.5022
20
-68.2566
11
32.3394
21
-68.5386
0
LINE
8
BLACK
6
CONTINUOUS
10
32.3394
20
-68.5386
11
32.1449
21
-68.7998
0
LINE
8
BLACK
6
CONTINUOUS
10
32.1449
20
-68.7998
11
31.9215
21
-69.0366
0
LINE
8
BLACK
6
CONTINUOUS
10
31.9215
20
-69.0366
11
31.672
21
-69.2459
0
LINE
8
BLACK
6
CONTINUOUS
10
31.672
20
-69.2459
11
31.4
21
-69.4249
0
LINE
8
BLACK
6
CONTINUOUS
10
31.4
20
-69.4249
11
31.109
21
-69.571
0
LINE
8
BLACK
6
CONTINUOUS
10
31.109
20
-69.571
11
30.803
21
-69.6824
0
LINE
8
BLACK
6
CONTINUOUS
10
30.803
20
-69.6824
11
30.4862
21
-69.7575
0
LINE
8
BLACK
6
CONTINUOUS
10
30.4862
20
-69.7575
11
30.1628
21
-69.7953
0
LINE
8
BLACK
6
CONTINUOUS
10
30.1628
20
-69.7953
11
29.8372
21
-69.7953
0
LINE
8
BLACK
6
CONTINUOUS
10
29.8372
20
-69.7953
11
29.5138
21
-69.7575
0
LINE
8
BLACK
6
CONTINUOUS
10
29.5138
20
-69.7575
11
29.197
21
-69.6824
0
LINE
8
BLACK
6
CONTINUOUS
10
29.197
20
-69.6824
11
28.891
21
-69.571
0
LINE
8
BLACK
6
CONTINUOUS
10
28.891
20
-69.571
11
28.6
21
-69.4249
0
LINE
8
BLACK
6
CONTINUOUS
10
28.6
20
-69.4249
11
28.328
21
-69.2459
0
LINE
8
BLACK
6
CONTINUOUS
10
28.328
20
-69.2459
11
28.0785
21
-69.0366
0
LINE
8
BLACK
6
CONTINUOUS
10
28.0785
20
-69.0366
11
27.8551
21
-68.7998
0
LINE
8
BLACK
6
CONTINUOUS
10
27.8551
20
-68.7998
11
27.6606
21
-68.5386
0
LINE
8
BLACK
6
CONTINUOUS
10
27.6606
20
-68.5386
11
27.4978
21
-68.2566
0
LINE
8
BLACK
6
CONTINUOUS
10
27.4978
20
-68.2566
11
27.3689
21
-67.9577
0
LINE
8
BLACK
6
CONTINUOUS
10
27.3689
20
-67.9577
11
27.2755
21
-67.6457
0
LINE
8
BLACK
6
CONTINUOUS
10
27.2755
20
-67.6457
11
27.2189
21
-67.3251
0
LINE
8
BLACK
6
CONTINUOUS
10
27.2189
20
-67.3251
11
27.2
21
-67
0
LINE
8
BLACK
6
CONTINUOUS
10
27.2
20
-67
11
27.2189
21
-66.6749
0
LINE
8
BLACK
6
CONTINUOUS
10
27.2189
20
-66.6749
11
27.2755
21
-66.3543
0
LINE
8
BLACK
6
CONTINUOUS
10
27.2755
20
-66.3543
11
27.3689
21
-66.0423
0
LINE
8
BLACK
6
CONTINUOUS
10
27.3689
20
-66.0423
11
27.4978
21
-65.7434
0
LINE
8
BLACK
6
CONTINUOUS
10
27.4978
20
-65.7434
11
27.6606
21
-65.4614
0
LINE
8
BLACK
6
CONTINUOUS
10
27.6606
20
-65.4614
11
27.8551
21
-65.2002
0
LINE
8
BLACK
6
CONTINUOUS
10
27.8551
20
-65.2002
11
28.0785
21
-64.9634
0
LINE
8
BLACK
6
CONTINUOUS
10
28.0785
20
-64.9634
11
28.328
21
-64.7541
0
LINE
8
BLACK
6
CONTINUOUS
10
28.328
20
-64.7541
11
28.6
21
-64.5751
0
LINE
8
BLACK
6
CONTINUOUS
10
28.6
20
-64.5751
11
28.891
21
-64.429
0
LINE
8
BLACK
6
CONTINUOUS
10
28.891
20
-64.429
11
29.197
21
-64.3176
0
LINE
8
BLACK
6
CONTINUOUS
10
29.197
20
-64.3176
11
29.5138
21
-64.2425
0
LINE
8
BLACK
6
CONTINUOUS
10
29.5138
20
-64.2425
11
29.8372
21
-64.2047
0
LINE
8
BLACK
6
CONTINUOUS
10
29.8372
20
-64.2047
11
30.1628
21
-64.2047
0
LINE
8
BLACK
6
CONTINUOUS
10
30.1628
20
-64.2047
11
30.4862
21
-64.2425
0
LINE
8
BLACK
6
CONTINUOUS
10
105.486
20
-64.2425
11
105.803
21
-64.3176
0
LINE
8
BLACK
6
CONTINUOUS
10
105.803
20
-64.3176
11
106.109
21
-64.429
0
LINE
8
BLACK
6
CONTINUOUS
10
106.109
20
-64.429
11
106.4
21
-64.5751
0
LINE
8
BLACK
6
CONTINUOUS
10
106.4
20
-64.5751
11
106.672
21
-64.7541
0
LINE
8
BLACK
6
CONTINUOUS
10
106.672
20
-64.7541
11
106.921
21
-64.9634
0
LINE
8
BLACK
6
CONTINUOUS
10
106.921
20
-64.9634
11
107.145
21
-65.2002
0
LINE
8
BLACK
6
CONTINUOUS
10
107.145
20
-65.2002
11
107.339
21
-65.4614
0
LINE
8
BLACK
6
CONTINUOUS
10
107.339
20
-65.4614
11
107.502
21
-65.7434
0
LINE
8
BLACK
6
CONTINUOUS
10
107.502
20
-65.7434
11
107.631
21
-66.0423
0
LINE
8
BLACK
6
CONTINUOUS
10
107.631
20
-66.0423
11
107.725
21
-66.3543
0
LINE
8
BLACK
6
CONTINUOUS
10
107.725
20
-66.3543
11
107.781
21
-66.6749
0
LINE
8
BLACK
6
CONTINUOUS
10
107.781
20
-66.6749
11
107.8
21
-67
0
LINE
8
BLACK
6
CONTINUOUS
10
107.8
20
-67
11
107.781
21
-67.3251
0
LINE
8
BLACK
6
CONTINUOUS
10
107.781
20
-67.3251
11
107.725
21
-67.6457
0
LINE
8
BLACK
6
CONTINUOUS
10
107.725
20
-67.6457
11
107.631
21
-67.9577
0
LINE
8
BLACK
6
CONTINUOUS
10
107.631
20
-67.9577
11
107.502
21
-68.2566
0
LINE
8
BLACK
6
CONTINUOUS
10
107.502
20
-68.2566
11
107.339
21
-68.5386
0
LINE
8
BLACK
6
CONTINUOUS
10
107.339
20
-68.5386
11
107.145
21
-68.7998
0
LINE
8
BLACK
6
CONTINUOUS
10
107.145
20
-68.7998
11
106.921
21
-69.0366
0
LINE
8
BLACK
6
CONTINUOUS
10
106.921
20
-69.0366
11
106.672
21
-69.2459
0
LINE
8
BLACK
6
CONTINUOUS
10
106.672
20
-69.2459
11
106.4
21
-69.4249
0
LINE
8
BLACK
6
CONTINUOUS
10
106.4
20
-69.4249
11
106.109
21
-69.571
0
LINE
8
BLACK
6
CONTINUOUS
10
106.109
20
-69.571
11
105.803
21
-69.6824
0
LINE
8
BLACK
6
CONTINUOUS
10
105.803
20
-69.6824
11
105.486
21
-69.7575
0
LINE
8
BLACK
6
CONTINUOUS
10
105.486
20
-69.7575
11
105.163
21
-69.7953
0
LINE
8
BLACK
6
CONTINUOUS
10
105.163
20
-69.7953
11
104.837
21
-69.7953
0
LINE
8
BLACK
6
CONTINUOUS
10
104.837
20
-69.7953
11
104.514
21
-69.7575
0
LINE
8
BLACK
6
CONTINUOUS
10
104.514
20
-69.7575
11
104.197
21
-69.6824
0
LINE
8
BLACK
6
CONTINUOUS
10
104.197
20
-69.6824
11
103.891
21
-69.571
0
LINE
8
BLACK
6
CONTINUOUS
10
103.891
20
-69.571
11
103.6
21
-69.4249
0
LINE
8
BLACK
6
CONTINUOUS
10
103.6
20
-69.4249
11
103.328
21
-69.2459
0
LINE
8
BLACK
6
CONTINUOUS
10
103.328
20
-69.2459
11
103.079
21
-69.0366
0
LINE
8
BLACK
6
CONTINUOUS
10
103.079
20
-69.0366
11
102.855
21
-68.7998
0
LINE
8
BLACK
6
CONTINUOUS
10
102.855
20
-68.7998
11
102.661
21
-68.5386
0
LINE
8
BLACK
6
CONTINUOUS
10
102.661
20
-68.5386
11
102.498
21
-68.2566
0
LINE
8
BLACK
6
CONTINUOUS
10
102.498
20
-68.2566
11
102.369
21
-67.9577
0
LINE
8
BLACK
6
CONTINUOUS
10
102.369
20
-67.9577
11
102.275
21
-67.6457
0
LINE
8
BLACK
6
CONTINUOUS
10
102.275
20
-67.6457
11
102.219
21
-67.3251
0
LINE
8
BLACK
6
CONTINUOUS
10
102.219
20
-67.3251
11
102.2
21
-67
0
LINE
8
BLACK
6
CONTINUOUS
10
102.2
20
-67
11
102.219
21
-66.6749
0
LINE
8
BLACK
6
CONTINUOUS
10
102.219
20
-66.6749
11
102.275
21
-66.3543
0
LINE
8
BLACK
6
CONTINUOUS
10
102.275
20
-66.3543
11
102.369
21
-66.0423
0
LINE
8
BLACK
6
CONTINUOUS
10
102.369
20
-66.0423
11
102.498
21
-65.7434
0
LINE
8
BLACK
6
CONTINUOUS
10
102.498
20
-65.7434
11
102.661
21
-65.4614
0
LINE
8
BLACK
6
CONTINUOUS
10
102.661
20
-65.4614
11
102.855
21
-65.2002
0
LINE
8
BLACK
6
CONTINUOUS
10
102.855
20
-65.2002
11
103.079
21
-64.9634
0
LINE
8
BLACK
6
CONTINUOUS
10
103.079
20
-64.9634
11
103.328
21
-64.7541
0
LINE
8
BLACK
6
CONTINUOUS
10
103.328
20
-64.7541
11
103.6
21
-64.5751
0
LINE
8
BLACK
6
CONTINUOUS
10
103.6
20
-64.5751
11
103.891
21
-64.429
0
LINE
8
BLACK
6
CONTINUOUS
10
103.891
20
-64.429
11
104.197
21
-64.3176
0
LINE
8
BLACK
6
CONTINUOUS
10
104.197
20
-64.3176
11
104.514
21
-64.2425
0
LINE
8
BLACK
6
CONTINUOUS
10
104.514
20
-64.2425
11
104.837
21
-64.2047
0
LINE
8
BLACK
6
CONTINUOUS
10
104.837
20
-64.2047
11
105.163
21
-64.2047
0
LINE
8
BLACK
6
CONTINUOUS
10
105.163
20
-64.2047
11
105.486
21
-64.2425
0
LINE
8
BLACK
6
CONTINUOUS
10
180.486
20
-64.2425
11
180.803
21
-64.3176
0
LINE
8
BLACK
6
CONTINUOUS
10
180.803
20
-64.3176
11
181.109
21
-64.429
0
LINE
8
BLACK
6
CONTINUOUS
10
181.109
20
-64.429
11
181.4
21
-64.5751
0
LINE
8
BLACK
6
CONTINUOUS
10
181.4
20
-64.5751
11
181.672
21
-64.7541
0
LINE
8
BLACK
6
CONTINUOUS
10
181.672
20
-64.7541
11
181.921
21
-64.9634
0
LINE
8
BLACK
6
CONTINUOUS
10
181.921
20
-64.9634
11
182.145
21
-65.2002
0
LINE
8
BLACK
6
CONTINUOUS
10
182.145
20
-65.2002
11
182.339
21
-65.4614
0
LINE
8
BLACK
6
CONTINUOUS
10
182.339
20
-65.4614
11
182.502
21
-65.7434
0
LINE
8
BLACK
6
CONTINUOUS
10
182.502
20
-65.7434
11
182.631
21
-66.0423
0
LINE
8
BLACK
6
CONTINUOUS
10
182.631
20
-66.0423
11
182.725
21
-66.3543
0
LINE
8
BLACK
6
CONTINUOUS
10
182.725
20
-66.3543
11
182.781
21
-66.6749
0
LINE
8
BLACK
6
CONTINUOUS
10
182.781
20
-66.6749
11
182.8
21
-67
0
LINE
8
BLACK
6
CONTINUOUS
10
182.8
20
-67
11
182.781
21
-67.3251
0
LINE
8
BLACK
6
CONTINUOUS
10
182.781
20
-67.3251
11
182.725
21
-67.6457
0
LINE
8
BLACK
6
CONTINUOUS
10
182.725
20
-67.6457
11
182.631
21
-67.9577
0
LINE
8
BLACK
6
CONTINUOUS
10
182.631
20
-67.9577
11
182.502
21
-68.2566
0
LINE
8
BLACK
6
CONTINUOUS
10
182.502
20
-68.2566
11
182.339
21
-68.5386
0
LINE
8
BLACK
6
CONTINUOUS
10
182.339
20
-68.5386
11
182.145
21
-68.7998
0
LINE
8
BLACK
6
CONTINUOUS
10
182.145
20
-68.7998
11
181.921
21
-69.0366
0
LINE
8
BLACK
6
CONTINUOUS
10
181.921
20
-69.0366
11
181.672
21
-69.2459
0
LINE
8
BLACK
6
CONTINUOUS
10
181.672
20
-69.2459
11
181.4
21
-69.4249
0
LINE
8
BLACK
6
CONTINUOUS
10
181.4
20
-69.4249
11
181.109
21
-69.571
0
LINE
8
BLACK
6
CONTINUOUS
10
181.109
20
-69.571
11
180.803
21
-69.6824
0
LINE
8
BLACK
6
CONTINUOUS
10
180.803
20
-69.6824
11
180.486
21
-69.7575
0
LINE
8
BLACK
6
CONTINUOUS
10
180.486
20
-69.7575
11
180.163
21
-69.7953
0
LINE
8
BLACK
6
CONTINUOUS
10
180.163
20
-69.7953
11
179.837
21
-69.7953
0
LINE
8
BLACK
6
CONTINUOUS
10
179.837
20
-69.7953
11
179.514
21
-69.7575
0
LINE
8
BLACK
6
CONTINUOUS
10
179.514
20
-69.7575
11
179.197
21
-69.6824
0
LINE
8
BLACK
6
CONTINUOUS
10
179.197
20
-69.6824
11
178.891
21
-69.571
0
LINE
8
BLACK
6
CONTINUOUS
10
178.891
20
-69.571
11
178.6
21
-69.4249
0
LINE
8
BLACK
6
CONTINUOUS
10
178.6
20
-69.4249
11
178.328
21
-69.2459
0
LINE
8
BLACK
6
CONTINUOUS
10
178.328
20
-69.2459
11
178.079
21
-69.0366
0
LINE
8
BLACK
6
CONTINUOUS
10
178.079
20
-69.0366
11
177.855
21
-68.7998
0
LINE
8
BLACK
6
CONTINUOUS
10
177.855
20
-68.7998
11
177.661
21
-68.5386
0
LINE
8
BLACK
6
CONTINUOUS
10
177.661
20
-68.5386
11
177.498
21
-68.2566
0
LINE
8
BLACK
6
CONTINUOUS
10
177.498
20
-68.2566
11
177.369
21
-67.9577
0
LINE
8
BLACK
6
CONTINUOUS
10
177.369
20
-67.9577
11
177.275
21
-67.6457
0
LINE
8
BLACK
6
CONTINUOUS
10
177.275
20
-67.6457
11
177.219
21
-67.3251
0
LINE
8
BLACK
6
CONTINUOUS
10
177.219
20
-67.3251
11
177.2
21
-67
0
LINE
8
BLACK
6
CONTINUOUS
10
177.2
20
-67
11
177.219
21
-66.6749
0
LINE
8
BLACK
6
CONTINUOUS
10
177.219
20
-66.6749
11
177.275
21
-66.3543
0
LINE
8
BLACK
6
CONTINUOUS
10
177.275
20
-66.3543
11
177.369
21
-66.0423
0
LINE
8
BLACK
6
CONTINUOUS
10
177.369
20
-66.0423
11
177.498
21
-65.7434
0
LINE
8
BLACK
6
CONTINUOUS
10
177.498
20
-65.7434
11
177.661
21
-65.4614
0
LINE
8
BLACK
6
CONTINUOUS
10
177.661
20
-65.4614
11
177.855
21
-65.2002
0
LINE
8
BLACK
6
CONTINUOUS
10
177.855
20
-65.2002
11
178.079
21
-64.9634
0
LINE
8
BLACK
6
CONTINUOUS
10
178.079
20
-64.9634
11
178.328
21
-64.7541
0
LINE
8
BLACK
6
CONTINUOUS
10
178.328
20
-64.7541
11
178.6
21
-64.5751
0
LINE
8
BLACK
6
CONTINUOUS
10
178.6
20
-64.5751
11
178.891
21
-64.429
0
LINE
8
BLACK
6
CONTINUOUS
10
178.891
20
-64.429
11
179.197
21
-64.3176
0
LINE
8
BLACK
6
CONTINUOUS
10
179.197
20
-64.3176
11
179.514
21
-64.2425
0
LINE
8
BLACK
6
CONTINUOUS
10
179.514
20
-64.2425
11
179.837
21
-64.2047
0
LINE
8
BLACK
6
CONTINUOUS
10
179.837
20
-64.2047
11
180.163
21
-64.2047
0
LINE
8
BLACK
6
CONTINUOUS
10
180.163
20
-64.2047
11
180.486
21
-64.2425
  0
ENDSEC
  0
EOF
