  0
SECTION
  2
HEADER
  9
$ANGBASE
  50
0.0
  9
$ANGDIR
  70
1
  9
$MEASUREMENT
  70
1
  0
ENDSEC
  0
SECTION
  2
TABLES
  0
TABLE
  2
LTYPE
  70
4
  0
LTYPE
  5
40F
  2
CONTINUOUS
  70
0
  3
Solid line
  72
65
  73
0
  40
0.0
  0
LTYPE
  5
410
  2
DASHDOT
 70
0
  3
Dash Dot ____ _ ____ _
 72
65
 73
4
 40
2.0
 49
1.25
 49
-0.25
 49
0.25
 49
-0.25
  0
LTYPE
  5
411
  2
DASHED
 70
0
  3
Dashed __ __ __ __ __
 72
65
 73
2
 40
0.75
 49
0.5
 49
-0.25
  0
LTYPE
  5
43B
  2
DOTTED
 70
0
  3
Dotted .  .  .  .
 72
65
 73
2
 40
0.2
 49
0.0
 49
-0.2
  0
ENDTAB
  0
TABLE
  2
STYLE
  70
4
  0
STYLE
  2
KICAD
  70
0
  40
0
  41
1
  42
1
  50
0
  71
0
  3
isocp.shx
  0
STYLE
  2
KICADB
  70
0
  40
0
  41
1
  42
1
  50
0
  71
0
  3
isocp.shx
  0
STYLE
  2
KICADI
  70
0
  40
0
  41
1
  42
1
  50
15
  71
0
  3
isocp.shx
  0
STYLE
  2
KICADBI
  70
0
  40
0
  41
1
  42
1
  50
15
  71
0
  3
isocp.shx
  0
ENDTAB
  0
TABLE
  2
LAYER
  70
1
  0
LAYER
  2
BLACK
  70
0
  62
7
  6
CONTINUOUS
  0
ENDTAB
  0
ENDSEC
  0
SECTION
  2
ENTITIES
0
LINE
8
BLACK
6
CONTINUOUS
10
24
20
-122.4
11
22
21
-122.4
0
LINE
8
BLACK
6
CONTINUOUS
10
22
20
-122.4
11
22
21
-120.6
0
LINE
8
BLACK
6
CONTINUOUS
10
22
20
-120.6
11
24
21
-120.6
0
LINE
8
BLACK
6
CONTINUOUS
10
24
20
-120.6
11
24
21
-122.4
0
LINE
8
BLACK
6
CONTINUOUS
10
38
20
-122.4
11
36
21
-122.4
0
LINE
8
BLACK
6
CONTINUOUS
10
36
20
-122.4
11
36
21
-120.6
0
LINE
8
BLACK
6
CONTINUOUS
10
36
20
-120.6
11
38
21
-120.6
0
LINE
8
BLACK
6
CONTINUOUS
10
38
20
-120.6
11
38
21
-122.4
0
LINE
8
BLACK
6
CONTINUOUS
10
99
20
-122.4
11
97
21
-122.4
0
LINE
8
BLACK
6
CONTINUOUS
10
97
20
-122.4
11
97
21
-120.6
0
LINE
8
BLACK
6
CONTINUOUS
10
97
20
-120.6
11
99
21
-120.6
0
LINE
8
BLACK
6
CONTINUOUS
10
99
20
-120.6
11
99
21
-122.4
0
LINE
8
BLACK
6
CONTINUOUS
10
113
20
-122.4
11
111
21
-122.4
0
LINE
8
BLACK
6
CONTINUOUS
10
111
20
-122.4
11
111
21
-120.6
0
LINE
8
BLACK
6
CONTINUOUS
10
111
20
-120.6
11
113
21
-120.6
0
LINE
8
BLACK
6
CONTINUOUS
10
113
20
-120.6
11
113
21
-122.4
0
LINE
8
BLACK
6
CONTINUOUS
10
174
20
-122.4
11
172
21
-122.4
0
LINE
8
BLACK
6
CONTINUOUS
10
172
20
-122.4
11
172
21
-120.6
0
LINE
8
BLACK
6
CONTINUOUS
10
172
20
-120.6
11
174
21
-120.6
0
LINE
8
BLACK
6
CONTINUOUS
10
174
20
-120.6
11
174
21
-122.4
0
LINE
8
BLACK
6
CONTINUOUS
10
188
20
-122.4
11
186
21
-122.4
0
LINE
8
BLACK
6
CONTINUOUS
10
186
20
-122.4
11
186
21
-120.6
0
LINE
8
BLACK
6
CONTINUOUS
10
186
20
-120.6
11
188
21
-120.6
0
LINE
8
BLACK
6
CONTINUOUS
10
188
20
-120.6
11
188
21
-122.4
0
LINE
8
BLACK
6
CONTINUOUS
10
30.4862
20
-116.243
11
30.803
21
-116.318
0
LINE
8
BLACK
6
CONTINUOUS
10
30.803
20
-116.318
11
31.109
21
-116.429
0
LINE
8
BLACK
6
CONTINUOUS
10
31.109
20
-116.429
11
31.4
21
-116.575
0
LINE
8
BLACK
6
CONTINUOUS
10
31.4
20
-116.575
11
31.672
21
-116.754
0
LINE
8
BLACK
6
CONTINUOUS
10
31.672
20
-116.754
11
31.9215
21
-116.963
0
LINE
8
BLACK
6
CONTINUOUS
10
31.9215
20
-116.963
11
32.1449
21
-117.2
0
LINE
8
BLACK
6
CONTINUOUS
10
32.1449
20
-117.2
11
32.3394
21
-117.461
0
LINE
8
BLACK
6
CONTINUOUS
10
32.3394
20
-117.461
11
32.5022
21
-117.743
0
LINE
8
BLACK
6
CONTINUOUS
10
32.5022
20
-117.743
11
32.6311
21
-118.042
0
LINE
8
BLACK
6
CONTINUOUS
10
32.6311
20
-118.042
11
32.7245
21
-118.354
0
LINE
8
BLACK
6
CONTINUOUS
10
32.7245
20
-118.354
11
32.7811
21
-118.675
0
LINE
8
BLACK
6
CONTINUOUS
10
32.7811
20
-118.675
11
32.8
21
-119
0
LINE
8
BLACK
6
CONTINUOUS
10
32.8
20
-119
11
32.7811
21
-119.325
0
LINE
8
BLACK
6
CONTINUOUS
10
32.7811
20
-119.325
11
32.7245
21
-119.646
0
LINE
8
BLACK
6
CONTINUOUS
10
32.7245
20
-119.646
11
32.6311
21
-119.958
0
LINE
8
BLACK
6
CONTINUOUS
10
32.6311
20
-119.958
11
32.5022
21
-120.257
0
LINE
8
BLACK
6
CONTINUOUS
10
32.5022
20
-120.257
11
32.3394
21
-120.539
0
LINE
8
BLACK
6
CONTINUOUS
10
32.3394
20
-120.539
11
32.1449
21
-120.8
0
LINE
8
BLACK
6
CONTINUOUS
10
32.1449
20
-120.8
11
31.9215
21
-121.037
0
LINE
8
BLACK
6
CONTINUOUS
10
31.9215
20
-121.037
11
31.672
21
-121.246
0
LINE
8
BLACK
6
CONTINUOUS
10
31.672
20
-121.246
11
31.4
21
-121.425
0
LINE
8
BLACK
6
CONTINUOUS
10
31.4
20
-121.425
11
31.109
21
-121.571
0
LINE
8
BLACK
6
CONTINUOUS
10
31.109
20
-121.571
11
30.803
21
-121.682
0
LINE
8
BLACK
6
CONTINUOUS
10
30.803
20
-121.682
11
30.4862
21
-121.757
0
LINE
8
BLACK
6
CONTINUOUS
10
30.4862
20
-121.757
11
30.1628
21
-121.795
0
LINE
8
BLACK
6
CONTINUOUS
10
30.1628
20
-121.795
11
29.8372
21
-121.795
0
LINE
8
BLACK
6
CONTINUOUS
10
29.8372
20
-121.795
11
29.5138
21
-121.757
0
LINE
8
BLACK
6
CONTINUOUS
10
29.5138
20
-121.757
11
29.197
21
-121.682
0
LINE
8
BLACK
6
CONTINUOUS
10
29.197
20
-121.682
11
28.891
21
-121.571
0
LINE
8
BLACK
6
CONTINUOUS
10
28.891
20
-121.571
11
28.6
21
-121.425
0
LINE
8
BLACK
6
CONTINUOUS
10
28.6
20
-121.425
11
28.328
21
-121.246
0
LINE
8
BLACK
6
CONTINUOUS
10
28.328
20
-121.246
11
28.0785
21
-121.037
0
LINE
8
BLACK
6
CONTINUOUS
10
28.0785
20
-121.037
11
27.8551
21
-120.8
0
LINE
8
BLACK
6
CONTINUOUS
10
27.8551
20
-120.8
11
27.6606
21
-120.539
0
LINE
8
BLACK
6
CONTINUOUS
10
27.6606
20
-120.539
11
27.4978
21
-120.257
0
LINE
8
BLACK
6
CONTINUOUS
10
27.4978
20
-120.257
11
27.3689
21
-119.958
0
LINE
8
BLACK
6
CONTINUOUS
10
27.3689
20
-119.958
11
27.2755
21
-119.646
0
LINE
8
BLACK
6
CONTINUOUS
10
27.2755
20
-119.646
11
27.2189
21
-119.325
0
LINE
8
BLACK
6
CONTINUOUS
10
27.2189
20
-119.325
11
27.2
21
-119
0
LINE
8
BLACK
6
CONTINUOUS
10
27.2
20
-119
11
27.2189
21
-118.675
0
LINE
8
BLACK
6
CONTINUOUS
10
27.2189
20
-118.675
11
27.2755
21
-118.354
0
LINE
8
BLACK
6
CONTINUOUS
10
27.2755
20
-118.354
11
27.3689
21
-118.042
0
LINE
8
BLACK
6
CONTINUOUS
10
27.3689
20
-118.042
11
27.4978
21
-117.743
0
LINE
8
BLACK
6
CONTINUOUS
10
27.4978
20
-117.743
11
27.6606
21
-117.461
0
LINE
8
BLACK
6
CONTINUOUS
10
27.6606
20
-117.461
11
27.8551
21
-117.2
0
LINE
8
BLACK
6
CONTINUOUS
10
27.8551
20
-117.2
11
28.0785
21
-116.963
0
LINE
8
BLACK
6
CONTINUOUS
10
28.0785
20
-116.963
11
28.328
21
-116.754
0
LINE
8
BLACK
6
CONTINUOUS
10
28.328
20
-116.754
11
28.6
21
-116.575
0
LINE
8
BLACK
6
CONTINUOUS
10
28.6
20
-116.575
11
28.891
21
-116.429
0
LINE
8
BLACK
6
CONTINUOUS
10
28.891
20
-116.429
11
29.197
21
-116.318
0
LINE
8
BLACK
6
CONTINUOUS
10
29.197
20
-116.318
11
29.5138
21
-116.243
0
LINE
8
BLACK
6
CONTINUOUS
10
29.5138
20
-116.243
11
29.8372
21
-116.205
0
LINE
8
BLACK
6
CONTINUOUS
10
29.8372
20
-116.205
11
30.1628
21
-116.205
0
LINE
8
BLACK
6
CONTINUOUS
10
30.1628
20
-116.205
11
30.4862
21
-116.243
0
LINE
8
BLACK
6
CONTINUOUS
10
105.486
20
-116.243
11
105.803
21
-116.318
0
LINE
8
BLACK
6
CONTINUOUS
10
105.803
20
-116.318
11
106.109
21
-116.429
0
LINE
8
BLACK
6
CONTINUOUS
10
106.109
20
-116.429
11
106.4
21
-116.575
0
LINE
8
BLACK
6
CONTINUOUS
10
106.4
20
-116.575
11
106.672
21
-116.754
0
LINE
8
BLACK
6
CONTINUOUS
10
106.672
20
-116.754
11
106.921
21
-116.963
0
LINE
8
BLACK
6
CONTINUOUS
10
106.921
20
-116.963
11
107.145
21
-117.2
0
LINE
8
BLACK
6
CONTINUOUS
10
107.145
20
-117.2
11
107.339
21
-117.461
0
LINE
8
BLACK
6
CONTINUOUS
10
107.339
20
-117.461
11
107.502
21
-117.743
0
LINE
8
BLACK
6
CONTINUOUS
10
107.502
20
-117.743
11
107.631
21
-118.042
0
LINE
8
BLACK
6
CONTINUOUS
10
107.631
20
-118.042
11
107.725
21
-118.354
0
LINE
8
BLACK
6
CONTINUOUS
10
107.725
20
-118.354
11
107.781
21
-118.675
0
LINE
8
BLACK
6
CONTINUOUS
10
107.781
20
-118.675
11
107.8
21
-119
0
LINE
8
BLACK
6
CONTINUOUS
10
107.8
20
-119
11
107.781
21
-119.325
0
LINE
8
BLACK
6
CONTINUOUS
10
107.781
20
-119.325
11
107.725
21
-119.646
0
LINE
8
BLACK
6
CONTINUOUS
10
107.725
20
-119.646
11
107.631
21
-119.958
0
LINE
8
BLACK
6
CONTINUOUS
10
107.631
20
-119.958
11
107.502
21
-120.257
0
LINE
8
BLACK
6
CONTINUOUS
10
107.502
20
-120.257
11
107.339
21
-120.539
0
LINE
8
BLACK
6
CONTINUOUS
10
107.339
20
-120.539
11
107.145
21
-120.8
0
LINE
8
BLACK
6
CONTINUOUS
10
107.145
20
-120.8
11
106.921
21
-121.037
0
LINE
8
BLACK
6
CONTINUOUS
10
106.921
20
-121.037
11
106.672
21
-121.246
0
LINE
8
BLACK
6
CONTINUOUS
10
106.672
20
-121.246
11
106.4
21
-121.425
0
LINE
8
BLACK
6
CONTINUOUS
10
106.4
20
-121.425
11
106.109
21
-121.571
0
LINE
8
BLACK
6
CONTINUOUS
10
106.109
20
-121.571
11
105.803
21
-121.682
0
LINE
8
BLACK
6
CONTINUOUS
10
105.803
20
-121.682
11
105.486
21
-121.757
0
LINE
8
BLACK
6
CONTINUOUS
10
105.486
20
-121.757
11
105.163
21
-121.795
0
LINE
8
BLACK
6
CONTINUOUS
10
105.163
20
-121.795
11
104.837
21
-121.795
0
LINE
8
BLACK
6
CONTINUOUS
10
104.837
20
-121.795
11
104.514
21
-121.757
0
LINE
8
BLACK
6
CONTINUOUS
10
104.514
20
-121.757
11
104.197
21
-121.682
0
LINE
8
BLACK
6
CONTINUOUS
10
104.197
20
-121.682
11
103.891
21
-121.571
0
LINE
8
BLACK
6
CONTINUOUS
10
103.891
20
-121.571
11
103.6
21
-121.425
0
LINE
8
BLACK
6
CONTINUOUS
10
103.6
20
-121.425
11
103.328
21
-121.246
0
LINE
8
BLACK
6
CONTINUOUS
10
103.328
20
-121.246
11
103.079
21
-121.037
0
LINE
8
BLACK
6
CONTINUOUS
10
103.079
20
-121.037
11
102.855
21
-120.8
0
LINE
8
BLACK
6
CONTINUOUS
10
102.855
20
-120.8
11
102.661
21
-120.539
0
LINE
8
BLACK
6
CONTINUOUS
10
102.661
20
-120.539
11
102.498
21
-120.257
0
LINE
8
BLACK
6
CONTINUOUS
10
102.498
20
-120.257
11
102.369
21
-119.958
0
LINE
8
BLACK
6
CONTINUOUS
10
102.369
20
-119.958
11
102.275
21
-119.646
0
LINE
8
BLACK
6
CONTINUOUS
10
102.275
20
-119.646
11
102.219
21
-119.325
0
LINE
8
BLACK
6
CONTINUOUS
10
102.219
20
-119.325
11
102.2
21
-119
0
LINE
8
BLACK
6
CONTINUOUS
10
102.2
20
-119
11
102.219
21
-118.675
0
LINE
8
BLACK
6
CONTINUOUS
10
102.219
20
-118.675
11
102.275
21
-118.354
0
LINE
8
BLACK
6
CONTINUOUS
10
102.275
20
-118.354
11
102.369
21
-118.042
0
LINE
8
BLACK
6
CONTINUOUS
10
102.369
20
-118.042
11
102.498
21
-117.743
0
LINE
8
BLACK
6
CONTINUOUS
10
102.498
20
-117.743
11
102.661
21
-117.461
0
LINE
8
BLACK
6
CONTINUOUS
10
102.661
20
-117.461
11
102.855
21
-117.2
0
LINE
8
BLACK
6
CONTINUOUS
10
102.855
20
-117.2
11
103.079
21
-116.963
0
LINE
8
BLACK
6
CONTINUOUS
10
103.079
20
-116.963
11
103.328
21
-116.754
0
LINE
8
BLACK
6
CONTINUOUS
10
103.328
20
-116.754
11
103.6
21
-116.575
0
LINE
8
BLACK
6
CONTINUOUS
10
103.6
20
-116.575
11
103.891
21
-116.429
0
LINE
8
BLACK
6
CONTINUOUS
10
103.891
20
-116.429
11
104.197
21
-116.318
0
LINE
8
BLACK
6
CONTINUOUS
10
104.197
20
-116.318
11
104.514
21
-116.243
0
LINE
8
BLACK
6
CONTINUOUS
10
104.514
20
-116.243
11
104.837
21
-116.205
0
LINE
8
BLACK
6
CONTINUOUS
10
104.837
20
-116.205
11
105.163
21
-116.205
0
LINE
8
BLACK
6
CONTINUOUS
10
105.163
20
-116.205
11
105.486
21
-116.243
0
LINE
8
BLACK
6
CONTINUOUS
10
180.486
20
-116.243
11
180.803
21
-116.318
0
LINE
8
BLACK
6
CONTINUOUS
10
180.803
20
-116.318
11
181.109
21
-116.429
0
LINE
8
BLACK
6
CONTINUOUS
10
181.109
20
-116.429
11
181.4
21
-116.575
0
LINE
8
BLACK
6
CONTINUOUS
10
181.4
20
-116.575
11
181.672
21
-116.754
0
LINE
8
BLACK
6
CONTINUOUS
10
181.672
20
-116.754
11
181.921
21
-116.963
0
LINE
8
BLACK
6
CONTINUOUS
10
181.921
20
-116.963
11
182.145
21
-117.2
0
LINE
8
BLACK
6
CONTINUOUS
10
182.145
20
-117.2
11
182.339
21
-117.461
0
LINE
8
BLACK
6
CONTINUOUS
10
182.339
20
-117.461
11
182.502
21
-117.743
0
LINE
8
BLACK
6
CONTINUOUS
10
182.502
20
-117.743
11
182.631
21
-118.042
0
LINE
8
BLACK
6
CONTINUOUS
10
182.631
20
-118.042
11
182.725
21
-118.354
0
LINE
8
BLACK
6
CONTINUOUS
10
182.725
20
-118.354
11
182.781
21
-118.675
0
LINE
8
BLACK
6
CONTINUOUS
10
182.781
20
-118.675
11
182.8
21
-119
0
LINE
8
BLACK
6
CONTINUOUS
10
182.8
20
-119
11
182.781
21
-119.325
0
LINE
8
BLACK
6
CONTINUOUS
10
182.781
20
-119.325
11
182.725
21
-119.646
0
LINE
8
BLACK
6
CONTINUOUS
10
182.725
20
-119.646
11
182.631
21
-119.958
0
LINE
8
BLACK
6
CONTINUOUS
10
182.631
20
-119.958
11
182.502
21
-120.257
0
LINE
8
BLACK
6
CONTINUOUS
10
182.502
20
-120.257
11
182.339
21
-120.539
0
LINE
8
BLACK
6
CONTINUOUS
10
182.339
20
-120.539
11
182.145
21
-120.8
0
LINE
8
BLACK
6
CONTINUOUS
10
182.145
20
-120.8
11
181.921
21
-121.037
0
LINE
8
BLACK
6
CONTINUOUS
10
181.921
20
-121.037
11
181.672
21
-121.246
0
LINE
8
BLACK
6
CONTINUOUS
10
181.672
20
-121.246
11
181.4
21
-121.425
0
LINE
8
BLACK
6
CONTINUOUS
10
181.4
20
-121.425
11
181.109
21
-121.571
0
LINE
8
BLACK
6
CONTINUOUS
10
181.109
20
-121.571
11
180.803
21
-121.682
0
LINE
8
BLACK
6
CONTINUOUS
10
180.803
20
-121.682
11
180.486
21
-121.757
0
LINE
8
BLACK
6
CONTINUOUS
10
180.486
20
-121.757
11
180.163
21
-121.795
0
LINE
8
BLACK
6
CONTINUOUS
10
180.163
20
-121.795
11
179.837
21
-121.795
0
LINE
8
BLACK
6
CONTINUOUS
10
179.837
20
-121.795
11
179.514
21
-121.757
0
LINE
8
BLACK
6
CONTINUOUS
10
179.514
20
-121.757
11
179.197
21
-121.682
0
LINE
8
BLACK
6
CONTINUOUS
10
179.197
20
-121.682
11
178.891
21
-121.571
0
LINE
8
BLACK
6
CONTINUOUS
10
178.891
20
-121.571
11
178.6
21
-121.425
0
LINE
8
BLACK
6
CONTINUOUS
10
178.6
20
-121.425
11
178.328
21
-121.246
0
LINE
8
BLACK
6
CONTINUOUS
10
178.328
20
-121.246
11
178.079
21
-121.037
0
LINE
8
BLACK
6
CONTINUOUS
10
178.079
20
-121.037
11
177.855
21
-120.8
0
LINE
8
BLACK
6
CONTINUOUS
10
177.855
20
-120.8
11
177.661
21
-120.539
0
LINE
8
BLACK
6
CONTINUOUS
10
177.661
20
-120.539
11
177.498
21
-120.257
0
LINE
8
BLACK
6
CONTINUOUS
10
177.498
20
-120.257
11
177.369
21
-119.958
0
LINE
8
BLACK
6
CONTINUOUS
10
177.369
20
-119.958
11
177.275
21
-119.646
0
LINE
8
BLACK
6
CONTINUOUS
10
177.275
20
-119.646
11
177.219
21
-119.325
0
LINE
8
BLACK
6
CONTINUOUS
10
177.219
20
-119.325
11
177.2
21
-119
0
LINE
8
BLACK
6
CONTINUOUS
10
177.2
20
-119
11
177.219
21
-118.675
0
LINE
8
BLACK
6
CONTINUOUS
10
177.219
20
-118.675
11
177.275
21
-118.354
0
LINE
8
BLACK
6
CONTINUOUS
10
177.275
20
-118.354
11
177.369
21
-118.042
0
LINE
8
BLACK
6
CONTINUOUS
10
177.369
20
-118.042
11
177.498
21
-117.743
0
LINE
8
BLACK
6
CONTINUOUS
10
177.498
20
-117.743
11
177.661
21
-117.461
0
LINE
8
BLACK
6
CONTINUOUS
10
177.661
20
-117.461
11
177.855
21
-117.2
0
LINE
8
BLACK
6
CONTINUOUS
10
177.855
20
-117.2
11
178.079
21
-116.963
0
LINE
8
BLACK
6
CONTINUOUS
10
178.079
20
-116.963
11
178.328
21
-116.754
0
LINE
8
BLACK
6
CONTINUOUS
10
178.328
20
-116.754
11
178.6
21
-116.575
0
LINE
8
BLACK
6
CONTINUOUS
10
178.6
20
-116.575
11
178.891
21
-116.429
0
LINE
8
BLACK
6
CONTINUOUS
10
178.891
20
-116.429
11
179.197
21
-116.318
0
LINE
8
BLACK
6
CONTINUOUS
10
179.197
20
-116.318
11
179.514
21
-116.243
0
LINE
8
BLACK
6
CONTINUOUS
10
179.514
20
-116.243
11
179.837
21
-116.205
0
LINE
8
BLACK
6
CONTINUOUS
10
179.837
20
-116.205
11
180.163
21
-116.205
0
LINE
8
BLACK
6
CONTINUOUS
10
180.163
20
-116.205
11
180.486
21
-116.243
0
LINE
8
BLACK
6
CONTINUOUS
10
24
20
-117.4
11
22
21
-117.4
0
LINE
8
BLACK
6
CONTINUOUS
10
22
20
-117.4
11
22
21
-115.6
0
LINE
8
BLACK
6
CONTINUOUS
10
22
20
-115.6
11
24
21
-115.6
0
LINE
8
BLACK
6
CONTINUOUS
10
24
20
-115.6
11
24
21
-117.4
0
LINE
8
BLACK
6
CONTINUOUS
10
38
20
-117.4
11
36
21
-117.4
0
LINE
8
BLACK
6
CONTINUOUS
10
36
20
-117.4
11
36
21
-115.6
0
LINE
8
BLACK
6
CONTINUOUS
10
36
20
-115.6
11
38
21
-115.6
0
LINE
8
BLACK
6
CONTINUOUS
10
38
20
-115.6
11
38
21
-117.4
0
LINE
8
BLACK
6
CONTINUOUS
10
99
20
-117.4
11
97
21
-117.4
0
LINE
8
BLACK
6
CONTINUOUS
10
97
20
-117.4
11
97
21
-115.6
0
LINE
8
BLACK
6
CONTINUOUS
10
97
20
-115.6
11
99
21
-115.6
0
LINE
8
BLACK
6
CONTINUOUS
10
99
20
-115.6
11
99
21
-117.4
0
LINE
8
BLACK
6
CONTINUOUS
10
113
20
-117.4
11
111
21
-117.4
0
LINE
8
BLACK
6
CONTINUOUS
10
111
20
-117.4
11
111
21
-115.6
0
LINE
8
BLACK
6
CONTINUOUS
10
111
20
-115.6
11
113
21
-115.6
0
LINE
8
BLACK
6
CONTINUOUS
10
113
20
-115.6
11
113
21
-117.4
0
LINE
8
BLACK
6
CONTINUOUS
10
174
20
-117.4
11
172
21
-117.4
0
LINE
8
BLACK
6
CONTINUOUS
10
172
20
-117.4
11
172
21
-115.6
0
LINE
8
BLACK
6
CONTINUOUS
10
172
20
-115.6
11
174
21
-115.6
0
LINE
8
BLACK
6
CONTINUOUS
10
174
20
-115.6
11
174
21
-117.4
0
LINE
8
BLACK
6
CONTINUOUS
10
188
20
-117.4
11
186
21
-117.4
0
LINE
8
BLACK
6
CONTINUOUS
10
186
20
-117.4
11
186
21
-115.6
0
LINE
8
BLACK
6
CONTINUOUS
10
186
20
-115.6
11
188
21
-115.6
0
LINE
8
BLACK
6
CONTINUOUS
10
188
20
-115.6
11
188
21
-117.4
0
LINE
8
BLACK
6
CONTINUOUS
10
24
20
-70.4
11
22
21
-70.4
0
LINE
8
BLACK
6
CONTINUOUS
10
22
20
-70.4
11
22
21
-68.6
0
LINE
8
BLACK
6
CONTINUOUS
10
22
20
-68.6
11
24
21
-68.6
0
LINE
8
BLACK
6
CONTINUOUS
10
24
20
-68.6
11
24
21
-70.4
0
LINE
8
BLACK
6
CONTINUOUS
10
38
20
-70.4
11
36
21
-70.4
0
LINE
8
BLACK
6
CONTINUOUS
10
36
20
-70.4
11
36
21
-68.6
0
LINE
8
BLACK
6
CONTINUOUS
10
36
20
-68.6
11
38
21
-68.6
0
LINE
8
BLACK
6
CONTINUOUS
10
38
20
-68.6
11
38
21
-70.4
0
LINE
8
BLACK
6
CONTINUOUS
10
99
20
-70.4
11
97
21
-70.4
0
LINE
8
BLACK
6
CONTINUOUS
10
97
20
-70.4
11
97
21
-68.6
0
LINE
8
BLACK
6
CONTINUOUS
10
97
20
-68.6
11
99
21
-68.6
0
LINE
8
BLACK
6
CONTINUOUS
10
99
20
-68.6
11
99
21
-70.4
0
LINE
8
BLACK
6
CONTINUOUS
10
113
20
-70.4
11
111
21
-70.4
0
LINE
8
BLACK
6
CONTINUOUS
10
111
20
-70.4
11
111
21
-68.6
0
LINE
8
BLACK
6
CONTINUOUS
10
111
20
-68.6
11
113
21
-68.6
0
LINE
8
BLACK
6
CONTINUOUS
10
113
20
-68.6
11
113
21
-70.4
0
LINE
8
BLACK
6
CONTINUOUS
10
174
20
-70.4
11
172
21
-70.4
0
LINE
8
BLACK
6
CONTINUOUS
10
172
20
-70.4
11
172
21
-68.6
0
LINE
8
BLACK
6
CONTINUOUS
10
172
20
-68.6
11
174
21
-68.6
0
LINE
8
BLACK
6
CONTINUOUS
10
174
20
-68.6
11
174
21
-70.4
0
LINE
8
BLACK
6
CONTINUOUS
10
188
20
-70.4
11
186
21
-70.4
0
LINE
8
BLACK
6
CONTINUOUS
10
186
20
-70.4
11
186
21
-68.6
0
LINE
8
BLACK
6
CONTINUOUS
10
186
20
-68.6
11
188
21
-68.6
0
LINE
8
BLACK
6
CONTINUOUS
10
188
20
-68.6
11
188
21
-70.4
0
LINE
8
BLACK
6
CONTINUOUS
10
30.4862
20
-64.2425
11
30.803
21
-64.3176
0
LINE
8
BLACK
6
CONTINUOUS
10
30.803
20
-64.3176
11
31.109
21
-64.429
0
LINE
8
BLACK
6
CONTINUOUS
10
31.109
20
-64.429
11
31.4
21
-64.5751
0
LINE
8
BLACK
6
CONTINUOUS
10
31.4
20
-64.5751
11
31.672
21
-64.7541
0
LINE
8
BLACK
6
CONTINUOUS
10
31.672
20
-64.7541
11
31.9215
21
-64.9634
0
LINE
8
BLACK
6
CONTINUOUS
10
31.9215
20
-64.9634
11
32.1449
21
-65.2002
0
LINE
8
BLACK
6
CONTINUOUS
10
32.1449
20
-65.2002
11
32.3394
21
-65.4614
0
LINE
8
BLACK
6
CONTINUOUS
10
32.3394
20
-65.4614
11
32.5022
21
-65.7434
0
LINE
8
BLACK
6
CONTINUOUS
10
32.5022
20
-65.7434
11
32.6311
21
-66.0423
0
LINE
8
BLACK
6
CONTINUOUS
10
32.6311
20
-66.0423
11
32.7245
21
-66.3543
0
LINE
8
BLACK
6
CONTINUOUS
10
32.7245
20
-66.3543
11
32.7811
21
-66.6749
0
LINE
8
BLACK
6
CONTINUOUS
10
32.7811
20
-66.6749
11
32.8
21
-67
0
LINE
8
BLACK
6
CONTINUOUS
10
32.8
20
-67
11
32.7811
21
-67.3251
0
LINE
8
BLACK
6
CONTINUOUS
10
32.7811
20
-67.3251
11
32.7245
21
-67.6457
0
LINE
8
BLACK
6
CONTINUOUS
10
32.7245
20
-67.6457
11
32.6311
21
-67.9577
0
LINE
8
BLACK
6
CONTINUOUS
10
32.6311
20
-67.9577
11
32.5022
21
-68.2566
0
LINE
8
BLACK
6
CONTINUOUS
10
32.5022
20
-68.2566
11
32.3394
21
-68.5386
0
LINE
8
BLACK
6
CONTINUOUS
10
32.3394
20
-68.5386
11
32.1449
21
-68.7998
0
LINE
8
BLACK
6
CONTINUOUS
10
32.1449
20
-68.7998
11
31.9215
21
-69.0366
0
LINE
8
BLACK
6
CONTINUOUS
10
31.9215
20
-69.0366
11
31.672
21
-69.2459
0
LINE
8
BLACK
6
CONTINUOUS
10
31.672
20
-69.2459
11
31.4
21
-69.4249
0
LINE
8
BLACK
6
CONTINUOUS
10
31.4
20
-69.4249
11
31.109
21
-69.571
0
LINE
8
BLACK
6
CONTINUOUS
10
31.109
20
-69.571
11
30.803
21
-69.6824
0
LINE
8
BLACK
6
CONTINUOUS
10
30.803
20
-69.6824
11
30.4862
21
-69.7575
0
LINE
8
BLACK
6
CONTINUOUS
10
30.4862
20
-69.7575
11
30.1628
21
-69.7953
0
LINE
8
BLACK
6
CONTINUOUS
10
30.1628
20
-69.7953
11
29.8372
21
-69.7953
0
LINE
8
BLACK
6
CONTINUOUS
10
29.8372
20
-69.7953
11
29.5138
21
-69.7575
0
LINE
8
BLACK
6
CONTINUOUS
10
29.5138
20
-69.7575
11
29.197
21
-69.6824
0
LINE
8
BLACK
6
CONTINUOUS
10
29.197
20
-69.6824
11
28.891
21
-69.571
0
LINE
8
BLACK
6
CONTINUOUS
10
28.891
20
-69.571
11
28.6
21
-69.4249
0
LINE
8
BLACK
6
CONTINUOUS
10
28.6
20
-69.4249
11
28.328
21
-69.2459
0
LINE
8
BLACK
6
CONTINUOUS
10
28.328
20
-69.2459
11
28.0785
21
-69.0366
0
LINE
8
BLACK
6
CONTINUOUS
10
28.0785
20
-69.0366
11
27.8551
21
-68.7998
0
LINE
8
BLACK
6
CONTINUOUS
10
27.8551
20
-68.7998
11
27.6606
21
-68.5386
0
LINE
8
BLACK
6
CONTINUOUS
10
27.6606
20
-68.5386
11
27.4978
21
-68.2566
0
LINE
8
BLACK
6
CONTINUOUS
10
27.4978
20
-68.2566
11
27.3689
21
-67.9577
0
LINE
8
BLACK
6
CONTINUOUS
10
27.3689
20
-67.9577
11
27.2755
21
-67.6457
0
LINE
8
BLACK
6
CONTINUOUS
10
27.2755
20
-67.6457
11
27.2189
21
-67.3251
0
LINE
8
BLACK
6
CONTINUOUS
10
27.2189
20
-67.3251
11
27.2
21
-67
0
LINE
8
BLACK
6
CONTINUOUS
10
27.2
20
-67
11
27.2189
21
-66.6749
0
LINE
8
BLACK
6
CONTINUOUS
10
27.2189
20
-66.6749
11
27.2755
21
-66.3543
0
LINE
8
BLACK
6
CONTINUOUS
10
27.2755
20
-66.3543
11
27.3689
21
-66.0423
0
LINE
8
BLACK
6
CONTINUOUS
10
27.3689
20
-66.0423
11
27.4978
21
-65.7434
0
LINE
8
BLACK
6
CONTINUOUS
10
27.4978
20
-65.7434
11
27.6606
21
-65.4614
0
LINE
8
BLACK
6
CONTINUOUS
10
27.6606
20
-65.4614
11
27.8551
21
-65.2002
0
LINE
8
BLACK
6
CONTINUOUS
10
27.8551
20
-65.2002
11
28.0785
21
-64.9634
0
LINE
8
BLACK
6
CONTINUOUS
10
28.0785
20
-64.9634
11
28.328
21
-64.7541
0
LINE
8
BLACK
6
CONTINUOUS
10
28.328
20
-64.7541
11
28.6
21
-64.5751
0
LINE
8
BLACK
6
CONTINUOUS
10
28.6
20
-64.5751
11
28.891
21
-64.429
0
LINE
8
BLACK
6
CONTINUOUS
10
28.891
20
-64.429
11
29.197
21
-64.3176
0
LINE
8
BLACK
6
CONTINUOUS
10
29.197
20
-64.3176
11
29.5138
21
-64.2425
0
LINE
8
BLACK
6
CONTINUOUS
10
29.5138
20
-64.2425
11
29.8372
21
-64.2047
0
LINE
8
BLACK
6
CONTINUOUS
10
29.8372
20
-64.2047
11
30.1628
21
-64.2047
0
LINE
8
BLACK
6
CONTINUOUS
10
30.1628
20
-64.2047
11
30.4862
21
-64.2425
0
LINE
8
BLACK
6
CONTINUOUS
10
105.486
20
-64.2425
11
105.803
21
-64.3176
0
LINE
8
BLACK
6
CONTINUOUS
10
105.803
20
-64.3176
11
106.109
21
-64.429
0
LINE
8
BLACK
6
CONTINUOUS
10
106.109
20
-64.429
11
106.4
21
-64.5751
0
LINE
8
BLACK
6
CONTINUOUS
10
106.4
20
-64.5751
11
106.672
21
-64.7541
0
LINE
8
BLACK
6
CONTINUOUS
10
106.672
20
-64.7541
11
106.921
21
-64.9634
0
LINE
8
BLACK
6
CONTINUOUS
10
106.921
20
-64.9634
11
107.145
21
-65.2002
0
LINE
8
BLACK
6
CONTINUOUS
10
107.145
20
-65.2002
11
107.339
21
-65.4614
0
LINE
8
BLACK
6
CONTINUOUS
10
107.339
20
-65.4614
11
107.502
21
-65.7434
0
LINE
8
BLACK
6
CONTINUOUS
10
107.502
20
-65.7434
11
107.631
21
-66.0423
0
LINE
8
BLACK
6
CONTINUOUS
10
107.631
20
-66.0423
11
107.725
21
-66.3543
0
LINE
8
BLACK
6
CONTINUOUS
10
107.725
20
-66.3543
11
107.781
21
-66.6749
0
LINE
8
BLACK
6
CONTINUOUS
10
107.781
20
-66.6749
11
107.8
21
-67
0
LINE
8
BLACK
6
CONTINUOUS
10
107.8
20
-67
11
107.781
21
-67.3251
0
LINE
8
BLACK
6
CONTINUOUS
10
107.781
20
-67.3251
11
107.725
21
-67.6457
0
LINE
8
BLACK
6
CONTINUOUS
10
107.725
20
-67.6457
11
107.631
21
-67.9577
0
LINE
8
BLACK
6
CONTINUOUS
10
107.631
20
-67.9577
11
107.502
21
-68.2566
0
LINE
8
BLACK
6
CONTINUOUS
10
107.502
20
-68.2566
11
107.339
21
-68.5386
0
LINE
8
BLACK
6
CONTINUOUS
10
107.339
20
-68.5386
11
107.145
21
-68.7998
0
LINE
8
BLACK
6
CONTINUOUS
10
107.145
20
-68.7998
11
106.921
21
-69.0366
0
LINE
8
BLACK
6
CONTINUOUS
10
106.921
20
-69.0366
11
106.672
21
-69.2459
0
LINE
8
BLACK
6
CONTINUOUS
10
106.672
20
-69.2459
11
106.4
21
-69.4249
0
LINE
8
BLACK
6
CONTINUOUS
10
106.4
20
-69.4249
11
106.109
21
-69.571
0
LINE
8
BLACK
6
CONTINUOUS
10
106.109
20
-69.571
11
105.803
21
-69.6824
0
LINE
8
BLACK
6
CONTINUOUS
10
105.803
20
-69.6824
11
105.486
21
-69.7575
0
LINE
8
BLACK
6
CONTINUOUS
10
105.486
20
-69.7575
11
105.163
21
-69.7953
0
LINE
8
BLACK
6
CONTINUOUS
10
105.163
20
-69.7953
11
104.837
21
-69.7953
0
LINE
8
BLACK
6
CONTINUOUS
10
104.837
20
-69.7953
11
104.514
21
-69.7575
0
LINE
8
BLACK
6
CONTINUOUS
10
104.514
20
-69.7575
11
104.197
21
-69.6824
0
LINE
8
BLACK
6
CONTINUOUS
10
104.197
20
-69.6824
11
103.891
21
-69.571
0
LINE
8
BLACK
6
CONTINUOUS
10
103.891
20
-69.571
11
103.6
21
-69.4249
0
LINE
8
BLACK
6
CONTINUOUS
10
103.6
20
-69.4249
11
103.328
21
-69.2459
0
LINE
8
BLACK
6
CONTINUOUS
10
103.328
20
-69.2459
11
103.079
21
-69.0366
0
LINE
8
BLACK
6
CONTINUOUS
10
103.079
20
-69.0366
11
102.855
21
-68.7998
0
LINE
8
BLACK
6
CONTINUOUS
10
102.855
20
-68.7998
11
102.661
21
-68.5386
0
LINE
8
BLACK
6
CONTINUOUS
10
102.661
20
-68.5386
11
102.498
21
-68.2566
0
LINE
8
BLACK
6
CONTINUOUS
10
102.498
20
-68.2566
11
102.369
21
-67.9577
0
LINE
8
BLACK
6
CONTINUOUS
10
102.369
20
-67.9577
11
102.275
21
-67.6457
0
LINE
8
BLACK
6
CONTINUOUS
10
102.275
20
-67.6457
11
102.219
21
-67.3251
0
LINE
8
BLACK
6
CONTINUOUS
10
102.219
20
-67.3251
11
102.2
21
-67
0
LINE
8
BLACK
6
CONTINUOUS
10
102.2
20
-67
11
102.219
21
-66.6749
0
LINE
8
BLACK
6
CONTINUOUS
10
102.219
20
-66.6749
11
102.275
21
-66.3543
0
LINE
8
BLACK
6
CONTINUOUS
10
102.275
20
-66.3543
11
102.369
21
-66.0423
0
LINE
8
BLACK
6
CONTINUOUS
10
102.369
20
-66.0423
11
102.498
21
-65.7434
0
LINE
8
BLACK
6
CONTINUOUS
10
102.498
20
-65.7434
11
102.661
21
-65.4614
0
LINE
8
BLACK
6
CONTINUOUS
10
102.661
20
-65.4614
11
102.855
21
-65.2002
0
LINE
8
BLACK
6
CONTINUOUS
10
102.855
20
-65.2002
11
103.079
21
-64.9634
0
LINE
8
BLACK
6
CONTINUOUS
10
103.079
20
-64.9634
11
103.328
21
-64.7541
0
LINE
8
BLACK
6
CONTINUOUS
10
103.328
20
-64.7541
11
103.6
21
-64.5751
0
LINE
8
BLACK
6
CONTINUOUS
10
103.6
20
-64.5751
11
103.891
21
-64.429
0
LINE
8
BLACK
6
CONTINUOUS
10
103.891
20
-64.429
11
104.197
21
-64.3176
0
LINE
8
BLACK
6
CONTINUOUS
10
104.197
20
-64.3176
11
104.514
21
-64.2425
0
LINE
8
BLACK
6
CONTINUOUS
10
104.514
20
-64.2425
11
104.837
21
-64.2047
0
LINE
8
BLACK
6
CONTINUOUS
10
104.837
20
-64.2047
11
105.163
21
-64.2047
0
LINE
8
BLACK
6
CONTINUOUS
10
105.163
20
-64.2047
11
105.486
21
-64.2425
0
LINE
8
BLACK
6
CONTINUOUS
10
180.486
20
-64.2425
11
180.803
21
-64.3176
0
LINE
8
BLACK
6
CONTINUOUS
10
180.803
20
-64.3176
11
181.109
21
-64.429
0
LINE
8
BLACK
6
CONTINUOUS
10
181.109
20
-64.429
11
181.4
21
-64.5751
0
LINE
8
BLACK
6
CONTINUOUS
10
181.4
20
-64.5751
11
181.672
21
-64.7541
0
LINE
8
BLACK
6
CONTINUOUS
10
181.672
20
-64.7541
11
181.921
21
-64.9634
0
LINE
8
BLACK
6
CONTINUOUS
10
181.921
20
-64.9634
11
182.145
21
-65.2002
0
LINE
8
BLACK
6
CONTINUOUS
10
182.145
20
-65.2002
11
182.339
21
-65.4614
0
LINE
8
BLACK
6
CONTINUOUS
10
182.339
20
-65.4614
11
182.502
21
-65.7434
0
LINE
8
BLACK
6
CONTINUOUS
10
182.502
20
-65.7434
11
182.631
21
-66.0423
0
LINE
8
BLACK
6
CONTINUOUS
10
182.631
20
-66.0423
11
182.725
21
-66.3543
0
LINE
8
BLACK
6
CONTINUOUS
10
182.725
20
-66.3543
11
182.781
21
-66.6749
0
LINE
8
BLACK
6
CONTINUOUS
10
182.781
20
-66.6749
11
182.8
21
-67
0
LINE
8
BLACK
6
CONTINUOUS
10
182.8
20
-67
11
182.781
21
-67.3251
0
LINE
8
BLACK
6
CONTINUOUS
10
182.781
20
-67.3251
11
182.725
21
-67.6457
0
LINE
8
BLACK
6
CONTINUOUS
10
182.725
20
-67.6457
11
182.631
21
-67.9577
0
LINE
8
BLACK
6
CONTINUOUS
10
182.631
20
-67.9577
11
182.502
21
-68.2566
0
LINE
8
BLACK
6
CONTINUOUS
10
182.502
20
-68.2566
11
182.339
21
-68.5386
0
LINE
8
BLACK
6
CONTINUOUS
10
182.339
20
-68.5386
11
182.145
21
-68.7998
0
LINE
8
BLACK
6
CONTINUOUS
10
182.145
20
-68.7998
11
181.921
21
-69.0366
0
LINE
8
BLACK
6
CONTINUOUS
10
181.921
20
-69.0366
11
181.672
21
-69.2459
0
LINE
8
BLACK
6
CONTINUOUS
10
181.672
20
-69.2459
11
181.4
21
-69.4249
0
LINE
8
BLACK
6
CONTINUOUS
10
181.4
20
-69.4249
11
181.109
21
-69.571
0
LINE
8
BLACK
6
CONTINUOUS
10
181.109
20
-69.571
11
180.803
21
-69.6824
0
LINE
8
BLACK
6
CONTINUOUS
10
180.803
20
-69.6824
11
180.486
21
-69.7575
0
LINE
8
BLACK
6
CONTINUOUS
10
180.486
20
-69.7575
11
180.163
21
-69.7953
0
LINE
8
BLACK
6
CONTINUOUS
10
180.163
20
-69.7953
11
179.837
21
-69.7953
0
LINE
8
BLACK
6
CONTINUOUS
10
179.837
20
-69.7953
11
179.514
21
-69.7575
0
LINE
8
BLACK
6
CONTINUOUS
10
179.514
20
-69.7575
11
179.197
21
-69.6824
0
LINE
8
BLACK
6
CONTINUOUS
10
179.197
20
-69.6824
11
178.891
21
-69.571
0
LINE
8
BLACK
6
CONTINUOUS
10
178.891
20
-69.571
11
178.6
21
-69.4249
0
LINE
8
BLACK
6
CONTINUOUS
10
178.6
20
-69.4249
11
178.328
21
-69.2459
0
LINE
8
BLACK
6
CONTINUOUS
10
178.328
20
-69.2459
11
178.079
21
-69.0366
0
LINE
8
BLACK
6
CONTINUOUS
10
178.079
20
-69.0366
11
177.855
21
-68.7998
0
LINE
8
BLACK
6
CONTINUOUS
10
177.855
20
-68.7998
11
177.661
21
-68.5386
0
LINE
8
BLACK
6
CONTINUOUS
10
177.661
20
-68.5386
11
177.498
21
-68.2566
0
LINE
8
BLACK
6
CONTINUOUS
10
177.498
20
-68.2566
11
177.369
21
-67.9577
0
LINE
8
BLACK
6
CONTINUOUS
10
177.369
20
-67.9577
11
177.275
21
-67.6457
0
LINE
8
BLACK
6
CONTINUOUS
10
177.275
20
-67.6457
11
177.219
21
-67.3251
0
LINE
8
BLACK
6
CONTINUOUS
10
177.219
20
-67.3251
11
177.2
21
-67
0
LINE
8
BLACK
6
CONTINUOUS
10
177.2
20
-67
11
177.219
21
-66.6749
0
LINE
8
BLACK
6
CONTINUOUS
10
177.219
20
-66.6749
11
177.275
21
-66.3543
0
LINE
8
BLACK
6
CONTINUOUS
10
177.275
20
-66.3543
11
177.369
21
-66.0423
0
LINE
8
BLACK
6
CONTINUOUS
10
177.369
20
-66.0423
11
177.498
21
-65.7434
0
LINE
8
BLACK
6
CONTINUOUS
10
177.498
20
-65.7434
11
177.661
21
-65.4614
0
LINE
8
BLACK
6
CONTINUOUS
10
177.661
20
-65.4614
11
177.855
21
-65.2002
0
LINE
8
BLACK
6
CONTINUOUS
10
177.855
20
-65.2002
11
178.079
21
-64.9634
0
LINE
8
BLACK
6
CONTINUOUS
10
178.079
20
-64.9634
11
178.328
21
-64.7541
0
LINE
8
BLACK
6
CONTINUOUS
10
178.328
20
-64.7541
11
178.6
21
-64.5751
0
LINE
8
BLACK
6
CONTINUOUS
10
178.6
20
-64.5751
11
178.891
21
-64.429
0
LINE
8
BLACK
6
CONTINUOUS
10
178.891
20
-64.429
11
179.197
21
-64.3176
0
LINE
8
BLACK
6
CONTINUOUS
10
179.197
20
-64.3176
11
179.514
21
-64.2425
0
LINE
8
BLACK
6
CONTINUOUS
10
179.514
20
-64.2425
11
179.837
21
-64.2047
0
LINE
8
BLACK
6
CONTINUOUS
10
179.837
20
-64.2047
11
180.163
21
-64.2047
0
LINE
8
BLACK
6
CONTINUOUS
10
180.163
20
-64.2047
11
180.486
21
-64.2425
0
LINE
8
BLACK
6
CONTINUOUS
10
24
20
-65.4
11
22
21
-65.4
0
LINE
8
BLACK
6
CONTINUOUS
10
22
20
-65.4
11
22
21
-63.6
0
LINE
8
BLACK
6
CONTINUOUS
10
22
20
-63.6
11
24
21
-63.6
0
LINE
8
BLACK
6
CONTINUOUS
10
24
20
-63.6
11
24
21
-65.4
0
LINE
8
BLACK
6
CONTINUOUS
10
38
20
-65.4
11
36
21
-65.4
0
LINE
8
BLACK
6
CONTINUOUS
10
36
20
-65.4
11
36
21
-63.6
0
LINE
8
BLACK
6
CONTINUOUS
10
36
20
-63.6
11
38
21
-63.6
0
LINE
8
BLACK
6
CONTINUOUS
10
38
20
-63.6
11
38
21
-65.4
0
LINE
8
BLACK
6
CONTINUOUS
10
99
20
-65.4
11
97
21
-65.4
0
LINE
8
BLACK
6
CONTINUOUS
10
97
20
-65.4
11
97
21
-63.6
0
LINE
8
BLACK
6
CONTINUOUS
10
97
20
-63.6
11
99
21
-63.6
0
LINE
8
BLACK
6
CONTINUOUS
10
99
20
-63.6
11
99
21
-65.4
0
LINE
8
BLACK
6
CONTINUOUS
10
113
20
-65.4
11
111
21
-65.4
0
LINE
8
BLACK
6
CONTINUOUS
10
111
20
-65.4
11
111
21
-63.6
0
LINE
8
BLACK
6
CONTINUOUS
10
111
20
-63.6
11
113
21
-63.6
0
LINE
8
BLACK
6
CONTINUOUS
10
113
20
-63.6
11
113
21
-65.4
0
LINE
8
BLACK
6
CONTINUOUS
10
174
20
-65.4
11
172
21
-65.4
0
LINE
8
BLACK
6
CONTINUOUS
10
172
20
-65.4
11
172
21
-63.6
0
LINE
8
BLACK
6
CONTINUOUS
10
172
20
-63.6
11
174
21
-63.6
0
LINE
8
BLACK
6
CONTINUOUS
10
174
20
-63.6
11
174
21
-65.4
0
LINE
8
BLACK
6
CONTINUOUS
10
188
20
-65.4
11
186
21
-65.4
0
LINE
8
BLACK
6
CONTINUOUS
10
186
20
-65.4
11
186
21
-63.6
0
LINE
8
BLACK
6
CONTINUOUS
10
186
20
-63.6
11
188
21
-63.6
0
LINE
8
BLACK
6
CONTINUOUS
10
188
20
-63.6
11
188
21
-65.4
0
LINE
8
BLACK
6
CONTINUOUS
10
140.471
20
-55.244
11
140.552
21
-55.2982
0
LINE
8
BLACK
6
CONTINUOUS
10
140.552
20
-55.2982
11
140.606
21
-55.3793
0
LINE
8
BLACK
6
CONTINUOUS
10
140.606
20
-55.3793
11
140.625
21
-55.475
0
LINE
8
BLACK
6
CONTINUOUS
10
140.625
20
-55.475
11
140.625
21
-57.475
0
LINE
8
BLACK
6
CONTINUOUS
10
140.625
20
-57.475
11
140.606
21
-57.5707
0
LINE
8
BLACK
6
CONTINUOUS
10
140.606
20
-57.5707
11
140.552
21
-57.6518
0
LINE
8
BLACK
6
CONTINUOUS
10
140.552
20
-57.6518
11
140.471
21
-57.706
0
LINE
8
BLACK
6
CONTINUOUS
10
140.471
20
-57.706
11
140.375
21
-57.725
0
LINE
8
BLACK
6
CONTINUOUS
10
140.375
20
-57.725
11
136.875
21
-57.725
0
LINE
8
BLACK
6
CONTINUOUS
10
136.875
20
-57.725
11
136.779
21
-57.706
0
LINE
8
BLACK
6
CONTINUOUS
10
136.779
20
-57.706
11
136.698
21
-57.6518
0
LINE
8
BLACK
6
CONTINUOUS
10
136.698
20
-57.6518
11
136.644
21
-57.5707
0
LINE
8
BLACK
6
CONTINUOUS
10
136.644
20
-57.5707
11
136.625
21
-57.475
0
LINE
8
BLACK
6
CONTINUOUS
10
136.625
20
-57.475
11
136.625
21
-55.475
0
LINE
8
BLACK
6
CONTINUOUS
10
136.625
20
-55.475
11
136.644
21
-55.3793
0
LINE
8
BLACK
6
CONTINUOUS
10
136.644
20
-55.3793
11
136.698
21
-55.2982
0
LINE
8
BLACK
6
CONTINUOUS
10
136.698
20
-55.2982
11
136.779
21
-55.244
0
LINE
8
BLACK
6
CONTINUOUS
10
136.779
20
-55.244
11
136.875
21
-55.225
0
LINE
8
BLACK
6
CONTINUOUS
10
136.875
20
-55.225
11
140.375
21
-55.225
0
LINE
8
BLACK
6
CONTINUOUS
10
140.375
20
-55.225
11
140.471
21
-55.244
0
LINE
8
BLACK
6
CONTINUOUS
10
148.471
20
-55.244
11
148.552
21
-55.2982
0
LINE
8
BLACK
6
CONTINUOUS
10
148.552
20
-55.2982
11
148.606
21
-55.3793
0
LINE
8
BLACK
6
CONTINUOUS
10
148.606
20
-55.3793
11
148.625
21
-55.475
0
LINE
8
BLACK
6
CONTINUOUS
10
148.625
20
-55.475
11
148.625
21
-57.475
0
LINE
8
BLACK
6
CONTINUOUS
10
148.625
20
-57.475
11
148.606
21
-57.5707
0
LINE
8
BLACK
6
CONTINUOUS
10
148.606
20
-57.5707
11
148.552
21
-57.6518
0
LINE
8
BLACK
6
CONTINUOUS
10
148.552
20
-57.6518
11
148.471
21
-57.706
0
LINE
8
BLACK
6
CONTINUOUS
10
148.471
20
-57.706
11
148.375
21
-57.725
0
LINE
8
BLACK
6
CONTINUOUS
10
148.375
20
-57.725
11
144.875
21
-57.725
0
LINE
8
BLACK
6
CONTINUOUS
10
144.875
20
-57.725
11
144.779
21
-57.706
0
LINE
8
BLACK
6
CONTINUOUS
10
144.779
20
-57.706
11
144.698
21
-57.6518
0
LINE
8
BLACK
6
CONTINUOUS
10
144.698
20
-57.6518
11
144.644
21
-57.5707
0
LINE
8
BLACK
6
CONTINUOUS
10
144.644
20
-57.5707
11
144.625
21
-57.475
0
LINE
8
BLACK
6
CONTINUOUS
10
144.625
20
-57.475
11
144.625
21
-55.475
0
LINE
8
BLACK
6
CONTINUOUS
10
144.625
20
-55.475
11
144.644
21
-55.3793
0
LINE
8
BLACK
6
CONTINUOUS
10
144.644
20
-55.3793
11
144.698
21
-55.2982
0
LINE
8
BLACK
6
CONTINUOUS
10
144.698
20
-55.2982
11
144.779
21
-55.244
0
LINE
8
BLACK
6
CONTINUOUS
10
144.779
20
-55.244
11
144.875
21
-55.225
0
LINE
8
BLACK
6
CONTINUOUS
10
144.875
20
-55.225
11
148.375
21
-55.225
0
LINE
8
BLACK
6
CONTINUOUS
10
148.375
20
-55.225
11
148.471
21
-55.244
0
LINE
8
BLACK
6
CONTINUOUS
10
163.896
20
-52.2865
11
163.977
21
-52.3407
0
LINE
8
BLACK
6
CONTINUOUS
10
163.977
20
-52.3407
11
164.031
21
-52.4218
0
LINE
8
BLACK
6
CONTINUOUS
10
164.031
20
-52.4218
11
164.05
21
-52.5175
0
LINE
8
BLACK
6
CONTINUOUS
10
164.05
20
-52.5175
11
164.05
21
-56.0175
0
LINE
8
BLACK
6
CONTINUOUS
10
164.05
20
-56.0175
11
164.031
21
-56.1132
0
LINE
8
BLACK
6
CONTINUOUS
10
164.031
20
-56.1132
11
163.977
21
-56.1943
0
LINE
8
BLACK
6
CONTINUOUS
10
163.977
20
-56.1943
11
163.896
21
-56.2485
0
LINE
8
BLACK
6
CONTINUOUS
10
163.896
20
-56.2485
11
163.8
21
-56.2675
0
LINE
8
BLACK
6
CONTINUOUS
10
163.8
20
-56.2675
11
161.8
21
-56.2675
0
LINE
8
BLACK
6
CONTINUOUS
10
161.8
20
-56.2675
11
161.704
21
-56.2485
0
LINE
8
BLACK
6
CONTINUOUS
10
161.704
20
-56.2485
11
161.623
21
-56.1943
0
LINE
8
BLACK
6
CONTINUOUS
10
161.623
20
-56.1943
11
161.569
21
-56.1132
0
LINE
8
BLACK
6
CONTINUOUS
10
161.569
20
-56.1132
11
161.55
21
-56.0175
0
LINE
8
BLACK
6
CONTINUOUS
10
161.55
20
-56.0175
11
161.55
21
-52.5175
0
LINE
8
BLACK
6
CONTINUOUS
10
161.55
20
-52.5175
11
161.569
21
-52.4218
0
LINE
8
BLACK
6
CONTINUOUS
10
161.569
20
-52.4218
11
161.623
21
-52.3407
0
LINE
8
BLACK
6
CONTINUOUS
10
161.623
20
-52.3407
11
161.704
21
-52.2865
0
LINE
8
BLACK
6
CONTINUOUS
10
161.704
20
-52.2865
11
161.8
21
-52.2675
0
LINE
8
BLACK
6
CONTINUOUS
10
161.8
20
-52.2675
11
163.8
21
-52.2675
0
LINE
8
BLACK
6
CONTINUOUS
10
163.8
20
-52.2675
11
163.896
21
-52.2865
0
LINE
8
BLACK
6
CONTINUOUS
10
134.396
20
-50.069
11
134.477
21
-50.1232
0
LINE
8
BLACK
6
CONTINUOUS
10
134.477
20
-50.1232
11
134.531
21
-50.2043
0
LINE
8
BLACK
6
CONTINUOUS
10
134.531
20
-50.2043
11
134.55
21
-50.3
0
LINE
8
BLACK
6
CONTINUOUS
10
134.55
20
-50.3
11
134.55
21
-52.3
0
LINE
8
BLACK
6
CONTINUOUS
10
134.55
20
-52.3
11
134.531
21
-52.3957
0
LINE
8
BLACK
6
CONTINUOUS
10
134.531
20
-52.3957
11
134.477
21
-52.4768
0
LINE
8
BLACK
6
CONTINUOUS
10
134.477
20
-52.4768
11
134.396
21
-52.531
0
LINE
8
BLACK
6
CONTINUOUS
10
134.396
20
-52.531
11
134.3
21
-52.55
0
LINE
8
BLACK
6
CONTINUOUS
10
134.3
20
-52.55
11
133
21
-52.55
0
LINE
8
BLACK
6
CONTINUOUS
10
133
20
-52.55
11
132.904
21
-52.531
0
LINE
8
BLACK
6
CONTINUOUS
10
132.904
20
-52.531
11
132.823
21
-52.4768
0
LINE
8
BLACK
6
CONTINUOUS
10
132.823
20
-52.4768
11
132.769
21
-52.3957
0
LINE
8
BLACK
6
CONTINUOUS
10
132.769
20
-52.3957
11
132.75
21
-52.3
0
LINE
8
BLACK
6
CONTINUOUS
10
132.75
20
-52.3
11
132.75
21
-50.3
0
LINE
8
BLACK
6
CONTINUOUS
10
132.75
20
-50.3
11
132.769
21
-50.2043
0
LINE
8
BLACK
6
CONTINUOUS
10
132.769
20
-50.2043
11
132.823
21
-50.1232
0
LINE
8
BLACK
6
CONTINUOUS
10
132.823
20
-50.1232
11
132.904
21
-50.069
0
LINE
8
BLACK
6
CONTINUOUS
10
132.904
20
-50.069
11
133
21
-50.05
0
LINE
8
BLACK
6
CONTINUOUS
10
133
20
-50.05
11
134.3
21
-50.05
0
LINE
8
BLACK
6
CONTINUOUS
10
134.3
20
-50.05
11
134.396
21
-50.069
0
LINE
8
BLACK
6
CONTINUOUS
10
63.9
20
-50.1
11
62.4
21
-50.1
0
LINE
8
BLACK
6
CONTINUOUS
10
62.4
20
-50.1
11
62.4
21
-49.1
0
LINE
8
BLACK
6
CONTINUOUS
10
62.4
20
-49.1
11
63.9
21
-49.1
0
LINE
8
BLACK
6
CONTINUOUS
10
63.9
20
-49.1
11
63.9
21
-50.1
0
LINE
8
BLACK
6
CONTINUOUS
10
68.8
20
-50.1
11
67.3
21
-50.1
0
LINE
8
BLACK
6
CONTINUOUS
10
67.3
20
-50.1
11
67.3
21
-49.1
0
LINE
8
BLACK
6
CONTINUOUS
10
67.3
20
-49.1
11
68.8
21
-49.1
0
LINE
8
BLACK
6
CONTINUOUS
10
68.8
20
-49.1
11
68.8
21
-50.1
0
LINE
8
BLACK
6
CONTINUOUS
10
88.9
20
-50.1
11
87.4
21
-50.1
0
LINE
8
BLACK
6
CONTINUOUS
10
87.4
20
-50.1
11
87.4
21
-49.1
0
LINE
8
BLACK
6
CONTINUOUS
10
87.4
20
-49.1
11
88.9
21
-49.1
0
LINE
8
BLACK
6
CONTINUOUS
10
88.9
20
-49.1
11
88.9
21
-50.1
0
LINE
8
BLACK
6
CONTINUOUS
10
93.8
20
-50.1
11
92.3
21
-50.1
0
LINE
8
BLACK
6
CONTINUOUS
10
92.3
20
-50.1
11
92.3
21
-49.1
0
LINE
8
BLACK
6
CONTINUOUS
10
92.3
20
-49.1
11
93.8
21
-49.1
0
LINE
8
BLACK
6
CONTINUOUS
10
93.8
20
-49.1
11
93.8
21
-50.1
0
LINE
8
BLACK
6
CONTINUOUS
10
113.9
20
-50.1
11
112.4
21
-50.1
0
LINE
8
BLACK
6
CONTINUOUS
10
112.4
20
-50.1
11
112.4
21
-49.1
0
LINE
8
BLACK
6
CONTINUOUS
10
112.4
20
-49.1
11
113.9
21
-49.1
0
LINE
8
BLACK
6
CONTINUOUS
10
113.9
20
-49.1
11
113.9
21
-50.1
0
LINE
8
BLACK
6
CONTINUOUS
10
118.8
20
-50.1
11
117.3
21
-50.1
0
LINE
8
BLACK
6
CONTINUOUS
10
117.3
20
-50.1
11
117.3
21
-49.1
0
LINE
8
BLACK
6
CONTINUOUS
10
117.3
20
-49.1
11
118.8
21
-49.1
0
LINE
8
BLACK
6
CONTINUOUS
10
118.8
20
-49.1
11
118.8
21
-50.1
0
LINE
8
BLACK
6
CONTINUOUS
10
138.9
20
-50.1
11
137.4
21
-50.1
0
LINE
8
BLACK
6
CONTINUOUS
10
137.4
20
-50.1
11
137.4
21
-49.1
0
LINE
8
BLACK
6
CONTINUOUS
10
137.4
20
-49.1
11
138.9
21
-49.1
0
LINE
8
BLACK
6
CONTINUOUS
10
138.9
20
-49.1
11
138.9
21
-50.1
0
LINE
8
BLACK
6
CONTINUOUS
10
143.8
20
-50.1
11
142.3
21
-50.1
0
LINE
8
BLACK
6
CONTINUOUS
10
142.3
20
-50.1
11
142.3
21
-49.1
0
LINE
8
BLACK
6
CONTINUOUS
10
142.3
20
-49.1
11
143.8
21
-49.1
0
LINE
8
BLACK
6
CONTINUOUS
10
143.8
20
-49.1
11
143.8
21
-50.1
0
LINE
8
BLACK
6
CONTINUOUS
10
154.046
20
-48.069
11
154.127
21
-48.1232
0
LINE
8
BLACK
6
CONTINUOUS
10
154.127
20
-48.1232
11
154.181
21
-48.2043
0
LINE
8
BLACK
6
CONTINUOUS
10
154.181
20
-48.2043
11
154.2
21
-48.3
0
LINE
8
BLACK
6
CONTINUOUS
10
154.2
20
-48.3
11
154.2
21
-49.6
0
LINE
8
BLACK
6
CONTINUOUS
10
154.2
20
-49.6
11
154.181
21
-49.6957
0
LINE
8
BLACK
6
CONTINUOUS
10
154.181
20
-49.6957
11
154.127
21
-49.7768
0
LINE
8
BLACK
6
CONTINUOUS
10
154.127
20
-49.7768
11
154.046
21
-49.831
0
LINE
8
BLACK
6
CONTINUOUS
10
154.046
20
-49.831
11
153.95
21
-49.85
0
LINE
8
BLACK
6
CONTINUOUS
10
153.95
20
-49.85
11
153.3
21
-49.85
0
LINE
8
BLACK
6
CONTINUOUS
10
153.3
20
-49.85
11
153.204
21
-49.831
0
LINE
8
BLACK
6
CONTINUOUS
10
153.204
20
-49.831
11
153.123
21
-49.7768
0
LINE
8
BLACK
6
CONTINUOUS
10
153.123
20
-49.7768
11
153.069
21
-49.6957
0
LINE
8
BLACK
6
CONTINUOUS
10
153.069
20
-49.6957
11
153.05
21
-49.6
0
LINE
8
BLACK
6
CONTINUOUS
10
153.05
20
-49.6
11
153.05
21
-48.3
0
LINE
8
BLACK
6
CONTINUOUS
10
153.05
20
-48.3
11
153.069
21
-48.2043
0
LINE
8
BLACK
6
CONTINUOUS
10
153.069
20
-48.2043
11
153.123
21
-48.1232
0
LINE
8
BLACK
6
CONTINUOUS
10
153.123
20
-48.1232
11
153.204
21
-48.069
0
LINE
8
BLACK
6
CONTINUOUS
10
153.204
20
-48.069
11
153.3
21
-48.05
0
LINE
8
BLACK
6
CONTINUOUS
10
153.3
20
-48.05
11
153.95
21
-48.05
0
LINE
8
BLACK
6
CONTINUOUS
10
153.95
20
-48.05
11
154.046
21
-48.069
0
LINE
8
BLACK
6
CONTINUOUS
10
156.996
20
-48.069
11
157.077
21
-48.1232
0
LINE
8
BLACK
6
CONTINUOUS
10
157.077
20
-48.1232
11
157.131
21
-48.2043
0
LINE
8
BLACK
6
CONTINUOUS
10
157.131
20
-48.2043
11
157.15
21
-48.3
0
LINE
8
BLACK
6
CONTINUOUS
10
157.15
20
-48.3
11
157.15
21
-49.6
0
LINE
8
BLACK
6
CONTINUOUS
10
157.15
20
-49.6
11
157.131
21
-49.6957
0
LINE
8
BLACK
6
CONTINUOUS
10
157.131
20
-49.6957
11
157.077
21
-49.7768
0
LINE
8
BLACK
6
CONTINUOUS
10
157.077
20
-49.7768
11
156.996
21
-49.831
0
LINE
8
BLACK
6
CONTINUOUS
10
156.996
20
-49.831
11
156.9
21
-49.85
0
LINE
8
BLACK
6
CONTINUOUS
10
156.9
20
-49.85
11
156.25
21
-49.85
0
LINE
8
BLACK
6
CONTINUOUS
10
156.25
20
-49.85
11
156.154
21
-49.831
0
LINE
8
BLACK
6
CONTINUOUS
10
156.154
20
-49.831
11
156.073
21
-49.7768
0
LINE
8
BLACK
6
CONTINUOUS
10
156.073
20
-49.7768
11
156.019
21
-49.6957
0
LINE
8
BLACK
6
CONTINUOUS
10
156.019
20
-49.6957
11
156
21
-49.6
0
LINE
8
BLACK
6
CONTINUOUS
10
156
20
-49.6
11
156
21
-48.3
0
LINE
8
BLACK
6
CONTINUOUS
10
156
20
-48.3
11
156.019
21
-48.2043
0
LINE
8
BLACK
6
CONTINUOUS
10
156.019
20
-48.2043
11
156.073
21
-48.1232
0
LINE
8
BLACK
6
CONTINUOUS
10
156.073
20
-48.1232
11
156.154
21
-48.069
0
LINE
8
BLACK
6
CONTINUOUS
10
156.154
20
-48.069
11
156.25
21
-48.05
0
LINE
8
BLACK
6
CONTINUOUS
10
156.25
20
-48.05
11
156.9
21
-48.05
0
LINE
8
BLACK
6
CONTINUOUS
10
156.9
20
-48.05
11
156.996
21
-48.069
0
LINE
8
BLACK
6
CONTINUOUS
10
134.396
20
-46.069
11
134.477
21
-46.1232
0
LINE
8
BLACK
6
CONTINUOUS
10
134.477
20
-46.1232
11
134.531
21
-46.2043
0
LINE
8
BLACK
6
CONTINUOUS
10
134.531
20
-46.2043
11
134.55
21
-46.3
0
LINE
8
BLACK
6
CONTINUOUS
10
134.55
20
-46.3
11
134.55
21
-48.3
0
LINE
8
BLACK
6
CONTINUOUS
10
134.55
20
-48.3
11
134.531
21
-48.3957
0
LINE
8
BLACK
6
CONTINUOUS
10
134.531
20
-48.3957
11
134.477
21
-48.4768
0
LINE
8
BLACK
6
CONTINUOUS
10
134.477
20
-48.4768
11
134.396
21
-48.531
0
LINE
8
BLACK
6
CONTINUOUS
10
134.396
20
-48.531
11
134.3
21
-48.55
0
LINE
8
BLACK
6
CONTINUOUS
10
134.3
20
-48.55
11
133
21
-48.55
0
LINE
8
BLACK
6
CONTINUOUS
10
133
20
-48.55
11
132.904
21
-48.531
0
LINE
8
BLACK
6
CONTINUOUS
10
132.904
20
-48.531
11
132.823
21
-48.4768
0
LINE
8
BLACK
6
CONTINUOUS
10
132.823
20
-48.4768
11
132.769
21
-48.3957
0
LINE
8
BLACK
6
CONTINUOUS
10
132.769
20
-48.3957
11
132.75
21
-48.3
0
LINE
8
BLACK
6
CONTINUOUS
10
132.75
20
-48.3
11
132.75
21
-46.3
0
LINE
8
BLACK
6
CONTINUOUS
10
132.75
20
-46.3
11
132.769
21
-46.2043
0
LINE
8
BLACK
6
CONTINUOUS
10
132.769
20
-46.2043
11
132.823
21
-46.1232
0
LINE
8
BLACK
6
CONTINUOUS
10
132.823
20
-46.1232
11
132.904
21
-46.069
0
LINE
8
BLACK
6
CONTINUOUS
10
132.904
20
-46.069
11
133
21
-46.05
0
LINE
8
BLACK
6
CONTINUOUS
10
133
20
-46.05
11
134.3
21
-46.05
0
LINE
8
BLACK
6
CONTINUOUS
10
134.3
20
-46.05
11
134.396
21
-46.069
0
LINE
8
BLACK
6
CONTINUOUS
10
74.3707
20
-46.969
11
74.4518
21
-47.0232
0
LINE
8
BLACK
6
CONTINUOUS
10
74.4518
20
-47.0232
11
74.506
21
-47.1043
0
LINE
8
BLACK
6
CONTINUOUS
10
74.506
20
-47.1043
11
74.525
21
-47.2
0
LINE
8
BLACK
6
CONTINUOUS
10
74.525
20
-47.2
11
74.525
21
-48.1
0
LINE
8
BLACK
6
CONTINUOUS
10
74.525
20
-48.1
11
74.506
21
-48.1957
0
LINE
8
BLACK
6
CONTINUOUS
10
74.506
20
-48.1957
11
74.4518
21
-48.2768
0
LINE
8
BLACK
6
CONTINUOUS
10
74.4518
20
-48.2768
11
74.3707
21
-48.331
0
LINE
8
BLACK
6
CONTINUOUS
10
74.3707
20
-48.331
11
74.275
21
-48.35
0
LINE
8
BLACK
6
CONTINUOUS
10
74.275
20
-48.35
11
73.75
21
-48.35
0
LINE
8
BLACK
6
CONTINUOUS
10
73.75
20
-48.35
11
73.6543
21
-48.331
0
LINE
8
BLACK
6
CONTINUOUS
10
73.6543
20
-48.331
11
73.5732
21
-48.2768
0
LINE
8
BLACK
6
CONTINUOUS
10
73.5732
20
-48.2768
11
73.519
21
-48.1957
0
LINE
8
BLACK
6
CONTINUOUS
10
73.519
20
-48.1957
11
73.5
21
-48.1
0
LINE
8
BLACK
6
CONTINUOUS
10
73.5
20
-48.1
11
73.5
21
-47.2
0
LINE
8
BLACK
6
CONTINUOUS
10
73.5
20
-47.2
11
73.519
21
-47.1043
0
LINE
8
BLACK
6
CONTINUOUS
10
73.519
20
-47.1043
11
73.5732
21
-47.0232
0
LINE
8
BLACK
6
CONTINUOUS
10
73.5732
20
-47.0232
11
73.6543
21
-46.969
0
LINE
8
BLACK
6
CONTINUOUS
10
73.6543
20
-46.969
11
73.75
21
-46.95
0
LINE
8
BLACK
6
CONTINUOUS
10
73.75
20
-46.95
11
74.275
21
-46.95
0
LINE
8
BLACK
6
CONTINUOUS
10
74.275
20
-46.95
11
74.3707
21
-46.969
0
LINE
8
BLACK
6
CONTINUOUS
10
76.1957
20
-46.969
11
76.2768
21
-47.0232
0
LINE
8
BLACK
6
CONTINUOUS
10
76.2768
20
-47.0232
11
76.331
21
-47.1043
0
LINE
8
BLACK
6
CONTINUOUS
10
76.331
20
-47.1043
11
76.35
21
-47.2
0
LINE
8
BLACK
6
CONTINUOUS
10
76.35
20
-47.2
11
76.35
21
-48.1
0
LINE
8
BLACK
6
CONTINUOUS
10
76.35
20
-48.1
11
76.331
21
-48.1957
0
LINE
8
BLACK
6
CONTINUOUS
10
76.331
20
-48.1957
11
76.2768
21
-48.2768
0
LINE
8
BLACK
6
CONTINUOUS
10
76.2768
20
-48.2768
11
76.1957
21
-48.331
0
LINE
8
BLACK
6
CONTINUOUS
10
76.1957
20
-48.331
11
76.1
21
-48.35
0
LINE
8
BLACK
6
CONTINUOUS
10
76.1
20
-48.35
11
75.575
21
-48.35
0
LINE
8
BLACK
6
CONTINUOUS
10
75.575
20
-48.35
11
75.4793
21
-48.331
0
LINE
8
BLACK
6
CONTINUOUS
10
75.4793
20
-48.331
11
75.3982
21
-48.2768
0
LINE
8
BLACK
6
CONTINUOUS
10
75.3982
20
-48.2768
11
75.344
21
-48.1957
0
LINE
8
BLACK
6
CONTINUOUS
10
75.344
20
-48.1957
11
75.325
21
-48.1
0
LINE
8
BLACK
6
CONTINUOUS
10
75.325
20
-48.1
11
75.325
21
-47.2
0
LINE
8
BLACK
6
CONTINUOUS
10
75.325
20
-47.2
11
75.344
21
-47.1043
0
LINE
8
BLACK
6
CONTINUOUS
10
75.344
20
-47.1043
11
75.3982
21
-47.0232
0
LINE
8
BLACK
6
CONTINUOUS
10
75.3982
20
-47.0232
11
75.4793
21
-46.969
0
LINE
8
BLACK
6
CONTINUOUS
10
75.4793
20
-46.969
11
75.575
21
-46.95
0
LINE
8
BLACK
6
CONTINUOUS
10
75.575
20
-46.95
11
76.1
21
-46.95
0
LINE
8
BLACK
6
CONTINUOUS
10
76.1
20
-46.95
11
76.1957
21
-46.969
0
LINE
8
BLACK
6
CONTINUOUS
10
163.896
20
-44.2865
11
163.977
21
-44.3407
0
LINE
8
BLACK
6
CONTINUOUS
10
163.977
20
-44.3407
11
164.031
21
-44.4218
0
LINE
8
BLACK
6
CONTINUOUS
10
164.031
20
-44.4218
11
164.05
21
-44.5175
0
LINE
8
BLACK
6
CONTINUOUS
10
164.05
20
-44.5175
11
164.05
21
-48.0175
0
LINE
8
BLACK
6
CONTINUOUS
10
164.05
20
-48.0175
11
164.031
21
-48.1132
0
LINE
8
BLACK
6
CONTINUOUS
10
164.031
20
-48.1132
11
163.977
21
-48.1943
0
LINE
8
BLACK
6
CONTINUOUS
10
163.977
20
-48.1943
11
163.896
21
-48.2485
0
LINE
8
BLACK
6
CONTINUOUS
10
163.896
20
-48.2485
11
163.8
21
-48.2675
0
LINE
8
BLACK
6
CONTINUOUS
10
163.8
20
-48.2675
11
161.8
21
-48.2675
0
LINE
8
BLACK
6
CONTINUOUS
10
161.8
20
-48.2675
11
161.704
21
-48.2485
0
LINE
8
BLACK
6
CONTINUOUS
10
161.704
20
-48.2485
11
161.623
21
-48.1943
0
LINE
8
BLACK
6
CONTINUOUS
10
161.623
20
-48.1943
11
161.569
21
-48.1132
0
LINE
8
BLACK
6
CONTINUOUS
10
161.569
20
-48.1132
11
161.55
21
-48.0175
0
LINE
8
BLACK
6
CONTINUOUS
10
161.55
20
-48.0175
11
161.55
21
-44.5175
0
LINE
8
BLACK
6
CONTINUOUS
10
161.55
20
-44.5175
11
161.569
21
-44.4218
0
LINE
8
BLACK
6
CONTINUOUS
10
161.569
20
-44.4218
11
161.623
21
-44.3407
0
LINE
8
BLACK
6
CONTINUOUS
10
161.623
20
-44.3407
11
161.704
21
-44.2865
0
LINE
8
BLACK
6
CONTINUOUS
10
161.704
20
-44.2865
11
161.8
21
-44.2675
0
LINE
8
BLACK
6
CONTINUOUS
10
161.8
20
-44.2675
11
163.8
21
-44.2675
0
LINE
8
BLACK
6
CONTINUOUS
10
163.8
20
-44.2675
11
163.896
21
-44.2865
0
LINE
8
BLACK
6
CONTINUOUS
10
70.8936
20
-47.7882
11
69.776
21
-47.7882
0
LINE
8
BLACK
6
CONTINUOUS
10
69.776
20
-47.7882
11
69.776
21
-47.4326
0
LINE
8
BLACK
6
CONTINUOUS
10
69.776
20
-47.4326
11
70.8936
21
-47.4326
0
LINE
8
BLACK
6
CONTINUOUS
10
70.8936
20
-47.4326
11
70.8936
21
-47.7882
0
LINE
8
BLACK
6
CONTINUOUS
10
72.824
20
-47.7882
11
71.7064
21
-47.7882
0
LINE
8
BLACK
6
CONTINUOUS
10
71.7064
20
-47.7882
11
71.7064
21
-47.4326
0
LINE
8
BLACK
6
CONTINUOUS
10
71.7064
20
-47.4326
11
72.824
21
-47.4326
0
LINE
8
BLACK
6
CONTINUOUS
10
72.824
20
-47.4326
11
72.824
21
-47.7882
0
LINE
8
BLACK
6
CONTINUOUS
10
154.996
20
-46.094
11
155.077
21
-46.1482
0
LINE
8
BLACK
6
CONTINUOUS
10
155.077
20
-46.1482
11
155.131
21
-46.2293
0
LINE
8
BLACK
6
CONTINUOUS
10
155.131
20
-46.2293
11
155.15
21
-46.325
0
LINE
8
BLACK
6
CONTINUOUS
10
155.15
20
-46.325
11
155.15
21
-47.275
0
LINE
8
BLACK
6
CONTINUOUS
10
155.15
20
-47.275
11
155.131
21
-47.3707
0
LINE
8
BLACK
6
CONTINUOUS
10
155.131
20
-47.3707
11
155.077
21
-47.4518
0
LINE
8
BLACK
6
CONTINUOUS
10
155.077
20
-47.4518
11
154.996
21
-47.506
0
LINE
8
BLACK
6
CONTINUOUS
10
154.996
20
-47.506
11
154.9
21
-47.525
0
LINE
8
BLACK
6
CONTINUOUS
10
154.9
20
-47.525
11
154.4
21
-47.525
0
LINE
8
BLACK
6
CONTINUOUS
10
154.4
20
-47.525
11
154.304
21
-47.506
0
LINE
8
BLACK
6
CONTINUOUS
10
154.304
20
-47.506
11
154.223
21
-47.4518
0
LINE
8
BLACK
6
CONTINUOUS
10
154.223
20
-47.4518
11
154.169
21
-47.3707
0
LINE
8
BLACK
6
CONTINUOUS
10
154.169
20
-47.3707
11
154.15
21
-47.275
0
LINE
8
BLACK
6
CONTINUOUS
10
154.15
20
-47.275
11
154.15
21
-46.325
0
LINE
8
BLACK
6
CONTINUOUS
10
154.15
20
-46.325
11
154.169
21
-46.2293
0
LINE
8
BLACK
6
CONTINUOUS
10
154.169
20
-46.2293
11
154.223
21
-46.1482
0
LINE
8
BLACK
6
CONTINUOUS
10
154.223
20
-46.1482
11
154.304
21
-46.094
0
LINE
8
BLACK
6
CONTINUOUS
10
154.304
20
-46.094
11
154.4
21
-46.075
0
LINE
8
BLACK
6
CONTINUOUS
10
154.4
20
-46.075
11
154.9
21
-46.075
0
LINE
8
BLACK
6
CONTINUOUS
10
154.9
20
-46.075
11
154.996
21
-46.094
0
LINE
8
BLACK
6
CONTINUOUS
10
156.896
20
-46.094
11
156.977
21
-46.1482
0
LINE
8
BLACK
6
CONTINUOUS
10
156.977
20
-46.1482
11
157.031
21
-46.2293
0
LINE
8
BLACK
6
CONTINUOUS
10
157.031
20
-46.2293
11
157.05
21
-46.325
0
LINE
8
BLACK
6
CONTINUOUS
10
157.05
20
-46.325
11
157.05
21
-47.275
0
LINE
8
BLACK
6
CONTINUOUS
10
157.05
20
-47.275
11
157.031
21
-47.3707
0
LINE
8
BLACK
6
CONTINUOUS
10
157.031
20
-47.3707
11
156.977
21
-47.4518
0
LINE
8
BLACK
6
CONTINUOUS
10
156.977
20
-47.4518
11
156.896
21
-47.506
0
LINE
8
BLACK
6
CONTINUOUS
10
156.896
20
-47.506
11
156.8
21
-47.525
0
LINE
8
BLACK
6
CONTINUOUS
10
156.8
20
-47.525
11
156.3
21
-47.525
0
LINE
8
BLACK
6
CONTINUOUS
10
156.3
20
-47.525
11
156.204
21
-47.506
0
LINE
8
BLACK
6
CONTINUOUS
10
156.204
20
-47.506
11
156.123
21
-47.4518
0
LINE
8
BLACK
6
CONTINUOUS
10
156.123
20
-47.4518
11
156.069
21
-47.3707
0
LINE
8
BLACK
6
CONTINUOUS
10
156.069
20
-47.3707
11
156.05
21
-47.275
0
LINE
8
BLACK
6
CONTINUOUS
10
156.05
20
-47.275
11
156.05
21
-46.325
0
LINE
8
BLACK
6
CONTINUOUS
10
156.05
20
-46.325
11
156.069
21
-46.2293
0
LINE
8
BLACK
6
CONTINUOUS
10
156.069
20
-46.2293
11
156.123
21
-46.1482
0
LINE
8
BLACK
6
CONTINUOUS
10
156.123
20
-46.1482
11
156.204
21
-46.094
0
LINE
8
BLACK
6
CONTINUOUS
10
156.204
20
-46.094
11
156.3
21
-46.075
0
LINE
8
BLACK
6
CONTINUOUS
10
156.3
20
-46.075
11
156.8
21
-46.075
0
LINE
8
BLACK
6
CONTINUOUS
10
156.8
20
-46.075
11
156.896
21
-46.094
0
LINE
8
BLACK
6
CONTINUOUS
10
72.824
20
-47.1278
11
71.7064
21
-47.1278
0
LINE
8
BLACK
6
CONTINUOUS
10
71.7064
20
-47.1278
11
71.7064
21
-46.7722
0
LINE
8
BLACK
6
CONTINUOUS
10
71.7064
20
-46.7722
11
72.824
21
-46.7722
0
LINE
8
BLACK
6
CONTINUOUS
10
72.824
20
-46.7722
11
72.824
21
-47.1278
0
LINE
8
BLACK
6
CONTINUOUS
10
150.171
20
-45.344
11
150.252
21
-45.3982
0
LINE
8
BLACK
6
CONTINUOUS
10
150.252
20
-45.3982
11
150.306
21
-45.4793
0
LINE
8
BLACK
6
CONTINUOUS
10
150.306
20
-45.4793
11
150.325
21
-45.575
0
LINE
8
BLACK
6
CONTINUOUS
10
150.325
20
-45.575
11
150.325
21
-46.875
0
LINE
8
BLACK
6
CONTINUOUS
10
150.325
20
-46.875
11
150.306
21
-46.9707
0
LINE
8
BLACK
6
CONTINUOUS
10
150.306
20
-46.9707
11
150.252
21
-47.0518
0
LINE
8
BLACK
6
CONTINUOUS
10
150.252
20
-47.0518
11
150.171
21
-47.106
0
LINE
8
BLACK
6
CONTINUOUS
10
150.171
20
-47.106
11
150.075
21
-47.125
0
LINE
8
BLACK
6
CONTINUOUS
10
150.075
20
-47.125
11
149.425
21
-47.125
0
LINE
8
BLACK
6
CONTINUOUS
10
149.425
20
-47.125
11
149.329
21
-47.106
0
LINE
8
BLACK
6
CONTINUOUS
10
149.329
20
-47.106
11
149.248
21
-47.0518
0
LINE
8
BLACK
6
CONTINUOUS
10
149.248
20
-47.0518
11
149.194
21
-46.9707
0
LINE
8
BLACK
6
CONTINUOUS
10
149.194
20
-46.9707
11
149.175
21
-46.875
0
LINE
8
BLACK
6
CONTINUOUS
10
149.175
20
-46.875
11
149.175
21
-45.575
0
LINE
8
BLACK
6
CONTINUOUS
10
149.175
20
-45.575
11
149.194
21
-45.4793
0
LINE
8
BLACK
6
CONTINUOUS
10
149.194
20
-45.4793
11
149.248
21
-45.3982
0
LINE
8
BLACK
6
CONTINUOUS
10
149.248
20
-45.3982
11
149.329
21
-45.344
0
LINE
8
BLACK
6
CONTINUOUS
10
149.329
20
-45.344
11
149.425
21
-45.325
0
LINE
8
BLACK
6
CONTINUOUS
10
149.425
20
-45.325
11
150.075
21
-45.325
0
LINE
8
BLACK
6
CONTINUOUS
10
150.075
20
-45.325
11
150.171
21
-45.344
0
LINE
8
BLACK
6
CONTINUOUS
10
153.121
20
-45.344
11
153.202
21
-45.3982
0
LINE
8
BLACK
6
CONTINUOUS
10
153.202
20
-45.3982
11
153.256
21
-45.4793
0
LINE
8
BLACK
6
CONTINUOUS
10
153.256
20
-45.4793
11
153.275
21
-45.575
0
LINE
8
BLACK
6
CONTINUOUS
10
153.275
20
-45.575
11
153.275
21
-46.875
0
LINE
8
BLACK
6
CONTINUOUS
10
153.275
20
-46.875
11
153.256
21
-46.9707
0
LINE
8
BLACK
6
CONTINUOUS
10
153.256
20
-46.9707
11
153.202
21
-47.0518
0
LINE
8
BLACK
6
CONTINUOUS
10
153.202
20
-47.0518
11
153.121
21
-47.106
0
LINE
8
BLACK
6
CONTINUOUS
10
153.121
20
-47.106
11
153.025
21
-47.125
0
LINE
8
BLACK
6
CONTINUOUS
10
153.025
20
-47.125
11
152.375
21
-47.125
0
LINE
8
BLACK
6
CONTINUOUS
10
152.375
20
-47.125
11
152.279
21
-47.106
0
LINE
8
BLACK
6
CONTINUOUS
10
152.279
20
-47.106
11
152.198
21
-47.0518
0
LINE
8
BLACK
6
CONTINUOUS
10
152.198
20
-47.0518
11
152.144
21
-46.9707
0
LINE
8
BLACK
6
CONTINUOUS
10
152.144
20
-46.9707
11
152.125
21
-46.875
0
LINE
8
BLACK
6
CONTINUOUS
10
152.125
20
-46.875
11
152.125
21
-45.575
0
LINE
8
BLACK
6
CONTINUOUS
10
152.125
20
-45.575
11
152.144
21
-45.4793
0
LINE
8
BLACK
6
CONTINUOUS
10
152.144
20
-45.4793
11
152.198
21
-45.3982
0
LINE
8
BLACK
6
CONTINUOUS
10
152.198
20
-45.3982
11
152.279
21
-45.344
0
LINE
8
BLACK
6
CONTINUOUS
10
152.279
20
-45.344
11
152.375
21
-45.325
0
LINE
8
BLACK
6
CONTINUOUS
10
152.375
20
-45.325
11
153.025
21
-45.325
0
LINE
8
BLACK
6
CONTINUOUS
10
153.025
20
-45.325
11
153.121
21
-45.344
0
LINE
8
BLACK
6
CONTINUOUS
10
63.9
20
-46.9
11
62.4
21
-46.9
0
LINE
8
BLACK
6
CONTINUOUS
10
62.4
20
-46.9
11
62.4
21
-45.9
0
LINE
8
BLACK
6
CONTINUOUS
10
62.4
20
-45.9
11
63.9
21
-45.9
0
LINE
8
BLACK
6
CONTINUOUS
10
63.9
20
-45.9
11
63.9
21
-46.9
0
LINE
8
BLACK
6
CONTINUOUS
10
68.8
20
-46.9
11
67.3
21
-46.9
0
LINE
8
BLACK
6
CONTINUOUS
10
67.3
20
-46.9
11
67.3
21
-45.9
0
LINE
8
BLACK
6
CONTINUOUS
10
67.3
20
-45.9
11
68.8
21
-45.9
0
LINE
8
BLACK
6
CONTINUOUS
10
68.8
20
-45.9
11
68.8
21
-46.9
0
LINE
8
BLACK
6
CONTINUOUS
10
88.9
20
-46.9
11
87.4
21
-46.9
0
LINE
8
BLACK
6
CONTINUOUS
10
87.4
20
-46.9
11
87.4
21
-45.9
0
LINE
8
BLACK
6
CONTINUOUS
10
87.4
20
-45.9
11
88.9
21
-45.9
0
LINE
8
BLACK
6
CONTINUOUS
10
88.9
20
-45.9
11
88.9
21
-46.9
0
LINE
8
BLACK
6
CONTINUOUS
10
93.8
20
-46.9
11
92.3
21
-46.9
0
LINE
8
BLACK
6
CONTINUOUS
10
92.3
20
-46.9
11
92.3
21
-45.9
0
LINE
8
BLACK
6
CONTINUOUS
10
92.3
20
-45.9
11
93.8
21
-45.9
0
LINE
8
BLACK
6
CONTINUOUS
10
93.8
20
-45.9
11
93.8
21
-46.9
0
LINE
8
BLACK
6
CONTINUOUS
10
113.9
20
-46.9
11
112.4
21
-46.9
0
LINE
8
BLACK
6
CONTINUOUS
10
112.4
20
-46.9
11
112.4
21
-45.9
0
LINE
8
BLACK
6
CONTINUOUS
10
112.4
20
-45.9
11
113.9
21
-45.9
0
LINE
8
BLACK
6
CONTINUOUS
10
113.9
20
-45.9
11
113.9
21
-46.9
0
LINE
8
BLACK
6
CONTINUOUS
10
118.8
20
-46.9
11
117.3
21
-46.9
0
LINE
8
BLACK
6
CONTINUOUS
10
117.3
20
-46.9
11
117.3
21
-45.9
0
LINE
8
BLACK
6
CONTINUOUS
10
117.3
20
-45.9
11
118.8
21
-45.9
0
LINE
8
BLACK
6
CONTINUOUS
10
118.8
20
-45.9
11
118.8
21
-46.9
0
LINE
8
BLACK
6
CONTINUOUS
10
138.9
20
-46.9
11
137.4
21
-46.9
0
LINE
8
BLACK
6
CONTINUOUS
10
137.4
20
-46.9
11
137.4
21
-45.9
0
LINE
8
BLACK
6
CONTINUOUS
10
137.4
20
-45.9
11
138.9
21
-45.9
0
LINE
8
BLACK
6
CONTINUOUS
10
138.9
20
-45.9
11
138.9
21
-46.9
0
LINE
8
BLACK
6
CONTINUOUS
10
143.8
20
-46.9
11
142.3
21
-46.9
0
LINE
8
BLACK
6
CONTINUOUS
10
142.3
20
-46.9
11
142.3
21
-45.9
0
LINE
8
BLACK
6
CONTINUOUS
10
142.3
20
-45.9
11
143.8
21
-45.9
0
LINE
8
BLACK
6
CONTINUOUS
10
143.8
20
-45.9
11
143.8
21
-46.9
0
LINE
8
BLACK
6
CONTINUOUS
10
70.8936
20
-46.4674
11
69.776
21
-46.4674
0
LINE
8
BLACK
6
CONTINUOUS
10
69.776
20
-46.4674
11
69.776
21
-46.1118
0
LINE
8
BLACK
6
CONTINUOUS
10
69.776
20
-46.1118
11
70.8936
21
-46.1118
0
LINE
8
BLACK
6
CONTINUOUS
10
70.8936
20
-46.1118
11
70.8936
21
-46.4674
0
LINE
8
BLACK
6
CONTINUOUS
10
72.824
20
-46.4674
11
71.7064
21
-46.4674
0
LINE
8
BLACK
6
CONTINUOUS
10
71.7064
20
-46.4674
11
71.7064
21
-46.1118
0
LINE
8
BLACK
6
CONTINUOUS
10
71.7064
20
-46.1118
11
72.824
21
-46.1118
0
LINE
8
BLACK
6
CONTINUOUS
10
72.824
20
-46.1118
11
72.824
21
-46.4674
0
LINE
8
BLACK
6
CONTINUOUS
10
64.8957
20
-43.294
11
64.9768
21
-43.3482
0
LINE
8
BLACK
6
CONTINUOUS
10
64.9768
20
-43.3482
11
65.031
21
-43.4293
0
LINE
8
BLACK
6
CONTINUOUS
10
65.031
20
-43.4293
11
65.05
21
-43.525
0
LINE
8
BLACK
6
CONTINUOUS
10
65.05
20
-43.525
11
65.05
21
-44.475
0
LINE
8
BLACK
6
CONTINUOUS
10
65.05
20
-44.475
11
65.031
21
-44.5707
0
LINE
8
BLACK
6
CONTINUOUS
10
65.031
20
-44.5707
11
64.9768
21
-44.6518
0
LINE
8
BLACK
6
CONTINUOUS
10
64.9768
20
-44.6518
11
64.8957
21
-44.706
0
LINE
8
BLACK
6
CONTINUOUS
10
64.8957
20
-44.706
11
64.8
21
-44.725
0
LINE
8
BLACK
6
CONTINUOUS
10
64.8
20
-44.725
11
64.3
21
-44.725
0
LINE
8
BLACK
6
CONTINUOUS
10
64.3
20
-44.725
11
64.2043
21
-44.706
0
LINE
8
BLACK
6
CONTINUOUS
10
64.2043
20
-44.706
11
64.1232
21
-44.6518
0
LINE
8
BLACK
6
CONTINUOUS
10
64.1232
20
-44.6518
11
64.069
21
-44.5707
0
LINE
8
BLACK
6
CONTINUOUS
10
64.069
20
-44.5707
11
64.05
21
-44.475
0
LINE
8
BLACK
6
CONTINUOUS
10
64.05
20
-44.475
11
64.05
21
-43.525
0
LINE
8
BLACK
6
CONTINUOUS
10
64.05
20
-43.525
11
64.069
21
-43.4293
0
LINE
8
BLACK
6
CONTINUOUS
10
64.069
20
-43.4293
11
64.1232
21
-43.3482
0
LINE
8
BLACK
6
CONTINUOUS
10
64.1232
20
-43.3482
11
64.2043
21
-43.294
0
LINE
8
BLACK
6
CONTINUOUS
10
64.2043
20
-43.294
11
64.3
21
-43.275
0
LINE
8
BLACK
6
CONTINUOUS
10
64.3
20
-43.275
11
64.8
21
-43.275
0
LINE
8
BLACK
6
CONTINUOUS
10
64.8
20
-43.275
11
64.8957
21
-43.294
0
LINE
8
BLACK
6
CONTINUOUS
10
66.7957
20
-43.294
11
66.8768
21
-43.3482
0
LINE
8
BLACK
6
CONTINUOUS
10
66.8768
20
-43.3482
11
66.931
21
-43.4293
0
LINE
8
BLACK
6
CONTINUOUS
10
66.931
20
-43.4293
11
66.95
21
-43.525
0
LINE
8
BLACK
6
CONTINUOUS
10
66.95
20
-43.525
11
66.95
21
-44.475
0
LINE
8
BLACK
6
CONTINUOUS
10
66.95
20
-44.475
11
66.931
21
-44.5707
0
LINE
8
BLACK
6
CONTINUOUS
10
66.931
20
-44.5707
11
66.8768
21
-44.6518
0
LINE
8
BLACK
6
CONTINUOUS
10
66.8768
20
-44.6518
11
66.7957
21
-44.706
0
LINE
8
BLACK
6
CONTINUOUS
10
66.7957
20
-44.706
11
66.7
21
-44.725
0
LINE
8
BLACK
6
CONTINUOUS
10
66.7
20
-44.725
11
66.2
21
-44.725
0
LINE
8
BLACK
6
CONTINUOUS
10
66.2
20
-44.725
11
66.1043
21
-44.706
0
LINE
8
BLACK
6
CONTINUOUS
10
66.1043
20
-44.706
11
66.0232
21
-44.6518
0
LINE
8
BLACK
6
CONTINUOUS
10
66.0232
20
-44.6518
11
65.969
21
-44.5707
0
LINE
8
BLACK
6
CONTINUOUS
10
65.969
20
-44.5707
11
65.95
21
-44.475
0
LINE
8
BLACK
6
CONTINUOUS
10
65.95
20
-44.475
11
65.95
21
-43.525
0
LINE
8
BLACK
6
CONTINUOUS
10
65.95
20
-43.525
11
65.969
21
-43.4293
0
LINE
8
BLACK
6
CONTINUOUS
10
65.969
20
-43.4293
11
66.0232
21
-43.3482
0
LINE
8
BLACK
6
CONTINUOUS
10
66.0232
20
-43.3482
11
66.1043
21
-43.294
0
LINE
8
BLACK
6
CONTINUOUS
10
66.1043
20
-43.294
11
66.2
21
-43.275
0
LINE
8
BLACK
6
CONTINUOUS
10
66.2
20
-43.275
11
66.7
21
-43.275
0
LINE
8
BLACK
6
CONTINUOUS
10
66.7
20
-43.275
11
66.7957
21
-43.294
0
LINE
8
BLACK
6
CONTINUOUS
10
89.8957
20
-43.294
11
89.9768
21
-43.3482
0
LINE
8
BLACK
6
CONTINUOUS
10
89.9768
20
-43.3482
11
90.031
21
-43.4293
0
LINE
8
BLACK
6
CONTINUOUS
10
90.031
20
-43.4293
11
90.05
21
-43.525
0
LINE
8
BLACK
6
CONTINUOUS
10
90.05
20
-43.525
11
90.05
21
-44.475
0
LINE
8
BLACK
6
CONTINUOUS
10
90.05
20
-44.475
11
90.031
21
-44.5707
0
LINE
8
BLACK
6
CONTINUOUS
10
90.031
20
-44.5707
11
89.9768
21
-44.6518
0
LINE
8
BLACK
6
CONTINUOUS
10
89.9768
20
-44.6518
11
89.8957
21
-44.706
0
LINE
8
BLACK
6
CONTINUOUS
10
89.8957
20
-44.706
11
89.8
21
-44.725
0
LINE
8
BLACK
6
CONTINUOUS
10
89.8
20
-44.725
11
89.3
21
-44.725
0
LINE
8
BLACK
6
CONTINUOUS
10
89.3
20
-44.725
11
89.2043
21
-44.706
0
LINE
8
BLACK
6
CONTINUOUS
10
89.2043
20
-44.706
11
89.1232
21
-44.6518
0
LINE
8
BLACK
6
CONTINUOUS
10
89.1232
20
-44.6518
11
89.069
21
-44.5707
0
LINE
8
BLACK
6
CONTINUOUS
10
89.069
20
-44.5707
11
89.05
21
-44.475
0
LINE
8
BLACK
6
CONTINUOUS
10
89.05
20
-44.475
11
89.05
21
-43.525
0
LINE
8
BLACK
6
CONTINUOUS
10
89.05
20
-43.525
11
89.069
21
-43.4293
0
LINE
8
BLACK
6
CONTINUOUS
10
89.069
20
-43.4293
11
89.1232
21
-43.3482
0
LINE
8
BLACK
6
CONTINUOUS
10
89.1232
20
-43.3482
11
89.2043
21
-43.294
0
LINE
8
BLACK
6
CONTINUOUS
10
89.2043
20
-43.294
11
89.3
21
-43.275
0
LINE
8
BLACK
6
CONTINUOUS
10
89.3
20
-43.275
11
89.8
21
-43.275
0
LINE
8
BLACK
6
CONTINUOUS
10
89.8
20
-43.275
11
89.8957
21
-43.294
0
LINE
8
BLACK
6
CONTINUOUS
10
91.7957
20
-43.294
11
91.8768
21
-43.3482
0
LINE
8
BLACK
6
CONTINUOUS
10
91.8768
20
-43.3482
11
91.931
21
-43.4293
0
LINE
8
BLACK
6
CONTINUOUS
10
91.931
20
-43.4293
11
91.95
21
-43.525
0
LINE
8
BLACK
6
CONTINUOUS
10
91.95
20
-43.525
11
91.95
21
-44.475
0
LINE
8
BLACK
6
CONTINUOUS
10
91.95
20
-44.475
11
91.931
21
-44.5707
0
LINE
8
BLACK
6
CONTINUOUS
10
91.931
20
-44.5707
11
91.8768
21
-44.6518
0
LINE
8
BLACK
6
CONTINUOUS
10
91.8768
20
-44.6518
11
91.7957
21
-44.706
0
LINE
8
BLACK
6
CONTINUOUS
10
91.7957
20
-44.706
11
91.7
21
-44.725
0
LINE
8
BLACK
6
CONTINUOUS
10
91.7
20
-44.725
11
91.2
21
-44.725
0
LINE
8
BLACK
6
CONTINUOUS
10
91.2
20
-44.725
11
91.1043
21
-44.706
0
LINE
8
BLACK
6
CONTINUOUS
10
91.1043
20
-44.706
11
91.0232
21
-44.6518
0
LINE
8
BLACK
6
CONTINUOUS
10
91.0232
20
-44.6518
11
90.969
21
-44.5707
0
LINE
8
BLACK
6
CONTINUOUS
10
90.969
20
-44.5707
11
90.95
21
-44.475
0
LINE
8
BLACK
6
CONTINUOUS
10
90.95
20
-44.475
11
90.95
21
-43.525
0
LINE
8
BLACK
6
CONTINUOUS
10
90.95
20
-43.525
11
90.969
21
-43.4293
0
LINE
8
BLACK
6
CONTINUOUS
10
90.969
20
-43.4293
11
91.0232
21
-43.3482
0
LINE
8
BLACK
6
CONTINUOUS
10
91.0232
20
-43.3482
11
91.1043
21
-43.294
0
LINE
8
BLACK
6
CONTINUOUS
10
91.1043
20
-43.294
11
91.2
21
-43.275
0
LINE
8
BLACK
6
CONTINUOUS
10
91.2
20
-43.275
11
91.7
21
-43.275
0
LINE
8
BLACK
6
CONTINUOUS
10
91.7
20
-43.275
11
91.7957
21
-43.294
0
LINE
8
BLACK
6
CONTINUOUS
10
114.896
20
-43.294
11
114.977
21
-43.3482
0
LINE
8
BLACK
6
CONTINUOUS
10
114.977
20
-43.3482
11
115.031
21
-43.4293
0
LINE
8
BLACK
6
CONTINUOUS
10
115.031
20
-43.4293
11
115.05
21
-43.525
0
LINE
8
BLACK
6
CONTINUOUS
10
115.05
20
-43.525
11
115.05
21
-44.475
0
LINE
8
BLACK
6
CONTINUOUS
10
115.05
20
-44.475
11
115.031
21
-44.5707
0
LINE
8
BLACK
6
CONTINUOUS
10
115.031
20
-44.5707
11
114.977
21
-44.6518
0
LINE
8
BLACK
6
CONTINUOUS
10
114.977
20
-44.6518
11
114.896
21
-44.706
0
LINE
8
BLACK
6
CONTINUOUS
10
114.896
20
-44.706
11
114.8
21
-44.725
0
LINE
8
BLACK
6
CONTINUOUS
10
114.8
20
-44.725
11
114.3
21
-44.725
0
LINE
8
BLACK
6
CONTINUOUS
10
114.3
20
-44.725
11
114.204
21
-44.706
0
LINE
8
BLACK
6
CONTINUOUS
10
114.204
20
-44.706
11
114.123
21
-44.6518
0
LINE
8
BLACK
6
CONTINUOUS
10
114.123
20
-44.6518
11
114.069
21
-44.5707
0
LINE
8
BLACK
6
CONTINUOUS
10
114.069
20
-44.5707
11
114.05
21
-44.475
0
LINE
8
BLACK
6
CONTINUOUS
10
114.05
20
-44.475
11
114.05
21
-43.525
0
LINE
8
BLACK
6
CONTINUOUS
10
114.05
20
-43.525
11
114.069
21
-43.4293
0
LINE
8
BLACK
6
CONTINUOUS
10
114.069
20
-43.4293
11
114.123
21
-43.3482
0
LINE
8
BLACK
6
CONTINUOUS
10
114.123
20
-43.3482
11
114.204
21
-43.294
0
LINE
8
BLACK
6
CONTINUOUS
10
114.204
20
-43.294
11
114.3
21
-43.275
0
LINE
8
BLACK
6
CONTINUOUS
10
114.3
20
-43.275
11
114.8
21
-43.275
0
LINE
8
BLACK
6
CONTINUOUS
10
114.8
20
-43.275
11
114.896
21
-43.294
0
LINE
8
BLACK
6
CONTINUOUS
10
116.796
20
-43.294
11
116.877
21
-43.3482
0
LINE
8
BLACK
6
CONTINUOUS
10
116.877
20
-43.3482
11
116.931
21
-43.4293
0
LINE
8
BLACK
6
CONTINUOUS
10
116.931
20
-43.4293
11
116.95
21
-43.525
0
LINE
8
BLACK
6
CONTINUOUS
10
116.95
20
-43.525
11
116.95
21
-44.475
0
LINE
8
BLACK
6
CONTINUOUS
10
116.95
20
-44.475
11
116.931
21
-44.5707
0
LINE
8
BLACK
6
CONTINUOUS
10
116.931
20
-44.5707
11
116.877
21
-44.6518
0
LINE
8
BLACK
6
CONTINUOUS
10
116.877
20
-44.6518
11
116.796
21
-44.706
0
LINE
8
BLACK
6
CONTINUOUS
10
116.796
20
-44.706
11
116.7
21
-44.725
0
LINE
8
BLACK
6
CONTINUOUS
10
116.7
20
-44.725
11
116.2
21
-44.725
0
LINE
8
BLACK
6
CONTINUOUS
10
116.2
20
-44.725
11
116.104
21
-44.706
0
LINE
8
BLACK
6
CONTINUOUS
10
116.104
20
-44.706
11
116.023
21
-44.6518
0
LINE
8
BLACK
6
CONTINUOUS
10
116.023
20
-44.6518
11
115.969
21
-44.5707
0
LINE
8
BLACK
6
CONTINUOUS
10
115.969
20
-44.5707
11
115.95
21
-44.475
0
LINE
8
BLACK
6
CONTINUOUS
10
115.95
20
-44.475
11
115.95
21
-43.525
0
LINE
8
BLACK
6
CONTINUOUS
10
115.95
20
-43.525
11
115.969
21
-43.4293
0
LINE
8
BLACK
6
CONTINUOUS
10
115.969
20
-43.4293
11
116.023
21
-43.3482
0
LINE
8
BLACK
6
CONTINUOUS
10
116.023
20
-43.3482
11
116.104
21
-43.294
0
LINE
8
BLACK
6
CONTINUOUS
10
116.104
20
-43.294
11
116.2
21
-43.275
0
LINE
8
BLACK
6
CONTINUOUS
10
116.2
20
-43.275
11
116.7
21
-43.275
0
LINE
8
BLACK
6
CONTINUOUS
10
116.7
20
-43.275
11
116.796
21
-43.294
0
LINE
8
BLACK
6
CONTINUOUS
10
139.896
20
-43.294
11
139.977
21
-43.3482
0
LINE
8
BLACK
6
CONTINUOUS
10
139.977
20
-43.3482
11
140.031
21
-43.4293
0
LINE
8
BLACK
6
CONTINUOUS
10
140.031
20
-43.4293
11
140.05
21
-43.525
0
LINE
8
BLACK
6
CONTINUOUS
10
140.05
20
-43.525
11
140.05
21
-44.475
0
LINE
8
BLACK
6
CONTINUOUS
10
140.05
20
-44.475
11
140.031
21
-44.5707
0
LINE
8
BLACK
6
CONTINUOUS
10
140.031
20
-44.5707
11
139.977
21
-44.6518
0
LINE
8
BLACK
6
CONTINUOUS
10
139.977
20
-44.6518
11
139.896
21
-44.706
0
LINE
8
BLACK
6
CONTINUOUS
10
139.896
20
-44.706
11
139.8
21
-44.725
0
LINE
8
BLACK
6
CONTINUOUS
10
139.8
20
-44.725
11
139.3
21
-44.725
0
LINE
8
BLACK
6
CONTINUOUS
10
139.3
20
-44.725
11
139.204
21
-44.706
0
LINE
8
BLACK
6
CONTINUOUS
10
139.204
20
-44.706
11
139.123
21
-44.6518
0
LINE
8
BLACK
6
CONTINUOUS
10
139.123
20
-44.6518
11
139.069
21
-44.5707
0
LINE
8
BLACK
6
CONTINUOUS
10
139.069
20
-44.5707
11
139.05
21
-44.475
0
LINE
8
BLACK
6
CONTINUOUS
10
139.05
20
-44.475
11
139.05
21
-43.525
0
LINE
8
BLACK
6
CONTINUOUS
10
139.05
20
-43.525
11
139.069
21
-43.4293
0
LINE
8
BLACK
6
CONTINUOUS
10
139.069
20
-43.4293
11
139.123
21
-43.3482
0
LINE
8
BLACK
6
CONTINUOUS
10
139.123
20
-43.3482
11
139.204
21
-43.294
0
LINE
8
BLACK
6
CONTINUOUS
10
139.204
20
-43.294
11
139.3
21
-43.275
0
LINE
8
BLACK
6
CONTINUOUS
10
139.3
20
-43.275
11
139.8
21
-43.275
0
LINE
8
BLACK
6
CONTINUOUS
10
139.8
20
-43.275
11
139.896
21
-43.294
0
LINE
8
BLACK
6
CONTINUOUS
10
141.796
20
-43.294
11
141.877
21
-43.3482
0
LINE
8
BLACK
6
CONTINUOUS
10
141.877
20
-43.3482
11
141.931
21
-43.4293
0
LINE
8
BLACK
6
CONTINUOUS
10
141.931
20
-43.4293
11
141.95
21
-43.525
0
LINE
8
BLACK
6
CONTINUOUS
10
141.95
20
-43.525
11
141.95
21
-44.475
0
LINE
8
BLACK
6
CONTINUOUS
10
141.95
20
-44.475
11
141.931
21
-44.5707
0
LINE
8
BLACK
6
CONTINUOUS
10
141.931
20
-44.5707
11
141.877
21
-44.6518
0
LINE
8
BLACK
6
CONTINUOUS
10
141.877
20
-44.6518
11
141.796
21
-44.706
0
LINE
8
BLACK
6
CONTINUOUS
10
141.796
20
-44.706
11
141.7
21
-44.725
0
LINE
8
BLACK
6
CONTINUOUS
10
141.7
20
-44.725
11
141.2
21
-44.725
0
LINE
8
BLACK
6
CONTINUOUS
10
141.2
20
-44.725
11
141.104
21
-44.706
0
LINE
8
BLACK
6
CONTINUOUS
10
141.104
20
-44.706
11
141.023
21
-44.6518
0
LINE
8
BLACK
6
CONTINUOUS
10
141.023
20
-44.6518
11
140.969
21
-44.5707
0
LINE
8
BLACK
6
CONTINUOUS
10
140.969
20
-44.5707
11
140.95
21
-44.475
0
LINE
8
BLACK
6
CONTINUOUS
10
140.95
20
-44.475
11
140.95
21
-43.525
0
LINE
8
BLACK
6
CONTINUOUS
10
140.95
20
-43.525
11
140.969
21
-43.4293
0
LINE
8
BLACK
6
CONTINUOUS
10
140.969
20
-43.4293
11
141.023
21
-43.3482
0
LINE
8
BLACK
6
CONTINUOUS
10
141.023
20
-43.3482
11
141.104
21
-43.294
0
LINE
8
BLACK
6
CONTINUOUS
10
141.104
20
-43.294
11
141.2
21
-43.275
0
LINE
8
BLACK
6
CONTINUOUS
10
141.2
20
-43.275
11
141.7
21
-43.275
0
LINE
8
BLACK
6
CONTINUOUS
10
141.7
20
-43.275
11
141.796
21
-43.294
0
LINE
8
BLACK
6
CONTINUOUS
10
156.471
20
-43.394
11
156.552
21
-43.4482
0
LINE
8
BLACK
6
CONTINUOUS
10
156.552
20
-43.4482
11
156.606
21
-43.5293
0
LINE
8
BLACK
6
CONTINUOUS
10
156.606
20
-43.5293
11
156.625
21
-43.625
0
LINE
8
BLACK
6
CONTINUOUS
10
156.625
20
-43.625
11
156.625
21
-44.375
0
LINE
8
BLACK
6
CONTINUOUS
10
156.625
20
-44.375
11
156.606
21
-44.4707
0
LINE
8
BLACK
6
CONTINUOUS
10
156.606
20
-44.4707
11
156.552
21
-44.5518
0
LINE
8
BLACK
6
CONTINUOUS
10
156.552
20
-44.5518
11
156.471
21
-44.606
0
LINE
8
BLACK
6
CONTINUOUS
10
156.471
20
-44.606
11
156.375
21
-44.625
0
LINE
8
BLACK
6
CONTINUOUS
10
156.375
20
-44.625
11
154.225
21
-44.625
0
LINE
8
BLACK
6
CONTINUOUS
10
154.225
20
-44.625
11
154.129
21
-44.606
0
LINE
8
BLACK
6
CONTINUOUS
10
154.129
20
-44.606
11
154.048
21
-44.5518
0
LINE
8
BLACK
6
CONTINUOUS
10
154.048
20
-44.5518
11
153.994
21
-44.4707
0
LINE
8
BLACK
6
CONTINUOUS
10
153.994
20
-44.4707
11
153.975
21
-44.375
0
LINE
8
BLACK
6
CONTINUOUS
10
153.975
20
-44.375
11
153.975
21
-43.625
0
LINE
8
BLACK
6
CONTINUOUS
10
153.975
20
-43.625
11
153.994
21
-43.5293
0
LINE
8
BLACK
6
CONTINUOUS
10
153.994
20
-43.5293
11
154.048
21
-43.4482
0
LINE
8
BLACK
6
CONTINUOUS
10
154.048
20
-43.4482
11
154.129
21
-43.394
0
LINE
8
BLACK
6
CONTINUOUS
10
154.129
20
-43.394
11
154.225
21
-43.375
0
LINE
8
BLACK
6
CONTINUOUS
10
154.225
20
-43.375
11
156.375
21
-43.375
0
LINE
8
BLACK
6
CONTINUOUS
10
156.375
20
-43.375
11
156.471
21
-43.394
0
LINE
8
BLACK
6
CONTINUOUS
10
158.046
20
-43.144
11
158.127
21
-43.1982
0
LINE
8
BLACK
6
CONTINUOUS
10
158.127
20
-43.1982
11
158.181
21
-43.2793
0
LINE
8
BLACK
6
CONTINUOUS
10
158.181
20
-43.2793
11
158.2
21
-43.375
0
LINE
8
BLACK
6
CONTINUOUS
10
158.2
20
-43.375
11
158.2
21
-44.325
0
LINE
8
BLACK
6
CONTINUOUS
10
158.2
20
-44.325
11
158.181
21
-44.4207
0
LINE
8
BLACK
6
CONTINUOUS
10
158.181
20
-44.4207
11
158.127
21
-44.5018
0
LINE
8
BLACK
6
CONTINUOUS
10
158.127
20
-44.5018
11
158.046
21
-44.556
0
LINE
8
BLACK
6
CONTINUOUS
10
158.046
20
-44.556
11
157.95
21
-44.575
0
LINE
8
BLACK
6
CONTINUOUS
10
157.95
20
-44.575
11
157.45
21
-44.575
0
LINE
8
BLACK
6
CONTINUOUS
10
157.45
20
-44.575
11
157.354
21
-44.556
0
LINE
8
BLACK
6
CONTINUOUS
10
157.354
20
-44.556
11
157.273
21
-44.5018
0
LINE
8
BLACK
6
CONTINUOUS
10
157.273
20
-44.5018
11
157.219
21
-44.4207
0
LINE
8
BLACK
6
CONTINUOUS
10
157.219
20
-44.4207
11
157.2
21
-44.325
0
LINE
8
BLACK
6
CONTINUOUS
10
157.2
20
-44.325
11
157.2
21
-43.375
0
LINE
8
BLACK
6
CONTINUOUS
10
157.2
20
-43.375
11
157.219
21
-43.2793
0
LINE
8
BLACK
6
CONTINUOUS
10
157.219
20
-43.2793
11
157.273
21
-43.1982
0
LINE
8
BLACK
6
CONTINUOUS
10
157.273
20
-43.1982
11
157.354
21
-43.144
0
LINE
8
BLACK
6
CONTINUOUS
10
157.354
20
-43.144
11
157.45
21
-43.125
0
LINE
8
BLACK
6
CONTINUOUS
10
157.45
20
-43.125
11
157.95
21
-43.125
0
LINE
8
BLACK
6
CONTINUOUS
10
157.95
20
-43.125
11
158.046
21
-43.144
0
LINE
8
BLACK
6
CONTINUOUS
10
159.946
20
-43.144
11
160.027
21
-43.1982
0
LINE
8
BLACK
6
CONTINUOUS
10
160.027
20
-43.1982
11
160.081
21
-43.2793
0
LINE
8
BLACK
6
CONTINUOUS
10
160.081
20
-43.2793
11
160.1
21
-43.375
0
LINE
8
BLACK
6
CONTINUOUS
10
160.1
20
-43.375
11
160.1
21
-44.325
0
LINE
8
BLACK
6
CONTINUOUS
10
160.1
20
-44.325
11
160.081
21
-44.4207
0
LINE
8
BLACK
6
CONTINUOUS
10
160.081
20
-44.4207
11
160.027
21
-44.5018
0
LINE
8
BLACK
6
CONTINUOUS
10
160.027
20
-44.5018
11
159.946
21
-44.556
0
LINE
8
BLACK
6
CONTINUOUS
10
159.946
20
-44.556
11
159.85
21
-44.575
0
LINE
8
BLACK
6
CONTINUOUS
10
159.85
20
-44.575
11
159.35
21
-44.575
0
LINE
8
BLACK
6
CONTINUOUS
10
159.35
20
-44.575
11
159.254
21
-44.556
0
LINE
8
BLACK
6
CONTINUOUS
10
159.254
20
-44.556
11
159.173
21
-44.5018
0
LINE
8
BLACK
6
CONTINUOUS
10
159.173
20
-44.5018
11
159.119
21
-44.4207
0
LINE
8
BLACK
6
CONTINUOUS
10
159.119
20
-44.4207
11
159.1
21
-44.325
0
LINE
8
BLACK
6
CONTINUOUS
10
159.1
20
-44.325
11
159.1
21
-43.375
0
LINE
8
BLACK
6
CONTINUOUS
10
159.1
20
-43.375
11
159.119
21
-43.2793
0
LINE
8
BLACK
6
CONTINUOUS
10
159.119
20
-43.2793
11
159.173
21
-43.1982
0
LINE
8
BLACK
6
CONTINUOUS
10
159.173
20
-43.1982
11
159.254
21
-43.144
0
LINE
8
BLACK
6
CONTINUOUS
10
159.254
20
-43.144
11
159.35
21
-43.125
0
LINE
8
BLACK
6
CONTINUOUS
10
159.35
20
-43.125
11
159.85
21
-43.125
0
LINE
8
BLACK
6
CONTINUOUS
10
159.85
20
-43.125
11
159.946
21
-43.144
0
LINE
8
BLACK
6
CONTINUOUS
10
129.315
20
-43.1917
11
129.386
21
-43.2391
0
LINE
8
BLACK
6
CONTINUOUS
10
129.386
20
-43.2391
11
129.433
21
-43.31
0
LINE
8
BLACK
6
CONTINUOUS
10
129.433
20
-43.31
11
129.45
21
-43.3937
0
LINE
8
BLACK
6
CONTINUOUS
10
129.45
20
-43.3937
11
129.45
21
-43.9062
0
LINE
8
BLACK
6
CONTINUOUS
10
129.45
20
-43.9062
11
129.433
21
-43.99
0
LINE
8
BLACK
6
CONTINUOUS
10
129.433
20
-43.99
11
129.386
21
-44.0609
0
LINE
8
BLACK
6
CONTINUOUS
10
129.386
20
-44.0609
11
129.315
21
-44.1083
0
LINE
8
BLACK
6
CONTINUOUS
10
129.315
20
-44.1083
11
129.231
21
-44.125
0
LINE
8
BLACK
6
CONTINUOUS
10
129.231
20
-44.125
11
128.794
21
-44.125
0
LINE
8
BLACK
6
CONTINUOUS
10
128.794
20
-44.125
11
128.71
21
-44.1083
0
LINE
8
BLACK
6
CONTINUOUS
10
128.71
20
-44.1083
11
128.639
21
-44.0609
0
LINE
8
BLACK
6
CONTINUOUS
10
128.639
20
-44.0609
11
128.592
21
-43.99
0
LINE
8
BLACK
6
CONTINUOUS
10
128.592
20
-43.99
11
128.575
21
-43.9062
0
LINE
8
BLACK
6
CONTINUOUS
10
128.575
20
-43.9062
11
128.575
21
-43.3937
0
LINE
8
BLACK
6
CONTINUOUS
10
128.575
20
-43.3937
11
128.592
21
-43.31
0
LINE
8
BLACK
6
CONTINUOUS
10
128.592
20
-43.31
11
128.639
21
-43.2391
0
LINE
8
BLACK
6
CONTINUOUS
10
128.639
20
-43.2391
11
128.71
21
-43.1917
0
LINE
8
BLACK
6
CONTINUOUS
10
128.71
20
-43.1917
11
128.794
21
-43.175
0
LINE
8
BLACK
6
CONTINUOUS
10
128.794
20
-43.175
11
129.231
21
-43.175
0
LINE
8
BLACK
6
CONTINUOUS
10
129.231
20
-43.175
11
129.315
21
-43.1917
0
LINE
8
BLACK
6
CONTINUOUS
10
130.89
20
-43.1917
11
130.961
21
-43.2391
0
LINE
8
BLACK
6
CONTINUOUS
10
130.961
20
-43.2391
11
131.008
21
-43.31
0
LINE
8
BLACK
6
CONTINUOUS
10
131.008
20
-43.31
11
131.025
21
-43.3937
0
LINE
8
BLACK
6
CONTINUOUS
10
131.025
20
-43.3937
11
131.025
21
-43.9062
0
LINE
8
BLACK
6
CONTINUOUS
10
131.025
20
-43.9062
11
131.008
21
-43.99
0
LINE
8
BLACK
6
CONTINUOUS
10
131.008
20
-43.99
11
130.961
21
-44.0609
0
LINE
8
BLACK
6
CONTINUOUS
10
130.961
20
-44.0609
11
130.89
21
-44.1083
0
LINE
8
BLACK
6
CONTINUOUS
10
130.89
20
-44.1083
11
130.806
21
-44.125
0
LINE
8
BLACK
6
CONTINUOUS
10
130.806
20
-44.125
11
130.369
21
-44.125
0
LINE
8
BLACK
6
CONTINUOUS
10
130.369
20
-44.125
11
130.285
21
-44.1083
0
LINE
8
BLACK
6
CONTINUOUS
10
130.285
20
-44.1083
11
130.214
21
-44.0609
0
LINE
8
BLACK
6
CONTINUOUS
10
130.214
20
-44.0609
11
130.167
21
-43.99
0
LINE
8
BLACK
6
CONTINUOUS
10
130.167
20
-43.99
11
130.15
21
-43.9062
0
LINE
8
BLACK
6
CONTINUOUS
10
130.15
20
-43.9062
11
130.15
21
-43.3937
0
LINE
8
BLACK
6
CONTINUOUS
10
130.15
20
-43.3937
11
130.167
21
-43.31
0
LINE
8
BLACK
6
CONTINUOUS
10
130.167
20
-43.31
11
130.214
21
-43.2391
0
LINE
8
BLACK
6
CONTINUOUS
10
130.214
20
-43.2391
11
130.285
21
-43.1917
0
LINE
8
BLACK
6
CONTINUOUS
10
130.285
20
-43.1917
11
130.369
21
-43.175
0
LINE
8
BLACK
6
CONTINUOUS
10
130.369
20
-43.175
11
130.806
21
-43.175
0
LINE
8
BLACK
6
CONTINUOUS
10
130.806
20
-43.175
11
130.89
21
-43.1917
0
LINE
8
BLACK
6
CONTINUOUS
10
163.896
20
-39.4865
11
163.977
21
-39.5407
0
LINE
8
BLACK
6
CONTINUOUS
10
163.977
20
-39.5407
11
164.031
21
-39.6218
0
LINE
8
BLACK
6
CONTINUOUS
10
164.031
20
-39.6218
11
164.05
21
-39.7175
0
LINE
8
BLACK
6
CONTINUOUS
10
164.05
20
-39.7175
11
164.05
21
-43.2175
0
LINE
8
BLACK
6
CONTINUOUS
10
164.05
20
-43.2175
11
164.031
21
-43.3132
0
LINE
8
BLACK
6
CONTINUOUS
10
164.031
20
-43.3132
11
163.977
21
-43.3943
0
LINE
8
BLACK
6
CONTINUOUS
10
163.977
20
-43.3943
11
163.896
21
-43.4485
0
LINE
8
BLACK
6
CONTINUOUS
10
163.896
20
-43.4485
11
163.8
21
-43.4675
0
LINE
8
BLACK
6
CONTINUOUS
10
163.8
20
-43.4675
11
161.8
21
-43.4675
0
LINE
8
BLACK
6
CONTINUOUS
10
161.8
20
-43.4675
11
161.704
21
-43.4485
0
LINE
8
BLACK
6
CONTINUOUS
10
161.704
20
-43.4485
11
161.623
21
-43.3943
0
LINE
8
BLACK
6
CONTINUOUS
10
161.623
20
-43.3943
11
161.569
21
-43.3132
0
LINE
8
BLACK
6
CONTINUOUS
10
161.569
20
-43.3132
11
161.55
21
-43.2175
0
LINE
8
BLACK
6
CONTINUOUS
10
161.55
20
-43.2175
11
161.55
21
-39.7175
0
LINE
8
BLACK
6
CONTINUOUS
10
161.55
20
-39.7175
11
161.569
21
-39.6218
0
LINE
8
BLACK
6
CONTINUOUS
10
161.569
20
-39.6218
11
161.623
21
-39.5407
0
LINE
8
BLACK
6
CONTINUOUS
10
161.623
20
-39.5407
11
161.704
21
-39.4865
0
LINE
8
BLACK
6
CONTINUOUS
10
161.704
20
-39.4865
11
161.8
21
-39.4675
0
LINE
8
BLACK
6
CONTINUOUS
10
161.8
20
-39.4675
11
163.8
21
-39.4675
0
LINE
8
BLACK
6
CONTINUOUS
10
163.8
20
-39.4675
11
163.896
21
-39.4865
0
LINE
8
BLACK
6
CONTINUOUS
10
129.396
20
-41.194
11
129.477
21
-41.2482
0
LINE
8
BLACK
6
CONTINUOUS
10
129.477
20
-41.2482
11
129.531
21
-41.3293
0
LINE
8
BLACK
6
CONTINUOUS
10
129.531
20
-41.3293
11
129.55
21
-41.425
0
LINE
8
BLACK
6
CONTINUOUS
10
129.55
20
-41.425
11
129.55
21
-42.375
0
LINE
8
BLACK
6
CONTINUOUS
10
129.55
20
-42.375
11
129.531
21
-42.4707
0
LINE
8
BLACK
6
CONTINUOUS
10
129.531
20
-42.4707
11
129.477
21
-42.5518
0
LINE
8
BLACK
6
CONTINUOUS
10
129.477
20
-42.5518
11
129.396
21
-42.606
0
LINE
8
BLACK
6
CONTINUOUS
10
129.396
20
-42.606
11
129.3
21
-42.625
0
LINE
8
BLACK
6
CONTINUOUS
10
129.3
20
-42.625
11
128.8
21
-42.625
0
LINE
8
BLACK
6
CONTINUOUS
10
128.8
20
-42.625
11
128.704
21
-42.606
0
LINE
8
BLACK
6
CONTINUOUS
10
128.704
20
-42.606
11
128.623
21
-42.5518
0
LINE
8
BLACK
6
CONTINUOUS
10
128.623
20
-42.5518
11
128.569
21
-42.4707
0
LINE
8
BLACK
6
CONTINUOUS
10
128.569
20
-42.4707
11
128.55
21
-42.375
0
LINE
8
BLACK
6
CONTINUOUS
10
128.55
20
-42.375
11
128.55
21
-41.425
0
LINE
8
BLACK
6
CONTINUOUS
10
128.55
20
-41.425
11
128.569
21
-41.3293
0
LINE
8
BLACK
6
CONTINUOUS
10
128.569
20
-41.3293
11
128.623
21
-41.2482
0
LINE
8
BLACK
6
CONTINUOUS
10
128.623
20
-41.2482
11
128.704
21
-41.194
0
LINE
8
BLACK
6
CONTINUOUS
10
128.704
20
-41.194
11
128.8
21
-41.175
0
LINE
8
BLACK
6
CONTINUOUS
10
128.8
20
-41.175
11
129.3
21
-41.175
0
LINE
8
BLACK
6
CONTINUOUS
10
129.3
20
-41.175
11
129.396
21
-41.194
0
LINE
8
BLACK
6
CONTINUOUS
10
131.296
20
-41.194
11
131.377
21
-41.2482
0
LINE
8
BLACK
6
CONTINUOUS
10
131.377
20
-41.2482
11
131.431
21
-41.3293
0
LINE
8
BLACK
6
CONTINUOUS
10
131.431
20
-41.3293
11
131.45
21
-41.425
0
LINE
8
BLACK
6
CONTINUOUS
10
131.45
20
-41.425
11
131.45
21
-42.375
0
LINE
8
BLACK
6
CONTINUOUS
10
131.45
20
-42.375
11
131.431
21
-42.4707
0
LINE
8
BLACK
6
CONTINUOUS
10
131.431
20
-42.4707
11
131.377
21
-42.5518
0
LINE
8
BLACK
6
CONTINUOUS
10
131.377
20
-42.5518
11
131.296
21
-42.606
0
LINE
8
BLACK
6
CONTINUOUS
10
131.296
20
-42.606
11
131.2
21
-42.625
0
LINE
8
BLACK
6
CONTINUOUS
10
131.2
20
-42.625
11
130.7
21
-42.625
0
LINE
8
BLACK
6
CONTINUOUS
10
130.7
20
-42.625
11
130.604
21
-42.606
0
LINE
8
BLACK
6
CONTINUOUS
10
130.604
20
-42.606
11
130.523
21
-42.5518
0
LINE
8
BLACK
6
CONTINUOUS
10
130.523
20
-42.5518
11
130.469
21
-42.4707
0
LINE
8
BLACK
6
CONTINUOUS
10
130.469
20
-42.4707
11
130.45
21
-42.375
0
LINE
8
BLACK
6
CONTINUOUS
10
130.45
20
-42.375
11
130.45
21
-41.425
0
LINE
8
BLACK
6
CONTINUOUS
10
130.45
20
-41.425
11
130.469
21
-41.3293
0
LINE
8
BLACK
6
CONTINUOUS
10
130.469
20
-41.3293
11
130.523
21
-41.2482
0
LINE
8
BLACK
6
CONTINUOUS
10
130.523
20
-41.2482
11
130.604
21
-41.194
0
LINE
8
BLACK
6
CONTINUOUS
10
130.604
20
-41.194
11
130.7
21
-41.175
0
LINE
8
BLACK
6
CONTINUOUS
10
130.7
20
-41.175
11
131.2
21
-41.175
0
LINE
8
BLACK
6
CONTINUOUS
10
131.2
20
-41.175
11
131.296
21
-41.194
0
LINE
8
BLACK
6
CONTINUOUS
10
156.471
20
-40.594
11
156.552
21
-40.6482
0
LINE
8
BLACK
6
CONTINUOUS
10
156.552
20
-40.6482
11
156.606
21
-40.7293
0
LINE
8
BLACK
6
CONTINUOUS
10
156.606
20
-40.7293
11
156.625
21
-40.825
0
LINE
8
BLACK
6
CONTINUOUS
10
156.625
20
-40.825
11
156.625
21
-41.575
0
LINE
8
BLACK
6
CONTINUOUS
10
156.625
20
-41.575
11
156.606
21
-41.6707
0
LINE
8
BLACK
6
CONTINUOUS
10
156.606
20
-41.6707
11
156.552
21
-41.7518
0
LINE
8
BLACK
6
CONTINUOUS
10
156.552
20
-41.7518
11
156.471
21
-41.806
0
LINE
8
BLACK
6
CONTINUOUS
10
156.471
20
-41.806
11
156.375
21
-41.825
0
LINE
8
BLACK
6
CONTINUOUS
10
156.375
20
-41.825
11
154.225
21
-41.825
0
LINE
8
BLACK
6
CONTINUOUS
10
154.225
20
-41.825
11
154.129
21
-41.806
0
LINE
8
BLACK
6
CONTINUOUS
10
154.129
20
-41.806
11
154.048
21
-41.7518
0
LINE
8
BLACK
6
CONTINUOUS
10
154.048
20
-41.7518
11
153.994
21
-41.6707
0
LINE
8
BLACK
6
CONTINUOUS
10
153.994
20
-41.6707
11
153.975
21
-41.575
0
LINE
8
BLACK
6
CONTINUOUS
10
153.975
20
-41.575
11
153.975
21
-40.825
0
LINE
8
BLACK
6
CONTINUOUS
10
153.975
20
-40.825
11
153.994
21
-40.7293
0
LINE
8
BLACK
6
CONTINUOUS
10
153.994
20
-40.7293
11
154.048
21
-40.6482
0
LINE
8
BLACK
6
CONTINUOUS
10
154.048
20
-40.6482
11
154.129
21
-40.594
0
LINE
8
BLACK
6
CONTINUOUS
10
154.129
20
-40.594
11
154.225
21
-40.575
0
LINE
8
BLACK
6
CONTINUOUS
10
154.225
20
-40.575
11
156.375
21
-40.575
0
LINE
8
BLACK
6
CONTINUOUS
10
156.375
20
-40.575
11
156.471
21
-40.594
0
LINE
8
BLACK
6
CONTINUOUS
10
55.3457
20
-36.869
11
55.4268
21
-36.9232
0
LINE
8
BLACK
6
CONTINUOUS
10
55.4268
20
-36.9232
11
55.481
21
-37.0043
0
LINE
8
BLACK
6
CONTINUOUS
10
55.481
20
-37.0043
11
55.5
21
-37.1
0
LINE
8
BLACK
6
CONTINUOUS
10
55.5
20
-37.1
11
55.5
21
-38
0
LINE
8
BLACK
6
CONTINUOUS
10
55.5
20
-38
11
55.481
21
-38.0957
0
LINE
8
BLACK
6
CONTINUOUS
10
55.481
20
-38.0957
11
55.4268
21
-38.1768
0
LINE
8
BLACK
6
CONTINUOUS
10
55.4268
20
-38.1768
11
55.3457
21
-38.231
0
LINE
8
BLACK
6
CONTINUOUS
10
55.3457
20
-38.231
11
55.25
21
-38.25
0
LINE
8
BLACK
6
CONTINUOUS
10
55.25
20
-38.25
11
54.725
21
-38.25
0
LINE
8
BLACK
6
CONTINUOUS
10
54.725
20
-38.25
11
54.6293
21
-38.231
0
LINE
8
BLACK
6
CONTINUOUS
10
54.6293
20
-38.231
11
54.5482
21
-38.1768
0
LINE
8
BLACK
6
CONTINUOUS
10
54.5482
20
-38.1768
11
54.494
21
-38.0957
0
LINE
8
BLACK
6
CONTINUOUS
10
54.494
20
-38.0957
11
54.475
21
-38
0
LINE
8
BLACK
6
CONTINUOUS
10
54.475
20
-38
11
54.475
21
-37.1
0
LINE
8
BLACK
6
CONTINUOUS
10
54.475
20
-37.1
11
54.494
21
-37.0043
0
LINE
8
BLACK
6
CONTINUOUS
10
54.494
20
-37.0043
11
54.5482
21
-36.9232
0
LINE
8
BLACK
6
CONTINUOUS
10
54.5482
20
-36.9232
11
54.6293
21
-36.869
0
LINE
8
BLACK
6
CONTINUOUS
10
54.6293
20
-36.869
11
54.725
21
-36.85
0
LINE
8
BLACK
6
CONTINUOUS
10
54.725
20
-36.85
11
55.25
21
-36.85
0
LINE
8
BLACK
6
CONTINUOUS
10
55.25
20
-36.85
11
55.3457
21
-36.869
0
LINE
8
BLACK
6
CONTINUOUS
10
57.1707
20
-36.869
11
57.2518
21
-36.9232
0
LINE
8
BLACK
6
CONTINUOUS
10
57.2518
20
-36.9232
11
57.306
21
-37.0043
0
LINE
8
BLACK
6
CONTINUOUS
10
57.306
20
-37.0043
11
57.325
21
-37.1
0
LINE
8
BLACK
6
CONTINUOUS
10
57.325
20
-37.1
11
57.325
21
-38
0
LINE
8
BLACK
6
CONTINUOUS
10
57.325
20
-38
11
57.306
21
-38.0957
0
LINE
8
BLACK
6
CONTINUOUS
10
57.306
20
-38.0957
11
57.2518
21
-38.1768
0
LINE
8
BLACK
6
CONTINUOUS
10
57.2518
20
-38.1768
11
57.1707
21
-38.231
0
LINE
8
BLACK
6
CONTINUOUS
10
57.1707
20
-38.231
11
57.075
21
-38.25
0
LINE
8
BLACK
6
CONTINUOUS
10
57.075
20
-38.25
11
56.55
21
-38.25
0
LINE
8
BLACK
6
CONTINUOUS
10
56.55
20
-38.25
11
56.4543
21
-38.231
0
LINE
8
BLACK
6
CONTINUOUS
10
56.4543
20
-38.231
11
56.3732
21
-38.1768
0
LINE
8
BLACK
6
CONTINUOUS
10
56.3732
20
-38.1768
11
56.319
21
-38.0957
0
LINE
8
BLACK
6
CONTINUOUS
10
56.319
20
-38.0957
11
56.3
21
-38
0
LINE
8
BLACK
6
CONTINUOUS
10
56.3
20
-38
11
56.3
21
-37.1
0
LINE
8
BLACK
6
CONTINUOUS
10
56.3
20
-37.1
11
56.319
21
-37.0043
0
LINE
8
BLACK
6
CONTINUOUS
10
56.319
20
-37.0043
11
56.3732
21
-36.9232
0
LINE
8
BLACK
6
CONTINUOUS
10
56.3732
20
-36.9232
11
56.4543
21
-36.869
0
LINE
8
BLACK
6
CONTINUOUS
10
56.4543
20
-36.869
11
56.55
21
-36.85
0
LINE
8
BLACK
6
CONTINUOUS
10
56.55
20
-36.85
11
57.075
21
-36.85
0
LINE
8
BLACK
6
CONTINUOUS
10
57.075
20
-36.85
11
57.1707
21
-36.869
0
LINE
8
BLACK
6
CONTINUOUS
10
52.215
20
-37.0917
11
52.2859
21
-37.1391
0
LINE
8
BLACK
6
CONTINUOUS
10
52.2859
20
-37.1391
11
52.3333
21
-37.21
0
LINE
8
BLACK
6
CONTINUOUS
10
52.3333
20
-37.21
11
52.35
21
-37.2937
0
LINE
8
BLACK
6
CONTINUOUS
10
52.35
20
-37.2937
11
52.35
21
-37.8062
0
LINE
8
BLACK
6
CONTINUOUS
10
52.35
20
-37.8062
11
52.3333
21
-37.89
0
LINE
8
BLACK
6
CONTINUOUS
10
52.3333
20
-37.89
11
52.2859
21
-37.9609
0
LINE
8
BLACK
6
CONTINUOUS
10
52.2859
20
-37.9609
11
52.215
21
-38.0083
0
LINE
8
BLACK
6
CONTINUOUS
10
52.215
20
-38.0083
11
52.1312
21
-38.025
0
LINE
8
BLACK
6
CONTINUOUS
10
52.1312
20
-38.025
11
51.6937
21
-38.025
0
LINE
8
BLACK
6
CONTINUOUS
10
51.6937
20
-38.025
11
51.61
21
-38.0083
0
LINE
8
BLACK
6
CONTINUOUS
10
51.61
20
-38.0083
11
51.5391
21
-37.9609
0
LINE
8
BLACK
6
CONTINUOUS
10
51.5391
20
-37.9609
11
51.4917
21
-37.89
0
LINE
8
BLACK
6
CONTINUOUS
10
51.4917
20
-37.89
11
51.475
21
-37.8062
0
LINE
8
BLACK
6
CONTINUOUS
10
51.475
20
-37.8062
11
51.475
21
-37.2937
0
LINE
8
BLACK
6
CONTINUOUS
10
51.475
20
-37.2937
11
51.4917
21
-37.21
0
LINE
8
BLACK
6
CONTINUOUS
10
51.4917
20
-37.21
11
51.5391
21
-37.1391
0
LINE
8
BLACK
6
CONTINUOUS
10
51.5391
20
-37.1391
11
51.61
21
-37.0917
0
LINE
8
BLACK
6
CONTINUOUS
10
51.61
20
-37.0917
11
51.6937
21
-37.075
0
LINE
8
BLACK
6
CONTINUOUS
10
51.6937
20
-37.075
11
52.1312
21
-37.075
0
LINE
8
BLACK
6
CONTINUOUS
10
52.1312
20
-37.075
11
52.215
21
-37.0917
0
LINE
8
BLACK
6
CONTINUOUS
10
53.79
20
-37.0917
11
53.8609
21
-37.1391
0
LINE
8
BLACK
6
CONTINUOUS
10
53.8609
20
-37.1391
11
53.9083
21
-37.21
0
LINE
8
BLACK
6
CONTINUOUS
10
53.9083
20
-37.21
11
53.925
21
-37.2937
0
LINE
8
BLACK
6
CONTINUOUS
10
53.925
20
-37.2937
11
53.925
21
-37.8062
0
LINE
8
BLACK
6
CONTINUOUS
10
53.925
20
-37.8062
11
53.9083
21
-37.89
0
LINE
8
BLACK
6
CONTINUOUS
10
53.9083
20
-37.89
11
53.8609
21
-37.9609
0
LINE
8
BLACK
6
CONTINUOUS
10
53.8609
20
-37.9609
11
53.79
21
-38.0083
0
LINE
8
BLACK
6
CONTINUOUS
10
53.79
20
-38.0083
11
53.7062
21
-38.025
0
LINE
8
BLACK
6
CONTINUOUS
10
53.7062
20
-38.025
11
53.2687
21
-38.025
0
LINE
8
BLACK
6
CONTINUOUS
10
53.2687
20
-38.025
11
53.185
21
-38.0083
0
LINE
8
BLACK
6
CONTINUOUS
10
53.185
20
-38.0083
11
53.1141
21
-37.9609
0
LINE
8
BLACK
6
CONTINUOUS
10
53.1141
20
-37.9609
11
53.0667
21
-37.89
0
LINE
8
BLACK
6
CONTINUOUS
10
53.0667
20
-37.89
11
53.05
21
-37.8062
0
LINE
8
BLACK
6
CONTINUOUS
10
53.05
20
-37.8062
11
53.05
21
-37.2937
0
LINE
8
BLACK
6
CONTINUOUS
10
53.05
20
-37.2937
11
53.0667
21
-37.21
0
LINE
8
BLACK
6
CONTINUOUS
10
53.0667
20
-37.21
11
53.1141
21
-37.1391
0
LINE
8
BLACK
6
CONTINUOUS
10
53.1141
20
-37.1391
11
53.185
21
-37.0917
0
LINE
8
BLACK
6
CONTINUOUS
10
53.185
20
-37.0917
11
53.2687
21
-37.075
0
LINE
8
BLACK
6
CONTINUOUS
10
53.2687
20
-37.075
11
53.7062
21
-37.075
0
LINE
8
BLACK
6
CONTINUOUS
10
53.7062
20
-37.075
11
53.79
21
-37.0917
0
LINE
8
BLACK
6
CONTINUOUS
10
55.3457
20
-34.9315
11
55.4268
21
-34.9857
0
LINE
8
BLACK
6
CONTINUOUS
10
55.4268
20
-34.9857
11
55.481
21
-35.0668
0
LINE
8
BLACK
6
CONTINUOUS
10
55.481
20
-35.0668
11
55.5
21
-35.1625
0
LINE
8
BLACK
6
CONTINUOUS
10
55.5
20
-35.1625
11
55.5
21
-36.0625
0
LINE
8
BLACK
6
CONTINUOUS
10
55.5
20
-36.0625
11
55.481
21
-36.1582
0
LINE
8
BLACK
6
CONTINUOUS
10
55.481
20
-36.1582
11
55.4268
21
-36.2393
0
LINE
8
BLACK
6
CONTINUOUS
10
55.4268
20
-36.2393
11
55.3457
21
-36.2935
0
LINE
8
BLACK
6
CONTINUOUS
10
55.3457
20
-36.2935
11
55.25
21
-36.3125
0
LINE
8
BLACK
6
CONTINUOUS
10
55.25
20
-36.3125
11
54.725
21
-36.3125
0
LINE
8
BLACK
6
CONTINUOUS
10
54.725
20
-36.3125
11
54.6293
21
-36.2935
0
LINE
8
BLACK
6
CONTINUOUS
10
54.6293
20
-36.2935
11
54.5482
21
-36.2393
0
LINE
8
BLACK
6
CONTINUOUS
10
54.5482
20
-36.2393
11
54.494
21
-36.1582
0
LINE
8
BLACK
6
CONTINUOUS
10
54.494
20
-36.1582
11
54.475
21
-36.0625
0
LINE
8
BLACK
6
CONTINUOUS
10
54.475
20
-36.0625
11
54.475
21
-35.1625
0
LINE
8
BLACK
6
CONTINUOUS
10
54.475
20
-35.1625
11
54.494
21
-35.0668
0
LINE
8
BLACK
6
CONTINUOUS
10
54.494
20
-35.0668
11
54.5482
21
-34.9857
0
LINE
8
BLACK
6
CONTINUOUS
10
54.5482
20
-34.9857
11
54.6293
21
-34.9315
0
LINE
8
BLACK
6
CONTINUOUS
10
54.6293
20
-34.9315
11
54.725
21
-34.9125
0
LINE
8
BLACK
6
CONTINUOUS
10
54.725
20
-34.9125
11
55.25
21
-34.9125
0
LINE
8
BLACK
6
CONTINUOUS
10
55.25
20
-34.9125
11
55.3457
21
-34.9315
0
LINE
8
BLACK
6
CONTINUOUS
10
57.1707
20
-34.9315
11
57.2518
21
-34.9857
0
LINE
8
BLACK
6
CONTINUOUS
10
57.2518
20
-34.9857
11
57.306
21
-35.0668
0
LINE
8
BLACK
6
CONTINUOUS
10
57.306
20
-35.0668
11
57.325
21
-35.1625
0
LINE
8
BLACK
6
CONTINUOUS
10
57.325
20
-35.1625
11
57.325
21
-36.0625
0
LINE
8
BLACK
6
CONTINUOUS
10
57.325
20
-36.0625
11
57.306
21
-36.1582
0
LINE
8
BLACK
6
CONTINUOUS
10
57.306
20
-36.1582
11
57.2518
21
-36.2393
0
LINE
8
BLACK
6
CONTINUOUS
10
57.2518
20
-36.2393
11
57.1707
21
-36.2935
0
LINE
8
BLACK
6
CONTINUOUS
10
57.1707
20
-36.2935
11
57.075
21
-36.3125
0
LINE
8
BLACK
6
CONTINUOUS
10
57.075
20
-36.3125
11
56.55
21
-36.3125
0
LINE
8
BLACK
6
CONTINUOUS
10
56.55
20
-36.3125
11
56.4543
21
-36.2935
0
LINE
8
BLACK
6
CONTINUOUS
10
56.4543
20
-36.2935
11
56.3732
21
-36.2393
0
LINE
8
BLACK
6
CONTINUOUS
10
56.3732
20
-36.2393
11
56.319
21
-36.1582
0
LINE
8
BLACK
6
CONTINUOUS
10
56.319
20
-36.1582
11
56.3
21
-36.0625
0
LINE
8
BLACK
6
CONTINUOUS
10
56.3
20
-36.0625
11
56.3
21
-35.1625
0
LINE
8
BLACK
6
CONTINUOUS
10
56.3
20
-35.1625
11
56.319
21
-35.0668
0
LINE
8
BLACK
6
CONTINUOUS
10
56.319
20
-35.0668
11
56.3732
21
-34.9857
0
LINE
8
BLACK
6
CONTINUOUS
10
56.3732
20
-34.9857
11
56.4543
21
-34.9315
0
LINE
8
BLACK
6
CONTINUOUS
10
56.4543
20
-34.9315
11
56.55
21
-34.9125
0
LINE
8
BLACK
6
CONTINUOUS
10
56.55
20
-34.9125
11
57.075
21
-34.9125
0
LINE
8
BLACK
6
CONTINUOUS
10
57.075
20
-34.9125
11
57.1707
21
-34.9315
0
LINE
8
BLACK
6
CONTINUOUS
10
52.215
20
-35.2042
11
52.2859
21
-35.2516
0
LINE
8
BLACK
6
CONTINUOUS
10
52.2859
20
-35.2516
11
52.3333
21
-35.3225
0
LINE
8
BLACK
6
CONTINUOUS
10
52.3333
20
-35.3225
11
52.35
21
-35.4062
0
LINE
8
BLACK
6
CONTINUOUS
10
52.35
20
-35.4062
11
52.35
21
-35.9187
0
LINE
8
BLACK
6
CONTINUOUS
10
52.35
20
-35.9187
11
52.3333
21
-36.0025
0
LINE
8
BLACK
6
CONTINUOUS
10
52.3333
20
-36.0025
11
52.2859
21
-36.0734
0
LINE
8
BLACK
6
CONTINUOUS
10
52.2859
20
-36.0734
11
52.215
21
-36.1208
0
LINE
8
BLACK
6
CONTINUOUS
10
52.215
20
-36.1208
11
52.1312
21
-36.1375
0
LINE
8
BLACK
6
CONTINUOUS
10
52.1312
20
-36.1375
11
51.6937
21
-36.1375
0
LINE
8
BLACK
6
CONTINUOUS
10
51.6937
20
-36.1375
11
51.61
21
-36.1208
0
LINE
8
BLACK
6
CONTINUOUS
10
51.61
20
-36.1208
11
51.5391
21
-36.0734
0
LINE
8
BLACK
6
CONTINUOUS
10
51.5391
20
-36.0734
11
51.4917
21
-36.0025
0
LINE
8
BLACK
6
CONTINUOUS
10
51.4917
20
-36.0025
11
51.475
21
-35.9187
0
LINE
8
BLACK
6
CONTINUOUS
10
51.475
20
-35.9187
11
51.475
21
-35.4062
0
LINE
8
BLACK
6
CONTINUOUS
10
51.475
20
-35.4062
11
51.4917
21
-35.3225
0
LINE
8
BLACK
6
CONTINUOUS
10
51.4917
20
-35.3225
11
51.5391
21
-35.2516
0
LINE
8
BLACK
6
CONTINUOUS
10
51.5391
20
-35.2516
11
51.61
21
-35.2042
0
LINE
8
BLACK
6
CONTINUOUS
10
51.61
20
-35.2042
11
51.6937
21
-35.1875
0
LINE
8
BLACK
6
CONTINUOUS
10
51.6937
20
-35.1875
11
52.1312
21
-35.1875
0
LINE
8
BLACK
6
CONTINUOUS
10
52.1312
20
-35.1875
11
52.215
21
-35.2042
0
LINE
8
BLACK
6
CONTINUOUS
10
53.79
20
-35.2042
11
53.8609
21
-35.2516
0
LINE
8
BLACK
6
CONTINUOUS
10
53.8609
20
-35.2516
11
53.9083
21
-35.3225
0
LINE
8
BLACK
6
CONTINUOUS
10
53.9083
20
-35.3225
11
53.925
21
-35.4062
0
LINE
8
BLACK
6
CONTINUOUS
10
53.925
20
-35.4062
11
53.925
21
-35.9187
0
LINE
8
BLACK
6
CONTINUOUS
10
53.925
20
-35.9187
11
53.9083
21
-36.0025
0
LINE
8
BLACK
6
CONTINUOUS
10
53.9083
20
-36.0025
11
53.8609
21
-36.0734
0
LINE
8
BLACK
6
CONTINUOUS
10
53.8609
20
-36.0734
11
53.79
21
-36.1208
0
LINE
8
BLACK
6
CONTINUOUS
10
53.79
20
-36.1208
11
53.7062
21
-36.1375
0
LINE
8
BLACK
6
CONTINUOUS
10
53.7062
20
-36.1375
11
53.2687
21
-36.1375
0
LINE
8
BLACK
6
CONTINUOUS
10
53.2687
20
-36.1375
11
53.185
21
-36.1208
0
LINE
8
BLACK
6
CONTINUOUS
10
53.185
20
-36.1208
11
53.1141
21
-36.0734
0
LINE
8
BLACK
6
CONTINUOUS
10
53.1141
20
-36.0734
11
53.0667
21
-36.0025
0
LINE
8
BLACK
6
CONTINUOUS
10
53.0667
20
-36.0025
11
53.05
21
-35.9187
0
LINE
8
BLACK
6
CONTINUOUS
10
53.05
20
-35.9187
11
53.05
21
-35.4062
0
LINE
8
BLACK
6
CONTINUOUS
10
53.05
20
-35.4062
11
53.0667
21
-35.3225
0
LINE
8
BLACK
6
CONTINUOUS
10
53.0667
20
-35.3225
11
53.1141
21
-35.2516
0
LINE
8
BLACK
6
CONTINUOUS
10
53.1141
20
-35.2516
11
53.185
21
-35.2042
0
LINE
8
BLACK
6
CONTINUOUS
10
53.185
20
-35.2042
11
53.2687
21
-35.1875
0
LINE
8
BLACK
6
CONTINUOUS
10
53.2687
20
-35.1875
11
53.7062
21
-35.1875
0
LINE
8
BLACK
6
CONTINUOUS
10
53.7062
20
-35.1875
11
53.79
21
-35.2042
0
LINE
8
BLACK
6
CONTINUOUS
10
163.896
20
-31.4865
11
163.977
21
-31.5407
0
LINE
8
BLACK
6
CONTINUOUS
10
163.977
20
-31.5407
11
164.031
21
-31.6218
0
LINE
8
BLACK
6
CONTINUOUS
10
164.031
20
-31.6218
11
164.05
21
-31.7175
0
LINE
8
BLACK
6
CONTINUOUS
10
164.05
20
-31.7175
11
164.05
21
-35.2175
0
LINE
8
BLACK
6
CONTINUOUS
10
164.05
20
-35.2175
11
164.031
21
-35.3132
0
LINE
8
BLACK
6
CONTINUOUS
10
164.031
20
-35.3132
11
163.977
21
-35.3943
0
LINE
8
BLACK
6
CONTINUOUS
10
163.977
20
-35.3943
11
163.896
21
-35.4485
0
LINE
8
BLACK
6
CONTINUOUS
10
163.896
20
-35.4485
11
163.8
21
-35.4675
0
LINE
8
BLACK
6
CONTINUOUS
10
163.8
20
-35.4675
11
161.8
21
-35.4675
0
LINE
8
BLACK
6
CONTINUOUS
10
161.8
20
-35.4675
11
161.704
21
-35.4485
0
LINE
8
BLACK
6
CONTINUOUS
10
161.704
20
-35.4485
11
161.623
21
-35.3943
0
LINE
8
BLACK
6
CONTINUOUS
10
161.623
20
-35.3943
11
161.569
21
-35.3132
0
LINE
8
BLACK
6
CONTINUOUS
10
161.569
20
-35.3132
11
161.55
21
-35.2175
0
LINE
8
BLACK
6
CONTINUOUS
10
161.55
20
-35.2175
11
161.55
21
-31.7175
0
LINE
8
BLACK
6
CONTINUOUS
10
161.55
20
-31.7175
11
161.569
21
-31.6218
0
LINE
8
BLACK
6
CONTINUOUS
10
161.569
20
-31.6218
11
161.623
21
-31.5407
0
LINE
8
BLACK
6
CONTINUOUS
10
161.623
20
-31.5407
11
161.704
21
-31.4865
0
LINE
8
BLACK
6
CONTINUOUS
10
161.704
20
-31.4865
11
161.8
21
-31.4675
0
LINE
8
BLACK
6
CONTINUOUS
10
161.8
20
-31.4675
11
163.8
21
-31.4675
0
LINE
8
BLACK
6
CONTINUOUS
10
163.8
20
-31.4675
11
163.896
21
-31.4865
0
LINE
8
BLACK
6
CONTINUOUS
10
44.9957
20
-33.269
11
45.0768
21
-33.3232
0
LINE
8
BLACK
6
CONTINUOUS
10
45.0768
20
-33.3232
11
45.131
21
-33.4043
0
LINE
8
BLACK
6
CONTINUOUS
10
45.131
20
-33.4043
11
45.15
21
-33.5
0
LINE
8
BLACK
6
CONTINUOUS
10
45.15
20
-33.5
11
45.15
21
-34.1
0
LINE
8
BLACK
6
CONTINUOUS
10
45.15
20
-34.1
11
45.131
21
-34.1957
0
LINE
8
BLACK
6
CONTINUOUS
10
45.131
20
-34.1957
11
45.0768
21
-34.2768
0
LINE
8
BLACK
6
CONTINUOUS
10
45.0768
20
-34.2768
11
44.9957
21
-34.331
0
LINE
8
BLACK
6
CONTINUOUS
10
44.9957
20
-34.331
11
44.9
21
-34.35
0
LINE
8
BLACK
6
CONTINUOUS
10
44.9
20
-34.35
11
44.3
21
-34.35
0
LINE
8
BLACK
6
CONTINUOUS
10
44.3
20
-34.35
11
44.2043
21
-34.331
0
LINE
8
BLACK
6
CONTINUOUS
10
44.2043
20
-34.331
11
44.1232
21
-34.2768
0
LINE
8
BLACK
6
CONTINUOUS
10
44.1232
20
-34.2768
11
44.069
21
-34.1957
0
LINE
8
BLACK
6
CONTINUOUS
10
44.069
20
-34.1957
11
44.05
21
-34.1
0
LINE
8
BLACK
6
CONTINUOUS
10
44.05
20
-34.1
11
44.05
21
-33.5
0
LINE
8
BLACK
6
CONTINUOUS
10
44.05
20
-33.5
11
44.069
21
-33.4043
0
LINE
8
BLACK
6
CONTINUOUS
10
44.069
20
-33.4043
11
44.1232
21
-33.3232
0
LINE
8
BLACK
6
CONTINUOUS
10
44.1232
20
-33.3232
11
44.2043
21
-33.269
0
LINE
8
BLACK
6
CONTINUOUS
10
44.2043
20
-33.269
11
44.3
21
-33.25
0
LINE
8
BLACK
6
CONTINUOUS
10
44.3
20
-33.25
11
44.9
21
-33.25
0
LINE
8
BLACK
6
CONTINUOUS
10
44.9
20
-33.25
11
44.9957
21
-33.269
0
LINE
8
BLACK
6
CONTINUOUS
10
47.3
20
-34.07
11
46
21
-34.07
0
LINE
8
BLACK
6
CONTINUOUS
10
46
20
-34.07
11
46
21
-33.27
0
LINE
8
BLACK
6
CONTINUOUS
10
46
20
-33.27
11
47.3
21
-33.27
0
LINE
8
BLACK
6
CONTINUOUS
10
47.3
20
-33.27
11
47.3
21
-34.07
0
LINE
8
BLACK
6
CONTINUOUS
10
56.8
20
-34.07
11
55.5
21
-34.07
0
LINE
8
BLACK
6
CONTINUOUS
10
55.5
20
-34.07
11
55.5
21
-33.27
0
LINE
8
BLACK
6
CONTINUOUS
10
55.5
20
-33.27
11
56.8
21
-33.27
0
LINE
8
BLACK
6
CONTINUOUS
10
56.8
20
-33.27
11
56.8
21
-34.07
0
LINE
8
BLACK
6
CONTINUOUS
10
43.04
20
-32.1167
11
43.1109
21
-32.1641
0
LINE
8
BLACK
6
CONTINUOUS
10
43.1109
20
-32.1641
11
43.1583
21
-32.235
0
LINE
8
BLACK
6
CONTINUOUS
10
43.1583
20
-32.235
11
43.175
21
-32.3188
0
LINE
8
BLACK
6
CONTINUOUS
10
43.175
20
-32.3188
11
43.175
21
-32.7563
0
LINE
8
BLACK
6
CONTINUOUS
10
43.175
20
-32.7563
11
43.1583
21
-32.84
0
LINE
8
BLACK
6
CONTINUOUS
10
43.1583
20
-32.84
11
43.1109
21
-32.9109
0
LINE
8
BLACK
6
CONTINUOUS
10
43.1109
20
-32.9109
11
43.04
21
-32.9583
0
LINE
8
BLACK
6
CONTINUOUS
10
43.04
20
-32.9583
11
42.9562
21
-32.975
0
LINE
8
BLACK
6
CONTINUOUS
10
42.9562
20
-32.975
11
42.4438
21
-32.975
0
LINE
8
BLACK
6
CONTINUOUS
10
42.4438
20
-32.975
11
42.36
21
-32.9583
0
LINE
8
BLACK
6
CONTINUOUS
10
42.36
20
-32.9583
11
42.2891
21
-32.9109
0
LINE
8
BLACK
6
CONTINUOUS
10
42.2891
20
-32.9109
11
42.2417
21
-32.84
0
LINE
8
BLACK
6
CONTINUOUS
10
42.2417
20
-32.84
11
42.225
21
-32.7563
0
LINE
8
BLACK
6
CONTINUOUS
10
42.225
20
-32.7563
11
42.225
21
-32.3188
0
LINE
8
BLACK
6
CONTINUOUS
10
42.225
20
-32.3188
11
42.2417
21
-32.235
0
LINE
8
BLACK
6
CONTINUOUS
10
42.2417
20
-32.235
11
42.2891
21
-32.1641
0
LINE
8
BLACK
6
CONTINUOUS
10
42.2891
20
-32.1641
11
42.36
21
-32.1167
0
LINE
8
BLACK
6
CONTINUOUS
10
42.36
20
-32.1167
11
42.4438
21
-32.1
0
LINE
8
BLACK
6
CONTINUOUS
10
42.4438
20
-32.1
11
42.9562
21
-32.1
0
LINE
8
BLACK
6
CONTINUOUS
10
42.9562
20
-32.1
11
43.04
21
-32.1167
0
LINE
8
BLACK
6
CONTINUOUS
10
47.3
20
-32.8
11
46
21
-32.8
0
LINE
8
BLACK
6
CONTINUOUS
10
46
20
-32.8
11
46
21
-32
0
LINE
8
BLACK
6
CONTINUOUS
10
46
20
-32
11
47.3
21
-32
0
LINE
8
BLACK
6
CONTINUOUS
10
47.3
20
-32
11
47.3
21
-32.8
0
LINE
8
BLACK
6
CONTINUOUS
10
56.8
20
-32.8
11
55.5
21
-32.8
0
LINE
8
BLACK
6
CONTINUOUS
10
55.5
20
-32.8
11
55.5
21
-32
0
LINE
8
BLACK
6
CONTINUOUS
10
55.5
20
-32
11
56.8
21
-32
0
LINE
8
BLACK
6
CONTINUOUS
10
56.8
20
-32
11
56.8
21
-32.8
0
LINE
8
BLACK
6
CONTINUOUS
10
44.9957
20
-30.469
11
45.0768
21
-30.5232
0
LINE
8
BLACK
6
CONTINUOUS
10
45.0768
20
-30.5232
11
45.131
21
-30.6043
0
LINE
8
BLACK
6
CONTINUOUS
10
45.131
20
-30.6043
11
45.15
21
-30.7
0
LINE
8
BLACK
6
CONTINUOUS
10
45.15
20
-30.7
11
45.15
21
-31.3
0
LINE
8
BLACK
6
CONTINUOUS
10
45.15
20
-31.3
11
45.131
21
-31.3957
0
LINE
8
BLACK
6
CONTINUOUS
10
45.131
20
-31.3957
11
45.0768
21
-31.4768
0
LINE
8
BLACK
6
CONTINUOUS
10
45.0768
20
-31.4768
11
44.9957
21
-31.531
0
LINE
8
BLACK
6
CONTINUOUS
10
44.9957
20
-31.531
11
44.9
21
-31.55
0
LINE
8
BLACK
6
CONTINUOUS
10
44.9
20
-31.55
11
44.3
21
-31.55
0
LINE
8
BLACK
6
CONTINUOUS
10
44.3
20
-31.55
11
44.2043
21
-31.531
0
LINE
8
BLACK
6
CONTINUOUS
10
44.2043
20
-31.531
11
44.1232
21
-31.4768
0
LINE
8
BLACK
6
CONTINUOUS
10
44.1232
20
-31.4768
11
44.069
21
-31.3957
0
LINE
8
BLACK
6
CONTINUOUS
10
44.069
20
-31.3957
11
44.05
21
-31.3
0
LINE
8
BLACK
6
CONTINUOUS
10
44.05
20
-31.3
11
44.05
21
-30.7
0
LINE
8
BLACK
6
CONTINUOUS
10
44.05
20
-30.7
11
44.069
21
-30.6043
0
LINE
8
BLACK
6
CONTINUOUS
10
44.069
20
-30.6043
11
44.1232
21
-30.5232
0
LINE
8
BLACK
6
CONTINUOUS
10
44.1232
20
-30.5232
11
44.2043
21
-30.469
0
LINE
8
BLACK
6
CONTINUOUS
10
44.2043
20
-30.469
11
44.3
21
-30.45
0
LINE
8
BLACK
6
CONTINUOUS
10
44.3
20
-30.45
11
44.9
21
-30.45
0
LINE
8
BLACK
6
CONTINUOUS
10
44.9
20
-30.45
11
44.9957
21
-30.469
0
LINE
8
BLACK
6
CONTINUOUS
10
47.3
20
-31.53
11
46
21
-31.53
0
LINE
8
BLACK
6
CONTINUOUS
10
46
20
-31.53
11
46
21
-30.73
0
LINE
8
BLACK
6
CONTINUOUS
10
46
20
-30.73
11
47.3
21
-30.73
0
LINE
8
BLACK
6
CONTINUOUS
10
47.3
20
-30.73
11
47.3
21
-31.53
0
LINE
8
BLACK
6
CONTINUOUS
10
56.8
20
-31.53
11
55.5
21
-31.53
0
LINE
8
BLACK
6
CONTINUOUS
10
55.5
20
-31.53
11
55.5
21
-30.73
0
LINE
8
BLACK
6
CONTINUOUS
10
55.5
20
-30.73
11
56.8
21
-30.73
0
LINE
8
BLACK
6
CONTINUOUS
10
56.8
20
-30.73
11
56.8
21
-31.53
0
LINE
8
BLACK
6
CONTINUOUS
10
43.04
20
-30.5417
11
43.1109
21
-30.5891
0
LINE
8
BLACK
6
CONTINUOUS
10
43.1109
20
-30.5891
11
43.1583
21
-30.66
0
LINE
8
BLACK
6
CONTINUOUS
10
43.1583
20
-30.66
11
43.175
21
-30.7437
0
LINE
8
BLACK
6
CONTINUOUS
10
43.175
20
-30.7437
11
43.175
21
-31.1812
0
LINE
8
BLACK
6
CONTINUOUS
10
43.175
20
-31.1812
11
43.1583
21
-31.265
0
LINE
8
BLACK
6
CONTINUOUS
10
43.1583
20
-31.265
11
43.1109
21
-31.3359
0
LINE
8
BLACK
6
CONTINUOUS
10
43.1109
20
-31.3359
11
43.04
21
-31.3833
0
LINE
8
BLACK
6
CONTINUOUS
10
43.04
20
-31.3833
11
42.9562
21
-31.4
0
LINE
8
BLACK
6
CONTINUOUS
10
42.9562
20
-31.4
11
42.4438
21
-31.4
0
LINE
8
BLACK
6
CONTINUOUS
10
42.4438
20
-31.4
11
42.36
21
-31.3833
0
LINE
8
BLACK
6
CONTINUOUS
10
42.36
20
-31.3833
11
42.2891
21
-31.3359
0
LINE
8
BLACK
6
CONTINUOUS
10
42.2891
20
-31.3359
11
42.2417
21
-31.265
0
LINE
8
BLACK
6
CONTINUOUS
10
42.2417
20
-31.265
11
42.225
21
-31.1812
0
LINE
8
BLACK
6
CONTINUOUS
10
42.225
20
-31.1812
11
42.225
21
-30.7437
0
LINE
8
BLACK
6
CONTINUOUS
10
42.225
20
-30.7437
11
42.2417
21
-30.66
0
LINE
8
BLACK
6
CONTINUOUS
10
42.2417
20
-30.66
11
42.2891
21
-30.5891
0
LINE
8
BLACK
6
CONTINUOUS
10
42.2891
20
-30.5891
11
42.36
21
-30.5417
0
LINE
8
BLACK
6
CONTINUOUS
10
42.36
20
-30.5417
11
42.4438
21
-30.525
0
LINE
8
BLACK
6
CONTINUOUS
10
42.4438
20
-30.525
11
42.9562
21
-30.525
0
LINE
8
BLACK
6
CONTINUOUS
10
42.9562
20
-30.525
11
43.04
21
-30.5417
0
LINE
8
BLACK
6
CONTINUOUS
10
163.74
20
-31
11
160.59
21
-31
0
LINE
8
BLACK
6
CONTINUOUS
10
160.59
20
-31
11
160.59
21
-28.8
0
LINE
8
BLACK
6
CONTINUOUS
10
160.59
20
-28.8
11
163.74
21
-28.8
0
LINE
8
BLACK
6
CONTINUOUS
10
163.74
20
-28.8
11
163.74
21
-31
0
LINE
8
BLACK
6
CONTINUOUS
10
165.005
20
-31
11
164.405
21
-31
0
LINE
8
BLACK
6
CONTINUOUS
10
164.405
20
-31
11
164.405
21
-28.8
0
LINE
8
BLACK
6
CONTINUOUS
10
164.405
20
-28.8
11
165.005
21
-28.8
0
LINE
8
BLACK
6
CONTINUOUS
10
165.005
20
-28.8
11
165.005
21
-31
0
LINE
8
BLACK
6
CONTINUOUS
10
167.971
20
-27.069
11
168.052
21
-27.1232
0
LINE
8
BLACK
6
CONTINUOUS
10
168.052
20
-27.1232
11
168.106
21
-27.2043
0
LINE
8
BLACK
6
CONTINUOUS
10
168.106
20
-27.2043
11
168.125
21
-27.3
0
LINE
8
BLACK
6
CONTINUOUS
10
168.125
20
-27.3
11
168.125
21
-30.2
0
LINE
8
BLACK
6
CONTINUOUS
10
168.125
20
-30.2
11
168.106
21
-30.2957
0
LINE
8
BLACK
6
CONTINUOUS
10
168.106
20
-30.2957
11
168.052
21
-30.3768
0
LINE
8
BLACK
6
CONTINUOUS
10
168.052
20
-30.3768
11
167.971
21
-30.431
0
LINE
8
BLACK
6
CONTINUOUS
10
167.971
20
-30.431
11
167.875
21
-30.45
0
LINE
8
BLACK
6
CONTINUOUS
10
167.875
20
-30.45
11
167.25
21
-30.45
0
LINE
8
BLACK
6
CONTINUOUS
10
167.25
20
-30.45
11
167.154
21
-30.431
0
LINE
8
BLACK
6
CONTINUOUS
10
167.154
20
-30.431
11
167.073
21
-30.3768
0
LINE
8
BLACK
6
CONTINUOUS
10
167.073
20
-30.3768
11
167.019
21
-30.2957
0
LINE
8
BLACK
6
CONTINUOUS
10
167.019
20
-30.2957
11
167
21
-30.2
0
LINE
8
BLACK
6
CONTINUOUS
10
167
20
-30.2
11
167
21
-27.3
0
LINE
8
BLACK
6
CONTINUOUS
10
167
20
-27.3
11
167.019
21
-27.2043
0
LINE
8
BLACK
6
CONTINUOUS
10
167.019
20
-27.2043
11
167.073
21
-27.1232
0
LINE
8
BLACK
6
CONTINUOUS
10
167.073
20
-27.1232
11
167.154
21
-27.069
0
LINE
8
BLACK
6
CONTINUOUS
10
167.154
20
-27.069
11
167.25
21
-27.05
0
LINE
8
BLACK
6
CONTINUOUS
10
167.25
20
-27.05
11
167.875
21
-27.05
0
LINE
8
BLACK
6
CONTINUOUS
10
167.875
20
-27.05
11
167.971
21
-27.069
0
LINE
8
BLACK
6
CONTINUOUS
10
172.246
20
-27.069
11
172.327
21
-27.1232
0
LINE
8
BLACK
6
CONTINUOUS
10
172.327
20
-27.1232
11
172.381
21
-27.2043
0
LINE
8
BLACK
6
CONTINUOUS
10
172.381
20
-27.2043
11
172.4
21
-27.3
0
LINE
8
BLACK
6
CONTINUOUS
10
172.4
20
-27.3
11
172.4
21
-30.2
0
LINE
8
BLACK
6
CONTINUOUS
10
172.4
20
-30.2
11
172.381
21
-30.2957
0
LINE
8
BLACK
6
CONTINUOUS
10
172.381
20
-30.2957
11
172.327
21
-30.3768
0
LINE
8
BLACK
6
CONTINUOUS
10
172.327
20
-30.3768
11
172.246
21
-30.431
0
LINE
8
BLACK
6
CONTINUOUS
10
172.246
20
-30.431
11
172.15
21
-30.45
0
LINE
8
BLACK
6
CONTINUOUS
10
172.15
20
-30.45
11
171.525
21
-30.45
0
LINE
8
BLACK
6
CONTINUOUS
10
171.525
20
-30.45
11
171.429
21
-30.431
0
LINE
8
BLACK
6
CONTINUOUS
10
171.429
20
-30.431
11
171.348
21
-30.3768
0
LINE
8
BLACK
6
CONTINUOUS
10
171.348
20
-30.3768
11
171.294
21
-30.2957
0
LINE
8
BLACK
6
CONTINUOUS
10
171.294
20
-30.2957
11
171.275
21
-30.2
0
LINE
8
BLACK
6
CONTINUOUS
10
171.275
20
-30.2
11
171.275
21
-27.3
0
LINE
8
BLACK
6
CONTINUOUS
10
171.275
20
-27.3
11
171.294
21
-27.2043
0
LINE
8
BLACK
6
CONTINUOUS
10
171.294
20
-27.2043
11
171.348
21
-27.1232
0
LINE
8
BLACK
6
CONTINUOUS
10
171.348
20
-27.1232
11
171.429
21
-27.069
0
LINE
8
BLACK
6
CONTINUOUS
10
171.429
20
-27.069
11
171.525
21
-27.05
0
LINE
8
BLACK
6
CONTINUOUS
10
171.525
20
-27.05
11
172.15
21
-27.05
0
LINE
8
BLACK
6
CONTINUOUS
10
172.15
20
-27.05
11
172.246
21
-27.069
0
LINE
8
BLACK
6
CONTINUOUS
10
41.5457
20
-29.019
11
41.6268
21
-29.0732
0
LINE
8
BLACK
6
CONTINUOUS
10
41.6268
20
-29.0732
11
41.681
21
-29.1543
0
LINE
8
BLACK
6
CONTINUOUS
10
41.681
20
-29.1543
11
41.7
21
-29.25
0
LINE
8
BLACK
6
CONTINUOUS
10
41.7
20
-29.25
11
41.7
21
-29.775
0
LINE
8
BLACK
6
CONTINUOUS
10
41.7
20
-29.775
11
41.681
21
-29.8707
0
LINE
8
BLACK
6
CONTINUOUS
10
41.681
20
-29.8707
11
41.6268
21
-29.9518
0
LINE
8
BLACK
6
CONTINUOUS
10
41.6268
20
-29.9518
11
41.5457
21
-30.006
0
LINE
8
BLACK
6
CONTINUOUS
10
41.5457
20
-30.006
11
41.45
21
-30.025
0
LINE
8
BLACK
6
CONTINUOUS
10
41.45
20
-30.025
11
40.55
21
-30.025
0
LINE
8
BLACK
6
CONTINUOUS
10
40.55
20
-30.025
11
40.4543
21
-30.006
0
LINE
8
BLACK
6
CONTINUOUS
10
40.4543
20
-30.006
11
40.3732
21
-29.9518
0
LINE
8
BLACK
6
CONTINUOUS
10
40.3732
20
-29.9518
11
40.319
21
-29.8707
0
LINE
8
BLACK
6
CONTINUOUS
10
40.319
20
-29.8707
11
40.3
21
-29.775
0
LINE
8
BLACK
6
CONTINUOUS
10
40.3
20
-29.775
11
40.3
21
-29.25
0
LINE
8
BLACK
6
CONTINUOUS
10
40.3
20
-29.25
11
40.319
21
-29.1543
0
LINE
8
BLACK
6
CONTINUOUS
10
40.319
20
-29.1543
11
40.3732
21
-29.0732
0
LINE
8
BLACK
6
CONTINUOUS
10
40.3732
20
-29.0732
11
40.4543
21
-29.019
0
LINE
8
BLACK
6
CONTINUOUS
10
40.4543
20
-29.019
11
40.55
21
-29
0
LINE
8
BLACK
6
CONTINUOUS
10
40.55
20
-29
11
41.45
21
-29
0
LINE
8
BLACK
6
CONTINUOUS
10
41.45
20
-29
11
41.5457
21
-29.019
0
LINE
8
BLACK
6
CONTINUOUS
10
43.04
20
-28.8667
11
43.1109
21
-28.9141
0
LINE
8
BLACK
6
CONTINUOUS
10
43.1109
20
-28.9141
11
43.1583
21
-28.985
0
LINE
8
BLACK
6
CONTINUOUS
10
43.1583
20
-28.985
11
43.175
21
-29.0687
0
LINE
8
BLACK
6
CONTINUOUS
10
43.175
20
-29.0687
11
43.175
21
-29.5062
0
LINE
8
BLACK
6
CONTINUOUS
10
43.175
20
-29.5062
11
43.1583
21
-29.59
0
LINE
8
BLACK
6
CONTINUOUS
10
43.1583
20
-29.59
11
43.1109
21
-29.6609
0
LINE
8
BLACK
6
CONTINUOUS
10
43.1109
20
-29.6609
11
43.04
21
-29.7083
0
LINE
8
BLACK
6
CONTINUOUS
10
43.04
20
-29.7083
11
42.9562
21
-29.725
0
LINE
8
BLACK
6
CONTINUOUS
10
42.9562
20
-29.725
11
42.4438
21
-29.725
0
LINE
8
BLACK
6
CONTINUOUS
10
42.4438
20
-29.725
11
42.36
21
-29.7083
0
LINE
8
BLACK
6
CONTINUOUS
10
42.36
20
-29.7083
11
42.2891
21
-29.6609
0
LINE
8
BLACK
6
CONTINUOUS
10
42.2891
20
-29.6609
11
42.2417
21
-29.59
0
LINE
8
BLACK
6
CONTINUOUS
10
42.2417
20
-29.59
11
42.225
21
-29.5062
0
LINE
8
BLACK
6
CONTINUOUS
10
42.225
20
-29.5062
11
42.225
21
-29.0687
0
LINE
8
BLACK
6
CONTINUOUS
10
42.225
20
-29.0687
11
42.2417
21
-28.985
0
LINE
8
BLACK
6
CONTINUOUS
10
42.2417
20
-28.985
11
42.2891
21
-28.9141
0
LINE
8
BLACK
6
CONTINUOUS
10
42.2891
20
-28.9141
11
42.36
21
-28.8667
0
LINE
8
BLACK
6
CONTINUOUS
10
42.36
20
-28.8667
11
42.4438
21
-28.85
0
LINE
8
BLACK
6
CONTINUOUS
10
42.4438
20
-28.85
11
42.9562
21
-28.85
0
LINE
8
BLACK
6
CONTINUOUS
10
42.9562
20
-28.85
11
43.04
21
-28.8667
0
LINE
8
BLACK
6
CONTINUOUS
10
41.5457
20
-27.194
11
41.6268
21
-27.2482
0
LINE
8
BLACK
6
CONTINUOUS
10
41.6268
20
-27.2482
11
41.681
21
-27.3293
0
LINE
8
BLACK
6
CONTINUOUS
10
41.681
20
-27.3293
11
41.7
21
-27.425
0
LINE
8
BLACK
6
CONTINUOUS
10
41.7
20
-27.425
11
41.7
21
-27.95
0
LINE
8
BLACK
6
CONTINUOUS
10
41.7
20
-27.95
11
41.681
21
-28.0457
0
LINE
8
BLACK
6
CONTINUOUS
10
41.681
20
-28.0457
11
41.6268
21
-28.1268
0
LINE
8
BLACK
6
CONTINUOUS
10
41.6268
20
-28.1268
11
41.5457
21
-28.181
0
LINE
8
BLACK
6
CONTINUOUS
10
41.5457
20
-28.181
11
41.45
21
-28.2
0
LINE
8
BLACK
6
CONTINUOUS
10
41.45
20
-28.2
11
40.55
21
-28.2
0
LINE
8
BLACK
6
CONTINUOUS
10
40.55
20
-28.2
11
40.4543
21
-28.181
0
LINE
8
BLACK
6
CONTINUOUS
10
40.4543
20
-28.181
11
40.3732
21
-28.1268
0
LINE
8
BLACK
6
CONTINUOUS
10
40.3732
20
-28.1268
11
40.319
21
-28.0457
0
LINE
8
BLACK
6
CONTINUOUS
10
40.319
20
-28.0457
11
40.3
21
-27.95
0
LINE
8
BLACK
6
CONTINUOUS
10
40.3
20
-27.95
11
40.3
21
-27.425
0
LINE
8
BLACK
6
CONTINUOUS
10
40.3
20
-27.425
11
40.319
21
-27.3293
0
LINE
8
BLACK
6
CONTINUOUS
10
40.319
20
-27.3293
11
40.3732
21
-27.2482
0
LINE
8
BLACK
6
CONTINUOUS
10
40.3732
20
-27.2482
11
40.4543
21
-27.194
0
LINE
8
BLACK
6
CONTINUOUS
10
40.4543
20
-27.194
11
40.55
21
-27.175
0
LINE
8
BLACK
6
CONTINUOUS
10
40.55
20
-27.175
11
41.45
21
-27.175
0
LINE
8
BLACK
6
CONTINUOUS
10
41.45
20
-27.175
11
41.5457
21
-27.194
0
LINE
8
BLACK
6
CONTINUOUS
10
43.04
20
-27.2917
11
43.1109
21
-27.3391
0
LINE
8
BLACK
6
CONTINUOUS
10
43.1109
20
-27.3391
11
43.1583
21
-27.41
0
LINE
8
BLACK
6
CONTINUOUS
10
43.1583
20
-27.41
11
43.175
21
-27.4937
0
LINE
8
BLACK
6
CONTINUOUS
10
43.175
20
-27.4937
11
43.175
21
-27.9312
0
LINE
8
BLACK
6
CONTINUOUS
10
43.175
20
-27.9312
11
43.1583
21
-28.015
0
LINE
8
BLACK
6
CONTINUOUS
10
43.1583
20
-28.015
11
43.1109
21
-28.0859
0
LINE
8
BLACK
6
CONTINUOUS
10
43.1109
20
-28.0859
11
43.04
21
-28.1333
0
LINE
8
BLACK
6
CONTINUOUS
10
43.04
20
-28.1333
11
42.9562
21
-28.15
0
LINE
8
BLACK
6
CONTINUOUS
10
42.9562
20
-28.15
11
42.4438
21
-28.15
0
LINE
8
BLACK
6
CONTINUOUS
10
42.4438
20
-28.15
11
42.36
21
-28.1333
0
LINE
8
BLACK
6
CONTINUOUS
10
42.36
20
-28.1333
11
42.2891
21
-28.0859
0
LINE
8
BLACK
6
CONTINUOUS
10
42.2891
20
-28.0859
11
42.2417
21
-28.015
0
LINE
8
BLACK
6
CONTINUOUS
10
42.2417
20
-28.015
11
42.225
21
-27.9312
0
LINE
8
BLACK
6
CONTINUOUS
10
42.225
20
-27.9312
11
42.225
21
-27.4937
0
LINE
8
BLACK
6
CONTINUOUS
10
42.225
20
-27.4937
11
42.2417
21
-27.41
0
LINE
8
BLACK
6
CONTINUOUS
10
42.2417
20
-27.41
11
42.2891
21
-27.3391
0
LINE
8
BLACK
6
CONTINUOUS
10
42.2891
20
-27.3391
11
42.36
21
-27.2917
0
LINE
8
BLACK
6
CONTINUOUS
10
42.36
20
-27.2917
11
42.4438
21
-27.275
0
LINE
8
BLACK
6
CONTINUOUS
10
42.4438
20
-27.275
11
42.9562
21
-27.275
0
LINE
8
BLACK
6
CONTINUOUS
10
42.9562
20
-27.275
11
43.04
21
-27.2917
0
LINE
8
BLACK
6
CONTINUOUS
10
47.4957
20
-25.394
11
47.5768
21
-25.4482
0
LINE
8
BLACK
6
CONTINUOUS
10
47.5768
20
-25.4482
11
47.631
21
-25.5293
0
LINE
8
BLACK
6
CONTINUOUS
10
47.631
20
-25.5293
11
47.65
21
-25.625
0
LINE
8
BLACK
6
CONTINUOUS
10
47.65
20
-25.625
11
47.65
21
-26.575
0
LINE
8
BLACK
6
CONTINUOUS
10
47.65
20
-26.575
11
47.631
21
-26.6707
0
LINE
8
BLACK
6
CONTINUOUS
10
47.631
20
-26.6707
11
47.5768
21
-26.7518
0
LINE
8
BLACK
6
CONTINUOUS
10
47.5768
20
-26.7518
11
47.4957
21
-26.806
0
LINE
8
BLACK
6
CONTINUOUS
10
47.4957
20
-26.806
11
47.4
21
-26.825
0
LINE
8
BLACK
6
CONTINUOUS
10
47.4
20
-26.825
11
46.9
21
-26.825
0
LINE
8
BLACK
6
CONTINUOUS
10
46.9
20
-26.825
11
46.8043
21
-26.806
0
LINE
8
BLACK
6
CONTINUOUS
10
46.8043
20
-26.806
11
46.7232
21
-26.7518
0
LINE
8
BLACK
6
CONTINUOUS
10
46.7232
20
-26.7518
11
46.669
21
-26.6707
0
LINE
8
BLACK
6
CONTINUOUS
10
46.669
20
-26.6707
11
46.65
21
-26.575
0
LINE
8
BLACK
6
CONTINUOUS
10
46.65
20
-26.575
11
46.65
21
-25.625
0
LINE
8
BLACK
6
CONTINUOUS
10
46.65
20
-25.625
11
46.669
21
-25.5293
0
LINE
8
BLACK
6
CONTINUOUS
10
46.669
20
-25.5293
11
46.7232
21
-25.4482
0
LINE
8
BLACK
6
CONTINUOUS
10
46.7232
20
-25.4482
11
46.8043
21
-25.394
0
LINE
8
BLACK
6
CONTINUOUS
10
46.8043
20
-25.394
11
46.9
21
-25.375
0
LINE
8
BLACK
6
CONTINUOUS
10
46.9
20
-25.375
11
47.4
21
-25.375
0
LINE
8
BLACK
6
CONTINUOUS
10
47.4
20
-25.375
11
47.4957
21
-25.394
0
LINE
8
BLACK
6
CONTINUOUS
10
49.3957
20
-25.394
11
49.4768
21
-25.4482
0
LINE
8
BLACK
6
CONTINUOUS
10
49.4768
20
-25.4482
11
49.531
21
-25.5293
0
LINE
8
BLACK
6
CONTINUOUS
10
49.531
20
-25.5293
11
49.55
21
-25.625
0
LINE
8
BLACK
6
CONTINUOUS
10
49.55
20
-25.625
11
49.55
21
-26.575
0
LINE
8
BLACK
6
CONTINUOUS
10
49.55
20
-26.575
11
49.531
21
-26.6707
0
LINE
8
BLACK
6
CONTINUOUS
10
49.531
20
-26.6707
11
49.4768
21
-26.7518
0
LINE
8
BLACK
6
CONTINUOUS
10
49.4768
20
-26.7518
11
49.3957
21
-26.806
0
LINE
8
BLACK
6
CONTINUOUS
10
49.3957
20
-26.806
11
49.3
21
-26.825
0
LINE
8
BLACK
6
CONTINUOUS
10
49.3
20
-26.825
11
48.8
21
-26.825
0
LINE
8
BLACK
6
CONTINUOUS
10
48.8
20
-26.825
11
48.7043
21
-26.806
0
LINE
8
BLACK
6
CONTINUOUS
10
48.7043
20
-26.806
11
48.6232
21
-26.7518
0
LINE
8
BLACK
6
CONTINUOUS
10
48.6232
20
-26.7518
11
48.569
21
-26.6707
0
LINE
8
BLACK
6
CONTINUOUS
10
48.569
20
-26.6707
11
48.55
21
-26.575
0
LINE
8
BLACK
6
CONTINUOUS
10
48.55
20
-26.575
11
48.55
21
-25.625
0
LINE
8
BLACK
6
CONTINUOUS
10
48.55
20
-25.625
11
48.569
21
-25.5293
0
LINE
8
BLACK
6
CONTINUOUS
10
48.569
20
-25.5293
11
48.6232
21
-25.4482
0
LINE
8
BLACK
6
CONTINUOUS
10
48.6232
20
-25.4482
11
48.7043
21
-25.394
0
LINE
8
BLACK
6
CONTINUOUS
10
48.7043
20
-25.394
11
48.8
21
-25.375
0
LINE
8
BLACK
6
CONTINUOUS
10
48.8
20
-25.375
11
49.3
21
-25.375
0
LINE
8
BLACK
6
CONTINUOUS
10
49.3
20
-25.375
11
49.3957
21
-25.394
0
LINE
8
BLACK
6
CONTINUOUS
10
165
20
-25.8
11
160.6
21
-25.8
0
LINE
8
BLACK
6
CONTINUOUS
10
160.6
20
-25.8
11
160.6
21
-23.6
0
LINE
8
BLACK
6
CONTINUOUS
10
160.6
20
-23.6
11
165
21
-23.6
0
LINE
8
BLACK
6
CONTINUOUS
10
165
20
-23.6
11
165
21
-25.8
0
LINE
8
BLACK
6
CONTINUOUS
10
157.896
20
-23.794
11
157.977
21
-23.8482
0
LINE
8
BLACK
6
CONTINUOUS
10
157.977
20
-23.8482
11
158.031
21
-23.9293
0
LINE
8
BLACK
6
CONTINUOUS
10
158.031
20
-23.9293
11
158.05
21
-24.025
0
LINE
8
BLACK
6
CONTINUOUS
10
158.05
20
-24.025
11
158.05
21
-24.975
0
LINE
8
BLACK
6
CONTINUOUS
10
158.05
20
-24.975
11
158.031
21
-25.0707
0
LINE
8
BLACK
6
CONTINUOUS
10
158.031
20
-25.0707
11
157.977
21
-25.1518
0
LINE
8
BLACK
6
CONTINUOUS
10
157.977
20
-25.1518
11
157.896
21
-25.206
0
LINE
8
BLACK
6
CONTINUOUS
10
157.896
20
-25.206
11
157.8
21
-25.225
0
LINE
8
BLACK
6
CONTINUOUS
10
157.8
20
-25.225
11
157.3
21
-25.225
0
LINE
8
BLACK
6
CONTINUOUS
10
157.3
20
-25.225
11
157.204
21
-25.206
0
LINE
8
BLACK
6
CONTINUOUS
10
157.204
20
-25.206
11
157.123
21
-25.1518
0
LINE
8
BLACK
6
CONTINUOUS
10
157.123
20
-25.1518
11
157.069
21
-25.0707
0
LINE
8
BLACK
6
CONTINUOUS
10
157.069
20
-25.0707
11
157.05
21
-24.975
0
LINE
8
BLACK
6
CONTINUOUS
10
157.05
20
-24.975
11
157.05
21
-24.025
0
LINE
8
BLACK
6
CONTINUOUS
10
157.05
20
-24.025
11
157.069
21
-23.9293
0
LINE
8
BLACK
6
CONTINUOUS
10
157.069
20
-23.9293
11
157.123
21
-23.8482
0
LINE
8
BLACK
6
CONTINUOUS
10
157.123
20
-23.8482
11
157.204
21
-23.794
0
LINE
8
BLACK
6
CONTINUOUS
10
157.204
20
-23.794
11
157.3
21
-23.775
0
LINE
8
BLACK
6
CONTINUOUS
10
157.3
20
-23.775
11
157.8
21
-23.775
0
LINE
8
BLACK
6
CONTINUOUS
10
157.8
20
-23.775
11
157.896
21
-23.794
0
LINE
8
BLACK
6
CONTINUOUS
10
159.796
20
-23.794
11
159.877
21
-23.8482
0
LINE
8
BLACK
6
CONTINUOUS
10
159.877
20
-23.8482
11
159.931
21
-23.9293
0
LINE
8
BLACK
6
CONTINUOUS
10
159.931
20
-23.9293
11
159.95
21
-24.025
0
LINE
8
BLACK
6
CONTINUOUS
10
159.95
20
-24.025
11
159.95
21
-24.975
0
LINE
8
BLACK
6
CONTINUOUS
10
159.95
20
-24.975
11
159.931
21
-25.0707
0
LINE
8
BLACK
6
CONTINUOUS
10
159.931
20
-25.0707
11
159.877
21
-25.1518
0
LINE
8
BLACK
6
CONTINUOUS
10
159.877
20
-25.1518
11
159.796
21
-25.206
0
LINE
8
BLACK
6
CONTINUOUS
10
159.796
20
-25.206
11
159.7
21
-25.225
0
LINE
8
BLACK
6
CONTINUOUS
10
159.7
20
-25.225
11
159.2
21
-25.225
0
LINE
8
BLACK
6
CONTINUOUS
10
159.2
20
-25.225
11
159.104
21
-25.206
0
LINE
8
BLACK
6
CONTINUOUS
10
159.104
20
-25.206
11
159.023
21
-25.1518
0
LINE
8
BLACK
6
CONTINUOUS
10
159.023
20
-25.1518
11
158.969
21
-25.0707
0
LINE
8
BLACK
6
CONTINUOUS
10
158.969
20
-25.0707
11
158.95
21
-24.975
0
LINE
8
BLACK
6
CONTINUOUS
10
158.95
20
-24.975
11
158.95
21
-24.025
0
LINE
8
BLACK
6
CONTINUOUS
10
158.95
20
-24.025
11
158.969
21
-23.9293
0
LINE
8
BLACK
6
CONTINUOUS
10
158.969
20
-23.9293
11
159.023
21
-23.8482
0
LINE
8
BLACK
6
CONTINUOUS
10
159.023
20
-23.8482
11
159.104
21
-23.794
0
LINE
8
BLACK
6
CONTINUOUS
10
159.104
20
-23.794
11
159.2
21
-23.775
0
LINE
8
BLACK
6
CONTINUOUS
10
159.2
20
-23.775
11
159.7
21
-23.775
0
LINE
8
BLACK
6
CONTINUOUS
10
159.7
20
-23.775
11
159.796
21
-23.794
  0
ENDSEC
  0
EOF
