  0
SECTION
  2
HEADER
  9
$ANGBASE
  50
0.0
  9
$ANGDIR
  70
1
  9
$MEASUREMENT
  70
1
  0
ENDSEC
  0
SECTION
  2
TABLES
  0
TABLE
  2
LTYPE
  70
4
  0
LTYPE
  5
40F
  2
CONTINUOUS
  70
0
  3
Solid line
  72
65
  73
0
  40
0.0
  0
LTYPE
  5
410
  2
DASHDOT
 70
0
  3
Dash Dot ____ _ ____ _
 72
65
 73
4
 40
2.0
 49
1.25
 49
-0.25
 49
0.25
 49
-0.25
  0
LTYPE
  5
411
  2
DASHED
 70
0
  3
Dashed __ __ __ __ __
 72
65
 73
2
 40
0.75
 49
0.5
 49
-0.25
  0
LTYPE
  5
43B
  2
DOTTED
 70
0
  3
Dotted .  .  .  .
 72
65
 73
2
 40
0.2
 49
0.0
 49
-0.2
  0
ENDTAB
  0
TABLE
  2
STYLE
  70
4
  0
STYLE
  2
KICAD
  70
0
  40
0
  41
1
  42
1
  50
0
  71
0
  3
isocp.shx
  0
STYLE
  2
KICADB
  70
0
  40
0
  41
1
  42
1
  50
0
  71
0
  3
isocp.shx
  0
STYLE
  2
KICADI
  70
0
  40
0
  41
1
  42
1
  50
15
  71
0
  3
isocp.shx
  0
STYLE
  2
KICADBI
  70
0
  40
0
  41
1
  42
1
  50
15
  71
0
  3
isocp.shx
  0
ENDTAB
  0
TABLE
  2
LAYER
  70
1
  0
LAYER
  2
BLACK
  70
0
  62
7
  6
CONTINUOUS
  0
ENDTAB
  0
ENDSEC
  0
SECTION
  2
ENTITIES
0
LINE
8
BLACK
6
CONTINUOUS
10
30.4862
20
-116.243
11
30.803
21
-116.318
0
LINE
8
BLACK
6
CONTINUOUS
10
30.803
20
-116.318
11
31.109
21
-116.429
0
LINE
8
BLACK
6
CONTINUOUS
10
31.109
20
-116.429
11
31.4
21
-116.575
0
LINE
8
BLACK
6
CONTINUOUS
10
31.4
20
-116.575
11
31.672
21
-116.754
0
LINE
8
BLACK
6
CONTINUOUS
10
31.672
20
-116.754
11
31.9215
21
-116.963
0
LINE
8
BLACK
6
CONTINUOUS
10
31.9215
20
-116.963
11
32.1449
21
-117.2
0
LINE
8
BLACK
6
CONTINUOUS
10
32.1449
20
-117.2
11
32.3394
21
-117.461
0
LINE
8
BLACK
6
CONTINUOUS
10
32.3394
20
-117.461
11
32.5022
21
-117.743
0
LINE
8
BLACK
6
CONTINUOUS
10
32.5022
20
-117.743
11
32.6311
21
-118.042
0
LINE
8
BLACK
6
CONTINUOUS
10
32.6311
20
-118.042
11
32.7245
21
-118.354
0
LINE
8
BLACK
6
CONTINUOUS
10
32.7245
20
-118.354
11
32.7811
21
-118.675
0
LINE
8
BLACK
6
CONTINUOUS
10
32.7811
20
-118.675
11
32.8
21
-119
0
LINE
8
BLACK
6
CONTINUOUS
10
32.8
20
-119
11
32.7811
21
-119.325
0
LINE
8
BLACK
6
CONTINUOUS
10
32.7811
20
-119.325
11
32.7245
21
-119.646
0
LINE
8
BLACK
6
CONTINUOUS
10
32.7245
20
-119.646
11
32.6311
21
-119.958
0
LINE
8
BLACK
6
CONTINUOUS
10
32.6311
20
-119.958
11
32.5022
21
-120.257
0
LINE
8
BLACK
6
CONTINUOUS
10
32.5022
20
-120.257
11
32.3394
21
-120.539
0
LINE
8
BLACK
6
CONTINUOUS
10
32.3394
20
-120.539
11
32.1449
21
-120.8
0
LINE
8
BLACK
6
CONTINUOUS
10
32.1449
20
-120.8
11
31.9215
21
-121.037
0
LINE
8
BLACK
6
CONTINUOUS
10
31.9215
20
-121.037
11
31.672
21
-121.246
0
LINE
8
BLACK
6
CONTINUOUS
10
31.672
20
-121.246
11
31.4
21
-121.425
0
LINE
8
BLACK
6
CONTINUOUS
10
31.4
20
-121.425
11
31.109
21
-121.571
0
LINE
8
BLACK
6
CONTINUOUS
10
31.109
20
-121.571
11
30.803
21
-121.682
0
LINE
8
BLACK
6
CONTINUOUS
10
30.803
20
-121.682
11
30.4862
21
-121.757
0
LINE
8
BLACK
6
CONTINUOUS
10
30.4862
20
-121.757
11
30.1628
21
-121.795
0
LINE
8
BLACK
6
CONTINUOUS
10
30.1628
20
-121.795
11
29.8372
21
-121.795
0
LINE
8
BLACK
6
CONTINUOUS
10
29.8372
20
-121.795
11
29.5138
21
-121.757
0
LINE
8
BLACK
6
CONTINUOUS
10
29.5138
20
-121.757
11
29.197
21
-121.682
0
LINE
8
BLACK
6
CONTINUOUS
10
29.197
20
-121.682
11
28.891
21
-121.571
0
LINE
8
BLACK
6
CONTINUOUS
10
28.891
20
-121.571
11
28.6
21
-121.425
0
LINE
8
BLACK
6
CONTINUOUS
10
28.6
20
-121.425
11
28.328
21
-121.246
0
LINE
8
BLACK
6
CONTINUOUS
10
28.328
20
-121.246
11
28.0785
21
-121.037
0
LINE
8
BLACK
6
CONTINUOUS
10
28.0785
20
-121.037
11
27.8551
21
-120.8
0
LINE
8
BLACK
6
CONTINUOUS
10
27.8551
20
-120.8
11
27.6606
21
-120.539
0
LINE
8
BLACK
6
CONTINUOUS
10
27.6606
20
-120.539
11
27.4978
21
-120.257
0
LINE
8
BLACK
6
CONTINUOUS
10
27.4978
20
-120.257
11
27.3689
21
-119.958
0
LINE
8
BLACK
6
CONTINUOUS
10
27.3689
20
-119.958
11
27.2755
21
-119.646
0
LINE
8
BLACK
6
CONTINUOUS
10
27.2755
20
-119.646
11
27.2189
21
-119.325
0
LINE
8
BLACK
6
CONTINUOUS
10
27.2189
20
-119.325
11
27.2
21
-119
0
LINE
8
BLACK
6
CONTINUOUS
10
27.2
20
-119
11
27.2189
21
-118.675
0
LINE
8
BLACK
6
CONTINUOUS
10
27.2189
20
-118.675
11
27.2755
21
-118.354
0
LINE
8
BLACK
6
CONTINUOUS
10
27.2755
20
-118.354
11
27.3689
21
-118.042
0
LINE
8
BLACK
6
CONTINUOUS
10
27.3689
20
-118.042
11
27.4978
21
-117.743
0
LINE
8
BLACK
6
CONTINUOUS
10
27.4978
20
-117.743
11
27.6606
21
-117.461
0
LINE
8
BLACK
6
CONTINUOUS
10
27.6606
20
-117.461
11
27.8551
21
-117.2
0
LINE
8
BLACK
6
CONTINUOUS
10
27.8551
20
-117.2
11
28.0785
21
-116.963
0
LINE
8
BLACK
6
CONTINUOUS
10
28.0785
20
-116.963
11
28.328
21
-116.754
0
LINE
8
BLACK
6
CONTINUOUS
10
28.328
20
-116.754
11
28.6
21
-116.575
0
LINE
8
BLACK
6
CONTINUOUS
10
28.6
20
-116.575
11
28.891
21
-116.429
0
LINE
8
BLACK
6
CONTINUOUS
10
28.891
20
-116.429
11
29.197
21
-116.318
0
LINE
8
BLACK
6
CONTINUOUS
10
29.197
20
-116.318
11
29.5138
21
-116.243
0
LINE
8
BLACK
6
CONTINUOUS
10
29.5138
20
-116.243
11
29.8372
21
-116.205
0
LINE
8
BLACK
6
CONTINUOUS
10
29.8372
20
-116.205
11
30.1628
21
-116.205
0
LINE
8
BLACK
6
CONTINUOUS
10
30.1628
20
-116.205
11
30.4862
21
-116.243
0
LINE
8
BLACK
6
CONTINUOUS
10
105.486
20
-116.243
11
105.803
21
-116.318
0
LINE
8
BLACK
6
CONTINUOUS
10
105.803
20
-116.318
11
106.109
21
-116.429
0
LINE
8
BLACK
6
CONTINUOUS
10
106.109
20
-116.429
11
106.4
21
-116.575
0
LINE
8
BLACK
6
CONTINUOUS
10
106.4
20
-116.575
11
106.672
21
-116.754
0
LINE
8
BLACK
6
CONTINUOUS
10
106.672
20
-116.754
11
106.921
21
-116.963
0
LINE
8
BLACK
6
CONTINUOUS
10
106.921
20
-116.963
11
107.145
21
-117.2
0
LINE
8
BLACK
6
CONTINUOUS
10
107.145
20
-117.2
11
107.339
21
-117.461
0
LINE
8
BLACK
6
CONTINUOUS
10
107.339
20
-117.461
11
107.502
21
-117.743
0
LINE
8
BLACK
6
CONTINUOUS
10
107.502
20
-117.743
11
107.631
21
-118.042
0
LINE
8
BLACK
6
CONTINUOUS
10
107.631
20
-118.042
11
107.725
21
-118.354
0
LINE
8
BLACK
6
CONTINUOUS
10
107.725
20
-118.354
11
107.781
21
-118.675
0
LINE
8
BLACK
6
CONTINUOUS
10
107.781
20
-118.675
11
107.8
21
-119
0
LINE
8
BLACK
6
CONTINUOUS
10
107.8
20
-119
11
107.781
21
-119.325
0
LINE
8
BLACK
6
CONTINUOUS
10
107.781
20
-119.325
11
107.725
21
-119.646
0
LINE
8
BLACK
6
CONTINUOUS
10
107.725
20
-119.646
11
107.631
21
-119.958
0
LINE
8
BLACK
6
CONTINUOUS
10
107.631
20
-119.958
11
107.502
21
-120.257
0
LINE
8
BLACK
6
CONTINUOUS
10
107.502
20
-120.257
11
107.339
21
-120.539
0
LINE
8
BLACK
6
CONTINUOUS
10
107.339
20
-120.539
11
107.145
21
-120.8
0
LINE
8
BLACK
6
CONTINUOUS
10
107.145
20
-120.8
11
106.921
21
-121.037
0
LINE
8
BLACK
6
CONTINUOUS
10
106.921
20
-121.037
11
106.672
21
-121.246
0
LINE
8
BLACK
6
CONTINUOUS
10
106.672
20
-121.246
11
106.4
21
-121.425
0
LINE
8
BLACK
6
CONTINUOUS
10
106.4
20
-121.425
11
106.109
21
-121.571
0
LINE
8
BLACK
6
CONTINUOUS
10
106.109
20
-121.571
11
105.803
21
-121.682
0
LINE
8
BLACK
6
CONTINUOUS
10
105.803
20
-121.682
11
105.486
21
-121.757
0
LINE
8
BLACK
6
CONTINUOUS
10
105.486
20
-121.757
11
105.163
21
-121.795
0
LINE
8
BLACK
6
CONTINUOUS
10
105.163
20
-121.795
11
104.837
21
-121.795
0
LINE
8
BLACK
6
CONTINUOUS
10
104.837
20
-121.795
11
104.514
21
-121.757
0
LINE
8
BLACK
6
CONTINUOUS
10
104.514
20
-121.757
11
104.197
21
-121.682
0
LINE
8
BLACK
6
CONTINUOUS
10
104.197
20
-121.682
11
103.891
21
-121.571
0
LINE
8
BLACK
6
CONTINUOUS
10
103.891
20
-121.571
11
103.6
21
-121.425
0
LINE
8
BLACK
6
CONTINUOUS
10
103.6
20
-121.425
11
103.328
21
-121.246
0
LINE
8
BLACK
6
CONTINUOUS
10
103.328
20
-121.246
11
103.079
21
-121.037
0
LINE
8
BLACK
6
CONTINUOUS
10
103.079
20
-121.037
11
102.855
21
-120.8
0
LINE
8
BLACK
6
CONTINUOUS
10
102.855
20
-120.8
11
102.661
21
-120.539
0
LINE
8
BLACK
6
CONTINUOUS
10
102.661
20
-120.539
11
102.498
21
-120.257
0
LINE
8
BLACK
6
CONTINUOUS
10
102.498
20
-120.257
11
102.369
21
-119.958
0
LINE
8
BLACK
6
CONTINUOUS
10
102.369
20
-119.958
11
102.275
21
-119.646
0
LINE
8
BLACK
6
CONTINUOUS
10
102.275
20
-119.646
11
102.219
21
-119.325
0
LINE
8
BLACK
6
CONTINUOUS
10
102.219
20
-119.325
11
102.2
21
-119
0
LINE
8
BLACK
6
CONTINUOUS
10
102.2
20
-119
11
102.219
21
-118.675
0
LINE
8
BLACK
6
CONTINUOUS
10
102.219
20
-118.675
11
102.275
21
-118.354
0
LINE
8
BLACK
6
CONTINUOUS
10
102.275
20
-118.354
11
102.369
21
-118.042
0
LINE
8
BLACK
6
CONTINUOUS
10
102.369
20
-118.042
11
102.498
21
-117.743
0
LINE
8
BLACK
6
CONTINUOUS
10
102.498
20
-117.743
11
102.661
21
-117.461
0
LINE
8
BLACK
6
CONTINUOUS
10
102.661
20
-117.461
11
102.855
21
-117.2
0
LINE
8
BLACK
6
CONTINUOUS
10
102.855
20
-117.2
11
103.079
21
-116.963
0
LINE
8
BLACK
6
CONTINUOUS
10
103.079
20
-116.963
11
103.328
21
-116.754
0
LINE
8
BLACK
6
CONTINUOUS
10
103.328
20
-116.754
11
103.6
21
-116.575
0
LINE
8
BLACK
6
CONTINUOUS
10
103.6
20
-116.575
11
103.891
21
-116.429
0
LINE
8
BLACK
6
CONTINUOUS
10
103.891
20
-116.429
11
104.197
21
-116.318
0
LINE
8
BLACK
6
CONTINUOUS
10
104.197
20
-116.318
11
104.514
21
-116.243
0
LINE
8
BLACK
6
CONTINUOUS
10
104.514
20
-116.243
11
104.837
21
-116.205
0
LINE
8
BLACK
6
CONTINUOUS
10
104.837
20
-116.205
11
105.163
21
-116.205
0
LINE
8
BLACK
6
CONTINUOUS
10
105.163
20
-116.205
11
105.486
21
-116.243
0
LINE
8
BLACK
6
CONTINUOUS
10
180.486
20
-116.243
11
180.803
21
-116.318
0
LINE
8
BLACK
6
CONTINUOUS
10
180.803
20
-116.318
11
181.109
21
-116.429
0
LINE
8
BLACK
6
CONTINUOUS
10
181.109
20
-116.429
11
181.4
21
-116.575
0
LINE
8
BLACK
6
CONTINUOUS
10
181.4
20
-116.575
11
181.672
21
-116.754
0
LINE
8
BLACK
6
CONTINUOUS
10
181.672
20
-116.754
11
181.921
21
-116.963
0
LINE
8
BLACK
6
CONTINUOUS
10
181.921
20
-116.963
11
182.145
21
-117.2
0
LINE
8
BLACK
6
CONTINUOUS
10
182.145
20
-117.2
11
182.339
21
-117.461
0
LINE
8
BLACK
6
CONTINUOUS
10
182.339
20
-117.461
11
182.502
21
-117.743
0
LINE
8
BLACK
6
CONTINUOUS
10
182.502
20
-117.743
11
182.631
21
-118.042
0
LINE
8
BLACK
6
CONTINUOUS
10
182.631
20
-118.042
11
182.725
21
-118.354
0
LINE
8
BLACK
6
CONTINUOUS
10
182.725
20
-118.354
11
182.781
21
-118.675
0
LINE
8
BLACK
6
CONTINUOUS
10
182.781
20
-118.675
11
182.8
21
-119
0
LINE
8
BLACK
6
CONTINUOUS
10
182.8
20
-119
11
182.781
21
-119.325
0
LINE
8
BLACK
6
CONTINUOUS
10
182.781
20
-119.325
11
182.725
21
-119.646
0
LINE
8
BLACK
6
CONTINUOUS
10
182.725
20
-119.646
11
182.631
21
-119.958
0
LINE
8
BLACK
6
CONTINUOUS
10
182.631
20
-119.958
11
182.502
21
-120.257
0
LINE
8
BLACK
6
CONTINUOUS
10
182.502
20
-120.257
11
182.339
21
-120.539
0
LINE
8
BLACK
6
CONTINUOUS
10
182.339
20
-120.539
11
182.145
21
-120.8
0
LINE
8
BLACK
6
CONTINUOUS
10
182.145
20
-120.8
11
181.921
21
-121.037
0
LINE
8
BLACK
6
CONTINUOUS
10
181.921
20
-121.037
11
181.672
21
-121.246
0
LINE
8
BLACK
6
CONTINUOUS
10
181.672
20
-121.246
11
181.4
21
-121.425
0
LINE
8
BLACK
6
CONTINUOUS
10
181.4
20
-121.425
11
181.109
21
-121.571
0
LINE
8
BLACK
6
CONTINUOUS
10
181.109
20
-121.571
11
180.803
21
-121.682
0
LINE
8
BLACK
6
CONTINUOUS
10
180.803
20
-121.682
11
180.486
21
-121.757
0
LINE
8
BLACK
6
CONTINUOUS
10
180.486
20
-121.757
11
180.163
21
-121.795
0
LINE
8
BLACK
6
CONTINUOUS
10
180.163
20
-121.795
11
179.837
21
-121.795
0
LINE
8
BLACK
6
CONTINUOUS
10
179.837
20
-121.795
11
179.514
21
-121.757
0
LINE
8
BLACK
6
CONTINUOUS
10
179.514
20
-121.757
11
179.197
21
-121.682
0
LINE
8
BLACK
6
CONTINUOUS
10
179.197
20
-121.682
11
178.891
21
-121.571
0
LINE
8
BLACK
6
CONTINUOUS
10
178.891
20
-121.571
11
178.6
21
-121.425
0
LINE
8
BLACK
6
CONTINUOUS
10
178.6
20
-121.425
11
178.328
21
-121.246
0
LINE
8
BLACK
6
CONTINUOUS
10
178.328
20
-121.246
11
178.079
21
-121.037
0
LINE
8
BLACK
6
CONTINUOUS
10
178.079
20
-121.037
11
177.855
21
-120.8
0
LINE
8
BLACK
6
CONTINUOUS
10
177.855
20
-120.8
11
177.661
21
-120.539
0
LINE
8
BLACK
6
CONTINUOUS
10
177.661
20
-120.539
11
177.498
21
-120.257
0
LINE
8
BLACK
6
CONTINUOUS
10
177.498
20
-120.257
11
177.369
21
-119.958
0
LINE
8
BLACK
6
CONTINUOUS
10
177.369
20
-119.958
11
177.275
21
-119.646
0
LINE
8
BLACK
6
CONTINUOUS
10
177.275
20
-119.646
11
177.219
21
-119.325
0
LINE
8
BLACK
6
CONTINUOUS
10
177.219
20
-119.325
11
177.2
21
-119
0
LINE
8
BLACK
6
CONTINUOUS
10
177.2
20
-119
11
177.219
21
-118.675
0
LINE
8
BLACK
6
CONTINUOUS
10
177.219
20
-118.675
11
177.275
21
-118.354
0
LINE
8
BLACK
6
CONTINUOUS
10
177.275
20
-118.354
11
177.369
21
-118.042
0
LINE
8
BLACK
6
CONTINUOUS
10
177.369
20
-118.042
11
177.498
21
-117.743
0
LINE
8
BLACK
6
CONTINUOUS
10
177.498
20
-117.743
11
177.661
21
-117.461
0
LINE
8
BLACK
6
CONTINUOUS
10
177.661
20
-117.461
11
177.855
21
-117.2
0
LINE
8
BLACK
6
CONTINUOUS
10
177.855
20
-117.2
11
178.079
21
-116.963
0
LINE
8
BLACK
6
CONTINUOUS
10
178.079
20
-116.963
11
178.328
21
-116.754
0
LINE
8
BLACK
6
CONTINUOUS
10
178.328
20
-116.754
11
178.6
21
-116.575
0
LINE
8
BLACK
6
CONTINUOUS
10
178.6
20
-116.575
11
178.891
21
-116.429
0
LINE
8
BLACK
6
CONTINUOUS
10
178.891
20
-116.429
11
179.197
21
-116.318
0
LINE
8
BLACK
6
CONTINUOUS
10
179.197
20
-116.318
11
179.514
21
-116.243
0
LINE
8
BLACK
6
CONTINUOUS
10
179.514
20
-116.243
11
179.837
21
-116.205
0
LINE
8
BLACK
6
CONTINUOUS
10
179.837
20
-116.205
11
180.163
21
-116.205
0
LINE
8
BLACK
6
CONTINUOUS
10
180.163
20
-116.205
11
180.486
21
-116.243
0
LINE
8
BLACK
6
CONTINUOUS
10
189.42
20
-119.279
11
189.532
21
-119.334
0
LINE
8
BLACK
6
CONTINUOUS
10
189.532
20
-119.334
11
189.621
21
-119.423
0
LINE
8
BLACK
6
CONTINUOUS
10
189.621
20
-119.423
11
189.676
21
-119.535
0
LINE
8
BLACK
6
CONTINUOUS
10
189.676
20
-119.535
11
189.692
21
-119.644
0
LINE
8
BLACK
6
CONTINUOUS
10
189.692
20
-119.644
11
189.692
21
-121.168
0
LINE
8
BLACK
6
CONTINUOUS
10
189.692
20
-121.168
11
189.676
21
-121.277
0
LINE
8
BLACK
6
CONTINUOUS
10
189.676
20
-121.277
11
189.621
21
-121.389
0
LINE
8
BLACK
6
CONTINUOUS
10
189.621
20
-121.389
11
189.532
21
-121.478
0
LINE
8
BLACK
6
CONTINUOUS
10
189.532
20
-121.478
11
189.42
21
-121.533
0
LINE
8
BLACK
6
CONTINUOUS
10
189.42
20
-121.533
11
189.311
21
-121.549
0
LINE
8
BLACK
6
CONTINUOUS
10
189.311
20
-121.549
11
188.549
21
-121.549
0
LINE
8
BLACK
6
CONTINUOUS
10
188.549
20
-121.549
11
188.44
21
-121.533
0
LINE
8
BLACK
6
CONTINUOUS
10
188.44
20
-121.533
11
188.328
21
-121.478
0
LINE
8
BLACK
6
CONTINUOUS
10
188.328
20
-121.478
11
188.239
21
-121.389
0
LINE
8
BLACK
6
CONTINUOUS
10
188.239
20
-121.389
11
188.184
21
-121.277
0
LINE
8
BLACK
6
CONTINUOUS
10
188.184
20
-121.277
11
188.168
21
-121.168
0
LINE
8
BLACK
6
CONTINUOUS
10
188.168
20
-121.168
11
188.168
21
-119.644
0
LINE
8
BLACK
6
CONTINUOUS
10
188.168
20
-119.644
11
188.184
21
-119.535
0
LINE
8
BLACK
6
CONTINUOUS
10
188.184
20
-119.535
11
188.239
21
-119.423
0
LINE
8
BLACK
6
CONTINUOUS
10
188.239
20
-119.423
11
188.328
21
-119.334
0
LINE
8
BLACK
6
CONTINUOUS
10
188.328
20
-119.334
11
188.44
21
-119.279
0
LINE
8
BLACK
6
CONTINUOUS
10
188.44
20
-119.279
11
188.549
21
-119.263
0
LINE
8
BLACK
6
CONTINUOUS
10
188.549
20
-119.263
11
189.311
21
-119.263
0
LINE
8
BLACK
6
CONTINUOUS
10
189.311
20
-119.263
11
189.42
21
-119.279
0
LINE
8
BLACK
6
CONTINUOUS
10
189.42
20
-116.679
11
189.532
21
-116.734
0
LINE
8
BLACK
6
CONTINUOUS
10
189.532
20
-116.734
11
189.621
21
-116.823
0
LINE
8
BLACK
6
CONTINUOUS
10
189.621
20
-116.823
11
189.676
21
-116.935
0
LINE
8
BLACK
6
CONTINUOUS
10
189.676
20
-116.935
11
189.692
21
-117.044
0
LINE
8
BLACK
6
CONTINUOUS
10
189.692
20
-117.044
11
189.692
21
-118.568
0
LINE
8
BLACK
6
CONTINUOUS
10
189.692
20
-118.568
11
189.676
21
-118.677
0
LINE
8
BLACK
6
CONTINUOUS
10
189.676
20
-118.677
11
189.621
21
-118.789
0
LINE
8
BLACK
6
CONTINUOUS
10
189.621
20
-118.789
11
189.532
21
-118.878
0
LINE
8
BLACK
6
CONTINUOUS
10
189.532
20
-118.878
11
189.42
21
-118.933
0
LINE
8
BLACK
6
CONTINUOUS
10
189.42
20
-118.933
11
189.311
21
-118.949
0
LINE
8
BLACK
6
CONTINUOUS
10
189.311
20
-118.949
11
188.549
21
-118.949
0
LINE
8
BLACK
6
CONTINUOUS
10
188.549
20
-118.949
11
188.44
21
-118.933
0
LINE
8
BLACK
6
CONTINUOUS
10
188.44
20
-118.933
11
188.328
21
-118.878
0
LINE
8
BLACK
6
CONTINUOUS
10
188.328
20
-118.878
11
188.239
21
-118.789
0
LINE
8
BLACK
6
CONTINUOUS
10
188.239
20
-118.789
11
188.184
21
-118.677
0
LINE
8
BLACK
6
CONTINUOUS
10
188.184
20
-118.677
11
188.168
21
-118.568
0
LINE
8
BLACK
6
CONTINUOUS
10
188.168
20
-118.568
11
188.168
21
-117.044
0
LINE
8
BLACK
6
CONTINUOUS
10
188.168
20
-117.044
11
188.184
21
-116.935
0
LINE
8
BLACK
6
CONTINUOUS
10
188.184
20
-116.935
11
188.239
21
-116.823
0
LINE
8
BLACK
6
CONTINUOUS
10
188.239
20
-116.823
11
188.328
21
-116.734
0
LINE
8
BLACK
6
CONTINUOUS
10
188.328
20
-116.734
11
188.44
21
-116.679
0
LINE
8
BLACK
6
CONTINUOUS
10
188.44
20
-116.679
11
188.549
21
-116.663
0
LINE
8
BLACK
6
CONTINUOUS
10
188.549
20
-116.663
11
189.311
21
-116.663
0
LINE
8
BLACK
6
CONTINUOUS
10
189.311
20
-116.663
11
189.42
21
-116.679
0
LINE
8
BLACK
6
CONTINUOUS
10
95.5407
20
-112.454
11
95.6534
21
-112.509
0
LINE
8
BLACK
6
CONTINUOUS
10
95.6534
20
-112.509
11
95.7421
21
-112.598
0
LINE
8
BLACK
6
CONTINUOUS
10
95.7421
20
-112.598
11
95.7972
21
-112.71
0
LINE
8
BLACK
6
CONTINUOUS
10
95.7972
20
-112.71
11
95.813
21
-112.819
0
LINE
8
BLACK
6
CONTINUOUS
10
95.813
20
-112.819
11
95.813
21
-113.581
0
LINE
8
BLACK
6
CONTINUOUS
10
95.813
20
-113.581
11
95.7972
21
-113.69
0
LINE
8
BLACK
6
CONTINUOUS
10
95.7972
20
-113.69
11
95.7421
21
-113.802
0
LINE
8
BLACK
6
CONTINUOUS
10
95.7421
20
-113.802
11
95.6534
21
-113.891
0
LINE
8
BLACK
6
CONTINUOUS
10
95.6534
20
-113.891
11
95.5407
21
-113.946
0
LINE
8
BLACK
6
CONTINUOUS
10
95.5407
20
-113.946
11
95.432
21
-113.962
0
LINE
8
BLACK
6
CONTINUOUS
10
95.432
20
-113.962
11
93.908
21
-113.962
0
LINE
8
BLACK
6
CONTINUOUS
10
93.908
20
-113.962
11
93.7993
21
-113.946
0
LINE
8
BLACK
6
CONTINUOUS
10
93.7993
20
-113.946
11
93.6866
21
-113.891
0
LINE
8
BLACK
6
CONTINUOUS
10
93.6866
20
-113.891
11
93.5979
21
-113.802
0
LINE
8
BLACK
6
CONTINUOUS
10
93.5979
20
-113.802
11
93.5428
21
-113.69
0
LINE
8
BLACK
6
CONTINUOUS
10
93.5428
20
-113.69
11
93.527
21
-113.581
0
LINE
8
BLACK
6
CONTINUOUS
10
93.527
20
-113.581
11
93.527
21
-112.819
0
LINE
8
BLACK
6
CONTINUOUS
10
93.527
20
-112.819
11
93.5428
21
-112.71
0
LINE
8
BLACK
6
CONTINUOUS
10
93.5428
20
-112.71
11
93.5979
21
-112.598
0
LINE
8
BLACK
6
CONTINUOUS
10
93.5979
20
-112.598
11
93.6866
21
-112.509
0
LINE
8
BLACK
6
CONTINUOUS
10
93.6866
20
-112.509
11
93.7993
21
-112.454
0
LINE
8
BLACK
6
CONTINUOUS
10
93.7993
20
-112.454
11
93.908
21
-112.438
0
LINE
8
BLACK
6
CONTINUOUS
10
93.908
20
-112.438
11
95.432
21
-112.438
0
LINE
8
BLACK
6
CONTINUOUS
10
95.432
20
-112.438
11
95.5407
21
-112.454
0
LINE
8
BLACK
6
CONTINUOUS
10
98.1407
20
-112.454
11
98.2534
21
-112.509
0
LINE
8
BLACK
6
CONTINUOUS
10
98.2534
20
-112.509
11
98.3421
21
-112.598
0
LINE
8
BLACK
6
CONTINUOUS
10
98.3421
20
-112.598
11
98.3972
21
-112.71
0
LINE
8
BLACK
6
CONTINUOUS
10
98.3972
20
-112.71
11
98.413
21
-112.819
0
LINE
8
BLACK
6
CONTINUOUS
10
98.413
20
-112.819
11
98.413
21
-113.581
0
LINE
8
BLACK
6
CONTINUOUS
10
98.413
20
-113.581
11
98.3972
21
-113.69
0
LINE
8
BLACK
6
CONTINUOUS
10
98.3972
20
-113.69
11
98.3421
21
-113.802
0
LINE
8
BLACK
6
CONTINUOUS
10
98.3421
20
-113.802
11
98.2534
21
-113.891
0
LINE
8
BLACK
6
CONTINUOUS
10
98.2534
20
-113.891
11
98.1407
21
-113.946
0
LINE
8
BLACK
6
CONTINUOUS
10
98.1407
20
-113.946
11
98.032
21
-113.962
0
LINE
8
BLACK
6
CONTINUOUS
10
98.032
20
-113.962
11
96.508
21
-113.962
0
LINE
8
BLACK
6
CONTINUOUS
10
96.508
20
-113.962
11
96.3993
21
-113.946
0
LINE
8
BLACK
6
CONTINUOUS
10
96.3993
20
-113.946
11
96.2866
21
-113.891
0
LINE
8
BLACK
6
CONTINUOUS
10
96.2866
20
-113.891
11
96.1979
21
-113.802
0
LINE
8
BLACK
6
CONTINUOUS
10
96.1979
20
-113.802
11
96.1428
21
-113.69
0
LINE
8
BLACK
6
CONTINUOUS
10
96.1428
20
-113.69
11
96.127
21
-113.581
0
LINE
8
BLACK
6
CONTINUOUS
10
96.127
20
-113.581
11
96.127
21
-112.819
0
LINE
8
BLACK
6
CONTINUOUS
10
96.127
20
-112.819
11
96.1428
21
-112.71
0
LINE
8
BLACK
6
CONTINUOUS
10
96.1428
20
-112.71
11
96.1979
21
-112.598
0
LINE
8
BLACK
6
CONTINUOUS
10
96.1979
20
-112.598
11
96.2866
21
-112.509
0
LINE
8
BLACK
6
CONTINUOUS
10
96.2866
20
-112.509
11
96.3993
21
-112.454
0
LINE
8
BLACK
6
CONTINUOUS
10
96.3993
20
-112.454
11
96.508
21
-112.438
0
LINE
8
BLACK
6
CONTINUOUS
10
96.508
20
-112.438
11
98.032
21
-112.438
0
LINE
8
BLACK
6
CONTINUOUS
10
98.032
20
-112.438
11
98.1407
21
-112.454
0
LINE
8
BLACK
6
CONTINUOUS
10
30.4862
20
-64.2425
11
30.803
21
-64.3176
0
LINE
8
BLACK
6
CONTINUOUS
10
30.803
20
-64.3176
11
31.109
21
-64.429
0
LINE
8
BLACK
6
CONTINUOUS
10
31.109
20
-64.429
11
31.4
21
-64.5751
0
LINE
8
BLACK
6
CONTINUOUS
10
31.4
20
-64.5751
11
31.672
21
-64.7541
0
LINE
8
BLACK
6
CONTINUOUS
10
31.672
20
-64.7541
11
31.9215
21
-64.9634
0
LINE
8
BLACK
6
CONTINUOUS
10
31.9215
20
-64.9634
11
32.1449
21
-65.2002
0
LINE
8
BLACK
6
CONTINUOUS
10
32.1449
20
-65.2002
11
32.3394
21
-65.4614
0
LINE
8
BLACK
6
CONTINUOUS
10
32.3394
20
-65.4614
11
32.5022
21
-65.7434
0
LINE
8
BLACK
6
CONTINUOUS
10
32.5022
20
-65.7434
11
32.6311
21
-66.0423
0
LINE
8
BLACK
6
CONTINUOUS
10
32.6311
20
-66.0423
11
32.7245
21
-66.3543
0
LINE
8
BLACK
6
CONTINUOUS
10
32.7245
20
-66.3543
11
32.7811
21
-66.6749
0
LINE
8
BLACK
6
CONTINUOUS
10
32.7811
20
-66.6749
11
32.8
21
-67
0
LINE
8
BLACK
6
CONTINUOUS
10
32.8
20
-67
11
32.7811
21
-67.3251
0
LINE
8
BLACK
6
CONTINUOUS
10
32.7811
20
-67.3251
11
32.7245
21
-67.6457
0
LINE
8
BLACK
6
CONTINUOUS
10
32.7245
20
-67.6457
11
32.6311
21
-67.9577
0
LINE
8
BLACK
6
CONTINUOUS
10
32.6311
20
-67.9577
11
32.5022
21
-68.2566
0
LINE
8
BLACK
6
CONTINUOUS
10
32.5022
20
-68.2566
11
32.3394
21
-68.5386
0
LINE
8
BLACK
6
CONTINUOUS
10
32.3394
20
-68.5386
11
32.1449
21
-68.7998
0
LINE
8
BLACK
6
CONTINUOUS
10
32.1449
20
-68.7998
11
31.9215
21
-69.0366
0
LINE
8
BLACK
6
CONTINUOUS
10
31.9215
20
-69.0366
11
31.672
21
-69.2459
0
LINE
8
BLACK
6
CONTINUOUS
10
31.672
20
-69.2459
11
31.4
21
-69.4249
0
LINE
8
BLACK
6
CONTINUOUS
10
31.4
20
-69.4249
11
31.109
21
-69.571
0
LINE
8
BLACK
6
CONTINUOUS
10
31.109
20
-69.571
11
30.803
21
-69.6824
0
LINE
8
BLACK
6
CONTINUOUS
10
30.803
20
-69.6824
11
30.4862
21
-69.7575
0
LINE
8
BLACK
6
CONTINUOUS
10
30.4862
20
-69.7575
11
30.1628
21
-69.7953
0
LINE
8
BLACK
6
CONTINUOUS
10
30.1628
20
-69.7953
11
29.8372
21
-69.7953
0
LINE
8
BLACK
6
CONTINUOUS
10
29.8372
20
-69.7953
11
29.5138
21
-69.7575
0
LINE
8
BLACK
6
CONTINUOUS
10
29.5138
20
-69.7575
11
29.197
21
-69.6824
0
LINE
8
BLACK
6
CONTINUOUS
10
29.197
20
-69.6824
11
28.891
21
-69.571
0
LINE
8
BLACK
6
CONTINUOUS
10
28.891
20
-69.571
11
28.6
21
-69.4249
0
LINE
8
BLACK
6
CONTINUOUS
10
28.6
20
-69.4249
11
28.328
21
-69.2459
0
LINE
8
BLACK
6
CONTINUOUS
10
28.328
20
-69.2459
11
28.0785
21
-69.0366
0
LINE
8
BLACK
6
CONTINUOUS
10
28.0785
20
-69.0366
11
27.8551
21
-68.7998
0
LINE
8
BLACK
6
CONTINUOUS
10
27.8551
20
-68.7998
11
27.6606
21
-68.5386
0
LINE
8
BLACK
6
CONTINUOUS
10
27.6606
20
-68.5386
11
27.4978
21
-68.2566
0
LINE
8
BLACK
6
CONTINUOUS
10
27.4978
20
-68.2566
11
27.3689
21
-67.9577
0
LINE
8
BLACK
6
CONTINUOUS
10
27.3689
20
-67.9577
11
27.2755
21
-67.6457
0
LINE
8
BLACK
6
CONTINUOUS
10
27.2755
20
-67.6457
11
27.2189
21
-67.3251
0
LINE
8
BLACK
6
CONTINUOUS
10
27.2189
20
-67.3251
11
27.2
21
-67
0
LINE
8
BLACK
6
CONTINUOUS
10
27.2
20
-67
11
27.2189
21
-66.6749
0
LINE
8
BLACK
6
CONTINUOUS
10
27.2189
20
-66.6749
11
27.2755
21
-66.3543
0
LINE
8
BLACK
6
CONTINUOUS
10
27.2755
20
-66.3543
11
27.3689
21
-66.0423
0
LINE
8
BLACK
6
CONTINUOUS
10
27.3689
20
-66.0423
11
27.4978
21
-65.7434
0
LINE
8
BLACK
6
CONTINUOUS
10
27.4978
20
-65.7434
11
27.6606
21
-65.4614
0
LINE
8
BLACK
6
CONTINUOUS
10
27.6606
20
-65.4614
11
27.8551
21
-65.2002
0
LINE
8
BLACK
6
CONTINUOUS
10
27.8551
20
-65.2002
11
28.0785
21
-64.9634
0
LINE
8
BLACK
6
CONTINUOUS
10
28.0785
20
-64.9634
11
28.328
21
-64.7541
0
LINE
8
BLACK
6
CONTINUOUS
10
28.328
20
-64.7541
11
28.6
21
-64.5751
0
LINE
8
BLACK
6
CONTINUOUS
10
28.6
20
-64.5751
11
28.891
21
-64.429
0
LINE
8
BLACK
6
CONTINUOUS
10
28.891
20
-64.429
11
29.197
21
-64.3176
0
LINE
8
BLACK
6
CONTINUOUS
10
29.197
20
-64.3176
11
29.5138
21
-64.2425
0
LINE
8
BLACK
6
CONTINUOUS
10
29.5138
20
-64.2425
11
29.8372
21
-64.2047
0
LINE
8
BLACK
6
CONTINUOUS
10
29.8372
20
-64.2047
11
30.1628
21
-64.2047
0
LINE
8
BLACK
6
CONTINUOUS
10
30.1628
20
-64.2047
11
30.4862
21
-64.2425
0
LINE
8
BLACK
6
CONTINUOUS
10
105.486
20
-64.2425
11
105.803
21
-64.3176
0
LINE
8
BLACK
6
CONTINUOUS
10
105.803
20
-64.3176
11
106.109
21
-64.429
0
LINE
8
BLACK
6
CONTINUOUS
10
106.109
20
-64.429
11
106.4
21
-64.5751
0
LINE
8
BLACK
6
CONTINUOUS
10
106.4
20
-64.5751
11
106.672
21
-64.7541
0
LINE
8
BLACK
6
CONTINUOUS
10
106.672
20
-64.7541
11
106.921
21
-64.9634
0
LINE
8
BLACK
6
CONTINUOUS
10
106.921
20
-64.9634
11
107.145
21
-65.2002
0
LINE
8
BLACK
6
CONTINUOUS
10
107.145
20
-65.2002
11
107.339
21
-65.4614
0
LINE
8
BLACK
6
CONTINUOUS
10
107.339
20
-65.4614
11
107.502
21
-65.7434
0
LINE
8
BLACK
6
CONTINUOUS
10
107.502
20
-65.7434
11
107.631
21
-66.0423
0
LINE
8
BLACK
6
CONTINUOUS
10
107.631
20
-66.0423
11
107.725
21
-66.3543
0
LINE
8
BLACK
6
CONTINUOUS
10
107.725
20
-66.3543
11
107.781
21
-66.6749
0
LINE
8
BLACK
6
CONTINUOUS
10
107.781
20
-66.6749
11
107.8
21
-67
0
LINE
8
BLACK
6
CONTINUOUS
10
107.8
20
-67
11
107.781
21
-67.3251
0
LINE
8
BLACK
6
CONTINUOUS
10
107.781
20
-67.3251
11
107.725
21
-67.6457
0
LINE
8
BLACK
6
CONTINUOUS
10
107.725
20
-67.6457
11
107.631
21
-67.9577
0
LINE
8
BLACK
6
CONTINUOUS
10
107.631
20
-67.9577
11
107.502
21
-68.2566
0
LINE
8
BLACK
6
CONTINUOUS
10
107.502
20
-68.2566
11
107.339
21
-68.5386
0
LINE
8
BLACK
6
CONTINUOUS
10
107.339
20
-68.5386
11
107.145
21
-68.7998
0
LINE
8
BLACK
6
CONTINUOUS
10
107.145
20
-68.7998
11
106.921
21
-69.0366
0
LINE
8
BLACK
6
CONTINUOUS
10
106.921
20
-69.0366
11
106.672
21
-69.2459
0
LINE
8
BLACK
6
CONTINUOUS
10
106.672
20
-69.2459
11
106.4
21
-69.4249
0
LINE
8
BLACK
6
CONTINUOUS
10
106.4
20
-69.4249
11
106.109
21
-69.571
0
LINE
8
BLACK
6
CONTINUOUS
10
106.109
20
-69.571
11
105.803
21
-69.6824
0
LINE
8
BLACK
6
CONTINUOUS
10
105.803
20
-69.6824
11
105.486
21
-69.7575
0
LINE
8
BLACK
6
CONTINUOUS
10
105.486
20
-69.7575
11
105.163
21
-69.7953
0
LINE
8
BLACK
6
CONTINUOUS
10
105.163
20
-69.7953
11
104.837
21
-69.7953
0
LINE
8
BLACK
6
CONTINUOUS
10
104.837
20
-69.7953
11
104.514
21
-69.7575
0
LINE
8
BLACK
6
CONTINUOUS
10
104.514
20
-69.7575
11
104.197
21
-69.6824
0
LINE
8
BLACK
6
CONTINUOUS
10
104.197
20
-69.6824
11
103.891
21
-69.571
0
LINE
8
BLACK
6
CONTINUOUS
10
103.891
20
-69.571
11
103.6
21
-69.4249
0
LINE
8
BLACK
6
CONTINUOUS
10
103.6
20
-69.4249
11
103.328
21
-69.2459
0
LINE
8
BLACK
6
CONTINUOUS
10
103.328
20
-69.2459
11
103.079
21
-69.0366
0
LINE
8
BLACK
6
CONTINUOUS
10
103.079
20
-69.0366
11
102.855
21
-68.7998
0
LINE
8
BLACK
6
CONTINUOUS
10
102.855
20
-68.7998
11
102.661
21
-68.5386
0
LINE
8
BLACK
6
CONTINUOUS
10
102.661
20
-68.5386
11
102.498
21
-68.2566
0
LINE
8
BLACK
6
CONTINUOUS
10
102.498
20
-68.2566
11
102.369
21
-67.9577
0
LINE
8
BLACK
6
CONTINUOUS
10
102.369
20
-67.9577
11
102.275
21
-67.6457
0
LINE
8
BLACK
6
CONTINUOUS
10
102.275
20
-67.6457
11
102.219
21
-67.3251
0
LINE
8
BLACK
6
CONTINUOUS
10
102.219
20
-67.3251
11
102.2
21
-67
0
LINE
8
BLACK
6
CONTINUOUS
10
102.2
20
-67
11
102.219
21
-66.6749
0
LINE
8
BLACK
6
CONTINUOUS
10
102.219
20
-66.6749
11
102.275
21
-66.3543
0
LINE
8
BLACK
6
CONTINUOUS
10
102.275
20
-66.3543
11
102.369
21
-66.0423
0
LINE
8
BLACK
6
CONTINUOUS
10
102.369
20
-66.0423
11
102.498
21
-65.7434
0
LINE
8
BLACK
6
CONTINUOUS
10
102.498
20
-65.7434
11
102.661
21
-65.4614
0
LINE
8
BLACK
6
CONTINUOUS
10
102.661
20
-65.4614
11
102.855
21
-65.2002
0
LINE
8
BLACK
6
CONTINUOUS
10
102.855
20
-65.2002
11
103.079
21
-64.9634
0
LINE
8
BLACK
6
CONTINUOUS
10
103.079
20
-64.9634
11
103.328
21
-64.7541
0
LINE
8
BLACK
6
CONTINUOUS
10
103.328
20
-64.7541
11
103.6
21
-64.5751
0
LINE
8
BLACK
6
CONTINUOUS
10
103.6
20
-64.5751
11
103.891
21
-64.429
0
LINE
8
BLACK
6
CONTINUOUS
10
103.891
20
-64.429
11
104.197
21
-64.3176
0
LINE
8
BLACK
6
CONTINUOUS
10
104.197
20
-64.3176
11
104.514
21
-64.2425
0
LINE
8
BLACK
6
CONTINUOUS
10
104.514
20
-64.2425
11
104.837
21
-64.2047
0
LINE
8
BLACK
6
CONTINUOUS
10
104.837
20
-64.2047
11
105.163
21
-64.2047
0
LINE
8
BLACK
6
CONTINUOUS
10
105.163
20
-64.2047
11
105.486
21
-64.2425
0
LINE
8
BLACK
6
CONTINUOUS
10
180.486
20
-64.2425
11
180.803
21
-64.3176
0
LINE
8
BLACK
6
CONTINUOUS
10
180.803
20
-64.3176
11
181.109
21
-64.429
0
LINE
8
BLACK
6
CONTINUOUS
10
181.109
20
-64.429
11
181.4
21
-64.5751
0
LINE
8
BLACK
6
CONTINUOUS
10
181.4
20
-64.5751
11
181.672
21
-64.7541
0
LINE
8
BLACK
6
CONTINUOUS
10
181.672
20
-64.7541
11
181.921
21
-64.9634
0
LINE
8
BLACK
6
CONTINUOUS
10
181.921
20
-64.9634
11
182.145
21
-65.2002
0
LINE
8
BLACK
6
CONTINUOUS
10
182.145
20
-65.2002
11
182.339
21
-65.4614
0
LINE
8
BLACK
6
CONTINUOUS
10
182.339
20
-65.4614
11
182.502
21
-65.7434
0
LINE
8
BLACK
6
CONTINUOUS
10
182.502
20
-65.7434
11
182.631
21
-66.0423
0
LINE
8
BLACK
6
CONTINUOUS
10
182.631
20
-66.0423
11
182.725
21
-66.3543
0
LINE
8
BLACK
6
CONTINUOUS
10
182.725
20
-66.3543
11
182.781
21
-66.6749
0
LINE
8
BLACK
6
CONTINUOUS
10
182.781
20
-66.6749
11
182.8
21
-67
0
LINE
8
BLACK
6
CONTINUOUS
10
182.8
20
-67
11
182.781
21
-67.3251
0
LINE
8
BLACK
6
CONTINUOUS
10
182.781
20
-67.3251
11
182.725
21
-67.6457
0
LINE
8
BLACK
6
CONTINUOUS
10
182.725
20
-67.6457
11
182.631
21
-67.9577
0
LINE
8
BLACK
6
CONTINUOUS
10
182.631
20
-67.9577
11
182.502
21
-68.2566
0
LINE
8
BLACK
6
CONTINUOUS
10
182.502
20
-68.2566
11
182.339
21
-68.5386
0
LINE
8
BLACK
6
CONTINUOUS
10
182.339
20
-68.5386
11
182.145
21
-68.7998
0
LINE
8
BLACK
6
CONTINUOUS
10
182.145
20
-68.7998
11
181.921
21
-69.0366
0
LINE
8
BLACK
6
CONTINUOUS
10
181.921
20
-69.0366
11
181.672
21
-69.2459
0
LINE
8
BLACK
6
CONTINUOUS
10
181.672
20
-69.2459
11
181.4
21
-69.4249
0
LINE
8
BLACK
6
CONTINUOUS
10
181.4
20
-69.4249
11
181.109
21
-69.571
0
LINE
8
BLACK
6
CONTINUOUS
10
181.109
20
-69.571
11
180.803
21
-69.6824
0
LINE
8
BLACK
6
CONTINUOUS
10
180.803
20
-69.6824
11
180.486
21
-69.7575
0
LINE
8
BLACK
6
CONTINUOUS
10
180.486
20
-69.7575
11
180.163
21
-69.7953
0
LINE
8
BLACK
6
CONTINUOUS
10
180.163
20
-69.7953
11
179.837
21
-69.7953
0
LINE
8
BLACK
6
CONTINUOUS
10
179.837
20
-69.7953
11
179.514
21
-69.7575
0
LINE
8
BLACK
6
CONTINUOUS
10
179.514
20
-69.7575
11
179.197
21
-69.6824
0
LINE
8
BLACK
6
CONTINUOUS
10
179.197
20
-69.6824
11
178.891
21
-69.571
0
LINE
8
BLACK
6
CONTINUOUS
10
178.891
20
-69.571
11
178.6
21
-69.4249
0
LINE
8
BLACK
6
CONTINUOUS
10
178.6
20
-69.4249
11
178.328
21
-69.2459
0
LINE
8
BLACK
6
CONTINUOUS
10
178.328
20
-69.2459
11
178.079
21
-69.0366
0
LINE
8
BLACK
6
CONTINUOUS
10
178.079
20
-69.0366
11
177.855
21
-68.7998
0
LINE
8
BLACK
6
CONTINUOUS
10
177.855
20
-68.7998
11
177.661
21
-68.5386
0
LINE
8
BLACK
6
CONTINUOUS
10
177.661
20
-68.5386
11
177.498
21
-68.2566
0
LINE
8
BLACK
6
CONTINUOUS
10
177.498
20
-68.2566
11
177.369
21
-67.9577
0
LINE
8
BLACK
6
CONTINUOUS
10
177.369
20
-67.9577
11
177.275
21
-67.6457
0
LINE
8
BLACK
6
CONTINUOUS
10
177.275
20
-67.6457
11
177.219
21
-67.3251
0
LINE
8
BLACK
6
CONTINUOUS
10
177.219
20
-67.3251
11
177.2
21
-67
0
LINE
8
BLACK
6
CONTINUOUS
10
177.2
20
-67
11
177.219
21
-66.6749
0
LINE
8
BLACK
6
CONTINUOUS
10
177.219
20
-66.6749
11
177.275
21
-66.3543
0
LINE
8
BLACK
6
CONTINUOUS
10
177.275
20
-66.3543
11
177.369
21
-66.0423
0
LINE
8
BLACK
6
CONTINUOUS
10
177.369
20
-66.0423
11
177.498
21
-65.7434
0
LINE
8
BLACK
6
CONTINUOUS
10
177.498
20
-65.7434
11
177.661
21
-65.4614
0
LINE
8
BLACK
6
CONTINUOUS
10
177.661
20
-65.4614
11
177.855
21
-65.2002
0
LINE
8
BLACK
6
CONTINUOUS
10
177.855
20
-65.2002
11
178.079
21
-64.9634
0
LINE
8
BLACK
6
CONTINUOUS
10
178.079
20
-64.9634
11
178.328
21
-64.7541
0
LINE
8
BLACK
6
CONTINUOUS
10
178.328
20
-64.7541
11
178.6
21
-64.5751
0
LINE
8
BLACK
6
CONTINUOUS
10
178.6
20
-64.5751
11
178.891
21
-64.429
0
LINE
8
BLACK
6
CONTINUOUS
10
178.891
20
-64.429
11
179.197
21
-64.3176
0
LINE
8
BLACK
6
CONTINUOUS
10
179.197
20
-64.3176
11
179.514
21
-64.2425
0
LINE
8
BLACK
6
CONTINUOUS
10
179.514
20
-64.2425
11
179.837
21
-64.2047
0
LINE
8
BLACK
6
CONTINUOUS
10
179.837
20
-64.2047
11
180.163
21
-64.2047
0
LINE
8
BLACK
6
CONTINUOUS
10
180.163
20
-64.2047
11
180.486
21
-64.2425
0
LINE
8
BLACK
6
CONTINUOUS
10
72.325
20
-47.9
11
71.675
21
-47.9
0
LINE
8
BLACK
6
CONTINUOUS
10
71.675
20
-47.9
11
71.675
21
-47.5
0
LINE
8
BLACK
6
CONTINUOUS
10
71.675
20
-47.5
11
72.325
21
-47.5
0
LINE
8
BLACK
6
CONTINUOUS
10
72.325
20
-47.5
11
72.325
21
-47.9
0
LINE
8
BLACK
6
CONTINUOUS
10
74.225
20
-47.9
11
73.575
21
-47.9
0
LINE
8
BLACK
6
CONTINUOUS
10
73.575
20
-47.9
11
73.575
21
-47.5
0
LINE
8
BLACK
6
CONTINUOUS
10
73.575
20
-47.5
11
74.225
21
-47.5
0
LINE
8
BLACK
6
CONTINUOUS
10
74.225
20
-47.5
11
74.225
21
-47.9
0
LINE
8
BLACK
6
CONTINUOUS
10
74.225
20
-47.25
11
73.575
21
-47.25
0
LINE
8
BLACK
6
CONTINUOUS
10
73.575
20
-47.25
11
73.575
21
-46.85
0
LINE
8
BLACK
6
CONTINUOUS
10
73.575
20
-46.85
11
74.225
21
-46.85
0
LINE
8
BLACK
6
CONTINUOUS
10
74.225
20
-46.85
11
74.225
21
-47.25
0
LINE
8
BLACK
6
CONTINUOUS
10
72.325
20
-46.6
11
71.675
21
-46.6
0
LINE
8
BLACK
6
CONTINUOUS
10
71.675
20
-46.6
11
71.675
21
-46.2
0
LINE
8
BLACK
6
CONTINUOUS
10
71.675
20
-46.2
11
72.325
21
-46.2
0
LINE
8
BLACK
6
CONTINUOUS
10
72.325
20
-46.2
11
72.325
21
-46.6
0
LINE
8
BLACK
6
CONTINUOUS
10
74.225
20
-46.6
11
73.575
21
-46.6
0
LINE
8
BLACK
6
CONTINUOUS
10
73.575
20
-46.6
11
73.575
21
-46.2
0
LINE
8
BLACK
6
CONTINUOUS
10
73.575
20
-46.2
11
74.225
21
-46.2
0
LINE
8
BLACK
6
CONTINUOUS
10
74.225
20
-46.2
11
74.225
21
-46.6
  0
ENDSEC
  0
EOF
