  0
SECTION
  2
HEADER
  9
$ANGBASE
  50
0.0
  9
$ANGDIR
  70
1
  9
$MEASUREMENT
  70
1
  0
ENDSEC
  0
SECTION
  2
TABLES
  0
TABLE
  2
LTYPE
  70
4
  0
LTYPE
  5
40F
  2
CONTINUOUS
  70
0
  3
Solid line
  72
65
  73
0
  40
0.0
  0
LTYPE
  5
410
  2
DASHDOT
 70
0
  3
Dash Dot ____ _ ____ _
 72
65
 73
4
 40
2.0
 49
1.25
 49
-0.25
 49
0.25
 49
-0.25
  0
LTYPE
  5
411
  2
DASHED
 70
0
  3
Dashed __ __ __ __ __
 72
65
 73
2
 40
0.75
 49
0.5
 49
-0.25
  0
LTYPE
  5
43B
  2
DOTTED
 70
0
  3
Dotted .  .  .  .
 72
65
 73
2
 40
0.2
 49
0.0
 49
-0.2
  0
ENDTAB
  0
TABLE
  2
STYLE
  70
4
  0
STYLE
  2
KICAD
  70
0
  40
0
  41
1
  42
1
  50
0
  71
0
  3
isocp.shx
  0
STYLE
  2
KICADB
  70
0
  40
0
  41
1
  42
1
  50
0
  71
0
  3
isocp.shx
  0
STYLE
  2
KICADI
  70
0
  40
0
  41
1
  42
1
  50
15
  71
0
  3
isocp.shx
  0
STYLE
  2
KICADBI
  70
0
  40
0
  41
1
  42
1
  50
15
  71
0
  3
isocp.shx
  0
ENDTAB
  0
TABLE
  2
LAYER
  70
1
  0
LAYER
  2
BLACK
  70
0
  62
7
  6
CONTINUOUS
  0
ENDTAB
  0
ENDSEC
  0
SECTION
  2
ENTITIES
0
LINE
8
BLACK
6
CONTINUOUS
10
26.8
20
-121.9
11
25.25
21
-121.9
0
LINE
8
BLACK
6
CONTINUOUS
10
25.25
20
-121.9
11
25.25
21
-120.6
0
LINE
8
BLACK
6
CONTINUOUS
10
25.25
20
-120.6
11
26.8
21
-120.6
0
LINE
8
BLACK
6
CONTINUOUS
10
26.8
20
-120.6
11
26.8
21
-121.9
0
LINE
8
BLACK
6
CONTINUOUS
10
34.75
20
-121.9
11
33.2
21
-121.9
0
LINE
8
BLACK
6
CONTINUOUS
10
33.2
20
-121.9
11
33.2
21
-120.6
0
LINE
8
BLACK
6
CONTINUOUS
10
33.2
20
-120.6
11
34.75
21
-120.6
0
LINE
8
BLACK
6
CONTINUOUS
10
34.75
20
-120.6
11
34.75
21
-121.9
0
LINE
8
BLACK
6
CONTINUOUS
10
101.8
20
-121.9
11
100.25
21
-121.9
0
LINE
8
BLACK
6
CONTINUOUS
10
100.25
20
-121.9
11
100.25
21
-120.6
0
LINE
8
BLACK
6
CONTINUOUS
10
100.25
20
-120.6
11
101.8
21
-120.6
0
LINE
8
BLACK
6
CONTINUOUS
10
101.8
20
-120.6
11
101.8
21
-121.9
0
LINE
8
BLACK
6
CONTINUOUS
10
109.75
20
-121.9
11
108.2
21
-121.9
0
LINE
8
BLACK
6
CONTINUOUS
10
108.2
20
-121.9
11
108.2
21
-120.6
0
LINE
8
BLACK
6
CONTINUOUS
10
108.2
20
-120.6
11
109.75
21
-120.6
0
LINE
8
BLACK
6
CONTINUOUS
10
109.75
20
-120.6
11
109.75
21
-121.9
0
LINE
8
BLACK
6
CONTINUOUS
10
176.8
20
-121.9
11
175.25
21
-121.9
0
LINE
8
BLACK
6
CONTINUOUS
10
175.25
20
-121.9
11
175.25
21
-120.6
0
LINE
8
BLACK
6
CONTINUOUS
10
175.25
20
-120.6
11
176.8
21
-120.6
0
LINE
8
BLACK
6
CONTINUOUS
10
176.8
20
-120.6
11
176.8
21
-121.9
0
LINE
8
BLACK
6
CONTINUOUS
10
184.75
20
-121.9
11
183.2
21
-121.9
0
LINE
8
BLACK
6
CONTINUOUS
10
183.2
20
-121.9
11
183.2
21
-120.6
0
LINE
8
BLACK
6
CONTINUOUS
10
183.2
20
-120.6
11
184.75
21
-120.6
0
LINE
8
BLACK
6
CONTINUOUS
10
184.75
20
-120.6
11
184.75
21
-121.9
0
LINE
8
BLACK
6
CONTINUOUS
10
30.4862
20
-116.243
11
30.803
21
-116.318
0
LINE
8
BLACK
6
CONTINUOUS
10
30.803
20
-116.318
11
31.109
21
-116.429
0
LINE
8
BLACK
6
CONTINUOUS
10
31.109
20
-116.429
11
31.4
21
-116.575
0
LINE
8
BLACK
6
CONTINUOUS
10
31.4
20
-116.575
11
31.672
21
-116.754
0
LINE
8
BLACK
6
CONTINUOUS
10
31.672
20
-116.754
11
31.9215
21
-116.963
0
LINE
8
BLACK
6
CONTINUOUS
10
31.9215
20
-116.963
11
32.1449
21
-117.2
0
LINE
8
BLACK
6
CONTINUOUS
10
32.1449
20
-117.2
11
32.3394
21
-117.461
0
LINE
8
BLACK
6
CONTINUOUS
10
32.3394
20
-117.461
11
32.5022
21
-117.743
0
LINE
8
BLACK
6
CONTINUOUS
10
32.5022
20
-117.743
11
32.6311
21
-118.042
0
LINE
8
BLACK
6
CONTINUOUS
10
32.6311
20
-118.042
11
32.7245
21
-118.354
0
LINE
8
BLACK
6
CONTINUOUS
10
32.7245
20
-118.354
11
32.7811
21
-118.675
0
LINE
8
BLACK
6
CONTINUOUS
10
32.7811
20
-118.675
11
32.8
21
-119
0
LINE
8
BLACK
6
CONTINUOUS
10
32.8
20
-119
11
32.7811
21
-119.325
0
LINE
8
BLACK
6
CONTINUOUS
10
32.7811
20
-119.325
11
32.7245
21
-119.646
0
LINE
8
BLACK
6
CONTINUOUS
10
32.7245
20
-119.646
11
32.6311
21
-119.958
0
LINE
8
BLACK
6
CONTINUOUS
10
32.6311
20
-119.958
11
32.5022
21
-120.257
0
LINE
8
BLACK
6
CONTINUOUS
10
32.5022
20
-120.257
11
32.3394
21
-120.539
0
LINE
8
BLACK
6
CONTINUOUS
10
32.3394
20
-120.539
11
32.1449
21
-120.8
0
LINE
8
BLACK
6
CONTINUOUS
10
32.1449
20
-120.8
11
31.9215
21
-121.037
0
LINE
8
BLACK
6
CONTINUOUS
10
31.9215
20
-121.037
11
31.672
21
-121.246
0
LINE
8
BLACK
6
CONTINUOUS
10
31.672
20
-121.246
11
31.4
21
-121.425
0
LINE
8
BLACK
6
CONTINUOUS
10
31.4
20
-121.425
11
31.109
21
-121.571
0
LINE
8
BLACK
6
CONTINUOUS
10
31.109
20
-121.571
11
30.803
21
-121.682
0
LINE
8
BLACK
6
CONTINUOUS
10
30.803
20
-121.682
11
30.4862
21
-121.757
0
LINE
8
BLACK
6
CONTINUOUS
10
30.4862
20
-121.757
11
30.1628
21
-121.795
0
LINE
8
BLACK
6
CONTINUOUS
10
30.1628
20
-121.795
11
29.8372
21
-121.795
0
LINE
8
BLACK
6
CONTINUOUS
10
29.8372
20
-121.795
11
29.5138
21
-121.757
0
LINE
8
BLACK
6
CONTINUOUS
10
29.5138
20
-121.757
11
29.197
21
-121.682
0
LINE
8
BLACK
6
CONTINUOUS
10
29.197
20
-121.682
11
28.891
21
-121.571
0
LINE
8
BLACK
6
CONTINUOUS
10
28.891
20
-121.571
11
28.6
21
-121.425
0
LINE
8
BLACK
6
CONTINUOUS
10
28.6
20
-121.425
11
28.328
21
-121.246
0
LINE
8
BLACK
6
CONTINUOUS
10
28.328
20
-121.246
11
28.0785
21
-121.037
0
LINE
8
BLACK
6
CONTINUOUS
10
28.0785
20
-121.037
11
27.8551
21
-120.8
0
LINE
8
BLACK
6
CONTINUOUS
10
27.8551
20
-120.8
11
27.6606
21
-120.539
0
LINE
8
BLACK
6
CONTINUOUS
10
27.6606
20
-120.539
11
27.4978
21
-120.257
0
LINE
8
BLACK
6
CONTINUOUS
10
27.4978
20
-120.257
11
27.3689
21
-119.958
0
LINE
8
BLACK
6
CONTINUOUS
10
27.3689
20
-119.958
11
27.2755
21
-119.646
0
LINE
8
BLACK
6
CONTINUOUS
10
27.2755
20
-119.646
11
27.2189
21
-119.325
0
LINE
8
BLACK
6
CONTINUOUS
10
27.2189
20
-119.325
11
27.2
21
-119
0
LINE
8
BLACK
6
CONTINUOUS
10
27.2
20
-119
11
27.2189
21
-118.675
0
LINE
8
BLACK
6
CONTINUOUS
10
27.2189
20
-118.675
11
27.2755
21
-118.354
0
LINE
8
BLACK
6
CONTINUOUS
10
27.2755
20
-118.354
11
27.3689
21
-118.042
0
LINE
8
BLACK
6
CONTINUOUS
10
27.3689
20
-118.042
11
27.4978
21
-117.743
0
LINE
8
BLACK
6
CONTINUOUS
10
27.4978
20
-117.743
11
27.6606
21
-117.461
0
LINE
8
BLACK
6
CONTINUOUS
10
27.6606
20
-117.461
11
27.8551
21
-117.2
0
LINE
8
BLACK
6
CONTINUOUS
10
27.8551
20
-117.2
11
28.0785
21
-116.963
0
LINE
8
BLACK
6
CONTINUOUS
10
28.0785
20
-116.963
11
28.328
21
-116.754
0
LINE
8
BLACK
6
CONTINUOUS
10
28.328
20
-116.754
11
28.6
21
-116.575
0
LINE
8
BLACK
6
CONTINUOUS
10
28.6
20
-116.575
11
28.891
21
-116.429
0
LINE
8
BLACK
6
CONTINUOUS
10
28.891
20
-116.429
11
29.197
21
-116.318
0
LINE
8
BLACK
6
CONTINUOUS
10
29.197
20
-116.318
11
29.5138
21
-116.243
0
LINE
8
BLACK
6
CONTINUOUS
10
29.5138
20
-116.243
11
29.8372
21
-116.205
0
LINE
8
BLACK
6
CONTINUOUS
10
29.8372
20
-116.205
11
30.1628
21
-116.205
0
LINE
8
BLACK
6
CONTINUOUS
10
30.1628
20
-116.205
11
30.4862
21
-116.243
0
LINE
8
BLACK
6
CONTINUOUS
10
105.486
20
-116.243
11
105.803
21
-116.318
0
LINE
8
BLACK
6
CONTINUOUS
10
105.803
20
-116.318
11
106.109
21
-116.429
0
LINE
8
BLACK
6
CONTINUOUS
10
106.109
20
-116.429
11
106.4
21
-116.575
0
LINE
8
BLACK
6
CONTINUOUS
10
106.4
20
-116.575
11
106.672
21
-116.754
0
LINE
8
BLACK
6
CONTINUOUS
10
106.672
20
-116.754
11
106.921
21
-116.963
0
LINE
8
BLACK
6
CONTINUOUS
10
106.921
20
-116.963
11
107.145
21
-117.2
0
LINE
8
BLACK
6
CONTINUOUS
10
107.145
20
-117.2
11
107.339
21
-117.461
0
LINE
8
BLACK
6
CONTINUOUS
10
107.339
20
-117.461
11
107.502
21
-117.743
0
LINE
8
BLACK
6
CONTINUOUS
10
107.502
20
-117.743
11
107.631
21
-118.042
0
LINE
8
BLACK
6
CONTINUOUS
10
107.631
20
-118.042
11
107.725
21
-118.354
0
LINE
8
BLACK
6
CONTINUOUS
10
107.725
20
-118.354
11
107.781
21
-118.675
0
LINE
8
BLACK
6
CONTINUOUS
10
107.781
20
-118.675
11
107.8
21
-119
0
LINE
8
BLACK
6
CONTINUOUS
10
107.8
20
-119
11
107.781
21
-119.325
0
LINE
8
BLACK
6
CONTINUOUS
10
107.781
20
-119.325
11
107.725
21
-119.646
0
LINE
8
BLACK
6
CONTINUOUS
10
107.725
20
-119.646
11
107.631
21
-119.958
0
LINE
8
BLACK
6
CONTINUOUS
10
107.631
20
-119.958
11
107.502
21
-120.257
0
LINE
8
BLACK
6
CONTINUOUS
10
107.502
20
-120.257
11
107.339
21
-120.539
0
LINE
8
BLACK
6
CONTINUOUS
10
107.339
20
-120.539
11
107.145
21
-120.8
0
LINE
8
BLACK
6
CONTINUOUS
10
107.145
20
-120.8
11
106.921
21
-121.037
0
LINE
8
BLACK
6
CONTINUOUS
10
106.921
20
-121.037
11
106.672
21
-121.246
0
LINE
8
BLACK
6
CONTINUOUS
10
106.672
20
-121.246
11
106.4
21
-121.425
0
LINE
8
BLACK
6
CONTINUOUS
10
106.4
20
-121.425
11
106.109
21
-121.571
0
LINE
8
BLACK
6
CONTINUOUS
10
106.109
20
-121.571
11
105.803
21
-121.682
0
LINE
8
BLACK
6
CONTINUOUS
10
105.803
20
-121.682
11
105.486
21
-121.757
0
LINE
8
BLACK
6
CONTINUOUS
10
105.486
20
-121.757
11
105.163
21
-121.795
0
LINE
8
BLACK
6
CONTINUOUS
10
105.163
20
-121.795
11
104.837
21
-121.795
0
LINE
8
BLACK
6
CONTINUOUS
10
104.837
20
-121.795
11
104.514
21
-121.757
0
LINE
8
BLACK
6
CONTINUOUS
10
104.514
20
-121.757
11
104.197
21
-121.682
0
LINE
8
BLACK
6
CONTINUOUS
10
104.197
20
-121.682
11
103.891
21
-121.571
0
LINE
8
BLACK
6
CONTINUOUS
10
103.891
20
-121.571
11
103.6
21
-121.425
0
LINE
8
BLACK
6
CONTINUOUS
10
103.6
20
-121.425
11
103.328
21
-121.246
0
LINE
8
BLACK
6
CONTINUOUS
10
103.328
20
-121.246
11
103.079
21
-121.037
0
LINE
8
BLACK
6
CONTINUOUS
10
103.079
20
-121.037
11
102.855
21
-120.8
0
LINE
8
BLACK
6
CONTINUOUS
10
102.855
20
-120.8
11
102.661
21
-120.539
0
LINE
8
BLACK
6
CONTINUOUS
10
102.661
20
-120.539
11
102.498
21
-120.257
0
LINE
8
BLACK
6
CONTINUOUS
10
102.498
20
-120.257
11
102.369
21
-119.958
0
LINE
8
BLACK
6
CONTINUOUS
10
102.369
20
-119.958
11
102.275
21
-119.646
0
LINE
8
BLACK
6
CONTINUOUS
10
102.275
20
-119.646
11
102.219
21
-119.325
0
LINE
8
BLACK
6
CONTINUOUS
10
102.219
20
-119.325
11
102.2
21
-119
0
LINE
8
BLACK
6
CONTINUOUS
10
102.2
20
-119
11
102.219
21
-118.675
0
LINE
8
BLACK
6
CONTINUOUS
10
102.219
20
-118.675
11
102.275
21
-118.354
0
LINE
8
BLACK
6
CONTINUOUS
10
102.275
20
-118.354
11
102.369
21
-118.042
0
LINE
8
BLACK
6
CONTINUOUS
10
102.369
20
-118.042
11
102.498
21
-117.743
0
LINE
8
BLACK
6
CONTINUOUS
10
102.498
20
-117.743
11
102.661
21
-117.461
0
LINE
8
BLACK
6
CONTINUOUS
10
102.661
20
-117.461
11
102.855
21
-117.2
0
LINE
8
BLACK
6
CONTINUOUS
10
102.855
20
-117.2
11
103.079
21
-116.963
0
LINE
8
BLACK
6
CONTINUOUS
10
103.079
20
-116.963
11
103.328
21
-116.754
0
LINE
8
BLACK
6
CONTINUOUS
10
103.328
20
-116.754
11
103.6
21
-116.575
0
LINE
8
BLACK
6
CONTINUOUS
10
103.6
20
-116.575
11
103.891
21
-116.429
0
LINE
8
BLACK
6
CONTINUOUS
10
103.891
20
-116.429
11
104.197
21
-116.318
0
LINE
8
BLACK
6
CONTINUOUS
10
104.197
20
-116.318
11
104.514
21
-116.243
0
LINE
8
BLACK
6
CONTINUOUS
10
104.514
20
-116.243
11
104.837
21
-116.205
0
LINE
8
BLACK
6
CONTINUOUS
10
104.837
20
-116.205
11
105.163
21
-116.205
0
LINE
8
BLACK
6
CONTINUOUS
10
105.163
20
-116.205
11
105.486
21
-116.243
0
LINE
8
BLACK
6
CONTINUOUS
10
180.486
20
-116.243
11
180.803
21
-116.318
0
LINE
8
BLACK
6
CONTINUOUS
10
180.803
20
-116.318
11
181.109
21
-116.429
0
LINE
8
BLACK
6
CONTINUOUS
10
181.109
20
-116.429
11
181.4
21
-116.575
0
LINE
8
BLACK
6
CONTINUOUS
10
181.4
20
-116.575
11
181.672
21
-116.754
0
LINE
8
BLACK
6
CONTINUOUS
10
181.672
20
-116.754
11
181.921
21
-116.963
0
LINE
8
BLACK
6
CONTINUOUS
10
181.921
20
-116.963
11
182.145
21
-117.2
0
LINE
8
BLACK
6
CONTINUOUS
10
182.145
20
-117.2
11
182.339
21
-117.461
0
LINE
8
BLACK
6
CONTINUOUS
10
182.339
20
-117.461
11
182.502
21
-117.743
0
LINE
8
BLACK
6
CONTINUOUS
10
182.502
20
-117.743
11
182.631
21
-118.042
0
LINE
8
BLACK
6
CONTINUOUS
10
182.631
20
-118.042
11
182.725
21
-118.354
0
LINE
8
BLACK
6
CONTINUOUS
10
182.725
20
-118.354
11
182.781
21
-118.675
0
LINE
8
BLACK
6
CONTINUOUS
10
182.781
20
-118.675
11
182.8
21
-119
0
LINE
8
BLACK
6
CONTINUOUS
10
182.8
20
-119
11
182.781
21
-119.325
0
LINE
8
BLACK
6
CONTINUOUS
10
182.781
20
-119.325
11
182.725
21
-119.646
0
LINE
8
BLACK
6
CONTINUOUS
10
182.725
20
-119.646
11
182.631
21
-119.958
0
LINE
8
BLACK
6
CONTINUOUS
10
182.631
20
-119.958
11
182.502
21
-120.257
0
LINE
8
BLACK
6
CONTINUOUS
10
182.502
20
-120.257
11
182.339
21
-120.539
0
LINE
8
BLACK
6
CONTINUOUS
10
182.339
20
-120.539
11
182.145
21
-120.8
0
LINE
8
BLACK
6
CONTINUOUS
10
182.145
20
-120.8
11
181.921
21
-121.037
0
LINE
8
BLACK
6
CONTINUOUS
10
181.921
20
-121.037
11
181.672
21
-121.246
0
LINE
8
BLACK
6
CONTINUOUS
10
181.672
20
-121.246
11
181.4
21
-121.425
0
LINE
8
BLACK
6
CONTINUOUS
10
181.4
20
-121.425
11
181.109
21
-121.571
0
LINE
8
BLACK
6
CONTINUOUS
10
181.109
20
-121.571
11
180.803
21
-121.682
0
LINE
8
BLACK
6
CONTINUOUS
10
180.803
20
-121.682
11
180.486
21
-121.757
0
LINE
8
BLACK
6
CONTINUOUS
10
180.486
20
-121.757
11
180.163
21
-121.795
0
LINE
8
BLACK
6
CONTINUOUS
10
180.163
20
-121.795
11
179.837
21
-121.795
0
LINE
8
BLACK
6
CONTINUOUS
10
179.837
20
-121.795
11
179.514
21
-121.757
0
LINE
8
BLACK
6
CONTINUOUS
10
179.514
20
-121.757
11
179.197
21
-121.682
0
LINE
8
BLACK
6
CONTINUOUS
10
179.197
20
-121.682
11
178.891
21
-121.571
0
LINE
8
BLACK
6
CONTINUOUS
10
178.891
20
-121.571
11
178.6
21
-121.425
0
LINE
8
BLACK
6
CONTINUOUS
10
178.6
20
-121.425
11
178.328
21
-121.246
0
LINE
8
BLACK
6
CONTINUOUS
10
178.328
20
-121.246
11
178.079
21
-121.037
0
LINE
8
BLACK
6
CONTINUOUS
10
178.079
20
-121.037
11
177.855
21
-120.8
0
LINE
8
BLACK
6
CONTINUOUS
10
177.855
20
-120.8
11
177.661
21
-120.539
0
LINE
8
BLACK
6
CONTINUOUS
10
177.661
20
-120.539
11
177.498
21
-120.257
0
LINE
8
BLACK
6
CONTINUOUS
10
177.498
20
-120.257
11
177.369
21
-119.958
0
LINE
8
BLACK
6
CONTINUOUS
10
177.369
20
-119.958
11
177.275
21
-119.646
0
LINE
8
BLACK
6
CONTINUOUS
10
177.275
20
-119.646
11
177.219
21
-119.325
0
LINE
8
BLACK
6
CONTINUOUS
10
177.219
20
-119.325
11
177.2
21
-119
0
LINE
8
BLACK
6
CONTINUOUS
10
177.2
20
-119
11
177.219
21
-118.675
0
LINE
8
BLACK
6
CONTINUOUS
10
177.219
20
-118.675
11
177.275
21
-118.354
0
LINE
8
BLACK
6
CONTINUOUS
10
177.275
20
-118.354
11
177.369
21
-118.042
0
LINE
8
BLACK
6
CONTINUOUS
10
177.369
20
-118.042
11
177.498
21
-117.743
0
LINE
8
BLACK
6
CONTINUOUS
10
177.498
20
-117.743
11
177.661
21
-117.461
0
LINE
8
BLACK
6
CONTINUOUS
10
177.661
20
-117.461
11
177.855
21
-117.2
0
LINE
8
BLACK
6
CONTINUOUS
10
177.855
20
-117.2
11
178.079
21
-116.963
0
LINE
8
BLACK
6
CONTINUOUS
10
178.079
20
-116.963
11
178.328
21
-116.754
0
LINE
8
BLACK
6
CONTINUOUS
10
178.328
20
-116.754
11
178.6
21
-116.575
0
LINE
8
BLACK
6
CONTINUOUS
10
178.6
20
-116.575
11
178.891
21
-116.429
0
LINE
8
BLACK
6
CONTINUOUS
10
178.891
20
-116.429
11
179.197
21
-116.318
0
LINE
8
BLACK
6
CONTINUOUS
10
179.197
20
-116.318
11
179.514
21
-116.243
0
LINE
8
BLACK
6
CONTINUOUS
10
179.514
20
-116.243
11
179.837
21
-116.205
0
LINE
8
BLACK
6
CONTINUOUS
10
179.837
20
-116.205
11
180.163
21
-116.205
0
LINE
8
BLACK
6
CONTINUOUS
10
180.163
20
-116.205
11
180.486
21
-116.243
0
LINE
8
BLACK
6
CONTINUOUS
10
189.42
20
-119.279
11
189.532
21
-119.334
0
LINE
8
BLACK
6
CONTINUOUS
10
189.532
20
-119.334
11
189.621
21
-119.423
0
LINE
8
BLACK
6
CONTINUOUS
10
189.621
20
-119.423
11
189.676
21
-119.535
0
LINE
8
BLACK
6
CONTINUOUS
10
189.676
20
-119.535
11
189.692
21
-119.644
0
LINE
8
BLACK
6
CONTINUOUS
10
189.692
20
-119.644
11
189.692
21
-121.168
0
LINE
8
BLACK
6
CONTINUOUS
10
189.692
20
-121.168
11
189.676
21
-121.277
0
LINE
8
BLACK
6
CONTINUOUS
10
189.676
20
-121.277
11
189.621
21
-121.389
0
LINE
8
BLACK
6
CONTINUOUS
10
189.621
20
-121.389
11
189.532
21
-121.478
0
LINE
8
BLACK
6
CONTINUOUS
10
189.532
20
-121.478
11
189.42
21
-121.533
0
LINE
8
BLACK
6
CONTINUOUS
10
189.42
20
-121.533
11
189.311
21
-121.549
0
LINE
8
BLACK
6
CONTINUOUS
10
189.311
20
-121.549
11
188.549
21
-121.549
0
LINE
8
BLACK
6
CONTINUOUS
10
188.549
20
-121.549
11
188.44
21
-121.533
0
LINE
8
BLACK
6
CONTINUOUS
10
188.44
20
-121.533
11
188.328
21
-121.478
0
LINE
8
BLACK
6
CONTINUOUS
10
188.328
20
-121.478
11
188.239
21
-121.389
0
LINE
8
BLACK
6
CONTINUOUS
10
188.239
20
-121.389
11
188.184
21
-121.277
0
LINE
8
BLACK
6
CONTINUOUS
10
188.184
20
-121.277
11
188.168
21
-121.168
0
LINE
8
BLACK
6
CONTINUOUS
10
188.168
20
-121.168
11
188.168
21
-119.644
0
LINE
8
BLACK
6
CONTINUOUS
10
188.168
20
-119.644
11
188.184
21
-119.535
0
LINE
8
BLACK
6
CONTINUOUS
10
188.184
20
-119.535
11
188.239
21
-119.423
0
LINE
8
BLACK
6
CONTINUOUS
10
188.239
20
-119.423
11
188.328
21
-119.334
0
LINE
8
BLACK
6
CONTINUOUS
10
188.328
20
-119.334
11
188.44
21
-119.279
0
LINE
8
BLACK
6
CONTINUOUS
10
188.44
20
-119.279
11
188.549
21
-119.263
0
LINE
8
BLACK
6
CONTINUOUS
10
188.549
20
-119.263
11
189.311
21
-119.263
0
LINE
8
BLACK
6
CONTINUOUS
10
189.311
20
-119.263
11
189.42
21
-119.279
0
LINE
8
BLACK
6
CONTINUOUS
10
189.42
20
-116.679
11
189.532
21
-116.734
0
LINE
8
BLACK
6
CONTINUOUS
10
189.532
20
-116.734
11
189.621
21
-116.823
0
LINE
8
BLACK
6
CONTINUOUS
10
189.621
20
-116.823
11
189.676
21
-116.935
0
LINE
8
BLACK
6
CONTINUOUS
10
189.676
20
-116.935
11
189.692
21
-117.044
0
LINE
8
BLACK
6
CONTINUOUS
10
189.692
20
-117.044
11
189.692
21
-118.568
0
LINE
8
BLACK
6
CONTINUOUS
10
189.692
20
-118.568
11
189.676
21
-118.677
0
LINE
8
BLACK
6
CONTINUOUS
10
189.676
20
-118.677
11
189.621
21
-118.789
0
LINE
8
BLACK
6
CONTINUOUS
10
189.621
20
-118.789
11
189.532
21
-118.878
0
LINE
8
BLACK
6
CONTINUOUS
10
189.532
20
-118.878
11
189.42
21
-118.933
0
LINE
8
BLACK
6
CONTINUOUS
10
189.42
20
-118.933
11
189.311
21
-118.949
0
LINE
8
BLACK
6
CONTINUOUS
10
189.311
20
-118.949
11
188.549
21
-118.949
0
LINE
8
BLACK
6
CONTINUOUS
10
188.549
20
-118.949
11
188.44
21
-118.933
0
LINE
8
BLACK
6
CONTINUOUS
10
188.44
20
-118.933
11
188.328
21
-118.878
0
LINE
8
BLACK
6
CONTINUOUS
10
188.328
20
-118.878
11
188.239
21
-118.789
0
LINE
8
BLACK
6
CONTINUOUS
10
188.239
20
-118.789
11
188.184
21
-118.677
0
LINE
8
BLACK
6
CONTINUOUS
10
188.184
20
-118.677
11
188.168
21
-118.568
0
LINE
8
BLACK
6
CONTINUOUS
10
188.168
20
-118.568
11
188.168
21
-117.044
0
LINE
8
BLACK
6
CONTINUOUS
10
188.168
20
-117.044
11
188.184
21
-116.935
0
LINE
8
BLACK
6
CONTINUOUS
10
188.184
20
-116.935
11
188.239
21
-116.823
0
LINE
8
BLACK
6
CONTINUOUS
10
188.239
20
-116.823
11
188.328
21
-116.734
0
LINE
8
BLACK
6
CONTINUOUS
10
188.328
20
-116.734
11
188.44
21
-116.679
0
LINE
8
BLACK
6
CONTINUOUS
10
188.44
20
-116.679
11
188.549
21
-116.663
0
LINE
8
BLACK
6
CONTINUOUS
10
188.549
20
-116.663
11
189.311
21
-116.663
0
LINE
8
BLACK
6
CONTINUOUS
10
189.311
20
-116.663
11
189.42
21
-116.679
0
LINE
8
BLACK
6
CONTINUOUS
10
26.8
20
-117.4
11
25.25
21
-117.4
0
LINE
8
BLACK
6
CONTINUOUS
10
25.25
20
-117.4
11
25.25
21
-116.1
0
LINE
8
BLACK
6
CONTINUOUS
10
25.25
20
-116.1
11
26.8
21
-116.1
0
LINE
8
BLACK
6
CONTINUOUS
10
26.8
20
-116.1
11
26.8
21
-117.4
0
LINE
8
BLACK
6
CONTINUOUS
10
34.75
20
-117.4
11
33.2
21
-117.4
0
LINE
8
BLACK
6
CONTINUOUS
10
33.2
20
-117.4
11
33.2
21
-116.1
0
LINE
8
BLACK
6
CONTINUOUS
10
33.2
20
-116.1
11
34.75
21
-116.1
0
LINE
8
BLACK
6
CONTINUOUS
10
34.75
20
-116.1
11
34.75
21
-117.4
0
LINE
8
BLACK
6
CONTINUOUS
10
101.8
20
-117.4
11
100.25
21
-117.4
0
LINE
8
BLACK
6
CONTINUOUS
10
100.25
20
-117.4
11
100.25
21
-116.1
0
LINE
8
BLACK
6
CONTINUOUS
10
100.25
20
-116.1
11
101.8
21
-116.1
0
LINE
8
BLACK
6
CONTINUOUS
10
101.8
20
-116.1
11
101.8
21
-117.4
0
LINE
8
BLACK
6
CONTINUOUS
10
109.75
20
-117.4
11
108.2
21
-117.4
0
LINE
8
BLACK
6
CONTINUOUS
10
108.2
20
-117.4
11
108.2
21
-116.1
0
LINE
8
BLACK
6
CONTINUOUS
10
108.2
20
-116.1
11
109.75
21
-116.1
0
LINE
8
BLACK
6
CONTINUOUS
10
109.75
20
-116.1
11
109.75
21
-117.4
0
LINE
8
BLACK
6
CONTINUOUS
10
176.8
20
-117.4
11
175.25
21
-117.4
0
LINE
8
BLACK
6
CONTINUOUS
10
175.25
20
-117.4
11
175.25
21
-116.1
0
LINE
8
BLACK
6
CONTINUOUS
10
175.25
20
-116.1
11
176.8
21
-116.1
0
LINE
8
BLACK
6
CONTINUOUS
10
176.8
20
-116.1
11
176.8
21
-117.4
0
LINE
8
BLACK
6
CONTINUOUS
10
184.75
20
-117.4
11
183.2
21
-117.4
0
LINE
8
BLACK
6
CONTINUOUS
10
183.2
20
-117.4
11
183.2
21
-116.1
0
LINE
8
BLACK
6
CONTINUOUS
10
183.2
20
-116.1
11
184.75
21
-116.1
0
LINE
8
BLACK
6
CONTINUOUS
10
184.75
20
-116.1
11
184.75
21
-117.4
0
LINE
8
BLACK
6
CONTINUOUS
10
95.5407
20
-112.454
11
95.6534
21
-112.509
0
LINE
8
BLACK
6
CONTINUOUS
10
95.6534
20
-112.509
11
95.7421
21
-112.598
0
LINE
8
BLACK
6
CONTINUOUS
10
95.7421
20
-112.598
11
95.7972
21
-112.71
0
LINE
8
BLACK
6
CONTINUOUS
10
95.7972
20
-112.71
11
95.813
21
-112.819
0
LINE
8
BLACK
6
CONTINUOUS
10
95.813
20
-112.819
11
95.813
21
-113.581
0
LINE
8
BLACK
6
CONTINUOUS
10
95.813
20
-113.581
11
95.7972
21
-113.69
0
LINE
8
BLACK
6
CONTINUOUS
10
95.7972
20
-113.69
11
95.7421
21
-113.802
0
LINE
8
BLACK
6
CONTINUOUS
10
95.7421
20
-113.802
11
95.6534
21
-113.891
0
LINE
8
BLACK
6
CONTINUOUS
10
95.6534
20
-113.891
11
95.5407
21
-113.946
0
LINE
8
BLACK
6
CONTINUOUS
10
95.5407
20
-113.946
11
95.432
21
-113.962
0
LINE
8
BLACK
6
CONTINUOUS
10
95.432
20
-113.962
11
93.908
21
-113.962
0
LINE
8
BLACK
6
CONTINUOUS
10
93.908
20
-113.962
11
93.7993
21
-113.946
0
LINE
8
BLACK
6
CONTINUOUS
10
93.7993
20
-113.946
11
93.6866
21
-113.891
0
LINE
8
BLACK
6
CONTINUOUS
10
93.6866
20
-113.891
11
93.5979
21
-113.802
0
LINE
8
BLACK
6
CONTINUOUS
10
93.5979
20
-113.802
11
93.5428
21
-113.69
0
LINE
8
BLACK
6
CONTINUOUS
10
93.5428
20
-113.69
11
93.527
21
-113.581
0
LINE
8
BLACK
6
CONTINUOUS
10
93.527
20
-113.581
11
93.527
21
-112.819
0
LINE
8
BLACK
6
CONTINUOUS
10
93.527
20
-112.819
11
93.5428
21
-112.71
0
LINE
8
BLACK
6
CONTINUOUS
10
93.5428
20
-112.71
11
93.5979
21
-112.598
0
LINE
8
BLACK
6
CONTINUOUS
10
93.5979
20
-112.598
11
93.6866
21
-112.509
0
LINE
8
BLACK
6
CONTINUOUS
10
93.6866
20
-112.509
11
93.7993
21
-112.454
0
LINE
8
BLACK
6
CONTINUOUS
10
93.7993
20
-112.454
11
93.908
21
-112.438
0
LINE
8
BLACK
6
CONTINUOUS
10
93.908
20
-112.438
11
95.432
21
-112.438
0
LINE
8
BLACK
6
CONTINUOUS
10
95.432
20
-112.438
11
95.5407
21
-112.454
0
LINE
8
BLACK
6
CONTINUOUS
10
98.1407
20
-112.454
11
98.2534
21
-112.509
0
LINE
8
BLACK
6
CONTINUOUS
10
98.2534
20
-112.509
11
98.3421
21
-112.598
0
LINE
8
BLACK
6
CONTINUOUS
10
98.3421
20
-112.598
11
98.3972
21
-112.71
0
LINE
8
BLACK
6
CONTINUOUS
10
98.3972
20
-112.71
11
98.413
21
-112.819
0
LINE
8
BLACK
6
CONTINUOUS
10
98.413
20
-112.819
11
98.413
21
-113.581
0
LINE
8
BLACK
6
CONTINUOUS
10
98.413
20
-113.581
11
98.3972
21
-113.69
0
LINE
8
BLACK
6
CONTINUOUS
10
98.3972
20
-113.69
11
98.3421
21
-113.802
0
LINE
8
BLACK
6
CONTINUOUS
10
98.3421
20
-113.802
11
98.2534
21
-113.891
0
LINE
8
BLACK
6
CONTINUOUS
10
98.2534
20
-113.891
11
98.1407
21
-113.946
0
LINE
8
BLACK
6
CONTINUOUS
10
98.1407
20
-113.946
11
98.032
21
-113.962
0
LINE
8
BLACK
6
CONTINUOUS
10
98.032
20
-113.962
11
96.508
21
-113.962
0
LINE
8
BLACK
6
CONTINUOUS
10
96.508
20
-113.962
11
96.3993
21
-113.946
0
LINE
8
BLACK
6
CONTINUOUS
10
96.3993
20
-113.946
11
96.2866
21
-113.891
0
LINE
8
BLACK
6
CONTINUOUS
10
96.2866
20
-113.891
11
96.1979
21
-113.802
0
LINE
8
BLACK
6
CONTINUOUS
10
96.1979
20
-113.802
11
96.1428
21
-113.69
0
LINE
8
BLACK
6
CONTINUOUS
10
96.1428
20
-113.69
11
96.127
21
-113.581
0
LINE
8
BLACK
6
CONTINUOUS
10
96.127
20
-113.581
11
96.127
21
-112.819
0
LINE
8
BLACK
6
CONTINUOUS
10
96.127
20
-112.819
11
96.1428
21
-112.71
0
LINE
8
BLACK
6
CONTINUOUS
10
96.1428
20
-112.71
11
96.1979
21
-112.598
0
LINE
8
BLACK
6
CONTINUOUS
10
96.1979
20
-112.598
11
96.2866
21
-112.509
0
LINE
8
BLACK
6
CONTINUOUS
10
96.2866
20
-112.509
11
96.3993
21
-112.454
0
LINE
8
BLACK
6
CONTINUOUS
10
96.3993
20
-112.454
11
96.508
21
-112.438
0
LINE
8
BLACK
6
CONTINUOUS
10
96.508
20
-112.438
11
98.032
21
-112.438
0
LINE
8
BLACK
6
CONTINUOUS
10
98.032
20
-112.438
11
98.1407
21
-112.454
0
LINE
8
BLACK
6
CONTINUOUS
10
26.8
20
-69.9
11
25.25
21
-69.9
0
LINE
8
BLACK
6
CONTINUOUS
10
25.25
20
-69.9
11
25.25
21
-68.6
0
LINE
8
BLACK
6
CONTINUOUS
10
25.25
20
-68.6
11
26.8
21
-68.6
0
LINE
8
BLACK
6
CONTINUOUS
10
26.8
20
-68.6
11
26.8
21
-69.9
0
LINE
8
BLACK
6
CONTINUOUS
10
34.75
20
-69.9
11
33.2
21
-69.9
0
LINE
8
BLACK
6
CONTINUOUS
10
33.2
20
-69.9
11
33.2
21
-68.6
0
LINE
8
BLACK
6
CONTINUOUS
10
33.2
20
-68.6
11
34.75
21
-68.6
0
LINE
8
BLACK
6
CONTINUOUS
10
34.75
20
-68.6
11
34.75
21
-69.9
0
LINE
8
BLACK
6
CONTINUOUS
10
101.8
20
-69.9
11
100.25
21
-69.9
0
LINE
8
BLACK
6
CONTINUOUS
10
100.25
20
-69.9
11
100.25
21
-68.6
0
LINE
8
BLACK
6
CONTINUOUS
10
100.25
20
-68.6
11
101.8
21
-68.6
0
LINE
8
BLACK
6
CONTINUOUS
10
101.8
20
-68.6
11
101.8
21
-69.9
0
LINE
8
BLACK
6
CONTINUOUS
10
109.75
20
-69.9
11
108.2
21
-69.9
0
LINE
8
BLACK
6
CONTINUOUS
10
108.2
20
-69.9
11
108.2
21
-68.6
0
LINE
8
BLACK
6
CONTINUOUS
10
108.2
20
-68.6
11
109.75
21
-68.6
0
LINE
8
BLACK
6
CONTINUOUS
10
109.75
20
-68.6
11
109.75
21
-69.9
0
LINE
8
BLACK
6
CONTINUOUS
10
176.8
20
-69.9
11
175.25
21
-69.9
0
LINE
8
BLACK
6
CONTINUOUS
10
175.25
20
-69.9
11
175.25
21
-68.6
0
LINE
8
BLACK
6
CONTINUOUS
10
175.25
20
-68.6
11
176.8
21
-68.6
0
LINE
8
BLACK
6
CONTINUOUS
10
176.8
20
-68.6
11
176.8
21
-69.9
0
LINE
8
BLACK
6
CONTINUOUS
10
184.75
20
-69.9
11
183.2
21
-69.9
0
LINE
8
BLACK
6
CONTINUOUS
10
183.2
20
-69.9
11
183.2
21
-68.6
0
LINE
8
BLACK
6
CONTINUOUS
10
183.2
20
-68.6
11
184.75
21
-68.6
0
LINE
8
BLACK
6
CONTINUOUS
10
184.75
20
-68.6
11
184.75
21
-69.9
0
LINE
8
BLACK
6
CONTINUOUS
10
30.4862
20
-64.2425
11
30.803
21
-64.3176
0
LINE
8
BLACK
6
CONTINUOUS
10
30.803
20
-64.3176
11
31.109
21
-64.429
0
LINE
8
BLACK
6
CONTINUOUS
10
31.109
20
-64.429
11
31.4
21
-64.5751
0
LINE
8
BLACK
6
CONTINUOUS
10
31.4
20
-64.5751
11
31.672
21
-64.7541
0
LINE
8
BLACK
6
CONTINUOUS
10
31.672
20
-64.7541
11
31.9215
21
-64.9634
0
LINE
8
BLACK
6
CONTINUOUS
10
31.9215
20
-64.9634
11
32.1449
21
-65.2002
0
LINE
8
BLACK
6
CONTINUOUS
10
32.1449
20
-65.2002
11
32.3394
21
-65.4614
0
LINE
8
BLACK
6
CONTINUOUS
10
32.3394
20
-65.4614
11
32.5022
21
-65.7434
0
LINE
8
BLACK
6
CONTINUOUS
10
32.5022
20
-65.7434
11
32.6311
21
-66.0423
0
LINE
8
BLACK
6
CONTINUOUS
10
32.6311
20
-66.0423
11
32.7245
21
-66.3543
0
LINE
8
BLACK
6
CONTINUOUS
10
32.7245
20
-66.3543
11
32.7811
21
-66.6749
0
LINE
8
BLACK
6
CONTINUOUS
10
32.7811
20
-66.6749
11
32.8
21
-67
0
LINE
8
BLACK
6
CONTINUOUS
10
32.8
20
-67
11
32.7811
21
-67.3251
0
LINE
8
BLACK
6
CONTINUOUS
10
32.7811
20
-67.3251
11
32.7245
21
-67.6457
0
LINE
8
BLACK
6
CONTINUOUS
10
32.7245
20
-67.6457
11
32.6311
21
-67.9577
0
LINE
8
BLACK
6
CONTINUOUS
10
32.6311
20
-67.9577
11
32.5022
21
-68.2566
0
LINE
8
BLACK
6
CONTINUOUS
10
32.5022
20
-68.2566
11
32.3394
21
-68.5386
0
LINE
8
BLACK
6
CONTINUOUS
10
32.3394
20
-68.5386
11
32.1449
21
-68.7998
0
LINE
8
BLACK
6
CONTINUOUS
10
32.1449
20
-68.7998
11
31.9215
21
-69.0366
0
LINE
8
BLACK
6
CONTINUOUS
10
31.9215
20
-69.0366
11
31.672
21
-69.2459
0
LINE
8
BLACK
6
CONTINUOUS
10
31.672
20
-69.2459
11
31.4
21
-69.4249
0
LINE
8
BLACK
6
CONTINUOUS
10
31.4
20
-69.4249
11
31.109
21
-69.571
0
LINE
8
BLACK
6
CONTINUOUS
10
31.109
20
-69.571
11
30.803
21
-69.6824
0
LINE
8
BLACK
6
CONTINUOUS
10
30.803
20
-69.6824
11
30.4862
21
-69.7575
0
LINE
8
BLACK
6
CONTINUOUS
10
30.4862
20
-69.7575
11
30.1628
21
-69.7953
0
LINE
8
BLACK
6
CONTINUOUS
10
30.1628
20
-69.7953
11
29.8372
21
-69.7953
0
LINE
8
BLACK
6
CONTINUOUS
10
29.8372
20
-69.7953
11
29.5138
21
-69.7575
0
LINE
8
BLACK
6
CONTINUOUS
10
29.5138
20
-69.7575
11
29.197
21
-69.6824
0
LINE
8
BLACK
6
CONTINUOUS
10
29.197
20
-69.6824
11
28.891
21
-69.571
0
LINE
8
BLACK
6
CONTINUOUS
10
28.891
20
-69.571
11
28.6
21
-69.4249
0
LINE
8
BLACK
6
CONTINUOUS
10
28.6
20
-69.4249
11
28.328
21
-69.2459
0
LINE
8
BLACK
6
CONTINUOUS
10
28.328
20
-69.2459
11
28.0785
21
-69.0366
0
LINE
8
BLACK
6
CONTINUOUS
10
28.0785
20
-69.0366
11
27.8551
21
-68.7998
0
LINE
8
BLACK
6
CONTINUOUS
10
27.8551
20
-68.7998
11
27.6606
21
-68.5386
0
LINE
8
BLACK
6
CONTINUOUS
10
27.6606
20
-68.5386
11
27.4978
21
-68.2566
0
LINE
8
BLACK
6
CONTINUOUS
10
27.4978
20
-68.2566
11
27.3689
21
-67.9577
0
LINE
8
BLACK
6
CONTINUOUS
10
27.3689
20
-67.9577
11
27.2755
21
-67.6457
0
LINE
8
BLACK
6
CONTINUOUS
10
27.2755
20
-67.6457
11
27.2189
21
-67.3251
0
LINE
8
BLACK
6
CONTINUOUS
10
27.2189
20
-67.3251
11
27.2
21
-67
0
LINE
8
BLACK
6
CONTINUOUS
10
27.2
20
-67
11
27.2189
21
-66.6749
0
LINE
8
BLACK
6
CONTINUOUS
10
27.2189
20
-66.6749
11
27.2755
21
-66.3543
0
LINE
8
BLACK
6
CONTINUOUS
10
27.2755
20
-66.3543
11
27.3689
21
-66.0423
0
LINE
8
BLACK
6
CONTINUOUS
10
27.3689
20
-66.0423
11
27.4978
21
-65.7434
0
LINE
8
BLACK
6
CONTINUOUS
10
27.4978
20
-65.7434
11
27.6606
21
-65.4614
0
LINE
8
BLACK
6
CONTINUOUS
10
27.6606
20
-65.4614
11
27.8551
21
-65.2002
0
LINE
8
BLACK
6
CONTINUOUS
10
27.8551
20
-65.2002
11
28.0785
21
-64.9634
0
LINE
8
BLACK
6
CONTINUOUS
10
28.0785
20
-64.9634
11
28.328
21
-64.7541
0
LINE
8
BLACK
6
CONTINUOUS
10
28.328
20
-64.7541
11
28.6
21
-64.5751
0
LINE
8
BLACK
6
CONTINUOUS
10
28.6
20
-64.5751
11
28.891
21
-64.429
0
LINE
8
BLACK
6
CONTINUOUS
10
28.891
20
-64.429
11
29.197
21
-64.3176
0
LINE
8
BLACK
6
CONTINUOUS
10
29.197
20
-64.3176
11
29.5138
21
-64.2425
0
LINE
8
BLACK
6
CONTINUOUS
10
29.5138
20
-64.2425
11
29.8372
21
-64.2047
0
LINE
8
BLACK
6
CONTINUOUS
10
29.8372
20
-64.2047
11
30.1628
21
-64.2047
0
LINE
8
BLACK
6
CONTINUOUS
10
30.1628
20
-64.2047
11
30.4862
21
-64.2425
0
LINE
8
BLACK
6
CONTINUOUS
10
105.486
20
-64.2425
11
105.803
21
-64.3176
0
LINE
8
BLACK
6
CONTINUOUS
10
105.803
20
-64.3176
11
106.109
21
-64.429
0
LINE
8
BLACK
6
CONTINUOUS
10
106.109
20
-64.429
11
106.4
21
-64.5751
0
LINE
8
BLACK
6
CONTINUOUS
10
106.4
20
-64.5751
11
106.672
21
-64.7541
0
LINE
8
BLACK
6
CONTINUOUS
10
106.672
20
-64.7541
11
106.921
21
-64.9634
0
LINE
8
BLACK
6
CONTINUOUS
10
106.921
20
-64.9634
11
107.145
21
-65.2002
0
LINE
8
BLACK
6
CONTINUOUS
10
107.145
20
-65.2002
11
107.339
21
-65.4614
0
LINE
8
BLACK
6
CONTINUOUS
10
107.339
20
-65.4614
11
107.502
21
-65.7434
0
LINE
8
BLACK
6
CONTINUOUS
10
107.502
20
-65.7434
11
107.631
21
-66.0423
0
LINE
8
BLACK
6
CONTINUOUS
10
107.631
20
-66.0423
11
107.725
21
-66.3543
0
LINE
8
BLACK
6
CONTINUOUS
10
107.725
20
-66.3543
11
107.781
21
-66.6749
0
LINE
8
BLACK
6
CONTINUOUS
10
107.781
20
-66.6749
11
107.8
21
-67
0
LINE
8
BLACK
6
CONTINUOUS
10
107.8
20
-67
11
107.781
21
-67.3251
0
LINE
8
BLACK
6
CONTINUOUS
10
107.781
20
-67.3251
11
107.725
21
-67.6457
0
LINE
8
BLACK
6
CONTINUOUS
10
107.725
20
-67.6457
11
107.631
21
-67.9577
0
LINE
8
BLACK
6
CONTINUOUS
10
107.631
20
-67.9577
11
107.502
21
-68.2566
0
LINE
8
BLACK
6
CONTINUOUS
10
107.502
20
-68.2566
11
107.339
21
-68.5386
0
LINE
8
BLACK
6
CONTINUOUS
10
107.339
20
-68.5386
11
107.145
21
-68.7998
0
LINE
8
BLACK
6
CONTINUOUS
10
107.145
20
-68.7998
11
106.921
21
-69.0366
0
LINE
8
BLACK
6
CONTINUOUS
10
106.921
20
-69.0366
11
106.672
21
-69.2459
0
LINE
8
BLACK
6
CONTINUOUS
10
106.672
20
-69.2459
11
106.4
21
-69.4249
0
LINE
8
BLACK
6
CONTINUOUS
10
106.4
20
-69.4249
11
106.109
21
-69.571
0
LINE
8
BLACK
6
CONTINUOUS
10
106.109
20
-69.571
11
105.803
21
-69.6824
0
LINE
8
BLACK
6
CONTINUOUS
10
105.803
20
-69.6824
11
105.486
21
-69.7575
0
LINE
8
BLACK
6
CONTINUOUS
10
105.486
20
-69.7575
11
105.163
21
-69.7953
0
LINE
8
BLACK
6
CONTINUOUS
10
105.163
20
-69.7953
11
104.837
21
-69.7953
0
LINE
8
BLACK
6
CONTINUOUS
10
104.837
20
-69.7953
11
104.514
21
-69.7575
0
LINE
8
BLACK
6
CONTINUOUS
10
104.514
20
-69.7575
11
104.197
21
-69.6824
0
LINE
8
BLACK
6
CONTINUOUS
10
104.197
20
-69.6824
11
103.891
21
-69.571
0
LINE
8
BLACK
6
CONTINUOUS
10
103.891
20
-69.571
11
103.6
21
-69.4249
0
LINE
8
BLACK
6
CONTINUOUS
10
103.6
20
-69.4249
11
103.328
21
-69.2459
0
LINE
8
BLACK
6
CONTINUOUS
10
103.328
20
-69.2459
11
103.079
21
-69.0366
0
LINE
8
BLACK
6
CONTINUOUS
10
103.079
20
-69.0366
11
102.855
21
-68.7998
0
LINE
8
BLACK
6
CONTINUOUS
10
102.855
20
-68.7998
11
102.661
21
-68.5386
0
LINE
8
BLACK
6
CONTINUOUS
10
102.661
20
-68.5386
11
102.498
21
-68.2566
0
LINE
8
BLACK
6
CONTINUOUS
10
102.498
20
-68.2566
11
102.369
21
-67.9577
0
LINE
8
BLACK
6
CONTINUOUS
10
102.369
20
-67.9577
11
102.275
21
-67.6457
0
LINE
8
BLACK
6
CONTINUOUS
10
102.275
20
-67.6457
11
102.219
21
-67.3251
0
LINE
8
BLACK
6
CONTINUOUS
10
102.219
20
-67.3251
11
102.2
21
-67
0
LINE
8
BLACK
6
CONTINUOUS
10
102.2
20
-67
11
102.219
21
-66.6749
0
LINE
8
BLACK
6
CONTINUOUS
10
102.219
20
-66.6749
11
102.275
21
-66.3543
0
LINE
8
BLACK
6
CONTINUOUS
10
102.275
20
-66.3543
11
102.369
21
-66.0423
0
LINE
8
BLACK
6
CONTINUOUS
10
102.369
20
-66.0423
11
102.498
21
-65.7434
0
LINE
8
BLACK
6
CONTINUOUS
10
102.498
20
-65.7434
11
102.661
21
-65.4614
0
LINE
8
BLACK
6
CONTINUOUS
10
102.661
20
-65.4614
11
102.855
21
-65.2002
0
LINE
8
BLACK
6
CONTINUOUS
10
102.855
20
-65.2002
11
103.079
21
-64.9634
0
LINE
8
BLACK
6
CONTINUOUS
10
103.079
20
-64.9634
11
103.328
21
-64.7541
0
LINE
8
BLACK
6
CONTINUOUS
10
103.328
20
-64.7541
11
103.6
21
-64.5751
0
LINE
8
BLACK
6
CONTINUOUS
10
103.6
20
-64.5751
11
103.891
21
-64.429
0
LINE
8
BLACK
6
CONTINUOUS
10
103.891
20
-64.429
11
104.197
21
-64.3176
0
LINE
8
BLACK
6
CONTINUOUS
10
104.197
20
-64.3176
11
104.514
21
-64.2425
0
LINE
8
BLACK
6
CONTINUOUS
10
104.514
20
-64.2425
11
104.837
21
-64.2047
0
LINE
8
BLACK
6
CONTINUOUS
10
104.837
20
-64.2047
11
105.163
21
-64.2047
0
LINE
8
BLACK
6
CONTINUOUS
10
105.163
20
-64.2047
11
105.486
21
-64.2425
0
LINE
8
BLACK
6
CONTINUOUS
10
180.486
20
-64.2425
11
180.803
21
-64.3176
0
LINE
8
BLACK
6
CONTINUOUS
10
180.803
20
-64.3176
11
181.109
21
-64.429
0
LINE
8
BLACK
6
CONTINUOUS
10
181.109
20
-64.429
11
181.4
21
-64.5751
0
LINE
8
BLACK
6
CONTINUOUS
10
181.4
20
-64.5751
11
181.672
21
-64.7541
0
LINE
8
BLACK
6
CONTINUOUS
10
181.672
20
-64.7541
11
181.921
21
-64.9634
0
LINE
8
BLACK
6
CONTINUOUS
10
181.921
20
-64.9634
11
182.145
21
-65.2002
0
LINE
8
BLACK
6
CONTINUOUS
10
182.145
20
-65.2002
11
182.339
21
-65.4614
0
LINE
8
BLACK
6
CONTINUOUS
10
182.339
20
-65.4614
11
182.502
21
-65.7434
0
LINE
8
BLACK
6
CONTINUOUS
10
182.502
20
-65.7434
11
182.631
21
-66.0423
0
LINE
8
BLACK
6
CONTINUOUS
10
182.631
20
-66.0423
11
182.725
21
-66.3543
0
LINE
8
BLACK
6
CONTINUOUS
10
182.725
20
-66.3543
11
182.781
21
-66.6749
0
LINE
8
BLACK
6
CONTINUOUS
10
182.781
20
-66.6749
11
182.8
21
-67
0
LINE
8
BLACK
6
CONTINUOUS
10
182.8
20
-67
11
182.781
21
-67.3251
0
LINE
8
BLACK
6
CONTINUOUS
10
182.781
20
-67.3251
11
182.725
21
-67.6457
0
LINE
8
BLACK
6
CONTINUOUS
10
182.725
20
-67.6457
11
182.631
21
-67.9577
0
LINE
8
BLACK
6
CONTINUOUS
10
182.631
20
-67.9577
11
182.502
21
-68.2566
0
LINE
8
BLACK
6
CONTINUOUS
10
182.502
20
-68.2566
11
182.339
21
-68.5386
0
LINE
8
BLACK
6
CONTINUOUS
10
182.339
20
-68.5386
11
182.145
21
-68.7998
0
LINE
8
BLACK
6
CONTINUOUS
10
182.145
20
-68.7998
11
181.921
21
-69.0366
0
LINE
8
BLACK
6
CONTINUOUS
10
181.921
20
-69.0366
11
181.672
21
-69.2459
0
LINE
8
BLACK
6
CONTINUOUS
10
181.672
20
-69.2459
11
181.4
21
-69.4249
0
LINE
8
BLACK
6
CONTINUOUS
10
181.4
20
-69.4249
11
181.109
21
-69.571
0
LINE
8
BLACK
6
CONTINUOUS
10
181.109
20
-69.571
11
180.803
21
-69.6824
0
LINE
8
BLACK
6
CONTINUOUS
10
180.803
20
-69.6824
11
180.486
21
-69.7575
0
LINE
8
BLACK
6
CONTINUOUS
10
180.486
20
-69.7575
11
180.163
21
-69.7953
0
LINE
8
BLACK
6
CONTINUOUS
10
180.163
20
-69.7953
11
179.837
21
-69.7953
0
LINE
8
BLACK
6
CONTINUOUS
10
179.837
20
-69.7953
11
179.514
21
-69.7575
0
LINE
8
BLACK
6
CONTINUOUS
10
179.514
20
-69.7575
11
179.197
21
-69.6824
0
LINE
8
BLACK
6
CONTINUOUS
10
179.197
20
-69.6824
11
178.891
21
-69.571
0
LINE
8
BLACK
6
CONTINUOUS
10
178.891
20
-69.571
11
178.6
21
-69.4249
0
LINE
8
BLACK
6
CONTINUOUS
10
178.6
20
-69.4249
11
178.328
21
-69.2459
0
LINE
8
BLACK
6
CONTINUOUS
10
178.328
20
-69.2459
11
178.079
21
-69.0366
0
LINE
8
BLACK
6
CONTINUOUS
10
178.079
20
-69.0366
11
177.855
21
-68.7998
0
LINE
8
BLACK
6
CONTINUOUS
10
177.855
20
-68.7998
11
177.661
21
-68.5386
0
LINE
8
BLACK
6
CONTINUOUS
10
177.661
20
-68.5386
11
177.498
21
-68.2566
0
LINE
8
BLACK
6
CONTINUOUS
10
177.498
20
-68.2566
11
177.369
21
-67.9577
0
LINE
8
BLACK
6
CONTINUOUS
10
177.369
20
-67.9577
11
177.275
21
-67.6457
0
LINE
8
BLACK
6
CONTINUOUS
10
177.275
20
-67.6457
11
177.219
21
-67.3251
0
LINE
8
BLACK
6
CONTINUOUS
10
177.219
20
-67.3251
11
177.2
21
-67
0
LINE
8
BLACK
6
CONTINUOUS
10
177.2
20
-67
11
177.219
21
-66.6749
0
LINE
8
BLACK
6
CONTINUOUS
10
177.219
20
-66.6749
11
177.275
21
-66.3543
0
LINE
8
BLACK
6
CONTINUOUS
10
177.275
20
-66.3543
11
177.369
21
-66.0423
0
LINE
8
BLACK
6
CONTINUOUS
10
177.369
20
-66.0423
11
177.498
21
-65.7434
0
LINE
8
BLACK
6
CONTINUOUS
10
177.498
20
-65.7434
11
177.661
21
-65.4614
0
LINE
8
BLACK
6
CONTINUOUS
10
177.661
20
-65.4614
11
177.855
21
-65.2002
0
LINE
8
BLACK
6
CONTINUOUS
10
177.855
20
-65.2002
11
178.079
21
-64.9634
0
LINE
8
BLACK
6
CONTINUOUS
10
178.079
20
-64.9634
11
178.328
21
-64.7541
0
LINE
8
BLACK
6
CONTINUOUS
10
178.328
20
-64.7541
11
178.6
21
-64.5751
0
LINE
8
BLACK
6
CONTINUOUS
10
178.6
20
-64.5751
11
178.891
21
-64.429
0
LINE
8
BLACK
6
CONTINUOUS
10
178.891
20
-64.429
11
179.197
21
-64.3176
0
LINE
8
BLACK
6
CONTINUOUS
10
179.197
20
-64.3176
11
179.514
21
-64.2425
0
LINE
8
BLACK
6
CONTINUOUS
10
179.514
20
-64.2425
11
179.837
21
-64.2047
0
LINE
8
BLACK
6
CONTINUOUS
10
179.837
20
-64.2047
11
180.163
21
-64.2047
0
LINE
8
BLACK
6
CONTINUOUS
10
180.163
20
-64.2047
11
180.486
21
-64.2425
0
LINE
8
BLACK
6
CONTINUOUS
10
148.446
20
-64.169
11
148.527
21
-64.2232
0
LINE
8
BLACK
6
CONTINUOUS
10
148.527
20
-64.2232
11
148.581
21
-64.3043
0
LINE
8
BLACK
6
CONTINUOUS
10
148.581
20
-64.3043
11
148.6
21
-64.4
0
LINE
8
BLACK
6
CONTINUOUS
10
148.6
20
-64.4
11
148.6
21
-67.9
0
LINE
8
BLACK
6
CONTINUOUS
10
148.6
20
-67.9
11
148.581
21
-67.9957
0
LINE
8
BLACK
6
CONTINUOUS
10
148.581
20
-67.9957
11
148.527
21
-68.0768
0
LINE
8
BLACK
6
CONTINUOUS
10
148.527
20
-68.0768
11
148.446
21
-68.131
0
LINE
8
BLACK
6
CONTINUOUS
10
148.446
20
-68.131
11
148.35
21
-68.15
0
LINE
8
BLACK
6
CONTINUOUS
10
148.35
20
-68.15
11
146.35
21
-68.15
0
LINE
8
BLACK
6
CONTINUOUS
10
146.35
20
-68.15
11
146.254
21
-68.131
0
LINE
8
BLACK
6
CONTINUOUS
10
146.254
20
-68.131
11
146.173
21
-68.0768
0
LINE
8
BLACK
6
CONTINUOUS
10
146.173
20
-68.0768
11
146.119
21
-67.9957
0
LINE
8
BLACK
6
CONTINUOUS
10
146.119
20
-67.9957
11
146.1
21
-67.9
0
LINE
8
BLACK
6
CONTINUOUS
10
146.1
20
-67.9
11
146.1
21
-64.4
0
LINE
8
BLACK
6
CONTINUOUS
10
146.1
20
-64.4
11
146.119
21
-64.3043
0
LINE
8
BLACK
6
CONTINUOUS
10
146.119
20
-64.3043
11
146.173
21
-64.2232
0
LINE
8
BLACK
6
CONTINUOUS
10
146.173
20
-64.2232
11
146.254
21
-64.169
0
LINE
8
BLACK
6
CONTINUOUS
10
146.254
20
-64.169
11
146.35
21
-64.15
0
LINE
8
BLACK
6
CONTINUOUS
10
146.35
20
-64.15
11
148.35
21
-64.15
0
LINE
8
BLACK
6
CONTINUOUS
10
148.35
20
-64.15
11
148.446
21
-64.169
0
LINE
8
BLACK
6
CONTINUOUS
10
156.946
20
-65.619
11
157.027
21
-65.6732
0
LINE
8
BLACK
6
CONTINUOUS
10
157.027
20
-65.6732
11
157.081
21
-65.7543
0
LINE
8
BLACK
6
CONTINUOUS
10
157.081
20
-65.7543
11
157.1
21
-65.85
0
LINE
8
BLACK
6
CONTINUOUS
10
157.1
20
-65.85
11
157.1
21
-66.5
0
LINE
8
BLACK
6
CONTINUOUS
10
157.1
20
-66.5
11
157.081
21
-66.5957
0
LINE
8
BLACK
6
CONTINUOUS
10
157.081
20
-66.5957
11
157.027
21
-66.6768
0
LINE
8
BLACK
6
CONTINUOUS
10
157.027
20
-66.6768
11
156.946
21
-66.731
0
LINE
8
BLACK
6
CONTINUOUS
10
156.946
20
-66.731
11
156.85
21
-66.75
0
LINE
8
BLACK
6
CONTINUOUS
10
156.85
20
-66.75
11
155.55
21
-66.75
0
LINE
8
BLACK
6
CONTINUOUS
10
155.55
20
-66.75
11
155.454
21
-66.731
0
LINE
8
BLACK
6
CONTINUOUS
10
155.454
20
-66.731
11
155.373
21
-66.6768
0
LINE
8
BLACK
6
CONTINUOUS
10
155.373
20
-66.6768
11
155.319
21
-66.5957
0
LINE
8
BLACK
6
CONTINUOUS
10
155.319
20
-66.5957
11
155.3
21
-66.5
0
LINE
8
BLACK
6
CONTINUOUS
10
155.3
20
-66.5
11
155.3
21
-65.85
0
LINE
8
BLACK
6
CONTINUOUS
10
155.3
20
-65.85
11
155.319
21
-65.7543
0
LINE
8
BLACK
6
CONTINUOUS
10
155.319
20
-65.7543
11
155.373
21
-65.6732
0
LINE
8
BLACK
6
CONTINUOUS
10
155.373
20
-65.6732
11
155.454
21
-65.619
0
LINE
8
BLACK
6
CONTINUOUS
10
155.454
20
-65.619
11
155.55
21
-65.6
0
LINE
8
BLACK
6
CONTINUOUS
10
155.55
20
-65.6
11
156.85
21
-65.6
0
LINE
8
BLACK
6
CONTINUOUS
10
156.85
20
-65.6
11
156.946
21
-65.619
0
LINE
8
BLACK
6
CONTINUOUS
10
26.8
20
-65.4
11
25.25
21
-65.4
0
LINE
8
BLACK
6
CONTINUOUS
10
25.25
20
-65.4
11
25.25
21
-64.1
0
LINE
8
BLACK
6
CONTINUOUS
10
25.25
20
-64.1
11
26.8
21
-64.1
0
LINE
8
BLACK
6
CONTINUOUS
10
26.8
20
-64.1
11
26.8
21
-65.4
0
LINE
8
BLACK
6
CONTINUOUS
10
34.75
20
-65.4
11
33.2
21
-65.4
0
LINE
8
BLACK
6
CONTINUOUS
10
33.2
20
-65.4
11
33.2
21
-64.1
0
LINE
8
BLACK
6
CONTINUOUS
10
33.2
20
-64.1
11
34.75
21
-64.1
0
LINE
8
BLACK
6
CONTINUOUS
10
34.75
20
-64.1
11
34.75
21
-65.4
0
LINE
8
BLACK
6
CONTINUOUS
10
101.8
20
-65.4
11
100.25
21
-65.4
0
LINE
8
BLACK
6
CONTINUOUS
10
100.25
20
-65.4
11
100.25
21
-64.1
0
LINE
8
BLACK
6
CONTINUOUS
10
100.25
20
-64.1
11
101.8
21
-64.1
0
LINE
8
BLACK
6
CONTINUOUS
10
101.8
20
-64.1
11
101.8
21
-65.4
0
LINE
8
BLACK
6
CONTINUOUS
10
109.75
20
-65.4
11
108.2
21
-65.4
0
LINE
8
BLACK
6
CONTINUOUS
10
108.2
20
-65.4
11
108.2
21
-64.1
0
LINE
8
BLACK
6
CONTINUOUS
10
108.2
20
-64.1
11
109.75
21
-64.1
0
LINE
8
BLACK
6
CONTINUOUS
10
109.75
20
-64.1
11
109.75
21
-65.4
0
LINE
8
BLACK
6
CONTINUOUS
10
176.8
20
-65.4
11
175.25
21
-65.4
0
LINE
8
BLACK
6
CONTINUOUS
10
175.25
20
-65.4
11
175.25
21
-64.1
0
LINE
8
BLACK
6
CONTINUOUS
10
175.25
20
-64.1
11
176.8
21
-64.1
0
LINE
8
BLACK
6
CONTINUOUS
10
176.8
20
-64.1
11
176.8
21
-65.4
0
LINE
8
BLACK
6
CONTINUOUS
10
184.75
20
-65.4
11
183.2
21
-65.4
0
LINE
8
BLACK
6
CONTINUOUS
10
183.2
20
-65.4
11
183.2
21
-64.1
0
LINE
8
BLACK
6
CONTINUOUS
10
183.2
20
-64.1
11
184.75
21
-64.1
0
LINE
8
BLACK
6
CONTINUOUS
10
184.75
20
-64.1
11
184.75
21
-65.4
0
LINE
8
BLACK
6
CONTINUOUS
10
133.446
20
-62.169
11
133.527
21
-62.2232
0
LINE
8
BLACK
6
CONTINUOUS
10
133.527
20
-62.2232
11
133.581
21
-62.3043
0
LINE
8
BLACK
6
CONTINUOUS
10
133.581
20
-62.3043
11
133.6
21
-62.4
0
LINE
8
BLACK
6
CONTINUOUS
10
133.6
20
-62.4
11
133.6
21
-64.4
0
LINE
8
BLACK
6
CONTINUOUS
10
133.6
20
-64.4
11
133.581
21
-64.4957
0
LINE
8
BLACK
6
CONTINUOUS
10
133.581
20
-64.4957
11
133.527
21
-64.5768
0
LINE
8
BLACK
6
CONTINUOUS
10
133.527
20
-64.5768
11
133.446
21
-64.631
0
LINE
8
BLACK
6
CONTINUOUS
10
133.446
20
-64.631
11
133.35
21
-64.65
0
LINE
8
BLACK
6
CONTINUOUS
10
133.35
20
-64.65
11
129.85
21
-64.65
0
LINE
8
BLACK
6
CONTINUOUS
10
129.85
20
-64.65
11
129.754
21
-64.631
0
LINE
8
BLACK
6
CONTINUOUS
10
129.754
20
-64.631
11
129.673
21
-64.5768
0
LINE
8
BLACK
6
CONTINUOUS
10
129.673
20
-64.5768
11
129.619
21
-64.4957
0
LINE
8
BLACK
6
CONTINUOUS
10
129.619
20
-64.4957
11
129.6
21
-64.4
0
LINE
8
BLACK
6
CONTINUOUS
10
129.6
20
-64.4
11
129.6
21
-62.4
0
LINE
8
BLACK
6
CONTINUOUS
10
129.6
20
-62.4
11
129.619
21
-62.3043
0
LINE
8
BLACK
6
CONTINUOUS
10
129.619
20
-62.3043
11
129.673
21
-62.2232
0
LINE
8
BLACK
6
CONTINUOUS
10
129.673
20
-62.2232
11
129.754
21
-62.169
0
LINE
8
BLACK
6
CONTINUOUS
10
129.754
20
-62.169
11
129.85
21
-62.15
0
LINE
8
BLACK
6
CONTINUOUS
10
129.85
20
-62.15
11
133.35
21
-62.15
0
LINE
8
BLACK
6
CONTINUOUS
10
133.35
20
-62.15
11
133.446
21
-62.169
0
LINE
8
BLACK
6
CONTINUOUS
10
141.446
20
-62.169
11
141.527
21
-62.2232
0
LINE
8
BLACK
6
CONTINUOUS
10
141.527
20
-62.2232
11
141.581
21
-62.3043
0
LINE
8
BLACK
6
CONTINUOUS
10
141.581
20
-62.3043
11
141.6
21
-62.4
0
LINE
8
BLACK
6
CONTINUOUS
10
141.6
20
-62.4
11
141.6
21
-64.4
0
LINE
8
BLACK
6
CONTINUOUS
10
141.6
20
-64.4
11
141.581
21
-64.4957
0
LINE
8
BLACK
6
CONTINUOUS
10
141.581
20
-64.4957
11
141.527
21
-64.5768
0
LINE
8
BLACK
6
CONTINUOUS
10
141.527
20
-64.5768
11
141.446
21
-64.631
0
LINE
8
BLACK
6
CONTINUOUS
10
141.446
20
-64.631
11
141.35
21
-64.65
0
LINE
8
BLACK
6
CONTINUOUS
10
141.35
20
-64.65
11
137.85
21
-64.65
0
LINE
8
BLACK
6
CONTINUOUS
10
137.85
20
-64.65
11
137.754
21
-64.631
0
LINE
8
BLACK
6
CONTINUOUS
10
137.754
20
-64.631
11
137.673
21
-64.5768
0
LINE
8
BLACK
6
CONTINUOUS
10
137.673
20
-64.5768
11
137.619
21
-64.4957
0
LINE
8
BLACK
6
CONTINUOUS
10
137.619
20
-64.4957
11
137.6
21
-64.4
0
LINE
8
BLACK
6
CONTINUOUS
10
137.6
20
-64.4
11
137.6
21
-62.4
0
LINE
8
BLACK
6
CONTINUOUS
10
137.6
20
-62.4
11
137.619
21
-62.3043
0
LINE
8
BLACK
6
CONTINUOUS
10
137.619
20
-62.3043
11
137.673
21
-62.2232
0
LINE
8
BLACK
6
CONTINUOUS
10
137.673
20
-62.2232
11
137.754
21
-62.169
0
LINE
8
BLACK
6
CONTINUOUS
10
137.754
20
-62.169
11
137.85
21
-62.15
0
LINE
8
BLACK
6
CONTINUOUS
10
137.85
20
-62.15
11
141.35
21
-62.15
0
LINE
8
BLACK
6
CONTINUOUS
10
141.35
20
-62.15
11
141.446
21
-62.169
0
LINE
8
BLACK
6
CONTINUOUS
10
156.946
20
-62.669
11
157.027
21
-62.7232
0
LINE
8
BLACK
6
CONTINUOUS
10
157.027
20
-62.7232
11
157.081
21
-62.8043
0
LINE
8
BLACK
6
CONTINUOUS
10
157.081
20
-62.8043
11
157.1
21
-62.9
0
LINE
8
BLACK
6
CONTINUOUS
10
157.1
20
-62.9
11
157.1
21
-63.55
0
LINE
8
BLACK
6
CONTINUOUS
10
157.1
20
-63.55
11
157.081
21
-63.6457
0
LINE
8
BLACK
6
CONTINUOUS
10
157.081
20
-63.6457
11
157.027
21
-63.7268
0
LINE
8
BLACK
6
CONTINUOUS
10
157.027
20
-63.7268
11
156.946
21
-63.781
0
LINE
8
BLACK
6
CONTINUOUS
10
156.946
20
-63.781
11
156.85
21
-63.8
0
LINE
8
BLACK
6
CONTINUOUS
10
156.85
20
-63.8
11
155.55
21
-63.8
0
LINE
8
BLACK
6
CONTINUOUS
10
155.55
20
-63.8
11
155.454
21
-63.781
0
LINE
8
BLACK
6
CONTINUOUS
10
155.454
20
-63.781
11
155.373
21
-63.7268
0
LINE
8
BLACK
6
CONTINUOUS
10
155.373
20
-63.7268
11
155.319
21
-63.6457
0
LINE
8
BLACK
6
CONTINUOUS
10
155.319
20
-63.6457
11
155.3
21
-63.55
0
LINE
8
BLACK
6
CONTINUOUS
10
155.3
20
-63.55
11
155.3
21
-62.9
0
LINE
8
BLACK
6
CONTINUOUS
10
155.3
20
-62.9
11
155.319
21
-62.8043
0
LINE
8
BLACK
6
CONTINUOUS
10
155.319
20
-62.8043
11
155.373
21
-62.7232
0
LINE
8
BLACK
6
CONTINUOUS
10
155.373
20
-62.7232
11
155.454
21
-62.669
0
LINE
8
BLACK
6
CONTINUOUS
10
155.454
20
-62.669
11
155.55
21
-62.65
0
LINE
8
BLACK
6
CONTINUOUS
10
155.55
20
-62.65
11
156.85
21
-62.65
0
LINE
8
BLACK
6
CONTINUOUS
10
156.85
20
-62.65
11
156.946
21
-62.669
0
LINE
8
BLACK
6
CONTINUOUS
10
148.446
20
-56.169
11
148.527
21
-56.2232
0
LINE
8
BLACK
6
CONTINUOUS
10
148.527
20
-56.2232
11
148.581
21
-56.3043
0
LINE
8
BLACK
6
CONTINUOUS
10
148.581
20
-56.3043
11
148.6
21
-56.4
0
LINE
8
BLACK
6
CONTINUOUS
10
148.6
20
-56.4
11
148.6
21
-59.9
0
LINE
8
BLACK
6
CONTINUOUS
10
148.6
20
-59.9
11
148.581
21
-59.9957
0
LINE
8
BLACK
6
CONTINUOUS
10
148.581
20
-59.9957
11
148.527
21
-60.0768
0
LINE
8
BLACK
6
CONTINUOUS
10
148.527
20
-60.0768
11
148.446
21
-60.131
0
LINE
8
BLACK
6
CONTINUOUS
10
148.446
20
-60.131
11
148.35
21
-60.15
0
LINE
8
BLACK
6
CONTINUOUS
10
148.35
20
-60.15
11
146.35
21
-60.15
0
LINE
8
BLACK
6
CONTINUOUS
10
146.35
20
-60.15
11
146.254
21
-60.131
0
LINE
8
BLACK
6
CONTINUOUS
10
146.254
20
-60.131
11
146.173
21
-60.0768
0
LINE
8
BLACK
6
CONTINUOUS
10
146.173
20
-60.0768
11
146.119
21
-59.9957
0
LINE
8
BLACK
6
CONTINUOUS
10
146.119
20
-59.9957
11
146.1
21
-59.9
0
LINE
8
BLACK
6
CONTINUOUS
10
146.1
20
-59.9
11
146.1
21
-56.4
0
LINE
8
BLACK
6
CONTINUOUS
10
146.1
20
-56.4
11
146.119
21
-56.3043
0
LINE
8
BLACK
6
CONTINUOUS
10
146.119
20
-56.3043
11
146.173
21
-56.2232
0
LINE
8
BLACK
6
CONTINUOUS
10
146.173
20
-56.2232
11
146.254
21
-56.169
0
LINE
8
BLACK
6
CONTINUOUS
10
146.254
20
-56.169
11
146.35
21
-56.15
0
LINE
8
BLACK
6
CONTINUOUS
10
146.35
20
-56.15
11
148.35
21
-56.15
0
LINE
8
BLACK
6
CONTINUOUS
10
148.35
20
-56.15
11
148.446
21
-56.169
0
LINE
8
BLACK
6
CONTINUOUS
10
152.271
20
-57.669
11
152.352
21
-57.7232
0
LINE
8
BLACK
6
CONTINUOUS
10
152.352
20
-57.7232
11
152.406
21
-57.8043
0
LINE
8
BLACK
6
CONTINUOUS
10
152.406
20
-57.8043
11
152.425
21
-57.9
0
LINE
8
BLACK
6
CONTINUOUS
10
152.425
20
-57.9
11
152.425
21
-58.4
0
LINE
8
BLACK
6
CONTINUOUS
10
152.425
20
-58.4
11
152.406
21
-58.4957
0
LINE
8
BLACK
6
CONTINUOUS
10
152.406
20
-58.4957
11
152.352
21
-58.5768
0
LINE
8
BLACK
6
CONTINUOUS
10
152.352
20
-58.5768
11
152.271
21
-58.631
0
LINE
8
BLACK
6
CONTINUOUS
10
152.271
20
-58.631
11
152.175
21
-58.65
0
LINE
8
BLACK
6
CONTINUOUS
10
152.175
20
-58.65
11
151.225
21
-58.65
0
LINE
8
BLACK
6
CONTINUOUS
10
151.225
20
-58.65
11
151.129
21
-58.631
0
LINE
8
BLACK
6
CONTINUOUS
10
151.129
20
-58.631
11
151.048
21
-58.5768
0
LINE
8
BLACK
6
CONTINUOUS
10
151.048
20
-58.5768
11
150.994
21
-58.4957
0
LINE
8
BLACK
6
CONTINUOUS
10
150.994
20
-58.4957
11
150.975
21
-58.4
0
LINE
8
BLACK
6
CONTINUOUS
10
150.975
20
-58.4
11
150.975
21
-57.9
0
LINE
8
BLACK
6
CONTINUOUS
10
150.975
20
-57.9
11
150.994
21
-57.8043
0
LINE
8
BLACK
6
CONTINUOUS
10
150.994
20
-57.8043
11
151.048
21
-57.7232
0
LINE
8
BLACK
6
CONTINUOUS
10
151.048
20
-57.7232
11
151.129
21
-57.669
0
LINE
8
BLACK
6
CONTINUOUS
10
151.129
20
-57.669
11
151.225
21
-57.65
0
LINE
8
BLACK
6
CONTINUOUS
10
151.225
20
-57.65
11
152.175
21
-57.65
0
LINE
8
BLACK
6
CONTINUOUS
10
152.175
20
-57.65
11
152.271
21
-57.669
0
LINE
8
BLACK
6
CONTINUOUS
10
152.271
20
-55.769
11
152.352
21
-55.8232
0
LINE
8
BLACK
6
CONTINUOUS
10
152.352
20
-55.8232
11
152.406
21
-55.9043
0
LINE
8
BLACK
6
CONTINUOUS
10
152.406
20
-55.9043
11
152.425
21
-56
0
LINE
8
BLACK
6
CONTINUOUS
10
152.425
20
-56
11
152.425
21
-56.5
0
LINE
8
BLACK
6
CONTINUOUS
10
152.425
20
-56.5
11
152.406
21
-56.5957
0
LINE
8
BLACK
6
CONTINUOUS
10
152.406
20
-56.5957
11
152.352
21
-56.6768
0
LINE
8
BLACK
6
CONTINUOUS
10
152.352
20
-56.6768
11
152.271
21
-56.731
0
LINE
8
BLACK
6
CONTINUOUS
10
152.271
20
-56.731
11
152.175
21
-56.75
0
LINE
8
BLACK
6
CONTINUOUS
10
152.175
20
-56.75
11
151.225
21
-56.75
0
LINE
8
BLACK
6
CONTINUOUS
10
151.225
20
-56.75
11
151.129
21
-56.731
0
LINE
8
BLACK
6
CONTINUOUS
10
151.129
20
-56.731
11
151.048
21
-56.6768
0
LINE
8
BLACK
6
CONTINUOUS
10
151.048
20
-56.6768
11
150.994
21
-56.5957
0
LINE
8
BLACK
6
CONTINUOUS
10
150.994
20
-56.5957
11
150.975
21
-56.5
0
LINE
8
BLACK
6
CONTINUOUS
10
150.975
20
-56.5
11
150.975
21
-56
0
LINE
8
BLACK
6
CONTINUOUS
10
150.975
20
-56
11
150.994
21
-55.9043
0
LINE
8
BLACK
6
CONTINUOUS
10
150.994
20
-55.9043
11
151.048
21
-55.8232
0
LINE
8
BLACK
6
CONTINUOUS
10
151.048
20
-55.8232
11
151.129
21
-55.769
0
LINE
8
BLACK
6
CONTINUOUS
10
151.129
20
-55.769
11
151.225
21
-55.75
0
LINE
8
BLACK
6
CONTINUOUS
10
151.225
20
-55.75
11
152.175
21
-55.75
0
LINE
8
BLACK
6
CONTINUOUS
10
152.175
20
-55.75
11
152.271
21
-55.769
0
LINE
8
BLACK
6
CONTINUOUS
10
148.396
20
-49.869
11
148.477
21
-49.9232
0
LINE
8
BLACK
6
CONTINUOUS
10
148.477
20
-49.9232
11
148.531
21
-50.0043
0
LINE
8
BLACK
6
CONTINUOUS
10
148.531
20
-50.0043
11
148.55
21
-50.1
0
LINE
8
BLACK
6
CONTINUOUS
10
148.55
20
-50.1
11
148.55
21
-51.4
0
LINE
8
BLACK
6
CONTINUOUS
10
148.55
20
-51.4
11
148.531
21
-51.4957
0
LINE
8
BLACK
6
CONTINUOUS
10
148.531
20
-51.4957
11
148.477
21
-51.5768
0
LINE
8
BLACK
6
CONTINUOUS
10
148.477
20
-51.5768
11
148.396
21
-51.631
0
LINE
8
BLACK
6
CONTINUOUS
10
148.396
20
-51.631
11
148.3
21
-51.65
0
LINE
8
BLACK
6
CONTINUOUS
10
148.3
20
-51.65
11
147.65
21
-51.65
0
LINE
8
BLACK
6
CONTINUOUS
10
147.65
20
-51.65
11
147.554
21
-51.631
0
LINE
8
BLACK
6
CONTINUOUS
10
147.554
20
-51.631
11
147.473
21
-51.5768
0
LINE
8
BLACK
6
CONTINUOUS
10
147.473
20
-51.5768
11
147.419
21
-51.4957
0
LINE
8
BLACK
6
CONTINUOUS
10
147.419
20
-51.4957
11
147.4
21
-51.4
0
LINE
8
BLACK
6
CONTINUOUS
10
147.4
20
-51.4
11
147.4
21
-50.1
0
LINE
8
BLACK
6
CONTINUOUS
10
147.4
20
-50.1
11
147.419
21
-50.0043
0
LINE
8
BLACK
6
CONTINUOUS
10
147.419
20
-50.0043
11
147.473
21
-49.9232
0
LINE
8
BLACK
6
CONTINUOUS
10
147.473
20
-49.9232
11
147.554
21
-49.869
0
LINE
8
BLACK
6
CONTINUOUS
10
147.554
20
-49.869
11
147.65
21
-49.85
0
LINE
8
BLACK
6
CONTINUOUS
10
147.65
20
-49.85
11
148.3
21
-49.85
0
LINE
8
BLACK
6
CONTINUOUS
10
148.3
20
-49.85
11
148.396
21
-49.869
0
LINE
8
BLACK
6
CONTINUOUS
10
151.346
20
-49.869
11
151.427
21
-49.9232
0
LINE
8
BLACK
6
CONTINUOUS
10
151.427
20
-49.9232
11
151.481
21
-50.0043
0
LINE
8
BLACK
6
CONTINUOUS
10
151.481
20
-50.0043
11
151.5
21
-50.1
0
LINE
8
BLACK
6
CONTINUOUS
10
151.5
20
-50.1
11
151.5
21
-51.4
0
LINE
8
BLACK
6
CONTINUOUS
10
151.5
20
-51.4
11
151.481
21
-51.4957
0
LINE
8
BLACK
6
CONTINUOUS
10
151.481
20
-51.4957
11
151.427
21
-51.5768
0
LINE
8
BLACK
6
CONTINUOUS
10
151.427
20
-51.5768
11
151.346
21
-51.631
0
LINE
8
BLACK
6
CONTINUOUS
10
151.346
20
-51.631
11
151.25
21
-51.65
0
LINE
8
BLACK
6
CONTINUOUS
10
151.25
20
-51.65
11
150.6
21
-51.65
0
LINE
8
BLACK
6
CONTINUOUS
10
150.6
20
-51.65
11
150.504
21
-51.631
0
LINE
8
BLACK
6
CONTINUOUS
10
150.504
20
-51.631
11
150.423
21
-51.5768
0
LINE
8
BLACK
6
CONTINUOUS
10
150.423
20
-51.5768
11
150.369
21
-51.4957
0
LINE
8
BLACK
6
CONTINUOUS
10
150.369
20
-51.4957
11
150.35
21
-51.4
0
LINE
8
BLACK
6
CONTINUOUS
10
150.35
20
-51.4
11
150.35
21
-50.1
0
LINE
8
BLACK
6
CONTINUOUS
10
150.35
20
-50.1
11
150.369
21
-50.0043
0
LINE
8
BLACK
6
CONTINUOUS
10
150.369
20
-50.0043
11
150.423
21
-49.9232
0
LINE
8
BLACK
6
CONTINUOUS
10
150.423
20
-49.9232
11
150.504
21
-49.869
0
LINE
8
BLACK
6
CONTINUOUS
10
150.504
20
-49.869
11
150.6
21
-49.85
0
LINE
8
BLACK
6
CONTINUOUS
10
150.6
20
-49.85
11
151.25
21
-49.85
0
LINE
8
BLACK
6
CONTINUOUS
10
151.25
20
-49.85
11
151.346
21
-49.869
0
LINE
8
BLACK
6
CONTINUOUS
10
63.9
20
-50.1
11
62.4
21
-50.1
0
LINE
8
BLACK
6
CONTINUOUS
10
62.4
20
-50.1
11
62.4
21
-49.1
0
LINE
8
BLACK
6
CONTINUOUS
10
62.4
20
-49.1
11
63.9
21
-49.1
0
LINE
8
BLACK
6
CONTINUOUS
10
63.9
20
-49.1
11
63.9
21
-50.1
0
LINE
8
BLACK
6
CONTINUOUS
10
68.8
20
-50.1
11
67.3
21
-50.1
0
LINE
8
BLACK
6
CONTINUOUS
10
67.3
20
-50.1
11
67.3
21
-49.1
0
LINE
8
BLACK
6
CONTINUOUS
10
67.3
20
-49.1
11
68.8
21
-49.1
0
LINE
8
BLACK
6
CONTINUOUS
10
68.8
20
-49.1
11
68.8
21
-50.1
0
LINE
8
BLACK
6
CONTINUOUS
10
88.9
20
-50.1
11
87.4
21
-50.1
0
LINE
8
BLACK
6
CONTINUOUS
10
87.4
20
-50.1
11
87.4
21
-49.1
0
LINE
8
BLACK
6
CONTINUOUS
10
87.4
20
-49.1
11
88.9
21
-49.1
0
LINE
8
BLACK
6
CONTINUOUS
10
88.9
20
-49.1
11
88.9
21
-50.1
0
LINE
8
BLACK
6
CONTINUOUS
10
93.8
20
-50.1
11
92.3
21
-50.1
0
LINE
8
BLACK
6
CONTINUOUS
10
92.3
20
-50.1
11
92.3
21
-49.1
0
LINE
8
BLACK
6
CONTINUOUS
10
92.3
20
-49.1
11
93.8
21
-49.1
0
LINE
8
BLACK
6
CONTINUOUS
10
93.8
20
-49.1
11
93.8
21
-50.1
0
LINE
8
BLACK
6
CONTINUOUS
10
113.9
20
-50.1
11
112.4
21
-50.1
0
LINE
8
BLACK
6
CONTINUOUS
10
112.4
20
-50.1
11
112.4
21
-49.1
0
LINE
8
BLACK
6
CONTINUOUS
10
112.4
20
-49.1
11
113.9
21
-49.1
0
LINE
8
BLACK
6
CONTINUOUS
10
113.9
20
-49.1
11
113.9
21
-50.1
0
LINE
8
BLACK
6
CONTINUOUS
10
118.8
20
-50.1
11
117.3
21
-50.1
0
LINE
8
BLACK
6
CONTINUOUS
10
117.3
20
-50.1
11
117.3
21
-49.1
0
LINE
8
BLACK
6
CONTINUOUS
10
117.3
20
-49.1
11
118.8
21
-49.1
0
LINE
8
BLACK
6
CONTINUOUS
10
118.8
20
-49.1
11
118.8
21
-50.1
0
LINE
8
BLACK
6
CONTINUOUS
10
138.9
20
-50.1
11
137.4
21
-50.1
0
LINE
8
BLACK
6
CONTINUOUS
10
137.4
20
-50.1
11
137.4
21
-49.1
0
LINE
8
BLACK
6
CONTINUOUS
10
137.4
20
-49.1
11
138.9
21
-49.1
0
LINE
8
BLACK
6
CONTINUOUS
10
138.9
20
-49.1
11
138.9
21
-50.1
0
LINE
8
BLACK
6
CONTINUOUS
10
143.8
20
-50.1
11
142.3
21
-50.1
0
LINE
8
BLACK
6
CONTINUOUS
10
142.3
20
-50.1
11
142.3
21
-49.1
0
LINE
8
BLACK
6
CONTINUOUS
10
142.3
20
-49.1
11
143.8
21
-49.1
0
LINE
8
BLACK
6
CONTINUOUS
10
143.8
20
-49.1
11
143.8
21
-50.1
0
LINE
8
BLACK
6
CONTINUOUS
10
74.2957
20
-46.969
11
74.3768
21
-47.0232
0
LINE
8
BLACK
6
CONTINUOUS
10
74.3768
20
-47.0232
11
74.431
21
-47.1043
0
LINE
8
BLACK
6
CONTINUOUS
10
74.431
20
-47.1043
11
74.45
21
-47.2
0
LINE
8
BLACK
6
CONTINUOUS
10
74.45
20
-47.2
11
74.45
21
-48.1
0
LINE
8
BLACK
6
CONTINUOUS
10
74.45
20
-48.1
11
74.431
21
-48.1957
0
LINE
8
BLACK
6
CONTINUOUS
10
74.431
20
-48.1957
11
74.3768
21
-48.2768
0
LINE
8
BLACK
6
CONTINUOUS
10
74.3768
20
-48.2768
11
74.2957
21
-48.331
0
LINE
8
BLACK
6
CONTINUOUS
10
74.2957
20
-48.331
11
74.2
21
-48.35
0
LINE
8
BLACK
6
CONTINUOUS
10
74.2
20
-48.35
11
73.675
21
-48.35
0
LINE
8
BLACK
6
CONTINUOUS
10
73.675
20
-48.35
11
73.5793
21
-48.331
0
LINE
8
BLACK
6
CONTINUOUS
10
73.5793
20
-48.331
11
73.4982
21
-48.2768
0
LINE
8
BLACK
6
CONTINUOUS
10
73.4982
20
-48.2768
11
73.444
21
-48.1957
0
LINE
8
BLACK
6
CONTINUOUS
10
73.444
20
-48.1957
11
73.425
21
-48.1
0
LINE
8
BLACK
6
CONTINUOUS
10
73.425
20
-48.1
11
73.425
21
-47.2
0
LINE
8
BLACK
6
CONTINUOUS
10
73.425
20
-47.2
11
73.444
21
-47.1043
0
LINE
8
BLACK
6
CONTINUOUS
10
73.444
20
-47.1043
11
73.4982
21
-47.0232
0
LINE
8
BLACK
6
CONTINUOUS
10
73.4982
20
-47.0232
11
73.5793
21
-46.969
0
LINE
8
BLACK
6
CONTINUOUS
10
73.5793
20
-46.969
11
73.675
21
-46.95
0
LINE
8
BLACK
6
CONTINUOUS
10
73.675
20
-46.95
11
74.2
21
-46.95
0
LINE
8
BLACK
6
CONTINUOUS
10
74.2
20
-46.95
11
74.2957
21
-46.969
0
LINE
8
BLACK
6
CONTINUOUS
10
76.1207
20
-46.969
11
76.2018
21
-47.0232
0
LINE
8
BLACK
6
CONTINUOUS
10
76.2018
20
-47.0232
11
76.256
21
-47.1043
0
LINE
8
BLACK
6
CONTINUOUS
10
76.256
20
-47.1043
11
76.275
21
-47.2
0
LINE
8
BLACK
6
CONTINUOUS
10
76.275
20
-47.2
11
76.275
21
-48.1
0
LINE
8
BLACK
6
CONTINUOUS
10
76.275
20
-48.1
11
76.256
21
-48.1957
0
LINE
8
BLACK
6
CONTINUOUS
10
76.256
20
-48.1957
11
76.2018
21
-48.2768
0
LINE
8
BLACK
6
CONTINUOUS
10
76.2018
20
-48.2768
11
76.1207
21
-48.331
0
LINE
8
BLACK
6
CONTINUOUS
10
76.1207
20
-48.331
11
76.025
21
-48.35
0
LINE
8
BLACK
6
CONTINUOUS
10
76.025
20
-48.35
11
75.5
21
-48.35
0
LINE
8
BLACK
6
CONTINUOUS
10
75.5
20
-48.35
11
75.4043
21
-48.331
0
LINE
8
BLACK
6
CONTINUOUS
10
75.4043
20
-48.331
11
75.3232
21
-48.2768
0
LINE
8
BLACK
6
CONTINUOUS
10
75.3232
20
-48.2768
11
75.269
21
-48.1957
0
LINE
8
BLACK
6
CONTINUOUS
10
75.269
20
-48.1957
11
75.25
21
-48.1
0
LINE
8
BLACK
6
CONTINUOUS
10
75.25
20
-48.1
11
75.25
21
-47.2
0
LINE
8
BLACK
6
CONTINUOUS
10
75.25
20
-47.2
11
75.269
21
-47.1043
0
LINE
8
BLACK
6
CONTINUOUS
10
75.269
20
-47.1043
11
75.3232
21
-47.0232
0
LINE
8
BLACK
6
CONTINUOUS
10
75.3232
20
-47.0232
11
75.4043
21
-46.969
0
LINE
8
BLACK
6
CONTINUOUS
10
75.4043
20
-46.969
11
75.5
21
-46.95
0
LINE
8
BLACK
6
CONTINUOUS
10
75.5
20
-46.95
11
76.025
21
-46.95
0
LINE
8
BLACK
6
CONTINUOUS
10
76.025
20
-46.95
11
76.1207
21
-46.969
0
LINE
8
BLACK
6
CONTINUOUS
10
70.9436
20
-47.7882
11
69.826
21
-47.7882
0
LINE
8
BLACK
6
CONTINUOUS
10
69.826
20
-47.7882
11
69.826
21
-47.4326
0
LINE
8
BLACK
6
CONTINUOUS
10
69.826
20
-47.4326
11
70.9436
21
-47.4326
0
LINE
8
BLACK
6
CONTINUOUS
10
70.9436
20
-47.4326
11
70.9436
21
-47.7882
0
LINE
8
BLACK
6
CONTINUOUS
10
72.874
20
-47.7882
11
71.7564
21
-47.7882
0
LINE
8
BLACK
6
CONTINUOUS
10
71.7564
20
-47.7882
11
71.7564
21
-47.4326
0
LINE
8
BLACK
6
CONTINUOUS
10
71.7564
20
-47.4326
11
72.874
21
-47.4326
0
LINE
8
BLACK
6
CONTINUOUS
10
72.874
20
-47.4326
11
72.874
21
-47.7882
0
LINE
8
BLACK
6
CONTINUOUS
10
72.874
20
-47.1278
11
71.7564
21
-47.1278
0
LINE
8
BLACK
6
CONTINUOUS
10
71.7564
20
-47.1278
11
71.7564
21
-46.7722
0
LINE
8
BLACK
6
CONTINUOUS
10
71.7564
20
-46.7722
11
72.874
21
-46.7722
0
LINE
8
BLACK
6
CONTINUOUS
10
72.874
20
-46.7722
11
72.874
21
-47.1278
0
LINE
8
BLACK
6
CONTINUOUS
10
155.671
20
-45.794
11
155.752
21
-45.8482
0
LINE
8
BLACK
6
CONTINUOUS
10
155.752
20
-45.8482
11
155.806
21
-45.9293
0
LINE
8
BLACK
6
CONTINUOUS
10
155.806
20
-45.9293
11
155.825
21
-46.025
0
LINE
8
BLACK
6
CONTINUOUS
10
155.825
20
-46.025
11
155.825
21
-46.775
0
LINE
8
BLACK
6
CONTINUOUS
10
155.825
20
-46.775
11
155.806
21
-46.8707
0
LINE
8
BLACK
6
CONTINUOUS
10
155.806
20
-46.8707
11
155.752
21
-46.9518
0
LINE
8
BLACK
6
CONTINUOUS
10
155.752
20
-46.9518
11
155.671
21
-47.006
0
LINE
8
BLACK
6
CONTINUOUS
10
155.671
20
-47.006
11
155.575
21
-47.025
0
LINE
8
BLACK
6
CONTINUOUS
10
155.575
20
-47.025
11
153.425
21
-47.025
0
LINE
8
BLACK
6
CONTINUOUS
10
153.425
20
-47.025
11
153.329
21
-47.006
0
LINE
8
BLACK
6
CONTINUOUS
10
153.329
20
-47.006
11
153.248
21
-46.9518
0
LINE
8
BLACK
6
CONTINUOUS
10
153.248
20
-46.9518
11
153.194
21
-46.8707
0
LINE
8
BLACK
6
CONTINUOUS
10
153.194
20
-46.8707
11
153.175
21
-46.775
0
LINE
8
BLACK
6
CONTINUOUS
10
153.175
20
-46.775
11
153.175
21
-46.025
0
LINE
8
BLACK
6
CONTINUOUS
10
153.175
20
-46.025
11
153.194
21
-45.9293
0
LINE
8
BLACK
6
CONTINUOUS
10
153.194
20
-45.9293
11
153.248
21
-45.8482
0
LINE
8
BLACK
6
CONTINUOUS
10
153.248
20
-45.8482
11
153.329
21
-45.794
0
LINE
8
BLACK
6
CONTINUOUS
10
153.329
20
-45.794
11
153.425
21
-45.775
0
LINE
8
BLACK
6
CONTINUOUS
10
153.425
20
-45.775
11
155.575
21
-45.775
0
LINE
8
BLACK
6
CONTINUOUS
10
155.575
20
-45.775
11
155.671
21
-45.794
0
LINE
8
BLACK
6
CONTINUOUS
10
63.9
20
-46.9
11
62.4
21
-46.9
0
LINE
8
BLACK
6
CONTINUOUS
10
62.4
20
-46.9
11
62.4
21
-45.9
0
LINE
8
BLACK
6
CONTINUOUS
10
62.4
20
-45.9
11
63.9
21
-45.9
0
LINE
8
BLACK
6
CONTINUOUS
10
63.9
20
-45.9
11
63.9
21
-46.9
0
LINE
8
BLACK
6
CONTINUOUS
10
68.8
20
-46.9
11
67.3
21
-46.9
0
LINE
8
BLACK
6
CONTINUOUS
10
67.3
20
-46.9
11
67.3
21
-45.9
0
LINE
8
BLACK
6
CONTINUOUS
10
67.3
20
-45.9
11
68.8
21
-45.9
0
LINE
8
BLACK
6
CONTINUOUS
10
68.8
20
-45.9
11
68.8
21
-46.9
0
LINE
8
BLACK
6
CONTINUOUS
10
88.9
20
-46.9
11
87.4
21
-46.9
0
LINE
8
BLACK
6
CONTINUOUS
10
87.4
20
-46.9
11
87.4
21
-45.9
0
LINE
8
BLACK
6
CONTINUOUS
10
87.4
20
-45.9
11
88.9
21
-45.9
0
LINE
8
BLACK
6
CONTINUOUS
10
88.9
20
-45.9
11
88.9
21
-46.9
0
LINE
8
BLACK
6
CONTINUOUS
10
93.8
20
-46.9
11
92.3
21
-46.9
0
LINE
8
BLACK
6
CONTINUOUS
10
92.3
20
-46.9
11
92.3
21
-45.9
0
LINE
8
BLACK
6
CONTINUOUS
10
92.3
20
-45.9
11
93.8
21
-45.9
0
LINE
8
BLACK
6
CONTINUOUS
10
93.8
20
-45.9
11
93.8
21
-46.9
0
LINE
8
BLACK
6
CONTINUOUS
10
113.9
20
-46.9
11
112.4
21
-46.9
0
LINE
8
BLACK
6
CONTINUOUS
10
112.4
20
-46.9
11
112.4
21
-45.9
0
LINE
8
BLACK
6
CONTINUOUS
10
112.4
20
-45.9
11
113.9
21
-45.9
0
LINE
8
BLACK
6
CONTINUOUS
10
113.9
20
-45.9
11
113.9
21
-46.9
0
LINE
8
BLACK
6
CONTINUOUS
10
118.8
20
-46.9
11
117.3
21
-46.9
0
LINE
8
BLACK
6
CONTINUOUS
10
117.3
20
-46.9
11
117.3
21
-45.9
0
LINE
8
BLACK
6
CONTINUOUS
10
117.3
20
-45.9
11
118.8
21
-45.9
0
LINE
8
BLACK
6
CONTINUOUS
10
118.8
20
-45.9
11
118.8
21
-46.9
0
LINE
8
BLACK
6
CONTINUOUS
10
138.9
20
-46.9
11
137.4
21
-46.9
0
LINE
8
BLACK
6
CONTINUOUS
10
137.4
20
-46.9
11
137.4
21
-45.9
0
LINE
8
BLACK
6
CONTINUOUS
10
137.4
20
-45.9
11
138.9
21
-45.9
0
LINE
8
BLACK
6
CONTINUOUS
10
138.9
20
-45.9
11
138.9
21
-46.9
0
LINE
8
BLACK
6
CONTINUOUS
10
143.8
20
-46.9
11
142.3
21
-46.9
0
LINE
8
BLACK
6
CONTINUOUS
10
142.3
20
-46.9
11
142.3
21
-45.9
0
LINE
8
BLACK
6
CONTINUOUS
10
142.3
20
-45.9
11
143.8
21
-45.9
0
LINE
8
BLACK
6
CONTINUOUS
10
143.8
20
-45.9
11
143.8
21
-46.9
0
LINE
8
BLACK
6
CONTINUOUS
10
70.9436
20
-46.4674
11
69.826
21
-46.4674
0
LINE
8
BLACK
6
CONTINUOUS
10
69.826
20
-46.4674
11
69.826
21
-46.1118
0
LINE
8
BLACK
6
CONTINUOUS
10
69.826
20
-46.1118
11
70.9436
21
-46.1118
0
LINE
8
BLACK
6
CONTINUOUS
10
70.9436
20
-46.1118
11
70.9436
21
-46.4674
0
LINE
8
BLACK
6
CONTINUOUS
10
72.874
20
-46.4674
11
71.7564
21
-46.4674
0
LINE
8
BLACK
6
CONTINUOUS
10
71.7564
20
-46.4674
11
71.7564
21
-46.1118
0
LINE
8
BLACK
6
CONTINUOUS
10
71.7564
20
-46.1118
11
72.874
21
-46.1118
0
LINE
8
BLACK
6
CONTINUOUS
10
72.874
20
-46.1118
11
72.874
21
-46.4674
0
LINE
8
BLACK
6
CONTINUOUS
10
150.352
20
-43.8474
11
150.433
21
-43.9016
0
LINE
8
BLACK
6
CONTINUOUS
10
150.433
20
-43.9016
11
150.487
21
-43.9827
0
LINE
8
BLACK
6
CONTINUOUS
10
150.487
20
-43.9827
11
150.506
21
-44.0784
0
LINE
8
BLACK
6
CONTINUOUS
10
150.506
20
-44.0784
11
150.506
21
-46.0784
0
LINE
8
BLACK
6
CONTINUOUS
10
150.506
20
-46.0784
11
150.487
21
-46.1741
0
LINE
8
BLACK
6
CONTINUOUS
10
150.487
20
-46.1741
11
150.433
21
-46.2552
0
LINE
8
BLACK
6
CONTINUOUS
10
150.433
20
-46.2552
11
150.352
21
-46.3094
0
LINE
8
BLACK
6
CONTINUOUS
10
150.352
20
-46.3094
11
150.256
21
-46.3284
0
LINE
8
BLACK
6
CONTINUOUS
10
150.256
20
-46.3284
11
148.956
21
-46.3284
0
LINE
8
BLACK
6
CONTINUOUS
10
148.956
20
-46.3284
11
148.86
21
-46.3094
0
LINE
8
BLACK
6
CONTINUOUS
10
148.86
20
-46.3094
11
148.779
21
-46.2552
0
LINE
8
BLACK
6
CONTINUOUS
10
148.779
20
-46.2552
11
148.725
21
-46.1741
0
LINE
8
BLACK
6
CONTINUOUS
10
148.725
20
-46.1741
11
148.706
21
-46.0784
0
LINE
8
BLACK
6
CONTINUOUS
10
148.706
20
-46.0784
11
148.706
21
-44.0784
0
LINE
8
BLACK
6
CONTINUOUS
10
148.706
20
-44.0784
11
148.725
21
-43.9827
0
LINE
8
BLACK
6
CONTINUOUS
10
148.725
20
-43.9827
11
148.779
21
-43.9016
0
LINE
8
BLACK
6
CONTINUOUS
10
148.779
20
-43.9016
11
148.86
21
-43.8474
0
LINE
8
BLACK
6
CONTINUOUS
10
148.86
20
-43.8474
11
148.956
21
-43.8284
0
LINE
8
BLACK
6
CONTINUOUS
10
148.956
20
-43.8284
11
150.256
21
-43.8284
0
LINE
8
BLACK
6
CONTINUOUS
10
150.256
20
-43.8284
11
150.352
21
-43.8474
0
LINE
8
BLACK
6
CONTINUOUS
10
129.34
20
-44.8667
11
129.411
21
-44.9141
0
LINE
8
BLACK
6
CONTINUOUS
10
129.411
20
-44.9141
11
129.458
21
-44.985
0
LINE
8
BLACK
6
CONTINUOUS
10
129.458
20
-44.985
11
129.475
21
-45.0688
0
LINE
8
BLACK
6
CONTINUOUS
10
129.475
20
-45.0688
11
129.475
21
-45.5063
0
LINE
8
BLACK
6
CONTINUOUS
10
129.475
20
-45.5063
11
129.458
21
-45.59
0
LINE
8
BLACK
6
CONTINUOUS
10
129.458
20
-45.59
11
129.411
21
-45.6609
0
LINE
8
BLACK
6
CONTINUOUS
10
129.411
20
-45.6609
11
129.34
21
-45.7083
0
LINE
8
BLACK
6
CONTINUOUS
10
129.34
20
-45.7083
11
129.256
21
-45.725
0
LINE
8
BLACK
6
CONTINUOUS
10
129.256
20
-45.725
11
128.744
21
-45.725
0
LINE
8
BLACK
6
CONTINUOUS
10
128.744
20
-45.725
11
128.66
21
-45.7083
0
LINE
8
BLACK
6
CONTINUOUS
10
128.66
20
-45.7083
11
128.589
21
-45.6609
0
LINE
8
BLACK
6
CONTINUOUS
10
128.589
20
-45.6609
11
128.542
21
-45.59
0
LINE
8
BLACK
6
CONTINUOUS
10
128.542
20
-45.59
11
128.525
21
-45.5063
0
LINE
8
BLACK
6
CONTINUOUS
10
128.525
20
-45.5063
11
128.525
21
-45.0688
0
LINE
8
BLACK
6
CONTINUOUS
10
128.525
20
-45.0688
11
128.542
21
-44.985
0
LINE
8
BLACK
6
CONTINUOUS
10
128.542
20
-44.985
11
128.589
21
-44.9141
0
LINE
8
BLACK
6
CONTINUOUS
10
128.589
20
-44.9141
11
128.66
21
-44.8667
0
LINE
8
BLACK
6
CONTINUOUS
10
128.66
20
-44.8667
11
128.744
21
-44.85
0
LINE
8
BLACK
6
CONTINUOUS
10
128.744
20
-44.85
11
129.256
21
-44.85
0
LINE
8
BLACK
6
CONTINUOUS
10
129.256
20
-44.85
11
129.34
21
-44.8667
0
LINE
8
BLACK
6
CONTINUOUS
10
64.8957
20
-43.294
11
64.9768
21
-43.3482
0
LINE
8
BLACK
6
CONTINUOUS
10
64.9768
20
-43.3482
11
65.031
21
-43.4293
0
LINE
8
BLACK
6
CONTINUOUS
10
65.031
20
-43.4293
11
65.05
21
-43.525
0
LINE
8
BLACK
6
CONTINUOUS
10
65.05
20
-43.525
11
65.05
21
-44.475
0
LINE
8
BLACK
6
CONTINUOUS
10
65.05
20
-44.475
11
65.031
21
-44.5707
0
LINE
8
BLACK
6
CONTINUOUS
10
65.031
20
-44.5707
11
64.9768
21
-44.6518
0
LINE
8
BLACK
6
CONTINUOUS
10
64.9768
20
-44.6518
11
64.8957
21
-44.706
0
LINE
8
BLACK
6
CONTINUOUS
10
64.8957
20
-44.706
11
64.8
21
-44.725
0
LINE
8
BLACK
6
CONTINUOUS
10
64.8
20
-44.725
11
64.3
21
-44.725
0
LINE
8
BLACK
6
CONTINUOUS
10
64.3
20
-44.725
11
64.2043
21
-44.706
0
LINE
8
BLACK
6
CONTINUOUS
10
64.2043
20
-44.706
11
64.1232
21
-44.6518
0
LINE
8
BLACK
6
CONTINUOUS
10
64.1232
20
-44.6518
11
64.069
21
-44.5707
0
LINE
8
BLACK
6
CONTINUOUS
10
64.069
20
-44.5707
11
64.05
21
-44.475
0
LINE
8
BLACK
6
CONTINUOUS
10
64.05
20
-44.475
11
64.05
21
-43.525
0
LINE
8
BLACK
6
CONTINUOUS
10
64.05
20
-43.525
11
64.069
21
-43.4293
0
LINE
8
BLACK
6
CONTINUOUS
10
64.069
20
-43.4293
11
64.1232
21
-43.3482
0
LINE
8
BLACK
6
CONTINUOUS
10
64.1232
20
-43.3482
11
64.2043
21
-43.294
0
LINE
8
BLACK
6
CONTINUOUS
10
64.2043
20
-43.294
11
64.3
21
-43.275
0
LINE
8
BLACK
6
CONTINUOUS
10
64.3
20
-43.275
11
64.8
21
-43.275
0
LINE
8
BLACK
6
CONTINUOUS
10
64.8
20
-43.275
11
64.8957
21
-43.294
0
LINE
8
BLACK
6
CONTINUOUS
10
66.7957
20
-43.294
11
66.8768
21
-43.3482
0
LINE
8
BLACK
6
CONTINUOUS
10
66.8768
20
-43.3482
11
66.931
21
-43.4293
0
LINE
8
BLACK
6
CONTINUOUS
10
66.931
20
-43.4293
11
66.95
21
-43.525
0
LINE
8
BLACK
6
CONTINUOUS
10
66.95
20
-43.525
11
66.95
21
-44.475
0
LINE
8
BLACK
6
CONTINUOUS
10
66.95
20
-44.475
11
66.931
21
-44.5707
0
LINE
8
BLACK
6
CONTINUOUS
10
66.931
20
-44.5707
11
66.8768
21
-44.6518
0
LINE
8
BLACK
6
CONTINUOUS
10
66.8768
20
-44.6518
11
66.7957
21
-44.706
0
LINE
8
BLACK
6
CONTINUOUS
10
66.7957
20
-44.706
11
66.7
21
-44.725
0
LINE
8
BLACK
6
CONTINUOUS
10
66.7
20
-44.725
11
66.2
21
-44.725
0
LINE
8
BLACK
6
CONTINUOUS
10
66.2
20
-44.725
11
66.1043
21
-44.706
0
LINE
8
BLACK
6
CONTINUOUS
10
66.1043
20
-44.706
11
66.0232
21
-44.6518
0
LINE
8
BLACK
6
CONTINUOUS
10
66.0232
20
-44.6518
11
65.969
21
-44.5707
0
LINE
8
BLACK
6
CONTINUOUS
10
65.969
20
-44.5707
11
65.95
21
-44.475
0
LINE
8
BLACK
6
CONTINUOUS
10
65.95
20
-44.475
11
65.95
21
-43.525
0
LINE
8
BLACK
6
CONTINUOUS
10
65.95
20
-43.525
11
65.969
21
-43.4293
0
LINE
8
BLACK
6
CONTINUOUS
10
65.969
20
-43.4293
11
66.0232
21
-43.3482
0
LINE
8
BLACK
6
CONTINUOUS
10
66.0232
20
-43.3482
11
66.1043
21
-43.294
0
LINE
8
BLACK
6
CONTINUOUS
10
66.1043
20
-43.294
11
66.2
21
-43.275
0
LINE
8
BLACK
6
CONTINUOUS
10
66.2
20
-43.275
11
66.7
21
-43.275
0
LINE
8
BLACK
6
CONTINUOUS
10
66.7
20
-43.275
11
66.7957
21
-43.294
0
LINE
8
BLACK
6
CONTINUOUS
10
89.8957
20
-43.294
11
89.9768
21
-43.3482
0
LINE
8
BLACK
6
CONTINUOUS
10
89.9768
20
-43.3482
11
90.031
21
-43.4293
0
LINE
8
BLACK
6
CONTINUOUS
10
90.031
20
-43.4293
11
90.05
21
-43.525
0
LINE
8
BLACK
6
CONTINUOUS
10
90.05
20
-43.525
11
90.05
21
-44.475
0
LINE
8
BLACK
6
CONTINUOUS
10
90.05
20
-44.475
11
90.031
21
-44.5707
0
LINE
8
BLACK
6
CONTINUOUS
10
90.031
20
-44.5707
11
89.9768
21
-44.6518
0
LINE
8
BLACK
6
CONTINUOUS
10
89.9768
20
-44.6518
11
89.8957
21
-44.706
0
LINE
8
BLACK
6
CONTINUOUS
10
89.8957
20
-44.706
11
89.8
21
-44.725
0
LINE
8
BLACK
6
CONTINUOUS
10
89.8
20
-44.725
11
89.3
21
-44.725
0
LINE
8
BLACK
6
CONTINUOUS
10
89.3
20
-44.725
11
89.2043
21
-44.706
0
LINE
8
BLACK
6
CONTINUOUS
10
89.2043
20
-44.706
11
89.1232
21
-44.6518
0
LINE
8
BLACK
6
CONTINUOUS
10
89.1232
20
-44.6518
11
89.069
21
-44.5707
0
LINE
8
BLACK
6
CONTINUOUS
10
89.069
20
-44.5707
11
89.05
21
-44.475
0
LINE
8
BLACK
6
CONTINUOUS
10
89.05
20
-44.475
11
89.05
21
-43.525
0
LINE
8
BLACK
6
CONTINUOUS
10
89.05
20
-43.525
11
89.069
21
-43.4293
0
LINE
8
BLACK
6
CONTINUOUS
10
89.069
20
-43.4293
11
89.1232
21
-43.3482
0
LINE
8
BLACK
6
CONTINUOUS
10
89.1232
20
-43.3482
11
89.2043
21
-43.294
0
LINE
8
BLACK
6
CONTINUOUS
10
89.2043
20
-43.294
11
89.3
21
-43.275
0
LINE
8
BLACK
6
CONTINUOUS
10
89.3
20
-43.275
11
89.8
21
-43.275
0
LINE
8
BLACK
6
CONTINUOUS
10
89.8
20
-43.275
11
89.8957
21
-43.294
0
LINE
8
BLACK
6
CONTINUOUS
10
91.7957
20
-43.294
11
91.8768
21
-43.3482
0
LINE
8
BLACK
6
CONTINUOUS
10
91.8768
20
-43.3482
11
91.931
21
-43.4293
0
LINE
8
BLACK
6
CONTINUOUS
10
91.931
20
-43.4293
11
91.95
21
-43.525
0
LINE
8
BLACK
6
CONTINUOUS
10
91.95
20
-43.525
11
91.95
21
-44.475
0
LINE
8
BLACK
6
CONTINUOUS
10
91.95
20
-44.475
11
91.931
21
-44.5707
0
LINE
8
BLACK
6
CONTINUOUS
10
91.931
20
-44.5707
11
91.8768
21
-44.6518
0
LINE
8
BLACK
6
CONTINUOUS
10
91.8768
20
-44.6518
11
91.7957
21
-44.706
0
LINE
8
BLACK
6
CONTINUOUS
10
91.7957
20
-44.706
11
91.7
21
-44.725
0
LINE
8
BLACK
6
CONTINUOUS
10
91.7
20
-44.725
11
91.2
21
-44.725
0
LINE
8
BLACK
6
CONTINUOUS
10
91.2
20
-44.725
11
91.1043
21
-44.706
0
LINE
8
BLACK
6
CONTINUOUS
10
91.1043
20
-44.706
11
91.0232
21
-44.6518
0
LINE
8
BLACK
6
CONTINUOUS
10
91.0232
20
-44.6518
11
90.969
21
-44.5707
0
LINE
8
BLACK
6
CONTINUOUS
10
90.969
20
-44.5707
11
90.95
21
-44.475
0
LINE
8
BLACK
6
CONTINUOUS
10
90.95
20
-44.475
11
90.95
21
-43.525
0
LINE
8
BLACK
6
CONTINUOUS
10
90.95
20
-43.525
11
90.969
21
-43.4293
0
LINE
8
BLACK
6
CONTINUOUS
10
90.969
20
-43.4293
11
91.0232
21
-43.3482
0
LINE
8
BLACK
6
CONTINUOUS
10
91.0232
20
-43.3482
11
91.1043
21
-43.294
0
LINE
8
BLACK
6
CONTINUOUS
10
91.1043
20
-43.294
11
91.2
21
-43.275
0
LINE
8
BLACK
6
CONTINUOUS
10
91.2
20
-43.275
11
91.7
21
-43.275
0
LINE
8
BLACK
6
CONTINUOUS
10
91.7
20
-43.275
11
91.7957
21
-43.294
0
LINE
8
BLACK
6
CONTINUOUS
10
114.896
20
-43.294
11
114.977
21
-43.3482
0
LINE
8
BLACK
6
CONTINUOUS
10
114.977
20
-43.3482
11
115.031
21
-43.4293
0
LINE
8
BLACK
6
CONTINUOUS
10
115.031
20
-43.4293
11
115.05
21
-43.525
0
LINE
8
BLACK
6
CONTINUOUS
10
115.05
20
-43.525
11
115.05
21
-44.475
0
LINE
8
BLACK
6
CONTINUOUS
10
115.05
20
-44.475
11
115.031
21
-44.5707
0
LINE
8
BLACK
6
CONTINUOUS
10
115.031
20
-44.5707
11
114.977
21
-44.6518
0
LINE
8
BLACK
6
CONTINUOUS
10
114.977
20
-44.6518
11
114.896
21
-44.706
0
LINE
8
BLACK
6
CONTINUOUS
10
114.896
20
-44.706
11
114.8
21
-44.725
0
LINE
8
BLACK
6
CONTINUOUS
10
114.8
20
-44.725
11
114.3
21
-44.725
0
LINE
8
BLACK
6
CONTINUOUS
10
114.3
20
-44.725
11
114.204
21
-44.706
0
LINE
8
BLACK
6
CONTINUOUS
10
114.204
20
-44.706
11
114.123
21
-44.6518
0
LINE
8
BLACK
6
CONTINUOUS
10
114.123
20
-44.6518
11
114.069
21
-44.5707
0
LINE
8
BLACK
6
CONTINUOUS
10
114.069
20
-44.5707
11
114.05
21
-44.475
0
LINE
8
BLACK
6
CONTINUOUS
10
114.05
20
-44.475
11
114.05
21
-43.525
0
LINE
8
BLACK
6
CONTINUOUS
10
114.05
20
-43.525
11
114.069
21
-43.4293
0
LINE
8
BLACK
6
CONTINUOUS
10
114.069
20
-43.4293
11
114.123
21
-43.3482
0
LINE
8
BLACK
6
CONTINUOUS
10
114.123
20
-43.3482
11
114.204
21
-43.294
0
LINE
8
BLACK
6
CONTINUOUS
10
114.204
20
-43.294
11
114.3
21
-43.275
0
LINE
8
BLACK
6
CONTINUOUS
10
114.3
20
-43.275
11
114.8
21
-43.275
0
LINE
8
BLACK
6
CONTINUOUS
10
114.8
20
-43.275
11
114.896
21
-43.294
0
LINE
8
BLACK
6
CONTINUOUS
10
116.796
20
-43.294
11
116.877
21
-43.3482
0
LINE
8
BLACK
6
CONTINUOUS
10
116.877
20
-43.3482
11
116.931
21
-43.4293
0
LINE
8
BLACK
6
CONTINUOUS
10
116.931
20
-43.4293
11
116.95
21
-43.525
0
LINE
8
BLACK
6
CONTINUOUS
10
116.95
20
-43.525
11
116.95
21
-44.475
0
LINE
8
BLACK
6
CONTINUOUS
10
116.95
20
-44.475
11
116.931
21
-44.5707
0
LINE
8
BLACK
6
CONTINUOUS
10
116.931
20
-44.5707
11
116.877
21
-44.6518
0
LINE
8
BLACK
6
CONTINUOUS
10
116.877
20
-44.6518
11
116.796
21
-44.706
0
LINE
8
BLACK
6
CONTINUOUS
10
116.796
20
-44.706
11
116.7
21
-44.725
0
LINE
8
BLACK
6
CONTINUOUS
10
116.7
20
-44.725
11
116.2
21
-44.725
0
LINE
8
BLACK
6
CONTINUOUS
10
116.2
20
-44.725
11
116.104
21
-44.706
0
LINE
8
BLACK
6
CONTINUOUS
10
116.104
20
-44.706
11
116.023
21
-44.6518
0
LINE
8
BLACK
6
CONTINUOUS
10
116.023
20
-44.6518
11
115.969
21
-44.5707
0
LINE
8
BLACK
6
CONTINUOUS
10
115.969
20
-44.5707
11
115.95
21
-44.475
0
LINE
8
BLACK
6
CONTINUOUS
10
115.95
20
-44.475
11
115.95
21
-43.525
0
LINE
8
BLACK
6
CONTINUOUS
10
115.95
20
-43.525
11
115.969
21
-43.4293
0
LINE
8
BLACK
6
CONTINUOUS
10
115.969
20
-43.4293
11
116.023
21
-43.3482
0
LINE
8
BLACK
6
CONTINUOUS
10
116.023
20
-43.3482
11
116.104
21
-43.294
0
LINE
8
BLACK
6
CONTINUOUS
10
116.104
20
-43.294
11
116.2
21
-43.275
0
LINE
8
BLACK
6
CONTINUOUS
10
116.2
20
-43.275
11
116.7
21
-43.275
0
LINE
8
BLACK
6
CONTINUOUS
10
116.7
20
-43.275
11
116.796
21
-43.294
0
LINE
8
BLACK
6
CONTINUOUS
10
139.896
20
-43.294
11
139.977
21
-43.3482
0
LINE
8
BLACK
6
CONTINUOUS
10
139.977
20
-43.3482
11
140.031
21
-43.4293
0
LINE
8
BLACK
6
CONTINUOUS
10
140.031
20
-43.4293
11
140.05
21
-43.525
0
LINE
8
BLACK
6
CONTINUOUS
10
140.05
20
-43.525
11
140.05
21
-44.475
0
LINE
8
BLACK
6
CONTINUOUS
10
140.05
20
-44.475
11
140.031
21
-44.5707
0
LINE
8
BLACK
6
CONTINUOUS
10
140.031
20
-44.5707
11
139.977
21
-44.6518
0
LINE
8
BLACK
6
CONTINUOUS
10
139.977
20
-44.6518
11
139.896
21
-44.706
0
LINE
8
BLACK
6
CONTINUOUS
10
139.896
20
-44.706
11
139.8
21
-44.725
0
LINE
8
BLACK
6
CONTINUOUS
10
139.8
20
-44.725
11
139.3
21
-44.725
0
LINE
8
BLACK
6
CONTINUOUS
10
139.3
20
-44.725
11
139.204
21
-44.706
0
LINE
8
BLACK
6
CONTINUOUS
10
139.204
20
-44.706
11
139.123
21
-44.6518
0
LINE
8
BLACK
6
CONTINUOUS
10
139.123
20
-44.6518
11
139.069
21
-44.5707
0
LINE
8
BLACK
6
CONTINUOUS
10
139.069
20
-44.5707
11
139.05
21
-44.475
0
LINE
8
BLACK
6
CONTINUOUS
10
139.05
20
-44.475
11
139.05
21
-43.525
0
LINE
8
BLACK
6
CONTINUOUS
10
139.05
20
-43.525
11
139.069
21
-43.4293
0
LINE
8
BLACK
6
CONTINUOUS
10
139.069
20
-43.4293
11
139.123
21
-43.3482
0
LINE
8
BLACK
6
CONTINUOUS
10
139.123
20
-43.3482
11
139.204
21
-43.294
0
LINE
8
BLACK
6
CONTINUOUS
10
139.204
20
-43.294
11
139.3
21
-43.275
0
LINE
8
BLACK
6
CONTINUOUS
10
139.3
20
-43.275
11
139.8
21
-43.275
0
LINE
8
BLACK
6
CONTINUOUS
10
139.8
20
-43.275
11
139.896
21
-43.294
0
LINE
8
BLACK
6
CONTINUOUS
10
141.796
20
-43.294
11
141.877
21
-43.3482
0
LINE
8
BLACK
6
CONTINUOUS
10
141.877
20
-43.3482
11
141.931
21
-43.4293
0
LINE
8
BLACK
6
CONTINUOUS
10
141.931
20
-43.4293
11
141.95
21
-43.525
0
LINE
8
BLACK
6
CONTINUOUS
10
141.95
20
-43.525
11
141.95
21
-44.475
0
LINE
8
BLACK
6
CONTINUOUS
10
141.95
20
-44.475
11
141.931
21
-44.5707
0
LINE
8
BLACK
6
CONTINUOUS
10
141.931
20
-44.5707
11
141.877
21
-44.6518
0
LINE
8
BLACK
6
CONTINUOUS
10
141.877
20
-44.6518
11
141.796
21
-44.706
0
LINE
8
BLACK
6
CONTINUOUS
10
141.796
20
-44.706
11
141.7
21
-44.725
0
LINE
8
BLACK
6
CONTINUOUS
10
141.7
20
-44.725
11
141.2
21
-44.725
0
LINE
8
BLACK
6
CONTINUOUS
10
141.2
20
-44.725
11
141.104
21
-44.706
0
LINE
8
BLACK
6
CONTINUOUS
10
141.104
20
-44.706
11
141.023
21
-44.6518
0
LINE
8
BLACK
6
CONTINUOUS
10
141.023
20
-44.6518
11
140.969
21
-44.5707
0
LINE
8
BLACK
6
CONTINUOUS
10
140.969
20
-44.5707
11
140.95
21
-44.475
0
LINE
8
BLACK
6
CONTINUOUS
10
140.95
20
-44.475
11
140.95
21
-43.525
0
LINE
8
BLACK
6
CONTINUOUS
10
140.95
20
-43.525
11
140.969
21
-43.4293
0
LINE
8
BLACK
6
CONTINUOUS
10
140.969
20
-43.4293
11
141.023
21
-43.3482
0
LINE
8
BLACK
6
CONTINUOUS
10
141.023
20
-43.3482
11
141.104
21
-43.294
0
LINE
8
BLACK
6
CONTINUOUS
10
141.104
20
-43.294
11
141.2
21
-43.275
0
LINE
8
BLACK
6
CONTINUOUS
10
141.2
20
-43.275
11
141.7
21
-43.275
0
LINE
8
BLACK
6
CONTINUOUS
10
141.7
20
-43.275
11
141.796
21
-43.294
0
LINE
8
BLACK
6
CONTINUOUS
10
158.046
20
-43.144
11
158.127
21
-43.1982
0
LINE
8
BLACK
6
CONTINUOUS
10
158.127
20
-43.1982
11
158.181
21
-43.2793
0
LINE
8
BLACK
6
CONTINUOUS
10
158.181
20
-43.2793
11
158.2
21
-43.375
0
LINE
8
BLACK
6
CONTINUOUS
10
158.2
20
-43.375
11
158.2
21
-44.325
0
LINE
8
BLACK
6
CONTINUOUS
10
158.2
20
-44.325
11
158.181
21
-44.4207
0
LINE
8
BLACK
6
CONTINUOUS
10
158.181
20
-44.4207
11
158.127
21
-44.5018
0
LINE
8
BLACK
6
CONTINUOUS
10
158.127
20
-44.5018
11
158.046
21
-44.556
0
LINE
8
BLACK
6
CONTINUOUS
10
158.046
20
-44.556
11
157.95
21
-44.575
0
LINE
8
BLACK
6
CONTINUOUS
10
157.95
20
-44.575
11
157.45
21
-44.575
0
LINE
8
BLACK
6
CONTINUOUS
10
157.45
20
-44.575
11
157.354
21
-44.556
0
LINE
8
BLACK
6
CONTINUOUS
10
157.354
20
-44.556
11
157.273
21
-44.5018
0
LINE
8
BLACK
6
CONTINUOUS
10
157.273
20
-44.5018
11
157.219
21
-44.4207
0
LINE
8
BLACK
6
CONTINUOUS
10
157.219
20
-44.4207
11
157.2
21
-44.325
0
LINE
8
BLACK
6
CONTINUOUS
10
157.2
20
-44.325
11
157.2
21
-43.375
0
LINE
8
BLACK
6
CONTINUOUS
10
157.2
20
-43.375
11
157.219
21
-43.2793
0
LINE
8
BLACK
6
CONTINUOUS
10
157.219
20
-43.2793
11
157.273
21
-43.1982
0
LINE
8
BLACK
6
CONTINUOUS
10
157.273
20
-43.1982
11
157.354
21
-43.144
0
LINE
8
BLACK
6
CONTINUOUS
10
157.354
20
-43.144
11
157.45
21
-43.125
0
LINE
8
BLACK
6
CONTINUOUS
10
157.45
20
-43.125
11
157.95
21
-43.125
0
LINE
8
BLACK
6
CONTINUOUS
10
157.95
20
-43.125
11
158.046
21
-43.144
0
LINE
8
BLACK
6
CONTINUOUS
10
159.946
20
-43.144
11
160.027
21
-43.1982
0
LINE
8
BLACK
6
CONTINUOUS
10
160.027
20
-43.1982
11
160.081
21
-43.2793
0
LINE
8
BLACK
6
CONTINUOUS
10
160.081
20
-43.2793
11
160.1
21
-43.375
0
LINE
8
BLACK
6
CONTINUOUS
10
160.1
20
-43.375
11
160.1
21
-44.325
0
LINE
8
BLACK
6
CONTINUOUS
10
160.1
20
-44.325
11
160.081
21
-44.4207
0
LINE
8
BLACK
6
CONTINUOUS
10
160.081
20
-44.4207
11
160.027
21
-44.5018
0
LINE
8
BLACK
6
CONTINUOUS
10
160.027
20
-44.5018
11
159.946
21
-44.556
0
LINE
8
BLACK
6
CONTINUOUS
10
159.946
20
-44.556
11
159.85
21
-44.575
0
LINE
8
BLACK
6
CONTINUOUS
10
159.85
20
-44.575
11
159.35
21
-44.575
0
LINE
8
BLACK
6
CONTINUOUS
10
159.35
20
-44.575
11
159.254
21
-44.556
0
LINE
8
BLACK
6
CONTINUOUS
10
159.254
20
-44.556
11
159.173
21
-44.5018
0
LINE
8
BLACK
6
CONTINUOUS
10
159.173
20
-44.5018
11
159.119
21
-44.4207
0
LINE
8
BLACK
6
CONTINUOUS
10
159.119
20
-44.4207
11
159.1
21
-44.325
0
LINE
8
BLACK
6
CONTINUOUS
10
159.1
20
-44.325
11
159.1
21
-43.375
0
LINE
8
BLACK
6
CONTINUOUS
10
159.1
20
-43.375
11
159.119
21
-43.2793
0
LINE
8
BLACK
6
CONTINUOUS
10
159.119
20
-43.2793
11
159.173
21
-43.1982
0
LINE
8
BLACK
6
CONTINUOUS
10
159.173
20
-43.1982
11
159.254
21
-43.144
0
LINE
8
BLACK
6
CONTINUOUS
10
159.254
20
-43.144
11
159.35
21
-43.125
0
LINE
8
BLACK
6
CONTINUOUS
10
159.35
20
-43.125
11
159.85
21
-43.125
0
LINE
8
BLACK
6
CONTINUOUS
10
159.85
20
-43.125
11
159.946
21
-43.144
0
LINE
8
BLACK
6
CONTINUOUS
10
155.671
20
-42.994
11
155.752
21
-43.0482
0
LINE
8
BLACK
6
CONTINUOUS
10
155.752
20
-43.0482
11
155.806
21
-43.1293
0
LINE
8
BLACK
6
CONTINUOUS
10
155.806
20
-43.1293
11
155.825
21
-43.225
0
LINE
8
BLACK
6
CONTINUOUS
10
155.825
20
-43.225
11
155.825
21
-43.975
0
LINE
8
BLACK
6
CONTINUOUS
10
155.825
20
-43.975
11
155.806
21
-44.0707
0
LINE
8
BLACK
6
CONTINUOUS
10
155.806
20
-44.0707
11
155.752
21
-44.1518
0
LINE
8
BLACK
6
CONTINUOUS
10
155.752
20
-44.1518
11
155.671
21
-44.206
0
LINE
8
BLACK
6
CONTINUOUS
10
155.671
20
-44.206
11
155.575
21
-44.225
0
LINE
8
BLACK
6
CONTINUOUS
10
155.575
20
-44.225
11
153.425
21
-44.225
0
LINE
8
BLACK
6
CONTINUOUS
10
153.425
20
-44.225
11
153.329
21
-44.206
0
LINE
8
BLACK
6
CONTINUOUS
10
153.329
20
-44.206
11
153.248
21
-44.1518
0
LINE
8
BLACK
6
CONTINUOUS
10
153.248
20
-44.1518
11
153.194
21
-44.0707
0
LINE
8
BLACK
6
CONTINUOUS
10
153.194
20
-44.0707
11
153.175
21
-43.975
0
LINE
8
BLACK
6
CONTINUOUS
10
153.175
20
-43.975
11
153.175
21
-43.225
0
LINE
8
BLACK
6
CONTINUOUS
10
153.175
20
-43.225
11
153.194
21
-43.1293
0
LINE
8
BLACK
6
CONTINUOUS
10
153.194
20
-43.1293
11
153.248
21
-43.0482
0
LINE
8
BLACK
6
CONTINUOUS
10
153.248
20
-43.0482
11
153.329
21
-42.994
0
LINE
8
BLACK
6
CONTINUOUS
10
153.329
20
-42.994
11
153.425
21
-42.975
0
LINE
8
BLACK
6
CONTINUOUS
10
153.425
20
-42.975
11
155.575
21
-42.975
0
LINE
8
BLACK
6
CONTINUOUS
10
155.575
20
-42.975
11
155.671
21
-42.994
0
LINE
8
BLACK
6
CONTINUOUS
10
129.34
20
-43.2917
11
129.411
21
-43.3391
0
LINE
8
BLACK
6
CONTINUOUS
10
129.411
20
-43.3391
11
129.458
21
-43.41
0
LINE
8
BLACK
6
CONTINUOUS
10
129.458
20
-43.41
11
129.475
21
-43.4937
0
LINE
8
BLACK
6
CONTINUOUS
10
129.475
20
-43.4937
11
129.475
21
-43.9312
0
LINE
8
BLACK
6
CONTINUOUS
10
129.475
20
-43.9312
11
129.458
21
-44.015
0
LINE
8
BLACK
6
CONTINUOUS
10
129.458
20
-44.015
11
129.411
21
-44.0859
0
LINE
8
BLACK
6
CONTINUOUS
10
129.411
20
-44.0859
11
129.34
21
-44.1333
0
LINE
8
BLACK
6
CONTINUOUS
10
129.34
20
-44.1333
11
129.256
21
-44.15
0
LINE
8
BLACK
6
CONTINUOUS
10
129.256
20
-44.15
11
128.744
21
-44.15
0
LINE
8
BLACK
6
CONTINUOUS
10
128.744
20
-44.15
11
128.66
21
-44.1333
0
LINE
8
BLACK
6
CONTINUOUS
10
128.66
20
-44.1333
11
128.589
21
-44.0859
0
LINE
8
BLACK
6
CONTINUOUS
10
128.589
20
-44.0859
11
128.542
21
-44.015
0
LINE
8
BLACK
6
CONTINUOUS
10
128.542
20
-44.015
11
128.525
21
-43.9312
0
LINE
8
BLACK
6
CONTINUOUS
10
128.525
20
-43.9312
11
128.525
21
-43.4937
0
LINE
8
BLACK
6
CONTINUOUS
10
128.525
20
-43.4937
11
128.542
21
-43.41
0
LINE
8
BLACK
6
CONTINUOUS
10
128.542
20
-43.41
11
128.589
21
-43.3391
0
LINE
8
BLACK
6
CONTINUOUS
10
128.589
20
-43.3391
11
128.66
21
-43.2917
0
LINE
8
BLACK
6
CONTINUOUS
10
128.66
20
-43.2917
11
128.744
21
-43.275
0
LINE
8
BLACK
6
CONTINUOUS
10
128.744
20
-43.275
11
129.256
21
-43.275
0
LINE
8
BLACK
6
CONTINUOUS
10
129.256
20
-43.275
11
129.34
21
-43.2917
0
LINE
8
BLACK
6
CONTINUOUS
10
129.396
20
-41.194
11
129.477
21
-41.2482
0
LINE
8
BLACK
6
CONTINUOUS
10
129.477
20
-41.2482
11
129.531
21
-41.3293
0
LINE
8
BLACK
6
CONTINUOUS
10
129.531
20
-41.3293
11
129.55
21
-41.425
0
LINE
8
BLACK
6
CONTINUOUS
10
129.55
20
-41.425
11
129.55
21
-42.375
0
LINE
8
BLACK
6
CONTINUOUS
10
129.55
20
-42.375
11
129.531
21
-42.4707
0
LINE
8
BLACK
6
CONTINUOUS
10
129.531
20
-42.4707
11
129.477
21
-42.5518
0
LINE
8
BLACK
6
CONTINUOUS
10
129.477
20
-42.5518
11
129.396
21
-42.606
0
LINE
8
BLACK
6
CONTINUOUS
10
129.396
20
-42.606
11
129.3
21
-42.625
0
LINE
8
BLACK
6
CONTINUOUS
10
129.3
20
-42.625
11
128.8
21
-42.625
0
LINE
8
BLACK
6
CONTINUOUS
10
128.8
20
-42.625
11
128.704
21
-42.606
0
LINE
8
BLACK
6
CONTINUOUS
10
128.704
20
-42.606
11
128.623
21
-42.5518
0
LINE
8
BLACK
6
CONTINUOUS
10
128.623
20
-42.5518
11
128.569
21
-42.4707
0
LINE
8
BLACK
6
CONTINUOUS
10
128.569
20
-42.4707
11
128.55
21
-42.375
0
LINE
8
BLACK
6
CONTINUOUS
10
128.55
20
-42.375
11
128.55
21
-41.425
0
LINE
8
BLACK
6
CONTINUOUS
10
128.55
20
-41.425
11
128.569
21
-41.3293
0
LINE
8
BLACK
6
CONTINUOUS
10
128.569
20
-41.3293
11
128.623
21
-41.2482
0
LINE
8
BLACK
6
CONTINUOUS
10
128.623
20
-41.2482
11
128.704
21
-41.194
0
LINE
8
BLACK
6
CONTINUOUS
10
128.704
20
-41.194
11
128.8
21
-41.175
0
LINE
8
BLACK
6
CONTINUOUS
10
128.8
20
-41.175
11
129.3
21
-41.175
0
LINE
8
BLACK
6
CONTINUOUS
10
129.3
20
-41.175
11
129.396
21
-41.194
0
LINE
8
BLACK
6
CONTINUOUS
10
131.296
20
-41.194
11
131.377
21
-41.2482
0
LINE
8
BLACK
6
CONTINUOUS
10
131.377
20
-41.2482
11
131.431
21
-41.3293
0
LINE
8
BLACK
6
CONTINUOUS
10
131.431
20
-41.3293
11
131.45
21
-41.425
0
LINE
8
BLACK
6
CONTINUOUS
10
131.45
20
-41.425
11
131.45
21
-42.375
0
LINE
8
BLACK
6
CONTINUOUS
10
131.45
20
-42.375
11
131.431
21
-42.4707
0
LINE
8
BLACK
6
CONTINUOUS
10
131.431
20
-42.4707
11
131.377
21
-42.5518
0
LINE
8
BLACK
6
CONTINUOUS
10
131.377
20
-42.5518
11
131.296
21
-42.606
0
LINE
8
BLACK
6
CONTINUOUS
10
131.296
20
-42.606
11
131.2
21
-42.625
0
LINE
8
BLACK
6
CONTINUOUS
10
131.2
20
-42.625
11
130.7
21
-42.625
0
LINE
8
BLACK
6
CONTINUOUS
10
130.7
20
-42.625
11
130.604
21
-42.606
0
LINE
8
BLACK
6
CONTINUOUS
10
130.604
20
-42.606
11
130.523
21
-42.5518
0
LINE
8
BLACK
6
CONTINUOUS
10
130.523
20
-42.5518
11
130.469
21
-42.4707
0
LINE
8
BLACK
6
CONTINUOUS
10
130.469
20
-42.4707
11
130.45
21
-42.375
0
LINE
8
BLACK
6
CONTINUOUS
10
130.45
20
-42.375
11
130.45
21
-41.425
0
LINE
8
BLACK
6
CONTINUOUS
10
130.45
20
-41.425
11
130.469
21
-41.3293
0
LINE
8
BLACK
6
CONTINUOUS
10
130.469
20
-41.3293
11
130.523
21
-41.2482
0
LINE
8
BLACK
6
CONTINUOUS
10
130.523
20
-41.2482
11
130.604
21
-41.194
0
LINE
8
BLACK
6
CONTINUOUS
10
130.604
20
-41.194
11
130.7
21
-41.175
0
LINE
8
BLACK
6
CONTINUOUS
10
130.7
20
-41.175
11
131.2
21
-41.175
0
LINE
8
BLACK
6
CONTINUOUS
10
131.2
20
-41.175
11
131.296
21
-41.194
0
LINE
8
BLACK
6
CONTINUOUS
10
150.352
20
-39.8474
11
150.433
21
-39.9016
0
LINE
8
BLACK
6
CONTINUOUS
10
150.433
20
-39.9016
11
150.487
21
-39.9827
0
LINE
8
BLACK
6
CONTINUOUS
10
150.487
20
-39.9827
11
150.506
21
-40.0784
0
LINE
8
BLACK
6
CONTINUOUS
10
150.506
20
-40.0784
11
150.506
21
-42.0784
0
LINE
8
BLACK
6
CONTINUOUS
10
150.506
20
-42.0784
11
150.487
21
-42.1741
0
LINE
8
BLACK
6
CONTINUOUS
10
150.487
20
-42.1741
11
150.433
21
-42.2552
0
LINE
8
BLACK
6
CONTINUOUS
10
150.433
20
-42.2552
11
150.352
21
-42.3094
0
LINE
8
BLACK
6
CONTINUOUS
10
150.352
20
-42.3094
11
150.256
21
-42.3284
0
LINE
8
BLACK
6
CONTINUOUS
10
150.256
20
-42.3284
11
148.956
21
-42.3284
0
LINE
8
BLACK
6
CONTINUOUS
10
148.956
20
-42.3284
11
148.86
21
-42.3094
0
LINE
8
BLACK
6
CONTINUOUS
10
148.86
20
-42.3094
11
148.779
21
-42.2552
0
LINE
8
BLACK
6
CONTINUOUS
10
148.779
20
-42.2552
11
148.725
21
-42.1741
0
LINE
8
BLACK
6
CONTINUOUS
10
148.725
20
-42.1741
11
148.706
21
-42.0784
0
LINE
8
BLACK
6
CONTINUOUS
10
148.706
20
-42.0784
11
148.706
21
-40.0784
0
LINE
8
BLACK
6
CONTINUOUS
10
148.706
20
-40.0784
11
148.725
21
-39.9827
0
LINE
8
BLACK
6
CONTINUOUS
10
148.725
20
-39.9827
11
148.779
21
-39.9016
0
LINE
8
BLACK
6
CONTINUOUS
10
148.779
20
-39.9016
11
148.86
21
-39.8474
0
LINE
8
BLACK
6
CONTINUOUS
10
148.86
20
-39.8474
11
148.956
21
-39.8284
0
LINE
8
BLACK
6
CONTINUOUS
10
148.956
20
-39.8284
11
150.256
21
-39.8284
0
LINE
8
BLACK
6
CONTINUOUS
10
150.256
20
-39.8284
11
150.352
21
-39.8474
0
LINE
8
BLACK
6
CONTINUOUS
10
158.378
20
-36.269
11
158.459
21
-36.3232
0
LINE
8
BLACK
6
CONTINUOUS
10
158.459
20
-36.3232
11
158.513
21
-36.4043
0
LINE
8
BLACK
6
CONTINUOUS
10
158.513
20
-36.4043
11
158.532
21
-36.5
0
LINE
8
BLACK
6
CONTINUOUS
10
158.532
20
-36.5
11
158.532
21
-38.5
0
LINE
8
BLACK
6
CONTINUOUS
10
158.532
20
-38.5
11
158.513
21
-38.5957
0
LINE
8
BLACK
6
CONTINUOUS
10
158.513
20
-38.5957
11
158.459
21
-38.6768
0
LINE
8
BLACK
6
CONTINUOUS
10
158.459
20
-38.6768
11
158.378
21
-38.731
0
LINE
8
BLACK
6
CONTINUOUS
10
158.378
20
-38.731
11
158.282
21
-38.75
0
LINE
8
BLACK
6
CONTINUOUS
10
158.282
20
-38.75
11
154.782
21
-38.75
0
LINE
8
BLACK
6
CONTINUOUS
10
154.782
20
-38.75
11
154.687
21
-38.731
0
LINE
8
BLACK
6
CONTINUOUS
10
154.687
20
-38.731
11
154.606
21
-38.6768
0
LINE
8
BLACK
6
CONTINUOUS
10
154.606
20
-38.6768
11
154.551
21
-38.5957
0
LINE
8
BLACK
6
CONTINUOUS
10
154.551
20
-38.5957
11
154.532
21
-38.5
0
LINE
8
BLACK
6
CONTINUOUS
10
154.532
20
-38.5
11
154.532
21
-36.5
0
LINE
8
BLACK
6
CONTINUOUS
10
154.532
20
-36.5
11
154.551
21
-36.4043
0
LINE
8
BLACK
6
CONTINUOUS
10
154.551
20
-36.4043
11
154.606
21
-36.3232
0
LINE
8
BLACK
6
CONTINUOUS
10
154.606
20
-36.3232
11
154.687
21
-36.269
0
LINE
8
BLACK
6
CONTINUOUS
10
154.687
20
-36.269
11
154.782
21
-36.25
0
LINE
8
BLACK
6
CONTINUOUS
10
154.782
20
-36.25
11
158.282
21
-36.25
0
LINE
8
BLACK
6
CONTINUOUS
10
158.282
20
-36.25
11
158.378
21
-36.269
0
LINE
8
BLACK
6
CONTINUOUS
10
166.378
20
-36.269
11
166.459
21
-36.3232
0
LINE
8
BLACK
6
CONTINUOUS
10
166.459
20
-36.3232
11
166.513
21
-36.4043
0
LINE
8
BLACK
6
CONTINUOUS
10
166.513
20
-36.4043
11
166.532
21
-36.5
0
LINE
8
BLACK
6
CONTINUOUS
10
166.532
20
-36.5
11
166.532
21
-38.5
0
LINE
8
BLACK
6
CONTINUOUS
10
166.532
20
-38.5
11
166.513
21
-38.5957
0
LINE
8
BLACK
6
CONTINUOUS
10
166.513
20
-38.5957
11
166.459
21
-38.6768
0
LINE
8
BLACK
6
CONTINUOUS
10
166.459
20
-38.6768
11
166.378
21
-38.731
0
LINE
8
BLACK
6
CONTINUOUS
10
166.378
20
-38.731
11
166.282
21
-38.75
0
LINE
8
BLACK
6
CONTINUOUS
10
166.282
20
-38.75
11
162.782
21
-38.75
0
LINE
8
BLACK
6
CONTINUOUS
10
162.782
20
-38.75
11
162.687
21
-38.731
0
LINE
8
BLACK
6
CONTINUOUS
10
162.687
20
-38.731
11
162.606
21
-38.6768
0
LINE
8
BLACK
6
CONTINUOUS
10
162.606
20
-38.6768
11
162.551
21
-38.5957
0
LINE
8
BLACK
6
CONTINUOUS
10
162.551
20
-38.5957
11
162.532
21
-38.5
0
LINE
8
BLACK
6
CONTINUOUS
10
162.532
20
-38.5
11
162.532
21
-36.5
0
LINE
8
BLACK
6
CONTINUOUS
10
162.532
20
-36.5
11
162.551
21
-36.4043
0
LINE
8
BLACK
6
CONTINUOUS
10
162.551
20
-36.4043
11
162.606
21
-36.3232
0
LINE
8
BLACK
6
CONTINUOUS
10
162.606
20
-36.3232
11
162.687
21
-36.269
0
LINE
8
BLACK
6
CONTINUOUS
10
162.687
20
-36.269
11
162.782
21
-36.25
0
LINE
8
BLACK
6
CONTINUOUS
10
162.782
20
-36.25
11
166.282
21
-36.25
0
LINE
8
BLACK
6
CONTINUOUS
10
166.282
20
-36.25
11
166.378
21
-36.269
0
LINE
8
BLACK
6
CONTINUOUS
10
43.3957
20
-35.869
11
43.4768
21
-35.9232
0
LINE
8
BLACK
6
CONTINUOUS
10
43.4768
20
-35.9232
11
43.531
21
-36.0043
0
LINE
8
BLACK
6
CONTINUOUS
10
43.531
20
-36.0043
11
43.55
21
-36.1
0
LINE
8
BLACK
6
CONTINUOUS
10
43.55
20
-36.1
11
43.55
21
-36.7
0
LINE
8
BLACK
6
CONTINUOUS
10
43.55
20
-36.7
11
43.531
21
-36.7957
0
LINE
8
BLACK
6
CONTINUOUS
10
43.531
20
-36.7957
11
43.4768
21
-36.8768
0
LINE
8
BLACK
6
CONTINUOUS
10
43.4768
20
-36.8768
11
43.3957
21
-36.931
0
LINE
8
BLACK
6
CONTINUOUS
10
43.3957
20
-36.931
11
43.3
21
-36.95
0
LINE
8
BLACK
6
CONTINUOUS
10
43.3
20
-36.95
11
42.7
21
-36.95
0
LINE
8
BLACK
6
CONTINUOUS
10
42.7
20
-36.95
11
42.6043
21
-36.931
0
LINE
8
BLACK
6
CONTINUOUS
10
42.6043
20
-36.931
11
42.5232
21
-36.8768
0
LINE
8
BLACK
6
CONTINUOUS
10
42.5232
20
-36.8768
11
42.469
21
-36.7957
0
LINE
8
BLACK
6
CONTINUOUS
10
42.469
20
-36.7957
11
42.45
21
-36.7
0
LINE
8
BLACK
6
CONTINUOUS
10
42.45
20
-36.7
11
42.45
21
-36.1
0
LINE
8
BLACK
6
CONTINUOUS
10
42.45
20
-36.1
11
42.469
21
-36.0043
0
LINE
8
BLACK
6
CONTINUOUS
10
42.469
20
-36.0043
11
42.5232
21
-35.9232
0
LINE
8
BLACK
6
CONTINUOUS
10
42.5232
20
-35.9232
11
42.6043
21
-35.869
0
LINE
8
BLACK
6
CONTINUOUS
10
42.6043
20
-35.869
11
42.7
21
-35.85
0
LINE
8
BLACK
6
CONTINUOUS
10
42.7
20
-35.85
11
43.3
21
-35.85
0
LINE
8
BLACK
6
CONTINUOUS
10
43.3
20
-35.85
11
43.3957
21
-35.869
0
LINE
8
BLACK
6
CONTINUOUS
10
46.4457
20
-34.319
11
46.5268
21
-34.3732
0
LINE
8
BLACK
6
CONTINUOUS
10
46.5268
20
-34.3732
11
46.581
21
-34.4543
0
LINE
8
BLACK
6
CONTINUOUS
10
46.581
20
-34.4543
11
46.6
21
-34.55
0
LINE
8
BLACK
6
CONTINUOUS
10
46.6
20
-34.55
11
46.6
21
-35.45
0
LINE
8
BLACK
6
CONTINUOUS
10
46.6
20
-35.45
11
46.581
21
-35.5457
0
LINE
8
BLACK
6
CONTINUOUS
10
46.581
20
-35.5457
11
46.5268
21
-35.6268
0
LINE
8
BLACK
6
CONTINUOUS
10
46.5268
20
-35.6268
11
46.4457
21
-35.681
0
LINE
8
BLACK
6
CONTINUOUS
10
46.4457
20
-35.681
11
46.35
21
-35.7
0
LINE
8
BLACK
6
CONTINUOUS
10
46.35
20
-35.7
11
45.825
21
-35.7
0
LINE
8
BLACK
6
CONTINUOUS
10
45.825
20
-35.7
11
45.7293
21
-35.681
0
LINE
8
BLACK
6
CONTINUOUS
10
45.7293
20
-35.681
11
45.6482
21
-35.6268
0
LINE
8
BLACK
6
CONTINUOUS
10
45.6482
20
-35.6268
11
45.594
21
-35.5457
0
LINE
8
BLACK
6
CONTINUOUS
10
45.594
20
-35.5457
11
45.575
21
-35.45
0
LINE
8
BLACK
6
CONTINUOUS
10
45.575
20
-35.45
11
45.575
21
-34.55
0
LINE
8
BLACK
6
CONTINUOUS
10
45.575
20
-34.55
11
45.594
21
-34.4543
0
LINE
8
BLACK
6
CONTINUOUS
10
45.594
20
-34.4543
11
45.6482
21
-34.3732
0
LINE
8
BLACK
6
CONTINUOUS
10
45.6482
20
-34.3732
11
45.7293
21
-34.319
0
LINE
8
BLACK
6
CONTINUOUS
10
45.7293
20
-34.319
11
45.825
21
-34.3
0
LINE
8
BLACK
6
CONTINUOUS
10
45.825
20
-34.3
11
46.35
21
-34.3
0
LINE
8
BLACK
6
CONTINUOUS
10
46.35
20
-34.3
11
46.4457
21
-34.319
0
LINE
8
BLACK
6
CONTINUOUS
10
48.2707
20
-34.319
11
48.3518
21
-34.3732
0
LINE
8
BLACK
6
CONTINUOUS
10
48.3518
20
-34.3732
11
48.406
21
-34.4543
0
LINE
8
BLACK
6
CONTINUOUS
10
48.406
20
-34.4543
11
48.425
21
-34.55
0
LINE
8
BLACK
6
CONTINUOUS
10
48.425
20
-34.55
11
48.425
21
-35.45
0
LINE
8
BLACK
6
CONTINUOUS
10
48.425
20
-35.45
11
48.406
21
-35.5457
0
LINE
8
BLACK
6
CONTINUOUS
10
48.406
20
-35.5457
11
48.3518
21
-35.6268
0
LINE
8
BLACK
6
CONTINUOUS
10
48.3518
20
-35.6268
11
48.2707
21
-35.681
0
LINE
8
BLACK
6
CONTINUOUS
10
48.2707
20
-35.681
11
48.175
21
-35.7
0
LINE
8
BLACK
6
CONTINUOUS
10
48.175
20
-35.7
11
47.65
21
-35.7
0
LINE
8
BLACK
6
CONTINUOUS
10
47.65
20
-35.7
11
47.5543
21
-35.681
0
LINE
8
BLACK
6
CONTINUOUS
10
47.5543
20
-35.681
11
47.4732
21
-35.6268
0
LINE
8
BLACK
6
CONTINUOUS
10
47.4732
20
-35.6268
11
47.419
21
-35.5457
0
LINE
8
BLACK
6
CONTINUOUS
10
47.419
20
-35.5457
11
47.4
21
-35.45
0
LINE
8
BLACK
6
CONTINUOUS
10
47.4
20
-35.45
11
47.4
21
-34.55
0
LINE
8
BLACK
6
CONTINUOUS
10
47.4
20
-34.55
11
47.419
21
-34.4543
0
LINE
8
BLACK
6
CONTINUOUS
10
47.419
20
-34.4543
11
47.4732
21
-34.3732
0
LINE
8
BLACK
6
CONTINUOUS
10
47.4732
20
-34.3732
11
47.5543
21
-34.319
0
LINE
8
BLACK
6
CONTINUOUS
10
47.5543
20
-34.319
11
47.65
21
-34.3
0
LINE
8
BLACK
6
CONTINUOUS
10
47.65
20
-34.3
11
48.175
21
-34.3
0
LINE
8
BLACK
6
CONTINUOUS
10
48.175
20
-34.3
11
48.2707
21
-34.319
0
LINE
8
BLACK
6
CONTINUOUS
10
50.515
20
-34.5417
11
50.5859
21
-34.5891
0
LINE
8
BLACK
6
CONTINUOUS
10
50.5859
20
-34.5891
11
50.6333
21
-34.66
0
LINE
8
BLACK
6
CONTINUOUS
10
50.6333
20
-34.66
11
50.65
21
-34.7437
0
LINE
8
BLACK
6
CONTINUOUS
10
50.65
20
-34.7437
11
50.65
21
-35.2563
0
LINE
8
BLACK
6
CONTINUOUS
10
50.65
20
-35.2563
11
50.6333
21
-35.34
0
LINE
8
BLACK
6
CONTINUOUS
10
50.6333
20
-35.34
11
50.5859
21
-35.4109
0
LINE
8
BLACK
6
CONTINUOUS
10
50.5859
20
-35.4109
11
50.515
21
-35.4583
0
LINE
8
BLACK
6
CONTINUOUS
10
50.515
20
-35.4583
11
50.4312
21
-35.475
0
LINE
8
BLACK
6
CONTINUOUS
10
50.4312
20
-35.475
11
49.9937
21
-35.475
0
LINE
8
BLACK
6
CONTINUOUS
10
49.9937
20
-35.475
11
49.91
21
-35.4583
0
LINE
8
BLACK
6
CONTINUOUS
10
49.91
20
-35.4583
11
49.8391
21
-35.4109
0
LINE
8
BLACK
6
CONTINUOUS
10
49.8391
20
-35.4109
11
49.7917
21
-35.34
0
LINE
8
BLACK
6
CONTINUOUS
10
49.7917
20
-35.34
11
49.775
21
-35.2563
0
LINE
8
BLACK
6
CONTINUOUS
10
49.775
20
-35.2563
11
49.775
21
-34.7437
0
LINE
8
BLACK
6
CONTINUOUS
10
49.775
20
-34.7437
11
49.7917
21
-34.66
0
LINE
8
BLACK
6
CONTINUOUS
10
49.7917
20
-34.66
11
49.8391
21
-34.5891
0
LINE
8
BLACK
6
CONTINUOUS
10
49.8391
20
-34.5891
11
49.91
21
-34.5417
0
LINE
8
BLACK
6
CONTINUOUS
10
49.91
20
-34.5417
11
49.9937
21
-34.525
0
LINE
8
BLACK
6
CONTINUOUS
10
49.9937
20
-34.525
11
50.4312
21
-34.525
0
LINE
8
BLACK
6
CONTINUOUS
10
50.4312
20
-34.525
11
50.515
21
-34.5417
0
LINE
8
BLACK
6
CONTINUOUS
10
52.09
20
-34.5417
11
52.1609
21
-34.5891
0
LINE
8
BLACK
6
CONTINUOUS
10
52.1609
20
-34.5891
11
52.2083
21
-34.66
0
LINE
8
BLACK
6
CONTINUOUS
10
52.2083
20
-34.66
11
52.225
21
-34.7437
0
LINE
8
BLACK
6
CONTINUOUS
10
52.225
20
-34.7437
11
52.225
21
-35.2563
0
LINE
8
BLACK
6
CONTINUOUS
10
52.225
20
-35.2563
11
52.2083
21
-35.34
0
LINE
8
BLACK
6
CONTINUOUS
10
52.2083
20
-35.34
11
52.1609
21
-35.4109
0
LINE
8
BLACK
6
CONTINUOUS
10
52.1609
20
-35.4109
11
52.09
21
-35.4583
0
LINE
8
BLACK
6
CONTINUOUS
10
52.09
20
-35.4583
11
52.0062
21
-35.475
0
LINE
8
BLACK
6
CONTINUOUS
10
52.0062
20
-35.475
11
51.5687
21
-35.475
0
LINE
8
BLACK
6
CONTINUOUS
10
51.5687
20
-35.475
11
51.485
21
-35.4583
0
LINE
8
BLACK
6
CONTINUOUS
10
51.485
20
-35.4583
11
51.4141
21
-35.4109
0
LINE
8
BLACK
6
CONTINUOUS
10
51.4141
20
-35.4109
11
51.3667
21
-35.34
0
LINE
8
BLACK
6
CONTINUOUS
10
51.3667
20
-35.34
11
51.35
21
-35.2563
0
LINE
8
BLACK
6
CONTINUOUS
10
51.35
20
-35.2563
11
51.35
21
-34.7437
0
LINE
8
BLACK
6
CONTINUOUS
10
51.35
20
-34.7437
11
51.3667
21
-34.66
0
LINE
8
BLACK
6
CONTINUOUS
10
51.3667
20
-34.66
11
51.4141
21
-34.5891
0
LINE
8
BLACK
6
CONTINUOUS
10
51.4141
20
-34.5891
11
51.485
21
-34.5417
0
LINE
8
BLACK
6
CONTINUOUS
10
51.485
20
-34.5417
11
51.5687
21
-34.525
0
LINE
8
BLACK
6
CONTINUOUS
10
51.5687
20
-34.525
11
52.0062
21
-34.525
0
LINE
8
BLACK
6
CONTINUOUS
10
52.0062
20
-34.525
11
52.09
21
-34.5417
0
LINE
8
BLACK
6
CONTINUOUS
10
43.3957
20
-33.069
11
43.4768
21
-33.1232
0
LINE
8
BLACK
6
CONTINUOUS
10
43.4768
20
-33.1232
11
43.531
21
-33.2043
0
LINE
8
BLACK
6
CONTINUOUS
10
43.531
20
-33.2043
11
43.55
21
-33.3
0
LINE
8
BLACK
6
CONTINUOUS
10
43.55
20
-33.3
11
43.55
21
-33.9
0
LINE
8
BLACK
6
CONTINUOUS
10
43.55
20
-33.9
11
43.531
21
-33.9957
0
LINE
8
BLACK
6
CONTINUOUS
10
43.531
20
-33.9957
11
43.4768
21
-34.0768
0
LINE
8
BLACK
6
CONTINUOUS
10
43.4768
20
-34.0768
11
43.3957
21
-34.131
0
LINE
8
BLACK
6
CONTINUOUS
10
43.3957
20
-34.131
11
43.3
21
-34.15
0
LINE
8
BLACK
6
CONTINUOUS
10
43.3
20
-34.15
11
42.7
21
-34.15
0
LINE
8
BLACK
6
CONTINUOUS
10
42.7
20
-34.15
11
42.6043
21
-34.131
0
LINE
8
BLACK
6
CONTINUOUS
10
42.6043
20
-34.131
11
42.5232
21
-34.0768
0
LINE
8
BLACK
6
CONTINUOUS
10
42.5232
20
-34.0768
11
42.469
21
-33.9957
0
LINE
8
BLACK
6
CONTINUOUS
10
42.469
20
-33.9957
11
42.45
21
-33.9
0
LINE
8
BLACK
6
CONTINUOUS
10
42.45
20
-33.9
11
42.45
21
-33.3
0
LINE
8
BLACK
6
CONTINUOUS
10
42.45
20
-33.3
11
42.469
21
-33.2043
0
LINE
8
BLACK
6
CONTINUOUS
10
42.469
20
-33.2043
11
42.5232
21
-33.1232
0
LINE
8
BLACK
6
CONTINUOUS
10
42.5232
20
-33.1232
11
42.6043
21
-33.069
0
LINE
8
BLACK
6
CONTINUOUS
10
42.6043
20
-33.069
11
42.7
21
-33.05
0
LINE
8
BLACK
6
CONTINUOUS
10
42.7
20
-33.05
11
43.3
21
-33.05
0
LINE
8
BLACK
6
CONTINUOUS
10
43.3
20
-33.05
11
43.3957
21
-33.069
0
LINE
8
BLACK
6
CONTINUOUS
10
54.84
20
-32.3667
11
54.9109
21
-32.4141
0
LINE
8
BLACK
6
CONTINUOUS
10
54.9109
20
-32.4141
11
54.9583
21
-32.485
0
LINE
8
BLACK
6
CONTINUOUS
10
54.9583
20
-32.485
11
54.975
21
-32.5688
0
LINE
8
BLACK
6
CONTINUOUS
10
54.975
20
-32.5688
11
54.975
21
-33.0063
0
LINE
8
BLACK
6
CONTINUOUS
10
54.975
20
-33.0063
11
54.9583
21
-33.09
0
LINE
8
BLACK
6
CONTINUOUS
10
54.9583
20
-33.09
11
54.9109
21
-33.1609
0
LINE
8
BLACK
6
CONTINUOUS
10
54.9109
20
-33.1609
11
54.84
21
-33.2083
0
LINE
8
BLACK
6
CONTINUOUS
10
54.84
20
-33.2083
11
54.7562
21
-33.225
0
LINE
8
BLACK
6
CONTINUOUS
10
54.7562
20
-33.225
11
54.2437
21
-33.225
0
LINE
8
BLACK
6
CONTINUOUS
10
54.2437
20
-33.225
11
54.16
21
-33.2083
0
LINE
8
BLACK
6
CONTINUOUS
10
54.16
20
-33.2083
11
54.0891
21
-33.1609
0
LINE
8
BLACK
6
CONTINUOUS
10
54.0891
20
-33.1609
11
54.0417
21
-33.09
0
LINE
8
BLACK
6
CONTINUOUS
10
54.0417
20
-33.09
11
54.025
21
-33.0063
0
LINE
8
BLACK
6
CONTINUOUS
10
54.025
20
-33.0063
11
54.025
21
-32.5688
0
LINE
8
BLACK
6
CONTINUOUS
10
54.025
20
-32.5688
11
54.0417
21
-32.485
0
LINE
8
BLACK
6
CONTINUOUS
10
54.0417
20
-32.485
11
54.0891
21
-32.4141
0
LINE
8
BLACK
6
CONTINUOUS
10
54.0891
20
-32.4141
11
54.16
21
-32.3667
0
LINE
8
BLACK
6
CONTINUOUS
10
54.16
20
-32.3667
11
54.2437
21
-32.35
0
LINE
8
BLACK
6
CONTINUOUS
10
54.2437
20
-32.35
11
54.7562
21
-32.35
0
LINE
8
BLACK
6
CONTINUOUS
10
54.7562
20
-32.35
11
54.84
21
-32.3667
0
LINE
8
BLACK
6
CONTINUOUS
10
48.9457
20
-31.319
11
49.0268
21
-31.3732
0
LINE
8
BLACK
6
CONTINUOUS
10
49.0268
20
-31.3732
11
49.081
21
-31.4543
0
LINE
8
BLACK
6
CONTINUOUS
10
49.081
20
-31.4543
11
49.1
21
-31.55
0
LINE
8
BLACK
6
CONTINUOUS
10
49.1
20
-31.55
11
49.1
21
-32.45
0
LINE
8
BLACK
6
CONTINUOUS
10
49.1
20
-32.45
11
49.081
21
-32.5457
0
LINE
8
BLACK
6
CONTINUOUS
10
49.081
20
-32.5457
11
49.0268
21
-32.6268
0
LINE
8
BLACK
6
CONTINUOUS
10
49.0268
20
-32.6268
11
48.9457
21
-32.681
0
LINE
8
BLACK
6
CONTINUOUS
10
48.9457
20
-32.681
11
48.85
21
-32.7
0
LINE
8
BLACK
6
CONTINUOUS
10
48.85
20
-32.7
11
48.325
21
-32.7
0
LINE
8
BLACK
6
CONTINUOUS
10
48.325
20
-32.7
11
48.2293
21
-32.681
0
LINE
8
BLACK
6
CONTINUOUS
10
48.2293
20
-32.681
11
48.1482
21
-32.6268
0
LINE
8
BLACK
6
CONTINUOUS
10
48.1482
20
-32.6268
11
48.094
21
-32.5457
0
LINE
8
BLACK
6
CONTINUOUS
10
48.094
20
-32.5457
11
48.075
21
-32.45
0
LINE
8
BLACK
6
CONTINUOUS
10
48.075
20
-32.45
11
48.075
21
-31.55
0
LINE
8
BLACK
6
CONTINUOUS
10
48.075
20
-31.55
11
48.094
21
-31.4543
0
LINE
8
BLACK
6
CONTINUOUS
10
48.094
20
-31.4543
11
48.1482
21
-31.3732
0
LINE
8
BLACK
6
CONTINUOUS
10
48.1482
20
-31.3732
11
48.2293
21
-31.319
0
LINE
8
BLACK
6
CONTINUOUS
10
48.2293
20
-31.319
11
48.325
21
-31.3
0
LINE
8
BLACK
6
CONTINUOUS
10
48.325
20
-31.3
11
48.85
21
-31.3
0
LINE
8
BLACK
6
CONTINUOUS
10
48.85
20
-31.3
11
48.9457
21
-31.319
0
LINE
8
BLACK
6
CONTINUOUS
10
50.7707
20
-31.319
11
50.8518
21
-31.3732
0
LINE
8
BLACK
6
CONTINUOUS
10
50.8518
20
-31.3732
11
50.906
21
-31.4543
0
LINE
8
BLACK
6
CONTINUOUS
10
50.906
20
-31.4543
11
50.925
21
-31.55
0
LINE
8
BLACK
6
CONTINUOUS
10
50.925
20
-31.55
11
50.925
21
-32.45
0
LINE
8
BLACK
6
CONTINUOUS
10
50.925
20
-32.45
11
50.906
21
-32.5457
0
LINE
8
BLACK
6
CONTINUOUS
10
50.906
20
-32.5457
11
50.8518
21
-32.6268
0
LINE
8
BLACK
6
CONTINUOUS
10
50.8518
20
-32.6268
11
50.7707
21
-32.681
0
LINE
8
BLACK
6
CONTINUOUS
10
50.7707
20
-32.681
11
50.675
21
-32.7
0
LINE
8
BLACK
6
CONTINUOUS
10
50.675
20
-32.7
11
50.15
21
-32.7
0
LINE
8
BLACK
6
CONTINUOUS
10
50.15
20
-32.7
11
50.0543
21
-32.681
0
LINE
8
BLACK
6
CONTINUOUS
10
50.0543
20
-32.681
11
49.9732
21
-32.6268
0
LINE
8
BLACK
6
CONTINUOUS
10
49.9732
20
-32.6268
11
49.919
21
-32.5457
0
LINE
8
BLACK
6
CONTINUOUS
10
49.919
20
-32.5457
11
49.9
21
-32.45
0
LINE
8
BLACK
6
CONTINUOUS
10
49.9
20
-32.45
11
49.9
21
-31.55
0
LINE
8
BLACK
6
CONTINUOUS
10
49.9
20
-31.55
11
49.919
21
-31.4543
0
LINE
8
BLACK
6
CONTINUOUS
10
49.919
20
-31.4543
11
49.9732
21
-31.3732
0
LINE
8
BLACK
6
CONTINUOUS
10
49.9732
20
-31.3732
11
50.0543
21
-31.319
0
LINE
8
BLACK
6
CONTINUOUS
10
50.0543
20
-31.319
11
50.15
21
-31.3
0
LINE
8
BLACK
6
CONTINUOUS
10
50.15
20
-31.3
11
50.675
21
-31.3
0
LINE
8
BLACK
6
CONTINUOUS
10
50.675
20
-31.3
11
50.7707
21
-31.319
0
LINE
8
BLACK
6
CONTINUOUS
10
54.84
20
-30.7917
11
54.9109
21
-30.8391
0
LINE
8
BLACK
6
CONTINUOUS
10
54.9109
20
-30.8391
11
54.9583
21
-30.91
0
LINE
8
BLACK
6
CONTINUOUS
10
54.9583
20
-30.91
11
54.975
21
-30.9937
0
LINE
8
BLACK
6
CONTINUOUS
10
54.975
20
-30.9937
11
54.975
21
-31.4312
0
LINE
8
BLACK
6
CONTINUOUS
10
54.975
20
-31.4312
11
54.9583
21
-31.515
0
LINE
8
BLACK
6
CONTINUOUS
10
54.9583
20
-31.515
11
54.9109
21
-31.5859
0
LINE
8
BLACK
6
CONTINUOUS
10
54.9109
20
-31.5859
11
54.84
21
-31.6333
0
LINE
8
BLACK
6
CONTINUOUS
10
54.84
20
-31.6333
11
54.7562
21
-31.65
0
LINE
8
BLACK
6
CONTINUOUS
10
54.7562
20
-31.65
11
54.2437
21
-31.65
0
LINE
8
BLACK
6
CONTINUOUS
10
54.2437
20
-31.65
11
54.16
21
-31.6333
0
LINE
8
BLACK
6
CONTINUOUS
10
54.16
20
-31.6333
11
54.0891
21
-31.5859
0
LINE
8
BLACK
6
CONTINUOUS
10
54.0891
20
-31.5859
11
54.0417
21
-31.515
0
LINE
8
BLACK
6
CONTINUOUS
10
54.0417
20
-31.515
11
54.025
21
-31.4312
0
LINE
8
BLACK
6
CONTINUOUS
10
54.025
20
-31.4312
11
54.025
21
-30.9937
0
LINE
8
BLACK
6
CONTINUOUS
10
54.025
20
-30.9937
11
54.0417
21
-30.91
0
LINE
8
BLACK
6
CONTINUOUS
10
54.0417
20
-30.91
11
54.0891
21
-30.8391
0
LINE
8
BLACK
6
CONTINUOUS
10
54.0891
20
-30.8391
11
54.16
21
-30.7917
0
LINE
8
BLACK
6
CONTINUOUS
10
54.16
20
-30.7917
11
54.2437
21
-30.775
0
LINE
8
BLACK
6
CONTINUOUS
10
54.2437
20
-30.775
11
54.7562
21
-30.775
0
LINE
8
BLACK
6
CONTINUOUS
10
54.7562
20
-30.775
11
54.84
21
-30.7917
0
LINE
8
BLACK
6
CONTINUOUS
10
161.44
20
-31
11
158.29
21
-31
0
LINE
8
BLACK
6
CONTINUOUS
10
158.29
20
-31
11
158.29
21
-28.8
0
LINE
8
BLACK
6
CONTINUOUS
10
158.29
20
-28.8
11
161.44
21
-28.8
0
LINE
8
BLACK
6
CONTINUOUS
10
161.44
20
-28.8
11
161.44
21
-31
0
LINE
8
BLACK
6
CONTINUOUS
10
162.705
20
-31
11
162.105
21
-31
0
LINE
8
BLACK
6
CONTINUOUS
10
162.105
20
-31
11
162.105
21
-28.8
0
LINE
8
BLACK
6
CONTINUOUS
10
162.105
20
-28.8
11
162.705
21
-28.8
0
LINE
8
BLACK
6
CONTINUOUS
10
162.705
20
-28.8
11
162.705
21
-31
0
LINE
8
BLACK
6
CONTINUOUS
10
167.971
20
-27.069
11
168.052
21
-27.1232
0
LINE
8
BLACK
6
CONTINUOUS
10
168.052
20
-27.1232
11
168.106
21
-27.2043
0
LINE
8
BLACK
6
CONTINUOUS
10
168.106
20
-27.2043
11
168.125
21
-27.3
0
LINE
8
BLACK
6
CONTINUOUS
10
168.125
20
-27.3
11
168.125
21
-30.2
0
LINE
8
BLACK
6
CONTINUOUS
10
168.125
20
-30.2
11
168.106
21
-30.2957
0
LINE
8
BLACK
6
CONTINUOUS
10
168.106
20
-30.2957
11
168.052
21
-30.3768
0
LINE
8
BLACK
6
CONTINUOUS
10
168.052
20
-30.3768
11
167.971
21
-30.431
0
LINE
8
BLACK
6
CONTINUOUS
10
167.971
20
-30.431
11
167.875
21
-30.45
0
LINE
8
BLACK
6
CONTINUOUS
10
167.875
20
-30.45
11
167.25
21
-30.45
0
LINE
8
BLACK
6
CONTINUOUS
10
167.25
20
-30.45
11
167.154
21
-30.431
0
LINE
8
BLACK
6
CONTINUOUS
10
167.154
20
-30.431
11
167.073
21
-30.3768
0
LINE
8
BLACK
6
CONTINUOUS
10
167.073
20
-30.3768
11
167.019
21
-30.2957
0
LINE
8
BLACK
6
CONTINUOUS
10
167.019
20
-30.2957
11
167
21
-30.2
0
LINE
8
BLACK
6
CONTINUOUS
10
167
20
-30.2
11
167
21
-27.3
0
LINE
8
BLACK
6
CONTINUOUS
10
167
20
-27.3
11
167.019
21
-27.2043
0
LINE
8
BLACK
6
CONTINUOUS
10
167.019
20
-27.2043
11
167.073
21
-27.1232
0
LINE
8
BLACK
6
CONTINUOUS
10
167.073
20
-27.1232
11
167.154
21
-27.069
0
LINE
8
BLACK
6
CONTINUOUS
10
167.154
20
-27.069
11
167.25
21
-27.05
0
LINE
8
BLACK
6
CONTINUOUS
10
167.25
20
-27.05
11
167.875
21
-27.05
0
LINE
8
BLACK
6
CONTINUOUS
10
167.875
20
-27.05
11
167.971
21
-27.069
0
LINE
8
BLACK
6
CONTINUOUS
10
172.246
20
-27.069
11
172.327
21
-27.1232
0
LINE
8
BLACK
6
CONTINUOUS
10
172.327
20
-27.1232
11
172.381
21
-27.2043
0
LINE
8
BLACK
6
CONTINUOUS
10
172.381
20
-27.2043
11
172.4
21
-27.3
0
LINE
8
BLACK
6
CONTINUOUS
10
172.4
20
-27.3
11
172.4
21
-30.2
0
LINE
8
BLACK
6
CONTINUOUS
10
172.4
20
-30.2
11
172.381
21
-30.2957
0
LINE
8
BLACK
6
CONTINUOUS
10
172.381
20
-30.2957
11
172.327
21
-30.3768
0
LINE
8
BLACK
6
CONTINUOUS
10
172.327
20
-30.3768
11
172.246
21
-30.431
0
LINE
8
BLACK
6
CONTINUOUS
10
172.246
20
-30.431
11
172.15
21
-30.45
0
LINE
8
BLACK
6
CONTINUOUS
10
172.15
20
-30.45
11
171.525
21
-30.45
0
LINE
8
BLACK
6
CONTINUOUS
10
171.525
20
-30.45
11
171.429
21
-30.431
0
LINE
8
BLACK
6
CONTINUOUS
10
171.429
20
-30.431
11
171.348
21
-30.3768
0
LINE
8
BLACK
6
CONTINUOUS
10
171.348
20
-30.3768
11
171.294
21
-30.2957
0
LINE
8
BLACK
6
CONTINUOUS
10
171.294
20
-30.2957
11
171.275
21
-30.2
0
LINE
8
BLACK
6
CONTINUOUS
10
171.275
20
-30.2
11
171.275
21
-27.3
0
LINE
8
BLACK
6
CONTINUOUS
10
171.275
20
-27.3
11
171.294
21
-27.2043
0
LINE
8
BLACK
6
CONTINUOUS
10
171.294
20
-27.2043
11
171.348
21
-27.1232
0
LINE
8
BLACK
6
CONTINUOUS
10
171.348
20
-27.1232
11
171.429
21
-27.069
0
LINE
8
BLACK
6
CONTINUOUS
10
171.429
20
-27.069
11
171.525
21
-27.05
0
LINE
8
BLACK
6
CONTINUOUS
10
171.525
20
-27.05
11
172.15
21
-27.05
0
LINE
8
BLACK
6
CONTINUOUS
10
172.15
20
-27.05
11
172.246
21
-27.069
0
LINE
8
BLACK
6
CONTINUOUS
10
46.015
20
-28.5417
11
46.0859
21
-28.5891
0
LINE
8
BLACK
6
CONTINUOUS
10
46.0859
20
-28.5891
11
46.1333
21
-28.66
0
LINE
8
BLACK
6
CONTINUOUS
10
46.1333
20
-28.66
11
46.15
21
-28.7437
0
LINE
8
BLACK
6
CONTINUOUS
10
46.15
20
-28.7437
11
46.15
21
-29.2562
0
LINE
8
BLACK
6
CONTINUOUS
10
46.15
20
-29.2562
11
46.1333
21
-29.34
0
LINE
8
BLACK
6
CONTINUOUS
10
46.1333
20
-29.34
11
46.0859
21
-29.4109
0
LINE
8
BLACK
6
CONTINUOUS
10
46.0859
20
-29.4109
11
46.015
21
-29.4583
0
LINE
8
BLACK
6
CONTINUOUS
10
46.015
20
-29.4583
11
45.9312
21
-29.475
0
LINE
8
BLACK
6
CONTINUOUS
10
45.9312
20
-29.475
11
45.4937
21
-29.475
0
LINE
8
BLACK
6
CONTINUOUS
10
45.4937
20
-29.475
11
45.41
21
-29.4583
0
LINE
8
BLACK
6
CONTINUOUS
10
45.41
20
-29.4583
11
45.3391
21
-29.4109
0
LINE
8
BLACK
6
CONTINUOUS
10
45.3391
20
-29.4109
11
45.2917
21
-29.34
0
LINE
8
BLACK
6
CONTINUOUS
10
45.2917
20
-29.34
11
45.275
21
-29.2562
0
LINE
8
BLACK
6
CONTINUOUS
10
45.275
20
-29.2562
11
45.275
21
-28.7437
0
LINE
8
BLACK
6
CONTINUOUS
10
45.275
20
-28.7437
11
45.2917
21
-28.66
0
LINE
8
BLACK
6
CONTINUOUS
10
45.2917
20
-28.66
11
45.3391
21
-28.5891
0
LINE
8
BLACK
6
CONTINUOUS
10
45.3391
20
-28.5891
11
45.41
21
-28.5417
0
LINE
8
BLACK
6
CONTINUOUS
10
45.41
20
-28.5417
11
45.4937
21
-28.525
0
LINE
8
BLACK
6
CONTINUOUS
10
45.4937
20
-28.525
11
45.9312
21
-28.525
0
LINE
8
BLACK
6
CONTINUOUS
10
45.9312
20
-28.525
11
46.015
21
-28.5417
0
LINE
8
BLACK
6
CONTINUOUS
10
47.59
20
-28.5417
11
47.6609
21
-28.5891
0
LINE
8
BLACK
6
CONTINUOUS
10
47.6609
20
-28.5891
11
47.7083
21
-28.66
0
LINE
8
BLACK
6
CONTINUOUS
10
47.7083
20
-28.66
11
47.725
21
-28.7437
0
LINE
8
BLACK
6
CONTINUOUS
10
47.725
20
-28.7437
11
47.725
21
-29.2562
0
LINE
8
BLACK
6
CONTINUOUS
10
47.725
20
-29.2562
11
47.7083
21
-29.34
0
LINE
8
BLACK
6
CONTINUOUS
10
47.7083
20
-29.34
11
47.6609
21
-29.4109
0
LINE
8
BLACK
6
CONTINUOUS
10
47.6609
20
-29.4109
11
47.59
21
-29.4583
0
LINE
8
BLACK
6
CONTINUOUS
10
47.59
20
-29.4583
11
47.5062
21
-29.475
0
LINE
8
BLACK
6
CONTINUOUS
10
47.5062
20
-29.475
11
47.0688
21
-29.475
0
LINE
8
BLACK
6
CONTINUOUS
10
47.0688
20
-29.475
11
46.985
21
-29.4583
0
LINE
8
BLACK
6
CONTINUOUS
10
46.985
20
-29.4583
11
46.9141
21
-29.4109
0
LINE
8
BLACK
6
CONTINUOUS
10
46.9141
20
-29.4109
11
46.8667
21
-29.34
0
LINE
8
BLACK
6
CONTINUOUS
10
46.8667
20
-29.34
11
46.85
21
-29.2562
0
LINE
8
BLACK
6
CONTINUOUS
10
46.85
20
-29.2562
11
46.85
21
-28.7437
0
LINE
8
BLACK
6
CONTINUOUS
10
46.85
20
-28.7437
11
46.8667
21
-28.66
0
LINE
8
BLACK
6
CONTINUOUS
10
46.8667
20
-28.66
11
46.9141
21
-28.5891
0
LINE
8
BLACK
6
CONTINUOUS
10
46.9141
20
-28.5891
11
46.985
21
-28.5417
0
LINE
8
BLACK
6
CONTINUOUS
10
46.985
20
-28.5417
11
47.0688
21
-28.525
0
LINE
8
BLACK
6
CONTINUOUS
10
47.0688
20
-28.525
11
47.5062
21
-28.525
0
LINE
8
BLACK
6
CONTINUOUS
10
47.5062
20
-28.525
11
47.59
21
-28.5417
0
LINE
8
BLACK
6
CONTINUOUS
10
165.321
20
-27.669
11
165.402
21
-27.7232
0
LINE
8
BLACK
6
CONTINUOUS
10
165.402
20
-27.7232
11
165.456
21
-27.8043
0
LINE
8
BLACK
6
CONTINUOUS
10
165.456
20
-27.8043
11
165.475
21
-27.9
0
LINE
8
BLACK
6
CONTINUOUS
10
165.475
20
-27.9
11
165.475
21
-28.4
0
LINE
8
BLACK
6
CONTINUOUS
10
165.475
20
-28.4
11
165.456
21
-28.4957
0
LINE
8
BLACK
6
CONTINUOUS
10
165.456
20
-28.4957
11
165.402
21
-28.5768
0
LINE
8
BLACK
6
CONTINUOUS
10
165.402
20
-28.5768
11
165.321
21
-28.631
0
LINE
8
BLACK
6
CONTINUOUS
10
165.321
20
-28.631
11
165.225
21
-28.65
0
LINE
8
BLACK
6
CONTINUOUS
10
165.225
20
-28.65
11
164.275
21
-28.65
0
LINE
8
BLACK
6
CONTINUOUS
10
164.275
20
-28.65
11
164.179
21
-28.631
0
LINE
8
BLACK
6
CONTINUOUS
10
164.179
20
-28.631
11
164.098
21
-28.5768
0
LINE
8
BLACK
6
CONTINUOUS
10
164.098
20
-28.5768
11
164.044
21
-28.4957
0
LINE
8
BLACK
6
CONTINUOUS
10
164.044
20
-28.4957
11
164.025
21
-28.4
0
LINE
8
BLACK
6
CONTINUOUS
10
164.025
20
-28.4
11
164.025
21
-27.9
0
LINE
8
BLACK
6
CONTINUOUS
10
164.025
20
-27.9
11
164.044
21
-27.8043
0
LINE
8
BLACK
6
CONTINUOUS
10
164.044
20
-27.8043
11
164.098
21
-27.7232
0
LINE
8
BLACK
6
CONTINUOUS
10
164.098
20
-27.7232
11
164.179
21
-27.669
0
LINE
8
BLACK
6
CONTINUOUS
10
164.179
20
-27.669
11
164.275
21
-27.65
0
LINE
8
BLACK
6
CONTINUOUS
10
164.275
20
-27.65
11
165.225
21
-27.65
0
LINE
8
BLACK
6
CONTINUOUS
10
165.225
20
-27.65
11
165.321
21
-27.669
0
LINE
8
BLACK
6
CONTINUOUS
10
165.321
20
-25.769
11
165.402
21
-25.8232
0
LINE
8
BLACK
6
CONTINUOUS
10
165.402
20
-25.8232
11
165.456
21
-25.9043
0
LINE
8
BLACK
6
CONTINUOUS
10
165.456
20
-25.9043
11
165.475
21
-26
0
LINE
8
BLACK
6
CONTINUOUS
10
165.475
20
-26
11
165.475
21
-26.5
0
LINE
8
BLACK
6
CONTINUOUS
10
165.475
20
-26.5
11
165.456
21
-26.5957
0
LINE
8
BLACK
6
CONTINUOUS
10
165.456
20
-26.5957
11
165.402
21
-26.6768
0
LINE
8
BLACK
6
CONTINUOUS
10
165.402
20
-26.6768
11
165.321
21
-26.731
0
LINE
8
BLACK
6
CONTINUOUS
10
165.321
20
-26.731
11
165.225
21
-26.75
0
LINE
8
BLACK
6
CONTINUOUS
10
165.225
20
-26.75
11
164.275
21
-26.75
0
LINE
8
BLACK
6
CONTINUOUS
10
164.275
20
-26.75
11
164.179
21
-26.731
0
LINE
8
BLACK
6
CONTINUOUS
10
164.179
20
-26.731
11
164.098
21
-26.6768
0
LINE
8
BLACK
6
CONTINUOUS
10
164.098
20
-26.6768
11
164.044
21
-26.5957
0
LINE
8
BLACK
6
CONTINUOUS
10
164.044
20
-26.5957
11
164.025
21
-26.5
0
LINE
8
BLACK
6
CONTINUOUS
10
164.025
20
-26.5
11
164.025
21
-26
0
LINE
8
BLACK
6
CONTINUOUS
10
164.025
20
-26
11
164.044
21
-25.9043
0
LINE
8
BLACK
6
CONTINUOUS
10
164.044
20
-25.9043
11
164.098
21
-25.8232
0
LINE
8
BLACK
6
CONTINUOUS
10
164.098
20
-25.8232
11
164.179
21
-25.769
0
LINE
8
BLACK
6
CONTINUOUS
10
164.179
20
-25.769
11
164.275
21
-25.75
0
LINE
8
BLACK
6
CONTINUOUS
10
164.275
20
-25.75
11
165.225
21
-25.75
0
LINE
8
BLACK
6
CONTINUOUS
10
165.225
20
-25.75
11
165.321
21
-25.769
0
LINE
8
BLACK
6
CONTINUOUS
10
44.9
20
-26.67
11
43.6
21
-26.67
0
LINE
8
BLACK
6
CONTINUOUS
10
43.6
20
-26.67
11
43.6
21
-25.87
0
LINE
8
BLACK
6
CONTINUOUS
10
43.6
20
-25.87
11
44.9
21
-25.87
0
LINE
8
BLACK
6
CONTINUOUS
10
44.9
20
-25.87
11
44.9
21
-26.67
0
LINE
8
BLACK
6
CONTINUOUS
10
54.4
20
-26.67
11
53.1
21
-26.67
0
LINE
8
BLACK
6
CONTINUOUS
10
53.1
20
-26.67
11
53.1
21
-25.87
0
LINE
8
BLACK
6
CONTINUOUS
10
53.1
20
-25.87
11
54.4
21
-25.87
0
LINE
8
BLACK
6
CONTINUOUS
10
54.4
20
-25.87
11
54.4
21
-26.67
0
LINE
8
BLACK
6
CONTINUOUS
10
162.7
20
-25.8
11
158.3
21
-25.8
0
LINE
8
BLACK
6
CONTINUOUS
10
158.3
20
-25.8
11
158.3
21
-23.6
0
LINE
8
BLACK
6
CONTINUOUS
10
158.3
20
-23.6
11
162.7
21
-23.6
0
LINE
8
BLACK
6
CONTINUOUS
10
162.7
20
-23.6
11
162.7
21
-25.8
0
LINE
8
BLACK
6
CONTINUOUS
10
44.9
20
-25.4
11
43.6
21
-25.4
0
LINE
8
BLACK
6
CONTINUOUS
10
43.6
20
-25.4
11
43.6
21
-24.6
0
LINE
8
BLACK
6
CONTINUOUS
10
43.6
20
-24.6
11
44.9
21
-24.6
0
LINE
8
BLACK
6
CONTINUOUS
10
44.9
20
-24.6
11
44.9
21
-25.4
0
LINE
8
BLACK
6
CONTINUOUS
10
54.4
20
-25.4
11
53.1
21
-25.4
0
LINE
8
BLACK
6
CONTINUOUS
10
53.1
20
-25.4
11
53.1
21
-24.6
0
LINE
8
BLACK
6
CONTINUOUS
10
53.1
20
-24.6
11
54.4
21
-24.6
0
LINE
8
BLACK
6
CONTINUOUS
10
54.4
20
-24.6
11
54.4
21
-25.4
0
LINE
8
BLACK
6
CONTINUOUS
10
62.34
20
-23.3667
11
62.4109
21
-23.4141
0
LINE
8
BLACK
6
CONTINUOUS
10
62.4109
20
-23.4141
11
62.4583
21
-23.485
0
LINE
8
BLACK
6
CONTINUOUS
10
62.4583
20
-23.485
11
62.475
21
-23.5687
0
LINE
8
BLACK
6
CONTINUOUS
10
62.475
20
-23.5687
11
62.475
21
-24.0062
0
LINE
8
BLACK
6
CONTINUOUS
10
62.475
20
-24.0062
11
62.4583
21
-24.09
0
LINE
8
BLACK
6
CONTINUOUS
10
62.4583
20
-24.09
11
62.4109
21
-24.1609
0
LINE
8
BLACK
6
CONTINUOUS
10
62.4109
20
-24.1609
11
62.34
21
-24.2083
0
LINE
8
BLACK
6
CONTINUOUS
10
62.34
20
-24.2083
11
62.2562
21
-24.225
0
LINE
8
BLACK
6
CONTINUOUS
10
62.2562
20
-24.225
11
61.7437
21
-24.225
0
LINE
8
BLACK
6
CONTINUOUS
10
61.7437
20
-24.225
11
61.66
21
-24.2083
0
LINE
8
BLACK
6
CONTINUOUS
10
61.66
20
-24.2083
11
61.5891
21
-24.1609
0
LINE
8
BLACK
6
CONTINUOUS
10
61.5891
20
-24.1609
11
61.5417
21
-24.09
0
LINE
8
BLACK
6
CONTINUOUS
10
61.5417
20
-24.09
11
61.525
21
-24.0062
0
LINE
8
BLACK
6
CONTINUOUS
10
61.525
20
-24.0062
11
61.525
21
-23.5687
0
LINE
8
BLACK
6
CONTINUOUS
10
61.525
20
-23.5687
11
61.5417
21
-23.485
0
LINE
8
BLACK
6
CONTINUOUS
10
61.5417
20
-23.485
11
61.5891
21
-23.4141
0
LINE
8
BLACK
6
CONTINUOUS
10
61.5891
20
-23.4141
11
61.66
21
-23.3667
0
LINE
8
BLACK
6
CONTINUOUS
10
61.66
20
-23.3667
11
61.7437
21
-23.35
0
LINE
8
BLACK
6
CONTINUOUS
10
61.7437
20
-23.35
11
62.2562
21
-23.35
0
LINE
8
BLACK
6
CONTINUOUS
10
62.2562
20
-23.35
11
62.34
21
-23.3667
0
LINE
8
BLACK
6
CONTINUOUS
10
66.8957
20
-22.794
11
66.9768
21
-22.8482
0
LINE
8
BLACK
6
CONTINUOUS
10
66.9768
20
-22.8482
11
67.031
21
-22.9293
0
LINE
8
BLACK
6
CONTINUOUS
10
67.031
20
-22.9293
11
67.05
21
-23.025
0
LINE
8
BLACK
6
CONTINUOUS
10
67.05
20
-23.025
11
67.05
21
-23.975
0
LINE
8
BLACK
6
CONTINUOUS
10
67.05
20
-23.975
11
67.031
21
-24.0707
0
LINE
8
BLACK
6
CONTINUOUS
10
67.031
20
-24.0707
11
66.9768
21
-24.1518
0
LINE
8
BLACK
6
CONTINUOUS
10
66.9768
20
-24.1518
11
66.8957
21
-24.206
0
LINE
8
BLACK
6
CONTINUOUS
10
66.8957
20
-24.206
11
66.8
21
-24.225
0
LINE
8
BLACK
6
CONTINUOUS
10
66.8
20
-24.225
11
66.3
21
-24.225
0
LINE
8
BLACK
6
CONTINUOUS
10
66.3
20
-24.225
11
66.2043
21
-24.206
0
LINE
8
BLACK
6
CONTINUOUS
10
66.2043
20
-24.206
11
66.1232
21
-24.1518
0
LINE
8
BLACK
6
CONTINUOUS
10
66.1232
20
-24.1518
11
66.069
21
-24.0707
0
LINE
8
BLACK
6
CONTINUOUS
10
66.069
20
-24.0707
11
66.05
21
-23.975
0
LINE
8
BLACK
6
CONTINUOUS
10
66.05
20
-23.975
11
66.05
21
-23.025
0
LINE
8
BLACK
6
CONTINUOUS
10
66.05
20
-23.025
11
66.069
21
-22.9293
0
LINE
8
BLACK
6
CONTINUOUS
10
66.069
20
-22.9293
11
66.1232
21
-22.8482
0
LINE
8
BLACK
6
CONTINUOUS
10
66.1232
20
-22.8482
11
66.2043
21
-22.794
0
LINE
8
BLACK
6
CONTINUOUS
10
66.2043
20
-22.794
11
66.3
21
-22.775
0
LINE
8
BLACK
6
CONTINUOUS
10
66.3
20
-22.775
11
66.8
21
-22.775
0
LINE
8
BLACK
6
CONTINUOUS
10
66.8
20
-22.775
11
66.8957
21
-22.794
0
LINE
8
BLACK
6
CONTINUOUS
10
68.7957
20
-22.794
11
68.8768
21
-22.8482
0
LINE
8
BLACK
6
CONTINUOUS
10
68.8768
20
-22.8482
11
68.931
21
-22.9293
0
LINE
8
BLACK
6
CONTINUOUS
10
68.931
20
-22.9293
11
68.95
21
-23.025
0
LINE
8
BLACK
6
CONTINUOUS
10
68.95
20
-23.025
11
68.95
21
-23.975
0
LINE
8
BLACK
6
CONTINUOUS
10
68.95
20
-23.975
11
68.931
21
-24.0707
0
LINE
8
BLACK
6
CONTINUOUS
10
68.931
20
-24.0707
11
68.8768
21
-24.1518
0
LINE
8
BLACK
6
CONTINUOUS
10
68.8768
20
-24.1518
11
68.7957
21
-24.206
0
LINE
8
BLACK
6
CONTINUOUS
10
68.7957
20
-24.206
11
68.7
21
-24.225
0
LINE
8
BLACK
6
CONTINUOUS
10
68.7
20
-24.225
11
68.2
21
-24.225
0
LINE
8
BLACK
6
CONTINUOUS
10
68.2
20
-24.225
11
68.1043
21
-24.206
0
LINE
8
BLACK
6
CONTINUOUS
10
68.1043
20
-24.206
11
68.0232
21
-24.1518
0
LINE
8
BLACK
6
CONTINUOUS
10
68.0232
20
-24.1518
11
67.969
21
-24.0707
0
LINE
8
BLACK
6
CONTINUOUS
10
67.969
20
-24.0707
11
67.95
21
-23.975
0
LINE
8
BLACK
6
CONTINUOUS
10
67.95
20
-23.975
11
67.95
21
-23.025
0
LINE
8
BLACK
6
CONTINUOUS
10
67.95
20
-23.025
11
67.969
21
-22.9293
0
LINE
8
BLACK
6
CONTINUOUS
10
67.969
20
-22.9293
11
68.0232
21
-22.8482
0
LINE
8
BLACK
6
CONTINUOUS
10
68.0232
20
-22.8482
11
68.1043
21
-22.794
0
LINE
8
BLACK
6
CONTINUOUS
10
68.1043
20
-22.794
11
68.2
21
-22.775
0
LINE
8
BLACK
6
CONTINUOUS
10
68.2
20
-22.775
11
68.7
21
-22.775
0
LINE
8
BLACK
6
CONTINUOUS
10
68.7
20
-22.775
11
68.7957
21
-22.794
0
LINE
8
BLACK
6
CONTINUOUS
10
44.9
20
-24.13
11
43.6
21
-24.13
0
LINE
8
BLACK
6
CONTINUOUS
10
43.6
20
-24.13
11
43.6
21
-23.33
0
LINE
8
BLACK
6
CONTINUOUS
10
43.6
20
-23.33
11
44.9
21
-23.33
0
LINE
8
BLACK
6
CONTINUOUS
10
44.9
20
-23.33
11
44.9
21
-24.13
0
LINE
8
BLACK
6
CONTINUOUS
10
54.4
20
-24.13
11
53.1
21
-24.13
0
LINE
8
BLACK
6
CONTINUOUS
10
53.1
20
-24.13
11
53.1
21
-23.33
0
LINE
8
BLACK
6
CONTINUOUS
10
53.1
20
-23.33
11
54.4
21
-23.33
0
LINE
8
BLACK
6
CONTINUOUS
10
54.4
20
-23.33
11
54.4
21
-24.13
0
LINE
8
BLACK
6
CONTINUOUS
10
56.4457
20
-22.319
11
56.5268
21
-22.3732
0
LINE
8
BLACK
6
CONTINUOUS
10
56.5268
20
-22.3732
11
56.581
21
-22.4543
0
LINE
8
BLACK
6
CONTINUOUS
10
56.581
20
-22.4543
11
56.6
21
-22.55
0
LINE
8
BLACK
6
CONTINUOUS
10
56.6
20
-22.55
11
56.6
21
-23.45
0
LINE
8
BLACK
6
CONTINUOUS
10
56.6
20
-23.45
11
56.581
21
-23.5457
0
LINE
8
BLACK
6
CONTINUOUS
10
56.581
20
-23.5457
11
56.5268
21
-23.6268
0
LINE
8
BLACK
6
CONTINUOUS
10
56.5268
20
-23.6268
11
56.4457
21
-23.681
0
LINE
8
BLACK
6
CONTINUOUS
10
56.4457
20
-23.681
11
56.35
21
-23.7
0
LINE
8
BLACK
6
CONTINUOUS
10
56.35
20
-23.7
11
55.825
21
-23.7
0
LINE
8
BLACK
6
CONTINUOUS
10
55.825
20
-23.7
11
55.7293
21
-23.681
0
LINE
8
BLACK
6
CONTINUOUS
10
55.7293
20
-23.681
11
55.6482
21
-23.6268
0
LINE
8
BLACK
6
CONTINUOUS
10
55.6482
20
-23.6268
11
55.594
21
-23.5457
0
LINE
8
BLACK
6
CONTINUOUS
10
55.594
20
-23.5457
11
55.575
21
-23.45
0
LINE
8
BLACK
6
CONTINUOUS
10
55.575
20
-23.45
11
55.575
21
-22.55
0
LINE
8
BLACK
6
CONTINUOUS
10
55.575
20
-22.55
11
55.594
21
-22.4543
0
LINE
8
BLACK
6
CONTINUOUS
10
55.594
20
-22.4543
11
55.6482
21
-22.3732
0
LINE
8
BLACK
6
CONTINUOUS
10
55.6482
20
-22.3732
11
55.7293
21
-22.319
0
LINE
8
BLACK
6
CONTINUOUS
10
55.7293
20
-22.319
11
55.825
21
-22.3
0
LINE
8
BLACK
6
CONTINUOUS
10
55.825
20
-22.3
11
56.35
21
-22.3
0
LINE
8
BLACK
6
CONTINUOUS
10
56.35
20
-22.3
11
56.4457
21
-22.319
0
LINE
8
BLACK
6
CONTINUOUS
10
58.2707
20
-22.319
11
58.3518
21
-22.3732
0
LINE
8
BLACK
6
CONTINUOUS
10
58.3518
20
-22.3732
11
58.406
21
-22.4543
0
LINE
8
BLACK
6
CONTINUOUS
10
58.406
20
-22.4543
11
58.425
21
-22.55
0
LINE
8
BLACK
6
CONTINUOUS
10
58.425
20
-22.55
11
58.425
21
-23.45
0
LINE
8
BLACK
6
CONTINUOUS
10
58.425
20
-23.45
11
58.406
21
-23.5457
0
LINE
8
BLACK
6
CONTINUOUS
10
58.406
20
-23.5457
11
58.3518
21
-23.6268
0
LINE
8
BLACK
6
CONTINUOUS
10
58.3518
20
-23.6268
11
58.2707
21
-23.681
0
LINE
8
BLACK
6
CONTINUOUS
10
58.2707
20
-23.681
11
58.175
21
-23.7
0
LINE
8
BLACK
6
CONTINUOUS
10
58.175
20
-23.7
11
57.65
21
-23.7
0
LINE
8
BLACK
6
CONTINUOUS
10
57.65
20
-23.7
11
57.5543
21
-23.681
0
LINE
8
BLACK
6
CONTINUOUS
10
57.5543
20
-23.681
11
57.4732
21
-23.6268
0
LINE
8
BLACK
6
CONTINUOUS
10
57.4732
20
-23.6268
11
57.419
21
-23.5457
0
LINE
8
BLACK
6
CONTINUOUS
10
57.419
20
-23.5457
11
57.4
21
-23.45
0
LINE
8
BLACK
6
CONTINUOUS
10
57.4
20
-23.45
11
57.4
21
-22.55
0
LINE
8
BLACK
6
CONTINUOUS
10
57.4
20
-22.55
11
57.419
21
-22.4543
0
LINE
8
BLACK
6
CONTINUOUS
10
57.419
20
-22.4543
11
57.4732
21
-22.3732
0
LINE
8
BLACK
6
CONTINUOUS
10
57.4732
20
-22.3732
11
57.5543
21
-22.319
0
LINE
8
BLACK
6
CONTINUOUS
10
57.5543
20
-22.319
11
57.65
21
-22.3
0
LINE
8
BLACK
6
CONTINUOUS
10
57.65
20
-22.3
11
58.175
21
-22.3
0
LINE
8
BLACK
6
CONTINUOUS
10
58.175
20
-22.3
11
58.2707
21
-22.319
0
LINE
8
BLACK
6
CONTINUOUS
10
62.34
20
-21.7917
11
62.4109
21
-21.8391
0
LINE
8
BLACK
6
CONTINUOUS
10
62.4109
20
-21.8391
11
62.4583
21
-21.91
0
LINE
8
BLACK
6
CONTINUOUS
10
62.4583
20
-21.91
11
62.475
21
-21.9937
0
LINE
8
BLACK
6
CONTINUOUS
10
62.475
20
-21.9937
11
62.475
21
-22.4312
0
LINE
8
BLACK
6
CONTINUOUS
10
62.475
20
-22.4312
11
62.4583
21
-22.515
0
LINE
8
BLACK
6
CONTINUOUS
10
62.4583
20
-22.515
11
62.4109
21
-22.5859
0
LINE
8
BLACK
6
CONTINUOUS
10
62.4109
20
-22.5859
11
62.34
21
-22.6333
0
LINE
8
BLACK
6
CONTINUOUS
10
62.34
20
-22.6333
11
62.2562
21
-22.65
0
LINE
8
BLACK
6
CONTINUOUS
10
62.2562
20
-22.65
11
61.7437
21
-22.65
0
LINE
8
BLACK
6
CONTINUOUS
10
61.7437
20
-22.65
11
61.66
21
-22.6333
0
LINE
8
BLACK
6
CONTINUOUS
10
61.66
20
-22.6333
11
61.5891
21
-22.5859
0
LINE
8
BLACK
6
CONTINUOUS
10
61.5891
20
-22.5859
11
61.5417
21
-22.515
0
LINE
8
BLACK
6
CONTINUOUS
10
61.5417
20
-22.515
11
61.525
21
-22.4312
0
LINE
8
BLACK
6
CONTINUOUS
10
61.525
20
-22.4312
11
61.525
21
-21.9937
0
LINE
8
BLACK
6
CONTINUOUS
10
61.525
20
-21.9937
11
61.5417
21
-21.91
0
LINE
8
BLACK
6
CONTINUOUS
10
61.5417
20
-21.91
11
61.5891
21
-21.8391
0
LINE
8
BLACK
6
CONTINUOUS
10
61.5891
20
-21.8391
11
61.66
21
-21.7917
0
LINE
8
BLACK
6
CONTINUOUS
10
61.66
20
-21.7917
11
61.7437
21
-21.775
0
LINE
8
BLACK
6
CONTINUOUS
10
61.7437
20
-21.775
11
62.2562
21
-21.775
0
LINE
8
BLACK
6
CONTINUOUS
10
62.2562
20
-21.775
11
62.34
21
-21.7917
  0
ENDSEC
  0
EOF
