G04 #@! TF.GenerationSoftware,KiCad,Pcbnew,7.0.7-7.0.7~ubuntu23.04.1*
G04 #@! TF.CreationDate,2023-10-09T21:36:30+00:00*
G04 #@! TF.ProjectId,stencil,7374656e-6369-46c2-9e6b-696361645f70,3.0.0-RC1*
G04 #@! TF.SameCoordinates,Original*
G04 #@! TF.FileFunction,Paste,Bot*
G04 #@! TF.FilePolarity,Positive*
%FSLAX46Y46*%
G04 Gerber Fmt 4.6, Leading zero omitted, Abs format (unit mm)*
G04 Created by KiCad (PCBNEW 7.0.7-7.0.7~ubuntu23.04.1) date 2023-10-09 21:36:30*
%MOMM*%
%LPD*%
G01*
G04 APERTURE LIST*
G04 Aperture macros list*
%AMRoundRect*
0 Rectangle with rounded corners*
0 $1 Rounding radius*
0 $2 $3 $4 $5 $6 $7 $8 $9 X,Y pos of 4 corners*
0 Add a 4 corners polygon primitive as box body*
4,1,4,$2,$3,$4,$5,$6,$7,$8,$9,$2,$3,0*
0 Add four circle primitives for the rounded corners*
1,1,$1+$1,$2,$3*
1,1,$1+$1,$4,$5*
1,1,$1+$1,$6,$7*
1,1,$1+$1,$8,$9*
0 Add four rect primitives between the rounded corners*
20,1,$1+$1,$2,$3,$4,$5,0*
20,1,$1+$1,$4,$5,$6,$7,0*
20,1,$1+$1,$6,$7,$8,$9,0*
20,1,$1+$1,$8,$9,$2,$3,0*%
G04 Aperture macros list end*
%ADD10C,0.500000*%
%ADD11C,1.000000*%
%ADD12C,1.050000*%
%ADD13RoundRect,0.381000X0.381000X-0.762000X0.381000X0.762000X-0.381000X0.762000X-0.381000X-0.762000X0*%
G04 APERTURE END LIST*
D10*
X10833332Y136500000D02*
X21277776Y136500000D01*
X196500019Y-1214281D02*
G75*
G03*
X196000000Y-714281I-500019J-19D01*
G01*
X110388884Y136500016D02*
G75*
G03*
X109888884Y136000000I16J-500016D01*
G01*
X72555600Y-37000000D02*
G75*
G03*
X73055552Y-37500000I500000J0D01*
G01*
X48166664Y-37500000D02*
X58611108Y-37500000D01*
D11*
X193750000Y91375000D02*
G75*
G03*
X193750000Y91375000I-500000J0D01*
G01*
D10*
X-27500000Y98214287D02*
X-27500000Y87785716D01*
X84000000Y136000000D02*
G75*
G03*
X83499996Y136500000I-500000J0D01*
G01*
X110388884Y-37500000D02*
X120833328Y-37500000D01*
X172611104Y136499996D02*
G75*
G03*
X172111104Y136000000I-4J-499996D01*
G01*
X10833332Y-37500000D02*
X21277776Y-37500000D01*
X121333300Y136000000D02*
G75*
G03*
X120833328Y136500000I-500000J0D01*
G01*
X-27000000Y24142861D02*
G75*
G03*
X-27500000Y23642861I1J-500001D01*
G01*
D11*
X30625000Y-34250000D02*
G75*
G03*
X30625000Y-34250000I-500000J0D01*
G01*
D10*
X196000000Y-24571400D02*
G75*
G03*
X196500000Y-24071423I0J500000D01*
G01*
X147722216Y-37500000D02*
X158166660Y-37500000D01*
X-27000000Y73857145D02*
G75*
G03*
X-27500000Y73357145I1J-500001D01*
G01*
X196500000Y-26071423D02*
X196500000Y-36499994D01*
X35722220Y136499980D02*
G75*
G03*
X35222220Y136000000I-20J-499980D01*
G01*
X196000000Y99714300D02*
G75*
G03*
X196500000Y100214287I0J500000D01*
G01*
X71055552Y-37499952D02*
G75*
G03*
X71555552Y-37000000I48J499952D01*
G01*
X35722220Y136500000D02*
X46166664Y136500000D01*
X9333300Y136000000D02*
G75*
G03*
X8833332Y136500000I-500000J0D01*
G01*
X97944440Y136500000D02*
X108388884Y136500000D01*
X158666700Y136000000D02*
G75*
G03*
X158166660Y136500000I-500000J0D01*
G01*
X-27500000Y38071432D02*
G75*
G03*
X-27000000Y37571432I500001J1D01*
G01*
X185055548Y136500000D02*
X195499992Y136500000D01*
X73055552Y136500000D02*
X83499996Y136500000D01*
X34222200Y136000000D02*
G75*
G03*
X33722220Y136500000I-500000J0D01*
G01*
X196500000Y73357145D02*
X196500000Y62928574D01*
D11*
X139375000Y-34250000D02*
G75*
G03*
X139375000Y-34250000I-500000J0D01*
G01*
X193750000Y49500000D02*
G75*
G03*
X193750000Y49500000I-500000J0D01*
G01*
D10*
X196000000Y124571400D02*
G75*
G03*
X196500000Y125071429I0J500000D01*
G01*
X85499996Y136500000D02*
X95944440Y136500000D01*
X196500000Y-1214281D02*
X196500000Y-11642852D01*
X-3111100Y136000000D02*
G75*
G03*
X-3611112Y136500000I-500000J0D01*
G01*
X-27500000Y87785716D02*
G75*
G03*
X-27000000Y87285716I500001J1D01*
G01*
X-3611112Y-37499988D02*
G75*
G03*
X-3111112Y-37000000I12J499988D01*
G01*
X48166664Y136500000D02*
X58611108Y136500000D01*
X71555600Y136000000D02*
G75*
G03*
X71055552Y136500000I-500000J0D01*
G01*
X196500000Y23642861D02*
X196500000Y13214290D01*
D12*
X-23725000Y-34250000D02*
G75*
G03*
X-23725000Y-34250000I-525000J0D01*
G01*
D10*
X196000000Y25142900D02*
G75*
G03*
X196500000Y25642861I0J500000D01*
G01*
X85499996Y-37500000D02*
X95944440Y-37500000D01*
X21777800Y136000000D02*
G75*
G03*
X21277776Y136500000I-500000J0D01*
G01*
X-27500000Y36071432D02*
X-27500000Y25642861D01*
X-1611112Y-37500000D02*
X8833332Y-37500000D01*
X133777800Y136000000D02*
G75*
G03*
X133277772Y136500000I-500000J0D01*
G01*
X-1611112Y136500000D02*
X8833332Y136500000D01*
X196500000Y60928574D02*
X196500000Y50500003D01*
X196500045Y73357145D02*
G75*
G03*
X196000000Y73857145I-500045J-45D01*
G01*
X146222200Y136000000D02*
G75*
G03*
X145722216Y136500000I-500000J0D01*
G01*
X183055548Y-37500048D02*
G75*
G03*
X183555548Y-37000000I-48J500048D01*
G01*
X-27000000Y-13142852D02*
G75*
G03*
X-27500000Y-13642852I1J-500001D01*
G01*
X21277776Y-37499976D02*
G75*
G03*
X21777776Y-37000000I24J499976D01*
G01*
X171111100Y136000000D02*
G75*
G03*
X170611104Y136500000I-500000J0D01*
G01*
X22777800Y-37000000D02*
G75*
G03*
X23277776Y-37500000I500000J0D01*
G01*
D12*
X193775000Y133250000D02*
G75*
G03*
X193775000Y133250000I-525000J0D01*
G01*
D11*
X139375000Y133250000D02*
G75*
G03*
X139375000Y133250000I-500000J0D01*
G01*
D10*
X47666700Y-37000000D02*
G75*
G03*
X48166664Y-37500000I500000J0D01*
G01*
X196499961Y23642861D02*
G75*
G03*
X196000000Y24142861I-499961J39D01*
G01*
X196000000Y74857100D02*
G75*
G03*
X196500000Y75357145I0J500000D01*
G01*
X-27500000Y23642861D02*
X-27500000Y13214290D01*
X147722216Y136500000D02*
X158166660Y136500000D01*
X196500000Y36071432D02*
X196500000Y25642861D01*
X195500000Y-37500000D02*
G75*
G03*
X196500000Y-36500000I0J1000000D01*
G01*
X170611104Y-37500004D02*
G75*
G03*
X171111104Y-37000000I-4J500004D01*
G01*
X-27500000Y25642861D02*
G75*
G03*
X-27000000Y25142861I500001J1D01*
G01*
X-27000000Y61428574D02*
G75*
G03*
X-27500000Y60928574I1J-500001D01*
G01*
X-27500000Y60928574D02*
X-27500000Y50500003D01*
X48166664Y136500036D02*
G75*
G03*
X47666664Y136000000I36J-500036D01*
G01*
X-27500000Y-13642852D02*
X-27500000Y-24071423D01*
X-27500000Y75357145D02*
G75*
G03*
X-27000000Y74857145I500001J1D01*
G01*
X196000000Y50000000D02*
G75*
G03*
X196500000Y50500003I0J500000D01*
G01*
X184555500Y-37000000D02*
G75*
G03*
X185055548Y-37500000I500000J0D01*
G01*
X-27500000Y62928574D02*
G75*
G03*
X-27000000Y62428574I500001J1D01*
G01*
X-27500000Y50500003D02*
G75*
G03*
X-27000000Y50000003I500001J1D01*
G01*
X172111100Y-37000000D02*
G75*
G03*
X172611104Y-37500000I500000J0D01*
G01*
D11*
X-23750000Y91375000D02*
G75*
G03*
X-23750000Y91375000I-500000J0D01*
G01*
D10*
X-27500000Y123071429D02*
X-27500000Y112642858D01*
X-1611112Y136500012D02*
G75*
G03*
X-2111112Y136000000I12J-500012D01*
G01*
X-27500000Y13214290D02*
G75*
G03*
X-27000000Y12714290I500001J1D01*
G01*
X196500000Y85785716D02*
X196500000Y75357145D01*
X183555500Y136000000D02*
G75*
G03*
X183055548Y136500000I-500000J0D01*
G01*
X147722216Y136499984D02*
G75*
G03*
X147222216Y136000000I-16J-499984D01*
G01*
X196000000Y87285700D02*
G75*
G03*
X196500000Y87785716I0J500000D01*
G01*
D11*
X85000000Y133250000D02*
G75*
G03*
X85000000Y133250000I-500000J0D01*
G01*
D10*
X110388884Y136500000D02*
X120833328Y136500000D01*
X196500032Y36071432D02*
G75*
G03*
X196000000Y36571432I-500032J-32D01*
G01*
X-27500000Y785719D02*
G75*
G03*
X-27000000Y285719I500001J1D01*
G01*
X-27000000Y123571429D02*
G75*
G03*
X-27500000Y123071429I1J-500001D01*
G01*
X196499987Y98214287D02*
G75*
G03*
X196000000Y98714287I-499987J13D01*
G01*
X196500000Y-13642852D02*
X196500000Y-24071423D01*
X46166664Y-37499964D02*
G75*
G03*
X46666664Y-37000000I36J499964D01*
G01*
X-27000000Y36571432D02*
G75*
G03*
X-27500000Y36071432I1J-500001D01*
G01*
X147222200Y-37000000D02*
G75*
G03*
X147722216Y-37500000I500000J0D01*
G01*
D11*
X30625000Y133250000D02*
G75*
G03*
X30625000Y133250000I-500000J0D01*
G01*
D10*
X83499996Y-37499996D02*
G75*
G03*
X83999996Y-37000000I4J499996D01*
G01*
X-27500000Y85785716D02*
X-27500000Y75357145D01*
X97944440Y136499960D02*
G75*
G03*
X97444440Y136000000I-40J-499960D01*
G01*
X160166660Y136500000D02*
X170611104Y136500000D01*
X-27500000Y112642858D02*
G75*
G03*
X-27000000Y112142858I500001J1D01*
G01*
X23277776Y-37500000D02*
X33722220Y-37500000D01*
X-26500000Y-37500000D02*
X-16055556Y-37500000D01*
X108888900Y136000000D02*
G75*
G03*
X108388884Y136500000I-500000J0D01*
G01*
X185055548Y136499952D02*
G75*
G03*
X184555548Y136000000I-48J-499952D01*
G01*
X85499996Y136500004D02*
G75*
G03*
X84999996Y136000000I4J-500004D01*
G01*
X122833328Y136500000D02*
X133277772Y136500000D01*
X-15555560Y136000000D02*
G75*
G03*
X-16055556Y136500000I-500000J0D01*
G01*
X135277772Y136500000D02*
X145722216Y136500000D01*
X196500029Y123071429D02*
G75*
G03*
X196000000Y123571429I-500029J-29D01*
G01*
X133277772Y-37499972D02*
G75*
G03*
X133777772Y-37000000I28J499972D01*
G01*
X97944440Y-37500000D02*
X108388884Y-37500000D01*
X35222200Y-37000000D02*
G75*
G03*
X35722220Y-37500000I500000J0D01*
G01*
D12*
X193775000Y-34250000D02*
G75*
G03*
X193775000Y-34250000I-525000J0D01*
G01*
D10*
X33722220Y-37500020D02*
G75*
G03*
X34222220Y-37000000I-20J500020D01*
G01*
X-27000000Y49000003D02*
G75*
G03*
X-27500000Y48500003I1J-500001D01*
G01*
X-27500000Y11214290D02*
X-27500000Y785719D01*
X-27500000Y48500003D02*
X-27500000Y38071432D01*
X196499958Y110642858D02*
G75*
G03*
X196000000Y111142858I-499958J42D01*
G01*
X-27000000Y-714281D02*
G75*
G03*
X-27500000Y-1214281I1J-500001D01*
G01*
X-2111100Y-37000000D02*
G75*
G03*
X-1611112Y-37500000I500000J0D01*
G01*
X196000000Y37571400D02*
G75*
G03*
X196500000Y38071432I0J500000D01*
G01*
X196000000Y-12142900D02*
G75*
G03*
X196500000Y-11642852I0J500000D01*
G01*
X196000000Y12714300D02*
G75*
G03*
X196500000Y13214290I0J500000D01*
G01*
X196500000Y135500000D02*
X196500000Y125071429D01*
X60611108Y-37500000D02*
X71055552Y-37500000D01*
X172611104Y-37500000D02*
X183055548Y-37500000D01*
X172611104Y136500000D02*
X183055548Y136500000D01*
X-14055556Y136500006D02*
G75*
G03*
X-14555556Y136000000I6J-500006D01*
G01*
X23277776Y136500000D02*
X33722220Y136500000D01*
X196500000Y123071429D02*
X196500000Y112642858D01*
X196000000Y285700D02*
G75*
G03*
X196500000Y785719I0J500000D01*
G01*
X-27000000Y-25571423D02*
G75*
G03*
X-27500000Y-26071423I1J-500001D01*
G01*
X-14555550Y-37000000D02*
G75*
G03*
X-14055556Y-37500000I500000J0D01*
G01*
X196500016Y85785716D02*
G75*
G03*
X196000000Y86285716I-500016J-16D01*
G01*
X-27500000Y-11642852D02*
G75*
G03*
X-27000000Y-12142852I500001J1D01*
G01*
X196500048Y-13642852D02*
G75*
G03*
X196000000Y-13142852I-500048J-48D01*
G01*
X-27500000Y-36500000D02*
G75*
G03*
X-26500000Y-37500000I999999J-1D01*
G01*
X-26500000Y136500000D02*
G75*
G03*
X-27500000Y135500000I-1J-999999D01*
G01*
X-14055556Y136500000D02*
X-3611112Y136500000D01*
D12*
X-23725000Y133250000D02*
G75*
G03*
X-23725000Y133250000I-525000J0D01*
G01*
D10*
X97444400Y-37000000D02*
G75*
G03*
X97944440Y-37500000I500000J0D01*
G01*
X85000000Y-37000000D02*
G75*
G03*
X85499996Y-37500000I500000J0D01*
G01*
X134777800Y-37000000D02*
G75*
G03*
X135277772Y-37500000I500000J0D01*
G01*
X158166660Y-37499960D02*
G75*
G03*
X158666660Y-37000000I40J499960D01*
G01*
X73055552Y136500048D02*
G75*
G03*
X72555552Y136000000I48J-500048D01*
G01*
X159666700Y-37000000D02*
G75*
G03*
X160166660Y-37500000I500000J0D01*
G01*
X-27500000Y-1214281D02*
X-27500000Y-11642852D01*
X-27000000Y98714287D02*
G75*
G03*
X-27500000Y98214287I1J-500001D01*
G01*
X-27500000Y125071429D02*
G75*
G03*
X-27000000Y124571429I500001J1D01*
G01*
X46666700Y136000000D02*
G75*
G03*
X46166664Y136500000I-500000J0D01*
G01*
X122833328Y136499972D02*
G75*
G03*
X122333328Y136000000I-28J-499972D01*
G01*
X-27500000Y100214287D02*
G75*
G03*
X-27000000Y99714287I500001J1D01*
G01*
X196500003Y48500003D02*
G75*
G03*
X196000000Y49000003I-500003J-3D01*
G01*
X122333300Y-37000000D02*
G75*
G03*
X122833328Y-37500000I500000J0D01*
G01*
D11*
X193750000Y7625000D02*
G75*
G03*
X193750000Y7625000I-500000J0D01*
G01*
D10*
X60611108Y136499992D02*
G75*
G03*
X60111108Y136000000I-8J-499992D01*
G01*
X10833332Y136499968D02*
G75*
G03*
X10333332Y136000000I-32J-499968D01*
G01*
X196499974Y60928574D02*
G75*
G03*
X196000000Y61428574I-499974J26D01*
G01*
X196500000Y48500003D02*
X196500000Y38071432D01*
X35722220Y-37500000D02*
X46166664Y-37500000D01*
X-26500000Y136500000D02*
X-16055556Y136500000D01*
X-14055556Y-37500000D02*
X-3611112Y-37500000D01*
X73055552Y-37500000D02*
X83499996Y-37500000D01*
X-27000000Y111142858D02*
G75*
G03*
X-27500000Y110642858I1J-500001D01*
G01*
X96444400Y136000000D02*
G75*
G03*
X95944440Y136500000I-500000J0D01*
G01*
X196000000Y112142900D02*
G75*
G03*
X196500000Y112642858I0J500000D01*
G01*
X-27500000Y135500000D02*
X-27500000Y125071429D01*
X-27500000Y73357145D02*
X-27500000Y62928574D01*
X135277772Y-37500000D02*
X145722216Y-37500000D01*
X120833328Y-37500028D02*
G75*
G03*
X121333328Y-37000000I-28J500028D01*
G01*
X58611108Y-37500008D02*
G75*
G03*
X59111108Y-37000000I-8J500008D01*
G01*
X160166660Y136500040D02*
G75*
G03*
X159666660Y136000000I40J-500040D01*
G01*
X60611108Y136500000D02*
X71055552Y136500000D01*
X196000000Y62428600D02*
G75*
G03*
X196500000Y62928574I0J500000D01*
G01*
X-16055556Y-37500004D02*
G75*
G03*
X-15555556Y-37000000I-4J500004D01*
G01*
X23277776Y136500024D02*
G75*
G03*
X22777776Y136000000I24J-500024D01*
G01*
X-27000000Y11714290D02*
G75*
G03*
X-27500000Y11214290I1J-500001D01*
G01*
X108388884Y-37499984D02*
G75*
G03*
X108888884Y-37000000I16J499984D01*
G01*
X135277772Y136500028D02*
G75*
G03*
X134777772Y136000000I28J-500028D01*
G01*
X-27500000Y-24071423D02*
G75*
G03*
X-27000000Y-24571423I500001J1D01*
G01*
X122833328Y-37500000D02*
X133277772Y-37500000D01*
X196499990Y11214290D02*
G75*
G03*
X196000000Y11714290I-499990J10D01*
G01*
X-27000000Y86285716D02*
G75*
G03*
X-27500000Y85785716I1J-500001D01*
G01*
X59111100Y136000000D02*
G75*
G03*
X58611108Y136500000I-500000J0D01*
G01*
X109888900Y-37000000D02*
G75*
G03*
X110388884Y-37500000I500000J0D01*
G01*
D11*
X-23750000Y49500000D02*
G75*
G03*
X-23750000Y49500000I-500000J0D01*
G01*
X85000000Y-34250000D02*
G75*
G03*
X85000000Y-34250000I-500000J0D01*
G01*
D10*
X196500000Y11214290D02*
X196500000Y785719D01*
X10333300Y-37000000D02*
G75*
G03*
X10833332Y-37500000I500000J0D01*
G01*
X145722216Y-37500016D02*
G75*
G03*
X146222216Y-37000000I-16J500016D01*
G01*
X185055548Y-37500000D02*
X195499992Y-37500000D01*
X95944440Y-37500040D02*
G75*
G03*
X96444440Y-37000000I-40J500040D01*
G01*
D11*
X-23750000Y7625000D02*
G75*
G03*
X-23750000Y7625000I-500000J0D01*
G01*
D10*
X196499977Y-26071423D02*
G75*
G03*
X196000000Y-25571423I-499977J23D01*
G01*
X-27500000Y-26071423D02*
X-27500000Y-36499994D01*
X160166660Y-37500000D02*
X170611104Y-37500000D01*
X-27500000Y110642858D02*
X-27500000Y100214287D01*
X60111100Y-37000000D02*
G75*
G03*
X60611108Y-37500000I500000J0D01*
G01*
X8833332Y-37500032D02*
G75*
G03*
X9333332Y-37000000I-32J500032D01*
G01*
X196500000Y110642858D02*
X196500000Y100214287D01*
X196500000Y135500000D02*
G75*
G03*
X195500000Y136500000I-1000000J0D01*
G01*
X196500000Y98214287D02*
X196500000Y87785716D01*
D13*
G04 #@! TO.C,F3*
X65060000Y49000000D03*
X65060000Y51600000D03*
G04 #@! TD*
G04 #@! TO.C,F2*
X66990000Y49010000D03*
X66990000Y51610000D03*
G04 #@! TD*
M02*
