<?xml version="1.0" standalone="no"?>
 <!DOCTYPE svg PUBLIC "-//W3C//DTD SVG 1.1//EN" 
 "http://www.w3.org/Graphics/SVG/1.1/DTD/svg11.dtd"> 
<svg
  xmlns:svg="http://www.w3.org/2000/svg"
  xmlns="http://www.w3.org/2000/svg"
  xmlns:xlink="http://www.w3.org/1999/xlink"
  version="1.1"
  width="297.0022mm" height="210.0072mm" viewBox="0.0000 0.0000 297.0022 210.0072">
<title>SVG Image created as pedalboard-hw-User_Drawings.svg date 2023/12/02 12:40:26 </title>
  <desc>Image generated by PCBNEW </desc>
<g style="fill:#000000; fill-opacity:1.0000;stroke:#000000; stroke-opacity:1.0000;
stroke-linecap:round; stroke-linejoin:round;"
 transform="translate(0 0) scale(1 1)">
</g>
<g style="fill:#000000; fill-opacity:0.0; 
stroke:#000000; stroke-width:0.0000; stroke-opacity:1; 
stroke-linecap:round; stroke-linejoin:round;">
</g>
<g style="fill:#000000; fill-opacity:0.0; 
stroke:#000000; stroke-width:0.0500; stroke-opacity:1; 
stroke-linecap:round; stroke-linejoin:round;">
<path style="fill:#000000; fill-opacity:0.0; 
stroke:#000000; stroke-width:0.0500; stroke-opacity:1; 
stroke-linecap:round; stroke-linejoin:round;fill:none"
d="M 15.3700,19.5000
194.6300,19.5000
194.6300,131.7600
15.3700,131.7600
Z" /> 
</g>
<g style="fill:#000000; fill-opacity:0.0; 
stroke:#000000; stroke-width:0.1500; stroke-opacity:1; 
stroke-linecap:round; stroke-linejoin:round;">
<text x="67.5000" y="141.3500"
textLength="9.8690" font-size="1.3333" lengthAdjust="spacingAndGlyphs"
text-anchor="middle" opacity="0">75.0000 mm</text>
<g class="stroked-text"><desc>75.0000 mm</desc>
<path d="M62.8333 140.3048
L63.5000 140.3048
" />
<path d="M63.5000 140.3048
L63.0714 141.3048
" />
<path d="M64.3571 140.3048
L63.8810 140.3048
" />
<path d="M63.8810 140.3048
L63.8333 140.7810
" />
<path d="M63.8333 140.7810
L63.8810 140.7334
" />
<path d="M63.8810 140.7334
L63.9762 140.6858
" />
<path d="M63.9762 140.6858
L64.2143 140.6858
" />
<path d="M64.2143 140.6858
L64.3095 140.7334
" />
<path d="M64.3095 140.7334
L64.3571 140.7810
" />
<path d="M64.3571 140.7810
L64.4048 140.8762
" />
<path d="M64.4048 140.8762
L64.4048 141.1143
" />
<path d="M64.4048 141.1143
L64.3571 141.2096
" />
<path d="M64.3571 141.2096
L64.3095 141.2572
" />
<path d="M64.3095 141.2572
L64.2143 141.3048
" />
<path d="M64.2143 141.3048
L63.9762 141.3048
" />
<path d="M63.9762 141.3048
L63.8810 141.2572
" />
<path d="M63.8810 141.2572
L63.8333 141.2096
" />
<path d="M64.8333 141.2096
L64.8810 141.2572
" />
<path d="M64.8810 141.2572
L64.8333 141.3048
" />
<path d="M64.8333 141.3048
L64.7857 141.2572
" />
<path d="M64.7857 141.2572
L64.8333 141.2096
" />
<path d="M64.8333 141.2096
L64.8333 141.3048
" />
<path d="M65.5000 140.3048
L65.5952 140.3048
" />
<path d="M65.5952 140.3048
L65.6905 140.3524
" />
<path d="M65.6905 140.3524
L65.7381 140.4001
" />
<path d="M65.7381 140.4001
L65.7857 140.4953
" />
<path d="M65.7857 140.4953
L65.8333 140.6858
" />
<path d="M65.8333 140.6858
L65.8333 140.9239
" />
<path d="M65.8333 140.9239
L65.7857 141.1143
" />
<path d="M65.7857 141.1143
L65.7381 141.2096
" />
<path d="M65.7381 141.2096
L65.6905 141.2572
" />
<path d="M65.6905 141.2572
L65.5952 141.3048
" />
<path d="M65.5952 141.3048
L65.5000 141.3048
" />
<path d="M65.5000 141.3048
L65.4048 141.2572
" />
<path d="M65.4048 141.2572
L65.3571 141.2096
" />
<path d="M65.3571 141.2096
L65.3095 141.1143
" />
<path d="M65.3095 141.1143
L65.2619 140.9239
" />
<path d="M65.2619 140.9239
L65.2619 140.6858
" />
<path d="M65.2619 140.6858
L65.3095 140.4953
" />
<path d="M65.3095 140.4953
L65.3571 140.4001
" />
<path d="M65.3571 140.4001
L65.4048 140.3524
" />
<path d="M65.4048 140.3524
L65.5000 140.3048
" />
<path d="M66.4524 140.3048
L66.5476 140.3048
" />
<path d="M66.5476 140.3048
L66.6429 140.3524
" />
<path d="M66.6429 140.3524
L66.6905 140.4001
" />
<path d="M66.6905 140.4001
L66.7381 140.4953
" />
<path d="M66.7381 140.4953
L66.7857 140.6858
" />
<path d="M66.7857 140.6858
L66.7857 140.9239
" />
<path d="M66.7857 140.9239
L66.7381 141.1143
" />
<path d="M66.7381 141.1143
L66.6905 141.2096
" />
<path d="M66.6905 141.2096
L66.6429 141.2572
" />
<path d="M66.6429 141.2572
L66.5476 141.3048
" />
<path d="M66.5476 141.3048
L66.4524 141.3048
" />
<path d="M66.4524 141.3048
L66.3571 141.2572
" />
<path d="M66.3571 141.2572
L66.3095 141.2096
" />
<path d="M66.3095 141.2096
L66.2619 141.1143
" />
<path d="M66.2619 141.1143
L66.2143 140.9239
" />
<path d="M66.2143 140.9239
L66.2143 140.6858
" />
<path d="M66.2143 140.6858
L66.2619 140.4953
" />
<path d="M66.2619 140.4953
L66.3095 140.4001
" />
<path d="M66.3095 140.4001
L66.3571 140.3524
" />
<path d="M66.3571 140.3524
L66.4524 140.3048
" />
<path d="M67.4048 140.3048
L67.5000 140.3048
" />
<path d="M67.5000 140.3048
L67.5952 140.3524
" />
<path d="M67.5952 140.3524
L67.6429 140.4001
" />
<path d="M67.6429 140.4001
L67.6905 140.4953
" />
<path d="M67.6905 140.4953
L67.7381 140.6858
" />
<path d="M67.7381 140.6858
L67.7381 140.9239
" />
<path d="M67.7381 140.9239
L67.6905 141.1143
" />
<path d="M67.6905 141.1143
L67.6429 141.2096
" />
<path d="M67.6429 141.2096
L67.5952 141.2572
" />
<path d="M67.5952 141.2572
L67.5000 141.3048
" />
<path d="M67.5000 141.3048
L67.4048 141.3048
" />
<path d="M67.4048 141.3048
L67.3095 141.2572
" />
<path d="M67.3095 141.2572
L67.2619 141.2096
" />
<path d="M67.2619 141.2096
L67.2143 141.1143
" />
<path d="M67.2143 141.1143
L67.1667 140.9239
" />
<path d="M67.1667 140.9239
L67.1667 140.6858
" />
<path d="M67.1667 140.6858
L67.2143 140.4953
" />
<path d="M67.2143 140.4953
L67.2619 140.4001
" />
<path d="M67.2619 140.4001
L67.3095 140.3524
" />
<path d="M67.3095 140.3524
L67.4048 140.3048
" />
<path d="M68.3571 140.3048
L68.4524 140.3048
" />
<path d="M68.4524 140.3048
L68.5476 140.3524
" />
<path d="M68.5476 140.3524
L68.5952 140.4001
" />
<path d="M68.5952 140.4001
L68.6429 140.4953
" />
<path d="M68.6429 140.4953
L68.6905 140.6858
" />
<path d="M68.6905 140.6858
L68.6905 140.9239
" />
<path d="M68.6905 140.9239
L68.6429 141.1143
" />
<path d="M68.6429 141.1143
L68.5952 141.2096
" />
<path d="M68.5952 141.2096
L68.5476 141.2572
" />
<path d="M68.5476 141.2572
L68.4524 141.3048
" />
<path d="M68.4524 141.3048
L68.3571 141.3048
" />
<path d="M68.3571 141.3048
L68.2619 141.2572
" />
<path d="M68.2619 141.2572
L68.2143 141.2096
" />
<path d="M68.2143 141.2096
L68.1667 141.1143
" />
<path d="M68.1667 141.1143
L68.1190 140.9239
" />
<path d="M68.1190 140.9239
L68.1190 140.6858
" />
<path d="M68.1190 140.6858
L68.1667 140.4953
" />
<path d="M68.1667 140.4953
L68.2143 140.4001
" />
<path d="M68.2143 140.4001
L68.2619 140.3524
" />
<path d="M68.2619 140.3524
L68.3571 140.3048
" />
<path d="M69.8810 141.3048
L69.8810 140.6382
" />
<path d="M69.8810 140.7334
L69.9286 140.6858
" />
<path d="M69.9286 140.6858
L70.0238 140.6382
" />
<path d="M70.0238 140.6382
L70.1667 140.6382
" />
<path d="M70.1667 140.6382
L70.2619 140.6858
" />
<path d="M70.2619 140.6858
L70.3095 140.7810
" />
<path d="M70.3095 140.7810
L70.3095 141.3048
" />
<path d="M70.3095 140.7810
L70.3571 140.6858
" />
<path d="M70.3571 140.6858
L70.4524 140.6382
" />
<path d="M70.4524 140.6382
L70.5952 140.6382
" />
<path d="M70.5952 140.6382
L70.6905 140.6858
" />
<path d="M70.6905 140.6858
L70.7381 140.7810
" />
<path d="M70.7381 140.7810
L70.7381 141.3048
" />
<path d="M71.2143 141.3048
L71.2143 140.6382
" />
<path d="M71.2143 140.7334
L71.2619 140.6858
" />
<path d="M71.2619 140.6858
L71.3571 140.6382
" />
<path d="M71.3571 140.6382
L71.5000 140.6382
" />
<path d="M71.5000 140.6382
L71.5952 140.6858
" />
<path d="M71.5952 140.6858
L71.6429 140.7810
" />
<path d="M71.6429 140.7810
L71.6429 141.3048
" />
<path d="M71.6429 140.7810
L71.6905 140.6858
" />
<path d="M71.6905 140.6858
L71.7857 140.6382
" />
<path d="M71.7857 140.6382
L71.9286 140.6382
" />
<path d="M71.9286 140.6382
L72.0238 140.6858
" />
<path d="M72.0238 140.6858
L72.0714 140.7810
" />
<path d="M72.0714 140.7810
L72.0714 141.3048
" />
</g><path d="M30.0000 119.5000
L30.0000 142.5864
" />
<path d="M105.0000 119.5000
L105.0000 142.5864
" />
<path d="M30.0000 142.0000
L105.0000 142.0000
" />
<path d="M30.0000 142.0000
L105.0000 142.0000
" />
<path d="M30.0000 142.0000
L31.1265 141.4136
" />
<path d="M30.0000 142.0000
L31.1265 142.5864
" />
<path d="M105.0000 142.0000
L103.8735 142.5864
" />
<path d="M105.0000 142.0000
L103.8735 141.4136
" />
<text x="180.0000" y="13.9500"
textLength="5.5833" font-size="1.3333" lengthAdjust="spacingAndGlyphs"
text-anchor="middle" opacity="0">24 mm</text>
<g class="stroked-text"><desc>24 mm</desc>
<path d="M177.5238 13.0001
L177.5714 12.9524
" />
<path d="M177.5714 12.9524
L177.6667 12.9048
" />
<path d="M177.6667 12.9048
L177.9048 12.9048
" />
<path d="M177.9048 12.9048
L178.0000 12.9524
" />
<path d="M178.0000 12.9524
L178.0476 13.0001
" />
<path d="M178.0476 13.0001
L178.0952 13.0953
" />
<path d="M178.0952 13.0953
L178.0952 13.1905
" />
<path d="M178.0952 13.1905
L178.0476 13.3334
" />
<path d="M178.0476 13.3334
L177.4762 13.9048
" />
<path d="M177.4762 13.9048
L178.0952 13.9048
" />
<path d="M178.9524 13.2382
L178.9524 13.9048
" />
<path d="M178.7143 12.8572
L178.4762 13.5715
" />
<path d="M178.4762 13.5715
L179.0952 13.5715
" />
<path d="M180.2381 13.9048
L180.2381 13.2382
" />
<path d="M180.2381 13.3334
L180.2857 13.2858
" />
<path d="M180.2857 13.2858
L180.3810 13.2382
" />
<path d="M180.3810 13.2382
L180.5238 13.2382
" />
<path d="M180.5238 13.2382
L180.6190 13.2858
" />
<path d="M180.6190 13.2858
L180.6667 13.3810
" />
<path d="M180.6667 13.3810
L180.6667 13.9048
" />
<path d="M180.6667 13.3810
L180.7143 13.2858
" />
<path d="M180.7143 13.2858
L180.8095 13.2382
" />
<path d="M180.8095 13.2382
L180.9524 13.2382
" />
<path d="M180.9524 13.2382
L181.0476 13.2858
" />
<path d="M181.0476 13.2858
L181.0952 13.3810
" />
<path d="M181.0952 13.3810
L181.0952 13.9048
" />
<path d="M181.5714 13.9048
L181.5714 13.2382
" />
<path d="M181.5714 13.3334
L181.6190 13.2858
" />
<path d="M181.6190 13.2858
L181.7143 13.2382
" />
<path d="M181.7143 13.2382
L181.8571 13.2382
" />
<path d="M181.8571 13.2382
L181.9524 13.2858
" />
<path d="M181.9524 13.2858
L182.0000 13.3810
" />
<path d="M182.0000 13.3810
L182.0000 13.9048
" />
<path d="M182.0000 13.3810
L182.0476 13.2858
" />
<path d="M182.0476 13.2858
L182.1429 13.2382
" />
<path d="M182.1429 13.2382
L182.2857 13.2382
" />
<path d="M182.2857 13.2382
L182.3810 13.2858
" />
<path d="M182.3810 13.2858
L182.4286 13.3810
" />
<path d="M182.4286 13.3810
L182.4286 13.9048
" />
</g><path d="M168.0000 22.5000
L168.0000 14.0136
" />
<path d="M192.0000 22.5000
L192.0000 14.0136
" />
<path d="M168.0000 14.6000
L192.0000 14.6000
" />
<path d="M168.0000 14.6000
L192.0000 14.6000
" />
<path d="M168.0000 14.6000
L169.1265 14.0136
" />
<path d="M168.0000 14.6000
L169.1265 15.1864
" />
<path d="M192.0000 14.6000
L190.8735 15.1864
" />
<path d="M192.0000 14.6000
L190.8735 14.0136
" />
<g transform="rotate(-90.000000 197.8500 57.5000)">
<text x="197.8500" y="58.0000"
textLength="5.5833" font-size="1.3333" lengthAdjust="spacingAndGlyphs"
text-anchor="middle" opacity="0">19 mm</text>
</g>
<g class="stroked-text"><desc>19 mm</desc>
<path d="M198.3048 59.4048
L198.3048 59.9762
" />
<path d="M198.3048 59.6905
L197.3048 59.6905
" />
<path d="M197.3048 59.6905
L197.4477 59.7857
" />
<path d="M197.4477 59.7857
L197.5429 59.8810
" />
<path d="M197.5429 59.8810
L197.5905 59.9762
" />
<path d="M198.3048 58.9286
L198.3048 58.7381
" />
<path d="M198.3048 58.7381
L198.2572 58.6429
" />
<path d="M198.2572 58.6429
L198.2096 58.5952
" />
<path d="M198.2096 58.5952
L198.0667 58.5000
" />
<path d="M198.0667 58.5000
L197.8762 58.4524
" />
<path d="M197.8762 58.4524
L197.4953 58.4524
" />
<path d="M197.4953 58.4524
L197.4001 58.5000
" />
<path d="M197.4001 58.5000
L197.3524 58.5476
" />
<path d="M197.3524 58.5476
L197.3048 58.6429
" />
<path d="M197.3048 58.6429
L197.3048 58.8333
" />
<path d="M197.3048 58.8333
L197.3524 58.9286
" />
<path d="M197.3524 58.9286
L197.4001 58.9762
" />
<path d="M197.4001 58.9762
L197.4953 59.0238
" />
<path d="M197.4953 59.0238
L197.7334 59.0238
" />
<path d="M197.7334 59.0238
L197.8286 58.9762
" />
<path d="M197.8286 58.9762
L197.8762 58.9286
" />
<path d="M197.8762 58.9286
L197.9239 58.8333
" />
<path d="M197.9239 58.8333
L197.9239 58.6429
" />
<path d="M197.9239 58.6429
L197.8762 58.5476
" />
<path d="M197.8762 58.5476
L197.8286 58.5000
" />
<path d="M197.8286 58.5000
L197.7334 58.4524
" />
<path d="M198.3048 57.2619
L197.6382 57.2619
" />
<path d="M197.7334 57.2619
L197.6858 57.2143
" />
<path d="M197.6858 57.2143
L197.6382 57.1190
" />
<path d="M197.6382 57.1190
L197.6382 56.9762
" />
<path d="M197.6382 56.9762
L197.6858 56.8810
" />
<path d="M197.6858 56.8810
L197.7810 56.8333
" />
<path d="M197.7810 56.8333
L198.3048 56.8333
" />
<path d="M197.7810 56.8333
L197.6858 56.7857
" />
<path d="M197.6858 56.7857
L197.6382 56.6905
" />
<path d="M197.6382 56.6905
L197.6382 56.5476
" />
<path d="M197.6382 56.5476
L197.6858 56.4524
" />
<path d="M197.6858 56.4524
L197.7810 56.4048
" />
<path d="M197.7810 56.4048
L198.3048 56.4048
" />
<path d="M198.3048 55.9286
L197.6382 55.9286
" />
<path d="M197.7334 55.9286
L197.6858 55.8810
" />
<path d="M197.6858 55.8810
L197.6382 55.7857
" />
<path d="M197.6382 55.7857
L197.6382 55.6429
" />
<path d="M197.6382 55.6429
L197.6858 55.5476
" />
<path d="M197.6858 55.5476
L197.7810 55.5000
" />
<path d="M197.7810 55.5000
L198.3048 55.5000
" />
<path d="M197.7810 55.5000
L197.6858 55.4524
" />
<path d="M197.6858 55.4524
L197.6382 55.3571
" />
<path d="M197.6382 55.3571
L197.6382 55.2143
" />
<path d="M197.6382 55.2143
L197.6858 55.1190
" />
<path d="M197.6858 55.1190
L197.7810 55.0714
" />
<path d="M197.7810 55.0714
L198.3048 55.0714
" />
</g><path d="M143.0000 48.0000
L199.5864 48.0000
" />
<path d="M143.0000 67.0000
L199.5864 67.0000
" />
<path d="M199.0000 48.0000
L199.0000 67.0000
" />
<path d="M199.0000 48.0000
L199.0000 67.0000
" />
<path d="M199.0000 48.0000
L199.5864 49.1265
" />
<path d="M199.0000 48.0000
L198.4136 49.1265
" />
<path d="M199.0000 67.0000
L198.4136 65.8735
" />
<path d="M199.0000 67.0000
L199.5864 65.8735
" />
<g transform="rotate(-90.000000 198.0000 124.1000)">
<text x="198.0000" y="124.6000"
textLength="5.5833" font-size="1.3333" lengthAdjust="spacingAndGlyphs"
text-anchor="middle" opacity="0">12 mm</text>
</g>
<g class="stroked-text"><desc>12 mm</desc>
<path d="M198.4548 126.0048
L198.4548 126.5762
" />
<path d="M198.4548 126.2905
L197.4548 126.2905
" />
<path d="M197.4548 126.2905
L197.5977 126.3857
" />
<path d="M197.5977 126.3857
L197.6929 126.4810
" />
<path d="M197.6929 126.4810
L197.7405 126.5762
" />
<path d="M197.5501 125.6238
L197.5024 125.5762
" />
<path d="M197.5024 125.5762
L197.4548 125.4810
" />
<path d="M197.4548 125.4810
L197.4548 125.2429
" />
<path d="M197.4548 125.2429
L197.5024 125.1476
" />
<path d="M197.5024 125.1476
L197.5501 125.1000
" />
<path d="M197.5501 125.1000
L197.6453 125.0524
" />
<path d="M197.6453 125.0524
L197.7405 125.0524
" />
<path d="M197.7405 125.0524
L197.8834 125.1000
" />
<path d="M197.8834 125.1000
L198.4548 125.6714
" />
<path d="M198.4548 125.6714
L198.4548 125.0524
" />
<path d="M198.4548 123.8619
L197.7882 123.8619
" />
<path d="M197.8834 123.8619
L197.8358 123.8143
" />
<path d="M197.8358 123.8143
L197.7882 123.7190
" />
<path d="M197.7882 123.7190
L197.7882 123.5762
" />
<path d="M197.7882 123.5762
L197.8358 123.4810
" />
<path d="M197.8358 123.4810
L197.9310 123.4333
" />
<path d="M197.9310 123.4333
L198.4548 123.4333
" />
<path d="M197.9310 123.4333
L197.8358 123.3857
" />
<path d="M197.8358 123.3857
L197.7882 123.2905
" />
<path d="M197.7882 123.2905
L197.7882 123.1476
" />
<path d="M197.7882 123.1476
L197.8358 123.0524
" />
<path d="M197.8358 123.0524
L197.9310 123.0048
" />
<path d="M197.9310 123.0048
L198.4548 123.0048
" />
<path d="M198.4548 122.5286
L197.7882 122.5286
" />
<path d="M197.8834 122.5286
L197.8358 122.4810
" />
<path d="M197.8358 122.4810
L197.7882 122.3857
" />
<path d="M197.7882 122.3857
L197.7882 122.2429
" />
<path d="M197.7882 122.2429
L197.8358 122.1476
" />
<path d="M197.8358 122.1476
L197.9310 122.1000
" />
<path d="M197.9310 122.1000
L198.4548 122.1000
" />
<path d="M197.9310 122.1000
L197.8358 122.0524
" />
<path d="M197.8358 122.0524
L197.7882 121.9571
" />
<path d="M197.7882 121.9571
L197.7882 121.8143
" />
<path d="M197.7882 121.8143
L197.8358 121.7190
" />
<path d="M197.8358 121.7190
L197.9310 121.6714
" />
<path d="M197.9310 121.6714
L198.4548 121.6714
" />
</g><path d="M180.1600 119.0000
L199.5864 119.0000
" />
<path d="M180.1600 131.0000
L199.5864 131.0000
" />
<path d="M199.0000 119.0000
L199.0000 131.0000
" />
<path d="M199.0000 119.0000
L199.0000 131.0000
" />
<path d="M199.0000 119.0000
L199.5864 120.1265
" />
<path d="M199.0000 119.0000
L198.4136 120.1265
" />
<path d="M199.0000 131.0000
L198.4136 129.8735
" />
<path d="M199.0000 131.0000
L199.5864 129.8735
" />
<g transform="rotate(-90.000000 50.6306 22.5000)">
<text x="50.6306" y="23.0000"
textLength="4.6310" font-size="1.3333" lengthAdjust="spacingAndGlyphs"
text-anchor="middle" opacity="0">3 mm</text>
</g>
<g class="stroked-text"><desc>3 mm</desc>
<path d="M50.0854 24.5476
L50.0854 23.9286
" />
<path d="M50.0854 23.9286
L50.4664 24.2619
" />
<path d="M50.4664 24.2619
L50.4664 24.1190
" />
<path d="M50.4664 24.1190
L50.5140 24.0238
" />
<path d="M50.5140 24.0238
L50.5616 23.9762
" />
<path d="M50.5616 23.9762
L50.6569 23.9286
" />
<path d="M50.6569 23.9286
L50.8950 23.9286
" />
<path d="M50.8950 23.9286
L50.9902 23.9762
" />
<path d="M50.9902 23.9762
L51.0378 24.0238
" />
<path d="M51.0378 24.0238
L51.0854 24.1190
" />
<path d="M51.0854 24.1190
L51.0854 24.4048
" />
<path d="M51.0854 24.4048
L51.0378 24.5000
" />
<path d="M51.0378 24.5000
L50.9902 24.5476
" />
<path d="M51.0854 22.7381
L50.4188 22.7381
" />
<path d="M50.5140 22.7381
L50.4664 22.6905
" />
<path d="M50.4664 22.6905
L50.4188 22.5952
" />
<path d="M50.4188 22.5952
L50.4188 22.4524
" />
<path d="M50.4188 22.4524
L50.4664 22.3571
" />
<path d="M50.4664 22.3571
L50.5616 22.3095
" />
<path d="M50.5616 22.3095
L51.0854 22.3095
" />
<path d="M50.5616 22.3095
L50.4664 22.2619
" />
<path d="M50.4664 22.2619
L50.4188 22.1667
" />
<path d="M50.4188 22.1667
L50.4188 22.0238
" />
<path d="M50.4188 22.0238
L50.4664 21.9286
" />
<path d="M50.4664 21.9286
L50.5616 21.8810
" />
<path d="M50.5616 21.8810
L51.0854 21.8810
" />
<path d="M51.0854 21.4048
L50.4188 21.4048
" />
<path d="M50.5140 21.4048
L50.4664 21.3571
" />
<path d="M50.4664 21.3571
L50.4188 21.2619
" />
<path d="M50.4188 21.2619
L50.4188 21.1190
" />
<path d="M50.4188 21.1190
L50.4664 21.0238
" />
<path d="M50.4664 21.0238
L50.5616 20.9762
" />
<path d="M50.5616 20.9762
L51.0854 20.9762
" />
<path d="M50.5616 20.9762
L50.4664 20.9286
" />
<path d="M50.4664 20.9286
L50.4188 20.8333
" />
<path d="M50.4188 20.8333
L50.4188 20.6905
" />
<path d="M50.4188 20.6905
L50.4664 20.5952
" />
<path d="M50.4664 20.5952
L50.5616 20.5476
" />
<path d="M50.5616 20.5476
L51.0854 20.5476
" />
</g></g>
<g style="fill:#000000; fill-opacity:0.0; 
stroke:#000000; stroke-width:0.1000; stroke-opacity:1; 
stroke-linecap:round; stroke-linejoin:round;">
<path d="M42.0000 23.0000
L49.0864 23.0000
" />
<path d="M42.0000 20.0000
L49.0864 20.0000
" />
<path d="M48.5000 23.0000
L48.5000 20.0000
" />
<path d="M48.5000 23.0000
L48.5000 20.0000
" />
<path d="M48.5000 23.0000
L47.9136 21.8735
" />
<path d="M48.5000 23.0000
L49.0864 21.8735
" />
<path d="M48.5000 20.0000
L49.0864 21.1265
" />
<path d="M48.5000 20.0000
L47.9136 21.1265
" />
</g>
<g style="fill:#000000; fill-opacity:0.0; 
stroke:#000000; stroke-width:0.1500; stroke-opacity:1; 
stroke-linecap:round; stroke-linejoin:round;">
<text x="80.0000" y="51.3500"
textLength="9.8690" font-size="1.3333" lengthAdjust="spacingAndGlyphs"
text-anchor="middle" opacity="0">25.0000 mm</text>
<g class="stroked-text"><desc>25.0000 mm</desc>
<path d="M75.3810 50.4001
L75.4286 50.3524
" />
<path d="M75.4286 50.3524
L75.5238 50.3048
" />
<path d="M75.5238 50.3048
L75.7619 50.3048
" />
<path d="M75.7619 50.3048
L75.8571 50.3524
" />
<path d="M75.8571 50.3524
L75.9048 50.4001
" />
<path d="M75.9048 50.4001
L75.9524 50.4953
" />
<path d="M75.9524 50.4953
L75.9524 50.5905
" />
<path d="M75.9524 50.5905
L75.9048 50.7334
" />
<path d="M75.9048 50.7334
L75.3333 51.3048
" />
<path d="M75.3333 51.3048
L75.9524 51.3048
" />
<path d="M76.8571 50.3048
L76.3810 50.3048
" />
<path d="M76.3810 50.3048
L76.3333 50.7810
" />
<path d="M76.3333 50.7810
L76.3810 50.7334
" />
<path d="M76.3810 50.7334
L76.4762 50.6858
" />
<path d="M76.4762 50.6858
L76.7143 50.6858
" />
<path d="M76.7143 50.6858
L76.8095 50.7334
" />
<path d="M76.8095 50.7334
L76.8571 50.7810
" />
<path d="M76.8571 50.7810
L76.9048 50.8762
" />
<path d="M76.9048 50.8762
L76.9048 51.1143
" />
<path d="M76.9048 51.1143
L76.8571 51.2096
" />
<path d="M76.8571 51.2096
L76.8095 51.2572
" />
<path d="M76.8095 51.2572
L76.7143 51.3048
" />
<path d="M76.7143 51.3048
L76.4762 51.3048
" />
<path d="M76.4762 51.3048
L76.3810 51.2572
" />
<path d="M76.3810 51.2572
L76.3333 51.2096
" />
<path d="M77.3333 51.2096
L77.3810 51.2572
" />
<path d="M77.3810 51.2572
L77.3333 51.3048
" />
<path d="M77.3333 51.3048
L77.2857 51.2572
" />
<path d="M77.2857 51.2572
L77.3333 51.2096
" />
<path d="M77.3333 51.2096
L77.3333 51.3048
" />
<path d="M78.0000 50.3048
L78.0952 50.3048
" />
<path d="M78.0952 50.3048
L78.1905 50.3524
" />
<path d="M78.1905 50.3524
L78.2381 50.4001
" />
<path d="M78.2381 50.4001
L78.2857 50.4953
" />
<path d="M78.2857 50.4953
L78.3333 50.6858
" />
<path d="M78.3333 50.6858
L78.3333 50.9239
" />
<path d="M78.3333 50.9239
L78.2857 51.1143
" />
<path d="M78.2857 51.1143
L78.2381 51.2096
" />
<path d="M78.2381 51.2096
L78.1905 51.2572
" />
<path d="M78.1905 51.2572
L78.0952 51.3048
" />
<path d="M78.0952 51.3048
L78.0000 51.3048
" />
<path d="M78.0000 51.3048
L77.9048 51.2572
" />
<path d="M77.9048 51.2572
L77.8571 51.2096
" />
<path d="M77.8571 51.2096
L77.8095 51.1143
" />
<path d="M77.8095 51.1143
L77.7619 50.9239
" />
<path d="M77.7619 50.9239
L77.7619 50.6858
" />
<path d="M77.7619 50.6858
L77.8095 50.4953
" />
<path d="M77.8095 50.4953
L77.8571 50.4001
" />
<path d="M77.8571 50.4001
L77.9048 50.3524
" />
<path d="M77.9048 50.3524
L78.0000 50.3048
" />
<path d="M78.9524 50.3048
L79.0476 50.3048
" />
<path d="M79.0476 50.3048
L79.1429 50.3524
" />
<path d="M79.1429 50.3524
L79.1905 50.4001
" />
<path d="M79.1905 50.4001
L79.2381 50.4953
" />
<path d="M79.2381 50.4953
L79.2857 50.6858
" />
<path d="M79.2857 50.6858
L79.2857 50.9239
" />
<path d="M79.2857 50.9239
L79.2381 51.1143
" />
<path d="M79.2381 51.1143
L79.1905 51.2096
" />
<path d="M79.1905 51.2096
L79.1429 51.2572
" />
<path d="M79.1429 51.2572
L79.0476 51.3048
" />
<path d="M79.0476 51.3048
L78.9524 51.3048
" />
<path d="M78.9524 51.3048
L78.8571 51.2572
" />
<path d="M78.8571 51.2572
L78.8095 51.2096
" />
<path d="M78.8095 51.2096
L78.7619 51.1143
" />
<path d="M78.7619 51.1143
L78.7143 50.9239
" />
<path d="M78.7143 50.9239
L78.7143 50.6858
" />
<path d="M78.7143 50.6858
L78.7619 50.4953
" />
<path d="M78.7619 50.4953
L78.8095 50.4001
" />
<path d="M78.8095 50.4001
L78.8571 50.3524
" />
<path d="M78.8571 50.3524
L78.9524 50.3048
" />
<path d="M79.9048 50.3048
L80.0000 50.3048
" />
<path d="M80.0000 50.3048
L80.0952 50.3524
" />
<path d="M80.0952 50.3524
L80.1429 50.4001
" />
<path d="M80.1429 50.4001
L80.1905 50.4953
" />
<path d="M80.1905 50.4953
L80.2381 50.6858
" />
<path d="M80.2381 50.6858
L80.2381 50.9239
" />
<path d="M80.2381 50.9239
L80.1905 51.1143
" />
<path d="M80.1905 51.1143
L80.1429 51.2096
" />
<path d="M80.1429 51.2096
L80.0952 51.2572
" />
<path d="M80.0952 51.2572
L80.0000 51.3048
" />
<path d="M80.0000 51.3048
L79.9048 51.3048
" />
<path d="M79.9048 51.3048
L79.8095 51.2572
" />
<path d="M79.8095 51.2572
L79.7619 51.2096
" />
<path d="M79.7619 51.2096
L79.7143 51.1143
" />
<path d="M79.7143 51.1143
L79.6667 50.9239
" />
<path d="M79.6667 50.9239
L79.6667 50.6858
" />
<path d="M79.6667 50.6858
L79.7143 50.4953
" />
<path d="M79.7143 50.4953
L79.7619 50.4001
" />
<path d="M79.7619 50.4001
L79.8095 50.3524
" />
<path d="M79.8095 50.3524
L79.9048 50.3048
" />
<path d="M80.8571 50.3048
L80.9524 50.3048
" />
<path d="M80.9524 50.3048
L81.0476 50.3524
" />
<path d="M81.0476 50.3524
L81.0952 50.4001
" />
<path d="M81.0952 50.4001
L81.1429 50.4953
" />
<path d="M81.1429 50.4953
L81.1905 50.6858
" />
<path d="M81.1905 50.6858
L81.1905 50.9239
" />
<path d="M81.1905 50.9239
L81.1429 51.1143
" />
<path d="M81.1429 51.1143
L81.0952 51.2096
" />
<path d="M81.0952 51.2096
L81.0476 51.2572
" />
<path d="M81.0476 51.2572
L80.9524 51.3048
" />
<path d="M80.9524 51.3048
L80.8571 51.3048
" />
<path d="M80.8571 51.3048
L80.7619 51.2572
" />
<path d="M80.7619 51.2572
L80.7143 51.2096
" />
<path d="M80.7143 51.2096
L80.6667 51.1143
" />
<path d="M80.6667 51.1143
L80.6190 50.9239
" />
<path d="M80.6190 50.9239
L80.6190 50.6858
" />
<path d="M80.6190 50.6858
L80.6667 50.4953
" />
<path d="M80.6667 50.4953
L80.7143 50.4001
" />
<path d="M80.7143 50.4001
L80.7619 50.3524
" />
<path d="M80.7619 50.3524
L80.8571 50.3048
" />
<path d="M82.3810 51.3048
L82.3810 50.6382
" />
<path d="M82.3810 50.7334
L82.4286 50.6858
" />
<path d="M82.4286 50.6858
L82.5238 50.6382
" />
<path d="M82.5238 50.6382
L82.6667 50.6382
" />
<path d="M82.6667 50.6382
L82.7619 50.6858
" />
<path d="M82.7619 50.6858
L82.8095 50.7810
" />
<path d="M82.8095 50.7810
L82.8095 51.3048
" />
<path d="M82.8095 50.7810
L82.8571 50.6858
" />
<path d="M82.8571 50.6858
L82.9524 50.6382
" />
<path d="M82.9524 50.6382
L83.0952 50.6382
" />
<path d="M83.0952 50.6382
L83.1905 50.6858
" />
<path d="M83.1905 50.6858
L83.2381 50.7810
" />
<path d="M83.2381 50.7810
L83.2381 51.3048
" />
<path d="M83.7143 51.3048
L83.7143 50.6382
" />
<path d="M83.7143 50.7334
L83.7619 50.6858
" />
<path d="M83.7619 50.6858
L83.8571 50.6382
" />
<path d="M83.8571 50.6382
L84.0000 50.6382
" />
<path d="M84.0000 50.6382
L84.0952 50.6858
" />
<path d="M84.0952 50.6858
L84.1429 50.7810
" />
<path d="M84.1429 50.7810
L84.1429 51.3048
" />
<path d="M84.1429 50.7810
L84.1905 50.6858
" />
<path d="M84.1905 50.6858
L84.2857 50.6382
" />
<path d="M84.2857 50.6382
L84.4286 50.6382
" />
<path d="M84.4286 50.6382
L84.5238 50.6858
" />
<path d="M84.5238 50.6858
L84.5714 50.7810
" />
<path d="M84.5714 50.7810
L84.5714 51.3048
" />
</g><path d="M67.5000 48.5000
L67.5000 52.5864
" />
<path d="M92.5000 48.5000
L92.5000 52.5864
" />
<path d="M67.5000 52.0000
L92.5000 52.0000
" />
<path d="M67.5000 52.0000
L92.5000 52.0000
" />
<path d="M67.5000 52.0000
L68.6265 51.4136
" />
<path d="M67.5000 52.0000
L68.6265 52.5864
" />
<path d="M92.5000 52.0000
L91.3735 52.5864
" />
<path d="M92.5000 52.0000
L91.3735 51.4136
" />
<text x="105.0000" y="16.8500"
textLength="5.5833" font-size="1.3333" lengthAdjust="spacingAndGlyphs"
text-anchor="middle" opacity="0">50 mm</text>
<g class="stroked-text"><desc>50 mm</desc>
<path d="M103.0476 15.8048
L102.5714 15.8048
" />
<path d="M102.5714 15.8048
L102.5238 16.2810
" />
<path d="M102.5238 16.2810
L102.5714 16.2334
" />
<path d="M102.5714 16.2334
L102.6667 16.1858
" />
<path d="M102.6667 16.1858
L102.9048 16.1858
" />
<path d="M102.9048 16.1858
L103.0000 16.2334
" />
<path d="M103.0000 16.2334
L103.0476 16.2810
" />
<path d="M103.0476 16.2810
L103.0952 16.3762
" />
<path d="M103.0952 16.3762
L103.0952 16.6143
" />
<path d="M103.0952 16.6143
L103.0476 16.7096
" />
<path d="M103.0476 16.7096
L103.0000 16.7572
" />
<path d="M103.0000 16.7572
L102.9048 16.8048
" />
<path d="M102.9048 16.8048
L102.6667 16.8048
" />
<path d="M102.6667 16.8048
L102.5714 16.7572
" />
<path d="M102.5714 16.7572
L102.5238 16.7096
" />
<path d="M103.7143 15.8048
L103.8095 15.8048
" />
<path d="M103.8095 15.8048
L103.9048 15.8524
" />
<path d="M103.9048 15.8524
L103.9524 15.9001
" />
<path d="M103.9524 15.9001
L104.0000 15.9953
" />
<path d="M104.0000 15.9953
L104.0476 16.1858
" />
<path d="M104.0476 16.1858
L104.0476 16.4239
" />
<path d="M104.0476 16.4239
L104.0000 16.6143
" />
<path d="M104.0000 16.6143
L103.9524 16.7096
" />
<path d="M103.9524 16.7096
L103.9048 16.7572
" />
<path d="M103.9048 16.7572
L103.8095 16.8048
" />
<path d="M103.8095 16.8048
L103.7143 16.8048
" />
<path d="M103.7143 16.8048
L103.6190 16.7572
" />
<path d="M103.6190 16.7572
L103.5714 16.7096
" />
<path d="M103.5714 16.7096
L103.5238 16.6143
" />
<path d="M103.5238 16.6143
L103.4762 16.4239
" />
<path d="M103.4762 16.4239
L103.4762 16.1858
" />
<path d="M103.4762 16.1858
L103.5238 15.9953
" />
<path d="M103.5238 15.9953
L103.5714 15.9001
" />
<path d="M103.5714 15.9001
L103.6190 15.8524
" />
<path d="M103.6190 15.8524
L103.7143 15.8048
" />
<path d="M105.2381 16.8048
L105.2381 16.1382
" />
<path d="M105.2381 16.2334
L105.2857 16.1858
" />
<path d="M105.2857 16.1858
L105.3810 16.1382
" />
<path d="M105.3810 16.1382
L105.5238 16.1382
" />
<path d="M105.5238 16.1382
L105.6190 16.1858
" />
<path d="M105.6190 16.1858
L105.6667 16.2810
" />
<path d="M105.6667 16.2810
L105.6667 16.8048
" />
<path d="M105.6667 16.2810
L105.7143 16.1858
" />
<path d="M105.7143 16.1858
L105.8095 16.1382
" />
<path d="M105.8095 16.1382
L105.9524 16.1382
" />
<path d="M105.9524 16.1382
L106.0476 16.1858
" />
<path d="M106.0476 16.1858
L106.0952 16.2810
" />
<path d="M106.0952 16.2810
L106.0952 16.8048
" />
<path d="M106.5714 16.8048
L106.5714 16.1382
" />
<path d="M106.5714 16.2334
L106.6190 16.1858
" />
<path d="M106.6190 16.1858
L106.7143 16.1382
" />
<path d="M106.7143 16.1382
L106.8571 16.1382
" />
<path d="M106.8571 16.1382
L106.9524 16.1858
" />
<path d="M106.9524 16.1858
L107.0000 16.2810
" />
<path d="M107.0000 16.2810
L107.0000 16.8048
" />
<path d="M107.0000 16.2810
L107.0476 16.1858
" />
<path d="M107.0476 16.1858
L107.1429 16.1382
" />
<path d="M107.1429 16.1382
L107.2857 16.1382
" />
<path d="M107.2857 16.1382
L107.3810 16.1858
" />
<path d="M107.3810 16.1858
L107.4286 16.2810
" />
<path d="M107.4286 16.2810
L107.4286 16.8048
" />
</g><path d="M80.0000 19.4944
L80.0000 16.9136
" />
<path d="M130.0000 19.4944
L130.0000 16.9136
" />
<path d="M80.0000 17.5000
L130.0000 17.5000
" />
<path d="M80.0000 17.5000
L130.0000 17.5000
" />
<path d="M80.0000 17.5000
L81.1265 16.9136
" />
<path d="M80.0000 17.5000
L81.1265 18.0864
" />
<path d="M130.0000 17.5000
L128.8735 18.0864
" />
<path d="M130.0000 17.5000
L128.8735 16.9136
" />
<text x="105.0000" y="147.1500"
textLength="8.9167" font-size="1.3333" lengthAdjust="spacingAndGlyphs"
text-anchor="middle" opacity="0">180.84 mm</text>
<g class="stroked-text"><desc>180.84 mm</desc>
<path d="M101.4286 147.1048
L100.8571 147.1048
" />
<path d="M101.1429 147.1048
L101.1429 146.1048
" />
<path d="M101.1429 146.1048
L101.0476 146.2477
" />
<path d="M101.0476 146.2477
L100.9524 146.3429
" />
<path d="M100.9524 146.3429
L100.8571 146.3905
" />
<path d="M102.0000 146.5334
L101.9048 146.4858
" />
<path d="M101.9048 146.4858
L101.8571 146.4382
" />
<path d="M101.8571 146.4382
L101.8095 146.3429
" />
<path d="M101.8095 146.3429
L101.8095 146.2953
" />
<path d="M101.8095 146.2953
L101.8571 146.2001
" />
<path d="M101.8571 146.2001
L101.9048 146.1524
" />
<path d="M101.9048 146.1524
L102.0000 146.1048
" />
<path d="M102.0000 146.1048
L102.1905 146.1048
" />
<path d="M102.1905 146.1048
L102.2857 146.1524
" />
<path d="M102.2857 146.1524
L102.3333 146.2001
" />
<path d="M102.3333 146.2001
L102.3810 146.2953
" />
<path d="M102.3810 146.2953
L102.3810 146.3429
" />
<path d="M102.3810 146.3429
L102.3333 146.4382
" />
<path d="M102.3333 146.4382
L102.2857 146.4858
" />
<path d="M102.2857 146.4858
L102.1905 146.5334
" />
<path d="M102.1905 146.5334
L102.0000 146.5334
" />
<path d="M102.0000 146.5334
L101.9048 146.5810
" />
<path d="M101.9048 146.5810
L101.8571 146.6286
" />
<path d="M101.8571 146.6286
L101.8095 146.7239
" />
<path d="M101.8095 146.7239
L101.8095 146.9143
" />
<path d="M101.8095 146.9143
L101.8571 147.0096
" />
<path d="M101.8571 147.0096
L101.9048 147.0572
" />
<path d="M101.9048 147.0572
L102.0000 147.1048
" />
<path d="M102.0000 147.1048
L102.1905 147.1048
" />
<path d="M102.1905 147.1048
L102.2857 147.0572
" />
<path d="M102.2857 147.0572
L102.3333 147.0096
" />
<path d="M102.3333 147.0096
L102.3810 146.9143
" />
<path d="M102.3810 146.9143
L102.3810 146.7239
" />
<path d="M102.3810 146.7239
L102.3333 146.6286
" />
<path d="M102.3333 146.6286
L102.2857 146.5810
" />
<path d="M102.2857 146.5810
L102.1905 146.5334
" />
<path d="M103.0000 146.1048
L103.0952 146.1048
" />
<path d="M103.0952 146.1048
L103.1905 146.1524
" />
<path d="M103.1905 146.1524
L103.2381 146.2001
" />
<path d="M103.2381 146.2001
L103.2857 146.2953
" />
<path d="M103.2857 146.2953
L103.3333 146.4858
" />
<path d="M103.3333 146.4858
L103.3333 146.7239
" />
<path d="M103.3333 146.7239
L103.2857 146.9143
" />
<path d="M103.2857 146.9143
L103.2381 147.0096
" />
<path d="M103.2381 147.0096
L103.1905 147.0572
" />
<path d="M103.1905 147.0572
L103.0952 147.1048
" />
<path d="M103.0952 147.1048
L103.0000 147.1048
" />
<path d="M103.0000 147.1048
L102.9048 147.0572
" />
<path d="M102.9048 147.0572
L102.8571 147.0096
" />
<path d="M102.8571 147.0096
L102.8095 146.9143
" />
<path d="M102.8095 146.9143
L102.7619 146.7239
" />
<path d="M102.7619 146.7239
L102.7619 146.4858
" />
<path d="M102.7619 146.4858
L102.8095 146.2953
" />
<path d="M102.8095 146.2953
L102.8571 146.2001
" />
<path d="M102.8571 146.2001
L102.9048 146.1524
" />
<path d="M102.9048 146.1524
L103.0000 146.1048
" />
<path d="M103.7619 147.0096
L103.8095 147.0572
" />
<path d="M103.8095 147.0572
L103.7619 147.1048
" />
<path d="M103.7619 147.1048
L103.7143 147.0572
" />
<path d="M103.7143 147.0572
L103.7619 147.0096
" />
<path d="M103.7619 147.0096
L103.7619 147.1048
" />
<path d="M104.3810 146.5334
L104.2857 146.4858
" />
<path d="M104.2857 146.4858
L104.2381 146.4382
" />
<path d="M104.2381 146.4382
L104.1905 146.3429
" />
<path d="M104.1905 146.3429
L104.1905 146.2953
" />
<path d="M104.1905 146.2953
L104.2381 146.2001
" />
<path d="M104.2381 146.2001
L104.2857 146.1524
" />
<path d="M104.2857 146.1524
L104.3810 146.1048
" />
<path d="M104.3810 146.1048
L104.5714 146.1048
" />
<path d="M104.5714 146.1048
L104.6667 146.1524
" />
<path d="M104.6667 146.1524
L104.7143 146.2001
" />
<path d="M104.7143 146.2001
L104.7619 146.2953
" />
<path d="M104.7619 146.2953
L104.7619 146.3429
" />
<path d="M104.7619 146.3429
L104.7143 146.4382
" />
<path d="M104.7143 146.4382
L104.6667 146.4858
" />
<path d="M104.6667 146.4858
L104.5714 146.5334
" />
<path d="M104.5714 146.5334
L104.3810 146.5334
" />
<path d="M104.3810 146.5334
L104.2857 146.5810
" />
<path d="M104.2857 146.5810
L104.2381 146.6286
" />
<path d="M104.2381 146.6286
L104.1905 146.7239
" />
<path d="M104.1905 146.7239
L104.1905 146.9143
" />
<path d="M104.1905 146.9143
L104.2381 147.0096
" />
<path d="M104.2381 147.0096
L104.2857 147.0572
" />
<path d="M104.2857 147.0572
L104.3810 147.1048
" />
<path d="M104.3810 147.1048
L104.5714 147.1048
" />
<path d="M104.5714 147.1048
L104.6667 147.0572
" />
<path d="M104.6667 147.0572
L104.7143 147.0096
" />
<path d="M104.7143 147.0096
L104.7619 146.9143
" />
<path d="M104.7619 146.9143
L104.7619 146.7239
" />
<path d="M104.7619 146.7239
L104.7143 146.6286
" />
<path d="M104.7143 146.6286
L104.6667 146.5810
" />
<path d="M104.6667 146.5810
L104.5714 146.5334
" />
<path d="M105.6190 146.4382
L105.6190 147.1048
" />
<path d="M105.3810 146.0572
L105.1429 146.7715
" />
<path d="M105.1429 146.7715
L105.7619 146.7715
" />
<path d="M106.9048 147.1048
L106.9048 146.4382
" />
<path d="M106.9048 146.5334
L106.9524 146.4858
" />
<path d="M106.9524 146.4858
L107.0476 146.4382
" />
<path d="M107.0476 146.4382
L107.1905 146.4382
" />
<path d="M107.1905 146.4382
L107.2857 146.4858
" />
<path d="M107.2857 146.4858
L107.3333 146.5810
" />
<path d="M107.3333 146.5810
L107.3333 147.1048
" />
<path d="M107.3333 146.5810
L107.3810 146.4858
" />
<path d="M107.3810 146.4858
L107.4762 146.4382
" />
<path d="M107.4762 146.4382
L107.6190 146.4382
" />
<path d="M107.6190 146.4382
L107.7143 146.4858
" />
<path d="M107.7143 146.4858
L107.7619 146.5810
" />
<path d="M107.7619 146.5810
L107.7619 147.1048
" />
<path d="M108.2381 147.1048
L108.2381 146.4382
" />
<path d="M108.2381 146.5334
L108.2857 146.4858
" />
<path d="M108.2857 146.4858
L108.3810 146.4382
" />
<path d="M108.3810 146.4382
L108.5238 146.4382
" />
<path d="M108.5238 146.4382
L108.6190 146.4858
" />
<path d="M108.6190 146.4858
L108.6667 146.5810
" />
<path d="M108.6667 146.5810
L108.6667 147.1048
" />
<path d="M108.6667 146.5810
L108.7143 146.4858
" />
<path d="M108.7143 146.4858
L108.8095 146.4382
" />
<path d="M108.8095 146.4382
L108.9524 146.4382
" />
<path d="M108.9524 146.4382
L109.0476 146.4858
" />
<path d="M109.0476 146.4858
L109.0952 146.5810
" />
<path d="M109.0952 146.5810
L109.0952 147.1048
" />
</g></g>
<g style="fill:#000000; fill-opacity:0.0; 
stroke:#000000; stroke-width:0.1000; stroke-opacity:1; 
stroke-linecap:round; stroke-linejoin:round;">
<path d="M195.4200 106.1100
L195.4200 148.3864
" />
<path d="M14.5800 106.1100
L14.5800 148.3864
" />
<path d="M195.4200 147.8000
L14.5800 147.8000
" />
<path d="M195.4200 147.8000
L14.5800 147.8000
" />
<path d="M195.4200 147.8000
L194.2935 148.3864
" />
<path d="M195.4200 147.8000
L194.2935 147.2136
" />
<path d="M14.5800 147.8000
L15.7065 147.2136
" />
<path d="M14.5800 147.8000
L15.7065 148.3864
" />
</g>
<g style="fill:#000000; fill-opacity:0.0; 
stroke:#000000; stroke-width:0.1500; stroke-opacity:1; 
stroke-linecap:round; stroke-linejoin:round;">
<g transform="rotate(-90.000000 197.8500 93.0000)">
<text x="197.8500" y="93.5000"
textLength="5.5833" font-size="1.3333" lengthAdjust="spacingAndGlyphs"
text-anchor="middle" opacity="0">52 mm</text>
</g>
<g class="stroked-text"><desc>52 mm</desc>
<path d="M197.3048 94.9524
L197.3048 95.4286
" />
<path d="M197.3048 95.4286
L197.7810 95.4762
" />
<path d="M197.7810 95.4762
L197.7334 95.4286
" />
<path d="M197.7334 95.4286
L197.6858 95.3333
" />
<path d="M197.6858 95.3333
L197.6858 95.0952
" />
<path d="M197.6858 95.0952
L197.7334 95.0000
" />
<path d="M197.7334 95.0000
L197.7810 94.9524
" />
<path d="M197.7810 94.9524
L197.8762 94.9048
" />
<path d="M197.8762 94.9048
L198.1143 94.9048
" />
<path d="M198.1143 94.9048
L198.2096 94.9524
" />
<path d="M198.2096 94.9524
L198.2572 95.0000
" />
<path d="M198.2572 95.0000
L198.3048 95.0952
" />
<path d="M198.3048 95.0952
L198.3048 95.3333
" />
<path d="M198.3048 95.3333
L198.2572 95.4286
" />
<path d="M198.2572 95.4286
L198.2096 95.4762
" />
<path d="M197.4001 94.5238
L197.3524 94.4762
" />
<path d="M197.3524 94.4762
L197.3048 94.3810
" />
<path d="M197.3048 94.3810
L197.3048 94.1429
" />
<path d="M197.3048 94.1429
L197.3524 94.0476
" />
<path d="M197.3524 94.0476
L197.4001 94.0000
" />
<path d="M197.4001 94.0000
L197.4953 93.9524
" />
<path d="M197.4953 93.9524
L197.5905 93.9524
" />
<path d="M197.5905 93.9524
L197.7334 94.0000
" />
<path d="M197.7334 94.0000
L198.3048 94.5714
" />
<path d="M198.3048 94.5714
L198.3048 93.9524
" />
<path d="M198.3048 92.7619
L197.6382 92.7619
" />
<path d="M197.7334 92.7619
L197.6858 92.7143
" />
<path d="M197.6858 92.7143
L197.6382 92.6190
" />
<path d="M197.6382 92.6190
L197.6382 92.4762
" />
<path d="M197.6382 92.4762
L197.6858 92.3810
" />
<path d="M197.6858 92.3810
L197.7810 92.3333
" />
<path d="M197.7810 92.3333
L198.3048 92.3333
" />
<path d="M197.7810 92.3333
L197.6858 92.2857
" />
<path d="M197.6858 92.2857
L197.6382 92.1905
" />
<path d="M197.6382 92.1905
L197.6382 92.0476
" />
<path d="M197.6382 92.0476
L197.6858 91.9524
" />
<path d="M197.6858 91.9524
L197.7810 91.9048
" />
<path d="M197.7810 91.9048
L198.3048 91.9048
" />
<path d="M198.3048 91.4286
L197.6382 91.4286
" />
<path d="M197.7334 91.4286
L197.6858 91.3810
" />
<path d="M197.6858 91.3810
L197.6382 91.2857
" />
<path d="M197.6382 91.2857
L197.6382 91.1429
" />
<path d="M197.6382 91.1429
L197.6858 91.0476
" />
<path d="M197.6858 91.0476
L197.7810 91.0000
" />
<path d="M197.7810 91.0000
L198.3048 91.0000
" />
<path d="M197.7810 91.0000
L197.6858 90.9524
" />
<path d="M197.6858 90.9524
L197.6382 90.8571
" />
<path d="M197.6382 90.8571
L197.6382 90.7143
" />
<path d="M197.6382 90.7143
L197.6858 90.6190
" />
<path d="M197.6858 90.6190
L197.7810 90.5714
" />
<path d="M197.7810 90.5714
L198.3048 90.5714
" />
</g><path d="M180.5000 67.0000
L199.5864 67.0000
" />
<path d="M180.5000 119.0000
L199.5864 119.0000
" />
<path d="M199.0000 67.0000
L199.0000 119.0000
" />
<path d="M199.0000 67.0000
L199.0000 119.0000
" />
<path d="M199.0000 67.0000
L199.5864 68.1265
" />
<path d="M199.0000 67.0000
L198.4136 68.1265
" />
<path d="M199.0000 119.0000
L198.4136 117.8735
" />
<path d="M199.0000 119.0000
L199.5864 117.8735
" />
<g transform="rotate(-90.000000 200.0500 75.5000)">
<text x="200.0500" y="76.0000"
textLength="6.5357" font-size="1.3333" lengthAdjust="spacingAndGlyphs"
text-anchor="middle" opacity="0">111 mm</text>
</g>
<g class="stroked-text"><desc>111 mm</desc>
<path d="M200.5048 77.8810
L200.5048 78.4524
" />
<path d="M200.5048 78.1667
L199.5048 78.1667
" />
<path d="M199.5048 78.1667
L199.6477 78.2619
" />
<path d="M199.6477 78.2619
L199.7429 78.3571
" />
<path d="M199.7429 78.3571
L199.7905 78.4524
" />
<path d="M200.5048 76.9286
L200.5048 77.5000
" />
<path d="M200.5048 77.2143
L199.5048 77.2143
" />
<path d="M199.5048 77.2143
L199.6477 77.3095
" />
<path d="M199.6477 77.3095
L199.7429 77.4048
" />
<path d="M199.7429 77.4048
L199.7905 77.5000
" />
<path d="M200.5048 75.9762
L200.5048 76.5476
" />
<path d="M200.5048 76.2619
L199.5048 76.2619
" />
<path d="M199.5048 76.2619
L199.6477 76.3571
" />
<path d="M199.6477 76.3571
L199.7429 76.4524
" />
<path d="M199.7429 76.4524
L199.7905 76.5476
" />
<path d="M200.5048 74.7857
L199.8382 74.7857
" />
<path d="M199.9334 74.7857
L199.8858 74.7381
" />
<path d="M199.8858 74.7381
L199.8382 74.6429
" />
<path d="M199.8382 74.6429
L199.8382 74.5000
" />
<path d="M199.8382 74.5000
L199.8858 74.4048
" />
<path d="M199.8858 74.4048
L199.9810 74.3571
" />
<path d="M199.9810 74.3571
L200.5048 74.3571
" />
<path d="M199.9810 74.3571
L199.8858 74.3095
" />
<path d="M199.8858 74.3095
L199.8382 74.2143
" />
<path d="M199.8382 74.2143
L199.8382 74.0714
" />
<path d="M199.8382 74.0714
L199.8858 73.9762
" />
<path d="M199.8858 73.9762
L199.9810 73.9286
" />
<path d="M199.9810 73.9286
L200.5048 73.9286
" />
<path d="M200.5048 73.4524
L199.8382 73.4524
" />
<path d="M199.9334 73.4524
L199.8858 73.4048
" />
<path d="M199.8858 73.4048
L199.8382 73.3095
" />
<path d="M199.8382 73.3095
L199.8382 73.1667
" />
<path d="M199.8382 73.1667
L199.8858 73.0714
" />
<path d="M199.8858 73.0714
L199.9810 73.0238
" />
<path d="M199.9810 73.0238
L200.5048 73.0238
" />
<path d="M199.9810 73.0238
L199.8858 72.9762
" />
<path d="M199.8858 72.9762
L199.8382 72.8810
" />
<path d="M199.8382 72.8810
L199.8382 72.7381
" />
<path d="M199.8382 72.7381
L199.8858 72.6429
" />
<path d="M199.8858 72.6429
L199.9810 72.5952
" />
<path d="M199.9810 72.5952
L200.5048 72.5952
" />
</g><path d="M187.5000 20.0000
L201.7864 20.0000
" />
<path d="M187.5000 131.0000
L201.7864 131.0000
" />
<path d="M201.2000 20.0000
L201.2000 131.0000
" />
<path d="M201.2000 20.0000
L201.2000 131.0000
" />
<path d="M201.2000 20.0000
L201.7864 21.1265
" />
<path d="M201.2000 20.0000
L200.6136 21.1265
" />
<path d="M201.2000 131.0000
L200.6136 129.8735
" />
<path d="M201.2000 131.0000
L201.7864 129.8735
" />
<text x="105.0000" y="144.4000"
textLength="6.5357" font-size="1.3333" lengthAdjust="spacingAndGlyphs"
text-anchor="middle" opacity="0">174 mm</text>
<g class="stroked-text"><desc>174 mm</desc>
<path d="M102.6190 144.3548
L102.0476 144.3548
" />
<path d="M102.3333 144.3548
L102.3333 143.3548
" />
<path d="M102.3333 143.3548
L102.2381 143.4977
" />
<path d="M102.2381 143.4977
L102.1429 143.5929
" />
<path d="M102.1429 143.5929
L102.0476 143.6405
" />
<path d="M102.9524 143.3548
L103.6190 143.3548
" />
<path d="M103.6190 143.3548
L103.1905 144.3548
" />
<path d="M104.4286 143.6882
L104.4286 144.3548
" />
<path d="M104.1905 143.3072
L103.9524 144.0215
" />
<path d="M103.9524 144.0215
L104.5714 144.0215
" />
<path d="M105.7143 144.3548
L105.7143 143.6882
" />
<path d="M105.7143 143.7834
L105.7619 143.7358
" />
<path d="M105.7619 143.7358
L105.8571 143.6882
" />
<path d="M105.8571 143.6882
L106.0000 143.6882
" />
<path d="M106.0000 143.6882
L106.0952 143.7358
" />
<path d="M106.0952 143.7358
L106.1429 143.8310
" />
<path d="M106.1429 143.8310
L106.1429 144.3548
" />
<path d="M106.1429 143.8310
L106.1905 143.7358
" />
<path d="M106.1905 143.7358
L106.2857 143.6882
" />
<path d="M106.2857 143.6882
L106.4286 143.6882
" />
<path d="M106.4286 143.6882
L106.5238 143.7358
" />
<path d="M106.5238 143.7358
L106.5714 143.8310
" />
<path d="M106.5714 143.8310
L106.5714 144.3548
" />
<path d="M107.0476 144.3548
L107.0476 143.6882
" />
<path d="M107.0476 143.7834
L107.0952 143.7358
" />
<path d="M107.0952 143.7358
L107.1905 143.6882
" />
<path d="M107.1905 143.6882
L107.3333 143.6882
" />
<path d="M107.3333 143.6882
L107.4286 143.7358
" />
<path d="M107.4286 143.7358
L107.4762 143.8310
" />
<path d="M107.4762 143.8310
L107.4762 144.3548
" />
<path d="M107.4762 143.8310
L107.5238 143.7358
" />
<path d="M107.5238 143.7358
L107.6190 143.6882
" />
<path d="M107.6190 143.6882
L107.7619 143.6882
" />
<path d="M107.7619 143.6882
L107.8571 143.7358
" />
<path d="M107.8571 143.7358
L107.9048 143.8310
" />
<path d="M107.9048 143.8310
L107.9048 144.3548
" />
</g><path d="M18.0000 125.5000
L18.0000 145.6364
" />
<path d="M192.0000 125.5000
L192.0000 145.6364
" />
<path d="M18.0000 145.0500
L192.0000 145.0500
" />
<path d="M18.0000 145.0500
L192.0000 145.0500
" />
<path d="M18.0000 145.0500
L19.1265 144.4636
" />
<path d="M18.0000 145.0500
L19.1265 145.6364
" />
<path d="M192.0000 145.0500
L190.8735 145.6364
" />
<path d="M192.0000 145.0500
L190.8735 144.4636
" />
<g transform="rotate(-359.954527 105.0077 13.4000)">
<text x="105.0077" y="13.9000"
textLength="6.5357" font-size="1.3333" lengthAdjust="spacingAndGlyphs"
text-anchor="middle" opacity="0">126 mm</text>
</g>
<g class="stroked-text"><desc>126 mm</desc>
<path d="M102.6263 13.8529
L102.0549 13.8525
" />
<path d="M102.3406 13.8527
L102.3414 12.8527
" />
<path d="M102.3414 12.8527
L102.2461 12.9955
" />
<path d="M102.2461 12.9955
L102.1508 13.0906
" />
<path d="M102.1508 13.0906
L102.0555 13.1382
" />
<path d="M103.0080 12.9485
L103.0557 12.9009
" />
<path d="M103.0557 12.9009
L103.1509 12.8533
" />
<path d="M103.1509 12.8533
L103.3890 12.8535
" />
<path d="M103.3890 12.8535
L103.4842 12.9012
" />
<path d="M103.4842 12.9012
L103.5318 12.9489
" />
<path d="M103.5318 12.9489
L103.5794 13.0442
" />
<path d="M103.5794 13.0442
L103.5793 13.1394
" />
<path d="M103.5793 13.1394
L103.5316 13.2822
" />
<path d="M103.5316 13.2822
L102.9597 13.8532
" />
<path d="M102.9597 13.8532
L103.5787 13.8537
" />
<path d="M104.4367 12.8544
L104.2462 12.8542
" />
<path d="M104.2462 12.8542
L104.1509 12.9018
" />
<path d="M104.1509 12.9018
L104.1033 12.9493
" />
<path d="M104.1033 12.9493
L104.0079 13.0921
" />
<path d="M104.0079 13.0921
L103.9601 13.2826
" />
<path d="M103.9601 13.2826
L103.9598 13.6635
" />
<path d="M103.9598 13.6635
L104.0074 13.7588
" />
<path d="M104.0074 13.7588
L104.0550 13.8064
" />
<path d="M104.0550 13.8064
L104.1502 13.8541
" />
<path d="M104.1502 13.8541
L104.3406 13.8543
" />
<path d="M104.3406 13.8543
L104.4359 13.8067
" />
<path d="M104.4359 13.8067
L104.4836 13.7592
" />
<path d="M104.4836 13.7592
L104.5313 13.6640
" />
<path d="M104.5313 13.6640
L104.5314 13.4259
" />
<path d="M104.5314 13.4259
L104.4839 13.3306
" />
<path d="M104.4839 13.3306
L104.4363 13.2829
" />
<path d="M104.4363 13.2829
L104.3411 13.2352
" />
<path d="M104.3411 13.2352
L104.1506 13.2351
" />
<path d="M104.1506 13.2351
L104.0554 13.2826
" />
<path d="M104.0554 13.2826
L104.0077 13.3302
" />
<path d="M104.0077 13.3302
L103.9600 13.4254
" />
<path d="M105.7216 13.8554
L105.7221 13.1887
" />
<path d="M105.7220 13.2840
L105.7697 13.2364
" />
<path d="M105.7697 13.2364
L105.8650 13.1888
" />
<path d="M105.8650 13.1888
L106.0078 13.1889
" />
<path d="M106.0078 13.1889
L106.1030 13.2366
" />
<path d="M106.1030 13.2366
L106.1506 13.3319
" />
<path d="M106.1506 13.3319
L106.1502 13.8557
" />
<path d="M106.1506 13.3319
L106.1983 13.2367
" />
<path d="M106.1983 13.2367
L106.2935 13.1892
" />
<path d="M106.2935 13.1892
L106.4364 13.1893
" />
<path d="M106.4364 13.1893
L106.5316 13.2370
" />
<path d="M106.5316 13.2370
L106.5791 13.3323
" />
<path d="M106.5791 13.3323
L106.5787 13.8561
" />
<path d="M107.0549 13.8564
L107.0554 13.1898
" />
<path d="M107.0554 13.2850
L107.1030 13.2374
" />
<path d="M107.1030 13.2374
L107.1983 13.1899
" />
<path d="M107.1983 13.1899
L107.3412 13.1900
" />
<path d="M107.3412 13.1900
L107.4364 13.2377
" />
<path d="M107.4364 13.2377
L107.4839 13.3330
" />
<path d="M107.4839 13.3330
L107.4835 13.8568
" />
<path d="M107.4839 13.3330
L107.5316 13.2378
" />
<path d="M107.5316 13.2378
L107.6269 13.1902
" />
<path d="M107.6269 13.1902
L107.7697 13.1903
" />
<path d="M107.7697 13.1903
L107.8649 13.2380
" />
<path d="M107.8649 13.2380
L107.9125 13.3333
" />
<path d="M107.9125 13.3333
L107.9121 13.8571
" />
</g><path d="M42.0004 22.5000
L42.0072 13.9136
" />
<path d="M168.0004 22.6000
L168.0072 14.0136
" />
<path d="M42.0067 14.5000
L168.0067 14.6000
" />
<path d="M42.0067 14.5000
L168.0067 14.6000
" />
<path d="M42.0067 14.5000
L43.1337 13.9145
" />
<path d="M42.0067 14.5000
L43.1328 15.0873
" />
<path d="M168.0067 14.6000
L166.8798 15.1855
" />
<path d="M168.0067 14.6000
L166.8807 14.0127
" />
<g transform="rotate(-90.000000 197.8500 41.0000)">
<text x="197.8500" y="41.5000"
textLength="5.5833" font-size="1.3333" lengthAdjust="spacingAndGlyphs"
text-anchor="middle" opacity="0">14 mm</text>
</g>
<g class="stroked-text"><desc>14 mm</desc>
<path d="M198.3048 42.9048
L198.3048 43.4762
" />
<path d="M198.3048 43.1905
L197.3048 43.1905
" />
<path d="M197.3048 43.1905
L197.4477 43.2857
" />
<path d="M197.4477 43.2857
L197.5429 43.3810
" />
<path d="M197.5429 43.3810
L197.5905 43.4762
" />
<path d="M197.6382 42.0476
L198.3048 42.0476
" />
<path d="M197.2572 42.2857
L197.9715 42.5238
" />
<path d="M197.9715 42.5238
L197.9715 41.9048
" />
<path d="M198.3048 40.7619
L197.6382 40.7619
" />
<path d="M197.7334 40.7619
L197.6858 40.7143
" />
<path d="M197.6858 40.7143
L197.6382 40.6190
" />
<path d="M197.6382 40.6190
L197.6382 40.4762
" />
<path d="M197.6382 40.4762
L197.6858 40.3810
" />
<path d="M197.6858 40.3810
L197.7810 40.3333
" />
<path d="M197.7810 40.3333
L198.3048 40.3333
" />
<path d="M197.7810 40.3333
L197.6858 40.2857
" />
<path d="M197.6858 40.2857
L197.6382 40.1905
" />
<path d="M197.6382 40.1905
L197.6382 40.0476
" />
<path d="M197.6382 40.0476
L197.6858 39.9524
" />
<path d="M197.6858 39.9524
L197.7810 39.9048
" />
<path d="M197.7810 39.9048
L198.3048 39.9048
" />
<path d="M198.3048 39.4286
L197.6382 39.4286
" />
<path d="M197.7334 39.4286
L197.6858 39.3810
" />
<path d="M197.6858 39.3810
L197.6382 39.2857
" />
<path d="M197.6382 39.2857
L197.6382 39.1429
" />
<path d="M197.6382 39.1429
L197.6858 39.0476
" />
<path d="M197.6858 39.0476
L197.7810 39.0000
" />
<path d="M197.7810 39.0000
L198.3048 39.0000
" />
<path d="M197.7810 39.0000
L197.6858 38.9524
" />
<path d="M197.6858 38.9524
L197.6382 38.8571
" />
<path d="M197.6382 38.8571
L197.6382 38.7143
" />
<path d="M197.6382 38.7143
L197.6858 38.6190
" />
<path d="M197.6858 38.6190
L197.7810 38.5714
" />
<path d="M197.7810 38.5714
L198.3048 38.5714
" />
</g><path d="M143.0000 48.0000
L199.5864 48.0000
" />
<path d="M143.0000 34.0000
L199.5864 34.0000
" />
<path d="M199.0000 48.0000
L199.0000 34.0000
" />
<path d="M199.0000 48.0000
L199.0000 34.0000
" />
<path d="M199.0000 48.0000
L198.4136 46.8735
" />
<path d="M199.0000 48.0000
L199.5864 46.8735
" />
<path d="M199.0000 34.0000
L199.5864 35.1265
" />
<path d="M199.0000 34.0000
L198.4136 35.1265
" />
<g transform="rotate(-180.000000 120.0000 20.8500)">
<text x="120.0000" y="21.3500"
textLength="7.5357" font-size="1.3333" lengthAdjust="spacingAndGlyphs"
text-anchor="middle" opacity="0">PCB edge</text>
</g>
<g class="stroked-text"><desc>PCB edge</desc>
<path d="M123.4048 20.3952
L123.4048 21.3952
" />
<path d="M123.4048 21.3952
L123.0238 21.3952
" />
<path d="M123.0238 21.3952
L122.9286 21.3476
" />
<path d="M122.9286 21.3476
L122.8810 21.2999
" />
<path d="M122.8810 21.2999
L122.8333 21.2047
" />
<path d="M122.8333 21.2047
L122.8333 21.0618
" />
<path d="M122.8333 21.0618
L122.8810 20.9666
" />
<path d="M122.8810 20.9666
L122.9286 20.9190
" />
<path d="M122.9286 20.9190
L123.0238 20.8714
" />
<path d="M123.0238 20.8714
L123.4048 20.8714
" />
<path d="M121.8333 20.4904
L121.8810 20.4428
" />
<path d="M121.8810 20.4428
L122.0238 20.3952
" />
<path d="M122.0238 20.3952
L122.1190 20.3952
" />
<path d="M122.1190 20.3952
L122.2619 20.4428
" />
<path d="M122.2619 20.4428
L122.3571 20.5380
" />
<path d="M122.3571 20.5380
L122.4048 20.6333
" />
<path d="M122.4048 20.6333
L122.4524 20.8238
" />
<path d="M122.4524 20.8238
L122.4524 20.9666
" />
<path d="M122.4524 20.9666
L122.4048 21.1571
" />
<path d="M122.4048 21.1571
L122.3571 21.2523
" />
<path d="M122.3571 21.2523
L122.2619 21.3476
" />
<path d="M122.2619 21.3476
L122.1190 21.3952
" />
<path d="M122.1190 21.3952
L122.0238 21.3952
" />
<path d="M122.0238 21.3952
L121.8810 21.3476
" />
<path d="M121.8810 21.3476
L121.8333 21.2999
" />
<path d="M121.0714 20.9190
L120.9286 20.8714
" />
<path d="M120.9286 20.8714
L120.8810 20.8238
" />
<path d="M120.8810 20.8238
L120.8333 20.7285
" />
<path d="M120.8333 20.7285
L120.8333 20.5857
" />
<path d="M120.8333 20.5857
L120.8810 20.4904
" />
<path d="M120.8810 20.4904
L120.9286 20.4428
" />
<path d="M120.9286 20.4428
L121.0238 20.3952
" />
<path d="M121.0238 20.3952
L121.4048 20.3952
" />
<path d="M121.4048 20.3952
L121.4048 21.3952
" />
<path d="M121.4048 21.3952
L121.0714 21.3952
" />
<path d="M121.0714 21.3952
L120.9762 21.3476
" />
<path d="M120.9762 21.3476
L120.9286 21.2999
" />
<path d="M120.9286 21.2999
L120.8810 21.2047
" />
<path d="M120.8810 21.2047
L120.8810 21.1095
" />
<path d="M120.8810 21.1095
L120.9286 21.0142
" />
<path d="M120.9286 21.0142
L120.9762 20.9666
" />
<path d="M120.9762 20.9666
L121.0714 20.9190
" />
<path d="M121.0714 20.9190
L121.4048 20.9190
" />
<path d="M119.2619 20.4428
L119.3571 20.3952
" />
<path d="M119.3571 20.3952
L119.5476 20.3952
" />
<path d="M119.5476 20.3952
L119.6429 20.4428
" />
<path d="M119.6429 20.4428
L119.6905 20.5380
" />
<path d="M119.6905 20.5380
L119.6905 20.9190
" />
<path d="M119.6905 20.9190
L119.6429 21.0142
" />
<path d="M119.6429 21.0142
L119.5476 21.0618
" />
<path d="M119.5476 21.0618
L119.3571 21.0618
" />
<path d="M119.3571 21.0618
L119.2619 21.0142
" />
<path d="M119.2619 21.0142
L119.2143 20.9190
" />
<path d="M119.2143 20.9190
L119.2143 20.8238
" />
<path d="M119.2143 20.8238
L119.6905 20.7285
" />
<path d="M118.3571 20.3952
L118.3571 21.3952
" />
<path d="M118.3571 20.4428
L118.4524 20.3952
" />
<path d="M118.4524 20.3952
L118.6429 20.3952
" />
<path d="M118.6429 20.3952
L118.7381 20.4428
" />
<path d="M118.7381 20.4428
L118.7857 20.4904
" />
<path d="M118.7857 20.4904
L118.8333 20.5857
" />
<path d="M118.8333 20.5857
L118.8333 20.8714
" />
<path d="M118.8333 20.8714
L118.7857 20.9666
" />
<path d="M118.7857 20.9666
L118.7381 21.0142
" />
<path d="M118.7381 21.0142
L118.6429 21.0618
" />
<path d="M118.6429 21.0618
L118.4524 21.0618
" />
<path d="M118.4524 21.0618
L118.3571 21.0142
" />
<path d="M117.4524 21.0618
L117.4524 20.2523
" />
<path d="M117.4524 20.2523
L117.5000 20.1571
" />
<path d="M117.5000 20.1571
L117.5476 20.1095
" />
<path d="M117.5476 20.1095
L117.6429 20.0618
" />
<path d="M117.6429 20.0618
L117.7857 20.0618
" />
<path d="M117.7857 20.0618
L117.8810 20.1095
" />
<path d="M117.4524 20.4428
L117.5476 20.3952
" />
<path d="M117.5476 20.3952
L117.7381 20.3952
" />
<path d="M117.7381 20.3952
L117.8333 20.4428
" />
<path d="M117.8333 20.4428
L117.8810 20.4904
" />
<path d="M117.8810 20.4904
L117.9286 20.5857
" />
<path d="M117.9286 20.5857
L117.9286 20.8714
" />
<path d="M117.9286 20.8714
L117.8810 20.9666
" />
<path d="M117.8810 20.9666
L117.8333 21.0142
" />
<path d="M117.8333 21.0142
L117.7381 21.0618
" />
<path d="M117.7381 21.0618
L117.5476 21.0618
" />
<path d="M117.5476 21.0618
L117.4524 21.0142
" />
<path d="M116.5952 20.4428
L116.6905 20.3952
" />
<path d="M116.6905 20.3952
L116.8810 20.3952
" />
<path d="M116.8810 20.3952
L116.9762 20.4428
" />
<path d="M116.9762 20.4428
L117.0238 20.5380
" />
<path d="M117.0238 20.5380
L117.0238 20.9190
" />
<path d="M117.0238 20.9190
L116.9762 21.0142
" />
<path d="M116.9762 21.0142
L116.8810 21.0618
" />
<path d="M116.8810 21.0618
L116.6905 21.0618
" />
<path d="M116.6905 21.0618
L116.5952 21.0142
" />
<path d="M116.5952 21.0142
L116.5476 20.9190
" />
<path d="M116.5476 20.9190
L116.5476 20.8238
" />
<path d="M116.5476 20.8238
L117.0238 20.7285
" />
</g><g transform="rotate(-180.000000 89.9945 20.8500)">
<text x="89.9945" y="21.3500"
textLength="7.5357" font-size="1.3333" lengthAdjust="spacingAndGlyphs"
text-anchor="middle" opacity="0">PCB edge</text>
</g>
<g class="stroked-text"><desc>PCB edge</desc>
<path d="M93.3993 20.3952
L93.3993 21.3952
" />
<path d="M93.3993 21.3952
L93.0183 21.3952
" />
<path d="M93.0183 21.3952
L92.9231 21.3476
" />
<path d="M92.9231 21.3476
L92.8755 21.2999
" />
<path d="M92.8755 21.2999
L92.8278 21.2047
" />
<path d="M92.8278 21.2047
L92.8278 21.0618
" />
<path d="M92.8278 21.0618
L92.8755 20.9666
" />
<path d="M92.8755 20.9666
L92.9231 20.9190
" />
<path d="M92.9231 20.9190
L93.0183 20.8714
" />
<path d="M93.0183 20.8714
L93.3993 20.8714
" />
<path d="M91.8278 20.4904
L91.8755 20.4428
" />
<path d="M91.8755 20.4428
L92.0183 20.3952
" />
<path d="M92.0183 20.3952
L92.1135 20.3952
" />
<path d="M92.1135 20.3952
L92.2564 20.4428
" />
<path d="M92.2564 20.4428
L92.3516 20.5380
" />
<path d="M92.3516 20.5380
L92.3993 20.6333
" />
<path d="M92.3993 20.6333
L92.4469 20.8238
" />
<path d="M92.4469 20.8238
L92.4469 20.9666
" />
<path d="M92.4469 20.9666
L92.3993 21.1571
" />
<path d="M92.3993 21.1571
L92.3516 21.2523
" />
<path d="M92.3516 21.2523
L92.2564 21.3476
" />
<path d="M92.2564 21.3476
L92.1135 21.3952
" />
<path d="M92.1135 21.3952
L92.0183 21.3952
" />
<path d="M92.0183 21.3952
L91.8755 21.3476
" />
<path d="M91.8755 21.3476
L91.8278 21.2999
" />
<path d="M91.0659 20.9190
L90.9231 20.8714
" />
<path d="M90.9231 20.8714
L90.8755 20.8238
" />
<path d="M90.8755 20.8238
L90.8278 20.7285
" />
<path d="M90.8278 20.7285
L90.8278 20.5857
" />
<path d="M90.8278 20.5857
L90.8755 20.4904
" />
<path d="M90.8755 20.4904
L90.9231 20.4428
" />
<path d="M90.9231 20.4428
L91.0183 20.3952
" />
<path d="M91.0183 20.3952
L91.3993 20.3952
" />
<path d="M91.3993 20.3952
L91.3993 21.3952
" />
<path d="M91.3993 21.3952
L91.0659 21.3952
" />
<path d="M91.0659 21.3952
L90.9707 21.3476
" />
<path d="M90.9707 21.3476
L90.9231 21.2999
" />
<path d="M90.9231 21.2999
L90.8755 21.2047
" />
<path d="M90.8755 21.2047
L90.8755 21.1095
" />
<path d="M90.8755 21.1095
L90.9231 21.0142
" />
<path d="M90.9231 21.0142
L90.9707 20.9666
" />
<path d="M90.9707 20.9666
L91.0659 20.9190
" />
<path d="M91.0659 20.9190
L91.3993 20.9190
" />
<path d="M89.2564 20.4428
L89.3516 20.3952
" />
<path d="M89.3516 20.3952
L89.5421 20.3952
" />
<path d="M89.5421 20.3952
L89.6374 20.4428
" />
<path d="M89.6374 20.4428
L89.6850 20.5380
" />
<path d="M89.6850 20.5380
L89.6850 20.9190
" />
<path d="M89.6850 20.9190
L89.6374 21.0142
" />
<path d="M89.6374 21.0142
L89.5421 21.0618
" />
<path d="M89.5421 21.0618
L89.3516 21.0618
" />
<path d="M89.3516 21.0618
L89.2564 21.0142
" />
<path d="M89.2564 21.0142
L89.2088 20.9190
" />
<path d="M89.2088 20.9190
L89.2088 20.8238
" />
<path d="M89.2088 20.8238
L89.6850 20.7285
" />
<path d="M88.3516 20.3952
L88.3516 21.3952
" />
<path d="M88.3516 20.4428
L88.4469 20.3952
" />
<path d="M88.4469 20.3952
L88.6374 20.3952
" />
<path d="M88.6374 20.3952
L88.7326 20.4428
" />
<path d="M88.7326 20.4428
L88.7802 20.4904
" />
<path d="M88.7802 20.4904
L88.8278 20.5857
" />
<path d="M88.8278 20.5857
L88.8278 20.8714
" />
<path d="M88.8278 20.8714
L88.7802 20.9666
" />
<path d="M88.7802 20.9666
L88.7326 21.0142
" />
<path d="M88.7326 21.0142
L88.6374 21.0618
" />
<path d="M88.6374 21.0618
L88.4469 21.0618
" />
<path d="M88.4469 21.0618
L88.3516 21.0142
" />
<path d="M87.4469 21.0618
L87.4469 20.2523
" />
<path d="M87.4469 20.2523
L87.4945 20.1571
" />
<path d="M87.4945 20.1571
L87.5421 20.1095
" />
<path d="M87.5421 20.1095
L87.6374 20.0618
" />
<path d="M87.6374 20.0618
L87.7802 20.0618
" />
<path d="M87.7802 20.0618
L87.8755 20.1095
" />
<path d="M87.4469 20.4428
L87.5421 20.3952
" />
<path d="M87.5421 20.3952
L87.7326 20.3952
" />
<path d="M87.7326 20.3952
L87.8278 20.4428
" />
<path d="M87.8278 20.4428
L87.8755 20.4904
" />
<path d="M87.8755 20.4904
L87.9231 20.5857
" />
<path d="M87.9231 20.5857
L87.9231 20.8714
" />
<path d="M87.9231 20.8714
L87.8755 20.9666
" />
<path d="M87.8755 20.9666
L87.8278 21.0142
" />
<path d="M87.8278 21.0142
L87.7326 21.0618
" />
<path d="M87.7326 21.0618
L87.5421 21.0618
" />
<path d="M87.5421 21.0618
L87.4469 21.0142
" />
<path d="M86.5897 20.4428
L86.6850 20.3952
" />
<path d="M86.6850 20.3952
L86.8755 20.3952
" />
<path d="M86.8755 20.3952
L86.9707 20.4428
" />
<path d="M86.9707 20.4428
L87.0183 20.5380
" />
<path d="M87.0183 20.5380
L87.0183 20.9190
" />
<path d="M87.0183 20.9190
L86.9707 21.0142
" />
<path d="M86.9707 21.0142
L86.8755 21.0618
" />
<path d="M86.8755 21.0618
L86.6850 21.0618
" />
<path d="M86.6850 21.0618
L86.5897 21.0142
" />
<path d="M86.5897 21.0142
L86.5421 20.9190
" />
<path d="M86.5421 20.9190
L86.5421 20.8238
" />
<path d="M86.5421 20.8238
L87.0183 20.7285
" />
</g></g>
<g style="fill:#000000; fill-opacity:0.0; 
stroke:#000000; stroke-width:0.1000; stroke-opacity:1; 
stroke-linecap:round; stroke-linejoin:round;">
<circle cx="118.9800" cy="92.5056" r="0.2540" /> 
</g>
<g style="fill:#000000; fill-opacity:0.0; 
stroke:#000000; stroke-width:0.1500; stroke-opacity:1; 
stroke-linecap:round; stroke-linejoin:round;">
<text x="170.9800" y="55.0056"
textLength="6.0595" font-size="1.3333" lengthAdjust="spacingAndGlyphs"
text-anchor="middle" opacity="0">3.5 mm</text>
<g class="stroked-text"><desc>3.5 mm</desc>
<path d="M168.2181 53.9604
L168.8371 53.9604
" />
<path d="M168.8371 53.9604
L168.5038 54.3414
" />
<path d="M168.5038 54.3414
L168.6467 54.3414
" />
<path d="M168.6467 54.3414
L168.7419 54.3890
" />
<path d="M168.7419 54.3890
L168.7895 54.4366
" />
<path d="M168.7895 54.4366
L168.8371 54.5318
" />
<path d="M168.8371 54.5318
L168.8371 54.7699
" />
<path d="M168.8371 54.7699
L168.7895 54.8652
" />
<path d="M168.7895 54.8652
L168.7419 54.9128
" />
<path d="M168.7419 54.9128
L168.6467 54.9604
" />
<path d="M168.6467 54.9604
L168.3610 54.9604
" />
<path d="M168.3610 54.9604
L168.2657 54.9128
" />
<path d="M168.2657 54.9128
L168.2181 54.8652
" />
<path d="M169.2657 54.8652
L169.3133 54.9128
" />
<path d="M169.3133 54.9128
L169.2657 54.9604
" />
<path d="M169.2657 54.9604
L169.2181 54.9128
" />
<path d="M169.2181 54.9128
L169.2657 54.8652
" />
<path d="M169.2657 54.8652
L169.2657 54.9604
" />
<path d="M170.2181 53.9604
L169.7419 53.9604
" />
<path d="M169.7419 53.9604
L169.6943 54.4366
" />
<path d="M169.6943 54.4366
L169.7419 54.3890
" />
<path d="M169.7419 54.3890
L169.8371 54.3414
" />
<path d="M169.8371 54.3414
L170.0752 54.3414
" />
<path d="M170.0752 54.3414
L170.1705 54.3890
" />
<path d="M170.1705 54.3890
L170.2181 54.4366
" />
<path d="M170.2181 54.4366
L170.2657 54.5318
" />
<path d="M170.2657 54.5318
L170.2657 54.7699
" />
<path d="M170.2657 54.7699
L170.2181 54.8652
" />
<path d="M170.2181 54.8652
L170.1705 54.9128
" />
<path d="M170.1705 54.9128
L170.0752 54.9604
" />
<path d="M170.0752 54.9604
L169.8371 54.9604
" />
<path d="M169.8371 54.9604
L169.7419 54.9128
" />
<path d="M169.7419 54.9128
L169.6943 54.8652
" />
<path d="M171.4562 54.9604
L171.4562 54.2938
" />
<path d="M171.4562 54.3890
L171.5038 54.3414
" />
<path d="M171.5038 54.3414
L171.5990 54.2938
" />
<path d="M171.5990 54.2938
L171.7419 54.2938
" />
<path d="M171.7419 54.2938
L171.8371 54.3414
" />
<path d="M171.8371 54.3414
L171.8848 54.4366
" />
<path d="M171.8848 54.4366
L171.8848 54.9604
" />
<path d="M171.8848 54.4366
L171.9324 54.3414
" />
<path d="M171.9324 54.3414
L172.0276 54.2938
" />
<path d="M172.0276 54.2938
L172.1705 54.2938
" />
<path d="M172.1705 54.2938
L172.2657 54.3414
" />
<path d="M172.2657 54.3414
L172.3133 54.4366
" />
<path d="M172.3133 54.4366
L172.3133 54.9604
" />
<path d="M172.7895 54.9604
L172.7895 54.2938
" />
<path d="M172.7895 54.3890
L172.8371 54.3414
" />
<path d="M172.8371 54.3414
L172.9324 54.2938
" />
<path d="M172.9324 54.2938
L173.0752 54.2938
" />
<path d="M173.0752 54.2938
L173.1705 54.3414
" />
<path d="M173.1705 54.3414
L173.2181 54.4366
" />
<path d="M173.2181 54.4366
L173.2181 54.9604
" />
<path d="M173.2181 54.4366
L173.2657 54.3414
" />
<path d="M173.2657 54.3414
L173.3610 54.2938
" />
<path d="M173.3610 54.2938
L173.5038 54.2938
" />
<path d="M173.5038 54.2938
L173.5990 54.3414
" />
<path d="M173.5990 54.3414
L173.6467 54.4366
" />
<path d="M173.6467 54.4366
L173.6467 54.9604
" />
</g></g>
<g style="fill:#000000; fill-opacity:0.0; 
stroke:#000000; stroke-width:0.1000; stroke-opacity:1; 
stroke-linecap:round; stroke-linejoin:round;">
<path d="M167.9800 63.0056
L167.9800 55.9192
" />
<path d="M171.4800 63.0056
L171.4800 55.9192
" />
<path d="M167.9800 56.5056
L171.4800 56.5056
" />
<path d="M167.9800 56.5056
L171.4800 56.5056
" />
<path d="M167.9800 56.5056
L169.1065 55.9192
" />
<path d="M167.9800 56.5056
L169.1065 57.0920
" />
<path d="M171.4800 56.5056
L170.3535 57.0920
" />
<path d="M171.4800 56.5056
L170.3535 55.9192
" />
</g>
<g style="fill:#000000; fill-opacity:0.0; 
stroke:#000000; stroke-width:0.1500; stroke-opacity:1; 
stroke-linecap:round; stroke-linejoin:round;">
<text x="143.4800" y="55.8556"
textLength="5.5833" font-size="1.3333" lengthAdjust="spacingAndGlyphs"
text-anchor="middle" opacity="0">49 mm</text>
<g class="stroked-text"><desc>49 mm</desc>
<path d="M141.4800 55.1438
L141.4800 55.8104
" />
<path d="M141.2419 54.7628
L141.0038 55.4771
" />
<path d="M141.0038 55.4771
L141.6229 55.4771
" />
<path d="M142.0514 55.8104
L142.2419 55.8104
" />
<path d="M142.2419 55.8104
L142.3371 55.7628
" />
<path d="M142.3371 55.7628
L142.3848 55.7152
" />
<path d="M142.3848 55.7152
L142.4800 55.5723
" />
<path d="M142.4800 55.5723
L142.5276 55.3818
" />
<path d="M142.5276 55.3818
L142.5276 55.0009
" />
<path d="M142.5276 55.0009
L142.4800 54.9057
" />
<path d="M142.4800 54.9057
L142.4324 54.8580
" />
<path d="M142.4324 54.8580
L142.3371 54.8104
" />
<path d="M142.3371 54.8104
L142.1467 54.8104
" />
<path d="M142.1467 54.8104
L142.0514 54.8580
" />
<path d="M142.0514 54.8580
L142.0038 54.9057
" />
<path d="M142.0038 54.9057
L141.9562 55.0009
" />
<path d="M141.9562 55.0009
L141.9562 55.2390
" />
<path d="M141.9562 55.2390
L142.0038 55.3342
" />
<path d="M142.0038 55.3342
L142.0514 55.3818
" />
<path d="M142.0514 55.3818
L142.1467 55.4295
" />
<path d="M142.1467 55.4295
L142.3371 55.4295
" />
<path d="M142.3371 55.4295
L142.4324 55.3818
" />
<path d="M142.4324 55.3818
L142.4800 55.3342
" />
<path d="M142.4800 55.3342
L142.5276 55.2390
" />
<path d="M143.7181 55.8104
L143.7181 55.1438
" />
<path d="M143.7181 55.2390
L143.7657 55.1914
" />
<path d="M143.7657 55.1914
L143.8610 55.1438
" />
<path d="M143.8610 55.1438
L144.0038 55.1438
" />
<path d="M144.0038 55.1438
L144.0990 55.1914
" />
<path d="M144.0990 55.1914
L144.1467 55.2866
" />
<path d="M144.1467 55.2866
L144.1467 55.8104
" />
<path d="M144.1467 55.2866
L144.1943 55.1914
" />
<path d="M144.1943 55.1914
L144.2895 55.1438
" />
<path d="M144.2895 55.1438
L144.4324 55.1438
" />
<path d="M144.4324 55.1438
L144.5276 55.1914
" />
<path d="M144.5276 55.1914
L144.5752 55.2866
" />
<path d="M144.5752 55.2866
L144.5752 55.8104
" />
<path d="M145.0514 55.8104
L145.0514 55.1438
" />
<path d="M145.0514 55.2390
L145.0990 55.1914
" />
<path d="M145.0990 55.1914
L145.1943 55.1438
" />
<path d="M145.1943 55.1438
L145.3371 55.1438
" />
<path d="M145.3371 55.1438
L145.4324 55.1914
" />
<path d="M145.4324 55.1914
L145.4800 55.2866
" />
<path d="M145.4800 55.2866
L145.4800 55.8104
" />
<path d="M145.4800 55.2866
L145.5276 55.1914
" />
<path d="M145.5276 55.1914
L145.6229 55.1438
" />
<path d="M145.6229 55.1438
L145.7657 55.1438
" />
<path d="M145.7657 55.1438
L145.8610 55.1914
" />
<path d="M145.8610 55.1914
L145.9086 55.2866
" />
<path d="M145.9086 55.2866
L145.9086 55.8104
" />
</g></g>
<g style="fill:#000000; fill-opacity:0.0; 
stroke:#000000; stroke-width:0.1000; stroke-opacity:1; 
stroke-linecap:round; stroke-linejoin:round;">
<path d="M118.9800 63.0056
L118.9800 55.9192
" />
<path d="M167.9800 63.0056
L167.9800 55.9192
" />
<path d="M118.9800 56.5056
L167.9800 56.5056
" />
<path d="M118.9800 56.5056
L167.9800 56.5056
" />
<path d="M118.9800 56.5056
L120.1065 55.9192
" />
<path d="M118.9800 56.5056
L120.1065 57.0920
" />
<path d="M167.9800 56.5056
L166.8535 57.0920
" />
<path d="M167.9800 56.5056
L166.8535 55.9192
" />
</g>
<g style="fill:#000000; fill-opacity:0.0; 
stroke:#000000; stroke-width:0.1500; stroke-opacity:1; 
stroke-linecap:round; stroke-linejoin:round;">
<g transform="rotate(-90.000000 106.3300 92.5056)">
<text x="106.3300" y="93.0056"
textLength="5.5833" font-size="1.3333" lengthAdjust="spacingAndGlyphs"
text-anchor="middle" opacity="0">58 mm</text>
</g>
<g class="stroked-text"><desc>58 mm</desc>
<path d="M105.7848 94.4580
L105.7848 94.9342
" />
<path d="M105.7848 94.9342
L106.2610 94.9818
" />
<path d="M106.2610 94.9818
L106.2134 94.9342
" />
<path d="M106.2134 94.9342
L106.1658 94.8389
" />
<path d="M106.1658 94.8389
L106.1658 94.6008
" />
<path d="M106.1658 94.6008
L106.2134 94.5056
" />
<path d="M106.2134 94.5056
L106.2610 94.4580
" />
<path d="M106.2610 94.4580
L106.3562 94.4104
" />
<path d="M106.3562 94.4104
L106.5943 94.4104
" />
<path d="M106.5943 94.4104
L106.6896 94.4580
" />
<path d="M106.6896 94.4580
L106.7372 94.5056
" />
<path d="M106.7372 94.5056
L106.7848 94.6008
" />
<path d="M106.7848 94.6008
L106.7848 94.8389
" />
<path d="M106.7848 94.8389
L106.7372 94.9342
" />
<path d="M106.7372 94.9342
L106.6896 94.9818
" />
<path d="M106.2134 93.8389
L106.1658 93.9342
" />
<path d="M106.1658 93.9342
L106.1182 93.9818
" />
<path d="M106.1182 93.9818
L106.0229 94.0294
" />
<path d="M106.0229 94.0294
L105.9753 94.0294
" />
<path d="M105.9753 94.0294
L105.8801 93.9818
" />
<path d="M105.8801 93.9818
L105.8324 93.9342
" />
<path d="M105.8324 93.9342
L105.7848 93.8389
" />
<path d="M105.7848 93.8389
L105.7848 93.6485
" />
<path d="M105.7848 93.6485
L105.8324 93.5532
" />
<path d="M105.8324 93.5532
L105.8801 93.5056
" />
<path d="M105.8801 93.5056
L105.9753 93.4580
" />
<path d="M105.9753 93.4580
L106.0229 93.4580
" />
<path d="M106.0229 93.4580
L106.1182 93.5056
" />
<path d="M106.1182 93.5056
L106.1658 93.5532
" />
<path d="M106.1658 93.5532
L106.2134 93.6485
" />
<path d="M106.2134 93.6485
L106.2134 93.8389
" />
<path d="M106.2134 93.8389
L106.2610 93.9342
" />
<path d="M106.2610 93.9342
L106.3086 93.9818
" />
<path d="M106.3086 93.9818
L106.4039 94.0294
" />
<path d="M106.4039 94.0294
L106.5943 94.0294
" />
<path d="M106.5943 94.0294
L106.6896 93.9818
" />
<path d="M106.6896 93.9818
L106.7372 93.9342
" />
<path d="M106.7372 93.9342
L106.7848 93.8389
" />
<path d="M106.7848 93.8389
L106.7848 93.6485
" />
<path d="M106.7848 93.6485
L106.7372 93.5532
" />
<path d="M106.7372 93.5532
L106.6896 93.5056
" />
<path d="M106.6896 93.5056
L106.5943 93.4580
" />
<path d="M106.5943 93.4580
L106.4039 93.4580
" />
<path d="M106.4039 93.4580
L106.3086 93.5056
" />
<path d="M106.3086 93.5056
L106.2610 93.5532
" />
<path d="M106.2610 93.5532
L106.2134 93.6485
" />
<path d="M106.7848 92.2675
L106.1182 92.2675
" />
<path d="M106.2134 92.2675
L106.1658 92.2199
" />
<path d="M106.1658 92.2199
L106.1182 92.1246
" />
<path d="M106.1182 92.1246
L106.1182 91.9818
" />
<path d="M106.1182 91.9818
L106.1658 91.8866
" />
<path d="M106.1658 91.8866
L106.2610 91.8389
" />
<path d="M106.2610 91.8389
L106.7848 91.8389
" />
<path d="M106.2610 91.8389
L106.1658 91.7913
" />
<path d="M106.1658 91.7913
L106.1182 91.6961
" />
<path d="M106.1182 91.6961
L106.1182 91.5532
" />
<path d="M106.1182 91.5532
L106.1658 91.4580
" />
<path d="M106.1658 91.4580
L106.2610 91.4104
" />
<path d="M106.2610 91.4104
L106.7848 91.4104
" />
<path d="M106.7848 90.9342
L106.1182 90.9342
" />
<path d="M106.2134 90.9342
L106.1658 90.8866
" />
<path d="M106.1658 90.8866
L106.1182 90.7913
" />
<path d="M106.1182 90.7913
L106.1182 90.6485
" />
<path d="M106.1182 90.6485
L106.1658 90.5532
" />
<path d="M106.1658 90.5532
L106.2610 90.5056
" />
<path d="M106.2610 90.5056
L106.7848 90.5056
" />
<path d="M106.2610 90.5056
L106.1658 90.4580
" />
<path d="M106.1658 90.4580
L106.1182 90.3627
" />
<path d="M106.1182 90.3627
L106.1182 90.2199
" />
<path d="M106.1182 90.2199
L106.1658 90.1246
" />
<path d="M106.1658 90.1246
L106.2610 90.0770
" />
<path d="M106.2610 90.0770
L106.7848 90.0770
" />
</g></g>
<g style="fill:#000000; fill-opacity:0.0; 
stroke:#000000; stroke-width:0.1000; stroke-opacity:1; 
stroke-linecap:round; stroke-linejoin:round;">
<path d="M118.4800 63.5056
L106.8936 63.5056
" />
<path d="M118.4800 121.5056
L106.8936 121.5056
" />
<path d="M107.4800 63.5056
L107.4800 121.5056
" />
<path d="M107.4800 63.5056
L107.4800 121.5056
" />
<path d="M107.4800 63.5056
L108.0664 64.6321
" />
<path d="M107.4800 63.5056
L106.8936 64.6321
" />
<path d="M107.4800 121.5056
L106.8936 120.3791
" />
<path d="M107.4800 121.5056
L108.0664 120.3791
" />
</g>
<g style="fill:#000000; fill-opacity:0.0; 
stroke:#000000; stroke-width:0.1500; stroke-opacity:1; 
stroke-linecap:round; stroke-linejoin:round;">
<g transform="rotate(-90.000000 110.3300 78.0056)">
<text x="110.3300" y="78.5056"
textLength="5.5833" font-size="1.3333" lengthAdjust="spacingAndGlyphs"
text-anchor="middle" opacity="0">29 mm</text>
</g>
<g class="stroked-text"><desc>29 mm</desc>
<path d="M109.8801 80.4818
L109.8324 80.4342
" />
<path d="M109.8324 80.4342
L109.7848 80.3389
" />
<path d="M109.7848 80.3389
L109.7848 80.1008
" />
<path d="M109.7848 80.1008
L109.8324 80.0056
" />
<path d="M109.8324 80.0056
L109.8801 79.9580
" />
<path d="M109.8801 79.9580
L109.9753 79.9104
" />
<path d="M109.9753 79.9104
L110.0705 79.9104
" />
<path d="M110.0705 79.9104
L110.2134 79.9580
" />
<path d="M110.2134 79.9580
L110.7848 80.5294
" />
<path d="M110.7848 80.5294
L110.7848 79.9104
" />
<path d="M110.7848 79.4342
L110.7848 79.2437
" />
<path d="M110.7848 79.2437
L110.7372 79.1485
" />
<path d="M110.7372 79.1485
L110.6896 79.1008
" />
<path d="M110.6896 79.1008
L110.5467 79.0056
" />
<path d="M110.5467 79.0056
L110.3562 78.9580
" />
<path d="M110.3562 78.9580
L109.9753 78.9580
" />
<path d="M109.9753 78.9580
L109.8801 79.0056
" />
<path d="M109.8801 79.0056
L109.8324 79.0532
" />
<path d="M109.8324 79.0532
L109.7848 79.1485
" />
<path d="M109.7848 79.1485
L109.7848 79.3389
" />
<path d="M109.7848 79.3389
L109.8324 79.4342
" />
<path d="M109.8324 79.4342
L109.8801 79.4818
" />
<path d="M109.8801 79.4818
L109.9753 79.5294
" />
<path d="M109.9753 79.5294
L110.2134 79.5294
" />
<path d="M110.2134 79.5294
L110.3086 79.4818
" />
<path d="M110.3086 79.4818
L110.3562 79.4342
" />
<path d="M110.3562 79.4342
L110.4039 79.3389
" />
<path d="M110.4039 79.3389
L110.4039 79.1485
" />
<path d="M110.4039 79.1485
L110.3562 79.0532
" />
<path d="M110.3562 79.0532
L110.3086 79.0056
" />
<path d="M110.3086 79.0056
L110.2134 78.9580
" />
<path d="M110.7848 77.7675
L110.1182 77.7675
" />
<path d="M110.2134 77.7675
L110.1658 77.7199
" />
<path d="M110.1658 77.7199
L110.1182 77.6246
" />
<path d="M110.1182 77.6246
L110.1182 77.4818
" />
<path d="M110.1182 77.4818
L110.1658 77.3866
" />
<path d="M110.1658 77.3866
L110.2610 77.3389
" />
<path d="M110.2610 77.3389
L110.7848 77.3389
" />
<path d="M110.2610 77.3389
L110.1658 77.2913
" />
<path d="M110.1658 77.2913
L110.1182 77.1961
" />
<path d="M110.1182 77.1961
L110.1182 77.0532
" />
<path d="M110.1182 77.0532
L110.1658 76.9580
" />
<path d="M110.1658 76.9580
L110.2610 76.9104
" />
<path d="M110.2610 76.9104
L110.7848 76.9104
" />
<path d="M110.7848 76.4342
L110.1182 76.4342
" />
<path d="M110.2134 76.4342
L110.1658 76.3866
" />
<path d="M110.1658 76.3866
L110.1182 76.2913
" />
<path d="M110.1182 76.2913
L110.1182 76.1485
" />
<path d="M110.1182 76.1485
L110.1658 76.0532
" />
<path d="M110.1658 76.0532
L110.2610 76.0056
" />
<path d="M110.2610 76.0056
L110.7848 76.0056
" />
<path d="M110.2610 76.0056
L110.1658 75.9580
" />
<path d="M110.1658 75.9580
L110.1182 75.8627
" />
<path d="M110.1182 75.8627
L110.1182 75.7199
" />
<path d="M110.1182 75.7199
L110.1658 75.6246
" />
<path d="M110.1658 75.6246
L110.2610 75.5770
" />
<path d="M110.2610 75.5770
L110.7848 75.5770
" />
</g></g>
<g style="fill:#000000; fill-opacity:0.0; 
stroke:#000000; stroke-width:0.1000; stroke-opacity:1; 
stroke-linecap:round; stroke-linejoin:round;">
<path d="M118.4800 92.5056
L110.8936 92.5056
" />
<path d="M118.4800 63.5056
L110.8936 63.5056
" />
<path d="M111.4800 92.5056
L111.4800 63.5056
" />
<path d="M111.4800 92.5056
L111.4800 63.5056
" />
<path d="M111.4800 92.5056
L110.8936 91.3791
" />
<path d="M111.4800 92.5056
L112.0664 91.3791
" />
<path d="M111.4800 63.5056
L112.0664 64.6321
" />
<path d="M111.4800 63.5056
L110.8936 64.6321
" />
</g>
<g style="fill:#000000; fill-opacity:0.0; 
stroke:#000000; stroke-width:0.1500; stroke-opacity:1; 
stroke-linecap:round; stroke-linejoin:round;">
<g transform="rotate(-90.000000 101.8300 92.5056)">
<text x="101.8300" y="93.0056"
textLength="5.5833" font-size="1.3333" lengthAdjust="spacingAndGlyphs"
text-anchor="middle" opacity="0">65 mm</text>
</g>
<g class="stroked-text"><desc>65 mm</desc>
<path d="M101.2848 94.5056
L101.2848 94.6961
" />
<path d="M101.2848 94.6961
L101.3324 94.7913
" />
<path d="M101.3324 94.7913
L101.3801 94.8389
" />
<path d="M101.3801 94.8389
L101.5229 94.9342
" />
<path d="M101.5229 94.9342
L101.7134 94.9818
" />
<path d="M101.7134 94.9818
L102.0943 94.9818
" />
<path d="M102.0943 94.9818
L102.1896 94.9342
" />
<path d="M102.1896 94.9342
L102.2372 94.8866
" />
<path d="M102.2372 94.8866
L102.2848 94.7913
" />
<path d="M102.2848 94.7913
L102.2848 94.6008
" />
<path d="M102.2848 94.6008
L102.2372 94.5056
" />
<path d="M102.2372 94.5056
L102.1896 94.4580
" />
<path d="M102.1896 94.4580
L102.0943 94.4104
" />
<path d="M102.0943 94.4104
L101.8562 94.4104
" />
<path d="M101.8562 94.4104
L101.7610 94.4580
" />
<path d="M101.7610 94.4580
L101.7134 94.5056
" />
<path d="M101.7134 94.5056
L101.6658 94.6008
" />
<path d="M101.6658 94.6008
L101.6658 94.7913
" />
<path d="M101.6658 94.7913
L101.7134 94.8866
" />
<path d="M101.7134 94.8866
L101.7610 94.9342
" />
<path d="M101.7610 94.9342
L101.8562 94.9818
" />
<path d="M101.2848 93.5056
L101.2848 93.9818
" />
<path d="M101.2848 93.9818
L101.7610 94.0294
" />
<path d="M101.7610 94.0294
L101.7134 93.9818
" />
<path d="M101.7134 93.9818
L101.6658 93.8866
" />
<path d="M101.6658 93.8866
L101.6658 93.6485
" />
<path d="M101.6658 93.6485
L101.7134 93.5532
" />
<path d="M101.7134 93.5532
L101.7610 93.5056
" />
<path d="M101.7610 93.5056
L101.8562 93.4580
" />
<path d="M101.8562 93.4580
L102.0943 93.4580
" />
<path d="M102.0943 93.4580
L102.1896 93.5056
" />
<path d="M102.1896 93.5056
L102.2372 93.5532
" />
<path d="M102.2372 93.5532
L102.2848 93.6485
" />
<path d="M102.2848 93.6485
L102.2848 93.8866
" />
<path d="M102.2848 93.8866
L102.2372 93.9818
" />
<path d="M102.2372 93.9818
L102.1896 94.0294
" />
<path d="M102.2848 92.2675
L101.6182 92.2675
" />
<path d="M101.7134 92.2675
L101.6658 92.2199
" />
<path d="M101.6658 92.2199
L101.6182 92.1246
" />
<path d="M101.6182 92.1246
L101.6182 91.9818
" />
<path d="M101.6182 91.9818
L101.6658 91.8866
" />
<path d="M101.6658 91.8866
L101.7610 91.8389
" />
<path d="M101.7610 91.8389
L102.2848 91.8389
" />
<path d="M101.7610 91.8389
L101.6658 91.7913
" />
<path d="M101.6658 91.7913
L101.6182 91.6961
" />
<path d="M101.6182 91.6961
L101.6182 91.5532
" />
<path d="M101.6182 91.5532
L101.6658 91.4580
" />
<path d="M101.6658 91.4580
L101.7610 91.4104
" />
<path d="M101.7610 91.4104
L102.2848 91.4104
" />
<path d="M102.2848 90.9342
L101.6182 90.9342
" />
<path d="M101.7134 90.9342
L101.6658 90.8866
" />
<path d="M101.6658 90.8866
L101.6182 90.7913
" />
<path d="M101.6182 90.7913
L101.6182 90.6485
" />
<path d="M101.6182 90.6485
L101.6658 90.5532
" />
<path d="M101.6658 90.5532
L101.7610 90.5056
" />
<path d="M101.7610 90.5056
L102.2848 90.5056
" />
<path d="M101.7610 90.5056
L101.6658 90.4580
" />
<path d="M101.6658 90.4580
L101.6182 90.3627
" />
<path d="M101.6182 90.3627
L101.6182 90.2199
" />
<path d="M101.6182 90.2199
L101.6658 90.1246
" />
<path d="M101.6658 90.1246
L101.7610 90.0770
" />
<path d="M101.7610 90.0770
L102.2848 90.0770
" />
</g></g>
<g style="fill:#000000; fill-opacity:0.0; 
stroke:#000000; stroke-width:0.1000; stroke-opacity:1; 
stroke-linecap:round; stroke-linejoin:round;">
<path d="M118.4800 125.0056
L102.3936 125.0056
" />
<path d="M118.4800 60.0056
L102.3936 60.0056
" />
<path d="M102.9800 125.0056
L102.9800 60.0056
" />
<path d="M102.9800 125.0056
L102.9800 60.0056
" />
<path d="M102.9800 125.0056
L102.3936 123.8791
" />
<path d="M102.9800 125.0056
L103.5664 123.8791
" />
<path d="M102.9800 60.0056
L103.5664 61.1321
" />
<path d="M102.9800 60.0056
L102.3936 61.1321
" />
<g >
</g>
<g >
</g>
<g >
</g>
<g >
</g>
<g >
</g>
<g >
</g>
<g >
</g>
<g >
</g>
<g >
</g>
<g >
</g>
<g >
</g>
<g >
</g>
<g >
</g>
<g >
</g>
<g >
</g>
<g >
</g>
<g >
</g>
<g >
</g>
<g >
</g>
<g >
</g>
<g >
</g>
<g >
</g>
<g >
</g>
<g >
</g>
<g >
</g>
<g >
</g>
<g >
</g>
<g >
</g>
<g >
</g>
<g >
</g>
<g >
</g>
<g >
</g>
<g >
</g>
<g >
</g>
<g >
</g>
<g >
</g>
<g >
</g>
<g >
</g>
<g >
</g>
<g >
</g>
<g >
</g>
<g >
</g>
<g >
</g>
<g >
</g>
<g >
</g>
<g >
</g>
<g >
</g>
<g >
</g>
<g >
</g>
<g >
</g>
<g >
</g>
<g >
</g>
<g >
</g>
<g >
</g>
<g >
</g>
<g >
</g>
<g >
</g>
<g >
</g>
<g >
</g>
<g >
</g>
<g >
</g>
<g >
</g>
<g >
</g>
<g >
</g>
<g >
</g>
<g >
</g>
<g >
</g>
<g >
</g>
<g >
</g>
<g >
</g>
<g >
</g>
<g >
</g>
<g >
</g>
<g >
</g>
<g >
</g>
<g >
</g>
<g >
</g>
<g >
</g>
<g >
</g>
<g >
</g>
<g >
</g>
<g >
</g>
<g >
</g>
<g >
</g>
<g >
</g>
<g >
</g>
<g >
</g>
<g >
</g>
<g >
</g>
<g >
</g>
<g >
</g>
<g >
</g>
<g >
</g>
<g >
</g>
<g >
</g>
<g >
</g>
<g >
</g>
<g >
</g>
<g >
</g>
<g >
</g>
<g >
</g>
<g >
</g>
<g >
</g>
<g >
</g>
<g >
</g>
<g >
</g>
<g >
</g>
<g >
</g>
<g >
</g>
<g >
</g>
<g >
</g>
<g >
</g>
<g >
</g>
<g >
</g>
<g >
</g>
<g >
</g>
<g >
</g>
<g >
</g>
<g >
</g>
<g >
</g>
<g >
</g>
<g >
</g>
<g >
</g>
<g >
</g>
<g >
</g>
<g >
</g>
<g >
</g>
<g >
</g>
<g >
</g>
<g >
</g>
<g >
</g>
<g >
</g>
<g >
</g>
<g >
</g>
<g >
</g>
<g >
</g>
<g >
</g>
<g >
</g>
<g >
</g>
<g >
</g>
<g >
</g>
<g >
</g>
<g >
</g>
</g> 
</svg>
