<?xml version="1.0" standalone="no"?>
 <!DOCTYPE svg PUBLIC "-//W3C//DTD SVG 1.1//EN" 
 "http://www.w3.org/Graphics/SVG/1.1/DTD/svg11.dtd"> 
<svg
  xmlns:svg="http://www.w3.org/2000/svg"
  xmlns="http://www.w3.org/2000/svg"
  xmlns:xlink="http://www.w3.org/1999/xlink"
  version="1.1"
  width="297.0022mm" height="210.0072mm" viewBox="0.0000 0.0000 297.0022 210.0072">
<title>SVG Image created as pedalboard-hw-Edge_Cuts.svg date 2023/10/13 09:28:36 </title>
  <desc>Image generated by PCBNEW </desc>
<g style="fill:#000000; fill-opacity:1.0000;stroke:#000000; stroke-opacity:1.0000;
stroke-linecap:round; stroke-linejoin:round;"
 transform="translate(0 0) scale(1 1)">
</g>
<g style="fill:#000000; fill-opacity:0.0; 
stroke:#000000; stroke-width:0.0000; stroke-opacity:1; 
stroke-linecap:round; stroke-linejoin:round;">
</g>
<g style="fill:#000000; fill-opacity:0.0; 
stroke:#000000; stroke-width:0.1000; stroke-opacity:1; 
stroke-linecap:round; stroke-linejoin:round;">
<path d="M118.2000 20.0000
L186.0000 20.0000
" />
<path d="M18.0000 125.0000
L18.0000 26.0000
" />
<path d="M23.0000 130.0000 A1.0000 1.0000 0.0 0 0 24.0000 131.0000" />
<path d="M24.0000 131.0000
L100.0000 131.0000
" />
<path d="M113.8000 21.0000 A0.4000 0.4000 0.0 0 0 114.2000 21.4000" />
<path d="M101.0000 21.0000 A4.0000 4.0000 0.0 0 0 109.0000 21.0000" />
<path d="M19.0000 25.0000 A4.0000 4.0000 0.0 0 0 23.0000 21.0000" />
<path d="M91.8000 21.0000 A0.4000 0.4000 0.0 0 0 92.2000 21.4000" />
<path d="M186.0000 131.0000 A1.0000 1.0000 0.0 0 0 187.0000 130.0000" />
<path d="M18.0000 125.0000 A1.0000 1.0000 0.0 0 0 19.0000 126.0000" />
<path d="M114.2000 21.4000
L117.8000 21.4000
" />
<path d="M24.0000 20.0000 A1.0000 1.0000 0.0 0 0 23.0000 21.0000" />
<path d="M101.0000 20.0000
L101.0000 21.0000
" />
<path d="M191.0000 126.0000 A4.0000 4.0000 0.0 0 0 187.0000 130.0000" />
<path d="M19.0000 25.0000 A1.0000 1.0000 0.0 0 0 18.0000 26.0000" />
<path d="M192.0000 26.0000 A1.0000 1.0000 0.0 0 0 191.0000 25.0000" />
<path d="M109.0000 20.0000
L113.8000 20.0000
" />
<path d="M192.0000 26.0000
L192.0000 125.0000
" />
<path d="M113.8000 20.0000
L113.8000 21.0000
" />
<path d="M96.2000 21.0000
L96.2000 20.0000
" />
<path d="M96.2000 20.0000
L101.0000 20.0000
" />
<path d="M95.8000 21.4000 A0.4000 0.4000 0.0 0 0 96.2000 21.0000" />
<path d="M91.8000 20.0000
L91.8000 21.0000
" />
<path d="M23.0000 130.0000 A4.0000 4.0000 0.0 0 0 19.0000 126.0000" />
<path d="M92.2000 21.4000
L95.8000 21.4000
" />
<path d="M109.0000 20.0000
L109.0000 21.0000
" />
<path d="M91.8000 20.0000
L24.0000 20.0000
" />
<path d="M117.8000 21.4000 A0.4000 0.4000 0.0 0 0 118.2000 21.0000" />
<path d="M191.0000 126.0000 A1.0000 1.0000 0.0 0 0 192.0000 125.0000" />
<path d="M118.2000 21.0000
L118.2000 20.0000
" />
<path d="M109.0000 130.0000 A1.0000 1.0000 0.0 0 0 110.0000 131.0000" />
<path d="M110.0000 131.0000
L186.0000 131.0000
" />
<path d="M100.0000 131.0000 A1.0000 1.0000 0.0 0 0 101.0000 130.0000" />
<path d="M187.0000 21.0000 A4.0000 4.0000 0.0 0 0 191.0000 25.0000" />
<path d="M187.0000 21.0000 A1.0000 1.0000 0.0 0 0 186.0000 20.0000" />
<path d="M109.0000 130.0000 A4.0000 4.0000 0.0 0 0 101.0000 130.0000" />
<g >
</g>
<g >
</g>
<g >
</g>
<g >
</g>
<g >
</g>
<g >
</g>
<g >
</g>
<g >
</g>
<g >
</g>
<g >
</g>
<g >
</g>
<g >
</g>
<g >
</g>
<g >
</g>
<g >
</g>
<g >
</g>
<g >
</g>
<g >
</g>
<g >
</g>
<g >
</g>
<g >
</g>
<g >
</g>
<g >
</g>
<g >
</g>
<g >
</g>
<g >
</g>
<g >
</g>
<g >
</g>
<g >
</g>
<g >
</g>
<g >
</g>
<g >
</g>
<g >
</g>
<g >
</g>
<g >
</g>
<g >
</g>
<g >
</g>
<g >
</g>
<g >
</g>
<g >
</g>
<g >
</g>
<g >
</g>
<g >
</g>
<g >
</g>
<g >
</g>
<g >
</g>
<g >
</g>
<g >
</g>
<g >
</g>
<g >
</g>
<g >
</g>
<g >
</g>
<g >
</g>
<g >
</g>
<g >
</g>
<g >
</g>
<g >
</g>
<g >
</g>
<g >
</g>
<g >
</g>
<g >
</g>
<g >
</g>
<g >
</g>
<g >
</g>
<g >
</g>
<g >
</g>
<g >
</g>
<g >
</g>
<g >
</g>
<g >
</g>
<g >
</g>
<g >
</g>
<g >
</g>
<g >
</g>
<g >
</g>
<g >
</g>
<g >
</g>
<g >
</g>
<g >
</g>
<g >
</g>
<g >
</g>
<g >
</g>
<g >
</g>
<g >
</g>
<g >
</g>
<g >
</g>
</g> 
</svg>
