<?xml version="1.0" standalone="no"?>
 <!DOCTYPE svg PUBLIC "-//W3C//DTD SVG 1.1//EN" 
 "http://www.w3.org/Graphics/SVG/1.1/DTD/svg11.dtd"> 
<svg
  xmlns:svg="http://www.w3.org/2000/svg"
  xmlns="http://www.w3.org/2000/svg"
  xmlns:xlink="http://www.w3.org/1999/xlink"
  version="1.1"
  width="297.0022mm" height="210.0072mm" viewBox="0.0000 0.0000 297.0022 210.0072">
<title>SVG Image created as pedalboard-hw-B_Fab.svg date 2023/12/03 14:39:53 </title>
  <desc>Image generated by PCBNEW </desc>
<g style="fill:#000000; fill-opacity:1.0000;stroke:#000000; stroke-opacity:1.0000;
stroke-linecap:round; stroke-linejoin:round;"
 transform="translate(0 0) scale(1 1)">
</g>
<g style="fill:#000000; fill-opacity:0.0; 
stroke:#000000; stroke-width:0.0000; stroke-opacity:1; 
stroke-linecap:round; stroke-linejoin:round;">
</g>
<g style="fill:#000000; fill-opacity:0.0; 
stroke:#000000; stroke-width:0.1500; stroke-opacity:1; 
stroke-linecap:round; stroke-linejoin:round;">
<text x="267.0022" y="123.2000"
transform="scale(-1 1) translate(-534.004400 0)"
textLength="5.3452" font-size="1.3333" lengthAdjust="spacingAndGlyphs"
text-anchor="middle" opacity="0">Spacer</text>
<g class="stroked-text"><desc>Spacer</desc>
<path d="M264.6451 123.1072
L264.7879 123.1548
" />
<path d="M264.7879 123.1548
L265.0260 123.1548
" />
<path d="M265.0260 123.1548
L265.1212 123.1072
" />
<path d="M265.1212 123.1072
L265.1689 123.0596
" />
<path d="M265.1689 123.0596
L265.2165 122.9643
" />
<path d="M265.2165 122.9643
L265.2165 122.8691
" />
<path d="M265.2165 122.8691
L265.1689 122.7739
" />
<path d="M265.1689 122.7739
L265.1212 122.7262
" />
<path d="M265.1212 122.7262
L265.0260 122.6786
" />
<path d="M265.0260 122.6786
L264.8355 122.6310
" />
<path d="M264.8355 122.6310
L264.7403 122.5834
" />
<path d="M264.7403 122.5834
L264.6927 122.5358
" />
<path d="M264.6927 122.5358
L264.6451 122.4405
" />
<path d="M264.6451 122.4405
L264.6451 122.3453
" />
<path d="M264.6451 122.3453
L264.6927 122.2501
" />
<path d="M264.6927 122.2501
L264.7403 122.2024
" />
<path d="M264.7403 122.2024
L264.8355 122.1548
" />
<path d="M264.8355 122.1548
L265.0736 122.1548
" />
<path d="M265.0736 122.1548
L265.2165 122.2024
" />
<path d="M265.6451 122.4882
L265.6451 123.4882
" />
<path d="M265.6451 122.5358
L265.7403 122.4882
" />
<path d="M265.7403 122.4882
L265.9308 122.4882
" />
<path d="M265.9308 122.4882
L266.0260 122.5358
" />
<path d="M266.0260 122.5358
L266.0736 122.5834
" />
<path d="M266.0736 122.5834
L266.1212 122.6786
" />
<path d="M266.1212 122.6786
L266.1212 122.9643
" />
<path d="M266.1212 122.9643
L266.0736 123.0596
" />
<path d="M266.0736 123.0596
L266.0260 123.1072
" />
<path d="M266.0260 123.1072
L265.9308 123.1548
" />
<path d="M265.9308 123.1548
L265.7403 123.1548
" />
<path d="M265.7403 123.1548
L265.6451 123.1072
" />
<path d="M266.9784 123.1548
L266.9784 122.6310
" />
<path d="M266.9784 122.6310
L266.9308 122.5358
" />
<path d="M266.9308 122.5358
L266.8355 122.4882
" />
<path d="M266.8355 122.4882
L266.6451 122.4882
" />
<path d="M266.6451 122.4882
L266.5498 122.5358
" />
<path d="M266.9784 123.1072
L266.8832 123.1548
" />
<path d="M266.8832 123.1548
L266.6451 123.1548
" />
<path d="M266.6451 123.1548
L266.5498 123.1072
" />
<path d="M266.5498 123.1072
L266.5022 123.0120
" />
<path d="M266.5022 123.0120
L266.5022 122.9167
" />
<path d="M266.5022 122.9167
L266.5498 122.8215
" />
<path d="M266.5498 122.8215
L266.6451 122.7739
" />
<path d="M266.6451 122.7739
L266.8832 122.7739
" />
<path d="M266.8832 122.7739
L266.9784 122.7262
" />
<path d="M267.8832 123.1072
L267.7879 123.1548
" />
<path d="M267.7879 123.1548
L267.5974 123.1548
" />
<path d="M267.5974 123.1548
L267.5022 123.1072
" />
<path d="M267.5022 123.1072
L267.4546 123.0596
" />
<path d="M267.4546 123.0596
L267.4070 122.9643
" />
<path d="M267.4070 122.9643
L267.4070 122.6786
" />
<path d="M267.4070 122.6786
L267.4546 122.5834
" />
<path d="M267.4546 122.5834
L267.5022 122.5358
" />
<path d="M267.5022 122.5358
L267.5974 122.4882
" />
<path d="M267.5974 122.4882
L267.7879 122.4882
" />
<path d="M267.7879 122.4882
L267.8832 122.5358
" />
<path d="M268.6927 123.1072
L268.5974 123.1548
" />
<path d="M268.5974 123.1548
L268.4070 123.1548
" />
<path d="M268.4070 123.1548
L268.3117 123.1072
" />
<path d="M268.3117 123.1072
L268.2641 123.0120
" />
<path d="M268.2641 123.0120
L268.2641 122.6310
" />
<path d="M268.2641 122.6310
L268.3117 122.5358
" />
<path d="M268.3117 122.5358
L268.4070 122.4882
" />
<path d="M268.4070 122.4882
L268.5974 122.4882
" />
<path d="M268.5974 122.4882
L268.6927 122.5358
" />
<path d="M268.6927 122.5358
L268.7403 122.6310
" />
<path d="M268.7403 122.6310
L268.7403 122.7262
" />
<path d="M268.7403 122.7262
L268.2641 122.8215
" />
<path d="M269.1689 123.1548
L269.1689 122.4882
" />
<path d="M269.1689 122.6786
L269.2165 122.5834
" />
<path d="M269.2165 122.5834
L269.2641 122.5358
" />
<path d="M269.2641 122.5358
L269.3593 122.4882
" />
<path d="M269.3593 122.4882
L269.4546 122.4882
" />
</g><text x="267.0022" y="119.5000"
transform="scale(-1 1) translate(-534.004400 0)"
textLength="3.2024" font-size="1.3333" lengthAdjust="spacingAndGlyphs"
text-anchor="middle" opacity="0">H13</text>
<g class="stroked-text"><desc>H13</desc>
<path d="M265.7641 119.4548
L265.7641 118.4548
" />
<path d="M265.7641 118.9310
L266.3355 118.9310
" />
<path d="M266.3355 119.4548
L266.3355 118.4548
" />
<path d="M267.3355 119.4548
L266.7641 119.4548
" />
<path d="M267.0498 119.4548
L267.0498 118.4548
" />
<path d="M267.0498 118.4548
L266.9546 118.5977
" />
<path d="M266.9546 118.5977
L266.8593 118.6929
" />
<path d="M266.8593 118.6929
L266.7641 118.7405
" />
<path d="M267.6689 118.4548
L268.2879 118.4548
" />
<path d="M268.2879 118.4548
L267.9546 118.8358
" />
<path d="M267.9546 118.8358
L268.0974 118.8358
" />
<path d="M268.0974 118.8358
L268.1927 118.8834
" />
<path d="M268.1927 118.8834
L268.2403 118.9310
" />
<path d="M268.2403 118.9310
L268.2879 119.0262
" />
<path d="M268.2879 119.0262
L268.2879 119.2643
" />
<path d="M268.2879 119.2643
L268.2403 119.3596
" />
<path d="M268.2403 119.3596
L268.1927 119.4072
" />
<path d="M268.1927 119.4072
L268.0974 119.4548
" />
<path d="M268.0974 119.4548
L267.8117 119.4548
" />
<path d="M267.8117 119.4548
L267.7165 119.4072
" />
<path d="M267.7165 119.4072
L267.6689 119.3596
" />
</g><text x="192.0022" y="71.2000"
transform="scale(-1 1) translate(-384.004400 0)"
textLength="5.3452" font-size="1.3333" lengthAdjust="spacingAndGlyphs"
text-anchor="middle" opacity="0">Spacer</text>
<g class="stroked-text"><desc>Spacer</desc>
<path d="M189.6451 71.1072
L189.7879 71.1548
" />
<path d="M189.7879 71.1548
L190.0260 71.1548
" />
<path d="M190.0260 71.1548
L190.1212 71.1072
" />
<path d="M190.1212 71.1072
L190.1689 71.0596
" />
<path d="M190.1689 71.0596
L190.2165 70.9643
" />
<path d="M190.2165 70.9643
L190.2165 70.8691
" />
<path d="M190.2165 70.8691
L190.1689 70.7739
" />
<path d="M190.1689 70.7739
L190.1212 70.7262
" />
<path d="M190.1212 70.7262
L190.0260 70.6786
" />
<path d="M190.0260 70.6786
L189.8355 70.6310
" />
<path d="M189.8355 70.6310
L189.7403 70.5834
" />
<path d="M189.7403 70.5834
L189.6927 70.5358
" />
<path d="M189.6927 70.5358
L189.6451 70.4405
" />
<path d="M189.6451 70.4405
L189.6451 70.3453
" />
<path d="M189.6451 70.3453
L189.6927 70.2501
" />
<path d="M189.6927 70.2501
L189.7403 70.2024
" />
<path d="M189.7403 70.2024
L189.8355 70.1548
" />
<path d="M189.8355 70.1548
L190.0736 70.1548
" />
<path d="M190.0736 70.1548
L190.2165 70.2024
" />
<path d="M190.6451 70.4882
L190.6451 71.4882
" />
<path d="M190.6451 70.5358
L190.7403 70.4882
" />
<path d="M190.7403 70.4882
L190.9308 70.4882
" />
<path d="M190.9308 70.4882
L191.0260 70.5358
" />
<path d="M191.0260 70.5358
L191.0736 70.5834
" />
<path d="M191.0736 70.5834
L191.1212 70.6786
" />
<path d="M191.1212 70.6786
L191.1212 70.9643
" />
<path d="M191.1212 70.9643
L191.0736 71.0596
" />
<path d="M191.0736 71.0596
L191.0260 71.1072
" />
<path d="M191.0260 71.1072
L190.9308 71.1548
" />
<path d="M190.9308 71.1548
L190.7403 71.1548
" />
<path d="M190.7403 71.1548
L190.6451 71.1072
" />
<path d="M191.9784 71.1548
L191.9784 70.6310
" />
<path d="M191.9784 70.6310
L191.9308 70.5358
" />
<path d="M191.9308 70.5358
L191.8355 70.4882
" />
<path d="M191.8355 70.4882
L191.6451 70.4882
" />
<path d="M191.6451 70.4882
L191.5498 70.5358
" />
<path d="M191.9784 71.1072
L191.8832 71.1548
" />
<path d="M191.8832 71.1548
L191.6451 71.1548
" />
<path d="M191.6451 71.1548
L191.5498 71.1072
" />
<path d="M191.5498 71.1072
L191.5022 71.0120
" />
<path d="M191.5022 71.0120
L191.5022 70.9167
" />
<path d="M191.5022 70.9167
L191.5498 70.8215
" />
<path d="M191.5498 70.8215
L191.6451 70.7739
" />
<path d="M191.6451 70.7739
L191.8832 70.7739
" />
<path d="M191.8832 70.7739
L191.9784 70.7262
" />
<path d="M192.8832 71.1072
L192.7879 71.1548
" />
<path d="M192.7879 71.1548
L192.5974 71.1548
" />
<path d="M192.5974 71.1548
L192.5022 71.1072
" />
<path d="M192.5022 71.1072
L192.4546 71.0596
" />
<path d="M192.4546 71.0596
L192.4070 70.9643
" />
<path d="M192.4070 70.9643
L192.4070 70.6786
" />
<path d="M192.4070 70.6786
L192.4546 70.5834
" />
<path d="M192.4546 70.5834
L192.5022 70.5358
" />
<path d="M192.5022 70.5358
L192.5974 70.4882
" />
<path d="M192.5974 70.4882
L192.7879 70.4882
" />
<path d="M192.7879 70.4882
L192.8832 70.5358
" />
<path d="M193.6927 71.1072
L193.5974 71.1548
" />
<path d="M193.5974 71.1548
L193.4070 71.1548
" />
<path d="M193.4070 71.1548
L193.3117 71.1072
" />
<path d="M193.3117 71.1072
L193.2641 71.0120
" />
<path d="M193.2641 71.0120
L193.2641 70.6310
" />
<path d="M193.2641 70.6310
L193.3117 70.5358
" />
<path d="M193.3117 70.5358
L193.4070 70.4882
" />
<path d="M193.4070 70.4882
L193.5974 70.4882
" />
<path d="M193.5974 70.4882
L193.6927 70.5358
" />
<path d="M193.6927 70.5358
L193.7403 70.6310
" />
<path d="M193.7403 70.6310
L193.7403 70.7262
" />
<path d="M193.7403 70.7262
L193.2641 70.8215
" />
<path d="M194.1689 71.1548
L194.1689 70.4882
" />
<path d="M194.1689 70.6786
L194.2165 70.5834
" />
<path d="M194.2165 70.5834
L194.2641 70.5358
" />
<path d="M194.2641 70.5358
L194.3593 70.4882
" />
<path d="M194.3593 70.4882
L194.4546 70.4882
" />
</g><text x="192.0022" y="67.5000"
transform="scale(-1 1) translate(-384.004400 0)"
textLength="2.2500" font-size="1.3333" lengthAdjust="spacingAndGlyphs"
text-anchor="middle" opacity="0">H9</text>
<g class="stroked-text"><desc>H9</desc>
<path d="M191.2403 67.4548
L191.2403 66.4548
" />
<path d="M191.2403 66.9310
L191.8117 66.9310
" />
<path d="M191.8117 67.4548
L191.8117 66.4548
" />
<path d="M192.3355 67.4548
L192.5260 67.4548
" />
<path d="M192.5260 67.4548
L192.6212 67.4072
" />
<path d="M192.6212 67.4072
L192.6689 67.3596
" />
<path d="M192.6689 67.3596
L192.7641 67.2167
" />
<path d="M192.7641 67.2167
L192.8117 67.0262
" />
<path d="M192.8117 67.0262
L192.8117 66.6453
" />
<path d="M192.8117 66.6453
L192.7641 66.5501
" />
<path d="M192.7641 66.5501
L192.7165 66.5024
" />
<path d="M192.7165 66.5024
L192.6212 66.4548
" />
<path d="M192.6212 66.4548
L192.4308 66.4548
" />
<path d="M192.4308 66.4548
L192.3355 66.5024
" />
<path d="M192.3355 66.5024
L192.2879 66.5501
" />
<path d="M192.2879 66.5501
L192.2403 66.6453
" />
<path d="M192.2403 66.6453
L192.2403 66.8834
" />
<path d="M192.2403 66.8834
L192.2879 66.9786
" />
<path d="M192.2879 66.9786
L192.3355 67.0262
" />
<path d="M192.3355 67.0262
L192.4308 67.0739
" />
<path d="M192.4308 67.0739
L192.6212 67.0739
" />
<path d="M192.6212 67.0739
L192.7165 67.0262
" />
<path d="M192.7165 67.0262
L192.7641 66.9786
" />
<path d="M192.7641 66.9786
L192.8117 66.8834
" />
</g><text x="267.0022" y="71.2000"
transform="scale(-1 1) translate(-534.004400 0)"
textLength="5.3452" font-size="1.3333" lengthAdjust="spacingAndGlyphs"
text-anchor="middle" opacity="0">Spacer</text>
<g class="stroked-text"><desc>Spacer</desc>
<path d="M264.6451 71.1072
L264.7879 71.1548
" />
<path d="M264.7879 71.1548
L265.0260 71.1548
" />
<path d="M265.0260 71.1548
L265.1212 71.1072
" />
<path d="M265.1212 71.1072
L265.1689 71.0596
" />
<path d="M265.1689 71.0596
L265.2165 70.9643
" />
<path d="M265.2165 70.9643
L265.2165 70.8691
" />
<path d="M265.2165 70.8691
L265.1689 70.7739
" />
<path d="M265.1689 70.7739
L265.1212 70.7262
" />
<path d="M265.1212 70.7262
L265.0260 70.6786
" />
<path d="M265.0260 70.6786
L264.8355 70.6310
" />
<path d="M264.8355 70.6310
L264.7403 70.5834
" />
<path d="M264.7403 70.5834
L264.6927 70.5358
" />
<path d="M264.6927 70.5358
L264.6451 70.4405
" />
<path d="M264.6451 70.4405
L264.6451 70.3453
" />
<path d="M264.6451 70.3453
L264.6927 70.2501
" />
<path d="M264.6927 70.2501
L264.7403 70.2024
" />
<path d="M264.7403 70.2024
L264.8355 70.1548
" />
<path d="M264.8355 70.1548
L265.0736 70.1548
" />
<path d="M265.0736 70.1548
L265.2165 70.2024
" />
<path d="M265.6451 70.4882
L265.6451 71.4882
" />
<path d="M265.6451 70.5358
L265.7403 70.4882
" />
<path d="M265.7403 70.4882
L265.9308 70.4882
" />
<path d="M265.9308 70.4882
L266.0260 70.5358
" />
<path d="M266.0260 70.5358
L266.0736 70.5834
" />
<path d="M266.0736 70.5834
L266.1212 70.6786
" />
<path d="M266.1212 70.6786
L266.1212 70.9643
" />
<path d="M266.1212 70.9643
L266.0736 71.0596
" />
<path d="M266.0736 71.0596
L266.0260 71.1072
" />
<path d="M266.0260 71.1072
L265.9308 71.1548
" />
<path d="M265.9308 71.1548
L265.7403 71.1548
" />
<path d="M265.7403 71.1548
L265.6451 71.1072
" />
<path d="M266.9784 71.1548
L266.9784 70.6310
" />
<path d="M266.9784 70.6310
L266.9308 70.5358
" />
<path d="M266.9308 70.5358
L266.8355 70.4882
" />
<path d="M266.8355 70.4882
L266.6451 70.4882
" />
<path d="M266.6451 70.4882
L266.5498 70.5358
" />
<path d="M266.9784 71.1072
L266.8832 71.1548
" />
<path d="M266.8832 71.1548
L266.6451 71.1548
" />
<path d="M266.6451 71.1548
L266.5498 71.1072
" />
<path d="M266.5498 71.1072
L266.5022 71.0120
" />
<path d="M266.5022 71.0120
L266.5022 70.9167
" />
<path d="M266.5022 70.9167
L266.5498 70.8215
" />
<path d="M266.5498 70.8215
L266.6451 70.7739
" />
<path d="M266.6451 70.7739
L266.8832 70.7739
" />
<path d="M266.8832 70.7739
L266.9784 70.7262
" />
<path d="M267.8832 71.1072
L267.7879 71.1548
" />
<path d="M267.7879 71.1548
L267.5974 71.1548
" />
<path d="M267.5974 71.1548
L267.5022 71.1072
" />
<path d="M267.5022 71.1072
L267.4546 71.0596
" />
<path d="M267.4546 71.0596
L267.4070 70.9643
" />
<path d="M267.4070 70.9643
L267.4070 70.6786
" />
<path d="M267.4070 70.6786
L267.4546 70.5834
" />
<path d="M267.4546 70.5834
L267.5022 70.5358
" />
<path d="M267.5022 70.5358
L267.5974 70.4882
" />
<path d="M267.5974 70.4882
L267.7879 70.4882
" />
<path d="M267.7879 70.4882
L267.8832 70.5358
" />
<path d="M268.6927 71.1072
L268.5974 71.1548
" />
<path d="M268.5974 71.1548
L268.4070 71.1548
" />
<path d="M268.4070 71.1548
L268.3117 71.1072
" />
<path d="M268.3117 71.1072
L268.2641 71.0120
" />
<path d="M268.2641 71.0120
L268.2641 70.6310
" />
<path d="M268.2641 70.6310
L268.3117 70.5358
" />
<path d="M268.3117 70.5358
L268.4070 70.4882
" />
<path d="M268.4070 70.4882
L268.5974 70.4882
" />
<path d="M268.5974 70.4882
L268.6927 70.5358
" />
<path d="M268.6927 70.5358
L268.7403 70.6310
" />
<path d="M268.7403 70.6310
L268.7403 70.7262
" />
<path d="M268.7403 70.7262
L268.2641 70.8215
" />
<path d="M269.1689 71.1548
L269.1689 70.4882
" />
<path d="M269.1689 70.6786
L269.2165 70.5834
" />
<path d="M269.2165 70.5834
L269.2641 70.5358
" />
<path d="M269.2641 70.5358
L269.3593 70.4882
" />
<path d="M269.3593 70.4882
L269.4546 70.4882
" />
</g><text x="267.0022" y="67.5000"
transform="scale(-1 1) translate(-534.004400 0)"
textLength="3.2024" font-size="1.3333" lengthAdjust="spacingAndGlyphs"
text-anchor="middle" opacity="0">H10</text>
<g class="stroked-text"><desc>H10</desc>
<path d="M265.7641 67.4548
L265.7641 66.4548
" />
<path d="M265.7641 66.9310
L266.3355 66.9310
" />
<path d="M266.3355 67.4548
L266.3355 66.4548
" />
<path d="M267.3355 67.4548
L266.7641 67.4548
" />
<path d="M267.0498 67.4548
L267.0498 66.4548
" />
<path d="M267.0498 66.4548
L266.9546 66.5977
" />
<path d="M266.9546 66.5977
L266.8593 66.6929
" />
<path d="M266.8593 66.6929
L266.7641 66.7405
" />
<path d="M267.9546 66.4548
L268.0498 66.4548
" />
<path d="M268.0498 66.4548
L268.1451 66.5024
" />
<path d="M268.1451 66.5024
L268.1927 66.5501
" />
<path d="M268.1927 66.5501
L268.2403 66.6453
" />
<path d="M268.2403 66.6453
L268.2879 66.8358
" />
<path d="M268.2879 66.8358
L268.2879 67.0739
" />
<path d="M268.2879 67.0739
L268.2403 67.2643
" />
<path d="M268.2403 67.2643
L268.1927 67.3596
" />
<path d="M268.1927 67.3596
L268.1451 67.4072
" />
<path d="M268.1451 67.4072
L268.0498 67.4548
" />
<path d="M268.0498 67.4548
L267.9546 67.4548
" />
<path d="M267.9546 67.4548
L267.8593 67.4072
" />
<path d="M267.8593 67.4072
L267.8117 67.3596
" />
<path d="M267.8117 67.3596
L267.7641 67.2643
" />
<path d="M267.7641 67.2643
L267.7165 67.0739
" />
<path d="M267.7165 67.0739
L267.7165 66.8358
" />
<path d="M267.7165 66.8358
L267.7641 66.6453
" />
<path d="M267.7641 66.6453
L267.8117 66.5501
" />
<path d="M267.8117 66.5501
L267.8593 66.5024
" />
<path d="M267.8593 66.5024
L267.9546 66.4548
" />
</g><text x="117.0022" y="71.2000"
transform="scale(-1 1) translate(-234.004400 0)"
textLength="5.3452" font-size="1.3333" lengthAdjust="spacingAndGlyphs"
text-anchor="middle" opacity="0">Spacer</text>
<g class="stroked-text"><desc>Spacer</desc>
<path d="M114.6451 71.1072
L114.7879 71.1548
" />
<path d="M114.7879 71.1548
L115.0260 71.1548
" />
<path d="M115.0260 71.1548
L115.1212 71.1072
" />
<path d="M115.1212 71.1072
L115.1689 71.0596
" />
<path d="M115.1689 71.0596
L115.2165 70.9643
" />
<path d="M115.2165 70.9643
L115.2165 70.8691
" />
<path d="M115.2165 70.8691
L115.1689 70.7739
" />
<path d="M115.1689 70.7739
L115.1212 70.7262
" />
<path d="M115.1212 70.7262
L115.0260 70.6786
" />
<path d="M115.0260 70.6786
L114.8355 70.6310
" />
<path d="M114.8355 70.6310
L114.7403 70.5834
" />
<path d="M114.7403 70.5834
L114.6927 70.5358
" />
<path d="M114.6927 70.5358
L114.6451 70.4405
" />
<path d="M114.6451 70.4405
L114.6451 70.3453
" />
<path d="M114.6451 70.3453
L114.6927 70.2501
" />
<path d="M114.6927 70.2501
L114.7403 70.2024
" />
<path d="M114.7403 70.2024
L114.8355 70.1548
" />
<path d="M114.8355 70.1548
L115.0736 70.1548
" />
<path d="M115.0736 70.1548
L115.2165 70.2024
" />
<path d="M115.6451 70.4882
L115.6451 71.4882
" />
<path d="M115.6451 70.5358
L115.7403 70.4882
" />
<path d="M115.7403 70.4882
L115.9308 70.4882
" />
<path d="M115.9308 70.4882
L116.0260 70.5358
" />
<path d="M116.0260 70.5358
L116.0736 70.5834
" />
<path d="M116.0736 70.5834
L116.1212 70.6786
" />
<path d="M116.1212 70.6786
L116.1212 70.9643
" />
<path d="M116.1212 70.9643
L116.0736 71.0596
" />
<path d="M116.0736 71.0596
L116.0260 71.1072
" />
<path d="M116.0260 71.1072
L115.9308 71.1548
" />
<path d="M115.9308 71.1548
L115.7403 71.1548
" />
<path d="M115.7403 71.1548
L115.6451 71.1072
" />
<path d="M116.9784 71.1548
L116.9784 70.6310
" />
<path d="M116.9784 70.6310
L116.9308 70.5358
" />
<path d="M116.9308 70.5358
L116.8355 70.4882
" />
<path d="M116.8355 70.4882
L116.6451 70.4882
" />
<path d="M116.6451 70.4882
L116.5498 70.5358
" />
<path d="M116.9784 71.1072
L116.8832 71.1548
" />
<path d="M116.8832 71.1548
L116.6451 71.1548
" />
<path d="M116.6451 71.1548
L116.5498 71.1072
" />
<path d="M116.5498 71.1072
L116.5022 71.0120
" />
<path d="M116.5022 71.0120
L116.5022 70.9167
" />
<path d="M116.5022 70.9167
L116.5498 70.8215
" />
<path d="M116.5498 70.8215
L116.6451 70.7739
" />
<path d="M116.6451 70.7739
L116.8832 70.7739
" />
<path d="M116.8832 70.7739
L116.9784 70.7262
" />
<path d="M117.8832 71.1072
L117.7879 71.1548
" />
<path d="M117.7879 71.1548
L117.5974 71.1548
" />
<path d="M117.5974 71.1548
L117.5022 71.1072
" />
<path d="M117.5022 71.1072
L117.4546 71.0596
" />
<path d="M117.4546 71.0596
L117.4070 70.9643
" />
<path d="M117.4070 70.9643
L117.4070 70.6786
" />
<path d="M117.4070 70.6786
L117.4546 70.5834
" />
<path d="M117.4546 70.5834
L117.5022 70.5358
" />
<path d="M117.5022 70.5358
L117.5974 70.4882
" />
<path d="M117.5974 70.4882
L117.7879 70.4882
" />
<path d="M117.7879 70.4882
L117.8832 70.5358
" />
<path d="M118.6927 71.1072
L118.5974 71.1548
" />
<path d="M118.5974 71.1548
L118.4070 71.1548
" />
<path d="M118.4070 71.1548
L118.3117 71.1072
" />
<path d="M118.3117 71.1072
L118.2641 71.0120
" />
<path d="M118.2641 71.0120
L118.2641 70.6310
" />
<path d="M118.2641 70.6310
L118.3117 70.5358
" />
<path d="M118.3117 70.5358
L118.4070 70.4882
" />
<path d="M118.4070 70.4882
L118.5974 70.4882
" />
<path d="M118.5974 70.4882
L118.6927 70.5358
" />
<path d="M118.6927 70.5358
L118.7403 70.6310
" />
<path d="M118.7403 70.6310
L118.7403 70.7262
" />
<path d="M118.7403 70.7262
L118.2641 70.8215
" />
<path d="M119.1689 71.1548
L119.1689 70.4882
" />
<path d="M119.1689 70.6786
L119.2165 70.5834
" />
<path d="M119.2165 70.5834
L119.2641 70.5358
" />
<path d="M119.2641 70.5358
L119.3593 70.4882
" />
<path d="M119.3593 70.4882
L119.4546 70.4882
" />
</g><text x="117.0022" y="67.5000"
transform="scale(-1 1) translate(-234.004400 0)"
textLength="2.2500" font-size="1.3333" lengthAdjust="spacingAndGlyphs"
text-anchor="middle" opacity="0">H8</text>
<g class="stroked-text"><desc>H8</desc>
<path d="M116.2403 67.4548
L116.2403 66.4548
" />
<path d="M116.2403 66.9310
L116.8117 66.9310
" />
<path d="M116.8117 67.4548
L116.8117 66.4548
" />
<path d="M117.4308 66.8834
L117.3355 66.8358
" />
<path d="M117.3355 66.8358
L117.2879 66.7882
" />
<path d="M117.2879 66.7882
L117.2403 66.6929
" />
<path d="M117.2403 66.6929
L117.2403 66.6453
" />
<path d="M117.2403 66.6453
L117.2879 66.5501
" />
<path d="M117.2879 66.5501
L117.3355 66.5024
" />
<path d="M117.3355 66.5024
L117.4308 66.4548
" />
<path d="M117.4308 66.4548
L117.6212 66.4548
" />
<path d="M117.6212 66.4548
L117.7165 66.5024
" />
<path d="M117.7165 66.5024
L117.7641 66.5501
" />
<path d="M117.7641 66.5501
L117.8117 66.6453
" />
<path d="M117.8117 66.6453
L117.8117 66.6929
" />
<path d="M117.8117 66.6929
L117.7641 66.7882
" />
<path d="M117.7641 66.7882
L117.7165 66.8358
" />
<path d="M117.7165 66.8358
L117.6212 66.8834
" />
<path d="M117.6212 66.8834
L117.4308 66.8834
" />
<path d="M117.4308 66.8834
L117.3355 66.9310
" />
<path d="M117.3355 66.9310
L117.2879 66.9786
" />
<path d="M117.2879 66.9786
L117.2403 67.0739
" />
<path d="M117.2403 67.0739
L117.2403 67.2643
" />
<path d="M117.2403 67.2643
L117.2879 67.3596
" />
<path d="M117.2879 67.3596
L117.3355 67.4072
" />
<path d="M117.3355 67.4072
L117.4308 67.4548
" />
<path d="M117.4308 67.4548
L117.6212 67.4548
" />
<path d="M117.6212 67.4548
L117.7165 67.4072
" />
<path d="M117.7165 67.4072
L117.7641 67.3596
" />
<path d="M117.7641 67.3596
L117.8117 67.2643
" />
<path d="M117.8117 67.2643
L117.8117 67.0739
" />
<path d="M117.8117 67.0739
L117.7641 66.9786
" />
<path d="M117.7641 66.9786
L117.7165 66.9310
" />
<path d="M117.7165 66.9310
L117.6212 66.8834
" />
</g><text x="192.0022" y="123.2000"
transform="scale(-1 1) translate(-384.004400 0)"
textLength="5.3452" font-size="1.3333" lengthAdjust="spacingAndGlyphs"
text-anchor="middle" opacity="0">Spacer</text>
<g class="stroked-text"><desc>Spacer</desc>
<path d="M189.6451 123.1072
L189.7879 123.1548
" />
<path d="M189.7879 123.1548
L190.0260 123.1548
" />
<path d="M190.0260 123.1548
L190.1212 123.1072
" />
<path d="M190.1212 123.1072
L190.1689 123.0596
" />
<path d="M190.1689 123.0596
L190.2165 122.9643
" />
<path d="M190.2165 122.9643
L190.2165 122.8691
" />
<path d="M190.2165 122.8691
L190.1689 122.7739
" />
<path d="M190.1689 122.7739
L190.1212 122.7262
" />
<path d="M190.1212 122.7262
L190.0260 122.6786
" />
<path d="M190.0260 122.6786
L189.8355 122.6310
" />
<path d="M189.8355 122.6310
L189.7403 122.5834
" />
<path d="M189.7403 122.5834
L189.6927 122.5358
" />
<path d="M189.6927 122.5358
L189.6451 122.4405
" />
<path d="M189.6451 122.4405
L189.6451 122.3453
" />
<path d="M189.6451 122.3453
L189.6927 122.2501
" />
<path d="M189.6927 122.2501
L189.7403 122.2024
" />
<path d="M189.7403 122.2024
L189.8355 122.1548
" />
<path d="M189.8355 122.1548
L190.0736 122.1548
" />
<path d="M190.0736 122.1548
L190.2165 122.2024
" />
<path d="M190.6451 122.4882
L190.6451 123.4882
" />
<path d="M190.6451 122.5358
L190.7403 122.4882
" />
<path d="M190.7403 122.4882
L190.9308 122.4882
" />
<path d="M190.9308 122.4882
L191.0260 122.5358
" />
<path d="M191.0260 122.5358
L191.0736 122.5834
" />
<path d="M191.0736 122.5834
L191.1212 122.6786
" />
<path d="M191.1212 122.6786
L191.1212 122.9643
" />
<path d="M191.1212 122.9643
L191.0736 123.0596
" />
<path d="M191.0736 123.0596
L191.0260 123.1072
" />
<path d="M191.0260 123.1072
L190.9308 123.1548
" />
<path d="M190.9308 123.1548
L190.7403 123.1548
" />
<path d="M190.7403 123.1548
L190.6451 123.1072
" />
<path d="M191.9784 123.1548
L191.9784 122.6310
" />
<path d="M191.9784 122.6310
L191.9308 122.5358
" />
<path d="M191.9308 122.5358
L191.8355 122.4882
" />
<path d="M191.8355 122.4882
L191.6451 122.4882
" />
<path d="M191.6451 122.4882
L191.5498 122.5358
" />
<path d="M191.9784 123.1072
L191.8832 123.1548
" />
<path d="M191.8832 123.1548
L191.6451 123.1548
" />
<path d="M191.6451 123.1548
L191.5498 123.1072
" />
<path d="M191.5498 123.1072
L191.5022 123.0120
" />
<path d="M191.5022 123.0120
L191.5022 122.9167
" />
<path d="M191.5022 122.9167
L191.5498 122.8215
" />
<path d="M191.5498 122.8215
L191.6451 122.7739
" />
<path d="M191.6451 122.7739
L191.8832 122.7739
" />
<path d="M191.8832 122.7739
L191.9784 122.7262
" />
<path d="M192.8832 123.1072
L192.7879 123.1548
" />
<path d="M192.7879 123.1548
L192.5974 123.1548
" />
<path d="M192.5974 123.1548
L192.5022 123.1072
" />
<path d="M192.5022 123.1072
L192.4546 123.0596
" />
<path d="M192.4546 123.0596
L192.4070 122.9643
" />
<path d="M192.4070 122.9643
L192.4070 122.6786
" />
<path d="M192.4070 122.6786
L192.4546 122.5834
" />
<path d="M192.4546 122.5834
L192.5022 122.5358
" />
<path d="M192.5022 122.5358
L192.5974 122.4882
" />
<path d="M192.5974 122.4882
L192.7879 122.4882
" />
<path d="M192.7879 122.4882
L192.8832 122.5358
" />
<path d="M193.6927 123.1072
L193.5974 123.1548
" />
<path d="M193.5974 123.1548
L193.4070 123.1548
" />
<path d="M193.4070 123.1548
L193.3117 123.1072
" />
<path d="M193.3117 123.1072
L193.2641 123.0120
" />
<path d="M193.2641 123.0120
L193.2641 122.6310
" />
<path d="M193.2641 122.6310
L193.3117 122.5358
" />
<path d="M193.3117 122.5358
L193.4070 122.4882
" />
<path d="M193.4070 122.4882
L193.5974 122.4882
" />
<path d="M193.5974 122.4882
L193.6927 122.5358
" />
<path d="M193.6927 122.5358
L193.7403 122.6310
" />
<path d="M193.7403 122.6310
L193.7403 122.7262
" />
<path d="M193.7403 122.7262
L193.2641 122.8215
" />
<path d="M194.1689 123.1548
L194.1689 122.4882
" />
<path d="M194.1689 122.6786
L194.2165 122.5834
" />
<path d="M194.2165 122.5834
L194.2641 122.5358
" />
<path d="M194.2641 122.5358
L194.3593 122.4882
" />
<path d="M194.3593 122.4882
L194.4546 122.4882
" />
</g><text x="192.0022" y="119.5000"
transform="scale(-1 1) translate(-384.004400 0)"
textLength="3.2024" font-size="1.3333" lengthAdjust="spacingAndGlyphs"
text-anchor="middle" opacity="0">H12</text>
<g class="stroked-text"><desc>H12</desc>
<path d="M190.7641 119.4548
L190.7641 118.4548
" />
<path d="M190.7641 118.9310
L191.3355 118.9310
" />
<path d="M191.3355 119.4548
L191.3355 118.4548
" />
<path d="M192.3355 119.4548
L191.7641 119.4548
" />
<path d="M192.0498 119.4548
L192.0498 118.4548
" />
<path d="M192.0498 118.4548
L191.9546 118.5977
" />
<path d="M191.9546 118.5977
L191.8593 118.6929
" />
<path d="M191.8593 118.6929
L191.7641 118.7405
" />
<path d="M192.7165 118.5501
L192.7641 118.5024
" />
<path d="M192.7641 118.5024
L192.8593 118.4548
" />
<path d="M192.8593 118.4548
L193.0974 118.4548
" />
<path d="M193.0974 118.4548
L193.1927 118.5024
" />
<path d="M193.1927 118.5024
L193.2403 118.5501
" />
<path d="M193.2403 118.5501
L193.2879 118.6453
" />
<path d="M193.2879 118.6453
L193.2879 118.7405
" />
<path d="M193.2879 118.7405
L193.2403 118.8834
" />
<path d="M193.2403 118.8834
L192.6689 119.4548
" />
<path d="M192.6689 119.4548
L193.2879 119.4548
" />
</g><text x="223.8622" y="19.5100"
transform="scale(-1 1) translate(-447.724400 0)"
textLength="7.2024" font-size="1.3333" lengthAdjust="spacingAndGlyphs"
text-anchor="middle" opacity="0">JST XH 3</text>
<g class="stroked-text"><desc>JST XH 3</desc>
<path d="M220.9098 18.4648
L220.9098 19.1791
" />
<path d="M220.9098 19.1791
L220.8622 19.3220
" />
<path d="M220.8622 19.3220
L220.7670 19.4172
" />
<path d="M220.7670 19.4172
L220.6241 19.4648
" />
<path d="M220.6241 19.4648
L220.5289 19.4648
" />
<path d="M221.3384 19.4172
L221.4812 19.4648
" />
<path d="M221.4812 19.4648
L221.7193 19.4648
" />
<path d="M221.7193 19.4648
L221.8146 19.4172
" />
<path d="M221.8146 19.4172
L221.8622 19.3696
" />
<path d="M221.8622 19.3696
L221.9098 19.2743
" />
<path d="M221.9098 19.2743
L221.9098 19.1791
" />
<path d="M221.9098 19.1791
L221.8622 19.0839
" />
<path d="M221.8622 19.0839
L221.8146 19.0362
" />
<path d="M221.8146 19.0362
L221.7193 18.9886
" />
<path d="M221.7193 18.9886
L221.5289 18.9410
" />
<path d="M221.5289 18.9410
L221.4336 18.8934
" />
<path d="M221.4336 18.8934
L221.3860 18.8458
" />
<path d="M221.3860 18.8458
L221.3384 18.7505
" />
<path d="M221.3384 18.7505
L221.3384 18.6553
" />
<path d="M221.3384 18.6553
L221.3860 18.5601
" />
<path d="M221.3860 18.5601
L221.4336 18.5124
" />
<path d="M221.4336 18.5124
L221.5289 18.4648
" />
<path d="M221.5289 18.4648
L221.7670 18.4648
" />
<path d="M221.7670 18.4648
L221.9098 18.5124
" />
<path d="M222.1955 18.4648
L222.7670 18.4648
" />
<path d="M222.4812 19.4648
L222.4812 18.4648
" />
<path d="M223.7670 18.4648
L224.4336 19.4648
" />
<path d="M224.4336 18.4648
L223.7670 19.4648
" />
<path d="M224.8146 19.4648
L224.8146 18.4648
" />
<path d="M224.8146 18.9410
L225.3860 18.9410
" />
<path d="M225.3860 19.4648
L225.3860 18.4648
" />
<path d="M226.5289 18.4648
L227.1479 18.4648
" />
<path d="M227.1479 18.4648
L226.8146 18.8458
" />
<path d="M226.8146 18.8458
L226.9574 18.8458
" />
<path d="M226.9574 18.8458
L227.0527 18.8934
" />
<path d="M227.0527 18.8934
L227.1003 18.9410
" />
<path d="M227.1003 18.9410
L227.1479 19.0362
" />
<path d="M227.1479 19.0362
L227.1479 19.2743
" />
<path d="M227.1479 19.2743
L227.1003 19.3696
" />
<path d="M227.1003 19.3696
L227.0527 19.4172
" />
<path d="M227.0527 19.4172
L226.9574 19.4648
" />
<path d="M226.9574 19.4648
L226.6717 19.4648
" />
<path d="M226.6717 19.4648
L226.5765 19.4172
" />
<path d="M226.5765 19.4172
L226.5289 19.3696
" />
</g><text x="223.8622" y="21.4100"
transform="scale(-1 1) translate(-447.724400 0)"
textLength="2.9167" font-size="1.3333" lengthAdjust="spacingAndGlyphs"
text-anchor="middle" opacity="0">J23</text>
<g class="stroked-text"><desc>J23</desc>
<path d="M223.0527 20.3648
L223.0527 21.0791
" />
<path d="M223.0527 21.0791
L223.0051 21.2220
" />
<path d="M223.0051 21.2220
L222.9098 21.3172
" />
<path d="M222.9098 21.3172
L222.7670 21.3648
" />
<path d="M222.7670 21.3648
L222.6717 21.3648
" />
<path d="M223.4812 20.4601
L223.5289 20.4124
" />
<path d="M223.5289 20.4124
L223.6241 20.3648
" />
<path d="M223.6241 20.3648
L223.8622 20.3648
" />
<path d="M223.8622 20.3648
L223.9574 20.4124
" />
<path d="M223.9574 20.4124
L224.0051 20.4601
" />
<path d="M224.0051 20.4601
L224.0527 20.5553
" />
<path d="M224.0527 20.5553
L224.0527 20.6505
" />
<path d="M224.0527 20.6505
L224.0051 20.7934
" />
<path d="M224.0051 20.7934
L223.4336 21.3648
" />
<path d="M223.4336 21.3648
L224.0527 21.3648
" />
<path d="M224.3860 20.3648
L225.0051 20.3648
" />
<path d="M225.0051 20.3648
L224.6717 20.7458
" />
<path d="M224.6717 20.7458
L224.8146 20.7458
" />
<path d="M224.8146 20.7458
L224.9098 20.7934
" />
<path d="M224.9098 20.7934
L224.9574 20.8410
" />
<path d="M224.9574 20.8410
L225.0051 20.9362
" />
<path d="M225.0051 20.9362
L225.0051 21.1743
" />
<path d="M225.0051 21.1743
L224.9574 21.2696
" />
<path d="M224.9574 21.2696
L224.9098 21.3172
" />
<path d="M224.9098 21.3172
L224.8146 21.3648
" />
<path d="M224.8146 21.3648
L224.5289 21.3648
" />
<path d="M224.5289 21.3648
L224.4336 21.3172
" />
<path d="M224.4336 21.3172
L224.3860 21.2696
" />
</g><text x="256.6022" y="132.2000"
transform="scale(-1 1) translate(-513.204400 0)"
textLength="7.2024" font-size="1.3333" lengthAdjust="spacingAndGlyphs"
text-anchor="middle" opacity="0">JST XH 3</text>
<g class="stroked-text"><desc>JST XH 3</desc>
<path d="M253.6498 131.1548
L253.6498 131.8691
" />
<path d="M253.6498 131.8691
L253.6022 132.0120
" />
<path d="M253.6022 132.0120
L253.5070 132.1072
" />
<path d="M253.5070 132.1072
L253.3641 132.1548
" />
<path d="M253.3641 132.1548
L253.2689 132.1548
" />
<path d="M254.0784 132.1072
L254.2212 132.1548
" />
<path d="M254.2212 132.1548
L254.4593 132.1548
" />
<path d="M254.4593 132.1548
L254.5546 132.1072
" />
<path d="M254.5546 132.1072
L254.6022 132.0596
" />
<path d="M254.6022 132.0596
L254.6498 131.9643
" />
<path d="M254.6498 131.9643
L254.6498 131.8691
" />
<path d="M254.6498 131.8691
L254.6022 131.7739
" />
<path d="M254.6022 131.7739
L254.5546 131.7262
" />
<path d="M254.5546 131.7262
L254.4593 131.6786
" />
<path d="M254.4593 131.6786
L254.2689 131.6310
" />
<path d="M254.2689 131.6310
L254.1736 131.5834
" />
<path d="M254.1736 131.5834
L254.1260 131.5358
" />
<path d="M254.1260 131.5358
L254.0784 131.4405
" />
<path d="M254.0784 131.4405
L254.0784 131.3453
" />
<path d="M254.0784 131.3453
L254.1260 131.2501
" />
<path d="M254.1260 131.2501
L254.1736 131.2024
" />
<path d="M254.1736 131.2024
L254.2689 131.1548
" />
<path d="M254.2689 131.1548
L254.5070 131.1548
" />
<path d="M254.5070 131.1548
L254.6498 131.2024
" />
<path d="M254.9355 131.1548
L255.5070 131.1548
" />
<path d="M255.2212 132.1548
L255.2212 131.1548
" />
<path d="M256.5070 131.1548
L257.1736 132.1548
" />
<path d="M257.1736 131.1548
L256.5070 132.1548
" />
<path d="M257.5546 132.1548
L257.5546 131.1548
" />
<path d="M257.5546 131.6310
L258.1260 131.6310
" />
<path d="M258.1260 132.1548
L258.1260 131.1548
" />
<path d="M259.2689 131.1548
L259.8879 131.1548
" />
<path d="M259.8879 131.1548
L259.5546 131.5358
" />
<path d="M259.5546 131.5358
L259.6974 131.5358
" />
<path d="M259.6974 131.5358
L259.7927 131.5834
" />
<path d="M259.7927 131.5834
L259.8403 131.6310
" />
<path d="M259.8403 131.6310
L259.8879 131.7262
" />
<path d="M259.8879 131.7262
L259.8879 131.9643
" />
<path d="M259.8879 131.9643
L259.8403 132.0596
" />
<path d="M259.8403 132.0596
L259.7927 132.1072
" />
<path d="M259.7927 132.1072
L259.6974 132.1548
" />
<path d="M259.6974 132.1548
L259.4117 132.1548
" />
<path d="M259.4117 132.1548
L259.3165 132.1072
" />
<path d="M259.3165 132.1072
L259.2689 132.0596
" />
</g><text x="256.6022" y="130.3000"
transform="scale(-1 1) translate(-513.204400 0)"
textLength="2.9167" font-size="1.3333" lengthAdjust="spacingAndGlyphs"
text-anchor="middle" opacity="0">J26</text>
<g class="stroked-text"><desc>J26</desc>
<path d="M255.7927 129.2548
L255.7927 129.9691
" />
<path d="M255.7927 129.9691
L255.7451 130.1120
" />
<path d="M255.7451 130.1120
L255.6498 130.2072
" />
<path d="M255.6498 130.2072
L255.5070 130.2548
" />
<path d="M255.5070 130.2548
L255.4117 130.2548
" />
<path d="M256.2212 129.3501
L256.2689 129.3024
" />
<path d="M256.2689 129.3024
L256.3641 129.2548
" />
<path d="M256.3641 129.2548
L256.6022 129.2548
" />
<path d="M256.6022 129.2548
L256.6974 129.3024
" />
<path d="M256.6974 129.3024
L256.7451 129.3501
" />
<path d="M256.7451 129.3501
L256.7927 129.4453
" />
<path d="M256.7927 129.4453
L256.7927 129.5405
" />
<path d="M256.7927 129.5405
L256.7451 129.6834
" />
<path d="M256.7451 129.6834
L256.1736 130.2548
" />
<path d="M256.1736 130.2548
L256.7927 130.2548
" />
<path d="M257.6498 129.2548
L257.4593 129.2548
" />
<path d="M257.4593 129.2548
L257.3641 129.3024
" />
<path d="M257.3641 129.3024
L257.3165 129.3501
" />
<path d="M257.3165 129.3501
L257.2212 129.4929
" />
<path d="M257.2212 129.4929
L257.1736 129.6834
" />
<path d="M257.1736 129.6834
L257.1736 130.0643
" />
<path d="M257.1736 130.0643
L257.2212 130.1596
" />
<path d="M257.2212 130.1596
L257.2689 130.2072
" />
<path d="M257.2689 130.2072
L257.3641 130.2548
" />
<path d="M257.3641 130.2548
L257.5546 130.2548
" />
<path d="M257.5546 130.2548
L257.6498 130.2072
" />
<path d="M257.6498 130.2072
L257.6974 130.1596
" />
<path d="M257.6974 130.1596
L257.7451 130.0643
" />
<path d="M257.7451 130.0643
L257.7451 129.8262
" />
<path d="M257.7451 129.8262
L257.6974 129.7310
" />
<path d="M257.6974 129.7310
L257.6498 129.6834
" />
<path d="M257.6498 129.6834
L257.5546 129.6358
" />
<path d="M257.5546 129.6358
L257.3641 129.6358
" />
<path d="M257.3641 129.6358
L257.2689 129.6834
" />
<path d="M257.2689 129.6834
L257.2212 129.7310
" />
<path d="M257.2212 129.7310
L257.1736 129.8262
" />
</g><text x="117.0022" y="123.2000"
transform="scale(-1 1) translate(-234.004400 0)"
textLength="5.3452" font-size="1.3333" lengthAdjust="spacingAndGlyphs"
text-anchor="middle" opacity="0">Spacer</text>
<g class="stroked-text"><desc>Spacer</desc>
<path d="M114.6451 123.1072
L114.7879 123.1548
" />
<path d="M114.7879 123.1548
L115.0260 123.1548
" />
<path d="M115.0260 123.1548
L115.1212 123.1072
" />
<path d="M115.1212 123.1072
L115.1689 123.0596
" />
<path d="M115.1689 123.0596
L115.2165 122.9643
" />
<path d="M115.2165 122.9643
L115.2165 122.8691
" />
<path d="M115.2165 122.8691
L115.1689 122.7739
" />
<path d="M115.1689 122.7739
L115.1212 122.7262
" />
<path d="M115.1212 122.7262
L115.0260 122.6786
" />
<path d="M115.0260 122.6786
L114.8355 122.6310
" />
<path d="M114.8355 122.6310
L114.7403 122.5834
" />
<path d="M114.7403 122.5834
L114.6927 122.5358
" />
<path d="M114.6927 122.5358
L114.6451 122.4405
" />
<path d="M114.6451 122.4405
L114.6451 122.3453
" />
<path d="M114.6451 122.3453
L114.6927 122.2501
" />
<path d="M114.6927 122.2501
L114.7403 122.2024
" />
<path d="M114.7403 122.2024
L114.8355 122.1548
" />
<path d="M114.8355 122.1548
L115.0736 122.1548
" />
<path d="M115.0736 122.1548
L115.2165 122.2024
" />
<path d="M115.6451 122.4882
L115.6451 123.4882
" />
<path d="M115.6451 122.5358
L115.7403 122.4882
" />
<path d="M115.7403 122.4882
L115.9308 122.4882
" />
<path d="M115.9308 122.4882
L116.0260 122.5358
" />
<path d="M116.0260 122.5358
L116.0736 122.5834
" />
<path d="M116.0736 122.5834
L116.1212 122.6786
" />
<path d="M116.1212 122.6786
L116.1212 122.9643
" />
<path d="M116.1212 122.9643
L116.0736 123.0596
" />
<path d="M116.0736 123.0596
L116.0260 123.1072
" />
<path d="M116.0260 123.1072
L115.9308 123.1548
" />
<path d="M115.9308 123.1548
L115.7403 123.1548
" />
<path d="M115.7403 123.1548
L115.6451 123.1072
" />
<path d="M116.9784 123.1548
L116.9784 122.6310
" />
<path d="M116.9784 122.6310
L116.9308 122.5358
" />
<path d="M116.9308 122.5358
L116.8355 122.4882
" />
<path d="M116.8355 122.4882
L116.6451 122.4882
" />
<path d="M116.6451 122.4882
L116.5498 122.5358
" />
<path d="M116.9784 123.1072
L116.8832 123.1548
" />
<path d="M116.8832 123.1548
L116.6451 123.1548
" />
<path d="M116.6451 123.1548
L116.5498 123.1072
" />
<path d="M116.5498 123.1072
L116.5022 123.0120
" />
<path d="M116.5022 123.0120
L116.5022 122.9167
" />
<path d="M116.5022 122.9167
L116.5498 122.8215
" />
<path d="M116.5498 122.8215
L116.6451 122.7739
" />
<path d="M116.6451 122.7739
L116.8832 122.7739
" />
<path d="M116.8832 122.7739
L116.9784 122.7262
" />
<path d="M117.8832 123.1072
L117.7879 123.1548
" />
<path d="M117.7879 123.1548
L117.5974 123.1548
" />
<path d="M117.5974 123.1548
L117.5022 123.1072
" />
<path d="M117.5022 123.1072
L117.4546 123.0596
" />
<path d="M117.4546 123.0596
L117.4070 122.9643
" />
<path d="M117.4070 122.9643
L117.4070 122.6786
" />
<path d="M117.4070 122.6786
L117.4546 122.5834
" />
<path d="M117.4546 122.5834
L117.5022 122.5358
" />
<path d="M117.5022 122.5358
L117.5974 122.4882
" />
<path d="M117.5974 122.4882
L117.7879 122.4882
" />
<path d="M117.7879 122.4882
L117.8832 122.5358
" />
<path d="M118.6927 123.1072
L118.5974 123.1548
" />
<path d="M118.5974 123.1548
L118.4070 123.1548
" />
<path d="M118.4070 123.1548
L118.3117 123.1072
" />
<path d="M118.3117 123.1072
L118.2641 123.0120
" />
<path d="M118.2641 123.0120
L118.2641 122.6310
" />
<path d="M118.2641 122.6310
L118.3117 122.5358
" />
<path d="M118.3117 122.5358
L118.4070 122.4882
" />
<path d="M118.4070 122.4882
L118.5974 122.4882
" />
<path d="M118.5974 122.4882
L118.6927 122.5358
" />
<path d="M118.6927 122.5358
L118.7403 122.6310
" />
<path d="M118.7403 122.6310
L118.7403 122.7262
" />
<path d="M118.7403 122.7262
L118.2641 122.8215
" />
<path d="M119.1689 123.1548
L119.1689 122.4882
" />
<path d="M119.1689 122.6786
L119.2165 122.5834
" />
<path d="M119.2165 122.5834
L119.2641 122.5358
" />
<path d="M119.2641 122.5358
L119.3593 122.4882
" />
<path d="M119.3593 122.4882
L119.4546 122.4882
" />
</g><text x="117.0022" y="119.5000"
transform="scale(-1 1) translate(-234.004400 0)"
textLength="3.2024" font-size="1.3333" lengthAdjust="spacingAndGlyphs"
text-anchor="middle" opacity="0">H11</text>
<g class="stroked-text"><desc>H11</desc>
<path d="M115.7641 119.4548
L115.7641 118.4548
" />
<path d="M115.7641 118.9310
L116.3355 118.9310
" />
<path d="M116.3355 119.4548
L116.3355 118.4548
" />
<path d="M117.3355 119.4548
L116.7641 119.4548
" />
<path d="M117.0498 119.4548
L117.0498 118.4548
" />
<path d="M117.0498 118.4548
L116.9546 118.5977
" />
<path d="M116.9546 118.5977
L116.8593 118.6929
" />
<path d="M116.8593 118.6929
L116.7641 118.7405
" />
<path d="M118.2879 119.4548
L117.7165 119.4548
" />
<path d="M118.0022 119.4548
L118.0022 118.4548
" />
<path d="M118.0022 118.4548
L117.9070 118.5977
" />
<path d="M117.9070 118.5977
L117.8117 118.6929
" />
<path d="M117.8117 118.6929
L117.7165 118.7405
" />
</g><g transform="rotate(-90.000000 173.3022 93.7756)">
<text x="173.3022" y="94.2756"
transform="scale(-1 1) translate(-346.604400 0)"
textLength="7.7262" font-size="1.3333" lengthAdjust="spacingAndGlyphs"
text-anchor="middle" opacity="0">HiFi Berry</text>
</g>
<g class="stroked-text"><desc>HiFi Berry</desc>
<path d="M172.8474 90.2756
L173.8474 90.2756
" />
<path d="M173.3712 90.2756
L173.3712 90.8470
" />
<path d="M172.8474 90.8470
L173.8474 90.8470
" />
<path d="M172.8474 91.3232
L173.5140 91.3232
" />
<path d="M173.8474 91.3232
L173.7998 91.2756
" />
<path d="M173.7998 91.2756
L173.7521 91.3232
" />
<path d="M173.7521 91.3232
L173.7998 91.3708
" />
<path d="M173.7998 91.3708
L173.8474 91.3232
" />
<path d="M173.8474 91.3232
L173.7521 91.3232
" />
<path d="M173.3712 92.1327
L173.3712 91.7994
" />
<path d="M172.8474 91.7994
L173.8474 91.7994
" />
<path d="M173.8474 91.7994
L173.8474 92.2756
" />
<path d="M172.8474 92.6566
L173.5140 92.6566
" />
<path d="M173.8474 92.6566
L173.7998 92.6089
" />
<path d="M173.7998 92.6089
L173.7521 92.6566
" />
<path d="M173.7521 92.6566
L173.7998 92.7042
" />
<path d="M173.7998 92.7042
L173.8474 92.6566
" />
<path d="M173.8474 92.6566
L173.7521 92.6566
" />
<path d="M173.3712 94.2280
L173.3236 94.3708
" />
<path d="M173.3236 94.3708
L173.2760 94.4185
" />
<path d="M173.2760 94.4185
L173.1807 94.4661
" />
<path d="M173.1807 94.4661
L173.0379 94.4661
" />
<path d="M173.0379 94.4661
L172.9426 94.4185
" />
<path d="M172.9426 94.4185
L172.8950 94.3708
" />
<path d="M172.8950 94.3708
L172.8474 94.2756
" />
<path d="M172.8474 94.2756
L172.8474 93.8946
" />
<path d="M172.8474 93.8946
L173.8474 93.8946
" />
<path d="M173.8474 93.8946
L173.8474 94.2280
" />
<path d="M173.8474 94.2280
L173.7998 94.3232
" />
<path d="M173.7998 94.3232
L173.7521 94.3708
" />
<path d="M173.7521 94.3708
L173.6569 94.4185
" />
<path d="M173.6569 94.4185
L173.5617 94.4185
" />
<path d="M173.5617 94.4185
L173.4664 94.3708
" />
<path d="M173.4664 94.3708
L173.4188 94.3232
" />
<path d="M173.4188 94.3232
L173.3712 94.2280
" />
<path d="M173.3712 94.2280
L173.3712 93.8946
" />
<path d="M172.8950 95.2756
L172.8474 95.1804
" />
<path d="M172.8474 95.1804
L172.8474 94.9899
" />
<path d="M172.8474 94.9899
L172.8950 94.8946
" />
<path d="M172.8950 94.8946
L172.9902 94.8470
" />
<path d="M172.9902 94.8470
L173.3712 94.8470
" />
<path d="M173.3712 94.8470
L173.4664 94.8946
" />
<path d="M173.4664 94.8946
L173.5140 94.9899
" />
<path d="M173.5140 94.9899
L173.5140 95.1804
" />
<path d="M173.5140 95.1804
L173.4664 95.2756
" />
<path d="M173.4664 95.2756
L173.3712 95.3232
" />
<path d="M173.3712 95.3232
L173.2760 95.3232
" />
<path d="M173.2760 95.3232
L173.1807 94.8470
" />
<path d="M172.8474 95.7518
L173.5140 95.7518
" />
<path d="M173.3236 95.7518
L173.4188 95.7994
" />
<path d="M173.4188 95.7994
L173.4664 95.8470
" />
<path d="M173.4664 95.8470
L173.5140 95.9423
" />
<path d="M173.5140 95.9423
L173.5140 96.0375
" />
<path d="M172.8474 96.3708
L173.5140 96.3708
" />
<path d="M173.3236 96.3708
L173.4188 96.4185
" />
<path d="M173.4188 96.4185
L173.4664 96.4661
" />
<path d="M173.4664 96.4661
L173.5140 96.5613
" />
<path d="M173.5140 96.5613
L173.5140 96.6566
" />
<path d="M173.5140 96.8946
L172.8474 97.1327
" />
<path d="M173.5140 97.3708
L172.8474 97.1327
" />
<path d="M172.8474 97.1327
L172.6093 97.0375
" />
<path d="M172.6093 97.0375
L172.5617 96.9899
" />
<path d="M172.5617 96.9899
L172.5140 96.8946
" />
</g><text x="234.7622" y="19.5050"
transform="scale(-1 1) translate(-469.524400 0)"
textLength="7.2024" font-size="1.3333" lengthAdjust="spacingAndGlyphs"
text-anchor="middle" opacity="0">JST XH 3</text>
<g class="stroked-text"><desc>JST XH 3</desc>
<path d="M231.8098 18.4598
L231.8098 19.1741
" />
<path d="M231.8098 19.1741
L231.7622 19.3170
" />
<path d="M231.7622 19.3170
L231.6670 19.4122
" />
<path d="M231.6670 19.4122
L231.5241 19.4598
" />
<path d="M231.5241 19.4598
L231.4289 19.4598
" />
<path d="M232.2384 19.4122
L232.3812 19.4598
" />
<path d="M232.3812 19.4598
L232.6193 19.4598
" />
<path d="M232.6193 19.4598
L232.7146 19.4122
" />
<path d="M232.7146 19.4122
L232.7622 19.3646
" />
<path d="M232.7622 19.3646
L232.8098 19.2693
" />
<path d="M232.8098 19.2693
L232.8098 19.1741
" />
<path d="M232.8098 19.1741
L232.7622 19.0789
" />
<path d="M232.7622 19.0789
L232.7146 19.0312
" />
<path d="M232.7146 19.0312
L232.6193 18.9836
" />
<path d="M232.6193 18.9836
L232.4289 18.9360
" />
<path d="M232.4289 18.9360
L232.3336 18.8884
" />
<path d="M232.3336 18.8884
L232.2860 18.8408
" />
<path d="M232.2860 18.8408
L232.2384 18.7455
" />
<path d="M232.2384 18.7455
L232.2384 18.6503
" />
<path d="M232.2384 18.6503
L232.2860 18.5551
" />
<path d="M232.2860 18.5551
L232.3336 18.5074
" />
<path d="M232.3336 18.5074
L232.4289 18.4598
" />
<path d="M232.4289 18.4598
L232.6670 18.4598
" />
<path d="M232.6670 18.4598
L232.8098 18.5074
" />
<path d="M233.0955 18.4598
L233.6670 18.4598
" />
<path d="M233.3812 19.4598
L233.3812 18.4598
" />
<path d="M234.6670 18.4598
L235.3336 19.4598
" />
<path d="M235.3336 18.4598
L234.6670 19.4598
" />
<path d="M235.7146 19.4598
L235.7146 18.4598
" />
<path d="M235.7146 18.9360
L236.2860 18.9360
" />
<path d="M236.2860 19.4598
L236.2860 18.4598
" />
<path d="M237.4289 18.4598
L238.0479 18.4598
" />
<path d="M238.0479 18.4598
L237.7146 18.8408
" />
<path d="M237.7146 18.8408
L237.8574 18.8408
" />
<path d="M237.8574 18.8408
L237.9527 18.8884
" />
<path d="M237.9527 18.8884
L238.0003 18.9360
" />
<path d="M238.0003 18.9360
L238.0479 19.0312
" />
<path d="M238.0479 19.0312
L238.0479 19.2693
" />
<path d="M238.0479 19.2693
L238.0003 19.3646
" />
<path d="M238.0003 19.3646
L237.9527 19.4122
" />
<path d="M237.9527 19.4122
L237.8574 19.4598
" />
<path d="M237.8574 19.4598
L237.5717 19.4598
" />
<path d="M237.5717 19.4598
L237.4765 19.4122
" />
<path d="M237.4765 19.4122
L237.4289 19.3646
" />
</g><text x="234.7622" y="21.4050"
transform="scale(-1 1) translate(-469.524400 0)"
textLength="2.9167" font-size="1.3333" lengthAdjust="spacingAndGlyphs"
text-anchor="middle" opacity="0">J24</text>
<g class="stroked-text"><desc>J24</desc>
<path d="M233.9527 20.3598
L233.9527 21.0741
" />
<path d="M233.9527 21.0741
L233.9051 21.2170
" />
<path d="M233.9051 21.2170
L233.8098 21.3122
" />
<path d="M233.8098 21.3122
L233.6670 21.3598
" />
<path d="M233.6670 21.3598
L233.5717 21.3598
" />
<path d="M234.3812 20.4551
L234.4289 20.4074
" />
<path d="M234.4289 20.4074
L234.5241 20.3598
" />
<path d="M234.5241 20.3598
L234.7622 20.3598
" />
<path d="M234.7622 20.3598
L234.8574 20.4074
" />
<path d="M234.8574 20.4074
L234.9051 20.4551
" />
<path d="M234.9051 20.4551
L234.9527 20.5503
" />
<path d="M234.9527 20.5503
L234.9527 20.6455
" />
<path d="M234.9527 20.6455
L234.9051 20.7884
" />
<path d="M234.9051 20.7884
L234.3336 21.3598
" />
<path d="M234.3336 21.3598
L234.9527 21.3598
" />
<path d="M235.8098 20.6932
L235.8098 21.3598
" />
<path d="M235.5717 20.3122
L235.3336 21.0265
" />
<path d="M235.3336 21.0265
L235.9527 21.0265
" />
</g></g>
<g style="fill:#000000; fill-opacity:0.0; 
stroke:#000000; stroke-width:0.1000; stroke-opacity:1; 
stroke-linecap:round; stroke-linejoin:round;">
<path d="M228.8122 20.2100
L218.9122 20.2100
" />
<path d="M228.8122 25.9600
L228.8122 20.2100
" />
<path d="M226.9872 25.9600
L226.3622 24.9600
" />
<path d="M226.3622 24.9600
L225.7372 25.9600
" />
<path d="M218.9122 20.2100
L218.9122 25.9600
" />
<path d="M218.9122 25.9600
L228.8122 25.9600
" />
<path d="M251.6522 130.5000
L261.5522 130.5000
" />
<path d="M251.6522 124.7500
L251.6522 130.5000
" />
<path d="M253.4772 124.7500
L254.1022 125.7500
" />
<path d="M254.1022 125.7500
L254.7272 124.7500
" />
<path d="M261.5522 130.5000
L261.5522 124.7500
" />
<path d="M261.5522 124.7500
L251.6522 124.7500
" />
<path d="M138.2722 122.9606
L145.8922 122.9606
" />
<path d="M138.2722 117.8806
L138.2722 122.9606
" />
<path d="M139.1772 81.1956
L144.2572 81.1956
" />
<path d="M139.1772 74.5756
L139.1772 81.1956
" />
<path d="M140.1772 73.5756
L139.1772 74.5756
" />
<path d="M144.2572 81.1956
L144.2572 73.5756
" />
<path d="M144.2572 73.5756
L140.1772 73.5756
" />
<path d="M144.8922 117.8806
L138.2722 117.8806
" />
<path d="M145.8922 122.9606
L145.8922 118.8806
" />
<path d="M145.8922 118.8806
L144.8922 117.8806
" />
<path d="M175.4822 117.9056
L180.5622 117.9056
" />
<path d="M175.4822 68.1056
L175.4822 117.9056
" />
<path d="M176.4822 67.1056
L175.4822 68.1056
" />
<path d="M180.5622 117.9056
L180.5622 67.1056
" />
<path d="M180.5622 67.1056
L176.4822 67.1056
" />
<path d="M239.7122 20.2050
L229.8122 20.2050
" />
<path d="M239.7122 25.9550
L239.7122 20.2050
" />
<path d="M237.8872 25.9550
L237.2622 24.9550
" />
<path d="M237.2622 24.9550
L236.6372 25.9550
" />
<path d="M229.8122 20.2050
L229.8122 25.9550
" />
<path d="M229.8122 25.9550
L239.7122 25.9550
" />
<g >
</g>
<g >
</g>
<g >
</g>
<g >
</g>
<g >
</g>
<g >
</g>
<g >
</g>
<g >
</g>
<g >
</g>
<g >
</g>
<g >
</g>
<g >
</g>
<g >
</g>
<g >
</g>
<g >
</g>
<g >
</g>
<g >
</g>
<g >
</g>
<g >
</g>
<g >
</g>
<g >
</g>
<g >
</g>
<g >
</g>
<g >
</g>
<g >
</g>
<g >
</g>
<g >
</g>
<g >
</g>
<g >
</g>
<g >
</g>
<g >
</g>
<g >
</g>
<g >
</g>
<g >
</g>
<g >
</g>
<g >
</g>
<g >
</g>
<g >
</g>
<g >
</g>
<g >
</g>
<g >
</g>
<g >
</g>
<g >
</g>
<g >
</g>
<g >
</g>
<g >
</g>
<g >
</g>
<g >
</g>
<g >
</g>
<g >
</g>
<g >
</g>
<g >
</g>
<g >
</g>
<g >
</g>
<g >
</g>
<g >
</g>
<g >
</g>
<g >
</g>
<g >
</g>
<g >
</g>
<g >
</g>
<g >
</g>
<g >
</g>
<g >
</g>
<g >
</g>
<g >
</g>
<g >
</g>
<g >
</g>
<g >
</g>
<g >
</g>
<g >
</g>
<g >
</g>
<g >
</g>
<g >
</g>
<g >
</g>
<g >
</g>
<g >
</g>
<g >
</g>
<g >
</g>
<g >
</g>
<g >
</g>
<g >
</g>
<g >
</g>
<g >
</g>
<g >
</g>
<g >
</g>
<g >
</g>
<g >
</g>
<g >
</g>
<g >
</g>
<g >
</g>
<g >
</g>
<g >
</g>
<g >
</g>
<g >
</g>
<g >
</g>
<g >
</g>
<g >
</g>
<g >
</g>
<g >
</g>
<g >
</g>
<g >
</g>
<g >
</g>
<g >
</g>
<g >
</g>
<g >
</g>
<g >
</g>
<g >
</g>
<g >
</g>
<g >
</g>
<g >
</g>
<g >
</g>
<g >
</g>
<g >
</g>
<g >
</g>
<g >
</g>
<g >
</g>
<g >
</g>
<g >
</g>
<g >
</g>
<g >
</g>
<g >
</g>
<g >
</g>
<g >
</g>
<g >
</g>
<g >
</g>
<g >
</g>
<g >
</g>
<g >
</g>
<g >
</g>
<g >
</g>
<g >
</g>
<g >
</g>
<g >
</g>
<g >
</g>
<g >
</g>
<g >
</g>
<g >
</g>
<g >
</g>
<g >
</g>
<g >
</g>
</g> 
</svg>
