G04 #@! TF.GenerationSoftware,KiCad,Pcbnew,7.0.5.1-1-g8f565ef7f0-dirty-deb11*
G04 #@! TF.CreationDate,2023-06-05T17:23:33+00:00*
G04 #@! TF.ProjectId,pedalboard-hw,70656461-6c62-46f6-9172-642d68772e6b,2.0.0*
G04 #@! TF.SameCoordinates,Original*
G04 #@! TF.FileFunction,Profile,NP*
%FSLAX46Y46*%
G04 Gerber Fmt 4.6, Leading zero omitted, Abs format (unit mm)*
G04 Created by KiCad (PCBNEW 7.0.5.1-1-g8f565ef7f0-dirty-deb11) date 2023-06-05 17:23:33*
%MOMM*%
%LPD*%
G01*
G04 APERTURE LIST*
G04 #@! TA.AperFunction,Profile*
%ADD10C,0.100000*%
G04 #@! TD*
G04 APERTURE END LIST*
D10*
X118200000Y-20000000D02*
X189000000Y-20000000D01*
X20000000Y-124000000D02*
X20000000Y-61000000D01*
X21000000Y-125000000D02*
X189000000Y-125000000D01*
X74000000Y-21000000D02*
X74000000Y-25000000D01*
X75000000Y-20000000D02*
G75*
G03*
X74000000Y-21000000I0J-1000000D01*
G01*
X113800000Y-21000000D02*
G75*
G03*
X114200000Y-21400000I400000J0D01*
G01*
X20000000Y-124000000D02*
G75*
G03*
X21000000Y-125000000I1000000J0D01*
G01*
X91800000Y-21000000D02*
G75*
G03*
X92200000Y-21400000I400000J0D01*
G01*
X114200000Y-21400000D02*
X117800000Y-21400000D01*
X58000000Y-59000000D02*
X58000000Y-27000000D01*
X21000000Y-60000000D02*
X57000000Y-60000000D01*
X59000000Y-26000000D02*
G75*
G03*
X58000000Y-27000000I0J-1000000D01*
G01*
X190000000Y-21000000D02*
X190000000Y-124000000D01*
X113800000Y-20000000D02*
X113800000Y-21000000D01*
X96200000Y-21000000D02*
X96200000Y-20000000D01*
X96200000Y-20000000D02*
X113800000Y-20000000D01*
X190000000Y-21000000D02*
G75*
G03*
X189000000Y-20000000I-1000000J0D01*
G01*
X95800000Y-21400000D02*
G75*
G03*
X96200000Y-21000000I0J400000D01*
G01*
X73000000Y-26000000D02*
X59000000Y-26000000D01*
X91800000Y-20000000D02*
X91800000Y-21000000D01*
X21000000Y-60000000D02*
G75*
G03*
X20000000Y-61000000I0J-1000000D01*
G01*
X73000000Y-26000000D02*
G75*
G03*
X74000000Y-25000000I0J1000000D01*
G01*
X92200000Y-21400000D02*
X95800000Y-21400000D01*
X57000000Y-60000000D02*
G75*
G03*
X58000000Y-59000000I0J1000000D01*
G01*
X91800000Y-20000000D02*
X75000000Y-20000000D01*
X189000000Y-125000000D02*
G75*
G03*
X190000000Y-124000000I0J1000000D01*
G01*
X117799998Y-21400000D02*
G75*
G03*
X118200000Y-21000000I2J400000D01*
G01*
X118200000Y-21000000D02*
X118200000Y-20000000D01*
M02*
