M48
; DRILL file {KiCad 7.0.1.1-36-gbcf78dbe24-dirty-deb11} date Tue Mar 28 14:10:29 2023
; FORMAT={-:-/ absolute / metric / decimal}
; #@! TF.CreationDate,2023-03-28T14:10:29+00:00
; #@! TF.GenerationSoftware,Kicad,Pcbnew,7.0.1.1-36-gbcf78dbe24-dirty-deb11
; #@! TF.FileFunction,Plated,1,2,PTH
FMAT,2
METRIC
; #@! TA.AperFunction,Plated,PTH,ViaDrill
T1C0.400
; #@! TA.AperFunction,Plated,PTH,ComponentDrill
T2C0.400
; #@! TA.AperFunction,Plated,PTH,ComponentDrill
T3C0.508
; #@! TA.AperFunction,Plated,PTH,ComponentDrill
T4C0.800
; #@! TA.AperFunction,Plated,PTH,ComponentDrill
T5C0.900
; #@! TA.AperFunction,Plated,PTH,ComponentDrill
T6C1.000
; #@! TA.AperFunction,Plated,PTH,ComponentDrill
T7C1.020
; #@! TA.AperFunction,Plated,PTH,ComponentDrill
T8C1.200
; #@! TA.AperFunction,Plated,PTH,ComponentDrill
T9C1.300
; #@! TA.AperFunction,Plated,PTH,ComponentDrill
T10C1.321
; #@! TA.AperFunction,Plated,PTH,ComponentDrill
T11C1.400
; #@! TA.AperFunction,Plated,PTH,ComponentDrill
T12C1.500
; #@! TA.AperFunction,Plated,PTH,ComponentDrill
T13C2.600
%
G90
G05
T1
X96.5Y-49.95
X123.65Y-52.324
X169.469Y-66.294
X169.977Y-103.784
X178.8Y-93.8
T3
X127.0Y-48.0
X127.0Y-50.0
T4
X44.155Y-99.2
X44.155Y-101.7
X44.355Y-72.2
X44.355Y-74.7
X47.695Y-63.05
X47.695Y-66.05
X57.855Y-63.05
X57.855Y-66.05
X59.5Y-40.445
X59.5Y-50.605
X61.855Y-60.72
X61.855Y-63.26
X61.855Y-65.8
X63.475Y-43.7
X65.975Y-43.7
X68.12Y-68.98
X68.75Y-43.675
X69.475Y-60.72
X69.475Y-63.26
X69.475Y-65.8
X71.25Y-43.675
X73.7Y-58.155
X73.7Y-65.775
X74.575Y-42.945
X74.575Y-53.105
X76.6Y-55.27
X76.6Y-65.43
X78.28Y-68.98
X81.12Y-62.575
X81.19Y-65.98
X81.19Y-69.34
X91.25Y-52.4
X91.28Y-62.575
X91.35Y-65.98
X91.35Y-69.34
X93.75Y-52.4
X98.17Y-79.05
X100.67Y-79.05
X109.31Y-104.93
X109.31Y-107.43
X116.15Y-52.3
X118.65Y-52.3
X129.65Y-43.47
X130.7Y-46.82
X130.7Y-56.98
X132.15Y-43.47
X141.5Y-55.7
X146.5Y-55.7
X146.8Y-46.7
X146.8Y-49.2
X151.7Y-57.2
X151.7Y-62.2
X156.2Y-59.7
X156.2Y-64.7
X159.8Y-27.7
X159.9Y-44.6
X161.62Y-104.8
X161.62Y-107.3
X164.57Y-83.3
X164.8Y-27.7
X164.9Y-44.6
X167.07Y-83.3
T5
X42.1Y-79.0
X42.1Y-106.0
X43.37Y-79.0
X43.37Y-106.0
X44.64Y-79.0
X44.64Y-106.0
X45.91Y-79.0
X45.91Y-106.0
X65.6Y-48.0
X66.87Y-48.0
X68.14Y-48.0
X69.41Y-48.0
X90.6Y-48.0
X91.87Y-48.0
X93.14Y-48.0
X94.41Y-48.0
X103.1Y-79.0
X103.1Y-106.0
X104.37Y-79.0
X104.37Y-106.0
X105.64Y-79.0
X105.64Y-106.0
X106.91Y-79.0
X106.91Y-106.0
X115.6Y-48.0
X116.87Y-48.0
X118.14Y-48.0
X119.41Y-48.0
X140.6Y-48.0
X141.87Y-48.0
X143.14Y-48.0
X144.41Y-48.0
X164.1Y-79.0
X164.1Y-106.0
X165.37Y-79.0
X165.37Y-106.0
X166.64Y-79.0
X166.64Y-106.0
X167.91Y-79.0
X167.91Y-106.0
T6
X43.615Y-82.79
X43.615Y-85.33
X43.615Y-87.87
X49.59Y-103.78
X49.59Y-106.32
X52.13Y-103.78
X52.13Y-106.32
X54.67Y-103.78
X54.67Y-106.32
X57.21Y-103.78
X57.21Y-106.32
X59.75Y-103.78
X59.75Y-106.32
X60.25Y-31.5
X60.25Y-34.0
X60.25Y-36.5
X62.29Y-103.78
X62.29Y-106.32
X64.83Y-103.78
X64.83Y-106.32
X67.37Y-103.78
X67.37Y-106.32
X68.46Y-52.85
X68.46Y-55.39
X68.46Y-57.93
X69.91Y-103.78
X69.91Y-106.32
X71.0Y-52.85
X71.0Y-55.39
X71.0Y-57.93
X72.45Y-103.78
X72.45Y-106.32
X74.75Y-31.5
X74.75Y-36.5
X74.99Y-103.78
X74.99Y-106.32
X77.53Y-103.78
X77.53Y-106.32
X80.07Y-103.78
X80.07Y-106.32
X82.61Y-103.78
X82.61Y-106.32
X85.15Y-103.78
X85.15Y-106.32
X87.69Y-103.78
X87.69Y-106.32
X90.23Y-103.78
X90.23Y-106.32
X92.77Y-103.78
X92.77Y-106.32
X95.31Y-103.78
X95.31Y-106.32
X97.85Y-103.78
X97.85Y-106.32
X113.625Y-89.985
X113.625Y-92.525
X113.625Y-95.065
X113.625Y-97.605
X117.71Y-68.376
X117.71Y-70.916
X117.71Y-73.456
X117.71Y-75.996
X117.71Y-78.536
X117.71Y-81.076
X117.71Y-83.616
X117.71Y-86.156
X117.71Y-88.696
X117.71Y-91.236
X117.71Y-93.776
X117.71Y-96.316
X117.71Y-98.856
X117.71Y-101.396
X117.71Y-103.936
X117.71Y-106.476
X117.71Y-109.016
X117.71Y-111.556
X117.71Y-114.096
X117.71Y-116.636
X120.25Y-68.376
X120.25Y-70.916
X120.25Y-73.456
X120.25Y-75.996
X120.25Y-78.536
X120.25Y-81.076
X120.25Y-83.616
X120.25Y-86.156
X120.25Y-88.696
X120.25Y-91.236
X120.25Y-93.776
X120.25Y-96.316
X120.25Y-98.856
X120.25Y-101.396
X120.25Y-103.936
X120.25Y-106.476
X120.25Y-109.016
X120.25Y-111.556
X120.25Y-114.096
X120.25Y-116.636
X130.6Y-63.4
X135.25Y-31.5
X135.25Y-34.0
X135.25Y-36.5
X135.46Y-57.175
X135.6Y-63.4
X138.0Y-57.175
X144.1Y-60.932
X144.1Y-65.932
X149.75Y-31.5
X149.75Y-36.5
X152.38Y-119.151
X152.38Y-121.691
X154.015Y-74.846
X154.015Y-77.386
X154.015Y-79.926
X154.92Y-119.151
X154.92Y-121.691
X156.555Y-74.846
X156.555Y-77.386
X156.555Y-79.926
X157.46Y-119.151
X157.46Y-121.691
X159.832Y-37.5
X164.832Y-37.5
T7
X78.87Y-40.11
X78.87Y-57.89
X81.41Y-40.11
X81.41Y-57.89
X83.95Y-40.11
X83.95Y-57.89
X86.49Y-40.11
X86.49Y-57.89
X89.03Y-40.11
X89.03Y-57.89
X91.57Y-40.11
X91.57Y-57.89
X94.11Y-40.11
X94.11Y-57.89
X96.65Y-40.11
X96.65Y-57.89
X99.19Y-40.11
X99.19Y-57.89
X101.73Y-40.11
X101.73Y-57.89
X104.27Y-40.11
X104.27Y-57.89
X106.81Y-40.11
X106.81Y-57.89
X109.35Y-40.11
X109.35Y-57.89
X111.89Y-40.11
X111.89Y-57.89
X114.43Y-40.11
X114.43Y-57.89
X116.97Y-40.11
X116.97Y-57.89
X119.51Y-40.11
X119.51Y-57.89
X122.05Y-40.11
X122.05Y-57.89
X124.59Y-40.11
X124.59Y-57.89
X127.13Y-40.11
X127.13Y-57.89
T8
X23.75Y-64.5
X23.75Y-69.5
X23.75Y-116.5
X23.75Y-121.5
X36.25Y-64.5
X36.25Y-69.5
X36.25Y-116.5
X36.25Y-121.5
X98.75Y-64.5
X98.75Y-69.5
X98.75Y-116.5
X98.75Y-121.5
X111.25Y-64.5
X111.25Y-69.5
X111.25Y-116.5
X111.25Y-121.5
X173.75Y-64.5
X173.75Y-69.5
X173.75Y-116.5
X173.75Y-121.5
X186.25Y-64.5
X186.25Y-69.5
X186.25Y-116.5
X186.25Y-121.5
T9
X161.9Y-50.3
X161.9Y-55.3
T10
X86.505Y-32.0
X89.005Y-22.0
X89.005Y-34.5
X91.505Y-22.0
X94.005Y-32.0
X96.505Y-22.0
X99.005Y-22.0
X99.005Y-34.5
X101.505Y-32.0
X108.5Y-32.0
X111.0Y-22.0
X111.0Y-34.5
X113.5Y-22.0
X116.0Y-32.0
X118.5Y-22.0
X121.0Y-22.0
X121.0Y-34.5
X123.5Y-32.0
T11
X21.7Y-94.97
X21.7Y-111.2
X21.735Y-74.77
X21.735Y-91.0
X28.05Y-94.97
X28.05Y-111.2
X28.085Y-74.77
X28.085Y-91.0
X34.4Y-94.97
X34.4Y-111.2
X34.435Y-74.77
X34.435Y-91.0
X175.6Y-74.78
X175.6Y-91.01
X175.6Y-94.995
X175.6Y-111.225
X175.615Y-33.8
X175.615Y-50.03
X181.95Y-74.78
X181.95Y-91.01
X181.95Y-94.995
X181.95Y-111.225
X181.965Y-33.8
X181.965Y-50.03
X188.3Y-74.78
X188.3Y-91.01
X188.3Y-94.995
X188.3Y-111.225
X188.315Y-33.8
X188.315Y-50.03
T12
X124.64Y-91.84
X132.26Y-71.52
X134.8Y-91.84
X137.34Y-71.52
X144.96Y-71.52
X144.96Y-91.84
T13
X67.75Y-28.4
X67.75Y-39.6
X142.75Y-28.4
X142.75Y-39.6
T2
G00X89.0Y-29.0
M15
G01X89.0Y-30.0
M16
G05
G00X91.5Y-29.0
M15
G01X91.5Y-30.0
M16
G05
G00X94.5Y-24.5
M15
G01X93.5Y-24.5
M16
G05
G00X96.5Y-30.0
M15
G01X96.5Y-29.0
M16
G05
G00X99.0Y-30.0
M15
G01X99.0Y-29.0
M16
G05
G00X111.0Y-29.0
M15
G01X111.0Y-30.0
M16
G05
G00X113.5Y-29.0
M15
G01X113.5Y-30.0
M16
G05
G00X116.5Y-24.5
M15
G01X115.5Y-24.5
M16
G05
G00X118.5Y-30.0
M15
G01X118.5Y-29.0
M16
G05
G00X121.0Y-30.0
M15
G01X121.0Y-29.0
M16
G05
T4
G00X174.6Y-26.3
M15
G01X174.6Y-28.5
M16
G05
G00X180.5Y-24.6
M15
G01X178.3Y-24.6
M16
G05
G00X180.7Y-30.4
M15
G01X178.1Y-30.4
M16
G05
T0
M30
