<?xml version="1.0" standalone="no"?>
 <!DOCTYPE svg PUBLIC "-//W3C//DTD SVG 1.1//EN" 
 "http://www.w3.org/Graphics/SVG/1.1/DTD/svg11.dtd"> 
<svg
  xmlns:svg="http://www.w3.org/2000/svg"
  xmlns="http://www.w3.org/2000/svg"
  xmlns:xlink="http://www.w3.org/1999/xlink"
  version="1.1"
  width="297.0022mm" height="210.0072mm" viewBox="0.0000 0.0000 297.0022 210.0072">
<title>SVG Image created as pedalboard-hw-User_Comments.svg date 2023/03/27 17:05:32 </title>
  <desc>Image generated by PCBNEW </desc>
<g style="fill:#000000; fill-opacity:1.0000;stroke:#000000; stroke-opacity:1.0000;
stroke-linecap:round; stroke-linejoin:round;"
 transform="translate(0 0) scale(1 1)">
</g>
<g style="fill:#000000; fill-opacity:0.0; 
stroke:#000000; stroke-width:0.0000; stroke-opacity:1; 
stroke-linecap:round; stroke-linejoin:round;">
</g>
<g style="fill:#000000; fill-opacity:0.0; 
stroke:#000000; stroke-width:0.1500; stroke-opacity:1; 
stroke-linecap:round; stroke-linejoin:round;">
<g transform="rotate(-45.000000 217.2762 36.5460)">
<text x="217.2762" y="36.9460"
textLength="3.3388" font-size="1.0667" lengthAdjust="spacingAndGlyphs"
text-anchor="middle" opacity="0">GP16</text>
</g>
<g class="stroked-text"><desc>GP16</desc>
<path d="M218.2267 36.9424
L218.3075 36.9693
" />
<path d="M218.3075 36.9693
L218.3883 37.0501
" />
<path d="M218.3883 37.0501
L218.4422 37.1579
" />
<path d="M218.4422 37.1579
L218.4422 37.2656
" />
<path d="M218.4422 37.2656
L218.4152 37.3464
" />
<path d="M218.4152 37.3464
L218.3344 37.4811
" />
<path d="M218.3344 37.4811
L218.2536 37.5619
" />
<path d="M218.2536 37.5619
L218.1189 37.6428
" />
<path d="M218.1189 37.6428
L218.0381 37.6697
" />
<path d="M218.0381 37.6697
L217.9304 37.6697
" />
<path d="M217.9304 37.6697
L217.8226 37.6158
" />
<path d="M217.8226 37.6158
L217.7688 37.5619
" />
<path d="M217.7688 37.5619
L217.7149 37.4542
" />
<path d="M217.7149 37.4542
L217.7149 37.4003
" />
<path d="M217.7149 37.4003
L217.9034 37.2118
" />
<path d="M217.9034 37.2118
L218.0112 37.3195
" />
<path d="M217.4186 37.2118
L217.9843 36.6461
" />
<path d="M217.9843 36.6461
L217.7688 36.4306
" />
<path d="M217.7688 36.4306
L217.6879 36.4036
" />
<path d="M217.6879 36.4036
L217.6341 36.4036
" />
<path d="M217.6341 36.4036
L217.5533 36.4306
" />
<path d="M217.5533 36.4306
L217.4724 36.5114
" />
<path d="M217.4724 36.5114
L217.4455 36.5922
" />
<path d="M217.4455 36.5922
L217.4455 36.6461
" />
<path d="M217.4455 36.6461
L217.4724 36.7269
" />
<path d="M217.4724 36.7269
L217.6879 36.9424
" />
<path d="M216.5566 36.3498
L216.8798 36.6730
" />
<path d="M216.7182 36.5114
L217.2839 35.9457
" />
<path d="M217.2839 35.9457
L217.2569 36.0804
" />
<path d="M217.2569 36.0804
L217.2569 36.1881
" />
<path d="M217.2569 36.1881
L217.2839 36.2689
" />
<path d="M216.6374 35.2992
L216.7451 35.4070
" />
<path d="M216.7451 35.4070
L216.7721 35.4878
" />
<path d="M216.7721 35.4878
L216.7721 35.5416
" />
<path d="M216.7721 35.5416
L216.7451 35.6763
" />
<path d="M216.7451 35.6763
L216.6643 35.8110
" />
<path d="M216.6643 35.8110
L216.4488 36.0265
" />
<path d="M216.4488 36.0265
L216.3680 36.0534
" />
<path d="M216.3680 36.0534
L216.3141 36.0534
" />
<path d="M216.3141 36.0534
L216.2333 36.0265
" />
<path d="M216.2333 36.0265
L216.1256 35.9188
" />
<path d="M216.1256 35.9188
L216.0986 35.8379
" />
<path d="M216.0986 35.8379
L216.0986 35.7841
" />
<path d="M216.0986 35.7841
L216.1256 35.7033
" />
<path d="M216.1256 35.7033
L216.2603 35.5686
" />
<path d="M216.2603 35.5686
L216.3411 35.5416
" />
<path d="M216.3411 35.5416
L216.3949 35.5416
" />
<path d="M216.3949 35.5416
L216.4758 35.5686
" />
<path d="M216.4758 35.5686
L216.5835 35.6763
" />
<path d="M216.5835 35.6763
L216.6104 35.7571
" />
<path d="M216.6104 35.7571
L216.6104 35.8110
" />
<path d="M216.6104 35.8110
L216.5835 35.8918
" />
</g><g transform="rotate(-45.000000 175.2522 61.3460)">
<text x="175.2522" y="61.7460"
textLength="2.6531" font-size="1.0667" lengthAdjust="spacingAndGlyphs"
text-anchor="middle" opacity="0">GND</text>
</g>
<g class="stroked-text"><desc>GND</desc>
<path d="M175.9603 61.4999
L176.0411 61.5269
" />
<path d="M176.0411 61.5269
L176.1219 61.6077
" />
<path d="M176.1219 61.6077
L176.1757 61.7154
" />
<path d="M176.1757 61.7154
L176.1757 61.8232
" />
<path d="M176.1757 61.8232
L176.1488 61.9040
" />
<path d="M176.1488 61.9040
L176.0680 62.0387
" />
<path d="M176.0680 62.0387
L175.9872 62.1195
" />
<path d="M175.9872 62.1195
L175.8525 62.2003
" />
<path d="M175.8525 62.2003
L175.7717 62.2273
" />
<path d="M175.7717 62.2273
L175.6639 62.2273
" />
<path d="M175.6639 62.2273
L175.5562 62.1734
" />
<path d="M175.5562 62.1734
L175.5023 62.1195
" />
<path d="M175.5023 62.1195
L175.4484 62.0118
" />
<path d="M175.4484 62.0118
L175.4484 61.9579
" />
<path d="M175.4484 61.9579
L175.6370 61.7693
" />
<path d="M175.6370 61.7693
L175.7447 61.8771
" />
<path d="M175.1521 61.7693
L175.7178 61.2036
" />
<path d="M175.7178 61.2036
L174.8289 61.4461
" />
<path d="M174.8289 61.4461
L175.3946 60.8804
" />
<path d="M174.5595 61.1767
L175.1252 60.6110
" />
<path d="M175.1252 60.6110
L174.9905 60.4763
" />
<path d="M174.9905 60.4763
L174.8828 60.4224
" />
<path d="M174.8828 60.4224
L174.7750 60.4224
" />
<path d="M174.7750 60.4224
L174.6942 60.4494
" />
<path d="M174.6942 60.4494
L174.5595 60.5302
" />
<path d="M174.5595 60.5302
L174.4787 60.6110
" />
<path d="M174.4787 60.6110
L174.3979 60.7457
" />
<path d="M174.3979 60.7457
L174.3709 60.8265
" />
<path d="M174.3709 60.8265
L174.3709 60.9343
" />
<path d="M174.3709 60.9343
L174.4248 61.0420
" />
<path d="M174.4248 61.0420
L174.5595 61.1767
" />
</g><g transform="rotate(-45.000000 213.3522 61.3460)">
<text x="213.3522" y="61.7460"
textLength="2.6531" font-size="1.0667" lengthAdjust="spacingAndGlyphs"
text-anchor="middle" opacity="0">GND</text>
</g>
<g class="stroked-text"><desc>GND</desc>
<path d="M214.0602 61.4999
L214.1411 61.5269
" />
<path d="M214.1411 61.5269
L214.2219 61.6077
" />
<path d="M214.2219 61.6077
L214.2757 61.7154
" />
<path d="M214.2757 61.7154
L214.2757 61.8232
" />
<path d="M214.2757 61.8232
L214.2488 61.9040
" />
<path d="M214.2488 61.9040
L214.1680 62.0387
" />
<path d="M214.1680 62.0387
L214.0872 62.1195
" />
<path d="M214.0872 62.1195
L213.9525 62.2003
" />
<path d="M213.9525 62.2003
L213.8717 62.2273
" />
<path d="M213.8717 62.2273
L213.7639 62.2273
" />
<path d="M213.7639 62.2273
L213.6562 62.1734
" />
<path d="M213.6562 62.1734
L213.6023 62.1195
" />
<path d="M213.6023 62.1195
L213.5484 62.0118
" />
<path d="M213.5484 62.0118
L213.5484 61.9579
" />
<path d="M213.5484 61.9579
L213.7370 61.7693
" />
<path d="M213.7370 61.7693
L213.8447 61.8771
" />
<path d="M213.2521 61.7693
L213.8178 61.2036
" />
<path d="M213.8178 61.2036
L212.9289 61.4461
" />
<path d="M212.9289 61.4461
L213.4946 60.8804
" />
<path d="M212.6595 61.1767
L213.2252 60.6110
" />
<path d="M213.2252 60.6110
L213.0905 60.4763
" />
<path d="M213.0905 60.4763
L212.9828 60.4224
" />
<path d="M212.9828 60.4224
L212.8750 60.4224
" />
<path d="M212.8750 60.4224
L212.7942 60.4494
" />
<path d="M212.7942 60.4494
L212.6595 60.5302
" />
<path d="M212.6595 60.5302
L212.5787 60.6110
" />
<path d="M212.5787 60.6110
L212.4979 60.7457
" />
<path d="M212.4979 60.7457
L212.4709 60.8265
" />
<path d="M212.4709 60.8265
L212.4709 60.9343
" />
<path d="M212.4709 60.9343
L212.5248 61.0420
" />
<path d="M212.5248 61.0420
L212.6595 61.1767
" />
</g><g transform="rotate(-45.000000 175.9462 35.9000)">
<text x="175.9462" y="36.3000"
textLength="4.5960" font-size="1.0667" lengthAdjust="spacingAndGlyphs"
text-anchor="middle" opacity="0">3V3_EN</text>
</g>
<g class="stroked-text"><desc>3V3_EN</desc>
<path d="M177.7183 37.0641
L177.3681 36.7139
" />
<path d="M177.3681 36.7139
L177.3412 37.1180
" />
<path d="M177.3412 37.1180
L177.2603 37.0372
" />
<path d="M177.2603 37.0372
L177.1795 37.0102
" />
<path d="M177.1795 37.0102
L177.1257 37.0102
" />
<path d="M177.1257 37.0102
L177.0448 37.0372
" />
<path d="M177.0448 37.0372
L176.9102 37.1718
" />
<path d="M176.9102 37.1718
L176.8832 37.2527
" />
<path d="M176.8832 37.2527
L176.8832 37.3065
" />
<path d="M176.8832 37.3065
L176.9102 37.3873
" />
<path d="M176.9102 37.3873
L177.0718 37.5490
" />
<path d="M177.0718 37.5490
L177.1526 37.5759
" />
<path d="M177.1526 37.5759
L177.2065 37.5759
" />
<path d="M177.2065 36.5523
L176.4522 36.9294
" />
<path d="M176.4522 36.9294
L176.8293 36.1752
" />
<path d="M176.6947 36.0405
L176.3445 35.6903
" />
<path d="M176.3445 35.6903
L176.3175 36.0944
" />
<path d="M176.3175 36.0944
L176.2367 36.0135
" />
<path d="M176.2367 36.0135
L176.1559 35.9866
" />
<path d="M176.1559 35.9866
L176.1020 35.9866
" />
<path d="M176.1020 35.9866
L176.0212 36.0135
" />
<path d="M176.0212 36.0135
L175.8865 36.1482
" />
<path d="M175.8865 36.1482
L175.8596 36.2290
" />
<path d="M175.8596 36.2290
L175.8596 36.2829
" />
<path d="M175.8596 36.2829
L175.8865 36.3637
" />
<path d="M175.8865 36.3637
L176.0482 36.5254
" />
<path d="M176.0482 36.5254
L176.1290 36.5523
" />
<path d="M176.1290 36.5523
L176.1828 36.5523
" />
<path d="M175.6172 36.2021
L175.1862 35.7711
" />
<path d="M175.4017 35.2862
L175.2131 35.0977
" />
<path d="M174.8360 35.3132
L175.1053 35.5825
" />
<path d="M175.1053 35.5825
L175.6710 35.0169
" />
<path d="M175.6710 35.0169
L175.4017 34.7475
" />
<path d="M174.5935 35.0707
L175.1592 34.5050
" />
<path d="M175.1592 34.5050
L174.2703 34.7475
" />
<path d="M174.2703 34.7475
L174.8360 34.1818
" />
</g><g transform="rotate(-45.000000 202.0462 36.5460)">
<text x="202.0462" y="36.9460"
textLength="3.3388" font-size="1.0667" lengthAdjust="spacingAndGlyphs"
text-anchor="middle" opacity="0">GP21</text>
</g>
<g class="stroked-text"><desc>GP21</desc>
<path d="M202.9967 36.9424
L203.0775 36.9693
" />
<path d="M203.0775 36.9693
L203.1583 37.0501
" />
<path d="M203.1583 37.0501
L203.2122 37.1579
" />
<path d="M203.2122 37.1579
L203.2122 37.2656
" />
<path d="M203.2122 37.2656
L203.1852 37.3464
" />
<path d="M203.1852 37.3464
L203.1044 37.4811
" />
<path d="M203.1044 37.4811
L203.0236 37.5619
" />
<path d="M203.0236 37.5619
L202.8889 37.6428
" />
<path d="M202.8889 37.6428
L202.8081 37.6697
" />
<path d="M202.8081 37.6697
L202.7004 37.6697
" />
<path d="M202.7004 37.6697
L202.5926 37.6158
" />
<path d="M202.5926 37.6158
L202.5388 37.5619
" />
<path d="M202.5388 37.5619
L202.4849 37.4542
" />
<path d="M202.4849 37.4542
L202.4849 37.4003
" />
<path d="M202.4849 37.4003
L202.6734 37.2118
" />
<path d="M202.6734 37.2118
L202.7812 37.3195
" />
<path d="M202.1886 37.2118
L202.7542 36.6461
" />
<path d="M202.7542 36.6461
L202.5388 36.4306
" />
<path d="M202.5388 36.4306
L202.4579 36.4036
" />
<path d="M202.4579 36.4036
L202.4041 36.4036
" />
<path d="M202.4041 36.4036
L202.3233 36.4306
" />
<path d="M202.3233 36.4306
L202.2424 36.5114
" />
<path d="M202.2424 36.5114
L202.2155 36.5922
" />
<path d="M202.2155 36.5922
L202.2155 36.6461
" />
<path d="M202.2155 36.6461
L202.2424 36.7269
" />
<path d="M202.2424 36.7269
L202.4579 36.9424
" />
<path d="M202.1616 36.1612
L202.1616 36.1073
" />
<path d="M202.1616 36.1073
L202.1347 36.0265
" />
<path d="M202.1347 36.0265
L202.0000 35.8918
" />
<path d="M202.0000 35.8918
L201.9192 35.8649
" />
<path d="M201.9192 35.8649
L201.8653 35.8649
" />
<path d="M201.8653 35.8649
L201.7845 35.8918
" />
<path d="M201.7845 35.8918
L201.7306 35.9457
" />
<path d="M201.7306 35.9457
L201.6768 36.0534
" />
<path d="M201.6768 36.0534
L201.6768 36.6999
" />
<path d="M201.6768 36.6999
L201.3266 36.3498
" />
<path d="M200.7878 35.8110
L201.1111 36.1343
" />
<path d="M200.9494 35.9726
L201.5151 35.4070
" />
<path d="M201.5151 35.4070
L201.4882 35.5416
" />
<path d="M201.4882 35.5416
L201.4882 35.6494
" />
<path d="M201.4882 35.6494
L201.5151 35.7302
" />
</g><g transform="rotate(-45.000000 174.0962 36.8000)">
<text x="174.0962" y="37.2000"
textLength="2.6531" font-size="1.0667" lengthAdjust="spacingAndGlyphs"
text-anchor="middle" opacity="0">GND</text>
</g>
<g class="stroked-text"><desc>GND</desc>
<path d="M174.8042 36.9539
L174.8851 36.9809
" />
<path d="M174.8851 36.9809
L174.9659 37.0617
" />
<path d="M174.9659 37.0617
L175.0197 37.1694
" />
<path d="M175.0197 37.1694
L175.0197 37.2772
" />
<path d="M175.0197 37.2772
L174.9928 37.3580
" />
<path d="M174.9928 37.3580
L174.9120 37.4927
" />
<path d="M174.9120 37.4927
L174.8312 37.5735
" />
<path d="M174.8312 37.5735
L174.6965 37.6543
" />
<path d="M174.6965 37.6543
L174.6157 37.6813
" />
<path d="M174.6157 37.6813
L174.5079 37.6813
" />
<path d="M174.5079 37.6813
L174.4002 37.6274
" />
<path d="M174.4002 37.6274
L174.3463 37.5735
" />
<path d="M174.3463 37.5735
L174.2924 37.4658
" />
<path d="M174.2924 37.4658
L174.2924 37.4119
" />
<path d="M174.2924 37.4119
L174.4810 37.2233
" />
<path d="M174.4810 37.2233
L174.5888 37.3311
" />
<path d="M173.9961 37.2233
L174.5618 36.6576
" />
<path d="M174.5618 36.6576
L173.6729 36.9001
" />
<path d="M173.6729 36.9001
L174.2386 36.3344
" />
<path d="M173.4035 36.6307
L173.9692 36.0650
" />
<path d="M173.9692 36.0650
L173.8345 35.9303
" />
<path d="M173.8345 35.9303
L173.7268 35.8764
" />
<path d="M173.7268 35.8764
L173.6190 35.8764
" />
<path d="M173.6190 35.8764
L173.5382 35.9034
" />
<path d="M173.5382 35.9034
L173.4035 35.9842
" />
<path d="M173.4035 35.9842
L173.3227 36.0650
" />
<path d="M173.3227 36.0650
L173.2419 36.1997
" />
<path d="M173.2419 36.1997
L173.2149 36.2805
" />
<path d="M173.2149 36.2805
L173.2149 36.3883
" />
<path d="M173.2149 36.3883
L173.2688 36.4960
" />
<path d="M173.2688 36.4960
L173.4035 36.6307
" />
</g><g transform="rotate(-45.000000 199.4962 36.8000)">
<text x="199.4962" y="37.2000"
textLength="2.6531" font-size="1.0667" lengthAdjust="spacingAndGlyphs"
text-anchor="middle" opacity="0">GND</text>
</g>
<g class="stroked-text"><desc>GND</desc>
<path d="M200.2043 36.9539
L200.2851 36.9809
" />
<path d="M200.2851 36.9809
L200.3659 37.0617
" />
<path d="M200.3659 37.0617
L200.4197 37.1694
" />
<path d="M200.4197 37.1694
L200.4197 37.2772
" />
<path d="M200.4197 37.2772
L200.3928 37.3580
" />
<path d="M200.3928 37.3580
L200.3120 37.4927
" />
<path d="M200.3120 37.4927
L200.2312 37.5735
" />
<path d="M200.2312 37.5735
L200.0965 37.6543
" />
<path d="M200.0965 37.6543
L200.0157 37.6813
" />
<path d="M200.0157 37.6813
L199.9079 37.6813
" />
<path d="M199.9079 37.6813
L199.8002 37.6274
" />
<path d="M199.8002 37.6274
L199.7463 37.5735
" />
<path d="M199.7463 37.5735
L199.6924 37.4658
" />
<path d="M199.6924 37.4658
L199.6924 37.4119
" />
<path d="M199.6924 37.4119
L199.8810 37.2233
" />
<path d="M199.8810 37.2233
L199.9887 37.3311
" />
<path d="M199.3961 37.2233
L199.9618 36.6576
" />
<path d="M199.9618 36.6576
L199.0729 36.9001
" />
<path d="M199.0729 36.9001
L199.6386 36.3344
" />
<path d="M198.8035 36.6307
L199.3692 36.0650
" />
<path d="M199.3692 36.0650
L199.2345 35.9303
" />
<path d="M199.2345 35.9303
L199.1268 35.8764
" />
<path d="M199.1268 35.8764
L199.0190 35.8764
" />
<path d="M199.0190 35.8764
L198.9382 35.9034
" />
<path d="M198.9382 35.9034
L198.8035 35.9842
" />
<path d="M198.8035 35.9842
L198.7227 36.0650
" />
<path d="M198.7227 36.0650
L198.6419 36.1997
" />
<path d="M198.6419 36.1997
L198.6149 36.2805
" />
<path d="M198.6149 36.2805
L198.6149 36.3883
" />
<path d="M198.6149 36.3883
L198.6688 36.4960
" />
<path d="M198.6688 36.4960
L198.8035 36.6307
" />
</g><g transform="rotate(-45.000000 205.7322 61.7460)">
<text x="205.7322" y="62.1460"
textLength="3.3388" font-size="1.0667" lengthAdjust="spacingAndGlyphs"
text-anchor="middle" opacity="0">GP11</text>
</g>
<g class="stroked-text"><desc>GP11</desc>
<path d="M206.6827 62.1424
L206.7635 62.1693
" />
<path d="M206.7635 62.1693
L206.8443 62.2501
" />
<path d="M206.8443 62.2501
L206.8982 62.3579
" />
<path d="M206.8982 62.3579
L206.8982 62.4656
" />
<path d="M206.8982 62.4656
L206.8712 62.5464
" />
<path d="M206.8712 62.5464
L206.7904 62.6811
" />
<path d="M206.7904 62.6811
L206.7096 62.7619
" />
<path d="M206.7096 62.7619
L206.5749 62.8428
" />
<path d="M206.5749 62.8428
L206.4941 62.8697
" />
<path d="M206.4941 62.8697
L206.3864 62.8697
" />
<path d="M206.3864 62.8697
L206.2786 62.8158
" />
<path d="M206.2786 62.8158
L206.2248 62.7619
" />
<path d="M206.2248 62.7619
L206.1709 62.6542
" />
<path d="M206.1709 62.6542
L206.1709 62.6003
" />
<path d="M206.1709 62.6003
L206.3594 62.4118
" />
<path d="M206.3594 62.4118
L206.4672 62.5195
" />
<path d="M205.8746 62.4118
L206.4402 61.8461
" />
<path d="M206.4402 61.8461
L206.2248 61.6306
" />
<path d="M206.2248 61.6306
L206.1439 61.6036
" />
<path d="M206.1439 61.6036
L206.0901 61.6036
" />
<path d="M206.0901 61.6036
L206.0093 61.6306
" />
<path d="M206.0093 61.6306
L205.9284 61.7114
" />
<path d="M205.9284 61.7114
L205.9015 61.7922
" />
<path d="M205.9015 61.7922
L205.9015 61.8461
" />
<path d="M205.9015 61.8461
L205.9284 61.9269
" />
<path d="M205.9284 61.9269
L206.1439 62.1424
" />
<path d="M205.0126 61.5498
L205.3358 61.8730
" />
<path d="M205.1742 61.7114
L205.7399 61.1457
" />
<path d="M205.7399 61.1457
L205.7129 61.2804
" />
<path d="M205.7129 61.2804
L205.7129 61.3881
" />
<path d="M205.7129 61.3881
L205.7399 61.4689
" />
<path d="M204.4738 61.0110
L204.7971 61.3343
" />
<path d="M204.6354 61.1726
L205.2011 60.6070
" />
<path d="M205.2011 60.6070
L205.1742 60.7416
" />
<path d="M205.1742 60.7416
L205.1742 60.8494
" />
<path d="M205.1742 60.8494
L205.2011 60.9302
" />
</g><g transform="rotate(-45.000000 204.5762 36.5460)">
<text x="204.5762" y="36.9460"
textLength="3.3388" font-size="1.0667" lengthAdjust="spacingAndGlyphs"
text-anchor="middle" opacity="0">GP20</text>
</g>
<g class="stroked-text"><desc>GP20</desc>
<path d="M205.5267 36.9424
L205.6075 36.9693
" />
<path d="M205.6075 36.9693
L205.6883 37.0501
" />
<path d="M205.6883 37.0501
L205.7422 37.1579
" />
<path d="M205.7422 37.1579
L205.7422 37.2656
" />
<path d="M205.7422 37.2656
L205.7152 37.3464
" />
<path d="M205.7152 37.3464
L205.6344 37.4811
" />
<path d="M205.6344 37.4811
L205.5536 37.5619
" />
<path d="M205.5536 37.5619
L205.4189 37.6428
" />
<path d="M205.4189 37.6428
L205.3381 37.6697
" />
<path d="M205.3381 37.6697
L205.2304 37.6697
" />
<path d="M205.2304 37.6697
L205.1226 37.6158
" />
<path d="M205.1226 37.6158
L205.0688 37.5619
" />
<path d="M205.0688 37.5619
L205.0149 37.4542
" />
<path d="M205.0149 37.4542
L205.0149 37.4003
" />
<path d="M205.0149 37.4003
L205.2034 37.2118
" />
<path d="M205.2034 37.2118
L205.3112 37.3195
" />
<path d="M204.7186 37.2118
L205.2842 36.6461
" />
<path d="M205.2842 36.6461
L205.0688 36.4306
" />
<path d="M205.0688 36.4306
L204.9879 36.4036
" />
<path d="M204.9879 36.4036
L204.9341 36.4036
" />
<path d="M204.9341 36.4036
L204.8533 36.4306
" />
<path d="M204.8533 36.4306
L204.7724 36.5114
" />
<path d="M204.7724 36.5114
L204.7455 36.5922
" />
<path d="M204.7455 36.5922
L204.7455 36.6461
" />
<path d="M204.7455 36.6461
L204.7724 36.7269
" />
<path d="M204.7724 36.7269
L204.9879 36.9424
" />
<path d="M204.6916 36.1612
L204.6916 36.1073
" />
<path d="M204.6916 36.1073
L204.6647 36.0265
" />
<path d="M204.6647 36.0265
L204.5300 35.8918
" />
<path d="M204.5300 35.8918
L204.4492 35.8649
" />
<path d="M204.4492 35.8649
L204.3953 35.8649
" />
<path d="M204.3953 35.8649
L204.3145 35.8918
" />
<path d="M204.3145 35.8918
L204.2606 35.9457
" />
<path d="M204.2606 35.9457
L204.2068 36.0534
" />
<path d="M204.2068 36.0534
L204.2068 36.6999
" />
<path d="M204.2068 36.6999
L203.8566 36.3498
" />
<path d="M204.0721 35.4339
L204.0182 35.3800
" />
<path d="M204.0182 35.3800
L203.9374 35.3531
" />
<path d="M203.9374 35.3531
L203.8835 35.3531
" />
<path d="M203.8835 35.3531
L203.8027 35.3800
" />
<path d="M203.8027 35.3800
L203.6680 35.4608
" />
<path d="M203.6680 35.4608
L203.5333 35.5955
" />
<path d="M203.5333 35.5955
L203.4525 35.7302
" />
<path d="M203.4525 35.7302
L203.4256 35.8110
" />
<path d="M203.4256 35.8110
L203.4256 35.8649
" />
<path d="M203.4256 35.8649
L203.4525 35.9457
" />
<path d="M203.4525 35.9457
L203.5064 35.9996
" />
<path d="M203.5064 35.9996
L203.5872 36.0265
" />
<path d="M203.5872 36.0265
L203.6411 36.0265
" />
<path d="M203.6411 36.0265
L203.7219 35.9996
" />
<path d="M203.7219 35.9996
L203.8566 35.9188
" />
<path d="M203.8566 35.9188
L203.9913 35.7841
" />
<path d="M203.9913 35.7841
L204.0721 35.6494
" />
<path d="M204.0721 35.6494
L204.0990 35.5686
" />
<path d="M204.0990 35.5686
L204.0990 35.5147
" />
<path d="M204.0990 35.5147
L204.0721 35.4339
" />
</g><g transform="rotate(-45.000000 198.1122 61.3460)">
<text x="198.1122" y="61.7460"
textLength="2.5769" font-size="1.0667" lengthAdjust="spacingAndGlyphs"
text-anchor="middle" opacity="0">GP9</text>
</g>
<g class="stroked-text"><desc>GP9</desc>
<path d="M198.7933 61.4730
L198.8741 61.4999
" />
<path d="M198.8741 61.4999
L198.9549 61.5808
" />
<path d="M198.9549 61.5808
L199.0088 61.6885
" />
<path d="M199.0088 61.6885
L199.0088 61.7963
" />
<path d="M199.0088 61.7963
L198.9819 61.8771
" />
<path d="M198.9819 61.8771
L198.9011 62.0118
" />
<path d="M198.9011 62.0118
L198.8202 62.0926
" />
<path d="M198.8202 62.0926
L198.6856 62.1734
" />
<path d="M198.6856 62.1734
L198.6048 62.2003
" />
<path d="M198.6048 62.2003
L198.4970 62.2003
" />
<path d="M198.4970 62.2003
L198.3893 62.1464
" />
<path d="M198.3893 62.1464
L198.3354 62.0926
" />
<path d="M198.3354 62.0926
L198.2815 61.9848
" />
<path d="M198.2815 61.9848
L198.2815 61.9309
" />
<path d="M198.2815 61.9309
L198.4701 61.7424
" />
<path d="M198.4701 61.7424
L198.5778 61.8501
" />
<path d="M197.9852 61.7424
L198.5509 61.1767
" />
<path d="M198.5509 61.1767
L198.3354 60.9612
" />
<path d="M198.3354 60.9612
L198.2546 60.9343
" />
<path d="M198.2546 60.9343
L198.2007 60.9343
" />
<path d="M198.2007 60.9343
L198.1199 60.9612
" />
<path d="M198.1199 60.9612
L198.0391 61.0420
" />
<path d="M198.0391 61.0420
L198.0121 61.1228
" />
<path d="M198.0121 61.1228
L198.0121 61.1767
" />
<path d="M198.0121 61.1767
L198.0391 61.2575
" />
<path d="M198.0391 61.2575
L198.2546 61.4730
" />
<path d="M197.3926 61.1498
L197.2848 61.0420
" />
<path d="M197.2848 61.0420
L197.2579 60.9612
" />
<path d="M197.2579 60.9612
L197.2579 60.9073
" />
<path d="M197.2579 60.9073
L197.2848 60.7726
" />
<path d="M197.2848 60.7726
L197.3656 60.6379
" />
<path d="M197.3656 60.6379
L197.5811 60.4224
" />
<path d="M197.5811 60.4224
L197.6619 60.3955
" />
<path d="M197.6619 60.3955
L197.7158 60.3955
" />
<path d="M197.7158 60.3955
L197.7966 60.4224
" />
<path d="M197.7966 60.4224
L197.9044 60.5302
" />
<path d="M197.9044 60.5302
L197.9313 60.6110
" />
<path d="M197.9313 60.6110
L197.9313 60.6649
" />
<path d="M197.9313 60.6649
L197.9044 60.7457
" />
<path d="M197.9044 60.7457
L197.7697 60.8804
" />
<path d="M197.7697 60.8804
L197.6889 60.9073
" />
<path d="M197.6889 60.9073
L197.6350 60.9073
" />
<path d="M197.6350 60.9073
L197.5542 60.8804
" />
<path d="M197.5542 60.8804
L197.4464 60.7726
" />
<path d="M197.4464 60.7726
L197.4195 60.6918
" />
<path d="M197.4195 60.6918
L197.4195 60.6379
" />
<path d="M197.4195 60.6379
L197.4464 60.5571
" />
</g><g transform="rotate(-45.000000 203.1922 61.6000)">
<text x="203.1922" y="62.0000"
textLength="3.3388" font-size="1.0667" lengthAdjust="spacingAndGlyphs"
text-anchor="middle" opacity="0">GP10</text>
</g>
<g class="stroked-text"><desc>GP10</desc>
<path d="M204.1427 61.9964
L204.2235 62.0233
" />
<path d="M204.2235 62.0233
L204.3043 62.1041
" />
<path d="M204.3043 62.1041
L204.3582 62.2119
" />
<path d="M204.3582 62.2119
L204.3582 62.3196
" />
<path d="M204.3582 62.3196
L204.3312 62.4004
" />
<path d="M204.3312 62.4004
L204.2504 62.5351
" />
<path d="M204.2504 62.5351
L204.1696 62.6159
" />
<path d="M204.1696 62.6159
L204.0349 62.6968
" />
<path d="M204.0349 62.6968
L203.9541 62.7237
" />
<path d="M203.9541 62.7237
L203.8464 62.7237
" />
<path d="M203.8464 62.7237
L203.7386 62.6698
" />
<path d="M203.7386 62.6698
L203.6848 62.6159
" />
<path d="M203.6848 62.6159
L203.6309 62.5082
" />
<path d="M203.6309 62.5082
L203.6309 62.4543
" />
<path d="M203.6309 62.4543
L203.8194 62.2658
" />
<path d="M203.8194 62.2658
L203.9272 62.3735
" />
<path d="M203.3346 62.2658
L203.9002 61.7001
" />
<path d="M203.9002 61.7001
L203.6848 61.4846
" />
<path d="M203.6848 61.4846
L203.6039 61.4576
" />
<path d="M203.6039 61.4576
L203.5501 61.4576
" />
<path d="M203.5501 61.4576
L203.4693 61.4846
" />
<path d="M203.4693 61.4846
L203.3884 61.5654
" />
<path d="M203.3884 61.5654
L203.3615 61.6462
" />
<path d="M203.3615 61.6462
L203.3615 61.7001
" />
<path d="M203.3615 61.7001
L203.3884 61.7809
" />
<path d="M203.3884 61.7809
L203.6039 61.9964
" />
<path d="M202.4726 61.4038
L202.7958 61.7270
" />
<path d="M202.6342 61.5654
L203.1999 60.9997
" />
<path d="M203.1999 60.9997
L203.1729 61.1344
" />
<path d="M203.1729 61.1344
L203.1729 61.2421
" />
<path d="M203.1729 61.2421
L203.1999 61.3229
" />
<path d="M202.6881 60.4879
L202.6342 60.4340
" />
<path d="M202.6342 60.4340
L202.5534 60.4071
" />
<path d="M202.5534 60.4071
L202.4995 60.4071
" />
<path d="M202.4995 60.4071
L202.4187 60.4340
" />
<path d="M202.4187 60.4340
L202.2840 60.5148
" />
<path d="M202.2840 60.5148
L202.1493 60.6495
" />
<path d="M202.1493 60.6495
L202.0685 60.7842
" />
<path d="M202.0685 60.7842
L202.0416 60.8650
" />
<path d="M202.0416 60.8650
L202.0416 60.9189
" />
<path d="M202.0416 60.9189
L202.0685 60.9997
" />
<path d="M202.0685 60.9997
L202.1224 61.0536
" />
<path d="M202.1224 61.0536
L202.2032 61.0805
" />
<path d="M202.2032 61.0805
L202.2571 61.0805
" />
<path d="M202.2571 61.0805
L202.3379 61.0536
" />
<path d="M202.3379 61.0536
L202.4726 60.9728
" />
<path d="M202.4726 60.9728
L202.6073 60.8381
" />
<path d="M202.6073 60.8381
L202.6881 60.7034
" />
<path d="M202.6881 60.7034
L202.7150 60.6226
" />
<path d="M202.7150 60.6226
L202.7150 60.5687
" />
<path d="M202.7150 60.5687
L202.6881 60.4879
" />
</g><g transform="rotate(-45.000000 189.3462 36.5460)">
<text x="189.3462" y="36.9460"
textLength="3.3388" font-size="1.0667" lengthAdjust="spacingAndGlyphs"
text-anchor="middle" opacity="0">GP27</text>
</g>
<g class="stroked-text"><desc>GP27</desc>
<path d="M190.2967 36.9424
L190.3775 36.9693
" />
<path d="M190.3775 36.9693
L190.4583 37.0501
" />
<path d="M190.4583 37.0501
L190.5122 37.1579
" />
<path d="M190.5122 37.1579
L190.5122 37.2656
" />
<path d="M190.5122 37.2656
L190.4852 37.3464
" />
<path d="M190.4852 37.3464
L190.4044 37.4811
" />
<path d="M190.4044 37.4811
L190.3236 37.5619
" />
<path d="M190.3236 37.5619
L190.1889 37.6428
" />
<path d="M190.1889 37.6428
L190.1081 37.6697
" />
<path d="M190.1081 37.6697
L190.0004 37.6697
" />
<path d="M190.0004 37.6697
L189.8926 37.6158
" />
<path d="M189.8926 37.6158
L189.8388 37.5619
" />
<path d="M189.8388 37.5619
L189.7849 37.4542
" />
<path d="M189.7849 37.4542
L189.7849 37.4003
" />
<path d="M189.7849 37.4003
L189.9734 37.2118
" />
<path d="M189.9734 37.2118
L190.0812 37.3195
" />
<path d="M189.4886 37.2118
L190.0542 36.6461
" />
<path d="M190.0542 36.6461
L189.8388 36.4306
" />
<path d="M189.8388 36.4306
L189.7579 36.4036
" />
<path d="M189.7579 36.4036
L189.7041 36.4036
" />
<path d="M189.7041 36.4036
L189.6233 36.4306
" />
<path d="M189.6233 36.4306
L189.5424 36.5114
" />
<path d="M189.5424 36.5114
L189.5155 36.5922
" />
<path d="M189.5155 36.5922
L189.5155 36.6461
" />
<path d="M189.5155 36.6461
L189.5424 36.7269
" />
<path d="M189.5424 36.7269
L189.7579 36.9424
" />
<path d="M189.4616 36.1612
L189.4616 36.1073
" />
<path d="M189.4616 36.1073
L189.4347 36.0265
" />
<path d="M189.4347 36.0265
L189.3000 35.8918
" />
<path d="M189.3000 35.8918
L189.2192 35.8649
" />
<path d="M189.2192 35.8649
L189.1653 35.8649
" />
<path d="M189.1653 35.8649
L189.0845 35.8918
" />
<path d="M189.0845 35.8918
L189.0306 35.9457
" />
<path d="M189.0306 35.9457
L188.9768 36.0534
" />
<path d="M188.9768 36.0534
L188.9768 36.6999
" />
<path d="M188.9768 36.6999
L188.6266 36.3498
" />
<path d="M189.0037 35.5955
L188.6266 35.2184
" />
<path d="M188.6266 35.2184
L188.3033 36.0265
" />
</g><g transform="rotate(-45.000000 195.5722 61.3460)">
<text x="195.5722" y="61.7460"
textLength="2.5769" font-size="1.0667" lengthAdjust="spacingAndGlyphs"
text-anchor="middle" opacity="0">GP8</text>
</g>
<g class="stroked-text"><desc>GP8</desc>
<path d="M196.2533 61.4730
L196.3341 61.4999
" />
<path d="M196.3341 61.4999
L196.4149 61.5808
" />
<path d="M196.4149 61.5808
L196.4688 61.6885
" />
<path d="M196.4688 61.6885
L196.4688 61.7963
" />
<path d="M196.4688 61.7963
L196.4419 61.8771
" />
<path d="M196.4419 61.8771
L196.3611 62.0118
" />
<path d="M196.3611 62.0118
L196.2802 62.0926
" />
<path d="M196.2802 62.0926
L196.1456 62.1734
" />
<path d="M196.1456 62.1734
L196.0648 62.2003
" />
<path d="M196.0648 62.2003
L195.9570 62.2003
" />
<path d="M195.9570 62.2003
L195.8493 62.1464
" />
<path d="M195.8493 62.1464
L195.7954 62.0926
" />
<path d="M195.7954 62.0926
L195.7415 61.9848
" />
<path d="M195.7415 61.9848
L195.7415 61.9309
" />
<path d="M195.7415 61.9309
L195.9301 61.7424
" />
<path d="M195.9301 61.7424
L196.0378 61.8501
" />
<path d="M195.4452 61.7424
L196.0109 61.1767
" />
<path d="M196.0109 61.1767
L195.7954 60.9612
" />
<path d="M195.7954 60.9612
L195.7146 60.9343
" />
<path d="M195.7146 60.9343
L195.6607 60.9343
" />
<path d="M195.6607 60.9343
L195.5799 60.9612
" />
<path d="M195.5799 60.9612
L195.4991 61.0420
" />
<path d="M195.4991 61.0420
L195.4721 61.1228
" />
<path d="M195.4721 61.1228
L195.4721 61.1767
" />
<path d="M195.4721 61.1767
L195.4991 61.2575
" />
<path d="M195.4991 61.2575
L195.7146 61.4730
" />
<path d="M195.1219 60.7726
L195.2028 60.7996
" />
<path d="M195.2028 60.7996
L195.2566 60.7996
" />
<path d="M195.2566 60.7996
L195.3374 60.7726
" />
<path d="M195.3374 60.7726
L195.3644 60.7457
" />
<path d="M195.3644 60.7457
L195.3913 60.6649
" />
<path d="M195.3913 60.6649
L195.3913 60.6110
" />
<path d="M195.3913 60.6110
L195.3644 60.5302
" />
<path d="M195.3644 60.5302
L195.2566 60.4224
" />
<path d="M195.2566 60.4224
L195.1758 60.3955
" />
<path d="M195.1758 60.3955
L195.1219 60.3955
" />
<path d="M195.1219 60.3955
L195.0411 60.4224
" />
<path d="M195.0411 60.4224
L195.0142 60.4494
" />
<path d="M195.0142 60.4494
L194.9873 60.5302
" />
<path d="M194.9873 60.5302
L194.9873 60.5841
" />
<path d="M194.9873 60.5841
L195.0142 60.6649
" />
<path d="M195.0142 60.6649
L195.1219 60.7726
" />
<path d="M195.1219 60.7726
L195.1489 60.8534
" />
<path d="M195.1489 60.8534
L195.1489 60.9073
" />
<path d="M195.1489 60.9073
L195.1219 60.9881
" />
<path d="M195.1219 60.9881
L195.0142 61.0959
" />
<path d="M195.0142 61.0959
L194.9334 61.1228
" />
<path d="M194.9334 61.1228
L194.8795 61.1228
" />
<path d="M194.8795 61.1228
L194.7987 61.0959
" />
<path d="M194.7987 61.0959
L194.6909 60.9881
" />
<path d="M194.6909 60.9881
L194.6640 60.9073
" />
<path d="M194.6640 60.9073
L194.6640 60.8534
" />
<path d="M194.6640 60.8534
L194.6909 60.7726
" />
<path d="M194.6909 60.7726
L194.7987 60.6649
" />
<path d="M194.7987 60.6649
L194.8795 60.6379
" />
<path d="M194.8795 60.6379
L194.9334 60.6379
" />
<path d="M194.9334 60.6379
L195.0142 60.6649
" />
</g><g transform="rotate(-45.000000 185.4122 61.3460)">
<text x="185.4122" y="61.7460"
textLength="2.5769" font-size="1.0667" lengthAdjust="spacingAndGlyphs"
text-anchor="middle" opacity="0">GP5</text>
</g>
<g class="stroked-text"><desc>GP5</desc>
<path d="M186.0933 61.4730
L186.1741 61.4999
" />
<path d="M186.1741 61.4999
L186.2549 61.5808
" />
<path d="M186.2549 61.5808
L186.3088 61.6885
" />
<path d="M186.3088 61.6885
L186.3088 61.7963
" />
<path d="M186.3088 61.7963
L186.2819 61.8771
" />
<path d="M186.2819 61.8771
L186.2011 62.0118
" />
<path d="M186.2011 62.0118
L186.1202 62.0926
" />
<path d="M186.1202 62.0926
L185.9856 62.1734
" />
<path d="M185.9856 62.1734
L185.9048 62.2003
" />
<path d="M185.9048 62.2003
L185.7970 62.2003
" />
<path d="M185.7970 62.2003
L185.6893 62.1464
" />
<path d="M185.6893 62.1464
L185.6354 62.0926
" />
<path d="M185.6354 62.0926
L185.5815 61.9848
" />
<path d="M185.5815 61.9848
L185.5815 61.9309
" />
<path d="M185.5815 61.9309
L185.7701 61.7424
" />
<path d="M185.7701 61.7424
L185.8778 61.8501
" />
<path d="M185.2852 61.7424
L185.8509 61.1767
" />
<path d="M185.8509 61.1767
L185.6354 60.9612
" />
<path d="M185.6354 60.9612
L185.5546 60.9343
" />
<path d="M185.5546 60.9343
L185.5007 60.9343
" />
<path d="M185.5007 60.9343
L185.4199 60.9612
" />
<path d="M185.4199 60.9612
L185.3391 61.0420
" />
<path d="M185.3391 61.0420
L185.3121 61.1228
" />
<path d="M185.3121 61.1228
L185.3121 61.1767
" />
<path d="M185.3121 61.1767
L185.3391 61.2575
" />
<path d="M185.3391 61.2575
L185.5546 61.4730
" />
<path d="M185.0158 60.3416
L185.2852 60.6110
" />
<path d="M185.2852 60.6110
L185.0428 60.9073
" />
<path d="M185.0428 60.9073
L185.0428 60.8534
" />
<path d="M185.0428 60.8534
L185.0158 60.7726
" />
<path d="M185.0158 60.7726
L184.8811 60.6379
" />
<path d="M184.8811 60.6379
L184.8003 60.6110
" />
<path d="M184.8003 60.6110
L184.7464 60.6110
" />
<path d="M184.7464 60.6110
L184.6656 60.6379
" />
<path d="M184.6656 60.6379
L184.5309 60.7726
" />
<path d="M184.5309 60.7726
L184.5040 60.8534
" />
<path d="M184.5040 60.8534
L184.5040 60.9073
" />
<path d="M184.5040 60.9073
L184.5309 60.9881
" />
<path d="M184.5309 60.9881
L184.6656 61.1228
" />
<path d="M184.6656 61.1228
L184.7464 61.1498
" />
<path d="M184.7464 61.1498
L184.8003 61.1498
" />
</g><g transform="rotate(-45.000000 180.6462 35.6000)">
<text x="180.6462" y="36.0000"
textLength="6.0055" font-size="1.0667" lengthAdjust="spacingAndGlyphs"
text-anchor="middle" opacity="0">ADC_VREF</text>
</g>
<g class="stroked-text"><desc>ADC_VREF</desc>
<path d="M182.4856 37.6396
L182.2162 37.3702
" />
<path d="M182.3779 37.8551
L182.7550 37.1008
" />
<path d="M182.7550 37.1008
L182.0007 37.4779
" />
<path d="M181.8122 37.2894
L182.3779 36.7237
" />
<path d="M182.3779 36.7237
L182.2432 36.5890
" />
<path d="M182.2432 36.5890
L182.1354 36.5351
" />
<path d="M182.1354 36.5351
L182.0277 36.5351
" />
<path d="M182.0277 36.5351
L181.9469 36.5621
" />
<path d="M181.9469 36.5621
L181.8122 36.6429
" />
<path d="M181.8122 36.6429
L181.7314 36.7237
" />
<path d="M181.7314 36.7237
L181.6506 36.8584
" />
<path d="M181.6506 36.8584
L181.6236 36.9392
" />
<path d="M181.6236 36.9392
L181.6236 37.0469
" />
<path d="M181.6236 37.0469
L181.6775 37.1547
" />
<path d="M181.6775 37.1547
L181.8122 37.2894
" />
<path d="M180.9771 36.3466
L180.9771 36.4004
" />
<path d="M180.9771 36.4004
L181.0310 36.5082
" />
<path d="M181.0310 36.5082
L181.0849 36.5621
" />
<path d="M181.0849 36.5621
L181.1926 36.6159
" />
<path d="M181.1926 36.6159
L181.3004 36.6159
" />
<path d="M181.3004 36.6159
L181.3812 36.5890
" />
<path d="M181.3812 36.5890
L181.5159 36.5082
" />
<path d="M181.5159 36.5082
L181.5967 36.4274
" />
<path d="M181.5967 36.4274
L181.6775 36.2927
" />
<path d="M181.6775 36.2927
L181.7044 36.2119
" />
<path d="M181.7044 36.2119
L181.7044 36.1041
" />
<path d="M181.7044 36.1041
L181.6506 35.9964
" />
<path d="M181.6506 35.9964
L181.5967 35.9425
" />
<path d="M181.5967 35.9425
L181.4889 35.8886
" />
<path d="M181.4889 35.8886
L181.4351 35.8886
" />
<path d="M180.7616 36.3466
L180.3306 35.9156
" />
<path d="M180.8963 35.2421
L180.1421 35.6193
" />
<path d="M180.1421 35.6193
L180.5192 34.8650
" />
<path d="M179.4417 34.9189
L179.8996 34.8381
" />
<path d="M179.7649 35.2421
L180.3306 34.6765
" />
<path d="M180.3306 34.6765
L180.1151 34.4610
" />
<path d="M180.1151 34.4610
L180.0343 34.4340
" />
<path d="M180.0343 34.4340
L179.9804 34.4340
" />
<path d="M179.9804 34.4340
L179.8996 34.4610
" />
<path d="M179.8996 34.4610
L179.8188 34.5418
" />
<path d="M179.8188 34.5418
L179.7919 34.6226
" />
<path d="M179.7919 34.6226
L179.7919 34.6765
" />
<path d="M179.7919 34.6765
L179.8188 34.7573
" />
<path d="M179.8188 34.7573
L180.0343 34.9728
" />
<path d="M179.4956 34.3801
L179.3070 34.1916
" />
<path d="M178.9299 34.4071
L179.1993 34.6765
" />
<path d="M179.1993 34.6765
L179.7649 34.1108
" />
<path d="M179.7649 34.1108
L179.4956 33.8414
" />
<path d="M178.7952 33.6798
L178.9838 33.8683
" />
<path d="M178.6874 34.1646
L179.2531 33.5990
" />
<path d="M179.2531 33.5990
L178.9838 33.3296
" />
</g><g transform="rotate(-45.000000 218.4322 61.6000)">
<text x="218.4322" y="62.0000"
textLength="3.3388" font-size="1.0667" lengthAdjust="spacingAndGlyphs"
text-anchor="middle" opacity="0">GP15</text>
</g>
<g class="stroked-text"><desc>GP15</desc>
<path d="M219.3827 61.9964
L219.4635 62.0233
" />
<path d="M219.4635 62.0233
L219.5443 62.1041
" />
<path d="M219.5443 62.1041
L219.5982 62.2119
" />
<path d="M219.5982 62.2119
L219.5982 62.3196
" />
<path d="M219.5982 62.3196
L219.5712 62.4004
" />
<path d="M219.5712 62.4004
L219.4904 62.5351
" />
<path d="M219.4904 62.5351
L219.4096 62.6159
" />
<path d="M219.4096 62.6159
L219.2749 62.6968
" />
<path d="M219.2749 62.6968
L219.1941 62.7237
" />
<path d="M219.1941 62.7237
L219.0864 62.7237
" />
<path d="M219.0864 62.7237
L218.9786 62.6698
" />
<path d="M218.9786 62.6698
L218.9248 62.6159
" />
<path d="M218.9248 62.6159
L218.8709 62.5082
" />
<path d="M218.8709 62.5082
L218.8709 62.4543
" />
<path d="M218.8709 62.4543
L219.0594 62.2658
" />
<path d="M219.0594 62.2658
L219.1672 62.3735
" />
<path d="M218.5746 62.2658
L219.1402 61.7001
" />
<path d="M219.1402 61.7001
L218.9248 61.4846
" />
<path d="M218.9248 61.4846
L218.8439 61.4576
" />
<path d="M218.8439 61.4576
L218.7901 61.4576
" />
<path d="M218.7901 61.4576
L218.7093 61.4846
" />
<path d="M218.7093 61.4846
L218.6284 61.5654
" />
<path d="M218.6284 61.5654
L218.6015 61.6462
" />
<path d="M218.6015 61.6462
L218.6015 61.7001
" />
<path d="M218.6015 61.7001
L218.6284 61.7809
" />
<path d="M218.6284 61.7809
L218.8439 61.9964
" />
<path d="M217.7126 61.4038
L218.0358 61.7270
" />
<path d="M217.8742 61.5654
L218.4399 60.9997
" />
<path d="M218.4399 60.9997
L218.4129 61.1344
" />
<path d="M218.4129 61.1344
L218.4129 61.2421
" />
<path d="M218.4129 61.2421
L218.4399 61.3229
" />
<path d="M217.7664 60.3263
L218.0358 60.5956
" />
<path d="M218.0358 60.5956
L217.7934 60.8919
" />
<path d="M217.7934 60.8919
L217.7934 60.8381
" />
<path d="M217.7934 60.8381
L217.7664 60.7573
" />
<path d="M217.7664 60.7573
L217.6318 60.6226
" />
<path d="M217.6318 60.6226
L217.5509 60.5956
" />
<path d="M217.5509 60.5956
L217.4971 60.5956
" />
<path d="M217.4971 60.5956
L217.4163 60.6226
" />
<path d="M217.4163 60.6226
L217.2816 60.7573
" />
<path d="M217.2816 60.7573
L217.2546 60.8381
" />
<path d="M217.2546 60.8381
L217.2546 60.8919
" />
<path d="M217.2546 60.8919
L217.2816 60.9728
" />
<path d="M217.2816 60.9728
L217.4163 61.1074
" />
<path d="M217.4163 61.1074
L217.4971 61.1344
" />
<path d="M217.4971 61.1344
L217.5509 61.1344
" />
</g><g transform="rotate(-45.000000 171.5562 36.4000)">
<text x="171.5562" y="36.8000"
textLength="3.1102" font-size="1.0667" lengthAdjust="spacingAndGlyphs"
text-anchor="middle" opacity="0">VSYS</text>
</g>
<g class="stroked-text"><desc>VSYS</desc>
<path d="M172.8299 37.0658
L172.0757 37.4429
" />
<path d="M172.0757 37.4429
L172.4528 36.6886
" />
<path d="M171.7524 37.0658
L171.6447 37.0119
" />
<path d="M171.6447 37.0119
L171.5100 36.8772
" />
<path d="M171.5100 36.8772
L171.4831 36.7964
" />
<path d="M171.4831 36.7964
L171.4831 36.7425
" />
<path d="M171.4831 36.7425
L171.5100 36.6617
" />
<path d="M171.5100 36.6617
L171.5639 36.6078
" />
<path d="M171.5639 36.6078
L171.6447 36.5809
" />
<path d="M171.6447 36.5809
L171.6986 36.5809
" />
<path d="M171.6986 36.5809
L171.7794 36.6078
" />
<path d="M171.7794 36.6078
L171.9141 36.6886
" />
<path d="M171.9141 36.6886
L171.9949 36.7156
" />
<path d="M171.9949 36.7156
L172.0488 36.7156
" />
<path d="M172.0488 36.7156
L172.1296 36.6886
" />
<path d="M172.1296 36.6886
L172.1834 36.6348
" />
<path d="M172.1834 36.6348
L172.2104 36.5539
" />
<path d="M172.2104 36.5539
L172.2104 36.5001
" />
<path d="M172.2104 36.5001
L172.1834 36.4193
" />
<path d="M172.1834 36.4193
L172.0488 36.2846
" />
<path d="M172.0488 36.2846
L171.9410 36.2307
" />
<path d="M171.3214 36.1499
L171.0521 36.4193
" />
<path d="M171.8063 36.0421
L171.3214 36.1499
" />
<path d="M171.3214 36.1499
L171.4292 35.6650
" />
<path d="M170.7288 36.0421
L170.6211 35.9883
" />
<path d="M170.6211 35.9883
L170.4864 35.8536
" />
<path d="M170.4864 35.8536
L170.4594 35.7728
" />
<path d="M170.4594 35.7728
L170.4594 35.7189
" />
<path d="M170.4594 35.7189
L170.4864 35.6381
" />
<path d="M170.4864 35.6381
L170.5403 35.5842
" />
<path d="M170.5403 35.5842
L170.6211 35.5573
" />
<path d="M170.6211 35.5573
L170.6749 35.5573
" />
<path d="M170.6749 35.5573
L170.7558 35.5842
" />
<path d="M170.7558 35.5842
L170.8904 35.6650
" />
<path d="M170.8904 35.6650
L170.9713 35.6919
" />
<path d="M170.9713 35.6919
L171.0251 35.6919
" />
<path d="M171.0251 35.6919
L171.1059 35.6650
" />
<path d="M171.1059 35.6650
L171.1598 35.6111
" />
<path d="M171.1598 35.6111
L171.1868 35.5303
" />
<path d="M171.1868 35.5303
L171.1868 35.4765
" />
<path d="M171.1868 35.4765
L171.1598 35.3956
" />
<path d="M171.1598 35.3956
L171.0251 35.2610
" />
<path d="M171.0251 35.2610
L170.9174 35.2071
" />
</g><g transform="rotate(-90.000000 220.2022 43.4000)">
<text x="220.2022" y="43.8000"
textLength="3.9102" font-size="1.0667" lengthAdjust="spacingAndGlyphs"
text-anchor="middle" opacity="0">SWDIO</text>
</g>
<g class="stroked-text"><desc>SWDIO</desc>
<path d="M219.8702 45.0952
L219.8321 44.9810
" />
<path d="M219.8321 44.9810
L219.8321 44.7905
" />
<path d="M219.8321 44.7905
L219.8702 44.7143
" />
<path d="M219.8702 44.7143
L219.9083 44.6762
" />
<path d="M219.9083 44.6762
L219.9845 44.6381
" />
<path d="M219.9845 44.6381
L220.0607 44.6381
" />
<path d="M220.0607 44.6381
L220.1369 44.6762
" />
<path d="M220.1369 44.6762
L220.1750 44.7143
" />
<path d="M220.1750 44.7143
L220.2131 44.7905
" />
<path d="M220.2131 44.7905
L220.2512 44.9429
" />
<path d="M220.2512 44.9429
L220.2892 45.0190
" />
<path d="M220.2892 45.0190
L220.3273 45.0571
" />
<path d="M220.3273 45.0571
L220.4035 45.0952
" />
<path d="M220.4035 45.0952
L220.4797 45.0952
" />
<path d="M220.4797 45.0952
L220.5559 45.0571
" />
<path d="M220.5559 45.0571
L220.5940 45.0190
" />
<path d="M220.5940 45.0190
L220.6321 44.9429
" />
<path d="M220.6321 44.9429
L220.6321 44.7524
" />
<path d="M220.6321 44.7524
L220.5940 44.6381
" />
<path d="M220.6321 44.3714
L219.8321 44.1810
" />
<path d="M219.8321 44.1810
L220.4035 44.0286
" />
<path d="M220.4035 44.0286
L219.8321 43.8762
" />
<path d="M219.8321 43.8762
L220.6321 43.6857
" />
<path d="M219.8321 43.3810
L220.6321 43.3810
" />
<path d="M220.6321 43.3810
L220.6321 43.1905
" />
<path d="M220.6321 43.1905
L220.5940 43.0762
" />
<path d="M220.5940 43.0762
L220.5178 43.0000
" />
<path d="M220.5178 43.0000
L220.4416 42.9619
" />
<path d="M220.4416 42.9619
L220.2892 42.9238
" />
<path d="M220.2892 42.9238
L220.1750 42.9238
" />
<path d="M220.1750 42.9238
L220.0226 42.9619
" />
<path d="M220.0226 42.9619
L219.9464 43.0000
" />
<path d="M219.9464 43.0000
L219.8702 43.0762
" />
<path d="M219.8702 43.0762
L219.8321 43.1905
" />
<path d="M219.8321 43.1905
L219.8321 43.3810
" />
<path d="M219.8321 42.5810
L220.6321 42.5810
" />
<path d="M220.6321 42.0476
L220.6321 41.8952
" />
<path d="M220.6321 41.8952
L220.5940 41.8190
" />
<path d="M220.5940 41.8190
L220.5178 41.7429
" />
<path d="M220.5178 41.7429
L220.3654 41.7048
" />
<path d="M220.3654 41.7048
L220.0988 41.7048
" />
<path d="M220.0988 41.7048
L219.9464 41.7429
" />
<path d="M219.9464 41.7429
L219.8702 41.8190
" />
<path d="M219.8702 41.8190
L219.8321 41.8952
" />
<path d="M219.8321 41.8952
L219.8321 42.0476
" />
<path d="M219.8321 42.0476
L219.8702 42.1238
" />
<path d="M219.8702 42.1238
L219.9464 42.2000
" />
<path d="M219.9464 42.2000
L220.0988 42.2381
" />
<path d="M220.0988 42.2381
L220.3654 42.2381
" />
<path d="M220.3654 42.2381
L220.5178 42.2000
" />
<path d="M220.5178 42.2000
L220.5940 42.1238
" />
<path d="M220.5940 42.1238
L220.6321 42.0476
" />
</g><g transform="rotate(-45.000000 191.8762 36.5460)">
<text x="191.8762" y="36.9460"
textLength="3.3388" font-size="1.0667" lengthAdjust="spacingAndGlyphs"
text-anchor="middle" opacity="0">GP26</text>
</g>
<g class="stroked-text"><desc>GP26</desc>
<path d="M192.8267 36.9424
L192.9075 36.9693
" />
<path d="M192.9075 36.9693
L192.9883 37.0501
" />
<path d="M192.9883 37.0501
L193.0422 37.1579
" />
<path d="M193.0422 37.1579
L193.0422 37.2656
" />
<path d="M193.0422 37.2656
L193.0152 37.3464
" />
<path d="M193.0152 37.3464
L192.9344 37.4811
" />
<path d="M192.9344 37.4811
L192.8536 37.5619
" />
<path d="M192.8536 37.5619
L192.7189 37.6428
" />
<path d="M192.7189 37.6428
L192.6381 37.6697
" />
<path d="M192.6381 37.6697
L192.5304 37.6697
" />
<path d="M192.5304 37.6697
L192.4226 37.6158
" />
<path d="M192.4226 37.6158
L192.3688 37.5619
" />
<path d="M192.3688 37.5619
L192.3149 37.4542
" />
<path d="M192.3149 37.4542
L192.3149 37.4003
" />
<path d="M192.3149 37.4003
L192.5034 37.2118
" />
<path d="M192.5034 37.2118
L192.6112 37.3195
" />
<path d="M192.0186 37.2118
L192.5842 36.6461
" />
<path d="M192.5842 36.6461
L192.3688 36.4306
" />
<path d="M192.3688 36.4306
L192.2879 36.4036
" />
<path d="M192.2879 36.4036
L192.2341 36.4036
" />
<path d="M192.2341 36.4036
L192.1533 36.4306
" />
<path d="M192.1533 36.4306
L192.0724 36.5114
" />
<path d="M192.0724 36.5114
L192.0455 36.5922
" />
<path d="M192.0455 36.5922
L192.0455 36.6461
" />
<path d="M192.0455 36.6461
L192.0724 36.7269
" />
<path d="M192.0724 36.7269
L192.2879 36.9424
" />
<path d="M191.9916 36.1612
L191.9916 36.1073
" />
<path d="M191.9916 36.1073
L191.9647 36.0265
" />
<path d="M191.9647 36.0265
L191.8300 35.8918
" />
<path d="M191.8300 35.8918
L191.7492 35.8649
" />
<path d="M191.7492 35.8649
L191.6953 35.8649
" />
<path d="M191.6953 35.8649
L191.6145 35.8918
" />
<path d="M191.6145 35.8918
L191.5606 35.9457
" />
<path d="M191.5606 35.9457
L191.5068 36.0534
" />
<path d="M191.5068 36.0534
L191.5068 36.6999
" />
<path d="M191.5068 36.6999
L191.1566 36.3498
" />
<path d="M191.2374 35.2992
L191.3451 35.4070
" />
<path d="M191.3451 35.4070
L191.3721 35.4878
" />
<path d="M191.3721 35.4878
L191.3721 35.5416
" />
<path d="M191.3721 35.5416
L191.3451 35.6763
" />
<path d="M191.3451 35.6763
L191.2643 35.8110
" />
<path d="M191.2643 35.8110
L191.0488 36.0265
" />
<path d="M191.0488 36.0265
L190.9680 36.0534
" />
<path d="M190.9680 36.0534
L190.9141 36.0534
" />
<path d="M190.9141 36.0534
L190.8333 36.0265
" />
<path d="M190.8333 36.0265
L190.7256 35.9188
" />
<path d="M190.7256 35.9188
L190.6986 35.8379
" />
<path d="M190.6986 35.8379
L190.6986 35.7841
" />
<path d="M190.6986 35.7841
L190.7256 35.7033
" />
<path d="M190.7256 35.7033
L190.8603 35.5686
" />
<path d="M190.8603 35.5686
L190.9411 35.5416
" />
<path d="M190.9411 35.5416
L190.9949 35.5416
" />
<path d="M190.9949 35.5416
L191.0758 35.5686
" />
<path d="M191.0758 35.5686
L191.1835 35.6763
" />
<path d="M191.1835 35.6763
L191.2104 35.7571
" />
<path d="M191.2104 35.7571
L191.2104 35.8110
" />
<path d="M191.2104 35.8110
L191.1835 35.8918
" />
</g><g transform="rotate(-45.000000 187.9522 61.3460)">
<text x="187.9522" y="61.7460"
textLength="2.6531" font-size="1.0667" lengthAdjust="spacingAndGlyphs"
text-anchor="middle" opacity="0">GND</text>
</g>
<g class="stroked-text"><desc>GND</desc>
<path d="M188.6602 61.4999
L188.7411 61.5269
" />
<path d="M188.7411 61.5269
L188.8219 61.6077
" />
<path d="M188.8219 61.6077
L188.8757 61.7154
" />
<path d="M188.8757 61.7154
L188.8757 61.8232
" />
<path d="M188.8757 61.8232
L188.8488 61.9040
" />
<path d="M188.8488 61.9040
L188.7680 62.0387
" />
<path d="M188.7680 62.0387
L188.6872 62.1195
" />
<path d="M188.6872 62.1195
L188.5525 62.2003
" />
<path d="M188.5525 62.2003
L188.4717 62.2273
" />
<path d="M188.4717 62.2273
L188.3639 62.2273
" />
<path d="M188.3639 62.2273
L188.2562 62.1734
" />
<path d="M188.2562 62.1734
L188.2023 62.1195
" />
<path d="M188.2023 62.1195
L188.1484 62.0118
" />
<path d="M188.1484 62.0118
L188.1484 61.9579
" />
<path d="M188.1484 61.9579
L188.3370 61.7693
" />
<path d="M188.3370 61.7693
L188.4447 61.8771
" />
<path d="M187.8521 61.7693
L188.4178 61.2036
" />
<path d="M188.4178 61.2036
L187.5289 61.4461
" />
<path d="M187.5289 61.4461
L188.0946 60.8804
" />
<path d="M187.2595 61.1767
L187.8252 60.6110
" />
<path d="M187.8252 60.6110
L187.6905 60.4763
" />
<path d="M187.6905 60.4763
L187.5828 60.4224
" />
<path d="M187.5828 60.4224
L187.4750 60.4224
" />
<path d="M187.4750 60.4224
L187.3942 60.4494
" />
<path d="M187.3942 60.4494
L187.2595 60.5302
" />
<path d="M187.2595 60.5302
L187.1787 60.6110
" />
<path d="M187.1787 60.6110
L187.0979 60.7457
" />
<path d="M187.0979 60.7457
L187.0709 60.8265
" />
<path d="M187.0709 60.8265
L187.0709 60.9343
" />
<path d="M187.0709 60.9343
L187.1248 61.0420
" />
<path d="M187.1248 61.0420
L187.2595 61.1767
" />
</g><g transform="rotate(-45.000000 168.9462 36.3000)">
<text x="168.9462" y="36.7000"
textLength="3.3007" font-size="1.0667" lengthAdjust="spacingAndGlyphs"
text-anchor="middle" opacity="0">VBUS</text>
</g>
<g class="stroked-text"><desc>VBUS</desc>
<path d="M170.2873 37.0331
L169.5330 37.4102
" />
<path d="M169.5330 37.4102
L169.9102 36.6560
" />
<path d="M169.2637 36.5482
L169.1559 36.4944
" />
<path d="M169.1559 36.4944
L169.1020 36.4944
" />
<path d="M169.1020 36.4944
L169.0212 36.5213
" />
<path d="M169.0212 36.5213
L168.9404 36.6021
" />
<path d="M168.9404 36.6021
L168.9135 36.6829
" />
<path d="M168.9135 36.6829
L168.9135 36.7368
" />
<path d="M168.9135 36.7368
L168.9404 36.8176
" />
<path d="M168.9404 36.8176
L169.1559 37.0331
" />
<path d="M169.1559 37.0331
L169.7216 36.4674
" />
<path d="M169.7216 36.4674
L169.5330 36.2789
" />
<path d="M169.5330 36.2789
L169.4522 36.2519
" />
<path d="M169.4522 36.2519
L169.3983 36.2519
" />
<path d="M169.3983 36.2519
L169.3175 36.2789
" />
<path d="M169.3175 36.2789
L169.2637 36.3327
" />
<path d="M169.2637 36.3327
L169.2367 36.4135
" />
<path d="M169.2367 36.4135
L169.2367 36.4674
" />
<path d="M169.2367 36.4674
L169.2637 36.5482
" />
<path d="M169.2637 36.5482
L169.4522 36.7368
" />
<path d="M169.1559 35.9017
L168.6980 36.3597
" />
<path d="M168.6980 36.3597
L168.6172 36.3866
" />
<path d="M168.6172 36.3866
L168.5633 36.3866
" />
<path d="M168.5633 36.3866
L168.4825 36.3597
" />
<path d="M168.4825 36.3597
L168.3747 36.2519
" />
<path d="M168.3747 36.2519
L168.3478 36.1711
" />
<path d="M168.3478 36.1711
L168.3478 36.1172
" />
<path d="M168.3478 36.1172
L168.3747 36.0364
" />
<path d="M168.3747 36.0364
L168.8327 35.5785
" />
<path d="M168.0515 35.8748
L167.9437 35.8209
" />
<path d="M167.9437 35.8209
L167.8090 35.6862
" />
<path d="M167.8090 35.6862
L167.7821 35.6054
" />
<path d="M167.7821 35.6054
L167.7821 35.5515
" />
<path d="M167.7821 35.5515
L167.8090 35.4707
" />
<path d="M167.8090 35.4707
L167.8629 35.4169
" />
<path d="M167.8629 35.4169
L167.9437 35.3899
" />
<path d="M167.9437 35.3899
L167.9976 35.3899
" />
<path d="M167.9976 35.3899
L168.0784 35.4169
" />
<path d="M168.0784 35.4169
L168.2131 35.4977
" />
<path d="M168.2131 35.4977
L168.2939 35.5246
" />
<path d="M168.2939 35.5246
L168.3478 35.5246
" />
<path d="M168.3478 35.5246
L168.4286 35.4977
" />
<path d="M168.4286 35.4977
L168.4825 35.4438
" />
<path d="M168.4825 35.4438
L168.5094 35.3630
" />
<path d="M168.5094 35.3630
L168.5094 35.3091
" />
<path d="M168.5094 35.3091
L168.4825 35.2283
" />
<path d="M168.4825 35.2283
L168.3478 35.0936
" />
<path d="M168.3478 35.0936
L168.2400 35.0397
" />
</g><g transform="rotate(-45.000000 210.8122 61.6000)">
<text x="210.8122" y="62.0000"
textLength="3.3388" font-size="1.0667" lengthAdjust="spacingAndGlyphs"
text-anchor="middle" opacity="0">GP13</text>
</g>
<g class="stroked-text"><desc>GP13</desc>
<path d="M211.7627 61.9964
L211.8435 62.0233
" />
<path d="M211.8435 62.0233
L211.9243 62.1041
" />
<path d="M211.9243 62.1041
L211.9782 62.2119
" />
<path d="M211.9782 62.2119
L211.9782 62.3196
" />
<path d="M211.9782 62.3196
L211.9512 62.4004
" />
<path d="M211.9512 62.4004
L211.8704 62.5351
" />
<path d="M211.8704 62.5351
L211.7896 62.6159
" />
<path d="M211.7896 62.6159
L211.6549 62.6968
" />
<path d="M211.6549 62.6968
L211.5741 62.7237
" />
<path d="M211.5741 62.7237
L211.4664 62.7237
" />
<path d="M211.4664 62.7237
L211.3586 62.6698
" />
<path d="M211.3586 62.6698
L211.3048 62.6159
" />
<path d="M211.3048 62.6159
L211.2509 62.5082
" />
<path d="M211.2509 62.5082
L211.2509 62.4543
" />
<path d="M211.2509 62.4543
L211.4394 62.2658
" />
<path d="M211.4394 62.2658
L211.5472 62.3735
" />
<path d="M210.9546 62.2658
L211.5203 61.7001
" />
<path d="M211.5203 61.7001
L211.3048 61.4846
" />
<path d="M211.3048 61.4846
L211.2239 61.4576
" />
<path d="M211.2239 61.4576
L211.1701 61.4576
" />
<path d="M211.1701 61.4576
L211.0893 61.4846
" />
<path d="M211.0893 61.4846
L211.0084 61.5654
" />
<path d="M211.0084 61.5654
L210.9815 61.6462
" />
<path d="M210.9815 61.6462
L210.9815 61.7001
" />
<path d="M210.9815 61.7001
L211.0084 61.7809
" />
<path d="M211.0084 61.7809
L211.2239 61.9964
" />
<path d="M210.0926 61.4038
L210.4158 61.7270
" />
<path d="M210.2542 61.5654
L210.8199 60.9997
" />
<path d="M210.8199 60.9997
L210.7929 61.1344
" />
<path d="M210.7929 61.1344
L210.7929 61.2421
" />
<path d="M210.7929 61.2421
L210.8199 61.3229
" />
<path d="M210.4697 60.6495
L210.1195 60.2993
" />
<path d="M210.1195 60.2993
L210.0926 60.7034
" />
<path d="M210.0926 60.7034
L210.0118 60.6226
" />
<path d="M210.0118 60.6226
L209.9309 60.5956
" />
<path d="M209.9309 60.5956
L209.8771 60.5956
" />
<path d="M209.8771 60.5956
L209.7963 60.6226
" />
<path d="M209.7963 60.6226
L209.6616 60.7573
" />
<path d="M209.6616 60.7573
L209.6346 60.8381
" />
<path d="M209.6346 60.8381
L209.6346 60.8919
" />
<path d="M209.6346 60.8919
L209.6616 60.9728
" />
<path d="M209.6616 60.9728
L209.8232 61.1344
" />
<path d="M209.8232 61.1344
L209.9040 61.1613
" />
<path d="M209.9040 61.1613
L209.9579 61.1613
" />
</g><g transform="rotate(-45.000000 207.1162 36.5460)">
<text x="207.1162" y="36.9460"
textLength="3.3388" font-size="1.0667" lengthAdjust="spacingAndGlyphs"
text-anchor="middle" opacity="0">GP19</text>
</g>
<g class="stroked-text"><desc>GP19</desc>
<path d="M208.0667 36.9424
L208.1475 36.9693
" />
<path d="M208.1475 36.9693
L208.2283 37.0501
" />
<path d="M208.2283 37.0501
L208.2822 37.1579
" />
<path d="M208.2822 37.1579
L208.2822 37.2656
" />
<path d="M208.2822 37.2656
L208.2552 37.3464
" />
<path d="M208.2552 37.3464
L208.1744 37.4811
" />
<path d="M208.1744 37.4811
L208.0936 37.5619
" />
<path d="M208.0936 37.5619
L207.9589 37.6428
" />
<path d="M207.9589 37.6428
L207.8781 37.6697
" />
<path d="M207.8781 37.6697
L207.7704 37.6697
" />
<path d="M207.7704 37.6697
L207.6626 37.6158
" />
<path d="M207.6626 37.6158
L207.6088 37.5619
" />
<path d="M207.6088 37.5619
L207.5549 37.4542
" />
<path d="M207.5549 37.4542
L207.5549 37.4003
" />
<path d="M207.5549 37.4003
L207.7434 37.2118
" />
<path d="M207.7434 37.2118
L207.8512 37.3195
" />
<path d="M207.2586 37.2118
L207.8242 36.6461
" />
<path d="M207.8242 36.6461
L207.6088 36.4306
" />
<path d="M207.6088 36.4306
L207.5279 36.4036
" />
<path d="M207.5279 36.4036
L207.4741 36.4036
" />
<path d="M207.4741 36.4036
L207.3933 36.4306
" />
<path d="M207.3933 36.4306
L207.3124 36.5114
" />
<path d="M207.3124 36.5114
L207.2855 36.5922
" />
<path d="M207.2855 36.5922
L207.2855 36.6461
" />
<path d="M207.2855 36.6461
L207.3124 36.7269
" />
<path d="M207.3124 36.7269
L207.5279 36.9424
" />
<path d="M206.3966 36.3498
L206.7198 36.6730
" />
<path d="M206.5582 36.5114
L207.1239 35.9457
" />
<path d="M207.1239 35.9457
L207.0969 36.0804
" />
<path d="M207.0969 36.0804
L207.0969 36.1881
" />
<path d="M207.0969 36.1881
L207.1239 36.2689
" />
<path d="M206.1272 36.0804
L206.0194 35.9726
" />
<path d="M206.0194 35.9726
L205.9925 35.8918
" />
<path d="M205.9925 35.8918
L205.9925 35.8379
" />
<path d="M205.9925 35.8379
L206.0194 35.7033
" />
<path d="M206.0194 35.7033
L206.1003 35.5686
" />
<path d="M206.1003 35.5686
L206.3158 35.3531
" />
<path d="M206.3158 35.3531
L206.3966 35.3261
" />
<path d="M206.3966 35.3261
L206.4504 35.3261
" />
<path d="M206.4504 35.3261
L206.5313 35.3531
" />
<path d="M206.5313 35.3531
L206.6390 35.4608
" />
<path d="M206.6390 35.4608
L206.6659 35.5416
" />
<path d="M206.6659 35.5416
L206.6659 35.5955
" />
<path d="M206.6659 35.5955
L206.6390 35.6763
" />
<path d="M206.6390 35.6763
L206.5043 35.8110
" />
<path d="M206.5043 35.8110
L206.4235 35.8379
" />
<path d="M206.4235 35.8379
L206.3696 35.8379
" />
<path d="M206.3696 35.8379
L206.2888 35.8110
" />
<path d="M206.2888 35.8110
L206.1811 35.7033
" />
<path d="M206.1811 35.7033
L206.1541 35.6225
" />
<path d="M206.1541 35.6225
L206.1541 35.5686
" />
<path d="M206.1541 35.5686
L206.1811 35.4878
" />
</g><g transform="rotate(-45.000000 208.2722 61.7460)">
<text x="208.2722" y="62.1460"
textLength="3.3388" font-size="1.0667" lengthAdjust="spacingAndGlyphs"
text-anchor="middle" opacity="0">GP12</text>
</g>
<g class="stroked-text"><desc>GP12</desc>
<path d="M209.2227 62.1424
L209.3035 62.1693
" />
<path d="M209.3035 62.1693
L209.3843 62.2501
" />
<path d="M209.3843 62.2501
L209.4382 62.3579
" />
<path d="M209.4382 62.3579
L209.4382 62.4656
" />
<path d="M209.4382 62.4656
L209.4112 62.5464
" />
<path d="M209.4112 62.5464
L209.3304 62.6811
" />
<path d="M209.3304 62.6811
L209.2496 62.7619
" />
<path d="M209.2496 62.7619
L209.1149 62.8428
" />
<path d="M209.1149 62.8428
L209.0341 62.8697
" />
<path d="M209.0341 62.8697
L208.9264 62.8697
" />
<path d="M208.9264 62.8697
L208.8186 62.8158
" />
<path d="M208.8186 62.8158
L208.7648 62.7619
" />
<path d="M208.7648 62.7619
L208.7109 62.6542
" />
<path d="M208.7109 62.6542
L208.7109 62.6003
" />
<path d="M208.7109 62.6003
L208.8994 62.4118
" />
<path d="M208.8994 62.4118
L209.0072 62.5195
" />
<path d="M208.4146 62.4118
L208.9802 61.8461
" />
<path d="M208.9802 61.8461
L208.7648 61.6306
" />
<path d="M208.7648 61.6306
L208.6839 61.6036
" />
<path d="M208.6839 61.6036
L208.6301 61.6036
" />
<path d="M208.6301 61.6036
L208.5493 61.6306
" />
<path d="M208.5493 61.6306
L208.4684 61.7114
" />
<path d="M208.4684 61.7114
L208.4415 61.7922
" />
<path d="M208.4415 61.7922
L208.4415 61.8461
" />
<path d="M208.4415 61.8461
L208.4684 61.9269
" />
<path d="M208.4684 61.9269
L208.6839 62.1424
" />
<path d="M207.5526 61.5498
L207.8758 61.8730
" />
<path d="M207.7142 61.7114
L208.2799 61.1457
" />
<path d="M208.2799 61.1457
L208.2529 61.2804
" />
<path d="M208.2529 61.2804
L208.2529 61.3881
" />
<path d="M208.2529 61.3881
L208.2799 61.4689
" />
<path d="M207.8489 60.8225
L207.8489 60.7686
" />
<path d="M207.8489 60.7686
L207.8219 60.6878
" />
<path d="M207.8219 60.6878
L207.6873 60.5531
" />
<path d="M207.6873 60.5531
L207.6064 60.5261
" />
<path d="M207.6064 60.5261
L207.5526 60.5261
" />
<path d="M207.5526 60.5261
L207.4718 60.5531
" />
<path d="M207.4718 60.5531
L207.4179 60.6070
" />
<path d="M207.4179 60.6070
L207.3640 60.7147
" />
<path d="M207.3640 60.7147
L207.3640 61.3612
" />
<path d="M207.3640 61.3612
L207.0138 61.0110
" />
</g><g transform="rotate(-45.000000 190.4922 61.3460)">
<text x="190.4922" y="61.7460"
textLength="2.5769" font-size="1.0667" lengthAdjust="spacingAndGlyphs"
text-anchor="middle" opacity="0">GP6</text>
</g>
<g class="stroked-text"><desc>GP6</desc>
<path d="M191.1733 61.4730
L191.2541 61.4999
" />
<path d="M191.2541 61.4999
L191.3349 61.5808
" />
<path d="M191.3349 61.5808
L191.3888 61.6885
" />
<path d="M191.3888 61.6885
L191.3888 61.7963
" />
<path d="M191.3888 61.7963
L191.3619 61.8771
" />
<path d="M191.3619 61.8771
L191.2811 62.0118
" />
<path d="M191.2811 62.0118
L191.2002 62.0926
" />
<path d="M191.2002 62.0926
L191.0656 62.1734
" />
<path d="M191.0656 62.1734
L190.9848 62.2003
" />
<path d="M190.9848 62.2003
L190.8770 62.2003
" />
<path d="M190.8770 62.2003
L190.7693 62.1464
" />
<path d="M190.7693 62.1464
L190.7154 62.0926
" />
<path d="M190.7154 62.0926
L190.6615 61.9848
" />
<path d="M190.6615 61.9848
L190.6615 61.9309
" />
<path d="M190.6615 61.9309
L190.8501 61.7424
" />
<path d="M190.8501 61.7424
L190.9578 61.8501
" />
<path d="M190.3652 61.7424
L190.9309 61.1767
" />
<path d="M190.9309 61.1767
L190.7154 60.9612
" />
<path d="M190.7154 60.9612
L190.6346 60.9343
" />
<path d="M190.6346 60.9343
L190.5807 60.9343
" />
<path d="M190.5807 60.9343
L190.4999 60.9612
" />
<path d="M190.4999 60.9612
L190.4191 61.0420
" />
<path d="M190.4191 61.0420
L190.3921 61.1228
" />
<path d="M190.3921 61.1228
L190.3921 61.1767
" />
<path d="M190.3921 61.1767
L190.4191 61.2575
" />
<path d="M190.4191 61.2575
L190.6346 61.4730
" />
<path d="M190.1228 60.3686
L190.2305 60.4763
" />
<path d="M190.2305 60.4763
L190.2574 60.5571
" />
<path d="M190.2574 60.5571
L190.2574 60.6110
" />
<path d="M190.2574 60.6110
L190.2305 60.7457
" />
<path d="M190.2305 60.7457
L190.1497 60.8804
" />
<path d="M190.1497 60.8804
L189.9342 61.0959
" />
<path d="M189.9342 61.0959
L189.8534 61.1228
" />
<path d="M189.8534 61.1228
L189.7995 61.1228
" />
<path d="M189.7995 61.1228
L189.7187 61.0959
" />
<path d="M189.7187 61.0959
L189.6109 60.9881
" />
<path d="M189.6109 60.9881
L189.5840 60.9073
" />
<path d="M189.5840 60.9073
L189.5840 60.8534
" />
<path d="M189.5840 60.8534
L189.6109 60.7726
" />
<path d="M189.6109 60.7726
L189.7456 60.6379
" />
<path d="M189.7456 60.6379
L189.8264 60.6110
" />
<path d="M189.8264 60.6110
L189.8803 60.6110
" />
<path d="M189.8803 60.6110
L189.9611 60.6379
" />
<path d="M189.9611 60.6379
L190.0689 60.7457
" />
<path d="M190.0689 60.7457
L190.0958 60.8265
" />
<path d="M190.0958 60.8265
L190.0958 60.8804
" />
<path d="M190.0958 60.8804
L190.0689 60.9612
" />
</g><g transform="rotate(-45.000000 172.7022 61.4460)">
<text x="172.7022" y="61.8460"
textLength="2.5769" font-size="1.0667" lengthAdjust="spacingAndGlyphs"
text-anchor="middle" opacity="0">GP1</text>
</g>
<g class="stroked-text"><desc>GP1</desc>
<path d="M173.3833 61.5730
L173.4641 61.5999
" />
<path d="M173.4641 61.5999
L173.5449 61.6808
" />
<path d="M173.5449 61.6808
L173.5988 61.7885
" />
<path d="M173.5988 61.7885
L173.5988 61.8963
" />
<path d="M173.5988 61.8963
L173.5719 61.9771
" />
<path d="M173.5719 61.9771
L173.4911 62.1118
" />
<path d="M173.4911 62.1118
L173.4102 62.1926
" />
<path d="M173.4102 62.1926
L173.2756 62.2734
" />
<path d="M173.2756 62.2734
L173.1948 62.3003
" />
<path d="M173.1948 62.3003
L173.0870 62.3003
" />
<path d="M173.0870 62.3003
L172.9793 62.2464
" />
<path d="M172.9793 62.2464
L172.9254 62.1926
" />
<path d="M172.9254 62.1926
L172.8715 62.0848
" />
<path d="M172.8715 62.0848
L172.8715 62.0309
" />
<path d="M172.8715 62.0309
L173.0601 61.8424
" />
<path d="M173.0601 61.8424
L173.1678 61.9501
" />
<path d="M172.5752 61.8424
L173.1409 61.2767
" />
<path d="M173.1409 61.2767
L172.9254 61.0612
" />
<path d="M172.9254 61.0612
L172.8446 61.0343
" />
<path d="M172.8446 61.0343
L172.7907 61.0343
" />
<path d="M172.7907 61.0343
L172.7099 61.0612
" />
<path d="M172.7099 61.0612
L172.6291 61.1420
" />
<path d="M172.6291 61.1420
L172.6021 61.2228
" />
<path d="M172.6021 61.2228
L172.6021 61.2767
" />
<path d="M172.6021 61.2767
L172.6291 61.3575
" />
<path d="M172.6291 61.3575
L172.8446 61.5730
" />
<path d="M171.7132 60.9804
L172.0364 61.3036
" />
<path d="M171.8748 61.1420
L172.4405 60.5763
" />
<path d="M172.4405 60.5763
L172.4136 60.7110
" />
<path d="M172.4136 60.7110
L172.4136 60.8188
" />
<path d="M172.4136 60.8188
L172.4405 60.8996
" />
</g><g transform="rotate(-45.000000 194.4162 36.6000)">
<text x="194.4162" y="37.0000"
textLength="2.6912" font-size="1.0667" lengthAdjust="spacingAndGlyphs"
text-anchor="middle" opacity="0">RUN</text>
</g>
<g class="stroked-text"><desc>RUN</desc>
<path d="M194.5720 37.2792
L195.0300 37.1984
" />
<path d="M194.8953 37.6025
L195.4610 37.0368
" />
<path d="M195.4610 37.0368
L195.2455 36.8213
" />
<path d="M195.2455 36.8213
L195.1647 36.7944
" />
<path d="M195.1647 36.7944
L195.1108 36.7944
" />
<path d="M195.1108 36.7944
L195.0300 36.8213
" />
<path d="M195.0300 36.8213
L194.9492 36.9021
" />
<path d="M194.9492 36.9021
L194.9222 36.9829
" />
<path d="M194.9222 36.9829
L194.9222 37.0368
" />
<path d="M194.9222 37.0368
L194.9492 37.1176
" />
<path d="M194.9492 37.1176
L195.1647 37.3331
" />
<path d="M194.8953 36.4711
L194.4373 36.9290
" />
<path d="M194.4373 36.9290
L194.3565 36.9560
" />
<path d="M194.3565 36.9560
L194.3027 36.9560
" />
<path d="M194.3027 36.9560
L194.2218 36.9290
" />
<path d="M194.2218 36.9290
L194.1141 36.8213
" />
<path d="M194.1141 36.8213
L194.0872 36.7405
" />
<path d="M194.0872 36.7405
L194.0872 36.6866
" />
<path d="M194.0872 36.6866
L194.1141 36.6058
" />
<path d="M194.1141 36.6058
L194.5720 36.1479
" />
<path d="M193.7370 36.4442
L194.3027 35.8785
" />
<path d="M194.3027 35.8785
L193.4137 36.1209
" />
<path d="M193.4137 36.1209
L193.9794 35.5552
" />
</g><g transform="rotate(-45.000000 209.6562 36.5460)">
<text x="209.6562" y="36.9460"
textLength="3.3388" font-size="1.0667" lengthAdjust="spacingAndGlyphs"
text-anchor="middle" opacity="0">GP18</text>
</g>
<g class="stroked-text"><desc>GP18</desc>
<path d="M210.6067 36.9424
L210.6875 36.9693
" />
<path d="M210.6875 36.9693
L210.7683 37.0501
" />
<path d="M210.7683 37.0501
L210.8222 37.1579
" />
<path d="M210.8222 37.1579
L210.8222 37.2656
" />
<path d="M210.8222 37.2656
L210.7952 37.3464
" />
<path d="M210.7952 37.3464
L210.7144 37.4811
" />
<path d="M210.7144 37.4811
L210.6336 37.5619
" />
<path d="M210.6336 37.5619
L210.4989 37.6428
" />
<path d="M210.4989 37.6428
L210.4181 37.6697
" />
<path d="M210.4181 37.6697
L210.3104 37.6697
" />
<path d="M210.3104 37.6697
L210.2026 37.6158
" />
<path d="M210.2026 37.6158
L210.1488 37.5619
" />
<path d="M210.1488 37.5619
L210.0949 37.4542
" />
<path d="M210.0949 37.4542
L210.0949 37.4003
" />
<path d="M210.0949 37.4003
L210.2834 37.2118
" />
<path d="M210.2834 37.2118
L210.3912 37.3195
" />
<path d="M209.7986 37.2118
L210.3642 36.6461
" />
<path d="M210.3642 36.6461
L210.1488 36.4306
" />
<path d="M210.1488 36.4306
L210.0679 36.4036
" />
<path d="M210.0679 36.4036
L210.0141 36.4036
" />
<path d="M210.0141 36.4036
L209.9333 36.4306
" />
<path d="M209.9333 36.4306
L209.8524 36.5114
" />
<path d="M209.8524 36.5114
L209.8255 36.5922
" />
<path d="M209.8255 36.5922
L209.8255 36.6461
" />
<path d="M209.8255 36.6461
L209.8524 36.7269
" />
<path d="M209.8524 36.7269
L210.0679 36.9424
" />
<path d="M208.9366 36.3498
L209.2598 36.6730
" />
<path d="M209.0982 36.5114
L209.6639 35.9457
" />
<path d="M209.6639 35.9457
L209.6369 36.0804
" />
<path d="M209.6369 36.0804
L209.6369 36.1881
" />
<path d="M209.6369 36.1881
L209.6639 36.2689
" />
<path d="M208.9366 35.7033
L209.0174 35.7302
" />
<path d="M209.0174 35.7302
L209.0713 35.7302
" />
<path d="M209.0713 35.7302
L209.1521 35.7033
" />
<path d="M209.1521 35.7033
L209.1790 35.6763
" />
<path d="M209.1790 35.6763
L209.2059 35.5955
" />
<path d="M209.2059 35.5955
L209.2059 35.5416
" />
<path d="M209.2059 35.5416
L209.1790 35.4608
" />
<path d="M209.1790 35.4608
L209.0713 35.3531
" />
<path d="M209.0713 35.3531
L208.9904 35.3261
" />
<path d="M208.9904 35.3261
L208.9366 35.3261
" />
<path d="M208.9366 35.3261
L208.8558 35.3531
" />
<path d="M208.8558 35.3531
L208.8288 35.3800
" />
<path d="M208.8288 35.3800
L208.8019 35.4608
" />
<path d="M208.8019 35.4608
L208.8019 35.5147
" />
<path d="M208.8019 35.5147
L208.8288 35.5955
" />
<path d="M208.8288 35.5955
L208.9366 35.7033
" />
<path d="M208.9366 35.7033
L208.9635 35.7841
" />
<path d="M208.9635 35.7841
L208.9635 35.8379
" />
<path d="M208.9635 35.8379
L208.9366 35.9188
" />
<path d="M208.9366 35.9188
L208.8288 36.0265
" />
<path d="M208.8288 36.0265
L208.7480 36.0534
" />
<path d="M208.7480 36.0534
L208.6941 36.0534
" />
<path d="M208.6941 36.0534
L208.6133 36.0265
" />
<path d="M208.6133 36.0265
L208.5056 35.9188
" />
<path d="M208.5056 35.9188
L208.4786 35.8379
" />
<path d="M208.4786 35.8379
L208.4786 35.7841
" />
<path d="M208.4786 35.7841
L208.5056 35.7033
" />
<path d="M208.5056 35.7033
L208.6133 35.5955
" />
<path d="M208.6133 35.5955
L208.6941 35.5686
" />
<path d="M208.6941 35.5686
L208.7480 35.5686
" />
<path d="M208.7480 35.5686
L208.8288 35.5955
" />
</g><g transform="rotate(-45.000000 180.3322 61.3460)">
<text x="180.3322" y="61.7460"
textLength="2.5769" font-size="1.0667" lengthAdjust="spacingAndGlyphs"
text-anchor="middle" opacity="0">GP3</text>
</g>
<g class="stroked-text"><desc>GP3</desc>
<path d="M181.0133 61.4730
L181.0941 61.4999
" />
<path d="M181.0941 61.4999
L181.1749 61.5808
" />
<path d="M181.1749 61.5808
L181.2288 61.6885
" />
<path d="M181.2288 61.6885
L181.2288 61.7963
" />
<path d="M181.2288 61.7963
L181.2019 61.8771
" />
<path d="M181.2019 61.8771
L181.1211 62.0118
" />
<path d="M181.1211 62.0118
L181.0402 62.0926
" />
<path d="M181.0402 62.0926
L180.9056 62.1734
" />
<path d="M180.9056 62.1734
L180.8248 62.2003
" />
<path d="M180.8248 62.2003
L180.7170 62.2003
" />
<path d="M180.7170 62.2003
L180.6093 62.1464
" />
<path d="M180.6093 62.1464
L180.5554 62.0926
" />
<path d="M180.5554 62.0926
L180.5015 61.9848
" />
<path d="M180.5015 61.9848
L180.5015 61.9309
" />
<path d="M180.5015 61.9309
L180.6901 61.7424
" />
<path d="M180.6901 61.7424
L180.7978 61.8501
" />
<path d="M180.2052 61.7424
L180.7709 61.1767
" />
<path d="M180.7709 61.1767
L180.5554 60.9612
" />
<path d="M180.5554 60.9612
L180.4746 60.9343
" />
<path d="M180.4746 60.9343
L180.4207 60.9343
" />
<path d="M180.4207 60.9343
L180.3399 60.9612
" />
<path d="M180.3399 60.9612
L180.2591 61.0420
" />
<path d="M180.2591 61.0420
L180.2321 61.1228
" />
<path d="M180.2321 61.1228
L180.2321 61.1767
" />
<path d="M180.2321 61.1767
L180.2591 61.2575
" />
<path d="M180.2591 61.2575
L180.4746 61.4730
" />
<path d="M180.2591 60.6649
L179.9089 60.3147
" />
<path d="M179.9089 60.3147
L179.8819 60.7188
" />
<path d="M179.8819 60.7188
L179.8011 60.6379
" />
<path d="M179.8011 60.6379
L179.7203 60.6110
" />
<path d="M179.7203 60.6110
L179.6664 60.6110
" />
<path d="M179.6664 60.6110
L179.5856 60.6379
" />
<path d="M179.5856 60.6379
L179.4509 60.7726
" />
<path d="M179.4509 60.7726
L179.4240 60.8534
" />
<path d="M179.4240 60.8534
L179.4240 60.9073
" />
<path d="M179.4240 60.9073
L179.4509 60.9881
" />
<path d="M179.4509 60.9881
L179.6126 61.1498
" />
<path d="M179.6126 61.1498
L179.6934 61.1767
" />
<path d="M179.6934 61.1767
L179.7473 61.1767
" />
</g><g transform="rotate(-45.000000 214.7362 36.5460)">
<text x="214.7362" y="36.9460"
textLength="3.3388" font-size="1.0667" lengthAdjust="spacingAndGlyphs"
text-anchor="middle" opacity="0">GP17</text>
</g>
<g class="stroked-text"><desc>GP17</desc>
<path d="M215.6867 36.9424
L215.7675 36.9693
" />
<path d="M215.7675 36.9693
L215.8483 37.0501
" />
<path d="M215.8483 37.0501
L215.9022 37.1579
" />
<path d="M215.9022 37.1579
L215.9022 37.2656
" />
<path d="M215.9022 37.2656
L215.8752 37.3464
" />
<path d="M215.8752 37.3464
L215.7944 37.4811
" />
<path d="M215.7944 37.4811
L215.7136 37.5619
" />
<path d="M215.7136 37.5619
L215.5789 37.6428
" />
<path d="M215.5789 37.6428
L215.4981 37.6697
" />
<path d="M215.4981 37.6697
L215.3904 37.6697
" />
<path d="M215.3904 37.6697
L215.2826 37.6158
" />
<path d="M215.2826 37.6158
L215.2288 37.5619
" />
<path d="M215.2288 37.5619
L215.1749 37.4542
" />
<path d="M215.1749 37.4542
L215.1749 37.4003
" />
<path d="M215.1749 37.4003
L215.3634 37.2118
" />
<path d="M215.3634 37.2118
L215.4712 37.3195
" />
<path d="M214.8786 37.2118
L215.4442 36.6461
" />
<path d="M215.4442 36.6461
L215.2288 36.4306
" />
<path d="M215.2288 36.4306
L215.1479 36.4036
" />
<path d="M215.1479 36.4036
L215.0941 36.4036
" />
<path d="M215.0941 36.4036
L215.0133 36.4306
" />
<path d="M215.0133 36.4306
L214.9324 36.5114
" />
<path d="M214.9324 36.5114
L214.9055 36.5922
" />
<path d="M214.9055 36.5922
L214.9055 36.6461
" />
<path d="M214.9055 36.6461
L214.9324 36.7269
" />
<path d="M214.9324 36.7269
L215.1479 36.9424
" />
<path d="M214.0166 36.3498
L214.3398 36.6730
" />
<path d="M214.1782 36.5114
L214.7439 35.9457
" />
<path d="M214.7439 35.9457
L214.7169 36.0804
" />
<path d="M214.7169 36.0804
L214.7169 36.1881
" />
<path d="M214.7169 36.1881
L214.7439 36.2689
" />
<path d="M214.3937 35.5955
L214.0166 35.2184
" />
<path d="M214.0166 35.2184
L213.6933 36.0265
" />
</g><g transform="rotate(-45.000000 177.7922 61.4460)">
<text x="177.7922" y="61.8460"
textLength="2.5769" font-size="1.0667" lengthAdjust="spacingAndGlyphs"
text-anchor="middle" opacity="0">GP2</text>
</g>
<g class="stroked-text"><desc>GP2</desc>
<path d="M178.4733 61.5730
L178.5541 61.5999
" />
<path d="M178.5541 61.5999
L178.6349 61.6808
" />
<path d="M178.6349 61.6808
L178.6888 61.7885
" />
<path d="M178.6888 61.7885
L178.6888 61.8963
" />
<path d="M178.6888 61.8963
L178.6619 61.9771
" />
<path d="M178.6619 61.9771
L178.5811 62.1118
" />
<path d="M178.5811 62.1118
L178.5002 62.1926
" />
<path d="M178.5002 62.1926
L178.3656 62.2734
" />
<path d="M178.3656 62.2734
L178.2848 62.3003
" />
<path d="M178.2848 62.3003
L178.1770 62.3003
" />
<path d="M178.1770 62.3003
L178.0693 62.2464
" />
<path d="M178.0693 62.2464
L178.0154 62.1926
" />
<path d="M178.0154 62.1926
L177.9615 62.0848
" />
<path d="M177.9615 62.0848
L177.9615 62.0309
" />
<path d="M177.9615 62.0309
L178.1501 61.8424
" />
<path d="M178.1501 61.8424
L178.2578 61.9501
" />
<path d="M177.6652 61.8424
L178.2309 61.2767
" />
<path d="M178.2309 61.2767
L178.0154 61.0612
" />
<path d="M178.0154 61.0612
L177.9346 61.0343
" />
<path d="M177.9346 61.0343
L177.8807 61.0343
" />
<path d="M177.8807 61.0343
L177.7999 61.0612
" />
<path d="M177.7999 61.0612
L177.7191 61.1420
" />
<path d="M177.7191 61.1420
L177.6921 61.2228
" />
<path d="M177.6921 61.2228
L177.6921 61.2767
" />
<path d="M177.6921 61.2767
L177.7191 61.3575
" />
<path d="M177.7191 61.3575
L177.9346 61.5730
" />
<path d="M177.6383 60.7918
L177.6383 60.7379
" />
<path d="M177.6383 60.7379
L177.6113 60.6571
" />
<path d="M177.6113 60.6571
L177.4766 60.5224
" />
<path d="M177.4766 60.5224
L177.3958 60.4955
" />
<path d="M177.3958 60.4955
L177.3419 60.4955
" />
<path d="M177.3419 60.4955
L177.2611 60.5224
" />
<path d="M177.2611 60.5224
L177.2073 60.5763
" />
<path d="M177.2073 60.5763
L177.1534 60.6841
" />
<path d="M177.1534 60.6841
L177.1534 61.3306
" />
<path d="M177.1534 61.3306
L176.8032 60.9804
" />
</g><g transform="rotate(-45.000000 200.0802 61.2830)">
<text x="200.0802" y="61.6830"
textLength="2.6531" font-size="1.0667" lengthAdjust="spacingAndGlyphs"
text-anchor="middle" opacity="0">GND</text>
</g>
<g class="stroked-text"><desc>GND</desc>
<path d="M200.7883 61.4369
L200.8691 61.4639
" />
<path d="M200.8691 61.4639
L200.9499 61.5447
" />
<path d="M200.9499 61.5447
L201.0037 61.6524
" />
<path d="M201.0037 61.6524
L201.0037 61.7602
" />
<path d="M201.0037 61.7602
L200.9768 61.8410
" />
<path d="M200.9768 61.8410
L200.8960 61.9757
" />
<path d="M200.8960 61.9757
L200.8152 62.0565
" />
<path d="M200.8152 62.0565
L200.6805 62.1373
" />
<path d="M200.6805 62.1373
L200.5997 62.1643
" />
<path d="M200.5997 62.1643
L200.4919 62.1643
" />
<path d="M200.4919 62.1643
L200.3842 62.1104
" />
<path d="M200.3842 62.1104
L200.3303 62.0565
" />
<path d="M200.3303 62.0565
L200.2764 61.9488
" />
<path d="M200.2764 61.9488
L200.2764 61.8949
" />
<path d="M200.2764 61.8949
L200.4650 61.7063
" />
<path d="M200.4650 61.7063
L200.5727 61.8141
" />
<path d="M199.9801 61.7063
L200.5458 61.1406
" />
<path d="M200.5458 61.1406
L199.6569 61.3831
" />
<path d="M199.6569 61.3831
L200.2226 60.8174
" />
<path d="M199.3875 61.1137
L199.9532 60.5480
" />
<path d="M199.9532 60.5480
L199.8185 60.4133
" />
<path d="M199.8185 60.4133
L199.7108 60.3594
" />
<path d="M199.7108 60.3594
L199.6030 60.3594
" />
<path d="M199.6030 60.3594
L199.5222 60.3864
" />
<path d="M199.5222 60.3864
L199.3875 60.4672
" />
<path d="M199.3875 60.4672
L199.3067 60.5480
" />
<path d="M199.3067 60.5480
L199.2259 60.6827
" />
<path d="M199.2259 60.6827
L199.1989 60.7635
" />
<path d="M199.1989 60.7635
L199.1989 60.8713
" />
<path d="M199.1989 60.8713
L199.2528 60.9790
" />
<path d="M199.2528 60.9790
L199.3875 61.1137
" />
</g><g transform="rotate(-45.000000 196.9562 36.5460)">
<text x="196.9562" y="36.9460"
textLength="3.3388" font-size="1.0667" lengthAdjust="spacingAndGlyphs"
text-anchor="middle" opacity="0">GP22</text>
</g>
<g class="stroked-text"><desc>GP22</desc>
<path d="M197.9067 36.9424
L197.9875 36.9693
" />
<path d="M197.9875 36.9693
L198.0683 37.0501
" />
<path d="M198.0683 37.0501
L198.1222 37.1579
" />
<path d="M198.1222 37.1579
L198.1222 37.2656
" />
<path d="M198.1222 37.2656
L198.0952 37.3464
" />
<path d="M198.0952 37.3464
L198.0144 37.4811
" />
<path d="M198.0144 37.4811
L197.9336 37.5619
" />
<path d="M197.9336 37.5619
L197.7989 37.6428
" />
<path d="M197.7989 37.6428
L197.7181 37.6697
" />
<path d="M197.7181 37.6697
L197.6104 37.6697
" />
<path d="M197.6104 37.6697
L197.5026 37.6158
" />
<path d="M197.5026 37.6158
L197.4488 37.5619
" />
<path d="M197.4488 37.5619
L197.3949 37.4542
" />
<path d="M197.3949 37.4542
L197.3949 37.4003
" />
<path d="M197.3949 37.4003
L197.5834 37.2118
" />
<path d="M197.5834 37.2118
L197.6912 37.3195
" />
<path d="M197.0986 37.2118
L197.6642 36.6461
" />
<path d="M197.6642 36.6461
L197.4488 36.4306
" />
<path d="M197.4488 36.4306
L197.3679 36.4036
" />
<path d="M197.3679 36.4036
L197.3141 36.4036
" />
<path d="M197.3141 36.4036
L197.2333 36.4306
" />
<path d="M197.2333 36.4306
L197.1524 36.5114
" />
<path d="M197.1524 36.5114
L197.1255 36.5922
" />
<path d="M197.1255 36.5922
L197.1255 36.6461
" />
<path d="M197.1255 36.6461
L197.1524 36.7269
" />
<path d="M197.1524 36.7269
L197.3679 36.9424
" />
<path d="M197.0716 36.1612
L197.0716 36.1073
" />
<path d="M197.0716 36.1073
L197.0447 36.0265
" />
<path d="M197.0447 36.0265
L196.9100 35.8918
" />
<path d="M196.9100 35.8918
L196.8292 35.8649
" />
<path d="M196.8292 35.8649
L196.7753 35.8649
" />
<path d="M196.7753 35.8649
L196.6945 35.8918
" />
<path d="M196.6945 35.8918
L196.6406 35.9457
" />
<path d="M196.6406 35.9457
L196.5868 36.0534
" />
<path d="M196.5868 36.0534
L196.5868 36.6999
" />
<path d="M196.5868 36.6999
L196.2366 36.3498
" />
<path d="M196.5329 35.6225
L196.5329 35.5686
" />
<path d="M196.5329 35.5686
L196.5059 35.4878
" />
<path d="M196.5059 35.4878
L196.3713 35.3531
" />
<path d="M196.3713 35.3531
L196.2904 35.3261
" />
<path d="M196.2904 35.3261
L196.2366 35.3261
" />
<path d="M196.2366 35.3261
L196.1558 35.3531
" />
<path d="M196.1558 35.3531
L196.1019 35.4070
" />
<path d="M196.1019 35.4070
L196.0480 35.5147
" />
<path d="M196.0480 35.5147
L196.0480 36.1612
" />
<path d="M196.0480 36.1612
L195.6978 35.8110
" />
</g><g transform="rotate(-45.000000 170.1722 61.3460)">
<text x="170.1722" y="61.7460"
textLength="2.5769" font-size="1.0667" lengthAdjust="spacingAndGlyphs"
text-anchor="middle" opacity="0">GP0</text>
</g>
<g class="stroked-text"><desc>GP0</desc>
<path d="M170.8533 61.4730
L170.9341 61.4999
" />
<path d="M170.9341 61.4999
L171.0149 61.5808
" />
<path d="M171.0149 61.5808
L171.0688 61.6885
" />
<path d="M171.0688 61.6885
L171.0688 61.7963
" />
<path d="M171.0688 61.7963
L171.0419 61.8771
" />
<path d="M171.0419 61.8771
L170.9611 62.0118
" />
<path d="M170.9611 62.0118
L170.8802 62.0926
" />
<path d="M170.8802 62.0926
L170.7456 62.1734
" />
<path d="M170.7456 62.1734
L170.6648 62.2003
" />
<path d="M170.6648 62.2003
L170.5570 62.2003
" />
<path d="M170.5570 62.2003
L170.4493 62.1464
" />
<path d="M170.4493 62.1464
L170.3954 62.0926
" />
<path d="M170.3954 62.0926
L170.3415 61.9848
" />
<path d="M170.3415 61.9848
L170.3415 61.9309
" />
<path d="M170.3415 61.9309
L170.5301 61.7424
" />
<path d="M170.5301 61.7424
L170.6378 61.8501
" />
<path d="M170.0452 61.7424
L170.6109 61.1767
" />
<path d="M170.6109 61.1767
L170.3954 60.9612
" />
<path d="M170.3954 60.9612
L170.3146 60.9343
" />
<path d="M170.3146 60.9343
L170.2607 60.9343
" />
<path d="M170.2607 60.9343
L170.1799 60.9612
" />
<path d="M170.1799 60.9612
L170.0991 61.0420
" />
<path d="M170.0991 61.0420
L170.0721 61.1228
" />
<path d="M170.0721 61.1228
L170.0721 61.1767
" />
<path d="M170.0721 61.1767
L170.0991 61.2575
" />
<path d="M170.0991 61.2575
L170.3146 61.4730
" />
<path d="M169.9374 60.5033
L169.8836 60.4494
" />
<path d="M169.8836 60.4494
L169.8028 60.4224
" />
<path d="M169.8028 60.4224
L169.7489 60.4224
" />
<path d="M169.7489 60.4224
L169.6681 60.4494
" />
<path d="M169.6681 60.4494
L169.5334 60.5302
" />
<path d="M169.5334 60.5302
L169.3987 60.6649
" />
<path d="M169.3987 60.6649
L169.3179 60.7996
" />
<path d="M169.3179 60.7996
L169.2909 60.8804
" />
<path d="M169.2909 60.8804
L169.2909 60.9343
" />
<path d="M169.2909 60.9343
L169.3179 61.0151
" />
<path d="M169.3179 61.0151
L169.3718 61.0689
" />
<path d="M169.3718 61.0689
L169.4526 61.0959
" />
<path d="M169.4526 61.0959
L169.5064 61.0959
" />
<path d="M169.5064 61.0959
L169.5873 61.0689
" />
<path d="M169.5873 61.0689
L169.7219 60.9881
" />
<path d="M169.7219 60.9881
L169.8566 60.8534
" />
<path d="M169.8566 60.8534
L169.9374 60.7188
" />
<path d="M169.9374 60.7188
L169.9644 60.6379
" />
<path d="M169.9644 60.6379
L169.9644 60.5841
" />
<path d="M169.9644 60.5841
L169.9374 60.5033
" />
</g><g transform="rotate(-45.000000 179.2462 36.7000)">
<text x="179.2462" y="37.1000"
textLength="2.4245" font-size="1.0667" lengthAdjust="spacingAndGlyphs"
text-anchor="middle" opacity="0">3V3</text>
</g>
<g class="stroked-text"><desc>3V3</desc>
<path d="M180.2506 37.0964
L179.9004 36.7462
" />
<path d="M179.9004 36.7462
L179.8734 37.1503
" />
<path d="M179.8734 37.1503
L179.7926 37.0694
" />
<path d="M179.7926 37.0694
L179.7118 37.0425
" />
<path d="M179.7118 37.0425
L179.6579 37.0425
" />
<path d="M179.6579 37.0425
L179.5771 37.0694
" />
<path d="M179.5771 37.0694
L179.4424 37.2041
" />
<path d="M179.4424 37.2041
L179.4155 37.2849
" />
<path d="M179.4155 37.2849
L179.4155 37.3388
" />
<path d="M179.4155 37.3388
L179.4424 37.4196
" />
<path d="M179.4424 37.4196
L179.6041 37.5813
" />
<path d="M179.6041 37.5813
L179.6849 37.6082
" />
<path d="M179.6849 37.6082
L179.7388 37.6082
" />
<path d="M179.7388 36.5846
L178.9845 36.9617
" />
<path d="M178.9845 36.9617
L179.3616 36.2074
" />
<path d="M179.2269 36.0728
L178.8768 35.7226
" />
<path d="M178.8768 35.7226
L178.8498 36.1266
" />
<path d="M178.8498 36.1266
L178.7690 36.0458
" />
<path d="M178.7690 36.0458
L178.6882 36.0189
" />
<path d="M178.6882 36.0189
L178.6343 36.0189
" />
<path d="M178.6343 36.0189
L178.5535 36.0458
" />
<path d="M178.5535 36.0458
L178.4188 36.1805
" />
<path d="M178.4188 36.1805
L178.3919 36.2613
" />
<path d="M178.3919 36.2613
L178.3919 36.3152
" />
<path d="M178.3919 36.3152
L178.4188 36.3960
" />
<path d="M178.4188 36.3960
L178.5804 36.5576
" />
<path d="M178.5804 36.5576
L178.6613 36.5846
" />
<path d="M178.6613 36.5846
L178.7151 36.5846
" />
</g><g transform="rotate(-45.000000 193.0022 61.2460)">
<text x="193.0022" y="61.6460"
textLength="2.5769" font-size="1.0667" lengthAdjust="spacingAndGlyphs"
text-anchor="middle" opacity="0">GP7</text>
</g>
<g class="stroked-text"><desc>GP7</desc>
<path d="M193.6833 61.3730
L193.7641 61.3999
" />
<path d="M193.7641 61.3999
L193.8449 61.4808
" />
<path d="M193.8449 61.4808
L193.8988 61.5885
" />
<path d="M193.8988 61.5885
L193.8988 61.6963
" />
<path d="M193.8988 61.6963
L193.8719 61.7771
" />
<path d="M193.8719 61.7771
L193.7911 61.9118
" />
<path d="M193.7911 61.9118
L193.7103 61.9926
" />
<path d="M193.7103 61.9926
L193.5756 62.0734
" />
<path d="M193.5756 62.0734
L193.4948 62.1003
" />
<path d="M193.4948 62.1003
L193.3870 62.1003
" />
<path d="M193.3870 62.1003
L193.2793 62.0464
" />
<path d="M193.2793 62.0464
L193.2254 61.9926
" />
<path d="M193.2254 61.9926
L193.1715 61.8848
" />
<path d="M193.1715 61.8848
L193.1715 61.8309
" />
<path d="M193.1715 61.8309
L193.3601 61.6424
" />
<path d="M193.3601 61.6424
L193.4678 61.7501
" />
<path d="M192.8752 61.6424
L193.4409 61.0767
" />
<path d="M193.4409 61.0767
L193.2254 60.8612
" />
<path d="M193.2254 60.8612
L193.1446 60.8343
" />
<path d="M193.1446 60.8343
L193.0907 60.8343
" />
<path d="M193.0907 60.8343
L193.0099 60.8612
" />
<path d="M193.0099 60.8612
L192.9291 60.9420
" />
<path d="M192.9291 60.9420
L192.9021 61.0228
" />
<path d="M192.9021 61.0228
L192.9021 61.0767
" />
<path d="M192.9021 61.0767
L192.9291 61.1575
" />
<path d="M192.9291 61.1575
L193.1446 61.3730
" />
<path d="M192.9291 60.5649
L192.5519 60.1878
" />
<path d="M192.5519 60.1878
L192.2287 60.9959
" />
</g><g transform="rotate(-45.000000 182.8722 61.3460)">
<text x="182.8722" y="61.7460"
textLength="2.5769" font-size="1.0667" lengthAdjust="spacingAndGlyphs"
text-anchor="middle" opacity="0">GP4</text>
</g>
<g class="stroked-text"><desc>GP4</desc>
<path d="M183.5533 61.4730
L183.6341 61.4999
" />
<path d="M183.6341 61.4999
L183.7149 61.5808
" />
<path d="M183.7149 61.5808
L183.7688 61.6885
" />
<path d="M183.7688 61.6885
L183.7688 61.7963
" />
<path d="M183.7688 61.7963
L183.7419 61.8771
" />
<path d="M183.7419 61.8771
L183.6611 62.0118
" />
<path d="M183.6611 62.0118
L183.5802 62.0926
" />
<path d="M183.5802 62.0926
L183.4456 62.1734
" />
<path d="M183.4456 62.1734
L183.3648 62.2003
" />
<path d="M183.3648 62.2003
L183.2570 62.2003
" />
<path d="M183.2570 62.2003
L183.1493 62.1464
" />
<path d="M183.1493 62.1464
L183.0954 62.0926
" />
<path d="M183.0954 62.0926
L183.0415 61.9848
" />
<path d="M183.0415 61.9848
L183.0415 61.9309
" />
<path d="M183.0415 61.9309
L183.2301 61.7424
" />
<path d="M183.2301 61.7424
L183.3378 61.8501
" />
<path d="M182.7452 61.7424
L183.3109 61.1767
" />
<path d="M183.3109 61.1767
L183.0954 60.9612
" />
<path d="M183.0954 60.9612
L183.0146 60.9343
" />
<path d="M183.0146 60.9343
L182.9607 60.9343
" />
<path d="M182.9607 60.9343
L182.8799 60.9612
" />
<path d="M182.8799 60.9612
L182.7991 61.0420
" />
<path d="M182.7991 61.0420
L182.7721 61.1228
" />
<path d="M182.7721 61.1228
L182.7721 61.1767
" />
<path d="M182.7721 61.1767
L182.7991 61.2575
" />
<path d="M182.7991 61.2575
L183.0146 61.4730
" />
<path d="M182.3142 60.5571
L181.9371 60.9343
" />
<path d="M182.6644 60.4763
L182.3950 61.0151
" />
<path d="M182.3950 61.0151
L182.0448 60.6649
" />
</g><g transform="rotate(-45.000000 186.7962 36.5460)">
<text x="186.7962" y="36.9460"
textLength="3.3388" font-size="1.0667" lengthAdjust="spacingAndGlyphs"
text-anchor="middle" opacity="0">AGND</text>
</g>
<g class="stroked-text"><desc>AGND</desc>
<path d="M187.6928 37.6428
L187.4234 37.3734
" />
<path d="M187.5851 37.8583
L187.9622 37.1040
" />
<path d="M187.9622 37.1040
L187.2079 37.4811
" />
<path d="M187.2618 36.4575
L187.3426 36.4844
" />
<path d="M187.3426 36.4844
L187.4234 36.5653
" />
<path d="M187.4234 36.5653
L187.4773 36.6730
" />
<path d="M187.4773 36.6730
L187.4773 36.7808
" />
<path d="M187.4773 36.7808
L187.4504 36.8616
" />
<path d="M187.4504 36.8616
L187.3696 36.9963
" />
<path d="M187.3696 36.9963
L187.2888 37.0771
" />
<path d="M187.2888 37.0771
L187.1541 37.1579
" />
<path d="M187.1541 37.1579
L187.0733 37.1848
" />
<path d="M187.0733 37.1848
L186.9655 37.1848
" />
<path d="M186.9655 37.1848
L186.8578 37.1309
" />
<path d="M186.8578 37.1309
L186.8039 37.0771
" />
<path d="M186.8039 37.0771
L186.7500 36.9693
" />
<path d="M186.7500 36.9693
L186.7500 36.9154
" />
<path d="M186.7500 36.9154
L186.9386 36.7269
" />
<path d="M186.9386 36.7269
L187.0463 36.8346
" />
<path d="M186.4537 36.7269
L187.0194 36.1612
" />
<path d="M187.0194 36.1612
L186.1304 36.4036
" />
<path d="M186.1304 36.4036
L186.6961 35.8379
" />
<path d="M185.8611 36.1343
L186.4268 35.5686
" />
<path d="M186.4268 35.5686
L186.2921 35.4339
" />
<path d="M186.2921 35.4339
L186.1843 35.3800
" />
<path d="M186.1843 35.3800
L186.0766 35.3800
" />
<path d="M186.0766 35.3800
L185.9958 35.4070
" />
<path d="M185.9958 35.4070
L185.8611 35.4878
" />
<path d="M185.8611 35.4878
L185.7803 35.5686
" />
<path d="M185.7803 35.5686
L185.6994 35.7033
" />
<path d="M185.6994 35.7033
L185.6725 35.7841
" />
<path d="M185.6725 35.7841
L185.6725 35.8918
" />
<path d="M185.6725 35.8918
L185.7264 35.9996
" />
<path d="M185.7264 35.9996
L185.8611 36.1343
" />
</g><g transform="rotate(-45.000000 212.1962 36.8000)">
<text x="212.1962" y="37.2000"
textLength="2.6531" font-size="1.0667" lengthAdjust="spacingAndGlyphs"
text-anchor="middle" opacity="0">GND</text>
</g>
<g class="stroked-text"><desc>GND</desc>
<path d="M212.9042 36.9539
L212.9851 36.9809
" />
<path d="M212.9851 36.9809
L213.0659 37.0617
" />
<path d="M213.0659 37.0617
L213.1197 37.1694
" />
<path d="M213.1197 37.1694
L213.1197 37.2772
" />
<path d="M213.1197 37.2772
L213.0928 37.3580
" />
<path d="M213.0928 37.3580
L213.0120 37.4927
" />
<path d="M213.0120 37.4927
L212.9312 37.5735
" />
<path d="M212.9312 37.5735
L212.7965 37.6543
" />
<path d="M212.7965 37.6543
L212.7157 37.6813
" />
<path d="M212.7157 37.6813
L212.6079 37.6813
" />
<path d="M212.6079 37.6813
L212.5002 37.6274
" />
<path d="M212.5002 37.6274
L212.4463 37.5735
" />
<path d="M212.4463 37.5735
L212.3924 37.4658
" />
<path d="M212.3924 37.4658
L212.3924 37.4119
" />
<path d="M212.3924 37.4119
L212.5810 37.2233
" />
<path d="M212.5810 37.2233
L212.6887 37.3311
" />
<path d="M212.0961 37.2233
L212.6618 36.6576
" />
<path d="M212.6618 36.6576
L211.7729 36.9001
" />
<path d="M211.7729 36.9001
L212.3386 36.3344
" />
<path d="M211.5035 36.6307
L212.0692 36.0650
" />
<path d="M212.0692 36.0650
L211.9345 35.9303
" />
<path d="M211.9345 35.9303
L211.8268 35.8764
" />
<path d="M211.8268 35.8764
L211.7190 35.8764
" />
<path d="M211.7190 35.8764
L211.6382 35.9034
" />
<path d="M211.6382 35.9034
L211.5035 35.9842
" />
<path d="M211.5035 35.9842
L211.4227 36.0650
" />
<path d="M211.4227 36.0650
L211.3419 36.1997
" />
<path d="M211.3419 36.1997
L211.3149 36.2805
" />
<path d="M211.3149 36.2805
L211.3149 36.3883
" />
<path d="M211.3149 36.3883
L211.3688 36.4960
" />
<path d="M211.3688 36.4960
L211.5035 36.6307
" />
</g><g transform="rotate(-45.000000 184.0022 36.5460)">
<text x="184.0022" y="36.9460"
textLength="3.3388" font-size="1.0667" lengthAdjust="spacingAndGlyphs"
text-anchor="middle" opacity="0">GP28</text>
</g>
<g class="stroked-text"><desc>GP28</desc>
<path d="M184.9527 36.9424
L185.0335 36.9693
" />
<path d="M185.0335 36.9693
L185.1143 37.0501
" />
<path d="M185.1143 37.0501
L185.1682 37.1579
" />
<path d="M185.1682 37.1579
L185.1682 37.2656
" />
<path d="M185.1682 37.2656
L185.1412 37.3464
" />
<path d="M185.1412 37.3464
L185.0604 37.4811
" />
<path d="M185.0604 37.4811
L184.9796 37.5619
" />
<path d="M184.9796 37.5619
L184.8449 37.6428
" />
<path d="M184.8449 37.6428
L184.7641 37.6697
" />
<path d="M184.7641 37.6697
L184.6564 37.6697
" />
<path d="M184.6564 37.6697
L184.5486 37.6158
" />
<path d="M184.5486 37.6158
L184.4948 37.5619
" />
<path d="M184.4948 37.5619
L184.4409 37.4542
" />
<path d="M184.4409 37.4542
L184.4409 37.4003
" />
<path d="M184.4409 37.4003
L184.6294 37.2118
" />
<path d="M184.6294 37.2118
L184.7372 37.3195
" />
<path d="M184.1446 37.2118
L184.7103 36.6461
" />
<path d="M184.7103 36.6461
L184.4948 36.4306
" />
<path d="M184.4948 36.4306
L184.4139 36.4036
" />
<path d="M184.4139 36.4036
L184.3601 36.4036
" />
<path d="M184.3601 36.4036
L184.2793 36.4306
" />
<path d="M184.2793 36.4306
L184.1984 36.5114
" />
<path d="M184.1984 36.5114
L184.1715 36.5922
" />
<path d="M184.1715 36.5922
L184.1715 36.6461
" />
<path d="M184.1715 36.6461
L184.1984 36.7269
" />
<path d="M184.1984 36.7269
L184.4139 36.9424
" />
<path d="M184.1176 36.1612
L184.1176 36.1073
" />
<path d="M184.1176 36.1073
L184.0907 36.0265
" />
<path d="M184.0907 36.0265
L183.9560 35.8918
" />
<path d="M183.9560 35.8918
L183.8752 35.8649
" />
<path d="M183.8752 35.8649
L183.8213 35.8649
" />
<path d="M183.8213 35.8649
L183.7405 35.8918
" />
<path d="M183.7405 35.8918
L183.6866 35.9457
" />
<path d="M183.6866 35.9457
L183.6328 36.0534
" />
<path d="M183.6328 36.0534
L183.6328 36.6999
" />
<path d="M183.6328 36.6999
L183.2826 36.3498
" />
<path d="M183.2826 35.7033
L183.3634 35.7302
" />
<path d="M183.3634 35.7302
L183.4173 35.7302
" />
<path d="M183.4173 35.7302
L183.4981 35.7033
" />
<path d="M183.4981 35.7033
L183.5250 35.6763
" />
<path d="M183.5250 35.6763
L183.5519 35.5955
" />
<path d="M183.5519 35.5955
L183.5519 35.5416
" />
<path d="M183.5519 35.5416
L183.5250 35.4608
" />
<path d="M183.5250 35.4608
L183.4173 35.3531
" />
<path d="M183.4173 35.3531
L183.3364 35.3261
" />
<path d="M183.3364 35.3261
L183.2826 35.3261
" />
<path d="M183.2826 35.3261
L183.2018 35.3531
" />
<path d="M183.2018 35.3531
L183.1748 35.3800
" />
<path d="M183.1748 35.3800
L183.1479 35.4608
" />
<path d="M183.1479 35.4608
L183.1479 35.5147
" />
<path d="M183.1479 35.5147
L183.1748 35.5955
" />
<path d="M183.1748 35.5955
L183.2826 35.7033
" />
<path d="M183.2826 35.7033
L183.3095 35.7841
" />
<path d="M183.3095 35.7841
L183.3095 35.8379
" />
<path d="M183.3095 35.8379
L183.2826 35.9188
" />
<path d="M183.2826 35.9188
L183.1748 36.0265
" />
<path d="M183.1748 36.0265
L183.0940 36.0534
" />
<path d="M183.0940 36.0534
L183.0401 36.0534
" />
<path d="M183.0401 36.0534
L182.9593 36.0265
" />
<path d="M182.9593 36.0265
L182.8516 35.9188
" />
<path d="M182.8516 35.9188
L182.8246 35.8379
" />
<path d="M182.8246 35.8379
L182.8246 35.7841
" />
<path d="M182.8246 35.7841
L182.8516 35.7033
" />
<path d="M182.8516 35.7033
L182.9593 35.5955
" />
<path d="M182.9593 35.5955
L183.0401 35.5686
" />
<path d="M183.0401 35.5686
L183.0940 35.5686
" />
<path d="M183.0940 35.5686
L183.1748 35.5955
" />
</g><g transform="rotate(-45.000000 215.8922 61.6460)">
<text x="215.8922" y="62.0460"
textLength="3.3388" font-size="1.0667" lengthAdjust="spacingAndGlyphs"
text-anchor="middle" opacity="0">GP14</text>
</g>
<g class="stroked-text"><desc>GP14</desc>
<path d="M216.8427 62.0424
L216.9235 62.0693
" />
<path d="M216.9235 62.0693
L217.0043 62.1501
" />
<path d="M217.0043 62.1501
L217.0582 62.2579
" />
<path d="M217.0582 62.2579
L217.0582 62.3656
" />
<path d="M217.0582 62.3656
L217.0312 62.4464
" />
<path d="M217.0312 62.4464
L216.9504 62.5811
" />
<path d="M216.9504 62.5811
L216.8696 62.6619
" />
<path d="M216.8696 62.6619
L216.7349 62.7428
" />
<path d="M216.7349 62.7428
L216.6541 62.7697
" />
<path d="M216.6541 62.7697
L216.5464 62.7697
" />
<path d="M216.5464 62.7697
L216.4386 62.7158
" />
<path d="M216.4386 62.7158
L216.3848 62.6619
" />
<path d="M216.3848 62.6619
L216.3309 62.5542
" />
<path d="M216.3309 62.5542
L216.3309 62.5003
" />
<path d="M216.3309 62.5003
L216.5194 62.3118
" />
<path d="M216.5194 62.3118
L216.6272 62.4195
" />
<path d="M216.0346 62.3118
L216.6002 61.7461
" />
<path d="M216.6002 61.7461
L216.3848 61.5306
" />
<path d="M216.3848 61.5306
L216.3039 61.5036
" />
<path d="M216.3039 61.5036
L216.2501 61.5036
" />
<path d="M216.2501 61.5036
L216.1693 61.5306
" />
<path d="M216.1693 61.5306
L216.0884 61.6114
" />
<path d="M216.0884 61.6114
L216.0615 61.6922
" />
<path d="M216.0615 61.6922
L216.0615 61.7461
" />
<path d="M216.0615 61.7461
L216.0884 61.8269
" />
<path d="M216.0884 61.8269
L216.3039 62.0424
" />
<path d="M215.1726 61.4498
L215.4958 61.7730
" />
<path d="M215.3342 61.6114
L215.8999 61.0457
" />
<path d="M215.8999 61.0457
L215.8729 61.1804
" />
<path d="M215.8729 61.1804
L215.8729 61.2881
" />
<path d="M215.8729 61.2881
L215.8999 61.3689
" />
<path d="M215.0648 60.5878
L214.6877 60.9649
" />
<path d="M215.4150 60.5070
L215.1456 61.0457
" />
<path d="M215.1456 61.0457
L214.7954 60.6955
" />
</g><g transform="rotate(-90.000000 220.2022 54.7000)">
<text x="220.2022" y="55.1000"
textLength="4.1388" font-size="1.0667" lengthAdjust="spacingAndGlyphs"
text-anchor="middle" opacity="0">SWCLK</text>
</g>
<g class="stroked-text"><desc>SWCLK</desc>
<path d="M219.8702 56.5095
L219.8321 56.3952
" />
<path d="M219.8321 56.3952
L219.8321 56.2048
" />
<path d="M219.8321 56.2048
L219.8702 56.1286
" />
<path d="M219.8702 56.1286
L219.9083 56.0905
" />
<path d="M219.9083 56.0905
L219.9845 56.0524
" />
<path d="M219.9845 56.0524
L220.0607 56.0524
" />
<path d="M220.0607 56.0524
L220.1369 56.0905
" />
<path d="M220.1369 56.0905
L220.1750 56.1286
" />
<path d="M220.1750 56.1286
L220.2131 56.2048
" />
<path d="M220.2131 56.2048
L220.2512 56.3571
" />
<path d="M220.2512 56.3571
L220.2892 56.4333
" />
<path d="M220.2892 56.4333
L220.3273 56.4714
" />
<path d="M220.3273 56.4714
L220.4035 56.5095
" />
<path d="M220.4035 56.5095
L220.4797 56.5095
" />
<path d="M220.4797 56.5095
L220.5559 56.4714
" />
<path d="M220.5559 56.4714
L220.5940 56.4333
" />
<path d="M220.5940 56.4333
L220.6321 56.3571
" />
<path d="M220.6321 56.3571
L220.6321 56.1667
" />
<path d="M220.6321 56.1667
L220.5940 56.0524
" />
<path d="M220.6321 55.7857
L219.8321 55.5952
" />
<path d="M219.8321 55.5952
L220.4035 55.4429
" />
<path d="M220.4035 55.4429
L219.8321 55.2905
" />
<path d="M219.8321 55.2905
L220.6321 55.1000
" />
<path d="M219.9083 54.3381
L219.8702 54.3762
" />
<path d="M219.8702 54.3762
L219.8321 54.4905
" />
<path d="M219.8321 54.4905
L219.8321 54.5667
" />
<path d="M219.8321 54.5667
L219.8702 54.6810
" />
<path d="M219.8702 54.6810
L219.9464 54.7571
" />
<path d="M219.9464 54.7571
L220.0226 54.7952
" />
<path d="M220.0226 54.7952
L220.1750 54.8333
" />
<path d="M220.1750 54.8333
L220.2892 54.8333
" />
<path d="M220.2892 54.8333
L220.4416 54.7952
" />
<path d="M220.4416 54.7952
L220.5178 54.7571
" />
<path d="M220.5178 54.7571
L220.5940 54.6810
" />
<path d="M220.5940 54.6810
L220.6321 54.5667
" />
<path d="M220.6321 54.5667
L220.6321 54.4905
" />
<path d="M220.6321 54.4905
L220.5940 54.3762
" />
<path d="M220.5940 54.3762
L220.5559 54.3381
" />
<path d="M219.8321 53.6143
L219.8321 53.9952
" />
<path d="M219.8321 53.9952
L220.6321 53.9952
" />
<path d="M219.8321 53.3476
L220.6321 53.3476
" />
<path d="M219.8321 52.8905
L220.2892 53.2333
" />
<path d="M220.6321 52.8905
L220.1750 53.3476
" />
</g><circle cx="128.9822" cy="121.5000" r="2.3500" /> 
<circle cx="164.0022" cy="23.0000" r="2.3500" /> 
<circle cx="255.0022" cy="63.5000" r="2.3500" /> 
<circle cx="178.0222" cy="121.5200" r="2.3500" /> 
<circle cx="220.0022" cy="23.0000" r="2.3500" /> 
<circle cx="129.1022" cy="63.4500" r="2.3500" /> 
<circle cx="255.0022" cy="121.5000" r="2.3500" /> 
<circle cx="178.1022" cy="63.5656" r="2.3500" /> 
<circle cx="129.0022" cy="23.0000" r="2.3500" /> 
<g >
</g>
<g >
</g>
<g >
</g>
<g >
</g>
<g >
</g>
<g >
</g>
<g >
</g>
<g >
</g>
<g >
</g>
<g >
</g>
<g >
</g>
<g >
</g>
<g >
</g>
<g >
</g>
<g >
</g>
<g >
</g>
<g >
</g>
<g >
</g>
<g >
</g>
<g >
</g>
<g >
</g>
<g >
</g>
<g >
</g>
<g >
</g>
<g >
</g>
<g >
</g>
<g >
</g>
<g >
</g>
<g >
</g>
<g >
</g>
<g >
</g>
<g >
</g>
<g >
</g>
<g >
</g>
<g >
</g>
<g >
</g>
<g >
</g>
<g >
</g>
<g >
</g>
<g >
</g>
<g >
</g>
<g >
</g>
<g >
</g>
<g >
</g>
<g >
</g>
<g >
</g>
<g >
</g>
<g >
</g>
<g >
</g>
<g >
</g>
<g >
</g>
<g >
</g>
<g >
</g>
<g >
</g>
<g >
</g>
<g >
</g>
<g >
</g>
<g >
</g>
<g >
</g>
<g >
</g>
<g >
</g>
<g >
</g>
<g >
</g>
<g >
</g>
<g >
</g>
<g >
</g>
<g >
</g>
<g >
</g>
<g >
</g>
<g >
</g>
<g >
</g>
<g >
</g>
<g >
</g>
<g >
</g>
<g >
</g>
<g >
</g>
<g >
</g>
<g >
</g>
<g >
</g>
<g >
</g>
<g >
</g>
<g >
</g>
<g >
</g>
</g> 
</svg>
