  0
SECTION
  2
HEADER
  9
$ANGBASE
  50
0.0
  9
$ANGDIR
  70
1
  9
$MEASUREMENT
  70
0
  0
ENDSEC
  0
SECTION
  2
TABLES
  0
TABLE
  2
LTYPE
  70
4
  0
LTYPE
  5
40F
  2
CONTINUOUS
  70
0
  3
Solid line
  72
65
  73
0
  40
0.0
  0
LTYPE
  5
410
  2
DASHDOT
 70
0
  3
Dash Dot ____ _ ____ _
 72
65
 73
4
 40
2.0
 49
1.25
 49
-0.25
 49
0.25
 49
-0.25
  0
LTYPE
  5
411
  2
DASHED
 70
0
  3
Dashed __ __ __ __ __
 72
65
 73
2
 40
0.75
 49
0.5
 49
-0.25
  0
LTYPE
  5
43B
  2
DOTTED
 70
0
  3
Dotted .  .  .  .
 72
65
 73
2
 40
0.2
 49
0.0
 49
-0.2
  0
ENDTAB
  0
TABLE
  2
STYLE
  70
4
  0
STYLE
  2
KICAD
  70
0
  40
0
  41
1
  42
1
  50
0
  71
0
  3
isocp.shx
  0
STYLE
  2
KICADB
  70
0
  40
0
  41
1
  42
1
  50
0
  71
0
  3
isocp.shx
  0
STYLE
  2
KICADI
  70
0
  40
0
  41
1
  42
1
  50
15
  71
0
  3
isocp.shx
  0
STYLE
  2
KICADBI
  70
0
  40
0
  41
1
  42
1
  50
15
  71
0
  3
isocp.shx
  0
ENDTAB
  0
TABLE
  2
LAYER
  70
1
  0
LAYER
  2
BLACK
  70
0
  62
7
  6
CONTINUOUS
  0
ENDTAB
  0
ENDSEC
  0
SECTION
  2
ENTITIES
0
LINE
8
BLACK
6
CONTINUOUS
10
3.61417
20
-0.785433
11
3.61557
21
-0.78601
0
LINE
8
BLACK
6
CONTINUOUS
10
3.61557
20
-0.78601
11
3.61614
21
-0.787402
0
LINE
8
BLACK
6
CONTINUOUS
10
3.61614
20
-0.787402
11
3.61614
21
-0.826772
0
LINE
8
BLACK
6
CONTINUOUS
10
3.61614
20
-0.826772
11
3.61614
21
-0.828586
0
LINE
8
BLACK
6
CONTINUOUS
10
3.61614
20
-0.828586
11
3.61708
21
-0.83209
0
LINE
8
BLACK
6
CONTINUOUS
10
3.61708
20
-0.83209
11
3.61889
21
-0.835232
0
LINE
8
BLACK
6
CONTINUOUS
10
3.61889
20
-0.835232
11
3.62146
21
-0.837798
0
LINE
8
BLACK
6
CONTINUOUS
10
3.62146
20
-0.837798
11
3.6246
21
-0.839612
0
LINE
8
BLACK
6
CONTINUOUS
10
3.6246
20
-0.839612
11
3.62811
21
-0.840551
0
LINE
8
BLACK
6
CONTINUOUS
10
3.62811
20
-0.840551
11
3.62992
21
-0.840551
0
LINE
8
BLACK
6
CONTINUOUS
10
3.62992
20
-0.840551
11
3.77165
21
-0.840551
0
LINE
8
BLACK
6
CONTINUOUS
10
3.77165
20
-0.840551
11
3.77347
21
-0.840551
0
LINE
8
BLACK
6
CONTINUOUS
10
3.77347
20
-0.840551
11
3.77697
21
-0.839612
0
LINE
8
BLACK
6
CONTINUOUS
10
3.77697
20
-0.839612
11
3.78011
21
-0.837798
0
LINE
8
BLACK
6
CONTINUOUS
10
3.78011
20
-0.837798
11
3.78268
21
-0.835232
0
LINE
8
BLACK
6
CONTINUOUS
10
3.78268
20
-0.835232
11
3.78449
21
-0.83209
0
LINE
8
BLACK
6
CONTINUOUS
10
3.78449
20
-0.83209
11
3.78543
21
-0.828586
0
LINE
8
BLACK
6
CONTINUOUS
10
3.78543
20
-0.828586
11
3.78543
21
-0.826772
0
LINE
8
BLACK
6
CONTINUOUS
10
3.78543
20
-0.826772
11
3.78543
21
-0.787402
0
LINE
8
BLACK
6
CONTINUOUS
10
3.78543
20
-0.787402
11
3.78601
21
-0.78601
0
LINE
8
BLACK
6
CONTINUOUS
10
3.78601
20
-0.78601
11
3.7874
21
-0.785433
0
LINE
8
BLACK
6
CONTINUOUS
10
3.7874
20
-0.785433
11
4.48031
21
-0.785433
0
LINE
8
BLACK
6
CONTINUOUS
10
4.48031
20
-0.785433
11
4.48171
21
-0.78601
0
LINE
8
BLACK
6
CONTINUOUS
10
4.48171
20
-0.78601
11
4.48228
21
-0.787402
0
LINE
8
BLACK
6
CONTINUOUS
10
4.48228
20
-0.787402
11
4.48228
21
-0.826772
0
LINE
8
BLACK
6
CONTINUOUS
10
4.48228
20
-0.826772
11
4.48228
21
-0.828586
0
LINE
8
BLACK
6
CONTINUOUS
10
4.48228
20
-0.828586
11
4.48322
21
-0.83209
0
LINE
8
BLACK
6
CONTINUOUS
10
4.48322
20
-0.83209
11
4.48504
21
-0.835232
0
LINE
8
BLACK
6
CONTINUOUS
10
4.48504
20
-0.835232
11
4.4876
21
-0.837798
0
LINE
8
BLACK
6
CONTINUOUS
10
4.4876
20
-0.837798
11
4.49074
21
-0.839612
0
LINE
8
BLACK
6
CONTINUOUS
10
4.49074
20
-0.839612
11
4.49425
21
-0.840551
0
LINE
8
BLACK
6
CONTINUOUS
10
4.49425
20
-0.840551
11
4.49606
21
-0.840551
0
LINE
8
BLACK
6
CONTINUOUS
10
4.49606
20
-0.840551
11
4.6378
21
-0.840551
0
LINE
8
BLACK
6
CONTINUOUS
10
4.6378
20
-0.840551
11
4.63961
21
-0.840551
0
LINE
8
BLACK
6
CONTINUOUS
10
4.63961
20
-0.840551
11
4.64311
21
-0.839612
0
LINE
8
BLACK
6
CONTINUOUS
10
4.64311
20
-0.839612
11
4.64626
21
-0.837798
0
LINE
8
BLACK
6
CONTINUOUS
10
4.64626
20
-0.837798
11
4.64882
21
-0.835233
0
LINE
8
BLACK
6
CONTINUOUS
10
4.64882
20
-0.835233
11
4.65064
21
-0.83209
0
LINE
8
BLACK
6
CONTINUOUS
10
4.65064
20
-0.83209
11
4.65157
21
-0.828586
0
LINE
8
BLACK
6
CONTINUOUS
10
4.65157
20
-0.828586
11
4.65157
21
-0.826772
0
LINE
8
BLACK
6
CONTINUOUS
10
4.65157
20
-0.826772
11
4.65157
21
-0.787402
0
LINE
8
BLACK
6
CONTINUOUS
10
4.65157
20
-0.787402
11
4.65215
21
-0.78601
0
LINE
8
BLACK
6
CONTINUOUS
10
4.65215
20
-0.78601
11
4.65354
21
-0.785433
0
LINE
8
BLACK
6
CONTINUOUS
10
4.65354
20
-0.785433
11
7.44094
21
-0.785433
0
LINE
8
BLACK
6
CONTINUOUS
10
7.44094
20
-0.785433
11
7.44812
21
-0.786061
0
LINE
8
BLACK
6
CONTINUOUS
10
7.44812
20
-0.786061
11
7.45508
21
-0.787926
0
LINE
8
BLACK
6
CONTINUOUS
10
7.45508
20
-0.787926
11
7.46161
21
-0.790971
0
LINE
8
BLACK
6
CONTINUOUS
10
7.46161
20
-0.790971
11
7.46752
21
-0.795104
0
LINE
8
BLACK
6
CONTINUOUS
10
7.46752
20
-0.795104
11
7.47261
21
-0.8002
0
LINE
8
BLACK
6
CONTINUOUS
10
7.47261
20
-0.8002
11
7.47675
21
-0.806102
0
LINE
8
BLACK
6
CONTINUOUS
10
7.47675
20
-0.806102
11
7.47979
21
-0.812633
0
LINE
8
BLACK
6
CONTINUOUS
10
7.47979
20
-0.812633
11
7.48166
21
-0.819593
0
LINE
8
BLACK
6
CONTINUOUS
10
7.48166
20
-0.819593
11
7.48228
21
-0.826772
0
LINE
8
BLACK
6
CONTINUOUS
10
7.48228
20
-0.826772
11
7.48228
21
-4.88189
0
LINE
8
BLACK
6
CONTINUOUS
10
7.48228
20
-4.88189
11
7.48166
21
-4.88907
0
LINE
8
BLACK
6
CONTINUOUS
10
7.48166
20
-4.88907
11
7.47979
21
-4.89603
0
LINE
8
BLACK
6
CONTINUOUS
10
7.47979
20
-4.89603
11
7.47675
21
-4.90256
0
LINE
8
BLACK
6
CONTINUOUS
10
7.47675
20
-4.90256
11
7.47261
21
-4.90846
0
LINE
8
BLACK
6
CONTINUOUS
10
7.47261
20
-4.90846
11
7.46752
21
-4.91356
0
LINE
8
BLACK
6
CONTINUOUS
10
7.46752
20
-4.91356
11
7.46161
21
-4.91769
0
LINE
8
BLACK
6
CONTINUOUS
10
7.46161
20
-4.91769
11
7.45508
21
-4.92074
0
LINE
8
BLACK
6
CONTINUOUS
10
7.45508
20
-4.92074
11
7.44812
21
-4.9226
0
LINE
8
BLACK
6
CONTINUOUS
10
7.44812
20
-4.9226
11
7.44094
21
-4.92323
0
LINE
8
BLACK
6
CONTINUOUS
10
7.44094
20
-4.92323
11
0.826772
21
-4.92323
0
LINE
8
BLACK
6
CONTINUOUS
10
0.826772
20
-4.92323
11
0.819593
21
-4.9226
0
LINE
8
BLACK
6
CONTINUOUS
10
0.819593
20
-4.9226
11
0.812633
21
-4.92074
0
LINE
8
BLACK
6
CONTINUOUS
10
0.812633
20
-4.92074
11
0.806102
21
-4.91769
0
LINE
8
BLACK
6
CONTINUOUS
10
0.806102
20
-4.91769
11
0.8002
21
-4.91356
0
LINE
8
BLACK
6
CONTINUOUS
10
0.8002
20
-4.91356
11
0.795104
21
-4.90846
0
LINE
8
BLACK
6
CONTINUOUS
10
0.795104
20
-4.90846
11
0.790971
21
-4.90256
0
LINE
8
BLACK
6
CONTINUOUS
10
0.790971
20
-4.90256
11
0.787926
21
-4.89603
0
LINE
8
BLACK
6
CONTINUOUS
10
0.787926
20
-4.89603
11
0.786061
21
-4.88907
0
LINE
8
BLACK
6
CONTINUOUS
10
0.786061
20
-4.88907
11
0.785433
21
-4.88189
0
LINE
8
BLACK
6
CONTINUOUS
10
0.785433
20
-4.88189
11
0.785433
21
-2.40157
0
LINE
8
BLACK
6
CONTINUOUS
10
0.785433
20
-2.40157
11
0.786061
21
-2.3944
0
LINE
8
BLACK
6
CONTINUOUS
10
0.786061
20
-2.3944
11
0.787926
21
-2.38744
0
LINE
8
BLACK
6
CONTINUOUS
10
0.787926
20
-2.38744
11
0.790971
21
-2.38091
0
LINE
8
BLACK
6
CONTINUOUS
10
0.790971
20
-2.38091
11
0.795104
21
-2.375
0
LINE
8
BLACK
6
CONTINUOUS
10
0.795104
20
-2.375
11
0.8002
21
-2.36991
0
LINE
8
BLACK
6
CONTINUOUS
10
0.8002
20
-2.36991
11
0.806102
21
-2.36577
0
LINE
8
BLACK
6
CONTINUOUS
10
0.806102
20
-2.36577
11
0.812633
21
-2.36273
0
LINE
8
BLACK
6
CONTINUOUS
10
0.812633
20
-2.36273
11
0.819593
21
-2.36086
0
LINE
8
BLACK
6
CONTINUOUS
10
0.819593
20
-2.36086
11
0.826772
21
-2.36024
0
LINE
8
BLACK
6
CONTINUOUS
10
0.826772
20
-2.36024
11
2.24409
21
-2.36024
0
LINE
8
BLACK
6
CONTINUOUS
10
2.24409
20
-2.36024
11
2.24737
21
-2.36024
0
LINE
8
BLACK
6
CONTINUOUS
10
2.24737
20
-2.36024
11
2.25381
21
-2.3591
0
LINE
8
BLACK
6
CONTINUOUS
10
2.25381
20
-2.3591
11
2.25996
21
-2.35686
0
LINE
8
BLACK
6
CONTINUOUS
10
2.25996
20
-2.35686
11
2.26563
21
-2.35359
0
LINE
8
BLACK
6
CONTINUOUS
10
2.26563
20
-2.35359
11
2.27064
21
-2.34938
0
LINE
8
BLACK
6
CONTINUOUS
10
2.27064
20
-2.34938
11
2.27485
21
-2.34437
0
LINE
8
BLACK
6
CONTINUOUS
10
2.27485
20
-2.34437
11
2.27812
21
-2.3387
0
LINE
8
BLACK
6
CONTINUOUS
10
2.27812
20
-2.3387
11
2.28036
21
-2.33255
0
LINE
8
BLACK
6
CONTINUOUS
10
2.28036
20
-2.33255
11
2.2815
21
-2.32611
0
LINE
8
BLACK
6
CONTINUOUS
10
2.2815
20
-2.32611
11
2.2815
21
-2.32283
0
LINE
8
BLACK
6
CONTINUOUS
10
2.2815
20
-2.32283
11
2.2815
21
-1.06299
0
LINE
8
BLACK
6
CONTINUOUS
10
2.2815
20
-1.06299
11
2.28212
21
-1.05581
0
LINE
8
BLACK
6
CONTINUOUS
10
2.28212
20
-1.05581
11
2.28399
21
-1.04885
0
LINE
8
BLACK
6
CONTINUOUS
10
2.28399
20
-1.04885
11
2.28703
21
-1.04232
0
LINE
8
BLACK
6
CONTINUOUS
10
2.28703
20
-1.04232
11
2.29117
21
-1.03642
0
LINE
8
BLACK
6
CONTINUOUS
10
2.29117
20
-1.03642
11
2.29626
21
-1.03132
0
LINE
8
BLACK
6
CONTINUOUS
10
2.29626
20
-1.03132
11
2.30217
21
-1.02719
0
LINE
8
BLACK
6
CONTINUOUS
10
2.30217
20
-1.02719
11
2.3087
21
-1.02415
0
LINE
8
BLACK
6
CONTINUOUS
10
2.3087
20
-1.02415
11
2.31566
21
-1.02228
0
LINE
8
BLACK
6
CONTINUOUS
10
2.31566
20
-1.02228
11
2.32283
21
-1.02165
0
LINE
8
BLACK
6
CONTINUOUS
10
2.32283
20
-1.02165
11
2.87402
21
-1.02165
0
LINE
8
BLACK
6
CONTINUOUS
10
2.87402
20
-1.02165
11
2.87729
21
-1.02165
0
LINE
8
BLACK
6
CONTINUOUS
10
2.87729
20
-1.02165
11
2.88373
21
-1.02052
0
LINE
8
BLACK
6
CONTINUOUS
10
2.88373
20
-1.02052
11
2.88988
21
-1.01828
0
LINE
8
BLACK
6
CONTINUOUS
10
2.88988
20
-1.01828
11
2.89555
21
-1.01501
0
LINE
8
BLACK
6
CONTINUOUS
10
2.89555
20
-1.01501
11
2.90056
21
-1.0108
0
LINE
8
BLACK
6
CONTINUOUS
10
2.90056
20
-1.0108
11
2.90477
21
-1.00579
0
LINE
8
BLACK
6
CONTINUOUS
10
2.90477
20
-1.00579
11
2.90804
21
-1.00012
0
LINE
8
BLACK
6
CONTINUOUS
10
2.90804
20
-1.00012
11
2.91028
21
-0.993969
0
LINE
8
BLACK
6
CONTINUOUS
10
2.91028
20
-0.993969
11
2.91142
21
-0.987524
0
LINE
8
BLACK
6
CONTINUOUS
10
2.91142
20
-0.987524
11
2.91142
21
-0.984252
0
LINE
8
BLACK
6
CONTINUOUS
10
2.91142
20
-0.984252
11
2.91142
21
-0.826772
0
LINE
8
BLACK
6
CONTINUOUS
10
2.91142
20
-0.826772
11
2.91142
21
-0.826772
0
LINE
8
BLACK
6
CONTINUOUS
10
2.91142
20
-0.826772
11
2.91205
21
-0.819593
0
LINE
8
BLACK
6
CONTINUOUS
10
2.91205
20
-0.819593
11
2.91391
21
-0.812633
0
LINE
8
BLACK
6
CONTINUOUS
10
2.91391
20
-0.812633
11
2.91696
21
-0.806102
0
LINE
8
BLACK
6
CONTINUOUS
10
2.91696
20
-0.806102
11
2.92109
21
-0.8002
0
LINE
8
BLACK
6
CONTINUOUS
10
2.92109
20
-0.8002
11
2.92618
21
-0.795104
0
LINE
8
BLACK
6
CONTINUOUS
10
2.92618
20
-0.795104
11
2.93209
21
-0.790971
0
LINE
8
BLACK
6
CONTINUOUS
10
2.93209
20
-0.790971
11
2.93862
21
-0.787926
0
LINE
8
BLACK
6
CONTINUOUS
10
2.93862
20
-0.787926
11
2.94558
21
-0.786061
0
LINE
8
BLACK
6
CONTINUOUS
10
2.94558
20
-0.786061
11
2.95276
21
-0.785433
0
LINE
8
BLACK
6
CONTINUOUS
10
2.95276
20
-0.785433
11
3.61417
21
-0.785433
0
LINE
8
BLACK
6
CONTINUOUS
10
4.65551
20
-0.78937
11
4.65551
21
-0.826772
0
LINE
8
BLACK
6
CONTINUOUS
10
4.65551
20
-0.826772
11
4.65491
21
-0.831357
0
LINE
8
BLACK
6
CONTINUOUS
10
4.65491
20
-0.831357
11
4.65314
21
-0.83563
0
LINE
8
BLACK
6
CONTINUOUS
10
4.65314
20
-0.83563
11
4.65032
21
-0.839299
0
LINE
8
BLACK
6
CONTINUOUS
10
4.65032
20
-0.839299
11
4.64665
21
-0.842115
0
LINE
8
BLACK
6
CONTINUOUS
10
4.64665
20
-0.842115
11
4.64238
21
-0.843885
0
LINE
8
BLACK
6
CONTINUOUS
10
4.64238
20
-0.843885
11
4.6378
21
-0.844488
0
LINE
8
BLACK
6
CONTINUOUS
10
4.6378
20
-0.844488
11
4.6378
21
-0.844488
0
LINE
8
BLACK
6
CONTINUOUS
10
4.6378
20
-0.844488
11
4.6378
21
-0.844488
0
LINE
8
BLACK
6
CONTINUOUS
10
4.6378
20
-0.844488
11
4.6378
21
-0.844488
0
LINE
8
BLACK
6
CONTINUOUS
10
4.6378
20
-0.844488
11
4.63779
21
-0.844488
0
LINE
8
BLACK
6
CONTINUOUS
10
4.63779
20
-0.844488
11
4.49606
21
-0.844488
0
LINE
8
BLACK
6
CONTINUOUS
10
4.49606
20
-0.844488
11
4.49148
21
-0.843885
0
LINE
8
BLACK
6
CONTINUOUS
10
4.49148
20
-0.843885
11
4.4872
21
-0.842115
0
LINE
8
BLACK
6
CONTINUOUS
10
4.4872
20
-0.842115
11
4.48354
21
-0.839299
0
LINE
8
BLACK
6
CONTINUOUS
10
4.48354
20
-0.839299
11
4.48072
21
-0.83563
0
LINE
8
BLACK
6
CONTINUOUS
10
4.48072
20
-0.83563
11
4.47895
21
-0.831357
0
LINE
8
BLACK
6
CONTINUOUS
10
4.47895
20
-0.831357
11
4.47835
21
-0.826772
0
LINE
8
BLACK
6
CONTINUOUS
10
4.47835
20
-0.826772
11
4.47835
21
-0.78937
0
LINE
8
BLACK
6
CONTINUOUS
10
4.47835
20
-0.78937
11
3.78937
21
-0.78937
0
LINE
8
BLACK
6
CONTINUOUS
10
3.78937
20
-0.78937
11
3.78937
21
-0.826772
0
LINE
8
BLACK
6
CONTINUOUS
10
3.78937
20
-0.826772
11
3.78877
21
-0.831357
0
LINE
8
BLACK
6
CONTINUOUS
10
3.78877
20
-0.831357
11
3.787
21
-0.83563
0
LINE
8
BLACK
6
CONTINUOUS
10
3.787
20
-0.83563
11
3.78418
21
-0.839299
0
LINE
8
BLACK
6
CONTINUOUS
10
3.78418
20
-0.839299
11
3.78051
21
-0.842115
0
LINE
8
BLACK
6
CONTINUOUS
10
3.78051
20
-0.842115
11
3.77624
21
-0.843885
0
LINE
8
BLACK
6
CONTINUOUS
10
3.77624
20
-0.843885
11
3.77165
21
-0.844488
0
LINE
8
BLACK
6
CONTINUOUS
10
3.77165
20
-0.844488
11
3.62992
21
-0.844488
0
LINE
8
BLACK
6
CONTINUOUS
10
3.62992
20
-0.844488
11
3.62534
21
-0.843885
0
LINE
8
BLACK
6
CONTINUOUS
10
3.62534
20
-0.843885
11
3.62106
21
-0.842115
0
LINE
8
BLACK
6
CONTINUOUS
10
3.62106
20
-0.842115
11
3.61739
21
-0.839299
0
LINE
8
BLACK
6
CONTINUOUS
10
3.61739
20
-0.839299
11
3.61458
21
-0.83563
0
LINE
8
BLACK
6
CONTINUOUS
10
3.61458
20
-0.83563
11
3.61281
21
-0.831357
0
LINE
8
BLACK
6
CONTINUOUS
10
3.61281
20
-0.831357
11
3.6122
21
-0.826772
0
LINE
8
BLACK
6
CONTINUOUS
10
3.6122
20
-0.826772
11
3.6122
21
-0.78937
0
LINE
8
BLACK
6
CONTINUOUS
10
3.6122
20
-0.78937
11
2.95276
21
-0.78937
0
LINE
8
BLACK
6
CONTINUOUS
10
2.95276
20
-0.78937
11
2.94948
21
-0.78937
0
LINE
8
BLACK
6
CONTINUOUS
10
2.94948
20
-0.78937
11
2.94304
21
-0.790506
0
LINE
8
BLACK
6
CONTINUOUS
10
2.94304
20
-0.790506
11
2.93689
21
-0.792745
0
LINE
8
BLACK
6
CONTINUOUS
10
2.93689
20
-0.792745
11
2.93122
21
-0.796017
0
LINE
8
BLACK
6
CONTINUOUS
10
2.93122
20
-0.796017
11
2.92621
21
-0.800224
0
LINE
8
BLACK
6
CONTINUOUS
10
2.92621
20
-0.800224
11
2.922
21
-0.805237
0
LINE
8
BLACK
6
CONTINUOUS
10
2.922
20
-0.805237
11
2.91873
21
-0.810905
0
LINE
8
BLACK
6
CONTINUOUS
10
2.91873
20
-0.810905
11
2.91649
21
-0.817054
0
LINE
8
BLACK
6
CONTINUOUS
10
2.91649
20
-0.817054
11
2.91535
21
-0.823499
0
LINE
8
BLACK
6
CONTINUOUS
10
2.91535
20
-0.823499
11
2.91535
21
-0.826772
0
LINE
8
BLACK
6
CONTINUOUS
10
2.91535
20
-0.826772
11
2.91535
21
-0.984252
0
LINE
8
BLACK
6
CONTINUOUS
10
2.91535
20
-0.984252
11
2.91473
21
-0.99143
0
LINE
8
BLACK
6
CONTINUOUS
10
2.91473
20
-0.99143
11
2.91286
21
-0.998391
0
LINE
8
BLACK
6
CONTINUOUS
10
2.91286
20
-0.998391
11
2.90982
21
-1.00492
0
LINE
8
BLACK
6
CONTINUOUS
10
2.90982
20
-1.00492
11
2.90568
21
-1.01082
0
LINE
8
BLACK
6
CONTINUOUS
10
2.90568
20
-1.01082
11
2.90059
21
-1.01592
0
LINE
8
BLACK
6
CONTINUOUS
10
2.90059
20
-1.01592
11
2.89469
21
-1.02005
0
LINE
8
BLACK
6
CONTINUOUS
10
2.89469
20
-1.02005
11
2.88815
21
-1.0231
0
LINE
8
BLACK
6
CONTINUOUS
10
2.88815
20
-1.0231
11
2.88119
21
-1.02496
0
LINE
8
BLACK
6
CONTINUOUS
10
2.88119
20
-1.02496
11
2.87402
21
-1.02559
0
LINE
8
BLACK
6
CONTINUOUS
10
2.87402
20
-1.02559
11
2.32283
21
-1.02559
0
LINE
8
BLACK
6
CONTINUOUS
10
2.32283
20
-1.02559
11
2.31956
21
-1.02559
0
LINE
8
BLACK
6
CONTINUOUS
10
2.31956
20
-1.02559
11
2.31312
21
-1.02673
0
LINE
8
BLACK
6
CONTINUOUS
10
2.31312
20
-1.02673
11
2.30697
21
-1.02897
0
LINE
8
BLACK
6
CONTINUOUS
10
2.30697
20
-1.02897
11
2.3013
21
-1.03224
0
LINE
8
BLACK
6
CONTINUOUS
10
2.3013
20
-1.03224
11
2.29629
21
-1.03644
0
LINE
8
BLACK
6
CONTINUOUS
10
2.29629
20
-1.03644
11
2.29208
21
-1.04146
0
LINE
8
BLACK
6
CONTINUOUS
10
2.29208
20
-1.04146
11
2.28881
21
-1.04713
0
LINE
8
BLACK
6
CONTINUOUS
10
2.28881
20
-1.04713
11
2.28657
21
-1.05327
0
LINE
8
BLACK
6
CONTINUOUS
10
2.28657
20
-1.05327
11
2.28543
21
-1.05972
0
LINE
8
BLACK
6
CONTINUOUS
10
2.28543
20
-1.05972
11
2.28543
21
-1.06299
0
LINE
8
BLACK
6
CONTINUOUS
10
2.28543
20
-1.06299
11
2.28543
21
-2.32283
0
LINE
8
BLACK
6
CONTINUOUS
10
2.28543
20
-2.32283
11
2.28481
21
-2.33001
0
LINE
8
BLACK
6
CONTINUOUS
10
2.28481
20
-2.33001
11
2.28294
21
-2.33697
0
LINE
8
BLACK
6
CONTINUOUS
10
2.28294
20
-2.33697
11
2.27989
21
-2.3435
0
LINE
8
BLACK
6
CONTINUOUS
10
2.27989
20
-2.3435
11
2.27576
21
-2.34941
0
LINE
8
BLACK
6
CONTINUOUS
10
2.27576
20
-2.34941
11
2.27067
21
-2.3545
0
LINE
8
BLACK
6
CONTINUOUS
10
2.27067
20
-2.3545
11
2.26476
21
-2.35863
0
LINE
8
BLACK
6
CONTINUOUS
10
2.26476
20
-2.35863
11
2.25823
21
-2.36168
0
LINE
8
BLACK
6
CONTINUOUS
10
2.25823
20
-2.36168
11
2.25127
21
-2.36355
0
LINE
8
BLACK
6
CONTINUOUS
10
2.25127
20
-2.36355
11
2.24409
21
-2.36417
0
LINE
8
BLACK
6
CONTINUOUS
10
2.24409
20
-2.36417
11
0.826772
21
-2.36417
0
LINE
8
BLACK
6
CONTINUOUS
10
0.826772
20
-2.36417
11
0.823499
21
-2.36417
0
LINE
8
BLACK
6
CONTINUOUS
10
0.823499
20
-2.36417
11
0.817054
21
-2.36531
0
LINE
8
BLACK
6
CONTINUOUS
10
0.817054
20
-2.36531
11
0.810905
21
-2.36755
0
LINE
8
BLACK
6
CONTINUOUS
10
0.810905
20
-2.36755
11
0.805237
21
-2.37082
0
LINE
8
BLACK
6
CONTINUOUS
10
0.805237
20
-2.37082
11
0.800224
21
-2.37503
0
LINE
8
BLACK
6
CONTINUOUS
10
0.800224
20
-2.37503
11
0.796017
21
-2.38004
0
LINE
8
BLACK
6
CONTINUOUS
10
0.796017
20
-2.38004
11
0.792745
21
-2.38571
0
LINE
8
BLACK
6
CONTINUOUS
10
0.792745
20
-2.38571
11
0.790506
21
-2.39186
0
LINE
8
BLACK
6
CONTINUOUS
10
0.790506
20
-2.39186
11
0.78937
21
-2.3983
0
LINE
8
BLACK
6
CONTINUOUS
10
0.78937
20
-2.3983
11
0.78937
21
-2.40157
0
LINE
8
BLACK
6
CONTINUOUS
10
0.78937
20
-2.40157
11
0.78937
21
-4.88189
0
LINE
8
BLACK
6
CONTINUOUS
10
0.78937
20
-4.88189
11
0.78937
21
-4.88516
0
LINE
8
BLACK
6
CONTINUOUS
10
0.78937
20
-4.88516
11
0.790506
21
-4.89161
0
LINE
8
BLACK
6
CONTINUOUS
10
0.790506
20
-4.89161
11
0.792745
21
-4.89776
0
LINE
8
BLACK
6
CONTINUOUS
10
0.792745
20
-4.89776
11
0.796017
21
-4.90342
0
LINE
8
BLACK
6
CONTINUOUS
10
0.796017
20
-4.90342
11
0.800224
21
-4.90844
0
LINE
8
BLACK
6
CONTINUOUS
10
0.800224
20
-4.90844
11
0.805237
21
-4.91264
0
LINE
8
BLACK
6
CONTINUOUS
10
0.805237
20
-4.91264
11
0.810905
21
-4.91592
0
LINE
8
BLACK
6
CONTINUOUS
10
0.810905
20
-4.91592
11
0.817054
21
-4.91815
0
LINE
8
BLACK
6
CONTINUOUS
10
0.817054
20
-4.91815
11
0.823499
21
-4.91929
0
LINE
8
BLACK
6
CONTINUOUS
10
0.823499
20
-4.91929
11
0.826772
21
-4.91929
0
LINE
8
BLACK
6
CONTINUOUS
10
0.826772
20
-4.91929
11
7.44094
21
-4.91929
0
LINE
8
BLACK
6
CONTINUOUS
10
7.44094
20
-4.91929
11
7.44422
21
-4.91929
0
LINE
8
BLACK
6
CONTINUOUS
10
7.44422
20
-4.91929
11
7.45066
21
-4.91815
0
LINE
8
BLACK
6
CONTINUOUS
10
7.45066
20
-4.91815
11
7.45681
21
-4.91592
0
LINE
8
BLACK
6
CONTINUOUS
10
7.45681
20
-4.91592
11
7.46248
21
-4.91264
0
LINE
8
BLACK
6
CONTINUOUS
10
7.46248
20
-4.91264
11
7.46749
21
-4.90844
0
LINE
8
BLACK
6
CONTINUOUS
10
7.46749
20
-4.90844
11
7.4717
21
-4.90342
0
LINE
8
BLACK
6
CONTINUOUS
10
7.4717
20
-4.90342
11
7.47497
21
-4.89776
0
LINE
8
BLACK
6
CONTINUOUS
10
7.47497
20
-4.89776
11
7.47721
21
-4.89161
0
LINE
8
BLACK
6
CONTINUOUS
10
7.47721
20
-4.89161
11
7.47835
21
-4.88516
0
LINE
8
BLACK
6
CONTINUOUS
10
7.47835
20
-4.88516
11
7.47835
21
-4.88189
0
LINE
8
BLACK
6
CONTINUOUS
10
7.47835
20
-4.88189
11
7.47835
21
-0.826772
0
LINE
8
BLACK
6
CONTINUOUS
10
7.47835
20
-0.826772
11
7.47835
21
-0.823499
0
LINE
8
BLACK
6
CONTINUOUS
10
7.47835
20
-0.823499
11
7.47721
21
-0.817054
0
LINE
8
BLACK
6
CONTINUOUS
10
7.47721
20
-0.817054
11
7.47497
21
-0.810905
0
LINE
8
BLACK
6
CONTINUOUS
10
7.47497
20
-0.810905
11
7.4717
21
-0.805237
0
LINE
8
BLACK
6
CONTINUOUS
10
7.4717
20
-0.805237
11
7.46749
21
-0.800224
0
LINE
8
BLACK
6
CONTINUOUS
10
7.46749
20
-0.800224
11
7.46248
21
-0.796017
0
LINE
8
BLACK
6
CONTINUOUS
10
7.46248
20
-0.796017
11
7.45681
21
-0.792745
0
LINE
8
BLACK
6
CONTINUOUS
10
7.45681
20
-0.792745
11
7.45066
21
-0.790506
0
LINE
8
BLACK
6
CONTINUOUS
10
7.45066
20
-0.790506
11
7.44422
21
-0.78937
0
LINE
8
BLACK
6
CONTINUOUS
10
7.44422
20
-0.78937
11
7.44094
21
-0.78937
0
LINE
8
BLACK
6
CONTINUOUS
10
7.44094
20
-0.78937
11
4.65551
21
-0.78937
  0
ENDSEC
  0
EOF
