<?xml version="1.0" standalone="no"?>
 <!DOCTYPE svg PUBLIC "-//W3C//DTD SVG 1.1//EN" 
 "http://www.w3.org/Graphics/SVG/1.1/DTD/svg11.dtd"> 
<svg
  xmlns:svg="http://www.w3.org/2000/svg"
  xmlns="http://www.w3.org/2000/svg"
  xmlns:xlink="http://www.w3.org/1999/xlink"
  version="1.1"
  width="17.21cm" height="10.71cm" viewBox="18.95 18.95 172.1 107.1">
<title>SVG Image created as pedalboard-hw-B_Paste.svg date 2023/04/16 12:27:14 </title>
  <desc>Image generated by PCBNEW </desc>
<g style="fill:#000000; fill-opacity:1.000000;stroke:#000000; stroke-opacity:1.000000;
stroke-linecap:round; stroke-linejoin:round;"
 transform="translate(0 0) scale(1 1)">
</g>
<g style="fill:#000000; fill-opacity:0.0; 
stroke:#000000; stroke-width:0.000000; stroke-opacity:1; 
stroke-linecap:round; stroke-linejoin:round;">
<g >
</g>
<g >
</g>
<g >
</g>
<g >
</g>
<g >
</g>
<g >
</g>
<g >
</g>
<g >
</g>
<g >
</g>
<g >
</g>
<g >
</g>
<g >
</g>
<g >
</g>
<g >
</g>
<g >
</g>
<g >
</g>
<g >
</g>
<g >
</g>
<g >
</g>
<g >
</g>
<g >
</g>
<g >
</g>
<g >
</g>
<g >
</g>
<g >
</g>
<g >
</g>
<g >
</g>
<g >
</g>
<g >
</g>
<g >
</g>
<g >
</g>
<g >
</g>
<g >
</g>
<g >
</g>
<g >
</g>
<g >
</g>
<g >
</g>
<g >
</g>
<g >
</g>
<g >
</g>
<g >
</g>
<g >
</g>
<g >
</g>
<g >
</g>
<g >
</g>
<g >
</g>
<g >
</g>
<g >
</g>
<g >
</g>
<g >
</g>
<g >
</g>
<g >
</g>
<g >
</g>
<g >
</g>
<g >
</g>
<g >
</g>
<g >
</g>
<g >
</g>
<g >
</g>
<g >
</g>
<g >
</g>
<g >
</g>
<g >
</g>
<g >
</g>
<g >
</g>
<g >
</g>
<g >
</g>
<g >
</g>
<g >
</g>
<g >
</g>
<g >
</g>
<g >
</g>
<g >
</g>
<g >
</g>
<g >
</g>
<g >
</g>
<g >
</g>
<g >
</g>
<g >
</g>
<g style="fill:#000000; fill-opacity:0.0; 
stroke:#000000; stroke-width:0.000000; stroke-opacity:1; 
stroke-linecap:round; stroke-linejoin:round;">
</g>
<g style="fill:#000000; fill-opacity:0.0; 
stroke:#000000; stroke-width:0.000000; stroke-opacity:1; 
stroke-linecap:round; stroke-linejoin:round;">
</g>
<g style="fill:#000000; fill-opacity:1.000000; 
stroke:#000000; stroke-width:0.000000; stroke-opacity:1; 
stroke-linecap:round; stroke-linejoin:round;">
<path style="fill:#000000; fill-opacity:1.000000; 
stroke:#000000; stroke-width:0.000000; stroke-opacity:1; 
stroke-linecap:round; stroke-linejoin:round;fill-rule:evenodd;"
d="M 93.929000,77.143000
93.820287,77.127161
93.707610,77.072076
93.618924,76.983390
93.563839,76.870713
93.548000,76.762000
93.548000,75.238000
93.563839,75.129287
93.618924,75.016610
93.707610,74.927924
93.820287,74.872839
93.929000,74.857000
94.691000,74.857000
94.799713,74.872839
94.912390,74.927924
95.001076,75.016610
95.056161,75.129287
95.072000,75.238000
95.072000,76.762000
95.056161,76.870713
95.001076,76.983390
94.912390,77.072076
94.799713,77.127161
94.691000,77.143000
Z" /> 
<path style="fill:#000000; fill-opacity:1.000000; 
stroke:#000000; stroke-width:0.000000; stroke-opacity:1; 
stroke-linecap:round; stroke-linejoin:round;fill-rule:evenodd;"
d="M 93.929000,74.543000
93.820287,74.527161
93.707610,74.472076
93.618924,74.383390
93.563839,74.270713
93.548000,74.162000
93.548000,72.638000
93.563839,72.529287
93.618924,72.416610
93.707610,72.327924
93.820287,72.272839
93.929000,72.257000
94.691000,72.257000
94.799713,72.272839
94.912390,72.327924
95.001076,72.416610
95.056161,72.529287
95.072000,72.638000
95.072000,74.162000
95.056161,74.270713
95.001076,74.383390
94.912390,74.472076
94.799713,74.527161
94.691000,74.543000
Z" /> 
</g>
<g >
</g>
<g >
</g>
<g >
</g>
<g >
</g>
<g >
</g>
<g >
</g>
<g style="fill:#000000; fill-opacity:1.000000; 
stroke:#000000; stroke-width:0.000000; stroke-opacity:1; 
stroke-linecap:round; stroke-linejoin:round;">
<path style="fill:#000000; fill-opacity:1.000000; 
stroke:#000000; stroke-width:0.000000; stroke-opacity:1; 
stroke-linecap:round; stroke-linejoin:round;fill-rule:evenodd;"
d="M 95.859000,77.133000
95.750287,77.117161
95.637610,77.062076
95.548924,76.973390
95.493839,76.860713
95.478000,76.752000
95.478000,75.228000
95.493839,75.119287
95.548924,75.006610
95.637610,74.917924
95.750287,74.862839
95.859000,74.847000
96.621000,74.847000
96.729713,74.862839
96.842390,74.917924
96.931076,75.006610
96.986161,75.119287
97.002000,75.228000
97.002000,76.752000
96.986161,76.860713
96.931076,76.973390
96.842390,77.062076
96.729713,77.117161
96.621000,77.133000
Z" /> 
<path style="fill:#000000; fill-opacity:1.000000; 
stroke:#000000; stroke-width:0.000000; stroke-opacity:1; 
stroke-linecap:round; stroke-linejoin:round;fill-rule:evenodd;"
d="M 95.859000,74.533000
95.750287,74.517161
95.637610,74.462076
95.548924,74.373390
95.493839,74.260713
95.478000,74.152000
95.478000,72.628000
95.493839,72.519287
95.548924,72.406610
95.637610,72.317924
95.750287,72.262839
95.859000,72.247000
96.621000,72.247000
96.729713,72.262839
96.842390,72.317924
96.931076,72.406610
96.986161,72.519287
97.002000,72.628000
97.002000,74.152000
96.986161,74.260713
96.931076,74.373390
96.842390,74.462076
96.729713,74.517161
96.621000,74.533000
Z" /> 
</g>
<g >
</g>
<g >
</g>
<g >
</g>
<g >
</g>
</g> 
</svg>
