<?xml version="1.0" standalone="no"?>
 <!DOCTYPE svg PUBLIC "-//W3C//DTD SVG 1.1//EN" 
 "http://www.w3.org/Graphics/SVG/1.1/DTD/svg11.dtd"> 
<svg
  xmlns:svg="http://www.w3.org/2000/svg"
  xmlns="http://www.w3.org/2000/svg"
  xmlns:xlink="http://www.w3.org/1999/xlink"
  version="1.1"
  width="17.21cm" height="10.71cm" viewBox="18.95 18.95 172.1 107.1">
<title>SVG Image created as pedalboard-hw-B_Paste.svg date 2023/06/12 14:55:22 </title>
  <desc>Image generated by PCBNEW </desc>
<g style="fill:#000000; fill-opacity:1.000000;stroke:#000000; stroke-opacity:1.000000;
stroke-linecap:round; stroke-linejoin:round;"
 transform="translate(0 0) scale(1 1)">
</g>
<g style="fill:#000000; fill-opacity:0.0; 
stroke:#000000; stroke-width:0.000000; stroke-opacity:1; 
stroke-linecap:round; stroke-linejoin:round;">
<g >
</g>
<g >
</g>
<g >
</g>
<g >
</g>
<g >
</g>
<g >
</g>
<g >
</g>
<g >
</g>
<g >
</g>
<g >
</g>
<g >
</g>
<g >
</g>
<g >
</g>
<g >
</g>
<g >
</g>
<g >
</g>
<g >
</g>
<g >
</g>
<g >
</g>
<g >
</g>
<g >
</g>
<g >
</g>
<g >
</g>
<g >
</g>
<g >
</g>
<g >
</g>
<g >
</g>
<g >
</g>
<g >
</g>
<g >
</g>
<g >
</g>
<g >
</g>
<g >
</g>
<g >
</g>
<g >
</g>
<g >
</g>
<g >
</g>
<g >
</g>
<g >
</g>
<g >
</g>
<g >
</g>
<g >
</g>
<g >
</g>
<g >
</g>
<g >
</g>
<g >
</g>
<g >
</g>
<g >
</g>
<g >
</g>
<g >
</g>
<g >
</g>
<g >
</g>
<g >
</g>
<g >
</g>
<g >
</g>
<g >
</g>
<g >
</g>
<g >
</g>
<g >
</g>
<g >
</g>
<g >
</g>
<g >
</g>
<g >
</g>
<g >
</g>
<g >
</g>
<g >
</g>
<g >
</g>
<g >
</g>
<g >
</g>
<g >
</g>
<g >
</g>
<g >
</g>
<g >
</g>
<g >
</g>
<g >
</g>
<g >
</g>
<g >
</g>
<g >
</g>
<g >
</g>
<g >
</g>
<g >
</g>
<g >
</g>
<g >
</g>
<g >
</g>
<g >
</g>
<g >
</g>
<g >
</g>
<g style="fill:#000000; fill-opacity:0.0; 
stroke:#000000; stroke-width:0.000000; stroke-opacity:1; 
stroke-linecap:round; stroke-linejoin:round;">
</g>
<g style="fill:#000000; fill-opacity:0.0; 
stroke:#000000; stroke-width:0.000000; stroke-opacity:1; 
stroke-linecap:round; stroke-linejoin:round;">
</g>
<g style="fill:#000000; fill-opacity:1.000000; 
stroke:#000000; stroke-width:0.000000; stroke-opacity:1; 
stroke-linecap:round; stroke-linejoin:round;">
<path style="fill:#000000; fill-opacity:1.000000; 
stroke:#000000; stroke-width:0.000000; stroke-opacity:1; 
stroke-linecap:round; stroke-linejoin:round;fill-rule:evenodd;"
d="M 84.679000,77.143000
84.570287,77.127161
84.457610,77.072076
84.368924,76.983390
84.313839,76.870713
84.298000,76.762000
84.298000,75.238000
84.313839,75.129287
84.368924,75.016610
84.457610,74.927924
84.570287,74.872839
84.679000,74.857000
85.441000,74.857000
85.549713,74.872839
85.662390,74.927924
85.751076,75.016610
85.806161,75.129287
85.822000,75.238000
85.822000,76.762000
85.806161,76.870713
85.751076,76.983390
85.662390,77.072076
85.549713,77.127161
85.441000,77.143000
Z" /> 
<path style="fill:#000000; fill-opacity:1.000000; 
stroke:#000000; stroke-width:0.000000; stroke-opacity:1; 
stroke-linecap:round; stroke-linejoin:round;fill-rule:evenodd;"
d="M 84.679000,74.543000
84.570287,74.527161
84.457610,74.472076
84.368924,74.383390
84.313839,74.270713
84.298000,74.162000
84.298000,72.638000
84.313839,72.529287
84.368924,72.416610
84.457610,72.327924
84.570287,72.272839
84.679000,72.257000
85.441000,72.257000
85.549713,72.272839
85.662390,72.327924
85.751076,72.416610
85.806161,72.529287
85.822000,72.638000
85.822000,74.162000
85.806161,74.270713
85.751076,74.383390
85.662390,74.472076
85.549713,74.527161
85.441000,74.543000
Z" /> 
</g>
<g >
</g>
<g >
</g>
<g >
</g>
<g >
</g>
<g >
</g>
<g >
</g>
<g style="fill:#000000; fill-opacity:1.000000; 
stroke:#000000; stroke-width:0.000000; stroke-opacity:1; 
stroke-linecap:round; stroke-linejoin:round;">
<path style="fill:#000000; fill-opacity:1.000000; 
stroke:#000000; stroke-width:0.000000; stroke-opacity:1; 
stroke-linecap:round; stroke-linejoin:round;fill-rule:evenodd;"
d="M 86.609000,77.133000
86.500287,77.117161
86.387610,77.062076
86.298924,76.973390
86.243839,76.860713
86.228000,76.752000
86.228000,75.228000
86.243839,75.119287
86.298924,75.006610
86.387610,74.917924
86.500287,74.862839
86.609000,74.847000
87.371000,74.847000
87.479713,74.862839
87.592390,74.917924
87.681076,75.006610
87.736161,75.119287
87.752000,75.228000
87.752000,76.752000
87.736161,76.860713
87.681076,76.973390
87.592390,77.062076
87.479713,77.117161
87.371000,77.133000
Z" /> 
<path style="fill:#000000; fill-opacity:1.000000; 
stroke:#000000; stroke-width:0.000000; stroke-opacity:1; 
stroke-linecap:round; stroke-linejoin:round;fill-rule:evenodd;"
d="M 86.609000,74.533000
86.500287,74.517161
86.387610,74.462076
86.298924,74.373390
86.243839,74.260713
86.228000,74.152000
86.228000,72.628000
86.243839,72.519287
86.298924,72.406610
86.387610,72.317924
86.500287,72.262839
86.609000,72.247000
87.371000,72.247000
87.479713,72.262839
87.592390,72.317924
87.681076,72.406610
87.736161,72.519287
87.752000,72.628000
87.752000,74.152000
87.736161,74.260713
87.681076,74.373390
87.592390,74.462076
87.479713,74.517161
87.371000,74.533000
Z" /> 
</g>
<g >
</g>
<g >
</g>
<g >
</g>
<g >
</g>
</g> 
</svg>
