<?xml version="1.0" standalone="no"?>
 <!DOCTYPE svg PUBLIC "-//W3C//DTD SVG 1.1//EN" 
 "http://www.w3.org/Graphics/SVG/1.1/DTD/svg11.dtd"> 
<svg
  xmlns:svg="http://www.w3.org/2000/svg"
  xmlns="http://www.w3.org/2000/svg"
  xmlns:xlink="http://www.w3.org/1999/xlink"
  version="1.1"
  width="17.21cm" height="10.71cm" viewBox="18.95 18.95 172.1 107.1">
<title>SVG Image created as pedalboard-hw-B_SilkS.svg date 2023/04/24 18:30:42 </title>
  <desc>Image generated by PCBNEW </desc>
<g style="fill:#000000; fill-opacity:1.000000;stroke:#000000; stroke-opacity:1.000000;
stroke-linecap:round; stroke-linejoin:round;"
 transform="translate(0 0) scale(1 1)">
</g>
<g style="fill:#000000; fill-opacity:0.0; 
stroke:#000000; stroke-width:0.000000; stroke-opacity:1; 
stroke-linecap:round; stroke-linejoin:round;">
</g>
<g style="fill:#000000; fill-opacity:0.0; 
stroke:#000000; stroke-width:0.150000; stroke-opacity:1; 
stroke-linecap:round; stroke-linejoin:round;">
<g transform="rotate(90.000000 55.321200 71.475600)">
<text x="55.321200" y="71.475600"
transform="scale(-1 1) translate(-110.642400 0)"
textLength="3.222619" font-size="1.333333" lengthAdjust="spacingAndGlyphs"
text-anchor="start" opacity="0">GND</text>
</g>
<g class="stroked-text"><desc>GND</desc>
<path d="M56.395961 70.713695
L56.443580 70.808933
" />
<path d="M56.443580 70.808933
L56.443580 70.951790
" />
<path d="M56.443580 70.951790
L56.395961 71.094647
" />
<path d="M56.395961 71.094647
L56.300723 71.189885
" />
<path d="M56.300723 71.189885
L56.205485 71.237504
" />
<path d="M56.205485 71.237504
L56.015009 71.285123
" />
<path d="M56.015009 71.285123
L55.872152 71.285123
" />
<path d="M55.872152 71.285123
L55.681676 71.237504
" />
<path d="M55.681676 71.237504
L55.586438 71.189885
" />
<path d="M55.586438 71.189885
L55.491200 71.094647
" />
<path d="M55.491200 71.094647
L55.443580 70.951790
" />
<path d="M55.443580 70.951790
L55.443580 70.856552
" />
<path d="M55.443580 70.856552
L55.491200 70.713695
" />
<path d="M55.491200 70.713695
L55.538819 70.666076
" />
<path d="M55.538819 70.666076
L55.872152 70.666076
" />
<path d="M55.872152 70.666076
L55.872152 70.856552
" />
<path d="M55.443580 70.237504
L56.443580 70.237504
" />
<path d="M56.443580 70.237504
L55.443580 69.666076
" />
<path d="M55.443580 69.666076
L56.443580 69.666076
" />
<path d="M55.443580 69.189885
L56.443580 69.189885
" />
<path d="M56.443580 69.189885
L56.443580 68.951790
" />
<path d="M56.443580 68.951790
L56.395961 68.808933
" />
<path d="M56.395961 68.808933
L56.300723 68.713695
" />
<path d="M56.300723 68.713695
L56.205485 68.666076
" />
<path d="M56.205485 68.666076
L56.015009 68.618457
" />
<path d="M56.015009 68.618457
L55.872152 68.618457
" />
<path d="M55.872152 68.618457
L55.681676 68.666076
" />
<path d="M55.681676 68.666076
L55.586438 68.713695
" />
<path d="M55.586438 68.713695
L55.491200 68.808933
" />
<path d="M55.491200 68.808933
L55.443580 68.951790
" />
<path d="M55.443580 68.951790
L55.443580 69.189885
" />
</g><g transform="rotate(90.000000 52.882800 71.374000)">
<text x="52.882800" y="71.374000"
transform="scale(-1 1) translate(-105.765600 0)"
textLength="6.698811" font-size="1.333333" lengthAdjust="spacingAndGlyphs"
text-anchor="start" opacity="0">Data out</text>
</g>
<g class="stroked-text"><desc>Data out</desc>
<path d="M53.005180 71.135904
L54.005180 71.135904
" />
<path d="M54.005180 71.135904
L54.005180 70.897809
" />
<path d="M54.005180 70.897809
L53.957561 70.754952
" />
<path d="M53.957561 70.754952
L53.862323 70.659714
" />
<path d="M53.862323 70.659714
L53.767085 70.612095
" />
<path d="M53.767085 70.612095
L53.576609 70.564476
" />
<path d="M53.576609 70.564476
L53.433752 70.564476
" />
<path d="M53.433752 70.564476
L53.243276 70.612095
" />
<path d="M53.243276 70.612095
L53.148038 70.659714
" />
<path d="M53.148038 70.659714
L53.052800 70.754952
" />
<path d="M53.052800 70.754952
L53.005180 70.897809
" />
<path d="M53.005180 70.897809
L53.005180 71.135904
" />
<path d="M53.005180 69.707333
L53.528990 69.707333
" />
<path d="M53.528990 69.707333
L53.624228 69.754952
" />
<path d="M53.624228 69.754952
L53.671847 69.850190
" />
<path d="M53.671847 69.850190
L53.671847 70.040666
" />
<path d="M53.671847 70.040666
L53.624228 70.135904
" />
<path d="M53.052800 69.707333
L53.005180 69.802571
" />
<path d="M53.005180 69.802571
L53.005180 70.040666
" />
<path d="M53.005180 70.040666
L53.052800 70.135904
" />
<path d="M53.052800 70.135904
L53.148038 70.183523
" />
<path d="M53.148038 70.183523
L53.243276 70.183523
" />
<path d="M53.243276 70.183523
L53.338514 70.135904
" />
<path d="M53.338514 70.135904
L53.386133 70.040666
" />
<path d="M53.386133 70.040666
L53.386133 69.802571
" />
<path d="M53.386133 69.802571
L53.433752 69.707333
" />
<path d="M53.671847 69.373999
L53.671847 68.993047
" />
<path d="M54.005180 69.231142
L53.148038 69.231142
" />
<path d="M53.148038 69.231142
L53.052800 69.183523
" />
<path d="M53.052800 69.183523
L53.005180 69.088285
" />
<path d="M53.005180 69.088285
L53.005180 68.993047
" />
<path d="M53.005180 68.231142
L53.528990 68.231142
" />
<path d="M53.528990 68.231142
L53.624228 68.278761
" />
<path d="M53.624228 68.278761
L53.671847 68.373999
" />
<path d="M53.671847 68.373999
L53.671847 68.564475
" />
<path d="M53.671847 68.564475
L53.624228 68.659713
" />
<path d="M53.052800 68.231142
L53.005180 68.326380
" />
<path d="M53.005180 68.326380
L53.005180 68.564475
" />
<path d="M53.005180 68.564475
L53.052800 68.659713
" />
<path d="M53.052800 68.659713
L53.148038 68.707332
" />
<path d="M53.148038 68.707332
L53.243276 68.707332
" />
<path d="M53.243276 68.707332
L53.338514 68.659713
" />
<path d="M53.338514 68.659713
L53.386133 68.564475
" />
<path d="M53.386133 68.564475
L53.386133 68.326380
" />
<path d="M53.386133 68.326380
L53.433752 68.231142
" />
<path d="M53.005180 66.850189
L53.052800 66.945427
" />
<path d="M53.052800 66.945427
L53.100419 66.993046
" />
<path d="M53.100419 66.993046
L53.195657 67.040665
" />
<path d="M53.195657 67.040665
L53.481371 67.040665
" />
<path d="M53.481371 67.040665
L53.576609 66.993046
" />
<path d="M53.576609 66.993046
L53.624228 66.945427
" />
<path d="M53.624228 66.945427
L53.671847 66.850189
" />
<path d="M53.671847 66.850189
L53.671847 66.707332
" />
<path d="M53.671847 66.707332
L53.624228 66.612094
" />
<path d="M53.624228 66.612094
L53.576609 66.564475
" />
<path d="M53.576609 66.564475
L53.481371 66.516856
" />
<path d="M53.481371 66.516856
L53.195657 66.516856
" />
<path d="M53.195657 66.516856
L53.100419 66.564475
" />
<path d="M53.100419 66.564475
L53.052800 66.612094
" />
<path d="M53.052800 66.612094
L53.005180 66.707332
" />
<path d="M53.005180 66.707332
L53.005180 66.850189
" />
<path d="M53.671847 65.659713
L53.005180 65.659713
" />
<path d="M53.671847 66.088284
L53.148038 66.088284
" />
<path d="M53.148038 66.088284
L53.052800 66.040665
" />
<path d="M53.052800 66.040665
L53.005180 65.945427
" />
<path d="M53.005180 65.945427
L53.005180 65.802570
" />
<path d="M53.005180 65.802570
L53.052800 65.707332
" />
<path d="M53.052800 65.707332
L53.100419 65.659713
" />
<path d="M53.671847 65.326379
L53.671847 64.945427
" />
<path d="M54.005180 65.183522
L53.148038 65.183522
" />
<path d="M53.148038 65.183522
L53.052800 65.135903
" />
<path d="M53.052800 65.135903
L53.005180 65.040665
" />
<path d="M53.005180 65.040665
L53.005180 64.945427
" />
</g><g transform="rotate(-90.000000 71.932800 49.733200)">
<text x="71.932800" y="49.733200"
transform="scale(-1 1) translate(-143.865600 0)"
textLength="1.698809" font-size="1.333333" lengthAdjust="spacingAndGlyphs"
text-anchor="start" opacity="0">IN</text>
</g>
<g class="stroked-text"><desc>IN</desc>
<path d="M71.810419 49.971295
L70.810419 49.971295
" />
<path d="M71.810419 50.447485
L70.810419 50.447485
" />
<path d="M70.810419 50.447485
L71.810419 51.018913
" />
<path d="M71.810419 51.018913
L70.810419 51.018913
" />
</g><g transform="rotate(-90.000000 189.230000 36.576000)">
<text x="189.230000" y="36.576000"
transform="scale(-1 1) translate(-378.460000 0)"
textLength="3.222619" font-size="1.333333" lengthAdjust="spacingAndGlyphs"
text-anchor="start" opacity="0">GND</text>
</g>
<g class="stroked-text"><desc>GND</desc>
<path d="M188.155238 37.337904
L188.107619 37.242666
" />
<path d="M188.107619 37.242666
L188.107619 37.099809
" />
<path d="M188.107619 37.099809
L188.155238 36.956952
" />
<path d="M188.155238 36.956952
L188.250476 36.861714
" />
<path d="M188.250476 36.861714
L188.345714 36.814095
" />
<path d="M188.345714 36.814095
L188.536190 36.766476
" />
<path d="M188.536190 36.766476
L188.679047 36.766476
" />
<path d="M188.679047 36.766476
L188.869523 36.814095
" />
<path d="M188.869523 36.814095
L188.964761 36.861714
" />
<path d="M188.964761 36.861714
L189.060000 36.956952
" />
<path d="M189.060000 36.956952
L189.107619 37.099809
" />
<path d="M189.107619 37.099809
L189.107619 37.195047
" />
<path d="M189.107619 37.195047
L189.060000 37.337904
" />
<path d="M189.060000 37.337904
L189.012380 37.385523
" />
<path d="M189.012380 37.385523
L188.679047 37.385523
" />
<path d="M188.679047 37.385523
L188.679047 37.195047
" />
<path d="M189.107619 37.814095
L188.107619 37.814095
" />
<path d="M188.107619 37.814095
L189.107619 38.385523
" />
<path d="M189.107619 38.385523
L188.107619 38.385523
" />
<path d="M189.107619 38.861714
L188.107619 38.861714
" />
<path d="M188.107619 38.861714
L188.107619 39.099809
" />
<path d="M188.107619 39.099809
L188.155238 39.242666
" />
<path d="M188.155238 39.242666
L188.250476 39.337904
" />
<path d="M188.250476 39.337904
L188.345714 39.385523
" />
<path d="M188.345714 39.385523
L188.536190 39.433142
" />
<path d="M188.536190 39.433142
L188.679047 39.433142
" />
<path d="M188.679047 39.433142
L188.869523 39.385523
" />
<path d="M188.869523 39.385523
L188.964761 39.337904
" />
<path d="M188.964761 39.337904
L189.060000 39.242666
" />
<path d="M189.060000 39.242666
L189.107619 39.099809
" />
<path d="M189.107619 39.099809
L189.107619 38.861714
" />
</g><g transform="rotate(-90.000000 133.460000 50.060000)">
<text x="133.460000" y="50.060000"
transform="scale(-1 1) translate(-266.920000 0)"
textLength="5.746429" font-size="1.333333" lengthAdjust="spacingAndGlyphs"
text-anchor="start" opacity="0">5V PSU</text>
</g>
<g class="stroked-text"><desc>5V PSU</desc>
<path d="M132.337619 50.774285
L132.337619 50.298095
" />
<path d="M132.337619 50.298095
L132.813809 50.250476
" />
<path d="M132.813809 50.250476
L132.766190 50.298095
" />
<path d="M132.766190 50.298095
L132.718571 50.393333
" />
<path d="M132.718571 50.393333
L132.718571 50.631428
" />
<path d="M132.718571 50.631428
L132.766190 50.726666
" />
<path d="M132.766190 50.726666
L132.813809 50.774285
" />
<path d="M132.813809 50.774285
L132.909047 50.821904
" />
<path d="M132.909047 50.821904
L133.147142 50.821904
" />
<path d="M133.147142 50.821904
L133.242380 50.774285
" />
<path d="M133.242380 50.774285
L133.290000 50.726666
" />
<path d="M133.290000 50.726666
L133.337619 50.631428
" />
<path d="M133.337619 50.631428
L133.337619 50.393333
" />
<path d="M133.337619 50.393333
L133.290000 50.298095
" />
<path d="M133.290000 50.298095
L133.242380 50.250476
" />
<path d="M132.337619 51.107619
L133.337619 51.440952
" />
<path d="M133.337619 51.440952
L132.337619 51.774285
" />
<path d="M133.337619 52.869524
L132.337619 52.869524
" />
<path d="M132.337619 52.869524
L132.337619 53.250476
" />
<path d="M132.337619 53.250476
L132.385238 53.345714
" />
<path d="M132.385238 53.345714
L132.432857 53.393333
" />
<path d="M132.432857 53.393333
L132.528095 53.440952
" />
<path d="M132.528095 53.440952
L132.670952 53.440952
" />
<path d="M132.670952 53.440952
L132.766190 53.393333
" />
<path d="M132.766190 53.393333
L132.813809 53.345714
" />
<path d="M132.813809 53.345714
L132.861428 53.250476
" />
<path d="M132.861428 53.250476
L132.861428 52.869524
" />
<path d="M133.290000 53.821905
L133.337619 53.964762
" />
<path d="M133.337619 53.964762
L133.337619 54.202857
" />
<path d="M133.337619 54.202857
L133.290000 54.298095
" />
<path d="M133.290000 54.298095
L133.242380 54.345714
" />
<path d="M133.242380 54.345714
L133.147142 54.393333
" />
<path d="M133.147142 54.393333
L133.051904 54.393333
" />
<path d="M133.051904 54.393333
L132.956666 54.345714
" />
<path d="M132.956666 54.345714
L132.909047 54.298095
" />
<path d="M132.909047 54.298095
L132.861428 54.202857
" />
<path d="M132.861428 54.202857
L132.813809 54.012381
" />
<path d="M132.813809 54.012381
L132.766190 53.917143
" />
<path d="M132.766190 53.917143
L132.718571 53.869524
" />
<path d="M132.718571 53.869524
L132.623333 53.821905
" />
<path d="M132.623333 53.821905
L132.528095 53.821905
" />
<path d="M132.528095 53.821905
L132.432857 53.869524
" />
<path d="M132.432857 53.869524
L132.385238 53.917143
" />
<path d="M132.385238 53.917143
L132.337619 54.012381
" />
<path d="M132.337619 54.012381
L132.337619 54.250476
" />
<path d="M132.337619 54.250476
L132.385238 54.393333
" />
<path d="M132.337619 54.821905
L133.147142 54.821905
" />
<path d="M133.147142 54.821905
L133.242380 54.869524
" />
<path d="M133.242380 54.869524
L133.290000 54.917143
" />
<path d="M133.290000 54.917143
L133.337619 55.012381
" />
<path d="M133.337619 55.012381
L133.337619 55.202857
" />
<path d="M133.337619 55.202857
L133.290000 55.298095
" />
<path d="M133.290000 55.298095
L133.242380 55.345714
" />
<path d="M133.242380 55.345714
L133.147142 55.393333
" />
<path d="M133.147142 55.393333
L132.337619 55.393333
" />
</g><text x="85.570000" y="77.860000"
transform="scale(-1 1) translate(-171.140000 0)"
textLength="13.079764" font-size="1.333333" lengthAdjust="spacingAndGlyphs"
text-anchor="start" opacity="0">Open Pedalboard</text>
<g class="stroked-text"><desc>Open Pedalboard</desc>
<path d="M85.141428 76.737619
L84.950952 76.737619
" />
<path d="M84.950952 76.737619
L84.855714 76.785238
" />
<path d="M84.855714 76.785238
L84.760476 76.880476
" />
<path d="M84.760476 76.880476
L84.712857 77.070952
" />
<path d="M84.712857 77.070952
L84.712857 77.404285
" />
<path d="M84.712857 77.404285
L84.760476 77.594761
" />
<path d="M84.760476 77.594761
L84.855714 77.690000
" />
<path d="M84.855714 77.690000
L84.950952 77.737619
" />
<path d="M84.950952 77.737619
L85.141428 77.737619
" />
<path d="M85.141428 77.737619
L85.236666 77.690000
" />
<path d="M85.236666 77.690000
L85.331904 77.594761
" />
<path d="M85.331904 77.594761
L85.379523 77.404285
" />
<path d="M85.379523 77.404285
L85.379523 77.070952
" />
<path d="M85.379523 77.070952
L85.331904 76.880476
" />
<path d="M85.331904 76.880476
L85.236666 76.785238
" />
<path d="M85.236666 76.785238
L85.141428 76.737619
" />
<path d="M84.284285 77.070952
L84.284285 78.070952
" />
<path d="M84.284285 77.118571
L84.189047 77.070952
" />
<path d="M84.189047 77.070952
L83.998571 77.070952
" />
<path d="M83.998571 77.070952
L83.903333 77.118571
" />
<path d="M83.903333 77.118571
L83.855714 77.166190
" />
<path d="M83.855714 77.166190
L83.808095 77.261428
" />
<path d="M83.808095 77.261428
L83.808095 77.547142
" />
<path d="M83.808095 77.547142
L83.855714 77.642380
" />
<path d="M83.855714 77.642380
L83.903333 77.690000
" />
<path d="M83.903333 77.690000
L83.998571 77.737619
" />
<path d="M83.998571 77.737619
L84.189047 77.737619
" />
<path d="M84.189047 77.737619
L84.284285 77.690000
" />
<path d="M82.998571 77.690000
L83.093809 77.737619
" />
<path d="M83.093809 77.737619
L83.284285 77.737619
" />
<path d="M83.284285 77.737619
L83.379523 77.690000
" />
<path d="M83.379523 77.690000
L83.427142 77.594761
" />
<path d="M83.427142 77.594761
L83.427142 77.213809
" />
<path d="M83.427142 77.213809
L83.379523 77.118571
" />
<path d="M83.379523 77.118571
L83.284285 77.070952
" />
<path d="M83.284285 77.070952
L83.093809 77.070952
" />
<path d="M83.093809 77.070952
L82.998571 77.118571
" />
<path d="M82.998571 77.118571
L82.950952 77.213809
" />
<path d="M82.950952 77.213809
L82.950952 77.309047
" />
<path d="M82.950952 77.309047
L83.427142 77.404285
" />
<path d="M82.522380 77.070952
L82.522380 77.737619
" />
<path d="M82.522380 77.166190
L82.474761 77.118571
" />
<path d="M82.474761 77.118571
L82.379523 77.070952
" />
<path d="M82.379523 77.070952
L82.236666 77.070952
" />
<path d="M82.236666 77.070952
L82.141428 77.118571
" />
<path d="M82.141428 77.118571
L82.093809 77.213809
" />
<path d="M82.093809 77.213809
L82.093809 77.737619
" />
<path d="M80.855713 77.737619
L80.855713 76.737619
" />
<path d="M80.855713 76.737619
L80.474761 76.737619
" />
<path d="M80.474761 76.737619
L80.379523 76.785238
" />
<path d="M80.379523 76.785238
L80.331904 76.832857
" />
<path d="M80.331904 76.832857
L80.284285 76.928095
" />
<path d="M80.284285 76.928095
L80.284285 77.070952
" />
<path d="M80.284285 77.070952
L80.331904 77.166190
" />
<path d="M80.331904 77.166190
L80.379523 77.213809
" />
<path d="M80.379523 77.213809
L80.474761 77.261428
" />
<path d="M80.474761 77.261428
L80.855713 77.261428
" />
<path d="M79.474761 77.690000
L79.569999 77.737619
" />
<path d="M79.569999 77.737619
L79.760475 77.737619
" />
<path d="M79.760475 77.737619
L79.855713 77.690000
" />
<path d="M79.855713 77.690000
L79.903332 77.594761
" />
<path d="M79.903332 77.594761
L79.903332 77.213809
" />
<path d="M79.903332 77.213809
L79.855713 77.118571
" />
<path d="M79.855713 77.118571
L79.760475 77.070952
" />
<path d="M79.760475 77.070952
L79.569999 77.070952
" />
<path d="M79.569999 77.070952
L79.474761 77.118571
" />
<path d="M79.474761 77.118571
L79.427142 77.213809
" />
<path d="M79.427142 77.213809
L79.427142 77.309047
" />
<path d="M79.427142 77.309047
L79.903332 77.404285
" />
<path d="M78.569999 77.737619
L78.569999 76.737619
" />
<path d="M78.569999 77.690000
L78.665237 77.737619
" />
<path d="M78.665237 77.737619
L78.855713 77.737619
" />
<path d="M78.855713 77.737619
L78.950951 77.690000
" />
<path d="M78.950951 77.690000
L78.998570 77.642380
" />
<path d="M78.998570 77.642380
L79.046189 77.547142
" />
<path d="M79.046189 77.547142
L79.046189 77.261428
" />
<path d="M79.046189 77.261428
L78.998570 77.166190
" />
<path d="M78.998570 77.166190
L78.950951 77.118571
" />
<path d="M78.950951 77.118571
L78.855713 77.070952
" />
<path d="M78.855713 77.070952
L78.665237 77.070952
" />
<path d="M78.665237 77.070952
L78.569999 77.118571
" />
<path d="M77.665237 77.737619
L77.665237 77.213809
" />
<path d="M77.665237 77.213809
L77.712856 77.118571
" />
<path d="M77.712856 77.118571
L77.808094 77.070952
" />
<path d="M77.808094 77.070952
L77.998570 77.070952
" />
<path d="M77.998570 77.070952
L78.093808 77.118571
" />
<path d="M77.665237 77.690000
L77.760475 77.737619
" />
<path d="M77.760475 77.737619
L77.998570 77.737619
" />
<path d="M77.998570 77.737619
L78.093808 77.690000
" />
<path d="M78.093808 77.690000
L78.141427 77.594761
" />
<path d="M78.141427 77.594761
L78.141427 77.499523
" />
<path d="M78.141427 77.499523
L78.093808 77.404285
" />
<path d="M78.093808 77.404285
L77.998570 77.356666
" />
<path d="M77.998570 77.356666
L77.760475 77.356666
" />
<path d="M77.760475 77.356666
L77.665237 77.309047
" />
<path d="M77.046189 77.737619
L77.141427 77.690000
" />
<path d="M77.141427 77.690000
L77.189046 77.594761
" />
<path d="M77.189046 77.594761
L77.189046 76.737619
" />
<path d="M76.665236 77.737619
L76.665236 76.737619
" />
<path d="M76.665236 77.118571
L76.569998 77.070952
" />
<path d="M76.569998 77.070952
L76.379522 77.070952
" />
<path d="M76.379522 77.070952
L76.284284 77.118571
" />
<path d="M76.284284 77.118571
L76.236665 77.166190
" />
<path d="M76.236665 77.166190
L76.189046 77.261428
" />
<path d="M76.189046 77.261428
L76.189046 77.547142
" />
<path d="M76.189046 77.547142
L76.236665 77.642380
" />
<path d="M76.236665 77.642380
L76.284284 77.690000
" />
<path d="M76.284284 77.690000
L76.379522 77.737619
" />
<path d="M76.379522 77.737619
L76.569998 77.737619
" />
<path d="M76.569998 77.737619
L76.665236 77.690000
" />
<path d="M75.617617 77.737619
L75.712855 77.690000
" />
<path d="M75.712855 77.690000
L75.760474 77.642380
" />
<path d="M75.760474 77.642380
L75.808093 77.547142
" />
<path d="M75.808093 77.547142
L75.808093 77.261428
" />
<path d="M75.808093 77.261428
L75.760474 77.166190
" />
<path d="M75.760474 77.166190
L75.712855 77.118571
" />
<path d="M75.712855 77.118571
L75.617617 77.070952
" />
<path d="M75.617617 77.070952
L75.474760 77.070952
" />
<path d="M75.474760 77.070952
L75.379522 77.118571
" />
<path d="M75.379522 77.118571
L75.331903 77.166190
" />
<path d="M75.331903 77.166190
L75.284284 77.261428
" />
<path d="M75.284284 77.261428
L75.284284 77.547142
" />
<path d="M75.284284 77.547142
L75.331903 77.642380
" />
<path d="M75.331903 77.642380
L75.379522 77.690000
" />
<path d="M75.379522 77.690000
L75.474760 77.737619
" />
<path d="M75.474760 77.737619
L75.617617 77.737619
" />
<path d="M74.427141 77.737619
L74.427141 77.213809
" />
<path d="M74.427141 77.213809
L74.474760 77.118571
" />
<path d="M74.474760 77.118571
L74.569998 77.070952
" />
<path d="M74.569998 77.070952
L74.760474 77.070952
" />
<path d="M74.760474 77.070952
L74.855712 77.118571
" />
<path d="M74.427141 77.690000
L74.522379 77.737619
" />
<path d="M74.522379 77.737619
L74.760474 77.737619
" />
<path d="M74.760474 77.737619
L74.855712 77.690000
" />
<path d="M74.855712 77.690000
L74.903331 77.594761
" />
<path d="M74.903331 77.594761
L74.903331 77.499523
" />
<path d="M74.903331 77.499523
L74.855712 77.404285
" />
<path d="M74.855712 77.404285
L74.760474 77.356666
" />
<path d="M74.760474 77.356666
L74.522379 77.356666
" />
<path d="M74.522379 77.356666
L74.427141 77.309047
" />
<path d="M73.950950 77.737619
L73.950950 77.070952
" />
<path d="M73.950950 77.261428
L73.903331 77.166190
" />
<path d="M73.903331 77.166190
L73.855712 77.118571
" />
<path d="M73.855712 77.118571
L73.760474 77.070952
" />
<path d="M73.760474 77.070952
L73.665236 77.070952
" />
<path d="M72.903331 77.737619
L72.903331 76.737619
" />
<path d="M72.903331 77.690000
L72.998569 77.737619
" />
<path d="M72.998569 77.737619
L73.189045 77.737619
" />
<path d="M73.189045 77.737619
L73.284283 77.690000
" />
<path d="M73.284283 77.690000
L73.331902 77.642380
" />
<path d="M73.331902 77.642380
L73.379521 77.547142
" />
<path d="M73.379521 77.547142
L73.379521 77.261428
" />
<path d="M73.379521 77.261428
L73.331902 77.166190
" />
<path d="M73.331902 77.166190
L73.284283 77.118571
" />
<path d="M73.284283 77.118571
L73.189045 77.070952
" />
<path d="M73.189045 77.070952
L72.998569 77.070952
" />
<path d="M72.998569 77.070952
L72.903331 77.118571
" />
</g><text x="85.570000" y="79.480000"
transform="scale(-1 1) translate(-171.140000 0)"
textLength="24.127383" font-size="1.333333" lengthAdjust="spacingAndGlyphs"
text-anchor="start" opacity="0">https://github.com/pedalboard</text>
<g class="stroked-text"><desc>https://github.com/pedalboard</desc>
<path d="M85.331904 79.357619
L85.331904 78.357619
" />
<path d="M84.903333 79.357619
L84.903333 78.833809
" />
<path d="M84.903333 78.833809
L84.950952 78.738571
" />
<path d="M84.950952 78.738571
L85.046190 78.690952
" />
<path d="M85.046190 78.690952
L85.189047 78.690952
" />
<path d="M85.189047 78.690952
L85.284285 78.738571
" />
<path d="M85.284285 78.738571
L85.331904 78.786190
" />
<path d="M84.569999 78.690952
L84.189047 78.690952
" />
<path d="M84.427142 78.357619
L84.427142 79.214761
" />
<path d="M84.427142 79.214761
L84.379523 79.310000
" />
<path d="M84.379523 79.310000
L84.284285 79.357619
" />
<path d="M84.284285 79.357619
L84.189047 79.357619
" />
<path d="M83.998570 78.690952
L83.617618 78.690952
" />
<path d="M83.855713 78.357619
L83.855713 79.214761
" />
<path d="M83.855713 79.214761
L83.808094 79.310000
" />
<path d="M83.808094 79.310000
L83.712856 79.357619
" />
<path d="M83.712856 79.357619
L83.617618 79.357619
" />
<path d="M83.284284 78.690952
L83.284284 79.690952
" />
<path d="M83.284284 78.738571
L83.189046 78.690952
" />
<path d="M83.189046 78.690952
L82.998570 78.690952
" />
<path d="M82.998570 78.690952
L82.903332 78.738571
" />
<path d="M82.903332 78.738571
L82.855713 78.786190
" />
<path d="M82.855713 78.786190
L82.808094 78.881428
" />
<path d="M82.808094 78.881428
L82.808094 79.167142
" />
<path d="M82.808094 79.167142
L82.855713 79.262380
" />
<path d="M82.855713 79.262380
L82.903332 79.310000
" />
<path d="M82.903332 79.310000
L82.998570 79.357619
" />
<path d="M82.998570 79.357619
L83.189046 79.357619
" />
<path d="M83.189046 79.357619
L83.284284 79.310000
" />
<path d="M82.427141 79.310000
L82.331903 79.357619
" />
<path d="M82.331903 79.357619
L82.141427 79.357619
" />
<path d="M82.141427 79.357619
L82.046189 79.310000
" />
<path d="M82.046189 79.310000
L81.998570 79.214761
" />
<path d="M81.998570 79.214761
L81.998570 79.167142
" />
<path d="M81.998570 79.167142
L82.046189 79.071904
" />
<path d="M82.046189 79.071904
L82.141427 79.024285
" />
<path d="M82.141427 79.024285
L82.284284 79.024285
" />
<path d="M82.284284 79.024285
L82.379522 78.976666
" />
<path d="M82.379522 78.976666
L82.427141 78.881428
" />
<path d="M82.427141 78.881428
L82.427141 78.833809
" />
<path d="M82.427141 78.833809
L82.379522 78.738571
" />
<path d="M82.379522 78.738571
L82.284284 78.690952
" />
<path d="M82.284284 78.690952
L82.141427 78.690952
" />
<path d="M82.141427 78.690952
L82.046189 78.738571
" />
<path d="M81.569998 79.262380
L81.522379 79.310000
" />
<path d="M81.522379 79.310000
L81.569998 79.357619
" />
<path d="M81.569998 79.357619
L81.617617 79.310000
" />
<path d="M81.617617 79.310000
L81.569998 79.262380
" />
<path d="M81.569998 79.262380
L81.569998 79.357619
" />
<path d="M81.569998 78.738571
L81.522379 78.786190
" />
<path d="M81.522379 78.786190
L81.569998 78.833809
" />
<path d="M81.569998 78.833809
L81.617617 78.786190
" />
<path d="M81.617617 78.786190
L81.569998 78.738571
" />
<path d="M81.569998 78.738571
L81.569998 78.833809
" />
<path d="M80.379523 78.310000
L81.236665 79.595714
" />
<path d="M79.331904 78.310000
L80.189046 79.595714
" />
<path d="M78.569999 78.690952
L78.569999 79.500476
" />
<path d="M78.569999 79.500476
L78.617618 79.595714
" />
<path d="M78.617618 79.595714
L78.665237 79.643333
" />
<path d="M78.665237 79.643333
L78.760475 79.690952
" />
<path d="M78.760475 79.690952
L78.903332 79.690952
" />
<path d="M78.903332 79.690952
L78.998570 79.643333
" />
<path d="M78.569999 79.310000
L78.665237 79.357619
" />
<path d="M78.665237 79.357619
L78.855713 79.357619
" />
<path d="M78.855713 79.357619
L78.950951 79.310000
" />
<path d="M78.950951 79.310000
L78.998570 79.262380
" />
<path d="M78.998570 79.262380
L79.046189 79.167142
" />
<path d="M79.046189 79.167142
L79.046189 78.881428
" />
<path d="M79.046189 78.881428
L78.998570 78.786190
" />
<path d="M78.998570 78.786190
L78.950951 78.738571
" />
<path d="M78.950951 78.738571
L78.855713 78.690952
" />
<path d="M78.855713 78.690952
L78.665237 78.690952
" />
<path d="M78.665237 78.690952
L78.569999 78.738571
" />
<path d="M78.093808 79.357619
L78.093808 78.690952
" />
<path d="M78.093808 78.357619
L78.141427 78.405238
" />
<path d="M78.141427 78.405238
L78.093808 78.452857
" />
<path d="M78.093808 78.452857
L78.046189 78.405238
" />
<path d="M78.046189 78.405238
L78.093808 78.357619
" />
<path d="M78.093808 78.357619
L78.093808 78.452857
" />
<path d="M77.760475 78.690952
L77.379523 78.690952
" />
<path d="M77.617618 78.357619
L77.617618 79.214761
" />
<path d="M77.617618 79.214761
L77.569999 79.310000
" />
<path d="M77.569999 79.310000
L77.474761 79.357619
" />
<path d="M77.474761 79.357619
L77.379523 79.357619
" />
<path d="M77.046189 79.357619
L77.046189 78.357619
" />
<path d="M76.617618 79.357619
L76.617618 78.833809
" />
<path d="M76.617618 78.833809
L76.665237 78.738571
" />
<path d="M76.665237 78.738571
L76.760475 78.690952
" />
<path d="M76.760475 78.690952
L76.903332 78.690952
" />
<path d="M76.903332 78.690952
L76.998570 78.738571
" />
<path d="M76.998570 78.738571
L77.046189 78.786190
" />
<path d="M75.712856 78.690952
L75.712856 79.357619
" />
<path d="M76.141427 78.690952
L76.141427 79.214761
" />
<path d="M76.141427 79.214761
L76.093808 79.310000
" />
<path d="M76.093808 79.310000
L75.998570 79.357619
" />
<path d="M75.998570 79.357619
L75.855713 79.357619
" />
<path d="M75.855713 79.357619
L75.760475 79.310000
" />
<path d="M75.760475 79.310000
L75.712856 79.262380
" />
<path d="M75.236665 79.357619
L75.236665 78.357619
" />
<path d="M75.236665 78.738571
L75.141427 78.690952
" />
<path d="M75.141427 78.690952
L74.950951 78.690952
" />
<path d="M74.950951 78.690952
L74.855713 78.738571
" />
<path d="M74.855713 78.738571
L74.808094 78.786190
" />
<path d="M74.808094 78.786190
L74.760475 78.881428
" />
<path d="M74.760475 78.881428
L74.760475 79.167142
" />
<path d="M74.760475 79.167142
L74.808094 79.262380
" />
<path d="M74.808094 79.262380
L74.855713 79.310000
" />
<path d="M74.855713 79.310000
L74.950951 79.357619
" />
<path d="M74.950951 79.357619
L75.141427 79.357619
" />
<path d="M75.141427 79.357619
L75.236665 79.310000
" />
<path d="M74.331903 79.262380
L74.284284 79.310000
" />
<path d="M74.284284 79.310000
L74.331903 79.357619
" />
<path d="M74.331903 79.357619
L74.379522 79.310000
" />
<path d="M74.379522 79.310000
L74.331903 79.262380
" />
<path d="M74.331903 79.262380
L74.331903 79.357619
" />
<path d="M73.427142 79.310000
L73.522380 79.357619
" />
<path d="M73.522380 79.357619
L73.712856 79.357619
" />
<path d="M73.712856 79.357619
L73.808094 79.310000
" />
<path d="M73.808094 79.310000
L73.855713 79.262380
" />
<path d="M73.855713 79.262380
L73.903332 79.167142
" />
<path d="M73.903332 79.167142
L73.903332 78.881428
" />
<path d="M73.903332 78.881428
L73.855713 78.786190
" />
<path d="M73.855713 78.786190
L73.808094 78.738571
" />
<path d="M73.808094 78.738571
L73.712856 78.690952
" />
<path d="M73.712856 78.690952
L73.522380 78.690952
" />
<path d="M73.522380 78.690952
L73.427142 78.738571
" />
<path d="M72.855713 79.357619
L72.950951 79.310000
" />
<path d="M72.950951 79.310000
L72.998570 79.262380
" />
<path d="M72.998570 79.262380
L73.046189 79.167142
" />
<path d="M73.046189 79.167142
L73.046189 78.881428
" />
<path d="M73.046189 78.881428
L72.998570 78.786190
" />
<path d="M72.998570 78.786190
L72.950951 78.738571
" />
<path d="M72.950951 78.738571
L72.855713 78.690952
" />
<path d="M72.855713 78.690952
L72.712856 78.690952
" />
<path d="M72.712856 78.690952
L72.617618 78.738571
" />
<path d="M72.617618 78.738571
L72.569999 78.786190
" />
<path d="M72.569999 78.786190
L72.522380 78.881428
" />
<path d="M72.522380 78.881428
L72.522380 79.167142
" />
<path d="M72.522380 79.167142
L72.569999 79.262380
" />
<path d="M72.569999 79.262380
L72.617618 79.310000
" />
<path d="M72.617618 79.310000
L72.712856 79.357619
" />
<path d="M72.712856 79.357619
L72.855713 79.357619
" />
<path d="M72.093808 79.357619
L72.093808 78.690952
" />
<path d="M72.093808 78.786190
L72.046189 78.738571
" />
<path d="M72.046189 78.738571
L71.950951 78.690952
" />
<path d="M71.950951 78.690952
L71.808094 78.690952
" />
<path d="M71.808094 78.690952
L71.712856 78.738571
" />
<path d="M71.712856 78.738571
L71.665237 78.833809
" />
<path d="M71.665237 78.833809
L71.665237 79.357619
" />
<path d="M71.665237 78.833809
L71.617618 78.738571
" />
<path d="M71.617618 78.738571
L71.522380 78.690952
" />
<path d="M71.522380 78.690952
L71.379523 78.690952
" />
<path d="M71.379523 78.690952
L71.284284 78.738571
" />
<path d="M71.284284 78.738571
L71.236665 78.833809
" />
<path d="M71.236665 78.833809
L71.236665 79.357619
" />
<path d="M70.046190 78.310000
L70.903332 79.595714
" />
<path d="M69.712856 78.690952
L69.712856 79.690952
" />
<path d="M69.712856 78.738571
L69.617618 78.690952
" />
<path d="M69.617618 78.690952
L69.427142 78.690952
" />
<path d="M69.427142 78.690952
L69.331904 78.738571
" />
<path d="M69.331904 78.738571
L69.284285 78.786190
" />
<path d="M69.284285 78.786190
L69.236666 78.881428
" />
<path d="M69.236666 78.881428
L69.236666 79.167142
" />
<path d="M69.236666 79.167142
L69.284285 79.262380
" />
<path d="M69.284285 79.262380
L69.331904 79.310000
" />
<path d="M69.331904 79.310000
L69.427142 79.357619
" />
<path d="M69.427142 79.357619
L69.617618 79.357619
" />
<path d="M69.617618 79.357619
L69.712856 79.310000
" />
<path d="M68.427142 79.310000
L68.522380 79.357619
" />
<path d="M68.522380 79.357619
L68.712856 79.357619
" />
<path d="M68.712856 79.357619
L68.808094 79.310000
" />
<path d="M68.808094 79.310000
L68.855713 79.214761
" />
<path d="M68.855713 79.214761
L68.855713 78.833809
" />
<path d="M68.855713 78.833809
L68.808094 78.738571
" />
<path d="M68.808094 78.738571
L68.712856 78.690952
" />
<path d="M68.712856 78.690952
L68.522380 78.690952
" />
<path d="M68.522380 78.690952
L68.427142 78.738571
" />
<path d="M68.427142 78.738571
L68.379523 78.833809
" />
<path d="M68.379523 78.833809
L68.379523 78.929047
" />
<path d="M68.379523 78.929047
L68.855713 79.024285
" />
<path d="M67.522380 79.357619
L67.522380 78.357619
" />
<path d="M67.522380 79.310000
L67.617618 79.357619
" />
<path d="M67.617618 79.357619
L67.808094 79.357619
" />
<path d="M67.808094 79.357619
L67.903332 79.310000
" />
<path d="M67.903332 79.310000
L67.950951 79.262380
" />
<path d="M67.950951 79.262380
L67.998570 79.167142
" />
<path d="M67.998570 79.167142
L67.998570 78.881428
" />
<path d="M67.998570 78.881428
L67.950951 78.786190
" />
<path d="M67.950951 78.786190
L67.903332 78.738571
" />
<path d="M67.903332 78.738571
L67.808094 78.690952
" />
<path d="M67.808094 78.690952
L67.617618 78.690952
" />
<path d="M67.617618 78.690952
L67.522380 78.738571
" />
<path d="M66.617618 79.357619
L66.617618 78.833809
" />
<path d="M66.617618 78.833809
L66.665237 78.738571
" />
<path d="M66.665237 78.738571
L66.760475 78.690952
" />
<path d="M66.760475 78.690952
L66.950951 78.690952
" />
<path d="M66.950951 78.690952
L67.046189 78.738571
" />
<path d="M66.617618 79.310000
L66.712856 79.357619
" />
<path d="M66.712856 79.357619
L66.950951 79.357619
" />
<path d="M66.950951 79.357619
L67.046189 79.310000
" />
<path d="M67.046189 79.310000
L67.093808 79.214761
" />
<path d="M67.093808 79.214761
L67.093808 79.119523
" />
<path d="M67.093808 79.119523
L67.046189 79.024285
" />
<path d="M67.046189 79.024285
L66.950951 78.976666
" />
<path d="M66.950951 78.976666
L66.712856 78.976666
" />
<path d="M66.712856 78.976666
L66.617618 78.929047
" />
<path d="M65.998570 79.357619
L66.093808 79.310000
" />
<path d="M66.093808 79.310000
L66.141427 79.214761
" />
<path d="M66.141427 79.214761
L66.141427 78.357619
" />
<path d="M65.617617 79.357619
L65.617617 78.357619
" />
<path d="M65.617617 78.738571
L65.522379 78.690952
" />
<path d="M65.522379 78.690952
L65.331903 78.690952
" />
<path d="M65.331903 78.690952
L65.236665 78.738571
" />
<path d="M65.236665 78.738571
L65.189046 78.786190
" />
<path d="M65.189046 78.786190
L65.141427 78.881428
" />
<path d="M65.141427 78.881428
L65.141427 79.167142
" />
<path d="M65.141427 79.167142
L65.189046 79.262380
" />
<path d="M65.189046 79.262380
L65.236665 79.310000
" />
<path d="M65.236665 79.310000
L65.331903 79.357619
" />
<path d="M65.331903 79.357619
L65.522379 79.357619
" />
<path d="M65.522379 79.357619
L65.617617 79.310000
" />
<path d="M64.569998 79.357619
L64.665236 79.310000
" />
<path d="M64.665236 79.310000
L64.712855 79.262380
" />
<path d="M64.712855 79.262380
L64.760474 79.167142
" />
<path d="M64.760474 79.167142
L64.760474 78.881428
" />
<path d="M64.760474 78.881428
L64.712855 78.786190
" />
<path d="M64.712855 78.786190
L64.665236 78.738571
" />
<path d="M64.665236 78.738571
L64.569998 78.690952
" />
<path d="M64.569998 78.690952
L64.427141 78.690952
" />
<path d="M64.427141 78.690952
L64.331903 78.738571
" />
<path d="M64.331903 78.738571
L64.284284 78.786190
" />
<path d="M64.284284 78.786190
L64.236665 78.881428
" />
<path d="M64.236665 78.881428
L64.236665 79.167142
" />
<path d="M64.236665 79.167142
L64.284284 79.262380
" />
<path d="M64.284284 79.262380
L64.331903 79.310000
" />
<path d="M64.331903 79.310000
L64.427141 79.357619
" />
<path d="M64.427141 79.357619
L64.569998 79.357619
" />
<path d="M63.379522 79.357619
L63.379522 78.833809
" />
<path d="M63.379522 78.833809
L63.427141 78.738571
" />
<path d="M63.427141 78.738571
L63.522379 78.690952
" />
<path d="M63.522379 78.690952
L63.712855 78.690952
" />
<path d="M63.712855 78.690952
L63.808093 78.738571
" />
<path d="M63.379522 79.310000
L63.474760 79.357619
" />
<path d="M63.474760 79.357619
L63.712855 79.357619
" />
<path d="M63.712855 79.357619
L63.808093 79.310000
" />
<path d="M63.808093 79.310000
L63.855712 79.214761
" />
<path d="M63.855712 79.214761
L63.855712 79.119523
" />
<path d="M63.855712 79.119523
L63.808093 79.024285
" />
<path d="M63.808093 79.024285
L63.712855 78.976666
" />
<path d="M63.712855 78.976666
L63.474760 78.976666
" />
<path d="M63.474760 78.976666
L63.379522 78.929047
" />
<path d="M62.903331 79.357619
L62.903331 78.690952
" />
<path d="M62.903331 78.881428
L62.855712 78.786190
" />
<path d="M62.855712 78.786190
L62.808093 78.738571
" />
<path d="M62.808093 78.738571
L62.712855 78.690952
" />
<path d="M62.712855 78.690952
L62.617617 78.690952
" />
<path d="M61.855712 79.357619
L61.855712 78.357619
" />
<path d="M61.855712 79.310000
L61.950950 79.357619
" />
<path d="M61.950950 79.357619
L62.141426 79.357619
" />
<path d="M62.141426 79.357619
L62.236664 79.310000
" />
<path d="M62.236664 79.310000
L62.284283 79.262380
" />
<path d="M62.284283 79.262380
L62.331902 79.167142
" />
<path d="M62.331902 79.167142
L62.331902 78.881428
" />
<path d="M62.331902 78.881428
L62.284283 78.786190
" />
<path d="M62.284283 78.786190
L62.236664 78.738571
" />
<path d="M62.236664 78.738571
L62.141426 78.690952
" />
<path d="M62.141426 78.690952
L61.950950 78.690952
" />
<path d="M61.950950 78.690952
L61.855712 78.738571
" />
</g><text x="85.570000" y="81.100000"
transform="scale(-1 1) translate(-171.140000 0)"
textLength="8.222618" font-size="1.333333" lengthAdjust="spacingAndGlyphs"
text-anchor="start" opacity="0">BCB: 2.0.0</text>
<g class="stroked-text"><desc>BCB: 2.0.0</desc>
<path d="M84.998571 80.453809
L84.855714 80.501428
" />
<path d="M84.855714 80.501428
L84.808095 80.549047
" />
<path d="M84.808095 80.549047
L84.760476 80.644285
" />
<path d="M84.760476 80.644285
L84.760476 80.787142
" />
<path d="M84.760476 80.787142
L84.808095 80.882380
" />
<path d="M84.808095 80.882380
L84.855714 80.930000
" />
<path d="M84.855714 80.930000
L84.950952 80.977619
" />
<path d="M84.950952 80.977619
L85.331904 80.977619
" />
<path d="M85.331904 80.977619
L85.331904 79.977619
" />
<path d="M85.331904 79.977619
L84.998571 79.977619
" />
<path d="M84.998571 79.977619
L84.903333 80.025238
" />
<path d="M84.903333 80.025238
L84.855714 80.072857
" />
<path d="M84.855714 80.072857
L84.808095 80.168095
" />
<path d="M84.808095 80.168095
L84.808095 80.263333
" />
<path d="M84.808095 80.263333
L84.855714 80.358571
" />
<path d="M84.855714 80.358571
L84.903333 80.406190
" />
<path d="M84.903333 80.406190
L84.998571 80.453809
" />
<path d="M84.998571 80.453809
L85.331904 80.453809
" />
<path d="M83.760476 80.882380
L83.808095 80.930000
" />
<path d="M83.808095 80.930000
L83.950952 80.977619
" />
<path d="M83.950952 80.977619
L84.046190 80.977619
" />
<path d="M84.046190 80.977619
L84.189047 80.930000
" />
<path d="M84.189047 80.930000
L84.284285 80.834761
" />
<path d="M84.284285 80.834761
L84.331904 80.739523
" />
<path d="M84.331904 80.739523
L84.379523 80.549047
" />
<path d="M84.379523 80.549047
L84.379523 80.406190
" />
<path d="M84.379523 80.406190
L84.331904 80.215714
" />
<path d="M84.331904 80.215714
L84.284285 80.120476
" />
<path d="M84.284285 80.120476
L84.189047 80.025238
" />
<path d="M84.189047 80.025238
L84.046190 79.977619
" />
<path d="M84.046190 79.977619
L83.950952 79.977619
" />
<path d="M83.950952 79.977619
L83.808095 80.025238
" />
<path d="M83.808095 80.025238
L83.760476 80.072857
" />
<path d="M82.998571 80.453809
L82.855714 80.501428
" />
<path d="M82.855714 80.501428
L82.808095 80.549047
" />
<path d="M82.808095 80.549047
L82.760476 80.644285
" />
<path d="M82.760476 80.644285
L82.760476 80.787142
" />
<path d="M82.760476 80.787142
L82.808095 80.882380
" />
<path d="M82.808095 80.882380
L82.855714 80.930000
" />
<path d="M82.855714 80.930000
L82.950952 80.977619
" />
<path d="M82.950952 80.977619
L83.331904 80.977619
" />
<path d="M83.331904 80.977619
L83.331904 79.977619
" />
<path d="M83.331904 79.977619
L82.998571 79.977619
" />
<path d="M82.998571 79.977619
L82.903333 80.025238
" />
<path d="M82.903333 80.025238
L82.855714 80.072857
" />
<path d="M82.855714 80.072857
L82.808095 80.168095
" />
<path d="M82.808095 80.168095
L82.808095 80.263333
" />
<path d="M82.808095 80.263333
L82.855714 80.358571
" />
<path d="M82.855714 80.358571
L82.903333 80.406190
" />
<path d="M82.903333 80.406190
L82.998571 80.453809
" />
<path d="M82.998571 80.453809
L83.331904 80.453809
" />
<path d="M82.331904 80.882380
L82.284285 80.930000
" />
<path d="M82.284285 80.930000
L82.331904 80.977619
" />
<path d="M82.331904 80.977619
L82.379523 80.930000
" />
<path d="M82.379523 80.930000
L82.331904 80.882380
" />
<path d="M82.331904 80.882380
L82.331904 80.977619
" />
<path d="M82.331904 80.358571
L82.284285 80.406190
" />
<path d="M82.284285 80.406190
L82.331904 80.453809
" />
<path d="M82.331904 80.453809
L82.379523 80.406190
" />
<path d="M82.379523 80.406190
L82.331904 80.358571
" />
<path d="M82.331904 80.358571
L82.331904 80.453809
" />
<path d="M81.141428 80.072857
L81.093809 80.025238
" />
<path d="M81.093809 80.025238
L80.998571 79.977619
" />
<path d="M80.998571 79.977619
L80.760476 79.977619
" />
<path d="M80.760476 79.977619
L80.665238 80.025238
" />
<path d="M80.665238 80.025238
L80.617619 80.072857
" />
<path d="M80.617619 80.072857
L80.570000 80.168095
" />
<path d="M80.570000 80.168095
L80.570000 80.263333
" />
<path d="M80.570000 80.263333
L80.617619 80.406190
" />
<path d="M80.617619 80.406190
L81.189047 80.977619
" />
<path d="M81.189047 80.977619
L80.570000 80.977619
" />
<path d="M80.141428 80.882380
L80.093809 80.930000
" />
<path d="M80.093809 80.930000
L80.141428 80.977619
" />
<path d="M80.141428 80.977619
L80.189047 80.930000
" />
<path d="M80.189047 80.930000
L80.141428 80.882380
" />
<path d="M80.141428 80.882380
L80.141428 80.977619
" />
<path d="M79.474762 79.977619
L79.379524 79.977619
" />
<path d="M79.379524 79.977619
L79.284286 80.025238
" />
<path d="M79.284286 80.025238
L79.236667 80.072857
" />
<path d="M79.236667 80.072857
L79.189048 80.168095
" />
<path d="M79.189048 80.168095
L79.141429 80.358571
" />
<path d="M79.141429 80.358571
L79.141429 80.596666
" />
<path d="M79.141429 80.596666
L79.189048 80.787142
" />
<path d="M79.189048 80.787142
L79.236667 80.882380
" />
<path d="M79.236667 80.882380
L79.284286 80.930000
" />
<path d="M79.284286 80.930000
L79.379524 80.977619
" />
<path d="M79.379524 80.977619
L79.474762 80.977619
" />
<path d="M79.474762 80.977619
L79.570000 80.930000
" />
<path d="M79.570000 80.930000
L79.617619 80.882380
" />
<path d="M79.617619 80.882380
L79.665238 80.787142
" />
<path d="M79.665238 80.787142
L79.712857 80.596666
" />
<path d="M79.712857 80.596666
L79.712857 80.358571
" />
<path d="M79.712857 80.358571
L79.665238 80.168095
" />
<path d="M79.665238 80.168095
L79.617619 80.072857
" />
<path d="M79.617619 80.072857
L79.570000 80.025238
" />
<path d="M79.570000 80.025238
L79.474762 79.977619
" />
<path d="M78.712857 80.882380
L78.665238 80.930000
" />
<path d="M78.665238 80.930000
L78.712857 80.977619
" />
<path d="M78.712857 80.977619
L78.760476 80.930000
" />
<path d="M78.760476 80.930000
L78.712857 80.882380
" />
<path d="M78.712857 80.882380
L78.712857 80.977619
" />
<path d="M78.046191 79.977619
L77.950953 79.977619
" />
<path d="M77.950953 79.977619
L77.855715 80.025238
" />
<path d="M77.855715 80.025238
L77.808096 80.072857
" />
<path d="M77.808096 80.072857
L77.760477 80.168095
" />
<path d="M77.760477 80.168095
L77.712858 80.358571
" />
<path d="M77.712858 80.358571
L77.712858 80.596666
" />
<path d="M77.712858 80.596666
L77.760477 80.787142
" />
<path d="M77.760477 80.787142
L77.808096 80.882380
" />
<path d="M77.808096 80.882380
L77.855715 80.930000
" />
<path d="M77.855715 80.930000
L77.950953 80.977619
" />
<path d="M77.950953 80.977619
L78.046191 80.977619
" />
<path d="M78.046191 80.977619
L78.141429 80.930000
" />
<path d="M78.141429 80.930000
L78.189048 80.882380
" />
<path d="M78.189048 80.882380
L78.236667 80.787142
" />
<path d="M78.236667 80.787142
L78.284286 80.596666
" />
<path d="M78.284286 80.596666
L78.284286 80.358571
" />
<path d="M78.284286 80.358571
L78.236667 80.168095
" />
<path d="M78.236667 80.168095
L78.189048 80.072857
" />
<path d="M78.189048 80.072857
L78.141429 80.025238
" />
<path d="M78.141429 80.025238
L78.046191 79.977619
" />
</g><g transform="rotate(-270.000000 50.692800 71.323200)">
<text x="50.692800" y="71.323200"
transform="scale(-1 1) translate(-101.385600 0)"
textLength="5.413095" font-size="1.333333" lengthAdjust="spacingAndGlyphs"
text-anchor="start" opacity="0">+3.3V </text>
</g>
<g class="stroked-text"><desc>+3.3V </desc>
<path d="M51.196133 71.085104
L51.196133 70.323200
" />
<path d="M50.815180 70.704152
L51.577085 70.704152
" />
<path d="M51.815180 69.942247
L51.815180 69.323200
" />
<path d="M51.815180 69.323200
L51.434228 69.656533
" />
<path d="M51.434228 69.656533
L51.434228 69.513676
" />
<path d="M51.434228 69.513676
L51.386609 69.418438
" />
<path d="M51.386609 69.418438
L51.338990 69.370819
" />
<path d="M51.338990 69.370819
L51.243752 69.323200
" />
<path d="M51.243752 69.323200
L51.005657 69.323200
" />
<path d="M51.005657 69.323200
L50.910419 69.370819
" />
<path d="M50.910419 69.370819
L50.862800 69.418438
" />
<path d="M50.862800 69.418438
L50.815180 69.513676
" />
<path d="M50.815180 69.513676
L50.815180 69.799390
" />
<path d="M50.815180 69.799390
L50.862800 69.894628
" />
<path d="M50.862800 69.894628
L50.910419 69.942247
" />
<path d="M50.910419 68.894628
L50.862800 68.847009
" />
<path d="M50.862800 68.847009
L50.815180 68.894628
" />
<path d="M50.815180 68.894628
L50.862800 68.942247
" />
<path d="M50.862800 68.942247
L50.910419 68.894628
" />
<path d="M50.910419 68.894628
L50.815180 68.894628
" />
<path d="M51.815180 68.513676
L51.815180 67.894629
" />
<path d="M51.815180 67.894629
L51.434228 68.227962
" />
<path d="M51.434228 68.227962
L51.434228 68.085105
" />
<path d="M51.434228 68.085105
L51.386609 67.989867
" />
<path d="M51.386609 67.989867
L51.338990 67.942248
" />
<path d="M51.338990 67.942248
L51.243752 67.894629
" />
<path d="M51.243752 67.894629
L51.005657 67.894629
" />
<path d="M51.005657 67.894629
L50.910419 67.942248
" />
<path d="M50.910419 67.942248
L50.862800 67.989867
" />
<path d="M50.862800 67.989867
L50.815180 68.085105
" />
<path d="M50.815180 68.085105
L50.815180 68.370819
" />
<path d="M50.815180 68.370819
L50.862800 68.466057
" />
<path d="M50.862800 68.466057
L50.910419 68.513676
" />
<path d="M51.815180 67.608914
L50.815180 67.275581
" />
<path d="M50.815180 67.275581
L51.815180 66.942248
" />
</g><g transform="rotate(-270.000000 49.072800 71.323200)">
<text x="49.072800" y="71.323200"
transform="scale(-1 1) translate(-98.145600 0)"
textLength="9.032143" font-size="1.333333" lengthAdjust="spacingAndGlyphs"
text-anchor="start" opacity="0">150mA max</text>
</g>
<g class="stroked-text"><desc>150mA max</desc>
<path d="M49.195180 70.561295
L49.195180 71.132723
" />
<path d="M49.195180 70.847009
L50.195180 70.847009
" />
<path d="M50.195180 70.847009
L50.052323 70.942247
" />
<path d="M50.052323 70.942247
L49.957085 71.037485
" />
<path d="M49.957085 71.037485
L49.909466 71.132723
" />
<path d="M50.195180 69.656533
L50.195180 70.132723
" />
<path d="M50.195180 70.132723
L49.718990 70.180342
" />
<path d="M49.718990 70.180342
L49.766609 70.132723
" />
<path d="M49.766609 70.132723
L49.814228 70.037485
" />
<path d="M49.814228 70.037485
L49.814228 69.799390
" />
<path d="M49.814228 69.799390
L49.766609 69.704152
" />
<path d="M49.766609 69.704152
L49.718990 69.656533
" />
<path d="M49.718990 69.656533
L49.623752 69.608914
" />
<path d="M49.623752 69.608914
L49.385657 69.608914
" />
<path d="M49.385657 69.608914
L49.290419 69.656533
" />
<path d="M49.290419 69.656533
L49.242800 69.704152
" />
<path d="M49.242800 69.704152
L49.195180 69.799390
" />
<path d="M49.195180 69.799390
L49.195180 70.037485
" />
<path d="M49.195180 70.037485
L49.242800 70.132723
" />
<path d="M49.242800 70.132723
L49.290419 70.180342
" />
<path d="M50.195180 68.989866
L50.195180 68.894628
" />
<path d="M50.195180 68.894628
L50.147561 68.799390
" />
<path d="M50.147561 68.799390
L50.099942 68.751771
" />
<path d="M50.099942 68.751771
L50.004704 68.704152
" />
<path d="M50.004704 68.704152
L49.814228 68.656533
" />
<path d="M49.814228 68.656533
L49.576133 68.656533
" />
<path d="M49.576133 68.656533
L49.385657 68.704152
" />
<path d="M49.385657 68.704152
L49.290419 68.751771
" />
<path d="M49.290419 68.751771
L49.242800 68.799390
" />
<path d="M49.242800 68.799390
L49.195180 68.894628
" />
<path d="M49.195180 68.894628
L49.195180 68.989866
" />
<path d="M49.195180 68.989866
L49.242800 69.085104
" />
<path d="M49.242800 69.085104
L49.290419 69.132723
" />
<path d="M49.290419 69.132723
L49.385657 69.180342
" />
<path d="M49.385657 69.180342
L49.576133 69.227961
" />
<path d="M49.576133 69.227961
L49.814228 69.227961
" />
<path d="M49.814228 69.227961
L50.004704 69.180342
" />
<path d="M50.004704 69.180342
L50.099942 69.132723
" />
<path d="M50.099942 69.132723
L50.147561 69.085104
" />
<path d="M50.147561 69.085104
L50.195180 68.989866
" />
<path d="M49.195180 68.227961
L49.861847 68.227961
" />
<path d="M49.766609 68.227961
L49.814228 68.180342
" />
<path d="M49.814228 68.180342
L49.861847 68.085104
" />
<path d="M49.861847 68.085104
L49.861847 67.942247
" />
<path d="M49.861847 67.942247
L49.814228 67.847009
" />
<path d="M49.814228 67.847009
L49.718990 67.799390
" />
<path d="M49.718990 67.799390
L49.195180 67.799390
" />
<path d="M49.718990 67.799390
L49.814228 67.751771
" />
<path d="M49.814228 67.751771
L49.861847 67.656533
" />
<path d="M49.861847 67.656533
L49.861847 67.513676
" />
<path d="M49.861847 67.513676
L49.814228 67.418437
" />
<path d="M49.814228 67.418437
L49.718990 67.370818
" />
<path d="M49.718990 67.370818
L49.195180 67.370818
" />
<path d="M49.480895 66.942247
L49.480895 66.466057
" />
<path d="M49.195180 67.037485
L50.195180 66.704152
" />
<path d="M50.195180 66.704152
L49.195180 66.370819
" />
<path d="M49.195180 65.275580
L49.861847 65.275580
" />
<path d="M49.766609 65.275580
L49.814228 65.227961
" />
<path d="M49.814228 65.227961
L49.861847 65.132723
" />
<path d="M49.861847 65.132723
L49.861847 64.989866
" />
<path d="M49.861847 64.989866
L49.814228 64.894628
" />
<path d="M49.814228 64.894628
L49.718990 64.847009
" />
<path d="M49.718990 64.847009
L49.195180 64.847009
" />
<path d="M49.718990 64.847009
L49.814228 64.799390
" />
<path d="M49.814228 64.799390
L49.861847 64.704152
" />
<path d="M49.861847 64.704152
L49.861847 64.561295
" />
<path d="M49.861847 64.561295
L49.814228 64.466056
" />
<path d="M49.814228 64.466056
L49.718990 64.418437
" />
<path d="M49.718990 64.418437
L49.195180 64.418437
" />
<path d="M49.195180 63.513676
L49.718990 63.513676
" />
<path d="M49.718990 63.513676
L49.814228 63.561295
" />
<path d="M49.814228 63.561295
L49.861847 63.656533
" />
<path d="M49.861847 63.656533
L49.861847 63.847009
" />
<path d="M49.861847 63.847009
L49.814228 63.942247
" />
<path d="M49.242800 63.513676
L49.195180 63.608914
" />
<path d="M49.195180 63.608914
L49.195180 63.847009
" />
<path d="M49.195180 63.847009
L49.242800 63.942247
" />
<path d="M49.242800 63.942247
L49.338038 63.989866
" />
<path d="M49.338038 63.989866
L49.433276 63.989866
" />
<path d="M49.433276 63.989866
L49.528514 63.942247
" />
<path d="M49.528514 63.942247
L49.576133 63.847009
" />
<path d="M49.576133 63.847009
L49.576133 63.608914
" />
<path d="M49.576133 63.608914
L49.623752 63.513676
" />
<path d="M49.195180 63.132723
L49.861847 62.608914
" />
<path d="M49.861847 63.132723
L49.195180 62.608914
" />
</g><text x="65.910000" y="51.050000"
transform="scale(-1 1) translate(-131.820000 0)"
textLength="4.717858" font-size="2.000000" lengthAdjust="spacingAndGlyphs"
text-anchor="start" opacity="0">MIDI</text>
<g class="stroked-text"><desc>MIDI</desc>
<path d="M65.552857 50.866428
L65.552857 49.366428
" />
<path d="M65.552857 49.366428
L65.052857 50.437857
" />
<path d="M65.052857 50.437857
L64.552857 49.366428
" />
<path d="M64.552857 49.366428
L64.552857 50.866428
" />
<path d="M63.838571 50.866428
L63.838571 49.366428
" />
<path d="M63.124285 50.866428
L63.124285 49.366428
" />
<path d="M63.124285 49.366428
L62.767142 49.366428
" />
<path d="M62.767142 49.366428
L62.552856 49.437857
" />
<path d="M62.552856 49.437857
L62.409999 49.580714
" />
<path d="M62.409999 49.580714
L62.338570 49.723571
" />
<path d="M62.338570 49.723571
L62.267142 50.009285
" />
<path d="M62.267142 50.009285
L62.267142 50.223571
" />
<path d="M62.267142 50.223571
L62.338570 50.509285
" />
<path d="M62.338570 50.509285
L62.409999 50.652142
" />
<path d="M62.409999 50.652142
L62.552856 50.795000
" />
<path d="M62.552856 50.795000
L62.767142 50.866428
" />
<path d="M62.767142 50.866428
L63.124285 50.866428
" />
<path d="M61.624285 50.866428
L61.624285 49.366428
" />
</g><g transform="rotate(-270.000000 134.874000 45.669200)">
<text x="134.874000" y="45.669200"
transform="scale(-1 1) translate(-269.748000 0)"
textLength="1.555952" font-size="1.333333" lengthAdjust="spacingAndGlyphs"
text-anchor="start" opacity="0">in</text>
</g>
<g class="stroked-text"><desc>in</desc>
<path d="M134.996380 45.431104
L135.663047 45.431104
" />
<path d="M135.996380 45.431104
L135.948761 45.478723
" />
<path d="M135.948761 45.478723
L135.901142 45.431104
" />
<path d="M135.901142 45.431104
L135.948761 45.383485
" />
<path d="M135.948761 45.383485
L135.996380 45.431104
" />
<path d="M135.996380 45.431104
L135.901142 45.431104
" />
<path d="M135.663047 44.954914
L134.996380 44.954914
" />
<path d="M135.567809 44.954914
L135.615428 44.907295
" />
<path d="M135.615428 44.907295
L135.663047 44.812057
" />
<path d="M135.663047 44.812057
L135.663047 44.669200
" />
<path d="M135.663047 44.669200
L135.615428 44.573962
" />
<path d="M135.615428 44.573962
L135.520190 44.526343
" />
<path d="M135.520190 44.526343
L134.996380 44.526343
" />
</g><text x="49.225200" y="83.566000"
transform="scale(-1 1) translate(-98.450400 0)"
textLength="6.508334" font-size="1.333333" lengthAdjust="spacingAndGlyphs"
text-anchor="start" opacity="0">LED OUT</text>
<g class="stroked-text"><desc>LED OUT</desc>
<path d="M48.510914 83.443619
L48.987104 83.443619
" />
<path d="M48.987104 83.443619
L48.987104 82.443619
" />
<path d="M48.177580 82.919809
L47.844247 82.919809
" />
<path d="M47.701390 83.443619
L48.177580 83.443619
" />
<path d="M48.177580 83.443619
L48.177580 82.443619
" />
<path d="M48.177580 82.443619
L47.701390 82.443619
" />
<path d="M47.272818 83.443619
L47.272818 82.443619
" />
<path d="M47.272818 82.443619
L47.034723 82.443619
" />
<path d="M47.034723 82.443619
L46.891866 82.491238
" />
<path d="M46.891866 82.491238
L46.796628 82.586476
" />
<path d="M46.796628 82.586476
L46.749009 82.681714
" />
<path d="M46.749009 82.681714
L46.701390 82.872190
" />
<path d="M46.701390 82.872190
L46.701390 83.015047
" />
<path d="M46.701390 83.015047
L46.749009 83.205523
" />
<path d="M46.749009 83.205523
L46.796628 83.300761
" />
<path d="M46.796628 83.300761
L46.891866 83.396000
" />
<path d="M46.891866 83.396000
L47.034723 83.443619
" />
<path d="M47.034723 83.443619
L47.272818 83.443619
" />
<path d="M45.320437 82.443619
L45.129961 82.443619
" />
<path d="M45.129961 82.443619
L45.034723 82.491238
" />
<path d="M45.034723 82.491238
L44.939485 82.586476
" />
<path d="M44.939485 82.586476
L44.891866 82.776952
" />
<path d="M44.891866 82.776952
L44.891866 83.110285
" />
<path d="M44.891866 83.110285
L44.939485 83.300761
" />
<path d="M44.939485 83.300761
L45.034723 83.396000
" />
<path d="M45.034723 83.396000
L45.129961 83.443619
" />
<path d="M45.129961 83.443619
L45.320437 83.443619
" />
<path d="M45.320437 83.443619
L45.415675 83.396000
" />
<path d="M45.415675 83.396000
L45.510913 83.300761
" />
<path d="M45.510913 83.300761
L45.558532 83.110285
" />
<path d="M45.558532 83.110285
L45.558532 82.776952
" />
<path d="M45.558532 82.776952
L45.510913 82.586476
" />
<path d="M45.510913 82.586476
L45.415675 82.491238
" />
<path d="M45.415675 82.491238
L45.320437 82.443619
" />
<path d="M44.463294 82.443619
L44.463294 83.253142
" />
<path d="M44.463294 83.253142
L44.415675 83.348380
" />
<path d="M44.415675 83.348380
L44.368056 83.396000
" />
<path d="M44.368056 83.396000
L44.272818 83.443619
" />
<path d="M44.272818 83.443619
L44.082342 83.443619
" />
<path d="M44.082342 83.443619
L43.987104 83.396000
" />
<path d="M43.987104 83.396000
L43.939485 83.348380
" />
<path d="M43.939485 83.348380
L43.891866 83.253142
" />
<path d="M43.891866 83.253142
L43.891866 82.443619
" />
<path d="M43.558532 82.443619
L42.987104 82.443619
" />
<path d="M43.272818 83.443619
L43.272818 82.443619
" />
</g><g transform="rotate(-90.000000 182.778400 36.779200)">
<text x="182.778400" y="36.779200"
transform="scale(-1 1) translate(-365.556800 0)"
textLength="1.698809" font-size="1.333333" lengthAdjust="spacingAndGlyphs"
text-anchor="start" opacity="0">IN</text>
</g>
<g class="stroked-text"><desc>IN</desc>
<path d="M182.656019 37.017295
L181.656019 37.017295
" />
<path d="M182.656019 37.493485
L181.656019 37.493485
" />
<path d="M181.656019 37.493485
L182.656019 38.064913
" />
<path d="M182.656019 38.064913
L181.656019 38.064913
" />
</g><g transform="rotate(90.000000 67.665600 51.866800)">
<text x="67.665600" y="51.866800"
transform="scale(-1 1) translate(-135.331200 0)"
textLength="3.032143" font-size="1.333333" lengthAdjust="spacingAndGlyphs"
text-anchor="start" opacity="0">OUT</text>
</g>
<g class="stroked-text"><desc>OUT</desc>
<path d="M68.787980 51.438228
L68.787980 51.247752
" />
<path d="M68.787980 51.247752
L68.740361 51.152514
" />
<path d="M68.740361 51.152514
L68.645123 51.057276
" />
<path d="M68.645123 51.057276
L68.454647 51.009657
" />
<path d="M68.454647 51.009657
L68.121314 51.009657
" />
<path d="M68.121314 51.009657
L67.930838 51.057276
" />
<path d="M67.930838 51.057276
L67.835600 51.152514
" />
<path d="M67.835600 51.152514
L67.787980 51.247752
" />
<path d="M67.787980 51.247752
L67.787980 51.438228
" />
<path d="M67.787980 51.438228
L67.835600 51.533466
" />
<path d="M67.835600 51.533466
L67.930838 51.628704
" />
<path d="M67.930838 51.628704
L68.121314 51.676323
" />
<path d="M68.121314 51.676323
L68.454647 51.676323
" />
<path d="M68.454647 51.676323
L68.645123 51.628704
" />
<path d="M68.645123 51.628704
L68.740361 51.533466
" />
<path d="M68.740361 51.533466
L68.787980 51.438228
" />
<path d="M68.787980 50.581085
L67.978457 50.581085
" />
<path d="M67.978457 50.581085
L67.883219 50.533466
" />
<path d="M67.883219 50.533466
L67.835600 50.485847
" />
<path d="M67.835600 50.485847
L67.787980 50.390609
" />
<path d="M67.787980 50.390609
L67.787980 50.200133
" />
<path d="M67.787980 50.200133
L67.835600 50.104895
" />
<path d="M67.835600 50.104895
L67.883219 50.057276
" />
<path d="M67.883219 50.057276
L67.978457 50.009657
" />
<path d="M67.978457 50.009657
L68.787980 50.009657
" />
<path d="M68.787980 49.676323
L68.787980 49.104895
" />
<path d="M67.787980 49.390609
L68.787980 49.390609
" />
</g><g transform="rotate(-90.000000 176.326800 36.677600)">
<text x="176.326800" y="36.677600"
transform="scale(-1 1) translate(-352.653600 0)"
textLength="3.794048" font-size="1.333333" lengthAdjust="spacingAndGlyphs"
text-anchor="start" opacity="0">VREF</text>
</g>
<g class="stroked-text"><desc>VREF</desc>
<path d="M175.204419 36.772838
L176.204419 37.106171
" />
<path d="M176.204419 37.106171
L175.204419 37.439504
" />
<path d="M176.204419 38.344266
L175.728228 38.010933
" />
<path d="M176.204419 37.772838
L175.204419 37.772838
" />
<path d="M175.204419 37.772838
L175.204419 38.153790
" />
<path d="M175.204419 38.153790
L175.252038 38.249028
" />
<path d="M175.252038 38.249028
L175.299657 38.296647
" />
<path d="M175.299657 38.296647
L175.394895 38.344266
" />
<path d="M175.394895 38.344266
L175.537752 38.344266
" />
<path d="M175.537752 38.344266
L175.632990 38.296647
" />
<path d="M175.632990 38.296647
L175.680609 38.249028
" />
<path d="M175.680609 38.249028
L175.728228 38.153790
" />
<path d="M175.728228 38.153790
L175.728228 37.772838
" />
<path d="M175.680609 38.772838
L175.680609 39.106171
" />
<path d="M176.204419 39.249028
L176.204419 38.772838
" />
<path d="M176.204419 38.772838
L175.204419 38.772838
" />
<path d="M175.204419 38.772838
L175.204419 39.249028
" />
<path d="M175.680609 40.010933
L175.680609 39.677600
" />
<path d="M176.204419 39.677600
L175.204419 39.677600
" />
<path d="M175.204419 39.677600
L175.204419 40.153790
" />
</g><g transform="rotate(90.000000 137.464800 45.770800)">
<text x="137.464800" y="45.770800"
transform="scale(-1 1) translate(-274.929600 0)"
textLength="2.555953" font-size="1.333333" lengthAdjust="spacingAndGlyphs"
text-anchor="start" opacity="0">out</text>
</g>
<g class="stroked-text"><desc>out</desc>
<path d="M137.587180 45.389847
L137.634800 45.485085
" />
<path d="M137.634800 45.485085
L137.682419 45.532704
" />
<path d="M137.682419 45.532704
L137.777657 45.580323
" />
<path d="M137.777657 45.580323
L138.063371 45.580323
" />
<path d="M138.063371 45.580323
L138.158609 45.532704
" />
<path d="M138.158609 45.532704
L138.206228 45.485085
" />
<path d="M138.206228 45.485085
L138.253847 45.389847
" />
<path d="M138.253847 45.389847
L138.253847 45.246990
" />
<path d="M138.253847 45.246990
L138.206228 45.151752
" />
<path d="M138.206228 45.151752
L138.158609 45.104133
" />
<path d="M138.158609 45.104133
L138.063371 45.056514
" />
<path d="M138.063371 45.056514
L137.777657 45.056514
" />
<path d="M137.777657 45.056514
L137.682419 45.104133
" />
<path d="M137.682419 45.104133
L137.634800 45.151752
" />
<path d="M137.634800 45.151752
L137.587180 45.246990
" />
<path d="M137.587180 45.246990
L137.587180 45.389847
" />
<path d="M138.253847 44.199371
L137.587180 44.199371
" />
<path d="M138.253847 44.627942
L137.730038 44.627942
" />
<path d="M137.730038 44.627942
L137.634800 44.580323
" />
<path d="M137.634800 44.580323
L137.587180 44.485085
" />
<path d="M137.587180 44.485085
L137.587180 44.342228
" />
<path d="M137.587180 44.342228
L137.634800 44.246990
" />
<path d="M137.634800 44.246990
L137.682419 44.199371
" />
<path d="M138.253847 43.866037
L138.253847 43.485085
" />
<path d="M138.587180 43.723180
L137.730038 43.723180
" />
<path d="M137.730038 43.723180
L137.634800 43.675561
" />
<path d="M137.634800 43.675561
L137.587180 43.580323
" />
<path d="M137.587180 43.580323
L137.587180 43.485085
" />
</g><text x="49.700000" y="110.100000"
transform="scale(-1 1) translate(-99.400000 0)"
textLength="1.889286" font-size="1.333333" lengthAdjust="spacingAndGlyphs"
text-anchor="middle" opacity="0">J7</text>
<g class="stroked-text"><desc>J7</desc>
<path d="M50.033333 109.062619
L50.033333 109.776904
" />
<path d="M50.033333 109.776904
L50.080952 109.919761
" />
<path d="M50.080952 109.919761
L50.176190 110.015000
" />
<path d="M50.176190 110.015000
L50.319047 110.062619
" />
<path d="M50.319047 110.062619
L50.414285 110.062619
" />
<path d="M49.652380 109.062619
L48.985714 109.062619
" />
<path d="M48.985714 109.062619
L49.414285 110.062619
" />
</g><text x="113.625000" y="100.610000"
transform="scale(-1 1) translate(-227.250000 0)"
textLength="1.889286" font-size="1.333333" lengthAdjust="spacingAndGlyphs"
text-anchor="middle" opacity="0">J6</text>
<g class="stroked-text"><desc>J6</desc>
<path d="M113.958333 99.572619
L113.958333 100.286904
" />
<path d="M113.958333 100.286904
L114.005952 100.429761
" />
<path d="M114.005952 100.429761
L114.101190 100.525000
" />
<path d="M114.101190 100.525000
L114.244047 100.572619
" />
<path d="M114.244047 100.572619
L114.339285 100.572619
" />
<path d="M113.053571 99.572619
L113.244047 99.572619
" />
<path d="M113.244047 99.572619
L113.339285 99.620238
" />
<path d="M113.339285 99.620238
L113.386904 99.667857
" />
<path d="M113.386904 99.667857
L113.482142 99.810714
" />
<path d="M113.482142 99.810714
L113.529761 100.001190
" />
<path d="M113.529761 100.001190
L113.529761 100.382142
" />
<path d="M113.529761 100.382142
L113.482142 100.477380
" />
<path d="M113.482142 100.477380
L113.434523 100.525000
" />
<path d="M113.434523 100.525000
L113.339285 100.572619
" />
<path d="M113.339285 100.572619
L113.148809 100.572619
" />
<path d="M113.148809 100.572619
L113.053571 100.525000
" />
<path d="M113.053571 100.525000
L113.005952 100.477380
" />
<path d="M113.005952 100.477380
L112.958333 100.382142
" />
<path d="M112.958333 100.382142
L112.958333 100.144047
" />
<path d="M112.958333 100.144047
L113.005952 100.048809
" />
<path d="M113.005952 100.048809
L113.053571 100.001190
" />
<path d="M113.053571 100.001190
L113.148809 99.953571
" />
<path d="M113.148809 99.953571
L113.339285 99.953571
" />
<path d="M113.339285 99.953571
L113.434523 100.001190
" />
<path d="M113.434523 100.001190
L113.482142 100.048809
" />
<path d="M113.482142 100.048809
L113.529761 100.144047
" />
</g></g>
<g style="fill:#000000; fill-opacity:0.0; 
stroke:#000000; stroke-width:0.100000; stroke-opacity:1; 
stroke-linecap:round; stroke-linejoin:round;">
<g transform="rotate(-270.000000 92.250000 74.640000)">
<text x="92.250000" y="75.140000"
transform="scale(-1 1) translate(-184.500000 0)"
textLength="1.859524" font-size="1.333333" lengthAdjust="spacingAndGlyphs"
text-anchor="middle" opacity="0">F3</text>
</g>
<g class="stroked-text"><desc>F3</desc>
<path d="M92.311190 74.973333
L92.311190 75.306666
" />
<path d="M91.787380 75.306666
L92.787380 75.306666
" />
<path d="M92.787380 75.306666
L92.787380 74.830476
" />
<path d="M92.787380 74.544761
L92.787380 73.925714
" />
<path d="M92.787380 73.925714
L92.406428 74.259047
" />
<path d="M92.406428 74.259047
L92.406428 74.116190
" />
<path d="M92.406428 74.116190
L92.358809 74.020952
" />
<path d="M92.358809 74.020952
L92.311190 73.973333
" />
<path d="M92.311190 73.973333
L92.215952 73.925714
" />
<path d="M92.215952 73.925714
L91.977857 73.925714
" />
<path d="M91.977857 73.925714
L91.882619 73.973333
" />
<path d="M91.882619 73.973333
L91.835000 74.020952
" />
<path d="M91.835000 74.020952
L91.787380 74.116190
" />
<path d="M91.787380 74.116190
L91.787380 74.401904
" />
<path d="M91.787380 74.401904
L91.835000 74.497142
" />
<path d="M91.835000 74.497142
L91.882619 74.544761
" />
</g></g>
<g style="fill:#000000; fill-opacity:0.0; 
stroke:#000000; stroke-width:0.150000; stroke-opacity:1; 
stroke-linecap:round; stroke-linejoin:round;">
<text x="140.760000" y="59.290000"
transform="scale(-1 1) translate(-281.520000 0)"
textLength="2.841667" font-size="1.333333" lengthAdjust="spacingAndGlyphs"
text-anchor="middle" opacity="0">J14</text>
<g class="stroked-text"><desc>J14</desc>
<path d="M141.569523 58.252619
L141.569523 58.966904
" />
<path d="M141.569523 58.966904
L141.617142 59.109761
" />
<path d="M141.617142 59.109761
L141.712380 59.205000
" />
<path d="M141.712380 59.205000
L141.855237 59.252619
" />
<path d="M141.855237 59.252619
L141.950475 59.252619
" />
<path d="M140.569523 59.252619
L141.140951 59.252619
" />
<path d="M140.855237 59.252619
L140.855237 58.252619
" />
<path d="M140.855237 58.252619
L140.950475 58.395476
" />
<path d="M140.950475 58.395476
L141.045713 58.490714
" />
<path d="M141.045713 58.490714
L141.140951 58.538333
" />
<path d="M139.712380 58.585952
L139.712380 59.252619
" />
<path d="M139.950475 58.205000
L140.188570 58.919285
" />
<path d="M140.188570 58.919285
L139.569523 58.919285
" />
</g><text x="127.000000" y="46.440000"
transform="scale(-1 1) translate(-254.000000 0)"
textLength="1.889286" font-size="1.333333" lengthAdjust="spacingAndGlyphs"
text-anchor="middle" opacity="0">J5</text>
<g class="stroked-text"><desc>J5</desc>
<path d="M127.333333 45.402619
L127.333333 46.116904
" />
<path d="M127.333333 46.116904
L127.380952 46.259761
" />
<path d="M127.380952 46.259761
L127.476190 46.355000
" />
<path d="M127.476190 46.355000
L127.619047 46.402619
" />
<path d="M127.619047 46.402619
L127.714285 46.402619
" />
<path d="M126.380952 45.402619
L126.857142 45.402619
" />
<path d="M126.857142 45.402619
L126.904761 45.878809
" />
<path d="M126.904761 45.878809
L126.857142 45.831190
" />
<path d="M126.857142 45.831190
L126.761904 45.783571
" />
<path d="M126.761904 45.783571
L126.523809 45.783571
" />
<path d="M126.523809 45.783571
L126.428571 45.831190
" />
<path d="M126.428571 45.831190
L126.380952 45.878809
" />
<path d="M126.380952 45.878809
L126.333333 45.974047
" />
<path d="M126.333333 45.974047
L126.333333 46.212142
" />
<path d="M126.333333 46.212142
L126.380952 46.307380
" />
<path d="M126.380952 46.307380
L126.428571 46.355000
" />
<path d="M126.428571 46.355000
L126.523809 46.402619
" />
<path d="M126.523809 46.402619
L126.761904 46.402619
" />
<path d="M126.761904 46.402619
L126.857142 46.355000
" />
<path d="M126.857142 46.355000
L126.904761 46.307380
" />
</g><text x="75.488800" y="40.835200"
transform="scale(-1 1) translate(-150.977600 0)"
textLength="2.175000" font-size="1.333333" lengthAdjust="spacingAndGlyphs"
text-anchor="middle" opacity="0">U1</text>
<g class="stroked-text"><desc>U1</desc>
<path d="M76.250704 39.797819
L76.250704 40.607342
" />
<path d="M76.250704 40.607342
L76.203085 40.702580
" />
<path d="M76.203085 40.702580
L76.155466 40.750200
" />
<path d="M76.155466 40.750200
L76.060228 40.797819
" />
<path d="M76.060228 40.797819
L75.869752 40.797819
" />
<path d="M75.869752 40.797819
L75.774514 40.750200
" />
<path d="M75.774514 40.750200
L75.726895 40.702580
" />
<path d="M75.726895 40.702580
L75.679276 40.607342
" />
<path d="M75.679276 40.607342
L75.679276 39.797819
" />
<path d="M74.679276 40.797819
L75.250704 40.797819
" />
<path d="M74.964990 40.797819
L74.964990 39.797819
" />
<path d="M74.964990 39.797819
L75.060228 39.940676
" />
<path d="M75.060228 39.940676
L75.155466 40.035914
" />
<path d="M75.155466 40.035914
L75.250704 40.083533
" />
</g><text x="58.623200" y="83.964400"
transform="scale(-1 1) translate(-117.246400 0)"
textLength="1.889286" font-size="1.333333" lengthAdjust="spacingAndGlyphs"
text-anchor="middle" opacity="0">J4</text>
<g class="stroked-text"><desc>J4</desc>
<path d="M58.956533 82.927019
L58.956533 83.641304
" />
<path d="M58.956533 83.641304
L59.004152 83.784161
" />
<path d="M59.004152 83.784161
L59.099390 83.879400
" />
<path d="M59.099390 83.879400
L59.242247 83.927019
" />
<path d="M59.242247 83.927019
L59.337485 83.927019
" />
<path d="M58.051771 83.260352
L58.051771 83.927019
" />
<path d="M58.289866 82.879400
L58.527961 83.593685
" />
<path d="M58.527961 83.593685
L57.908914 83.593685
" />
</g><text x="123.300000" y="69.000000"
transform="scale(-1 1) translate(-246.600000 0)"
textLength="1.889286" font-size="1.333333" lengthAdjust="spacingAndGlyphs"
text-anchor="middle" opacity="0">J8</text>
<g class="stroked-text"><desc>J8</desc>
<path d="M123.633333 67.962619
L123.633333 68.676904
" />
<path d="M123.633333 68.676904
L123.680952 68.819761
" />
<path d="M123.680952 68.819761
L123.776190 68.915000
" />
<path d="M123.776190 68.915000
L123.919047 68.962619
" />
<path d="M123.919047 68.962619
L124.014285 68.962619
" />
<path d="M123.014285 68.391190
L123.109523 68.343571
" />
<path d="M123.109523 68.343571
L123.157142 68.295952
" />
<path d="M123.157142 68.295952
L123.204761 68.200714
" />
<path d="M123.204761 68.200714
L123.204761 68.153095
" />
<path d="M123.204761 68.153095
L123.157142 68.057857
" />
<path d="M123.157142 68.057857
L123.109523 68.010238
" />
<path d="M123.109523 68.010238
L123.014285 67.962619
" />
<path d="M123.014285 67.962619
L122.823809 67.962619
" />
<path d="M122.823809 67.962619
L122.728571 68.010238
" />
<path d="M122.728571 68.010238
L122.680952 68.057857
" />
<path d="M122.680952 68.057857
L122.633333 68.153095
" />
<path d="M122.633333 68.153095
L122.633333 68.200714
" />
<path d="M122.633333 68.200714
L122.680952 68.295952
" />
<path d="M122.680952 68.295952
L122.728571 68.343571
" />
<path d="M122.728571 68.343571
L122.823809 68.391190
" />
<path d="M122.823809 68.391190
L123.014285 68.391190
" />
<path d="M123.014285 68.391190
L123.109523 68.438809
" />
<path d="M123.109523 68.438809
L123.157142 68.486428
" />
<path d="M123.157142 68.486428
L123.204761 68.581666
" />
<path d="M123.204761 68.581666
L123.204761 68.772142
" />
<path d="M123.204761 68.772142
L123.157142 68.867380
" />
<path d="M123.157142 68.867380
L123.109523 68.915000
" />
<path d="M123.109523 68.915000
L123.014285 68.962619
" />
<path d="M123.014285 68.962619
L122.823809 68.962619
" />
<path d="M122.823809 68.962619
L122.728571 68.915000
" />
<path d="M122.728571 68.915000
L122.680952 68.867380
" />
<path d="M122.680952 68.867380
L122.633333 68.772142
" />
<path d="M122.633333 68.772142
L122.633333 68.581666
" />
<path d="M122.633333 68.581666
L122.680952 68.486428
" />
<path d="M122.680952 68.486428
L122.728571 68.438809
" />
<path d="M122.728571 68.438809
L122.823809 68.391190
" />
</g></g>
<g style="fill:#000000; fill-opacity:0.0; 
stroke:#000000; stroke-width:0.100000; stroke-opacity:1; 
stroke-linecap:round; stroke-linejoin:round;">
<g transform="rotate(-270.000000 98.260000 74.640000)">
<text x="98.260000" y="75.140000"
transform="scale(-1 1) translate(-196.520000 0)"
textLength="1.859524" font-size="1.333333" lengthAdjust="spacingAndGlyphs"
text-anchor="middle" opacity="0">F2</text>
</g>
<g class="stroked-text"><desc>F2</desc>
<path d="M98.321190 74.973333
L98.321190 75.306666
" />
<path d="M97.797380 75.306666
L98.797380 75.306666
" />
<path d="M98.797380 75.306666
L98.797380 74.830476
" />
<path d="M98.702142 74.497142
L98.749761 74.449523
" />
<path d="M98.749761 74.449523
L98.797380 74.354285
" />
<path d="M98.797380 74.354285
L98.797380 74.116190
" />
<path d="M98.797380 74.116190
L98.749761 74.020952
" />
<path d="M98.749761 74.020952
L98.702142 73.973333
" />
<path d="M98.702142 73.973333
L98.606904 73.925714
" />
<path d="M98.606904 73.925714
L98.511666 73.925714
" />
<path d="M98.511666 73.925714
L98.368809 73.973333
" />
<path d="M98.368809 73.973333
L97.797380 74.544761
" />
<path d="M97.797380 74.544761
L97.797380 73.925714
" />
</g></g>
<g style="fill:#000000; fill-opacity:0.0; 
stroke:#000000; stroke-width:0.150000; stroke-opacity:1; 
stroke-linecap:round; stroke-linejoin:round;">
<text x="65.836800" y="60.799600"
transform="scale(-1 1) translate(-131.673600 0)"
textLength="2.841667" font-size="1.333333" lengthAdjust="spacingAndGlyphs"
text-anchor="middle" opacity="0">J15</text>
<g class="stroked-text"><desc>J15</desc>
<path d="M66.646323 59.762219
L66.646323 60.476504
" />
<path d="M66.646323 60.476504
L66.693942 60.619361
" />
<path d="M66.693942 60.619361
L66.789180 60.714600
" />
<path d="M66.789180 60.714600
L66.932037 60.762219
" />
<path d="M66.932037 60.762219
L67.027275 60.762219
" />
<path d="M65.646323 60.762219
L66.217751 60.762219
" />
<path d="M65.932037 60.762219
L65.932037 59.762219
" />
<path d="M65.932037 59.762219
L66.027275 59.905076
" />
<path d="M66.027275 59.905076
L66.122513 60.000314
" />
<path d="M66.122513 60.000314
L66.217751 60.047933
" />
<path d="M64.741561 59.762219
L65.217751 59.762219
" />
<path d="M65.217751 59.762219
L65.265370 60.238409
" />
<path d="M65.265370 60.238409
L65.217751 60.190790
" />
<path d="M65.217751 60.190790
L65.122513 60.143171
" />
<path d="M65.122513 60.143171
L64.884418 60.143171
" />
<path d="M64.884418 60.143171
L64.789180 60.190790
" />
<path d="M64.789180 60.190790
L64.741561 60.238409
" />
<path d="M64.741561 60.238409
L64.693942 60.333647
" />
<path d="M64.693942 60.333647
L64.693942 60.571742
" />
<path d="M64.693942 60.571742
L64.741561 60.666980
" />
<path d="M64.741561 60.666980
L64.789180 60.714600
" />
<path d="M64.789180 60.714600
L64.884418 60.762219
" />
<path d="M64.884418 60.762219
L65.122513 60.762219
" />
<path d="M65.122513 60.762219
L65.217751 60.714600
" />
<path d="M65.217751 60.714600
L65.265370 60.666980
" />
</g></g>
<g style="fill:#000000; fill-opacity:0.0; 
stroke:#000000; stroke-width:0.120000; stroke-opacity:1; 
stroke-linecap:round; stroke-linejoin:round;">
<path d="M48.260000 107.650000
L48.260000 106.320000
" />
<path d="M49.590000 107.650000
L48.260000 107.650000
" />
<path d="M50.860000 107.650000
L99.180000 107.650000
" />
<path d="M50.860000 107.650000
L50.860000 105.050000
" />
<path d="M99.180000 107.650000
L99.180000 102.450000
" />
<path d="M48.260000 105.050000
L48.260000 102.450000
" />
<path d="M50.860000 105.050000
L48.260000 105.050000
" />
<path d="M48.260000 102.450000
L99.180000 102.450000
" />
</g>
<g style="fill:#000000; fill-opacity:0.0; 
stroke:#000000; stroke-width:0.100000; stroke-opacity:1; 
stroke-linecap:round; stroke-linejoin:round;">
<path d="M46.220000 125.050000
L101.220000 125.050000
" />
<path d="M101.220000 125.050000
L101.220000 85.050000
" />
<path d="M101.220000 85.050000
L46.220000 85.050000
" />
<path d="M46.220000 85.050000
L46.220000 125.050000
" />
</g>
<g style="fill:#000000; fill-opacity:0.0; 
stroke:#000000; stroke-width:0.120000; stroke-opacity:1; 
stroke-linecap:round; stroke-linejoin:round;">
<path d="M112.295000 88.830000
L114.955000 88.830000
" />
<path d="M112.295000 96.510000
L112.295000 88.830000
" />
<path d="M112.295000 96.510000
L114.955000 96.510000
" />
<path d="M112.295000 97.780000
L112.295000 99.110000
" />
<path d="M112.295000 99.110000
L113.625000 99.110000
" />
<path d="M114.955000 96.510000
L114.955000 88.830000
" />
<path d="M138.000000 58.445000
L139.270000 58.445000
" />
<path d="M139.270000 58.445000
L139.270000 57.175000
" />
<path d="M135.080000 56.132071
L135.080000 55.735000
" />
<path d="M135.840000 56.132071
L135.840000 55.735000
" />
<path d="M137.620000 56.065000
L137.620000 55.735000
" />
<path d="M138.380000 56.065000
L138.380000 55.735000
" />
<path d="M134.130000 55.735000
L134.130000 53.075000
" />
<path d="M136.730000 55.735000
L136.730000 53.075000
" />
<path d="M139.330000 55.735000
L134.130000 55.735000
" />
<path d="M134.130000 53.075000
L139.330000 53.075000
" />
<path d="M135.840000 53.075000
L135.840000 47.075000
" />
<path d="M137.720000 53.075000
L137.720000 47.075000
" />
<path d="M137.840000 53.075000
L137.840000 47.075000
" />
<path d="M137.960000 53.075000
L137.960000 47.075000
" />
<path d="M138.080000 53.075000
L138.080000 47.075000
" />
<path d="M138.200000 53.075000
L138.200000 47.075000
" />
<path d="M138.320000 53.075000
L138.320000 47.075000
" />
<path d="M138.380000 53.075000
L138.380000 47.075000
" />
<path d="M139.330000 53.075000
L139.330000 55.735000
" />
<path d="M135.080000 47.075000
L135.080000 53.075000
" />
<path d="M135.840000 47.075000
L135.080000 47.075000
" />
<path d="M137.620000 47.075000
L137.620000 53.075000
" />
<path d="M138.380000 47.075000
L137.620000 47.075000
" />
</g>
<g style="fill:#000000; fill-opacity:0.0; 
stroke:#000000; stroke-width:0.100000; stroke-opacity:1; 
stroke-linecap:round; stroke-linejoin:round;">
<circle cx="127.000000" cy="50.006248" r="0.914753" /> 
<circle cx="127.000000" cy="48.000000" r="0.914400" /> 
</g>
<g style="fill:#000000; fill-opacity:0.0; 
stroke:#000000; stroke-width:0.120000; stroke-opacity:1; 
stroke-linecap:round; stroke-linejoin:round;">
<path d="M80.300000 59.500000
L79.900000 59.500000
" />
<path d="M82.900000 59.500000
L82.500000 59.500000
" />
<path d="M85.400000 59.500000
L85.000000 59.500000
" />
<path d="M87.900000 59.500000
L87.500000 59.500000
" />
<path d="M90.500000 59.500000
L90.100000 59.500000
" />
<path d="M93.000000 59.500000
L92.600000 59.500000
" />
<path d="M95.600000 59.500000
L95.200000 59.500000
" />
<path d="M98.100000 59.500000
L97.700000 59.500000
" />
<path d="M100.700000 59.500000
L100.300000 59.500000
" />
<path d="M103.200000 59.500000
L102.800000 59.500000
" />
<path d="M105.700000 59.500000
L105.300000 59.500000
" />
<path d="M108.300000 59.500000
L107.900000 59.500000
" />
<path d="M110.800000 59.500000
L110.400000 59.500000
" />
<path d="M113.400000 59.500000
L113.000000 59.500000
" />
<path d="M115.900000 59.500000
L115.500000 59.500000
" />
<path d="M118.400000 59.500000
L118.000000 59.500000
" />
<path d="M121.000000 59.500000
L120.600000 59.500000
" />
<path d="M123.500000 59.500000
L123.100000 59.500000
" />
<path d="M125.833000 59.500000
L125.833000 56.493000
" />
<path d="M126.100000 59.500000
L125.700000 59.500000
" />
<path d="M128.500000 59.500000
L128.200000 59.500000
" />
<path d="M125.833000 56.493000
L128.500000 56.493000
" />
<path d="M77.500000 52.700000
L77.500000 59.500000
" />
<path d="M77.500000 50.500000
L77.500000 50.100000
" />
<path d="M77.500000 47.900000
L77.500000 47.500000
" />
<path d="M77.500000 38.500000
L77.500000 45.300000
" />
<path d="M80.300000 38.500000
L79.900000 38.500000
" />
<path d="M82.900000 38.500000
L82.500000 38.500000
" />
<path d="M85.400000 38.500000
L85.000000 38.500000
" />
<path d="M87.900000 38.500000
L87.500000 38.500000
" />
<path d="M90.500000 38.500000
L90.100000 38.500000
" />
<path d="M93.000000 38.500000
L92.600000 38.500000
" />
<path d="M95.600000 38.500000
L95.200000 38.500000
" />
<path d="M98.100000 38.500000
L97.700000 38.500000
" />
<path d="M100.700000 38.500000
L100.300000 38.500000
" />
<path d="M103.200000 38.500000
L102.800000 38.500000
" />
<path d="M105.700000 38.500000
L105.300000 38.500000
" />
<path d="M108.300000 38.500000
L107.900000 38.500000
" />
<path d="M110.800000 38.500000
L110.400000 38.500000
" />
<path d="M113.400000 38.500000
L113.000000 38.500000
" />
<path d="M115.900000 38.500000
L115.500000 38.500000
" />
<path d="M118.400000 38.500000
L118.000000 38.500000
" />
<path d="M121.000000 38.500000
L120.600000 38.500000
" />
<path d="M123.500000 38.500000
L123.100000 38.500000
" />
<path d="M126.100000 38.500000
L125.700000 38.500000
" />
<path d="M128.500000 38.500000
L128.200000 38.500000
" />
<path d="M55.865000 84.232600
L57.135000 84.232600
" />
<path d="M57.135000 84.232600
L57.135000 82.962600
" />
<path d="M50.405000 81.919671
L50.405000 81.522600
" />
<path d="M51.165000 81.919671
L51.165000 81.522600
" />
<path d="M52.945000 81.919671
L52.945000 81.522600
" />
<path d="M53.705000 81.919671
L53.705000 81.522600
" />
<path d="M55.485000 81.852600
L55.485000 81.522600
" />
<path d="M56.245000 81.852600
L56.245000 81.522600
" />
<path d="M49.455000 81.522600
L49.455000 78.862600
" />
<path d="M52.055000 81.522600
L52.055000 78.862600
" />
<path d="M54.595000 81.522600
L54.595000 78.862600
" />
<path d="M57.195000 81.522600
L49.455000 81.522600
" />
<path d="M49.455000 78.862600
L57.195000 78.862600
" />
<path d="M51.165000 78.862600
L51.165000 72.862600
" />
<path d="M53.705000 78.862600
L53.705000 72.862600
" />
<path d="M55.585000 78.862600
L55.585000 72.862600
" />
<path d="M55.705000 78.862600
L55.705000 72.862600
" />
<path d="M55.825000 78.862600
L55.825000 72.862600
" />
<path d="M55.945000 78.862600
L55.945000 72.862600
" />
<path d="M56.065000 78.862600
L56.065000 72.862600
" />
<path d="M56.185000 78.862600
L56.185000 72.862600
" />
<path d="M56.245000 78.862600
L56.245000 72.862600
" />
<path d="M57.195000 78.862600
L57.195000 81.522600
" />
<path d="M50.405000 72.862600
L50.405000 78.862600
" />
<path d="M51.165000 72.862600
L50.405000 72.862600
" />
<path d="M52.945000 72.862600
L52.945000 78.862600
" />
<path d="M53.705000 72.862600
L52.945000 72.862600
" />
<path d="M55.485000 72.862600
L55.485000 78.862600
" />
<path d="M56.245000 72.862600
L55.485000 72.862600
" />
</g>
<g style="fill:#000000; fill-opacity:0.0; 
stroke:#000000; stroke-width:0.100000; stroke-opacity:1; 
stroke-linecap:round; stroke-linejoin:round;">
<path d="M171.480000 63.505600
L171.480000 121.505600
" />
<path d="M167.730000 125.005600
L167.980000 125.005600
" />
</g>
<g style="fill:#000000; fill-opacity:0.0; 
stroke:#000000; stroke-width:0.120000; stroke-opacity:1; 
stroke-linecap:round; stroke-linejoin:round;">
<path d="M158.790000 123.020600
L158.790000 117.820600
" />
<path d="M157.885000 76.115600
L157.885000 81.255600
" />
<path d="M157.885000 73.515600
L157.885000 74.845600
" />
<path d="M156.555000 73.515600
L157.885000 73.515600
" />
<path d="M155.285000 76.115600
L157.885000 76.115600
" />
<path d="M155.285000 73.515600
L155.285000 76.115600
" />
<path d="M153.650000 120.420600
L153.650000 117.820600
" />
<path d="M153.650000 117.820600
L158.790000 117.820600
" />
<path d="M152.685000 81.255600
L157.885000 81.255600
" />
<path d="M152.685000 73.515600
L155.285000 73.515600
" />
<path d="M152.685000 73.515600
L152.685000 81.255600
" />
<path d="M151.050000 123.020600
L158.790000 123.020600
" />
<path d="M151.050000 123.020600
L151.050000 120.420600
" />
<path d="M151.050000 120.420600
L153.650000 120.420600
" />
<path d="M151.050000 119.150600
L151.050000 117.820600
" />
<path d="M151.050000 117.820600
L152.380000 117.820600
" />
<path d="M121.580000 69.645600
L121.580000 117.965600
" />
<path d="M121.580000 67.045600
L121.580000 68.375600
" />
<path d="M120.250000 67.045600
L121.580000 67.045600
" />
<path d="M118.980000 69.645600
L121.580000 69.645600
" />
<path d="M118.980000 67.045600
L118.980000 69.645600
" />
</g>
<g style="fill:#000000; fill-opacity:0.0; 
stroke:#000000; stroke-width:0.100000; stroke-opacity:1; 
stroke-linecap:round; stroke-linejoin:round;">
<path d="M118.980000 60.005600
L167.980000 60.005600
" />
<path d="M118.980000 60.005600
L118.480000 60.005243
" />
<path d="M118.230000 125.005600
L167.730000 125.005600
" />
</g>
<g style="fill:#000000; fill-opacity:0.0; 
stroke:#000000; stroke-width:0.120000; stroke-opacity:1; 
stroke-linecap:round; stroke-linejoin:round;">
<path d="M116.380000 117.965600
L121.580000 117.965600
" />
<path d="M116.380000 67.045600
L118.980000 67.045600
" />
<path d="M116.380000 67.045600
L116.380000 117.965600
" />
</g>
<g style="fill:#000000; fill-opacity:0.0; 
stroke:#000000; stroke-width:0.100000; stroke-opacity:1; 
stroke-linecap:round; stroke-linejoin:round;">
<path d="M114.980000 121.505600
L114.980000 63.555600
" />
<path d="M167.980000 125.005600 A3.499999 3.499999 0.0 0 0 171.480000 121.505600" />
<path d="M171.480000 63.505600 A3.499999 3.499999 0.0 0 0 167.980000 60.005600" />
<path d="M114.980000 121.505600 A3.500000 3.500000 0.0 0 0 118.480000 125.005600" />
<path d="M118.480000 60.005243 A3.500357 3.500357 0.0 0 0 114.980000 63.555600" />
<circle cx="167.980000" cy="121.505600" r="1.651000" /> 
<circle cx="167.980000" cy="63.505600" r="1.651000" /> 
<circle cx="118.980000" cy="121.505600" r="1.651000" /> 
<circle cx="118.980000" cy="63.505600" r="1.651000" /> 
</g>
<g style="fill:#000000; fill-opacity:0.0; 
stroke:#000000; stroke-width:0.120000; stroke-opacity:1; 
stroke-linecap:round; stroke-linejoin:round;">
<path d="M72.270000 52.850000
L72.270000 51.580000
" />
<path d="M72.270000 51.580000
L71.000000 51.580000
" />
<path d="M69.957071 58.310000
L69.502929 58.310000
" />
<path d="M69.957071 57.550000
L69.502929 57.550000
" />
<path d="M69.957071 55.770000
L69.502929 55.770000
" />
<path d="M69.957071 55.010000
L69.502929 55.010000
" />
<path d="M69.890000 53.230000
L69.502929 53.230000
" />
<path d="M69.890000 52.470000
L69.502929 52.470000
" />
<path d="M67.417071 58.310000
L67.020000 58.310000
" />
<path d="M67.417071 57.550000
L67.020000 57.550000
" />
<path d="M67.417071 55.770000
L67.020000 55.770000
" />
<path d="M67.417071 55.010000
L67.020000 55.010000
" />
<path d="M67.417071 53.230000
L67.020000 53.230000
" />
<path d="M67.417071 52.470000
L67.020000 52.470000
" />
<path d="M67.020000 59.260000
L64.360000 59.260000
" />
<path d="M67.020000 56.660000
L64.360000 56.660000
" />
<path d="M67.020000 54.120000
L64.360000 54.120000
" />
<path d="M67.020000 51.520000
L67.020000 59.260000
" />
<path d="M64.360000 59.260000
L64.360000 51.520000
" />
<path d="M64.360000 57.550000
L58.360000 57.550000
" />
<path d="M64.360000 55.010000
L58.360000 55.010000
" />
<path d="M64.360000 53.130000
L58.360000 53.130000
" />
<path d="M64.360000 53.010000
L58.360000 53.010000
" />
<path d="M64.360000 52.890000
L58.360000 52.890000
" />
<path d="M64.360000 52.770000
L58.360000 52.770000
" />
<path d="M64.360000 52.650000
L58.360000 52.650000
" />
<path d="M64.360000 52.530000
L58.360000 52.530000
" />
<path d="M64.360000 52.470000
L58.360000 52.470000
" />
<path d="M64.360000 51.520000
L67.020000 51.520000
" />
<path d="M58.360000 58.310000
L64.360000 58.310000
" />
<path d="M58.360000 57.550000
L58.360000 58.310000
" />
<path d="M58.360000 55.770000
L64.360000 55.770000
" />
<path d="M58.360000 55.010000
L58.360000 55.770000
" />
<path d="M58.360000 53.230000
L64.360000 53.230000
" />
<path d="M58.360000 52.470000
L58.360000 53.230000
" />
<g >
</g>
<g >
</g>
<g >
</g>
<g >
</g>
<g >
</g>
<g >
</g>
<g >
</g>
<g >
</g>
<g >
</g>
<g >
</g>
<g >
</g>
<g >
</g>
<g >
</g>
<g >
</g>
<g >
</g>
<g >
</g>
<g >
</g>
<g >
</g>
<g >
</g>
<g >
</g>
<g >
</g>
<g >
</g>
<g >
</g>
<g >
</g>
<g >
</g>
<g >
</g>
<g >
</g>
<g >
</g>
<g >
</g>
<g >
</g>
<g >
</g>
<g >
</g>
<g >
</g>
<g >
</g>
<g >
</g>
<g >
</g>
<g >
</g>
<g >
</g>
<g >
</g>
<g >
</g>
<g >
</g>
<g >
</g>
<g >
</g>
<g >
</g>
<g >
</g>
<g >
</g>
<g >
</g>
<g >
</g>
<g >
</g>
<g >
</g>
<g >
</g>
<g >
</g>
<g >
</g>
<g >
</g>
<g >
</g>
<g >
</g>
<g >
</g>
<g >
</g>
<g >
</g>
<g >
</g>
<g >
</g>
<g >
</g>
<g >
</g>
<g >
</g>
<g >
</g>
<g >
</g>
<g >
</g>
<g >
</g>
<g >
</g>
<g >
</g>
<g >
</g>
<g >
</g>
<g >
</g>
<g >
</g>
<g >
</g>
<g >
</g>
<g >
</g>
<g >
</g>
<g >
</g>
<g >
</g>
<g >
</g>
<g >
</g>
<g >
</g>
<g >
</g>
<g >
</g>
<g >
</g>
<g >
</g>
<g >
</g>
<g >
</g>
</g> 
</svg>
