<?xml version="1.0" standalone="no"?>
 <!DOCTYPE svg PUBLIC "-//W3C//DTD SVG 1.1//EN" 
 "http://www.w3.org/Graphics/SVG/1.1/DTD/svg11.dtd"> 
<svg
  xmlns:svg="http://www.w3.org/2000/svg"
  xmlns="http://www.w3.org/2000/svg"
  xmlns:xlink="http://www.w3.org/1999/xlink"
  version="1.1"
  width="17.21cm" height="10.71cm" viewBox="18.95 18.95 172.1 107.1">
<title>SVG Image created as pedalboard-hw-B_SilkS.svg date 2023/04/07 14:13:43 </title>
  <desc>Image generated by PCBNEW </desc>
<g style="fill:#000000; fill-opacity:1.000000;stroke:#000000; stroke-opacity:1.000000;
stroke-linecap:round; stroke-linejoin:round;"
 transform="translate(0 0) scale(1 1)">
</g>
<g style="fill:#000000; fill-opacity:0.0; 
stroke:#000000; stroke-width:0.000000; stroke-opacity:1; 
stroke-linecap:round; stroke-linejoin:round;">
</g>
<g style="fill:#000000; fill-opacity:0.0; 
stroke:#000000; stroke-width:0.150000; stroke-opacity:1; 
stroke-linecap:round; stroke-linejoin:round;">
<g transform="rotate(90.000000 55.321200 71.475600)">
<text x="55.321200" y="71.475600"
transform="scale(-1 1) translate(-110.642400 0)"
textLength="3.222619" font-size="1.333333" lengthAdjust="spacingAndGlyphs"
text-anchor="start" opacity="0">GND</text>
</g>
<g class="stroked-text"><desc>GND</desc>
<path d="M56.395961 70.713695
L56.443580 70.808933
" />
<path d="M56.443580 70.808933
L56.443580 70.951790
" />
<path d="M56.443580 70.951790
L56.395961 71.094647
" />
<path d="M56.395961 71.094647
L56.300723 71.189885
" />
<path d="M56.300723 71.189885
L56.205485 71.237504
" />
<path d="M56.205485 71.237504
L56.015009 71.285123
" />
<path d="M56.015009 71.285123
L55.872152 71.285123
" />
<path d="M55.872152 71.285123
L55.681676 71.237504
" />
<path d="M55.681676 71.237504
L55.586438 71.189885
" />
<path d="M55.586438 71.189885
L55.491200 71.094647
" />
<path d="M55.491200 71.094647
L55.443580 70.951790
" />
<path d="M55.443580 70.951790
L55.443580 70.856552
" />
<path d="M55.443580 70.856552
L55.491200 70.713695
" />
<path d="M55.491200 70.713695
L55.538819 70.666076
" />
<path d="M55.538819 70.666076
L55.872152 70.666076
" />
<path d="M55.872152 70.666076
L55.872152 70.856552
" />
<path d="M55.443580 70.237504
L56.443580 70.237504
" />
<path d="M56.443580 70.237504
L55.443580 69.666076
" />
<path d="M55.443580 69.666076
L56.443580 69.666076
" />
<path d="M55.443580 69.189885
L56.443580 69.189885
" />
<path d="M56.443580 69.189885
L56.443580 68.951790
" />
<path d="M56.443580 68.951790
L56.395961 68.808933
" />
<path d="M56.395961 68.808933
L56.300723 68.713695
" />
<path d="M56.300723 68.713695
L56.205485 68.666076
" />
<path d="M56.205485 68.666076
L56.015009 68.618457
" />
<path d="M56.015009 68.618457
L55.872152 68.618457
" />
<path d="M55.872152 68.618457
L55.681676 68.666076
" />
<path d="M55.681676 68.666076
L55.586438 68.713695
" />
<path d="M55.586438 68.713695
L55.491200 68.808933
" />
<path d="M55.491200 68.808933
L55.443580 68.951790
" />
<path d="M55.443580 68.951790
L55.443580 69.189885
" />
</g><g transform="rotate(90.000000 52.882800 71.374000)">
<text x="52.882800" y="71.374000"
transform="scale(-1 1) translate(-105.765600 0)"
textLength="6.698811" font-size="1.333333" lengthAdjust="spacingAndGlyphs"
text-anchor="start" opacity="0">Data out</text>
</g>
<g class="stroked-text"><desc>Data out</desc>
<path d="M53.005180 71.135904
L54.005180 71.135904
" />
<path d="M54.005180 71.135904
L54.005180 70.897809
" />
<path d="M54.005180 70.897809
L53.957561 70.754952
" />
<path d="M53.957561 70.754952
L53.862323 70.659714
" />
<path d="M53.862323 70.659714
L53.767085 70.612095
" />
<path d="M53.767085 70.612095
L53.576609 70.564476
" />
<path d="M53.576609 70.564476
L53.433752 70.564476
" />
<path d="M53.433752 70.564476
L53.243276 70.612095
" />
<path d="M53.243276 70.612095
L53.148038 70.659714
" />
<path d="M53.148038 70.659714
L53.052800 70.754952
" />
<path d="M53.052800 70.754952
L53.005180 70.897809
" />
<path d="M53.005180 70.897809
L53.005180 71.135904
" />
<path d="M53.005180 69.707333
L53.528990 69.707333
" />
<path d="M53.528990 69.707333
L53.624228 69.754952
" />
<path d="M53.624228 69.754952
L53.671847 69.850190
" />
<path d="M53.671847 69.850190
L53.671847 70.040666
" />
<path d="M53.671847 70.040666
L53.624228 70.135904
" />
<path d="M53.052800 69.707333
L53.005180 69.802571
" />
<path d="M53.005180 69.802571
L53.005180 70.040666
" />
<path d="M53.005180 70.040666
L53.052800 70.135904
" />
<path d="M53.052800 70.135904
L53.148038 70.183523
" />
<path d="M53.148038 70.183523
L53.243276 70.183523
" />
<path d="M53.243276 70.183523
L53.338514 70.135904
" />
<path d="M53.338514 70.135904
L53.386133 70.040666
" />
<path d="M53.386133 70.040666
L53.386133 69.802571
" />
<path d="M53.386133 69.802571
L53.433752 69.707333
" />
<path d="M53.671847 69.373999
L53.671847 68.993047
" />
<path d="M54.005180 69.231142
L53.148038 69.231142
" />
<path d="M53.148038 69.231142
L53.052800 69.183523
" />
<path d="M53.052800 69.183523
L53.005180 69.088285
" />
<path d="M53.005180 69.088285
L53.005180 68.993047
" />
<path d="M53.005180 68.231142
L53.528990 68.231142
" />
<path d="M53.528990 68.231142
L53.624228 68.278761
" />
<path d="M53.624228 68.278761
L53.671847 68.373999
" />
<path d="M53.671847 68.373999
L53.671847 68.564475
" />
<path d="M53.671847 68.564475
L53.624228 68.659713
" />
<path d="M53.052800 68.231142
L53.005180 68.326380
" />
<path d="M53.005180 68.326380
L53.005180 68.564475
" />
<path d="M53.005180 68.564475
L53.052800 68.659713
" />
<path d="M53.052800 68.659713
L53.148038 68.707332
" />
<path d="M53.148038 68.707332
L53.243276 68.707332
" />
<path d="M53.243276 68.707332
L53.338514 68.659713
" />
<path d="M53.338514 68.659713
L53.386133 68.564475
" />
<path d="M53.386133 68.564475
L53.386133 68.326380
" />
<path d="M53.386133 68.326380
L53.433752 68.231142
" />
<path d="M53.005180 66.850189
L53.052800 66.945427
" />
<path d="M53.052800 66.945427
L53.100419 66.993046
" />
<path d="M53.100419 66.993046
L53.195657 67.040665
" />
<path d="M53.195657 67.040665
L53.481371 67.040665
" />
<path d="M53.481371 67.040665
L53.576609 66.993046
" />
<path d="M53.576609 66.993046
L53.624228 66.945427
" />
<path d="M53.624228 66.945427
L53.671847 66.850189
" />
<path d="M53.671847 66.850189
L53.671847 66.707332
" />
<path d="M53.671847 66.707332
L53.624228 66.612094
" />
<path d="M53.624228 66.612094
L53.576609 66.564475
" />
<path d="M53.576609 66.564475
L53.481371 66.516856
" />
<path d="M53.481371 66.516856
L53.195657 66.516856
" />
<path d="M53.195657 66.516856
L53.100419 66.564475
" />
<path d="M53.100419 66.564475
L53.052800 66.612094
" />
<path d="M53.052800 66.612094
L53.005180 66.707332
" />
<path d="M53.005180 66.707332
L53.005180 66.850189
" />
<path d="M53.671847 65.659713
L53.005180 65.659713
" />
<path d="M53.671847 66.088284
L53.148038 66.088284
" />
<path d="M53.148038 66.088284
L53.052800 66.040665
" />
<path d="M53.052800 66.040665
L53.005180 65.945427
" />
<path d="M53.005180 65.945427
L53.005180 65.802570
" />
<path d="M53.005180 65.802570
L53.052800 65.707332
" />
<path d="M53.052800 65.707332
L53.100419 65.659713
" />
<path d="M53.671847 65.326379
L53.671847 64.945427
" />
<path d="M54.005180 65.183522
L53.148038 65.183522
" />
<path d="M53.148038 65.183522
L53.052800 65.135903
" />
<path d="M53.052800 65.135903
L53.005180 65.040665
" />
<path d="M53.005180 65.040665
L53.005180 64.945427
" />
</g><g transform="rotate(-90.000000 71.932800 49.733200)">
<text x="71.932800" y="49.733200"
transform="scale(-1 1) translate(-143.865600 0)"
textLength="1.698809" font-size="1.333333" lengthAdjust="spacingAndGlyphs"
text-anchor="start" opacity="0">IN</text>
</g>
<g class="stroked-text"><desc>IN</desc>
<path d="M71.810419 49.971295
L70.810419 49.971295
" />
<path d="M71.810419 50.447485
L70.810419 50.447485
" />
<path d="M70.810419 50.447485
L71.810419 51.018913
" />
<path d="M71.810419 51.018913
L70.810419 51.018913
" />
</g><g transform="rotate(-90.000000 189.230000 36.576000)">
<text x="189.230000" y="36.576000"
transform="scale(-1 1) translate(-378.460000 0)"
textLength="3.222619" font-size="1.333333" lengthAdjust="spacingAndGlyphs"
text-anchor="start" opacity="0">GND</text>
</g>
<g class="stroked-text"><desc>GND</desc>
<path d="M188.155238 37.337904
L188.107619 37.242666
" />
<path d="M188.107619 37.242666
L188.107619 37.099809
" />
<path d="M188.107619 37.099809
L188.155238 36.956952
" />
<path d="M188.155238 36.956952
L188.250476 36.861714
" />
<path d="M188.250476 36.861714
L188.345714 36.814095
" />
<path d="M188.345714 36.814095
L188.536190 36.766476
" />
<path d="M188.536190 36.766476
L188.679047 36.766476
" />
<path d="M188.679047 36.766476
L188.869523 36.814095
" />
<path d="M188.869523 36.814095
L188.964761 36.861714
" />
<path d="M188.964761 36.861714
L189.060000 36.956952
" />
<path d="M189.060000 36.956952
L189.107619 37.099809
" />
<path d="M189.107619 37.099809
L189.107619 37.195047
" />
<path d="M189.107619 37.195047
L189.060000 37.337904
" />
<path d="M189.060000 37.337904
L189.012380 37.385523
" />
<path d="M189.012380 37.385523
L188.679047 37.385523
" />
<path d="M188.679047 37.385523
L188.679047 37.195047
" />
<path d="M189.107619 37.814095
L188.107619 37.814095
" />
<path d="M188.107619 37.814095
L189.107619 38.385523
" />
<path d="M189.107619 38.385523
L188.107619 38.385523
" />
<path d="M189.107619 38.861714
L188.107619 38.861714
" />
<path d="M188.107619 38.861714
L188.107619 39.099809
" />
<path d="M188.107619 39.099809
L188.155238 39.242666
" />
<path d="M188.155238 39.242666
L188.250476 39.337904
" />
<path d="M188.250476 39.337904
L188.345714 39.385523
" />
<path d="M188.345714 39.385523
L188.536190 39.433142
" />
<path d="M188.536190 39.433142
L188.679047 39.433142
" />
<path d="M188.679047 39.433142
L188.869523 39.385523
" />
<path d="M188.869523 39.385523
L188.964761 39.337904
" />
<path d="M188.964761 39.337904
L189.060000 39.242666
" />
<path d="M189.060000 39.242666
L189.107619 39.099809
" />
<path d="M189.107619 39.099809
L189.107619 38.861714
" />
</g><text x="145.034000" y="54.305200"
transform="scale(-1 1) translate(-290.068000 0)"
textLength="5.222619" font-size="1.333333" lengthAdjust="spacingAndGlyphs"
text-anchor="start" opacity="0">RPI 5V</text>
<g class="stroked-text"><desc>RPI 5V</desc>
<path d="M144.224476 54.182819
L144.557809 53.706628
" />
<path d="M144.795904 54.182819
L144.795904 53.182819
" />
<path d="M144.795904 53.182819
L144.414952 53.182819
" />
<path d="M144.414952 53.182819
L144.319714 53.230438
" />
<path d="M144.319714 53.230438
L144.272095 53.278057
" />
<path d="M144.272095 53.278057
L144.224476 53.373295
" />
<path d="M144.224476 53.373295
L144.224476 53.516152
" />
<path d="M144.224476 53.516152
L144.272095 53.611390
" />
<path d="M144.272095 53.611390
L144.319714 53.659009
" />
<path d="M144.319714 53.659009
L144.414952 53.706628
" />
<path d="M144.414952 53.706628
L144.795904 53.706628
" />
<path d="M143.795904 54.182819
L143.795904 53.182819
" />
<path d="M143.795904 53.182819
L143.414952 53.182819
" />
<path d="M143.414952 53.182819
L143.319714 53.230438
" />
<path d="M143.319714 53.230438
L143.272095 53.278057
" />
<path d="M143.272095 53.278057
L143.224476 53.373295
" />
<path d="M143.224476 53.373295
L143.224476 53.516152
" />
<path d="M143.224476 53.516152
L143.272095 53.611390
" />
<path d="M143.272095 53.611390
L143.319714 53.659009
" />
<path d="M143.319714 53.659009
L143.414952 53.706628
" />
<path d="M143.414952 53.706628
L143.795904 53.706628
" />
<path d="M142.795904 54.182819
L142.795904 53.182819
" />
<path d="M141.081619 53.182819
L141.557809 53.182819
" />
<path d="M141.557809 53.182819
L141.605428 53.659009
" />
<path d="M141.605428 53.659009
L141.557809 53.611390
" />
<path d="M141.557809 53.611390
L141.462571 53.563771
" />
<path d="M141.462571 53.563771
L141.224476 53.563771
" />
<path d="M141.224476 53.563771
L141.129238 53.611390
" />
<path d="M141.129238 53.611390
L141.081619 53.659009
" />
<path d="M141.081619 53.659009
L141.034000 53.754247
" />
<path d="M141.034000 53.754247
L141.034000 53.992342
" />
<path d="M141.034000 53.992342
L141.081619 54.087580
" />
<path d="M141.081619 54.087580
L141.129238 54.135200
" />
<path d="M141.129238 54.135200
L141.224476 54.182819
" />
<path d="M141.224476 54.182819
L141.462571 54.182819
" />
<path d="M141.462571 54.182819
L141.557809 54.135200
" />
<path d="M141.557809 54.135200
L141.605428 54.087580
" />
<path d="M140.748285 53.182819
L140.414952 54.182819
" />
<path d="M140.414952 54.182819
L140.081619 53.182819
" />
</g><text x="112.826800" y="73.315600"
transform="scale(-1 1) translate(-225.653600 0)"
textLength="13.079764" font-size="1.333333" lengthAdjust="spacingAndGlyphs"
text-anchor="start" opacity="0">Open Pedalboard</text>
<g class="stroked-text"><desc>Open Pedalboard</desc>
<path d="M112.398228 72.193219
L112.207752 72.193219
" />
<path d="M112.207752 72.193219
L112.112514 72.240838
" />
<path d="M112.112514 72.240838
L112.017276 72.336076
" />
<path d="M112.017276 72.336076
L111.969657 72.526552
" />
<path d="M111.969657 72.526552
L111.969657 72.859885
" />
<path d="M111.969657 72.859885
L112.017276 73.050361
" />
<path d="M112.017276 73.050361
L112.112514 73.145600
" />
<path d="M112.112514 73.145600
L112.207752 73.193219
" />
<path d="M112.207752 73.193219
L112.398228 73.193219
" />
<path d="M112.398228 73.193219
L112.493466 73.145600
" />
<path d="M112.493466 73.145600
L112.588704 73.050361
" />
<path d="M112.588704 73.050361
L112.636323 72.859885
" />
<path d="M112.636323 72.859885
L112.636323 72.526552
" />
<path d="M112.636323 72.526552
L112.588704 72.336076
" />
<path d="M112.588704 72.336076
L112.493466 72.240838
" />
<path d="M112.493466 72.240838
L112.398228 72.193219
" />
<path d="M111.541085 72.526552
L111.541085 73.526552
" />
<path d="M111.541085 72.574171
L111.445847 72.526552
" />
<path d="M111.445847 72.526552
L111.255371 72.526552
" />
<path d="M111.255371 72.526552
L111.160133 72.574171
" />
<path d="M111.160133 72.574171
L111.112514 72.621790
" />
<path d="M111.112514 72.621790
L111.064895 72.717028
" />
<path d="M111.064895 72.717028
L111.064895 73.002742
" />
<path d="M111.064895 73.002742
L111.112514 73.097980
" />
<path d="M111.112514 73.097980
L111.160133 73.145600
" />
<path d="M111.160133 73.145600
L111.255371 73.193219
" />
<path d="M111.255371 73.193219
L111.445847 73.193219
" />
<path d="M111.445847 73.193219
L111.541085 73.145600
" />
<path d="M110.255371 73.145600
L110.350609 73.193219
" />
<path d="M110.350609 73.193219
L110.541085 73.193219
" />
<path d="M110.541085 73.193219
L110.636323 73.145600
" />
<path d="M110.636323 73.145600
L110.683942 73.050361
" />
<path d="M110.683942 73.050361
L110.683942 72.669409
" />
<path d="M110.683942 72.669409
L110.636323 72.574171
" />
<path d="M110.636323 72.574171
L110.541085 72.526552
" />
<path d="M110.541085 72.526552
L110.350609 72.526552
" />
<path d="M110.350609 72.526552
L110.255371 72.574171
" />
<path d="M110.255371 72.574171
L110.207752 72.669409
" />
<path d="M110.207752 72.669409
L110.207752 72.764647
" />
<path d="M110.207752 72.764647
L110.683942 72.859885
" />
<path d="M109.779180 72.526552
L109.779180 73.193219
" />
<path d="M109.779180 72.621790
L109.731561 72.574171
" />
<path d="M109.731561 72.574171
L109.636323 72.526552
" />
<path d="M109.636323 72.526552
L109.493466 72.526552
" />
<path d="M109.493466 72.526552
L109.398228 72.574171
" />
<path d="M109.398228 72.574171
L109.350609 72.669409
" />
<path d="M109.350609 72.669409
L109.350609 73.193219
" />
<path d="M108.112513 73.193219
L108.112513 72.193219
" />
<path d="M108.112513 72.193219
L107.731561 72.193219
" />
<path d="M107.731561 72.193219
L107.636323 72.240838
" />
<path d="M107.636323 72.240838
L107.588704 72.288457
" />
<path d="M107.588704 72.288457
L107.541085 72.383695
" />
<path d="M107.541085 72.383695
L107.541085 72.526552
" />
<path d="M107.541085 72.526552
L107.588704 72.621790
" />
<path d="M107.588704 72.621790
L107.636323 72.669409
" />
<path d="M107.636323 72.669409
L107.731561 72.717028
" />
<path d="M107.731561 72.717028
L108.112513 72.717028
" />
<path d="M106.731561 73.145600
L106.826799 73.193219
" />
<path d="M106.826799 73.193219
L107.017275 73.193219
" />
<path d="M107.017275 73.193219
L107.112513 73.145600
" />
<path d="M107.112513 73.145600
L107.160132 73.050361
" />
<path d="M107.160132 73.050361
L107.160132 72.669409
" />
<path d="M107.160132 72.669409
L107.112513 72.574171
" />
<path d="M107.112513 72.574171
L107.017275 72.526552
" />
<path d="M107.017275 72.526552
L106.826799 72.526552
" />
<path d="M106.826799 72.526552
L106.731561 72.574171
" />
<path d="M106.731561 72.574171
L106.683942 72.669409
" />
<path d="M106.683942 72.669409
L106.683942 72.764647
" />
<path d="M106.683942 72.764647
L107.160132 72.859885
" />
<path d="M105.826799 73.193219
L105.826799 72.193219
" />
<path d="M105.826799 73.145600
L105.922037 73.193219
" />
<path d="M105.922037 73.193219
L106.112513 73.193219
" />
<path d="M106.112513 73.193219
L106.207751 73.145600
" />
<path d="M106.207751 73.145600
L106.255370 73.097980
" />
<path d="M106.255370 73.097980
L106.302989 73.002742
" />
<path d="M106.302989 73.002742
L106.302989 72.717028
" />
<path d="M106.302989 72.717028
L106.255370 72.621790
" />
<path d="M106.255370 72.621790
L106.207751 72.574171
" />
<path d="M106.207751 72.574171
L106.112513 72.526552
" />
<path d="M106.112513 72.526552
L105.922037 72.526552
" />
<path d="M105.922037 72.526552
L105.826799 72.574171
" />
<path d="M104.922037 73.193219
L104.922037 72.669409
" />
<path d="M104.922037 72.669409
L104.969656 72.574171
" />
<path d="M104.969656 72.574171
L105.064894 72.526552
" />
<path d="M105.064894 72.526552
L105.255370 72.526552
" />
<path d="M105.255370 72.526552
L105.350608 72.574171
" />
<path d="M104.922037 73.145600
L105.017275 73.193219
" />
<path d="M105.017275 73.193219
L105.255370 73.193219
" />
<path d="M105.255370 73.193219
L105.350608 73.145600
" />
<path d="M105.350608 73.145600
L105.398227 73.050361
" />
<path d="M105.398227 73.050361
L105.398227 72.955123
" />
<path d="M105.398227 72.955123
L105.350608 72.859885
" />
<path d="M105.350608 72.859885
L105.255370 72.812266
" />
<path d="M105.255370 72.812266
L105.017275 72.812266
" />
<path d="M105.017275 72.812266
L104.922037 72.764647
" />
<path d="M104.302989 73.193219
L104.398227 73.145600
" />
<path d="M104.398227 73.145600
L104.445846 73.050361
" />
<path d="M104.445846 73.050361
L104.445846 72.193219
" />
<path d="M103.922036 73.193219
L103.922036 72.193219
" />
<path d="M103.922036 72.574171
L103.826798 72.526552
" />
<path d="M103.826798 72.526552
L103.636322 72.526552
" />
<path d="M103.636322 72.526552
L103.541084 72.574171
" />
<path d="M103.541084 72.574171
L103.493465 72.621790
" />
<path d="M103.493465 72.621790
L103.445846 72.717028
" />
<path d="M103.445846 72.717028
L103.445846 73.002742
" />
<path d="M103.445846 73.002742
L103.493465 73.097980
" />
<path d="M103.493465 73.097980
L103.541084 73.145600
" />
<path d="M103.541084 73.145600
L103.636322 73.193219
" />
<path d="M103.636322 73.193219
L103.826798 73.193219
" />
<path d="M103.826798 73.193219
L103.922036 73.145600
" />
<path d="M102.874417 73.193219
L102.969655 73.145600
" />
<path d="M102.969655 73.145600
L103.017274 73.097980
" />
<path d="M103.017274 73.097980
L103.064893 73.002742
" />
<path d="M103.064893 73.002742
L103.064893 72.717028
" />
<path d="M103.064893 72.717028
L103.017274 72.621790
" />
<path d="M103.017274 72.621790
L102.969655 72.574171
" />
<path d="M102.969655 72.574171
L102.874417 72.526552
" />
<path d="M102.874417 72.526552
L102.731560 72.526552
" />
<path d="M102.731560 72.526552
L102.636322 72.574171
" />
<path d="M102.636322 72.574171
L102.588703 72.621790
" />
<path d="M102.588703 72.621790
L102.541084 72.717028
" />
<path d="M102.541084 72.717028
L102.541084 73.002742
" />
<path d="M102.541084 73.002742
L102.588703 73.097980
" />
<path d="M102.588703 73.097980
L102.636322 73.145600
" />
<path d="M102.636322 73.145600
L102.731560 73.193219
" />
<path d="M102.731560 73.193219
L102.874417 73.193219
" />
<path d="M101.683941 73.193219
L101.683941 72.669409
" />
<path d="M101.683941 72.669409
L101.731560 72.574171
" />
<path d="M101.731560 72.574171
L101.826798 72.526552
" />
<path d="M101.826798 72.526552
L102.017274 72.526552
" />
<path d="M102.017274 72.526552
L102.112512 72.574171
" />
<path d="M101.683941 73.145600
L101.779179 73.193219
" />
<path d="M101.779179 73.193219
L102.017274 73.193219
" />
<path d="M102.017274 73.193219
L102.112512 73.145600
" />
<path d="M102.112512 73.145600
L102.160131 73.050361
" />
<path d="M102.160131 73.050361
L102.160131 72.955123
" />
<path d="M102.160131 72.955123
L102.112512 72.859885
" />
<path d="M102.112512 72.859885
L102.017274 72.812266
" />
<path d="M102.017274 72.812266
L101.779179 72.812266
" />
<path d="M101.779179 72.812266
L101.683941 72.764647
" />
<path d="M101.207750 73.193219
L101.207750 72.526552
" />
<path d="M101.207750 72.717028
L101.160131 72.621790
" />
<path d="M101.160131 72.621790
L101.112512 72.574171
" />
<path d="M101.112512 72.574171
L101.017274 72.526552
" />
<path d="M101.017274 72.526552
L100.922036 72.526552
" />
<path d="M100.160131 73.193219
L100.160131 72.193219
" />
<path d="M100.160131 73.145600
L100.255369 73.193219
" />
<path d="M100.255369 73.193219
L100.445845 73.193219
" />
<path d="M100.445845 73.193219
L100.541083 73.145600
" />
<path d="M100.541083 73.145600
L100.588702 73.097980
" />
<path d="M100.588702 73.097980
L100.636321 73.002742
" />
<path d="M100.636321 73.002742
L100.636321 72.717028
" />
<path d="M100.636321 72.717028
L100.588702 72.621790
" />
<path d="M100.588702 72.621790
L100.541083 72.574171
" />
<path d="M100.541083 72.574171
L100.445845 72.526552
" />
<path d="M100.445845 72.526552
L100.255369 72.526552
" />
<path d="M100.255369 72.526552
L100.160131 72.574171
" />
</g><text x="112.826800" y="74.935600"
transform="scale(-1 1) translate(-225.653600 0)"
textLength="24.127383" font-size="1.333333" lengthAdjust="spacingAndGlyphs"
text-anchor="start" opacity="0">https://github.com/pedalboard</text>
<g class="stroked-text"><desc>https://github.com/pedalboard</desc>
<path d="M112.588704 74.813219
L112.588704 73.813219
" />
<path d="M112.160133 74.813219
L112.160133 74.289409
" />
<path d="M112.160133 74.289409
L112.207752 74.194171
" />
<path d="M112.207752 74.194171
L112.302990 74.146552
" />
<path d="M112.302990 74.146552
L112.445847 74.146552
" />
<path d="M112.445847 74.146552
L112.541085 74.194171
" />
<path d="M112.541085 74.194171
L112.588704 74.241790
" />
<path d="M111.826799 74.146552
L111.445847 74.146552
" />
<path d="M111.683942 73.813219
L111.683942 74.670361
" />
<path d="M111.683942 74.670361
L111.636323 74.765600
" />
<path d="M111.636323 74.765600
L111.541085 74.813219
" />
<path d="M111.541085 74.813219
L111.445847 74.813219
" />
<path d="M111.255370 74.146552
L110.874418 74.146552
" />
<path d="M111.112513 73.813219
L111.112513 74.670361
" />
<path d="M111.112513 74.670361
L111.064894 74.765600
" />
<path d="M111.064894 74.765600
L110.969656 74.813219
" />
<path d="M110.969656 74.813219
L110.874418 74.813219
" />
<path d="M110.541084 74.146552
L110.541084 75.146552
" />
<path d="M110.541084 74.194171
L110.445846 74.146552
" />
<path d="M110.445846 74.146552
L110.255370 74.146552
" />
<path d="M110.255370 74.146552
L110.160132 74.194171
" />
<path d="M110.160132 74.194171
L110.112513 74.241790
" />
<path d="M110.112513 74.241790
L110.064894 74.337028
" />
<path d="M110.064894 74.337028
L110.064894 74.622742
" />
<path d="M110.064894 74.622742
L110.112513 74.717980
" />
<path d="M110.112513 74.717980
L110.160132 74.765600
" />
<path d="M110.160132 74.765600
L110.255370 74.813219
" />
<path d="M110.255370 74.813219
L110.445846 74.813219
" />
<path d="M110.445846 74.813219
L110.541084 74.765600
" />
<path d="M109.683941 74.765600
L109.588703 74.813219
" />
<path d="M109.588703 74.813219
L109.398227 74.813219
" />
<path d="M109.398227 74.813219
L109.302989 74.765600
" />
<path d="M109.302989 74.765600
L109.255370 74.670361
" />
<path d="M109.255370 74.670361
L109.255370 74.622742
" />
<path d="M109.255370 74.622742
L109.302989 74.527504
" />
<path d="M109.302989 74.527504
L109.398227 74.479885
" />
<path d="M109.398227 74.479885
L109.541084 74.479885
" />
<path d="M109.541084 74.479885
L109.636322 74.432266
" />
<path d="M109.636322 74.432266
L109.683941 74.337028
" />
<path d="M109.683941 74.337028
L109.683941 74.289409
" />
<path d="M109.683941 74.289409
L109.636322 74.194171
" />
<path d="M109.636322 74.194171
L109.541084 74.146552
" />
<path d="M109.541084 74.146552
L109.398227 74.146552
" />
<path d="M109.398227 74.146552
L109.302989 74.194171
" />
<path d="M108.826798 74.717980
L108.779179 74.765600
" />
<path d="M108.779179 74.765600
L108.826798 74.813219
" />
<path d="M108.826798 74.813219
L108.874417 74.765600
" />
<path d="M108.874417 74.765600
L108.826798 74.717980
" />
<path d="M108.826798 74.717980
L108.826798 74.813219
" />
<path d="M108.826798 74.194171
L108.779179 74.241790
" />
<path d="M108.779179 74.241790
L108.826798 74.289409
" />
<path d="M108.826798 74.289409
L108.874417 74.241790
" />
<path d="M108.874417 74.241790
L108.826798 74.194171
" />
<path d="M108.826798 74.194171
L108.826798 74.289409
" />
<path d="M107.636323 73.765600
L108.493465 75.051314
" />
<path d="M106.588704 73.765600
L107.445846 75.051314
" />
<path d="M105.826799 74.146552
L105.826799 74.956076
" />
<path d="M105.826799 74.956076
L105.874418 75.051314
" />
<path d="M105.874418 75.051314
L105.922037 75.098933
" />
<path d="M105.922037 75.098933
L106.017275 75.146552
" />
<path d="M106.017275 75.146552
L106.160132 75.146552
" />
<path d="M106.160132 75.146552
L106.255370 75.098933
" />
<path d="M105.826799 74.765600
L105.922037 74.813219
" />
<path d="M105.922037 74.813219
L106.112513 74.813219
" />
<path d="M106.112513 74.813219
L106.207751 74.765600
" />
<path d="M106.207751 74.765600
L106.255370 74.717980
" />
<path d="M106.255370 74.717980
L106.302989 74.622742
" />
<path d="M106.302989 74.622742
L106.302989 74.337028
" />
<path d="M106.302989 74.337028
L106.255370 74.241790
" />
<path d="M106.255370 74.241790
L106.207751 74.194171
" />
<path d="M106.207751 74.194171
L106.112513 74.146552
" />
<path d="M106.112513 74.146552
L105.922037 74.146552
" />
<path d="M105.922037 74.146552
L105.826799 74.194171
" />
<path d="M105.350608 74.813219
L105.350608 74.146552
" />
<path d="M105.350608 73.813219
L105.398227 73.860838
" />
<path d="M105.398227 73.860838
L105.350608 73.908457
" />
<path d="M105.350608 73.908457
L105.302989 73.860838
" />
<path d="M105.302989 73.860838
L105.350608 73.813219
" />
<path d="M105.350608 73.813219
L105.350608 73.908457
" />
<path d="M105.017275 74.146552
L104.636323 74.146552
" />
<path d="M104.874418 73.813219
L104.874418 74.670361
" />
<path d="M104.874418 74.670361
L104.826799 74.765600
" />
<path d="M104.826799 74.765600
L104.731561 74.813219
" />
<path d="M104.731561 74.813219
L104.636323 74.813219
" />
<path d="M104.302989 74.813219
L104.302989 73.813219
" />
<path d="M103.874418 74.813219
L103.874418 74.289409
" />
<path d="M103.874418 74.289409
L103.922037 74.194171
" />
<path d="M103.922037 74.194171
L104.017275 74.146552
" />
<path d="M104.017275 74.146552
L104.160132 74.146552
" />
<path d="M104.160132 74.146552
L104.255370 74.194171
" />
<path d="M104.255370 74.194171
L104.302989 74.241790
" />
<path d="M102.969656 74.146552
L102.969656 74.813219
" />
<path d="M103.398227 74.146552
L103.398227 74.670361
" />
<path d="M103.398227 74.670361
L103.350608 74.765600
" />
<path d="M103.350608 74.765600
L103.255370 74.813219
" />
<path d="M103.255370 74.813219
L103.112513 74.813219
" />
<path d="M103.112513 74.813219
L103.017275 74.765600
" />
<path d="M103.017275 74.765600
L102.969656 74.717980
" />
<path d="M102.493465 74.813219
L102.493465 73.813219
" />
<path d="M102.493465 74.194171
L102.398227 74.146552
" />
<path d="M102.398227 74.146552
L102.207751 74.146552
" />
<path d="M102.207751 74.146552
L102.112513 74.194171
" />
<path d="M102.112513 74.194171
L102.064894 74.241790
" />
<path d="M102.064894 74.241790
L102.017275 74.337028
" />
<path d="M102.017275 74.337028
L102.017275 74.622742
" />
<path d="M102.017275 74.622742
L102.064894 74.717980
" />
<path d="M102.064894 74.717980
L102.112513 74.765600
" />
<path d="M102.112513 74.765600
L102.207751 74.813219
" />
<path d="M102.207751 74.813219
L102.398227 74.813219
" />
<path d="M102.398227 74.813219
L102.493465 74.765600
" />
<path d="M101.588703 74.717980
L101.541084 74.765600
" />
<path d="M101.541084 74.765600
L101.588703 74.813219
" />
<path d="M101.588703 74.813219
L101.636322 74.765600
" />
<path d="M101.636322 74.765600
L101.588703 74.717980
" />
<path d="M101.588703 74.717980
L101.588703 74.813219
" />
<path d="M100.683942 74.765600
L100.779180 74.813219
" />
<path d="M100.779180 74.813219
L100.969656 74.813219
" />
<path d="M100.969656 74.813219
L101.064894 74.765600
" />
<path d="M101.064894 74.765600
L101.112513 74.717980
" />
<path d="M101.112513 74.717980
L101.160132 74.622742
" />
<path d="M101.160132 74.622742
L101.160132 74.337028
" />
<path d="M101.160132 74.337028
L101.112513 74.241790
" />
<path d="M101.112513 74.241790
L101.064894 74.194171
" />
<path d="M101.064894 74.194171
L100.969656 74.146552
" />
<path d="M100.969656 74.146552
L100.779180 74.146552
" />
<path d="M100.779180 74.146552
L100.683942 74.194171
" />
<path d="M100.112513 74.813219
L100.207751 74.765600
" />
<path d="M100.207751 74.765600
L100.255370 74.717980
" />
<path d="M100.255370 74.717980
L100.302989 74.622742
" />
<path d="M100.302989 74.622742
L100.302989 74.337028
" />
<path d="M100.302989 74.337028
L100.255370 74.241790
" />
<path d="M100.255370 74.241790
L100.207751 74.194171
" />
<path d="M100.207751 74.194171
L100.112513 74.146552
" />
<path d="M100.112513 74.146552
L99.969656 74.146552
" />
<path d="M99.969656 74.146552
L99.874418 74.194171
" />
<path d="M99.874418 74.194171
L99.826799 74.241790
" />
<path d="M99.826799 74.241790
L99.779180 74.337028
" />
<path d="M99.779180 74.337028
L99.779180 74.622742
" />
<path d="M99.779180 74.622742
L99.826799 74.717980
" />
<path d="M99.826799 74.717980
L99.874418 74.765600
" />
<path d="M99.874418 74.765600
L99.969656 74.813219
" />
<path d="M99.969656 74.813219
L100.112513 74.813219
" />
<path d="M99.350608 74.813219
L99.350608 74.146552
" />
<path d="M99.350608 74.241790
L99.302989 74.194171
" />
<path d="M99.302989 74.194171
L99.207751 74.146552
" />
<path d="M99.207751 74.146552
L99.064894 74.146552
" />
<path d="M99.064894 74.146552
L98.969656 74.194171
" />
<path d="M98.969656 74.194171
L98.922037 74.289409
" />
<path d="M98.922037 74.289409
L98.922037 74.813219
" />
<path d="M98.922037 74.289409
L98.874418 74.194171
" />
<path d="M98.874418 74.194171
L98.779180 74.146552
" />
<path d="M98.779180 74.146552
L98.636323 74.146552
" />
<path d="M98.636323 74.146552
L98.541084 74.194171
" />
<path d="M98.541084 74.194171
L98.493465 74.289409
" />
<path d="M98.493465 74.289409
L98.493465 74.813219
" />
<path d="M97.302990 73.765600
L98.160132 75.051314
" />
<path d="M96.969656 74.146552
L96.969656 75.146552
" />
<path d="M96.969656 74.194171
L96.874418 74.146552
" />
<path d="M96.874418 74.146552
L96.683942 74.146552
" />
<path d="M96.683942 74.146552
L96.588704 74.194171
" />
<path d="M96.588704 74.194171
L96.541085 74.241790
" />
<path d="M96.541085 74.241790
L96.493466 74.337028
" />
<path d="M96.493466 74.337028
L96.493466 74.622742
" />
<path d="M96.493466 74.622742
L96.541085 74.717980
" />
<path d="M96.541085 74.717980
L96.588704 74.765600
" />
<path d="M96.588704 74.765600
L96.683942 74.813219
" />
<path d="M96.683942 74.813219
L96.874418 74.813219
" />
<path d="M96.874418 74.813219
L96.969656 74.765600
" />
<path d="M95.683942 74.765600
L95.779180 74.813219
" />
<path d="M95.779180 74.813219
L95.969656 74.813219
" />
<path d="M95.969656 74.813219
L96.064894 74.765600
" />
<path d="M96.064894 74.765600
L96.112513 74.670361
" />
<path d="M96.112513 74.670361
L96.112513 74.289409
" />
<path d="M96.112513 74.289409
L96.064894 74.194171
" />
<path d="M96.064894 74.194171
L95.969656 74.146552
" />
<path d="M95.969656 74.146552
L95.779180 74.146552
" />
<path d="M95.779180 74.146552
L95.683942 74.194171
" />
<path d="M95.683942 74.194171
L95.636323 74.289409
" />
<path d="M95.636323 74.289409
L95.636323 74.384647
" />
<path d="M95.636323 74.384647
L96.112513 74.479885
" />
<path d="M94.779180 74.813219
L94.779180 73.813219
" />
<path d="M94.779180 74.765600
L94.874418 74.813219
" />
<path d="M94.874418 74.813219
L95.064894 74.813219
" />
<path d="M95.064894 74.813219
L95.160132 74.765600
" />
<path d="M95.160132 74.765600
L95.207751 74.717980
" />
<path d="M95.207751 74.717980
L95.255370 74.622742
" />
<path d="M95.255370 74.622742
L95.255370 74.337028
" />
<path d="M95.255370 74.337028
L95.207751 74.241790
" />
<path d="M95.207751 74.241790
L95.160132 74.194171
" />
<path d="M95.160132 74.194171
L95.064894 74.146552
" />
<path d="M95.064894 74.146552
L94.874418 74.146552
" />
<path d="M94.874418 74.146552
L94.779180 74.194171
" />
<path d="M93.874418 74.813219
L93.874418 74.289409
" />
<path d="M93.874418 74.289409
L93.922037 74.194171
" />
<path d="M93.922037 74.194171
L94.017275 74.146552
" />
<path d="M94.017275 74.146552
L94.207751 74.146552
" />
<path d="M94.207751 74.146552
L94.302989 74.194171
" />
<path d="M93.874418 74.765600
L93.969656 74.813219
" />
<path d="M93.969656 74.813219
L94.207751 74.813219
" />
<path d="M94.207751 74.813219
L94.302989 74.765600
" />
<path d="M94.302989 74.765600
L94.350608 74.670361
" />
<path d="M94.350608 74.670361
L94.350608 74.575123
" />
<path d="M94.350608 74.575123
L94.302989 74.479885
" />
<path d="M94.302989 74.479885
L94.207751 74.432266
" />
<path d="M94.207751 74.432266
L93.969656 74.432266
" />
<path d="M93.969656 74.432266
L93.874418 74.384647
" />
<path d="M93.255370 74.813219
L93.350608 74.765600
" />
<path d="M93.350608 74.765600
L93.398227 74.670361
" />
<path d="M93.398227 74.670361
L93.398227 73.813219
" />
<path d="M92.874417 74.813219
L92.874417 73.813219
" />
<path d="M92.874417 74.194171
L92.779179 74.146552
" />
<path d="M92.779179 74.146552
L92.588703 74.146552
" />
<path d="M92.588703 74.146552
L92.493465 74.194171
" />
<path d="M92.493465 74.194171
L92.445846 74.241790
" />
<path d="M92.445846 74.241790
L92.398227 74.337028
" />
<path d="M92.398227 74.337028
L92.398227 74.622742
" />
<path d="M92.398227 74.622742
L92.445846 74.717980
" />
<path d="M92.445846 74.717980
L92.493465 74.765600
" />
<path d="M92.493465 74.765600
L92.588703 74.813219
" />
<path d="M92.588703 74.813219
L92.779179 74.813219
" />
<path d="M92.779179 74.813219
L92.874417 74.765600
" />
<path d="M91.826798 74.813219
L91.922036 74.765600
" />
<path d="M91.922036 74.765600
L91.969655 74.717980
" />
<path d="M91.969655 74.717980
L92.017274 74.622742
" />
<path d="M92.017274 74.622742
L92.017274 74.337028
" />
<path d="M92.017274 74.337028
L91.969655 74.241790
" />
<path d="M91.969655 74.241790
L91.922036 74.194171
" />
<path d="M91.922036 74.194171
L91.826798 74.146552
" />
<path d="M91.826798 74.146552
L91.683941 74.146552
" />
<path d="M91.683941 74.146552
L91.588703 74.194171
" />
<path d="M91.588703 74.194171
L91.541084 74.241790
" />
<path d="M91.541084 74.241790
L91.493465 74.337028
" />
<path d="M91.493465 74.337028
L91.493465 74.622742
" />
<path d="M91.493465 74.622742
L91.541084 74.717980
" />
<path d="M91.541084 74.717980
L91.588703 74.765600
" />
<path d="M91.588703 74.765600
L91.683941 74.813219
" />
<path d="M91.683941 74.813219
L91.826798 74.813219
" />
<path d="M90.636322 74.813219
L90.636322 74.289409
" />
<path d="M90.636322 74.289409
L90.683941 74.194171
" />
<path d="M90.683941 74.194171
L90.779179 74.146552
" />
<path d="M90.779179 74.146552
L90.969655 74.146552
" />
<path d="M90.969655 74.146552
L91.064893 74.194171
" />
<path d="M90.636322 74.765600
L90.731560 74.813219
" />
<path d="M90.731560 74.813219
L90.969655 74.813219
" />
<path d="M90.969655 74.813219
L91.064893 74.765600
" />
<path d="M91.064893 74.765600
L91.112512 74.670361
" />
<path d="M91.112512 74.670361
L91.112512 74.575123
" />
<path d="M91.112512 74.575123
L91.064893 74.479885
" />
<path d="M91.064893 74.479885
L90.969655 74.432266
" />
<path d="M90.969655 74.432266
L90.731560 74.432266
" />
<path d="M90.731560 74.432266
L90.636322 74.384647
" />
<path d="M90.160131 74.813219
L90.160131 74.146552
" />
<path d="M90.160131 74.337028
L90.112512 74.241790
" />
<path d="M90.112512 74.241790
L90.064893 74.194171
" />
<path d="M90.064893 74.194171
L89.969655 74.146552
" />
<path d="M89.969655 74.146552
L89.874417 74.146552
" />
<path d="M89.112512 74.813219
L89.112512 73.813219
" />
<path d="M89.112512 74.765600
L89.207750 74.813219
" />
<path d="M89.207750 74.813219
L89.398226 74.813219
" />
<path d="M89.398226 74.813219
L89.493464 74.765600
" />
<path d="M89.493464 74.765600
L89.541083 74.717980
" />
<path d="M89.541083 74.717980
L89.588702 74.622742
" />
<path d="M89.588702 74.622742
L89.588702 74.337028
" />
<path d="M89.588702 74.337028
L89.541083 74.241790
" />
<path d="M89.541083 74.241790
L89.493464 74.194171
" />
<path d="M89.493464 74.194171
L89.398226 74.146552
" />
<path d="M89.398226 74.146552
L89.207750 74.146552
" />
<path d="M89.207750 74.146552
L89.112512 74.194171
" />
</g><text x="112.826800" y="76.555600"
transform="scale(-1 1) translate(-225.653600 0)"
textLength="8.222618" font-size="1.333333" lengthAdjust="spacingAndGlyphs"
text-anchor="start" opacity="0">BCB: 1.0.2</text>
<g class="stroked-text"><desc>BCB: 1.0.2</desc>
<path d="M112.255371 75.909409
L112.112514 75.957028
" />
<path d="M112.112514 75.957028
L112.064895 76.004647
" />
<path d="M112.064895 76.004647
L112.017276 76.099885
" />
<path d="M112.017276 76.099885
L112.017276 76.242742
" />
<path d="M112.017276 76.242742
L112.064895 76.337980
" />
<path d="M112.064895 76.337980
L112.112514 76.385600
" />
<path d="M112.112514 76.385600
L112.207752 76.433219
" />
<path d="M112.207752 76.433219
L112.588704 76.433219
" />
<path d="M112.588704 76.433219
L112.588704 75.433219
" />
<path d="M112.588704 75.433219
L112.255371 75.433219
" />
<path d="M112.255371 75.433219
L112.160133 75.480838
" />
<path d="M112.160133 75.480838
L112.112514 75.528457
" />
<path d="M112.112514 75.528457
L112.064895 75.623695
" />
<path d="M112.064895 75.623695
L112.064895 75.718933
" />
<path d="M112.064895 75.718933
L112.112514 75.814171
" />
<path d="M112.112514 75.814171
L112.160133 75.861790
" />
<path d="M112.160133 75.861790
L112.255371 75.909409
" />
<path d="M112.255371 75.909409
L112.588704 75.909409
" />
<path d="M111.017276 76.337980
L111.064895 76.385600
" />
<path d="M111.064895 76.385600
L111.207752 76.433219
" />
<path d="M111.207752 76.433219
L111.302990 76.433219
" />
<path d="M111.302990 76.433219
L111.445847 76.385600
" />
<path d="M111.445847 76.385600
L111.541085 76.290361
" />
<path d="M111.541085 76.290361
L111.588704 76.195123
" />
<path d="M111.588704 76.195123
L111.636323 76.004647
" />
<path d="M111.636323 76.004647
L111.636323 75.861790
" />
<path d="M111.636323 75.861790
L111.588704 75.671314
" />
<path d="M111.588704 75.671314
L111.541085 75.576076
" />
<path d="M111.541085 75.576076
L111.445847 75.480838
" />
<path d="M111.445847 75.480838
L111.302990 75.433219
" />
<path d="M111.302990 75.433219
L111.207752 75.433219
" />
<path d="M111.207752 75.433219
L111.064895 75.480838
" />
<path d="M111.064895 75.480838
L111.017276 75.528457
" />
<path d="M110.255371 75.909409
L110.112514 75.957028
" />
<path d="M110.112514 75.957028
L110.064895 76.004647
" />
<path d="M110.064895 76.004647
L110.017276 76.099885
" />
<path d="M110.017276 76.099885
L110.017276 76.242742
" />
<path d="M110.017276 76.242742
L110.064895 76.337980
" />
<path d="M110.064895 76.337980
L110.112514 76.385600
" />
<path d="M110.112514 76.385600
L110.207752 76.433219
" />
<path d="M110.207752 76.433219
L110.588704 76.433219
" />
<path d="M110.588704 76.433219
L110.588704 75.433219
" />
<path d="M110.588704 75.433219
L110.255371 75.433219
" />
<path d="M110.255371 75.433219
L110.160133 75.480838
" />
<path d="M110.160133 75.480838
L110.112514 75.528457
" />
<path d="M110.112514 75.528457
L110.064895 75.623695
" />
<path d="M110.064895 75.623695
L110.064895 75.718933
" />
<path d="M110.064895 75.718933
L110.112514 75.814171
" />
<path d="M110.112514 75.814171
L110.160133 75.861790
" />
<path d="M110.160133 75.861790
L110.255371 75.909409
" />
<path d="M110.255371 75.909409
L110.588704 75.909409
" />
<path d="M109.588704 76.337980
L109.541085 76.385600
" />
<path d="M109.541085 76.385600
L109.588704 76.433219
" />
<path d="M109.588704 76.433219
L109.636323 76.385600
" />
<path d="M109.636323 76.385600
L109.588704 76.337980
" />
<path d="M109.588704 76.337980
L109.588704 76.433219
" />
<path d="M109.588704 75.814171
L109.541085 75.861790
" />
<path d="M109.541085 75.861790
L109.588704 75.909409
" />
<path d="M109.588704 75.909409
L109.636323 75.861790
" />
<path d="M109.636323 75.861790
L109.588704 75.814171
" />
<path d="M109.588704 75.814171
L109.588704 75.909409
" />
<path d="M107.826800 76.433219
L108.398228 76.433219
" />
<path d="M108.112514 76.433219
L108.112514 75.433219
" />
<path d="M108.112514 75.433219
L108.207752 75.576076
" />
<path d="M108.207752 75.576076
L108.302990 75.671314
" />
<path d="M108.302990 75.671314
L108.398228 75.718933
" />
<path d="M107.398228 76.337980
L107.350609 76.385600
" />
<path d="M107.350609 76.385600
L107.398228 76.433219
" />
<path d="M107.398228 76.433219
L107.445847 76.385600
" />
<path d="M107.445847 76.385600
L107.398228 76.337980
" />
<path d="M107.398228 76.337980
L107.398228 76.433219
" />
<path d="M106.731562 75.433219
L106.636324 75.433219
" />
<path d="M106.636324 75.433219
L106.541086 75.480838
" />
<path d="M106.541086 75.480838
L106.493467 75.528457
" />
<path d="M106.493467 75.528457
L106.445848 75.623695
" />
<path d="M106.445848 75.623695
L106.398229 75.814171
" />
<path d="M106.398229 75.814171
L106.398229 76.052266
" />
<path d="M106.398229 76.052266
L106.445848 76.242742
" />
<path d="M106.445848 76.242742
L106.493467 76.337980
" />
<path d="M106.493467 76.337980
L106.541086 76.385600
" />
<path d="M106.541086 76.385600
L106.636324 76.433219
" />
<path d="M106.636324 76.433219
L106.731562 76.433219
" />
<path d="M106.731562 76.433219
L106.826800 76.385600
" />
<path d="M106.826800 76.385600
L106.874419 76.337980
" />
<path d="M106.874419 76.337980
L106.922038 76.242742
" />
<path d="M106.922038 76.242742
L106.969657 76.052266
" />
<path d="M106.969657 76.052266
L106.969657 75.814171
" />
<path d="M106.969657 75.814171
L106.922038 75.623695
" />
<path d="M106.922038 75.623695
L106.874419 75.528457
" />
<path d="M106.874419 75.528457
L106.826800 75.480838
" />
<path d="M106.826800 75.480838
L106.731562 75.433219
" />
<path d="M105.969657 76.337980
L105.922038 76.385600
" />
<path d="M105.922038 76.385600
L105.969657 76.433219
" />
<path d="M105.969657 76.433219
L106.017276 76.385600
" />
<path d="M106.017276 76.385600
L105.969657 76.337980
" />
<path d="M105.969657 76.337980
L105.969657 76.433219
" />
<path d="M105.541086 75.528457
L105.493467 75.480838
" />
<path d="M105.493467 75.480838
L105.398229 75.433219
" />
<path d="M105.398229 75.433219
L105.160134 75.433219
" />
<path d="M105.160134 75.433219
L105.064896 75.480838
" />
<path d="M105.064896 75.480838
L105.017277 75.528457
" />
<path d="M105.017277 75.528457
L104.969658 75.623695
" />
<path d="M104.969658 75.623695
L104.969658 75.718933
" />
<path d="M104.969658 75.718933
L105.017277 75.861790
" />
<path d="M105.017277 75.861790
L105.588705 76.433219
" />
<path d="M105.588705 76.433219
L104.969658 76.433219
" />
</g><g transform="rotate(-270.000000 50.692800 71.323200)">
<text x="50.692800" y="71.323200"
transform="scale(-1 1) translate(-101.385600 0)"
textLength="5.413095" font-size="1.333333" lengthAdjust="spacingAndGlyphs"
text-anchor="start" opacity="0">+3.3V </text>
</g>
<g class="stroked-text"><desc>+3.3V </desc>
<path d="M51.196133 71.085104
L51.196133 70.323200
" />
<path d="M50.815180 70.704152
L51.577085 70.704152
" />
<path d="M51.815180 69.942247
L51.815180 69.323200
" />
<path d="M51.815180 69.323200
L51.434228 69.656533
" />
<path d="M51.434228 69.656533
L51.434228 69.513676
" />
<path d="M51.434228 69.513676
L51.386609 69.418438
" />
<path d="M51.386609 69.418438
L51.338990 69.370819
" />
<path d="M51.338990 69.370819
L51.243752 69.323200
" />
<path d="M51.243752 69.323200
L51.005657 69.323200
" />
<path d="M51.005657 69.323200
L50.910419 69.370819
" />
<path d="M50.910419 69.370819
L50.862800 69.418438
" />
<path d="M50.862800 69.418438
L50.815180 69.513676
" />
<path d="M50.815180 69.513676
L50.815180 69.799390
" />
<path d="M50.815180 69.799390
L50.862800 69.894628
" />
<path d="M50.862800 69.894628
L50.910419 69.942247
" />
<path d="M50.910419 68.894628
L50.862800 68.847009
" />
<path d="M50.862800 68.847009
L50.815180 68.894628
" />
<path d="M50.815180 68.894628
L50.862800 68.942247
" />
<path d="M50.862800 68.942247
L50.910419 68.894628
" />
<path d="M50.910419 68.894628
L50.815180 68.894628
" />
<path d="M51.815180 68.513676
L51.815180 67.894629
" />
<path d="M51.815180 67.894629
L51.434228 68.227962
" />
<path d="M51.434228 68.227962
L51.434228 68.085105
" />
<path d="M51.434228 68.085105
L51.386609 67.989867
" />
<path d="M51.386609 67.989867
L51.338990 67.942248
" />
<path d="M51.338990 67.942248
L51.243752 67.894629
" />
<path d="M51.243752 67.894629
L51.005657 67.894629
" />
<path d="M51.005657 67.894629
L50.910419 67.942248
" />
<path d="M50.910419 67.942248
L50.862800 67.989867
" />
<path d="M50.862800 67.989867
L50.815180 68.085105
" />
<path d="M50.815180 68.085105
L50.815180 68.370819
" />
<path d="M50.815180 68.370819
L50.862800 68.466057
" />
<path d="M50.862800 68.466057
L50.910419 68.513676
" />
<path d="M51.815180 67.608914
L50.815180 67.275581
" />
<path d="M50.815180 67.275581
L51.815180 66.942248
" />
</g><g transform="rotate(-270.000000 49.072800 71.323200)">
<text x="49.072800" y="71.323200"
transform="scale(-1 1) translate(-98.145600 0)"
textLength="9.032143" font-size="1.333333" lengthAdjust="spacingAndGlyphs"
text-anchor="start" opacity="0">150mA max</text>
</g>
<g class="stroked-text"><desc>150mA max</desc>
<path d="M49.195180 70.561295
L49.195180 71.132723
" />
<path d="M49.195180 70.847009
L50.195180 70.847009
" />
<path d="M50.195180 70.847009
L50.052323 70.942247
" />
<path d="M50.052323 70.942247
L49.957085 71.037485
" />
<path d="M49.957085 71.037485
L49.909466 71.132723
" />
<path d="M50.195180 69.656533
L50.195180 70.132723
" />
<path d="M50.195180 70.132723
L49.718990 70.180342
" />
<path d="M49.718990 70.180342
L49.766609 70.132723
" />
<path d="M49.766609 70.132723
L49.814228 70.037485
" />
<path d="M49.814228 70.037485
L49.814228 69.799390
" />
<path d="M49.814228 69.799390
L49.766609 69.704152
" />
<path d="M49.766609 69.704152
L49.718990 69.656533
" />
<path d="M49.718990 69.656533
L49.623752 69.608914
" />
<path d="M49.623752 69.608914
L49.385657 69.608914
" />
<path d="M49.385657 69.608914
L49.290419 69.656533
" />
<path d="M49.290419 69.656533
L49.242800 69.704152
" />
<path d="M49.242800 69.704152
L49.195180 69.799390
" />
<path d="M49.195180 69.799390
L49.195180 70.037485
" />
<path d="M49.195180 70.037485
L49.242800 70.132723
" />
<path d="M49.242800 70.132723
L49.290419 70.180342
" />
<path d="M50.195180 68.989866
L50.195180 68.894628
" />
<path d="M50.195180 68.894628
L50.147561 68.799390
" />
<path d="M50.147561 68.799390
L50.099942 68.751771
" />
<path d="M50.099942 68.751771
L50.004704 68.704152
" />
<path d="M50.004704 68.704152
L49.814228 68.656533
" />
<path d="M49.814228 68.656533
L49.576133 68.656533
" />
<path d="M49.576133 68.656533
L49.385657 68.704152
" />
<path d="M49.385657 68.704152
L49.290419 68.751771
" />
<path d="M49.290419 68.751771
L49.242800 68.799390
" />
<path d="M49.242800 68.799390
L49.195180 68.894628
" />
<path d="M49.195180 68.894628
L49.195180 68.989866
" />
<path d="M49.195180 68.989866
L49.242800 69.085104
" />
<path d="M49.242800 69.085104
L49.290419 69.132723
" />
<path d="M49.290419 69.132723
L49.385657 69.180342
" />
<path d="M49.385657 69.180342
L49.576133 69.227961
" />
<path d="M49.576133 69.227961
L49.814228 69.227961
" />
<path d="M49.814228 69.227961
L50.004704 69.180342
" />
<path d="M50.004704 69.180342
L50.099942 69.132723
" />
<path d="M50.099942 69.132723
L50.147561 69.085104
" />
<path d="M50.147561 69.085104
L50.195180 68.989866
" />
<path d="M49.195180 68.227961
L49.861847 68.227961
" />
<path d="M49.766609 68.227961
L49.814228 68.180342
" />
<path d="M49.814228 68.180342
L49.861847 68.085104
" />
<path d="M49.861847 68.085104
L49.861847 67.942247
" />
<path d="M49.861847 67.942247
L49.814228 67.847009
" />
<path d="M49.814228 67.847009
L49.718990 67.799390
" />
<path d="M49.718990 67.799390
L49.195180 67.799390
" />
<path d="M49.718990 67.799390
L49.814228 67.751771
" />
<path d="M49.814228 67.751771
L49.861847 67.656533
" />
<path d="M49.861847 67.656533
L49.861847 67.513676
" />
<path d="M49.861847 67.513676
L49.814228 67.418437
" />
<path d="M49.814228 67.418437
L49.718990 67.370818
" />
<path d="M49.718990 67.370818
L49.195180 67.370818
" />
<path d="M49.480895 66.942247
L49.480895 66.466057
" />
<path d="M49.195180 67.037485
L50.195180 66.704152
" />
<path d="M50.195180 66.704152
L49.195180 66.370819
" />
<path d="M49.195180 65.275580
L49.861847 65.275580
" />
<path d="M49.766609 65.275580
L49.814228 65.227961
" />
<path d="M49.814228 65.227961
L49.861847 65.132723
" />
<path d="M49.861847 65.132723
L49.861847 64.989866
" />
<path d="M49.861847 64.989866
L49.814228 64.894628
" />
<path d="M49.814228 64.894628
L49.718990 64.847009
" />
<path d="M49.718990 64.847009
L49.195180 64.847009
" />
<path d="M49.718990 64.847009
L49.814228 64.799390
" />
<path d="M49.814228 64.799390
L49.861847 64.704152
" />
<path d="M49.861847 64.704152
L49.861847 64.561295
" />
<path d="M49.861847 64.561295
L49.814228 64.466056
" />
<path d="M49.814228 64.466056
L49.718990 64.418437
" />
<path d="M49.718990 64.418437
L49.195180 64.418437
" />
<path d="M49.195180 63.513676
L49.718990 63.513676
" />
<path d="M49.718990 63.513676
L49.814228 63.561295
" />
<path d="M49.814228 63.561295
L49.861847 63.656533
" />
<path d="M49.861847 63.656533
L49.861847 63.847009
" />
<path d="M49.861847 63.847009
L49.814228 63.942247
" />
<path d="M49.242800 63.513676
L49.195180 63.608914
" />
<path d="M49.195180 63.608914
L49.195180 63.847009
" />
<path d="M49.195180 63.847009
L49.242800 63.942247
" />
<path d="M49.242800 63.942247
L49.338038 63.989866
" />
<path d="M49.338038 63.989866
L49.433276 63.989866
" />
<path d="M49.433276 63.989866
L49.528514 63.942247
" />
<path d="M49.528514 63.942247
L49.576133 63.847009
" />
<path d="M49.576133 63.847009
L49.576133 63.608914
" />
<path d="M49.576133 63.608914
L49.623752 63.513676
" />
<path d="M49.195180 63.132723
L49.861847 62.608914
" />
<path d="M49.861847 63.132723
L49.195180 62.608914
" />
</g><text x="65.690000" y="51.520000"
transform="scale(-1 1) translate(-131.380000 0)"
textLength="4.717858" font-size="2.000000" lengthAdjust="spacingAndGlyphs"
text-anchor="start" opacity="0">MIDI</text>
<g class="stroked-text"><desc>MIDI</desc>
<path d="M65.332857 51.336428
L65.332857 49.836428
" />
<path d="M65.332857 49.836428
L64.832857 50.907857
" />
<path d="M64.832857 50.907857
L64.332857 49.836428
" />
<path d="M64.332857 49.836428
L64.332857 51.336428
" />
<path d="M63.618571 51.336428
L63.618571 49.836428
" />
<path d="M62.904285 51.336428
L62.904285 49.836428
" />
<path d="M62.904285 49.836428
L62.547142 49.836428
" />
<path d="M62.547142 49.836428
L62.332856 49.907857
" />
<path d="M62.332856 49.907857
L62.189999 50.050714
" />
<path d="M62.189999 50.050714
L62.118570 50.193571
" />
<path d="M62.118570 50.193571
L62.047142 50.479285
" />
<path d="M62.047142 50.479285
L62.047142 50.693571
" />
<path d="M62.047142 50.693571
L62.118570 50.979285
" />
<path d="M62.118570 50.979285
L62.189999 51.122142
" />
<path d="M62.189999 51.122142
L62.332856 51.265000
" />
<path d="M62.332856 51.265000
L62.547142 51.336428
" />
<path d="M62.547142 51.336428
L62.904285 51.336428
" />
<path d="M61.404285 51.336428
L61.404285 49.836428
" />
</g><g transform="rotate(-270.000000 134.874000 45.669200)">
<text x="134.874000" y="45.669200"
transform="scale(-1 1) translate(-269.748000 0)"
textLength="4.794047" font-size="1.333333" lengthAdjust="spacingAndGlyphs"
text-anchor="start" opacity="0">RPI in</text>
</g>
<g class="stroked-text"><desc>RPI in</desc>
<path d="M134.996380 44.859676
L135.472571 45.193009
" />
<path d="M134.996380 45.431104
L135.996380 45.431104
" />
<path d="M135.996380 45.431104
L135.996380 45.050152
" />
<path d="M135.996380 45.050152
L135.948761 44.954914
" />
<path d="M135.948761 44.954914
L135.901142 44.907295
" />
<path d="M135.901142 44.907295
L135.805904 44.859676
" />
<path d="M135.805904 44.859676
L135.663047 44.859676
" />
<path d="M135.663047 44.859676
L135.567809 44.907295
" />
<path d="M135.567809 44.907295
L135.520190 44.954914
" />
<path d="M135.520190 44.954914
L135.472571 45.050152
" />
<path d="M135.472571 45.050152
L135.472571 45.431104
" />
<path d="M134.996380 44.431104
L135.996380 44.431104
" />
<path d="M135.996380 44.431104
L135.996380 44.050152
" />
<path d="M135.996380 44.050152
L135.948761 43.954914
" />
<path d="M135.948761 43.954914
L135.901142 43.907295
" />
<path d="M135.901142 43.907295
L135.805904 43.859676
" />
<path d="M135.805904 43.859676
L135.663047 43.859676
" />
<path d="M135.663047 43.859676
L135.567809 43.907295
" />
<path d="M135.567809 43.907295
L135.520190 43.954914
" />
<path d="M135.520190 43.954914
L135.472571 44.050152
" />
<path d="M135.472571 44.050152
L135.472571 44.431104
" />
<path d="M134.996380 43.431104
L135.996380 43.431104
" />
<path d="M134.996380 42.193009
L135.663047 42.193009
" />
<path d="M135.996380 42.193009
L135.948761 42.240628
" />
<path d="M135.948761 42.240628
L135.901142 42.193009
" />
<path d="M135.901142 42.193009
L135.948761 42.145390
" />
<path d="M135.948761 42.145390
L135.996380 42.193009
" />
<path d="M135.996380 42.193009
L135.901142 42.193009
" />
<path d="M135.663047 41.716819
L134.996380 41.716819
" />
<path d="M135.567809 41.716819
L135.615428 41.669200
" />
<path d="M135.615428 41.669200
L135.663047 41.573962
" />
<path d="M135.663047 41.573962
L135.663047 41.431105
" />
<path d="M135.663047 41.431105
L135.615428 41.335867
" />
<path d="M135.615428 41.335867
L135.520190 41.288248
" />
<path d="M135.520190 41.288248
L134.996380 41.288248
" />
</g><text x="49.225200" y="83.566000"
transform="scale(-1 1) translate(-98.450400 0)"
textLength="6.508334" font-size="1.333333" lengthAdjust="spacingAndGlyphs"
text-anchor="start" opacity="0">LED OUT</text>
<g class="stroked-text"><desc>LED OUT</desc>
<path d="M48.510914 83.443619
L48.987104 83.443619
" />
<path d="M48.987104 83.443619
L48.987104 82.443619
" />
<path d="M48.177580 82.919809
L47.844247 82.919809
" />
<path d="M47.701390 83.443619
L48.177580 83.443619
" />
<path d="M48.177580 83.443619
L48.177580 82.443619
" />
<path d="M48.177580 82.443619
L47.701390 82.443619
" />
<path d="M47.272818 83.443619
L47.272818 82.443619
" />
<path d="M47.272818 82.443619
L47.034723 82.443619
" />
<path d="M47.034723 82.443619
L46.891866 82.491238
" />
<path d="M46.891866 82.491238
L46.796628 82.586476
" />
<path d="M46.796628 82.586476
L46.749009 82.681714
" />
<path d="M46.749009 82.681714
L46.701390 82.872190
" />
<path d="M46.701390 82.872190
L46.701390 83.015047
" />
<path d="M46.701390 83.015047
L46.749009 83.205523
" />
<path d="M46.749009 83.205523
L46.796628 83.300761
" />
<path d="M46.796628 83.300761
L46.891866 83.396000
" />
<path d="M46.891866 83.396000
L47.034723 83.443619
" />
<path d="M47.034723 83.443619
L47.272818 83.443619
" />
<path d="M45.320437 82.443619
L45.129961 82.443619
" />
<path d="M45.129961 82.443619
L45.034723 82.491238
" />
<path d="M45.034723 82.491238
L44.939485 82.586476
" />
<path d="M44.939485 82.586476
L44.891866 82.776952
" />
<path d="M44.891866 82.776952
L44.891866 83.110285
" />
<path d="M44.891866 83.110285
L44.939485 83.300761
" />
<path d="M44.939485 83.300761
L45.034723 83.396000
" />
<path d="M45.034723 83.396000
L45.129961 83.443619
" />
<path d="M45.129961 83.443619
L45.320437 83.443619
" />
<path d="M45.320437 83.443619
L45.415675 83.396000
" />
<path d="M45.415675 83.396000
L45.510913 83.300761
" />
<path d="M45.510913 83.300761
L45.558532 83.110285
" />
<path d="M45.558532 83.110285
L45.558532 82.776952
" />
<path d="M45.558532 82.776952
L45.510913 82.586476
" />
<path d="M45.510913 82.586476
L45.415675 82.491238
" />
<path d="M45.415675 82.491238
L45.320437 82.443619
" />
<path d="M44.463294 82.443619
L44.463294 83.253142
" />
<path d="M44.463294 83.253142
L44.415675 83.348380
" />
<path d="M44.415675 83.348380
L44.368056 83.396000
" />
<path d="M44.368056 83.396000
L44.272818 83.443619
" />
<path d="M44.272818 83.443619
L44.082342 83.443619
" />
<path d="M44.082342 83.443619
L43.987104 83.396000
" />
<path d="M43.987104 83.396000
L43.939485 83.348380
" />
<path d="M43.939485 83.348380
L43.891866 83.253142
" />
<path d="M43.891866 83.253142
L43.891866 82.443619
" />
<path d="M43.558532 82.443619
L42.987104 82.443619
" />
<path d="M43.272818 83.443619
L43.272818 82.443619
" />
</g><g transform="rotate(-90.000000 182.778400 36.779200)">
<text x="182.778400" y="36.779200"
transform="scale(-1 1) translate(-365.556800 0)"
textLength="1.698809" font-size="1.333333" lengthAdjust="spacingAndGlyphs"
text-anchor="start" opacity="0">IN</text>
</g>
<g class="stroked-text"><desc>IN</desc>
<path d="M182.656019 37.017295
L181.656019 37.017295
" />
<path d="M182.656019 37.493485
L181.656019 37.493485
" />
<path d="M181.656019 37.493485
L182.656019 38.064913
" />
<path d="M182.656019 38.064913
L181.656019 38.064913
" />
</g><g transform="rotate(90.000000 67.665600 51.866800)">
<text x="67.665600" y="51.866800"
transform="scale(-1 1) translate(-135.331200 0)"
textLength="3.032143" font-size="1.333333" lengthAdjust="spacingAndGlyphs"
text-anchor="start" opacity="0">OUT</text>
</g>
<g class="stroked-text"><desc>OUT</desc>
<path d="M68.787980 51.438228
L68.787980 51.247752
" />
<path d="M68.787980 51.247752
L68.740361 51.152514
" />
<path d="M68.740361 51.152514
L68.645123 51.057276
" />
<path d="M68.645123 51.057276
L68.454647 51.009657
" />
<path d="M68.454647 51.009657
L68.121314 51.009657
" />
<path d="M68.121314 51.009657
L67.930838 51.057276
" />
<path d="M67.930838 51.057276
L67.835600 51.152514
" />
<path d="M67.835600 51.152514
L67.787980 51.247752
" />
<path d="M67.787980 51.247752
L67.787980 51.438228
" />
<path d="M67.787980 51.438228
L67.835600 51.533466
" />
<path d="M67.835600 51.533466
L67.930838 51.628704
" />
<path d="M67.930838 51.628704
L68.121314 51.676323
" />
<path d="M68.121314 51.676323
L68.454647 51.676323
" />
<path d="M68.454647 51.676323
L68.645123 51.628704
" />
<path d="M68.645123 51.628704
L68.740361 51.533466
" />
<path d="M68.740361 51.533466
L68.787980 51.438228
" />
<path d="M68.787980 50.581085
L67.978457 50.581085
" />
<path d="M67.978457 50.581085
L67.883219 50.533466
" />
<path d="M67.883219 50.533466
L67.835600 50.485847
" />
<path d="M67.835600 50.485847
L67.787980 50.390609
" />
<path d="M67.787980 50.390609
L67.787980 50.200133
" />
<path d="M67.787980 50.200133
L67.835600 50.104895
" />
<path d="M67.835600 50.104895
L67.883219 50.057276
" />
<path d="M67.883219 50.057276
L67.978457 50.009657
" />
<path d="M67.978457 50.009657
L68.787980 50.009657
" />
<path d="M68.787980 49.676323
L68.787980 49.104895
" />
<path d="M67.787980 49.390609
L68.787980 49.390609
" />
</g><g transform="rotate(-90.000000 176.326800 36.677600)">
<text x="176.326800" y="36.677600"
transform="scale(-1 1) translate(-352.653600 0)"
textLength="3.794048" font-size="1.333333" lengthAdjust="spacingAndGlyphs"
text-anchor="start" opacity="0">VREF</text>
</g>
<g class="stroked-text"><desc>VREF</desc>
<path d="M175.204419 36.772838
L176.204419 37.106171
" />
<path d="M176.204419 37.106171
L175.204419 37.439504
" />
<path d="M176.204419 38.344266
L175.728228 38.010933
" />
<path d="M176.204419 37.772838
L175.204419 37.772838
" />
<path d="M175.204419 37.772838
L175.204419 38.153790
" />
<path d="M175.204419 38.153790
L175.252038 38.249028
" />
<path d="M175.252038 38.249028
L175.299657 38.296647
" />
<path d="M175.299657 38.296647
L175.394895 38.344266
" />
<path d="M175.394895 38.344266
L175.537752 38.344266
" />
<path d="M175.537752 38.344266
L175.632990 38.296647
" />
<path d="M175.632990 38.296647
L175.680609 38.249028
" />
<path d="M175.680609 38.249028
L175.728228 38.153790
" />
<path d="M175.728228 38.153790
L175.728228 37.772838
" />
<path d="M175.680609 38.772838
L175.680609 39.106171
" />
<path d="M176.204419 39.249028
L176.204419 38.772838
" />
<path d="M176.204419 38.772838
L175.204419 38.772838
" />
<path d="M175.204419 38.772838
L175.204419 39.249028
" />
<path d="M175.680609 40.010933
L175.680609 39.677600
" />
<path d="M176.204419 39.677600
L175.204419 39.677600
" />
<path d="M175.204419 39.677600
L175.204419 40.153790
" />
</g><g transform="rotate(90.000000 137.464800 45.770800)">
<text x="137.464800" y="45.770800"
transform="scale(-1 1) translate(-274.929600 0)"
textLength="2.555953" font-size="1.333333" lengthAdjust="spacingAndGlyphs"
text-anchor="start" opacity="0">out</text>
</g>
<g class="stroked-text"><desc>out</desc>
<path d="M137.587180 45.389847
L137.634800 45.485085
" />
<path d="M137.634800 45.485085
L137.682419 45.532704
" />
<path d="M137.682419 45.532704
L137.777657 45.580323
" />
<path d="M137.777657 45.580323
L138.063371 45.580323
" />
<path d="M138.063371 45.580323
L138.158609 45.532704
" />
<path d="M138.158609 45.532704
L138.206228 45.485085
" />
<path d="M138.206228 45.485085
L138.253847 45.389847
" />
<path d="M138.253847 45.389847
L138.253847 45.246990
" />
<path d="M138.253847 45.246990
L138.206228 45.151752
" />
<path d="M138.206228 45.151752
L138.158609 45.104133
" />
<path d="M138.158609 45.104133
L138.063371 45.056514
" />
<path d="M138.063371 45.056514
L137.777657 45.056514
" />
<path d="M137.777657 45.056514
L137.682419 45.104133
" />
<path d="M137.682419 45.104133
L137.634800 45.151752
" />
<path d="M137.634800 45.151752
L137.587180 45.246990
" />
<path d="M137.587180 45.246990
L137.587180 45.389847
" />
<path d="M138.253847 44.199371
L137.587180 44.199371
" />
<path d="M138.253847 44.627942
L137.730038 44.627942
" />
<path d="M137.730038 44.627942
L137.634800 44.580323
" />
<path d="M137.634800 44.580323
L137.587180 44.485085
" />
<path d="M137.587180 44.485085
L137.587180 44.342228
" />
<path d="M137.587180 44.342228
L137.634800 44.246990
" />
<path d="M137.634800 44.246990
L137.682419 44.199371
" />
<path d="M138.253847 43.866037
L138.253847 43.485085
" />
<path d="M138.587180 43.723180
L137.730038 43.723180
" />
<path d="M137.730038 43.723180
L137.634800 43.675561
" />
<path d="M137.634800 43.675561
L137.587180 43.580323
" />
<path d="M137.587180 43.580323
L137.587180 43.485085
" />
</g><text x="49.700000" y="110.100000"
transform="scale(-1 1) translate(-99.400000 0)"
textLength="1.889286" font-size="1.333333" lengthAdjust="spacingAndGlyphs"
text-anchor="middle" opacity="0">J7</text>
<g class="stroked-text"><desc>J7</desc>
<path d="M50.033333 109.062619
L50.033333 109.776904
" />
<path d="M50.033333 109.776904
L50.080952 109.919761
" />
<path d="M50.080952 109.919761
L50.176190 110.015000
" />
<path d="M50.176190 110.015000
L50.319047 110.062619
" />
<path d="M50.319047 110.062619
L50.414285 110.062619
" />
<path d="M49.652380 109.062619
L48.985714 109.062619
" />
<path d="M48.985714 109.062619
L49.414285 110.062619
" />
</g><text x="113.625000" y="100.610000"
transform="scale(-1 1) translate(-227.250000 0)"
textLength="1.889286" font-size="1.333333" lengthAdjust="spacingAndGlyphs"
text-anchor="middle" opacity="0">J6</text>
<g class="stroked-text"><desc>J6</desc>
<path d="M113.958333 99.572619
L113.958333 100.286904
" />
<path d="M113.958333 100.286904
L114.005952 100.429761
" />
<path d="M114.005952 100.429761
L114.101190 100.525000
" />
<path d="M114.101190 100.525000
L114.244047 100.572619
" />
<path d="M114.244047 100.572619
L114.339285 100.572619
" />
<path d="M113.053571 99.572619
L113.244047 99.572619
" />
<path d="M113.244047 99.572619
L113.339285 99.620238
" />
<path d="M113.339285 99.620238
L113.386904 99.667857
" />
<path d="M113.386904 99.667857
L113.482142 99.810714
" />
<path d="M113.482142 99.810714
L113.529761 100.001190
" />
<path d="M113.529761 100.001190
L113.529761 100.382142
" />
<path d="M113.529761 100.382142
L113.482142 100.477380
" />
<path d="M113.482142 100.477380
L113.434523 100.525000
" />
<path d="M113.434523 100.525000
L113.339285 100.572619
" />
<path d="M113.339285 100.572619
L113.148809 100.572619
" />
<path d="M113.148809 100.572619
L113.053571 100.525000
" />
<path d="M113.053571 100.525000
L113.005952 100.477380
" />
<path d="M113.005952 100.477380
L112.958333 100.382142
" />
<path d="M112.958333 100.382142
L112.958333 100.144047
" />
<path d="M112.958333 100.144047
L113.005952 100.048809
" />
<path d="M113.005952 100.048809
L113.053571 100.001190
" />
<path d="M113.053571 100.001190
L113.148809 99.953571
" />
<path d="M113.148809 99.953571
L113.339285 99.953571
" />
<path d="M113.339285 99.953571
L113.434523 100.001190
" />
<path d="M113.434523 100.001190
L113.482142 100.048809
" />
<path d="M113.482142 100.048809
L113.529761 100.144047
" />
</g><text x="140.970000" y="58.716800"
transform="scale(-1 1) translate(-281.940000 0)"
textLength="2.841667" font-size="1.333333" lengthAdjust="spacingAndGlyphs"
text-anchor="middle" opacity="0">J14</text>
<g class="stroked-text"><desc>J14</desc>
<path d="M141.779523 57.679419
L141.779523 58.393704
" />
<path d="M141.779523 58.393704
L141.827142 58.536561
" />
<path d="M141.827142 58.536561
L141.922380 58.631800
" />
<path d="M141.922380 58.631800
L142.065237 58.679419
" />
<path d="M142.065237 58.679419
L142.160475 58.679419
" />
<path d="M140.779523 58.679419
L141.350951 58.679419
" />
<path d="M141.065237 58.679419
L141.065237 57.679419
" />
<path d="M141.065237 57.679419
L141.160475 57.822276
" />
<path d="M141.160475 57.822276
L141.255713 57.917514
" />
<path d="M141.255713 57.917514
L141.350951 57.965133
" />
<path d="M139.922380 58.012752
L139.922380 58.679419
" />
<path d="M140.160475 57.631800
L140.398570 58.346085
" />
<path d="M140.398570 58.346085
L139.779523 58.346085
" />
</g><text x="127.000000" y="46.440000"
transform="scale(-1 1) translate(-254.000000 0)"
textLength="1.889286" font-size="1.333333" lengthAdjust="spacingAndGlyphs"
text-anchor="middle" opacity="0">J5</text>
<g class="stroked-text"><desc>J5</desc>
<path d="M127.333333 45.402619
L127.333333 46.116904
" />
<path d="M127.333333 46.116904
L127.380952 46.259761
" />
<path d="M127.380952 46.259761
L127.476190 46.355000
" />
<path d="M127.476190 46.355000
L127.619047 46.402619
" />
<path d="M127.619047 46.402619
L127.714285 46.402619
" />
<path d="M126.380952 45.402619
L126.857142 45.402619
" />
<path d="M126.857142 45.402619
L126.904761 45.878809
" />
<path d="M126.904761 45.878809
L126.857142 45.831190
" />
<path d="M126.857142 45.831190
L126.761904 45.783571
" />
<path d="M126.761904 45.783571
L126.523809 45.783571
" />
<path d="M126.523809 45.783571
L126.428571 45.831190
" />
<path d="M126.428571 45.831190
L126.380952 45.878809
" />
<path d="M126.380952 45.878809
L126.333333 45.974047
" />
<path d="M126.333333 45.974047
L126.333333 46.212142
" />
<path d="M126.333333 46.212142
L126.380952 46.307380
" />
<path d="M126.380952 46.307380
L126.428571 46.355000
" />
<path d="M126.428571 46.355000
L126.523809 46.402619
" />
<path d="M126.523809 46.402619
L126.761904 46.402619
" />
<path d="M126.761904 46.402619
L126.857142 46.355000
" />
<path d="M126.857142 46.355000
L126.904761 46.307380
" />
</g><text x="75.488800" y="40.835200"
transform="scale(-1 1) translate(-150.977600 0)"
textLength="2.175000" font-size="1.333333" lengthAdjust="spacingAndGlyphs"
text-anchor="middle" opacity="0">U1</text>
<g class="stroked-text"><desc>U1</desc>
<path d="M76.250704 39.797819
L76.250704 40.607342
" />
<path d="M76.250704 40.607342
L76.203085 40.702580
" />
<path d="M76.203085 40.702580
L76.155466 40.750200
" />
<path d="M76.155466 40.750200
L76.060228 40.797819
" />
<path d="M76.060228 40.797819
L75.869752 40.797819
" />
<path d="M75.869752 40.797819
L75.774514 40.750200
" />
<path d="M75.774514 40.750200
L75.726895 40.702580
" />
<path d="M75.726895 40.702580
L75.679276 40.607342
" />
<path d="M75.679276 40.607342
L75.679276 39.797819
" />
<path d="M74.679276 40.797819
L75.250704 40.797819
" />
<path d="M74.964990 40.797819
L74.964990 39.797819
" />
<path d="M74.964990 39.797819
L75.060228 39.940676
" />
<path d="M75.060228 39.940676
L75.155466 40.035914
" />
<path d="M75.155466 40.035914
L75.250704 40.083533
" />
</g><text x="58.623200" y="83.964400"
transform="scale(-1 1) translate(-117.246400 0)"
textLength="1.889286" font-size="1.333333" lengthAdjust="spacingAndGlyphs"
text-anchor="middle" opacity="0">J4</text>
<g class="stroked-text"><desc>J4</desc>
<path d="M58.956533 82.927019
L58.956533 83.641304
" />
<path d="M58.956533 83.641304
L59.004152 83.784161
" />
<path d="M59.004152 83.784161
L59.099390 83.879400
" />
<path d="M59.099390 83.879400
L59.242247 83.927019
" />
<path d="M59.242247 83.927019
L59.337485 83.927019
" />
<path d="M58.051771 83.260352
L58.051771 83.927019
" />
<path d="M58.289866 82.879400
L58.527961 83.593685
" />
<path d="M58.527961 83.593685
L57.908914 83.593685
" />
</g><text x="123.300000" y="69.000000"
transform="scale(-1 1) translate(-246.600000 0)"
textLength="1.889286" font-size="1.333333" lengthAdjust="spacingAndGlyphs"
text-anchor="middle" opacity="0">J8</text>
<g class="stroked-text"><desc>J8</desc>
<path d="M123.633333 67.962619
L123.633333 68.676904
" />
<path d="M123.633333 68.676904
L123.680952 68.819761
" />
<path d="M123.680952 68.819761
L123.776190 68.915000
" />
<path d="M123.776190 68.915000
L123.919047 68.962619
" />
<path d="M123.919047 68.962619
L124.014285 68.962619
" />
<path d="M123.014285 68.391190
L123.109523 68.343571
" />
<path d="M123.109523 68.343571
L123.157142 68.295952
" />
<path d="M123.157142 68.295952
L123.204761 68.200714
" />
<path d="M123.204761 68.200714
L123.204761 68.153095
" />
<path d="M123.204761 68.153095
L123.157142 68.057857
" />
<path d="M123.157142 68.057857
L123.109523 68.010238
" />
<path d="M123.109523 68.010238
L123.014285 67.962619
" />
<path d="M123.014285 67.962619
L122.823809 67.962619
" />
<path d="M122.823809 67.962619
L122.728571 68.010238
" />
<path d="M122.728571 68.010238
L122.680952 68.057857
" />
<path d="M122.680952 68.057857
L122.633333 68.153095
" />
<path d="M122.633333 68.153095
L122.633333 68.200714
" />
<path d="M122.633333 68.200714
L122.680952 68.295952
" />
<path d="M122.680952 68.295952
L122.728571 68.343571
" />
<path d="M122.728571 68.343571
L122.823809 68.391190
" />
<path d="M122.823809 68.391190
L123.014285 68.391190
" />
<path d="M123.014285 68.391190
L123.109523 68.438809
" />
<path d="M123.109523 68.438809
L123.157142 68.486428
" />
<path d="M123.157142 68.486428
L123.204761 68.581666
" />
<path d="M123.204761 68.581666
L123.204761 68.772142
" />
<path d="M123.204761 68.772142
L123.157142 68.867380
" />
<path d="M123.157142 68.867380
L123.109523 68.915000
" />
<path d="M123.109523 68.915000
L123.014285 68.962619
" />
<path d="M123.014285 68.962619
L122.823809 68.962619
" />
<path d="M122.823809 68.962619
L122.728571 68.915000
" />
<path d="M122.728571 68.915000
L122.680952 68.867380
" />
<path d="M122.680952 68.867380
L122.633333 68.772142
" />
<path d="M122.633333 68.772142
L122.633333 68.581666
" />
<path d="M122.633333 68.581666
L122.680952 68.486428
" />
<path d="M122.680952 68.486428
L122.728571 68.438809
" />
<path d="M122.728571 68.438809
L122.823809 68.391190
" />
</g><text x="65.836800" y="60.799600"
transform="scale(-1 1) translate(-131.673600 0)"
textLength="2.841667" font-size="1.333333" lengthAdjust="spacingAndGlyphs"
text-anchor="middle" opacity="0">J15</text>
<g class="stroked-text"><desc>J15</desc>
<path d="M66.646323 59.762219
L66.646323 60.476504
" />
<path d="M66.646323 60.476504
L66.693942 60.619361
" />
<path d="M66.693942 60.619361
L66.789180 60.714600
" />
<path d="M66.789180 60.714600
L66.932037 60.762219
" />
<path d="M66.932037 60.762219
L67.027275 60.762219
" />
<path d="M65.646323 60.762219
L66.217751 60.762219
" />
<path d="M65.932037 60.762219
L65.932037 59.762219
" />
<path d="M65.932037 59.762219
L66.027275 59.905076
" />
<path d="M66.027275 59.905076
L66.122513 60.000314
" />
<path d="M66.122513 60.000314
L66.217751 60.047933
" />
<path d="M64.741561 59.762219
L65.217751 59.762219
" />
<path d="M65.217751 59.762219
L65.265370 60.238409
" />
<path d="M65.265370 60.238409
L65.217751 60.190790
" />
<path d="M65.217751 60.190790
L65.122513 60.143171
" />
<path d="M65.122513 60.143171
L64.884418 60.143171
" />
<path d="M64.884418 60.143171
L64.789180 60.190790
" />
<path d="M64.789180 60.190790
L64.741561 60.238409
" />
<path d="M64.741561 60.238409
L64.693942 60.333647
" />
<path d="M64.693942 60.333647
L64.693942 60.571742
" />
<path d="M64.693942 60.571742
L64.741561 60.666980
" />
<path d="M64.741561 60.666980
L64.789180 60.714600
" />
<path d="M64.789180 60.714600
L64.884418 60.762219
" />
<path d="M64.884418 60.762219
L65.122513 60.762219
" />
<path d="M65.122513 60.762219
L65.217751 60.714600
" />
<path d="M65.217751 60.714600
L65.265370 60.666980
" />
</g></g>
<g style="fill:#000000; fill-opacity:0.0; 
stroke:#000000; stroke-width:0.120000; stroke-opacity:1; 
stroke-linecap:round; stroke-linejoin:round;">
<path d="M48.260000 107.650000
L48.260000 106.320000
" />
<path d="M49.590000 107.650000
L48.260000 107.650000
" />
<path d="M50.860000 107.650000
L99.180000 107.650000
" />
<path d="M50.860000 107.650000
L50.860000 105.050000
" />
<path d="M99.180000 107.650000
L99.180000 102.450000
" />
<path d="M48.260000 105.050000
L48.260000 102.450000
" />
<path d="M50.860000 105.050000
L48.260000 105.050000
" />
<path d="M48.260000 102.450000
L99.180000 102.450000
" />
</g>
<g style="fill:#000000; fill-opacity:0.0; 
stroke:#000000; stroke-width:0.100000; stroke-opacity:1; 
stroke-linecap:round; stroke-linejoin:round;">
<path d="M46.220000 125.050000
L101.220000 125.050000
" />
<path d="M101.220000 125.050000
L101.220000 85.050000
" />
<path d="M101.220000 85.050000
L46.220000 85.050000
" />
<path d="M46.220000 85.050000
L46.220000 125.050000
" />
</g>
<g style="fill:#000000; fill-opacity:0.0; 
stroke:#000000; stroke-width:0.120000; stroke-opacity:1; 
stroke-linecap:round; stroke-linejoin:round;">
<path d="M112.295000 88.830000
L114.955000 88.830000
" />
<path d="M112.295000 96.510000
L112.295000 88.830000
" />
<path d="M112.295000 96.510000
L114.955000 96.510000
" />
<path d="M112.295000 97.780000
L112.295000 99.110000
" />
<path d="M112.295000 99.110000
L113.625000 99.110000
" />
<path d="M114.955000 96.510000
L114.955000 88.830000
" />
<path d="M138.000000 58.445000
L139.270000 58.445000
" />
<path d="M139.270000 58.445000
L139.270000 57.175000
" />
<path d="M135.080000 56.132071
L135.080000 55.735000
" />
<path d="M135.840000 56.132071
L135.840000 55.735000
" />
<path d="M137.620000 56.065000
L137.620000 55.735000
" />
<path d="M138.380000 56.065000
L138.380000 55.735000
" />
<path d="M134.130000 55.735000
L134.130000 53.075000
" />
<path d="M136.730000 55.735000
L136.730000 53.075000
" />
<path d="M139.330000 55.735000
L134.130000 55.735000
" />
<path d="M134.130000 53.075000
L139.330000 53.075000
" />
<path d="M135.840000 53.075000
L135.840000 47.075000
" />
<path d="M137.720000 53.075000
L137.720000 47.075000
" />
<path d="M137.840000 53.075000
L137.840000 47.075000
" />
<path d="M137.960000 53.075000
L137.960000 47.075000
" />
<path d="M138.080000 53.075000
L138.080000 47.075000
" />
<path d="M138.200000 53.075000
L138.200000 47.075000
" />
<path d="M138.320000 53.075000
L138.320000 47.075000
" />
<path d="M138.380000 53.075000
L138.380000 47.075000
" />
<path d="M139.330000 53.075000
L139.330000 55.735000
" />
<path d="M135.080000 47.075000
L135.080000 53.075000
" />
<path d="M135.840000 47.075000
L135.080000 47.075000
" />
<path d="M137.620000 47.075000
L137.620000 53.075000
" />
<path d="M138.380000 47.075000
L137.620000 47.075000
" />
</g>
<g style="fill:#000000; fill-opacity:0.0; 
stroke:#000000; stroke-width:0.100000; stroke-opacity:1; 
stroke-linecap:round; stroke-linejoin:round;">
<circle cx="127.000000" cy="50.006248" r="0.914753" /> 
<circle cx="127.000000" cy="48.000000" r="0.914400" /> 
</g>
<g style="fill:#000000; fill-opacity:0.0; 
stroke:#000000; stroke-width:0.120000; stroke-opacity:1; 
stroke-linecap:round; stroke-linejoin:round;">
<path d="M80.300000 59.500000
L79.900000 59.500000
" />
<path d="M82.900000 59.500000
L82.500000 59.500000
" />
<path d="M85.400000 59.500000
L85.000000 59.500000
" />
<path d="M87.900000 59.500000
L87.500000 59.500000
" />
<path d="M90.500000 59.500000
L90.100000 59.500000
" />
<path d="M93.000000 59.500000
L92.600000 59.500000
" />
<path d="M95.600000 59.500000
L95.200000 59.500000
" />
<path d="M98.100000 59.500000
L97.700000 59.500000
" />
<path d="M100.700000 59.500000
L100.300000 59.500000
" />
<path d="M103.200000 59.500000
L102.800000 59.500000
" />
<path d="M105.700000 59.500000
L105.300000 59.500000
" />
<path d="M108.300000 59.500000
L107.900000 59.500000
" />
<path d="M110.800000 59.500000
L110.400000 59.500000
" />
<path d="M113.400000 59.500000
L113.000000 59.500000
" />
<path d="M115.900000 59.500000
L115.500000 59.500000
" />
<path d="M118.400000 59.500000
L118.000000 59.500000
" />
<path d="M121.000000 59.500000
L120.600000 59.500000
" />
<path d="M123.500000 59.500000
L123.100000 59.500000
" />
<path d="M125.833000 59.500000
L125.833000 56.493000
" />
<path d="M126.100000 59.500000
L125.700000 59.500000
" />
<path d="M128.500000 59.500000
L128.200000 59.500000
" />
<path d="M125.833000 56.493000
L128.500000 56.493000
" />
<path d="M77.500000 52.700000
L77.500000 59.500000
" />
<path d="M77.500000 50.500000
L77.500000 50.100000
" />
<path d="M77.500000 47.900000
L77.500000 47.500000
" />
<path d="M77.500000 38.500000
L77.500000 45.300000
" />
<path d="M80.300000 38.500000
L79.900000 38.500000
" />
<path d="M82.900000 38.500000
L82.500000 38.500000
" />
<path d="M85.400000 38.500000
L85.000000 38.500000
" />
<path d="M87.900000 38.500000
L87.500000 38.500000
" />
<path d="M90.500000 38.500000
L90.100000 38.500000
" />
<path d="M93.000000 38.500000
L92.600000 38.500000
" />
<path d="M95.600000 38.500000
L95.200000 38.500000
" />
<path d="M98.100000 38.500000
L97.700000 38.500000
" />
<path d="M100.700000 38.500000
L100.300000 38.500000
" />
<path d="M103.200000 38.500000
L102.800000 38.500000
" />
<path d="M105.700000 38.500000
L105.300000 38.500000
" />
<path d="M108.300000 38.500000
L107.900000 38.500000
" />
<path d="M110.800000 38.500000
L110.400000 38.500000
" />
<path d="M113.400000 38.500000
L113.000000 38.500000
" />
<path d="M115.900000 38.500000
L115.500000 38.500000
" />
<path d="M118.400000 38.500000
L118.000000 38.500000
" />
<path d="M121.000000 38.500000
L120.600000 38.500000
" />
<path d="M123.500000 38.500000
L123.100000 38.500000
" />
<path d="M126.100000 38.500000
L125.700000 38.500000
" />
<path d="M128.500000 38.500000
L128.200000 38.500000
" />
<path d="M55.865000 84.232600
L57.135000 84.232600
" />
<path d="M57.135000 84.232600
L57.135000 82.962600
" />
<path d="M50.405000 81.919671
L50.405000 81.522600
" />
<path d="M51.165000 81.919671
L51.165000 81.522600
" />
<path d="M52.945000 81.919671
L52.945000 81.522600
" />
<path d="M53.705000 81.919671
L53.705000 81.522600
" />
<path d="M55.485000 81.852600
L55.485000 81.522600
" />
<path d="M56.245000 81.852600
L56.245000 81.522600
" />
<path d="M49.455000 81.522600
L49.455000 78.862600
" />
<path d="M52.055000 81.522600
L52.055000 78.862600
" />
<path d="M54.595000 81.522600
L54.595000 78.862600
" />
<path d="M57.195000 81.522600
L49.455000 81.522600
" />
<path d="M49.455000 78.862600
L57.195000 78.862600
" />
<path d="M51.165000 78.862600
L51.165000 72.862600
" />
<path d="M53.705000 78.862600
L53.705000 72.862600
" />
<path d="M55.585000 78.862600
L55.585000 72.862600
" />
<path d="M55.705000 78.862600
L55.705000 72.862600
" />
<path d="M55.825000 78.862600
L55.825000 72.862600
" />
<path d="M55.945000 78.862600
L55.945000 72.862600
" />
<path d="M56.065000 78.862600
L56.065000 72.862600
" />
<path d="M56.185000 78.862600
L56.185000 72.862600
" />
<path d="M56.245000 78.862600
L56.245000 72.862600
" />
<path d="M57.195000 78.862600
L57.195000 81.522600
" />
<path d="M50.405000 72.862600
L50.405000 78.862600
" />
<path d="M51.165000 72.862600
L50.405000 72.862600
" />
<path d="M52.945000 72.862600
L52.945000 78.862600
" />
<path d="M53.705000 72.862600
L52.945000 72.862600
" />
<path d="M55.485000 72.862600
L55.485000 78.862600
" />
<path d="M56.245000 72.862600
L55.485000 72.862600
" />
</g>
<g style="fill:#000000; fill-opacity:0.0; 
stroke:#000000; stroke-width:0.100000; stroke-opacity:1; 
stroke-linecap:round; stroke-linejoin:round;">
<path d="M171.480000 63.505600
L171.480000 121.505600
" />
<path d="M167.730000 125.005600
L167.980000 125.005600
" />
</g>
<g style="fill:#000000; fill-opacity:0.0; 
stroke:#000000; stroke-width:0.120000; stroke-opacity:1; 
stroke-linecap:round; stroke-linejoin:round;">
<path d="M158.790000 123.020600
L158.790000 117.820600
" />
<path d="M157.885000 76.115600
L157.885000 81.255600
" />
<path d="M157.885000 73.515600
L157.885000 74.845600
" />
<path d="M156.555000 73.515600
L157.885000 73.515600
" />
<path d="M155.285000 76.115600
L157.885000 76.115600
" />
<path d="M155.285000 73.515600
L155.285000 76.115600
" />
<path d="M153.650000 120.420600
L153.650000 117.820600
" />
<path d="M153.650000 117.820600
L158.790000 117.820600
" />
<path d="M152.685000 81.255600
L157.885000 81.255600
" />
<path d="M152.685000 73.515600
L155.285000 73.515600
" />
<path d="M152.685000 73.515600
L152.685000 81.255600
" />
<path d="M151.050000 123.020600
L158.790000 123.020600
" />
<path d="M151.050000 123.020600
L151.050000 120.420600
" />
<path d="M151.050000 120.420600
L153.650000 120.420600
" />
<path d="M151.050000 119.150600
L151.050000 117.820600
" />
<path d="M151.050000 117.820600
L152.380000 117.820600
" />
<path d="M121.580000 69.645600
L121.580000 117.965600
" />
<path d="M121.580000 67.045600
L121.580000 68.375600
" />
<path d="M120.250000 67.045600
L121.580000 67.045600
" />
<path d="M118.980000 69.645600
L121.580000 69.645600
" />
<path d="M118.980000 67.045600
L118.980000 69.645600
" />
</g>
<g style="fill:#000000; fill-opacity:0.0; 
stroke:#000000; stroke-width:0.100000; stroke-opacity:1; 
stroke-linecap:round; stroke-linejoin:round;">
<path d="M118.980000 60.005600
L167.980000 60.005600
" />
<path d="M118.980000 60.005600
L118.480000 60.005243
" />
<path d="M118.230000 125.005600
L167.730000 125.005600
" />
</g>
<g style="fill:#000000; fill-opacity:0.0; 
stroke:#000000; stroke-width:0.120000; stroke-opacity:1; 
stroke-linecap:round; stroke-linejoin:round;">
<path d="M116.380000 117.965600
L121.580000 117.965600
" />
<path d="M116.380000 67.045600
L118.980000 67.045600
" />
<path d="M116.380000 67.045600
L116.380000 117.965600
" />
</g>
<g style="fill:#000000; fill-opacity:0.0; 
stroke:#000000; stroke-width:0.100000; stroke-opacity:1; 
stroke-linecap:round; stroke-linejoin:round;">
<path d="M114.980000 121.505600
L114.980000 63.555600
" />
<path d="M167.980000 125.005600 A3.499999 3.499999 0.0 0 0 171.480000 121.505600" />
<path d="M171.480000 63.505600 A3.499999 3.499999 0.0 0 0 167.980000 60.005600" />
<path d="M114.980000 121.505600 A3.500000 3.500000 0.0 0 0 118.480000 125.005600" />
<path d="M118.480000 60.005243 A3.500357 3.500357 0.0 0 0 114.980000 63.555600" />
<circle cx="167.980000" cy="121.505600" r="1.651000" /> 
<circle cx="167.980000" cy="63.505600" r="1.651000" /> 
<circle cx="118.980000" cy="121.505600" r="1.651000" /> 
<circle cx="118.980000" cy="63.505600" r="1.651000" /> 
</g>
<g style="fill:#000000; fill-opacity:0.0; 
stroke:#000000; stroke-width:0.120000; stroke-opacity:1; 
stroke-linecap:round; stroke-linejoin:round;">
<path d="M72.270000 52.850000
L72.270000 51.580000
" />
<path d="M72.270000 51.580000
L71.000000 51.580000
" />
<path d="M69.957071 58.310000
L69.502929 58.310000
" />
<path d="M69.957071 57.550000
L69.502929 57.550000
" />
<path d="M69.957071 55.770000
L69.502929 55.770000
" />
<path d="M69.957071 55.010000
L69.502929 55.010000
" />
<path d="M69.890000 53.230000
L69.502929 53.230000
" />
<path d="M69.890000 52.470000
L69.502929 52.470000
" />
<path d="M67.417071 58.310000
L67.020000 58.310000
" />
<path d="M67.417071 57.550000
L67.020000 57.550000
" />
<path d="M67.417071 55.770000
L67.020000 55.770000
" />
<path d="M67.417071 55.010000
L67.020000 55.010000
" />
<path d="M67.417071 53.230000
L67.020000 53.230000
" />
<path d="M67.417071 52.470000
L67.020000 52.470000
" />
<path d="M67.020000 59.260000
L64.360000 59.260000
" />
<path d="M67.020000 56.660000
L64.360000 56.660000
" />
<path d="M67.020000 54.120000
L64.360000 54.120000
" />
<path d="M67.020000 51.520000
L67.020000 59.260000
" />
<path d="M64.360000 59.260000
L64.360000 51.520000
" />
<path d="M64.360000 57.550000
L58.360000 57.550000
" />
<path d="M64.360000 55.010000
L58.360000 55.010000
" />
<path d="M64.360000 53.130000
L58.360000 53.130000
" />
<path d="M64.360000 53.010000
L58.360000 53.010000
" />
<path d="M64.360000 52.890000
L58.360000 52.890000
" />
<path d="M64.360000 52.770000
L58.360000 52.770000
" />
<path d="M64.360000 52.650000
L58.360000 52.650000
" />
<path d="M64.360000 52.530000
L58.360000 52.530000
" />
<path d="M64.360000 52.470000
L58.360000 52.470000
" />
<path d="M64.360000 51.520000
L67.020000 51.520000
" />
<path d="M58.360000 58.310000
L64.360000 58.310000
" />
<path d="M58.360000 57.550000
L58.360000 58.310000
" />
<path d="M58.360000 55.770000
L64.360000 55.770000
" />
<path d="M58.360000 55.010000
L58.360000 55.770000
" />
<path d="M58.360000 53.230000
L64.360000 53.230000
" />
<path d="M58.360000 52.470000
L58.360000 53.230000
" />
<g >
</g>
<g >
</g>
<g >
</g>
<g >
</g>
<g >
</g>
<g >
</g>
<g >
</g>
<g >
</g>
<g >
</g>
<g >
</g>
<g >
</g>
<g >
</g>
<g >
</g>
<g >
</g>
<g >
</g>
<g >
</g>
<g >
</g>
<g >
</g>
<g >
</g>
<g >
</g>
<g >
</g>
<g >
</g>
<g >
</g>
<g >
</g>
<g >
</g>
<g >
</g>
<g >
</g>
<g >
</g>
<g >
</g>
<g >
</g>
<g >
</g>
<g >
</g>
<g >
</g>
<g >
</g>
<g >
</g>
<g >
</g>
<g >
</g>
<g >
</g>
<g >
</g>
<g >
</g>
<g >
</g>
<g >
</g>
<g >
</g>
<g >
</g>
<g >
</g>
<g >
</g>
<g >
</g>
<g >
</g>
<g >
</g>
<g >
</g>
<g >
</g>
<g >
</g>
<g >
</g>
<g >
</g>
<g >
</g>
<g >
</g>
<g >
</g>
<g >
</g>
<g >
</g>
<g >
</g>
<g >
</g>
<g >
</g>
<g >
</g>
<g >
</g>
<g >
</g>
<g >
</g>
<g >
</g>
<g >
</g>
<g >
</g>
<g >
</g>
<g >
</g>
<g >
</g>
<g >
</g>
<g >
</g>
<g >
</g>
<g >
</g>
<g >
</g>
<g >
</g>
<g >
</g>
<g >
</g>
<g >
</g>
<g >
</g>
<g >
</g>
<g >
</g>
<g >
</g>
</g> 
</svg>
