<?xml version="1.0" standalone="no"?>
 <!DOCTYPE svg PUBLIC "-//W3C//DTD SVG 1.1//EN" 
 "http://www.w3.org/Graphics/SVG/1.1/DTD/svg11.dtd"> 
<svg
  xmlns:svg="http://www.w3.org/2000/svg"
  xmlns="http://www.w3.org/2000/svg"
  xmlns:xlink="http://www.w3.org/1999/xlink"
  version="1.1"
  width="17.21cm" height="10.71cm" viewBox="18.95 18.95 172.1 107.1">
<title>SVG Image created as pedalboard-hw-B_SilkS.svg date 2023/06/12 13:56:36 </title>
  <desc>Image generated by PCBNEW </desc>
<g style="fill:#000000; fill-opacity:1.000000;stroke:#000000; stroke-opacity:1.000000;
stroke-linecap:round; stroke-linejoin:round;"
 transform="translate(0 0) scale(1 1)">
</g>
<g style="fill:#000000; fill-opacity:0.0; 
stroke:#000000; stroke-width:0.000000; stroke-opacity:1; 
stroke-linecap:round; stroke-linejoin:round;">
</g>
<g style="fill:#000000; fill-opacity:0.0; 
stroke:#000000; stroke-width:0.150000; stroke-opacity:1; 
stroke-linecap:round; stroke-linejoin:round;">
<g transform="rotate(90.000000 55.321200 71.475600)">
<text x="55.321200" y="71.475600"
transform="scale(-1 1) translate(-110.642400 0)"
textLength="3.222619" font-size="1.333333" lengthAdjust="spacingAndGlyphs"
text-anchor="start" opacity="0">GND</text>
</g>
<g class="stroked-text"><desc>GND</desc>
<path d="M56.403761 70.615011
L56.451380 70.710249
" />
<path d="M56.451380 70.710249
L56.451380 70.853106
" />
<path d="M56.451380 70.853106
L56.403761 70.995963
" />
<path d="M56.403761 70.995963
L56.308523 71.091201
" />
<path d="M56.308523 71.091201
L56.213285 71.138820
" />
<path d="M56.213285 71.138820
L56.022809 71.186439
" />
<path d="M56.022809 71.186439
L55.879952 71.186439
" />
<path d="M55.879952 71.186439
L55.689476 71.138820
" />
<path d="M55.689476 71.138820
L55.594238 71.091201
" />
<path d="M55.594238 71.091201
L55.499000 70.995963
" />
<path d="M55.499000 70.995963
L55.451380 70.853106
" />
<path d="M55.451380 70.853106
L55.451380 70.757868
" />
<path d="M55.451380 70.757868
L55.499000 70.615011
" />
<path d="M55.499000 70.615011
L55.546619 70.567392
" />
<path d="M55.546619 70.567392
L55.879952 70.567392
" />
<path d="M55.879952 70.567392
L55.879952 70.757868
" />
<path d="M55.451380 70.138820
L56.451380 70.138820
" />
<path d="M56.451380 70.138820
L55.451380 69.567392
" />
<path d="M55.451380 69.567392
L56.451380 69.567392
" />
<path d="M55.451380 69.091201
L56.451380 69.091201
" />
<path d="M56.451380 69.091201
L56.451380 68.853106
" />
<path d="M56.451380 68.853106
L56.403761 68.710249
" />
<path d="M56.403761 68.710249
L56.308523 68.615011
" />
<path d="M56.308523 68.615011
L56.213285 68.567392
" />
<path d="M56.213285 68.567392
L56.022809 68.519773
" />
<path d="M56.022809 68.519773
L55.879952 68.519773
" />
<path d="M55.879952 68.519773
L55.689476 68.567392
" />
<path d="M55.689476 68.567392
L55.594238 68.615011
" />
<path d="M55.594238 68.615011
L55.499000 68.710249
" />
<path d="M55.499000 68.710249
L55.451380 68.853106
" />
<path d="M55.451380 68.853106
L55.451380 69.091201
" />
</g><g transform="rotate(90.000000 52.882800 71.374000)">
<text x="52.882800" y="71.374000"
transform="scale(-1 1) translate(-105.765600 0)"
textLength="6.698811" font-size="1.333333" lengthAdjust="spacingAndGlyphs"
text-anchor="start" opacity="0">Data out</text>
</g>
<g class="stroked-text"><desc>Data out</desc>
<path d="M53.012980 71.037220
L54.012980 71.037220
" />
<path d="M54.012980 71.037220
L54.012980 70.799125
" />
<path d="M54.012980 70.799125
L53.965361 70.656268
" />
<path d="M53.965361 70.656268
L53.870123 70.561030
" />
<path d="M53.870123 70.561030
L53.774885 70.513411
" />
<path d="M53.774885 70.513411
L53.584409 70.465792
" />
<path d="M53.584409 70.465792
L53.441552 70.465792
" />
<path d="M53.441552 70.465792
L53.251076 70.513411
" />
<path d="M53.251076 70.513411
L53.155838 70.561030
" />
<path d="M53.155838 70.561030
L53.060600 70.656268
" />
<path d="M53.060600 70.656268
L53.012980 70.799125
" />
<path d="M53.012980 70.799125
L53.012980 71.037220
" />
<path d="M53.012980 69.608649
L53.536790 69.608649
" />
<path d="M53.536790 69.608649
L53.632028 69.656268
" />
<path d="M53.632028 69.656268
L53.679647 69.751506
" />
<path d="M53.679647 69.751506
L53.679647 69.941982
" />
<path d="M53.679647 69.941982
L53.632028 70.037220
" />
<path d="M53.060600 69.608649
L53.012980 69.703887
" />
<path d="M53.012980 69.703887
L53.012980 69.941982
" />
<path d="M53.012980 69.941982
L53.060600 70.037220
" />
<path d="M53.060600 70.037220
L53.155838 70.084839
" />
<path d="M53.155838 70.084839
L53.251076 70.084839
" />
<path d="M53.251076 70.084839
L53.346314 70.037220
" />
<path d="M53.346314 70.037220
L53.393933 69.941982
" />
<path d="M53.393933 69.941982
L53.393933 69.703887
" />
<path d="M53.393933 69.703887
L53.441552 69.608649
" />
<path d="M53.679647 69.275315
L53.679647 68.894363
" />
<path d="M54.012980 69.132458
L53.155838 69.132458
" />
<path d="M53.155838 69.132458
L53.060600 69.084839
" />
<path d="M53.060600 69.084839
L53.012980 68.989601
" />
<path d="M53.012980 68.989601
L53.012980 68.894363
" />
<path d="M53.012980 68.132458
L53.536790 68.132458
" />
<path d="M53.536790 68.132458
L53.632028 68.180077
" />
<path d="M53.632028 68.180077
L53.679647 68.275315
" />
<path d="M53.679647 68.275315
L53.679647 68.465791
" />
<path d="M53.679647 68.465791
L53.632028 68.561029
" />
<path d="M53.060600 68.132458
L53.012980 68.227696
" />
<path d="M53.012980 68.227696
L53.012980 68.465791
" />
<path d="M53.012980 68.465791
L53.060600 68.561029
" />
<path d="M53.060600 68.561029
L53.155838 68.608648
" />
<path d="M53.155838 68.608648
L53.251076 68.608648
" />
<path d="M53.251076 68.608648
L53.346314 68.561029
" />
<path d="M53.346314 68.561029
L53.393933 68.465791
" />
<path d="M53.393933 68.465791
L53.393933 68.227696
" />
<path d="M53.393933 68.227696
L53.441552 68.132458
" />
<path d="M53.012980 66.751505
L53.060600 66.846743
" />
<path d="M53.060600 66.846743
L53.108219 66.894362
" />
<path d="M53.108219 66.894362
L53.203457 66.941981
" />
<path d="M53.203457 66.941981
L53.489171 66.941981
" />
<path d="M53.489171 66.941981
L53.584409 66.894362
" />
<path d="M53.584409 66.894362
L53.632028 66.846743
" />
<path d="M53.632028 66.846743
L53.679647 66.751505
" />
<path d="M53.679647 66.751505
L53.679647 66.608648
" />
<path d="M53.679647 66.608648
L53.632028 66.513410
" />
<path d="M53.632028 66.513410
L53.584409 66.465791
" />
<path d="M53.584409 66.465791
L53.489171 66.418172
" />
<path d="M53.489171 66.418172
L53.203457 66.418172
" />
<path d="M53.203457 66.418172
L53.108219 66.465791
" />
<path d="M53.108219 66.465791
L53.060600 66.513410
" />
<path d="M53.060600 66.513410
L53.012980 66.608648
" />
<path d="M53.012980 66.608648
L53.012980 66.751505
" />
<path d="M53.679647 65.561029
L53.012980 65.561029
" />
<path d="M53.679647 65.989600
L53.155838 65.989600
" />
<path d="M53.155838 65.989600
L53.060600 65.941981
" />
<path d="M53.060600 65.941981
L53.012980 65.846743
" />
<path d="M53.012980 65.846743
L53.012980 65.703886
" />
<path d="M53.012980 65.703886
L53.060600 65.608648
" />
<path d="M53.060600 65.608648
L53.108219 65.561029
" />
<path d="M53.679647 65.227695
L53.679647 64.846743
" />
<path d="M54.012980 65.084838
L53.155838 65.084838
" />
<path d="M53.155838 65.084838
L53.060600 65.037219
" />
<path d="M53.060600 65.037219
L53.012980 64.941981
" />
<path d="M53.012980 64.941981
L53.012980 64.846743
" />
</g><g transform="rotate(-90.000000 71.932800 49.733200)">
<text x="71.932800" y="49.733200"
transform="scale(-1 1) translate(-143.865600 0)"
textLength="1.698809" font-size="1.333333" lengthAdjust="spacingAndGlyphs"
text-anchor="start" opacity="0">IN</text>
</g>
<g class="stroked-text"><desc>IN</desc>
<path d="M71.802619 50.069979
L70.802619 50.069979
" />
<path d="M71.802619 50.546169
L70.802619 50.546169
" />
<path d="M70.802619 50.546169
L71.802619 51.117597
" />
<path d="M71.802619 51.117597
L70.802619 51.117597
" />
</g><g transform="rotate(-90.000000 189.230000 36.576000)">
<text x="189.230000" y="36.576000"
transform="scale(-1 1) translate(-378.460000 0)"
textLength="3.222619" font-size="1.333333" lengthAdjust="spacingAndGlyphs"
text-anchor="start" opacity="0">GND</text>
</g>
<g class="stroked-text"><desc>GND</desc>
<path d="M188.147438 37.436588
L188.099819 37.341350
" />
<path d="M188.099819 37.341350
L188.099819 37.198493
" />
<path d="M188.099819 37.198493
L188.147438 37.055636
" />
<path d="M188.147438 37.055636
L188.242676 36.960398
" />
<path d="M188.242676 36.960398
L188.337914 36.912779
" />
<path d="M188.337914 36.912779
L188.528390 36.865160
" />
<path d="M188.528390 36.865160
L188.671247 36.865160
" />
<path d="M188.671247 36.865160
L188.861723 36.912779
" />
<path d="M188.861723 36.912779
L188.956961 36.960398
" />
<path d="M188.956961 36.960398
L189.052200 37.055636
" />
<path d="M189.052200 37.055636
L189.099819 37.198493
" />
<path d="M189.099819 37.198493
L189.099819 37.293731
" />
<path d="M189.099819 37.293731
L189.052200 37.436588
" />
<path d="M189.052200 37.436588
L189.004580 37.484207
" />
<path d="M189.004580 37.484207
L188.671247 37.484207
" />
<path d="M188.671247 37.484207
L188.671247 37.293731
" />
<path d="M189.099819 37.912779
L188.099819 37.912779
" />
<path d="M188.099819 37.912779
L189.099819 38.484207
" />
<path d="M189.099819 38.484207
L188.099819 38.484207
" />
<path d="M189.099819 38.960398
L188.099819 38.960398
" />
<path d="M188.099819 38.960398
L188.099819 39.198493
" />
<path d="M188.099819 39.198493
L188.147438 39.341350
" />
<path d="M188.147438 39.341350
L188.242676 39.436588
" />
<path d="M188.242676 39.436588
L188.337914 39.484207
" />
<path d="M188.337914 39.484207
L188.528390 39.531826
" />
<path d="M188.528390 39.531826
L188.671247 39.531826
" />
<path d="M188.671247 39.531826
L188.861723 39.484207
" />
<path d="M188.861723 39.484207
L188.956961 39.436588
" />
<path d="M188.956961 39.436588
L189.052200 39.341350
" />
<path d="M189.052200 39.341350
L189.099819 39.198493
" />
<path d="M189.099819 39.198493
L189.099819 38.960398
" />
</g><g transform="rotate(-90.000000 133.460000 50.060000)">
<text x="133.460000" y="50.060000"
transform="scale(-1 1) translate(-266.920000 0)"
textLength="5.746429" font-size="1.333333" lengthAdjust="spacingAndGlyphs"
text-anchor="start" opacity="0">5V PSU</text>
</g>
<g class="stroked-text"><desc>5V PSU</desc>
<path d="M132.329819 50.872969
L132.329819 50.396779
" />
<path d="M132.329819 50.396779
L132.806009 50.349160
" />
<path d="M132.806009 50.349160
L132.758390 50.396779
" />
<path d="M132.758390 50.396779
L132.710771 50.492017
" />
<path d="M132.710771 50.492017
L132.710771 50.730112
" />
<path d="M132.710771 50.730112
L132.758390 50.825350
" />
<path d="M132.758390 50.825350
L132.806009 50.872969
" />
<path d="M132.806009 50.872969
L132.901247 50.920588
" />
<path d="M132.901247 50.920588
L133.139342 50.920588
" />
<path d="M133.139342 50.920588
L133.234580 50.872969
" />
<path d="M133.234580 50.872969
L133.282200 50.825350
" />
<path d="M133.282200 50.825350
L133.329819 50.730112
" />
<path d="M133.329819 50.730112
L133.329819 50.492017
" />
<path d="M133.329819 50.492017
L133.282200 50.396779
" />
<path d="M133.282200 50.396779
L133.234580 50.349160
" />
<path d="M132.329819 51.206303
L133.329819 51.539636
" />
<path d="M133.329819 51.539636
L132.329819 51.872969
" />
<path d="M133.329819 52.968208
L132.329819 52.968208
" />
<path d="M132.329819 52.968208
L132.329819 53.349160
" />
<path d="M132.329819 53.349160
L132.377438 53.444398
" />
<path d="M132.377438 53.444398
L132.425057 53.492017
" />
<path d="M132.425057 53.492017
L132.520295 53.539636
" />
<path d="M132.520295 53.539636
L132.663152 53.539636
" />
<path d="M132.663152 53.539636
L132.758390 53.492017
" />
<path d="M132.758390 53.492017
L132.806009 53.444398
" />
<path d="M132.806009 53.444398
L132.853628 53.349160
" />
<path d="M132.853628 53.349160
L132.853628 52.968208
" />
<path d="M133.282200 53.920589
L133.329819 54.063446
" />
<path d="M133.329819 54.063446
L133.329819 54.301541
" />
<path d="M133.329819 54.301541
L133.282200 54.396779
" />
<path d="M133.282200 54.396779
L133.234580 54.444398
" />
<path d="M133.234580 54.444398
L133.139342 54.492017
" />
<path d="M133.139342 54.492017
L133.044104 54.492017
" />
<path d="M133.044104 54.492017
L132.948866 54.444398
" />
<path d="M132.948866 54.444398
L132.901247 54.396779
" />
<path d="M132.901247 54.396779
L132.853628 54.301541
" />
<path d="M132.853628 54.301541
L132.806009 54.111065
" />
<path d="M132.806009 54.111065
L132.758390 54.015827
" />
<path d="M132.758390 54.015827
L132.710771 53.968208
" />
<path d="M132.710771 53.968208
L132.615533 53.920589
" />
<path d="M132.615533 53.920589
L132.520295 53.920589
" />
<path d="M132.520295 53.920589
L132.425057 53.968208
" />
<path d="M132.425057 53.968208
L132.377438 54.015827
" />
<path d="M132.377438 54.015827
L132.329819 54.111065
" />
<path d="M132.329819 54.111065
L132.329819 54.349160
" />
<path d="M132.329819 54.349160
L132.377438 54.492017
" />
<path d="M132.329819 54.920589
L133.139342 54.920589
" />
<path d="M133.139342 54.920589
L133.234580 54.968208
" />
<path d="M133.234580 54.968208
L133.282200 55.015827
" />
<path d="M133.282200 55.015827
L133.329819 55.111065
" />
<path d="M133.329819 55.111065
L133.329819 55.301541
" />
<path d="M133.329819 55.301541
L133.282200 55.396779
" />
<path d="M133.282200 55.396779
L133.234580 55.444398
" />
<path d="M133.234580 55.444398
L133.139342 55.492017
" />
<path d="M133.139342 55.492017
L132.329819 55.492017
" />
</g><text x="85.570000" y="77.880000"
transform="scale(-1 1) translate(-171.140000 0)"
textLength="13.079764" font-size="1.333333" lengthAdjust="spacingAndGlyphs"
text-anchor="start" opacity="0">Open Pedalboard</text>
<g class="stroked-text"><desc>Open Pedalboard</desc>
<path d="M85.042744 76.749819
L84.852268 76.749819
" />
<path d="M84.852268 76.749819
L84.757030 76.797438
" />
<path d="M84.757030 76.797438
L84.661792 76.892676
" />
<path d="M84.661792 76.892676
L84.614173 77.083152
" />
<path d="M84.614173 77.083152
L84.614173 77.416485
" />
<path d="M84.614173 77.416485
L84.661792 77.606961
" />
<path d="M84.661792 77.606961
L84.757030 77.702200
" />
<path d="M84.757030 77.702200
L84.852268 77.749819
" />
<path d="M84.852268 77.749819
L85.042744 77.749819
" />
<path d="M85.042744 77.749819
L85.137982 77.702200
" />
<path d="M85.137982 77.702200
L85.233220 77.606961
" />
<path d="M85.233220 77.606961
L85.280839 77.416485
" />
<path d="M85.280839 77.416485
L85.280839 77.083152
" />
<path d="M85.280839 77.083152
L85.233220 76.892676
" />
<path d="M85.233220 76.892676
L85.137982 76.797438
" />
<path d="M85.137982 76.797438
L85.042744 76.749819
" />
<path d="M84.185601 77.083152
L84.185601 78.083152
" />
<path d="M84.185601 77.130771
L84.090363 77.083152
" />
<path d="M84.090363 77.083152
L83.899887 77.083152
" />
<path d="M83.899887 77.083152
L83.804649 77.130771
" />
<path d="M83.804649 77.130771
L83.757030 77.178390
" />
<path d="M83.757030 77.178390
L83.709411 77.273628
" />
<path d="M83.709411 77.273628
L83.709411 77.559342
" />
<path d="M83.709411 77.559342
L83.757030 77.654580
" />
<path d="M83.757030 77.654580
L83.804649 77.702200
" />
<path d="M83.804649 77.702200
L83.899887 77.749819
" />
<path d="M83.899887 77.749819
L84.090363 77.749819
" />
<path d="M84.090363 77.749819
L84.185601 77.702200
" />
<path d="M82.899887 77.702200
L82.995125 77.749819
" />
<path d="M82.995125 77.749819
L83.185601 77.749819
" />
<path d="M83.185601 77.749819
L83.280839 77.702200
" />
<path d="M83.280839 77.702200
L83.328458 77.606961
" />
<path d="M83.328458 77.606961
L83.328458 77.226009
" />
<path d="M83.328458 77.226009
L83.280839 77.130771
" />
<path d="M83.280839 77.130771
L83.185601 77.083152
" />
<path d="M83.185601 77.083152
L82.995125 77.083152
" />
<path d="M82.995125 77.083152
L82.899887 77.130771
" />
<path d="M82.899887 77.130771
L82.852268 77.226009
" />
<path d="M82.852268 77.226009
L82.852268 77.321247
" />
<path d="M82.852268 77.321247
L83.328458 77.416485
" />
<path d="M82.423696 77.083152
L82.423696 77.749819
" />
<path d="M82.423696 77.178390
L82.376077 77.130771
" />
<path d="M82.376077 77.130771
L82.280839 77.083152
" />
<path d="M82.280839 77.083152
L82.137982 77.083152
" />
<path d="M82.137982 77.083152
L82.042744 77.130771
" />
<path d="M82.042744 77.130771
L81.995125 77.226009
" />
<path d="M81.995125 77.226009
L81.995125 77.749819
" />
<path d="M80.757029 77.749819
L80.757029 76.749819
" />
<path d="M80.757029 76.749819
L80.376077 76.749819
" />
<path d="M80.376077 76.749819
L80.280839 76.797438
" />
<path d="M80.280839 76.797438
L80.233220 76.845057
" />
<path d="M80.233220 76.845057
L80.185601 76.940295
" />
<path d="M80.185601 76.940295
L80.185601 77.083152
" />
<path d="M80.185601 77.083152
L80.233220 77.178390
" />
<path d="M80.233220 77.178390
L80.280839 77.226009
" />
<path d="M80.280839 77.226009
L80.376077 77.273628
" />
<path d="M80.376077 77.273628
L80.757029 77.273628
" />
<path d="M79.376077 77.702200
L79.471315 77.749819
" />
<path d="M79.471315 77.749819
L79.661791 77.749819
" />
<path d="M79.661791 77.749819
L79.757029 77.702200
" />
<path d="M79.757029 77.702200
L79.804648 77.606961
" />
<path d="M79.804648 77.606961
L79.804648 77.226009
" />
<path d="M79.804648 77.226009
L79.757029 77.130771
" />
<path d="M79.757029 77.130771
L79.661791 77.083152
" />
<path d="M79.661791 77.083152
L79.471315 77.083152
" />
<path d="M79.471315 77.083152
L79.376077 77.130771
" />
<path d="M79.376077 77.130771
L79.328458 77.226009
" />
<path d="M79.328458 77.226009
L79.328458 77.321247
" />
<path d="M79.328458 77.321247
L79.804648 77.416485
" />
<path d="M78.471315 77.749819
L78.471315 76.749819
" />
<path d="M78.471315 77.702200
L78.566553 77.749819
" />
<path d="M78.566553 77.749819
L78.757029 77.749819
" />
<path d="M78.757029 77.749819
L78.852267 77.702200
" />
<path d="M78.852267 77.702200
L78.899886 77.654580
" />
<path d="M78.899886 77.654580
L78.947505 77.559342
" />
<path d="M78.947505 77.559342
L78.947505 77.273628
" />
<path d="M78.947505 77.273628
L78.899886 77.178390
" />
<path d="M78.899886 77.178390
L78.852267 77.130771
" />
<path d="M78.852267 77.130771
L78.757029 77.083152
" />
<path d="M78.757029 77.083152
L78.566553 77.083152
" />
<path d="M78.566553 77.083152
L78.471315 77.130771
" />
<path d="M77.566553 77.749819
L77.566553 77.226009
" />
<path d="M77.566553 77.226009
L77.614172 77.130771
" />
<path d="M77.614172 77.130771
L77.709410 77.083152
" />
<path d="M77.709410 77.083152
L77.899886 77.083152
" />
<path d="M77.899886 77.083152
L77.995124 77.130771
" />
<path d="M77.566553 77.702200
L77.661791 77.749819
" />
<path d="M77.661791 77.749819
L77.899886 77.749819
" />
<path d="M77.899886 77.749819
L77.995124 77.702200
" />
<path d="M77.995124 77.702200
L78.042743 77.606961
" />
<path d="M78.042743 77.606961
L78.042743 77.511723
" />
<path d="M78.042743 77.511723
L77.995124 77.416485
" />
<path d="M77.995124 77.416485
L77.899886 77.368866
" />
<path d="M77.899886 77.368866
L77.661791 77.368866
" />
<path d="M77.661791 77.368866
L77.566553 77.321247
" />
<path d="M76.947505 77.749819
L77.042743 77.702200
" />
<path d="M77.042743 77.702200
L77.090362 77.606961
" />
<path d="M77.090362 77.606961
L77.090362 76.749819
" />
<path d="M76.566552 77.749819
L76.566552 76.749819
" />
<path d="M76.566552 77.130771
L76.471314 77.083152
" />
<path d="M76.471314 77.083152
L76.280838 77.083152
" />
<path d="M76.280838 77.083152
L76.185600 77.130771
" />
<path d="M76.185600 77.130771
L76.137981 77.178390
" />
<path d="M76.137981 77.178390
L76.090362 77.273628
" />
<path d="M76.090362 77.273628
L76.090362 77.559342
" />
<path d="M76.090362 77.559342
L76.137981 77.654580
" />
<path d="M76.137981 77.654580
L76.185600 77.702200
" />
<path d="M76.185600 77.702200
L76.280838 77.749819
" />
<path d="M76.280838 77.749819
L76.471314 77.749819
" />
<path d="M76.471314 77.749819
L76.566552 77.702200
" />
<path d="M75.518933 77.749819
L75.614171 77.702200
" />
<path d="M75.614171 77.702200
L75.661790 77.654580
" />
<path d="M75.661790 77.654580
L75.709409 77.559342
" />
<path d="M75.709409 77.559342
L75.709409 77.273628
" />
<path d="M75.709409 77.273628
L75.661790 77.178390
" />
<path d="M75.661790 77.178390
L75.614171 77.130771
" />
<path d="M75.614171 77.130771
L75.518933 77.083152
" />
<path d="M75.518933 77.083152
L75.376076 77.083152
" />
<path d="M75.376076 77.083152
L75.280838 77.130771
" />
<path d="M75.280838 77.130771
L75.233219 77.178390
" />
<path d="M75.233219 77.178390
L75.185600 77.273628
" />
<path d="M75.185600 77.273628
L75.185600 77.559342
" />
<path d="M75.185600 77.559342
L75.233219 77.654580
" />
<path d="M75.233219 77.654580
L75.280838 77.702200
" />
<path d="M75.280838 77.702200
L75.376076 77.749819
" />
<path d="M75.376076 77.749819
L75.518933 77.749819
" />
<path d="M74.328457 77.749819
L74.328457 77.226009
" />
<path d="M74.328457 77.226009
L74.376076 77.130771
" />
<path d="M74.376076 77.130771
L74.471314 77.083152
" />
<path d="M74.471314 77.083152
L74.661790 77.083152
" />
<path d="M74.661790 77.083152
L74.757028 77.130771
" />
<path d="M74.328457 77.702200
L74.423695 77.749819
" />
<path d="M74.423695 77.749819
L74.661790 77.749819
" />
<path d="M74.661790 77.749819
L74.757028 77.702200
" />
<path d="M74.757028 77.702200
L74.804647 77.606961
" />
<path d="M74.804647 77.606961
L74.804647 77.511723
" />
<path d="M74.804647 77.511723
L74.757028 77.416485
" />
<path d="M74.757028 77.416485
L74.661790 77.368866
" />
<path d="M74.661790 77.368866
L74.423695 77.368866
" />
<path d="M74.423695 77.368866
L74.328457 77.321247
" />
<path d="M73.852266 77.749819
L73.852266 77.083152
" />
<path d="M73.852266 77.273628
L73.804647 77.178390
" />
<path d="M73.804647 77.178390
L73.757028 77.130771
" />
<path d="M73.757028 77.130771
L73.661790 77.083152
" />
<path d="M73.661790 77.083152
L73.566552 77.083152
" />
<path d="M72.804647 77.749819
L72.804647 76.749819
" />
<path d="M72.804647 77.702200
L72.899885 77.749819
" />
<path d="M72.899885 77.749819
L73.090361 77.749819
" />
<path d="M73.090361 77.749819
L73.185599 77.702200
" />
<path d="M73.185599 77.702200
L73.233218 77.654580
" />
<path d="M73.233218 77.654580
L73.280837 77.559342
" />
<path d="M73.280837 77.559342
L73.280837 77.273628
" />
<path d="M73.280837 77.273628
L73.233218 77.178390
" />
<path d="M73.233218 77.178390
L73.185599 77.130771
" />
<path d="M73.185599 77.130771
L73.090361 77.083152
" />
<path d="M73.090361 77.083152
L72.899885 77.083152
" />
<path d="M72.899885 77.083152
L72.804647 77.130771
" />
</g><text x="85.570000" y="79.490000"
transform="scale(-1 1) translate(-171.140000 0)"
textLength="24.127383" font-size="1.333333" lengthAdjust="spacingAndGlyphs"
text-anchor="start" opacity="0">https://github.com/pedalboard</text>
<g class="stroked-text"><desc>https://github.com/pedalboard</desc>
<path d="M85.233220 79.359819
L85.233220 78.359819
" />
<path d="M84.804649 79.359819
L84.804649 78.836009
" />
<path d="M84.804649 78.836009
L84.852268 78.740771
" />
<path d="M84.852268 78.740771
L84.947506 78.693152
" />
<path d="M84.947506 78.693152
L85.090363 78.693152
" />
<path d="M85.090363 78.693152
L85.185601 78.740771
" />
<path d="M85.185601 78.740771
L85.233220 78.788390
" />
<path d="M84.471315 78.693152
L84.090363 78.693152
" />
<path d="M84.328458 78.359819
L84.328458 79.216961
" />
<path d="M84.328458 79.216961
L84.280839 79.312200
" />
<path d="M84.280839 79.312200
L84.185601 79.359819
" />
<path d="M84.185601 79.359819
L84.090363 79.359819
" />
<path d="M83.899886 78.693152
L83.518934 78.693152
" />
<path d="M83.757029 78.359819
L83.757029 79.216961
" />
<path d="M83.757029 79.216961
L83.709410 79.312200
" />
<path d="M83.709410 79.312200
L83.614172 79.359819
" />
<path d="M83.614172 79.359819
L83.518934 79.359819
" />
<path d="M83.185600 78.693152
L83.185600 79.693152
" />
<path d="M83.185600 78.740771
L83.090362 78.693152
" />
<path d="M83.090362 78.693152
L82.899886 78.693152
" />
<path d="M82.899886 78.693152
L82.804648 78.740771
" />
<path d="M82.804648 78.740771
L82.757029 78.788390
" />
<path d="M82.757029 78.788390
L82.709410 78.883628
" />
<path d="M82.709410 78.883628
L82.709410 79.169342
" />
<path d="M82.709410 79.169342
L82.757029 79.264580
" />
<path d="M82.757029 79.264580
L82.804648 79.312200
" />
<path d="M82.804648 79.312200
L82.899886 79.359819
" />
<path d="M82.899886 79.359819
L83.090362 79.359819
" />
<path d="M83.090362 79.359819
L83.185600 79.312200
" />
<path d="M82.328457 79.312200
L82.233219 79.359819
" />
<path d="M82.233219 79.359819
L82.042743 79.359819
" />
<path d="M82.042743 79.359819
L81.947505 79.312200
" />
<path d="M81.947505 79.312200
L81.899886 79.216961
" />
<path d="M81.899886 79.216961
L81.899886 79.169342
" />
<path d="M81.899886 79.169342
L81.947505 79.074104
" />
<path d="M81.947505 79.074104
L82.042743 79.026485
" />
<path d="M82.042743 79.026485
L82.185600 79.026485
" />
<path d="M82.185600 79.026485
L82.280838 78.978866
" />
<path d="M82.280838 78.978866
L82.328457 78.883628
" />
<path d="M82.328457 78.883628
L82.328457 78.836009
" />
<path d="M82.328457 78.836009
L82.280838 78.740771
" />
<path d="M82.280838 78.740771
L82.185600 78.693152
" />
<path d="M82.185600 78.693152
L82.042743 78.693152
" />
<path d="M82.042743 78.693152
L81.947505 78.740771
" />
<path d="M81.471314 79.264580
L81.423695 79.312200
" />
<path d="M81.423695 79.312200
L81.471314 79.359819
" />
<path d="M81.471314 79.359819
L81.518933 79.312200
" />
<path d="M81.518933 79.312200
L81.471314 79.264580
" />
<path d="M81.471314 79.264580
L81.471314 79.359819
" />
<path d="M81.471314 78.740771
L81.423695 78.788390
" />
<path d="M81.423695 78.788390
L81.471314 78.836009
" />
<path d="M81.471314 78.836009
L81.518933 78.788390
" />
<path d="M81.518933 78.788390
L81.471314 78.740771
" />
<path d="M81.471314 78.740771
L81.471314 78.836009
" />
<path d="M80.280839 78.312200
L81.137981 79.597914
" />
<path d="M79.233220 78.312200
L80.090362 79.597914
" />
<path d="M78.471315 78.693152
L78.471315 79.502676
" />
<path d="M78.471315 79.502676
L78.518934 79.597914
" />
<path d="M78.518934 79.597914
L78.566553 79.645533
" />
<path d="M78.566553 79.645533
L78.661791 79.693152
" />
<path d="M78.661791 79.693152
L78.804648 79.693152
" />
<path d="M78.804648 79.693152
L78.899886 79.645533
" />
<path d="M78.471315 79.312200
L78.566553 79.359819
" />
<path d="M78.566553 79.359819
L78.757029 79.359819
" />
<path d="M78.757029 79.359819
L78.852267 79.312200
" />
<path d="M78.852267 79.312200
L78.899886 79.264580
" />
<path d="M78.899886 79.264580
L78.947505 79.169342
" />
<path d="M78.947505 79.169342
L78.947505 78.883628
" />
<path d="M78.947505 78.883628
L78.899886 78.788390
" />
<path d="M78.899886 78.788390
L78.852267 78.740771
" />
<path d="M78.852267 78.740771
L78.757029 78.693152
" />
<path d="M78.757029 78.693152
L78.566553 78.693152
" />
<path d="M78.566553 78.693152
L78.471315 78.740771
" />
<path d="M77.995124 79.359819
L77.995124 78.693152
" />
<path d="M77.995124 78.359819
L78.042743 78.407438
" />
<path d="M78.042743 78.407438
L77.995124 78.455057
" />
<path d="M77.995124 78.455057
L77.947505 78.407438
" />
<path d="M77.947505 78.407438
L77.995124 78.359819
" />
<path d="M77.995124 78.359819
L77.995124 78.455057
" />
<path d="M77.661791 78.693152
L77.280839 78.693152
" />
<path d="M77.518934 78.359819
L77.518934 79.216961
" />
<path d="M77.518934 79.216961
L77.471315 79.312200
" />
<path d="M77.471315 79.312200
L77.376077 79.359819
" />
<path d="M77.376077 79.359819
L77.280839 79.359819
" />
<path d="M76.947505 79.359819
L76.947505 78.359819
" />
<path d="M76.518934 79.359819
L76.518934 78.836009
" />
<path d="M76.518934 78.836009
L76.566553 78.740771
" />
<path d="M76.566553 78.740771
L76.661791 78.693152
" />
<path d="M76.661791 78.693152
L76.804648 78.693152
" />
<path d="M76.804648 78.693152
L76.899886 78.740771
" />
<path d="M76.899886 78.740771
L76.947505 78.788390
" />
<path d="M75.614172 78.693152
L75.614172 79.359819
" />
<path d="M76.042743 78.693152
L76.042743 79.216961
" />
<path d="M76.042743 79.216961
L75.995124 79.312200
" />
<path d="M75.995124 79.312200
L75.899886 79.359819
" />
<path d="M75.899886 79.359819
L75.757029 79.359819
" />
<path d="M75.757029 79.359819
L75.661791 79.312200
" />
<path d="M75.661791 79.312200
L75.614172 79.264580
" />
<path d="M75.137981 79.359819
L75.137981 78.359819
" />
<path d="M75.137981 78.740771
L75.042743 78.693152
" />
<path d="M75.042743 78.693152
L74.852267 78.693152
" />
<path d="M74.852267 78.693152
L74.757029 78.740771
" />
<path d="M74.757029 78.740771
L74.709410 78.788390
" />
<path d="M74.709410 78.788390
L74.661791 78.883628
" />
<path d="M74.661791 78.883628
L74.661791 79.169342
" />
<path d="M74.661791 79.169342
L74.709410 79.264580
" />
<path d="M74.709410 79.264580
L74.757029 79.312200
" />
<path d="M74.757029 79.312200
L74.852267 79.359819
" />
<path d="M74.852267 79.359819
L75.042743 79.359819
" />
<path d="M75.042743 79.359819
L75.137981 79.312200
" />
<path d="M74.233219 79.264580
L74.185600 79.312200
" />
<path d="M74.185600 79.312200
L74.233219 79.359819
" />
<path d="M74.233219 79.359819
L74.280838 79.312200
" />
<path d="M74.280838 79.312200
L74.233219 79.264580
" />
<path d="M74.233219 79.264580
L74.233219 79.359819
" />
<path d="M73.328458 79.312200
L73.423696 79.359819
" />
<path d="M73.423696 79.359819
L73.614172 79.359819
" />
<path d="M73.614172 79.359819
L73.709410 79.312200
" />
<path d="M73.709410 79.312200
L73.757029 79.264580
" />
<path d="M73.757029 79.264580
L73.804648 79.169342
" />
<path d="M73.804648 79.169342
L73.804648 78.883628
" />
<path d="M73.804648 78.883628
L73.757029 78.788390
" />
<path d="M73.757029 78.788390
L73.709410 78.740771
" />
<path d="M73.709410 78.740771
L73.614172 78.693152
" />
<path d="M73.614172 78.693152
L73.423696 78.693152
" />
<path d="M73.423696 78.693152
L73.328458 78.740771
" />
<path d="M72.757029 79.359819
L72.852267 79.312200
" />
<path d="M72.852267 79.312200
L72.899886 79.264580
" />
<path d="M72.899886 79.264580
L72.947505 79.169342
" />
<path d="M72.947505 79.169342
L72.947505 78.883628
" />
<path d="M72.947505 78.883628
L72.899886 78.788390
" />
<path d="M72.899886 78.788390
L72.852267 78.740771
" />
<path d="M72.852267 78.740771
L72.757029 78.693152
" />
<path d="M72.757029 78.693152
L72.614172 78.693152
" />
<path d="M72.614172 78.693152
L72.518934 78.740771
" />
<path d="M72.518934 78.740771
L72.471315 78.788390
" />
<path d="M72.471315 78.788390
L72.423696 78.883628
" />
<path d="M72.423696 78.883628
L72.423696 79.169342
" />
<path d="M72.423696 79.169342
L72.471315 79.264580
" />
<path d="M72.471315 79.264580
L72.518934 79.312200
" />
<path d="M72.518934 79.312200
L72.614172 79.359819
" />
<path d="M72.614172 79.359819
L72.757029 79.359819
" />
<path d="M71.995124 79.359819
L71.995124 78.693152
" />
<path d="M71.995124 78.788390
L71.947505 78.740771
" />
<path d="M71.947505 78.740771
L71.852267 78.693152
" />
<path d="M71.852267 78.693152
L71.709410 78.693152
" />
<path d="M71.709410 78.693152
L71.614172 78.740771
" />
<path d="M71.614172 78.740771
L71.566553 78.836009
" />
<path d="M71.566553 78.836009
L71.566553 79.359819
" />
<path d="M71.566553 78.836009
L71.518934 78.740771
" />
<path d="M71.518934 78.740771
L71.423696 78.693152
" />
<path d="M71.423696 78.693152
L71.280839 78.693152
" />
<path d="M71.280839 78.693152
L71.185600 78.740771
" />
<path d="M71.185600 78.740771
L71.137981 78.836009
" />
<path d="M71.137981 78.836009
L71.137981 79.359819
" />
<path d="M69.947506 78.312200
L70.804648 79.597914
" />
<path d="M69.614172 78.693152
L69.614172 79.693152
" />
<path d="M69.614172 78.740771
L69.518934 78.693152
" />
<path d="M69.518934 78.693152
L69.328458 78.693152
" />
<path d="M69.328458 78.693152
L69.233220 78.740771
" />
<path d="M69.233220 78.740771
L69.185601 78.788390
" />
<path d="M69.185601 78.788390
L69.137982 78.883628
" />
<path d="M69.137982 78.883628
L69.137982 79.169342
" />
<path d="M69.137982 79.169342
L69.185601 79.264580
" />
<path d="M69.185601 79.264580
L69.233220 79.312200
" />
<path d="M69.233220 79.312200
L69.328458 79.359819
" />
<path d="M69.328458 79.359819
L69.518934 79.359819
" />
<path d="M69.518934 79.359819
L69.614172 79.312200
" />
<path d="M68.328458 79.312200
L68.423696 79.359819
" />
<path d="M68.423696 79.359819
L68.614172 79.359819
" />
<path d="M68.614172 79.359819
L68.709410 79.312200
" />
<path d="M68.709410 79.312200
L68.757029 79.216961
" />
<path d="M68.757029 79.216961
L68.757029 78.836009
" />
<path d="M68.757029 78.836009
L68.709410 78.740771
" />
<path d="M68.709410 78.740771
L68.614172 78.693152
" />
<path d="M68.614172 78.693152
L68.423696 78.693152
" />
<path d="M68.423696 78.693152
L68.328458 78.740771
" />
<path d="M68.328458 78.740771
L68.280839 78.836009
" />
<path d="M68.280839 78.836009
L68.280839 78.931247
" />
<path d="M68.280839 78.931247
L68.757029 79.026485
" />
<path d="M67.423696 79.359819
L67.423696 78.359819
" />
<path d="M67.423696 79.312200
L67.518934 79.359819
" />
<path d="M67.518934 79.359819
L67.709410 79.359819
" />
<path d="M67.709410 79.359819
L67.804648 79.312200
" />
<path d="M67.804648 79.312200
L67.852267 79.264580
" />
<path d="M67.852267 79.264580
L67.899886 79.169342
" />
<path d="M67.899886 79.169342
L67.899886 78.883628
" />
<path d="M67.899886 78.883628
L67.852267 78.788390
" />
<path d="M67.852267 78.788390
L67.804648 78.740771
" />
<path d="M67.804648 78.740771
L67.709410 78.693152
" />
<path d="M67.709410 78.693152
L67.518934 78.693152
" />
<path d="M67.518934 78.693152
L67.423696 78.740771
" />
<path d="M66.518934 79.359819
L66.518934 78.836009
" />
<path d="M66.518934 78.836009
L66.566553 78.740771
" />
<path d="M66.566553 78.740771
L66.661791 78.693152
" />
<path d="M66.661791 78.693152
L66.852267 78.693152
" />
<path d="M66.852267 78.693152
L66.947505 78.740771
" />
<path d="M66.518934 79.312200
L66.614172 79.359819
" />
<path d="M66.614172 79.359819
L66.852267 79.359819
" />
<path d="M66.852267 79.359819
L66.947505 79.312200
" />
<path d="M66.947505 79.312200
L66.995124 79.216961
" />
<path d="M66.995124 79.216961
L66.995124 79.121723
" />
<path d="M66.995124 79.121723
L66.947505 79.026485
" />
<path d="M66.947505 79.026485
L66.852267 78.978866
" />
<path d="M66.852267 78.978866
L66.614172 78.978866
" />
<path d="M66.614172 78.978866
L66.518934 78.931247
" />
<path d="M65.899886 79.359819
L65.995124 79.312200
" />
<path d="M65.995124 79.312200
L66.042743 79.216961
" />
<path d="M66.042743 79.216961
L66.042743 78.359819
" />
<path d="M65.518933 79.359819
L65.518933 78.359819
" />
<path d="M65.518933 78.740771
L65.423695 78.693152
" />
<path d="M65.423695 78.693152
L65.233219 78.693152
" />
<path d="M65.233219 78.693152
L65.137981 78.740771
" />
<path d="M65.137981 78.740771
L65.090362 78.788390
" />
<path d="M65.090362 78.788390
L65.042743 78.883628
" />
<path d="M65.042743 78.883628
L65.042743 79.169342
" />
<path d="M65.042743 79.169342
L65.090362 79.264580
" />
<path d="M65.090362 79.264580
L65.137981 79.312200
" />
<path d="M65.137981 79.312200
L65.233219 79.359819
" />
<path d="M65.233219 79.359819
L65.423695 79.359819
" />
<path d="M65.423695 79.359819
L65.518933 79.312200
" />
<path d="M64.471314 79.359819
L64.566552 79.312200
" />
<path d="M64.566552 79.312200
L64.614171 79.264580
" />
<path d="M64.614171 79.264580
L64.661790 79.169342
" />
<path d="M64.661790 79.169342
L64.661790 78.883628
" />
<path d="M64.661790 78.883628
L64.614171 78.788390
" />
<path d="M64.614171 78.788390
L64.566552 78.740771
" />
<path d="M64.566552 78.740771
L64.471314 78.693152
" />
<path d="M64.471314 78.693152
L64.328457 78.693152
" />
<path d="M64.328457 78.693152
L64.233219 78.740771
" />
<path d="M64.233219 78.740771
L64.185600 78.788390
" />
<path d="M64.185600 78.788390
L64.137981 78.883628
" />
<path d="M64.137981 78.883628
L64.137981 79.169342
" />
<path d="M64.137981 79.169342
L64.185600 79.264580
" />
<path d="M64.185600 79.264580
L64.233219 79.312200
" />
<path d="M64.233219 79.312200
L64.328457 79.359819
" />
<path d="M64.328457 79.359819
L64.471314 79.359819
" />
<path d="M63.280838 79.359819
L63.280838 78.836009
" />
<path d="M63.280838 78.836009
L63.328457 78.740771
" />
<path d="M63.328457 78.740771
L63.423695 78.693152
" />
<path d="M63.423695 78.693152
L63.614171 78.693152
" />
<path d="M63.614171 78.693152
L63.709409 78.740771
" />
<path d="M63.280838 79.312200
L63.376076 79.359819
" />
<path d="M63.376076 79.359819
L63.614171 79.359819
" />
<path d="M63.614171 79.359819
L63.709409 79.312200
" />
<path d="M63.709409 79.312200
L63.757028 79.216961
" />
<path d="M63.757028 79.216961
L63.757028 79.121723
" />
<path d="M63.757028 79.121723
L63.709409 79.026485
" />
<path d="M63.709409 79.026485
L63.614171 78.978866
" />
<path d="M63.614171 78.978866
L63.376076 78.978866
" />
<path d="M63.376076 78.978866
L63.280838 78.931247
" />
<path d="M62.804647 79.359819
L62.804647 78.693152
" />
<path d="M62.804647 78.883628
L62.757028 78.788390
" />
<path d="M62.757028 78.788390
L62.709409 78.740771
" />
<path d="M62.709409 78.740771
L62.614171 78.693152
" />
<path d="M62.614171 78.693152
L62.518933 78.693152
" />
<path d="M61.757028 79.359819
L61.757028 78.359819
" />
<path d="M61.757028 79.312200
L61.852266 79.359819
" />
<path d="M61.852266 79.359819
L62.042742 79.359819
" />
<path d="M62.042742 79.359819
L62.137980 79.312200
" />
<path d="M62.137980 79.312200
L62.185599 79.264580
" />
<path d="M62.185599 79.264580
L62.233218 79.169342
" />
<path d="M62.233218 79.169342
L62.233218 78.883628
" />
<path d="M62.233218 78.883628
L62.185599 78.788390
" />
<path d="M62.185599 78.788390
L62.137980 78.740771
" />
<path d="M62.137980 78.740771
L62.042742 78.693152
" />
<path d="M62.042742 78.693152
L61.852266 78.693152
" />
<path d="M61.852266 78.693152
L61.757028 78.740771
" />
</g><text x="85.570000" y="81.100000"
transform="scale(-1 1) translate(-171.140000 0)"
textLength="8.222618" font-size="1.333333" lengthAdjust="spacingAndGlyphs"
text-anchor="start" opacity="0">BCB: 2.0.0</text>
<g class="stroked-text"><desc>BCB: 2.0.0</desc>
<path d="M84.899887 80.446009
L84.757030 80.493628
" />
<path d="M84.757030 80.493628
L84.709411 80.541247
" />
<path d="M84.709411 80.541247
L84.661792 80.636485
" />
<path d="M84.661792 80.636485
L84.661792 80.779342
" />
<path d="M84.661792 80.779342
L84.709411 80.874580
" />
<path d="M84.709411 80.874580
L84.757030 80.922200
" />
<path d="M84.757030 80.922200
L84.852268 80.969819
" />
<path d="M84.852268 80.969819
L85.233220 80.969819
" />
<path d="M85.233220 80.969819
L85.233220 79.969819
" />
<path d="M85.233220 79.969819
L84.899887 79.969819
" />
<path d="M84.899887 79.969819
L84.804649 80.017438
" />
<path d="M84.804649 80.017438
L84.757030 80.065057
" />
<path d="M84.757030 80.065057
L84.709411 80.160295
" />
<path d="M84.709411 80.160295
L84.709411 80.255533
" />
<path d="M84.709411 80.255533
L84.757030 80.350771
" />
<path d="M84.757030 80.350771
L84.804649 80.398390
" />
<path d="M84.804649 80.398390
L84.899887 80.446009
" />
<path d="M84.899887 80.446009
L85.233220 80.446009
" />
<path d="M83.661792 80.874580
L83.709411 80.922200
" />
<path d="M83.709411 80.922200
L83.852268 80.969819
" />
<path d="M83.852268 80.969819
L83.947506 80.969819
" />
<path d="M83.947506 80.969819
L84.090363 80.922200
" />
<path d="M84.090363 80.922200
L84.185601 80.826961
" />
<path d="M84.185601 80.826961
L84.233220 80.731723
" />
<path d="M84.233220 80.731723
L84.280839 80.541247
" />
<path d="M84.280839 80.541247
L84.280839 80.398390
" />
<path d="M84.280839 80.398390
L84.233220 80.207914
" />
<path d="M84.233220 80.207914
L84.185601 80.112676
" />
<path d="M84.185601 80.112676
L84.090363 80.017438
" />
<path d="M84.090363 80.017438
L83.947506 79.969819
" />
<path d="M83.947506 79.969819
L83.852268 79.969819
" />
<path d="M83.852268 79.969819
L83.709411 80.017438
" />
<path d="M83.709411 80.017438
L83.661792 80.065057
" />
<path d="M82.899887 80.446009
L82.757030 80.493628
" />
<path d="M82.757030 80.493628
L82.709411 80.541247
" />
<path d="M82.709411 80.541247
L82.661792 80.636485
" />
<path d="M82.661792 80.636485
L82.661792 80.779342
" />
<path d="M82.661792 80.779342
L82.709411 80.874580
" />
<path d="M82.709411 80.874580
L82.757030 80.922200
" />
<path d="M82.757030 80.922200
L82.852268 80.969819
" />
<path d="M82.852268 80.969819
L83.233220 80.969819
" />
<path d="M83.233220 80.969819
L83.233220 79.969819
" />
<path d="M83.233220 79.969819
L82.899887 79.969819
" />
<path d="M82.899887 79.969819
L82.804649 80.017438
" />
<path d="M82.804649 80.017438
L82.757030 80.065057
" />
<path d="M82.757030 80.065057
L82.709411 80.160295
" />
<path d="M82.709411 80.160295
L82.709411 80.255533
" />
<path d="M82.709411 80.255533
L82.757030 80.350771
" />
<path d="M82.757030 80.350771
L82.804649 80.398390
" />
<path d="M82.804649 80.398390
L82.899887 80.446009
" />
<path d="M82.899887 80.446009
L83.233220 80.446009
" />
<path d="M82.233220 80.874580
L82.185601 80.922200
" />
<path d="M82.185601 80.922200
L82.233220 80.969819
" />
<path d="M82.233220 80.969819
L82.280839 80.922200
" />
<path d="M82.280839 80.922200
L82.233220 80.874580
" />
<path d="M82.233220 80.874580
L82.233220 80.969819
" />
<path d="M82.233220 80.350771
L82.185601 80.398390
" />
<path d="M82.185601 80.398390
L82.233220 80.446009
" />
<path d="M82.233220 80.446009
L82.280839 80.398390
" />
<path d="M82.280839 80.398390
L82.233220 80.350771
" />
<path d="M82.233220 80.350771
L82.233220 80.446009
" />
<path d="M81.042744 80.065057
L80.995125 80.017438
" />
<path d="M80.995125 80.017438
L80.899887 79.969819
" />
<path d="M80.899887 79.969819
L80.661792 79.969819
" />
<path d="M80.661792 79.969819
L80.566554 80.017438
" />
<path d="M80.566554 80.017438
L80.518935 80.065057
" />
<path d="M80.518935 80.065057
L80.471316 80.160295
" />
<path d="M80.471316 80.160295
L80.471316 80.255533
" />
<path d="M80.471316 80.255533
L80.518935 80.398390
" />
<path d="M80.518935 80.398390
L81.090363 80.969819
" />
<path d="M81.090363 80.969819
L80.471316 80.969819
" />
<path d="M80.042744 80.874580
L79.995125 80.922200
" />
<path d="M79.995125 80.922200
L80.042744 80.969819
" />
<path d="M80.042744 80.969819
L80.090363 80.922200
" />
<path d="M80.090363 80.922200
L80.042744 80.874580
" />
<path d="M80.042744 80.874580
L80.042744 80.969819
" />
<path d="M79.376078 79.969819
L79.280840 79.969819
" />
<path d="M79.280840 79.969819
L79.185602 80.017438
" />
<path d="M79.185602 80.017438
L79.137983 80.065057
" />
<path d="M79.137983 80.065057
L79.090364 80.160295
" />
<path d="M79.090364 80.160295
L79.042745 80.350771
" />
<path d="M79.042745 80.350771
L79.042745 80.588866
" />
<path d="M79.042745 80.588866
L79.090364 80.779342
" />
<path d="M79.090364 80.779342
L79.137983 80.874580
" />
<path d="M79.137983 80.874580
L79.185602 80.922200
" />
<path d="M79.185602 80.922200
L79.280840 80.969819
" />
<path d="M79.280840 80.969819
L79.376078 80.969819
" />
<path d="M79.376078 80.969819
L79.471316 80.922200
" />
<path d="M79.471316 80.922200
L79.518935 80.874580
" />
<path d="M79.518935 80.874580
L79.566554 80.779342
" />
<path d="M79.566554 80.779342
L79.614173 80.588866
" />
<path d="M79.614173 80.588866
L79.614173 80.350771
" />
<path d="M79.614173 80.350771
L79.566554 80.160295
" />
<path d="M79.566554 80.160295
L79.518935 80.065057
" />
<path d="M79.518935 80.065057
L79.471316 80.017438
" />
<path d="M79.471316 80.017438
L79.376078 79.969819
" />
<path d="M78.614173 80.874580
L78.566554 80.922200
" />
<path d="M78.566554 80.922200
L78.614173 80.969819
" />
<path d="M78.614173 80.969819
L78.661792 80.922200
" />
<path d="M78.661792 80.922200
L78.614173 80.874580
" />
<path d="M78.614173 80.874580
L78.614173 80.969819
" />
<path d="M77.947507 79.969819
L77.852269 79.969819
" />
<path d="M77.852269 79.969819
L77.757031 80.017438
" />
<path d="M77.757031 80.017438
L77.709412 80.065057
" />
<path d="M77.709412 80.065057
L77.661793 80.160295
" />
<path d="M77.661793 80.160295
L77.614174 80.350771
" />
<path d="M77.614174 80.350771
L77.614174 80.588866
" />
<path d="M77.614174 80.588866
L77.661793 80.779342
" />
<path d="M77.661793 80.779342
L77.709412 80.874580
" />
<path d="M77.709412 80.874580
L77.757031 80.922200
" />
<path d="M77.757031 80.922200
L77.852269 80.969819
" />
<path d="M77.852269 80.969819
L77.947507 80.969819
" />
<path d="M77.947507 80.969819
L78.042745 80.922200
" />
<path d="M78.042745 80.922200
L78.090364 80.874580
" />
<path d="M78.090364 80.874580
L78.137983 80.779342
" />
<path d="M78.137983 80.779342
L78.185602 80.588866
" />
<path d="M78.185602 80.588866
L78.185602 80.350771
" />
<path d="M78.185602 80.350771
L78.137983 80.160295
" />
<path d="M78.137983 80.160295
L78.090364 80.065057
" />
<path d="M78.090364 80.065057
L78.042745 80.017438
" />
<path d="M78.042745 80.017438
L77.947507 79.969819
" />
</g><g transform="rotate(-270.000000 50.000000 71.323200)">
<text x="50.000000" y="71.323200"
transform="scale(-1 1) translate(-100.000000 0)"
textLength="3.984524" font-size="1.333333" lengthAdjust="spacingAndGlyphs"
text-anchor="start" opacity="0">+5V </text>
</g>
<g class="stroked-text"><desc>+5V </desc>
<path d="M50.511133 70.986420
L50.511133 70.224516
" />
<path d="M50.130180 70.605468
L50.892085 70.605468
" />
<path d="M51.130180 69.272135
L51.130180 69.748325
" />
<path d="M51.130180 69.748325
L50.653990 69.795944
" />
<path d="M50.653990 69.795944
L50.701609 69.748325
" />
<path d="M50.701609 69.748325
L50.749228 69.653087
" />
<path d="M50.749228 69.653087
L50.749228 69.414992
" />
<path d="M50.749228 69.414992
L50.701609 69.319754
" />
<path d="M50.701609 69.319754
L50.653990 69.272135
" />
<path d="M50.653990 69.272135
L50.558752 69.224516
" />
<path d="M50.558752 69.224516
L50.320657 69.224516
" />
<path d="M50.320657 69.224516
L50.225419 69.272135
" />
<path d="M50.225419 69.272135
L50.177800 69.319754
" />
<path d="M50.177800 69.319754
L50.130180 69.414992
" />
<path d="M50.130180 69.414992
L50.130180 69.653087
" />
<path d="M50.130180 69.653087
L50.177800 69.748325
" />
<path d="M50.177800 69.748325
L50.225419 69.795944
" />
<path d="M51.130180 68.938801
L50.130180 68.605468
" />
<path d="M50.130180 68.605468
L51.130180 68.272135
" />
</g><text x="65.910000" y="51.050000"
transform="scale(-1 1) translate(-131.820000 0)"
textLength="4.717858" font-size="2.000000" lengthAdjust="spacingAndGlyphs"
text-anchor="start" opacity="0">MIDI</text>
<g class="stroked-text"><desc>MIDI</desc>
<path d="M65.454173 50.858628
L65.454173 49.358628
" />
<path d="M65.454173 49.358628
L64.954173 50.430057
" />
<path d="M64.954173 50.430057
L64.454173 49.358628
" />
<path d="M64.454173 49.358628
L64.454173 50.858628
" />
<path d="M63.739887 50.858628
L63.739887 49.358628
" />
<path d="M63.025601 50.858628
L63.025601 49.358628
" />
<path d="M63.025601 49.358628
L62.668458 49.358628
" />
<path d="M62.668458 49.358628
L62.454172 49.430057
" />
<path d="M62.454172 49.430057
L62.311315 49.572914
" />
<path d="M62.311315 49.572914
L62.239886 49.715771
" />
<path d="M62.239886 49.715771
L62.168458 50.001485
" />
<path d="M62.168458 50.001485
L62.168458 50.215771
" />
<path d="M62.168458 50.215771
L62.239886 50.501485
" />
<path d="M62.239886 50.501485
L62.311315 50.644342
" />
<path d="M62.311315 50.644342
L62.454172 50.787200
" />
<path d="M62.454172 50.787200
L62.668458 50.858628
" />
<path d="M62.668458 50.858628
L63.025601 50.858628
" />
<path d="M61.525601 50.858628
L61.525601 49.358628
" />
</g><g transform="rotate(-270.000000 134.874000 45.669200)">
<text x="134.874000" y="45.669200"
transform="scale(-1 1) translate(-269.748000 0)"
textLength="1.555952" font-size="1.333333" lengthAdjust="spacingAndGlyphs"
text-anchor="start" opacity="0">in</text>
</g>
<g class="stroked-text"><desc>in</desc>
<path d="M135.004180 45.332420
L135.670847 45.332420
" />
<path d="M136.004180 45.332420
L135.956561 45.380039
" />
<path d="M135.956561 45.380039
L135.908942 45.332420
" />
<path d="M135.908942 45.332420
L135.956561 45.284801
" />
<path d="M135.956561 45.284801
L136.004180 45.332420
" />
<path d="M136.004180 45.332420
L135.908942 45.332420
" />
<path d="M135.670847 44.856230
L135.004180 44.856230
" />
<path d="M135.575609 44.856230
L135.623228 44.808611
" />
<path d="M135.623228 44.808611
L135.670847 44.713373
" />
<path d="M135.670847 44.713373
L135.670847 44.570516
" />
<path d="M135.670847 44.570516
L135.623228 44.475278
" />
<path d="M135.623228 44.475278
L135.527990 44.427659
" />
<path d="M135.527990 44.427659
L135.004180 44.427659
" />
</g><text x="49.225200" y="83.566000"
transform="scale(-1 1) translate(-98.450400 0)"
textLength="6.508334" font-size="1.333333" lengthAdjust="spacingAndGlyphs"
text-anchor="start" opacity="0">LED OUT</text>
<g class="stroked-text"><desc>LED OUT</desc>
<path d="M48.412230 83.435819
L48.888420 83.435819
" />
<path d="M48.888420 83.435819
L48.888420 82.435819
" />
<path d="M48.078896 82.912009
L47.745563 82.912009
" />
<path d="M47.602706 83.435819
L48.078896 83.435819
" />
<path d="M48.078896 83.435819
L48.078896 82.435819
" />
<path d="M48.078896 82.435819
L47.602706 82.435819
" />
<path d="M47.174134 83.435819
L47.174134 82.435819
" />
<path d="M47.174134 82.435819
L46.936039 82.435819
" />
<path d="M46.936039 82.435819
L46.793182 82.483438
" />
<path d="M46.793182 82.483438
L46.697944 82.578676
" />
<path d="M46.697944 82.578676
L46.650325 82.673914
" />
<path d="M46.650325 82.673914
L46.602706 82.864390
" />
<path d="M46.602706 82.864390
L46.602706 83.007247
" />
<path d="M46.602706 83.007247
L46.650325 83.197723
" />
<path d="M46.650325 83.197723
L46.697944 83.292961
" />
<path d="M46.697944 83.292961
L46.793182 83.388200
" />
<path d="M46.793182 83.388200
L46.936039 83.435819
" />
<path d="M46.936039 83.435819
L47.174134 83.435819
" />
<path d="M45.221753 82.435819
L45.031277 82.435819
" />
<path d="M45.031277 82.435819
L44.936039 82.483438
" />
<path d="M44.936039 82.483438
L44.840801 82.578676
" />
<path d="M44.840801 82.578676
L44.793182 82.769152
" />
<path d="M44.793182 82.769152
L44.793182 83.102485
" />
<path d="M44.793182 83.102485
L44.840801 83.292961
" />
<path d="M44.840801 83.292961
L44.936039 83.388200
" />
<path d="M44.936039 83.388200
L45.031277 83.435819
" />
<path d="M45.031277 83.435819
L45.221753 83.435819
" />
<path d="M45.221753 83.435819
L45.316991 83.388200
" />
<path d="M45.316991 83.388200
L45.412229 83.292961
" />
<path d="M45.412229 83.292961
L45.459848 83.102485
" />
<path d="M45.459848 83.102485
L45.459848 82.769152
" />
<path d="M45.459848 82.769152
L45.412229 82.578676
" />
<path d="M45.412229 82.578676
L45.316991 82.483438
" />
<path d="M45.316991 82.483438
L45.221753 82.435819
" />
<path d="M44.364610 82.435819
L44.364610 83.245342
" />
<path d="M44.364610 83.245342
L44.316991 83.340580
" />
<path d="M44.316991 83.340580
L44.269372 83.388200
" />
<path d="M44.269372 83.388200
L44.174134 83.435819
" />
<path d="M44.174134 83.435819
L43.983658 83.435819
" />
<path d="M43.983658 83.435819
L43.888420 83.388200
" />
<path d="M43.888420 83.388200
L43.840801 83.340580
" />
<path d="M43.840801 83.340580
L43.793182 83.245342
" />
<path d="M43.793182 83.245342
L43.793182 82.435819
" />
<path d="M43.459848 82.435819
L42.888420 82.435819
" />
<path d="M43.174134 83.435819
L43.174134 82.435819
" />
</g><g transform="rotate(-90.000000 182.778400 36.779200)">
<text x="182.778400" y="36.779200"
transform="scale(-1 1) translate(-365.556800 0)"
textLength="1.698809" font-size="1.333333" lengthAdjust="spacingAndGlyphs"
text-anchor="start" opacity="0">IN</text>
</g>
<g class="stroked-text"><desc>IN</desc>
<path d="M182.648219 37.115979
L181.648219 37.115979
" />
<path d="M182.648219 37.592169
L181.648219 37.592169
" />
<path d="M181.648219 37.592169
L182.648219 38.163597
" />
<path d="M182.648219 38.163597
L181.648219 38.163597
" />
</g><g transform="rotate(90.000000 67.665600 51.866800)">
<text x="67.665600" y="51.866800"
transform="scale(-1 1) translate(-135.331200 0)"
textLength="3.032143" font-size="1.333333" lengthAdjust="spacingAndGlyphs"
text-anchor="start" opacity="0">OUT</text>
</g>
<g class="stroked-text"><desc>OUT</desc>
<path d="M68.795780 51.339544
L68.795780 51.149068
" />
<path d="M68.795780 51.149068
L68.748161 51.053830
" />
<path d="M68.748161 51.053830
L68.652923 50.958592
" />
<path d="M68.652923 50.958592
L68.462447 50.910973
" />
<path d="M68.462447 50.910973
L68.129114 50.910973
" />
<path d="M68.129114 50.910973
L67.938638 50.958592
" />
<path d="M67.938638 50.958592
L67.843400 51.053830
" />
<path d="M67.843400 51.053830
L67.795780 51.149068
" />
<path d="M67.795780 51.149068
L67.795780 51.339544
" />
<path d="M67.795780 51.339544
L67.843400 51.434782
" />
<path d="M67.843400 51.434782
L67.938638 51.530020
" />
<path d="M67.938638 51.530020
L68.129114 51.577639
" />
<path d="M68.129114 51.577639
L68.462447 51.577639
" />
<path d="M68.462447 51.577639
L68.652923 51.530020
" />
<path d="M68.652923 51.530020
L68.748161 51.434782
" />
<path d="M68.748161 51.434782
L68.795780 51.339544
" />
<path d="M68.795780 50.482401
L67.986257 50.482401
" />
<path d="M67.986257 50.482401
L67.891019 50.434782
" />
<path d="M67.891019 50.434782
L67.843400 50.387163
" />
<path d="M67.843400 50.387163
L67.795780 50.291925
" />
<path d="M67.795780 50.291925
L67.795780 50.101449
" />
<path d="M67.795780 50.101449
L67.843400 50.006211
" />
<path d="M67.843400 50.006211
L67.891019 49.958592
" />
<path d="M67.891019 49.958592
L67.986257 49.910973
" />
<path d="M67.986257 49.910973
L68.795780 49.910973
" />
<path d="M68.795780 49.577639
L68.795780 49.006211
" />
<path d="M67.795780 49.291925
L68.795780 49.291925
" />
</g><g transform="rotate(-90.000000 176.326800 36.677600)">
<text x="176.326800" y="36.677600"
transform="scale(-1 1) translate(-352.653600 0)"
textLength="3.794048" font-size="1.333333" lengthAdjust="spacingAndGlyphs"
text-anchor="start" opacity="0">VREF</text>
</g>
<g class="stroked-text"><desc>VREF</desc>
<path d="M175.196619 36.871522
L176.196619 37.204855
" />
<path d="M176.196619 37.204855
L175.196619 37.538188
" />
<path d="M176.196619 38.442950
L175.720428 38.109617
" />
<path d="M176.196619 37.871522
L175.196619 37.871522
" />
<path d="M175.196619 37.871522
L175.196619 38.252474
" />
<path d="M175.196619 38.252474
L175.244238 38.347712
" />
<path d="M175.244238 38.347712
L175.291857 38.395331
" />
<path d="M175.291857 38.395331
L175.387095 38.442950
" />
<path d="M175.387095 38.442950
L175.529952 38.442950
" />
<path d="M175.529952 38.442950
L175.625190 38.395331
" />
<path d="M175.625190 38.395331
L175.672809 38.347712
" />
<path d="M175.672809 38.347712
L175.720428 38.252474
" />
<path d="M175.720428 38.252474
L175.720428 37.871522
" />
<path d="M175.672809 38.871522
L175.672809 39.204855
" />
<path d="M176.196619 39.347712
L176.196619 38.871522
" />
<path d="M176.196619 38.871522
L175.196619 38.871522
" />
<path d="M175.196619 38.871522
L175.196619 39.347712
" />
<path d="M175.672809 40.109617
L175.672809 39.776284
" />
<path d="M176.196619 39.776284
L175.196619 39.776284
" />
<path d="M175.196619 39.776284
L175.196619 40.252474
" />
</g><g transform="rotate(90.000000 137.464800 45.770800)">
<text x="137.464800" y="45.770800"
transform="scale(-1 1) translate(-274.929600 0)"
textLength="2.555953" font-size="1.333333" lengthAdjust="spacingAndGlyphs"
text-anchor="start" opacity="0">out</text>
</g>
<g class="stroked-text"><desc>out</desc>
<path d="M137.594980 45.291163
L137.642600 45.386401
" />
<path d="M137.642600 45.386401
L137.690219 45.434020
" />
<path d="M137.690219 45.434020
L137.785457 45.481639
" />
<path d="M137.785457 45.481639
L138.071171 45.481639
" />
<path d="M138.071171 45.481639
L138.166409 45.434020
" />
<path d="M138.166409 45.434020
L138.214028 45.386401
" />
<path d="M138.214028 45.386401
L138.261647 45.291163
" />
<path d="M138.261647 45.291163
L138.261647 45.148306
" />
<path d="M138.261647 45.148306
L138.214028 45.053068
" />
<path d="M138.214028 45.053068
L138.166409 45.005449
" />
<path d="M138.166409 45.005449
L138.071171 44.957830
" />
<path d="M138.071171 44.957830
L137.785457 44.957830
" />
<path d="M137.785457 44.957830
L137.690219 45.005449
" />
<path d="M137.690219 45.005449
L137.642600 45.053068
" />
<path d="M137.642600 45.053068
L137.594980 45.148306
" />
<path d="M137.594980 45.148306
L137.594980 45.291163
" />
<path d="M138.261647 44.100687
L137.594980 44.100687
" />
<path d="M138.261647 44.529258
L137.737838 44.529258
" />
<path d="M137.737838 44.529258
L137.642600 44.481639
" />
<path d="M137.642600 44.481639
L137.594980 44.386401
" />
<path d="M137.594980 44.386401
L137.594980 44.243544
" />
<path d="M137.594980 44.243544
L137.642600 44.148306
" />
<path d="M137.642600 44.148306
L137.690219 44.100687
" />
<path d="M138.261647 43.767353
L138.261647 43.386401
" />
<path d="M138.594980 43.624496
L137.737838 43.624496
" />
<path d="M137.737838 43.624496
L137.642600 43.576877
" />
<path d="M137.642600 43.576877
L137.594980 43.481639
" />
<path d="M137.594980 43.481639
L137.594980 43.386401
" />
</g><text x="49.700000" y="110.100000"
transform="scale(-1 1) translate(-99.400000 0)"
textLength="1.889286" font-size="1.333333" lengthAdjust="spacingAndGlyphs"
text-anchor="middle" opacity="0">J7</text>
<g class="stroked-text"><desc>J7</desc>
<path d="M50.033333 109.054819
L50.033333 109.769104
" />
<path d="M50.033333 109.769104
L50.080952 109.911961
" />
<path d="M50.080952 109.911961
L50.176190 110.007200
" />
<path d="M50.176190 110.007200
L50.319047 110.054819
" />
<path d="M50.319047 110.054819
L50.414285 110.054819
" />
<path d="M49.652380 109.054819
L48.985714 109.054819
" />
<path d="M48.985714 109.054819
L49.414285 110.054819
" />
</g><text x="113.625000" y="100.610000"
transform="scale(-1 1) translate(-227.250000 0)"
textLength="1.889286" font-size="1.333333" lengthAdjust="spacingAndGlyphs"
text-anchor="middle" opacity="0">J6</text>
<g class="stroked-text"><desc>J6</desc>
<path d="M113.958333 99.564819
L113.958333 100.279104
" />
<path d="M113.958333 100.279104
L114.005952 100.421961
" />
<path d="M114.005952 100.421961
L114.101190 100.517200
" />
<path d="M114.101190 100.517200
L114.244047 100.564819
" />
<path d="M114.244047 100.564819
L114.339285 100.564819
" />
<path d="M113.053571 99.564819
L113.244047 99.564819
" />
<path d="M113.244047 99.564819
L113.339285 99.612438
" />
<path d="M113.339285 99.612438
L113.386904 99.660057
" />
<path d="M113.386904 99.660057
L113.482142 99.802914
" />
<path d="M113.482142 99.802914
L113.529761 99.993390
" />
<path d="M113.529761 99.993390
L113.529761 100.374342
" />
<path d="M113.529761 100.374342
L113.482142 100.469580
" />
<path d="M113.482142 100.469580
L113.434523 100.517200
" />
<path d="M113.434523 100.517200
L113.339285 100.564819
" />
<path d="M113.339285 100.564819
L113.148809 100.564819
" />
<path d="M113.148809 100.564819
L113.053571 100.517200
" />
<path d="M113.053571 100.517200
L113.005952 100.469580
" />
<path d="M113.005952 100.469580
L112.958333 100.374342
" />
<path d="M112.958333 100.374342
L112.958333 100.136247
" />
<path d="M112.958333 100.136247
L113.005952 100.041009
" />
<path d="M113.005952 100.041009
L113.053571 99.993390
" />
<path d="M113.053571 99.993390
L113.148809 99.945771
" />
<path d="M113.148809 99.945771
L113.339285 99.945771
" />
<path d="M113.339285 99.945771
L113.434523 99.993390
" />
<path d="M113.434523 99.993390
L113.482142 100.041009
" />
<path d="M113.482142 100.041009
L113.529761 100.136247
" />
</g></g>
<g style="fill:#000000; fill-opacity:0.0; 
stroke:#000000; stroke-width:0.100000; stroke-opacity:1; 
stroke-linecap:round; stroke-linejoin:round;">
<g transform="rotate(-270.000000 83.000000 74.640000)">
<text x="83.000000" y="75.140000"
transform="scale(-1 1) translate(-166.000000 0)"
textLength="1.859524" font-size="1.333333" lengthAdjust="spacingAndGlyphs"
text-anchor="middle" opacity="0">F3</text>
</g>
<g class="stroked-text"><desc>F3</desc>
<path d="M83.066390 74.973333
L83.066390 75.306666
" />
<path d="M82.542580 75.306666
L83.542580 75.306666
" />
<path d="M83.542580 75.306666
L83.542580 74.830476
" />
<path d="M83.542580 74.544761
L83.542580 73.925714
" />
<path d="M83.542580 73.925714
L83.161628 74.259047
" />
<path d="M83.161628 74.259047
L83.161628 74.116190
" />
<path d="M83.161628 74.116190
L83.114009 74.020952
" />
<path d="M83.114009 74.020952
L83.066390 73.973333
" />
<path d="M83.066390 73.973333
L82.971152 73.925714
" />
<path d="M82.971152 73.925714
L82.733057 73.925714
" />
<path d="M82.733057 73.925714
L82.637819 73.973333
" />
<path d="M82.637819 73.973333
L82.590200 74.020952
" />
<path d="M82.590200 74.020952
L82.542580 74.116190
" />
<path d="M82.542580 74.116190
L82.542580 74.401904
" />
<path d="M82.542580 74.401904
L82.590200 74.497142
" />
<path d="M82.590200 74.497142
L82.637819 74.544761
" />
</g></g>
<g style="fill:#000000; fill-opacity:0.0; 
stroke:#000000; stroke-width:0.150000; stroke-opacity:1; 
stroke-linecap:round; stroke-linejoin:round;">
<text x="140.760000" y="59.290000"
transform="scale(-1 1) translate(-281.520000 0)"
textLength="2.841667" font-size="1.333333" lengthAdjust="spacingAndGlyphs"
text-anchor="middle" opacity="0">J14</text>
<g class="stroked-text"><desc>J14</desc>
<path d="M141.569523 58.244819
L141.569523 58.959104
" />
<path d="M141.569523 58.959104
L141.617142 59.101961
" />
<path d="M141.617142 59.101961
L141.712380 59.197200
" />
<path d="M141.712380 59.197200
L141.855237 59.244819
" />
<path d="M141.855237 59.244819
L141.950475 59.244819
" />
<path d="M140.569523 59.244819
L141.140951 59.244819
" />
<path d="M140.855237 59.244819
L140.855237 58.244819
" />
<path d="M140.855237 58.244819
L140.950475 58.387676
" />
<path d="M140.950475 58.387676
L141.045713 58.482914
" />
<path d="M141.045713 58.482914
L141.140951 58.530533
" />
<path d="M139.712380 58.578152
L139.712380 59.244819
" />
<path d="M139.950475 58.197200
L140.188570 58.911485
" />
<path d="M140.188570 58.911485
L139.569523 58.911485
" />
</g><text x="127.000000" y="46.440000"
transform="scale(-1 1) translate(-254.000000 0)"
textLength="1.889286" font-size="1.333333" lengthAdjust="spacingAndGlyphs"
text-anchor="middle" opacity="0">J5</text>
<g class="stroked-text"><desc>J5</desc>
<path d="M127.333333 45.394819
L127.333333 46.109104
" />
<path d="M127.333333 46.109104
L127.380952 46.251961
" />
<path d="M127.380952 46.251961
L127.476190 46.347200
" />
<path d="M127.476190 46.347200
L127.619047 46.394819
" />
<path d="M127.619047 46.394819
L127.714285 46.394819
" />
<path d="M126.380952 45.394819
L126.857142 45.394819
" />
<path d="M126.857142 45.394819
L126.904761 45.871009
" />
<path d="M126.904761 45.871009
L126.857142 45.823390
" />
<path d="M126.857142 45.823390
L126.761904 45.775771
" />
<path d="M126.761904 45.775771
L126.523809 45.775771
" />
<path d="M126.523809 45.775771
L126.428571 45.823390
" />
<path d="M126.428571 45.823390
L126.380952 45.871009
" />
<path d="M126.380952 45.871009
L126.333333 45.966247
" />
<path d="M126.333333 45.966247
L126.333333 46.204342
" />
<path d="M126.333333 46.204342
L126.380952 46.299580
" />
<path d="M126.380952 46.299580
L126.428571 46.347200
" />
<path d="M126.428571 46.347200
L126.523809 46.394819
" />
<path d="M126.523809 46.394819
L126.761904 46.394819
" />
<path d="M126.761904 46.394819
L126.857142 46.347200
" />
<path d="M126.857142 46.347200
L126.904761 46.299580
" />
</g><text x="75.488800" y="40.835200"
transform="scale(-1 1) translate(-150.977600 0)"
textLength="2.175000" font-size="1.333333" lengthAdjust="spacingAndGlyphs"
text-anchor="middle" opacity="0">U1</text>
<g class="stroked-text"><desc>U1</desc>
<path d="M76.250704 39.790019
L76.250704 40.599542
" />
<path d="M76.250704 40.599542
L76.203085 40.694780
" />
<path d="M76.203085 40.694780
L76.155466 40.742400
" />
<path d="M76.155466 40.742400
L76.060228 40.790019
" />
<path d="M76.060228 40.790019
L75.869752 40.790019
" />
<path d="M75.869752 40.790019
L75.774514 40.742400
" />
<path d="M75.774514 40.742400
L75.726895 40.694780
" />
<path d="M75.726895 40.694780
L75.679276 40.599542
" />
<path d="M75.679276 40.599542
L75.679276 39.790019
" />
<path d="M74.679276 40.790019
L75.250704 40.790019
" />
<path d="M74.964990 40.790019
L74.964990 39.790019
" />
<path d="M74.964990 39.790019
L75.060228 39.932876
" />
<path d="M75.060228 39.932876
L75.155466 40.028114
" />
<path d="M75.155466 40.028114
L75.250704 40.075733
" />
</g><text x="58.623200" y="83.964400"
transform="scale(-1 1) translate(-117.246400 0)"
textLength="1.889286" font-size="1.333333" lengthAdjust="spacingAndGlyphs"
text-anchor="middle" opacity="0">J4</text>
<g class="stroked-text"><desc>J4</desc>
<path d="M58.956533 82.919219
L58.956533 83.633504
" />
<path d="M58.956533 83.633504
L59.004152 83.776361
" />
<path d="M59.004152 83.776361
L59.099390 83.871600
" />
<path d="M59.099390 83.871600
L59.242247 83.919219
" />
<path d="M59.242247 83.919219
L59.337485 83.919219
" />
<path d="M58.051771 83.252552
L58.051771 83.919219
" />
<path d="M58.289866 82.871600
L58.527961 83.585885
" />
<path d="M58.527961 83.585885
L57.908914 83.585885
" />
</g><text x="123.300000" y="69.000000"
transform="scale(-1 1) translate(-246.600000 0)"
textLength="1.889286" font-size="1.333333" lengthAdjust="spacingAndGlyphs"
text-anchor="middle" opacity="0">J8</text>
<g class="stroked-text"><desc>J8</desc>
<path d="M123.633333 67.954819
L123.633333 68.669104
" />
<path d="M123.633333 68.669104
L123.680952 68.811961
" />
<path d="M123.680952 68.811961
L123.776190 68.907200
" />
<path d="M123.776190 68.907200
L123.919047 68.954819
" />
<path d="M123.919047 68.954819
L124.014285 68.954819
" />
<path d="M123.014285 68.383390
L123.109523 68.335771
" />
<path d="M123.109523 68.335771
L123.157142 68.288152
" />
<path d="M123.157142 68.288152
L123.204761 68.192914
" />
<path d="M123.204761 68.192914
L123.204761 68.145295
" />
<path d="M123.204761 68.145295
L123.157142 68.050057
" />
<path d="M123.157142 68.050057
L123.109523 68.002438
" />
<path d="M123.109523 68.002438
L123.014285 67.954819
" />
<path d="M123.014285 67.954819
L122.823809 67.954819
" />
<path d="M122.823809 67.954819
L122.728571 68.002438
" />
<path d="M122.728571 68.002438
L122.680952 68.050057
" />
<path d="M122.680952 68.050057
L122.633333 68.145295
" />
<path d="M122.633333 68.145295
L122.633333 68.192914
" />
<path d="M122.633333 68.192914
L122.680952 68.288152
" />
<path d="M122.680952 68.288152
L122.728571 68.335771
" />
<path d="M122.728571 68.335771
L122.823809 68.383390
" />
<path d="M122.823809 68.383390
L123.014285 68.383390
" />
<path d="M123.014285 68.383390
L123.109523 68.431009
" />
<path d="M123.109523 68.431009
L123.157142 68.478628
" />
<path d="M123.157142 68.478628
L123.204761 68.573866
" />
<path d="M123.204761 68.573866
L123.204761 68.764342
" />
<path d="M123.204761 68.764342
L123.157142 68.859580
" />
<path d="M123.157142 68.859580
L123.109523 68.907200
" />
<path d="M123.109523 68.907200
L123.014285 68.954819
" />
<path d="M123.014285 68.954819
L122.823809 68.954819
" />
<path d="M122.823809 68.954819
L122.728571 68.907200
" />
<path d="M122.728571 68.907200
L122.680952 68.859580
" />
<path d="M122.680952 68.859580
L122.633333 68.764342
" />
<path d="M122.633333 68.764342
L122.633333 68.573866
" />
<path d="M122.633333 68.573866
L122.680952 68.478628
" />
<path d="M122.680952 68.478628
L122.728571 68.431009
" />
<path d="M122.728571 68.431009
L122.823809 68.383390
" />
</g></g>
<g style="fill:#000000; fill-opacity:0.0; 
stroke:#000000; stroke-width:0.100000; stroke-opacity:1; 
stroke-linecap:round; stroke-linejoin:round;">
<g transform="rotate(-270.000000 89.010000 74.640000)">
<text x="89.010000" y="75.140000"
transform="scale(-1 1) translate(-178.020000 0)"
textLength="1.859524" font-size="1.333333" lengthAdjust="spacingAndGlyphs"
text-anchor="middle" opacity="0">F2</text>
</g>
<g class="stroked-text"><desc>F2</desc>
<path d="M89.076390 74.973333
L89.076390 75.306666
" />
<path d="M88.552580 75.306666
L89.552580 75.306666
" />
<path d="M89.552580 75.306666
L89.552580 74.830476
" />
<path d="M89.457342 74.497142
L89.504961 74.449523
" />
<path d="M89.504961 74.449523
L89.552580 74.354285
" />
<path d="M89.552580 74.354285
L89.552580 74.116190
" />
<path d="M89.552580 74.116190
L89.504961 74.020952
" />
<path d="M89.504961 74.020952
L89.457342 73.973333
" />
<path d="M89.457342 73.973333
L89.362104 73.925714
" />
<path d="M89.362104 73.925714
L89.266866 73.925714
" />
<path d="M89.266866 73.925714
L89.124009 73.973333
" />
<path d="M89.124009 73.973333
L88.552580 74.544761
" />
<path d="M88.552580 74.544761
L88.552580 73.925714
" />
</g></g>
<g style="fill:#000000; fill-opacity:0.0; 
stroke:#000000; stroke-width:0.150000; stroke-opacity:1; 
stroke-linecap:round; stroke-linejoin:round;">
<text x="65.836800" y="60.799600"
transform="scale(-1 1) translate(-131.673600 0)"
textLength="2.841667" font-size="1.333333" lengthAdjust="spacingAndGlyphs"
text-anchor="middle" opacity="0">J15</text>
<g class="stroked-text"><desc>J15</desc>
<path d="M66.646323 59.754419
L66.646323 60.468704
" />
<path d="M66.646323 60.468704
L66.693942 60.611561
" />
<path d="M66.693942 60.611561
L66.789180 60.706800
" />
<path d="M66.789180 60.706800
L66.932037 60.754419
" />
<path d="M66.932037 60.754419
L67.027275 60.754419
" />
<path d="M65.646323 60.754419
L66.217751 60.754419
" />
<path d="M65.932037 60.754419
L65.932037 59.754419
" />
<path d="M65.932037 59.754419
L66.027275 59.897276
" />
<path d="M66.027275 59.897276
L66.122513 59.992514
" />
<path d="M66.122513 59.992514
L66.217751 60.040133
" />
<path d="M64.741561 59.754419
L65.217751 59.754419
" />
<path d="M65.217751 59.754419
L65.265370 60.230609
" />
<path d="M65.265370 60.230609
L65.217751 60.182990
" />
<path d="M65.217751 60.182990
L65.122513 60.135371
" />
<path d="M65.122513 60.135371
L64.884418 60.135371
" />
<path d="M64.884418 60.135371
L64.789180 60.182990
" />
<path d="M64.789180 60.182990
L64.741561 60.230609
" />
<path d="M64.741561 60.230609
L64.693942 60.325847
" />
<path d="M64.693942 60.325847
L64.693942 60.563942
" />
<path d="M64.693942 60.563942
L64.741561 60.659180
" />
<path d="M64.741561 60.659180
L64.789180 60.706800
" />
<path d="M64.789180 60.706800
L64.884418 60.754419
" />
<path d="M64.884418 60.754419
L65.122513 60.754419
" />
<path d="M65.122513 60.754419
L65.217751 60.706800
" />
<path d="M65.217751 60.706800
L65.265370 60.659180
" />
</g></g>
<g style="fill:#000000; fill-opacity:0.0; 
stroke:#000000; stroke-width:0.120000; stroke-opacity:1; 
stroke-linecap:round; stroke-linejoin:round;">
<path d="M48.260000 107.650000
L48.260000 106.320000
" />
<path d="M49.590000 107.650000
L48.260000 107.650000
" />
<path d="M50.860000 107.650000
L99.180000 107.650000
" />
<path d="M50.860000 107.650000
L50.860000 105.050000
" />
<path d="M99.180000 107.650000
L99.180000 102.450000
" />
<path d="M48.260000 105.050000
L48.260000 102.450000
" />
<path d="M50.860000 105.050000
L48.260000 105.050000
" />
<path d="M48.260000 102.450000
L99.180000 102.450000
" />
</g>
<g style="fill:#000000; fill-opacity:0.0; 
stroke:#000000; stroke-width:0.100000; stroke-opacity:1; 
stroke-linecap:round; stroke-linejoin:round;">
<path d="M46.220000 125.050000
L101.220000 125.050000
" />
<path d="M101.220000 125.050000
L101.220000 85.050000
" />
<path d="M101.220000 85.050000
L46.220000 85.050000
" />
<path d="M46.220000 85.050000
L46.220000 125.050000
" />
</g>
<g style="fill:#000000; fill-opacity:0.0; 
stroke:#000000; stroke-width:0.120000; stroke-opacity:1; 
stroke-linecap:round; stroke-linejoin:round;">
<path d="M112.295000 88.830000
L114.955000 88.830000
" />
<path d="M112.295000 96.510000
L112.295000 88.830000
" />
<path d="M112.295000 96.510000
L114.955000 96.510000
" />
<path d="M112.295000 97.780000
L112.295000 99.110000
" />
<path d="M112.295000 99.110000
L113.625000 99.110000
" />
<path d="M114.955000 96.510000
L114.955000 88.830000
" />
<path d="M138.000000 58.445000
L139.270000 58.445000
" />
<path d="M139.270000 58.445000
L139.270000 57.175000
" />
<path d="M135.080000 56.132071
L135.080000 55.735000
" />
<path d="M135.840000 56.132071
L135.840000 55.735000
" />
<path d="M137.620000 56.065000
L137.620000 55.735000
" />
<path d="M138.380000 56.065000
L138.380000 55.735000
" />
<path d="M134.130000 55.735000
L134.130000 53.075000
" />
<path d="M136.730000 55.735000
L136.730000 53.075000
" />
<path d="M139.330000 55.735000
L134.130000 55.735000
" />
<path d="M134.130000 53.075000
L139.330000 53.075000
" />
<path d="M135.840000 53.075000
L135.840000 47.075000
" />
<path d="M137.720000 53.075000
L137.720000 47.075000
" />
<path d="M137.840000 53.075000
L137.840000 47.075000
" />
<path d="M137.960000 53.075000
L137.960000 47.075000
" />
<path d="M138.080000 53.075000
L138.080000 47.075000
" />
<path d="M138.200000 53.075000
L138.200000 47.075000
" />
<path d="M138.320000 53.075000
L138.320000 47.075000
" />
<path d="M138.380000 53.075000
L138.380000 47.075000
" />
<path d="M139.330000 53.075000
L139.330000 55.735000
" />
<path d="M135.080000 47.075000
L135.080000 53.075000
" />
<path d="M135.840000 47.075000
L135.080000 47.075000
" />
<path d="M137.620000 47.075000
L137.620000 53.075000
" />
<path d="M138.380000 47.075000
L137.620000 47.075000
" />
</g>
<g style="fill:#000000; fill-opacity:0.0; 
stroke:#000000; stroke-width:0.100000; stroke-opacity:1; 
stroke-linecap:round; stroke-linejoin:round;">
<circle cx="127.000000" cy="50.006248" r="0.914753" /> 
<circle cx="127.000000" cy="48.000000" r="0.914400" /> 
</g>
<g style="fill:#000000; fill-opacity:0.0; 
stroke:#000000; stroke-width:0.120000; stroke-opacity:1; 
stroke-linecap:round; stroke-linejoin:round;">
<path d="M80.300000 59.500000
L79.900000 59.500000
" />
<path d="M82.900000 59.500000
L82.500000 59.500000
" />
<path d="M85.400000 59.500000
L85.000000 59.500000
" />
<path d="M87.900000 59.500000
L87.500000 59.500000
" />
<path d="M90.500000 59.500000
L90.100000 59.500000
" />
<path d="M93.000000 59.500000
L92.600000 59.500000
" />
<path d="M95.600000 59.500000
L95.200000 59.500000
" />
<path d="M98.100000 59.500000
L97.700000 59.500000
" />
<path d="M100.700000 59.500000
L100.300000 59.500000
" />
<path d="M103.200000 59.500000
L102.800000 59.500000
" />
<path d="M105.700000 59.500000
L105.300000 59.500000
" />
<path d="M108.300000 59.500000
L107.900000 59.500000
" />
<path d="M110.800000 59.500000
L110.400000 59.500000
" />
<path d="M113.400000 59.500000
L113.000000 59.500000
" />
<path d="M115.900000 59.500000
L115.500000 59.500000
" />
<path d="M118.400000 59.500000
L118.000000 59.500000
" />
<path d="M121.000000 59.500000
L120.600000 59.500000
" />
<path d="M123.500000 59.500000
L123.100000 59.500000
" />
<path d="M125.833000 59.500000
L125.833000 56.493000
" />
<path d="M126.100000 59.500000
L125.700000 59.500000
" />
<path d="M128.500000 59.500000
L128.200000 59.500000
" />
<path d="M125.833000 56.493000
L128.500000 56.493000
" />
<path d="M77.500000 52.700000
L77.500000 59.500000
" />
<path d="M77.500000 50.500000
L77.500000 50.100000
" />
<path d="M77.500000 47.900000
L77.500000 47.500000
" />
<path d="M77.500000 38.500000
L77.500000 45.300000
" />
<path d="M80.300000 38.500000
L79.900000 38.500000
" />
<path d="M82.900000 38.500000
L82.500000 38.500000
" />
<path d="M85.400000 38.500000
L85.000000 38.500000
" />
<path d="M87.900000 38.500000
L87.500000 38.500000
" />
<path d="M90.500000 38.500000
L90.100000 38.500000
" />
<path d="M93.000000 38.500000
L92.600000 38.500000
" />
<path d="M95.600000 38.500000
L95.200000 38.500000
" />
<path d="M98.100000 38.500000
L97.700000 38.500000
" />
<path d="M100.700000 38.500000
L100.300000 38.500000
" />
<path d="M103.200000 38.500000
L102.800000 38.500000
" />
<path d="M105.700000 38.500000
L105.300000 38.500000
" />
<path d="M108.300000 38.500000
L107.900000 38.500000
" />
<path d="M110.800000 38.500000
L110.400000 38.500000
" />
<path d="M113.400000 38.500000
L113.000000 38.500000
" />
<path d="M115.900000 38.500000
L115.500000 38.500000
" />
<path d="M118.400000 38.500000
L118.000000 38.500000
" />
<path d="M121.000000 38.500000
L120.600000 38.500000
" />
<path d="M123.500000 38.500000
L123.100000 38.500000
" />
<path d="M126.100000 38.500000
L125.700000 38.500000
" />
<path d="M128.500000 38.500000
L128.200000 38.500000
" />
<path d="M55.865000 84.232600
L57.135000 84.232600
" />
<path d="M57.135000 84.232600
L57.135000 82.962600
" />
<path d="M50.405000 81.919671
L50.405000 81.522600
" />
<path d="M51.165000 81.919671
L51.165000 81.522600
" />
<path d="M52.945000 81.919671
L52.945000 81.522600
" />
<path d="M53.705000 81.919671
L53.705000 81.522600
" />
<path d="M55.485000 81.852600
L55.485000 81.522600
" />
<path d="M56.245000 81.852600
L56.245000 81.522600
" />
<path d="M49.455000 81.522600
L49.455000 78.862600
" />
<path d="M52.055000 81.522600
L52.055000 78.862600
" />
<path d="M54.595000 81.522600
L54.595000 78.862600
" />
<path d="M57.195000 81.522600
L49.455000 81.522600
" />
<path d="M49.455000 78.862600
L57.195000 78.862600
" />
<path d="M51.165000 78.862600
L51.165000 72.862600
" />
<path d="M53.705000 78.862600
L53.705000 72.862600
" />
<path d="M55.585000 78.862600
L55.585000 72.862600
" />
<path d="M55.705000 78.862600
L55.705000 72.862600
" />
<path d="M55.825000 78.862600
L55.825000 72.862600
" />
<path d="M55.945000 78.862600
L55.945000 72.862600
" />
<path d="M56.065000 78.862600
L56.065000 72.862600
" />
<path d="M56.185000 78.862600
L56.185000 72.862600
" />
<path d="M56.245000 78.862600
L56.245000 72.862600
" />
<path d="M57.195000 78.862600
L57.195000 81.522600
" />
<path d="M50.405000 72.862600
L50.405000 78.862600
" />
<path d="M51.165000 72.862600
L50.405000 72.862600
" />
<path d="M52.945000 72.862600
L52.945000 78.862600
" />
<path d="M53.705000 72.862600
L52.945000 72.862600
" />
<path d="M55.485000 72.862600
L55.485000 78.862600
" />
<path d="M56.245000 72.862600
L55.485000 72.862600
" />
</g>
<g style="fill:#000000; fill-opacity:0.0; 
stroke:#000000; stroke-width:0.100000; stroke-opacity:1; 
stroke-linecap:round; stroke-linejoin:round;">
<path d="M171.480000 63.505600
L171.480000 121.505600
" />
<path d="M167.730000 125.005600
L167.980000 125.005600
" />
</g>
<g style="fill:#000000; fill-opacity:0.0; 
stroke:#000000; stroke-width:0.120000; stroke-opacity:1; 
stroke-linecap:round; stroke-linejoin:round;">
<path d="M158.790000 123.020600
L158.790000 117.820600
" />
<path d="M157.885000 76.115600
L157.885000 81.255600
" />
<path d="M157.885000 73.515600
L157.885000 74.845600
" />
<path d="M156.555000 73.515600
L157.885000 73.515600
" />
<path d="M155.285000 76.115600
L157.885000 76.115600
" />
<path d="M155.285000 73.515600
L155.285000 76.115600
" />
<path d="M153.650000 120.420600
L153.650000 117.820600
" />
<path d="M153.650000 117.820600
L158.790000 117.820600
" />
<path d="M152.685000 81.255600
L157.885000 81.255600
" />
<path d="M152.685000 73.515600
L155.285000 73.515600
" />
<path d="M152.685000 73.515600
L152.685000 81.255600
" />
<path d="M151.050000 123.020600
L158.790000 123.020600
" />
<path d="M151.050000 123.020600
L151.050000 120.420600
" />
<path d="M151.050000 120.420600
L153.650000 120.420600
" />
<path d="M151.050000 119.150600
L151.050000 117.820600
" />
<path d="M151.050000 117.820600
L152.380000 117.820600
" />
<path d="M121.580000 69.645600
L121.580000 117.965600
" />
<path d="M121.580000 67.045600
L121.580000 68.375600
" />
<path d="M120.250000 67.045600
L121.580000 67.045600
" />
<path d="M118.980000 69.645600
L121.580000 69.645600
" />
<path d="M118.980000 67.045600
L118.980000 69.645600
" />
</g>
<g style="fill:#000000; fill-opacity:0.0; 
stroke:#000000; stroke-width:0.100000; stroke-opacity:1; 
stroke-linecap:round; stroke-linejoin:round;">
<path d="M118.980000 60.005600
L167.980000 60.005600
" />
<path d="M118.980000 60.005600
L118.480000 60.005243
" />
<path d="M118.230000 125.005600
L167.730000 125.005600
" />
</g>
<g style="fill:#000000; fill-opacity:0.0; 
stroke:#000000; stroke-width:0.120000; stroke-opacity:1; 
stroke-linecap:round; stroke-linejoin:round;">
<path d="M116.380000 117.965600
L121.580000 117.965600
" />
<path d="M116.380000 67.045600
L118.980000 67.045600
" />
<path d="M116.380000 67.045600
L116.380000 117.965600
" />
</g>
<g style="fill:#000000; fill-opacity:0.0; 
stroke:#000000; stroke-width:0.100000; stroke-opacity:1; 
stroke-linecap:round; stroke-linejoin:round;">
<path d="M114.980000 121.505600
L114.980000 63.555600
" />
<path d="M167.980000 125.005600 A3.499999 3.499999 0.0 0 0 171.480000 121.505600" />
<path d="M171.480000 63.505600 A3.499999 3.499999 0.0 0 0 167.980000 60.005600" />
<path d="M114.980000 121.505600 A3.500000 3.500000 0.0 0 0 118.480000 125.005600" />
<path d="M118.480000 60.005243 A3.500357 3.500357 0.0 0 0 114.980000 63.555600" />
<circle cx="167.980000" cy="121.505600" r="1.651000" /> 
<circle cx="167.980000" cy="63.505600" r="1.651000" /> 
<circle cx="118.980000" cy="121.505600" r="1.651000" /> 
<circle cx="118.980000" cy="63.505600" r="1.651000" /> 
</g>
<g style="fill:#000000; fill-opacity:0.0; 
stroke:#000000; stroke-width:0.120000; stroke-opacity:1; 
stroke-linecap:round; stroke-linejoin:round;">
<path d="M72.270000 52.850000
L72.270000 51.580000
" />
<path d="M72.270000 51.580000
L71.000000 51.580000
" />
<path d="M69.957071 58.310000
L69.502929 58.310000
" />
<path d="M69.957071 57.550000
L69.502929 57.550000
" />
<path d="M69.957071 55.770000
L69.502929 55.770000
" />
<path d="M69.957071 55.010000
L69.502929 55.010000
" />
<path d="M69.890000 53.230000
L69.502929 53.230000
" />
<path d="M69.890000 52.470000
L69.502929 52.470000
" />
<path d="M67.417071 58.310000
L67.020000 58.310000
" />
<path d="M67.417071 57.550000
L67.020000 57.550000
" />
<path d="M67.417071 55.770000
L67.020000 55.770000
" />
<path d="M67.417071 55.010000
L67.020000 55.010000
" />
<path d="M67.417071 53.230000
L67.020000 53.230000
" />
<path d="M67.417071 52.470000
L67.020000 52.470000
" />
<path d="M67.020000 59.260000
L64.360000 59.260000
" />
<path d="M67.020000 56.660000
L64.360000 56.660000
" />
<path d="M67.020000 54.120000
L64.360000 54.120000
" />
<path d="M67.020000 51.520000
L67.020000 59.260000
" />
<path d="M64.360000 59.260000
L64.360000 51.520000
" />
<path d="M64.360000 57.550000
L58.360000 57.550000
" />
<path d="M64.360000 55.010000
L58.360000 55.010000
" />
<path d="M64.360000 53.130000
L58.360000 53.130000
" />
<path d="M64.360000 53.010000
L58.360000 53.010000
" />
<path d="M64.360000 52.890000
L58.360000 52.890000
" />
<path d="M64.360000 52.770000
L58.360000 52.770000
" />
<path d="M64.360000 52.650000
L58.360000 52.650000
" />
<path d="M64.360000 52.530000
L58.360000 52.530000
" />
<path d="M64.360000 52.470000
L58.360000 52.470000
" />
<path d="M64.360000 51.520000
L67.020000 51.520000
" />
<path d="M58.360000 58.310000
L64.360000 58.310000
" />
<path d="M58.360000 57.550000
L58.360000 58.310000
" />
<path d="M58.360000 55.770000
L64.360000 55.770000
" />
<path d="M58.360000 55.010000
L58.360000 55.770000
" />
<path d="M58.360000 53.230000
L64.360000 53.230000
" />
<path d="M58.360000 52.470000
L58.360000 53.230000
" />
<g >
</g>
<g >
</g>
<g >
</g>
<g >
</g>
<g >
</g>
<g >
</g>
<g >
</g>
<g >
</g>
<g >
</g>
<g >
</g>
<g >
</g>
<g >
</g>
<g >
</g>
<g >
</g>
<g >
</g>
<g >
</g>
<g >
</g>
<g >
</g>
<g >
</g>
<g >
</g>
<g >
</g>
<g >
</g>
<g >
</g>
<g >
</g>
<g >
</g>
<g >
</g>
<g >
</g>
<g >
</g>
<g >
</g>
<g >
</g>
<g >
</g>
<g >
</g>
<g >
</g>
<g >
</g>
<g >
</g>
<g >
</g>
<g >
</g>
<g >
</g>
<g >
</g>
<g >
</g>
<g >
</g>
<g >
</g>
<g >
</g>
<g >
</g>
<g >
</g>
<g >
</g>
<g >
</g>
<g >
</g>
<g >
</g>
<g >
</g>
<g >
</g>
<g >
</g>
<g >
</g>
<g >
</g>
<g >
</g>
<g >
</g>
<g >
</g>
<g >
</g>
<g >
</g>
<g >
</g>
<g >
</g>
<g >
</g>
<g >
</g>
<g >
</g>
<g >
</g>
<g >
</g>
<g >
</g>
<g >
</g>
<g >
</g>
<g >
</g>
<g >
</g>
<g >
</g>
<g >
</g>
<g >
</g>
<g >
</g>
<g >
</g>
<g >
</g>
<g >
</g>
<g >
</g>
<g >
</g>
<g >
</g>
<g >
</g>
<g >
</g>
<g >
</g>
<g >
</g>
<g >
</g>
<g >
</g>
<g >
</g>
<g >
</g>
<g >
</g>
<g >
</g>
<g >
</g>
<g >
</g>
<g >
</g>
<g >
</g>
<g >
</g>
<g >
</g>
</g> 
</svg>
