<?xml version="1.0" standalone="no"?>
 <!DOCTYPE svg PUBLIC "-//W3C//DTD SVG 1.1//EN" 
 "http://www.w3.org/Graphics/SVG/1.1/DTD/svg11.dtd"> 
<svg
  xmlns:svg="http://www.w3.org/2000/svg"
  xmlns="http://www.w3.org/2000/svg"
  xmlns:xlink="http://www.w3.org/1999/xlink"
  version="1.1"
  width="297.0022mm" height="210.0072mm" viewBox="0.0000 0.0000 297.0022 210.0072">
<title>SVG Image created as pedalboard-hw-F_Courtyard.svg date 2023/10/13 22:44:24 </title>
  <desc>Image generated by PCBNEW </desc>
<g style="fill:#000000; fill-opacity:1.0000;stroke:#000000; stroke-opacity:1.0000;
stroke-linecap:round; stroke-linejoin:round;"
 transform="translate(0 0) scale(1 1)">
</g>
<g style="fill:#000000; fill-opacity:0.0; 
stroke:#000000; stroke-width:0.0000; stroke-opacity:1; 
stroke-linecap:round; stroke-linejoin:round;">
</g>
<g style="fill:#000000; fill-opacity:0.0; 
stroke:#000000; stroke-width:0.0500; stroke-opacity:1; 
stroke-linecap:round; stroke-linejoin:round;">
<path d="M140.7000 43.2700
L144.1000 43.2700
" />
<path d="M140.7000 45.2300
L140.7000 43.2700
" />
<path d="M144.1000 43.2700
L144.1000 45.2300
" />
<path d="M144.1000 45.2300
L140.7000 45.2300
" />
<circle cx="25.0000" cy="23.0000" r="1.7500" /> 
<path d="M126.2500 32.4500
L126.2500 19.7500
" />
<path d="M126.2500 19.7500
L123.2500 19.7500
" />
<path d="M123.2500 19.7500
L123.2500 17.9500
" />
<path d="M123.2500 17.9500
L116.7500 17.9500
" />
<path d="M116.7500 19.7500
L113.7500 19.7500
" />
<path d="M116.7500 17.9500
L116.7500 19.7500
" />
<path d="M113.7500 32.4500
L126.2500 32.4500
" />
<path d="M113.7500 20.0000
L113.7500 32.4500
" />
<path d="M113.7500 19.7500
L113.7500 20.0000
" />
<path d="M41.7300 31.7700
L41.7300 52.0000
" />
<path d="M41.7300 31.7700
L14.2000 31.7700
" />
<path d="M14.2000 52.0000
L41.7300 52.0000
" />
<path d="M14.2000 31.7700
L14.2000 52.0000
" />
<path d="M41.7300 92.9700
L41.7300 113.2000
" />
<path d="M41.7300 92.9700
L14.2000 92.9700
" />
<path d="M14.2000 113.2000
L41.7300 113.2000
" />
<path d="M14.2000 92.9700
L14.2000 113.2000
" />
<path d="M156.9500 42.8700
L160.3500 42.8700
" />
<path d="M156.9500 44.8300
L156.9500 42.8700
" />
<path d="M160.3500 42.8700
L160.3500 44.8300
" />
<path d="M160.3500 44.8300
L156.9500 44.8300
" />
<path d="M184.4000 31.8000
L184.4000 16.3000
" />
<path d="M184.4000 16.3000
L174.4000 16.3000
" />
<path d="M174.4000 31.8000
L184.4000 31.8000
" />
<path d="M174.4000 29.9000
L174.4000 31.8000
" />
<path d="M174.4000 16.3000
L174.4000 24.9000
" />
<path d="M173.2000 29.9000
L174.4000 29.9000
" />
<path d="M173.2000 29.9000
L173.2000 24.9000
" />
<path d="M173.2000 24.9000
L174.4000 24.9000
" />
<circle cx="30.0000" cy="119.0000" r="3.2000" /> 
<path d="M27.5000 54.5000
L27.5000 59.5000
" />
<path d="M27.5000 59.5000
L32.5000 59.5000
" />
<path d="M32.5000 54.5000
L27.5000 54.5000
" />
<path d="M32.5000 59.5000
L32.5000 54.5000
" />
<path d="M128.3200 42.9200
L131.2800 42.9200
" />
<path d="M128.3200 44.3800
L128.3200 42.9200
" />
<path d="M131.2800 42.9200
L131.2800 44.3800
" />
<path d="M131.2800 44.3800
L128.3200 44.3800
" />
<path d="M89.3500 113.8500
L89.3500 116.3500
" />
<path d="M89.3500 113.8500
L92.6500 113.8500
" />
<path d="M92.6500 116.3500
L89.3500 116.3500
" />
<path d="M92.6500 116.3500
L92.6500 113.8500
" />
<path d="M160.2000 25.4800
L156.8000 25.4800
" />
<path d="M160.2000 23.5200
L160.2000 25.4800
" />
<path d="M156.8000 25.4800
L156.8000 23.5200
" />
<path d="M156.8000 23.5200
L160.2000 23.5200
" />
<path d="M114.0500 45.2500
L114.0500 50.7500
" />
<path d="M114.0500 50.7500
L120.9500 50.7500
" />
<path d="M120.9500 45.2500
L114.0500 45.2500
" />
<path d="M120.9500 50.7500
L120.9500 45.2500
" />
<circle cx="105.0000" cy="67.0000" r="3.2000" /> 
<circle cx="30.0000" cy="67.0000" r="3.2000" /> 
<path d="M41.7300 72.7700
L41.7300 93.0000
" />
<path d="M41.7300 72.7700
L14.2000 72.7700
" />
<path d="M14.2000 93.0000
L41.7300 93.0000
" />
<path d="M14.2000 72.7700
L14.2000 93.0000
" />
<path d="M148.3200 88.9457
L148.3200 63.0457
" />
<path d="M148.3200 63.0457
L122.4200 63.0457
" />
<path d="M122.4200 88.9457
L148.3200 88.9457
" />
<path d="M122.4200 63.0457
L122.4200 88.9457
" />
<path d="M168.2700 113.2250
L168.2700 92.9950
" />
<path d="M168.2700 113.2250
L195.8000 113.2250
" />
<path d="M195.8000 92.9950
L168.2700 92.9950
" />
<path d="M195.8000 113.2250
L195.8000 92.9950
" />
<path d="M139.0500 45.2500
L139.0500 50.7500
" />
<path d="M139.0500 50.7500
L145.9500 50.7500
" />
<path d="M145.9500 45.2500
L139.0500 45.2500
" />
<path d="M145.9500 50.7500
L145.9500 45.2500
" />
<circle cx="118.9800" cy="121.5200" r="2.6000" /> 
<path d="M182.5000 131.5000
L182.5000 126.5000
" />
<path d="M182.5000 126.5000
L177.5000 126.5000
" />
<path d="M177.5000 131.5000
L182.5000 131.5000
" />
<path d="M177.5000 126.5000
L177.5000 131.5000
" />
<path d="M32.5000 131.5000
L32.5000 126.5000
" />
<path d="M32.5000 126.5000
L27.5000 126.5000
" />
<path d="M27.5000 131.5000
L32.5000 131.5000
" />
<path d="M27.5000 126.5000
L27.5000 131.5000
" />
<path d="M97.0000 60.7500
L97.0000 73.2500
" />
<path d="M97.0000 73.2500
L113.0000 73.2500
" />
<path d="M113.0000 60.7500
L97.0000 60.7500
" />
<path d="M113.0000 73.2500
L113.0000 60.7500
" />
<circle cx="185.0000" cy="128.0000" r="1.7500" /> 
<path d="M107.5000 79.5000
L107.5000 74.5000
" />
<path d="M107.5000 74.5000
L102.5000 74.5000
" />
<path d="M102.5000 79.5000
L107.5000 79.5000
" />
<path d="M102.5000 74.5000
L102.5000 79.5000
" />
<path d="M78.5050 48.6000
L75.1450 48.6000
" />
<path d="M78.5050 46.7000
L78.5050 48.6000
" />
<path d="M75.1450 48.6000
L75.1450 46.7000
" />
<path d="M75.1450 46.7000
L78.5050 46.7000
" />
<circle cx="42.0000" cy="23.0000" r="2.6000" /> 
<path d="M156.8800 40.3200
L156.8800 44.8800
" />
<path d="M153.7200 40.3200
L156.8800 40.3200
" />
<path d="M156.8800 44.8800
L153.7200 44.8800
" />
<path d="M153.7200 44.8800
L153.7200 40.3200
" />
<path d="M168.2850 52.0300
L168.2850 31.8000
" />
<path d="M168.2850 52.0300
L195.8150 52.0300
" />
<path d="M195.8150 31.8000
L168.2850 31.8000
" />
<path d="M195.8150 52.0300
L195.8150 31.8000
" />
<path d="M49.8000 27.0800
L46.4000 27.0800
" />
<path d="M49.8000 25.1200
L49.8000 27.0800
" />
<path d="M46.4000 27.0800
L46.4000 25.1200
" />
<path d="M46.4000 25.1200
L49.8000 25.1200
" />
<path d="M89.0500 45.2500
L89.0500 50.7500
" />
<path d="M89.0500 50.7500
L95.9500 50.7500
" />
<path d="M95.9500 45.2500
L89.0500 45.2500
" />
<path d="M95.9500 50.7500
L95.9500 45.2500
" />
<path d="M58.7500 26.3000
L58.7500 41.7000
" />
<path d="M58.7500 26.3000
L76.2500 26.3000
" />
<path d="M76.2500 41.7000
L58.7500 41.7000
" />
<path d="M76.2500 41.7000
L76.2500 26.3000
" />
<path d="M64.0300 45.2500
L64.0300 48.6500
" />
<path d="M62.0700 45.2500
L64.0300 45.2500
" />
<path d="M64.0300 48.6500
L62.0700 48.6500
" />
<path d="M62.0700 48.6500
L62.0700 45.2500
" />
<path d="M164.3000 44.0175
L161.3000 44.0175
" />
<path d="M161.3000 44.0175
L161.3000 44.8675
" />
<path d="M167.0500 44.8675
L164.3000 44.8675
" />
<path d="M167.0500 44.8675
L168.2000 46.0175
" />
<path d="M164.3000 44.8675
L164.3000 44.0175
" />
<path d="M161.3000 44.8675
L158.5500 44.8675
" />
<path d="M158.5500 44.8675
L157.4000 46.0175
" />
<path d="M168.2000 46.0175
L168.2000 55.6675
" />
<path d="M157.4000 46.0175
L157.4000 55.6675
" />
<path d="M168.2000 55.6675
L164.3000 55.6675
" />
<path d="M164.3000 55.6675
L164.3000 56.5175
" />
<path d="M161.3000 55.6675
L157.4000 55.6675
" />
<path d="M164.3000 56.5175
L161.3000 56.5175
" />
<path d="M161.3000 56.5175
L161.3000 55.6675
" />
<path d="M177.5000 54.5000
L177.5000 59.5000
" />
<path d="M177.5000 59.5000
L182.5000 59.5000
" />
<path d="M182.5000 54.5000
L177.5000 54.5000
" />
<path d="M182.5000 59.5000
L182.5000 54.5000
" />
<circle cx="180.0000" cy="67.0000" r="3.2000" /> 
<path d="M41.9500 26.9200
L41.9500 30.2800
" />
<path d="M40.0500 26.9200
L41.9500 26.9200
" />
<path d="M41.9500 30.2800
L40.0500 30.2800
" />
<path d="M40.0500 30.2800
L40.0500 26.9200
" />
<path d="M136.3750 54.9750
L136.3750 57.9750
" />
<path d="M136.3750 57.9750
L137.2250 57.9750
" />
<path d="M137.2250 52.2250
L137.2250 54.9750
" />
<path d="M137.2250 52.2250
L138.3750 51.0750
" />
<path d="M137.2250 54.9750
L136.3750 54.9750
" />
<path d="M137.2250 57.9750
L137.2250 60.7250
" />
<path d="M137.2250 60.7250
L138.3750 61.8750
" />
<path d="M138.3750 51.0750
L148.0250 51.0750
" />
<path d="M138.3750 61.8750
L148.0250 61.8750
" />
<path d="M148.0250 51.0750
L148.0250 54.9750
" />
<path d="M148.0250 54.9750
L148.8750 54.9750
" />
<path d="M148.0250 57.9750
L148.0250 61.8750
" />
<path d="M148.8750 54.9750
L148.8750 57.9750
" />
<path d="M148.8750 57.9750
L148.0250 57.9750
" />
<path d="M64.0500 45.2500
L64.0500 50.7500
" />
<path d="M64.0500 50.7500
L70.9500 50.7500
" />
<path d="M70.9500 45.2500
L64.0500 45.2500
" />
<path d="M70.9500 50.7500
L70.9500 45.2500
" />
<path d="M88.9800 45.2500
L88.9800 48.6500
" />
<path d="M87.0200 45.2500
L88.9800 45.2500
" />
<path d="M88.9800 48.6500
L87.0200 48.6500
" />
<path d="M87.0200 48.6500
L87.0200 45.2500
" />
<path d="M168.2700 93.0100
L168.2700 72.7800
" />
<path d="M168.2700 93.0100
L195.8000 93.0100
" />
<path d="M195.8000 72.7800
L168.2700 72.7800
" />
<path d="M195.8000 93.0100
L195.8000 72.7800
" />
<circle cx="105.0000" cy="119.0000" r="3.2000" /> 
<path d="M167.6500 116.6500
L170.1500 116.6500
" />
<path d="M167.6500 116.6500
L167.6500 113.3500
" />
<path d="M170.1500 113.3500
L170.1500 116.6500
" />
<path d="M170.1500 113.3500
L167.6500 113.3500
" />
<path d="M22.0000 60.7500
L22.0000 73.2500
" />
<path d="M22.0000 73.2500
L38.0000 73.2500
" />
<path d="M38.0000 60.7500
L22.0000 60.7500
" />
<path d="M38.0000 73.2500
L38.0000 60.7500
" />
<path d="M128.3000 40.9200
L131.7000 40.9200
" />
<path d="M128.3000 42.8800
L128.3000 40.9200
" />
<path d="M131.7000 40.9200
L131.7000 42.8800
" />
<path d="M131.7000 42.8800
L128.3000 42.8800
" />
<path d="M45.7500 30.2300
L45.7500 34.5700
" />
<path d="M45.7500 34.5700
L57.0500 34.5700
" />
<path d="M57.0500 30.2300
L45.7500 30.2300
" />
<path d="M57.0500 34.5700
L57.0500 30.2300
" />
<path d="M57.5800 36.5625
L54.2200 36.5625
" />
<path d="M57.5800 34.6625
L57.5800 36.5625
" />
<path d="M54.2200 36.5625
L54.2200 34.6625
" />
<path d="M54.2200 34.6625
L57.5800 34.6625
" />
<path d="M164.3000 31.2175
L161.3000 31.2175
" />
<path d="M161.3000 31.2175
L161.3000 32.0675
" />
<path d="M167.0500 32.0675
L164.3000 32.0675
" />
<path d="M167.0500 32.0675
L168.2000 33.2175
" />
<path d="M164.3000 32.0675
L164.3000 31.2175
" />
<path d="M161.3000 32.0675
L158.5500 32.0675
" />
<path d="M158.5500 32.0675
L157.4000 33.2175
" />
<path d="M168.2000 33.2175
L168.2000 42.8675
" />
<path d="M157.4000 33.2175
L157.4000 42.8675
" />
<path d="M168.2000 42.8675
L164.3000 42.8675
" />
<path d="M164.3000 42.8675
L164.3000 43.7175
" />
<path d="M161.3000 42.8675
L157.4000 42.8675
" />
<path d="M164.3000 43.7175
L161.3000 43.7175
" />
<path d="M161.3000 43.7175
L161.3000 42.8675
" />
<path d="M102.5000 106.5000
L102.5000 111.5000
" />
<path d="M102.5000 111.5000
L107.5000 111.5000
" />
<path d="M107.5000 106.5000
L102.5000 106.5000
" />
<path d="M107.5000 111.5000
L107.5000 106.5000
" />
<path d="M54.2200 36.6000
L57.5800 36.6000
" />
<path d="M54.2200 38.5000
L54.2200 36.6000
" />
<path d="M57.5800 36.6000
L57.5800 38.5000
" />
<path d="M57.5800 38.5000
L54.2200 38.5000
" />
<path d="M41.9700 29.9800
L41.9700 27.0200
" />
<path d="M43.4300 29.9800
L41.9700 29.9800
" />
<path d="M41.9700 27.0200
L43.4300 27.0200
" />
<path d="M43.4300 27.0200
L43.4300 29.9800
" />
<path d="M157.4000 50.1000
L152.8000 50.1000
" />
<path d="M157.4000 47.8000
L157.4000 50.1000
" />
<path d="M152.8000 50.1000
L152.8000 47.8000
" />
<path d="M152.8000 47.8000
L157.4000 47.8000
" />
<path d="M45.7500 30.2000
L43.4500 30.2000
" />
<path d="M45.7500 30.2000
L45.7500 34.6000
" />
<path d="M45.7500 34.6000
L43.4500 34.6000
" />
<path d="M43.4500 34.6000
L43.4500 30.2000
" />
<path d="M114.0300 45.2500
L114.0300 48.6500
" />
<path d="M112.0700 45.2500
L114.0300 45.2500
" />
<path d="M114.0300 48.6500
L112.0700 48.6500
" />
<path d="M112.0700 48.6500
L112.0700 45.2500
" />
<path d="M43.4300 30.2700
L43.4300 33.2300
" />
<path d="M41.9700 30.2700
L43.4300 30.2700
" />
<path d="M43.4300 33.2300
L41.9700 33.2300
" />
<path d="M41.9700 33.2300
L41.9700 30.2700
" />
<path d="M172.6500 30.7000
L166.7500 30.7000
" />
<path d="M172.6500 26.8000
L172.6500 30.7000
" />
<path d="M166.7500 30.7000
L166.7500 26.8000
" />
<path d="M166.7500 26.8000
L172.6500 26.8000
" />
<circle cx="118.9000" cy="63.5656" r="2.6000" /> 
<path d="M157.3000 47.7800
L153.9000 47.7800
" />
<path d="M157.3000 45.8200
L157.3000 47.7800
" />
<path d="M153.9000 47.7800
L153.9000 45.8200
" />
<path d="M153.9000 45.8200
L157.3000 45.8200
" />
<path d="M172.0000 112.7500
L172.0000 125.2500
" />
<path d="M172.0000 125.2500
L188.0000 125.2500
" />
<path d="M188.0000 112.7500
L172.0000 112.7500
" />
<path d="M188.0000 125.2500
L188.0000 112.7500
" />
<circle cx="180.0000" cy="119.0000" r="3.2000" /> 
<path d="M172.0000 60.7500
L172.0000 73.2500
" />
<path d="M172.0000 73.2500
L188.0000 73.2500
" />
<path d="M188.0000 60.7500
L172.0000 60.7500
" />
<path d="M188.0000 73.2500
L188.0000 60.7500
" />
<path d="M22.0000 112.7500
L22.0000 125.2500
" />
<path d="M22.0000 125.2500
L38.0000 125.2500
" />
<path d="M38.0000 112.7500
L22.0000 112.7500
" />
<path d="M38.0000 125.2500
L38.0000 112.7500
" />
<circle cx="168.0000" cy="23.0000" r="2.6000" /> 
<path d="M51.2200 36.8200
L54.1800 36.8200
" />
<path d="M51.2200 38.2800
L51.2200 36.8200
" />
<path d="M54.1800 36.8200
L54.1800 38.2800
" />
<path d="M54.1800 38.2800
L51.2200 38.2800
" />
<path d="M133.7500 26.3000
L133.7500 41.7000
" />
<path d="M133.7500 26.3000
L151.2500 26.3000
" />
<path d="M151.2500 41.7000
L133.7500 41.7000
" />
<path d="M151.2500 41.7000
L151.2500 26.3000
" />
<path d="M97.0000 112.7500
L97.0000 125.2500
" />
<path d="M97.0000 125.2500
L113.0000 125.2500
" />
<path d="M113.0000 112.7500
L97.0000 112.7500
" />
<path d="M113.0000 125.2500
L113.0000 112.7500
" />
<path d="M148.9250 45.0750
L153.5250 45.0750
" />
<path d="M148.9250 47.3750
L148.9250 45.0750
" />
<path d="M153.5250 45.0750
L153.5250 47.3750
" />
<path d="M153.5250 47.3750
L148.9250 47.3750
" />
<path d="M135.4000 45.8000
L135.4000 52.8000
" />
<path d="M131.9000 45.8000
L135.4000 45.8000
" />
<path d="M135.4000 52.8000
L131.9000 52.8000
" />
<path d="M131.9000 52.8000
L131.9000 45.8000
" />
<path d="M51.2200 34.9325
L54.1800 34.9325
" />
<path d="M51.2200 36.3925
L51.2200 34.9325
" />
<path d="M54.1800 34.9325
L54.1800 36.3925
" />
<path d="M54.1800 36.3925
L51.2200 36.3925
" />
<path d="M96.2445 32.4500
L96.2445 19.7500
" />
<path d="M96.2445 19.7500
L93.2445 19.7500
" />
<path d="M93.2445 19.7500
L93.2445 17.9500
" />
<path d="M93.2445 17.9500
L86.7445 17.9500
" />
<path d="M86.7445 19.7500
L83.7445 19.7500
" />
<path d="M86.7445 17.9500
L86.7445 19.7500
" />
<path d="M83.7445 32.4500
L96.2445 32.4500
" />
<path d="M83.7445 20.0000
L83.7445 32.4500
" />
<path d="M83.7445 19.7500
L83.7445 20.0000
" />
<g >
</g>
<g >
</g>
<g >
</g>
<g >
</g>
<g >
</g>
<g >
</g>
<g >
</g>
<g >
</g>
<g >
</g>
<g >
</g>
<g >
</g>
<g >
</g>
<g >
</g>
<g >
</g>
<g >
</g>
<g >
</g>
<g >
</g>
<g >
</g>
<g >
</g>
<g >
</g>
<g >
</g>
<g >
</g>
<g >
</g>
<g >
</g>
<g >
</g>
<g >
</g>
<g >
</g>
<g >
</g>
<g >
</g>
<g >
</g>
<g >
</g>
<g >
</g>
<g >
</g>
<g >
</g>
<g >
</g>
<g >
</g>
<g >
</g>
<g >
</g>
<g >
</g>
<g >
</g>
<g >
</g>
<g >
</g>
<g >
</g>
<g >
</g>
<g >
</g>
<g >
</g>
<g >
</g>
<g >
</g>
<g >
</g>
<g >
</g>
<g >
</g>
<g >
</g>
<g >
</g>
<g >
</g>
<g >
</g>
<g >
</g>
<g >
</g>
<g >
</g>
<g >
</g>
<g >
</g>
<g >
</g>
<g >
</g>
<g >
</g>
<g >
</g>
<g >
</g>
<g >
</g>
<g >
</g>
<g >
</g>
<g >
</g>
<g >
</g>
<g >
</g>
<g >
</g>
<g >
</g>
<g >
</g>
<g >
</g>
<g >
</g>
<g >
</g>
<g >
</g>
<g >
</g>
<g >
</g>
<g >
</g>
<g >
</g>
<g >
</g>
<g >
</g>
<g >
</g>
<g >
</g>
<g >
</g>
<g >
</g>
<g >
</g>
</g> 
</svg>
