<?xml version="1.0" standalone="no"?>
 <!DOCTYPE svg PUBLIC "-//W3C//DTD SVG 1.1//EN" 
 "http://www.w3.org/Graphics/SVG/1.1/DTD/svg11.dtd"> 
<svg
  xmlns:svg="http://www.w3.org/2000/svg"
  xmlns="http://www.w3.org/2000/svg"
  xmlns:xlink="http://www.w3.org/1999/xlink"
  version="1.1"
  width="297.0022mm" height="210.0072mm" viewBox="0.0000 0.0000 297.0022 210.0072">
<title>SVG Image created as pedalboard-hw-F_Courtyard.svg date 2023/10/12 16:35:19 </title>
  <desc>Image generated by PCBNEW </desc>
<g style="fill:#000000; fill-opacity:1.0000;stroke:#000000; stroke-opacity:1.0000;
stroke-linecap:round; stroke-linejoin:round;"
 transform="translate(0 0) scale(1 1)">
</g>
<g style="fill:#000000; fill-opacity:0.0; 
stroke:#000000; stroke-width:0.0000; stroke-opacity:1; 
stroke-linecap:round; stroke-linejoin:round;">
</g>
<g style="fill:#000000; fill-opacity:0.0; 
stroke:#000000; stroke-width:0.0500; stroke-opacity:1; 
stroke-linecap:round; stroke-linejoin:round;">
<path d="M138.8000 43.0200
L142.2000 43.0200
" />
<path d="M138.8000 44.9800
L138.8000 43.0200
" />
<path d="M142.2000 43.0200
L142.2000 44.9800
" />
<path d="M142.2000 44.9800
L138.8000 44.9800
" />
<path d="M122.2500 32.4500
L122.2500 19.7500
" />
<path d="M122.2500 19.7500
L119.2500 19.7500
" />
<path d="M119.2500 19.7500
L119.2500 17.9500
" />
<path d="M119.2500 17.9500
L112.7500 17.9500
" />
<path d="M112.7500 19.7500
L109.7500 19.7500
" />
<path d="M112.7500 17.9500
L112.7500 19.7500
" />
<path d="M109.7500 32.4500
L122.2500 32.4500
" />
<path d="M109.7500 20.0000
L109.7500 32.4500
" />
<path d="M109.7500 19.7500
L109.7500 20.0000
" />
<circle cx="133.0000" cy="23.0000" r="2.6000" /> 
<path d="M41.7300 92.9700
L41.7300 113.2000
" />
<path d="M41.7300 92.9700
L14.2000 92.9700
" />
<path d="M14.2000 113.2000
L41.7300 113.2000
" />
<path d="M14.2000 92.9700
L14.2000 113.2000
" />
<path d="M156.9500 42.8700
L160.3500 42.8700
" />
<path d="M156.9500 44.8300
L156.9500 42.8700
" />
<path d="M160.3500 42.8700
L160.3500 44.8300
" />
<path d="M160.3500 44.8300
L156.9500 44.8300
" />
<path d="M184.4000 31.8000
L184.4000 16.3000
" />
<path d="M184.4000 16.3000
L174.4000 16.3000
" />
<path d="M174.4000 31.8000
L184.4000 31.8000
" />
<path d="M174.4000 29.9000
L174.4000 31.8000
" />
<path d="M174.4000 16.3000
L174.4000 24.9000
" />
<path d="M173.2000 29.9000
L174.4000 29.9000
" />
<path d="M173.2000 29.9000
L173.2000 24.9000
" />
<path d="M173.2000 24.9000
L174.4000 24.9000
" />
<circle cx="30.0000" cy="119.0000" r="3.2000" /> 
<path d="M42.5000 64.5000
L37.5000 64.5000
" />
<path d="M37.5000 64.5000
L37.5000 69.5000
" />
<path d="M42.5000 69.5000
L42.5000 64.5000
" />
<path d="M37.5000 69.5000
L42.5000 69.5000
" />
<path d="M128.3200 42.9200
L131.2800 42.9200
" />
<path d="M128.3200 44.3800
L128.3200 42.9200
" />
<path d="M131.2800 42.9200
L131.2800 44.3800
" />
<path d="M131.2800 44.3800
L128.3200 44.3800
" />
<path d="M89.3500 113.8500
L89.3500 116.3500
" />
<path d="M89.3500 113.8500
L92.6500 113.8500
" />
<path d="M92.6500 116.3500
L89.3500 116.3500
" />
<path d="M92.6500 116.3500
L92.6500 113.8500
" />
<path d="M160.2000 25.4800
L156.8000 25.4800
" />
<path d="M160.2000 23.5200
L160.2000 25.4800
" />
<path d="M156.8000 25.4800
L156.8000 23.5200
" />
<path d="M156.8000 23.5200
L160.2000 23.5200
" />
<path d="M112.1500 45.2500
L112.1500 50.7500
" />
<path d="M112.1500 50.7500
L119.0500 50.7500
" />
<path d="M119.0500 45.2500
L112.1500 45.2500
" />
<path d="M119.0500 50.7500
L119.0500 45.2500
" />
<circle cx="105.0000" cy="67.0000" r="3.2000" /> 
<circle cx="30.0000" cy="67.0000" r="3.2000" /> 
<path d="M41.7650 72.7700
L41.7650 93.0000
" />
<path d="M41.7650 72.7700
L14.2350 72.7700
" />
<path d="M14.2350 93.0000
L41.7650 93.0000
" />
<path d="M14.2350 72.7700
L14.2350 93.0000
" />
<path d="M148.3200 88.9457
L148.3200 63.0457
" />
<path d="M148.3200 63.0457
L122.4200 63.0457
" />
<path d="M122.4200 88.9457
L148.3200 88.9457
" />
<path d="M122.4200 63.0457
L122.4200 88.9457
" />
<path d="M168.2700 113.2250
L168.2700 92.9950
" />
<path d="M168.2700 113.2250
L195.8000 113.2250
" />
<path d="M195.8000 92.9950
L168.2700 92.9950
" />
<path d="M195.8000 113.2250
L195.8000 92.9950
" />
<path d="M137.1500 45.2500
L137.1500 50.7500
" />
<path d="M137.1500 50.7500
L144.0500 50.7500
" />
<path d="M144.0500 45.2500
L137.1500 45.2500
" />
<path d="M144.0500 50.7500
L144.0500 45.2500
" />
<circle cx="118.9800" cy="121.5200" r="2.6000" /> 
<path d="M167.5000 121.5000
L172.5000 121.5000
" />
<path d="M172.5000 121.5000
L172.5000 116.5000
" />
<path d="M167.5000 116.5000
L167.5000 121.5000
" />
<path d="M172.5000 116.5000
L167.5000 116.5000
" />
<path d="M42.5000 116.5000
L37.5000 116.5000
" />
<path d="M37.5000 116.5000
L37.5000 121.5000
" />
<path d="M42.5000 121.5000
L42.5000 116.5000
" />
<path d="M37.5000 121.5000
L42.5000 121.5000
" />
<path d="M97.0000 60.7500
L97.0000 73.2500
" />
<path d="M97.0000 73.2500
L113.0000 73.2500
" />
<path d="M113.0000 60.7500
L97.0000 60.7500
" />
<path d="M113.0000 73.2500
L113.0000 60.7500
" />
<path d="M92.5000 69.5000
L97.5000 69.5000
" />
<path d="M97.5000 69.5000
L97.5000 64.5000
" />
<path d="M92.5000 64.5000
L92.5000 69.5000
" />
<path d="M97.5000 64.5000
L92.5000 64.5000
" />
<path d="M76.6050 48.6000
L73.2450 48.6000
" />
<path d="M76.6050 46.7000
L76.6050 48.6000
" />
<path d="M73.2450 48.6000
L73.2450 46.7000
" />
<path d="M73.2450 46.7000
L76.6050 46.7000
" />
<circle cx="77.0000" cy="23.0000" r="2.6000" /> 
<path d="M156.8800 40.3200
L156.8800 44.8800
" />
<path d="M153.7200 40.3200
L156.8800 40.3200
" />
<path d="M156.8800 44.8800
L153.7200 44.8800
" />
<path d="M153.7200 44.8800
L153.7200 40.3200
" />
<path d="M168.2850 52.0300
L168.2850 31.8000
" />
<path d="M168.2850 52.0300
L195.8150 52.0300
" />
<path d="M195.8150 31.8000
L168.2850 31.8000
" />
<path d="M195.8150 52.0300
L195.8150 31.8000
" />
<path d="M40.2800 38.6000
L40.2800 42.0000
" />
<path d="M38.3200 38.6000
L40.2800 38.6000
" />
<path d="M40.2800 42.0000
L38.3200 42.0000
" />
<path d="M38.3200 42.0000
L38.3200 38.6000
" />
<path d="M87.1500 45.2500
L87.1500 50.7500
" />
<path d="M87.1500 50.7500
L94.0500 50.7500
" />
<path d="M94.0500 45.2500
L87.1500 45.2500
" />
<path d="M94.0500 50.7500
L94.0500 45.2500
" />
<path d="M58.7500 26.3000
L58.7500 41.7000
" />
<path d="M58.7500 26.3000
L76.2500 26.3000
" />
<path d="M76.2500 41.7000
L58.7500 41.7000
" />
<path d="M76.2500 41.7000
L76.2500 26.3000
" />
<path d="M63.8000 43.0200
L67.2000 43.0200
" />
<path d="M63.8000 44.9800
L63.8000 43.0200
" />
<path d="M67.2000 43.0200
L67.2000 44.9800
" />
<path d="M67.2000 44.9800
L63.8000 44.9800
" />
<path d="M164.3000 44.0175
L161.3000 44.0175
" />
<path d="M161.3000 44.0175
L161.3000 44.8675
" />
<path d="M167.0500 44.8675
L164.3000 44.8675
" />
<path d="M167.0500 44.8675
L168.2000 46.0175
" />
<path d="M164.3000 44.8675
L164.3000 44.0175
" />
<path d="M161.3000 44.8675
L158.5500 44.8675
" />
<path d="M158.5500 44.8675
L157.4000 46.0175
" />
<path d="M168.2000 46.0175
L168.2000 55.6675
" />
<path d="M157.4000 46.0175
L157.4000 55.6675
" />
<path d="M168.2000 55.6675
L164.3000 55.6675
" />
<path d="M164.3000 55.6675
L164.3000 56.5175
" />
<path d="M161.3000 55.6675
L157.4000 55.6675
" />
<path d="M164.3000 56.5175
L161.3000 56.5175
" />
<path d="M161.3000 56.5175
L161.3000 55.6675
" />
<path d="M167.5000 69.5000
L172.5000 69.5000
" />
<path d="M172.5000 69.5000
L172.5000 64.5000
" />
<path d="M167.5000 64.5000
L167.5000 69.5000
" />
<path d="M172.5000 64.5000
L167.5000 64.5000
" />
<circle cx="180.0000" cy="67.0000" r="3.2000" /> 
<path d="M39.6450 29.9750
L43.0050 29.9750
" />
<path d="M39.6450 31.8750
L39.6450 29.9750
" />
<path d="M43.0050 29.9750
L43.0050 31.8750
" />
<path d="M43.0050 31.8750
L39.6450 31.8750
" />
<path d="M136.3750 54.9750
L136.3750 57.9750
" />
<path d="M136.3750 57.9750
L137.2250 57.9750
" />
<path d="M137.2250 52.2250
L137.2250 54.9750
" />
<path d="M137.2250 52.2250
L138.3750 51.0750
" />
<path d="M137.2250 54.9750
L136.3750 54.9750
" />
<path d="M137.2250 57.9750
L137.2250 60.7250
" />
<path d="M137.2250 60.7250
L138.3750 61.8750
" />
<path d="M138.3750 51.0750
L148.0250 51.0750
" />
<path d="M138.3750 61.8750
L148.0250 61.8750
" />
<path d="M148.0250 51.0750
L148.0250 54.9750
" />
<path d="M148.0250 54.9750
L148.8750 54.9750
" />
<path d="M148.0250 57.9750
L148.0250 61.8750
" />
<path d="M148.8750 54.9750
L148.8750 57.9750
" />
<path d="M148.8750 57.9750
L148.0250 57.9750
" />
<path d="M62.1500 45.2500
L62.1500 50.7500
" />
<path d="M62.1500 50.7500
L69.0500 50.7500
" />
<path d="M69.0500 45.2500
L62.1500 45.2500
" />
<path d="M69.0500 50.7500
L69.0500 45.2500
" />
<path d="M88.8000 43.0200
L92.2000 43.0200
" />
<path d="M88.8000 44.9800
L88.8000 43.0200
" />
<path d="M92.2000 43.0200
L92.2000 44.9800
" />
<path d="M92.2000 44.9800
L88.8000 44.9800
" />
<path d="M168.2700 93.0100
L168.2700 72.7800
" />
<path d="M168.2700 93.0100
L195.8000 93.0100
" />
<path d="M195.8000 72.7800
L168.2700 72.7800
" />
<path d="M195.8000 93.0100
L195.8000 72.7800
" />
<circle cx="105.0000" cy="119.0000" r="3.2000" /> 
<path d="M191.0500 117.8500
L188.5500 117.8500
" />
<path d="M191.0500 117.8500
L191.0500 121.1500
" />
<path d="M188.5500 121.1500
L188.5500 117.8500
" />
<path d="M188.5500 121.1500
L191.0500 121.1500
" />
<path d="M22.0000 60.7500
L22.0000 73.2500
" />
<path d="M22.0000 73.2500
L38.0000 73.2500
" />
<path d="M38.0000 60.7500
L22.0000 60.7500
" />
<path d="M38.0000 73.2500
L38.0000 60.7500
" />
<path d="M128.3000 40.9200
L131.7000 40.9200
" />
<path d="M128.3000 42.8800
L128.3000 40.9200
" />
<path d="M131.7000 40.9200
L131.7000 42.8800
" />
<path d="M131.7000 42.8800
L128.3000 42.8800
" />
<path d="M45.3500 30.2300
L45.3500 34.5700
" />
<path d="M45.3500 34.5700
L56.6500 34.5700
" />
<path d="M56.6500 30.2300
L45.3500 30.2300
" />
<path d="M56.6500 34.5700
L56.6500 30.2300
" />
<path d="M56.6800 41.6750
L53.3200 41.6750
" />
<path d="M56.6800 39.7750
L56.6800 41.6750
" />
<path d="M53.3200 41.6750
L53.3200 39.7750
" />
<path d="M53.3200 39.7750
L56.6800 39.7750
" />
<path d="M164.3000 31.2175
L161.3000 31.2175
" />
<path d="M161.3000 31.2175
L161.3000 32.0675
" />
<path d="M167.0500 32.0675
L164.3000 32.0675
" />
<path d="M167.0500 32.0675
L168.2000 33.2175
" />
<path d="M164.3000 32.0675
L164.3000 31.2175
" />
<path d="M161.3000 32.0675
L158.5500 32.0675
" />
<path d="M158.5500 32.0675
L157.4000 33.2175
" />
<path d="M168.2000 33.2175
L168.2000 42.8675
" />
<path d="M157.4000 33.2175
L157.4000 42.8675
" />
<path d="M168.2000 42.8675
L164.3000 42.8675
" />
<path d="M164.3000 42.8675
L164.3000 43.7175
" />
<path d="M161.3000 42.8675
L157.4000 42.8675
" />
<path d="M164.3000 43.7175
L161.3000 43.7175
" />
<path d="M161.3000 43.7175
L161.3000 42.8675
" />
<path d="M102.5000 106.5000
L102.5000 111.5000
" />
<path d="M102.5000 111.5000
L107.5000 111.5000
" />
<path d="M107.5000 106.5000
L102.5000 106.5000
" />
<path d="M107.5000 111.5000
L107.5000 106.5000
" />
<path d="M53.3200 41.9500
L56.6800 41.9500
" />
<path d="M53.3200 43.8500
L53.3200 41.9500
" />
<path d="M56.6800 41.9500
L56.6800 43.8500
" />
<path d="M56.6800 43.8500
L53.3200 43.8500
" />
<path d="M42.6050 33.3550
L39.6450 33.3550
" />
<path d="M42.6050 31.8950
L42.6050 33.3550
" />
<path d="M39.6450 33.3550
L39.6450 31.8950
" />
<path d="M39.6450 31.8950
L42.6050 31.8950
" />
<path d="M157.4000 50.1000
L152.8000 50.1000
" />
<path d="M157.4000 47.8000
L157.4000 50.1000
" />
<path d="M152.8000 50.1000
L152.8000 47.8000
" />
<path d="M152.8000 47.8000
L157.4000 47.8000
" />
<path d="M45.3500 30.2000
L43.0500 30.2000
" />
<path d="M45.3500 30.2000
L45.3500 34.6000
" />
<path d="M45.3500 34.6000
L43.0500 34.6000
" />
<path d="M43.0500 34.6000
L43.0500 30.2000
" />
<path d="M113.8000 43.0200
L117.2000 43.0200
" />
<path d="M113.8000 44.9800
L113.8000 43.0200
" />
<path d="M117.2000 43.0200
L117.2000 44.9800
" />
<path d="M117.2000 44.9800
L113.8000 44.9800
" />
<path d="M39.6450 33.3700
L42.6050 33.3700
" />
<path d="M39.6450 34.8300
L39.6450 33.3700
" />
<path d="M42.6050 33.3700
L42.6050 34.8300
" />
<path d="M42.6050 34.8300
L39.6450 34.8300
" />
<path d="M172.6500 30.7000
L166.7500 30.7000
" />
<path d="M172.6500 26.8000
L172.6500 30.7000
" />
<path d="M166.7500 30.7000
L166.7500 26.8000
" />
<path d="M166.7500 26.8000
L172.6500 26.8000
" />
<circle cx="118.9000" cy="63.5656" r="2.6000" /> 
<path d="M157.3000 47.7800
L153.9000 47.7800
" />
<path d="M157.3000 45.8200
L157.3000 47.7800
" />
<path d="M153.9000 47.7800
L153.9000 45.8200
" />
<path d="M153.9000 45.8200
L157.3000 45.8200
" />
<path d="M172.0000 112.7500
L172.0000 125.2500
" />
<path d="M172.0000 125.2500
L188.0000 125.2500
" />
<path d="M188.0000 112.7500
L172.0000 112.7500
" />
<path d="M188.0000 125.2500
L188.0000 112.7500
" />
<circle cx="180.0000" cy="119.0000" r="3.2000" /> 
<path d="M172.0000 60.7500
L172.0000 73.2500
" />
<path d="M172.0000 73.2500
L188.0000 73.2500
" />
<path d="M188.0000 60.7500
L172.0000 60.7500
" />
<path d="M188.0000 73.2500
L188.0000 60.7500
" />
<path d="M22.0000 112.7500
L22.0000 125.2500
" />
<path d="M22.0000 125.2500
L38.0000 125.2500
" />
<path d="M38.0000 112.7500
L22.0000 112.7500
" />
<path d="M38.0000 125.2500
L38.0000 112.7500
" />
<circle cx="168.0000" cy="23.0000" r="2.6000" /> 
<path d="M50.3200 42.1700
L53.2800 42.1700
" />
<path d="M50.3200 43.6300
L50.3200 42.1700
" />
<path d="M53.2800 42.1700
L53.2800 43.6300
" />
<path d="M53.2800 43.6300
L50.3200 43.6300
" />
<path d="M133.7500 26.3000
L133.7500 41.7000
" />
<path d="M133.7500 26.3000
L151.2500 26.3000
" />
<path d="M151.2500 41.7000
L133.7500 41.7000
" />
<path d="M151.2500 41.7000
L151.2500 26.3000
" />
<path d="M97.0000 112.7500
L97.0000 125.2500
" />
<path d="M97.0000 125.2500
L113.0000 125.2500
" />
<path d="M113.0000 112.7500
L97.0000 112.7500
" />
<path d="M113.0000 125.2500
L113.0000 112.7500
" />
<path d="M148.9250 45.0750
L153.5250 45.0750
" />
<path d="M148.9250 47.3750
L148.9250 45.0750
" />
<path d="M153.5250 45.0750
L153.5250 47.3750
" />
<path d="M153.5250 47.3750
L148.9250 47.3750
" />
<path d="M135.4000 45.8000
L135.4000 52.8000
" />
<path d="M131.9000 45.8000
L135.4000 45.8000
" />
<path d="M135.4000 52.8000
L131.9000 52.8000
" />
<path d="M131.9000 52.8000
L131.9000 45.8000
" />
<path d="M50.2200 40.0450
L53.1800 40.0450
" />
<path d="M50.2200 41.5050
L50.2200 40.0450
" />
<path d="M53.1800 40.0450
L53.1800 41.5050
" />
<path d="M53.1800 41.5050
L50.2200 41.5050
" />
<path d="M100.2500 32.4500
L100.2500 19.7500
" />
<path d="M100.2500 19.7500
L97.2500 19.7500
" />
<path d="M97.2500 19.7500
L97.2500 17.9500
" />
<path d="M97.2500 17.9500
L90.7500 17.9500
" />
<path d="M90.7500 19.7500
L87.7500 19.7500
" />
<path d="M90.7500 17.9500
L90.7500 19.7500
" />
<path d="M87.7500 32.4500
L100.2500 32.4500
" />
<path d="M87.7500 20.0000
L87.7500 32.4500
" />
<path d="M87.7500 19.7500
L87.7500 20.0000
" />
<g >
</g>
<g >
</g>
<g >
</g>
<g >
</g>
<g >
</g>
<g >
</g>
<g >
</g>
<g >
</g>
<g >
</g>
<g >
</g>
<g >
</g>
<g >
</g>
<g >
</g>
<g >
</g>
<g >
</g>
<g >
</g>
<g >
</g>
<g >
</g>
<g >
</g>
<g >
</g>
<g >
</g>
<g >
</g>
<g >
</g>
<g >
</g>
<g >
</g>
<g >
</g>
<g >
</g>
<g >
</g>
<g >
</g>
<g >
</g>
<g >
</g>
<g >
</g>
<g >
</g>
<g >
</g>
<g >
</g>
<g >
</g>
<g >
</g>
<g >
</g>
<g >
</g>
<g >
</g>
<g >
</g>
<g >
</g>
<g >
</g>
<g >
</g>
<g >
</g>
<g >
</g>
<g >
</g>
<g >
</g>
<g >
</g>
<g >
</g>
<g >
</g>
<g >
</g>
<g >
</g>
<g >
</g>
<g >
</g>
<g >
</g>
<g >
</g>
<g >
</g>
<g >
</g>
<g >
</g>
<g >
</g>
<g >
</g>
<g >
</g>
<g >
</g>
<g >
</g>
<g >
</g>
<g >
</g>
<g >
</g>
<g >
</g>
<g >
</g>
<g >
</g>
<g >
</g>
<g >
</g>
<g >
</g>
<g >
</g>
<g >
</g>
<g >
</g>
<g >
</g>
<g >
</g>
<g >
</g>
<g >
</g>
<g >
</g>
<g >
</g>
<g >
</g>
<g >
</g>
<g >
</g>
</g> 
</svg>
