<?xml version="1.0" standalone="no"?>
 <!DOCTYPE svg PUBLIC "-//W3C//DTD SVG 1.1//EN" 
 "http://www.w3.org/Graphics/SVG/1.1/DTD/svg11.dtd"> 
<svg
  xmlns:svg="http://www.w3.org/2000/svg"
  xmlns="http://www.w3.org/2000/svg"
  xmlns:xlink="http://www.w3.org/1999/xlink"
  version="1.1"
  width="297.0022mm" height="210.0072mm" viewBox="0.0000 0.0000 297.0022 210.0072">
<title>SVG Image created as pedalboard-hw-F_Courtyard.svg date 2024/10/09 23:41:56 </title>
  <desc>Image generated by PCBNEW </desc>
<g style="fill:#000000; fill-opacity:1.0000;stroke:#000000; stroke-opacity:1.0000;
stroke-linecap:round; stroke-linejoin:round;"
 transform="translate(0 0) scale(1 1)">
</g>
<g style="fill:none; 
stroke:#000000; stroke-width:0.0500; stroke-opacity:1; 
stroke-linecap:round; stroke-linejoin:round;">
<path d="M163.2600 55.3600
L163.2600 58.3600
" />
<path d="M163.2600 55.3600
L166.2600 55.3600
" />
<path d="M166.2600 58.3600
L163.2600 58.3600
" />
<path d="M166.2600 58.3600
L166.2600 55.3600
" />
<path d="M147.0600 43.8600
L150.4200 43.8600
" />
<path d="M147.0600 45.7600
L147.0600 43.8600
" />
<path d="M150.4200 43.8600
L150.4200 45.7600
" />
<path d="M150.4200 45.7600
L147.0600 45.7600
" />
<path d="M114.0500 43.2900
L117.4500 43.2900
" />
<path d="M114.0500 45.2500
L114.0500 43.2900
" />
<path d="M117.4500 43.2900
L117.4500 45.2500
" />
<path d="M117.4500 45.2500
L114.0500 45.2500
" />
<circle cx="168.0000" cy="121.5000" r="2.6000" /> 
<circle cx="25.0000" cy="23.0000" r="1.7500" /> 
<path d="M97.7200 43.5100
L101.0800 43.5100
" />
<path d="M97.7200 45.4100
L97.7200 43.5100
" />
<path d="M101.0800 43.5100
L101.0800 45.4100
" />
<path d="M101.0800 45.4100
L97.7200 45.4100
" />
<path d="M113.7500 19.7500
L113.7500 20.0000
" />
<path d="M113.7500 20.0000
L113.7500 32.4500
" />
<path d="M113.7500 32.4500
L126.2500 32.4500
" />
<path d="M116.7500 17.9500
L116.7500 19.7500
" />
<path d="M116.7500 19.7500
L113.7500 19.7500
" />
<path d="M123.2500 17.9500
L116.7500 17.9500
" />
<path d="M123.2500 19.7500
L123.2500 17.9500
" />
<path d="M126.2500 19.7500
L123.2500 19.7500
" />
<path d="M126.2500 32.4500
L126.2500 19.7500
" />
<path d="M98.4600 38.1500
L100.4200 38.1500
" />
<path d="M98.4600 41.5500
L98.4600 38.1500
" />
<path d="M100.4200 38.1500
L100.4200 41.5500
" />
<path d="M100.4200 41.5500
L98.4600 41.5500
" />
<path d="M154.8600 45.4600
L156.8200 45.4600
" />
<path d="M154.8600 48.8600
L154.8600 45.4600
" />
<path d="M156.8200 45.4600
L156.8200 48.8600
" />
<path d="M156.8200 48.8600
L154.8600 48.8600
" />
<circle cx="190.0000" cy="29.0000" r="1.7500" /> 
<path d="M151.7200 31.4300
L151.7200 34.4300
" />
<path d="M151.7200 31.4300
L154.7200 31.4300
" />
<path d="M154.7200 34.4300
L151.7200 34.4300
" />
<path d="M154.7200 34.4300
L154.7200 31.4300
" />
<path d="M137.5800 53.6000
L141.0800 53.6000
" />
<path d="M137.5800 60.6000
L137.5800 53.6000
" />
<path d="M141.0800 53.6000
L141.0800 60.6000
" />
<path d="M141.0800 60.6000
L137.5800 60.6000
" />
<path d="M93.2575 54.9000
L96.6175 54.9000
" />
<path d="M93.2575 56.8000
L93.2575 54.9000
" />
<path d="M96.6175 54.9000
L96.6175 56.8000
" />
<path d="M96.6175 56.8000
L93.2575 56.8000
" />
<path d="M14.2000 31.7700
L14.2000 52.0000
" />
<path d="M14.2000 52.0000
L41.7300 52.0000
" />
<path d="M41.7300 31.7700
L14.2000 31.7700
" />
<path d="M41.7300 31.7700
L41.7300 52.0000
" />
<path d="M14.2000 92.9700
L14.2000 113.2000
" />
<path d="M14.2000 113.2000
L41.7300 113.2000
" />
<path d="M41.7300 92.9700
L14.2000 92.9700
" />
<path d="M41.7300 92.9700
L41.7300 113.2000
" />
<path d="M155.6700 51.5200
L157.6300 51.5200
" />
<path d="M155.6700 54.9200
L155.6700 51.5200
" />
<path d="M157.6300 51.5200
L157.6300 54.9200
" />
<path d="M157.6300 54.9200
L155.6700 54.9200
" />
<path d="M173.2000 24.9000
L174.4000 24.9000
" />
<path d="M173.2000 29.9000
L173.2000 24.9000
" />
<path d="M173.2000 29.9000
L174.4000 29.9000
" />
<path d="M174.4000 16.3000
L174.4000 24.9000
" />
<path d="M174.4000 29.9000
L174.4000 31.8000
" />
<path d="M174.4000 31.8000
L184.4000 31.8000
" />
<path d="M184.4000 16.3000
L174.4000 16.3000
" />
<path d="M184.4000 31.8000
L184.4000 16.3000
" />
<path d="M128.7700 53.2500
L128.7700 60.4500
" />
<path d="M128.7700 60.4500
L137.5700 60.4500
" />
<path d="M137.5700 53.2500
L128.7700 53.2500
" />
<path d="M137.5700 60.4500
L137.5700 53.2500
" />
<path d="M83.7250 40.0450
L85.6250 40.0450
" />
<path d="M83.7250 43.4050
L83.7250 40.0450
" />
<path d="M85.6250 40.0450
L85.6250 43.4050
" />
<path d="M85.6250 43.4050
L83.7250 43.4050
" />
<path d="M172.7900 20.2100
L172.7900 31.2100
" />
<path d="M172.7900 31.2100
L183.6000 31.2100
" />
<path d="M183.6000 20.2100
L172.7900 20.2100
" />
<path d="M183.6000 31.2100
L183.6000 20.2100
" />
<path d="M130.3900 51.2400
L133.7900 51.2400
" />
<path d="M130.3900 53.2000
L130.3900 51.2400
" />
<path d="M133.7900 51.2400
L133.7900 53.2000
" />
<path d="M133.7900 53.2000
L130.3900 53.2000
" />
<path d="M122.3600 42.4600
L122.3600 47.2600
" />
<path d="M122.3600 47.2600
L125.6600 47.2600
" />
<path d="M125.6600 42.4600
L122.3600 42.4600
" />
<path d="M125.6600 47.2600
L125.6600 42.4600
" />
<path d="M97.7200 45.4100
L101.0800 45.4100
" />
<path d="M97.7200 47.3100
L97.7200 45.4100
" />
<path d="M101.0800 45.4100
L101.0800 47.3100
" />
<path d="M101.0800 47.3100
L97.7200 47.3100
" />
<path d="M93.1875 52.8700
L96.5875 52.8700
" />
<path d="M93.1875 54.8300
L93.1875 52.8700
" />
<path d="M96.5875 52.8700
L96.5875 54.8300
" />
<path d="M96.5875 54.8300
L93.1875 54.8300
" />
<path d="M47.9000 101.4000
L47.9000 103.9000
" />
<path d="M47.9000 101.4000
L51.2000 101.4000
" />
<path d="M51.2000 103.9000
L47.9000 103.9000
" />
<path d="M51.2000 103.9000
L51.2000 101.4000
" />
<path d="M150.8700 50.7300
L155.6700 50.7300
" />
<path d="M150.8700 59.5300
L150.8700 50.7300
" />
<path d="M155.6700 50.7300
L155.6700 59.5300
" />
<path d="M155.6700 59.5300
L150.8700 59.5300
" />
<path d="M93.2575 50.9000
L96.6175 50.9000
" />
<path d="M93.2575 52.8000
L93.2575 50.9000
" />
<path d="M96.6175 50.9000
L96.6175 52.8000
" />
<path d="M96.6175 52.8000
L93.2575 52.8000
" />
<path d="M14.2000 72.7700
L14.2000 93.0000
" />
<path d="M14.2000 93.0000
L41.7300 93.0000
" />
<path d="M41.7300 72.7700
L14.2000 72.7700
" />
<path d="M41.7300 72.7700
L41.7300 93.0000
" />
<path d="M168.2700 113.2250
L168.2700 92.9950
" />
<path d="M168.2700 113.2250
L195.8000 113.2250
" />
<path d="M195.8000 92.9950
L168.2700 92.9950
" />
<path d="M195.8000 113.2250
L195.8000 92.9950
" />
<path d="M127.5150 42.6500
L127.5150 46.2500
" />
<path d="M127.5150 46.2500
L136.1650 46.2500
" />
<path d="M136.1650 42.6500
L127.5150 42.6500
" />
<path d="M136.1650 46.2500
L136.1650 42.6500
" />
<path d="M157.9400 46.1300
L161.3400 46.1300
" />
<path d="M157.9400 48.0900
L157.9400 46.1300
" />
<path d="M161.3400 46.1300
L161.3400 48.0900
" />
<path d="M161.3400 48.0900
L157.9400 48.0900
" />
</g>
<g style="fill:none; 
stroke:#000000; stroke-width:0.1000; stroke-opacity:1; 
stroke-linecap:round; stroke-linejoin:round;">
<path d="M113.6920 52.4875
L113.9460 52.4875
" />
<path d="M113.6920 55.6879
L113.6920 52.4875
" />
<path d="M113.9460 52.4837
L118.0540 52.4837
" />
<path d="M113.9460 55.6879
L113.6920 55.6879
" />
</g>
<g style="fill:none; 
stroke:#000000; stroke-width:0.1524; stroke-opacity:1; 
stroke-linecap:round; stroke-linejoin:round;">
<path d="M118.0540 52.4837
L118.0540 52.4875
" />
</g>
<g style="fill:#000000; fill-opacity:1.0000; stroke:none;">
<circle cx="118.0540" cy="52.4875" r="0.0762" /> 
</g>
<g style="fill:none; 
stroke:#000000; stroke-width:0.1000; stroke-opacity:1; 
stroke-linecap:round; stroke-linejoin:round;">
<path d="M118.0540 52.4875
L118.0540 55.6879
" />
</g>
<g style="fill:#000000; fill-opacity:1.0000; stroke:none;">
<circle cx="118.0540" cy="55.6879" r="0.0762" /> 
</g>
<g style="fill:none; 
stroke:#000000; stroke-width:0.1000; stroke-opacity:1; 
stroke-linecap:round; stroke-linejoin:round;">
<path d="M118.0540 55.6917
L113.9460 55.6917
" />
</g>
<g style="fill:none; 
stroke:#000000; stroke-width:0.1524; stroke-opacity:1; 
stroke-linecap:round; stroke-linejoin:round;">
<path d="M118.0540 55.6917
L118.0540 55.6879
" />
</g>
<g style="fill:none; 
stroke:#000000; stroke-width:0.0500; stroke-opacity:1; 
stroke-linecap:round; stroke-linejoin:round;">
<circle cx="118.9800" cy="121.5200" r="2.6000" /> 
<path d="M154.8800 42.0900
L156.7800 42.0900
" />
<path d="M154.8800 45.4500
L154.8800 42.0900
" />
<path d="M156.7800 42.0900
L156.7800 45.4500
" />
<path d="M156.7800 45.4500
L154.8800 45.4500
" />
<path d="M97.0000 60.7500
L97.0000 73.2500
" />
<path d="M97.0000 73.2500
L113.0000 73.2500
" />
<path d="M113.0000 60.7500
L97.0000 60.7500
" />
<path d="M113.0000 73.2500
L113.0000 60.7500
" />
<circle cx="185.0000" cy="128.0000" r="1.7500" /> 
<path d="M153.4400 27.9700
L155.4000 27.9700
" />
<path d="M153.4400 31.3700
L153.4400 27.9700
" />
<path d="M155.4000 27.9700
L155.4000 31.3700
" />
<path d="M155.4000 31.3700
L153.4400 31.3700
" />
<path d="M168.1500 52.0300
L170.1100 52.0300
" />
<path d="M168.1500 55.4300
L168.1500 52.0300
" />
<path d="M170.1100 52.0300
L170.1100 55.4300
" />
<path d="M170.1100 55.4300
L168.1500 55.4300
" />
<path d="M87.4500 53.9500
L89.3500 53.9500
" />
<path d="M87.4500 57.3100
L87.4500 53.9500
" />
<path d="M89.3500 53.9500
L89.3500 57.3100
" />
<path d="M89.3500 57.3100
L87.4500 57.3100
" />
<path d="M70.0100 49.2300
L70.0100 58.2300
" />
<path d="M70.0100 58.2300
L73.9100 58.2300
" />
<path d="M73.9100 49.2300
L70.0100 49.2300
" />
<path d="M73.9100 58.2300
L73.9100 49.2300
" />
<path d="M89.8600 51.2500
L89.8600 56.0500
" />
<path d="M89.8600 56.0500
L93.1600 56.0500
" />
<path d="M93.1600 51.2500
L89.8600 51.2500
" />
<path d="M93.1600 56.0500
L93.1600 51.2500
" />
<path d="M162.2600 42.4500
L164.1600 42.4500
" />
<path d="M162.2600 45.8100
L162.2600 42.4500
" />
<path d="M164.1600 42.4500
L164.1600 45.8100
" />
<path d="M164.1600 45.8100
L162.2600 45.8100
" />
<circle cx="42.0000" cy="23.0000" r="2.6000" /> 
<path d="M159.6400 51.5200
L161.6000 51.5200
" />
<path d="M159.6400 54.9200
L159.6400 51.5200
" />
<path d="M161.6000 51.5200
L161.6000 54.9200
" />
<path d="M161.6000 54.9200
L159.6400 54.9200
" />
<path d="M168.2850 52.0300
L168.2850 31.8000
" />
<path d="M168.2850 52.0300
L195.8150 52.0300
" />
<path d="M195.8150 31.8000
L168.2850 31.8000
" />
<path d="M195.8150 52.0300
L195.8150 31.8000
" />
<path d="M162.2300 39.0200
L164.1900 39.0200
" />
<path d="M162.2300 42.4200
L162.2300 39.0200
" />
<path d="M164.1900 39.0200
L164.1900 42.4200
" />
<path d="M164.1900 42.4200
L162.2300 42.4200
" />
<circle cx="168.0000" cy="63.5000" r="2.6000" /> 
<path d="M154.8600 38.6700
L156.8200 38.6700
" />
<path d="M154.8600 42.0700
L154.8600 38.6700
" />
<path d="M156.8200 38.6700
L156.8200 42.0700
" />
<path d="M156.8200 42.0700
L154.8600 42.0700
" />
<path d="M58.7500 26.3000
L58.7500 41.7000
" />
<path d="M58.7500 26.3000
L76.2500 26.3000
" />
<path d="M76.2500 41.7000
L58.7500 41.7000
" />
<path d="M76.2500 41.7000
L76.2500 26.3000
" />
<path d="M156.1000 34.7100
L159.5000 34.7100
" />
<path d="M156.1000 36.6700
L156.1000 34.7100
" />
<path d="M159.5000 34.7100
L159.5000 36.6700
" />
<path d="M159.5000 36.6700
L156.1000 36.6700
" />
<path d="M156.8200 38.7000
L156.8200 46.1000
" />
<path d="M156.8200 46.1000
L162.2200 46.1000
" />
<path d="M162.2200 38.7000
L156.8200 38.7000
" />
<path d="M162.2200 46.1000
L162.2200 38.7000
" />
<path d="M93.1500 48.8200
L96.5500 48.8200
" />
<path d="M93.1500 50.7800
L93.1500 48.8200
" />
<path d="M96.5500 48.8200
L96.5500 50.7800
" />
<path d="M96.5500 50.7800
L93.1500 50.7800
" />
<path d="M80.3450 40.4750
L83.7050 40.4750
" />
<path d="M80.3450 42.3750
L80.3450 40.4750
" />
<path d="M83.7050 40.4750
L83.7050 42.3750
" />
<path d="M83.7050 42.3750
L80.3450 42.3750
" />
<path d="M102.4700 51.0000
L104.4300 51.0000
" />
<path d="M102.4700 54.4000
L102.4700 51.0000
" />
<path d="M104.4300 51.0000
L104.4300 54.4000
" />
<path d="M104.4300 54.4000
L102.4700 54.4000
" />
<circle cx="168.0000" cy="128.0000" r="2.6000" /> 
<path d="M115.0200 50.4377
L118.3800 50.4377
" />
<path d="M115.0200 52.3377
L115.0200 50.4377
" />
<path d="M118.3800 50.4377
L118.3800 52.3377
" />
<path d="M118.3800 52.3377
L115.0200 52.3377
" />
<path d="M76.8200 30.5000
L78.7800 30.5000
" />
<path d="M76.8200 33.9000
L76.8200 30.5000
" />
<path d="M78.7800 30.5000
L78.7800 33.9000
" />
<path d="M78.7800 33.9000
L76.8200 33.9000
" />
<path d="M159.5300 32.7500
L162.9300 32.7500
" />
<path d="M159.5300 34.7100
L159.5300 32.7500
" />
<path d="M162.9300 32.7500
L162.9300 34.7100
" />
<path d="M162.9300 34.7100
L159.5300 34.7100
" />
<path d="M100.3750 79.5000
L100.3750 83.1000
" />
<path d="M100.3750 83.1000
L109.0250 83.1000
" />
<path d="M109.0250 79.5000
L100.3750 79.5000
" />
<path d="M109.0250 83.1000
L109.0250 79.5000
" />
<path d="M163.1300 29.7500
L166.5300 29.7500
" />
<path d="M163.1300 31.7100
L163.1300 29.7500
" />
<path d="M166.5300 29.7500
L166.5300 31.7100
" />
<path d="M166.5300 31.7100
L163.1300 31.7100
" />
<path d="M168.2700 93.0100
L168.2700 72.7800
" />
<path d="M168.2700 93.0100
L195.8000 93.0100
" />
<path d="M195.8000 72.7800
L168.2700 72.7800
" />
<path d="M195.8000 93.0100
L195.8000 72.7800
" />
<path d="M163.1900 22.3300
L165.1500 22.3300
" />
<path d="M163.1900 25.7300
L163.1900 22.3300
" />
<path d="M165.1500 22.3300
L165.1500 25.7300
" />
<path d="M165.1500 25.7300
L163.1900 25.7300
" />
<path d="M157.6500 51.5300
L159.6100 51.5300
" />
<path d="M157.6500 54.9300
L157.6500 51.5300
" />
<path d="M159.6100 51.5300
L159.6100 54.9300
" />
<path d="M159.6100 54.9300
L157.6500 54.9300
" />
<path d="M167.6500 116.6500
L167.6500 113.3500
" />
<path d="M167.6500 116.6500
L170.1500 116.6500
" />
<path d="M170.1500 113.3500
L167.6500 113.3500
" />
<path d="M170.1500 113.3500
L170.1500 116.6500
" />
<path d="M22.0000 60.7500
L22.0000 73.2500
" />
<path d="M22.0000 73.2500
L38.0000 73.2500
" />
<path d="M38.0000 60.7500
L22.0000 60.7500
" />
<path d="M38.0000 73.2500
L38.0000 60.7500
" />
<path d="M81.5800 44.6900
L81.5800 55.9900
" />
<path d="M81.5800 55.9900
L85.9200 55.9900
" />
<path d="M85.9200 44.6900
L81.5800 44.6900
" />
<path d="M85.9200 55.9900
L85.9200 44.6900
" />
<path d="M79.6800 53.1600
L81.5800 53.1600
" />
<path d="M79.6800 56.5200
L79.6800 53.1600
" />
<path d="M81.5800 53.1600
L81.5800 56.5200
" />
<path d="M81.5800 56.5200
L79.6800 56.5200
" />
<path d="M47.8700 71.0000
L51.2300 71.0000
" />
<path d="M47.8700 72.9000
L47.8700 71.0000
" />
<path d="M51.2300 71.0000
L51.2300 72.9000
" />
<path d="M51.2300 72.9000
L47.8700 72.9000
" />
<path d="M95.5500 77.1500
L95.5500 73.8500
" />
<path d="M95.5500 77.1500
L98.0500 77.1500
" />
<path d="M98.0500 73.8500
L95.5500 73.8500
" />
<path d="M98.0500 73.8500
L98.0500 77.1500
" />
<path d="M93.0500 77.1500
L93.0500 73.8500
" />
<path d="M93.0500 77.1500
L95.5500 77.1500
" />
<path d="M95.5500 73.8500
L93.0500 73.8500
" />
<path d="M95.5500 73.8500
L95.5500 77.1500
" />
<path d="M103.2800 41.4800
L103.2800 49.7200
" />
<path d="M103.2800 49.7200
L111.5200 49.7200
" />
<path d="M111.5200 41.4800
L103.2800 41.4800
" />
<path d="M111.5200 49.7200
L111.5200 41.4800
" />
<path d="M47.8200 67.0500
L51.1800 67.0500
" />
<path d="M47.8200 68.9500
L47.8200 67.0500
" />
<path d="M51.1800 67.0500
L51.1800 68.9500
" />
<path d="M51.1800 68.9500
L47.8200 68.9500
" />
<path d="M133.8100 51.2700
L137.2100 51.2700
" />
<path d="M133.8100 53.2300
L133.8100 51.2700
" />
<path d="M137.2100 51.2700
L137.2100 53.2300
" />
<path d="M137.2100 53.2300
L133.8100 53.2300
" />
<path d="M159.5100 34.7300
L162.9100 34.7300
" />
<path d="M159.5100 36.6900
L159.5100 34.7300
" />
<path d="M162.9100 34.7300
L162.9100 36.6900
" />
<path d="M162.9100 36.6900
L159.5100 36.6900
" />
<path d="M146.3000 41.9400
L149.6600 41.9400
" />
<path d="M146.3000 43.8400
L146.3000 41.9400
" />
<path d="M149.6600 41.9400
L149.6600 43.8400
" />
<path d="M149.6600 43.8400
L146.3000 43.8400
" />
<path d="M137.5900 46.5275
L141.0900 46.5275
" />
<path d="M137.5900 53.5275
L137.5900 46.5275
" />
<path d="M141.0900 46.5275
L141.0900 53.5275
" />
<path d="M141.0900 53.5275
L137.5900 53.5275
" />
<path d="M152.9600 45.4500
L154.8600 45.4500
" />
<path d="M152.9600 48.8100
L152.9600 45.4500
" />
<path d="M154.8600 45.4500
L154.8600 48.8100
" />
<path d="M154.8600 48.8100
L152.9600 48.8100
" />
<path d="M107.0400 38.4800
L110.4400 38.4800
" />
<path d="M107.0400 40.4400
L107.0400 38.4800
" />
<path d="M110.4400 38.4800
L110.4400 40.4400
" />
<path d="M110.4400 40.4400
L107.0400 40.4400
" />
<path d="M77.7800 53.1600
L79.6800 53.1600
" />
<path d="M77.7800 56.5200
L77.7800 53.1600
" />
<path d="M79.6800 53.1600
L79.6800 56.5200
" />
<path d="M79.6800 56.5200
L77.7800 56.5200
" />
<path d="M80.3450 38.9700
L83.3050 38.9700
" />
<path d="M80.3450 40.4300
L80.3450 38.9700
" />
<path d="M83.3050 38.9700
L83.3050 40.4300
" />
<path d="M83.3050 40.4300
L80.3450 40.4300
" />
<path d="M78.9000 42.3900
L83.3000 42.3900
" />
<path d="M78.9000 44.6900
L78.9000 42.3900
" />
<path d="M83.3000 44.6900
L78.9000 44.6900
" />
<path d="M83.3000 44.6900
L83.3000 42.3900
" />
<path d="M100.4900 37.5600
L103.8900 37.5600
" />
<path d="M100.4900 39.5200
L100.4900 37.5600
" />
<path d="M103.8900 37.5600
L103.8900 39.5200
" />
<path d="M103.8900 39.5200
L100.4900 39.5200
" />
<path d="M169.4200 29.8800
L172.7800 29.8800
" />
<path d="M169.4200 31.7800
L169.4200 29.8800
" />
<path d="M172.7800 29.8800
L172.7800 31.7800
" />
<path d="M172.7800 31.7800
L169.4200 31.7800
" />
<path d="M78.8700 39.4200
L80.3300 39.4200
" />
<path d="M78.8700 42.3800
L78.8700 39.4200
" />
<path d="M80.3300 39.4200
L80.3300 42.3800
" />
<path d="M80.3300 42.3800
L78.8700 42.3800
" />
<path d="M111.5000 50.4077
L114.9000 50.4077
" />
<path d="M111.5000 52.3677
L111.5000 50.4077
" />
<path d="M114.9000 50.4077
L114.9000 52.3677
" />
<path d="M114.9000 52.3677
L111.5000 52.3677
" />
<path d="M163.1200 25.7600
L169.0200 25.7600
" />
<path d="M163.1200 29.6600
L163.1200 25.7600
" />
<path d="M169.0200 25.7600
L169.0200 29.6600
" />
<path d="M169.0200 29.6600
L163.1200 29.6600
" />
<circle cx="118.9000" cy="63.5656" r="2.6000" /> 
<path d="M87.1500 37.3000
L87.1500 48.7000
" />
<path d="M87.1500 48.7000
L95.6500 48.7000
" />
<path d="M95.6500 37.3000
L87.1500 37.3000
" />
<path d="M95.6500 48.7000
L95.6500 37.3000
" />
<path d="M172.0000 112.7500
L172.0000 125.2500
" />
<path d="M172.0000 125.2500
L188.0000 125.2500
" />
<path d="M188.0000 112.7500
L172.0000 112.7500
" />
<path d="M188.0000 125.2500
L188.0000 112.7500
" />
<path d="M96.6400 47.8000
L96.6400 57.1000
" />
<path d="M96.6400 57.1000
L102.3600 57.1000
" />
<path d="M102.3600 47.8000
L96.6400 47.8000
" />
<path d="M102.3600 57.1000
L102.3600 47.8000
" />
</g>
<g style="fill:none; 
stroke:#000000; stroke-width:0.1200; stroke-opacity:1; 
stroke-linecap:round; stroke-linejoin:round;">
<path d="M53.6500 73.6000
L57.4300 73.6000
" />
<path d="M53.6500 96.4000
L53.6500 73.6000
" />
<path d="M57.4300 73.6000
L57.4300 96.4000
" />
<path d="M57.4300 96.4000
L53.6500 96.4000
" />
<path d="M87.5700 73.6000
L91.3500 73.6000
" />
<path d="M87.5700 96.4000
L87.5700 73.6000
" />
<path d="M91.3500 73.6000
L91.3500 96.4000
" />
<path d="M91.3500 96.4000
L87.5700 96.4000
" />
</g>
<g style="fill:none; 
stroke:#000000; stroke-width:0.0500; stroke-opacity:1; 
stroke-linecap:round; stroke-linejoin:round;">
<circle cx="24.5000" cy="128.5000" r="1.7500" /> 
<path d="M172.0000 60.7500
L172.0000 73.2500
" />
<path d="M172.0000 73.2500
L188.0000 73.2500
" />
<path d="M188.0000 60.7500
L172.0000 60.7500
" />
<path d="M188.0000 73.2500
L188.0000 60.7500
" />
<path d="M156.0900 36.6900
L159.4900 36.6900
" />
<path d="M156.0900 38.6500
L156.0900 36.6900
" />
<path d="M159.4900 36.6900
L159.4900 38.6500
" />
<path d="M159.4900 38.6500
L156.0900 38.6500
" />
<circle cx="42.0000" cy="128.0000" r="2.6000" /> 
<path d="M156.1200 32.7500
L159.5200 32.7500
" />
<path d="M156.1200 34.7100
L156.1200 32.7500
" />
<path d="M159.5200 32.7500
L159.5200 34.7100
" />
<path d="M159.5200 34.7100
L156.1200 34.7100
" />
<path d="M22.0000 112.7500
L22.0000 125.2500
" />
<path d="M22.0000 125.2500
L38.0000 125.2500
" />
<path d="M38.0000 112.7500
L22.0000 112.7500
" />
<path d="M38.0000 125.2500
L38.0000 112.7500
" />
<path d="M159.5000 36.7000
L162.9000 36.7000
" />
<path d="M159.5000 38.6600
L159.5000 36.7000
" />
<path d="M162.9000 36.7000
L162.9000 38.6600
" />
<path d="M162.9000 38.6600
L159.5000 38.6600
" />
<path d="M47.8200 65.1500
L51.1800 65.1500
" />
<path d="M47.8200 67.0500
L47.8200 65.1500
" />
<path d="M51.1800 65.1500
L51.1800 67.0500
" />
<path d="M51.1800 67.0500
L47.8200 67.0500
" />
<path d="M112.0700 46.0000
L114.0300 46.0000
" />
<path d="M112.0700 49.4000
L112.0700 46.0000
" />
<path d="M114.0300 46.0000
L114.0300 49.4000
" />
<path d="M114.0300 49.4000
L112.0700 49.4000
" />
<path d="M157.7200 48.1200
L159.6200 48.1200
" />
<path d="M157.7200 51.4800
L157.7200 48.1200
" />
<path d="M159.6200 48.1200
L159.6200 51.4800
" />
<path d="M159.6200 51.4800
L157.7200 51.4800
" />
<circle cx="168.0000" cy="23.0000" r="2.6000" /> 
<path d="M47.8200 69.0500
L51.1800 69.0500
" />
<path d="M47.8200 70.9500
L47.8200 69.0500
" />
<path d="M51.1800 69.0500
L51.1800 70.9500
" />
<path d="M51.1800 70.9500
L47.8200 70.9500
" />
<path d="M100.5000 39.5200
L103.9000 39.5200
" />
<path d="M100.5000 41.4800
L100.5000 39.5200
" />
<path d="M103.9000 39.5200
L103.9000 41.4800
" />
<path d="M103.9000 41.4800
L100.5000 41.4800
" />
<path d="M78.2000 50.1600
L79.6600 50.1600
" />
<path d="M78.2000 53.1200
L78.2000 50.1600
" />
<path d="M79.6600 50.1600
L79.6600 53.1200
" />
<path d="M79.6600 53.1200
L78.2000 53.1200
" />
<path d="M152.7300 24.4400
L152.7300 27.4400
" />
<path d="M152.7300 24.4400
L155.7300 24.4400
" />
<path d="M155.7300 27.4400
L152.7300 27.4400
" />
<path d="M155.7300 27.4400
L155.7300 24.4400
" />
<path d="M41.7500 45.7800
L43.6500 45.7800
" />
<path d="M41.7500 49.1400
L41.7500 45.7800
" />
<path d="M43.6500 45.7800
L43.6500 49.1400
" />
<path d="M43.6500 49.1400
L41.7500 49.1400
" />
<path d="M87.0600 53.9500
L87.0600 50.7500
" />
<path d="M87.0600 53.9500
L89.8600 53.9500
" />
<path d="M89.8600 50.7500
L87.0600 50.7500
" />
<path d="M89.8600 53.9500
L89.8600 50.7500
" />
<path d="M133.7500 26.3000
L133.7500 41.7000
" />
<path d="M133.7500 26.3000
L151.2500 26.3000
" />
<path d="M151.2500 41.7000
L133.7500 41.7000
" />
<path d="M151.2500 41.7000
L151.2500 26.3000
" />
<circle cx="105.0000" cy="98.0000" r="2.6000" /> 
<path d="M97.0000 112.7500
L97.0000 125.2500
" />
<path d="M97.0000 125.2500
L113.0000 125.2500
" />
<path d="M113.0000 112.7500
L97.0000 112.7500
" />
<path d="M113.0000 125.2500
L113.0000 112.7500
" />
<path d="M48.0000 61.9006
L48.0000 65.1006
" />
<path d="M48.0000 65.1006
L50.8000 65.1006
" />
<path d="M50.8000 61.9006
L48.0000 61.9006
" />
<path d="M50.8000 61.9006
L50.8000 65.1006
" />
<path d="M107.6600 51.1000
L109.6200 51.1000
" />
<path d="M107.6600 54.5000
L107.6600 51.1000
" />
<path d="M109.6200 51.1000
L109.6200 54.5000
" />
<path d="M109.6200 54.5000
L107.6600 54.5000
" />
<path d="M118.4000 50.4077
L121.8000 50.4077
" />
<path d="M118.4000 52.3677
L118.4000 50.4077
" />
<path d="M121.8000 50.4077
L121.8000 52.3677
" />
<path d="M121.8000 52.3677
L118.4000 52.3677
" />
<path d="M159.6900 48.1200
L161.6500 48.1200
" />
<path d="M159.6900 51.5200
L159.6900 48.1200
" />
<path d="M161.6500 48.1200
L161.6500 51.5200
" />
<path d="M161.6500 51.5200
L159.6900 51.5200
" />
<path d="M161.6500 46.6400
L161.6500 53.6400
" />
<path d="M161.6500 53.6400
L168.1500 53.6400
" />
<path d="M168.1500 46.6400
L161.6500 46.6400
" />
<path d="M168.1500 53.6400
L168.1500 46.6400
" />
<path d="M99.0300 41.5500
L102.4300 41.5500
" />
<path d="M99.0300 43.5100
L99.0300 41.5500
" />
<path d="M102.4300 41.5500
L102.4300 43.5100
" />
<path d="M102.4300 43.5100
L99.0300 43.5100
" />
<path d="M141.1200 47.1100
L141.1200 60.5100
" />
<path d="M141.1200 60.5100
L149.6200 60.5100
" />
<path d="M149.6200 47.1100
L141.1200 47.1100
" />
<path d="M149.6200 60.5100
L149.6200 47.1100
" />
<path d="M79.6600 50.1600
L81.1200 50.1600
" />
<path d="M79.6600 53.1200
L79.6600 50.1600
" />
<path d="M81.1200 50.1600
L81.1200 53.1200
" />
<path d="M81.1200 53.1200
L79.6600 53.1200
" />
<path d="M83.7445 19.7500
L83.7445 20.0000
" />
<path d="M83.7445 20.0000
L83.7445 32.4500
" />
<path d="M83.7445 32.4500
L96.2445 32.4500
" />
<path d="M86.7445 17.9500
L86.7445 19.7500
" />
<path d="M86.7445 19.7500
L83.7445 19.7500
" />
<path d="M93.2445 17.9500
L86.7445 17.9500
" />
<path d="M93.2445 19.7500
L93.2445 17.9500
" />
<path d="M96.2445 19.7500
L93.2445 19.7500
" />
<path d="M96.2445 32.4500
L96.2445 19.7500
" />
</g> 
</svg>
